<svg xmlns="http://www.w3.org/2000/svg" viewBox="0 0 47.5 47.5"><defs><clipPath id="a"><path d="M0 38h38V0H0v38z"/></clipPath></defs><g clip-path="url(#a)" transform="matrix(1.25 0 0 -1.25 0 47.5)"><path d="M33 5a4 4 0 0 0-4-4H9a4 4 0 0 0-4 4v28a4 4 0 0 0 4 4h20a4 4 0 0 0 4-4V5z" fill="#e6e7e8"/><path d="M12 30c-2.519 0-4.583-1.87-4.929-4.293A3.979 3.979 0 0 0 10 27a4 4 0 0 0 4-4c0-2 1.497-2.198.707-2.929C17.13 20.417 17 22.481 17 25a5 5 0 0 1-5 5" fill="#dd2e44"/><path d="M24 23a4 4 0 0 0 4 4 3.979 3.979 0 0 0 2.929-1.293C30.583 28.13 28.52 30 26 30a5 5 0 0 1-5-5c0-2.519-.131-4.583 2.293-4.929-.79.731.707.929.707 2.929" fill="#55acee"/><path d="M15 25c0 4.971 4 9 4 9s4-4.029 4-9-1.791-9-4-9-4 4.029-4 9" fill="#ffac33"/><path d="M12.707 15.929a3.974 3.974 0 0 0 1.292-2.93 4 4 0 0 0-4-4 3.975 3.975 0 0 0-2.928 1.294C7.416 7.869 9.482 6 12 6a5 5 0 0 1 5 5c0 2.52-1.869 4.583-4.293 4.929M28 9a4 4 0 0 0-4 4c0 1.161.503 2.198 1.293 2.929C22.869 15.583 21 13.52 21 11a5 5 0 0 1 5-5c2.52 0 4.583 1.869 4.929 4.293A3.979 3.979 0 0 0 28 9" fill="#553788"/><path d="M15 13c0-4.971 3-9 4-9s4 4.029 4 9-1.791 9-4 9-4-4.029-4-9" fill="#9266cc"/><path d="M14 20c0 3.866 3 4 5 4s5-.134 5-4c0-3.865-2.238-7-5-7-2.761 0-5 3.135-5 7" fill="#edbb9f"/><path d="M18 20a1 1 0 1 0-2 0 1 1 0 0 0 2 0M22 20a1 1 0 1 0-2 0 1 1 0 0 0 2 0M19 15a2 2 0 0 1 2 2h-4a2 2 0 0 1 2-2" fill="#662113"/><path d="M8 26a1 1 0 1 0-2 0 1 1 0 0 0 2 0" fill="#a0041e"/><path d="M30 26a1 1 0 1 1 2 0 1 1 0 0 1-2 0" fill="#269"/><path d="M18 34a1 1 0 1 0 2 0 1 1 0 0 0-2 0" fill="#dd2e44"/></g></svg>