<svg xmlns="http://www.w3.org/2000/svg" viewBox="0 0 47.5 47.5"><defs><clipPath id="a"><path d="M0 38h38V0H0v38z"/></clipPath></defs><g clip-path="url(#a)" transform="matrix(1.25 0 0 -1.25 0 47.5)"><path d="M37 5a4 4 0 0 0-4-4H5a4 4 0 0 0-4 4v28a4 4 0 0 0 4 4h28a4 4 0 0 0 4-4V5z" fill="#be1931"/><path d="M25.016 18.999c0 3.872-2.016 7.36-6.016 7.36s-6.015-3.488-6.015-7.36c0-3.903 1.95-7.359 6.015-7.359 4.065 0 6.016 3.456 6.016 7.359m-17.023 0c0 6.656 4.48 11.776 11.007 11.776 6.432 0 11.008-5.28 11.008-11.776 0-6.623-4.45-11.774-11.008-11.774-6.495 0-11.007 5.151-11.007 11.774" fill="#fff"/></g></svg>