<svg xmlns="http://www.w3.org/2000/svg" viewBox="0 0 47.5 47.5"><defs><clipPath id="a"><path d="M0 38h38V0H0v38z"/></clipPath></defs><g clip-path="url(#a)" transform="matrix(1.25 0 0 -1.25 0 47.5)"><path d="M37 5a4 4 0 0 0-4-4H5a4 4 0 0 0-4 4v28a4 4 0 0 0 4 4h28a4 4 0 0 0 4-4V5z" fill="#be1931"/><path d="M8.458 16.765h5.32l-2.604 8.119h-.056l-2.66-8.12zM8.15 26.928c.476 1.288 1.568 2.324 2.996 2.324 1.484 0 2.52-.98 2.997-2.324l5.488-15.231c.168-.45.223-.84.223-1.036 0-1.092-.896-1.848-1.931-1.848-1.177 0-1.765.616-2.044 1.456L15 12.999H7.28l-.866-2.702c-.28-.868-.868-1.484-2.016-1.484-1.12 0-2.072.84-2.072 1.96 0 .448.14.784.196.924l5.628 15.23zM25.2 13h3.304c1.512 0 2.632.729 2.632 2.296 0 1.315-1.008 2.112-2.968 2.112H25.2V13zm0 8h2.184c1.372 0 2.268.815 2.268 2.216 0 1.315-1.036 2.088-2.268 2.088H25.2V21zM21 26.9c0 1.344.924 2.1 2.212 2.1h5.376c2.912 0 5.264-1.96 5.264-4.928 0-1.96-.812-3.276-2.604-4.116V19.9c2.38-.336 4.256-2.423 4.256-4.859 0-3.948-2.632-6.041-6.496-6.041H23.24C21.952 9 21 9.876 21 11.192V26.9z" fill="#fff"/></g></svg>