<svg xmlns="http://www.w3.org/2000/svg" viewBox="0 0 47.5 47.5"><defs><clipPath id="a"><path d="M0 38h38V0H0v38z"/></clipPath></defs><g clip-path="url(#a)" transform="matrix(1.25 0 0 -1.25 0 47.5)"><path d="M37 5c0-4-4-4-4-4H5C1 1 1 5 1 5v28c0 4 4 4 4 4h28s4 0 4-4V5z" fill="#f4900c"/><path d="M2.5 26.59c-.15.39-.21.69-.21 1.11 0 1.26 1.11 2.16 2.312 2.16 1.018 0 1.648-.66 2.038-1.47l4.65-12.48 4.65 12.48c.39.81 1.02 1.47 2.04 1.47 1.2 0 2.31-.9 2.31-2.16 0-.42-.06-.72-.21-1.11L13.51 9.88c-.39-.96-.9-1.738-2.22-1.738-1.32 0-1.83.779-2.22 1.738L2.5 26.59zM34.15 27.04c0-1.17-.78-2.22-2.01-2.22-1.23 0-2.19.9-3.99.9-1.29 0-2.46-.69-2.46-1.95 0-3.089 10.02-1.11 10.02-8.849 0-4.291-3.54-6.961-7.68-6.961-2.31 0-7.29.541-7.29 3.361 0 1.17.78 2.129 2.01 2.129 1.41 0 3.09-1.17 5.041-1.17 1.978 0 3.058 1.11 3.058 2.58 0 3.541-10.019 1.41-10.019 8.369 0 4.202 3.45 6.811 7.44 6.811 1.68 0 5.88-.63 5.88-3" fill="#fff"/></g></svg>