<svg xmlns="http://www.w3.org/2000/svg" viewBox="0 0 47.5 47.5"><defs><clipPath id="a"><path d="M0 38h38V0H0v38z"/></clipPath></defs><g clip-path="url(#a)" transform="matrix(1.25 0 0 -1.25 0 47.5)"><path d="M37 5a4 4 0 0 0-4-4H5a4 4 0 0 0-4 4v28a4 4 0 0 0 4 4h28a4 4 0 0 0 4-4V5z" fill="#9266cc"/><path d="M6.717 27.844c0 1.55.992 2.418 2.325 2.418 1.333 0 2.325-.868 2.325-2.418V10.233c0-1.551-.992-2.418-2.325-2.418-1.333 0-2.325.867-2.325 2.418v17.61zM18.807 12.28h3.132c4 0 5.828 2.944 5.828 6.665 0 3.97-1.859 6.852-6.138 6.852h-2.822V12.28zm-4.65 15.408c0 1.427.992 2.388 2.387 2.388h5.147c6.946 0 10.914-4.465 10.914-11.348C32.605 12.218 28.39 8 22.001 8h-5.395c-1.024 0-2.449.558-2.449 2.325v17.363z" fill="#fff"/></g></svg>