<svg xmlns="http://www.w3.org/2000/svg" viewBox="0 0 47.5 47.5"><defs><clipPath id="a"><path d="M0 38h38V0H0v38z"/></clipPath></defs><g clip-path="url(#a)" transform="matrix(1.25 0 0 -1.25 0 47.5)"><path d="M37 5a4 4 0 0 0-4-4H5a4 4 0 0 0-4 4v28a4 4 0 0 0 4 4h28a4 4 0 0 0 4-4V5z" fill="#dd2e44"/><path d="M13.81 30.448c2.263 0 6.667-.744 6.667-3.473 0-1.116-.776-2.077-1.923-2.077-1.27 0-2.14 1.085-4.744 1.085-3.845 0-5.829-3.256-5.829-7.038 0-3.689 2.015-6.852 5.83-6.852 2.603 0 3.657 1.301 4.93 1.301 1.394 0 2.045-1.394 2.045-2.107 0-2.977-4.682-3.659-6.976-3.659-6.294 0-10.666 4.992-10.666 11.41 0 6.45 4.341 11.41 10.666 11.41M22.332 27.844c0 1.55.992 2.418 2.326 2.418s2.326-.868 2.326-2.418V12.28h5.518c1.582 0 2.264-1.18 2.232-2.233C34.674 9.024 33.867 8 32.502 8h-7.75c-1.52 0-2.42.992-2.42 2.543v17.3z" fill="#fff"/></g></svg>