<svg xmlns="http://www.w3.org/2000/svg" viewBox="0 0 47.5 47.5"><defs><clipPath id="a"><path d="M0 38h38V0H0v38z"/></clipPath></defs><g clip-path="url(#a)" transform="matrix(1.25 0 0 -1.25 0 47.5)"><path d="M37 5a4 4 0 0 0-4-4H5a4 4 0 0 0-4 4v28a4 4 0 0 0 4 4h28a4 4 0 0 0 4-4V5z" fill="#3b88c3"/><path d="M2.836 24.416c0 .738.504 1.404 1.405 1.404h4.61c.791 0 1.205-.612 1.205-1.242 0-.612-.396-1.243-1.206-1.243H5.537v-2.628h2.791c.864 0 1.296-.613 1.296-1.224 0-.631-.432-1.261-1.296-1.261h-2.79v-3.925c0-.9-.577-1.405-1.35-1.405-.776 0-1.352.505-1.352 1.405v10.119zM13.53 20.148h1.853c.991 0 1.675.594 1.675 1.603 0 1.025-.684 1.584-1.675 1.584H13.53v-3.187zm-2.702 4.267c0 .864.486 1.404 1.387 1.404h3.168c2.773 0 4.484-1.242 4.484-4.068 0-1.982-1.495-3.116-3.33-3.404l3.06-3.277c.252-.27.36-.54.36-.792 0-.702-.558-1.387-1.35-1.387-.325 0-.757.126-1.045.47l-3.997 4.842h-.036v-3.907c0-.9-.576-1.405-1.35-1.405-.775 0-1.35.505-1.35 1.405v10.12zM20.477 24.253c0 .9.449 1.566 1.404 1.566h4.465c.865 0 1.279-.612 1.279-1.242 0-.612-.433-1.242-1.28-1.242h-3.167v-2.629h2.952c.882 0 1.314-.613 1.314-1.243 0-.612-.45-1.242-1.314-1.242h-2.952v-2.737h3.33c.865 0 1.28-.61 1.28-1.242 0-.613-.434-1.242-1.28-1.242h-4.644c-.793 0-1.387.54-1.387 1.35v9.903zM28.451 24.253c0 .9.45 1.566 1.404 1.566h4.465c.863 0 1.277-.612 1.277-1.242 0-.612-.43-1.242-1.277-1.242h-3.17v-2.629h2.953c.883 0 1.315-.613 1.315-1.243 0-.612-.449-1.242-1.315-1.242H31.15v-2.737h3.332c.864 0 1.278-.61 1.278-1.242 0-.613-.432-1.242-1.278-1.242h-4.646c-.79 0-1.385.54-1.385 1.35v9.903z" fill="#fff"/></g></svg>