<svg xmlns="http://www.w3.org/2000/svg" viewBox="0 0 47.5 47.5"><defs><clipPath id="a"><path d="M0 38h38V0H0v38z"/></clipPath></defs><path d="M1.25 12.574V17.5h7.035L1.25 12.574zM7.08 40H17.5v-7.296L7.08 40zM30 32.705V40h10.419L30 32.705zM1.25 30v4.926L8.287 30H1.25zM40.421 7.5H30v7.296L40.42 7.5zM46.25 34.928V30h-7.039l7.039 4.928zM46.25 17.5v-4.926L39.214 17.5h7.036zM17.5 7.5H7.08l10.42 7.296V7.5z" fill="#269"/><g clip-path="url(#a)" transform="matrix(1.25 0 0 -1.25 0 47.5)"><path d="M26.14 14l9.712-6.801c.47.48.808 1.082.99 1.749L29.627 14H26.14zM14 14h-2.141L2.148 7.2a3.991 3.991 0 0 1 1.938-1.085L14 13.057V14zM24 24h2.141l9.711 6.8a3.993 3.993 0 0 1-1.937 1.085L24 24.943V24zM11.859 24l-9.711 6.8a3.994 3.994 0 0 1-.991-1.749L8.372 24h3.487z" fill="#dd2e44"/><path d="M37 16H22V6h2v5.836L32.335 6H33a3.99 3.99 0 0 1 2.852 1.199L26.14 14h3.487l7.215-5.052c.093.337.158.686.158 1.052v.058L31.369 14H37v2zM1 16v-2h5.63L1 10.059V10c0-1.091.439-2.078 1.148-2.8l9.711 6.8H14v-.943L4.086 6.115C4.38 6.046 4.684 6 5 6h.664L14 11.837V6h2v10H1zM37 28a3.983 3.983 0 0 1-1.148 2.8L26.141 24H24v.943l9.915 6.942A4.001 4.001 0 0 1 33 32h-.663L24 26.163V32h-2V22h15v2h-5.629L37 27.941V28zM14 32v-5.837L5.664 32H5a3.985 3.985 0 0 1-2.852-1.2l9.711-6.8H8.372l-7.215 5.051A3.968 3.968 0 0 1 1 28v-.059L6.628 24H1v-2h15v10h-2z" fill="#eee"/><path d="M22 22v10h-6V22H1v-6h15V6h6v10h15v6H22z" fill="#dd2e44"/></g></svg>