<svg xmlns="http://www.w3.org/2000/svg" viewBox="0 0 47.5 47.5"><defs><clipPath id="a"><path d="M0 38h38V0H0v38z"/></clipPath></defs><g clip-path="url(#a)" transform="matrix(1.25 0 0 -1.25 0 47.5)"><path d="M37 5a4 4 0 0 0-4-4H5a4 4 0 0 0-4 4v28a4 4 0 0 0 4 4h28a4 4 0 0 0 4-4V5z" fill="#3b88c3"/><path d="M13.22 27.379c0 1.55.774 2.697 2.417 2.697h7.69c1.487 0 2.201-1.054 2.201-2.14 0-1.053-.744-2.14-2.202-2.14H17.87v-4.525h5.086c1.52 0 2.264-1.055 2.264-2.14 0-1.054-.776-2.14-2.264-2.14H17.87V12.28h5.736c1.49 0 2.201-1.054 2.201-2.14 0-1.054-.744-2.14-2.2-2.14h-8c-1.364 0-2.387.93-2.387 2.326v17.054z" fill="#fff"/></g></svg>