<svg xmlns="http://www.w3.org/2000/svg" viewBox="0 0 47.5 47.5"><defs><clipPath id="a"><path d="M0 38h38V0H0v38z"/></clipPath></defs><g clip-path="url(#a)" transform="matrix(1.25 0 0 -1.25 0 47.5)"><path d="M37 10a4 4 0 0 0-4-4H5a4 4 0 0 0-4 4v18a4 4 0 0 0 4 4h28a4 4 0 0 0 4-4V10z" fill="#dd2e44"/><path d="M37 13H1v12h36V13z" fill="#ffcc4d"/><path d="M10 20v-3a3 3 0 1 1 6 0v3h-6z" fill="#ea596e"/><path d="M13 18h3v3h-3v-3z" fill="#f4a2b2"/><path d="M13 18h-3v3h3v-3z" fill="#dd2e44"/><path d="M16 22.5c0-.829-1.343-1.5-3-1.5s-3 .671-3 1.5 1.343 1.5 3 1.5 3-.671 3-1.5" fill="#ea596e"/><path d="M16 23.25c0 .414-1.343.75-3 .75s-3-.336-3-.75 1.343-.75 3-.75 3 .336 3 .75" fill="#ffac33"/><path d="M8 14h1v7H8v-7zM18 14h-1v7h1v-7z" fill="#99aab5"/><path d="M10 14H7v1h3v-1zM19 14h-3v1h3v-1zM9 21H8v1h1v-1zM18 21h-1v1h1v-1z" fill="#66757f"/></g></svg>