<svg xmlns="http://www.w3.org/2000/svg" viewBox="0 0 47.5 47.5"><defs><clipPath id="a"><path d="M0 38h38V0H0v38z"/></clipPath></defs><g clip-path="url(#a)" transform="matrix(1.25 0 0 -1.25 0 47.5)"><path d="M37 5a4 4 0 0 0-4-4H5a4 4 0 0 0-4 4v28a4 4 0 0 0 4 4h28a4 4 0 0 0 4-4V5z" fill="#3b88c3"/><path d="M27.621 27.999c0 1.24-.93 2.263-2.232 2.263-.807 0-1.52-.341-1.922-.93l-4.466-6.48-4.464 6.48c-.404.589-1.117.93-1.923.93-1.302 0-2.232-1.023-2.232-2.263 0-.496.155-.992.434-1.396L16 19.308v-8.417A2.89 2.89 0 0 1 18.891 8h.218A2.89 2.89 0 0 1 22 10.891v8.413l5.187 7.299c.28.404.434.9.434 1.396" fill="#fff"/></g></svg>