<svg xmlns="http://www.w3.org/2000/svg" viewBox="0 0 47.5 47.5"><defs><clipPath id="a"><path d="M0 38h38V0H0v38z"/></clipPath></defs><g clip-path="url(#a)" transform="matrix(1.25 0 0 -1.25 0 47.5)"><path d="M37 5a4 4 0 0 0-4-4H5a4 4 0 0 0-4 4v28a4 4 0 0 0 4 4h28a4 4 0 0 0 4-4V5z" fill="#3b88c3"/><path d="M16.428 20.31h3.193c1.705 0 2.885 1.023 2.885 2.759 0 1.767-1.18 2.729-2.885 2.729h-3.193V20.31zm-4.65 7.348c0 1.488.836 2.419 2.386 2.419h5.457c4.775 0 7.721-2.14 7.721-7.008 0-3.41-2.574-5.363-5.737-5.86l5.272-5.643c.433-.465.62-.93.62-1.364 0-1.21-.962-2.387-2.325-2.387-.559 0-1.303.217-1.799.806l-6.883 8.34h-.062v-6.728c0-1.551-.992-2.418-2.326-2.418-1.333 0-2.325.867-2.325 2.418v17.425z" fill="#fff"/></g></svg>