<svg xmlns="http://www.w3.org/2000/svg" viewBox="0 0 47.5 47.5"><defs><clipPath id="a"><path d="M0 38h38V0H0v38z"/></clipPath></defs><g clip-path="url(#a)" transform="matrix(1.25 0 0 -1.25 0 47.5)"><path d="M37 5a4 4 0 0 0-4-4H5a4 4 0 0 0-4 4v28a4 4 0 0 0 4 4h28a4 4 0 0 0 4-4V5z" fill="#3b88c3"/><path d="M9.918 26.883A2.903 2.903 0 0 0 9.7 28.03c0 1.302 1.146 2.232 2.386 2.232 1.056 0 1.706-.682 2.109-1.52l4.806-12.897 4.807 12.898c.402.837 1.053 1.519 2.108 1.519 1.24 0 2.386-.93 2.386-2.232 0-.434-.06-.744-.217-1.147l-6.79-17.271c-.403-.992-.93-1.797-2.294-1.797-1.364 0-1.891.805-2.294 1.797l-6.79 17.27z" fill="#fff"/></g></svg>