<svg xmlns="http://www.w3.org/2000/svg" viewBox="0 0 47.5 47.5"><defs><clipPath id="a"><path d="M0 38h38V0H0v38z"/></clipPath></defs><g clip-path="url(#a)" transform="matrix(1.25 0 0 -1.25 0 47.5)"><path d="M37 5a4 4 0 0 0-4-4H5a4 4 0 0 0-4 4v28a4 4 0 0 0 4 4h28a4 4 0 0 0 4-4V5z" fill="#3b88c3"/><path d="M10.925 27.968c0 1.27.93 2.294 2.325 2.294 1.333 0 2.325-.868 2.325-2.294V21.27l7.628 8.123c.342.372.93.868 1.8.868 1.176 0 2.294-.898 2.294-2.232 0-.806-.497-1.458-1.52-2.48l-5.86-5.768 7.161-7.472c.744-.744 1.303-1.426 1.303-2.357 0-1.457-1.147-2.138-2.418-2.138-.899 0-1.489.526-2.357 1.457l-8.03 8.68v-7.905c0-1.21-.93-2.232-2.326-2.232-1.333 0-2.325.867-2.325 2.232v17.92z" fill="#fff"/></g></svg>