<svg xmlns="http://www.w3.org/2000/svg" viewBox="0 0 47.5 47.5"><defs><clipPath id="a"><path d="M0 38h38V0H0v38z"/></clipPath></defs><g clip-path="url(#a)" transform="matrix(1.25 0 0 -1.25 0 47.5)"><path d="M37 5a4 4 0 0 0-4-4H5a4 4 0 0 0-4 4v28a4 4 0 0 0 4 4h28a4 4 0 0 0 4-4V5z" fill="#3b88c3"/><path d="M9 27.844c0 1.55 1.167 2.418 2.5 2.418s2.5-.868 2.5-2.418V17.023c0-2.853 2.055-4.923 5-4.923 2.822 0 5 2.194 5 4.923v10.82c0 1.55 1.168 2.419 2.5 2.419 1.334 0 2.467-.868 2.467-2.418v-11.07c0-5.208-4.852-9.146-9.967-9.146-5.178 0-10 3.876-10 9.147v11.069z" fill="#fff"/></g></svg>