<svg xmlns="http://www.w3.org/2000/svg" viewBox="0 0 47.5 47.5"><defs><clipPath id="a"><path d="M0 38h38V0H0v38z"/></clipPath></defs><g clip-path="url(#a)" transform="matrix(1.25 0 0 -1.25 0 47.5)"><path d="M37 5a4 4 0 0 0-4-4H5a4 4 0 0 0-4 4v28a4 4 0 0 0 4 4h28a4 4 0 0 0 4-4V5z" fill="#3b88c3"/><path d="M16.676 25.797h-3.38c-1.488 0-2.108 1.085-2.108 2.14 0 1.085.775 2.14 2.108 2.14h11.411c1.332 0 2.107-1.055 2.107-2.14 0-1.055-.619-2.14-2.107-2.14h-3.38V10.232c0-1.55-.993-2.418-2.326-2.418-1.333 0-2.325.867-2.325 2.418v15.565z" fill="#fff"/></g></svg>