<svg xmlns="http://www.w3.org/2000/svg" viewBox="0 0 47.5 47.5"><defs><clipPath id="a"><path d="M0 38h38V0H0v38z"/></clipPath></defs><g clip-path="url(#a)" transform="matrix(1.25 0 0 -1.25 0 47.5)"><path d="M37 5a4 4 0 0 0-4-4H5a4 4 0 0 0-4 4v28a4 4 0 0 0 4 4h28a4 4 0 0 0 4-4V5z" fill="#3b88c3"/><path d="M16.428 19.41h3.162c1.954 0 3.194 1.426 3.194 3.287 0 1.86-1.24 3.286-3.194 3.286h-3.162V19.41zm-4.65 8.248c0 1.457.867 2.418 2.418 2.418h5.487c4.56 0 7.938-2.977 7.938-7.41 0-4.527-3.504-7.349-7.752-7.349h-3.44v-5.085c0-1.55-.993-2.418-2.327-2.418-1.333 0-2.325.867-2.325 2.418v17.426z" fill="#fff"/></g></svg>