<svg xmlns="http://www.w3.org/2000/svg" viewBox="0 0 47.5 47.5"><defs><clipPath id="a"><path d="M0 38h38V0H0v38z"/></clipPath></defs><g clip-path="url(#a)" transform="matrix(1.25 0 0 -1.25 0 47.5)"><path d="M37 10a4 4 0 0 0-4-4H5a4 4 0 0 0-4 4v18a4 4 0 0 0 4 4h28a4 4 0 0 0 4-4V10z" fill="#dd2e44"/><path d="M1.555 8h34.89c.344.591.555 1.268.555 2H1c0-.732.212-1.409.555-2M37 12H1v2h36v-2zM37 16H1v2h36v-2zM37 20H1v2h36v-2zM37 24H1v2h36v-2zM1.555 30A3.965 3.965 0 0 1 1 28h36c0 .732-.211 1.41-.554 2H1.555z" fill="#eee"/><path d="M19 32H5a4 4 0 0 1-4-4V18h18v14z" fill="#3b88c3"/><path d="M15 28h2v2h-2v-2zM13 26h2v2h-2v-2zM17 24h-2v2h2v-2zM13 22h2v2h-2v-2zM13 28h-2v2h2v-2zM13 24h-2v2h2v-2zM9 22h2v2H9v-2zM11 26H9v2h2v-2zM7 28h2v2H7v-2zM5 26h2v2H5v-2zM7 24h2v2H7v-2zM5 22h2v2H5v-2zM3 30h2v-2H3v2zM3 24h2v2H3v-2zM17 20h-2v2h2v-2zM13 20h-2v2h2v-2zM7 20h2v2H7v-2zM3 20h2v2H3v-2z" fill="#bbddf5"/></g></svg>