<svg xmlns="http://www.w3.org/2000/svg" viewBox="0 0 47.5 47.5"><defs><clipPath id="a"><path d="M0 38h38V0H0v38z"/></clipPath></defs><g clip-path="url(#a)" transform="matrix(1.25 0 0 -1.25 0 47.5)"><path d="M37 10a4 4 0 0 0-4-4H5a4 4 0 0 0-4 4v18a4 4 0 0 0 4 4h28a4 4 0 0 0 4-4V10z" fill="#eee"/><path d="M22.441 23.915a6 6 0 0 1-8.356-1.474A3 3 0 1 1 19 19a3 3 0 0 0 4.915-3.441 6 6 0 0 1-1.474 8.356" fill="#c60c30"/><path d="M23.178 19.736A3.001 3.001 0 0 1 19 19a3 3 0 1 0-4.914 3.441 5.998 5.998 0 0 1 1.473-8.356 5.998 5.998 0 0 1 8.356 1.473 3 3 0 0 1-.737 4.178" fill="#003478"/><path d="M27.264 13.725l-1.93-2.3.767-.641 1.929 2.298-.766.643zM27.906 14.49l.766-.643 1.927 2.297-.765.644-1.928-2.298zM28.795 12.438l-1.928-2.298.766-.643 1.928 2.297-.766.644zM29.438 13.205l.766-.644 1.928 2.298-.765.643-1.93-2.297zM30.327 11.152l-1.929-2.298.767-.642 1.93 2.297-.768.643zM30.97 11.919l.767-.643 1.927 2.298-.765.643-1.93-2.298zM31.736 26.725l-.766-.643 1.93-2.298.766.642-1.93 2.299zM31.094 27.49l-1.928 2.3-.765-.644 1.927-2.299.766.643zM31.367 22.498l-4.5 5.362.767.643 4.5-5.362-.767-.643zM28.03 24.92L26.1 27.218l-.765-.644 1.927-2.298.766.644zM28.672 24.153l-.766-.644 1.929-2.296.767.642-1.93 2.298zM11.9 10.782l-4.5 5.363.765.643 4.5-5.362-.766-.644zM8.562 13.204l-1.928 2.3-.766-.645 1.928-2.298.766.643zM9.205 12.438l-.766-.644 1.929-2.297.766.642-1.93 2.3zM8.835 8.212l-4.5 5.362.767.643 4.499-5.362-.766-.643zM9.6 29.146l-4.5-5.362-.766.642 4.5 5.363.766-.643zM11.133 27.86l-4.5-5.362-.766.642 4.499 5.363.767-.643zM12.664 26.575l-4.499-5.362-.767.643 4.5 5.362.766-.643z" fill="#292f33"/></g></svg>