<svg xmlns="http://www.w3.org/2000/svg" viewBox="0 0 47.5 47.5"><defs><clipPath id="a"><path d="M0 38h38V0H0v38z"/></clipPath></defs><g clip-path="url(#a)" transform="matrix(1.25 0 0 -1.25 0 47.5)"><path d="M37 5a4 4 0 0 0-4-4H5a4 4 0 0 0-4 4v28a4 4 0 0 0 4 4h28a4 4 0 0 0 4-4V5z" fill="#3b88c3"/><path d="M12.275 29.676c0 .648.432 1.026 1.134 1.026.675 0 1.187-.378 1.187-1.026v-4.292h8.827v4.292c0 .648.405 1.026 1.107 1.026.675 0 1.187-.378 1.187-1.026v-4.292h4.13c.73 0 1.027-.458 1.027-1.052 0-.594-.298-1.08-.999-1.08h-4.158v-2.889c0-3.266-.674-5.83-1.969-7.72-1.674-2.428-4.67-4.183-7.99-4.75-.136-.027-.244-.027-.352-.027-.593 0-.944.297-1.052.837-.027.108-.027.188-.027.297 0 .54.35.89.971 1 2.645.458 5.237 2.05 6.533 3.94 1.08 1.566 1.592 3.697 1.592 6.882v2.43h-8.827v-6.64c0-.675-.512-1.026-1.187-1.026-.702 0-1.134.351-1.134 1.025v6.641H8.118c-.7 0-.998.486-.998 1.08 0 .594.297 1.025 1.025 1.025h4.13v4.32z" fill="#fff"/></g></svg>