<svg xmlns="http://www.w3.org/2000/svg" viewBox="0 0 47.5 47.5"><defs><clipPath id="a"><path d="M0 38h38V0H0v38z"/></clipPath></defs><g clip-path="url(#a)" transform="matrix(1.25 0 0 -1.25 0 47.5)"><path d="M37 5a4 4 0 0 0-4-4H5a4 4 0 0 0-4 4v28a4 4 0 0 0 4 4h28a4 4 0 0 0 4-4V5z" fill="#3b88c3"/><path d="M15.735 25.919c1.694 0 2.508-.924 2.508-2.685v-9.571c0-1.76-.814-2.662-2.508-2.662H3.26c-.528 0-.836.374-.836.946 0 .594.264.924.858.924h11.904c.858 0 1.078.242 1.078 1.034v9.13c0 .794-.22 1.013-1.078 1.013H3.633c-.572 0-.836.33-.836.903 0 .594.264.968.858.968h12.08zM32.565 25.919c1.694 0 2.51-.924 2.51-2.685v-9.571c0-1.76-.816-2.662-2.51-2.662H20.09c-.528 0-.836.374-.836.946 0 .594.264.924.858.924h11.904c.86 0 1.078.242 1.078 1.034v9.13c0 .794-.219 1.013-1.078 1.013H20.463c-.572 0-.836.33-.836.903 0 .594.264.968.86.968h12.078z" fill="#fff"/></g></svg>