<svg xmlns="http://www.w3.org/2000/svg" viewBox="0 0 47.5 47.5"><defs><clipPath id="a"><path d="M0 38h38V0H0v38z"/></clipPath></defs><g clip-path="url(#a)" transform="matrix(1.25 0 0 -1.25 0 47.5)"><path d="M37 5a4 4 0 0 0-4-4H5a4 4 0 0 0-4 4v28a4 4 0 0 0 4 4h28a4 4 0 0 0 4-4V5z" fill="#9266cc"/><path d="M27.886 27.748c1.534 0 2.288-.676 2.288-2.158v-1.612c0-.494-.364-.729-.962-.729-.597 0-.988.235-.988.729v1.196c0 .572-.312.754-.832.754h-5.277V21.43c0-.832.128-.936 2.625-.936 2.08 0 2.34.156 2.652.467.182.183.234.624.26 1.171.052.416.338.598.78.598.078 0 .156 0 .26-.026.598-.052.91-.364.91-.832v-.13c-.077-.911-.285-1.743-.624-2.106-.468-.52-1.144-.885-3.873-.91h-.547c-1.586 0-2.704.104-3.406.363-.702.261-.99.755-.99 1.664v5.175h-3.04c-.208-4.524-2.808-7.098-7.93-8.424-.13-.053-.235-.053-.338-.053-.443 0-.755.26-.86.729a1.52 1.52 0 0 0-.05.338c0 .416.286.702.754.806 4.316 1.066 6.318 3.12 6.5 6.604h-4.524c-.546 0-.832-.182-.832-.754V22.99c0-.52-.416-.781-1.015-.781-.597 0-.962.261-.962.781v2.6c0 1.482.754 2.158 2.289 2.158h7.722v2.288c0 .494.364.728.988.728s.988-.234.988-.728v-2.288h8.034zm-17.42-13.469c-.47 0-.754.338-.754.885 0 .572.285.936.754.936h17.108c.468 0 .754-.364.754-.911 0-.546-.286-.91-.754-.91h-7.67V9.391h9.959c.494 0 .753-.364.753-.911 0-.544-.26-.935-.753-.935H8.152c-.47 0-.754.391-.754.935 0 .573.285.911.754.911h9.698v4.888h-7.384z" fill="#fff"/></g></svg>