<svg xmlns="http://www.w3.org/2000/svg" viewBox="0 0 47.5 47.5"><defs><clipPath id="a"><path d="M0 38h38V0H0v38z"/></clipPath></defs><g clip-path="url(#a)" transform="matrix(1.25 0 0 -1.25 0 47.5)"><path d="M37 5a4 4 0 0 0-4-4H5a4 4 0 0 0-4 4v28a4 4 0 0 0 4 4h28a4 4 0 0 0 4-4V5z" fill="#dd2e44"/><path d="M24.272 26.721h-5.097v-2.834h5.097v2.834zm-10.712-4.55c-.468 0-.728.312-.728.858 0 .52.26.858.728.858h3.795v2.834h-2.963c-.468 0-.728.338-.728.884 0 .52.26.832.728.832h2.963v1.898c0 .442.339.702.885.702.572 0 .936-.26.936-.702v-1.898h5.096v1.898c0 .442.364.676.911.676.571 0 .909-.234.909-.676v-1.898h3.458c.469 0 .728-.312.728-.832 0-.546-.259-.884-.728-.884h-3.458v-2.834h4.316c.468 0 .728-.312.728-.858 0-.52-.26-.858-.728-.858h-7.852v-2.21h5.226c1.534 0 2.21-.676 2.21-2.055V9.612c0-1.716-.78-2.391-2.652-2.391-.78 0-1.586.051-2.314.181a.877.877 0 0 0-.702.884c0 .078 0 .156.027.235.103.519.466.753.805.753.052 0 .104 0 .156-.026.65-.155 1.3-.208 1.794-.208.858 0 1.066.208 1.066.962v7.644c0 .521-.26.651-.806.651h-4.81v-6.37h1.248c.468 0 .675.155.675.649v3.563c0 .441.365.702.859.702.442 0 .91-.261.91-.702V12.16c0-1.351-.572-1.872-1.897-1.872h-5.279c-1.326 0-1.898.521-1.898 1.872v3.979c0 .441.442.702.884.702.494 0 .884-.261.884-.702v-3.563c0-.494.208-.649.676-.649h1.117v6.37H16.29c-.52 0-.78-.13-.78-.651V7.637c0-.547-.39-.807-.989-.807-.545 0-.936.26-.936.807v10.269c0 1.379.677 2.055 2.211 2.055h4.939v2.21H13.56zm-.573 4.94a.993.993 0 0 0-.234-.65 1.01 1.01 0 0 0-.753-.338 1.1 1.1 0 0 0-.78.312 21.763 21.763 0 0 1-3.017 2.444c-.234.156-.364.442-.364.728 0 .208.078.442.234.624.208.26.494.416.806.416a.986.986 0 0 0 .572-.182 20.417 20.417 0 0 0 3.198-2.548c.235-.234.338-.52.338-.806m-.675-11.83c0-.131-.026-.234-.052-.364-.755-2.288-1.899-4.94-3.225-7.099a.99.99 0 0 0-.884-.494c-.182 0-.39.052-.598.156-.312.182-.52.495-.52.833 0 .181.052.389.182.572 1.223 1.975 2.418 4.42 3.12 6.708.13.442.469.649.885.649.103 0 .234-.025.338-.052.494-.155.754-.519.754-.909m-.391 6.136c.208-.182.339-.468.339-.754 0-.208-.078-.416-.235-.624-.208-.26-.52-.39-.805-.39a.923.923 0 0 0-.677.26 23.129 23.129 0 0 1-3.458 2.6c-.233.13-.364.39-.364.702 0 .208.078.416.208.624.208.26.494.39.806.39.182 0 .365-.052.52-.13 1.248-.702 2.549-1.716 3.666-2.678" fill="#fff"/></g></svg>