<svg xmlns="http://www.w3.org/2000/svg" viewBox="0 0 47.5 47.5"><defs><clipPath id="a"><path d="M0 38h38V0H0v38z"/></clipPath><clipPath id="b"><path d="M5 37c-4 0-4-4-4-4V5c0-4 4-4 4-4h28c4 0 4 4 4 4v28c0 4-4 4-4 4H5z"/></clipPath></defs><g clip-path="url(#a)" transform="matrix(1.25 0 0 -1.25 0 47.5)"><path d="M1 33s0 4 4 4h28s4 0 4-4V5s0-4-4-4H5S1 1 1 5v28z" fill="#88c9f9"/></g><g clip-path="url(#b)" transform="matrix(1.25 0 0 -1.25 0 47.5)"><path d="M1 1c0 19.882 16.118 36 36 36S73 20.882 73 1 56.882-35 37-35 1-18.882 1 1" fill="#ed1c24"/><path d="M4.042 1c0 18.203 14.756 32.958 32.957 32.958 18.203 0 32.96-14.755 32.96-32.958 0-18.202-14.757-32.959-32.96-32.959C18.797-31.959 4.041-17.202 4.041 1" fill="#f4900c"/><path d="M7.042 1c0 16.546 13.413 29.958 29.957 29.958 16.545 0 29.96-13.412 29.96-29.958 0-16.545-13.415-29.959-29.96-29.959S7.041-15.545 7.041 1" fill="#ffcc4d"/><path d="M10.041 1c0 14.889 12.07 26.958 26.958 26.958 14.888 0 26.96-12.069 26.96-26.958 0-14.888-12.072-26.959-26.96-26.959-14.888 0-26.958 12.071-26.958 26.959" fill="#5c913b"/><path d="M13.041 1c0 13.231 10.727 23.958 23.958 23.958 13.232 0 23.96-10.727 23.96-23.958 0-13.231-10.728-23.959-23.96-23.959-13.23 0-23.958 10.728-23.958 23.959" fill="#269"/><path d="M16.041 1c0 11.574 9.384 20.958 20.958 20.958 11.575 0 20.96-9.384 20.96-20.958 0-11.574-9.385-20.959-20.96-20.959-11.574 0-20.958 9.385-20.958 20.959" fill="#9266cc"/><path d="M19.041 1c0 9.917 8.042 17.958 17.958 17.958 9.918 0 17.96-8.041 17.96-17.958 0-9.918-8.042-17.959-17.96-17.959-9.916 0-17.958 8.041-17.958 17.959" fill="#88c9f9"/></g></svg>