<svg xmlns="http://www.w3.org/2000/svg" viewBox="0 0 47.5 47.5"><defs><clipPath id="a"><path d="M0 38h38V0H0v38z"/></clipPath></defs><g clip-path="url(#a)" transform="matrix(1.25 0 0 -1.25 0 47.5)"><path d="M34.398 13.322c-7.562-4.875-20.062.437-18.375 8.062 1.48 6.684 9.42 4.763 11.225 3.861 1.805-.902.713 3.89-3.475 5.327-5.673 1.947-12.618 1.535-14.812-8.25-1.5-6.687 1.437-16.062 12.718-16.187 11.282-.125 12.72 7.187 12.72 7.187" fill="#269"/><path d="M36.988 11.807c0 2.146-2.754 2.334-4 1.119-2.994-2.92-7.402-4.012-13.298-2.861-10.25 2-10.342 14.013-3.333 17.44 3.791 1.856 8.288-.34 10-1.654 1.487-1.143 4.333-2.66 4.184-.751-.319 4.06-8.28 12.76-18.946 7.26C.928 26.86 1 14.449 1 12.199v-7.25C1 2.738 2.814 1 5.023 1h28C35.233 1 37 2.739 37 4.948c0 0-.004 6.853-.012 6.859" fill="#55acee"/></g></svg>