<svg xmlns="http://www.w3.org/2000/svg" viewBox="0 0 47.5 47.5"><defs><clipPath id="a"><path d="M0 38h38V0H0v38z"/></clipPath></defs><g clip-path="url(#a)" transform="matrix(1.25 0 0 -1.25 0 47.5)"><path d="M37 5a4 4 0 0 0-4-4H5a4 4 0 0 0-4 4v28a4 4 0 0 0 4 4h28a4 4 0 0 0 4-4V5z" fill="#553788"/><path d="M33 37H20.244c-4.687-1.656.803-8.995-3.502-8.469-7.159.875-7.679-6.086-10.742-4.969-1.192.436-3.257 2.491-5 .991V5a4 4 0 0 1 4-4h1.624c1.469 1.279.927 5.622 1.709 6.75 2.834 4.084 3.695 7.482 7.901 7.188 7.125-.5 8.453 4.853 10.704 7.187C29.187 24.459 33 20.583 37 22.333V33a4 4 0 0 1-4 4" fill="#744eaa"/><path d="M37 5v2.966c-.77.84-1.917 1.784-2.583 1.7-1.276-.161-2.042-1.166-2.917-1.853-.875-.688-2.979-.272-4.667.853-1.687 1.125-3.998.106-5.127-.466-1.873-.95-2.498 1.883-4.373 3.133S12.625 8.5 11.5 7.75 9.037 8.93 8.225 9.492c-.813.563-1.892.487-3.392-.826C3.546 7.54 3.038 7.771 1 7.121V5a4 4 0 0 1 4-4h28a4 4 0 0 1 4 4" fill="#292f33"/><path d="M8.334 21.333a1.167 1.167 0 1 0-2.335 0 1.167 1.167 0 0 0 2.335 0M16.938 25.969a1.094 1.094 0 1 0-2.189 0 1.094 1.094 0 0 0 2.188 0M24.313 31.688a1.312 1.312 0 1 0-2.625 0 1.312 1.312 0 0 0 2.625 0M26.188 28.281a.78.78 0 1 0-1.562 0 .78.78 0 0 0 1.561 0M20.75 17.25a1 1 0 1 0-2 0 1 1 0 1 0 2 0M32.938 16.578a.937.937 0 1 0-1.874 0 .937.937 0 0 0 1.873 0M33.688 26.094a1.156 1.156 0 1 0-2.312 0 1.156 1.156 0 0 0 2.311 0" fill="#aa8dd8"/><path d="M23.281 13.273a.656.656 0 1 0-1.31-.001.656.656 0 0 0 1.31 0M13.563 34.438a.812.812 0 1 0-1.624 0 .812.812 0 0 0 1.623 0M6.606 31.062a.672.672 0 1 0-1.344 0 .672.672 0 0 0 1.344 0M29.719 10.992a.811.811 0 1 0-1.625 0 .812.812 0 1 0 1.625 0M7.868 11.503a.934.934 0 1 0-1.867 0 .934.934 0 0 0 1.867 0M12 18.219a1.469 1.469 0 1 0-2.938 0 1.469 1.469 0 0 0 2.938 0M21.35 22.2a1.675 1.675 0 1 0-3.35 0 1.675 1.675 0 0 0 3.35 0M29.688 32.531a.72.72 0 1 0-1.439 0 .72.72 0 0 0 1.439 0M35.313 34a1 1 0 1 0-2 0 1 1 0 0 0 2 0" fill="#cbb7ea"/><path d="M12.334 29.438a.896.896 0 1 0-1.792 0 .896.896 0 0 0 1.792 0M35.313 21.344a.78.78 0 1 0-1.562 0 .78.78 0 0 0 1.562 0M26.688 23.469a.687.687 0 1 0-1.374 0 .687.687 0 0 0 1.373 0M13.531 22.281a.594.594 0 1 0-1.188 0 .594.594 0 0 0 1.188 0M23.75 25.76a1.156 1.156 0 1 0-2.312 0 1.156 1.156 0 0 0 2.312 0M29.875 28.844a.97.97 0 1 0-1.938 0 .97.97 0 0 0 1.938 0M17.234 18.914a1.336 1.336 0 1 0-2.671 0 1.336 1.336 0 0 0 2.671 0M3.633 12.871a.88.88 0 1 0-1.76.001.88.88 0 0 0 1.76 0M7 15.92a.648.648 0 1 0-1.297.002A.648.648 0 0 0 7 15.92M33.156 31.25a.811.811 0 1 0-1.625 0 .812.812 0 1 0 1.625 0" fill="#f5f8fa"/></g></svg>