<svg xmlns="http://www.w3.org/2000/svg" viewBox="0 0 47.5 47.5"><defs><clipPath id="a"><path d="M0 38h38V0H0v38z"/></clipPath><clipPath id="b"><path d="M5 37s-4 0-4-4V5c0-4 4-4 4-4h28c4 0 4 4 4 4v28s0 4-4 4H5z"/></clipPath><clipPath id="c"><path d="M15 24C13 20 1 11 1 11V5c0-4 4-4 4-4h28c4 0 4 4 4 4v6s-9 5-14 13c-.75 1.199-2-2-4-2-1.6 0-2.56 2.56-3.392 2.56-.208 0-.408-.16-.608-.56"/></clipPath><clipPath id="d"><path d="M0 38h38V0H0v38z"/></clipPath></defs><g clip-path="url(#a)" transform="matrix(1.25 0 0 -1.25 0 47.5)"><path d="M37 5s0-4-4-4H5S1 1 1 5v28c0 4 4 4 4 4h28c4 0 4-4 4-4V5z" fill="#c1694f"/></g><g clip-path="url(#b)" transform="matrix(1.25 0 0 -1.25 0 47.5)"><path d="M1 11s12 9 14 13c1 2 2-2 4-2s3.25 3.199 4 2c5-8 14-13 14-13V1H1v10z" fill="#662213"/></g><g clip-path="url(#c)" transform="matrix(1.25 0 0 -1.25 0 47.5)"><path d="M15 24L5 14s7.105 7.789 8 6c.558-1.116-2.11-3.881-4.437-4.938-2.282-1.035-2.67-2.838-1.344-3.281.829-.276 2.983.175 4.027 2.456 1.321 2.887 4.276 5.989 4.965 5.538 1.532-1-2.367-7.244-5.149-10.494C9.779 7.782 10.858 6.209 12 6c1.875-.344 3.5 1.469 3.807 4.14.442 3.847 1.62 7.502 3.349 7.423 2.904-.133.719-8.032 4.719-7.032 1.411.353 1.766 2.231.281 3.469-1.477 1.232-2.423 3.733-.802 5.354.353.353 2-.691 2.802-2.198 1.515-2.844 3.208.951 1.911 1.987C27.286 19.766 33 16 33 16l-11 9-7-1z" fill="#be1931"/></g><g clip-path="url(#d)" transform="matrix(1.25 0 0 -1.25 0 47.5)"><path d="M23 24c0-1.104-1.791-2-4-2s-4 .896-4 2 1.791 2 4 2 4-.896 4-2" fill="#ffcc4d"/><path d="M19 24c-1.562 0-1.5 2.031-5 4-2.756 1.55-5.5.531-7.438-2.063C4.408 23.053.998 26.003 5 29c6.469 4.844 10.687-1.594 12.313-.875.811.359-.809 3.053-3.32 4.192-2.199.998-3.432 2.683-1.93 3.183 2.999 1 5.125-2.719 6.125-4.719.999-2 2.124-1.156 3.843 1.5 1 1.545 2.65 3.141 4.063 3.386 2.094.364 4.625-2.042 1.875-2.167C25.658 33.395 23 32 22 30s1.386-1.01 3.312.125C29.344 32.5 35 32 34 29s-3.286 3.022-11.312-1.531C20.228 26.073 20.562 24 19 24" fill="#ffac33"/></g></svg>