<svg xmlns="http://www.w3.org/2000/svg" viewBox="0 0 47.5 47.5"><defs><clipPath id="a"><path d="M0 38h38V0H0v38z"/></clipPath><clipPath id="b"><path d="M15.211 29.894L3 5l1-1 1-1 24.894 12.211a2 2 0 0 1 1.101 1.93 2.002 2.002 0 0 1-1.362 1.756L28 19.442V21a2 2 0 0 1-1.515 1.94l-2.836.709-.709 2.836A2 2 0 0 1 21 28h-1.558l-.545 1.633a2 2 0 0 1-1.756 1.362 2.002 2.002 0 0 1-1.93-1.101"/></clipPath></defs><g clip-path="url(#a)" transform="matrix(1.25 0 0 -1.25 0 47.5)"><path d="M2 2C1 3 2 4 2 4l26 26s1.479 1.521 0 3-3 0-3 0-1-1-2 0 0 2 0 2 3.521 3.479 7 0c3.5-3.5 0-7 0-7L4 2S3 1 2 2" fill="#66757f"/><path d="M4 4L3 5l12.211 24.895a2.003 2.003 0 0 0 1.931 1.1 1.999 1.999 0 0 0 1.755-1.363L19.441 28H21a2 2 0 0 0 1.94-1.515l.709-2.836 2.836-.709A2 2 0 0 0 28 21v-1.559l1.633-.544a2.002 2.002 0 0 0 .262-3.686L5 3 4 4z" fill="#9266cc"/></g><g clip-path="url(#b)" transform="matrix(1.25 0 0 -1.25 0 47.5)"><path d="M22 32L3 4V3l21 21-2 8zM30 21L4 3l2-1 29 13-5 6z" fill="#744eaa"/></g></svg>