<svg xmlns="http://www.w3.org/2000/svg" viewBox="0 0 47.5 47.5"><defs><clipPath id="a"><path d="M5 37a4 4 0 0 1-4-4V5a4 4 0 0 1 4-4h28a4 4 0 0 1 4 4v28a4 4 0 0 1-4 4H5z"/></clipPath><clipPath id="b"><path d="M0 38h38V0H0v38z"/></clipPath></defs><g clip-path="url(#a)" transform="matrix(1.25 0 0 -1.25 0 47.5)"><path d="M38 0H0v38h38V0z" fill="#269"/><path d="M11 1v29l4 4h2l4-4V1H11zM34 26c0 1-1.286 1-1.286 1h-6.428S25 27.001 25 26V1h9v25z" fill="#3f484c"/><path d="M29 18c0 1-1 1-1 1h-8c-1 0-1-1-1-1V1h10v17zM7 23s0 1-1 1H1V1h6v22z" fill="#292f33"/><path d="M13 15s0 1-1 1H6s-1 .001-1-1V1h8v14zM32 11s0 1 1 1h4V1h-5v10z" fill="#292f33"/></g><path d="M13.75 42.5h-2.5V40h2.5v2.5zM13.75 32.5h-2.5V30h2.5v2.5zM11.25 37.5h-2.5V35h2.5v2.5zM23.75 15h-2.5v-2.5h2.5V15zM23.75 20h-2.5v-2.5h2.5V20zM21.25 25h-2.5v-2.5h2.5V25zM33.75 28.75h-2.5v-2.5h2.5v2.5zM31.25 33.75h-2.5v-2.5h2.5v2.5zM28.75 41.25h-2.5v-2.5h2.5v2.5zM40 18.75h-2.5v-2.5H40v2.5zM40 23.75h-2.5v-2.5H40v2.5z" fill="#ffcc4d"/><g clip-path="url(#b)" transform="matrix(1.25 0 0 -1.25 0 47.5)"><path d="M7.5 30A2.5 2.5 0 0 0 5 32.5c0 1.13.755 2.074 1.784 2.383A2.943 2.943 0 0 1 6 35a3 3 0 1 1 0-6c.959 0 1.803.458 2.353 1.159A2.493 2.493 0 0 0 7.5 30M12 34.5a.5.5 0 1 0-1 0 .5.5 0 0 0 1 0M9 25.5a.5.5 0 1 0-1 0 .5.5 0 0 0 1 0M24 32a1 1 0 1 0-2 0 1 1 0 0 0 2 0M28 31.5a.5.5 0 1 0-1 0 .5.5 0 0 0 1 0M33 34a1 1 0 1 0-2 0 1 1 0 0 0 2 0M33 29.5a.5.5 0 1 0-1 0 .5.5 0 0 0 1 0" fill="#fff"/></g></svg>