<svg xmlns="http://www.w3.org/2000/svg" viewBox="0 0 47.5 47.5"><defs><clipPath id="a"><path d="M5 37a4 4 0 0 1-4-4V5a4 4 0 0 1 4-4h28a4 4 0 0 1 4 4v28a4 4 0 0 1-4 4H5z"/></clipPath></defs><g clip-path="url(#a)" transform="matrix(1.25 0 0 -1.25 0 47.5)"><path d="M38 0H0v38h38V0z" fill="#88c9f9"/><path d="M11 1v29l4 4h2l4-4V1H11zM34 26c0 1-1.286 1-1.286 1h-6.428S25 27.001 25 26V1h9v25z" fill="#66757f"/><path d="M29 20c0 1-1 1-1 1h-8c-1 0-1-1-1-1V1h10v19zM7 23s0 1-1 1H1V1h6v22z" fill="#292f33"/><path d="M13 17s0 1-1 1H6s-1 .001-1-1V1h8v16z" fill="#292f33"/><path d="M11 6H9v2h2V6zM11 14H9v2h2v-2zM9 10H7v2h2v-2zM19 26h-2v2h2v-2zM19 22h-2v2h2v-2zM17 18h-2v2h2v-2zM27 17h-2v2h2v-2zM25 13h-2v2h2v-2zM23 7h-2v2h2V7zM32 23h-2v2h2v-2zM32 19h-2v2h2v-2z" fill="#ffcc4d"/><path d="M35 17a4.99 4.99 0 0 1-4.652-3.198C29.562 15.113 28.141 16 26.5 16c-.763 0-1.47-.207-2.099-.542A3.495 3.495 0 0 1 21.5 17a3.49 3.49 0 0 1-3.288-2.342A4.474 4.474 0 0 1 16.5 15c-1.757 0-3.263-1.018-4.004-2.486-.604.3-1.275.486-1.996.486a4.47 4.47 0 0 1-3.054-1.213c-.767.961-1.934 1.588-3.258 1.588a4.188 4.188 0 1 1 0-8.375c.995 0 1.897.361 2.616.942A4.49 4.49 0 0 1 10.5 4c.561 0 1.092.115 1.587.303A3.473 3.473 0 0 1 13.5 4c1.4 0 2.599.828 3.159 2.016a4.478 4.478 0 0 1 2.924 1.22A2.989 2.989 0 0 1 22 6a2.99 2.99 0 0 1 2.561 1.456A4.44 4.44 0 0 1 26.5 7a4.497 4.497 0 0 1 4.103 2.668C31.442 8.088 33.086 7 35 7a5 5 0 0 1 5 5 5 5 0 0 1-5 5" fill="#e1e8ed"/><path d="M31 13.291a6.998 6.998 0 0 1-6.475-4.344C24.35 8.966 24.18 9 24 9a4.972 4.972 0 0 1-1.976-.409A3.974 3.974 0 0 1 19 10a4 4 0 0 1-4-4c0-.05.013-.097.015-.146A4 4 0 0 1 14 6a3.964 3.964 0 0 1-2.338-.767A3.468 3.468 0 0 1 9.5 6a3.33 3.33 0 0 1-.577-.059C8.286 7.721 6.602 9 4.604 9a4.605 4.605 0 0 1 0-9.209c.783 0 1.509.214 2.154.558A3.476 3.476 0 0 1 9.5-1c.546 0 1.057.136 1.517.359A3.975 3.975 0 0 1 14-2 3.99 3.99 0 0 1 17.747.639 3.28 3.28 0 0 1 19.687 0c.387 0 .752.079 1.097.2A4.957 4.957 0 0 1 24-1c1.299 0 2.472.508 3.36 1.32A6.964 6.964 0 0 1 31-.709a7 7 0 1 1 0 14" fill="#ccd6dd"/></g></svg>