<svg xmlns="http://www.w3.org/2000/svg" viewBox="0 0 47.5 47.5"><defs><clipPath id="a"><path d="M5 37a4 4 0 0 1-4-4V5a4 4 0 0 1 4-4h28a4 4 0 0 1 4 4v28a4 4 0 0 1-4 4H5z"/></clipPath></defs><g clip-path="url(#a)" transform="matrix(1.25 0 0 -1.25 0 47.5)"><path d="M38 0H0v38h38V0z" fill="#f4900c"/><path d="M11 1v29l4 4h2l4-4V1H11zM34 26c0 1-1 1-1 1h-7s-1 0-1-1V1h9v25z" fill="#485359"/><path d="M29 20c0 1-1 1-1 1h-8c-1 0-1-1-1-1V1h10v19zM7 23s0 1-1 1H1V1h6v22z" fill="#292f33"/><path d="M13 17s0 1-1 1H6s-1 .001-1-1V1h8v16zM32 11s0 1 1 1h4V1h-5v10z" fill="#292f33"/><path d="M11 6H9v2h2V6zM11 14H9v2h2v-2zM9 10H7v2h2v-2zM19 26h-2v2h2v-2zM19 22h-2v2h2v-2zM17 18h-2v2h2v-2zM27 17h-2v2h2v-2zM25 13h-2v2h2v-2zM23 7h-2v2h2V7zM32 23h-2v2h2v-2zM32 19h-2v2h2v-2z" fill="#ffcc4d"/></g></svg>