<svg xmlns="http://www.w3.org/2000/svg" viewBox="0 0 47.5 47.5"><defs><clipPath id="a"><path d="M0 38h38V0H0v38z"/></clipPath></defs><g clip-path="url(#a)" transform="matrix(1.25 0 0 -1.25 0 47.5)"><path d="M17.784 22.998c.374.11.758.166 1.143.166a4.063 4.063 0 0 0 3.875-2.901 4.05 4.05 0 0 0-3.879-5.186 4.063 4.063 0 0 0-3.875 2.902 4.046 4.046 0 0 0 2.736 5.019m18.998-10.515c-.13.437-.422.799-.82 1.015-.803.436-1.88.117-2.318-.682a13.972 13.972 0 0 0-8.372-6.757 14.093 14.093 0 0 0-10.697 1.144 10.824 10.824 0 0 0-5.242 6.493c-.74 2.513-.495 5.016.552 7.032a9.735 9.735 0 0 1 .164-4.907 9.699 9.699 0 0 1 4.701-5.823 11.834 11.834 0 0 1 8.978-.961 11.714 11.714 0 0 1 7.027 5.67 14.218 14.218 0 0 1 1.165 10.899 14.228 14.228 0 0 1-6.883 8.529 17.54 17.54 0 0 1-13.299 1.42 17.361 17.361 0 0 1-10.407-8.398 1.71 1.71 0 0 1 .682-2.317c.803-.44 1.883-.117 2.32.682a13.959 13.959 0 0 0 8.37 6.755 14.111 14.111 0 0 0 10.7-1.142 10.83 10.83 0 0 0 5.238-6.495c.742-2.514.497-5.017-.55-7.033a9.763 9.763 0 0 1-.163 4.91 9.733 9.733 0 0 1-4.703 5.824 11.852 11.852 0 0 1-8.98.959 11.713 11.713 0 0 1-7.025-5.671 14.214 14.214 0 0 1-1.165-10.897 14.22 14.22 0 0 1 6.883-8.53 17.47 17.47 0 0 1 8.341-2.14c1.67 0 3.337.242 4.958.72a17.35 17.35 0 0 1 10.406 8.398c.22.4.27.864.14 1.303" fill="#55acee"/></g></svg>