<svg xmlns="http://www.w3.org/2000/svg" viewBox="0 0 47.5 47.5"><defs><clipPath id="a"><path d="M0 38h38V0H0v38z"/></clipPath></defs><g clip-path="url(#a)" transform="matrix(1.25 0 0 -1.25 0 47.5)"><path d="M12 24c0 4.984 1.934 9.505 5.073 12.894C8.039 35.932 1 28.29 1 19 1 9.059 9.06 1 19 1a17.93 17.93 0 0 1 11.348 4.033c-7.164.245-13.306 4.451-16.351 10.485-.622 1.232 2.795 1.201 2.962 3.482.154 2.13-4.959 2.74-4.959 5" fill="#ccd6dd"/><path d="M15 8.5C15 6.566 13.434 5 11.5 5A3.499 3.499 0 0 0 8 8.5c0 1.934 1.566 3.5 3.5 3.5S15 10.434 15 8.5M9 30a1 1 0 1 1 2 0 1 1 0 0 1-2 0M18 5a1 1 0 1 1 2 0 1 1 0 1 1-2 0M6 17a2 2 0 1 0-4.001.001A2 2 0 0 0 6 17" fill="#b8c5cd"/><path d="M17.203 10.977a19.396 19.396 0 0 0-2.104 2.65c-5.45-1.225-7.637.274-7.317-.805.342-1.148 4.798-3.008 9.421-1.845M11 22.5a2.5 2.5 0 1 0-5 0 2.5 2.5 0 0 0 5 0" fill="#99aab5"/></g></svg>