<svg xmlns="http://www.w3.org/2000/svg" viewBox="0 0 47.5 47.5"><defs><clipPath id="a"><path d="M0 38h38V0H0v38z"/></clipPath></defs><g clip-path="url(#a)" transform="matrix(1.25 0 0 -1.25 0 47.5)"><path d="M19 37V1c9.941 0 18 8.059 18 18s-8.059 18-18 18" fill="#ccd6dd"/><path d="M1 19C1 9.059 9.059 1 19 1v36C9.059 37 1 28.941 1 19" fill="#66757f"/><path d="M23 28.5a3.5 3.5 0 1 1 7 0 3.5 3.5 0 1 1-7 0" fill="#b8c5cd"/><path d="M10 21a3 3 0 1 1 6 0 3 3 0 0 1-6 0M11 9.5C11 7.566 12.566 6 14.5 6S18 7.566 18 9.5 16.434 13 14.5 13A3.499 3.499 0 0 1 11 9.5M14 31a2 2 0 1 1 4.001.001A2 2 0 0 1 14 31" fill="#5b6876"/><path d="M35 19a1 1 0 1 0-1.998-.002A1 1 0 0 0 35 19" fill="#b8c5cd"/><path d="M8 28a1 1 0 1 0-1.998-.002A1 1 0 0 0 8 28" fill="#5b6876"/><path d="M23 6a1 1 0 1 0-2 0 1 1 0 1 0 2 0" fill="#b8c5cd"/><path d="M3 18a2 2 0 1 1 4.001.001A2 2 0 0 1 3 18" fill="#5b6876"/><path d="M25 14a2 2 0 1 1 4.001.001A2 2 0 0 1 25 14" fill="#b8c5cd"/></g></svg>