<svg xmlns="http://www.w3.org/2000/svg" viewBox="0 0 47.5 47.5"><defs><clipPath id="a"><path d="M0 38h38V0H0v38z"/></clipPath></defs><g clip-path="url(#a)" transform="matrix(1.25 0 0 -1.25 0 47.5)"><path d="M1 19C1 9.059 9.059 1 19 1c.295 0 .58.029.87.043C25.761 3.607 30 10.668 30 19c0 8.331-4.239 15.393-10.13 17.956-.29.014-.575.044-.87.044-9.941 0-18-8.059-18-18" fill="#ccd6dd"/><path d="M30 19c0 8.331-4.239 15.393-10.13 17.956C29.404 36.499 37 28.647 37 19c0-9.646-7.594-17.498-17.128-17.956C25.762 3.609 30 10.669 30 19" fill="#66757f"/><path d="M15 28.5a3.5 3.5 0 1 0-7 0 3.5 3.5 0 1 0 7 0M24 21a3 3 0 1 0-6 0 3 3 0 0 0 6 0M26 9.5C26 7.566 24.434 6 22.5 6A3.499 3.499 0 0 0 19 9.5c0 1.934 1.566 3.5 3.5 3.5S26 11.434 26 9.5M24 31a2 2 0 1 0-4.001.001A2 2 0 0 0 24 31M3 19a1 1 0 1 1 2 0 1 1 0 0 1-2 0" fill="#b8c5cd"/><path d="M30 28a1 1 0 1 1 1.998-.002A1 1 0 0 1 30 28" fill="#5b6876"/><path d="M15 6a1 1 0 1 1 2 0 1 1 0 1 1-2 0" fill="#b8c5cd"/><path d="M35 18a2 2 0 1 0-4.001.001A2 2 0 0 0 35 18" fill="#5b6876"/><path d="M13 14a2 2 0 1 0-4.001.001A2 2 0 0 0 13 14" fill="#b8c5cd"/></g></svg>