<svg xmlns="http://www.w3.org/2000/svg" viewBox="0 0 47.5 47.5"><defs><clipPath id="a"><path d="M0 38h38V0H0v38z"/></clipPath></defs><g clip-path="url(#a)" transform="matrix(1.25 0 0 -1.25 0 47.5)"><path d="M19 37V1C9.059 1 1 9.059 1 19s8.059 18 18 18" fill="#ccd6dd"/><path d="M37 19c0-9.941-8.059-18-18-18v36c9.941 0 18-8.059 18-18" fill="#66757f"/><path d="M15 28.5a3.5 3.5 0 1 0-7 0 3.5 3.5 0 1 0 7 0" fill="#b8c5cd"/><path d="M28 21a3 3 0 1 0-6 0 3 3 0 0 0 6 0M27 9.5C27 7.566 25.434 6 23.5 6A3.499 3.499 0 0 0 20 9.5c0 1.934 1.566 3.5 3.5 3.5S27 11.434 27 9.5M24 31a2 2 0 1 0-4.001.001A2 2 0 0 0 24 31" fill="#5b6876"/><path d="M3 19a1 1 0 1 1 2 0 1 1 0 0 1-2 0" fill="#b8c5cd"/><path d="M30 28a1 1 0 1 1 1.998-.002A1 1 0 0 1 30 28" fill="#5b6876"/><path d="M15 6a1 1 0 1 1 2 0 1 1 0 1 1-2 0" fill="#b8c5cd"/><path d="M35 18a2 2 0 1 0-4.001.001A2 2 0 0 0 35 18" fill="#5b6876"/><path d="M13 14a2 2 0 1 0-4.001.001A2 2 0 0 0 13 14" fill="#b8c5cd"/></g></svg>