<svg xmlns="http://www.w3.org/2000/svg" viewBox="0 0 47.5 47.5"><defs><clipPath id="a"><path d="M0 38h38V0H0v38z"/></clipPath></defs><g clip-path="url(#a)" transform="matrix(1.25 0 0 -1.25 0 47.5)"><path d="M31.311 36.224C33 18 21 5 1.776 6.688c8.2-7.717 21.091-7.588 29.107.429 8.018 8.016 8.148 20.909.428 29.107" fill="#ccd6dd"/><path d="M31.705 21.085a1.164 1.164 0 0 1 0-1.644 1.162 1.162 0 1 1 0 1.644M15.683 6.705a1.74 1.74 0 0 1 0-2.465 1.742 1.742 0 1 1 0 2.465M29.651 8.852a2.904 2.904 0 0 0-4.108 0 2.902 2.902 0 0 0 0 4.107 2.902 2.902 0 0 0 4.108 0 2.902 2.902 0 0 0 0-4.107" fill="#b8c5cd"/></g></svg>