<svg xmlns="http://www.w3.org/2000/svg" viewBox="0 0 47.5 47.5"><defs><clipPath id="a"><path d="M0 38h38V0H0v38z"/></clipPath></defs><g clip-path="url(#a)" transform="matrix(1.25 0 0 -1.25 0 47.5)"><path d="M26 24c0 4.984-1.934 9.505-5.073 12.894C29.961 35.932 37 28.29 37 19c0-9.941-8.06-18-18-18-4.303 0-8.25 1.515-11.347 4.033 7.163.245 13.305 4.451 16.35 10.485.622 1.232-2.795 1.201-2.962 3.482C20.887 21.13 26 21.74 26 24" fill="#ccd6dd"/><path d="M23 8.5C23 6.566 24.566 5 26.5 5S30 6.566 30 8.5 28.434 12 26.5 12A3.499 3.499 0 0 1 23 8.5M29 30a1 1 0 1 0-1.998-.002A1 1 0 0 0 29 30M20 5a1 1 0 1 0-2 0 1 1 0 1 0 2 0M32 17a2 2 0 1 1 4.001.001A2 2 0 0 1 32 17" fill="#b8c5cd"/><path d="M20.797 10.977c.775.819 1.48 1.705 2.104 2.65 5.45-1.225 7.637.274 7.317-.805-.341-1.148-4.798-3.008-9.421-1.845M27 22.5a2.5 2.5 0 1 1 5 0 2.5 2.5 0 0 1-5 0" fill="#99aab5"/></g></svg>