<svg xmlns="http://www.w3.org/2000/svg" viewBox="0 0 47.5 47.5"><defs><clipPath id="a"><path d="M0 38h38V0H0v38z"/></clipPath></defs><g clip-path="url(#a)" transform="matrix(1.25 0 0 -1.25 0 47.5)"><path d="M29.84 19.362c-.987-1.044-1.633-3.067-1.437-4.493l.89-6.442c.198-1.426-.7-2.086-1.995-1.468l-5.851 2.796c-1.295.62-3.408.611-4.7-.018l-5.825-2.842c-1.291-.629-2.194.027-2.008 1.452l.843 6.45c.186 1.426-.475 3.444-1.47 4.481l-4.493 4.688c-.996 1.036-.656 2.101.754 2.365l6.37 1.187c1.41.263 3.117 1.52 3.794 2.79l3.05 5.736c.676 1.271 1.789 1.274 2.474.01l3.094-5.713c.686-1.266 2.4-2.507 3.815-2.759l6.378-1.14c1.412-.253 1.76-1.314.774-2.36l-4.457-4.72z" fill="#ffcc4d"/><path d="M10.783 34.819c1.023-1.413 2.446-4.917 1.717-5.447-.728-.531-3.607 1.91-4.63 3.323-1.022 1.413-.935 2.668-.131 3.254.804.587 2.02.283 3.044-1.13M30.13 32.695c-1.021-1.414-3.9-3.855-4.63-3.322-.728.53.695 4.033 1.719 5.445 1.023 1.414 2.238 1.719 3.043 1.13.804-.585.89-1.84-.131-3.253M17.625 3.709c-.001 1.746.898 5.421 1.8 5.421.898 0 1.798-3.675 1.797-5.42 0-1.747-.804-2.712-1.8-2.71-.994-.002-1.798.962-1.798 2.709M33.804 12.97c-1.655.54-4.858 2.534-4.58 3.396.278.857 4.038.58 5.69.04 1.656-.54 2.322-1.605 2.013-2.555-.307-.95-1.468-1.42-3.123-.88M3.083 16.406c1.655.54 5.414.817 5.694-.044.276-.857-2.928-2.853-4.581-3.392-1.654-.54-2.818-.07-3.123.88-.308.95.354 2.015 2.01 2.556" fill="#ffd983"/></g></svg>