<svg xmlns="http://www.w3.org/2000/svg" viewBox="0 0 47.5 47.5"><defs><clipPath id="a"><path d="M0 38h38V0H0v38z"/></clipPath></defs><g clip-path="url(#a)" transform="matrix(1.25 0 0 -1.25 0 47.5)"><path d="M37 19c0-9.941-8.059-18-18-18S1 9.059 1 19s8.059 18 18 18 18-8.059 18-18" fill="#ccd6dd"/><path d="M15 28.5a3.5 3.5 0 1 0-7 0 3.5 3.5 0 1 0 7 0M24 20a3 3 0 1 0-6 0 3 3 0 0 0 6 0M29 8.5C29 6.566 27.434 5 25.5 5A3.499 3.499 0 0 0 22 8.5c0 1.934 1.566 3.5 3.5 3.5S29 10.434 29 8.5M25 32a2 2 0 1 0-4.001.001A2 2 0 0 0 25 32M3 19a1 1 0 1 1 2 0 1 1 0 0 1-2 0M30 28a1 1 0 1 1 1.998-.002A1 1 0 0 1 30 28M15 6a1 1 0 1 1 2 0 1 1 0 1 1-2 0M35 18a2 2 0 1 0-4.001.001A2 2 0 0 0 35 18M13 14a2 2 0 1 0-4.001.001A2 2 0 0 0 13 14" fill="#b8c5cd"/></g></svg>