<svg xmlns="http://www.w3.org/2000/svg" viewBox="0 0 47.5 47.5"><defs><clipPath id="a"><path d="M0 38h38V0H0v38z"/></clipPath></defs><g clip-path="url(#a)" transform="matrix(1.25 0 0 -1.25 0 47.5)"><path d="M31 33a4 4 0 0 1-4-4v-9.125c0-1.086-.887-1.96-2-2.448V31a6 6 0 0 1-12 0V13.371c-1.122.475-2 1.371-2 2.504V21a4 4 0 0 1-8 0v-7c0-2.209 1.75-3.875 3.375-4.812 1.244-.718 4.73-1.6 6.625-1.652V4C13 .687 25 .687 25 4v7.549c1.981.119 5.291.953 6.479 1.639C33.104 14.125 35 15.791 35 18v11a4 4 0 0 1-4 4" fill="#77b255"/><path d="M14 31a1 1 0 1 0-2 0 1 1 0 0 0 2 0M25 34a1 1 0 1 0-2 0 1 1 0 0 0 2 0M23 28a1 1 0 1 0-2 0 1 1 0 0 0 2 0M16 21a1 1 0 1 0-2 0 1 1 0 0 0 2 0M22 17a1 1 0 1 0-2 0 1 1 0 1 0 2 0M15 11a1 1 0 1 0-2 0 1 1 0 1 0 2 0M7 10a1 1 0 1 0-2 0 1 1 0 1 0 2 0M11 17a1 1 0 1 0-2 0 1 1 0 1 0 2 0M4 19a1 1 0 1 0-2 0 1 1 0 1 0 2 0M36 29a1 1 0 1 0-2 0 1 1 0 1 0 2 0M30 26a1 1 0 1 0-2 0 1 1 0 1 0 2 0M34 21a1 1 0 1 0-2 0 1 1 0 1 0 2 0M31 13a1 1 0 1 0-2 0 1 1 0 1 0 2 0M24 7a1 1 0 1 0-2 0 1 1 0 1 0 2 0" fill="#3e721d"/></g></svg>