<svg xmlns="http://www.w3.org/2000/svg" viewBox="0 0 47.5 47.5"><defs><clipPath id="a"><path d="M0 38h38V0H0v38z"/></clipPath><clipPath id="b"><path d="M12.575 35.343l-1.449-3.383-3.272-1.282c-1.35-.54-2.041-2.057-1.501-3.407l1.365-3.268-1.362-3.181c-.573-1.337-.033-2.686 1.304-3.259l3.259-1.395 1.265-3.306c.27-.675.759-1.247 1.378-1.512.619-.265 1.37-.225 2.046.047l3.266 1.364 3.307-1.417c1.337-.573 2.686-.032 3.258 1.305l1.364 3.182 3.271 1.282c1.35.541 2.042 2.057 1.5 3.406l-1.365 3.267 1.451 3.384c.571 1.338.032 2.686-1.305 3.258l-3.308 1.417-1.274 3.289c-.27.675-.766 1.23-1.384 1.494-.619.266-1.356.26-2.03-.011l-3.267-1.365-3.259 1.395a2.695 2.695 0 0 1-1.06.227c-.942 0-1.778-.552-2.198-1.531"/></clipPath><clipPath id="c"><path d="M0 38h38V0H0v38z"/></clipPath></defs><g clip-path="url(#a)" transform="matrix(1.25 0 0 -1.25 0 47.5)"><path d="M29.938 9.559c-2.554.89-8.111.429-9.938-1.331V20a1 1 0 1 1-2 0V8.228c-1.827 1.76-7.384 2.22-9.938 1.33C7.322 9.3 13.326.81 17.57 5.053c.168.168.306.33.43.49V2a1 1 0 0 1 2 0v3.542c.125-.16.263-.322.431-.49C24.674.81 30.678 9.3 29.938 9.559" fill="#77b255"/><path d="M13.562 11.35c-.619.266-1.107.837-1.378 1.513l-1.266 3.305-3.258 1.395c-1.336.574-1.876 1.922-1.304 3.259l1.362 3.18-1.364 3.269c-.541 1.35.15 2.868 1.5 3.408l3.272 1.28 1.449 3.385c.573 1.336 1.921 1.876 3.258 1.304l3.258-1.396 3.267 1.366c.675.27 1.412.276 2.031.01.619-.264 1.114-.82 1.384-1.493l1.274-3.29 3.308-1.416c1.336-.573 1.875-1.921 1.305-3.258l-1.451-3.384 1.365-3.267c.541-1.35-.15-2.866-1.5-3.407l-3.271-1.282-1.364-3.182c-.572-1.336-1.921-1.877-3.257-1.305l-3.308 1.417-3.267-1.364c-.675-.272-1.426-.312-2.045-.047" fill="#ccd6dd"/></g><g clip-path="url(#b)" transform="matrix(1.25 0 0 -1.25 0 47.5)"><path d="M19 36.74v-8.82l-2.94-.98-5.88 5.88-.98 3.92 5.635.98L19 36.74zM7.24 24h7.84l.98-1.96-7.105-8.126-4.982 3.512s.082 5.635.246 5.553C4.382 22.897 7.239 24 7.239 24M19 19.1s.041-7.84 0-7.84 4.818-2.452 5.063-2.41c.246.042 4.41 3.185 4.574 3.308.163.122.694 1.47.694 1.47l-9.433 8.208L19 19.1zM27.697 32.616c-.04-.123-5.92-4.982-5.92-4.982s.164-3.185.326-3.266c.162-.082 9.718-.94 9.718-.94s2.491 7.555 2.368 7.473c-.122-.082-4.818 1.633-4.695 1.633.122 0-1.797.082-1.797.082" fill="#e1e8ed"/></g><g clip-path="url(#c)" transform="matrix(1.25 0 0 -1.25 0 47.5)"><path d="M24 24a5 5 0 1 0-10 0 5 5 0 0 0 10 0" fill="#f4900c"/></g></svg>