<svg xmlns="http://www.w3.org/2000/svg" viewBox="0 0 47.5 47.5"><defs><clipPath id="a"><path d="M0 38h38V0H0v38z"/></clipPath></defs><g clip-path="url(#a)" transform="matrix(1.25 0 0 -1.25 0 47.5)"><path d="M29 10c-8 0-8-6-8-6v11h-4V4s0 6-8 6c-4 0-7 2-7 2s0-9 9-9h6s0-2 2-2 2 2 2 2h6c9 0 9 9 9 9s-3-2-7-2" fill="#3e721d"/><path d="M22.125 9.338c-.328 0-.651.097-.927.283l-2.323 1.575-2.322-1.575a1.667 1.667 0 0 0-1.358-.226 1.65 1.65 0 0 0-1.06.874l-1.224 2.527-2.798-.204a1.656 1.656 0 0 0-1.77 1.768l.201 2.8-2.523 1.225a1.654 1.654 0 0 0-.647 2.417l1.573 2.323-1.573 2.322a1.657 1.657 0 0 0 .647 2.418l2.523 1.224-.201 2.798c-.034.48.142.95.482 1.288.309.312.732.485 1.17.485.039 0 .079 0 .118-.003l2.798-.201 1.224 2.523a1.661 1.661 0 0 0 1.489.933c.328 0 .651-.098.929-.285l2.322-1.574 2.323 1.574a1.652 1.652 0 0 0 2.417-.648l1.225-2.523 2.8.2a1.662 1.662 0 0 0 1.288-.482c.338-.336.514-.807.48-1.287l-.204-2.798 2.527-1.224a1.66 1.66 0 0 0 .648-2.418l-1.575-2.322 1.575-2.323c.269-.398.35-.892.226-1.356a1.647 1.647 0 0 0-.874-1.061l-2.527-1.225.204-2.8a1.666 1.666 0 0 0-.48-1.288 1.67 1.67 0 0 0-1.288-.48l-2.8.204-1.225-2.527a1.644 1.644 0 0 0-1.062-.874 1.588 1.588 0 0 0-.428-.057" fill="#ffac33"/><path d="M26 23a7 7 0 1 1-14.001-.001A7 7 0 0 1 26 23" fill="#732700"/></g></svg>