<svg xmlns="http://www.w3.org/2000/svg" viewBox="0 0 47.5 47.5"><defs><clipPath id="a"><path d="M0 38h38V0H0v38z"/></clipPath></defs><g clip-path="url(#a)" transform="matrix(1.25 0 0 -1.25 0 47.5)"><path d="M35.751 15c-3.382 0-11.9-3.549-15.751-7.158V20a1 1 0 1 1-2 0V7.659C14.247 11.331 5.491 15 2.052 15 1.123 15 12.913 1.008 18 2.401V2a1 1 0 1 1 2 0v.356C25.188 1.362 36.668 15 35.751 15" fill="#77b255"/><path d="M26 23.584C26 17.233 24.293 14 19 14s-7 3.232-7 9.583C12 29.934 17 37 19 37s7-7.066 7-13.417" fill="#ea596e"/><path d="M23.795 35c-.48 0-4.106-14.271-4.803-19.279C18.246 20.729 14.48 35 14 35c-1 0-6-9-6-13s5.707-8 11-8 10.795 4 10.795 8-5 13-6 13" fill="#f4abba"/></g></svg>