<svg xmlns="http://www.w3.org/2000/svg" viewBox="0 0 47.5 47.5"><defs><clipPath id="a"><path d="M0 38h38V0H0v38z"/></clipPath><clipPath id="b"><path d="M9.49 27.768c.874-2.87 2.748-3.868 6.493-5.865 1.996 3.746 2.994 5.62 2.12 8.488-.876 2.874-3.187 5.307-6.495 5.866-2.433-2.31-2.994-5.617-2.118-8.489"/></clipPath><clipPath id="c"><path d="M3.943 23.462c-.963-2.154-.441-4.454.898-6.088 1.34-1.632 2.826-1.777 5.796-2.071.293 2.971.439 4.457-.899 6.087-1.09 1.33-2.722 2.215-4.533 2.215-.413 0-.835-.046-1.262-.143"/></clipPath><clipPath id="d"><path d="M15.645 19.387c2.377-3.038 3.565-4.558 6.272-4.889 2.709-.328 5.583.691 7.266 3.236-1.023 2.872-3.563 4.556-6.273 4.888-.297.037-.58.054-.852.054-2.207 0-3.708-1.174-6.413-3.289"/></clipPath><clipPath id="e"><path d="M9.86 9.972c2.366-2.736 3.55-4.102 6.099-4.288 2.55-.183 5.193.907 6.652 3.365-1.089 2.642-3.547 4.102-6.099 4.287a7.136 7.136 0 0 1-.499.019c-2.24-.001-3.601-1.178-6.153-3.383"/></clipPath><clipPath id="f"><path d="M27.789 34.139c-2.431-1.023-3.138-2.751-4.549-6.203 3.453-1.411 5.179-2.117 7.614-1.097 2.432 1.023 4.354 3.26 4.548 6.204a7.016 7.016 0 0 1-4.62 1.705 7.77 7.77 0 0 1-2.993-.609"/></clipPath><clipPath id="g"><path d="M0 38h38V0H0v38z"/></clipPath></defs><g clip-path="url(#a)" transform="matrix(1.25 0 0 -1.25 0 47.5)"><path d="M21.917 14.498c-2.706.331-3.895 1.852-6.272 4.889 3.039 2.376 4.558 3.565 7.265 3.235 2.71-.332 5.25-2.016 6.274-4.889-1.684-2.544-4.558-3.563-7.267-3.235M15.959 5.684c-2.55.187-3.733 1.553-6.098 4.288 2.735 2.364 4.102 3.547 6.652 3.364 2.55-.185 5.009-1.644 6.098-4.287C21.15 6.59 18.51 5.5 15.959 5.684M9.738 21.39c1.338-1.63 1.191-3.116.898-6.087-2.969.294-4.455.44-5.795 2.07-1.339 1.636-1.86 3.936-.898 6.09 2.301.523 4.456-.44 5.795-2.072M30.854 26.839c-2.435-1.02-4.16-.314-7.613 1.097 1.41 3.453 2.118 5.18 4.549 6.203 2.434 1.02 5.377.825 7.612-1.096-.195-2.944-2.117-5.181-4.549-6.204M18.102 30.392c.874-2.87-.124-4.742-2.119-8.488-3.745 1.996-5.619 2.994-6.494 5.864-.876 2.872-.315 6.18 2.118 8.49 3.308-.56 5.62-2.992 6.495-5.866" fill="#77b255"/></g><g clip-path="url(#b)" transform="matrix(1.25 0 0 -1.25 0 47.5)"><path d="M15.828 21.992c.082-2.994-8.905 3.805-9.15 5.74-.247 1.936-.442 5.67.997 7.392 1.44 1.723 2.33 3.268 3.163 2.362 1.162-1.263 4.907-12.5 4.99-15.494" fill="#a6d388"/></g><g clip-path="url(#c)" transform="matrix(1.25 0 0 -1.25 0 47.5)"><path d="M3.322 23.818c1.385-.98 6.194-6.34 7.315-8.515 1.12-2.176-3.188-2.283-5.154-.671-1.967 1.61-4.79 2.948-4.18 5.159.61 2.21 2.019 4.027 2.019 4.027" fill="#a6d388"/></g><g clip-path="url(#d)" transform="matrix(1.25 0 0 -1.25 0 47.5)"><path d="M16.026 19.748c1.881-.107 11.15-.941 14.903-2.691 3.754-1.75 1.916 5.127-1.823 6.379-3.739 1.25-7.407 3.258-10.04 1.403-2.634-1.855-3.04-5.091-3.04-5.091" fill="#5c913b"/></g><g clip-path="url(#e)" transform="matrix(1.25 0 0 -1.25 0 47.5)"><path d="M9.111 10.009c2.567.24 9.015 1.328 14.514-1.412 5.498-2.74-.999 6.75-4.314 6.94-3.313.194-4.604 1.794-7.014-.367-2.41-2.163-3.186-5.161-3.186-5.161" fill="#5c913b"/></g><g clip-path="url(#f)" transform="matrix(1.25 0 0 -1.25 0 47.5)"><path d="M23.264 27.765c1.507.99 10.404 5.68 13.838 5.38 3.432-.302-4.132-9.85-12.15-7.627-2.34.648-1.688 2.247-1.688 2.247" fill="#a6d388"/></g><g clip-path="url(#g)" transform="matrix(1.25 0 0 -1.25 0 47.5)"><path d="M5.751 1.94c-.584.09-1.363.83-1.273 1.415.545 3.564 2.858 12.168 18.297 24.755.458.375.976.66 1.365.212.39-.446-.052-.949-.498-1.339C10.354 15.413 8.128 6.25 7.619 2.918c-.091-.585-1.283-1.068-1.868-.979" fill="#a06253"/></g></svg>