<svg xmlns="http://www.w3.org/2000/svg" viewBox="0 0 47.5 47.5"><defs><clipPath id="a"><path d="M0 38h38V0H0v38z"/></clipPath></defs><g clip-path="url(#a)" transform="matrix(1.25 0 0 -1.25 0 47.5)"><path d="M10.999 25c-.15 0-.303.034-.446.105-4.381 2.191-7.484 7.527-8.502 10.579a1 1 0 1 0 1.898.632c.877-2.631 3.688-7.517 7.498-9.421A1.001 1.001 0 0 0 10.999 25" fill="#77b255"/><path d="M27 8c0-3.865-3.135-7-7-7s-7 3.135-7 7 3.135 7 7 7 7-3.135 7-7" fill="#553788"/><path d="M18 22c0-3.865-3.135-7-7-7s-7 3.135-7 7 3.135 7 7 7 7-3.135 7-7" fill="#9266cc"/><path d="M27 25c0-3.865-3.135-7-7-7s-7 3.135-7 7 3.135 7 7 7 7-3.135 7-7" fill="#aa8dd8"/><path d="M35 19c0-3.865-3.135-7-7-7s-7 3.135-7 7 3.135 7 7 7 7-3.135 7-7M17 11c0-3.865-3.135-7-7-7s-7 3.135-7 7 3.135 7 7 7 7-3.135 7-7" fill="#744eaa"/><path d="M26 16c0-3.865-3.135-7-7-7s-7 3.135-7 7 3.135 7 7 7 7-3.135 7-7" fill="#9266cc"/><path d="M37 8c0-3.865-3.135-7-7-7s-7 3.135-7 7 3.135 7 7 7 7-3.135 7-7" fill="#9266cc"/></g></svg>