<svg xmlns="http://www.w3.org/2000/svg" viewBox="0 0 47.5 47.5"><defs><clipPath id="a"><path d="M0 38h38V0H0v38z"/></clipPath></defs><g clip-path="url(#a)" transform="matrix(1.25 0 0 -1.25 0 47.5)"><path d="M29 35c2.684 1.343 5-4 3-13-1.106-4.976-5-9-9-12s-11 1-7 5 8 7 10 13c1.304 3.913 1 6 3 7" fill="#ffe8b6"/><path d="M32 29c0-3-1-9-4-13s-7-5-4-1 5 7 6 11 2 7 2 3" fill="#ffd983"/><path d="M23 17c-.296-.592 1 3-1 5a7.65 7.65 0 0 1-.521-.593c-.1.705-.592 1.15-1.479 1.593-2 1-10.001-1-4-1 3 0 4-1.999 2-4a2.919 2.919 0 0 1-.623-.911c-.416-.347-.872-.71-1.377-1.089-2.263-1.697-5.84-4.227-10-7-3-2-4-3-4-4 0-3 9-3 14-1s10 7 10 7l4 4c-3 4-7 2-7 2" fill="#ffcc4d"/><path d="M23 17s1 5-3 7c-4.001 2-8 1-11-1s-2-3.999-3-5c-1-1 1-2 3 0s8.315 4.895 11 4c3-1 2-2.999 3-5" fill="#ffe8b6"/><path d="M27 18c3 0 8-3 7-9s-5-7-7-7h-4c-2 0-3-1-4-1s-2 2 0 2 4 0 5 1 5 0 5 6c0 3-4 7-6 7 0 0 2 1 4 1" fill="#a6d388"/><path d="M20 2a1 1 0 1 0-2 0 1 1 0 0 0 2 0" fill="#3e721d"/><path d="M27 18c3 0 8-3 7-9s-5-7-7-7h-4c-2 0 0 1 1 2s5 0 5 6c0 3-4 7-6 7 0 0 2 1 4 1" fill="#ffcc4d"/><path d="M27 18c3 0 8-3 7-9s-5-7-7-7h-2c-2 0-1 1 0 2s4 0 4 6c0 3-4 7-6 7 0 0 2 1 4 1" fill="#ffe8b6"/><path d="M18 16c3 0 5-1 3-3-1.581-1.581-6-5-10-6S3 6 6 8s9.764 8 12 8" fill="#ffd983"/><path d="M3 6c1 0 1 0 1-.667C4 4.667 4 4 3 4S2 5.333 2 5.333 2 6 3 6" fill="#c1694f"/></g></svg>