<svg xmlns="http://www.w3.org/2000/svg" viewBox="0 0 47.5 47.5"><defs><clipPath id="a"><path d="M0 38h38V0H0v38z"/></clipPath></defs><g clip-path="url(#a)" transform="matrix(1.25 0 0 -1.25 0 47.5)"><path d="M4 17.5C4 26.612 11.386 34 20.5 34 29.613 34 37 26.612 37 17.5 37 8.387 29.611 1 20.5 1 11.385 1 4 8.387 4 17.5" fill="#f4900c"/><path d="M12.414 29.415c-.267.267-.797.197-1.355-.12-3.3 2.732-8.653 3.652-8.895 3.692a1 1 0 1 1-.33-1.972c.054-.01 4.934-.854 7.822-3.16-.275-.525-.324-1.015-.07-1.268.39-.391 1.34-.074 2.12.707.782.78 1.099 1.73.708 2.12" fill="#662113"/><path d="M22 36s-3.106-4.317-7.021-5.272C12 30 8.041 29.93 7.646 30.85c-.394.919 1.572 3.937 4.969 5.393C16.012 37.697 22 36 22 36" fill="#5c913b"/></g></svg>