<svg xmlns="http://www.w3.org/2000/svg" viewBox="0 0 47.5 47.5"><defs><clipPath id="a"><path d="M0 38h38V0H0v38z"/></clipPath></defs><g clip-path="url(#a)" transform="matrix(1.25 0 0 -1.25 0 47.5)"><path d="M12.405 33.661c6.48 1.275 8.453-1.265 11.655-.084 3.202 1.181.093-2.82-.745-3.508-.84-.689-8.14-4.809-11.306-3.298-3.167 1.511-3.184 6.185.396 6.89" fill="#5c913b"/><path d="M16.001 21a1 1 0 0 0-.801.4c-.687.916-1.308 1.955-1.965 3.056-2.268 3.795-4.839 8.098-11.452 9.568a1 1 0 1 0 .434 1.952c7.454-1.656 10.382-6.557 12.735-10.495.63-1.054 1.224-2.049 1.848-2.881a1 1 0 0 0-.799-1.6" fill="#77b255"/><path d="M35.3 5.466c.002.017-.003.028-.003.043 2.774 5.335 2.648 15.113-3.346 21.107-5.8 5.8-13.68 5.82-18.767 4.067-1.578-.614-2.916-.066-3.815-.965-.881-.881-.351-2.72-.714-3.82-3.17-5.201-3.405-13.024 2.687-19.116C16.304 1.82 21.78-.06 31.322 1.93c.002.002.005 0 .008.002 1.149.218 2.95-.524 3.567.094 1.086 1.085.309 2.357.403 3.44" fill="#ffcc4d"/><path d="M9.208 30.418s-4.27.59-6.857-4.6c-2.588-5.188.582-9.124.289-12.652-.293-3.53 1.566-1.264 2.621.446s4.23 4.894 4.938 9.269c.708 4.373-.069 6.455-.991 7.536" fill="#77b255"/></g></svg>