<svg xmlns="http://www.w3.org/2000/svg" viewBox="0 0 47.5 47.5"><defs><clipPath id="a"><path d="M0 38h38V0H0v38z"/></clipPath></defs><g clip-path="url(#a)" transform="matrix(1.25 0 0 -1.25 0 47.5)"><path d="M3.472 30.428A17.031 17.031 0 0 1 2 23.5C2 13.835 10.059 6 20 6c7.746 0 14.33 4.767 16.868 11.44L3.472 30.429z" fill="#5c913b"/><path d="M5.332 29.705A15.116 15.116 0 0 1 4 23.5c0-8.59 7.163-15.555 16-15.555 6.905 0 12.77 4.26 15.013 10.218L5.332 29.705z" fill="#ffe8b6"/><path d="M7.19 28.981A13.23 13.23 0 0 1 6 23.501c0-7.519 6.268-13.613 14-13.613 6.063 0 11.21 3.753 13.156 8.995L7.19 28.981z" fill="#dd2e44"/><path d="M10.916 22.723c-.307-.46-.741-.708-.971-.555-.23.154-.168.65.139 1.11.307.46.741.708.971.554.23-.153.168-.65-.139-1.11M16.916 21.723c-.307-.46-.741-.708-.971-.555-.23.154-.168.65.139 1.11.307.46.741.708.971.554.23-.153.168-.65-.139-1.11M21.998 17.045c.05-.551-.132-1.016-.406-1.041-.276-.025-.538.4-.588.95-.051.552.132 1.017.406 1.04.276.028.538-.397.588-.95M12.998 19.045c.05-.551-.132-1.016-.406-1.041-.276-.025-.538.4-.588.95-.05.552.132 1.017.406 1.04.276.028.538-.397.588-.95M16.9 13.7c-.334-.442-.78-.664-1-.498-.223.166-.13.658.203 1.1.334.44.781.662 1 .496.222-.166.13-.658-.204-1.099M24.936 13.245c.272-.48.299-.979.06-1.115-.242-.137-.657.142-.93.624-.273.48-.298.978-.058 1.115.24.138.655-.142.928-.624M17.918 18.273c.303-.463.362-.958.131-1.109-.231-.153-.663.1-.966.562-.303.462-.361.958-.131 1.11.231.152.663-.099.966-.563M26.9 16.7c-.334-.442-.78-.664-1.002-.498-.22.166-.129.658.205 1.1.333.441.78.662 1 .496.222-.166.131-.658-.204-1.099"/></g></svg>