<svg xmlns="http://www.w3.org/2000/svg" viewBox="0 0 47.5 47.5"><defs><clipPath id="a"><path d="M0 38h38V0H0v38z"/></clipPath><clipPath id="b"><path d="M1 19a4 4 0 0 1 4-4h28a4 4 0 0 1 4 4c0 10-8.059 18-18 18S1 29 1 19"/></clipPath></defs><g clip-path="url(#a)" transform="matrix(1.25 0 0 -1.25 0 47.5)"><path d="M28 4c0-2.209-1.791-3-4-3H14c-2.209 0-4 .791-4 3s3 7 3 13 12 6 12 0 3-10.791 3-13" fill="#99aab5"/></g><g clip-path="url(#b)" transform="matrix(1.25 0 0 -1.25 0 47.5)"><path d="M19 37.611c-10.494 0-19-8.639-19-19.194C0 16.085 1.891 14 4.222 14h29.555C36.109 14 38 16.085 38 18.417c0 10.555-8.506 19.194-19 19.194" fill="#dd2e44"/><path d="M8.709 20.542a6.174 6.174 0 0 0-6.167 6.167c0 3.4 2.767 6.166 6.167 6.166s6.167-2.766 6.167-6.166a6.174 6.174 0 0 0-6.167-6.167" fill="#f4abba"/><path d="M8.709 33a6.292 6.292 0 1 1 0-12.584 6.292 6.292 0 0 1 0 12.584m0-.25a6.049 6.049 0 0 0 6.042-6.042 6.049 6.049 0 0 0-6.042-6.041 6.049 6.049 0 0 0-6.042 6.041 6.049 6.049 0 0 0 6.042 6.042M35.666 25.811a17.93 17.93 0 0 1-4.209 6.184 4.498 4.498 0 1 1 4.209-6.184M27 21a4.5 4.5 0 1 0-9 0 4.5 4.5 0 0 0 9 0M24 32a3 3 0 1 0-6 0 3 3 0 0 0 6 0" fill="#f4abba"/></g></svg>