<svg xmlns="http://www.w3.org/2000/svg" viewBox="0 0 47.5 47.5"><defs><clipPath id="a"><path d="M0 38h38V0H0v38z"/></clipPath></defs><g clip-path="url(#a)" transform="matrix(1.25 0 0 -1.25 0 47.5)"><path d="M7 33c3 0 5-2 8-6s7.957-7.191 12-8c5-1 9-5 9-11 0-4.897-3.846-7-9-7-5 0-9 3-14 8S3 23 3 27s1 6 4 6" fill="#744eaa"/><path d="M4.515 37c1.248 0 1.248-1.248 1.248-2.495 0-1.764 1.247-1.129 2.495-1.129C9.505 33.376 12 31 12 31H8.258c-1.248 0 0-2.614-1.248-2.614-1.247 0-1.247 1.188-2.495 1.188S3 26 3 26s-1.604 4.153.267 6.024C4.515 33.272 2.02 37 4.515 37" fill="#77b255"/></g></svg>