<svg xmlns="http://www.w3.org/2000/svg" viewBox="0 0 47.5 47.5"><defs><clipPath id="a"><path d="M0 38h38V0H0v38z"/></clipPath></defs><g clip-path="url(#a)" transform="matrix(1.25 0 0 -1.25 0 47.5)"><path d="M2.063 31.875s4.874 5 10 5c6.124 0 7.936-4.938 7.936-4.938s.626 4 5 4c4.376 0 6.939-3.125 6.939-3.125s-3.563-2.124-4.625-2.562c-2.801-1.153-11.375-3.562-15.375-2.562-4 .999-9.876 4.187-9.876 4.187" fill="#5c913b"/><path d="M19 31s1.042.896 6 .896c6.542 0 12-4.813 12-12.927C37 7.438 22.042 1.088 22.042 1.088S2 2.167 2 19.023C2 28.982 8.75 32 13 32c4.958 0 6-1 6-1" fill="#ff886c"/><path d="M2.063 31.875s4.874 5 10 5c6.124 0 7.936-4.938 7.936-4.938s-4.061-5.249-8.061-4.249c-4 .999-9.876 4.187-9.876 4.187" fill="#77b255"/><path d="M23.999 7a1 1 0 0 0-.831 1.555C23.183 8.577 25 11.462 25 18c0 6.445-4.578 10.182-4.625 10.219a1 1 0 0 0 1.25 1.562C21.844 29.605 27 25.396 27 18c0-7.22-2.079-10.422-2.168-10.555A.998.998 0 0 0 23.999 7" fill="#dd2e44"/></g></svg>