<svg xmlns="http://www.w3.org/2000/svg" viewBox="0 0 47.5 47.5"><defs><clipPath id="a"><path d="M0 38h38V0H0v38z"/></clipPath><clipPath id="b"><path d="M2 19C2 9.611 9.609 2 19 2s17 7.611 17 17c0 9.39-7.609 17-17 17S2 28.39 2 19"/></clipPath></defs><g clip-path="url(#a)" transform="matrix(1.25 0 0 -1.25 0 47.5)"><path d="M36 19c0-9.389-7.609-17-17-17S2 9.611 2 19s7.609 17 17 17 17-7.611 17-17" fill="#c1694f"/><path d="M28.258 9.358a1.012 1.012 0 0 0-1.145 1.669l1.67 1.144a1.012 1.012 0 0 0 1.143-1.668l-1.668-1.145zM30.696 16.453a.998.998 0 0 0-.549 1.303c.21.511.793.757 1.304.55l1.852-.756a1 1 0 0 0-.754-1.852l-1.853.755zM26.202 21.709a1.011 1.011 0 1 0 .762 1.874l1.875-.764a1.012 1.012 0 0 0-.765-1.873l-1.872.763zM5.201 14.709a1.012 1.012 0 0 0 .764 1.874l1.873-.764a1.012 1.012 0 0 0-.763-1.874l-1.874.764zM8.758 20.858a1.011 1.011 0 1 0-1.145 1.669l1.67 1.144a1.012 1.012 0 0 0 1.143-1.669l-1.668-1.144zM17.786 17.12a1.5 1.5 0 1 0 1.132 2.778l2.778-1.133a1.5 1.5 0 1 0-1.132-2.778l-2.778 1.132zM11.602 11.067a1.011 1.011 0 1 0 .718-1.889l-1.892-.72a1.008 1.008 0 0 0-1.302.586c-.2.523.063 1.106.585 1.306l1.89.717z" fill="#e29386"/></g><g clip-path="url(#b)" transform="matrix(1.25 0 0 -1.25 0 47.5)"><path d="M27 4a2 2 0 0 0-2-2H13a2 2 0 0 0-2 2v12a2 2 0 0 0 2 2h12a2 2 0 0 0 2-2V4z" fill="#292f33"/></g></svg>