<svg xmlns="http://www.w3.org/2000/svg" viewBox="0 0 47.5 47.5"><defs><clipPath id="a"><path d="M0 38h38V0H0v38z"/></clipPath></defs><g clip-path="url(#a)" transform="matrix(1.25 0 0 -1.25 0 47.5)"><path d="M37 14c0-5.522-8.059-10-18-10S1 8.478 1 14s8.059 10 18 10 18-4.478 18-10" fill="#939598"/><path d="M37 16c0-5.522-8.059-10-18-10S1 10.478 1 16s8.059 10 18 10 18-4.478 18-10" fill="#f1f2f2"/><path d="M33.8 16.389c0-4.202-6.626-7.611-14.8-7.611s-14.8 3.409-14.8 7.61C4.2 20.593 10.826 24 19 24s14.8-3.408 14.8-7.611" fill="#f4900c"/><path d="M14 13c-3.75 0-10 2.063-10 5.5 0 4.125 3.828 8.938 10 8.938 6.172 0 10-5.5 10-8.938 0-3.437-5.625-5.5-10-5.5" fill="#eee"/><path d="M5.64 18.18a.674.674 0 1 0 .51 1.248l1.248-.509a.674.674 0 1 0-.509-1.249l-1.249.51zM9.344 21.612a.675.675 0 0 0-.763 1.112l1.114.763a.675.675 0 0 0 .761-1.113l-1.112-.762zM18.344 16.612a.675.675 0 0 0-.763 1.112l1.114.763a.675.675 0 0 0 .761-1.112l-1.112-.763zM12.696 18.453a1 1 0 1 0 .755 1.853l1.852-.756a1 1 0 0 0-.754-1.851l-1.853.754zM17.64 22.18a.675.675 0 0 0 .508 1.249l1.25-.51a.674.674 0 1 0-.51-1.249l-1.247.51zM11.907 16.418a.675.675 0 1 0 .479-1.259l-1.261-.48a.672.672 0 0 0-.868.39.673.673 0 0 0 .39.871l1.26.478z" fill="#ccd6dd"/><path d="M31 18a2 2 0 0 0-2-2h-1a2 2 0 0 0 0 4h1a2 2 0 0 0 2-2M28 13.5a1.5 1.5 0 0 0-1.5-1.5h-1a1.5 1.5 0 0 0 0 3h1a1.5 1.5 0 0 0 1.5-1.5M22 11a1 1 0 0 0-1-1h-1a1 1 0 1 0 0 2h1a1 1 0 0 0 1-1" fill="#ffd983"/></g></svg>