<svg xmlns="http://www.w3.org/2000/svg" viewBox="0 0 47.5 47.5"><defs><clipPath id="a"><path d="M0 38h38V0H0v38z"/></clipPath></defs><g clip-path="url(#a)" transform="matrix(1.25 0 0 -1.25 0 47.5)"><path d="M19 1C4.042 1 2 15 2 19h34c0-2-1.958-18-17-18" fill="#ccd6dd"/><path d="M36 19.944c0-5.216-7.611-9.444-17-9.444S2 14.728 2 19.944c0 5.216 7.611 8.444 17 8.444s17-3.228 17-8.444" fill="#99aab5"/><path d="M20.5 4H18a.5.5 0 0 0 0 1h2v3h-4V7h3a.5.5 0 0 0 0-1h-3.5a.5.5 0 0 0-.5.5v2a.5.5 0 0 0 .5.5h5a.5.5 0 0 0 .5-.5v-4a.5.5 0 0 0-.5-.5M26 5a.5.5 0 0 0-.186.964l2.176.871-.065 2.249L24 8.109V7.16c.734.206 1.958.553 2.858.819a.5.5 0 1 0 .284-.958 294.639 294.639 0 0 0-3.507-1.002A.502.502 0 0 0 23 6.5v2a.5.5 0 0 0 .38.485l4.906 1.219a.502.502 0 0 0 .62-.471L29 6.515a.499.499 0 0 0-.314-.479l-2.5-1A.508.508 0 0 0 26 5M30.573 7.712a.57.57 0 0 0-.288.078.62.62 0 0 0-.285.49v2.564a.5.5 0 0 0 .265.44c.59.315 1.28.728 1.838 1.062.39.233.718.429.911.533a.499.499 0 0 0 .734-.403c.034-.438-.113-1.545-.144-1.763a.497.497 0 0 0-.247-.366l-1.203-.688a.506.506 0 0 0-.683.187.5.5 0 0 0 .187.682l.987.564c.018.14.035.293.052.444a3.384 3.384 0 0 1-.08-.048c-.49-.293-1.078-.645-1.617-.942V8.92c.173.094.407.229.723.427l.34-.38.19-.47c-.95-.59-1.392-.786-1.68-.786M12.875 4.719a.523.523 0 0 0-.152.023L9.504 5.774a.501.501 0 0 0-.324.629.504.504 0 0 0 .629.324l2.585-.828.064 2.355-2.856.836-.026-.735 1.585-.537a.5.5 0 0 0-.322-.948l-1.937.657a.5.5 0 0 0-.339.49l.062 1.75a.5.5 0 0 0 .641.463l3.843-1.125a.501.501 0 0 0 .36-.493l-.094-3.407a.5.5 0 0 0-.5-.486M6.844 7.5a.495.495 0 0 0-.262.074l-1.375.844a.499.499 0 0 0-.164.687.498.498 0 0 0 .688.165l.608-.374-.01 1.624-1.33.75v-.425l.744-.449a.5.5 0 1 0-.517-.855l-.984.594a.5.5 0 0 0-.242.428v1.562a.5.5 0 0 0 .746.436l2.328-1.313a.5.5 0 0 0 .254-.433l.016-2.812a.502.502 0 0 0-.5-.503" fill="#ea596e"/><path d="M34 19c0-3.866-6.716-7-15-7-8.284 0-15 3.134-15 7s6.716 7 15 7c8.284 0 15-3.134 15-7" fill="#ffac33"/><path d="M23 13c-1.18 0-2.122.196-2.801.584-.767.438-1.207 1.143-1.207 1.933C18.992 17.372 21.332 19 24 19a1 1 0 1 0 0-2c-1.872 0-3.008-1.03-3.008-1.483 0-.077.153-.169.199-.197.21-.119.724-.32 1.809-.32 2.404 0 5 1.529 5 4 0 .721-.939 1.183-1.343 1.348-2.019.825-5.291.579-6.944-1.104-1.441-1.468-3.792-1.956-6.29-1.302-1.538.402-3.319 1.339-3.705 2.761-.197.725.008 1.437.575 2.004C12.586 25 16.871 25 20 25a1 1 0 1 0 0-2c-2.779 0-6.586 0-8.293-1.707a.293.293 0 0 1-.064-.082c.024-.156.571-.763 1.807-1.189 1.571-.541 3.676-.559 4.837.623 2.318 2.361 6.46 2.644 9.127 1.554C29.058 21.527 30 20.361 30 19c0-3.706-3.634-6-7-6M16 13c-7.605 0-10 5.457-10 7a1 1 0 0 0 2 .005C8.036 19.342 9.701 15 16 15a1 1 0 1 0 0-2" fill="#ffd983"/><path d="M36.092 33.947l-23.005-.886a1 1 0 0 0-.18 1.992l22.916 1.882a.999.999 0 0 0 1.086-.906c.049-.55-.266-2.032-.817-2.082M36 29l-23 1a1 1 0 0 0 0 2h23a1 1 0 0 0 1-1c0-.552-.447-2-1-2" fill="#aa695b"/><path d="M15 22a1 1 0 0 0-1 1v12a1 1 0 0 0 2 0V23a1 1 0 0 0-1-1M19 20a1 1 0 0 0-1 1v15a1 1 0 0 0 2 0V21a1 1 0 0 0-1-1" fill="#ffd983"/></g></svg>