<svg xmlns="http://www.w3.org/2000/svg" viewBox="0 0 47.5 47.5"><defs><clipPath id="a"><path d="M0 38h38V0H0v38z"/></clipPath><clipPath id="b"><path d="M15 34C10 30 2 19 2 11c0-9.389 7.609-9 17-9s17-.389 17 9c0 5-6 18-13 23-1.427 1.019-2.732 1.519-4.021 1.519-1.306 0-2.596-.513-3.979-1.519"/></clipPath></defs><g clip-path="url(#a)" transform="matrix(1.25 0 0 -1.25 0 47.5)"><path d="M36 11c0-9.389-7.609-9-17-9S2 1.611 2 11c0 8 8 19 13 23 2.75 2 5.129 2.051 8 0 7-5 13-18 13-23" fill="#eee"/><path d="M28.258 7.358a1.012 1.012 0 0 0-1.145 1.669l1.67 1.144a1.012 1.012 0 0 0 1.143-1.668l-1.668-1.145zM30.696 14.453a1.001 1.001 0 0 0 .755 1.852l1.852-.755a1 1 0 0 0-.754-1.852l-1.853.755zM26.202 19.709a1.011 1.011 0 1 0 .762 1.874l1.875-.764a1.012 1.012 0 0 0-.765-1.873l-1.872.763zM5.201 12.709a1.012 1.012 0 0 0 .764 1.874l1.873-.764a1.012 1.012 0 0 0-.763-1.874l-1.874.764zM8.758 18.858a1.011 1.011 0 1 0-1.145 1.669l1.67 1.144a1.012 1.012 0 0 0 1.143-1.669l-1.668-1.144zM17.786 15.12a1.5 1.5 0 1 0 1.132 2.778l2.778-1.133a1.5 1.5 0 1 0-1.132-2.778l-2.778 1.132zM11.602 9.067a1.011 1.011 0 1 0 .718-1.889l-1.892-.72a1.008 1.008 0 0 0-1.302.586c-.2.523.063 1.106.585 1.306l1.89.717z" fill="#ccd6dd"/></g><g clip-path="url(#b)" transform="matrix(1.25 0 0 -1.25 0 47.5)"><path d="M27 2a2 2 0 0 0-2-2H13a2 2 0 0 0-2 2v12a2 2 0 0 0 2 2h12a2 2 0 0 0 2-2V2z" fill="#292f33"/></g></svg>