<svg xmlns="http://www.w3.org/2000/svg" viewBox="0 0 47.5 47.5"><defs><clipPath id="a"><path d="M0 38h38V0H0v38z"/></clipPath></defs><g clip-path="url(#a)" transform="matrix(1.25 0 0 -1.25 0 47.5)"><path d="M19 1C4.042 1 2 16 2 20h34c0-2-1.958-19-17-19" fill="#dd2e44"/><path d="M36 19.944c0-5.216-7.611-9.444-17-9.444S2 14.728 2 19.944c0 5.216 7.611 9.444 17 9.444s17-4.228 17-9.444" fill="#a0041e"/><path d="M19 12c-6 0-16 3-16 8 0 6 6.125 13 16 13s16-8 16-13-9-8-16-8" fill="#eee"/><path d="M16.41 17.108a1 1 0 0 0-1.302-1.519l-1.518 1.302a1 1 0 0 0 1.301 1.52l1.52-1.303zM8.283 18.615a1 1 0 0 0-1.668 1.103l1.102 1.668a1 1 0 1 0 1.669-1.103l-1.103-1.668zM31.283 18.615a1 1 0 0 0-1.669 1.103l1.103 1.668a.999.999 0 0 0 1.385.283c.46-.304.587-.925.284-1.386l-1.103-1.668zM25.18 22.22a1.001 1.001 0 0 0-1.96-.398l-.4 1.96a.999.999 0 1 0 1.96.398l.4-1.96zM17.64 26.18a.674.674 0 1 0 .51 1.248l1.248-.509a.674.674 0 1 0-.509-1.249l-1.249.51zM8.344 24.612a.675.675 0 0 0-.763 1.112l1.114.763a.675.675 0 0 0 .761-1.113l-1.112-.762zM21.936 16.067a1.001 1.001 0 0 0 .13 1.997l1.997-.13a1 1 0 0 0-.13-1.996l-1.997.13zM12.696 22.453a1 1 0 1 0 .755 1.853l1.852-.756a1 1 0 0 0-.754-1.851l-1.853.754zM28.64 25.18a.675.675 0 0 0 .508 1.249l1.25-.51a.674.674 0 1 0-.51-1.249l-1.247.51z" fill="#ccd6dd"/></g></svg>