<svg xmlns="http://www.w3.org/2000/svg" viewBox="0 0 47.5 47.5"><defs><clipPath id="a"><path d="M0 38h38V0H0v38z"/></clipPath></defs><g clip-path="url(#a)" transform="matrix(1.25 0 0 -1.25 0 47.5)"><path d="M10.441 22.405c.458 1.372 7.41 7.525 13.286 10.22 1.528.701 5.188 2.066 6.936 2.503 3.604.902 7.747 2.32 5.327-.459-3.525-4.047-3.943-14.015-8.03-21.17-2.68-4.213-4.233-6.423-10.365-3.357-6.132 3.065-9.197 6.131-7.154 12.263" fill="#c1694f"/><path d="M23.491 22.24c3.816-3.768 4.498-9.263 1.524-12.276-2.973-3.014-8.477-2.4-12.294 1.365-3.815 3.768-4.498 9.265-1.524 12.276 2.974 3.013 8.478 2.402 12.294-1.365" fill="#f4900c"/><path d="M27.96 30.623c1.14-.57 2.703-3.605 2.703-4.506 0-.901-.901.9-2.703 2.704-1.803 1.802-1.803 2.703 0 1.802M28.14 22.593c.607-.578 1.01-2.787.837-3.354-.173-.567-.395.74-1.183 2.22-.79 1.48-.615 2.047.347 1.134" fill="#8a4b38"/><path d="M22 5c0-2.209-4.477-4-10-4S2 3 2 5c0 .371-.203 2.6.083 2.958C3.34 9.531 7.502 9 12 9c4.908 0 9.133.865 9.979-1 .107-.233.021-2.754.021-3" fill="#c1694f"/><path d="M22 8c0-2.209-4.477-4-10-4S2 5.791 2 8s4.477 4 10 4 10-1.791 10-4" fill="#fca43a"/></g></svg>