<svg xmlns="http://www.w3.org/2000/svg" viewBox="0 0 47.5 47.5"><defs><clipPath id="a"><path d="M0 38h38V0H0v38z"/></clipPath></defs><g clip-path="url(#a)" transform="matrix(1.25 0 0 -1.25 0 47.5)"><path d="M34.884 1.77c-.314 0-.63.12-.87.36L3.33 32.816a1.229 1.229 0 1 0 1.739 1.739L35.753 3.869a1.228 1.228 0 0 0-.87-2.099" fill="#d99e82"/><path d="M7.729 33.954c-2.651.536-4.261-1.167-3.578-3.784l1.843-7.055c.684-2.617 2.808-3.193 4.72-1.28l6.102 6.102c1.912 1.913 1.309 3.916-1.343 4.452l-7.745 1.565z" fill="#66757f"/><path d="M23.614 21.032a6.761 6.761 0 0 0-6.762-6.761 6.761 6.761 0 1 0 0 13.523 6.762 6.762 0 0 0 6.762-6.762" fill="#d99e82"/><path d="M23.052 6.293a2.459 2.459 0 0 0-3.477 0l-3.478 3.478a2.46 2.46 0 0 0 0 3.476l8.693 8.693a2.46 2.46 0 0 0 3.478 0l3.477-3.477a2.46 2.46 0 0 0 0-3.478l-8.693-8.692z" fill="#ccd6dd"/><path d="M34.884 1.77c-.314 0-.63.12-.87.36l-9.117 9.12a1.229 1.229 0 1 0 1.738 1.738l9.118-9.118a1.228 1.228 0 0 0-.87-2.1" fill="#d99e82"/></g></svg>