<svg xmlns="http://www.w3.org/2000/svg" viewBox="0 0 47.5 47.5"><defs><clipPath id="a"><path d="M0 38h38V0H0v38z"/></clipPath><clipPath id="b"><path d="M17.769 15H4.806s2.247-7.147 5.783-10.584c2.409-2.34 6.46-2.521 7.9-2.521 2.88 0 6.55.193 8.958 2.535C31.645 8.507 33.612 15 33.612 15H17.769z"/></clipPath><clipPath id="c"><path d="M0 38h38V0H0v38z"/></clipPath><clipPath id="d"><path d="M4.856 17.716c.9-.332 6.69-2.382 13.993-2.382 8.222 0 14.249 1.787 15.627 2.778 1.38.992 1.329 9.591-4.952 12.905-5.363 2.828-5.513 5.608-10.624 5.608-7.66 0-21.194-16.279-14.044-18.909"/></clipPath><clipPath id="e"><path d="M0 38h38V0H0v38z"/></clipPath></defs><g clip-path="url(#a)" transform="matrix(1.25 0 0 -1.25 0 47.5)"><path d="M17.769 15H4.806S7.054 7.854 10.59 4.416c2.408-2.34 6.459-2.52 7.899-2.52 2.88 0 6.55.192 8.959 2.534C31.645 8.507 33.613 15 33.613 15H17.769z" fill="#55acee"/></g><g clip-path="url(#b)" transform="matrix(1.25 0 0 -1.25 0 47.5)"><path d="M33.612 13.45c0-2.32-4.858-4.9-14.403-4.9-9.546 0-14.404 2.58-14.404 4.9 0 2.318 4.858 4.197 14.404 4.197 9.545 0 14.403-1.879 14.403-4.198" fill="#3b88c3"/></g><g clip-path="url(#c)" transform="matrix(1.25 0 0 -1.25 0 47.5)"><path d="M3 20v-4.453c0-2.318 7.251-4.198 16-4.198 8.751 0 16 1.88 16 4.198V20H3z" fill="#55acee"/><path d="M4.857 17.717c.9-.331 6.693-2.383 13.999-2.383 8.225 0 14.253 1.788 15.633 2.779 1.38.993 1.328 9.595-4.955 12.91-5.365 2.83-5.514 5.61-10.627 5.61-7.664 0-21.203-16.285-14.05-18.916" fill="#f9d2dc"/></g><g clip-path="url(#d)" transform="matrix(1.25 0 0 -1.25 0 47.5)"><path d="M4.47 26.89c1.555.73 5.467 2.242 8.378-1.659 2.91-3.9 9.483-1.756 12.293.975 2.808 2.73 6.52 1.22 10.735.196 4.215-1.025-2.808 14.14-11.49 13.164-8.68-.976-14.347 2.68-17.81-3.12-3.46-5.803-2.106-9.557-2.106-9.557" fill="#f98097"/></g><g clip-path="url(#e)" transform="matrix(1.25 0 0 -1.25 0 47.5)"><path d="M14 30a1 1 0 1 0-2 0 1 1 0 0 0 2 0M20 27a1 1 0 1 0-2 0 1 1 0 0 0 2 0M24 32a1 1 0 1 0-2 0 1 1 0 0 0 2 0" fill="#ea596e"/></g></svg>