<svg xmlns="http://www.w3.org/2000/svg" viewBox="0 0 47.5 47.5"><defs><clipPath id="a"><path d="M0 38h38V0H0v38z"/></clipPath></defs><g clip-path="url(#a)" transform="matrix(1.25 0 0 -1.25 0 47.5)"><path d="M37 14c0-5.522-8.059-10-18-10S1 8.478 1 14s8.059 10 18 10 18-4.478 18-10" fill="#939598"/><path d="M37 16c0-5.522-8.059-10-18-10S1 10.478 1 16s8.059 10 18 10 18-4.478 18-10" fill="#f1f2f2"/><path d="M32 17c0-3.988-5.82-7.223-13-7.223S6 13.012 6 17s5.82 7.222 13 7.222S32 20.988 32 17" fill="#c1694f"/><path d="M30 17c0-3.068-4.926-5.556-11-5.556-6.075 0-11 2.488-11 5.556s4.925 5.556 11 5.556c6.074 0 11-2.488 11-5.556" fill="#8a4b38"/><path d="M19 30c3.383 0 4.724-2 5.921-2 1.691 0 2.537-2 4.228-9 .698-2.885-4.228-6-10.149-6-5.92 0-10.846 3.115-10.149 6 1.691 7 2.537 9 4.229 9 1.195 0 2.537 2 5.92 2" fill="#ffcc4d"/><path d="M26.612 26c0-2.209-3.408-4-7.612-4-4.204 0-7.612 1.791-7.612 4s3.408 4 7.612 4c4.204 0 7.612-1.791 7.612-4" fill="#662113"/></g></svg>