<svg xmlns="http://www.w3.org/2000/svg" viewBox="0 0 47.5 47.5"><defs><clipPath id="a"><path d="M0 38h38V0H0v38z"/></clipPath><clipPath id="b"><path d="M3.442 21.978a.998.998 0 0 1-.447-.332C1.755 20.012.381 13.53 4 10c3.556-3.468 6.822-4.304 8.778-4.495a2.15 2.15 0 0 1 .14-.007c2.458 0 18.332 10.76 19.524 13.235 1.372 2.842 1.281 8.399-1.98 10.297-.395.231-.914.338-1.633.338-5.581 0-24.581-7.089-25.387-7.39"/></clipPath><clipPath id="c"><path d="M0 38h38V0H0v38z"/></clipPath></defs><g clip-path="url(#a)" transform="matrix(1.25 0 0 -1.25 0 47.5)"><path d="M12.918 5.498a2.15 2.15 0 0 0-.14.007C10.821 5.696 6.755 6.867 4 11c-2 3-2.245 9.012-1.004 10.646a.991.991 0 0 0 .445.332c.807.302 19.807 7.39 25.388 7.39.719 0 1.238-.107 1.633-.337 3.261-1.899 3.352-7.456 1.98-10.299C31.25 16.259 15.376 5.498 12.918 5.498" fill="#eee"/></g><g clip-path="url(#b)" transform="matrix(1.25 0 0 -1.25 0 47.5)"><path d="M14 18c-1-3-3-14 2-16s24 11.917 22 17.458C36 25 31 30 27 27s-13-9-13-9" fill="#ccd6dd"/></g><g clip-path="url(#c)" transform="matrix(1.25 0 0 -1.25 0 47.5)"><path d="M33.018 30.48a.995.995 0 0 1-.846.257L2.796 25.904a1 1 0 0 1-.837-1.013c.027-1.011.019-1.746.01-2.574-.005-.46-.01-.948-.01-1.525a1 1 0 0 1 .36-.77c2.034-1.686 8.715-6.156 10.234-6.916a.999.999 0 0 1 1.057.102c2.556 1.966 16.483 9.929 18.664 10.875.335.146.564.463.598.827.125 1.373.458 4.74.458 4.742a.999.999 0 0 1-.312.828" fill="#a0041e"/><path d="M33.085 30.41c-2.02 2.296-9.627 5.575-10.917 5.63a.998.998 0 0 1-.238-.017C11.824 34.01 5.211 28.217 2.721 26.036l-.416-.362a.999.999 0 0 1 .071-1.57c.338-.243 8.316-5.96 10.257-7.058a1.007 1.007 0 0 1 1.159.125c3.914 3.499 17.099 10.96 18.897 11.644a1 1 0 0 1 .396 1.596" fill="#dd2e44"/><path d="M8.417 28.416c.875-2.667 1.333-5.417 1.75-7.833M13.959 31.834c1.042-2.833 2.167-9.333 2.25-11M20 34c1-3 1.592-7.763 1.834-9.375M26.459 32.959c.5-1.418.833-2.834 1.041-4.918" fill="none" stroke="#ea596e" stroke-width="2" stroke-linecap="round" stroke-linejoin="round" stroke-miterlimit="10"/><path d="M33.136 14c-1.714 1.235-4.055 2-6.636 2-2.581 0-4.922-.765-6.635-2H17V9c0-3.859 4.262-7 9.5-7C31.739 2 36 5.141 36 9v5h-2.864z" fill="#292f33"/><path d="M26.5 21c-5.238 0-9.5-3.141-9.5-7s4.262-7 9.5-7 9.5 3.141 9.5 7-4.262 7-9.5 7" fill="#292f33"/><path d="M33.583 14c0-2.762-3.171-5-7.083-5-3.912 0-7.084 2.238-7.084 5s3.172 5 7.084 5c3.912 0 7.083-2.238 7.083-5" fill="#e1e8ed"/><path d="M33.583 14c0-2.762-3.171-5-7.083-5-3.912 0-7.084 2.238-7.084 5s3.172 5 7.084 5c3.912 0 7.083-2.238 7.083-5z" fill="none" stroke="#e1e8ed" stroke-width="1.667" stroke-linecap="round" stroke-linejoin="round" stroke-miterlimit="10"/><path d="M22.209 14.458c0 .422 1.806.335 4.291.335 2.485 0 4.209.546 4.209.124 0-1.775-1.724-3.552-4.209-3.552-2.485 0-4.291 1.318-4.291 3.093" fill="#77b255"/><path d="M22.209 14.458c0 .422 1.806.335 4.291.335 2.485 0 4.209.546 4.209.124 0-1.775-1.724-3.552-4.209-3.552-2.485 0-4.291 1.318-4.291 3.093z" fill="none" stroke="#77b255" stroke-miterlimit="10"/><path d="M31 15s-2 1-5 0c-2.357-.786-4-2.561-4-.785 0 1.775 2.015 3.213 4.5 3.213S31 16 31 15" fill="#f4900c"/><path d="M31 15s-2 1-5 0c-2.357-.786-4-2.561-4-.785 0 1.775 2.015 3.213 4.5 3.213S31 16 31 15z" fill="none" stroke="#f4900c" stroke-linecap="round" stroke-linejoin="round" stroke-miterlimit="10"/></g></svg>