<svg xmlns="http://www.w3.org/2000/svg" viewBox="0 0 47.5 47.5"><defs><clipPath id="a"><path d="M0 38h38V0H0v38z"/></clipPath></defs><g clip-path="url(#a)" transform="matrix(1.25 0 0 -1.25 0 47.5)"><path d="M32 15C29 4 26.981 1 19 1 11 1 9 4 6 15c-2.035 7.46 2 14 13 14s15.034-6.54 13-14" fill="#f4900c"/><path d="M30 26c2-4-3-8-11-8S6 22 8 26c1.482 2.964 4.373 6 11 6s9.519-3.036 11-6" fill="#be1931"/><path d="M31 26c0-4-5.373-6-12-6S7 22 7 26c0 3.313 5.373 6 12 6s12-2.687 12-6" fill="#ffac33"/><path d="M28 27c1-1 2-2 2-3s-1-3-2-2c0 0 2.948-1.154 2-4-1-3-4-2-4 0s-1.553 3.342-2 2c-1-3-3-3-4-2s-1 2-1 2-3 0-2 2 0 2 0 2 0 1 1 1 7 1 8 2 2 0 2 0" fill="#ffe8b6"/><path d="M29 27.722C29 25.114 24.523 23 19 23S9 25.114 9 27.722C9 30.33 13.477 32 19 32s10-1.67 10-4.278" fill="#662113"/><path d="M19 23c4.548 0 8.379 1.435 9.593 3.396-.193.202-.392.403-.593.604 0 0-2 2-3 1s-6-1-7-1-2-1-2-1 1.587-2.011 1.397-2.934C17.92 23.026 18.453 23 19 23" fill="#f4900c"/><path d="M27 28.5c0-1.933-3.582-3.5-8-3.5s-8 1.567-8 3.5 3.582 5.5 8 5.5 8-3.567 8-5.5" fill="#ffcc4d"/><path d="M21 34.5c0-.828-.896-1.5-2-1.5s-2 .672-2 1.5.896 1.5 2 1.5 2-.672 2-1.5" fill="#f4900c"/><path d="M6.685 12.59C7.41 10.133 8.11 8.154 8.89 6.577 12 4 17 4 19 4s7 0 10.106 2.576c.781 1.577 1.483 3.556 2.208 6.014C28.61 11.028 24.112 10 19 10s-9.61 1.028-12.315 2.59" fill="#ffcc4d"/></g></svg>