<svg xmlns="http://www.w3.org/2000/svg" viewBox="0 0 47.5 47.5"><defs><clipPath id="a"><path d="M0 38h38V0H0v38z"/></clipPath><clipPath id="b"><path d="M19.918 24H6.999c-1.175 0-3.739-.493-3.071-2.894C6.711 11.1 17 8.375 17 8.375V7.202s-4.634-2.443-5.588-3.01c-1.027-.587-.267-1.526.144-1.688.684-.269 2.389-1.15 7.115-1.15 4.848 0 7.497.954 8.084 1.15.226.075 1.197.973-.199 1.799C24.073 5.773 21 7.202 21 7.202v1.173S31.661 11.1 34.357 21.281C34.753 22.775 32.838 24 30.488 24h-10.57z"/></clipPath><clipPath id="c"><path d="M0 38h38V0H0v38z"/></clipPath></defs><g clip-path="url(#a)" transform="matrix(1.25 0 0 -1.25 0 47.5)"><path d="M21 8.375S31.661 11.1 34.356 21.28c.397 1.495-1.518 2.72-3.868 2.72H7c-1.176 0-3.74-.493-3.072-2.895C6.711 11.1 17 8.375 17 8.375V7.202s-4.634-2.443-5.588-3.01c-1.027-.588-.267-1.526.144-1.688.684-.27 2.389-1.15 7.115-1.15 4.848 0 7.497.954 8.084 1.15.226.075 1.197.973-.198 1.799C24.073 5.772 21 7.202 21 7.202v1.173z" fill="#55acee"/><path d="M34.291 21.752c0-1.692-6.835-3.063-15.269-3.063-8.432 0-15.268 1.371-15.268 3.063 0 1.693 6.836 3.064 15.268 3.064 8.434 0 15.269-1.371 15.269-3.064" fill="#3b88c3"/><path d="M26.982 30.092c0-1.613-3.133-4.745-7.832-4.745-4.325 0-7.83 2.088-7.83 4.745 0 4.325 3.505 6.787 7.83 6.787 4.326 0 7.832-2.462 7.832-6.787" fill="#f4abba"/><path d="M34.291 22.783c0-1.613-3.132-4.223-7.83-4.223-4.326 0-7.833-1.393-7.833 4.223a7.832 7.832 0 0 0 15.663 0" fill="#ffe8b6"/><path d="M19.672 22.783c0-5.182-3.132-4.31-7.83-4.31-4.325 0-7.83 1.653-7.83 4.31a7.83 7.83 0 1 0 15.66 0" fill="#8a4b38"/></g><g clip-path="url(#b)" transform="matrix(1.25 0 0 -1.25 0 47.5)"><path d="M3.75 19.777c1.915-.609 16.185-5.264 31.281.522.087-.826-.219-3.742-1.436-3.959-1.218-.216-14.232-4.496-28.762.202-.392.435-1.083 3.235-1.083 3.235" fill="#3b88c3"/></g><g clip-path="url(#c)" transform="matrix(1.25 0 0 -1.25 0 47.5)"><path d="M3.837 21.823c1.396-.6 15.488-5.046 30.498-.087 0-.653-.411-2.477-.653-3.176-.391-1.132-15.401-4.83-28.888-.261-.392.174-1.566 3.785-.957 3.524" fill="#55acee"/></g></svg>