<svg xmlns="http://www.w3.org/2000/svg" viewBox="0 0 47.5 47.5"><defs><clipPath id="a"><path d="M0 38h38V0H0v38z"/></clipPath><clipPath id="b"><path d="M0 38h38V0H0v38z"/></clipPath></defs><g clip-path="url(#a)" transform="matrix(1.25 0 0 -1.25 0 47.5)"><path d="M37 11c0-5.522-8.059-10-18-10S1 5.478 1 11s8.059 10 18 10 18-4.478 18-10" fill="#292f33"/><path d="M37 13c0-5.522-8.059-10-18-10S1 7.478 1 13s8.059 10 18 10 18-4.478 18-10" fill="#66757f"/><path d="M19 6C4.042 6 2 21 2 25h34c0-2-1.958-19-17-19" fill="#e1e8ed"/><path d="M36 24.944c0-5.216-7.611-9.444-17-9.444S2 19.728 2 24.944c0 5.216 7.611 8.444 17 8.444s17-3.228 17-8.444" fill="#77b255"/></g><g clip-path="url(#b)" transform="matrix(1.25 0 0 -1.25 0 47.5)"><path d="M34 24c0-3.866-6.716-7-15-7-8.284 0-15 3.134-15 7s6.716 7 15 7c8.284 0 15-3.134 15-7" fill="#a6d388"/></g></svg>