<svg xmlns="http://www.w3.org/2000/svg" viewBox="0 0 47.5 47.5"><defs><clipPath id="a"><path d="M0 38h38V0H0v38z"/></clipPath></defs><g clip-path="url(#a)" transform="matrix(1.25 0 0 -1.25 0 47.5)"><path d="M20 35.5a1.5 1.5 0 1 1-3 0V26a1 1 0 0 0-2 0v9.5a1.5 1.5 0 1 1-3 0V26a1 1 0 0 0-2 0v9.5a1.5 1.5 0 1 1-3 0v-9c0-.127.021-.249.051-.367A4.395 4.395 0 0 1 7 25.5c0-2.316 1.75-5.957 4-6.442V3.5a2.5 2.5 0 1 1 5 0v15.558c2.25.485 4 4.126 4 6.442 0 .216-.021.426-.051.633.03.118.051.24.051.367v9zM28.5 37c-.104 0-.204-.019-.306-.031-.064.01-.127.031-.194.031-2.209 0-5-5.477-5-11 0-4.658 1.275-8.561 3-9.672V3.5a2.5 2.5 0 1 1 5 0v31a2.5 2.5 0 0 1-2.5 2.5" fill="#99aab5"/></g></svg>