<svg xmlns="http://www.w3.org/2000/svg" viewBox="0 0 47.5 47.5"><defs><clipPath id="a"><path d="M0 38h38V0H0v38z"/></clipPath></defs><g clip-path="url(#a)" transform="matrix(1.25 0 0 -1.25 0 47.5)"><path d="M35.238 9.07c-.704.702-3.856 2.66-6.935 4.363A14.915 14.915 0 0 1 31 22c0 8.284-6.716 15-15 15-8.285 0-15-6.716-15-15C1 13.715 7.715 7 16 7c3.158 0 6.086.981 8.504 2.65 1.705-3.082 3.666-6.24 4.37-6.945C30.288 1.291 32 .998 33 1c1.176.002 4.054 2.881 4 4-.049 1-.348 2.655-1.762 4.07" fill="#292f33"/><path d="M28 22c0-6.627-5.373-12-12-12S4 15.373 4 22s5.373 12 12 12 12-5.373 12-12" fill="#66757f"/><path d="M17 12c4.863 1.533 4 5 4 9s4.001 6.708.334 9.75c-2.177 1.806-6.751 2.417-8.876 1.625C10.506 31.648 8 30.167 8 27.167s-.058-2.928-1.708-5.625C3.667 17.25 10.125 9.833 17 12" fill="#f5f8fa"/><path d="M18 19a4 4 0 1 0-8 0 4 4 0 0 0 8 0" fill="#ffac33"/></g></svg>