<svg xmlns="http://www.w3.org/2000/svg" viewBox="0 0 47.5 47.5"><defs><clipPath id="a"><path d="M0 38h38V0H0v38z"/></clipPath></defs><g clip-path="url(#a)" transform="matrix(1.25 0 0 -1.25 0 47.5)"><path d="M34 29.778c0 1.414.717.707 1.424 1.414 1.416 1.414 2.128 3.536.714 4.95-1.415 1.414-3.534.697-4.949-.718-.707-.707.003-1.424-1.411-1.424h-5.657l.707-.698s3.536-4.944 4.243-4.236c-.707-.708 4.232-4.24 4.232-4.24l.697-.705v5.657z" fill="#ffac33"/><path d="M31.9 22l-4.95 4.95L22 31.899c-.707-.707-4.243 0-5.657-1.414l-.707-.707-2.122-2.121L2.615 16.758a4 4 0 0 1 0-5.657L11.1 2.615a4.002 4.002 0 0 1 5.657 0l9.9 9.9 3.121 3.121.707.707c1.414 1.415.707 4.95 1.414 5.657" fill="#ccd6dd"/><path d="M33.667 22.354c-.977-.977-1.852-1.684-2.828-.707l-9.193 9.192c-.976.977-.269 1.852.708 2.829a2.5 2.5 0 0 0 3.535 0l7.778-7.779a2.5 2.5 0 0 0 0-3.536" fill="#55acee"/><path d="M14 5a.999.999 0 0 0-.707 1.707l12 12.001a1 1 0 0 0 1.414-1.415l-12-12A.997.997 0 0 0 14 5M10 9a.999.999 0 0 0-.707 1.707l12 12.001a1 1 0 0 0 1.414-1.415l-12-12A.997.997 0 0 0 10 9M6 13a.999.999 0 0 0-.707 1.707l12 12.001a1 1 0 0 0 1.414-1.415l-12-12A.997.997 0 0 0 6 13" fill="#99aab5"/></g></svg>