<svg xmlns="http://www.w3.org/2000/svg" viewBox="0 0 47.5 47.5"><defs><clipPath id="a"><path d="M0 38h38V0H0v38z"/></clipPath></defs><g clip-path="url(#a)" transform="matrix(1.25 0 0 -1.25 0 47.5)"><path d="M34 16c-.56 2.797-2.108 6.956-3.707 10.015 1.8 1.248 3.359 3.716 3.359 8.483C33 35 32.371 35 31 35c-1.37 0-3.771 1-3.771 1h-1.371S23.687 35 23 35c-.686 0-3.043.043-3.513-.427 0-4.709 1.613-7.207 3.337-8.49C21.251 23.006 19.699 18.793 19 16c-1-4-.034-9.327 0-9.5.312-1.584 2.254-3.5 7.5-3.5s7.021 1.999 7.5 3.5c.056.175 1 4.5 0 9.5" fill="#55acee"/><path d="M33.626 34.704c0-.988-2.162-1.789-7.083-1.789s-7.083.801-7.083 1.79c0 .988 2.162 1.788 7.083 1.788s7.083-.8 7.083-1.789" fill="#3b88c3"/><path d="M26.43 32.356c-3.153 0-5.514.701-6.153 1.001a1 1 0 1 0 .849 1.811c.732-.344 5.593-1.708 11.045.094a1 1 0 1 0 .627-1.9 20.325 20.325 0 0 0-6.367-1.006" fill="#88c9f9"/><path d="M20.652 12.611c0 1.104-.868 1.39-2.542 1.39H5.835c-.839 0-2.479.48-2.479-1.298C3.356 2.504 9.551.797 11.722.797c3.008 0 8.93 1.55 8.93 11.814" fill="#ccd6dd"/><path d="M20.621 13.309c0-1.206-2.639-2.184-8.649-2.184s-8.649.978-8.649 2.184c0 1.207 2.64 2.184 8.65 2.184s8.648-.977 8.648-2.184" fill="#8899a6"/><path d="M11.828 10.662c-3.801 0-6.643.841-7.413 1.202a1 1 0 0 0 .849 1.811c.906-.425 6.927-2.115 13.649.105a.996.996 0 0 0 1.263-.636.998.998 0 0 0-.635-1.262 24.604 24.604 0 0 0-7.713-1.22" fill="#fff"/><path d="M29.667 20.605c0-.955-.793-1.73-1.771-1.73-.978 0-1.771.775-1.771 1.73s.793 1.729 1.771 1.729c.978 0 1.771-.774 1.771-1.73" fill="#88c9f9"/><path d="M31.667 18.605c0-.955-.793-1.73-1.771-1.73-.978 0-1.771.775-1.771 1.73s.793 1.729 1.771 1.729c.978 0 1.771-.774 1.771-1.73" fill="#88c9f9"/><path d="M29.667 17.605c0-.955-.793-1.73-1.771-1.73-.978 0-1.771.775-1.771 1.73s.793 1.729 1.771 1.729c.978 0 1.771-.774 1.771-1.73M23.074 11.047c.658-.262.974-1.021.706-1.694-.269-.674-1.019-1.007-1.678-.745-.657.26-.973 1.02-.705 1.694.268.674 1.02 1.008 1.677.745" fill="#88c9f9"/><path d="M25.001 11.876c.658-.262.974-1.021.706-1.694-.269-.674-1.02-1.008-1.678-.746-.657.262-.974 1.021-.705 1.695.269.674 1.02 1.007 1.677.745" fill="#88c9f9"/><path d="M25.142 10.224c.657-.262.973-1.021.705-1.694-.268-.674-1.02-1.007-1.678-.745-.657.26-.973 1.02-.705 1.694.269.674 1.02 1.008 1.678.745" fill="#88c9f9"/><path d="M29.75 18.875a1.125 1.125 0 1 0-2.25 0 1.125 1.125 0 0 0 2.25 0M24.792 9.916a.791.791 0 1 0-1.582 0 .791.791 0 0 0 1.582 0" fill="#bbddf5"/></g></svg>