<svg xmlns="http://www.w3.org/2000/svg" viewBox="0 0 47.5 47.5"><defs><clipPath id="a"><path d="M0 38h38V0H0v38z"/></clipPath></defs><g clip-path="url(#a)" transform="matrix(1.25 0 0 -1.25 0 47.5)"><path d="M37 12c0-5.522-8.059-10-18-10S1 6.478 1 12s8.059 10 18 10 18-4.478 18-10" fill="#939598"/><path d="M37 14c0-5.522-8.059-10-18-10S1 8.478 1 14s8.059 10 18 10 18-4.478 18-10" fill="#f1f2f2"/><path d="M33.8 14.389c0-4.202-6.626-7.611-14.8-7.611s-14.8 3.409-14.8 7.61C4.2 18.593 10.826 22 19 22s14.8-3.408 14.8-7.611" fill="#fff"/><path d="M9 9c0 3.044.417 7.208.042 13.875.6 1.376 6.146 2.472 6.625 3.792C16.954 30.213 14.458 32.583 17 35c2.05 1.949 5 2 6-1 2 2 6 1 6-2 4 1 6-3 3-6 0-1-1-9-1-11s-.208-1.792-5.208-2.792C20.792 11.208 9 9 9 9" fill="#e1e8ed"/><path d="M9 10v12s21 7 21 2.458V14L9 10z" fill="#ffac33"/><path d="M9 11v10s12.375 4.208 20 4V15L9 11z" fill="#ffd983"/><path d="M9 16v1l21 4v-1L9 16z" fill="#ffac33"/><path d="M9 23l9 9c2 0 8-1 11-5L9 23" fill="#e1e8ed"/><path d="M31 27c1 1 1 5-3 4 0 1-2 4-5 2 0 1-5 2-6 0 10-3 14-6 14-6" fill="#fff"/><path d="M18.959 26.541c-1.833.208-4.417 1.083-3.917 3.5s2.474 4.881 3.75 5.542c1.124.584 2.325.158 3.208-3.25.583-2.25 2.75-5.124-1.667-5.75-.457 0-1.374-.041-1.374-.041" fill="#dd2e44"/><path d="M19.375 31.959a.498.498 0 0 0-.4.2l-.5.667a.5.5 0 1 0 .8.599l.5-.666a.5.5 0 0 0-.4-.8M16.959 28.459a.5.5 0 0 0-.484.626l.25.957a.5.5 0 0 0 .967-.252l-.25-.958a.5.5 0 0 0-.483-.374M21.333 28.375a.496.496 0 0 0-.261.073l-.75.458a.502.502 0 0 0-.166.688.502.502 0 0 0 .688.166l.75-.458a.501.501 0 1 0-.261-.927" fill="#f4abba"/></g></svg>