<svg xmlns="http://www.w3.org/2000/svg" viewBox="0 0 47.5 47.5"><defs><clipPath id="a"><path d="M0 38h38V0H0v38z"/></clipPath><clipPath id="b"><path d="M0 38h38V0H0v38z"/></clipPath></defs><g clip-path="url(#a)" transform="matrix(1.25 0 0 -1.25 0 47.5)"><path d="M20 16.745S31.458 27.786 32.583 28.75c1.125.964-.708 2.25-2.957 2.25H7.129c-1.125 0-4.483-.73-2.796-2.417C5.537 27.38 17 16.745 17 16.745V6.622s-4.584-2.34-5.498-2.883c-.984-.562-.33-1.462.063-1.617.657-.258 2.254-1.102 6.781-1.102 4.64 0 6.202.914 6.764 1.102.217.072 1.347.932.011 1.723C22.743 5.253 20 6.622 20 6.622v10.123z" fill="#8899a6"/><path d="M33 29.558c0-1.621-6.547-2.935-14.623-2.935S3.754 27.937 3.754 29.558c0 1.622 6.547 2.935 14.623 2.935S33 31.18 33 29.558" fill="#ccd6dd"/><path d="M5.458 29.416c1.265-1.232 8.538-7.235 11.7-9.835.9-.742 2.133-.623 2.8-.123.668.5 11.168 9.583 11.168 9.583l-25.668.375z" fill="#ccd6dd"/></g><g clip-path="url(#b)" transform="matrix(1.25 0 0 -1.25 0 47.5)"><path d="M17.868 20.468c-.237.125-.05.8.249 1.328l7.448 14.518a1.1 1.1 0 1 0 1.914-1.082L18.81 21.347c-.15-.264-.673-1.02-.943-.88" fill="#662113"/><path d="M22.745 29.145c1.133-.64 1.996-2.636 1.2-4.046-.797-1.411-2.954-1.7-4.087-1.058-1.132.639-2.065 2.514-1.199 4.045.865 1.532 2.953 1.699 4.086 1.059" fill="#5c913b"/><path d="M17.797 26.239c-3.775 0-7.361.49-10.737 1.47l-.13.038a1.002 1.002 0 0 0 .556 1.922l.132-.038c6.533-1.9 13.943-1.855 22.018.132a.998.998 0 0 0 1.21-.732.999.999 0 0 0-.732-1.21c-4.288-1.055-8.403-1.582-12.317-1.582" fill="#fff"/></g></svg>