<svg xmlns="http://www.w3.org/2000/svg" viewBox="0 0 47.5 47.5"><defs><clipPath id="a"><path d="M0 38h38V0H0v38z"/></clipPath><clipPath id="b"><path d="M0 38h38V0H0v38z"/></clipPath><clipPath id="c"><path d="M12 26c-5 1-7.542-2.83-7-5 1-4 6-2 7-1 5-2 9 1 10 3 1.612 3.225-2 5-4 5-3.162 0-5-1-6-2"/></clipPath><clipPath id="d"><path d="M0 38h38V0H0v38z"/></clipPath><clipPath id="e"><path d="M6 21c-2-5 8-8 12-8s5 1 4 2c-1.414 1.414-5 2-6 3-2.737 3.284-5.316 4.265-7.176 4.265-1.539 0-2.586-.671-2.824-1.265"/></clipPath><clipPath id="f"><path d="M0 38h38V0H0v38z"/></clipPath></defs><g clip-path="url(#a)" transform="matrix(1.25 0 0 -1.25 0 47.5)"><path d="M14.037 2.184C1.794 3.988 2 16.282 2 20h34c0-1.913.087-15.77-13.125-17.918-2.042-.332-6.459-.25-8.838.102" fill="#292f33"/></g><g clip-path="url(#b)" transform="matrix(1.25 0 0 -1.25 0 47.5)"><path d="M34.388 23.753c2.467 5.574-8.331 5.254-11.035 4.382a37.877 37.877 0 0 1-4.353.253c-9.39 0-17-3.228-17-8.444 0-1.009.29-1.979.819-2.89-4.327-5.713 4.245-6.787 9.183-5.71A28.816 28.816 0 0 1 19 10.5c9.389 0 17 4.228 17 9.444 0 1.43-.59 2.704-1.612 3.81" fill="#66757f"/><path d="M34 19c0-3.866-6.716-7-15-7-8.284 0-15 3.134-15 7s6.716 7 15 7c8.284 0 15-3.134 15-7" fill="#ffcc4d"/><path d="M5 21c-.542 2.169 2 6 7 5 1 1 2.838 2 6 2 2 0 5.612-1.775 4-5-1-2-5-5-10-3-1-1-6-3-7 1" fill="#77b255"/></g><g clip-path="url(#c)" transform="matrix(1.25 0 0 -1.25 0 47.5)"><path d="M20 28c1-1 0-7-7-8s3-3 6-2 9 5 7 7-6 3-6 3" fill="#5c913b"/></g><g clip-path="url(#d)" transform="matrix(1.25 0 0 -1.25 0 47.5)"><path d="M6 21c.525 1.313 5 3 10-3 1-1 4.586-1.586 6-3 1-1 0-2-4-2S4 16 6 21" fill="#d99e82"/></g><g clip-path="url(#e)" transform="matrix(1.25 0 0 -1.25 0 47.5)"><path d="M7 17c2-1 11-3 14-1s3-1 3-2-3-5-8-3-9 3-9 4v2z" fill="#b27962"/></g><g clip-path="url(#f)" transform="matrix(1.25 0 0 -1.25 0 47.5)"><path d="M28 17.999c-.209 0-.423.034-.633.104l-3 1a1.998 1.998 0 0 0-1.264 2.529 1.997 1.997 0 0 0 2.53 1.265l3-1a1.998 1.998 0 0 0 1.264-2.529A2 2 0 0 0 28 17.999M27 15h-2a1 1 0 1 0 0 2h2a1 1 0 1 0 0-2" fill="#ffe8b6"/></g></svg>