<svg xmlns="http://www.w3.org/2000/svg" viewBox="0 0 47.5 47.5"><defs><clipPath id="a"><path d="M0 38h38V0H0v38z"/></clipPath></defs><g clip-path="url(#a)" transform="matrix(1.25 0 0 -1.25 0 47.5)"><path d="M12.626 29.512a1.413 1.413 0 0 1-.268-.395l-.008.008L1.134 3.86l.011-.011c-.208-.403.14-1.223.853-1.937C2.71 1.2 3.53.852 3.933 1.06l.01-.01L29.21 12.265l-.008.009c.148.07.282.155.395.268 1.562 1.562-.971 6.627-5.657 11.313-4.686 4.687-9.752 7.219-11.314 5.657" fill="#dd2e44"/><path d="M14 25L1.416 4.494l-.282-.635.011-.01c-.208-.404.14-1.223.853-1.937a3.97 3.97 0 0 1 .709-.557L18 20l-4 5z" fill="#ea596e"/><path d="M24.012 23.934c4.67-4.672 7.263-9.652 5.789-11.125-1.473-1.473-6.453 1.12-11.126 5.79-4.671 4.671-7.263 9.652-5.79 11.126 1.474 1.473 6.454-1.12 11.127-5.79" fill="#a0041e"/><path d="M19.59 23.39a.99.99 0 0 0-.734-.214c-.868.094-1.598.396-2.11.873-.54.505-.807 1.182-.734 1.862.128 1.192 1.324 2.286 3.363 2.065.793-.085 1.147.17 1.158.292.014.12-.277.446-1.07.532-.868.094-1.597.396-2.11.873-.54.505-.808 1.183-.734 1.862.13 1.192 1.325 2.286 3.362 2.065.578-.062.882.058 1.01.135.105.063.146.123.15.157.01.12-.276.446-1.071.532a1 1 0 0 0 .215 1.988c2.037-.22 2.973-1.542 2.844-2.735-.13-1.192-1.324-2.285-3.363-2.065-.578.063-.881-.057-1.01-.134-.103-.063-.145-.124-.15-.157-.012-.122.277-.447 1.072-.533 2.037-.22 2.973-1.542 2.844-2.735-.13-1.192-1.325-2.286-3.362-2.065-.578.062-.882-.057-1.012-.134-.103-.063-.143-.124-.147-.158-.013-.121.276-.446 1.07-.532a.998.998 0 0 0 .519-1.773" fill="#aa8dd8"/><path d="M31.661 14.143c1.973.557 3.334-.323 3.658-1.478.324-1.154-.378-2.615-2.349-3.17-.77-.215-1-.583-.97-.701.034-.118.425-.312 1.193-.094 1.972.554 3.333-.326 3.657-1.48.327-1.155-.377-2.614-2.35-3.17-.769-.216-1-.585-.967-.702.033-.117.423-.31 1.192-.095a1 1 0 1 0 .54-1.925c-1.97-.555-3.333.323-3.659 1.479-.324 1.154.38 2.613 2.353 3.169.77.217 1.001.584.967.702-.033.117-.422.312-1.19.096-1.974-.556-3.335.322-3.66 1.478-.325 1.155.378 2.614 2.352 3.17.767.215 1 .585.966.7-.034.12-.422.314-1.192.097a1 1 0 1 0-.54 1.924" fill="#77b255"/><path d="M24.001 16.84a1.001 1.001 0 0 0-.626 1.78c.218.176 5.418 4.26 12.767 3.209a.999.999 0 0 0 .848-1.131.995.995 0 0 0-1.132-.848c-6.493.922-11.187-2.754-11.233-2.791a.994.994 0 0 0-.624-.22" fill="#aa8dd8"/><path d="M6.754 21a1 1 0 0 0-.958 1.288c1.133 3.773 2.16 9.794.898 11.363-.142.178-.354.353-.842.316-.939-.071-.849-2.051-.848-2.071a1 1 0 1 0-1.994-.149c-.104 1.379.326 4.035 2.691 4.214 1.056.08 1.933-.287 2.553-1.057 2.371-2.951-.036-11.507-.543-13.192A1 1 0 0 0 6.754 21" fill="#77b255"/><path d="M28 27.5a1.5 1.5 0 1 0-3.001.001A1.5 1.5 0 0 0 28 27.5" fill="#5c913b"/><path d="M5 19a2 2 0 1 0-4.001.001A2 2 0 0 0 5 19" fill="#9266cc"/><path d="M35 17.5a1.5 1.5 0 1 0-3.001.001A1.5 1.5 0 0 0 35 17.5M26 5.5a1.5 1.5 0 1 0-3.001.001A1.5 1.5 0 0 0 26 5.5" fill="#5c913b"/><path d="M31 33a2 2 0 1 0-4.001.001A2 2 0 0 0 31 33M35 28.5a1.5 1.5 0 1 0-3.001.001A1.5 1.5 0 0 0 35 28.5M32 24.5a1.5 1.5 0 1 0-3.001.001A1.5 1.5 0 0 0 32 24.5M10 13.5a1.5 1.5 0 1 0-3.001.001A1.5 1.5 0 0 0 10 13.5" fill="#ffcc4d"/></g></svg>