<svg xmlns="http://www.w3.org/2000/svg" viewBox="0 0 47.5 47.5"><defs><clipPath id="a"><path d="M0 38h38V0H0v38z"/></clipPath></defs><g clip-path="url(#a)" transform="matrix(1.25 0 0 -1.25 0 47.5)"><path d="M37 33a4 4 0 0 1-4 4H5a4 4 0 0 1-4-4V5a4 4 0 0 1 4-4h28a4 4 0 0 1 4 4v28z" fill="#269"/><path d="M19 17c-.419 0-.809-.265-.949-.684l-3-9a1 1 0 0 1 1.898-.633l3 9A1.001 1.001 0 0 1 19 17" fill="#ffcc4d"/><path d="M19 17a1 1 0 0 1-.965-1.263L21.262 3.88a1 1 0 0 1 1.93.526l-3.228 11.856A1 1 0 0 1 19 17" fill="#ffcc4d"/><path d="M19 17a1 1 0 0 1-.621-.216l-13.25-10.5a1 1 0 0 1 1.243-1.568l13.25 10.5A1 1 0 0 1 19 17" fill="#ffcc4d"/><path d="M19.002 17c-.04 0-.077-.002-.116-.006L6.553 15.577a1 1 0 0 1 .229-1.987l12.333 1.416A1 1 0 0 1 19.002 17" fill="#ffcc4d"/><path d="M4.5 23.917a1.001 1.001 0 0 1-.43-1.902l14.5-6.917a.998.998 0 1 1 .86 1.804l-14.5 6.917a.985.985 0 0 1-.43.098" fill="#ffcc4d"/><path d="M8.332 32.167a1 1 0 0 1-.817-1.575l10.668-15.167a1 1 0 1 1 1.634 1.15L9.151 31.742a.999.999 0 0 1-.819.425" fill="#ffcc4d"/><path d="M19 17a1 1 0 0 1-.663-1.749L30.044 4.876a1.001 1.001 0 0 1 1.326 1.498L19.664 16.749A1 1 0 0 1 19 17" fill="#ffcc4d"/><path d="M19 17a1 1 0 0 1-.314-1.95l12.333-4.083a1 1 0 1 1 .629 1.899L19.314 16.95c-.104.034-.21.051-.314.051" fill="#ffcc4d"/><path d="M32.835 18.5a.977.977 0 0 1-.108-.006l-13.835-1.5a1 1 0 1 1 .216-1.988l13.833 1.5a1 1 0 0 1-.106 1.994" fill="#ffcc4d"/><path d="M19 16l8.917 6.5M19 16l7.834 13" fill="none" stroke="#ffcc4d" stroke-width="2" stroke-linecap="round" stroke-miterlimit="10"/><path d="M21 37h-4V18a2 2 0 0 1 4 0v19z" fill="#55acee"/><path d="M22 16a3 3 0 1 1-6 0 3 3 0 0 1 6 0M7.963 5.306a2.36 2.36 0 1 1-4.719-.001 2.36 2.36 0 0 1 4.719 0M33.666 5.625a2.958 2.958 0 1 1-5.915 0 2.958 2.958 0 0 1 5.915 0M23.833 4.144a1.606 1.606 0 1 1-3.212 0 1.606 1.606 0 0 1 3.212 0M5.827 23.083a1.75 1.75 0 1 1-3.5 0 1.75 1.75 0 0 1 3.5 0M10.75 31.833a2.833 2.833 0 1 1-5.666 0 2.833 2.833 0 0 1 5.666 0M35.334 17.584a2.209 2.209 0 1 1-4.418 0 2.209 2.209 0 0 1 4.418 0M28.667 29a1.75 1.75 0 1 1-3.499.001A1.75 1.75 0 0 1 28.667 29" fill="#f5f8fa"/></g></svg>