<svg xmlns="http://www.w3.org/2000/svg" viewBox="0 0 47.5 47.5"><defs><clipPath id="a"><path d="M0 38h38V0H0v38z"/></clipPath></defs><g clip-path="url(#a)" transform="matrix(1.25 0 0 -1.25 0 47.5)"><path d="M33 6.47C33 4.003 30.969 2 28.5 2S24 4.002 24 6.47v11.942C24 20.88 26.031 24 28.5 24s4.5-3.12 4.5-5.588V6.47z" fill="#77b255"/><path d="M22.456 31.412c0-2.198-1.337-3.98-2.985-3.98-1.649 0-2.986 1.782-2.986 3.98s1.337 3.98 2.986 3.98c1.648 0 2.985-1.782 2.985-3.98" fill="#ffe8b6"/><path d="M24 6.47C24 4.003 21.969 2 19.5 2S15 4.002 15 6.47v24.942C15 33.88 17.031 37 19.5 37s4.5-3.12 4.5-5.588V6.47z" fill="#77b255"/><path d="M22.456 31.412c0-2.198-1.337-3.98-2.985-3.98-1.649 0-2.986 1.782-2.986 3.98s1.337 3.98 2.986 3.98c1.648 0 2.985-1.782 2.985-3.98M31.456 18.412c0-2.2-1.337-3.98-2.985-3.98-1.649 0-2.986 1.78-2.986 3.98 0 2.198 1.337 3.98 2.986 3.98 1.648 0 2.985-1.782 2.985-3.98" fill="#ffe8b6"/><path d="M15 6.47C15 4.003 12.969 2 10.5 2S6 4.002 6 6.47v18.942C6 27.88 8.031 31 10.5 31s4.5-3.12 4.5-5.588V6.47z" fill="#77b255"/><path d="M13.456 25.412c0-2.198-1.337-3.98-2.985-3.98-1.649 0-2.986 1.782-2.986 3.98s1.337 3.98 2.986 3.98c1.648 0 2.985-1.782 2.985-3.98" fill="#ffe8b6"/><path d="M25 15a1 1 0 0 0-1-1h-9a1 1 0 1 0 0 2h9a1 1 0 0 0 1-1M25 23a1 1 0 0 0-1-1h-9a1 1 0 0 0 0 2h9a1 1 0 0 0 1-1M16 19a1 1 0 0 0-1-1H6a1 1 0 1 0 0 2h9a1 1 0 0 0 1-1" fill="#5c913b"/><path d="M36 4.5A2.5 2.5 0 0 0 33.5 2h-28a2.5 2.5 0 1 0 0 5h28A2.5 2.5 0 0 0 36 4.5" fill="#d99e82"/><path d="M32 10s-1.229.565-3.272 1.176c-.645-1.426-1.299-2.785-1.561-3.426-.52-1.27-1.125-.875-.925.169.102.532.461 2.616.737 3.729-1.987.487-4.45.909-7.162.996-.15-1.727-.402-3.219-.484-4.144-.125-1.417-1.5-1.333-1.625-.042-.067.702-.163 2.683-.26 4.171a27.18 27.18 0 0 1-6.292-1.016c.091-1.013.304-2.884.386-3.53.186-1.469-.554-1.086-.834-.291a70.3 70.3 0 0 1-1.266 3.259A24.178 24.178 0 0 1 7 10C5 9 3 7 3 6V5h33v1c0 1-2 3-4 4" fill="#5c913b"/></g></svg>