<svg xmlns="http://www.w3.org/2000/svg" viewBox="0 0 47.5 47.5"><defs><clipPath id="a"><path d="M0 38h38V0H0v38z"/></clipPath></defs><g clip-path="url(#a)" transform="matrix(1.25 0 0 -1.25 0 47.5)"><path d="M23.088 4.17c0-1.997-1.62-2.712-3.616-2.712-1.997 0-3.616.715-3.616 2.712l.904 8.136c0 1.996.715 1.807 2.712 1.807 1.997 0 2.712.189 2.712-1.807l.904-8.136z" fill="#662113"/><path d="M31.59 9.325c-6.294 5.392-8.843 13.112-12.118 13.112-3.276 0-5.824-7.72-12.118-13.112C4.71 7.06 5.969 5.748 9.594 6.011c3.233.232 6.256.965 9.878.965s6.645-.733 9.876-.965c3.627-.263 4.887 1.048 2.242 3.314" fill="#5c913b"/><path d="M29.546 11.462c-4.837 4.435-7.555 10.787-10.074 10.787-2.517 0-5.237-6.352-10.073-10.787-3.844-3.524 5.037-4.315 10.073 0 5.034-4.315 13.917-3.524 10.074 0" fill="#3e721d"/><path d="M29.546 15.055c-4.837 4.144-7.555 10.077-10.074 10.077-2.517 0-5.237-5.933-10.073-10.077-3.844-3.292 5.037-4.031 10.073 0 5.034-4.031 13.917-3.292 10.074 0" fill="#5c913b"/><path d="M27.336 17.997c-3.775 3.235-5.897 7.868-7.864 7.868-1.966 0-4.09-4.633-7.865-7.868-3-2.57 3.933-3.146 7.865 0 3.93-3.146 10.865-2.57 7.864 0" fill="#3e721d"/><path d="M27.336 20.689c-3.775 3.235-5.897 7.867-7.864 7.867-1.966 0-4.09-4.632-7.865-7.867-3-2.571 3.933-3.147 7.865 0 3.93-3.147 10.865-2.571 7.864 0" fill="#5c913b"/><path d="M25.818 23.08c-3.047 2.61-4.76 6.349-6.347 6.349-1.586 0-3.299-3.74-6.347-6.35-2.422-2.074 3.174-2.54 6.347 0 3.173-2.54 8.77-2.074 6.347 0" fill="#3e721d"/><path d="M25.818 25.106c-3.047 2.61-4.76 6.349-6.347 6.349-1.586 0-3.299-3.739-6.347-6.349-2.422-2.075 3.174-2.54 6.347 0 3.173-2.54 8.77-2.075 6.347 0" fill="#5c913b"/><path d="M24.3 28.089c-2.316 1.986-3.62 4.83-4.828 4.83-1.207 0-2.511-2.844-4.83-4.83-1.842-1.58 2.415-1.933 4.83 0 2.414-1.933 6.673-1.58 4.829 0" fill="#3e721d"/><path d="M24.3 29.169C21.985 31.155 20.68 34 19.473 34c-1.207 0-2.511-2.846-4.83-4.832-1.842-1.58 2.415-1.933 4.83 0 2.414-1.933 6.673-1.58 4.829 0" fill="#5c913b"/><path d="M19 24.958a1.5 1.5 0 1 0-2.999-.001 1.5 1.5 0 0 0 2.999.001M23 12a2 2 0 1 0-4.001.001A2 2 0 0 0 23 12" fill="#ffcc4d"/><path d="M26 21.5a2.5 2.5 0 1 0-5 0 2.5 2.5 0 0 0 5 0M13 11a2 2 0 1 0-4.001.001A2 2 0 0 0 13 11" fill="#dd2e44"/><path d="M17 18a2 2 0 1 0-4.001.001A2 2 0 0 0 17 18M29 14a2 2 0 1 0-4.001.001A2 2 0 0 0 29 14" fill="#a6d388"/><path d="M20.379 35.321c.143-.275.512-.549.817-.609l1.379-.269c.305-.059.377-.29.159-.512l-.983-1.005c-.217-.222-.365-.656-.326-.965l.17-1.394c.038-.308-.16-.448-.44-.31l-1.255.625c-.28.138-.74.144-1.021.012l-1.273-.594c-.283-.13-.476.014-.431.322l.205 1.39c.046.307-.09.745-.302.973l-.958 1.028c-.212.227-.135.457.172.51l1.385.233c.307.051.68.316.832.588l.682 1.23c.15.271.393.268.537-.007l.65-1.246z" fill="#ffac33"/></g></svg>