<svg xmlns="http://www.w3.org/2000/svg" viewBox="0 0 47.5 47.5"><defs><clipPath id="a"><path d="M0 38h38V0H0v38z"/></clipPath></defs><g clip-path="url(#a)" transform="matrix(1.25 0 0 -1.25 0 47.5)"><path d="M37 5a4 4 0 0 0-4-4H5a4 4 0 0 0-4 4v28a4 4 0 0 0 4 4h28a4 4 0 0 0 4-4V5z" fill="#269"/><path d="M19 34.751L22.751 31H28v-5.249L31.751 22 28 18.249V13h-5.249L19 9.249 15.249 13H10v5.249L6.249 22 10 25.751V31h5.249L19 34.751z" fill="#55acee"/><path d="M19 32.406l2.234-5.069 4.852 1.417-1.418-4.85 6.486-2.236-6.486-2.235 1.418-4.85L21.234 16 19 3.845 16.765 16l-4.85-1.417 1.417 4.85-6.487 2.235 6.487 2.235-1.417 4.851 4.85-1.417L19 32.407z" fill="#ffd983"/><path d="M22 22a3 3 0 1 0-6 0 3 3 0 0 0 6 0" fill="#f5f8fa"/><path d="M10.999 24a.996.996 0 0 0-.554.168l-6 4a1 1 0 0 0 1.11 1.664l6-4A1 1 0 0 0 10.999 24M27.001 24a1 1 0 0 0-.556 1.832l6 4a1 1 0 1 0 1.11-1.664l-6-4a.996.996 0 0 0-.554-.168M5.001 13a1 1 0 0 0-.556 1.832l6 4a1.001 1.001 0 0 0 1.11-1.664l-6-4A1.004 1.004 0 0 0 5.001 13M33.999 13a.988.988 0 0 0-.495.132l-7 4a.998.998 0 0 0-.372 1.364.998.998 0 0 0 1.364.372l7-4A.998.998 0 0 0 33.999 13M11 3a1 1 0 0 0-.913 1.406l4 9a1 1 0 1 0 1.826-.812l-4-9A1 1 0 0 0 11 3M27.001 3a1 1 0 0 0-.915.594l-4 9a1 1 0 0 0 1.828.812l4-9A1 1 0 0 0 27.001 3M16.001 29a1 1 0 0 0-.896.553l-2 4a1.001 1.001 0 0 0 1.79.894l2-4A1.001 1.001 0 0 0 16.001 29M21.999 29a1.001 1.001 0 0 0-.894 1.447l2 4a1 1 0 1 0 1.79-.894l-2-4a1 1 0 0 0-.896-.553" fill="#ffcc4d"/></g></svg>