<svg xmlns="http://www.w3.org/2000/svg" viewBox="0 0 47.5 47.5"><defs><clipPath id="a"><path d="M0 38h38V0H0v38z"/></clipPath><clipPath id="b"><path d="M25 18c-2.209 0-4-5.791-4-8V5c0-2.209 1.791-3 4-3h7c2.209 0 4 .791 4 3v5c0 2.209-1.791 8-4 8h-7z"/></clipPath><clipPath id="c"><path d="M0 38h38V0H0v38z"/></clipPath><clipPath id="d"><path d="M6 18c-2.209 0-4-5.791-4-8V5c0-2.209 1.791-3 4-3h7c2.209 0 4 .791 4 3v5c0 2.209-1.791 8-4 8H6z"/></clipPath><clipPath id="e"><path d="M0 38h38V0H0v38z"/></clipPath></defs><g clip-path="url(#a)" transform="matrix(1.25 0 0 -1.25 0 47.5)"><path d="M36 5c0-2.209-1.791-3-4-3h-7c-2.209 0-4 .791-4 3v5c0 2.209 1.791 8 4 8h7c2.209 0 4-5.791 4-8V5z" fill="#aa8dd8"/></g><g clip-path="url(#b)" transform="matrix(1.25 0 0 -1.25 0 47.5)"><path d="M29 8v4c3 1 3 3 3 5h-7c0-2 0-4 3-5V8c0-1-1-3-3-3 0-11.851 2.149-7.223 3.416-5.521C29.648-2.983 32-12.709 32 5c-2 0-3 2-3 3" fill="#744eaa"/></g><g clip-path="url(#c)" transform="matrix(1.25 0 0 -1.25 0 47.5)"><path d="M37 25v-6c0-3-6.595 0-8.5 0-2.1 0-8.5-3-8.5 0v6c0 4.418 3.806 8 8.5 8s8.5-3.582 8.5-8" fill="#292f33"/><path d="M35 22c0-3-1-7-6.5-7S22 18 22 22h13z" fill="#e1e8ed"/><path d="M30 17.5c0-.276-.672-.5-1.5-.5s-1.5.224-1.5.5.672.5 1.5.5 1.5-.224 1.5-.5" fill="#a0041e"/><path d="M23.134 20.639c.905.146 2.457.47 3.318-.318.359-.261.099-1.003-.571-.684-.67.318-2.185.403-2.791.437-.605.034-.615.459.044.565M34.117 20.639c-.906.146-2.457.47-3.318-.318-.358-.261-.098-1.003.572-.684.67.318 2.184.403 2.79.437.605.034.615.459-.044.565M33 33c0-1.657-2.015-3-4.5-3S24 31.343 24 33s2.015 3 4.5 3 4.5-1.343 4.5-3" fill="#292f33"/><path d="M31.705 32.949l-2.965-2.015-3.195 2.015c-1.824 1.23-3.545.438-3.545-1.762v-.291c0-2.2 1.766-3.063 3.644-1.92 0 0 1.872 1.019 3.103 1.662 1.204-.643 2.858-1.661 2.858-1.661 1.88-1.144 3.395-.281 3.395 1.919v.29c0 2.2-1.47 2.994-3.295 1.763" fill="#aa8dd8"/><path d="M24 7a1 1 0 1 0-2 0 1 1 0 1 0 2 0M27 11a1 1 0 1 0-2 0 1 1 0 1 0 2 0M33 8a1 1 0 1 0-2 0 1 1 0 1 0 2 0M34 12a1 1 0 1 0-2 0 1 1 0 1 0 2 0" fill="#cbb7ea"/><path d="M17 5c0-2.209-1.791-3-4-3H6c-2.209 0-4 .791-4 3v5c0 2.209 1.791 8 4 8h7c2.209 0 4-5.791 4-8V5z" fill="#dd2e44"/></g><g clip-path="url(#d)" transform="matrix(1.25 0 0 -1.25 0 47.5)"><path d="M10 8v4c3 1 3 3 3 5H6c0-2 0-4 3-5V8c0-1-1-3-3-3C6-6.851 8.149-2.223 9.416-.521 10.649-2.983 13-12.709 13 5c-2 0-3 2-3 3" fill="#a0041e"/></g><g clip-path="url(#e)" transform="matrix(1.25 0 0 -1.25 0 47.5)"><path d="M18 25v-8c0-3-1.999 2-8.499 2S1 14 1 17l.002 8c0 4.418 3.805 8 8.499 8C14.195 33 18 29.418 18 25" fill="#292f33"/><path d="M16 22c0-3-1-7-6.5-7S3 18 3 22h13z" fill="#e1e8ed"/><path d="M12 33.5c0-1.933-1.119-3.5-2.5-3.5C8.12 30 7 31.567 7 33.5S8.12 37 9.5 37c1.381 0 2.5-1.567 2.5-3.5" fill="#292f33"/><path d="M11 17.5c0-.276-.671-.5-1.5-.5s-1.5.224-1.5.5.671.5 1.5.5 1.5-.224 1.5-.5" fill="#a0041e"/><path d="M6 12a1 1 0 1 0-2 0 1 1 0 0 0 2 0M16 7a1 1 0 1 0-2 0 1 1 0 0 0 2 0M13 11a1 1 0 1 0-2 0 1 1 0 0 0 2 0M8 8a1 1 0 1 0-2 0 1 1 0 0 0 2 0" fill="#f4abba"/><path d="M4.134 20.639c.906.146 2.457.47 3.318-.318.358-.261.099-1.003-.571-.684-.67.318-2.185.403-2.79.437-.606.034-.616.459.043.565M15.117 20.639c-.906.146-2.457.47-3.318-.318-.358-.261-.099-1.003.571-.684.67.318 2.185.403 2.79.437.606.034.616.459-.043.565" fill="#292f33"/></g></svg>