<svg xmlns="http://www.w3.org/2000/svg" viewBox="0 0 47.5 47.5"><defs><clipPath id="a"><path d="M0 38h38V0H0v38z"/></clipPath></defs><g clip-path="url(#a)" transform="matrix(1.25 0 0 -1.25 0 47.5)"><path d="M27 28c-3.591 0-6.27 1.648-7.989 4.905C17.385 29.685 14.993 28 12 28a1 1 0 0 0 0 2c2.729 0 4.765 1.957 6.051 5.816a1 1 0 0 0 1.898 0C21.271 31.848 23.512 30 27 30a1 1 0 1 0 0-2" fill="#292f33"/><path d="M15.604 27.346c3.364-3.366.498-5.954-2.868-9.319-3.365-3.365-5.953-6.232-9.319-2.868a8.616 8.616 0 0 0 0 12.187 8.616 8.616 0 0 0 12.187 0" fill="#ffac33"/><path d="M16.435 26.028c1.584-1.585.25-5.486-2.983-8.717-3.23-3.232-7.132-4.57-8.717-2.983-1.584 1.584-.248 5.486 2.982 8.717 3.232 3.23 7.134 4.567 8.718 2.983" fill="#be1931"/><path d="M22.299 27.346c-3.363-3.366-.498-5.954 2.868-9.319 3.365-3.365 5.954-6.232 9.32-2.868a8.618 8.618 0 0 1-12.188 12.187" fill="#ffac33"/><path d="M21.469 26.028c-1.585-1.585-.25-5.486 2.982-8.717 3.23-3.232 7.133-4.57 8.717-2.983 1.584 1.584.248 5.486-2.982 8.717-3.231 3.23-7.133 4.567-8.717 2.983" fill="#be1931"/><path d="M23.41 18.78a1 1 0 0 0 .734.214c.868-.094 1.598-.396 2.11-.873.541-.505.806-1.183.734-1.863-.129-1.19-1.324-2.285-3.363-2.065-.793.085-1.147-.17-1.158-.29-.014-.122.277-.447 1.07-.533.867-.094 1.598-.396 2.11-.873.54-.505.808-1.183.734-1.863-.129-1.192-1.325-2.285-3.362-2.065-.578.063-.882-.057-1.01-.134-.105-.063-.146-.124-.15-.158-.01-.12.276-.445 1.071-.53a1 1 0 0 0-.215-1.989c-2.037.218-2.973 1.542-2.844 2.735.13 1.192 1.324 2.285 3.363 2.065.578-.063.881.057 1.01.134.103.063.145.123.148.157.014.121-.275.447-1.07.533-2.037.22-2.973 1.542-2.844 2.735.13 1.192 1.325 2.286 3.362 2.064.578-.06.882.058 1.011.135.104.063.145.123.15.157.011.121-.279.447-1.07.533a.998.998 0 0 0-.52 1.773" fill="#aa8dd8"/><path d="M16.266 1.015c-1.973-.557-3.334.322-3.658 1.477-.324 1.154.378 2.615 2.35 3.169.77.216 1 .584.97.702-.035.119-.426.312-1.194.095-1.972-.555-3.333.325-3.657 1.48-.327 1.155.377 2.614 2.35 3.169.77.217 1.001.586.967.703-.033.116-.423.31-1.192.095a1 1 0 1 0-.54 1.924c1.97.555 3.333-.322 3.66-1.478.323-1.154-.38-2.613-2.354-3.17-.769-.216-1-.584-.967-.701.033-.117.422-.313 1.191-.096 1.973.556 3.334-.322 3.66-1.48.324-1.153-.379-2.612-2.353-3.168-.767-.215-.999-.586-.966-.701.034-.12.422-.313 1.192-.097a.998.998 0 0 0 1.233-.691.998.998 0 0 0-.692-1.232" fill="#77b255"/><path d="M2 9.5a1.5 1.5 0 1 0 3.001-.001A1.5 1.5 0 0 0 2 9.5" fill="#5c913b"/><path d="M6 6a2 2 0 1 0 4.001-.001A2 2 0 0 0 6 6M29 10a2 2 0 1 0 4.001-.001A2 2 0 0 0 29 10" fill="#9266cc"/><path d="M25 5.5a1.5 1.5 0 1 0 3.001-.001A1.5 1.5 0 0 0 25 5.5M17 17.5a1.5 1.5 0 1 0 3.001-.001A1.5 1.5 0 0 0 17 17.5" fill="#5c913b"/><path d="M6 14a2 2 0 1 0 4.001-.001A2 2 0 0 0 6 14M27 20.5a1.5 1.5 0 1 0 3.001-.001A1.5 1.5 0 0 0 27 20.5M12 22.5a1.5 1.5 0 1 0 3.001-.001A1.5 1.5 0 0 0 12 22.5" fill="#ffcc4d"/></g></svg>