<svg xmlns="http://www.w3.org/2000/svg" viewBox="0 0 47.5 47.5"><defs><clipPath id="a"><path d="M0 38h38V0H0v38z"/></clipPath></defs><g clip-path="url(#a)" transform="matrix(1.25 0 0 -1.25 0 47.5)"><path d="M34 6c0-2.2-1.8-4-4-4H8C5.8 2 4 3.8 4 6v17c0 2.2 1.8 4 4 4h22c2.2 0 4-1.8 4-4V6z" fill="#fdd888"/><path d="M37 26c0-2.2-1.8-4-4-4H5c-2.2 0-4 1.8-4 4s1.8 4 4 4h28c2.2 0 4-1.8 4-4" fill="#fdd888"/><path d="M34 20H4v2h30v-2z" fill="#fcab40"/><path d="M20 34h-2a3 3 0 0 1-3-3V2h8v29a3 3 0 0 1-3 3" fill="#da2f47"/><path d="M17 30c1.1 0 1.263.516.361 1.147l-6.722 4.706a1.795 1.795 0 0 1-2.631-.589l-2.016-3.528C5.446 30.781 5.9 30 7 30h10zM21 30c-1.1 0-1.263.516-.361 1.147l6.722 4.706a1.795 1.795 0 0 0 2.631-.589l2.016-3.528C32.554 30.781 32.1 30 31 30H21z" fill="#da2f47"/></g></svg>