<svg xmlns="http://www.w3.org/2000/svg" viewBox="0 0 47.5 47.5"><defs><clipPath id="a"><path d="M0 38h38V0H0v38z"/></clipPath></defs><g clip-path="url(#a)" transform="matrix(1.25 0 0 -1.25 0 47.5)"><path d="M28.999 1a1 1 0 0 0-.969.758c-.036.136-.926 3.435-4.272 4.272C19.054 7.206 19 13.723 19 14a1 1 0 0 0 .998.999c.554-.034 1-.445 1.002-.997 0-.053.054-5.234 3.242-6.032 4.53-1.132 5.682-5.54 5.728-5.728A1 1 0 0 0 28.999 1" fill="#fcab40"/><path d="M19 12c-1.1 0-1.598.805-1.105 1.789l1.21 2.422c.493.984 1.297.984 1.79 0l1.21-2.422C22.598 12.805 22.1 12 21 12h-2z" fill="#bb1a34"/><path d="M29 28c0-6-7-12-9-12s-9 6-9 12c0 5.799 4.582 9 9 9s9-3.201 9-9" fill="#bb1a34"/><path d="M21 15h-2a1 1 0 1 0 0 2h2a1 1 0 1 0 0-2" fill="#fcab40"/></g></svg>