<svg xmlns="http://www.w3.org/2000/svg" viewBox="0 0 47.5 47.5"><defs><clipPath id="a"><path d="M0 38h38V0H0v38z"/></clipPath><clipPath id="b"><path d="M11 16c-2.209 0-3-1.791-3-4V8c0-2.209.791-4 3-4h25c2.209 0-4 3.791-4 6s6.209 6 4 6H11z"/></clipPath><clipPath id="c"><path d="M0 38h38V0H0v38z"/></clipPath><clipPath id="d"><path d="M11 32c-2.209 0-3-1.791-3-4v-4c0-2.209.791-4 3-4h25c2.209 0-4 3.791-4 6s6.209 6 4 6H11z"/></clipPath></defs><path d="M7.5 46.25H5V5h2.5v41.25z" fill="#ccd6dd"/><g clip-path="url(#a)" transform="matrix(1.25 0 0 -1.25 0 47.5)"><path d="M8 34a3 3 0 1 0-6 0 3 3 0 0 0 6 0" fill="#f4900c"/><path d="M10 9H5a1 1 0 1 0 0 2h5a1 1 0 1 0 0-2" fill="#66757f"/><path d="M28 15c0-1.656-2.463-3-5.5-3-3.038 0-5.5 1.344-5.5 3s.462 4 3.5 4c3.037 0 7.5-2.344 7.5-4" fill="#dd2e44"/><path d="M32 10c0-2.209 6.209-6 4-6H11C8.791 4 8 5.791 8 8v4c0 2.209.791 4 3 4h25c2.209 0-4-3.791-4-6" fill="#dd2e44"/><path d="M16 12a3 3 0 1 0-6 0 3 3 0 0 0 6 0" fill="#fff"/><path d="M14 12.5a1.5 1.5 0 1 0-3 0 1.5 1.5 0 0 0 3 0"/></g><g clip-path="url(#b)" transform="matrix(1.25 0 0 -1.25 0 47.5)"><path d="M16 17c2-2 7-7 0-14 4-1 10-1.458 16-1 6 .458 6 4.75 6 7.209C38 11.666 44 17 37 18s-21-1-21-1" fill="#f4abba"/></g><g clip-path="url(#c)" transform="matrix(1.25 0 0 -1.25 0 47.5)"><path d="M10 25H5a1 1 0 0 0 0 2h5a1 1 0 0 0 0-2" fill="#66757f"/><path d="M28 31c0-1.657-2.463-3-5.5-3-3.038 0-5.5 1.343-5.5 3s.462 4 3.5 4c3.037 0 7.5-2.343 7.5-4" fill="#55acee"/><path d="M32 26c0-2.209 6.209-6 4-6H11c-2.209 0-3 1.791-3 4v4c0 2.209.791 4 3 4h25c2.209 0-4-3.791-4-6" fill="#55acee"/><path d="M16 28a3 3 0 1 0-6 0 3 3 0 0 0 6 0" fill="#fff"/><path d="M14 28.5a1.5 1.5 0 1 0-2.999-.001A1.5 1.5 0 0 0 14 28.5"/></g><g clip-path="url(#d)" transform="matrix(1.25 0 0 -1.25 0 47.5)"><path d="M16 33c2-2 7-7 0-14 4-1 10-1.458 16-1 6 .458 6 4.75 6 7.208C38 27.667 44 33 37 34s-21-1-21-1" fill="#bbddf5"/></g></svg>