<svg xmlns="http://www.w3.org/2000/svg" viewBox="0 0 47.5 47.5"><defs><clipPath id="a"><path d="M0 38h38V0H0v38z"/></clipPath></defs><g clip-path="url(#a)" transform="matrix(1.25 0 0 -1.25 0 47.5)"><path d="M34.83 19.273c-.492-1.981-1.377-2.514-3.357-2.022l-11.655 2.887c-1.98.49-.499 1.827-.008 3.808l1.555 6.276c.491 1.98-.195 3.855 1.785 3.364l11.656-2.888c1.98-.491 2.514-1.376 2.023-3.357l-2-8.068z" fill="#eee"/><path d="M15.199 3.076a.923.923 0 0 0-.897 1.145L21.91 35.14a.923.923 0 1 0 1.793-.44l-7.608-30.92a.923.923 0 0 0-.896-.703" fill="#99aab5"/><path d="M31.347 24.418a3.232 3.232 0 1 0-6.275 1.555 3.232 3.232 0 0 0 6.275-1.555" fill="#be1931"/><path d="M3.37 19.273c.49-1.981 1.374-2.514 3.355-2.022l11.655 2.887c1.98.49.5 1.827.008 3.808l-1.556 6.276c-.49 1.98.196 3.855-1.785 3.364L3.392 30.698c-1.98-.491-2.514-1.376-2.023-3.357l2-8.068z" fill="#eee"/><path d="M22.999 3.076a.924.924 0 0 0-.896.703L14.495 34.7a.924.924 0 0 0 1.794.44l7.607-30.918a.922.922 0 0 0-.897-1.145" fill="#99aab5"/><path d="M6.852 24.418a3.233 3.233 0 1 1 6.276 1.555 3.233 3.233 0 0 1-6.276-1.555" fill="#be1931"/></g></svg>