<svg xmlns="http://www.w3.org/2000/svg" viewBox="0 0 47.5 47.5"><defs><clipPath id="a"><path d="M0 38h38V0H0v38z"/></clipPath><clipPath id="b"><path d="M3 33.308V19.81c0-4.499 11.375.9 14.974 4.499 3.6 3.6-.063 5.399-.063 6.299 0 .646-7.692 5.47-12.027 5.471-1.701 0-2.884-.742-2.884-2.771"/></clipPath><clipPath id="c"><path d="M0 38h38V0H0v38z"/></clipPath><clipPath id="d"><path d="M20.257 30.608c0-.9-3.495-2.699.105-6.299C23.961 20.71 35 15.311 35 19.81v13.498c0 2.029-1.17 2.771-2.852 2.771-4.286-.001-11.891-4.825-11.891-5.471"/></clipPath><clipPath id="e"><path d="M0 38h38V0H0v38z"/></clipPath></defs><g clip-path="url(#a)" transform="matrix(1.25 0 0 -1.25 0 47.5)"><path d="M24 1a.998.998 0 0 0-.707.293C20.95 3.635 17 21.104 17 23c0 .282.101 1.687 2.094 1.687 2.113 0 5.878-1.587 6.3-1.768A.999.999 0 0 0 26 22c0-1.489 4.406-10.733 7.857-16.485a1 1 0 0 0-1.304-1.41l-5.258 2.629c-.441-.725-.931-1.868-1.376-2.906-.333-.778-.678-1.582-1.024-2.275A1 1 0 0 0 24 1" fill="#dd2e44"/><path d="M13 1a1.002 1.002 0 0 0-.895.553c-.346.693-.691 1.497-1.024 2.275-.445 1.038-.935 2.181-1.376 2.906L4.447 4.105a1 1 0 0 0-1.304 1.41C6.594 11.267 11 20.511 11 22c0 .4.238.762.606.919.422.181 4.187 1.768 6.3 1.768C19.899 24.687 20 23.282 20 23c0-1.896-3.951-19.365-6.293-21.707A1 1 0 0 0 13 1" fill="#dd2e44"/><path d="M3 33.308V19.81c0-4.499 11.375.9 14.974 4.5 3.6 3.6-.063 5.4-.063 6.3 0 .9-14.911 9.898-14.911 2.7" fill="#dd2e44"/></g><g clip-path="url(#b)" transform="matrix(1.25 0 0 -1.25 0 47.5)"><path d="M19.9 25.209c-13.5 0-17.098-5.399-17.098-7.199 0-1.8 9.899-5.4 12.598-2.699 2.7 2.699 4.5 9.898 4.5 9.898" fill="#a0041e"/></g><g clip-path="url(#c)" transform="matrix(1.25 0 0 -1.25 0 47.5)"><path d="M35 33.308V19.81c0-4.499-10.99.9-14.59 4.5-3.599 3.6-.129 5.4-.129 6.3 0 .9 14.719 9.898 14.719 2.7" fill="#dd2e44"/></g><g clip-path="url(#d)" transform="matrix(1.25 0 0 -1.25 0 47.5)"><path d="M18.77 25.209c13.5 0 17.1-5.399 17.1-7.199 0-1.8-9.9-5.4-12.6-2.699-2.7 2.699-4.5 9.898-4.5 9.898" fill="#a0041e"/></g><g clip-path="url(#e)" transform="matrix(1.25 0 0 -1.25 0 47.5)"><path d="M23 25.6a3.6 3.6 0 0 0-3.599-3.6h-1.802A3.6 3.6 0 0 0 14 25.6v3.8a3.599 3.599 0 0 0 3.599 3.6h1.802A3.599 3.599 0 0 0 23 29.4v-3.8z" fill="#ea596e"/></g></svg>