<svg xmlns="http://www.w3.org/2000/svg" viewBox="0 0 47.5 47.5"><defs><clipPath id="a"><path d="M0 38h38V0H0v38z"/></clipPath></defs><g clip-path="url(#a)" transform="matrix(1.25 0 0 -1.25 0 47.5)"><path d="M6 16c0-2.209-1.119-4-2.5-4S1 13.791 1 16s1.119 4 2.5 4S6 18.209 6 16" fill="#d79e84"/><path d="M4 18.438c0 8.526 5.373 15.438 12 15.438s12-6.912 12-15.438C28 9.912 22.627 3 16 3S4 9.912 4 18.438" fill="#d79e84"/><path d="M21 37c-.249 0-.478-.007-.713-.012-.097.002-.19.012-.287.012-10 0-17-4.582-17-9s6.373-4 13-4c4.442 0 7.648 0 9.966.086L26 24l6-15h2s.343 3.055 1 7c1 6 .533 21-14 21" fill="#dd2e44"/><path d="M31 16c0-2.209-1.119-4-2.5-4S26 13.791 26 16s1.119 4 2.5 4 2.5-1.791 2.5-4" fill="#d79e84"/><path d="M11 16a1 1 0 0 0-1 1v2a1 1 0 0 0 2 0v-2a1 1 0 0 0-1-1M21 16a1 1 0 0 0-1 1v2a1 1 0 1 0 2 0v-2a1 1 0 0 0-1-1" fill="#662113"/><path d="M17 11h-2a1 1 0 1 0 0 2h2a1 1 0 1 0 0-2" fill="#b7755e"/><path d="M28 12c0 2-2.293.707-3 0-1-1-3-3-5-2-2.828 1.414-4 1-4 1s-1.171.414-4-1c-2-1-4 1-5 2-.707.707-3 2-3 0s1-2 1-2C4 8 6 7 6 7c0-3 3-3 3-3 0-3 4-2 4-2 1-1 3-1 3-1s2 0 3 1c0 0 4-1 4 2 0 0 3 0 3 3 0 0 2 1 1 3 0 0 1 0 1 2" fill="#e6e7e8"/><path d="M16 9c7 0 4-2 0-2s-7 2 0 2" fill="#d99e82"/><path d="M2 23c0 2.209.896 4 2 4s2-1.791 2-4-.896-4-2-4-2 1.791-2 4M25 23c0 2.209.896 4 2 4s2-1.791 2-4-.896-4-2-4-2 1.791-2 4" fill="#d1d3d4"/><path d="M29 8a4 4 0 1 1 8 0 4 4 0 0 1-8 0M30 25a2 2 0 0 0-2-2H3a2 2 0 0 0-2 2v1a2 2 0 0 0 2 2h25a2 2 0 0 0 2-2v-1z" fill="#f1f2f2"/></g></svg>