<svg xmlns="http://www.w3.org/2000/svg" viewBox="0 0 47.5 47.5"><defs><clipPath id="a"><path d="M0 38h38V0H0v38z"/></clipPath></defs><g clip-path="url(#a)" transform="matrix(1.25 0 0 -1.25 0 47.5)"><path d="M18 1c-1.32 0-9.241.826-10.707 2.293a1 1 0 0 0 .177 1.555c4.563 2.852 6.825 7.968 6.541 14.796A9.422 9.422 0 0 0 14 20a1 1 0 0 0 1 1h9a1 1 0 0 0 .997-.923c.841-10.931-2.468-15.783-3.93-17.361C20.043 1.609 18.954 1 18 1" fill="#99aab5"/><path d="M19 19a1 1 0 0 0-1 1v3a1 1 0 0 0 2 0v-3a1 1 0 0 0-1-1" fill="#3e721d"/><path d="M27 27c0-4.418-3.582-5-8-5s-8 .582-8 5a8 8 0 0 0 16 0" fill="#77b255"/><path d="M19 33a1 1 0 0 0-1 1v2a1 1 0 0 0 2 0v-2a1 1 0 0 0-1-1" fill="#3e721d"/><path d="M21 16a2 2 0 1 0-4.001.001A2 2 0 0 0 21 16M20 10a2 2 0 1 0-4.001.001A2 2 0 0 0 20 10M17 4.5c0-.828-.896-1.5-2-1.5s-2 .672-2 1.5.896 1.5 2 1.5 2-.672 2-1.5" fill="#fff"/></g></svg>