<svg xmlns="http://www.w3.org/2000/svg" viewBox="0 0 47.5 47.5"><defs><clipPath id="a"><path d="M0 38h38V0H0v38z"/></clipPath><clipPath id="b"><path d="M5 37a4 4 0 0 1-4-4V5a4 4 0 0 1 4-4h28a4 4 0 0 1 4 4v28a4 4 0 0 1-4 4H5z"/></clipPath></defs><g clip-path="url(#a)" transform="matrix(1.25 0 0 -1.25 0 47.5)"><path d="M37 5a4 4 0 0 0-4-4H5a4 4 0 0 0-4 4v28a4 4 0 0 0 4 4h28a4 4 0 0 0 4-4V5z" fill="#269"/></g><g clip-path="url(#b)" transform="matrix(1.25 0 0 -1.25 0 47.5)"><path d="M10 21a1.002 1.002 0 0 0-.895.553c-1.006 2.013-2.259 4.519.063 8.002 1.984 2.976 4.367 4.825 6.22 4.825C16.65 34.38 18 33.492 18 31a.997.997 0 0 0-.293-.707c-.697-.697-4.512-5.7-6.907-8.893a1 1 0 0 0-.8-.4M13 13a1 1 0 0 0-.895.553c-1.366 2.733-1.029 5.216 1.095 8.047 1.99 2.653 3.356 3.785 4.566 3.785C20 25.385 20 22.084 20 21a.997.997 0 0 0-.293-.707c-.766-.766-4.219-4.87-5.939-6.934A1.003 1.003 0 0 0 13 13" fill="#ffcc4d"/><path d="M5 0a1 1 0 0 0-1 1c0 11.875 5.076 23.49 14.293 32.707a.999.999 0 1 0 1.414-1.414C10.868 23.454 6 12.341 6 1a1 1 0 0 0-1-1" fill="#77b255"/><path d="M6 0h-.026A.98.98 0 0 0 5 .988c0 2.42 8.299 17.76 17.515 22.88a.998.998 0 0 0 .971-1.743C14.824 17.312 7.102 2.836 7 .98 6.97.448 6.53 0 6 0" fill="#77b255"/><path d="M3.999 0a1 1 0 0 0-.983.822l-.02.111C2.104 5.847.424 18.167 4.086 26.406a1 1 0 0 0 1.828-.812c-3.436-7.731-1.809-19.573-.95-24.305l.02-.111A1 1 0 0 0 3.999 0" fill="#77b255"/><path d="M2.001 13a1 1 0 0 0-.896.553 30.89 30.89 0 0 0-.527 1.15c-.418.945-1.526 3.446-2.162 3.642.003-.023-.21-.17-.521-.792a1.002 1.002 0 0 0-1.342-.448c-.494.248-.695.675-.448 1.169.63 1.26 1.411 1.726 2.321 1.726h.046c1.814 0 2.941-2.415 3.935-4.659.181-.411.345-.695.488-.98.247-.494.046-1.051-.448-1.299-.143-.071-.296-.062-.446-.062M19 10a1 1 0 0 0-1 1c0 2.023-.489 2.47-.639 2.558-.609.363-2.173-.503-3.107-1.02-.291-.16-.563-.31-.807-.433a1.001 1.001 0 0 0-.894 1.79c.222.111.47.248.735.394 1.476.815 3.499 1.929 5.089.991C19.469 14.636 20 13.236 20 11a1 1 0 0 0-1-1" fill="#77b255"/><path d="M24 29.5a5.5 5.5 0 1 1 11 0 5.5 5.5 0 0 1-11 0M24 6.5a2.5 2.5 0 1 1 5 0 2.5 2.5 0 0 1-5 0" fill="#e1e8ed"/><path d="M20 6.5a2.5 2.5 0 1 1 5 0 2.5 2.5 0 0 1-5 0M28 6.5a2.5 2.5 0 1 1 5 0 2.5 2.5 0 0 1-5 0" fill="#e1e8ed"/><path d="M26 10.5a2.5 2.5 0 1 1 5 0 2.5 2.5 0 0 1-5 0" fill="#e1e8ed"/><path d="M22 10.5a2.5 2.5 0 1 1 5 0 2.5 2.5 0 0 1-5 0" fill="#e1e8ed"/><path d="M24 14.5a2.5 2.5 0 1 1 5 0 2.5 2.5 0 0 1-5 0" fill="#e1e8ed"/><path d="M19 5h15V1H19v4z" fill="#c1694f"/></g></svg>