<svg xmlns="http://www.w3.org/2000/svg" viewBox="0 0 47.5 47.5"><defs><clipPath id="a"><path d="M0 38h38V0H0v38z"/></clipPath><clipPath id="b"><path d="M1.963 36.248h34.074V9.641H1.963v26.607z"/></clipPath></defs><g clip-path="url(#a)" transform="matrix(1.25 0 0 -1.25 0 47.5)"><path d="M25 23H13s-5-6-5-10S19 2 19 2s11 7 11 11-5 10-5 10" fill="#292f33"/><path d="M20.64 35.72c-.901.704-2.377.704-3.278 0L2.64 24.223c-.902-.703-.902-1.856 0-2.559L17.36 10.17c.903-.704 2.378-.704 3.279 0l14.723 11.495c.9.703.9 1.856 0 2.56L20.64 35.72z" fill="#292f33"/><g clip-path="url(#b)" opacity=".25"><path d="M20.64 35.72c-.901.704-2.377.704-3.278 0L2.64 24.223c-.902-.703-.902-1.856 0-2.559L17.36 10.17c.903-.704 2.378-.704 3.279 0l14.723 11.495c.9.703.9 1.856 0 2.56L20.64 35.72z" fill="#67757f"/></g><path d="M9 12s-2-2-2-3V3s0-2 2-2 2 2 2 2v6c0 1-2 3-2 3" fill="#fcab40"/><path d="M12 11a3 3 0 1 0-6 0 3 3 0 1 0 6 0" fill="#fdd888"/><path d="M9.002 10a1 1 0 0 0-1 1v3.958c-.043.634.186 2.036 1.316 2.884l9.023 7.91a1 1 0 1 0 1.319-1.504l-9.082-7.958c-.603-.456-.577-1.272-.577-1.28V11a1 1 0 0 0-1-1" fill="#fcab40"/><g><path d="M22 24a3 3 0 1 0-6 0 3 3 0 0 0 6 0" fill="#292f33"/></g></g></svg>