<svg xmlns="http://www.w3.org/2000/svg" viewBox="0 0 47.5 47.5"><defs><clipPath id="a"><path d="M0 38h38V0H0v38z"/></clipPath></defs><g clip-path="url(#a)" transform="matrix(1.25 0 0 -1.25 0 47.5)"><path d="M36.999 25.082a6.884 6.884 0 1 0-13.769 0 6.884 6.884 0 0 0 13.769 0" fill="#939598"/><path d="M33.81 18.432a.86.86 0 0 0-1.217 0l-9.127 9.128a.86.86 0 0 0 0 1.217l1.217 1.217a.86.86 0 0 0 1.217 0l9.127-9.128a.86.86 0 0 0 0-1.217l-1.217-1.217z" fill="#58595b"/><path d="M27.74 18.296l-4.326 4.327c-.779.778-1.995.733-2.719-.101l-9.158-10.575c-1.219-1.408-1.462-3.353-.71-4.73L5.914 2.305l1.41-1.41L12.2 5.774c1.382-.84 3.411-.61 4.863.648l10.574 9.157c.833.724.88 1.94.101 2.718" fill="#414042"/><path d="M5 31v-8.122A4.292 4.292 0 0 1 4 23c-1.657 0-3-.895-3-2 0-1.104 1.343-2 3-2 1.656 0 2.999.896 3 2v6.111l5-2.222v-5.011A4.292 4.292 0 0 1 11 20c-1.657 0-3-.895-3-2 0-1.104 1.343-2 3-2 1.656 0 2.999.896 3 2v9l-9 4zM19 36v-8.123A4.285 4.285 0 0 1 18 28c-1.657 0-3-.895-3-2 0-1.104 1.343-2 3-2 1.656 0 3 .896 3 2v10h-2z" fill="#55acee"/></g></svg>