<svg xmlns="http://www.w3.org/2000/svg" viewBox="0 0 47.5 47.5"><defs><clipPath id="a"><path d="M0 38h38V0H0v38z"/></clipPath></defs><g clip-path="url(#a)" transform="matrix(1.25 0 0 -1.25 0 47.5)"><path d="M37 5a4 4 0 0 0-4-4H5a4 4 0 0 0-4 4v28a4 4 0 0 0 4 4h28a4 4 0 0 0 4-4V5z" fill="#88c9f9"/><path d="M19 10c-6.076 0-11 4.925-11 11s4.924 11 11 11c6.075 0 11-4.925 11-11s-4.925-11-11-11m0 24c-7.18 0-13-5.82-13-13S11.82 8 19 8s13 5.82 13 13-5.82 13-13 13" fill="#ffe8b6"/><path d="M22 30.5a2.5 2.5 0 0 0-2.5-2.5h-1a2.5 2.5 0 1 0 0 5h1a2.5 2.5 0 0 0 2.5-2.5M13 27.5a2.5 2.5 0 0 0-2.5-2.5h-1a2.5 2.5 0 1 0 0 5h1a2.5 2.5 0 0 0 2.5-2.5M31 27.5a2.5 2.5 0 0 0-2.5-2.5h-1a2.5 2.5 0 1 0 0 5h1a2.5 2.5 0 0 0 2.5-2.5M34 18.5a2.5 2.5 0 0 0-2.5-2.5h-1a2.5 2.5 0 1 0 0 5h1a2.5 2.5 0 0 0 2.5-2.5M10 18.5A2.5 2.5 0 0 0 7.5 16h-1a2.5 2.5 0 1 0 0 5h1a2.5 2.5 0 0 0 2.5-2.5M13 10.5A2.5 2.5 0 0 0 10.5 8h-1a2.5 2.5 0 1 0 0 5h1a2.5 2.5 0 0 0 2.5-2.5M31 10.5A2.5 2.5 0 0 0 28.5 8h-1a2.5 2.5 0 1 0 0 5h1a2.5 2.5 0 0 0 2.5-2.5M22 6.5A2.5 2.5 0 0 0 19.5 4h-1a2.5 2.5 0 1 0 0 5h1A2.5 2.5 0 0 0 22 6.5" fill="#ea596e"/><path d="M21.95 7a2.498 2.498 0 0 1-2.45 2h-1a2.5 2.5 0 0 1-2.45-2h5.9zM12.95 11a2.498 2.498 0 0 1-2.45 2h-1a2.5 2.5 0 0 1-2.45-2h5.9zM9.95 19a2.498 2.498 0 0 1-2.45 2h-1a2.5 2.5 0 0 1-2.45-2h5.9zM33.95 19a2.498 2.498 0 0 1-2.45 2h-1a2.499 2.499 0 0 1-2.449-2h5.898zM30.95 11a2.498 2.498 0 0 1-2.45 2h-1a2.499 2.499 0 0 1-2.449-2h5.898zM30.95 28a2.498 2.498 0 0 1-2.45 2h-1a2.499 2.499 0 0 1-2.449-2h5.898zM21.95 31a2.498 2.498 0 0 1-2.45 2h-1a2.5 2.5 0 0 1-2.45-2h5.9zM12.95 28a2.498 2.498 0 0 1-2.45 2h-1a2.5 2.5 0 0 1-2.45-2h5.9z" fill="#fff"/><path d="M27.001 3a1 1 0 0 0-.906.574L19 18.651 11.904 3.574a1 1 0 0 0-1.809.852l8 17a1.001 1.001 0 0 0 1.81 0l8-17A1 1 0 0 0 27.001 3" fill="#414042"/><path d="M16 21a3 3 0 1 0 6 0 3 3 0 0 0-6 0" fill="#414042"/></g></svg>