<svg xmlns="http://www.w3.org/2000/svg" viewBox="0 0 47.5 47.5"><defs><clipPath id="a"><path d="M0 38h38V0H0v38z"/></clipPath></defs><g clip-path="url(#a)" transform="matrix(1.25 0 0 -1.25 0 47.5)"><path d="M36 5c0-2.2-1.8-4-4-4H6C3.8 1 2 2.8 2 5v13c0 2.2 1.8 4 4 4h26c2.2 0 4-1.8 4-4V5z" fill="#3f7123"/><path d="M36 16H2v6h34v-6z" fill="#3f7123"/><path d="M36 15H2v7h34v-7z" fill="#ccd6dd"/><path d="M27 22l-4-7h7l4 7h-7zm-14 0l-4-7h7l4 7h-7zM2 22h4l-4-7v7z" fill="#292f33"/><path d="M34.994 30.207L2 22 .31 28.792 33.304 37l1.69-6.793z" fill="#ccd6dd"/><path d="M33.054 29.725l-5.572 5.828-6.793-1.69 5.572-5.827 6.793 1.689zm-13.586-3.38l-5.572 5.828-6.793-1.69 5.572-5.827 6.793 1.69zM.31 28.794l5.572-5.827L2 22 .31 28.793z" fill="#292f33"/></g></svg>