<svg xmlns="http://www.w3.org/2000/svg" viewBox="0 0 47.5 47.5"><defs><clipPath id="a"><path d="M0 38h38V0H0v38z"/></clipPath><clipPath id="b"><path d="M7 18a2 2 0 0 1-2-2L4 4a2 2 0 0 1 2-2h26a2 2 0 0 1 2 2l-1 12c0-1.562-.895 2-2 2H7z"/></clipPath><clipPath id="c"><path d="M4 18c0-4.782 0-3 2-3h26c2 0 2-1.063 2 3 0 4-8 2-15 13-7-11-15-9-15-13"/></clipPath><clipPath id="d"><path d="M0 38h38V0H0v38z"/></clipPath></defs><g clip-path="url(#a)" transform="matrix(1.25 0 0 -1.25 0 47.5)"><path d="M34 4a2 2 0 0 0-2-2H6a2 2 0 0 0-2 2l1 12a2 2 0 0 0 2 2h24c1.104 0 2-3.562 2-2l1-12z" fill="#dd2e44"/><path d="M20 28a1 1 0 0 0-2 0v7a1 1 0 0 0 1 1v-.042c.552 0 1-.406 1-.958v-7z"/><path d="M19.838 36.794c-1.171.165-1.838-.112-1.838-1.212v-1c0-1.101.865-1.753 1.923-1.451l5.154.9c1.715.344 1.548 1.594.085 1.886l-5.324.877z" fill="#55acee"/><path d="M19 31C12 20 4 22 4 18c0-2 0-3 2-3h26c2 0 2 1 2 3 0 4-8 2-15 13" fill="#f5f8fa"/></g><g clip-path="url(#b)" transform="matrix(1.25 0 0 -1.25 0 47.5)"><path d="M14 2c-.792 1.875-1.75 3.291-3.417 4.666 1.75 1.459 4.542 5.5 5.25 8.292.709 2.792 2.75-8.125 2.042-10.625C17.167 1.833 14 2 14 2M24.303 2c.79 1.875 1.75 3.291 3.416 4.666-1.75 1.459-4.541 5.5-5.25 8.292-.707 2.792-2.75-8.125-2.04-10.625C21.137 1.833 24.303 2 24.303 2" fill="#ea596e"/><path d="M9 14.5a2.5 2.5 0 1 0-5 0 2.5 2.5 0 0 0 5 0M34 14.5a2.5 2.5 0 1 0-5 0 2.5 2.5 0 0 0 5 0M17 14a2 2 0 1 0-4.001.001A2 2 0 0 0 17 14M25 14a2 2 0 1 0-4.001.001A2 2 0 0 0 25 14" fill="#be1931"/><path d="M13 14a2 2 0 1 0-4.001.001A2 2 0 0 0 13 14M29 14a2 2 0 1 0-4.001.001A2 2 0 0 0 29 14" fill="#be1931"/><path d="M24 2H14s2 6 2 13h6c0-7 2-13 2-13"/></g><g clip-path="url(#c)" transform="matrix(1.25 0 0 -1.25 0 47.5)"><path d="M9 19c3 2 10 7 10 13S8 33 5 31s-5-8-4-11 3-6 8-6v5z" fill="#ccd6dd"/><path d="M29 19c-3 2-10.13 7-10.13 13s10.935 1 13.935-1 5.097-8 4.097-11S34 14 29 14v5z" fill="#ccd6dd"/><path d="M19 31c0 2 0-10-2-12v-5c0-1-4-2-4 0v5c1 1 6 7 6 12M19 31c0 2 0-10 2-12v-5c0-1 4-2 4 0v5c-1 1-6 7-6 12" fill="#ccd6dd"/></g><g clip-path="url(#d)" transform="matrix(1.25 0 0 -1.25 0 47.5)"><path d="M9 15.5a2.5 2.5 0 1 0-5 0 2.5 2.5 0 0 0 5 0M34 15.5a2.5 2.5 0 1 0-5 0 2.5 2.5 0 0 0 5 0M17 15a2 2 0 1 0-4.001.001A2 2 0 0 0 17 15M25 15a2 2 0 1 0-4.001.001A2 2 0 0 0 25 15" fill="#ccd6dd"/><path d="M21 15a2 2 0 1 0-4.001.001A2 2 0 0 0 21 15M13 15a2 2 0 1 0-4.001.001A2 2 0 0 0 13 15M29 15a2 2 0 1 0-4.001.001A2 2 0 0 0 29 15" fill="#f5f8fa"/></g></svg>