<svg xmlns="http://www.w3.org/2000/svg" viewBox="0 0 47.5 47.5"><defs><clipPath id="a"><path d="M0 38h38V0H0v38z"/></clipPath></defs><g clip-path="url(#a)" transform="matrix(1.25 0 0 -1.25 0 47.5)"><path d="M1 5a4 4 0 0 1 4-4h28a4 4 0 0 1 4 4v28a4 4 0 0 1-4 4H5a4 4 0 0 1-4-4V5z" fill="#88c9f9"/><path d="M15 3h2v32h-2V3z" fill="#58595b"/><path d="M25 22s2 3 4 3 3-1 3-3-2-4-1-6c0 0-2 3-1 5 1.413 2.829-4 3-3 0 1.14-3.421-2 1-2 1" fill="#dd2e44"/><path d="M29 11c0-2 1-3 3-3s1 0 0 2-3 3-3 3v-2zM7 14c0-2 2-4 3-4s1 1 0 2-3 3-1 3 3 0 4 1 1 3-1 2-3-2-4-2-1-2-1-2" fill="#939598"/><path d="M17 23c-2 0-3 0-4 4-.767 3.068-4 4-7 3 0 0-2 1-1 0s0-1 0-3 0-5 1-5c2 0 2 3 2 3s1 0 1-2c0-1-1-2 1-5 0 0-3 0-4-1s-1-3-1-4 1-3 2-3 1 1 1 2-2 0-1 2 1 1 2 1 3 1 4 1 3-1 5-1 4 2 6 0 5-2 6-3 1-2 1-3 2-2 3-2 1 1 0 2-2 0-2 2-1 3-2 3-1 4-1 5-2 5-5 5-5-1-7-1" fill="#f1f2f2"/><path d="M13.542 25.22C14.39 23.006 15.357 23 17 23c1.686 0 3.378.704 5.662.928.12-.304.233-.614.338-.928 1-3 0-5-5-5a5 5 0 0 0-5 5c0 .802.206 1.55.542 2.22" fill="#cbb7ea"/><path d="M10.002 18a.99.99 0 0 1 .553.168c.134.089 3.298 2.228 4.393 5.516a1 1 0 1 1-1.896.632c-.876-2.627-3.581-4.466-3.608-4.485A1 1 0 0 1 10.002 18" fill="#ffac33"/><path d="M6 30c2 2 4.419 1.581 6 0 2-2 1-4 3-6 1.581-1.581-2 0-3 3-.707 2.121-4 3-6 3" fill="#dd2e44"/></g></svg>