<svg xmlns="http://www.w3.org/2000/svg" viewBox="0 0 47.5 47.5"><defs><clipPath id="a"><path d="M0 38h38V0H0v38z"/></clipPath></defs><g clip-path="url(#a)" transform="matrix(1.25 0 0 -1.25 0 47.5)"><path d="M37 5a4 4 0 0 0-4-4H5a4 4 0 0 0-4 4v28a4 4 0 0 0 4 4h28a4 4 0 0 0 4-4V5z" fill="#3b88c3"/><path d="M22 26a6 6 0 1 0-12 .001 6 6 0 0 0 12 0M32.999 24a5 5 0 1 0-10.001.002A5 5 0 0 0 32.999 24" fill="#fff"/><path d="M31 17a4 4 0 0 1-4 4H16a4 4 0 0 1-4-4l-6 4H5V8h1l6 4v-2a4 4 0 0 1 4-4h11a4 4 0 0 1 4 4v7z" fill="#fff"/></g></svg>