<svg xmlns="http://www.w3.org/2000/svg" viewBox="0 0 47.5 47.5"><defs><clipPath id="a"><path d="M0 38h38V0H0v38z"/></clipPath></defs><g clip-path="url(#a)" transform="matrix(1.25 0 0 -1.25 0 47.5)"><path d="M25 26a7 7 0 1 0-14.001.002A7 7 0 0 0 25 26" fill="#58595b"/><path d="M34.999 23a6 6 0 0 0-12 0 6 6 0 0 0 12 0" fill="#58595b"/><path d="M23 26a5 5 0 1 0-10.001.002A5 5 0 0 0 23 26" fill="#939598"/><path d="M20 26c0-1.104-1-2-2-2s-2 .896-2 2a2 2 0 0 0 4 0" fill="#bcbec0"/><path d="M31 8a4 4 0 0 0-4-4H14a4 4 0 0 0-4 4v8a4 4 0 0 0 4 4h13a4 4 0 0 0 4-4V8z" fill="#58595b"/><path d="M24 19h-3v3h3v-3z" fill="#58595b"/><path d="M32.999 23a4 4 0 1 0-8 0 4 4 0 0 0 8 0" fill="#939598"/><path d="M30.999 23a2 2 0 1 0-4.001.002A2 2 0 0 0 30.999 23" fill="#bcbec0"/><path d="M11 16H9l-6 4H2V6h1l6 4h2a3 3 0 1 1 0 6M33 16v-1h-5a2 2 0 0 1 0-4h5v-1h3v6h-3z" fill="#58595b"/><path d="M28 7H18v10h10V7z" fill="#808285"/><path d="M26 9h-6v6h6V9z" fill="#58595b"/><path d="M15.999 9a2 2 0 1 0-4.001.001A2 2 0 0 0 15.999 9" fill="#808285"/></g></svg>