<svg xmlns="http://www.w3.org/2000/svg" viewBox="0 0 47.5 47.5"><defs><clipPath id="a"><path d="M0 38h38V0H0v38z"/></clipPath></defs><g clip-path="url(#a)" transform="matrix(1.25 0 0 -1.25 0 47.5)"><path d="M37 19c0-9.941-8.059-18-18-18S1 9.059 1 19s8.059 18 18 18 18-8.059 18-18" fill="#ccd6dd"/><path d="M33 19c0-7.732-6.268-14-14-14S5 11.268 5 19s6.268 14 14 14 14-6.268 14-14" fill="#3b88c3"/><path d="M29 19c0-5.522-4.478-10-10-10-5.523 0-10 4.478-10 10 0 5.523 4.477 10 10 10 5.522 0 10-4.477 10-10" fill="#dd2e44"/><path d="M25 19a6 6 0 1 0-12.002.002A6 6 0 0 0 25 19" fill="#ffac33"/><path d="M35.864 7.8c-.42-.305-1.257-.591-1.934-.591-1.964 0-4.654.717-6.334 2.386l-2.954 3.872c-.274.275-.357.575-.21.932.148.359-.73.6-.342.6h5.057c1.867 0 4.308-1.255 5.925-3.016l.371-.351c.773-.843 1.183-1.63 1.182-2.386.001-.622-.27-1.088-.76-1.445"/><path d="M29.305 1.796c-.771 0-1.632.417-2.49 1.204l-.49.378C24.534 5.024 23 7.508 23 9.41v5.164c0 .396.5-.513.866-.363.363.15.915.066 1.195-.214l3.166-3.124c1.699-1.711 3.06-4.62 3.06-6.62 0-.69-.141-1.255-.451-1.682a1.838 1.838 0 0 0-1.531-.775"/><path d="M32.345 5.036c-.256 0-.487.122-.683.317l-14 14a1 1 0 1 0 1.414 1.414l14-14a1.014 1.014 0 0 0-.012-1.426 1.036 1.036 0 0 0-.72-.305" fill="#c1694f"/></g></svg>