<svg xmlns="http://www.w3.org/2000/svg" viewBox="0 0 47.5 47.5"><defs><clipPath id="a"><path d="M0 38h38V0H0v38z"/></clipPath></defs><g clip-path="url(#a)" transform="matrix(1.25 0 0 -1.25 0 47.5)"><path d="M25 15a2 2 0 1 0 .001 4.001A2 2 0 0 0 25 15m-4 4a2 2 0 1 0 .001 4.001A2 2 0 0 0 21 19m-4 4a2 2 0 1 0 .001 4.001A2 2 0 0 0 17 23m18.768 3.187l-2.737 2.737-4.107 4.106-2.738 2.738c-1.512 1.511-3.963 1.511-5.434.041l-5.91-5.911c.083-.302.158-.59.158-.898a2 2 0 0 0-2-2c-.308 0-.596.075-.857.2l-9.91-9.911a3.872 3.872 0 0 1 0-5.476l2.738-2.737A7947.52 7947.52 0 0 1 9.077 4.97l2.737-2.738a3.874 3.874 0 0 1 5.476 0l9.91 9.911c-.125.26-.2.549-.2.857a2 2 0 0 0 2 2c.308 0 .597-.075.857-.2l5.911 5.911a3.874 3.874 0 0 1 0 5.476" fill="#ccd6dd"/><path d="M12 7a.999.999 0 0 0-.707 1.707l4 4a.999.999 0 1 0 1.414-1.414l-4-4A.997.997 0 0 0 12 7M9 10a.999.999 0 0 0-.707 1.707l7 7a.999.999 0 1 0 1.414-1.414l-7-7A.997.997 0 0 0 9 10M6 13a.999.999 0 0 0-.707 1.707l7 7a.999.999 0 1 0 1.414-1.414l-7-7A.997.997 0 0 0 6 13M24.57 27.232l1.61 1.61-3.248 1.672-.016-.017 1.653-3.265zm-3.173 2.985c-.245.534-.228 1.179.204 1.61.45.45 1.06.468 1.611.205l6.277-2.951c.185-.085.322-.187.381-.246.331-.331.29-.832-.026-1.145-.355-.356-.72-.348-1.06-.18l-1.05.544-2.358-2.357.534-1.044c.18-.347.186-.712-.16-1.06-.34-.34-.884-.372-1.223-.033-.136.135-.194.279-.22.339l-2.91 6.318z" fill="#99aab5"/></g></svg>