<svg xmlns="http://www.w3.org/2000/svg" viewBox="0 0 47.5 47.5"><defs><clipPath id="a"><path d="M0 38h38V0H0v38z"/></clipPath></defs><g clip-path="url(#a)" transform="matrix(1.25 0 0 -1.25 0 47.5)"><path d="M19 37c-8.284 0-15-6.716-15-15v-9h3v9c0 7 5.269 12.187 12 12.187C25.73 34.187 31 29 31 22V12l3 1v9c0 8.284-6.716 15-15 15" fill="#66757f"/><path d="M7 10a2 2 0 0 0-2-2H3a2 2 0 0 0-2 2v9a2 2 0 0 0 2 2h2a2 2 0 0 0 2-2v-9zM37 10a2 2 0 0 0-2-2h-2a2 2 0 0 0-2 2v9a2 2 0 0 0 2 2h2a2 2 0 0 0 2-2v-9z" fill="#292f33"/><path d="M20.182 26.984l-6.364-1.313c-.45-.093-.818-.544-.818-1.003V8.484c-.637.226-1.34.36-2.087.36-2.785 0-5.043-1.755-5.043-3.922 0-2.165 2.258-3.827 5.043-3.827C13.65 1.095 15.923 3 16 5v15.61l4.204.872c.45.093.796.545.796 1.004v3.83c0 .46-.368.76-.818.668M28.182 23.832l-4.297-.865c-.45-.092-.885-.543-.885-1.002V10.56c0 .152-.878.24-1.4.24-2.024 0-3.633-1.276-3.633-2.851 0-1.574 1.658-2.852 3.683-2.852s3.677 1.278 3.677 2.852c0 .42-.117.816-.327 1.176v10.057l3.182.65c.45.093.818.544.818 1.003v2.33c0 .46-.368.76-.818.668" fill="#55acee"/></g></svg>