<svg xmlns="http://www.w3.org/2000/svg" viewBox="0 0 47.5 47.5"><defs><clipPath id="a"><path d="M0 38h38V0H0v38z"/></clipPath></defs><g clip-path="url(#a)" transform="matrix(1.25 0 0 -1.25 0 47.5)"><path d="M23 32.413c0-6.075-3.667-18.333-11-18.333S1 26.338 1 32.413c0 7.18 8.25 3.667 11 3.667 2.712 0 11 3.552 11-3.667" fill="#a6d388"/><path d="M6.5 25.08c4.583-2.75 7.333-2.75 11 0 2.75 1.833-1.833-6.417-5.5-6.417s-8.25 8.25-5.5 6.417M4.666 28.746a.917.917 0 0 0-.819 1.327c.636 1.273 1.933 2.15 3.303 2.236.839.046 2.458-.156 3.779-2.138a.917.917 0 1 0-1.525-1.016c-.611.915-1.355 1.373-2.14 1.323-.73-.045-1.428-.526-1.778-1.225a.916.916 0 0 0-.82-.507M19.334 28.746a.916.916 0 0 0-.82.507c-.35.699-1.048 1.18-1.778 1.225-.776.042-1.529-.408-2.14-1.323a.917.917 0 0 0-1.525 1.016c1.32 1.983 2.931 2.186 3.779 2.138 1.37-.086 2.667-.963 3.303-2.236a.917.917 0 0 0-.819-1.327" fill="#5c913b"/><path d="M37 19.334C37 13.259 33.333 1 26 1S15 13.259 15 19.333c0 7.182 8.25 3.668 11 3.668 2.713 0 11 3.552 11-3.667" fill="#cbb7ea"/><path d="M30.5 6.849c-3.5 2.15-5.5 2.15-9 0-2.75-1.833.833 4.417 4.5 4.417s7.25-6.25 4.5-4.417M18 15.083a.917.917 0 0 0-.819 1.327c.699 1.4 2.403 2.49 4.05 2.592 1.49.1 2.815-.585 3.699-1.91a.918.918 0 0 0-1.525-1.018c-.522.782-1.215 1.148-2.06 1.099-1.12-.069-2.163-.86-2.525-1.583a.916.916 0 0 0-.82-.507M34.001 15.083a.916.916 0 0 0-.821.508c-.361.722-1.404 1.512-2.525 1.582-.841.047-1.539-.317-2.059-1.099a.918.918 0 0 0-1.526 1.018c.884 1.325 2.188 2.009 3.7 1.91 1.648-.103 3.351-1.193 4.05-2.593a.916.916 0 0 0-.819-1.326" fill="#9266cc"/></g></svg>