<svg xmlns="http://www.w3.org/2000/svg" viewBox="0 0 47.5 47.5"><defs><clipPath id="a"><path d="M0 38h38V0H0v38z"/></clipPath></defs><g clip-path="url(#a)" transform="matrix(1.25 0 0 -1.25 0 47.5)"><path d="M9 21a1 1 0 0 0-1 1v11a1 1 0 0 0 2 0V22a1 1 0 0 0-1-1" fill="#ccd6dd"/><path d="M3 4c0 2.236 4 6 7 6V5C9 5 6 4 5 3S3 3 3 4M17 4c0 2.236-4 6-7 6V5c1 0 4-1 5-2s2 0 2 1" fill="#3b88c3"/><path d="M16 23c2 0 4-1 4-2 0-3-3.167-11.542-8.167-12.542S16 23 16 23M4 17c-1-1-2-3-2-5s2.75 2.042 4 1c1.718-1.432-2 4-2 4" fill="#3b88c3"/><path d="M6.583 24.75c1.5-.5 2.583-.125 3.667.75 1.083.875 1.25-2.542-.25-3.667s-4.125-3.75-4.084-1.416c.042 2.333.667 4.333.667 4.333"/><path d="M10.023 25.999c-.574-.63-1.856-2.333-2.481-4.416-.875-.5-.833 1.208-.708 1.75.225.976.505.977.345 1.522-.21.551-.788.364-1.118.159C4.348 24.03 3 22.2 3 19c0-5.522 5-13 7-13s7 7.478 7 13c0 5.509-3.98 6.992-6.977 6.999" fill="#55acee"/><path d="M14 21.5a1.5 1.5 0 1 0-2.999-.001A1.5 1.5 0 0 0 14 21.5"/><path d="M9.954 14.173c-1.504 0-2.829.538-4 1.149a1 1 0 0 0 .926 1.774c1.89-.988 3.59-1.385 5.735-.11a1.001 1.001 0 0 0 1.02-1.721c-1.334-.792-2.558-1.092-3.68-1.092" fill="#269"/><path d="M30.834 1.75c-.494.247-1.042.958-.729 1.697 1.334 3.147 4.279 16.901 1.604 24.761-.501 1.473-2.118 3.66-4.08 4.863-6.337 3.887-15.806 1.758-17.129 1.096-.495-.249-2.044-.744-2.291-.25-.248.494.589 1.002 1.083 1.25 1.756.877 11.264 3.877 19.667-.792 1.5-.833 3.59-2.376 4.703-5.303 3.257-8.567 1.047-23.416-.787-26.822-.583-1.083-1.897-.571-2.041-.5" fill="#662113"/><path d="M33 12a4 4 0 1 0-8 0 4 4 0 0 0 8 0" fill="#99aab5"/><path d="M31 12a2 2 0 1 0-4.001.001A2 2 0 0 0 31 12" fill="#66757f"/></g></svg>