<svg xmlns="http://www.w3.org/2000/svg" viewBox="0 0 47.5 47.5"><defs><clipPath id="a"><path d="M0 38h38V0H0v38z"/></clipPath></defs><g clip-path="url(#a)" transform="matrix(1.25 0 0 -1.25 0 47.5)"><path d="M21.849 9.41c-.395-1.346-2.46-1.924-4.613-1.29-2.153.631-3.578 2.233-3.183 3.58.395 1.346 2.46 1.924 4.613 1.29 2.154-.63 3.579-2.233 3.183-3.58m-2.85 24.447c-9.94 0-18-6.908-18-15.428 0-1.067.128-2.108.368-3.113C3.146 12.256 4.377 14.188 10 17c5.727 2.864 0-4-2-8-.615-1.23-.281-2.272.56-3.124C11.506 4.072 15.104 3 19 3c9.942 0 18 6.907 18 15.43 0 8.52-8.058 15.427-18 15.427" fill="#d99e82"/><path d="M14 26a3 3 0 1 0-6 0 3 3 0 0 0 6 0" fill="#5c913b"/><path d="M24 28a3 3 0 1 0-6 0 3 3 0 0 0 6 0" fill="#269"/><path d="M33 22a3 3 0 1 0-6 0 3 3 0 0 0 6 0" fill="#dd2e44"/><path d="M32 13a3.001 3.001 0 0 0-6 0 3.001 3.001 0 0 0 6 0" fill="#ffcc4d"/></g></svg>