<svg xmlns="http://www.w3.org/2000/svg" viewBox="0 0 47.5 47.5"><defs><clipPath id="a"><path d="M0 38h38V0H0v38z"/></clipPath></defs><g clip-path="url(#a)" transform="matrix(1.25 0 0 -1.25 0 47.5)"><path d="M37 5a4 4 0 0 0-4-4H5a4 4 0 0 0-4 4v28a4 4 0 0 0 4 4h28a4 4 0 0 0 4-4V5z" fill="#88c9f9"/><path d="M17 3h-2v11h2V3zM9 3h2v12H9V3zM23 16h-2V3h2v13zM29 21h-2V3h2v18zM35 26h-2V3h2v23zM5 3H3v13h2V3z" fill="#a0041e"/><path d="M35 28.778C30.893 24.148 21.793 15 14 15c-4.636 0-8.6 1.417-11 2.528v-2.201C5.615 14.21 9.483 13 14 13c7.763 0 16.237 7.69 21 12.785v2.993z" fill="#dd2e44"/><path d="M27 23c0-1.104-.447-2-1-2-.553 0-1 .896-1 2s.447 2 1 2c.553 0 1-.896 1-2" fill="#66757f"/><path d="M27 26a1 1 0 1 0-2 0 1 1 0 0 0 2 0M32 27c0-1.104-.447-2-1-2-.553 0-1 .896-1 2s.447 2 1 2c.553 0 1-.896 1-2" fill="#66757f"/><path d="M31.667 29.666L32 27l-1-1-1.505 1.505A46.736 46.736 0 0 0 27 25.226V23l-1-1-1.391 1.391C23.227 22.43 22.54 22.081 22 21c-1-2-2-6 1-4 5.582 3.72 12 10 12 10v6c-.865-.867-2.158-2.159-3.333-3.334" fill="#ffcc4d"/><path d="M32 30a1 1 0 1 0-2 0 1 1 0 0 0 2 0" fill="#66757f"/></g></svg>