<svg xmlns="http://www.w3.org/2000/svg" viewBox="0 0 47.5 47.5"><defs><clipPath id="a"><path d="M0 38h38V0H0v38z"/></clipPath><clipPath id="b"><path d="M5 33.666c0-.034.018-.067.022-.101A2.875 2.875 0 0 1 5 33.2L6.802 9.616C3.299 8.705 1 7.424 1 6c0-2.762 8.611-5 18-5s18 2.238 18 5c0 1.424-2.298 2.705-5.801 3.616L33 33.184c0 .135-.008.263-.021.373.003.034.021.075.021.109 0 1.805-6.268 3.267-14 3.267S5 35.471 5 33.666"/></clipPath></defs><g clip-path="url(#a)" transform="matrix(1.25 0 0 -1.25 0 47.5)"><path d="M31.198 9.615L33 33.183c0 .136-.008.264-.022.373.004.034.022.076.022.11 0 1.804-6.269 3.267-14 3.267-7.732 0-14-1.463-14-3.267 0-.034.017-.068.022-.102A2.847 2.847 0 0 1 5 33.2L6.802 9.615C3.298 8.705 1 7.425 1 6c0-2.762 8.611-5 18-5 9.388 0 18 2.238 18 5 0 1.424-2.298 2.705-5.802 3.615" fill="#292f33"/><path d="M18.536 30.405c-4.89 0-8.602.896-10.852 1.646a1 1 0 0 0 .633 1.898c2.889-.963 10.762-2.891 21.42.016a1 1 0 0 0 .525-1.93c-4.405-1.201-8.347-1.63-11.726-1.63" fill="#66757f"/></g><g clip-path="url(#b)" transform="matrix(1.25 0 0 -1.25 0 47.5)"><path d="M9.604 6.208c4.459-1.708 13.959-1.646 18.807-.149 1.466.453 2.776 1.733 2.776 3.191 0 3.256 3.742 7.25 2.271 6.75-8.27-2.813-19.77-3-28.25.208-9.995 3.782.125-2.625.792-3.875.4-.751.833-1.347.833-2.729 0-1.75 1.29-2.829 2.771-3.396" fill="#744eaa"/></g></svg>