<svg xmlns="http://www.w3.org/2000/svg" viewBox="0 0 47.5 47.5"><defs><clipPath id="a"><path d="M0 38h38V0H0v38z"/></clipPath></defs><path d="M46.25 7.5V5h-45v37.5h45V40H8.75v-6.25h37.5v-2.5H8.75V25h37.5v-2.5H8.75v-6.25h37.5v-2.5H8.75V7.5h37.5z" fill="#9aaab4"/><g clip-path="url(#a)" transform="matrix(1.25 0 0 -1.25 0 47.5)"><path d="M19.602 18.42c.653.943 1.452 1.837 2.43 2.718l.34-1.74a4.733 4.733 0 0 1-1.801-1.61 5.01 5.01 0 0 1-.872-2.717 3.986 3.986 0 0 1 .87-2.451 3.951 3.951 0 0 1 2.17-1.4l.12-.03.122.029c.537.127.594.47.594.613 0 .345-.224.62-.58.72-.367.17-.636.417-.82.758-.202.368-.308.713-.308.994 0 .475.17.903.515 1.303.214.242.432.43.655.572l1.092-5.508a7.35 7.35 0 0 0-1.046-.152c-1.383.045-2.517.5-3.37 1.349a4.4 4.4 0 0 0-1.298 3.007c.03 1.273.429 2.465 1.187 3.545m4.945 11.479a8.196 8.196 0 0 0-.743-1.576 9.694 9.694 0 0 0-.96-1.36 6.754 6.754 0 0 0-.287-.321 7.073 7.073 0 0 0-.15 1.164 8.88 8.88 0 0 0 .305 2.08c.17.662.409 1.26.696 1.757.304.468.62.705.944.705a.359.359 0 0 0 .259-.087c.07-.071.119-.208.15-.454.03-.134.047-.304.047-.494 0-.443-.088-.918-.261-1.414m1.159-18.64l-1.047 5.15c.26-.055.502-.146.726-.276.397-.224.703-.53.946-.94.24-.388.39-.836.456-1.301 0-1.246-.355-2.115-1.081-2.632m3.122 5.178a5.599 5.599 0 0 1-.948 1.722 4.596 4.596 0 0 1-1.53 1.233 4.284 4.284 0 0 1-1.98.459 3.74 3.74 0 0 1-.367-.026l-.533 2.594a10.15 10.15 0 0 1 1.616 2.076c.499.847.885 1.77 1.145 2.74.268.979.399 1.943.399 2.946 0 2.106-.542 3.94-1.627 5.475a3.798 3.798 0 0 1-.386.43c-.395.357-.788.413-1.704-.265-.47-.352-.883-.86-1.224-1.506-.352-.644-.608-1.366-.786-2.2a12.766 12.766 0 0 1-.292-2.684c.04-1.352.234-2.7.576-4.013a104.26 104.26 0 0 1-1.881-1.951 18.743 18.743 0 0 1-1.54-1.943c-.494-.71-.91-1.493-1.232-2.323A8.04 8.04 0 0 1 16 16.547a7.905 7.905 0 0 1 .56-2.864 8.122 8.122 0 0 1 1.547-2.45 7.406 7.406 0 0 1 2.325-1.695 6.83 6.83 0 0 1 4.02-.51c.063-.288.146-.63.244-1.022.157-.648.274-1.172.349-1.56.074-.39.11-.765.11-1.122 0-.541-.06-.955-.198-1.3-.05-.203-.184-.413-.401-.621a2.52 2.52 0 0 0-.84-.533c-.467-.183-.921-.231-1.288-.18.195.105.375.24.537.405.433.443.653.988.653 1.622 0 .447-.11.875-.328 1.282a2.684 2.684 0 0 1-.886.929 2.348 2.348 0 0 1-1.226.34h-.006c-.511-.034-.954-.195-1.3-.47a2.756 2.756 0 0 1-.853-1.051 3.608 3.608 0 0 1-.338-1.362c.04-1.04.478-1.885 1.306-2.508.786-.581 1.709-.877 2.74-.877.743 0 1.435.164 2.053.487a3.875 3.875 0 0 1 1.529 1.403c.37.6.559 1.29.559 2.046 0 .495-.043.96-.13 1.419-.084.458-.21 1.08-.383 1.869-.124.535-.22.987-.288 1.349.965.428 1.712 1.049 2.225 1.85a5.46 5.46 0 0 1 .868 3c0 .665-.112 1.342-.332 2.015" fill="#131516"/></g></svg>