<svg xmlns="http://www.w3.org/2000/svg" viewBox="0 0 47.5 47.5"><defs><clipPath id="a"><path d="M0 38h38V0H0v38z"/></clipPath></defs><g clip-path="url(#a)" transform="matrix(1.25 0 0 -1.25 0 47.5)"><path d="M6.622 3.95L3.948 6.621l20.39 20.39c3.343 3.343 1.336 8.022 2.006 8.69.666.67 1.335.002 1.335.002l8.023-8.024c.668-.668 0-1.335 0-1.335-.669-.67-5.778.908-8.692-2.006L6.622 3.95z" fill="#fcab40"/><path d="M6.457 3.11a2.369 2.369 0 0 1-3.349 3.35l.087-.088a.938.938 0 0 1-1.296-.028.945.945 0 0 1 0-1.336L5.008 1.9a.94.94 0 1 1 1.369 1.29l.08-.08z" fill="#ccd6dd"/><path d="M25.007 21.55c-.506 0-.98-.197-1.338-.554L12.974 10.3a1.879 1.879 0 0 1-.554-1.337c0-.506.197-.98.553-1.336a1.882 1.882 0 0 1 1.337-.555c.506 0 .98.198 1.338.555l10.696 10.695a1.895 1.895 0 0 1-.001 2.675 1.88 1.88 0 0 1-1.336.553M14.31 3.29c-1.515 0-2.94.59-4.011 1.662a5.638 5.638 0 0 0-1.66 4.01c0 1.516.59 2.94 1.66 4.012L20.996 23.67a5.638 5.638 0 0 0 4.012 1.66c1.515 0 2.939-.59 4.01-1.66a5.679 5.679 0 0 0 0-8.021L18.323 4.953A5.638 5.638 0 0 0 14.31 3.29" fill="#fcab40"/><path d="M26.344 12.974a1.892 1.892 0 0 1 2.674 2.674l-8.023 8.023a1.89 1.89 0 0 1-2.673-2.675l8.022-8.022zM22.332 8.963a1.892 1.892 0 0 1 2.676 2.674l-8.023 8.022a1.89 1.89 0 1 1-2.674-2.675l8.021-8.021zM18.322 4.952a1.89 1.89 0 1 1 2.673 2.674l-8.021 8.021a1.89 1.89 0 1 1-2.674-2.674l8.022-8.02z" fill="#fcab40"/><path d="M15.648 23.67a.946.946 0 0 1 1.337 0l1.337 1.337a.947.947 0 0 1-1.337 1.338l-1.337-1.338a.945.945 0 0 1 0-1.336M11.637 19.66a.943.943 0 0 1 1.337 0l1.336 1.336a.944.944 0 1 1-1.336 1.337l-1.337-1.337a.944.944 0 0 1 0-1.337M7.625 15.648a.944.944 0 0 1 1.337 0l1.338 1.338a.945.945 0 1 1-1.338 1.337l-1.336-1.338a.946.946 0 0 1 0-1.337" fill="#ccd6dd"/></g></svg>