<svg xmlns="http://www.w3.org/2000/svg" viewBox="0 0 47.5 47.5"><defs><clipPath id="a"><path d="M0 38h38V0H0v38z"/></clipPath></defs><g clip-path="url(#a)" transform="matrix(1.25 0 0 -1.25 0 47.5)"><path d="M15.182 36.833l-6.363-1.301c-.45-.093-.82-.544-.82-1.003V18.67A6.194 6.194 0 0 1 6 19c-2.76 0-5-1.74-5-3.888 0-2.148 2.24-3.889 5-3.889 2.714 0 4.91 1.683 4.987 3.777H11v15.523l4.182.856c.45.092.818.543.818 1.002v3.785c0 .46-.368.76-.818.667M36.182 32.833l-6.363-1.301c-.45-.093-.82-.544-.82-1.003V14.672A6.198 6.198 0 0 1 27 15c-2.76 0-5-1.741-5-3.888 0-2.148 2.24-3.89 5-3.89 2.714 0 4.91 1.684 4.987 3.778H32v15.523l4.182.855c.45.093.818.544.818 1.003v3.785c0 .459-.368.759-.818.667" fill="#5dadec"/><path d="M24.182 26.832l-6.363-1.3c-.45-.093-.82-.544-.82-1.003V8.672A6.194 6.194 0 0 1 15 9c-2.76 0-5-1.741-5-3.888 0-2.148 2.24-3.89 5-3.89 2.714 0 4.91 1.684 4.987 3.778H20v15.523l4.182.855c.45.093.818.544.818 1.003v3.785c0 .459-.368.759-.818.667" fill="#5dadec"/></g></svg>