<svg xmlns="http://www.w3.org/2000/svg" viewBox="0 0 47.5 47.5"><defs><clipPath id="a"><path d="M0 38h38V0H0v38z"/></clipPath></defs><g clip-path="url(#a)" transform="matrix(1.25 0 0 -1.25 0 47.5)"><path d="M5 26V13.625c0-2.042 1.093-2.484 1.093-2.484l11.574-9.099C19.488.61 19 3.625 19 3.625V15L5 26z" fill="#a0041e"/><path d="M33 26V13.625c0-2.042-1.063-2.484-1.063-2.484S22.17 3.474 20.349 2.042C18.526.61 19 3.625 19 3.625V15l14 11z" fill="#dd2e44"/><path d="M20.29 36.5c-.754.61-1.989.61-2.743 0L5.565 26.971c-.754-.61-.754-1.607 0-2.216l12.023-9.647c.755-.609 1.99-.609 2.743 0l12.104 9.731c.753.609.753 1.606 0 2.216L20.29 36.5z" fill="#ea596e"/><path d="M22.416 26c0-1.289-1.306-2.333-2.916-2.333-1.611 0-2.916 1.044-2.916 2.333 0 1.289 1.305 2.333 2.916 2.333 1.61 0 2.916-1.044 2.916-2.333M29.544 16.467c-.872 0-1.375.902-1.123 2.017.25 1.113 1.162 2.016 2.034 2.016.873 0 1.376-.903 1.124-2.016-.251-1.115-1.163-2.017-2.035-2.017M26.454 11.258c-.883 0-1.392.949-1.138 2.12.255 1.173 1.18 2.122 2.062 2.122.884 0 1.392-.95 1.138-2.121-.254-1.172-1.178-2.121-2.062-2.121M23.02 6.05c-.838 0-1.322.922-1.08 2.059.242 1.136 1.118 2.057 1.957 2.057s1.322-.921 1.08-2.057C24.737 6.972 23.86 6.05 23.02 6.05" fill="#fff"/><path d="M8.188 18.999c-.994 0-1.567-1.007-1.28-2.249.286-1.243 1.325-2.25 2.319-2.25s1.567 1.007 1.28 2.25c-.286 1.242-1.325 2.249-2.319 2.249M13.771 11.5c-.994 0-1.567-1.007-1.28-2.25C12.776 8.008 13.815 7 14.81 7c.993 0 1.566 1.008 1.28 2.25-.287 1.243-1.326 2.25-2.32 2.25" fill="#e1e8ed"/><path d="M19 1.25c-.552 0-1 .482-1 1.078v12.927c0 .596.448 1.078 1 1.078.553 0 1-.482 1-1.078V2.328c0-.596-.447-1.078-1-1.078" fill="#ea596e"/></g></svg>