<svg xmlns="http://www.w3.org/2000/svg" viewBox="0 0 47.5 47.5"><defs><clipPath id="a"><path d="M0 38h38V0H0v38z"/></clipPath></defs><g clip-path="url(#a)" transform="matrix(1.25 0 0 -1.25 0 47.5)"><path d="M35.209 36.794l-22.418-2.587c-.985-.115-1.791-1.018-1.791-2.01V13.415A7.94 7.94 0 0 1 8 14c-3.865 0-7-2.686-7-6 0-3.315 3.135-6 7-6s7 2.685 7 6v18.461l18 2.077V15.415A7.94 7.94 0 0 1 30 16c-3.865 0-7-2.686-7-6 0-3.315 3.135-6 7-6s7 2.685 7 6v25.197c0 .992-.806 1.71-1.791 1.596" fill="#5dadec"/></g></svg>