<svg xmlns="http://www.w3.org/2000/svg" viewBox="0 0 47.5 47.5"><defs><clipPath id="a"><path d="M0 38h38V0H0v38z"/></clipPath></defs><g clip-path="url(#a)" transform="matrix(1.25 0 0 -1.25 0 47.5)"><path d="M24.912 24.913c-1.693 1.692-3.594 2.587-5.497 2.587-1.626 0-3.19-.668-4.402-1.88-1.519-1.519-1.728-2.39-1.866-2.966-.07-.295-.105-.42-.255-.57a.505.505 0 0 1 .085-.775c.013-.009.324-.22.368-.65.04-.395-.13-1.08-1.16-2.11-.629-.63-1.252-.949-1.85-.949-.98 0-1.649.87-1.653.876a.498.498 0 0 1-.877-.138c-.22-.663-.25-.668-.535-.709-.59-.086-1.578-.23-3.624-2.276-1.675-1.674-2.265-3.766-1.708-6.047.395-1.618 1.408-3.359 2.708-4.66 1.408-1.408 3.803-2.912 6.301-2.912h.001c1.654 0 3.136.643 4.405 1.912 2.046 2.046 2.19 3.034 2.275 3.624.041.285.046.314.71.535a.499.499 0 0 1 .14.877c-.009.005-.806.62-.874 1.527-.047.638.27 1.302.944 1.975.963.963 1.622 1.166 2.005 1.166a.925.925 0 0 0 .752-.367.5.5 0 0 1 .78-.09c.148.15.274.184.57.254.575.14 1.445.348 2.964 1.867 2.287 2.287 2.956 6.235-.707 9.9" fill="#f18f26"/><path d="M33 32L19.122 17 17 19.123 32 33l1-1z" fill="#292f33"/><path d="M35.704 34.315a1.13 1.13 0 0 0 0-1.592l-3.188-3.186a1.129 1.129 0 0 0-1.592 0l-1.39 1.389a1.13 1.13 0 0 0 .001 1.593l3.187 3.186a1.13 1.13 0 0 0 1.592-.001l1.39-1.39z" fill="#f18f26"/><path d="M35 29a1 1 0 1 0-2 0 1 1 0 0 0 2 0M37 31a1 1 0 1 0-2 0 1 1 0 1 0 2 0M30 34a1 1 0 1 0-2 0 1 1 0 1 0 2 0M32 36a1 1 0 1 0-2 0 1 1 0 1 0 2 0" fill="#642116"/><path d="M3 5l4 5s.999 0 2-1c1-1 1-2 1-2L5 3 3 5z" fill="#292f33"/><path d="M14 10a.997.997 0 0 0-.708.293l-3 3a.999.999 0 1 0 1.414 1.414l3-3A.999.999 0 0 0 14 10" fill="#fee7b8"/></g></svg>