<svg xmlns="http://www.w3.org/2000/svg" viewBox="0 0 47.5 47.5"><defs><clipPath id="a"><path d="M0 38h38V0H0v38z"/></clipPath></defs><g clip-path="url(#a)" transform="matrix(1.25 0 0 -1.25 0 47.5)"><path d="M15 21l-5-10s-1-2 1-2c1 0 2 2 2 2l14 19s2 4 8 1v-2c-3 1-4-1-4-1L16 4s-2-3-7-3C3 1 2 6 2 9c0 2 1 4 2 6s-2 6-2 6h13z" fill="#fcab40" fill-rule="evenodd"/><path d="M8.5 17C5.04 17 1 18.048 1 21c0 2.953 4.04 4 7.5 4s7.5-1.047 7.5-4c0-2.952-4.04-4-7.5-4" fill="#fdcb58"/><path d="M22 20a2 2 0 1 0-4.001.001A2 2 0 0 0 22 20M25 24a2 2 0 1 0-4.001.001A2 2 0 0 0 25 24M28 28a2 2 0 1 0-4.001.001A2 2 0 0 0 28 28" fill="#ccd6dd"/><path d="M34.998 27c-.3 0-.605.068-.893.21l-2 1a2 2 0 0 0 1.789 3.58l2-1a2 2 0 0 0-.896-3.79" fill="#9aaab4"/><path d="M17.265 11.775l-1.268-1.548-6.19 5.068 1.266 1.547 6.192-5.067z" fill="#fcab40" fill-rule="evenodd"/></g></svg>