<svg xmlns="http://www.w3.org/2000/svg" viewBox="0 0 47.5 47.5"><defs><clipPath id="a"><path d="M0 38h38V0H0v38z"/></clipPath><clipPath id="b"><path d="M24 10.102C24 7.68 21.427 5 19.005 5h-.715l4.96-2.133c1.998-.889 4.338.048 5.229 2.046l8.062 18.108c.891 1.998.003 4.358-1.995 5.247L24 32.973V10.102z"/></clipPath><clipPath id="c"><path d="M0 38h38V0H0v38z"/></clipPath><clipPath id="d"><path d="M5.227 37A4.228 4.228 0 0 1 1 32.773V11.227A4.228 4.228 0 0 1 5.227 7h12.545A4.227 4.227 0 0 1 22 11.227v21.546A4.227 4.227 0 0 1 17.772 37H5.227z"/></clipPath><clipPath id="e"><path d="M0 38h38V0H0v38z"/></clipPath></defs><g clip-path="url(#a)" transform="matrix(1.25 0 0 -1.25 0 47.5)"><path d="M34.546 28.268L24 32.973V10.101c0-2.42-2.573-5.1-4.995-5.1h-.715l4.96-2.134c1.998-.889 4.338.048 5.229 2.046l8.062 18.108c.89 1.998.003 4.358-1.995 5.247" fill="#dd2e44"/></g><g clip-path="url(#b)" transform="matrix(1.25 0 0 -1.25 0 47.5)"><path d="M30.885 10.102c-.99 1.98-3.96 4.95-12.87 4.95s-2.97-5.94-1.98-8.91c.99-2.97 4.248-5.94 7.63-5.94 3.384 0 6.23 0 7.22 2.97.99 2.97 0 6.93 0 6.93"/></g><g clip-path="url(#c)" transform="matrix(1.25 0 0 -1.25 0 47.5)"><path d="M22 11.227A4.228 4.228 0 0 0 17.772 7H5.228A4.228 4.228 0 0 0 1 11.227v21.546a4.227 4.227 0 0 0 4.228 4.226h12.544A4.227 4.227 0 0 0 22 32.772V11.227z" fill="#dd2e44"/></g><g clip-path="url(#d)" transform="matrix(1.25 0 0 -1.25 0 47.5)"><path d="M1 14c3 2 16 7 21 1 6.925-8.31 5-3 2-6S12 4 8 5s-8-.708-8 1.917S1 14 1 14"/></g><g clip-path="url(#e)" transform="matrix(1.25 0 0 -1.25 0 47.5)"><path d="M16.795 26.588a6.315 6.315 0 1 1-12.63 0 6.315 6.315 0 0 1 12.63 0M24 28.851V18.325c2.688.265 4.795 2.506 4.795 5.263 0 2.758-2.107 4.998-4.795 5.263" fill="#fff"/></g></svg>