<svg xmlns="http://www.w3.org/2000/svg" viewBox="0 0 47.5 47.5"><defs><clipPath id="a"><path d="M0 38h38V0H0v38z"/></clipPath><clipPath id="b"><path d="M1 19C1 9.059 9.059 1 19 1c9.94 0 18 8.059 18 18s-8.059 18-18 18S1 28.941 1 19"/></clipPath></defs><g clip-path="url(#a)" transform="matrix(1.25 0 0 -1.25 0 47.5)"><path d="M19 1C9.059 1 1 9.059 1 19s8.059 18 18 18 18-8.059 18-18S28.94 1 19 1" fill="#77b255"/></g><g clip-path="url(#b)" transform="matrix(1.25 0 0 -1.25 0 47.5)"><path d="M35 33c4.352 0 9-3.678 9-14S39.352 5 35 5s-9 3.678-9 14 4.648 14 9 14" fill="#a6d388"/><path d="M35 7c4.318 0 7 4.598 7 12s-2.682 12-7 12-7-4.598-7-12 2.682-12 7-12m0 26c4.352 0 9-3.678 9-14S39.352 5 35 5s-9 3.678-9 14 4.648 14 9 14" fill="#fff"/><path d="M3 33c4.351 0 9-3.678 9-14S7.351 5 3 5s-9 3.678-9 14 4.649 14 9 14" fill="#a6d388"/><path d="M3 7c4.317 0 7 4.598 7 12S7.317 31 3 31s-7-4.598-7-12c0-7.401 2.683-12 7-12m0 26c4.351 0 9-3.678 9-14S7.351 5 3 5s-9 3.678-9 14 4.649 14 9 14" fill="#fff"/></g></svg>