<svg xmlns="http://www.w3.org/2000/svg" viewBox="0 0 47.5 47.5"><defs><clipPath id="a"><path d="M0 38h38V0H0v38z"/></clipPath><clipPath id="b"><path d="M19 36c-1-1-1-2-1-4s1-4 1-5c0-3-4-5-4-9.084C15 14.583 17 8 18 6h6c1 2 3 8.583 3 11.916C27 22 23 24 23 27c0 1 1 3 1 5s0 3-1 4-2 1-2 1-1 0-2-1"/></clipPath><clipPath id="c"><path d="M0 38h38V0H0v38z"/></clipPath><clipPath id="d"><path d="M29 33c-1-1-1-2-1-4s1-4 1-5c0-3-4-5-4-9.084C25 11.583 27 5 28 3h6c1 2 3 8.583 3 11.916C37 19 33 21 33 24c0 1 1 3 1 5s0 3-1 4-2 1-2 1-1 0-2-1"/></clipPath><clipPath id="e"><path d="M0 38h38V0H0v38z"/></clipPath></defs><g clip-path="url(#a)" transform="matrix(1.25 0 0 -1.25 0 47.5)"><path d="M23 27c0 1 1 3 1 5s0 3-1 4-2 1-2 1-1 0-2-1-1-2-1-4 1-4 1-5c0-3-4-5-4-9.084C15 14.583 17 8 18 6h6c1 2 3 8.583 3 11.916C27 22 23 24 23 27" fill="#ccd6dd"/></g><g clip-path="url(#b)" fill="#be1931" transform="matrix(1.25 0 0 -1.25 0 47.5)"><path d="M24 27h-6v2h6v-2zM25 23h-8v2h8v-2z"/></g><g clip-path="url(#c)" transform="matrix(1.25 0 0 -1.25 0 47.5)"><path d="M33 24c0 1 1 3 1 5s0 3-1 4-2 1-2 1-1 0-2-1-1-2-1-4 1-4 1-5c0-3-4-5-4-9.084C25 11.583 27 5 28 3h6c1 2 3 8.583 3 11.916C37 19 33 21 33 24" fill="#ccd6dd"/></g><g clip-path="url(#d)" fill="#be1931" transform="matrix(1.25 0 0 -1.25 0 47.5)"><path d="M34 24h-6v2h6v-2zM35 20h-8v2h8v-2z"/></g><g clip-path="url(#e)" transform="matrix(1.25 0 0 -1.25 0 47.5)"><path d="M13.562 1C6.624 1 1 6.624 1 13.563 1 20.5 6.624 26.125 13.562 26.125S26.125 20.5 26.125 13.563C26.125 6.624 20.5 1 13.562 1" fill="#3a4449"/><path d="M16.23 18.21a2.316 2.316 0 1 0-4.631 0 2.316 2.316 0 0 0 4.631 0M9.82 16.063a2.316 2.316 0 1 0-4.632 0 2.316 2.316 0 0 0 4.632 0M14.747 8.947a2.316 2.316 0 1 0-4.633 0 2.316 2.316 0 0 0 4.633 0"/></g></svg>