<svg xmlns="http://www.w3.org/2000/svg" viewBox="0 0 47.5 47.5"><defs><clipPath id="a"><path d="M0 38h38V0H0v38z"/></clipPath><clipPath id="b"><path d="M29.719 35.396c-1.04-5.316-6.876-9.903-10.719-9.903-3.833 0-9.636 4.562-10.697 9.86-.109.552-1.215 1.458-2.001 1.06-1.83-.93-4.197-2.851-4.197-5.358 3.122-4.608 3.827-6.381 3.827-11.16 0-4.777-1.366-14.117-2.561-16.506C4.566 2.193 11.594 1 19 1c7.404 0 14.448 1.193 15.642 2.389-1.194 2.389-2.546 11.729-2.546 16.506 0 4.779.701 6.552 3.822 11.16 0 2.536-2.429 4.474-4.27 5.39a.89.89 0 0 1-.4.091c-.689 0-1.441-.692-1.529-1.14"/></clipPath></defs><g clip-path="url(#a)" transform="matrix(1.25 0 0 -1.25 0 47.5)"><path d="M7.318 35.97c1.5-1.5 13.184-8.686 23.386 0 1.3-1.19 1.474-6.04-.73-7.627-2.203-1.587-10.137-9.608-16-6.083-5.862 3.526-7.096 5.863-7.317 8.464-.22 2.6.661 5.245.661 5.245" fill="#269"/><path d="M35.918 31.054c0 2.537-2.429 4.475-4.27 5.391-.76.378-1.812-.393-1.896-.873-.943-5.39-6.867-10.08-10.752-10.08-3.833 0-9.636 4.563-10.697 9.861-.11.551-1.183 1.467-1.947 1.085-1.838-.918-4.251-2.853-4.251-5.384 3.122-4.607 3.827-6.38 3.827-11.159 0-4.777-1.366-14.117-2.56-16.507C4.566 2.193 11.594 1 19 1c7.404 0 14.447 1.193 15.642 2.388-1.195 2.39-2.546 11.73-2.546 16.507 0 4.778.701 6.552 3.822 11.16" fill="#55acee"/></g><g clip-path="url(#b)" transform="matrix(1.25 0 0 -1.25 0 47.5)"><path d="M35.88 30.636L3.749 10.479 2.602 3.38l33.72 20.863-.441 6.392z" fill="#ffd983"/></g></svg>