<svg xmlns="http://www.w3.org/2000/svg" viewBox="0 0 47.5 47.5"><defs><clipPath id="a"><path d="M0 38h38V0H0v38z"/></clipPath></defs><g clip-path="url(#a)" transform="matrix(1.25 0 0 -1.25 0 47.5)"><path d="M6 32h6c1.104 0 2 .104 2-1v2a2 2 0 0 1-2 2H4c-2 0-3.583-2.125-3-5 0 0 1.791-9.375 1.917-9.958C3.25 18.5 5.042 17 6.958 17h6.959c1.104 0 .083 1.896.083 3v2a2 2 0 0 0-2-2H8c-1.104 0-1.833 1.042-2 2-.167.958-1.583 7.333-1.583 7.333C4.083 31.25 4.896 32 6 32M31.813 32h-6C24.709 32 23 32.104 23 31v2c0 1.104 1.709 2 2.813 2h8c2 0 3.583-2.125 3-5 0 0-1.634-9.419-1.772-10-.353-1.5-2.041-3-4-3h-7.145C22.791 17 23 18.896 23 20v2c0-1.104 1.71-2 2.814-2h4c1.104 0 1.834 1.042 2 2 .166.958 1.584 7.333 1.584 7.333.332 1.917-.48 2.667-1.584 2.667M21.709 15c0 6.958-2.709 0-2.709 0s-3 6.958-3 0-3.291-10-3.291-10H25s-3.291 3.042-3.291 10" fill="#ffac33"/><path d="M30 30.423c0-6.775-6.77-18.192-11-18.192-4.231 0-11 11.417-11 18.192 0 5.195 1 6.32 3 6.32 1.374 0 6.025.026 8 .026l7 .002c2.917 0 4-.685 4-6.348" fill="#ffcc4d"/><path d="M28 4c0-1.104.104-2-1-2H11c-1.104 0-1 .896-1 2v1c0 1.104 1.042 2 2.083 2H26c1.042 0 2-.896 2-2V4z" fill="#c1694f"/><path d="M30 2.375C30 1.615 30.042 1 28.625 1H9.375C8.083 1 8 1.615 8 2.375v.25C8 3.385 8.616 4 9.375 4h19.25C29.385 4 30 3.385 30 2.625v-.25z" fill="#c1694f"/></g></svg>