<svg xmlns="http://www.w3.org/2000/svg" viewBox="0 0 47.5 47.5"><defs><clipPath id="a"><path d="M0 38h38V0H0v38z"/></clipPath></defs><g clip-path="url(#a)" transform="matrix(1.25 0 0 -1.25 0 47.5)"><path d="M28.076 21.335s4.687-1.807 6.761-.6c2.074 1.204 2.51 2.846 1.302 4.92-1.208 2.071-4.487 2.94-4.656 5.617 0 0-.264-4.319 1.977-5.787 3.172-2.08-.445-4.387-4.207-3.915-3.765.472-1.177-.235-1.177-.235" fill="#292f33"/><path d="M3.688 12.287c-.736-2.285-.349-6.01.794-6.378 1.141-.367 2.877 1.61 1.897 2.993-1.897 2.677-.778 4.546 1.504 3.811 2.284-.735 8.686 1.146 10.194 1.922 1.508.772-4.56.79-7.211.383-2.651-.407-4.116-.038-5.302-.815-1.004-.658-1.876-1.916-1.876-1.916M18.792 4.856c1.38.986.593 3.799 2.96 3.408 2.366-.395 3.77-1.507 3.943 1.775.022.38.52-.013 1.317.614 8.218 6.462 1.05 6.288 1.05 6.288-2.762-1.974-5.698-5.114-4.733-6.51.507-.73-2.562-.79-3.745-.591-1.183.197-2.762-1.974-2.959-3.157-.196-1.181.788-2.812 2.167-1.827" fill="#d99e82"/><path d="M31.83 18.249c.005 1.129-1.758 4.602-5.295 4.602-3.6 0-5.998-1.199-8.397-1.199S14.2 20.203 13 25c-.919 3.68-3.4 5.201-7 4 0 0-3.455 2.248-2.255 1.048.494-.494.706-.994.762-1.459-2.103-1.257-1.13-3.416-2.253-4.539-.848-.847-1.199-1.199-1.199-2.398 0-.991 1.63-1.15 2.875-.505.723 1.704.353 1.057 1.473 1.707 1.03.017 1.94.151 1.94 1.196 0 0 1.2 0 1.2-2.398 0-1.144-1.083-2.292.893-5.513 0 0 1.19-1.911.836-2.581-1.254-2.371-1.533-5.044-2.507-5.743-.977-.698.42-2.648.42-2.648 1.394-1.952 4.741-2.508 5.717-1.812.976.699.278 1.675-1.395 1.955-1.673.275-5.02.833-3.07 2.227C11.388 8.934 12.723 9.327 13 11c.08.469 2 1 2 1s2-1 4.337.055c2.043.922 4.481 2.09 6.722.414l.07.039c-.714-1.535-.969-2.893-.276-3.477.683-.573-2.265-1.434-3.46-1.553-1.193-.123-2.147-2.628-2.027-3.821.121-1.193 1.748-2.7 2.82-1.387 1.074 1.314-2.107 3.162 1.714 4.254 2.307.66 4.034-.466 3.341 2.746-.08.374.068.786.693 1.586 3.284 4.216 2.888 6.263 2.896 7.393" fill="#c1694f"/><path d="M23.309 22.531c-1.96-.354-3.571-.879-5.17-.879-1.064 0-1.888.017-2.585.436.058-1.778.558-3.676 2.476-6.282a6.06 6.06 0 0 1 1.307-.152c2.4 0 3.599 1.2 5.997 2.398-1.32 1.954-1.615 2.74-2.025 4.48" fill="#cbb7ea"/><path d="M5.27 28.67c2.399 2.4 4.428 1.898 6.323 0 2.4-2.397 1.334-4.921 4.147-6.82C17 21 13 21 12.14 25.45c-.508 2.633-3.382 3.898-6.87 3.22" fill="#292f33"/><path d="M3 22.5a.502.502 0 0 0-.354.854l4 4a.502.502 0 0 0 .708-.707l-4-4A.502.502 0 0 0 3 22.5" fill="#ffac33"/><path d="M8 23.5a.5.5 0 0 0-.464.314l-2 5a.5.5 0 1 0 .928.372l2-5a.5.5 0 0 0-.465-.686" fill="#ffac33"/><path d="M12.816 29.747c-.698-.674.878-1.43 1.13-2.391.175-.663 1.372-.023 1.372-.023S16.613 27.656 18 27c1.32-.624 2.66-.383 2 1-.664 1.382-3.41.704-3.446 2.075-.092 3.28-3.738-.33-3.738-.33" fill="#d99e82"/><path d="M13.048 29.37c-.352-1.033-.977.453-.728 1.183.35 1.03 1.778 1.911 2.858 1.758 1.077-.15 1.807-1.337 1.456-2.367-.248-.729.013-1.623-.715-.44-.728 1.184-.716-.44-1.08.152-.364.592-1.791-.287-1.791-.287" fill="#b39155"/><path d="M21 14.5c-.629 0-.762-.321-.971.307-.261.786.185.931.971 1.193l1 1c-.672 1.17-2.305 3.219-2.5 4-.5 2-.5 3 3.571 4.796-.033.04-.076.088-.132.144C21.207 27.672 20 25 18 26c-.74.37.422-.525-1 1-.565.606.213 1.739 1 2 3.951 1.319 5.864 1.258 8.061-.939C27.144 26.978 27 25.664 27 25c0-3-5-2-4.501-4 .069-.362.889-1.876 1.749-3.168.26-.389.903-1.39.752-1.832-.151-.442-1.082-.274-1.525-.423l-2-1A1.498 1.498 0 0 0 21 14.5" fill="#d1d3d4"/><path d="M18.755 26c1.63-.9 3.14.776 4.478-.06l2.828 2.121c-.055 1.94-5.061 3.94-8.642 1.362-.632-.455-1.08-1.135-.86-1.897.44-1.526 1.526-1.156 2.196-1.526" fill="#5c913b"/><path d="M23 20l-2.198-1.279c.457-.622.924-1.243 1.198-1.72l-1-1c-.786-.263-1.232-.409-.971-1.195.209-.627.342-.305.971-.305.156 0 .316.023.475.076l2 1c.443.148 1.374-.02 1.525.423.151.442-.492 1.443-.752 1.832-.404.607-.936 1.605-1.248 2.168" fill="#231f20"/><path d="M16 22c-2 0-2 .448-2 1s1.447 1 2 1c1.983 0 2.275.285 2.302.317.09.198-.147.371-1.303 2.683-.247.494.06 1.647.553 1.895a1 1 0 0 0 1.342-.448c1.13-2.258 1.87-3.952 1.107-5.184C19.353 22.215 17.933 22 16 22" fill="#a6d388"/><path d="M16 24c-2 1-2-.448-2-1s0-1 2-1v2z" fill="#d99e82"/><path d="M12.457 31.771c1.205.741 2.409 1.482 4.123.045 1.084-.908.509-2.177-.464-1.945-.972.232-1.945.463-3.15-.277-1.204-.741-1.714 1.436-.509 2.177" fill="#9266cc"/><path d="M3 22a.5.5 0 0 0-.023 1l11 .5a.501.501 0 0 0 .046-.999l-11-.501h-.024z" fill="#ffcc4d"/></g></svg>