<svg xmlns="http://www.w3.org/2000/svg" viewBox="0 0 47.5 47.5"><defs><clipPath id="a"><path d="M0 38h38V0H0v38z"/></clipPath></defs><g clip-path="url(#a)" transform="matrix(1.25 0 0 -1.25 0 47.5)"><path d="M37 21V5s0-4-4-4H5C1 1 1 5 1 5v2s17 10 36 14" fill="#e1e8ed"/><path d="M33.816 16.02a2 2 0 0 0-.98-2.653L9.22 2.49a1.999 1.999 0 0 0-2.652.979l-.837 1.818a2 2 0 0 0 .98 2.653l23.615 10.877a2.002 2.002 0 0 0 2.654-.98l.836-1.817z" fill="#aa8ed6"/><path d="M26.406 11c-.3 0-.605.067-.893.211l-2 1c-.438.22-.78.592-.962 1.046l-1.682 4.204-4.204 1.682a1.999 1.999 0 0 0-1.114 2.6 1.998 1.998 0 0 0 2.6 1.114l5-2c.508-.203.91-.606 1.114-1.114l1.717-4.294 1.32-.66A2 2 0 0 0 26.406 11" fill="#67757f"/><path d="M17.41 7a2 2 0 0 0-1.792 1.105l-1 2a2.004 2.004 0 0 0-.17 1.288l.847 4.241-2.602 4.337a1.999 1.999 0 1 0 3.43 2.058l3-5c.256-.426.343-.933.245-1.422l-.865-4.327.694-1.385A2.002 2.002 0 0 0 17.41 7" fill="#67757f"/><path d="M25.408 21c-3.888 0-7.23 4.309-7.6 4.8a2 2 0 0 0 3.198 2.403C22.012 26.873 24.043 25 25.408 25a2 2 0 0 0 0-4M8.408 16.999a2 2 0 0 0-1.897 1.368c-1.058 3.175-.442 6.121 1.733 8.297 1.539 1.54 3.332 2.167 3.532 2.233a2 2 0 0 0 1.276-3.791c-.963-.337-3.996-1.726-2.746-5.474a2 2 0 0 0-1.898-2.633" fill="#ccd6dd"/><path d="M19.408 21.5a3.5 3.5 0 1 0-7 0v4a3.5 3.5 0 1 0 7 0v-4z" fill="#67757f"/><path d="M21.408 27a2 2 0 0 0-2-2h-7a2 2 0 0 0 0 4h7a2 2 0 0 0 2-2" fill="#ccd6dd"/><path d="M12 18.5a.498.498 0 0 0-.5.5v7c0 2.5 2.708 2.5 4.5 2.5 1.792 0 4.5 0 4.5-2.5v-4a.5.5 0 0 0-.324-.468l-8-3A.489.489 0 0 0 12 18.5" fill="#ccd6dd"/><path d="M32.475 33.158l-1 3A.501.501 0 0 1 31 36.5c-.13 0-3.213-.035-7.3-3.1-3.867-2.9-4.755-2.9-6.7-2.9h-3a.5.5 0 0 1-.353-.147c-.527-.527-.666-1.268-.371-1.982.375-.904 1.55-1.87 3.724-1.87 1.439 0 3.533 1.155 5.957 2.492C25.936 30.637 29.312 32.5 32 32.5a.5.5 0 0 1 .475.658" fill="#bb1a34"/><path d="M19.408 33a4 4 0 0 0-8 0c0 2.209 1.791 3 4 3 2.21 0 4-.791 4-3" fill="#d99e82"/><path d="M13 33c2 0 4 1 4 0s0-3 2-3 3 7-3 7-6-4-3-4" fill="#9aaab4"/><path d="M14 32.5a1.5 1.5 0 1 0-2.999-.001A1.5 1.5 0 0 0 14 32.5" fill="#bdddf4"/><path d="M12.5 33.5c-.551 0-1-.449-1-1 0-.551.449-1 1-1 .551 0 1 .449 1 1 0 .551-.449 1-1 1m0-3c-1.103 0-2 .897-2 2s.897 2 2 2 2-.897 2-2-.897-2-2-2" fill="#67757f"/><path d="M17 32.5a1.5 1.5 0 1 0-2.999-.001A1.5 1.5 0 0 0 17 32.5" fill="#bdddf4"/><path d="M15.5 33.5c-.551 0-1-.449-1-1 0-.551.449-1 1-1 .551 0 1 .449 1 1 0 .551-.449 1-1 1m0-3c-1.103 0-2 .897-2 2s.897 2 2 2 2-.897 2-2-.897-2-2-2" fill="#67757f"/></g></svg>