<svg xmlns="http://www.w3.org/2000/svg" viewBox="0 0 47.5 47.5"><defs><clipPath id="a"><path d="M0 38h38V0H0v38z"/></clipPath></defs><g clip-path="url(#a)" transform="matrix(1.25 0 0 -1.25 0 47.5)"><path d="M37 14a2 2 0 0 0-2-2H5a2 2 0 0 0-2 2v20a2 2 0 0 0 2 2h30a2 2 0 0 0 2-2V14z" fill="#292f33"/><path d="M13 28H4v8h9v-8zM21 20h-8v8h8v-8zM29 28h-8v8h8v-8zM13 12H5v8h8v-8zM29 12h-8v8h8v-8zM37 20h-8v8h8v-8z" fill="#e1e8ed"/><path d="M5 3a2 2 0 0 0-4 0v32a2 2 0 0 0 4 0V3z" fill="#553788"/></g></svg>