<svg xmlns="http://www.w3.org/2000/svg" viewBox="0 0 47.5 47.5"><defs><clipPath id="a"><path d="M0 38h38V0H0v38z"/></clipPath><clipPath id="b"><path d="M9.254 28.746C2.09 21.582-.927 9.561 3.929 3.929 9.561-.927 21.582 2.09 28.746 9.254c7.164 7.164 11.229 17.088 5.324 24.816-1.886 1.627-4.489 2.371-7.387 2.37-5.752 0-12.665-2.93-17.429-7.694"/></clipPath></defs><g clip-path="url(#a)" transform="matrix(1.25 0 0 -1.25 0 47.5)"><path d="M28.746 9.254C21.582 2.09 9.56-.927 3.93 3.93-.927 9.56 2.09 21.582 9.254 28.746c7.164 7.164 19.185 10.18 24.816 5.324 5.905-7.728 1.84-17.652-5.324-24.816" fill="#3b88c3"/></g><g clip-path="url(#b)" transform="matrix(1.25 0 0 -1.25 0 47.5)"><path d="M36.834 29.666C36.5 25.25 27.5 10.5 12.417 4.916c-1.167-.5-1.084-2 .833-2.167 1.917-.166 13.5.167 17.5 2.417s10.75 18.918 9 20.25c-1.75 1.333 4.416 7.75 3 6.417-1.416-1.333-5.916-2.166-5.916-2.166" fill="#ccd6dd"/><path d="M9.084 9.166c7.833 1.917 26.667 10.417 25.25 24.584C33.916 34.916 26.181 39.866 13 29c-7.583-6.25-8.778-14.191-8.25-18.917.203-1.813 2.416-1.387 4.334-.917" fill="#e1e8ed"/></g></svg>