<svg xmlns="http://www.w3.org/2000/svg" viewBox="0 0 47.5 47.5"><defs><clipPath id="a"><path d="M0 38h38V0H0v38z"/></clipPath></defs><g clip-path="url(#a)" transform="matrix(1.25 0 0 -1.25 0 47.5)"><path d="M37 32V5s0-4-4-4H5C1 1 1 5 1 5v5s25 2 36 22" fill="#4289c1"/><path d="M31.59 16.568s2.33 2.136 1.924 3.05c-.408.913-11.676-.832-17.154-3.278C8.14 12.672 4.292 6.574 5.107 4.748c.816-1.826 7.925-3.034 16.143.634 5.48 2.446 14.3 9.67 13.895 10.582-.41.914-3.555.604-3.555.604" fill="#a7d28b"/><path d="M35.145 15.965c-.409.913-3.556.604-3.556.604s2.205 2.023 1.944 2.972L5.612 7.326c-.57-1.116-.748-2.037-.507-2.578.211-.472.85-.9 1.812-1.217l28.215 12.345c0 .027.021.068.011.089" fill="#f5f8fa"/><path d="M25.408 22c-3.4 0-6.462 3.95-6.8 4.4a1 1 0 0 0 1.6 1.201c.754-1.002 3.158-3.601 5.2-3.601a1 1 0 1 0 0-2M8.408 18c-.419 0-.809.265-.949.684-1.195 3.584.152 5.933 1.492 7.273 1.401 1.401 3.07 1.968 3.141 1.992a1 1 0 0 0 .635-1.897c-.516-.176-4.995-1.861-3.37-6.736A.999.999 0 0 0 8.408 18" fill="#d99e82"/><path d="M19.408 21.5a3.5 3.5 0 1 0-7 0v4a3.5 3.5 0 1 0 7 0v-4z" fill="#67757f"/><path d="M21.408 27a2 2 0 0 0-2-2h-7a2 2 0 0 0 0 4h7a2 2 0 0 0 2-2" fill="#67757f"/><path d="M19.408 33a4 4 0 1 0-8 0 4 4 0 0 0 8 0" fill="#d99e82"/><path d="M10.408 33s0 4 5 4c4 0 4-4 4-4s0 2-3 2c-2 0-2-3-6-2" fill="#fdcb58"/><path d="M26.406 11c-.3 0-.605.067-.893.211l-2 1c-.438.22-.78.592-.962 1.046l-1.682 4.204-4.204 1.682a1.999 1.999 0 0 0-1.114 2.6 1.998 1.998 0 0 0 2.6 1.114l5-2c.508-.203.91-.606 1.114-1.114l1.717-4.294 1.32-.66A2 2 0 0 0 26.406 11" fill="#67757f"/><path d="M17.41 7a2 2 0 0 0-1.792 1.105l-1 2a2.004 2.004 0 0 0-.17 1.288l.847 4.241-2.602 4.337a1.999 1.999 0 1 0 3.43 2.058l3-5c.256-.426.343-.933.245-1.422l-.865-4.327.694-1.385A2.002 2.002 0 0 0 17.41 7" fill="#67757f"/></g></svg>