<svg xmlns="http://www.w3.org/2000/svg" viewBox="0 0 47.5 47.5"><defs><clipPath id="a"><path d="M0 38h38V0H0v38z"/></clipPath></defs><g clip-path="url(#a)" transform="matrix(1.25 0 0 -1.25 0 47.5)"><path d="M37 16.637C35.648 17.064 33.158 20 31 20c-3 0-3 7-4 9s-3 4-3 5-3 2-8 0-8-2-10-2-3-2-4-4 0-2 0-2c1-1 2 2 4 3s3-1 5 0c1.493.747 4.658-.178 7 .137.794.106 1.493.356 2 .863 0 0 0-8 2-11 0 0-1-1-2-4s-2 0-2 2-1 5-5 7c-1.789.895-5.658.683-7-2-2-4 0-8 2-9s3-2 7-2c1.943 0 17.813-.48 22-.364v6z" fill="#d99e82"/><path d="M9.182 20.595c2.186 1.94 5.633 1.687 8.025-.472C16.49 21.496 15.202 22.9 13 24c-1.79.895-5.658.683-7-2-2-4 0-8 2-9 .24-.12.463-.24.68-.356-1.812 2.62-1.664 6.025.502 7.95" fill="#269"/><path d="M13 18.5a.502.502 0 0 0-.354.854C13.78 20.487 14.951 20.5 15 20.5a.5.5 0 0 0 0-1c-.028 0-.821-.028-1.646-.854A.502.502 0 0 0 13 18.5M9 15.5a.502.502 0 0 0-.354.854C9.78 17.487 10.951 17.5 11 17.5a.5.5 0 0 0 0-1c-.028-.001-.821-.028-1.646-.854A.502.502 0 0 0 9 15.5" fill="#c1694f"/><path d="M37 13H1V1h36v12z" fill="#55acee"/><path d="M7 13c3 2 7 5 6 3s-1.001-3 1-2c2 1 5 2 4 0s2-1 3 0 4 0 3-1-9-2-12-2-5 2-5 2" fill="#55acee"/></g></svg>