<svg xmlns="http://www.w3.org/2000/svg" viewBox="0 0 47.5 47.5"><defs><clipPath id="a"><path d="M0 38h38V0H0v38z"/></clipPath></defs><g clip-path="url(#a)" transform="matrix(1.25 0 0 -1.25 0 47.5)"><path d="M15.316 32.74c-1.207-.268 0-2.139-.37-3.349-.252-.837 1.474-.94 1.474-.94s1.207.266 1.003-1.677c-.207-1.94 2.472-2.616 2.677-.673.204 1.941-1.385 2.988-.511 4.5 2.092 3.62-4.273 2.138-4.273 2.138" fill="#d99e82"/><path d="M28.001 19a1 1 0 0 0-.896.553c-1.788 3.575-7.366 5.48-7.422 5.499a1 1 0 0 0 .633 1.897c.261-.087 6.418-2.181 8.579-6.502A1.001 1.001 0 0 0 28.001 19" fill="#d99e82"/><path d="M13.002 2.999a2 2 0 0 0-1.924 2.551l2 7a2 2 0 0 0 .76 1.077l7 5a1.998 1.998 0 0 0 2.788-.465 1.998 1.998 0 0 0-.464-2.789l-6.43-4.595-1.808-6.328a2.003 2.003 0 0 0-1.922-1.451" fill="#2a6797"/><path d="M27.998 6c-.3 0-.605.067-.893.211l-6 3A2 2 0 0 0 20 11v5a2 2 0 0 0 4 0v-3.764l4.894-2.447A2 2 0 0 0 27.998 6" fill="#4289c1"/><path d="M10.645 2.99l3.396-1.14c.56 2.976-.972 2.436-2.957 3.102-1.985.666-3.912.26-4.231-.69.779-.26 1.509-.506 2.844-.955l.948-.317M29.89 6.08l.68 3.518c-3.024.16-2.285-1.289-2.682-3.343-.397-2.057.263-3.913 1.244-4.103l.57 2.947.189.981" fill="#292f33"/><path d="M25 18s0-2-2-2-4 1-4 1c-2 6-4 9-.152 10.914C21.833 29.398 24 23 25 18" fill="#a0041e"/><path d="M15.316 32.175C14 32 14.243 33.375 15 34c1.067.884 3.52.83 4.589-.055 1.068-.885 1.068-2.656 0-3.54-.755-.625-1.068-1.77-1.068 0s-1.07 0-1.07.884c0 .886-2.135.886-2.135.886" fill="#b39155"/><path d="M21 32a4 4 0 1 0-8 0 4 4 0 0 0 8 0" fill="#d99e82"/><path d="M12 32s0 4 5 4c4 0 4-4 4-4s0 2-3 2c-2.001 0-2-3-6-2" fill="#fdcb58"/><path d="M17.143 24.515c-.028-.046-2.825-4.631-7.339-5.534l.004-.02A.985.985 0 0 1 9 18a1 1 0 0 1 1-1c.07 0 .128.026.193.039l.004-.02c5.372 1.075 8.53 6.247 8.661 6.467l-1.715 1.029z" fill="#d99e82"/></g></svg>