<svg xmlns="http://www.w3.org/2000/svg" viewBox="0 0 47.5 47.5"><defs><clipPath id="a"><path d="M0 38h38V0H0v38z"/></clipPath></defs><g clip-path="url(#a)" transform="matrix(1.25 0 0 -1.25 0 47.5)"><path d="M18 3a2 2 0 0 1 2-2h14a2 2 0 0 1 2 2v16a2 2 0 0 1-2 2H20a2 2 0 0 1-2-2V3z" fill="#bcbec0"/><path d="M34 21H24v-2h12a2 2 0 0 1-2 2" fill="#414042"/><path d="M34 3H4v4h30V3z" fill="#3b88c3"/><path d="M4 21a2 2 0 0 1-2-2V3a2 2 0 0 1 2-2h20v20H4z" fill="#d1d3d4"/><path d="M4 21a2 2 0 0 1-2-2h22v2H4z" fill="#66757f"/><path d="M4 13h4v4H4v-4zM18 13h4v4h-4v-4zM11 13h4v4h-4v-4z" fill="#55acee"/><path d="M34 13h-4v4h4v-4zM28 13h-4v4h4v-4z" fill="#3b88c3"/><path d="M22 1H4v6h18V1z" fill="#55acee"/><path d="M18 1H8v6h10V1z" fill="#3b88c3"/><path d="M24 11H2V7h22v4z" fill="#dd2e44"/><path d="M18 8H8v2h10V8z" fill="#f4abba"/><path d="M16 8h-6v2h6V8z" fill="#fff"/><path d="M36 7H24v4h12V7z" fill="#a0041e"/><path d="M8 21H6v2h2v-2zM18 21h2v2h-2v-2z" fill="#414042"/><path d="M22 25a2 2 0 0 0-2-2H6a2 2 0 0 0-2 2v10a2 2 0 0 0 2 2h14a2 2 0 0 0 2-2V25z" fill="#dd2e44"/><path d="M11.562 26.85c.616 0 1.093-.28 1.093-.926 0-.644-.477-.924-1.01-.924H6.969c-.617 0-1.093.28-1.093.924 0 .295.182.547.322.715 1.163 1.386 2.424 2.647 3.488 4.188.251.364.49.798.49 1.303 0 .574-.435 1.078-1.01 1.078-1.61 0-.84-2.269-2.184-2.269-.673 0-1.023.476-1.023 1.023 0 1.764 1.57 3.18 3.292 3.18 1.723 0 3.11-1.135 3.11-2.914 0-1.947-2.172-3.88-3.362-5.379h2.563zM17.3 32.956h-.028l-1.89-3.908H17.3v3.908zM13.924 27.2c-.686 0-.98.463-.98.826 0 .31.111.477.196.617l3.138 5.687c.308.56.7.813 1.428.813.813 0 1.611-.519 1.611-1.793v-4.3h.238c.546 0 .981-.365.981-.926 0-.56-.435-.924-.98-.924h-.239v-1.19c0-.743-.294-1.093-1.009-1.093-.714 0-1.008.35-1.008 1.093v1.19h-3.376z" fill="#fff"/></g></svg>