<svg xmlns="http://www.w3.org/2000/svg" viewBox="0 0 47.5 47.5"><defs><clipPath id="a"><path d="M0 38h38V0H0v38z"/></clipPath></defs><g clip-path="url(#a)" transform="matrix(1.25 0 0 -1.25 0 47.5)"><path d="M25 27a2 2 0 0 0-2-2h-8a2 2 0 0 0-2 2v8a2 2 0 0 0 2 2h8a2 2 0 0 0 2-2v-8zM1 23V3a2 2 0 0 1 2-2h32a2 2 0 0 1 2 2v20H1z" fill="#d1d3d4"/><path d="M19 25H3a2 2 0 0 1-2-2h20a2 2 0 0 1-2 2" fill="#808285"/><path d="M35 25H19a2 2 0 0 1-2-2h20a2 2 0 0 1-2 2" fill="#808285"/><path d="M35 11H3v4h32v-4zM35 17H3v4h32v-4zM35 5H3v4h32V5z" fill="#55acee"/><path d="M29 1H9v24h20V1z" fill="#e6e7e8"/><path d="M27 13H11v4h16v-4zM27 19H11v4h16v-4zM27 7H11v4h16V7z" fill="#55acee"/><path d="M24 1H14v4h10V1z" fill="#3b88c3"/><path d="M23 33h-3v3h-2v-3h-3v-2h3v-3h2v3h3v2z" fill="#dd2e44"/><path d="M27 27H11a2 2 0 0 1-2-2h20a2 2 0 0 1-2 2" fill="#808285"/></g></svg>