<svg xmlns="http://www.w3.org/2000/svg" viewBox="0 0 47.5 47.5"><defs><clipPath id="a"><path d="M0 38h38V0H0v38z"/></clipPath></defs><g clip-path="url(#a)" transform="matrix(1.25 0 0 -1.25 0 47.5)"><path d="M37 3a2 2 0 0 0-2-2H3a2 2 0 0 0-2 2v20a2 2 0 0 0 2 2h32a2 2 0 0 0 2-2V3z" fill="#bcbec0"/><path d="M27 37H11a2 2 0 0 1-2-2V1h20v34a2 2 0 0 1-2 2" fill="#d1d3d4"/><path d="M27 31H11v4h16v-4zM27 1H11v4h16V1z" fill="#55acee"/><path d="M21 1h-4v4h4V1z" fill="#3b88c3"/><path d="M15 25h-4v4h4v-4zM15 19h-4v4h4v-4zM15 13h-4v4h4v-4zM15 7h-4v4h4V7zM21 7h-4v4h4V7zM27 7h-4v4h4V7zM27 13h-4v4h4v-4zM27 19h-4v4h4v-4zM27 25h-4v4h4v-4zM21 13h-4v4h4v-4zM21 19h-4v4h4v-4zM21 25h-4v4h4v-4zM7 19H3v4h4v-4zM7 13H3v4h4v-4zM7 7H3v4h4V7zM35 7h-4v4h4V7zM35 13h-4v4h4v-4zM35 19h-4v4h4v-4z" fill="#55acee"/></g></svg>