<svg xmlns="http://www.w3.org/2000/svg" viewBox="0 0 47.5 47.5"><defs><clipPath id="a"><path d="M0 38h38V0H0v38z"/></clipPath></defs><g clip-path="url(#a)" transform="matrix(1.25 0 0 -1.25 0 47.5)"><path d="M15 3a2 2 0 0 1 2-2h18a2 2 0 0 1 2 2v20a2 2 0 0 1-2 2H17a2 2 0 0 1-2-2V3z" fill="#ffcc4d"/><path d="M35 25H21v-2h16a2 2 0 0 1-2 2" fill="#bcbec0"/><path d="M21 1h14v20H21V1z" fill="#55acee"/><path d="M19 37H3a2 2 0 0 1-2-2V3a2 2 0 0 1 2-2h18v34a2 2 0 0 1-2 2" fill="#ffe8b6"/><path d="M19 37H3a2 2 0 0 1-2-2h20a2 2 0 0 1-2 2" fill="#bcbec0"/><path d="M3 11h16v4H3v-4zM3 17h16v4H3v-4zM3 23h16v4H3v-4zM3 29h16v4H3v-4zM3 1h16v8H3V1z" fill="#55acee"/><path d="M7 1h8v4H7V1zM24 1h8v4h-8V1z" fill="#3b88c3"/><path d="M36 9H21v2h15V9zM36 15H21v2h15v-2z" fill="#ffcc4d"/><path d="M37 30a2 2 0 0 0-2-2H25a2 2 0 0 0-2 2v2a2 2 0 0 0 2 2h10a2 2 0 0 0 2-2v-2z" fill="#dd2e44"/><path d="M29 25h-2v3h2v-3zM33 25h-2v3h2v-3z" fill="#58595b"/><path d="M27 30h-2v2h2v-2z" fill="#f4abba"/><path d="M29 30h-2v2h2v-2z" fill="#fff"/><path d="M31 30h-2v2h2v-2z" fill="#f4abba"/><path d="M33 30h-2v2h2v-2z" fill="#fff"/><path d="M35 30h-2v2h2v-2z" fill="#f4abba"/></g></svg>