<svg xmlns="http://www.w3.org/2000/svg" viewBox="0 0 47.5 47.5"><defs><clipPath id="a"><path d="M0 38h38V0H0v38z"/></clipPath></defs><g clip-path="url(#a)" transform="matrix(1.25 0 0 -1.25 0 47.5)"><path d="M1 19V3a2 2 0 0 1 2-2h32a2 2 0 0 1 2 2v16H1z" fill="#bcbec0"/><path d="M1 19l18 6.353L37 19H1z" fill="#66757f"/><path d="M35 13H3v4h32v-4zM35 7H3v4h32V7z" fill="#55acee"/><path d="M31 2H7v16h24V2z" fill="#bcbec0"/><path d="M29 1H9v31h20V1z" fill="#d1d3d4"/><path d="M27 13H11v4h16v-4zM27 7H11v4h16V7z" fill="#55acee"/><path d="M17 6h-2v18h2V6zM23 6h-2v18h2V6z" fill="#d1d3d4"/><path d="M21 1h-4v4h4V1z" fill="#3b88c3"/><path d="M24 28H14v2h10v-2zM14 26v-2h4v-4h2v4h4v2H14z" fill="#dd2e44"/><path d="M9 32l10 5 10-5H9z" fill="#66757f"/></g></svg>