<svg xmlns="http://www.w3.org/2000/svg" viewBox="0 0 47.5 47.5"><defs><clipPath id="a"><path d="M0 38h38V0H0v38z"/></clipPath></defs><path d="M15 23.75H7.5L8.75 7.5h5L15 23.75zM27.5 23.75H20L21.25 7.5h5l1.25 16.25zM40 23.75h-7.5L33.75 7.5h5L40 23.75z" fill="#be1931"/><path d="M8.173 15l-.192 2.5h6.538l-.192-2.5H8.173zM8.558 10l-.193 2.5h5.769l-.191-2.5H8.558zM14.904 22.5L14.71 20H7.79l-.193 2.5h7.308zM20.673 15l-.192 2.5h6.538l-.192-2.5h-6.154zM21.058 10l-.193 2.5h5.769l-.191-2.5h-5.385zM27.404 22.5l-.192-2.5H20.29l-.193 2.5h7.308zM33.173 15l-.192 2.5h6.538l-.191-2.5h-6.155zM39.904 22.5l-.192-2.5H32.79l-.193 2.5h7.308zM33.557 10l-.191 2.5h5.769l-.192-2.5h-5.386z" fill="#e6e7e8"/><g clip-path="url(#a)" transform="matrix(1.25 0 0 -1.25 0 47.5)"><path d="M36 3a2 2 0 0 0-2-2H4a2 2 0 0 0-2 2v14a2 2 0 0 0 2 2h30a2 2 0 0 0 2-2V3z" fill="#a0041e"/><path d="M36 15H2v2h34v-2z" fill="#c1694f"/><path d="M11 9H7v4h4V9zM21 9h-4v4h4V9zM31 9h-4v4h4V9zM11 3H7v4h4V3zM21 3h-4v4h4V3zM31 3h-4v4h4V3z" fill="#a7a9ac"/><path d="M10 37a2 2 0 0 1-2-2c0-.457.159-.873.417-1.209A.982.982 0 0 1 8 33a1 1 0 0 1 2 0 2 2 0 0 1 0 4M20 37a2 2 0 0 1-2-2c0-.457.159-.873.417-1.209A.982.982 0 0 1 18 33a1 1 0 0 1 2 0 2 2 0 0 1 0 4M30 37a2 2 0 0 1-2-2c0-.457.159-.873.417-1.209A.982.982 0 0 1 28 33a1 1 0 1 1 2 0 2 2 0 0 1 0 4" fill="#d1d3d4"/></g></svg>