<svg xmlns="http://www.w3.org/2000/svg" viewBox="0 0 47.5 47.5"><defs><clipPath id="a"><path d="M0 38h38V0H0v38z"/></clipPath></defs><path d="M42.5 21.25H5v22.5h37.5v-22.5z" fill="#58595b"/><g clip-path="url(#a)" transform="matrix(1.25 0 0 -1.25 0 47.5)"><path d="M3 3h32a2 2 0 0 0 2-2H1a2 2 0 0 0 2 2" fill="#bcbec0"/><path d="M19 14a3 3 0 0 1-3-3V5h6v6a3 3 0 0 1-3 3" fill="#231f20"/><path d="M8 16H4V5h4v11zM14 16h-4V5h4v11zM34 16h-4V5h4v11zM28 16h-4V5h4v11z" fill="#d1d3d4"/><path d="M35 3H3v2h32V3z" fill="#a7a9ac"/><path d="M37 26L19 37 1 26h36z" fill="#58595b"/><path d="M19 34.6L3 25v-4h32v4l-16 9.6z" fill="#d1d3d4"/><path d="M8 16H4v2h4v-2zM14 16h-4v2h4v-2zM28 16h-4v2h4v-2zM34 16h-4v2h4v-2z" fill="#808285"/><path d="M36 20H2v5h34v-5z" fill="#d1d3d4"/><path d="M37 25a1 1 0 0 0-1-1H2a1 1 0 0 0-1 1v1a1 1 0 0 0 1 1h34a1 1 0 0 0 1-1v-1zM37 19a1 1 0 0 0-1-1H2a1 1 0 0 0-1 1v1a1 1 0 0 0 1 1h34a1 1 0 0 0 1-1v-1z" fill="#a7a9ac"/><path d="M24 3H14v2h10V3z" fill="#e6e7e8"/><path d="M26 1H12v2h14V1z" fill="#f1f2f2"/></g></svg>