<svg xmlns="http://www.w3.org/2000/svg" viewBox="0 0 47.5 47.5"><defs><clipPath id="a"><path d="M0 38h38V0H0v38z"/></clipPath></defs><path d="M7.5 23.75L23.75 7.5 40 23.75v20H7.5v-20z" fill="#ffe8b6"/><path d="M7.5 43.75h1.25v-20H7.5v20zM38.75 43.75h1.251v-20H38.75v20z" fill="#ffcc4d"/><g clip-path="url(#a)" transform="matrix(1.25 0 0 -1.25 0 47.5)"><path d="M32 18a.997.997 0 0 0-.707.293L19 30.586 6.707 18.293a.999.999 0 1 0-1.414 1.414l13 13a.999.999 0 0 0 1.414 0l13-13A.999.999 0 0 0 32 18" fill="#66757f"/><path d="M21 3h-4v8h4V3z" fill="#c1694f"/><path d="M14 15h-4v4h4v-4zM28 15h-4v4h4v-4zM21 15h-4v4h4v-4zM14 7h-4v4h4V7zM28 7h-4v4h4V7z" fill="#55acee"/><path d="M34 2a1 1 0 0 0-1-1H5a1 1 0 1 0 0 2h28a1 1 0 0 0 1-1" fill="#bcbec0"/></g></svg>