<svg xmlns="http://www.w3.org/2000/svg" viewBox="0 0 47.5 47.5"><defs><clipPath id="a"><path d="M0 38h38V0H0v38z"/></clipPath></defs><g clip-path="url(#a)" transform="matrix(1.25 0 0 -1.25 0 47.5)"><path d="M22 22a4 4 0 0 0-4-4H5a4 4 0 0 0-4 4v3a4 4 0 0 0 4 4h13a4 4 0 0 0 4-4v-3z" fill="#be1931"/><path d="M37 31a4 4 0 0 0-4-4H21a4 4 0 0 0-4 4v1a4 4 0 0 0 4 4h12a4 4 0 0 0 4-4v-1z" fill="#be1931"/><path d="M1 25V3a2 2 0 0 1 2-2h31v24H1z" fill="#f4abba"/><path d="M15 1H3v4h12V1zM19 7H3v4h16V7z" fill="#3b88c3"/><path d="M17 32V1h18a2 2 0 0 1 2 2v29H17z" fill="#ffd4de"/><path d="M35 13H19v4h16v-4zM35 19H19v4h16v-4zM35 25H19v4h16v-4zM35 7H19v4h16V7z" fill="#55acee"/><path d="M25 6h-2v24h2V6zM31 6h-2v24h2V6z" fill="#ffd4de"/><path d="M31 1h-8v4h8V1z" fill="#3b88c3"/><path d="M11 23v-4H7v4H5V13h2v4h4v-4h2v10h-2z" fill="#dd2e44"/><path d="M10 6H8v6h2V6zM17 6h-2v6h2V6z" fill="#f4abba"/><path d="M4 34c0 2.761 3.963 4 5 0 1.122 4 5 2.761 5 0 0-3-5-6-5-6s-5 3-5 6" fill="#ea596e"/></g></svg>