<svg xmlns="http://www.w3.org/2000/svg" viewBox="0 0 47.5 47.5"><defs><clipPath id="a"><path d="M0 38h38V0H0v38z"/></clipPath></defs><g clip-path="url(#a)" transform="matrix(1.25 0 0 -1.25 0 47.5)"><path d="M37 3a2 2 0 0 0-2-2H3a2 2 0 0 0-2 2v19a2 2 0 0 0 2 2h32a2 2 0 0 0 2-2V3z" fill="#ffcc4d"/><path d="M35 24H3a2 2 0 0 1-2-2h36a2 2 0 0 1-2 2" fill="#6d6e71"/><path d="M35 9H3v4h32V9zM35 15H3v4h32v-4zM35 3H3v4h32V3z" fill="#3b88c3"/><path d="M31 2h-2v18h2V2z" fill="#ffcc4d"/><path d="M23 37H7a2 2 0 0 1-2-2V1h20v34a2 2 0 0 1-2 2" fill="#ffe8b6"/><path d="M23 37H7a2 2 0 0 1-2-2h20a2 2 0 0 1-2 2" fill="#808285"/><path d="M23 15H7v4h16v-4zM23 9H7v4h16V9zM23 3H7v4h16V3z" fill="#55acee"/><path d="M13 1h-2v29h2V1zM19 1h-2v29h2V1z" fill="#ffe8b6"/><path d="M17 1h-4v6h4V1z" fill="#269"/><path d="M21 28a6 6 0 0 0-12 0 6 6 0 0 0 12 0" fill="#a7a9ac"/><path d="M19 28a4 4 0 1 0-8 0 4 4 0 0 0 8 0" fill="#e6e7e8"/><path d="M18 27h-3a1 1 0 0 0-1 1v5a1 1 0 0 0 2 0v-4h2a1 1 0 0 0 0-2" fill="#a0041e"/></g></svg>