<svg xmlns="http://www.w3.org/2000/svg" viewBox="0 0 47.5 47.5"><defs><clipPath id="a"><path d="M0 38h38V0H0v38z"/></clipPath></defs><g clip-path="url(#a)" transform="matrix(1.25 0 0 -1.25 0 47.5)"><path d="M30 3a2 2 0 0 0-2-2H10a2 2 0 0 0-2 2v32a2 2 0 0 0 2 2h18a2 2 0 0 0 2-2V3z" fill="#292f33"/><path d="M7.699 5H30.3C34.383 8.3 36 13.342 36 19c0 5.658-1.616 10.7-5.698 14H7.698C3.616 29.7 2 24.658 2 19 2 13.342 3.616 8.3 7.699 5" fill="#be1931"/><path d="M2.3 15c.109-.682.246-1.35.416-2h32.568c.17.65.307 1.318.415 2H2.3zM2.072 17h33.855c.048.657.073 1.324.073 2H2c0-.676.024-1.343.072-2M33.677 9c.363.64.684 1.306.956 2H3.367c.272-.694.593-1.36.956-2h29.354zM3.366 27a17.77 17.77 0 0 1-.65-2h32.568a17.77 17.77 0 0 1-.65 2H3.365zM2.3 23a23.92 23.92 0 0 1-.228-2h33.856a23.507 23.507 0 0 1-.23 2H2.302zM32.315 7H5.685A13.847 13.847 0 0 1 7.7 5H30.3a13.904 13.904 0 0 1 2.014 2M5.685 31a14.166 14.166 0 0 1-1.363-2h29.356a14.159 14.159 0 0 1-1.362 2H5.685z" fill="#dd2e44"/></g></svg>