<svg xmlns="http://www.w3.org/2000/svg" viewBox="0 0 47.5 47.5"><defs><clipPath id="a"><path d="M0 38h38V0H0v38z"/></clipPath></defs><g clip-path="url(#a)" transform="matrix(1.25 0 0 -1.25 0 47.5)"><path d="M6.942 4c-.138 4.657-.507 8-.942 8-.435 0-.804-3.343-.942-8h1.884z" fill="#ffcc4d"/><path d="M17 16.577C17 11.532 14.762 10 12 10c-2.761 0-5 1.532-5 6.577C7 21.621 11 29 12 29s5-7.379 5-12.423" fill="#a6d388"/><path d="M11 17.269c0-5.574-2.238-7.27-5-7.27-2.761 0-5 1.696-5 7.27 0 5.577 4 13.73 5 13.73s5-8.153 5-13.73" fill="#77b255"/><path d="M9 21l13 13 13-13V5H9v16z" fill="#ffe8b6"/><path d="M23 5h-1v16h1V5z" fill="#fff"/><path d="M10 5H9v16h1V5zM34 5h1v16h-1V5z" fill="#ffcc4d"/><path d="M35 20a.997.997 0 0 0-.707.293L22 32.586 9.707 20.293a.999.999 0 1 0-1.414 1.414l13 13a.999.999 0 0 0 1.414 0l13-13A.999.999 0 0 0 35 20" fill="#66757f"/><path d="M22 20a.999.999 0 0 0-.707 1.707l6.5 6.5a.999.999 0 1 0 1.414-1.414l-6.5-6.5A.997.997 0 0 0 22 20" fill="#66757f"/><path d="M18 5h-4v6h4V5z" fill="#c1694f"/><path d="M30 7h-3v4h3V7z" fill="#55acee"/><path d="M26 7h2v4h-2V7zM31 7h-2v4h2V7zM18 16h-4v4h4v-4zM31 16h-5v4h5v-4z" fill="#55acee"/><path d="M37 3a2 2 0 0 0-2-2H3a2 2 0 0 0 0 4h32a2 2 0 0 0 2-2" fill="#5c913b"/><path d="M18 1h-4v4h4V1z" fill="#fff"/></g></svg>