<svg xmlns="http://www.w3.org/2000/svg" viewBox="0 0 47.5 47.5"><path d="M40 30H7.5v8.75H40V30z" fill="#d1d3d4"/><path d="M1.25 46.25h45l-5-8.75h-35l-5 8.75z" fill="#d99e82"/><path d="M38.75 26.25h-30l-6.25 5H45l-6.25-5zM38.75 18.75h-30l-5 3.75h40l-5-3.75z" fill="#66757f"/><path d="M38.75 22.5h-30v3.75h30V22.5z" fill="#d1d3d4"/><path d="M37.5 12.5H10l-1.25 6.25h30L37.5 12.5z" fill="#66757f"/><path d="M31.25 12.5v-5h-15v5h-2.5V15h20v-2.5h-2.5z" fill="#d1d3d4"/><path d="M16.25 3.75h15v2.5l2.5 2.5h-20l2.5-2.5v-2.5z" fill="#66757f"/><path d="M30 1.25V2.5H17.5V1.25h-1.25v2.5h15v-2.5H30z" fill="#99aab5"/><path d="M10.955 20l12.795-6.398L36.545 20h-25.59z" fill="#d1d3d4"/><path d="M16.25 18.75l7.5-3.75 7.5 3.75h-15zm22.5.955l-6.381-3.191-7.5-3.75-1.119-.559-1.119.559-7.5 3.75-6.381 3.191v1.545h30v-1.545z" fill="#66757f"/><path d="M40 37.5H7.5V35H40v2.5z" fill="#6d6e71"/></svg>