<svg xmlns="http://www.w3.org/2000/svg" viewBox="0 0 47.5 47.5"><defs><clipPath id="a"><path d="M0 38h38V0H0v38z"/></clipPath></defs><path d="M41.25 46.25h-35V22.5h35v23.75z" fill="#d1d3d4"/><path d="M37.5 23.75H8.75V17.5H37.5v6.25z" fill="#269"/><g clip-path="url(#a)" transform="matrix(1.25 0 0 -1.25 0 47.5)"><path d="M2 25V3a2 2 0 0 1 2-2h4v24H2zM30 25V1h4a2 2 0 0 1 2 2v22h-6z" fill="#a7a9ac"/><path d="M23 4h-8v11h8V4z" fill="#f1f2f2"/><path d="M23 18c-.295 0-.558-.391-.74-1h-6.52c-.182.609-.445 1-.74 1-.552 0-1-1.344-1-3 0-1.657.448-3 1-3s1 1.343 1 3h6c0-1.657.447-3 1-3 .553 0 1 1.343 1 3 0 1.656-.447 3-1 3" fill="#269"/><path d="M6 18H4v2h2v-2zM12 15h-2v2h2v-2zM28 15h-2v2h2v-2zM12 11h-2v2h2v-2zM28 11h-2v2h2v-2zM6 14H4v2h2v-2zM34 18h-2v2h2v-2zM34 14h-2v2h2v-2z" fill="#58595b"/><path d="M24 11H14v4h10v-4z" fill="#fff"/><path d="M19 11a2 2 0 0 1-2-2V4h4v5a2 2 0 0 1-2 2" fill="#58595b"/><path d="M25 1H13v3h12V1z" fill="#939598"/><path d="M2 25h6s-2 8-3 8-3-8-3-8M30 25h6s-2 8-3 8-3-8-3-8" fill="#269"/><path d="M9 23a1 1 0 0 0-1-1H2a1 1 0 0 0 0 2h6a1 1 0 0 0 1-1M37 23a1 1 0 0 0-1-1h-6a1 1 0 1 0 0 2h6a1 1 0 0 0 1-1" fill="#d1d3d4"/></g></svg>