<svg xmlns="http://www.w3.org/2000/svg" viewBox="0 0 47.5 47.5"><defs><clipPath id="a"><path d="M0 38h38V0H0v38z"/></clipPath></defs><g clip-path="url(#a)" transform="matrix(1.25 0 0 -1.25 0 47.5)"><path d="M35 22c0 2-2.127 4.702-4 4-8-3-19 2-19 2-2.209 0-6.857-9.257-5-10 .277-.111.541-.227.799-.343C5.648 16.913 5.283 15.191 7 15c9-1 6.896-14 8-14 1.344 0 2.685 2.614 3.422 5h9.8c.288-2.354.866-5 1.778-5 .866 0 2.611 3.542 3.794 9.142C34.528 12.768 35 16.674 35 22" fill="#ccd6dd"/><path d="M11 15c-2 0-4.946-.087-6.973-.087s-3.644 3.478-2.336 4.782C3 21 7 22 6 26c-.542 2.169 4 3 6 2 4.816-2.408 5-10-2-10 0 0 3-3 1-3M31 26c-2.586-.97-5.485-1.101-8.226-.838A8.286 8.286 0 0 1 21 20c0-4.418 3.357-8 7.5-8 2.587 0 4.866 1.396 6.215 3.521.181 1.872.285 4.017.285 6.479 0 2-2.127 4.702-4 4M22 12.5a3.5 3.5 0 1 0-7 0 3.5 3.5 0 0 0 7 0M33 9a2 2 0 1 0-4.001.001A2 2 0 0 0 33 9" fill="#292f33"/><path d="M12 28c0-.552-.671-1-1.5-1S6 29.448 6 30s2.23.308 3 0c2.5-1 3-1.448 3-2M10 24a1 1 0 1 0-2 0 1 1 0 0 0 2 0" fill="#ccd6dd"/><path d="M36 13a1 1 0 0 0-1 1v5c0 1.439-.561 2-2 2a1 1 0 1 0 0 2c2.542 0 4-1.458 4-4v-5a1 1 0 0 0-1-1" fill="#292f33"/></g></svg>