<svg xmlns="http://www.w3.org/2000/svg" viewBox="0 0 47.5 47.5"><defs><clipPath id="a"><path d="M0 38h38V0H0v38z"/></clipPath></defs><g clip-path="url(#a)" transform="matrix(1.25 0 0 -1.25 0 47.5)"><path d="M31 1H18a1 1 0 1 0 0 2h13c2.542 0 4 1.367 4 3.75C35 8.287 33.357 10 31 10h-7a1 1 0 1 0 0 2h7c3.589 0 6-2.715 6-5.25C37 3.257 34.645 1 31 1" fill="#ea596e"/><path d="M13 10.283c0 2.85 3 7.035 0 7.035-4 0-10.137-6.566-10.137-8.442C2.863 7 9.304 7 12.153 7c2.849 0 .847.433.847 3.283" fill="#ccd6dd"/><path d="M34 13.098c0 7.973-6.554 9.752-11.381 8.787-9.38-1.876-11.132-6.442-11.132-10.194C11.487 6.769 20.636 7 25.558 7 30.479 7 34 8.175 34 13.098" fill="#ccd6dd"/><path d="M26 14.504L8.894 12.629l3.531-5.63H26v7.505zM17.918 19.857c0 2.683-1.997 4.857-4.458 4.857-2.463 0-4.46-2.174-4.46-4.857C9 17.174 10.997 15 13.46 15c2.461 0 4.458 2.174 4.458 4.857" fill="#ccd6dd"/><path d="M15.37 19.317c0-1.788-1.14-3.239-2.548-3.239-1.408 0-2.548 1.451-2.548 3.24 0 1.787 1.14 3.237 2.548 3.237 1.407 0 2.548-1.45 2.548-3.238" fill="#f4abba"/><path d="M11 12.5a1.5 1.5 0 1 0-3 0 1.5 1.5 0 0 0 3 0" fill="#dd2e44"/></g></svg>