<svg xmlns="http://www.w3.org/2000/svg" viewBox="0 0 47.5 47.5"><defs><clipPath id="a"><path d="M0 38h38V0H0v38z"/></clipPath></defs><g clip-path="url(#a)" transform="matrix(1.25 0 0 -1.25 0 47.5)"><path d="M28.076 23.335s4.687-1.807 6.761-.6c2.074 1.204 2.51 2.846 1.302 4.92-1.208 2.071-4.487 2.94-4.656 5.617 0 0-.264-4.319 1.977-5.787 3.172-2.08-.445-4.387-4.207-3.915-3.765.472-1.177-.235-1.177-.235" fill="#292f33"/><path d="M3.688 14.287c-.736-2.285-.349-6.01.794-6.378 1.141-.367 2.877 1.61 1.897 2.993-1.897 2.677-.778 4.546 1.504 3.811 2.284-.735 8.686 1.146 10.194 1.922 1.508.772-4.56.79-7.211.383-2.651-.407-4.116-.038-5.302-.815-1.004-.658-1.876-1.916-1.876-1.916M18.792 6.856c1.38.986.593 3.799 2.96 3.408 2.366-.395 3.77-1.507 3.943 1.775.022.38.52-.013 1.317.614 8.218 6.462 1.05 6.288 1.05 6.288-2.762-1.974-5.698-5.114-4.733-6.51.507-.73-2.562-.79-3.745-.591-1.183.197-2.762-1.974-2.959-3.157-.196-1.181.788-2.812 2.167-1.827" fill="#d99e82"/><path d="M31.83 20.249c.005 1.129-1.758 4.602-5.295 4.602-3.6 0-5.998-1.199-8.397-1.199S14.2 22.203 13 27c-.919 3.68-3.4 5.201-7 4 0 0-3.455 2.248-2.255 1.048.494-.494.706-.994.762-1.459-2.103-1.257-1.13-3.416-2.253-4.539-.848-.847-1.199-1.199-1.199-2.398 0-.991 1.63-1.15 2.875-.505.723 1.704.353 1.057 1.473 1.707 1.03.017 1.94.151 1.94 1.196 0 0 1.2 0 1.2-2.398 0-1.144-1.083-2.292.893-5.513 0 0 1.19-1.911.836-2.581-1.254-2.371-1.533-5.044-2.507-5.743-.977-.698.42-2.648.42-2.648 1.394-1.952 4.741-2.508 5.717-1.812.976.699.278 1.675-1.395 1.955-1.673.275-5.02.833-3.07 2.227C11.388 10.934 12.723 11.327 13 13c.08.469 2 1 2 1s2-1 4.337.055c2.043.922 4.481 2.09 6.722.414l.07.039c-.714-1.535-.969-2.893-.276-3.477.683-.573-2.265-1.434-3.46-1.553-1.193-.123-2.147-2.628-2.027-3.821.121-1.193 1.748-2.7 2.82-1.387 1.074 1.314-2.107 3.162 1.714 4.254 2.307.66 4.034-.466 3.341 2.746-.08.374.068.786.693 1.586 3.284 4.216 2.888 6.263 2.896 7.393" fill="#c1694f"/><path d="M5.27 30.67c2.399 2.4 4.428 1.898 6.323 0 2.4-2.397 1.334-4.921 4.147-6.82C17 23 13 23 12.14 27.45c-.508 2.633-3.382 3.898-6.87 3.22" fill="#292f33"/></g></svg>