<svg xmlns="http://www.w3.org/2000/svg" viewBox="0 0 47.5 47.5"><defs><clipPath id="a"><path d="M0 38h38V0H0v38z"/></clipPath></defs><g clip-path="url(#a)" transform="matrix(1.25 0 0 -1.25 0 47.5)"><path d="M34.912 22.63C34.588 24.398 32.975 26 31 26H10c-1 0-5.325-.035-6-2l-2.309-6.305c-.675-1.964.31-4.782 2.336-4.782 1.15 0 2.595.029 3.997.052C11.016 8.954 13.898 1 15 1c.85 0 1.572 3.414 1.862 6h11.25c.235-2.528.843-6 1.888-6 .954 0 2.976 4.3 4.136 10.917.43 1.9.725 4.418.824 7.647A4.02 4.02 0 0 0 35 19v-9a1 1 0 1 1 2 0v9c0 1.807-.749 3.053-2.088 3.63" fill="#c1694f"/><path d="M11 25c-2-2-4.791 1-7 1-2.209 0-3 .434-3 .969 0 .535 1.791.969 4 .969S13 27 11 25" fill="#ccd6dd"/><path d="M8 21a1 1 0 1 0-2 0 1 1 0 0 0 2 0" fill="#292f33"/></g></svg>