<svg xmlns="http://www.w3.org/2000/svg" viewBox="0 0 47.5 47.5"><defs><clipPath id="a"><path d="M0 38h38V0H0v38z"/></clipPath></defs><g clip-path="url(#a)" transform="matrix(1.25 0 0 -1.25 0 47.5)"><path d="M10 21.44c0 4 2 8 0 10s-3-2-2-2c1.414 0 2-2 1-5s1-4 1-3M6.125 21.44c0 4 2 8 0 10s-3-2-2-2c1.414 0 2-2 1-5s1-4 1-3" fill="#9266cc"/><path d="M37 2.064c0-1-1-1-2-1H12c-5 0-7.272 3.09-8 6-1 4 2 11 0 12s-3 1-3 3 4.47 5.265 7 4c4-2 2.767-6.932 2-10-.88-3.52 1.115-3.594 5-5 4.939-1.787 12.32-4.439 14-5 3-1 8-3 8-4" fill="#aa8dd8"/><path d="M11.925 12.065c2.887-1 3.849-9 13.472-9 6.377 0 8.66 5.479 8.66 11 0 5.523-5.17 10-11.547 10-6.377 0-11.498-11.684-10.585-12" fill="#ffcc4d"/><path d="M25.914 3.063c1.708 0 3.39.48 4.893 1.417 2.184 1.361 3.728 3.527 4.347 6.098 1.531 6.364-2.206 12.835-8.329 14.426-7.392 1.923-14.919-2.77-16.767-10.455-.258-1.072.37-2.158 1.4-2.425 1.026-.272 2.075.382 2.334 1.455 1.334 5.546 6.761 8.93 12.1 7.544 4.063-1.056 6.543-5.352 5.528-9.575-.369-1.532-1.29-2.825-2.594-3.638a5.467 5.467 0 0 0-4.31-.665 4.152 4.152 0 0 0-2.565 1.972 4.456 4.456 0 0 0-.469 3.281 3.041 3.041 0 0 0 1.344 1.887c.676.42 1.527.706 2.234.344 1.298-.664 1.298-2.664.336-3.664-.752-.782 1.604-1.066 2.887 0 1.151.954 1.645 2.491 1.07 4.198-.583 1.724-1.806 2.943-3.359 3.347a6.533 6.533 0 0 1-5.148-.797c-1.557-.97-2.658-2.514-3.098-4.346a8.55 8.55 0 0 1 .903-6.307c1.103-1.91 2.853-3.258 4.931-3.796a9.264 9.264 0 0 1 2.332-.301" fill="#ffac33"/></g></svg>