<svg xmlns="http://www.w3.org/2000/svg" viewBox="0 0 47.5 47.5"><defs><clipPath id="a"><path d="M0 38h38V0H0v38z"/></clipPath></defs><g clip-path="url(#a)" transform="matrix(1.25 0 0 -1.25 0 47.5)"><path d="M10 26c0 4.142-2 11-1 11s7-4 5-11c-1.138-3.983-.896-4-2-4s-2-.142-2 4" fill="#99aab5"/><path d="M10.55 25.296c0 3.414-1.297 9.065-.648 9.065.648 0 4.538-3.296 3.24-9.065-.737-3.282-.58-3.296-1.296-3.296-.716 0-1.296-.118-1.296 3.296" fill="#f4abba"/><path d="M5.789 24.625C4.727 28.628 1.034 34.744 1.999 35c.968.257 7.793-2.07 7.656-9.349-.077-4.141.16-4.096-.907-4.379-1.067-.283-1.897-.65-2.96 3.353" fill="#99aab5"/><path d="M6.5 24.086c-.876 3.299-3.579 8.429-2.953 8.595.627.167 5.232-2.022 5.46-7.93.128-3.361.284-3.335-.408-3.52-.693-.182-1.223-.444-2.099 2.855" fill="#f4abba"/><path d="M37 8.5a3.5 3.5 0 1 0-7 0 3.5 3.5 0 0 0 7 0" fill="#ccd6dd"/><path d="M31.733 5.264C33.226 6.647 34 8.783 34 12c0 7.18-6.82 11-14 11-2.058 0-3.829-.157-5.324-.54C13.591 23.59 11.817 24 9.4 24 5.135 24 1 19.93 1 15.667c0-4.13 3.88-4.636 7.998-4.664L9 11c3-5 1-10 3-10 1.588 0 1.914 2.217 1.981 4.375a14.873 14.873 0 0 1 3.531-1.577C16.634 3.275 16 2.73 16 2.5 16 1.119 18 1 21 1c5.522 0 13 0 11 4a.705.705 0 0 1-.267.264" fill="#99aab5"/><path d="M8 19a1 1 0 1 0-2 0 1 1 0 0 0 2 0" fill="#292f33"/><path d="M3 16c0-1.104-.5-2-1-2s-1 .896-1 2 .448 1 1 1 1 .104 1-1" fill="#f4abba"/></g></svg>