<svg xmlns="http://www.w3.org/2000/svg" viewBox="0 0 47.5 47.5"><defs><clipPath id="a"><path d="M0 38h38V0H0v38z"/></clipPath></defs><g clip-path="url(#a)" transform="matrix(1.25 0 0 -1.25 0 47.5)"><path d="M20 5c0-1-1.723-3-3.334-3C15.056 2 15 3.343 15 5s1.306 3 2.916 3C19.527 8 20 6.657 20 5M31 5c0-1-1.723-3-3.334-3C26.056 2 26 3.343 26 5s1.306 3 2.916 3C30.527 8 31 6.657 31 5" fill="#3e721d"/><path d="M37 12c0 6-3.172 9.171-6 12-1 1-1.399-.321-1-1 .508-.862 3-8-2-8h-2c-5 0-6.172 1.172-9 4-4.5 4.5-7 0-9 0-6 0-7 1.813-7-2 0-3 3-4 6-4s3-1 5-4c1.071-1.606 2.836-3.211 5.023-4.155C17.255 3.726 19.797 1 21.334 1 22.944 1 23 2.343 23 4h5c.034 0 .066.01.101.01.291-.005.586-.01.899-.01 0-1 1.723-3 3.334-3C33.944 1 34 2.343 34 4c0 .302-.057.587-.137.861C35.612 5.807 37 7.791 37 12" fill="#5c913b"/><path d="M11 18.877a1.5 1.5 0 1 1 3 0c0 .829-.671 0-1.5 0s-1.5.829-1.5 0" fill="#292f33"/><path d="M27 13c0-.553.672-1 1.5-1s1.5.447 1.5 1c0 .553-.672 1-1.5 1s-1.5-.447-1.5-1M23 13c0-.553.672-1 1.5-1s1.5.447 1.5 1c0 .553-.672 1-1.5 1s-1.5-.447-1.5-1M19 13c0-.553.672-1 1.5-1s1.5.447 1.5 1c0 .553-.672 1-1.5 1s-1.5-.447-1.5-1M21 11c0-.553.672-1 1.5-1s1.5.447 1.5 1c0 .553-.672 1-1.5 1s-1.5-.447-1.5-1M25 11c0-.553.672-1 1.5-1s1.5.447 1.5 1c0 .553-.672 1-1.5 1s-1.5-.447-1.5-1" fill="#77b255"/><path d="M7 15c-.389 0-1 1-1 1h2s-.611-1-1-1M5 14.531c-.389 0-1 1.47-1 1.47h2s-.611-1.47-1-1.47M3 14c-.389 0-1 2-1 2h2s-.611-2-1-2" fill="#fff"/></g></svg>