<svg xmlns="http://www.w3.org/2000/svg" viewBox="0 0 47.5 47.5"><defs><clipPath id="a"><path d="M0 38h38V0H0v38z"/></clipPath></defs><g clip-path="url(#a)" transform="matrix(1.25 0 0 -1.25 0 47.5)"><path d="M26 2c-2.75 0-2 6-2 6 0 1.104 2.646 2 3.75 2S31 10.104 31 9c0 0-2.25-7-5-7" fill="#292f33"/><path d="M29 1c-2.75 0-2 6-2 6 0 1.104 2.646 2 3.75 2S34 9.104 34 8c0 0-2.25-7-5-7" fill="#66757f"/><path d="M15 2c-2.75 0-4 6-4 6 0 1.104 2.646 2 3.75 2S18 10.104 18 9c0 0-.25-7-3-7" fill="#292f33"/><path d="M18 1c-2.75 0-4 6-4 6 0 1.104 2.646 2 3.75 2S21 9.104 21 8c0 0-.25-7-3-7" fill="#66757f"/><path d="M36.75 15.616c0-7.782-4.495-11.408-14.519-11.408-10.023 0-13.481 3.626-13.481 11.408 0 7.783 3.458 11.407 13.481 11.407 10.024 0 14.519-3.624 14.519-11.407" fill="#e1e8ed"/><path d="M18 19.333C18 10 13.345 8 9.042 8 4.738 8 2 14.64 2 19.333 2 24.027 4.738 25 9.042 25 13.345 25 18 24.027 18 19.333" fill="#99aab5"/><path d="M7 16.5a1.5 1.5 0 1 0-3 0 1.5 1.5 0 0 0 3 0" fill="#292f33"/><path d="M16.75 24.25C15 21 14.622 21.644 9.622 19.644 6.545 18.413 1 18.75 1 23.5 1 25.433 4.687 26 8 26s10.409 1.332 8.75-1.75" fill="#e1e8ed"/><path d="M17 23.304c3.353-2.427 5.43-6.139 3.724-11.089-1.368-3.967-6.817-3.116-9.617-1.127-2.798 1.988-2.642 4.792-1.733 6.291.909 1.497 4.158 1.228 6.024-.097.934-.663.288-1.56-.72-1.068-2.292 1.118-3.037-1.444-1.246-2.882 1.265-1.016 3.274-1.049 3.655 1.01.671 3.63-3.505 6.274-7.465 5.301C12 21 14.161 25.36 17 23.304" fill="#ffcc4d"/></g></svg>