<svg xmlns="http://www.w3.org/2000/svg" viewBox="0 0 47.5 47.5"><defs><clipPath id="a"><path d="M0 38h38V0H0v38z"/></clipPath></defs><g clip-path="url(#a)" transform="matrix(1.25 0 0 -1.25 0 47.5)"><path d="M34.912 22.63C34.588 24.398 32.975 26 31 26H12c-.239 0-.522-.135-.83-.365A3.92 3.92 0 0 1 9.565 26c-1 0-4.732-.375-5.565-2l-2.309-4.305c-.675-1.964.31-4.782 2.336-4.782.57 0 1.535.007 2.665.017 1.65-.286 3.602-1.504 5.436-2.848C14.248 7.675 15.048 1 16 1c.964 0 2.53 4.409 2.912 7h9.124c.147-2.48.772-7 1.964-7 1.016 0 3.24 4.883 4.347 12.238.315 1.625.532 3.698.615 6.32.023-.171.038-.353.038-.558V7a1 1 0 1 1 2 0v12c0 1.807-.749 3.053-2.088 3.63" fill="#292f33"/><path d="M8 21a1 1 0 1 0-2 0 1 1 0 0 0 2 0" fill="#fff"/><path d="M11 22c3 0 6.708 1.625 6.708 5.625 0 2-1.552 4.101-4.458 4.167C9.128 31.884 7.375 29 8 28.625c.528-.317 2 1.875 4.5 1.375 1.861-.372 2.054-1.567 1.667-2.333C13.716 26.774 12 26 10 26s-1-4 1-4" fill="#99aab5"/></g></svg>