<svg xmlns="http://www.w3.org/2000/svg" viewBox="0 0 47.5 47.5"><defs><clipPath id="a"><path d="M0 38h38V0H0v38z"/></clipPath></defs><g clip-path="url(#a)" transform="matrix(1.25 0 0 -1.25 0 47.5)"><path d="M12.84 29.366c-.719 0-2.295-2.243-3.567-1.03-.44.42 1.817 1.28 1.727 2.018-.076.608-2.843 1.52-1.876 2.099.967.578 2.418-.841 3.513-.866 2.382-.054 4.212.853 4.238.866a1.082 1.082 0 0 0 1.464-.496 1.115 1.115 0 0 0-.488-1.486c-.13-.066-2.225-1.105-5.01-1.105" fill="#dd2e44"/><path d="M28.818 1c-3.967 0-8.182 2.912-8.182 8.308 0 1.374-.889 1.661-1.636 1.661-.746 0-1.637-.287-1.637-1.661C17.363 3.912 13.148 1 9.181 1c-3.966 0-8.18 2.77-8.18 8.308C1 22.6 15.18 24.435 15.18 22.6c0-1.835-7.636 1.108-7.636-12.185 0-2.215.89-2.769 1.636-2.769.747 0 1.637.288 1.637 1.662 0 5.395 4.215 8.307 8.182 8.307 3.965 0 8.181-2.912 8.181-8.307 0-1.374.89-1.662 1.637-1.662s1.636.288 1.636 1.662v16.615c0 3.855-3.417 4.431-5.454 4.431 0 0-3.273-1.108-6.546-1.108s-4.364 2.596-4.364 4.431S18.454 37 25 37s12-4.451 12-11.077V9.308C37 3.912 32.784 1 28.818 1" fill="#77b255"/><path d="M21 34a1 1 0 1 0-2 0 1 1 0 0 0 2 0" fill="#292f33"/></g></svg>