<svg xmlns="http://www.w3.org/2000/svg" viewBox="0 0 47.5 47.5"><defs><clipPath id="a"><path d="M0 38h38V0H0v38z"/></clipPath></defs><g clip-path="url(#a)" transform="matrix(1.25 0 0 -1.25 0 47.5)"><path d="M12.12 31.05a6 6 0 0 0-2.117-8.217C7.15 21.15 5.684 20.146 4 23 2.315 25.853 1.517 35.242 2.378 35.75c.861.508 8.058-1.846 9.742-4.7" fill="#d99e82"/><path d="M12.01 27.217c1.685-2.853 1.167-6.278-1.156-7.65-2.323-1.372-4.17-.17-5.854 2.684-1.685 2.854-2.472 9.82-1.77 10.234.7.413 7.096-2.414 8.78-5.268" fill="#c1694f"/><path d="M25.88 31.05a6 6 0 0 1 2.116-8.217C30.85 21.15 32.316 20.146 34 23c1.686 2.854 2.483 12.243 1.62 12.751-.86.508-8.055-1.846-9.74-4.7" fill="#d99e82"/><path d="M25.621 27.612c-1.685-2.853-1.167-6.278 1.156-7.65 2.323-1.37 4.54-.17 6.223 2.684 1.685 2.854 2.103 9.82 1.402 10.234-.7.413-7.097-2.414-8.78-5.268" fill="#c1694f"/><path d="M36 15.521c0-9.989-1-14.52-17-14.52S2 5.531 2 15.52c0 9.99 7.011 19.48 17 19.48s17-9.49 17-19.48" fill="#d99e82"/><path d="M8.65 8s-3.64 3-4.64 11.5c-.235 1.986 1.695 1.977 2 0C7.01 13 12.36 9 15 7c2.254-1.708-6.35 1-6.35 1M29.35 8s3.64 3 4.64 11.5c.235 1.986-1.695 1.977-2 0C30.99 13 25.64 9 23 7c-2.254-1.708 6.35 1 6.35 1" fill="#e1e8ed"/><path d="M30 8c0-1.104-3.82-3-11-3S8 6.896 8 8s3.82-1 11-1 11 2.104 11 1" fill="#662113"/><path d="M29 13.875C29 9.388 25.903 4.5 19 4.5c-6.904 0-10 4.888-10 9.375S12.096 19.5 19 19.5c6.903 0 10-1.138 10-5.625" fill="#c1694f"/><path d="M16 12.4c0-1.857-.34-2.4-1.5-2.4s-1.5.543-1.5 2.4c0 1.856.34 2.4 1.5 2.4s1.5-.544 1.5-2.4M25 12.4c0-1.857-.34-2.4-1.5-2.4s-1.5.543-1.5 2.4c0 1.856.34 2.4 1.5 2.4s1.5-.544 1.5-2.4" fill="#662113"/><path d="M14 21.998a2 2 0 1 0-4.001.001A2 2 0 0 0 14 21.998M28 21.998a2 2 0 1 0-4.001.001A2 2 0 0 0 28 21.998" fill="#292f33"/></g></svg>