<svg xmlns="http://www.w3.org/2000/svg" viewBox="0 0 47.5 47.5"><defs><clipPath id="a"><path d="M0 38h38V0H0v38z"/></clipPath></defs><g clip-path="url(#a)" transform="matrix(1.25 0 0 -1.25 0 47.5)"><path d="M36 16H2a1 1 0 1 0 0 2h34a1 1 0 1 0 0-2M13.823 18l-.07.002c-.091.007-9.213.714-10.733 8.235a1.001 1.001 0 0 0 .782 1.179.998.998 0 0 0 1.178-.782c1.22-6.044 8.833-6.631 8.91-6.636A1.001 1.001 0 0 0 13.823 18M4 6a1 1 0 0 0-.905 1.424c3.165 6.77 11.037 7.721 11.371 7.758a1.004 1.004 0 0 0 1.104-.882 1.003 1.003 0 0 0-.882-1.107c-.07-.007-7.099-.876-9.783-6.617A1 1 0 0 0 4 6" fill="#292f33"/><path d="M23.753 18a1 1 0 0 0-.065 1.998c.08.005 8.116.617 9.332 6.636a.994.994 0 0 0 1.178.782c.54-.11.892-.637.783-1.179-1.522-7.525-10.77-8.21-11.163-8.235a1.41 1.41 0 0 0-.065-.002M34.001 6a1 1 0 0 0-.907.576c-2.695 5.763-10.124 6.61-10.198 6.617a.999.999 0 1 0 .209 1.989c.351-.037 8.633-.984 11.801-7.758A1 1 0 0 0 34.001 6" fill="#292f33"/><path d="M25.99 29.234c-.07 2.626-1.278 4.216-3.096 5.04.067.226.106.47.106.726 0 1.105-.672 2-1.5 2s-1.5-.895-1.5-2c0-.015.003-.029.003-.043-.328.026-.66.043-1.003.043-.342 0-.675-.017-1.004-.043.001.014.004.028.004.043 0 1.105-.672 2-1.5 2-.829 0-1.5-.895-1.5-2 0-.257.04-.5.105-.726-1.817-.824-3.025-2.414-3.095-5.04C8.98 27.45 7 24.338 7 20c0-7.16 5.372-16.923 12-16.923S31 12.84 31 20c0 4.338-1.98 7.45-5.01 9.234" fill="#292f33"/><path d="M17.001 2.041C10.564 2.636 5.5 8.936 5.5 16.622c0 7.685 5.064 10.781 11.5 11.377.33.031 1 .046 1-2.294V3.164c0-1.17-.669-1.155-.999-1.123M20.999 2.041C27.436 2.636 32.5 8.936 32.5 16.622c0 7.685-5.064 10.781-11.5 11.377-.33.031-1 .046-1-2.294V3.164c0-1.17.67-1.155.999-1.123" fill="#dd2e44"/><path d="M16 22a2 2 0 1 0-4.001.001A2 2 0 0 0 16 22M14 15a3 3 0 1 0-6 0 3 3 0 0 0 6 0M16 8a2 2 0 1 0-4.001.001A2 2 0 0 0 16 8M28 22.5a2.5 2.5 0 1 0-5 0 2.5 2.5 0 0 0 5 0M25 16.5a1.5 1.5 0 1 0-3.001.001A1.5 1.5 0 0 0 25 16.5M31 14a2 2 0 1 0-4.001.001A2 2 0 0 0 31 14M28 8a3 3 0 1 0-6 0 3 3 0 0 0 6 0" fill="#292f33"/></g></svg>