<svg xmlns="http://www.w3.org/2000/svg" viewBox="0 0 47.5 47.5"><defs><clipPath id="a"><path d="M0 38h38V0H0v38z"/></clipPath><clipPath id="b"><path d="M25.83 31.529L15.333 30.2c-2.898-.366-4.951-3.61-4.585-7.239l1.329-13.157c.366-3.632 3.738-6.186 5.913-5.912 3.393.427 14.178 17.472 13.752 21.724-.396 3.922-2.632 5.955-5.254 5.955-.217 0-.437-.014-.658-.042"/></clipPath><clipPath id="c"><path d="M0 38h38V0H0v38z"/></clipPath><clipPath id="d"><path d="M17.668 35.227l-7.789-.985c-2.15-.273-3.673-2.68-3.402-5.373l.986-9.758c.272-2.696 2.775-4.591 4.387-4.39 2.518.32 10.522 12.965 10.204 16.119-.294 2.911-1.951 4.418-3.896 4.418-.162 0-.325-.01-.49-.031"/></clipPath><clipPath id="e"><path d="M0 38h38V0H0v38z"/></clipPath></defs><g clip-path="url(#a)" transform="matrix(1.25 0 0 -1.25 0 47.5)"><path d="M30.049 29.967c4.423-4.424 5.71-21.367 1.289-25.788C26.913-.245 19.153.396 14.73 4.82c-2.98 2.98-3.834 10.952.589 15.377 4.424 4.421 10.306 14.194 14.729 9.771" fill="#ccd6dd"/><path d="M17.99 3.892c-2.175-.273-5.546 2.28-5.913 5.912l-1.33 13.157c-.365 3.63 1.688 6.873 4.587 7.24l10.496 1.328c2.898.365 5.483-1.666 5.912-5.912.426-4.252-10.36-21.297-13.752-21.725" fill="#ccd6dd"/></g><g clip-path="url(#b)" transform="matrix(1.25 0 0 -1.25 0 47.5)"><path d="M11.35 10.532c-2.175-.274-5.549 2.282-5.916 5.914L4.107 29.6c-.367 3.632 1.686 6.875 4.584 7.243L19.19 38.17c2.898.366 5.483-1.665 5.912-5.91.428-4.255-10.359-21.3-13.752-21.728" fill="#99aab5"/></g><g clip-path="url(#c)" transform="matrix(1.25 0 0 -1.25 0 47.5)"><path d="M11.85 14.722c-1.613-.202-4.115 1.693-4.388 4.389l-.985 9.758c-.272 2.694 1.252 5.1 3.402 5.374l7.788.984c2.151.272 4.07-1.234 4.387-4.386.318-3.155-7.686-15.8-10.204-16.12" fill="#ccd6dd"/></g><g clip-path="url(#d)" transform="matrix(1.25 0 0 -1.25 0 47.5)"><path d="M6.351 20.22c-1.612-.203-4.114 1.694-4.387 4.388L.98 34.367c-.272 2.695 1.251 5.1 3.401 5.375l7.788.983c2.151.273 4.07-1.232 4.388-4.386.317-3.156-7.687-15.8-10.205-16.118" fill="#99aab5"/></g><g clip-path="url(#e)" transform="matrix(1.25 0 0 -1.25 0 47.5)"><path d="M7.247 24.194c-.993-.125-2.533 1.043-2.7 2.702l-.607 6.006c-.167 1.66.77 3.14 2.093 3.308l4.795.606c1.324.168 2.503-.759 2.7-2.699.196-1.943-4.733-9.725-6.28-9.923" fill="#ccd6dd"/><path d="M31.61 22.604c.8-2.371 1.544-11.57-1.533-15.543-3.079-3.972-8.043 1.389-5.312 6.205 2.73 4.815 6.035 11.733 6.844 9.338" fill="#66757f"/></g></svg>