<svg xmlns="http://www.w3.org/2000/svg" viewBox="0 0 47.5 47.5"><defs><clipPath id="a"><path d="M0 38h38V0H0v38z"/></clipPath></defs><g clip-path="url(#a)" transform="matrix(1.25 0 0 -1.25 0 47.5)"><path d="M25.88 3.903a.977.977 0 0 1-.418.391C23.865 6 25 8.001 25 8.001c0 .552 1 2 0 2l-1-1c-1-1-1-4-1-4h-2a1 1 0 1 1 0-2h1.108l-.222-.12a1 1 0 0 1 .95-1.76l2.64 1.427a.999.999 0 0 1 .404 1.355M18.88 3.903a.974.974 0 0 1-.417.391C16.866 6 18 8.001 18 8.001c0 .552 1 2 0 2l-1-1c-1-1-1-4-1-4h-2a1 1 0 1 1 0-2h1.108l-.222-.12a1 1 0 0 1 .95-1.76l2.64 1.427a.999.999 0 0 1 .404 1.355M8.516 27c0-1.104-1.12-2-2.5-2-1.381 0-3.5 1-3.5 2s2.119 2 3.5 2c1.38 0 2.5-.896 2.5-2" fill="#ffac33"/><path d="M14.516 35c-2 1-3-1-3-1s0 3-3 3-3-3-3-3-3 .938-3-2c0-1.482 1.1-2.411 2.484-2.387V25c0-1 .264-3-.736-4s-2.485-4 .515-4 3 4 3 7c1-1 4-1 4 4 0 .867-.213 1.512-.55 2h1.287c4 0 4 4 2 5" fill="#dd2e44"/><path d="M33.516 28c4-10 0-22-13-22-7.732 0-13 6-14 11-1.177 5.883-1 8-1 12 0 2.738 2.118 4.824 5 4 7-2 5-10 12-10 10 0 8.23 11.923 11 5" fill="#e1e8ed"/><path d="M9.516 29a1 1 0 1 0-2 0 1 1 0 0 0 2 0" fill="#292f33"/></g></svg>