<svg xmlns="http://www.w3.org/2000/svg" viewBox="0 0 47.5 47.5"><defs><clipPath id="a"><path d="M0 38h38V0H0v38z"/></clipPath></defs><g clip-path="url(#a)" transform="matrix(1.25 0 0 -1.25 0 47.5)"><path d="M33.153 13c0 1 1.523 6.212 3.047 7.735 1.522 1.524 0 3.166-1.524 3.166-3.405 0-9.138-6.901-9.138-10.901 0-5 5.733-10.424 9.138-10.424 1.524 0 3.046 1.404 1.524 2.928C34.676 7.026 33.153 11 33.153 13" fill="#3b88c3"/><path d="M10.021 22.616c0 3.046 1.497 6.093 3.02 6.093 4.57 0 13.322-4.823 14.845-12.44 1.524-7.615-17.864 6.347-17.864 6.347M14.876 4.338c1.523-1.523 4.57-3.047 7.617-3.047 3.046 0-3.111 4.19-1.524 6.092 2.18 2.617-6.094-3.045-6.094-3.045" fill="#3b88c3"/><path d="M3.071 8.273c.761 2.285.19 3.935-1.143 5.584-1.333 1.651 3.872 1.904 5.585-.38 1.714-2.286 5.713-6.282 2.16-6.22C6.116 7.32 3.07 8.272 3.07 8.272"/><path d="M1.169 13.512c.959-.874 7.223-4.31 7.165-5.137-.058-.828-2.28.088-3.105.28-1.485.34-1.905.597-2.317.526-.84-.321-.554-1.201-.242-1.704 1.498-2.611 7.286-4.662 12.16-4.662 8.412 0 16.802 7.615 16.802 10.662 0 3.046-9.344 10.663-17.756 10.663-8.393 0-12.696-6.062-12.707-10.628" fill="#55acee"/><path d="M8 20a2 2 0 1 0 .001-3.999A2 2 0 0 0 8 20"/><path d="M16.08 7.02a.997.997 0 0 0-.885 1.463c1.585 3.033 2.218 5.766.154 9.242a1.002 1.002 0 0 0 1.72 1.022c2.693-4.536 1.46-8.203-.102-11.19a.998.998 0 0 0-.887-.538" fill="#269"/></g></svg>