<svg xmlns="http://www.w3.org/2000/svg" viewBox="0 0 47.5 47.5"><defs><clipPath id="a"><path d="M0 38h38V0H0v38z"/></clipPath></defs><g clip-path="url(#a)" transform="matrix(1.25 0 0 -1.25 0 47.5)"><path d="M34.738 16.632c-.799 5.542-5.186 9.78-12.563 9.78-.292 0-.62-.012-.963-.03a25.527 25.527 0 0 1-4.399-.56 34.048 34.048 0 0 1-2.254-.514c-.775 1.05-2.342 2.163-2.736 2.163-.512 0-.038-1.871-.006-3.052-.88-.35-1.684-.742-2.347-1.183-3.176-2.118-3.176-3.177-6.838-3.177-1.632 0-1.588-1.658-1.588-3.705 0-2.046-.044-2.618 1.588-3.707 2.183-1.456 4.731-3.613 7.952-5.386C12.608 4.114 10.91 1 12.647 1c1.227 0 2.807 1.964 3.648 3.944a22.791 22.791 0 0 1 5.88-.768c1.142 0 2.205.089 3.202.245C25.65 2.476 25.217 1 26.412 1c1.555 0 6.998 4.994 8.218 11.29.06.287.103.582.141.882.012.09.03.18.038.27.021.2.031.405.041.609 1.047-.274 2.15-.692 2.15.175 0 .705-1.119 1.716-2.262 2.406" fill="#f4abba"/><path d="M11.588 20.059a1.06 1.06 0 1 0-2.119 0 1.06 1.06 0 0 0 2.119 0" fill="#292f33"/></g></svg>