<svg xmlns="http://www.w3.org/2000/svg" viewBox="0 0 47.5 47.5"><defs><clipPath id="a"><path d="M0 38h38V0H0v38z"/></clipPath></defs><g clip-path="url(#a)" transform="matrix(1.25 0 0 -1.25 0 47.5)"><path d="M30 21.111s6 0 4 6c-1 3 1 1 2-1s2-8-5-7-1 2-1 2" fill="#662113"/><path d="M33.958 17.16c.027.312.042.596.042.84 0 .658-.063 1-.171 1.123-.896 2.946-5.522 2.896-10.853 2.88C19.989 22.024 18 26.102 18 27c0 5-4.848 6.182-7.5 3C8 27 3 30.037 3 27c0-5 3.358-8 7.5-8 .648 0 1.736.15 3.01.381.941-1.647 1.39-3.88 1.49-4.38.024-.12.05-.236.075-.354C15.51 10.027 17.756 1 19 1c1.07 0 1.681 2.484 1.902 5.4.886-.26 1.91-.4 3.098-.4 1.112 0 2.137.247 3.078.66C27.283 3.631 27.898 1 29 1c1.292 0 4.544 11.5 4.956 16.144l.002.015" fill="#d99e82"/><path d="M5 26.5c0-.829-1.171-1.5-2-1.5s-1.5 1.171-1.5 2 .671 1 1.5 1c2 0 2-.671 2-1.5M19 25c0-3.038-1.344-3.5-3-3.5-1.657 0-3 .462-3 3.5s.343 7 2 7 4-3.962 4-7" fill="#662113"/><path d="M12 28a1 1 0 1 0-2 0 1 1 0 0 0 2 0" fill="#292f33"/><path d="M32 17.5c0-1.38-1.343-2.5-3-2.5s-3 1.12-3 2.5c0 1.381 1.343 2.5 3 2.5s3-1.119 3-2.5M25 18.5a1.5 1.5 0 1 0-3.001.001A1.5 1.5 0 0 0 25 18.5M27 13.5a1.5 1.5 0 1 0-3.001.001A1.5 1.5 0 0 0 27 13.5" fill="#c1694f"/></g></svg>