<svg xmlns="http://www.w3.org/2000/svg" viewBox="0 0 47.5 47.5"><defs><clipPath id="a"><path d="M0 38h38V0H0v38z"/></clipPath></defs><g clip-path="url(#a)" transform="matrix(1.25 0 0 -1.25 0 47.5)"><path d="M11 25c3-5 0-10.692-3-9.692s-4-2-1-3 9.465.464 13 4c1 1 2 1 2 1L11 25z" fill="#553788"/><path d="M27 25c-3-5 0-10.692 3-9.692s4-2 1-3-9.465.464-13 4c-1 1-2 1-2 1L27 25z" fill="#553788"/><path d="M31.189 21c-3-5 0-10.692 3-9.692s4-2 1-3-9.465.464-13 4c-1 1-2 1-2 1l11 7.692zM6.811 21c3-5 0-10.692-3-9.692s-4-2-1-3 9.465.464 13 4c1 1 2 1 2 1L6.811 21z" fill="#744eaa"/><path d="M34.188 5.625c-2.729-.91-6.425 5.626-4.812 10.578C31.022 19.446 32 23.06 32 26c0 7.18-5.82 11-13 11S6 33.18 6 26c0-2.94.977-6.554 2.623-9.797 1.613-4.952-2.082-11.488-4.812-10.578-3 1-4-3-1-4s8.31.627 12 4c2.19 2 4.19 2 4.19 2s2 0 4.187-2c3.69-3.373 9-5 12-4s2 5-1 4" fill="#9266cc"/><path d="M17 16a2 2 0 1 0-4.001.001A2 2 0 0 0 17 16M25 16a2 2 0 1 0-4.001.001A2 2 0 0 0 25 16" fill="#292f33"/></g></svg>