<svg xmlns="http://www.w3.org/2000/svg" viewBox="0 0 47.5 47.5"><defs><clipPath id="a"><path d="M0 38h38V0H0v38z"/></clipPath><clipPath id="b"><path d="M8.719 17c0-6.133 4.603-13 10.281-13 5.679 0 10.281 6.867 10.281 13S24.679 25.923 19 25.923c-5.678 0-10.281-2.79-10.281-8.923"/></clipPath><clipPath id="c"><path d="M0 38h38V0H0v38z"/></clipPath></defs><g clip-path="url(#a)" transform="matrix(1.25 0 0 -1.25 0 47.5)"><path d="M20 4c0-1.657-.447-3-1-3-.552 0-1 1.343-1 3s.448 3 1 3c.553 0 1-1.343 1-3M26.753 35.753c-.586.586-1.693.428-2.475-.354-.611-.611-1.948-2.53-2.222-3.62-.884.196-1.93.22-3.056.22-1.125 0-2.172-.024-3.055-.218-.275 1.089-1.611 3.007-2.223 3.618-.781.782-1.888.94-2.474.354-.586-.586-.428-1.693.353-2.475.51-.51 1.937-1.53 3.027-2.011-.82-.533-1.315-1.451-1.315-3.032 0-3.59 2.546-7.312 5.687-7.312 3.142 0 5.688 3.723 5.688 7.312 0 1.58-.496 2.499-1.316 3.032 1.09.482 2.517 1.5 3.027 2.01.782.783.94 1.89.354 2.476" fill="#292f33"/><path d="M29.281 17c0-6.134-4.603-13-10.28-13-5.679 0-10.282 6.866-10.282 13 0 6.133 4.603 8.923 10.281 8.923 5.678 0 10.281-2.79 10.281-8.923" fill="#292f33"/></g><g clip-path="url(#b)" transform="matrix(1.25 0 0 -1.25 0 47.5)"><path d="M30 18H8v4h22v-4zM30 10H8v4h22v-4zM30 2H8v4h22V2z" fill="#ffcc4d"/><path d="M19 23c0-2.647-7.858-10-12-10s-6 5.354-6 8 1.858 1.584 6 1.584c4.143 0 12 3.06 12 .416M19 23c0-2.647 7.857-10 12-10s6 5.354 6 8-1.857 1.584-6 1.584-12 3.06-12 .416" fill="#292f33"/></g><g clip-path="url(#c)" transform="matrix(1.25 0 0 -1.25 0 47.5)"><path d="M19 23.495c0-2.647-7.858-8.584-12-8.584S1 17.354 1 20c0 2.646 1.858 4.495 6 4.495 4.143 0 12 1.645 12-1M19 23.495c0-2.647 7.857-8.584 12-8.584s6 2.443 6 5.089c0 2.646-1.857 4.495-6 4.495s-12 1.645-12-1" fill="#ccd6dd"/><path d="M3 18a1 1 0 0 0-.002 2c.048 0 4.948.07 13.596 3.914a1 1 0 0 0 .812-1.828C8.317 18.047 3.213 18 3 18M35 18c-.213 0-5.316.047-14.406 4.086a1 1 0 0 0 .812 1.828C30.054 20.07 34.954 20 35.003 20A1 1 0 1 0 35 18" fill="#99aab5"/></g></svg>