<svg xmlns="http://www.w3.org/2000/svg" viewBox="0 0 47.5 47.5"><defs><clipPath id="a"><path d="M0 38h38V0H0v38z"/></clipPath></defs><path d="M4.688 25.416L7.5 21.25 11.25 25l5-2.5L20 26.25l5-7.5 5 3.75 3.75-1.25 2.5 3.75L40 21.25l2.5 5L40 35l-13.75 6.25-13.75-2.5-7.5-7.5-.313-5.834z" fill="#99aab5"/><g clip-path="url(#a)" transform="matrix(1.25 0 0 -1.25 0 47.5)"><path d="M30.956 22.288c.021.288.044.574.044.867 0 5.943-4.324 10.864-9.996 11.819 1.19.259 2.031.509.996 1.026-1.115.558-2.23-.13-2.999-.845h-.002c-.769.716-1.883 1.403-2.999.845-1.035-.517-.193-.767.996-1.026C11.326 34.019 7 29.098 7 23.154c0-.292.023-.578.044-.866C6.561 15.687.741 6 19 6c18.26 0 12.438 9.687 11.956 16.288" fill="#ffcc4d"/><path d="M22 23c0-1.657-1.343-2-3-2s-3 .343-3 2a3 3 0 1 0 6 0" fill="#f4900c"/><path d="M14 25.5a1.5 1.5 0 1 0-2.999-.001A1.5 1.5 0 0 0 14 25.5M27 25.5a1.5 1.5 0 1 0-3 0 1.5 1.5 0 0 0 3 0" fill="#662113"/><path d="M32 12l-3 1-4-6-3 5-2-2-4 2-3-4-3 6-3-2-3.294 7.765A13.26 13.26 0 0 1 3 15.5C3 7.491 10.164 1 19 1s16 6.491 16 14.5c0 1.244-.191 2.444-.517 3.597L32 12z" fill="#e1e8ed"/></g></svg>