<svg xmlns="http://www.w3.org/2000/svg" viewBox="0 0 47.5 47.5"><defs><clipPath id="a"><path d="M0 38h38V0H0v38z"/></clipPath></defs><g clip-path="url(#a)" transform="matrix(1.25 0 0 -1.25 0 47.5)"><path d="M34 20c.461-.184.902-3-1-3-6 0-11-11-20-11S2 18.5 2 21s4.82 10 12 10 15-9 20-11" fill="#d99e82"/><path d="M4 18c0-.553-.671-1-1.5-1S1 17.447 1 18c0 .553 0 2 1.5 1 .689-.46 1.5-.447 1.5-1" fill="#d99e82"/><path d="M34 20c.461-.184.876-.687-1-1-6-1-10.045.896-19 0-10-1-12-1-12 2 0 2.5 4.82 10 12 10s15-9 20-11" fill="#c1694f"/><path d="M31 19.5c0-2.485 3.343-4.5 5-4.5s0 2.015 0 4.5 1.657 4.5 0 4.5-5-2.015-5-4.5" fill="#d99e82"/><path d="M9 24a1 1 0 1 0-2 0 1 1 0 0 0 2 0" fill="#292f33"/><path d="M20.16 12S23 8 25 8s0 5 0 5h-2.84c-3 0-2-1-2-1" fill="#d99e82"/><path d="M22.35 28.077S25.21 30.894 27 30c4.075-2.036-2-4-2-4l-1.592.106c-2.994.2-1.057 1.971-1.057 1.971M19 12a2 2 0 1 0-4.001.001A2 2 0 0 0 19 12M22 16a1 1 0 1 0-2 0 1 1 0 1 0 2 0M27 16.5a1.5 1.5 0 1 0-3.001.001A1.5 1.5 0 0 0 27 16.5" fill="#c1694f"/><path d="M19 22.5a1.5 1.5 0 1 0-2.999-.001A1.5 1.5 0 0 0 19 22.5M26 21.5a1.5 1.5 0 1 0-3 0 1.5 1.5 0 0 0 3 0M22 26a1 1 0 1 0-2 0 1 1 0 0 0 2 0" fill="#662113"/><path d="M4 20c0-.552 1-2-1.5-1-.77.308-1.5.448-1.5 1s.671 1 1.5 1S4 20.552 4 20" fill="#c1694f"/></g></svg>