<svg xmlns="http://www.w3.org/2000/svg" viewBox="0 0 47.5 47.5"><defs><clipPath id="a"><path d="M0 38h38V0H0v38z"/></clipPath></defs><g clip-path="url(#a)" transform="matrix(1.25 0 0 -1.25 0 47.5)"><path d="M36.78 15.213c-.04.159-.944 3.684-3.444 7.198a9.397 9.397 0 0 1-.363.797C31.067 26.922 30.531 34 27.601 34c-2.929 0-1.859-4.28-4.72-4.28-2.864 0-2.078 4.28-5.237 4.28-3.16 0-3.452-7.066-5.295-10.184l-.082-.152c-.26.517-.275 1.026-.26 1.535.015.515-.316 2.08-1.256 3.36.685.13 1.183.564 1.155 1.05-.032.552-.728.96-1.555.912-.534-.031-.989-.246-1.238-.542a3.937 3.937 0 0 1-.957.336c-.553.115-.538-.912-3.028-.912S.995 25.406 3.28 25.406s4.388.113 4.701-1.088c.29-1.12-.587-3.537-.148-4.997.38-1.261 1.088-2.283 1.927-3.11 1.934-2.086 3.746-10.07 3.687-12.062-.059-2 1.94-2.058 2-.06.035 1.213-.103 4.05.143 6.44.658-3.121.935-6.754.898-7.971-.059-2 1.941-2.058 2-.06.047 1.622-.19 7.14.584 9.99a44.18 44.18 0 0 1 1.593-.042c1.564-.08 3.261.17 4.855.565 1.274-2.243 2.65-4.45 2.633-4.985-.029-1.001-1.117-3.97-1.146-4.97-.03-.998.94-2.028 2-.058.552 1.029 1.124 3.067 1.413 5.068.633-1.114 1.091-1.985 1.083-2.294-.03-1-1.064-2.124-1.093-3.124-.029-1 .94-2.03 2-.06 1.057 1.97 2.091 3.095 1.15 5.123-.718 1.55-.817 6.55-.353 9.706.126.235.228.483.32.735.927-1.928 1.308-3.401 1.314-3.424a1 1 0 0 1 1.94.485" fill="#c1694f"/><path d="M9.097 28.287a1 1 0 1 0-1.999.059 1 1 0 0 0 2-.06" fill="#292f33"/></g></svg>