<svg xmlns="http://www.w3.org/2000/svg" viewBox="0 0 47.5 47.5"><defs><clipPath id="a"><path d="M0 38h38V0H0v38z"/></clipPath><clipPath id="b"><path d="M3.262 17.966c-.629-1.091-4.091-1.034-.989-3.103-3.102-2.068.45-2.243 1.223-3.103 2.625-2.919 8.996-6.204 14.291-6.204 6.853 0 13.445 5.556 13.445 12.41S26.06 32.445 17.787 32.445c-8.274 0-12.061-10.217-14.525-14.479"/></clipPath><clipPath id="c"><path d="M0 38h38V0H0v38z"/></clipPath></defs><g clip-path="url(#a)" transform="matrix(1.25 0 0 -1.25 0 47.5)"><path d="M9.231 27c6 8 14 10 18 10 1 0 1-1 0-1s-6-2-7-9-11 0-11 0M8.231 9c4-3 13-8 18-8 3 0 2 1 1 1s-9 3-10 7-9 0-9 0" fill="#ffac33"/><path d="M30 18c0-4.418 3.791-10 6-10s-2 5.582-2 10 4.209 10 2 10c-2.209 0-6-5.582-6-10" fill="#ffcc4d"/><path d="M31.231 17.966c0-6.854-6.59-12.41-13.445-12.41-5.294 0-11.666 3.285-14.29 6.205-.774.859-4.326 1.034-1.223 3.102-3.103 2.069.36 2.012.99 3.103 2.462 4.263 6.25 14.479 14.523 14.479 8.274 0 13.445-7.625 13.445-14.48" fill="#ffcc4d"/></g><g clip-path="url(#b)" transform="matrix(1.25 0 0 -1.25 0 47.5)"><path d="M20.001 18l-.034.001a.999.999 0 0 0-.966 1.032c.249 7.54 7.294 10.748 7.594 10.881a1 1 0 1 0 .812-1.828c-.253-.113-6.2-2.85-6.408-9.119a1 1 0 0 0-.998-.967M25.001 20a.999.999 0 0 0-.981 1.196C24.938 25.787 28.987 27 31 27a1 1 0 0 0 .004-2c-.173-.001-4.201-.085-5.024-4.196a1 1 0 0 0-.979-.804" fill="#f4900c"/><path d="M15 16a1 1 0 0 0-1 1c0 12.598 10.605 15.926 10.713 15.958a1 1 0 0 0 .575-1.916C24.881 30.917 16 28.06 16 17a1 1 0 0 0-1-1" fill="#f4900c"/></g><g clip-path="url(#c)" transform="matrix(1.25 0 0 -1.25 0 47.5)"><path d="M12 21.5a1.5 1.5 0 1 0-2.999-.001A1.5 1.5 0 0 0 12 21.5" fill="#292f33"/></g></svg>