<svg xmlns="http://www.w3.org/2000/svg" viewBox="0 0 47.5 47.5"><defs><clipPath id="a"><path d="M0 38h38V0H0v38z"/></clipPath></defs><g clip-path="url(#a)" transform="matrix(1.25 0 0 -1.25 0 47.5)"><path d="M9.512 21.07c0-1.657 1.974-2-.512-2-2.485 0-6 1-6 2s1.527 3 4.012 3c2.485 0 2.5-1.343 2.5-3" fill="#f4900c"/><path d="M28.88 3.973a.977.977 0 0 1-.418.39C26.865 6.07 28 8.072 28 8.072c0 .552 1 2 0 2l-1-1c-1-1-1-4-1-4h-2a1 1 0 1 1 0-2h1.108l-.222-.12a1 1 0 0 1 .95-1.76l2.64 1.427a.999.999 0 0 1 .404 1.355M21.88 3.973a.977.977 0 0 1-.418.39C19.865 6.07 21 8.072 21 8.072c0 .552 1 2 0 2l-1-1c-1-1-1-4-1-4h-2a1 1 0 1 1 0-2h1.108l-.222-.12a1 1 0 0 1 .95-1.76l2.64 1.427a.999.999 0 0 1 .404 1.355" fill="#ffac33"/><path d="M36.217 19.695c-1.342 0-7.904-4.613-11.553 5.375-.005.014-.011.024-.017.038a9.505 9.505 0 0 1-7.367 6.79l-.037.041C19.389 33.316 20 32.293 20 33.07c0 1.18-2.083 1.303-4-.012-1.916 1.315-4 1.191-4 .012 0-.76.584.208 2.624-1.044C9.788 31.583 6 27.521 6 22.57c0-4.479 3.103-8.223 7.274-9.227 1.003-4.17 4.748-7.273 9.226-7.273 3.953 0 6.934 1.678 8.99 4 .555.625.112-.604.842-.236 4.24 2.132 5.168 9.861 3.885 9.861" fill="#ffcc4d"/><path d="M15 23.57a1.5 1.5 0 1 0-3.001.001 1.5 1.5 0 0 0 3.001 0" fill="#662113"/><path d="M22.81 21.07s-2-10 10-10c1 0 0-2-4-2s-9.998 5-7 11c.634 1.265 1 1 1 1" fill="#ffac33"/></g></svg>