<svg xmlns="http://www.w3.org/2000/svg" viewBox="0 0 47.5 47.5"><defs><clipPath id="a"><path d="M0 38h38V0H0v38z"/></clipPath></defs><g clip-path="url(#a)" transform="matrix(1.25 0 0 -1.25 0 47.5)"><path d="M10.842 17.078C10.842 7.236 17.417 7.405 16 7c-7-2-8.804 7.618-9.464 7.618-2.378 0-5.536.423-5.536 2.46C1 19.118 3.46 22 7.151 22c2.38 0 3.691-2.883 3.691-4.922M37 8.362c0-1.104-3.518.741-5 0-2-1-2 .896-2 2s1.343 1 3 1 4-1.896 4-3" fill="#77b255"/><path d="M17.715 3.857c0-2.76-1.28-2.857-2.857-2.857C13.278 1 12 1.096 12 3.857c0 .49.085 1.03.234 1.587.69 2.59 2.754 5.556 4.052 5.556 1.578 0 1.429-4.382 1.429-7.143M26.286 3.857c0-2.76 1.278-2.857 2.856-2.857C30.722 1 32 1.096 32 3.857a6.22 6.22 0 0 1-.235 1.587c-.69 2.59-2.753 5.556-4.05 5.556-1.579 0-1.429-4.382-1.429-7.143" fill="#77b255"/><path d="M33 10c0-4-5.149-4-11.5-4S10 6 10 10c0 6.627 5.149 12 11.5 12S33 16.627 33 10" fill="#3e721d"/><path d="M7 19a1 1 0 1 0-2 0 1 1 0 0 0 2 0" fill="#292f33"/><path d="M24.667 11.9c0-3.59-1.418-3.9-3.167-3.9-1.749 0-3.166.31-3.166 3.9S19.751 20 21.5 20c1.749 0 3.167-4.51 3.167-8.1M31 13c.871-3.482-.784-4-2.533-4-1.749 0-2.533-.69-2.533 2.9s-1.117 6.5.632 6.5S30 17 31 13M17.067 11.9c0-3.59-.785-2.9-2.534-2.9-1.75 0-3.403.517-2.533 4 1 4 3.25 5.4 5 5.4s.067-2.91.067-6.5" fill="#5c913b"/></g></svg>