<svg xmlns="http://www.w3.org/2000/svg" viewBox="0 0 47.5 47.5"><defs><clipPath id="a"><path d="M0 38h38V0H0v38z"/></clipPath></defs><g clip-path="url(#a)" transform="matrix(1.25 0 0 -1.25 0 47.5)"><path d="M5 29s-4-2-4-11c0 0 6 1 7 3 0 0 2 12.25-3 8M32.995 28.956s4-2 4-11c0 0-6 1-7 3 0 0-2 12.25 3 8" fill="#99aab5"/><path d="M2 36c-1.01-.99 1-8 5-9s4 5 3 5c-4 0-5.958 6-8 4M36.297 36c1.01-.99-1-8-5-9s-4 5-3 5c4 0 5.959 6 8 4" fill="#ffe8b6"/><path d="M22.976 6h-7.951C9.489 6 5 10.488 5 16.024v8.951C5 30.512 9.489 35 15.025 35h7.95C28.513 35 33 30.512 33 24.975v-8.951C33 10.488 28.512 6 22.976 6" fill="#ccd6dd"/><path d="M36 9c0-5.522-4.478-8-10-8H12C6.477 1 2 3.478 2 9s4.477 10 10 10h14c5.522 0 10-4.478 10-10" fill="#e6aaaa"/><path d="M12 11c0-1.657-.671-3-1.5-3S9 9.343 9 11s.671 3 1.5 3 1.5-1.343 1.5-3M29 11c0-1.657-.672-3-1.5-3S26 9.343 26 11s.672 3 1.5 3 1.5-1.343 1.5-3" fill="#c1694f"/><path d="M12 25s0 2 2 2 2-2 2-2v-2s0-2-2-2-2 2-2 2v2zM22 25s0 2 2 2 2-2 2-2v-2s0-2-2-2-2 2-2 2v2z" fill="#272b2b"/></g></svg>