<svg xmlns="http://www.w3.org/2000/svg" viewBox="0 0 47.5 47.5"><defs><clipPath id="a"><path d="M0 38h38V0H0v38z"/></clipPath></defs><g clip-path="url(#a)" transform="matrix(1.25 0 0 -1.25 0 47.5)"><path d="M29.068 5.644C26.84 5.644 20.6 4.86 19 3.813 17.4 4.86 11.16 5.646 8.931 5.646c-2.565 0-1.16-1.04-1.16-2.322C7.77 2.04 6.365.998 8.93.998c2.23 0 8.468.786 10.07 1.833C20.6 1.786 26.838 1 29.067 1c2.565 0 1.161 1.04 1.161 2.322 0 1.283 1.404 2.322-1.16 2.322" fill="#ffac33"/><path d="M32.73 21.134c-1.25 2.499-3.151 4.995-4.941 6.723C25.335 33.289 21.758 37 19 37c-2.759 0-6.337-3.71-8.788-9.142-1.79-1.73-3.692-4.224-4.942-6.724C2.832 16.258 2.154 9.708 3.192 9.19c.873-.437 2.324 1.55 4.208 5.082.268-10.876 7.047-10.95 11.6-10.95s11.334.074 11.6 10.948c1.885-3.53 3.336-5.517 4.208-5.08 1.038.518.36 7.068-2.077 11.944" fill="#292f33"/><path d="M22.675 30.057c-.85-.607-2.172-1.186-3.675-1.186-1.503 0-2.825.579-3.675 1.186-3.302-2.137-5.615-7.061-5.615-12.8 0-7.694 4.159-13.934 9.29-13.934 5.132 0 9.29 6.24 9.29 13.935 0 5.738-2.312 10.662-5.615 12.799" fill="#f5f8fa"/><path d="M29.452 31h-5.808C19.797 31 19 31.78 19 32.743c0 .962-.364 1.741 3.483 1.741 5.808 0 8.13-3.484 6.97-3.484" fill="#ffac33"/><path d="M17.839 33.517a1.161 1.161 0 1 0-2.323-.001 1.161 1.161 0 0 0 2.323 0" fill="#f5f8fa"/></g></svg>