<svg xmlns="http://www.w3.org/2000/svg" viewBox="0 0 47.5 47.5"><defs><clipPath id="a"><path d="M0 38h38V0H0v38z"/></clipPath></defs><g clip-path="url(#a)" transform="matrix(1.25 0 0 -1.25 0 47.5)"><path d="M34.799 36.995c-.467.178-7.998-3.971-9.97-9.131-1.165-3.052-1.684-6.057-1.651-8.112C21.708 20.54 20.257 21 19 21c-1.257 0-2.71-.458-4.178-1.248.034 2.055-.486 5.06-1.651 8.112-1.971 5.16-9.503 9.309-9.97 9.13-.455-.173 4.268-16.042 7.025-20.836C7.805 13.595 6 10.338 6 7.172c0-3.234 1.635-5.14 4-5.94 2.53-.858 5 .94 9 .94s6.469-1.798 9-.94c2.365.8 4 2.706 4 5.94 0 3.166-1.805 6.423-4.224 8.985 2.754 4.794 7.479 20.664 7.023 20.838" fill="#99aab5"/><path d="M13.692 19.078c-.178 1.54-.68 3.55-1.457 5.584-1.534 4.016-5.686 7.245-6.05 7.106-.32-.12 2.628-10.14 4.784-14.863a19.017 19.017 0 0 0 2.723 2.173M27.03 16.906c2.156 4.723 5.103 14.741 4.784 14.862-.363.14-4.515-3.09-6.05-7.106-.777-2.034-1.279-4.044-1.457-5.584a19.149 19.149 0 0 0 2.723-2.172" fill="#f4abba"/><path d="M26 7c0-2.762-3.06-5-6.834-5-3.773 0-6.833 2.238-6.833 5s3.06 5 6.833 5C22.94 12 26 9.762 26 7" fill="#ccd6dd"/><path d="M22 6.422c0-2.762-.238-3-3-3-2.761 0-3 .238-3 3 0 1 6 1 6 0" fill="#fff"/><path d="M15 12.672a1.5 1.5 0 1 0-3 0 1.5 1.5 0 0 0 3 0M26 12.672a1.5 1.5 0 1 0-3.001.001A1.5 1.5 0 0 0 26 12.672" fill="#292f33"/><path d="M22 11.172c0-1.657-2-3-3-3s-3 1.343-3 3 6 1.657 6 0" fill="#f4abba"/></g></svg>