<svg xmlns="http://www.w3.org/2000/svg" viewBox="0 0 47.5 47.5"><defs><clipPath id="a"><path d="M0 38h38V0H0v38z"/></clipPath><clipPath id="b"><path d="M8 25c0-3.515.677-6.419 2-10 2.418-6.542 0-14 9-14s6.581 7.458 9 14c1.323 3.581 2 6.485 2 10 0 6-4.373 10-11 10-6.628 0-11-4-11-10"/></clipPath><clipPath id="c"><path d="M0 38h38V0H0v38z"/></clipPath></defs><g clip-path="url(#a)" transform="matrix(1.25 0 0 -1.25 0 47.5)"><path d="M13 32c0-3.038-.619-8-2-8s-3-.038-3 3-1.5 10-1 10 6-1.962 6-5M25 32c0-3.038.619-8 2-8s3-.038 3 3 1.5 10 1 10-6-1.962-6-5" fill="#c1694f"/><path d="M11 31c0-1.657-.448-3-1-3s-1 1.343-1 3-.552 3 0 3 2-1.343 2-3M27 31c0-1.657.447-3 1-3 .553 0 1 1.343 1 3s.553 3 0 3-2-1.343-2-3" fill="#662113"/><path d="M30 25c0-3.516-.677-6.42-2-10-2.419-6.542 0-14-9-14s-6.582 7.458-9 14c-1.323 3.58-2 6.484-2 10 0 6 4.373 10 11 10s11-4 11-10" fill="#c1694f"/></g><g clip-path="url(#b)" transform="matrix(1.25 0 0 -1.25 0 47.5)"><path d="M27 9.5C31.16 3.26 24.522 1 19 1c-5.523 0-12.983 2.895-8 8.5 4 4.5 6-.5 8-.5s5 5 8 .5" fill="#ccd6dd"/></g><g clip-path="url(#c)" transform="matrix(1.25 0 0 -1.25 0 47.5)"><path d="M23 31c0-9.941-1.451-22-4-22s-4 12.059-4 22c0 2 1.451 4 4 4s4-2 4-4" fill="#d99e82"/><path d="M16 8c0-1.104-.671-2-1.5-2S13 6.896 13 8s.671 2 1.5 2S16 9.104 16 8M25 8c0-1.104-.672-2-1.5-2S22 6.896 22 8s.672 2 1.5 2S25 9.104 25 8" fill="#66757f"/><path d="M12 22.5a1.5 1.5 0 1 0-3 0v2a1.5 1.5 0 1 0 3 0v-2zM29 22.5a1.5 1.5 0 1 0-3 0v2a1.5 1.5 0 1 0 3 0v-2z" fill="#292f33"/><path d="M24 34c1-2 0-6-4-8-.544-.272 3 3 1 4-.842.421-2.174-3.042-2-2 1 6-5 4-4 7 .524 1.572 2.343 2 4 2 2.75 0 4.259-1.518 5-3" fill="#662113"/></g></svg>