<svg xmlns="http://www.w3.org/2000/svg" viewBox="0 0 47.5 47.5"><defs><clipPath id="a"><path d="M0 38h38V0H0v38z"/></clipPath></defs><g clip-path="url(#a)" transform="matrix(1.25 0 0 -1.25 0 47.5)"><path d="M14 31a6 6 0 0 0-12 0 6 6 0 0 0 12 0M36 31a6 6 0 0 0-12 0 6 6 0 0 0 12 0" fill="#c1694f"/><path d="M12 31a4 4 0 1 0-8 0 4 4 0 0 0 8 0M34 31a4 4 0 1 0-8 0 4 4 0 0 0 8 0" fill="#e6aaaa"/><path d="M36 15s-1.308 22-17 22S2 15 2 15C2 9.128 6.499 4.677 14.216 3.39a5.98 5.98 0 0 1 9.568 0C31.501 4.677 36 9.128 36 15" fill="#c1694f"/><path d="M23 7a4 4 0 1 0-8 0 4 4 0 0 0 8 0" fill="#dd2e44"/><path d="M19 17S8 13.313 8 10a6 6 0 0 1 6-6 5.99 5.99 0 0 1 5 2.686A5.99 5.99 0 0 1 24 4a6 6 0 0 1 6 6c0 3.313-11 7-11 7" fill="#d99e82"/><path d="M12 20s0 2 2 2 2-2 2-2v-2s0-2-2-2-2 2-2 2v2zM22 20s0 2 2 2 2-2 2-2v-2s0-2-2-2-2 2-2 2v2zM14.126 12C12.5 11 17.376 8 19 8s6.499 3 4.874 4-8.124 1-9.75 0" fill="#272b2b"/></g></svg>