<svg xmlns="http://www.w3.org/2000/svg" viewBox="0 0 47.5 47.5"><defs><clipPath id="a"><path d="M0 38h38V0H0v38z"/></clipPath></defs><g clip-path="url(#a)" transform="matrix(1.25 0 0 -1.25 0 47.5)"><path d="M14 31a6 6 0 0 0-12 0 6 6 0 0 0 12 0M36 31a6 6 0 0 0-12 0 6 6 0 0 0 12 0" fill="#272b2b"/><path d="M12 31a4 4 0 1 0-8 0 4 4 0 0 0 8 0M34 31a4 4 0 1 0-8 0 4 4 0 0 0 8 0" fill="#66757f"/><path d="M36 15c0-7-6.375-12-17-12S2 8 2 15c0 0 1.308 22 17 22s17-22 17-22" fill="#eee"/><path d="M25 7a6 6 0 0 0-12 0 6 6 0 0 0 12 0" fill="#ccd6dd"/><path d="M23 7a4 4 0 1 0-8 0 4 4 0 0 0 8 0" fill="#dd2e44"/><path d="M21.709 24.346C26.163 27.122 33 20 27.952 14.33 24.463 10.409 21 12 21 12s-2.636 10.26.709 12.346M16.267 24.335c-4.454 2.776-11.291-4.346-6.244-10.016 3.49-3.92 6.953-2.329 6.953-2.329s2.636 10.26-.71 12.345" fill="#272b2b"/><path d="M12 20s0 2 2 2 2-2 2-2v-2s0-2-2-2-2 2-2 2v2z" fill="#66757f"/><path d="M19 17S8 13.313 8 10a6 6 0 0 1 6-6 5.99 5.99 0 0 1 5 2.686A5.99 5.99 0 0 1 24 4a6 6 0 0 1 6 6c0 3.313-11 7-11 7" fill="#fff"/><path d="M22 20s0 2 2 2 2-2 2-2v-2s0-2-2-2-2 2-2 2v2z" fill="#66757f"/><path d="M14.126 12C12.5 11 17.376 8 19 8s6.499 3 4.874 4-8.124 1-9.75 0" fill="#272b2b"/></g></svg>