<svg xmlns="http://www.w3.org/2000/svg" viewBox="0 0 47.5 47.5"><defs><clipPath id="a"><path d="M0 38h38V0H0v38z"/></clipPath></defs><path d="M8.75 30L2.5 26.25l2.5 7.5-1.25 2.5 7.5 6.25L20 45l3.75-13.75-15-1.25zM40 30l6.25-3.75-2.5 7.5 1.25 2.5-7.5 6.25-8.75 2.5L25 31.25 40 30z" fill="#ccd6dd"/><g clip-path="url(#a)" transform="matrix(1.25 0 0 -1.25 0 47.5)"><path d="M12 30c0-3.866-3.032-7-6.771-7S4.101 37 4.101 37 12 33.866 12 30M25 7a6 6 0 0 0-12 0 6 6 0 0 0 12 0" fill="#66757f"/><path d="M23 7a4 4 0 1 0-8 0 4 4 0 0 0 8 0" fill="#dd2e44"/><path d="M32.77 23C29.031 23 26 26.134 26 30s7.9 7 7.9 7 2.61-14-1.13-14" fill="#66757f"/><path d="M10 29a4 4 0 0 0-4-4c-2.209 0 0 8 0 8s4-1.791 4-4M32 25a4 4 0 0 0-4 4c0 2.209 4 4 4 4s2.209-8 0-8" fill="#e6aaaa"/><path d="M35 15c0-7-6.923-7-6.923-7H9.923S3 8 3 15c0 0 1.231 19 16 19 14.77 0 16-19 16-19" fill="#66757f"/><path d="M12 20s0 2 2 2 2-2 2-2v-2s0-2-2-2-2 2-2 2v2zM22 20s0 2 2 2 2-2 2-2v-2s0-2-2-2-2 2-2 2v2z" fill="#272b2b"/><path d="M33.715 12.838L34.944 16l-2.628-2.666a14.4 14.4 0 0 1-1.316.27V18l-2.518-4.121a55.155 55.155 0 0 1-3.804.12c-3.483 0-1.003-4.45-5.762-4.948-4.76.498-2.28 4.949-5.762 4.949-1.38 0-2.582-.04-3.643-.108L7 18v-4.366a15.098 15.098 0 0 1-1.348-.267L3.056 16l1.203-3.093c-1.69-.778-1.502-1.864-.427-2.907 5.999-5.818 9-6 9.322-6 2.46 0 4.603.998 5.762 2.48C20.075 4.999 22.219 4 24.678 4 25 4 28 4.182 34 10c1.044 1.013 1.247 2.066-.285 2.838" fill="#ccd6dd"/><path d="M16 12c-1-1 0-4 3-4s4 3 3 4-5 1-6 0" fill="#272b2b"/></g></svg>