<svg xmlns="http://www.w3.org/2000/svg" viewBox="0 0 47.5 47.5"><defs><clipPath id="a"><path d="M0 38h38V0H0v38z"/></clipPath></defs><g clip-path="url(#a)" transform="matrix(1.25 0 0 -1.25 0 47.5)"><path d="M33 25c2.122 2.122 5-14.313-3-21-2.757-2.305-6-2.969-8-2.969C19.629 1.031 11.971 1 9 1 1.82 1 1 5.925 1 12s.82 11 8 11c6 0 10-2 13-3.996 4.977-3.312 5.992-3.861 8-2.004 3.213 2.97 1 6 3 8" fill="#744eaa"/><path d="M35.003 14C34.538 10.273 32.962 6.477 30 4c-2.757-2.305-6-2.969-8-2.969C19.629 1.031 11.97 1 9 1 4.965 1 2.939 2.555 1.938 4.996 1.157 6.898 5 4 16 4c14 0 17 5 19.003 10" fill="#aa8dd8"/><path d="M33 23c4.123 0 4 5 4 7s-2-1-5-2-7 2-6 0 3-5 7-5" fill="#744eaa"/><path d="M11 30c0-2.209-.896-6-2-6s-2 3.791-2 6 .896 2 2 2 2 .209 2-2" fill="#55acee"/><path d="M9 32c0 3-6 2-6 0s3-1 4-3 2 3 2 3M9 32c0 3 6 2 6 0s-3-1-4-3-2 3-2 3" fill="#55acee"/><path d="M9 11.5a1.5 1.5 0 1 0-3 0 1.5 1.5 0 0 0 3 0" fill="#292f33"/></g></svg>