<svg xmlns="http://www.w3.org/2000/svg" viewBox="0 0 47.5 47.5"><defs><clipPath id="a"><path d="M0 38h38V0H0v38z"/></clipPath><clipPath id="b"><path d="M11.088 13.996c-.029 0-.059.004-.088.004-3.867 0-7-4.014-7-6.5 0-2.326 5.257-3.365 9.21-5.128C14.472 1.276 16.342 1 19 1c2.253 0 3.941.266 5.173 1.081C28.17 4.027 34 5.05 34 7.5c0 2.486-3.134 6.5-7 6.5l-.059-.003C26.441 23.251 22.721 37 19 37c-3.657 0-7.311-13.692-7.912-23.004"/></clipPath></defs><g clip-path="url(#a)" transform="matrix(1.25 0 0 -1.25 0 47.5)"><path d="M34 7.5c0 2.485-3.134 6.5-7 6.5l-.059-.003C26.441 23.251 22.722 37 19 37c-3.657 0-7.311-13.691-7.912-23.004-.028 0-.06.004-.088.004-3.866 0-7-4.015-7-6.5 0-2.326 5.257-3.364 9.21-5.128C14.472 1.276 16.342 1 19 1c2.253 0 3.941.267 5.173 1.081C28.17 4.026 34 5.05 34 7.5" fill="#d99e82"/><path d="M27 7c-.544-.098.137 1 .137 3.722C27.137 12 27 13 27 14c1 0 2.104 0 2.104-2.923 0-1.656-1.56-3.978-2.104-4.077M10.894 7c.544-.098-.137 1-.137 3.722 0 1.278.137 2.278.137 3.278-1 0-2.104 0-2.104-2.923 0-1.656 1.56-3.978 2.104-4.077" fill="#c1694f"/></g><g clip-path="url(#b)" transform="matrix(1.25 0 0 -1.25 0 47.5)"><path d="M12.886 2.513c-.337-1.155-2.171-1.637-4.098-1.076-1.927.562-3.215 1.956-2.878 3.11.337 1.156 2.172 1.637 4.098 1.076 1.927-.561 3.215-1.955 2.878-3.11M25.114 2.513c.337-1.155 2.171-1.637 4.1-1.076 1.924.562 3.213 1.956 2.876 3.11-.337 1.156-2.172 1.637-4.098 1.076-1.927-.561-3.215-1.955-2.878-3.11" fill="#292f33"/></g></svg>