<svg xmlns="http://www.w3.org/2000/svg" viewBox="0 0 47.5 47.5"><defs><clipPath id="a"><path d="M0 38h38V0H0v38z"/></clipPath></defs><g clip-path="url(#a)" transform="matrix(1.25 0 0 -1.25 0 47.5)"><path d="M16.855 6s2.395.208 3.068 1.792c.699 1.639-.621 2.309-.621 2.309s1.914-.059 2.622 1.941c.668 1.885-.958 2.75-.958 2.75s1.87.307 2.417 2.292C23.841 18.755 22.215 20 22.215 20h12.208c.959 0 2.576.542 2.577 2.543 0 2-1.66 2.457-2.577 2.457h-20.5c-1 0-1 1 0 1h2.666c3.792 0 6.143 2.038 6.792 2.751.65.713.98 1.667.735 2.82-.415 1.956-1.92 1.53-3.198.975-3.079-1.337-7.464-2.254-9.539-2.533C5.523 29.222 1.005 24.204 1 18.129.996 11.503 6.297 6.005 12.923 6h3.932z" fill="#d99e82"/></g></svg>