<svg xmlns="http://www.w3.org/2000/svg" viewBox="0 0 47.5 47.5"><defs><clipPath id="a"><path d="M0 38h38V0H0v38z"/></clipPath></defs><g clip-path="url(#a)" transform="matrix(1.25 0 0 -1.25 0 47.5)"><path d="M5 21.106s-.093-2.362 1.792-3.068c1.667-.625 2.309.622 2.309.622s-.059-1.914 1.941-2.622c1.885-.668 2.75.958 2.75.958s.307-1.87 2.292-2.417C17.755 14.12 19 15.746 19 15.746V3.538c0-.959.542-2.576 2.543-2.577 2 0 2.457 1.66 2.457 2.577v20.5c0 1 1 1 1 0v-2.666c0-3.792 2.038-6.143 2.751-6.792.713-.65 1.667-.98 2.82-.735 1.956.415 1.53 1.92.975 3.198-1.337 3.078-2.254 7.463-2.533 9.538-.791 5.857-5.809 10.375-11.884 10.38C10.503 36.965 5.005 31.664 5 25.038v-3.932z" fill="#d99e82"/></g></svg>