<svg xmlns="http://www.w3.org/2000/svg" viewBox="0 0 47.5 47.5"><defs><clipPath id="a"><path d="M0 38h38V0H0v38z"/></clipPath></defs><g clip-path="url(#a)" transform="matrix(1.25 0 0 -1.25 0 47.5)"><path d="M34.305 19.664s1.132 1.65-.52 2.78c-1.648 1.132-2.78-.518-2.78-.518l-5.25-7.658c-.18.302-.38.6-.6.894l7.289 10.629s1.13 1.649-.52 2.78c-1.648 1.132-2.78-.518-2.78-.518l-6.855-9.997c-.255.209-.515.417-.785.622l7.947 11.59s1.13 1.649-.518 2.78c-1.65 1.132-2.78-.518-2.78-.518l-7.948-11.59c-.292.18-.581.336-.87.499l7.427 10.832s1.13 1.649-.52 2.78c-1.648 1.132-2.78-.518-2.78-.518L13.61 23.08l-.63-.918-.564-.825c4.948-3.393 5.419-9.78 2.592-13.902-.566-.825-1.39-.26-1.39-.26 3.393 4.949 2.356 10.51-2.593 13.903l1.462 7.302s.545 1.925-1.38 2.47c-1.923.545-2.468-1.38-2.468-1.38l-1.685-5.003c-.668-1.984-1.38-3.961-2.32-5.83-2.657-5.28-1.07-11.843 3.94-15.28C14.04-.388 21.51 1.004 25.258 6.468c.198.29.364.574.522.857l.044-.031 8.482 12.37z" fill="#d99e82"/><path d="M3.042 30h-2A6.966 6.966 0 0 0 8 36.958v-2A4.964 4.964 0 0 1 3.042 30" fill="#77b255"/><path d="M5 25H3c0 5.514 4.486 10 10 10v-2c-4.411 0-8-3.589-8-8M30 1v2c3 0 5 2 5 5h2c0-4-3-7-7-7" fill="#77b255"/><path d="M25 2.958v2c4 0 8.042 4.042 8.042 8.042h2C35.042 7 31 2.958 25 2.958" fill="#77b255"/></g></svg>