<svg xmlns="http://www.w3.org/2000/svg" viewBox="0 0 47.5 47.5"><defs><clipPath id="a"><path d="M0 38h38V0H0v38z"/></clipPath></defs><g clip-path="url(#a)" transform="matrix(1.25 0 0 -1.25 0 47.5)"><path d="M21.145 6s-2.436.167-3.068 1.792c-.647 1.659.621 2.309.621 2.309s-1.914-.059-2.622 1.941c-.668 1.885.958 2.75.958 2.75s-1.87.307-2.417 2.292C14.158 18.755 15.784 20 15.784 20H3.576C2.617 20 1 20.542 1 22.543 1 24.543 2.66 25 3.576 25h20.5c1 0 1 1 0 1H21.41c-3.792 0-6.143 2.038-6.792 2.751-.65.713-.98 1.667-.735 2.82.415 1.956 1.92 1.53 3.198.975 3.079-1.337 7.464-2.254 9.539-2.533 5.857-.791 10.375-5.809 10.38-11.884C37.004 11.503 31.703 6.005 25.077 6h-3.932z" fill="#d99e82"/></g></svg>