<svg xmlns="http://www.w3.org/2000/svg" viewBox="0 0 47.5 47.5"><defs><clipPath id="a"><path d="M0 38h38V0H0v38z"/></clipPath></defs><path d="M28.75 1.25h3.75l6.25 3.51L45 33.894 33.75 35l-7.5-20.529M18.75 1.25H15L8.75 4.76 2.5 33.894 13.75 35l7.5-20.529" fill="#3b88c3"/><path d="M15 46.25h17.5V7.5H15v38.75z" fill="#3b88c3"/><path d="M23.731 12.201L15 18.751h2.5l6.367-6.368-.136-.182z" fill="#269"/><g clip-path="url(#a)" transform="matrix(1.25 0 0 -1.25 0 47.5)"><path d="M26 17s-1.167-1-7-1-7 1-7 1v6h14v-6z" fill="#88c9f9"/><path d="M26 19s-1.167-1-7-1-7 1-7 1v2h14v-2zM26 37l-7-9-7 9h14z" fill="#fff"/><path d="M21.333 37L19 34l-2.333 3h4.666z" fill="#99aab5"/><path d="M26 12v21l2-23-2 2zM12 12v21l-2-23 2 2z" fill="#269"/></g></svg>