<svg xmlns="http://www.w3.org/2000/svg" viewBox="0 0 47.5 47.5"><defs><clipPath id="a"><path d="M0 38h38V0H0v38z"/></clipPath></defs><g clip-path="url(#a)" transform="matrix(1.25 0 0 -1.25 0 47.5)"><path d="M11 26S1 24 1 19c0-2.043 1.069-2.964 2.507-2.964C6.469 16.036 11 19.941 11 26m-2.402-2.736c-.993-3.26-3.588-5.228-5.091-5.228-.261 0-.507 0-.507.964 0 1.699 2.78 3.284 5.598 4.264" fill="#c1694f"/><path d="M34.752 22.03C34.48 24.215 32.457 26 30.257 26H11.743c-2.2 0-4.222-1.786-4.495-3.97L5.495 7.97C5.223 5.786 6.8 4 9 4h24c2.2 0 3.777 1.786 3.505 3.97l-1.753 14.06z" fill="#a6d388"/><path d="M9 24s2.5-8.5 4-7-4 7-4 7M32.258 24s-2.5-8.5-4-7 4 7 4 7" fill="#77b255"/></g></svg>