<svg xmlns="http://www.w3.org/2000/svg" viewBox="0 0 47.5 47.5"><defs><clipPath id="a"><path d="M0 38h38V0H0v38z"/></clipPath></defs><g clip-path="url(#a)" transform="matrix(1.25 0 0 -1.25 0 47.5)"><path d="M37 14c0-2.071-8.059-5-18-5S1 11.929 1 14s8.059 5 18 5 18-2.929 18-5" fill="#ffd983"/><path d="M30 20c0-1.566-4.925-6-11-6S8.043 18.434 8.043 20C8.043 27 15 30 19 30c4 0 11-3 11-10" fill="#ffd983"/><path d="M30 16c-5-3-17-3-22 0 0 .492.043 3.535.043 4C14 17 24 17 30 20c-.003-.465 0-3.508 0-4" fill="#9266cc"/><path d="M20 13c0-1.104-.448-2-1-2-.553 0-1 .896-1 2s.447 2 1 2c.552 0 1-.896 1-2M20 19c0-1.104-.448-2-1-2-.553 0-1 .896-1 2s.447 2 1 2c.552 0 1-.896 1-2" fill="#fff"/><path d="M17.586 13.172c-.781-.781-1.731-1.098-2.122-.707-.39.39-.073 1.34.707 2.12.782.782 1.73 1.099 2.122.708.39-.391.074-1.341-.707-2.121M21.828 17.414c-.78-.78-1.73-1.098-2.12-.707-.392.391-.075 1.34.706 2.122.781.78 1.73 1.097 2.121.707s.074-1.34-.707-2.122" fill="#fff"/><path d="M16 15c-1.105 0-2 .448-2 1 0 .553.895 1 2 1 1.104 0 2-.447 2-1 0-.553-.896-1-2-1M22 15c-1.104-.001-2 .447-2 1 0 .553.896 1 2 1s2-.447 2-1c0-.552-.896-1-2-1" fill="#fff"/><path d="M16.172 17.413c-.782.782-1.098 1.732-.708 2.122.39.391 1.34.074 2.122-.707.78-.782 1.098-1.73.707-2.12-.391-.393-1.341-.075-2.121.705M20.414 13.17c-.782.78-1.098 1.73-.707 2.122.391.392 1.34.074 2.121-.707.781-.78 1.098-1.73.707-2.121-.39-.39-1.34-.074-2.12.707" fill="#fff"/><path d="M21 16a2 2 0 1 0-4.001.001A2 2 0 0 0 21 16" fill="#ffac33"/></g></svg>