<svg xmlns="http://www.w3.org/2000/svg" viewBox="0 0 47.5 47.5"><defs><clipPath id="a"><path d="M0 38h38V0H0v38z"/></clipPath></defs><g clip-path="url(#a)" transform="matrix(1.25 0 0 -1.25 0 47.5)"><path d="M36.809 21.328s.653 1.043-.454 1.558c-1.107.514-1.483-.658-1.483-.658l-2.39-5.142c-.14.164-.704.516-.865.67l3.315 7.137s.653 1.044-.455 1.559c-1.106.514-1.483-.658-1.483-.658l-3.12-6.711c-.173.099-.628.327-.811.424l3.616 7.78s.652 1.044-.455 1.558c-1.106.515-1.482-.657-1.482-.657l-3.62-7.78c-.192.079-.795.335-.987.404l3.38 7.273s.65 1.043-.455 1.557c-1.107.515-1.483-.656-1.483-.656l-3.575-7.69-.286-.616-.128-.276c3.324-1.544 4.487-5.617 3.2-8.384-.257-.554-1.176-.3-1.176-.3 1.544 3.32.358 6.566-2.964 8.109l.143 4.546s.134 1.213-1.08 1.348c-1.214.134-1.347-1.08-1.347-1.08l-.51-3.183c-.202-1.262-.43-2.525-.81-3.746A7.332 7.332 0 0 1 22.96 8.91a7.33 7.33 0 0 1 9.733 3.556l.257.556 3.859 8.305z" fill="#d99e82"/><path d="M1.192 21.328s-.654 1.043.453 1.558c1.108.514 1.483-.658 1.483-.658l2.39-5.142c.14.164.705.516.866.67l-3.315 7.137s-.654 1.044.455 1.559c1.106.514 1.482-.658 1.482-.658l3.119-6.711c.175.099.63.327.813.424l-3.617 7.78s-.652 1.044.455 1.558c1.107.515 1.483-.657 1.483-.657l3.618-7.78c.193.079.797.335.988.404l-3.38 7.273s-.651 1.043.456 1.557c1.107.515 1.483-.656 1.483-.656l3.574-7.69.286-.616.128-.276c-3.323-1.544-4.486-5.617-3.2-8.384.258-.554 1.177-.3 1.177-.3-1.544 3.32-.36 6.566 2.963 8.109l-.142 4.546s-.135 1.213 1.078 1.348c1.215.134 1.349-1.08 1.349-1.08l.508-3.183c.203-1.262.432-2.525.81-3.746a7.328 7.328 0 0 0-13.648-5.247l-.256.556-3.86 8.305z" fill="#d99e82"/></g></svg>