<svg xmlns="http://www.w3.org/2000/svg" viewBox="0 0 47.5 47.5"><defs><clipPath id="a"><path d="M0 38h38V0H0v38z"/></clipPath></defs><g clip-path="url(#a)" transform="matrix(1.25 0 0 -1.25 0 47.5)"><path d="M3.79 16.957s-.513-.062-1.032-2.126c-.518-2.059-.953-6.518-.954-9.071-.001-.662 1.03-1.064 1.03-1.064l33.015-.023s1.03.437 1.032 1.064c0 1.333-.25 2.565-.25 3.287 0 1.064-1.746 2.855-2.777 2.855-1.032.001-7.162-1.038-10.382 1.314-1.19.868-5.156 5.321-7.216 6.387-2.064 1.065-2.15-3.693-6.277-3.691-4.126.004-4.126 1.066-6.19 1.068" fill="#66757f"/><path d="M36.879 3.078c-.002-.88.106-1.595-1.032-1.594 0 0-7.328-.265-13.518-.26-6.192.003-5.574 1.867-7.117 1.867-1.031.001-1.031-1.592-1.031-1.594l-11.348.007c-.77 0-1.032.715-1.032 1.595 0 .882-.107 1.597 1.033 1.597l33.015-.023c1.137.003 1.03-.714 1.03-1.595M14.49 13.383l-.604 1.758c2.655.91 3.562 2.649 3.6 2.723l1.667-.82c-.049-.1-1.242-2.486-4.664-3.661M17.582 10.19l-.604 1.758c2.655.91 3.562 2.648 3.6 2.72l1.667-.818c-.05-.1-1.242-2.484-4.662-3.66" fill="#292f33"/></g></svg>