<svg xmlns="http://www.w3.org/2000/svg" viewBox="0 0 47.5 47.5"><defs><clipPath id="a"><path d="M0 38h38V0H0v38z"/></clipPath></defs><g clip-path="url(#a)" transform="matrix(1.25 0 0 -1.25 0 47.5)"><path d="M19.163 35.138a1.81 1.81 0 0 0-1.818-1.814 1.757 1.757 0 0 0-1.75 1.836c.04.975.853 1.742 1.817 1.735a1.76 1.76 0 0 0 1.75-1.757" fill="#939598"/><path d="M34.838 22.483c2.792-16.195 3.02-17.58-14.316-17.47l-3.355.022C2.067 5.13-.17 5.2 2.866 22.685c1.296 7.464 7.682 11.267 14.752 11.222l2.477-.015c7.07-.045 13.453-3.93 14.743-11.41" fill="#d1d3d4"/><path d="M21.304 35.124a1.753 1.753 0 0 0-1.77-1.814 1.812 1.812 0 0 0-1.798 1.837 1.756 1.756 0 0 0 1.77 1.736 1.819 1.819 0 0 0 1.798-1.759" fill="#d1d3d4"/><path d="M35.364 19.78C38.36 2.4 38.604.917 20.586 1.03l-3.488.023c-15.692.1-18.02.162-14.762 18.938 1.38 7.942 7.97 11.972 15.244 11.925l2.55-.016c7.275-.046 13.862-4.16 15.234-12.12" fill="#ea596e"/><path d="M17.14 31.021s-6.717-7.718-4.98-9.651c1.808-2.017 4.98 9.651 4.98 9.651M19.404 31.007s6.603-7.803 4.84-9.714c-1.839-1.993-4.84 9.714-4.84 9.714" fill="#dd2e44"/></g></svg>