<svg xmlns="http://www.w3.org/2000/svg" viewBox="0 0 47.5 47.5"><defs><clipPath id="a"><path d="M0 38h38V0H0v38z"/></clipPath></defs><g clip-path="url(#a)" transform="matrix(1.25 0 0 -1.25 0 47.5)"><path d="M37 2.5A1.5 1.5 0 0 0 35.5 1h-33a1.5 1.5 0 1 0 0 3h33A1.5 1.5 0 0 0 37 2.5" fill="#ccd6dd"/><path d="M2.452 13.613s-.522-.063-1.05-2.158C.876 9.366 1.06 7.392 1.058 4.8c0-.67 1.045-1.082 1.045-1.082l33.52-.04s1.047.442 1.047 1.078c.003 1.354-.67 5.237-5.07 5.237-1.048 0-5.27-.049-8.538 2.341-1.208.882-5.86 2.852-7.953 3.934-2.094 1.084-2.184-3.748-6.374-3.742-4.189.006-4.188 1.084-6.283 1.088" fill="#55acee"/><path d="M13.312 9.98l-.61 1.782c2.696.923 3.617 2.688 3.655 2.762l1.691-.83c-.05-.104-1.261-2.526-4.736-3.715M18.043 7.697l-.611 1.783c2.697.924 3.642 2.737 3.65 2.754l1.695-.824c-.05-.103-1.262-2.523-4.735-3.713" fill="#269"/><path d="M36 3H2a1 1 0 1 0 0 2h34a1 1 0 1 0 0-2" fill="#3b88c3"/></g></svg>