<svg xmlns="http://www.w3.org/2000/svg" viewBox="0 0 47.5 47.5"><defs><clipPath id="a"><path d="M0 38h38V0H0v38z"/></clipPath></defs><g clip-path="url(#a)" transform="matrix(1.25 0 0 -1.25 0 47.5)"><path d="M35.54 5.512s1.18-.215 1.18-1.256C36.72 3.213 35.676 3 34.634 3h-17.72c-2.084 0-2.084 3.34-5.212 9.594-3.127 6.255-6.253 2-6.253 2L4.408 2H2v13.936c0 2.084-.88 4.285-.88 5.21 0 2.085.671 4.396.671 4.396l6.746-2.311L35.54 5.51z" fill="#292f33"/><path d="M2.668 23.72c3.036-.733 10.291-3.88 13.969-17.38 0 0 0-1.34 2.363-1.34h16.539s1.18.257 1.18 2.424c0 1.084-5.907 3.38-8.27 4.464-2.361 1.084-4.445 4.317-4.445 4.317s-4.17-1.635-11.258 5.952c-7.088 7.587-4.378 10.438-6.741 10.438-.485 0-3.738-3.307-4.544-7.038-.115-.533.343-1.63 1.207-1.838" fill="#9266cc"/></g></svg>