<svg xmlns="http://www.w3.org/2000/svg" viewBox="0 0 47.5 47.5"><defs><clipPath id="a"><path d="M0 38h38V0H0v38z"/></clipPath></defs><g clip-path="url(#a)" transform="matrix(1.25 0 0 -1.25 0 47.5)"><path d="M30.96 13.913C35 10 35.043 2.978 34.022 2.978c-1.022 0-4.116 1.852-6.069 3.937-1.953 2.085-1.75 6.78-1.75 6.78l1.586 4.32s-.869-.189 3.171-4.102" fill="#662113"/><path d="M27.96 13.913C32 10 32.043 2.978 31.022 2.978c-1.022 0-4.116 1.852-6.069 3.937-1.953 2.085-1.75 6.78-1.75 6.78l1.586 4.32s-.869-.189 3.171-4.102M4 3c-1 0-1 7 3 11s3 4 3 4l2-4s0-5-2-7-5-4-6-4" fill="#662113"/><path d="M7 3c-1 0-1 7 3 11s3 4 3 4l2-4s0-5-2-7-5-4-6-4" fill="#662113"/><path d="M7.914 18.647c-.57 2.134-2.116 3.575-3.45 3.217-1.334-.357-1.95-2.377-1.379-4.51.571-2.135 2.116-3.575 3.45-3.217 1.334.357 1.951 2.377 1.38 4.51M34.915 17.352c.571 2.134-.046 4.154-1.38 4.512-1.333.356-2.878-1.083-3.449-3.218-.572-2.134.045-4.153 1.379-4.51 1.334-.357 2.879 1.083 3.45 3.217" fill="#d99e82"/><path d="M32 18c0 9.389-5.82 16-13 16S6 27.389 6 18 11.82 3 19 3s13 5.611 13 15" fill="#d99e82"/><path d="M19 9.349c-2.42 0-4.274.687-4.352.715a1 1 0 0 0 .702 1.873c.016-.006 1.609-.588 3.65-.588s3.635.582 3.65.588a1 1 0 0 0 .702-1.873c-.078-.028-1.931-.715-4.352-.715" fill="#dd2e44"/><path d="M20 14h-2a1 1 0 1 0 0 2h2a1 1 0 1 0 0-2" fill="#c1694f"/><path d="M13 17a1 1 0 0 0-1 1v2a1 1 0 0 0 2 0v-2a1 1 0 0 0-1-1M25 17a1 1 0 0 0-1 1v2a1 1 0 1 0 2 0v-2a1 1 0 0 0-1-1M19 34v-5s-1-4-6-4-7-5.999-7-9c0 0-2.648 5.231-1 11 2 7 7 9 10 9 2 0 4-2 4-2M19 34v-5s.786-4 5.786-4S32 19.001 32 16c0 0 2.648 5.231 1 11-2 7-7 9-10 9-2 0-4-2-4-2" fill="#662113"/></g></svg>