<svg xmlns="http://www.w3.org/2000/svg" viewBox="0 0 47.5 47.5"><defs><clipPath id="a"><path d="M0 38h38V0H0v38z"/></clipPath></defs><g clip-path="url(#a)" transform="matrix(1.25 0 0 -1.25 0 47.5)"><path d="M7 17c0-2.209-1.119-4-2.5-4S2 14.791 2 17s1.119 4 2.5 4S7 19.209 7 17M36 17c0-2.209-1.119-4-2.5-4S31 14.791 31 17s1.119 4 2.5 4 2.5-1.791 2.5-4" fill="#d99e82"/><path d="M5 16.438c0 8.526 6.268 15.438 14 15.438s14-6.912 14-15.438C33 7.912 26.732 2 19 2S5 7.911 5 16.438" fill="#d99e82"/><path d="M13 15a1 1 0 0 0-1 1v2a1 1 0 0 0 2 0v-2a1 1 0 0 0-1-1M25 15a1 1 0 0 0-1 1v2a1 1 0 1 0 2 0v-2a1 1 0 0 0-1-1" fill="#662113"/><path d="M19 7c-4.188 0-6.357 1.061-6.447 1.105a1.001 1.001 0 0 0 .89 1.791C13.494 9.872 15.368 9 19 9c3.665 0 5.54.888 5.559.897a1.002 1.002 0 0 0 1.336-.457.998.998 0 0 0-.448-1.335C25.356 8.061 23.187 7 19 7M20 12h-2a1 1 0 1 0 0 2h2a1 1 0 1 0 0-2" fill="#c1694f"/><path d="M19 36.645c-9.23 0-15-6.462-15-11.846 0-5.385 1.154-7.539 2.308-5.385l2.307 4.308s3.792.124 6.099 2.278c0 0-1.071-4 6.595-.125 0 0-.166-3.875 5.191.125 0 0 4.039-1.2 5.191-6.586.321-1.494 2.309 0 2.309 5.385 0 5.384-4.615 11.846-15 11.846" fill="#662113"/></g></svg>