<svg xmlns="http://www.w3.org/2000/svg" viewBox="0 0 47.5 47.5"><defs><clipPath id="a"><path d="M0 38h38V0H0v38z"/></clipPath></defs><g clip-path="url(#a)" transform="matrix(1.25 0 0 -1.25 0 47.5)"><path d="M30 16.271v1.963c1 1.03 2.914 2.89 3.391 5.273.141-.079.054-.13.213-.13.757 0 1.255.985 1.255 2.199 0 1.194-.656 2.16-1.398 2.19.143.516.212 1.207.212 2.092 0 2.956-2.549 6.505-8.253 6.505-5.068 0-8.244-3.55-8.244-6.505 0-.858.051-1.562.142-2.107-.697-.105-1.247-1.033-1.247-2.175 0-1.214.615-2.198 1.373-2.198.158 0-.069.05.072.13.477-2.383 2.484-4.243 3.484-5.273v-1.847c-4-.492-7-2.628-7-4.764v-.811C14 10 14.823 10 15.634 10h18.73c.813 0 1.636 0 1.636.812v.811c0 2-3 3.996-6 4.648" fill="#66757f"/><path d="M18 8.271v1.963c1 1.03 2.914 2.89 3.391 5.274.141-.08.054-.13.213-.13.757 0 1.255.983 1.255 2.197 0 1.194-.656 2.161-1.398 2.191.143.515.212 1.206.212 2.091 0 2.956-2.549 6.505-8.253 6.505-5.069 0-8.244-3.549-8.244-6.505 0-.858.051-1.562.142-2.107-.697-.105-1.247-1.033-1.247-2.175 0-1.214.615-2.198 1.373-2.198.158 0-.069.051.072.13C5.993 13.124 8 11.264 9 10.234V8.387C5 7.895 2 5.76 2 3.623v-.811C2 2 2.823 2 3.634 2h18.73C23.177 2 24 2 24 2.812v.811c0 2-3 3.996-6 4.648" fill="#292f33"/></g></svg>