<svg xmlns="http://www.w3.org/2000/svg" viewBox="0 0 47.5 47.5"><defs><clipPath id="a"><path d="M0 38h38V0H0v38z"/></clipPath></defs><g clip-path="url(#a)" transform="matrix(1.25 0 0 -1.25 0 47.5)"><path d="M5 17c-3 0-3.601-1.546-4-3 0-1 0-1 1-1 .72 0 9.828-1.42 9.828-1.42l12.739-5.096L30 6s3.844-1.063 5.844.937c1 1 3.189 3.216-3.594 4.603-2.25.46-3.471.098-6.087.756-2.618.659-2.08-.461-4.163.704-2.085 1.165-3.939 2.322-11.593 3.599C8 17 6 17 5 17" fill="#d99e82"/><path d="M36 4h-8c-5.632 0-15.397 6.031-17 6-.692-.013-1-.098-1-4 0-2-1-2-1-2H2c-1.064.26-1 2-1 2 .051.999 0 8 0 8s4.087.993 9.941-.687C16.795 11.634 25 8 25 8h11.969c0-1 .215-3.977-.969-4" fill="#c1694f"/><path d="M20.207 8.333c.251 1.334 2.29 10.428 2.626 11.667.334 1.24 7.959-.042 7.875-2-.291-1.625-1.867-10.732-1.87-11.084.037-1.499-8.882.083-8.631 1.417" fill="#be1931"/></g></svg>