<svg xmlns="http://www.w3.org/2000/svg" viewBox="0 0 47.5 47.5"><defs><clipPath id="a"><path d="M0 38h38V0H0v38z"/></clipPath></defs><g clip-path="url(#a)" transform="matrix(1.25 0 0 -1.25 0 47.5)"><path d="M35.54 3.512s1.18-.215 1.18-1.256C36.72 1.213 35.676 1 34.634 1h-17.72C14.831 1 11 5 9 5l-.592-4H2v2.936c0 2.084-.88 2.285-.88 3.21 0 2.085.671 4.395.671 4.395l6.746-.31L18 4l17.54-.488z" fill="#662113"/><path d="M2.668 9.719C5.704 8.988 9 7.999 16.637 4.339c0 0 2-1.34 4.363-1.34h14.539s1.18.258 1.18 2.425c0 1.084-7.907 3.38-10.27 4.465-2.361 1.084-6.445 6.316-6.445 6.316s-.17-13.634-7.258-6.05c-7.088 7.589-4.378 6.44-6.741 6.44-.485 0-3.738-1.306-4.544-5.038-.115-.533.343-1.63 1.207-1.838" fill="#c1694f"/><path d="M3 15s1 2 1 4-1 17-1 17 4.917 1 10 1c5.084 0 7-1 7-1s-6-15 2-23c2.55-2.55-2-7-2-7s-1-2-4 0-13 9-13 9" fill="#c1694f"/><path d="M11 17H9v20h2V17z" fill="#d99e82"/></g></svg>