<svg xmlns="http://www.w3.org/2000/svg" viewBox="0 0 47.5 47.5"><defs><clipPath id="a"><path d="M0 38h38V0H0v38z"/></clipPath></defs><g clip-path="url(#a)" transform="matrix(1.25 0 0 -1.25 0 47.5)"><path d="M25 10.201v2.566c2 1.348 4.08 3.78 4.703 6.896.186-.102.206-.17.413-.17.991 0 1.709 1.287 1.709 2.874 0 1.562-.823 2.827-1.794 2.865.187.675.293 1.577.293 2.736 0 3.865-3.324 8.506-10.783 8.506-6.629 0-10.777-4.64-10.777-8.506 0-1.123.069-2.043.188-2.756-.911-.137-1.629-1.35-1.629-2.845 0-1.587.803-2.874 1.796-2.874.206 0 .025.068.209.17C9.952 16.547 12 14.115 14 12.767v-2.414C9 9.71 2 6.917 2 4.123V3.062C2 2 3.076 2 4.137 2h29.724C34.924 2 36 2 36 3.062v1.061c0 2.615-6 5.224-11 6.078" fill="#292f33"/></g></svg>