<svg xmlns="http://www.w3.org/2000/svg" viewBox="0 0 47.5 47.5"><defs><clipPath id="a"><path d="M0 38h38V0H0v38z"/></clipPath></defs><g clip-path="url(#a)" transform="matrix(1.25 0 0 -1.25 0 47.5)"><path d="M9 18c0-2.209-1.119-4-2.5-4S4 15.791 4 18s1.119 4 2.5 4S9 20.209 9 18M34 18c0-2.209-1.119-4-2.5-4S29 15.791 29 18s1.119 4 2.5 4 2.5-1.791 2.5-4" fill="#d99e82"/><path d="M6 16.438c0 8.526 5.82 15.438 13 15.438s13-6.912 13-15.438C32 7.912 26.18 1 19 1S6 7.911 6 16.438" fill="#d99e82"/><path d="M14 17a1 1 0 0 0-1 1v2a1 1 0 0 0 2 0v-2a1 1 0 0 0-1-1M24 17a1 1 0 0 0-1 1v2a1 1 0 1 0 2 0v-2a1 1 0 0 0-1-1" fill="#662113"/><path d="M20 13h-2a1 1 0 1 0 0 2h2a1 1 0 1 0 0-2" fill="#c1694f"/><path d="M26.274 9.962l-3.294.94c.003.035.02.064.02.098a1 1 0 0 1-1 1h-6a1 1 0 0 1-1-1c0-.034.016-.063.02-.097l-3.295-.941a1 1 0 0 1 .55-1.924l1.93.552a.993.993 0 0 1-.1-1.037.999.999 0 0 1 1.342-.447l1.577.788a.98.98 0 0 1 .528-.788.998.998 0 0 1 1.342.447l.106.21.105-.21a.999.999 0 0 1 1.342-.447.981.981 0 0 1 .53.788l1.575-.788a1 1 0 0 1 1.342.447.995.995 0 0 1-.099 1.037l1.93-.552a1 1 0 0 1 .549 1.924M19 37c8.615 0 14-6.357 14-11.655 0-5.298-1.077-7.418-2.154-5.298l-2.154 4.238s-6.462 0-8.615 2.12c0 0 3.231-6.358-3.231 0 0 0 1.077-4.24-5.385 1.059 0 0-3.23-2.12-4.307-7.417-.299-1.47-2.154 0-2.154 5.298S9.308 37 19 37" fill="#414042"/></g></svg>