<svg xmlns="http://www.w3.org/2000/svg" viewBox="0 0 47.5 47.5"><defs><clipPath id="a"><path d="M0 38h38V0H0v38z"/></clipPath></defs><g clip-path="url(#a)" transform="matrix(1.25 0 0 -1.25 0 47.5)"><path d="M19 34c6 0 16-3 16-16s0-16-3-16-7 3-13 3S9.085 2 6 2C2.657 2 3 14 3 18c0 13 10 16 16 16" fill="#c1694f"/><path d="M7 18.438c0 8.526 5.373 15.438 12 15.438s12-6.912 12-15.438C31 9.912 25.627 3 19 3S7 9.912 7 18.438" fill="#d99e82"/><path d="M19 7c-2.347 0-3.575 1.16-3.707 1.293a.999.999 0 0 0 1.404 1.424C16.749 9.67 17.503 9 19 9c1.519 0 2.273.689 2.305.719a1.007 1.007 0 0 0 1.408-.03.993.993 0 0 0-.006-1.396C22.575 8.16 21.347 7 19 7" fill="#be1931"/><path d="M20 12h-2a1 1 0 1 0 0 2h2a1 1 0 1 0 0-2" fill="#c1694f"/><path d="M4.064 13c-.03.325-.064.647-.064 1 0 5 3-.563 3 3 0 3.563 2 4 4 6l3 3s5-3 9-3 8-2 8-6 3 2 3-3c0-.355-.033-.673-.057-1h1.049C35 14.477 35 16.132 35 18c0 13-10 18-16 18S3 31 3 18c0-1.158-.03-2.986.012-5h1.052z" fill="#c1694f"/><path d="M14 15a1 1 0 0 0-1 1v2a1 1 0 0 0 2 0v-2a1 1 0 0 0-1-1M24 15a1 1 0 0 0-1 1v2a1 1 0 1 0 2 0v-2a1 1 0 0 0-1-1" fill="#662113"/></g></svg>