<svg xmlns="http://www.w3.org/2000/svg" viewBox="0 0 47.5 47.5"><defs><clipPath id="a"><path d="M0 38h38V0H0v38z"/></clipPath></defs><path d="M10 45H6.25L7.5 32.86h3.75L10 45z" fill="#d79e84"/><g clip-path="url(#a)" transform="matrix(1.25 0 0 -1.25 0 47.5)"><path d="M13.876 3.208l-1.833 1.333s3.166 3.012 2.53 3.994c-.635.982-3.781 1.688-3.781 1.688l1.918 2.306s3.957-1.904 4.77-3.333c.826-1.451-3.604-5.988-3.604-5.988" fill="#d79e84"/><path d="M4 1v1s0 1 2 1 2-1 2-1V1H4zM14.553 1.517l.421.908s.42.907-1.396 1.747c-1.813.84-2.233-.066-2.233-.066l-.42-.907 3.628-1.682z" fill="#292f33"/><path d="M5 10.712a.997.997 0 0 0-.707.293l-3 3a1 1 0 0 0-.074 1.332l4 3.288a1 1 0 1 0 1.562-1.25l-3.441-2.59 2.367-2.366A.999.999 0 0 0 5 10.712M15 10.712a.999.999 0 0 0-.707 1.707l2.367 2.367-3.441 2.589a1 1 0 0 0 1.562 1.25l4-3.288a1 1 0 0 0-.074-1.332l-3-3a.997.997 0 0 0-.707-.293" fill="#d79e84"/><path d="M16 18a2 2 0 0 1-2 2H6a2 2 0 0 1-2-2v-1h2v-5.288l3-2h2l3 2V17h2v1z" fill="#292f33"/><path d="M17 27.999A6.001 6.001 0 0 1 11 34a5.964 5.964 0 0 1-3.402-1.061c-.197.03-.393.061-.598.061a4 4 0 0 1-4-4v-6h4.686c.949-.631 2.088-1 3.314-1s2.364.369 3.314 1H17v4.999z" fill="#ffd983"/><path d="M12 20v3H8v-3H7v-1s0-3 3-3 3 3 3 3v1h-1z" fill="#d79e84"/><path d="M12 23l-4-.019V19s2-1 4 0v4z" fill="#bf6952"/><path d="M15 31H5v-6c0-2.763 2.238-5 5-5a5 5 0 0 1 5 5v6z" fill="#d79e84"/><path d="M8 31s0-4 8-4v4H8zM8 31s0-4-4-4v4h4z" fill="#ffd983"/><path d="M12 22H8s0-1 2-1 2 1 2 1" fill="#c1694f"/><path d="M8 25.5a.5.5 0 1 0-1 0 .5.5 0 0 0 1 0M13 25.5a.5.5 0 1 0-1 0 .5.5 0 0 0 1 0" fill="#664500"/><path d="M9 24h2s0-1-1-1-1 1-1 1" fill="#c1694f"/><path d="M4.688 35.875c2.625.219 3.75-2.875 3-4.25-1.97 0-3.938 1.812-3 4.25M14.675 35.813c-2.625.218-3.75-2.876-3-4.25 1.969 0 3.937 1.812 3 4.25" fill="#292f33"/><path d="M7.313 32.75c1.812 1.437 4.344 1.062 5.155-.156.031-.313-.37-1.178-.687-1.031-.813.375-2.188.937-4.063.062-.094.063-.44 1.098-.406 1.125" fill="#292f33"/><path d="M24 2h-3l1 9.712h3L24 2zM29.875 3.208l-1.833 1.333s3.167 3.012 2.531 3.994c-.636.982-3.782 1.688-3.782 1.688l1.918 2.306s3.958-1.904 4.77-3.333c.826-1.451-3.604-5.988-3.604-5.988" fill="#d79e84"/><path d="M30.553 1.517l.422.908s.418.907-1.397 1.747c-1.812.84-2.232-.066-2.232-.066l-.42-.907 3.627-1.682zM20 1v1s0 1 2 1 2-1 2-1V1h-4z" fill="#292f33"/><path d="M21 10.712a.997.997 0 0 0-.707.293l-3 3a1 1 0 0 0-.074 1.332l4 3.288a1 1 0 1 0 1.562-1.25l-3.441-2.59 2.367-2.366A.999.999 0 0 0 21 10.712M31 10.712a.999.999 0 0 0-.707 1.707l2.367 2.367-3.441 2.589a1 1 0 1 0 1.562 1.25l4-3.288a1 1 0 0 0-.074-1.332l-3-3a.997.997 0 0 0-.707-.293" fill="#d79e84"/><path d="M32 18a2 2 0 0 1-2 2h-8a2 2 0 0 1-2-2v-1h2v-5.288l3-2h2l3 2V17h2v1z" fill="#292f33"/><path d="M33 27.999A6.001 6.001 0 0 1 27 34a5.962 5.962 0 0 1-3.402-1.061c-.197.03-.393.061-.598.061a4 4 0 0 1-4-4v-6h4.686c.949-.631 2.087-1 3.314-1 1.226 0 2.364.369 3.314 1H33v4.999z" fill="#ffd983"/><path d="M28 20v3h-4v-3h-1v-1s0-3 3-3 3 3 3 3v1h-1z" fill="#d79e84"/><path d="M28 23l-4-.019V19s2-1 4 0v4z" fill="#bf6952"/><path d="M31 31H21v-6c0-2.763 2.238-5 5-5s5 2.237 5 5v6z" fill="#d79e84"/><path d="M24 31s0-4 8-4v4h-8zM24 31s0-4-4-4v4h4z" fill="#ffd983"/><path d="M28 22h-4s0-1 2-1 2 1 2 1" fill="#c1694f"/><path d="M24 25.5a.5.5 0 1 0-1 0 .5.5 0 0 0 1 0M29 25.5a.5.5 0 1 0-1 0 .5.5 0 0 0 1 0" fill="#664500"/><path d="M25 24h2s0-1-1-1-1 1-1 1" fill="#c1694f"/><path d="M20.781 35.875c2.625.219 3.75-2.875 3-4.25-1.969 0-3.937 1.812-3 4.25M30.769 35.813c-2.625.218-3.75-2.876-3-4.25 1.969 0 3.937 1.812 3 4.25" fill="#292f33"/><path d="M23.406 32.75c1.812 1.437 4.344 1.062 5.156-.156.031-.313-.37-1.178-.687-1.031-.813.375-2.188.937-4.063.062-.094.063-.44 1.098-.406 1.125" fill="#292f33"/></g></svg>