<svg xmlns="http://www.w3.org/2000/svg" viewBox="0 0 47.5 47.5"><defs><clipPath id="a"><path d="M0 38h38V0H0v38z"/></clipPath></defs><g clip-path="url(#a)" transform="matrix(1.25 0 0 -1.25 0 47.5)"><path d="M29 16c0-2.209-3-15-9-15h-8C6 1 3 13.791 3 16v17a4 4 0 0 0 4 4h18a4 4 0 0 0 4-4V16z" fill="#da2f47"/><path d="M15.44 27.829c2.139-2.343 2.716-5.51 1.29-7.071-1.422-1.562-4.311-.93-6.448 1.414-2.136 2.343-2.715 5.51-1.29 7.07 1.425 1.563 4.314.93 6.449-1.413" fill="#f5f8fa"/><path d="M16.934 24.294c.609-.781.609-2.048 0-2.83-.606-.78-1.593-.78-2.201 0-.61.782-.61 2.049 0 2.83.608.78 1.595.78 2.2 0" fill="#292f33"/><path d="M22.727 27.729c-1.826-2.342-2.318-5.509-1.1-7.071 1.215-1.562 3.68-.929 5.504 1.414 1.825 2.343 2.317 5.51 1.1 7.071-1.215 1.562-3.68.929-5.504-1.414" fill="#f5f8fa"/><path d="M22.176 24.193c-.61-.78-.61-2.047 0-2.828.607-.78 1.596-.78 2.2 0 .613.781.613 2.047 0 2.828-.604.781-1.593.781-2.2 0M21.892 26a2 2 0 0 0-1.577 3.229l4.67 6a2 2 0 1 0 3.156-2.458l-4.67-6A1.996 1.996 0 0 0 21.89 26M17.221 26c-.596 0-1.185.265-1.58.771l-4.672 6a2 2 0 0 0 3.156 2.458l4.673-6A2.001 2.001 0 0 0 17.221 26" fill="#292f33"/><path d="M25 5.999c-.81 0-1.571.496-1.873 1.299C23.023 7.557 21.96 10 19 10s-4.023-2.443-4.135-2.722a2.012 2.012 0 0 0-2.583-1.133 1.992 1.992 0 0 0-1.155 2.557C11.208 8.919 13.181 14 19 14c5.819 0 7.792-5.081 7.873-5.298A2.001 2.001 0 0 0 25 5.999" fill="#fdd888"/><path d="M19.555 15s4.482.553 7.05-4c2.819-5 2.819 5 2.114 6-.704 1-1.451-1.386-2.82-.9-2.821 1-6.344-1.1-6.344-1.1M19.555 15s-5.888.553-9.263-4c-3.703-5-3.703 5-2.778 6 .927 1 1.908-1.725 3.706-1.239 3.705 1 8.335-.761 8.335-.761" fill="#292f33"/><path d="M33.262 22c-.09 0-.174-.02-.262-.029V22H19.155c-1.511 0-2.735-1.343-2.735-3s1.224-3 2.735-3H33v.029c.088-.009.172-.029.262-.029C34.775 16 36 17.343 36 19c0 1.656-1.225 3-2.738 3" fill="#e75a70"/></g></svg>