<svg xmlns="http://www.w3.org/2000/svg" viewBox="0 0 47.5 47.5"><defs><clipPath id="a"><path d="M0 38h38V0H0v38z"/></clipPath></defs><g clip-path="url(#a)" transform="matrix(1.25 0 0 -1.25 0 47.5)"><path d="M36 19c0 7.002-2 13-7 16s-10 .785-10 .785v-.034l-.001.034S14 38 9 35c-5-3-7-8.998-7-16C2 11.999 1 1 1 1h36s-1 10.998-1 18" fill="#e6e7e8"/><path d="M18.999 34.19c4.876 0 13.001-2.437 13.001-13 0-10.564 0-13.001-2.438-13.001-2.437 0-5.687 2.437-10.563 2.437-4.875 0-8.056-2.437-10.563-2.437-2.716 0-2.438 9.75-2.438 13 0 10.564 8.126 13.002 13.001 13.002" fill="#662113"/><path d="M33 1v1a6 6 0 0 1-6 6H11a6 6 0 0 1-6-6V1h28z" fill="#fff"/><path d="M28.75 21.545c0 6.928-4.366 12.544-9.751 12.544s-9.75-5.616-9.75-12.544c0-5.58 2.834-10.305 6.751-11.934v-1.61h-3V3h12v5h-3v1.612c3.916 1.63 6.75 6.352 6.75 11.932" fill="#d79e84"/><path d="M18.999 12.065c-1.982 0-3.032.992-3.145 1.105a1.001 1.001 0 0 0 1.401 1.427c.044-.04.615-.532 1.744-.532 1.15 0 1.721.512 1.745.533.4.37 1.029.357 1.406-.036a.992.992 0 0 0-.006-1.392c-.114-.113-1.163-1.105-3.145-1.105" fill="#be1931"/><path d="M20 16h-2a1 1 0 1 0 0 2h2a1 1 0 1 0 0-2" fill="#c1694f"/><path d="M6.863 17c-.025 0-.052.59-.052.876 0 4.063 2.437-.425 2.437 2.47s1.625 3.266 3.25 4.891c.813.812 2.438 2.446 2.438 2.446S19 25.249 22.25 25.249c3.25 0 6.5-1.624 6.5-4.874 0-3.25 2.437 1.563 2.437-2.5 0-.289-.027-.875-.047-.875h.853C32 18 32 19.608 32 21.126c0 10.563-8.125 14.658-13 14.658-4.877 0-13.002-4.11-13.002-14.674 0-.941-.023-2.11.01-4.11h.855z" fill="#662113"/><path d="M15 19a1 1 0 0 0-1 1v1a1 1 0 0 0 2 0v-1a1 1 0 0 0-1-1M23 19a1 1 0 0 0-1 1v1a1 1 0 1 0 2 0v-1a1 1 0 0 0-1-1" fill="#662113"/><path d="M28.648 31.04a13.263 13.263 0 0 1-1.516 1.535C25.69 32.235 22.596 32 19 32c-3.592 0-6.683.234-8.126.572a13.34 13.34 0 0 1-1.517-1.534C11.228 30.419 14.845 30 19 30c4.159 0 7.777.42 9.647 1.039" fill="#fff"/></g></svg>