<svg xmlns="http://www.w3.org/2000/svg" viewBox="0 0 47.5 47.5"><defs><clipPath id="a"><path d="M0 38h38V0H0v38z"/></clipPath></defs><g clip-path="url(#a)" transform="matrix(1.25 0 0 -1.25 0 47.5)"><path d="M19 33V6S0-2 7 7C4 7 1 6 1 9s4 5 4 5-7 0-1 8c0 0-6 2 2 7 0 0-6 6.072 7 3 0 0 0 5 2 5s4-4 4-4M19 33V6s19-8 12 1c3 0 6-1 6 2s-4 5-4 5 7 0 1 8c0 0 6 2-2 7 0 0 6 6.018-7 3 0 0 0 5-2 5s-4-4-4-4"/><path d="M7 16.438C7 29 12.373 31.876 19 31.876S31 29 31 16.438C31 7.912 26.969 1 19 1 11.004 1 7 7.911 7 16.438" fill="#dd2e44"/><path d="M21 11h-1a1 1 0 1 0 0 2h1a1 1 0 1 0 0-2" fill="#a0041e"/><path d="M18 11h-1a1 1 0 1 0 0 2h1a1 1 0 1 0 0-2" fill="#a0041e"/><path d="M14.86 27.511c.028.05.05.101.07.156.184.512-.046 1.08-.553 1.275C14.35 28.952 12 30.035 9 36.39v.004c0 .058-.11.1-.143.151a1.15 1.15 0 0 1-.131.164c-.09.09-.206.16-.321.21-.031.012-.075.012-.108.022a.995.995 0 0 1-.275.055c-.007 0-.014.004-.02.004-.05 0-.091-.02-.138-.028-.066-.008-.133-.006-.198-.029-.01-.004-.017-.012-.027-.015-.058-.023-.106-.06-.158-.094-.057-.035-.116-.065-.163-.11-.041-.038-.068-.086-.102-.13-.042-.056-.086-.109-.116-.173-.023-.048-.031-.1-.046-.154-.02-.07-.04-.14-.044-.216-.001-.018-.01-.033-.01-.05 0-.269.063-6.604 5.485-9.858a.997.997 0 0 1 1.015-.007c.018-.009.035-.02.053-.03a1 1 0 0 1 1.307 1.405M30.99 36.05a.931.931 0 0 1-.044.216c-.015.053-.023.107-.046.156-.029.062-.072.112-.113.167-.034.046-.063.096-.105.135-.046.043-.102.072-.156.106-.055.034-.104.074-.165.097-.01.004-.017.012-.026.016-.066.023-.13.02-.198.03-.045.006-.086.027-.134.027H30c-.007 0-.012-.004-.019-.004a1.013 1.013 0 0 1-.297-.06c-.024-.009-.052-.008-.077-.018a.991.991 0 0 1-.526-.524c-2.726-6.359-5.392-7.442-5.398-7.445a1 1 0 0 1-.549-1.449 1 1 0 0 1 1.313-1.394c.02.01.034.021.053.03a1 1 0 0 1 1.014.007C30.937 29.397 31 35.733 31 36.001c0 .017-.009.032-.01.05" fill="#ffac33"/><path d="M19 4c-3.171 0-7.194 1.368-7.194 2.905 0 .408.229.778.597.963.177.089.371.132.597.132h12.238l.359-.132.549-.277.047-.686C26.193 5.368 22.171 4 19 4"/><path d="M14 6a1 1 0 1 0 0 2 1 1 0 0 0 0-2M24 6a1 1 0 1 0 0 2 1 1 0 1 0 0-2M21 5a1 1 0 0 0-1 1v1a1 1 0 1 0 2 0V6a1 1 0 0 0-1-1M17 5a1 1 0 0 0-1 1v1a1 1 0 1 0 2 0V6a1 1 0 0 0-1-1" fill="#ffac33"/><path d="M15 15a2 2 0 0 0-2 2v3a2 2 0 0 0 4 0v-3a2 2 0 0 0-2-2M23 15a2 2 0 0 0-2 2v3a2 2 0 0 0 4 0v-3a2 2 0 0 0-2-2"/></g></svg>