<svg xmlns="http://www.w3.org/2000/svg" viewBox="0 0 47.5 47.5"><defs><clipPath id="a"><path d="M0 38h38V0H0v38z"/></clipPath></defs><g clip-path="url(#a)" transform="matrix(1.25 0 0 -1.25 0 47.5)"><path d="M30.672 21.973C29.427 28.792 24.68 33.876 19 33.876c-5.68 0-10.427-5.084-11.671-11.903-1.3-.144-2.33-1.857-2.33-3.973 0-2.21 1.12-4 2.5-4h.01C8.99 7.64 13.572 3 18.999 3c5.429 0 10.01 5 11.492 11h.009c1.38 0 2.5 1.79 2.5 4 0 2.116-1.03 3.829-2.328 3.973" fill="#d99e82"/><path d="M14 16a1 1 0 0 0-1 1v2a1 1 0 0 0 2 0v-2a1 1 0 0 0-1-1M24 16a1 1 0 0 0-1 1v2a1 1 0 1 0 2 0v-2a1 1 0 0 0-1-1" fill="#662113"/><path d="M19 7c-2.21 0-4.357 1.061-4.447 1.105a1.001 1.001 0 0 0 .893 1.791C15.464 9.886 17.27 9 19 9c1.73 0 3.536.886 3.554.896a1.002 1.002 0 0 0 .893-1.791C23.356 8.061 21.211 7 19 7M20 12h-2a1 1 0 1 0 0 2h2a1 1 0 1 0 0-2" fill="#c1694f"/><path d="M19 26.048s10.327-2.685 11.91-7.518c.69 1.476 1.09 4.893 1.09 6.719 0 5.545-5.417 9.75-11.375 9.75h-3.25C11.417 35 6 30.795 6 25.25c0-1.826.4-5.388 1.089-6.862C8.673 23.22 19 26.047 19 26.047" fill="#e6e7e8"/><path d="M31.966 24.254c-2.017 1.611-4.384 2.94-6.65 3.695a1 1 0 0 1-.633-1.898c2.406-.8 5.035-2.39 7.04-4.223.12.84.202 1.684.243 2.426M6.169 22.615c2.898 2.072 12.518 8.292 23.604 8.377a10.936 10.936 0 0 1-2.181 1.916c-9.687-.719-17.97-5.545-21.584-7.976.014-.657.066-1.463.16-2.317" fill="#d1d3d4"/><path d="M31.12 28.976c-.04.005-.077.024-.12.024-4.095 0-8.238-1.026-12.318-3.045.201.061.318.093.318.093s1.178-.307 2.797-.898C24.868 26.372 27.954 27 31 27c.293 0 .551.131.733.332a8.568 8.568 0 0 1-.613 1.644M6.271 27.345c3.578 2.291 10.386 5.806 17.956 7.125a12.78 12.78 0 0 1-3.602.53h-2.549a56.957 56.957 0 0 1-10.143-4.36 8.924 8.924 0 0 1-1.662-3.295" fill="#d1d3d4"/></g></svg>