<svg xmlns="http://www.w3.org/2000/svg" viewBox="0 0 47.5 47.5"><defs><clipPath id="a"><path d="M0 38h38V0H0v38z"/></clipPath></defs><g clip-path="url(#a)" transform="matrix(1.25 0 0 -1.25 0 47.5)"><path d="M34 18c0 2.209-1.119 4-2.5 4-.125 0-.246-.03-.366-.059-1.868 5.805-6.589 9.934-12.134 9.934-5.544 0-10.266-4.129-12.134-9.934-.12.029-.241.059-.366.059C5.119 22 4 20.209 4 18c0-2.028.947-3.687 2.171-3.947C7.138 6.663 12.505 1 19 1c6.495 0 11.861 5.663 12.829 13.053C33.053 14.313 34 15.972 34 18" fill="#d99e82"/><path d="M14 13a1 1 0 0 0-1 1v2a1 1 0 1 0 2 0v-2a1 1 0 0 0-1-1M24 13a1 1 0 0 0-1 1v2a1 1 0 1 0 2 0v-2a1 1 0 0 0-1-1" fill="#662113"/><path d="M3 22c0 2.762 6.611 5 16 5s16-2.238 16-5c0-2.76-6.611-6-16-6S3 19.24 3 22" fill="#ffe8b6"/><path d="M4 23c0 7 6.198 14 15 14s15-7 15-14c0-1-6.198-4-15-4S4 22 4 23" fill="#ffd983"/><path d="M26 20a1 1 0 0 0-1 1c0 7.728-1.93 13.625-1.949 13.684a1 1 0 0 0 1.897.633c.08-.24 1.876-5.71 2.04-13.224 1.139.162 3.165.603 5.565 1.803a1.001 1.001 0 0 0 .894-1.79C29.284 20.025 26.132 20 26 20M12 20c-.132 0-3.284.024-7.447 2.105a1.001 1.001 0 0 0 .894 1.79c2.399-1.2 4.425-1.64 5.565-1.802.164 7.513 1.959 12.984 2.039 13.223.176.524.744.806 1.264.633.524-.175.808-.74.634-1.264C14.929 34.624 13 28.727 13 21a1 1 0 0 0-1-1" fill="#ffac33"/><path d="M22 27h-2v2a1 1 0 0 1-2 0v-2h-2a1 1 0 0 1 0-2h2v-2a1 1 0 0 1 2 0v2h2a1 1 0 1 1 0 2" fill="#5c913b"/><path d="M19 5c-2.21 0-4.357 1.061-4.447 1.105a1.001 1.001 0 0 0 .893 1.791C15.464 7.886 17.27 7 19 7c1.73 0 3.536.886 3.554.896a1 1 0 1 0 .893-1.791C23.356 6.061 21.211 5 19 5M20 9h-2a1 1 0 1 0 0 2h2a1 1 0 1 0 0-2" fill="#c1694f"/></g></svg>