<svg xmlns="http://www.w3.org/2000/svg" viewBox="0 0 47.5 47.5"><defs><clipPath id="a"><path d="M0 38h38V0H0v38z"/></clipPath></defs><g clip-path="url(#a)" transform="matrix(1.25 0 0 -1.25 0 47.5)"><path d="M33 17c0 2.209-1.119 4-2.5 4-.012 0-.021-.004-.033-.005-1.512 6.301-6.073 10.88-11.467 10.88s-9.956-4.579-11.467-10.88c-.012.001-.022.005-.033.005C6.119 21 5 19.209 5 17c0-2.107 1.021-3.815 2.314-3.97C8.537 6.381 13.299 2 19 2c5.7 0 10.463 4.381 11.686 11.03C31.979 13.185 33 14.893 33 17" fill="#d99e82"/><path d="M14 16a1 1 0 0 0-1 1v2a1 1 0 0 0 2 0v-2a1 1 0 0 0-1-1M24 16a1 1 0 0 0-1 1v2a1 1 0 1 0 2 0v-2a1 1 0 0 0-1-1" fill="#3b88c3"/><path d="M19 6c-4.201 0-5.491 1.077-5.707 1.293a.999.999 0 0 0 1.376 1.45C14.749 8.686 15.769 8 19 8c3.355 0 4.326.739 4.336.747.39.389 1.001.37 1.393-.02.39-.391.369-1.043-.022-1.434C24.491 7.077 23.201 6 19 6M20 11h-2a1 1 0 1 0 0 2h2a1 1 0 1 0 0-2" fill="#c1694f"/><path d="M19 36c8 0 13-6 13-11s-1-7-2-5l-2 4s-6 0-8 2c0 0 3-6-3 0 0 0 1-4-5 1 0 0-3-2-4-7-.277-1.386-2 0-2 5s4 11 13 11" fill="#ffd983"/></g></svg>