<svg xmlns="http://www.w3.org/2000/svg" viewBox="0 0 47.5 47.5"><defs><clipPath id="a"><path d="M0 38h38V0H0v38z"/></clipPath></defs><g clip-path="url(#a)" transform="matrix(1.25 0 0 -1.25 0 47.5)"><path d="M37 26a2 2 0 0 1-4 0s-.011-3.285-3-3.894V25c0 6.075-4.925 11-11 11S8 31.075 8 25v-3.237C2.778 20.194 1 13.769 1 10a2 2 0 0 1 4 0s.002 3.54 3.336 3.958C8.838 9.117 9.954 4 12 4h1c4 0 3-2 7-2s3 2 6 2 2.395-2 6-2a3 3 0 0 1 3 3c0 .675-2.274 4.994-3.755 9.268C36.981 15.652 37 22.42 37 26" fill="#e1e8ed"/><path d="M16 25a2 2 0 1 0-4.001.001A2 2 0 0 0 16 25M28 25a4 4 0 1 0-8 0 4 4 0 0 0 8 0" fill="#292f33"/><path d="M26 24a2 2 0 1 0-4.001.001A2 2 0 0 0 26 24" fill="#9aaab4"/><path d="M23.192 17.509c2.65-1.987 3.591-5.211 2.1-7.2-1.492-1.988-4.849-1.988-7.5 0-2.65 1.988-3.59 5.212-2.1 7.2 1.491 1.989 4.85 1.988 7.5 0" fill="#292f33"/></g></svg>