<svg xmlns="http://www.w3.org/2000/svg" viewBox="0 0 47.5 47.5"><defs><clipPath id="a"><path d="M0 38h38V0H0v38z"/></clipPath></defs><g clip-path="url(#a)" transform="matrix(1.25 0 0 -1.25 0 47.5)"><path d="M37 18.5c0 1.639-.97 3.004-2.273 3.385C33.367 29.342 26.85 35 19 35c-7.85 0-14.367-5.658-15.727-13.115C1.97 21.504 1 20.139 1 18.5c0-1.736 1.087-3.168 2.51-3.442C5.269 8.132 11.527 3 19 3c7.473 0 13.731 5.132 15.49 12.058 1.422.274 2.51 1.706 2.51 3.442" fill="#d99e82"/><path d="M19 12c-3 0-4 1-4-1s2-4 4-4 4 2 4 4-1 1-4 1M26 18.5a2.5 2.5 0 1 0-5 0 2.5 2.5 0 0 0 5 0M17 18.5a2.5 2.5 0 1 0-5 0 2.5 2.5 0 0 0 5 0" fill="#662214"/><path d="M19 11h2v-1s0-1-1-1-1 1-1 1v1z" fill="#fff"/><path d="M18.982 26h-.031a4.362 4.362 0 0 0-3.135 1.304 3.739 3.739 0 0 0-1.076 2.847.991.991 0 0 0 1.057.935 1 1 0 0 0 .939-1.059 1.766 1.766 0 0 1 .504-1.337 2.433 2.433 0 0 1 1.725-.729c.653.036 1.269.247 1.735.706a3.31 3.31 0 0 1 .032 4.676 4.391 4.391 0 0 1-6.202.042 1 1 0 1 0-1.404 1.424 6.395 6.395 0 0 0 9.03-.061 5.29 5.29 0 0 0-.051-7.486A4.4 4.4 0 0 0 18.982 26" fill="#662214"/></g></svg>