<svg xmlns="http://www.w3.org/2000/svg" viewBox="0 0 47.5 47.5"><defs><clipPath id="a"><path d="M0 38h38V0H0v38z"/></clipPath><clipPath id="b"><path d="M12 4h14v21.001H12V4z"/></clipPath><clipPath id="c"><path d="M0 38h38V0H0v38z"/></clipPath></defs><g clip-path="url(#a)" transform="matrix(1.25 0 0 -1.25 0 47.5)"><path d="M25 31a6 6 0 0 0-12 0 6 6 0 0 0 12 0" fill="#ccd6dd"/><path d="M26 4H12v21h14V4z" fill="#ccd6dd"/></g><g clip-path="url(#b)" transform="matrix(1.25 0 0 -1.25 0 47.5)"><path d="M34.191 15.49l-23.368 11.4 1.755 3.595 23.367-11.4-1.754-3.595zM27.176 1.11L3.809 12.51l1.753 3.594L28.93 4.705 27.176 1.11z" fill="#dd2e44"/><path d="M32.438 11.895L9.07 23.294l1.753 3.594 23.369-11.398-1.754-3.596zM28.93 4.705l-23.368 11.4L7.317 19.7 30.684 8.3 28.93 4.705zM25.422-2.485L2.055 8.915l1.754 3.595 23.367-11.4-1.754-3.595z" fill="#fff"/><path d="M30.684 8.3L7.317 19.7l1.754 3.596 23.367-11.401L30.684 8.3z" fill="#55acee"/></g><g clip-path="url(#c)" transform="matrix(1.25 0 0 -1.25 0 47.5)"><path d="M28 26a2 2 0 0 0-2-2H12a2 2 0 0 0 0 4h14a2 2 0 0 0 2-2M28 3a2 2 0 0 0-2-2H12a2 2 0 0 0 0 4h14a2 2 0 0 0 2-2" fill="#99aab5"/></g></svg>