<svg xmlns="http://www.w3.org/2000/svg" viewBox="0 0 47.5 47.5"><defs><clipPath id="a"><path d="M0 38h38V0H0v38z"/></clipPath></defs><g clip-path="url(#a)" transform="matrix(1.25 0 0 -1.25 0 47.5)"><path d="M19 5a8 8 0 1 0 0 16 8 8 0 0 0 0-16m0 20c-6.627 0-12-5.373-12-12S12.373 1 19 1s12 5.373 12 12-5.373 12-12 12" fill="#9aaab4"/><path d="M30 32l-4 5H12l-4-5 11-9 11 9z" fill="#5dadec"/><path d="M30 32l-4 5H12l-4-5h22z" fill="#8ccaf7"/><path d="M30 32l-4 5h-7v-5h11z" fill="#5dadec"/><path d="M19 32h11l-11-9v9z" fill="#8ccaf7"/><path d="M26 24a3 3 0 0 0-3-3h-8a3 3 0 1 0 0 6h8a3 3 0 0 0 3-3" fill="#9aaab4"/></g></svg>