<svg xmlns="http://www.w3.org/2000/svg" viewBox="0 0 47.5 47.5"><defs><clipPath id="a"><path d="M1 1h36v36H1V1z"/></clipPath><clipPath id="b"><path d="M0 38h38V0H0v38z"/></clipPath></defs><g clip-path="url(#a)" transform="matrix(1.25 0 0 -1.25 0 47.5)"><path d="M20 19.5H-6a.5.5 0 0 1-.5-.5V0A.5.5 0 0 1-6-.5h26a.5.5 0 0 1 .5.5v19a.5.5 0 0 1-.5.5" fill="#bf6952"/><path d="M18 16C18 9.926 13.074 5 7 5 .925 5-4 9.926-4 16-4 22.075.925 27 7 27c6.074 0 11-4.925 11-11" fill="#d99e82"/><path d="M7 31.795c-7.444 0-13.5-6.056-13.5-13.5 0-1.9.396-3.751 1.178-5.5a.5.5 0 0 1 .952.134c.393 2.756 2.581 4.707 4.512 6.429 1.793 1.599 3.497 3.119 3.444 5.04 6.515-1.17 14.006-6.016 14.784-11.468a.5.5 0 0 1 .952-.134 13.385 13.385 0 0 1 1.178 5.499c0 7.444-6.056 13.5-13.5 13.5" fill="#bf6952"/><path d="M12 14.5a.5.5 0 0 0 0 1c1.412 0 1.497 1.252 1.5 1.503a.501.501 0 0 0 .5.495c.258.037.5-.222.5-.498 0-.864-.522-2.5-2.5-2.5M7 14.5a.5.5 0 0 0 0 1c1.412 0 1.497 1.252 1.5 1.503a.501.501 0 0 0 .5.495c.292.037.5-.222.5-.498 0-.864-.522-2.5-2.5-2.5M12 7.5a.5.5 0 0 0 0 1c.225.006.5.098.5.5s-.274.494-.505.5a.5.5 0 0 0-.006 1H12c.225.006.5.098.5.5s-.275.494-.506.5a.504.504 0 0 0-.491.506.498.498 0 0 0 .497.494c.603 0 1.5-.399 1.5-1.5 0-.438-.142-.765-.351-1 .209-.235.351-.562.351-1 0-1.101-.897-1.5-1.5-1.5" fill="#642116"/><path d="M42 16c0-6.074-4.926-11-11-11S20 9.926 20 16c0 6.075 4.926 11 11 11s11-4.925 11-11" fill="#d99e82"/><path d="M31 31.795c-7.444 0-13.5-6.056-13.5-13.5 0-1.9.396-3.751 1.178-5.5a.5.5 0 1 1 .952.134c.392 2.756 2.581 4.707 4.512 6.429 1.793 1.599 3.497 3.119 3.444 5.04 6.516-1.17 14.006-6.016 14.784-11.468a.5.5 0 0 1 .951-.134 13.37 13.37 0 0 1 1.179 5.499c0 7.444-6.056 13.5-13.5 13.5" fill="#292f33"/><path d="M27 14.5c-1.978 0-2.5 1.636-2.5 2.5a.5.5 0 0 0 1 .003c.003-.252.089-1.503 1.5-1.503a.5.5 0 0 0 0-1M32 14.5c-1.978 0-2.5 1.636-2.5 2.5a.5.5 0 0 0 1 .003c.003-.252.089-1.503 1.5-1.503a.5.5 0 0 0 0-1M27 7.5c-.603 0-1.5.399-1.5 1.5 0 .438.143.765.352 1-.209.235-.352.562-.352 1 0 1.101.897 1.5 1.5 1.5a.5.5 0 0 0 .005-1c-.231-.006-.505-.098-.505-.5s.274-.494.505-.5a.501.501 0 0 0 .006-1H27c-.225-.006-.5-.098-.5-.5s.275-.494.506-.5a.502.502 0 0 0 .49-.506A.497.497 0 0 0 27 7.5" fill="#642116"/></g><g clip-path="url(#b)" transform="matrix(1.25 0 0 -1.25 0 47.5)"><path d="M27.077 32.29a4.71 4.71 0 0 1-4.71 4.71 4.702 4.702 0 0 1-3.829-1.972A4.703 4.703 0 0 1 14.711 37a4.71 4.71 0 0 1-4.71-4.71c0-.37.046-.728.126-1.07.654-4.066 5.173-8.354 8.411-9.53 3.238 1.176 7.758 5.464 8.412 9.528.08.344.127.702.127 1.071" fill="#f2abba"/></g></svg>