<svg xmlns="http://www.w3.org/2000/svg" viewBox="0 0 47.5 47.5"><defs><clipPath id="a"><path d="M0 38h38V0H0v38z"/></clipPath></defs><g clip-path="url(#a)" transform="matrix(1.25 0 0 -1.25 0 47.5)"><path d="M34.207 17.227l-8.868 8.855L12.105 12.46l8.684-8.684h.001A9.468 9.468 0 0 1 27.5 1c5.246 0 9.5 4.254 9.5 9.5a9.47 9.47 0 0 1-2.793 6.727" fill="#bb1a34"/><path d="M16.921 34.487A9.453 9.453 0 0 1 10.501 37 9.5 9.5 0 0 1 1 27.5c0-2.48.957-4.73 2.512-6.421l-.013-.014 8.605-8.605 13.233 13.622-8.417 8.405z" fill="#fdcb58"/></g></svg>