<svg xmlns="http://www.w3.org/2000/svg" viewBox="0 0 47.5 47.5"><defs><clipPath id="a"><path d="M0 38h38V0H0v38z"/></clipPath></defs><g clip-path="url(#a)" transform="matrix(1.25 0 0 -1.25 0 47.5)"><path d="M28 1v4s0 4 4 4 4-4 4-4V1h-8zM19 1v9s0 4 4 4 4-4 4-4V1h-8zM10 1v12s0 4 4 4 4-4 4-4V1h-8zM1 1v9s0 4 4 4 4-4 4-4V1H1z" fill="#d99e82"/><path d="M17 13c0 1.657 0 8-3 8s-3-6.343-3-8a3 3 0 1 1 6 0M8 10c0 1.657 0 8-3 8s-3-6.343-3-8a3 3 0 1 1 6 0M26 10c0 1.657 0 8-3 8s-3-6.343-3-8a3 3 0 0 1 6 0M35 5c0 1.657 0 8-3 8s-3-6.343-3-8a3 3 0 0 1 6 0" fill="#dd2e44"/><path d="M14 21v-4h2s2 0 6 4l-2 2s-2-2-6-2" fill="#dd2e44"/><path d="M20 23l8 8 2-2-8-8-2 2zM28 31s-2 2 0 4l2 2h7v-5l-3-3c-2-2-4 0-4 0l-2 2z" fill="#8899a6"/></g></svg>