<svg xmlns="http://www.w3.org/2000/svg" viewBox="0 0 47.5 47.5"><defs><clipPath id="a"><path d="M0 38h38V0H0v38z"/></clipPath></defs><g clip-path="url(#a)" transform="matrix(1.25 0 0 -1.25 0 47.5)"><path d="M31 17.344c0-6.627-5.373-12-12-12s-12 5.373-12 12c0 6.628 5.373 12 12 12s12-5.372 12-12" fill="#642116"/><path d="M21 29a7 7 0 1 0-14 0 7 7 0 0 0 14 0" fill="#642116"/><path d="M9 26c0-6.075 4.925-11 11-11s11 4.925 11 11-4.925 11-11 11S9 32.075 9 26" fill="#642116"/><path d="M31 17H7v12l24-3v-9z" fill="#642116"/><path d="M28 10H10a4 4 0 0 1-4-4V1h26v5a4 4 0 0 1-4 4" fill="#9268ca"/><path d="M28 1h-1v4h1V1zM11 1h-1v4h1V1z" fill="#7450a8"/><path d="M16 15V9a3 3 0 1 1 6 0v6h-6z" fill="#d79e84"/><path d="M15 32s-.003-5.308-5-5.936V20a9 9 0 0 1 9-9 9 9 0 0 1 9 9v5.019C16.89 25.395 15 32 15 32" fill="#d79e84"/><path d="M21 15c0-.553-.896-1-2-1s-2 .447-2 1c0 .553.896 1 2 1s2-.447 2-1" fill="#bb1a34"/><path d="M16.005 32.847L13 33.54V37H9l-.6-2.4-2.232-2.232L5 30v-8s0-1 1-1 1 1 1 1l.775 6.385c.6.194 1.175.515 1.518.858l2.046 2.046 4.09-.942a1.281 1.281 0 0 1 1.537.96c.16.69-.272 1.379-.96 1.54M31.832 32.368L29.6 34.6 29 37h-4v-3.46l-3.006-.693a1.282 1.282 0 1 1 .576-2.5l4.091.942 2.046-2.046c.343-.343.917-.664 1.519-.858L31 22s0-1 1-1 1 1 1 1v8l-1.168 2.368z" fill="#d79e84"/><path d="M20 17.5h-2a.5.5 0 0 0 0 1h2a.5.5 0 0 0 0-1" fill="#bf6952"/><path d="M16 20.016h-2a1 1 0 0 0 0 2h2a1 1 0 0 0 0-2M23.999 20.016H22a1 1 0 1 0 0 2h1.999a1 1 0 1 0 0-2" fill="#292f33"/></g></svg>