<svg xmlns="http://www.w3.org/2000/svg" viewBox="0 0 47.5 47.5"><defs><clipPath id="a"><path d="M0 38h38V0H0v38z"/></clipPath></defs><g clip-path="url(#a)" transform="matrix(1.25 0 0 -1.25 0 47.5)"><path d="M15 37c-1.721 0-3.343-.406-4.793-1.111A6.964 6.964 0 0 1 9 36a7 7 0 0 1-7-7V17h.018C2.201 10.533 7.489 5.344 14 5.344c6.511 0 11.799 5.189 11.982 11.656H26v9c0 6.075-4.925 11-11 11" fill="#642116"/><path d="M23 10H5a4 4 0 0 1-4-4V1h26v5a4 4 0 0 1-4 4" fill="#9268ca"/><path d="M23 1h-1v4h1V1zM6 1H5v4h1V1z" fill="#7450a8"/><path d="M11 15V9a3 3 0 1 1 6 0v6h-6z" fill="#d79e84"/><path d="M10 32s-.003-5.308-5-5.936V20a9 9 0 0 1 9-9 9 9 0 0 1 9 9v5.019C11.89 25.395 10 32 10 32" fill="#d79e84"/><path d="M18 15h-8s1-2 4-2 4 2 4 2" fill="#bb1a34"/><path d="M30 1h-7l1 17h6V1z" fill="#9268ca"/><path d="M32.541 21.557a1.286 1.286 0 0 1-1.517.997L28.35 22H26a2 2 0 0 1-2-2v-2h5c1.079 0 1.953.857 1.992 1.927l.355.073H32c0 .075-.028.144-.045.217.444.275.698.798.586 1.34" fill="#bf6952"/><path d="M37 21a1 1 0 0 1-1 1l-6-1h-5a1 1 0 0 1-1-1v-2h6l6 2s1 .447 1 1" fill="#d79e84"/><path d="M15 17.5h-2a.5.5 0 0 0 0 1h2a.5.5 0 0 0 0-1" fill="#bf6952"/><path d="M10 21a1 1 0 0 0-1 1v1a1 1 0 0 0 2 0v-1a1 1 0 0 0-1-1M18 21a1 1 0 0 0-1 1v1a1 1 0 0 0 2 0v-1a1 1 0 0 0-1-1" fill="#292f33"/></g></svg>