<svg xmlns="http://www.w3.org/2000/svg" viewBox="0 0 47.5 47.5"><defs><clipPath id="a"><path d="M0 38h38V0H0v38z"/></clipPath></defs><g clip-path="url(#a)" transform="matrix(1.25 0 0 -1.25 0 47.5)"><path d="M14.589 10.479a1.5 1.5 0 0 0 .035 1.599l4.395 6.645-5.995 5.139a1.499 1.499 0 0 0-.31 1.91l4.304 7.173a9.778 9.778 0 0 1-6.035 2.09c-5.45 0-9.868-4.419-9.868-9.869 0-.772.098-1.52.266-2.24C2.75 14.412 12.216 5.43 19 2.965c.026.008.052.022.077.032l-4.488 7.48z" fill="#e75a70"/><path d="M27.018 35.034c-2.765 0-5.248-1.15-7.037-2.983l-4.043-6.737 6.039-5.176a1.499 1.499 0 0 0 .274-1.965l-4.603-6.962 4.16-6.935c6.339 3.53 13.622 11.263 14.81 18.65.17.72.267 1.468.267 2.24 0 5.451-4.418 9.868-9.867 9.868" fill="#e75a70"/></g></svg>