<svg xmlns="http://www.w3.org/2000/svg" viewBox="0 0 47.5 47.5"><defs><clipPath id="a"><path d="M0 38h38V0H0v38z"/></clipPath></defs><g clip-path="url(#a)" transform="matrix(1.25 0 0 -1.25 0 47.5)"><path d="M36.885 25.166c0 5.45-4.418 9.868-9.867 9.868-3.308 0-6.227-1.632-8.018-4.128-1.79 2.496-4.71 4.129-8.017 4.129-5.45 0-9.868-4.418-9.868-9.868 0-.773.098-1.52.266-2.242C2.75 14.413 12.216 5.431 19 2.965c6.783 2.466 16.249 11.448 17.617 19.96.17.721.268 1.47.268 2.241" fill="#e75a70"/><path d="M35.347 13.106l-3.824 1.416-1.416 3.824a1 1 0 0 1-1.875 0l-1.416-3.824-3.824-1.416a1 1 0 0 1 0-1.875l3.824-1.416 1.416-3.824a.998.998 0 0 1 1.875 0l1.416 3.824 3.824 1.416a1 1 0 0 1 0 1.875M12.347 29.107l-2.365.875-.875 2.365a1 1 0 0 1-1.876 0l-.876-2.365-2.364-.875a1 1 0 0 1 0-1.876l2.364-.875.876-2.365a.999.999 0 0 1 1.876 0l.875 2.365 2.365.875a1 1 0 0 1 0 1.876" fill="#fdcb58"/></g></svg>