<svg xmlns="http://www.w3.org/2000/svg" viewBox="0 0 47.5 47.5"><defs><clipPath id="a"><path d="M1 1h36v36H1V1z"/></clipPath><clipPath id="b"><path d="M0 38h38V0H0v38z"/></clipPath><clipPath id="c"><path d="M1 1h36v36H1V1z"/></clipPath><clipPath id="d"><path d="M0 38h38V0H0v38z"/></clipPath><clipPath id="e"><path d="M0 38h38V0H0v38z"/></clipPath></defs><g clip-path="url(#a)" transform="matrix(1.25 0 0 -1.25 0 47.5)"><path d="M4 37c-1.721 0-3.343-.406-4.793-1.111A6.964 6.964 0 0 1-2 36a7 7 0 0 1-7-7V17h.018C-8.799 10.533-3.511 5.344 3 5.344c6.511 0 11.799 5.189 11.982 11.656H15v9c0 6.075-4.925 11-11 11" fill="#642116"/><path d="M12 10H-6a4 4 0 0 1-4-4V1h26v5a4 4 0 0 1-4 4" fill="#9268ca"/><path d="M12 1h-1v4h1V1z" fill="#7450a8"/><path d="M6 9.005V14H0V9a3 3 0 0 1 6 0v.005" fill="#d79e84"/><path d="M-1 32h-5V20a9 9 0 0 1 9-9 9 9 0 0 1 9 9v5.019C.89 25.395-1 32-1 32" fill="#d79e84"/><path d="M7 15h-8s1-2 4-2 4 2 4 2" fill="#bb1a34"/></g><g clip-path="url(#b)" transform="matrix(1.25 0 0 -1.25 0 47.5)"><path d="M7 21a1 1 0 0 0-1 1v1a1 1 0 0 0 2 0v-1a1 1 0 0 0-1-1" fill="#292f33"/><path d="M4 17.5H2a.5.5 0 0 0 0 1h2a.5.5 0 0 0 0-1" fill="#bf6952"/></g><g clip-path="url(#c)" transform="matrix(1.25 0 0 -1.25 0 47.5)"><path d="M45 26c0-6.075-4.925-11-11-11s-11 4.925-11 11 4.925 11 11 11 11-4.925 11-11" fill="#292f33"/><path d="M38 10v5h-6v-5h-2V2h10v8h-2z" fill="#d79e84"/><path d="M43 32v-7c-8.453 0-11.94 3.471-13.266 5.524-.42-1.803-1.437-4.699-3.734-5.368V20a9 9 0 0 1 9-9 9 9 0 0 1 9 9v12h-1z" fill="#d79e84"/><path d="M26 10h6l3-5 3 5.094L44 10a4 4 0 0 0 4-4V1H22v5a4 4 0 0 0 4 4" fill="#4289c1"/><path d="M26 1h1v4h-1V1z" fill="#2a6797"/><path d="M31 15h8s-1-2-4-2-4 2-4 2" fill="#bf6952"/></g><g clip-path="url(#d)" transform="matrix(1.25 0 0 -1.25 0 47.5)"><path d="M31 21a1 1 0 0 0-1 1v1a1 1 0 1 0 2 0v-1a1 1 0 0 0-1-1" fill="#2a6797"/><path d="M36 17.5h-2a.5.5 0 0 0 0 1h2a.5.5 0 0 0 0-1" fill="#bf6952"/></g><g clip-path="url(#e)" transform="matrix(1.25 0 0 -1.25 0 47.5)"><path d="M27.077 32.29a4.71 4.71 0 0 1-4.71 4.71 4.702 4.702 0 0 1-3.829-1.972A4.703 4.703 0 0 1 14.711 37a4.71 4.71 0 0 1-4.71-4.71c0-.37.046-.728.126-1.07.654-4.066 5.173-8.354 8.411-9.53 3.238 1.176 7.758 5.464 8.412 9.528.08.344.127.702.127 1.071" fill="#e75a70"/></g></svg>