<svg xmlns="http://www.w3.org/2000/svg" viewBox="0 0 47.5 47.5"><defs><clipPath id="a"><path d="M0 38h38V0H0v38z"/></clipPath></defs><g clip-path="url(#a)" transform="matrix(1.25 0 0 -1.25 0 47.5)"><path d="M36.885 25.166c0 5.45-4.418 9.868-9.867 9.868-3.308 0-6.227-1.632-8.018-4.128-1.79 2.496-4.71 4.129-8.017 4.129-5.45 0-9.868-4.418-9.868-9.868 0-.773.098-1.52.266-2.242C2.75 14.413 12.216 5.431 19 2.965c6.783 2.466 16.249 11.448 17.617 19.96.17.721.268 1.47.268 2.241" fill="#e75a70"/><path d="M37 22c-1-5-4-8-4-8H5s-3 3-4 8h36z" fill="#fdd888"/><path d="M15 19V1l-5 5-5-5v18h10z" fill="#fdd888"/><path d="M17.802 27.806l-7.879-5.515-7.878 5.515C1.47 28.208 1 27.964 1 27.262V12.603c0-.703.48-.964 1.07-.582l7.853 5.106 7.855-5.106c.587-.382 1.068-.12 1.068.582v14.66c0 .701-.47.945-1.044.543" fill="#fdcb58"/><path d="M14 20a4 4 0 1 0-8 0 4 4 0 0 0 8 0" fill="#fdd888"/></g></svg>