<svg xmlns="http://www.w3.org/2000/svg" viewBox="0 0 47.5 47.5"><defs><clipPath id="a"><path d="M0 38h38V0H0v38z"/></clipPath></defs><g clip-path="url(#a)" transform="matrix(1.25 0 0 -1.25 0 47.5)"><path d="M19.389 18.185c0-.256-.122-.486-.317-.682l-14-14.001a1 1 0 1 0-1.415 1.414l14 14c.39.392 1.037.379 1.427-.012.195-.194.305-.461.305-.72" fill="#4289c1"/><path d="M33.885 22.887a8.764 8.764 0 0 1-8.764 8.764A8.751 8.751 0 0 1 18 27.984a8.748 8.748 0 0 1-7.12 3.667 8.764 8.764 0 0 1-8.765-8.764c0-.686.087-1.351.236-1.99C3.569 13.335 11.975 5.359 18 3.167c6.025 2.192 14.432 10.168 15.648 17.729.15.64.237 1.305.237 1.99" fill="#e75a70"/><path d="M30.624 35.705c.306-.42.592-1.257.592-1.934 0-1.964-.717-4.654-2.386-6.334l-3.872-2.955c-.275-.274-.788-.357-1.144-.21-.359.148-.814-.73-.814-.342v5.058c0 1.867 3.686 6.296 3.686 6.296.843.773 1.683 1.183 2.44 1.182a1.792 1.792 0 0 0 1.498-.76" fill="#5dadec"/><path d="M36.629 29.145c0-.77-.417-1.837-1.204-2.695 0 0-4.51-4.45-6.41-4.45H23.85c-.396 0 .513.92.363 1.285-.15.363-.066 1.125.214 1.405l3.124 3.271c1.71 1.7 4.619 3.116 6.62 3.116.689 0 1.255-.117 1.682-.426.499-.365.775-.871.775-1.505" fill="#5dadec"/><path d="M33.389 32.185c0-.256-.122-.487-.317-.683l-15-15a1 1 0 1 0-1.415 1.414l15 15c.39.392 1.037.379 1.427-.011.195-.196.305-.463.305-.72M2.75 1.534a1.003 1.003 0 0 0-.971 1.241l1.625 6.541c.113.452.521.73.989.76.465-.01.864-.338.961-.794.031-.144.833-3.636 4.051-4.005a1 1 0 0 0 .145-1.959l-6.542-1.75a.989.989 0 0 0-.258-.034" fill="#2a6797"/><path d="M18.373 12.472a1 1 0 0 0-.988.854c-.477 3.245-2.355 3.608-4.17 3.959l-.417.083a1 1 0 1 0 .405 1.958l.392-.077c1.903-.368 5.086-.984 5.77-5.631a1 1 0 0 0-.991-1.146" fill="#da2f47"/></g></svg>