<svg xmlns="http://www.w3.org/2000/svg" viewBox="0 0 47.5 47.5"><defs><clipPath id="a"><path d="M0 38h38V0H0v38z"/></clipPath></defs><g clip-path="url(#a)" transform="matrix(1.25 0 0 -1.25 0 47.5)"><path d="M34.885 21.236A8.764 8.764 0 0 1 26.12 30 8.749 8.749 0 0 1 19 26.333 8.745 8.745 0 0 1 11.88 30a8.764 8.764 0 0 1-8.765-8.764c0-.686.087-1.35.236-1.99C4.569 11.685 12.975 3.708 19 1.518c6.025 2.19 14.432 10.167 15.648 17.727.15.64.237 1.305.237 1.99" fill="#e75a70"/><path d="M2.499 25.959a1.001 1.001 0 0 0-.894 1.447c1.016 2.03 3.793 5.196 7.283 5.588a1 1 0 0 0 .224-1.988c-2.679-.302-4.928-2.917-5.717-4.495a1 1 0 0 0-.896-.553M2.04 31.375a.999.999 0 0 0-.826 1.561c.935 1.381 2.894 2.909 4.682 3.021a1.002 1.002 0 0 0 .125-1.997c-.96-.06-2.405-1.043-3.152-2.146a1 1 0 0 0-.829-.439M35.792 25.959a1 1 0 0 0-.896.553c-.789 1.578-3.039 4.193-5.717 4.495a.999.999 0 0 0-.882 1.105.994.994 0 0 0 1.106.881c3.49-.392 6.267-3.557 7.283-5.588a1.001 1.001 0 0 0-.894-1.447M36.251 31.375a1 1 0 0 0-.829.439c-.747 1.103-2.191 2.086-3.151 2.146-.551.035-.97.51-.936 1.061a.993.993 0 0 0 1.061.936c1.788-.112 3.747-1.641 4.682-3.021a1 1 0 0 0-.827-1.561" fill="#fdcb58"/></g></svg>