<svg xmlns="http://www.w3.org/2000/svg" viewBox="0 0 47.5 47.5"><defs><clipPath id="a"><path d="M0 38h38V0H0v38z"/></clipPath></defs><g clip-path="url(#a)" transform="matrix(1.25 0 0 -1.25 0 47.5)"><path d="M36.977 20.328c-.25-4.574-8.193-8.248-17.977-8.248-3.284 0-6.351.422-9 1.144V9.637c2.65-1.024 5.718-1.62 9-1.62 9.942 0 18 5.373 18 12 0 .105-.02.207-.023.311M28 30.4c-2.646 1.024-5.717 1.617-9 1.617-9.018 0-16.465-4.426-17.774-10.194 1.309 4.07 8.756 7.194 17.774 7.194 3.283 0 6.354-.418 9-1.14V30.4z" fill="#f2abba"/><path d="M25.77 17.285a6.8 6.8 0 0 1-6.801 6.801 6.788 6.788 0 0 1-5.527-2.845 6.79 6.79 0 0 1-5.526 2.845 6.8 6.8 0 0 1-6.8-6.8c0-.532.066-1.05.182-1.546.945-5.867 7.468-12.059 12.144-13.758 4.675 1.7 11.2 7.891 12.141 13.756a6.65 6.65 0 0 1 .187 1.547M36.885 31.307a4.71 4.71 0 0 1-4.711 4.71 4.702 4.702 0 0 1-3.828-1.971 4.703 4.703 0 0 1-3.827 1.972 4.71 4.71 0 0 1-4.711-4.711c0-.37.047-.727.127-1.07.654-4.065 5.173-8.353 8.41-9.53 3.239 1.177 7.759 5.465 8.413 9.529.08.344.127.702.127 1.07" fill="#e75a70"/></g></svg>