<svg xmlns="http://www.w3.org/2000/svg" viewBox="0 0 47.5 47.5"><defs><clipPath id="a"><path d="M0 38h38V0H0v38z"/></clipPath><clipPath id="b"><path d="M8.237 26.364l-6.231-6.232a1.6 1.6 0 0 1 0-2.265l6.231-6.231a1.604 1.604 0 0 1 2.266 0l6.231 6.231a1.6 1.6 0 0 1 0 2.265l-6.231 6.232a1.597 1.597 0 0 1-1.133.469c-.41 0-.82-.156-1.133-.469"/></clipPath><clipPath id="c"><path d="M17.867 16.735l-6.231-6.232a1.6 1.6 0 0 1 0-2.265l6.231-6.232a1.604 1.604 0 0 1 2.266 0l6.232 6.232c.624.623.624 1.64 0 2.265l-6.232 6.232a1.603 1.603 0 0 1-1.133.467c-.41 0-.82-.156-1.133-.467"/></clipPath><clipPath id="d"><path d="M27.497 26.364l-6.232-6.232a1.604 1.604 0 0 1 0-2.265l6.232-6.231a1.604 1.604 0 0 1 2.266 0l6.231 6.231c.625.626.625 1.64 0 2.265l-6.231 6.232a1.593 1.593 0 0 1-1.133.469c-.41 0-.82-.156-1.133-.469"/></clipPath><clipPath id="e"><path d="M17.867 35.994l-6.231-6.231a1.602 1.602 0 0 1 0-2.266l6.231-6.232a1.604 1.604 0 0 1 2.266 0l6.232 6.232c.624.626.624 1.64 0 2.266l-6.232 6.231a1.598 1.598 0 0 1-2.266 0"/></clipPath><clipPath id="f"><path d="M0 38h38V0H0v38z"/></clipPath></defs><g clip-path="url(#a)" transform="matrix(1.25 0 0 -1.25 0 47.5)"><path d="M17.867 21.266a1.602 1.602 0 0 1 2.266 0l6.231 6.23c.625.627.625 1.64 0 2.267l-6.23 6.232a1.604 1.604 0 0 1-2.267 0l-6.23-6.232a1.602 1.602 0 0 1 0-2.266l6.23-6.231zM35.994 20.132l-6.23 6.231a1.602 1.602 0 0 1-2.267 0l-6.232-6.23a1.602 1.602 0 0 1 0-2.266l6.232-6.232a1.604 1.604 0 0 1 2.266 0l6.231 6.232a1.602 1.602 0 0 1 0 2.265M20.133 16.734a1.605 1.605 0 0 1-2.266 0l-6.231-6.23a1.602 1.602 0 0 1 0-2.267l6.23-6.232a1.604 1.604 0 0 1 2.267 0l6.23 6.232a1.604 1.604 0 0 1 0 2.266l-6.23 6.231zM16.734 20.132l-6.231 6.231a1.602 1.602 0 0 1-2.266 0l-6.231-6.23a1.6 1.6 0 0 1 0-2.266l6.23-6.232a1.604 1.604 0 0 1 2.267 0l6.23 6.232a1.6 1.6 0 0 1 0 2.265" fill="#55acee"/></g><g clip-path="url(#b)" transform="matrix(1.25 0 0 -1.25 0 47.5)"><path d="M26 19a7 7 0 1 0-14 0 7 7 0 0 0 14 0" fill="#3b88c3"/></g><g clip-path="url(#c)" transform="matrix(1.25 0 0 -1.25 0 47.5)"><path d="M26 19a7 7 0 1 0-14 0 7 7 0 0 0 14 0" fill="#3b88c3"/></g><g clip-path="url(#d)" transform="matrix(1.25 0 0 -1.25 0 47.5)"><path d="M26 19a7 7 0 1 0-14 0 7 7 0 0 0 14 0" fill="#3b88c3"/></g><g clip-path="url(#e)" transform="matrix(1.25 0 0 -1.25 0 47.5)"><path d="M26 19a7 7 0 1 0-14 0 7 7 0 0 0 14 0" fill="#3b88c3"/></g><g clip-path="url(#f)" transform="matrix(1.25 0 0 -1.25 0 47.5)"><path d="M24 19a5 5 0 1 0-10 0 5 5 0 0 0 10 0" fill="#bbddf5"/></g></svg>