<svg xmlns="http://www.w3.org/2000/svg" viewBox="0 0 47.5 47.5"><defs><clipPath id="a"><path d="M0 38h38V0H0v38z"/></clipPath></defs><g clip-path="url(#a)" transform="matrix(1.25 0 0 -1.25 0 47.5)"><path d="M29.865 29.866c7.361-7.359 9.35-17.304 4.443-22.209-4.907-4.907-14.85-2.918-22.21 4.441-.25.25-.478.51-.715.766l4.417 4.417c5.724-5.724 13.016-7.714 16.286-4.442 3.271 3.27 1.282 10.563-4.442 16.287l.023-.02a.213.213 0 0 0-.02.021c-6.543 6.542-15.493 8.198-19.99 3.701-2.175-2.174-2.897-5.392-2.338-8.872-.858 4.082-.15 7.866 2.338 10.352 4.906 4.907 14.85 2.918 22.208-4.442" fill="#fdd888"/><path d="M20.403 3.701c-.252 0-.503.077-.719.231l-5.076 3.641-5.076-3.64A1.23 1.23 0 0 0 7.64 5.305l1.893 5.955-5.03 3.701a1.234 1.234 0 0 0 .722 2.225l6.247.04 1.967 5.93a1.233 1.233 0 0 0 2.34 0l1.967-5.93 6.246-.04a1.232 1.232 0 0 0 .724-2.225l-5.032-3.7 1.894-5.956a1.232 1.232 0 0 0-1.174-1.605" fill="#fcab40"/></g></svg>