<svg xmlns="http://www.w3.org/2000/svg" viewBox="0 0 47.5 47.5"><defs><clipPath id="a"><path d="M0 38h38V0H0v38z"/></clipPath></defs><path d="M34.18 16.017l-2.695-2.696 7.07-7.071 2.695 2.696-7.07 7.071z" fill="#ccd6dd"/><g clip-path="url(#a)" transform="matrix(1.25 0 0 -1.25 0 47.5)"><path d="M29 15c0-7.731-6.269-14-14-14C7.268 1 1 7.269 1 15c0 7.732 6.268 14 14 14 7.731 0 14-6.268 14-14" fill="#292f33"/><path d="M25.656 20L20 25.657l5.656 5.657 5.656-5.657L25.656 20z" fill="#292f33"/><path d="M37 33a4 4 0 1 0-8 0 4 4 0 0 0 8 0" fill="#f18f26"/><path d="M35 33a2 2 0 1 0-4.001.001A2 2 0 0 0 35 33" fill="#fdcb58"/></g></svg>