<svg xmlns="http://www.w3.org/2000/svg" viewBox="0 0 47.5 47.5"><defs><clipPath id="a"><path d="M0 38h38V0H0v38z"/></clipPath></defs><g clip-path="url(#a)" transform="matrix(1.25 0 0 -1.25 0 47.5)"><path d="M34.541 13.802c.364 1.578.243 3.266-.458 4.946a8.018 8.018 0 0 1-3.271 3.773c.319 1.193.235 2.475-.324 3.75-.841 1.92-2.66 3.202-4.712 3.563.249.572.329 1.288.036 2.167-1 3-5 1-8 4.999-2.439-1.464-2.969-3.64-2.877-5.487-2.422-.412-3.8-.936-3.8-.936v-.002a3.715 3.715 0 0 1-2.323-3.443c0-.88.318-1.676.829-2.312l-.692-.26.001-.002c-2.33-.87-3.975-2.976-3.975-5.44 0-1.045.3-2.026.82-2.877C2.971 14.973 1 12.219 1 9c0-4.418 3.691-8 8.244-8 3.269 0 6.559.703 9.531 1.665C21.018 1.625 24.47 1 29.667 1A7.333 7.333 0 0 1 37 8.333a7.31 7.31 0 0 1-2.459 5.469" fill="#bf6952"/><path d="M18 21.5c0-2.485-1.567-4.5-3.5-4.5S11 19.015 11 21.5s1.567 4.5 3.5 4.5 3.5-2.015 3.5-4.5M28 21.5c0-2.485-1.566-4.5-3.5-4.5S21 19.015 21 21.5s1.566 4.5 3.5 4.5 3.5-2.015 3.5-4.5" fill="#f5f8fa"/><path d="M17 21.5c0-1.381-.896-2.5-2-2.5s-2 1.119-2 2.5.896 2.5 2 2.5 2-1.119 2-2.5M26 21.5c0-1.381-.896-2.5-2-2.5s-2 1.119-2 2.5.896 2.5 2 2.5 2-1.119 2-2.5M10.447 12.105c-.246.492.003.895.553.895h18c.55 0 .8-.403.552-.895C29.552 12.105 27 7 20 7s-9.553 5.105-9.553 5.105" fill="#292f33"/><path d="M20 11c-2.771 0-5.157-.922-6.292-2.256C15.2 7.789 17.253 7 20 7s4.801.789 6.292 1.744C25.157 10.078 22.771 11 20 11" fill="#f2abba"/></g></svg>