<svg xmlns="http://www.w3.org/2000/svg" viewBox="0 0 47.5 47.5"><defs><clipPath id="a"><path d="M0 38h38V0H0v38z"/></clipPath></defs><g clip-path="url(#a)" transform="matrix(1.25 0 0 -1.25 0 47.5)"><path d="M19 36C9.059 36 1 29.732 1 22c0-4.368 2.574-8.268 6.604-10.835C7.08 8.856 5.859 5.431 3 2c5.758.96 9.439 3.761 11.716 6.416A22.856 22.856 0 0 1 19 8c9.941 0 18 6.268 18 14s-8.059 14-18 14" fill="#bdddf4"/><path d="M21 22a2 2 0 1 0-4.001.001A2 2 0 0 0 21 22M29 22a2 2 0 1 0-4.001.001A2 2 0 0 0 29 22M13 22a2 2 0 1 0-4.001.001A2 2 0 0 0 13 22" fill="#2a6797"/></g></svg>