<svg xmlns="http://www.w3.org/2000/svg" viewBox="0 0 47.5 47.5"><defs><clipPath id="a"><path d="M0 38h38V0H0v38z"/></clipPath></defs><g clip-path="url(#a)" transform="matrix(1.25 0 0 -1.25 0 47.5)"><path d="M2.728 16c-.618 0-.954.256-1.128.471-.17.211-.348.585-.225 1.165l2.729 12.706-1.714-.097h-.013c-.516 0-.892.167-1.127.458a1.152 1.152 0 0 0-.221.981c.15.701.883 1.285 1.668 1.329l4.008.227c.077.005.149.008.216.008.147 0 .536 0 .784-.307.252-.312.166-.709.138-.839L4.719 17.546c-.187-.884-.92-1.489-1.866-1.542L2.728 16zM16.885 31.746l-.137-.004c-1.94-.111-3.555-2.304-4.32-5.866-.477-2.228-.38-3.9.273-4.707.297-.368.717-.554 1.25-.554l.14.004c1.94.109 3.553 2.3 4.317 5.863.48 2.229.383 3.9-.27 4.708-.297.369-.719.556-1.253.556M13.471 18c-1.439 0-2.635.539-3.459 1.559-1.163 1.438-1.467 3.65-.878 6.396 1.032 4.812 4.208 8.187 7.902 8.395 1.59.09 2.906-.452 3.793-1.55 1.163-1.438 1.467-3.65.878-6.396-1.032-4.81-4.209-8.184-7.904-8.394a5.326 5.326 0 0 0-.332-.01M31.887 33.386l-.136-.004c-1.94-.11-3.555-2.304-4.32-5.865-.478-2.228-.381-3.9.272-4.708.297-.368.719-.555 1.25-.555l.14.004c1.94.11 3.555 2.301 4.319 5.864.48 2.227.383 3.9-.27 4.707-.298.37-.72.557-1.255.557m-3.411-13.748c-1.44 0-2.637.54-3.462 1.561-1.163 1.44-1.467 3.651-.878 6.396 1.033 4.813 4.209 8.187 7.903 8.395 1.603.09 2.904-.453 3.79-1.549 1.163-1.44 1.467-3.652.878-6.397-1.031-4.809-4.206-8.183-7.902-8.396a4.57 4.57 0 0 0-.33-.01M12 1.999a2.001 2.001 0 0 0-.702 3.874c.338.126 8.4 3.108 20.536 4.12a2 2 0 0 0 .333-3.986c-11.59-.966-19.388-3.851-19.465-3.88A2.013 2.013 0 0 0 12 1.999M3.002 8a1.998 1.998 0 0 0-.719 3.866c.541.209 13.514 5.126 32.611 6.131a1.987 1.987 0 0 0 2.104-1.892 2 2 0 0 0-1.892-2.102c-18.424-.97-31.262-5.821-31.39-5.87A1.997 1.997 0 0 0 3.002 8" fill="#bb1a34"/></g></svg>