<svg xmlns="http://www.w3.org/2000/svg" viewBox="0 0 47.5 47.5"><defs><clipPath id="a"><path d="M0 38h38V0H0v38z"/></clipPath></defs><g clip-path="url(#a)" transform="matrix(1.25 0 0 -1.25 0 47.5)"><path d="M13.43 15s-.717 3.641.298 10.874C15.128 25.419 16.542 25 17 25c1 0 4 1 4 2s-1 2-1 2l2 1c1 1 0 7-4 7-7 0-9.57-7-9.57-7l.007-.011H8.43s-6-10.989-6-20c.065 0-1-5 0-6s5-1 5-1C17.43-1 36 2 36 11c0 13-19.57 10-22.57 4" fill="#d99e82"/><path d="M20.494 4.748c-3.178 0-5.793 1.283-5.94 1.357a1 1 0 0 0 .892 1.79c.042-.02 4.24-2.06 7.956-.64 2.055.785 3.625 2.507 4.67 5.116a1 1 0 1 0 1.857-.742c-1.263-3.155-3.223-5.258-5.828-6.248-1.214-.462-2.449-.633-3.607-.633" fill="#bf6952"/></g></svg>