<svg xmlns="http://www.w3.org/2000/svg" viewBox="0 0 47.5 47.5"><defs><clipPath id="a"><path d="M0 38h38V0H0v38z"/></clipPath></defs><g clip-path="url(#a)" transform="matrix(1.25 0 0 -1.25 0 47.5)"><path d="M36 25a7 7 0 0 1-7 7 6.972 6.972 0 0 1-3.232-.794c-2.082 2.827-5.425 4.669-9.206 4.669-5.132 0-9.474-3.38-10.922-8.036A5.997 5.997 0 0 1 1 22a5.996 5.996 0 0 1 5.021-5.913C6.237 12.138 9.498 9 13.5 9c2.176 0 4.13.933 5.5 2.413A7.472 7.472 0 0 1 24.5 9c4.143 0 7.5 3.357 7.5 7.5a7.5 7.5 0 0 1-.289 2.045A7.001 7.001 0 0 1 36 25M8 6a3 3 0 1 0-6 0 3 3 0 0 0 6 0" fill="#bdddf4"/></g></svg>