<svg xmlns="http://www.w3.org/2000/svg" viewBox="0 0 47.5 47.5"><path d="M28.75 1.25l-5 10.035-6.25-6.272v8.78L5 11.286 15 21.32 1.25 28.845h15l-7.5 15.053 15-10.036L37.5 46.406l-3.75-17.561h12.5l-10-7.525 10-11.29-15 3.764-2.5-12.544z" fill="#bb1a34"/><path d="M29.893 17.405l2.325-.584 6.532-1.639-4.226 4.77-1.649 1.863 1.988 1.493 3.655 2.753H31.12l.592 2.774 1.938 9.073-7.306-6.664-1.321-1.205-1.484.993-6.55 4.383 3.006-6.035 1.654-3.319h-8.447l4.7-2.574 2.682-1.465-2.159-2.168-3.805-3.817 4.027.808 2.732.549v-5.287l1.813 1.819 2.242 2.25 1.416-2.846 1.592-3.195" fill="#fcab40"/><path d="M28.14 19.126l.96-.24 2.696-.676-1.745 1.968-.681.77.82.615L31.7 22.7H28.647l.245 1.145.8 3.746-3.016-2.751-.545-.498-.614.41-2.704 1.81 1.241-2.491.683-1.371H21.25l1.94-1.061 1.107-.607-.891-.895-1.57-1.576 1.66.334 1.129.227V16.94l.748.75.925.928.585-1.173.658-1.319" fill="#f5f8fa"/></svg>