<svg xmlns="http://www.w3.org/2000/svg" viewBox="0 0 47.5 47.5"><defs><clipPath id="a"><path d="M0 38h38V0H0v38z"/></clipPath></defs><g clip-path="url(#a)" transform="matrix(1.25 0 0 -1.25 0 47.5)"><path d="M3 32c-2 0-2-2-2-2V10s0-2 2-2h32c2 0 2 2 2 2v20s0 2-2 2H3z" fill="#c6e4b5"/><path d="M24 7.938H14v24.063h10V7.938z" fill="#9aaab4"/><path d="M12.527 11.447c0-.658-1.474-1.447-3.3-1.447-2.42 0-3.878 1.68-4.362 3.742H3.571a.57.57 0 1 0 0 1.14h1.13c-.009.135-.03.27-.03.405 0 .3.026.597.064.89H3.571a.572.572 0 0 0 0 1.14h1.416c.593 1.835 2.03 3.257 4.313 3.257 1.84 0 3.008-.993 3.008-1.52 0-.336-.204-.612-.526-.612-.584 0-.876 1.023-2.482 1.023-1.51 0-2.428-.943-2.89-2.148h3.325a.57.57 0 1 0 0-1.14h-3.62a6.193 6.193 0 0 1-.072-.89c0-.134.015-.27.025-.405h3.667a.57.57 0 1 0 0-1.14H6.25c.39-1.43 1.345-2.63 2.977-2.63 1.564 0 2.25.933 2.79.933.307 0 .511-.234.511-.598" fill="#67757f"/></g></svg>