<svg xmlns="http://www.w3.org/2000/svg" viewBox="0 0 47.5 47.5"><defs><clipPath id="a"><path d="M0 38h38V0H0v38z"/></clipPath></defs><g clip-path="url(#a)" transform="matrix(1.25 0 0 -1.25 0 47.5)"><path d="M16.068 22.722c0 4.719-8.7 4.41-8.7 7.26 0 1.38 1.32 2.053 2.85 2.053 2.574 0 3.032-1.654 4.198-1.654.824 0 1.222.522 1.222 1.104 0 1.352-2.052 2.378-4.021 2.732v1.307a1.475 1.475 0 1 1-2.951 0V34.17c-2.147-.49-3.992-1.977-3.992-4.404 0-4.532 8.699-4.35 8.699-7.532 0-1.103-1.194-2.207-3.155-2.207-2.941 0-3.921 1.992-5.115 1.992C4.52 22.02 4 21.53 4 20.789c0-1.17 1.965-2.581 4.667-2.975l-.001-.01V16.33a1.477 1.477 0 1 1 2.953 0v1.473c0 .018-.01.03-.01.047 2.432.453 4.459 2.039 4.459 4.87M24.896 11.124h-4.104c-.688 0-1.227.327-1.227.985 0 .661.54.991 1.227.991h2.875l-4.792 7.399c-.296.448-.448.775-.448 1.194 0 .571.57.991 1.049.991.48 0 .958-.21 1.378-.839l5.36-8.058 5.363 8.058c.418.629.896.839 1.377.839.477 0 1.046-.42 1.046-.991 0-.419-.149-.746-.449-1.194L28.76 13.1h2.875c.69 0 1.23-.33 1.23-.991 0-.658-.54-.985-1.23-.985h-4.1V8.998h4.1c.69 0 1.23-.332 1.23-.99 0-.658-.54-.988-1.23-.988h-4.1V2.409c0-.868-.54-1.41-1.32-1.41-.779 0-1.318.542-1.318 1.41V7.02h-4.104c-.688 0-1.227.33-1.227.988 0 .658.54.99 1.227.99h4.104v2.126z" fill="#67757f"/><path d="M24.875 30.875L18 35l4.125-6.875L18 24h11v11l-4.125-4.125zM10.125 7.125L17 3l-4.125 6.875L17 14H6V3l4.125 4.125z" fill="#9aaab4"/></g></svg>