<svg xmlns="http://www.w3.org/2000/svg" viewBox="0 0 47.5 47.5"><defs><clipPath id="a"><path d="M0 38h38V0H0v38z"/></clipPath></defs><g clip-path="url(#a)" transform="matrix(1.25 0 0 -1.25 0 47.5)"><path d="M37 15a4 4 0 0 0-4-4H5a4 4 0 0 0-4 4v18a4 4 0 0 0 4 4h28a4 4 0 0 0 4-4V15z" fill="#ccd6dd"/><path d="M33 15H5v18h28V15z" fill="#5dadec"/><path d="M24 5H14v6h10V5z" fill="#ccd6dd"/><path d="M24 9H14v2h10V9z" fill="#9aaab4"/><path d="M37 4a3 3 0 0 1-3 3H4a3 3 0 1 1 0-6h30a3 3 0 0 1 3 3" fill="#e1e8ed"/><path d="M6 3H4v2h2V3zM10 3H8v2h2V3zM14 3h-2v2h2V3zM18 3h-2v2h2V3zM22 3h-2v2h2V3zM26 3h-2v2h2V3zM30 3h-2v2h2V3zM34 3h-2v2h2V3z" fill="#f5f8fa"/></g></svg>