<svg xmlns="http://www.w3.org/2000/svg" viewBox="0 0 47.5 47.5"><defs><clipPath id="a"><path d="M0 38h38V0H0v38z"/></clipPath></defs><g clip-path="url(#a)" transform="matrix(1.25 0 0 -1.25 0 47.5)"><path d="M3 32c-2 0-2-2-2-2V10s0-2 2-2h32c2 0 2 2 2 2v20s0 2-2 2H3z" fill="#a7d28b"/><path d="M24 7.938H14v24.063h10V7.938z" fill="#9aaab4"/><path d="M12 17.969c0 2.979-5.493 2.785-5.493 4.584 0 .87.833 1.296 1.8 1.296 1.624 0 1.914-1.045 2.65-1.045.521 0 .772.329.772.696 0 .856-1.296 1.502-2.539 1.726v.825a.932.932 0 1 1-1.864 0v-.853c-1.354-.31-2.52-1.25-2.52-2.781 0-2.862 5.492-2.746 5.492-4.758 0-.695-.754-1.39-1.991-1.39-1.857 0-2.476 1.257-3.23 1.257-.368 0-.696-.31-.696-.776 0-.741 1.24-1.631 2.947-1.881l-.002-.004v-.933a.933.933 0 0 1 1.865 0v.933c0 .01-.005.019-.006.029C10.719 15.18 12 16.18 12 17.969" fill="#67757f"/></g></svg>