<svg xmlns="http://www.w3.org/2000/svg" viewBox="0 0 47.5 47.5"><defs><clipPath id="a"><path d="M0 38h38V0H0v38z"/></clipPath></defs><g clip-path="url(#a)" transform="matrix(1.25 0 0 -1.25 0 47.5)"><path d="M5 33a4 4 0 0 1-4-4V11a4 4 0 0 1 4-4h28a4 4 0 0 1 4 4v18s0 4-4 4H5z" fill="#ccd6dd"/><path d="M37 21.937H1v6.062h36v-6.062z" fill="#67757f"/><path d="M33 12H5v8h28v-8z" fill="#f5f8fa"/><path d="M6.999 13a1.001 1.001 0 0 0-.894 1.447C6.199 14.633 8.423 19 12 19c.815 0 1.256-.356 1.482-.655.586-.772.299-1.795.046-2.699a12.644 12.644 0 0 1-.16-.612c.816.132 1.672.634 2.44 1.084.842.492 1.506.882 2.192.882 1.456 0 1.809-1.204 1.96-1.719.024-.084.058-.196.087-.277.756.033 1.614.507 2.522 1.008 2.19 1.207 5.189 2.861 9.056-.231a1 1 0 0 0-1.25-1.562c-2.822 2.26-4.684 1.23-6.84.042C22.412 13.641 21.251 13 20 13c-1.456 0-1.809 1.204-1.959 1.719-.024.079-.054.182-.083.261-.262-.074-.762-.368-1.139-.588C15.76 13.771 14.443 13 13 13c-.741 0-1.149.333-1.361.612-.554.731-.291 1.668-.037 2.575.063.223.154.547.199.792-2.255-.241-3.89-3.393-3.906-3.426A1 1 0 0 0 6.999 13" fill="#9aaab4"/></g></svg>