<svg xmlns="http://www.w3.org/2000/svg" viewBox="0 0 47.5 47.5"><defs><clipPath id="a"><path d="M0 38h38V0H0v38z"/></clipPath><clipPath id="b"><path d="M4.777 19c0-7.854 6.368-14.223 14.223-14.223 7.853 0 14.223 6.369 14.223 14.223 0 7.855-6.37 14.223-14.223 14.223-7.855 0-14.223-6.368-14.223-14.223m9.987 0a4.236 4.236 0 1 0 8.472 0 4.237 4.237 0 0 0-8.472 0"/></clipPath><clipPath id="c"><path d="M0 38h38V0H0v38z"/></clipPath></defs><g clip-path="url(#a)" transform="matrix(1.25 0 0 -1.25 0 47.5)"><path d="M37 5a4 4 0 0 0-4-4H5a4 4 0 0 0-4 4v28a4 4 0 0 0 4 4h28a4 4 0 0 0 4-4V5z" fill="#292f33"/><path d="M19 21.667a2.667 2.667 0 1 1 0-5.334 2.667 2.667 0 0 1 0 5.334M35 19c0-8.836-7.164-16-16-16S3 10.164 3 19s7.164 16 16 16 16-7.164 16-16" fill="#ffd983"/></g><g clip-path="url(#b)" transform="matrix(1.25 0 0 -1.25 0 47.5)"><path d="M19 19L3 20.777V35h14.223L19 19zM19 19l16-1.777V3H20.777L19 19z" fill="#ffac33"/><path d="M19 19L20.889 2.11 35 3 19 19zM19 19L3 35l14.222.888L19 19z" fill="#ffe8b6"/></g><g clip-path="url(#c)" transform="matrix(1.25 0 0 -1.25 0 47.5)"><path d="M37 16a2 2 0 0 0-2-2H24a2 2 0 0 0-2 2v6a2 2 0 0 0 2 2h11a2 2 0 0 0 2-2v-6z" fill="#f5f8fa"/></g></svg>