<svg xmlns="http://www.w3.org/2000/svg" viewBox="0 0 47.5 47.5"><defs><clipPath id="a"><path d="M0 38h38V0H0v38z"/></clipPath></defs><g clip-path="url(#a)" transform="matrix(1.25 0 0 -1.25 0 47.5)"><path d="M12 10a2 2 0 0 0-4 0v11a2 2 0 0 0 4 0V10zM32 10a2 2 0 0 0-4 0v11a2 2 0 0 0 4 0V10z" fill="#9aaab4"/><path d="M30 3a2 2 0 0 0-4 0v6a2 2 0 0 0 4 0V3zM14 3a2 2 0 0 0-4 0v6a2 2 0 0 0 4 0V3z" fill="#67757f"/><path d="M30 19a4 4 0 0 0-4-4H14a4 4 0 0 0-4 4v14a4 4 0 0 0 4 4h12a4 4 0 0 0 4-4V19z" fill="#4289c1"/><path d="M24 29h-8v8h8v-8z" fill="#e1e8ed"/><path d="M12 22a2 2 0 0 0-2-2H8a2 2 0 0 0 0 4h2a2 2 0 0 0 2-2M34 22a2 2 0 0 0-2-2h-2a2 2 0 0 0 0 4h2a2 2 0 0 0 2-2" fill="#ccd6dd"/><path d="M30 14a3 3 0 0 0-3-3H13a3 3 0 1 0 0 6h14a3 3 0 0 0 3-3" fill="#5dadec"/><path d="M30 8H10v6h20V8z" fill="#2a6797"/></g></svg>