<svg xmlns="http://www.w3.org/2000/svg" viewBox="0 0 47.5 47.5"><defs><clipPath id="a"><path d="M0 38h38V0H0v38z"/></clipPath><clipPath id="b"><path d="M22.864 15.949a7.444 7.444 0 0 1-.528-.405c-.01-.008-.016-.02-.023-.027-.011-.011-.025-.02-.035-.032l.005-.003c-1-1.063-1.012-2.706-.005-3.714 1.007-1.007 2.649-.993 3.712.007l.01-.012c-.02-.019-.043-.032-.063-.052-1.059-1.059-1.084-2.749-.058-3.776 1.026-1.026 2.716-1.001 3.775.058.02.021.033.043.053.065l.01-.012c-1-1.062-1.011-2.704-.004-3.712 1.006-1.007 2.648-.995 3.711.006l.006-.006.029.036c.009.008.019.014.028.023.07.068.123.145.181.22.043.052.089.101.128.155.036.05.066.101.096.153 1.42 2.186.49 5.894-2.322 8.707-1.934 1.934-4.294 2.978-6.29 2.978-.905 0-1.734-.214-2.416-.657"/></clipPath><clipPath id="c"><path d="M0 38h38V0H0v38z"/></clipPath><clipPath id="d"><path d="M4.36 36.081c-.052-.032-.103-.061-.153-.096-.053-.04-.104-.086-.155-.128-.074-.06-.151-.113-.221-.181l-.022-.029-.035-.029.005-.006c-1-1.062-1.012-2.704-.005-3.712 1.007-1.007 2.65-.994 3.712.006l.011-.012c-.021-.019-.044-.032-.064-.052-1.059-1.058-1.084-2.749-.058-3.776 1.026-1.026 2.716-.999 3.775.059.02.02.033.043.052.064l.011-.011c-1-1.062-1.012-2.705-.004-3.712 1.007-1.008 2.649-.995 3.711.005l.006-.005c.01.01.019.024.029.036l.028.022c.07.068.122.146.182.22.042.052.088.101.127.155.036.05.065.101.097.152 1.419 2.187.489 5.896-2.322 8.708-1.935 1.935-4.295 2.979-6.291 2.979-.905 0-1.734-.214-2.416-.657"/></clipPath></defs><g clip-path="url(#a)" transform="matrix(1.25 0 0 -1.25 0 47.5)"><path d="M12.476 26.764c-3.783-5.25-10.408-7.737-10.408-7.737-1.236-1.047-.192-2.28-.192-2.28l10.44-12.36s.521-.618 2.28-.19c0 0 6.624 2.483 10.406 7.733 3.9 5.41 10.93 7.118 10.93 7.118 1.235 1.047.192 2.282.192 2.282L25.685 33.687s-.522.62-2.28.193c0 0-7.03-1.704-10.929-7.116" fill="#a7d28b"/><path d="M15.28 29.712c-1.01-.832-1.979-1.802-2.804-2.948-.816-1.133-1.768-2.129-2.754-3.007L22.25 8.921c.985.88 1.937 1.875 2.753 3.008.825 1.145 1.794 2.116 2.802 2.948L15.28 29.712z" fill="#9aaab4"/><path d="M33.456 4.412l.028.021c.07.07.121.147.181.221.042.052.09.102.128.155.035.05.064.101.096.153 1.42 2.186.49 5.895-2.322 8.707-2.81 2.811-6.52 3.742-8.707 2.321-.05-.03-.102-.06-.153-.096-.053-.039-.104-.086-.154-.127-.075-.06-.153-.113-.22-.18-.01-.01-.016-.02-.023-.029-.01-.01-.025-.019-.037-.03l.006-.006c-1-1.06-1.01-2.705-.006-3.712 1.008-1.007 2.651-.994 3.713.006l.011-.01c-.02-.02-.044-.035-.063-.054-1.059-1.059-1.084-2.748-.059-3.776 1.026-1.025 2.717-1 3.775.06.02.02.034.042.053.064l.011-.012c-1-1.063-1.013-2.705-.005-3.713 1.007-1.006 2.65-.994 3.711.006l.006-.006.03.037" fill="#e1e8ed"/></g><g clip-path="url(#b)" transform="matrix(1.25 0 0 -1.25 0 47.5)"><path d="M21.545 14.276c.334-.958 2.375-2.79 4.667-1.082 0-.375-.333-2.125-1.958-3.125s-3.46.291-3.542 2c-.083 1.707.833 2.207.833 2.207" fill="#ccd6dd"/><path d="M25.17 11.152c.584-2.333 3.543-3.5 5.043-2.125-.293-.75-1.5-2.458-2.5-2.833s-4.793-.459-4.918.541 2.375 4.417 2.375 4.417" fill="#ccd6dd"/><path d="M28.963 7.32c.166-.71 2.25-3.418 5.166-2.043.459-.75 1.79-2.792-1.46-2.75-3.25.042-6.124-.042-5.54 1.375.584 1.417 1.834 3.417 1.834 3.417" fill="#ccd6dd"/></g><g clip-path="url(#c)" transform="matrix(1.25 0 0 -1.25 0 47.5)"><path d="M15.48 14.445c-1.558 1.844-4.855-1.148-5.794-.035-.455.54-.163 1.238.435 1.742 1.005.85 1.73.356 2.185.74.324.272.307.606.115.834-.446.528-1.586.252-2.472-.26l-.431.51a.753.753 0 0 1-1.063.09.752.752 0 0 1-.09-1.062l.447-.53c-.677-.898-.907-2.09-.107-3.037 1.496-1.769 4.833 1.172 5.883-.072.364-.432.262-1.256-.504-1.902-1.148-.97-2.188-.516-2.655-.91-.227-.192-.27-.555-.026-.844.388-.457 1.62-.36 2.806.38 0-.003 0-.005.002-.007l.487-.576a.756.756 0 0 1 1.153.974l-.487.576c-.005.006-.013.01-.018.016.799.978 1.069 2.268.134 3.373" fill="#67757f"/><path d="M14.956 24.502l.028.022c.069.068.12.145.18.22.043.051.089.101.128.155.036.05.065.101.097.152 1.42 2.188.489 5.897-2.322 8.708S6.547 37.5 4.36 36.08c-.051-.03-.102-.06-.153-.095-.053-.04-.103-.086-.155-.128-.074-.06-.151-.112-.22-.181-.01-.008-.015-.02-.022-.028l-.036-.03.005-.005c-1-1.062-1.012-2.705-.005-3.712 1.007-1.007 2.65-.995 3.712.005l.01-.011c-.02-.02-.042-.033-.062-.052-1.06-1.06-1.085-2.75-.06-3.776 1.027-1.026 2.717-1 3.776.059.02.02.034.043.053.064l.01-.012c-1-1.062-1.012-2.704-.004-3.712 1.007-1.007 2.649-.995 3.71.006l.007-.006c.01.01.019.024.03.036" fill="#e1e8ed"/></g><g clip-path="url(#d)" transform="matrix(1.25 0 0 -1.25 0 47.5)"><path d="M3.042 34.408c.333-.958 2.375-2.792 4.667-1.083 0-.375-.334-2.125-1.96-3.125-1.625-1-3.458.292-3.54 2-.085 1.708.832 2.208.832 2.208" fill="#ccd6dd"/><path d="M6.667 31.284c.583-2.333 3.542-3.5 5.042-2.125-.292-.75-1.5-2.458-2.5-2.833s-4.792-.46-4.917.54 2.375 4.418 2.375 4.418" fill="#ccd6dd"/><path d="M10.459 27.45c.167-.708 2.25-3.417 5.167-2.042.458-.75 1.79-2.79-1.46-2.75-3.25.042-6.124-.04-5.54 1.375.583 1.417 1.833 3.417 1.833 3.417" fill="#ccd6dd"/></g></svg>