<svg xmlns="http://www.w3.org/2000/svg" viewBox="0 0 47.5 47.5"><defs><clipPath id="a"><path d="M0 38h38V0H0v38z"/></clipPath></defs><g clip-path="url(#a)" transform="matrix(1.25 0 0 -1.25 0 47.5)"><path d="M29.81 13.791c0 7.672-14.144 7.171-14.144 11.803 0 2.242 2.145 3.338 4.633 3.338 4.184 0 4.929-2.689 6.824-2.689 1.342 0 1.989.845 1.989 1.792 0 2.201-3.337 3.867-6.537 4.444v2.124a2.4 2.4 0 1 1-4.8 0v-2.199c-3.488-.795-6.49-3.215-6.49-7.159 0-7.369 14.143-7.071 14.143-12.248 0-1.793-1.941-3.586-5.13-3.586-4.78 0-6.373 3.236-8.315 3.236-.946 0-1.792-.795-1.792-1.996 0-1.906 3.195-4.2 7.588-4.84l-.003-.015V3.398a2.401 2.401 0 0 1 4.8 0v2.398c0 .028-.013.05-.015.075 3.952.738 7.249 3.315 7.249 7.92" fill="#67757f"/></g></svg>