<svg xmlns="http://www.w3.org/2000/svg" viewBox="0 0 47.5 47.5"><defs><clipPath id="a"><path d="M0 38h38V0H0v38z"/></clipPath></defs><g clip-path="url(#a)" transform="matrix(1.25 0 0 -1.25 0 47.5)"><path d="M3 32c-2 0-2-2-2-2V10s0-2 2-2h32c2 0 2 2 2 2v20s0 2-2 2H3z" fill="#fdd888"/><path d="M24 7.938H14v24.063h10V7.938z" fill="#9aaab4"/><path d="M6.743 19.857H4.368c-.397 0-.709.19-.709.57 0 .383.312.574.71.574h1.663l-2.772 4.28c-.173.26-.26.45-.26.691 0 .33.33.573.607.573.278 0 .554-.122.797-.485l3.101-4.662 3.102 4.662c.243.363.52.485.798.485.276 0 .605-.243.605-.573 0-.242-.086-.432-.26-.69l-2.772-4.28h1.663c.4 0 .711-.192.711-.575 0-.38-.312-.57-.71-.57H8.267v-1.229h2.373c.4 0 .711-.193.711-.574 0-.38-.312-.57-.71-.57H8.267v-2.669c0-.502-.312-.815-.763-.815-.45 0-.762.313-.762.815v2.668H4.368c-.397 0-.709.19-.709.571 0 .381.312.574.71.574h2.374v1.23z" fill="#67757f"/></g></svg>