<svg xmlns="http://www.w3.org/2000/svg" viewBox="0 0 47.5 47.5"><defs><clipPath id="a"><path d="M0 38h38V0H0v38z"/></clipPath></defs><g clip-path="url(#a)" transform="matrix(1.25 0 0 -1.25 0 47.5)"><path d="M36 5a4 4 0 0 0-4-4H6a4 4 0 0 0-4 4v24a4 4 0 0 0 4 4h26a4 4 0 0 0 4-4V5z" fill="#292f33"/><path d="M34 5a2 2 0 0 0-2-2H6a2 2 0 0 0-2 2v20a2 2 0 0 0 2 2h26a2 2 0 0 0 2-2V5z" fill="#e1e8ed"/><path d="M34 21H4v8a2 2 0 0 0 2 2h26a2 2 0 0 0 2-2v-8z" fill="#dd2e44"/><path d="M12.61 16h-.696c-1.086 0-1.537.731-1.537 1.5 0 .792.564 1.5 1.537 1.5h2.211c.97 0 1.513-.701 1.513-1.605V6.53c0-1.13-.556-1.762-1.529-1.762-.973 0-1.5.632-1.5 1.762V16z" fill="#66757f"/><path d="M9.065 23.999c0-1.679-1-2.119-1.851-2.119-.645 0-1.721.27-1.721 1.14 0 .269.216.609.524.609.374 0 .702-.37 1.122-.37.524 0 .524.52.524.84v3.297c0 .5.298.78.7.78.403 0 .702-.28.702-.78v-3.397zM9.795 27.396c0 .5.3.78.702.78.402 0 .701-.28.701-.78v-2.488c0-.92.552-1.649 1.44-1.649.85 0 1.43.77 1.43 1.65v2.488c0 .5.3.78.702.78.402 0 .701-.28.701-.78v-2.568c0-1.68-1.29-2.95-2.833-2.95-1.56 0-2.843 1.25-2.843 2.95v2.567zM16.26 27.396c0 .5.3.78.702.78.402 0 .7-.28.7-.78V23.38h1.666c.477 0 .682-.38.672-.72-.018-.33-.261-.658-.672-.658H16.99c-.458 0-.73.319-.73.819v4.577z" fill="#f5f8fa"/><path d="M31 23a1 1 0 1 1 2 0 1 1 0 0 1-2 0M28 23a1 1 0 1 1 2 0 1 1 0 0 1-2 0M25 23a1 1 0 1 1 2 0 1 1 0 0 1-2 0M25 26a1 1 0 1 1 2 0 1 1 0 0 1-2 0M28 26a1 1 0 1 1 2 0 1 1 0 0 1-2 0M31 26a1 1 0 1 1 2 0 1 1 0 0 1-2 0" fill="#f4abba"/><path d="M12 30a1 1 0 0 0-2 0v6a1 1 0 0 0 2 0v-6zM28 30a1 1 0 1 0-2 0v6a1 1 0 1 0 2 0v-6z" fill="#99aab5"/><path d="M21.308 14.497c.54.112.924.126 1.443.126 2.515 0 4.302-1.995 4.302-4.427 0-3.47-1.912-5.757-5.507-5.757-1.475 0-4.572.955-4.572 2.785 0 .77.644 1.414 1.412 1.414.83 0 1.83-1.33 3.222-1.33 1.455 0 2.203 1.413 2.203 2.721 0 1.248-.706 2.1-1.994 2.1-1.207 0-1.393-.686-2.453-.686-.811 0-1.364.536-1.303 1.656l.563 3.758c.248 1.76.677 2.143 1.759 2.143h5.436c1.037 0 1.646-.609 1.646-1.42 0-1.558-1.173-1.58-1.58-1.58h-4.24l-.337-1.503z" fill="#66757f"/></g></svg>