<svg xmlns="http://www.w3.org/2000/svg" viewBox="0 0 47.5 47.5"><defs><clipPath id="a"><path d="M0 38h38V0H0v38z"/></clipPath><clipPath id="b"><path d="M3 19c0-8.836 7.164-16 16-16s16 7.164 16 16-7.164 16-16 16S3 27.836 3 19m11.235 0A4.764 4.764 0 0 0 19 23.764 4.764 4.764 0 0 0 23.765 19a4.766 4.766 0 0 0-9.53 0"/></clipPath></defs><g clip-path="url(#a)" transform="matrix(1.25 0 0 -1.25 0 47.5)"><path d="M19 22a3 3 0 1 1 0-6 3 3 0 0 1 0 6m18-3c0-9.941-8.059-18-18-18S1 9.059 1 19s8.059 18 18 18 18-8.059 18-18" fill="#ffd983"/></g><g clip-path="url(#b)" transform="matrix(1.25 0 0 -1.25 0 47.5)"><path d="M19 19L1 21v16h16l2-18zM19 19l18-2V1H21l-2 18z" fill="#ffac33"/><path d="M19 19l2.125-19L37 1 19 19zM19 19L1 37l16 1 2-19z" fill="#ffe8b6"/></g></svg>