<svg xmlns="http://www.w3.org/2000/svg" viewBox="0 0 47.5 47.5"><defs><clipPath id="a"><path d="M0 38h38V0H0v38z"/></clipPath></defs><g clip-path="url(#a)" transform="matrix(1.25 0 0 -1.25 0 47.5)"><path d="M36.353 11.746c.217 2.391-.513 4.558-2.057 6.102L18.033 34.11a1 1 0 1 1-1.414-1.414l16.263-16.263c1.117-1.117 1.642-2.716 1.48-4.505a7.717 7.717 0 0 0-2.189-4.687 7.712 7.712 0 0 0-4.685-2.186c-1.78-.162-3.39.362-4.506 1.478L4.598 24.918c-.98.981-1.059 2.204-.953 3.058.15 1.196.754 2.401 1.66 3.307 1.7 1.7 4.616 2.453 6.363.706l14.85-14.848c1.12-1.12.026-2.803-.708-3.537-.733-.735-2.417-1.826-3.535-.707L10.961 24.211a1 1 0 1 1-1.414-1.414l11.314-11.314c1.86-1.858 4.608-1.049 6.363.707 1.758 1.757 2.566 4.507.708 6.365l-14.85 14.848c-2.62 2.62-6.812 1.674-9.19-.706-1.216-1.214-2.028-2.845-2.232-4.472-.229-1.833.313-3.51 1.524-4.72L21.568 5.118c1.365-1.365 3.218-2.094 5.281-2.094.27 0 .544.013.82.037 2.206.202 4.363 1.21 5.918 2.765a9.744 9.744 0 0 1 2.766 5.92" fill="#99aab5"/></g></svg>