<svg xmlns="http://www.w3.org/2000/svg" viewBox="0 0 47.5 47.5"><defs><clipPath id="a"><path d="M0 38h38V0H0v38z"/></clipPath></defs><g clip-path="url(#a)" transform="matrix(1.25 0 0 -1.25 0 47.5)"><path d="M37 5a4 4 0 0 0-4-4H5a4 4 0 0 0-4 4v23a4 4 0 0 0 4 4h28a4 4 0 0 0 4-4V5z" fill="#e1e8ed"/><path d="M35 37h-3.277c.172-.295.277-.634.277-1a2 2 0 0 0-4 0c0 .366.105.705.277 1H9.723c.172-.295.277-.634.277-1a2 2 0 0 0-4 0c0 .366.105.705.277 1H3a2 2 0 0 1-2-2V24h36v11a2 2 0 0 1-2 2" fill="#dd2e44"/><path d="M13 18h-1.695c-1.086 0-1.538.731-1.538 1.5 0 .792.566 1.5 1.538 1.5h3.21c.972 0 1.515-.701 1.515-1.605V6.53c0-1.13-.558-1.762-1.53-1.762S13 5.4 13 6.53V18z" fill="#66757f"/><path d="M6.49 27.999c0-1.679-1.069-2.119-1.979-2.119-.689 0-1.839.27-1.839 1.14 0 .269.23.609.56.609.4 0 .75-.37 1.2-.37.56 0 .56.52.56.84v4.297c0 .5.32.78.748.78.431 0 .75-.28.75-.78v-4.397zM7.272 32.397c0 .5.32.78.75.78s.75-.28.75-.78v-3.488c0-.92.589-1.65 1.539-1.65.909 0 1.529.77 1.529 1.65v3.488c0 .5.319.78.749.78s.75-.28.75-.78v-3.568c0-1.68-1.38-2.95-3.028-2.95-1.669 0-3.039 1.25-3.039 2.95v3.568zM14.182 32.397c0 .5.32.78.75.78s.75-.28.75-.78V27.38h1.778c.51 0 .73-.38.72-.72a.7.7 0 0 0-.72-.66h-2.498c-.49 0-.78.32-.78.82v5.577z" fill="#f5f8fa"/><path d="M33 27a1 1 0 1 1 2 0 1 1 0 0 1-2 0M33 30a1 1 0 1 1 2 0 1 1 0 0 1-2 0M30 27a1 1 0 1 1 2 0 1 1 0 0 1-2 0M30 30a1 1 0 1 1 2 0 1 1 0 0 1-2 0M27 27a1 1 0 1 1 2 0 1 1 0 0 1-2 0M27 30a1 1 0 1 1 2 0 1 1 0 0 1-2 0M24 30a1 1 0 1 1 2 0 1 1 0 0 1-2 0M24 27a1 1 0 1 1 2 0 1 1 0 0 1-2 0" fill="#f4abba"/><path d="M22.578 15.497c.541.112 1.128.226 1.691.226 2.73 0 4.668-2.165 4.668-4.804 0-3.767-2.074-6.247-5.975-6.247C21.36 4.672 18 5.71 18 7.693a1.55 1.55 0 0 0 1.533 1.534c.902 0 1.985-1.443 3.496-1.443 1.578 0 2.391 1.533 2.391 2.954 0 1.354-.767 2.28-2.165 2.28-1.309 0-1.51-.747-2.66-.747-.88 0-1.332.677-1.332 1.061 0 .293.044.52.068.767l.563 4.758c.248 1.76.677 2.143 1.76 2.143h5.435c1.037 0 1.646-.609 1.646-1.42 0-1.558-1.173-1.58-1.579-1.58h-4.24l-.338-2.503z" fill="#66757f"/></g></svg>