<svg xmlns="http://www.w3.org/2000/svg" viewBox="0 0 47.5 47.5"><defs><clipPath id="a"><path d="M0 38h38V0H0v38z"/></clipPath></defs><g clip-path="url(#a)" transform="matrix(1.25 0 0 -1.25 0 47.5)"><path d="M1 8a4 4 0 0 1 4-4h24a4 4 0 0 1 4 4v17a4 4 0 0 1-4 4h-9c-3.562 0-3 5-8.437 5H5a4 4 0 0 1-4-4V8z" fill="#269"/><path d="M33.336 25h-6.562c-5.438 0-5.383-5-8.946-5h-9c-2.21 0-4.181-1.791-4.406-4l-.492-3.874L3.406 8l-.02.002c-.115-.606-.672-.999-1.3-.999-.643 0-1.106.507-1.074 1.143C1.01 8.097 1 8.05 1 8a3.989 3.989 0 0 1 3.4-3.939A2.82 2.82 0 0 1 5 4h26c2.209 0 4.182 1.791 4.406 4l1.524 13c.224 2.209-1.385 4-3.594 4" fill="#55acee"/></g></svg>