<svg xmlns="http://www.w3.org/2000/svg" viewBox="0 0 47.5 47.5"><defs><clipPath id="a"><path d="M0 38h38V0H0v38z"/></clipPath></defs><g clip-path="url(#a)" transform="matrix(1.25 0 0 -1.25 0 47.5)"><path d="M33.415 27.414l-9 9a2.001 2.001 0 0 1-2.829-2.828l-3.859-3.86 9-9 3.859 3.86a2 2 0 0 1 2.829 2.828" fill="#e1e8ed"/><path d="M23 37H8a4 4 0 0 1-4-4V5a4 4 0 0 1 4-4h22a4 4 0 0 1 4 4v21h-9c-1 0-2 1-2 2v9z" fill="#ccd6dd"/><path d="M23 37h-2v-9a4 4 0 0 1 4-4h9v2h-9c-1 0-2 1-2 2v9zM18 29a1 1 0 0 0-1-1H9a1 1 0 0 0 0 2h8a1 1 0 0 0 1-1M18 25a1 1 0 0 0-1-1H9a1 1 0 0 0 0 2h8a1 1 0 0 0 1-1M30 21a1 1 0 0 0-1-1H9a1 1 0 0 0 0 2h20a1 1 0 0 0 1-1M30 17a1 1 0 0 0-1-1H9a1 1 0 1 0 0 2h20a1 1 0 0 0 1-1M30 13a1 1 0 0 0-1-1H9a1 1 0 1 0 0 2h20a1 1 0 0 0 1-1M30 9a1 1 0 0 0-1-1H9a1 1 0 1 0 0 2h20a1 1 0 0 0 1-1" fill="#99aab5"/></g></svg>