<svg xmlns="http://www.w3.org/2000/svg" viewBox="0 0 47.5 47.5"><defs><clipPath id="a"><path d="M0 38h38V0H0v38z"/></clipPath></defs><g clip-path="url(#a)" transform="matrix(1.25 0 0 -1.25 0 47.5)"><path d="M33 3a2 2 0 0 0-2-2H7a2 2 0 0 0-2 2v27a2 2 0 0 0 2 2h24a2 2 0 0 0 2-2V3z" fill="#c1694f"/><path d="M30 5a1 1 0 0 0-1-1H9a1 1 0 0 0-1 1v23a1 1 0 0 0 1 1h20a1 1 0 0 0 1-1V5z" fill="#fff"/><path d="M26 34h-4a3 3 0 1 1-6 0h-4a2 2 0 0 1-2-2v-5h18v5a2 2 0 0 1-2 2" fill="#ccd6dd"/><path d="M21 34a2 2 0 1 0-4.001.001A2 2 0 0 0 21 34" fill="#292f33"/><path d="M21 23a1 1 0 0 0-1-1h-9a1 1 0 0 0 0 2h9a1 1 0 0 0 1-1M28 19a1 1 0 0 0-1-1H11a1 1 0 0 0 0 2h16a1 1 0 0 0 1-1M28 15a1 1 0 0 0-1-1H11a1 1 0 1 0 0 2h16a1 1 0 0 0 1-1M28 11a1 1 0 0 0-1-1H11a1 1 0 1 0 0 2h16a1 1 0 0 0 1-1M28 7a1 1 0 0 0-1-1h-9a1 1 0 1 0 0 2h9a1 1 0 0 0 1-1" fill="#99aab5"/></g></svg>