<svg xmlns="http://www.w3.org/2000/svg" viewBox="0 0 47.5 47.5"><defs><clipPath id="a"><path d="M0 38h38V0H0v38z"/></clipPath></defs><path d="M30.814 30.371L17.127 16.685 28.86 6.909l11.73 11.73-9.776 11.732z" fill="#be1931"/><g clip-path="url(#a)" transform="matrix(1.25 0 0 -1.25 0 47.5)"><path d="M35.6 23.088a4.42 4.42 0 0 0-6.255 0l-6.257 6.256a4.426 4.426 0 0 0 6.257 6.258l6.255-6.258a4.421 4.421 0 0 0 0-6.256" fill="#dd2e44"/><path d="M16.049 16.047s5.77 10.952-2.05 3.13C6.18 11.356.408 1.972 1.19 1.187 1.969.405 11.357 6.18 19.177 14c7.82 7.82-3.128 2.047-3.128 2.047" fill="#99aab5"/><path d="M26.215 9.009a4.423 4.423 0 0 0-6.258 0L9.009 19.959a4.425 4.425 0 0 0 6.258 6.257l10.948-10.95a4.423 4.423 0 0 0 0-6.257" fill="#dd2e44"/></g></svg>