<svg xmlns="http://www.w3.org/2000/svg" viewBox="0 0 47.5 47.5"><defs><clipPath id="a"><path d="M0 38h38V0H0v38z"/></clipPath></defs><g clip-path="url(#a)" transform="matrix(1.25 0 0 -1.25 0 47.5)"><path d="M31.02 2.736a3.998 3.998 0 0 0-5.656 0L2.736 25.363a4 4 0 0 0 0 5.658l4.242 4.242a4.002 4.002 0 0 0 5.659 0l22.625-22.628a3.998 3.998 0 0 0 .001-5.656L31.02 2.736z" fill="#ffcc4d"/><path d="M10.515 30.314A1 1 0 0 0 9.1 31.729l3.536 3.535c.485-.487.927-.929 1.414-1.415l-3.536-3.535zM16.171 28.9a.999.999 0 1 0-1.414 1.413l1.414 1.415 1.415-1.415-1.415-1.414zM17.586 23.243a1 1 0 1 0-1.415 1.414l3.536 3.536 1.414-1.415-3.535-3.535zM23.242 21.829a.998.998 0 0 0-1.413 0 .998.998 0 0 0 0 1.414l1.414 1.415c.485-.487.928-.93 1.414-1.415l-1.415-1.414zM24.657 16.172a1 1 0 1 0-1.415 1.414l3.536 3.535c.486-.486.93-.928 1.414-1.414l-3.535-3.535zM31.727 9.1a.998.998 0 0 0-1.413 0 .998.998 0 0 0 0 1.415l3.535 3.535 1.415-1.414L31.727 9.1zM30.314 14.758a1 1 0 1 0-1.415 1.413l1.415 1.414 1.413-1.413-1.414-1.414z" fill="#292f33"/></g></svg>