<svg xmlns="http://www.w3.org/2000/svg" viewBox="0 0 47.5 47.5"><defs><clipPath id="a"><path d="M0 38h38V0H0v38z"/></clipPath></defs><g clip-path="url(#a)" transform="matrix(1.25 0 0 -1.25 0 47.5)"><path d="M29 5a4 4 0 0 0-4-4H5C2.791 1 1 2.875 1 9v24a4 4 0 0 0 4 4h20a4 4 0 0 0 4-4V5z" fill="#ccd6dd"/><path d="M32 1H5c4 0 4 8 4 8a4 4 0 0 0 4 4h20c2.209 0 4-2 4-4 0 0 .25-8-5-8" fill="#e1e8ed"/><path d="M25 30a1 1 0 0 0-1-1H6a1 1 0 0 0 0 2h18a1 1 0 0 0 1-1M25 26a1 1 0 0 0-1-1H6a1 1 0 0 0 0 2h18a1 1 0 0 0 1-1M25 22a1 1 0 0 0-1-1H6a1 1 0 0 0 0 2h18a1 1 0 0 0 1-1M25 18a1 1 0 0 0-1-1H6a1 1 0 1 0 0 2h18a1 1 0 0 0 1-1" fill="#99aab5"/></g></svg>