<svg xmlns="http://www.w3.org/2000/svg" viewBox="0 0 47.5 47.5"><defs><clipPath id="a"><path d="M0 38h38V0H0v38z"/></clipPath></defs><g clip-path="url(#a)" transform="matrix(1.25 0 0 -1.25 0 47.5)"><path d="M37 11a4 4 0 0 0-4-4H9a4 4 0 0 0-4 4v19.687C5 32.896 10.791 37 13 37h18.625C34.719 37 37 34.687 37 31.625V11z" fill="#f4900c"/><path d="M35 7a4 4 0 0 0-4-4H11a4 4 0 0 0-4 4v24c0 4.119-.021 4 5 4h19a4 4 0 0 0 4-4V7z" fill="#ccd6dd"/><path d="M33 6a3 3 0 0 0-3-3H8a3 3 0 0 0-3 3v24a3 3 0 0 0 3 3h22a3 3 0 0 0 3-3V6z" fill="#e1e8ed"/><path d="M33 5a4 4 0 0 0-4-4H10a4 4 0 0 0-4 4v22a4 4 0 0 0 4 4h19a4 4 0 0 0 4-4V5z" fill="#ffac33"/><path d="M31 5a4 4 0 0 0-4-4H10a4 4 0 0 0-4 4v20a4 4 0 0 0 4 4h17.335C29.544 29 31 27.544 31 25.335V5z" fill="#ffcc4d"/><path d="M10 31c-1.687 0-1.731 1.922-1 2.75.832.941 2.125 1.25 4.438 1.25H15v2h-2.719C8.313 37 5 34.5 5 31.625V5a4 4 0 0 1 4-4h2v30h-1z" fill="#f4900c"/><path d="M9.541 4.021c0-.702-.667-1.27-1.49-1.27-.822 0-1.489.568-1.489 1.27 0 .701.667 1.271 1.49 1.271.822 0 1.49-.57 1.49-1.27" fill="#662113"/><path d="M7.894 4.729c-.48-.055-.792-.374-1.016-.73C6.57 3.516 5.87 3 5 3c-1.104 0-2 .672-2 1.5C3 5.33 3.896 6 5 6v1.998C2.834 7.976 1.084 6.42 1.084 4.5c0-1.933 1.772-3.5 3.958-3.5 1.854 0 3.347 1.045 3.9 2.57.277.759-.468 1.223-1.048 1.159" fill="#66757f"/><path d="M9.541 12.021c0-.702-.667-1.27-1.49-1.27-.822 0-1.489.568-1.489 1.27 0 .701.667 1.271 1.49 1.271.822 0 1.49-.57 1.49-1.27" fill="#662113"/><path d="M7.894 12.729c-.48-.055-.792-.374-1.016-.73C6.57 11.516 5.87 11 5 11c-1.104 0-2 .672-2 1.5 0 .83.896 1.5 2 1.5v1.998c-2.166-.021-3.916-1.576-3.916-3.497 0-1.933 1.772-3.5 3.958-3.5 1.854 0 3.347 1.045 3.9 2.57.277.759-.468 1.223-1.048 1.159" fill="#66757f"/><path d="M9.541 20.021c0-.702-.667-1.27-1.49-1.27-.822 0-1.489.568-1.489 1.27 0 .701.667 1.271 1.49 1.271.822 0 1.49-.57 1.49-1.27" fill="#662113"/><path d="M7.894 20.729c-.48-.055-.792-.374-1.016-.73C6.57 19.516 5.87 19 5 19c-1.104 0-2 .672-2 1.5 0 .83.896 1.5 2 1.5v1.998c-2.166-.021-3.916-1.576-3.916-3.497 0-1.933 1.772-3.5 3.958-3.5 1.854 0 3.347 1.045 3.9 2.57.277.759-.468 1.223-1.048 1.159" fill="#66757f"/><path d="M9.541 28.021c0-.702-.667-1.27-1.49-1.27-.822 0-1.489.568-1.489 1.27 0 .701.667 1.271 1.49 1.271.822 0 1.49-.57 1.49-1.27" fill="#662113"/><path d="M7.894 28.729c-.48-.055-.792-.374-1.016-.73C6.57 27.516 5.87 27 5 27c-1.104 0-2 .672-2 1.5 0 .83.896 1.5 2 1.5v1.998c-2.166-.021-3.916-1.576-3.916-3.497 0-1.933 1.772-3.5 3.958-3.5 1.854 0 3.347 1.045 3.9 2.57.277.759-.468 1.223-1.048 1.159" fill="#66757f"/></g></svg>