<svg xmlns="http://www.w3.org/2000/svg" viewBox="0 0 47.5 47.5"><defs><clipPath id="a"><path d="M0 38h38V0H0v38z"/></clipPath></defs><g clip-path="url(#a)" transform="matrix(1.25 0 0 -1.25 0 47.5)"><path d="M16 6c0-2.209-.791-4-3-4H6C2 2 2 16 6 16h7c2.209 0 3-1.791 3-4V6z" fill="#553788"/><path d="M35 4h-1v10h1a1 1 0 1 1 0 2H11C7 16 7 2 11 2h24a1 1 0 1 1 0 2" fill="#9266cc"/><path d="M35.172 4H12c-2 0-2 10 0 10h23.172c1.104 0 1.104-10 0-10" fill="#ccd6dd"/><path d="M12.5 12h23.35c-.135 1.175-.361 2-.678 2H12c-1.651 0-1.938-6.808-.863-9.187C10.745 7.771 11.199 12 12.5 12" fill="#99aab5"/><path d="M13 29a4 4 0 0 0-4-4H5c-4 0-4 11 0 11h4a4 4 0 0 0 4-4v-3z" fill="#269"/><path d="M32 27h-1v7h1a1 1 0 1 1 0 2H8c-4 0-4-11 0-11h24a1 1 0 1 1 0 2" fill="#55acee"/><path d="M32.172 27H9c-2 0-2 7 0 7h23.172c1.104 0 1.104-7 0-7" fill="#ccd6dd"/><path d="M9 32h23.925c-.114 1.125-.364 2-.753 2H9c-1.193 0-1.669-2.489-1.438-4.5C7.718 30.858 8.193 32 9 32" fill="#99aab5"/><path d="M21 20a4 4 0 0 0-4-4H7c-4 0-4 9 0 9h10a4 4 0 0 0 4-4v-1z" fill="#f4900c"/><path d="M36 18h-1v5h1a1 1 0 1 1 0 2H16c-4 0-4-9 0-9h20a1 1 0 1 1 0 2" fill="#ffac33"/><path d="M36.172 18H17c-2 0-2 5 0 5h19.172c1.104 0 1.104-5 0-5" fill="#ccd6dd"/><path d="M17 21h19.984c-.064 1.062-.334 2-.812 2H17c-1.274 0-1.733-2.027-1.383-3.5.198.839.657 1.5 1.383 1.5" fill="#99aab5"/></g></svg>