<svg xmlns="http://www.w3.org/2000/svg" viewBox="0 0 47.5 47.5"><defs><clipPath id="a"><path d="M0 38h38V0H0v38z"/></clipPath></defs><g clip-path="url(#a)" transform="matrix(1.25 0 0 -1.25 0 47.5)"><path d="M37 10a4 4 0 0 0-4-4H5a4 4 0 0 0-4 4v18a4 4 0 0 0 4 4h28a4 4 0 0 0 4-4V10z" fill="#292f33"/><path d="M35 16a2 2 0 0 0-2-2H5a2 2 0 0 0-2 2v12a2 2 0 0 0 2 2h28a2 2 0 0 0 2-2V16z" fill="#c6e5b3"/><path d="M15 10a2 2 0 0 0-2-2H5a2 2 0 0 0 0 4h8a2 2 0 0 0 2-2M29 10a2 2 0 0 0-2-2h-8a2 2 0 0 0 0 4h8a2 2 0 0 0 2-2" fill="#66757f"/><path d="M31 10a2 2 0 1 1 4.001.001A2 2 0 0 1 31 10" fill="#dd2e44"/><path d="M7.189 22.807c.144.03.3.06.45.06.725 0 1.24-.576 1.24-1.277 0-1.002-.55-1.661-1.588-1.661-.427 0-1.32.275-1.32.803 0 .222.186.408.407.408.24 0 .528-.384.93-.384.42 0 .636.408.636.785 0 .36-.204.606-.576.606-.348 0-.402-.198-.708-.198-.234 0-.353.18-.353.282 0 .078.011.138.018.204l.15 1.266c.067.467.18.569.468.569h1.445c.275 0 .437-.162.437-.378 0-.414-.311-.45-.42-.45H7.28l-.09-.635zM10.632 22.807c.144.03.3.06.45.06.725 0 1.241-.576 1.241-1.277 0-1.002-.55-1.661-1.589-1.661-.426 0-1.319.275-1.319.803 0 .222.186.408.407.408.24 0 .528-.384.93-.384.42 0 .636.408.636.785 0 .36-.204.606-.576.606-.348 0-.402-.198-.708-.198-.234 0-.353.18-.353.282 0 .078.011.138.018.204l.15 1.266c.066.467.18.569.467.569h1.445c.276 0 .438-.162.438-.378 0-.414-.312-.45-.42-.45h-1.127l-.09-.635zM14.076 22.807c.144.03.3.06.45.06.725 0 1.241-.576 1.241-1.277 0-1.002-.55-1.661-1.589-1.661-.426 0-1.319.275-1.319.803 0 .222.186.408.407.408.24 0 .528-.384.93-.384.42 0 .636.408.636.785 0 .36-.204.606-.576.606-.348 0-.402-.198-.708-.198-.234 0-.353.18-.353.282 0 .078.011.138.018.204l.15 1.266c.066.467.18.569.467.569h1.445c.276 0 .438-.162.438-.378 0-.414-.312-.45-.42-.45h-1.127l-.09-.635zM17.916 22.117c.222-.018.342-.168.342-.384 0-.203-.12-.353-.342-.371h-1.277c-.223.018-.342.168-.342.37 0 .217.119.367.342.385h1.277zM19.855 22.807c.144.03.3.06.449.06.726 0 1.24-.576 1.24-1.277 0-1.002-.55-1.661-1.587-1.661-.426 0-1.32.275-1.32.803 0 .222.186.408.408.408.24 0 .528-.384.929-.384.42 0 .636.408.636.785 0 .36-.204.606-.575.606-.348 0-.403-.198-.708-.198-.234 0-.354.18-.354.282 0 .078.012.138.018.204l.15 1.266c.066.467.18.569.468.569h1.445c.276 0 .438-.162.438-.378 0-.414-.312-.45-.42-.45h-1.127l-.09-.635zM23.298 22.807c.144.03.3.06.45.06.726 0 1.24-.576 1.24-1.277 0-1.002-.55-1.661-1.588-1.661-.426 0-1.32.275-1.32.803 0 .222.187.408.408.408.24 0 .528-.384.93-.384.42 0 .636.408.636.785 0 .36-.204.606-.576.606-.348 0-.402-.198-.707-.198-.235 0-.355.18-.355.282 0 .078.013.138.019.204l.149 1.266c.067.467.18.569.468.569h1.445c.277 0 .438-.162.438-.378 0-.414-.312-.45-.42-.45h-1.127l-.09-.635zM26.742 22.807c.144.03.3.06.45.06.726 0 1.241-.576 1.241-1.277 0-1.002-.55-1.661-1.589-1.661-.426 0-1.319.275-1.319.803 0 .222.186.408.407.408.241 0 .528-.384.93-.384.42 0 .636.408.636.785 0 .36-.204.606-.576.606-.348 0-.402-.198-.707-.198-.235 0-.355.18-.355.282 0 .078.013.138.02.204l.148 1.266c.067.467.181.569.468.569h1.445c.277 0 .438-.162.438-.378 0-.414-.312-.45-.419-.45h-1.128l-.09-.635zM30.186 22.807c.144.03.3.06.45.06.726 0 1.241-.576 1.241-1.277 0-1.002-.55-1.661-1.589-1.661-.426 0-1.32.275-1.32.803 0 .222.187.408.408.408.241 0 .528-.384.93-.384.42 0 .636.408.636.785 0 .36-.204.606-.576.606-.348 0-.402-.198-.707-.198-.235 0-.355.18-.355.282 0 .078.013.138.02.204l.148 1.266c.067.467.181.569.468.569h1.445c.277 0 .438-.162.438-.378 0-.414-.312-.45-.419-.45h-1.128l-.09-.635z" fill="#77b255"/></g></svg>