<svg xmlns="http://www.w3.org/2000/svg" viewBox="0 0 47.5 47.5"><defs><clipPath id="a"><path d="M0 38h38V0H0v38z"/></clipPath></defs><g clip-path="url(#a)" transform="matrix(1.25 0 0 -1.25 0 47.5)"><path d="M23 4c0-2.209-8-2.209-8 0v10a4 4 0 0 0 8 0V4z" fill="#c1694f"/><path d="M11 34a8 8 0 0 1-8-8V14h16v12a8 8 0 0 1-8 8" fill="#292f33"/><path d="M21 18.24c0-1.237-1.065-2.24-2.293-2.24H3.293C2.064 16 1 17.003 1 18.24v10.52C1 29.997 2.064 31 3.293 31h15.414C19.935 31 21 29.997 21 28.76V18.24z" fill="#ccd6dd"/><path d="M7.637 24.204l-6.538-6.572c.113-.376.316-.716.596-.984l6.729 6.764a.565.565 0 0 1 0 .792.553.553 0 0 1-.787 0M14.364 24.204a.553.553 0 0 1-.787 0 .563.563 0 0 1 0-.792l6.728-6.764c.28.268.483.608.596.984l-6.537 6.572z" fill="#99aab5"/><path d="M18.707 31H3.293C2.064 31 1 29.997 1 28.761v-1.419l8.073-8.114a2.693 2.693 0 0 1 3.822 0L21 27.354v1.407C21 29.997 19.935 31 18.707 31" fill="#99aab5"/><path d="M18.707 31H3.293c-1.166 0-2.172-.906-2.273-2.055l8.407-8.396c.869-.874 2.277-.84 3.145.035l8.41 8.346c-.093 1.156-1.105 2.07-2.275 2.07" fill="#e1e8ed"/><path d="M27 34H11a8 8 0 0 0 8-8V14h16v12a8 8 0 0 1-8 8" fill="#99aab5"/><path d="M27 36h-4a2 2 0 0 1-2-2V22a2 2 0 0 1 4 0v8h2a2 2 0 0 1 2 2v2a2 2 0 0 1-2 2" fill="#dd2e44"/></g></svg>