<svg xmlns="http://www.w3.org/2000/svg" viewBox="0 0 47.5 47.5"><defs><clipPath id="a"><path d="M0 38h38V0H0v38z"/></clipPath></defs><g clip-path="url(#a)" transform="matrix(1.25 0 0 -1.25 0 47.5)"><path d="M37 5a4 4 0 0 0-4-4H5a4 4 0 0 0-4 4v9c0 2.209.791 3 3 3h30c2.209 0 3-.791 3-3V5z" fill="#d99e82"/><path d="M26 17a7 7 0 1 0-14 0h14z" fill="#662113"/><path d="M5 1h28a4 4 0 0 1 4 4H1a4 4 0 0 1 4-4" fill="#c1694f"/><path d="M27.716 29h-4.783v6a2 2 0 0 1-2 2h-4.001a2 2 0 0 1-2-2v-6h-4.784c-1.223 0-1.515-.624-.651-1.489l7.863-7.863a2.23 2.23 0 0 1 3.145 0l7.863 7.863c.865.865.572 1.489-.652 1.489" fill="#77b255"/></g></svg>