<svg xmlns="http://www.w3.org/2000/svg" viewBox="0 0 47.5 47.5"><defs><clipPath id="a"><path d="M0 38h38V0H0v38z"/></clipPath></defs><g clip-path="url(#a)" transform="matrix(1.25 0 0 -1.25 0 47.5)"><path d="M9 20H1V5a4 4 0 0 1 8 0 4 4 0 0 1 4-4h20a4 4 0 0 1 4 4v15H9z" fill="#292f33"/><path d="M33 27H13a4 4 0 0 1-4-4 4 4 0 0 1-8 0V8a4 4 0 0 1 8 0 4 4 0 0 1 4-4h20a4 4 0 0 1 4 4v15a4 4 0 0 1-4 4" fill="#66757f"/><path d="M22 21a2 2 0 0 0-2-2h-7a2 2 0 0 0-2 2v2a2 2 0 0 0 2 2h7a2 2 0 0 0 2-2v-2z" fill="#c6e5b3"/><path d="M14 15.5a1.5 1.5 0 1 0-3 0 1.5 1.5 0 0 0 3 0M18 15.5a1.5 1.5 0 1 0-3 0 1.5 1.5 0 0 0 3 0M22 15.5a1.5 1.5 0 1 0-3.001.001A1.5 1.5 0 0 0 22 15.5M14 11.5a1.5 1.5 0 1 0-3 0 1.5 1.5 0 0 0 3 0M18 11.5a1.5 1.5 0 1 0-3 0 1.5 1.5 0 0 0 3 0M22 11.5a1.5 1.5 0 1 0-3.001.001A1.5 1.5 0 0 0 22 11.5M14 7.5a1.5 1.5 0 1 0-3 0 1.5 1.5 0 0 0 3 0M18 7.5a1.5 1.5 0 1 0-3 0 1.5 1.5 0 0 0 3 0M22 7.5a1.5 1.5 0 1 0-3.001.001A1.5 1.5 0 0 0 22 7.5" fill="#ccd6dd"/><path d="M35 16a1 1 0 0 0-1-1h-9a1 1 0 1 0 0 2h9a1 1 0 0 0 1-1M35 13a1 1 0 0 0-1-1h-9a1 1 0 1 0 0 2h9a1 1 0 0 0 1-1M35 10a1 1 0 0 0-1-1h-9a1 1 0 1 0 0 2h9a1 1 0 0 0 1-1M35 7a1 1 0 0 0-1-1h-9a1 1 0 1 0 0 2h9a1 1 0 0 0 1-1" fill="#99aab5"/><path d="M28 22a2 2 0 1 0-4.001.001A2 2 0 0 0 28 22M35 22a2 2 0 1 0-4.001.001A2 2 0 0 0 35 22M33 27H13v6a4 4 0 0 0 4 4h12a4 4 0 0 0 4-4v-6z" fill="#ccd6dd"/><path d="M31 33a1 1 0 0 0-1-1H16a1 1 0 1 0 0 2h14a1 1 0 0 0 1-1M23 30a1 1 0 0 0-1-1h-6a1 1 0 1 0 0 2h6a1 1 0 0 0 1-1" fill="#99aab5"/></g></svg>