<svg xmlns="http://www.w3.org/2000/svg" viewBox="0 0 47.5 47.5"><defs><clipPath id="a"><path d="M0 38h38V0H0v38z"/></clipPath></defs><g clip-path="url(#a)" transform="matrix(1.25 0 0 -1.25 0 47.5)"><path d="M35.724 7.205C34.484 7.215 34.483 6 34.483 6H20v.025c-.166-.008-.331-.025-.5-.025-5.246 0-9.5 4.254-9.5 9.5s4.254 9.5 9.5 9.5 9.5-4.254 9.5-9.5c0-3.063-1.466-5.765-3.718-7.5h5.434A13.409 13.409 0 0 1 33 15.5C33 22.955 26.955 29 19.5 29S6 22.955 6 15.5 12.045 2 19.5 2c.169 0 .333.02.5.025V2h14.483S34.48.873 35.723.861c1.239-.01 1.229 1.245 1.229 1.245l.013 3.822s0 1.266-1.241 1.277M6 22.74a16.047 16.047 0 0 0 4 4.739v.52c0 5 5 7 5 8s-1 1-1 1H2c-1 0-1-1-1-1 0-1 5-3.332 5-7.69v-5.57z" fill="#ffac33"/></g></svg>