<svg xmlns="http://www.w3.org/2000/svg" viewBox="0 0 47.5 47.5"><defs><clipPath id="a"><path d="M0 38h38V0H0v38z"/></clipPath></defs><g clip-path="url(#a)" transform="matrix(1.25 0 0 -1.25 0 47.5)"><path d="M15 8a4 4 0 1 0 0 8 4 4 0 0 0 0-8m0 10a6 6 0 0 1 0-12 6 6 0 0 1 0 12" fill="#3b88c3"/><path d="M2.783 22.977v-.021C1.783 22.738 1 21.06 1 19c0-2.06.782-3.737 1.783-3.956v-.02l28.701-7.972v23.884l-28.7-7.96z" fill="#55acee"/><path d="M37 19c0-6.627-2.238-12-5-12s-5 5.373-5 12 2.238 12 5 12 5-5.373 5-12" fill="#269"/></g></svg>