<svg xmlns="http://www.w3.org/2000/svg" viewBox="0 0 47.5 47.5"><defs><clipPath id="a"><path d="M0 38h38V0H0v38z"/></clipPath></defs><g clip-path="url(#a)" transform="matrix(1.25 0 0 -1.25 0 47.5)"><path d="M37 10a4 4 0 0 0-4-4H5a4 4 0 0 0-4 4v18a4 4 0 0 0 4 4h28a4 4 0 0 0 4-4V10z" fill="#ccd6dd"/><path d="M12.95 19.364L1.637 8.051c-.027-.028-.037-.063-.06-.09A3.987 3.987 0 0 1 2.96 6.575c.029.023.063.033.09.06L14.365 17.95a1 1 0 0 1-1.415 1.414M36.423 7.96c-.021.028-.033.063-.06.09L25.05 19.364a1 1 0 1 1-1.415-1.414L34.949 6.636c.027-.027.062-.037.09-.06a3.97 3.97 0 0 1 1.384 1.384" fill="#99aab5"/><path d="M33 32H5a4 4 0 0 1-4-4v-1.03l14.528-14.495a4.88 4.88 0 0 1 6.884 0L37 26.991V28a4 4 0 0 1-4 4" fill="#99aab5"/><path d="M33 32H5a3.992 3.992 0 0 1-3.595-2.275l14.766-14.767a4 4 0 0 1 5.657 0l14.767 14.767A3.991 3.991 0 0 1 33 32" fill="#e1e8ed"/><path d="M16 27.73c0 .73.365 1.27 1 1.27h3.62c.839 0 1.174-.49 1.174-1 0-.496-.349-1-1.035-1h-2.708v-2h2.533c.716 0 1.065-.489 1.065-1 0-.496-.366-1-1.065-1h-2.533v-2h2.84c.699 0 1.037-.489 1.037-1 0-.496-.353-1-1.037-1h-3.766c-.643 0-1.125.531-1.125 1.188v7.542z" fill="#66757f"/></g></svg>