<svg xmlns="http://www.w3.org/2000/svg" viewBox="0 0 47.5 47.5"><defs><clipPath id="a"><path d="M0 38h38V0H0v38z"/></clipPath></defs><g clip-path="url(#a)" transform="matrix(1.25 0 0 -1.25 0 47.5)"><path d="M8 25a1 1 0 0 0-1-1H2a1 1 0 0 0 0 2h5a1 1 0 0 0 1-1M6 20a1 1 0 0 0-1-1H2a1 1 0 0 0 0 2h3a1 1 0 0 0 1-1M4 15a1 1 0 0 0-1-1H2a1 1 0 1 0 0 2h1a1 1 0 0 0 1-1" fill="#55acee"/><path d="M33.3 12c-.625-2.209-2.924-4-5.133-4h-20C5.957 8 4.675 9.791 5.3 12l3.398 12c.626 2.209 2.924 4 5.133 4h20c2.209 0 3.493-1.791 2.867-4L33.3 12z" fill="#ccd6dd"/><path d="M18.336 19.364L5.384 10.051c-.034-.028-.054-.063-.085-.09a2.656 2.656 0 0 1 .992-1.385c.035.023.073.033.107.06L19.35 17.95c.5.391.68 1.022.4 1.414-.28.391-.912.391-1.414 0M32.145 9.96c-.015.028-.016.063-.034.09l-7.673 9.314c-.281.391-.913.391-1.416 0-.501-.391-.68-1.023-.4-1.414l7.675-9.314c.019-.027.05-.037.073-.06.667.34 1.274.814 1.776 1.384" fill="#99aab5"/><path d="M36.7 24c.625 2.209-.659 4-2.868 4h-20c-2.21 0-4.508-1.791-5.133-4l-.02-.074 8.805-8.451c1.631-1.584 3.787-1.475 5.725-.371l13.226 7.964.264.932z" fill="#99aab5"/><path d="M33.832 28h-20c-1.578 0-3.189-.921-4.217-2.248l9.217-8.794c.749-.719 2.434-.729 3.656 0l14.294 8.768C36.516 27.067 35.42 28 33.832 28" fill="#e1e8ed"/></g></svg>