<svg xmlns="http://www.w3.org/2000/svg" viewBox="0 0 47.5 47.5"><defs><clipPath id="a"><path d="M0 38h38V0H0v38z"/></clipPath><clipPath id="b"><path d="M12 30V16s0-2 2-2h10s2 0 2 2v14H12z"/></clipPath><clipPath id="c"><path d="M0 38h38V0H0v38z"/></clipPath></defs><g clip-path="url(#a)" transform="matrix(1.25 0 0 -1.25 0 47.5)"><path d="M32 12a4 4 0 0 0-4-4H10a4 4 0 0 0-4 4v21a4 4 0 0 0 4 4h18a4 4 0 0 0 4-4V12z" fill="#dd2e44"/><path d="M8 27v4s0 2 2 2h18s2 0 2-2v-4H8z" fill="#a0041e"/><path d="M28 25H10s-2 0-2 2v3h22v-3c0-2-2-2-2-2" fill="#292f33"/><path d="M12 30V16s0-2 2-2h10s2 0 2 2v14H12z" fill="#e1e8ed"/></g><g clip-path="url(#b)" transform="matrix(1.25 0 0 -1.25 0 47.5)"><path d="M25 13l-9 11 6 6H11V13h14z" fill="#ccd6dd"/><path d="M24 13s-7 9-8 10 0 2 0 2l6 6 1-1-6-6 8-10-1-1z" fill="#66757f"/></g><g clip-path="url(#c)" transform="matrix(1.25 0 0 -1.25 0 47.5)"><path d="M24 8h-9V1h9v7z" fill="#66757f"/></g></svg>