<svg xmlns="http://www.w3.org/2000/svg" viewBox="0 0 47.5 47.5"><defs><clipPath id="a"><path d="M0 38h38V0H0v38z"/></clipPath></defs><g clip-path="url(#a)" transform="matrix(1.25 0 0 -1.25 0 47.5)"><path d="M11.746 15.48c1.668 0 7.43-4.346 7.427-9.702C19.176.42 4.32.42 4.319 5.78c0 5.354 5.759 9.7 7.427 9.7" fill="#99aab5"/><path d="M9.54 11.818c8.84-8.84 17.337-5.163 20.034-2.469 2.695 2.697-.159 9.916-6.371 16.13-6.215 6.213-13.435 9.066-16.13 6.371C4.375 29.155.7 20.656 9.54 11.818" fill="#ccd6dd"/><path d="M13.443 15.722c6.214-6.214 13.435-9.066 16.13-6.372 2.695 2.696-.158 9.916-6.37 16.129-6.216 6.213-13.436 9.067-16.13 6.37-2.696-2.693.157-9.915 6.37-16.127" fill="#66757f"/><path d="M23.202 25.479a1.138 1.138 0 0 0 0-1.607L15.97 16.64a1.136 1.136 0 1 0-1.607 1.607l7.232 7.23a1.135 1.135 0 0 0 1.608 0" fill="#ccd6dd"/><path d="M24.809 27.085a2.274 2.274 0 1 0-3.217-3.214 2.274 2.274 0 0 0 3.217 3.214" fill="#ccd6dd"/><path d="M29.287 23.922l-.05.001a1.001 1.001 0 0 0-.95 1.05c.001.015.063 2.156-1.58 3.8-1.638 1.636-3.773 1.578-3.8 1.58a.999.999 0 1 0-.1 1.996c.122.012 3.028.123 5.314-2.163 2.287-2.287 2.17-5.19 2.164-5.314a1 1 0 0 0-.998-.95" fill="#ffac33"/><path d="M32.846 24.478a.998.998 0 0 0-.943 1.331c.034.107.892 2.877-2.196 5.963-3.126 3.127-6.126 2.415-6.252 2.383a1.001 1.001 0 0 0-1.215.715.994.994 0 0 0 .7 1.217c.17.046 4.206 1.078 8.18-2.901 4.017-4.013 2.727-7.875 2.669-8.038a.998.998 0 0 0-.943-.67" fill="#ffac33"/><path d="M11.914 4.48c-2.9 0-5.543.657-7.566 1.736-.008-.146-.03-.29-.03-.437.002-5.36 14.858-5.36 14.855 0 0 .09-.014.176-.017.264-1.978-.976-4.496-1.564-7.242-1.564" fill="#66757f"/></g></svg>