<svg xmlns="http://www.w3.org/2000/svg" viewBox="0 0 47.5 47.5"><defs><clipPath id="a"><path d="M0 38h38V0H0v38z"/></clipPath></defs><g clip-path="url(#a)" transform="matrix(1.25 0 0 -1.25 0 47.5)"><path d="M37 5a4 4 0 0 0-4-4H5a4 4 0 0 0-4 4v18a4 4 0 0 0 4 4h28a4 4 0 0 0 4-4V5z" fill="#ccd6dd"/><path d="M12.95 14.364L1.637 3.051c-.027-.028-.037-.063-.06-.09A3.987 3.987 0 0 1 2.96 1.575c.029.023.063.033.09.06L14.365 12.95a1 1 0 0 1-1.415 1.414M36.423 2.96c-.021.028-.033.063-.06.09L25.05 14.364a1 1 0 1 1-1.415-1.414L34.949 1.636c.027-.027.062-.037.09-.06a3.97 3.97 0 0 1 1.384 1.384" fill="#99aab5"/><path d="M33 27H5a4 4 0 0 1-4-4v-1.03L15.528 7.475a4.88 4.88 0 0 1 6.884 0L37 21.991V23a4 4 0 0 1-4 4" fill="#99aab5"/><path d="M33 27H5a3.992 3.992 0 0 1-3.595-2.275L16.171 9.958a4 4 0 0 1 5.657 0l14.767 14.767A3.991 3.991 0 0 1 33 27" fill="#e1e8ed"/><path d="M27.716 30H23v5a2 2 0 0 1-2 2h-4a2 2 0 0 1-2-2v-5h-4.852c-1.223 0-1.515-.624-.651-1.489l7.863-7.863a2.23 2.23 0 0 1 3.145 0l7.863 7.863c.865.865.572 1.489-.652 1.489" fill="#55acee"/></g></svg>