<svg xmlns="http://www.w3.org/2000/svg" viewBox="0 0 47.5 47.5"><defs><clipPath id="a"><path d="M0 38h38V0H0v38z"/></clipPath></defs><g clip-path="url(#a)" transform="matrix(1.25 0 0 -1.25 0 47.5)"><path d="M37 5c0-4-4-4-4-4H5C1 1 1 5 1 5v28c0 4 4 4 4 4h28s4 0 4-4V5z" fill="#f4900c"/><path d="M20 13V9H6v20h14V13h2v18c0 3-3 3-3 3H7c-3 0-3-3-3-3V7c0-3 3-3 3-3h12c3 0 3 3 3 3v6h-2z" fill="#fff"/><path d="M24 23s1 2 4 2c5 0 5-5 5-5 0-6-9-11-9-11s-9 5-9 11c0 0 0 5 5 5 3 0 4-2 4-2" fill="#f4900c"/><path d="M20 24c-3.955 0-4-3.837-4-4 0-4.584 6.196-8.729 8-9.837 1.804 1.108 8 5.253 8 9.837-.004.405-.147 4-4 4-2.299 0-3.08-1.401-3.112-1.46a1.01 1.01 0 0 0-.9-.533 1 1 0 0 0-.883.546C23.08 22.599 22.299 24 20 24m4-16a.994.994 0 0 0-.485.126C23.126 8.342 14 13.486 14 20c0 2.075 1.254 6 6 6 1.979 0 3.25-.75 4-1.437.75.687 2.021 1.437 4 1.437 4.746 0 6-3.925 6-6 0-6.514-9.126-11.658-9.515-11.874A.994.994 0 0 0 24 8" fill="#fff"/></g></svg>