<svg xmlns="http://www.w3.org/2000/svg" viewBox="0 0 47.5 47.5"><defs><clipPath id="a"><path d="M0 38h38V0H0v38z"/></clipPath></defs><g clip-path="url(#a)" transform="matrix(1.25 0 0 -1.25 0 47.5)"><path d="M30 19H17c-3.668 0-5 2.99-5 5v2H8c-3 0-3-3-3-3s-2 1-3 1-1-1-1-1V13s0-1 1-1 3 1 3 1V6c0-4 4-4 4-4h18c4 0 4 4 4 4v13.106A5.183 5.183 0 0 0 30 19" fill="#292f33"/><path d="M36 31c-.559 0-2.05-.934-3.26-1.76-.327.826-1.066 1.76-2.74 1.76H19s-5 0-5-5v-2s0-3 3-3h13s2.075.006 2.771 1.739C33.976 21.918 35.446 21 36 21c1 0 1 1 1 1v8s0 1-1 1M10 2v9s0 3 2.75 3H23s3 0 3-3V2h-2v9s0 1-1 1H13s-1 0-1-1V2h-2z" fill="#66757f"/></g></svg>