<svg xmlns="http://www.w3.org/2000/svg" viewBox="0 0 47.5 47.5"><defs><clipPath id="a"><path d="M0 38h38V0H0v38z"/></clipPath></defs><g clip-path="url(#a)" transform="matrix(1.25 0 0 -1.25 0 47.5)"><path d="M34 1H5c4 0 3 9 3 9 0 2.209 1.791 15 4 15h21s4 0 4-4V4s0-3-3-3" fill="#99aab5"/><path d="M31 4c0-3 3-3 3-3H4S1 1 1 5v28a4 4 0 0 0 4 4h22a4 4 0 0 0 4-4V4z" fill="#ccd6dd"/><path d="M28 17a1 1 0 0 0-1-1h-8a1 1 0 1 0 0 2h8a1 1 0 0 0 1-1M28 21a1 1 0 0 0-1-1h-8a1 1 0 1 0 0 2h8a1 1 0 0 0 1-1M28 25a1 1 0 0 0-1-1h-8a1 1 0 1 0 0 2h8a1 1 0 0 0 1-1M28 13a1 1 0 0 0-1-1H5a1 1 0 1 0 0 2h22a1 1 0 0 0 1-1M28 9a1 1 0 0 0-1-1H5a1 1 0 1 0 0 2h22a1 1 0 0 0 1-1M28 5a1 1 0 0 0-1-1H5a1 1 0 1 0 0 2h22a1 1 0 0 0 1-1M26 28s2 0 2 2v2s0 2-2 2H6s-2 0-2-2v-2s0-2 2-2h20z" fill="#99aab5"/><path d="M14 16s2 0 2 2v6s0 2-2 2H6s-2 0-2-2v-6s0-2 2-2h8z" fill="#55acee"/></g></svg>