<svg xmlns="http://www.w3.org/2000/svg" viewBox="0 0 47.5 47.5"><defs><clipPath id="a"><path d="M0 38h38V0H0v38z"/></clipPath></defs><g clip-path="url(#a)" transform="matrix(1.25 0 0 -1.25 0 47.5)"><path d="M3.697 24.611a.999.999 0 1 1 1.414-1.414l9.192 9.192a.999.999 0 1 1-1.414 1.414l-9.192-9.192z" fill="#414042"/><path d="M37 5c0-4-4-4-4-4H5S1 1 1 5v18s0 4 4 4h28c4 0 4-4 4-4V5z" fill="#99aab5"/><path d="M16.56 33.94a.999.999 0 0 0-1.413 0l-.707.707a.999.999 0 1 0 1.414 1.414l.707-.707a.999.999 0 0 0 0-1.414" fill="#414042"/><path d="M34 18.5a5.5 5.5 0 1 0-11 0 5.5 5.5 0 1 0 11 0M32 7.5C32 5.566 30.434 4 28.5 4A3.499 3.499 0 0 0 25 7.5c0 1.934 1.566 3.5 3.5 3.5S32 9.434 32 7.5" fill="#292f33"/><path d="M32 18.5c0-1.934-1.566-3.5-3.5-3.5a3.499 3.499 0 0 0-3.5 3.5c0 1.934 1.566 3.5 3.5 3.5s3.5-1.566 3.5-3.5M30 7.5a1.5 1.5 0 1 0-2.999-.001A1.5 1.5 0 0 0 30 7.5" fill="#66757f"/><path d="M13 11.5a1.5 1.5 0 1 0-3 0 1.5 1.5 0 0 0 3 0M8 11.5a1.5 1.5 0 1 0-3 0 1.5 1.5 0 0 0 3 0M13 16.5a1.5 1.5 0 1 0-3 0 1.5 1.5 0 0 0 3 0M18 16.5a1.5 1.5 0 1 0-3 0 1.5 1.5 0 0 0 3 0M18 11.5a1.5 1.5 0 1 0-3 0 1.5 1.5 0 0 0 3 0M18 6.5a1.5 1.5 0 1 0-3 0 1.5 1.5 0 0 0 3 0M8 6.5a1.5 1.5 0 1 0-3 0 1.5 1.5 0 0 0 3 0M8 16.5a1.5 1.5 0 1 0-3 0 1.5 1.5 0 0 0 3 0M13 21.5a1.5 1.5 0 1 0-3 0 1.5 1.5 0 0 0 3 0M18 21.5a1.5 1.5 0 1 0-3 0 1.5 1.5 0 0 0 3 0M8 21.5a1.5 1.5 0 1 0-3 0 1.5 1.5 0 0 0 3 0M13 6.5a1.5 1.5 0 1 0-3 0 1.5 1.5 0 0 0 3 0" fill="#292f33"/></g></svg>