<svg xmlns="http://www.w3.org/2000/svg" viewBox="0 0 47.5 47.5"><defs><clipPath id="a"><path d="M0 38h38V0H0v38z"/></clipPath></defs><g clip-path="url(#a)" transform="matrix(1.25 0 0 -1.25 0 47.5)"><path d="M36 19c0 9.389-7.611 17-17 17-9.388 0-16.999-7.611-16.999-17S9.612 2 19 2c9.389 0 17 7.611 17 17"/><path d="M14 6s-3 0-3 3v20s0 3 3 3h10s3 0 3-3V9s0-3-3-3H14z" fill="#fff"/><path d="M13 10h12v18H13V10z"/><path d="M30.68 8.088L8.089 30.678C10.949 33.353 14.778 35 18.999 35c8.838 0 16-7.163 16-16 0-4.223-1.647-8.053-4.32-10.912M19 3C10.165 3 3.002 10.163 3.002 19c0 3.713 1.276 7.12 3.397 9.835L28.835 6.398A15.906 15.906 0 0 0 19 3m0 34C9.06 37 1 28.94 1 19 1 9.059 9.06 1 19 1c9.942 0 18 8.059 18 18 0 9.94-8.058 18-18 18" fill="#dd2e44"/></g></svg>