<svg xmlns="http://www.w3.org/2000/svg" viewBox="0 0 47.5 47.5"><defs><clipPath id="a"><path d="M0 38h38V0H0v38z"/></clipPath></defs><g clip-path="url(#a)" transform="matrix(1.25 0 0 -1.25 0 47.5)"><path d="M37 5c0-4-4-4-4-4H5C1 1 1 5 1 5v28c0 4 4 4 4 4h28s4 0 4-4V5z" fill="#f4900c"/><path d="M15.841 20.084c0 1.728-.9 3.285-2.685 3.285-1.785 0-2.685-1.557-2.685-3.285 0-1.743.871-3.285 2.685-3.285s2.685 1.542 2.685 3.285m-7.598 0c0 2.971 2 5.256 4.913 5.256 2.871 0 4.913-2.357 4.913-5.256 0-2.957-1.985-5.256-4.913-5.256-2.899 0-4.913 2.3-4.913 5.256M19.526 24.055c0 .586.4 1.114 1.114 1.114h3.657c.627 0 .957-.485.957-.985 0-.486-.315-.985-.957-.985H21.67v-2.086h2.213c.686 0 1.03-.486 1.03-.971 0-.5-.344-1-1.03-1H21.67v-3.113c0-.714-.457-1.115-1.072-1.115-.614 0-1.07.4-1.07 1.115v8.026zM27.297 24.055c0 .586.4 1.114 1.114 1.114h3.657c.627 0 .957-.485.957-.985 0-.486-.315-.985-.957-.985H29.44v-2.086h2.213c.686 0 1.029-.486 1.029-.971 0-.5-.343-1-1.03-1H29.44v-3.113c0-.714-.457-1.115-1.072-1.115-.614 0-1.071.4-1.071 1.115v8.026z" fill="#fff"/><path d="M20 13V9H6v20h14v-2h2v4c0 3-3 3-3 3H7c-3 0-3-3-3-3V7c0-3 3-3 3-3h12c3 0 3 3 3 3v6h-2z" fill="#fff"/></g></svg>