<svg xmlns="http://www.w3.org/2000/svg" viewBox="0 0 47.5 47.5"><defs><clipPath id="a"><path d="M0 38h38V0H0v38z"/></clipPath></defs><g clip-path="url(#a)" transform="matrix(1.25 0 0 -1.25 0 47.5)"><path d="M26.485 14.344l-3.71 3.71A11.935 11.935 0 0 1 25 25c0 6.628-5.373 12-12 12-6.628 0-12-5.372-12-12 0-6.627 5.372-12 12-12 2.591 0 4.984.83 6.945 2.227l3.712-3.711 2.828 2.828z" fill="#9aaab4"/><path d="M21 25a8 8 0 1 0-16 0 8 8 0 0 0 16 0" fill="#bdddf4"/><path d="M35.727 7.828l-8.484 8.484a1.998 1.998 0 0 1-2.828 0l-2.83-2.828a2 2 0 0 1 0-2.828l2.83-2.828 5.655-5.656a4 4 0 1 1 5.657 5.656" fill="#67757f"/></g></svg>