<svg xmlns="http://www.w3.org/2000/svg" viewBox="0 0 47.5 47.5"><defs><clipPath id="a"><path d="M0 38h38V0H0v38z"/></clipPath></defs><g clip-path="url(#a)" transform="matrix(1.25 0 0 -1.25 0 47.5)"><path d="M14 37a9 9 0 0 1-9-9V17h4v11a5 5 0 0 0 10 0V17h4v11a9 9 0 0 1-9 9" fill="#ccd6dd"/><path d="M27 5a4 4 0 0 0-4-4H5a4 4 0 0 0-4 4v12a4 4 0 0 0 4 4h18a4 4 0 0 0 4-4V5z" fill="#fdcb58"/><path d="M33 15l-16 4-11-7h12.184A2.99 2.99 0 0 0 21 14a3 3 0 0 0 0-6 2.99 2.99 0 0 0-2.816 2H6l11-7 16 4-1 4 1 4z" fill="#9aaab4"/><path d="M37 19h-3c-.55 0-1.201-.402-1.447-.894l-3.106-6.211c-.246-.492-.246-1.297 0-1.79l3.106-6.21C32.799 3.403 33.45 3 34 3h3v16z" fill="#292f33"/></g></svg>