<svg xmlns="http://www.w3.org/2000/svg" viewBox="0 0 47.5 47.5"><defs><clipPath id="a"><path d="M0 38h38V0H0v38z"/></clipPath></defs><g clip-path="url(#a)" transform="matrix(1.25 0 0 -1.25 0 47.5)"><path d="M12.858 20.736a1.003 1.003 0 0 0 0-1.414 1.003 1.003 0 0 0-1.414 0L2.96 27.808a1.003 1.003 0 0 0 0 1.414 1.003 1.003 0 0 0 1.414 0l8.485-8.486zM19.93 27.807a1.003 1.003 0 0 0 0-1.414 1.003 1.003 0 0 0-1.414 0L10.03 34.88a1.003 1.003 0 0 0 0 1.414 1.003 1.003 0 0 0 1.414 0l8.486-8.486z" fill="#9aaab4"/><path d="M35 1c0 4.966-2.56 8.581-4.562 10.65.899 1.533.705 3.53-.61 4.844l-1.099 1.099c.352 1.332.022 2.806-1.022 3.85l-4.949 4.95a2.001 2.001 0 0 1-2.829 2.829l-2.826-2.826-.003-.003-4.243-4.243-2.828-2.828a2 2 0 1 1 2.828-2.828l4.951-4.95c1.044-1.044 2.518-1.373 3.849-1.022l1.101-1.1a3.99 3.99 0 0 1 4.857-.602C29.099 7.274 31 4.596 31 1h4z" fill="#292f33"/></g></svg>