<svg xmlns="http://www.w3.org/2000/svg" viewBox="0 0 47.5 47.5"><defs><clipPath id="a"><path d="M0 38h38V0H0v38z"/></clipPath></defs><g clip-path="url(#a)" transform="matrix(1.25 0 0 -1.25 0 47.5)"><path d="M37 5a4 4 0 0 0-4-4H5a4 4 0 0 0-4 4v28a4 4 0 0 0 4 4h28a4 4 0 0 0 4-4V5z" fill="#3b88c3"/><path d="M13.953 21.283c.549 1.394 1.234 2.86 2.175 4.142C14.95 26.935 13.35 28 11 28H8v-4h3c1.307 0 2.119-.896 2.953-2.717M20.48 15.86c-.479-1.315-1.059-2.778-1.852-4.133C19.718 10.681 21.118 10 23 10h3v4h-3c-1.083 0-1.823.62-2.52 1.86" fill="#fff"/><path d="M11 10H8v4h3c1.884 0 2.739 1.816 4.117 5.673C16.441 23.383 18.09 28 23 28h3v-4h-3c-1.885 0-2.739-1.817-4.117-5.673C17.559 14.617 15.91 10 11 10" fill="#fff"/><path d="M31.2 26L24 32V20l7.2 6zM31.2 12L24 18V6l7.2 6z" fill="#fff"/></g></svg>