<svg xmlns="http://www.w3.org/2000/svg" viewBox="0 0 47.5 47.5"><defs><clipPath id="a"><path d="M0 38h38V0H0v38z"/></clipPath></defs><g clip-path="url(#a)" transform="matrix(1.25 0 0 -1.25 0 47.5)"><path d="M37 5a4 4 0 0 0-4-4H5a4 4 0 0 0-4 4v28a4 4 0 0 0 4 4h28a4 4 0 0 0 4-4V5z" fill="#3b88c3"/><path d="M23.242 14.758l2.83-2.83c-3.906-3.904-10.238-3.903-14.143.002a9.972 9.972 0 0 0-2.855 8.225l-4.037-.367C4.822 15.947 6.165 12.035 9.1 9.1c5.467-5.467 14.332-5.468 19.8 0l2.827-2.828.85 9.334-9.335-.85zM28.9 28.9c-5.469 5.467-14.332 5.467-19.8 0l-2.828 2.828-.849-9.334 9.334.849-2.829 2.828c3.906 3.906 10.237 3.906 14.142 0a9.97 9.97 0 0 0 2.855-8.225l4.036.366c.216 3.84-1.127 7.753-4.062 10.688" fill="#fff"/></g></svg>