<svg xmlns="http://www.w3.org/2000/svg" viewBox="0 0 47.5 47.5"><defs><clipPath id="a"><path d="M0 38h38V0H0v38z"/></clipPath></defs><g clip-path="url(#a)" transform="matrix(1.25 0 0 -1.25 0 47.5)"><path d="M37 5a4 4 0 0 0-4-4H5a4 4 0 0 0-4 4v28a4 4 0 0 0 4 4h28a4 4 0 0 0 4-4V5z" fill="#3b88c3"/><path d="M31.174 22.977l-3.301-2.75A6 6 0 0 0 22 13h-1.058A9.18 9.18 0 0 0 21 12c0-1.054-.19-2.06-.523-3H22c5.523 0 10 4.477 10 10a9.965 9.965 0 0 1-.826 3.977M31.2 27L24 33v-4h-8c-5.523 0-10-4.477-10-10 0-.099.012-.194.014-.292a8.958 8.958 0 0 0 4.273 2.125A6 6 0 0 0 16 25h8v-4l7.2 6zM18 12a6 6 0 0 1-12 0 6 6 0 0 1 12 0" fill="#fff"/><path d="M11.201 13.884h-.708c-.576 0-.815.42-.815.828 0 .419.3.827.815.827h1.703c.516 0 .804-.371.804-.851V8.936c0-.6-.384-.936-.9-.936-.515 0-.899.336-.899.936v4.948z" fill="#3b88c3"/></g></svg>