<svg xmlns="http://www.w3.org/2000/svg" viewBox="0 0 47.5 47.5"><defs><clipPath id="a"><path d="M0 38h38V0H0v38z"/></clipPath></defs><g clip-path="url(#a)" transform="matrix(1.25 0 0 -1.25 0 47.5)"><path d="M21 31a2 2 0 0 0-4 0v4a2 2 0 0 0 4 0v-4zM21 3a2 2 0 0 0-4 0v4a2 2 0 0 0 4 0V3zM7 21a2 2 0 0 0 0-4H3a2 2 0 0 0 0 4h4zM35 21a2 2 0 0 0 0-4h-4a2 2 0 0 0 0 4h4zM9.1 11.929A2 2 0 0 0 11.93 9.1L9.1 6.27A2 2 0 1 0 6.273 9.1L9.1 11.93zM28.9 31.727a1.999 1.999 0 1 0 2.827-2.828L28.9 26.072a2 2 0 0 0-2.828 2.828l2.828 2.828zM26.071 9.1A2 2 0 0 0 28.9 11.93L31.73 9.1A2 2 0 1 0 28.9 6.273L26.07 9.1zM19 14a5 5 0 1 0 0 10 5 5 0 0 0 0-10m0 14a9 9 0 1 1 0-18 9 9 0 0 1 0 18M6.272 28.9a1.999 1.999 0 1 0 2.829 2.827l2.827-2.828A2 2 0 0 0 9.1 26.071L6.272 28.9z" fill="#ffac33"/></g></svg>