<svg xmlns="http://www.w3.org/2000/svg" viewBox="0 0 47.5 47.5"><defs><clipPath id="a"><path d="M0 38h38V0H0v38z"/></clipPath></defs><g clip-path="url(#a)" transform="matrix(1.25 0 0 -1.25 0 47.5)"><path d="M14 33C8.477 33 4 28.521 4 23V13h4v10a6 6 0 0 0 12 0V13h4v10c0 5.522-4.477 10-10 10" fill="#bcbec0"/><path d="M26 5a4 4 0 0 0-4-4H6a4 4 0 0 0-4 4v10a4 4 0 0 0 4 4h16a4 4 0 0 0 4-4V5z" fill="#ffac33"/><path d="M27 31A2 2 0 1 0 27.001 35 2 2 0 0 0 27 30.999m0 6a9 9 0 0 1-9-9 9 9 0 0 1 9-9 9 9 0 0 1 9 9 9 9 0 0 1-9 9" fill="#c1694f"/><path d="M30 15v7a2 2 0 0 1-2 2 1.99 1.99 0 0 1-1.735-1.024A2.491 2.491 0 0 1 24 20.5v-17a2.5 2.5 0 0 1 4.95-.49c.018-.001.032-.01.05-.01a1 1 0 0 1 1 1v1a1 1 0 0 1-1 1v1a1 1 0 0 1 1 1v2a1 1 0 0 1-1 1v2.277c.596.347 1 .985 1 1.723" fill="#c1694f"/></g></svg>