<svg xmlns="http://www.w3.org/2000/svg" viewBox="0 0 47.5 47.5"><defs><clipPath id="a"><path d="M0 38h38V0H0v38z"/></clipPath></defs><g clip-path="url(#a)" transform="matrix(1.25 0 0 -1.25 0 47.5)"><path d="M31.883 28.39a2.45 2.45 0 0 0-3.464 3.465 2.45 2.45 0 0 0 3.464-3.464m1.73 5.195c-4.302 4.305-11.281 4.305-15.585 0-3.391-3.391-4.098-8.44-2.144-12.535l-3.916-3.915a2.442 2.442 0 0 1-.626-2.36l-1.973-1.971a1.219 1.219 0 0 1-1.731 0l-1.732-1.732a1.225 1.225 0 0 1 0-1.732l-.866-.864a1.224 1.224 0 0 1-1.731 0l-.866-.867a1.225 1.225 0 0 1 0-1.732c.015-.015.036-.02.05-.033a3.062 3.062 0 0 1 4.711-3.863L21.08 15.856C25.176 13.9 30.223 14.609 33.614 18c4.303 4.303 4.303 11.282 0 15.585" fill="#c1694f"/></g></svg>