<svg xmlns="http://www.w3.org/2000/svg" viewBox="0 0 47.5 47.5"><defs><clipPath id="a"><path d="M0 38h38V0H0v38z"/></clipPath></defs><g clip-path="url(#a)" transform="matrix(1.25 0 0 -1.25 0 47.5)"><path d="M36.31 30.348l-10.14 6.39c-.905.568-1.645.18-1.645-.866V34H3a2 2 0 0 1-2-2v-6a2 2 0 0 1 2-2h21.526V22.1c0-1.046.722-1.412 1.607-.81l10.215 6.931c.885.6.867 1.557-.037 2.127M7.303 9.737c0-.537-.357-1.018-.92-1.018-.564 0-1.003.413-1.827.413-.59 0-1.126-.317-1.126-.893 0-1.414 4.587-.509 4.587-4.052C8.017 2.223 6.397 1 4.501 1c-1.058 0-3.338.248-3.338 1.54 0 .534.357.974.92.974.646 0 1.415-.536 2.308-.536.907 0 1.401.51 1.401 1.182 0 1.62-4.588.644-4.588 3.832 0 1.923 1.58 3.118 3.407 3.118.77 0 2.692-.288 2.692-1.373M15.823 6.056c0 1.66-.866 3.159-2.583 3.159-1.716 0-2.582-1.498-2.582-3.16 0-1.675.838-3.158 2.582-3.158 1.745 0 2.583 1.483 2.583 3.159m-7.307 0c0 2.855 1.922 5.055 4.724 5.055 2.761 0 4.726-2.268 4.726-5.055C17.966 3.212 16.056 1 13.24 1c-2.788 0-4.724 2.212-4.724 5.056M25.744 6.056c0 1.66-.864 3.159-2.58 3.159-1.719 0-2.583-1.498-2.583-3.16 0-1.675.838-3.158 2.582-3.158 1.743 0 2.581 1.483 2.581 3.159m-7.306 0c0 2.855 1.923 5.055 4.725 5.055 2.76 0 4.725-2.268 4.725-5.055 0-2.844-1.91-5.056-4.725-5.056-2.789 0-4.725 2.212-4.725 5.056M28.662 9.956c0 .687.44 1.072 1.03 1.072.261 0 .687-.206.866-.454l4.353-5.809h.028v5.191c0 .687.44 1.072 1.032 1.072.588 0 1.03-.385 1.03-1.072V2.154c0-.687-.442-1.072-1.03-1.072-.263 0-.675.206-.867.454L30.75 7.277h-.027V2.154c0-.687-.44-1.072-1.03-1.072-.592 0-1.03.385-1.03 1.072v7.802z" fill="#67757f"/></g></svg>