<svg xmlns="http://www.w3.org/2000/svg" viewBox="0 0 47.5 47.5"><defs><clipPath id="a"><path d="M0 38h38V0H0v38z"/></clipPath></defs><g clip-path="url(#a)" transform="matrix(1.25 0 0 -1.25 0 47.5)"><path d="M35 34H13.475v1.872c0 1.045-.741 1.434-1.645.865L1.69 30.348c-.905-.57-.922-1.527-.038-2.128l10.216-6.93c.883-.603 1.607-.236 1.607.81V24H35a2 2 0 0 1 2 2v6a2 2 0 0 1-2 2M1.088 14.085c0 1.03.515 1.791 1.606 1.791h5.11c.988 0 1.461-.7 1.461-1.421 0-.7-.494-1.421-1.462-1.421H4.178v-3.008h3.378c1.01 0 1.503-.699 1.503-1.42 0-.7-.515-1.42-1.503-1.42H4.178V4.055h3.81c.99 0 1.463-.701 1.463-1.421 0-.701-.495-1.422-1.463-1.422H2.674c-.906 0-1.586.617-1.586 1.544v11.329zM10.507 14.394c0 1.029.659 1.606 1.544 1.606.392 0 1.03-.31 1.298-.68l6.529-8.711h.04v7.785c0 1.029.66 1.606 1.546 1.606s1.545-.577 1.545-1.606v-11.7c0-1.03-.66-1.606-1.545-1.606-.391 0-1.01.309-1.297.68l-6.53 8.609h-.041V2.695c0-1.03-.66-1.607-1.545-1.607-.885 0-1.544.577-1.544 1.607v11.699zM27.836 4.055h2.08c2.656 0 3.872 1.957 3.872 4.429 0 2.636-1.235 4.55-4.078 4.55h-1.874v-8.98zm-3.09 10.235c0 .949.659 1.586 1.586 1.586h3.419c4.612 0 7.249-2.965 7.249-7.537 0-4.326-2.801-7.127-7.043-7.127h-3.584c-.68 0-1.627.37-1.627 1.544V14.29z" fill="#67757f"/></g></svg>