<svg xmlns="http://www.w3.org/2000/svg" viewBox="0 0 47.5 47.5"><defs><clipPath id="a"><path d="M0 38h38V0H0v38z"/></clipPath><clipPath id="b"><path d="M0 38h38V0H0v38z"/></clipPath></defs><g clip-path="url(#a)" transform="matrix(1.25 0 0 -1.25 0 47.5)"><path d="M36 19c0 9.389-7.611 17-17 17-9.388 0-16.999-7.611-16.999-17S9.612 2 19 2c9.389 0 17 7.611 17 17"/><path d="M26.334 23.25c0-8.067 3.666-7.225 3.666-10.89 0 0 0-1.36-1.468-1.36H9.466C8 11 8 12.36 8 12.36c0 3.665 3.667 2.879 3.667 10.945 0 4.049 3.283 7.306 7.333 7.306 4.05 0 7.334-3.311 7.334-7.361" fill="#fff"/><path d="M21.201 30.584a2.202 2.202 0 0 1-4.4 0 2.2 2.2 0 1 1 4.4 0M19 6.067c1.621 0 2.933.933 2.933 2.933h-5.867c0-2 1.314-2.933 2.934-2.933" fill="#fff"/></g><g clip-path="url(#b)" transform="matrix(1.25 0 0 -1.25 0 47.5)"><path d="M19 35c-8.836 0-16-7.163-16-16S10.164 3 19 3c8.837 0 16 7.163 16 16s-7.163 16-16 16m18-16c0-9.941-8.059-18-18-18C9.06 1 1 9.059 1 19s8.06 18 18 18c9.941 0 18-8.059 18-18" fill="#dd2e44"/><path d="M29.616 5.616l-24.5 24.5 1.768 1.768 24.5-24.5-1.768-1.768z" fill="#dd2e44"/></g></svg>