<svg xmlns="http://www.w3.org/2000/svg" viewBox="0 0 47.5 47.5"><defs><clipPath id="a"><path d="M0 38h38V0H0v38z"/></clipPath></defs><g clip-path="url(#a)" transform="matrix(1.25 0 0 -1.25 0 47.5)"><path d="M37 5a4 4 0 0 0-4-4H5a4 4 0 0 0-4 4v28a4 4 0 0 0 4 4h28a4 4 0 0 0 4-4V5z" fill="#3b88c3"/><path d="M8.213 26.025H6.255C4.663 26.025 4 27.187 4 28.314c0 1.16.83 2.288 2.255 2.288h4.71c1.426 0 2.223-1.028 2.223-2.354V9.373c0-1.658-1.06-2.586-2.488-2.586-1.425 0-2.487.928-2.487 2.586v16.652zM28.586 18.794c0 2.52-.232 7.696-3.616 7.696-3.383 0-3.615-5.175-3.615-7.696 0-2.355.232-7.695 3.615-7.695 3.384 0 3.616 5.34 3.616 7.695m-12.406 0C16.18 24.2 18.27 31 24.97 31c6.7 0 8.79-6.8 8.79-12.206S31.67 6.587 24.97 6.587c-6.7 0-8.79 6.8-8.79 12.207" fill="#f5f8fa"/></g></svg>