<svg xmlns="http://www.w3.org/2000/svg" viewBox="0 0 47.5 47.5"><defs><clipPath id="a"><path d="M0 38h38V0H0v38z"/></clipPath></defs><g clip-path="url(#a)" transform="matrix(1.25 0 0 -1.25 0 47.5)"><path d="M1.652 28.22c-.884.602-.868 1.559.038 2.128l10.14 6.39c.904.569 1.644.18 1.644-.866V22.1c0-1.047-.723-1.413-1.607-.811L1.652 28.22z" fill="#67757f"/><path d="M37 26a2 2 0 0 0-2-2H11a2 2 0 0 0-2 2v6a2 2 0 0 0 2 2h24a2 2 0 0 0 2-2v-6zM3.297 3.165h1.788c.818 0 1.424.47 1.424 1.318 0 .712-.545 1.198-1.606 1.198H3.297V3.165zm0 4.516H4.48c.742 0 1.227.439 1.227 1.196 0 .713-.56 1.076-1.227 1.076H3.297V7.681zm-2.273 3.135c0 .728.5 1.137 1.197 1.137h2.91c1.575 0 2.848-1.06 2.848-2.667 0-1.06-.439-1.772-1.409-2.226v-.031c1.288-.182 2.303-1.258 2.303-2.576 0-2.137-1.424-3.288-3.515-3.288H2.236c-.697 0-1.212.439-1.212 1.151v8.5zM12.682 5.377h2.879l-1.41 4.395h-.03l-1.44-4.395zm-.168 5.501c.258.696.85 1.257 1.62 1.257.806 0 1.366-.53 1.622-1.257l2.97-8.243c.093-.242.122-.454.122-.561 0-.591-.484-1-1.045-1-.637 0-.955.333-1.107.788l-.453 1.424H12.03l-.455-1.409c-.151-.47-.47-.803-1.09-.803-.607 0-1.122.454-1.122 1.061 0 .242.076.424.107.5l3.044 8.243zM24.06 12.135c1.106 0 3.258-.363 3.258-1.696 0-.546-.38-1.016-.94-1.016-.621 0-1.046.53-2.318.53-1.88 0-2.85-1.59-2.85-3.44 0-1.802.987-3.348 2.85-3.348 1.272 0 1.788.637 2.409.637.682 0 1-.682 1-1.03 0-1.455-2.288-1.788-3.41-1.788-3.075 0-5.211 2.439-5.211 5.576 0 3.15 2.12 5.575 5.212 5.575M28.531 10.923c0 .62.455 1.12 1.137 1.12.651 0 1.136-.423 1.136-1.12V7.65l3.727 3.969c.167.182.455.424.88.424.575 0 1.12-.44 1.12-1.091 0-.393-.242-.712-.742-1.212l-2.863-2.818 3.5-3.651c.363-.365.636-.698.636-1.153 0-.712-.56-1.045-1.182-1.045-.44 0-.727.258-1.152.712l-3.924 4.243V2.165c0-.591-.455-1.091-1.136-1.091-.652 0-1.137.424-1.137 1.09v8.759z" fill="#67757f"/></g></svg>