<svg xmlns="http://www.w3.org/2000/svg" viewBox="0 0 47.5 47.5"><defs><clipPath id="a"><path d="M0 38h38V0H0v38z"/></clipPath></defs><g clip-path="url(#a)" transform="matrix(1.25 0 0 -1.25 0 47.5)"><path d="M31 5h-2c0 3.314-2.63 6-5.875 6-3.244 0-5.875-2.686-5.875-6H11a2 2 0 0 1-4 0 2 2 0 0 1 0-4h24a2 2 0 0 1 0 4" fill="#f18f26"/><path d="M21 27v-4a7 7 0 1 0 0-14h-8.485C14.532 6.557 17.584 5 21 5c6.075 0 11 4.925 11 11s-4.925 11-11 11M29.041 27.929a2 2 0 0 0-2.828 2.828l2.121 2.12a2.002 2.002 0 0 0 2.83.002 2.003 2.003 0 0 0-.002-2.83l-2.121-2.12z" fill="#f18f26"/><path d="M34.7 29.343a2.002 2.002 0 0 0-2.83 0l-4.243 4.243a2 2 0 1 0 2.828 2.829l4.244-4.243a2 2 0 0 0 0-2.83M17.727 13.787a1.002 1.002 0 0 0-1.414 0L12.07 18.03a1.004 1.004 0 0 0 0 1.414l12.021 12.021a1.004 1.004 0 0 0 1.414 0l4.243-4.243a1.003 1.003 0 0 0 0-1.414l-12.02-12.02z" fill="#fdcb58"/><path d="M19.142 15.201l-5.657 5.657 1.415 1.414 5.657-5.656-1.415-1.415z" fill="#f18f26"/><path d="M17.414 6.586a2 2 0 0 0-2.828 0l-9.9 9.9a2 2 0 0 0 2.83 2.829l9.898-9.901a2 2 0 0 0 0-2.828M9.95 7.465A.999.999 0 1 0 8.536 6.05l-4.243 4.242a1 1 0 1 0 1.415 1.414L9.95 7.465z" fill="#67757f"/></g></svg>