<svg xmlns="http://www.w3.org/2000/svg" viewBox="0 0 47.5 47.5"><defs><clipPath id="a"><path d="M0 38h38V0H0v38z"/></clipPath></defs><g clip-path="url(#a)" transform="matrix(1.25 0 0 -1.25 0 47.5)"><path d="M24 20l1 1s1 1 2 0l2-2s1-1 0-2l-1-1-4 4z" fill="#66757f"/><path d="M35.879 9.121a3.01 3.01 0 0 0 0-4.242L33.12 2.121a3.01 3.01 0 0 0-4.242 0L10.12 20.88a3.01 3.01 0 0 0 0 4.242l2.758 2.758a3.01 3.01 0 0 0 4.242 0L35.879 9.121z" fill="#8899a6"/><path d="M21.879 26.121a3.01 3.01 0 0 0 0-4.242l-5.758-5.758a3.01 3.01 0 0 0-4.242 0l-4.88 4.88s-1 1 0 2l8 8c1 1 2 0 2 0l4.88-4.88z" fill="#66757f"/><path d="M8 20l10 10 2-2-10-10-2 2z" fill="#8899a6"/><path d="M12.001 31a1 1 0 0 0-.896.553l-2 4a1.001 1.001 0 0 0 1.79.894l2-4A1.001 1.001 0 0 0 12.001 31M5.999 25c-.15 0-.303.034-.446.105l-4 2a1.001 1.001 0 0 0 .894 1.79l4-2A1.001 1.001 0 0 0 5.999 25M9 28a.997.997 0 0 0-.707.293l-4 4a.999.999 0 1 0 1.414 1.414l4-4A.999.999 0 0 0 9 28" fill="#ffcc4d"/></g></svg>