<svg xmlns="http://www.w3.org/2000/svg" viewBox="0 0 47.5 47.5"><defs><clipPath id="a"><path d="M0 38h38V0H0v38z"/></clipPath></defs><g clip-path="url(#a)" transform="matrix(1.25 0 0 -1.25 0 47.5)"><path d="M37 5a4 4 0 0 0-4-4H5a4 4 0 0 0-4 4v28a4 4 0 0 0 4 4h28a4 4 0 0 0 4-4V5z" fill="#fcab40"/><path d="M7.524 26.13L19.009 6.086l12.365 20.037-23.85.007zM19 2.843c-1.011 0-1.928.588-2.516 1.615L4.81 24.832c-.602 1.05-.66 2.15-.16 3.013.474.817 1.364 1.285 2.442 1.285h24.816c1.09 0 1.979-.473 2.439-1.296.485-.87.396-1.962-.242-2.997L21.475 4.37c-.597-.969-1.5-1.526-2.475-1.526" fill="#f5f8fa"/><path d="M7.528 12.507l23.85-.007-12.37 20.044-11.48-20.037zM31.91 9.5H7.093c-1.079 0-1.968.469-2.44 1.285-.502.866-.445 1.963.157 3.013l11.674 20.374c.588 1.026 1.505 1.614 2.515 1.614.976 0 1.88-.556 2.476-1.527l12.63-20.466c.64-1.035.728-2.127.242-2.996C33.887 9.973 33 9.5 31.91 9.5" fill="#f5f8fa"/><path d="M23 19a4 4 0 1 0-8 0 4 4 0 0 0 8 0" fill="#f5f8fa"/></g></svg>