<svg xmlns="http://www.w3.org/2000/svg" viewBox="0 0 47.5 47.5"><defs><clipPath id="a"><path d="M0 38h38V0H0v38z"/></clipPath></defs><g clip-path="url(#a)" transform="matrix(1.25 0 0 -1.25 0 47.5)"><path d="M29.105 16.917a7.99 7.99 0 0 1-1.81-.213L16.913 27.087c.135.582.214 1.186.214 1.809a8.021 8.021 0 0 1-8.021 8.021C8.202 36.917 7 36 8 35l3-3s1-2-1-4-4-1-4-1l-3 3c-1 1-1.917-.196-1.917-1.104a8.02 8.02 0 0 1 8.02-8.021c.624 0 1.227.078 1.809.212l10.383-10.383a8.037 8.037 0 0 1-.212-1.808 8.02 8.02 0 0 1 8.02-8.021c.903 0 2.105.917 1.105 1.917l-3 3s-1 2 1 4 4 1 4 1l3-3c1-1 1.916.196 1.916 1.104a8.021 8.021 0 0 1-8.02 8.021" fill="#8899a6"/></g></svg>