<svg xmlns="http://www.w3.org/2000/svg" viewBox="0 0 47.5 47.5"><defs><clipPath id="a"><path d="M0 38h38V0H0v38z"/></clipPath></defs><g clip-path="url(#a)" transform="matrix(1.25 0 0 -1.25 0 47.5)"><path d="M37 5a4 4 0 0 0-4-4H5a4 4 0 0 0-4 4v28a4 4 0 0 0 4 4h28a4 4 0 0 0 4-4V5z" fill="#3b88c3"/><path d="M10.613 30.904H9.492c-.912 0-1.292.665-1.292 1.311 0 .665.475 1.311 1.292 1.311h2.698c.817 0 1.273-.589 1.273-1.349v-10.81c0-.949-.608-1.48-1.425-1.48-.817 0-1.425.531-1.425 1.48v9.537zM15.742 14.277c0-1.196-.513-2.24-1.558-2.906 1.368-.627 2.318-1.9 2.318-3.4 0-2.28-2.09-4.199-4.788-4.199-2.811 0-4.56 2.07-4.56 3.571 0 .741.78 1.273 1.464 1.273 1.29 0 .988-2.223 3.134-2.223.988 0 1.786.76 1.786 1.767 0 2.66-3.23.703-3.23 2.944 0 1.995 2.698.647 2.698 2.755 0 .722-.513 1.273-1.368 1.273-1.804 0-1.557-1.862-2.85-1.862-.778 0-1.234.703-1.234 1.406 0 1.482 2.033 3.078 4.142 3.078 2.735 0 4.046-1.995 4.046-3.477M29.115 22.508c.836 0 1.48-.38 1.48-1.254S29.951 20 29.228 20h-6.345c-.835 0-1.48.38-1.48 1.254 0 .399.245.74.436.969 1.577 1.88 3.286 3.59 4.73 5.68.342.494.665 1.083.665 1.767 0 .778-.59 1.463-1.368 1.463-2.185 0-1.14-3.078-2.964-3.078-.912 0-1.387.646-1.387 1.387 0 2.394 2.128 4.312 4.465 4.312 2.336 0 4.217-1.538 4.217-3.951 0-2.641-2.944-5.262-4.559-7.295h3.477zM26.759 14.79h-.038l-2.565-5.3h2.603v5.3zM22.18 6.982c-.931 0-1.33.627-1.33 1.121 0 .418.152.646.266.836l4.255 7.713c.418.76.95 1.102 1.939 1.102 1.1 0 2.183-.703 2.183-2.432V9.49h.324c.74 0 1.33-.494 1.33-1.254 0-.759-.59-1.254-1.33-1.254h-.324V5.368c0-1.007-.398-1.482-1.367-1.482-.97 0-1.368.475-1.368 1.482v1.614H22.18z" fill="#fff"/></g></svg>