<svg xmlns="http://www.w3.org/2000/svg" viewBox="0 0 47.5 47.5"><defs><clipPath id="a"><path d="M0 38h38V0H0v38z"/></clipPath></defs><g clip-path="url(#a)" transform="matrix(1.25 0 0 -1.25 0 47.5)"><path d="M34 21.938c0-8.318-6.744-15.063-15.063-15.063-8.318 0-15.062 6.744-15.062 15.063C3.875 30.255 10.619 37 18.937 37 27.256 37 34 30.256 34 21.938" fill="#8ccaf7"/><path d="M31 5a2 2 0 0 0-2-2H9a2 2 0 0 0-2 2v4a2 2 0 0 0 2 2h20a2 2 0 0 0 2-2V5z" fill="#bf6952"/><path d="M28 24a4 4 0 1 0-8 0 4 4 0 0 0 8 0M19 18a3 3 0 1 0-6 0 3 3 0 0 0 6 0M19 31a2 2 0 1 0-3.999-.001A2 2 0 0 0 19 31" fill="#5dadec"/></g></svg>