<svg xmlns="http://www.w3.org/2000/svg" viewBox="0 0 47.5 47.5"><defs><clipPath id="a"><path d="M0 38h38V0H0v38z"/></clipPath></defs><g clip-path="url(#a)" transform="matrix(1.25 0 0 -1.25 0 47.5)"><path d="M15.976 26.929a2 2 0 0 0 0-2.828l-2.828-2.828a2 2 0 0 0-2.83-.001l-8.484 8.486a2 2 0 0 0 0 2.828l2.829 2.828a1.999 1.999 0 0 0 2.828 0l8.485-8.485z" fill="#292f33"/><path d="M22.512 4.886C29.582.643 36 2 36 2s1 0 .654 1c0 0-2.154 5.5-17.654 21-1 1-2.243.882-3.024.1L9.586 18a2 2 0 0 1 0-2.828L22.512 4.886z" fill="#ccd6dd"/></g></svg>