<svg xmlns="http://www.w3.org/2000/svg" viewBox="0 0 47.5 47.5"><defs><clipPath id="a"><path d="M0 38h38V0H0v38z"/></clipPath></defs><g clip-path="url(#a)" transform="matrix(1.25 0 0 -1.25 0 47.5)"><path d="M21 17a3 3 0 1 0-6 0 3 3 0 0 0 6 0" fill="#9aaab4"/><path d="M20.235 19.941a1.003 1.003 0 0 0-1.353-.412L6.528 26.117c-.485.26-.67.867-.41 1.353l2.822 5.295c.26.485.868.67 1.353.411l12.353-6.588c.485-.258.671-.867.412-1.353l-2.823-5.294zM32.177 14.707a1.004 1.004 0 0 0-1.354-.412l-9.705 5.176c-.485.258-.67.868-.412 1.353l1.882 3.529c.259.485.868.67 1.354.412l9.705-5.176c.485-.259.67-.868.412-1.354l-1.882-3.528z" fill="#da2f47"/><path d="M22 19l-1.765.941 2.824 5.294 1.764-.94L22 19z" fill="#bb1a34"/><path d="M33.47 12.883l-3.528 1.882 2.823 5.295 3.529-1.883-2.823-5.294z" fill="#9d0522"/><path d="M9.294 29.176l1.882 3.53-.88.47h-.002L5.882 35.53a1.002 1.002 0 0 1-1.353-.412l-2.823-5.295a1.003 1.003 0 0 1 .411-1.353l3.53-1.88 1.765-.943.47.882v.001l1.412 2.647zM24 12a2 2 0 0 0-2-2h-8a2 2 0 0 0 0 4h8a2 2 0 0 0 2-2" fill="#292f33"/><path d="M10.467 1l3.344 7.152a2 2 0 1 1-3.623 1.694L6.051 1h4.416zM25.532 1h4.416l-4.137 8.846a2 2 0 0 1-3.623-1.694L25.532 1zM20 1v8a2 2 0 0 1-4 0V1h4z" fill="#9aaab4"/></g></svg>