<svg xmlns="http://www.w3.org/2000/svg" viewBox="0 0 47.5 47.5"><defs><clipPath id="a"><path d="M0 38h38V0H0v38z"/></clipPath></defs><g clip-path="url(#a)" transform="matrix(1.25 0 0 -1.25 0 47.5)"><path d="M37 18.938C37 9.031 28.969 1 19.063 1 9.156 1 1.125 9.031 1.125 18.938c0 9.907 8.031 17.937 17.938 17.937 9.906 0 17.937-8.03 17.937-17.938" fill="#9aaab4"/><path d="M33 19c0-7.732-6.268-14-14-14S5 11.268 5 19s6.268 14 14 14 14-6.268 14-14" fill="#e1e8ed"/><path d="M19 6a1 1 0 0 0-1 1v12a1 1 0 0 0 2 0V7a1 1 0 0 0-1-1" fill="#67757f"/><path d="M18.999 18a1.001 1.001 0 0 0-.894 1.447l4 8a1.001 1.001 0 0 0 1.79-.894l-4-8a1 1 0 0 0-.896-.553" fill="#67757f"/></g></svg>