<svg xmlns="http://www.w3.org/2000/svg" viewBox="0 0 47.5 47.5"><defs><clipPath id="a"><path d="M0 38h38V0H0v38z"/></clipPath></defs><g clip-path="url(#a)" transform="matrix(1.25 0 0 -1.25 0 47.5)"><path d="M37 19c0-9.94-8.059-18-18-18S1 9.06 1 19c0 9.941 8.059 18 18 18s18-8.059 18-18" fill="#99aab5"/><path d="M33 19c0-7.731-6.268-14-14-14S5 11.269 5 19c0 7.732 6.268 14 14 14s14-6.268 14-14" fill="#e1e8ed"/><path d="M20 19a1 1 0 1 0-2 0v11a1 1 0 0 0 2 0V19z" fill="#66757f"/><path d="M24 10.339a1.002 1.002 0 0 0-1.367.366l-4.5 7.795a.999.999 0 0 0 .367 1.365.998.998 0 0 0 1.365-.365l4.5-7.795A1 1 0 0 0 24 10.339" fill="#66757f"/></g></svg>