<svg xmlns="http://www.w3.org/2000/svg" viewBox="0 0 47.5 47.5"><defs><clipPath id="a"><path d="M0 38h38V0H0v38z"/></clipPath></defs><g clip-path="url(#a)" transform="matrix(1.25 0 0 -1.25 0 47.5)"><path d="M9 10S7 6 7 4s4-3 12-3 12 1 12 3-2 6-2 6H9zM10 31c-3 0-3-1-4-10-.994-8.945 0-10 4-10 2 0 2 20 0 20M28 31c3 0 3-1 4-10 .994-8.945 0-10-4-10-2 0-2 20 0 20" fill="#66757f"/><path d="M9 34s1 3 10 3 10-3 10-3 1-6 1-14-1-14-1-14-1-2-10-2S9 6 9 6 8 9 8 20s1 14 1 14" fill="#ccd6dd"/><path d="M29 29c0 1-3 4-10 4S9 30 9 29c0-.807 4.548-1.612 6.311-1.894C15.999 24.452 16 19 16 19c.805 3.218.315 7.079.093 8.467.202.591.848 1.533 2.907 1.533 3 0 3-2 3-2h.002c-.234-1.657-.565-5.089.162-8 0 0 .002 5.491.697 8.134C24.727 27.438 29 28.218 29 29" fill="#66757f"/><path d="M15 17c0 1 2 3 4 3s4-2 4-3-1-1-4-1-4 0-4 1M13 13s2 2 6 2 6-2 6-2-2 1-6 1-6-1-6-1M13 11c0 1 2 2 6 2s6-1 6-2-1-1-6-1-6 0-6 1" fill="#66757f"/></g></svg>