<svg xmlns="http://www.w3.org/2000/svg" viewBox="0 0 47.5 47.5"><defs><clipPath id="a"><path d="M0 38h38V0H0v38z"/></clipPath><clipPath id="b"><path d="M18 30l-1-10h4l-1 10h-2z"/></clipPath><clipPath id="c"><path d="M0 38h38V0H0v38z"/></clipPath></defs><g clip-path="url(#a)" transform="matrix(1.25 0 0 -1.25 0 47.5)"><path d="M37 5s0-4-4-4H5S1 1 1 5v28c0 4 4 4 4 4h28c4 0 4-4 4-4V5z" fill="#88c9f9"/><path d="M19 32h-1v-3h2v3h-1z" fill="#fff"/><path d="M20 34s0 1-1 1-1-1-1-1v-2h2v2zM18 30l-1-10h4l-1 10h-2z" fill="#dd2e44"/></g><g clip-path="url(#b)" transform="matrix(1.25 0 0 -1.25 0 47.5)"><path d="M16 24h6v3h-6v-3z" fill="#fff"/></g><g clip-path="url(#c)" transform="matrix(1.25 0 0 -1.25 0 47.5)"><path d="M15 17h8v4h-8v-4z" fill="#fff"/><path d="M16 13h6v4h-6v-4z" fill="#dd2e44"/><path d="M16 17S16 6 6 1h3s7 3 9 16h-2zM22 17S22 6 32 1h-3s-7 3-9 16h2zM20 1h-2v13h2V1z" fill="#dd2e44"/><path d="M9 1s5 3 10 3 10-3 10-3v1.884S24 6 19 6 9 2.884 9 2.884V1z" fill="#dd2e44"/></g></svg>