<svg xmlns="http://www.w3.org/2000/svg" viewBox="0 0 47.5 47.5"><defs><clipPath id="a"><path d="M0 38h38V0H0v38z"/></clipPath><clipPath id="b"><path d="M5 37s-4 0-4-4V5c0-4 4-4 4-4h28c4 0 4 4 4 4v28s0 4-4 4H5z"/></clipPath></defs><g clip-path="url(#a)" transform="matrix(1.25 0 0 -1.25 0 47.5)"><path d="M37 5s0-4-4-4H5S1 1 1 5v28c0 4 4 4 4 4h28c4 0 4-4 4-4V5z" fill="#88c9f9"/></g><g clip-path="url(#b)" transform="matrix(1.25 0 0 -1.25 0 47.5)"><path d="M4.114 15h1.483C5.32 13.819 5 13 5 13s-.372.747-.886 2M37 27l-7.181-1.796a13.072 13.072 0 0 1-2.323 2.622L33 37h-2l-6.38-7.292c-1.162.56-2.418.949-3.741 1.141L19.999 37h-2l-.878-6.151a12.867 12.867 0 0 1-3.676-1.109L8 37H6l4.56-9.123a13.065 13.065 0 0 1-2.38-2.673L1 27v-2l5.819-2.494A12.952 12.952 0 0 1 5.999 18c0-.098-.011-.191-.015-.288l-2.748-.393c-.08.225-.157.444-.236.681-1 2.999-2 5-2 5L0-2l33 3s-.465 1.044 0 2c.179.368 1.447.658 1 2-.71 2.129-1.417 6.767-1.77 10H37v2l-4.992.713c-.004.1-.008.206-.008.287 0 1.587-.3 3.1-.818 4.506L37 25v2z" fill="#157569"/><path d="M8 19s.422 3.316 4 6c4 3 6 2 6 1s-3-1-6-3-4-4-4-4M30 19s-.423 3.316-4 6c-4 3-6 2-6 1s3-1 6-3 4-4 4-4M19 23c-6 0-8-4-8-4s2 2 4 2 2-2 2-2v-2c0-1 2-1 2-1s2 0 2 1v2s0 2 2 2 4-2 4-2-2 4-8 4" fill="#3fc9b9"/><path d="M24 17c-2 0-2 1-2 1s-.083-2.815-1-4h-4c-.918 1.185-1 4-1 4s0-1-2-1-4 1-4 1 0-9 2-10c1.265-.633 4 1 7 1s5.735-1.633 7-1c2 1 2 10 2 10s-2-1-4-1" fill="#3fc9b9"/><path d="M16 12h6s-1 1-3 1-3-1-3-1" fill="#157569"/><path d="M3 14s3-7 6-9 9.583-3 10.292-5C19.292 0 10 5 8 2 6.526-.211 6 3 6 4s0 4-2 1c-.785-1.177-2 4-1 9" fill="#3fc9b9"/></g></svg>