<svg xmlns="http://www.w3.org/2000/svg" viewBox="0 0 47.5 47.5"><defs><clipPath id="a"><path d="M0 38h38V0H0v38z"/></clipPath></defs><g clip-path="url(#a)" transform="matrix(1.25 0 0 -1.25 0 47.5)"><path d="M36 19c0-9.389-7.611-17-17-17C9.612 2 2 9.611 2 19c0 9.388 7.612 17 17 17 9.389 0 17-7.612 17-17" fill="#ffcc4d"/><path d="M15 20.5c0-1.934-1.119-3.5-2.5-3.5S10 18.566 10 20.5c0 1.933 1.119 3.5 2.5 3.5s2.5-1.567 2.5-3.5M29.457 19.203c-.059.135-1.499 3.297-4.457 3.297-2.957 0-4.397-3.162-4.457-3.297a.499.499 0 0 1 .144-.59.504.504 0 0 1 .611-.015c.012.01 1.262.902 3.702.902 2.426 0 3.674-.88 3.702-.9a.498.498 0 0 1 .755.603M6.999 24.542a1 1 0 0 0-.799 1.6c3.262 4.35 7.616 4.4 7.8 4.4a1 1 0 0 0 .004-2c-.155-.002-3.569-.086-6.204-3.6a1 1 0 0 0-.801-.4M30.001 22.416a.997.997 0 0 0-.801.4c-2.592 3.456-6.961 2.627-7.004 2.62a.998.998 0 1 0-.392 1.96c.23.047 5.657 1.072 8.996-3.38a1 1 0 0 0-.799-1.6M24.254 13.423a.514.514 0 0 1-.597-.06c-.01-.007-1.013-.863-4.657-.863-3.641 0-4.645.854-4.646.854a.501.501 0 0 1-.839-.475c.01-.044 1.145-4.38 5.485-4.38s5.474 4.336 5.485 4.38a.497.497 0 0 1-.231.544" fill="#664500"/></g></svg>