<svg xmlns="http://www.w3.org/2000/svg" viewBox="0 0 47.5 47.5"><defs><clipPath id="a"><path d="M0 38h38V0H0v38z"/></clipPath></defs><g clip-path="url(#a)" transform="matrix(1.25 0 0 -1.25 0 47.5)"><path d="M36 19c0-9.389-7.611-17-17-17C9.612 2 2 9.611 2 19c0 9.388 7.612 17 17 17 9.389 0 17-7.612 17-17" fill="#ffcc4d"/><path d="M19 15c-3.623 0-6.027.422-9 1-.679.131-2 0-2-2 0-4 4.595-9 11-9 6.404 0 11 5 11 9 0 2-1.321 2.132-2 2-2.973-.578-5.377-1-9-1" fill="#664500"/><path d="M10 14s3-1 9-1 9 1 9 1-2-4-9-4-9 4-9 4" fill="#fff"/><path d="M31.6 18.8c-.114.085-1.931 1.426-4.646 2.344.027.115.046.233.046.356 0 .369-.138.703-.36.964 1.804.52 3.335.536 3.362.536A1 1 0 0 1 30 25c-.22 0-5.451-.037-8.707-3.293A1 1 0 1 1 22 20c4.59 0 8.364-2.772 8.402-2.801a1.001 1.001 0 0 1 1.399.203A1 1 0 0 1 31.6 18.8M16.707 21.707C13.452 24.962 8.221 25 8 25a1 1 0 0 1-.001-2c.026 0 1.558-.016 3.36-.536A1.492 1.492 0 0 1 11 21.5c0-.123.019-.241.047-.356-2.716-.918-4.533-2.259-4.647-2.344a1 1 0 0 1 1.2-1.6c.037.028 3.787 2.8 8.4 2.8a1.002 1.002 0 0 1 .707 1.707" fill="#664500"/></g></svg>