<svg xmlns="http://www.w3.org/2000/svg" viewBox="0 0 47.5 47.5"><defs><clipPath id="a"><path d="M0 38h38V0H0v38z"/></clipPath></defs><g clip-path="url(#a)" transform="matrix(1.25 0 0 -1.25 0 47.5)"><path d="M36 19c0-9.389-7.611-17-17-17S2 9.611 2 19s7.611 17 17 17 17-7.611 17-17" fill="#ffcc4d"/><path d="M25.327 13.378a.5.5 0 0 1-.55.069l-4-2c-1.872-.935-6.728-.947-6.777-.947a.5.5 0 0 1-.25-.933h.001l.001-.001a.501.501 0 0 1 .24-.066H21c2.658 0 4.09 2.186 4.474 3.342a.5.5 0 0 1-.147.536M32.001 21a.997.997 0 0 0-.801.4c-2.64 3.521-6.061 3.599-6.206 3.6-.55.006-.994.456-.991 1.005A.997.997 0 0 0 25 27c.184 0 4.537-.05 7.8-4.4a1 1 0 0 0-.799-1.6M5.999 21a1 1 0 0 0-.799 1.6C8.462 26.95 12.816 27 13 27a1 1 0 0 0 .004-2c-.155-.002-3.568-.086-6.204-3.6a1 1 0 0 0-.801-.4M16.897 19.604c.023.052.059.096.073.154a1 1 0 0 1-.727 1.213c-.181.045-4.468 1.08-7.798-1.138a1.001 1.001 0 0 1 1.11-1.665c1.092.73 2.362.995 3.468 1.062-.009-.077-.023-.151-.023-.23a2 2 0 0 1 4 0c0 .212-.042.413-.103.604M28.896 19.605c.023.052.06.095.073.152a.998.998 0 0 1-.727 1.213c-.18.045-4.466 1.08-7.797-1.138a1 1 0 1 1 1.11-1.664c1.092.729 2.362.994 3.469 1.06-.01-.076-.023-.15-.023-.228a2 2 0 0 1 4 0c0 .212-.042.413-.104.605" fill="#664500"/></g></svg>