<svg xmlns="http://www.w3.org/2000/svg" viewBox="0 0 47.5 47.5"><defs><clipPath id="a"><path d="M0 38h38V0H0v38z"/></clipPath></defs><g clip-path="url(#a)" transform="matrix(1.25 0 0 -1.25 0 47.5)"><path d="M36 19c0-9.389-7.611-17-17-17S2 9.611 2 19s7.611 17 17 17 17-7.611 17-17" fill="#ffcc4d"/><path d="M2.24 25.982c.24-.239 1.437-.958 1.677-1.675.24-.717.72-4.784 2.158-5.98 1.484-1.234 7.077-.775 8.15-.24 2.396 1.194 2.69 4.53 3.114 6.22.24.957 1.677.957 1.677.957s1.44 0 1.678-.956c.424-1.69.72-5.027 3.115-6.22 1.073-.536 6.666-.995 8.152.238 1.435 1.197 1.915 5.264 2.155 5.982.238.717 1.437 1.435 1.677 1.674.241.24.241 1.196 0 1.436-.479.478-6.134.904-12.223.24-1.215-.134-1.677-.48-4.554-.48-2.875 0-3.339.346-4.553.478-6.087.666-11.744.24-12.223-.238-.239-.24-.239-1.197 0-1.436" fill="#292f33" fill-rule="evenodd"/><path d="M28.335 13.371a.501.501 0 0 1-.635.03c-.039-.03-3.922-2.9-8.7-2.9-4.766 0-8.662 2.87-8.7 2.9a.5.5 0 1 1-.729-.657C9.7 12.527 12.788 7.5 19 7.5s9.301 5.028 9.429 5.243a.499.499 0 0 1-.094.628" fill="#664500"/></g></svg>