<svg xmlns="http://www.w3.org/2000/svg" viewBox="0 0 47.5 47.5"><defs><clipPath id="a"><path d="M0 38h38V0H0v38z"/></clipPath></defs><g clip-path="url(#a)" transform="matrix(1.25 0 0 -1.25 0 47.5)"><path d="M36 19c0-9.389-7.611-17-17-17C9.612 2 2 9.611 2 19c0 9.388 7.612 17 17 17 9.389 0 17-7.612 17-17" fill="#ffcc4d"/><path d="M29.457 19.203c-.059.135-1.499 3.297-4.457 3.297-2.957 0-4.397-3.162-4.457-3.297a.499.499 0 0 1 .144-.59.504.504 0 0 1 .611-.015c.012.01 1.262.902 3.702.902 2.426 0 3.674-.88 3.702-.9a.498.498 0 0 1 .755.603M17.457 19.203c-.06.135-1.499 3.297-4.457 3.297-2.957 0-4.397-3.162-4.457-3.297a.499.499 0 0 1 .754-.605c.013.01 1.262.902 3.703.902 2.426 0 3.674-.88 3.702-.9a.498.498 0 0 1 .755.603M19 15c-3.623 0-6.027.422-9 1-.679.131-2 0-2-2 0-4 4.595-9 11-9 6.404 0 11 5 11 9 0 2-1.321 2.132-2 2-2.973-.578-5.377-1-9-1" fill="#664500"/><path d="M10 14s3-1 9-1 9 1 9 1-2-4-9-4-9 4-9 4" fill="#fff"/><path d="M36 26a5 5 0 0 0-5-5 5 5 0 0 0-5 5c0 2.762 4 10 5 10s5-7.238 5-10" fill="#5dadec"/></g></svg>