<svg xmlns="http://www.w3.org/2000/svg" viewBox="0 0 47.5 47.5"><defs><clipPath id="a"><path d="M0 38h38V0H0v38z"/></clipPath></defs><g clip-path="url(#a)" transform="matrix(1.25 0 0 -1.25 0 47.5)"><path d="M36 19c0-9.389-7.611-17-17-17C9.612 2 2 9.611 2 19c0 9.388 7.612 17 17 17 9.389 0 17-7.612 17-17" fill="#fdcb58"/><path d="M26.485 9.121c-.045.18-1.168 4.38-7.485 4.38-6.318 0-7.44-4.2-7.485-4.38a.499.499 0 0 1 .836-.477c.02.02 1.954 1.856 6.65 1.856 4.693 0 6.63-1.837 6.647-1.856a.505.505 0 0 1 .598-.08.5.5 0 0 1 .24.557M30.001 23a.998.998 0 0 0-.801.4c-2.431 3.244-6.513.846-6.685.743a1 1 0 1 0-1.03 1.714c1.998 1.199 6.514 2.477 9.315-1.257a1 1 0 0 0-.799-1.6M7.999 23a1 1 0 0 0-.799 1.6c2.801 3.734 7.318 2.456 9.315 1.257a1 1 0 0 0-1.028-1.715c-.178.106-4.274 2.475-6.687-.742a1 1 0 0 0-.801-.4M30 21a1 1 0 0 1-1 1h-7a1 1 0 1 1 0-2h5.092a1.496 1.496 0 0 1 2.872.821c.012.06.036.116.036.179M17 21a1 1 0 0 1-1 1H9a1 1 0 0 1 0-2h5.092a1.496 1.496 0 0 1 2.872.821c.011.06.036.116.036.179" fill="#664500"/></g></svg>