<svg xmlns="http://www.w3.org/2000/svg" viewBox="0 0 47.5 47.5"><defs><clipPath id="a"><path d="M0 38h38V0H0v38z"/></clipPath></defs><g clip-path="url(#a)" transform="matrix(1.25 0 0 -1.25 0 47.5)"><path d="M36 19c0-9.389-7.611-17-17-17S2 9.611 2 19s7.611 17 17 17 17-7.611 17-17" fill="#ffcc4d"/><path d="M13 16a5 5 0 1 0-10 0 5 5 0 0 0 10 0M35 16a5 5 0 0 0-5-5 5 5 0 0 0-5 5 5 5 0 0 0 5 5 5 5 0 0 0 5-5" fill="#ff7892"/><path d="M29.416 19.277c-.061.091-1.515 2.223-4.416 2.223-2.9 0-4.355-2.132-4.416-2.223a.499.499 0 0 1 .714-.679c.012.01 1.262.902 3.702.902 2.426 0 3.674-.882 3.702-.902a.5.5 0 0 1 .714.68M13 21.5c-2.9 0-4.355-2.132-4.416-2.223a.499.499 0 0 1 .713-.679c.013.009 1.262.902 3.703.902 2.426 0 3.674-.881 3.702-.901a.5.5 0 0 1 .714.678c-.061.091-1.515 2.223-4.416 2.223M22.871 10c1.335.412 2.63 1.156 2.63 2.5 0 2.619-4.913 2.968-5.474 2.999-.277.036-.51-.194-.526-.468a.501.501 0 0 1 .464-.53C20 14.499 23.5 14.202 23.5 12.5s-3.5-1.999-3.535-2.001c-.01-.001-.017-.006-.027-.007a.433.433 0 0 1-.309-.159l-.015-.021a.554.554 0 0 1-.073-.125c-.01-.027-.016-.056-.022-.085-.004-.024-.016-.046-.018-.071 0-.01.004-.02.004-.031s-.005-.021-.004-.031c.002-.026.013-.046.018-.071.006-.029.011-.058.023-.086.013-.033.032-.06.051-.088.016-.024.03-.047.05-.068a.464.464 0 0 1 .081-.062.48.48 0 0 1 .071-.046.37.37 0 0 1 .1-.027c.024-.006.044-.018.07-.02C20 9.499 23.5 9.202 23.5 7.5S20 5.501 19.965 5.499a.501.501 0 0 1 .062-.998c.561.031 5.473.38 5.473 2.999 0 1.344-1.294 2.088-2.629 2.5M32.001 21a.997.997 0 0 0-.801.4c-2.64 3.521-6.061 3.599-6.206 3.6-.55.006-.994.456-.991 1.005A.997.997 0 0 0 25 27c.184 0 4.537-.05 7.8-4.4a1 1 0 0 0-.799-1.6M5.999 21a1 1 0 0 0-.799 1.6C8.462 26.95 12.816 27 13 27a1 1 0 0 0 .004-2c-.155-.002-3.568-.086-6.204-3.6a1 1 0 0 0-.801-.4" fill="#664500"/></g></svg>