<svg xmlns="http://www.w3.org/2000/svg" viewBox="0 0 47.5 47.5"><defs><clipPath id="a"><path d="M0 38h38V0H0v38z"/></clipPath></defs><g clip-path="url(#a)" transform="matrix(1.25 0 0 -1.25 0 47.5)"><path d="M36 19c0-9.389-7.611-17-17-17C9.612 2 2 9.611 2 19c0 9.388 7.612 17 17 17 9.389 0 17-7.612 17-17" fill="#fdcb58"/><path d="M7 24a1 1 0 0 0-.004 2c.155.002 3.568.086 6.204 3.6a1.001 1.001 0 0 0 1.6-1.2C11.538 24.05 7.184 24 7 24M31 24c-.184 0-4.537.05-7.8 4.4a1 1 0 1 0 1.6 1.2c2.64-3.521 6.061-3.599 6.206-3.6.55-.006.994-.456.991-1.005A.997.997 0 0 0 31 24M31.6 16.8c-.114.086-1.931 1.426-4.646 2.344.027.115.046.233.046.356 0 .369-.138.703-.36.964 1.804.52 3.335.536 3.362.536A1 1 0 0 1 30 23c-.22 0-5.451-.037-8.707-3.293a.998.998 0 0 1-.216-1.09A.998.998 0 0 1 22 18c4.59 0 8.364-2.772 8.402-2.801a1 1 0 0 1 1.198 1.6M16.707 19.707C13.452 22.962 8.221 23 8 23a1 1 0 0 1-.001-2c.026 0 1.558-.016 3.36-.536A1.492 1.492 0 0 1 11 19.5c0-.123.019-.241.047-.356-2.716-.918-4.533-2.258-4.647-2.344a1 1 0 0 1 1.2-1.6c.037.028 3.787 2.8 8.4 2.8a1 1 0 0 1 .707 1.707M19 7a1 1 0 0 0-.781.375l-3.194 3.992L12.8 8.4a.998.998 0 0 0-1.507-.107l-1 1a.999.999 0 1 0 1.414 1.414l.185-.185L14.2 13.6a1 1 0 0 0 1.581.025L19 9.601l3.219 4.024A1 1 0 0 0 23.8 13.6l2.308-3.078.185.185a.999.999 0 1 0 1.414-1.414l-1-1a.974.974 0 0 0-.778-.29.998.998 0 0 0-.729.397l-2.225 2.967-3.194-3.992A1 1 0 0 0 19 7" fill="#664500"/></g></svg>