<svg xmlns="http://www.w3.org/2000/svg" viewBox="0 0 47.5 47.5"><defs><clipPath id="a"><path d="M0 38h38V0H0v38z"/></clipPath></defs><g clip-path="url(#a)" transform="matrix(1.25 0 0 -1.25 0 47.5)"><path d="M36 19c0-9.389-7.611-17-17-17C9.612 2 2 9.611 2 19c0 9.388 7.612 17 17 17 9.389 0 17-7.612 17-17" fill="#ffcc4d"/><path d="M16.457 20.185c-.06.135-1.499 3.297-4.457 3.297-2.957 0-4.397-3.162-4.457-3.297a.499.499 0 0 1 .754-.605c.013.009 1.262.902 3.703.902 2.426 0 3.674-.881 3.702-.901a.498.498 0 0 1 .755.604" fill="#664500"/><path d="M32 22.482a6.5 6.5 0 1 0-13 0 6.5 6.5 0 0 0 13 0" fill="#f5f8fa"/><path d="M28 22.482a2.5 2.5 0 1 0-5 0 2.5 2.5 0 0 0 5 0" fill="#292f33"/><path d="M8 13.982c0-3.964 4.596-9 11-9s11 5 11 9c0 0-10.333-2.756-22 0" fill="#664500"/><path d="M13 12.101V6.018c0-3 2-6 6-6s6 3 6 6v6.042c-6.292-1.292-12 .041-12 .041" fill="#e75a70"/></g></svg>