<svg xmlns="http://www.w3.org/2000/svg" viewBox="0 0 47.5 47.5"><defs><clipPath id="a"><path d="M0 38h38V0H0v38z"/></clipPath></defs><g clip-path="url(#a)" transform="matrix(1.25 0 0 -1.25 0 47.5)"><path d="M36 19c0-9.389-7.611-17-17-17S2 9.611 2 19s7.611 17 17 17 17-7.611 17-17" fill="#ffcc4d"/><path d="M30 27c-5.554 0-7.802 4.367-7.895 4.553a1 1 0 0 0 1.788.898C23.967 32.306 25.713 29 30 29a1 1 0 1 0 0-2M8 27a1 1 0 0 0 0 2c5.083 0 5.996 3.12 6.033 3.253.145.528.692.848 1.219.709a.995.995 0 0 0 .718-1.205C15.921 31.563 14.704 27 8 27M7.001 14a1 1 0 0 0-.601 1.8c.143.107 2.951 2.182 6.856 2.932C10.781 19.973 8.034 20 7.999 20A1 1 0 0 0 8 22c.221 0 5.452-.038 8.707-3.293A1 1 0 0 0 16 17c-4.613 0-8.363-2.773-8.4-2.8a.996.996 0 0 0-.599-.2M30.999 14.001a.998.998 0 0 0-.598.198C30.363 14.227 26.59 17 22 17a.999.999 0 0 0-.707 1.707C24.549 21.962 29.779 22 30 22a1 1 0 0 0 .002-2c-.036 0-2.783-.027-5.258-1.268 3.905-.75 6.713-2.825 6.856-2.932a1 1 0 0 0-.601-1.799M26.454 6.209c-.118.257-2.939 6.291-7.21 6.291-4.249 0-7.546-6.007-7.684-6.262a.5.5 0 0 1 .751-.629c.032.025 3.163 2.48 6.933 2.48 3.743 0 6.388-2.43 6.414-2.454a.501.501 0 0 1 .796.574" fill="#664500"/></g></svg>