<svg xmlns="http://www.w3.org/2000/svg" viewBox="0 0 47.5 47.5"><defs><clipPath id="a"><path d="M0 38h38V0H0v38z"/></clipPath></defs><g clip-path="url(#a)" transform="matrix(1.25 0 0 -1.25 0 47.5)"><path d="M36 19c0-9.389-7.611-17-17-17S2 9.611 2 19s7.611 17 17 17 17-7.611 17-17" fill="#ffcc4d"/><path d="M21.001 24a1 1 0 0 0-.987 1.165C20.407 27.529 22.584 32 28 32a1 1 0 1 0 0-2c-5.095 0-5.979-4.954-6.014-5.165a1 1 0 0 0-.985-.835M16.999 24a1 1 0 0 0-.985.833C15.977 25.044 15.059 30 10 30a1 1 0 0 0 0 2c5.416 0 7.592-4.471 7.986-6.835A1 1 0 0 0 16.999 24M12.41 19.108c-2.335 0-3.87.997-3.964 1.06a1 1 0 1 0 1.109 1.664c.099-.064 2.602-1.636 5.998.063a1 1 0 0 0 .895-1.79c-1.494-.746-2.867-.997-4.038-.997M25.59 19.108c-1.171 0-2.544.25-4.037.998a1 1 0 1 0 .894 1.789c3.4-1.7 5.9-.126 6.004-.06.46.299 1.08.17 1.382-.288a.997.997 0 0 0-.278-1.38c-.095-.062-1.63-1.06-3.964-1.06M27.001 10a.997.997 0 0 0-.801.4c-.025.034-2.782 3.6-7.2 3.6s-7.174-3.566-7.202-3.602a1.004 1.004 0 0 0-1.4-.195.998.998 0 0 0-.198 1.397c.135.179 3.362 4.4 8.8 4.4 5.437 0 8.665-4.221 8.8-4.4a1 1 0 0 0-.799-1.6" fill="#664500"/><path d="M16.391 16.92a.997.997 0 0 1-1.239-.39l-5-8A.998.998 0 0 1 11 7h3a1 1 0 0 1 .97.758l2 8a1 1 0 0 1-.579 1.162M27.848 8.53l-5 8a.999.999 0 1 1-1.817-.772l2-8A.998.998 0 0 1 24 7h3a1 1 0 0 1 .848 1.53" fill="#f5f8fa"/><path d="M32.982 6.822c.003.06.018.117.018.178 0 1.656-1.344 3-3 3a2.995 2.995 0 0 1-2.473-1.305A4 4 0 1 1 26 1c1.365 0 2.568.686 3.29 1.731A2.993 2.993 0 0 1 32 1.001a3 3 0 0 1 3 3 2.99 2.99 0 0 1-2.018 2.821M12 9c-.542 0-1.056-.11-1.527-.305A2.996 2.996 0 0 1 8 10c-1.656 0-3-1.344-3-3 0-.061.014-.118.018-.178A2.99 2.99 0 0 1 3 4a3 3 0 0 1 3-3c1.202 0 2.231.711 2.709 1.731A3.996 3.996 0 0 1 12 1a4 4 0 0 1 0 8" fill="#e1e8ed"/></g></svg>