<svg xmlns="http://www.w3.org/2000/svg" viewBox="0 0 47.5 47.5"><defs><clipPath id="a"><path d="M0 38h38V0H0v38z"/></clipPath></defs><g clip-path="url(#a)" transform="matrix(1.25 0 0 -1.25 0 47.5)"><path d="M36 19c0-9.389-7.611-17-17-17C9.612 2 2 9.611 2 19c0 9.388 7.612 17 17 17 9.389 0 17-7.612 17-17" fill="#ffcc4d"/><path d="M17.664 26.457a.501.501 0 0 1-.592-.148c-.01-.012-.979-1.202-3.335-1.844a8.543 8.543 0 0 0-2.244-.319c-.993 0-1.559.212-1.562.213a.5.5 0 0 1-.57-.781c.07-.088 1.778-2.148 4.123-2.148.351 0 .702.048 1.043.14 2.854.779 3.41 4.209 3.432 4.354a.501.501 0 0 1-.295.533M28.639 24.302a.502.502 0 0 1-.59.16c-.006-.004-.633-.257-1.737-.257-.661 0-1.36.09-2.073.266-2.37.582-3.37 1.748-3.377 1.758a.5.5 0 0 1-.88-.405c.027-.145.669-3.56 3.54-4.267.31-.076.629-.115.946-.115 2.397 0 4.099 2.16 4.17 2.252a.498.498 0 0 1 0 .608M10.998 27a1 1 0 0 0-.244 1.969c.036.01 3.593.962 5.352 4.478a1 1 0 1 0 1.788-.894c-2.18-4.362-6.47-5.478-6.652-5.523a.976.976 0 0 0-.244-.03M27 27c-.08 0-.161.01-.242.03-.182.045-4.472 1.161-6.653 5.523a1 1 0 0 0 1.79.894c1.757-3.517 5.315-4.468 5.351-4.478A1.001 1.001 0 0 0 27 27M19 8.035c-3.623 0-6.027-.422-9-1-.679-.13-2 0-2 2 0 4 4.595 9 11 9 6.404 0 11-5 11-9 0-2-1.321-2.132-2-2-2.973.578-5.377 1-9 1" fill="#664500"/><path d="M11 12s3 1 8 1 8-1 8-1-2 4-8 4-8-4-8-4" fill="#fff"/></g></svg>