<svg xmlns="http://www.w3.org/2000/svg" viewBox="0 0 47.5 47.5"><defs><clipPath id="a"><path d="M0 38h38V0H0v38z"/></clipPath></defs><g clip-path="url(#a)" transform="matrix(1.25 0 0 -1.25 0 47.5)"><path d="M36 19c0-9.389-7.611-17-17-17S2 9.611 2 19s7.611 17 17 17 17-7.611 17-17" fill="#ffcc4d"/><path d="M22 11.5C22 9.566 20.655 8 19 8c-1.657 0-3 1.566-3 3.5 0 1.932 1.343 3.5 3 3.5 1.655 0 3-1.568 3-3.5M31.5 25.5a.997.997 0 0 0-.801.4c-2.64 3.521-6.061 3.599-6.206 3.6-.55.006-.994.456-.991 1.005a.997.997 0 0 0 .997.995c.184 0 4.537-.05 7.8-4.4a1 1 0 0 0-.8-1.6M6.5 25.5a1 1 0 0 0-.799 1.6c3.261 4.35 7.615 4.4 7.8 4.4a1 1 0 0 0 .003-2c-.155-.002-3.568-.086-6.204-3.6a1 1 0 0 0-.8-.4M15 22c0-1.657-.96-3-2.143-3-1.184 0-2.143 1.343-2.143 3s.959 3 2.143 3C14.04 25 15 23.657 15 22M27 22.2c0-1.547-.895-2.8-2-2.8-1.104 0-2 1.253-2 2.8 0 1.546.896 2.8 2 2.8 1.105 0 2-1.254 2-2.8" fill="#664500"/></g></svg>