<svg xmlns="http://www.w3.org/2000/svg" viewBox="0 0 47.5 47.5"><defs><clipPath id="a"><path d="M0 38h38V0H0v38z"/></clipPath></defs><g clip-path="url(#a)" transform="matrix(1.25 0 0 -1.25 0 47.5)"><path d="M36 19c0-9.389-7.611-17-17-17S2 9.611 2 19s7.611 17 17 17 17-7.611 17-17" fill="#ffcc4d"/><path d="M15 23c0-1.657-.96-3-2.143-3-1.184 0-2.143 1.343-2.143 3s.959 3 2.143 3C14.04 26 15 24.657 15 23M27 23.2c0-1.547-.895-2.8-2-2.8-1.104 0-2 1.253-2 2.8 0 1.546.896 2.8 2 2.8 1.105 0 2-1.254 2-2.8M23 12c0-2.763-1.792-5-4-5-2.21 0-4 2.237-4 5 0 2.761 1.79 5 4 5 2.208 0 4-2.239 4-5" fill="#664500"/></g></svg>