<svg xmlns="http://www.w3.org/2000/svg" viewBox="0 0 47.5 47.5"><defs><clipPath id="a"><path d="M0 38h38V0H0v38z"/></clipPath></defs><g clip-path="url(#a)" transform="matrix(1.25 0 0 -1.25 0 47.5)"><path d="M36 19c0-9.389-7.611-17-17-17S2 9.611 2 19s7.611 17 17 17 17-7.611 17-17" fill="#ffcc4d"/><path d="M24.485 8.121c-.012.044-1.146 4.38-5.485 4.38-4.34 0-5.475-4.336-5.485-4.38a.495.495 0 0 1 .231-.544.51.51 0 0 1 .596.06c.01.007 1.014.863 4.658.863 3.59 0 4.617-.83 4.656-.863a.5.5 0 0 1 .83.484M16.703 19.402c-.013-.01-1.262-.902-3.703-.902-2.442 0-3.69.893-3.7.9a.5.5 0 0 1-.716-.677c.06-.091 1.515-2.223 4.416-2.223 2.9 0 4.356 2.132 4.416 2.223a.499.499 0 1 1-.713.679M29.345 19.36a.5.5 0 0 1-.643.042c-.011-.01-1.261-.902-3.702-.902s-3.69.892-3.7.9a.5.5 0 0 1-.716-.678c.06-.09 1.515-2.222 4.416-2.222 2.9 0 4.356 2.131 4.416 2.222a.499.499 0 0 1-.071.638M32.001 21a.997.997 0 0 0-.801.4c-2.64 3.521-6.061 3.599-6.206 3.6-.55.006-.994.456-.991 1.005A.997.997 0 0 0 25 27c.184 0 4.537-.05 7.8-4.4a1 1 0 0 0-.799-1.6M5.999 21a1 1 0 0 0-.799 1.6C8.462 26.95 12.816 27 13 27a1 1 0 0 0 .004-2c-.155-.002-3.568-.086-6.204-3.6a1 1 0 0 0-.801-.4" fill="#664500"/><path d="M24 14c6.211 0 13-4 13-9 0-4-3-4-3-4-8 0-1 9-10 13" fill="#5dadec"/></g></svg>