<svg xmlns="http://www.w3.org/2000/svg" viewBox="0 0 47.5 47.5"><defs><clipPath id="a"><path d="M0 38h38V0H0v38z"/></clipPath></defs><g clip-path="url(#a)" transform="matrix(1.25 0 0 -1.25 0 47.5)"><path d="M37 17C37 7 26 1 19 1S1 7.059 1 17c0 9.941 4 20 18 20s18-10 18-20" fill="#ffcc4d"/><path d="M36 36c1-1 0-11 0-11l-8 10s7 2 8 1M2 36c-1-1 0-11 0-11l8 10s-7 2-8 1" fill="#ffcc4d"/><path d="M32.404 13.295a.498.498 0 0 1-.542.186c-.069-.02-7-1.981-12.863-1.981-5.858 0-12.793 1.96-12.862 1.98a.502.502 0 0 1-.532-.788C5.897 12.318 12.826 3.5 19 3.5c7.185 0 13.166 8.846 13.417 9.223a.501.501 0 0 1-.012.572M15 22.5c0-1.933-.896-3.5-2-3.5s-2 1.567-2 3.5.896 3.5 2 3.5 2-1.567 2-3.5M27 22.5c0-1.933-.896-3.5-2-3.5s-2 1.567-2 3.5.896 3.5 2 3.5 2-1.567 2-3.5" fill="#292f33"/><path d="M9 12s5-2 10-2 10 2 10 2 0-3-1-3-2 1-2 1-4-2-7-2-7 2-7 2-1-1-2-1-1 3-1 3" fill="#f5f8fa"/><path d="M19 17.5c3 0 3-.5 3-1.5s-1.5-3-3-3-3 2-3 3 0 1.5 3 1.5" fill="#67757f"/><path d="M27 16.5a.502.502 0 0 0-.158.975l9 2.999a.5.5 0 1 0 .316-.948l-9-3.001A.511.511 0 0 0 27 16.5M25.999 14.5a.5.5 0 0 0-.097.99l10 2c.26.054.534-.12.588-.392a.498.498 0 0 0-.392-.588l-10-2a.475.475 0 0 0-.099-.01M11 16.5a.516.516 0 0 0-.158.025l-9 3.001a.499.499 0 1 0 .316.948l9-2.999A.5.5 0 0 0 11 16.5M12 14.5a.489.489 0 0 0-.098.01l-10 2a.5.5 0 1 0 .197.98l10-2A.5.5 0 0 0 12 14.5" fill="#9aaab4"/></g></svg>