<svg xmlns="http://www.w3.org/2000/svg" viewBox="0 0 47.5 47.5"><defs><clipPath id="a"><path d="M0 38h38V0H0v38z"/></clipPath></defs><g clip-path="url(#a)" transform="matrix(1.25 0 0 -1.25 0 47.5)"><path d="M36 19c0-9.389-7.611-17-17-17C9.612 2 2 9.611 2 19c0 9.388 7.612 17 17 17 9.389 0 17-7.612 17-17" fill="#ffcc4d"/><path d="M8.001 22a1 1 0 0 0-.556 1.832C7.578 23.92 10.746 26 15 26a1 1 0 0 0 0-2c-3.655 0-6.418-1.814-6.445-1.832A.996.996 0 0 0 8.001 22M29.999 22a.996.996 0 0 0-.552.167C29.419 22.185 26.628 24 23 24a1 1 0 1 0 0 2c4.254 0 7.422-2.08 7.555-2.168A1 1 0 0 0 29.999 22" fill="#664500"/><path d="M2.023 18.535l7.978-3.626v-4.546l-6.238 1.135a17.04 17.04 0 0 1 1.318-2.24L10 8.363V7a2 2 0 0 1 2-2h14a2 2 0 0 1 2 2v1.363l4.919.895a16.82 16.82 0 0 1 1.317 2.24L28 10.363v4.546l7.977 3.626c.004.156.024.308.024.465 0 .51-.033 1.012-.077 1.51L28 16.91v1.09a2 2 0 0 1-2 2H12a2 2 0 0 1-2-2v-1.09L2.077 20.51A17.154 17.154 0 0 1 2 19c0-.157.02-.31.023-.465" fill="#f5f8fa"/></g></svg>