<svg xmlns="http://www.w3.org/2000/svg" viewBox="0 0 47.5 47.5"><defs><clipPath id="a"><path d="M0 38h38V0H0v38z"/></clipPath></defs><g clip-path="url(#a)" transform="matrix(1.25 0 0 -1.25 0 47.5)"><path d="M36 19c0-9.389-7.611-17-17-17C9.612 2 2 9.611 2 19c0 9.388 7.612 17 17 17 9.389 0 17-7.612 17-17" fill="#ffcc4d"/><path d="M15 20.5c0-1.934-1.119-3.5-2.5-3.5S10 18.566 10 20.5c0 1.933 1.119 3.5 2.5 3.5s2.5-1.567 2.5-3.5M28 20.5c0-1.934-1.119-3.5-2.5-3.5S23 18.566 23 20.5c0 1.933 1.119 3.5 2.5 3.5s2.5-1.567 2.5-3.5M24.485 9.121c-.012.044-1.146 4.38-5.485 4.38-4.34 0-5.474-4.336-5.485-4.38a.496.496 0 0 1 .232-.544.51.51 0 0 1 .596.06c.01.007 1.014.863 4.657.863 3.59 0 4.617-.83 4.656-.863a.5.5 0 0 1 .83.484" fill="#664500"/><path d="M11 8a5 5 0 0 0-5-5 5 5 0 0 0-5 5c0 2.762 4 10 5 10s5-7.238 5-10" fill="#5dadec"/><path d="M19 36C9.612 36 2 28.388 2 19c0-.539.03-1.07.08-1.596C4.58 22.414 11.203 26 19 26c7.798 0 14.42-3.586 16.92-8.596.05.526.08 1.057.08 1.596 0 9.388-7.611 17-17 17" fill="#bdddf4"/><path d="M31 25c-5.554 0-7.802 4.367-7.895 4.553a1 1 0 0 0 1.788.898C24.967 30.306 26.713 27 31 27a1 1 0 1 0 0-2M7 25a1 1 0 0 0 0 2c5.083 0 5.996 3.12 6.033 3.253.145.528.69.848 1.219.709a.995.995 0 0 0 .718-1.205C14.921 29.563 13.704 25 7 25" fill="#664500"/></g></svg>