<svg xmlns="http://www.w3.org/2000/svg" viewBox="0 0 47.5 47.5"><defs><clipPath id="a"><path d="M0 38h38V0H0v38z"/></clipPath></defs><g clip-path="url(#a)" transform="matrix(1.25 0 0 -1.25 0 47.5)"><path d="M34 22.5c0-1.933-.896-3.5-2-3.5s-2 1.567-2 3.5.896 3.5 2 3.5 2-1.567 2-3.5" fill="#292f33"/><path d="M33.48 25.137C33.43 25.315 32.2 29.5 29 29.5a.499.499 0 0 1-.354-.854l4-4a.503.503 0 0 1 .608-.077.5.5 0 0 1 .227.568" fill="#292f33"/><path d="M34 15.889c0-9.445-8.389-15-15-15-6.611 0-17 5.723-17 15.11 0 9.39 3.777 18 17 18 11 0 15-8.666 15-18.11" fill="#ffcc4d"/><path d="M25 37c1.414 0 3-12 3-12l-9 6s4 6 6 6M14 37c1.414 0 3-12 3-12l-9 6s4 6 6 6" fill="#ffcc4d"/><path d="M28 22.5c0-1.933-.896-3.5-2-3.5s-2 1.567-2 3.5.896 3.5 2 3.5 2-1.567 2-3.5" fill="#292f33"/><path d="M33 17.5c3 0 3-.5 3-1.5s-1.5-3-3-3-3 2-3 3 0 1.5 3 1.5" fill="#67757f"/><path d="M26 16.5a.511.511 0 0 0-.158.025l-9 3.001a.499.499 0 1 0 .316.948l9-2.999A.502.502 0 0 0 26 16.5M27.001 14.5a.475.475 0 0 0-.099.01l-10 2a.499.499 0 0 0-.392.588.495.495 0 0 0 .588.392l10-2a.5.5 0 1 0-.097-.99" fill="#9aaab4"/><path d="M28.42 25.27c-.11.172-2.794 4.23-9.42 4.23a.5.5 0 0 1-.203-.958l9-4a.503.503 0 0 1 .583.132.5.5 0 0 1 .04.596M33.185 9.464c-.094.038-2.353.925-5.963.925-2.11 0-4.25-.306-6.36-.908-4.03-1.152-6.114-3.033-6.2-3.113a.5.5 0 0 1 .482-.846c.048.014 4.844 1.46 6.977 1.993 3.893.973 10.81.985 10.878.985a.5.5 0 0 1 .186.964" fill="#292f33"/></g></svg>