<svg xmlns="http://www.w3.org/2000/svg" viewBox="0 0 47.5 47.5"><defs><clipPath id="a"><path d="M0 38h38V0H0v38z"/></clipPath></defs><g clip-path="url(#a)" transform="matrix(1.25 0 0 -1.25 0 47.5)"><path d="M37 17C37 7 26 1 19 1S1 7.059 1 17c0 9.941 4 20 18 20s18-10 18-20" fill="#ffcc4d"/><path d="M36 36c1-1 0-11 0-11l-8 10s7 2 8 1M2 36c-1-1 0-11 0-11l8 10s-7 2-8 1" fill="#ffcc4d"/><path d="M26.362 6.364C25.88 7.13 22.947 11.5 19 11.5c-4.234 0-7.3-5.029-7.428-5.243a.502.502 0 0 1 .083-.62.507.507 0 0 1 .623-.053c.03.02 2.918 1.916 6.722 1.916 3.792 0 6.695-1.898 6.723-1.916.086-.058.215-.096.282-.084a.511.511 0 0 1 .515.5.496.496 0 0 1-.157.364M15 22.5c0-1.933-.896-3.5-2-3.5s-2 1.567-2 3.5.896 3.5 2 3.5 2-1.567 2-3.5M27 22.5c0-1.933-.896-3.5-2-3.5s-2 1.567-2 3.5.896 3.5 2 3.5 2-1.567 2-3.5" fill="#292f33"/><path d="M19 17.5c3 0 3-.5 3-1.5s-1.5-3-3-3-3 2-3 3 0 1.5 3 1.5" fill="#67757f"/><path d="M27 16.5a.502.502 0 0 0-.158.975l9 2.999a.5.5 0 1 0 .316-.948l-9-3.001A.511.511 0 0 0 27 16.5M25.999 14.5a.5.5 0 0 0-.097.99l10 2c.26.054.534-.12.588-.392a.498.498 0 0 0-.392-.588l-10-2a.475.475 0 0 0-.099-.01M11 16.5a.516.516 0 0 0-.158.025l-9 3.001a.499.499 0 1 0 .316.948l9-2.999A.5.5 0 0 0 11 16.5M12 14.5a.489.489 0 0 0-.098.01l-10 2a.5.5 0 1 0 .197.98l10-2A.5.5 0 0 0 12 14.5" fill="#9aaab4"/><path d="M32.001 23a.998.998 0 0 0-.801.4c-2.64 3.521-6.061 3.599-6.206 3.6-.55.006-.994.456-.991 1.005A.997.997 0 0 0 25 29c.184 0 4.537-.05 7.8-4.4a1 1 0 0 0-.799-1.6M5.999 23a1 1 0 0 0-.799 1.6C8.462 28.95 12.816 29 13 29a1 1 0 0 0 .004-2c-.155-.002-3.568-.086-6.204-3.6a1 1 0 0 0-.801-.4" fill="#292f33"/><path d="M16 6A5 5 0 1 0 6 6c0 2.762 4 13 5 13s5-10.238 5-13" fill="#5dadec"/></g></svg>