<svg xmlns="http://www.w3.org/2000/svg" viewBox="0 0 47.5 47.5"><defs><clipPath id="a"><path d="M0 38h38V0H0v38z"/></clipPath></defs><g clip-path="url(#a)" transform="matrix(1.25 0 0 -1.25 0 47.5)"><path d="M36 19c0-9.389-7.611-17-17-17C9.612 2 2 9.611 2 19c0 9.388 7.612 17 17 17 9.389 0 17-7.612 17-17" fill="#ffcc4d"/><path d="M24 10c0-3.314-2.238-6-5-6s-5 2.686-5 6c0 3.313 2.238 6 5 6s5-2.687 5-6M6.999 26a1 1 0 0 0-.799 1.6C9.462 31.95 13.816 32 14 32a1 1 0 0 0 .004-2c-.155-.002-3.569-.086-6.204-3.6a1 1 0 0 0-.801-.4M31.001 26a.997.997 0 0 0-.801.4c-2.64 3.521-6.061 3.599-6.206 3.6-.55.006-.994.456-.991 1.005A.997.997 0 0 0 24 32c.184 0 4.537-.05 7.8-4.4a1 1 0 0 0-.799-1.6M14.914 21.5l1.793 1.793a.999.999 0 1 1-1.414 1.414L13.5 22.914l-1.793 1.793a.999.999 0 1 1-1.414-1.414l1.793-1.793-1.793-1.793a.999.999 0 1 1 1.414-1.414l1.793 1.793 1.793-1.793a.997.997 0 0 1 1.414 0 .999.999 0 0 1 0 1.414L14.914 21.5zM25.914 21.5l1.793 1.793a.999.999 0 1 1-1.414 1.414L24.5 22.914l-1.793 1.793a.999.999 0 1 1-1.414-1.414l1.793-1.793-1.793-1.793a.999.999 0 1 1 1.414-1.414l1.793 1.793 1.793-1.793a.997.997 0 0 1 1.414 0 .999.999 0 0 1 0 1.414L25.914 21.5z" fill="#664500"/></g></svg>