<svg xmlns="http://www.w3.org/2000/svg" viewBox="0 0 47.5 47.5"><defs><clipPath id="a"><path d="M0 38h38V0H0v38z"/></clipPath></defs><g clip-path="url(#a)" transform="matrix(1.25 0 0 -1.25 0 47.5)"><path d="M20 33c-1.656 0-3.221-.376-4.629-1.032C10.695 31.644 7 27.758 7 23c0-3.218 1.694-6.032 4.233-7.624C13.241 12.723 16.416 11 20 11c6.075 0 11 4.925 11 11s-4.925 11-11 11" fill="#292f33"/><path d="M28 15H10s-9 0-9-7c0-3.156 4-7 4-7h28s4 3.844 4 7c0 7-9 7-9 7" fill="#4289c1"/><path d="M22 9a3 3 0 1 0-6 0 3 3 0 0 0 6 0" fill="#bf6952"/><path d="M15 26s-.003-5.308-5-5.936V16a9 9 0 0 1 9-9 9 9 0 0 1 9 9v3.019C16.89 19.395 15 26 15 26M18 3l-5 1-2 1H8L7 1h11c1 0 1 1 1 1 0 .553-1 1-1 1M27 5l-2-1-5-1s-1-.447-1-1c0 0 0-1 1-1h11l-1 4h-3z" fill="#d79e84"/><path d="M23 15a1 1 0 0 0-1 1v1a1 1 0 1 0 2 0v-1a1 1 0 0 0-1-1M15 15a1 1 0 0 0-1 1v1a1 1 0 1 0 2 0v-1a1 1 0 0 0-1-1" fill="#292f33"/><path d="M20 10.5h-2a.5.5 0 0 0 0 1h2a.5.5 0 0 0 0-1" fill="#bf6952"/><path d="M6.999 29a.996.996 0 0 0-.599.2l-4 3a1 1 0 0 0 1.2 1.6l4-3a1 1 0 0 0-.601-1.8M10.001 32a1 1 0 0 0-.833.445l-2 3a1 1 0 0 0 1.664 1.11l2-3A1 1 0 0 0 10.001 32M32.001 29a1 1 0 0 0-.601 1.8l4 3a1 1 0 1 0 1.2-1.6l-4-3a.994.994 0 0 0-.599-.2M28.999 32a1 1 0 0 0-.831 1.555l2 3a1 1 0 1 0 1.664-1.11l-2-3a.998.998 0 0 0-.833-.445" fill="#5dadec"/></g></svg>