<svg xmlns="http://www.w3.org/2000/svg" viewBox="0 0 47.5 47.5"><defs><clipPath id="a"><path d="M0 38h38V0H0v38z"/></clipPath></defs><g clip-path="url(#a)" transform="matrix(1.25 0 0 -1.25 0 47.5)"><path d="M37 30c0 4.939-6.772 4.457-9.169 4.132C25.398 35.921 22.444 37 19 37c-3.438 0-6.388-1.081-8.818-2.869C7.797 34.456 1 34.948 1 30c0-2.891 1.563-4.732 2.433-5.533A26.05 26.05 0 0 1 2 16C2 6.059 12 3 19 3s17 3 17 13c0 2.835-.483 5.75-1.426 8.473C35.445 25.278 37 27.117 37 30" fill="#bf6952"/><path d="M24 30a6.98 6.98 0 0 1-5-2.105A6.98 6.98 0 0 1 14 30a7 7 0 1 1 0-14 6.98 6.98 0 0 1 5 2.105A6.98 6.98 0 0 1 24 16a7 7 0 1 1 0 14" fill="#d79e84"/><path d="M27 10a8 8 0 0 0-8-8 8 8 0 0 0-8 8 8 8 0 0 0 8 8 8 8 0 0 0 8-8" fill="#d79e84"/><path d="M12.356 14.82L8.643 1H1l5.356 17.82 6-4z" fill="#bf6952"/><path d="M15.46 27c-2.503 0-5.055-1.61-6.418-2.63-.658 1.066-1.865 2.45-3.686 2.45-.317 0-1.1-.11-1.506-1.134-.173-.435-.26-1.003-.26-1.69 0-3.55 2.324-10.176 6.766-10.176 3.623 0 5.081.801 5.552 1.16.702.371 4.51 2.521 5.032 5.738.271 1.674-.36 3.292-1.877 4.808-.978.978-2.189 1.473-3.603 1.473" fill="#bf6952"/><path d="M15.46 26c1.034 0 2.041-.324 2.896-1.18 5-5-3-9-3-9s-1-1-5-1c-5 0-7 11-5 11 2.236 0 3.356-3 3.356-3S12.222 26 15.46 26" fill="#d79e84"/><path d="M12 21.32a.5.5 0 0 0-.277.916l6 4a.5.5 0 1 0 .555-.832l-6-4A.5.5 0 0 0 12 21.32M14 18.32a.5.5 0 0 0-.277.916l6 4a.502.502 0 0 0 .694-.139.502.502 0 0 0-.14-.694l-6-3.999a.5.5 0 0 0-.276-.084M26 14.82L29 1h8l-5 17.82-6-4z" fill="#bf6952"/><path d="M22.95 27c-1.45 0-2.68-.495-3.657-1.473-1.518-1.516-2.149-3.134-1.877-4.808.521-3.217 4.33-5.367 5.031-5.738.473-.36 1.93-1.16 5.553-1.16 4.442 0 6.766 6.625 6.766 10.176 0 .687-.088 1.255-.26 1.69C34.1 26.71 33.317 26.82 33 26.82c-1.7 0-2.818-1.206-3.446-2.403C28.117 25.432 25.484 27 22.95 27" fill="#bf6952"/><path d="M22.95 26c3.336 0 7.05-3.18 7.05-3.18s.763 3 3 3c2 0 0-11-5-11-4 0-5 1-5 1s-8 4-3 9c.855.856 1.883 1.18 2.95 1.18" fill="#d79e84"/><path d="M25 18.5a.494.494 0 0 0-.277.084l-6 3.999a.5.5 0 0 0 .554.833l6-4A.5.5 0 0 0 25 18.5M27 21.5a.494.494 0 0 0-.277.084l-6 4a.5.5 0 1 0 .554.832l6-4A.5.5 0 0 0 27 21.5" fill="#bf6952"/><path d="M24.426 8.263A.503.503 0 0 1 24 8.5H14a.5.5 0 0 1-.447-.723C13.64 7.602 15.729 3.5 19 3.5c3.272 0 5.36 4.102 5.447 4.277a.498.498 0 0 1-.021.486M20 11.5a.5.5 0 0 0-.5.5v2a.5.5 0 0 0 1 0v-2a.5.5 0 0 0-.5-.5M18 11.5a.5.5 0 0 0-.5.5v2a.5.5 0 0 0 1 0v-2a.5.5 0 0 0-.5-.5" fill="#642116"/></g></svg>