<svg xmlns="http://www.w3.org/2000/svg" viewBox="0 0 47.5 47.5"><defs><clipPath id="a"><path d="M0 38h38V0H0v38z"/></clipPath></defs><g clip-path="url(#a)" transform="matrix(1.25 0 0 -1.25 0 47.5)"><path d="M20 37c-1.721 0-3.343-.406-4.793-1.111A6.964 6.964 0 0 1 14 36a7 7 0 0 1-7-7V17h.018C7.201 10.533 12.489 5.344 19 5.344c6.511 0 11.799 5.189 11.982 11.656H31v9c0 6.075-4.925 11-11 11" fill="#642116"/><path d="M28 10H11V1h21v5a4 4 0 0 1-4 4" fill="#9268ca"/><path d="M16 15V9a3 3 0 1 1 6 0v6h-6z" fill="#d79e84"/><path d="M10 32V20a9 9 0 0 1 9-9 9 9 0 0 1 9 9v12H10z" fill="#d79e84"/><path d="M27.999 32v1H9v-7c6 0 6 6 6 6s2-7 14-7v7h-1.001z" fill="#642116"/><path d="M28 1h-1v4h1V1z" fill="#7450a8"/><path d="M23 15h-8s1-2 4-2 4 2 4 2" fill="#bb1a34"/><path d="M13.421 34.065a1.283 1.283 0 0 1-1.776-.367L11 32.716V35a2 2 0 0 1-2 2H5a2 2 0 0 1-2-2v-8s0-1 1-1h6l1 1v1.043l2.788 4.246c.39.592.225 1.387-.367 1.776" fill="#d79e84"/><path d="M6 32H5v5h1v-5zM9 32H8v5h1v-5z" fill="#c1694f"/><path d="M10 10h1V1c-8 0-8 9-8 9v17h8l-1-17z" fill="#9268ca"/><path d="M20 17.5h-2a.5.5 0 0 0 0 1h2a.5.5 0 0 0 0-1" fill="#bf6952"/><path d="M15 21a1 1 0 0 0-1 1v1a1 1 0 0 0 2 0v-1a1 1 0 0 0-1-1M23 21a1 1 0 0 0-1 1v1a1 1 0 1 0 2 0v-1a1 1 0 0 0-1-1" fill="#292f33"/></g></svg>