<svg xmlns="http://www.w3.org/2000/svg" viewBox="0 0 47.5 47.5"><defs><clipPath id="a"><path d="M0 38h38V0H0v38z"/></clipPath></defs><g clip-path="url(#a)" transform="matrix(1.25 0 0 -1.25 0 47.5)"><path d="M20 37c-1.721 0-3.343-.406-4.793-1.111A6.964 6.964 0 0 1 14 36a7 7 0 0 1-7-7V17h.018C7.201 10.533 12.489 5.344 19 5.344c6.511 0 11.799 5.189 11.982 11.656H31v9c0 6.075-4.925 11-11 11" fill="#642116"/><path d="M28 10H10a4 4 0 0 1-4-4V1h26v5a4 4 0 0 1-4 4" fill="#9268ca"/><path d="M28 1h-1v4h1V1zM11 1h-1v4h1V1z" fill="#7450a8"/><path d="M16 13V9a3 3 0 1 1 6 0v4h-6z" fill="#d79e84"/><path d="M15 32s-.003-5.308-5-5.936V20a9 9 0 0 1 9-9 9 9 0 0 1 9 9v5.019C16.89 25.395 15 32 15 32" fill="#d79e84"/><path d="M23 16h-8s1-2 4-2 4 2 4 2" fill="#bb1a34"/><path d="M6 1l4 9-3 10 3 12H5s-4-8-4-12S6 1 6 1M32 1l-4 9 3 10-3 12h5s4-8 4-12-5-19-5-19" fill="#9268ca"/><path d="M13.541 35.977a1.286 1.286 0 0 1-1.517.997L9.35 36.42H7a2 2 0 0 1-2-2V32h5s1.899 1.257 1.985 2.345l.362.075H13c0 .075-.029.144-.045.217.444.275.698.798.586 1.34" fill="#bf6952"/><path d="M18 35.42a1 1 0 0 1-1 1l-6-1H6a1 1 0 0 1-1-1V32h5l2 1 5 1.42s1 .447 1 1" fill="#d79e84"/><path d="M31 36.42h-2.35l-2.674.554a1.286 1.286 0 0 1-1.517-.997 1.274 1.274 0 0 1 .586-1.341c-.017-.072-.045-.142-.045-.216h.653l.363-.075C26.105 33.275 28 32.42 28 32.42h5v2a2 2 0 0 1-2 2" fill="#bf6952"/><path d="M20 35.42a1 1 0 0 0 1 1l6-1h5a1 1 0 0 0 1-1V32h-5l-2 1-5 1.42s-1 .447-1 1" fill="#d79e84"/><path d="M20 17.5h-2a.5.5 0 0 0 0 1h2a.5.5 0 0 0 0-1" fill="#bf6952"/><path d="M15 21a1 1 0 0 0-1 1v1a1 1 0 0 0 2 0v-1a1 1 0 0 0-1-1M23 21a1 1 0 0 0-1 1v1a1 1 0 1 0 2 0v-1a1 1 0 0 0-1-1" fill="#292f33"/></g></svg>