<svg xmlns="http://www.w3.org/2000/svg" viewBox="0 0 47.5 47.5"><defs><clipPath id="a"><path d="M0 38h38V0H0v38z"/></clipPath></defs><path d="M46.25 43.75h-45v2.5h45v-2.5z" fill="#939598"/><g clip-path="url(#a)" transform="matrix(1.25 0 0 -1.25 0 47.5)"><path d="M4 2h33v29H22c-4 0-5-2-5-2l-4-6S1 18 1 13.001c0-4 6-6 6-6L4 2z" fill="#d1d3d4"/><path d="M15 2l2 3h20V2H15z" fill="#231f20"/><path d="M1 13.001c0-4 6-6 6-6v12.875c-3-1.875-6-4.375-6-6.875M7 7v.001V7z" fill="#3b88c3"/><path d="M7 7L4 2h33v5H7z" fill="#269"/><path d="M21 7l4 6h12V7H21z" fill="#3b88c3"/><path d="M27 29H17l-4-6h-.001 10.843c.476 0 1.108.448 1.412 1l2.197 4c.303.552.102 1-.451 1" fill="#55acee"/><path d="M26.902 27l.55 1c.302.552.1 1-.452 1H17l-1.334-2h11.236z" fill="#3b88c3"/></g></svg>