<svg xmlns="http://www.w3.org/2000/svg" viewBox="0 0 47.5 47.5"><defs><clipPath id="a"><path d="M0 38h38V0H0v38z"/></clipPath></defs><path d="M3.75 46.25h40L30 25H17.5L3.75 46.25z" fill="#a7a9ac"/><path d="M7.5 46.25H40L27.5 25H20L7.5 46.25z" fill="#58595b"/><path d="M11.25 46.25h25L25 25h-2.5L11.25 46.25z" fill="#808285"/><g clip-path="url(#a)" transform="matrix(1.25 0 0 -1.25 0 47.5)"><path d="M29 2a1 1 0 0 0-1-1H10a1 1 0 1 0 0 2h18a1 1 0 0 0 1-1M27 6a1 1 0 0 0-1-1H12a1 1 0 1 0 0 2h14a1 1 0 0 0 1-1" fill="#a7a9ac"/><path d="M28.076 11.7L24 18H14l-4.076-6.3C11.812 9.183 14.722 7.001 19 7.001c4.277 0 7.187 2.182 9.076 4.7" fill="#58595b"/><path d="M19 37c-9 0-12-3-12-9v-8c0-1.999 3-11 12-11s12 9.001 12 11v8c0 6-3 9-12 9" fill="#a7a9ac"/><path d="M9 26c0 9 4.477 10 10 10s10-1 10-10c0-6-4.477-11-10-11S9 20 9 26" fill="#e6e7e8"/><path d="M19 15.001c1.642 0 3.186.45 4.553 1.228-.783 1.043-2.523 1.772-4.553 1.772s-3.769-.729-4.552-1.772A9.159 9.159 0 0 1 19 15.001" fill="#ffac33"/><path d="M20 32.003v-4.965c3.488.232 6 1.62 6 2.463v1.666c0 .792-3.692.838-6 .836M18 32.003c-2.308.002-6-.044-6-.836V29.5c0-.843 2.512-2.231 6-2.463v4.965z" fill="#55acee"/><path d="M7 27s0-3 4-9c0 0-4 2-4 6v3zM31 27s0-3-4-9c0 0 4 2 4 6v3z" fill="#269"/></g></svg>