<svg xmlns="http://www.w3.org/2000/svg" viewBox="0 0 47.5 47.5"><defs><clipPath id="a"><path d="M0 38h38V0H0v38z"/></clipPath></defs><g clip-path="url(#a)" transform="matrix(1.25 0 0 -1.25 0 47.5)"><path d="M1 14V8a3 3 0 0 1 3-3h30a3 3 0 0 1 3 3v6H1z" fill="#77b255"/><path d="M16 24a1 1 0 0 0-.768 1.64c5.186 6.224 12.326 7.307 12.626 7.35.047.006.095.01.142.01h3a1 1 0 1 0 0-2h-2.919c-.689-.119-6.878-1.319-11.312-6.64A1 1 0 0 0 16 24" fill="#6d6e71"/><path d="M26 23H12v4h14v-4z" fill="#a7a9ac"/><path d="M37 14v8a3 3 0 0 1-3 3H4a3 3 0 0 1-3-3v-8h36z" fill="#e6e7e8"/><path d="M37 12H1v2h36v-2zM8 11a5.998 5.998 0 0 1-5.95-5.263A2.974 2.974 0 0 1 4 5h10a6 6 0 0 1-6 6M35.95 5.737A5.998 5.998 0 0 1 24 5h10c.75 0 1.425.284 1.95.737" fill="#5c913b"/><path d="M12 5a4 4 0 1 0-8 0 4 4 0 0 0 8 0"/><path d="M10 5a2 2 0 1 0-4.001.001A2 2 0 0 0 10 5" fill="#99aab5"/><path d="M34 5a4 4 0 1 0-8 0 4 4 0 0 0 8 0"/><path d="M32 5a2 2 0 1 0-4.001.001A2 2 0 0 0 32 5" fill="#99aab5"/><path d="M28 17a1 1 0 0 0-1-1h-3a1 1 0 0 0-1 1v3a1 1 0 0 0 1 1h3a1 1 0 0 0 1-1v-3zM35 17a1 1 0 0 0-1-1h-3a1 1 0 0 0-1 1v3a1 1 0 0 0 1 1h3a1 1 0 0 0 1-1v-3zM14 17a1 1 0 0 0-1-1h-3a1 1 0 0 0-1 1v3a1 1 0 0 0 1 1h3a1 1 0 0 0 1-1v-3zM21 17a1 1 0 0 0-1-1h-3a1 1 0 0 0-1 1v3a1 1 0 0 0 1 1h3a1 1 0 0 0 1-1v-3zM6 21H1v-7h5a1 1 0 0 1 1 1v5a1 1 0 0 1-1 1" fill="#55acee"/><path d="M2 9H1v2h1V9z" fill="#ffe8b6"/><path d="M37 9h-1v2h1V9z" fill="#ea596e"/><path d="M37 14h-1v-2h1v2z" fill="#f4abba"/></g></svg>