<svg xmlns="http://www.w3.org/2000/svg" viewBox="0 0 47.5 47.5"><defs><clipPath id="a"><path d="M0 38h38V0H0v38z"/></clipPath></defs><g clip-path="url(#a)" transform="matrix(1.25 0 0 -1.25 0 47.5)"><path d="M12 3a2 2 0 0 0-2-2H8a2 2 0 0 0-2 2v7a2 2 0 0 0 2 2h2a2 2 0 0 0 2-2V3zM32 3a2 2 0 0 0-2-2h-2a2 2 0 0 0-2 2v7a2 2 0 0 0 2 2h2a2 2 0 0 0 2-2V3z" fill="#292f33"/><path d="M4 20a1 1 0 0 0-1-1H2a1 1 0 0 0-1 1v7a1 1 0 0 0 1 1h1a1 1 0 0 0 1-1v-7zM37 20a1 1 0 0 0-1-1h-1a1 1 0 0 0-1 1v7a1 1 0 0 0 1 1h1a1 1 0 0 0 1-1v-7z" fill="#99aab5"/><path d="M36 26a1 1 0 0 0-1-1H3a1 1 0 0 0 0 2h32a1 1 0 0 0 1-1M36 22a1 1 0 0 0-1-1H3a1 1 0 1 0 0 2h32a1 1 0 0 0 1-1" fill="#99aab5"/><path d="M25 35a2 2 0 0 0-2-2h-8a2 2 0 0 0 0 4h8a2 2 0 0 0 2-2" fill="#ccd6dd"/><path d="M29 35H9a4 4 0 0 1-4-4V5h28v26a4 4 0 0 1-4 4" fill="#ccd6dd"/><path d="M33 5H5v16h28V5z" fill="#ffcc4d"/><path d="M34 5a1 1 0 0 0-1-1H5a1 1 0 0 0-1 1v1a1 1 0 0 0 1 1h28a1 1 0 0 0 1-1V5zM33 20a3 3 0 0 0-3-3H8a3 3 0 0 0-3 3v7a3 3 0 0 0 3 3h22a3 3 0 0 0 3-3v-7z" fill="#66757f"/><path d="M31 21a2 2 0 0 0-2-2H9a2 2 0 0 0-2 2v5a2 2 0 0 0 2 2h20a2 2 0 0 0 2-2v-5z" fill="#88c9f9"/><path d="M33 7H5v5h28V7z" fill="#ffac33"/><path d="M13 9H7v3h6V9zM31 9h-6v3h6V9z" fill="#fff"/><path d="M7 9H5v3h2V9zM33 9h-2v3h2V9z" fill="#dd2e44"/><path d="M23 9h-8v3h8V9z" fill="#66757f"/><path d="M23 33.5a1.5 1.5 0 0 0-1.5-1.5h-5a1.5 1.5 0 1 0 0 3h5a1.5 1.5 0 0 0 1.5-1.5" fill="#292f33"/></g></svg>