<svg xmlns="http://www.w3.org/2000/svg" viewBox="0 0 47.5 47.5"><defs><clipPath id="a"><path d="M0 38h38V0H0v38z"/></clipPath></defs><path d="M46.25 43.75h-45v2.5h45v-2.5z" fill="#939598"/><path d="M45 41.25H8.75V35H45v6.25z" fill="#231f20"/><g clip-path="url(#a)" transform="matrix(1.25 0 0 -1.25 0 47.5)"><path d="M4.999 5a3 3 0 1 0 6 0 3 3 0 0 0-6 0" fill="#58595b"/><path d="M10.999 5a3 3 0 1 0 6 0 3 3 0 0 0-6 0" fill="#58595b"/><path d="M6.499 5a1.5 1.5 0 1 0 3 0 1.5 1.5 0 0 0-3 0M12.499 5c0 .83.671 1.5 1.5 1.5s1.5-.67 1.5-1.5-.671-1.5-1.5-1.5-1.5.67-1.5 1.5" fill="#a0041e"/><path d="M6 4H2c-1 0-1.5.5 0 2l4 4c1 1 2 2.001 2 0V6c0-2-.001-2-2-2" fill="#dd2e44"/><path d="M9 17c0-3.313-1.344-6-3-6-1.658 0-3 2.687-3 6 0 3.314 1.342 6 3 6 1.656 0 3-2.686 3-6" fill="#231f20"/><path d="M12 22H8l-2 8h8l-2-8z" fill="#6d6e71"/><path d="M27 12a2 2 0 0 0-2-2H7a2 2 0 0 0-2 2v10a2 2 0 0 0 2 2h18a2 2 0 0 0 2-2V12z" fill="#414042"/><path d="M14 11a1 1 0 1 0-2 0v13a1 1 0 0 0 2 0V11zM20 11a1 1 0 1 0-2 0v13a1 1 0 1 0 2 0V11z" fill="#c1694f"/><path d="M37 11a1 1 0 0 0-1-1H8a1 1 0 1 0 0 2h28a1 1 0 0 0 1-1" fill="#808285"/><path d="M26.999 6a4 4 0 1 0 8 0 4 4 0 0 0-8 0" fill="#58595b"/><path d="M18.999 6a4 4 0 1 0 8 0 4 4 0 0 0-8 0" fill="#58595b"/><path d="M28.999 6A2 2 0 1 0 33 5.999 2 2 0 0 0 29 6M20.999 6A2 2 0 1 0 25 5.999 2 2 0 0 0 21 6" fill="#a0041e"/><path d="M13 34H7a1 1 0 0 1-1-1v-3h8v3a1 1 0 0 1-1 1" fill="#414042"/><path d="M36 30H24V12h12v18z" fill="#be1931"/><path d="M37 31a1 1 0 0 0-1-1H24a1 1 0 1 0 0 2h12a1 1 0 0 0 1-1" fill="#a0041e"/><path d="M34 14h-8v5h8v-5z" fill="#ea596e"/><path d="M31 5h-8c-.127 0-.253.024-.371.071L17.807 7H11a1 1 0 1 0 0 2h7c.127 0 .253-.024.371-.071L23.192 7H31a1 1 0 1 0 0-2" fill="#f4900c"/><path d="M34 27a1 1 0 0 1-1 1h-6a1 1 0 0 1-1-1v-5a1 1 0 0 1 1-1h6a1 1 0 0 1 1 1v5z" fill="#55acee"/></g></svg>