<svg xmlns="http://www.w3.org/2000/svg" viewBox="0 0 47.5 47.5"><defs><clipPath id="a"><path d="M0 38h38V0H0v38z"/></clipPath></defs><path d="M46.25 43.75h-45v2.5h45v-2.5z" fill="#939598"/><g clip-path="url(#a)" transform="matrix(1.25 0 0 -1.25 0 47.5)"><path d="M11 5a3 3 0 1 1-6 0 3 3 0 0 1 6 0" fill="#58595b"/><path d="M10 5a2 2 0 1 1-4 0 2 2 0 0 1 4 0" fill="#292f33"/><path d="M33 5a3 3 0 1 1-6 0 3 3 0 0 1 6 0" fill="#58595b"/><path d="M32 5a2 2 0 1 1-4 0 2 2 0 0 1 4 0" fill="#292f33"/><path d="M35 35H3a1 1 0 0 0 0 2h32a1 1 0 1 0 0-2" fill="#e6e7e8"/><path d="M18.5 28.915l-3.003 3.003L18.5 34.32l3.003-2.403-3.003-3.003zm5.499 3.14a1.003 1.003 0 0 1-.374.727l-3.682 2.945a.98.98 0 0 1-.162.898.987.987 0 0 1-1.281.22.987.987 0 0 1-1.281-.22.98.98 0 0 1-.162-.898l-3.682-2.945a1.003 1.003 0 0 1-.082-1.488l3.834-3.835A.99.99 0 0 1 18 26c.176 0 .344.063.5.155A.991.991 0 0 1 19 26a.987.987 0 0 1 .872 1.458l3.836 3.835a.998.998 0 0 1 .29.762" fill="#66757f"/><path d="M31 27a2 2 0 0 0-2-2H9a2 2 0 0 0 0 4h20a2 2 0 0 0 2-2" fill="#bcbec0"/><path d="M37 15a4 4 0 0 0-4-4H5a4 4 0 0 0-4 4v8a4 4 0 0 0 4 4h28a4 4 0 0 0 4-4v-8zM37 9H1V5h36v4z" fill="#e6e7e8"/><path d="M37 23H1V9h36v14z" fill="#be1931"/><path d="M37 23H1V13h6V7h7v6h10V7h7v6h6v10z" fill="#dd2e44"/><path d="M3 21H1V11h2a2 2 0 0 1 2 2v6a2 2 0 0 1-2 2M37 21h-2a2 2 0 0 1-2-2v-6a2 2 0 0 1 2-2h2v10zM22 15a1 1 0 0 0-1-1h-4a1 1 0 0 0-1 1v4a1 1 0 0 0 1 1h4a1 1 0 0 0 1-1v-4zM13 14a1 1 0 0 0-1-1H9a1 1 0 0 0-1 1v5a1 1 0 0 0 1 1h3a1 1 0 0 0 1-1v-5zM30 14a1 1 0 0 0-1-1h-3a1 1 0 0 0-1 1v5a1 1 0 0 0 1 1h3a1 1 0 0 0 1-1v-5z" fill="#55acee"/><path d="M37 7H1v2h36V7z" fill="#a0041e"/></g></svg>