<svg xmlns="http://www.w3.org/2000/svg" viewBox="0 0 47.5 47.5"><defs><clipPath id="a"><path d="M0 38h38V0H0v38z"/></clipPath></defs><path d="M1.25 46.25h35L24.219 25H13.28L1.25 46.25z" fill="#a7a9ac"/><path d="M4.531 46.25H32.97L22.03 25H15.47L4.53 46.25z" fill="#58595b"/><path d="M7.813 46.25h21.875L19.843 25h-2.188L7.813 46.25z" fill="#808285"/><g clip-path="url(#a)" transform="matrix(1.25 0 0 -1.25 0 47.5)"><path d="M25 2a1 1 0 0 0-1-1H6a1 1 0 1 0 0 2h18a1 1 0 0 0 1-1M23 6a1 1 0 0 0-1-1H8a1 1 0 1 0 0 2h14a1 1 0 0 0 1-1M21 10a1 1 0 0 0-1-1H10a1 1 0 1 0 0 2h10a1 1 0 0 0 1-1" fill="#a7a9ac"/><path d="M7.896 13.18C8.88 11.954 10.186 11 11.5 11h7c1.313 0 2.62.955 3.604 2.18l-2.23 3.938C18.685 17.02 17.119 17 15 17c-2.157 0-3.74-.023-4.937.008L7.896 13.18z" fill="#58595b"/><path d="M16 34a1 1 0 0 0-2 0v1a1 1 0 0 0 2 0v-1z" fill="#414042"/><path d="M19 32a2 2 0 0 0-2-2h-4a2 2 0 0 0 0 4h4a2 2 0 0 0 2-2" fill="#6d6e71"/><path d="M24 19c0-2.209-3.412-5-5.4-5h-7.2C9.412 14 6 16.791 6 19v10c0 2.209 1.612 4 3.6 4h10.8c1.988 0 3.6-1.791 3.6-4V19z" fill="#d1d3d4"/><path d="M22 21a4 4 0 0 0-4-4h-6a4 4 0 0 0-4 4v5c0 2.209 1.791 3 4 3h6c2.209 0 4-.791 4-3v-5z" fill="#808285"/><path d="M12 22h6a4 4 0 0 1 4 4v1H8v-1a4 4 0 0 1 4-4" fill="#55acee"/><path d="M15 17c-6.3 0-7.878 1.801-9 3.242V19c0-2.209 2.7-6 5.4-6h7.2c2.7 0 5.4 3.791 5.4 6v1.891C22.879 19.161 21.3 17 15 17" fill="#5c913b"/><path d="M12 19.5a1.5 1.5 0 1 0-3.001.001A1.5 1.5 0 0 0 12 19.5M21 19.5a1.5 1.5 0 1 0-3.001.001A1.5 1.5 0 0 0 21 19.5" fill="#ffd983"/><path d="M22 27v2a2 2 0 0 1-2 2H10a2 2 0 0 1-2-2v-2h14z" fill="#292f33"/><path d="M18 29a1 1 0 0 0-1-1h-4a1 1 0 0 0 0 2h4a1 1 0 0 0 1-1" fill="#6d6e71"/><path d="M24 14.06L33 1h4v5h-4l-9 10v-1.94z" fill="#58595b"/><path d="M37 6v10H24l9-10h4z" fill="#a7a9ac"/><path d="M34 13c0-1 0-1-1-1s-1 0-1 1v11a1 1 0 1 0 2 0V13z" fill="#6d6e71"/><path d="M34 20c0-1 0-1-1-1s-1 0-1 1v7a1 1 0 1 0 2 0v-7z" fill="#939598"/><path d="M37 26a2 2 0 0 0-2-2h-4a2 2 0 0 0-2 2v2a2 2 0 0 0 2 2h4a2 2 0 0 0 2-2v-2z" fill="#58595b"/><path d="M35 27a1 1 0 0 0-1-1h-2a1 1 0 1 0 0 2h2a1 1 0 0 0 1-1" fill="#939598"/></g></svg>