<svg xmlns="http://www.w3.org/2000/svg" viewBox="0 0 47.5 47.5"><defs><clipPath id="a"><path d="M0 38h38V0H0v38z"/></clipPath></defs><path d="M46.25 43.75h-45v2.5h45v-2.5z" fill="#939598"/><g clip-path="url(#a)" transform="matrix(1.25 0 0 -1.25 0 47.5)"><path d="M6 4.936L37 5v25.998H18C12 31 11 28 11 28S6 15 6 13V4.935z" fill="#d1d3d4"/><path d="M15 7a1 1 0 0 0-1-1H6a1 1 0 0 0-1 1v2a1 1 0 0 0 1 1h8a1 1 0 0 0 1-1V7z" fill="#d1d3d4"/><path d="M37 2H5.527c-.531 0-1.136.671-1.353 1.5l-.782 3C3.175 7.329 4 8 5 8h32V2z" fill="#f4900c"/><path d="M37 27H23.007c-1.987 0-3.907-1.791-4.286-4l-1.033-6c-.38-2.209 1.103-4 3.312-4h16v14z" fill="#414042"/><path d="M37 25H24.095c-2.095 0-2.791-1.279-3.062-2.857l-.737-4.286C20.024 16.279 20.422 15 22 15h15v10z" fill="#3b88c3"/><path d="M18 31c-6 0-7-3-7-3S6.008 15.021 6 13.006c2.448.036 4.116.344 5 2.995C12 19 13 23 14 25c1 2 2 3 5 3 2.493 0 3.592 1.386 3.896 3H18z" fill="#414042"/><path d="M10 19c.944 2.832 3.663 7.442.6 7.95-.841-2.222-2.807-7.49-3.877-10.95H7s2 0 3 3" fill="#55acee"/><path d="M10 11a1 1 0 0 0-1-1H7a1 1 0 1 0 0 2h2a1 1 0 0 0 1-1" fill="#dd2e44"/></g></svg>