<svg xmlns="http://www.w3.org/2000/svg" viewBox="0 0 47.5 47.5"><defs><clipPath id="a"><path d="M0 38h38V0H0v38z"/></clipPath></defs><path d="M46.25 43.75h-45v2.5h45v-2.5z" fill="#939598"/><g clip-path="url(#a)" transform="matrix(1.25 0 0 -1.25 0 47.5)"><path d="M4 2h33v27S8 28 1 13.001c-2.115-4.531 6-6 6-6L4 2z" fill="#bcbec0"/><path d="M24 19L9 12H.69C.106 8.251 7 7 7 7L4 2h33v19.71L24 19z" fill="#3b88c3"/><path d="M15 2l2 3h20V2H15z" fill="#231f20"/><path d="M37 22.858c-4.347-.358-13.388-1.62-19.581-6.044-5.604-4.002-11.877-3.899-16.033-3.829l-.39.006c-.347-.748-.411-1.41-.283-1.998.214-.003.411-.004.64-.008.553-.009 1.155-.019 1.799-.019 4.185 0 10.108.42 15.429 4.221C23.812 18.922 32.034 20.428 37 20.86v2z" fill="#e6e7e8"/><path d="M13 21l3.878 4.93C21.727 27.867 30 28.98 37 28.98v-2c-7 0-18-1.98-24-5.98" fill="#a7a9ac"/><path d="M4.095 17.535c1.672.392 3.617.723 5.44 1.65C19 24 20.008 26.983 20 27c-7 0-12-4-15.905-9.465" fill="#58595b"/><path d="M7 7.001L6.999 7H37v2H2.113C3.988 7.548 7 7.001 7 7.001" fill="#269"/><path d="M4.55 14.855a7.761 7.761 0 0 1 1.59.06c1.642.222 2.913.846 2.84 1.394-.075.54-1.436.802-3.053.593-.649-.63-1.12-1.325-1.378-2.047" fill="#ffe8b6"/></g></svg>