<svg xmlns="http://www.w3.org/2000/svg" viewBox="0 0 47.5 47.5"><defs><clipPath id="a"><path d="M0 38h38V0H0v38z"/></clipPath></defs><g clip-path="url(#a)" transform="matrix(1.25 0 0 -1.25 0 47.5)"><path d="M1 15V8a3 3 0 0 1 3-3h30a3 3 0 0 1 3 3v7H1z" fill="#808285"/><path d="M37 14v9c0 1.657-3.343 3-5 3H12c-8 0-11-2.343-11-4v-8h36z" fill="#ccd6dd"/><path d="M37 11H1v3h36v-3z" fill="#939598"/><path d="M8 11a5.998 5.998 0 0 1-5.95-5.263A2.974 2.974 0 0 1 4 5h10a6 6 0 0 1-6 6M35.95 5.737A5.998 5.998 0 0 1 24 5h10c.75 0 1.425.284 1.95.737" fill="#bcbec0"/><path d="M12 5a4 4 0 1 0-8 0 4 4 0 0 0 8 0"/><path d="M10 5a2 2 0 1 0-4.001.001A2 2 0 0 0 10 5" fill="#99aab5"/><path d="M34 5a4 4 0 1 0-8 0 4 4 0 0 0 8 0"/><path d="M32 5a2 2 0 1 0-4.001.001A2 2 0 0 0 32 5" fill="#99aab5"/><path d="M2 9H1v2h1V9zM37 11h-1v2h1v-2z" fill="#f4900c"/><path d="M37 13H2v10h35V13z" fill="#58595b"/><path d="M3 23H1.342C1.11 22.656 1 22.315 1 22V11h2a2 2 0 0 1 2 2v8a2 2 0 0 1-2 2" fill="#292f33"/><path d="M32 16a1 1 0 0 0-1-1H8a1 1 0 0 0-1 1v4a1 1 0 0 0 1 1h23a1 1 0 0 0 1-1v-4z" fill="#55acee"/><path d="M37 17h-1v-2h1v2z" fill="#ffac33"/><path d="M2 21H1v-8h1a1 1 0 0 1 1 1v6a1 1 0 0 1-1 1" fill="#55acee"/></g></svg>