<svg xmlns="http://www.w3.org/2000/svg" viewBox="0 0 47.5 47.5"><defs><clipPath id="a"><path d="M0 38h38V0H0v38z"/></clipPath></defs><path d="M21.25 46.25h-2.5V10h2.5v36.25z" fill="#6d6e71"/><path d="M23.75 27.5H20V25h3.75v2.5zM23.75 20H20v-2.5h3.75V20z" fill="#6d6e71"/><g clip-path="url(#a)" transform="matrix(1.25 0 0 -1.25 0 47.5)"><path d="M30 13a1 1 0 0 0-1-1h-9a1 1 0 0 0-1 1v14a1 1 0 0 0 1 1h9a1 1 0 0 0 1-1V13z" fill="#bcbec0"/><path d="M30 24v3a1 1 0 0 1-1 1h-9a1 1 0 0 1-1-1v-3h11z" fill="#be1931"/><path d="M22 3H10L9 2V1h14v1l-1 1zM20 5h-8l-1-1V3h10v1l-1 1z" fill="#6d6e71"/><path d="M12 33a4 4 0 1 0 8 0 4 4 0 0 0-8 0" fill="#be1931"/><path d="M24 21h-3v3h3v-3z" fill="#808285"/><path d="M24 17h-3v3h3v-3zM24 13h-3v3h3v-3z" fill="#f4900c"/><path d="M28 21h-3v3h3v-3zM28 17h-3v3h3v-3z" fill="#808285"/><path d="M28 13h-3v3h3v-3z" fill="#f4900c"/><path d="M18 31h-4v4h4v-4zM28 25h-7v2h7v-2z" fill="#dd2e44"/></g></svg>