<svg xmlns="http://www.w3.org/2000/svg" viewBox="0 0 47.5 47.5"><defs><clipPath id="a"><path d="M0 38h38V0H0v38z"/></clipPath></defs><path d="M46.25 36.25h-45v-5h45v5z" fill="#6d6e71"/><path d="M46.25 33.75h-45v-5h45v5zM13.75 46.25h-5v-10h5v10zM26.25 46.25h-5v-10h5v10zM38.75 46.25h-5v-10h5v10z" fill="#939598"/><path d="M13.75 38.75h-5V35h5v3.75zM26.25 38.75h-5V35h5v3.75zM38.75 38.75h-5V35h5v3.75z" fill="#6d6e71"/><g clip-path="url(#a)" transform="matrix(1.25 0 0 -1.25 0 47.5)"><path d="M37 37h-6a2 2 0 0 1-2-2v-2a2 2 0 0 1 2-2h6v6z" fill="#bcbec0"/><path d="M37 17v-5H19c-3 0-7 5-7 5h25z" fill="#d1d3d4"/><path d="M12 17s.75-.937 1.843-2H37v2H12z" fill="#bcbec0"/><path d="M37 17H11c-3 0-7 3-7 6 0 5.001 16 12 18 12h15V17z" fill="#e6e7e8"/><path d="M4.741 25C4.281 24.313 4 23.64 4 23c0-1.655 1.221-3.308 2.816-4.459C22.231 23 37 23 37 23v2H4.741z" fill="#5c913b"/><path d="M22 33h-5.553c-3.327-1.524-7.344-3.738-9.899-6H22a2 2 0 0 1 2 2v2a2 2 0 0 1-2 2M27 28a1 1 0 1 0-2 0v4a1 1 0 1 0 2 0v-4zM35 28a1 1 0 0 0-1-1h-4a1 1 0 0 0-1 1v4a1 1 0 0 0 1 1h4a1 1 0 0 0 1-1v-4z" fill="#55acee"/></g></svg>