<svg xmlns="http://www.w3.org/2000/svg" viewBox="0 0 47.5 47.5"><defs><clipPath id="a"><path d="M0 38h38V0H0v38z"/></clipPath></defs><g clip-path="url(#a)" transform="matrix(1.25 0 0 -1.25 0 47.5)"><path d="M36 29c0 1-1 4-4 4H10.401C7 33 1 21 1 18v-6a4 4 0 0 1 4-4h28a4 4 0 0 1 4 4v10c0 1.027-1 7-1 7" fill="#ccd6dd"/><path d="M37 13H1v3h36v-3z" fill="#66757f"/><path d="M10 14a5.997 5.997 0 0 1-5.992-5.861C4.327 8.058 4.655 8 5 8h11a6 6 0 0 1-6 6M33.993 8.14A5.996 5.996 0 0 1 22 8h11c.345 0 .674.058.993.14" fill="#e1e8ed"/><path d="M6.686 13h6.628c-.95.631-2.088 1-3.314 1a5.96 5.96 0 0 1-3.315-1M24.686 13h6.63c-.95.632-2.09 1-3.316 1a5.969 5.969 0 0 1-3.313-1" fill="#99aab5"/><path d="M14 8a4 4 0 1 0-8 0 4 4 0 0 0 8 0" fill="#292f33"/><path d="M12 8a2 2 0 1 0-4.001.001A2 2 0 0 0 12 8" fill="#99aab5"/><path d="M32 8a4 4 0 1 0-8 0 4 4 0 0 0 8 0" fill="#292f33"/><path d="M30 8a2 2 0 1 0-4.001.001A2 2 0 0 0 30 8" fill="#99aab5"/><path d="M6 26h6v-7H3l3 7zM22 19h-8v7h8v-7zM24 26v-7h13v3c0 .525-.262 2.347-.518 4H24z" fill="#55acee"/><path d="M34 28H8a1 1 0 0 0 0 2h26a1 1 0 1 0 0-2" fill="#99aab5"/></g></svg>