<svg xmlns="http://www.w3.org/2000/svg" viewBox="0 0 47.5 47.5"><defs><clipPath id="a"><path d="M0 38h38V0H0v38z"/></clipPath></defs><g clip-path="url(#a)" transform="matrix(1.25 0 0 -1.25 0 47.5)"><path d="M1 2h36v25s-6.001 10-9.001 10C24.999 37 18 28 16 26s-4.5-.5-6 1-3 3-4 3-5-7-5-7V2z" fill="#d1d3d4"/><path d="M37 1H1v2h36V1z" fill="#939598"/><path d="M15 5a3 3 0 1 1-6 0 3 3 0 0 1 6 0" fill="#58595b"/><path d="M14 5a2 2 0 1 1-4 0 2 2 0 0 1 4 0" fill="#292f33"/><path d="M23 5a3 3 0 1 1-6 0 3 3 0 0 1 6 0" fill="#58595b"/><path d="M22 5a2 2 0 1 1-4 0 2 2 0 0 1 4 0" fill="#292f33"/><path d="M37 23H8a4 4 0 0 1-4-4V9a4 4 0 0 1 4-4h29v18z" fill="#ffe8b6"/><path d="M37 23H8c-1.477 0-2.752-.81-3.445-2H37v2z" fill="#77b255"/><path d="M37 9H4a4 4 0 0 1 4-4h29v4z" fill="#5c913b"/><path d="M37 11H4V9h33v2z" fill="#ffac33"/><path d="M10 13H4v5h6v-5zM16 15a1 1 0 0 0-1-1h-2a1 1 0 0 0-1 1v2a1 1 0 0 0 1 1h2a1 1 0 0 0 1-1v-2zM21 15a1 1 0 0 0-1-1h-2a1 1 0 0 0-1 1v2a1 1 0 0 0 1 1h2a1 1 0 0 0 1-1v-2zM28 15a1 1 0 0 0-1-1h-2a1 1 0 0 0-1 1v2a1 1 0 0 0 1 1h2a1 1 0 0 0 1-1v-2zM35 15a1 1 0 0 0-1-1h-2a1 1 0 0 0-1 1v2a1 1 0 0 0 1 1h2a1 1 0 0 0 1-1v-2z" fill="#55acee"/><path d="M23.5 19a.5.5 0 0 1-.5-.5v-10c0-.275.225-.5.5-.5h5c.275 0 .5.225.5.5v10a.5.5 0 0 1-.5.5h-5zm5-12h-5c-.827 0-1.5.673-1.5 1.5v10c0 .827.673 1.5 1.5 1.5h5c.827 0 1.5-.673 1.5-1.5v-10c0-.827-.673-1.5-1.5-1.5" fill="#66757f"/></g></svg>