<svg xmlns="http://www.w3.org/2000/svg" viewBox="0 0 47.5 47.5"><defs><clipPath id="a"><path d="M0 38h38V0H0v38z"/></clipPath></defs><g clip-path="url(#a)" transform="matrix(1.25 0 0 -1.25 0 47.5)"><path d="M37 17a1 1 0 0 0-1-1h-1a1 1 0 0 0-1 1v6a1 1 0 0 0 1 1h1a1 1 0 0 0 1-1v-6z" fill="#292f33"/><path d="M6 10h26c1 0 3 1 3 4 0 2 0 8-1 9s0 7-4 7H16c-3 0-6-7-6-7l-4-1s-4-1-4-4v-3s-1-.338-1-1.957S2 11 2 11l4-1z" fill="#3b88c3"/><path d="M14 10a4 4 0 1 0-8 0 4 4 0 0 0 8 0" fill="#292f33"/><path d="M12 10a2 2 0 1 0-4.001.001A2 2 0 0 0 12 10" fill="#ccd6dd"/><path d="M32 10a4 4 0 1 0-8 0 4 4 0 0 0 8 0" fill="#292f33"/><path d="M30 10a2 2 0 1 0-4.001.001A2 2 0 0 0 30 10" fill="#ccd6dd"/><path d="M25 24a1 1 0 0 1 1-1h4a1 1 0 0 1 1 1v3a1 1 0 0 1-1 1h-4a1 1 0 0 1-1-1v-3zM14 24c0-1 .448-1 1-1h7a1 1 0 0 1 1 1v3a1 1 0 0 1-1 1h-5c-1 0-3-3-3-4" fill="#bbddf5"/><path d="M33 17.5a1.5 1.5 0 0 0-1.5-1.5h-22a1.5 1.5 0 1 0 0 3h22a1.5 1.5 0 0 0 1.5-1.5" fill="#55acee"/></g></svg>