<svg xmlns="http://www.w3.org/2000/svg" viewBox="0 0 47.5 47.5"><defs><clipPath id="a"><path d="M0 38h38V0H0v38z"/></clipPath></defs><g clip-path="url(#a)" transform="matrix(1.25 0 0 -1.25 0 47.5)"><path d="M14 8h20s3 0 3 4c0 2 0 6-1 7s-8 7-11 7h-6c-3 0-10-7-10-7l-4-1s-3-1-3-3v-3s-1-.338-1-1.957C1 8 3 8 3 8h11z" fill="#dd2e44"/><path d="M21 24h-2c-2 0-8-6-8-6s4.997.263 10 .519V24zM31 21c-1 1-5 3-7 3h-1v-5.379c4.011.204 7.582.379 8 .379 1 0 1 1 0 2" fill="#bbddf5"/><path d="M15 9a4 4 0 1 0-8 0 4 4 0 0 0 8 0" fill="#292f33"/><path d="M13 9a2 2 0 1 0-4.001.001A2 2 0 0 0 13 9" fill="#ccd6dd"/><path d="M32 9a4 4 0 1 0-8 0 4 4 0 0 0 8 0" fill="#292f33"/><path d="M30 9a2 2 0 1 0-4.001.001A2 2 0 0 0 30 9" fill="#ccd6dd"/></g></svg>