<svg xmlns="http://www.w3.org/2000/svg" viewBox="0 0 47.5 47.5"><defs><clipPath id="a"><path d="M0 38h38V0H0v38z"/></clipPath></defs><g clip-path="url(#a)" transform="matrix(1.25 0 0 -1.25 0 47.5)"><path d="M36 27c0 1-1 4-4 4H10.401c-1.377 0-3.289-1.791-4.302-4L3 22c-1.453-.599-2-2.331-2-4v-6a4 4 0 0 1 4-4h28a4 4 0 0 1 4 4v8c0 1.027-1 7-1 7" fill="#ccd6dd"/><path d="M10 14a5.997 5.997 0 0 1-5.992-5.861C4.327 8.058 4.655 8 5 8h11a6 6 0 0 1-6 6M33.993 8.14A5.996 5.996 0 0 1 22 8h11c.345 0 .674.058.993.14" fill="#e1e8ed"/><path d="M14 8a4 4 0 1 0-8 0 4 4 0 0 0 8 0" fill="#292f33"/><path d="M12 8a2 2 0 1 0-4.001.001A2 2 0 0 0 12 8" fill="#99aab5"/><path d="M32 8a4 4 0 1 0-8 0 4 4 0 0 0 8 0" fill="#292f33"/><path d="M30 8a2 2 0 1 0-4.001.001A2 2 0 0 0 30 8" fill="#99aab5"/><path d="M37 15H1v3h36v-3zM32 26h-3v3h-2v-3h-3v-2h3v-3h2v3h3v2z" fill="#dd2e44"/><path d="M9 29h5v-7H5l4 7z" fill="#55acee"/><path d="M16 32.5a1.5 1.5 0 0 0-1.5-1.5h-2a1.5 1.5 0 1 0 0 3h2a1.5 1.5 0 0 0 1.5-1.5" fill="#dd2e44"/><path d="M19 32.5a1.5 1.5 0 0 0-1.5-1.5h-2a1.5 1.5 0 1 0 0 3h2a1.5 1.5 0 0 0 1.5-1.5" fill="#55acee"/></g></svg>