<svg xmlns="http://www.w3.org/2000/svg" viewBox="0 0 47.5 47.5"><defs><clipPath id="a"><path d="M0 38h38V0H0v38z"/></clipPath></defs><path d="M18.75 26.25H15V15h3.75v11.25z" fill="#ccd6dd"/><g clip-path="url(#a)" transform="matrix(1.25 0 0 -1.25 0 47.5)"><path d="M25 10.843C25 8.168 23.354 6 21.325 6H5.709C3.68 6 2.221 7.565 2.452 9.494l.624 5.242c.231 1.929 1.992 3.807 3.928 4.199l14.629 3.21C23.496 22.587 25 20.78 25 18.108v-7.265z" fill="#77b255"/><path d="M17.535 12.833C17.24 10.717 18.79 9 21 9h9c2.209 0 4 1.717 4 3.833v15.333C34 30.284 32.547 32 30.755 32h-7.303c-1.792 0-3.484-1.716-3.78-3.834l-2.137-15.333z" fill="#292f33"/><path d="M19.245 12c-.135-1.104.65-2 1.755-2h9a2 2 0 0 1 2 2v14c0 1.104-.743 2-1.66 2h-7.473c-.917 0-1.77-.896-1.906-2l-1.716-14z" fill="#bbddf5"/><path d="M34 16H16V6h18v10z" fill="#77b255"/><path d="M34 14H3l1 2h30v-2z" fill="#ffcc4d"/><path d="M13 6a4 4 0 1 0-8 0 4 4 0 0 0 8 0" fill="#292f33"/><path d="M11 6a2 2 0 1 0-4.001.001A2 2 0 0 0 11 6" fill="#ffcc4d"/><path d="M34 21v-4L24 8l-7 1 3 10 3 2h11z" fill="#77b255"/><path d="M19.222 10.889a8.888 8.888 0 0 0 8.89 8.889A8.888 8.888 0 0 0 37 10.888 8.888 8.888 0 0 0 28.111 2a8.888 8.888 0 0 0-8.889 8.889" fill="#292f33"/><path d="M33.667 10.889a5.556 5.556 0 1 0-11.112 0 5.556 5.556 0 0 0 11.112 0" fill="#ffcc4d"/><path d="M31.444 10.889a3.333 3.333 0 1 0-6.667 0 3.333 3.333 0 1 0 6.667 0" fill="#ffe8b6"/><path d="M33.588 30c-.552 1.187-1.606 2-2.833 2h-7.303c-1.226 0-2.394-.813-3.112-2h13.248z" fill="#77b255"/><path d="M30.333 10.889a2.222 2.222 0 1 0-4.444 0 2.222 2.222 0 0 0 4.444 0M10 6a1 1 0 1 0-2 0 1 1 0 0 0 2 0" fill="#f4900c"/><path d="M15 22h-3v2h3v-2z" fill="#66757f"/><path d="M17 8.25a1 1 0 0 0-.959 1.284l2 6.75c.38 1.92 2.146 5.716 5.96 5.716h10a1 1 0 0 0 0-2H24c-3.144 0-4.012-4.154-4.02-4.196l-2.022-6.838A1 1 0 0 0 17 8.25" fill="#5c913b"/><path d="M3.002 8a1 1 0 0 0-.994 1.124l1 8a1 1 0 0 0 1.985-.248l-1-8A1 1 0 0 0 3.002 8" fill="#3e721d"/></g></svg>