<svg xmlns="http://www.w3.org/2000/svg" viewBox="0 0 47.5 47.5"><defs><clipPath id="a"><path d="M0 38h38V0H0v38z"/></clipPath></defs><g clip-path="url(#a)" transform="matrix(1.25 0 0 -1.25 0 47.5)"><path d="M33 14s-2 8-5 8H17c-3 0-7-7-7-7s-8-1-8-5V8c0-.09.021-.175.026-.263A1.992 1.992 0 0 1 1 6a2 2 0 0 1 2-2h30a4 4 0 0 1 4 4v2a4 4 0 0 1-4 4" fill="#e1e8ed"/><path d="M2 10V8c0-.09.021-.175.026-.263A1.992 1.992 0 0 1 1 6a2 2 0 0 1 2-2h30a4 4 0 0 1 4 4v2c0 .348-.059.679-.142 1H2.201A2.803 2.803 0 0 1 2 10"/><path d="M16.91 4c.055.326.09.658.09 1A6 6 0 0 1 5 5c0-.342.035-.674.09-1h11.82zM33.91 4c.055.326.09.658.09 1a6 6 0 0 1-12 0c0-.342.035-.674.09-1h11.82z" fill="#66757f"/><path d="M15 5a4 4 0 1 0-8 0 4 4 0 0 0 8 0"/><path d="M13 5a2 2 0 1 0-4.001.001A2 2 0 0 0 13 5" fill="#e1e8ed"/><path d="M32 5a4 4 0 1 0-8 0 4 4 0 0 0 8 0"/><path d="M30 5a2 2 0 1 0-4.001.001A2 2 0 0 0 30 5" fill="#e1e8ed"/><path d="M22 23a1 1 0 0 0-1-1h-3a1 1 0 0 0 0 2h3a1 1 0 0 0 1-1" fill="#dd2e44"/><path d="M23 23a1 1 0 0 0-1-1h-2a1 1 0 0 0 0 2h2a1 1 0 0 0 1-1M24 15h7s-2 5-3 5h-4v-5zM22 20h-5c-2 0-5-5-5-5h10v5z" fill="#55acee"/></g></svg>