<svg xmlns="http://www.w3.org/2000/svg" viewBox="0 0 47.5 47.5"><defs><clipPath id="a"><path d="M0 38h38V0H0v38z"/></clipPath></defs><g clip-path="url(#a)" transform="matrix(1.25 0 0 -1.25 0 47.5)"><path d="M31 21a2 2 0 0 0-2-2H19a2 2 0 0 0-2 2v2a2 2 0 0 0 2 2h10a2 2 0 0 0 2-2v-2z" fill="#58595b"/><path d="M5 23a4 4 0 0 1-4-4V9a8 8 0 0 1 8-8h28v22H5z" fill="#f4900c"/><path d="M1.587 6H37v2H1.069a7.962 7.962 0 0 1 .518-2" fill="#ffd983"/><path d="M37 29H1v6h36v-6z" fill="#808285"/><path d="M37 31H1v2h36v-2z" fill="#414042"/><path d="M29 37H19a3 3 0 1 1 0-6h3v-4l-2-2h8l-2 2v4h3a3 3 0 1 1 0 6" fill="#a7a9ac"/><path d="M15 8h22v15H15V8z" fill="#3b88c3"/><path d="M13 12a2 2 0 0 0-2-2H7a2 2 0 0 0-2 2v6a2 2 0 0 0 2 2h4a2 2 0 0 0 2-2v-6z" fill="#58595b"/><path d="M25 14a2 2 0 0 0-2-2h-4a2 2 0 0 0-2 2v4a2 2 0 0 0 2 2h4a2 2 0 0 0 2-2v-4zM35 14a2 2 0 0 0-2-2h-4a2 2 0 0 0-2 2v4a2 2 0 0 0 2 2h4a2 2 0 0 0 2-2v-4z" fill="#414042"/><path d="M1 20V10a2 2 0 0 1 2 2v6a2 2 0 0 1-2 2" fill="#58595b"/></g></svg>