<svg xmlns="http://www.w3.org/2000/svg" viewBox="0 0 47.5 47.5"><defs><clipPath id="a"><path d="M0 38h38V0H0v38z"/></clipPath></defs><g clip-path="url(#a)" transform="matrix(1.25 0 0 -1.25 0 47.5)"><path d="M35 4a2 2 0 0 0-2-2h-3a2 2 0 0 0-2 2v8a2 2 0 0 0 2 2h3a2 2 0 0 0 2-2V4zM10 4a2 2 0 0 0-2-2H5a2 2 0 0 0-2 2v8a2 2 0 0 0 2 2h3a2 2 0 0 0 2-2V4zM6 21.5A1.5 1.5 0 0 0 4.5 20h-2a1.5 1.5 0 1 0 0 3h2A1.5 1.5 0 0 0 6 21.5M32 21.5a1.5 1.5 0 0 1 1.5-1.5h2a1.5 1.5 0 1 1 0 3h-2a1.5 1.5 0 0 1-1.5-1.5" fill="#66757f"/><path d="M10 32c4 1 14 1 18 0 3.881-.97 5-11 5-11s2 0 2-4V9s0-3-3-4c-3.911-1.304-8-1-13-1S9.912 3.696 6 5C3 6 3 9 3 9v8s0 4 2 4c0 0 1.12 10.03 5 11" fill="#ccd6dd"/><path d="M19 16c-5.718 0-11.136.101-16 .279V9s0-3 3-4c3.912-1.304 8-1 13-1s9.089-.304 13 1c3 1 3 4 3 4v7.279A441.924 441.924 0 0 0 19 16" fill="#292f33"/><path d="M19 22c3.905 0 8.623-.2 12-.562L30 27c-1 3-7 3-11 3S9 30 8 27l-1-5.562c3.377.362 8.095.562 12 .562" fill="#55acee"/><path d="M13 13a2 2 0 0 0-2-2H7a2 2 0 0 0 0 4h4a2 2 0 0 0 2-2M25 13a2 2 0 0 1 2-2h4a2 2 0 0 1 0 4h-4a2 2 0 0 1-2-2" fill="#ccd6dd"/><path d="M30 8.5A1.5 1.5 0 0 0 28.5 7h-19a1.5 1.5 0 1 0 0 3h19A1.5 1.5 0 0 0 30 8.5" fill="#66757f"/><path d="M12.999 16c-.15 0-.303.034-.446.105l-6 3a1.001 1.001 0 0 0 .894 1.79l6-3A1.001 1.001 0 0 0 12.999 16M25.001 16a1 1 0 0 0-.448 1.895l6 3a1.001 1.001 0 0 0 .894-1.79l-6-3a1.003 1.003 0 0 0-.446-.105" fill="#99aab5"/><path d="M19 33.5a1.5 1.5 0 0 0-1.5-1.5h-7a1.5 1.5 0 1 0 0 3h7a1.5 1.5 0 0 0 1.5-1.5" fill="#dd2e44"/><path d="M29 33.5a1.5 1.5 0 0 0-1.5-1.5h-7a1.5 1.5 0 1 0 0 3h7a1.5 1.5 0 0 0 1.5-1.5" fill="#55acee"/><path d="M21 32h-4v3h4v-3z" fill="#f5f8fa"/></g></svg>