<svg xmlns="http://www.w3.org/2000/svg" viewBox="0 0 47.5 47.5"><defs><clipPath id="a"><path d="M0 38h38V0H0v38z"/></clipPath></defs><g clip-path="url(#a)" transform="matrix(1.25 0 0 -1.25 0 47.5)"><path d="M36 32H14a1 1 0 0 1 0-2h2v-2h2v2h2v-2h2v2h2v-2h2v2h2v-2h2v2h2v-2h2v2h2a1 1 0 1 1 0 2M37 27a1 1 0 0 0-1-1H14a1 1 0 0 0 0 2h22a1 1 0 0 0 1-1" fill="#ccd6dd"/><path d="M33 26H15s.041 2-2.979 2H6.146C1 28 1 20.041 1 20.041V13a4 4 0 0 1 4-4h28a4 4 0 0 1 4 4v9a4 4 0 0 1-4 4" fill="#dd2e44"/><path d="M35 18H3v-3h32v3z" fill="#f5f8fa"/><path d="M12 9a4 4 0 1 0-8 0 4 4 0 0 0 8 0"/><path d="M10 9a2 2 0 1 0-4.001.001A2 2 0 0 0 10 9" fill="#8899a6"/><path d="M33 9a4 4 0 1 0-8 0 4 4 0 0 0 8 0"/><path d="M31 9a2 2 0 1 0-4.001.001A2 2 0 0 0 31 9" fill="#8899a6"/><path d="M8 20H3s0 6 3 6h2v-6zM13 20h-3v6h1c1 0 2-1 2-2v-4z" fill="#55acee"/><path d="M9 29a1 1 0 0 0-1-1H6a1 1 0 0 0 0 2h2a1 1 0 0 0 1-1" fill="#ffac33"/><path d="M11 29a1 1 0 0 0-1-1H8a1 1 0 0 0 0 2h2a1 1 0 0 0 1-1" fill="#3b88c3"/></g></svg>