<svg xmlns="http://www.w3.org/2000/svg" viewBox="0 0 47.5 47.5"><defs><clipPath id="a"><path d="M0 38h38V0H0v38z"/></clipPath></defs><g clip-path="url(#a)" transform="matrix(1.25 0 0 -1.25 0 47.5)"><path d="M32 11H12v1a4 4 0 0 1-4 4H5a4 4 0 0 1-4-4V9a4 4 0 0 1 4-4h28a4 4 0 0 1 4 4v2h-5z" fill="#99aab5"/><path d="M11 24H8.146C5 24 4 22 4 22l-3-5.959V11h13v10a3 3 0 0 1-3 3" fill="#ffcc4d"/><path d="M10 16H3l2 4s1 2 3 2h2v-6z" fill="#55acee"/><path d="M11 5a4 4 0 1 0-8 0 4 4 0 0 0 8 0" fill="#292f33"/><path d="M9 5a2 2 0 1 0-4.001.001A2 2 0 0 0 9 5" fill="#ccd6dd"/><path d="M35 5a4 4 0 1 0-8 0 4 4 0 0 0 8 0" fill="#292f33"/><path d="M33 5a2 2 0 1 0-4.001.001A2 2 0 0 0 33 5" fill="#ccd6dd"/><path d="M25 5a4 4 0 1 0-8 0 4 4 0 0 0 8 0" fill="#292f33"/><path d="M23 5a2 2 0 1 0-4.001.001A2 2 0 0 0 23 5" fill="#ccd6dd"/><path d="M33 28H20a4 4 0 0 1-4-4V11h21v13a4 4 0 0 1-4 4" fill="#77b255"/></g></svg>