<svg xmlns="http://www.w3.org/2000/svg" viewBox="0 0 47.5 47.5"><defs><clipPath id="a"><path d="M0 38h38V0H0v38z"/></clipPath></defs><g clip-path="url(#a)" transform="matrix(1.25 0 0 -1.25 0 47.5)"><path d="M35 4a2 2 0 0 0-2-2h-3a2 2 0 0 0-2 2v8a2 2 0 0 0 2 2h3a2 2 0 0 0 2-2V4zM10 4a2 2 0 0 0-2-2H5a2 2 0 0 0-2 2v8a2 2 0 0 0 2 2h3a2 2 0 0 0 2-2V4z" fill="#292f33"/><path d="M10 32c4 1 14 1 18 0 3.881-.97 5-11 5-11s2 0 2-4V9s-.119-3.03-4-4c-4-1-7-1-12-1S11 4 7 5c-3.88.97-4 4-4 4v8s0 4 2 4c0 0 1.12 10.03 5 11" fill="#3b88c3"/><path d="M19 22c3.905 0 8.623-.2 12-.562L30 27c-1 3-7 3-11 3S9 30 8 27l-1-5.562c3.377.362 8.095.562 12 .562" fill="#bbddf5"/><path d="M6 21.5A1.5 1.5 0 0 0 4.5 20h-2a1.5 1.5 0 1 0 0 3h2A1.5 1.5 0 0 0 6 21.5M32 21.5a1.5 1.5 0 0 1 1.5-1.5h2a1.5 1.5 0 1 1 0 3h-2a1.5 1.5 0 0 1-1.5-1.5" fill="#3b88c3"/><path d="M12 14a3 3 0 0 0-3-3H8a3 3 0 1 0 0 6h1a3 3 0 0 0 3-3M33 14a3 3 0 0 0-3-3h-1a3 3 0 0 0 0 6h1a3 3 0 0 0 3-3" fill="#ffcc4d"/><path d="M13.001 15a1 1 0 0 0-.833.445c-1.742 2.614-6.319 3.565-6.365 3.575a1 1 0 0 0 .393 1.96c.221-.043 5.431-1.119 7.636-4.425A1.001 1.001 0 0 0 13.001 15M24.999 15a1 1 0 0 0-.831 1.555c2.204 3.306 7.415 4.382 7.636 4.425a1 1 0 0 0 .393-1.96c-.046-.01-4.623-.961-6.365-3.575a.998.998 0 0 0-.833-.445" fill="#269"/><path d="M19 8c-5.663 0-12.639.225-13.707 1.293a.999.999 0 0 0 1.267 1.536C6.792 10.729 8.845 10 19 10s12.208.729 12.44.829a.999.999 0 0 0 1.267-1.536C31.639 8.225 24.663 8 19 8" fill="#55acee"/><path d="M26 7.5C26 6 22.866 5 19 5s-7 1-7 2.5c0 .828 3.134.5 7 .5s7 .328 7-.5" fill="#269"/></g></svg>