<svg xmlns="http://www.w3.org/2000/svg" viewBox="0 0 47.5 47.5"><defs><clipPath id="a"><path d="M0 38h38V0H0v38z"/></clipPath></defs><g clip-path="url(#a)" transform="matrix(1.25 0 0 -1.25 0 47.5)"><path d="M37 12a4 4 0 0 0-4-4H5a4 4 0 0 0-4 4v3a4 4 0 0 0 4 4h28a4 4 0 0 0 4-4v-3z" fill="#dd2e44"/><path d="M20 26l-.979 1H8.146C5 27 4 25 4 25l-3-5.959V14h19v12z" fill="#ffcc4d"/><path d="M10 19H3l2 4s1 2 3 2h2v-6z" fill="#55acee"/><path d="M14 8a4 4 0 1 0-8 0 4 4 0 0 0 8 0" fill="#292f33"/><path d="M12 8a2 2 0 1 0-4.001.001A2 2 0 0 0 12 8" fill="#ccd6dd"/><path d="M32 8a4 4 0 1 0-8 0 4 4 0 0 0 8 0" fill="#292f33"/><path d="M28 10a2 2 0 1 1 .001-4.001A2 2 0 0 1 28 10M33 31H18a4 4 0 0 1-4-4V14h23v13a4 4 0 0 1-4 4" fill="#ccd6dd"/></g></svg>