<svg xmlns="http://www.w3.org/2000/svg" viewBox="0 0 47.5 47.5"><defs><clipPath id="a"><path d="M0 38h38V0H0v38z"/></clipPath></defs><g clip-path="url(#a)" transform="matrix(1.25 0 0 -1.25 0 47.5)"><path d="M36 19c0 9.389-7.611 17-17 17S2 28.389 2 19 9.611 2 19 2s17 7.611 17 17"/><path d="M24.703 20h-.017c-.407 0-.733.261-.733.668 0 .219.082 2.149 2.93 4.047 1.473.984 1.783 2.61 1.446 3.721-.315 1.042-1.164 1.63-2.328 1.63-1.77 0-2.26-.957-2.394-1.524-.169-.714.088-1.28.268-1.369.4-.199.8-.218 1.075-.049.196.122.301.331.301.606a.75.75 0 1 0 1.5 0c0-.799-.369-1.485-1.013-1.883-.72-.446-1.668-.451-2.534-.018-.907.453-1.36 1.766-1.057 3.053.396 1.675 1.836 2.675 3.854 2.675 1.844 0 3.251-1.011 3.764-2.704.601-1.986-.243-4.216-2.05-5.422-2.174-1.449-2.26-2.723-2.262-2.779-.019-.402-.35-.652-.75-.652M23 18H7s-2 0-2-2v-1c0-2 2-2 2-2h16v5zM28 18h-3v-5h3s2 0 2 2v1c0 2-2 2-2 2" fill="#fff"/><path d="M30.68 8.088L8.089 30.678C10.949 33.353 14.778 35 18.999 35c8.838 0 16-7.163 16-16 0-4.223-1.647-8.053-4.32-10.912M3.002 19c0 3.713 1.276 7.12 3.397 9.835L28.835 6.398A15.906 15.906 0 0 0 19 3C10.164 3 3 10.163 3 19m16 18C9.06 37 1 28.94 1 19 1 9.059 9.06 1 19 1c9.942 0 18 8.059 18 18 0 9.94-8.058 18-18 18" fill="#dd2e44"/></g></svg>