<svg xmlns="http://www.w3.org/2000/svg" viewBox="0 0 47.5 47.5"><defs><clipPath id="a"><path d="M0 38h38V0H0v38z"/></clipPath></defs><path d="M42.5 35H40l1.25-10h2.5L42.5 35z" fill="#5c913b"/><g clip-path="url(#a)" transform="matrix(1.25 0 0 -1.25 0 47.5)"><path d="M2 23c9.055-.053 11-1 17-2 2.959-.493 7-1 11-1 2 0 4-1 4-4 0-2 .534-3.186-5.433-3.814C24.59 11.766 14 14 10 16c-6 3-9 7.006-8 7" fill="#dd2e44"/><path d="M37 13H1V1h36v12z" fill="#55acee"/><path d="M6 24c4 0 11 0 18-1s10-1 10-3v-3c0-1.414-6.869-.447-10 0-7 1-14 3-18 4-4.047 1.01-7 3 0 3" fill="#ffcc4d"/><path d="M31.592 12.678c2.122.539 2.403 1.307 2.418 2.36-1.263-.618-3.7-.32-5.886-.046-7.96.996-16.481 2.936-24.721 5.609 1.043-1.04 2.584-2.29 4.568-3.484 6.706-1.901 13.484-3.306 19.905-4.11 1.258-.156 2.529-.31 3.716-.33" fill="#a0041e"/><path d="M13 13c3 2 7 5 6 3s-1.001-3 1-2c2 1 5 2 4 0s2-1 3 0 4 0 3-1-9-2-12-2-5 2-5 2" fill="#55acee"/><path d="M35 21h-1a2 2 0 0 1-2-2h1a1 1 0 0 0 1-1v-1h1c1.104 0 2-.104 2 1s-.896 3-2 3" fill="#5c913b"/><path d="M31 21c.97-.243 0-2-1-3s-10 1-10 1l2 3s5 0 9-1" fill="#c1694f"/><path d="M30 18c.328.328.645.737.899 1.147-1.474.764-3.629 1.386-6.079 1.665a22.208 22.208 0 0 1-3.527.127L20 19s9-2 10-1" fill="#a0041e"/><path d="M22 22v1l-4-1-2-2 4-1 2 3z" fill="#55acee"/><path d="M24 23c-.553 0-1-1.343-1-3 0-.612.062-1.181.167-1.655a10.975 10.975 0 0 1 1.592-.278C24.907 18.59 25 19.26 25 20c0 1.657-.447 3-1 3" fill="#292f33"/></g></svg>