<svg xmlns="http://www.w3.org/2000/svg" viewBox="0 0 47.5 47.5"><defs><clipPath id="a"><path d="M0 38h38V0H0v38z"/></clipPath></defs><path d="M26.25 7.5h-5V1.25h5V7.5z" fill="#292f33"/><path d="M26.25 8.75h-5v-5h5v5z" fill="#d1d3d4"/><path d="M26.25 8.75h-2.5v-5h2.5v5z" fill="#a7a9ac"/><g clip-path="url(#a)" transform="matrix(1.25 0 0 -1.25 0 47.5)"><path d="M19 18H6s1.355-8 4.875-14C14.394-2 19 4 19 4s4.606-6 8.125 0C30.645 10 32 18 32 18H19z" fill="#66757f"/><path d="M19 18H6s1.355-8 4.875-14C14.394-2 19 4 19 4v14z" fill="#99aab5"/><path d="M37 7H1V1h36v6z" fill="#55acee"/><path d="M31 28h-2.45l-.242 4H9.692l-.241-4H7v-6h2.088l-.242-4h20.308l-.242 4H31v6z" fill="#e6e7e8"/><path d="M11 22h16v-4H11v4z" fill="#d1d3d4"/><path d="M9 26h20v-2H9v2z" fill="#6d6e71"/><path d="M11 30h16v-2H11v2z" fill="#bcbec0"/><path d="M6.913 14h24.174c.2.747.368 1.427.5 2H6.413c.132-.573.3-1.253.5-2" fill="#be1931"/><path d="M19 14h12.087c.201.747.368 1.427.5 2H19v-2z" fill="#a0041e"/><path d="M25 18H13v2h12v-2z" fill="#bcbec0"/><path d="M19 35h-2v2h2v-2z" fill="#58595b"/></g></svg>