<svg xmlns="http://www.w3.org/2000/svg" viewBox="0 0 47.5 47.5"><defs><clipPath id="a"><path d="M0 38h38V0H0v38z"/></clipPath><clipPath id="b"><path d="M3 16s-2 0-2-2V9c0-2 2-2 2-2h29s2 0 2 2v5c0 2-2 2-2 2H3z"/></clipPath><clipPath id="c"><path d="M0 38h38V0H0v38z"/></clipPath></defs><g clip-path="url(#a)" transform="matrix(1.25 0 0 -1.25 0 47.5)"><path d="M34 9c0-2-2-2-2-2H3S1 7 1 9v5c0 2 2 2 2 2h29s2 0 2-2V9z" fill="#d99e82"/></g><g clip-path="url(#b)" transform="matrix(1.25 0 0 -1.25 0 47.5)"><path d="M26 1H13v20h13V1z" fill="#e1e8ed"/><path d="M36 3H26v16h10V3z" fill="#66757f"/></g><g clip-path="url(#c)" transform="matrix(1.25 0 0 -1.25 0 47.5)"><path d="M28.994 17a1 1 0 0 0-.988.855c-.03.2-.655 4.925 4.474 8.002 2.498 1.499 3.064 4.246 2.533 6.164-.248.896-1.136 2.979-4.018 2.979-3.142 0-3.916-1.845-4.104-2.638-.282-1.197.138-2.261.551-2.467.717-.359 1.45-.383 1.96-.068.388.24.593.646.593 1.173a1 1 0 1 0 2 0c0-1.221-.563-2.269-1.542-2.874-1.106-.683-2.566-.689-3.905-.021-1.385.693-2.075 2.721-1.603 4.717.617 2.616 2.88 4.178 6.05 4.178 2.908 0 5.186-1.703 5.945-4.445.89-3.208-.522-6.667-3.43-8.412-4-2.4-3.53-5.963-3.526-5.998a1 1 0 0 0-.99-1.145" fill="#ccd6dd"/></g></svg>