<svg xmlns="http://www.w3.org/2000/svg" viewBox="0 0 47.5 47.5"><defs><clipPath id="a"><path d="M0 38h38V0H0v38z"/></clipPath></defs><g clip-path="url(#a)" transform="matrix(1.25 0 0 -1.25 0 47.5)"><path d="M1 33c0 4 4 4 4 4h28s4 0 4-4V5s0-4-4-4H5S1 1 1 5v28z" fill="#99aab5"/><path d="M27 29.5c0-1.933-1.344-3.5-3-3.5s-3 1.567-3 3.5 1.344 3.5 3 3.5 3-1.567 3-3.5M30 24s0 2-2 2h-7c-1 0-2-1-2-1l-2-2h-4s-1 0-1-1 1-1 1-1h5l2 2V6s0-1 1-1h1s1 0 1 1v8s0 1 1 1 1-1 1-1V6s0-1 1-1h1s1 0 1 1v9s2 0 2 2v7z" fill="#fff"/><path d="M7 15s-1 0-1 1 1 1 1 1 2 0 2-2V7h6v8c0 2 2 2 2 2s1 0 1-1-1-1-1-1V7s0-2-2-2H9S7 5 7 7v8z" fill="#fff"/><path d="M14 17a2 2 0 1 0-4.001.001A2 2 0 0 0 14 17" fill="#fff"/></g></svg>