<svg xmlns="http://www.w3.org/2000/svg" viewBox="0 0 47.5 47.5"><defs><clipPath id="a"><path d="M0 38h38V0H0v38z"/></clipPath></defs><g clip-path="url(#a)" transform="matrix(1.25 0 0 -1.25 0 47.5)"><path d="M35.999 19.001c0-9.389-7.611-17-17-17s-17 7.611-17 17 7.611 17 17 17 17-7.611 17-17"/><path d="M24 29.5c0-1.933-1.344-3.5-3-3.5s-3 1.567-3 3.5 1.344 3.5 3 3.5 3-1.567 3-3.5M27 24s0 2-2 2h-7c-1 0-2-1-2-1l-2-2h-4s-1 0-1-1 1-1 1-1h5l2 1.171V6s0-1 1-1h1s1 0 1 1v8s0 1 1 1 1-1 1-1V6s0-1 1-1h1s1 0 1 1v9s2 0 2 2v7zM10.242 17.533c0-.847-.726-1.533-1.621-1.533S7 16.686 7 17.533c0 .847.726 1.533 1.62 1.533.896 0 1.622-.686 1.622-1.533" fill="#fff"/><path d="M14.242 14.533c0-.847-.726-1.533-1.621-1.533S11 13.686 11 14.533c0 .847.726 1.533 1.62 1.533.896 0 1.622-.686 1.622-1.533M12.242 10.533c0-.847-.726-1.533-1.621-1.533S9 9.686 9 10.533c0 .847.726 1.533 1.62 1.533.896 0 1.622-.686 1.622-1.533" fill="#fff"/><path d="M3 19c0 3.968 1.453 7.592 3.845 10.388L29.388 6.844A15.93 15.93 0 0 0 19 3C10.164 3 3 10.164 3 19m32 0c0-3.968-1.453-7.591-3.845-10.388L8.612 31.155A15.927 15.927 0 0 0 19 35c8.837 0 16-7.164 16-16M19 37C9.059 37 1 28.94 1 19 1 9.059 9.059 1 19 1s18 8.059 18 18c0 9.94-8.059 18-18 18" fill="#dd2e44"/></g></svg>