<svg xmlns="http://www.w3.org/2000/svg" viewBox="0 0 47.5 47.5"><defs><clipPath id="a"><path d="M0 38h38V0H0v38z"/></clipPath><clipPath id="b"><path d="M9 34H5a4 4 0 0 1-4-4v-8a4 4 0 0 1 4-4h28a4 4 0 0 1 4 4v8a4 4 0 0 1-4 4H9z"/></clipPath><clipPath id="c"><path d="M0 38h38V0H0v38z"/></clipPath></defs><g clip-path="url(#a)" transform="matrix(1.25 0 0 -1.25 0 47.5)"><path d="M37 22a4 4 0 0 0-4-4H5a4 4 0 0 0-4 4v8a4 4 0 0 0 4 4h28a4 4 0 0 0 4-4v-8z" fill="#ffcc4d"/></g><g clip-path="url(#b)" transform="matrix(1.25 0 0 -1.25 0 47.5)"><path d="M3 35l-18-18h5L8 35H3zM14 35L-4 17h5l18 18h-5zM25 35L7 17h5l18 18h-5zM36 35L18 17h5l18 18h-5zM47 35L29 17h5l18 18h-5z" fill="#292f33"/></g><g clip-path="url(#c)" fill="#99aab5" transform="matrix(1.25 0 0 -1.25 0 47.5)"><path d="M10 4H5v14h5V4zM33 4h-5v14h5V4z"/></g></svg>