<svg xmlns="http://www.w3.org/2000/svg" viewBox="0 0 47.5 47.5"><defs><clipPath id="a"><path d="M0 38h38V0H0v38z"/></clipPath></defs><path d="M25 16.25V7.5h-2.5v8.75h-6.25v6.25h15v-6.25H25z" fill="#58595b"/><g clip-path="url(#a)" transform="matrix(1.25 0 0 -1.25 0 47.5)"><path d="M35 9v10a4 4 0 0 1-4 4H7a4 4 0 0 1-4-4V9h32z" fill="#ffd983"/><path d="M3 15V9a8 8 0 0 1 8-8h16a8 8 0 0 1 8 8v6H3z" fill="#269"/><path d="M9 10H3v9h6v-9zM18 10h-7v9h7v-9zM27 10h-7v9h7v-9zM35 10h-6v9h6v-9z" fill="#88c9f9"/><path d="M34.213 26.023L4.27 34.046a1.001 1.001 0 0 0 .517 1.933l29.944-8.023a1 1 0 0 0-.518-1.933" fill="#6d6e71"/><path d="M24.348 32.639l-1.933.518.259.964-5.795 1.553-.26-.965-1.931.518a2 2 0 0 1-1.035-3.864l9.66-2.588a2 2 0 1 1 1.035 3.864" fill="#a7a9ac"/><path d="M14.877 32.07a2.001 2.001 0 1 0-3.865 1.037 2.001 2.001 0 0 0 3.865-1.038M26.469 28.964a2 2 0 1 0-3.863 1.035 2 2 0 0 0 3.863-1.035" fill="#808285"/><path d="M9 17H3v2h6v-2zM18 17h-7v2h7v-2zM27 17h-7v2h7v-2zM35 17h-6v2h6v-2z" fill="#55acee"/></g></svg>