<svg xmlns="http://www.w3.org/2000/svg" viewBox="0 0 47.5 47.5"><defs><clipPath id="a"><path d="M0 38h38V0H0v38z"/></clipPath></defs><g clip-path="url(#a)" transform="matrix(1.25 0 0 -1.25 0 47.5)"><path d="M7 12c-2.2 0-4.362-2.17-4 0l2.342 16.054C5.704 30.225 7.8 32 10 32h18c2.2 0 4.296-1.775 4.657-3.946L35 12c.361-2.17-1.8 0-4 0H7z" fill="#dd2e44"/><path d="M7.321 27.766c.196 1.17 1.45 2.234 2.68 2.234h9V9H7c-.616 0-2.473-3.854-3-4l3.32 22.766z" fill="#ea596e"/><path d="M3 4S1 4 1 6c0 1 1 6 1 6h34s1-5 1-6c0-2-2-2-2-2" fill="#99aab5"/></g></svg>