<svg xmlns="http://www.w3.org/2000/svg" viewBox="0 0 47.5 47.5"><defs><clipPath id="a"><path d="M0 38h38V0H0v38z"/></clipPath></defs><g clip-path="url(#a)" transform="matrix(1.25 0 0 -1.25 0 47.5)"><path d="M35 5h-3v28a4 4 0 0 1-4 4H10a4 4 0 0 1-4-4V5H3a2 2 0 0 1 0-4h32a2 2 0 0 1 0 4" fill="#bcbec0"/><path d="M30 4a3 3 0 0 0-3-3H11a3 3 0 0 0-3 3v28a3 3 0 0 0 3 3h16a3 3 0 0 0 3-3V4z" fill="#be1931"/><path d="M15 17.5a2.5 2.5 0 1 0-5 0 2.5 2.5 0 0 0 5 0" fill="#f4900c"/><path d="M14 17.5a1.5 1.5 0 1 0-3 0 1.5 1.5 0 0 0 3 0" fill="#ffd983"/><path d="M27 21h-4a1 1 0 1 0 0 2h3v7a1 1 0 1 0 2 0v-8a1 1 0 0 0-1-1" fill="#ea596e"/><path d="M21 23a1 1 0 0 0-1 1v8a1 1 0 0 0 1 1h4a1 1 0 1 0 0-2h-3v-7a1 1 0 0 0-1-1" fill="#a0041e"/><path d="M17 21h-4a1 1 0 0 0 0 2h3v7a1 1 0 0 0 2 0v-8a1 1 0 0 0-1-1" fill="#ea596e"/><path d="M11 23a1 1 0 0 0-1 1v8a1 1 0 0 0 1 1h4a1 1 0 0 0 0-2h-3v-7a1 1 0 0 0-1-1" fill="#a0041e"/><path d="M27 3h-4a1 1 0 1 0 0 2h3v6a1 1 0 1 0 2 0V4a1 1 0 0 0-1-1" fill="#ea596e"/><path d="M21 5a1 1 0 0 0-1 1v7a1 1 0 0 0 1 1h4a1 1 0 1 0 0-2h-3V6a1 1 0 0 0-1-1" fill="#a0041e"/><path d="M17 3h-4a1 1 0 1 0 0 2h3v6a1 1 0 1 0 2 0V4a1 1 0 0 0-1-1" fill="#ea596e"/><path d="M11 5a1 1 0 0 0-1 1v7a1 1 0 0 0 1 1h4a1 1 0 1 0 0-2h-3V6a1 1 0 0 0-1-1" fill="#a0041e"/></g></svg>