<svg xmlns="http://www.w3.org/2000/svg" viewBox="0 0 47.5 47.5"><defs><clipPath id="a"><path d="M0 38h38V0H0v38z"/></clipPath></defs><g clip-path="url(#a)" transform="matrix(1.25 0 0 -1.25 0 47.5)"><path d="M27 19v-2H14.293c-.867 0-1.835-.896-2.161-2L8.59 3c-.326-1.104.306-2 1.41-2h18a2 2 0 0 1 2 2v10a3.99 3.99 0 0 0 3 3.858V19h-6z" fill="#a7a9ac"/><path d="M23 15.125C23 11.604 18.522 8 13 8 7.477 8 3 11.604 3 15.125 3 17 3.833 17 13 17c9.166 0 10 0 10-1.875M23 18a1 1 0 0 0-1-1H4a1 1 0 1 0 0 2h18a1 1 0 0 0 1-1" fill="#e6e7e8"/><path d="M19 21H7a2 2 0 0 1-2-2h16a2 2 0 0 1-2 2M21 37V21a2 2 0 0 1 2 2v12a2 2 0 0 1-2 2" fill="#939598"/><path d="M35 33a2 2 0 0 1-2 2h-8a2 2 0 0 1-2-2V19a2 2 0 0 1 2-2h8a2 2 0 0 1 2 2v14z" fill="#e6e7e8"/><path d="M23 21a2 2 0 1 0-4.001.001A2 2 0 0 0 23 21" fill="#d1d3d4"/><path d="M35 31H23v2h12v-2z" fill="#bcbec0"/><path d="M26 16a1 1 0 0 0-1-1H4a1 1 0 1 0 0 2h21a1 1 0 0 0 1-1" fill="#a7a9ac"/></g></svg>