<svg xmlns="http://www.w3.org/2000/svg" viewBox="0 0 47.5 47.5"><defs><clipPath id="a"><path d="M0 38h38V0H0v38z"/></clipPath></defs><g clip-path="url(#a)" transform="matrix(1.25 0 0 -1.25 0 47.5)"><path d="M37 5a4 4 0 0 0-4-4H5a4 4 0 0 0-4 4v28a4 4 0 0 0 4 4h28a4 4 0 0 0 4-4V5z" fill="#66757f"/><path d="M34.273 18.828l-5.73 6.686c.87.612 1.457 1.715 1.457 2.987 0 1.933-1.344 3.5-3 3.5-1.658 0-3-1.567-3-3.5 0-1.35.662-2.507 1.621-3.091L19.882 19a1.5 1.5 0 0 1 2.235-2l.875.978L21 12h4V6a2 2 0 0 1 4 0v6h4l-2.02 6.06 1.016-1.185a1.498 1.498 0 0 1 2.115-.162 1.5 1.5 0 0 1 .162 2.115M18.838 18.789c-.657 1.534-2.699 5.82-5.525 7.509.422.603.687 1.363.687 2.203 0 1.933-1.344 3.5-3 3.5-1.658 0-3-1.567-3-3.5 0-.84.263-1.6.686-2.203-2.827-1.69-4.868-5.976-5.525-7.51A1.999 1.999 0 0 1 4.998 16c.775 0 1.513.455 1.84 1.21.052.123.107.244.162.365V5.5a1.5 1.5 0 1 1 3 0V13a1 1 0 1 0 2 0V5.5a1.5 1.5 0 1 1 3 0v12.073c.054-.12.11-.24.162-.362a2.001 2.001 0 0 1 3.676 1.578" fill="#fff"/></g></svg>