<svg xmlns="http://www.w3.org/2000/svg" viewBox="0 0 47.5 47.5"><defs><clipPath id="a"><path d="M0 38h38V0H0v38z"/></clipPath></defs><g clip-path="url(#a)" transform="matrix(1.25 0 0 -1.25 0 47.5)"><path d="M35.999 19.001c0-9.389-7.611-17-17-17s-17 7.611-17 17 7.611 17 17 17 17-7.611 17-17"/><path d="M18 18c-1 0-1-1-1-1v-4h-6v4s-.021 1-1.021 1c-1 0-.979-1-.979-1V9s0-2 2-2h6c2 0 2 2 2 2v8s0 1-1 1M29 27h-9v5s0 1-1 1-1-1-1-1v-5c-6 0-6-6-6-6v-1c0-1 1-1 1-1h2s1 0 1 1v1c0 2 2 2 2 2h11c1 0 1 1 1 1v2s0 1-1 1" fill="#fff"/><path d="M17 32h-2a1 1 0 0 1 0-2h2a1 1 0 0 1 0 2M21 30h2a1 1 0 1 1 0 2h-2a1 1 0 1 1 0-2" fill="#fff"/><path d="M3 19c0 3.968 1.453 7.592 3.845 10.388L29.388 6.844A15.93 15.93 0 0 0 19 3C10.164 3 3 10.164 3 19m32 0c0-3.968-1.453-7.591-3.845-10.388L8.612 31.155A15.927 15.927 0 0 0 19 35c8.837 0 16-7.164 16-16M19 37C9.059 37 1 28.94 1 19 1 9.059 9.059 1 19 1s18 8.059 18 18c0 9.94-8.059 18-18 18" fill="#dd2e44"/></g></svg>