<svg xmlns="http://www.w3.org/2000/svg" viewBox="0 0 47.5 47.5"><defs><clipPath id="a"><path d="M0 38h38V0H0v38z"/></clipPath></defs><g clip-path="url(#a)" transform="matrix(1.25 0 0 -1.25 0 47.5)"><path d="M37 19c0-9.941-8.059-18-18-18S1 9.059 1 19s8.059 18 18 18 18-8.059 18-18" fill="#dd2e44"/><path d="M35 19c0-8.837-7.163-16-16-16S3 10.163 3 19s7.163 16 16 16 16-7.163 16-16"/><path d="M21 28.5c0-1.38-.896-2.5-2-2.5-1.105 0-2 1.12-2 2.5s.895 2.5 2 2.5c1.104 0 2-1.12 2-2.5M26.918 8.76L22 17.13v5.372c.371-.326.755-.68 1.127-1.044l.925-2.774a.999.999 0 1 1 1.896.633l-1 3a1 1 0 0 1-.241.39C23.205 24.21 21.169 26 20 26h-2c-1.21 0-2.644-1.702-3.683-3.223l-3.764-1.882a1 1 0 1 1 .894-1.79l4 2c.155.078.288.196.385.34.202.303.421.606.643.893l1.1-3.852-3.819-2.183A1.503 1.503 0 0 1 13 15V8a1.5 1.5 0 1 1 3 0v6.13l3.207 1.833 5.125-8.723a1.499 1.499 0 1 1 2.586 1.52" fill="#fff"/><path d="M30.115 6.116l-24 24 1.768 1.768 24-24-1.768-1.768z" fill="#dd2e44"/></g></svg>