<svg xmlns="http://www.w3.org/2000/svg" viewBox="0 0 47.5 47.5"><defs><clipPath id="a"><path d="M0 38h38V0H0v38z"/></clipPath></defs><g clip-path="url(#a)" transform="matrix(1.25 0 0 -1.25 0 47.5)"><path d="M21.768 2.39a3.916 3.916 0 0 0-5.536 0L2.39 16.233a3.912 3.912 0 0 0-.001 5.535L16.232 35.61a3.912 3.912 0 0 0 5.536 0L35.61 21.768a3.915 3.915 0 0 0 0-5.535L21.768 2.39z" fill="#ffcc4d"/><path d="M20.49 4.093a2.109 2.109 0 0 0-2.98 0L4.094 17.51a2.105 2.105 0 0 0 0 2.98L17.51 33.906a2.105 2.105 0 0 0 2.98 0L33.907 20.49a2.109 2.109 0 0 0 0-2.98L20.49 4.093z"/><path d="M19.745 6.33a1.05 1.05 0 0 0-1.49 0L6.33 18.255a1.054 1.054 0 0 0 0 1.49l11.926 11.926a1.054 1.054 0 0 0 1.49 0L31.67 19.745a1.052 1.052 0 0 0 0-1.49L19.745 6.33z" fill="#ffcc4d"/><path d="M27.707 19.707l-3.618 3.62c.548.355.911.971.911 1.673a2 2 0 0 1-4 0c0-.703.363-1.318.911-1.674l-3.218-3.219-2.216.555c.322.355.523.821.523 1.338a2 2 0 0 1-4 0c0-.669.332-1.259.837-1.622L10.399 17.8A.998.998 0 0 1 10.2 16.4a.994.994 0 0 1 1.4-.2l1.735 1.301-1.395-4.185a.999.999 0 1 1 1.897-.633l1.077 3.231 1.142-3.247a1 1 0 0 1 1.887.665l-1.891 5.374 2.705-.677a.997.997 0 0 1 .95.263l1.857 1.858-1.541-6.934a1.001 1.001 0 0 1 1.954-.433L23 17.39l1.023-4.607a1.003 1.003 0 0 1 1.194-.76c.539.12.879.654.76 1.193l-1.541 6.934 1.857-1.857a.999.999 0 1 1 1.414 1.414"/></g></svg>