<svg xmlns="http://www.w3.org/2000/svg" viewBox="0 0 47.5 47.5"><defs><clipPath id="a"><path d="M0 38h38V0H0v38z"/></clipPath></defs><g clip-path="url(#a)" transform="matrix(1.25 0 0 -1.25 0 47.5)"><path d="M1 33c0 4 4 4 4 4h28s4 0 4-4V5s0-4-4-4H5S1 1 1 5v28z" fill="#55acee"/><path d="M34 28H23v6s0 1-1 1-1-1-1-1v-6c-8 0-8-7-8-7v-2c0-1 1-1 1-1h3s1 0 1 1v2c0 2 2 2 2 2h14c1 0 1 1 1 1v3s0 1-1 1" fill="#fff"/><path d="M19.5 34h-3a1.5 1.5 0 1 1 0-3h3a1.5 1.5 0 1 1 0 3M24.5 31h3a1.5 1.5 0 1 1 0 3h-3a1.5 1.5 0 1 1 0-3M21 17c-1 0-1-1-1-1v-5h-9v5s0 1-1 1-1-1-1-1V5s0-2 2-2h9c2 0 2 2 2 2v11s0 1-1 1" fill="#fff"/></g></svg>