<svg xmlns="http://www.w3.org/2000/svg" viewBox="0 0 47.5 47.5"><defs><clipPath id="a"><path d="M0 38h38V0H0v38z"/></clipPath></defs><g clip-path="url(#a)" transform="matrix(1.25 0 0 -1.25 0 47.5)"><path d="M8 13c1.958 0 3.634-1.135 4.456-2.772l3.477 1.739C14.489 14.942 11.447 17 7.917 17a8.855 8.855 0 0 1-3.65-.787l1.668-3.67A4.968 4.968 0 0 0 8.002 13M30 13c1.467 0 2.772-.643 3.688-1.648l2.897 2.634A8.881 8.881 0 0 1 29.916 17c-3.576 0-6.652-2.111-8.073-5.15l3.648-1.722C26.293 11.82 28.003 13 30 13" fill="#ea596e"/><path d="M8 3a5 5 0 1 0 0 10A5 5 0 0 0 8 3m0 12A7 7 0 1 1 8 1a7 7 0 0 1 0 14M30 3a5 5 0 1 0 0 10 5 5 0 0 0 0-10m0 12A7 7 0 1 1 30.001.999 7 7 0 0 1 30 15" fill="#292f33"/><path d="M30.984 8.078a.98.98 0 0 1-.04.198c-.02.066-.04.126-.07.186-.014.024-.016.052-.03.075l-7 11a.999.999 0 0 1-1.38.306.983.983 0 0 1-.447-.843H13a1 1 0 1 1 0-2h10c.027 0 .05.014.077.016L28.177 9H19a1 1 0 1 1 0-2h11.001c.116 0 .23.028.342.07.035.012.065.027.097.042.031.017.065.025.097.044.03.02.048.051.075.072a.948.948 0 0 1 .252.297.93.93 0 0 1 .115.373c.004.035.021.066.021.102 0 .027-.014.051-.016.078" fill="#dd2e44"/><path d="M22.581 21l-2.899-8.117-5.929 6.775a1 1 0 1 1-1.505-1.317l6.664-7.615-.854-2.39a1 1 0 0 1 1.884-.672L24.705 21h-2.124z" fill="#dd2e44"/><path d="M8 7a1.001 1.001 0 0 0-.894 1.447l3.062 6.107C10.187 14.581 12 17.349 12 20c0 3.241-2.293 4.043-2.316 4.051a1 1 0 1 0 .632 1.897C10.467 25.898 14 24.667 14 20c0-3.068-1.836-6.042-2.131-6.498L8.896 7.553A1 1 0 0 0 8 7" fill="#dd2e44"/><path d="M15.612 23.337a.946.946 0 0 0-.166.014l-6 1a1 1 0 1 0 .33 1.972l6-1a1 1 0 0 0-.164-1.986M27.383 20a.665.665 0 0 0-.09.006l-5.671.708a.71.71 0 0 0 .087 1.413c.04 0 4.068.018 5.989 1.299.25.168.582.157.825-.026a.712.712 0 0 0 .24-.788l-.708-2.127a.707.707 0 0 0-.672-.485" fill="#292f33"/><path d="M21 8a2 2 0 1 0-4 0 2 2 0 0 0 4 0" fill="#66757f"/></g></svg>