<svg xmlns="http://www.w3.org/2000/svg" viewBox="0 0 47.5 47.5"><defs><clipPath id="a"><path d="M0 38h38V0H0v38z"/></clipPath></defs><g clip-path="url(#a)" transform="matrix(1.25 0 0 -1.25 0 47.5)"><path d="M32.543 19.47a2 2 0 0 1-.01 2.817L18.977 35.844c-.782.78-2.048.78-2.829 0l-3-3a2 2 0 0 1 0-2.829L26.704 16.46a2 2 0 0 1 2.829 0l.182.181c1.936-1.949 3.223-3.834 3.223-6.64V3.293a2 2 0 1 1 4 0V10c0 4.43-2.21 7.273-4.395 9.47" fill="#66757f"/><path d="M33.103 16.03a2.003 2.003 0 0 0-2.829 0L12.718 33.585a2 2 0 1 0 2.828 2.828l17.557-17.556c.78-.78.78-2.048 0-2.829" fill="#99aab5"/><path d="M18.414 21.414a.999.999 0 0 0 0-1.414L2.707 4.293a.999.999 0 1 0-1.414 1.414L17 21.414a.999.999 0 0 0 1.414 0M15.414 24.414a.999.999 0 0 0 0-1.414L2.707 10.293a.999.999 0 1 0-1.414 1.414L14 24.414a.999.999 0 0 0 1.414 0M12.414 27.414a.999.999 0 0 0 0-1.414L3 16.586A1 1 0 1 0 1.585 18L11 27.414a.999.999 0 0 0 1.414 0M21.414 18.414a.999.999 0 0 0 0-1.414L8.707 4.293a.999.999 0 1 0-1.414 1.414L20 18.414a.999.999 0 0 0 1.414 0M24.414 15.414a.999.999 0 0 0 0-1.414L15 4.586A1 1 0 1 0 13.585 6L23 15.414a.999.999 0 0 0 1.414 0" fill="#55acee"/></g></svg>