<svg xmlns="http://www.w3.org/2000/svg" viewBox="0 0 47.5 47.5"><defs><clipPath id="a"><path d="M0 38h38V0H0v38z"/></clipPath></defs><g clip-path="url(#a)" transform="matrix(1.25 0 0 -1.25 0 47.5)"><path d="M1 1h36v25s-6.001 10-9.001 10C24.999 36 18 27 16 25s-4.5-.5-6 1-3 3-4 3-5-7-5-7V1z" fill="#77b255"/><path d="M20 21s-3-2-3-3 4-4 5-5 3-1 2 1-4 7-4 7" fill="#ad846f"/><path d="M21.634 13.98s1.173-.79 1.962.384c.789 1.174 1.365-1.77 1.365-1.77s-2.558-2.54-4.521-2.925c-1.963-.384-1.174.79-.385 1.962l1.579 2.348" fill="#269"/><path d="M8 3a5 5 0 1 0 0 10A5 5 0 0 0 8 3m0 12A7 7 0 1 1 8 1a7 7 0 0 1 0 14M30 3a5 5 0 1 0 0 10 5 5 0 0 0 0-10m0 12A7 7 0 1 1 30.001.999 7 7 0 0 1 30 15" fill="#292f33"/><path d="M23 17c0 .553-.484 1-1.083 1H11.083C10.485 18 10 17.553 10 17c0-.553.485-1 1.083-1h10.834c.599 0 1.083.447 1.083 1M31 8a1 1 0 0 1-1 1H19a1 1 0 1 1 0-2h11a1 1 0 0 1 1 1" fill="#be1931"/><path d="M22.224 20L18.058 8.336a1 1 0 0 1 1.884-.672L24.348 20h-2.124z" fill="#be1931"/><path d="M30.001 7c-.33 0-.654.164-.845.463l-7 10.999a1 1 0 1 0 1.688 1.075l7-11A1 1 0 0 0 30.001 7M20 11.266l-8.387 6.523a.998.998 0 0 1-1.403-.174 1 1 0 0 1 .176-1.404l9-7A.993.993 0 0 1 19.999 9H20v2.266z" fill="#be1931"/><path d="M8 7a1 1 0 0 0-.95 1.316l2.773 8.317L6.4 19.201A1 1 0 1 0 7.6 20.8l4.577-3.433-3.228-9.683A1.001 1.001 0 0 0 7.999 7" fill="#be1931"/><path d="M27.383 18a.665.665 0 0 0-.09.006l-5.671.708a.71.71 0 0 0 .087 1.413c.04 0 4.068.018 5.989 1.299.25.168.582.157.825-.026a.712.712 0 0 0 .24-.788l-.708-2.127a.707.707 0 0 0-.672-.485M12 19H7a1 1 0 0 0 0 2h5a1 1 0 0 0 0-2" fill="#292f33"/><path d="M22.999 24L19 21l3-3 .999 6z" fill="#dd2e44"/><path d="M20.999 20s-2-3-2-4 1-4 1-7 2-3 2-2 1.581 5.418 0 7c-1 1 2 4 2 4l-3 2z" fill="#d99e82"/><path d="M22.999 24l-3-4 4-3s5 5 5 7-3 3-3 3l-3-3z" fill="#ffac33"/><path d="M11 32c-1-1 0-2 0-3s2 0 2 0 1 1 2-1 4-1 3 1-4 1-4 3-3 0-3 0" fill="#d99e82"/><path d="M16 34c0-1 0-4-1-4s-1 1-2 2 3 2 3 2" fill="#b39155"/><path d="M14 25c0-2-3-5-4-5s-2 0-2-1 0-1 2-1 4 2 5 3 2 3 2 4 1 1 2 0 2-2 3-2 6 4 6 4c-3 1-4.104 2.368-6 3-3 1-5.587.414-7-1-1-1-1-2-1-4" fill="#744eaa"/><path d="M16.67 23.666l-2.744.784C13.48 22.494 10.912 20 10 20c-1 0-2 0-2-1s0-1 2-1 4 2 5 3c.649.65 1.295 1.72 1.67 2.666" fill="#d99e82"/><path d="M20 8s1-1 2 0 1-2 1-2-3-2-5-2-1 1 0 2l2 2z" fill="#3b88c3"/><path d="M12 35c2 1 6 0 4-2-1-1-7-2-7-2 0 1 1 3 3 4" fill="#744eaa"/></g></svg>