<svg xmlns="http://www.w3.org/2000/svg" viewBox="0 0 47.5 47.5"><defs><clipPath id="a"><path d="M0 38h38V0H0v38z"/></clipPath></defs><g clip-path="url(#a)" transform="matrix(1.25 0 0 -1.25 0 47.5)"><path d="M35.999 19.001c0-9.389-7.611-17-17-17s-17 7.611-17 17 7.611 17 17 17 17-7.611 17-17"/><path d="M28 10a5.001 5.001 0 0 0-4.899 4h4.9c.116 0 .23.028.343.069.034.013.064.028.096.043.032.017.066.025.097.044.03.02.048.051.075.073a.905.905 0 0 1 .252.296.874.874 0 0 1 .115.373c.004.036.021.066.021.102 0 .027-.014.051-.016.078a.904.904 0 0 1-.04.198.992.992 0 0 1-.071.186c-.013.024-.015.052-.029.075l-2.623 4.122A4.96 4.96 0 0 0 28 20a5 5 0 0 0 5-5 5 5 0 0 0-5-5m-18 0a5 5 0 1 0 0 10c.203 0 .396-.036.592-.06l-1.541-4.624A.998.998 0 0 1 10 14a1 1 0 0 1 .948.684l1.543 4.628C13.984 18.447 15 16.85 15 15a5 5 0 0 0-5-5m3.721 13h5.074l-2.111-5.913a7.018 7.018 0 0 1-3.546 4.164L13.721 23zm7.358-7h-2.66l2.5 7h.805l1.715-2.697A6.983 6.983 0 0 1 21.079 16m3.451 2.589L26.178 16h-3.077a4.982 4.982 0 0 0 1.429 2.589M28 22a6.962 6.962 0 0 1-2.873-.622l-3.066 4.818.03.085 2.203-.275a.707.707 0 0 1 .761.479l.709 2.127a.712.712 0 0 1-.242.788.711.711 0 0 1-.824.026c-1.922-1.281-5.948-1.299-5.989-1.299a.71.71 0 0 1-.087-1.413l1.436-.179L19.509 25h-6.176L9.6 27.8c-.443.332 2.223-4.167 2.223-4.167l-.583-1.749A7.034 7.034 0 0 1 10 22a7 7 0 1 1 0-14c3.53 0 6.442 2.615 6.922 6.014.026-.002.052-.014.078-.014h4.079c.487-3.391 3.397-6 6.921-6a7 7 0 0 1 7 7 7 7 0 0 1-7 7" fill="#fff"/><path d="M10 28h5a1 1 0 0 1 0 2h-5a1 1 0 0 1 0-2" fill="#fff"/><path d="M3 19c0 3.968 1.453 7.592 3.845 10.388L29.388 6.844A15.93 15.93 0 0 0 19 3C10.164 3 3 10.164 3 19m32 0c0-3.968-1.453-7.591-3.845-10.388L8.612 31.155A15.927 15.927 0 0 0 19 35c8.837 0 16-7.164 16-16M19 37C9.059 37 1 28.94 1 19 1 9.059 9.059 1 19 1s18 8.059 18 18c0 9.94-8.059 18-18 18" fill="#dd2e44"/></g></svg>