<svg xmlns="http://www.w3.org/2000/svg" viewBox="0 0 47.5 47.5"><defs><clipPath id="a"><path d="M0 38h38V0H0v38z"/></clipPath></defs><g clip-path="url(#a)" transform="matrix(1.25 0 0 -1.25 0 47.5)"><path d="M37 5a4 4 0 0 0-4-4H5a4 4 0 0 0-4 4v28a4 4 0 0 0 4 4h28a4 4 0 0 0 4-4V5z" fill="#f4900c"/><path d="M15.43 12.309c-1.512.06-3.772-.47-5.537-2.687a1.851 1.851 0 0 1-2.519-2.507c.428-.785 1.31-1.645 2.504-1.698.039-.002.079-.003.119-.003.714 0 1.696.288 2.544 1.559 1.214 1.82 2.748 1.65 2.945 1.622a1.833 1.833 0 0 1 1.42.318c-.558.956-.344 2.44-1.475 3.396M29.718 9.637a1.856 1.856 0 0 1-1.79-.005c-1.698 2.128-3.85 2.692-5.357 2.678-1.156-.975-.912-2.5-1.514-3.451a1.89 1.89 0 0 1 1.28-.265c.174.028 1.725.218 2.95-1.621.848-1.272 1.83-1.56 2.544-1.56.04 0 .08.002.119.004 1.194.053 2.077.912 2.504 1.698.49.898.162 2.033-.736 2.522M29.06 18.06a1.5 1.5 0 0 1-1.871.202c-.14.037-.516.187-1.128.799-2.031 2.03-4.096 2.859-5.466 3.199 1.348.45 2.455 1.456 3.086 2.759.741.09 1.318.715 1.318 1.48 0 .56-.31 1.043-.764 1.3-.15 2.899-2.433 5.2-5.236 5.2-2.802 0-5.085-2.301-5.235-5.2A1.495 1.495 0 0 1 13 26.5c0-.765.578-1.39 1.32-1.48.631-1.303 1.74-2.31 3.086-2.76-1.37-.34-3.435-1.167-5.466-3.198-.612-.612-.988-.762-1.128-.8A1.499 1.499 0 0 1 8.94 15.94c.047-.048.712-.691 1.83-.691.856 0 1.98.378 3.291 1.69.408.409.81.732 1.202 1.02a6.27 6.27 0 0 1-.185-1.453C15.077 14.083 16.832 14 19 14c2.166 0 3.923.083 3.923 2.506 0 .465-.065.959-.185 1.453.394-.288.795-.611 1.203-1.02 1.312-1.313 2.434-1.69 3.29-1.69 1.118 0 1.783.643 1.83.69a1.5 1.5 0 0 1 0 2.122" fill="#fff"/></g></svg>