<svg xmlns="http://www.w3.org/2000/svg" viewBox="0 0 47.5 47.5"><defs><clipPath id="a"><path d="M0 38h38V0H0v38z"/></clipPath></defs><g clip-path="url(#a)" transform="matrix(1.25 0 0 -1.25 0 47.5)"><path d="M16.316 33.74c-1.207-.268 1.054-1.53.684-2.74-.252-.838.225 0 1 0 0 0 .627-1.283.423-3.226-.207-1.94 2.472-2.616 2.677-.673.204 1.941-1.385 2.988-.511 4.5 2.092 3.62-4.273 2.138-4.273 2.138" fill="#d99e82"/><path d="M25 16a1 1 0 0 0-1 1c0 4.52-4.661 9.247-4.708 9.294a1 1 0 0 0 1.415 1.414C20.923 27.491 26 22.353 26 17a1 1 0 0 0-1-1" fill="#cc927a"/><path d="M17 2a2 2 0 0 0-2 2v7c0 .348.091.69.264.992l4 7a2 2 0 1 0 3.472-1.984L19 10.469V4a2 2 0 0 0-2-2" fill="#2a6797"/><path d="M26.001 5c-.587 0-1.168.257-1.562.751l-4 5a1.985 1.985 0 0 0-.4.856l-1 5a2 2 0 1 0 3.922.786l.905-4.524 3.696-4.62A2 2 0 0 0 26.001 5" fill="#4289c1"/><path d="M15.998 1.092L19.579 1c-.34 3.01-1.645 2.043-3.738 2.096-2.094.053-3.816-.904-3.841-1.905l2.999-.076c.305-.006.627-.014.999-.023M27.123 3.862l2.503 2.564c-2.438 1.797-2.618.183-4.078-1.317C24.084 3.611 23.614 1.7 24.329 1l2.096 2.147.698.715" fill="#292f33"/><path d="M24 18s0-1-2-1h-4c-2 6-.359 12 2 12 3 0 3-4 4-9" fill="#a0041e"/><path d="M19 25.003c0-.045-.066-4.552-3.6-7.203l.01-.014A.98.98 0 0 1 15 17a1 1 0 0 1 1-1c.225 0 .423.088.59.214l.01-.014c4.35 3.262 4.4 8.575 4.4 8.8l-2 .003zM23 33a4 4 0 1 0-8 0 4 4 0 0 0 8 0" fill="#d99e82"/><path d="M14 33s0 4 5 4c4 0 4-4 4-4s0 2-3 2c-2.001 0-2-3-6-2" fill="#fdcb58"/></g></svg>