<svg xmlns="http://www.w3.org/2000/svg" viewBox="0 0 47.5 47.5"><defs><clipPath id="a"><path d="M0 38h38V0H0v38z"/></clipPath></defs><g clip-path="url(#a)" transform="matrix(1.25 0 0 -1.25 0 47.5)"><path d="M37 5a4 4 0 0 0-4-4H5a4 4 0 0 0-4 4v28a4 4 0 0 0 4 4h28a4 4 0 0 0 4-4V5z" fill="#269"/><path d="M32 26a6 6 0 0 0-12 0h12zM32 32H20a1 1 0 0 1-1-1c0-.182.049-.569.134-1.007-.045.002-.088.007-.134.007-1.104 0-2-.448-2-1s.896-1 2-1c.37 0 .684.003.971.008.009-.002.019-.008.029-.008h12c.553 0 1 2.448 1 3a1 1 0 0 1-1 1M16 11c-5.013 0-7.558 3.731-7.664 3.891a2 2 0 1 0 3.328 2.218C11.713 17.04 13.173 15 16 15c2.85 0 4.322 2.088 4.336 2.109a2 2 0 0 0 3.328-2.218C23.559 14.731 21.013 11 16 11" fill="#f5f8fa"/><path d="M29 18h-7a2 2 0 0 1-2-2V9l9 9zM31.82 16.82L20 5a2 2 0 0 1 2-2h8a2 2 0 0 1 2 2v11c0 .293-.067.57-.18.82M13 33.96l-6-1.43a1.311 1.311 0 0 1-.426-.224L12 31.04c.552-.157 1-.733 1-1.285V23.96c.552.157 1 .732 1 1.285v8c0 .553-.448.872-1 .715" fill="#f5f8fa"/><path d="M11 20.245c0-.553-.448-.872-1-.715l-5 1.43c-.552.157-1 .732-1 1.285v8c0 .553.448.872 1 .715l5-1.43c.552-.157 1-.733 1-1.285v-8z" fill="#f5f8fa"/></g></svg>