<svg xmlns="http://www.w3.org/2000/svg" viewBox="0 0 47.5 47.5"><defs><clipPath id="a"><path d="M0 38h38V0H0v38z"/></clipPath></defs><g clip-path="url(#a)" transform="matrix(1.25 0 0 -1.25 0 47.5)"><path d="M37 5a4 4 0 0 0-4-4H5a4 4 0 0 0-4 4v28a4 4 0 0 0 4 4h28a4 4 0 0 0 4-4V5z" fill="#269"/><path d="M27 20h-1V7h1a2 2 0 0 1 2 2v9a2 2 0 0 1-2 2M11 20a2 2 0 0 1-2-2V9a2 2 0 0 1 2-2h1v13h-1zM17 21a1 1 0 0 0 1 1h2a1 1 0 0 0 1-1v-1h-4v1zm6-1v2a2 2 0 0 1-2 2h-4a2 2 0 0 1-2-2v-2h-1V7h10v13h-1z" fill="#f5f8fa"/><path d="M33 6a1 1 0 0 0-1-1H6a1 1 0 0 0-1 1v18a1 1 0 0 0 1 1h26a1 1 0 0 0 1-1V6zm0 21H5a2 2 0 0 1-2-2V5a2 2 0 0 1 2-2h28a2 2 0 0 1 2 2v20a2 2 0 0 1-2 2M14.5 30a1.5 1.5 0 1 0-.001 2.999A1.5 1.5 0 0 0 14.5 30M25 33h-6.35a3.49 3.49 0 0 1-3.15 2 3.5 3.5 0 1 1 0-7 3.49 3.49 0 0 1 3.45 3h1.719c.247-.926.747-2 1.331-2s1.084 1.074 1.331 2H24c0-1.104.448-2 1-2s1 1 1 3c0 1.104-.448 1-1 1" fill="#f5f8fa"/></g></svg>