<svg xmlns="http://www.w3.org/2000/svg" viewBox="0 0 47.5 47.5"><defs><clipPath id="a"><path d="M0 38h38V0H0v38z"/></clipPath></defs><g clip-path="url(#a)" transform="matrix(1.25 0 0 -1.25 0 47.5)"><path d="M37 5a4 4 0 0 0-4-4H5a4 4 0 0 0-4 4v28a4 4 0 0 0 4 4h28a4 4 0 0 0 4-4V5z" fill="#269"/><path d="M33.828 28a6 6 0 0 0-12 0h12zM33.828 34h-12a1 1 0 0 1-1-1c0-.182.05-.569.134-1.007-.045.002-.088.007-.134.007-1.104 0-2-.448-2-1s.896-1 2-1c.37 0 .684.003.971.008.01-.002.02-.008.03-.008h12c.552 0 1 2.448 1 3a1 1 0 0 1-1 1M33.648 18.82L21.828 7a2 2 0 0 1 2-2h8a2 2 0 0 1 2 2v11c0 .293-.067.57-.18.82M30.828 20h-7c-.057 0-.11-.012-.166-.017-1.318.071-2.796-.118-3.248-.569l-5.828-6a2 2 0 0 1 2.828-2.829l4.414 4.544V11l9 9z" fill="#f5f8fa"/><path d="M16 9H7v9a2 2 0 0 1-4 0V9a2 2 0 0 1 2-2 2 2 0 0 1 2-2h9a2 2 0 0 1 0 4" fill="#f5f8fa"/></g></svg>