<svg xmlns="http://www.w3.org/2000/svg" viewBox="0 0 47.5 47.5"><defs><clipPath id="a"><path d="M0 38h38V0H0v38z"/></clipPath></defs><g clip-path="url(#a)" transform="matrix(1.25 0 0 -1.25 0 47.5)"><path d="M31 21c0-.552.896-1 2-1s2 .448 2 1-.896 1-2 1-2-.448-2-1" fill="#99aab5"/><path d="M34 16a1 1 0 0 0-1 1v16c0 1.582-1.962 2-3 2s-3-.418-3-2a1 1 0 1 0-2 0c0 2.626 2.516 4 5 4s5-1.374 5-4V17a1 1 0 0 0-1-1" fill="#ccd6dd"/><path d="M29 31c0-1.104-1.343-1-3-1s-3-.104-3 1 1.343 2 3 2 3-.896 3-2" fill="#99aab5"/><path d="M30 30a1 1 0 0 0-1-1h-6a1 1 0 1 0 0 2h6a1 1 0 0 0 1-1" fill="#ccd6dd"/><path d="M15 3a2 2 0 1 0-4.001.001A2 2 0 0 0 15 3M31 3a2 2 0 1 0-4.001.001A2 2 0 0 0 31 3" fill="#99aab5"/><path d="M31 3H13C8 3 3 9 2 17c-.248 1.984.812 1 3.021 1C5.021 18 18 16 31 16c2 0 5 1.209 5-1 0 0-1-12-5-12" fill="#ccd6dd"/><path d="M37 16a1 1 0 0 0-1-1L2 17a1 1 0 1 0 0 2l34-2a1 1 0 0 0 1-1" fill="#99aab5"/></g></svg>