<svg xmlns="http://www.w3.org/2000/svg" viewBox="0 0 47.5 47.5"><defs><clipPath id="a"><path d="M0 38h38V0H0v38z"/></clipPath></defs><g clip-path="url(#a)" transform="matrix(1.25 0 0 -1.25 0 47.5)"><path d="M22 10a3 3 0 0 0-3 3v4a3 3 0 0 0 3 3c.603.006 6 1 6 5 0 2-2 4-5 4-2.441 0-4-2-4-3a3 3 0 1 0-6 0c0 4.878 4.58 9 10 9 8 0 11-5.982 11-11 0-4.145-2.277-7.313-6.413-8.921-.9-.35-1.79-.587-2.587-.747V13a3 3 0 0 0-3-3M25 5a3 3 0 1 0-6 0 3 3 0 0 0 6 0M10 5a3 3 0 1 0-6 0 3 3 0 0 0 6 0M10 13a3 3 0 1 0-6 0v19a3 3 0 1 0 6 0V13z" fill="#be1931"/></g></svg>