<svg xmlns="http://www.w3.org/2000/svg" viewBox="0 0 47.5 47.5"><defs><clipPath id="a"><path d="M0 38h38V0H0v38z"/></clipPath></defs><g clip-path="url(#a)" transform="matrix(1.25 0 0 -1.25 0 47.5)"><path d="M26 5a4 4 0 0 0-4-4h-6a4 4 0 0 0-4 4v28a4 4 0 0 0 4 4h6a4 4 0 0 0 4-4V5z" fill="#414042"/><path d="M33 19a2 2 0 0 1-2 2h-1a2 2 0 0 1 0-4h1a2 2 0 0 1 2 2" fill="#939598"/><path d="M7 19c0 6.627 5.373 12 12 12s12-5.373 12-12S25.627 7 19 7 7 12.373 7 19" fill="#d1d3d4"/><path d="M11 19a8 8 0 1 0 16.001 0 8 8 0 0 0-16 0" fill="#f1f2f2"/><path d="M24 15a.994.994 0 0 0-.514.143l-5 2.999A1.001 1.001 0 0 0 18 19v7a1 1 0 0 0 2 0v-6.434l4.516-2.709A1 1 0 0 0 24 15" fill="#58595b"/></g></svg>