<svg xmlns="http://www.w3.org/2000/svg" viewBox="0 0 47.5 47.5"><defs><clipPath id="a"><path d="M0 38h38V0H0v38z"/></clipPath></defs><g clip-path="url(#a)" transform="matrix(1.25 0 0 -1.25 0 47.5)"><path d="M21 30.959a2.012 2.012 0 0 0-2-2.014c-1.097 0-2 .902-2 2.014v4.028c0 1.111.903 2.013 2 2.013s2-.901 2-2.013v-4.029z" fill="#ffcc4d"/><path d="M10.18 1c-.224 0-.452.052-.666.159a1.522 1.522 0 0 0-.666 2.028l8.94 18.126c.253.512.768.835 1.333.835s1.08-.323 1.332-.835l8.942-18.126a1.522 1.522 0 0 0-.666-2.028 1.482 1.482 0 0 0-2 .676L19.122 17.26 11.513 1.835A1.486 1.486 0 0 0 10.18 1" fill="#ffac33"/><path d="M19.121 16.608a.985.985 0 0 0-.702.295l-13.907 14.1a1.017 1.017 0 0 0 0 1.423.983.983 0 0 0 1.404 0L19.121 19.04l13.203 13.386a.985.985 0 0 0 1.405 0 1.017 1.017 0 0 0 0-1.424L19.824 16.903a.988.988 0 0 0-.703-.295" fill="#58595b"/><path d="M35.015 17.615c0-8.898-7.115-16.11-15.894-16.11-8.777 0-15.893 7.212-15.893 16.11 0 8.9 7.116 16.113 15.893 16.113 8.779 0 15.894-7.213 15.894-16.113" fill="#dd2e44"/><path d="M31.041 17.615c0-6.674-5.335-12.084-11.92-12.084-6.583 0-11.919 5.41-11.919 12.084 0 6.675 5.336 12.085 11.919 12.085 6.585 0 11.92-5.41 11.92-12.085" fill="#e6e7e8"/><path d="M31.04 35.743a5.899 5.899 0 0 1-4.214-1.77l8.429-8.544A6.066 6.066 0 0 1 37 29.7c0 3.336-2.669 6.042-5.96 6.042M6.96 35.743a5.9 5.9 0 0 0 4.214-1.77l-8.429-8.544A6.07 6.07 0 0 0 1 29.7c0 3.336 2.668 6.042 5.96 6.042" fill="#ffcc4d"/><path d="M24 17h-5a1 1 0 0 0-1 1v9a1 1 0 0 0 2 0v-8h4a1 1 0 1 0 0-2" fill="#414042"/></g></svg>