<svg xmlns="http://www.w3.org/2000/svg" viewBox="0 0 47.5 47.5"><defs><clipPath id="a"><path d="M0 38h38V0H0v38z"/></clipPath></defs><g clip-path="url(#a)" transform="matrix(1.25 0 0 -1.25 0 47.5)"><path d="M22 19c0 2.001 3.246 3.369 5 6 2 3 2 10 2 10H9s0-7 2-10c1.753-2.631 5-3.999 5-6s-3.247-3.369-5-6C9 10 9 3 9 3h20s0 7-2 10c-1.754 2.631-5 3.999-5 6" fill="#ffe8b6"/><path d="M19 35h-8s0-4 1-7c1.303-3.911 6-4.999 6-9 0-4 0-13 1-13s1 9 1 13c0 4.001 4.697 5.089 6 9 1 3 1 7 1 7h-8z" fill="#ffac33"/><path d="M31 3a2 2 0 0 0-2-2H9a2 2 0 0 0 0 4h20a2 2 0 0 0 2-2M31 35a2 2 0 0 0-2-2H9a2 2 0 0 0 0 4h20a2 2 0 0 0 2-2" fill="#3b88c3"/></g></svg>