<svg xmlns="http://www.w3.org/2000/svg" viewBox="0 0 47.5 47.5"><defs><clipPath id="a"><path d="M0 38h38V0H0v38z"/></clipPath></defs><g clip-path="url(#a)" transform="matrix(1.25 0 0 -1.25 0 47.5)"><path d="M37 5a4 4 0 0 0-4-4H5a4 4 0 0 0-4 4v28a4 4 0 0 0 4 4h28a4 4 0 0 0 4-4V5z" fill="#269"/><path d="M14.5 6c-.64 0-1.28.244-1.768.732l-6.5 6.5a2.501 2.501 0 0 0 3.536 3.536l4.732-4.733 13.732 13.733a2.501 2.501 0 0 0 3.536-3.536l-15.5-15.5A2.493 2.493 0 0 0 14.5 6"/><path d="M14.5 8c-.64 0-1.28.244-1.768.732l-6.5 6.5a2.501 2.501 0 0 0 3.536 3.536l4.732-4.733 13.732 13.733a2.501 2.501 0 0 0 3.536-3.536l-15.5-15.5A2.493 2.493 0 0 0 14.5 8" fill="#bbddf5"/></g></svg>