<svg xmlns="http://www.w3.org/2000/svg" viewBox="0 0 47.5 47.5"><defs><clipPath id="a"><path d="M0 38h38V0H0v38z"/></clipPath></defs><g clip-path="url(#a)" transform="matrix(1.25 0 0 -1.25 0 47.5)"><path d="M28 8.5a1.5 1.5 0 0 1-3 0V8s0-3-3-3-3 3-3 3v25.5a1.5 1.5 0 1 1-3 0V8s0-6 6-6 6 6 6 6v.5z" fill="#66757f"/><path d="M17.5 33C8.388 33 1 27.18 1 20c0 0 0-2 1-2s3 2 3 2h25s2-2 3-2 1 2 1 2c0 7.18-7.388 13-16.5 13" fill="#744eaa"/><path d="M17.5 33C10.597 33 5 27.18 5 20c0 0 0-2 2-2s5 2 5 2h11s3-2 5-2 2 2 2 2c0 7.18-5.597 13-12.5 13" fill="#9266cc"/><path d="M17.5 33c-3.59 0-5.5-5.82-5.5-13 0 0 3-2 5-2h1c2 0 5 2 5 2 0 7.18-1.91 13-5.5 13" fill="#744eaa"/><path d="M6.617 32.528L3.938 36.91l-2.482-4.353a2.946 2.946 0 0 1-.022-3.114c.864-1.412 2.724-1.865 4.155-1.014a2.964 2.964 0 0 1 1.028 4.1M14.617 29.528l-2.679 4.382-2.482-4.353a2.946 2.946 0 0 1-.022-3.114c.864-1.412 2.724-1.865 4.155-1.014a2.964 2.964 0 0 1 1.028 4.1M26.564 32.528l-2.679 4.382-2.482-4.353a2.946 2.946 0 0 1-.021-3.114c.864-1.412 2.724-1.865 4.155-1.014a2.964 2.964 0 0 1 1.028 4.1M36.565 26.618L33.885 31l-2.481-4.353a2.946 2.946 0 0 1-.022-3.114c.864-1.412 2.724-1.865 4.155-1.014a2.964 2.964 0 0 1 1.028 4.1" fill="#5dadec"/></g></svg>