<svg xmlns="http://www.w3.org/2000/svg" viewBox="0 0 47.5 47.5"><defs><clipPath id="a"><path d="M0 38h38V0H0v38z"/></clipPath></defs><g clip-path="url(#a)" transform="matrix(1.25 0 0 -1.25 0 47.5)"><path d="M37 5a4 4 0 0 0-4-4H5a4 4 0 0 0-4 4v28a4 4 0 0 0 4 4h28a4 4 0 0 0 4-4V5z" fill="#dd2e44"/><path d="M21.286 6h-4.572l-.197 1.271c-.072.471-1.786 11.379-2.008 13.376C13.953 25.65 12.79 28 11.046 28h-.003c-.74 0-1.254-.07-1.568-.578-.353-.571-.409-1.293-.133-1.845.37-.741.07-1.595-.67-1.966-.742-.369-1.643-.047-2.014.695-.744 1.487-.639 3.218.265 4.682C7.783 30.378 9.268 31 11 31h.01c3.66 0 5.707-3.057 6.481-10.022.142-1.285.966-6.647 1.51-10.2.541 3.553 1.365 9.056 1.508 10.341.773 6.954 2.896 10.358 6.491 10.358 1.711 0 3.187-.79 4.051-2.188.918-1.485 1.035-3.477.291-4.966a1.5 1.5 0 0 0-2.684 1.346c.24.481.267 1.365-.159 2.054-.323.522-.814.777-1.499.777-2.196 0-3.12-4.168-3.509-7.666-.222-1.997-1.935-13.092-2.009-13.563L21.286 6z" fill="#fff"/></g></svg>