<svg xmlns="http://www.w3.org/2000/svg" viewBox="0 0 47.5 47.5"><defs><clipPath id="a"><path d="M0 38h38V0H0v38z"/></clipPath></defs><g clip-path="url(#a)" transform="matrix(1.25 0 0 -1.25 0 47.5)"><path d="M37 5a4 4 0 0 0-4-4H5a4 4 0 0 0-4 4v28a4 4 0 0 0 4 4h28a4 4 0 0 0 4-4V5z" fill="#5c913b"/><path d="M29.999 6.5a1.49 1.49 0 0 0-.475.077c-.019.006-2.974.923-10.525.923S8.494 6.583 8.464 6.574a1.501 1.501 0 0 0-1.886.962 1.495 1.495 0 0 0 .947 1.887c.132.044 3.324 1.077 11.474 1.077 8.149 0 11.343-1.033 11.475-1.077a1.5 1.5 0 0 0-.475-2.923" fill="#fff"/><path d="M16 9h-3v20h3V9zM25 9h-3v20h3V9z" fill="#fff"/><path d="M18.999 27.5c-8.15 0-11.342 1.033-11.474 1.077a1.5 1.5 0 0 0 .94 2.85c.046-.016 3.006-.927 10.534-.927 7.551 0 10.506.917 10.534.926a1.506 1.506 0 0 0 1.888-.962 1.496 1.496 0 0 0-.947-1.887c-.132-.044-3.326-1.077-11.475-1.077" fill="#fff"/></g></svg>