<svg xmlns="http://www.w3.org/2000/svg" viewBox="0 0 47.5 47.5"><defs><clipPath id="a"><path d="M0 38h38V0H0v38z"/></clipPath></defs><g clip-path="url(#a)" transform="matrix(1.25 0 0 -1.25 0 47.5)"><path d="M37 5a4 4 0 0 0-4-4H5a4 4 0 0 0-4 4v28a4 4 0 0 0 4 4h28a4 4 0 0 0 4-4V5z" fill="#f4900c"/><path d="M20.732 31.291c-1.466.345-2.97-.292-4.024-1.269a3.499 3.499 0 0 1-1.976 1.269c-1.46.345-2.959-.286-4.012-1.257C9.704 31.381 8.392 31.5 8 31.5a1.5 1.5 0 1 1 0-3c.155 0 1-.646 1-3.5V14a1.5 1.5 0 1 1 3 0v11c0 .669.231 2.108.341 2.329.296.591 1.217 1.157 1.702 1.042.46-.108.957-1.21.957-3.371V14a1.5 1.5 0 1 1 3 0v11c0 .668.232 2.11.341 2.329.296.591 1.225 1.157 1.702 1.042.46-.108.957-1.21.957-3.371v-9a1.5 1.5 0 1 1 3 0v9c0 4.562-1.777 5.939-3.268 6.291" fill="#fff"/><path d="M26.892 19.616c-.896-.629-2.152-1.885-2.882-4.239-.377-1.22-.182-2.698.28-4.164 1.213.951 2.21 2.06 2.587 3.276.729 2.354.402 4.098.015 5.127M26.31 2.697c-.452 0-.9.204-1.194.592-.1.13-1.151 1.528-2.19 3.512a26.93 26.93 0 0 0-3.787-1.663 1.5 1.5 0 0 0-.945 2.848c.799.267 2.126.806 3.51 1.557-.787 2.162-1.222 4.577-.56 6.72 1.697 5.48 5.77 6.744 5.943 6.795l.959.284.63-.776c.114-.139 2.763-3.484 1.067-8.964-.663-2.144-2.39-3.89-4.261-5.23.72-1.403 1.51-2.596 2.02-3.267a1.499 1.499 0 0 0-1.192-2.408" fill="#fff"/></g></svg>