<svg xmlns="http://www.w3.org/2000/svg" viewBox="0 0 47.5 47.5"><defs><clipPath id="a"><path d="M0 38h38V0H0v38z"/></clipPath></defs><g clip-path="url(#a)" transform="matrix(1.25 0 0 -1.25 0 47.5)"><path d="M37 5a4 4 0 0 0-4-4H5a4 4 0 0 0-4 4v28a4 4 0 0 0 4 4h28a4 4 0 0 0 4-4V5z" fill="#3b88c3"/><path d="M28 10.5c-3.842 0-4 .933-4 4.5v10c0 4.562-1.776 5.939-3.268 6.291-1.465.345-2.971-.291-4.024-1.269a3.499 3.499 0 0 1-1.976 1.269c-1.46.345-2.959-.286-4.011-1.257C9.705 31.381 8.393 31.5 8 31.5a1.5 1.5 0 1 1 0-3c.155 0 1-.646 1-3.5V14a1.5 1.5 0 1 1 3 0v11c0 .669-.045 1.257-.116 1.796.186.137.347.312.458.533.295.591 1.217 1.157 1.701 1.042.461-.108.957-1.21.957-3.371V14a1.5 1.5 0 1 1 3 0v11c0 .668-.042 1.261-.112 1.799.185.136.344.311.454.53.295.591 1.224 1.157 1.701 1.042.461-.108.957-1.21.957-3.371V15c0-3.952.535-7.5 7-7.5a1.5 1.5 0 0 1 0 3" fill="#fff"/><path d="M32.5 9L27 13V5l5.5 4z" fill="#fff"/></g></svg>