<svg xmlns="http://www.w3.org/2000/svg" viewBox="0 0 47.5 47.5"><defs><clipPath id="a"><path d="M0 38h38V0H0v38z"/></clipPath></defs><g clip-path="url(#a)" transform="matrix(1.25 0 0 -1.25 0 47.5)"><path d="M37 5a4 4 0 0 0-4-4H5a4 4 0 0 0-4 4v28a4 4 0 0 0 4 4h28a4 4 0 0 0 4-4V5z" fill="#dd2e44"/><path d="M29.5 31H18a1.5 1.5 0 1 1 0-3h7.879L14 16.121l-3.939 3.94a1.502 1.502 0 0 1-2.122 0 1.502 1.502 0 0 1 0-2.122L11.879 14l-4.94-4.939A1.502 1.502 0 0 1 8 6.5c.384 0 .768.146 1.061.439L14 11.879l3.939-3.94A1.495 1.495 0 0 1 19 7.5a1.502 1.502 0 0 1 1.061 2.561L16.121 14 28 25.879V18a1.5 1.5 0 0 1 3 0v11.5a1.5 1.5 0 0 1-1.5 1.5" fill="#fff"/></g></svg>