<svg xmlns="http://www.w3.org/2000/svg" viewBox="0 0 47.5 47.5"><defs><clipPath id="a"><path d="M0 38h38V0H0v38z"/></clipPath></defs><g clip-path="url(#a)" transform="matrix(1.25 0 0 -1.25 0 47.5)"><path d="M37 5a4 4 0 0 0-4-4H5a4 4 0 0 0-4 4v28a4 4 0 0 0 4 4h28a4 4 0 0 0 4-4V5z" fill="#f4900c"/><path d="M26.967 11.137c-1.153-.117-2.563.202-3.208 1.36.487 1.264 1.639 2.003 3.24 2.003 1.006 0 2.5-.4 2.5-1.5 0-1.058-1.273-1.738-2.532-1.863M27 17.5c-1.616 0-3.027-.476-4.117-1.316-.447 2.177-1.12 5.415-1.916 9.13-1.078 5.032-3.708 6.096-5.18 6.283-1.723.22-3.45-.536-4.786-1.982C9.963 31.36 8.43 31.5 8 31.5a1.5 1.5 0 1 1 0-3c.155 0 1-.645 1-3.5V14a1.5 1.5 0 0 1 3 0v11c0 .304.248 1.142.342 1.329.742 1.484 2.004 2.43 3.068 2.292 1.146-.146 2.127-1.616 2.623-3.935 1.448-6.755 2.486-11.93 2.497-11.98.025-.127.053-.25.084-.37A7.717 7.717 0 0 1 20.5 11c0-2.471-3.357-2.5-3.5-2.5a1.5 1.5 0 0 1 0-3c2.573 0 5.17 1.199 6.122 3.51 1.252-.734 2.759-.997 4.14-.858C30.347 8.457 32.5 10.45 32.5 13c0 2.608-2.313 4.5-5.5 4.5" fill="#fff"/></g></svg>