<svg xmlns="http://www.w3.org/2000/svg" viewBox="0 0 47.5 47.5"><defs><clipPath id="a"><path d="M0 38h38V0H0v38z"/></clipPath></defs><g clip-path="url(#a)" transform="matrix(1.25 0 0 -1.25 0 47.5)"><path d="M32.538 15.428C33.466 14.388 34 13.228 34 12c0-4.418-6.715-8-15-8-8.284 0-15 3.582-15 8 0 1.229.535 2.388 1.462 3.428C3.3 13.918 2 12.04 2 10c0-4.97 7.611-9 17-9 9.39 0 17 4.03 17 9 0 2.04-1.299 3.918-3.462 5.428" fill="#dd2e44"/><path d="M10.001 9.5a1.501 1.501 0 0 0-.672 2.842c.12.062 3.171 1.692 3.171 5.658 0 2.127-1.164 3.634-2.396 5.229C8.824 24.886 7.5 26.6 7.5 29c0 4.569 2.34 6.961 2.439 7.061a1.5 1.5 0 1 0 2.132-2.111c-.085-.09-1.571-1.712-1.571-4.95 0-1.376.917-2.563 1.978-3.937C13.825 23.32 15.5 21.151 15.5 18c0-5.859-4.632-8.243-4.829-8.342a1.5 1.5 0 0 0-.67-.158" fill="#dd2e44"/><path d="M17.001 9.5a1.501 1.501 0 0 0-.672 2.842c.12.062 3.171 1.692 3.171 5.658 0 2.127-1.164 3.634-2.396 5.229C15.824 24.886 14.5 26.6 14.5 29c0 4.569 2.34 6.961 2.439 7.061a1.5 1.5 0 1 0 2.132-2.111c-.085-.09-1.571-1.712-1.571-4.95 0-1.376.917-2.563 1.978-3.937C20.824 23.32 22.5 21.151 22.5 18c0-5.859-4.632-8.243-4.829-8.342a1.5 1.5 0 0 0-.67-.158" fill="#dd2e44"/><path d="M24.001 9.5a1.501 1.501 0 0 0-.672 2.842c.12.062 3.171 1.692 3.171 5.658 0 2.127-1.164 3.634-2.395 5.229C22.824 24.886 21.5 26.6 21.5 29c0 4.569 2.34 6.961 2.439 7.061a1.5 1.5 0 1 0 2.132-2.111c-.085-.09-1.571-1.712-1.571-4.95 0-1.376.917-2.563 1.979-3.937C27.824 23.32 29.5 21.151 29.5 18c0-5.859-4.632-8.243-4.829-8.342a1.504 1.504 0 0 0-.67-.158" fill="#dd2e44"/></g></svg>