<svg xmlns="http://www.w3.org/2000/svg" viewBox="0 0 47.5 47.5"><defs><clipPath id="a"><path d="M0 38h38V0H0v38z"/></clipPath></defs><g clip-path="url(#a)" transform="matrix(1.25 0 0 -1.25 0 47.5)"><path d="M31.001 8a.998.998 0 0 0-.869.504l-4.235 6.975c-.275.48-.167 1.08.312 1.354l4.958 3c.156.09.496.167.664.167a.997.997 0 0 0 .857-.521l3.107-5.122.164-2.232c.274-.479-.958-1.184-1.437-1.458l-3.026-2.535A.988.988 0 0 0 31.001 8" fill="#3e721d"/><path d="M24 5a1 1 0 0 0-1 1v6a1 1 0 0 0 1 1h10c1.85 0 1.55 1.781 1.55 1.781s.327-.561.375-.651c.327-.614.544-1.552.034-2.505L32.87 5.503C32.725 5.214 32.379 5 32 5h-8z" fill="#77b255"/><path d="M23 2a1 1 0 0 0-.707.293l-6 6a.999.999 0 0 0 0 1.414l6 6A1 1 0 0 0 24 15V3a.999.999 0 0 0-1-1" fill="#77b255"/><path d="M21.593 33.7a1 1 0 0 0-.054-1.003l-4.292-6.94c-.303-.463-.886-.64-1.348-.336l-4.925 3.054c-.15.099-.373.367-.45.517a.992.992 0 0 0 .076.999l3.152 5.094 1.914 1.159c.303.464 1.49-.315 1.953-.618l3.63-1.545a.988.988 0 0 0 .344-.38" fill="#3e721d"/><path d="M27.444 28.825a1 1 0 0 0-.437-1.346l-5.346-2.724a1 1 0 0 0-1.344.437l-4.54 8.91c-.84 1.649-2.292.573-2.292.573s.352.546.41.629c.4.57 1.135 1.189 2.216 1.167l6.857.029c.325 0 .671-.21.844-.547l3.632-7.128z" fill="#77b255"/><path d="M30.571 29.295a.995.995 0 0 0 .06-.762l-2.622-8.07a.998.998 0 0 0-1.259-.643l-8.07 2.622a1 1 0 0 0-.146 1.842l10.692 5.448a.998.998 0 0 0 1.345-.437" fill="#77b255"/><path d="M4.375 12.458c.181.297.51.49.882.479l8.16-.004c.554-.017 1.01-.42.996-.972l-.014-5.795a1.761 1.761 0 0 0-.203-.654.993.993 0 0 0-.89-.461l-5.991.008-1.993 1.018c-.551.017-.512 1.435-.498 1.986l-.593 3.904a.982.982 0 0 0 .145.491" fill="#3e721d"/><path d="M5.451 19.998a.999.999 0 0 0 1.374.334l5.126-3.118a.999.999 0 0 0 .334-1.374L7.088 7.297c-.96-1.58.717-2.25.717-2.25s-.65.013-.752.019c-.696.038-1.609.341-2.159 1.271L1.27 12.158c-.172.276-.174.682.023 1.006l4.158 6.834z" fill="#77b255"/><path d="M3.407 22.41c.136.225.355.389.618.455l8.245 2.005a.997.997 0 0 0 1.208-.734l2.007-8.244a.998.998 0 0 0-.38-1.045 1.001 1.001 0 0 0-1.11-.046L3.741 21.037a1.005 1.005 0 0 0-.335 1.374" fill="#77b255"/></g></svg>