<svg xmlns="http://www.w3.org/2000/svg" viewBox="0 0 47.5 47.5"><defs><clipPath id="a"><path d="M0 38h38V0H0v38z"/></clipPath></defs><g clip-path="url(#a)" transform="matrix(1.25 0 0 -1.25 0 47.5)"><path d="M37 5a4 4 0 0 0-4-4H5a4 4 0 0 0-4 4v28a4 4 0 0 0 4 4h28a4 4 0 0 0 4-4V5z" fill="#3b88c3"/><path d="M31 30a3 3 0 1 0-6 0 3 3 0 0 0 6 0M14.06 23.94l2.367 2.366 3.86-1.158-2.636-2.846a10.013 10.013 0 0 0 4.392-3.38l5.017 5.018a1.5 1.5 0 0 1-.63 2.497l-9.999 3a1.495 1.495 0 0 1-1.492-.376l-3-3a1.5 1.5 0 1 1 2.121-2.121M30.125 18.991a1.496 1.496 0 0 1-1.262.503l-6.786-.617a9.966 9.966 0 0 0 1.464-2.879l3.548.322-1.554-6.995a1.499 1.499 0 1 1 2.928-.65l2 9c.104.467-.022.956-.338 1.316M14 7A6 6 0 1 0 14 19.002 6 6 0 0 0 14 7m0 14A8 8 0 1 1 14 5a8 8 0 0 1 0 16" fill="#fff"/></g></svg>