<svg xmlns="http://www.w3.org/2000/svg" viewBox="0 0 47.5 47.5"><defs><clipPath id="a"><path d="M0 38h38V0H0v38z"/></clipPath></defs><g clip-path="url(#a)" transform="matrix(1.25 0 0 -1.25 0 47.5)"><path d="M16 31a3 3 0 1 0 6 0 3 3 0 0 0-6 0m20-19l-4.5 6.428L27 12h2.575A11.002 11.002 0 0 0 21 4.19V20h3a2 2 0 0 1 0 4h-3v1.349A5.996 5.996 0 0 1 19 37a5.996 5.996 0 1 1-2-11.651V24h-3a2 2 0 0 1 0-4h3V4.19A11 11 0 0 0 8.425 12H11l-4.5 6.428L2 12h3.33C6.705 5.711 12.299 1 19 1s12.295 4.711 13.67 11H36z" fill="#269"/></g></svg>