<svg xmlns="http://www.w3.org/2000/svg" viewBox="0 0 47.5 47.5"><defs><clipPath id="a"><path d="M0 38h38V0H0v38z"/></clipPath><clipPath id="b"><path d="M1 19C1 9.059 9.059 1 19 1s18 8.059 18 18-8.059 18-18 18S1 28.941 1 19"/></clipPath></defs><g clip-path="url(#a)" transform="matrix(1.25 0 0 -1.25 0 47.5)"><path d="M37 19c0-9.941-8.059-18-18-18S1 9.059 1 19s8.059 18 18 18 18-8.059 18-18" fill="#f5f8fa"/><path d="M19 26a1 1 0 0 0-1 1v7a1 1 0 0 0 2 0v-7a1 1 0 0 0-1-1M12.417 21.5a.99.99 0 0 0-.302.047l-8.041 2.54a1.001 1.001 0 0 0 .602 1.909l8.042-2.542a.999.999 0 0 0-.301-1.955M26.042 21.791a1.001 1.001 0 0 0-.278 1.961l6.75 1.958a.999.999 0 1 0 .556-1.92l-6.75-1.959a.989.989 0 0 0-.278-.04M28.043 6.833a1 1 0 0 0-.803.403l-5.459 7.333a1 1 0 1 0 1.604 1.194l5.459-7.333a1 1 0 0 0-.801-1.597M9.749 6.916a1 1 0 0 0-.82 1.57l5.125 7.375a.999.999 0 1 0 1.642-1.14l-5.125-7.375a.996.996 0 0 0-.822-.43" fill="#ccd6dd"/></g><g clip-path="url(#b)" transform="matrix(1.25 0 0 -1.25 0 47.5)"><path d="M4.5 9.938c-.44 0-.844.292-.965.737l-2.187 8.063a1 1 0 1 0 1.93.524L5.466 11.2A1.001 1.001 0 0 0 4.5 9.938M23 3h-9a1 1 0 1 0 0 2h9a1 1 0 1 0 0-2M33.126 9.875a1 1 0 0 0-.972 1.239l2.125 8.625a1 1 0 1 0 1.942-.478l-2.125-8.625a1.001 1.001 0 0 0-.97-.761M31.311 29.313a.998.998 0 0 0-.5.134l-7.563 4.375a1 1 0 0 0 1.002 1.731l7.563-4.374a1 1 0 0 0-.502-1.866M6.501 29.313a.999.999 0 0 0-.584 1.812l6.188 4.438a1 1 0 0 0 1.166-1.626L7.083 29.5a1 1 0 0 0-.582-.187" fill="#ccd6dd"/><path d="M26.493 23.484l-7.208 5.083a1.002 1.002 0 0 1-1.162-.006l-7.167-5.167a1 1 0 0 1-.375-1.091l2.5-8.582a1 1 0 0 1 .96-.721h8.96c.43 0 .81.275.947.68l2.917 8.668a1 1 0 0 1-.372 1.136M7.774 31.632A.999.999 0 0 1 7 32H4c-.217 0-.427-.07-.6-.2l-4-3A.998.998 0 0 1-1 28v-7.584c0-.292.128-.57.35-.76l2.291-1.958a1.003 1.003 0 0 1 1.522.27l3.375 6c.05.09.087.188.108.29L7.98 30.8c.06.294-.016.6-.206.832M24.735 38.148a.76.76 0 0 1-.81.598l-10.293-1.042c-.293-.03-.52-.174-.614-.453-.08-.174-.858-1.6-1.384-2.557a.75.75 0 0 1 .536-1.102l6.375-1.04a.706.706 0 0 1 .243 0l6.084 1a.748.748 0 0 1 .613.888l-.75 3.708zM38.697 20.359l-4.083 10.333a.75.75 0 0 1-.65.475l-3.334.209a.76.76 0 0 1-.61-.25.741.741 0 0 1-.175-.63l1.167-6.197a.666.666 0 0 1 .093-.224c1.492-2.504 3.153-5.301 3.381-5.781.024-.084.063-.08.114-.151.141-.196.372-.143.613-.143h.006c.25 0 .375-.155 3.181 1.619.305.193.43.405.297.74M15.35 4.168l-4.5 5a.746.746 0 0 1-.212.163c-5.885 3.069-5.994 3.106-6.066 3.13a.79.79 0 0 1-.24.039c-.678 0-.75-.092-1.646-3.956a.722.722 0 0 1-.02-.154l-.083-4.125a.749.749 0 0 1 .374-.663l7.333-4.25a.746.746 0 0 1 .874.087l4.125 3.667c.15.132.24.319.251.518a.754.754 0 0 1-.19.544M34.994 8.556l-1.209 3.209a.747.747 0 0 1-1.003.422L26.7 9.52a.738.738 0 0 1-.274-.205l-4.25-5.083a.75.75 0 0 1 .1-1.062C27.066-.75 27.167-.75 27.5-.75c.28 0 .384 0 6.484 3.867a.748.748 0 0 1 .34.518l.71 4.54a.756.756 0 0 1-.04.38" fill="#292f33"/></g></svg>