<svg xmlns="http://www.w3.org/2000/svg" viewBox="0 0 47.5 47.5"><defs><clipPath id="a"><path d="M0 38h38V0H0v38z"/></clipPath><clipPath id="b"><path d="M1 19C1 9.059 9.059 1 19 1c9.94 0 18 8.059 18 18s-8.059 18-18 18S1 28.941 1 19"/></clipPath><clipPath id="c"><path d="M0 38h38V0H0v38z"/></clipPath></defs><g clip-path="url(#a)" transform="matrix(1.25 0 0 -1.25 0 47.5)"><path d="M19 1C9.059 1 1 9.059 1 19s8.059 18 18 18 18-8.059 18-18S28.94 1 19 1" fill="#e1e8ed"/></g><g clip-path="url(#b)" transform="matrix(1.25 0 0 -1.25 0 47.5)"><path d="M35 7c4.318 0 7 4.598 7 12s-2.682 12-7 12-7-4.598-7-12 2.682-12 7-12m0 26c4.352 0 9-3.678 9-14S39.352 5 35 5s-9 3.678-9 14 4.648 14 9 14M3 7c4.317 0 7 4.598 7 12S7.317 31 3 31s-7-4.598-7-12c0-7.401 2.683-12 7-12m0 26c4.351 0 9-3.678 9-14S7.351 5 3 5s-9 3.678-9 14 4.649 14 9 14" fill="#b3bec4"/></g><g clip-path="url(#c)" transform="matrix(1.25 0 0 -1.25 0 47.5)"><path d="M6.092 26.836c-.237 0-.457.02-.651.056a1.001 1.001 0 0 0 .368 1.966c.43-.077 2.69-.006 3.148 2.276a1 1 0 1 0 1.96-.393c-.581-2.912-3.138-3.905-4.825-3.905M7.811 23c-.53 0-.972.198-.998.734-.026.551.4.911.952.937l.114-.049c1.204.055 2.45.084 3.755 2.343a.994.994 0 0 0 1.366.352c.478-.276.642-.895.365-1.373-1.852-3.206-3.984-3.089-5.394-3.153L7.86 23h-.048zM10 17.718c-.735 0-1.415.135-1.929.378a1 1 0 0 0 .858 1.808c.829-.393 2.925-.24 3.73 1.012a1 1 0 0 0 1.682-1.081c-.964-1.5-2.775-2.117-4.341-2.117M11.161 12.193c-1.554 0-2.995.7-3.926 1.476a1 1 0 1 0 1.28 1.537c.194-.163 1.952-1.566 3.782-.785a1 1 0 1 0 .781-1.842 4.866 4.866 0 0 0-1.917-.386M10.75 7h-.027c-2.505 0-4.68 1.57-5.535 3.108-.268.483-.093 1.044.389 1.313.483.269 1.092.07 1.36-.412.483-.871 1.995-2.134 3.84-2.185.554-.015.989-.387.973-.939-.016-.543-.46-.885-1-.885M28.189 6.813a.999.999 0 0 0-.981 1.196c.664 3.322 3.893 4.15 5.477 3.848a1 1 0 0 0 .797-1.166.994.994 0 0 0-1.166-.799c-.426.08-2.69.008-3.149-2.275a.998.998 0 0 0-.979-.804M25.624 11.313a.999.999 0 0 0-.865 1.5c1.852 3.206 3.984 3.304 5.394 3.369l.112.005a1.002 1.002 0 0 0 1.046-.952 1 1 0 0 0-.951-1.047l-.115-.005c-1.204-.056-2.449-.112-3.754-2.37a.998.998 0 0 0-.867-.5M24.624 17.375a1 1 0 0 0-.84 1.541c1.415 2.203 4.656 2.501 6.269 1.738a.999.999 0 0 0 .475-1.332.998.998 0 0 0-1.331-.476c-.829.394-2.926.239-3.731-1.012a.999.999 0 0 0-.842-.459M30.249 23.313a.997.997 0 0 0-.64.232c-.194.161-1.952 1.558-3.781.784a1 1 0 1 0-.781 1.841c2.219.942 4.535.001 5.844-1.09a1.001 1.001 0 0 0-.642-1.767M32.063 27.25a1 1 0 0 0-.875.514c-.484.872-1.996 2.123-3.84 2.174-.554.015-.988.506-.973 1.059.015.542.46 1.003 1 1.003h.027c2.505 0 4.68-1.694 5.534-3.232a1.017 1.017 0 0 0-.389-1.376 1.006 1.006 0 0 0-.483-.142" fill="#dd2e44"/></g></svg>