<svg xmlns="http://www.w3.org/2000/svg" viewBox="0 0 47.5 47.5"><defs><clipPath id="a"><path d="M0 38h38V0H0v38z"/></clipPath></defs><g clip-path="url(#a)" transform="matrix(1.25 0 0 -1.25 0 47.5)"><path d="M37 5a4 4 0 0 0-4-4H5a4 4 0 0 0-4 4v28a4 4 0 0 0 4 4h28a4 4 0 0 0 4-4V5z" fill="#f4900c"/><path d="M19 6.5c-5.526 0-8 4.27-8 8.5v15a1.5 1.5 0 1 0 3 0V15c0-1.29.36-5.5 5-5.5s5 4.21 5 5.5v15a1.5 1.5 0 1 0 3 0V15c0-4.23-2.474-8.5-8-8.5" fill="#fff"/><path d="M5 15.5a1.502 1.502 0 0 0-1.061 2.561c.525.524.987 1.018 1.415 1.475C7.428 21.75 9.066 23.5 13 23.5c2.43 0 4.649-1.387 6.795-2.728C21.664 19.604 23.431 18.5 25 18.5c2.633 0 3.518.945 5.457 3.015.447.479.933.996 1.482 1.546a1.502 1.502 0 0 0 2.122 0 1.502 1.502 0 0 0 0-2.122c-.525-.524-.987-1.018-1.415-1.475C30.572 17.249 28.934 15.5 25 15.5c-2.431 0-4.649 1.387-6.795 2.728C16.335 19.396 14.57 20.5 13 20.5c-2.633 0-3.518-.945-5.457-3.015-.448-.478-.932-.996-1.482-1.546A1.495 1.495 0 0 0 5 15.5" fill="#fff"/></g></svg>