<svg xmlns="http://www.w3.org/2000/svg" viewBox="0 0 47.5 47.5"><defs><clipPath id="a"><path d="M5 37a4 4 0 0 1-4-4V5a4 4 0 0 1 4-4h28a4 4 0 0 1 4 4v28a4 4 0 0 1-4 4H5z"/></clipPath><clipPath id="b"><path d="M0 38h38V0H0v38z"/></clipPath><clipPath id="c"><path d="M8 13c0-2.209 4.925-4 11-4s11 1.791 11 4-4.925 4-11 4-11-1.791-11-4"/></clipPath><clipPath id="d"><path d="M0 38h38V0H0v38z"/></clipPath></defs><g clip-path="url(#a)" transform="matrix(1.25 0 0 -1.25 0 47.5)"><path d="M37-1H-1v38h38V-1z" fill="#269"/><path d="M39 15H0V-2h39v17z" fill="#5c913b"/></g><g clip-path="url(#b)" transform="matrix(1.25 0 0 -1.25 0 47.5)"><path d="M32 8c0-2.762-5.82-5-13-5S6 5.238 6 8s5.82 5 13 5 13-2.238 13-5" fill="#99aab5"/><path d="M32 13H6V8h26v5z" fill="#99aab5"/><path d="M32 13c0-2.762-5.82-5-13-5S6 10.238 6 13s5.82 5 13 5 13-2.238 13-5" fill="#fff"/><path d="M30 13c0-2.209-4.925-4-11-4S8 10.791 8 13s4.925 4 11 4 11-1.791 11-4" fill="#ccd6dd"/></g><g clip-path="url(#c)" transform="matrix(1.25 0 0 -1.25 0 47.5)"><path d="M30 11c0-2.209-4.925-4-11-4S8 8.791 8 11s4.925 4 11 4 11-1.791 11-4" fill="#3b88c3"/></g><g clip-path="url(#d)" transform="matrix(1.25 0 0 -1.25 0 47.5)"><path d="M22 11c0-.553-1.343-1-3-1s-3 .447-3 1c0 .553 1.343 1 3 1s3-.447 3-1" fill="#99aab5"/><path d="M22 13h-6v-2h6v2z" fill="#99aab5"/><path d="M22 13c0-.553-1.343-1-3-1s-3 .447-3 1c0 .553 1.343 1 3 1s3-.447 3-1" fill="#ccd6dd"/><path d="M23.5 31.5c-1.623 0-2.799-.501-3.638-1.228C19.431 32.366 17.889 35 14 35c-4.746 0-6-3.925-6-6v-2a1 1 0 0 1 2 0v2c0 .163.045 4 4 4 3.853 0 3.997-3.595 4-4v-2.176c-.647.415-1.472.676-2.5.676-3.302 0-4.5-2.691-4.5-4.5v-1a1 1 0 0 1 2 0v.994c.005.418.152 2.506 2.5 2.506s2.495-2.088 2.5-2.5v-9a1 1 0 1 1 2 0v7c0 .334.097 2 2 2 1.826 0 1.992-1.537 2-2v-1a1 1 0 1 1 2 0v1c0 1.608-1.065 4-4 4-.807 0-1.459-.191-2-.486V26c0 .358.099 3.5 3.5 3.5 3.367 0 3.496-3.146 3.5-3.5v-2a1 1 0 1 1 2 0v2c0 1.902-1.149 5.5-5.5 5.5" fill="#55acee"/></g></svg>