<svg xmlns="http://www.w3.org/2000/svg" viewBox="0 0 47.5 47.5"><defs><clipPath id="a"><path d="M0 38h38V0H0v38z"/></clipPath><clipPath id="b"><path d="M1.193 5C1.193 3 3 1 5 1h28c2 0 3.731 2 3.731 4 0 4.355-4.634 11-17.731 11C5.508 16 1.193 9.541 1.193 5"/></clipPath><clipPath id="c"><path d="M0 38h38V0H0v38z"/></clipPath></defs><g clip-path="url(#a)" transform="matrix(1.25 0 0 -1.25 0 47.5)"><path d="M5 1h28c2 0 3.73 2 3.73 4 0 4.355-4.633 11-17.73 11C5.508 16 1.193 9.541 1.193 5 1.193 3 3 1 5 1" fill="#77b255"/></g><g clip-path="url(#b)" transform="matrix(1.25 0 0 -1.25 0 47.5)"><path d="M12.291 7.5c1.125 3.75 9.75 7.666 14.333 7.625 5-.045 2.625-.792 1.625-.792s-11.79-2.625-14-7.5c-1 0-1.958.667-1.958.667" fill="#5c913b"/></g><g clip-path="url(#c)" transform="matrix(1.25 0 0 -1.25 0 47.5)"><path d="M20 6.5C20 5.119 17.09 4 13.5 4S7 5.119 7 6.5 9.91 9 13.5 9 20 7.881 20 6.5" fill="#292f33"/><path d="M11 33V7c0-.553.448-.844 1-.844s1 .291 1 .844v26h-2z" fill="#ffac33"/><path d="M11 34c0 2.2 1.695 3.395 3.767 2.655l9.466-3.381c2.072-.74 2.072-1.951 0-2.691l-9.466-3.381c-2.072-.74-3.767.455-3.767 2.655V34z" fill="#dd2e44"/></g></svg>