<svg xmlns="http://www.w3.org/2000/svg" viewBox="0 0 47.5 47.5"><defs><clipPath id="a"><path d="M0 38h38V0H0v38z"/></clipPath></defs><g clip-path="url(#a)" transform="matrix(1.25 0 0 -1.25 0 47.5)"><path d="M21 11a1 1 0 1 0-2 0v25a1 1 0 0 0 2 0V11z" fill="#a7a9ac"/><path d="M4 13h31V5H13c-6 0-9 8-9 8" fill="#d1d3d4"/><path d="M37 7H1V1h36v6z" fill="#55acee"/><path d="M6 15s2 5 5 9 8 8 8 8-1-11-1-16v-1s-3 1-6 1-6-1-6-1" fill="#ffac33"/><path d="M21 35s6-6 9-11c2.771-4.618 4-9 4-9s-3 1-6 1-6-1-6-1v1c0 9-1 19-1 19" fill="#f4900c"/><path d="M3 13a1 1 0 1 1 0-2h33v2H3z" fill="#e6e7e8"/></g></svg>