<svg xmlns="http://www.w3.org/2000/svg" viewBox="0 0 47.5 47.5"><defs><clipPath id="a"><path d="M5 37a4 4 0 0 1-4-4V5a4 4 0 0 1 4-4h28a4 4 0 0 1 4 4v28a4 4 0 0 1-4 4H5z"/></clipPath><clipPath id="b"><path d="M0 38h38V0H0v38z"/></clipPath></defs><g clip-path="url(#a)" transform="matrix(1.25 0 0 -1.25 0 47.5)"><path d="M37-1H-1v38h38V-1z" fill="#00557f"/><path d="M39 15H0V-2h39v17z" fill="#3e721d"/></g><g clip-path="url(#b)" transform="matrix(1.25 0 0 -1.25 0 47.5)"><path d="M7.5 30A2.5 2.5 0 0 0 5 32.5c0 1.13.755 2.074 1.784 2.383A2.943 2.943 0 0 1 6 35a3 3 0 1 1 0-6c.959 0 1.803.458 2.353 1.159A2.493 2.493 0 0 0 7.5 30M12 34.5a.5.5 0 1 0-1 0 .5.5 0 0 0 1 0M28 25.5a.5.5 0 1 0-1 0 .5.5 0 0 0 1 0M9 25.5a.5.5 0 1 0-1 0 .5.5 0 0 0 1 0M24 32a1 1 0 1 0-2 0 1 1 0 0 0 2 0M6 20a1 1 0 1 0-2 0 1 1 0 0 0 2 0M14 30a1 1 0 1 0-2 0 1 1 0 0 0 2 0M34 20a1 1 0 1 0-2 0 1 1 0 0 0 2 0M23 24a1 1 0 1 0-2 0 1 1 0 0 0 2 0M28 31.5a.5.5 0 1 0-1 0 .5.5 0 0 0 1 0M18 26.5a.5.5 0 1 0-1 0 .5.5 0 0 0 1 0M14 23.5a.5.5 0 1 0-1 0 .5.5 0 0 0 1 0M33 34a1 1 0 1 0-2 0 1 1 0 0 0 2 0M33 29.5a.5.5 0 1 0-1 0 .5.5 0 0 0 1 0" fill="#fff"/><path d="M18 5a1 1 0 0 0-.942.664l-5 14A.999.999 0 0 0 13 21h12c.4 0 .762-.238.919-.606l6-14A1 1 0 0 0 31 5H18z" fill="#ffac33"/><path d="M7 5a1.001 1.001 0 0 0-.919 1.394l6 14a.999.999 0 0 0 1.838 0l6-14A1 1 0 0 0 19 5H7z" fill="#ffcc4d"/><path d="M13 20L11 5h4l-2 15z" fill="#292f33"/></g></svg>