<svg xmlns="http://www.w3.org/2000/svg" viewBox="0 0 47.5 47.5"><defs><clipPath id="a"><path d="M0 38h38V0H0v38z"/></clipPath></defs><g clip-path="url(#a)" transform="matrix(1.25 0 0 -1.25 0 47.5)"><path d="M30.87 14.052a27.632 27.632 0 0 0-1.105-1.458C28.78 11.354 28 10.373 28 9c0-2.48 1.632-3 3-3 .784 0 1.387.284 1.791.845.64.888.741 2.395.261 3.839-.328.978-1.15 2.202-2.182 3.368M31 4c-2.417 0-5 1.314-5 5 0 2.072 1.118 3.478 2.2 4.838.422.532.85 1.07 1.238 1.666C27.883 16.923 26.172 18 25 18v2c1.621 0 3.602-1.133 5.382-2.67.378.995.618 2.177.618 3.67h2c0-2.168-.448-3.816-1.077-5.15 1.445-1.541 2.591-3.23 3.025-4.533.69-2.067.484-4.228-.535-5.642C33.635 4.595 32.423 4 31 4" fill="#939598"/><path d="M22.252 27H10c-2.209 0-3.883-1.791-3.74-4L7.431 5c.143-2.209 1.775-4 3.644-4h10.102c1.869 0 3.501 1.791 3.644 4l1.171 18c.143 2.209-1.531 4-3.74 4" fill="#ffac33"/><path d="M27 4H5a1 1 0 0 1-1-1V1h24v2a1 1 0 0 1-1 1" fill="#a7a9ac"/><path d="M32 27a1 1 0 0 0-1 1v3.236l2.105 4.211a1.001 1.001 0 0 0 1.79-.894L33 30.764V28a1 1 0 0 0-1-1" fill="#ffac33"/><path d="M34.5 21h-.777c.172.295.277.634.277 1v4c0 .738-.404 1.376-1 1.723V28a1 1 0 1 1-2 0v-.277c-.596-.347-1-.985-1-1.723v-4c0-.366.105-.705.277-1H29.5a.5.5 0 0 1 0-1h5a.5.5 0 0 1 0 1" fill="#be1931"/><path d="M26 23a1 1 0 0 1 1-1h5a1 1 0 1 1 0 2h-5a1 1 0 0 1-1-1" fill="#939598"/><path d="M28 23a4 4 0 0 0-4-4H8a4 4 0 0 0-4 4v10a4 4 0 0 0 4 4h16a4 4 0 0 0 4-4V23z" fill="#e6e7e8"/><path d="M26 23a2 2 0 0 0-2-2H8a2 2 0 0 0-2 2v10a2 2 0 0 0 2 2h16a2 2 0 0 0 2-2V23z" fill="#58595b"/><path d="M23 29h-9v3h9v-3z" fill="#a7a9ac"/></g></svg>