<svg xmlns="http://www.w3.org/2000/svg" viewBox="0 0 47.5 47.5"><defs><clipPath id="a"><path d="M0 38h38V0H0v38z"/></clipPath></defs><g clip-path="url(#a)" transform="matrix(1.25 0 0 -1.25 0 47.5)"><path d="M35.825 19.938l.015.178A3.86 3.86 0 0 0 33.124 19h-.248c-1.474 0-2.738.83-3.392 2.042C28.806 19.83 27.526 19 26.038 19h-.076A3.91 3.91 0 0 0 23 20.367v.013a4.029 4.029 0 0 0-.48.696c-.04.072-.07.15-.106.226a3.863 3.863 0 0 0-.236.606c-.052.173-.107.344-.134.526a4.163 4.163 0 0 0-.46-.46c-.07-.06-.148-.108-.22-.162-.117-.087-.23-.177-.356-.251A3.904 3.904 0 0 0 19 21h-3.166c2.71-1.366 4.003-4.204 4.003-8.663a.5.5 0 1 0-1 0c0 6.049-2.336 8.63-7.81 8.63a.5.5 0 0 0-.166.033h-.36a.5.5 0 1 0 0 1H19a3 3 0 1 1 0 6H6.898c-.049 0-.095-.064-.144-.067-.11-.005-.22-.041-.33-.06-.094-.014-.186-.045-.277-.07a2.8 2.8 0 0 1-.285-.094 2.928 2.928 0 0 1-.528-.256 2.686 2.686 0 0 1-.475-.353 2.912 2.912 0 0 1-.558-.671 3.294 3.294 0 0 1-.142-.261 3.424 3.424 0 0 1-.122-.291c-.017-.047-.044-.091-.059-.141L2.32 20.264c-.157-.512-.73-2.856-.627-3.346 0-7.34 8.64-14.971 18.944-14.971 9.977 0 15.025 8.117 15.243 18.043-.019-.02-.036-.033-.055-.052" fill="#d99e82"/><path d="M36 22.864A2.864 2.864 0 0 0 33.136 20h-.272A2.864 2.864 0 0 0 30 22.864v6.272A2.864 2.864 0 0 0 32.864 32h.272A2.864 2.864 0 0 0 36 29.136v-6.272zM29 23a3 3 0 1 0-6 0v9a3 3 0 1 0 6 0v-9zM19 29a3.974 3.974 0 0 0 3-1.38V34a3 3 0 1 1-6 0v-5h3zM15 29v4.007A2.993 2.993 0 0 1 12.007 36h-.014A2.993 2.993 0 0 1 9 33.007V29h6z" fill="#d99e82"/></g></svg>