<svg xmlns="http://www.w3.org/2000/svg" viewBox="0 0 47.5 47.5"><defs><clipPath id="a"><path d="M0 38h38V0H0v38z"/></clipPath></defs><g clip-path="url(#a)" transform="matrix(1.25 0 0 -1.25 0 47.5)"><path d="M31 29s0 2-2 2-2-2-2-2v-9.286a9.915 9.915 0 0 1-1 .398V33s0 2-2 2-2-2-2-2V20.878a28.55 28.55 0 0 1-1 .069V35s0 2-2 2-2-2-2-2V20.948c-.342-.017-.668-.052-1-.081V34s0 2-2 2-2-2-2-2V18c6 0 10-5 10-10 0-1-1-1-1-1 0 6-4 10-10 10v7s0 2-2 2-2-2-2-2V13C7 6.373 12.373 1 19 1s12 5.373 12 12v16z" fill="#d99e82"/></g></svg>