<svg xmlns="http://www.w3.org/2000/svg" viewBox="0 0 47.5 47.5"><defs><clipPath id="a"><path d="M0 38h38V0H0v38z"/></clipPath></defs><g clip-path="url(#a)" transform="matrix(1.25 0 0 -1.25 0 47.5)"><path d="M22.413 34.053c-1.956.416-2.372-1.54-2.372-1.54l-3.097-11.569a26.6 26.6 0 0 1-1.305-.107L13.58 31.35s-.189 1.991-2.18 1.804c-1.992-.188-1.804-2.179-1.804-2.179L11.77 19h8.231c.207 0 .41-.022.606-.062l3.346 12.743s.416 1.957-1.54 2.372M31 14.917A1.916 1.916 0 0 0 29.084 13h-.168A1.916 1.916 0 0 0 27 14.917v4.166c0 1.059.857 1.917 1.916 1.917h.168A1.916 1.916 0 0 0 31 19.083v-4.166zM24 23a2 2 0 0 1-2-2v-2.778c.609-.549 1-1.336 1-2.222 0-.753-.287-1.433-.745-1.959A1.994 1.994 0 0 1 24 13a2 2 0 0 1 2 2v6a2 2 0 0 1-2 2" fill="#d99e82"/><path d="M29.063 12h-.125a2.93 2.93 0 0 0-2.45 1.322 3.039 3.039 0 0 0-.431-.497c-.05-.046-.102-.085-.155-.128a3.057 3.057 0 0 0-.579-.377 2.993 2.993 0 0 0-.436-.172c-.067-.02-.13-.045-.2-.061A2.945 2.945 0 0 0 24 12c-.237 0-.46.036-.68.089-.077.017-.15.042-.224.066a2.97 2.97 0 0 0-.395.161c-.082.04-.163.077-.24.124a3.077 3.077 0 0 0-.99.959l.002.003C21.273 13.287 21 13 20 13h-2.537c1.81-1.365 3.037-3.99 3.037-7a.5.5 0 1 0-1 0c0 3.859-2.187 7-4.875 7H14.5a.5.5 0 0 0 0 1H20a2 2 0 1 1 0 4H12c-.033 0-.063-.008-.095-.01a1.973 1.973 0 0 1-.764-.191 2.38 2.38 0 0 1-.326-.196 2.243 2.243 0 0 1-.282-.254 1.9 1.9 0 0 1-.234-.31 2.17 2.17 0 0 1-.173-.361c-.011-.032-.028-.06-.04-.093L9 13c-.103-.335-.479-1.871-.41-2.191C8.59 6 13.284 1 19 1c6.537 0 11.843 5.231 11.986 11.734A2.917 2.917 0 0 0 29.063 12" fill="#d99e82"/></g></svg>