<svg xmlns="http://www.w3.org/2000/svg" viewBox="0 0 47.5 47.5"><defs><clipPath id="a"><path d="M0 38h38V0H0v38z"/></clipPath></defs><g clip-path="url(#a)" transform="matrix(1.25 0 0 -1.25 0 47.5)"><path d="M36.222 3.402c-.647 2.101-1.705 6.06-2.325 7.566-.501 1.216-.97 2.438-1.544 3.014-.575.575-1.553.53-2.143-.058 0 0-2.468-1.674-3.353-2.783-1.11-.882-2.785-3.357-2.785-3.357-.59-.59-.635-1.568-.06-2.143.576-.575 1.798-1.043 3.015-1.544 1.506-.62 5.465-1.675 7.566-2.325.358-.11 1.739 1.271 1.629 1.63" fill="#d99e82"/><path d="M14.643 31.692a2.946 2.946 0 0 0 0-4.167l-4.167-4.167a2.946 2.946 0 0 0-4.167 0l-4.167 4.167a2.946 2.946 0 0 0 0 4.167l4.167 4.167a2.946 2.946 0 0 0 4.167 0l4.167-4.167z" fill="#ea596e"/><path d="M32.352 13.982s-1.045-1.047-4.17-4.17L24.02 5.647 8.392 21.274l8.334 8.333 15.626-15.625z" fill="#ffcc4d"/><path d="M33.078 2.237s2.71-1.489 3.441-.757c.733.733-.764 3.435-.764 3.435s-2.568-.048-2.677-2.678" fill="#292f33"/><path d="M11.518 34.817l-8.334-8.334 5.208-5.209 8.335 8.334-5.21 5.21z" fill="#ccd6dd"/><path d="M13.601 32.734L5.267 24.4l-1.042 1.042 8.334 8.334 1.042-1.042zM15.684 30.65L7.35 22.315l-1.04 1.042 8.332 8.335 1.042-1.042z" fill="#99aab5"/></g></svg>