<svg xmlns="http://www.w3.org/2000/svg" viewBox="0 0 47.5 47.5"><defs><clipPath id="a"><path d="M0 38h38V0H0v38z"/></clipPath></defs><g clip-path="url(#a)" transform="matrix(1.25 0 0 -1.25 0 47.5)"><path d="M32.986 4.27A1.98 1.98 0 0 0 32 4a2 2 0 1 0 2 2 1.98 1.98 0 0 0-.27-.987l3.146-3.146L36 9l-9 7-5-5 7-9 7.133-.875-3.146 3.146z" fill="#a7a9ac"/><path d="M14.643 31.692a2.946 2.946 0 0 0 0-4.167l-4.167-4.167a2.946 2.946 0 0 0-4.167 0l-4.167 4.167a2.946 2.946 0 0 0 0 4.167l4.167 4.167a2.946 2.946 0 0 0 4.167 0l4.167-4.167z" fill="#6d6e71"/><path d="M27.643 18.691L10.44 35.894 2.107 27.56l17.202-17.202a2.949 2.949 0 0 1 4.168 0l4.166 4.168a2.947 2.947 0 0 1 0 4.166" fill="#414042"/><path d="M17.56 28.775l-8.335-8.334 2.125-2.126 8.334 8.335-2.125 2.125z" fill="#808285"/></g></svg>