<svg xmlns="http://www.w3.org/2000/svg" viewBox="0 0 47.5 47.5"><defs><clipPath id="a"><path d="M0 38h38V0H0v38z"/></clipPath></defs><g clip-path="url(#a)" transform="matrix(1.25 0 0 -1.25 0 47.5)"><path d="M22.533 18.998l12.234 12.234a2.5 2.5 0 1 1-3.535 3.536L18.998 22.533 6.763 34.768a2.5 2.5 0 1 1-3.535-3.536l12.235-12.234L3.201 6.736A2.498 2.498 0 0 1 4.97 2.468c.64 0 1.28.244 1.767.733l12.262 12.262L31.232 3.229A2.494 2.494 0 0 1 33 2.497a2.498 2.498 0 0 1 1.767 4.267L22.533 18.998z" fill="#dd2e44"/></g></svg>