<svg xmlns="http://www.w3.org/2000/svg" viewBox="0 0 47.5 47.5"><defs><clipPath id="a"><path d="M0 38h38V0H0v38z"/></clipPath></defs><g clip-path="url(#a)" transform="matrix(1.25 0 0 -1.25 0 47.5)"><path d="M37 5a4 4 0 0 0-4-4H5a4 4 0 0 0-4 4v28a4 4 0 0 0 4 4h28a4 4 0 0 0 4-4V5z" fill="#3b88c3"/><path d="M22.38 19.038c0 2.356-.216 7.193-3.378 7.193-3.163 0-3.38-4.837-3.38-7.193 0-2.2.217-7.193 3.38-7.193 3.162 0 3.379 4.992 3.379 7.193m-11.596 0c0 5.054 1.954 11.41 8.217 11.41 6.264 0 8.217-6.356 8.217-11.41s-1.953-11.41-8.217-11.41c-6.263 0-8.217 6.356-8.217 11.41" fill="#fff"/></g></svg>