<svg xmlns="http://www.w3.org/2000/svg" viewBox="0 0 47.5 47.5"><defs><clipPath id="a"><path d="M0 38h38V0H0v38z"/></clipPath></defs><g clip-path="url(#a)" transform="matrix(1.25 0 0 -1.25 0 47.5)"><path d="M37 5a4 4 0 0 0-4-4H5a4 4 0 0 0-4 4v28a4 4 0 0 0 4 4h28a4 4 0 0 0 4-4V5z" fill="#3b88c3"/><path d="M24.086 12.093c1.365 0 2.42-.62 2.42-2.046C26.506 8.62 25.45 8 24.273 8H13.917c-1.365 0-2.418.62-2.418 2.047 0 .65.402 1.209.712 1.58 2.574 3.07 5.365 5.862 7.72 9.272.559.806 1.087 1.767 1.087 2.883 0 1.27-.961 2.388-2.233 2.388-3.566 0-1.861-5.023-4.837-5.023-1.488 0-2.264 1.054-2.264 2.263 0 3.907 3.473 7.038 7.287 7.038s6.883-2.511 6.883-6.45c0-4.308-4.805-8.588-7.441-11.905h5.673z" fill="#fff"/></g></svg>