<svg xmlns="http://www.w3.org/2000/svg" viewBox="0 0 47.5 47.5"><defs><clipPath id="a"><path d="M0 38h38V0H0v38z"/></clipPath></defs><g clip-path="url(#a)" transform="matrix(1.25 0 0 -1.25 0 47.5)"><path d="M37 19c0-9.94-8.059-18-18-18S1 9.06 1 19c0 9.941 8.059 18 18 18s18-8.059 18-18" fill="#dd2e44"/><path d="M28.902 21.956c.378 0 .702-.216.892-.648.917-1.943 1.51-3.914 1.943-5.91.026-.137.054-.272.054-.379 0-.432-.19-.756-.675-.918-.135-.027-.27-.054-.405-.054-.405 0-.729.243-.864.81-.43 1.782-1.052 3.915-1.863 5.696a.897.897 0 0 0-.107.459.89.89 0 0 0 .567.837c.161.08.323.108.458.108m-4.453 6.64c.297-.27.485-.594.485-.917a.824.824 0 0 0-.188-.54 1.14 1.14 0 0 0-.918-.46c-.27 0-.513.082-.7.244-1.109.917-2.945 2.105-4.402 2.807-.297.188-.486.485-.486.808 0 .163.054.352.162.514.216.35.567.512.918.512.19 0 .378-.053.567-.134 1.511-.675 3.428-1.836 4.562-2.835m-7.153-6.289c.053 0 .107 0 .19-.027.565-.08.835-.432.835-.918 0-.08 0-.162-.027-.243-.27-2.483-.864-5.102-1.7-7.072-.216-.405-.567-.62-.945-.62a.856.856 0 0 0-.432.108c-.378.161-.54.431-.54.755 0 .19.054.379.162.595.81 1.862 1.35 4.237 1.62 6.64.054.513.351.783.837.783m2.294 3.077c0 .486.405.783 1.026.783.566 0 .972-.297.972-.81v-9.232c2.7 3.59 4.587 8.07 5.83 13.308.108.459.405.729.918.729.081 0 .188 0 .324-.027.54-.108.863-.54.863-.972 0-.108 0-.19-.026-.27-1.782-6.56-4.482-11.85-7.909-15.71v-2.726c0-.648.19-.918.863-1 .46-.052 1.025-.08 1.863-.08.836 0 1.457.08 1.916.189.54.136.837.324.998.89.162.568.298 1.567.324 2.808.028.432.406.81 1 .81h.053c.621-.027.918-.378.918-.972v-.081c-.054-1.511-.243-2.807-.566-3.697-.325-.918-.999-1.486-2.106-1.701-.702-.135-1.539-.19-2.537-.216-1.08 0-1.97.053-2.673.134-1.43.19-2.05.837-2.05 2.214V11.7a27.611 27.611 0 0 0-4.374-3.293c-.243-.162-.486-.243-.702-.243a.834.834 0 0 0-.782.512.892.892 0 0 0-.189.568c0 .35.162.7.54.918 2.024 1.132 3.86 2.618 5.506 4.29v10.933zm-4.589-.54c.486 0 .756-.351.756-.89 0-.567-.27-.945-.756-.945h-2.456c.621-1.431 1.511-2.726 2.483-3.7.19-.187.297-.484.297-.754a.963.963 0 0 0-.216-.621.81.81 0 0 0-.62-.297.977.977 0 0 0-.73.378c-.54.702-1.16 1.862-1.619 3.104.162-1.403.297-2.915.297-4.102v-9.61c0-.513-.35-.81-.972-.81-.594 0-.917.297-.917.81v8.907c0 1.404.215 2.943.404 4.21-.675-2.24-1.808-5.046-3.185-6.936-.216-.297-.513-.46-.837-.46a.825.825 0 0 0-.54.19c-.27.217-.405.486-.405.783 0 .216.082.432.244.647 1.835 2.295 3.266 5.48 3.994 8.26H7.308c-.486 0-.756.379-.756.946 0 .539.27.89.756.89h3.24v3.509a30.456 30.456 0 0 0-2.484-.46c-.054-.025-.108-.025-.189-.025-.459 0-.81.269-.89.836v.162c0 .486.296.837.728.918 2.213.297 4.643.944 6.262 1.78.217.109.432.163.648.163.351 0 .648-.188.864-.485a.951.951 0 0 0 .19-.567c0-.324-.19-.594-.54-.756-.756-.378-1.7-.73-2.7-1.053v-4.022h2.564z" fill="#fff"/></g></svg>