<svg xmlns="http://www.w3.org/2000/svg" viewBox="0 0 47.5 47.5"><defs><clipPath id="a"><path d="M0 38h38V0H0v38z"/></clipPath></defs><g clip-path="url(#a)" transform="matrix(1.25 0 0 -1.25 0 47.5)"><path d="M37 5a4 4 0 0 0-4-4H5a4 4 0 0 0-4 4v28a4 4 0 0 0 4 4h28a4 4 0 0 0 4-4V5z" fill="#3b88c3"/><path d="M25.11 24.774c0-1.954-.837-3.659-2.543-4.744 2.232-1.024 3.782-3.1 3.782-5.55 0-3.72-3.41-6.852-7.813-6.852-4.589 0-7.44 3.38-7.44 5.83 0 1.208 1.27 2.076 2.387 2.076 2.108 0 1.612-3.628 5.115-3.628 1.613 0 2.915 1.24 2.915 2.884 0 4.34-5.27 1.147-5.27 4.806 0 3.255 4.401 1.054 4.401 4.495 0 1.18-.836 2.078-2.232 2.078-2.945 0-2.542-3.039-4.65-3.039-1.272 0-2.016 1.148-2.016 2.295 0 2.418 3.318 5.023 6.76 5.023 4.464 0 6.603-3.256 6.603-5.674" fill="#fff"/></g></svg>