<svg xmlns="http://www.w3.org/2000/svg" viewBox="0 0 47.5 47.5"><defs><clipPath id="a"><path d="M0 38h38V0H0v38z"/></clipPath></defs><g clip-path="url(#a)" transform="matrix(1.25 0 0 -1.25 0 47.5)"><path d="M19 3C10.164 3 3 10.163 3 19c0 8.836 7.164 16 16 16 8.837 0 16-7.164 16-16 0-8.837-7.163-16-16-16m0 34C9.059 37 1 28.94 1 19 1 9.059 9.059 1 19 1s18 8.059 18 18c0 9.94-8.059 18-18 18"/><path d="M19.723 30.448c2.263 0 6.666-.744 6.666-3.473 0-1.116-.776-2.077-1.922-2.077-1.272 0-2.139 1.085-4.744 1.085-3.845 0-5.829-3.256-5.829-7.038 0-3.689 2.015-6.852 5.83-6.852 2.604 0 3.657 1.301 4.928 1.301 1.397 0 2.047-1.394 2.047-2.107 0-2.977-4.682-3.659-6.976-3.659-6.294 0-10.666 4.992-10.666 11.41 0 6.45 4.341 11.41 10.666 11.41"/></g></svg>