<svg xmlns="http://www.w3.org/2000/svg" viewBox="0 0 47.5 47.5"><defs><clipPath id="a"><path d="M0 38h38V0H0v38z"/></clipPath></defs><g clip-path="url(#a)" transform="matrix(1.25 0 0 -1.25 0 47.5)"><path d="M19 3C10.164 3 3 10.163 3 19c0 8.836 7.164 16 16 16 8.837 0 16-7.164 16-16 0-8.837-7.163-16-16-16m0 34C9.059 37 1 28.94 1 19 1 9.059 9.059 1 19 1s18 8.059 18 18c0 9.94-8.059 18-18 18"/><path d="M16.428 20.31h3.193c1.705 0 2.885 1.023 2.885 2.759 0 1.767-1.18 2.729-2.885 2.729h-3.193V20.31zm-4.65 7.348c0 1.488.836 2.419 2.386 2.419h5.457c4.775 0 7.721-2.14 7.721-7.008 0-3.41-2.574-5.363-5.737-5.86l5.272-5.643c.433-.465.62-.93.62-1.364 0-1.21-.962-2.387-2.325-2.387-.559 0-1.303.217-1.799.806l-6.883 8.34h-.062v-6.728c0-1.551-.992-2.418-2.326-2.418-1.333 0-2.325.867-2.325 2.418v17.425z"/></g></svg>