<svg xmlns="http://www.w3.org/2000/svg" viewBox="0 0 47.5 47.5"><defs><clipPath id="a"><path d="M0 38h38V0H0v38z"/></clipPath></defs><g clip-path="url(#a)" transform="matrix(1.25 0 0 -1.25 0 47.5)"><path d="M19.04 23.05L1 11V3a2 2 0 0 1 2-2h32a2 2 0 0 1 2 2v7.99L19.04 23.05z" fill="#a7a9ac"/><path d="M37 4H1V3h36v1zM37 7H1V6h36v1zM37 10H1V9h36v1zM2.497 12h32.998l-1.489 1H3.994l-1.497-1z" fill="#808285"/><path d="M19 37c-7.18 0-13-1.343-13-3V1h26v33c0 1.657-5.82 3-13 3" fill="#d1d3d4"/><path d="M19 24c7.18 0 13-1.344 13-3v2c0 1.657-5.82 3-13 3S6 24.657 6 23v-2c0 1.656 5.82 3 13 3M19 12c7.18 0 13-1.344 13-3v2c0 1.656-5.82 3-13 3S6 12.656 6 11V9c0 1.656 5.82 3 13 3M19 6c7.18 0 13-1.344 13-3v2c0 1.656-5.82 3-13 3S6 6.656 6 5V3c0 1.656 5.82 3 13 3M19 30c7.18 0 13-1.344 13-3v2c0 1.657-5.82 3-13 3S6 30.657 6 29v-2c0 1.656 5.82 3 13 3" fill="#bcbec0"/><path d="M15 36.853V1h2V36.96a51.326 51.326 0 0 1-2-.107M9 35.916V1h2v35.361a22.466 22.466 0 0 1-2-.445M21 36.96V1h2v35.854c-.646.048-1.315.083-2 .107M27 36.361V1.001h2v34.915c-.594.165-1.269.313-2 .445" fill="#bcbec0"/><path d="M19 18c7.18 0 13-1.344 13-3v2c0 1.657-5.82 3-13 3S6 18.657 6 17v-2c0 1.656 5.82 3 13 3" fill="#414042"/><path d="M12.13 31.418h-.708c-.576 0-.815.42-.815.828 0 .418.299.826.815.826h1.703c.516 0 .804-.372.804-.85v-6.826c0-.6-.384-.935-.9-.935-.515 0-.9.336-.9.936v6.02zM19.495 29.27c0 .912-.084 2.783-1.307 2.783-1.223 0-1.307-1.871-1.307-2.783 0-.852.084-2.782 1.307-2.782 1.223 0 1.307 1.93 1.307 2.782m-4.485 0c0 1.955.756 4.414 3.178 4.414 2.423 0 3.178-2.46 3.178-4.414 0-1.955-.755-4.414-3.178-4.414-2.422 0-3.178 2.458-3.178 4.413M26.216 30.242c0 .671-.42 1.247-1.14 1.247-.682 0-1.138-.552-1.138-1.247 0-.636.383-1.248 1.139-1.248.684 0 1.139.54 1.139 1.248m1.87 0c0-1.81-1.834-4.354-3.045-5.48a2.663 2.663 0 0 0-.384-.289c-.131-.084-.263-.084-.36-.084-.335 0-.852.444-.852.875 0 .168.109.312.252.492.48.588 1.26 1.356 1.656 1.92l-.024.023a1.93 1.93 0 0 0-.756-.144c-1.44 0-2.506 1.271-2.506 2.687a2.973 2.973 0 0 0 3.01 2.974c1.847 0 3.01-1.379 3.01-2.974" fill="#be1931"/></g></svg>