<?xml version="1.0" standalone="no"?>
<!DOCTYPE svg PUBLIC "-//W3C//DTD SVG 20010904//EN"
 "http://www.w3.org/TR/2001/REC-SVG-20010904/DTD/svg10.dtd">
<svg version="1.0" xmlns="http://www.w3.org/2000/svg"
 width="2048.000000pt" height="2048.000000pt" viewBox="0 0 2048.000000 2048.000000"
 preserveAspectRatio="xMidYMid meet">
<metadata>
Created by potrace 1.13, written by Peter Selinger 2001-2015
</metadata>
<g transform="translate(0.000000,2048.000000) scale(0.192120,-0.192120)"
fill="#000000" stroke="none">
<path d="M2395 10319 c-240 -35 -480 -160 -646 -338 -142 -151 -234 -322 -282
-523 l-22 -93 0 -4035 0 -4035 22 -93 c94 -393 383 -705 761 -822 166 -52 44
-50 3097 -50 1890 0 2868 3 2923 10 501 63 896 461 962 970 13 102 13 7938 0
8040 -66 506 -453 900 -954 969 -95 13 -5769 13 -5861 0z m5855 -140 c255 -40
461 -164 635 -379 74 -92 128 -198 164 -321 l31 -107 0 -4075 0 -4075 -28 -69
c-73 -180 -167 -317 -290 -426 -138 -121 -278 -190 -464 -229 -51 -11 -610
-13 -2983 -13 l-2920 0 -96 27 c-164 45 -296 115 -415 219 -128 113 -203 223
-262 382 l-27 72 -3 4120 c-2 3193 0 4133 9 4179 7 32 31 96 55 142 148 290
396 484 698 544 87 17 226 18 2961 19 1942 1 2891 -3 2935 -10z M4867 9169
c-9 -5 -24 -23 -32 -39 -26 -51 -19 -112 29 -233 131 -330 176 -695 176 -1419
l0 -377 -32 -5 c-71 -11 -1302 -157 -1447 -172 -84 -8 -199 -16 -255 -17 -96
-1 -107 1 -221 41 -134 48 -218 67 -348 77 -130 11 -170 -13 -183 -109 -6 -43
-5 -45 34 -74 47 -34 117 -113 170 -192 35 -53 102 -194 102 -216 0 -6 14 -56
30 -110 40 -130 73 -296 105 -529 14 -104 50 -350 80 -545 29 -195 57 -382 61
-415 16 -139 102 -333 186 -417 40 -41 53 -48 86 -48 24 0 49 8 64 19 30 24
80 116 103 192 l18 56 36 -8 c57 -13 357 -10 578 6 223 16 723 61 791 71 l42
6 0 -1388 c0 -1384 4 -1609 36 -1829 22 -154 98 -335 141 -335 44 0 141 145
192 287 124 338 191 1084 191 2128 0 215 3 568 7 785 l6 396 321 23 c177 12
400 31 496 41 358 39 707 60 1015 60 105 0 208 5 229 10 153 35 119 160 -79
289 l-72 47 23 30 c13 16 39 61 58 99 81 165 257 549 301 653 82 195 227 419
405 621 111 127 140 177 140 240 0 55 -16 85 -82 149 -92 90 -225 179 -393
262 -185 92 -322 140 -391 140 -58 -1 -195 -27 -355 -68 -152 -39 -251 -51
-969 -122 -333 -33 -616 -63 -629 -66 l-23 -5 5 488 c3 268 10 535 16 593 17
160 49 339 76 424 13 42 31 113 40 158 14 76 14 82 -4 124 -34 75 -164 140
-381 187 -191 43 -449 61 -493 36z m427 -306 c94 -18 157 -39 168 -56 13 -21
9 -81 -16 -203 -51 -252 -56 -324 -56 -887 0 -569 -2 -545 56 -624 32 -42 30
-83 -6 -140 -16 -26 -30 -53 -30 -60 0 -7 -4 -13 -10 -13 -7 0 -10 -288 -10
-844 l0 -843 27 -49 c14 -27 41 -66 59 -86 74 -83 78 -107 27 -164 -70 -78
-93 -108 -93 -121 0 -7 -4 -13 -10 -13 -5 0 -10 -11 -10 -24 0 -13 -5 -26 -11
-28 -9 -3 -14 -234 -20 -846 -9 -888 -20 -1197 -46 -1287 -21 -70 -26 114 -30
1058 -4 864 -7 1019 -19 1024 -8 3 -14 14 -14 24 0 10 -4 19 -8 19 -4 0 -13
12 -19 28 -7 15 -35 55 -63 90 -27 35 -50 71 -50 81 0 10 22 45 49 79 27 34
55 77 62 97 7 19 17 35 21 35 4 0 8 378 8 840 0 926 6 835 -58 940 -29 47 -27
77 8 129 17 24 30 52 30 63 0 10 5 18 10 18 17 0 13 1072 -5 1205 -23 172 -44
285 -85 458 -13 52 -16 86 -10 101 9 26 18 26 154 -1z m2436 -1768 c180 -65
412 -200 418 -243 4 -30 -37 -99 -115 -194 -130 -157 -307 -456 -381 -644 -11
-27 -70 -157 -132 -289 -163 -348 -190 -417 -190 -485 0 -75 -26 -100 -103
-100 -86 0 -96 24 -43 104 40 60 95 169 108 211 22 73 200 787 239 955 37 162
43 204 47 338 5 165 4 166 -68 292 -21 36 -26 71 -12 84 14 16 157 -2 232 -29z
m-445 -135 c72 -36 91 -67 87 -143 -7 -173 -282 -1294 -353 -1440 l-22 -44
-76 -7 c-135 -12 -337 -36 -813 -96 -257 -33 -474 -60 -483 -60 -13 0 -15 97
-15 854 0 951 -7 866 70 866 21 0 148 11 282 24 539 54 854 75 1098 72 165 -2
179 -4 225 -26z m-2245 -995 c0 -677 -3 -855 -12 -855 -7 0 -101 -7 -208 -15
-373 -28 -1220 -78 -1225 -73 -2 2 -11 80 -19 173 -22 226 -58 543 -106 920
-21 171 -41 333 -43 362 l-4 52 56 12 c31 6 90 22 131 34 79 25 332 77 590
120 130 22 788 121 828 124 9 1 12 -176 12 -854z m-1920 692 c30 -8 67 -18 83
-21 23 -5 27 -12 27 -39 0 -18 -6 -39 -12 -45 -9 -9 -15 -66 -18 -180 -3 -100
-9 -159 -14 -147 -4 11 -11 29 -16 40 -4 11 -17 43 -28 70 -39 95 -100 260
-106 292 -8 36 0 57 18 50 6 -2 36 -11 66 -20z m324 -1741 c61 -74 63 -90 23
-134 -32 -34 -59 -25 -79 28 -18 47 -25 184 -9 178 5 -1 34 -34 65 -72z"/>
</g>
</svg>
