<?xml version="1.0" standalone="no"?>
<!DOCTYPE svg PUBLIC "-//W3C//DTD SVG 20010904//EN"
 "http://www.w3.org/TR/2001/REC-SVG-20010904/DTD/svg10.dtd">
<svg version="1.0" xmlns="http://www.w3.org/2000/svg"
 width="2048.000000pt" height="2048.000000pt" viewBox="0 0 2048.000000 2048.000000"
 preserveAspectRatio="xMidYMid meet">
<metadata>
Created by potrace 1.13, written by Peter Selinger 2001-2015
</metadata>
<g transform="translate(0.000000,2048.000000) scale(0.192120,-0.192120)"
fill="#000000" stroke="none">
<path d="M1320 10324 c-272 -41 -463 -131 -640 -301 -176 -167 -284 -364 -332
-603 -19 -96 -19 -8084 0 -8180 80 -398 361 -723 733 -849 180 -60 -136 -56
4249 -56 3399 0 4036 2 4095 14 398 79 726 367 848 746 55 171 52 -100 52
4235 0 4335 3 4064 -52 4235 -51 157 -132 292 -250 415 -175 184 -378 293
-627 335 -78 13 -557 15 -4070 14 -2189 -1 -3992 -3 -4006 -5z m8099 -298
c285 -69 504 -240 600 -469 l31 -76 -2 -4158 -3 -4158 -33 -75 c-75 -171 -208
-311 -377 -396 -110 -54 -196 -80 -323 -94 -69 -8 -1242 -10 -4052 -8 l-3955
3 -96 27 c-232 64 -415 197 -524 381 -27 45 -59 111 -72 147 l-22 65 -1 4116
c0 4110 0 4116 20 4175 95 274 383 490 712 533 35 5 1854 8 4043 7 3800 -1
3983 -2 4054 -20z M5150 8746 c-218 -46 -413 -157 -590 -336 -133 -134 -215
-250 -296 -415 -46 -94 -304 -780 -923 -2455 -472 -1279 -873 -2369 -890
-2423 -30 -94 -31 -104 -31 -275 0 -195 7 -234 63 -352 44 -92 131 -214 207
-290 127 -127 293 -214 463 -241 93 -14 254 -7 342 16 149 40 318 153 411 276
118 154 166 256 273 581 89 272 113 331 144 353 19 13 158 15 1020 15 l999 0
32 -33 c27 -27 46 -75 124 -313 51 -154 110 -318 132 -363 74 -154 187 -298
297 -379 141 -103 270 -149 448 -159 371 -20 671 192 825 582 29 73 33 93 37
221 6 164 -6 243 -66 424 -50 150 -1641 4564 -1688 4684 -74 188 -123 277
-230 417 -174 229 -373 372 -618 445 -79 23 -111 27 -255 30 -113 2 -186 -1
-230 -10z m365 -251 c172 -30 319 -104 447 -224 122 -114 206 -234 269 -381
60 -141 1751 -4846 1771 -4930 55 -219 10 -405 -131 -553 -67 -71 -141 -117
-246 -153 -70 -24 -95 -28 -200 -28 -288 1 -473 114 -585 358 -20 45 -95 264
-166 489 l-129 407 -1199 -2 -1198 -3 -45 -140 c-249 -784 -268 -829 -378
-941 -118 -119 -251 -168 -450 -167 -101 0 -132 4 -200 26 -297 97 -471 356
-434 646 5 45 18 107 28 139 47 143 1776 4805 1807 4872 52 110 134 227 224
318 225 227 508 320 815 267z M5337 7163 c-2 -5 -35 -102 -72 -218 -94 -295
-669 -2049 -711 -2169 -19 -55 -34 -101 -34 -103 0 -2 368 -3 818 -3 l819 0
-368 1148 c-202 631 -382 1193 -399 1250 -29 93 -41 115 -53 95z m44 -868 c16
-26 320 -965 378 -1165 15 -50 21 -95 19 -135 l-3 -60 -445 0 -445 0 -3 50
c-2 42 22 128 157 540 250 768 266 809 304 803 11 -2 29 -16 38 -33z"/>
</g>
</svg>
