<?xml version="1.0" standalone="no"?>
<!DOCTYPE svg PUBLIC "-//W3C//DTD SVG 20010904//EN"
 "http://www.w3.org/TR/2001/REC-SVG-20010904/DTD/svg10.dtd">
<svg version="1.0" xmlns="http://www.w3.org/2000/svg"
 width="2048.000000pt" height="2048.000000pt" viewBox="0 0 2048.000000 2048.000000"
 preserveAspectRatio="xMidYMid meet">
<metadata>
Created by potrace 1.13, written by Peter Selinger 2001-2015
</metadata>
<g transform="translate(0.000000,2048.000000) scale(0.192120,-0.192120)"
fill="#000000" stroke="none">
<path d="M1320 10324 c-272 -41 -463 -131 -640 -301 -176 -167 -284 -364 -332
-603 -19 -96 -19 -8084 0 -8180 80 -398 361 -723 733 -849 180 -60 -136 -56
4249 -56 3399 0 4036 2 4095 14 398 79 726 367 848 746 55 171 52 -100 52
4235 0 4335 3 4064 -52 4235 -51 157 -132 292 -250 415 -175 184 -378 293
-627 335 -78 13 -557 15 -4070 14 -2189 -1 -3992 -3 -4006 -5z m8099 -298
c285 -69 504 -240 600 -469 l31 -76 -2 -4158 -3 -4158 -33 -75 c-75 -171 -208
-311 -377 -396 -110 -54 -196 -80 -323 -94 -69 -8 -1242 -10 -4052 -8 l-3955
3 -96 27 c-232 64 -415 197 -524 381 -27 45 -59 111 -72 147 l-22 65 -1 4116
c0 4110 0 4116 20 4175 95 274 383 490 712 533 35 5 1854 8 4043 7 3800 -1
3983 -2 4054 -20z M3870 8660 c-173 -13 -304 -55 -434 -137 -179 -114 -336
-320 -389 -509 -16 -56 -17 -244 -17 -2670 l0 -2610 24 -70 c88 -259 281 -485
499 -584 192 -87 301 -93 1462 -87 769 4 920 7 1035 21 591 75 1047 299 1370
675 121 140 198 258 285 436 83 168 143 341 182 520 23 109 26 147 30 405 4
193 1 308 -7 360 -23 148 -82 323 -164 490 -134 270 -411 568 -681 732 -66 40
-83 73 -61 116 9 17 20 34 26 37 5 3 36 41 68 83 140 184 248 427 293 655 16
81 19 143 19 356 0 263 -5 316 -41 456 -81 308 -240 576 -480 812 -288 282
-619 439 -1064 504 -95 14 -1788 22 -1955 9z m1870 -261 c407 -37 749 -185
1012 -438 130 -124 215 -238 288 -386 88 -179 127 -312 150 -510 42 -374 -50
-768 -239 -1016 -109 -143 -282 -284 -470 -381 -46 -23 -84 -47 -85 -52 0 -5
49 -19 109 -31 141 -29 213 -53 352 -120 165 -79 280 -161 418 -300 223 -223
356 -475 412 -777 21 -112 23 -395 4 -538 -117 -894 -686 -1433 -1642 -1557
-120 -16 -246 -18 -1184 -18 -1181 0 -1106 -5 -1275 77 -67 32 -101 57 -160
117 -87 87 -132 165 -160 277 -20 76 -20 120 -20 2603 0 2773 -4 2583 60 2715
89 186 274 308 504 335 108 13 1790 13 1926 0z M4540 6625 l0 -646 418 3 c359
4 425 6 477 21 301 87 464 310 469 637 1 134 -11 194 -62 299 -68 141 -214
252 -399 303 -73 20 -105 22 -490 26 l-413 3 0 -646z m760 355 c143 -19 270
-77 310 -142 18 -29 20 -51 20 -196 0 -146 -2 -167 -22 -209 -29 -61 -74 -105
-144 -138 -90 -43 -182 -54 -436 -55 l-228 0 0 375 0 375 213 0 c116 0 246 -5
287 -10z M4540 4124 l0 -715 588 3 587 4 97 26 c263 72 439 231 515 463 34
107 44 316 19 415 -72 286 -312 462 -691 509 -55 7 -290 11 -602 11 l-513 0 0
-716z m1077 425 c109 -12 241 -47 314 -85 27 -13 72 -46 99 -73 l50 -47 0
-201 0 -201 -42 -63 c-54 -80 -126 -131 -231 -164 -117 -37 -222 -45 -634 -45
l-373 0 0 445 0 445 360 0 c199 0 404 -5 457 -11z"/>
</g>
</svg>
