<?xml version="1.0" standalone="no"?>
<!DOCTYPE svg PUBLIC "-//W3C//DTD SVG 20010904//EN"
 "http://www.w3.org/TR/2001/REC-SVG-20010904/DTD/svg10.dtd">
<svg version="1.0" xmlns="http://www.w3.org/2000/svg"
 width="2048.000000pt" height="2048.000000pt" viewBox="0 0 2048.000000 2048.000000"
 preserveAspectRatio="xMidYMid meet">
<metadata>
Created by potrace 1.13, written by Peter Selinger 2001-2015
</metadata>
<g transform="translate(0.000000,2048.000000) scale(0.192120,-0.192120)"
fill="#000000" stroke="none">
<path d="M1320 10324 c-272 -41 -463 -131 -640 -301 -176 -167 -284 -364 -332
-603 -19 -96 -19 -8084 0 -8180 80 -398 361 -723 733 -849 180 -60 -136 -56
4249 -56 3399 0 4036 2 4095 14 398 79 726 367 848 746 55 171 52 -100 52
4235 0 4335 3 4064 -52 4235 -51 157 -132 292 -250 415 -175 184 -378 293
-627 335 -78 13 -557 15 -4070 14 -2189 -1 -3992 -3 -4006 -5z m8099 -298
c285 -69 504 -240 600 -469 l31 -76 -2 -4158 -3 -4158 -33 -75 c-75 -171 -208
-311 -377 -396 -110 -54 -196 -80 -323 -94 -69 -8 -1242 -10 -4052 -8 l-3955
3 -96 27 c-232 64 -415 197 -524 381 -27 45 -59 111 -72 147 l-22 65 -1 4116
c0 4110 0 4116 20 4175 95 274 383 490 712 533 35 5 1854 8 4043 7 3800 -1
3983 -2 4054 -20z M5065 8850 c-315 -27 -645 -100 -917 -206 -275 -106 -602
-297 -841 -489 -266 -216 -565 -559 -743 -855 -249 -415 -419 -900 -489 -1390
-14 -98 -16 -192 -12 -630 3 -477 5 -523 26 -630 146 -770 464 -1401 966
-1919 267 -275 555 -482 897 -646 708 -338 1574 -397 2353 -160 564 172 1070
511 1466 985 442 527 739 1238 819 1955 16 148 13 809 -5 955 -129 1046 -701
1987 -1542 2537 -394 258 -869 427 -1358 483 -128 15 -490 20 -620 10z m674
-275 c916 -127 1681 -636 2163 -1437 477 -795 610 -1796 367 -2763 -151 -598
-485 -1169 -909 -1552 -465 -420 -1005 -662 -1660 -745 -159 -20 -622 -16
-780 6 -356 50 -647 138 -948 286 -290 143 -515 304 -747 535 -262 260 -462
544 -619 877 -476 1014 -439 2323 93 3288 134 241 319 488 513 681 487 485
1109 771 1828 839 138 13 564 4 699 -15z M5069 7355 c-669 -109 -1143 -591
-1330 -1350 -58 -236 -73 -372 -73 -670 -1 -371 31 -585 130 -885 213 -643
650 -1042 1249 -1141 113 -18 157 -20 335 -16 230 6 324 21 502 83 211 73 390
186 553 349 129 129 217 254 308 435 115 229 193 488 234 780 27 192 24 617
-5 805 -43 275 -110 500 -212 711 -232 479 -601 779 -1089 885 -126 27 -471
36 -602 14z m571 -294 c182 -39 327 -98 466 -191 101 -68 274 -242 343 -345
108 -164 194 -376 246 -608 l26 -119 -4 -501 c-3 -501 -4 -502 -29 -599 -137
-514 -365 -836 -717 -1008 -105 -52 -203 -86 -324 -112 -138 -30 -474 -32
-611 -5 -321 65 -580 217 -765 451 -113 142 -228 377 -285 584 -61 217 -66
272 -66 718 0 481 8 546 96 813 174 523 551 850 1079 936 128 21 417 13 545
-14z"/>
</g>
</svg>
