<?xml version="1.0" standalone="no"?>
<!DOCTYPE svg PUBLIC "-//W3C//DTD SVG 20010904//EN"
 "http://www.w3.org/TR/2001/REC-SVG-20010904/DTD/svg10.dtd">
<svg version="1.0" xmlns="http://www.w3.org/2000/svg"
 width="2048.000000pt" height="2048.000000pt" viewBox="0 0 2048.000000 2048.000000"
 preserveAspectRatio="xMidYMid meet">
<metadata>
Created by potrace 1.13, written by Peter Selinger 2001-2015
</metadata>
<g transform="translate(0.000000,2048.000000) scale(0.192120,-0.192120)"
fill="#000000" stroke="none">
<path d="M1320 10324 c-273 -42 -463 -131 -640 -301 -176 -167 -284 -364 -332
-603 -19 -96 -19 -8084 0 -8180 80 -398 361 -723 733 -849 180 -60 -136 -56
4249 -56 3399 0 4036 2 4095 14 398 79 726 367 848 746 55 171 52 -100 52
4235 0 4335 3 4064 -52 4235 -51 157 -132 292 -250 415 -160 169 -333 267
-572 328 -61 15 -367 16 -4086 18 -2211 1 -4031 0 -4045 -2z m7980 -264 c326
-32 589 -200 717 -459 l48 -96 0 -4170 0 -4170 -32 -72 c-110 -249 -307 -413
-588 -490 l-100 -28 -3950 -3 c-2817 -2 -3978 0 -4047 8 -236 27 -410 109
-568 269 -82 84 -152 198 -189 311 l-21 65 2 4125 3 4125 31 71 c121 279 399
475 725 513 103 12 7848 13 7969 1z M2385 8676 c-249 -57 -469 -234 -585 -470
-88 -178 -80 105 -80 -2868 l0 -2647 26 -83 c94 -297 319 -532 584 -608 107
-31 289 -38 401 -15 300 60 511 263 640 615 l24 65 3 2659 2 2658 -21 70 c-51
173 -132 302 -270 432 -88 82 -211 152 -324 182 -82 22 -320 28 -400 10z m315
-230 c197 -36 349 -145 431 -311 81 -166 74 106 74 -2795 0 -2894 7 -2629 -72
-2790 -108 -223 -368 -353 -643 -323 -310 34 -513 225 -559 523 -9 56 -11 728
-9 2640 l3 2565 30 85 c51 147 143 262 265 333 131 75 312 103 480 73z M4575
8639 c-221 -21 -395 -107 -553 -273 -80 -84 -123 -146 -169 -246 -69 -146 -63
101 -63 -2791 l0 -2618 31 -85 c59 -164 186 -340 313 -433 140 -103 292 -156
493 -173 164 -13 1481 -13 1728 0 1112 61 1966 549 2488 1423 208 347 343 717
424 1162 25 134 26 159 30 600 5 477 1 570 -37 790 -69 397 -162 689 -330
1030 -187 381 -493 751 -837 1009 -490 369 -1071 565 -1793 606 -203 11 -1606
11 -1725 -1z m1733 -239 c494 -29 898 -129 1280 -317 830 -408 1352 -1203
1486 -2261 41 -319 45 -720 11 -1012 -157 -1343 -1016 -2267 -2310 -2485 -282
-47 -352 -50 -1320 -50 l-910 0 -79 22 c-132 38 -221 88 -306 173 -84 83 -127
159 -157 276 -17 65 -18 206 -18 2579 0 2395 1 2514 18 2588 62 263 263 447
532 486 85 12 1564 13 1773 1z M5277 5343 l3 -1878 432 -3 c463 -3 662 6 820
38 528 108 918 458 1102 989 92 264 127 494 127 832 0 1000 -416 1644 -1186
1838 -195 49 -262 54 -795 58 l-505 5 2 -1879z m878 1607 c94 -4 211 -16 260
-24 577 -101 923 -426 1060 -996 25 -105 25 -106 25 -595 0 -480 -1 -492 -24
-595 -13 -58 -41 -150 -61 -205 -169 -451 -475 -711 -945 -800 -105 -20 -389
-34 -707 -35 l-243 0 0 1630 0 1630 233 0 c127 0 309 -5 402 -10z"/>
</g>
</svg>
