<?xml version="1.0" standalone="no"?>
<!DOCTYPE svg PUBLIC "-//W3C//DTD SVG 20010904//EN"
 "http://www.w3.org/TR/2001/REC-SVG-20010904/DTD/svg10.dtd">
<svg version="1.0" xmlns="http://www.w3.org/2000/svg"
 width="2048.000000pt" height="2048.000000pt" viewBox="0 0 2048.000000 2048.000000"
 preserveAspectRatio="xMidYMid meet">
<metadata>
Created by potrace 1.13, written by Peter Selinger 2001-2015
</metadata>
<g transform="translate(0.000000,2048.000000) scale(0.192120,-0.192120)"
fill="#000000" stroke="none">
<path d="M1994 8935 c21 -7 43 -18 49 -24 6 -6 19 -11 28 -11 10 0 19 -6 22
-12 3 -10 47 -13 177 -13 130 0 174 3 178 13 2 6 11 12 20 12 10 0 31 9 48 19
18 11 42 21 55 24 13 2 -120 5 -296 5 -284 1 -316 0 -281 -13z M1310 8934
c-272 -41 -484 -148 -663 -333 -127 -132 -201 -253 -257 -421 -50 -147 -60
-248 -60 -599 0 -281 2 -313 16 -307 9 3 353 6 765 6 l749 0 0 830 0 830 -262
-1 c-145 -1 -274 -3 -288 -5z m270 -839 l0 -555 -490 0 -490 0 0 265 c0 246 2
268 21 322 66 175 224 343 403 427 147 69 261 94 439 95 l117 1 0 -555z M2690
8110 l0 -830 765 0 765 0 0 345 0 345 3051 0 3051 0 -7 43 c-23 136 -89 303
-169 427 -61 94 -199 236 -292 300 -100 69 -242 135 -361 168 l-98 27 -3352 3
-3353 2 0 -830z m6765 513 c120 -34 268 -111 355 -185 116 -100 157 -173 111
-198 -14 -7 -893 -10 -2768 -10 -1511 -1 -2778 -4 -2814 -9 -36 -5 -83 -17
-104 -27 -49 -23 -204 -170 -211 -200 -3 -13 -10 -24 -15 -24 -5 0 -9 -9 -9
-19 0 -11 -4 -23 -10 -26 -6 -4 -10 -67 -10 -156 0 -142 -1 -149 -20 -149 -17
0 -20 -7 -20 -40 l0 -40 -495 0 -495 0 0 555 0 555 3213 -2 3212 -3 80 -22z
M10302 7796 c-12 -24 -22 -50 -22 -59 0 -9 -4 -19 -10 -22 -12 -8 -13 -195 -1
-195 5 0 11 -12 15 -27 3 -16 15 -39 26 -53 l20 -25 0 213 c0 116 -1 212 -3
212 -2 0 -13 -20 -25 -44z M7228 7273 l-3008 -3 0 -415 0 -415 -765 0 -765 0
0 -765 0 -765 3820 0 3820 0 0 420 0 420 -3055 -2 -3055 -3 0 348 0 347 3055
0 3055 0 0 420 0 420 -47 -2 c-27 -2 -1401 -4 -3055 -5z m2812 -428 l0 -145
-2780 0 -2780 0 0 145 0 145 2780 0 2780 0 0 -145z m-6060 -855 c0 -107 4
-170 10 -170 6 0 10 -16 10 -35 0 -19 4 -35 8 -35 4 0 14 -16 20 -35 23 -62
139 -181 212 -218 l45 -22 2878 -3 2877 -2 0 -150 0 -150 -3545 0 -3545 0 0
495 0 495 515 0 515 0 0 -170z M330 6856 c0 -155 4 -266 9 -260 5 5 20 31 35
57 25 46 26 54 26 202 0 97 -4 155 -10 155 -5 0 -10 11 -10 25 0 14 -4 25 -10
25 -5 0 -10 6 -10 13 0 7 -7 22 -15 33 -13 17 -14 -11 -15 -250z M330 5675 l0
-765 765 0 765 0 0 765 0 765 -765 0 -765 0 0 -765z m1250 -10 l0 -495 -490 0
-490 0 0 495 0 495 490 0 490 0 0 -495z M10316 6278 c-4 -16 -12 -28 -17 -28
-4 0 -11 -16 -15 -35 -3 -19 -10 -35 -15 -35 -5 0 -9 -43 -9 -95 0 -52 4 -95
9 -95 5 0 12 -13 16 -30 4 -16 10 -30 15 -30 4 0 11 -10 16 -22 10 -27 16 138
12 295 -2 75 -5 95 -12 75z M10304 4733 c-10 -21 -22 -39 -26 -41 -5 -2 -8
-12 -8 -23 0 -10 -4 -19 -10 -19 -6 0 -10 -37 -10 -90 0 -53 4 -90 10 -90 6 0
10 -9 10 -20 0 -11 5 -20 10 -20 6 0 10 -6 10 -13 0 -8 9 -24 20 -37 l20 -23
0 206 c0 114 -2 207 -3 207 -2 0 -12 -17 -23 -37z M330 4563 c0 -113 4 -193 9
-187 5 5 20 31 35 57 22 41 26 60 26 132 0 50 -4 85 -10 85 -5 0 -10 6 -10 13
0 15 -38 97 -45 97 -3 0 -5 -89 -5 -197z M330 3803 l0 -418 5000 0 5000 0 0
418 0 417 -5000 0 -5000 0 0 -417z m9710 -8 l0 -145 -4720 0 -4720 0 0 145 0
145 4720 0 4720 0 0 -145z M10315 3227 c-18 -24 -45 -78 -45 -93 0 -8 -4 -14
-10 -14 -6 0 -10 -34 -10 -83 0 -73 4 -91 30 -142 17 -33 35 -64 40 -69 7 -7
10 63 10 202 0 117 -1 212 -2 212 -2 -1 -7 -6 -13 -13z M330 3025 l0 -210 25
44 c14 23 25 49 25 57 0 8 5 14 10 14 6 0 10 38 10 95 0 57 -4 95 -10 95 -5 0
-10 11 -10 25 0 14 -4 25 -10 25 -5 0 -10 6 -10 13 0 7 -7 22 -15 33 -13 17
-14 -4 -15 -191z M345 2648 c36 -215 138 -415 292 -578 135 -143 277 -234 457
-294 179 -60 -100 -56 4236 -56 3517 0 3986 2 4069 15 243 40 448 150 624 335
154 163 256 363 292 578 l7 42 -4992 0 -4992 0 7 -42z m9582 -255 c10 -26 -36
-100 -109 -173 -83 -83 -204 -149 -346 -188 l-97 -27 -3998 -3 c-4396 -2
-4101 -6 -4280 58 -111 41 -215 109 -293 192 -62 67 -90 117 -80 143 5 13 501
15 4601 15 4267 0 4596 -1 4602 -17z m-2505 -540 c-1150 -2 -3034 -2 -4185 0
-1150 1 -209 2 2093 2 2302 0 3243 -1 2092 -2z"/>
</g>
</svg>
