<?xml version="1.0" standalone="no"?>
<!DOCTYPE svg PUBLIC "-//W3C//DTD SVG 20010904//EN"
 "http://www.w3.org/TR/2001/REC-SVG-20010904/DTD/svg10.dtd">
<svg version="1.0" xmlns="http://www.w3.org/2000/svg"
 width="2048.000000pt" height="2048.000000pt" viewBox="0 0 2048.000000 2048.000000"
 preserveAspectRatio="xMidYMid meet">
<metadata>
Created by potrace 1.13, written by Peter Selinger 2001-2015
</metadata>
<g transform="translate(0.000000,2048.000000) scale(0.192120,-0.192120)"
fill="#000000" stroke="none">
<path d="M1247 8924 c-399 -72 -737 -366 -862 -751 -58 -176 -55 -35 -55
-2838 0 -1657 4 -2605 10 -2650 25 -177 91 -345 189 -488 61 -88 184 -212 272
-274 91 -65 251 -139 366 -171 l98 -27 4065 0 4065 0 98 27 c422 117 734 449
818 873 21 105 21 5305 0 5410 -71 355 -298 646 -626 801 -52 25 -138 57 -192
72 l-98 27 -4035 2 c-3449 1 -4046 -1 -4113 -13z m2515 -93 c49 -34 96 -61
104 -61 8 0 14 -4 14 -10 0 -7 485 -10 1435 -10 830 0 1435 4 1435 9 0 5 15
12 33 15 19 3 69 31 113 61 43 30 85 55 92 55 9 0 12 -719 12 -3560 0 -2892
-2 -3560 -13 -3560 -7 0 -46 23 -87 52 -41 28 -95 57 -119 65 -66 20 -2877 19
-2924 -1 -48 -20 -181 -115 -189 -134 -4 -9 -6 1601 -6 3578 0 1977 2 3587 5
3578 2 -9 45 -44 95 -77z m-342 -3511 l0 -3330 -1014 0 c-665 0 -1042 4 -1093
11 -104 14 -241 60 -332 112 -157 89 -302 262 -358 429 l-23 67 2 2743 3 2743
42 85 c47 98 132 203 218 273 111 89 288 163 443 186 31 5 519 9 1085 10
l1027 1 0 -3330z m6000 3306 c271 -64 504 -247 592 -464 l23 -57 3 -2755 2
-2754 -21 -68 c-12 -38 -44 -103 -71 -146 -135 -215 -352 -348 -623 -381 -60
-7 -427 -11 -1097 -11 l-1008 0 0 3330 0 3331 1063 -4 c977 -3 1068 -5 1137
-21z"/>
</g>
</svg>
