<?xml version="1.0" standalone="no"?>
<!DOCTYPE svg PUBLIC "-//W3C//DTD SVG 20010904//EN"
 "http://www.w3.org/TR/2001/REC-SVG-20010904/DTD/svg10.dtd">
<svg version="1.0" xmlns="http://www.w3.org/2000/svg"
 width="2048.000000pt" height="2048.000000pt" viewBox="0 0 2048.000000 2048.000000"
 preserveAspectRatio="xMidYMid meet">
<metadata>
Created by potrace 1.13, written by Peter Selinger 2001-2015
</metadata>
<g transform="translate(0.000000,2048.000000) scale(0.192120,-0.192120)"
fill="#000000" stroke="none">
<path d="M1247 8924 c-399 -72 -736 -366 -863 -751 -50 -153 -54 -219 -54
-860 l0 -593 5001 0 5000 0 -4 638 c-3 544 -6 647 -20 703 -55 224 -149 396
-302 551 -137 138 -317 242 -512 296 l-98 27 -4035 2 c-3449 1 -4046 -1 -4113
-13z m8201 -302 c271 -73 474 -240 568 -469 l24 -58 0 -557 0 -558 -4720 0
-4720 0 2 558 3 559 47 94 c80 161 212 285 391 369 75 35 198 71 282 83 17 2
1832 4 4035 3 l4005 -1 83 -23z M10314 6557 c-43 -50 -55 -123 -27 -178 38
-77 43 -69 43 65 0 69 -1 126 -2 126 -2 -1 -8 -6 -14 -13z M330 6448 c0 -65 2
-118 4 -118 2 0 13 16 25 36 22 37 30 134 11 134 -5 0 -10 6 -10 13 0 7 -7 22
-15 33 -13 17 -14 7 -15 -98z M330 5330 l0 -835 5000 0 5000 0 0 835 0 835
-5000 0 -5000 0 0 -835z m9700 -10 l0 -550 -4710 0 -4710 0 0 550 0 550 4710
0 4710 0 0 -550z M10304 4303 c-10 -21 -22 -39 -26 -41 -12 -5 -9 -92 2 -92 6
0 10 -8 10 -18 0 -11 9 -29 20 -42 l20 -23 0 126 c0 70 -2 127 -3 127 -2 0
-12 -17 -23 -37z M330 4215 c0 -63 2 -115 5 -115 11 0 45 86 45 115 0 29 -34
115 -45 115 -3 0 -5 -52 -5 -115z M333 3303 c3 -545 6 -648 20 -704 55 -225
149 -396 303 -551 139 -140 316 -242 511 -296 l98 -27 4065 0 4065 0 98 27
c413 114 710 423 814 847 14 56 17 159 20 704 l4 637 -5001 0 -5001 0 4 -637z
m9707 -180 l0 -528 -24 -68 c-50 -142 -162 -290 -279 -369 -79 -53 -206 -112
-288 -132 -36 -9 -112 -21 -170 -26 -70 -7 -1379 -10 -4029 -8 -3747 3 -3928
4 -4000 22 -251 60 -451 200 -559 390 -90 158 -85 122 -89 719 l-3 527 4721 0
4720 0 0 -527z"/>
</g>
</svg>
