<?xml version="1.0" standalone="no"?>
<!DOCTYPE svg PUBLIC "-//W3C//DTD SVG 20010904//EN"
 "http://www.w3.org/TR/2001/REC-SVG-20010904/DTD/svg10.dtd">
<svg version="1.0" xmlns="http://www.w3.org/2000/svg"
 width="2048.000000pt" height="2048.000000pt" viewBox="0 0 2048.000000 2048.000000"
 preserveAspectRatio="xMidYMid meet">
<metadata>
Created by potrace 1.13, written by Peter Selinger 2001-2015
</metadata>
<g transform="translate(0.000000,2048.000000) scale(0.192120,-0.192120)"
fill="#000000" stroke="none">
<path d="M1247 8924 c-399 -72 -737 -366 -862 -751 -48 -147 -55 -226 -55
-645 l0 -388 2085 0 2085 0 0 -905 0 -905 -2085 0 -2086 0 4 -1332 c3 -1197 5
-1340 20 -1398 58 -231 142 -384 296 -543 143 -147 317 -249 518 -305 l98 -27
4065 0 4065 0 98 27 c201 56 375 158 518 305 154 159 238 312 296 543 15 58
17 201 20 1398 l4 1332 -2086 0 -2085 0 0 905 0 905 2086 0 2086 0 -5 428 c-3
345 -7 440 -20 493 -54 222 -149 396 -302 551 -137 138 -317 242 -512 296
l-98 27 -4035 2 c-3449 1 -4046 -1 -4113 -13z m3278 -114 c4 -6 24 -19 45 -30
21 -11 46 -27 56 -37 16 -17 58 -18 696 -18 447 0 681 3 686 10 4 6 33 23 64
38 31 15 60 32 63 37 3 6 10 10 16 10 6 0 8 -304 7 -807 l-3 -807 -42 -8 c-49
-8 -120 -52 -129 -80 -5 -16 -8 -17 -14 -8 -6 9 -10 2 -15 -21 -3 -19 -4 -415
-3 -880 3 -791 4 -847 21 -863 9 -10 22 -27 28 -38 6 -11 13 -17 16 -14 3 3
14 -6 25 -19 11 -14 26 -25 33 -25 8 0 30 -8 50 -17 l35 -17 0 -817 0 -817
-32 -13 c-18 -7 -39 -14 -47 -16 -20 -2 -81 -70 -81 -89 0 -8 -4 -14 -10 -14
-7 0 -10 -237 -10 -690 l0 -690 -25 0 c-22 0 -25 -4 -25 -40 l0 -40 -610 0
-610 0 0 40 c0 33 -3 40 -20 40 -20 0 -20 7 -20 690 0 453 -3 690 -10 690 -5
0 -10 8 -10 18 0 18 -62 91 -78 92 -4 0 -22 5 -39 11 l-33 11 0 818 0 818 33
11 c17 6 37 12 42 13 26 5 104 85 111 115 4 12 10 23 15 23 5 0 9 361 9 855 0
563 -3 855 -10 855 -5 0 -10 7 -10 15 0 33 -77 82 -150 94 l-35 6 -3 808 c-1
503 1 807 7 807 6 0 13 -5 16 -10z m-2438 -117 c18 -54 59 -183 93 -288 l61
-190 306 4 c186 2 303 0 300 -6 -3 -5 -112 -86 -243 -179 -130 -93 -238 -173
-240 -179 -2 -5 38 -138 90 -293 54 -161 90 -282 82 -279 -7 3 -117 82 -245
177 -128 94 -239 169 -245 167 -7 -3 -117 -82 -245 -176 -128 -95 -236 -170
-238 -167 -3 3 38 133 90 289 l94 284 -248 178 c-137 98 -249 180 -249 182 0
3 138 4 307 2 l306 -4 88 275 c49 151 89 281 89 288 0 35 19 2 47 -85z m-340
-68 c9 -25 -16 -97 -46 -134 l-28 -35 -120 -7 c-124 -8 -186 -20 -238 -46 -84
-43 -185 -161 -185 -215 0 -85 115 -236 281 -371 67 -54 69 -95 12 -271 -18
-56 -35 -88 -57 -108 l-30 -28 -364 0 -363 0 3 343 3 342 42 85 c80 162 195
274 368 360 89 44 205 80 300 93 17 2 117 5 223 6 165 1 193 -1 199 -14z
m2563 -600 l0 -615 -783 0 -784 0 -22 24 c-33 35 -83 188 -88 271 l-4 70 42
29 c110 77 226 207 267 300 40 89 22 156 -61 233 -88 81 -186 112 -354 113
-91 0 -116 10 -147 57 -26 40 -43 104 -31 122 4 8 304 11 986 11 l979 0 0
-615z m5138 587 c242 -65 443 -219 535 -411 l42 -86 3 -352 3 -353 -1851 0
-1850 0 0 615 0 615 1518 -3 1517 -2 83 -23z m-5088 -4212 l0 -650 -1880 0
-1880 0 0 645 0 645 1852 3 c1019 1 1865 3 1881 5 l27 2 0 -650z m3868 640
l1812 0 0 -645 0 -645 -1880 0 -1880 0 0 651 0 652 68 -6 c37 -4 883 -7 1880
-7z m-3729 -2347 c0 -461 -3 -854 -7 -874 l-7 -36 -80 53 c-44 29 -85 57 -92
63 -7 6 -21 11 -33 11 -11 0 -20 5 -20 10 0 7 -486 10 -1439 10 -1560 0 -1516
-1 -1680 55 -211 71 -413 254 -509 458 -37 79 -47 110 -72 231 -17 85 -20 137
-20 358 0 165 -4 258 -10 258 -5 0 -10 9 -10 20 0 11 -4 20 -8 20 -5 0 -14 11
-20 25 -6 13 -34 55 -62 94 -27 38 -50 72 -50 75 0 3 927 6 2060 6 l2060 0 -1
-837z m5781 831 c0 -3 -20 -34 -45 -68 -25 -35 -45 -67 -45 -71 0 -4 -9 -18
-20 -32 -11 -14 -20 -34 -20 -44 0 -11 -4 -19 -10 -19 -6 0 -10 -92 -10 -255
0 -271 -11 -380 -52 -500 -90 -263 -289 -462 -553 -552 -158 -54 -137 -53
-1657 -53 -932 0 -1408 -3 -1408 -10 0 -5 -20 -10 -45 -10 -25 0 -45 -4 -45
-10 0 -5 -6 -10 -13 -10 -8 0 -52 -24 -99 -54 l-86 -53 -6 45 c-3 25 -6 418
-6 873 l0 829 2060 0 c1133 0 2060 -3 2060 -6z M10303 6940 c-13 -21 -23 -48
-23 -59 0 -12 -4 -21 -10 -21 -7 0 -10 -220 -10 -640 0 -420 3 -640 10 -640 6
0 10 -9 10 -19 0 -11 6 -26 13 -33 7 -7 17 -22 23 -33 10 -23 16 501 12 1110
l-3 374 -22 -39z M330 6233 c0 -409 3 -743 8 -743 4 0 16 20 27 45 11 25 23
45 27 45 5 0 8 288 8 640 0 420 -3 640 -10 640 -5 0 -10 11 -10 25 0 14 -4 25
-10 25 -5 0 -10 6 -10 13 0 7 -7 22 -15 33 -13 17 -14 -68 -15 -723z"/>
</g>
</svg>
