<?xml version="1.0" standalone="no"?>
<!DOCTYPE svg PUBLIC "-//W3C//DTD SVG 20010904//EN"
 "http://www.w3.org/TR/2001/REC-SVG-20010904/DTD/svg10.dtd">
<svg version="1.0" xmlns="http://www.w3.org/2000/svg"
 width="2048.000000pt" height="2048.000000pt" viewBox="0 0 2048.000000 2048.000000"
 preserveAspectRatio="xMidYMid meet">
<metadata>
Created by potrace 1.13, written by Peter Selinger 2001-2015
</metadata>
<g transform="translate(0.000000,2048.000000) scale(0.192120,-0.192120)"
fill="#000000" stroke="none">
<path d="M1270 8928 c-93 -13 -274 -77 -364 -128 -277 -158 -468 -412 -548
-727 l-23 -88 0 -2655 0 -2655 23 -88 c108 -425 408 -726 837 -841 l80 -21
4060 0 4060 0 98 27 c201 56 375 158 518 305 161 165 256 346 301 573 20 100
19 5304 -1 5405 -71 355 -298 646 -626 801 -52 25 -138 57 -192 72 l-98 27
-4030 1 c-2400 1 -4056 -2 -4095 -8z m8147 -305 c179 -42 319 -118 438 -238
78 -79 126 -154 161 -251 l24 -65 0 -1234 0 -1235 -22 0 c-25 0 -8552 2839
-8714 2902 -56 21 -109 47 -118 57 -17 18 -17 20 1 38 19 19 112 39 213 46 25
2 1818 3 3985 3 l3940 -1 92 -22z m-3982 -1660 c2552 -850 4660 -1555 4685
-1565 l45 -20 -26 -14 c-26 -13 -101 -26 -219 -39 -160 -17 -245 -36 -495
-112 -99 -30 -1422 -468 -2940 -973 -1518 -506 -2805 -931 -2860 -944 -55 -14
-176 -55 -270 -91 -93 -35 -692 -238 -1329 -451 -1241 -414 -1254 -418 -1308
-374 -15 11 -43 49 -62 83 -71 126 -66 -96 -66 2878 0 2432 2 2691 16 2740 9
30 37 99 64 154 52 109 65 146 75 215 9 55 12 60 33 60 9 0 2105 -696 4657
-1547z m4763 -1780 l-63 -118 -5 -1155 c-5 -1020 -8 -1164 -22 -1236 -45 -216
-155 -409 -293 -513 -120 -91 -313 -167 -479 -190 -54 -8 -1266 -11 -4011 -11
-3445 0 -3948 2 -4049 15 -182 24 -568 127 -548 147 9 9 9498 3176 9520 3177
7 1 -15 -50 -50 -116z M2724 7229 c-94 -17 -246 -116 -383 -248 -46 -45 -94
-84 -106 -87 -13 -3 -40 3 -63 15 -142 72 -289 -45 -452 -359 -41 -77 -86
-154 -101 -170 -41 -43 -87 -129 -110 -207 -16 -51 -22 -111 -28 -243 -5 -142
-10 -180 -24 -200 -9 -13 -17 -39 -17 -58 0 -18 -12 -56 -27 -85 l-27 -52 -8
-355 c-4 -195 -4 -364 0 -375 35 -86 103 -205 163 -285 69 -92 72 -98 80 -169
5 -41 12 -77 17 -80 4 -3 18 -22 30 -42 33 -55 137 -148 257 -231 227 -157
416 -245 649 -303 118 -30 131 -35 134 -57 2 -12 9 -30 15 -38 7 -8 23 -36 36
-62 38 -76 124 -163 194 -198 77 -37 200 -51 356 -40 207 16 278 44 373 146
47 50 118 168 118 197 0 9 2 17 5 17 3 0 71 9 153 21 264 37 447 83 582 147
145 68 259 217 289 377 13 69 14 71 73 115 133 100 233 238 301 415 16 43 20
94 29 374 11 360 8 379 -52 474 l-29 46 -3 278 c-3 269 -4 280 -27 328 -36 76
-94 157 -174 242 -40 43 -94 107 -122 142 -84 108 -153 176 -208 207 -44 24
-64 29 -127 30 -41 0 -83 1 -93 2 -9 1 -68 53 -130 116 -130 131 -238 207
-339 237 -92 28 -127 22 -233 -41 -122 -74 -157 -77 -270 -21 -113 57 -179 66
-332 45 -125 -16 -158 -14 -226 15 -57 24 -94 29 -143 20z m116 -143 c0 -27
-49 -97 -118 -168 -26 -27 -44 -48 -41 -48 4 0 44 18 91 39 105 49 241 95 341
115 89 19 230 21 276 5 30 -11 31 -13 16 -29 -43 -47 -249 -117 -435 -147 -60
-10 -110 -21 -110 -25 0 -4 26 -15 58 -25 60 -19 198 -24 242 -9 l25 9 -29
-31 c-15 -17 -51 -41 -80 -54 -45 -20 -67 -23 -186 -24 -127 -1 -138 -2 -193
-29 -80 -40 -88 -51 -40 -64 79 -20 128 -23 171 -8 53 18 54 6 4 -42 -53 -51
-96 -62 -257 -68 -123 -5 -146 -9 -190 -30 -76 -38 -164 -104 -225 -169 -54
-58 -100 -137 -86 -151 20 -20 156 87 211 167 37 54 48 41 49 -57 0 -65 -4
-87 -27 -129 -32 -62 -65 -91 -160 -141 -92 -48 -169 -125 -195 -195 -22 -57
-31 -117 -19 -118 4 0 12 0 17 0 21 0 109 93 120 126 13 39 22 42 50 14 40
-40 26 -74 -71 -176 -71 -75 -85 -122 -104 -364 -8 -97 3 -79 50 85 20 72 41
134 45 139 20 21 83 -124 102 -235 11 -65 11 -74 -15 -152 -46 -137 -59 -222
-54 -327 5 -92 20 -160 37 -160 22 0 33 77 26 189 l-6 116 45 -50 c55 -62 112
-157 126 -210 21 -77 28 -90 44 -74 7 8 17 34 22 59 l9 44 60 -139 c34 -77 72
-169 84 -205 42 -118 98 -175 237 -242 69 -34 96 -41 175 -48 109 -9 164 -23
231 -57 27 -13 51 -22 54 -20 2 3 -1 31 -6 63 -38 211 -49 406 -32 559 5 39 8
71 7 72 -1 1 -31 -9 -67 -22 -128 -46 -261 -50 -337 -11 -72 37 -132 144 -132
234 l0 34 41 -36 c52 -44 116 -66 193 -66 68 0 65 10 -11 34 -102 33 -194 120
-221 206 -15 50 -22 110 -13 110 4 0 16 -9 26 -20 41 -45 120 -85 210 -105 29
-6 29 -5 -19 42 -60 59 -96 131 -96 196 0 42 2 47 23 47 66 0 196 -128 254
-250 21 -43 42 -79 47 -79 9 -1 1 567 -8 576 -2 3 -30 -1 -60 -8 -45 -10 -67
-10 -113 0 -99 23 -178 126 -200 264 l-6 42 41 -37 c41 -37 97 -56 129 -44 14
6 12 11 -15 39 -55 57 -85 132 -90 222 -2 44 0 96 5 115 l10 35 28 -60 c27
-57 140 -185 163 -185 6 0 1 24 -10 53 -28 70 -48 156 -39 162 5 2 22 0 40 -5
115 -33 181 -142 181 -302 l0 -81 24 22 c32 30 75 112 92 175 16 60 18 166 4
218 -11 36 -11 37 -66 37 -66 0 -117 26 -184 96 l-45 47 33 -7 c90 -19 171 3
180 48 3 15 -4 16 -56 11 -73 -8 -136 17 -176 68 -35 46 -33 55 12 67 74 21
155 24 202 7 44 -15 45 -15 64 7 15 18 17 33 13 80 -3 31 -1 57 3 57 14 0 92
-63 113 -91 10 -15 22 -48 24 -73 5 -39 0 -57 -27 -110 -30 -60 -31 -67 -22
-113 6 -26 14 -87 18 -135 l7 -88 24 51 c53 116 155 212 237 226 l38 6 -38
-53 c-33 -46 -39 -63 -42 -117 -5 -75 1 -78 86 -38 36 17 59 36 74 61 l22 37
23 -27 c70 -82 19 -187 -141 -291 -76 -49 -77 -50 -45 -53 55 -6 94 7 138 44
l41 36 16 -37 c40 -96 -46 -172 -206 -182 -61 -4 -90 0 -159 21 -47 14 -95 26
-107 26 -43 0 -73 -39 -88 -115 -16 -77 -49 -345 -43 -351 2 -2 25 61 51 139
25 79 57 158 69 177 l22 35 7 -95 c4 -52 11 -108 16 -125 8 -27 13 -30 43 -27
126 10 200 94 183 208 -6 41 -5 44 15 44 35 0 80 -28 87 -55 12 -47 -49 -180
-127 -277 -16 -20 -29 -41 -29 -46 0 -18 80 -42 138 -42 35 0 74 8 101 20 24
11 47 18 50 14 11 -11 6 -91 -7 -116 -30 -56 -58 -63 -292 -68 -177 -5 -221
-9 -247 -23 -40 -22 -63 -54 -63 -90 0 -23 67 -306 112 -472 l11 -40 28 115
c46 185 130 330 192 330 33 0 41 -25 32 -96 -3 -30 -3 -54 2 -54 35 0 118 84
166 169 24 42 25 43 37 21 22 -40 24 -132 5 -189 -18 -54 -92 -145 -139 -170
-36 -20 -33 -31 8 -31 25 0 48 11 86 41 28 22 54 47 57 55 9 24 23 15 23 -16
0 -54 -21 -128 -50 -174 -44 -69 -93 -95 -252 -135 -185 -47 -182 -44 -186
-227 l-4 -134 29 0 c49 0 133 30 235 83 92 48 103 51 218 62 185 19 202 36
299 293 61 161 94 224 146 277 l40 40 3 -112 c1 -62 7 -113 11 -113 14 0 69
67 92 112 15 29 24 72 29 141 7 87 13 109 45 174 l38 73 -38 113 c-47 141 -52
233 -16 314 36 82 47 84 61 16 33 -166 111 -369 147 -381 27 -8 37 199 13 274
-7 21 -35 91 -63 154 -49 109 -52 121 -57 220 -3 58 -9 111 -13 117 -5 7 -43
39 -85 72 -101 76 -147 129 -185 210 -27 56 -32 78 -32 143 0 107 14 116 56
37 19 -35 57 -86 84 -114 49 -50 120 -93 133 -80 9 9 -110 242 -153 298 -53
69 -58 70 -166 36 -127 -41 -225 -43 -303 -5 -30 15 -59 33 -66 41 -11 13 -4
15 52 15 73 0 167 15 181 29 16 16 -32 80 -74 101 -45 24 -110 25 -194 5 -33
-8 -78 -15 -100 -15 -104 0 -262 55 -352 123 -62 47 -61 56 5 41 66 -16 122
-18 122 -5 0 5 -30 27 -66 49 l-67 40 94 -1 c82 -1 102 2 158 27 42 18 72 25
91 21 15 -3 79 -45 142 -93 64 -48 134 -97 157 -110 36 -20 30 -13 -42 60 -92
91 -151 193 -163 281 -8 60 -3 60 117 0 76 -38 109 -62 179 -132 47 -47 114
-127 148 -178 41 -61 82 -107 120 -136 98 -76 186 -181 228 -272 l19 -40 3 56
c4 69 -39 208 -98 318 -22 41 -38 77 -36 79 5 5 64 -26 98 -51 34 -25 99 -117
126 -179 46 -105 76 -256 88 -436 6 -104 8 -112 23 -97 21 21 20 240 -1 338
-20 85 -9 87 64 14 135 -135 167 -297 112 -558 -30 -146 -79 -299 -127 -400
-20 -40 -34 -75 -33 -76 2 -2 21 10 43 26 58 42 105 107 129 178 l21 62 20
-22 c59 -63 77 -175 49 -287 -33 -129 -145 -328 -293 -517 -35 -46 -60 -83
-55 -83 18 0 158 98 201 141 61 61 118 151 137 218 29 99 33 101 33 13 2 -164
-54 -319 -154 -429 -83 -92 -312 -240 -494 -319 -42 -19 -74 -34 -71 -34 3 0
68 -7 145 -15 77 -8 142 -15 145 -15 3 0 11 -4 18 -9 12 -7 11 -13 -1 -37 -80
-152 -417 -252 -1047 -309 -96 -9 -182 -17 -190 -18 -8 -1 9 -17 37 -35 67
-43 139 -121 148 -160 14 -66 -26 -93 -177 -116 -147 -23 -275 -29 -372 -16
-105 13 -148 29 -171 63 -14 22 -14 29 -2 59 16 37 103 121 171 165 25 15 45
31 46 34 0 3 -66 9 -147 12 -335 14 -634 115 -942 317 -144 94 -186 117 -261
140 l-55 18 40 17 c68 30 172 10 410 -80 11 -4 -14 13 -57 38 -274 161 -462
337 -554 520 -35 68 -69 178 -62 199 2 6 25 -15 50 -48 54 -69 152 -165 223
-216 46 -33 166 -98 181 -98 3 0 -28 32 -70 71 -257 240 -366 520 -311 805 16
86 23 99 32 64 9 -35 122 -257 137 -269 8 -7 3 29 -15 99 -54 208 -72 436 -48
607 12 88 50 211 81 262 l21 33 15 -28 c24 -46 43 -129 61 -274 l18 -135 5
245 c6 267 18 342 74 451 29 59 133 173 177 196 27 13 28 13 23 -4 -16 -53
-78 -405 -72 -410 11 -12 155 138 208 217 83 122 180 239 275 331 96 93 125
115 199 153 63 33 84 33 84 2z m-196 -832 c23 -9 20 -26 -14 -89 -25 -46 -30
-67 -30 -123 0 -37 -9 -105 -20 -152 -37 -162 -21 -253 69 -384 17 -24 31 -55
31 -68 0 -14 -22 -53 -50 -89 -27 -35 -50 -72 -50 -81 0 -9 -4 -19 -9 -22 -5
-4 -25 -39 -44 -79 -33 -67 -36 -79 -39 -190 -5 -132 -12 -147 -60 -119 -16 9
-47 36 -70 59 l-42 43 -7 193 -6 192 -36 85 c-41 94 -45 129 -20 186 17 42 30
92 42 168 4 28 13 52 20 54 21 7 117 139 148 203 48 101 53 117 53 164 l0 44
53 4 c28 2 55 4 59 5 3 1 13 -1 22 -4z m1416 -65 c0 -16 34 -87 109 -224 12
-22 58 -80 102 -129 l79 -89 0 -89 c0 -84 -3 -95 -34 -153 l-34 -63 -4 -229
c-3 -199 -6 -232 -22 -263 -21 -38 -234 -250 -252 -250 -7 0 -15 8 -18 18 -3
9 -13 28 -21 42 -9 15 -15 51 -15 93 0 40 -6 80 -15 96 -28 54 -29 103 -4 157
35 75 37 149 6 210 -14 27 -41 65 -61 83 l-36 35 0 108 c0 106 1 109 33 156
57 84 67 114 67 215 1 87 6 116 52 268 10 31 14 35 40 31 19 -3 28 -10 28 -23z
m-1197 -1797 l77 -16 0 -53 c0 -62 -3 -63 -85 -31 -85 32 -172 142 -97 123 15
-4 62 -14 105 -23z"/>
</g>
</svg>
