<?xml version="1.0" standalone="no"?>
<!DOCTYPE svg PUBLIC "-//W3C//DTD SVG 20010904//EN"
 "http://www.w3.org/TR/2001/REC-SVG-20010904/DTD/svg10.dtd">
<svg version="1.0" xmlns="http://www.w3.org/2000/svg"
 width="2048.000000pt" height="2048.000000pt" viewBox="0 0 2048.000000 2048.000000"
 preserveAspectRatio="xMidYMid meet">
<metadata>
Created by potrace 1.13, written by Peter Selinger 2001-2015
</metadata>
<g transform="translate(0.000000,2048.000000) scale(0.192120,-0.192120)"
fill="#000000" stroke="none">
<path d="M1247 8924 c-398 -72 -737 -367 -861 -748 -60 -183 -57 -22 -53
-2891 3 -2404 4 -2625 20 -2686 57 -228 149 -396 303 -551 139 -140 316 -242
511 -296 l98 -27 4065 0 4065 0 98 27 c422 117 734 449 818 873 21 105 21
5305 0 5410 -71 355 -298 646 -626 801 -52 25 -138 57 -192 72 l-98 27 -4035
2 c-3449 1 -4046 -1 -4113 -13z m6557 -2486 l2474 -3 -43 -66 c-23 -36 -46
-77 -50 -90 -4 -13 -12 -27 -18 -30 -5 -4 -12 -38 -15 -77 -5 -77 7 -113 76
-219 19 -28 31 -57 27 -62 -4 -8 -820 -11 -2746 -11 l-2739 0 0 1500 c0 1424
1 1499 18 1493 9 -3 31 -16 47 -28 103 -75 199 -103 283 -83 23 6 42 14 42 19
0 5 4 9 10 9 5 0 42 23 82 50 l73 50 3 -1225 2 -1225 2474 -2z m-4338 2397
c35 -25 68 -45 74 -45 5 0 10 -4 10 -9 0 -14 58 -31 102 -31 49 0 128 19 128
31 0 5 4 9 9 9 5 0 40 21 78 46 l68 46 5 -1494 c3 -821 4 -1496 2 -1500 -4 -9
-3513 -11 -3536 -2 -12 5 -6 20 34 79 27 40 52 84 56 99 3 14 10 26 15 26 5 0
9 27 9 60 0 33 -4 60 -10 60 -5 0 -10 7 -10 17 0 16 -47 103 -95 176 l-25 37
1500 0 1500 0 0 1198 c0 1085 2 1242 17 1242 2 0 33 -20 69 -45z m-326 -1180
l0 -995 -1270 0 -1271 0 3 713 3 712 27 62 c112 262 378 452 690 492 35 5 458
9 941 10 l877 1 0 -995z m1440 -349 c0 -1185 2 -1345 15 -1350 9 -3 15 -19 15
-41 0 -19 4 -35 8 -35 4 0 14 -16 21 -36 18 -51 120 -148 178 -171 46 -17 146
-18 2636 -21 l2587 -2 0 -330 0 -330 -2587 -2 c-2964 -3 -2631 9 -2753 -106
-38 -37 -70 -75 -70 -85 0 -9 -4 -17 -10 -17 -5 0 -10 -9 -10 -20 0 -11 -7
-23 -15 -26 -13 -5 -15 -163 -15 -1335 0 -1322 0 -1329 -20 -1329 -17 0 -20
-7 -20 -40 l0 -40 -195 0 -195 0 0 40 c0 29 -4 40 -15 40 -13 0 -15 154 -15
1329 0 876 -3 1332 -10 1336 -5 3 -10 15 -10 26 0 10 -4 19 -10 19 -5 0 -10 7
-10 16 0 22 -97 121 -147 151 -30 17 -66 27 -130 33 -50 6 -759 10 -1645 10
l-1558 0 0 330 0 330 1558 0 c886 0 1595 4 1645 10 65 6 100 16 132 34 51 30
120 108 137 154 7 17 16 32 20 32 4 0 8 15 8 34 0 19 5 38 10 41 7 4 10 465
10 1351 l0 1344 230 0 230 0 0 -1344z m4858 1316 c180 -48 319 -128 434 -250
76 -80 111 -137 145 -229 l23 -64 0 -709 0 -710 -2245 0 -2245 0 0 995 0 995
1903 -3 1902 -2 83 -23z m-5496 -3849 c2 -5 1 -680 -2 -1501 l-5 -1492 -80 50
c-44 27 -95 52 -112 56 -18 3 -33 10 -33 15 0 5 -25 9 -55 9 -30 0 -55 -4 -55
-10 0 -5 -6 -10 -13 -10 -8 0 -54 -25 -102 -55 -48 -31 -91 -53 -94 -49 -3 3
-7 552 -9 1220 l-2 1214 -1499 2 -1499 3 59 89 c33 49 59 98 59 108 0 10 5 18
10 18 6 0 10 25 10 55 0 30 -4 55 -9 55 -5 0 -12 15 -15 33 -3 17 -28 67 -55
109 -32 49 -45 79 -38 82 20 8 3536 7 3539 -1z m6313 -4 c4 -5 -4 -27 -18 -47
-61 -93 -82 -153 -82 -235 0 -44 5 -81 11 -85 6 -4 17 -20 26 -37 8 -16 31
-56 52 -87 l37 -58 -2476 0 -2475 0 -2 -1224 -3 -1225 -85 55 c-47 30 -100 57
-117 60 -18 3 -33 10 -33 15 0 5 -25 9 -55 9 -30 0 -55 -4 -55 -10 0 -5 -6
-10 -13 -10 -7 0 -46 -21 -87 -46 -41 -25 -83 -50 -92 -55 -17 -9 -18 65 -18
1491 l0 1500 2739 0 c1916 0 2742 -3 2746 -11z m-7115 -1784 l0 -996 -917 4
c-911 3 -919 3 -1002 25 -292 78 -510 270 -599 530 -22 61 -22 72 -22 747 l0
685 1270 0 1270 0 0 -995z m6900 301 l0 -694 -24 -70 c-13 -39 -45 -105 -72
-148 -131 -207 -351 -340 -619 -373 -62 -8 -656 -11 -1932 -11 l-1843 0 0 995
0 995 2245 0 2245 0 0 -694z"/>
</g>
</svg>
