<?xml version="1.0" standalone="no"?>
<!DOCTYPE svg PUBLIC "-//W3C//DTD SVG 20010904//EN"
 "http://www.w3.org/TR/2001/REC-SVG-20010904/DTD/svg10.dtd">
<svg version="1.0" xmlns="http://www.w3.org/2000/svg"
 width="2048.000000pt" height="2048.000000pt" viewBox="0 0 2048.000000 2048.000000"
 preserveAspectRatio="xMidYMid meet">
<metadata>
Created by potrace 1.13, written by Peter Selinger 2001-2015
</metadata>
<g transform="translate(0.000000,2048.000000) scale(0.192120,-0.192120)"
fill="#000000" stroke="none">
<path d="M1250 8925 c-41 -8 -113 -26 -158 -41 -90 -29 -243 -103 -249 -119
-2 -6 27 -21 64 -33 38 -13 2147 -774 4688 -1692 2541 -917 4644 -1676 4673
-1686 28 -10 52 -21 52 -24 0 -4 -9048 -3274 -9402 -3398 -43 -15 -77 -31 -75
-36 5 -15 168 -94 249 -120 181 -60 -121 -56 4278 -54 l4025 3 98 27 c422 117
734 449 818 873 21 105 21 5305 0 5410 -71 355 -298 646 -626 801 -52 25 -138
57 -192 72 l-98 27 -4035 2 c-3356 1 -4048 -1 -4110 -12z m8155 -297 c278 -65
475 -209 582 -424 l48 -97 3 -1194 c1 -656 0 -1193 -3 -1193 -9 0 -7445 2687
-7650 2764 -199 74 -253 98 -283 125 l-23 19 28 10 c19 7 1189 10 3628 8 3297
-2 3606 -3 3670 -18z m635 -4870 l0 -1163 -24 -68 c-93 -263 -317 -449 -616
-514 -81 -17 -235 -18 -3665 -18 -1969 0 -3597 4 -3617 8 -50 11 -49 32 4 58
47 22 7885 2856 7906 2858 9 1 12 -238 12 -1161z M640 8603 c-162 -177 -257
-366 -295 -588 -13 -80 -15 -394 -13 -2725 l3 -2635 27 -98 c50 -182 147 -354
281 -501 l63 -69 79 60 c44 33 177 129 295 213 118 85 377 271 575 415 586
425 3555 2568 3617 2611 32 21 57 41 57 44 0 3 -25 23 -57 44 -61 43 -3023
2180 -3617 2611 -198 144 -457 330 -575 415 -118 84 -250 180 -292 212 -42 32
-79 58 -82 58 -2 0 -32 -30 -66 -67z m2025 -1758 c1089 -782 2008 -1441 2043
-1465 34 -24 62 -47 62 -50 0 -3 -28 -26 -62 -50 -35 -24 -961 -688 -2058
-1475 -1097 -788 -2014 -1444 -2038 -1460 -23 -15 -45 -25 -48 -22 -4 4 -1 64
5 134 10 98 11 793 8 2943 -3 1548 -8 2846 -12 2883 l-7 69 64 -43 c34 -24
954 -683 2043 -1464z M1445 8208 c64 -47 857 -456 1126 -581 232 -107 213
-100 1725 -652 747 -273 1364 -502 1369 -509 6 -7 667 -252 1470 -545 803
-293 1474 -541 1490 -550 40 -23 44 -54 8 -78 -54 -37 197 56 -2898 -1075
-3009 -1099 -2872 -1047 -3220 -1211 -250 -117 -1090 -555 -1082 -563 6 -6
-43 -24 4242 1541 1947 711 3570 1302 3608 1314 37 13 67 26 67 31 0 5 -24 16
-52 25 -29 10 -1587 578 -3463 1262 -4123 1505 -4172 1523 -4390 1599 l-20 6
20 -14z"/>
</g>
</svg>
