<?xml version="1.0" standalone="no"?>
<!DOCTYPE svg PUBLIC "-//W3C//DTD SVG 20010904//EN"
 "http://www.w3.org/TR/2001/REC-SVG-20010904/DTD/svg10.dtd">
<svg version="1.0" xmlns="http://www.w3.org/2000/svg"
 width="2048.000000pt" height="2048.000000pt" viewBox="0 0 2048.000000 2048.000000"
 preserveAspectRatio="xMidYMid meet">
<metadata>
Created by potrace 1.13, written by Peter Selinger 2001-2015
</metadata>
<g transform="translate(0.000000,2048.000000) scale(0.192120,-0.192120)"
fill="#000000" stroke="none">
<path d="M1247 8924 c-398 -72 -737 -367 -861 -748 -60 -183 -57 -22 -53
-2891 3 -2404 4 -2625 20 -2686 57 -228 149 -396 303 -551 139 -140 316 -242
511 -296 l98 -27 4065 0 4065 0 98 27 c201 56 375 158 518 305 161 165 256
346 301 573 20 100 19 5304 -1 5405 -71 355 -298 646 -626 801 -52 25 -138 57
-192 72 l-98 27 -4035 2 c-3449 1 -4046 -1 -4113 -13z m8203 -305 c174 -49
279 -107 398 -222 83 -81 123 -139 163 -238 l29 -71 0 -709 0 -709 -4720 0
-4720 0 0 693 c0 665 1 696 20 751 90 263 360 472 670 521 70 11 793 13 4075
12 l3990 -2 95 -26z m830 -2187 c0 -5 -25 -44 -55 -87 -30 -44 -58 -94 -61
-112 -3 -18 -10 -33 -15 -33 -5 0 -9 -384 -9 -905 0 -597 3 -905 10 -905 6 0
10 -6 10 -13 0 -7 20 -45 44 -84 l43 -70 -96 -7 c-124 -8 -9584 -6 -9674 3
l-67 6 23 35 c13 19 32 56 43 82 10 27 22 48 27 48 4 0 7 407 7 905 0 597 -3
905 -10 905 -5 0 -10 9 -10 20 0 23 -28 87 -50 115 -9 11 -28 39 -43 63 l-27
42 4955 0 c2725 0 4955 -4 4955 -8z m-230 -3148 l0 -726 -34 -77 c-131 -304
-391 -473 -770 -502 -96 -7 -1372 -9 -4026 -7 -4268 4 -3920 -1 -4100 62 -230
80 -419 263 -510 496 l-25 65 -3 708 -3 707 4736 0 4735 0 0 -726z"/>
</g>
</svg>
