<?xml version="1.0" standalone="no"?>
<!DOCTYPE svg PUBLIC "-//W3C//DTD SVG 20010904//EN"
 "http://www.w3.org/TR/2001/REC-SVG-20010904/DTD/svg10.dtd">
<svg version="1.0" xmlns="http://www.w3.org/2000/svg"
 width="2048.000000pt" height="2048.000000pt" viewBox="0 0 2048.000000 2048.000000"
 preserveAspectRatio="xMidYMid meet">
<metadata>
Created by potrace 1.13, written by Peter Selinger 2001-2015
</metadata>
<g transform="translate(0.000000,2048.000000) scale(0.192120,-0.192120)"
fill="#000000" stroke="none">
<path d="M1239 8924 c-397 -72 -730 -365 -857 -754 -55 -169 -52 -15 -52
-2835 0 -2837 -3 -2678 55 -2856 130 -392 485 -691 890 -749 59 -8 1149 -10
4100 -8 l4020 3 98 27 c422 117 734 449 818 873 21 105 21 5305 0 5410 -71
355 -298 646 -626 801 -52 25 -138 57 -192 72 l-98 27 -4040 2 c-3403 1 -4052
-1 -4116 -13z m2540 -78 c46 -31 100 -61 120 -67 24 -7 494 -9 1446 -7 l1410
3 45 23 c25 13 75 44 112 70 38 25 71 42 75 38 10 -10 10 -7142 0 -7152 -4 -4
-39 15 -79 42 -80 55 -134 83 -160 84 -10 0 -18 5 -18 10 0 7 -477 10 -1410
10 -819 0 -1410 -4 -1410 -9 0 -5 -11 -12 -24 -15 -14 -3 -66 -34 -116 -67
-50 -34 -94 -59 -98 -55 -9 9 -15 6983 -7 7084 5 50 11 72 18 69 7 -2 50 -30
96 -61z m-379 -3526 l0 -3320 -1014 0 c-869 0 -1026 2 -1102 15 -196 35 -333
105 -470 240 -94 93 -150 183 -188 300 -15 46 -16 281 -14 2795 l3 2745 43 88
c113 232 362 406 637 446 33 5 520 9 1083 10 l1022 1 0 -3320z m5967 3305
c197 -32 350 -110 483 -244 66 -67 95 -106 130 -175 l45 -89 3 -2769 2 -2769
-28 -72 c-68 -174 -204 -322 -375 -406 -56 -28 -140 -61 -187 -73 -85 -22 -85
-22 -1142 -25 l-1058 -4 0 3321 0 3320 1018 0 c855 0 1032 -2 1109 -15z M5299
6679 c-19 -99 -37 -185 -40 -191 -4 -5 -89 -25 -189 -44 -101 -19 -185 -36
-187 -38 -5 -5 20 -11 157 -36 63 -11 123 -23 133 -26 16 -5 17 -48 17 -725
l0 -719 -134 0 -133 0 -17 113 c-37 242 -121 616 -206 915 -22 78 -40 155 -40
170 0 50 60 92 110 79 36 -9 21 10 -62 83 -161 140 -288 217 -443 269 -89 29
-251 59 -262 48 -3 -4 30 -62 74 -129 197 -303 344 -608 453 -938 93 -280 137
-503 147 -749 l6 -143 251 3 251 4 0 -338 0 -337 154 2 154 3 1 335 1 335 241
-4 241 -3 7 123 c32 559 244 1155 613 1718 41 62 72 116 69 118 -3 3 -42 0
-88 -7 -195 -28 -381 -113 -550 -251 -72 -60 -148 -130 -148 -139 0 -3 16 -4
35 -2 28 3 40 -1 65 -26 37 -37 37 -55 4 -163 -78 -257 -198 -787 -225 -996
l-13 -93 -128 0 -128 0 2 722 3 722 143 27 c79 15 146 30 149 33 4 3 4 6 2 6
-43 4 -363 70 -369 76 -4 5 -22 88 -40 184 -18 96 -36 178 -39 183 -4 4 -23
-74 -42 -174z"/>
</g>
</svg>
