<?xml version="1.0" standalone="no"?>
<!DOCTYPE svg PUBLIC "-//W3C//DTD SVG 20010904//EN"
 "http://www.w3.org/TR/2001/REC-SVG-20010904/DTD/svg10.dtd">
<svg version="1.0" xmlns="http://www.w3.org/2000/svg"
 width="2048.000000pt" height="2048.000000pt" viewBox="0 0 2048.000000 2048.000000"
 preserveAspectRatio="xMidYMid meet">
<metadata>
Created by potrace 1.13, written by Peter Selinger 2001-2015
</metadata>
<g transform="translate(0.000000,2048.000000) scale(0.192120,-0.192120)"
fill="#000000" stroke="none">
<path d="M2393 8943 c15 -2 39 -2 55 0 15 2 2 4 -28 4 -30 0 -43 -2 -27 -4z
M3488 8943 c18 -2 45 -2 60 0 15 2 0 4 -33 4 -33 0 -45 -2 -27 -4z M5391 8942
l-193 -2 -82 -59 c-170 -122 -1432 -1004 -1443 -1008 -7 -3 -13 -14 -13 -24 0
-18 11 -19 220 -19 l220 0 698 488 c383 269 723 506 755 527 52 34 58 42 55
68 -2 17 -7 31 -13 31 -5 1 -97 0 -204 -2z M1287 8933 c-15 -4 -7 -13 35 -41
75 -50 441 -306 715 -499 127 -89 233 -163 235 -163 2 0 3 160 3 355 l0 355
-485 -1 c-267 -1 -493 -3 -503 -6z M2550 8245 l0 -695 -1110 0 -1110 0 0 -415
0 -415 1110 0 1110 0 0 -695 0 -695 421 0 421 0 -4 695 -3 695 1115 2 c613 1
1126 1 1140 -1 14 -1 102 -3 195 -4 216 -2 272 13 501 129 201 102 236 114
264 89 19 -17 20 -17 49 14 27 29 36 32 88 32 32 0 87 1 122 1 39 0 66 -5 71
-12 5 -8 16 -9 31 -4 29 9 71 7 122 -7 30 -8 37 -14 37 -34 0 -28 1 -29 52
-15 33 10 44 7 105 -24 l68 -34 -45 -12 c-145 -38 -159 -44 -112 -55 17 -3 35
-12 41 -19 8 -10 -11 -19 -86 -41 -97 -29 -105 -43 -25 -44 17 -1 32 -4 32 -8
0 -5 -35 -33 -78 -63 -42 -30 -123 -98 -180 -151 l-104 -97 -65 -7 c-114 -12
-203 -43 -388 -136 -230 -114 -291 -131 -485 -133 -80 0 -166 3 -192 7 l-48 8
0 170 0 169 -392 0 c-215 0 -389 -2 -386 -5 3 -3 72 -51 155 -108 82 -56 256
-176 386 -267 l237 -165 -2 -165 c-1 -91 -4 -129 -6 -85 l-3 80 -47 35 c-26
19 -254 180 -507 357 l-460 323 -244 0 -243 0 208 -144 c115 -80 452 -315 749
-523 509 -357 540 -381 546 -413 4 -20 7 14 8 78 l1 112 43 -7 c23 -5 114 -8
202 -8 203 1 256 15 483 129 226 114 271 127 455 134 242 8 333 -15 580 -143
78 -40 168 -81 199 -90 65 -18 154 -17 152 3 -1 6 -2 126 -3 266 l-1 253 -49
7 c-27 4 -75 15 -107 26 -31 11 -59 20 -60 20 -2 0 -9 -21 -16 -47 l-11 -47
-43 48 c-35 40 -41 53 -34 71 8 21 0 27 -102 80 -81 42 -112 54 -118 45 -6 -9
-10 -8 -17 4 -5 9 -23 20 -40 25 -30 9 -30 8 -62 -63 l-32 -71 -36 69 c-41 80
-42 79 -68 -47 -10 -48 -21 -90 -26 -92 -4 -3 -23 19 -41 50 -18 30 -35 55
-38 55 -3 0 -13 -27 -24 -60 -10 -32 -24 -67 -31 -76 -10 -15 -13 -8 -19 49
-4 37 -10 67 -13 67 -4 0 -28 -14 -55 -31 -27 -17 -51 -30 -53 -27 -2 2 22 37
53 78 l58 75 59 6 c36 3 82 17 115 34 63 32 155 65 182 65 10 0 38 -18 62 -40
l43 -40 18 40 c21 47 30 49 65 15 l27 -26 32 71 c18 38 35 70 37 70 3 0 25 -5
50 -11 30 -8 44 -17 44 -28 0 -9 -14 -68 -30 -131 -16 -63 -28 -115 -27 -116
1 0 22 -6 47 -12 45 -11 50 -9 64 23 2 6 20 -8 39 -30 l34 -39 14 38 c11 30
23 43 52 55 l37 16 -30 37 c-33 39 -32 42 18 53 l32 7 0 -126 0 -126 26 0 c15
0 53 12 85 26 l59 27 1 46 c1 43 1 44 10 16 7 -26 19 -35 76 -59 38 -15 79
-30 93 -33 l25 -6 -22 25 c-13 13 -23 29 -23 35 0 7 25 17 55 23 30 6 55 13
55 15 0 1 -32 29 -71 60 l-70 58 31 20 32 20 -69 63 -68 62 32 18 c18 11 32
22 30 25 -1 4 -22 22 -47 41 -41 31 -45 38 -48 81 -2 31 1 47 8 47 7 0 41 -25
76 -56 35 -31 64 -53 64 -48 0 5 8 19 18 32 l18 23 49 -72 49 -72 23 29 c13
16 23 32 23 37 0 4 4 7 8 7 5 0 19 -29 31 -65 13 -36 26 -65 28 -65 3 0 11 7
18 17 11 14 17 10 54 -36 22 -29 41 -57 41 -62 0 -5 13 -3 30 6 40 21 46 19
60 -15 18 -43 24 -44 58 -10 37 37 60 37 140 5 35 -14 88 -29 120 -33 36 -5
75 -20 107 -40 58 -37 60 -36 -80 -17 l-108 15 -32 -37 -33 -38 -28 58 c-15
31 -33 57 -38 57 -5 0 -23 -12 -38 -27 -15 -15 -28 -21 -28 -15 0 24 -40 10
-181 -62 -123 -63 -192 -93 -258 -112 -12 -4 -12 -7 2 -21 14 -15 14 -20 -5
-72 -11 -31 -24 -60 -28 -64 -4 -5 -27 23 -50 63 l-43 71 -41 -7 c-23 -3 -42
-7 -43 -8 -1 0 -3 -118 -4 -261 l-3 -260 42 -3 c23 -2 42 -7 42 -12 0 -5 15
-7 33 -4 100 18 195 53 336 124 179 91 238 113 344 130 100 16 351 8 432 -15
33 -9 143 -56 245 -105 250 -120 270 -125 505 -125 209 0 255 8 386 67 l69 31
0 271 0 272 -84 -42 c-114 -55 -214 -76 -373 -76 -204 0 -294 26 -508 147
-183 104 -316 144 -478 145 -45 0 -66 6 -93 24 l-35 24 32 36 c17 20 29 40 25
44 -4 3 -38 8 -77 10 -38 2 -69 7 -69 10 0 2 19 25 41 50 50 54 45 59 -65 69
-42 3 -76 9 -76 12 0 3 20 20 45 36 24 17 45 33 45 37 0 4 -48 9 -107 10
l-108 3 44 30 45 30 -114 5 c-68 3 -115 9 -117 16 -5 14 196 117 278 142 94
29 248 45 354 37 171 -12 257 -40 480 -154 160 -81 242 -102 425 -108 169 -6
283 13 413 67 l77 32 0 273 0 273 -77 -38 c-113 -56 -179 -71 -339 -77 -219
-9 -331 21 -544 142 -126 72 -218 110 -300 125 -117 22 -118 21 24 91 147 73
148 71 -41 83 -197 13 -285 -13 -428 -128 -84 -67 -111 -83 -345 -203 -80 -41
-150 -80 -156 -86 -13 -14 -36 -78 -30 -84 2 -3 52 32 110 77 102 77 108 80
129 65 28 -20 91 -19 152 1 26 10 111 52 187 95 208 117 278 135 318 82 11
-16 21 -32 21 -38 1 -5 -29 -19 -67 -31 -74 -22 -75 -24 -63 -94 4 -24 2 -25
-86 -37 -49 -6 -108 -14 -130 -18 l-40 -5 3 -50 c4 -56 18 -49 -143 -73 l-79
-13 -11 -41 c-13 -53 -16 -56 -100 -83 l-69 -23 34 -28 c18 -16 32 -30 29 -32
-2 -2 -25 -11 -51 -21 -26 -10 -50 -21 -53 -26 -3 -4 33 -11 80 -15 47 -4 87
-11 90 -14 8 -14 -107 -81 -138 -81 -16 0 -72 14 -124 30 -117 37 -145 37
-225 0 -56 -27 -70 -29 -124 -24 -61 7 -62 6 -105 -34 -24 -22 -57 -59 -74
-81 -27 -38 -33 -41 -64 -37 -49 7 -109 51 -117 84 -3 15 -12 45 -20 67 -20
58 -19 61 34 75 26 7 51 16 55 20 10 9 -107 60 -138 60 -17 0 -30 11 -46 40
-13 22 -33 47 -45 55 -78 51 -354 85 -495 60 -88 -15 -145 -41 -214 -99 -47
-40 -111 -74 -120 -64 -2 2 9 24 25 48 17 25 30 48 30 52 0 4 -19 17 -42 29
-38 19 -41 23 -25 33 140 87 169 109 185 142 l17 36 125 -7 125 -7 -24 26
c-14 14 -22 28 -19 31 2 3 47 -5 99 -16 52 -12 122 -21 156 -20 49 0 84 -8
168 -39 58 -22 110 -40 116 -40 6 0 -34 36 -90 79 -90 71 -107 80 -164 90 -35
6 -71 11 -80 11 -28 0 -19 14 34 54 28 21 49 40 46 42 -2 2 -37 16 -78 30 -70
25 -82 26 -209 21 -175 -7 -244 -27 -435 -126 -161 -84 -233 -112 -335 -132
-71 -13 -314 -14 -370 -1 l-35 8 -3 134 -3 135 -1112 -3 -1112 -2 3 695 4 695
-421 0 -421 0 0 -695z m550 425 c0 -13 7 -20 20 -20 20 0 20 -7 20 -509 0
-443 2 -510 15 -515 9 -3 15 -18 15 -36 0 -37 4 -43 101 -141 49 -49 98 -87
135 -105 l59 -29 933 -3 c587 -2 932 -6 932 -12 0 -6 8 -10 17 -10 9 0 24 -6
32 -13 27 -23 113 -55 168 -62 l52 -7 4 34 c2 18 4 -82 4 -222 0 -140 -2 -240
-6 -222 -5 26 -18 41 -66 72 -33 22 -66 40 -72 40 -7 0 -13 5 -13 10 0 6 -9
10 -20 10 -11 0 -20 5 -20 10 0 14 -1833 13 -1920 -1 -36 -5 -83 -21 -105 -34
-58 -34 -177 -155 -200 -203 -11 -23 -23 -42 -27 -42 -5 0 -8 -223 -8 -495 l0
-495 -25 0 c-22 0 -25 -4 -25 -40 l0 -40 -145 0 -145 0 0 40 c0 29 -4 40 -15
40 -13 0 -15 62 -15 495 0 323 -3 495 -10 495 -5 0 -10 9 -10 20 0 11 -4 20
-9 20 -5 0 -13 9 -16 20 -10 31 -108 133 -167 173 -38 26 -71 39 -118 47 -41
6 -381 10 -917 10 -752 0 -853 2 -853 15 0 11 -11 15 -40 15 l-40 0 0 145 0
145 40 0 c33 0 40 3 40 20 0 20 7 20 853 20 547 0 875 4 917 11 36 5 83 21
105 34 50 29 171 146 180 174 3 12 11 21 16 21 5 0 9 15 9 34 0 19 5 38 10 41
6 4 10 187 10 516 0 446 2 509 15 509 8 0 15 9 15 20 0 19 7 20 145 20 138 0
145 -1 145 -20z m4619 -2027 l0 -78 -20 50 c-16 40 -18 57 -10 78 19 50 31 30
30 -50z m1 -164 c0 -54 -10 -57 -30 -9 -10 24 -10 33 0 45 22 26 30 16 30 -36z
M3660 8484 l0 -456 53 38 c91 66 813 572 1036 726 l213 148 -651 0 -651 0 0
-456z m338 135 c4 -19 -23 -49 -44 -49 -9 0 -14 11 -14 36 0 33 2 35 27 32 16
-2 29 -10 31 -19z M5760 8912 c81 -51 111 -57 290 -56 128 1 205 8 345 30 164
26 203 28 445 28 246 0 278 -2 450 -29 181 -29 192 -30 560 -30 366 0 380 1
565 30 172 26 214 29 440 30 258 0 347 -8 500 -46 129 -32 276 -87 435 -162
47 -22 109 -48 139 -58 66 -23 59 -12 -42 65 -126 95 -266 161 -435 203 -61
15 -228 17 -1902 20 l-1835 3 45 -28z M1115 8891 c-33 -10 -80 -27 -105 -39
l-45 -22 74 4 c69 3 75 6 109 40 20 20 34 36 32 35 -3 0 -32 -8 -65 -18z
M5604 8685 c0 -99 2 -138 3 -87 2 51 2 132 0 180 -1 48 -3 6 -3 -93z M704
8661 c-50 -44 -94 -86 -97 -95 -4 -11 16 -30 71 -69 42 -30 274 -192 514 -360
l437 -307 247 0 246 0 -213 148 c-118 81 -411 286 -652 455 -241 169 -443 307
-450 307 -7 0 -54 -36 -103 -79z M6603 8699 c-56 -14 -138 -49 -265 -113 -234
-118 -282 -131 -488 -131 -85 0 -174 3 -197 8 l-42 7 -3 -47 -3 -47 -103 -73
c-57 -40 -228 -160 -380 -265 -152 -105 -281 -195 -286 -200 -6 -4 166 -8 382
-8 l392 0 0 44 0 44 43 -11 c23 -6 110 -10 192 -10 200 1 258 16 490 133 241
121 291 134 510 133 143 0 183 -3 249 -22 83 -22 289 -118 281 -131 -2 -4 34
-44 80 -90 47 -45 85 -84 85 -85 0 -1 -28 -6 -62 -10 l-63 -7 44 -37 c24 -20
58 -48 75 -63 l31 -26 -48 -23 c-26 -13 -47 -26 -47 -29 0 -3 23 -23 50 -44
28 -21 53 -42 56 -47 3 -5 -5 -23 -16 -40 -22 -29 -22 -32 -6 -94 9 -35 16
-67 16 -70 0 -8 -67 -6 -93 4 -17 7 -28 23 -37 56 -13 48 -19 50 -73 30 -10
-4 -21 14 -41 69 l-28 76 -28 -15 c-33 -17 -34 -15 -45 65 -6 42 -10 47 -68
81 -61 36 -62 38 -91 118 -16 45 -34 81 -41 81 -7 0 -37 -9 -67 -20 l-53 -21
-143 87 c-79 47 -145 85 -147 82 -2 -2 27 -54 66 -116 38 -62 69 -114 69 -116
0 -1 -45 -13 -100 -26 -55 -13 -100 -26 -100 -29 0 -3 73 -23 162 -44 89 -20
164 -39 166 -42 3 -2 -7 -23 -22 -45 -23 -35 -24 -41 -11 -47 9 -3 43 8 75 24
37 20 67 29 83 26 34 -7 107 -70 193 -168 39 -44 110 -117 157 -162 97 -93
134 -108 193 -79 19 9 40 16 47 16 7 0 30 18 52 40 21 21 54 47 72 55 34 16
35 16 101 -24 51 -30 74 -38 96 -34 17 4 65 41 122 94 52 49 103 89 113 89 11
0 42 -16 71 -35 55 -37 66 -40 89 -26 12 7 10 14 -8 37 l-22 28 100 50 c56 28
101 54 101 57 0 4 -24 10 -52 14 -99 14 -99 15 -12 80 l79 58 -47 -5 c-27 -3
-48 -4 -48 -3 0 2 25 21 56 43 31 22 52 42 47 45 -4 2 -32 10 -60 17 -29 6
-53 15 -53 18 0 4 30 23 66 42 36 19 68 38 70 42 3 4 -16 13 -41 19 -25 6 -45
14 -45 18 0 4 35 42 78 84 65 65 83 77 103 73 38 -9 261 -27 266 -22 3 2 -20
20 -51 40 -31 20 -56 39 -56 42 0 4 57 4 128 1 173 -8 252 -30 462 -132 234
-114 289 -128 500 -129 179 0 238 10 370 61 80 31 79 28 50 142 -24 95 -69
206 -118 289 -36 63 -38 64 -72 57 -135 -24 -176 -27 -280 -21 -177 9 -253 34
-455 147 -219 123 -300 143 -538 137 -148 -4 -170 -7 -252 -35 -50 -17 -156
-65 -235 -105 -211 -108 -270 -123 -500 -123 -183 1 -186 1 -279 33 -51 18
-143 59 -204 92 -212 115 -308 140 -529 139 -106 0 -164 -6 -225 -20z m947
-394 c46 -58 85 -105 87 -105 2 0 27 14 56 30 80 45 80 45 72 -64 l-7 -95 36
-6 c20 -4 39 -11 42 -16 3 -5 -6 -41 -20 -79 -15 -39 -26 -74 -26 -77 0 -9
199 5 259 18 28 6 51 14 51 18 0 5 10 6 23 4 42 -8 56 17 99 169 22 81 44 145
48 143 4 -3 18 -32 30 -65 12 -33 25 -60 29 -60 3 1 25 25 49 54 85 103 88
106 141 106 27 0 67 6 89 14 76 27 85 25 98 -19 l11 -40 64 3 64 2 -28 -27
c-26 -27 -32 -28 -130 -28 -84 0 -110 -4 -150 -22 -62 -29 -149 -112 -205
-196 -54 -83 -78 -100 -132 -95 -22 2 -40 -1 -40 -6 0 -5 -8 -2 -17 6 -44 37
-50 32 -72 -60 -18 -79 -41 -203 -41 -226 0 -6 -13 3 -29 18 -35 34 -33 40
-57 -131 -10 -68 -20 -123 -24 -123 -3 0 -14 13 -23 30 -15 24 -18 50 -16 136
1 98 0 108 -20 123 -21 16 -21 17 -6 106 22 133 22 128 -22 109 -21 -9 -44
-18 -50 -21 -9 -4 -11 3 -7 25 6 29 5 29 -45 34 -40 4 -59 13 -96 44 -25 21
-64 49 -87 61 -46 25 -90 65 -149 135 l-40 47 62 12 c59 12 61 13 56 39 -9 44
-20 180 -15 180 3 0 42 -47 88 -105z M502 8428 c-22 -28 -92 -177 -116 -249
-27 -82 -56 -238 -56 -306 l0 -43 531 0 531 0 -218 151 c-298 207 -506 353
-585 410 -74 54 -73 54 -87 37z M10302 7776 c-12 -24 -22 -53 -22 -65 0 -11
-4 -21 -10 -21 -5 0 -10 -20 -10 -44 0 -25 5 -48 10 -51 6 -3 10 -15 10 -25 0
-10 6 -25 13 -32 7 -7 18 -22 25 -33 9 -16 11 16 12 148 0 92 -1 167 -3 167
-2 0 -13 -20 -25 -44z M5604 7670 c0 -52 1 -74 3 -47 2 26 2 68 0 95 -2 26 -3
4 -3 -48z M5603 6560 c0 -41 2 -58 4 -37 2 20 2 54 0 75 -2 20 -4 3 -4 -38z
M10316 6608 c-4 -16 -12 -28 -17 -28 -5 0 -12 -18 -15 -40 -4 -22 -10 -40 -15
-40 -5 0 -9 -20 -9 -45 0 -25 5 -45 10 -45 6 0 10 -9 10 -19 0 -11 6 -26 13
-33 7 -7 17 -22 23 -33 10 -23 17 92 12 228 -2 63 -5 76 -12 55z M330 6054 l0
-386 43 32 c54 41 755 541 916 653 l123 87 -541 0 -541 0 0 -386z M2089 6422
c-32 -25 -1112 -782 -1349 -946 -102 -71 -189 -132 -194 -137 -6 -5 89 -9 230
-9 l239 0 550 386 c303 213 587 411 633 442 l82 55 0 114 0 113 -84 0 c-66 0
-88 -4 -107 -18z M3660 5786 l0 -456 652 0 651 0 -69 48 c-458 319 -993 693
-1089 762 -66 47 -126 89 -132 94 -10 6 -13 -87 -13 -448z m336 -124 c15 -22
7 -34 -33 -46 -22 -7 -23 -5 -23 44 0 50 1 51 21 36 11 -8 27 -23 35 -34z
M2050 5886 c-169 -120 -616 -432 -770 -538 -24 -16 2 -17 485 -17 l510 -1 0
355 c0 195 -2 355 -5 355 -3 -1 -102 -70 -220 -154z M330 5411 c0 -141 11
-163 30 -62 15 82 12 132 -10 166 l-20 30 0 -134z M7640 5456 c0 -35 1 -36 40
-36 l40 0 0 -61 c0 -55 -3 -62 -31 -87 -89 -74 -89 -227 0 -293 35 -26 43 -69
14 -69 -18 0 -88 15 -128 26 -13 4 -17 3 -10 -4 8 -8 147 -62 161 -62 2 0 4
15 4 34 0 48 40 59 121 34 34 -10 39 -15 39 -41 0 -21 4 -28 14 -24 8 3 33 11
55 17 57 15 51 24 -9 16 -50 -7 -50 -7 -50 22 0 20 9 35 29 50 37 27 71 98 71
148 -1 51 -29 113 -69 146 -28 25 -31 32 -31 87 l0 61 40 0 c38 0 40 2 40 30
0 17 -2 30 -5 30 -3 0 -40 -9 -83 -20 l-77 -20 -70 20 c-39 12 -78 24 -87 27
-15 4 -18 -1 -18 -31z M10314 5425 c-3 -14 -10 -25 -15 -25 -5 0 -12 -18 -15
-40 -4 -22 -10 -40 -15 -40 -5 0 -9 -20 -9 -45 0 -25 4 -45 9 -45 5 0 11 -12
15 -27 3 -16 15 -39 26 -53 l20 -25 0 163 c0 89 -2 162 -5 162 -2 0 -7 -11
-11 -25z M645 5169 c-90 -12 -163 -33 -247 -71 l-68 -31 0 -278 c0 -154 2
-279 4 -279 2 0 27 12 55 26 130 65 259 89 444 82 174 -7 242 -27 454 -134
100 -50 211 -99 247 -108 110 -27 249 -37 360 -26 163 17 215 34 436 147 202
103 261 118 475 118 218 0 269 -13 502 -131 100 -50 211 -99 247 -108 110 -27
250 -37 361 -26 163 17 214 34 435 147 202 103 261 118 475 118 214 0 273 -15
475 -118 222 -113 273 -130 435 -147 111 -12 251 -1 363 27 38 9 136 52 228
99 181 93 251 119 368 136 l81 11 0 101 c0 92 3 107 31 167 63 132 151 196
286 206 82 6 61 13 340 -113 113 -51 142 -57 75 -14 -71 44 -129 72 -260 124
-172 68 -228 79 -397 80 -208 1 -261 -13 -495 -129 -252 -126 -300 -138 -520
-138 -219 0 -272 13 -495 127 -91 46 -196 93 -235 105 -159 49 -403 49 -562 0
-38 -12 -142 -59 -233 -105 -223 -114 -276 -127 -495 -127 -219 0 -272 13
-495 127 -91 46 -195 93 -233 105 -109 33 -266 46 -391 32 -146 -16 -213 -39
-406 -137 -223 -114 -276 -127 -495 -127 -219 0 -272 13 -495 127 -181 92
-262 120 -390 136 -97 11 -166 11 -265 -1z M8750 5174 c-63 -8 -181 -35 -218
-51 -21 -9 -72 -22 -114 -29 -102 -18 -168 -44 -269 -105 -106 -63 -121 -78
-44 -43 118 53 222 93 320 123 89 28 106 30 152 22 69 -14 120 -41 164 -88 79
-84 112 -174 107 -297 l-3 -83 100 -6 c145 -8 237 -36 420 -126 88 -44 191
-89 230 -101 209 -63 478 -45 682 45 l53 24 0 271 c0 150 -3 270 -7 268 -5 -1
-38 -18 -75 -36 -119 -58 -203 -75 -373 -75 -222 0 -246 8 -590 186 -65 34
-143 66 -190 78 -78 19 -271 32 -345 23z M7051 4953 c-69 -25 -133 -95 -154
-169 -9 -33 -17 -84 -17 -112 l0 -52 41 0 c37 0 40 -2 33 -22 -14 -45 -7 -127
16 -182 22 -56 22 -56 66 -56 24 0 44 -3 44 -7 0 -5 -7 -35 -15 -68 -24 -99
-23 -100 40 -59 30 21 57 35 60 33 6 -7 25 -172 20 -177 -2 -3 -33 3 -69 12
-36 9 -68 16 -71 16 -3 0 14 -28 39 -63 l45 -63 -54 -27 -54 -26 -13 27 -13
27 -165 0 c-216 0 -259 -11 -493 -130 -237 -119 -279 -130 -502 -130 -219 0
-269 12 -475 117 -85 44 -195 94 -245 111 -89 32 -92 32 -285 32 -239 0 -264
-7 -521 -135 -230 -114 -274 -125 -494 -125 -219 0 -269 12 -475 117 -85 44
-195 94 -245 111 -89 32 -92 32 -285 32 -239 0 -264 -7 -521 -135 -230 -114
-274 -125 -494 -125 -219 0 -269 12 -475 117 -85 44 -195 94 -245 111 -89 32
-92 32 -285 32 -212 0 -237 -4 -387 -67 l-73 -30 0 -279 c0 -153 2 -279 5
-279 3 0 27 11 53 24 189 94 468 113 682 45 36 -11 144 -60 240 -108 218 -108
284 -126 485 -126 201 0 267 18 485 126 244 122 339 149 525 149 186 0 281
-27 530 -150 221 -109 280 -125 480 -125 201 0 267 18 485 126 244 122 339
149 525 149 186 0 281 -27 530 -150 221 -109 280 -125 480 -125 201 0 258 15
490 130 250 123 309 139 515 139 204 0 269 -17 495 -128 185 -91 228 -108 323
-126 l62 -13 0 -314 0 -315 -42 7 c-89 15 -178 49 -317 122 -237 124 -343 150
-574 140 -170 -7 -242 -27 -422 -121 -145 -75 -220 -107 -293 -126 -74 -19
-226 -27 -337 -19 -136 11 -233 43 -435 147 -206 105 -256 117 -475 117 -217
0 -268 -13 -475 -118 -85 -43 -194 -92 -242 -108 -166 -56 -420 -56 -587 0
-47 16 -156 65 -241 109 -205 105 -256 117 -475 117 -217 0 -268 -13 -475
-118 -85 -43 -194 -92 -242 -108 -166 -56 -420 -56 -587 0 -47 16 -156 65
-241 109 -206 105 -256 117 -475 117 -187 0 -252 -12 -378 -68 l-67 -30 6 -36
c34 -200 140 -460 182 -447 148 45 384 42 541 -6 36 -11 138 -57 226 -102 223
-115 283 -130 500 -131 216 0 276 16 500 131 88 45 190 91 228 103 161 49 402
50 562 0 39 -11 142 -58 231 -104 223 -114 282 -129 499 -130 216 0 276 16
500 131 88 45 190 91 228 103 161 49 402 50 562 0 39 -11 142 -58 231 -104
223 -114 282 -129 499 -130 216 0 276 16 500 131 88 45 191 91 230 103 160 50
401 49 562 0 38 -12 140 -58 228 -103 224 -115 284 -131 500 -131 217 1 277
16 500 131 88 45 190 91 226 102 144 45 354 51 509 16 93 -21 148 -43 306
-123 172 -87 257 -111 424 -118 l125 -5 66 69 c128 136 208 267 263 434 49
145 49 146 -22 110 -123 -62 -191 -76 -372 -76 -237 0 -274 12 -590 182 -150
82 -221 98 -425 98 -217 0 -263 -12 -499 -128 -195 -95 -280 -124 -396 -134
l-75 -6 3 311 3 311 57 6 c154 18 207 36 437 151 207 103 267 118 475 117 211
0 266 -14 500 -128 235 -114 290 -128 500 -129 182 0 240 10 380 65 l80 32 0
274 0 273 -69 -35 c-102 -51 -199 -75 -332 -82 -214 -11 -348 24 -562 146 -67
38 -165 84 -217 102 -86 29 -109 33 -244 37 -95 3 -175 0 -218 -8 -82 -14 -88
-23 -88 -135 0 -75 -12 -124 -33 -137 -31 -20 -63 -7 -106 43 -31 36 -64 61
-110 82 -61 29 -76 31 -226 38 -88 4 -197 13 -242 19 -60 8 -100 7 -150 -1
-37 -6 -143 -14 -234 -18 -161 -7 -168 -8 -232 -39 -45 -22 -80 -49 -108 -83
-80 -94 -129 -56 -129 100 l0 78 63 20 c34 11 86 26 115 34 46 11 56 19 81 59
25 40 28 54 24 94 l-6 48 -37 -43 -36 -43 -12 72 c-18 106 -19 102 39 102 49
0 51 1 45 23 -4 12 -12 48 -18 79 -10 48 -9 60 5 81 27 42 114 40 137 -3 15
-27 12 -85 -5 -127 -8 -19 -15 -37 -15 -39 0 -2 25 -4 55 -4 49 0 55 -2 59
-22 10 -48 15 -128 8 -128 -4 0 -27 14 -52 30 l-45 30 -3 -47 c-3 -41 0 -50
31 -80 l34 -34 96 7 97 7 30 53 c16 30 30 58 30 63 0 5 -33 1 -72 -10 -40 -10
-74 -19 -75 -19 -2 0 -3 47 -3 105 0 58 3 105 6 105 3 0 35 -16 70 -36 35 -20
64 -31 64 -26 0 5 -13 42 -30 80 -37 86 -37 92 -4 92 l26 0 -6 157 -5 157 -53
13 c-49 12 -100 36 -311 146 -73 38 -85 41 -170 44 -66 2 -105 -2 -136 -14z
m406 -209 c18 -7 52 -26 77 -43 24 -17 62 -37 85 -47 l41 -16 -18 -30 c-40
-70 -106 -87 -181 -48 -67 34 -128 29 -216 -16 -73 -38 -74 -38 -109 -22 -53
26 -155 101 -155 116 -1 17 76 52 116 52 17 0 43 -4 57 -10 21 -8 27 -6 36 10
36 68 167 95 267 54z m708 -995 c144 -14 265 -36 354 -65 90 -29 134 -54 157
-89 15 -23 15 -27 -1 -51 -33 -51 -202 -106 -432 -141 -173 -26 -698 -25 -868
1 -463 71 -573 183 -273 280 229 74 686 102 1063 65z m-378 -416 c17 -3 46 0
64 6 41 14 49 4 49 -61 0 -71 -5 -78 -59 -78 -25 0 -63 3 -83 6 l-38 7 0 69
c0 63 2 69 18 63 9 -4 31 -9 49 -12z m105 -816 c11 -18 10 -175 -2 -198 -16
-29 -67 -51 -101 -44 -55 12 -69 45 -69 163 l0 105 82 -7 c46 -4 86 -12 90
-19z M7608 3600 c-210 -16 -341 -44 -373 -80 -22 -24 -12 -39 37 -55 24 -9 42
-7 84 7 85 29 232 40 352 27 77 -8 129 -8 208 1 114 13 228 8 357 -16 87 -17
117 -12 117 16 0 36 -102 70 -265 89 -130 15 -393 21 -517 11z M8335 4956
c-50 -16 -90 -36 -180 -91 -56 -35 -175 -83 -252 -101 -10 -3 -13 -43 -13
-159 0 -148 1 -155 20 -155 11 0 20 -2 20 -4 0 -3 -16 -42 -35 -87 -19 -45
-33 -85 -30 -87 2 -2 35 13 72 34 37 22 71 41 76 42 4 2 7 -48 7 -112 0 -64
-4 -116 -9 -116 -5 0 -38 11 -75 25 -36 14 -66 22 -66 18 0 -3 17 -32 37 -63
l37 -57 89 -7 90 -7 34 32 c28 28 33 40 33 81 l0 48 -49 -30 c-26 -17 -51 -30
-54 -30 -4 0 -5 12 -2 28 2 15 7 48 10 75 l6 47 55 0 c30 0 54 2 54 4 0 2 -7
23 -15 46 -30 84 -16 133 41 149 45 12 80 0 96 -34 11 -25 6 -71 -18 -152 -6
-22 -4 -23 45 -23 59 0 59 0 40 -108 l-11 -64 -39 43 -38 44 -1 -53 c0 -61 39
-142 69 -142 9 0 55 -12 102 -26 123 -37 130 -38 67 -7 l-57 28 44 59 c25 33
43 61 41 63 -2 2 -33 -4 -70 -13 -37 -9 -68 -15 -70 -13 -6 8 17 179 24 179 4
0 31 -16 59 -35 28 -19 52 -35 55 -35 4 0 -3 35 -29 148 -5 20 -2 22 39 22 44
0 46 1 67 48 16 35 22 67 22 124 l1 77 30 3 31 3 0 76 c-1 47 -7 93 -19 122
-22 57 -89 119 -153 141 -55 19 -172 20 -228 2z m32 -211 c17 -7 41 -27 53
-43 19 -26 26 -29 47 -21 13 5 39 9 57 9 33 0 118 -38 123 -55 3 -13 -143
-110 -178 -119 -18 -4 -46 4 -95 29 -88 44 -151 47 -225 10 -68 -35 -103 -29
-151 26 -21 23 -38 45 -38 48 0 4 21 17 48 28 26 12 72 38 102 57 83 54 173
65 257 31z M6800 4543 c23 -80 65 -148 127 -208 35 -34 36 -37 34 -104 -1 -38
3 -88 9 -111 11 -40 13 -42 28 -26 12 12 17 34 17 77 -1 54 -7 73 -75 205 -66
129 -113 194 -140 194 -5 0 -5 -12 0 -27z M8781 4543 c-35 -36 -144 -243 -165
-313 -20 -68 -20 -91 0 -138 l17 -37 13 40 c7 22 13 77 13 122 l1 82 49 50
c63 64 141 221 111 221 -6 0 -24 -12 -39 -27z M331 4230 c0 -130 1 -143 14
-126 8 11 15 26 15 33 0 7 5 13 10 13 6 0 10 11 10 24 0 14 5 28 10 31 6 3 10
17 10 30 0 13 -4 27 -10 30 -5 3 -10 15 -10 26 0 10 -4 19 -10 19 -5 0 -10 6
-10 13 0 7 -7 22 -15 33 -13 17 -14 4 -14 -126z M10302 4216 c-12 -24 -22 -50
-22 -59 0 -9 -4 -19 -10 -22 -12 -8 -13 -85 -1 -85 5 0 12 -16 15 -35 4 -19
11 -35 15 -35 4 0 13 -10 19 -22 8 -18 11 15 11 140 1 89 0 162 -2 162 -2 0
-13 -20 -25 -44z M330 3040 c0 -77 2 -140 5 -140 8 0 45 83 45 102 0 10 5 18
10 18 6 0 10 13 10 29 0 17 -4 33 -10 36 -5 3 -10 15 -10 26 0 10 -4 19 -9 19
-5 0 -12 11 -15 25 -4 14 -11 25 -16 25 -6 0 -10 -55 -10 -140z M10303 3038
c-13 -25 -23 -52 -23 -61 0 -9 -4 -19 -10 -22 -12 -8 -13 -99 -1 -123 5 -9 17
-37 29 -62 l20 -45 6 45 c4 25 6 105 4 179 l-3 134 -22 -45z M686 2019 c82
-86 256 -191 395 -238 180 -60 -138 -56 4264 -56 l4040 0 95 27 c52 14 115 35
140 46 l45 20 -115 -2 c-63 0 -252 6 -420 13 -360 16 -592 7 -875 -35 -224
-33 -536 -38 -725 -11 -63 9 -167 24 -230 33 -164 24 -746 24 -910 0 -63 -9
-167 -24 -230 -33 -189 -27 -502 -22 -725 11 -364 55 -850 57 -1180 6 -312
-48 -528 -49 -845 -4 -96 13 -254 29 -350 35 -206 13 -558 4 -715 -17 -429
-58 -555 -65 -777 -44 -213 20 -463 87 -654 176 -130 59 -235 104 -247 104 -6
0 2 -14 19 -31z"/>
</g>
</svg>
