<?xml version="1.0" standalone="no"?>
<!DOCTYPE svg PUBLIC "-//W3C//DTD SVG 20010904//EN"
 "http://www.w3.org/TR/2001/REC-SVG-20010904/DTD/svg10.dtd">
<svg version="1.0" xmlns="http://www.w3.org/2000/svg"
 width="2048.000000pt" height="2048.000000pt" viewBox="0 0 2048.000000 2048.000000"
 preserveAspectRatio="xMidYMid meet">
<metadata>
Created by potrace 1.13, written by Peter Selinger 2001-2015
</metadata>
<g transform="translate(0.000000,2048.000000) scale(0.192120,-0.192120)"
fill="#000000" stroke="none">
<path d="M1247 8924 c-399 -72 -736 -366 -863 -751 -56 -173 -54 -48 -54
-2843 0 -1654 4 -2600 10 -2645 25 -177 91 -345 189 -488 61 -88 184 -212 272
-274 91 -65 251 -139 366 -171 l98 -27 923 -3 922 -3 0 3611 0 3610 -892 -1
c-724 -1 -908 -3 -971 -15z m1583 -3604 l0 -3340 -627 0 c-687 1 -876 8 -998
40 -164 42 -341 148 -436 262 -63 76 -128 188 -151 261 -17 57 -18 167 -16
2811 l3 2751 45 90 c37 74 62 107 140 186 174 175 350 252 620 269 63 4 409 8
768 8 l652 2 0 -3340z M3278 8915 c24 -13 60 -29 80 -35 26 -8 629 -10 1987
-8 l1950 3 65 32 65 31 -2095 1 -2095 1 43 -25z M7550 5330 l0 -3611 923 3
922 3 98 27 c201 55 375 158 518 305 160 165 256 346 300 568 21 105 21 5305
0 5410 -71 355 -298 646 -626 801 -52 25 -138 57 -192 72 l-98 27 -922 3 -923
3 0 -3611z m1640 3320 c197 -9 282 -25 401 -75 190 -80 365 -252 428 -420 l21
-56 0 -2767 -1 -2767 -28 -71 c-78 -198 -248 -361 -463 -444 -155 -60 -172
-61 -990 -67 l-748 -5 0 3341 0 3341 598 0 c328 -1 680 -5 782 -10z M5339
7398 c-95 -191 -323 -609 -341 -625 -46 -41 -102 -23 -357 120 l-54 30 7 -34
c78 -386 196 -1041 192 -1068 -10 -66 -62 -90 -118 -53 -15 9 -129 133 -254
274 -125 142 -229 256 -231 254 -2 -2 -17 -55 -34 -117 -47 -180 -53 -189
-121 -189 -29 0 -506 99 -562 116 -15 5 -18 2 -13 -12 50 -170 177 -643 177
-659 0 -32 -33 -56 -152 -109 -60 -27 -108 -52 -108 -55 1 -3 24 -24 53 -46
182 -139 925 -751 939 -773 27 -41 22 -84 -27 -236 -25 -77 -44 -141 -42 -142
1 -1 31 2 67 7 36 5 256 32 490 59 l425 50 17 -21 c13 -15 16 -32 13 -58 -3
-20 -16 -238 -30 -486 -14 -247 -27 -465 -30 -482 l-6 -33 136 0 c135 0 135 0
135 23 0 13 -5 93 -10 178 -28 432 -49 839 -44 853 3 8 12 17 20 20 12 5 790
-81 932 -103 37 -6 52 -5 52 4 0 6 -20 76 -45 154 -40 127 -44 147 -35 182 10
35 53 73 493 430 265 216 490 399 500 409 17 16 12 19 -100 69 -65 30 -124 60
-130 69 -7 9 -13 28 -13 43 0 24 155 600 176 653 6 15 3 17 -12 13 -71 -22
-535 -117 -570 -117 -57 0 -72 23 -110 170 -20 74 -38 137 -39 139 -2 2 -19
-14 -37 -35 -173 -199 -442 -495 -457 -504 -54 -28 -111 11 -111 76 0 30 142
799 185 1003 8 41 14 75 13 76 -2 2 -61 -29 -133 -67 -202 -108 -240 -116
-287 -59 -13 14 -99 171 -193 349 -93 177 -173 322 -177 322 -4 0 -22 -28 -39
-62z m66 -504 c9 -9 49 -66 89 -128 93 -143 203 -243 286 -261 25 -6 28 -11
35 -61 7 -59 6 -69 -31 -272 -17 -96 -24 -169 -24 -261 l0 -127 38 -63 c45
-74 132 -165 184 -192 97 -50 188 -8 374 173 73 71 141 128 151 128 10 0 54
-21 98 -47 l80 -48 123 1 123 1 -7 -168 c-7 -161 -6 -169 16 -216 31 -65 30
-97 -6 -134 -16 -17 -137 -120 -269 -227 -320 -261 -426 -371 -500 -522 -17
-33 -33 -60 -37 -60 -4 0 -14 -7 -22 -15 -14 -14 -37 -13 -238 10 -272 31
-322 31 -396 4 -88 -32 -95 -33 -175 -5 -94 32 -124 32 -410 0 -181 -21 -234
-24 -251 -14 -11 6 -39 47 -61 91 -45 90 -145 220 -223 290 -28 26 -159 135
-291 243 -132 107 -247 206 -255 218 -21 30 -20 57 4 120 23 61 26 154 9 269
-7 42 -9 87 -6 101 6 24 9 25 49 17 24 -4 77 -8 118 -9 79 0 78 -1 201 69 74
41 85 36 197 -77 148 -150 243 -212 328 -212 76 0 195 103 255 222 27 53 29
66 29 166 0 65 -8 158 -21 228 -11 66 -26 156 -34 202 -8 45 -12 102 -9 125 6
41 8 44 51 55 93 25 213 138 296 280 43 73 86 122 108 122 4 0 15 -7 24 -16z
M3370 1791 c0 -5 -12 -12 -27 -16 -16 -3 -46 -17 -68 -30 l-40 -25 2095 0
2095 0 -33 20 c-18 11 -53 26 -78 32 -24 7 -44 16 -44 20 0 4 -877 8 -1950 8
-1181 0 -1950 -4 -1950 -9z"/>
</g>
</svg>
