<?xml version="1.0" standalone="no"?>
<!DOCTYPE svg PUBLIC "-//W3C//DTD SVG 20010904//EN"
 "http://www.w3.org/TR/2001/REC-SVG-20010904/DTD/svg10.dtd">
<svg version="1.0" xmlns="http://www.w3.org/2000/svg"
 width="2048.000000pt" height="2048.000000pt" viewBox="0 0 2048.000000 2048.000000"
 preserveAspectRatio="xMidYMid meet">
<metadata>
Created by potrace 1.13, written by Peter Selinger 2001-2015
</metadata>
<g transform="translate(0.000000,2048.000000) scale(0.192120,-0.192120)"
fill="#000000" stroke="none">
<path d="M1286 8929 c-217 -32 -427 -131 -587 -278 -75 -69 -179 -193 -179
-213 0 -13 63 25 258 153 90 60 187 119 215 132 102 48 233 85 343 97 81 8
1114 10 4044 8 3580 -4 3942 -5 4012 -20 182 -38 295 -90 508 -233 128 -86
228 -145 245 -145 12 0 -60 95 -124 163 -124 132 -285 235 -456 291 -185 60
113 56 -4239 55 -2189 -1 -4008 -5 -4040 -10z M402 8223 c-15 -40 -39 -120
-53 -178 -7 -32 -13 -181 -16 -412 l-5 -363 5002 0 5002 0 -5 363 c-5 375 -7
395 -54 540 l-25 77 -4918 0 -4918 0 -10 -27z m9636 -475 l2 -208 -4720 0
-4720 0 0 203 c0 112 3 207 7 210 3 4 2126 6 4717 5 l4711 -3 3 -207z M10308
7098 c-10 -12 -18 -28 -18 -35 0 -7 -4 -13 -10 -13 -5 0 -10 -11 -10 -25 0
-14 -4 -25 -10 -25 -7 0 -10 -567 -10 -1680 0 -1113 3 -1680 10 -1680 6 0 10
-9 10 -20 0 -11 5 -20 10 -20 6 0 10 -6 10 -13 0 -8 9 -24 20 -37 l20 -23 0
1796 c0 989 -1 1797 -2 1797 -2 0 -11 -10 -20 -22z M331 5325 c0 -1576 1
-1788 14 -1771 8 11 15 26 15 33 0 7 3 13 8 13 31 0 32 44 32 1726 0 1105 -3
1675 -10 1679 -5 3 -10 15 -10 26 0 10 -4 19 -10 19 -5 0 -10 6 -10 13 0 7 -7
22 -15 33 -13 17 -14 -195 -14 -1771z M5283 6812 c-23 -42 -123 -216 -221
-387 l-180 -310 -451 -3 c-248 -1 -451 -4 -451 -7 0 -3 11 -22 24 -43 13 -20
114 -193 224 -385 l202 -347 -202 -347 c-110 -192 -211 -365 -224 -385 -13
-21 -24 -40 -24 -43 0 -3 203 -6 451 -7 l451 -3 180 -310 c98 -170 198 -345
221 -387 23 -43 44 -78 47 -78 3 0 42 67 87 148 46 81 145 255 221 387 l139
240 451 3 c249 1 452 4 452 7 0 3 -11 22 -24 43 -13 20 -114 193 -224 385
l-202 347 202 347 c110 192 211 365 224 385 13 21 24 40 24 43 0 3 -203 6
-451 7 l-451 3 -179 310 c-99 171 -199 345 -222 387 -23 43 -44 78 -47 78 -3
0 -24 -35 -47 -78z m114 -589 l62 -108 -65 -3 c-35 -2 -93 -2 -128 0 l-65 3
62 108 c34 59 64 107 67 107 3 0 33 -48 67 -107z m-679 -394 c-8 -21 -124
-218 -128 -219 -5 0 -130 213 -130 221 0 2 59 4 130 4 72 0 129 -3 128 -6z
m1482 2 c0 -8 -125 -221 -130 -221 -4 0 -130 215 -130 222 0 2 59 3 130 3 72
0 130 -2 130 -4z m-566 -17 c3 -9 67 -121 142 -250 l135 -234 -135 -234 c-75
-129 -139 -241 -142 -250 -5 -14 -40 -16 -304 -16 -264 0 -299 2 -304 16 -3 9
-67 121 -142 250 l-135 234 135 234 c75 129 139 241 142 250 5 14 40 16 304
16 264 0 299 -2 304 -16z m-976 -874 c34 -60 62 -111 62 -112 0 -2 -58 -3
-130 -3 -71 0 -130 2 -130 4 0 8 125 221 130 221 3 0 33 -50 68 -110z m1480 1
c34 -60 62 -110 62 -112 0 -2 -58 -4 -130 -4 -71 0 -129 3 -127 7 6 19 123
217 127 218 3 0 33 -49 68 -109z m-701 -433 c-13 -24 -42 -73 -63 -110 -21
-38 -41 -68 -44 -68 -3 0 -23 30 -44 68 -21 37 -50 86 -63 110 l-25 42 132 0
132 0 -25 -42z M333 3028 c3 -232 9 -381 16 -413 14 -58 38 -138 53 -177 l10
-28 4918 0 4918 0 25 78 c47 144 49 164 54 540 l5 362 -5002 0 -5002 0 5 -362z
m9707 -122 c0 -164 -3 -197 -16 -210 -14 -15 -455 -16 -4702 -16 -2931 0
-4693 4 -4702 10 -12 8 -16 45 -18 210 l-3 200 4720 0 4721 0 0 -194z M520
2222 c0 -17 97 -137 156 -193 152 -143 318 -232 533 -287 61 -15 379 -16 4076
-20 3674 -3 4018 -1 4110 14 243 39 455 151 622 327 66 70 141 167 128 167
-15 0 -102 -51 -241 -140 -236 -153 -337 -198 -506 -225 -81 -12 -630 -14
-4088 -15 -2855 -1 -4011 2 -4050 9 -164 33 -311 96 -470 203 -80 53 -211 136
-257 162 -7 4 -13 3 -13 -2z"/>
</g>
</svg>
