<?xml version="1.0" standalone="no"?>
<!DOCTYPE svg PUBLIC "-//W3C//DTD SVG 20010904//EN"
 "http://www.w3.org/TR/2001/REC-SVG-20010904/DTD/svg10.dtd">
<svg version="1.0" xmlns="http://www.w3.org/2000/svg"
 width="2048.000000pt" height="2048.000000pt" viewBox="0 0 2048.000000 2048.000000"
 preserveAspectRatio="xMidYMid meet">
<metadata>
Created by potrace 1.13, written by Peter Selinger 2001-2015
</metadata>
<g transform="translate(0.000000,2048.000000) scale(0.192120,-0.192120)"
fill="#000000" stroke="none">
<path d="M1320 10324 c-273 -42 -463 -131 -640 -301 -176 -167 -284 -364 -332
-603 -19 -96 -19 -8084 0 -8180 80 -398 361 -723 733 -849 180 -60 -136 -56
4249 -56 3399 0 4036 2 4095 14 398 79 726 367 848 746 55 171 52 -100 52
4235 0 4335 3 4064 -52 4235 -51 157 -132 292 -250 415 -160 169 -333 267
-572 328 -61 15 -367 16 -4086 18 -2211 1 -4031 0 -4045 -2z m8089 -287 c294
-72 494 -221 609 -457 l37 -75 0 -4165 0 -4165 -28 -69 c-120 -296 -384 -481
-736 -516 -74 -8 -1306 -10 -4041 -8 -3625 4 -3940 5 -4000 20 -334 86 -563
284 -649 562 l-21 68 0 4104 0 4105 21 62 c63 189 239 375 443 467 83 38 192
68 287 79 41 5 1846 8 4039 7 3772 -1 3969 -2 4039 -19z M3105 8619 c-331 -65
-602 -309 -737 -664 l-23 -60 -3 -2539 -2 -2540 21 -75 c80 -292 322 -571 583
-672 418 -161 854 20 1089 451 50 92 84 187 107 302 19 95 20 139 20 889 l0
789 1165 0 1165 0 0 -792 c0 -842 2 -875 49 -1011 164 -472 604 -759 1029
-671 177 36 304 106 443 244 120 118 202 249 265 425 l29 80 3 2540 c2 2536 2
2540 -18 2608 -89 292 -316 548 -574 648 -120 46 -222 63 -346 56 -125 -8
-197 -25 -307 -77 -104 -49 -158 -86 -250 -174 -103 -97 -163 -175 -217 -283
-105 -208 -106 -218 -106 -965 0 -621 0 -628 -20 -628 -17 0 -20 -7 -20 -42
l0 -43 -1130 0 -1130 0 0 43 c0 31 -4 42 -15 42 -13 0 -15 76 -15 626 0 344
-4 644 -9 667 -5 23 -15 69 -22 102 -39 186 -172 394 -342 535 -82 68 -240
150 -337 175 -78 20 -275 28 -345 14z m314 -255 c31 -8 92 -32 136 -53 169
-83 294 -230 357 -416 l23 -70 3 -832 3 -833 1389 0 1390 0 0 808 c0 775 1
812 20 888 50 200 183 365 365 455 111 54 190 72 310 72 121 0 200 -19 315
-76 68 -33 102 -58 170 -127 94 -94 142 -172 182 -300 l23 -75 0 -2475 0
-2475 -23 -75 c-39 -125 -88 -206 -177 -295 -89 -89 -159 -135 -264 -171 -385
-134 -801 92 -901 490 -19 76 -20 113 -20 1025 l0 946 -1390 0 -1389 0 -3
-970 -3 -970 -23 -70 c-127 -380 -523 -580 -893 -451 -105 36 -175 82 -264
171 -89 89 -138 170 -177 295 l-23 75 0 2475 0 2475 23 75 c39 124 88 206 177
296 178 180 422 249 664 188z"/>
</g>
</svg>
