<?xml version="1.0" standalone="no"?>
<!DOCTYPE svg PUBLIC "-//W3C//DTD SVG 20010904//EN"
 "http://www.w3.org/TR/2001/REC-SVG-20010904/DTD/svg10.dtd">
<svg version="1.0" xmlns="http://www.w3.org/2000/svg"
 width="2048.000000pt" height="2048.000000pt" viewBox="0 0 2048.000000 2048.000000"
 preserveAspectRatio="xMidYMid meet">
<metadata>
Created by potrace 1.13, written by Peter Selinger 2001-2015
</metadata>
<g transform="translate(0.000000,2048.000000) scale(0.192120,-0.192120)"
fill="#000000" stroke="none">
<path d="M1247 8924 c-477 -86 -844 -474 -907 -957 -7 -57 -10 -889 -7 -2692
3 -2395 4 -2615 20 -2676 57 -228 149 -396 303 -551 139 -140 316 -242 511
-296 l98 -27 4065 0 4065 0 98 27 c201 56 375 158 518 305 161 165 256 346
301 573 20 100 19 5304 -1 5405 -71 355 -298 646 -626 801 -52 25 -138 57
-192 72 l-98 27 -4035 2 c-3449 1 -4046 -1 -4113 -13z m8173 -168 c366 -88
625 -341 723 -707 l22 -84 0 -2635 c0 -2467 -1 -2639 -17 -2702 -63 -245 -209
-457 -402 -586 -81 -54 -220 -113 -326 -138 -72 -18 -256 -19 -4025 -22 -2817
-2 -3978 0 -4047 8 -186 21 -343 82 -474 182 -183 142 -296 313 -357 542 l-22
81 0 2635 0 2635 22 84 c49 180 118 304 247 439 151 158 339 253 558 281 35 5
1854 8 4043 7 3803 -1 3983 -2 4055 -20z M1247 8639 c-313 -77 -557 -328 -621
-641 -14 -69 -16 -343 -16 -2668 0 -2325 2 -2599 16 -2668 65 -315 309 -566
626 -642 82 -20 122 -20 4079 -20 l3996 0 95 24 c310 79 548 327 612 638 14
69 16 343 16 2668 0 2325 -2 2599 -16 2668 -62 303 -292 548 -599 639 -57 17
-257 18 -4085 20 -3936 2 -4027 1 -4103 -18z m8143 -225 c192 -55 329 -159
409 -309 l26 -50 3 -2700 c2 -3010 9 -2747 -70 -2865 -115 -172 -268 -257
-502 -281 -66 -6 -1461 -9 -4006 -7 l-3905 3 -76 22 c-134 38 -262 115 -332
199 -42 52 -93 138 -110 188 -16 46 -17 248 -17 2726 l0 2677 35 71 c61 121
171 225 299 282 78 35 141 50 241 60 44 4 1846 7 4005 6 l3925 -1 75 -21z
M5147 7770 c-50 -15 -130 -61 -200 -116 -303 -235 -757 -685 -973 -964 -234
-304 -405 -658 -479 -994 -26 -119 -26 -123 -22 -450 l3 -331 37 -132 c174
-625 568 -1162 1332 -1813 277 -236 354 -257 524 -140 68 46 265 215 465 398
597 549 944 1101 1061 1684 22 110 22 631 0 747 -52 271 -191 602 -357 849
-109 163 -245 334 -387 486 -41 44 -93 101 -116 125 -57 62 -350 331 -482 444
-218 186 -314 235 -406 207z m256 -323 c505 -434 770 -713 988 -1040 371 -558
463 -1138 273 -1717 -47 -142 -176 -400 -270 -540 -217 -324 -488 -610 -978
-1031 l-219 -188 -96 82 c-422 359 -752 678 -926 896 -461 577 -625 1141 -504
1735 99 490 410 970 959 1481 153 143 557 495 567 495 2 0 95 -78 206 -173z
M5154 7425 c-23 -7 -61 -26 -85 -42 -159 -110 -647 -582 -803 -778 -264 -330
-431 -663 -496 -990 -41 -203 -38 -526 5 -673 17 -55 91 -173 114 -180 8 -3
11 0 7 7 -10 15 15 14 39 -2 29 -20 119 -47 154 -47 17 0 31 -4 31 -10 0 -5 9
-10 19 -10 11 0 37 -16 58 -36 21 -19 52 -43 68 -52 24 -13 26 -17 13 -20 -28
-6 -21 -37 12 -66 30 -24 114 -56 151 -56 22 0 30 -12 19 -29 -4 -8 -17 -12
-29 -8 -31 8 -35 -10 -7 -28 53 -35 380 -38 434 -4 32 20 27 36 -8 31 -25 -4
-30 -1 -30 17 0 15 6 21 23 21 72 0 169 52 182 98 5 18 2 22 -15 22 -20 0 -19
2 7 24 27 24 28 27 31 139 l4 116 -29 4 c-19 3 -13 4 18 6 40 1 48 5 53 24 7
29 63 117 74 117 5 0 12 -24 16 -52 36 -290 134 -558 260 -716 97 -123 255
-242 318 -242 35 0 78 40 78 73 0 29 -13 41 -110 97 -85 50 -206 166 -262 251
-89 135 -160 316 -193 493 -9 48 -15 89 -13 91 2 2 44 -27 93 -65 l90 -70 452
0 c248 0 458 3 467 6 9 3 16 12 16 20 0 7 28 27 63 43 77 38 94 51 106 82 9
21 10 22 11 4 1 -29 54 59 76 125 23 71 15 323 -16 469 -65 317 -234 651 -486
966 -106 132 -514 544 -672 678 -172 145 -231 175 -308 152z m179 -141 c384
-339 592 -548 769 -775 255 -326 400 -637 453 -974 16 -98 26 -377 14 -389
-10 -11 -237 -54 -369 -70 -251 -32 -766 -49 -903 -30 -55 8 -52 -3 -67 250
-7 125 -8 305 -3 534 l8 345 22 -40 c12 -22 22 -33 23 -25 1 29 20 -13 20 -45
0 -20 3 -26 9 -17 6 10 10 4 14 -18 4 -19 11 -29 18 -25 7 5 10 -1 9 -16 -4
-41 0 -60 9 -54 6 3 13 -15 16 -40 7 -44 18 -57 28 -32 3 6 6 -11 6 -40 1 -49
14 -78 24 -51 2 7 7 -6 11 -29 8 -43 26 -69 26 -37 0 26 17 6 34 -41 16 -43
17 -40 20 48 1 32 -3 69 -10 82 -10 20 -10 23 3 18 12 -5 12 0 -2 33 -9 22
-19 45 -22 52 -3 8 0 10 11 6 23 -9 20 4 -10 43 -16 21 -20 33 -12 33 7 0 -4
16 -24 35 -44 41 -46 45 -15 45 l22 1 -21 17 c-11 9 -31 25 -45 35 l-24 18 25
-7 c23 -6 21 -3 -15 35 -44 47 -37 53 18 16 l37 -26 0 33 0 32 35 -34 c35 -34
35 -34 35 -9 0 23 3 22 40 -18 39 -41 40 -42 40 -16 l0 27 30 -29 c20 -19 30
-24 30 -14 1 8 9 -2 19 -21 l19 -35 4 30 3 30 27 -45 c22 -37 27 -41 28 -22 0
33 18 17 26 -23 8 -42 21 -46 26 -7 3 23 6 20 23 -28 11 -32 21 -48 23 -37 6
28 18 20 32 -24 10 -29 16 -36 20 -25 4 13 11 8 28 -23 33 -59 46 -53 38 17
-20 174 -191 336 -412 389 -67 16 -93 27 -83 38 3 2 20 0 38 -5 30 -8 31 -8
19 7 -11 15 -11 16 7 9 11 -5 31 -11 45 -13 l25 -5 -25 21 c-29 24 -17 27 20
6 34 -19 39 -18 33 6 -6 21 -5 21 27 4 32 -17 33 -17 27 4 -7 26 -2 26 36 -1
l30 -22 -5 22 c-6 22 6 30 17 12 3 -5 14 -14 25 -20 15 -8 17 -7 12 12 -5 21
-4 21 19 5 27 -20 43 -22 33 -5 -4 6 10 1 30 -12 38 -23 38 -23 31 -2 -8 28
-3 28 51 -4 24 -14 44 -21 44 -16 0 17 -80 83 -126 102 -103 45 -277 62 -384
39 -28 -6 -53 -9 -55 -7 -3 2 13 15 34 29 33 20 36 25 23 35 -13 10 -8 13 27
19 41 7 42 8 25 26 -17 18 -16 19 29 19 26 0 47 5 47 10 0 6 9 10 20 10 26 0
25 7 -2 32 l-23 19 36 -6 c20 -3 44 -3 53 1 15 6 15 7 -1 19 -15 11 -12 13 25
20 43 7 55 21 25 27 -14 3 -10 9 17 23 l35 20 -31 3 c-42 4 -149 -21 -215 -51
-73 -32 -148 -91 -201 -156 l-43 -53 -9 73 c-8 67 -10 71 -23 53 -13 -17 -14
-13 -8 39 5 37 4 57 -3 57 -6 0 -12 -6 -15 -12 -2 -7 -7 14 -11 47 -7 52 -10
57 -21 42 -14 -20 -14 -20 -31 76 -6 38 -23 51 -25 20 0 -15 -2 -15 -9 2 -4
11 -14 40 -21 65 -12 43 -13 44 -18 16 l-6 -29 -19 39 c-14 27 -21 34 -23 22
-3 -13 -12 -8 -40 23 -41 45 -52 45 -28 0 9 -18 13 -36 10 -41 -4 -6 3 -23 14
-39 25 -35 26 -41 4 -41 -12 0 -6 -11 22 -40 31 -32 35 -40 20 -40 -16 0 -15
-4 10 -30 16 -17 23 -30 16 -30 -9 0 -4 -12 12 -33 l26 -34 -27 5 c-26 4 -26
4 13 -37 l39 -41 -29 0 -29 0 39 -40 c36 -37 37 -40 16 -40 -22 0 -22 -1 9
-40 31 -40 31 -40 8 -40 -17 0 -36 17 -70 64 -77 103 -234 208 -334 222 l-39
6 44 -30 c34 -24 40 -31 25 -34 -16 -3 -14 -7 13 -22 17 -11 29 -25 26 -32 -3
-8 9 -20 31 -31 20 -9 31 -20 26 -23 -6 -4 8 -19 32 -35 34 -23 39 -29 25 -34
-15 -5 -12 -10 14 -25 21 -12 27 -21 19 -26 -7 -5 2 -15 27 -30 30 -18 35 -24
21 -29 -14 -5 -11 -10 17 -30 36 -25 48 -49 18 -36 -262 112 -507 91 -713 -60
-44 -32 -130 -118 -130 -130 0 -3 27 8 60 25 33 16 61 30 64 30 2 0 2 -10 -2
-22 -5 -20 -1 -19 38 12 39 31 43 32 38 12 -8 -29 -4 -28 52 13 43 32 48 33
43 14 -6 -21 -3 -20 40 9 54 37 62 39 47 11 -11 -19 -10 -20 12 -8 13 7 41 23
62 37 39 24 39 24 33 2 -4 -17 -2 -20 11 -14 9 4 32 9 50 12 24 3 31 1 27 -9
-4 -11 6 -13 47 -12 l53 3 -55 -26 c-80 -38 -170 -105 -234 -176 -61 -67 -116
-166 -116 -207 0 -25 2 -24 40 19 37 42 39 44 40 20 0 -20 5 -15 22 25 20 45
23 47 28 25 6 -23 9 -20 35 30 29 55 29 55 35 25 l5 -30 30 50 c28 48 30 49
35 23 5 -27 5 -26 35 18 35 51 44 55 38 17 -4 -25 0 -23 47 27 47 50 51 53 47
28 -2 -16 -3 -28 -1 -28 3 0 23 14 46 30 22 17 45 30 49 30 5 0 -14 -28 -42
-62 -40 -50 -47 -64 -33 -67 9 -1 13 -6 8 -10 -5 -3 -20 -19 -34 -35 -19 -22
-21 -28 -7 -23 23 8 22 2 -7 -36 -39 -53 -41 -60 -18 -53 19 6 18 2 -9 -49
-29 -51 -29 -71 -1 -43 16 16 15 -2 -1 -27 -7 -11 -19 -33 -26 -50 l-13 -30
21 19 c23 21 25 16 11 -32 -8 -29 -7 -32 5 -22 13 11 15 5 15 -39 0 -32 4 -50
10 -46 6 3 10 17 10 29 0 13 7 29 15 36 8 7 15 28 15 47 0 31 2 34 16 22 14
-12 15 -8 9 36 -7 43 -6 47 9 42 15 -6 16 -2 10 30 -5 26 -4 34 5 29 7 -5 11
5 11 31 1 31 3 35 11 21 17 -30 24 -20 20 29 -3 43 -2 46 13 34 14 -12 16 -8
16 35 1 45 2 48 15 30 14 -18 15 -16 15 28 0 39 3 47 15 42 10 -4 20 5 29 29
8 19 20 35 27 35 8 0 10 -29 5 -112 -26 -443 -31 -726 -17 -903 4 -49 5 -93 2
-96 -3 -4 -43 -1 -89 5 -46 7 -84 10 -86 7 -2 -3 -9 -24 -16 -46 -7 -22 -21
-64 -32 -92 l-19 -53 -49 0 -48 0 -10 43 c-6 24 -24 61 -40 83 -22 29 -32 58
-37 102 -8 73 -25 83 -25 15 l0 -46 -30 41 c-44 62 -80 77 -149 63 -62 -13
-146 -60 -174 -97 -26 -34 -23 -78 7 -146 l26 -58 -269 0 -269 0 -19 98 c-28
151 -26 468 5 621 65 321 223 638 478 956 117 146 454 483 683 684 102 88 186
161 188 161 2 0 63 -52 136 -116z m-27 -870 c71 -34 87 -108 35 -166 -36 -40
-51 -31 -26 16 18 33 18 35 1 61 -16 24 -23 27 -57 22 -26 -3 -42 0 -50 9 -15
19 -63 18 -79 -1 -15 -18 -16 -63 -3 -76 11 -11 -5 -59 -19 -59 -4 0 -14 14
-23 30 -14 26 -14 33 -1 58 28 53 120 122 164 122 13 0 39 -7 58 -16z m-788
-1301 c83 -40 221 -182 299 -308 68 -110 120 -212 112 -219 -3 -3 -47 0 -99 6
-72 9 -135 9 -277 -1 -102 -7 -186 -11 -189 -8 -2 2 10 35 27 72 48 106 69
204 69 319 0 56 -4 116 -9 134 -12 40 -6 40 67 5z m2049 -35 c-2 -13 -4 -5 -4
17 -1 22 1 32 4 23 2 -10 2 -28 0 -40z m-1787 -639 c0 -18 -9 -19 -140 -19
-131 0 -140 1 -140 19 0 17 9 19 140 19 131 0 140 -2 140 -19z M4295 5537
c-51 -51 -69 -143 -44 -232 15 -55 77 -115 118 -115 36 0 86 23 94 42 3 7 6 3
6 -9 1 -18 7 -23 27 -23 22 0 25 3 20 23 -3 12 -6 57 -6 100 l0 77 -61 0 -60
0 3 -32 c2 -28 8 -34 31 -36 55 -7 19 -72 -41 -72 -56 0 -90 70 -77 157 13 87
80 120 128 63 16 -19 35 -30 51 -30 30 0 32 10 11 54 -20 43 -63 66 -120 66
-40 0 -52 -5 -80 -33z M4780 5423 c0 -130 2 -152 20 -181 11 -18 32 -37 48
-43 43 -17 110 -5 141 25 26 26 26 29 29 186 l3 160 -30 0 -31 0 0 -138 c0
-95 -4 -143 -12 -154 -21 -27 -53 -30 -79 -9 -23 19 -24 24 -24 160 l0 141
-32 0 -33 0 0 -147z M5395 5393 c-26 -98 -50 -184 -53 -191 -3 -10 4 -13 29
-10 30 3 35 7 43 41 l10 38 60 -3 60 -3 9 -37 c8 -35 12 -38 42 -38 l33 0 -20
73 c-12 39 -35 124 -53 187 l-32 115 -39 3 -40 3 -49 -178z m125 -50 c0 -8
-14 -13 -40 -13 -22 0 -40 2 -40 4 0 1 4 16 10 32 5 16 14 49 21 74 l12 45 18
-65 c10 -36 18 -71 19 -77z M5850 5381 l0 -191 35 0 34 0 3 128 3 127 25 -127
25 -128 32 0 c37 0 33 -8 65 155 l23 120 3 -137 3 -138 29 0 30 0 0 190 0 190
-48 0 -49 0 -22 -127 c-13 -71 -27 -134 -30 -141 -4 -7 -19 49 -32 125 l-25
138 -52 3 -52 3 0 -190z M6137 4594 c-66 -14 -328 -104 -378 -130 -50 -25
-124 -132 -105 -151 18 -19 175 20 329 80 89 35 192 72 229 81 81 19 168 22
168 4 0 -20 -120 -217 -199 -327 -116 -163 -223 -285 -430 -491 -156 -156
-525 -492 -552 -503 -3 -1 -92 75 -198 168 -106 94 -200 176 -209 182 -24 20
-1 56 67 107 75 55 148 80 323 111 76 13 155 29 176 35 93 24 147 91 138 168
-16 128 -144 234 -300 249 -37 3 -69 10 -72 15 -16 26 106 93 190 104 l49 7
-39 20 c-22 11 -67 22 -104 25 -63 4 -67 3 -110 -32 -81 -65 -95 -69 -244 -56
-175 15 -408 47 -476 65 -57 15 -138 19 -177 9 -13 -4 -32 -21 -43 -40 -13
-21 -26 -31 -36 -27 -11 4 -14 -4 -14 -33 0 -74 88 -220 209 -348 75 -79 119
-112 186 -141 50 -23 55 -23 46 -6 -10 18 -7 18 57 13 37 -2 80 -11 95 -19 28
-14 28 -16 25 -88 l-3 -74 -22 15 -23 14 25 -56 c13 -30 38 -72 54 -92 66 -84
270 -265 340 -302 107 -56 169 -27 426 201 481 427 858 895 882 1096 7 61 -2
96 -18 73 -8 -12 -12 -12 -16 -2 -13 32 -58 72 -91 82 -47 13 -71 12 -155 -6z
m-1836 -359 c398 -42 623 -104 772 -212 73 -54 63 -66 -58 -68 -150 -4 -382
-58 -498 -117 -22 -11 -40 -18 -41 -16 -1 2 -29 35 -62 73 -126 145 -283 355
-266 355 6 0 74 -7 153 -15z"/>
</g>
</svg>
