<?xml version="1.0" standalone="no"?>
<!DOCTYPE svg PUBLIC "-//W3C//DTD SVG 20010904//EN"
 "http://www.w3.org/TR/2001/REC-SVG-20010904/DTD/svg10.dtd">
<svg version="1.0" xmlns="http://www.w3.org/2000/svg"
 width="2048.000000pt" height="2048.000000pt" viewBox="0 0 2048.000000 2048.000000"
 preserveAspectRatio="xMidYMid meet">
<metadata>
Created by potrace 1.13, written by Peter Selinger 2001-2015
</metadata>
<g transform="translate(0.000000,2048.000000) scale(0.192120,-0.192120)"
fill="#000000" stroke="none">
<path d="M1276 8929 c-149 -22 -327 -92 -457 -179 -87 -59 -229 -199 -288
-284 -84 -122 -140 -251 -178 -405 -14 -56 -17 -159 -20 -703 l-4 -638 5001 0
5001 0 -4 638 c-3 544 -6 647 -20 702 -57 229 -148 395 -303 551 -138 140
-316 243 -511 297 l-98 27 -4030 1 c-2230 1 -4056 -2 -4089 -7z m8153 -263
c170 -41 333 -129 446 -241 77 -76 105 -115 163 -229 l37 -71 3 -591 3 -592
-2328 -5 c-1307 -3 -2349 -10 -2375 -15 -29 -5 -67 -5 -95 0 -28 5 -1048 12
-2386 15 l-2338 5 3 577 3 576 25 55 c44 100 91 172 161 245 148 155 337 252
555 284 33 5 1839 8 4054 7 3815 -1 3998 -2 4069 -20z M5260 6365 c-35 -190
-66 -345 -69 -345 -3 1 -38 51 -77 113 -190 297 -309 476 -312 468 -2 -5 29
-159 68 -342 39 -182 69 -335 68 -339 -2 -4 -133 82 -292 191 -159 110 -291
198 -293 195 -2 -2 40 -69 95 -147 258 -374 300 -434 297 -437 -2 -2 -155 28
-340 68 -186 39 -342 69 -348 67 -6 -2 5 -12 24 -23 27 -16 542 -349 558 -361
2 -2 2 -5 0 -7 -3 -3 -364 -71 -621 -117 -38 -7 -68 -15 -68 -19 0 -4 30 -12
68 -19 257 -46 618 -114 621 -117 2 -2 2 -5 0 -7 -16 -13 -549 -357 -569 -367
-51 -29 11 -19 334 50 181 38 333 70 338 70 8 0 -27 -52 -270 -404 -68 -98
-121 -180 -119 -182 2 -3 134 85 293 195 159 109 290 195 292 191 1 -3 -29
-156 -68 -339 -39 -183 -70 -337 -68 -342 3 -8 122 170 312 468 39 62 74 112
77 113 4 0 12 -28 18 -62 39 -225 116 -628 121 -628 5 0 82 403 121 628 6 34
14 62 18 61 3 0 35 -46 71 -102 164 -259 320 -491 320 -478 0 8 -31 162 -70
343 -38 181 -70 333 -70 339 0 9 86 -48 419 -279 90 -62 165 -111 168 -108 2
2 -51 84 -119 182 -249 360 -278 404 -267 404 6 0 160 -32 341 -71 181 -38
334 -69 339 -67 9 3 -194 138 -468 312 -62 39 -112 74 -113 77 0 3 157 34 350
70 192 35 350 66 350 69 0 3 -158 34 -350 69 -193 36 -350 67 -350 70 1 3 51
38 113 77 274 174 477 309 468 312 -5 2 -159 -29 -341 -68 -183 -39 -336 -70
-340 -68 -4 2 82 133 191 292 110 159 198 291 195 293 -2 3 -78 -47 -168 -109
-310 -217 -418 -288 -418 -279 0 6 32 159 71 341 38 183 69 336 67 341 -2 5
-88 -124 -193 -286 -104 -161 -193 -294 -196 -294 -3 -1 -34 154 -69 344 -36
190 -67 345 -70 345 -3 0 -34 -155 -70 -345z m109 -222 c18 -93 35 -180 38
-195 l6 -28 -83 0 -82 0 5 28 c3 15 20 102 38 195 19 92 36 167 39 167 3 0 20
-75 39 -167z m306 -85 c-20 -100 -38 -191 -41 -200 -4 -15 -10 -14 -57 6 -29
13 -62 27 -74 32 -22 9 -18 16 90 180 61 94 113 170 115 168 2 -1 -13 -85 -33
-186z m-601 7 c102 -154 105 -160 83 -169 -12 -5 -46 -19 -74 -32 l-53 -23 -5
22 c-8 33 -75 370 -75 376 0 11 22 -20 124 -174z m-111 -255 c4 -3 -18 -32
-50 -63 -31 -32 -60 -54 -63 -50 -4 5 -58 84 -119 176 l-112 168 168 -112 c92
-61 171 -115 176 -119z m966 63 c-61 -93 -115 -171 -119 -176 -3 -4 -32 18
-63 49 -32 32 -55 59 -52 62 5 6 338 230 343 231 1 1 -48 -74 -109 -166z
m-480 -38 c276 -66 451 -348 386 -624 -44 -187 -199 -342 -386 -386 -373 -88
-712 251 -624 624 66 276 348 451 624 386z m-846 -160 c95 -19 182 -37 194
-40 l22 -5 -23 -53 c-13 -28 -27 -62 -32 -74 -9 -22 -16 -18 -182 92 -95 63
-168 115 -162 115 6 0 89 -16 183 -35z m1480 -80 c-95 -63 -175 -115 -177
-115 -2 0 -10 17 -17 38 -6 20 -20 54 -31 75 -10 20 -17 37 -16 37 2 1 86 18
188 39 102 22 194 39 205 40 11 1 -58 -51 -152 -114z m-1343 -266 l0 -81 -27
5 c-16 3 -103 20 -195 38 -93 19 -168 36 -168 39 0 5 336 77 373 79 15 1 17
-9 17 -80z m1403 40 c92 -19 167 -36 167 -39 0 -5 -373 -82 -390 -80 -3 0 -4
36 -2 81 l4 81 26 -5 c15 -3 102 -20 195 -38z m-1347 -286 l23 -53 -22 -5
c-48 -11 -371 -75 -381 -75 -5 0 69 52 165 115 167 110 174 113 183 92 5 -12
19 -46 32 -74z m1293 -25 c90 -59 160 -108 154 -108 -9 0 -334 64 -381 75
l-22 5 19 38 c10 20 24 54 30 75 8 24 17 35 24 30 7 -4 86 -55 176 -115z
m-1175 -145 c31 -31 53 -60 49 -63 -5 -4 -83 -58 -176 -119 l-167 -112 116
176 c65 96 118 175 119 175 1 0 27 -26 59 -57z m1010 -118 l116 -176 -167 112
c-93 61 -172 115 -176 119 -7 6 88 115 104 119 3 0 58 -78 123 -174z m-767
-31 c21 -9 17 -16 -92 -184 -63 -96 -115 -169 -115 -164 0 10 64 333 75 381
l5 22 53 -23 c28 -13 62 -27 74 -32z m518 -159 c19 -99 35 -184 35 -189 0 -4
-52 69 -115 164 -63 95 -115 174 -115 175 0 2 21 11 48 20 26 8 58 22 72 30
33 18 31 22 75 -200z m-268 108 c-3 -16 -20 -103 -38 -195 -19 -93 -36 -168
-39 -168 -3 0 -20 75 -39 168 -18 92 -35 179 -38 195 l-5 27 82 0 83 0 -6 -27z
M5447 5466 c-55 -20 -68 -35 -65 -70 4 -45 69 -76 158 -76 147 1 218 84 117
137 -43 22 -161 27 -210 9z M5025 5459 c-38 -11 -75 -44 -75 -68 0 -42 67 -73
160 -73 73 0 145 24 161 53 35 66 -125 124 -246 88z M5244 5140 c-38 -12 -68
-44 -60 -65 17 -46 201 -63 264 -25 70 43 19 91 -103 96 -38 2 -84 -1 -101 -6z
M10302 6576 c-12 -24 -22 -51 -22 -60 0 -9 -4 -16 -10 -16 -7 0 -10 -400 -10
-1180 0 -668 4 -1180 9 -1180 5 0 11 -12 15 -27 3 -16 15 -39 26 -53 l20 -25
0 1293 c0 710 -1 1292 -3 1292 -2 0 -13 -20 -25 -44z M330 5328 c1 -1117 2
-1280 15 -1263 8 11 19 25 25 32 5 7 10 19 10 28 0 8 5 15 10 15 7 0 10 400
10 1180 0 780 -3 1180 -10 1180 -5 0 -10 6 -10 13 0 15 -38 97 -45 97 -3 0 -5
-577 -5 -1282z M333 3303 c3 -545 6 -648 20 -704 38 -154 94 -283 178 -405 59
-85 201 -225 288 -284 92 -62 236 -127 348 -158 l98 -27 4065 0 4065 0 98 27
c112 31 256 96 348 158 35 24 103 82 152 129 161 157 256 325 314 561 14 55
17 158 20 703 l4 637 -5001 0 -5001 0 4 -637z m7454 407 l2293 0 0 -563 c0
-616 2 -595 -60 -717 -133 -263 -379 -430 -690 -470 -60 -8 -1240 -10 -4060
-8 -3763 3 -3978 4 -4040 21 -325 88 -553 287 -645 563 l-25 73 2 548 3 548
2345 6 c1290 3 2399 4 2464 2 66 -2 1151 -3 2413 -3z"/>
</g>
</svg>
