<?xml version="1.0" standalone="no"?>
<!DOCTYPE svg PUBLIC "-//W3C//DTD SVG 20010904//EN"
 "http://www.w3.org/TR/2001/REC-SVG-20010904/DTD/svg10.dtd">
<svg version="1.0" xmlns="http://www.w3.org/2000/svg"
 width="2048.000000pt" height="2048.000000pt" viewBox="0 0 2048.000000 2048.000000"
 preserveAspectRatio="xMidYMid meet">
<metadata>
Created by potrace 1.13, written by Peter Selinger 2001-2015
</metadata>
<g transform="translate(0.000000,2048.000000) scale(0.192120,-0.192120)"
fill="#000000" stroke="none">
<path d="M2358 8943 c34 -2 90 -2 125 0 34 2 6 3 -63 3 -69 0 -97 -1 -62 -3z
M2550 8248 l0 -698 -1110 0 -1110 0 0 -415 0 -415 1110 0 1110 0 0 -664 c0
-365 3 -678 6 -695 l7 -31 -148 0 -148 0 5 355 c3 195 3 355 1 355 -3 0 -109
-74 -236 -163 -128 -90 -355 -250 -505 -355 l-274 -192 -276 1 -277 1 100 34
c111 38 153 39 192 2 23 -22 24 -22 56 -5 18 10 264 180 547 378 283 199 552
386 598 417 l82 55 0 114 0 113 -83 0 c-76 0 -87 -3 -123 -29 -21 -16 -376
-265 -789 -555 l-750 -526 -102 0 -103 0 0 -1287 c0 -800 4 -1315 10 -1358 25
-175 96 -357 193 -494 62 -88 186 -211 274 -272 99 -68 242 -134 360 -167 l98
-27 4065 0 4065 0 98 27 c422 117 734 449 818 873 21 105 21 5305 0 5410 -71
355 -298 646 -626 801 -52 25 -138 57 -192 72 l-98 27 -2098 3 -2098 2 -82
-59 c-171 -122 -1433 -1004 -1444 -1008 -7 -3 -13 -14 -13 -24 0 -18 11 -19
220 -19 l220 0 703 492 c386 270 726 509 755 530 l52 39 -1 -258 0 -258 -107
-74 c-59 -40 -234 -162 -390 -270 l-282 -196 390 -3 390 -2 0 -695 0 -695
-392 -2 -391 -3 59 -39 c32 -21 209 -143 391 -270 l333 -231 0 -282 0 -283
-325 0 -325 0 -553 387 c-303 213 -590 414 -637 448 -47 34 -91 65 -98 69 -11
6 -12 -77 -10 -448 l3 -456 -140 0 -140 0 0 695 0 695 1108 0 1107 0 0 32 c0
26 -11 43 -62 93 -35 33 -76 67 -93 75 -16 8 -33 19 -36 23 -3 4 -439 6 -970
5 -739 -3 -973 -7 -1001 -16 -67 -23 -232 -171 -244 -219 -4 -12 -10 -23 -15
-23 -5 0 -9 -249 -9 -585 0 -383 3 -585 10 -585 6 0 10 -7 10 -17 0 -22 43
-80 99 -130 l46 -43 -367 0 -368 0 47 43 c49 45 93 107 93 132 0 8 5 15 10 15
7 0 10 202 10 585 0 336 -4 585 -9 585 -5 0 -12 11 -15 25 -8 33 -104 134
-168 178 -38 26 -71 39 -118 47 -41 6 -381 10 -917 10 -752 0 -853 2 -853 15
0 11 -11 15 -40 15 l-40 0 0 145 0 145 40 0 c33 0 40 3 40 20 0 20 7 20 848
20 513 0 874 4 917 10 48 7 84 20 117 41 60 39 154 141 170 186 7 18 16 33 20
33 4 0 8 15 8 34 0 19 5 38 10 41 6 4 10 183 10 506 0 437 2 499 15 499 8 0
15 9 15 20 0 19 7 20 145 20 138 0 145 -1 145 -20 0 -13 7 -20 20 -20 20 0 20
-7 20 -499 0 -434 2 -500 15 -505 9 -3 15 -19 15 -41 0 -19 5 -35 10 -35 6 0
10 -6 10 -14 0 -32 130 -172 195 -211 24 -14 70 -29 110 -35 43 -6 428 -10
993 -10 813 0 922 2 922 15 0 8 9 15 20 15 11 0 20 4 20 9 0 5 10 12 23 16 12
3 46 33 75 66 38 43 52 67 52 89 l0 30 -1112 0 -1111 0 6 98 c4 53 7 366 7
694 l0 597 123 3 c67 2 -122 3 -420 3 l-543 0 0 -697z m5424 386 c22 -9 20
-20 -11 -55 -35 -39 -95 -74 -153 -89 -72 -19 -120 -48 -188 -114 -100 -95
-115 -128 -120 -259 -5 -106 -7 -114 -43 -181 -21 -39 -39 -83 -39 -97 0 -59
59 -152 155 -244 28 -27 57 -63 63 -78 34 -82 186 -239 248 -256 26 -7 49 -6
87 5 122 35 123 35 189 15 35 -10 74 -21 87 -24 61 -15 177 76 259 202 23 36
42 69 42 73 0 4 34 41 76 81 80 75 134 164 134 218 0 33 -23 89 -58 141 -23
36 -27 53 -32 157 -3 70 -11 126 -19 141 -57 101 -155 181 -265 214 -66 21
-94 36 -135 72 -56 50 -63 71 -28 79 13 4 273 4 578 2 601 -4 610 -5 757 -63
208 -83 372 -238 448 -424 l24 -60 -2 -444 -3 -445 -70 64 c-73 67 -104 84
-195 109 -32 9 -94 41 -149 78 -121 81 -139 81 -241 12 -93 -63 -122 -78 -185
-93 -66 -16 -130 -58 -199 -131 -80 -84 -96 -123 -96 -243 0 -95 -1 -99 -40
-168 -26 -46 -40 -83 -40 -106 0 -52 53 -137 137 -221 40 -40 73 -77 73 -83 0
-19 85 -131 141 -187 30 -29 74 -62 98 -74 l44 -21 73 21 c92 27 126 27 217 1
71 -21 74 -21 110 -4 21 10 59 37 85 60 48 44 152 184 153 207 0 7 19 28 42
47 l42 33 3 -1953 c2 -1953 2 -1954 -19 -2019 -42 -134 -161 -290 -282 -372
-83 -57 -191 -104 -294 -131 l-88 -22 -4020 0 -4020 0 -96 26 c-237 66 -414
199 -520 391 -85 153 -79 43 -79 1420 l0 1225 58 16 c156 43 228 43 367 -1 98
-31 197 -34 272 -9 70 25 172 88 410 255 200 140 266 182 290 182 9 0 13 -18
13 -60 0 -33 4 -60 10 -60 6 0 10 -13 10 -30 0 -16 4 -30 9 -30 5 0 12 -11 15
-25 13 -53 165 -207 233 -237 75 -34 186 -30 285 10 109 44 215 56 448 50
l195 -5 110 -39 c134 -47 228 -52 309 -16 61 27 172 139 206 207 14 28 28 52
33 53 4 2 7 19 7 38 0 19 5 34 10 34 6 0 10 58 10 155 0 143 1 155 18 152 27
-4 68 -31 462 -307 201 -140 397 -272 436 -292 116 -61 159 -68 414 -68 250 0
315 10 381 56 98 68 195 209 191 279 -13 233 -13 338 2 382 9 26 16 65 16 88
0 52 -46 150 -110 230 -87 112 -88 123 -19 190 28 28 62 70 77 95 14 25 31 48
37 52 6 4 11 66 13 153 3 120 1 151 -12 170 -14 21 -16 75 -16 404 0 295 3
380 13 384 9 3 12 44 12 163 0 144 -2 161 -20 183 -11 13 -50 58 -87 100 -82
92 -85 113 -30 174 74 82 141 199 142 249 0 15 5 30 10 33 6 3 10 52 10 111
l0 104 1054 0 c580 0 1061 -3 1070 -6z m181 -345 c26 -68 48 -125 50 -127 1
-2 66 17 142 42 77 25 142 46 146 46 3 0 -27 -56 -68 -124 -41 -68 -75 -128
-75 -134 0 -5 54 -45 120 -88 66 -44 120 -82 120 -85 0 -7 -102 -24 -211 -35
-37 -4 -71 -9 -77 -13 -6 -4 -5 -56 4 -150 7 -80 11 -147 8 -150 -2 -3 -51 41
-107 97 -56 56 -106 102 -111 102 -4 0 -56 -46 -115 -102 -82 -79 -107 -97
-109 -82 -1 10 4 78 11 151 l13 132 -25 5 c-14 3 -80 13 -146 22 -123 16 -137
20 -119 32 112 72 234 157 234 163 0 4 -33 63 -74 131 -41 68 -73 125 -71 127
2 1 67 -18 145 -44 78 -26 142 -45 144 -44 1 2 24 63 51 134 26 72 50 134 53
139 7 12 16 -6 67 -145z m1385 -1099 c29 -77 56 -140 59 -140 4 0 67 20 141
45 73 25 136 43 138 40 3 -2 -29 -62 -71 -132 l-76 -127 125 -84 c69 -46 124
-85 122 -87 -2 -3 -69 -13 -148 -25 -79 -11 -144 -21 -146 -23 -2 -1 3 -67 11
-147 8 -80 12 -147 9 -149 -2 -3 -39 29 -82 70 -42 41 -91 87 -109 103 l-32
29 -107 -102 c-58 -56 -108 -100 -111 -97 -3 3 0 68 7 146 7 77 10 143 7 146
-3 3 -68 15 -144 25 -76 11 -142 21 -147 22 -5 2 48 40 118 86 69 45 126 86
126 89 0 4 -34 63 -75 132 -41 68 -73 126 -71 128 2 2 68 -18 146 -43 78 -26
143 -45 144 -43 1 2 24 62 51 133 49 132 54 145 59 145 2 0 27 -63 56 -140z
M6926 6943 c-16 -8 -57 -35 -92 -58 -39 -27 -95 -53 -148 -69 -73 -23 -93 -34
-153 -88 -37 -33 -84 -83 -103 -110 -34 -48 -35 -52 -39 -161 -3 -108 -5 -115
-42 -183 -23 -42 -39 -84 -39 -104 0 -56 39 -120 127 -210 46 -46 83 -88 83
-92 0 -15 69 -114 114 -165 98 -109 165 -133 266 -93 28 11 63 20 79 20 15 0
54 -9 86 -20 87 -30 125 -27 179 15 26 19 60 50 76 68 31 33 120 162 120 173
0 3 33 38 73 78 39 40 78 80 85 89 21 28 52 107 52 133 0 29 -33 105 -64 149
-18 26 -21 45 -22 135 -1 92 -4 111 -27 156 -26 51 -126 152 -176 179 -15 7
-50 19 -77 26 -60 15 -119 45 -202 104 -69 49 -106 56 -156 28z m119 -324 c47
-126 47 -127 74 -118 149 49 254 80 258 76 4 -5 -114 -211 -139 -244 -7 -8 27
-36 116 -95 69 -46 126 -86 126 -89 0 -3 -65 -14 -145 -24 -80 -10 -148 -21
-150 -25 -2 -4 2 -71 10 -150 8 -79 13 -145 12 -147 -2 -1 -53 44 -113 101
l-110 104 -114 -106 -113 -107 6 70 c4 39 10 109 13 156 l7 86 -147 18 c-80
10 -146 21 -146 25 0 4 54 43 120 86 66 44 120 82 120 86 0 4 -33 62 -74 130
-41 68 -69 124 -62 126 6 1 71 -18 143 -42 73 -25 135 -41 137 -38 2 4 25 63
50 131 26 68 49 128 53 133 8 15 17 -2 68 -143z M8855 6054 c-174 -92 -365
-295 -365 -386 0 -13 11 -59 25 -102 14 -43 25 -86 25 -96 0 -38 67 -147 132
-216 95 -100 127 -114 259 -114 149 0 170 8 261 100 61 61 86 94 113 154 19
43 35 87 35 99 0 12 9 49 20 81 41 122 23 170 -120 316 -67 69 -118 111 -175
144 -95 55 -137 59 -210 20z m130 -253 c42 -87 34 -82 158 -97 31 -3 57 -10
57 -14 0 -5 -29 -35 -64 -67 l-65 -58 19 -90 c10 -49 17 -91 16 -93 -2 -1 -39
18 -83 43 l-81 45 -78 -44 c-57 -31 -80 -40 -82 -30 -2 8 4 49 13 91 l16 78
-68 62 c-37 34 -65 64 -62 67 2 3 36 8 74 12 103 10 107 13 145 98 18 42 36
76 39 76 4 0 24 -36 46 -79z M2765 4438 c-22 -11 -89 -70 -149 -129 -65 -65
-117 -109 -130 -110 -11 -1 -62 0 -112 1 -112 2 -142 -11 -236 -103 -109 -106
-128 -167 -87 -283 51 -149 49 -164 -38 -264 -65 -74 -123 -176 -123 -216 0
-38 53 -127 116 -194 65 -68 127 -109 202 -131 l42 -12 0 -53 c0 -29 5 -56 10
-59 6 -3 10 -13 10 -21 0 -37 60 -133 125 -200 110 -112 148 -115 311 -18 117
70 135 70 245 3 139 -85 179 -91 254 -39 50 34 132 131 141 168 4 12 10 22 14
22 4 0 11 17 15 38 4 20 11 42 15 47 5 6 10 32 12 59 l3 48 61 22 c85 31 124
57 190 129 59 64 104 148 104 195 0 44 -43 123 -110 202 -91 109 -94 114 -86
162 4 23 10 47 15 53 17 21 41 116 41 159 0 28 -8 60 -22 83 -29 53 -124 149
-176 180 -42 25 -48 26 -149 20 -128 -7 -137 -4 -217 91 -92 109 -176 173
-228 172 -13 -1 -41 -10 -63 -22z m152 -380 c45 -117 85 -212 90 -212 4 1 102
32 217 68 114 37 210 65 213 62 3 -3 -8 -27 -24 -53 -17 -26 -63 -104 -103
-173 -40 -69 -80 -135 -87 -147 -14 -20 -7 -26 176 -150 105 -70 190 -130 191
-133 0 -3 -91 -18 -202 -34 -112 -15 -214 -30 -228 -33 l-26 -5 18 -206 c10
-114 17 -217 15 -230 -2 -19 -27 1 -167 132 -91 86 -168 154 -171 153 -4 -1
-80 -71 -170 -155 -141 -131 -164 -150 -167 -130 -1 13 6 115 16 228 10 113
18 206 16 208 -1 2 -104 17 -228 35 -124 17 -226 34 -226 37 1 3 301 207 378
256 2 1 -49 91 -112 200 -64 108 -115 199 -112 201 2 3 101 -27 220 -65 119
-38 218 -67 220 -63 1 3 38 99 81 214 44 114 82 207 85 207 3 0 43 -96 87
-212z M8039 3611 c-19 -11 -62 -38 -94 -60 -36 -26 -91 -51 -142 -67 -88 -27
-145 -64 -220 -146 -66 -73 -76 -99 -81 -222 -4 -104 -7 -113 -43 -180 -42
-77 -47 -106 -25 -158 21 -50 97 -148 145 -186 23 -18 48 -48 55 -67 38 -91
188 -247 255 -265 31 -8 52 -6 121 15 82 25 85 25 140 9 118 -35 121 -35 177
-8 29 14 72 48 99 77 46 52 124 164 124 179 0 4 34 41 76 80 83 79 134 164
134 222 0 19 -12 57 -26 83 -66 119 -64 113 -64 216 0 119 -15 155 -103 241
-62 60 -132 99 -201 112 -22 4 -74 30 -118 60 -135 92 -150 97 -209 65z m116
-322 c26 -68 48 -125 50 -127 1 -2 66 17 142 42 77 25 142 46 146 46 3 0 -27
-56 -68 -124 -41 -68 -75 -128 -75 -134 0 -6 53 -45 118 -88 64 -43 119 -79
121 -81 11 -8 -16 -14 -148 -32 -78 -10 -144 -20 -145 -22 -2 -2 2 -69 10
-148 7 -80 11 -147 8 -150 -2 -3 -51 41 -107 97 -56 56 -106 102 -111 102 -5
0 -56 -46 -115 -102 -84 -82 -107 -99 -109 -83 -1 11 4 79 11 152 l13 132 -25
5 c-14 3 -80 13 -146 21 -122 17 -138 21 -119 33 112 72 234 157 234 163 0 4
-33 63 -74 131 -41 68 -73 125 -71 127 2 1 67 -18 145 -44 78 -26 142 -45 144
-44 1 2 24 63 51 134 26 72 50 134 53 139 7 12 16 -6 67 -145z M4288 8943
l-628 -3 0 -456 0 -456 53 38 c68 49 1092 766 1177 825 57 39 73 45 135 50 69
6 68 6 -20 5 -49 0 -372 -2 -717 -3z m-290 -324 c4 -19 -23 -49 -44 -49 -9 0
-14 11 -14 36 0 33 2 35 27 32 16 -2 29 -10 31 -19z M1282 8933 c-8 -3 7 -19
40 -41 75 -50 442 -306 715 -499 127 -89 233 -163 235 -163 2 0 3 160 3 355
l0 355 -490 -1 c-269 0 -496 -3 -503 -6z M1090 8881 c-30 -10 -68 -25 -85 -35
l-30 -17 68 4 c61 3 71 6 100 35 36 37 27 39 -53 13z M753 8701 c-75 -59 -156
-142 -146 -151 9 -8 191 -136 685 -483 l336 -237 249 0 248 0 -40 27 c-48 31
-779 540 -1058 735 -109 77 -204 141 -211 144 -7 3 -36 -13 -63 -35z M484
8398 c-83 -131 -154 -369 -154 -514 l0 -54 531 0 531 0 -218 151 c-298 207
-506 353 -585 410 -37 27 -69 49 -73 49 -3 0 -18 -19 -32 -42z M330 6054 l0
-386 43 32 c54 41 755 541 916 653 l123 87 -541 0 -541 0 0 -386z M4311 6292
c118 -81 396 -276 619 -432 223 -156 464 -324 535 -373 l130 -88 3 43 c2 28
-5 62 -18 92 -26 61 -25 110 1 153 12 19 20 35 18 37 -2 1 -23 16 -45 34 -23
18 -250 178 -505 357 l-464 325 -244 0 -243 0 213 -148z"/>
</g>
</svg>
