<?xml version="1.0" standalone="no"?>
<!DOCTYPE svg PUBLIC "-//W3C//DTD SVG 20010904//EN"
 "http://www.w3.org/TR/2001/REC-SVG-20010904/DTD/svg10.dtd">
<svg version="1.0" xmlns="http://www.w3.org/2000/svg"
 width="2048.000000pt" height="2048.000000pt" viewBox="0 0 2048.000000 2048.000000"
 preserveAspectRatio="xMidYMid meet">
<metadata>
Created by potrace 1.13, written by Peter Selinger 2001-2015
</metadata>
<g transform="translate(0.000000,2048.000000) scale(0.192120,-0.192120)"
fill="#000000" stroke="none">
<path d="M1285 8929 c-151 -22 -320 -86 -455 -173 -85 -55 -214 -177 -281
-265 -64 -86 -142 -244 -173 -352 -43 -152 -47 -236 -44 -989 3 -630 5 -702
18 -675 8 17 17 32 20 35 16 16 30 54 30 85 0 19 4 35 9 35 6 0 11 254 13 663
l4 662 27 100 c98 362 354 631 707 743 155 49 202 52 881 52 353 0 629 4 629
9 0 5 13 11 29 14 17 4 52 20 78 36 l48 31 -740 -1 c-407 -1 -767 -5 -800 -10z
M2952 7620 l3 -1320 -1312 0 -1313 0 0 -970 0 -970 1313 0 1312 0 -3 -1320 -2
-1320 982 0 983 0 -3 1320 -2 1320 2710 0 2710 0 0 970 0 970 -2710 0 -2710 0
2 1320 3 1320 -983 0 -982 0 2 -1320z m468 1135 c16 -8 36 -15 45 -15 8 0 15
-4 15 -10 0 -12 906 -14 912 -2 2 4 23 14 48 22 l45 15 6 65 c3 36 6 -611 7
-1437 l2 -1503 2893 -2 c1590 -1 2864 -3 2830 -5 -58 -4 -62 -5 -77 -37 -9
-19 -16 -41 -16 -50 0 -9 -4 -16 -10 -16 -7 0 -10 -158 -10 -455 0 -297 3
-455 10 -455 6 0 10 -8 10 -19 0 -10 9 -30 20 -44 17 -21 31 -27 73 -30 29 -2
-1247 -4 -2835 -5 l-2888 -2 -2 -1497 c-1 -824 -4 -1473 -7 -1443 -6 55 -6 55
-51 70 -25 8 -46 18 -48 23 -6 11 -912 9 -912 -3 0 -5 -7 -10 -15 -10 -9 0
-29 -7 -45 -15 -25 -13 -29 -21 -33 -67 -2 -29 -4 621 -5 1445 l-2 1497 -1497
2 c-824 1 -1474 4 -1444 7 33 4 57 12 62 21 40 76 39 67 39 530 0 245 -4 450
-8 456 -5 5 -14 28 -21 51 l-12 42 -62 4 c-34 2 614 4 1441 5 l1502 2 2 1503
c1 826 3 1474 5 1440 4 -58 6 -64 33 -78z m-200 -1415 l0 -1310 -72 0 c-95 0
-148 15 -148 40 0 11 25 47 55 81 30 34 55 65 55 69 0 4 9 17 20 30 11 13 20
29 20 37 0 7 5 13 10 13 6 0 10 16 10 35 0 22 6 38 15 41 13 5 15 141 15 1140
0 749 3 1134 10 1134 7 0 10 -443 10 -1310z m1454 -966 c10 -4 16 -18 16 -40
0 -19 5 -34 10 -34 6 0 10 -7 10 -15 0 -8 4 -15 9 -15 5 0 12 -8 16 -19 3 -10
32 -49 65 -86 56 -64 78 -100 67 -112 -12 -11 -87 -23 -154 -23 l-73 0 0 175
c0 100 4 175 9 175 5 0 16 -3 25 -6z m184 -1769 c12 -3 22 -11 22 -18 0 -6
-28 -44 -63 -83 -95 -108 -107 -123 -107 -134 0 -6 -4 -10 -9 -10 -5 0 -11
-10 -13 -22 -2 -15 -11 -24 -25 -26 -23 -3 -23 -3 -23 150 l0 153 97 -3 c54
-1 108 -5 121 -7z m-1638 -1265 c0 -840 -3 -1270 -10 -1270 -7 0 -10 380 -10
1119 0 985 -2 1120 -15 1125 -8 3 -15 15 -15 26 0 11 -4 20 -10 20 -5 0 -10 6
-10 14 0 7 -10 24 -22 38 -26 28 -46 52 -102 120 -57 71 -49 78 84 78 l110 0
0 -1270z M5067 8925 c44 -31 109 -55 151 -55 23 0 42 -4 42 -10 0 -6 723 -11
2048 -12 l2047 -3 100 -27 c106 -29 274 -107 340 -157 22 -17 62 -47 89 -68
146 -114 280 -335 333 -551 14 -58 17 -156 20 -739 3 -418 8 -673 13 -673 6 0
10 -15 10 -34 0 -20 14 -61 33 -96 l32 -62 3 714 c3 761 0 833 -44 988 -98
338 -371 626 -703 739 -172 59 5 55 -2366 58 -1964 3 -2168 2 -2148 -12z
M10293 4172 c-18 -29 -33 -59 -33 -67 0 -8 -4 -15 -10 -15 -7 0 -10 -227 -10
-661 l0 -661 -25 -122 c-13 -66 -36 -150 -51 -186 -112 -276 -340 -492 -623
-589 -152 -52 -103 -51 -2268 -51 -1335 0 -2013 -3 -2013 -10 0 -5 -20 -10
-45 -10 -25 0 -45 -4 -45 -8 0 -4 -17 -14 -37 -21 -21 -8 -49 -22 -62 -33 -24
-18 22 -18 2145 -15 2369 3 2193 -1 2365 58 333 114 605 401 703 739 44 155
47 227 44 990 l-3 715 -32 -53z M330 3498 c0 -459 4 -745 11 -803 29 -238 130
-452 295 -625 160 -168 336 -268 574 -327 56 -14 166 -17 839 -20 760 -4 774
-4 750 15 -13 10 -39 25 -56 33 -18 8 -33 17 -33 21 0 5 -9 8 -20 8 -11 0 -20
5 -20 11 0 7 -200 9 -657 7 -706 -3 -708 -3 -868 49 -166 54 -298 137 -426
269 -47 49 -100 111 -118 137 -55 81 -118 226 -148 342 l-28 110 -3 683 c-2
427 -6 682 -12 682 -6 0 -10 6 -10 14 0 18 -52 105 -62 106 -5 0 -8 -321 -8
-712z"/>
</g>
</svg>
