<?xml version="1.0" standalone="no"?>
<!DOCTYPE svg PUBLIC "-//W3C//DTD SVG 20010904//EN"
 "http://www.w3.org/TR/2001/REC-SVG-20010904/DTD/svg10.dtd">
<svg version="1.0" xmlns="http://www.w3.org/2000/svg"
 width="2048.000000pt" height="2048.000000pt" viewBox="0 0 2048.000000 2048.000000"
 preserveAspectRatio="xMidYMid meet">
<metadata>
Created by potrace 1.13, written by Peter Selinger 2001-2015
</metadata>
<g transform="translate(0.000000,2048.000000) scale(0.192120,-0.192120)"
fill="#000000" stroke="none">
<path d="M1247 8924 c-399 -72 -737 -366 -862 -751 -54 -164 -55 -187 -55
-1133 l0 -875 1387 2 1388 2 3 1386 2 1385 -892 -1 c-724 -1 -908 -3 -971 -15z
m1573 -1384 l0 -1110 -1110 0 -1111 0 3 823 3 822 31 72 c99 228 323 409 582
469 115 27 227 31 925 33 l677 1 0 -1110z M3274 8928 c11 -6 36 -11 56 -11 20
0 45 5 56 11 15 9 4 11 -56 11 -60 0 -71 -2 -56 -11z M3539 7733 c0 -665 -3
-1383 -5 -1598 l-4 -390 -1600 0 -1600 0 0 -415 0 -415 1600 3 1600 3 -2
-1601 -3 -1600 418 0 418 0 -1 1598 -1 1597 2985 0 2986 0 0 415 0 415 -2986
0 -2985 0 1 1598 1 1597 -411 0 -410 0 -1 -1207z m581 -493 c0 -940 3 -1420
10 -1420 6 0 10 -13 10 -28 0 -75 136 -244 235 -293 l50 -24 2808 -3 2807 -2
0 -150 0 -150 -2807 -2 -2808 -3 -47 -23 c-85 -42 -238 -207 -238 -258 0 -8
-4 -14 -10 -14 -7 0 -10 -473 -10 -1400 0 -1393 0 -1400 -20 -1400 -17 0 -20
-7 -20 -45 l0 -45 -145 0 -145 0 0 45 c0 33 -4 45 -15 45 -13 0 -15 162 -15
1400 0 927 -3 1400 -10 1400 -5 0 -10 9 -10 20 0 11 -4 20 -8 20 -4 0 -13 15
-20 33 -16 44 -145 172 -202 200 l-45 22 -1438 3 -1437 2 0 150 0 150 1438 2
c1433 3 1437 3 1482 24 81 37 210 186 210 241 0 7 5 13 10 13 6 0 10 15 10 34
0 19 4 36 9 38 6 2 12 574 17 1421 l7 1417 173 0 174 0 0 -1420z M4510 8930
c18 -12 78 -12 105 0 14 6 -2 9 -50 9 -49 1 -65 -2 -55 -9z M4777 7555 l3
-1385 2775 -3 2775 -2 0 876 c0 952 -1 963 -56 1134 -95 290 -306 527 -589
661 -52 25 -138 57 -192 72 l-98 27 -2310 3 -2310 2 2 -1385z m4473 1086 c142
-10 232 -30 341 -76 188 -79 356 -243 418 -410 21 -55 21 -68 21 -890 l0 -835
-2490 0 -2490 0 0 1110 0 1110 2038 0 c1120 -1 2093 -5 2162 -9z M10314 5976
c-3 -19 -1 -48 4 -63 9 -24 11 -20 11 35 1 69 -5 80 -15 28z M330 5950 c0 -25
4 -39 10 -35 6 3 10 19 10 35 0 16 -4 32 -10 35 -6 4 -10 -10 -10 -35z M10314
4736 c-3 -19 -1 -48 4 -63 9 -24 11 -20 11 35 1 69 -5 80 -15 28z M330 4710
c0 -25 4 -39 10 -35 6 3 10 19 10 35 0 16 -4 32 -10 35 -6 4 -10 -10 -10 -35z
M330 3625 c0 -523 4 -898 10 -940 25 -175 96 -357 193 -494 62 -88 186 -211
274 -272 99 -68 242 -134 360 -167 l98 -27 923 -3 922 -3 -2 1386 -3 1386
-1388 2 -1387 2 0 -870z m2490 -531 l0 -1106 -742 5 c-627 4 -754 7 -813 20
-315 71 -533 251 -639 527 -21 54 -21 68 -24 858 l-3 802 1111 0 1110 0 0
-1106z M4780 4495 c0 0 -1 -624 -3 -1388 l-2 -1387 2310 2 2310 3 98 27 c413
114 709 422 814 847 15 58 17 175 20 981 l4 915 -2776 0 c-1526 0 -2775 0
-2775 0z m5250 -1113 l0 -818 -24 -61 c-31 -79 -114 -208 -168 -259 -155 -149
-332 -224 -575 -244 -80 -6 -863 -10 -2169 -10 l-2044 0 0 1105 0 1105 2490 0
2490 0 0 -818z M3275 1730 c-14 -6 2 -9 50 -9 48 0 64 3 50 9 -11 5 -33 9 -50
9 -16 0 -39 -4 -50 -9z M4510 1730 c-10 -7 6 -10 55 -9 48 0 64 3 50 9 -27 12
-87 12 -105 0z"/>
</g>
</svg>
