<?xml version="1.0" standalone="no"?>
<!DOCTYPE svg PUBLIC "-//W3C//DTD SVG 20010904//EN"
 "http://www.w3.org/TR/2001/REC-SVG-20010904/DTD/svg10.dtd">
<svg version="1.0" xmlns="http://www.w3.org/2000/svg"
 width="2048.000000pt" height="2048.000000pt" viewBox="0 0 2048.000000 2048.000000"
 preserveAspectRatio="xMidYMid meet">
<metadata>
Created by potrace 1.13, written by Peter Selinger 2001-2015
</metadata>
<g transform="translate(0.000000,2048.000000) scale(0.192120,-0.192120)"
fill="#000000" stroke="none">
<path d="M1247 8924 c-348 -63 -652 -295 -807 -615 -48 -99 -73 -181 -95 -303
-13 -76 -15 -234 -15 -1102 l0 -1014 1528 0 1527 0 0 1525 0 1525 -1030 -1
c-842 -1 -1044 -3 -1108 -15z m1853 -1524 l0 -1250 -1250 0 -1250 0 2 973 3
972 36 75 c124 259 382 434 694 473 17 2 420 5 898 6 l867 1 0 -1250z M3555
8915 c22 -13 45 -25 52 -25 6 0 13 -6 16 -12 3 -10 75 -13 314 -13 281 0 311
2 327 18 10 9 21 17 26 17 5 0 24 9 42 20 l33 20 -425 0 -425 0 40 -25z M4500
7415 l0 -1525 2915 0 2916 0 -4 1053 c-3 935 -5 1059 -20 1118 -56 226 -149
396 -302 551 -137 138 -317 242 -512 296 l-98 27 -2447 3 -2448 2 0 -1525z
m4860 1220 c301 -45 552 -229 656 -482 l24 -58 0 -972 0 -973 -2640 0 -2640 0
0 1250 0 1250 2253 0 c1908 0 2267 -2 2347 -15z M10297 5695 c-15 -25 -27 -52
-27 -60 0 -8 -4 -15 -10 -15 -6 0 -10 -107 -10 -300 0 -165 3 -300 8 -300 4 0
16 -18 26 -40 45 -95 46 -91 46 349 0 226 -1 411 -3 411 -1 0 -14 -20 -30 -45z
M330 5333 c0 -257 4 -403 10 -403 5 0 12 11 16 25 3 14 10 25 15 25 5 0 9 9 9
20 0 11 5 20 10 20 6 0 10 107 10 300 0 193 -4 300 -10 300 -5 0 -10 11 -10
25 0 14 -4 25 -10 25 -5 0 -10 6 -10 13 0 7 -7 22 -15 33 -13 17 -14 -27 -15
-383z M333 3768 c3 -973 4 -1006 24 -1098 107 -487 386 -796 833 -923 74 -22
86 -22 1135 -25 l1060 -3 0 1526 0 1525 -1528 0 -1528 0 4 -1002z m2767 -528
l0 -1251 -897 4 c-894 3 -898 3 -983 25 -311 83 -526 303 -606 622 -11 45 -13
225 -14 953 l0 897 1250 0 1250 0 0 -1250z M4500 3245 l0 -1525 2448 2 2447 3
85 24 c198 56 363 151 496 286 166 170 268 368 327 635 20 92 21 125 24 1098
l4 1002 -2916 0 -2915 0 0 -1525z m5540 334 c0 -801 -2 -919 -16 -973 -53
-206 -191 -394 -364 -496 -81 -48 -220 -95 -323 -109 -54 -8 -786 -11 -2328
-11 l-2249 0 0 1250 0 1250 2640 0 2640 0 0 -911z M3650 1791 c0 -5 -12 -12
-27 -16 -16 -3 -46 -17 -68 -30 l-40 -25 425 0 425 0 -33 20 c-18 11 -51 26
-72 32 -22 7 -40 16 -40 20 0 5 -128 8 -285 8 -167 0 -285 -4 -285 -9z"/>
</g>
</svg>
