<?xml version="1.0" standalone="no"?>
<!DOCTYPE svg PUBLIC "-//W3C//DTD SVG 20010904//EN"
 "http://www.w3.org/TR/2001/REC-SVG-20010904/DTD/svg10.dtd">
<svg version="1.0" xmlns="http://www.w3.org/2000/svg"
 width="2048.000000pt" height="2048.000000pt" viewBox="0 0 2048.000000 2048.000000"
 preserveAspectRatio="xMidYMid meet">
<metadata>
Created by potrace 1.13, written by Peter Selinger 2001-2015
</metadata>
<g transform="translate(0.000000,2048.000000) scale(0.192120,-0.192120)"
fill="#000000" stroke="none">
<path d="M1320 8934 c-161 -25 -271 -59 -391 -121 -323 -169 -544 -486 -588
-848 -15 -127 -15 -5143 0 -5270 29 -239 130 -452 296 -625 160 -169 330 -265
573 -328 60 -15 374 -16 4075 -20 4407 -3 4098 -7 4284 55 328 110 591 372
701 700 63 190 60 36 60 2853 0 2817 3 2663 -60 2853 -110 329 -377 594 -705
701 -185 60 113 56 -4239 55 -2189 -1 -3992 -3 -4006 -5z m7965 -115 c274 -27
459 -114 649 -304 115 -115 190 -236 243 -390 l38 -110 0 -2665 0 -2665 -28
-100 c-16 -55 -49 -141 -73 -192 -103 -215 -320 -407 -552 -488 -165 -58 93
-54 -4252 -56 -3686 -1 -4001 0 -4074 16 -102 21 -205 58 -286 102 -228 124
-412 350 -481 590 -19 67 -19 125 -19 2779 l0 2712 21 68 c111 360 446 644
824 699 120 17 7819 21 7990 4z M5055 7254 c-422 -65 -776 -240 -1074 -528
-175 -171 -296 -337 -396 -541 -135 -278 -195 -539 -195 -855 0 -361 86 -681
264 -983 108 -185 282 -388 446 -522 217 -177 484 -311 760 -380 287 -72 637
-74 924 -6 631 151 1160 627 1376 1238 126 356 146 761 55 1123 -120 478 -413
890 -830 1162 -227 149 -507 253 -786 293 -130 18 -422 18 -544 -1z m540 -279
c611 -85 1139 -501 1339 -1054 63 -176 66 -198 66 -580 0 -392 -4 -425 -76
-619 -174 -470 -549 -826 -1039 -987 -383 -126 -821 -117 -1190 26 -463 179
-817 533 -978 979 -69 189 -77 253 -77 595 0 241 3 321 16 378 115 528 506
967 1040 1168 283 106 583 138 899 94z"/>
</g>
</svg>
