<?xml version="1.0" standalone="no"?>
<!DOCTYPE svg PUBLIC "-//W3C//DTD SVG 20010904//EN"
 "http://www.w3.org/TR/2001/REC-SVG-20010904/DTD/svg10.dtd">
<svg version="1.0" xmlns="http://www.w3.org/2000/svg"
 width="2048.000000pt" height="2048.000000pt" viewBox="0 0 2048.000000 2048.000000"
 preserveAspectRatio="xMidYMid meet">
<metadata>
Created by potrace 1.13, written by Peter Selinger 2001-2015
</metadata>
<g transform="translate(0.000000,2048.000000) scale(0.192120,-0.192120)"
fill="#000000" stroke="none">
<path d="M4617 8943 c23 -2 67 -17 99 -34 l58 -29 551 0 c303 0 554 3 558 6
20 20 149 53 210 54 l67 0 0 -1390 0 -1390 2085 0 2085 0 0 889 c0 983 0 975
-64 1157 -130 362 -449 639 -821 712 -97 19 -163 20 -2485 24 -1312 3 -2366 3
-2343 1z m4758 -298 c254 -41 478 -185 599 -384 81 -132 76 -71 76 -1008 l0
-833 -1815 0 -1815 0 0 1120 0 1120 1433 0 c1208 0 1446 -2 1522 -15z M1247
8924 c-399 -72 -737 -366 -862 -751 -54 -164 -55 -186 -55 -1135 l0 -878 2085
0 2085 0 0 1390 0 1390 -1587 -1 c-1324 -1 -1601 -3 -1666 -15z m2953 -1384
l0 -1100 -1795 0 -1795 0 0 803 c0 782 1 805 20 866 87 265 373 479 695 520
39 4 701 9 1473 10 l1402 1 0 -1100z M5162 6256 c-51 -17 -72 -33 -72 -55 0
-14 -19 -19 -110 -29 -60 -7 -138 -21 -173 -32 -69 -22 -120 -60 -111 -84 3
-9 -10 -30 -34 -54 -40 -40 -106 -178 -100 -209 4 -20 98 -46 103 -29 46 149
63 171 157 192 75 17 95 33 79 62 -9 18 -6 20 36 26 25 3 88 6 139 6 51 0 104
4 119 10 23 9 25 14 20 44 l-7 34 64 4 c34 1 93 1 130 -1 l66 -3 -10 -30 c-8
-21 -7 -33 1 -41 7 -7 69 -14 159 -19 81 -3 151 -7 155 -7 4 -1 3 -10 -3 -22
-17 -30 2 -46 68 -60 31 -7 69 -18 83 -25 53 -26 103 -180 79 -239 l-12 -30
-20 40 -19 40 4 -48 5 -48 -26 38 c-13 21 -29 42 -33 48 -9 9 13 -71 32 -122
17 -45 9 -48 -17 -8 -40 60 -47 65 -39 27 4 -18 3 -32 -2 -31 -20 4 -30 -3
-48 -33 l-18 -33 21 19 c29 25 46 16 81 -46 35 -60 40 -86 11 -48 -11 14 -20
21 -20 15 -1 -5 -10 6 -20 25 l-20 35 6 -30 c3 -16 8 -38 11 -49 4 -13 1 -16
-7 -11 -10 6 -12 -1 -7 -31 l6 -39 -19 22 -18 23 4 -43 c2 -23 1 -36 -2 -29
-10 20 -21 14 -33 -19 -9 -27 -9 -30 4 -19 8 7 15 10 15 7 0 -2 11 -34 25 -71
27 -73 26 -83 -6 -33 -12 17 -18 23 -14 12 4 -11 9 -49 11 -85 l4 -65 -20 50
c-16 40 -19 44 -15 18 2 -18 0 -33 -5 -33 -20 0 -9 -31 25 -69 53 -59 43 -121
-30 -177 -31 -23 -42 -26 -84 -21 -43 5 -51 3 -65 -16 -16 -21 -16 -21 -11 13
l6 35 -21 -32 c-12 -18 -24 -33 -26 -33 -2 0 -1 15 1 33 5 29 5 30 -6 10 -16
-30 -29 -29 -29 2 0 23 4 25 43 26 40 1 56 3 67 8 3 2 15 4 28 5 57 6 71 57
72 249 l0 137 -45 0 c-32 0 -45 4 -45 14 0 11 -8 10 -37 -5 -21 -10 -48 -19
-60 -19 -22 0 -23 -4 -23 -63 0 -55 -3 -67 -26 -88 -21 -20 -36 -24 -82 -23
-32 0 -70 7 -87 16 -28 15 -33 15 -60 0 -17 -9 -55 -16 -88 -16 -52 -1 -61 2
-83 27 -20 23 -24 39 -24 88 0 55 -2 59 -23 59 -12 0 -39 9 -60 19 -29 15 -37
16 -37 5 0 -10 -13 -14 -46 -14 l-45 0 3 -150 c3 -128 1 -147 -11 -135 -12 12
-17 8 -38 -30 -29 -55 -29 -64 2 -109 36 -52 17 -78 -26 -35 -18 18 -20 28
-13 86 4 45 3 72 -6 89 l-13 24 -22 -36 c-22 -37 -22 -37 -27 -11 -6 33 -1 40
50 66 32 16 49 33 63 64 26 59 25 71 -8 62 -16 -3 -36 -14 -45 -22 -17 -15
-18 -14 -18 12 0 28 0 28 -21 9 -28 -25 -49 -67 -49 -99 0 -14 -4 -25 -10 -25
-20 0 -9 58 20 104 22 34 42 52 71 64 34 13 46 26 70 75 33 64 33 63 -28 40
-8 -3 -13 4 -13 18 0 48 -15 51 -43 12 -25 -35 -27 -36 -27 -13 0 28 34 90 50
90 22 0 44 55 49 126 4 41 4 74 0 74 -3 0 -18 -10 -33 -21 l-27 -21 -6 21 c-8
30 -16 26 -35 -20 -17 -40 -17 -40 -41 -24 l-25 16 -7 -50 c-6 -42 -3 -57 15
-86 13 -21 19 -42 15 -55 -9 -29 -21 -25 -35 13 -6 17 -20 50 -30 73 -15 35
-16 44 -5 71 8 18 27 39 44 48 17 8 31 20 31 26 0 5 11 21 25 34 l24 25 -22 1
c-12 1 -25 1 -29 0 -5 0 -8 9 -8 21 0 13 -5 30 -10 38 -9 13 -14 11 -34 -13
-21 -26 -24 -27 -30 -11 -6 16 -10 15 -31 -11 -30 -37 -31 -79 -6 -136 11 -24
18 -45 16 -47 -2 -2 -16 5 -31 14 l-27 18 7 -39 c4 -22 9 -55 10 -74 1 -26 12
-43 47 -75 25 -23 49 -53 52 -68 4 -14 19 -40 33 -57 17 -21 24 -37 19 -49 -6
-15 -10 -13 -32 12 l-25 30 7 -82 c4 -45 4 -82 1 -82 -17 0 -36 73 -31 118 4
33 1 63 -13 102 -18 52 -19 53 -26 27 l-7 -28 -19 23 c-11 13 -19 19 -20 15 0
-5 -16 1 -36 14 l-36 22 3 -40 c4 -34 2 -39 -13 -35 -23 6 -22 1 10 -78 26
-61 30 -65 77 -83 47 -17 95 -56 95 -78 0 -6 -9 -7 -20 -4 -23 7 -26 -6 -9
-36 9 -18 8 -19 -8 -11 -29 15 -113 23 -113 11 0 -6 13 -23 28 -39 27 -27 28
-28 10 -50 -22 -27 -23 -50 -3 -50 11 0 14 -7 9 -25 -7 -28 -5 -29 28 -16 13
6 39 12 60 16 22 3 48 18 67 37 17 18 31 26 31 18 0 -7 7 -21 15 -31 15 -15
13 -17 -30 -24 -32 -4 -45 -10 -42 -19 3 -8 -5 -19 -18 -26 -12 -7 -33 -25
-44 -41 l-22 -29 26 0 c21 0 25 -5 25 -30 l0 -29 33 18 c17 10 49 22 71 26 21
3 49 17 63 31 17 17 35 24 63 24 l38 0 -54 -57 c-29 -32 -54 -66 -54 -75 0
-14 -8 -16 -55 -11 -61 6 -85 -5 -85 -42 0 -19 -7 -23 -45 -28 -25 -2 -55 -13
-66 -23 -19 -17 -19 -18 21 -59 l41 -42 37 19 c28 15 48 18 86 13 58 -7 101
14 91 45 -5 17 -3 18 23 8 42 -16 99 -2 119 29 16 25 16 26 -5 43 l-22 18 23
5 c12 3 73 11 135 18 113 11 113 11 138 -12 l26 -24 -54 -10 c-53 -10 -67 -26
-54 -60 4 -11 11 -12 30 -5 41 15 41 -8 1 -31 -36 -22 -36 -22 -17 -41 23 -23
40 -17 109 38 23 19 47 34 53 34 6 0 30 -15 53 -34 70 -56 86 -61 110 -38 l20
20 -42 21 c-50 26 -52 35 -5 28 35 -6 35 -5 32 26 -3 30 -7 33 -50 41 -54 9
-59 18 -24 42 22 14 39 14 138 4 62 -6 121 -13 131 -16 17 -5 17 -7 2 -24 -48
-54 46 -101 129 -65 16 7 17 6 7 -13 -18 -33 22 -55 85 -47 38 5 58 2 87 -14
l38 -20 37 41 c20 22 39 44 40 49 6 14 -68 41 -100 37 -25 -4 -28 -1 -28 23 0
40 -22 53 -79 46 -39 -5 -51 -3 -55 9 -9 24 -8 26 14 19 36 -11 21 5 -22 25
l-43 20 45 -5 c44 -6 45 -5 20 10 l-25 16 25 -7 c57 -15 70 -24 70 -46 0 -19
2 -20 10 -8 17 27 11 47 -20 60 -17 7 -33 17 -36 22 -3 5 11 2 33 -7 64 -28
69 -28 40 -1 -30 28 -17 34 23 11 40 -23 46 -17 14 16 l-29 31 54 -21 c30 -11
56 -19 58 -17 2 2 -13 18 -34 35 -41 34 -33 39 24 16 50 -21 51 -13 3 20 -22
15 -40 29 -40 31 0 2 21 -3 47 -11 41 -13 45 -12 31 1 -8 9 -33 22 -54 29
l-39 14 35 1 35 2 -35 14 c-35 14 -35 14 30 10 36 -2 74 -7 84 -12 12 -5 17
-4 13 3 -4 6 -28 16 -54 24 l-48 14 35 5 c34 6 34 6 -20 16 l-55 10 63 13 c85
17 73 24 -19 13 -41 -5 -76 -8 -78 -6 -16 14 64 45 153 59 29 5 36 9 25 16 -8
5 -25 9 -39 9 -23 1 -23 2 7 15 72 31 103 48 103 55 0 5 -14 3 -32 -3 -20 -8
-32 -8 -35 -2 -2 6 -12 25 -23 42 l-19 33 -47 -20 c-25 -11 -48 -20 -50 -20
-3 0 21 29 52 64 l58 65 29 -15 c36 -19 43 -14 17 14 -28 30 -39 28 -93 -13
-71 -55 -65 -41 17 33 41 37 73 69 71 71 -2 2 -28 -14 -57 -34 -49 -36 -51
-36 -34 -11 17 27 17 27 -4 16 l-22 -12 23 41 c20 35 27 41 56 41 20 0 32 4
28 10 -3 6 -22 10 -40 10 -26 0 -39 -6 -51 -25 -9 -14 -19 -23 -22 -20 -3 3 9
23 27 45 35 44 34 48 -7 24 -17 -11 -10 -1 18 25 l45 43 -38 -21 -38 -21 12
21 c19 36 3 32 -30 -8 -17 -21 -31 -32 -31 -25 0 7 20 34 45 60 39 42 46 46
64 35 31 -19 33 -16 16 17 -19 36 -31 37 -63 8 -16 -14 -23 -17 -20 -8 3 8 15
39 27 68 26 65 12 59 -30 -11 l-31 -52 7 50 c3 28 9 59 12 70 9 33 -20 0 -34
-38 l-11 -32 -1 47 c-1 44 1 48 27 54 67 15 64 9 38 78 -29 82 -71 152 -101
172 -18 12 -23 22 -19 39 12 49 -104 97 -283 117 -92 11 -102 14 -107 34 -4
14 -22 28 -48 40 -57 24 -311 31 -376 10z m1015 -1105 c13 -21 5 -24 -102 -36
l-50 -5 60 30 c71 35 76 36 92 11z m-767 -192 l0 -98 32 10 c63 18 78 13 78
-25 0 -19 -4 -46 -10 -60 l-10 -26 -151 0 c-140 0 -151 1 -143 18 4 9 9 34 12
55 3 28 9 37 23 37 17 0 19 8 19 95 0 90 1 96 23 104 13 5 28 16 35 24 11 13
18 12 52 -11 l40 -26 0 -97z m-320 -91 c0 -6 -14 -8 -30 -6 -30 4 -31 4 -25
-26 4 -17 9 -39 11 -48 5 -16 -2 -18 -51 -18 -60 0 -66 13 -13 25 l33 7 -40
13 c-22 8 -35 14 -28 14 6 1 23 13 37 29 22 23 33 27 66 24 22 -2 40 -9 40
-14z m70 2 c0 -13 -11 -13 -30 0 -12 8 -11 10 8 10 12 0 22 -4 22 -10z m390 0
c0 -5 -4 -10 -10 -10 -5 0 -10 5 -10 10 0 6 5 10 10 10 6 0 10 -4 10 -10z
m-203 -247 c-16 -16 -18 -16 -34 0 -16 16 -15 17 17 17 32 0 33 -1 17 -17z
M10314 6005 c-3 -14 -10 -25 -15 -25 -4 0 -11 -16 -15 -35 -3 -19 -10 -35 -15
-35 -5 0 -9 -246 -9 -575 0 -322 4 -575 9 -575 5 0 11 -12 15 -27 3 -16 15
-39 26 -53 l20 -25 0 688 c0 378 -2 687 -5 687 -2 0 -7 -11 -11 -25z M330
5320 c0 -386 4 -670 9 -665 5 6 20 32 35 58 l26 48 0 559 c0 367 -3 560 -10
560 -5 0 -10 11 -10 25 0 14 -4 25 -10 25 -5 0 -10 6 -10 13 0 7 -7 22 -15 33
-13 17 -14 -60 -15 -656z M4853 5852 l47 -48 0 -187 0 -187 45 0 c42 0 45 -2
45 -26 0 -19 8 -28 35 -40 19 -7 46 -14 60 -14 l25 0 0 128 0 129 -61 52 c-34
28 -66 55 -73 59 -6 4 -18 16 -26 26 -35 45 32 -7 129 -100 l101 -97 0 -111 0
-111 81 -18 c78 -18 83 -18 155 0 l74 18 0 112 0 111 41 33 40 32 -7 -132 -7
-131 27 0 c15 0 42 7 61 14 27 12 35 21 35 40 0 24 3 26 45 26 l45 0 0 187 0
187 47 48 47 48 -227 0 -227 0 0 -146 c0 -131 -2 -149 -21 -175 -22 -31 -15
-41 7 -11 12 15 13 15 14 -9 0 -14 9 -52 20 -85 11 -32 19 -63 16 -69 -2 -5
-25 -16 -52 -23 -27 -7 -57 -18 -67 -23 -11 -6 -20 -9 -22 -7 -1 2 -13 34 -25
72 -18 54 -20 73 -12 87 8 12 8 20 2 24 -6 3 -10 16 -10 28 1 20 4 18 30 -13
39 -46 39 -29 0 20 l-30 38 0 146 0 146 -227 0 -227 0 47 -48z m247 -14 c0 -6
16 -33 36 -62 21 -30 24 -37 7 -17 -15 19 -38 46 -50 59 -26 29 -30 44 -8 36
8 -4 15 -11 15 -16z m494 -2 c-6 -16 -24 -23 -24 -8 0 10 22 33 27 28 2 -2 1
-11 -3 -20z m-554 -48 c0 -3 24 -33 52 -65 l52 -58 -64 60 c-36 33 -68 64 -72
70 -14 19 -8 25 12 13 11 -7 20 -16 20 -20z m620 2 c-6 -11 -15 -20 -20 -20
-14 0 -12 27 3 33 23 10 28 7 17 -13z m-40 -33 c0 -2 -15 -16 -32 -33 l-33
-29 29 33 c28 30 36 37 36 29z m100 -17 c-11 -21 -22 -25 -34 -13 -3 4 4 13
16 20 30 16 30 16 18 -7z m-60 -43 c0 -2 -12 -14 -27 -28 l-28 -24 24 28 c23
25 31 32 31 24z m-430 -154 l0 -24 -35 27 c-27 20 -35 34 -35 57 l0 31 35 -34
c20 -20 35 -44 35 -57z m284 60 c-8 -34 -67 -89 -72 -67 -4 16 54 94 69 94 5
0 7 -12 3 -27z M5180 5215 c0 -52 29 -62 105 -37 50 17 63 18 85 8 75 -38 120
-26 120 31 0 32 -2 35 -22 30 -138 -32 -136 -32 -202 -14 -85 23 -86 22 -86
-18z M333 3573 c3 -922 3 -929 25 -1007 106 -379 357 -657 706 -782 189 -67
102 -64 1852 -64 l1584 0 0 1390 0 1390 -2085 0 -2086 0 4 -927z m3877 -473
l0 -1110 -1462 2 -1463 3 -80 22 c-282 79 -499 274 -584 523 -21 63 -21 72
-21 867 l0 803 1805 0 1805 0 0 -1110z M6160 3110 l0 -1390 1618 2 1617 3 98
27 c413 114 709 422 814 847 15 58 17 175 20 984 l4 917 -2086 0 -2085 0 0
-1390z m3870 288 c0 -927 7 -857 -106 -1033 -107 -167 -257 -271 -484 -333
l-95 -27 -1452 -3 -1453 -3 0 1101 0 1100 1795 0 1795 0 0 -802z M4760 1772
c0 -16 -98 -46 -175 -52 -44 -4 276 -7 710 -7 435 0 768 3 740 7 -27 4 -70 18
-95 31 l-45 24 -567 3 c-313 1 -568 -1 -568 -6z"/>
</g>
</svg>
