<?xml version="1.0" standalone="no"?>
<!DOCTYPE svg PUBLIC "-//W3C//DTD SVG 20010904//EN"
 "http://www.w3.org/TR/2001/REC-SVG-20010904/DTD/svg10.dtd">
<svg version="1.0" xmlns="http://www.w3.org/2000/svg"
 width="2048.000000pt" height="2048.000000pt" viewBox="0 0 2048.000000 2048.000000"
 preserveAspectRatio="xMidYMid meet">
<metadata>
Created by potrace 1.13, written by Peter Selinger 2001-2015
</metadata>
<g transform="translate(0.000000,2048.000000) scale(0.192120,-0.192120)"
fill="#000000" stroke="none">
<path d="M1320 10324 c-273 -42 -463 -131 -640 -301 -176 -167 -284 -364 -332
-603 -19 -96 -19 -8084 0 -8180 80 -398 361 -723 733 -849 180 -60 -136 -56
4249 -56 3399 0 4036 2 4095 14 398 79 726 367 848 746 55 171 52 -100 52
4235 0 4335 3 4064 -52 4235 -51 157 -132 292 -250 415 -160 169 -333 267
-572 328 -61 15 -367 16 -4086 18 -2211 1 -4031 0 -4045 -2z m8089 -287 c294
-72 494 -221 609 -457 l37 -75 0 -4165 0 -4165 -28 -69 c-120 -296 -384 -481
-736 -516 -74 -8 -1306 -10 -4041 -8 -3625 4 -3940 5 -4000 20 -334 86 -563
284 -649 562 l-21 68 0 4104 0 4105 21 62 c63 189 239 375 443 467 83 38 192
68 287 79 41 5 1846 8 4039 7 3772 -1 3969 -2 4039 -19z M5114 8676 c-147 -38
-259 -104 -377 -221 -118 -117 -199 -247 -238 -385 -18 -63 -19 -162 -19
-2732 l0 -2667 24 -73 c51 -153 138 -292 255 -408 167 -166 363 -238 615 -228
191 9 334 63 477 182 120 99 234 273 297 455 l27 76 3 2635 c3 2935 8 2696
-66 2865 -85 195 -257 374 -436 455 -162 74 -383 92 -562 46z m411 -242 c101
-27 193 -81 270 -159 80 -81 124 -161 158 -288 l22 -82 0 -2560 c0 -2444 -1
-2564 -18 -2638 -56 -237 -216 -404 -447 -464 -88 -23 -272 -23 -360 0 -230
60 -391 228 -447 464 -17 74 -18 194 -18 2638 l0 2560 22 82 c34 127 78 207
158 288 97 98 211 155 360 179 55 8 239 -3 300 -20z"/>
</g>
</svg>
