<?xml version="1.0" standalone="no"?>
<!DOCTYPE svg PUBLIC "-//W3C//DTD SVG 20010904//EN"
 "http://www.w3.org/TR/2001/REC-SVG-20010904/DTD/svg10.dtd">
<svg version="1.0" xmlns="http://www.w3.org/2000/svg"
 width="2048.000000pt" height="2048.000000pt" viewBox="0 0 2048.000000 2048.000000"
 preserveAspectRatio="xMidYMid meet">
<metadata>
Created by potrace 1.13, written by Peter Selinger 2001-2015
</metadata>
<g transform="translate(0.000000,2048.000000) scale(0.192120,-0.192120)"
fill="#000000" stroke="none">
<path d="M1320 10324 c-273 -42 -463 -131 -640 -301 -176 -167 -284 -364 -332
-603 -19 -96 -19 -8084 0 -8180 80 -398 361 -723 733 -849 180 -60 -136 -56
4249 -56 3399 0 4036 2 4095 14 398 79 726 367 848 746 55 171 52 -100 52
4235 0 4335 3 4064 -52 4235 -51 157 -132 292 -250 415 -160 169 -333 267
-572 328 -61 15 -367 16 -4086 18 -2211 1 -4031 0 -4045 -2z m8089 -287 c294
-72 494 -221 609 -457 l37 -75 0 -4165 0 -4165 -28 -69 c-120 -296 -384 -481
-736 -516 -74 -8 -1306 -10 -4041 -8 -3625 4 -3940 5 -4000 20 -334 86 -563
284 -649 562 l-21 68 0 4104 0 4105 21 62 c63 189 239 375 443 467 83 38 192
68 287 79 41 5 1846 8 4039 7 3772 -1 3969 -2 4039 -19z M5545 8750 c-765 -68
-1412 -365 -1935 -890 -515 -516 -841 -1185 -955 -1957 -22 -148 -22 -962 0
-1117 88 -629 355 -1249 748 -1741 104 -130 354 -379 486 -484 736 -585 1668
-785 2706 -580 724 143 1144 439 1323 932 22 63 26 92 30 229 4 141 2 165 -18
230 -91 303 -332 558 -585 621 -198 50 -352 22 -687 -124 -191 -83 -359 -141
-493 -169 -145 -31 -449 -39 -600 -15 -279 43 -519 161 -704 346 -161 161
-302 416 -367 661 -47 180 -46 169 -51 598 -4 414 -4 416 21 542 91 446 298
772 619 972 209 130 443 189 747 188 286 0 463 -37 809 -167 249 -94 344 -117
476 -117 160 0 297 46 413 139 77 62 91 77 150 155 71 95 116 179 151 284 30
88 31 99 31 261 0 144 -3 179 -21 234 -168 521 -732 853 -1619 954 -163 19
-538 27 -675 15z m670 -265 c464 -56 826 -170 1088 -341 89 -59 221 -191 265
-266 146 -247 113 -565 -78 -757 -101 -102 -221 -151 -371 -151 -102 0 -209
29 -439 119 -313 123 -504 166 -785 178 -456 18 -836 -116 -1133 -401 -271
-260 -450 -622 -531 -1071 -46 -258 -52 -604 -16 -855 92 -628 414 -1132 869
-1362 254 -128 565 -185 870 -160 264 22 461 77 783 221 231 103 327 131 442
131 156 0 270 -50 380 -165 126 -133 186 -276 185 -435 -1 -116 -22 -199 -76
-302 -183 -352 -695 -591 -1450 -675 -214 -23 -617 -23 -793 1 -876 119 -1571
551 -2045 1273 -264 401 -436 879 -507 1413 -26 194 -26 737 0 930 140 1038
656 1856 1463 2321 344 198 765 329 1189 368 139 13 534 5 690 -14z"/>
</g>
</svg>
