<?xml version="1.0" standalone="no"?>
<!DOCTYPE svg PUBLIC "-//W3C//DTD SVG 20010904//EN"
 "http://www.w3.org/TR/2001/REC-SVG-20010904/DTD/svg10.dtd">
<svg version="1.0" xmlns="http://www.w3.org/2000/svg"
 width="2048.000000pt" height="2048.000000pt" viewBox="0 0 2048.000000 2048.000000"
 preserveAspectRatio="xMidYMid meet">
<metadata>
Created by potrace 1.13, written by Peter Selinger 2001-2015
</metadata>
<g transform="translate(0.000000,2048.000000) scale(0.192120,-0.192120)"
fill="#000000" stroke="none">
<path d="M1247 8924 c-399 -72 -737 -366 -862 -751 -58 -176 -55 -35 -55
-2838 0 -1657 4 -2605 10 -2650 25 -177 91 -345 189 -488 61 -88 184 -212 272
-274 91 -65 251 -139 366 -171 l98 -27 4065 0 4065 0 98 27 c422 117 734 449
818 873 21 105 21 5305 0 5410 -71 355 -298 646 -626 801 -52 25 -138 57 -192
72 l-98 27 -4035 2 c-3449 1 -4046 -1 -4113 -13z m8208 -312 c245 -70 443
-226 535 -423 l35 -74 3 -2770 2 -2771 -25 -64 c-83 -212 -247 -371 -464 -450
-177 -65 141 -60 -4256 -57 l-4000 2 -80 24 c-236 68 -427 213 -521 396 -82
158 -74 -146 -72 2925 l3 2745 43 88 c111 227 341 392 615 442 59 11 824 13
4087 11 l4015 -1 80 -23z M4505 7594 c-373 -50 -736 -205 -1030 -439 -183
-146 -398 -386 -500 -560 -155 -263 -240 -482 -289 -744 -23 -119 -23 -643 0
-762 49 -267 151 -525 302 -766 306 -492 780 -838 1317 -963 291 -68 649 -68
935 -1 344 80 680 260 935 501 284 267 484 582 609 960 75 229 81 276 81 650
0 315 -1 341 -23 440 -62 277 -178 547 -331 770 -303 444 -762 760 -1277 880
-210 49 -515 63 -729 34z m536 -200 c740 -103 1351 -616 1584 -1328 126 -385
124 -813 -5 -1206 -275 -840 -1097 -1392 -1977 -1329 -538 38 -1016 282 -1361
694 -532 635 -600 1546 -169 2253 84 138 168 244 286 363 300 300 682 492
1101 553 133 19 404 20 541 0z"/>
</g>
</svg>
