<?xml version="1.0" standalone="no"?>
<!DOCTYPE svg PUBLIC "-//W3C//DTD SVG 20010904//EN"
 "http://www.w3.org/TR/2001/REC-SVG-20010904/DTD/svg10.dtd">
<svg version="1.0" xmlns="http://www.w3.org/2000/svg"
 width="2048.000000pt" height="2048.000000pt" viewBox="0 0 2048.000000 2048.000000"
 preserveAspectRatio="xMidYMid meet">
<metadata>
Created by potrace 1.13, written by Peter Selinger 2001-2015
</metadata>
<g transform="translate(0.000000,2048.000000) scale(0.192120,-0.192120)"
fill="#000000" stroke="none">
<path d="M1320 10324 c-273 -42 -463 -131 -640 -301 -176 -167 -284 -364 -332
-603 -19 -96 -19 -8084 0 -8180 80 -398 361 -723 733 -849 180 -60 -136 -56
4249 -56 3399 0 4036 2 4095 14 398 79 726 367 848 746 55 171 52 -100 52
4235 0 4335 3 4064 -52 4235 -51 157 -132 292 -250 415 -160 169 -333 267
-572 328 -61 15 -367 16 -4086 18 -2211 1 -4031 0 -4045 -2z m8089 -287 c294
-72 494 -221 609 -457 l37 -75 0 -4165 0 -4165 -28 -69 c-120 -296 -384 -481
-736 -516 -74 -8 -1306 -10 -4041 -8 -3625 4 -3940 5 -4000 20 -334 86 -563
284 -649 562 l-21 68 0 4104 0 4105 21 62 c63 189 239 375 443 467 83 38 192
68 287 79 41 5 1846 8 4039 7 3772 -1 3969 -2 4039 -19z M4397 8649 c-113 -12
-218 -43 -316 -94 -159 -83 -310 -237 -394 -404 -96 -188 -87 123 -87 -2848
l0 -2629 24 -70 c94 -277 288 -499 512 -586 253 -98 549 -72 758 67 166 110
300 294 374 511 49 143 52 210 52 1086 l0 818 558 0 c323 0 592 4 640 10 323
41 560 238 694 577 30 75 32 85 36 262 4 213 0 235 -68 376 -101 209 -280 371
-485 440 -121 41 -197 45 -786 45 l-559 0 0 370 0 369 728 3 c813 4 770 1 927
77 174 86 319 253 403 466 50 126 54 157 50 346 l-4 174 -37 95 c-52 130 -105
208 -217 321 -83 84 -108 102 -190 142 -180 86 -86 81 -1385 83 -632 1 -1185
-2 -1228 -7z m2452 -261 c100 -31 164 -70 237 -142 230 -230 230 -641 0 -870
-74 -73 -138 -110 -242 -136 -74 -19 -113 -20 -911 -20 l-833 0 0 -630 0 -630
705 0 c787 0 795 -1 934 -67 54 -26 93 -55 145 -107 114 -114 166 -244 166
-416 0 -264 -156 -484 -404 -567 l-81 -28 -732 -3 -732 -3 -4 -1007 c-3 -920
-4 -1013 -20 -1072 -62 -228 -221 -387 -447 -447 -88 -23 -272 -23 -360 0
-210 55 -354 191 -432 407 l-23 65 -3 2560 c-2 2529 -2 2561 18 2639 25 100
55 165 113 243 100 134 263 224 447 246 19 2 568 3 1220 3 1072 -2 1190 -3
1239 -18z"/>
</g>
</svg>
