<?xml version="1.0" standalone="no"?>
<!DOCTYPE svg PUBLIC "-//W3C//DTD SVG 20010904//EN"
 "http://www.w3.org/TR/2001/REC-SVG-20010904/DTD/svg10.dtd">
<svg version="1.0" xmlns="http://www.w3.org/2000/svg"
 width="2048.000000pt" height="2048.000000pt" viewBox="0 0 2048.000000 2048.000000"
 preserveAspectRatio="xMidYMid meet">
<metadata>
Created by potrace 1.13, written by Peter Selinger 2001-2015
</metadata>
<g transform="translate(0.000000,2048.000000) scale(0.192120,-0.192120)"
fill="#000000" stroke="none">
<path d="M1237 8924 c-372 -67 -701 -341 -834 -694 -73 -197 -67 71 -70 -2855
-3 -2377 -2 -2639 12 -2728 38 -232 143 -435 310 -602 141 -142 329 -248 524
-298 l86 -22 4065 0 4065 0 86 22 c377 96 676 375 797 743 54 166 52 29 52
2840 0 2811 2 2674 -52 2840 -110 335 -370 601 -699 713 -177 61 127 57 -4258
56 -3411 -1 -4018 -3 -4084 -15z m217 -111 c122 -85 3742 -2699 3808 -2750 31
-23 62 -43 68 -43 7 0 29 13 49 29 44 34 3712 2684 3827 2764 45 31 86 57 92
57 6 0 32 -28 58 -61 38 -50 59 -67 111 -90 34 -16 93 -43 129 -59 109 -49
192 -112 314 -235 104 -105 125 -121 224 -172 l108 -56 -33 -26 c-39 -31
-3892 -2816 -3917 -2831 -16 -9 -16 -11 0 -20 37 -22 3861 -2786 3926 -2838
l24 -19 -110 -57 c-96 -50 -120 -68 -207 -158 -147 -151 -233 -209 -405 -273
-76 -28 -126 -69 -191 -155 -24 -33 -28 -34 -51 -22 -19 11 -3185 2293 -3796
2738 -79 57 -148 104 -153 104 -6 0 -36 -20 -67 -43 -66 -51 -3686 -2665
-3810 -2751 -45 -32 -89 -56 -96 -53 -8 3 -33 33 -56 66 -43 65 -59 76 -194
131 -116 48 -217 121 -344 247 -101 101 -123 117 -219 165 -59 29 -108 58
-110 63 -1 6 19 26 45 46 65 49 3773 2726 3844 2775 32 21 57 41 57 44 0 3
-25 23 -57 44 -67 47 -3689 2661 -3809 2750 -45 34 -81 66 -80 71 2 6 52 35
112 65 98 49 119 65 200 148 117 122 198 180 375 272 132 68 149 80 188 133
24 31 48 57 54 57 6 0 47 -26 92 -57z m7044 -169 c51 -14 17 -57 -138 -176
-221 -169 -2912 -2106 -2960 -2131 -67 -34 -99 -31 -175 18 -64 40 -2706 1947
-2895 2089 -74 56 -147 113 -162 127 -32 30 -37 65 -10 72 26 7 6314 8 6340 1z
m-7628 -1090 c1757 -1263 3045 -2202 3048 -2221 2 -14 -10 -34 -39 -61 -23
-22 -669 -494 -1437 -1049 -1784 -1288 -1791 -1293 -1808 -1293 -12 0 -14 325
-14 2396 0 2278 1 2396 17 2389 10 -3 115 -76 233 -161z m9150 -2235 l0 -2390
-31 18 c-40 24 -3091 2227 -3174 2293 -76 59 -90 90 -54 125 13 12 728 531
1589 1152 1705 1230 1652 1192 1663 1193 4 0 7 -1076 7 -2391z m-4627 -1005
c17 -9 79 -51 137 -93 1255 -903 2961 -2138 2978 -2158 40 -45 16 -55 -150
-65 -181 -11 -6166 -5 -6195 6 -37 14 -37 38 -1 71 44 41 3006 2179 3077 2222
62 37 105 42 154 17z"/>
</g>
</svg>
