<?xml version="1.0" standalone="no"?>
<!DOCTYPE svg PUBLIC "-//W3C//DTD SVG 20010904//EN"
 "http://www.w3.org/TR/2001/REC-SVG-20010904/DTD/svg10.dtd">
<svg version="1.0" xmlns="http://www.w3.org/2000/svg"
 width="2048.000000pt" height="2048.000000pt" viewBox="0 0 2048.000000 2048.000000"
 preserveAspectRatio="xMidYMid meet">
<metadata>
Created by potrace 1.13, written by Peter Selinger 2001-2015
</metadata>
<g transform="translate(0.000000,2048.000000) scale(0.192120,-0.192120)"
fill="#000000" stroke="none">
<path d="M1247 8924 c-399 -72 -736 -366 -863 -751 -50 -153 -54 -219 -54
-860 l0 -593 1945 0 1945 0 0 -1017 c0 -1115 0 -1111 59 -1287 55 -161 163
-332 273 -431 l50 -45 -2136 0 -2136 0 0 -592 c0 -339 5 -623 10 -663 25 -177
91 -345 189 -488 61 -88 184 -212 272 -274 91 -65 251 -139 366 -171 l98 -27
4065 0 4065 0 98 27 c413 114 710 423 814 847 14 56 17 159 20 704 l4 637
-2134 0 -2134 0 71 73 c151 153 252 354 290 576 14 83 16 220 16 1113 l0 1018
1946 0 1945 0 -4 638 c-3 544 -6 647 -20 703 -55 224 -149 396 -302 551 -137
138 -317 242 -512 296 l-98 27 -4035 2 c-3449 1 -4046 -1 -4113 -13z m8188
-260 c171 -51 290 -120 396 -231 119 -124 174 -219 219 -379 l30 -107 0 -484
c0 -476 0 -483 -20 -483 -11 0 -20 -7 -20 -15 0 -13 -198 -15 -1607 -17 -1178
-3 -1617 -7 -1643 -15 -47 -15 -190 -46 -195 -42 -2 2 32 81 75 174 l78 170
-18 30 c-9 17 -54 100 -100 185 -46 85 -84 156 -85 157 -1 2 -80 -29 -176 -67
-95 -39 -179 -68 -185 -66 -7 3 -61 67 -121 143 -59 76 -111 140 -114 143 -3
3 -77 -39 -163 -92 -87 -54 -162 -98 -166 -98 -5 0 -42 30 -82 68 -40 37 -104
93 -141 126 l-67 58 -62 -55 c-35 -30 -99 -87 -143 -126 -43 -39 -83 -71 -87
-71 -5 0 -77 43 -161 96 -83 52 -155 96 -158 97 -4 1 -57 -62 -119 -141 -62
-79 -117 -145 -124 -148 -6 -2 -90 27 -185 66 -96 38 -175 69 -176 67 -1 -1
-35 -63 -75 -137 -40 -74 -85 -157 -100 -185 l-28 -50 78 -170 c43 -93 74
-172 69 -173 -11 -4 -112 24 -149 41 -19 9 -438 13 -1627 15 -1407 2 -1603 4
-1603 17 0 11 -11 15 -40 15 l-41 0 3 563 3 562 23 49 c118 244 269 389 494
476 162 63 -143 58 4238 56 l4005 -1 70 -21z m-3978 -1049 l118 -105 -19 -227
-19 -228 -207 0 -207 0 -19 227 -19 227 118 106 c65 58 122 105 127 105 5 0
62 -47 127 -105z m-1132 -165 c61 -24 115 -48 121 -54 17 -16 128 -436 118
-445 -5 -4 -45 -18 -89 -31 -44 -13 -123 -41 -175 -62 -52 -21 -99 -38 -105
-38 -11 0 -195 386 -195 409 0 12 88 184 132 258 19 32 20 32 51 19 18 -7 82
-32 142 -56z m527 33 l33 -19 3 -171 c3 -192 10 -176 -79 -188 -69 -9 -90 13
-128 132 -56 177 -51 221 29 261 46 22 85 18 142 -15z m1743 -120 c36 -67 65
-127 65 -134 0 -7 -42 -102 -92 -211 -81 -173 -96 -198 -113 -194 -11 2 -72
24 -135 48 -63 25 -137 51 -165 58 -27 7 -54 16 -59 21 -4 4 18 106 50 227
l59 220 150 60 c136 54 151 58 163 43 7 -9 42 -71 77 -138z m-619 112 c36 -34
37 -36 30 -88 -7 -61 -50 -201 -72 -234 -28 -44 -55 -54 -114 -43 -30 6 -58
16 -62 23 -4 6 -8 82 -8 167 l0 156 53 26 c77 39 126 37 173 -7z m-236 -518
c47 -9 117 -23 155 -31 149 -32 445 -130 445 -147 0 -20 -64 -8 -105 21 -24
16 -54 34 -67 39 -13 5 -123 14 -243 21 -298 17 -336 8 -457 -106 -55 -52 -78
-81 -78 -98 0 -8 -7 -16 -15 -20 -11 -4 -15 -22 -15 -76 l0 -70 -30 0 -30 0 0
69 c0 52 -4 70 -15 75 -8 3 -15 13 -15 21 0 27 -144 163 -197 188 -55 25 -139
28 -413 15 -178 -9 -175 -5 26 47 115 30 246 54 364 69 89 10 608 -2 690 -17z
m-1300 -147 c-60 -37 -120 -52 -120 -31 0 8 151 69 175 70 6 1 -19 -17 -55
-39z m610 -370 l0 -280 280 0 280 0 0 280 0 280 278 0 277 0 -2 -277 -2 -278
-276 -3 -275 -2 0 -275 0 -275 278 0 277 0 0 -280 0 -280 -277 0 -278 0 0
-275 0 -275 250 0 c165 0 250 -4 250 -10 0 -17 -60 -131 -100 -190 -69 -101
-201 -215 -315 -273 -94 -47 -87 -66 -85 221 l1 252 -281 0 -281 0 1 -252 c2
-285 8 -267 -75 -226 -155 78 -301 220 -377 365 -27 50 -48 95 -48 102 0 8 71
11 250 11 l250 0 0 275 0 275 -277 0 -278 0 0 280 0 280 278 0 277 0 0 275 0
275 -275 2 -276 3 -2 278 -2 277 278 0 277 0 0 -280z m-537 -524 c24 -19 21
-45 -8 -72 l-25 -23 0 54 c0 58 4 63 33 41z m1647 -32 c0 -24 -4 -34 -12 -32
-18 6 -22 49 -6 59 18 12 18 13 18 -27z m-1580 -1124 c0 -21 -77 -93 -90 -85
-6 4 -10 37 -10 75 l0 69 50 -21 c33 -14 50 -27 50 -38z m1580 -10 c0 -68 -9
-74 -52 -33 -38 37 -36 58 10 76 20 9 38 16 40 16 1 1 2 -26 2 -59z m-800
-578 c0 -26 6 -56 14 -67 7 -11 16 -31 19 -45 15 -60 141 -167 223 -189 50
-13 113 1 231 53 45 20 95 36 112 36 32 0 81 -18 81 -31 0 -4 -17 -21 -37 -37
-387 -304 -960 -304 -1344 0 l-52 41 33 13 c51 22 84 17 193 -30 56 -24 119
-47 139 -50 52 -9 106 9 171 58 50 37 116 113 117 133 1 5 9 26 20 48 11 22
19 57 20 78 0 34 2 37 30 37 29 0 30 -1 30 -48z m-581 -551 c214 -101 341
-131 551 -131 215 0 338 30 564 138 l139 66 86 -20 c83 -18 145 -19 1999 -22
l1912 -2 0 -539 0 -539 -25 -67 c-53 -140 -161 -274 -290 -360 -148 -98 -275
-133 -525 -145 -244 -12 -7559 -12 -7755 0 -170 10 -273 33 -382 84 -203 96
-358 265 -424 458 -18 54 -19 90 -19 582 l0 526 1933 3 c1762 3 1937 5 1987
20 30 9 70 14 89 12 19 -2 91 -31 160 -64z M5050 5330 l0 -280 280 0 280 0 0
280 0 280 -280 0 -280 0 0 -280z M10317 6553 c-5 -13 -12 -23 -17 -23 -5 0
-12 -16 -16 -35 -3 -19 -10 -38 -15 -41 -5 -3 -9 -484 -9 -1124 l0 -1119 33
-61 32 -62 3 621 c3 937 -2 1869 -11 1844z M331 5330 c0 -1088 1 -1233 14
-1216 8 11 15 26 15 33 0 7 3 13 8 13 31 0 32 53 32 1171 0 735 -3 1120 -10
1124 -5 3 -10 15 -10 26 0 10 -4 19 -10 19 -5 0 -10 6 -10 13 0 7 -7 22 -15
33 -13 17 -14 -128 -14 -1216z"/>
</g>
</svg>
