<?xml version="1.0" standalone="no"?>
<!DOCTYPE svg PUBLIC "-//W3C//DTD SVG 20010904//EN"
 "http://www.w3.org/TR/2001/REC-SVG-20010904/DTD/svg10.dtd">
<svg version="1.0" xmlns="http://www.w3.org/2000/svg"
 width="2048.000000pt" height="2048.000000pt" viewBox="0 0 2048.000000 2048.000000"
 preserveAspectRatio="xMidYMid meet">
<metadata>
Created by potrace 1.13, written by Peter Selinger 2001-2015
</metadata>
<g transform="translate(0.000000,2048.000000) scale(0.192120,-0.192120)"
fill="#000000" stroke="none">
<path d="M1247 8924 c-399 -72 -737 -366 -862 -751 -58 -176 -55 -35 -55
-2838 0 -1657 4 -2605 10 -2650 25 -177 91 -345 189 -488 61 -88 184 -212 272
-274 91 -65 251 -139 366 -171 l98 -27 1198 -3 1197 -3 0 3611 0 3610 -1167
-1 c-961 -1 -1182 -3 -1246 -15z m2123 -3604 l0 -3321 -1042 4 -1043 3 -80 23
c-286 82 -497 273 -579 526 -15 46 -16 281 -14 2795 l3 2745 43 88 c111 227
341 392 615 442 56 10 301 13 1085 14 l1012 1 0 -3320z M3833 8920 c14 -11 30
-20 35 -20 6 0 18 -8 28 -17 17 -17 99 -18 1439 -18 1340 0 1422 1 1439 18 10
9 21 17 26 17 5 0 24 9 42 20 l33 20 -1534 0 -1534 0 26 -20z M7000 5330 l0
-3611 1198 3 1197 3 98 27 c201 55 375 158 518 305 161 165 256 346 301 573
20 100 19 5304 -1 5405 -71 355 -298 646 -626 801 -52 25 -138 57 -192 72
l-98 27 -1197 3 -1198 3 0 -3611z m2420 3308 c291 -71 513 -250 605 -486 l26
-67 -3 -2765 -3 -2765 -30 -70 c-39 -87 -119 -207 -177 -261 -103 -97 -249
-176 -399 -216 -84 -22 -85 -22 -1136 -25 l-1053 -4 0 3341 0 3341 1053 -4
c923 -3 1060 -5 1117 -19z M3930 1792 c0 -4 -17 -14 -37 -21 -21 -8 -49 -22
-62 -32 -23 -19 14 -19 1510 -19 l1534 0 -33 20 c-18 11 -51 26 -72 32 -22 7
-40 16 -40 20 0 5 -630 8 -1400 8 -770 0 -1400 -4 -1400 -8z"/>
</g>
</svg>
