<?xml version="1.0" standalone="no"?>
<!DOCTYPE svg PUBLIC "-//W3C//DTD SVG 20010904//EN"
 "http://www.w3.org/TR/2001/REC-SVG-20010904/DTD/svg10.dtd">
<svg version="1.0" xmlns="http://www.w3.org/2000/svg"
 width="2048.000000pt" height="2048.000000pt" viewBox="0 0 2048.000000 2048.000000"
 preserveAspectRatio="xMidYMid meet">
<metadata>
Created by potrace 1.13, written by Peter Selinger 2001-2015
</metadata>
<g transform="translate(0.000000,2048.000000) scale(0.192120,-0.192120)"
fill="#000000" stroke="none">
<path d="M1247 8924 c-399 -72 -737 -366 -862 -751 -58 -176 -55 -35 -55
-2838 0 -1657 4 -2605 10 -2650 25 -177 91 -345 189 -488 61 -88 184 -212 272
-274 91 -65 251 -139 366 -171 l98 -27 4065 0 4065 0 98 27 c422 117 734 449
818 873 21 105 21 5305 0 5410 -71 355 -298 646 -626 801 -52 25 -138 57 -192
72 l-98 27 -4035 2 c-3449 1 -4046 -1 -4113 -13z m8061 -284 c283 -32 516
-167 650 -378 82 -127 82 -129 82 -619 l0 -433 -4720 0 -4720 0 0 418 c0 456
0 459 62 577 89 173 267 320 468 388 67 23 143 39 235 50 72 9 7866 6 7943 -3z
m957 -1652 c6 -6 -83 -150 -97 -156 -4 -2 -10 -19 -14 -38 -3 -19 -10 -34 -15
-34 -5 0 -9 -607 -9 -1440 0 -792 4 -1440 8 -1440 4 0 13 -12 20 -27 12 -29
26 -51 80 -127 19 -26 31 -50 27 -54 -9 -10 -9862 -9 -9871 1 -4 4 7 26 25 50
17 23 44 67 59 97 15 30 30 57 34 58 11 5 10 2882 -1 2882 -5 0 -12 15 -15 33
-3 17 -29 66 -56 107 -27 41 -50 78 -50 82 0 4 15 9 33 11 55 7 9835 2 9842
-5z m-225 -3980 c0 -430 -1 -439 -45 -542 -28 -66 -109 -178 -172 -238 -113
-107 -243 -174 -418 -214 -77 -18 -220 -19 -4070 -19 -3237 0 -4002 2 -4055
13 -274 55 -482 198 -600 413 -79 143 -80 150 -80 600 l0 399 4720 0 4720 0 0
-412z M3316 6739 c-60 -4 -119 -10 -131 -13 -12 -3 -54 -10 -93 -16 -100 -14
-204 -62 -236 -109 -30 -42 -36 -75 -8 -43 42 51 209 108 407 138 170 27 648
27 813 1 201 -32 346 -79 399 -129 31 -29 30 -4 -1 37 -75 98 -357 147 -831
143 -115 0 -259 -4 -319 -9z M2853 6403 c-36 -82 -14 -203 46 -257 20 -18 20
-18 10 15 -10 32 -13 108 -6 116 2 2 41 -7 86 -20 62 -18 83 -21 89 -12 5 9
31 8 112 -6 58 -9 183 -21 278 -25 158 -6 172 -8 172 -25 0 -22 -12 -22 198
-9 224 14 335 30 471 71 90 27 111 25 111 -7 0 -49 -35 -90 -92 -107 -103 -32
-155 -39 -313 -42 -88 -2 -181 -7 -207 -10 -85 -12 -137 -65 -152 -156 l-6
-37 -137 -7 c-76 -4 -261 -5 -410 -2 l-273 5 0 -419 0 -419 415 0 415 0 0 -42
c0 -61 33 -122 78 -145 34 -16 66 -18 359 -18 l323 0 0 -181 0 -180 -46 -95
c-83 -172 -239 -297 -444 -357 -392 -116 -828 40 -979 351 -58 120 -101 303
-101 435 0 48 -4 72 -12 72 -17 0 -2 -219 22 -315 70 -280 285 -506 565 -595
108 -35 321 -40 434 -10 270 69 483 258 579 512 40 109 52 168 52 267 0 96 11
243 18 236 3 -3 11 0 19 6 7 6 13 8 13 4 0 -4 18 7 39 24 28 22 41 28 45 19 5
-10 7 -10 12 0 9 19 24 14 24 -8 0 -11 5 -20 10 -20 6 0 10 -95 10 -265 0
-170 4 -265 10 -265 6 0 10 -18 10 -40 0 -22 5 -40 10 -40 6 0 10 -6 10 -13 0
-8 11 -27 25 -43 l25 -29 0 751 c0 413 -3 753 -6 757 -4 3 -17 -1 -30 -9 -13
-9 -28 -13 -34 -9 -6 3 -10 -3 -10 -15 0 -20 -1 -20 -25 -4 -14 9 -25 25 -25
35 0 11 -4 19 -9 19 -6 0 -19 17 -31 38 -12 20 -45 55 -73 77 l-51 40 -117 0
-116 0 61 41 c73 49 152 131 172 179 19 46 18 135 -2 185 -9 22 -18 40 -20 40
-3 0 -15 -7 -28 -15 -39 -26 -167 -65 -276 -85 -314 -56 -764 -50 -1047 15
-78 18 -200 62 -209 76 -11 18 -25 8 -41 -28z m1647 -933 l0 -420 -420 0 -420
0 0 420 0 420 420 0 420 0 0 -420z m-1080 -15 l0 -235 -205 0 -205 0 0 235 0
235 205 0 205 0 0 -235z M2273 6154 c-2 -5 -2 -68 -1 -140 l3 -129 138 -3 137
-3 0 143 0 143 -136 0 c-86 0 -138 -4 -141 -11z M4773 6154 c-2 -5 -2 -68 -1
-140 l3 -129 138 0 c75 0 137 3 137 8 0 4 0 67 0 140 l0 132 -136 0 c-86 0
-138 -4 -141 -11z M2226 5805 c-9 -7 -16 -17 -16 -24 0 -6 -4 -11 -10 -11 -7
0 -10 -235 -10 -685 0 -450 3 -685 10 -685 6 0 10 -7 10 -15 0 -8 4 -15 9 -15
5 0 12 -9 16 -19 3 -11 12 -22 20 -25 13 -5 15 91 15 743 0 792 1 769 -44 736z
M2556 5768 c-8 -72 -5 -1386 3 -1423 l8 -30 13 28 c7 15 17 27 22 27 4 0 8 7
8 15 0 8 5 15 10 15 7 0 10 234 10 681 0 451 -3 678 -10 674 -5 -3 -10 1 -10
9 0 14 -33 56 -44 56 -2 0 -6 -24 -10 -52z M5056 5768 c-8 -72 -5 -1386 3
-1423 l8 -30 13 28 c7 15 17 27 22 27 4 0 8 7 8 15 0 8 5 15 10 15 7 0 10 235
10 686 0 454 -3 683 -10 679 -5 -3 -10 3 -10 15 0 12 -5 18 -10 15 -6 -3 -13
1 -16 9 -11 29 -21 16 -28 -36z M1997 4083 l2 -138 416 -3 415 -2 0 140 0 140
-417 0 -418 0 2 -137z M4500 4080 l0 -140 415 0 415 0 0 140 0 140 -415 0
-415 0 0 -140z"/>
</g>
</svg>
