<?xml version="1.0" standalone="no"?>
<!DOCTYPE svg PUBLIC "-//W3C//DTD SVG 20010904//EN"
 "http://www.w3.org/TR/2001/REC-SVG-20010904/DTD/svg10.dtd">
<svg version="1.0" xmlns="http://www.w3.org/2000/svg"
 width="2048.000000pt" height="2048.000000pt" viewBox="0 0 2048.000000 2048.000000"
 preserveAspectRatio="xMidYMid meet">
<metadata>
Created by potrace 1.13, written by Peter Selinger 2001-2015
</metadata>
<g transform="translate(0.000000,2048.000000) scale(0.192120,-0.192120)"
fill="#000000" stroke="none">
<path d="M5750 8940 c25 -4 66 -16 92 -26 47 -18 49 -18 100 0 29 11 73 23 98
26 25 4 -40 7 -145 7 -120 0 -173 -2 -145 -7z M1247 8924 c-399 -72 -737 -366
-862 -751 -56 -170 -55 -138 -55 -1690 l0 -1433 1680 0 1679 0 6 -37 c21 -121
74 -281 136 -403 60 -119 58 -118 109 -89 24 13 52 36 64 52 20 27 20 28 2 78
-10 28 -40 93 -67 145 -26 51 -57 125 -69 163 -24 83 -50 106 -128 117 -29 4
-54 10 -57 14 -2 4 -9 59 -16 123 -10 109 -2 305 17 374 l6 23 -1675 2 -1676
3 41 60 c23 33 48 67 56 75 27 27 52 94 52 143 0 54 -25 112 -89 202 l-42 60
38 7 c21 4 816 7 1768 8 l1730 1 34 58 c97 170 359 428 524 516 l37 20 1 1035
c0 569 3 1052 7 1073 l7 38 93 -62 c144 -95 187 -94 343 11 l104 70 3 -981 2
-981 23 6 c69 19 265 27 374 17 64 -7 120 -14 125 -17 4 -3 8 -22 8 -42 1 -45
22 -106 45 -132 67 -74 413 -150 479 -106 35 22 60 71 43 84 -19 15 -145 77
-217 106 -66 27 -213 69 -282 81 l-38 6 0 984 0 985 -2142 -1 c-1803 -1 -2155
-3 -2221 -15z m2983 -1196 l-1 -913 -42 -32 c-53 -41 -169 -152 -270 -261 -43
-46 -94 -90 -112 -98 -29 -12 -271 -14 -1615 -14 l-1580 0 2 843 3 842 43 86
c75 152 193 269 352 353 76 40 209 83 295 95 33 5 705 9 1493 10 l1432 1 0
-912z M6160 7888 c0 -579 3 -1069 6 -1088 5 -29 14 -40 52 -61 76 -42 170
-117 271 -214 93 -89 228 -258 259 -322 l16 -33 1730 -1 c952 0 1748 -3 1769
-7 l38 -7 -40 -58 c-99 -141 -114 -210 -65 -303 14 -27 29 -51 33 -54 11 -7
81 -113 81 -122 0 -5 -752 -8 -1671 -8 l-1671 0 6 -22 c19 -70 27 -266 17
-375 -7 -64 -14 -119 -16 -123 -2 -4 -28 -10 -57 -13 -75 -9 -99 -31 -125
-112 -13 -38 -47 -121 -77 -184 -30 -64 -57 -130 -60 -147 -10 -46 8 -80 60
-110 46 -27 47 -27 61 -8 56 72 156 333 183 477 l11 57 1680 0 1680 0 -4 1473
c-3 1329 -5 1478 -20 1538 -56 226 -149 396 -302 551 -137 138 -317 242 -512
296 l-98 27 -1617 3 -1618 2 0 -1052z m3282 725 c258 -73 443 -214 541 -411
l42 -85 3 -854 2 -853 -1574 0 c-1057 0 -1584 3 -1603 10 -15 6 -98 82 -183
169 -85 87 -173 173 -195 191 l-40 34 -3 913 -2 914 1467 -3 1468 -3 77 -22z
M4904 6940 c-175 -47 -360 -130 -350 -156 3 -9 6 -17 6 -20 0 -12 65 -34 102
-34 58 0 261 55 303 83 36 23 65 78 65 122 0 31 -24 32 -126 5z M5303 6743
l-19 -68 -79 3 c-91 4 -91 -3 -4 -58 27 -18 49 -36 49 -41 0 -4 -11 -38 -24
-74 -13 -36 -20 -65 -16 -65 4 0 30 18 58 40 27 22 55 40 62 40 6 0 35 -18 63
-40 29 -21 53 -36 55 -32 1 5 -7 34 -18 67 -11 32 -20 61 -20 66 0 4 22 21 49
39 87 55 87 62 -4 58 l-79 -3 -19 68 c-11 37 -23 67 -27 67 -4 0 -16 -30 -27
-67z M4496 6468 c23 -62 24 -73 11 -82 -8 -6 -37 -27 -63 -46 l-49 -35 80 -5
79 -5 21 -70 c12 -38 24 -65 27 -60 3 6 14 38 23 72 l17 62 82 3 81 3 -62 43
c-35 23 -63 48 -63 55 0 7 9 36 20 66 12 29 20 57 18 62 -2 4 -29 -12 -62 -36
l-58 -44 -58 44 c-32 25 -61 45 -64 45 -3 0 6 -32 20 -72z M5940 6533 c0 -6 9
-36 20 -68 11 -32 20 -62 20 -66 0 -5 -28 -28 -62 -51 l-63 -43 81 -3 82 -3
18 -65 c9 -36 20 -67 24 -69 3 -2 16 29 28 70 l22 73 75 -5 c41 -3 75 -3 75 0
0 3 -24 22 -52 43 -29 21 -57 41 -61 45 -5 4 3 39 17 78 14 39 23 71 20 71 -3
0 -32 -20 -64 -45 -57 -44 -58 -44 -81 -27 -80 61 -99 73 -99 65z M5005 6415
c-39 -17 -59 -40 -138 -157 -92 -135 -98 -185 -35 -276 l33 -47 6 -210 c6
-182 10 -222 32 -300 39 -140 65 -200 105 -245 31 -35 45 -43 84 -47 l47 -6 6
-46 c3 -25 8 -62 11 -83 l5 -36 -78 24 c-142 44 -211 27 -314 -75 -57 -58 -59
-61 -59 -113 0 -51 2 -56 48 -99 66 -64 97 -83 177 -109 39 -12 108 -38 155
-58 71 -29 97 -35 157 -34 93 1 128 18 203 100 33 36 62 63 64 61 2 -2 22 -54
44 -116 49 -134 72 -181 104 -209 58 -52 92 -33 93 52 1 33 5 67 10 77 4 11 5
78 1 150 l-6 132 41 -45 40 -45 -5 215 c-8 303 -36 505 -98 700 -38 118 -68
179 -115 231 -106 118 -284 129 -388 25 -35 -35 -45 -55 -55 -102 -20 -94 -9
-177 33 -261 36 -70 104 -188 142 -247 l19 -29 -21 12 c-29 15 -33 14 -33 -6
0 -10 -12 -54 -27 -98 l-26 -80 -69 75 c-78 84 -158 229 -161 293 -1 22 -7 37
-14 37 -8 0 -13 15 -13 39 0 22 -5 41 -12 43 -8 3 -11 20 -10 46 3 32 -1 43
-17 51 l-21 11 22 45 c21 44 21 45 3 59 -18 13 -18 14 3 41 21 27 21 29 5 47
-16 18 -14 21 32 68 27 28 43 50 35 50 -9 0 -5 9 10 26 18 19 31 24 50 19 17
-4 21 -3 11 4 -10 7 -6 10 17 16 47 10 120 79 128 121 10 54 -7 82 -45 76 -37
-5 -61 12 -61 44 0 29 -10 35 -65 37 -52 2 -56 13 -17 49 37 36 72 48 142 48
71 0 102 -11 156 -56 23 -19 46 -34 51 -34 4 0 13 -10 18 -22 6 -13 25 -30 43
-38 27 -12 31 -19 27 -39 -5 -18 1 -30 26 -50 29 -24 30 -29 19 -48 -12 -19
-10 -26 14 -58 21 -27 25 -40 17 -48 -6 -6 -11 -15 -11 -19 0 -17 31 -7 62 21
30 27 33 34 32 88 -1 71 -36 150 -94 210 -50 51 -81 66 -195 93 -49 12 -135
32 -190 46 -112 27 -146 28 -190 9z m62 -197 c55 -60 79 -138 54 -177 -8 -12
-14 -13 -35 -3 -14 6 -26 16 -26 22 0 6 -4 8 -10 5 -5 -3 -10 -17 -10 -31 0
-38 -26 -28 -49 19 -32 65 -24 144 16 175 24 17 37 15 60 -10z m411 -599 c47
-16 78 -77 118 -227 15 -56 20 -347 7 -355 -5 -3 -18 -1 -30 4 -32 12 -53 71
-53 149 0 37 -5 82 -11 101 -11 35 -15 43 -69 163 -21 49 -30 83 -30 122 0 60
7 64 68 43z m-155 -737 c15 -2 30 -8 33 -13 3 -5 13 -9 23 -9 10 0 24 -7 31
-15 7 -8 20 -15 29 -15 10 0 37 -10 62 -22 24 -11 73 -24 108 -28 85 -9 109
-40 79 -105 -15 -32 -44 -32 -107 0 -27 13 -69 29 -94 36 -42 10 -49 9 -73
-10 -27 -21 -55 -27 -67 -14 -4 3 -23 6 -42 6 -19 0 -38 -3 -42 -6 -3 -4 -26
-7 -50 -7 -33 0 -50 6 -69 25 -34 34 -143 57 -207 43 -75 -16 -100 -9 -114 32
-16 50 0 71 68 87 68 15 137 16 195 2 37 -10 47 -9 62 4 17 15 103 28 132 19
8 -3 27 -7 43 -10z m137 -31 c0 -11 -3 -11 -14 -1 -8 6 -12 18 -9 27 5 12 7
12 14 1 5 -7 9 -19 9 -27z M5192 6229 c2 -6 8 -10 13 -10 5 0 11 4 13 10 2 6
-4 11 -13 11 -9 0 -15 -5 -13 -11z M3824 6039 c-44 -89 -111 -286 -120 -358
l-7 -54 39 7 c21 5 47 12 57 18 20 10 47 65 47 94 0 10 21 69 47 133 26 64 47
131 47 148 0 34 -36 83 -61 83 -7 0 -29 -32 -49 -71z M6747 6082 c-37 -38 -34
-68 13 -174 23 -50 48 -118 57 -151 8 -34 22 -71 30 -83 15 -23 61 -44 96 -44
18 0 19 5 13 53 -16 117 -138 427 -169 427 -7 0 -25 -13 -40 -28z M4120 5884
l-22 -76 -74 7 c-41 4 -74 3 -74 -1 0 -7 48 -44 112 -85 5 -3 -3 -36 -17 -74
-14 -37 -23 -70 -21 -73 3 -2 31 16 63 41 l59 45 59 -44 c32 -24 60 -42 62
-41 2 2 -6 30 -17 62 -11 32 -20 64 -20 71 0 7 27 32 60 54 33 22 60 43 60 47
0 3 -35 3 -78 -1 l-79 -7 -22 75 c-12 42 -23 76 -25 76 -2 0 -13 -34 -26 -76z
M5153 5953 c9 -2 23 -2 30 0 6 3 -1 5 -18 5 -16 0 -22 -2 -12 -5z M6489 5886
l-24 -78 -72 6 c-42 4 -73 3 -73 -2 0 -5 25 -26 55 -46 30 -20 55 -42 55 -50
0 -7 -9 -39 -20 -71 -11 -32 -19 -60 -17 -62 2 -1 30 17 62 41 l59 44 57 -44
c32 -24 60 -44 63 -44 2 0 -6 32 -20 72 -13 39 -20 74 -15 77 64 42 111 78
111 85 0 4 -33 5 -73 2 l-73 -7 -25 78 -26 78 -24 -79z M4020 5146 c0 -3 11
-36 25 -73 14 -36 22 -69 18 -73 -5 -4 -33 -24 -63 -46 l-55 -39 77 -3 77 -3
21 -69 c12 -39 23 -70 25 -70 2 0 14 32 26 70 l21 70 74 0 c41 0 74 3 74 8 0
4 -27 25 -59 46 l-59 40 25 69 c13 38 23 70 21 72 -2 2 -30 -16 -62 -40 l-59
-44 -44 32 c-71 52 -83 60 -83 53z M6390 5144 c0 -3 11 -37 24 -73 l24 -67
-59 -40 c-32 -21 -59 -42 -59 -46 0 -5 33 -8 74 -8 l75 0 16 -57 c9 -32 18
-65 22 -73 3 -9 15 15 30 57 l24 72 77 3 77 3 -49 35 c-26 19 -55 40 -63 45
-12 9 -10 21 12 79 14 38 24 70 22 72 -2 2 -30 -16 -63 -40 -50 -38 -62 -43
-76 -33 -10 7 -38 27 -63 45 -25 18 -45 30 -45 26z M10320 4871 c0 -5 -8 -17
-17 -27 -27 -26 -24 -119 5 -164 l22 -35 0 118 c0 64 -2 117 -5 117 -3 0 -5
-4 -5 -9z M330 4770 c0 -62 4 -100 10 -100 6 0 13 14 17 30 3 17 9 30 14 30
16 0 9 55 -11 98 -11 23 -23 42 -25 42 -3 0 -5 -45 -5 -100z M4572 4494 l-22
-74 -77 0 -76 0 59 -42 c32 -23 61 -43 63 -44 2 -2 -8 -35 -22 -74 -15 -38
-24 -70 -20 -70 3 0 30 18 59 40 29 22 57 40 62 40 5 0 33 -19 61 -41 29 -23
55 -39 58 -35 3 3 -4 31 -16 62 -11 31 -21 62 -21 69 0 7 27 30 60 51 l60 39
-77 5 -77 5 -21 67 c-12 37 -23 69 -26 72 -2 2 -14 -29 -27 -70z M6035 4492
l-20 -67 -75 -5 -75 -5 58 -39 c31 -21 57 -45 57 -52 0 -7 -9 -37 -20 -65 -12
-28 -19 -56 -18 -61 2 -5 28 9 57 32 30 22 58 40 63 40 5 0 33 -18 62 -40 29
-22 56 -40 59 -40 3 0 -5 29 -18 65 -14 36 -25 69 -25 73 0 4 27 25 60 47 33
22 60 42 60 45 0 3 -34 5 -76 5 l-77 0 -20 68 c-11 37 -23 67 -26 67 -3 0 -15
-30 -26 -68z M330 3628 c0 -525 4 -901 10 -943 25 -175 96 -357 193 -494 62
-88 186 -211 274 -272 99 -68 242 -134 360 -167 l98 -27 2173 -3 2172 -2 0
984 0 985 38 6 c128 22 319 89 437 154 78 42 81 52 39 108 -40 53 -89 52 -292
-2 -190 -51 -239 -91 -249 -206 -3 -33 -9 -62 -13 -64 -4 -2 -59 -9 -123 -16
-109 -10 -305 -2 -374 17 l-23 6 -2 -982 -3 -982 -80 57 c-44 32 -98 66 -120
76 -45 21 -110 24 -152 8 -15 -6 -30 -11 -33 -12 -3 -1 -39 -26 -80 -55 l-75
-54 -7 38 c-4 22 -7 505 -7 1074 l-1 1035 -37 20 c-67 35 -194 135 -285 223
-89 85 -214 242 -252 314 -15 28 -27 37 -55 42 -20 3 -822 6 -1783 6 l-1748 0
0 -872z m3481 576 c27 -5 65 -38 179 -154 80 -81 167 -165 195 -188 l49 -41 7
-78 c12 -126 11 -1663 -1 -1663 -5 0 -10 -18 -10 -40 l0 -40 -1419 0 c-953 0
-1445 4 -1498 11 -103 14 -239 60 -332 112 -150 84 -292 254 -348 417 l-22 65
-1 797 0 798 1547 3 c852 1 1564 3 1584 5 20 1 52 -1 70 -4z M6790 4493 c-17
-3 -32 -16 -45 -41 -35 -66 -135 -193 -223 -284 -86 -90 -256 -226 -318 -255
-25 -12 -33 -24 -38 -52 -3 -20 -6 -510 -6 -1089 l0 -1052 1618 2 1617 3 98
27 c413 114 709 422 814 847 15 58 17 175 20 984 l4 917 -1758 -1 c-967 -1
-1769 -4 -1783 -6z m1748 -293 l1492 0 0 -810 0 -810 -25 -66 c-49 -129 -150
-263 -265 -350 -56 -42 -209 -111 -300 -136 l-85 -23 -1457 -2 -1458 -3 0 40
c0 29 -4 40 -15 40 -14 0 -15 90 -12 848 2 466 7 859 11 873 4 14 40 55 79 90
40 35 121 117 181 182 71 76 120 121 140 127 17 5 74 7 126 5 52 -3 767 -5
1588 -5z M5210 4278 c0 -7 9 -37 20 -66 11 -29 20 -56 20 -62 0 -5 -28 -29
-62 -52 l-63 -43 81 -3 80 -3 19 -69 c11 -39 22 -70 25 -70 3 0 14 31 25 70
l19 69 80 3 81 3 -62 43 c-35 23 -63 46 -63 51 0 4 9 34 20 66 11 32 20 62 20
67 0 5 -27 -12 -60 -37 l-60 -46 -60 46 c-33 25 -60 40 -60 33z M4590 3918
c-56 -38 -51 -52 31 -94 88 -44 286 -110 359 -120 l53 -7 -5 46 c-10 88 -44
114 -212 163 -45 13 -107 26 -137 30 -46 5 -59 3 -89 -18z M5845 1753 c-11 -3
-26 -10 -34 -16 -7 -6 -34 -14 -60 -18 -25 -3 40 -6 144 -6 105 0 167 3 139 6
-28 3 -58 12 -66 19 -17 14 -93 23 -123 15z"/>
</g>
</svg>
