<?xml version="1.0" standalone="no"?>
<!DOCTYPE svg PUBLIC "-//W3C//DTD SVG 20010904//EN"
 "http://www.w3.org/TR/2001/REC-SVG-20010904/DTD/svg10.dtd">
<svg version="1.0" xmlns="http://www.w3.org/2000/svg"
 width="2048.000000pt" height="2048.000000pt" viewBox="0 0 2048.000000 2048.000000"
 preserveAspectRatio="xMidYMid meet">
<metadata>
Created by potrace 1.13, written by Peter Selinger 2001-2015
</metadata>
<g transform="translate(0.000000,2048.000000) scale(0.192120,-0.192120)"
fill="#000000" stroke="none">
<path d="M1247 8924 c-348 -63 -652 -295 -807 -615 -48 -99 -73 -181 -95 -303
-13 -78 -15 -390 -15 -2670 0 -1658 4 -2606 10 -2651 25 -177 91 -345 189
-488 61 -88 184 -212 272 -274 91 -65 251 -139 366 -171 l98 -27 4065 0 4065
0 98 27 c422 117 734 449 818 873 21 105 21 5305 0 5410 -71 355 -298 646
-626 801 -52 25 -138 57 -192 72 l-98 27 -4035 2 c-3449 1 -4046 -1 -4113 -13z
m8208 -301 c263 -74 494 -269 564 -476 l21 -61 0 -2759 0 -2759 -26 -66 c-37
-94 -125 -222 -197 -288 -116 -105 -247 -169 -415 -204 l-101 -20 -4008 2
-4008 3 -80 22 c-104 29 -242 98 -327 162 -110 84 -213 228 -259 363 -19 57
-19 110 -17 2810 l3 2753 24 50 c122 255 353 427 644 480 59 11 825 13 4087
12 l4015 -2 80 -22z M5248 8130 c-200 -36 -401 -147 -573 -316 -199 -196 -302
-377 -371 -654 -23 -89 -24 -113 -24 -392 0 -287 -1 -298 -20 -308 -11 -6 -20
-19 -20 -29 0 -29 -8 -30 -78 -6 -164 55 -366 59 -542 11 -52 -14 -107 -26
-121 -26 -35 0 -59 29 -59 73 0 64 -71 161 -159 218 -34 22 -57 29 -93 29
-179 0 -461 -244 -603 -522 -89 -172 -95 -200 -95 -433 l1 -200 37 -110 c137
-404 436 -711 847 -869 50 -19 158 -51 240 -71 83 -21 156 -43 164 -50 11 -11
4 -33 -44 -137 -82 -175 -115 -294 -115 -415 0 -52 -3 -65 -20 -75 -12 -8 -20
-24 -20 -40 0 -33 -18 -36 -73 -13 -78 32 -122 17 -208 -72 -82 -84 -89 -102
-89 -233 0 -122 14 -179 75 -300 151 -300 387 -513 662 -597 79 -24 104 -27
248 -27 169 -1 223 7 360 51 286 92 532 304 769 663 46 69 91 133 100 143 33
33 57 21 161 -86 115 -118 194 -177 318 -238 111 -56 114 -64 53 -164 -34 -56
-46 -86 -46 -115 0 -22 5 -40 10 -40 6 0 10 -7 10 -15 0 -28 83 -127 143 -172
139 -102 350 -119 582 -46 325 101 575 370 701 754 26 80 28 95 31 317 5 228
4 235 -22 324 -68 239 -116 330 -359 681 -67 97 -78 131 -46 148 8 4 55 26
104 49 117 54 205 120 317 238 159 168 182 175 269 86 72 -74 127 -114 157
-114 58 0 146 73 222 183 18 27 54 97 79 155 l47 107 0 245 c0 275 -1 282 -80
445 -116 241 -345 451 -611 561 -145 60 -239 78 -409 78 -165 0 -262 -12 -405
-51 -90 -24 -334 -114 -397 -147 l-30 -15 -17 40 c-10 22 -22 72 -27 110 -17
135 -40 205 -125 374 -30 61 -56 123 -57 139 -2 26 4 32 56 59 90 46 177 169
177 249 0 97 -121 267 -269 380 -86 65 -245 142 -351 169 -94 24 -282 34 -362
19z m342 -280 c167 -47 367 -173 460 -291 22 -28 39 -53 37 -55 -2 -3 -39 12
-83 32 -141 64 -212 56 -272 -31 -25 -37 -27 -48 -27 -135 0 -86 3 -101 32
-163 18 -37 57 -105 86 -150 94 -141 127 -250 127 -411 0 -186 -70 -361 -198
-498 -50 -54 -181 -148 -302 -218 -97 -56 -167 -122 -196 -185 -19 -40 -24
-67 -24 -138 0 -93 20 -210 46 -274 16 -38 16 -38 -3 -20 -26 23 -67 99 -98
182 -86 228 -87 439 -4 763 34 134 35 144 10 166 -26 24 -55 13 -74 -27 -22
-46 -63 -187 -84 -287 -24 -115 -24 -366 0 -464 35 -141 120 -316 191 -390 21
-22 28 -36 19 -36 -21 0 -200 183 -270 275 -72 95 -187 267 -230 345 -71 125
-152 339 -193 510 -23 97 -45 452 -35 560 17 171 84 401 151 514 51 87 175
223 269 293 79 60 223 128 310 148 93 20 254 13 355 -15z m-2300 -1305 c0 -3
-25 -35 -56 -72 -94 -110 -108 -177 -53 -252 36 -50 87 -76 186 -93 77 -13
116 -6 323 58 266 81 585 -24 764 -252 71 -91 127 -223 177 -419 37 -142 95
-237 168 -275 59 -30 158 -52 266 -59 l100 -7 -45 -13 c-107 -31 -279 -40
-400 -20 -126 20 -299 90 -489 198 -109 62 -123 66 -150 43 -20 -16 -21 -20
-10 -45 12 -27 103 -91 229 -159 101 -56 235 -105 350 -128 201 -42 434 -12
613 78 4 2 7 -1 7 -6 0 -17 -133 -100 -245 -153 -125 -59 -428 -161 -540 -182
-340 -64 -525 -59 -849 22 -208 52 -279 80 -440 175 -122 72 -184 122 -251
204 -142 171 -235 407 -235 593 0 77 25 198 57 274 60 144 193 304 331 397 93
62 192 111 192 93z m3985 -25 c257 -66 495 -243 593 -442 60 -120 76 -197 76
-358 0 -160 -21 -253 -88 -395 -66 -140 -73 -139 -72 4 1 107 -1 122 -20 148
-55 74 -153 88 -264 36 -85 -39 -127 -77 -212 -190 -106 -142 -175 -196 -333
-261 -104 -42 -188 -56 -299 -49 -214 14 -278 46 -624 317 -44 35 -84 56 -135
72 -70 21 -73 21 -137 4 -93 -24 -216 -88 -295 -153 -67 -55 -68 -55 -40 -17
129 173 310 305 500 363 85 26 266 57 395 66 111 9 150 24 150 60 0 35 -27 45
-127 45 -241 0 -491 -64 -670 -172 -103 -62 -289 -255 -316 -328 -4 -11 -6 -9
-6 5 -1 33 101 231 184 355 158 236 321 415 504 553 177 133 269 180 558 283
224 79 494 101 678 54z m-1652 -1351 c170 -34 428 -124 590 -205 169 -85 332
-200 466 -328 87 -85 265 -312 331 -425 46 -79 125 -277 145 -364 48 -211 14
-452 -92 -661 -67 -130 -181 -243 -313 -309 -145 -72 -225 -90 -405 -91 -113
0 -166 4 -214 17 -98 27 -97 33 12 52 138 24 188 62 195 149 6 74 0 93 -53
165 -55 75 -123 120 -259 173 -116 45 -164 71 -228 125 -50 42 -137 146 -173
208 -37 63 -74 187 -84 277 -15 157 11 274 114 513 56 129 68 180 63 258 -3
51 -11 76 -38 122 -44 74 -170 201 -237 240 -29 17 -53 33 -53 38 0 4 8 3 18
-3 9 -5 46 -21 80 -34 136 -54 325 -207 409 -331 56 -83 131 -236 188 -383 37
-98 53 -126 72 -135 22 -10 28 -8 44 12 11 13 19 29 19 36 0 6 -16 61 -36 121
-121 366 -310 596 -598 730 -43 19 -96 39 -119 44 l-42 8 48 1 c27 1 94 -8
150 -20z m-220 -179 c32 -130 42 -245 42 -490 0 -165 -4 -268 -13 -315 -8 -38
-16 -83 -19 -100 -9 -64 -54 -220 -92 -320 -64 -171 -246 -459 -361 -575 -186
-185 -315 -266 -505 -316 -128 -34 -349 -40 -455 -11 -257 69 -470 284 -561
567 -28 87 -50 230 -36 230 3 0 25 -32 48 -70 44 -75 109 -139 143 -142 106
-7 168 38 235 169 26 52 44 171 36 238 -8 63 10 206 34 277 29 85 111 217 171
277 112 111 264 189 413 212 44 7 138 10 242 6 278 -8 344 14 432 146 28 43
64 113 78 155 43 122 46 125 40 37 -7 -104 -46 -250 -95 -351 -52 -107 -126
-202 -280 -359 -129 -132 -151 -164 -130 -190 33 -40 84 -10 227 132 133 132
197 217 263 348 71 140 91 227 97 409 6 164 14 170 46 36z M5218 6746 l-47
-74 -91 23 c-49 13 -90 21 -90 19 0 -3 25 -35 55 -71 30 -37 55 -71 55 -76 0
-5 -20 -40 -46 -79 -25 -39 -44 -72 -42 -73 2 -2 35 10 73 25 39 16 78 29 87
29 10 1 41 -27 69 -61 44 -54 84 -91 66 -61 -3 5 -7 46 -8 92 l-2 84 81 31
c45 17 82 34 82 38 0 3 -34 14 -75 24 -41 10 -80 21 -87 25 -8 5 -14 39 -17
94 -1 47 -6 85 -10 85 -3 0 -27 -33 -53 -74z M3951 5625 c-27 -47 -49 -75 -59
-75 -9 1 -46 7 -82 15 -36 8 -71 14 -78 15 -8 0 14 -31 47 -68 34 -38 61 -71
61 -75 0 -3 -20 -39 -45 -81 -24 -42 -41 -76 -36 -76 5 0 44 16 87 36 l79 36
63 -69 63 -68 -6 75 c-4 41 -8 82 -11 91 -3 12 17 26 80 55 47 21 84 40 82 42
-2 2 -33 10 -67 18 -35 8 -74 16 -86 19 -19 4 -22 14 -28 82 -4 43 -10 84 -14
91 -4 7 -23 -16 -50 -63z M6626 5902 l-46 -79 -82 19 c-45 10 -85 17 -89 16
-4 -2 17 -31 47 -66 30 -35 54 -68 54 -74 0 -6 -20 -44 -45 -85 -51 -84 -53
-84 64 -31 l65 29 40 -48 c23 -26 51 -59 64 -73 l22 -25 -6 96 -6 96 81 33
c44 19 81 37 81 40 0 4 -39 16 -87 26 l-88 19 -7 89 c-4 49 -10 91 -12 93 -2
2 -24 -32 -50 -75z M6246 4265 c-40 -63 -51 -75 -68 -69 -67 21 -152 43 -155
40 -2 -2 18 -30 43 -62 26 -33 51 -64 56 -71 6 -7 -7 -36 -35 -80 -24 -37 -46
-73 -51 -80 -7 -13 17 -6 120 35 l52 21 53 -69 c30 -38 57 -69 61 -70 4 0 7
41 5 91 l-2 92 83 31 c45 17 82 33 82 36 0 3 -40 16 -90 29 l-90 23 0 77 c0
42 -4 82 -8 89 -6 8 -24 -12 -56 -63z M4649 4128 c-23 -40 -43 -75 -45 -77 -2
-2 -41 4 -86 13 -46 9 -87 16 -92 16 -4 0 20 -31 54 -70 l62 -70 -45 -77 c-25
-43 -44 -79 -42 -81 2 -2 41 13 86 33 l84 37 63 -69 63 -68 -6 75 c-3 41 -8
83 -11 93 -4 14 11 25 75 54 45 20 81 39 81 42 0 4 -37 14 -82 24 -45 9 -83
19 -86 21 -2 3 -8 42 -13 87 -5 46 -11 85 -13 87 -2 2 -23 -29 -47 -70z"/>
</g>
</svg>
