<?xml version="1.0" standalone="no"?>
<!DOCTYPE svg PUBLIC "-//W3C//DTD SVG 20010904//EN"
 "http://www.w3.org/TR/2001/REC-SVG-20010904/DTD/svg10.dtd">
<svg version="1.0" xmlns="http://www.w3.org/2000/svg"
 width="2048.000000pt" height="2048.000000pt" viewBox="0 0 2048.000000 2048.000000"
 preserveAspectRatio="xMidYMid meet">
<metadata>
Created by potrace 1.13, written by Peter Selinger 2001-2015
</metadata>
<g transform="translate(0.000000,2048.000000) scale(0.192120,-0.192120)"
fill="#000000" stroke="none">
<path d="M1247 8924 c-348 -63 -652 -295 -807 -615 -48 -99 -73 -181 -95 -303
-13 -74 -15 -207 -15 -827 l0 -739 5000 0 5001 0 -4 778 c-3 676 -6 786 -20
843 -55 225 -149 396 -302 551 -137 138 -317 242 -512 296 l-98 27 -4035 2
c-3449 1 -4046 -1 -4113 -13z m8052 -274 c320 -33 579 -199 699 -448 l47 -97
3 -702 2 -703 -4730 0 -4730 0 0 673 c0 632 1 677 19 728 80 234 272 416 531
504 60 20 141 37 245 49 82 9 7821 5 7914 -4z M10315 6287 c-18 -24 -45 -78
-45 -93 0 -8 -4 -14 -10 -14 -7 0 -10 -292 -10 -855 0 -563 3 -855 10 -855 6
0 10 -9 10 -19 0 -11 3 -21 8 -23 4 -1 17 -19 30 -38 l22 -35 0 973 c0 534 -1
972 -2 972 -2 -1 -7 -6 -13 -13z M331 5330 c0 -851 1 -963 14 -946 8 11 15 26
15 33 0 7 3 13 8 13 30 0 32 57 32 902 0 559 -3 848 -10 848 -5 0 -10 11 -10
25 0 14 -4 25 -10 25 -5 0 -10 6 -10 13 0 7 -7 22 -15 33 -13 17 -14 -95 -14
-946z M330 3488 c0 -432 4 -762 10 -803 25 -177 91 -345 189 -488 61 -88 184
-212 272 -274 91 -65 251 -139 366 -171 l98 -27 4065 0 4065 0 98 27 c413 114
710 422 814 847 14 57 17 167 20 844 l4 777 -5001 0 -5000 0 0 -732z m9710
-230 l0 -673 -24 -67 c-45 -126 -135 -253 -240 -335 -89 -70 -226 -136 -341
-165 l-90 -23 -4010 0 c-3760 0 -4015 1 -4087 17 -172 38 -335 127 -450 245
-69 70 -151 205 -178 292 -19 60 -20 93 -20 722 l0 659 4720 0 4720 0 0 -672z"/>
</g>
</svg>
