<?xml version="1.0" standalone="no"?>
<!DOCTYPE svg PUBLIC "-//W3C//DTD SVG 20010904//EN"
 "http://www.w3.org/TR/2001/REC-SVG-20010904/DTD/svg10.dtd">
<svg version="1.0" xmlns="http://www.w3.org/2000/svg"
 width="2048.000000pt" height="2048.000000pt" viewBox="0 0 2048.000000 2048.000000"
 preserveAspectRatio="xMidYMid meet">
<metadata>
Created by potrace 1.13, written by Peter Selinger 2001-2015
</metadata>
<g transform="translate(0.000000,2048.000000) scale(0.192120,-0.192120)"
fill="#000000" stroke="none">
<path d="M1247 8924 c-474 -86 -838 -467 -907 -949 -5 -40 -10 -324 -10 -662
l0 -593 5001 0 5000 0 -4 638 c-3 544 -6 647 -20 703 -55 224 -149 396 -302
551 -137 138 -317 242 -512 296 l-98 27 -4035 2 c-3449 1 -4046 -1 -4113 -13z
m8113 -279 c290 -43 526 -207 643 -445 l42 -85 3 -572 2 -573 -4730 0 -4730 0
0 545 0 544 24 65 c80 221 283 407 531 487 152 49 -20 47 4175 48 3385 1 3959
-1 4040 -14z M10315 6567 c-18 -24 -45 -78 -45 -93 0 -8 -4 -14 -10 -14 -7 0
-10 -382 -10 -1125 0 -619 3 -1125 8 -1125 4 0 16 -18 26 -40 48 -100 46 -146
46 1174 0 680 -1 1236 -2 1236 -2 -1 -7 -6 -13 -13z M330 5348 c0 -713 4
-1228 9 -1228 5 0 12 11 15 25 4 14 11 25 16 25 6 0 10 9 10 20 0 11 5 20 10
20 7 0 10 382 10 1125 0 743 -3 1125 -10 1125 -5 0 -10 11 -10 25 0 14 -4 25
-10 25 -5 0 -10 6 -10 13 0 7 -7 22 -15 33 -13 17 -14 -127 -15 -1208z M6870
6201 c-15 -28 -12 -104 4 -126 31 -43 68 44 46 111 -13 38 -34 44 -50 15z
M4117 5712 l-427 -427 0 -123 0 -122 610 0 610 0 0 85 c0 72 3 88 20 105 11
11 27 20 35 20 8 0 24 -9 35 -20 18 -18 20 -33 20 -140 l0 -120 -785 0 -785 0
0 170 c0 94 -2 170 -4 170 -3 0 -52 -38 -110 -84 -85 -68 -102 -86 -87 -91 23
-7 31 -33 31 -107 l0 -58 -145 0 c-136 0 -149 2 -195 25 -55 28 -72 53 -90
138 -7 31 -15 57 -16 57 -3 0 -199 -126 -213 -136 -2 -2 13 -22 33 -46 21 -24
54 -77 74 -117 34 -69 37 -82 37 -160 0 -70 -4 -95 -24 -134 -26 -54 -116
-156 -174 -198 -35 -26 -36 -28 -16 -34 30 -10 125 4 182 25 26 10 67 34 91
53 41 34 106 138 106 171 0 15 99 16 1145 16 l1145 0 0 323 0 323 -124 87
c-141 98 -154 102 -236 60 -64 -33 -106 -83 -131 -155 l-18 -53 -407 -3 -408
-2 333 337 c184 186 360 364 393 396 l59 58 -62 67 c-34 37 -65 68 -68 70 -3
1 -198 -190 -434 -426z M5360 5380 l0 -750 255 0 c140 0 255 2 255 5 0 8 -111
389 -115 393 -2 2 -13 -10 -26 -27 -22 -29 -26 -31 -91 -31 l-68 0 0 479 0
479 31 27 c17 14 30 27 28 29 -10 8 -260 146 -264 146 -3 0 -5 -337 -5 -750z
M7610 5380 l0 -750 261 0 c245 0 261 1 254 18 -11 28 -95 322 -95 332 0 5 -5
21 -10 36 l-11 27 -38 -37 c-36 -35 -41 -37 -97 -34 -40 2 -59 7 -58 16 1 6 2
224 3 483 l1 470 36 15 c20 8 35 16 33 18 -11 8 -269 156 -274 156 -3 0 -5
-337 -5 -750z M7352 5977 l-82 -82 0 -463 0 -462 -71 0 -71 0 4 410 4 410 -89
-87 -88 -88 3 -323 3 -322 -70 0 -70 0 3 277 3 278 -106 -105 c-101 -100 -105
-106 -85 -119 16 -11 20 -24 20 -73 0 -53 -2 -59 -17 -53 -34 15 -141 17 -179
5 -47 -16 -118 -86 -132 -131 -6 -19 -13 -121 -15 -226 l-5 -193 564 0 564 0
0 715 c0 393 -1 715 -3 715 -1 0 -39 -37 -85 -83z m-707 -940 c8 -12 15 -32
15 -45 0 -22 -3 -23 -71 -20 -55 2 -74 7 -83 21 -15 24 2 49 44 63 42 14 77 7
95 -19z M7090 5980 c-59 -64 -98 -68 -149 -16 l-34 35 -21 -31 c-42 -62 -143
-87 -210 -53 -44 23 -42 12 5 -29 68 -57 144 -58 214 -2 l29 23 27 -20 c34
-25 97 -27 132 -4 18 12 32 35 43 72 8 31 14 60 12 65 -2 5 -23 -13 -48 -40z
M3213 4532 c-13 -2 -30 -13 -38 -25 -32 -46 -8 -109 47 -123 22 -5 33 0 58 24
35 35 38 60 10 94 -21 28 -42 36 -77 30z M330 3348 c0 -339 5 -623 10 -663 25
-177 91 -345 189 -488 61 -88 184 -212 272 -274 91 -65 251 -139 366 -171 l98
-27 4065 0 4065 0 98 27 c413 114 710 423 814 847 14 56 17 159 20 704 l4 637
-5000 0 -5001 0 0 -592z m9690 -240 l-1 -533 -28 -70 c-93 -236 -288 -399
-558 -468 l-88 -22 -4020 0 c-3804 0 -4024 1 -4089 18 -292 75 -507 259 -593
507 -22 64 -22 72 -23 583 l0 517 4700 0 4700 0 0 -532z"/>
</g>
</svg>
