<?xml version="1.0" standalone="no"?>
<!DOCTYPE svg PUBLIC "-//W3C//DTD SVG 20010904//EN"
 "http://www.w3.org/TR/2001/REC-SVG-20010904/DTD/svg10.dtd">
<svg version="1.0" xmlns="http://www.w3.org/2000/svg"
 width="2048.000000pt" height="2048.000000pt" viewBox="0 0 2048.000000 2048.000000"
 preserveAspectRatio="xMidYMid meet">
<metadata>
Created by potrace 1.13, written by Peter Selinger 2001-2015
</metadata>
<g transform="translate(0.000000,2048.000000) scale(0.192120,-0.192120)"
fill="#000000" stroke="none">
<path d="M1320 8934 c-161 -25 -271 -59 -391 -121 -323 -169 -544 -486 -588
-848 -15 -127 -15 -5143 0 -5270 29 -239 130 -452 296 -625 160 -169 330 -265
573 -328 60 -15 374 -16 4075 -20 4407 -3 4098 -7 4284 55 328 110 591 372
701 700 63 190 60 36 60 2853 0 2817 3 2663 -60 2853 -110 329 -377 594 -705
701 -185 60 113 56 -4239 55 -2189 -1 -3992 -3 -4006 -5z m7965 -115 c274 -27
459 -114 649 -304 115 -115 190 -236 243 -390 l38 -110 0 -2665 0 -2665 -28
-100 c-16 -55 -49 -141 -73 -192 -103 -215 -320 -407 -552 -488 -165 -58 93
-54 -4252 -56 -3686 -1 -4001 0 -4074 16 -102 21 -205 58 -286 102 -228 124
-412 350 -481 590 -19 67 -19 125 -19 2779 l0 2712 21 68 c111 360 446 644
824 699 120 17 7819 21 7990 4z M7403 7202 c-54 -26 -112 -46 -140 -49 -33 -4
-55 -13 -71 -29 -13 -13 -35 -24 -50 -24 -37 -1 -65 -18 -106 -66 -19 -23 -50
-47 -68 -54 -18 -7 -55 -23 -82 -36 -30 -15 -68 -24 -96 -24 -45 0 -48 -2 -98
-65 -39 -48 -61 -67 -89 -75 -21 -5 -83 -35 -138 -66 -196 -110 -373 -171
-457 -158 -53 9 -81 -1 -135 -48 -61 -53 -99 -68 -168 -68 -31 0 -69 -7 -85
-15 -44 -23 -194 -43 -310 -41 -208 4 -342 17 -382 39 -32 18 -40 18 -68 7
-25 -10 -38 -10 -70 0 -30 10 -49 10 -83 1 -40 -9 -56 -8 -132 14 -48 14 -112
36 -143 49 -31 14 -60 21 -64 18 -4 -4 -1 -41 6 -82 18 -108 6 -311 -22 -365
-26 -51 -77 -100 -125 -120 l-38 -16 -107 50 c-59 27 -129 55 -155 62 -62 15
-134 8 -186 -19 -23 -12 -50 -22 -61 -22 -18 0 -80 -65 -80 -85 0 -5 -11 -33
-24 -61 -20 -43 -36 -60 -102 -103 -66 -43 -85 -51 -125 -51 -39 0 -54 6 -98
41 -28 23 -58 54 -67 71 -19 37 -36 32 -48 -14 -11 -45 -4 -72 35 -131 27 -41
32 -58 35 -125 6 -130 10 -156 21 -177 6 -11 14 -28 17 -37 3 -9 23 -26 45
-38 42 -21 42 -20 72 -145 18 -73 29 -90 79 -119 27 -16 58 -42 70 -58 16 -21
29 -28 55 -28 18 0 37 -4 40 -10 3 -5 24 -10 46 -10 30 0 47 -7 76 -34 21 -18
74 -48 118 -65 85 -33 110 -37 120 -21 3 6 23 10 43 10 21 0 48 7 61 16 16 12
51 18 111 20 84 4 90 2 121 -23 57 -49 89 -102 89 -149 0 -50 -2 -49 114 -59
l69 -6 -19 28 c-43 66 -47 83 -34 127 18 60 82 116 176 156 75 31 82 32 164
26 123 -11 130 -10 161 13 21 15 43 21 83 21 30 0 58 5 61 10 3 6 14 10 24 10
10 0 24 6 30 14 7 8 24 17 38 21 14 3 41 17 59 31 18 14 61 34 94 44 47 14 71
29 101 61 38 41 39 42 93 36 52 -5 55 -4 66 23 6 15 22 38 36 51 22 20 24 30
24 109 0 74 3 92 23 120 39 59 79 75 183 74 97 -1 86 3 210 -74 21 -13 27 -13
52 0 17 10 28 26 30 42 3 23 9 27 50 33 89 12 157 6 216 -20 31 -14 59 -25 63
-25 3 0 3 19 0 41 -4 29 -16 53 -40 78 -19 20 -38 45 -41 56 -3 11 -26 34 -51
50 -30 20 -49 42 -57 65 -6 19 -35 60 -64 90 -29 31 -62 76 -73 100 -33 73
-23 198 19 245 9 11 24 33 31 49 25 52 62 71 132 69 78 -4 112 10 127 50 7 18
15 41 20 52 14 36 99 122 167 169 38 25 105 61 150 79 67 27 91 44 130 87 30
34 67 62 100 76 44 20 56 31 69 64 24 60 162 154 247 168 40 7 43 10 60 61 10
29 16 55 15 56 -2 1 -45 -18 -95 -43z m-1408 -933 c4 -5 10 -67 14 -137 6
-114 10 -134 39 -196 30 -65 41 -115 25 -117 -5 -1 -56 -2 -114 -3 -97 -1
-111 -4 -170 -33 -78 -39 -198 -156 -247 -241 -18 -31 -36 -62 -40 -68 -60
-91 -56 -88 -208 -161 -165 -80 -307 -123 -408 -123 -130 -1 -248 -40 -371
-124 -37 -25 -78 -46 -90 -46 -12 0 -54 12 -91 27 -62 25 -79 27 -174 24 -285
-9 -271 -11 -410 53 -68 31 -131 62 -138 68 -16 14 -118 161 -138 199 -8 15
-14 41 -14 57 0 25 9 34 64 67 37 22 103 77 158 132 51 52 105 101 120 109 43
22 98 17 218 -21 143 -45 196 -46 278 -4 125 62 249 244 298 436 4 14 131 9
374 -17 273 -29 337 -32 452 -21 160 15 363 63 465 110 100 45 100 45 108 30z
M3956 4491 c-27 -43 -9 -198 33 -279 23 -45 66 -86 80 -78 34 22 19 165 -28
261 -33 66 -75 113 -85 96z M6220 4464 c-18 -21 -41 -57 -51 -79 -40 -90 -50
-255 -15 -255 26 0 75 70 101 146 18 53 23 200 7 216 -5 5 -22 -6 -42 -28z
M3624 4426 c-9 -25 30 -99 80 -148 45 -45 139 -98 199 -112 24 -6 27 -4 27 21
0 62 -94 165 -193 212 -85 41 -106 46 -113 27z M6539 4425 c-128 -47 -242
-152 -251 -231 -3 -27 -1 -29 27 -26 50 6 137 53 191 104 51 48 101 138 89
158 -8 12 -11 12 -56 -5z M4140 4316 c-16 -43 -12 -132 10 -192 22 -63 66
-127 83 -121 21 6 39 79 32 129 -8 58 -54 155 -88 187 l-26 24 -11 -27z M6022
4297 c-17 -24 -39 -63 -49 -88 -21 -52 -23 -151 -4 -194 l13 -30 24 30 c44 54
77 136 81 205 5 63 -7 120 -25 120 -5 0 -23 -19 -40 -43z M4324 4185 c-17 -92
19 -220 84 -295 42 -49 57 -32 57 63 0 87 -35 174 -95 232 l-39 38 -7 -38z
M5847 4185 c-64 -69 -92 -138 -92 -227 0 -101 12 -114 60 -63 61 67 101 220
77 300 l-8 30 -37 -40z M4506 4094 c-17 -66 45 -232 109 -294 30 -29 37 -32
45 -20 21 33 14 112 -14 175 -22 47 -112 165 -127 165 -4 0 -10 -12 -13 -26z
M5644 4063 c-64 -79 -98 -155 -98 -220 0 -81 17 -88 69 -30 46 50 82 129 94
210 9 51 4 97 -10 97 -4 0 -29 -26 -55 -57z M3680 4100 c-22 -15 56 -83 128
-111 98 -38 247 -26 247 21 0 20 -118 78 -184 90 -69 13 -172 13 -191 0z
M6334 4096 c-61 -14 -122 -41 -159 -70 -20 -16 -20 -16 3 -35 54 -46 198 -32
292 29 55 35 86 67 76 77 -13 14 -150 13 -212 -1z M4708 4038 c-9 -27 14 -132
41 -186 16 -32 51 -82 77 -111 46 -51 48 -52 56 -30 12 31 -5 134 -32 198 -14
32 -42 69 -72 96 -53 47 -64 53 -70 33z M5443 4006 c-78 -70 -133 -223 -106
-295 9 -23 10 -22 56 29 66 73 108 163 114 244 4 42 2 66 -5 66 -5 0 -32 -20
-59 -44z M3972 3928 c-41 -7 -102 -41 -102 -58 0 -14 71 -41 123 -47 66 -7
158 12 191 38 14 11 26 24 26 29 0 20 -176 49 -238 38z M6068 3913 c-33 -9
-58 -21 -58 -28 0 -21 81 -54 147 -61 68 -7 147 8 175 33 22 20 17 28 -32 53
-48 24 -147 25 -232 3z M4250 3811 c-81 -25 -182 -103 -160 -125 6 -6 43 -11
83 -11 57 0 84 6 132 28 63 29 125 72 125 87 0 24 -122 38 -180 21z M5821
3811 c-36 -10 -36 -26 1 -55 87 -66 226 -102 293 -76 l30 11 -45 43 c-73 69
-192 102 -279 77z M4439 3684 c-49 -15 -140 -71 -146 -90 -9 -28 136 -44 211
-23 40 11 126 82 126 104 0 27 -116 33 -191 9z M5613 3694 c-13 -3 -23 -11
-23 -19 0 -18 54 -71 94 -93 40 -22 189 -24 225 -3 l25 14 -30 24 c-72 61
-205 96 -291 77z M4815 3663 c6 -6 54 -25 108 -43 l98 -32 -72 -34 c-40 -19
-69 -37 -66 -40 3 -3 55 7 117 21 l111 27 104 -26 c120 -30 118 -30 109 -15
-4 6 -34 24 -67 39 l-60 27 113 38 c62 22 108 41 103 42 -5 2 -56 -8 -114 -22
-182 -44 -211 -43 -469 21 -17 5 -22 3 -15 -3z M4710 3614 c-67 -18 -152 -68
-191 -112 -45 -51 -40 -56 52 -49 103 8 168 42 216 112 18 26 30 51 27 56 -7
12 -39 10 -104 -7z M5400 3619 c0 -28 76 -113 120 -136 47 -24 210 -45 210
-27 -2 33 -119 126 -187 148 -76 24 -143 31 -143 15z"/>
</g>
</svg>
