<?xml version="1.0" standalone="no"?>
<!DOCTYPE svg PUBLIC "-//W3C//DTD SVG 20010904//EN"
 "http://www.w3.org/TR/2001/REC-SVG-20010904/DTD/svg10.dtd">
<svg version="1.0" xmlns="http://www.w3.org/2000/svg"
 width="2048.000000pt" height="2048.000000pt" viewBox="0 0 2048.000000 2048.000000"
 preserveAspectRatio="xMidYMid meet">
<metadata>
Created by potrace 1.13, written by Peter Selinger 2001-2015
</metadata>
<g transform="translate(0.000000,2048.000000) scale(0.192120,-0.192120)"
fill="#000000" stroke="none">
<path d="M1239 8924 c-174 -31 -352 -114 -500 -232 -184 -147 -309 -344 -382
-602 l-22 -75 -3 -2635 c-3 -2380 -1 -2644 13 -2733 71 -430 387 -775 822
-895 l98 -27 4065 0 4065 0 98 27 c364 101 656 369 774 713 57 167 56 150 60
838 l4 637 -3980 0 c-2190 0 -3981 2 -3981 5 0 2 64 91 143 197 158 214 846
1150 862 1173 7 10 7 20 0 30 -26 37 -840 1144 -921 1253 l-93 122 3984 0
3985 0 0 604 c0 490 -3 619 -15 689 -77 440 -385 775 -825 898 l-85 24 -4045
2 c-3407 1 -4057 -1 -4121 -13z m-295 -268 c24 -29 1284 -1746 1343 -1830 35
-49 63 -92 63 -96 0 -4 -18 -15 -40 -25 -22 -10 -49 -33 -61 -51 -18 -29 -19
-38 -9 -76 32 -115 92 -207 523 -793 301 -410 308 -421 304 -460 -5 -46 -22
-72 -241 -370 -258 -350 -481 -660 -513 -710 -74 -117 -107 -218 -87 -269 3
-8 28 -29 55 -47 l50 -32 -17 -26 c-30 -46 -520 -717 -953 -1306 -37 -49 -133
-180 -214 -290 -81 -110 -158 -213 -171 -229 l-23 -30 -29 45 c-31 47 -99 137
-175 232 -55 68 -120 190 -143 266 -15 50 -16 305 -16 2782 l0 2728 21 57 c22
58 84 171 129 235 14 20 46 67 73 103 26 37 47 71 47 77 0 14 59 129 67 129 3
0 11 -6 17 -14z m8461 -28 c254 -60 450 -193 561 -381 77 -130 74 -106 74
-714 l0 -543 -2192 0 c-1206 0 -2854 -1 -3663 0 -808 0 -1537 -4 -1619 -10
-187 -11 -193 -9 -273 96 -117 154 -978 1330 -1030 1407 -83 123 -73 141 82
156 44 5 1860 8 4035 7 3628 -2 3961 -3 4025 -18z m-6980 -4940 l70 -23 1555
-2 c855 -1 2553 -2 3773 -2 l2217 -1 0 -546 0 -546 -26 -66 c-37 -95 -125
-223 -201 -291 -117 -106 -286 -185 -448 -210 -98 -15 -7988 -17 -8064 -2 -85
17 -135 34 -148 51 -20 25 -15 64 15 106 330 456 1087 1480 1118 1512 23 23
48 42 55 42 8 0 46 -10 84 -22z M5264 6545 c-17 -32 -22 -35 -66 -35 -27 0
-48 -3 -48 -6 0 -4 10 -22 21 -41 22 -34 22 -35 3 -71 -10 -21 -20 -40 -22
-44 -2 -5 18 -8 45 -8 45 0 50 -2 67 -35 11 -19 22 -35 26 -35 4 0 15 16 26
35 17 33 22 35 67 35 l49 0 -25 43 -25 42 24 35 c12 19 23 38 23 43 1 4 -21 7
-47 7 -46 0 -50 2 -68 35 -10 19 -21 35 -25 35 -3 0 -14 -16 -25 -35z M5616
6545 c-18 -33 -22 -35 -68 -35 -26 0 -48 -3 -47 -7 0 -5 11 -24 23 -43 l24
-35 -25 -42 -25 -43 49 0 c45 0 50 -2 67 -35 11 -19 22 -35 26 -35 4 0 15 16
26 35 17 33 22 35 67 35 27 0 47 3 45 8 -2 4 -12 23 -22 44 -19 36 -19 37 3
71 11 19 21 37 21 41 0 3 -21 6 -48 6 -44 0 -49 3 -66 35 -11 19 -22 35 -25
35 -4 0 -15 -16 -25 -35z M10317 6543 c-5 -13 -12 -23 -17 -23 -5 0 -12 -16
-16 -35 -3 -19 -10 -38 -15 -41 -5 -3 -9 -484 -9 -1124 l0 -1119 33 -61 32
-62 3 621 c3 937 -2 1869 -11 1844z M4901 6496 c-11 -43 -13 -45 -56 -52 -25
-3 -45 -9 -45 -12 0 -3 14 -21 31 -38 29 -30 31 -35 20 -65 -17 -48 -15 -50
38 -43 46 6 49 5 71 -26 25 -35 34 -31 47 20 8 30 15 36 49 44 21 5 41 10 43
12 1 1 -9 19 -24 39 -26 33 -27 39 -16 74 6 21 11 41 11 43 0 3 -21 0 -46 -5
-45 -11 -47 -10 -73 21 -14 18 -29 32 -32 32 -4 0 -12 -20 -18 -44z M5979
6508 c-25 -32 -26 -32 -73 -21 -46 10 -48 10 -42 -11 19 -63 18 -72 -9 -105
-15 -17 -26 -33 -24 -35 2 -2 22 -7 43 -12 32 -8 41 -15 49 -39 19 -63 17 -62
47 -26 27 32 31 33 74 27 50 -8 52 -5 35 43 -11 30 -9 35 20 65 17 17 31 35
31 38 0 3 -20 9 -45 12 -43 7 -45 9 -56 52 -6 24 -14 44 -18 44 -3 0 -18 -14
-32 -32z M4560 6376 c0 -42 -1 -44 -46 -63 l-46 -20 39 -29 c39 -27 40 -29 35
-77 l-5 -49 43 22 42 22 37 -26 36 -26 9 46 c8 42 13 48 47 62 22 8 39 18 39
21 0 3 -16 16 -36 29 -35 23 -36 24 -29 73 l7 50 -42 -21 -42 -21 -37 25 c-20
14 -40 26 -44 26 -4 0 -7 -20 -7 -44z M6319 6394 l-37 -26 -42 22 -42 21 7
-50 c7 -49 6 -50 -29 -73 -20 -13 -36 -26 -36 -29 0 -4 17 -14 39 -22 35 -14
39 -20 45 -61 4 -25 9 -46 12 -46 3 0 20 12 39 26 l33 25 43 -21 42 -22 -5 49
c-5 48 -4 50 35 77 l39 29 -46 20 c-45 19 -46 21 -46 63 0 24 -3 44 -8 44 -4
0 -24 -12 -43 -26z M4787 6163 c-3 -5 -4 -323 -2 -708 2 -599 5 -707 18 -748
25 -77 60 -122 118 -151 51 -25 60 -26 219 -26 91 0 181 -4 199 -10 41 -11 85
-51 101 -91 l12 -29 22 43 c15 30 34 48 66 65 41 20 58 22 210 22 91 0 182 5
203 11 53 14 110 69 138 132 l24 52 3 723 3 722 -665 0 c-366 0 -667 -3 -669
-7z m1271 -740 l-3 -688 -25 -49 c-44 -87 -53 -90 -273 -97 -194 -5 -223 -11
-278 -50 l-29 -20 -33 25 c-47 36 -103 45 -280 46 -168 0 -190 5 -234 52 -52
56 -53 58 -54 781 -1 370 -1 675 0 680 0 4 273 7 606 7 l606 0 -3 -687z M5374
6042 c-22 -11 -58 -41 -80 -67 -21 -27 -58 -67 -80 -89 -56 -55 -72 -83 -99
-168 l-23 -72 -48 -11 c-61 -14 -130 -49 -138 -70 -9 -24 9 -50 48 -69 42 -20
76 -20 122 -1 35 14 37 14 55 -9 11 -14 35 -30 54 -36 31 -10 41 -9 80 10 25
12 54 34 66 48 20 26 21 26 34 8 28 -37 38 -127 32 -286 -6 -179 -24 -284 -73
-417 -47 -131 -45 -161 10 -190 44 -23 180 -23 223 0 53 28 55 57 9 184 -39
106 -58 253 -60 448 -1 188 6 224 57 281 43 50 127 90 127 61 0 -8 11 -26 25
-41 31 -33 69 -34 117 -1 20 14 43 22 51 19 24 -9 92 14 116 39 12 13 24 40
27 59 5 29 2 39 -19 59 -18 16 -27 37 -29 64 -2 32 -7 40 -28 45 -14 3 -41 3
-61 0 l-36 -7 5 42 c4 36 1 45 -19 59 -35 24 -106 20 -156 -8 -35 -20 -44 -22
-53 -10 -7 7 -27 16 -45 20 -26 5 -34 12 -38 34 -16 75 -94 108 -173 72z m60
-456 l-9 -27 -23 31 c-15 19 -21 38 -17 50 6 19 7 19 32 -4 21 -20 24 -28 17
-50z m133 57 c2 -5 -12 -22 -32 -37 -30 -23 -35 -24 -35 -9 0 19 40 63 54 59
6 -1 11 -7 13 -13z M4470 5083 c0 -27 -11 -95 -25 -153 -14 -58 -25 -117 -25
-131 0 -15 15 -46 35 -72 41 -53 42 -64 15 -117 -41 -80 -14 -139 98 -214 132
-87 315 -146 459 -146 l63 0 6 -40 c15 -91 92 -115 364 -114 147 0 197 3 244
18 72 21 106 53 106 99 l0 34 98 6 c129 9 207 29 328 87 108 52 193 120 214
171 11 26 11 37 1 63 -45 109 -45 104 -7 146 19 21 37 47 40 57 4 11 -7 81
-24 155 -16 75 -30 151 -30 169 0 34 0 33 -44 -31 -24 -36 -69 -93 -100 -128
-83 -93 -86 -130 -15 -207 l40 -43 -28 -33 c-48 -57 -76 -77 -153 -110 -103
-44 -234 -69 -357 -69 l-103 0 0 -79 0 -78 -37 -7 c-49 -8 -307 -8 -355 0
l-37 6 -3 77 -3 76 -135 7 c-227 11 -409 79 -480 178 l-22 30 40 45 c67 76 61
127 -26 219 -27 28 -67 79 -90 114 -24 34 -45 62 -47 62 -3 0 -5 -21 -5 -47z
m146 -225 c19 -36 18 -42 -12 -78 -30 -35 -44 -28 -44 23 0 40 -17 33 -31 -13
-14 -47 -21 -49 -39 -15 -11 21 -10 38 5 111 l18 85 44 -43 c25 -24 51 -55 59
-70z m1798 13 c16 -69 16 -75 0 -100 l-18 -26 -20 50 -20 49 -11 -50 -11 -49
-27 29 c-15 16 -27 39 -27 52 0 28 102 147 111 130 4 -6 14 -44 23 -85z
m-1759 -323 c95 -67 255 -114 423 -125 l102 -6 0 -39 c0 -21 -2 -38 -5 -38
-14 0 -64 31 -68 42 -3 7 -6 -5 -6 -28 -1 -22 -3 -43 -6 -45 -10 -10 -190 11
-262 31 -107 29 -243 101 -292 155 l-41 45 19 42 c11 24 22 51 25 62 5 16 11
12 37 -23 16 -23 50 -56 74 -73z m1728 -37 c-11 -14 -46 -44 -80 -67 -115 -78
-276 -130 -423 -135 l-65 -3 -3 42 -3 43 -30 -26 c-44 -37 -59 -33 -59 15 l0
40 58 0 c84 0 237 26 318 53 123 43 183 81 229 148 l28 39 25 -61 c24 -61 24
-61 5 -88z m-933 -255 c155 -1 207 2 254 16 l59 17 -7 -47 c-3 -25 -12 -50
-19 -54 -71 -46 -463 -50 -555 -6 -23 11 -27 21 -30 59 l-3 46 53 -15 c39 -12
103 -16 248 -16z"/>
</g>
</svg>
