<?xml version="1.0" standalone="no"?>
<!DOCTYPE svg PUBLIC "-//W3C//DTD SVG 20010904//EN"
 "http://www.w3.org/TR/2001/REC-SVG-20010904/DTD/svg10.dtd">
<svg version="1.0" xmlns="http://www.w3.org/2000/svg"
 width="2048.000000pt" height="2048.000000pt" viewBox="0 0 2048.000000 2048.000000"
 preserveAspectRatio="xMidYMid meet">
<metadata>
Created by potrace 1.13, written by Peter Selinger 2001-2015
</metadata>
<g transform="translate(0.000000,2048.000000) scale(0.192120,-0.192120)"
fill="#000000" stroke="none">
<path d="M1247 8924 c-399 -72 -737 -366 -862 -751 -53 -161 -55 -198 -55
-995 l0 -738 5000 0 5001 0 -4 778 c-3 676 -6 786 -20 843 -55 225 -149 396
-302 551 -137 138 -317 242 -512 296 l-98 27 -4035 2 c-3449 1 -4046 -1 -4113
-13z m8191 -302 c181 -48 310 -122 428 -244 79 -81 116 -140 151 -235 l23 -64
0 -684 0 -685 -4720 0 -4720 0 0 670 c0 759 -4 718 83 865 121 206 370 359
640 394 34 5 1855 8 4047 7 l3985 -1 83 -23z M10314 6277 c-15 -18 -44 -78
-44 -94 0 -7 -4 -13 -10 -13 -14 0 -13 -1619 0 -1678 6 -23 24 -64 40 -90 l30
-47 0 968 c0 532 -1 967 -2 967 -2 -1 -8 -6 -14 -13z M331 5325 c0 -846 1
-958 14 -941 8 11 15 26 15 33 0 7 5 13 10 13 6 0 10 9 10 20 0 11 5 20 10 20
7 0 10 290 10 850 0 560 -3 850 -10 850 -5 0 -10 11 -10 25 0 14 -4 25 -10 25
-5 0 -10 6 -10 13 0 7 -7 22 -15 33 -13 17 -14 -95 -14 -941z M3611 6054 l-33
-106 -109 4 c-60 2 -109 2 -109 -2 0 -3 38 -33 85 -65 47 -32 85 -63 85 -70 0
-6 -14 -51 -30 -100 -17 -49 -29 -93 -27 -98 1 -5 42 21 89 58 l87 67 86 -67
c47 -37 88 -65 91 -63 2 3 -12 51 -31 108 -21 59 -32 106 -27 109 57 36 171
117 172 122 0 3 -50 5 -112 5 l-112 -1 -29 95 c-16 52 -32 99 -36 103 -4 4
-22 -40 -40 -99z M6965 6073 c-14 -49 -29 -96 -32 -107 -5 -17 -14 -18 -114
-14 -60 2 -109 1 -109 -2 0 -4 38 -33 85 -65 47 -32 85 -64 85 -71 0 -7 -16
-56 -35 -109 -19 -52 -31 -95 -28 -95 5 0 28 16 149 107 l31 23 87 -66 c48
-36 89 -64 92 -62 2 2 -12 48 -31 102 -19 53 -35 100 -35 104 0 4 41 34 90 67
49 33 90 63 90 66 0 4 -51 4 -112 1 l-113 -4 -30 102 c-16 56 -33 103 -37 106
-3 2 -18 -35 -33 -83z M5300 5508 l-33 -107 -115 -3 -114 -3 91 -63 c50 -35
91 -67 91 -72 0 -5 -16 -53 -35 -106 -19 -53 -34 -99 -32 -101 2 -2 43 26 90
62 47 36 89 65 92 65 3 0 45 -29 92 -65 47 -36 87 -64 89 -62 1 1 -13 46 -32
101 -19 54 -34 102 -34 106 0 5 41 37 91 72 l91 63 -115 3 -115 3 -26 87 c-43
141 -40 140 -76 20z M3611 4945 l-31 -104 -113 -3 -112 -3 92 -64 91 -63 -35
-99 c-20 -55 -33 -102 -30 -105 3 -3 42 21 86 55 44 34 84 61 89 61 5 0 48
-29 95 -65 48 -36 87 -61 87 -56 0 5 -16 52 -35 105 -19 53 -35 99 -35 101 0
2 41 32 91 67 l91 63 -113 3 -114 3 -29 100 c-16 55 -32 102 -36 104 -4 2 -21
-43 -39 -100z M6987 5034 c-3 -11 -18 -58 -32 -106 l-26 -88 -116 0 -116 0 89
-62 c49 -34 91 -63 94 -65 2 -2 -11 -49 -29 -104 -18 -55 -31 -102 -29 -105 3
-2 43 25 90 60 l84 64 92 -69 c51 -38 92 -68 92 -66 0 2 -16 50 -35 107 -19
57 -35 105 -35 107 0 1 41 31 91 65 l91 63 -114 3 -114 3 -28 97 c-32 105 -41
124 -49 96z M330 3488 c0 -432 4 -762 10 -803 25 -177 91 -345 189 -488 61
-88 184 -212 272 -274 91 -65 251 -139 366 -171 l98 -27 4065 0 4065 0 98 27
c413 114 710 422 814 847 14 57 17 167 20 844 l4 777 -5001 0 -5000 0 0 -732z
m9710 -227 l0 -669 -24 -70 c-74 -219 -262 -398 -505 -481 -157 -54 64 -51
-4233 -49 l-3973 3 -96 26 c-287 80 -499 270 -587 527 -22 61 -22 72 -22 722
l0 660 4720 0 4720 0 0 -669z"/>
</g>
</svg>
