<?xml version="1.0" standalone="no"?>
<!DOCTYPE svg PUBLIC "-//W3C//DTD SVG 20010904//EN"
 "http://www.w3.org/TR/2001/REC-SVG-20010904/DTD/svg10.dtd">
<svg version="1.0" xmlns="http://www.w3.org/2000/svg"
 width="2048.000000pt" height="2048.000000pt" viewBox="0 0 2048.000000 2048.000000"
 preserveAspectRatio="xMidYMid meet">
<metadata>
Created by potrace 1.13, written by Peter Selinger 2001-2015
</metadata>
<g transform="translate(0.000000,2048.000000) scale(0.192120,-0.192120)"
fill="#000000" stroke="none">
<path d="M1247 8924 c-474 -86 -838 -467 -907 -949 -5 -40 -10 -324 -10 -662
l0 -593 5001 0 5000 0 -4 638 c-3 544 -6 647 -20 703 -55 224 -149 396 -302
551 -137 138 -317 242 -512 296 l-98 27 -4035 2 c-3449 1 -4046 -1 -4113 -13z
m8113 -279 c290 -43 526 -207 643 -445 l42 -85 3 -572 2 -573 -4730 0 -4730 0
0 545 0 544 24 65 c80 221 283 407 531 487 152 49 -20 47 4175 48 3385 1 3959
-1 4040 -14z M10315 6567 c-18 -24 -45 -78 -45 -93 0 -8 -4 -14 -10 -14 -7 0
-10 -387 -10 -1140 0 -753 3 -1140 10 -1140 6 0 10 -5 10 -10 0 -6 13 -31 30
-58 l30 -47 0 1258 c0 691 -1 1257 -2 1257 -2 -1 -7 -6 -13 -13z M331 5325 c0
-1101 1 -1248 14 -1231 8 11 15 26 15 33 0 7 5 13 10 13 6 0 10 9 10 20 0 11
5 20 10 20 7 0 10 387 10 1140 0 753 -3 1140 -10 1140 -5 0 -10 11 -10 25 0
14 -4 25 -10 25 -5 0 -10 6 -10 13 0 7 -7 22 -15 33 -13 17 -14 -130 -14
-1231z M333 3303 c3 -545 6 -648 20 -704 55 -225 149 -396 303 -551 139 -140
316 -242 511 -296 l98 -27 4065 0 4065 0 98 27 c112 31 256 96 348 158 35 24
103 82 152 129 161 157 256 325 314 561 14 55 17 158 20 703 l4 637 -5001 0
-5001 0 4 -637z m9715 -190 l-3 -558 -30 -70 c-39 -87 -119 -207 -177 -261
-105 -99 -252 -177 -404 -216 l-89 -23 -4010 0 c-3760 0 -4015 1 -4087 17
-247 55 -448 194 -563 389 -98 166 -94 137 -95 747 l0 532 4730 0 4731 0 -3
-557z"/>
</g>
</svg>
