<?xml version="1.0" standalone="no"?>
<!DOCTYPE svg PUBLIC "-//W3C//DTD SVG 20010904//EN"
 "http://www.w3.org/TR/2001/REC-SVG-20010904/DTD/svg10.dtd">
<svg version="1.0" xmlns="http://www.w3.org/2000/svg"
 width="2048.000000pt" height="2048.000000pt" viewBox="0 0 2048.000000 2048.000000"
 preserveAspectRatio="xMidYMid meet">
<metadata>
Created by potrace 1.13, written by Peter Selinger 2001-2015
</metadata>
<g transform="translate(0.000000,2048.000000) scale(0.192120,-0.192120)"
fill="#000000" stroke="none">
<path d="M1320 10324 c-273 -42 -463 -131 -640 -301 -176 -167 -284 -364 -332
-603 -19 -96 -19 -8084 0 -8180 80 -398 361 -723 733 -849 180 -60 -136 -56
4249 -56 3399 0 4036 2 4095 14 398 79 726 367 848 746 55 171 52 -100 52
4235 0 4335 3 4064 -52 4235 -51 157 -132 292 -250 415 -160 169 -333 267
-572 328 -61 15 -367 16 -4086 18 -2211 1 -4031 0 -4045 -2z m8089 -287 c294
-72 494 -221 609 -457 l37 -75 0 -4165 0 -4165 -28 -69 c-120 -296 -384 -481
-736 -516 -74 -8 -1306 -10 -4041 -8 -3625 4 -3940 5 -4000 20 -334 86 -563
284 -649 562 l-21 68 0 4104 0 4105 21 62 c63 189 239 375 443 467 83 38 192
68 287 79 41 5 1846 8 4039 7 3772 -1 3969 -2 4039 -19z M1910 8680 c-149 -40
-271 -113 -382 -226 -88 -90 -128 -144 -174 -229 -66 -125 -74 -165 -74 -386
0 -175 3 -209 26 -310 33 -150 1026 -4418 1064 -4574 74 -312 193 -532 386
-716 99 -94 151 -129 267 -184 157 -74 233 -90 442 -90 159 0 190 3 265 24
342 95 601 334 759 697 21 50 194 606 386 1245 191 635 358 1188 372 1229 48
144 86 183 117 123 7 -16 169 -545 359 -1178 190 -632 362 -1198 381 -1258 76
-234 183 -415 335 -568 146 -145 281 -227 476 -286 84 -25 102 -27 280 -27
165 0 200 3 270 22 95 26 248 98 319 149 195 141 358 371 444 629 24 70 729
3078 1083 4617 l59 258 0 205 0 205 -35 90 c-43 112 -103 205 -191 299 -169
179 -355 260 -593 260 -282 -1 -478 -96 -676 -326 -66 -78 -149 -230 -183
-334 -41 -128 -66 -248 -312 -1478 -137 -686 -255 -1263 -261 -1283 -16 -52
-23 -61 -44 -53 -42 16 -45 27 -559 1764 -157 531 -306 1017 -331 1080 -59
147 -135 261 -250 375 -108 106 -210 170 -345 217 -92 32 -100 33 -260 33
-161 0 -167 -1 -262 -34 -282 -97 -520 -347 -630 -661 -15 -41 -199 -653 -409
-1360 -209 -707 -385 -1296 -389 -1310 -14 -47 -50 -110 -63 -110 -21 0 -46
65 -77 199 -15 69 -135 659 -265 1311 -157 783 -248 1220 -271 1287 -54 168
-116 279 -222 401 -105 120 -226 201 -372 248 -74 23 -105 27 -235 30 -127 4
-162 1 -225 -16z m395 -245 c223 -59 369 -209 448 -460 14 -44 192 -917 397
-1940 204 -1023 374 -1862 376 -1864 9 -10 19 18 94 276 276 945 1055 3554
1075 3598 83 188 258 338 455 391 88 24 271 24 360 1 215 -57 401 -228 477
-441 14 -41 961 -3229 1073 -3612 33 -114 62 -210 65 -212 3 -3 8 -3 11 1 3 3
33 142 65 309 32 167 200 1010 373 1873 230 1147 323 1593 346 1657 82 227
231 370 440 425 45 12 105 17 195 17 119 0 137 -2 215 -30 47 -17 112 -47 143
-68 115 -77 208 -207 242 -341 18 -69 20 -226 4 -311 -25 -137 -1112 -4797
-1139 -4884 -93 -298 -324 -511 -624 -577 -110 -25 -310 -22 -419 5 -156 39
-291 113 -403 222 -83 81 -145 167 -188 262 -28 60 -1014 3317 -1033 3409 -6
29 -20 46 -30 36 -2 -3 -31 -95 -63 -204 -126 -431 -940 -3132 -961 -3188 -50
-137 -160 -287 -275 -374 -187 -141 -434 -210 -659 -182 -129 16 -198 35 -300
85 -209 103 -370 302 -435 537 -34 125 -1110 4758 -1125 4848 -19 107 -19 229
0 310 54 226 257 407 500 445 56 8 240 -3 300 -19z"/>
</g>
</svg>
