<?xml version="1.0" standalone="no"?>
<!DOCTYPE svg PUBLIC "-//W3C//DTD SVG 20010904//EN"
 "http://www.w3.org/TR/2001/REC-SVG-20010904/DTD/svg10.dtd">
<svg version="1.0" xmlns="http://www.w3.org/2000/svg"
 width="2048.000000pt" height="2048.000000pt" viewBox="0 0 2048.000000 2048.000000"
 preserveAspectRatio="xMidYMid meet">
<metadata>
Created by potrace 1.13, written by Peter Selinger 2001-2015
</metadata>
<g transform="translate(0.000000,2048.000000) scale(0.192120,-0.192120)"
fill="#000000" stroke="none">
<path d="M1225 8920 c-388 -80 -699 -347 -831 -715 -69 -193 -65 10 -62 -2910
l3 -2640 27 -98 c31 -113 97 -257 158 -347 56 -82 176 -208 259 -271 91 -69
266 -153 386 -186 l100 -28 4065 0 4065 0 98 27 c201 56 375 158 518 305 125
129 202 251 256 408 57 167 56 150 60 840 l4 640 -3502 -3 c-1926 -1 -3504 -4
-3506 -6 -3 -2 1 -24 7 -47 14 -54 51 -95 110 -123 l45 -21 3293 -3 c3280 -2
3292 -2 3292 -22 0 -13 7 -20 20 -20 20 0 20 -7 20 -541 l0 -541 -26 -76 c-49
-144 -131 -271 -243 -375 -106 -98 -236 -157 -433 -197 -95 -20 -155 -20
-4072 -20 -4184 0 -4060 -1 -4216 40 -40 10 -54 13 -209 35 -62 9 -123 20
-134 24 -23 9 -24 7 513 413 933 705 2270 1716 2294 1735 l29 23 3358 0 3359
0 0 1110 0 1110 -3371 0 -3371 0 -173 131 c-186 140 -196 144 -230 92 -41 -62
2 -157 111 -246 144 -117 220 -135 313 -73 l51 35 75 -54 c41 -29 238 -179
437 -332 200 -152 469 -359 599 -458 130 -99 249 -190 265 -202 24 -19 26 -24
14 -32 -8 -5 -287 -215 -620 -467 -333 -251 -636 -479 -674 -505 l-69 -49 -46
38 c-41 33 -51 37 -101 36 -81 -1 -140 -33 -310 -169 -41 -33 -88 -67 -103
-74 -25 -13 -29 -13 -47 5 -10 10 -31 42 -46 69 -26 49 -194 264 -234 300 -11
10 -20 13 -20 7 0 -7 41 -133 90 -281 50 -149 90 -275 90 -280 0 -5 -80 50
-177 123 -327 244 -637 465 -646 459 -5 -3 -7 -38 -5 -78 9 -130 54 -182 347
-393 97 -70 195 -140 219 -155 24 -15 46 -35 49 -43 15 -40 -42 -90 -527 -455
-157 -119 -505 -382 -775 -585 -577 -436 -613 -462 -653 -470 -33 -7 -67 8
-93 40 -41 49 -90 166 -109 255 -19 92 -20 134 -20 1442 l0 1348 21 6 c15 5
33 -2 63 -24 160 -119 361 -232 447 -250 60 -13 129 -14 148 -2 11 7 -8 25
-74 73 -48 34 -167 121 -263 191 -97 71 -210 152 -251 180 l-75 52 157 3 157
3 -16 32 c-25 50 -75 96 -109 103 -18 3 -49 1 -70 -5 -27 -7 -43 -7 -51 0 -9
7 -20 5 -38 -6 l-26 -17 0 1155 c0 974 2 1161 14 1195 8 22 41 96 74 164 38
77 66 153 77 203 9 44 20 86 24 93 5 9 23 1 67 -30 70 -50 2208 -1686 2306
-1764 l67 -54 3556 0 3556 0 -3 643 -4 642 -27 100 c-100 368 -377 665 -726
779 -183 60 129 56 -4250 55 -3851 -1 -4009 -1 -4096 -19z m8185 -294 c186
-44 327 -121 446 -241 66 -66 90 -100 130 -180 l49 -98 3 -559 2 -558 -3217 0
c-2348 0 -3257 -4 -3363 -12 -233 -19 -268 -17 -315 13 -37 24 -869 659 -1605
1224 -312 240 -410 324 -410 351 0 32 80 59 224 74 39 4 1851 7 4026 6 3776
-2 3958 -2 4030 -20z m610 -3306 l0 -821 -2758 3 c-2648 3 -2759 4 -2786 21
-25 17 -26 20 -14 40 8 12 91 80 184 150 392 297 458 359 524 491 55 109 35
191 -82 326 -67 78 -115 119 -333 285 -146 111 -291 230 -317 260 -20 24 -23
51 -5 58 6 3 1266 6 2800 6 l2787 1 0 -820z M2007 6762 c-9 -4 -41 -31 -71
-60 -82 -81 -156 -247 -156 -353 0 -36 45 -231 60 -258 7 -13 72 177 175 512
20 64 38 117 40 117 2 0 16 -39 30 -87 14 -49 69 -221 122 -383 l96 -295 15
35 c43 101 54 238 28 335 -81 305 -220 484 -339 437z M2963 6175 l-221 -146
-63 40 -62 39 -111 -92 c-109 -91 -431 -327 -444 -325 -4 0 -61 68 -127 151
-133 167 -270 336 -290 356 -10 11 -23 2 -74 -51 l-61 -64 -107 18 c-59 10
-108 17 -109 16 -2 -3 -246 -361 -302 -443 -23 -34 -42 -73 -42 -87 0 -18 31
-64 102 -151 100 -122 102 -124 118 -103 9 12 114 160 234 328 l219 307 61
-66 c33 -37 102 -110 153 -162 50 -52 101 -107 113 -122 l21 -28 -23 -9 c-13
-5 -63 -25 -113 -45 -49 -20 -110 -40 -133 -43 -39 -5 -60 -21 -180 -131 -76
-69 -140 -133 -144 -141 -4 -9 -7 -45 -7 -81 -1 -52 -5 -68 -20 -77 -10 -6
-108 -87 -218 -180 -110 -92 -218 -184 -241 -203 l-42 -35 79 -135 c43 -74 83
-135 87 -136 5 -2 65 65 134 148 69 83 169 202 222 265 l98 113 51 -102 c28
-57 52 -104 54 -106 1 -1 28 9 60 23 l58 26 -7 102 c-4 56 -9 137 -13 180 -4
55 -3 77 6 77 6 0 122 -32 258 -70 135 -39 247 -69 248 -68 2 2 5 42 7 90 l4
86 -170 53 c-94 28 -177 55 -184 58 -8 5 40 48 127 118 l139 112 124 -152 c67
-83 214 -261 326 -395 111 -135 201 -246 199 -248 -2 -2 -35 3 -73 12 -96 21
-285 29 -359 15 -33 -6 -96 -29 -140 -51 -100 -50 -170 -55 -229 -15 l-37 25
-319 0 c-265 0 -320 -2 -320 -14 0 -7 -3 -28 -6 -45 l-6 -31 321 0 321 0 42
-27 c66 -44 133 -40 239 15 63 32 104 45 164 53 105 14 277 0 402 -32 32 -9
46 -9 57 0 12 10 26 -2 81 -68 37 -45 69 -81 73 -81 10 0 112 73 112 80 0 4
-46 60 -102 125 -57 65 -116 134 -133 154 -90 108 -482 571 -562 664 -51 59
-93 112 -93 116 0 4 57 32 126 61 181 77 393 230 667 481 184 170 214 199 205
199 -2 0 -103 -65 -225 -145z M2962 5780 c-58 -8 -481 -117 -492 -127 -2 -2
235 -2 528 -1 392 2 528 0 519 -8 -14 -13 -629 -451 -669 -477 -33 -21 -33
-19 -13 73 31 141 14 195 -77 254 -85 53 -146 69 -252 64 -65 -3 -99 -9 -116
-21 -13 -9 -22 -17 -19 -17 23 0 135 -25 185 -41 41 -13 72 -32 98 -58 34 -35
44 -60 117 -297 45 -142 83 -261 85 -263 2 -2 22 1 43 8 76 22 131 89 131 157
0 23 6 37 20 44 11 6 20 16 20 23 0 18 50 63 184 162 324 241 388 366 236 466
-73 49 -129 60 -305 64 -88 2 -189 0 -223 -5z M1555 5686 l-70 -35 112 0 c61
-1 114 2 116 7 2 4 7 19 11 35 6 27 6 27 -47 27 -39 0 -69 -8 -122 -34z M1293
4487 c-43 -45 -187 -254 -222 -324 -32 -63 -30 -176 4 -240 28 -53 77 -100
113 -109 79 -21 205 49 514 283 245 186 278 233 270 391 l-2 33 -47 -32 c-75
-52 -599 -435 -690 -506 -45 -34 -84 -63 -86 -63 -3 0 40 135 95 301 55 165
98 302 96 305 -2 2 -23 -15 -45 -39z"/>
</g>
</svg>
