<?xml version="1.0" standalone="no"?>
<!DOCTYPE svg PUBLIC "-//W3C//DTD SVG 20010904//EN"
 "http://www.w3.org/TR/2001/REC-SVG-20010904/DTD/svg10.dtd">
<svg version="1.0" xmlns="http://www.w3.org/2000/svg"
 width="2048.000000pt" height="2048.000000pt" viewBox="0 0 2048.000000 2048.000000"
 preserveAspectRatio="xMidYMid meet">
<metadata>
Created by potrace 1.13, written by Peter Selinger 2001-2015
</metadata>
<g transform="translate(0.000000,2048.000000) scale(0.192120,-0.192120)"
fill="#000000" stroke="none">
<path d="M1247 8924 c-477 -86 -844 -474 -907 -957 -7 -57 -10 -889 -7 -2692
3 -2395 4 -2615 20 -2676 57 -228 149 -396 303 -551 139 -140 316 -242 511
-296 l98 -27 4065 0 4065 0 98 27 c201 56 375 158 518 305 161 165 256 346
301 573 20 100 19 5304 -1 5405 -71 355 -298 646 -626 801 -52 25 -138 57
-192 72 l-98 27 -4035 2 c-3449 1 -4046 -1 -4113 -13z m8203 -292 c116 -32
271 -110 353 -177 88 -73 149 -151 200 -255 l42 -85 3 -187 3 -188 -4731 0
-4732 0 4 178 3 177 47 96 c117 240 372 415 666 458 31 5 1857 8 4057 7 l4000
-1 85 -23z m790 -1118 c-34 -55 -31 -99 13 -169 l38 -60 -68 -6 c-90 -9 -9644
-11 -9760 -3 l-91 7 40 77 41 77 -26 57 -26 56 4930 0 4931 0 -22 -36z m-5046
-450 c34 -5 46 -11 46 -23 0 -10 5 -22 10 -27 10 -10 7 -32 -16 -141 -4 -20 0
-23 28 -24 18 0 -28 -9 -102 -19 -162 -22 -252 -41 -383 -80 -497 -148 -1038
-498 -1516 -980 -185 -185 -403 -439 -393 -456 19 -35 222 -264 351 -396 591
-609 1214 -981 1826 -1089 212 -38 573 -30 757 16 22 6 24 1 46 -82 31 -121
30 -131 -15 -149 -84 -35 -451 -43 -933 -19 -236 12 -680 15 -2231 15 -1065 0
-1964 3 -1998 6 l-61 7 0 1698 0 1699 40 0 c33 0 40 3 40 20 0 20 8 20 2108
23 1159 1 2161 3 2228 5 67 1 142 -1 168 -4z m4836 -24 c0 -13 7 -20 20 -20
20 0 20 -7 20 -1675 0 -1668 0 -1675 -20 -1675 -16 0 -20 -7 -20 -31 l0 -30
-1857 4 c-1219 3 -1873 8 -1901 14 -66 16 -71 27 -26 58 45 31 233 137 387
219 116 62 333 202 462 299 217 163 397 323 640 571 103 105 188 183 215 197
43 23 54 24 298 27 249 3 252 3 252 -17 0 -15 6 -21 24 -21 17 0 26 -7 30 -25
4 -14 11 -25 16 -25 6 0 10 -8 10 -17 0 -10 9 -29 20 -43 11 -14 20 -31 20
-38 0 -7 16 -55 36 -108 30 -77 47 -104 89 -147 28 -29 77 -68 109 -87 31 -19
100 -63 153 -97 117 -77 153 -88 217 -69 48 15 150 76 196 118 14 13 46 41 72
62 50 40 103 108 137 174 27 52 78 207 86 257 15 99 29 156 41 166 8 6 14 19
14 28 0 10 20 40 44 68 103 121 81 249 -67 389 -102 98 -124 105 -367 113
-107 3 -201 10 -207 14 -21 13 -15 37 21 91 48 74 76 132 76 160 0 38 -62 134
-127 198 -118 115 -297 191 -453 192 -74 0 -99 -5 -195 -39 l-110 -40 -445 -3
c-475 -3 -538 1 -622 43 -26 13 -109 71 -185 128 -263 199 -472 328 -759 469
-82 40 -155 78 -161 85 -17 16 -16 30 3 37 9 3 848 6 1865 6 1842 0 1849 0
1849 20 0 17 7 20 50 20 43 0 50 -3 50 -20z m-4502 -200 c301 -27 582 -110
879 -258 507 -255 968 -638 1446 -1203 l48 -57 -28 -33 c-487 -594 -1076
-1068 -1613 -1297 -90 -39 -350 -132 -367 -132 -2 0 -3 7 -3 15 0 29 -38 91
-79 128 -46 41 -103 71 -276 147 -179 77 -187 81 -222 107 -70 51 -31 84 124
108 200 31 218 35 243 53 65 49 33 87 -127 151 -142 57 -201 88 -216 112 -15
24 10 58 93 124 84 67 108 110 119 210 12 108 73 197 187 276 71 49 64 70 -36
109 -126 49 -149 124 -119 374 13 104 2 148 -38 154 -29 4 -82 66 -90 102 -7
39 -33 60 -84 71 -53 12 -68 24 -86 68 -8 19 -33 61 -54 93 -49 72 -99 175
-99 205 0 69 80 209 180 316 70 75 57 72 218 57z m-851 -338 c225 -23 344
-104 403 -276 19 -56 26 -106 15 -106 -3 0 -28 12 -56 26 -28 14 -49 22 -47
17 53 -107 60 -129 65 -198 3 -41 3 -75 -1 -75 -4 0 -19 14 -33 30 -31 37 -39
34 -18 -6 12 -23 23 -30 57 -34 l43 -5 3 -207 2 -208 -65 0 -65 0 0 198 c0
183 -1 198 -19 209 -18 11 -19 9 -14 -27 4 -28 -3 -65 -26 -131 -18 -51 -30
-98 -27 -106 3 -7 -1 -13 -9 -13 -12 0 -15 -15 -15 -65 l0 -65 -65 0 -65 0 0
94 c0 91 -1 94 -27 111 -15 10 -39 32 -55 49 l-28 30 0 -142 0 -142 -60 0 -60
0 0 171 c0 151 -5 193 -26 217 -1 2 -16 -11 -33 -30 -29 -31 -30 -32 -31 -10
0 13 -5 32 -10 43 -12 22 -35 26 -26 4 3 -8 6 -99 6 -202 l2 -188 -61 -3 -61
-3 0 211 0 212 50 -7 c28 -4 50 -5 50 -3 0 1 -11 25 -25 52 -14 27 -25 55 -25
63 0 18 -7 17 -46 -13 -19 -15 -37 -25 -39 -22 -9 9 16 111 37 151 l19 39 -23
-7 c-13 -4 -35 -16 -50 -27 -35 -24 -37 -11 -10 60 36 94 151 239 265 334 58
48 60 49 77 30 14 -15 42 -21 127 -30z m4428 -554 c5 -5 -403 -161 -420 -161
-5 0 -56 17 -112 38 l-101 38 29 24 c32 27 39 72 15 92 -11 9 -18 6 -35 -18
-12 -16 -24 -43 -27 -59 l-6 -30 -206 -7 c-112 -4 -330 -6 -483 -3 l-279 4
-34 40 c-19 22 -60 52 -95 68 -33 16 -61 33 -61 38 0 4 267 8 593 8 l592 0
105 33 105 33 208 -67 c114 -36 209 -68 212 -71z m-5185 -278 l0 -210 -63 0
-64 0 2 208 c1 114 3 208 4 210 0 1 28 2 61 2 l60 0 0 -210z m238 -2 l2 -208
-65 0 -65 0 0 210 0 211 63 -3 62 -3 3 -207z m4492 62 c91 -29 168 -55 172
-59 4 -4 -52 -29 -125 -56 -72 -27 -167 -63 -210 -80 l-79 -32 -111 43 -112
43 -225 1 -225 0 -15 33 c-9 19 -40 49 -78 75 l-64 42 309 0 308 0 105 33 c95
31 109 33 145 22 22 -7 114 -36 205 -65z m-5136 -76 c12 -5 16 -21 16 -65 0
-33 4 -59 10 -59 6 0 10 -16 10 -35 0 -19 5 -35 10 -35 6 0 10 -6 10 -13 0 -8
13 -34 30 -58 37 -55 37 -73 0 -129 -16 -25 -30 -51 -30 -57 0 -7 -4 -13 -10
-13 -5 0 -10 -9 -10 -20 0 -11 -4 -20 -10 -20 -6 0 -10 -35 -10 -86 0 -81 -1
-86 -20 -81 -15 4 -20 0 -20 -14 0 -10 -7 -19 -15 -19 -21 0 -238 219 -275
276 -52 83 -47 98 82 232 117 123 198 201 210 202 3 0 13 -3 22 -6z m6126
-220 c60 -36 76 -107 37 -165 -41 -62 -147 -78 -208 -33 -90 68 -211 108 -305
102 -44 -3 -49 -1 -62 25 -7 15 -17 27 -21 27 -16 0 -134 -82 -183 -128 l-50
-47 -362 -3 c-198 -2 -425 -1 -504 3 l-143 7 41 44 c52 56 52 82 1 133 -22 22
-37 42 -33 45 3 3 401 6 885 6 796 0 882 -2 907 -16z m-4261 -75 c19 -33 8
-74 -25 -96 -26 -17 -27 -16 -50 11 -29 33 -31 69 -3 97 26 26 59 21 78 -12z
m3925 -174 c72 -27 131 -32 182 -13 30 11 35 9 53 -13 26 -31 51 -103 50 -143
0 -30 -1 -30 -11 -8 -10 20 -28 31 -28 16 0 -4 10 -42 22 -85 19 -73 19 -115
-2 -79 -36 63 -39 59 -40 -43 l0 -98 -28 20 -28 20 4 -57 c2 -31 0 -68 -5 -81
-9 -23 -10 -23 -33 15 l-23 39 -26 -72 c-14 -40 -29 -73 -33 -73 -4 0 -11 12
-14 27 l-7 27 -47 -52 c-26 -29 -55 -71 -65 -92 -10 -22 -23 -40 -29 -40 -18
0 -150 141 -196 210 -24 36 -45 67 -47 70 -3 3 -9 -3 -15 -13 -19 -34 -70 -87
-84 -87 -9 0 -14 12 -14 35 0 19 -13 68 -30 110 -37 94 -45 141 -31 190 6 21
9 40 7 42 -1 2 -24 -13 -49 -32 -25 -19 -48 -35 -51 -35 -16 0 64 193 104 250
20 28 23 29 88 24 56 -4 76 -1 122 20 81 35 212 36 304 1z m-5384 -200 l0
-205 -63 0 -63 0 0 205 0 205 63 0 63 0 0 -205z m240 0 l0 -205 -65 0 -65 0 0
205 0 205 65 0 65 0 0 -205z m235 0 l0 -205 -62 0 -63 0 0 205 0 205 63 0 62
0 0 -205z m235 0 l0 -205 -60 0 -60 0 0 205 0 205 60 0 60 0 0 -205z m240 0
l0 -205 -63 0 -63 0 0 205 0 205 63 0 63 0 0 -205z m240 0 l0 -205 -65 0 -65
0 0 205 0 205 65 0 65 0 0 -205z m-772 -478 c62 1 107 1 225 1 34 0 87 0 117
0 30 0 84 0 120 0 36 0 85 0 110 1 25 1 83 1 130 -1 84 -4 85 -4 83 -30 -1
-14 -16 -49 -35 -79 -48 -79 -46 -133 10 -229 66 -114 56 -136 -56 -120 -239
35 -586 169 -811 314 -103 67 -129 92 -115 114 17 26 73 42 119 34 22 -4 68
-6 103 -5z m5885 -1126 l68 -6 -37 -58 c-43 -69 -48 -117 -16 -171 l21 -36
-4930 0 -4929 0 20 40 c29 56 25 94 -15 166 l-35 63 62 4 c113 6 9721 5 9791
-2z m-173 -643 c0 -161 -1 -164 -33 -243 -111 -273 -349 -453 -657 -500 -82
-13 -648 -15 -4032 -15 -2769 0 -3960 3 -4014 11 -289 40 -524 198 -652 439
-62 115 -72 162 -72 327 l0 143 4730 0 4730 0 0 -162z M2314 6210 c-146 -11
-165 -23 -439 -294 -129 -128 -246 -238 -259 -246 -18 -9 -53 -11 -138 -6
-143 9 -282 -5 -338 -34 -55 -28 -172 -147 -210 -213 -16 -29 -30 -65 -30 -82
0 -45 32 -120 68 -161 18 -20 32 -42 32 -48 0 -7 9 -21 19 -30 11 -10 22 -38
26 -64 9 -63 26 -123 42 -147 7 -11 13 -26 13 -35 0 -37 118 -191 234 -306
174 -171 217 -198 337 -210 78 -7 117 7 230 82 128 86 206 195 264 368 14 41
25 88 25 106 0 18 6 33 15 36 8 3 17 14 20 25 13 39 50 46 290 52 242 6 272
11 317 54 24 23 68 116 68 143 0 6 -153 10 -408 10 l-407 0 -20 36 c-22 42
-89 84 -133 84 -17 0 -53 -5 -81 -12 -60 -14 -133 -1 -208 38 -26 13 -48 24
-49 24 0 0 1 -13 4 -28 2 -18 -2 -35 -12 -45 -15 -14 -19 -13 -46 15 -34 33
-49 33 -28 -1 16 -26 2 -53 -33 -63 -13 -3 -51 -14 -83 -24 -71 -22 -211 -25
-248 -6 -53 29 -76 121 -42 170 38 54 2 52 947 52 l875 0 12 30 c7 17 34 44
63 63 l50 32 -144 7 c-79 4 -333 7 -564 7 -231 -1 -426 -1 -432 0 -7 0 -22 10
-33 21 -28 28 -26 81 3 108 23 21 24 21 661 24 l638 3 18 22 c10 13 42 39 71
58 l54 35 -566 0 c-550 0 -567 1 -592 20 -44 35 -43 93 2 127 12 9 167 12 650
13 l634 0 -7 42 c-9 57 -35 98 -76 122 -27 16 -61 21 -179 27 -178 9 -751 9
-877 -1z m-444 -993 c37 -12 97 -22 140 -23 l75 -2 7 -42 c4 -24 4 -66 0 -94
l-8 -51 -20 35 -19 35 -6 -150 c-3 -82 -9 -158 -14 -167 -12 -28 -22 -21 -17
12 2 17 2 30 -2 30 -13 0 -36 -61 -37 -97 0 -21 -8 -63 -18 -93 l-18 -55 -7
33 c-4 17 -10 32 -12 32 -7 0 -79 -58 -116 -92 -19 -18 -28 -36 -28 -57 0 -17
-4 -31 -8 -31 -5 0 -35 16 -67 35 l-58 35 -24 -22 -24 -22 -24 25 c-14 13 -41
62 -60 109 -19 46 -44 93 -54 104 -21 20 -41 14 -41 -13 0 -9 -6 -26 -14 -36
-13 -18 -15 -16 -20 25 -4 25 -10 70 -14 100 l-8 55 -37 -38 -36 -38 -8 28
c-4 15 -7 56 -6 91 0 34 -2 62 -6 62 -4 0 -16 -7 -27 -15 -35 -26 -41 -19 -33
38 9 70 43 148 80 183 24 23 37 28 69 25 40 -3 106 11 270 55 96 26 145 24
250 -9z M1685 5189 c-30 -48 100 -176 202 -199 l36 -8 -35 36 c-19 20 -54 62
-78 92 -24 30 -52 63 -63 73 -22 19 -52 22 -62 6z M1467 5142 c-10 -10 -34
-70 -54 -134 -37 -111 -37 -115 -15 -100 56 37 143 198 128 237 -8 21 -40 19
-59 -3z M1718 4939 c-41 -23 -9 -79 69 -121 26 -14 59 -29 72 -33 23 -7 23 -6
-7 31 -17 22 -46 59 -64 83 -37 50 -46 55 -70 40z M1534 4928 c-4 -6 -10 -48
-15 -94 -4 -45 -10 -93 -14 -106 -6 -21 -3 -20 24 9 42 45 64 137 45 187 -7
19 -30 21 -40 4z M1635 4790 c-4 -6 -2 -41 4 -78 6 -37 12 -87 14 -112 l2 -45
22 35 c40 62 27 210 -18 210 -10 0 -21 -5 -24 -10z M5677 5874 c-4 -4 -7 -99
-7 -211 l0 -203 60 0 60 0 0 200 c0 110 0 203 0 208 0 9 -104 15 -113 6z
M5910 5670 l0 -210 60 0 60 0 0 210 0 210 -60 0 -60 0 0 -210z M6149 5873 c0
-5 -1 -98 -1 -208 l-1 -200 62 -3 61 -3 0 211 0 210 -60 0 c-33 0 -60 -3 -61
-7z M6380 5670 l0 -210 64 0 63 0 -1 208 -1 207 -62 3 -63 3 0 -211z M6620
5670 l0 -210 60 0 60 0 0 210 0 210 -60 0 -60 0 0 -210z M6860 5670 l0 -210
60 0 60 0 0 210 0 210 -60 0 -60 0 0 -210z M5670 4985 l0 -205 66 0 c56 0 65
2 60 16 -3 9 -6 101 -6 205 l0 189 -60 0 -60 0 0 -205z M5910 4985 l0 -205 60
0 60 0 0 205 0 205 -60 0 -60 0 0 -205z M6145 4985 l0 -205 63 0 62 0 0 205 0
205 -62 0 -63 0 0 -205z M6380 4985 l0 -205 63 0 63 0 0 205 0 205 -63 0 -63
0 0 -205z M6620 4985 l0 -205 60 0 60 0 0 205 0 205 -60 0 -60 0 0 -205z
M6860 4985 l0 -205 60 0 60 0 0 205 0 205 -60 0 -60 0 0 -205z M4646 6354
c-23 -59 117 -125 262 -123 l57 0 -63 23 c-35 13 -99 45 -142 70 -86 50 -105
55 -114 30z M4425 6256 c-14 -20 -14 -36 -5 -112 6 -48 8 -113 5 -143 -7 -53
-6 -55 9 -34 49 67 83 209 65 275 -8 31 -14 38 -34 38 -15 0 -31 -10 -40 -24z
M4768 6152 c-10 -2 -18 -9 -18 -17 0 -19 72 -81 129 -110 71 -36 90 -33 49 8
-19 17 -47 49 -62 69 -28 37 -67 57 -98 50z M4574 6066 c-14 -23 -14 -34 0
-131 22 -146 22 -155 -9 -155 -14 0 -25 -6 -25 -13 0 -19 57 -70 69 -63 14 9
14 53 1 58 -6 2 -4 22 5 52 27 89 16 276 -16 276 -5 0 -16 -11 -25 -24z M4710
5860 c-15 -29 22 -111 71 -155 45 -41 64 -45 55 -12 -3 12 -10 47 -17 77 -18
84 -83 138 -109 90z M5000 5830 c12 -22 30 -18 30 6 0 8 -9 14 -20 14 -18 0
-19 -3 -10 -20z M4790 5626 c0 -2 14 -9 31 -15 27 -9 30 -9 19 4 -11 13 -50
22 -50 11z M8217 5706 c-9 -23 -9 -81 0 -89 12 -12 33 15 33 42 0 15 -6 35
-13 45 -13 18 -14 18 -20 2z M9203 5083 c-36 -14 -1 -63 72 -102 47 -25 81
-29 48 -6 -12 8 -31 32 -44 52 -21 37 -47 64 -58 62 -3 0 -12 -3 -18 -6z
M8959 4980 c-9 -5 -31 -44 -49 -87 -19 -43 -40 -88 -48 -100 -25 -40 4 -24 55
30 57 60 83 104 83 142 0 26 -14 31 -41 15z M9220 4872 c0 -34 47 -101 89
-125 31 -18 43 -9 17 13 -8 6 -20 28 -26 48 -25 81 -32 92 -56 92 -20 0 -24
-5 -24 -28z M9036 4771 c-16 -17 -16 -22 -2 -56 9 -21 16 -49 17 -64 1 -24 2
-22 20 14 21 45 24 77 9 106 -13 24 -22 24 -44 0z M9156 4751 c-21 -23 -21
-22 10 -89 15 -31 29 -79 33 -107 l6 -50 15 35 c21 48 19 127 -4 177 -22 49
-38 58 -60 34z"/>
</g>
</svg>
