<?xml version="1.0" standalone="no"?>
<!DOCTYPE svg PUBLIC "-//W3C//DTD SVG 20010904//EN"
 "http://www.w3.org/TR/2001/REC-SVG-20010904/DTD/svg10.dtd">
<svg version="1.0" xmlns="http://www.w3.org/2000/svg"
 width="2048.000000pt" height="2048.000000pt" viewBox="0 0 2048.000000 2048.000000"
 preserveAspectRatio="xMidYMid meet">
<metadata>
Created by potrace 1.13, written by Peter Selinger 2001-2015
</metadata>
<g transform="translate(0.000000,2048.000000) scale(0.192120,-0.192120)"
fill="#000000" stroke="none">
<path d="M1276 8929 c-149 -22 -327 -92 -457 -179 -87 -59 -229 -199 -288
-284 -89 -130 -152 -277 -182 -431 -20 -101 -21 -5305 -1 -5405 45 -227 140
-408 301 -573 143 -147 312 -247 516 -304 l100 -28 4065 0 4065 0 98 27 c201
56 375 158 518 305 161 165 256 346 301 573 19 96 19 5304 0 5400 -46 228
-147 419 -308 581 -138 140 -316 243 -511 297 l-98 27 -4030 1 c-2230 1 -4056
-2 -4089 -7z m1514 -204 c0 -13 288 -15 2530 -15 2242 0 2530 2 2530 15 0 13
86 15 713 15 758 0 807 -3 947 -50 235 -79 438 -263 547 -496 l28 -59 3 -2787
2 -2787 -29 -80 c-69 -190 -229 -355 -436 -452 -115 -54 -216 -78 -370 -89
-178 -13 -7724 -13 -7875 0 -260 21 -507 139 -649 309 -60 73 -133 199 -163
281 l-23 65 -3 2710 c-2 2032 0 2724 9 2765 16 76 67 183 122 256 26 34 47 66
47 72 0 15 140 143 200 183 115 76 195 109 338 139 80 17 149 19 810 19 635 1
722 -1 722 -14z M5280 8392 c-19 -9 -62 -44 -95 -77 -71 -70 -128 -180 -248
-475 -41 -102 -476 -1175 -966 -2386 -1165 -2881 -1104 -2723 -1105 -2866 -1
-73 2 -91 20 -115 12 -15 32 -29 46 -31 27 -3 8 -43 195 413 135 328 2146
5297 2174 5373 13 34 26 62 29 62 3 0 16 -28 29 -62 87 -230 2335 -5775 2346
-5786 1 -2 14 0 27 3 33 8 58 62 58 124 0 85 -47 236 -164 529 -63 158 -461
1142 -884 2187 -423 1045 -849 2098 -947 2339 -230 570 -247 606 -324 688 -57
62 -111 98 -143 98 -7 0 -29 -8 -48 -18z M5295 7418 c-35 -92 -1535 -3805
-1644 -4071 l-82 -198 -323 -402 -323 -402 2407 0 2407 0 -324 403 -323 402
-154 378 c-212 521 -1559 3856 -1581 3915 -10 26 -21 47 -25 47 -4 0 -19 -33
-35 -72z m64 -721 c14 -17 15 -20 368 -892 376 -928 363 -895 363 -961 l0 -55
-23 17 c-13 10 -53 54 -89 98 -36 45 -136 168 -223 274 -173 212 -250 287
-339 332 -75 38 -98 38 -177 -2 -90 -45 -233 -192 -455 -468 -100 -124 -190
-233 -201 -243 -19 -17 -21 -17 -27 -1 -4 10 -4 38 0 63 5 36 602 1537 695
1746 42 96 78 127 108 92z m522 -2047 c802 -995 1030 -1278 1078 -1343 l44
-58 -27 -67 c-14 -37 -26 -79 -26 -93 0 -76 71 -200 215 -375 58 -71 108 -140
112 -153 8 -33 -16 -48 -90 -56 -93 -9 -3769 -1 -3789 8 -23 12 -30 35 -17 59
6 12 55 75 109 142 120 149 176 235 195 300 20 67 19 101 -6 174 l-21 63 43
57 c49 65 263 331 1038 1292 299 371 553 687 565 703 11 15 23 26 27 25 3 -2
251 -307 550 -678z"/>
</g>
</svg>
