<?xml version="1.0" standalone="no"?>
<!DOCTYPE svg PUBLIC "-//W3C//DTD SVG 20010904//EN"
 "http://www.w3.org/TR/2001/REC-SVG-20010904/DTD/svg10.dtd">
<svg version="1.0" xmlns="http://www.w3.org/2000/svg"
 width="2048.000000pt" height="2048.000000pt" viewBox="0 0 2048.000000 2048.000000"
 preserveAspectRatio="xMidYMid meet">
<metadata>
Created by potrace 1.13, written by Peter Selinger 2001-2015
</metadata>
<g transform="translate(0.000000,2048.000000) scale(0.192120,-0.192120)"
fill="#000000" stroke="none">
<path d="M1247 8924 c-348 -63 -652 -295 -807 -615 -48 -99 -73 -181 -95 -303
-13 -78 -15 -390 -15 -2670 0 -1658 4 -2606 10 -2651 25 -177 91 -345 189
-488 61 -88 184 -212 272 -274 91 -65 251 -139 366 -171 l98 -27 4065 0 4065
0 98 27 c422 117 734 449 818 873 21 105 21 5305 0 5410 -71 355 -298 646
-626 801 -52 25 -138 57 -192 72 l-98 27 -4035 2 c-3449 1 -4046 -1 -4113 -13z
m2515 -93 c49 -34 96 -61 104 -61 8 0 14 -4 14 -10 0 -7 487 -10 1440 -10 953
0 1440 3 1440 10 0 6 7 10 15 10 22 0 84 33 151 80 32 22 61 40 66 40 4 0 8
-1602 8 -3560 0 -1958 -3 -3560 -8 -3560 -4 0 -45 25 -91 55 -46 30 -100 59
-120 65 -23 6 -543 10 -1464 10 -1182 0 -1433 -2 -1460 -14 -48 -20 -181 -115
-189 -134 -4 -9 -6 1601 -6 3578 0 1977 2 3587 5 3578 2 -9 45 -44 95 -77z
m-342 -3511 l0 -3330 -1014 0 c-658 0 -1042 4 -1093 11 -184 25 -382 122 -508
249 -76 77 -158 209 -185 300 -20 64 -20 95 -18 2805 l3 2740 42 85 c124 253
380 425 688 463 17 2 492 5 1058 6 l1027 1 0 -3330z m5926 3319 c310 -43 563
-226 670 -486 l24 -58 0 -2757 0 -2758 -25 -67 c-52 -137 -164 -283 -276 -360
-77 -53 -190 -104 -288 -131 l-96 -27 -1067 -3 -1068 -3 0 3331 0 3330 1024 0
c680 0 1051 -4 1102 -11z"/>
</g>
</svg>
