<?xml version="1.0" standalone="no"?>
<!DOCTYPE svg PUBLIC "-//W3C//DTD SVG 20010904//EN"
 "http://www.w3.org/TR/2001/REC-SVG-20010904/DTD/svg10.dtd">
<svg version="1.0" xmlns="http://www.w3.org/2000/svg"
 width="2048.000000pt" height="2048.000000pt" viewBox="0 0 2048.000000 2048.000000"
 preserveAspectRatio="xMidYMid meet">
<metadata>
Created by potrace 1.13, written by Peter Selinger 2001-2015
</metadata>
<g transform="translate(0.000000,2048.000000) scale(0.192120,-0.192120)"
fill="#000000" stroke="none">
<path d="M1247 8924 c-399 -72 -737 -366 -862 -751 -58 -176 -55 -35 -55
-2838 0 -1657 4 -2605 10 -2650 25 -177 91 -345 189 -488 61 -88 184 -212 272
-274 91 -65 251 -139 366 -171 l98 -27 1198 -3 1197 -3 0 3611 0 3610 -1167
-1 c-961 -1 -1182 -3 -1246 -15z m2123 -3604 l0 -3320 -989 0 c-647 0 -1017 4
-1068 11 -103 14 -239 60 -332 112 -107 60 -232 187 -293 297 -86 157 -78
-142 -76 2935 l3 2740 43 86 c117 235 338 392 625 444 56 10 298 13 1080 14
l1007 1 0 -3320z M3820 8930 c8 -6 38 -22 66 -35 l52 -25 1398 2 1399 3 60 32
60 32 -1525 0 c-1035 1 -1520 -3 -1510 -9z M7000 5330 l0 -3611 1198 3 1197 3
98 27 c422 116 734 449 818 873 21 105 21 5305 0 5410 -71 355 -298 646 -626
801 -52 25 -138 57 -192 72 l-98 27 -1197 3 -1198 3 0 -3611z m2442 3283 c257
-73 443 -214 540 -409 l43 -87 3 -2768 2 -2768 -25 -67 c-49 -130 -151 -265
-265 -350 -46 -34 -161 -92 -230 -116 -136 -46 -173 -48 -1237 -48 l-1003 0 0
3320 0 3321 1048 -3 c1040 -3 1048 -4 1124 -25z M5345 7207 l-7 -145 -41 4
c-37 4 -40 3 -23 -8 58 -40 71 -55 57 -72 -10 -12 -18 -13 -33 -5 -10 6 -29 9
-41 7 -19 -3 -16 -8 26 -38 40 -29 47 -39 47 -68 0 -31 -2 -34 -22 -28 -48 14
-88 18 -88 9 0 -5 15 -17 33 -27 51 -30 77 -58 77 -83 0 -39 -28 -39 -68 0
-42 41 -97 67 -142 67 -43 0 -39 -27 8 -46 83 -33 184 -87 189 -100 10 -27 -6
-26 -92 5 -47 17 -98 32 -113 33 -33 2 -72 -10 -72 -22 0 -12 25 -17 111 -25
80 -7 162 -30 179 -50 22 -26 3 -29 -88 -12 -117 23 -163 22 -196 -4 -14 -11
-24 -24 -21 -28 2 -5 55 -6 117 -3 151 6 211 -16 178 -68 -8 -12 -19 -11 -80
9 -100 32 -173 38 -205 17 -14 -9 -25 -20 -25 -24 0 -4 53 -8 118 -9 117 -1
179 -11 175 -29 -5 -16 -229 -16 -295 1 -67 17 -124 20 -132 6 -3 -5 6 -12 20
-15 22 -6 25 -11 20 -32 l-7 -26 83 7 c72 5 94 3 167 -19 47 -14 95 -26 108
-26 35 0 63 -18 63 -40 0 -35 -42 -29 -126 15 -82 44 -159 54 -211 29 -21 -11
-38 -23 -38 -28 0 -6 41 -11 90 -12 56 -1 124 -11 180 -25 84 -22 90 -26 93
-51 2 -16 1 -28 -2 -28 -3 0 -45 14 -95 30 -94 32 -278 58 -323 47 -14 -4 -28
-15 -30 -25 -3 -11 -18 -22 -34 -26 -69 -18 -71 -46 -2 -46 l51 0 -23 -25
c-26 -28 -29 -26 70 -44 36 -7 115 -32 177 -57 61 -24 116 -44 121 -44 6 0 24
-12 41 -26 32 -27 38 -52 20 -85 -8 -15 -7 -24 2 -35 18 -21 -2 -37 -32 -26
-13 5 -33 6 -44 4 -15 -3 -10 -9 25 -22 24 -9 46 -22 48 -29 5 -14 -52 -15
-77 -1 -10 5 -45 14 -79 19 -57 9 -95 24 -183 71 -32 18 -43 19 -125 9 -49 -6
-101 -17 -116 -25 -37 -19 -37 -44 0 -44 16 0 36 -6 47 -13 22 -17 13 -24 -55
-48 -69 -24 -59 -43 26 -50 90 -8 118 -18 272 -90 68 -33 126 -59 128 -59 2 0
4 15 4 33 0 32 -3 34 -47 45 -69 16 -185 70 -177 83 3 6 14 8 23 6 56 -18 204
-57 206 -55 1 2 5 13 9 24 5 17 2 23 -19 28 -53 13 -135 48 -135 57 0 15 72 9
130 -11 30 -11 72 -19 92 -20 30 0 42 -6 62 -33 24 -32 26 -41 26 -143 0 -90
-4 -116 -20 -146 -19 -37 -19 -37 0 -43 14 -4 20 -15 20 -36 0 -35 -11 -36
-53 -5 -35 26 -114 57 -194 76 -29 6 -53 16 -53 20 0 16 43 18 92 5 49 -12 50
-12 44 9 -3 11 -6 29 -6 38 0 10 -11 19 -30 23 -16 4 -57 27 -91 51 -95 71
-134 81 -124 34 8 -38 -4 -38 -41 1 -47 50 -79 62 -154 57 -121 -7 -128 -48
-12 -68 103 -18 173 -60 115 -68 -31 -4 -29 -13 7 -37 30 -20 41 -55 18 -55
-7 0 -33 14 -58 30 -56 37 -83 40 -51 6 34 -36 11 -39 -38 -5 -25 16 -57 29
-75 29 -33 0 -96 -33 -96 -50 0 -5 20 -20 45 -31 42 -20 46 -25 43 -53 -3 -30
-2 -31 55 -42 61 -12 111 -39 102 -54 -3 -5 -34 -7 -68 -3 -52 4 -65 2 -77
-12 -12 -15 -12 -19 3 -30 10 -7 41 -15 70 -19 28 -4 133 -22 232 -41 99 -19
215 -41 258 -49 87 -16 130 -38 125 -64 -5 -25 -41 -26 -85 -4 -66 34 -83 36
-83 13 0 -28 -24 -27 -64 4 -30 22 -105 55 -128 55 -5 0 -6 -9 -3 -20 8 -26 5
-26 -54 11 -33 21 -69 34 -101 37 -45 4 -50 3 -50 -16 0 -33 -15 -34 -45 -2
-34 36 -70 39 -117 10 -18 -11 -41 -20 -50 -20 -26 0 -22 -27 4 -36 12 -3 61
-8 108 -9 69 -2 261 -38 279 -52 3 -2 -4 -10 -15 -17 -18 -14 -18 -15 -1 -33
16 -19 24 -53 11 -53 -3 0 -18 9 -33 19 -15 11 -40 23 -57 27 -16 3 -40 13
-53 21 -21 14 -25 14 -33 -1 -8 -14 -14 -13 -56 9 -31 17 -63 25 -95 25 -66 0
-130 -35 -99 -54 4 -2 89 -18 187 -35 217 -38 375 -78 498 -127 104 -42 137
-61 137 -79 0 -24 -29 -24 -73 -1 -24 13 -84 36 -133 51 -49 15 -106 36 -126
46 -53 27 -70 25 -62 -6 7 -30 -5 -32 -37 -6 -40 31 -107 61 -135 61 l-27 0
28 -26 c44 -41 17 -47 -54 -11 -70 35 -165 47 -214 28 -39 -15 -31 -31 30 -62
41 -21 70 -27 160 -32 117 -8 203 -27 223 -52 10 -12 9 -15 -6 -15 -11 0 -37
7 -59 15 -22 8 -57 14 -78 15 l-38 0 7 -35 c8 -43 -4 -45 -50 -10 -61 47 -168
70 -206 45 -13 -9 -12 -13 8 -28 18 -14 22 -24 17 -43 l-6 -24 188 0 c194 0
284 -14 341 -51 29 -19 18 -37 -18 -29 -25 6 -27 4 -22 -21 3 -15 1 -25 -4
-23 -5 2 -34 16 -64 31 -54 27 -155 53 -170 43 -5 -3 -6 -14 -3 -25 7 -27 -12
-25 -62 5 -22 14 -53 25 -68 25 -24 0 -26 -3 -18 -19 17 -30 1 -32 -41 -4 -62
41 -168 61 -168 32 0 -29 157 -78 330 -104 63 -9 119 -20 124 -25 20 -20 -7
-23 -83 -11 -52 9 -85 10 -96 3 -12 -6 -14 -11 -6 -16 13 -8 15 -46 2 -46 -4
0 -20 9 -35 21 -27 21 -140 69 -164 69 -9 0 -11 -7 -7 -20 8 -25 4 -25 -43 -1
-52 26 -97 34 -121 21 -12 -6 -21 -15 -21 -20 0 -17 75 -54 179 -90 98 -33
139 -60 92 -60 -28 0 -35 -16 -17 -42 39 -56 2 -65 -55 -14 -47 43 -102 60
-199 61 -77 0 -130 -19 -130 -48 0 -22 129 -136 169 -148 47 -14 133 -9 351
21 182 24 268 23 326 -6 47 -24 65 -50 44 -65 -8 -5 -25 -8 -37 -6 -17 3 -23
-1 -23 -15 0 -10 -11 -30 -25 -43 -23 -24 -30 -25 -150 -25 -70 0 -135 4 -145
10 -10 5 -24 26 -30 46 -10 30 -16 35 -34 30 -11 -4 -33 -9 -48 -12 -35 -8
-35 -15 2 -42 17 -13 30 -29 30 -37 0 -19 -3 -19 -53 7 -23 12 -60 25 -82 29
-51 10 -128 -7 -151 -32 -16 -18 -16 -20 0 -37 49 -55 216 -58 461 -7 94 19
192 35 219 35 43 0 48 -2 43 -20 -4 -14 0 -20 11 -21 35 -2 68 4 94 17 38 19
51 18 45 -6 -6 -25 0 -25 64 0 28 12 57 19 63 17 8 -3 11 -100 11 -333 l0
-329 110 -3 c61 -1 116 2 124 7 12 7 11 38 -3 202 -18 221 -21 397 -6 451 16
57 32 60 141 33 52 -14 107 -25 123 -25 28 0 28 1 13 18 -24 27 -21 32 18 32
48 0 88 19 74 36 -31 37 34 45 107 13 102 -43 276 -65 397 -49 80 10 167 41
189 67 30 36 -64 44 -161 14 -60 -19 -62 -19 -72 0 -12 23 -47 24 -96 4 -45
-19 -63 -19 -63 0 0 12 -17 15 -95 15 -75 0 -104 4 -134 20 -37 19 -38 21 -34
62 l5 43 -43 15 c-24 8 -43 20 -42 25 6 28 304 28 391 -1 29 -9 85 -14 170
-13 193 2 226 15 155 63 -49 34 -82 33 -128 -4 -48 -38 -67 -39 -63 -2 3 25 0
27 -35 30 -21 2 -62 -4 -91 -12 -63 -19 -102 -20 -111 -5 -4 6 1 17 11 24 18
13 18 14 2 15 -22 0 -23 16 -2 24 28 11 117 6 164 -8 38 -11 52 -12 84 -1 20
7 45 20 54 28 9 9 30 17 47 19 41 4 45 33 6 52 -34 18 -97 21 -137 6 -20 -8
-32 -7 -50 5 -34 22 -75 19 -149 -12 -61 -25 -66 -25 -83 -10 -24 22 -52 21
-147 -3 -89 -23 -105 -24 -105 -10 0 17 81 50 120 50 20 0 60 7 90 15 30 9
100 20 156 25 68 6 121 17 165 35 121 49 128 75 20 75 -55 0 -71 -4 -86 -20
-21 -24 -41 -26 -49 -5 -10 26 -67 17 -126 -20 -56 -36 -85 -44 -92 -24 -3 8
-14 7 -35 -5 -41 -21 -83 -21 -83 -1 0 10 32 31 82 55 74 36 90 40 159 40 43
0 90 5 106 11 15 6 55 16 88 23 76 16 82 40 12 44 -34 2 -60 -3 -88 -17 -49
-26 -69 -26 -69 -2 0 17 -3 17 -52 5 -63 -17 -93 -17 -119 -4 -28 16 -23 30
10 30 16 0 61 7 99 15 39 8 92 12 118 9 70 -8 129 7 129 31 0 33 -59 55 -146
55 -59 0 -78 3 -83 15 -7 20 -37 19 -124 -5 -90 -25 -115 -26 -110 -2 5 26 66
52 126 52 43 0 52 3 52 18 0 15 11 17 95 17 78 0 97 3 112 18 17 18 17 19 -2
34 -38 29 -244 0 -342 -49 -23 -12 -49 -18 -59 -14 -16 6 -15 8 3 29 11 12 19
27 16 34 -7 18 30 33 125 49 102 17 220 69 263 115 31 34 38 69 14 69 -31 0
-91 -39 -104 -66 -10 -22 -14 -25 -22 -13 -5 7 -9 22 -9 32 0 25 -31 21 -145
-18 -108 -38 -165 -44 -185 -20 -14 17 -9 20 55 30 51 8 136 35 153 48 10 8 9
14 -4 28 -10 11 -14 22 -11 25 9 9 83 24 150 31 62 6 73 21 32 43 -29 16 -31
27 -9 51 14 16 14 19 -5 38 -24 24 -49 26 -120 9 -45 -10 -53 -9 -70 7 -18 15
-31 16 -97 10 -62 -6 -75 -4 -72 7 7 21 71 37 189 48 111 9 149 21 149 43 0
27 -25 37 -91 37 -58 0 -67 3 -72 20 -6 23 -35 26 -118 10 -31 -6 -56 -7 -62
-1 -15 15 95 61 164 69 67 8 69 10 54 58 -5 15 0 23 19 32 14 6 26 16 26 22 0
32 -173 47 -225 18 -44 -24 -81 -27 -77 -7 2 14 -17 12 -130 -18 -142 -36
-233 -42 -233 -13 0 8 11 20 25 27 23 12 24 13 4 13 -41 0 -49 27 -46 143 2
53 4 58 30 69 16 6 97 11 197 12 143 1 170 3 170 16 0 32 -48 41 -147 28 -119
-16 -180 -16 -185 -1 -6 17 32 26 142 32 91 6 100 8 100 26 0 17 -8 21 -50 23
-27 2 -87 -4 -131 -13 -63 -13 -86 -14 -103 -6 -23 13 -25 19 -11 41 8 12 34
15 152 12 164 -3 182 2 156 46 -10 16 -15 32 -12 34 3 3 7 23 9 45 l4 39 -87
-1 c-48 -1 -118 -7 -156 -14 -46 -9 -71 -10 -78 -3 -18 18 0 29 57 36 30 3 77
15 105 26 28 11 65 20 83 20 46 0 66 15 39 29 -35 18 -106 13 -163 -13 -53
-24 -76 -29 -111 -27 -21 1 -25 53 -5 69 6 5 68 13 136 16 68 3 126 7 128 10
3 3 3 12 0 20 -9 23 -55 31 -101 17 -23 -6 -65 -16 -95 -23 -51 -11 -55 -10
-73 12 -10 13 -17 28 -15 33 2 7 52 11 130 11 108 1 127 3 125 16 -4 20 -85
25 -162 10 -47 -9 -60 -9 -67 1 -13 22 1 29 59 28 31 0 76 6 99 14 23 9 51 13
63 10 18 -5 21 -2 18 13 -5 29 -87 31 -149 5 -26 -12 -59 -21 -73 -21 -22 0
-26 5 -26 29 0 21 9 36 35 55 41 31 39 45 -4 38 -59 -8 -55 68 4 92 19 8 35
19 35 24 0 19 -14 21 -41 6 -26 -13 -30 -13 -35 0 -11 28 1 51 34 65 44 20 43
44 -2 36 l-33 -7 -9 143 c-12 194 -29 197 -39 6z m-31 -792 c3 -9 -1 -18 -8
-21 -18 -7 -58 14 -51 27 10 15 52 10 59 -6z m211 -45 c7 -11 -67 -33 -98 -28
-12 2 -23 11 -25 21 -3 15 5 17 57 17 33 0 62 -4 66 -10z m-75 -70 c0 -5 -7
-10 -15 -10 -8 0 -18 0 -22 -1 -4 0 -9 4 -11 10 -2 6 8 11 22 11 14 0 26 -4
26 -10z m-322 -106 c52 -8 110 -21 129 -29 41 -17 45 -40 6 -30 -16 4 -72 15
-125 25 -54 11 -106 24 -118 30 -24 13 -27 35 -4 26 9 -4 60 -13 112 -22z
m143 -114 c44 0 50 -6 38 -39 -8 -21 -11 -22 -32 -9 -12 8 -40 21 -62 28 -56
18 -76 30 -70 40 3 5 24 3 47 -6 22 -7 58 -14 79 -14z m315 -345 c-27 -20
-143 -58 -156 -50 -26 16 -5 31 68 46 104 21 111 22 88 4z m104 -166 c0 -12
-61 -39 -90 -39 -11 0 -46 -9 -77 -20 -89 -31 -122 -25 -108 20 5 17 16 20 73
21 37 0 85 6 107 14 50 16 95 18 95 4z m-37 -104 c1 -5 -37 -19 -85 -32 -48
-12 -96 -27 -107 -33 -30 -16 -43 -12 -39 12 2 19 12 24 48 30 25 4 65 14 90
22 49 16 89 17 93 1z m-23 -124 c0 -5 -20 -17 -45 -25 -25 -9 -65 -24 -89 -32
-25 -9 -49 -13 -55 -9 -25 15 -7 31 57 51 72 23 132 30 132 15z m-565 -50 c77
-22 157 -42 178 -46 27 -4 41 -13 49 -31 15 -33 4 -41 -35 -25 -18 7 -52 19
-77 26 -25 8 -94 31 -155 51 -60 20 -116 38 -123 40 -15 4 -6 24 11 24 6 0 74
-18 152 -39z m443 -67 c34 -9 26 -32 -13 -40 -44 -8 -65 0 -65 26 0 21 30 26
78 14z m106 -116 c-7 -12 -104 -38 -140 -38 -35 0 -49 12 -40 35 4 12 25 14
95 13 49 -1 87 -6 85 -10z m176 -29 c0 -17 -47 -39 -166 -79 -159 -55 -180
-58 -189 -30 -8 24 10 50 34 50 20 0 237 54 271 68 26 10 50 6 50 -9z m-195
-179 c-3 -5 1 -10 10 -10 31 0 81 -30 99 -60 17 -29 19 -30 72 -24 35 5 54 3
54 -4 0 -18 -60 -62 -85 -62 -15 0 -26 -7 -30 -20 -9 -29 -61 -68 -100 -76
-25 -4 -47 0 -78 15 -30 15 -53 19 -75 15 -37 -7 -43 9 -12 28 24 16 26 46 3
63 -16 12 -14 16 17 51 l34 39 -38 3 c-57 5 -39 26 30 34 32 5 63 10 69 12 19
8 36 6 30 -4z m-400 -268 c58 -19 81 -32 83 -46 4 -17 -1 -18 -41 -14 -52 6
-137 52 -137 73 0 19 1 19 95 -13z m599 9 c7 -11 -18 -21 -54 -21 -31 0 -48
15 -28 23 22 9 77 7 82 -2z m-254 -121 c0 -6 -6 -13 -14 -16 -11 -4 -8 -11 10
-29 13 -13 24 -36 24 -50 0 -18 5 -25 20 -25 11 0 20 -5 20 -11 0 -6 -9 -13
-20 -16 -17 -5 -20 -14 -20 -58 0 -45 3 -55 20 -60 11 -3 20 -10 20 -15 0 -26
-123 -22 -149 5 -12 13 -13 19 -3 22 7 3 12 22 12 48 0 26 -5 45 -12 48 -10 3
-10 7 -2 18 15 19 26 109 14 109 -6 0 -10 6 -10 14 0 10 13 16 38 19 20 2 40
4 45 5 4 1 7 -3 7 -8z m-345 -107 c76 -7 86 -15 79 -63 -3 -20 -7 -59 -8 -86
-1 -54 1 -53 -81 -39 -70 12 -97 27 -111 61 -15 35 -7 75 17 89 7 5 0 12 -20
21 -49 21 -40 38 17 30 26 -4 74 -10 107 -13z m-365 -169 c10 -10 11 -17 4
-24 -11 -11 -74 25 -81 47 -6 16 54 -3 77 -23z M4741 6069 c-30 -28 -18 -37
49 -41 43 -2 54 -6 51 -18 -10 -44 -7 -47 77 -63 23 -5 32 -3 32 7 0 7 9 24
19 38 l20 25 -72 36 c-85 44 -141 49 -176 16z M5670 6073 c-14 -2 -38 -8 -55
-13 -16 -5 -49 -14 -72 -20 -32 -8 -43 -16 -43 -30 0 -18 7 -20 71 -20 38 0
68 -4 65 -9 -3 -5 -35 -14 -71 -21 -47 -9 -65 -17 -65 -28 0 -8 -7 -24 -17
-34 -22 -24 -14 -24 138 8 68 14 161 27 206 28 45 1 85 5 89 8 9 10 -5 28 -32
38 -16 7 -22 14 -17 26 8 20 -13 34 -52 34 -17 0 -39 6 -50 14 -25 16 -62 24
-95 19z M6249 4243 c-20 -3 -27 -12 -36 -43 l-10 -40 141 1 c78 1 152 4 166 8
34 9 36 35 5 49 -38 17 -130 15 -145 -3 -18 -22 -50 -19 -50 5 0 11 -4 20 -9
20 -5 0 -15 2 -23 3 -7 2 -25 2 -39 0z M3930 1792 c0 -4 -17 -14 -37 -21 -21
-8 -49 -22 -62 -32 -23 -19 13 -19 1500 -19 l1524 0 -33 20 c-18 11 -51 26
-72 32 -22 7 -40 16 -40 20 0 5 -625 8 -1390 8 -764 0 -1390 -4 -1390 -8z"/>
</g>
</svg>
