<?xml version="1.0" standalone="no"?>
<!DOCTYPE svg PUBLIC "-//W3C//DTD SVG 20010904//EN"
 "http://www.w3.org/TR/2001/REC-SVG-20010904/DTD/svg10.dtd">
<svg version="1.0" xmlns="http://www.w3.org/2000/svg"
 width="2048.000000pt" height="2048.000000pt" viewBox="0 0 2048.000000 2048.000000"
 preserveAspectRatio="xMidYMid meet">
<metadata>
Created by potrace 1.13, written by Peter Selinger 2001-2015
</metadata>
<g transform="translate(0.000000,2048.000000) scale(0.192120,-0.192120)"
fill="#000000" stroke="none">
<path d="M2358 8943 c34 -2 90 -2 125 0 34 2 6 3 -63 3 -69 0 -97 -1 -62 -3z
M2550 8248 l0 -698 -1110 0 -1110 0 0 -415 0 -415 1110 0 1110 0 0 -664 c0
-365 3 -678 6 -695 l7 -31 -148 0 -148 0 5 355 c3 195 3 355 1 355 -3 0 -109
-74 -236 -163 -128 -90 -355 -250 -505 -355 l-274 -192 -276 1 -277 1 100 34
c111 38 153 39 192 2 23 -22 24 -22 56 -5 18 10 264 180 547 378 283 199 552
386 598 417 l82 55 0 114 0 113 -83 0 c-76 0 -87 -3 -123 -29 -21 -16 -376
-265 -789 -555 l-750 -526 -102 0 -103 0 0 -1287 c0 -800 4 -1315 10 -1358 25
-175 96 -357 193 -494 62 -88 186 -211 274 -272 99 -68 242 -134 360 -167 l98
-27 4065 0 4065 0 98 27 c422 117 734 449 818 873 21 105 21 5305 0 5410 -71
355 -298 646 -626 801 -52 25 -138 57 -192 72 l-98 27 -2098 3 -2098 2 -82
-59 c-171 -122 -1433 -1004 -1444 -1008 -7 -3 -13 -14 -13 -24 0 -18 11 -19
220 -19 l220 0 703 492 c386 270 726 509 755 530 l52 39 -1 -258 0 -258 -107
-74 c-59 -40 -234 -162 -390 -270 l-282 -196 390 -3 390 -2 0 -695 0 -695
-392 -2 -391 -3 59 -39 c32 -21 209 -143 391 -270 l333 -231 0 -282 0 -283
-325 0 -325 0 -553 387 c-303 213 -590 414 -637 448 -47 34 -91 65 -98 69 -11
6 -12 -77 -10 -448 l3 -456 -140 0 -140 0 0 695 0 695 1108 0 1107 0 0 32 c0
26 -11 43 -62 93 -35 33 -76 67 -93 75 -16 8 -33 19 -36 23 -3 4 -439 6 -970
5 -739 -3 -973 -7 -1001 -16 -67 -23 -232 -171 -244 -219 -4 -12 -10 -23 -15
-23 -5 0 -9 -249 -9 -585 0 -383 3 -585 10 -585 6 0 10 -7 10 -17 0 -22 43
-80 99 -130 l46 -43 -367 0 -368 0 47 43 c49 45 93 107 93 132 0 8 5 15 10 15
7 0 10 202 10 585 0 336 -4 585 -9 585 -5 0 -12 11 -15 25 -8 33 -104 134
-168 178 -38 26 -71 39 -118 47 -41 6 -381 10 -917 10 -752 0 -853 2 -853 15
0 11 -11 15 -40 15 l-40 0 0 145 0 145 40 0 c33 0 40 3 40 20 0 20 7 20 848
20 513 0 874 4 917 10 48 7 84 20 117 41 60 39 154 141 170 186 7 18 16 33 20
33 4 0 8 15 8 34 0 19 5 38 10 41 6 4 10 183 10 506 0 437 2 499 15 499 8 0
15 9 15 20 0 19 7 20 145 20 138 0 145 -1 145 -20 0 -13 7 -20 20 -20 20 0 20
-7 20 -499 0 -434 2 -500 15 -505 9 -3 15 -19 15 -41 0 -19 5 -35 10 -35 6 0
10 -6 10 -14 0 -32 130 -172 195 -211 24 -14 70 -29 110 -35 43 -6 428 -10
993 -10 813 0 922 2 922 15 0 8 9 15 20 15 11 0 20 4 20 9 0 5 10 12 23 16 12
3 46 33 75 66 38 43 52 67 52 89 l0 30 -1112 0 -1111 0 6 98 c4 53 7 366 7
694 l0 597 123 3 c67 2 -122 3 -420 3 l-543 0 0 -697z m6873 369 c276 -69 491
-240 583 -467 l24 -60 0 -2748 0 -2749 -21 -64 c-43 -134 -161 -289 -282 -371
-83 -57 -191 -104 -294 -131 l-88 -22 -4020 0 -4020 0 -96 26 c-237 66 -414
199 -520 391 -85 153 -79 43 -79 1420 l0 1225 58 16 c156 43 228 43 367 -1 98
-31 197 -34 272 -9 70 25 172 88 410 255 200 140 266 182 290 182 9 0 13 -18
13 -60 0 -33 4 -60 10 -60 6 0 10 -13 10 -30 0 -16 4 -30 9 -30 5 0 12 -11 15
-25 13 -53 165 -207 233 -237 75 -34 186 -30 285 10 109 44 215 56 448 50
l195 -5 110 -39 c134 -47 228 -52 309 -16 61 27 172 139 206 207 14 28 28 52
33 53 4 2 7 19 7 38 0 19 5 34 10 34 6 0 10 58 10 155 0 143 1 155 18 152 27
-4 68 -31 462 -307 201 -140 397 -272 436 -292 116 -61 159 -68 414 -68 250 0
315 10 381 56 98 68 195 209 191 279 -13 233 -13 338 2 382 9 26 16 65 16 88
0 52 -46 150 -110 230 -87 112 -88 123 -19 190 28 28 62 70 77 95 14 25 31 48
37 52 6 4 11 66 13 153 3 120 1 151 -12 170 -14 21 -16 75 -16 404 0 295 3
380 13 384 9 3 12 44 12 163 0 144 -2 161 -20 183 -11 13 -50 58 -87 100 -82
92 -85 113 -30 174 74 82 141 199 142 249 0 15 5 30 10 33 6 3 10 52 10 111
l0 104 1753 -3 c1609 -3 1758 -4 1820 -20z M7795 7269 c-373 -21 -818 -116
-972 -206 -103 -60 -274 -263 -273 -325 0 -10 -4 -18 -10 -18 -7 0 -10 -213
-10 -619 0 -496 3 -644 15 -738 66 -511 216 -885 493 -1230 224 -278 607 -538
897 -610 88 -21 165 -8 311 55 347 151 649 406 858 726 115 175 239 463 297
690 12 45 33 142 47 216 l25 135 4 683 4 683 -40 82 c-45 94 -161 223 -244
271 -159 93 -592 183 -990 206 -197 11 -216 11 -412 -1z m593 -285 c355 -36
727 -133 833 -217 14 -11 18 -61 29 -367 31 -868 -27 -1338 -216 -1739 -176
-372 -476 -650 -899 -832 -136 -59 -115 -60 -280 14 -395 176 -680 439 -857
792 -108 216 -187 533 -219 880 -15 158 -17 626 -5 978 l8 258 52 35 c97 66
419 151 714 189 277 36 547 39 840 9z M7730 6854 c-273 -25 -621 -96 -761
-156 l-47 -20 -6 -236 c-3 -130 -7 -308 -9 -395 l-2 -158 1005 0 c553 1 1049
-2 1103 -5 92 -6 97 -8 97 -29 0 -12 -9 -34 -20 -48 -11 -14 -20 -30 -20 -35
0 -6 -3 -12 -7 -14 -21 -9 -44 -82 -53 -163 -6 -49 -18 -125 -26 -169 -21
-101 -15 -235 12 -290 10 -21 24 -39 29 -40 14 -1 51 192 71 374 19 174 24
665 10 1012 l-8 196 -47 20 c-112 49 -350 103 -596 138 -115 16 -610 28 -725
18z m208 -129 c19 -16 41 -52 57 -95 32 -84 67 -118 188 -178 105 -52 189 -82
234 -82 31 0 33 -2 23 -20 -6 -11 -25 -27 -43 -36 -18 -9 -34 -18 -36 -20 -1
-1 10 -20 27 -41 16 -21 34 -51 39 -66 6 -21 26 -38 75 -65 37 -20 70 -33 74
-30 14 15 -11 71 -52 117 -24 27 -44 51 -44 53 0 2 16 12 36 23 19 10 42 31
50 46 19 37 18 42 -6 34 -23 -7 -130 11 -143 24 -6 6 -14 33 -18 62 -6 35 -21
71 -45 106 -45 65 -41 83 20 83 24 0 46 5 48 11 5 15 168 -11 332 -52 114 -28
135 -39 136 -65 0 -7 8 -14 18 -16 24 -7 32 -82 32 -305 0 -153 -1 -163 -19
-163 -10 0 -21 -6 -24 -13 -4 -10 -34 -16 -96 -20 -50 -4 -123 -14 -162 -23
-68 -15 -165 -15 -229 0 -14 3 -36 8 -50 11 -25 5 -78 -12 -215 -69 -51 -22
-76 -26 -163 -26 -88 0 -111 4 -165 26 -202 83 -180 79 -414 76 -185 -2 -213
0 -213 13 0 11 -11 15 -45 15 l-45 0 2 242 3 242 37 9 c26 6 38 15 42 32 5 18
15 26 44 31 20 4 53 15 72 25 19 9 77 36 129 59 100 45 97 44 227 19 59 -11
62 -11 115 20 69 40 125 42 167 6z M7836 6668 c-29 -40 18 -86 54 -53 25 22
25 37 2 58 -25 22 -38 21 -56 -5z M7520 6665 c-17 -20 -9 -28 65 -69 91 -52
95 -57 95 -132 0 -70 26 -177 58 -241 26 -50 84 -102 123 -110 29 -5 29 -6 29
-80 0 -71 1 -74 23 -71 20 3 22 9 25 71 l3 67 34 0 c18 0 40 3 49 6 13 5 16
-6 18 -68 3 -67 5 -73 26 -76 21 -3 22 -1 22 80 l0 84 72 28 c51 20 90 28 137
28 l65 0 -25 19 c-28 22 -111 49 -151 49 -15 0 -62 -11 -104 -25 -133 -44
-253 -27 -301 41 -33 48 -44 94 -50 206 l-6 108 -52 34 c-28 19 -57 42 -64 50
-17 20 -75 21 -91 1z M8170 5827 l-55 -12 123 -5 c94 -4 125 -8 132 -20 13
-20 12 -47 0 -71 -10 -17 -22 -19 -140 -19 -129 0 -130 0 -147 26 -16 25 -16
29 -1 55 16 28 16 28 -8 18 -34 -12 -174 -12 -174 1 0 6 -11 10 -25 10 -14 0
-25 -4 -25 -10 0 -5 -14 -8 -31 -6 -44 5 -98 -11 -138 -41 -32 -25 -33 -28
-28 -77 15 -136 27 -195 46 -239 12 -27 21 -61 21 -75 l0 -27 126 3 c108 3
129 1 145 -14 21 -19 24 -46 9 -75 -9 -17 -22 -19 -108 -19 -53 0 -102 -4
-109 -8 -9 -5 -9 -16 0 -45 l12 -37 91 0 c75 0 94 -3 107 -18 24 -26 21 -68
-5 -87 -22 -15 -18 -16 67 -10 50 3 106 8 126 10 41 5 49 -7 49 -77 0 -26 5
-38 14 -38 9 0 16 20 21 65 5 49 10 65 22 65 8 0 48 15 89 33 58 25 74 37 74
53 0 40 28 52 142 58 65 4 117 2 134 -4 25 -10 30 -8 48 15 12 15 31 39 43 54
49 62 49 102 1 173 -24 34 -23 93 1 127 11 15 23 39 26 54 17 65 -93 148 -187
143 -46 -2 -48 -1 -48 26 0 21 -5 28 -20 28 -13 0 -20 -7 -20 -20 0 -11 -7
-23 -16 -27 -23 -9 -109 11 -179 40 -75 32 -135 39 -205 24z m-182 -84 c26
-16 29 -58 5 -85 -14 -15 -32 -18 -134 -18 -130 0 -149 8 -149 60 0 48 28 59
149 58 72 0 113 -5 129 -15z m754 -60 c18 -16 23 -49 10 -69 -17 -26 -53 -33
-157 -31 -99 2 -109 4 -126 26 -24 30 -24 46 1 71 18 18 33 20 137 20 94 0
120 -3 135 -17z m-384 -89 c15 -10 22 -24 22 -44 0 -47 -29 -58 -150 -59 -121
0 -150 11 -150 59 0 48 28 59 149 58 72 0 113 -5 129 -14z m-364 -60 c9 -8 16
-26 16 -39 0 -47 -21 -55 -154 -55 -134 0 -148 5 -148 55 0 50 14 55 148 55
98 0 126 -3 138 -16z m793 -56 c-3 -8 -6 -5 -6 6 -1 11 2 17 5 13 3 -3 4 -12
1 -19z m-421 -103 c21 -28 17 -62 -8 -79 -17 -12 -49 -16 -134 -16 -110 0
-113 1 -133 26 -26 33 -26 40 2 67 20 21 30 23 141 22 104 -1 120 -4 132 -20z
m380 1 c19 -27 18 -52 -6 -76 -18 -18 -33 -20 -135 -20 -102 0 -117 2 -135 20
-27 27 -25 54 6 79 22 17 38 19 140 18 102 -2 117 -4 130 -21z m-382 -202 c9
-8 16 -26 16 -39 0 -47 -22 -55 -145 -55 -62 0 -121 3 -130 6 -27 11 -38 53
-20 80 15 23 20 24 140 24 99 0 127 -3 139 -16z M7018 5723 c-14 -16 -43 -55
-63 -87 l-38 -59 7 -85 c16 -188 65 -432 122 -598 117 -342 336 -618 639 -804
80 -49 306 -160 327 -160 28 0 302 142 388 200 104 72 247 204 321 296 63 79
151 223 143 235 -3 5 -2 9 3 9 12 0 40 77 54 147 11 60 9 157 -4 170 -5 5
-264 7 -370 4 -10 -1 -63 -44 -117 -96 -55 -52 -111 -97 -126 -101 -69 -17
-461 17 -513 45 -9 5 -39 60 -66 123 -89 206 -322 649 -365 692 -24 25 -39 14
-92 -69 -52 -79 -54 -95 -25 -141 13 -22 68 -120 122 -219 54 -99 109 -199
122 -222 l24 -42 -80 36 c-137 61 -117 27 57 -98 68 -49 87 -69 110 -115 27
-55 28 -56 63 -50 30 5 44 0 76 -23 87 -63 55 -60 594 -61 272 -1 503 2 513 6
30 12 13 -8 -47 -54 -43 -34 -65 -43 -118 -51 -35 -5 -84 -17 -109 -27 -37
-14 -85 -18 -262 -22 -197 -3 -275 2 -329 23 -21 8 -32 -20 -19 -46 10 -18 24
-19 283 -19 150 0 288 -3 308 -6 l37 -6 -57 -47 -56 -46 -275 -5 -275 -5 -9
-27 c-8 -22 -6 -32 9 -48 17 -19 30 -20 218 -20 l201 0 -55 -33 c-31 -19 -66
-41 -80 -50 -20 -14 -50 -17 -186 -17 -90 0 -163 3 -163 8 -1 12 -122 137
-165 169 -22 16 -95 58 -163 93 -67 35 -119 67 -115 70 5 3 42 14 83 24 41 10
91 27 111 37 35 17 66 46 58 54 -2 2 -40 5 -84 6 -131 3 -179 27 -249 124 -62
86 -115 197 -132 276 -8 38 -28 123 -44 191 -17 67 -30 145 -30 172 0 44 4 52
39 84 l40 35 -26 51 c-46 93 -117 206 -128 206 -6 0 -23 -12 -37 -27z M8570
5070 c0 -5 7 -7 15 -4 8 4 15 8 15 10 0 2 -7 4 -15 4 -8 0 -15 -4 -15 -10z
M7860 4991 c0 -53 25 -63 33 -14 7 41 2 53 -19 53 -10 0 -14 -12 -14 -39z
M4288 8943 l-628 -3 0 -456 0 -456 53 38 c68 49 1092 766 1177 825 57 39 73
45 135 50 69 6 68 6 -20 5 -49 0 -372 -2 -717 -3z m-290 -324 c4 -19 -23 -49
-44 -49 -9 0 -14 11 -14 36 0 33 2 35 27 32 16 -2 29 -10 31 -19z M1282 8933
c-8 -3 7 -19 40 -41 75 -50 442 -306 715 -499 127 -89 233 -163 235 -163 2 0
3 160 3 355 l0 355 -490 -1 c-269 0 -496 -3 -503 -6z M1090 8881 c-30 -10 -68
-25 -85 -35 l-30 -17 68 4 c61 3 71 6 100 35 36 37 27 39 -53 13z M753 8701
c-75 -59 -156 -142 -146 -151 9 -8 191 -136 685 -483 l336 -237 249 0 248 0
-40 27 c-48 31 -779 540 -1058 735 -109 77 -204 141 -211 144 -7 3 -36 -13
-63 -35z M484 8398 c-83 -131 -154 -369 -154 -514 l0 -54 531 0 531 0 -218
151 c-298 207 -506 353 -585 410 -37 27 -69 49 -73 49 -3 0 -18 -19 -32 -42z
M330 6054 l0 -386 43 32 c54 41 755 541 916 653 l123 87 -541 0 -541 0 0 -386z
M4311 6292 c118 -81 396 -276 619 -432 223 -156 464 -324 535 -373 l130 -88 3
43 c2 28 -5 62 -18 92 -26 61 -25 110 1 153 12 19 20 35 18 37 -2 1 -23 16
-45 34 -23 18 -250 178 -505 357 l-464 325 -244 0 -243 0 213 -148z"/>
</g>
</svg>
