<?xml version="1.0" standalone="no"?>
<!DOCTYPE svg PUBLIC "-//W3C//DTD SVG 20010904//EN"
 "http://www.w3.org/TR/2001/REC-SVG-20010904/DTD/svg10.dtd">
<svg version="1.0" xmlns="http://www.w3.org/2000/svg"
 width="2048.000000pt" height="2048.000000pt" viewBox="0 0 2048.000000 2048.000000"
 preserveAspectRatio="xMidYMid meet">
<metadata>
Created by potrace 1.13, written by Peter Selinger 2001-2015
</metadata>
<g transform="translate(0.000000,2048.000000) scale(0.192120,-0.192120)"
fill="#000000" stroke="none">
<path d="M1320 8934 c-161 -25 -271 -59 -391 -121 -323 -169 -544 -486 -588
-848 -15 -127 -15 -5143 0 -5270 29 -239 130 -452 296 -625 160 -169 330 -265
573 -328 60 -15 374 -16 4075 -20 4407 -3 4098 -7 4284 55 328 110 591 372
701 700 63 190 60 36 60 2853 0 2817 3 2663 -60 2853 -110 329 -377 594 -705
701 -185 60 113 56 -4239 55 -2189 -1 -3992 -3 -4006 -5z m7965 -115 c274 -27
459 -114 649 -304 109 -109 186 -230 243 -380 l38 -100 0 -2690 0 -2690 -38
-110 c-65 -186 -135 -298 -261 -419 -106 -101 -227 -177 -354 -221 -165 -58
93 -54 -4252 -56 -3686 -1 -4001 0 -4074 16 -102 21 -205 58 -286 102 -228
124 -412 350 -481 590 -19 67 -19 125 -19 2779 l0 2712 21 68 c111 360 446
644 824 699 120 17 7819 21 7990 4z M1135 7966 c-16 -7 -36 -25 -44 -39 -18
-34 -17 -106 3 -144 14 -29 64 -77 100 -98 15 -8 16 -15 7 -38 -35 -91 26
-194 127 -213 17 -3 32 -8 32 -9 0 -2 -5 -16 -10 -31 -33 -85 95 -199 278
-250 l62 -17 0 -40 c0 -21 7 -54 16 -73 26 -55 115 -128 196 -162 66 -27 100
-38 191 -57 23 -5 26 -9 21 -30 -16 -62 51 -146 152 -191 29 -13 90 -31 136
-40 l83 -17 -3 -42 c-5 -53 28 -95 107 -135 45 -22 180 -60 216 -60 3 0 1 -9
-5 -19 -51 -96 95 -180 340 -197 l99 -7 -20 -26 c-48 -66 -20 -158 60 -198 42
-21 43 -24 45 -72 1 -39 8 -58 32 -88 41 -50 106 -86 160 -87 38 -1 44 -5 58
-34 26 -54 111 -78 166 -47 32 18 40 18 40 0 0 -52 95 -118 171 -119 39 -1 53
4 74 25 26 26 26 26 63 8 37 -18 72 -23 127 -20 58 3 58 7 21 137 -19 66 -42
172 -51 234 -25 175 -17 158 -74 149 -38 -6 -94 -29 -102 -43 0 0 -4 -44 -8
-95 -5 -57 -12 -96 -19 -99 -7 -2 -12 -15 -12 -28 0 -34 -30 -31 -115 9 -39
19 -101 44 -140 56 -68 21 -175 71 -175 81 0 3 -26 33 -57 66 -39 41 -66 82
-83 124 -37 93 -152 209 -238 240 -34 13 -65 27 -68 31 -3 5 -13 9 -22 9 -31
0 -107 46 -195 116 -48 38 -90 76 -92 85 -3 9 -20 23 -37 30 -17 7 -83 57
-146 111 -75 64 -140 110 -187 132 -53 25 -96 57 -163 122 -110 104 -137 123
-248 174 -46 22 -87 47 -91 57 -13 35 -189 205 -258 250 -75 49 -87 61 -150
138 -67 82 -85 112 -85 140 0 22 3 26 18 20 9 -4 130 -44 268 -91 287 -96 645
-190 784 -205 95 -10 225 -32 268 -45 16 -5 22 -2 22 9 0 13 17 10 96 -19 53
-19 243 -80 422 -135 180 -56 342 -106 361 -112 18 -6 37 -21 41 -33 5 -13 21
-25 38 -29 17 -3 51 -19 76 -35 l46 -30 0 -75 c0 -64 -5 -85 -30 -135 -38 -75
-40 -135 -6 -188 26 -40 60 -75 79 -78 7 -2 22 -5 34 -8 27 -6 102 41 132 82
l21 31 -32 -10 c-18 -5 -50 -9 -71 -9 -30 0 -40 5 -49 25 -9 21 -7 29 18 61
98 122 134 200 134 287 -1 126 -105 240 -277 302 -60 21 -701 221 -793 247
-19 6 -98 35 -175 65 -141 55 -227 74 -260 56 -13 -7 -49 -4 -125 13 -322 70
-619 157 -952 280 -202 75 -320 114 -338 113 -3 0 -18 -6 -35 -13z M9425 7956
c-38 -13 -142 -50 -230 -83 -314 -118 -600 -204 -907 -273 -130 -29 -177 -36
-192 -28 -34 18 -117 1 -246 -51 -69 -27 -316 -109 -550 -181 -234 -72 -453
-144 -488 -160 -71 -33 -164 -116 -195 -175 -50 -93 -16 -233 87 -356 72 -87
59 -126 -39 -116 -30 3 -55 2 -55 -3 0 -12 81 -80 97 -81 7 -1 19 -2 26 -3 6
-1 17 0 22 3 6 3 13 6 16 6 11 0 87 73 98 94 21 38 12 96 -24 167 -29 58 -35
80 -35 134 l0 65 43 26 c23 14 57 32 75 39 17 7 32 18 32 26 0 7 8 18 18 23
10 6 178 59 373 120 195 60 411 130 482 155 104 37 127 43 127 30 0 -13 7 -15
33 -10 17 3 79 11 137 16 193 20 511 101 865 220 270 92 255 88 255 56 0 -15
-11 -43 -24 -64 -35 -55 -163 -181 -230 -227 -32 -22 -106 -90 -165 -151 -91
-96 -117 -117 -183 -148 -75 -35 -112 -62 -214 -155 -95 -85 -118 -103 -174
-131 -67 -35 -100 -59 -183 -136 -69 -64 -80 -73 -239 -199 -129 -102 -187
-137 -252 -154 -125 -31 -220 -113 -293 -249 -15 -30 -33 -64 -40 -76 -14 -25
-128 -136 -164 -159 -13 -9 -58 -27 -99 -40 -41 -14 -111 -41 -155 -61 -103
-46 -127 -47 -143 -3 -7 18 -12 63 -12 100 0 36 -4 77 -10 91 -12 33 -52 58
-105 66 l-43 7 -7 -61 c-11 -98 -52 -295 -79 -373 -24 -70 -24 -73 -6 -83 32
-17 127 -12 170 10 39 20 39 20 50 1 16 -31 70 -44 125 -30 52 13 135 82 135
112 0 21 3 21 42 1 59 -30 145 1 168 61 6 16 18 21 48 22 56 2 103 24 145 68
39 40 62 102 52 135 -5 15 1 22 27 33 91 40 129 156 69 216 -18 18 -15 18 79
25 235 15 384 94 352 186 -11 31 -2 40 43 40 40 0 149 38 195 69 57 38 84 82
77 126 l-5 33 65 12 c127 22 246 82 283 142 12 19 20 51 20 75 0 38 3 43 28
49 135 29 250 79 319 138 52 46 87 115 80 160 -5 32 -4 33 46 46 76 18 187 72
230 110 61 53 82 113 57 159 -8 16 -4 19 32 25 52 8 111 65 128 123 11 35 11
49 -1 80 l-15 37 45 31 c88 59 119 182 60 241 -35 35 -74 37 -154 10z M5165
7931 c-22 -10 -60 -39 -85 -65 -24 -25 -52 -46 -61 -46 -16 0 -53 -37 -61 -61
-2 -5 -44 -15 -94 -23 -107 -16 -126 -24 -163 -77 -33 -44 -46 -102 -36 -150
l7 -31 21 21 c28 25 59 37 136 51 131 24 193 9 231 -53 26 -43 25 -72 -5 -111
-14 -18 -34 -68 -45 -111 -11 -43 -27 -89 -35 -101 -17 -26 -89 -71 -143 -89
l-36 -13 34 -21 c19 -11 47 -21 63 -21 15 0 27 -4 27 -9 0 -31 -176 -151 -222
-151 -10 0 -18 -4 -18 -10 0 -13 35 -31 92 -45 l47 -13 95 74 c94 74 195 195
246 295 35 67 72 190 77 254 5 52 1 71 -26 134 -17 40 -31 79 -31 85 0 23 37
48 79 53 25 4 41 11 41 19 0 9 11 14 30 14 36 0 103 -56 130 -111 32 -61 90
-306 90 -376 0 -35 4 -71 9 -81 5 -9 17 -37 27 -62 23 -54 231 -273 293 -308
23 -13 41 -20 41 -17 0 4 -18 29 -40 55 -44 53 -47 60 -25 60 26 0 95 32 95
44 0 6 -20 24 -45 39 -49 31 -169 156 -199 208 -19 32 -19 32 0 25 39 -16 94
-19 109 -6 14 12 13 16 -9 39 -41 43 -72 127 -110 296 -20 90 -48 184 -64 215
-38 77 -125 162 -186 183 -71 24 -227 23 -281 -2z M4160 6443 c0 -225 3 -425
6 -445 l7 -38 78 0 79 0 0 -335 c0 -382 -10 -331 101 -518 32 -54 59 -103 59
-108 0 -5 -12 -27 -26 -49 -18 -27 -27 -58 -31 -100 -5 -52 -10 -65 -37 -88
-17 -15 -83 -80 -147 -144 -65 -64 -127 -122 -139 -128 l-22 -12 4 135 3 134
40 47 c22 26 45 55 50 65 6 9 24 35 41 56 41 51 61 114 74 223 18 155 17 155
-40 80 -27 -36 -82 -95 -122 -129 -193 -168 -242 -254 -258 -447 -10 -113 -35
-181 -76 -209 -31 -20 -30 -27 4 -40 l27 -10 -77 -76 c-62 -63 -82 -77 -107
-77 -24 0 -31 -4 -31 -19 0 -36 -104 -237 -131 -254 -16 -10 -94 23 -179 77
-81 51 -96 53 -115 17 -8 -17 -18 -50 -21 -74 -6 -42 -5 -46 34 -76 22 -18 59
-59 82 -91 23 -32 53 -61 65 -64 13 -3 47 -1 75 4 29 6 58 10 65 10 7 0 52
-69 100 -152 48 -84 93 -162 99 -172 10 -16 26 -20 97 -22 75 -2 149 9 149 23
0 2 -19 30 -43 61 -58 75 -113 158 -180 269 l-56 92 21 103 c11 57 25 108 31
115 13 13 414 203 428 203 5 0 9 -19 9 -41 l0 -42 53 46 c28 26 64 57 78 70
16 13 35 51 49 92 17 53 34 82 69 118 50 52 145 119 229 161 42 21 52 31 46
44 -4 9 -9 29 -11 43 -3 15 -34 62 -69 105 l-64 79 0 503 0 502 88 0 87 0 -3
-602 -2 -602 76 -77 77 -78 -17 -25 c-24 -37 -40 -32 -76 24 -18 28 -36 50
-40 50 -14 0 -29 -26 -41 -72 -10 -37 -19 -50 -43 -60 -71 -29 -259 -256 -341
-410 -56 -105 -61 -211 -10 -224 14 -3 25 -12 25 -20 0 -7 7 -32 16 -54 18
-43 55 -70 98 -70 21 0 27 -7 36 -39 14 -51 40 -82 81 -96 27 -9 35 -19 42
-49 12 -48 58 -94 99 -98 26 -2 33 -9 40 -33 4 -17 21 -44 38 -60 27 -26 39
-30 86 -29 42 0 54 -3 54 -15 0 -40 25 -98 55 -128 42 -42 76 -43 138 -3 l47
29 6 -27 c26 -121 108 -202 207 -202 80 0 148 71 163 168 3 23 8 42 10 42 1 0
24 -11 50 -25 56 -30 97 -32 144 -7 41 21 80 90 80 139 0 36 2 38 32 22 44
-24 121 27 138 91 9 35 14 39 47 42 46 4 72 37 81 104 6 40 11 48 26 46 53
-10 87 24 101 100 6 32 10 37 35 36 55 -2 110 59 110 122 0 13 7 20 19 20 30
0 61 47 61 91 0 103 -98 247 -295 437 -107 103 -125 125 -125 151 0 19 -10 42
-28 62 l-28 31 -33 -72 c-41 -89 -38 -121 19 -202 22 -32 44 -68 49 -80 5 -13
50 -70 100 -127 141 -162 139 -175 -53 -381 -280 -301 -352 -364 -475 -415
-47 -20 -110 -52 -140 -72 -84 -55 -113 -54 -196 2 -39 26 -101 62 -140 80
-58 27 -155 90 -175 114 -3 3 -31 25 -62 48 -56 42 -128 111 -264 254 -106
110 -124 138 -124 190 0 63 36 118 187 284 40 44 73 85 73 92 0 20 54 103 66
103 7 0 31 -16 54 -35 58 -49 85 -47 133 11 17 20 16 22 -43 68 l-60 47 0 695
0 694 85 0 85 0 0 -759 0 -760 87 -61 88 -61 -4 -69 c-4 -89 22 -150 75 -175
33 -15 37 -15 71 2 54 26 78 80 78 172 l0 73 78 55 77 54 0 765 0 764 85 0 85
0 0 -702 0 -703 -33 -23 c-17 -12 -45 -33 -60 -46 l-28 -23 26 -31 c36 -43 76
-43 115 -1 37 41 43 68 26 117 l-14 39 84 84 84 84 0 602 0 603 85 0 85 0 0
-506 0 -506 -59 -71 c-40 -49 -60 -83 -63 -107 -3 -19 -8 -42 -12 -50 -5 -12
9 -23 57 -47 83 -41 221 -145 245 -186 11 -17 25 -50 32 -72 20 -63 48 -113
68 -119 10 -3 38 -26 63 -51 l46 -45 7 40 c3 22 8 40 10 40 12 0 411 -190 422
-202 7 -7 22 -57 33 -110 29 -146 28 -145 104 -67 40 40 69 80 77 105 7 21 20
48 30 59 19 21 34 66 45 129 l6 38 57 -4 c31 -3 64 -8 72 -11 15 -7 60 74 453
823 82 157 153 289 157 293 4 4 25 -19 46 -52 21 -34 41 -61 44 -61 3 0 14 40
24 90 10 49 48 220 85 380 37 159 65 290 61 290 -4 0 -22 -19 -41 -42 -18 -24
-127 -150 -241 -280 -115 -131 -208 -240 -208 -242 0 -3 27 -10 60 -17 33 -6
60 -14 60 -16 0 -3 -41 -82 -91 -176 -50 -95 -150 -283 -222 -420 -71 -136
-132 -245 -134 -243 -2 2 25 125 61 274 36 148 66 277 66 285 0 30 17 26 67
-18 28 -25 54 -45 57 -45 3 0 6 174 6 387 0 227 -4 383 -9 377 -5 -5 -70 -121
-144 -259 -74 -137 -153 -281 -176 -320 l-40 -70 69 -3 68 -3 -9 -32 c-5 -18
-53 -207 -105 -422 -52 -214 -99 -406 -104 -427 l-10 -36 -106 -1 c-129 -1
-154 8 -230 93 l-55 61 32 13 32 13 -24 17 c-59 40 -79 90 -89 225 -7 99 -12
117 -48 191 -43 85 -95 146 -214 249 -37 31 -89 86 -115 122 -26 35 -48 63
-49 62 -1 -1 2 -51 7 -112 11 -150 28 -197 104 -286 99 -118 115 -156 115
-267 0 -77 -3 -93 -14 -89 -8 3 -16 -2 -19 -14 -8 -28 -33 -13 -83 48 -46 57
-184 193 -195 193 -5 0 -17 10 -29 22 -15 17 -20 35 -20 82 0 46 -6 71 -25
105 l-25 43 48 82 c27 44 63 106 80 137 l32 56 0 342 0 341 85 0 85 0 0 445 0
445 -22 -14 c-42 -27 -181 -77 -281 -101 -247 -60 -508 -35 -777 76 l-98 40
-57 -25 c-179 -80 -364 -120 -550 -120 -189 0 -371 41 -527 120 l-48 24 0
-407z m1363 67 c168 -49 407 -90 513 -89 44 0 112 6 152 13 l72 13 0 -138 c0
-159 5 -153 -92 -114 -34 14 -79 25 -100 25 -21 0 -65 -11 -98 -25 -74 -31
-88 -31 -175 0 -85 30 -109 31 -182 5 -32 -11 -73 -20 -93 -20 -20 0 -61 9
-93 20 -73 26 -97 25 -182 -5 -84 -30 -107 -31 -165 -4 -72 32 -121 35 -192 9
-75 -27 -119 -28 -178 -1 -60 27 -118 26 -190 -4 -33 -14 -71 -25 -85 -25
l-25 0 0 140 c0 77 1 140 3 140 1 0 38 -7 82 -15 183 -33 413 -4 720 89 109
34 148 32 308 -14z m-95 -1380 l-3 -830 -41 -25 -40 -24 -42 25 -42 25 0 830
0 829 85 0 85 0 -2 -830z m-1820 -1264 c18 -11 31 -28 29 -36 -1 -8 -27 -25
-57 -37 l-55 -22 -7 32 c-6 29 -2 70 9 90 6 11 42 -1 81 -27z M2507 6193 c-17
-28 -39 -173 -34 -223 6 -69 19 -95 91 -185 76 -94 157 -255 129 -255 -21 0
-91 63 -171 154 -67 77 -104 110 -143 130 -54 26 -103 33 -128 17 -25 -16 28
-173 81 -240 35 -46 83 -72 193 -106 164 -51 210 -94 261 -239 l15 -41 -49 55
c-59 66 -115 96 -214 115 -94 18 -116 27 -157 61 l-34 28 8 -25 c20 -66 77
-172 115 -213 46 -50 74 -61 174 -71 77 -7 129 -25 164 -58 24 -22 82 -101 82
-111 0 -3 -16 2 -35 10 -25 10 -73 14 -182 13 -114 -1 -158 2 -192 15 -24 9
-45 16 -46 16 -8 0 19 -79 41 -122 15 -30 40 -58 66 -75 40 -27 47 -28 212
-33 189 -6 216 -13 257 -72 21 -29 21 -31 3 -23 -100 42 -96 42 -213 12 -78
-21 -127 -28 -170 -25 -34 1 -61 1 -61 -3 0 -3 13 -26 29 -51 44 -69 94 -89
250 -99 165 -11 223 -29 277 -90 l19 -22 -45 23 c-53 27 -131 29 -238 6 -93
-20 -114 -20 -182 4 -30 10 -57 17 -59 14 -12 -12 79 -121 123 -149 l49 -30
176 -1 c144 -1 182 -4 209 -18 17 -9 32 -18 32 -19 0 -2 -28 -1 -63 1 -60 4
-67 2 -172 -53 -63 -33 -122 -57 -141 -58 -44 -1 -30 -18 44 -54 104 -51 240
-29 347 57 28 22 59 46 70 54 12 9 65 18 137 24 136 12 171 27 205 88 27 49
43 159 34 234 l-7 55 -31 -60 c-17 -33 -50 -78 -74 -100 -24 -22 -63 -63 -86
-90 l-43 -50 0 41 c0 62 26 137 59 168 76 73 106 224 60 306 -27 48 -49 52
-49 10 0 -42 -20 -77 -75 -130 -64 -62 -95 -126 -102 -212 l-6 -71 -18 34
c-44 84 -35 139 44 251 59 85 68 111 74 198 7 89 -14 174 -52 217 l-24 28 -1
-45 c-1 -53 -26 -113 -76 -182 -45 -61 -73 -132 -81 -209 -3 -32 -9 -59 -13
-59 -4 0 -12 24 -18 53 -35 165 -25 227 53 317 61 70 81 130 72 215 -6 61 -37
127 -69 149 -34 24 -38 20 -38 -39 0 -67 -15 -104 -67 -171 -56 -70 -75 -110
-83 -174 -6 -53 -7 -54 -18 -27 -17 40 -15 184 3 244 8 28 33 76 54 108 67 98
89 234 50 306 -11 21 -12 20 -29 -18 -10 -22 -41 -66 -70 -98 -77 -86 -94
-130 -95 -247 0 -53 -4 -94 -8 -91 -17 10 -67 128 -67 158 0 16 26 86 59 155
69 148 86 210 77 292 -6 65 -52 172 -86 203 -20 18 -20 18 -20 -11 0 -16 -19
-66 -41 -111 l-41 -83 12 -100 c10 -78 11 -108 1 -140 -6 -22 -16 -40 -20 -40
-5 0 -14 19 -20 43 -10 40 -15 86 -40 327 -10 95 -40 182 -75 222 -28 31 -114
98 -126 98 -5 0 -11 -3 -13 -7z M857 6124 c99 -48 98 -46 269 -538 165 -473
255 -756 261 -817 7 -68 -15 -122 -61 -150 -31 -19 -30 -19 234 -19 259 0 264
0 230 18 -46 23 -80 75 -80 122 0 53 28 146 227 745 96 292 186 547 199 568
13 20 43 51 66 67 l41 30 -264 0 -264 -1 45 -23 c98 -51 106 -87 56 -241 -32
-96 -173 -559 -237 -775 l-22 -75 -158 475 c-87 261 -158 489 -158 505 -1 39
31 90 71 115 l33 20 -270 0 -270 -1 52 -25z M9250 6146 c0 -3 12 -18 26 -33
62 -67 59 -29 62 -716 2 -442 -1 -640 -9 -670 -7 -28 -26 -57 -55 -84 l-44
-43 262 0 c247 0 261 1 238 17 -41 27 -91 76 -106 105 -12 22 -14 133 -14 658
0 704 -3 675 69 728 20 14 40 30 45 34 6 4 -99 8 -232 8 -133 0 -242 -2 -242
-4z M8470 5404 c-41 -31 -180 -130 -309 -222 l-234 -166 61 -29 62 -29 -88
-101 c-48 -56 -193 -227 -321 -380 l-232 -277 21 -36 c12 -19 20 -37 18 -40
-3 -2 -32 -24 -65 -47 -73 -51 -121 -105 -134 -149 -5 -18 -9 -65 -9 -105 l0
-71 -62 14 c-35 8 -81 25 -104 38 l-41 23 -57 -21 c-53 -19 -60 -25 -89 -78
-23 -41 -39 -58 -55 -60 -16 -2 -106 -91 -277 -273 l-254 -270 129 -3 128 -3
10 -47 c6 -26 16 -82 23 -124 7 -43 15 -78 18 -77 4 0 53 59 110 130 57 72
105 128 107 126 2 -2 -14 -57 -36 -122 -23 -64 -39 -119 -37 -122 3 -2 55 21
116 51 l111 56 77 -105 c42 -58 78 -104 79 -102 1 1 42 163 90 360 l89 359
-44 82 c-41 78 -43 83 -32 124 12 41 12 42 56 42 40 0 47 4 82 47 43 53 67 78
106 110 33 28 35 62 8 132 l-19 50 320 383 c176 211 328 391 338 402 17 17 18
16 40 -48 12 -36 25 -68 30 -71 4 -2 18 19 30 48 13 28 89 187 171 352 81 164
147 300 146 301 -1 2 -36 -22 -77 -52z m-1432 -1964 c8 -107 -40 -210 -99
-210 -40 0 -106 35 -114 60 -11 35 4 57 88 130 97 85 120 88 125 20z"/>
</g>
</svg>
