<?xml version="1.0" standalone="no"?>
<!DOCTYPE svg PUBLIC "-//W3C//DTD SVG 20010904//EN"
 "http://www.w3.org/TR/2001/REC-SVG-20010904/DTD/svg10.dtd">
<svg version="1.0" xmlns="http://www.w3.org/2000/svg"
 width="2048.000000pt" height="2048.000000pt" viewBox="0 0 2048.000000 2048.000000"
 preserveAspectRatio="xMidYMid meet">
<metadata>
Created by potrace 1.13, written by Peter Selinger 2001-2015
</metadata>
<g transform="translate(0.000000,2048.000000) scale(0.192120,-0.192120)"
fill="#000000" stroke="none">
<path d="M1239 8924 c-336 -61 -640 -287 -793 -592 -50 -99 -92 -230 -106
-327 -8 -58 -10 -817 -8 -2725 l3 -2645 28 -95 c56 -192 176 -393 304 -510
138 -127 323 -229 500 -278 l98 -27 4065 0 4065 0 98 27 c195 54 372 156 511
296 154 155 246 323 303 551 16 61 17 282 20 2701 3 2350 2 2644 -12 2720 -43
233 -146 431 -310 595 -139 139 -315 240 -515 296 l-85 24 -4045 2 c-3407 1
-4057 -1 -4121 -13z m8205 -262 c161 -47 277 -114 384 -224 108 -110 173 -218
219 -364 l28 -89 3 -1202 c2 -1003 5 -1203 16 -1203 9 0 15 -18 18 -56 3 -31
9 -59 14 -62 6 -4 26 -34 46 -67 l37 -60 -2546 -3 c-1401 -1 -2548 -1 -2549 1
-2 2 1 19 6 38 28 93 -31 209 -160 316 -41 34 -857 660 -1812 1392 -1925 1473
-1885 1443 -1918 1489 -20 29 -22 35 -9 48 9 8 42 19 75 25 40 7 663 10 1967
9 l1907 -1 0 21 0 20 2098 -2 2097 -3 79 -23z m-8675 -64 c31 -23 986 -754
2123 -1625 1137 -870 2090 -1599 2118 -1619 49 -35 51 -38 33 -54 -15 -14
-3787 -2866 -4207 -3180 l-139 -105 -63 69 c-35 37 -64 76 -64 87 0 20 -48
158 -60 174 -5 6 -28 69 -52 140 l-43 130 0 2730 c0 2589 1 2733 18 2795 10
36 22 74 26 85 5 11 30 65 54 120 25 55 48 114 52 132 6 32 117 163 137 163 6
0 36 -19 67 -42z m9261 -4738 l0 -1280 -25 -67 c-100 -265 -329 -446 -633
-498 -129 -22 -8037 -17 -8094 5 -49 19 -56 47 -20 81 15 15 380 294 812 620
3057 2309 2896 2186 3000 2284 83 78 131 114 167 125 15 4 1100 9 2411 9
l2382 1 0 -1280z M2049 6689 c-125 -10 -272 -68 -353 -139 -23 -20 -50 -31
-103 -39 -39 -7 -100 -27 -135 -44 l-63 -32 96 -3 96 -3 -23 -57 c-13 -31 -24
-75 -24 -97 l0 -40 55 57 c34 34 58 69 62 88 9 46 35 52 177 43 l121 -8 -70
-42 c-38 -24 -68 -44 -65 -44 3 -1 75 -7 160 -14 150 -12 156 -12 190 8 19 12
36 24 38 28 1 3 24 -4 50 -17 51 -25 78 -23 102 8 12 14 40 22 110 33 52 8
112 17 133 21 l37 7 0 -42 c0 -35 7 -49 40 -84 l39 -42 0 35 c0 31 -9 64 -34
124 -8 18 -4 19 91 13 55 -4 121 -10 147 -13 65 -9 61 7 -12 55 -82 53 -156
74 -239 69 -65 -4 -68 -4 -112 33 -123 103 -314 154 -511 138z m218 -95 c-3
-3 -12 -4 -19 -1 -8 3 -5 6 6 6 11 1 17 -2 13 -5z m-197 -17 c0 -7 14 -35 31
-61 24 -38 26 -47 12 -41 -60 24 -108 37 -188 48 l-90 14 105 25 c126 31 130
32 130 15z m440 -77 c0 -20 -193 -38 -215 -20 -29 24 -14 29 88 32 106 3 127
1 127 -12z M1122 6218 c99 -236 110 -510 37 -928 -36 -208 -49 -451 -30 -552
41 -208 173 -295 476 -313 209 -13 347 -44 456 -102 l66 -35 39 25 c87 58 225
91 468 112 230 19 299 40 381 116 92 85 128 240 107 468 -6 71 -26 212 -44
313 -30 170 -32 199 -32 408 0 276 10 332 101 547 3 8 -16 3 -48 -11 -103 -45
-185 -61 -314 -60 -77 1 -145 7 -190 18 -38 9 -132 19 -207 23 -145 6 -210 -3
-245 -36 -17 -16 -20 -16 -51 5 -18 13 -54 26 -79 30 -65 10 -276 -3 -353 -21
-169 -39 -337 -28 -496 34 l-71 28 29 -69z m892 -112 c26 -8 62 -26 80 -40 30
-23 35 -24 47 -10 49 60 193 80 325 46 170 -44 318 -49 476 -16 l27 6 -19 -58
c-34 -111 -50 -241 -50 -408 0 -178 15 -296 58 -446 22 -79 26 -116 27 -215 0
-139 -15 -185 -82 -252 -74 -74 -182 -108 -378 -118 -176 -9 -277 -40 -372
-112 l-33 -25 -30 26 c-41 34 -143 81 -205 94 -27 6 -102 14 -165 17 -137 7
-207 20 -276 50 -100 44 -162 122 -184 230 -16 77 -8 159 29 306 45 179 55
260 55 434 0 164 -11 264 -44 395 -11 41 -18 75 -16 77 1 1 29 -2 62 -7 105
-17 278 -11 394 15 124 27 209 30 274 11z M1385 6021 l-29 -6 26 -20 c14 -11
34 -25 44 -31 16 -10 15 -14 -16 -52 -18 -23 -30 -45 -27 -49 4 -3 24 -9 44
-12 30 -6 37 -11 36 -26 -10 -78 -15 -187 -9 -211 l7 -28 40 47 c23 26 44 47
47 47 4 0 15 -14 24 -31 21 -36 33 -32 42 16 4 19 20 65 36 101 l30 66 26 -21
c44 -34 50 -28 46 42 -4 62 -3 64 39 113 37 43 40 49 23 52 -11 2 -41 -6 -67
-17 -76 -33 -109 -35 -154 -13 -54 28 -156 44 -208 33z M2000 6019 c-74 -23
-104 -60 -150 -183 -26 -67 -140 -181 -264 -261 -122 -78 -126 -86 -155 -275
-5 -36 -17 -99 -26 -140 -9 -43 -14 -92 -11 -115 4 -22 10 -93 15 -157 7 -96
13 -124 32 -155 l24 -38 3 58 3 57 34 0 35 0 0 126 0 125 -27 -3 c-27 -3 -28
-1 -31 50 l-3 52 37 0 c33 0 36 2 30 23 -3 12 -6 70 -6 129 l0 107 -27 3 c-30
3 -34 0 320 232 l117 77 0 64 0 65 -35 0 c-34 0 -30 4 84 80 66 44 121 80 124
80 2 0 58 -36 123 -80 114 -78 117 -80 81 -80 l-37 0 0 -63 0 -62 229 -150
c127 -83 230 -153 230 -157 1 -5 -10 -8 -24 -8 l-25 0 0 -130 0 -130 30 0 c30
0 30 -1 30 -54 0 -53 -1 -55 -27 -53 l-27 2 -1 -122 -1 -122 35 -3 c35 -3 36
-4 41 -53 l5 -50 18 26 c22 32 33 106 42 264 6 97 4 133 -10 185 -19 72 -48
297 -49 375 0 38 6 60 27 92 15 24 27 45 27 48 0 3 -70 5 -155 5 -128 0 -155
3 -155 14 0 21 46 54 91 66 l39 11 0 62 c0 34 4 79 9 100 5 22 5 37 0 37 -5 0
-41 -16 -79 -35 -38 -19 -83 -35 -99 -35 -17 0 -75 23 -131 52 l-101 53 -112
2 c-62 1 -128 -2 -147 -8z M2735 5974 c4 -11 10 -56 13 -101 l4 -83 47 -13
c56 -16 58 -11 37 73 -19 73 -39 106 -79 127 -28 14 -29 14 -22 -3z M2010
5770 l0 -50 115 0 115 0 0 50 0 50 -115 0 -115 0 0 -50z M1648 5393 c-16 -4
-18 -18 -18 -104 l0 -99 80 0 80 0 0 105 0 105 -62 -1 c-35 -1 -71 -3 -80 -6z
M2470 5295 l0 -105 79 0 78 0 -1 99 -1 99 -35 6 c-19 3 -54 6 -77 6 l-43 0 0
-105z M1880 5198 l0 -73 255 0 255 0 0 73 0 72 -255 0 -255 0 0 -72z M1630
4950 l0 -100 80 0 80 0 0 100 0 100 -80 0 -80 0 0 -100z M2470 4950 l0 -100
80 0 80 0 0 100 0 100 -80 0 -80 0 0 -100z M1535 4671 c-35 -15 51 -31 220
-41 86 -6 189 -15 228 -21 92 -13 195 -13 277 0 36 6 136 15 222 21 173 10
272 29 228 41 -35 10 -1150 9 -1175 0z M3368 5330 c-58 -19 -109 -37 -111 -40
-6 -6 58 -314 68 -330 3 -6 15 -10 26 -10 16 0 19 -7 19 -43 0 -24 -9 -78 -20
-121 -48 -190 -179 -357 -340 -434 -97 -47 -213 -79 -321 -88 -58 -5 -91 -16
-153 -46 -161 -81 -369 -112 -552 -84 -105 16 -237 58 -308 99 -29 17 -64 26
-116 30 -157 13 -330 76 -438 159 -126 98 -224 283 -247 471 -7 55 -7 55 21
59 27 3 28 5 61 162 19 87 32 163 30 170 -5 12 -213 83 -222 75 -3 -3 -12 -55
-21 -115 -9 -60 -21 -115 -27 -121 -5 -7 -25 -13 -43 -13 -33 0 -34 -1 -34
-43 0 -137 45 -392 95 -537 78 -228 246 -375 535 -470 78 -26 86 -31 94 -61 8
-25 20 -36 61 -54 121 -54 282 -89 515 -112 140 -14 188 -15 315 -5 247 19
446 61 565 120 44 22 56 33 60 56 5 26 11 31 75 48 154 42 364 167 441 264
114 144 182 376 209 712 l6 82 -33 0 c-18 0 -38 4 -44 8 -7 4 -20 57 -29 117
-10 61 -21 115 -24 120 -4 6 -47 -3 -113 -25z"/>
</g>
</svg>
