<?xml version="1.0" standalone="no"?>
<!DOCTYPE svg PUBLIC "-//W3C//DTD SVG 20010904//EN"
 "http://www.w3.org/TR/2001/REC-SVG-20010904/DTD/svg10.dtd">
<svg version="1.0" xmlns="http://www.w3.org/2000/svg"
 width="2048.000000pt" height="2048.000000pt" viewBox="0 0 2048.000000 2048.000000"
 preserveAspectRatio="xMidYMid meet">
<metadata>
Created by potrace 1.13, written by Peter Selinger 2001-2015
</metadata>
<g transform="translate(0.000000,2048.000000) scale(0.192120,-0.192120)"
fill="#000000" stroke="none">
<path d="M1247 8924 c-399 -72 -737 -366 -862 -751 -56 -170 -55 -138 -55
-1690 l0 -1433 5000 0 5000 0 0 280 0 280 -2500 -2 -2500 -3 0 283 0 282 2500
-2 2500 -3 0 278 0 277 -2500 -2 -2500 -3 0 283 0 282 2500 -2 2500 -3 0 278
0 277 -2500 0 -2500 0 0 280 0 280 2420 -2 c1609 -2 2420 0 2420 7 0 6 -29 49
-64 96 -156 207 -364 347 -627 420 l-84 24 -4035 2 c-3450 1 -4046 -1 -4113
-13z m4128 -166 c14 -6 25 -15 25 -20 0 -4 9 -8 20 -8 11 0 20 -4 20 -10 0 -5
20 -10 45 -10 33 0 45 -4 45 -15 0 -13 223 -15 1863 -17 1114 -2 1870 -7 1881
-12 19 -9 19 -10 0 -17 -10 -4 -857 -8 -1881 -8 -1856 -1 -1863 -1 -1863 -21
0 -17 -7 -20 -45 -20 -25 0 -45 -4 -45 -10 0 -5 -6 -10 -13 -10 -6 0 -31 -18
-55 -40 l-42 -40 0 135 c0 79 4 135 10 135 5 0 21 -5 35 -12z m-165 -174 c0
-61 -3 -69 -37 -112 -21 -26 -42 -50 -48 -54 -6 -5 -10 -119 -10 -308 0 -189
4 -303 10 -308 6 -4 27 -32 48 -63 l37 -55 0 -145 c0 -138 -1 -146 -22 -166
-13 -11 -34 -33 -48 -49 l-25 -29 0 -295 c0 -222 3 -299 13 -310 6 -8 28 -39
47 -67 l35 -53 0 -143 0 -143 -35 -34 c-19 -19 -35 -38 -35 -43 0 -4 -7 -15
-15 -24 -14 -13 -15 -54 -13 -302 l3 -286 48 -67 c45 -65 47 -69 47 -137 l0
-71 -2305 0 -2305 0 0 1363 c0 1348 1 1362 21 1407 11 24 26 51 33 60 8 8 16
31 20 51 3 20 20 56 36 81 40 61 142 161 188 184 20 10 38 22 40 27 2 4 8 7
13 7 14 0 11 -28 -5 -37 -21 -12 -153 -161 -188 -213 -39 -57 -40 -102 -4
-189 14 -36 26 -78 26 -94 0 -36 57 -144 111 -208 22 -26 61 -61 86 -78 45
-30 51 -31 155 -31 l108 0 11 -27 c6 -15 13 -30 17 -33 11 -8 42 -102 42 -127
0 -12 -4 -33 -9 -47 l-10 -25 -56 31 c-73 39 -92 35 -214 -46 -108 -72 -251
-213 -276 -273 -20 -45 -14 -104 15 -170 11 -25 20 -59 20 -75 0 -71 120 -244
204 -293 38 -22 54 -25 148 -25 l106 0 32 -67 c36 -76 48 -140 32 -170 -11
-20 -12 -19 -72 10 -58 29 -61 30 -99 15 -128 -51 -357 -254 -395 -352 -14
-35 -16 -53 -9 -69 29 -64 53 -136 53 -161 0 -69 121 -242 204 -291 40 -23 52
-25 182 -25 l139 0 45 31 c25 17 64 54 86 83 48 59 104 173 104 211 0 14 21
71 47 125 l48 98 43 4 c87 7 119 -1 132 -33 7 -16 16 -29 21 -29 5 0 9 -7 9
-15 0 -8 11 -40 25 -71 14 -31 25 -69 25 -85 0 -80 133 -259 228 -309 35 -17
285 -14 322 5 86 44 209 227 210 311 0 12 13 49 30 82 17 34 30 65 30 70 0 5
7 15 15 22 8 7 15 21 15 31 0 17 9 19 86 19 l85 0 10 -30 c6 -16 15 -30 20
-30 5 0 9 -7 9 -15 0 -8 11 -40 25 -71 14 -31 25 -71 25 -90 0 -18 7 -39 15
-48 8 -8 15 -21 15 -29 0 -40 129 -189 194 -223 39 -21 285 -20 325 1 57 30
145 129 173 195 32 75 38 92 38 113 0 12 14 49 30 81 17 32 30 64 30 71 0 7 7
18 15 25 8 7 15 20 15 30 0 14 10 19 46 22 25 2 64 2 86 0 33 -4 41 -9 50 -33
5 -16 14 -29 19 -29 5 0 9 -6 9 -14 0 -7 11 -39 25 -70 14 -31 25 -69 25 -84
0 -16 7 -37 15 -48 8 -10 15 -26 15 -34 1 -41 132 -195 194 -227 43 -22 285
-19 329 4 79 41 207 223 207 295 0 13 14 56 30 97 17 40 30 84 30 97 0 72
-141 229 -297 331 -123 81 -131 82 -216 38 -39 -19 -72 -33 -75 -30 -14 14 -4
103 15 140 12 22 29 59 39 83 l18 42 111 0 c106 0 114 2 152 28 82 55 193 219
193 284 0 12 12 50 26 86 39 98 40 122 9 178 -33 61 -118 149 -210 218 -79 60
-174 116 -197 116 -8 0 -45 -15 -81 -34 -36 -19 -68 -32 -71 -29 -14 14 -5
107 13 142 10 20 27 55 36 79 l18 42 111 0 c68 1 119 5 132 13 61 35 144 129
174 195 12 26 26 55 31 64 5 10 9 28 9 40 0 12 12 50 26 86 40 99 41 122 8
182 -58 107 -336 334 -408 334 -74 0 -362 -236 -415 -341 -25 -50 -26 -76 -6
-133 18 -52 19 -100 2 -123 -11 -17 -15 -16 -62 8 -64 32 -83 32 -157 -6 -48
-24 -63 -28 -69 -17 -14 22 -10 76 11 135 25 72 25 83 -2 135 -53 105 -340
342 -413 342 -74 0 -359 -233 -414 -339 -25 -48 -26 -68 -5 -147 14 -57 12
-112 -5 -123 -5 -2 -31 7 -60 20 -65 32 -79 31 -153 -5 -48 -24 -63 -28 -70
-18 -14 23 -9 86 12 138 27 68 25 84 -11 144 -71 116 -332 330 -404 330 -71 0
-347 -223 -410 -330 -29 -49 -32 -99 -9 -164 15 -43 12 -104 -5 -114 -5 -3
-31 6 -60 19 -66 32 -84 31 -155 -5 -31 -17 -62 -28 -67 -25 -16 11 -10 102
11 146 11 24 20 54 20 65 1 76 -164 248 -381 399 -16 11 -29 26 -29 33 0 20
60 40 147 50 43 5 932 10 1976 11 l1897 1 0 -66z m-4233 -96 c-3 -8 -6 -5 -6
6 -1 11 2 17 5 13 3 -3 4 -12 1 -19z m222 -207 l31 -100 105 6 c60 3 105 2
105 -3 0 -5 -26 -26 -58 -46 -31 -21 -70 -48 -85 -60 l-28 -23 35 -97 c20 -54
33 -98 29 -98 -3 0 -38 24 -77 53 -39 29 -77 57 -83 61 -8 4 -44 -17 -94 -54
-44 -34 -82 -60 -85 -58 -2 3 11 48 31 101 l34 96 -84 58 c-46 32 -85 62 -85
67 0 5 44 6 104 3 l103 -7 23 78 c27 92 38 122 44 122 2 0 18 -45 35 -99z
m1111 -1 l31 -100 105 7 c60 3 104 2 104 -3 -1 -5 -39 -35 -85 -66 l-84 -58
34 -100 c19 -55 31 -100 27 -100 -4 0 -42 27 -85 60 -42 33 -80 60 -83 60 -3
0 -41 -28 -85 -61 -44 -34 -81 -60 -83 -58 -3 2 11 48 29 101 l34 98 -84 57
c-46 32 -84 62 -85 67 0 5 44 6 104 3 l104 -7 26 88 c35 114 35 112 40 112 3
0 19 -45 36 -100z m1090 78 c0 -5 12 -48 26 -94 l26 -84 104 7 c60 3 104 2
104 -3 0 -5 -39 -35 -85 -67 l-84 -58 34 -96 c19 -53 33 -99 30 -101 -2 -2
-40 24 -84 58 -50 37 -86 58 -94 54 -6 -4 -44 -32 -83 -61 -39 -29 -73 -53
-77 -53 -5 0 36 128 58 182 5 12 -13 30 -79 75 -47 32 -85 62 -86 67 0 5 44 6
104 3 l105 -7 31 100 c17 56 35 98 40 95 6 -4 10 -11 10 -17z m1135 -82 l28
-96 103 7 c60 3 104 2 104 -3 0 -5 -38 -35 -84 -67 l-85 -59 35 -95 c19 -53
33 -98 30 -100 -3 -3 -41 23 -85 57 -50 37 -86 58 -94 54 -6 -4 -44 -32 -83
-61 -39 -29 -74 -53 -77 -53 -4 0 9 43 28 96 19 53 32 100 29 105 -3 5 -39 32
-79 59 -107 72 -106 74 19 67 79 -4 108 -3 111 6 2 7 16 51 30 100 15 48 30
85 34 83 4 -3 20 -48 36 -100z m-2781 -550 l29 -95 108 -3 108 -3 -84 -59
c-47 -32 -85 -63 -85 -68 0 -5 14 -48 30 -95 17 -48 29 -90 28 -94 -2 -5 -37
18 -78 51 -41 33 -81 59 -88 60 -7 0 -49 -27 -93 -60 -43 -34 -79 -55 -79 -47
0 7 14 50 30 95 17 46 30 87 30 91 0 5 -39 35 -86 68 l-86 58 109 3 108 3 29
99 c16 54 32 97 36 95 3 -2 19 -47 34 -99z m1110 4 l30 -99 109 -3 109 -3 -86
-58 c-47 -33 -86 -62 -86 -66 0 -4 14 -47 30 -96 17 -49 30 -93 30 -97 0 -5
-36 18 -79 52 -44 33 -86 60 -93 60 -7 -1 -47 -27 -88 -60 -41 -33 -76 -56
-78 -52 -1 4 11 48 28 97 16 49 30 92 30 96 0 3 -38 33 -85 65 l-84 59 108 3
108 3 29 99 c16 55 31 100 34 100 3 0 18 -45 34 -100z m1136 -87 c0 -9 32 -13
111 -15 l111 -3 -86 -59 c-47 -32 -86 -63 -86 -67 0 -5 14 -45 30 -91 17 -45
30 -88 30 -95 0 -8 -36 13 -79 47 -44 33 -84 60 -89 60 -5 0 -44 -27 -88 -59
-43 -33 -80 -56 -82 -52 -1 5 11 46 28 92 16 45 30 89 30 95 0 7 -38 39 -85
71 l-85 58 109 3 108 3 23 77 c41 140 38 139 71 37 16 -49 29 -95 29 -102z
m1398 5 c2 -5 12 -8 23 -8 10 0 19 -4 19 -9 0 -6 20 -13 45 -17 28 -4 45 -11
45 -20 0 -12 339 -14 2255 -14 l2255 0 0 -25 0 -25 -2202 0 c-1212 0 -2227 -3
-2255 -6 -35 -5 -53 -11 -53 -20 0 -10 -14 -14 -44 -14 -30 0 -46 -5 -50 -15
-3 -8 -11 -15 -19 -15 -7 0 -30 -16 -50 -35 l-37 -35 0 162 0 162 32 -30 c18
-16 34 -32 36 -36z m-3038 -17 c0 -11 6 -26 13 -33 26 -28 49 -117 42 -163 -3
-25 -7 -45 -9 -45 -2 0 -27 13 -57 30 -30 16 -62 30 -71 30 -21 0 -82 -27
-121 -53 -34 -23 -37 -20 -44 30 -4 32 3 56 38 131 l44 92 82 0 c75 0 83 -2
83 -19z m1110 0 c0 -11 6 -26 13 -33 31 -33 55 -135 43 -183 l-6 -25 -60 30
c-33 16 -67 30 -77 30 -10 0 -47 -16 -82 -35 -36 -19 -66 -33 -69 -31 -2 3 -6
22 -9 43 -4 32 3 56 38 131 l44 92 82 0 c75 0 83 -2 83 -19z m-2270 -463 l28
-93 106 3 c58 1 106 -1 106 -5 -1 -5 -37 -33 -81 -62 -44 -30 -82 -58 -85 -62
-2 -4 11 -51 30 -103 20 -53 32 -96 28 -96 -5 0 -43 27 -86 60 -43 33 -80 60
-82 60 -2 0 -39 -28 -84 -62 -44 -33 -82 -59 -85 -56 -3 3 10 48 29 101 l35
96 -84 57 c-47 32 -85 62 -85 66 0 6 45 6 104 2 l103 -7 22 71 c11 38 21 72
21 75 0 15 21 59 26 54 3 -3 18 -47 34 -99z m1110 1 l32 -102 104 7 c57 4 104
4 104 -1 0 -4 -39 -34 -86 -67 -65 -44 -84 -62 -79 -75 22 -53 63 -181 58
-181 -4 0 -40 26 -82 57 -41 31 -80 56 -86 56 -6 0 -45 -25 -86 -56 -42 -31
-78 -57 -82 -57 -3 0 9 45 28 100 l34 100 -85 57 c-46 32 -84 62 -84 66 0 5
47 5 104 1 l104 -7 27 89 c33 114 33 114 39 114 3 0 19 -46 36 -101z m1090 79
c0 -5 12 -48 26 -95 l26 -86 104 7 c57 4 104 4 104 -1 0 -4 -38 -34 -84 -66
l-85 -59 34 -96 c18 -53 32 -99 30 -101 -3 -2 -39 22 -82 54 -42 32 -82 58
-88 58 -6 0 -45 -25 -86 -56 -42 -31 -79 -57 -82 -57 -4 0 9 43 28 97 19 53
33 99 31 102 -3 3 -41 31 -85 61 -44 30 -81 59 -81 63 0 5 47 5 104 1 l104 -7
32 102 c17 56 35 99 41 96 5 -4 9 -11 9 -17z m1136 -87 l28 -93 103 6 c58 4
103 3 103 -2 0 -4 -38 -34 -84 -66 l-85 -58 35 -96 c19 -52 32 -97 29 -100 -2
-3 -41 23 -85 57 l-81 63 -75 -56 c-109 -83 -109 -83 -69 29 19 53 33 100 31
104 -3 4 -41 32 -85 62 -44 29 -80 58 -81 62 0 5 47 5 105 1 85 -5 105 -4 109
7 3 8 17 54 31 103 15 48 30 84 35 80 4 -5 20 -51 36 -103z m-2775 -67 c32 -6
39 -12 64 -67 41 -90 49 -124 35 -158 -7 -16 -14 -29 -17 -29 -2 0 -25 11 -51
25 -61 33 -91 32 -158 -5 -30 -17 -59 -28 -64 -25 -23 14 -10 94 28 174 33 70
40 80 67 84 52 7 59 7 96 1z m1111 0 c29 -5 39 -13 47 -35 5 -16 15 -29 20
-29 6 0 11 -7 11 -16 0 -8 7 -38 16 -65 14 -41 14 -54 4 -79 -7 -17 -14 -30
-16 -30 -2 0 -23 11 -48 25 -59 33 -95 32 -163 -6 -45 -25 -57 -28 -65 -18
-16 25 -2 102 33 176 30 63 38 72 64 76 53 7 59 7 97 1z m1110 0 c26 -5 39
-13 44 -28 4 -11 12 -25 19 -31 19 -17 47 -124 40 -155 -9 -42 -18 -44 -69
-15 -58 33 -89 32 -160 -6 -47 -23 -61 -27 -68 -17 -13 18 -2 106 17 134 8 13
15 30 15 37 0 8 7 20 15 27 8 7 15 21 15 31 0 13 9 19 38 22 20 2 42 4 47 5 6
1 27 -1 47 -4z m-2228 -478 l29 -95 109 -3 110 -3 -86 -59 c-47 -32 -86 -64
-86 -71 0 -6 14 -49 30 -94 17 -46 29 -87 28 -92 -2 -4 -39 19 -82 52 -44 32
-83 59 -87 59 -4 0 -43 -27 -86 -59 -43 -33 -79 -57 -81 -53 -1 4 11 48 28 97
16 49 30 92 30 95 0 4 -39 33 -86 66 l-87 59 110 3 110 3 28 99 c16 55 31 97
35 95 3 -2 19 -47 34 -99z m1110 4 l29 -99 109 -3 110 -3 -86 -59 c-47 -32
-86 -62 -86 -66 0 -3 14 -46 30 -95 17 -49 29 -93 28 -97 -2 -4 -38 19 -81 52
-42 33 -81 60 -85 60 -5 0 -44 -27 -88 -59 -43 -33 -80 -57 -82 -53 -1 4 11
48 28 97 16 49 30 92 30 95 0 4 -39 34 -86 66 l-86 59 110 3 109 3 29 99 c16
55 31 100 34 100 3 0 18 -45 34 -100z m1111 0 l28 -99 110 -3 111 -3 -79 -55
c-43 -30 -83 -58 -89 -62 -5 -4 3 -42 22 -97 18 -49 32 -95 32 -101 0 -6 -36
16 -79 50 -44 33 -84 60 -89 60 -5 0 -44 -27 -88 -59 -43 -33 -80 -56 -82 -52
-1 4 11 45 28 90 16 45 30 88 30 96 0 7 -39 39 -86 72 l-86 58 110 3 109 3 23
77 c26 88 38 122 43 122 2 0 16 -45 32 -100z m1442 -90 c6 0 16 -7 23 -15 7
-9 29 -15 51 -15 26 0 39 -4 39 -14 0 -9 18 -15 53 -20 28 -3 1043 -6 2255 -6
2195 0 2202 0 2202 -20 0 -20 -7 -20 -2255 -20 -2248 0 -2255 0 -2255 -20 0
-17 -7 -20 -40 -20 -27 0 -43 -5 -46 -15 -4 -8 -13 -15 -21 -15 -8 0 -20 -6
-27 -12 -8 -7 -25 -23 -40 -35 l-26 -23 0 162 0 162 38 -37 c21 -20 43 -37 49
-37z m-3056 -17 c6 -15 13 -30 17 -33 18 -13 44 -114 39 -151 -3 -23 -7 -42
-9 -44 -2 -2 -30 9 -62 25 -32 17 -64 30 -71 30 -7 0 -43 -15 -81 -34 -38 -19
-71 -33 -74 -30 -3 3 -5 27 -4 52 0 44 10 74 33 112 6 8 18 34 27 58 l18 42
78 0 c76 0 79 -1 89 -27z m1109 8 c0 -11 7 -26 15 -35 8 -8 15 -21 15 -28 0
-8 6 -20 12 -26 12 -12 19 -135 8 -146 -3 -3 -32 8 -64 24 -32 17 -64 30 -71
30 -7 0 -43 -16 -80 -35 -37 -20 -70 -33 -73 -30 -3 3 -6 27 -5 53 0 44 10 76
32 112 6 8 18 34 27 58 l18 42 83 0 c75 0 83 -2 83 -19z m-2270 -463 l28 -93
106 2 c58 0 106 -2 106 -5 0 -4 -38 -33 -85 -66 -47 -32 -85 -60 -85 -62 0 -2
16 -47 35 -100 19 -53 34 -98 33 -100 -2 -1 -30 18 -63 43 -33 24 -72 53 -86
64 l-27 19 -86 -65 c-47 -36 -86 -62 -86 -58 0 5 16 51 34 104 l35 97 -85 58
c-46 32 -84 61 -84 65 0 4 47 5 104 2 l103 -6 22 71 c11 38 21 72 21 75 0 15
21 59 26 54 3 -3 18 -47 34 -99z m1110 1 l32 -102 104 6 c57 3 104 2 104 -2 0
-4 -38 -33 -85 -65 -47 -32 -85 -59 -85 -59 0 -1 16 -46 35 -101 20 -54 34
-100 33 -102 -2 -2 -41 26 -87 61 -94 73 -81 74 -186 -9 -38 -30 -71 -53 -72
-52 -2 1 13 48 31 104 l34 101 -84 57 c-46 32 -84 61 -84 65 0 4 47 5 104 2
l104 -6 26 89 c34 114 34 114 40 114 3 0 19 -46 36 -101z m1090 79 c0 -5 12
-49 26 -96 l26 -85 104 6 c57 3 104 2 104 -2 0 -4 -38 -33 -84 -65 l-84 -58
34 -101 c19 -55 34 -102 34 -104 0 -2 -39 26 -86 62 l-86 65 -27 -19 c-14 -11
-53 -40 -86 -64 -33 -25 -61 -44 -63 -43 -1 2 13 47 33 101 19 53 35 98 35
100 0 1 -38 29 -85 61 -47 33 -85 62 -85 66 0 4 47 4 104 1 l104 -6 32 102
c17 56 35 99 41 96 5 -4 9 -11 9 -17z m1115 -15 c3 -16 16 -59 27 -97 l21 -69
103 6 c57 2 104 2 104 -3 0 -4 -38 -33 -84 -65 l-85 -58 35 -96 c19 -53 34
-99 34 -104 0 -4 -39 22 -86 58 l-86 65 -27 -19 c-14 -11 -53 -40 -86 -64 -33
-25 -61 -44 -62 -43 -1 1 13 46 32 100 20 54 33 101 31 104 -2 4 -41 32 -85
62 -44 30 -81 58 -81 62 0 4 47 4 105 1 84 -5 105 -3 109 8 3 8 17 53 31 102
27 89 37 99 50 50z m907 -709 c10 -3 18 -10 18 -15 0 -5 20 -9 45 -9 38 0 45
-3 45 -20 0 -20 7 -20 2255 -20 2248 0 2255 0 2255 -20 0 -20 -7 -20 -2255
-20 -2248 0 -2255 0 -2255 -20 0 -17 -7 -20 -45 -20 -25 0 -45 -4 -45 -10 0
-5 -7 -10 -15 -10 -9 0 -34 -9 -55 -20 l-40 -20 0 140 0 140 37 -35 c20 -19
45 -38 55 -41z M10204 8285 c-5 -11 -8 -45 -9 -75 0 -64 26 -123 80 -185 l36
-40 -7 45 c-7 53 -58 214 -78 250 -14 24 -15 24 -22 5z M10303 7090 c-32 -55
-31 -141 2 -195 l25 -40 0 138 c0 75 -1 137 -2 137 -2 0 -13 -18 -25 -40z
M10301 5974 c-19 -37 -22 -57 -19 -111 2 -35 9 -67 14 -71 6 -4 16 -16 22 -27
9 -16 11 10 12 118 0 75 -1 137 -3 137 -2 0 -14 -21 -26 -46z M10304 4873
c-10 -21 -22 -39 -26 -41 -12 -5 -9 -122 2 -122 6 0 10 -6 10 -13 0 -8 9 -24
20 -37 l20 -23 0 136 c0 76 -2 137 -3 137 -2 0 -12 -17 -23 -37z M331 4770 c0
-112 1 -123 14 -106 8 11 15 26 15 33 0 7 5 13 10 13 6 0 10 27 10 60 0 33 -4
60 -10 60 -5 0 -10 6 -10 13 0 7 -7 22 -15 33 -13 17 -14 6 -14 -106z M330
4218 l0 -278 5000 0 5000 0 0 278 0 277 -5000 0 -5000 0 0 -277z M10306 3768
c-9 -12 -16 -28 -16 -35 0 -7 -4 -13 -10 -13 -6 0 -10 -27 -10 -60 0 -33 4
-60 10 -60 6 0 10 -6 10 -14 0 -8 9 -24 20 -37 l19 -24 1 133 c0 72 -2 132 -4
132 -3 0 -12 -10 -20 -22z M330 3660 c0 -66 3 -120 8 -120 27 1 60 180 33 180
-5 0 -12 14 -16 30 -14 64 -25 25 -25 -90z M330 3108 l0 -278 5000 0 5000 0 0
278 0 277 -5000 0 -5000 0 0 -277z M10264 2627 c-23 -29 -49 -66 -58 -84 -18
-37 -21 -118 -5 -160 l11 -28 14 25 c31 56 99 302 83 300 -2 -1 -23 -24 -45
-53z M350 2660 c0 -46 61 -245 89 -289 13 -20 22 0 28 62 4 44 1 63 -21 108
-29 60 -96 143 -96 119z M490 2265 c0 -6 29 -49 65 -97 180 -240 451 -400 740
-437 68 -9 1084 -11 4095 -9 l4005 3 84 24 c261 73 472 214 626 419 36 48 65
91 65 97 0 7 -1619 10 -4840 10 -3221 0 -4840 -3 -4840 -10z"/>
</g>
</svg>
