<?xml version="1.0" standalone="no"?>
<!DOCTYPE svg PUBLIC "-//W3C//DTD SVG 20010904//EN"
 "http://www.w3.org/TR/2001/REC-SVG-20010904/DTD/svg10.dtd">
<svg version="1.0" xmlns="http://www.w3.org/2000/svg"
 width="2048.000000pt" height="2048.000000pt" viewBox="0 0 2048.000000 2048.000000"
 preserveAspectRatio="xMidYMid meet">
<metadata>
Created by potrace 1.13, written by Peter Selinger 2001-2015
</metadata>
<g transform="translate(0.000000,2048.000000) scale(0.192120,-0.192120)"
fill="#000000" stroke="none">
<path d="M1247 8924 c-392 -71 -728 -359 -856 -733 -59 -173 -55 49 -58 -2806
-3 -1803 0 -2635 7 -2692 23 -180 88 -350 189 -496 61 -88 184 -212 272 -274
91 -65 251 -139 366 -171 l98 -27 4065 0 4065 0 98 27 c422 117 734 449 818
873 20 101 21 5305 1 5405 -46 228 -147 419 -308 581 -138 140 -316 243 -511
297 l-98 27 -4035 2 c-3449 1 -4046 -1 -4113 -13z m8053 -214 c294 -31 536
-185 686 -436 41 -70 69 -140 101 -249 15 -53 17 -129 20 -662 3 -372 8 -603
14 -603 5 0 9 -20 9 -45 0 -25 5 -45 10 -45 6 0 10 -5 10 -10 0 -6 5 -16 10
-23 6 -7 29 -41 52 -76 24 -35 55 -77 69 -92 l27 -29 -4980 0 c-4744 0 -4979
1 -4960 18 27 23 132 181 132 198 0 8 5 14 10 14 6 0 10 20 10 45 0 25 5 45
10 45 7 0 10 196 10 569 0 473 3 583 16 651 35 189 116 343 249 475 142 140
322 227 531 254 103 13 7836 14 7964 1z m730 -3420 l0 -890 -4710 0 -4710 0 0
890 0 890 4710 0 4710 0 0 -890z m206 -1077 c-26 -4 -65 -37 -66 -56 0 -4 -14
-26 -30 -49 -17 -22 -30 -49 -30 -60 0 -10 -7 -18 -15 -18 -13 0 -15 -78 -15
-638 0 -606 -1 -643 -20 -717 -11 -43 -20 -85 -20 -92 0 -32 -56 -153 -107
-230 -124 -190 -336 -317 -588 -353 -59 -8 -1141 -10 -4070 -8 l-3990 3 -80
23 c-175 49 -363 167 -452 283 -90 117 -130 207 -164 371 -18 84 -19 140 -19
725 0 415 -3 633 -10 633 -5 0 -10 9 -10 20 0 11 -4 20 -10 20 -5 0 -10 5 -10
11 0 6 -17 37 -37 69 -30 46 -44 59 -68 62 -16 3 2191 5 4905 5 2714 0 4922
-2 4906 -4z"/>
</g>
</svg>
