<?xml version="1.0" standalone="no"?>
<!DOCTYPE svg PUBLIC "-//W3C//DTD SVG 20010904//EN"
 "http://www.w3.org/TR/2001/REC-SVG-20010904/DTD/svg10.dtd">
<svg version="1.0" xmlns="http://www.w3.org/2000/svg"
 width="2048.000000pt" height="2048.000000pt" viewBox="0 0 2048.000000 2048.000000"
 preserveAspectRatio="xMidYMid meet">
<metadata>
Created by potrace 1.13, written by Peter Selinger 2001-2015
</metadata>
<g transform="translate(0.000000,2048.000000) scale(0.192120,-0.192120)"
fill="#000000" stroke="none">
<path d="M1247 8924 c-399 -72 -737 -366 -862 -751 -52 -157 -55 -210 -55
-855 l0 -598 5001 0 5000 0 -4 638 c-3 544 -6 647 -20 703 -55 224 -149 396
-302 551 -137 138 -317 242 -512 296 l-98 27 -4035 2 c-3449 1 -4046 -1 -4113
-13z m8099 -285 c310 -43 563 -226 670 -486 l24 -58 0 -557 0 -558 -4720 0
-4721 0 3 558 3 557 42 85 c47 98 132 203 218 273 111 89 288 163 443 186 89
13 7944 13 8038 0z M10315 6556 c-31 -37 -48 -89 -56 -176 -6 -55 -9 -533 -7
-1135 l3 -1040 35 -65 35 -64 3 621 c4 1033 -2 1872 -13 1859z M330 5333 c0
-1162 3 -1299 26 -1208 3 14 10 25 15 25 5 0 9 9 9 20 0 11 5 20 10 20 7 0 10
383 10 1130 0 747 -3 1130 -10 1130 -5 0 -10 11 -10 25 0 14 -4 25 -10 25 -5
0 -10 6 -10 13 0 7 -7 22 -15 33 -13 17 -14 -128 -15 -1213z M5165 6489 c-202
-26 -407 -109 -575 -232 -62 -46 -192 -169 -221 -208 l-19 -26 56 -38 56 -37
92 90 c106 104 184 158 310 218 119 56 214 82 357 96 l117 12 5 60 c2 34 2 64
0 69 -5 9 -87 7 -178 -4z M5566 6458 c-8 -25 -26 -107 -26 -116 0 -5 30 -17
68 -26 88 -22 251 -101 330 -160 34 -25 66 -46 70 -46 4 0 28 20 52 45 52 53
51 53 -57 127 -99 66 -230 131 -331 162 -95 30 -101 31 -106 14z M5155 5870
c-86 -149 -123 -206 -132 -199 -8 7 -13 -2 -18 -33 -4 -24 -25 -77 -48 -118
-41 -74 -41 -74 -50 -45 -5 17 -11 99 -12 183 l-4 152 -64 72 -65 71 -7 -89
c-8 -92 -1 -351 11 -392 4 -12 19 -29 34 -37 24 -13 29 -22 32 -67 4 -44 0
-61 -24 -104 -15 -28 -28 -55 -28 -59 0 -3 13 -4 30 0 l29 6 -43 -78 c-24 -43
-55 -98 -70 -123 -14 -25 -26 -48 -26 -52 0 -5 261 -8 580 -8 319 0 580 4 580
8 0 5 -31 62 -69 128 -37 65 -67 121 -65 123 2 2 12 -3 21 -11 10 -9 28 -20
40 -27 21 -11 21 -11 -3 32 -23 42 -23 47 -12 131 7 61 16 90 27 96 9 5 22 13
28 18 21 14 35 203 28 362 l-7 145 -67 -74 -66 -74 -2 -141 c-2 -139 -19 -257
-37 -258 -5 0 -25 28 -43 62 -29 55 -33 72 -33 138 l0 76 -28 -27 -29 -28
-129 226 c-71 123 -131 225 -134 224 -3 0 -59 -94 -125 -209z m244 -107 c63
-109 155 -265 204 -347 49 -83 91 -156 94 -163 4 -9 -7 -13 -39 -13 -37 0 -47
4 -58 25 -16 30 -26 31 -40 4 -11 -19 -13 -19 -29 -5 -22 20 -65 21 -81 1 -19
-23 -32 -18 -63 20 -30 38 -48 43 -67 20 -12 -14 -15 -13 -35 5 -27 26 -53 25
-81 -1 l-23 -21 -39 41 c-56 59 -78 56 -161 -24 -49 -47 -75 -65 -94 -65 -15
0 -27 3 -27 6 0 3 67 119 149 257 81 139 175 298 207 355 32 56 61 102 64 102
3 0 57 -89 119 -197z m-99 -572 c94 -13 252 -14 305 -1 39 9 41 8 90 -40 l50
-50 -468 0 c-372 0 -467 3 -461 13 4 6 22 30 41 53 l32 40 168 -2 c93 -2 202
-7 243 -13z M5260 5580 c-24 -24 -25 -38 -4 -68 17 -24 62 -30 82 -10 20 20
14 65 -10 82 -30 21 -44 20 -68 -4z M6277 5926 c-26 -18 -50 -36 -53 -39 -3
-2 18 -45 46 -93 95 -166 149 -392 136 -565 -7 -98 -14 -90 85 -104 l47 -7 7
89 c12 156 -21 350 -88 517 -33 83 -116 236 -126 235 -3 0 -28 -15 -54 -33z
M4564 5885 c-26 -40 -31 -140 -9 -165 23 -26 56 -25 89 1 41 32 50 55 31 81
-8 13 -15 37 -15 54 0 28 -2 31 -27 26 -18 -3 -30 1 -39 12 -11 16 -14 16 -30
-9z M6026 5894 c-4 -11 -15 -15 -35 -12 -27 4 -29 2 -34 -36 -3 -22 -13 -46
-22 -52 -15 -11 -13 -17 20 -53 87 -96 164 -3 105 127 -21 46 -25 49 -34 26z
M4190 5757 c-35 -77 -64 -176 -84 -286 -23 -119 -26 -111 52 -111 l69 0 17 98
c9 53 33 138 52 187 19 50 37 97 40 105 4 11 -13 23 -56 42 l-62 27 -28 -62z
M4432 5713 c-11 -20 -16 -60 -14 -111 2 -23 12 -43 32 -64 28 -27 36 -30 75
-25 l45 5 0 -39 c0 -37 -2 -39 -30 -39 -20 0 -40 9 -57 26 -22 22 -30 25 -45
15 -26 -16 -69 -14 -89 5 -17 15 -18 14 -24 -18 -9 -48 11 -116 45 -150 23
-23 37 -28 77 -28 56 0 89 19 108 62 12 29 12 28 19 -38 5 -50 4 -69 -6 -75
-23 -15 -56 -9 -85 15 l-28 24 -28 -24 c-31 -26 -57 -30 -89 -13 -29 16 -33 5
-19 -53 34 -150 188 -196 260 -77 l18 29 12 -52 c6 -29 18 -64 25 -77 13 -24
14 -23 53 43 l39 68 -13 61 c-7 34 -16 119 -20 190 l-6 127 -48 26 c-47 26
-47 26 -34 57 13 30 12 32 -16 44 -20 8 -31 22 -35 41 -6 28 -9 29 -44 25 -30
-4 -40 -1 -53 17 -14 21 -16 21 -25 3z M6156 5709 c-14 -17 -25 -20 -51 -16
-29 5 -34 2 -39 -19 -4 -14 -20 -33 -36 -42 -29 -17 -30 -22 -13 -67 2 -6 -20
-23 -49 -39 l-53 -29 -1 -102 c-2 -106 -18 -225 -39 -285 -12 -33 -10 -39 23
-98 20 -34 39 -62 43 -62 10 0 50 104 65 164 9 40 13 47 19 31 17 -50 31 -66
72 -86 51 -25 96 -20 138 13 35 27 64 92 65 140 0 36 0 36 -30 25 -25 -10 -36
-8 -65 7 -19 11 -35 23 -35 28 0 6 -14 -2 -31 -16 -30 -26 -72 -33 -97 -17
-10 6 -12 38 -6 149 6 131 8 140 25 132 23 -13 65 -13 90 0 44 24 65 134 36
187 l-13 23 -18 -21z M6150 5491 c0 -22 -41 -51 -71 -51 l-32 0 6 -47 c7 -66
48 -103 115 -103 53 1 71 11 101 60 14 24 21 52 21 88 0 48 -10 66 -25 42 -9
-15 -68 -12 -93 6 -12 8 -22 10 -22 5z M4180 5142 c-93 -5 -90 -1 -73 -89 67
-362 285 -673 601 -856 35 -21 65 -37 68 -37 6 0 54 106 54 119 0 5 -35 29
-77 54 -174 101 -314 252 -408 441 -52 104 -105 268 -105 326 0 38 -11 45 -60
42z M5976 4963 c-25 -53 -21 -116 10 -153 38 -44 80 -63 126 -57 65 9 135 77
153 147 6 25 4 25 -33 22 -33 -3 -42 0 -65 28 -15 17 -27 36 -27 42 0 7 -4 7
-13 0 -32 -27 -65 -31 -100 -13 l-35 18 -16 -34z M4465 4970 c-10 -31 -50 -53
-86 -48 -30 5 -31 4 -25 -26 7 -34 48 -89 88 -119 39 -29 106 -33 146 -8 37
24 72 76 72 109 0 18 -6 22 -31 22 l-31 0 22 36 c25 43 15 63 -21 43 -28 -14
-78 -14 -92 0 -17 17 -35 13 -42 -9z M6328 4867 c-86 -227 -274 -444 -479
-552 l-69 -36 16 -37 c9 -20 20 -49 26 -64 5 -16 13 -28 16 -28 15 0 181 105
238 151 166 132 314 335 388 531 l25 67 -54 16 c-30 8 -60 18 -67 20 -9 3 -22
-20 -40 -68z M5045 4899 c28 -3 64 -11 80 -18 17 -7 48 -16 70 -20 l40 -8 -60
-12 c-94 -21 -193 -10 -268 28 -56 28 -71 32 -133 29 l-69 -3 48 -28 c102 -60
230 -85 343 -67 71 12 159 52 178 82 15 25 35 22 66 -7 l26 -25 75 21 c41 11
97 23 124 27 28 4 -89 7 -260 7 -170 0 -287 -3 -260 -6z M5690 4866 c-50 -28
-63 -31 -145 -31 -49 0 -107 4 -128 8 -60 13 -36 -10 31 -30 112 -33 261 -18
374 38 82 41 81 49 -4 48 -62 -1 -81 -6 -128 -33z M4732 4772 c-29 -31 -37
-34 -72 -29 -40 5 -40 5 -46 -34 -9 -57 -52 -97 -96 -90 -20 3 -4 -26 31 -60
72 -68 188 -87 250 -41 63 46 87 139 55 208 -16 33 -68 85 -82 83 -4 -1 -22
-17 -40 -37z M5797 4771 c-69 -76 -70 -152 -5 -226 68 -79 184 -69 281 23 45
43 46 52 8 52 -37 0 -69 38 -77 91 -6 36 -8 38 -35 32 -37 -7 -84 12 -104 43
-8 13 -19 24 -24 24 -5 0 -25 -18 -44 -39z M5010 4639 c0 -38 -46 -87 -90 -95
-22 -5 -29 -11 -26 -23 16 -52 16 -72 3 -104 -9 -19 -25 -38 -37 -42 -29 -9
-21 -26 22 -48 128 -63 285 -3 303 116 11 73 -1 117 -45 158 -21 20 -59 44
-84 52 l-46 16 0 -30z M5544 4646 c-27 -13 -64 -39 -82 -60 -28 -32 -32 -43
-32 -94 1 -126 64 -187 195 -186 52 0 81 6 113 22 41 22 55 42 29 42 -39 0
-68 83 -49 138 10 29 9 30 -23 36 -43 8 -85 51 -85 87 0 15 -4 30 -8 33 -5 3
-31 -5 -58 -18z M5229 4491 c-44 -44 -43 -110 2 -156 24 -25 38 -30 75 -30 39
0 50 5 75 33 33 37 38 85 14 132 -19 37 -43 50 -95 50 -33 0 -48 -6 -71 -29z
M330 3348 c0 -339 5 -623 10 -663 25 -177 91 -345 189 -488 61 -88 184 -212
272 -274 91 -65 251 -139 366 -171 l98 -27 4065 0 4065 0 98 27 c413 114 710
423 814 847 14 56 17 159 20 704 l4 637 -5000 0 -5001 0 0 -592z m9710 -228
l0 -540 -25 -67 c-52 -137 -164 -283 -276 -360 -77 -53 -189 -104 -288 -132
l-96 -26 -3975 -3 c-2837 -2 -3999 0 -4060 8 -109 14 -245 59 -339 113 -156
88 -301 261 -358 427 -22 64 -22 73 -23 593 l0 527 4720 0 4720 0 0 -540z"/>
</g>
</svg>
