<?xml version="1.0" standalone="no"?>
<!DOCTYPE svg PUBLIC "-//W3C//DTD SVG 20010904//EN"
 "http://www.w3.org/TR/2001/REC-SVG-20010904/DTD/svg10.dtd">
<svg version="1.0" xmlns="http://www.w3.org/2000/svg"
 width="2048.000000pt" height="2048.000000pt" viewBox="0 0 2048.000000 2048.000000"
 preserveAspectRatio="xMidYMid meet">
<metadata>
Created by potrace 1.13, written by Peter Selinger 2001-2015
</metadata>
<g transform="translate(0.000000,2048.000000) scale(0.192120,-0.192120)"
fill="#000000" stroke="none">
<path d="M1247 8924 c-399 -72 -737 -366 -862 -751 -58 -176 -55 -34 -55
-2844 0 -2790 -2 -2652 50 -2829 25 -85 96 -229 153 -309 62 -88 186 -211 274
-272 99 -68 242 -134 360 -167 l98 -27 4065 0 4065 0 90 24 c441 116 773 480
835 916 8 58 10 791 8 2715 l-3 2635 -22 78 c-33 115 -86 239 -137 320 -164
263 -426 446 -724 507 -100 20 -109 20 -4109 19 -3412 -1 -4020 -3 -4086 -15z
m3314 -107 c63 -48 114 -77 133 -77 9 0 16 -4 16 -10 0 -5 18 -10 40 -10 22 0
40 -4 40 -10 0 -6 813 -11 2268 -13 2256 -3 2267 -3 2357 -24 192 -44 343
-129 468 -264 82 -87 120 -151 166 -278 l31 -82 0 -2720 0 -2719 -34 -89
c-110 -293 -325 -474 -651 -549 -63 -14 -301 -16 -2337 -19 -1248 -2 -2268 -7
-2268 -12 0 -4 -26 -11 -57 -14 -32 -3 -59 -11 -61 -17 -2 -5 -9 -10 -16 -10
-7 0 -41 -20 -76 -45 -35 -25 -68 -45 -72 -45 -4 0 -8 282 -8 626 l0 626 29
-19 c16 -10 57 -35 90 -56 44 -28 76 -40 116 -44 30 -3 55 -10 55 -14 0 -9 8
-8 160 21 372 70 741 240 1045 480 120 95 329 311 426 440 223 298 371 632
444 998 24 117 25 143 25 462 0 354 -4 398 -51 585 -150 587 -518 1115 -1003
1439 -270 180 -619 306 -1018 369 -16 2 -28 0 -28 -5 0 -6 -18 -8 -40 -6 -22
2 -40 1 -40 -2 0 -3 -19 -11 -41 -18 -23 -7 -68 -31 -100 -52 -32 -22 -60 -40
-63 -40 -4 0 -6 281 -6 625 0 344 4 625 9 625 4 0 28 -15 52 -33z m-291 -597
l0 -419 -32 -5 c-361 -55 -580 -122 -844 -260 -371 -194 -706 -497 -949 -861
-135 -202 -284 -541 -340 -778 -41 -171 -45 -225 -45 -569 0 -299 2 -349 21
-445 125 -656 536 -1274 1099 -1651 274 -183 611 -317 920 -366 58 -9 120 -19
138 -22 l32 -5 0 -419 0 -420 -1374 0 c-849 0 -1421 4 -1499 10 -373 30 -638
215 -761 530 l-21 55 -3 2705 c-2 2019 0 2719 8 2760 17 79 75 191 139 267
145 173 369 282 615 303 50 4 722 8 1494 9 l1402 1 0 -420z m600 -699 c457
-84 836 -276 1156 -583 202 -194 342 -384 463 -629 513 -1035 136 -2297 -862
-2891 -236 -141 -483 -231 -782 -284 -140 -25 -534 -26 -684 -1 -656 108
-1205 472 -1556 1032 -161 257 -271 574 -316 905 -14 110 -14 410 0 520 66
493 269 925 597 1270 339 355 805 598 1274 665 58 8 119 16 135 19 17 2 129 3
250 1 163 -3 247 -9 325 -24z M4070 7225 c-313 -72 -614 -226 -859 -439 -90
-79 -228 -223 -220 -230 2 -2 65 -13 139 -25 74 -12 163 -26 198 -32 l62 -11
0 -140 0 -140 -32 6 c-18 4 -53 9 -78 13 l-45 5 78 -79 77 -78 0 -240 0 -240
-260 -130 c-143 -71 -260 -132 -260 -135 0 -3 117 -64 260 -135 l260 -130 0
-142 0 -143 24 0 c35 0 74 -36 85 -78 16 -60 51 -245 51 -271 0 -14 -14 -37
-36 -58 l-37 -34 29 -61 c16 -34 46 -86 67 -115 l37 -54 -126 -82 -126 -82
202 -3 202 -2 57 -43 c200 -152 426 -229 676 -230 246 0 472 74 663 218 l73
55 202 2 202 3 -122 79 c-68 43 -123 81 -123 85 0 3 14 26 31 51 41 61 92 162
119 238 l23 64 202 -202 203 -202 42 53 c194 246 329 535 390 834 23 115 39
225 32 225 -2 0 -188 -93 -413 -207 -225 -113 -410 -204 -412 -202 -1 2 -1 73
1 157 l3 154 259 126 c143 70 259 129 259 132 0 3 -117 62 -259 132 l-260 127
0 156 c0 86 3 155 8 153 4 -2 189 -95 411 -206 222 -112 404 -202 406 -200 6
8 -29 207 -56 313 -47 189 -176 494 -202 479 -7 -4 -134 -90 -284 -191 -149
-101 -274 -183 -277 -183 -3 0 -6 74 -6 165 l0 166 210 137 c115 75 210 140
210 143 0 9 -122 151 -127 146 -2 -3 3 -21 11 -41 12 -28 12 -38 3 -41 -80
-30 -300 -105 -305 -105 -4 0 -5 55 -4 122 l4 121 -94 -6 c-51 -4 -86 -3 -78
2 8 4 79 27 158 51 78 24 142 46 142 50 0 10 -108 90 -200 150 -99 64 -312
164 -435 204 -112 36 -278 76 -316 76 l-22 0 6 -265 7 -265 -264 0 c-145 0
-271 -3 -280 -6 -14 -6 -16 22 -16 265 l0 271 -22 -1 c-13 0 -70 -11 -128 -24z
m1006 -296 c101 -31 247 -97 267 -121 13 -15 17 -38 17 -94 l0 -75 -27 15
c-40 20 -157 36 -267 36 l-96 0 0 130 c0 150 -6 144 106 109z m-888 -215 c35
-10 28 -81 -11 -105 -1 -1 -106 -4 -234 -8 l-232 -7 -95 -48 c-72 -36 -106
-48 -140 -48 -82 0 -86 4 -86 80 0 37 -3 84 -6 105 l-7 37 394 0 c217 0 404
-3 417 -6z m441 -164 c41 -11 51 -24 51 -67 0 -28 4 -32 33 -36 17 -2 -80 -4
-218 -4 -137 0 -235 2 -217 4 29 4 32 8 32 37 0 37 16 62 45 69 38 9 240 7
274 -3z m-407 -522 l3 -413 38 52 c45 62 49 106 12 168 l-24 43 31 6 c40 8
386 8 426 0 l31 -6 -24 -47 c-35 -65 -32 -99 12 -159 21 -28 39 -49 41 -47 2
2 3 186 3 409 l-1 406 280 0 280 0 0 -415 0 -415 -142 -1 c-79 0 -182 0 -230
1 -98 1 -161 -8 -152 -22 14 -23 89 -68 113 -68 14 0 50 13 79 29 l52 29 0
-248 0 -248 -52 29 c-29 16 -65 29 -79 29 -24 0 -99 -45 -113 -68 -9 -14 54
-23 152 -22 48 1 151 1 230 1 l142 -1 0 -177 c0 -223 -19 -323 -84 -458 -85
-174 -210 -300 -381 -384 -211 -104 -421 -118 -642 -42 -212 73 -398 243 -488
446 -54 123 -67 194 -72 415 l-6 205 219 -3 c121 -2 244 0 273 4 l55 6 -25 20
c-81 65 -104 70 -173 33 -26 -14 -51 -25 -57 -25 -5 0 -9 96 -9 240 0 144 4
240 9 240 6 0 31 -11 57 -25 69 -37 92 -32 173 33 l25 20 -55 6 c-29 4 -152 6
-272 4 l-217 -3 0 418 0 417 280 0 280 0 2 -412z m-553 -700 c-1 -134 -4 -230
-6 -214 -4 26 -7 28 -39 23 -19 -3 -49 -13 -66 -21 -33 -17 -70 -20 -130 -10
l-38 7 0 217 0 217 38 7 c61 10 87 7 133 -14 24 -11 56 -20 72 -20 22 0 27 4
27 25 0 14 2 25 5 25 3 0 4 -109 4 -242z m1856 148 c83 -84 115 -124 115 -146
0 -20 -32 -61 -119 -152 -40 -42 -50 -48 -87 -48 -23 0 -56 3 -73 6 l-31 7 0
188 c0 214 -8 197 95 196 46 -1 53 -4 100 -51z m568 -760 c6 -15 0 -49 -13
-81 -5 -11 -18 -42 -29 -68 -30 -70 -89 -147 -112 -147 -11 0 -32 6 -47 14
-41 21 -124 114 -120 134 2 11 56 43 148 89 80 39 150 72 156 72 7 1 14 -5 17
-13z m-2389 -642 c20 -19 20 -38 2 -53 -10 -9 -19 -4 -39 23 -14 18 -23 36
-20 40 11 11 41 6 57 -10z M4220 5605 c0 -3 0 -128 -1 -277 l0 -273 278 -3
278 -2 0 280 0 280 -277 0 c-153 0 -278 -2 -278 -5z m277 -287 c-3 -8 -6 -5
-6 6 -1 11 2 17 5 13 3 -3 4 -12 1 -19z M4220 4630 l0 -410 278 0 277 0 -2
277 c-1 153 -2 336 -3 406 0 140 -2 142 -51 75 -36 -50 -37 -88 -4 -149 l24
-47 -31 -6 c-40 -8 -386 -8 -426 0 l-31 6 24 43 c36 61 33 106 -11 166 -20 27
-38 49 -40 49 -2 0 -4 -184 -4 -410z M2753 6188 c-54 -111 -107 -255 -138
-375 -26 -102 -61 -310 -54 -318 3 -2 151 69 329 159 179 90 332 166 340 169
10 3 -53 73 -205 226 -121 122 -222 221 -226 221 -3 0 -24 -37 -46 -82z M2560
5148 c0 -40 38 -237 65 -338 30 -112 81 -242 140 -360 73 -146 246 -394 269
-388 6 2 107 67 224 146 171 115 212 147 207 160 -43 105 -75 249 -75 336 l0
51 -408 205 c-224 113 -410 207 -414 208 -5 2 -8 -7 -8 -20z m608 -576 c18
-11 22 -21 22 -62 0 -48 -2 -50 -40 -70 -47 -24 -68 -25 -97 -5 -39 28 -121
199 -110 229 5 13 24 7 104 -32 54 -27 108 -54 121 -60z M3515 3654 c34 -28
235 -120 347 -158 103 -35 303 -86 341 -86 15 0 17 13 17 125 l0 125 -238 0
c-132 0 -295 3 -363 6 -117 5 -123 4 -104 -12z M5064 3663 l-282 -3 -6 -23
c-3 -12 -6 -68 -6 -124 0 -97 1 -103 20 -103 36 0 199 40 313 76 115 37 387
160 387 176 0 4 -33 7 -72 6 -40 -2 -200 -4 -354 -5z"/>
</g>
</svg>
