<?xml version="1.0" standalone="no"?>
<!DOCTYPE svg PUBLIC "-//W3C//DTD SVG 20010904//EN"
 "http://www.w3.org/TR/2001/REC-SVG-20010904/DTD/svg10.dtd">
<svg version="1.0" xmlns="http://www.w3.org/2000/svg"
 width="2048.000000pt" height="2048.000000pt" viewBox="0 0 2048.000000 2048.000000"
 preserveAspectRatio="xMidYMid meet">
<metadata>
Created by potrace 1.13, written by Peter Selinger 2001-2015
</metadata>
<g transform="translate(0.000000,2048.000000) scale(0.192120,-0.192120)"
fill="#000000" stroke="none">
<path d="M1247 8924 c-475 -86 -846 -476 -907 -954 -8 -60 -10 -863 -7 -2695
3 -2395 4 -2615 20 -2676 57 -228 149 -396 303 -551 139 -140 316 -242 511
-296 l98 -27 4065 0 4065 0 98 27 c422 117 734 449 818 873 21 105 21 5305 0
5410 -71 355 -298 646 -626 801 -52 25 -138 57 -192 72 l-98 27 -4035 2
c-3449 1 -4046 -1 -4113 -13z m3878 -154 c33 -22 68 -40 78 -40 9 0 17 -4 17
-10 0 -5 18 -10 40 -10 22 0 40 -4 40 -10 0 -6 713 -11 2028 -12 l2027 -3 95
-26 c118 -33 193 -66 278 -123 146 -97 248 -227 312 -398 l40 -107 -2 -2658
-3 -2658 -31 -105 c-39 -133 -50 -158 -108 -249 -108 -168 -283 -288 -503
-344 l-88 -22 -4015 0 -4015 0 -87 22 c-119 31 -198 65 -294 129 -102 67 -197
168 -252 268 -53 95 -66 134 -92 266 -19 102 -20 140 -20 1278 0 774 -3 1172
-10 1172 -5 0 -10 9 -10 20 0 11 -4 20 -10 20 -5 0 -10 6 -10 13 0 7 -18 39
-40 72 -22 33 -40 63 -40 68 0 4 1035 7 2300 7 l2300 0 1 1773 c1 974 4 1757
8 1739 5 -26 18 -41 66 -72z m-2507 -151 c4 -21 -152 -255 -178 -269 -24 -13
-38 -6 -131 62 -152 110 -204 105 -330 -28 -73 -78 -89 -113 -89 -201 0 -57
-4 -81 -19 -101 -10 -15 -20 -33 -23 -41 -3 -11 -24 -13 -92 -12 -107 3 -145
-13 -234 -98 -74 -71 -107 -135 -97 -190 8 -44 44 -120 85 -181 18 -27 30 -58
30 -77 0 -28 -7 -37 -57 -70 -82 -54 -178 -147 -208 -200 -31 -56 -33 -117 -5
-153 11 -14 20 -30 20 -37 0 -22 143 -157 193 -183 73 -39 74 -35 -23 -220
-62 -118 -41 -198 79 -313 82 -79 114 -90 234 -84 l97 5 0 -78 c0 -44 5 -82
10 -85 6 -3 10 -16 10 -29 0 -66 115 -217 195 -256 69 -33 117 -17 265 92 37
26 75 48 86 48 13 0 31 -19 54 -57 56 -94 104 -155 165 -211 61 -56 89 -68
132 -57 42 10 162 140 213 230 24 44 49 83 55 87 23 17 55 4 140 -57 53 -39
112 -72 143 -81 50 -15 54 -15 97 6 80 39 185 181 185 251 0 15 4 31 10 34 6
3 10 44 10 90 l0 83 38 -9 c70 -16 172 -11 218 12 54 26 150 129 175 187 32
74 26 113 -36 228 -30 57 -55 114 -55 127 0 19 14 32 66 63 58 34 96 68 159
145 29 35 65 114 65 144 0 65 -104 193 -221 271 -86 57 -92 82 -38 161 40 57
79 157 79 200 0 52 -32 103 -108 175 -86 81 -116 92 -239 86 -82 -5 -93 -3
-93 11 0 10 -7 26 -15 37 -10 13 -14 45 -15 106 0 106 -15 139 -97 219 -76 73
-101 89 -141 89 -47 0 -91 -21 -185 -88 -45 -33 -89 -62 -98 -65 -20 -7 -55
30 -94 98 -15 28 -40 66 -55 85 -15 19 -35 50 -46 68 -16 29 -17 34 -4 42 9 6
394 10 983 10 l967 0 0 -1571 0 -1570 -1027 5 c-1222 7 -890 7 -2155 0 l-1058
-5 0 1276 c0 1245 0 1277 20 1334 90 269 369 478 692 520 35 5 340 8 678 7
560 -1 615 -2 618 -17z m170 -216 c12 -49 45 -175 73 -281 29 -106 50 -194 48
-196 -2 -2 -37 1 -76 6 -47 6 -99 6 -145 0 -40 -5 -75 -8 -76 -6 -2 1 26 114
62 251 36 136 69 263 72 281 4 17 9 32 13 32 3 0 16 -39 29 -87z m-359 -540
c-39 -18 -99 -53 -133 -77 l-63 -45 -73 272 c-40 150 -75 279 -78 287 -3 8 90
-79 206 -195 l211 -209 -70 -33z m936 164 c-41 -152 -75 -279 -75 -282 0 -2
-35 19 -77 48 -43 29 -104 64 -136 77 l-58 24 208 208 c114 114 208 206 210
204 2 -2 -30 -127 -72 -279z m-1216 -364 c2 -1 -4 -13 -13 -25 -49 -68 -86
-129 -106 -178 -13 -30 -25 -57 -27 -60 -4 -5 -413 401 -413 410 0 5 549 -139
559 -147z m1586 -53 c-115 -115 -212 -210 -215 -210 -4 0 -15 24 -25 52 -10
29 -43 88 -72 131 -30 44 -53 80 -51 81 2 2 75 21 163 45 88 23 212 57 275 75
63 19 119 34 125 35 5 1 -85 -93 -200 -209z m-765 172 c157 -51 312 -182 387
-327 63 -123 77 -181 77 -320 0 -139 -14 -197 -77 -319 -29 -57 -64 -102 -117
-155 -134 -135 -261 -191 -448 -199 -133 -5 -218 11 -329 65 -177 86 -316 259
-364 453 -19 77 -17 250 5 330 64 235 258 425 495 485 84 21 287 14 371 -13z
m-1005 -646 l0 -153 -45 13 c-25 7 -133 36 -240 64 -107 28 -213 56 -235 61
-28 8 -35 13 -25 19 8 4 130 38 270 74 140 37 256 69 259 71 14 14 16 -8 16
-149z m1883 74 c146 -38 267 -71 269 -73 2 -2 -68 -23 -154 -46 -87 -22 -214
-56 -283 -74 l-125 -34 0 154 c0 128 2 152 14 148 8 -3 134 -37 279 -75z
m-1810 -414 c19 -40 51 -96 73 -125 21 -28 39 -55 39 -60 0 -5 -15 -12 -34
-15 -18 -4 -140 -36 -271 -71 -130 -36 -242 -65 -248 -65 -7 0 80 92 193 205
113 113 207 205 210 205 3 -1 20 -34 38 -74z m1692 -131 c113 -113 200 -205
193 -205 -6 0 -92 22 -190 49 -98 27 -216 59 -263 71 -47 12 -88 25 -92 29 -4
4 10 31 32 60 39 51 100 168 100 190 0 6 3 11 8 11 4 0 99 -92 212 -205z
m-1430 -184 c25 -19 80 -50 122 -70 l78 -36 -211 -210 c-116 -116 -209 -201
-206 -190 54 217 153 553 161 547 6 -3 31 -22 56 -41z m1070 -250 c39 -145 69
-265 67 -267 -1 -2 -96 90 -210 204 l-208 208 73 32 c40 18 100 52 133 77 51
37 61 41 67 27 4 -9 39 -136 78 -281z m-655 104 c28 -3 81 -1 120 4 38 6 71 8
73 6 5 -5 -142 -565 -148 -565 -3 0 -36 118 -73 263 -37 145 -71 273 -74 286
-5 21 -3 23 23 18 16 -3 52 -9 79 -12z"/>
</g>
</svg>
