<?xml version="1.0" standalone="no"?>
<!DOCTYPE svg PUBLIC "-//W3C//DTD SVG 20010904//EN"
 "http://www.w3.org/TR/2001/REC-SVG-20010904/DTD/svg10.dtd">
<svg version="1.0" xmlns="http://www.w3.org/2000/svg"
 width="2048.000000pt" height="2048.000000pt" viewBox="0 0 2048.000000 2048.000000"
 preserveAspectRatio="xMidYMid meet">
<metadata>
Created by potrace 1.13, written by Peter Selinger 2001-2015
</metadata>
<g transform="translate(0.000000,2048.000000) scale(0.192120,-0.192120)"
fill="#000000" stroke="none">
<path d="M1320 10324 c-273 -42 -463 -131 -640 -301 -176 -167 -284 -364 -332
-603 -19 -96 -19 -8084 0 -8180 80 -398 361 -723 733 -849 180 -60 -136 -56
4249 -56 3399 0 4036 2 4095 14 398 79 726 367 848 746 55 171 52 -100 52
4235 0 4335 3 4064 -52 4235 -51 157 -132 292 -250 415 -160 169 -333 267
-572 328 -61 15 -367 16 -4086 18 -2211 1 -4031 0 -4045 -2z m8089 -287 c294
-72 494 -221 609 -457 l37 -75 0 -4165 0 -4165 -28 -69 c-120 -296 -384 -481
-736 -516 -74 -8 -1306 -10 -4041 -8 -3625 4 -3940 5 -4000 20 -334 86 -563
284 -649 562 l-21 68 0 4104 0 4105 21 62 c63 189 239 375 443 467 83 38 192
68 287 79 41 5 1846 8 4039 7 3772 -1 3969 -2 4039 -19z M3370 8679 c-154 -40
-275 -114 -401 -246 -110 -116 -160 -196 -213 -341 -25 -69 -26 -83 -26 -261
0 -214 7 -246 87 -406 67 -134 136 -235 781 -1142 325 -458 610 -862 632 -899
l40 -66 0 -1161 c0 -807 3 -1179 11 -1221 15 -85 65 -239 97 -300 160 -310
378 -503 669 -593 83 -25 99 -27 283 -27 184 0 200 2 283 27 326 100 590 367
710 717 58 168 57 153 57 1402 l0 1147 24 45 c13 25 311 449 662 943 352 494
669 948 705 1008 36 61 83 155 105 210 l39 100 0 220 0 220 -44 100 c-117 270
-331 460 -591 526 -112 28 -307 23 -415 -11 -138 -44 -240 -105 -352 -214
-127 -122 -153 -157 -688 -934 -236 -343 -439 -634 -451 -648 -32 -34 -61 -30
-103 14 -20 21 -245 341 -500 712 -256 371 -490 707 -522 745 -153 188 -321
299 -518 341 -97 20 -270 17 -361 -7z m372 -244 c125 -34 245 -106 311 -188
34 -42 1115 -1608 1218 -1764 30 -46 56 -83 59 -83 3 0 20 24 39 53 88 135
1209 1758 1243 1799 130 157 399 240 623 193 188 -40 338 -157 424 -332 88
-177 83 -420 -12 -598 -18 -33 -360 -520 -760 -1082 l-727 -1023 0 -1214 c0
-1042 -2 -1225 -15 -1286 -62 -295 -289 -530 -590 -611 -114 -31 -336 -31
-450 0 -153 41 -277 113 -381 223 -110 114 -187 260 -213 402 -8 41 -11 440
-11 1273 l0 1213 -727 1023 c-400 562 -744 1055 -764 1096 -48 94 -69 185 -69
303 0 114 17 187 71 296 76 157 232 277 409 317 78 18 238 13 322 -10z"/>
</g>
</svg>
