<?xml version="1.0" standalone="no"?>
<!DOCTYPE svg PUBLIC "-//W3C//DTD SVG 20010904//EN"
 "http://www.w3.org/TR/2001/REC-SVG-20010904/DTD/svg10.dtd">
<svg version="1.0" xmlns="http://www.w3.org/2000/svg"
 width="2048.000000pt" height="2048.000000pt" viewBox="0 0 2048.000000 2048.000000"
 preserveAspectRatio="xMidYMid meet">
<metadata>
Created by potrace 1.13, written by Peter Selinger 2001-2015
</metadata>
<g transform="translate(0.000000,2048.000000) scale(0.192120,-0.192120)"
fill="#000000" stroke="none">
<path d="M1247 8924 c-399 -72 -737 -366 -862 -751 -58 -176 -55 -35 -55
-2838 0 -1657 4 -2605 10 -2650 25 -177 91 -345 189 -488 61 -88 184 -212 272
-274 91 -65 251 -139 366 -171 l98 -27 4065 0 4065 0 98 27 c422 117 734 449
818 873 21 105 21 5305 0 5410 -71 355 -298 646 -626 801 -52 25 -138 57 -192
72 l-98 27 -4035 2 c-3449 1 -4046 -1 -4113 -13z m1201 -306 c5 -26 -61 -92
-148 -147 -141 -91 -250 -212 -250 -278 0 -35 32 -109 71 -165 35 -52 39 -64
39 -120 0 -117 68 -255 163 -332 81 -65 104 -68 228 -34 l79 21 79 -21 c132
-37 163 -29 251 61 72 72 108 151 121 263 10 86 15 100 55 159 23 36 51 89 60
119 l17 53 -33 62 c-38 71 -114 144 -205 198 -103 61 -174 135 -161 168 5 14
373 15 3273 12 3045 -3 3273 -4 3336 -20 277 -69 491 -240 583 -467 l24 -60 0
-2748 0 -2749 -21 -64 c-43 -133 -155 -282 -272 -361 -76 -52 -219 -109 -241
-96 -10 6 -16 5 -16 -2 0 -5 -5 -10 -11 -10 -6 0 -9 7 -7 16 2 8 7 14 12 14 5
-1 12 2 15 7 3 5 36 30 72 55 100 71 189 192 189 258 0 86 -142 232 -288 297
-85 37 -92 46 -92 118 0 52 -5 70 -35 121 -41 69 -136 162 -209 203 -68 39
-229 94 -399 137 -161 40 -220 67 -290 132 -265 247 -487 753 -581 1322 -47
287 -48 309 -44 1005 5 719 5 720 74 1113 67 379 99 496 285 1017 21 61 39
124 39 141 0 71 -55 159 -126 200 -98 57 -223 13 -459 -163 -449 -334 -988
-839 -2500 -2344 -722 -718 -965 -949 -1287 -1222 -571 -483 -1066 -829 -1703
-1195 -148 -85 -290 -169 -315 -187 -100 -74 -210 -210 -210 -261 0 -10 5 -32
12 -51 15 -42 -1 -78 -69 -153 -78 -87 -103 -140 -103 -220 0 -110 39 -184
162 -308 69 -69 71 -73 55 -90 -16 -15 -39 -17 -190 -16 -150 1 -184 4 -268
27 -233 62 -414 196 -520 389 -87 156 -79 -141 -79 2920 l1 2723 28 71 c99
252 352 442 651 489 64 10 216 13 620 12 492 -2 535 -3 538 -19z m235 -258
l43 -145 162 4 c89 2 162 1 162 -1 0 -3 -58 -45 -130 -94 -71 -49 -130 -94
-130 -100 0 -6 22 -75 50 -152 27 -78 46 -142 42 -142 -4 0 -62 43 -129 95
l-122 95 -126 -96 c-69 -53 -128 -94 -131 -92 -2 3 19 67 46 143 28 77 49 145
48 152 -2 7 -61 54 -133 104 l-130 91 162 -5 c90 -3 165 -1 168 4 3 5 24 68
46 141 45 154 50 167 55 153 2 -5 23 -75 47 -155z m5381 -312 c-303 -411 -531
-1651 -485 -2640 29 -631 131 -1128 317 -1549 122 -277 311 -544 499 -704 50
-43 64 -49 148 -67 379 -77 677 -186 677 -248 0 -7 -1257 -10 -3752 -9 l-3753
1 50 21 c102 43 425 208 575 295 560 322 1156 752 1710 1231 317 275 494 444
1285 1231 1352 1344 1732 1706 2195 2090 208 173 538 409 572 410 5 0 -13 -28
-38 -62z m1363 -5564 c112 -37 201 -70 196 -74 -4 -4 -101 -37 -215 -74 l-206
-66 -3742 0 -3742 0 -29 31 c-58 63 -60 151 -3 219 l26 30 3755 0 3755 0 205
-66z m23 -420 c0 -8 -5 -12 -10 -9 -6 4 -8 11 -5 16 9 14 15 11 15 -7z M3867
7435 c-203 -122 -368 -294 -367 -382 0 -15 14 -59 30 -98 17 -38 30 -86 30
-107 0 -20 5 -40 10 -43 6 -3 10 -13 10 -21 0 -21 63 -117 111 -169 76 -83 94
-89 254 -91 101 -1 150 3 177 13 48 19 152 130 179 191 12 26 28 61 35 79 8
17 14 42 14 56 0 13 14 54 30 90 36 81 37 113 6 175 -41 80 -238 255 -361 321
-56 29 -91 26 -158 -14z m129 -250 l29 -107 112 4 c62 2 113 0 113 -3 0 -4
-40 -33 -90 -65 -49 -33 -90 -62 -90 -66 0 -4 16 -51 35 -104 19 -53 35 -100
35 -105 0 -5 -41 23 -91 62 l-90 71 -81 -62 c-101 -77 -112 -82 -97 -44 6 16
24 64 39 107 l29 78 -76 52 c-135 93 -135 87 -1 80 l116 -6 31 100 c17 55 31
106 31 112 0 35 20 -10 46 -104z M1210 7391 c-19 -11 -70 -49 -112 -85 -42
-36 -121 -94 -175 -130 -140 -91 -243 -205 -243 -269 0 -34 43 -131 78 -176
22 -29 28 -51 34 -111 13 -146 38 -202 137 -301 89 -89 120 -99 222 -70 94 26
120 26 216 0 95 -26 129 -18 202 47 88 79 148 214 150 336 1 26 14 57 45 105
50 78 76 135 76 169 0 63 -116 193 -235 262 -44 26 -122 84 -175 130 -88 79
-141 113 -172 112 -7 -1 -29 -9 -48 -19z m101 -311 l43 -150 165 0 164 0 -131
-90 c-73 -50 -132 -96 -132 -103 0 -7 23 -75 50 -151 27 -77 48 -142 46 -144
-2 -2 -59 40 -127 92 -67 53 -125 96 -128 96 -3 0 -62 -43 -131 -94 -68 -52
-126 -93 -128 -92 -1 2 20 68 48 146 28 78 49 148 46 155 -2 7 -61 52 -130
100 -69 47 -126 88 -126 89 0 2 73 1 163 -2 l163 -5 44 152 c25 83 48 151 51
151 3 0 26 -67 50 -150z M2501 5469 c-24 -17 -93 -81 -154 -143 -98 -99 -118
-115 -161 -125 -73 -18 -123 -47 -190 -110 -69 -65 -116 -134 -116 -170 0 -56
58 -164 141 -263 31 -36 32 -38 37 -175 3 -95 9 -147 20 -168 27 -53 89 -131
131 -164 75 -60 127 -60 253 -1 103 48 122 49 225 2 116 -54 149 -59 204 -34
44 20 119 89 145 133 49 85 54 108 54 235 l0 124 39 43 c53 58 125 173 140
225 11 39 10 47 -11 89 -53 106 -165 198 -288 233 -79 24 -76 21 -204 165
-128 142 -183 164 -265 104z m112 -237 c16 -53 42 -141 58 -194 l30 -98 207
-2 207 -3 -165 -114 c-91 -62 -167 -115 -169 -117 -2 -2 26 -90 62 -196 37
-105 65 -193 64 -195 -2 -1 -77 53 -167 122 l-163 124 -164 -125 c-91 -69
-166 -124 -168 -122 -1 2 28 90 66 197 38 107 68 195 67 196 -2 1 -78 55 -170
119 -93 65 -168 118 -168 120 0 1 94 0 209 -2 l209 -4 14 48 c70 237 104 344
108 344 3 0 18 -44 33 -98z"/>
</g>
</svg>
