<?xml version="1.0" standalone="no"?>
<!DOCTYPE svg PUBLIC "-//W3C//DTD SVG 20010904//EN"
 "http://www.w3.org/TR/2001/REC-SVG-20010904/DTD/svg10.dtd">
<svg version="1.0" xmlns="http://www.w3.org/2000/svg"
 width="2048.000000pt" height="2048.000000pt" viewBox="0 0 2048.000000 2048.000000"
 preserveAspectRatio="xMidYMid meet">
<metadata>
Created by potrace 1.13, written by Peter Selinger 2001-2015
</metadata>
<g transform="translate(0.000000,2048.000000) scale(0.192120,-0.192120)"
fill="#000000" stroke="none">
<path d="M1210 8919 c-372 -78 -687 -354 -816 -713 -68 -193 -64 4 -64 -2860
0 -1664 4 -2616 10 -2661 25 -177 91 -345 189 -488 61 -88 184 -212 272 -274
91 -65 251 -139 366 -171 l98 -27 4065 0 4065 0 98 27 c195 54 372 156 511
296 154 155 246 323 303 551 16 61 17 282 20 2701 4 2915 8 2711 -61 2905
-130 364 -446 637 -823 714 l-101 21 -4019 -1 c-3969 0 -4019 -1 -4113 -20z
m6425 -613 c32 -256 61 -466 65 -466 3 0 89 204 190 453 101 248 194 472 206
497 21 41 23 43 24 18 0 -16 -32 -256 -70 -535 -39 -278 -68 -508 -66 -510 10
-10 656 854 656 877 0 13 9 22 25 26 14 3 175 4 358 1 351 -5 392 -10 529 -60
121 -44 216 -105 313 -202 75 -75 98 -106 140 -189 l50 -98 3 -1734 2 -1735
-919 2 c-806 1 -920 3 -925 16 -11 28 -7 441 5 449 6 3 63 -49 132 -121 123
-129 184 -175 230 -175 59 0 74 -22 -371 565 -113 149 -211 277 -219 285 -13
13 -14 9 -8 -30 3 -25 37 -272 75 -549 39 -278 68 -506 66 -509 -6 -5 4 -29
-216 513 -224 551 -207 513 -214 495 -3 -8 -35 -253 -71 -545 -37 -291 -68
-531 -69 -533 -8 -7 -18 66 -81 568 -36 288 -67 526 -69 527 -2 3 -347 -839
-397 -970 -22 -58 -39 -76 -32 -34 13 79 143 1036 143 1056 0 28 4 32 -373
-468 -147 -194 -264 -358 -261 -363 4 -6 24 -8 45 -5 45 6 101 50 211 164 105
110 116 120 133 120 13 0 15 -28 15 -211 -1 -157 -4 -215 -14 -228 -12 -16
-201 -17 -3154 -18 l-3142 0 2 1722 3 1723 41 85 c125 261 388 441 699 479 96
12 5079 16 5123 5 14 -4 22 -14 22 -29 0 -13 98 -152 253 -356 386 -512 392
-519 395 -500 2 9 -26 228 -62 486 -35 259 -67 495 -70 525 l-7 55 20 -35 c10
-19 98 -228 194 -465 186 -456 215 -525 216 -512 1 5 26 207 56 450 56 443 71
549 82 577 12 29 31 -89 88 -554z m-765 187 l0 -177 -155 159 c-85 88 -155
165 -155 172 0 18 23 21 173 22 l137 1 0 -177z m503 128 c7 -33 5 -61 -8 -107
-27 -101 -59 -93 -120 29 -34 67 -43 106 -28 121 4 4 39 5 77 4 l70 -3 9 -44z
m507 30 c7 -15 6 -32 -5 -64 -21 -63 -63 -134 -83 -142 -21 -8 -48 23 -62 73
-11 42 -14 135 -3 145 3 4 37 7 74 7 57 0 70 -3 79 -19z m629 13 c17 -4 31
-12 31 -18 0 -15 -295 -316 -309 -316 -8 0 -11 52 -11 170 l0 170 129 0 c71 0
143 -3 160 -6z m-1144 -3722 c10 -27 19 -92 22 -154 7 -143 8 -142 -120 -136
-103 5 -117 11 -117 54 0 41 107 240 156 289 22 21 38 7 59 -53z m445 38 c11
-11 45 -70 75 -131 43 -85 55 -119 53 -147 -3 -31 -7 -37 -36 -44 -18 -5 -70
-7 -115 -6 l-82 3 -3 60 c-7 113 38 285 74 285 8 0 23 -9 34 -20z m2405 -492
c7 -7 -43 -108 -60 -120 -6 -5 -10 -189 -10 -525 l0 -518 38 -55 c20 -30 53
-77 72 -105 l35 -50 -2480 -3 c-1364 -1 -3596 -1 -4961 0 l-2480 3 60 86 c33
47 63 98 67 112 3 15 10 27 15 27 5 0 9 210 9 490 0 320 -3 490 -10 490 -5 0
-10 9 -10 20 0 11 -13 47 -30 80 -16 33 -30 61 -30 64 0 3 10 7 23 9 37 7
9745 2 9752 -5z m-185 -1773 c0 -134 -2 -150 -27 -212 -95 -241 -297 -409
-573 -479 -73 -19 -175 -19 -4105 -19 l-4030 0 -84 23 c-286 78 -494 264 -582
519 -15 44 -19 83 -19 185 l0 128 4710 0 4710 0 0 -145z M6446 8585 c-3 -9 -6
-65 -6 -123 0 -79 6 -124 20 -170 22 -70 27 -192 9 -192 -6 0 -62 32 -125 71
-132 83 -214 119 -257 113 -49 -6 -56 -22 -22 -51 35 -31 774 -606 793 -617 8
-5 5 10 -7 42 -16 40 -334 794 -386 916 -10 23 -13 25 -19 11z M8638 8564
c-28 -51 -399 -936 -396 -945 3 -6 730 552 822 632 4 4 -6 15 -23 23 -54 28
-124 1 -316 -124 l-110 -71 -3 66 c-2 49 4 90 23 155 22 74 25 103 23 191 -3
104 -3 104 -20 73z M6000 8185 c0 -60 37 -151 112 -273 38 -62 49 -116 26
-124 -7 -3 -42 3 -78 12 -36 10 -101 27 -145 39 -103 27 -160 27 -204 0 -27
-16 -32 -23 -20 -29 13 -7 893 -380 947 -401 20 -8 21 -6 13 9 -7 13 -452 587
-614 793 -12 15 -25 28 -29 28 -5 1 -8 -24 -8 -54z M9069 8211 c-8 -10 -149
-191 -313 -402 -165 -211 -304 -390 -309 -396 -13 -18 30 -2 233 85 91 38 294
125 453 192 158 67 285 126 281 131 -3 5 -19 16 -37 25 -41 22 -134 14 -247
-21 -47 -15 -94 -28 -105 -31 -67 -14 -83 -15 -90 -4 -9 14 11 63 47 116 25
38 77 143 107 217 13 33 15 107 2 107 -5 0 -15 -8 -22 -19z M7405 7819 c-234
-30 -462 -144 -636 -318 -427 -426 -435 -1109 -20 -1544 91 -95 180 -163 284
-218 437 -228 962 -147 1308 202 219 221 330 511 316 828 -21 477 -342 885
-800 1015 -150 43 -296 54 -452 35z m404 -308 c291 -98 498 -329 562 -626 20
-93 15 -275 -10 -370 -107 -405 -490 -671 -899 -624 -422 48 -742 405 -742
829 0 337 202 639 513 768 117 49 194 62 347 58 120 -3 145 -6 229 -35z M5660
7760 c0 -57 47 -128 156 -238 74 -73 94 -106 76 -124 -5 -5 -65 -11 -133 -14
-203 -7 -222 -10 -273 -52 l-46 -37 53 -8 c252 -37 995 -137 1006 -135 11 2
-477 378 -796 614 -41 31 -43 30 -43 -6z M9060 7509 c-482 -364 -477 -359
-452 -359 11 0 184 23 384 50 200 28 432 60 517 72 l155 21 -38 33 c-48 42
-99 53 -266 57 -75 2 -141 7 -148 11 -25 15 -9 44 76 131 93 96 156 196 150
241 -3 24 -28 7 -378 -257z M5440 7245 c0 -14 4 -25 9 -25 5 0 12 -8 15 -17 9
-27 90 -108 126 -127 8 -4 33 -18 55 -31 22 -14 50 -29 63 -35 31 -13 52 -35
52 -53 0 -19 -45 -39 -185 -83 -106 -34 -126 -43 -170 -85 -27 -26 -47 -51
-43 -54 4 -4 245 23 536 59 290 36 533 66 538 66 5 0 1 5 -9 11 -30 18 -969
399 -982 399 -3 0 -5 -11 -5 -25z M9585 7243 c-33 -13 -249 -101 -480 -195
-384 -156 -457 -188 -430 -188 6 0 244 -29 529 -65 286 -36 523 -65 528 -65
23 0 2 34 -43 69 -38 31 -78 49 -167 77 -129 39 -182 63 -182 80 0 17 40 48
112 87 67 36 83 47 143 102 30 27 75 98 75 117 0 13 -21 8 -85 -19z M5360
6703 c0 -13 34 -60 59 -82 39 -34 120 -67 221 -92 87 -21 120 -36 120 -55 0
-12 -39 -41 -139 -106 -99 -64 -181 -144 -181 -178 0 -11 4 -20 9 -20 9 0 974
389 980 396 2 2 2 6 0 8 -2 2 -227 32 -499 65 -272 34 -512 64 -532 67 -21 3
-38 2 -38 -3z M9192 6642 c-287 -36 -519 -69 -514 -74 7 -7 911 -377 960 -392
33 -11 29 24 -8 65 -16 19 -30 37 -30 41 0 5 -35 30 -77 57 -111 70 -182 124
-183 137 0 15 35 31 110 49 89 22 190 57 190 67 0 4 5 8 10 8 18 0 70 43 70
57 0 7 4 13 9 13 5 0 11 9 14 20 4 14 0 20 -11 19 -10 0 -252 -30 -540 -67z
M6055 6230 c-225 -32 -454 -64 -507 -71 -54 -7 -98 -17 -98 -22 0 -13 45 -54
79 -72 43 -21 74 -25 219 -25 179 -1 180 -3 42 -155 -104 -114 -130 -156 -130
-205 l0 -40 77 57 c243 181 741 558 758 574 19 19 19 19 -5 18 -14 -1 -209
-27 -435 -59z M8596 6281 c11 -10 393 -300 651 -494 101 -75 185 -132 188
-127 22 35 -34 128 -152 254 -110 117 -108 119 92 127 88 3 172 11 187 17 30
12 88 64 88 78 0 5 -107 25 -237 43 -131 18 -363 50 -516 72 -298 42 -316 44
-301 30z M8465 6003 c51 -68 436 -565 530 -682 l90 -115 3 57 c3 49 -2 68 -37
139 -22 46 -53 106 -69 133 -34 60 -46 101 -31 110 6 4 29 0 52 -8 209 -76
352 -89 399 -35 l20 23 -54 24 c-61 27 -871 368 -907 382 -24 9 -24 9 4 -28z
M6340 5904 c-418 -176 -654 -277 -659 -281 -6 -4 30 -43 38 -41 3 1 14 -2 24
-7 47 -20 236 15 377 69 8 3 21 2 29 -3 11 -7 8 -20 -18 -70 -17 -33 -41 -78
-54 -98 -47 -77 -67 -139 -67 -210 0 -66 1 -67 18 -46 9 11 149 191 311 400
162 208 301 386 309 396 13 14 13 17 1 16 -8 0 -147 -56 -309 -125z M6489
5537 c-468 -364 -453 -352 -446 -371 10 -25 76 -24 147 3 38 15 150 81 262
155 27 18 28 18 37 -7 7 -18 2 -53 -20 -137 -22 -87 -29 -134 -29 -209 0 -53
4 -102 9 -109 5 -9 21 16 49 80 93 213 372 881 369 884 -1 2 -172 -128 -378
-289z M8247 5793 c22 -55 336 -796 371 -876 35 -81 42 -73 42 46 0 60 -8 112
-30 192 -27 101 -39 195 -24 195 4 0 50 -29 103 -64 143 -94 213 -129 275
-134 40 -3 56 0 69 13 20 19 70 -23 -438 373 -192 150 -358 277 -367 283 -16
9 -16 7 -1 -28z"/>
</g>
</svg>
