<?xml version="1.0" standalone="no"?>
<!DOCTYPE svg PUBLIC "-//W3C//DTD SVG 20010904//EN"
 "http://www.w3.org/TR/2001/REC-SVG-20010904/DTD/svg10.dtd">
<svg version="1.0" xmlns="http://www.w3.org/2000/svg"
 width="2048.000000pt" height="2048.000000pt" viewBox="0 0 2048.000000 2048.000000"
 preserveAspectRatio="xMidYMid meet">
<metadata>
Created by potrace 1.13, written by Peter Selinger 2001-2015
</metadata>
<g transform="translate(0.000000,2048.000000) scale(0.192120,-0.192120)"
fill="#000000" stroke="none">
<path d="M1247 8924 c-399 -72 -737 -366 -862 -751 -58 -176 -55 -35 -55
-2838 0 -1657 4 -2605 10 -2650 25 -177 91 -345 189 -488 61 -88 184 -212 272
-274 91 -65 251 -139 366 -171 l98 -27 4065 0 4065 0 98 27 c422 117 734 449
818 873 21 105 21 5305 0 5410 -71 355 -298 646 -626 801 -52 25 -138 57 -192
72 l-98 27 -4035 2 c-3449 1 -4046 -1 -4113 -13z m2522 -84 c47 -33 95 -63
108 -66 13 -4 23 -10 23 -15 0 -5 599 -9 1430 -9 947 0 1430 3 1430 10 0 6 7
10 15 10 22 0 84 33 151 80 32 22 61 40 66 40 4 0 8 -1602 8 -3560 0 -1958 -3
-3560 -8 -3560 -4 0 -45 25 -91 55 -46 30 -100 59 -120 65 -23 6 -539 10
-1454 10 -1189 0 -1423 -2 -1451 -14 -36 -15 -184 -119 -203 -144 -11 -13 -13
703 -13 3588 0 2885 2 3601 13 3587 6 -9 50 -44 96 -77z m5577 -201 c310 -43
563 -226 670 -486 l24 -58 0 -2757 0 -2758 -25 -67 c-52 -137 -164 -283 -276
-360 -77 -53 -190 -104 -288 -131 l-96 -27 -1067 -3 -1068 -3 0 3331 0 3330
1024 0 c680 0 1051 -4 1102 -11z m-5946 -3319 l0 -3320 -1004 0 c-658 0 -1032
4 -1083 11 -103 14 -239 60 -332 112 -107 60 -232 187 -293 297 -86 157 -78
-142 -76 2935 l3 2740 43 86 c75 152 193 269 352 353 76 40 209 83 295 95 33
5 518 9 1078 10 l1017 1 0 -3320z"/>
</g>
</svg>
