<?xml version="1.0" standalone="no"?>
<!DOCTYPE svg PUBLIC "-//W3C//DTD SVG 20010904//EN"
 "http://www.w3.org/TR/2001/REC-SVG-20010904/DTD/svg10.dtd">
<svg version="1.0" xmlns="http://www.w3.org/2000/svg"
 width="2048.000000pt" height="2048.000000pt" viewBox="0 0 2048.000000 2048.000000"
 preserveAspectRatio="xMidYMid meet">
<metadata>
Created by potrace 1.13, written by Peter Selinger 2001-2015
</metadata>
<g transform="translate(0.000000,2048.000000) scale(0.192120,-0.192120)"
fill="#000000" stroke="none">
<path d="M2358 8943 c34 -2 90 -2 125 0 34 2 6 3 -63 3 -69 0 -97 -1 -62 -3z
M2550 8248 l0 -698 -1110 0 -1110 0 0 -415 0 -415 1110 0 1110 0 0 -664 c0
-365 3 -678 6 -695 l7 -31 -148 0 -148 0 5 355 c3 195 3 355 1 355 -3 0 -109
-74 -236 -163 -128 -90 -355 -250 -505 -355 l-274 -192 -276 1 -277 1 100 34
c111 38 153 39 192 2 23 -22 24 -22 56 -5 18 10 264 180 547 378 283 199 552
386 598 417 l82 55 0 114 0 113 -83 0 c-76 0 -87 -3 -123 -29 -21 -16 -376
-265 -789 -555 l-750 -526 -102 0 -103 0 0 -1287 c0 -800 4 -1315 10 -1358 25
-175 96 -357 193 -494 62 -88 186 -211 274 -272 99 -68 242 -134 360 -167 l98
-27 4065 0 4065 0 98 27 c422 117 734 449 818 873 21 105 21 5305 0 5410 -71
355 -298 646 -626 801 -52 25 -138 57 -192 72 l-98 27 -2098 3 -2098 2 -82
-59 c-171 -122 -1433 -1004 -1444 -1008 -7 -3 -13 -14 -13 -24 0 -18 11 -19
220 -19 l220 0 703 492 c386 270 726 509 755 530 l52 39 -1 -258 0 -258 -107
-74 c-59 -40 -234 -162 -390 -270 l-282 -196 390 -3 390 -2 0 -695 0 -695
-392 -2 -391 -3 59 -39 c32 -21 209 -143 391 -270 l333 -231 0 -282 0 -283
-325 0 -325 0 -553 387 c-303 213 -590 414 -637 448 -47 34 -91 65 -98 69 -11
6 -12 -77 -10 -448 l3 -456 -140 0 -140 0 0 695 0 695 1108 0 1107 0 0 32 c0
26 -11 43 -62 93 -35 33 -76 67 -93 75 -16 8 -33 19 -36 23 -3 4 -439 6 -970
5 -739 -3 -973 -7 -1001 -16 -67 -23 -232 -171 -244 -219 -4 -12 -10 -23 -15
-23 -5 0 -9 -249 -9 -585 0 -383 3 -585 10 -585 6 0 10 -7 10 -17 0 -22 43
-80 99 -130 l46 -43 -367 0 -368 0 47 43 c49 45 93 107 93 132 0 8 5 15 10 15
7 0 10 202 10 585 0 336 -4 585 -9 585 -5 0 -12 11 -15 25 -8 33 -104 134
-168 178 -38 26 -71 39 -118 47 -41 6 -381 10 -917 10 -752 0 -853 2 -853 15
0 11 -11 15 -40 15 l-40 0 0 145 0 145 40 0 c33 0 40 3 40 20 0 20 7 20 848
20 513 0 874 4 917 10 48 7 84 20 117 41 60 39 154 141 170 186 7 18 16 33 20
33 4 0 8 15 8 34 0 19 5 38 10 41 6 4 10 183 10 506 0 437 2 499 15 499 8 0
15 9 15 20 0 19 7 20 145 20 138 0 145 -1 145 -20 0 -13 7 -20 20 -20 20 0 20
-7 20 -499 0 -434 2 -500 15 -505 9 -3 15 -19 15 -41 0 -19 5 -35 10 -35 6 0
10 -6 10 -14 0 -32 130 -172 195 -211 24 -14 70 -29 110 -35 43 -6 428 -10
993 -10 813 0 922 2 922 15 0 8 9 15 20 15 11 0 20 4 20 9 0 5 10 12 23 16 12
3 46 33 75 66 38 43 52 67 52 89 l0 30 -1112 0 -1111 0 6 98 c4 53 7 366 7
694 l0 597 123 3 c67 2 -122 3 -420 3 l-543 0 0 -697z m6873 369 c276 -69 491
-240 583 -467 l24 -60 0 -1316 0 -1316 -98 93 c-107 103 -215 168 -313 188
-51 11 -55 14 -73 57 -14 35 -17 58 -12 101 6 48 13 63 53 107 63 70 117 185
116 248 -1 74 -41 145 -126 223 -85 80 -100 88 -205 114 -44 11 -98 29 -120
40 -74 38 -161 54 -297 55 -110 1 -141 -3 -204 -22 -40 -13 -80 -21 -88 -18
-18 7 -43 67 -43 106 0 17 -12 52 -27 78 -15 26 -46 85 -71 132 -24 47 -80
135 -125 195 -44 61 -105 146 -136 190 -110 162 -212 268 -299 311 -47 24 -57
26 -90 16 -77 -23 -169 -92 -354 -268 -228 -214 -296 -291 -344 -387 l-37 -72
7 -100 c10 -162 2 -168 -195 -140 -227 33 -356 -13 -527 -185 -28 -30 -52 -58
-52 -64 0 -6 -17 -33 -38 -61 -68 -91 -84 -126 -90 -195 -6 -81 18 -144 90
-239 57 -76 61 -111 22 -170 -21 -32 -36 -42 -92 -60 -110 -36 -187 -86 -304
-198 l-110 -105 -24 23 c-23 21 -24 29 -24 144 0 83 5 136 15 165 8 23 15 61
15 84 0 54 -46 150 -110 231 -87 112 -88 123 -19 190 28 28 62 70 77 95 14 25
31 48 37 52 6 4 11 66 13 153 3 120 1 151 -12 170 -14 21 -16 75 -16 404 0
295 3 380 13 384 9 3 12 44 12 163 0 144 -2 161 -20 183 -11 13 -50 58 -87
100 -82 92 -85 113 -30 174 74 82 141 199 142 249 0 15 5 30 10 33 6 3 10 52
10 111 l0 104 1753 -3 c1609 -3 1758 -4 1820 -20z m-1396 -1344 c93 -150 150
-222 230 -287 34 -28 62 -53 62 -56 1 -3 -63 -27 -142 -53 -150 -51 -355 -133
-372 -150 -6 -6 45 -7 145 -4 168 5 297 31 406 81 l54 25 0 -38 c0 -56 -26
-134 -54 -160 -32 -30 -143 -50 -186 -34 -25 9 -30 9 -30 -3 0 -10 -14 -14
-52 -14 -53 0 -53 1 -83 50 -16 28 -32 50 -36 50 -8 0 -63 -62 -77 -86 -9 -16
-22 -17 -183 -6 -197 14 -254 25 -274 56 -13 19 -35 126 -35 168 0 16 3 15 43
-2 54 -24 213 -70 241 -70 20 0 20 1 -4 21 -14 11 -59 37 -100 57 -70 34 -82
37 -167 37 l-91 0 21 40 c34 61 171 193 284 273 56 40 103 72 105 72 2 0 1
-115 -1 -255 l-3 -255 26 0 26 0 0 275 0 274 40 58 c23 31 48 82 56 111 l16
54 30 -53 c17 -30 64 -109 105 -176z m-249 106 c2 -25 -3 -40 -16 -52 -19 -17
-19 -16 -26 29 -7 52 -2 67 22 62 11 -2 18 -15 20 -39z m278 -851 c24 -46 15
-135 -18 -185 l-26 -39 57 -12 c31 -7 66 -15 77 -18 17 -5 24 1 33 27 20 57
16 68 -24 62 -33 -5 -35 -4 -35 23 0 16 7 62 17 102 l17 72 47 0 c31 0 70 -10
114 -30 l68 -30 -6 -67 c-4 -59 -9 -71 -36 -95 -20 -18 -43 -28 -62 -28 -28 0
-30 -2 -27 -32 3 -30 6 -33 73 -50 90 -23 85 -23 74 14 -30 107 0 164 120 226
46 23 85 41 87 39 2 -2 -39 -88 -91 -193 -52 -104 -97 -200 -100 -214 -4 -18
4 -42 30 -84 19 -32 35 -71 35 -86 0 -15 7 -44 15 -63 8 -20 15 -59 15 -86 0
-49 2 -52 51 -91 28 -22 57 -40 64 -40 7 0 16 13 20 30 17 77 102 117 226 107
l67 -6 4 28 c8 54 -18 111 -37 81 -4 -6 -23 -7 -46 -4 -31 5 -56 0 -109 -21
-38 -15 -76 -25 -85 -22 -14 6 -14 9 2 33 16 25 16 27 -1 39 -10 8 -41 17 -69
20 -42 6 -59 15 -89 45 -51 51 -51 70 2 60 22 -4 54 -5 71 -1 l31 6 -26 24
c-14 14 -26 30 -26 38 0 23 65 15 122 -15 l54 -29 -17 51 c-10 28 -21 83 -24
123 -6 63 -4 78 15 118 40 83 146 135 233 115 23 -5 52 -4 73 2 28 7 56 4 140
-17 61 -16 115 -24 130 -21 22 6 24 5 15 -12 -32 -59 -133 -111 -190 -97 -25
6 -25 6 9 -30 45 -47 142 -93 213 -101 l57 -7 0 29 c0 37 -32 90 -59 99 -45
14 -10 35 59 35 44 0 94 -30 115 -70 14 -27 14 -33 0 -59 -17 -33 -82 -89
-135 -117 -23 -12 -58 -18 -105 -18 -63 -1 -74 2 -115 31 -25 17 -54 45 -65
62 -27 42 -33 39 -25 -14 7 -48 2 -105 -10 -105 -4 0 -26 14 -49 30 -61 44
-81 83 -81 156 0 48 -5 67 -24 93 l-25 33 -7 -37 c-10 -56 1 -151 29 -240 14
-44 31 -99 37 -123 l11 -43 27 19 c72 50 192 68 250 38 71 -37 125 -143 126
-247 0 -82 -14 -102 -84 -119 -51 -12 -101 0 -128 32 -11 13 -6 17 31 26 63
16 97 46 97 86 0 53 -37 79 -118 83 -65 4 -66 3 -40 -12 33 -18 50 -48 42 -69
-5 -13 -16 -15 -58 -10 -29 4 -77 1 -109 -5 -47 -10 -59 -18 -77 -47 -23 -37
-86 -78 -135 -88 -17 -4 -50 0 -75 7 l-45 13 0 -72 c0 -40 -3 -76 -7 -80 -4
-4 -31 9 -60 28 -75 49 -109 114 -112 211 -1 45 -8 83 -19 102 l-16 30 -1 -71
c0 -68 -21 -144 -39 -144 -28 0 -67 89 -79 180 l-7 55 -28 -56 c-15 -31 -36
-64 -46 -74 -19 -17 -20 -16 -27 9 -4 19 3 49 25 101 34 81 40 158 20 245 -11
46 -22 60 -52 60 -15 0 -16 -6 -11 -40 8 -46 -2 -62 -55 -90 l-36 -19 45 -1
45 0 -3 -117 c-5 -184 22 -316 86 -417 17 -27 39 -71 47 -97 l17 -49 178 0
179 0 3 -45 3 -45 40 27 c54 37 172 82 216 83 24 0 42 -7 57 -23 23 -24 52
-97 52 -131 0 -47 16 -47 50 1 89 125 239 254 348 299 98 41 206 23 247 -40 9
-13 28 -26 43 -29 121 -24 200 -230 233 -607 25 -293 -10 -513 -118 -742 -49
-102 -80 -138 -38 -44 21 48 67 206 60 206 -1 0 -20 -30 -41 -67 -22 -36 -61
-90 -88 -120 -63 -70 -93 -71 -32 -1 57 65 109 169 137 274 32 116 32 364 1
521 -45 225 -120 431 -175 482 -45 41 -157 38 -157 -4 0 -8 12 -22 26 -32 40
-27 124 -105 124 -114 0 -5 -19 5 -43 21 -41 30 -117 51 -117 34 0 -5 16 -94
36 -199 45 -238 54 -413 29 -555 -9 -52 -21 -141 -26 -198 -11 -126 -22 -170
-62 -245 -86 -163 -296 -260 -567 -261 -111 -1 -130 2 -167 21 -53 29 -83 67
-83 109 0 34 21 64 46 64 10 0 14 13 14 45 0 123 124 108 197 -25 36 -65 99
-47 187 52 33 35 52 69 66 115 34 110 28 144 -34 175 -22 11 -87 52 -144 91
-56 39 -105 67 -110 63 -4 -4 -9 -44 -10 -89 -4 -78 -2 -85 33 -151 20 -38 33
-72 28 -77 -16 -16 -74 31 -96 79 -18 40 -22 65 -22 163 0 164 9 171 143 114
108 -45 102 -27 -27 87 l-120 108 -9 -38 c-5 -20 -21 -83 -35 -140 -19 -78
-23 -112 -16 -140 5 -20 9 -57 9 -81 l0 -44 -25 23 c-33 31 -58 117 -50 167
25 143 78 293 111 311 22 12 50 2 110 -39 25 -17 48 -28 51 -25 12 12 -123
206 -143 206 -16 0 -51 -53 -104 -155 l-37 -70 -7 -215 c-4 -150 -12 -243 -25
-308 -70 -337 -250 -532 -596 -647 l-110 -37 -74 22 c-425 123 -624 370 -667
825 l-6 69 -13 -38 c-8 -22 -25 -51 -39 -65 l-26 -26 0 40 c0 22 5 60 11 83 8
35 6 58 -10 115 -11 40 -25 99 -31 132 -7 33 -14 63 -17 68 -4 6 -63 -44 -208
-178 l-40 -37 34 6 c19 4 59 17 89 31 105 48 117 35 117 -124 0 -98 -4 -124
-22 -163 -22 -48 -79 -96 -95 -80 -5 5 7 39 27 76 31 60 35 76 35 144 0 42 -4
83 -9 91 -7 10 -32 -3 -112 -56 -57 -39 -123 -80 -146 -92 -48 -24 -59 -48
-49 -114 18 -121 138 -267 219 -267 21 0 32 8 45 31 76 140 202 161 202 34 0
-32 4 -45 14 -45 25 0 46 -30 46 -67 0 -52 -57 -107 -128 -122 -153 -33 -410
16 -547 104 -124 79 -186 195 -200 377 -3 46 -14 119 -23 163 -11 55 -16 130
-16 240 0 142 4 183 37 364 21 112 36 206 33 208 -12 12 -77 -10 -115 -38 -29
-21 -39 -24 -32 -12 11 21 51 58 104 97 20 15 37 33 37 41 0 42 -112 45 -157
4 -74 -70 -168 -375 -194 -636 -28 -273 36 -513 174 -660 19 -20 25 -33 17
-33 -22 0 -103 91 -148 166 -23 38 -42 62 -42 54 0 -24 36 -142 58 -194 38
-84 0 -35 -44 58 -128 270 -154 583 -83 980 37 204 114 345 197 362 17 4 38
17 47 31 22 33 90 63 145 63 58 0 142 -35 222 -92 69 -50 192 -174 234 -237
28 -43 44 -45 44 -7 0 40 28 118 51 142 15 16 34 24 56 24 40 0 155 -42 205
-75 21 -14 40 -25 43 -25 3 0 5 18 5 40 l0 40 155 0 155 0 6 40 c4 22 22 66
40 97 28 45 33 63 28 89 l-6 33 -35 -47 c-60 -81 -125 -128 -205 -150 -36 -10
-38 -9 -38 11 0 12 12 49 25 82 14 33 25 61 25 62 0 1 -17 -3 -37 -9 -55 -15
-161 -5 -209 20 -23 12 -57 38 -75 58 -19 20 -42 45 -51 55 -20 22 -85 25
-157 8 -24 -5 -45 -8 -47 -6 -8 7 28 82 49 106 l22 24 -72 -5 c-57 -4 -82 -11
-113 -32 -22 -14 -40 -33 -40 -41 0 -37 73 -93 154 -119 24 -8 9 -28 -38 -50
-55 -26 -100 -21 -130 15 -14 17 -26 39 -26 49 0 9 -7 34 -16 55 -12 30 -13
46 -4 88 20 93 38 118 100 141 78 28 190 27 254 -2 26 -12 52 -19 57 -16 14 8
64 111 83 172 17 52 43 178 53 260 4 32 2 42 -9 42 -27 0 -47 -35 -58 -104 -6
-38 -17 -81 -25 -96 -14 -27 -115 -120 -130 -120 -4 0 -5 27 -3 59 3 41 14 78
36 120 18 34 32 68 32 76 0 29 -19 15 -38 -27 -37 -82 -169 -203 -264 -242
-32 -14 -38 -13 -76 6 -52 25 -144 114 -161 156 -26 61 26 122 103 122 41 0
42 -2 21 -34 -8 -12 -16 -40 -18 -62 l-2 -39 39 2 c54 4 151 51 210 104 l49
43 -63 13 c-75 15 -140 51 -170 94 -27 38 -22 44 25 29 23 -8 60 -10 99 -6
193 20 180 21 218 -13 33 -29 68 -34 68 -10 0 19 81 30 133 19 102 -21 157
-78 157 -160 -1 -53 -43 -159 -92 -228 -19 -26 -37 -53 -42 -59 -4 -7 20 4 54
24 66 39 141 54 178 34 16 -8 25 -7 42 7 20 16 22 24 16 66 -4 26 -32 97 -63
157 -51 102 -105 239 -97 248 7 8 99 -30 130 -54 44 -33 57 -80 52 -176 -3
-54 -1 -79 6 -79 11 0 147 36 176 46 12 4 9 11 -13 30 -34 29 -48 30 -71 5
-36 -39 -66 9 -66 104 0 66 17 87 90 111 47 15 175 22 188 10 1 -2 9 -43 16
-90 14 -97 13 -100 -47 -110 -32 -6 -36 -10 -27 -22 9 -10 35 -14 96 -14 46 0
84 2 84 5 0 3 -9 24 -21 47 -25 49 -35 133 -20 172 10 26 15 28 49 23 29 -4
115 4 129 12 1 0 10 -13 19 -31z m-4071 -848 c22 -14 204 -139 405 -280 201
-140 397 -272 436 -292 116 -61 159 -68 414 -68 301 0 351 13 450 115 18 19
36 32 40 30 4 -3 5 -172 3 -377 -5 -350 -4 -379 16 -466 38 -172 158 -370 262
-434 40 -26 55 -29 138 -30 l93 -1 106 -106 c75 -74 129 -118 179 -146 40 -22
73 -44 73 -48 0 -5 9 -20 20 -34 12 -15 20 -41 20 -63 0 -20 3 -40 7 -43 3 -4
15 -31 25 -59 22 -65 63 -125 137 -201 72 -75 117 -98 216 -109 92 -10 145
-32 270 -113 156 -101 329 -171 499 -200 260 -44 535 24 814 204 135 87 167
100 267 110 89 9 127 25 186 78 67 61 169 219 169 264 0 10 5 21 10 24 5 3 10
21 10 40 0 54 29 102 73 120 76 31 153 89 248 186 l96 98 91 0 c107 0 131 9
214 89 l58 55 0 -715 c0 -696 -1 -716 -21 -779 -43 -134 -161 -289 -282 -371
-83 -57 -191 -104 -294 -131 l-88 -22 -4020 0 -4020 0 -96 26 c-237 66 -414
199 -520 391 -85 153 -79 43 -79 1420 l0 1225 58 16 c156 43 228 43 367 -1 98
-31 197 -34 272 -9 70 25 172 88 410 255 200 140 266 182 290 182 9 0 13 -18
13 -60 0 -33 4 -60 10 -60 6 0 10 -13 10 -30 0 -16 4 -30 9 -30 5 0 12 -11 15
-25 13 -53 165 -207 233 -237 75 -34 186 -30 285 10 109 44 215 56 448 50
l195 -5 110 -39 c134 -47 228 -52 309 -16 61 27 172 139 206 207 14 28 28 52
33 53 4 2 7 19 7 38 0 19 5 34 10 34 6 0 10 58 10 155 0 175 -2 172 75 125z
m3147 -2033 c274 -188 356 -240 429 -276 384 -184 627 -136 1133 227 107 77
125 86 172 90 55 5 108 -14 164 -57 l24 -19 -28 -29 c-26 -26 -28 -32 -22 -83
7 -64 -5 -123 -31 -159 -31 -41 -42 -37 -40 16 2 41 -1 49 -23 60 -57 27 -179
-26 -308 -134 -134 -112 -323 -200 -512 -239 -244 -49 -585 55 -803 247 -111
96 -235 149 -299 127 -29 -10 -30 -13 -26 -59 6 -55 1 -59 -29 -26 -30 31 -46
101 -38 163 5 46 3 54 -21 83 -32 38 -26 48 49 86 80 39 131 35 209 -18z m402
-20 c88 -42 194 -122 207 -155 13 -33 -17 -96 -47 -100 -12 -2 -43 11 -69 27
-27 17 -74 36 -106 42 -66 13 -111 37 -134 73 -18 27 -13 61 10 70 11 4 13 -1
9 -23 -7 -32 16 -61 47 -61 21 0 69 42 69 60 0 25 -59 69 -114 85 -31 9 -56
19 -56 22 0 17 120 -10 184 -40z m1016 31 c-94 -39 -123 -54 -132 -71 -16 -30
-1 -63 33 -77 43 -18 64 -3 64 44 0 37 11 42 28 14 16 -24 0 -65 -34 -89 -17
-12 -61 -28 -97 -36 -37 -7 -87 -27 -114 -44 -55 -36 -88 -34 -106 6 -22 48
-15 71 38 117 98 86 226 148 305 147 37 0 38 -1 15 -11z m-1533 -354 c-3 -3
-12 -4 -19 -1 -8 3 -5 6 6 6 11 1 17 -2 13 -5z m1896 -1 c-7 -2 -21 -2 -30 0
-10 3 -4 5 12 5 17 0 24 -2 18 -5z M7685 6186 c-50 -16 -124 -61 -85 -52 14 3
70 15 125 25 145 29 145 29 90 30 -27 1 -59 3 -70 6 -11 2 -38 -2 -60 -9z
M7917 6193 c18 -2 50 -2 70 0 21 2 7 4 -32 4 -38 0 -55 -2 -38 -4z M7863 6021
c-23 -11 -65 -38 -94 -61 -103 -82 -208 -116 -278 -92 -17 6 -31 9 -31 7 0 -2
18 -32 39 -65 47 -73 93 -195 116 -310 28 -137 30 -139 44 -40 6 46 4 95 -7
172 -8 60 -12 111 -9 115 4 3 16 -6 28 -21 26 -33 35 -28 43 28 5 31 16 54 37
74 36 35 198 127 275 155 29 11 54 23 54 28 0 13 -70 29 -125 29 -27 0 -69 -9
-92 -19z M7399 5986 c-40 -27 -54 -52 -37 -62 25 -15 128 -7 199 17 l74 24
-94 5 c-78 4 -95 8 -100 23 -6 16 -9 15 -42 -7z M7320 5848 c23 -39 24 -48 8
-71 -12 -15 -19 -15 -91 8 -87 28 -173 32 -203 11 -19 -14 -18 -15 6 -41 47
-51 97 -70 185 -70 71 0 89 4 160 37 44 20 81 41 82 45 2 5 -16 29 -39 55 -34
37 -52 48 -86 53 l-43 7 21 -34z M8108 5469 c-30 -11 -30 -19 -3 -99 l12 -35
71 -3 c40 -2 72 -1 72 1 0 22 -34 108 -48 120 -24 22 -70 29 -104 16z M7947
5380 l-66 -50 -121 0 -120 0 0 -29 c0 -36 -53 -106 -136 -179 -83 -73 -189
-198 -221 -259 -25 -47 -26 -55 -15 -86 24 -65 5 -169 -33 -183 -11 -5 -15
-23 -17 -68 -1 -33 -4 0 -7 74 l-6 135 -55 90 c-30 49 -62 91 -72 93 -11 2
-37 -28 -83 -98 -37 -55 -65 -104 -61 -107 3 -4 26 8 50 25 89 64 114 61 151
-22 28 -64 65 -193 65 -229 l0 -27 232 -2 232 -3 65 -81 c86 -106 146 -213
187 -331 l33 -95 11 43 c37 146 99 274 189 390 l57 74 238 3 239 2 -6 65 c-3
35 -13 75 -21 87 -26 40 -35 101 -20 143 11 33 11 43 -3 69 -61 118 -190 260
-304 334 -47 30 -87 47 -140 58 -70 15 -92 15 -212 -3 -52 -7 -87 24 -87 79
l0 38 74 0 75 0 -6 38 c-10 66 -14 67 -86 12z m-57 -252 c0 -17 -75 -83 -125
-109 -45 -24 -65 -53 -48 -69 4 -5 41 -2 81 7 41 8 76 12 79 9 10 -10 -45 -73
-94 -108 -26 -19 -79 -49 -116 -67 -38 -18 -89 -52 -113 -75 -35 -34 -44 -39
-44 -24 0 11 7 32 15 48 10 19 11 30 5 30 -19 0 -59 -47 -65 -77 -19 -82 -55
-115 -144 -129 l-41 -7 14 40 c57 161 138 242 242 243 22 0 45 5 52 12 7 7 12
41 12 81 0 65 2 71 33 102 23 23 53 39 93 50 32 8 79 24 104 34 55 23 60 24
60 9z m144 3 c3 -5 43 -19 88 -31 105 -28 134 -43 159 -83 16 -25 19 -44 16
-89 -6 -70 6 -84 79 -90 70 -6 119 -39 165 -110 38 -59 76 -154 66 -165 -3 -3
-29 0 -56 7 -67 16 -106 53 -115 108 -4 26 -16 53 -31 68 -34 33 -49 31 -30
-6 8 -16 15 -38 15 -49 0 -17 -8 -12 -46 25 -27 26 -81 61 -128 83 -45 22
-103 58 -129 81 -45 40 -73 77 -65 86 3 2 38 -3 79 -11 79 -15 102 -9 83 23
-6 9 -30 28 -53 41 -49 27 -121 92 -121 109 0 14 16 16 24 3z m-65 -240 c30
-121 99 -255 191 -369 l50 -62 -276 0 -277 0 40 43 c95 104 203 292 234 409
15 56 21 53 38 -21z M6967 5252 c-16 -17 -61 -171 -54 -179 2 -2 21 22 41 52
60 91 79 90 197 -14 l59 -52 0 54 0 54 -47 13 c-25 8 -60 26 -77 40 -61 53
-93 61 -119 32z M8875 5258 c-11 -6 -34 -23 -52 -38 -17 -15 -54 -34 -82 -41
l-51 -13 0 -58 0 -59 74 65 c97 84 111 92 140 72 13 -8 38 -37 56 -66 18 -28
34 -49 36 -47 2 2 -5 39 -16 82 -27 107 -53 132 -105 103z M6996 5058 c-52
-94 -100 -207 -91 -216 4 -4 28 17 54 47 117 136 117 137 136 121 10 -8 40
-44 67 -79 l48 -64 0 49 c0 48 -2 51 -78 127 -42 42 -83 77 -89 77 -7 0 -28
-28 -47 -62z M8775 5039 l-85 -83 0 -55 0 -56 34 50 c19 28 50 68 70 90 l35
40 43 -46 c24 -25 62 -68 84 -95 23 -27 45 -46 49 -42 15 15 -107 267 -133
276 -7 2 -51 -33 -97 -79z M7294 4333 c11 -45 51 -124 85 -171 37 -50 97 -81
157 -82 22 0 45 -5 52 -12 7 -7 12 -41 12 -81 0 -65 2 -71 33 -102 23 -23 53
-39 93 -49 32 -9 81 -25 108 -36 27 -11 51 -18 54 -16 15 15 -94 110 -152 132
-18 7 -31 43 -19 54 4 5 37 2 73 -5 36 -8 71 -14 78 -15 53 -1 -65 108 -177
164 -50 25 -111 66 -136 89 -35 34 -45 40 -45 25 0 -11 7 -32 15 -48 18 -35 8
-38 -29 -9 -17 13 -28 34 -32 61 -12 69 -49 101 -148 123 -27 6 -28 5 -22 -22z
M8553 4350 c-49 -11 -97 -44 -105 -71 -4 -13 -10 -37 -13 -52 -6 -30 -46 -77
-65 -77 -6 0 -5 11 5 30 8 16 15 37 15 48 0 14 -10 9 -47 -26 -26 -24 -84 -61
-128 -82 -101 -48 -213 -145 -192 -166 2 -2 37 2 78 10 117 22 121 -6 10 -77
-38 -25 -77 -57 -87 -72 -18 -28 -13 -45 9 -27 7 6 49 21 92 33 103 28 131 43
156 82 16 26 19 43 15 88 -6 65 10 89 60 89 90 0 157 53 210 165 56 120 56
122 -13 105z M4288 8943 l-628 -3 0 -456 0 -456 53 38 c68 49 1092 766 1177
825 57 39 73 45 135 50 69 6 68 6 -20 5 -49 0 -372 -2 -717 -3z m-290 -324 c4
-19 -23 -49 -44 -49 -9 0 -14 11 -14 36 0 33 2 35 27 32 16 -2 29 -10 31 -19z
M1282 8933 c-8 -3 7 -19 40 -41 75 -50 442 -306 715 -499 127 -89 233 -163
235 -163 2 0 3 160 3 355 l0 355 -490 -1 c-269 0 -496 -3 -503 -6z M1090 8881
c-30 -10 -68 -25 -85 -35 l-30 -17 68 4 c61 3 71 6 100 35 36 37 27 39 -53 13z
M753 8701 c-75 -59 -156 -142 -146 -151 9 -8 191 -136 685 -483 l336 -237 249
0 248 0 -40 27 c-48 31 -779 540 -1058 735 -109 77 -204 141 -211 144 -7 3
-36 -13 -63 -35z M484 8398 c-83 -131 -154 -369 -154 -514 l0 -54 531 0 531 0
-218 151 c-298 207 -506 353 -585 410 -37 27 -69 49 -73 49 -3 0 -18 -19 -32
-42z M330 6054 l0 -386 43 32 c54 41 755 541 916 653 l123 87 -541 0 -541 0 0
-386z M4311 6292 c118 -81 396 -276 619 -432 223 -156 464 -324 535 -373 l130
-88 3 43 c2 28 -5 62 -18 92 -26 61 -25 110 1 153 12 19 20 35 18 37 -2 1 -23
16 -45 34 -23 18 -250 178 -505 357 l-464 325 -244 0 -243 0 213 -148z"/>
</g>
</svg>
