<?xml version="1.0" standalone="no"?>
<!DOCTYPE svg PUBLIC "-//W3C//DTD SVG 20010904//EN"
 "http://www.w3.org/TR/2001/REC-SVG-20010904/DTD/svg10.dtd">
<svg version="1.0" xmlns="http://www.w3.org/2000/svg"
 width="2048.000000pt" height="2048.000000pt" viewBox="0 0 2048.000000 2048.000000"
 preserveAspectRatio="xMidYMid meet">
<metadata>
Created by potrace 1.13, written by Peter Selinger 2001-2015
</metadata>
<g transform="translate(0.000000,2048.000000) scale(0.192120,-0.192120)"
fill="#000000" stroke="none">
<path d="M1247 8924 c-348 -63 -652 -295 -807 -615 -48 -99 -73 -181 -95 -303
-12 -73 -15 -193 -15 -687 l0 -599 5001 0 5000 0 -4 638 c-3 544 -6 647 -20
703 -55 224 -149 396 -302 551 -137 138 -317 242 -512 296 l-98 27 -4035 2
c-3449 1 -4046 -1 -4113 -13z m8158 -286 c180 -43 325 -116 436 -223 80 -76
115 -125 161 -220 l43 -90 3 -567 2 -568 -4730 0 -4730 0 0 538 c0 583 -1 572
58 688 126 250 388 421 697 454 39 4 1852 7 4030 6 3634 -2 3966 -3 4030 -18z
M5216 6588 c-60 -3 -113 -11 -118 -16 -5 -5 1 -36 17 -79 l26 -70 57 10 c50 8
273 5 311 -4 10 -3 18 13 27 56 20 94 21 93 -38 99 -97 10 -172 11 -282 4z
M10304 6543 c-10 -21 -22 -39 -26 -41 -5 -2 -8 -12 -8 -23 0 -10 -5 -19 -10
-19 -15 0 -9 -2268 6 -2278 6 -4 14 -18 17 -32 4 -14 16 -36 27 -50 20 -25 20
-23 20 1228 0 688 -2 1252 -3 1252 -2 0 -12 -17 -23 -37z M330 5325 c0 -679 3
-1235 8 -1235 4 0 16 20 27 45 11 25 23 45 27 45 5 0 8 513 8 1140 0 753 -3
1140 -10 1140 -5 0 -10 5 -10 12 0 18 -33 88 -42 88 -4 0 -8 -556 -8 -1235z
M4793 6475 c-252 -120 -469 -331 -593 -575 -91 -182 -132 -356 -133 -565 0
-123 13 -259 27 -272 4 -4 148 15 152 20 1 1 -5 38 -13 82 -21 118 -12 312 21
440 62 240 212 463 413 615 68 52 252 150 280 150 10 0 13 6 9 18 -36 96 -52
132 -61 132 -5 0 -52 -20 -102 -45z M5739 6448 c-44 -82 -43 -78 -26 -78 28 0
212 -99 282 -151 198 -150 350 -376 410 -614 30 -114 43 -305 28 -397 -6 -32
-8 -59 -7 -61 2 -2 39 2 81 7 l78 11 8 60 c16 134 -16 377 -69 527 -84 233
-245 449 -445 598 -77 57 -265 160 -292 160 -8 0 -29 -28 -48 -62z M4938 5614
c-213 -368 -411 -711 -441 -763 -31 -52 -53 -100 -50 -107 4 -12 154 -14 883
-14 484 0 881 3 883 8 3 4 -52 104 -120 222 -69 118 -264 456 -433 750 -170
294 -315 544 -322 554 -13 17 -49 -42 -400 -650z m430 447 c15 -15 67 -95 116
-177 49 -82 97 -160 105 -173 l16 -24 -25 16 c-14 9 -56 28 -95 42 -123 47
-254 31 -392 -46 l-53 -29 46 78 c102 173 179 295 200 318 30 31 50 30 82 -5z
m131 -366 c74 -25 148 -62 139 -70 -2 -3 -29 4 -59 14 -173 61 -328 50 -532
-38 -59 -25 -60 -26 -48 -3 11 22 164 95 241 117 72 20 162 13 259 -20z m42
-85 c91 -31 135 -63 163 -118 14 -27 49 -85 78 -129 29 -43 71 -112 93 -151
28 -51 46 -72 60 -72 13 0 16 -3 8 -8 -8 -5 18 -58 83 -172 l94 -165 -394 -3
c-217 -1 -574 -1 -794 0 l-400 3 96 167 c54 92 143 243 199 336 56 92 105 175
108 183 14 38 219 132 325 150 71 12 214 1 281 -21z M5422 5535 c-17 -37 -16
-38 31 -14 37 19 40 23 22 30 -33 13 -41 10 -53 -16z M5212 5542 c-8 -6 -2
-13 22 -25 35 -16 35 -16 27 6 -9 24 -29 32 -49 19z M5301 5526 c-21 -22 -22
-31 -16 -85 4 -34 11 -64 16 -67 15 -9 10 -37 -11 -64 -26 -33 -25 -42 3 -38
16 2 23 11 25 30 2 15 19 43 38 62 36 36 42 64 24 125 -8 29 -34 60 -51 61 -3
0 -16 -11 -28 -24z M5129 5484 l-33 -34 72 0 c40 0 72 4 72 9 0 4 -17 20 -39
34 l-38 26 -34 -35z M5470 5487 l-45 -32 43 -3 c23 -2 60 -2 83 0 l40 3 -27
33 c-15 17 -32 32 -38 32 -6 -1 -31 -15 -56 -33z M5086 5412 c-6 -10 4 -49 20
-76 11 -18 15 -17 73 24 43 31 58 46 49 52 -17 10 -135 10 -142 0z M5443 5412
c-7 -4 13 -23 52 -49 l64 -42 20 43 c12 23 21 45 21 49 0 9 -142 9 -157 -1z
M5200 5335 l-65 -33 40 -11 c22 -6 43 -11 47 -11 8 0 51 80 46 85 -2 2 -32
-12 -68 -30z M5422 5325 c24 -49 43 -55 87 -31 25 14 24 14 -37 45 -34 17 -64
31 -67 31 -2 0 5 -20 17 -45z M5360 5313 c0 -26 4 -33 20 -33 25 0 25 8 0 40
l-20 25 0 -32z M4885 5173 c-49 -41 -115 -95 -145 -119 -30 -24 -63 -57 -73
-73 l-17 -30 52 -6 c101 -12 286 -21 354 -18 38 2 132 15 209 30 127 23 166
25 412 27 149 0 275 4 279 8 12 13 -12 53 -86 148 l-71 89 -44 -49 -43 -49
-46 52 -45 52 -49 -50 -49 -51 -58 50 -57 50 -20 -25 c-10 -13 -28 -37 -38
-53 l-18 -28 -50 46 -50 47 -59 -55 c-32 -31 -61 -55 -64 -54 -3 2 -32 33 -63
71 -32 37 -60 67 -64 67 -4 -1 -47 -35 -97 -77z m194 -82 c50 -54 91 -101 91
-104 0 -3 -21 -7 -46 -9 l-46 -3 -54 76 c-37 53 -54 87 -54 108 0 17 4 31 9
31 5 0 50 -44 100 -99z m465 -41 c-14 -13 -22 -8 -74 48 -83 90 -69 110 21 29
61 -56 67 -63 53 -77z m-182 -12 c-5 -5 -22 -8 -38 -6 -21 2 -38 16 -66 57
-64 92 -49 103 37 25 46 -41 72 -71 67 -76z m238 138 c0 -2 -6 -18 -13 -35
-12 -28 -15 -30 -27 -16 -11 13 -10 19 5 35 16 18 35 26 35 16z m160 -65 c-23
-47 -26 -48 -39 -23 -8 15 -3 27 22 57 39 48 49 28 17 -34z M6341 4875 c-13
-31 -22 -57 -20 -59 6 -5 132 -46 141 -46 7 0 22 30 48 96 8 20 4 23 -54 38
-35 8 -69 18 -78 21 -10 4 -21 -11 -37 -50z M4233 4834 c-58 -14 -61 -17 -54
-37 16 -40 46 -87 56 -87 6 0 35 9 65 20 30 12 60 23 67 25 18 6 -34 95 -55
94 -10 0 -45 -7 -79 -15z M6117 4550 c-154 -159 -358 -266 -599 -315 -28 -5
-28 -6 -28 -84 l0 -79 78 15 c248 46 480 172 668 361 52 52 94 98 94 101 0 5
-109 58 -139 68 -3 1 -36 -29 -74 -67z M4465 4574 c-16 -8 -50 -22 -74 -32
l-45 -18 90 -88 c184 -181 393 -293 647 -346 145 -31 138 -34 135 57 l-3 77
-75 13 c-217 36 -435 149 -585 302 -27 28 -52 51 -55 50 -3 0 -18 -7 -35 -15z
M333 3303 c3 -545 6 -648 20 -704 55 -225 149 -396 303 -551 139 -140 316
-242 511 -296 l98 -27 4065 0 4065 0 98 27 c364 101 656 369 774 713 57 167
56 150 60 838 l4 637 -5001 0 -5001 0 4 -637z m9715 -185 l-3 -553 -35 -80
c-114 -257 -319 -419 -610 -482 -82 -17 -246 -18 -4070 -18 -3822 0 -3988 1
-4070 18 -192 42 -325 112 -455 242 -73 73 -100 108 -138 181 -78 153 -77 140
-77 726 l0 518 4730 0 4731 0 -3 -552z"/>
</g>
</svg>
