<?xml version="1.0" standalone="no"?>
<!DOCTYPE svg PUBLIC "-//W3C//DTD SVG 20010904//EN"
 "http://www.w3.org/TR/2001/REC-SVG-20010904/DTD/svg10.dtd">
<svg version="1.0" xmlns="http://www.w3.org/2000/svg"
 width="2048.000000pt" height="2048.000000pt" viewBox="0 0 2048.000000 2048.000000"
 preserveAspectRatio="xMidYMid meet">
<metadata>
Created by potrace 1.13, written by Peter Selinger 2001-2015
</metadata>
<g transform="translate(0.000000,2048.000000) scale(0.192120,-0.192120)"
fill="#000000" stroke="none">
<path d="M3390 8940 c0 -3 84 -27 188 -54 103 -27 390 -104 637 -171 248 -67
492 -133 543 -146 50 -13 92 -26 92 -30 0 -3 -57 -21 -127 -39 -71 -18 -342
-91 -603 -162 -261 -71 -529 -142 -595 -159 -66 -17 -123 -34 -128 -38 -4 -4
107 -37 245 -74 276 -73 1080 -289 1168 -314 l55 -16 -90 -24 c-49 -13 -337
-91 -640 -173 -302 -82 -590 -159 -640 -171 -49 -12 -94 -25 -98 -29 -5 -4 29
-17 75 -29 46 -13 340 -92 653 -176 314 -85 607 -164 653 -176 46 -12 81 -24
78 -26 -2 -3 -49 -16 -103 -30 -54 -13 -327 -87 -608 -163 -280 -76 -565 -153
-633 -171 -68 -17 -120 -35 -115 -39 4 -4 49 -17 98 -29 50 -12 320 -85 600
-161 281 -76 567 -153 638 -171 70 -18 124 -36 120 -39 -5 -4 -66 -22 -138
-40 -71 -18 -366 -97 -655 -175 -289 -78 -558 -150 -597 -160 -40 -11 -73 -22
-73 -25 0 -4 35 -15 78 -25 42 -10 338 -88 657 -175 319 -86 613 -165 653
-175 39 -11 72 -22 72 -25 0 -3 -33 -14 -72 -25 -40 -10 -334 -89 -653 -175
-319 -87 -615 -165 -657 -175 -43 -10 -78 -21 -78 -25 0 -3 48 -19 108 -34 59
-15 312 -83 562 -151 250 -68 527 -142 615 -165 88 -23 166 -45 173 -49 7 -4
-36 -20 -95 -35 -60 -15 -346 -92 -638 -171 -291 -79 -570 -154 -620 -166 -49
-12 -94 -25 -98 -29 -5 -4 47 -22 115 -39 68 -18 287 -78 488 -132 201 -55
475 -129 609 -165 212 -56 273 -74 249 -74 -9 0 -426 -111 -878 -233 -234 -64
-462 -126 -508 -138 -46 -12 -80 -25 -75 -29 4 -4 49 -17 98 -29 50 -12 338
-89 640 -171 303 -82 591 -160 640 -173 l90 -24 -55 -16 c-88 -25 -892 -241
-1168 -314 -138 -37 -249 -70 -245 -74 5 -4 55 -20 113 -34 58 -15 344 -91
635 -170 292 -79 569 -154 618 -166 48 -13 87 -26 87 -29 0 -3 -33 -14 -72
-25 -40 -10 -269 -71 -508 -136 -239 -64 -534 -143 -655 -175 -213 -55 -233
-61 -224 -66 2 -2 1354 -1 3004 2 l3000 5 98 27 c422 117 734 449 818 873 21
105 21 5305 0 5410 -71 355 -298 646 -626 801 -52 25 -138 57 -192 72 l-98 27
-1610 3 c-885 1 -2237 3 -3003 5 -765 1 -1392 0 -1392 -3z m6019 -314 c190
-45 319 -114 442 -236 72 -72 93 -101 135 -184 l49 -99 3 -2754 2 -2755 -24
-69 c-90 -258 -310 -445 -606 -515 -71 -17 -203 -18 -2225 -21 -1744 -2 -2155
-1 -2175 10 -26 13 -27 23 -15 97 8 46 -26 108 -103 185 -72 73 -139 116 -245
159 -167 67 -168 81 -12 134 107 36 186 85 253 156 65 70 102 139 102 190 0
102 -185 272 -354 326 -67 21 -107 50 -104 73 2 16 24 29 98 57 141 54 178 76
250 149 72 73 110 140 110 192 0 100 -173 269 -331 324 -79 28 -119 50 -125
69 -8 25 11 40 76 61 30 9 88 33 129 52 126 60 251 207 251 296 0 87 -131 228
-277 297 -170 81 -193 93 -193 104 0 16 30 33 102 57 156 53 281 148 340 260
49 92 34 147 -73 256 -68 70 -135 114 -242 157 -167 67 -168 78 -15 132 40 14
100 41 133 59 109 60 225 207 225 285 0 104 -184 276 -355 330 -62 20 -106 52
-103 75 2 15 24 27 88 51 133 48 190 81 262 154 68 70 108 140 108 192 0 99
-172 268 -331 323 -79 28 -119 50 -125 69 -8 25 11 40 76 61 30 9 88 33 129
52 126 60 251 207 251 296 0 51 -42 117 -120 190 -66 63 -82 72 -280 166 -19
9 -44 24 -54 34 -20 17 -20 17 0 31 10 8 48 25 84 37 164 55 288 153 350 274
28 54 31 70 26 108 -4 24 -4 51 0 60 6 16 144 17 2173 14 2039 -3 2170 -4
2240 -21z M1285 8929 c-151 -22 -320 -86 -455 -173 -85 -55 -214 -177 -281
-265 -105 -140 -186 -344 -208 -526 -15 -127 -15 -5143 0 -5270 29 -238 130
-452 295 -625 160 -168 335 -267 574 -327 58 -15 183 -17 1113 -20 l1048 -4
-39 35 c-21 19 -52 41 -68 48 -23 10 -223 13 -969 13 -1004 1 -991 0 -1150 52
-166 54 -298 137 -426 269 -47 49 -100 110 -118 136 -46 69 -108 202 -131 283
-20 69 -20 101 -20 2781 l0 2712 21 68 c12 38 37 101 57 139 167 333 446 530
810 575 55 6 378 7 928 3 639 -5 844 -3 844 5 0 7 16 12 40 12 73 0 138 20
181 56 l41 34 -1014 -1 c-557 -1 -1040 -5 -1073 -10z"/>
</g>
</svg>
