<?xml version="1.0" standalone="no"?>
<!DOCTYPE svg PUBLIC "-//W3C//DTD SVG 20010904//EN"
 "http://www.w3.org/TR/2001/REC-SVG-20010904/DTD/svg10.dtd">
<svg version="1.0" xmlns="http://www.w3.org/2000/svg"
 width="2048.000000pt" height="2048.000000pt" viewBox="0 0 2048.000000 2048.000000"
 preserveAspectRatio="xMidYMid meet">
<metadata>
Created by potrace 1.13, written by Peter Selinger 2001-2015
</metadata>
<g transform="translate(0.000000,2048.000000) scale(0.192120,-0.192120)"
fill="#000000" stroke="none">
<path d="M1247 8924 c-474 -85 -838 -467 -907 -949 -6 -42 -10 -417 -10 -940
l0 -870 1387 2 1388 3 3 1385 2 1385 -892 -1 c-724 -1 -908 -3 -971 -15z
m1583 -1384 l0 -1120 -1120 0 -1120 0 0 815 c0 798 0 817 21 878 89 267 363
482 679 532 64 10 260 13 813 14 l727 1 0 -1120z M3254 8928 c11 -6 36 -11 56
-11 20 0 45 5 56 11 15 9 4 11 -56 11 -60 0 -71 -2 -56 -11z M3539 7808 c0
-623 -2 -1342 -5 -1598 l-5 -465 -1600 0 -1599 0 0 -415 0 -415 1600 3 1600 3
-2 -1601 -3 -1600 418 0 418 0 -1 1598 -1 1597 2985 0 2986 0 0 415 0 415
-2986 0 -2985 0 1 1598 1 1597 -411 0 -410 0 -1 -1132z m561 -578 c0 -933 3
-1410 10 -1410 6 0 10 -13 10 -28 0 -49 49 -128 129 -210 44 -44 99 -89 127
-103 l49 -24 2803 -3 2802 -2 0 -130 0 -130 -2802 -2 -2803 -3 -47 -23 c-87
-43 -258 -227 -258 -278 0 -8 -4 -14 -10 -14 -7 0 -10 -472 -10 -1395 0 -1388
0 -1395 -20 -1395 -17 0 -20 -7 -20 -40 l0 -40 -130 0 -130 0 0 40 c0 29 -4
40 -15 40 -13 0 -15 170 -17 1410 -2 928 -6 1413 -13 1418 -6 4 -17 22 -25 40
-24 51 -157 179 -220 210 l-55 27 -1422 3 -1423 2 0 130 0 130 1428 2 1427 3
49 24 c85 42 226 202 226 257 0 8 5 14 10 14 6 0 10 16 10 35 0 19 5 35 10 35
7 0 10 291 10 853 0 470 3 1104 7 1410 l6 557 154 0 153 0 0 -1410z M4525
8930 c11 -5 34 -9 50 -9 17 0 39 4 50 9 14 6 -2 9 -50 9 -48 0 -64 -3 -50 -9z
M4774 8918 c3 -13 6 -637 6 -1388 l0 -1365 2775 0 2776 0 -4 915 c-3 806 -5
923 -20 981 -55 225 -149 396 -302 551 -137 138 -317 242 -512 296 l-98 27
-2314 3 -2313 2 6 -22z m4645 -282 c276 -66 487 -227 593 -452 l33 -69 3 -847
2 -848 -2510 0 -2510 0 0 1120 0 1120 2158 -3 c2035 -3 2161 -4 2231 -21z
M10315 5988 c-4 -18 -2 -44 4 -58 8 -21 10 -16 10 33 1 64 -5 74 -14 25z M330
5965 c0 -22 4 -34 10 -30 6 3 10 17 10 30 0 13 -4 27 -10 30 -6 4 -10 -8 -10
-30z M10314 4714 c-3 -19 -2 -45 4 -57 9 -18 11 -12 11 36 1 65 -5 74 -15 21z
M330 4695 c0 -22 4 -34 10 -30 6 3 10 17 10 30 0 13 -4 27 -10 30 -6 4 -10 -8
-10 -30z M333 3580 c3 -806 5 -923 20 -981 56 -226 149 -396 303 -551 139
-140 316 -242 511 -296 l98 -27 923 -3 922 -3 -2 1386 -3 1385 -1388 3 -1388
2 4 -915z m2497 -481 l0 -1120 -762 3 -763 4 -97 26 c-288 79 -504 271 -594
528 l-24 70 0 805 0 805 1120 0 1120 0 0 -1121z M4780 3130 c0 -751 -3 -1375
-6 -1388 l-6 -22 2313 2 2314 3 98 27 c112 31 256 96 348 158 35 24 103 82
152 129 161 156 255 324 314 561 15 57 17 175 20 980 l4 915 -2776 0 -2775 0
0 -1365z m5270 273 l0 -818 -25 -68 c-79 -224 -272 -407 -515 -487 -157 -51
-97 -50 -2367 -50 l-2113 0 0 1120 0 1120 2510 0 2510 0 0 -817z M3255 1730
c-14 -6 2 -9 50 -9 48 0 64 3 50 9 -11 5 -33 9 -50 9 -16 0 -39 -4 -50 -9z
M4525 1730 c-14 -6 2 -9 50 -9 48 0 64 3 50 9 -11 5 -33 9 -50 9 -16 0 -39 -4
-50 -9z"/>
</g>
</svg>
