<?xml version="1.0" standalone="no"?>
<!DOCTYPE svg PUBLIC "-//W3C//DTD SVG 20010904//EN"
 "http://www.w3.org/TR/2001/REC-SVG-20010904/DTD/svg10.dtd">
<svg version="1.0" xmlns="http://www.w3.org/2000/svg"
 width="2048.000000pt" height="2048.000000pt" viewBox="0 0 2048.000000 2048.000000"
 preserveAspectRatio="xMidYMid meet">
<metadata>
Created by potrace 1.13, written by Peter Selinger 2001-2015
</metadata>
<g transform="translate(0.000000,2048.000000) scale(0.192120,-0.192120)"
fill="#000000" stroke="none">
<path d="M1247 8924 c-399 -72 -737 -366 -862 -751 -58 -175 -55 -35 -55
-2838 0 -2805 -2 -2674 55 -2850 29 -87 116 -261 148 -296 11 -12 42 -49 69
-83 54 -68 167 -168 184 -164 6 2 2156 1036 4778 2298 l4767 2295 -4 730 c-3
632 -6 739 -20 796 -55 224 -149 396 -302 551 -137 138 -317 242 -512 296
l-98 27 -4035 2 c-3450 1 -4046 -1 -4113 -13z m5747 -36 c-39 -45 -908 -981
-1840 -1983 -1340 -1442 -2733 -2940 -3634 -3910 -902 -971 -865 -933 -867
-905 -3 31 -30 69 -64 88 -24 14 -28 22 -23 42 14 59 3080 6685 3094 6688 9 1
44 -22 80 -53 36 -30 81 -59 100 -65 22 -6 514 -10 1370 -10 1107 0 1346 3
1401 14 37 8 138 41 225 75 196 74 209 75 158 19z m2264 -238 c171 -13 296
-47 412 -112 149 -83 266 -205 333 -346 l32 -67 0 -728 0 -729 -4085 -1967
c-2247 -1081 -4159 -2002 -4250 -2045 -174 -82 -236 -104 -253 -87 -15 15 12
50 143 191 65 69 1221 1313 2570 2765 2997 3225 2830 3046 2890 3085 30 19 71
35 103 40 76 11 1961 11 2105 0z m-6020 -28 c5 -34 -22 -108 -108 -297 -291
-644 -2448 -5304 -2472 -5341 -18 -29 -33 -43 -39 -37 -6 6 -8 980 -7 2584 l3
2574 39 77 c131 263 407 434 736 457 63 5 504 8 980 7 l865 -1 3 -23z M10302
6303 c-12 -27 -22 -56 -22 -65 0 -9 -4 -20 -10 -23 -13 -8 -14 -1855 -1 -1855
5 0 12 -13 16 -30 4 -16 10 -30 14 -30 4 0 13 -10 19 -22 8 -17 11 264 11
1025 1 576 0 1047 -2 1047 -1 0 -12 -21 -25 -47z M10250 4109 c-36 -10 -1487
-361 -3225 -779 -1738 -418 -3329 -801 -3535 -851 -1315 -317 -2417 -581
-2507 -601 -34 -7 -63 -17 -63 -23 -3 -14 137 -72 249 -103 l96 -27 4065 0
4065 0 98 27 c413 114 710 423 814 847 14 57 17 164 20 799 2 402 0 731 -4
731 -4 -1 -37 -10 -73 -20z m-245 -1599 c-83 -212 -247 -371 -464 -450 -176
-65 54 -61 -3381 -57 -1719 2 -3140 7 -3158 11 -51 13 -38 33 35 56 38 12
1625 397 3528 855 l3460 832 3 -591 2 -592 -25 -64z"/>
</g>
</svg>
