<?xml version="1.0" standalone="no"?>
<!DOCTYPE svg PUBLIC "-//W3C//DTD SVG 20010904//EN"
 "http://www.w3.org/TR/2001/REC-SVG-20010904/DTD/svg10.dtd">
<svg version="1.0" xmlns="http://www.w3.org/2000/svg"
 width="2048.000000pt" height="2048.000000pt" viewBox="0 0 2048.000000 2048.000000"
 preserveAspectRatio="xMidYMid meet">
<metadata>
Created by potrace 1.13, written by Peter Selinger 2001-2015
</metadata>
<g transform="translate(0.000000,2048.000000) scale(0.192120,-0.192120)"
fill="#000000" stroke="none">
<path d="M1320 10324 c-273 -42 -463 -131 -640 -301 -176 -167 -284 -364 -332
-603 -19 -96 -19 -8084 0 -8180 80 -398 361 -723 733 -849 180 -60 -136 -56
4249 -56 3399 0 4036 2 4095 14 398 79 726 367 848 746 55 171 52 -100 52
4235 0 4335 3 4064 -52 4235 -51 157 -132 292 -250 415 -160 169 -333 267
-572 328 -61 15 -367 16 -4086 18 -2211 1 -4031 0 -4045 -2z m8089 -287 c294
-72 494 -221 609 -457 l37 -75 0 -4165 0 -4165 -28 -69 c-120 -296 -384 -481
-736 -516 -74 -8 -1306 -10 -4041 -8 -3625 4 -3940 5 -4000 20 -334 86 -563
284 -649 562 l-21 68 0 4104 0 4105 21 62 c63 189 239 375 443 467 83 38 192
68 287 79 41 5 1846 8 4039 7 3772 -1 3969 -2 4039 -19z M3055 8683 c-214 -45
-413 -178 -555 -369 -55 -74 -116 -201 -140 -290 -20 -77 -20 -98 -20 -1850 0
-1698 1 -1776 19 -1880 82 -468 275 -878 599 -1276 486 -596 1219 -996 2006
-1093 570 -71 1152 28 1681 284 837 406 1422 1128 1621 2001 l29 125 3 1805
c2 1347 0 1819 -8 1859 -32 147 -132 322 -255 447 -168 170 -373 254 -619 254
-311 0 -560 -130 -756 -396 -44 -59 -100 -168 -123 -239 -48 -146 -47 -110
-47 -1762 0 -1046 -3 -1577 -11 -1630 -28 -206 -85 -368 -182 -514 -157 -240
-398 -398 -709 -466 -131 -28 -419 -26 -558 5 -275 62 -511 203 -648 390 -101
138 -154 260 -194 448 l-22 109 -6 1630 c-4 897 -10 1644 -14 1660 -4 17 -12
50 -17 75 -33 139 -132 310 -250 429 -139 139 -287 218 -473 250 -84 15 -268
12 -351 -6z m398 -252 c222 -58 387 -215 463 -441 18 -52 19 -136 25 -1730 5
-1657 5 -1676 26 -1770 63 -281 175 -497 349 -674 258 -262 600 -398 1004
-399 182 0 305 18 458 69 471 156 806 531 915 1024 21 94 21 117 26 1760 l6
1665 27 75 c40 113 74 167 157 250 88 88 180 140 297 170 159 41 314 36 464
-15 198 -67 343 -221 406 -431 17 -56 19 -153 22 -1694 2 -1144 0 -1674 -8
-1765 -48 -565 -287 -1069 -710 -1496 -648 -655 -1582 -964 -2495 -823 -1108
171 -2023 957 -2264 1945 -70 287 -66 168 -66 2054 0 1589 1 1704 18 1765 55
205 207 372 403 441 146 52 323 60 477 20z"/>
</g>
</svg>
