<?xml version="1.0" standalone="no"?>
<!DOCTYPE svg PUBLIC "-//W3C//DTD SVG 20010904//EN"
 "http://www.w3.org/TR/2001/REC-SVG-20010904/DTD/svg10.dtd">
<svg version="1.0" xmlns="http://www.w3.org/2000/svg"
 width="2048.000000pt" height="2048.000000pt" viewBox="0 0 2048.000000 2048.000000"
 preserveAspectRatio="xMidYMid meet">
<metadata>
Created by potrace 1.13, written by Peter Selinger 2001-2015
</metadata>
<g transform="translate(0.000000,2048.000000) scale(0.192120,-0.192120)"
fill="#000000" stroke="none">
<path d="M1285 8929 c-151 -22 -320 -86 -455 -173 -85 -55 -214 -177 -281
-265 -105 -140 -186 -344 -208 -526 -15 -127 -15 -5143 0 -5270 29 -238 130
-452 295 -625 160 -167 333 -266 574 -327 59 -16 241 -17 2030 -20 l1965 -3
-55 32 c-30 18 -56 36 -58 40 -2 4 -12 8 -23 8 -10 0 -19 5 -19 11 0 8 -517
10 -1847 8 -1408 -2 -1863 1 -1913 10 -148 27 -288 85 -415 171 -77 53 -223
198 -274 273 -52 76 -117 224 -140 316 l-21 85 0 2667 0 2667 25 86 c61 209
205 418 377 544 137 101 327 178 491 201 54 8 643 11 1898 11 1206 0 1819 3
1819 10 0 6 8 10 18 10 9 0 44 16 77 35 l60 35 -1930 -1 c-1062 -1 -1957 -5
-1990 -10z M5330 5330 l0 -3610 2033 2 2032 3 98 27 c422 117 734 449 818 873
21 105 21 5305 0 5410 -71 355 -298 646 -626 801 -52 25 -138 57 -192 72 l-98
27 -2032 3 -2033 2 0 -3610z m4119 3292 c251 -67 450 -222 548 -428 l38 -79 0
-2780 0 -2780 -23 -57 c-34 -85 -131 -226 -191 -280 -75 -68 -185 -134 -280
-168 -171 -63 -74 -60 -2102 -60 l-1849 0 0 3330 0 3330 1888 -3 1887 -2 84
-23z M1620 8170 c0 -240 -3 -311 -12 -314 -7 -2 -33 -9 -57 -16 -57 -15 -135
-92 -152 -149 l-12 -41 -299 0 -298 0 0 -375 0 -375 296 -2 297 -3 11 -46 c7
-25 23 -60 36 -78 30 -43 104 -90 152 -98 l38 -6 0 -298 0 -299 375 -2 375 -3
0 303 0 302 33 0 c48 0 129 42 166 86 17 22 39 63 47 92 l15 52 287 0 287 0 0
375 0 375 -292 0 c-257 0 -293 2 -293 15 0 29 -38 91 -79 128 -35 32 -118 67
-158 67 -10 0 -13 60 -13 310 l0 310 -375 0 -375 0 0 -310z m652 -127 l3 -338
79 -78 79 -79 61 2 c33 1 186 2 339 1 l277 -1 0 -275 0 -275 -282 -2 c-156 -1
-309 -1 -340 1 -39 2 -58 -1 -58 -9 0 -6 -35 -46 -77 -88 l-78 -76 -4 -333 -3
-333 -274 0 -274 0 0 344 0 344 -46 37 c-25 21 -57 55 -71 77 -26 39 -27 39
-82 37 -31 -2 -185 -2 -343 -1 l-288 2 0 275 0 275 283 1 c155 1 310 1 343 0
l61 -3 72 71 71 72 0 344 0 345 274 0 274 0 4 -337z m-594 -274 c-7 -11 -29
-30 -48 -42 -19 -12 -66 -51 -105 -87 l-70 -65 -3 37 c-8 90 84 178 185 178
51 0 53 -1 41 -21z m782 1 c49 -25 86 -73 98 -127 16 -69 1 -69 -71 -4 -37 33
-81 68 -99 77 -42 21 -79 54 -72 65 10 17 104 9 144 -11z m-930 -874 c19 -24
63 -67 98 -95 34 -29 60 -57 56 -63 -4 -6 -28 -8 -60 -6 -100 8 -174 88 -174
186 0 53 0 53 22 38 13 -9 38 -36 58 -60z m1030 -11 c-25 -110 -148 -184 -244
-146 -17 7 -15 11 20 36 85 62 120 91 149 124 16 19 39 43 50 53 19 18 20 18
26 -6 4 -14 3 -41 -1 -61z M1930 7574 c-107 -29 -182 -91 -226 -189 -34 -76
-39 -126 -19 -210 70 -297 472 -348 612 -78 87 169 24 366 -145 452 -34 17
-58 23 -142 36 -14 2 -50 -3 -80 -11z m24 -66 c14 -9 14 -9 -83 -45 l-83 -31
33 34 c41 42 112 80 118 61 2 -6 9 -15 15 -19z m141 21 l39 -11 -27 -14 c-23
-13 -27 -21 -27 -62 -1 -39 -3 -44 -11 -28 -17 28 -29 2 -29 -64 0 -79 -14
-93 -33 -35 -12 33 -14 64 -10 110 5 56 9 64 29 69 26 7 33 26 9 26 -8 0 -15
5 -15 10 0 13 25 13 75 -1z m106 -99 c29 0 44 -18 69 -84 9 -25 9 -25 -39 -19
-36 4 -55 1 -74 -11 -25 -17 -26 -17 -29 6 -2 13 1 45 6 71 6 36 13 47 23 43
8 -4 28 -6 44 -6z m-251 -50 c0 -19 -40 -70 -55 -70 -8 0 -68 -25 -108 -46
-35 -17 -67 -18 -66 -1 0 6 10 39 23 72 19 49 27 60 47 61 13 1 34 -7 45 -18
28 -26 76 -21 89 9 11 25 25 21 25 -7z m303 -115 l37 0 0 -50 0 -50 -19 31
c-14 23 -29 33 -58 38 -21 4 -46 10 -57 13 -17 5 -16 6 5 18 13 7 31 10 39 7
8 -3 32 -6 53 -7z m-443 -70 c12 -19 28 -35 36 -35 10 0 11 -6 4 -26 -22 -57
-14 -77 43 -106 57 -30 86 -35 105 -16 21 21 13 35 -33 59 -77 41 -55 81 69
122 41 14 78 22 81 17 3 -5 19 -11 35 -15 34 -7 50 -31 50 -72 0 -16 5 -34 11
-40 8 -8 -19 -22 -94 -52 -156 -61 -226 -55 -325 26 -36 29 -42 39 -31 47 29
23 43 64 31 91 -22 48 -12 48 18 0z"/>
</g>
</svg>
