<?xml version="1.0" standalone="no"?>
<!DOCTYPE svg PUBLIC "-//W3C//DTD SVG 20010904//EN"
 "http://www.w3.org/TR/2001/REC-SVG-20010904/DTD/svg10.dtd">
<svg version="1.0" xmlns="http://www.w3.org/2000/svg"
 width="2048.000000pt" height="2048.000000pt" viewBox="0 0 2048.000000 2048.000000"
 preserveAspectRatio="xMidYMid meet">
<metadata>
Created by potrace 1.13, written by Peter Selinger 2001-2015
</metadata>
<g transform="translate(0.000000,2048.000000) scale(0.192120,-0.192120)"
fill="#000000" stroke="none">
<path d="M1247 8924 c-474 -86 -838 -467 -907 -949 -6 -41 -10 -371 -10 -802
l0 -733 5000 0 5001 0 -4 778 c-3 676 -6 786 -20 843 -55 225 -149 396 -302
551 -137 138 -317 242 -512 296 l-98 27 -4035 2 c-3449 1 -4046 -1 -4113 -13z
m8113 -279 c290 -43 526 -207 643 -445 l42 -85 3 -712 2 -713 -4730 0 -4730 0
0 685 0 684 24 65 c80 221 283 407 531 487 152 49 -20 47 4175 48 3385 1 3959
-1 4040 -14z M10308 6278 c-10 -12 -18 -28 -18 -35 0 -7 -4 -13 -10 -13 -5 0
-10 -11 -10 -25 0 -14 -4 -25 -10 -25 -7 0 -10 -295 -10 -865 0 -570 3 -865
10 -865 6 0 10 -9 10 -20 0 -11 4 -20 9 -20 5 0 13 -10 17 -22 3 -12 13 -28
20 -36 12 -11 14 138 14 967 0 540 -1 981 -2 981 -2 0 -11 -10 -20 -22z M331
5320 c0 -859 1 -973 14 -956 8 11 15 26 15 33 0 7 5 13 10 13 6 0 10 9 10 20
0 11 5 20 10 20 7 0 10 295 10 864 0 566 -3 867 -10 871 -5 3 -10 15 -10 26 0
10 -4 19 -10 19 -5 0 -10 6 -10 13 0 7 -7 22 -15 33 -13 17 -14 -97 -14 -956z
M333 3443 c3 -677 6 -787 20 -844 55 -226 149 -396 303 -551 139 -140 316
-242 511 -296 l98 -27 4065 0 4065 0 98 27 c112 31 256 96 348 158 35 24 103
82 152 129 161 157 255 325 314 561 14 57 17 166 20 843 l4 777 -5001 0 -5001
0 4 -777z m9727 -170 l0 -678 -28 -80 c-91 -261 -328 -456 -632 -522 -82 -17
-248 -18 -4065 -18 -4236 0 -4033 -2 -4185 47 -229 74 -397 217 -509 433 -61
120 -61 114 -61 837 l0 658 4740 0 4740 0 0 -677z"/>
</g>
</svg>
