<?xml version="1.0" standalone="no"?>
<!DOCTYPE svg PUBLIC "-//W3C//DTD SVG 20010904//EN"
 "http://www.w3.org/TR/2001/REC-SVG-20010904/DTD/svg10.dtd">
<svg version="1.0" xmlns="http://www.w3.org/2000/svg"
 width="2048.000000pt" height="2048.000000pt" viewBox="0 0 2048.000000 2048.000000"
 preserveAspectRatio="xMidYMid meet">
<metadata>
Created by potrace 1.13, written by Peter Selinger 2001-2015
</metadata>
<g transform="translate(0.000000,2048.000000) scale(0.192120,-0.192120)"
fill="#000000" stroke="none">
<path d="M1285 8929 c-151 -22 -320 -86 -455 -173 -85 -55 -214 -177 -281
-265 -105 -140 -186 -344 -208 -526 -15 -127 -15 -5143 0 -5270 29 -238 130
-452 295 -625 160 -168 337 -268 574 -327 55 -14 156 -17 675 -20 336 -2 651
-3 700 -1 l90 3 -50 30 c-27 16 -51 33 -53 37 -2 4 -12 8 -23 8 -10 0 -19 5
-19 10 0 7 -192 10 -587 8 -630 -3 -639 -3 -798 49 -166 54 -298 137 -426 269
-47 49 -100 110 -118 136 -46 69 -108 202 -131 283 -20 69 -20 101 -20 2781
l0 2712 21 68 c42 137 140 301 245 411 119 125 302 233 459 273 158 39 233 42
808 35 484 -7 547 -6 547 7 0 9 12 18 28 21 15 3 38 14 50 25 13 11 33 27 45
36 20 13 -42 15 -643 14 -366 0 -692 -4 -725 -9z M2830 5330 l0 -3610 3283 2
3282 3 98 27 c195 54 372 156 511 296 154 155 246 323 303 551 16 61 17 282
20 2686 4 2382 2 2629 -12 2719 -40 238 -141 436 -310 608 -137 138 -317 242
-512 296 l-98 27 -3282 3 -3283 2 0 -3610z m6618 3272 c240 -64 430 -209 525
-401 l42 -84 3 -2769 2 -2769 -28 -72 c-88 -227 -286 -397 -547 -470 l-80 -22
-3127 -3 -3128 -2 0 3310 0 3310 3128 -3 3127 -2 83 -23z M5975 7600 c-150
-21 -371 -108 -560 -221 -296 -176 -596 -465 -800 -770 -83 -124 -217 -398
-263 -540 -94 -283 -102 -344 -102 -735 0 -284 2 -334 20 -420 47 -227 110
-410 210 -609 130 -256 264 -446 450 -639 361 -372 796 -603 1305 -693 142
-25 548 -25 690 0 404 71 759 231 1075 483 114 92 289 270 387 396 158 203
303 467 379 693 34 99 38 123 42 241 4 129 4 131 -26 191 -33 64 -118 149
-160 160 -65 16 -175 -62 -307 -218 -190 -223 -340 -359 -501 -455 -529 -313
-1198 -295 -1714 47 -116 77 -317 274 -382 374 -110 168 -172 308 -214 479
-23 95 -24 117 -24 396 0 309 4 341 51 490 35 108 124 280 196 375 78 105 211
241 338 345 50 41 113 97 140 125 60 60 136 174 154 231 12 38 12 46 -10 88
-29 58 -115 141 -171 166 -55 23 -127 30 -203 20z m180 -257 c-323 -164 -593
-438 -764 -773 -300 -591 -254 -1286 121 -1837 77 -114 237 -288 346 -376 508
-413 1191 -518 1805 -277 391 153 742 472 928 843 22 43 42 77 44 75 3 -2 -7
-52 -20 -111 -69 -306 -218 -614 -418 -862 -87 -107 -284 -296 -387 -369 -458
-328 -989 -460 -1534 -381 -913 134 -1630 858 -1761 1780 -21 146 -21 426 0
570 123 844 728 1518 1558 1735 61 16 126 29 142 29 25 0 14 -8 -60 -46z
M7479 7462 c-57 -37 -140 -126 -170 -183 -22 -40 -24 -59 -27 -207 -3 -145 -6
-166 -23 -183 -11 -11 -19 -33 -19 -53 0 -31 -4 -35 -52 -55 -93 -39 -191
-108 -274 -193 -119 -122 -144 -183 -107 -259 44 -91 158 -205 246 -249 34
-16 114 -44 177 -62 l115 -33 11 -55 c6 -30 19 -95 28 -144 9 -49 32 -121 50
-160 52 -114 186 -246 248 -246 74 0 198 108 307 268 35 50 77 103 93 117 37
32 89 33 224 4 139 -29 238 -29 297 0 54 26 158 134 187 193 46 95 11 203
-121 378 -109 145 -119 161 -119 200 0 19 10 51 22 70 38 63 115 224 134 280
38 117 9 206 -96 303 -111 101 -166 107 -362 36 -256 -92 -242 -94 -381 43
-153 151 -250 218 -316 218 -15 0 -47 -13 -72 -28z m265 -430 l198 -229 286
124 c158 69 296 128 307 131 19 5 19 5 0 -24 -10 -16 -88 -143 -172 -282
l-154 -254 88 -101 c48 -55 145 -166 216 -245 70 -80 126 -147 124 -148 -3 -3
-569 127 -619 142 -16 5 -66 -73 -293 -461 -57 -96 -59 -98 -66 -70 -4 17 -18
162 -30 324 -22 273 -25 294 -44 302 -16 7 -443 105 -582 134 -29 6 -47 25
-24 25 7 0 581 238 588 244 0 0 -12 138 -28 306 -15 168 -28 316 -28 330 l0
25 18 -22 c10 -12 107 -125 215 -251z"/>
</g>
</svg>
