<?xml version="1.0" standalone="no"?>
<!DOCTYPE svg PUBLIC "-//W3C//DTD SVG 20010904//EN"
 "http://www.w3.org/TR/2001/REC-SVG-20010904/DTD/svg10.dtd">
<svg version="1.0" xmlns="http://www.w3.org/2000/svg"
 width="2048.000000pt" height="2048.000000pt" viewBox="0 0 2048.000000 2048.000000"
 preserveAspectRatio="xMidYMid meet">
<metadata>
Created by potrace 1.13, written by Peter Selinger 2001-2015
</metadata>
<g transform="translate(0.000000,2048.000000) scale(0.192120,-0.192120)"
fill="#000000" stroke="none">
<path d="M1247 8924 c-424 -77 -770 -394 -885 -813 l-27 -96 0 -2685 0 -2685
27 -96 c52 -191 152 -362 293 -503 136 -136 317 -240 512 -294 l98 -27 4065 0
4065 0 98 27 c422 117 734 449 818 873 21 105 21 5305 0 5410 -71 355 -298
646 -626 801 -52 25 -138 57 -192 72 l-98 27 -4035 2 c-3449 1 -4046 -1 -4113
-13z m4013 -223 l4085 -7 100 -22 c324 -73 568 -331 642 -680 14 -66 17 -186
22 -840 4 -518 9 -765 17 -770 5 -4 16 -23 24 -42 8 -19 33 -64 57 -100 l43
-65 -37 -7 c-21 -4 -1189 -7 -2597 -7 l-2558 -1 -2032 1236 c-1117 681 -2053
1252 -2080 1270 -33 22 -45 35 -35 38 25 9 122 13 194 8 39 -2 1908 -7 4155
-11z m-4661 -373 c47 -28 1068 -652 2268 -1385 l2183 -1333 2607 -1 c1435 -1
2618 -4 2631 -8 23 -6 22 -9 -42 -104 -106 -159 -105 -181 32 -383 l33 -49
-23 -7 c-13 -3 -1197 -6 -2631 -7 l-2608 -1 -2182 -1333 c-2353 -1438 -2352
-1437 -2361 -1437 -11 0 -6 62 16 186 28 162 23 181 -79 286 -48 48 -73 82
-70 92 3 8 930 569 2059 1246 1129 678 2053 1236 2053 1240 0 4 -924 562
-2053 1240 -1129 677 -2056 1239 -2059 1247 -4 9 19 40 64 86 39 40 75 81 81
92 21 44 22 95 2 206 -20 115 -25 179 -14 179 3 0 45 -23 93 -52z m1676 -1968
c902 -541 1650 -992 1663 -1003 12 -11 22 -26 22 -32 0 -17 -47 -57 -125 -107
-89 -57 -1339 -805 -1545 -925 -223 -129 -342 -200 -540 -323 -408 -253 -1108
-670 -1125 -670 -3 0 -5 421 -5 935 0 571 4 935 9 935 13 0 42 -43 75 -108 38
-75 136 -209 193 -263 101 -98 230 -175 356 -215 l57 -18 0 -77 c0 -43 5 -81
10 -84 6 -3 10 -14 10 -25 0 -61 144 -237 224 -274 138 -64 502 98 727 323
161 161 275 357 345 595 22 74 24 97 24 312 0 260 -3 282 -68 438 -70 166
-215 354 -363 469 -92 72 -267 159 -379 189 -121 32 -348 32 -465 0 -95 -26
-221 -85 -304 -141 -134 -92 -277 -251 -351 -393 -65 -124 -75 -141 -88 -146
-9 -3 -12 178 -12 798 0 441 3 799 8 797 4 -2 745 -446 1647 -987z m-467 -180
c308 -88 538 -314 612 -604 52 -204 29 -457 -60 -652 -92 -204 -259 -369 -488
-484 -89 -44 -276 -110 -312 -110 -22 0 -23 2 -16 61 3 34 6 117 6 184 l0 122
52 6 c70 9 164 41 214 75 194 129 306 342 307 582 0 108 -18 183 -66 273 -77
147 -258 258 -442 273 -287 24 -544 -211 -545 -498 0 -174 106 -334 273 -413
275 -131 562 7 657 314 15 46 19 51 24 33 10 -30 -2 -123 -25 -199 -45 -147
-190 -271 -370 -318 -193 -51 -478 41 -630 203 -62 66 -116 161 -140 247 -21
74 -18 292 4 375 79 288 326 505 632 554 66 10 241 -3 313 -24z m-449 -489
c27 -10 86 -43 133 -73 l84 -55 55 39 c65 47 188 108 218 108 39 0 21 -26 -61
-87 -46 -34 -95 -74 -110 -90 l-27 -28 84 -84 c47 -46 94 -104 106 -128 22
-45 38 -163 23 -163 -17 1 -87 48 -127 87 -22 21 -65 72 -95 113 -30 41 -58
79 -62 83 -4 5 -29 -22 -56 -60 -26 -37 -69 -90 -94 -117 -43 -47 -123 -106
-143 -106 -6 0 -8 27 -5 65 7 84 37 134 139 234 l79 78 -42 39 c-24 22 -73 61
-110 89 -96 69 -91 95 11 56z m8661 -951 l0 -30 -2452 -2 c-1349 -2 -2463 -1
-2475 1 -49 8 -12 46 52 54 17 2 1120 5 2453 6 l2422 1 0 -30z m-4960 -26 c0
-8 -5 -12 -10 -9 -6 4 -8 11 -5 16 9 14 15 11 15 -7z m5155 -226 c4 -4 -14
-40 -39 -80 -26 -40 -50 -85 -53 -100 -3 -16 -9 -28 -14 -28 -5 0 -9 -321 -9
-734 0 -683 -1 -742 -20 -848 -28 -170 -73 -276 -166 -399 -118 -155 -273
-252 -494 -307 -59 -14 -422 -17 -4145 -24 -4676 -10 -4316 -10 -4334 -3 -11
4 -9 10 10 23 13 9 942 578 2064 1264 l2040 1248 2577 -3 c1417 -1 2580 -5
2583 -9z"/>
</g>
</svg>
