<?xml version="1.0" standalone="no"?>
<!DOCTYPE svg PUBLIC "-//W3C//DTD SVG 20010904//EN"
 "http://www.w3.org/TR/2001/REC-SVG-20010904/DTD/svg10.dtd">
<svg version="1.0" xmlns="http://www.w3.org/2000/svg"
 width="2048.000000pt" height="2048.000000pt" viewBox="0 0 2048.000000 2048.000000"
 preserveAspectRatio="xMidYMid meet">
<metadata>
Created by potrace 1.13, written by Peter Selinger 2001-2015
</metadata>
<g transform="translate(0.000000,2048.000000) scale(0.192120,-0.192120)"
fill="#000000" stroke="none">
<path d="M1247 8924 c-399 -72 -737 -366 -862 -751 -58 -176 -55 -35 -55
-2838 0 -1657 4 -2605 10 -2650 25 -177 91 -345 189 -488 61 -88 184 -212 272
-274 91 -65 251 -139 366 -171 l98 -27 4065 0 4065 0 98 27 c422 117 734 449
818 873 21 105 21 5305 0 5410 -71 355 -298 646 -626 801 -52 25 -138 57 -192
72 l-98 27 -4035 2 c-3449 1 -4046 -1 -4113 -13z m4431 -151 c26 -15 50 -31
53 -36 3 -4 31 -11 62 -14 38 -4 57 -10 57 -19 0 -11 298 -14 1758 -17 1620
-2 1762 -4 1820 -20 234 -64 415 -184 524 -348 43 -65 102 -194 118 -259 8
-32 10 -783 8 -2700 l-3 -2655 -28 -95 c-91 -309 -287 -503 -595 -588 l-97
-27 -3975 -3 c-2837 -2 -3999 0 -4060 8 -109 14 -245 59 -339 113 -104 59
-225 176 -284 275 -64 108 -74 136 -103 269 l-24 115 0 1184 c0 783 -3 1184
-10 1184 -5 0 -10 9 -10 20 0 11 -4 20 -10 20 -5 0 -10 6 -10 13 0 6 -18 39
-40 72 l-40 60 2575 3 2575 2 0 1751 c0 1591 1 1749 16 1735 8 -9 36 -28 62
-43z m-2718 -5 c0 -5 18 -68 41 -139 l41 -129 154 -2 155 -3 -126 -89 c-97
-68 -125 -92 -120 -105 33 -83 92 -271 86 -271 -4 0 -59 38 -121 85 -62 47
-118 85 -123 85 -6 0 -62 -39 -124 -86 -63 -47 -117 -83 -120 -80 -4 4 52 185
84 273 2 6 -53 52 -123 102 l-127 91 156 0 156 0 46 145 c26 80 50 143 56 140
5 -4 9 -11 9 -17z m-543 -144 c3 -9 -6 -41 -20 -70 -15 -30 -27 -66 -27 -79 0
-32 34 -106 77 -167 30 -43 33 -55 33 -117 0 -39 4 -72 9 -75 5 -3 12 -21 15
-40 15 -80 146 -231 222 -256 30 -10 50 -9 128 10 l93 23 91 -22 c111 -28 138
-22 215 49 87 80 146 206 147 318 0 41 6 61 24 85 46 61 86 148 86 189 0 21
-10 61 -21 88 -38 88 -130 80 956 80 l965 0 0 -1570 0 -1570 -957 0 -958 1
-17 23 c-26 36 -39 107 -31 177 5 54 12 70 56 128 60 79 107 174 107 216 0 38
-30 87 -100 162 -70 75 -99 95 -182 122 -55 18 -76 32 -125 83 -193 200 -245
228 -329 172 -21 -14 -84 -70 -139 -124 -87 -86 -112 -104 -188 -139 -68 -31
-105 -57 -158 -108 -67 -64 -119 -139 -119 -171 0 -29 59 -139 109 -205 l51
-66 0 -83 c0 -95 -11 -143 -39 -170 -19 -17 -58 -18 -901 -18 l-880 0 2 1298
3 1297 43 86 c75 152 193 269 352 353 76 40 209 83 295 95 33 5 295 9 583 10
473 1 523 -1 529 -15z m594 -2381 l53 -173 192 -2 192 -3 -154 -109 c-85 -61
-154 -112 -154 -114 0 -2 27 -82 60 -179 33 -97 58 -178 56 -180 -2 -2 -71 46
-154 106 -82 61 -153 111 -156 111 -4 0 -73 -49 -155 -110 -82 -60 -151 -110
-154 -110 -3 0 21 80 54 177 32 98 58 181 57 185 -2 5 -72 57 -157 118 l-154
110 194 0 195 0 21 68 c84 267 97 302 103 290 4 -7 32 -91 61 -185z M4013
8196 c-23 -13 -72 -49 -110 -79 -37 -29 -96 -73 -131 -96 -139 -93 -242 -215
-242 -285 0 -33 25 -93 66 -158 19 -30 24 -51 24 -107 0 -49 4 -72 15 -81 8
-7 15 -21 15 -31 0 -11 11 -36 24 -57 30 -46 40 -78 27 -87 -6 -3 -48 13 -93
36 -100 50 -133 49 -228 -6 -87 -50 -257 -222 -289 -292 l-24 -52 27 -75 c14
-41 26 -84 26 -96 0 -39 70 -156 131 -220 83 -85 119 -100 247 -100 127 0 154
10 232 89 62 61 140 200 140 248 0 12 9 47 21 77 11 31 21 69 21 85 1 27 -33
92 -103 199 -24 37 -25 37 31 17 54 -19 93 -19 170 1 57 14 68 14 126 0 93
-24 133 -21 186 13 57 36 131 128 153 190 9 25 20 55 25 66 5 11 12 47 15 80
4 38 17 76 34 105 74 122 80 155 44 226 -32 65 -108 139 -211 207 -40 26 -107
76 -150 111 -83 68 -130 96 -159 96 -10 0 -37 -11 -60 -24z m102 -273 c20 -65
38 -126 41 -135 5 -16 21 -18 150 -18 91 0 143 -4 139 -10 -3 -5 -55 -44 -115
-86 -61 -42 -110 -78 -110 -78 0 -1 20 -62 45 -136 25 -73 43 -135 42 -137 -2
-2 -55 35 -117 82 -62 47 -114 85 -115 85 -1 0 -53 -38 -116 -85 -62 -47 -115
-82 -117 -77 -1 5 18 66 43 137 25 70 45 128 45 129 0 1 -52 38 -115 82 -63
43 -114 82 -115 87 0 4 64 7 143 7 l143 0 42 135 c23 74 44 135 46 135 2 0 21
-53 41 -117z m-583 -908 l24 -80 98 -5 98 -5 -76 -53 c-42 -29 -76 -56 -76
-61 0 -4 13 -46 29 -94 17 -48 28 -87 25 -87 -3 0 -38 25 -78 55 -40 30 -76
55 -80 55 -4 0 -40 -25 -79 -55 -39 -30 -72 -53 -74 -51 -3 2 10 43 27 92 17
48 27 90 23 94 -4 4 -39 29 -78 56 l-70 49 96 3 96 3 28 90 c15 50 31 87 35
82 5 -4 19 -44 32 -88z M1784 8046 c-23 -13 -77 -53 -120 -88 -44 -36 -111
-85 -149 -110 -178 -114 -275 -248 -236 -326 41 -82 57 -110 71 -129 11 -14
20 -52 24 -102 4 -45 12 -83 17 -86 5 -4 9 -14 9 -24 0 -46 89 -174 158 -227
60 -46 94 -50 200 -25 l89 21 74 -20 c41 -11 88 -20 105 -20 65 0 172 98 229
211 16 30 28 80 36 141 8 72 16 100 36 126 34 45 83 156 83 187 0 66 -120 199
-247 274 -39 23 -107 74 -150 112 -75 66 -143 109 -174 109 -8 0 -33 -11 -55
-24z m309 -446 l158 -5 -126 -88 c-69 -48 -125 -92 -125 -96 0 -5 20 -68 45
-140 25 -72 45 -136 45 -141 0 -5 -51 27 -112 73 -62 46 -119 87 -126 91 -8 5
-56 -24 -134 -83 -67 -50 -123 -89 -125 -88 -1 2 19 69 46 149 l49 145 -127
89 -126 89 158 3 c86 1 157 4 157 6 0 6 79 259 86 276 4 9 26 -46 53 -130 l47
-145 157 -5z"/>
</g>
</svg>
