<?xml version="1.0" standalone="no"?>
<!DOCTYPE svg PUBLIC "-//W3C//DTD SVG 20010904//EN"
 "http://www.w3.org/TR/2001/REC-SVG-20010904/DTD/svg10.dtd">
<svg version="1.0" xmlns="http://www.w3.org/2000/svg"
 width="2048.000000pt" height="2048.000000pt" viewBox="0 0 2048.000000 2048.000000"
 preserveAspectRatio="xMidYMid meet">
<metadata>
Created by potrace 1.13, written by Peter Selinger 2001-2015
</metadata>
<g transform="translate(0.000000,2048.000000) scale(0.192120,-0.192120)"
fill="#000000" stroke="none">
<path d="M1320 10324 c-273 -42 -463 -131 -640 -301 -176 -167 -284 -364 -332
-603 -19 -96 -19 -8084 0 -8180 80 -398 361 -723 733 -849 180 -60 -136 -56
4249 -56 3399 0 4036 2 4095 14 398 79 726 367 848 746 55 171 52 -100 52
4235 0 4335 3 4064 -52 4235 -51 157 -132 292 -250 415 -160 169 -333 267
-572 328 -61 15 -367 16 -4086 18 -2211 1 -4031 0 -4045 -2z m8089 -287 c294
-72 494 -221 609 -457 l37 -75 0 -4165 0 -4165 -28 -69 c-120 -296 -384 -481
-736 -516 -74 -8 -1306 -10 -4041 -8 -3625 4 -3940 5 -4000 20 -334 86 -563
284 -649 562 l-21 68 0 4104 0 4105 21 62 c63 189 239 375 443 467 83 38 192
68 287 79 41 5 1846 8 4039 7 3772 -1 3969 -2 4039 -19z M3235 8683 c-253 -54
-499 -250 -627 -498 -60 -117 -68 -160 -68 -370 0 -199 3 -216 60 -380 32 -91
1853 -4724 1896 -4825 112 -258 296 -480 473 -569 120 -61 191 -76 361 -76
135 0 165 3 230 23 122 38 205 88 302 181 102 96 181 209 255 361 28 58 452
1124 941 2370 1018 2589 980 2493 1021 2625 30 96 31 104 31 292 0 169 -3 201
-21 255 -102 304 -372 551 -671 612 -274 56 -524 -27 -734 -245 -95 -99 -143
-166 -202 -279 -31 -60 -236 -595 -561 -1470 -282 -756 -523 -1397 -536 -1425
-13 -27 -31 -59 -40 -70 -16 -20 -17 -20 -44 12 -34 40 0 -48 -587 1528 -267
715 -505 1342 -529 1394 -108 228 -271 403 -460 497 -49 24 -121 51 -160 59
-89 19 -239 18 -330 -2z m298 -238 c172 -36 311 -146 420 -330 22 -37 281
-719 665 -1750 347 -929 647 -1738 668 -1797 21 -60 41 -108 45 -108 4 0 15
24 25 53 24 75 107 299 744 2007 393 1053 585 1557 613 1605 59 102 194 234
280 274 244 116 540 58 742 -144 87 -86 132 -162 160 -270 22 -85 20 -253 -4
-346 -16 -61 -1767 -4535 -1931 -4932 -130 -315 -276 -443 -542 -479 -68 -9
-109 -9 -178 0 -255 34 -406 164 -530 456 -123 290 -1934 4919 -1945 4974 -19
89 -19 253 0 327 28 108 73 184 160 270 164 165 392 236 608 190z"/>
</g>
</svg>
