<?xml version="1.0" standalone="no"?>
<!DOCTYPE svg PUBLIC "-//W3C//DTD SVG 20010904//EN"
 "http://www.w3.org/TR/2001/REC-SVG-20010904/DTD/svg10.dtd">
<svg version="1.0" xmlns="http://www.w3.org/2000/svg"
 width="2048.000000pt" height="2048.000000pt" viewBox="0 0 2048.000000 2048.000000"
 preserveAspectRatio="xMidYMid meet">
<metadata>
Created by potrace 1.13, written by Peter Selinger 2001-2015
</metadata>
<g transform="translate(0.000000,2048.000000) scale(0.192120,-0.192120)"
fill="#000000" stroke="none">
<path d="M1247 8924 c-348 -63 -652 -295 -807 -615 -48 -99 -73 -181 -95 -303
-12 -73 -15 -193 -15 -687 l0 -599 5001 0 5000 0 -4 638 c-3 544 -6 647 -20
703 -55 224 -149 396 -302 551 -137 138 -317 242 -512 296 l-98 27 -4035 2
c-3449 1 -4046 -1 -4113 -13z m8158 -286 c191 -45 330 -119 453 -240 71 -71
115 -134 158 -228 l29 -65 3 -567 2 -568 -4730 0 -4730 0 0 538 c0 583 -1 572
58 688 125 247 389 421 689 453 43 5 1860 8 4038 7 3634 -2 3966 -3 4030 -18z
M10304 6543 c-10 -21 -22 -39 -26 -41 -5 -2 -8 -12 -8 -23 0 -10 -5 -19 -10
-19 -7 0 -10 -363 -8 -1127 l3 -1128 28 -52 c15 -29 32 -55 37 -58 7 -4 10
440 10 1239 0 685 -2 1246 -3 1246 -2 0 -12 -17 -23 -37z M330 5329 c0 -676 4
-1228 8 -1225 5 3 17 23 28 45 10 23 22 41 27 41 4 0 7 511 7 1135 0 750 -3
1135 -10 1135 -5 0 -10 5 -10 12 0 18 -33 88 -42 88 -4 0 -8 -554 -8 -1231z
M5137 6425 c-429 -81 -770 -398 -884 -820 -24 -90 -27 -117 -27 -275 0 -158 3
-185 27 -275 50 -185 161 -378 292 -510 132 -131 325 -242 510 -292 90 -24
117 -27 275 -27 158 0 185 3 275 27 185 50 378 161 510 292 131 132 242 325
292 510 24 90 27 117 27 275 0 158 -3 185 -27 275 -49 183 -158 374 -289 508
-129 130 -330 245 -513 293 -127 33 -346 42 -468 19z m438 -295 c237 -64 440
-222 537 -416 l43 -87 3 -281 3 -281 -26 -68 c-91 -231 -286 -402 -552 -484
-80 -24 -102 -27 -253 -27 -151 0 -173 3 -255 28 -280 84 -476 260 -574 516
-23 60 -25 81 -29 272 -4 238 2 278 58 393 111 227 346 398 618 450 110 21
322 13 427 -15z M330 3348 c0 -339 5 -623 10 -663 25 -177 91 -345 189 -488
61 -88 184 -212 272 -274 91 -65 251 -139 366 -171 l98 -27 4065 0 4065 0 98
27 c413 114 710 423 814 847 14 56 17 159 20 704 l4 637 -5000 0 -5001 0 0
-592z m9710 -225 l0 -528 -24 -68 c-93 -263 -317 -449 -616 -514 -82 -17 -248
-18 -4065 -18 -4315 0 -4042 -3 -4205 54 -206 73 -370 212 -461 392 -70 139
-69 134 -69 701 l0 508 4720 0 4720 0 0 -527z"/>
</g>
</svg>
