<?xml version="1.0" standalone="no"?>
<!DOCTYPE svg PUBLIC "-//W3C//DTD SVG 20010904//EN"
 "http://www.w3.org/TR/2001/REC-SVG-20010904/DTD/svg10.dtd">
<svg version="1.0" xmlns="http://www.w3.org/2000/svg"
 width="2048.000000pt" height="2048.000000pt" viewBox="0 0 2048.000000 2048.000000"
 preserveAspectRatio="xMidYMid meet">
<metadata>
Created by potrace 1.13, written by Peter Selinger 2001-2015
</metadata>
<g transform="translate(0.000000,2048.000000) scale(0.192120,-0.192120)"
fill="#000000" stroke="none">
<path d="M1247 8924 c-399 -72 -737 -366 -862 -751 -52 -157 -55 -210 -55
-855 l0 -598 2387 0 2387 0 -75 -73 c-41 -39 -92 -88 -114 -109 -22 -20 -58
-58 -81 -84 -22 -27 -68 -65 -102 -84 -61 -35 -79 -60 -43 -60 18 0 150 59
183 82 14 10 20 10 30 0 11 -11 9 -15 -7 -24 -19 -11 -32 -24 -88 -86 -21 -24
-37 -32 -62 -32 -59 0 -83 -17 -145 -102 -67 -92 -68 -119 -1 -75 51 34 84 35
99 3 13 -30 0 -43 -78 -76 -80 -33 -106 -55 -131 -110 -20 -43 -28 -51 -77
-71 -100 -41 -309 -189 -296 -210 10 -16 83 -10 185 17 54 14 108 23 118 19
11 -3 34 -31 51 -61 l30 -54 -54 -75 c-61 -81 -72 -90 -131 -100 -22 -3 -51
-8 -65 -11 -15 -3 -73 -54 -140 -122 -63 -64 -130 -125 -149 -135 -28 -14 -31
-20 -21 -32 10 -12 27 -14 84 -9 61 6 81 13 139 50 99 62 118 64 170 18 23
-21 44 -42 46 -47 2 -5 -24 -36 -58 -68 -45 -42 -92 -74 -169 -111 -106 -52
-108 -54 -179 -148 -75 -99 -87 -108 -140 -109 -42 -1 -49 -15 -18 -39 28 -22
160 -39 214 -27 16 3 64 37 108 76 85 76 206 144 276 154 52 8 127 -10 127
-30 0 -24 -58 -82 -123 -122 -76 -47 -123 -68 -204 -88 -34 -8 -84 -25 -110
-37 -26 -11 -75 -28 -108 -37 -80 -22 -83 -40 -13 -80 29 -17 62 -31 72 -31
10 0 76 24 145 54 168 71 253 98 284 91 25 -7 149 47 250 107 l37 23 48 -26
c74 -41 126 -142 108 -213 -3 -13 -39 -66 -79 -118 -41 -51 -86 -112 -101
-136 -15 -23 -39 -47 -53 -53 -51 -19 -173 -83 -200 -104 -15 -13 -23 -27 -19
-33 13 -22 67 -13 105 17 54 42 96 61 136 61 43 0 67 12 119 57 53 48 111 73
172 73 33 0 56 5 64 15 17 21 45 19 90 -7 36 -21 42 -22 72 -9 18 8 49 14 68
15 28 1 37 -4 47 -24 6 -14 22 -35 35 -47 30 -27 209 -133 226 -133 25 0 24
30 -3 61 -14 18 -25 41 -23 53 3 18 11 22 51 24 65 4 150 -25 321 -109 l139
-69 -2882 0 -2881 0 0 -592 c0 -339 5 -623 10 -663 25 -177 91 -345 189 -488
61 -88 184 -212 272 -274 91 -65 251 -139 366 -171 l98 -27 4065 0 4065 0 98
27 c413 114 710 423 814 847 14 56 17 159 20 704 l4 637 -2095 0 c-2066 0
-2094 0 -2089 19 4 16 -7 26 -49 50 -30 17 -64 42 -75 55 -12 13 -35 27 -52
31 -20 4 -37 17 -46 36 -18 34 -43 49 -82 49 -57 0 -96 40 -157 160 -84 163
-89 317 -13 398 50 54 103 65 152 31 65 -44 127 -70 180 -74 29 -2 67 -11 84
-20 55 -28 112 -30 185 -5 63 21 74 21 164 11 82 -10 106 -17 153 -46 84 -51
215 -79 260 -54 28 14 14 29 -69 75 -37 20 -84 52 -105 70 -26 24 -47 34 -70
34 -37 0 -125 39 -146 64 -35 42 -74 60 -136 62 -61 2 -106 19 -104 39 0 5 22
39 48 75 57 78 86 87 156 46 30 -18 58 -26 92 -26 26 0 68 -9 92 -20 54 -25
92 -25 122 -1 l23 18 -44 29 c-24 16 -58 44 -76 63 -27 28 -44 36 -90 42 -50
7 -62 13 -117 67 -90 86 -113 95 -228 93 -84 -1 -99 1 -122 20 -49 38 -25 55
53 38 47 -10 54 -9 114 20 63 31 64 31 124 17 64 -15 91 -11 160 20 60 27 52
47 -23 58 -33 5 -94 9 -135 10 -67 1 -83 6 -145 40 -65 35 -75 38 -137 34 -74
-4 -81 3 -57 55 17 37 49 48 96 32 56 -19 348 -23 348 -5 0 20 -82 57 -155 70
-96 17 -98 18 -121 59 -29 52 -68 72 -161 82 -90 10 -100 15 -182 75 -32 25
-70 47 -85 50 -46 10 -69 22 -81 44 -9 17 -7 24 14 45 31 31 87 33 134 5 37
-23 71 -25 118 -8 24 8 45 9 78 1 60 -13 73 -3 39 29 -40 37 -80 55 -153 68
-38 6 -81 22 -102 37 -34 23 -41 24 -67 13 -17 -6 -35 -9 -40 -5 -23 14 -9 34
34 50 38 15 51 16 89 5 47 -13 98 -7 115 14 15 18 -4 33 -61 45 -79 18 -153
50 -225 97 -67 44 -69 45 -143 42 -74 -3 -77 -2 -165 47 -60 34 -113 74 -164
125 l-75 75 2607 3 2608 2 -4 638 c-3 544 -6 647 -20 703 -55 224 -149 396
-302 551 -137 138 -317 242 -512 296 l-98 27 -4035 2 c-3449 1 -4046 -1 -4113
-13z m8168 -290 c189 -44 322 -118 450 -248 82 -83 130 -158 165 -262 19 -54
20 -87 20 -601 l0 -543 -2207 0 c-1215 -1 -2293 -5 -2398 -9 -171 -7 -196 -11
-256 -35 -36 -14 -72 -26 -81 -26 -8 0 -43 11 -77 25 -48 20 -92 28 -189 35
-72 5 -1025 10 -2190 10 l-2063 0 3 548 3 547 34 79 c117 270 403 466 726 495
50 5 1863 8 4030 7 l3940 -1 90 -21z m-4028 -2454 c27 -16 31 -23 24 -42 -7
-18 -16 -23 -47 -23 -32 0 -41 5 -57 32 -10 18 -16 37 -12 43 10 16 57 11 92
-10z m-530 -37 c3 -7 -14 -21 -37 -33 -33 -17 -45 -19 -56 -9 -17 14 -18 45
-1 53 22 9 90 1 94 -11z m359 -7 c7 -30 -1 -46 -24 -46 -9 0 -48 -14 -85 -30
l-68 -29 -11 25 c-17 38 -1 56 73 81 85 30 107 29 115 -1z m322 -14 c4 -28
-24 -40 -45 -19 -21 21 -9 49 19 45 15 -2 24 -11 26 -26z m-574 -84 c23 -32
21 -38 -28 -90 -31 -34 -52 -48 -70 -48 -22 0 -26 4 -26 30 0 43 23 84 62 109
41 26 43 26 62 -1z m453 -120 l45 -23 -4 -52 c-3 -29 -7 -55 -10 -58 -5 -5
-68 13 -80 24 -4 3 -11 32 -16 63 -8 53 -6 63 17 67 2 1 24 -9 48 -21z m-147
-62 c0 -33 -2 -35 -56 -51 -73 -21 -89 -17 -89 20 0 26 6 32 45 47 25 9 57 17
73 17 24 1 27 -2 27 -33z m409 -26 c51 -14 96 -52 88 -74 -6 -16 -20 -17 -121
-14 -63 1 -117 6 -120 9 -3 3 -1 21 5 40 6 19 13 40 15 48 5 15 61 11 133 -9z
m-818 -66 c29 -35 -52 -122 -88 -93 -8 7 -21 25 -28 40 -13 23 -12 28 3 42 32
28 93 34 113 11z m-177 -96 c45 -52 36 -65 -52 -74 -68 -7 -83 -1 -109 49 -19
38 -8 50 60 58 28 3 55 7 59 8 3 0 23 -18 42 -41z m1214 -44 c24 -5 32 -12 32
-28 0 -44 -13 -50 -72 -34 -49 13 -53 17 -56 47 -4 37 -7 36 96 15z m-143 -19
c0 -13 -8 -21 -24 -23 -28 -4 -46 11 -37 33 9 25 61 16 61 -10z m-580 -118
c13 -10 16 -21 11 -41 -6 -24 -11 -27 -39 -24 -27 3 -33 8 -35 32 -5 42 27 59
63 33z m-123 -23 c14 -31 -4 -49 -34 -33 -21 11 -24 45 -5 52 22 10 27 7 39
-19z m266 -31 c4 -28 -15 -73 -32 -73 -7 0 -24 8 -36 18 -24 20 -22 49 6 77
19 18 58 5 62 -22z m-358 -8 c0 -21 -41 -55 -67 -55 -24 0 -46 29 -35 47 4 7
20 19 36 27 32 16 66 7 66 -19z m472 -12 c23 -28 28 -50 14 -69 -12 -15 -17
-16 -45 -5 -31 13 -36 27 -25 69 7 26 35 29 56 5z m-718 -152 c10 -16 -39 -65
-90 -90 -29 -15 -76 -27 -123 -31 -67 -7 -78 -6 -103 13 -35 26 -33 45 11 74
28 19 48 23 110 24 42 0 94 4 116 8 56 12 73 12 79 2z m1254 -80 c11 -7 11
-18 -2 -65 -8 -32 -16 -60 -18 -62 -2 -2 -50 -1 -107 3 l-102 6 3 46 3 45 75
17 c85 19 129 22 148 10z m-771 -30 c48 -16 118 -32 156 -36 58 -6 73 -4 102
14 28 16 35 17 35 6 0 -8 5 -15 10 -15 6 0 10 -5 10 -11 0 -6 11 -33 25 -61
39 -78 35 -95 -46 -190 -27 -31 -63 -85 -79 -120 -26 -55 -30 -74 -30 -149 0
-79 -2 -87 -25 -107 -14 -12 -25 -26 -25 -31 0 -17 -112 1 -131 20 -10 10 -43
66 -74 124 -58 110 -66 150 -40 195 37 65 9 175 -69 269 -46 55 -56 89 -31
108 31 22 117 15 212 -16z m1006 -12 c44 -12 46 -23 12 -87 -45 -86 -45 -86
-106 -62 -80 32 -83 37 -58 98 21 51 30 58 89 61 14 0 42 -4 63 -10z m-1371
-181 c30 -9 44 -21 59 -49 39 -77 16 -118 -47 -84 -26 14 -34 25 -34 45 0 15
-9 39 -20 53 -37 47 -26 56 42 35z m1328 -1271 l65 -22 1913 -3 1913 -3 -3
-547 -3 -547 -27 -63 c-100 -233 -275 -392 -518 -470 -152 -49 51 -47 -4180
-47 l-3975 0 -97 22 c-311 69 -547 273 -633 546 l-25 78 0 514 0 514 1913 4
c1620 3 1921 6 1971 18 50 12 78 12 195 1 98 -9 237 -11 501 -7 436 7 395 6
578 5 101 -1 164 3 202 13 79 21 136 20 210 -6z M10302 6536 c-12 -24 -22 -51
-22 -60 0 -9 -4 -16 -10 -16 -7 0 -10 -387 -10 -1140 0 -688 4 -1140 9 -1140
5 0 12 -13 16 -30 4 -16 10 -30 14 -30 4 0 13 -10 19 -22 8 -17 11 321 11
1230 1 688 0 1252 -2 1252 -2 0 -13 -20 -25 -44z M330 5324 c0 -679 4 -1233 8
-1230 5 3 17 23 28 45 10 23 22 41 27 41 4 0 7 513 7 1140 0 753 -3 1140 -10
1140 -5 0 -10 5 -10 12 0 17 -34 87 -42 88 -5 0 -8 -556 -8 -1236z"/>
</g>
</svg>
