<?xml version="1.0" standalone="no"?>
<!DOCTYPE svg PUBLIC "-//W3C//DTD SVG 20010904//EN"
 "http://www.w3.org/TR/2001/REC-SVG-20010904/DTD/svg10.dtd">
<svg version="1.0" xmlns="http://www.w3.org/2000/svg"
 width="2048.000000pt" height="2048.000000pt" viewBox="0 0 2048.000000 2048.000000"
 preserveAspectRatio="xMidYMid meet">
<metadata>
Created by potrace 1.13, written by Peter Selinger 2001-2015
</metadata>
<g transform="translate(0.000000,2048.000000) scale(0.192120,-0.192120)"
fill="#000000" stroke="none">
<path d="M1247 8924 c-348 -63 -652 -295 -807 -615 -48 -99 -73 -181 -95 -303
-13 -78 -15 -390 -15 -2670 0 -1658 4 -2606 10 -2651 25 -177 91 -345 189
-488 61 -88 184 -212 272 -274 91 -65 251 -139 366 -171 l98 -27 4065 0 4065
0 98 27 c422 117 734 449 818 873 21 105 21 5305 0 5410 -71 355 -298 646
-626 801 -52 25 -138 57 -192 72 l-98 27 -4035 2 c-3449 1 -4046 -1 -4113 -13z
m8155 -247 c235 -59 410 -178 538 -368 54 -78 86 -150 118 -258 23 -80 25
-104 29 -358 3 -153 9 -273 14 -273 5 0 9 -20 9 -45 0 -25 4 -45 9 -45 5 0 12
-11 15 -25 4 -14 11 -25 16 -25 6 0 10 -5 10 -11 0 -6 20 -40 45 -75 l44 -64
-4919 0 -4919 0 55 87 c30 47 54 92 54 100 0 7 5 13 10 13 6 0 10 20 10 45 0
25 5 45 10 45 6 0 10 85 10 234 0 305 20 421 97 566 148 277 392 439 713 473
19 2 1819 3 4000 3 3686 -2 3970 -3 4032 -19z m628 -2437 l0 -670 -4710 0
-4710 0 0 670 0 670 4710 0 4710 0 0 -670z m264 -922 c-4 -7 -34 -51 -66 -97
-32 -46 -58 -90 -58 -97 0 -7 -6 -14 -12 -16 -19 -7 -19 -1377 0 -1398 7 -8
37 -52 67 -97 51 -77 53 -81 32 -87 -29 -8 -9841 -8 -9861 0 -13 5 -11 12 12
47 15 23 32 47 37 53 6 6 22 33 35 60 14 27 28 51 33 52 10 5 9 1332 -2 1332
-5 0 -11 14 -15 32 -3 17 -32 70 -64 117 -32 47 -62 92 -66 99 -6 9 990 12
4964 12 3974 0 4970 -3 4964 -12z m-254 -2382 c0 -336 -1 -346 -24 -414 -13
-39 -45 -105 -72 -148 -133 -211 -355 -343 -629 -374 -73 -8 -1174 -10 -4055
-8 l-3955 3 -84 23 c-294 79 -510 270 -599 530 -21 59 -22 80 -22 397 l0 335
4720 0 4720 0 0 -344z"/>
</g>
</svg>
