<?xml version="1.0" standalone="no"?>
<!DOCTYPE svg PUBLIC "-//W3C//DTD SVG 20010904//EN"
 "http://www.w3.org/TR/2001/REC-SVG-20010904/DTD/svg10.dtd">
<svg version="1.0" xmlns="http://www.w3.org/2000/svg"
 width="2048.000000pt" height="2048.000000pt" viewBox="0 0 2048.000000 2048.000000"
 preserveAspectRatio="xMidYMid meet">
<metadata>
Created by potrace 1.13, written by Peter Selinger 2001-2015
</metadata>
<g transform="translate(0.000000,2048.000000) scale(0.192120,-0.192120)"
fill="#000000" stroke="none">
<path d="M1320 10324 c-273 -42 -463 -131 -640 -301 -176 -167 -284 -364 -332
-603 -19 -96 -19 -8084 0 -8180 80 -398 361 -723 733 -849 180 -60 -136 -56
4249 -56 3399 0 4036 2 4095 14 398 79 726 367 848 746 55 171 52 -100 52
4235 0 4335 3 4064 -52 4235 -51 157 -132 292 -250 415 -160 169 -333 267
-572 328 -61 15 -367 16 -4086 18 -2211 1 -4031 0 -4045 -2z m8089 -287 c294
-72 494 -221 609 -457 l37 -75 0 -4165 0 -4165 -28 -69 c-120 -296 -384 -481
-736 -516 -74 -8 -1306 -10 -4041 -8 -3625 4 -3940 5 -4000 20 -334 86 -563
284 -649 562 l-21 68 0 4104 0 4105 21 62 c63 189 239 375 443 467 83 38 192
68 287 79 41 5 1846 8 4039 7 3772 -1 3969 -2 4039 -19z M3560 8686 c-214 -48
-391 -170 -542 -376 -37 -52 -103 -187 -122 -252 -15 -51 -16 -288 -16 -2730
0 -2270 2 -2680 14 -2719 45 -147 146 -308 265 -421 173 -166 372 -238 619
-225 127 7 227 33 332 87 240 125 423 390 475 687 13 74 15 209 15 860 0 679
2 773 15 787 9 8 22 13 30 10 8 -3 446 -472 974 -1042 527 -571 992 -1066
1032 -1102 173 -155 306 -233 459 -271 165 -42 406 -12 568 70 183 92 339 274
425 495 31 80 32 83 32 266 0 169 -2 191 -23 250 -62 171 -162 329 -317 500
-38 41 -457 480 -931 975 -474 495 -876 917 -893 939 -59 74 -106 20 695 807
679 668 848 842 951 979 69 92 129 200 172 308 l41 102 0 175 c0 193 -8 229
-76 367 -38 75 -136 202 -209 269 -155 143 -342 219 -543 219 -222 0 -416 -88
-616 -280 -49 -47 -433 -452 -854 -900 -420 -448 -788 -839 -817 -867 -59 -59
-85 -67 -85 -28 0 15 -5 24 -12 23 -10 -2 -14 134 -19 642 -6 709 -5 701 -71
864 -86 215 -277 409 -482 490 -37 15 -98 34 -135 42 -80 17 -275 17 -351 0z
m365 -251 c210 -56 368 -209 431 -420 17 -55 19 -136 24 -1055 l5 -996 69 76
c387 419 2064 2200 2119 2248 265 234 637 224 882 -22 120 -121 175 -253 175
-424 0 -139 -44 -256 -146 -391 -92 -121 -264 -296 -1053 -1071 l-850 -835
143 -145 c78 -80 506 -525 951 -990 445 -465 862 -900 927 -968 250 -260 331
-413 331 -627 1 -171 -46 -289 -157 -401 -109 -110 -235 -165 -425 -186 -91
-9 -117 -9 -185 5 -144 30 -249 92 -400 236 -63 61 -1800 1932 -2271 2446 -60
66 -112 121 -115 122 -3 2 -5 -516 -5 -1150 0 -1287 5 -1192 -71 -1337 -143
-274 -495 -397 -814 -286 -196 68 -339 222 -385 417 -13 56 -15 371 -15 2649
0 2868 -5 2641 67 2790 48 98 159 211 258 262 64 33 144 59 220 72 54 8 229
-3 290 -19z"/>
</g>
</svg>
