<?xml version="1.0" standalone="no"?>
<!DOCTYPE svg PUBLIC "-//W3C//DTD SVG 20010904//EN"
 "http://www.w3.org/TR/2001/REC-SVG-20010904/DTD/svg10.dtd">
<svg version="1.0" xmlns="http://www.w3.org/2000/svg"
 width="2048.000000pt" height="2048.000000pt" viewBox="0 0 2048.000000 2048.000000"
 preserveAspectRatio="xMidYMid meet">
<metadata>
Created by potrace 1.13, written by Peter Selinger 2001-2015
</metadata>
<g transform="translate(0.000000,2048.000000) scale(0.192120,-0.192120)"
fill="#000000" stroke="none">
<path d="M1247 8924 c-399 -72 -737 -366 -862 -751 -58 -176 -55 -35 -55
-2838 0 -1657 4 -2605 10 -2650 25 -177 91 -345 189 -488 61 -88 184 -212 272
-274 91 -65 251 -139 366 -171 l98 -27 4065 0 4065 0 98 27 c422 117 734 449
818 873 21 105 21 5305 0 5410 -71 355 -298 646 -626 801 -52 25 -138 57 -192
72 l-98 27 -4035 2 c-3449 1 -4046 -1 -4113 -13z m8023 -284 c252 -21 432
-100 590 -260 73 -74 122 -150 156 -246 23 -62 24 -76 24 -324 l0 -260 -4721
0 -4720 0 3 263 3 262 33 77 c117 272 396 457 732 488 128 11 7762 12 7900 0z
m909 -1290 c-12 -22 -25 -42 -29 -45 -5 -3 -11 -23 -15 -45 -4 -22 -11 -40
-16 -40 -5 0 -9 -762 -9 -1900 0 -1260 3 -1900 10 -1900 6 0 10 -6 10 -12 0
-14 20 -54 51 -105 l21 -33 -4871 0 -4870 0 39 75 40 76 0 1890 c0 1914 -1
1957 -35 1999 -7 8 -20 30 -29 48 l-17 32 4871 0 4870 0 -21 -40z m-141 -4522
l-4 -263 -30 -70 c-127 -297 -382 -466 -747 -495 -92 -8 -1320 -10 -4027 -8
-3548 4 -3901 5 -3965 20 -318 74 -536 254 -638 528 -18 49 -21 83 -25 303
l-4 247 4722 0 4721 0 -3 -262z M5207 7256 c-93 -39 -169 -101 -223 -182 -19
-28 -34 -54 -34 -57 0 -3 -13 -28 -28 -54 -65 -110 -191 -496 -192 -587 -1
-44 -22 -117 -42 -149 -10 -14 -18 -29 -18 -32 0 -3 -20 -35 -45 -71 -25 -35
-45 -66 -45 -69 0 -2 -12 -17 -27 -32 -24 -24 -37 -28 -99 -31 -131 -7 -170
31 -223 221 -53 192 -155 359 -284 465 -111 91 -167 100 -257 42 -54 -35 -185
-169 -215 -221 -64 -113 -87 -159 -120 -251 -46 -127 -62 -155 -143 -243 -78
-85 -152 -187 -152 -208 0 -9 -5 -19 -11 -23 -8 -5 -9 -124 -4 -438 l7 -432
-42 -44 c-61 -64 -120 -139 -120 -155 0 -7 -11 -23 -25 -36 -13 -13 -25 -29
-25 -35 0 -6 -9 -19 -20 -29 -11 -10 -20 -24 -20 -32 0 -12 -32 -65 -50 -83
-13 -13 -30 -52 -30 -68 0 -11 -9 -27 -20 -37 -11 -10 -20 -27 -20 -38 0 -11
-14 -36 -30 -56 -49 -58 -50 -59 -50 -76 0 -8 -4 -15 -10 -15 -5 0 -10 -11
-10 -23 0 -13 -9 -32 -20 -42 -11 -10 -20 -29 -20 -43 0 -13 -13 -40 -30 -59
-16 -18 -30 -40 -30 -48 0 -7 -5 -15 -12 -17 -17 -6 -24 -197 -8 -252 9 -33
31 -62 96 -125 48 -47 104 -91 131 -104 l48 -22 2585 0 2585 0 45 21 c54 25
159 120 202 182 29 42 31 52 36 156 4 105 3 115 -21 161 -13 28 -34 59 -46 69
-12 11 -21 31 -21 46 0 15 -7 33 -15 40 -8 7 -15 21 -15 31 0 19 -15 51 -35
75 -5 7 -23 31 -39 53 -17 23 -33 41 -38 41 -4 0 -8 14 -8 30 0 18 -6 33 -15
36 -8 4 -15 17 -15 30 0 13 -4 24 -10 24 -5 0 -10 9 -10 19 0 11 -3 21 -8 23
-16 7 -82 96 -82 110 0 9 -6 18 -14 21 -7 3 -23 25 -35 49 -49 97 -86 145
-168 221 l-33 30 0 186 c0 145 3 192 15 215 21 40 22 399 1 442 -8 16 -21 45
-31 65 -9 21 -63 89 -119 152 -74 83 -108 129 -123 168 -11 30 -37 98 -58 151
-33 89 -88 185 -147 262 -72 93 -196 186 -248 186 -46 0 -127 -47 -200 -116
-86 -81 -139 -150 -185 -242 -31 -60 -85 -211 -85 -237 0 -20 -58 -131 -78
-149 -40 -35 -216 -34 -229 1 -4 9 -13 24 -20 32 -21 24 -103 153 -103 161 0
4 -7 13 -15 20 -8 7 -15 22 -15 34 0 12 -5 27 -11 33 -5 5 -14 46 -18 89 -8
77 -29 169 -56 249 -43 128 -122 319 -156 378 -21 38 -39 72 -39 75 0 4 -28
34 -63 67 -122 117 -249 152 -370 101z m155 -153 c32 -35 48 -66 48 -92 0 -14
6 -21 19 -21 25 0 35 -14 55 -77 10 -29 49 -130 86 -224 l69 -171 -19 -39
c-20 -38 -27 -99 -12 -99 4 0 20 19 37 42 l29 42 8 -38 c7 -33 4 -45 -24 -90
-22 -35 -31 -61 -29 -86 3 -45 9 -50 32 -21 l19 23 0 -43 c0 -34 8 -56 37 -97
l36 -53 29 27 28 28 0 -62 c0 -58 -2 -62 -35 -88 -31 -23 -35 -32 -35 -70 l0
-44 45 0 45 0 0 43 c0 31 6 49 20 62 20 18 20 17 20 -108 l0 -127 330 0 330 0
0 141 0 141 57 -51 c31 -28 59 -49 61 -46 2 2 -7 24 -21 48 l-26 43 37 182
c37 181 37 182 63 182 22 0 28 6 33 31 3 17 22 47 41 66 19 19 35 43 35 52 0
22 19 41 42 41 21 0 40 -32 32 -54 -4 -10 5 -25 24 -41 17 -14 38 -46 48 -70
11 -31 22 -45 35 -45 11 0 19 -2 19 -3 0 -2 15 -73 34 -157 l35 -153 -20 -61
c-10 -33 -19 -65 -19 -71 0 -5 27 17 60 50 l60 59 0 -102 0 -102 50 0 c49 0
50 1 50 30 0 25 4 30 25 30 24 0 25 -2 25 -67 l0 -67 30 29 30 29 0 -211 0
-211 -35 -26 -35 -27 0 -215 0 -214 -95 0 -95 0 0 246 0 245 -47 -3 c-31 -2
-48 -7 -47 -15 1 -7 2 -382 3 -832 l1 -819 45 0 45 0 0 539 0 539 119 0 c69 0
122 -4 126 -10 3 -5 36 -10 72 -10 l65 0 -4 -62 -3 -63 33 -3 32 -3 0 -80 0
-79 71 0 72 0 -7 -125 -7 -125 82 0 82 0 -5 -125 -6 -125 72 0 71 0 -2 -77
c-2 -43 -6 -106 -9 -140 l-6 -63 -2645 0 -2646 0 7 53 c3 28 6 91 6 140 l0 87
74 0 74 0 -6 125 -5 125 72 0 71 0 0 125 0 125 65 0 65 0 0 79 0 80 43 3 42 3
-3 63 -4 62 56 0 c31 0 56 5 56 10 0 6 52 10 135 10 l135 0 0 -527 c0 -291 4
-533 8 -539 4 -6 23 -11 43 -11 l36 -1 7 60 c3 34 6 409 6 834 l0 774 -50 0
-50 0 0 -245 0 -245 -105 0 -105 0 0 208 0 208 -40 39 -40 39 0 203 c0 112 4
203 8 203 5 0 17 -9 27 -20 10 -11 21 -20 25 -20 3 0 4 27 2 60 l-4 60 31 0
c28 0 31 -3 31 -30 0 -29 1 -30 51 -30 l52 0 -8 103 -7 102 29 -25 c15 -13 43
-38 61 -54 37 -35 37 -34 16 47 -16 62 -16 63 17 212 31 136 36 150 57 153 12
2 22 10 22 18 0 25 39 93 59 104 13 7 21 23 23 48 3 34 6 37 33 37 25 0 30 -4
33 -27 2 -16 15 -36 32 -48 16 -11 36 -40 46 -65 13 -35 22 -45 40 -45 19 0
24 -8 32 -47 6 -27 23 -108 38 -180 l27 -133 -27 -50 c-15 -27 -24 -50 -19
-50 4 0 31 23 60 52 l53 52 0 -142 0 -142 336 0 337 0 -5 125 c-3 69 -2 125 2
125 22 0 42 -42 38 -80 l-4 -40 43 0 43 0 0 43 c0 35 -6 49 -30 72 -27 26 -30
35 -30 89 l1 61 24 -28 24 -27 40 53 c35 46 40 58 34 90 -6 40 1 46 28 21 17
-15 18 -14 24 20 6 30 2 44 -24 84 -30 47 -42 114 -23 125 4 3 21 -13 37 -35
l30 -40 3 33 c2 18 -4 49 -13 70 l-17 37 80 204 c44 112 84 217 89 233 7 22
17 31 36 33 21 3 27 9 27 28 0 51 50 114 90 114 9 0 28 -12 42 -27z M3960
4596 c0 -425 3 -801 6 -835 l7 -61 37 0 37 0 7 61 c3 34 6 277 6 540 l0 479
510 0 510 0 0 -527 c0 -291 4 -533 8 -538 4 -6 25 -10 47 -10 l40 0 3 833 2
832 -50 0 -50 0 0 -242 0 -243 -510 0 -510 0 0 243 0 242 -50 0 -50 0 0 -774z
M5483 5248 c4 -66 7 -441 7 -833 l0 -712 45 0 45 0 0 539 0 538 500 0 500 0 0
-497 c0 -274 3 -514 6 -535 6 -36 7 -36 60 -40 l54 -3 0 833 0 832 -60 0 -60
0 0 -242 0 -243 -497 2 -498 2 1 240 1 241 -55 0 -55 0 6 -122z"/>
</g>
</svg>
