<?xml version="1.0" standalone="no"?>
<!DOCTYPE svg PUBLIC "-//W3C//DTD SVG 20010904//EN"
 "http://www.w3.org/TR/2001/REC-SVG-20010904/DTD/svg10.dtd">
<svg version="1.0" xmlns="http://www.w3.org/2000/svg"
 width="2048.000000pt" height="2048.000000pt" viewBox="0 0 2048.000000 2048.000000"
 preserveAspectRatio="xMidYMid meet">
<metadata>
Created by potrace 1.13, written by Peter Selinger 2001-2015
</metadata>
<g transform="translate(0.000000,2048.000000) scale(0.192120,-0.192120)"
fill="#000000" stroke="none">
<path d="M1247 8924 c-399 -72 -737 -366 -862 -751 -53 -161 -55 -198 -55
-995 l0 -738 5000 0 5001 0 -4 778 c-3 676 -6 786 -20 843 -55 225 -149 396
-302 551 -137 138 -317 242 -512 296 l-98 27 -4035 2 c-3449 1 -4046 -1 -4113
-13z m8173 -298 c273 -66 504 -247 592 -464 l23 -57 3 -697 2 -698 -4720 0
-4720 0 0 668 c0 448 4 680 11 707 6 22 27 72 46 110 121 239 370 406 665 444
35 5 1854 8 4043 7 3804 -1 3983 -2 4055 -20z M10315 6277 c-18 -24 -45 -78
-45 -93 0 -8 -4 -14 -10 -14 -7 0 -10 -290 -10 -850 0 -467 3 -850 8 -850 4 0
16 -18 26 -40 47 -99 46 -127 46 899 0 528 -1 961 -2 961 -2 -1 -7 -6 -13 -13z
M330 5333 c0 -896 3 -1018 26 -928 3 14 10 25 15 25 5 0 9 9 9 20 0 11 5 20
10 20 7 0 10 290 10 850 0 560 -3 850 -10 850 -5 0 -10 11 -10 25 0 14 -4 25
-10 25 -5 0 -10 6 -10 13 0 7 -7 22 -15 33 -13 17 -14 -94 -15 -933z M333
3443 c3 -677 6 -787 20 -844 55 -226 149 -396 303 -551 139 -140 316 -242 511
-296 l98 -27 4065 0 4065 0 98 27 c364 101 656 369 774 713 58 170 56 136 60
978 l4 777 -5001 0 -5001 0 4 -777z m9707 -182 l0 -669 -24 -72 c-14 -39 -48
-107 -76 -150 -120 -182 -290 -298 -528 -357 -62 -16 -348 -17 -4017 -21
-2808 -2 -3978 0 -4047 8 -297 34 -541 186 -666 416 -86 157 -82 121 -82 860
l0 654 4720 0 4720 0 0 -669z"/>
</g>
</svg>
