<?xml version="1.0" standalone="no"?>
<!DOCTYPE svg PUBLIC "-//W3C//DTD SVG 20010904//EN"
 "http://www.w3.org/TR/2001/REC-SVG-20010904/DTD/svg10.dtd">
<svg version="1.0" xmlns="http://www.w3.org/2000/svg"
 width="2048.000000pt" height="2048.000000pt" viewBox="0 0 2048.000000 2048.000000"
 preserveAspectRatio="xMidYMid meet">
<metadata>
Created by potrace 1.13, written by Peter Selinger 2001-2015
</metadata>
<g transform="translate(0.000000,2048.000000) scale(0.192120,-0.192120)"
fill="#000000" stroke="none">
<path d="M1247 8924 c-392 -71 -712 -347 -850 -731 -58 -161 -55 -12 -60
-2841 -3 -1590 -2 -2629 4 -2670 24 -172 90 -343 188 -485 61 -88 184 -212
272 -274 91 -65 251 -139 366 -171 l98 -27 4065 0 4065 0 98 27 c422 117 734
449 818 873 21 105 21 5305 0 5410 -71 355 -298 646 -626 801 -52 25 -138 57
-192 72 l-98 27 -4035 2 c-3449 1 -4046 -1 -4113 -13z m6236 -1425 c1557 -1
2825 -3 2817 -6 -16 -5 -99 -130 -114 -172 -5 -15 -14 -29 -20 -33 -15 -10
-16 -1026 0 -1036 6 -4 14 -16 18 -26 13 -37 101 -165 116 -169 8 -3 -1260 -5
-2817 -6 l-2833 -1 -2 -702 c0 -387 -3 -689 -5 -671 -4 27 -14 38 -62 68 -32
19 -64 35 -70 35 -6 0 -11 5 -11 10 0 6 -9 10 -20 10 -11 0 -20 5 -20 10 0 7
-635 10 -1885 10 -1669 0 -1885 2 -1885 15 0 11 -12 15 -45 15 l-45 0 0 1600
c0 1817 -9 1629 87 1802 120 217 288 345 544 415 59 16 181 18 1647 20 1330 3
1582 6 1582 17 0 8 15 17 35 20 19 4 35 10 35 15 0 4 12 14 28 22 55 28 82 53
84 78 2 14 4 -281 5 -656 l3 -683 2833 -1z m1972 1113 c245 -70 443 -226 535
-423 l35 -74 3 -192 3 -193 -2605 0 -2606 0 0 455 0 455 2278 -3 2277 -3 80
-22z m575 -3293 l0 -481 -212 6 c-117 3 -946 8 -1843 11 -896 3 -1973 8 -2392
11 l-763 7 0 463 0 464 2605 0 2605 0 0 -481z m-3335 -689 c2274 -10 3631 -21
3605 -28 -15 -4 -130 -172 -130 -190 0 -6 -6 -12 -13 -14 -16 -6 -18 -1024 -2
-1036 6 -4 37 -48 70 -99 33 -50 67 -94 75 -96 8 -3 -2228 -5 -4970 -5 -2742
0 -4978 2 -4970 5 17 5 128 169 137 202 3 11 9 21 14 21 5 0 9 219 9 503 0
562 1 552 -69 655 -23 34 -44 68 -47 77 -6 13 214 15 2047 15 1130 0 3040 -4
4244 -10z m3335 -1893 c0 -150 -2 -168 -25 -227 -83 -212 -247 -371 -464 -450
-177 -65 141 -60 -4256 -57 l-4000 2 -80 24 c-286 82 -489 265 -576 518 -15
46 -19 84 -19 205 l0 148 4710 0 4710 0 0 -163z M2445 8228 c-11 -6 -48 -33
-82 -60 -113 -89 -163 -177 -254 -445 -66 -195 -80 -227 -119 -264 l-27 -26
-289 -6 c-300 -7 -360 -14 -429 -47 -90 -44 -215 -185 -215 -243 1 -89 112
-226 308 -379 56 -45 102 -87 102 -94 0 -7 52 -50 115 -96 l115 -83 0 -52 c0
-36 -20 -117 -69 -270 -86 -274 -94 -309 -90 -414 4 -81 5 -86 44 -134 90
-113 145 -149 215 -143 86 8 182 64 495 284 221 155 219 154 367 53 415 -284
488 -327 574 -336 65 -7 99 12 175 95 68 75 82 110 81 201 -2 84 -18 155 -96
401 -64 204 -77 258 -69 288 3 13 47 52 105 93 55 40 103 82 108 94 5 13 24
33 42 46 241 168 422 386 390 470 -19 48 -104 148 -156 183 -92 61 -134 67
-474 73 -345 6 -329 2 -374 95 -14 29 -53 132 -86 229 -74 217 -115 300 -187
377 -94 102 -169 139 -220 110z m154 -450 c57 -178 124 -389 150 -470 l46
-148 505 0 505 0 -51 -34 c-93 -63 -759 -547 -761 -554 -2 -4 67 -218 151
-477 85 -258 154 -470 153 -472 -1 -1 -38 26 -82 59 -44 33 -225 166 -402 295
l-323 235 -322 -235 c-178 -130 -359 -263 -403 -296 -44 -33 -81 -59 -82 -57
-1 1 68 213 152 471 85 259 154 473 152 477 -2 7 -618 456 -742 542 l-60 41
500 3 500 2 46 148 c119 377 254 792 259 792 3 0 52 -145 109 -322z M4553
7510 c-24 -11 -43 -24 -43 -30 0 -6 -4 -9 -9 -6 -5 3 -11 -4 -15 -17 -8 -29
-8 -1335 0 -1364 4 -13 10 -20 15 -17 5 3 9 1 9 -5 0 -14 78 -51 107 -51 l23
0 0 755 0 755 -22 -1 c-13 0 -42 -9 -65 -19z"/>
</g>
</svg>
