<?xml version="1.0" standalone="no"?>
<!DOCTYPE svg PUBLIC "-//W3C//DTD SVG 20010904//EN"
 "http://www.w3.org/TR/2001/REC-SVG-20010904/DTD/svg10.dtd">
<svg version="1.0" xmlns="http://www.w3.org/2000/svg"
 width="2048.000000pt" height="2048.000000pt" viewBox="0 0 2048.000000 2048.000000"
 preserveAspectRatio="xMidYMid meet">
<metadata>
Created by potrace 1.13, written by Peter Selinger 2001-2015
</metadata>
<g transform="translate(0.000000,2048.000000) scale(0.192120,-0.192120)"
fill="#000000" stroke="none">
<path d="M1247 8924 c-426 -77 -768 -394 -885 -819 l-27 -100 -3 -2625 c-2
-1902 0 -2647 8 -2704 41 -287 193 -550 418 -721 109 -83 277 -167 407 -202
l100 -28 4065 0 4065 0 98 27 c201 56 375 158 518 305 154 159 238 312 296
543 15 58 17 201 20 1398 l4 1332 -2570 0 -2570 0 -1133 841 c-623 463 -1200
892 -1283 954 -82 61 -537 399 -1010 750 -1079 800 -1022 757 -997 766 11 4
96 15 189 23 92 9 222 25 288 37 l120 21 3967 -2 c2182 0 3991 -5 4020 -10
113 -18 199 -46 303 -98 200 -99 331 -242 418 -457 l32 -80 3 -357 c3 -354 3
-358 -18 -358 -11 0 -20 -7 -20 -15 0 -13 -388 -15 -3432 -16 -1888 0 -3481
-4 -3540 -8 -156 -12 -213 -47 -225 -139 l-6 -42 3649 0 c2007 0 3686 -3 3732
-7 l84 -6 -5 434 c-3 352 -7 447 -20 500 -54 223 -148 394 -303 550 -138 140
-316 243 -511 297 l-98 27 -4035 2 c-3449 1 -4046 -1 -4113 -13z m-395 -652
c85 -50 1447 -1067 1459 -1090 9 -15 9 -26 2 -33 -5 -5 -61 -14 -124 -19 -224
-18 -389 -57 -576 -136 -371 -155 -718 -476 -910 -841 -45 -87 -78 -133 -95
-133 -5 0 -7 467 -6 1038 l3 1037 31 66 c18 36 46 82 64 102 41 47 84 49 152
9z m1705 -1433 c66 -13 69 -12 -84 -58 -514 -157 -915 -613 -1025 -1164 -31
-159 -32 -415 0 -572 117 -588 549 -1049 1122 -1196 39 -10 42 -12 23 -20 -83
-31 -401 -39 -555 -15 -325 52 -616 202 -848 435 -226 227 -369 497 -426 806
-26 139 -26 411 0 550 79 426 335 800 706 1032 139 86 333 163 505 198 157 33
438 35 582 4z m94 -236 l24 -83 103 0 c56 0 102 -3 102 -7 0 -5 -26 -25 -58
-45 -31 -21 -68 -46 -81 -57 l-25 -19 33 -91 c18 -51 31 -94 29 -97 -3 -2 -25
11 -49 29 -24 18 -60 45 -80 60 l-36 27 -79 -60 c-43 -33 -81 -60 -85 -60 -3
0 6 35 21 78 15 42 30 86 34 98 5 17 -8 30 -80 80 l-87 59 108 5 107 5 25 80
c36 120 33 112 42 95 4 -8 19 -52 32 -97z m1319 -686 c503 -374 934 -695 957
-713 l42 -34 34 20 34 20 47 -36 c26 -19 68 -45 94 -57 l47 -22 2408 -3 c2395
-2 2407 -2 2407 -22 0 -13 7 -20 20 -20 20 0 20 -7 20 -675 0 -668 0 -675 -20
-675 -11 0 -20 -7 -20 -15 0 -13 -384 -15 -3392 -15 -3145 0 -3529 -3 -3679
-26 l-44 -7 50 48 c32 30 43 45 30 42 -45 -12 -84 -17 -167 -22 -67 -3 -87 -1
-91 9 -8 20 3 54 19 60 8 3 14 12 14 20 0 8 28 43 63 78 64 63 137 191 137
237 0 11 14 54 30 96 17 42 30 82 30 91 0 27 -50 106 -107 168 -31 34 -62 76
-70 95 -14 33 -14 35 31 100 51 74 86 151 86 187 0 13 11 49 25 80 41 93 27
172 -40 234 -16 14 -48 52 -72 84 -51 69 -51 85 0 150 18 23 41 59 51 81 10
22 22 48 27 57 5 10 9 29 9 42 0 14 14 58 30 99 17 42 30 80 30 87 0 23 -43
96 -80 135 -21 22 -54 62 -74 89 -43 57 -42 77 8 140 42 53 85 148 86 188 0 9
14 53 32 98 33 84 33 104 3 182 -5 13 -2 15 16 11 13 -4 435 -312 939 -686z
m-1746 397 c9 -3 16 -17 16 -30 0 -24 64 -136 106 -187 13 -16 24 -37 24 -46
0 -23 -40 -82 -100 -148 -86 -94 -97 -149 -50 -257 11 -26 20 -60 20 -76 0
-33 44 -121 94 -186 20 -26 36 -55 36 -64 0 -23 -42 -84 -100 -146 -84 -89
-97 -155 -50 -261 11 -25 20 -59 20 -74 0 -16 4 -37 9 -47 31 -63 48 -92 78
-128 54 -67 53 -91 -4 -160 -65 -77 -126 -132 -158 -140 -51 -13 -190 108
-282 245 -59 88 -130 234 -160 328 l-28 88 0 310 0 310 29 85 c61 179 152 324
284 454 114 112 172 147 216 130z m424 -435 l28 -94 102 4 c56 1 102 -1 102
-5 0 -5 -36 -33 -80 -63 -44 -30 -80 -57 -80 -61 0 -3 13 -46 30 -95 16 -49
28 -90 26 -93 -3 -2 -40 23 -84 56 l-79 60 -77 -59 c-43 -33 -80 -58 -83 -55
-3 3 9 46 26 97 17 51 30 93 28 94 -1 1 -39 28 -84 59 -46 32 -83 60 -83 63 0
3 47 3 104 -1 l104 -7 32 101 c17 56 33 100 36 98 2 -3 17 -47 32 -99z m130
-822 c56 1 102 -2 102 -6 0 -6 -78 -63 -153 -112 -6 -4 3 -44 22 -100 17 -52
31 -98 31 -102 0 -4 -36 19 -79 53 -44 33 -83 60 -87 60 -4 0 -39 -24 -78 -53
-39 -29 -77 -57 -83 -61 -7 -4 3 37 21 91 19 53 32 101 30 105 -2 3 -40 32
-84 62 -44 31 -80 58 -80 61 0 2 47 1 104 -2 l104 -6 33 104 32 104 32 -100
32 -100 101 2z m-2099 -508 c179 -337 393 -579 676 -764 92 -61 229 -130 331
-169 185 -70 434 -110 617 -101 78 4 87 3 87 -13 -1 -21 -31 -56 -95 -107 -28
-22 -52 -43 -55 -46 -12 -16 -1311 -977 -1360 -1007 -91 -55 -139 -35 -207 86
-78 139 -73 62 -73 1199 0 1150 -6 1082 79 922z m2101 -229 l104 -5 -77 -53
c-42 -29 -79 -57 -82 -62 -3 -5 8 -48 25 -96 17 -48 29 -91 28 -95 -2 -5 -37
18 -78 51 -41 33 -79 59 -83 60 -4 0 -41 -25 -83 -56 -41 -31 -77 -54 -81 -51
-3 4 7 42 22 84 16 43 30 83 32 90 3 6 -35 38 -83 72 l-87 61 106 0 106 0 32
103 32 102 32 -100 31 -100 104 -5z m7312 -796 l135 -7 -43 -76 c-24 -42 -44
-83 -44 -91 0 -9 -4 -20 -9 -25 -5 -6 -11 -138 -14 -295 -4 -296 -9 -343 -54
-485 -34 -106 -60 -157 -132 -252 -149 -198 -354 -297 -668 -323 -176 -14
-7714 -14 -7890 0 -70 6 -162 17 -203 25 -41 8 -138 24 -215 35 -77 11 -143
24 -148 29 -4 4 119 103 275 218 156 116 598 445 983 732 l700 520 3596 1
c1978 0 3657 -3 3731 -6z M10303 6990 c-13 -21 -23 -48 -23 -59 0 -12 -4 -21
-10 -21 -7 0 -10 -228 -10 -665 0 -437 3 -665 10 -665 6 0 10 -8 10 -17 0 -10
12 -36 25 -58 l25 -40 0 783 c0 430 -1 782 -2 782 -2 0 -13 -18 -25 -40z"/>
</g>
</svg>
