<?xml version="1.0" standalone="no"?>
<!DOCTYPE svg PUBLIC "-//W3C//DTD SVG 20010904//EN"
 "http://www.w3.org/TR/2001/REC-SVG-20010904/DTD/svg10.dtd">
<svg version="1.0" xmlns="http://www.w3.org/2000/svg"
 width="2048.000000pt" height="2048.000000pt" viewBox="0 0 2048.000000 2048.000000"
 preserveAspectRatio="xMidYMid meet">
<metadata>
Created by potrace 1.13, written by Peter Selinger 2001-2015
</metadata>
<g transform="translate(0.000000,2048.000000) scale(0.192120,-0.192120)"
fill="#000000" stroke="none">
<path d="M4895 8941 c41 -9 108 -41 117 -55 5 -8 95 -11 313 -11 218 0 308 3
313 11 9 15 76 44 122 54 19 4 -174 8 -430 8 -256 -1 -451 -4 -435 -7z M1247
8924 c-348 -63 -652 -295 -807 -615 -48 -99 -73 -181 -95 -303 -13 -76 -15
-235 -15 -1105 l0 -1016 2220 2 2221 3 2 1525 2 1525 -1725 -1 c-1442 -1
-1738 -3 -1803 -15z m471 -296 c2 -9 -11 -27 -31 -42 -29 -22 -50 -28 -142
-36 -60 -6 -121 -18 -139 -27 -50 -26 -166 -144 -192 -195 -46 -91 -26 -162
79 -275 37 -39 80 -73 115 -90 53 -26 66 -28 177 -28 66 0 156 4 201 9 96 10
101 6 79 -79 -20 -75 -19 -221 1 -271 21 -55 62 -132 96 -181 49 -73 43 -88
-73 -163 -98 -63 -209 -167 -319 -298 -62 -74 -81 -82 -197 -82 -118 0 -169
-20 -250 -99 -73 -70 -103 -121 -103 -173 1 -106 131 -276 273 -356 139 -78
111 -86 -335 -90 l-358 -3 0 948 c0 1041 -3 983 62 1108 90 174 269 322 471
390 119 40 231 54 417 52 145 -2 165 -4 168 -19z m2772 -1228 l0 -1250 -396 0
c-391 0 -434 3 -434 33 0 7 15 42 33 77 59 117 67 147 67 260 0 100 -2 108
-35 175 -21 43 -65 104 -115 159 -69 77 -80 93 -80 125 0 20 4 41 9 47 5 5 21
38 35 73 21 53 26 81 26 156 0 60 -5 102 -14 121 -8 16 -19 40 -24 54 -15 40
-97 144 -160 202 -54 49 -153 111 -212 132 -33 12 -60 36 -60 54 0 8 13 36 29
63 17 26 44 80 60 119 29 67 31 80 31 196 0 146 -14 187 -109 319 -66 92 -77
115 -59 127 7 4 327 8 711 8 l697 0 0 -1250z m-1977 1120 c245 -18 359 -52
443 -134 60 -59 74 -96 74 -201 0 -53 -6 -82 -24 -120 -45 -95 -115 -143 -360
-246 -94 -40 -188 -83 -208 -96 -52 -32 -50 -59 5 -83 59 -26 104 -35 328 -64
330 -43 469 -87 551 -173 79 -83 77 -216 -5 -309 -79 -90 -218 -134 -562 -179
-317 -41 -455 -74 -551 -130 -61 -36 -64 -49 -5 -25 111 44 235 61 466 67 330
8 594 -30 752 -107 90 -45 126 -106 124 -215 -2 -172 -185 -297 -506 -346
-137 -21 -522 -18 -650 5 -195 35 -331 88 -477 187 -117 78 -143 89 -222 89
-156 0 -313 38 -401 96 -47 31 -104 98 -93 109 3 3 43 -4 89 -14 156 -37 358
-52 412 -32 21 8 26 19 35 80 15 101 51 173 122 241 160 154 436 233 942 270
154 11 253 31 278 55 38 38 -34 58 -360 100 -329 42 -446 80 -535 176 -115
123 -126 278 -25 362 51 44 100 65 319 138 296 100 350 135 305 197 -11 15
-36 34 -55 44 -32 15 -42 15 -159 -3 -72 -11 -215 -22 -336 -25 -182 -6 -219
-5 -262 9 -46 15 -54 15 -94 1 -125 -45 -372 -60 -475 -29 -29 9 -53 18 -53
20 0 2 26 9 57 15 l57 12 -27 16 c-24 15 -42 40 -35 48 2 1 30 -7 63 -18 81
-28 241 -30 342 -4 l72 18 -1 34 c-2 47 27 83 93 116 109 55 265 69 552 48z
M2180 8418 c-23 -25 -25 -34 -9 -44 14 -9 64 41 55 55 -11 16 -23 13 -46 -11z
M2505 6614 c-274 -28 -386 -67 -308 -108 85 -43 329 -76 573 -76 266 0 419 29
457 86 15 24 15 27 -4 46 -40 40 -119 50 -408 53 -148 1 -288 1 -310 -1z
M5887 7415 l2 -1525 2221 -3 2221 -2 -4 1055 c-3 938 -5 1062 -20 1121 -56
226 -149 396 -302 551 -137 138 -317 242 -512 296 l-98 27 -1755 3 -1755 2 2
-1525z m1601 1229 c28 -8 28 -19 -2 -49 -29 -29 -80 -44 -181 -51 -97 -6 -126
-21 -213 -106 -69 -68 -122 -151 -122 -191 0 -73 128 -234 225 -285 46 -25 59
-27 175 -27 69 0 161 4 206 9 96 10 102 5 78 -75 -11 -37 -15 -83 -12 -158 3
-118 20 -166 100 -288 55 -85 50 -97 -60 -169 -116 -76 -171 -124 -272 -242
-120 -139 -114 -136 -250 -142 -132 -7 -158 -16 -239 -87 -115 -100 -139 -186
-82 -292 43 -82 144 -187 239 -248 50 -33 81 -58 75 -64 -23 -23 -141 -29
-559 -29 l-444 0 0 1250 0 1250 658 0 c361 0 667 -3 680 -6z m1832 -4 c274
-34 506 -171 638 -378 22 -34 50 -90 61 -124 21 -61 21 -76 21 -1025 l0 -963
-276 0 c-277 0 -314 4 -314 36 0 9 21 59 48 111 46 95 47 97 50 207 l4 111
-41 80 c-26 50 -69 111 -116 163 -84 93 -91 116 -55 189 38 80 50 128 50 211
0 70 -4 92 -30 149 -36 78 -123 188 -200 251 -30 25 -90 62 -133 83 -43 21
-85 43 -93 50 -22 18 -17 47 21 107 67 110 85 172 85 299 0 104 -2 119 -29
178 -17 36 -54 100 -84 143 -63 90 -73 112 -55 124 19 11 348 10 448 -2z
m-1018 -120 c363 -26 503 -109 516 -306 12 -190 -66 -265 -428 -414 -205 -83
-240 -119 -161 -159 43 -22 127 -38 397 -76 354 -49 499 -118 535 -257 26 -95
-25 -209 -119 -269 -90 -57 -221 -88 -537 -129 -191 -24 -297 -44 -385 -71
-67 -21 -180 -77 -180 -88 0 -4 37 5 83 20 114 39 285 59 493 59 271 0 489
-31 645 -91 121 -47 169 -113 169 -234 -1 -170 -178 -292 -505 -346 -122 -21
-524 -18 -645 4 -214 39 -343 90 -497 195 -109 75 -127 82 -213 82 -155 0
-320 40 -402 97 -40 27 -96 98 -86 108 3 3 42 -4 88 -14 153 -37 401 -53 426
-28 4 3 13 41 20 83 16 94 42 149 100 214 146 162 447 254 948 290 233 16 342
49 291 86 -30 22 -75 31 -285 59 -387 50 -489 79 -585 167 -162 148 -159 318
7 421 15 9 127 51 250 93 248 85 287 102 316 139 23 29 19 55 -12 84 -38 36
-72 39 -206 18 -157 -23 -567 -30 -615 -9 -26 11 -37 10 -69 -3 -100 -42 -353
-60 -462 -34 -71 17 -73 26 -10 40 l56 12 -30 18 c-33 20 -43 57 -12 44 123
-51 287 -56 419 -12 34 11 38 15 35 44 -6 66 86 130 227 158 81 16 242 18 423
5z M7966 8418 c-17 -24 -21 -48 -8 -48 18 0 52 33 52 51 0 26 -25 24 -44 -3z
M8290 6614 c-104 -9 -266 -36 -298 -49 -43 -18 -40 -44 9 -67 19 -10 91 -28
160 -40 106 -19 161 -22 384 -23 217 0 273 3 338 18 81 19 137 54 137 87 0 25
-18 37 -86 56 -47 13 -113 17 -329 19 -148 1 -290 1 -315 -1z M10306 5708 c-9
-12 -16 -28 -16 -35 0 -7 -4 -13 -10 -13 -5 0 -10 -9 -10 -19 0 -11 -4 -23
-10 -26 -16 -10 -13 -564 3 -598 6 -15 15 -27 20 -27 4 0 7 -6 7 -13 0 -8 9
-24 20 -37 l20 -23 0 406 c0 224 -2 407 -4 407 -3 0 -12 -10 -20 -22z M330
5326 c0 -230 4 -396 9 -390 5 5 20 31 35 57 l26 48 0 284 c0 178 -4 286 -10
290 -5 3 -10 15 -10 26 0 10 -4 19 -10 19 -5 0 -10 6 -10 13 0 7 -7 22 -15 33
-13 17 -14 -27 -15 -380z M333 3720 c3 -938 5 -1062 20 -1121 56 -227 149
-396 303 -551 139 -140 316 -242 511 -296 l98 -27 1755 -3 1755 -2 -2 1525 -2
1525 -2221 3 -2221 2 4 -1055z m985 757 c14 -16 -4 -53 -48 -104 -81 -92 -103
-210 -50 -263 3 -3 12 -18 20 -33 21 -42 127 -137 180 -161 37 -17 65 -21 160
-21 63 0 154 4 201 9 102 10 106 6 84 -79 -20 -75 -19 -221 1 -271 22 -58 63
-134 96 -180 49 -69 40 -87 -78 -166 -97 -65 -208 -170 -314 -296 -61 -73 -81
-82 -191 -82 -120 0 -156 -12 -237 -80 -77 -65 -122 -137 -122 -196 1 -105
143 -285 280 -354 73 -37 139 -55 285 -80 118 -19 225 -59 233 -87 2 -6 -7
-18 -20 -25 -31 -17 -403 -17 -508 1 -271 45 -492 193 -608 407 -88 161 -82
84 -82 1140 l0 934 354 0 c278 0 356 -3 364 -13z m1212 3 c222 -17 353 -57
429 -132 53 -51 71 -100 71 -193 0 -97 -26 -161 -87 -216 -59 -53 -107 -79
-308 -164 -204 -87 -238 -107 -233 -139 5 -37 94 -63 314 -91 354 -46 493 -85
584 -162 130 -112 97 -306 -67 -395 -97 -53 -193 -74 -627 -133 -206 -28 -398
-87 -442 -136 -15 -17 -14 -17 34 1 66 25 165 47 272 60 110 13 414 13 538 -1
229 -24 446 -94 490 -157 52 -74 58 -184 15 -264 -85 -157 -317 -241 -703
-255 -361 -13 -644 45 -847 174 -49 31 -110 70 -136 86 -45 28 -58 31 -176 39
-213 13 -340 56 -419 142 -63 68 -57 78 32 51 64 -19 258 -45 341 -45 99 0
112 8 120 77 16 126 72 222 176 298 171 126 429 192 878 225 158 11 273 33
292 56 32 39 -40 59 -351 99 -251 32 -325 48 -417 90 -90 42 -154 100 -193
178 -66 132 -25 248 112 318 22 11 133 52 247 91 298 101 350 134 305 196 -11
15 -36 35 -55 44 -32 16 -41 16 -169 -4 -164 -25 -554 -32 -605 -10 -26 11
-38 10 -87 -7 -31 -11 -90 -25 -131 -31 -97 -16 -309 -9 -357 12 l-35 15 56
13 56 13 -31 27 c-17 16 -29 31 -26 33 3 3 32 -4 65 -15 81 -28 241 -30 343
-4 l72 18 0 38 c0 136 232 192 660 160z m1960 -1240 l0 -1250 -439 0 c-262 0
-450 4 -465 10 -37 14 -33 41 17 99 50 58 114 165 139 230 13 34 18 75 18 154
0 103 -2 110 -34 175 -20 38 -69 105 -115 156 -71 77 -81 93 -81 125 0 20 4
41 9 46 5 6 21 39 35 74 21 53 26 81 26 156 0 64 -5 102 -16 126 -9 19 -26 54
-38 78 -11 25 -64 88 -116 141 -75 75 -111 104 -170 133 -42 20 -80 37 -86 37
-25 0 -46 38 -39 69 4 17 11 31 16 31 5 0 9 5 9 11 0 6 8 23 18 37 10 15 31
57 46 93 26 63 27 72 24 200 -3 127 -5 138 -36 202 -31 66 -39 97 -25 110 3 4
298 7 655 7 l648 0 0 -1250z M2180 4378 c-23 -25 -25 -34 -9 -44 14 -9 64 41
55 55 -11 16 -23 13 -46 -11z M2495 2573 c-106 -9 -263 -36 -292 -50 -18 -8
-33 -22 -33 -30 0 -23 80 -52 212 -75 106 -19 160 -22 383 -23 215 0 272 3
328 18 82 20 123 41 137 66 38 72 -101 102 -463 99 -128 -1 -250 -3 -272 -5z
M5890 4775 c0 0 -1 -687 -3 -1528 l-2 -1527 1755 2 1755 3 98 27 c364 101 656
369 774 713 60 174 56 107 60 1255 l4 1055 -2221 0 c-1221 0 -2220 0 -2220 0z
m1218 -298 c13 -16 -3 -52 -43 -94 -14 -15 -39 -51 -55 -79 -59 -102 -35 -188
84 -303 95 -90 135 -106 276 -106 63 0 154 4 201 9 101 10 107 5 84 -71 -9
-28 -15 -89 -15 -146 0 -87 4 -107 30 -170 16 -40 48 -99 70 -132 22 -33 40
-70 40 -82 0 -23 -4 -27 -115 -99 -97 -64 -167 -127 -260 -237 -114 -134 -108
-131 -250 -138 -135 -6 -151 -12 -234 -86 -114 -101 -136 -176 -82 -288 34
-72 136 -186 208 -231 69 -45 172 -78 323 -103 69 -12 145 -32 169 -44 46 -22
71 -50 58 -63 -18 -19 -152 -23 -774 -23 l-673 -1 0 1250 0 1250 474 0 c377 0
476 -3 484 -13z m1209 3 c274 -21 415 -78 476 -194 30 -57 32 -202 2 -261 -47
-96 -127 -148 -405 -264 -165 -69 -195 -88 -195 -122 0 -40 80 -64 341 -99
306 -41 425 -71 516 -129 139 -88 156 -254 39 -371 -82 -82 -205 -119 -554
-165 -217 -29 -327 -48 -407 -71 -58 -17 -190 -82 -190 -93 0 -4 37 5 83 20
234 78 722 80 1021 4 211 -53 273 -106 284 -242 6 -83 -15 -140 -79 -203 -83
-84 -234 -143 -437 -172 -114 -16 -483 -16 -594 0 -191 28 -351 83 -479 167
-181 116 -160 108 -293 116 -186 12 -296 41 -382 100 -40 27 -92 94 -82 105 3
2 43 -4 89 -15 156 -37 401 -52 426 -27 3 3 12 40 19 82 18 105 46 158 124
235 143 141 410 226 815 259 285 23 362 35 400 65 20 15 20 15 0 30 -29 23
-74 33 -245 55 -439 58 -529 83 -630 177 -76 70 -113 143 -113 222 0 67 17
105 71 153 55 50 60 52 302 135 244 84 292 105 319 140 29 36 5 83 -54 109
-26 10 -52 9 -165 -7 -172 -25 -516 -36 -580 -19 -61 16 -74 15 -155 -10 -99
-31 -336 -40 -420 -15 -65 18 -62 28 14 40 45 7 45 7 19 21 -22 12 -44 42 -36
50 2 1 28 -6 58 -16 82 -28 191 -34 285 -17 120 22 136 30 129 65 -12 60 81
127 220 157 73 16 274 18 443 5z m1723 -939 l0 -949 -24 -72 c-14 -39 -48
-107 -76 -150 -113 -173 -271 -286 -468 -336 -72 -18 -100 -15 -109 12 -2 6
22 44 53 85 32 40 73 108 93 149 32 68 35 85 39 183 3 84 1 114 -12 141 -9 19
-16 38 -16 43 0 16 -68 108 -134 181 -57 62 -66 78 -66 110 0 21 4 42 9 47 4
6 20 42 35 80 20 55 26 88 26 153 0 74 -4 92 -34 155 -38 82 -140 206 -213
260 -27 20 -82 52 -122 71 -118 56 -121 65 -66 154 67 110 85 172 85 300 0
108 -2 120 -34 196 -45 108 -46 112 -33 125 8 8 162 11 539 11 l528 0 0 -949z
M7966 4378 c-17 -24 -21 -48 -8 -48 18 0 52 33 52 51 0 26 -25 24 -44 -3z
M8285 2574 c-110 -11 -262 -37 -292 -49 -84 -35 -9 -79 192 -111 136 -21 474
-30 598 -15 150 17 237 55 237 102 0 55 -90 71 -420 74 -151 1 -293 1 -315 -1z
M5040 1780 c0 -5 -4 -10 -9 -10 -5 0 -31 -10 -58 -22 -26 -12 -61 -25 -78 -29
-16 -3 179 -6 435 -7 256 0 449 4 430 8 -19 4 -57 17 -83 29 -27 11 -55 21
-63 21 -8 0 -14 5 -14 10 0 6 -100 10 -280 10 -180 0 -280 -4 -280 -10z"/>
</g>
</svg>
