<?xml version="1.0" standalone="no"?>
<!DOCTYPE svg PUBLIC "-//W3C//DTD SVG 20010904//EN"
 "http://www.w3.org/TR/2001/REC-SVG-20010904/DTD/svg10.dtd">
<svg version="1.0" xmlns="http://www.w3.org/2000/svg"
 width="2048.000000pt" height="2048.000000pt" viewBox="0 0 2048.000000 2048.000000"
 preserveAspectRatio="xMidYMid meet">
<metadata>
Created by potrace 1.13, written by Peter Selinger 2001-2015
</metadata>
<g transform="translate(0.000000,2048.000000) scale(0.192120,-0.192120)"
fill="#000000" stroke="none">
<path d="M1673 8925 c66 -24 183 -45 254 -45 59 0 74 4 113 30 l45 30 -225 -1
c-205 0 -222 -2 -187 -14z M2431 8742 c162 -109 943 -640 1737 -1180 l1443
-982 2360 0 2360 0 -4 708 c-3 610 -6 716 -20 773 -55 224 -149 396 -302 551
-137 138 -317 242 -512 296 l-98 27 -3629 3 -3630 2 295 -198z m6988 -106
c275 -66 483 -224 590 -446 l36 -75 3 -642 3 -643 -2123 0 c-1298 0 -2152 4
-2197 10 -52 7 -92 20 -135 43 -54 30 -2107 1421 -2361 1600 -101 72 -175 137
-175 155 0 6 8 13 18 15 9 3 1423 4 3142 3 2973 -2 3129 -2 3199 -20z M1160
8904 c-109 -29 -249 -92 -341 -154 -87 -59 -229 -199 -288 -284 -96 -140 -157
-291 -186 -460 -13 -78 -15 -412 -15 -2676 0 -2824 -3 -2662 56 -2845 57 -172
149 -318 282 -447 104 -100 183 -156 306 -214 99 -47 281 -99 324 -92 15 2
946 647 2101 1456 l2074 1452 2428 0 2429 0 0 690 0 690 -2429 0 -2428 0
-2074 1452 c-1674 1172 -2081 1453 -2109 1455 -19 2 -78 -9 -130 -23z m177
-323 c22 -11 905 -626 1964 -1366 1058 -741 1958 -1367 1999 -1391 41 -25 104
-55 140 -67 l65 -22 2263 -3 2262 -2 0 -410 0 -410 -2262 -2 -2263 -3 -65 -22
c-36 -12 -105 -46 -155 -76 -49 -29 -918 -633 -1930 -1342 -1012 -709 -1883
-1317 -1935 -1351 -116 -76 -160 -90 -238 -74 -234 48 -473 265 -553 503 -14
42 -19 79 -17 130 l3 72 1693 1130 c1274 850 1709 1145 1756 1192 136 133 176
254 122 361 -15 29 -61 87 -104 130 -69 70 -257 198 -1757 1199 -924 616
-1688 1130 -1699 1142 -16 18 -18 32 -13 113 3 66 11 108 27 143 59 130 161
248 284 329 183 119 311 150 413 97z m900 -2020 c1013 -674 1842 -1228 1842
-1231 0 -12 -3704 -2471 -3707 -2461 -2 6 22 67 52 136 96 216 96 238 -4 342
l-60 63 1439 957 c792 527 1439 960 1439 963 0 3 -647 436 -1439 963 l-1439
958 51 52 c63 63 89 104 89 138 0 34 -27 110 -84 234 -47 103 -55 131 -33 119
6 -3 841 -558 1854 -1233z m-507 -528 c889 -594 1015 -681 1018 -705 3 -22 -6
-34 -50 -69 -68 -54 -2055 -1379 -2068 -1379 -7 0 -10 513 -10 1445 l0 1445
48 -30 c26 -16 504 -334 1062 -707z M10301 6397 c-20 -36 -23 -54 -19 -103 3
-37 13 -72 26 -94 l22 -35 0 138 c0 75 -1 137 -3 137 -1 0 -13 -19 -26 -43z
M10320 4471 c0 -5 -8 -17 -17 -27 -28 -27 -25 -138 5 -184 l22 -35 0 128 c0
70 -2 127 -5 127 -3 0 -5 -4 -5 -9z M4160 3094 c-795 -541 -1575 -1072 -1734
-1179 l-290 -195 3630 2 3629 3 98 27 c413 114 710 423 814 847 14 57 17 163
20 774 l4 707 -2363 -1 -2363 -1 -1445 -984z m5870 88 l0 -608 -25 -64 c-83
-212 -247 -371 -464 -450 -175 -64 48 -60 -3328 -58 -2808 3 -3074 4 -3088 19
-15 15 -15 18 7 42 28 31 2420 1656 2481 1686 25 12 64 26 88 30 24 5 1008 9
2187 10 l2142 1 0 -608z M1765 1760 c-153 -35 -145 -39 85 -39 127 -1 210 3
205 8 -6 5 -28 18 -50 30 -50 26 -128 27 -240 1z"/>
</g>
</svg>
