<?xml version="1.0" standalone="no"?>
<!DOCTYPE svg PUBLIC "-//W3C//DTD SVG 20010904//EN"
 "http://www.w3.org/TR/2001/REC-SVG-20010904/DTD/svg10.dtd">
<svg version="1.0" xmlns="http://www.w3.org/2000/svg"
 width="2048.000000pt" height="2048.000000pt" viewBox="0 0 2048.000000 2048.000000"
 preserveAspectRatio="xMidYMid meet">
<metadata>
Created by potrace 1.13, written by Peter Selinger 2001-2015
</metadata>
<g transform="translate(0.000000,2048.000000) scale(0.192120,-0.192120)"
fill="#000000" stroke="none">
<path d="M1247 8924 c-399 -72 -737 -366 -862 -751 -58 -176 -55 -35 -55
-2838 0 -1657 4 -2605 10 -2650 25 -177 91 -345 189 -488 61 -88 184 -212 272
-274 91 -65 251 -139 366 -171 l98 -27 4065 0 4065 0 98 27 c201 56 375 158
518 305 160 165 256 346 300 568 21 105 21 5305 0 5410 -71 355 -298 646 -626
801 -52 25 -138 57 -192 72 l-98 27 -4035 2 c-3449 1 -4046 -1 -4113 -13z
m8183 -265 c215 -60 351 -150 473 -314 70 -93 106 -166 143 -290 28 -89 28
-93 32 -432 2 -199 7 -343 13 -343 5 0 9 -18 9 -39 0 -22 3 -41 8 -43 4 -1 18
-24 32 -50 38 -71 93 -147 110 -151 8 -3 -2204 -5 -4917 -6 l-4931 -1 29 31
c37 39 99 142 99 163 0 9 5 16 10 16 6 0 10 18 10 40 0 22 5 40 10 40 6 0 10
106 10 299 0 397 20 509 118 677 138 237 370 388 652 423 36 5 1849 8 4030 7
l3965 -1 95 -26z m590 -3334 l0 -1435 -4700 0 -4700 0 0 1435 0 1435 4700 0
4700 0 0 -1435z m229 -1667 c-23 -20 -89 -105 -89 -116 0 -5 -13 -23 -30 -40
-16 -18 -30 -41 -30 -52 0 -11 -4 -20 -9 -20 -6 0 -11 -151 -14 -362 -4 -359
-4 -364 -31 -458 -87 -306 -286 -503 -594 -588 l-97 -27 -3975 -3 c-2837 -2
-3999 0 -4060 8 -109 14 -245 59 -339 113 -104 59 -225 176 -284 275 -64 108
-74 136 -103 269 -23 109 -24 134 -24 444 0 213 -4 329 -10 329 -5 0 -10 11
-10 24 0 13 -3 26 -7 28 -5 2 -30 37 -58 78 -27 41 -58 83 -67 92 -17 17 200
18 4914 18 3947 0 4929 -2 4917 -12z M5144 6500 c-144 -26 -312 -98 -440 -188
-172 -121 -333 -309 -421 -491 -90 -184 -103 -247 -103 -492 0 -192 2 -213 25
-295 63 -220 228 -475 403 -627 164 -142 331 -225 529 -263 127 -24 317 -15
437 21 195 57 356 171 461 324 26 39 54 72 61 75 8 3 33 -10 58 -28 24 -19 53
-39 64 -45 58 -31 136 7 263 127 46 43 94 84 106 90 29 16 75 15 148 -3 83
-20 171 -19 220 4 50 23 154 133 183 194 39 83 32 134 -39 272 -73 145 -76
167 -25 258 51 91 86 184 86 229 0 21 -9 58 -21 82 -24 53 -143 171 -193 191
-46 19 -125 19 -222 -1 -105 -22 -128 -14 -239 87 -102 92 -176 139 -220 139
-18 0 -53 -14 -85 -35 -72 -46 -80 -45 -123 12 -121 164 -287 281 -484 339
-73 22 -113 27 -233 30 -80 1 -168 -1 -196 -6z m376 -287 c146 -30 276 -92
394 -188 71 -58 73 -75 4 -31 -131 82 -280 121 -443 113 -130 -7 -201 -25
-310 -78 -155 -76 -272 -194 -351 -354 -63 -129 -79 -196 -79 -345 0 -149 16
-216 79 -345 79 -160 196 -278 351 -354 125 -61 189 -75 345 -76 114 0 146 4
210 23 77 25 174 70 223 104 45 32 30 3 -20 -40 -274 -227 -655 -280 -969
-133 -105 50 -162 89 -248 170 -183 176 -277 396 -277 651 0 255 94 475 277
651 86 81 143 120 247 169 180 84 366 105 567 63z m856 -438 c76 -107 144
-195 149 -195 6 0 111 34 235 75 123 41 225 74 226 72 1 -1 -63 -91 -143 -199
l-145 -198 145 -197 c80 -109 144 -199 143 -200 -1 -2 -103 31 -226 72 -124
41 -229 75 -235 75 -5 0 -73 -88 -150 -196 l-140 -196 -3 246 -2 245 -188 60
c-103 33 -206 65 -229 72 -24 7 -43 15 -43 19 0 4 19 12 43 19 23 7 126 40
230 72 l187 60 0 245 c0 134 1 244 3 244 2 0 66 -88 143 -195z m-528 20 c92 0
90 2 75 -88 -5 -33 -12 -41 -55 -63 -104 -53 -278 -249 -278 -313 0 -80 167
-277 283 -335 l57 -28 0 -64 0 -64 -27 7 c-36 9 -78 7 -183 -6 -321 -41 -574
57 -670 261 -30 62 -30 65 -30 233 0 169 0 170 29 220 58 102 181 192 312 229
84 23 104 25 259 18 80 -3 182 -6 228 -7z"/>
</g>
</svg>
