<?xml version="1.0" standalone="no"?>
<!DOCTYPE svg PUBLIC "-//W3C//DTD SVG 20010904//EN"
 "http://www.w3.org/TR/2001/REC-SVG-20010904/DTD/svg10.dtd">
<svg version="1.0" xmlns="http://www.w3.org/2000/svg"
 width="2048.000000pt" height="2048.000000pt" viewBox="0 0 2048.000000 2048.000000"
 preserveAspectRatio="xMidYMid meet">
<metadata>
Created by potrace 1.13, written by Peter Selinger 2001-2015
</metadata>
<g transform="translate(0.000000,2048.000000) scale(0.192120,-0.192120)"
fill="#000000" stroke="none">
<path d="M1247 8924 c-399 -72 -737 -366 -862 -751 -55 -168 -55 -163 -55
-1400 l0 -1143 5000 0 5000 0 0 355 0 355 -3335 0 -3335 0 0 305 0 305 3335
-2 3335 -3 0 355 0 355 -3335 -3 -3335 -2 0 305 0 305 3290 0 c1810 0 3290 2
3290 5 0 14 -67 136 -103 190 -59 87 -197 225 -283 285 -100 69 -242 135 -361
168 l-98 27 -4035 2 c-3449 1 -4046 -1 -4113 -13z m2575 -194 c10 0 18 -4 18
-10 0 -5 18 -10 40 -10 22 0 40 -4 40 -10 0 -6 944 -11 2718 -12 l2717 -3 96
-27 c137 -37 229 -88 229 -125 0 -38 41 -38 -2907 -41 -1845 -2 -2853 -6
-2853 -12 0 -6 -18 -10 -40 -10 -22 0 -40 -4 -40 -9 0 -5 -14 -11 -31 -15 -18
-3 -51 -27 -83 -60 l-54 -54 -6 36 c-8 49 -8 347 0 405 l7 46 66 -45 c36 -24
74 -44 83 -44z m-352 -247 c0 -147 -11 -223 -32 -223 -4 0 -8 -137 -8 -305 0
-168 4 -305 8 -305 25 0 32 -78 32 -350 0 -272 -7 -350 -32 -350 -4 0 -8 -137
-8 -305 0 -168 4 -305 8 -305 22 0 32 -76 32 -248 l0 -182 -1430 0 -1430 0 0
1070 c0 1047 0 1072 20 1130 90 267 371 478 692 519 35 5 532 9 1106 10 l1042
1 0 -157z m318 -1015 c12 -10 29 -18 37 -18 8 0 15 -4 15 -10 0 -5 18 -10 40
-10 22 0 40 -4 40 -10 0 -7 1027 -10 3060 -10 3053 0 3060 0 3060 -20 0 -13 7
-20 20 -20 18 0 20 -7 20 -80 0 -73 -2 -80 -20 -80 -11 0 -20 -7 -20 -15 0
-13 -347 -15 -3060 -15 -2033 0 -3060 -3 -3060 -10 0 -5 -18 -10 -40 -10 -22
0 -40 -4 -40 -10 0 -5 -7 -10 -16 -10 -18 0 -99 -63 -129 -100 l-20 -24 -6 29
c-9 40 -11 449 -2 498 l6 38 46 -48 c25 -26 56 -56 69 -65z m0 -1310 c12 -10
29 -18 37 -18 8 0 15 -4 15 -10 0 -5 18 -10 40 -10 22 0 40 -4 40 -10 0 -7
1027 -10 3060 -10 3053 0 3060 0 3060 -20 0 -13 7 -20 20 -20 18 0 20 -7 20
-80 0 -73 -2 -80 -20 -80 -11 0 -20 -7 -20 -15 0 -13 -347 -15 -3060 -15
-2033 0 -3060 -3 -3060 -10 0 -5 -18 -10 -40 -10 -22 0 -40 -4 -40 -10 0 -5
-8 -10 -18 -10 -9 0 -45 -19 -80 -41 -35 -23 -66 -38 -70 -34 -10 9 -15 374
-7 451 l6 62 47 -46 c26 -26 57 -55 70 -64z M1929 8311 c-24 -15 -74 -59 -110
-97 -67 -70 -111 -146 -178 -304 -58 -136 -80 -149 -257 -150 -185 0 -262 -25
-365 -118 -151 -137 -156 -212 -24 -386 61 -82 136 -154 237 -231 50 -38 68
-58 72 -82 7 -35 7 -38 -40 -212 -38 -140 -46 -271 -20 -332 37 -88 142 -196
211 -219 63 -21 141 12 332 138 219 147 199 147 420 -1 165 -110 222 -137 289
-137 56 0 105 26 158 83 41 45 86 118 86 139 0 10 5 18 10 18 24 0 10 155 -24
281 -46 168 -55 216 -47 244 3 13 36 46 72 74 194 147 339 334 339 439 0 50
-39 111 -123 189 -96 89 -139 103 -352 112 -97 5 -180 13 -192 20 -28 14 -63
74 -102 174 -64 162 -123 250 -223 334 -74 62 -104 66 -169 24z m125 -316 c25
-82 72 -231 104 -330 l58 -180 360 2 359 1 -30 -23 c-16 -14 -147 -108 -290
-211 -143 -103 -261 -187 -261 -188 -1 0 48 -153 110 -339 61 -185 109 -337
106 -337 -3 0 -133 94 -289 208 l-284 209 -191 -140 c-105 -77 -233 -171 -284
-209 -52 -38 -95 -68 -97 -66 -2 2 45 154 106 338 60 183 106 337 102 340 -4
4 -125 92 -268 194 -143 103 -271 195 -285 206 -25 18 -19 18 335 13 l360 -6
92 289 c51 159 100 313 109 343 8 29 19 50 23 45 5 -5 29 -76 55 -159z M10257
8111 c-30 -97 -19 -172 41 -271 l27 -45 3 29 c6 46 -18 222 -37 284 l-18 57
-16 -54z M10303 6758 c-13 -25 -23 -53 -23 -62 0 -9 -4 -16 -10 -16 -5 0 -10
-18 -10 -40 0 -22 5 -40 10 -40 6 0 10 -10 10 -21 0 -12 10 -38 23 -58 l22
-36 3 77 c2 42 2 114 0 159 l-3 82 -22 -45z M10314 5467 c-15 -18 -44 -78 -44
-94 0 -7 -4 -13 -10 -13 -5 0 -10 -16 -10 -35 0 -19 5 -35 10 -35 6 0 10 -7
10 -15 0 -8 13 -36 30 -63 l30 -47 0 158 c0 86 -1 157 -2 157 -2 -1 -8 -6 -14
-13z M330 5320 c0 -71 4 -130 8 -130 5 0 16 19 26 43 10 23 22 52 28 65 8 16
8 28 0 45 -6 12 -18 41 -28 65 -10 23 -21 42 -26 42 -4 0 -8 -58 -8 -130z
M330 4675 l0 -355 5000 0 5000 0 0 355 0 355 -5000 0 -5000 0 0 -355z m9710
-10 l0 -75 -4720 0 -4720 0 0 75 0 75 4720 0 4720 0 0 -75z M10315 4157 c-18
-24 -45 -78 -45 -93 0 -8 -4 -14 -10 -14 -5 0 -10 -16 -10 -35 0 -19 5 -35 10
-35 6 0 10 -11 10 -25 0 -14 5 -25 10 -25 6 0 10 -6 10 -13 0 -8 9 -24 20 -37
l20 -23 0 156 c0 87 -1 157 -2 157 -2 -1 -7 -6 -13 -13z M330 4017 c0 -82 3
-146 8 -143 4 2 15 22 26 43 10 21 22 46 27 55 12 24 11 78 -1 78 -5 0 -10 11
-10 25 0 14 -4 25 -10 25 -5 0 -10 6 -10 13 0 7 -7 22 -15 33 -13 17 -14 3
-15 -129z M330 3360 l0 -355 5000 0 5000 0 0 355 0 355 -5000 0 -5000 0 0
-355z m9710 -5 l0 -75 -4720 0 -4720 0 0 75 0 75 4720 0 4720 0 0 -75z M10288
2816 c-21 -30 -38 -61 -38 -70 0 -9 -4 -16 -10 -16 -23 0 -1 -176 28 -224 14
-24 49 136 58 269 4 52 5 95 3 95 -2 0 -21 -25 -41 -54z M335 2770 c7 -94 25
-202 43 -250 9 -23 11 -21 26 29 18 60 22 181 6 181 -5 0 -10 11 -10 25 0 14
-4 25 -10 25 -5 0 -10 5 -10 10 0 6 -5 16 -10 23 -6 7 -18 21 -26 32 -14 18
-15 11 -9 -75z M420 2395 c0 -15 69 -139 111 -201 59 -85 201 -225 288 -284
92 -62 236 -127 348 -158 l98 -27 4065 0 4065 0 98 27 c119 33 261 99 361 168
86 60 224 198 283 285 36 54 103 176 103 190 0 3 -2209 5 -4910 5 -2701 0
-4910 -2 -4910 -5z m9074 -281 c36 -5 46 -11 46 -25 0 -11 -6 -19 -14 -19 -8
0 -16 -4 -18 -8 -3 -9 -71 -34 -143 -55 -51 -14 -7827 -22 -7980 -8 -94 9
-236 45 -243 63 -2 4 -10 8 -18 8 -8 0 -14 9 -14 19 0 15 8 21 33 24 54 7
8301 7 8351 1z"/>
</g>
</svg>
