<?xml version="1.0" standalone="no"?>
<!DOCTYPE svg PUBLIC "-//W3C//DTD SVG 20010904//EN"
 "http://www.w3.org/TR/2001/REC-SVG-20010904/DTD/svg10.dtd">
<svg version="1.0" xmlns="http://www.w3.org/2000/svg"
 width="2048.000000pt" height="2048.000000pt" viewBox="0 0 2048.000000 2048.000000"
 preserveAspectRatio="xMidYMid meet">
<metadata>
Created by potrace 1.13, written by Peter Selinger 2001-2015
</metadata>
<g transform="translate(0.000000,2048.000000) scale(0.192120,-0.192120)"
fill="#000000" stroke="none">
<path d="M1236 8924 c-397 -78 -727 -370 -851 -751 -58 -176 -55 -35 -55
-2838 0 -1657 4 -2605 10 -2650 25 -177 91 -345 189 -488 61 -88 184 -212 272
-274 91 -65 251 -139 366 -171 l98 -27 4065 0 4065 0 98 27 c377 104 667 377
785 738 55 168 52 14 52 2840 0 2882 4 2683 -64 2876 -130 362 -446 637 -823
713 l-101 21 -4019 -1 c-3353 -1 -4029 -3 -4087 -15z m8187 -257 c92 -23 208
-70 280 -114 79 -48 174 -128 182 -153 3 -11 22 -44 42 -72 71 -106 122 -236
143 -363 6 -38 10 -1021 10 -2696 l0 -2637 -21 -68 c-11 -38 -45 -116 -75
-174 -66 -130 -72 -146 -90 -244 -7 -43 -16 -81 -19 -84 -2 -3 -28 11 -57 30
-53 35 -8715 6289 -8922 6441 -95 70 -106 82 -87 88 11 5 98 15 193 24 95 9
216 22 268 29 78 11 820 13 4090 12 3739 -2 3999 -3 4063 -19z m-8507 -415
c178 -117 8505 -6140 8515 -6160 11 -19 10 -24 -7 -37 -54 -41 49 -40 -3324
-43 -1779 -2 -3254 0 -3276 3 -23 3 -50 12 -60 20 -18 13 -14 18 57 87 50 49
86 94 108 138 30 59 34 75 39 177 l5 112 43 58 c58 78 104 172 104 215 0 86
-136 235 -269 295 -64 29 -94 52 -186 142 -106 104 -156 141 -190 141 -38 0
-94 -40 -204 -144 -86 -82 -135 -121 -186 -146 -121 -60 -265 -215 -265 -285
0 -35 51 -138 101 -204 40 -53 41 -55 49 -168 7 -94 14 -126 36 -172 26 -53
122 -160 189 -210 28 -22 29 -23 11 -36 -31 -23 -109 -27 -516 -22 -426 4
-445 6 -589 64 -174 70 -321 194 -403 343 -86 157 -78 -142 -76 2935 l3 2740
33 68 c79 160 125 176 258 89z m1609 -5203 c25 -90 48 -173 51 -183 6 -18 15
-19 192 -12 153 6 184 5 174 -6 -6 -7 -72 -58 -146 -113 -74 -55 -135 -104
-135 -110 -1 -5 24 -86 54 -180 30 -93 53 -170 52 -171 -1 -2 -67 48 -147 111
l-144 114 -26 -19 c-14 -10 -79 -59 -145 -108 -66 -50 -121 -90 -122 -89 -1 2
23 80 54 175 30 95 54 174 52 176 -2 2 -68 51 -146 110 -79 58 -143 109 -143
112 0 3 80 2 179 -2 l179 -7 30 99 c17 54 42 139 57 187 15 49 29 87 31 84 2
-2 25 -78 49 -168z m52 -960 c99 -51 57 -75 -127 -73 -99 2 -160 14 -160 31 0
5 30 23 68 41 81 39 143 39 219 1z M7600 8511 c-139 -43 -408 -256 -529 -420
-65 -88 -124 -198 -157 -296 -22 -65 -28 -104 -32 -208 -2 -70 -9 -130 -13
-133 -5 -3 -9 -18 -9 -33 0 -43 -45 -47 -102 -9 -146 98 -228 114 -430 80 -68
-12 -160 -25 -205 -31 -98 -12 -146 -35 -197 -92 -34 -37 -38 -46 -34 -83 3
-26 20 -64 42 -98 53 -79 48 -94 -46 -144 -261 -140 -468 -382 -619 -722 -51
-114 -64 -215 -35 -270 18 -36 70 -87 106 -107 30 -16 183 -35 226 -28 18 3
92 -10 176 -31 128 -32 150 -35 194 -26 101 21 380 30 415 14 13 -7 38 -17 54
-24 17 -6 42 -28 58 -48 175 -232 231 -294 362 -392 39 -29 101 -68 140 -87
61 -29 79 -33 150 -33 63 0 103 -8 184 -33 90 -29 117 -44 205 -109 55 -41
128 -93 161 -114 33 -22 65 -44 70 -51 6 -7 47 -30 91 -53 45 -22 87 -47 94
-55 15 -18 6 -50 -27 -93 -34 -45 -39 -91 -17 -138 24 -50 100 -126 153 -153
22 -12 41 -26 41 -31 0 -15 74 -49 142 -65 139 -33 292 -8 467 76 110 52 128
52 116 0 -18 -73 -127 -143 -285 -182 -145 -35 -232 -94 -260 -176 -14 -40 0
-75 50 -123 157 -151 488 -144 750 15 94 57 207 191 260 308 63 140 72 194 68
440 -3 221 -3 222 -36 317 -18 52 -62 153 -96 225 -69 142 -81 172 -91 225 -4
19 -22 100 -41 180 -39 158 -39 161 15 229 46 58 61 105 61 192 0 54 -7 102
-24 156 -13 43 -29 103 -36 133 -6 30 -16 73 -22 95 -16 63 -81 191 -150 295
-35 52 -80 131 -101 174 -43 90 -71 129 -172 236 -41 44 -84 103 -104 143 -38
76 -151 191 -221 227 -57 29 -177 58 -269 66 -116 10 -116 10 -129 190 -8 114
-16 168 -36 229 -15 45 -31 122 -35 175 -11 117 -17 132 -75 196 -68 77 -135
99 -216 75z m143 -155 c-1 -14 -25 -66 -52 -116 -28 -49 -51 -94 -51 -100 0
-6 18 -7 45 -3 44 6 45 5 45 -21 0 -15 -9 -44 -20 -66 -27 -53 -26 -56 19 -52
48 5 83 -12 74 -36 -3 -9 -25 -42 -49 -74 -56 -71 -57 -88 -6 -88 46 0 78 -20
69 -43 -3 -9 -31 -36 -62 -59 -30 -24 -55 -48 -55 -54 0 -6 18 -24 40 -39 22
-15 40 -30 40 -32 0 -20 -36 -62 -123 -145 -56 -53 -99 -99 -95 -103 3 -3 30
6 60 21 192 97 406 115 643 54 78 -21 192 -66 184 -74 -2 -2 -39 -18 -81 -36
-43 -17 -80 -35 -83 -40 -2 -4 23 -21 58 -38 89 -44 367 -258 367 -283 0 -5
-11 -9 -24 -9 -13 0 -38 -3 -55 -6 l-31 -7 30 -16 c41 -22 116 -114 214 -261
98 -147 122 -187 115 -195 -3 -3 -23 2 -43 10 l-37 16 25 -38 c53 -80 162
-400 143 -419 -8 -8 -42 14 -135 88 -41 32 -78 56 -82 53 -5 -3 0 -29 12 -58
28 -69 35 -117 16 -117 -8 0 -33 16 -55 35 -73 63 -73 35 1 -66 29 -41 62 -92
73 -114 44 -89 85 -245 98 -380 6 -61 14 -80 58 -149 187 -295 233 -569 141
-848 -63 -190 -225 -342 -420 -393 -95 -25 -209 -29 -293 -11 -71 15 -161 51
-161 64 0 4 62 7 138 8 151 0 222 14 328 65 265 126 371 479 253 844 -38 119
-45 128 -54 74 -13 -77 -63 -192 -114 -259 -82 -109 -206 -195 -356 -246 -152
-52 -305 -32 -463 61 -61 36 -134 104 -97 91 375 -135 682 -14 858 339 32 65
47 118 61 221 5 39 2 46 -61 130 -36 48 -119 142 -182 207 -138 142 -390 362
-401 350 -4 -4 -10 -17 -12 -28 -2 -11 -11 -21 -21 -23 -10 -2 -75 28 -146 67
-126 70 -161 83 -161 59 0 -7 16 -58 35 -112 42 -119 43 -131 13 -121 -60 18
-68 18 -68 -3 0 -23 81 -139 177 -254 66 -79 74 -105 27 -88 -36 14 -64 12
-64 -4 0 -7 32 -60 71 -117 39 -57 86 -128 106 -157 20 -29 34 -55 31 -57 -5
-6 -11 -4 -105 34 -29 11 -53 17 -53 13 0 -4 23 -45 50 -92 28 -47 50 -91 50
-97 0 -28 -252 84 -387 173 -105 67 -222 165 -317 263 -38 40 -71 69 -75 66
-3 -4 -4 -33 -3 -66 2 -33 -1 -59 -6 -59 -16 0 -123 85 -177 139 -27 28 -53
51 -57 51 -4 0 -7 -36 -5 -79 1 -44 -1 -83 -5 -87 -14 -14 -235 173 -371 315
-126 131 -170 233 -183 428 -4 51 -10 93 -13 93 -3 -1 -29 -35 -58 -78 -57
-85 -139 -182 -154 -182 -5 0 -6 40 -3 99 5 71 4 100 -5 105 -8 5 -54 -34
-126 -105 -63 -62 -118 -109 -122 -106 -3 4 1 41 11 82 31 133 17 133 -129 -6
-52 -50 -99 -88 -105 -84 -15 9 -12 54 6 108 29 85 16 88 -64 14 -41 -37 -78
-67 -84 -67 -10 0 -7 50 8 113 10 42 -21 35 -106 -24 -40 -27 -86 -57 -102
-65 -35 -18 -37 -6 -8 61 41 96 27 96 -68 2 -48 -48 -91 -87 -95 -87 -19 0 -1
53 62 179 140 280 234 416 376 549 86 80 176 129 269 145 93 16 190 -6 351
-77 69 -31 144 -59 165 -62 50 -8 84 12 100 61 25 75 -48 147 -224 220 -69 30
-103 51 -141 89 -41 42 -69 58 -150 90 -135 53 -199 86 -189 96 5 5 74 0 156
-12 l147 -21 119 26 c184 41 191 39 301 -66 117 -112 254 -186 307 -167 31 12
53 52 74 136 19 72 19 81 4 182 -39 261 7 431 170 623 99 117 316 287 439 345
61 28 73 26 70 -10z m523 -2672 c77 -52 155 -123 241 -220 107 -122 113 -132
113 -190 0 -141 -119 -309 -260 -369 -31 -13 -102 -19 -130 -10 -28 9 -25 33
13 90 41 61 77 170 77 230 0 27 -11 72 -29 112 -45 107 -53 134 -61 198 -5 33
-16 81 -25 108 -28 79 -7 97 61 51z M8210 6128 c1 -17 23 -38 86 -83 133 -92
267 -207 411 -353 l132 -133 -15 53 c-25 85 -67 179 -120 267 -51 87 -169 241
-184 241 -5 0 -11 -13 -15 -29 -13 -59 -25 -59 -151 3 -64 31 -122 56 -130 56
-8 0 -14 -10 -14 -22z M2404 6724 c-21 -14 -84 -70 -139 -124 -75 -73 -119
-107 -175 -135 -123 -62 -270 -219 -270 -289 0 -34 50 -136 99 -201 39 -52 40
-56 50 -169 8 -90 16 -128 37 -172 30 -63 144 -187 188 -204 44 -16 101 -12
172 15 86 32 126 32 217 -5 98 -39 140 -39 201 1 56 37 102 93 146 174 30 55
33 69 38 174 5 108 6 115 36 155 75 99 116 181 116 233 0 49 -40 111 -124 191
-56 53 -88 75 -137 93 -55 21 -80 40 -181 139 -163 159 -198 175 -274 124z
m122 -325 c24 -90 47 -172 50 -181 5 -16 20 -17 190 -11 101 3 184 3 184 0 0
-3 -64 -54 -142 -113 -79 -59 -145 -108 -147 -110 -2 -2 21 -83 52 -181 31
-97 55 -178 54 -179 -1 -2 -67 49 -146 112 -79 63 -145 114 -146 114 -1 0 -63
-46 -136 -101 -74 -56 -139 -103 -145 -106 -7 -2 13 73 43 167 30 95 53 173
51 174 -2 2 -67 51 -145 110 -79 59 -143 110 -143 113 0 3 81 3 179 0 l180 -7
26 88 c66 217 87 283 91 279 2 -2 25 -78 50 -168z M3531 5409 c-23 -12 -93
-70 -155 -129 -79 -76 -132 -118 -183 -144 -126 -66 -263 -213 -263 -284 0
-34 52 -140 99 -202 22 -30 41 -57 41 -60 0 -3 5 -56 10 -118 8 -96 13 -121
40 -170 56 -106 178 -212 242 -212 13 0 65 14 116 32 104 35 105 35 250 -17
62 -22 78 -24 112 -15 59 16 150 105 195 191 36 68 38 78 43 185 l5 113 44 58
c55 73 103 172 103 212 0 18 -10 51 -21 74 -29 56 -147 170 -204 196 -25 12
-65 30 -89 41 -28 13 -73 53 -126 111 -84 92 -148 143 -191 154 -15 3 -41 -3
-68 -16z m103 -329 c21 -74 42 -150 47 -167 l11 -33 185 0 186 0 -146 -110
c-81 -61 -147 -114 -147 -118 0 -4 25 -83 54 -177 30 -93 53 -171 51 -173 -2
-2 -63 45 -137 103 -73 59 -139 109 -146 112 -6 3 -76 -43 -154 -101 -78 -58
-143 -105 -144 -103 -2 2 22 78 52 171 37 113 52 171 45 179 -5 7 -70 57 -145
112 l-135 100 179 3 179 2 31 103 c31 100 67 217 76 247 8 24 18 0 58 -150z
M1313 5310 c-24 -11 -92 -66 -156 -128 -86 -84 -131 -119 -187 -147 -119 -60
-270 -221 -270 -287 0 -26 68 -154 108 -204 40 -51 41 -54 45 -145 6 -125 14
-154 54 -219 68 -107 167 -190 228 -190 18 0 72 14 121 31 100 35 106 34 245
-17 70 -26 79 -27 118 -15 57 17 159 118 195 195 22 47 29 80 36 176 l9 119
47 63 c51 68 104 175 104 208 0 78 -141 228 -272 289 -72 34 -96 52 -182 140
-140 143 -175 162 -243 131z m101 -350 l49 -180 186 -2 185 -3 -146 -109
c-138 -103 -146 -110 -137 -135 47 -146 100 -323 97 -326 -2 -2 -66 45 -142
106 -77 60 -142 109 -146 109 -4 0 -70 -47 -146 -105 -76 -57 -140 -103 -142
-101 -2 2 21 80 51 174 l54 170 -145 108 -146 109 180 3 180 2 54 180 c29 99
56 180 60 180 3 0 27 -81 54 -180z M2880 4144 c-36 -20 -84 -52 -108 -71 -68
-56 -185 -196 -205 -246 -18 -46 -18 -46 8 -134 50 -164 82 -222 172 -308 78
-76 101 -84 229 -87 98 -3 113 -1 146 20 92 57 187 194 224 322 33 118 37 150
26 188 -15 50 -140 202 -205 251 -71 53 -164 101 -196 101 -14 0 -55 -16 -91
-36z m125 -254 l21 -75 92 1 c51 1 92 -1 92 -5 0 -3 -32 -28 -70 -56 -38 -27
-69 -54 -70 -60 0 -5 12 -45 25 -89 14 -43 24 -80 22 -82 -1 -2 -34 21 -71 51
-38 30 -71 55 -75 55 -3 0 -35 -23 -71 -51 -35 -28 -66 -47 -67 -42 -2 5 8 42
22 82 13 40 22 77 20 82 -3 4 -35 29 -70 55 -36 26 -65 51 -65 54 0 4 39 6 87
6 l87 -1 23 75 c12 41 26 82 29 90 8 18 9 16 39 -90z"/>
</g>
</svg>
