<?xml version="1.0" standalone="no"?>
<!DOCTYPE svg PUBLIC "-//W3C//DTD SVG 20010904//EN"
 "http://www.w3.org/TR/2001/REC-SVG-20010904/DTD/svg10.dtd">
<svg version="1.0" xmlns="http://www.w3.org/2000/svg"
 width="2048.000000pt" height="2048.000000pt" viewBox="0 0 2048.000000 2048.000000"
 preserveAspectRatio="xMidYMid meet">
<metadata>
Created by potrace 1.13, written by Peter Selinger 2001-2015
</metadata>
<g transform="translate(0.000000,2048.000000) scale(0.192120,-0.192120)"
fill="#000000" stroke="none">
<path d="M1247 8924 c-312 -56 -601 -256 -760 -523 -55 -91 -98 -197 -129
-312 l-23 -84 -3 -2645 c-2 -1969 0 -2664 9 -2719 39 -255 203 -524 416 -686
111 -83 278 -167 408 -202 l100 -28 4065 0 4065 0 98 27 c413 114 711 424 814
847 13 55 17 151 20 566 l4 500 -3698 -3 -3698 -2 74 52 c41 29 212 155 380
280 l306 227 3318 1 3317 0 0 1110 0 1110 -3317 0 -3318 1 -307 228 c-168 125
-332 245 -362 266 l-56 38 -30 -28 c-64 -61 -46 -146 54 -252 64 -69 353 -290
494 -379 46 -29 114 -65 150 -81 l67 -28 3168 -3 c3155 -2 3167 -2 3167 -22 0
-13 7 -20 20 -20 20 0 20 -7 20 -820 0 -813 0 -820 -20 -820 -15 0 -20 -7 -20
-25 l0 -25 -3122 0 c-1957 0 -3145 -4 -3182 -10 -63 -10 -161 -52 -241 -103
-60 -38 -322 -225 -385 -275 -162 -128 -274 -280 -254 -346 3 -12 20 -36 38
-54 27 -29 29 -35 16 -45 -87 -69 -2024 -1506 -2061 -1529 l-27 -17 -32 92
c-18 51 -48 116 -67 145 -18 29 -52 92 -75 140 l-43 87 0 2775 0 2775 62 126
c67 138 78 169 93 278 6 41 13 78 16 83 3 4 26 -6 52 -24 59 -40 2012 -1489
2069 -1534 l41 -34 3697 0 3696 0 -4 498 c-3 412 -7 508 -20 563 -54 223 -149
396 -302 551 -137 138 -317 242 -512 296 l-98 27 -4035 2 c-3449 1 -4046 -1
-4113 -13z m8100 -305 c280 -38 517 -199 631 -428 l37 -75 3 -418 3 -418
-3493 -4 c-1921 -3 -3516 -6 -3545 -7 -43 -2 -61 3 -100 28 -56 34 -1460 1075
-1575 1167 -42 33 -83 73 -92 87 -14 24 -14 28 2 42 9 8 44 20 77 25 88 14
7949 15 8052 1z m-6337 -5215 c25 -8 88 -18 140 -24 61 -6 1313 -10 3488 -10
l3392 0 0 -400 0 -400 -27 -67 c-105 -264 -341 -445 -643 -492 -43 -7 -1386
-11 -4027 -12 l-3962 -1 -104 22 c-70 15 -114 30 -133 45 -51 41 -101 -1 801
669 99 73 313 232 476 353 494 368 472 356 599 317z M10301 6784 c-18 -36 -22
-57 -19 -96 3 -28 9 -53 14 -57 5 -3 15 -17 21 -31 10 -20 12 -2 12 103 1 70
0 127 -2 127 -2 0 -14 -21 -26 -46z M1815 6551 c-45 -21 -101 -77 -133 -134
-39 -69 -52 -145 -58 -360 -6 -185 -9 -206 -25 -210 -13 -4 -19 -17 -21 -47
l-3 -43 -180 -61 c-214 -73 -305 -119 -374 -189 -56 -57 -101 -127 -101 -159
0 -42 82 -136 170 -195 60 -41 93 -55 305 -128 147 -51 181 -66 183 -83 2 -11
11 -22 21 -25 16 -4 18 -25 24 -229 3 -124 11 -245 17 -269 27 -104 36 -124
68 -163 48 -57 109 -96 152 -96 81 0 187 93 348 305 145 191 164 208 230 207
20 -1 111 -24 201 -52 352 -108 418 -107 524 9 46 51 47 54 47 116 0 55 -5 74
-40 140 -22 42 -93 154 -157 248 -89 132 -117 180 -120 212 -4 38 3 51 121
228 138 204 177 275 196 353 12 46 11 56 -5 90 -20 44 -88 119 -125 138 -72
38 -159 26 -434 -59 -101 -31 -198 -55 -223 -55 -39 0 -49 5 -91 48 -26 26
-76 88 -111 137 -115 161 -212 266 -286 310 -59 34 -76 36 -120 16z m62 -168
c26 -38 135 -189 242 -338 107 -148 195 -271 196 -272 1 -2 182 58 403 131
221 74 402 132 402 130 0 -3 -22 -32 -49 -67 -26 -34 -135 -181 -241 -327
-106 -146 -196 -270 -201 -276 -7 -9 270 -400 466 -659 17 -22 24 -37 15 -33
-8 3 -188 63 -399 133 -247 82 -389 124 -397 119 -7 -5 -52 -63 -99 -129 -47
-66 -155 -215 -238 -332 l-152 -212 -3 422 -2 422 -238 77 c-130 42 -311 100
-402 129 l-165 53 140 44 c77 24 258 82 403 128 l262 85 0 420 c0 230 2 419 4
419 3 0 26 -30 53 -67z M10301 4027 c-20 -36 -23 -54 -19 -101 3 -32 9 -61 15
-64 5 -4 14 -16 19 -27 10 -23 17 74 12 176 l-3 60 -24 -44z"/>
</g>
</svg>
