<?xml version="1.0" standalone="no"?>
<!DOCTYPE svg PUBLIC "-//W3C//DTD SVG 20010904//EN"
 "http://www.w3.org/TR/2001/REC-SVG-20010904/DTD/svg10.dtd">
<svg version="1.0" xmlns="http://www.w3.org/2000/svg"
 width="2048.000000pt" height="2048.000000pt" viewBox="0 0 2048.000000 2048.000000"
 preserveAspectRatio="xMidYMid meet">
<metadata>
Created by potrace 1.13, written by Peter Selinger 2001-2015
</metadata>
<g transform="translate(0.000000,2048.000000) scale(0.192120,-0.192120)"
fill="#000000" stroke="none">
<path d="M1320 10324 c-273 -42 -463 -131 -640 -301 -176 -167 -284 -364 -332
-603 -19 -96 -19 -8084 0 -8180 80 -398 361 -723 733 -849 180 -60 -136 -56
4249 -56 3399 0 4036 2 4095 14 398 79 726 367 848 746 55 171 52 -100 52
4235 0 4335 3 4064 -52 4235 -51 157 -132 292 -250 415 -160 169 -333 267
-572 328 -61 15 -367 16 -4086 18 -2211 1 -4031 0 -4045 -2z m8089 -287 c294
-72 494 -221 609 -457 l37 -75 0 -4165 0 -4165 -28 -69 c-120 -296 -384 -481
-736 -516 -74 -8 -1306 -10 -4041 -8 -3625 4 -3940 5 -4000 20 -334 86 -563
284 -649 562 l-21 68 0 4104 0 4105 21 62 c63 189 239 375 443 467 83 38 192
68 287 79 41 5 1846 8 4039 7 3772 -1 3969 -2 4039 -19z M4350 8686 c-87 -20
-130 -35 -210 -78 -202 -108 -371 -311 -440 -531 -19 -61 -20 -120 -20 -2698
l0 -2637 21 -68 c44 -144 165 -341 265 -435 154 -144 309 -210 539 -229 160
-13 2094 -13 2244 0 359 32 626 256 751 629 28 82 30 100 30 232 0 89 -5 163
-14 194 -39 148 -127 298 -240 411 -100 99 -207 163 -347 206 -73 22 -80 22
-786 26 l-713 3 0 44 c0 33 -4 45 -15 45 -13 0 -15 248 -18 2048 l-3 2047 -22
95 c-12 52 -26 104 -31 115 -5 11 -26 56 -46 100 -111 243 -338 428 -587 479
-91 19 -277 20 -358 2z m370 -250 c169 -47 305 -156 379 -306 83 -169 76 41
76 -2453 l0 -2217 821 0 c788 0 824 -1 899 -20 244 -62 410 -266 431 -529 20
-255 -154 -518 -399 -600 -117 -40 -196 -42 -1367 -39 -1120 3 -1125 3 -1202
25 -273 77 -434 273 -468 569 -14 124 -14 4919 0 5032 39 305 233 507 535 556
54 8 239 -3 295 -18z"/>
</g>
</svg>
