<?xml version="1.0" standalone="no"?>
<!DOCTYPE svg PUBLIC "-//W3C//DTD SVG 20010904//EN"
 "http://www.w3.org/TR/2001/REC-SVG-20010904/DTD/svg10.dtd">
<svg version="1.0" xmlns="http://www.w3.org/2000/svg"
 width="2048.000000pt" height="2048.000000pt" viewBox="0 0 2048.000000 2048.000000"
 preserveAspectRatio="xMidYMid meet">
<metadata>
Created by potrace 1.13, written by Peter Selinger 2001-2015
</metadata>
<g transform="translate(0.000000,2048.000000) scale(0.192120,-0.192120)"
fill="#000000" stroke="none">
<path d="M1239 8924 c-336 -61 -640 -287 -793 -592 -50 -99 -92 -230 -106
-327 -8 -58 -10 -817 -8 -2725 l3 -2645 28 -95 c56 -192 176 -393 304 -510
138 -127 323 -229 500 -278 l98 -27 4065 0 4065 0 98 27 c195 54 372 156 511
296 154 155 246 323 303 551 16 61 17 282 21 2686 2 1902 0 2642 -8 2699 -64
448 -381 802 -830 927 l-85 24 -4045 2 c-3407 1 -4057 -1 -4121 -13z m1886
-1919 c1232 -837 2298 -1560 2369 -1607 l128 -86 -43 -28 c-24 -15 -1127 -753
-2450 -1640 -1324 -888 -2413 -1616 -2421 -1619 -9 -4 -34 15 -65 48 -41 43
-53 64 -62 108 -6 30 -29 92 -50 139 -61 134 -101 248 -101 289 0 10 -7 48
-16 83 -15 58 -16 285 -10 2708 7 2609 7 2646 27 2728 12 46 43 133 70 193 27
61 54 128 61 150 7 25 36 67 76 109 l63 70 92 -62 c51 -34 1100 -746 2332
-1583z m6183 1635 c167 -19 312 -71 438 -158 121 -83 232 -223 273 -344 21
-61 21 -71 21 -1380 l0 -1318 -2112 2 -2113 3 -41 22 c-22 12 -76 54 -120 94
-102 93 -158 134 -519 379 -1311 890 -3711 2521 -3755 2553 -30 22 -70 56 -88
75 -29 32 -31 38 -17 51 9 9 41 19 73 22 97 10 7869 10 7960 -1z m852 -3316
c0 -11 -45 -89 -52 -92 -5 -2 -8 -12 -8 -23 0 -10 -4 -19 -10 -19 -6 0 -11
-442 -13 -1242 l-3 -1243 -27 -95 c-52 -178 -141 -322 -259 -419 -84 -70 -234
-143 -349 -172 l-94 -24 -4010 0 c-3833 0 -4012 1 -4048 18 -72 33 -64 40 326
302 197 132 1145 768 2108 1414 963 646 1780 1197 1814 1226 88 72 149 146
174 211 25 66 26 95 6 134 l-16 30 2231 0 c1226 0 2230 -3 2230 -6z M811 7963
c21 -82 37 -153 35 -159 -3 -6 -63 -44 -135 -85 -72 -40 -131 -76 -131 -80 0
-3 69 -9 153 -13 83 -4 155 -11 159 -14 4 -4 21 -74 38 -156 17 -83 32 -152
34 -154 2 -1 30 64 61 145 32 81 59 149 60 151 1 1 64 -5 139 -13 75 -9 146
-15 158 -13 16 2 -5 24 -101 102 -66 55 -121 100 -121 101 0 1 25 57 56 126
31 68 60 135 65 147 l9 24 -37 -23 c-21 -13 -82 -51 -137 -86 l-99 -64 -26 24
c-139 125 -209 187 -214 187 -3 0 12 -66 34 -147z M2232 6987 l-34 -22 6 -245
c3 -135 9 -315 12 -401 l7 -156 -33 -7 c-18 -3 -35 -4 -37 -2 -4 3 -42 604
-43 664 0 9 -12 7 -41 -10 -22 -12 -44 -27 -50 -34 -7 -9 47 -512 66 -604 5
-24 1 -27 -67 -49 -40 -13 -99 -37 -130 -54 l-58 -32 -15 22 c-78 111 -378
481 -388 478 -6 -2 -31 -9 -55 -15 l-43 -11 38 -43 c21 -23 123 -138 226 -255
l189 -212 -24 -19 c-13 -11 -26 -19 -29 -20 -4 0 -109 109 -235 242 -126 134
-249 264 -274 290 l-45 47 -46 -10 c-46 -10 -47 -11 -54 -56 -8 -54 -48 -9
327 -363 l247 -233 -22 -27 -22 -27 -35 31 c-19 17 -131 117 -249 221 -117
105 -217 191 -221 193 -6 2 -30 -80 -30 -103 0 -3 440 -350 481 -379 16 -10
13 -19 -26 -100 -24 -49 -47 -106 -50 -127 -5 -27 -12 -39 -23 -39 -10 0 -141
16 -292 35 -151 19 -287 35 -302 35 -21 0 -34 -9 -53 -40 -14 -22 -25 -43 -25
-48 0 -5 57 -12 128 -15 70 -3 221 -12 335 -18 l208 -12 -3 -36 -3 -36 -110 3
c-60 2 -240 7 -399 12 -317 10 -294 13 -327 -47 -10 -18 -10 -28 0 -45 33 -61
-2 -58 432 -44 217 7 397 11 402 9 4 -2 7 -19 7 -37 l0 -33 -207 -12 c-115 -6
-265 -15 -335 -18 -71 -3 -128 -10 -128 -15 0 -5 11 -26 25 -48 19 -31 32 -40
53 -40 15 0 151 16 302 35 151 19 282 35 291 35 10 0 20 -17 28 -52 8 -28 31
-85 52 -127 35 -69 36 -76 20 -87 -41 -29 -481 -375 -481 -379 0 -15 23 -105
26 -105 3 0 100 84 216 188 116 103 230 203 252 223 l41 36 22 -27 22 -27
-247 -233 c-375 -354 -335 -309 -327 -363 7 -45 8 -46 54 -56 54 -12 9 -52
355 317 131 138 241 252 244 252 4 -1 17 -9 30 -20 l24 -19 -189 -212 c-103
-117 -205 -232 -226 -255 l-38 -43 43 -11 c24 -6 49 -13 55 -15 10 -3 310 367
387 477 15 21 15 21 88 -15 40 -19 99 -43 131 -53 53 -17 57 -20 52 -43 -19
-93 -73 -596 -66 -605 6 -7 28 -22 50 -34 29 -17 41 -19 41 -10 1 60 39 661
43 664 2 2 18 1 36 -2 l32 -7 -7 -221 c-3 -121 -9 -301 -13 -399 l-6 -178 38
-25 38 -25 41 23 41 23 -7 205 c-3 113 -9 293 -12 401 l-7 196 33 7 c18 3 35
5 37 3 2 -2 12 -154 23 -337 10 -182 20 -333 22 -335 2 -2 25 10 52 26 44 28
48 33 42 62 -3 18 -19 145 -36 282 -17 138 -33 264 -36 282 -6 31 -5 31 53 48
32 9 91 33 132 52 60 30 75 34 81 22 5 -8 91 -119 191 -248 l183 -233 44 6
c24 3 49 9 56 13 9 6 -38 65 -156 198 -94 105 -195 218 -225 252 l-55 63 23
20 c13 10 27 19 30 20 4 0 130 -130 279 -289 263 -280 274 -290 304 -284 52
10 63 20 70 65 7 42 6 44 -41 88 -26 24 -157 147 -290 273 l-243 229 21 27
c11 14 24 24 27 22 4 -2 117 -101 251 -220 134 -119 246 -217 250 -219 4 -1
13 21 19 50 10 41 10 54 0 64 -14 13 -441 348 -470 368 -15 11 -13 19 21 87
21 42 44 99 52 127 9 37 18 52 29 52 10 0 143 -16 296 -35 153 -19 289 -35
301 -35 16 0 30 13 49 45 14 25 25 47 23 49 -2 2 -154 11 -336 21 l-333 18 0
33 c0 18 3 35 8 37 4 2 184 -2 401 -9 434 -14 399 -17 432 44 10 17 10 27 0
45 -33 60 2 57 -432 43 -217 -7 -397 -11 -401 -9 -5 2 -8 19 -8 37 l0 33 333
18 c182 10 334 19 336 21 2 2 -9 24 -23 49 -19 32 -33 45 -49 45 -12 0 -148
-16 -302 -35 -153 -19 -286 -35 -295 -35 -11 0 -20 16 -29 52 -8 28 -31 85
-52 127 -34 68 -36 76 -21 87 29 20 456 355 470 368 10 10 10 23 0 64 -6 29
-15 51 -19 50 -7 -3 -188 -163 -420 -370 l-86 -77 -21 29 -21 28 242 229 c133
126 264 249 290 273 47 44 48 46 41 88 -7 45 -18 55 -70 65 -30 6 -41 -4 -304
-284 -149 -159 -275 -289 -279 -289 -3 1 -17 9 -30 20 l-23 20 103 117 c57 64
159 178 225 252 86 96 118 138 108 144 -7 4 -32 10 -56 13 l-44 6 -193 -246
c-106 -135 -194 -246 -196 -246 -1 0 -28 13 -59 29 -30 17 -87 40 -126 53 -70
22 -71 23 -66 53 3 16 19 143 36 280 17 138 33 264 36 282 6 29 2 34 -42 62
-27 16 -50 28 -52 26 -2 -2 -12 -153 -22 -335 -11 -183 -21 -335 -23 -337 -2
-2 -19 0 -37 3 l-33 7 7 196 c3 108 9 288 12 401 l6 205 -36 23 c-43 26 -42
26 -84 -1z m130 -1038 c38 -12 97 -35 131 -51 34 -17 101 -45 149 -64 83 -31
148 -75 148 -98 0 -6 11 -33 24 -61 141 -289 151 -357 77 -520 -99 -218 -120
-261 -140 -283 -34 -39 -419 -202 -476 -202 -32 0 -164 45 -230 77 -33 17 -97
45 -142 62 -125 50 -138 67 -234 301 -21 52 -42 110 -45 128 -4 18 -10 35 -15
38 -12 7 -12 101 0 108 4 3 11 23 15 43 5 33 31 98 116 288 26 59 54 79 165
120 55 21 123 49 150 63 60 30 181 71 213 72 13 0 55 -10 94 -21z M4706 5605
c-43 -69 -82 -127 -85 -130 -4 -2 -72 16 -151 41 -80 24 -148 43 -152 42 -4
-2 38 -56 93 -120 54 -65 99 -122 99 -127 0 -5 -38 -65 -85 -132 -47 -67 -83
-124 -80 -127 2 -2 67 21 145 52 77 31 142 56 143 56 2 0 46 -55 98 -122 l94
-122 3 40 c1 21 -1 91 -6 154 -5 65 -6 117 -1 121 5 3 72 27 149 53 77 27 140
51 140 55 0 4 -53 19 -117 35 -65 15 -135 32 -155 37 l-38 10 0 154 c0 85 -3
155 -8 155 -4 0 -43 -56 -86 -125z M890 3315 c0 -30 -22 -300 -25 -303 -1 -1
-60 -14 -131 -27 -169 -32 -178 -35 -168 -44 5 -4 68 -32 139 -61 72 -28 133
-55 137 -59 5 -4 -1 -76 -12 -161 -11 -84 -18 -155 -16 -157 1 -2 44 46 94
106 51 59 99 114 107 121 13 11 37 3 151 -50 74 -35 137 -61 140 -58 4 5 -75
140 -143 244 -12 20 -6 29 97 139 60 66 108 120 107 121 -1 2 -72 -15 -157
-36 -85 -21 -155 -38 -156 -37 -1 1 -34 61 -74 132 -80 143 -90 158 -90 130z"/>
</g>
</svg>
