<?xml version="1.0" standalone="no"?>
<!DOCTYPE svg PUBLIC "-//W3C//DTD SVG 20010904//EN"
 "http://www.w3.org/TR/2001/REC-SVG-20010904/DTD/svg10.dtd">
<svg version="1.0" xmlns="http://www.w3.org/2000/svg"
 width="2048.000000pt" height="2048.000000pt" viewBox="0 0 2048.000000 2048.000000"
 preserveAspectRatio="xMidYMid meet">
<metadata>
Created by potrace 1.13, written by Peter Selinger 2001-2015
</metadata>
<g transform="translate(0.000000,2048.000000) scale(0.192120,-0.192120)"
fill="#000000" stroke="none">
<path d="M1247 8924 c-399 -72 -737 -366 -862 -751 -58 -176 -55 -35 -55
-2838 0 -1657 4 -2605 10 -2650 25 -177 91 -345 189 -488 61 -88 184 -212 272
-274 91 -65 251 -139 366 -171 l98 -27 4065 0 4065 0 98 27 c422 117 734 449
818 873 21 105 21 5305 0 5410 -71 355 -298 646 -626 801 -52 25 -138 57 -192
72 l-98 27 -4035 2 c-3449 1 -4046 -1 -4113 -13z m2413 -3594 l0 -3460 -59 30
c-32 17 -66 30 -74 30 -9 0 -20 7 -24 15 -8 13 -140 15 -1077 15 -1165 1
-1168 1 -1284 58 -72 35 -84 58 -46 90 102 84 144 125 155 152 8 16 17 30 21
30 5 0 8 10 8 23 0 13 4 27 9 32 6 6 11 30 13 54 5 70 33 66 142 -20 123 -97
348 -246 426 -282 93 -44 162 -43 254 2 96 47 365 230 466 317 15 13 38 21 58
21 31 0 32 -2 32 -44 0 -32 4 -43 15 -43 9 0 15 -9 15 -25 0 -14 5 -25 10 -25
6 0 10 -7 10 -16 0 -28 118 -141 173 -165 46 -21 67 -23 187 -23 115 0 142 3
180 21 54 24 146 114 166 161 12 29 14 290 14 1744 0 1925 8 1739 -81 1823
-80 74 -122 88 -269 89 -160 1 -198 -10 -292 -85 -40 -32 -82 -59 -94 -59 -20
0 -127 76 -186 132 -37 35 -30 49 58 118 168 132 304 306 344 439 21 71 27
191 10 191 -5 0 -10 5 -10 10 0 38 -88 110 -133 110 -27 0 -106 -27 -185 -62
-55 -24 -98 -33 -106 -20 -3 6 13 57 36 114 40 98 42 109 46 225 3 103 1 133
-17 190 -29 95 -84 183 -168 272 -40 42 -75 86 -79 97 -3 13 6 53 20 94 23 63
26 86 26 203 0 103 -5 149 -21 207 -51 188 -153 325 -288 390 -51 26 -82 25
-134 -1 -103 -53 -191 -144 -243 -254 -55 -118 -64 -162 -64 -334 0 -131 3
-165 20 -211 33 -90 30 -101 -57 -191 -86 -88 -146 -178 -168 -253 -10 -33
-15 -95 -15 -189 0 -139 0 -139 40 -238 22 -55 40 -106 40 -114 0 -25 -31 -17
-119 34 -113 64 -151 76 -194 62 -44 -15 -90 -61 -118 -118 -19 -39 -21 -56
-16 -121 5 -66 13 -92 56 -177 63 -128 152 -232 282 -332 121 -93 130 -113 74
-158 -21 -16 -61 -49 -88 -72 -28 -24 -60 -43 -71 -43 -10 0 -51 24 -91 54
-122 92 -120 91 -290 91 -127 0 -155 -3 -184 -18 -25 -14 -36 -16 -41 -7 -5 8
-19 2 -44 -20 l-36 -32 2 1123 3 1124 43 84 c74 146 184 278 293 354 64 43
178 94 267 119 77 22 82 22 1185 25 966 3 1107 5 1107 18 0 9 10 15 24 15 14
0 31 6 38 13 11 10 88 56 96 57 1 0 2 -1557 2 -3460z m3400 3431 c14 -9 28
-19 31 -24 3 -5 34 -11 68 -14 41 -4 61 -10 61 -19 0 -11 189 -14 1078 -16
1068 -3 1078 -3 1153 -25 307 -87 500 -264 603 -551 l26 -73 0 -2708 0 -2707
-24 -70 c-97 -286 -302 -479 -601 -566 l-80 -23 -1077 -3 c-889 -2 -1078 -5
-1078 -16 0 -9 -19 -15 -60 -19 -33 -3 -75 -14 -93 -24 -17 -11 -40 -22 -49
-26 -17 -6 -18 163 -18 3453 0 3290 1 3459 18 3453 9 -4 28 -13 42 -22z m-210
-3441 l0 -3330 -1530 0 -1530 0 0 3330 0 3330 1530 0 1530 0 0 -3330z m-4805
3036 c85 -90 166 -312 167 -456 1 -178 -55 -261 -188 -276 -109 -13 -201 45
-230 144 -46 159 33 458 154 585 20 20 42 37 50 37 8 0 29 -15 47 -34z m86
-866 c141 -48 243 -153 284 -294 27 -92 18 -213 -22 -299 -142 -302 -545 -346
-745 -82 -98 129 -114 316 -39 464 49 95 176 196 277 220 71 17 180 12 245 -9z
m-872 -878 c112 -109 285 -203 458 -249 87 -23 117 -26 273 -27 148 0 188 3
262 22 203 51 360 134 488 261 42 42 85 87 93 100 30 45 29 14 -3 -81 -103
-309 -350 -531 -659 -593 -64 -13 -116 -16 -215 -13 -114 4 -144 9 -228 38
-271 91 -484 306 -567 574 -29 95 -27 108 11 61 17 -22 56 -64 87 -93z m-136
-2589 l-3 -1748 -215 -3 -215 -2 -2 1742 c-2 959 -2 1746 0 1751 2 4 101 7
220 7 l217 0 -2 -1747z m1496 1743 c-2 -2 -108 -76 -236 -165 -127 -88 -266
-185 -309 -215 l-77 -55 -76 54 c-42 30 -181 127 -308 215 -128 89 -233 163
-233 166 0 2 280 4 622 4 342 0 619 -2 617 -4z m691 -1746 l0 -1750 -220 0
-220 0 0 1750 0 1750 220 0 220 0 0 -1750z m-1730 1333 c0 -18 -12 -22 -95
-38 -41 -8 -93 -23 -115 -34 l-40 -19 0 170 0 169 125 -118 c69 -65 125 -123
125 -130z m1057 -69 c-2 -2 -25 3 -53 11 -27 8 -74 20 -106 25 -84 16 -84 32
3 110 40 36 91 84 113 108 l41 43 3 -147 c1 -81 1 -148 -1 -150z m3 -284 l0
-110 -645 0 -645 0 0 110 0 110 645 0 645 0 0 -110z m-505 -302 c113 -59 176
-156 183 -283 10 -200 -114 -331 -338 -355 -125 -14 -189 -33 -242 -73 -102
-78 -148 -185 -148 -341 0 -112 19 -158 93 -234 l52 -54 -38 16 c-94 38 -221
145 -287 240 -43 64 -86 158 -106 236 -23 87 -23 253 0 340 84 322 372 547
686 537 79 -3 104 -8 145 -29z m-792 -3 c4 -8 2 -17 -3 -20 -6 -4 -10 3 -10
14 0 25 6 27 13 6z m1001 -52 c88 -46 215 -170 269 -263 21 -36 49 -101 64
-145 23 -70 26 -96 27 -215 0 -120 -3 -144 -27 -215 -38 -113 -90 -198 -177
-285 -137 -137 -287 -202 -470 -204 -94 -1 -111 2 -162 26 -66 31 -128 91
-160 156 -33 68 -33 216 0 284 55 112 153 173 304 189 205 21 300 81 370 234
20 43 23 66 23 170 0 143 -11 172 -93 253 -29 28 -50 52 -46 52 3 0 38 -17 78
-37z m-986 -1263 c10 -17 9 -25 -4 -45 -9 -14 -18 -25 -20 -25 -2 0 -4 20 -4
45 0 49 8 56 28 25z m1282 -340 l0 -110 -645 0 -645 0 0 110 0 110 645 0 645
0 0 -110z m0 -384 c0 -2 -109 -79 -242 -172 -134 -92 -279 -193 -322 -225
l-80 -57 -85 62 c-47 34 -189 134 -316 221 -126 87 -234 162 -239 167 -6 4
281 8 637 8 356 0 647 -2 647 -4z M1950 4506 c-79 -25 -102 -126 -44 -187 71
-74 194 -28 194 73 0 89 -68 141 -150 114z M1976 3750 c-40 -12 -64 -37 -77
-80 -21 -70 31 -141 105 -143 71 -2 116 46 116 122 0 31 -7 46 -31 70 -17 17
-37 31 -44 31 -7 0 -19 2 -27 4 -7 2 -26 0 -42 -4z"/>
</g>
</svg>
