<?xml version="1.0" standalone="no"?>
<!DOCTYPE svg PUBLIC "-//W3C//DTD SVG 20010904//EN"
 "http://www.w3.org/TR/2001/REC-SVG-20010904/DTD/svg10.dtd">
<svg version="1.0" xmlns="http://www.w3.org/2000/svg"
 width="2048.000000pt" height="2048.000000pt" viewBox="0 0 2048.000000 2048.000000"
 preserveAspectRatio="xMidYMid meet">
<metadata>
Created by potrace 1.13, written by Peter Selinger 2001-2015
</metadata>
<g transform="translate(0.000000,2048.000000) scale(0.192120,-0.192120)"
fill="#000000" stroke="none">
<path d="M1295 8919 c-425 -53 -800 -375 -919 -790 -46 -159 -47 -209 -44
-1494 3 -1026 5 -1205 16 -1177 8 17 18 32 23 32 5 0 9 9 9 20 0 11 5 20 10
20 6 0 10 20 10 45 0 25 4 45 10 45 6 0 11 422 13 1163 l3 1162 27 97 c79 290
269 527 536 665 84 44 243 91 350 103 122 14 7719 13 7904 -1 230 -17 390 -69
542 -177 133 -94 268 -247 333 -376 48 -93 81 -180 88 -228 4 -23 12 -49 18
-57 8 -10 12 -343 14 -1183 2 -748 6 -1168 12 -1168 6 0 10 -20 10 -45 0 -25
5 -45 10 -45 6 0 10 -8 10 -17 0 -10 12 -36 25 -58 l25 -40 0 1235 c0 1354 0
1341 -60 1520 -135 403 -492 697 -912 750 -103 13 -7960 12 -8063 -1z M5287
7994 c-4 -4 -7 -29 -7 -55 l0 -48 -47 -3 c-48 -3 -48 -3 -48 -38 0 -37 6 -40
67 -24 21 5 29 2 34 -10 11 -29 -5 -81 -28 -91 -12 -6 -31 -22 -42 -38 -21
-28 -21 -30 8 -97 4 -10 -2 -19 -16 -25 -18 -8 -23 -18 -23 -44 0 -28 -6 -39
-32 -56 l-32 -22 22 -22 c28 -27 16 -47 -44 -78 -43 -22 -91 -31 -298 -53
-124 -14 -201 -40 -236 -81 -45 -55 -31 -169 39 -307 l26 -52 -23 0 c-22 0
-67 -25 -57 -32 3 -2 22 -12 43 -22 78 -40 207 -213 207 -278 0 -39 39 -65
135 -94 122 -36 159 -42 315 -50 155 -8 343 8 423 35 29 10 69 21 89 25 49 9
98 50 98 83 0 66 128 238 207 279 21 10 40 20 43 22 10 7 -35 32 -57 32 l-23
0 24 48 c40 79 66 168 66 226 0 100 -68 144 -255 165 -232 27 -258 32 -302 54
-61 30 -73 49 -48 77 19 21 19 21 -13 47 -26 20 -32 31 -30 55 2 22 -3 34 -17
42 -11 6 -22 12 -24 13 -2 1 4 18 13 38 22 45 14 67 -35 107 -35 28 -40 37
-37 68 3 37 2 37 78 28 22 -3 25 1 25 32 0 35 -1 35 -47 38 l-47 3 -3 52 -3
52 -40 3 c-23 2 -44 0 -48 -4z m428 -788 c130 -29 163 -40 193 -68 26 -25 28
-48 8 -87 -13 -25 -96 -101 -110 -101 -3 0 -9 18 -12 40 -4 22 -12 47 -19 57
-12 16 -15 16 -58 -1 -25 -9 -51 -24 -58 -32 -10 -12 -16 -6 -38 38 -34 69
-55 72 -112 19 -23 -23 -43 -40 -44 -39 0 2 -9 16 -19 31 -16 27 -16 31 0 80
10 29 18 75 18 103 l1 51 70 -34 c39 -18 120 -44 180 -57z m-522 25 c4 -33 14
-77 23 -99 14 -38 14 -42 -2 -69 -10 -15 -19 -29 -19 -31 -1 -1 -21 16 -44 39
-57 53 -78 50 -112 -19 -22 -44 -28 -50 -38 -38 -7 8 -33 23 -58 32 -44 17
-46 17 -59 -1 -8 -10 -14 -28 -15 -39 0 -12 -4 -29 -8 -39 -6 -16 -11 -14 -54
18 -26 20 -54 49 -62 65 -43 82 4 115 235 164 42 9 102 29 135 45 33 16 63 30
66 30 3 1 9 -26 12 -58z m220 -315 c34 -19 80 -38 102 -41 22 -4 67 -15 100
-25 33 -10 72 -21 88 -24 15 -4 27 -13 27 -21 0 -8 6 -18 14 -22 9 -5 18 -43
25 -112 6 -57 10 -105 8 -107 -2 -2 -23 3 -48 10 -106 32 -286 49 -458 43
-148 -6 -314 -29 -373 -52 -16 -6 -17 2 -11 97 3 70 10 107 19 114 8 6 14 18
14 27 0 9 10 19 23 22 12 3 40 9 62 15 22 5 69 17 105 25 36 9 94 31 130 50
36 19 76 35 88 35 13 0 51 -15 85 -34z M4150 6429 c-130 -78 -222 -231 -254
-422 l-12 -72 -83 124 -83 123 -25 -24 c-39 -36 -72 -100 -79 -151 -4 -27 0
-82 9 -134 21 -118 27 -163 20 -163 -3 0 -39 30 -80 66 -41 37 -78 63 -82 58
-18 -20 -31 -80 -31 -143 0 -86 33 -145 129 -230 39 -35 85 -80 101 -101 l31
-39 -35 6 c-28 4 -35 2 -41 -16 -6 -20 -2 -57 12 -106 4 -12 -20 4 -67 45 -61
54 -69 65 -54 71 15 6 13 8 -9 8 -15 1 -39 8 -52 17 -23 15 -25 15 -25 0 0
-15 -130 -16 -1555 -16 l-1556 0 4 -1332 c3 -1198 5 -1340 20 -1399 56 -226
142 -384 296 -542 143 -147 317 -249 518 -305 l98 -27 4065 0 4065 0 98 27
c112 31 256 96 348 158 35 24 103 82 152 129 161 156 254 323 314 561 15 58
17 201 20 1398 l4 1332 -1570 0 c-1443 0 -1569 1 -1575 16 -6 16 -8 16 -24 0
-10 -9 -34 -16 -53 -17 -28 -1 -30 -2 -11 -7 21 -7 18 -12 -46 -69 l-68 -61 0
66 1 67 -32 -1 c-18 -1 -33 0 -33 3 0 3 53 60 118 126 125 130 142 159 142
249 0 42 -26 138 -37 138 -3 0 -40 -30 -81 -66 -43 -37 -78 -61 -80 -55 -2 7
6 69 18 139 25 144 22 174 -29 254 -53 83 -56 82 -146 -55 l-80 -121 -8 45
c-41 221 -128 373 -255 442 l-50 27 -18 -52 c-23 -67 -23 -177 0 -244 11 -35
17 -91 19 -180 2 -115 5 -136 30 -196 27 -65 28 -68 13 -113 -23 -68 -20 -159
8 -227 23 -56 23 -57 4 -85 -35 -51 -42 -77 -47 -183 -5 -95 -8 -106 -28 -114
-16 -8 -24 -25 -33 -70 -6 -32 -27 -89 -46 -126 -23 -46 -38 -93 -45 -147 -11
-76 -13 -80 -48 -100 -65 -38 -167 -140 -225 -227 -66 -98 -99 -129 -193 -184
-81 -48 -138 -72 -166 -72 -18 0 -17 4 13 30 l35 29 -55 1 c-30 0 -100 -11
-154 -24 l-100 -24 112 104 c120 113 258 268 354 398 67 91 76 101 59 69 -15
-30 -14 -33 9 -33 35 0 92 29 125 63 70 72 137 230 186 437 34 145 46 161 117
170 l47 5 3 130 c6 229 -34 444 -113 613 -100 212 -245 330 -418 340 l-80 5 5
-60 c3 -33 15 -78 27 -101 28 -54 27 -69 -6 -86 -74 -37 -169 4 -208 92 -13
29 -30 55 -38 58 -8 3 -45 -12 -82 -32 -65 -36 -68 -37 -95 -21 -36 22 -104
22 -140 1 -27 -16 -29 -16 -98 21 -81 44 -91 42 -124 -32 -21 -48 -56 -76
-111 -91 -41 -12 -64 -10 -97 8 -24 13 -24 21 9 110 11 30 20 72 21 94 l0 39
-78 -5 c-87 -5 -169 -40 -248 -104 -132 -108 -230 -321 -269 -583 -18 -120
-27 -417 -13 -443 6 -13 21 -18 48 -18 49 0 75 -23 90 -82 46 -184 108 -342
168 -423 36 -51 108 -91 145 -81 l27 6 -36 63 c-85 148 -144 304 -164 430 -16
99 -8 376 15 505 21 118 56 221 96 284 44 69 54 72 105 32 97 -74 187 -53 397
90 93 63 93 63 116 45 31 -25 101 -25 132 0 23 18 23 18 116 -45 210 -143 300
-164 397 -90 51 40 61 37 105 -32 71 -112 110 -292 118 -551 8 -246 -17 -362
-121 -571 -72 -143 -62 -135 -141 -111 -37 12 -76 21 -86 21 -18 0 -19 15 -21
343 l-3 342 -27 3 c-24 3 -26 0 -25 -29 2 -27 -3 -34 -30 -46 l-33 -13 0 39 0
39 -35 -11 -35 -10 0 -73 c0 -72 0 -73 36 -100 l36 -28 -4 -208 -3 -208 30 0
c17 -1 44 -7 60 -14 30 -13 30 -13 -29 -19 -32 -4 -66 -12 -76 -17 -13 -7 -22
-4 -36 12 -46 51 -158 98 -233 98 l-36 0 0 338 c0 330 0 337 -20 337 -16 0
-21 -8 -23 -36 -2 -27 -9 -39 -28 -48 -40 -18 -45 -14 -38 24 7 38 3 41 -45
24 -29 -10 -31 -14 -31 -58 0 -65 15 -102 50 -126 l30 -20 0 -160 c0 -209 -11
-283 -47 -310 -15 -11 -43 -35 -63 -52 -33 -29 -40 -32 -71 -23 -78 23 -274 2
-295 -31 -16 -26 173 -258 362 -445 l153 -152 -62 20 c-121 38 -201 58 -236
58 l-36 -1 45 -39 45 -40 -42 0 c-52 0 -186 67 -253 127 -26 23 -73 80 -104
127 -60 90 -126 156 -212 213 l-51 34 -5 69 c-4 52 -14 88 -41 142 -38 80 -57
138 -57 180 0 19 -4 26 -13 22 -28 -10 -39 24 -41 124 -1 93 -3 102 -34 152
l-33 52 22 44 c30 63 36 150 15 228 -16 57 -16 67 -3 93 32 61 49 154 46 257
-2 72 2 117 14 155 22 70 22 174 0 240 -9 28 -19 51 -22 51 -3 0 -22 -9 -41
-21z m2620 -695 c0 -7 8 -15 18 -19 9 -3 30 -24 45 -47 36 -52 32 -77 -28
-183 -67 -118 -62 -153 46 -311 27 -39 49 -79 49 -88 0 -10 -22 -60 -50 -111
-36 -67 -50 -103 -50 -133 0 -23 -6 -45 -15 -52 -8 -7 -15 -19 -15 -26 0 -8
-18 -30 -40 -51 -39 -35 -150 -185 -150 -203 0 -5 -29 -23 -64 -39 -35 -17
-85 -46 -112 -64 -27 -18 -55 -32 -61 -31 -7 1 -20 2 -28 3 -27 2 -16 37 34
105 59 79 88 137 106 209 7 28 25 84 40 122 58 148 78 201 89 242 6 23 15 45
19 49 4 4 7 25 7 46 0 25 14 66 40 118 l40 80 0 153 c0 85 3 181 6 215 l7 60
33 -16 c19 -8 34 -21 34 -28z m-2850 -354 c6 0 10 -9 10 -20 0 -11 15 -51 34
-88 18 -37 36 -88 39 -114 4 -25 40 -137 82 -249 41 -112 75 -211 75 -220 0
-27 65 -143 120 -215 28 -36 50 -74 48 -83 -6 -29 -55 -25 -98 9 -21 17 -73
46 -114 66 -42 19 -76 41 -76 49 0 7 -6 20 -13 27 -7 7 -25 33 -40 58 -14 25
-47 65 -73 90 -63 61 -94 112 -94 155 0 22 -17 67 -46 122 -58 110 -59 134
-10 198 21 28 43 60 49 73 6 12 14 22 18 22 4 0 10 13 14 30 4 16 11 32 16 35
24 15 8 79 -38 152 -33 54 -47 88 -51 123 -4 46 -3 49 44 97 93 94 89 100 92
-123 1 -118 6 -194 12 -194z m-487 -166 c12 -128 70 -207 239 -326 48 -34 86
-63 84 -65 -1 -1 -47 10 -102 26 -129 36 -164 43 -164 30 0 -28 59 -119 109
-168 57 -57 132 -100 264 -151 38 -15 63 -29 55 -32 -7 -3 -69 -14 -137 -24
-70 -11 -125 -24 -128 -31 -7 -17 61 -117 99 -146 73 -54 170 -59 346 -17 46
11 89 20 95 20 6 0 -12 -21 -41 -46 -29 -25 -71 -73 -93 -105 -40 -59 -80 -89
-119 -89 -35 0 -18 -23 35 -50 42 -21 64 -25 135 -25 104 0 126 10 230 110
110 105 138 111 282 58 70 -26 80 -43 25 -43 -49 0 -129 -43 -195 -103 -76
-70 -103 -84 -210 -107 -84 -19 -165 -44 -228 -72 -46 -20 -85 -57 -123 -116
-28 -45 -32 -58 -26 -90 10 -55 44 -105 136 -199 90 -93 144 -125 245 -144 86
-16 167 -5 303 41 113 38 126 40 239 40 141 0 143 1 226 118 30 42 69 91 87
107 l32 30 -20 -35 c-12 -19 -30 -51 -42 -70 -26 -43 -27 -67 -2 -75 28 -8 68
11 87 42 9 15 35 56 57 89 38 58 42 61 69 53 15 -4 43 -5 61 -2 29 4 36 1 58
-29 14 -18 34 -49 45 -68 27 -50 46 -71 72 -81 24 -9 62 4 62 21 0 5 -20 42
-44 82 -25 40 -43 74 -41 76 10 10 59 -38 106 -105 30 -42 70 -93 90 -115 l37
-38 134 0 c133 0 137 -1 254 -42 110 -39 127 -42 219 -42 139 0 192 22 298
123 108 102 157 178 157 242 0 42 -6 55 -42 100 -24 29 -54 60 -68 70 -38 28
-155 66 -260 84 -115 20 -138 31 -220 110 -78 74 -111 93 -199 109 l-66 12 70
27 c145 55 172 49 295 -67 92 -88 129 -106 217 -106 59 0 138 23 173 49 24 19
24 20 5 26 -63 20 -88 39 -134 102 -27 38 -68 83 -91 102 -23 18 -39 35 -36
38 2 3 42 -4 89 -16 46 -11 122 -24 169 -27 97 -8 149 9 206 65 42 42 87 120
76 130 -5 5 -61 16 -124 25 -167 25 -166 24 -73 61 126 51 204 96 254 147 46
46 90 113 103 155 7 21 5 22 -26 16 -18 -3 -78 -19 -132 -34 -55 -16 -101 -28
-102 -26 -1 1 43 36 98 77 168 125 205 179 223 324 4 31 9 56 12 56 5 0 132
-85 151 -101 7 -6 37 -13 67 -16 37 -4 55 -10 55 -19 0 -12 211 -14 1300 -14
1293 0 1300 0 1300 -20 0 -13 7 -20 20 -20 20 0 20 -1 17 -1187 l-3 -1188 -27
-100 c-34 -123 -70 -203 -138 -301 -134 -193 -356 -320 -619 -354 -60 -8
-1240 -10 -4060 -8 -3763 3 -3978 4 -4040 21 -325 88 -553 287 -645 562 l-25
74 0 1240 0 1241 40 0 c33 0 40 3 40 20 0 20 7 20 1285 20 1136 0 1285 2 1285
15 0 8 8 15 18 15 9 0 55 27 102 60 47 32 88 59 91 59 3 1 9 -29 12 -65z
m1856 -328 c-2 -2 -20 -6 -39 -10 -25 -4 -31 -3 -20 4 14 9 69 15 59 6z m83
-241 c40 -9 100 -24 133 -34 33 -11 72 -22 88 -25 15 -4 27 -13 27 -22 0 -51
-110 -173 -209 -232 -87 -51 -178 -24 -286 86 -89 90 -106 133 -58 148 10 3
47 19 83 37 76 37 120 55 137 56 6 1 45 -6 85 -14z m-455 -559 c87 -19 200
-40 251 -47 131 -17 336 -6 482 26 63 14 147 33 185 41 39 9 89 14 111 11 49
-5 132 -44 145 -68 5 -10 3 -45 -6 -90 -7 -41 -13 -74 -12 -75 1 -1 43 -16 93
-33 112 -38 197 -41 282 -10 99 36 96 36 88 4 -8 -32 -35 -74 -75 -119 l-26
-28 80 6 c44 4 97 11 118 16 38 8 39 8 32 -18 -16 -64 -91 -131 -181 -163 -49
-18 -76 -20 -159 -16 -87 4 -114 10 -207 46 -125 48 -158 50 -313 20 -156 -31
-191 -11 -202 111 -5 47 -9 60 -20 56 -132 -51 -378 -51 -504 -1 -13 5 -17 -4
-22 -55 -11 -122 -46 -142 -202 -111 -155 30 -188 28 -313 -20 -93 -36 -120
-42 -207 -46 -83 -4 -110 -2 -159 16 -90 32 -165 99 -181 163 -7 26 -6 26 32
18 21 -5 74 -12 118 -16 l80 -6 -26 28 c-40 45 -67 87 -75 119 -8 32 -11 32
88 -4 85 -31 170 -28 282 10 50 17 92 32 93 33 1 1 -5 34 -12 75 -17 87 -12
99 47 128 85 42 96 42 295 -1z M4770 3988 c0 -8 10 -24 23 -35 67 -62 166 -83
428 -90 314 -9 513 19 589 83 48 41 40 56 -18 34 -155 -59 -638 -65 -898 -11
-49 11 -97 22 -106 26 -12 5 -18 2 -18 -7z M5205 5874 c-18 -45 -19 -56 -1
-98 15 -35 65 -91 74 -82 3 3 -10 35 -28 71 -26 52 -32 72 -27 105 6 50 2 51
-18 4z M5418 5830 c-9 -22 -20 -40 -25 -40 -4 0 -16 14 -25 30 -23 41 -43 40
-33 -2 4 -18 13 -56 19 -85 9 -43 14 -49 26 -40 23 18 70 119 70 150 0 38 -12
33 -32 -13z M5635 5794 c-24 -37 -12 -86 32 -135 20 -22 38 -38 40 -35 2 2
-10 30 -27 62 -25 46 -31 67 -27 97 3 20 4 37 2 37 -1 0 -10 -12 -20 -26z
M4982 5754 l-24 -48 -19 24 c-10 14 -19 28 -19 33 0 4 -7 7 -15 7 -18 0 -18 0
3 -83 18 -67 18 -67 39 -48 30 28 65 106 61 137 -3 25 -5 23 -26 -22z M5760
5763 c0 -5 8 -38 18 -74 19 -71 24 -72 55 -10 21 43 24 74 4 47 -13 -18 -15
-17 -36 13 -21 29 -41 41 -41 24z M4781 5734 c0 -11 3 -14 6 -6 3 7 2 16 -1
19 -3 4 -6 -2 -5 -13z M4795 5690 c4 -14 16 -34 27 -45 l20 -20 -16 30 c-8 17
-20 37 -26 45 -9 12 -10 10 -5 -10z M4840 5441 c0 -28 -5 -40 -17 -44 -10 -2
-26 -8 -35 -12 -14 -5 -17 0 -20 32 l-3 40 -32 -14 c-33 -13 -33 -14 -33 -79
0 -63 2 -68 36 -99 l36 -33 -3 -219 -4 -218 57 0 58 -1 0 343 c0 336 0 343
-20 343 -17 0 -20 -7 -20 -39z"/>
</g>
</svg>
