<?xml version="1.0" standalone="no"?>
<!DOCTYPE svg PUBLIC "-//W3C//DTD SVG 20010904//EN"
 "http://www.w3.org/TR/2001/REC-SVG-20010904/DTD/svg10.dtd">
<svg version="1.0" xmlns="http://www.w3.org/2000/svg"
 width="2048.000000pt" height="2048.000000pt" viewBox="0 0 2048.000000 2048.000000"
 preserveAspectRatio="xMidYMid meet">
<metadata>
Created by potrace 1.13, written by Peter Selinger 2001-2015
</metadata>
<g transform="translate(0.000000,2048.000000) scale(0.192120,-0.192120)"
fill="#000000" stroke="none">
<path d="M1276 8929 c-149 -22 -327 -92 -457 -179 -87 -59 -229 -199 -288
-284 -89 -130 -152 -277 -182 -431 -20 -101 -21 -5305 -1 -5405 45 -227 140
-408 301 -573 143 -147 317 -249 518 -305 l98 -27 4065 0 4065 0 98 27 c201
56 375 158 518 305 161 165 256 346 301 573 19 96 19 5304 0 5400 -46 228
-147 419 -308 581 -138 140 -316 243 -511 297 l-98 27 -4030 1 c-2230 1 -4056
-2 -4089 -7z m629 -148 c88 -5 320 -10 515 -10 283 -1 370 -4 430 -17 86 -18
136 -14 230 19 l65 22 3000 3 c2106 2 3038 0 3128 -8 75 -6 163 -21 213 -35
344 -100 586 -361 682 -735 15 -59 16 -283 19 -2643 4 -2781 5 -2677 -47
-2837 -52 -154 -168 -333 -277 -427 -174 -149 -347 -221 -587 -243 -76 -8
-1067 -10 -3116 -8 l-3005 3 -103 29 -103 30 -88 -17 c-71 -14 -154 -17 -442
-18 -195 0 -426 -5 -514 -10 -298 -18 -526 -22 -605 -9 -387 62 -701 343 -802
720 l-23 85 0 2655 0 2655 23 85 c98 367 400 645 775 716 79 14 351 13 632 -5z
M2280 8660 l-535 -5 75 -45 c41 -24 78 -49 82 -54 3 -5 31 -11 62 -14 39 -3
56 -9 56 -18 0 -12 54 -14 310 -14 303 0 310 0 310 -20 0 -13 7 -20 20 -20 20
0 20 -7 20 -3150 0 -3143 0 -3150 -20 -3150 -13 0 -20 -7 -20 -20 0 -20 -7
-20 -310 -20 -171 0 -310 -4 -310 -9 0 -5 -24 -11 -54 -13 -41 -3 -72 -16
-137 -54 l-84 -49 150 -2 c83 -2 327 -4 543 -5 l392 -3 0 3338 c0 1835 -3
3336 -7 3335 -5 -2 -249 -5 -543 -8z M3110 5330 l0 -3335 3102 2 c3097 2 3103
2 3194 23 315 72 563 326 628 642 14 69 16 343 16 2668 0 2325 -2 2599 -16
2668 -65 316 -313 570 -628 642 -91 21 -97 21 -3194 23 l-3102 2 0 -3335z
m5998 3068 c2 -10 -16 -57 -40 -105 l-43 -88 -3 -266 c-3 -299 -2 -306 77
-412 78 -106 117 -112 253 -39 51 28 140 65 198 82 118 36 168 59 223 102 l37
30 0 -2381 0 -2382 -53 40 c-52 40 -100 61 -232 101 -38 12 -116 46 -173 76
-57 30 -112 54 -123 54 -58 0 -125 -59 -180 -159 l-29 -52 0 -260 c0 -142 4
-267 8 -277 5 -9 30 -60 56 -112 l47 -95 -22 -17 c-20 -17 -155 -18 -2515 -18
-2495 0 -2544 1 -2544 32 0 5 17 43 39 86 70 141 73 160 69 423 l-3 234 -35
69 c-40 78 -96 133 -148 142 -29 6 -51 -2 -141 -49 -58 -30 -149 -68 -201 -85
-114 -35 -170 -62 -230 -112 -25 -20 -51 -40 -57 -44 -10 -6 -13 479 -13 2410
l0 2417 43 -37 c78 -68 131 -97 246 -132 63 -20 157 -59 209 -86 52 -28 109
-50 127 -51 43 -1 90 34 132 100 63 99 66 115 71 371 4 259 3 269 -65 410 -19
40 -32 79 -29 87 5 13 324 15 2523 13 2384 -3 2518 -4 2521 -20z m-5251 -86
c35 -19 91 -91 109 -141 13 -36 17 -88 20 -236 1 -104 5 -239 8 -300 l6 -110
-35 71 c-61 125 -145 180 -327 214 -121 23 -171 52 -205 120 -28 54 -30 131
-7 221 15 58 15 120 -1 159 -4 13 25 15 203 14 134 -1 215 -5 229 -12z m5896
-12 c-11 -43 -7 -112 12 -188 15 -63 16 -81 6 -128 -23 -102 -91 -153 -231
-175 -96 -15 -144 -32 -207 -75 -53 -37 -116 -119 -128 -167 -10 -39 -29 -34
-21 5 3 18 9 149 13 293 6 283 15 330 71 397 48 57 76 63 295 63 l196 0 -6
-25z m-5758 -5267 c-4 -54 -8 -188 -9 -298 -4 -228 -12 -265 -77 -339 -52 -59
-83 -68 -195 -59 -49 5 -134 5 -189 1 -54 -4 -100 -6 -101 -5 -1 1 3 25 9 53
8 41 7 65 -6 120 -38 155 -8 262 86 311 16 8 74 23 130 34 178 33 277 101 328
225 13 30 24 54 27 54 2 0 1 -44 -3 -97z m5223 33 c52 -111 147 -181 282 -206
136 -26 173 -40 216 -83 60 -60 74 -128 49 -229 -18 -73 -22 -159 -10 -199 7
-21 5 -21 -37 -15 -58 9 -247 9 -293 0 -48 -9 -116 18 -154 61 -59 68 -68 113
-75 400 -3 143 -9 277 -12 298 -4 20 -4 37 -1 37 3 0 19 -29 35 -64z M4902
7355 c-58 -18 -85 -37 -171 -119 -82 -79 -110 -117 -168 -226 -124 -235 -165
-484 -180 -1112 -6 -252 -8 -279 -25 -294 -11 -11 -18 -31 -18 -55 0 -25 -12
-58 -35 -98 -30 -51 -35 -68 -35 -124 0 -67 13 -107 60 -182 14 -22 28 -65 32
-95 4 -30 12 -82 17 -115 5 -33 10 -122 10 -197 1 -79 5 -139 11 -143 6 -3 10
-39 10 -78 0 -60 -5 -83 -31 -137 -46 -96 -50 -114 -34 -168 8 -26 15 -56 15
-67 0 -35 73 -165 130 -233 71 -85 168 -152 219 -152 83 0 212 95 302 224 27
38 49 74 49 80 0 20 58 76 80 76 11 0 58 -20 103 -45 127 -68 182 -69 324 -4
111 51 169 35 180 -50 10 -72 0 -88 -62 -101 -85 -18 -164 -63 -231 -132 -83
-84 -114 -143 -114 -213 0 -63 11 -91 61 -161 94 -129 140 -143 499 -149 307
-5 314 -3 404 88 45 47 65 79 128 209 4 10 8 29 8 44 0 17 17 43 51 79 135
142 167 242 113 359 -34 74 -28 99 28 115 23 7 125 55 227 107 214 109 282
129 334 100 20 -10 67 -66 122 -144 l90 -126 3 -97 4 -98 -63 -32 c-127 -63
-249 -213 -249 -303 1 -102 115 -246 219 -276 55 -16 577 -33 631 -20 30 7
113 8 244 2 202 -8 350 -1 419 18 53 15 121 81 164 158 36 64 36 64 28 145
-11 118 -8 165 16 198 11 16 36 62 55 103 53 116 47 162 -40 292 l-46 69 0
167 0 167 62 193 62 193 3 195 4 195 -31 89 c-30 88 -39 169 -21 181 5 3 24
42 42 88 l31 82 -5 174 -5 174 33 36 c18 20 49 69 69 108 67 134 45 245 -72
366 -32 32 -75 68 -96 79 -41 21 -45 21 -192 2 -64 -8 -79 0 -316 157 -212
141 -364 218 -503 255 -82 22 -128 27 -260 31 -199 6 -302 -12 -462 -82 -101
-45 -115 -48 -215 -53 -88 -4 -118 -1 -175 16 -86 26 -102 27 -191 18 -47 -5
-95 -4 -137 4 -51 10 -74 9 -117 -1 -32 -8 -113 -14 -203 -14 -179 0 -180 0
-313 -115 -149 -127 -167 -131 -289 -57 -123 74 -194 79 -279 17 l-44 -31 -10
26 c-6 14 -10 78 -10 141 0 104 -2 119 -25 157 -32 55 -81 102 -127 121 -44
19 -41 19 -96 1z m123 -142 c-31 -72 -68 -201 -84 -291 -31 -170 -40 -359 -45
-933 l-5 -535 47 -13 c115 -30 137 -125 51 -216 l-29 -31 184 -187 183 -186 6
127 c7 138 24 237 57 326 28 73 146 199 323 343 85 70 127 111 127 124 0 62
-58 81 -85 29 -9 -16 -19 -30 -23 -30 -16 0 -55 34 -82 71 -25 35 -29 37 -34
21 -4 -11 -15 -27 -26 -37 -19 -17 -20 -17 -29 6 -5 13 -12 36 -15 51 l-6 27
-74 -35 c-97 -46 -112 -44 -85 15 10 24 18 45 16 47 -3 3 -86 -8 -161 -21
l-29 -5 6 47 c7 58 38 134 67 163 l21 21 -26 20 c-33 27 -58 75 -50 99 14 43
28 42 137 -9 58 -27 146 -63 194 -79 95 -32 245 -65 268 -60 10 2 -1 23 -35
68 -27 36 -62 87 -78 114 l-29 49 -11 -39 c-6 -21 -11 -46 -11 -54 0 -8 -24 9
-54 39 -51 50 -54 52 -59 29 -4 -13 -7 -36 -7 -51 l0 -29 -42 33 c-86 66 -215
206 -243 263 -55 113 -42 246 27 282 38 20 100 3 141 -37 27 -27 29 -34 25
-85 -5 -55 -5 -55 21 -50 14 3 51 8 81 11 93 12 239 44 271 60 44 23 69 70 69
133 0 48 2 53 28 64 15 6 54 13 87 15 56 5 63 3 114 -32 70 -48 103 -60 131
-45 19 10 21 18 16 50 -5 33 -3 38 17 44 73 19 138 -6 176 -68 13 -20 26 -36
30 -36 10 0 67 61 80 88 22 43 88 26 170 -42 24 -20 53 -39 66 -42 30 -7 92
25 138 72 l37 38 0 -36 c0 -100 -38 -199 -95 -245 l-35 -30 24 -44 c42 -75 57
-152 63 -326 3 -95 2 -163 -3 -163 -5 0 -26 11 -47 25 -25 18 -37 22 -37 12 0
-20 59 -226 71 -248 15 -30 3 -39 -37 -27 -20 5 -38 7 -41 5 -7 -8 73 -161 93
-178 22 -18 145 -15 539 12 160 11 396 24 525 29 239 10 349 24 430 56 118 47
165 107 158 205 -5 70 -35 108 -107 136 -64 25 -259 23 -469 -5 -179 -24 -389
-29 -474 -11 -29 6 -98 33 -152 60 -114 56 -159 62 -202 26 -21 -18 -28 -35
-32 -75 -2 -29 -8 -52 -12 -52 -15 0 -61 43 -75 70 -21 40 -19 93 6 151 l22
49 -26 38 c-154 222 -104 462 118 567 116 54 197 70 370 70 135 0 174 -4 250
-24 158 -41 305 -119 579 -309 148 -103 248 -163 294 -177 17 -5 22 -2 22 12
0 34 37 81 74 93 71 23 126 -38 126 -143 0 -95 -55 -134 -174 -124 -121 10
-219 67 -385 223 -43 41 -82 74 -86 74 -21 0 28 -148 55 -165 24 -15 7 -22
-31 -14 -84 19 -161 75 -196 143 l-16 31 -10 -35 c-19 -75 -98 -139 -171 -140
l-29 0 20 23 c35 38 65 107 65 152 0 68 -33 117 -112 164 -53 32 -62 27 -40
-21 22 -48 26 -112 9 -155 -22 -58 -117 -132 -172 -133 -16 0 -16 3 4 43 15
28 22 60 22 98 0 94 -57 169 -165 214 -57 23 -64 20 -60 -24 4 -44 -18 -95
-48 -111 -17 -9 -25 -5 -51 25 -40 46 -75 46 -125 3 -65 -57 -81 -135 -44
-208 11 -21 30 -46 42 -54 20 -14 23 -14 38 12 52 84 158 118 231 75 32 -19
38 -33 13 -33 -30 0 -80 -30 -97 -59 -21 -37 -22 -93 -1 -137 l16 -34 43 46
c55 58 76 56 127 -11 60 -80 88 -90 253 -89 77 0 187 8 245 17 320 50 505 23
616 -88 44 -43 56 -65 75 -125 23 -76 22 -149 -3 -207 -22 -53 -76 -118 -125
-152 -26 -19 -50 -36 -52 -38 -2 -1 14 -23 37 -47 84 -91 132 -226 132 -369 0
-109 -17 -190 -75 -352 -60 -169 -93 -296 -106 -410 -17 -156 16 -287 83 -323
66 -37 108 -73 108 -93 0 -12 -32 -54 -78 -102 -126 -131 -138 -191 -61 -306
50 -76 51 -114 2 -119 -19 -2 -51 7 -83 23 l-51 26 -30 -26 c-44 -36 -106 -35
-147 3 l-29 28 -33 -25 c-41 -32 -94 -34 -135 -4 -27 19 -33 20 -50 7 -11 -8
-31 -14 -45 -12 -23 3 -25 7 -24 48 2 76 72 123 274 182 63 18 72 41 66 154
-8 137 -32 192 -125 285 -90 89 -195 157 -220 142 -28 -17 -61 -75 -61 -105 0
-63 25 -87 133 -132 20 -8 40 -22 43 -31 9 -22 -36 -85 -96 -136 -86 -73 -98
-123 -59 -234 30 -85 23 -149 -21 -188 -40 -35 -69 -31 -120 19 l-36 34 -26
-30 c-37 -42 -79 -38 -134 12 -19 17 -22 17 -34 3 -18 -21 -64 -45 -88 -45
-10 0 -34 10 -53 23 l-33 22 -46 -24 c-93 -49 -133 3 -70 93 37 55 80 75 185
86 144 15 185 53 185 175 0 88 -31 238 -63 308 -13 30 -57 89 -96 132 -91 101
-130 177 -138 274 l-6 73 -91 -7 c-189 -14 -284 -45 -437 -140 -117 -73 -223
-118 -323 -136 -66 -13 -67 -13 -115 -78 -66 -90 -81 -122 -81 -175 0 -63 28
-92 114 -120 39 -12 71 -27 73 -33 11 -33 -125 -136 -206 -155 l-53 -13 7
-107 c6 -94 4 -112 -13 -151 -33 -76 -77 -83 -164 -28 l-44 28 -34 -24 c-19
-12 -47 -23 -63 -23 -32 0 -83 24 -89 41 -3 8 -19 3 -49 -14 -59 -35 -113 -36
-154 -3 l-30 24 -28 -24 c-30 -25 -45 -29 -63 -16 -47 32 7 145 91 190 20 10
66 17 140 19 153 6 207 30 245 108 27 56 26 76 -16 207 -19 62 -44 149 -55
194 l-21 81 -53 12 c-29 7 -90 30 -136 52 l-83 40 -65 -64 c-75 -73 -115 -97
-164 -97 -40 0 -75 24 -209 144 -88 79 -99 85 -122 76 -19 -7 -26 -17 -26 -35
0 -29 -21 -33 -41 -9 -10 12 -16 57 -19 145 -5 118 -7 129 -29 153 -14 15 -35
26 -50 26 -44 0 -101 -12 -101 -21 0 -5 24 -21 53 -35 28 -15 55 -32 59 -38
12 -19 -16 -36 -71 -45 -76 -12 -83 -24 -38 -66 44 -40 45 -52 12 -101 -29
-43 -32 -91 -9 -140 23 -48 32 -51 64 -15 35 37 44 38 75 6 51 -50 22 -110
-65 -129 l-54 -12 42 -46 42 -46 -66 -12 c-44 -8 -67 -18 -71 -29 -15 -49 -26
-68 -43 -79 -31 -19 -50 -3 -67 59 l-16 58 -61 3 -61 3 43 46 c23 25 42 49 42
52 0 2 -11 8 -24 11 -38 9 -96 69 -96 99 0 41 29 50 78 24 l42 -21 22 22 c30
30 30 91 0 131 -30 41 -28 65 9 111 17 21 28 43 24 49 -3 6 -23 11 -44 11 -28
0 -44 7 -65 29 -39 41 -30 61 29 61 26 0 55 5 66 10 22 12 26 60 5 60 -8 0
-24 8 -36 18 -18 15 -20 21 -10 46 9 25 8 32 -10 51 -21 23 -27 60 -10 70 6 4
1 18 -11 35 -25 32 -28 78 -7 94 7 6 14 22 14 36 0 14 4 32 8 40 5 11 -6 19
-42 32 -70 25 -104 65 -110 130 -4 48 -1 56 23 81 22 21 37 27 70 27 l42 0 6
368 c10 566 30 785 89 972 67 210 164 348 307 437 44 27 56 29 46 6z m143
-1484 c26 -23 75 -55 109 -71 84 -40 90 -49 68 -97 -19 -44 -96 -131 -114
-131 -7 0 -37 23 -67 51 l-54 52 0 118 c0 66 3 119 6 119 3 0 27 -19 52 -41z
M1263 8644 c-258 -56 -489 -250 -591 -495 -66 -161 -62 41 -62 -2819 0 -2325
2 -2599 16 -2668 65 -315 309 -566 626 -642 68 -16 118 -20 276 -20 l192 0 0
3330 0 3330 -197 -1 c-127 -1 -220 -6 -260 -15z m217 -3324 l0 -3080 -57 0
c-226 1 -450 136 -541 326 l-37 79 -3 2680 -2 2680 36 75 c90 183 316 318 537
319 l67 1 0 -3080z"/>
</g>
</svg>
