<?xml version="1.0" standalone="no"?>
<!DOCTYPE svg PUBLIC "-//W3C//DTD SVG 20010904//EN"
 "http://www.w3.org/TR/2001/REC-SVG-20010904/DTD/svg10.dtd">
<svg version="1.0" xmlns="http://www.w3.org/2000/svg"
 width="2048.000000pt" height="2048.000000pt" viewBox="0 0 2048.000000 2048.000000"
 preserveAspectRatio="xMidYMid meet">
<metadata>
Created by potrace 1.13, written by Peter Selinger 2001-2015
</metadata>
<g transform="translate(0.000000,2048.000000) scale(0.192120,-0.192120)"
fill="#000000" stroke="none">
<path d="M1247 8924 c-398 -72 -737 -367 -861 -748 -60 -183 -57 -22 -53
-2891 3 -2404 4 -2625 20 -2686 57 -228 149 -396 303 -551 139 -140 316 -242
511 -296 l98 -27 4065 0 4065 0 98 27 c201 56 375 158 518 305 161 165 256
346 301 573 20 100 19 5304 -1 5405 -71 355 -298 646 -626 801 -52 25 -138 57
-192 72 l-98 27 -4035 2 c-3449 1 -4046 -1 -4113 -13z m2496 -68 c31 -20 77
-46 101 -57 44 -19 75 -19 1498 -17 1439 3 1453 3 1493 23 62 32 153 93 158
107 3 7 5 -1605 5 -3582 0 -1977 -2 -3588 -5 -3580 -6 20 -127 95 -180 112
-24 7 -43 16 -43 20 0 5 -650 8 -1445 8 -795 0 -1445 -4 -1445 -8 0 -4 -17
-14 -37 -21 -40 -15 -163 -95 -175 -114 -4 -7 -8 1605 -8 3582 0 2877 2 3592
13 3580 6 -9 38 -32 70 -53z m-323 -3536 l0 -3341 -1047 4 c-1156 4 -1099 0
-1273 68 -120 46 -198 97 -295 194 -73 73 -100 108 -138 181 -85 165 -77 -118
-77 2914 0 2952 -4 2733 58 2856 126 250 389 421 697 454 39 4 521 8 1073 9
l1002 1 0 -3340z m6000 3318 c291 -71 513 -250 605 -486 l26 -67 -3 -2765 -3
-2765 -31 -70 c-35 -81 -100 -183 -153 -238 -96 -102 -265 -197 -422 -239
l-84 -22 -1067 -3 -1068 -4 0 3341 0 3341 1068 -4 c937 -3 1075 -5 1132 -19z
M4773 7264 c-2 -5 -2 -68 -1 -139 l3 -128 138 2 137 2 0 -280 0 -281 280 0
280 0 0 418 0 417 -416 0 c-283 0 -418 -3 -421 -11z m607 -414 l0 -200 -55 0
-55 0 0 40 c0 33 -3 40 -20 40 -19 0 -20 7 -20 120 0 73 -4 120 -10 120 -14 0
-12 48 3 65 8 10 35 14 85 15 l72 0 0 -200z M4077 6852 l-137 -137 0 -1390 0
-1390 223 229 223 230 58 -104 59 -103 -6 -126 -7 -125 50 49 c45 44 53 48 70
37 33 -20 69 -14 101 17 32 33 34 43 15 86 -13 28 -12 32 14 60 27 29 29 35
35 175 l7 145 -86 -84 c-47 -47 -88 -82 -92 -78 -3 3 -28 45 -55 93 l-48 86
-3 959 -3 959 140 0 140 0 -275 275 c-151 151 -277 275 -280 275 -3 0 -67 -62
-143 -138z m191 -199 c41 -26 82 -65 98 -94 14 -27 10 -44 -27 -111 -5 -10 -9
-25 -9 -33 0 -8 -4 -15 -10 -15 -7 0 -10 -203 -10 -589 0 -569 -4 -652 -30
-636 -5 3 -10 -2 -10 -11 0 -15 -4 -14 -26 7 -14 13 -40 44 -58 69 l-31 45 -3
681 -3 680 23 12 c34 16 65 14 96 -5z m-188 -1416 c24 -25 107 -163 241 -403
73 -131 78 -143 69 -175 -6 -19 -10 -56 -10 -84 0 -64 -10 -125 -21 -125 -10
0 -136 210 -238 397 l-72 131 -3 118 c-2 66 -7 129 -11 142 -10 30 16 30 45
-1z M6160 6715 l-275 -275 140 0 140 0 -3 -942 c-1 -518 0 -939 3 -936 3 3 89
151 191 329 101 178 194 332 205 342 27 22 52 22 87 0 75 -48 77 -44 -280
-656 -54 -93 -98 -171 -98 -175 0 -4 101 -110 225 -236 l225 -229 0 1389 0
1389 -138 138 c-75 75 -139 137 -142 137 -3 0 -129 -124 -280 -275z m318 -57
c9 -9 12 -166 12 -644 l0 -632 -49 -41 c-27 -23 -52 -41 -55 -41 -3 0 -6 16
-6 35 0 33 -2 35 -20 25 -20 -11 -20 -8 -20 515 0 343 -3 525 -10 525 -5 0
-10 11 -10 25 0 14 -4 25 -9 25 -14 0 -30 80 -21 104 9 22 58 72 100 99 29 20
71 22 88 5z M4774 6161 c-2 -2 -4 -315 -4 -695 l0 -691 282 -139 282 -139 278
139 278 139 -2 693 -3 692 -553 3 c-305 1 -556 0 -558 -2z m696 -412 l140 145
0 -415 -1 -414 -139 -145 -140 -145 -140 145 -139 145 -1 415 0 415 140 -145
140 -145 140 144z m-480 -364 l0 -55 -75 0 -75 0 0 55 0 55 75 0 75 0 0 -55z
m830 0 l0 -55 -75 0 -75 0 0 55 0 55 75 0 75 0 0 -55z M4914 4080 l-140 -418
278 -138 278 -139 278 139 277 138 -139 418 -139 417 -138 -88 -138 -89 -139
89 -139 88 -139 -417z m320 75 c62 -19 126 -19 194 -1 30 8 60 12 68 9 38 -14
114 -238 114 -332 0 -37 -4 -71 -8 -78 -4 -6 -52 -33 -107 -60 -88 -42 -107
-48 -165 -48 -58 0 -77 6 -165 48 -128 62 -135 68 -135 128 0 57 72 286 102
324 23 29 35 30 102 10z M5884 4361 l5 -145 141 -140 140 -141 -6 145 -6 145
-140 140 -139 140 5 -144z"/>
</g>
</svg>
