<?xml version="1.0" standalone="no"?>
<!DOCTYPE svg PUBLIC "-//W3C//DTD SVG 20010904//EN"
 "http://www.w3.org/TR/2001/REC-SVG-20010904/DTD/svg10.dtd">
<svg version="1.0" xmlns="http://www.w3.org/2000/svg"
 width="2048.000000pt" height="2048.000000pt" viewBox="0 0 2048.000000 2048.000000"
 preserveAspectRatio="xMidYMid meet">
<metadata>
Created by potrace 1.13, written by Peter Selinger 2001-2015
</metadata>
<g transform="translate(0.000000,2048.000000) scale(0.192120,-0.192120)"
fill="#000000" stroke="none">
<path d="M1247 8924 c-399 -72 -737 -366 -862 -751 -58 -176 -55 -35 -55
-2838 0 -1657 4 -2605 10 -2650 25 -177 91 -345 189 -488 61 -88 184 -212 272
-274 91 -65 251 -139 366 -171 l98 -27 4065 0 4065 0 98 27 c422 117 734 449
818 873 21 105 21 5305 0 5410 -71 355 -298 646 -626 801 -52 25 -138 57 -192
72 l-98 27 -4035 2 c-3449 1 -4046 -1 -4113 -13z m8191 -302 c181 -48 310
-122 428 -244 79 -81 116 -140 151 -235 l23 -64 0 -2743 0 -2744 -24 -70 c-74
-219 -262 -398 -505 -481 -157 -54 64 -51 -4233 -49 l-3973 3 -96 26 c-287 80
-499 270 -587 527 l-22 62 0 2720 0 2721 21 62 c62 188 233 365 439 454 85 37
172 61 263 72 34 5 1855 8 4047 7 l3985 -1 83 -23z M5070 7385 c-585 -80
-1103 -416 -1458 -945 -108 -162 -222 -423 -280 -640 -24 -91 -26 -111 -30
-425 -4 -351 -1 -393 45 -563 75 -284 241 -596 441 -833 406 -480 946 -739
1542 -739 434 0 833 135 1187 402 398 300 696 766 808 1262 24 108 25 128 25
422 0 227 -4 329 -14 384 -80 414 -297 807 -622 1120 -60 58 -136 126 -169
151 -293 224 -613 358 -963 404 -136 18 -381 18 -512 0z m450 -260 c36 -3 112
-15 170 -26 450 -89 862 -362 1128 -747 290 -419 387 -965 261 -1467 -140
-556 -549 -1021 -1086 -1234 -342 -136 -746 -161 -1108 -70 -342 86 -677 290
-906 553 -269 308 -420 667 -448 1068 -49 683 282 1316 877 1680 148 91 357
172 551 214 175 38 332 46 561 29z M5105 6665 c-539 -98 -946 -473 -1088
-1005 -30 -112 -31 -121 -31 -330 0 -209 1 -218 31 -330 134 -501 499 -860
1002 -988 98 -25 122 -27 311 -27 190 0 213 2 312 27 193 49 360 128 515 245
70 53 263 246 263 264 0 5 -38 -20 -85 -56 -175 -133 -368 -202 -591 -212
-155 -7 -263 6 -386 47 -354 118 -618 398 -716 758 -23 87 -26 114 -26 272 0
158 3 185 26 272 131 481 554 808 1047 808 246 0 457 -71 648 -216 45 -35 83
-59 83 -53 0 22 -245 255 -320 304 -166 110 -360 188 -544 220 -108 18 -352
19 -451 0z m-511 -572 c-4 -16 -15 -39 -24 -53 -59 -86 -147 -303 -179 -442
-6 -26 -11 -143 -11 -268 0 -192 3 -233 21 -308 30 -120 117 -320 179 -412 22
-32 33 -77 21 -84 -5 -4 -45 27 -88 68 -87 82 -152 182 -212 325 l-36 86 0
330 0 330 37 83 c63 145 154 271 246 344 44 35 54 35 46 1z M5440 5807 l0
-296 -202 -65 c-112 -35 -238 -75 -280 -88 -43 -13 -78 -25 -78 -28 0 -3 35
-15 78 -28 42 -13 168 -53 279 -88 l203 -65 2 -294 3 -295 168 235 c93 129
174 235 181 235 6 0 133 -40 281 -90 148 -49 270 -88 271 -87 2 2 -75 110
-172 240 l-174 237 174 237 c97 130 174 238 172 240 -1 1 -123 -38 -271 -87
-148 -50 -275 -90 -281 -90 -7 0 -85 102 -175 228 -89 125 -166 231 -171 237
-4 5 -8 -124 -8 -288z m274 -403 c27 -14 35 -24 40 -55 11 -69 -27 -119 -90
-119 -24 0 -40 9 -63 35 -40 46 -40 80 1 122 36 37 61 41 112 17z"/>
</g>
</svg>
