<?xml version="1.0" standalone="no"?>
<!DOCTYPE svg PUBLIC "-//W3C//DTD SVG 20010904//EN"
 "http://www.w3.org/TR/2001/REC-SVG-20010904/DTD/svg10.dtd">
<svg version="1.0" xmlns="http://www.w3.org/2000/svg"
 width="2048.000000pt" height="2048.000000pt" viewBox="0 0 2048.000000 2048.000000"
 preserveAspectRatio="xMidYMid meet">
<metadata>
Created by potrace 1.13, written by Peter Selinger 2001-2015
</metadata>
<g transform="translate(0.000000,2048.000000) scale(0.192120,-0.192120)"
fill="#000000" stroke="none">
<path d="M2358 8943 c34 -2 90 -2 125 0 34 2 6 3 -63 3 -69 0 -97 -1 -62 -3z
M2550 8248 l0 -698 -1110 0 -1110 0 0 -415 0 -415 1110 0 1110 0 0 -664 c0
-365 3 -678 6 -695 l7 -31 -148 0 -148 0 5 355 c3 195 3 355 1 355 -3 0 -109
-74 -236 -163 -128 -90 -355 -250 -505 -355 l-274 -192 -276 1 -277 1 100 34
c111 38 153 39 192 2 23 -22 24 -22 56 -5 18 10 264 180 547 378 283 199 552
386 598 417 l82 55 0 114 0 113 -83 0 c-76 0 -87 -3 -123 -29 -21 -16 -376
-265 -789 -555 l-750 -526 -102 0 -103 0 0 -1287 c0 -800 4 -1315 10 -1358 25
-175 96 -357 193 -494 62 -88 186 -211 274 -272 99 -68 242 -134 360 -167 l98
-27 4065 0 4065 0 98 27 c422 117 734 449 818 873 21 105 21 5305 0 5410 -71
355 -298 646 -626 801 -52 25 -138 57 -192 72 l-98 27 -2098 3 -2098 2 -82
-59 c-171 -122 -1433 -1004 -1444 -1008 -7 -3 -13 -14 -13 -24 0 -18 11 -19
220 -19 l220 0 703 492 c386 270 726 509 755 530 l52 39 -1 -258 0 -258 -107
-74 c-59 -40 -234 -162 -390 -270 l-282 -196 390 -3 390 -2 0 -695 0 -695
-392 -2 -391 -3 59 -39 c32 -21 209 -143 391 -270 l333 -231 0 -282 0 -283
-325 0 -325 0 -553 387 c-303 213 -590 414 -637 448 -47 34 -91 65 -98 69 -11
6 -12 -77 -10 -448 l3 -456 -140 0 -140 0 0 695 0 695 1108 0 1107 0 0 32 c0
26 -11 43 -62 93 -35 33 -76 67 -93 75 -16 8 -33 19 -36 23 -3 4 -439 6 -970
5 -739 -3 -973 -7 -1001 -16 -67 -23 -232 -171 -244 -219 -4 -12 -10 -23 -15
-23 -5 0 -9 -249 -9 -585 0 -383 3 -585 10 -585 6 0 10 -7 10 -17 0 -22 43
-80 99 -130 l46 -43 -367 0 -368 0 47 43 c49 45 93 107 93 132 0 8 5 15 10 15
7 0 10 202 10 585 0 336 -4 585 -9 585 -5 0 -12 11 -15 25 -8 33 -104 134
-168 178 -38 26 -71 39 -118 47 -41 6 -381 10 -917 10 -752 0 -853 2 -853 15
0 11 -11 15 -40 15 l-40 0 0 145 0 145 40 0 c33 0 40 3 40 20 0 20 7 20 848
20 513 0 874 4 917 10 48 7 84 20 117 41 60 39 154 141 170 186 7 18 16 33 20
33 4 0 8 15 8 34 0 19 5 38 10 41 6 4 10 183 10 506 0 437 2 499 15 499 8 0
15 9 15 20 0 19 7 20 145 20 138 0 145 -1 145 -20 0 -13 7 -20 20 -20 20 0 20
-7 20 -499 0 -434 2 -500 15 -505 9 -3 15 -19 15 -41 0 -19 5 -35 10 -35 6 0
10 -6 10 -14 0 -32 130 -172 195 -211 24 -14 70 -29 110 -35 43 -6 428 -10
993 -10 813 0 922 2 922 15 0 8 9 15 20 15 11 0 20 4 20 9 0 5 10 12 23 16 12
3 46 33 75 66 38 43 52 67 52 89 l0 30 -1112 0 -1111 0 6 98 c4 53 7 366 7
694 l0 597 123 3 c67 2 -122 3 -420 3 l-543 0 0 -697z m6873 369 c276 -69 491
-240 583 -467 l24 -60 0 -2748 0 -2749 -21 -64 c-43 -134 -161 -289 -282 -371
-83 -57 -191 -104 -294 -131 l-88 -22 -4020 0 -4020 0 -96 26 c-237 66 -414
199 -520 391 -85 153 -79 43 -79 1420 l0 1225 58 16 c156 43 228 43 367 -1 98
-31 197 -34 272 -9 70 25 172 88 410 255 200 140 266 182 290 182 9 0 13 -18
13 -60 0 -33 4 -60 10 -60 6 0 10 -13 10 -30 0 -16 4 -30 9 -30 5 0 12 -11 15
-25 13 -53 165 -207 233 -237 75 -34 186 -30 285 10 109 44 215 56 448 50
l195 -5 110 -39 c134 -47 228 -52 309 -16 61 27 172 139 206 207 14 28 28 52
33 53 4 2 7 19 7 38 0 19 5 34 10 34 6 0 10 58 10 155 0 143 1 155 18 152 27
-4 68 -31 462 -307 201 -140 397 -272 436 -292 116 -61 159 -68 414 -68 250 0
315 10 381 56 98 68 195 209 191 279 -13 228 -13 344 2 379 37 88 6 195 -94
321 -87 112 -88 123 -19 190 28 28 62 70 77 95 14 25 31 48 37 52 6 4 11 66
13 153 3 120 1 151 -12 170 -14 21 -16 75 -16 404 0 295 3 380 13 384 9 3 12
44 12 163 0 144 -2 161 -20 183 -11 13 -50 58 -87 100 -82 92 -85 113 -30 174
74 82 141 199 142 249 0 15 5 30 10 33 6 3 10 52 10 111 l0 104 1753 -3 c1609
-3 1758 -4 1820 -20z M6483 7360 c-23 -5 -56 -16 -73 -25 -47 -24 -184 -159
-206 -202 -10 -21 -22 -39 -26 -41 -5 -2 -8 -12 -8 -23 0 -10 -4 -19 -10 -19
-7 0 -10 -412 -10 -1215 0 -1196 0 -1215 -20 -1247 -11 -18 -20 -45 -20 -59 0
-20 -35 -61 -153 -180 -169 -171 -229 -243 -276 -338 -32 -63 -32 -64 -29
-195 3 -124 5 -135 37 -200 89 -188 223 -333 369 -399 38 -17 74 -22 188 -26
158 -7 118 9 339 -132 201 -128 429 -232 643 -293 609 -175 1252 -65 1830 313
67 44 132 86 145 93 13 7 79 15 162 18 129 5 145 8 205 36 127 60 235 173 319
334 62 118 71 152 71 276 0 103 -2 115 -31 175 -43 89 -118 179 -296 357 -133
134 -153 158 -153 186 0 17 -7 41 -15 53 -13 18 -15 182 -17 1247 -2 803 -6
1229 -13 1234 -5 4 -18 24 -29 44 -27 53 -165 184 -222 211 l-49 22 -1305 1
c-718 1 -1324 -2 -1347 -6z m2725 -1572 l-3 -1313 -22 -41 -22 -41 44 -7 c65
-8 118 -39 162 -93 61 -75 193 -205 259 -255 85 -64 108 -113 102 -216 -6 -96
-40 -172 -115 -253 -98 -105 -203 -125 -319 -59 -30 17 -60 27 -67 23 -7 -4
-45 -33 -85 -65 -263 -208 -605 -375 -902 -441 -300 -67 -633 -62 -920 12
-301 79 -608 236 -874 449 -68 55 -69 55 -95 38 -59 -39 -97 -51 -161 -51 -79
0 -137 30 -199 102 -143 165 -146 357 -9 458 94 69 182 151 233 218 63 84 120
124 187 133 26 4 48 8 48 9 0 1 -9 23 -20 47 -19 44 -20 73 -20 1344 0 714 0
1302 0 1307 0 4 630 7 1400 7 l1400 0 -2 -1312z M6550 6953 c0 -5 0 -559 0
-1231 l0 -1224 22 -41 c83 -164 580 -498 1120 -751 l118 -55 247 124 c522 260
909 530 987 687 l26 52 0 1223 0 1223 -1260 0 c-693 0 -1260 -3 -1260 -7z
m212 -135 c7 -24 19 -48 27 -54 13 -10 13 -16 3 -38 -26 -57 -18 -66 51 -66
l62 0 25 47 c44 83 82 84 110 2 l16 -44 58 -3 c35 -2 73 3 95 11 67 27 131 -3
92 -42 -29 -29 -71 -38 -83 -17 -8 14 -17 10 -63 -31 -30 -27 -55 -56 -55 -65
0 -27 -32 -38 -107 -38 -74 0 -113 17 -113 49 0 26 -18 38 -72 50 -65 15 -95
30 -113 58 -14 21 -14 23 3 23 29 0 31 7 17 62 -14 49 -13 57 7 111 15 38 25
34 40 -15z m1636 17 c7 -14 12 -33 12 -42 0 -9 7 -21 17 -28 13 -10 14 -17 5
-45 -20 -57 -18 -60 51 -60 l62 0 25 47 c44 83 82 84 110 2 l16 -44 69 2 c39
1 95 4 125 5 50 3 55 1 58 -19 5 -37 -79 -71 -92 -37 -5 12 -17 5 -61 -33 -30
-26 -55 -56 -55 -65 0 -27 -32 -38 -107 -38 -74 0 -113 17 -113 49 0 26 -18
38 -74 51 -61 13 -103 35 -116 59 -14 27 -13 31 11 31 19 0 20 3 13 38 -12 53
-10 98 6 127 17 31 24 31 38 0z m-342 -45 c35 -53 55 -128 45 -172 -8 -34 -30
-82 -36 -76 -1 1 -17 57 -35 122 -41 157 -30 211 26 126z m-198 -12 c7 -7 12
-26 12 -43 0 -19 8 -39 19 -49 13 -12 20 -35 23 -74 2 -31 12 -73 20 -92 9
-19 19 -50 23 -67 6 -30 10 -33 44 -33 79 0 191 -116 151 -156 -7 -7 -2 -31
15 -73 66 -163 85 -340 48 -446 -12 -33 -31 -112 -43 -175 -33 -169 -55 -235
-90 -262 l-29 -23 29 -92 c32 -103 243 -933 238 -938 -8 -8 -241 -66 -307 -76
-56 -8 -89 -8 -134 1 -51 10 -85 9 -203 -6 -162 -20 -174 -17 -174 45 0 20 11
101 25 181 14 80 28 190 31 246 l7 101 -25 6 c-29 8 -48 44 -48 95 0 20 14
109 32 197 25 123 36 164 52 176 17 14 18 19 7 33 -11 13 -10 32 4 115 17 92
17 101 1 116 -20 21 -21 79 0 136 17 48 54 202 54 223 0 8 -13 1 -32 -17 -18
-16 -64 -54 -103 -82 -102 -77 -114 -92 -126 -166 -16 -101 -40 -177 -64 -203
-19 -21 -20 -26 -9 -47 7 -13 13 -34 14 -46 0 -36 60 -41 193 -17 38 6 38 6
31 -22 -4 -16 -9 -32 -11 -36 -6 -12 -33 -10 -33 2 0 22 -27 7 -77 -42 -29
-29 -53 -60 -53 -69 0 -23 -20 -29 -99 -29 -72 0 -111 17 -111 49 0 26 -17 38
-75 52 -65 16 -102 35 -115 58 -14 27 -13 31 11 31 17 0 20 4 15 23 -15 51
-16 113 -4 136 21 39 36 36 50 -11 6 -24 18 -48 25 -53 11 -9 11 -17 -1 -52
-8 -23 -12 -44 -9 -47 4 -3 34 -6 67 -6 l61 0 23 49 c13 29 31 53 43 56 15 5
18 10 10 18 -6 6 -11 39 -11 73 0 81 27 134 155 297 55 70 124 166 153 214
l52 86 -20 22 c-11 12 -20 30 -20 41 0 10 31 75 68 144 75 140 100 163 152
143 26 -10 32 -9 40 7 6 10 10 33 10 50 0 27 -6 33 -43 49 -62 27 -72 44 -71
116 2 74 33 151 66 165 32 12 52 12 66 -2z m-380 -261 c4 -33 -30 -99 -63
-121 -29 -19 -65 -8 -65 21 0 38 89 138 115 130 5 -2 11 -15 13 -30z m-713
-143 c5 -21 16 -44 24 -50 11 -9 12 -17 3 -44 -20 -57 -18 -60 51 -60 l62 0
25 47 c45 84 84 84 109 -1 l15 -47 75 5 c171 13 176 13 179 -11 6 -40 -78 -74
-92 -37 -5 13 -17 6 -60 -33 -30 -26 -55 -55 -55 -64 -2 -32 -31 -44 -107 -43
-79 1 -114 18 -114 56 0 21 -40 41 -103 53 -21 4 -51 21 -70 38 -31 31 -31 32
-9 35 25 4 26 12 11 79 -9 40 -9 55 5 86 19 47 38 44 51 -9z m1642 -30 c3 -21
13 -44 21 -50 12 -9 13 -17 4 -44 -20 -57 -18 -60 51 -60 l62 0 25 47 c44 83
82 84 110 2 16 -44 16 -44 69 -47 29 -2 73 4 97 12 54 18 98 9 102 -22 3 -16
-5 -26 -33 -39 -33 -16 -37 -16 -52 -1 -15 15 -20 13 -69 -30 -30 -26 -54 -55
-54 -64 0 -27 -32 -38 -107 -38 -74 0 -113 17 -113 49 0 26 -17 37 -84 54 -35
10 -70 27 -87 43 -35 34 -36 44 -5 44 l25 0 -15 51 c-17 55 -12 103 14 132 20
22 31 11 39 -39z m-1642 -460 c5 -21 16 -44 24 -50 12 -9 12 -17 -2 -57 l-16
-47 67 0 67 0 25 47 c45 84 83 84 109 -1 l15 -47 70 4 c39 3 86 8 103 12 75
17 115 -28 53 -60 -37 -19 -56 -19 -64 1 -5 13 -17 6 -60 -33 -30 -26 -55 -55
-55 -64 -1 -29 -30 -42 -94 -43 -90 -1 -116 8 -124 45 -7 34 -22 45 -92 60
-33 7 -62 21 -83 42 l-33 32 26 3 26 3 -15 62 c-13 56 -13 66 2 100 19 47 38
44 51 -9z m1640 0 c5 -21 16 -44 24 -50 12 -9 12 -17 -2 -57 l-16 -47 69 0 68
0 23 47 c43 84 83 84 108 -1 l15 -47 70 4 c39 3 86 8 103 12 46 10 83 -1 83
-25 0 -40 -81 -68 -94 -33 -6 14 -16 8 -57 -33 -28 -27 -55 -60 -62 -74 -15
-30 -62 -42 -132 -34 -55 7 -85 27 -85 56 0 21 -40 41 -103 53 -21 4 -51 21
-70 39 l-32 31 28 3 c15 2 27 4 27 5 0 1 -6 25 -14 54 -13 50 -10 103 9 132
12 21 30 6 40 -35z m2 -450 c3 -21 13 -44 21 -50 12 -9 13 -17 4 -44 -20 -57
-18 -60 51 -60 l62 0 25 47 c44 83 82 84 110 2 l16 -44 69 2 c39 1 95 4 125 5
50 3 55 1 58 -19 5 -37 -79 -71 -92 -37 -5 12 -17 5 -61 -33 -30 -26 -55 -56
-55 -65 0 -27 -32 -38 -107 -38 -74 0 -113 17 -113 49 0 26 -18 38 -74 51 -61
13 -103 35 -116 59 -14 27 -13 31 11 31 19 0 20 3 13 38 -13 59 -10 107 10
137 22 33 34 24 43 -31z m-1663 -386 c3 -13 6 -33 6 -44 0 -12 9 -28 21 -35
19 -13 20 -16 4 -53 -9 -21 -15 -39 -13 -41 2 -1 31 -5 66 -7 l64 -4 15 38 c8
21 27 47 40 58 34 26 59 12 75 -43 6 -23 17 -45 23 -49 18 -13 100 -9 149 8
39 13 52 14 77 4 39 -17 34 -39 -14 -65 -37 -20 -38 -20 -52 -1 -14 18 -17 17
-64 -25 -27 -24 -53 -54 -56 -67 -10 -32 -35 -42 -104 -42 -79 0 -111 13 -111
44 0 31 -14 41 -85 60 -64 16 -108 44 -113 70 -2 11 3 16 17 16 18 0 20 4 14
28 -13 44 -9 137 6 155 18 23 28 21 35 -5z m1661 -57 c6 -23 17 -46 25 -51 11
-7 12 -16 2 -48 -7 -22 -12 -42 -12 -46 0 -3 29 -6 64 -6 l64 0 22 45 c39 81
80 82 107 4 17 -46 20 -49 62 -55 32 -5 60 -2 97 11 56 19 101 15 111 -10 7
-19 -14 -44 -46 -57 -20 -7 -28 -5 -38 8 -11 15 -17 13 -68 -30 -32 -28 -55
-56 -55 -67 0 -26 -37 -39 -108 -39 -72 0 -105 17 -112 54 -5 30 -11 34 -97
56 -41 10 -103 53 -103 71 0 5 11 9 24 9 l24 0 -14 53 c-14 52 -11 96 10 129
16 27 30 17 41 -31z m-1661 -413 c3 -13 6 -32 6 -43 0 -11 9 -26 20 -33 17
-10 18 -15 8 -31 -12 -19 -13 -19 -51 1 -38 19 -39 21 -34 59 8 62 39 90 51
47z m1661 -27 c5 -23 16 -46 24 -50 13 -9 7 -51 -8 -51 -10 0 -46 40 -61 68
-9 19 -9 30 1 53 16 39 31 32 44 -20z m-1401 -63 c9 -12 19 -37 22 -56 l6 -33
77 5 c42 3 97 8 122 11 36 5 48 3 59 -10 13 -15 11 -20 -13 -41 -32 -27 -62
-31 -74 -9 -7 11 -20 3 -66 -36 -31 -28 -57 -59 -57 -69 0 -24 -19 -30 -95
-30 -79 0 -115 15 -115 47 0 25 -31 44 -106 63 -23 5 -54 22 -70 37 l-29 28
116 3 115 3 13 35 c15 41 44 74 65 74 8 0 22 -10 30 -22z m1660 0 c8 -13 17
-37 21 -54 5 -28 11 -32 48 -37 23 -3 60 -1 82 4 72 19 100 21 119 6 23 -17
16 -32 -26 -53 -29 -15 -32 -15 -44 1 -12 16 -18 13 -68 -31 -31 -26 -59 -57
-62 -68 -10 -31 -22 -36 -105 -36 -80 0 -103 11 -110 55 -3 15 -22 26 -73 42
-64 21 -116 54 -116 75 0 4 49 8 110 8 l110 0 15 37 c31 73 71 94 99 51z
M8076 6025 c-22 -124 -41 -213 -67 -317 -29 -117 -34 -169 -23 -227 7 -33 24
-33 24 1 0 12 28 103 61 202 61 180 61 181 51 246 -5 36 -16 81 -24 100 l-15
35 -7 -40z M6388 4239 c-10 -5 -43 -44 -75 -86 -50 -67 -199 -204 -252 -232
-44 -24 -51 -101 -15 -177 25 -52 93 -121 128 -130 40 -10 105 24 151 79 l37
45 102 -85 c271 -228 593 -400 891 -477 226 -59 536 -72 765 -31 356 64 729
250 1042 519 l87 75 36 -44 c45 -54 112 -89 154 -80 62 13 150 141 151 217 0
55 -6 64 -84 122 -64 49 -132 117 -252 250 -61 69 -74 65 -200 -53 -320 -302
-693 -511 -1030 -577 -127 -25 -319 -23 -450 4 -343 73 -720 288 -1028 586
-91 88 -116 100 -158 75z M4288 8943 l-628 -3 0 -456 0 -456 53 38 c68 49
1092 766 1177 825 57 39 73 45 135 50 69 6 68 6 -20 5 -49 0 -372 -2 -717 -3z
m-290 -324 c4 -19 -23 -49 -44 -49 -9 0 -14 11 -14 36 0 33 2 35 27 32 16 -2
29 -10 31 -19z M1282 8933 c-8 -3 7 -19 40 -41 75 -50 442 -306 715 -499 127
-89 233 -163 235 -163 2 0 3 160 3 355 l0 355 -490 -1 c-269 0 -496 -3 -503
-6z M1090 8881 c-30 -10 -68 -25 -85 -35 l-30 -17 68 4 c61 3 71 6 100 35 36
37 27 39 -53 13z M753 8701 c-75 -59 -156 -142 -146 -151 9 -8 191 -136 685
-483 l336 -237 249 0 248 0 -40 27 c-48 31 -779 540 -1058 735 -109 77 -204
141 -211 144 -7 3 -36 -13 -63 -35z M484 8398 c-83 -131 -154 -369 -154 -514
l0 -54 531 0 531 0 -218 151 c-298 207 -506 353 -585 410 -37 27 -69 49 -73
49 -3 0 -18 -19 -32 -42z M330 6054 l0 -386 43 32 c54 41 755 541 916 653
l123 87 -541 0 -541 0 0 -386z M4311 6292 c118 -81 396 -276 619 -432 223
-156 464 -324 535 -373 l130 -88 3 43 c2 28 -5 62 -18 92 -26 61 -25 110 1
153 12 19 20 35 18 37 -2 1 -23 16 -45 34 -23 18 -250 178 -505 357 l-464 325
-244 0 -243 0 213 -148z"/>
</g>
</svg>
