<?xml version="1.0" standalone="no"?>
<!DOCTYPE svg PUBLIC "-//W3C//DTD SVG 20010904//EN"
 "http://www.w3.org/TR/2001/REC-SVG-20010904/DTD/svg10.dtd">
<svg version="1.0" xmlns="http://www.w3.org/2000/svg"
 width="2048.000000pt" height="2048.000000pt" viewBox="0 0 2048.000000 2048.000000"
 preserveAspectRatio="xMidYMid meet">
<metadata>
Created by potrace 1.13, written by Peter Selinger 2001-2015
</metadata>
<g transform="translate(0.000000,2048.000000) scale(0.192120,-0.192120)"
fill="#000000" stroke="none">
<path d="M1247 8924 c-399 -72 -737 -366 -862 -751 -57 -175 -55 -50 -55
-2673 l0 -2415 46 100 c124 270 125 284 45 375 -17 19 -31 40 -31 46 0 16
-242 -162 3640 2669 1922 1401 3515 2563 3540 2581 l45 33 47 -46 c42 -42 53
-47 103 -51 67 -5 130 9 382 88 l188 59 -3505 0 c-2980 -1 -3517 -3 -3583 -15z
m5576 -286 c16 -12 16 -15 -4 -43 -12 -16 -51 -53 -88 -82 -77 -60 -5955
-4349 -6049 -4414 -52 -36 -65 -41 -72 -29 -6 9 -10 787 -10 1996 0 1975 0
1981 21 2044 24 73 79 168 140 240 124 148 357 264 579 290 36 4 1280 8 2766
9 2146 1 2704 -2 2717 -11z M8380 8926 c-18 -17 -163 -124 -1115 -817 -396
-289 -2099 -1531 -3785 -2760 -1686 -1230 -3084 -2248 -3108 -2264 l-42 -28 0
-151 c0 -83 5 -182 10 -221 25 -177 91 -345 189 -488 61 -88 184 -212 272
-274 92 -65 252 -139 366 -170 97 -27 102 -27 493 -31 l395 -3 85 64 c164 123
8063 5869 8126 5910 l63 42 0 91 c4 429 -248 823 -644 1010 -52 25 -138 57
-192 72 l-98 26 -500 4 c-427 3 -502 1 -515 -12z m967 -307 c280 -38 517 -199
631 -428 37 -75 37 -75 40 -222 l3 -146 -42 -34 c-110 -87 -1470 -1072 -1512
-1095 -31 -16 -56 -24 -71 -20 -13 3 -50 34 -82 68 -97 104 -171 173 -250 235
l-74 58 0 61 c0 41 12 106 36 190 20 71 38 163 41 205 5 67 3 80 -21 128 -32
63 -93 131 -155 174 -89 61 -173 35 -416 -127 -71 -47 -144 -89 -161 -92 -57
-10 -164 60 -164 108 0 31 8 38 230 200 895 651 883 643 958 687 99 58 111 60
539 60 227 1 424 -3 470 -10z m-1572 -1296 c-54 -164 -104 -315 -111 -335
l-13 -37 227 -164 c125 -90 255 -184 290 -208 l64 -44 -359 -3 -358 -2 -43
-138 c-92 -295 -163 -518 -168 -532 -4 -8 -26 47 -51 125 -24 77 -74 232 -110
344 l-66 203 -358 -3 c-197 -2 -355 -1 -351 3 4 3 133 97 287 208 154 111 281
205 283 208 1 4 -47 155 -108 336 -60 182 -108 332 -106 334 3 2 38 -21 78
-51 212 -156 489 -357 494 -357 5 0 437 315 524 383 25 19 47 33 49 31 2 -1
-41 -137 -94 -301z m-1203 -123 c11 -22 17 -60 18 -102 0 -77 2 -73 -100 -154
-60 -48 -155 -143 -222 -221 -41 -48 -78 -128 -78 -167 0 -87 140 -254 252
-300 49 -21 182 -36 311 -36 108 0 109 0 136 -29 15 -16 42 -67 60 -113 44
-111 85 -191 133 -260 47 -67 46 -91 -5 -138 -58 -52 -2440 -1782 -2495 -1811
-30 -16 -60 -26 -70 -22 -9 3 -71 60 -137 127 -66 67 -153 146 -192 176 l-73
55 0 61 c0 41 12 105 36 190 20 71 38 163 41 205 5 72 4 80 -28 139 -38 71
-142 173 -196 191 -68 22 -149 -12 -363 -151 -74 -49 -147 -92 -162 -95 -55
-14 -170 61 -171 110 0 14 2 27 4 29 2 2 432 316 954 697 2433 1774 2277 1662
2310 1657 11 -2 27 -18 37 -38z m1155 -1025 c-4 -8 -11 -15 -17 -15 -14 0 -13
27 3 33 16 6 21 1 14 -18z m-3846 -1725 c-59 -179 -107 -327 -105 -330 1 -3
131 -98 289 -210 l286 -205 -358 -3 -358 -2 -31 -103 c-45 -144 -173 -549
-180 -567 -3 -8 -21 34 -41 95 -19 61 -69 215 -110 343 l-76 234 -353 -4
c-195 -2 -353 0 -352 4 2 3 129 97 283 208 154 112 282 204 284 206 2 1 -47
152 -108 335 -61 183 -109 335 -106 337 4 4 118 -78 453 -325 61 -46 115 -83
118 -83 5 0 432 312 524 383 25 19 46 30 47 23 1 -6 -46 -157 -106 -336z
m-1189 -80 c12 -24 18 -58 18 -105 l-1 -70 -80 -65 c-74 -60 -174 -159 -241
-237 -41 -48 -78 -128 -78 -167 0 -64 68 -163 170 -249 69 -58 145 -77 339
-84 197 -7 194 -6 250 -144 51 -125 85 -192 132 -258 22 -30 39 -62 39 -72 0
-32 -68 -86 -525 -418 -508 -369 -584 -422 -664 -460 l-56 -26 -345 0 c-375 0
-402 3 -549 62 -219 87 -387 257 -458 463 -20 57 -23 85 -23 237 l0 172 94 70
c279 207 1810 1320 1861 1353 33 21 69 38 80 36 11 -2 28 -18 37 -38z M10304
7657 c-12 -28 -43 -99 -69 -156 -60 -131 -67 -177 -32 -229 14 -20 36 -49 50
-63 l25 -26 -46 -35 c-127 -94 -7249 -5275 -7347 -5343 -38 -27 -64 -42 -58
-34 11 13 8 20 -15 41 -92 86 -137 83 -512 -33 -91 -29 -167 -53 -169 -55 -3
-2 1631 -3 3630 -2 l3634 3 98 27 c195 54 372 156 511 296 154 155 246 323
303 551 16 60 17 254 20 2246 2 1199 2 2334 1 2522 l-3 343 -21 -53z m-289
-5144 c-52 -137 -164 -283 -276 -360 -77 -53 -189 -104 -288 -132 l-96 -26
-2867 0 c-2698 0 -2868 1 -2884 17 -17 16 -17 19 2 39 10 12 429 319 929 684
4148 3018 5397 3926 5445 3958 l55 37 3 -2075 2 -2074 -25 -68z"/>
</g>
</svg>
