<?xml version="1.0" standalone="no"?>
<!DOCTYPE svg PUBLIC "-//W3C//DTD SVG 20010904//EN"
 "http://www.w3.org/TR/2001/REC-SVG-20010904/DTD/svg10.dtd">
<svg version="1.0" xmlns="http://www.w3.org/2000/svg"
 width="2048.000000pt" height="2048.000000pt" viewBox="0 0 2048.000000 2048.000000"
 preserveAspectRatio="xMidYMid meet">
<metadata>
Created by potrace 1.13, written by Peter Selinger 2001-2015
</metadata>
<g transform="translate(0.000000,2048.000000) scale(0.192120,-0.192120)"
fill="#000000" stroke="none">
<path d="M1770 8940 c-272 -3 -497 -6 -500 -8 -3 -1 20 -19 50 -39 77 -51 442
-306 717 -500 127 -89 234 -163 237 -163 3 0 3 111 -1 248 -3 136 -3 295 2
355 l7 107 134 0 134 0 0 -695 0 -695 -1110 0 -1110 0 0 -415 0 -415 1110 0
1110 0 0 -695 0 -695 -141 0 -142 0 5 355 c3 195 3 355 1 355 -3 0 -93 -63
-201 -139 -109 -76 -336 -236 -507 -355 l-309 -216 -98 0 -98 0 0 -52 c0 -76
30 -132 82 -153 98 -39 165 24 190 180 3 20 12 20 470 23 l467 2 5 -57 c13
-128 46 -172 133 -180 104 -10 158 45 170 172 l6 65 387 0 387 0 5 -65 c10
-114 62 -175 151 -175 96 0 137 48 145 168 l5 72 600 -2 601 -3 17 -67 c34
-138 68 -164 224 -180 141 -15 385 2 450 31 58 26 139 102 165 155 30 62 27
112 -9 145 -16 15 -45 32 -63 37 l-33 10 -5 134 -5 135 -510 357 -510 358
-243 0 -244 0 213 -148 c118 -82 457 -318 754 -526 483 -339 540 -381 543
-407 l3 -29 -325 0 -325 0 -548 383 c-301 211 -593 416 -648 455 l-100 72 -3
-455 -2 -455 -138 0 -137 0 0 695 0 695 1113 0 1112 0 0 -140 0 -140 -392 -2
-391 -3 59 -39 c32 -21 208 -143 391 -270 l332 -231 1 -74 0 -74 40 6 c52 7
88 30 96 63 13 50 -22 81 -123 110 -10 3 -13 63 -13 258 l0 255 38 6 c67 11
77 15 107 42 28 25 30 30 30 103 0 72 -2 77 -32 107 -33 32 -43 37 -104 47
l-36 6 -6 122 c-9 154 -9 357 0 520 7 139 2 130 75 143 54 9 98 53 105 103 5
41 -4 138 -13 129 -3 -2 -17 8 -32 23 -20 20 -43 30 -80 35 l-52 7 0 248 0
248 33 7 c92 18 147 62 147 119 0 20 5 36 10 36 6 0 10 38 10 95 0 78 3 95 15
95 8 0 15 7 15 15 0 13 191 15 1655 15 1420 0 1655 -2 1655 -14 0 -11 20 -16
78 -21 277 -22 484 -109 641 -268 110 -111 162 -205 203 -363 l23 -89 0 -2625
0 -2625 -27 -95 c-34 -121 -55 -169 -110 -256 -127 -197 -336 -329 -588 -370
-71 -12 -490 -14 -2527 -14 l-2443 0 -30 32 c-36 38 -37 41 -45 192 l-6 118
58 58 c86 85 113 118 125 151 5 16 14 29 19 29 5 0 9 9 9 20 0 11 -3 20 -6 20
-3 0 -79 -52 -169 -116 l-163 -116 69 -206 c38 -113 67 -207 65 -210 -3 -2
-31 16 -63 40 -32 25 -110 83 -174 130 l-117 86 -173 -128 c-96 -71 -175 -123
-177 -117 -1 7 27 100 63 206 53 158 63 197 53 207 -7 7 -80 60 -163 118 -110
77 -151 101 -153 89 -7 -29 42 -104 115 -178 l73 -73 0 -131 c0 -139 1 -136
-55 -191 l-30 -30 -1081 0 c-1175 0 -1168 0 -1326 56 -189 67 -368 217 -459
384 -85 155 -79 37 -79 1452 l0 1259 25 33 c14 19 36 64 49 102 l23 69 168 3
168 2 591 414 c325 227 610 425 634 441 l42 28 0 113 0 114 -83 0 c-76 0 -87
-3 -123 -29 -21 -16 -376 -266 -789 -555 l-750 -526 -103 0 -103 0 4 -1332 c3
-1198 5 -1340 20 -1399 56 -226 142 -384 296 -542 143 -147 317 -249 518 -305
l98 -27 4065 0 4065 0 98 27 c201 56 375 158 518 305 161 165 256 346 301 573
20 100 19 5304 -1 5405 -79 398 -363 722 -744 850 -167 56 -70 53 -2303 56
l-2061 2 -84 -60 c-172 -124 -1434 -1006 -1446 -1010 -7 -3 -13 -14 -13 -24 0
-18 11 -19 220 -19 l220 0 750 525 c412 289 752 525 755 525 3 0 4 -113 3
-252 l-3 -252 -110 -78 c-60 -43 -235 -165 -388 -271 l-277 -192 390 -3 390
-2 0 -140 0 -140 -1117 0 -1116 0 6 98 c4 53 7 366 7 694 l0 597 133 3 c72 2
-181 3 -563 3 -382 0 -918 -2 -1190 -5z m1370 -794 c0 -448 2 -515 15 -520 9
-3 15 -19 15 -41 0 -19 4 -35 8 -35 4 0 14 -15 20 -34 16 -44 132 -169 186
-201 24 -14 71 -29 111 -35 43 -6 425 -10 983 -10 l912 0 0 -145 0 -144 -962
-3 -963 -3 -55 -27 c-61 -30 -220 -183 -220 -212 0 -9 -4 -16 -10 -16 -5 0
-10 -9 -10 -20 0 -11 -4 -20 -10 -20 -7 0 -10 -185 -10 -535 l0 -535 -25 0
c-23 0 -25 -4 -25 -45 l0 -45 -145 0 -145 0 0 45 c0 33 -4 45 -15 45 -13 0
-15 66 -15 535 0 350 -3 535 -10 535 -5 0 -10 9 -10 19 0 11 -3 21 -7 23 -5 2
-17 20 -27 41 -22 42 -139 158 -184 181 -63 33 -155 36 -1049 36 l-893 0 0
145 0 145 888 0 c882 0 992 4 1052 35 55 28 147 124 176 182 16 32 32 60 37
61 4 2 7 19 7 37 0 19 5 37 10 40 6 4 10 188 10 521 l0 514 180 0 180 0 0
-514z m921 -2525 c27 -34 9 -50 -64 -58 l-57 -6 0 76 0 76 51 -31 c28 -18 60
-43 70 -57z M3660 8487 l0 -459 53 38 c68 49 1092 766 1177 825 63 42 68 44
155 49 50 3 -242 5 -647 5 l-738 0 0 -458z m338 132 c4 -19 -23 -49 -44 -49
-9 0 -14 11 -14 36 0 33 2 35 27 32 16 -2 29 -10 31 -19z M1060 8874 c-95 -36
-99 -47 -16 -41 60 4 72 9 100 36 l31 31 -25 0 c-14 -1 -54 -12 -90 -26z M715
8672 c-44 -38 -89 -79 -100 -92 l-20 -23 25 -18 c14 -10 246 -174 517 -364
l492 -345 248 0 248 0 -40 27 c-59 39 -828 574 -1063 740 -112 79 -209 143
-215 143 -7 0 -48 -31 -92 -68z M9282 8439 c-18 -17 -52 -73 -76 -124 -66
-138 -92 -158 -214 -169 -64 -6 -143 -34 -156 -55 -5 -8 46 -11 182 -11 l189
0 26 88 c15 48 42 135 61 195 19 59 31 107 27 107 -4 0 -22 -14 -39 -31z
M9381 8378 c16 -51 43 -139 61 -195 l31 -103 204 0 c115 0 203 4 203 9 0 17
-60 60 -98 71 -20 6 -75 13 -121 17 -104 8 -127 24 -183 137 -35 72 -100 156
-119 156 -4 0 6 -42 22 -92z M463 8362 c-77 -145 -133 -344 -133 -478 l0 -54
531 0 531 0 -218 151 c-298 207 -506 353 -585 410 -37 27 -70 49 -75 49 -5 0
-28 -35 -51 -78z M9725 7935 c-96 -69 -159 -120 -159 -130 4 -39 118 -354 127
-348 6 4 7 63 3 162 l-6 156 83 85 c45 47 93 102 105 123 22 38 29 68 15 66
-5 0 -80 -51 -168 -114z M8800 8029 c0 -20 42 -82 87 -129 24 -25 43 -49 43
-54 0 -4 11 -21 25 -38 24 -29 25 -34 25 -188 0 -87 4 -161 9 -164 5 -3 34 72
66 167 32 94 60 177 62 183 2 6 -55 54 -128 105 -165 117 -189 132 -189 118z
M9184 7542 c-78 -59 -142 -111 -143 -117 -3 -15 35 -18 77 -4 20 6 68 27 106
45 91 44 133 44 228 0 130 -60 156 -66 186 -48 13 9 -277 232 -300 231 -7 0
-76 -48 -154 -107z M8047 7333 c-5 -8 266 -218 291 -225 12 -4 302 211 302
223 0 18 -78 8 -129 -16 -136 -66 -192 -69 -306 -15 -71 33 -148 50 -158 33z
M8622 7120 l-61 -179 132 -94 c196 -138 198 -140 204 -133 16 16 -39 98 -114
172 l-83 81 0 161 c0 89 -4 163 -9 166 -5 3 -36 -75 -69 -174z M7985 7279 c-4
-6 -4 -75 0 -154 7 -140 7 -143 -17 -178 -13 -19 -49 -57 -81 -82 -31 -26 -57
-51 -57 -54 0 -4 -9 -17 -21 -29 -12 -14 -19 -33 -17 -48 3 -25 9 -22 160 86
87 61 160 115 162 119 7 10 -106 351 -116 351 -4 0 -10 -5 -13 -11z M6787
6901 c-26 -6 -17 -14 124 -119 83 -63 156 -111 162 -109 24 9 299 218 294 223
-17 17 -92 2 -176 -35 -52 -23 -107 -41 -121 -41 -15 0 -67 16 -116 36 -114
46 -133 51 -167 45z M6715 6849 c-2 -8 -6 -72 -8 -144 -5 -160 -12 -189 -48
-219 -16 -14 -29 -28 -29 -33 0 -4 -15 -24 -33 -43 -45 -49 -69 -88 -65 -109
2 -15 34 4 159 92 l156 111 -58 174 c-32 96 -61 177 -64 180 -2 3 -7 -1 -10
-9z M7402 6843 c-5 -10 -33 -90 -62 -177 l-53 -159 28 -21 c16 -12 90 -64 164
-117 115 -81 137 -93 139 -76 5 28 -62 120 -130 179 l-58 51 0 163 c0 155 -7
197 -28 157z M7809 6661 c28 -28 117 -58 198 -66 45 -4 77 -13 85 -22 7 -8 22
-19 33 -23 11 -4 30 -26 40 -49 11 -22 23 -41 28 -41 4 0 7 -5 7 -11 0 -33 96
-159 121 -159 7 0 -32 136 -86 303 l-29 87 -208 0 c-204 0 -208 0 -189 -19z
M8471 6658 c-34 -90 -112 -360 -106 -366 12 -12 68 61 110 144 22 44 54 95 72
115 31 34 37 37 114 43 92 9 184 37 211 66 19 20 18 20 -187 20 -204 0 -206 0
-214 -22z M330 6054 l0 -386 43 32 c54 41 755 541 916 653 l123 87 -541 0
-541 0 0 -386z M6625 6241 l-80 -6 47 -28 c37 -22 66 -30 140 -38 62 -6 101
-15 118 -27 14 -11 50 -68 81 -127 49 -95 102 -165 115 -152 3 2 -22 89 -55
193 l-59 189 -113 1 c-63 0 -150 -2 -194 -5z M7172 6148 c-18 -57 -45 -145
-61 -195 -28 -90 -28 -92 -7 -82 31 16 51 44 101 140 67 127 83 139 197 151
109 10 143 20 182 51 l29 24 -114 6 c-63 4 -155 7 -205 7 l-91 0 -31 -102z
M9362 5623 c3 -10 29 -96 59 -190 l54 -173 209 0 209 0 -23 25 c-33 35 -114
63 -207 71 -115 10 -119 13 -183 134 -53 99 -133 190 -118 133z M9277 5598
c-16 -18 -41 -58 -57 -89 -15 -30 -48 -77 -72 -104 l-44 -48 -89 -7 c-50 -5
-99 -11 -110 -15 -43 -15 -71 -31 -92 -52 l-22 -23 207 0 207 0 54 173 c30 94
56 178 59 185 8 23 -14 12 -41 -20z M8790 5211 c0 -37 45 -106 115 -173 l70
-69 5 -177 c6 -203 1 -204 80 28 29 85 55 160 57 166 4 10 -124 108 -279 213
-43 29 -48 30 -48 12z M9754 5137 c-72 -51 -146 -103 -163 -117 l-32 -25 63
-182 c35 -101 67 -183 72 -183 5 0 6 68 3 164 l-7 165 80 77 c78 77 125 147
118 177 -2 12 -37 -8 -134 -76z M9173 4717 c-160 -121 -161 -122 -136 -135 35
-19 76 -9 180 41 114 55 141 54 259 -6 94 -48 132 -56 172 -34 21 12 15 19
-139 132 -89 66 -165 121 -168 122 -3 1 -79 -53 -168 -120z M5380 4821 c-18
-12 -35 4 164 -144 l146 -108 147 108 c198 146 181 131 163 143 -30 20 -79 9
-179 -40 -57 -28 -116 -50 -134 -50 -17 0 -74 21 -126 46 -99 48 -155 62 -181
45z M8019 4813 c-24 -15 -75 -83 -107 -143 -54 -101 -87 -126 -182 -135 -96
-9 -144 -24 -182 -55 -18 -15 -31 -30 -28 -33 3 -2 95 -6 204 -8 l200 -4 27
85 c52 163 97 310 96 310 -1 0 -14 -8 -28 -17z M8075 4818 c2 -7 30 -94 60
-193 31 -99 60 -183 64 -188 4 -4 97 -4 206 -1 l198 7 -36 33 c-41 38 -80 50
-192 59 -98 9 -117 24 -178 139 -23 43 -57 96 -75 117 -33 38 -56 51 -47 27z
M5333 4769 c-7 -9 -13 -78 -15 -179 l-4 -165 -75 -75 c-73 -73 -113 -136 -107
-166 2 -10 53 21 168 102 91 64 166 118 167 119 2 1 -26 86 -60 189 -48 145
-65 185 -74 175z M5972 4593 c-35 -102 -62 -186 -60 -188 2 -1 67 -47 144
-102 178 -127 184 -130 184 -103 0 32 -51 100 -125 167 l-65 60 0 171 c0 94
-3 173 -8 176 -4 2 -36 -79 -70 -181z M7500 4393 c0 -33 58 -118 123 -180 75
-74 77 -78 77 -269 0 -72 3 -134 7 -138 4 -3 35 78 70 181 35 103 60 190 56
193 -20 17 -324 230 -328 230 -3 0 -5 -8 -5 -17z M8575 4386 c-16 -12 -86 -62
-155 -111 -69 -48 -128 -91 -132 -95 -5 -3 21 -91 56 -195 45 -135 66 -185 71
-172 4 10 5 87 1 171 l-7 152 68 65 c71 68 113 117 113 132 0 5 7 15 15 23 15
16 21 54 8 54 -5 -1 -21 -11 -38 -24z M5140 4140 c0 -18 52 -62 96 -81 32 -15
172 -37 237 -39 7 0 52 -69 90 -140 29 -54 89 -129 104 -130 8 0 3 26 -13 78
-13 42 -41 132 -61 199 l-38 123 -207 0 c-139 0 -208 -4 -208 -10z M5796 4058
c-78 -253 -93 -308 -86 -308 18 0 73 76 114 159 24 48 51 93 60 100 8 7 60 17
114 22 55 5 117 16 138 25 38 16 104 70 104 86 0 4 -93 8 -208 8 l-207 0 -29
-92z M7909 3903 c-191 -143 -177 -131 -159 -143 32 -21 88 -10 181 35 58 28
106 45 129 45 23 0 71 -17 129 -45 59 -29 106 -45 129 -45 43 0 72 15 57 29
-22 20 -308 231 -315 231 -4 0 -71 -48 -151 -107z M6755 3719 c-4 -6 -5 -12
-4 -13 2 -2 69 -52 149 -111 80 -60 150 -112 156 -116 6 -5 74 38 174 112 121
90 159 123 149 130 -30 19 -84 7 -190 -42 -127 -59 -128 -59 -264 7 -88 44
-156 57 -170 33z M6706 3669 c-3 -8 -6 -87 -8 -177 l-3 -163 -51 -48 c-68 -64
-134 -153 -134 -180 0 -13 4 -21 10 -19 5 2 82 54 169 116 l159 112 -59 177
c-59 176 -74 210 -83 182z M7351 3499 c-33 -100 -58 -185 -55 -190 2 -4 75
-58 162 -119 137 -97 157 -109 160 -91 5 29 -46 98 -123 168 l-65 60 0 171 c0
94 -4 173 -9 176 -5 4 -37 -76 -70 -175z M5380 3350 c-8 -5 -12 -11 -10 -13 3
-2 76 -57 162 -121 l157 -117 158 117 c87 64 160 119 163 121 2 2 -2 8 -10 13
-31 20 -81 9 -182 -41 -124 -61 -135 -61 -268 5 -91 45 -140 55 -170 36z
M5326 3278 c-3 -18 -7 -99 -8 -179 l-3 -145 -61 -57 c-79 -74 -116 -128 -112
-162 3 -26 6 -25 133 65 72 51 144 103 162 116 l31 24 -61 185 c-34 102 -65
185 -69 185 -4 0 -9 -15 -12 -32z M5972 3128 c-34 -99 -60 -184 -57 -189 3 -4
76 -58 163 -119 138 -99 157 -109 160 -91 4 27 -73 137 -121 174 -70 53 -67
43 -67 227 0 93 -4 171 -8 174 -5 3 -36 -76 -70 -176z M6542 3018 c37 -48 82
-66 202 -83 60 -8 112 -18 117 -20 4 -3 28 -40 52 -83 65 -114 89 -148 118
-166 l27 -16 -45 142 c-25 77 -52 166 -62 197 l-17 56 -208 3 -209 2 25 -32z
M7166 2933 c-21 -65 -48 -153 -62 -197 -14 -43 -23 -81 -20 -83 11 -11 74 72
116 153 25 47 53 92 62 100 10 10 59 21 127 29 85 11 121 20 156 40 25 15 45
32 45 37 0 6 8 17 18 24 14 11 -16 13 -194 14 l-211 0 -37 -117z M4006 2942
c13 -42 41 -132 61 -199 l38 -123 203 0 c111 0 202 4 202 8 0 15 -44 51 -83
67 -20 8 -78 18 -128 22 -110 7 -124 18 -189 138 -49 91 -85 142 -111 155 -16
9 -15 2 7 -68z M3914 2983 c-26 -28 -84 -110 -84 -118 0 -3 -14 -27 -31 -54
-41 -68 -77 -87 -172 -95 -88 -7 -150 -30 -186 -70 l-24 -26 209 0 210 0 29
88 c60 184 93 302 84 302 -6 0 -21 -12 -35 -27z M5140 2672 c0 -5 14 -22 31
-39 37 -38 95 -58 214 -73 103 -12 109 -17 163 -123 32 -62 115 -167 125 -157
2 3 -23 94 -57 202 l-61 198 -207 0 c-115 0 -208 -4 -208 -8z M5781 2543 c-65
-206 -80 -263 -71 -263 17 0 68 70 113 157 25 49 53 95 61 102 8 6 56 16 107
22 52 5 113 16 136 24 40 13 113 69 113 87 0 4 -93 8 -208 8 l-207 0 -44 -137z"/>
</g>
</svg>
