<?xml version="1.0" standalone="no"?>
<!DOCTYPE svg PUBLIC "-//W3C//DTD SVG 20010904//EN"
 "http://www.w3.org/TR/2001/REC-SVG-20010904/DTD/svg10.dtd">
<svg version="1.0" xmlns="http://www.w3.org/2000/svg"
 width="2048.000000pt" height="2048.000000pt" viewBox="0 0 2048.000000 2048.000000"
 preserveAspectRatio="xMidYMid meet">
<metadata>
Created by potrace 1.13, written by Peter Selinger 2001-2015
</metadata>
<g transform="translate(0.000000,2048.000000) scale(0.192120,-0.192120)"
fill="#000000" stroke="none">
<path d="M1247 8924 c-222 -40 -412 -139 -580 -303 -182 -177 -290 -391 -327
-646 -13 -96 -13 -5194 0 -5290 25 -177 91 -345 189 -488 61 -88 184 -212 272
-274 91 -65 251 -139 366 -171 l98 -27 4065 0 4065 0 98 27 c422 117 734 449
818 873 21 105 21 5305 0 5410 -44 223 -146 414 -307 576 -138 140 -316 243
-511 297 l-98 27 -4035 2 c-3449 1 -4046 -1 -4113 -13z m8158 -227 c333 -82
570 -305 671 -632 l28 -90 4 -467 c3 -378 6 -468 16 -468 9 0 15 -18 18 -53 2
-30 10 -60 16 -68 22 -26 124 -173 129 -186 4 -11 -939 -13 -4956 -13 -2729 0
-4961 3 -4961 8 0 4 27 45 60 92 33 47 63 95 66 108 4 12 10 22 15 22 5 0 9
20 9 45 0 25 4 45 9 45 6 0 11 181 14 463 3 437 4 467 25 545 93 353 393 613
764 661 35 5 1850 8 4033 7 3715 -1 3974 -3 4040 -19z m-4677 -2267 c2 -17 -7
-35 -26 -55 -15 -17 -54 -62 -85 -102 -31 -39 -67 -79 -79 -87 -26 -19 -75
-21 -115 -5 -15 6 -57 13 -93 15 -36 3 -93 10 -126 15 -55 10 -67 8 -108 -10
-90 -39 -236 -208 -236 -272 0 -9 -6 -22 -14 -28 -8 -7 -18 -25 -21 -41 -12
-56 -135 -130 -256 -155 -97 -21 -132 -39 -205 -107 -83 -78 -124 -151 -124
-220 0 -29 -5 -100 -12 -158 -14 -125 -26 -144 -138 -218 -125 -82 -260 -238
-260 -299 0 -10 10 -43 21 -73 12 -30 25 -80 28 -110 4 -30 12 -64 18 -75 6
-11 21 -42 34 -69 13 -27 57 -84 97 -127 39 -42 72 -82 72 -88 0 -35 -34 -36
-1272 -39 l-1218 -3 0 1171 0 1170 2058 -2 2057 -3 3 -25z m760 18 c7 -7 12
-16 12 -21 0 -16 -104 -109 -137 -123 -43 -18 -78 -4 -150 61 -51 45 -66 78
-40 88 27 12 303 7 315 -5z m4542 -1158 l0 -1171 -1207 3 c-1237 3 -1263 4
-1263 40 0 7 30 45 67 83 74 78 143 207 143 268 0 19 14 69 31 112 l31 77 -23
52 c-30 64 -158 193 -256 259 -40 26 -81 60 -91 75 -24 35 -52 177 -52 268 0
93 -38 171 -117 244 -67 62 -109 84 -188 100 -97 19 -201 67 -245 113 -22 22
-40 44 -40 50 0 9 -9 31 -54 131 -51 113 -206 238 -273 221 -14 -3 -69 -10
-123 -15 -53 -4 -122 -16 -153 -26 l-56 -17 -41 28 c-22 15 -56 50 -76 76 -19
26 -53 69 -74 96 -37 44 -49 80 -33 96 3 4 926 7 2050 7 l2043 0 0 -1170z
m-5080 931 c50 -103 46 -101 160 -76 111 24 112 22 32 -58 -39 -40 -72 -79
-72 -87 0 -8 22 -53 49 -100 27 -47 47 -87 45 -89 -3 -3 -48 17 -100 45 l-95
49 -75 -79 c-41 -44 -76 -77 -79 -75 -2 3 2 45 10 94 8 50 15 97 15 106 0 11
-32 31 -95 60 -52 24 -95 46 -95 49 0 3 46 13 101 22 56 9 105 22 109 28 4 7
10 42 14 79 9 90 17 132 25 127 3 -2 26 -45 51 -95z m835 -25 c4 -40 10 -79
14 -85 4 -6 53 -19 109 -28 56 -8 102 -19 102 -22 0 -4 -43 -27 -95 -50 -64
-29 -95 -49 -95 -60 0 -9 7 -56 15 -105 8 -49 13 -92 10 -94 -2 -2 -37 31 -78
73 l-73 78 -93 -47 c-51 -26 -96 -46 -101 -44 -4 2 17 46 46 98 l53 95 -77 78
c-42 42 -70 77 -62 77 8 0 50 -7 93 -15 43 -8 86 -15 96 -15 11 0 32 32 65 98
56 110 58 109 71 -32z m-1609 -247 l73 -72 93 56 c51 30 94 52 96 48 1 -4 -16
-47 -38 -95 -22 -49 -40 -92 -40 -96 0 -5 37 -41 82 -81 l82 -72 -74 7 c-41 3
-92 9 -112 13 l-38 6 -26 -59 c-14 -33 -35 -79 -46 -104 l-21 -45 -18 90 c-10
50 -21 100 -24 111 -4 20 -14 22 -110 29 -58 4 -105 11 -105 15 0 5 39 30 88
56 48 26 89 48 91 50 2 2 -6 46 -18 99 -23 103 -24 115 -15 115 3 0 39 -32 80
-71z m2374 -39 c-12 -56 -20 -103 -19 -104 2 -2 43 -24 92 -50 48 -26 87 -51
87 -56 0 -4 -47 -11 -105 -15 -96 -7 -106 -9 -110 -29 -3 -11 -14 -61 -24
-111 l-18 -90 -21 45 c-11 25 -32 71 -46 104 -25 57 -27 58 -58 52 -18 -3 -69
-8 -112 -12 l-80 -7 82 72 c45 40 82 76 82 81 0 4 -18 47 -40 96 -22 48 -39
91 -38 95 2 4 45 -18 96 -48 l93 -56 75 73 c41 40 77 70 80 67 3 -3 -4 -51
-16 -107z m-1135 -235 c78 -73 120 -94 208 -105 39 -5 88 -14 107 -20 64 -19
103 -12 155 24 58 42 74 38 137 -30 85 -94 134 -136 216 -184 138 -83 182
-103 217 -97 35 6 44 -2 85 -68 13 -22 44 -65 69 -96 25 -31 66 -85 91 -119
38 -53 88 -101 193 -186 13 -10 17 -29 17 -74 0 -47 7 -74 35 -133 19 -41 35
-86 35 -101 0 -46 70 -165 143 -244 64 -68 68 -75 53 -90 -11 -11 -43 -19 -99
-24 -109 -9 -3400 -9 -3499 0 -50 5 -84 13 -94 23 -14 15 -10 23 51 90 69 77
135 195 135 243 0 14 14 52 31 84 23 42 33 78 39 137 7 68 11 82 31 94 70 44
307 319 348 404 28 57 41 67 81 61 42 -7 89 14 230 102 78 48 166 128 233 212
15 19 27 30 27 26 0 -5 5 -3 11 3 9 9 26 2 67 -28 59 -42 96 -48 162 -29 19 6
68 15 107 20 88 11 130 32 208 105 39 36 69 55 85 55 16 0 46 -19 85 -55z
m-1640 -192 c-3 -43 -8 -92 -11 -110 l-5 -31 101 -39 c55 -21 100 -41 100 -45
0 -3 -46 -17 -102 -31 l-103 -24 -2 -34 c-10 -132 -16 -179 -22 -175 -4 3 -31
44 -60 91 -39 64 -57 85 -69 81 -80 -24 -175 -47 -184 -44 -6 2 19 38 56 80
36 41 66 81 66 87 0 6 -25 48 -55 93 -30 45 -52 84 -50 86 4 4 65 -19 166 -62
l35 -15 68 85 c38 46 70 84 73 84 3 0 2 -35 -2 -77z m3181 -7 l68 -84 45 18
c25 10 68 28 95 39 27 12 53 20 57 19 5 -2 -16 -41 -46 -87 -30 -46 -55 -88
-55 -94 0 -5 30 -44 66 -85 37 -42 62 -78 56 -80 -9 -3 -72 12 -184 44 -12 4
-30 -17 -69 -81 -29 -47 -56 -88 -60 -91 -6 -4 -12 45 -22 176 l-2 34 -102 24
c-57 13 -103 27 -103 30 0 4 45 24 100 45 l101 39 -5 31 c-9 57 -18 187 -13
187 3 0 35 -38 73 -84z m-3625 -654 l26 -97 104 -6 c57 -4 109 -7 114 -8 6 -1
-32 -29 -82 -62 -51 -33 -93 -63 -93 -67 0 -4 13 -50 29 -102 16 -52 27 -97
25 -99 -4 -4 -30 15 -130 96 l-41 33 -87 -61 c-48 -34 -89 -59 -92 -56 -2 2
11 46 31 96 19 51 35 97 35 102 0 4 -39 38 -87 75 l-88 66 114 -3 114 -4 35
103 c19 56 38 99 41 96 3 -3 18 -49 32 -102z m4078 -17 l28 -80 114 4 114 3
-87 -68 c-49 -37 -88 -70 -88 -75 0 -4 16 -49 35 -100 20 -50 33 -94 31 -96
-3 -3 -44 22 -92 56 l-87 61 -46 -37 c-25 -20 -66 -53 -90 -72 -35 -29 -43
-32 -38 -16 3 11 18 60 32 109 15 48 23 92 18 96 -4 4 -46 32 -92 63 l-83 55
63 6 c35 4 86 7 113 9 l49 2 24 90 c13 50 26 97 29 105 7 17 12 6 53 -115z
m2763 -863 l37 -7 -34 -55 c-19 -30 -41 -64 -50 -75 -8 -10 -15 -27 -15 -37 0
-9 -7 -21 -14 -25 -13 -7 -16 -87 -19 -523 l-3 -515 -28 -95 c-34 -120 -61
-179 -124 -272 -115 -171 -315 -292 -549 -333 -75 -13 -570 -15 -4043 -15
-4287 0 -4033 -3 -4193 51 -250 86 -449 282 -517 509 -49 167 -50 179 -50 699
0 321 -3 491 -10 491 -5 0 -10 9 -10 20 0 12 -5 26 -10 33 -15 17 -90 135 -90
141 0 3 12 7 28 9 47 7 9655 6 9694 -1z"/>
</g>
</svg>
