<?xml version="1.0" standalone="no"?>
<!DOCTYPE svg PUBLIC "-//W3C//DTD SVG 20010904//EN"
 "http://www.w3.org/TR/2001/REC-SVG-20010904/DTD/svg10.dtd">
<svg version="1.0" xmlns="http://www.w3.org/2000/svg"
 width="2048.000000pt" height="2048.000000pt" viewBox="0 0 2048.000000 2048.000000"
 preserveAspectRatio="xMidYMid meet">
<metadata>
Created by potrace 1.13, written by Peter Selinger 2001-2015
</metadata>
<g transform="translate(0.000000,2048.000000) scale(0.192120,-0.192120)"
fill="#000000" stroke="none">
<path d="M1247 8924 c-399 -72 -737 -366 -862 -751 -58 -176 -55 -35 -55
-2838 0 -1657 4 -2605 10 -2650 25 -177 91 -345 189 -488 61 -88 184 -212 272
-274 91 -65 251 -139 366 -171 l98 -27 4035 -3 c3568 -2 4044 0 4116 13 315
59 587 246 755 519 55 89 100 199 133 321 l21 80 0 2655 c0 2228 -2 2666 -14
2725 -71 355 -298 646 -626 801 -52 25 -138 57 -192 72 l-98 27 -4035 2
c-3449 1 -4046 -1 -4113 -13z m8175 -307 c159 -40 339 -133 403 -208 41 -49
31 -62 -55 -76 -41 -7 -115 -27 -165 -45 -76 -26 -107 -32 -195 -34 -91 -2
-124 -8 -255 -48 -82 -25 -206 -66 -275 -91 -69 -26 -148 -49 -177 -52 -59 -6
-75 2 -183 100 -42 38 -98 75 -160 104 -84 41 -105 47 -176 51 -112 6 -163
-13 -286 -105 -113 -86 -136 -92 -256 -74 -117 19 -186 38 -312 88 -104 41
-126 46 -230 53 -100 6 -124 11 -179 38 -36 17 -88 36 -117 42 -47 10 -60 8
-131 -15 -108 -37 -150 -64 -219 -138 -91 -96 -109 -140 -109 -262 0 -89 3
-106 27 -155 43 -87 108 -151 245 -245 71 -47 163 -110 205 -139 94 -65 290
-150 396 -171 42 -9 132 -34 199 -55 67 -22 125 -40 128 -40 3 0 5 7 5 15 0
19 5 19 91 -1 53 -12 69 -20 69 -33 0 -13 15 -21 63 -32 70 -16 81 -34 53 -91
-55 -109 30 -260 196 -349 77 -41 169 -50 261 -25 34 9 105 25 157 36 127 28
213 85 260 175 41 76 64 106 86 111 14 4 24 14 24 24 0 11 10 20 27 24 16 3
38 8 51 12 16 5 22 2 22 -10 0 -9 7 -16 14 -16 25 0 157 73 231 127 82 60 226
122 379 164 124 34 225 74 305 124 57 34 75 48 149 119 l42 40 0 -586 0 -586
-482 -4 -483 -3 -50 -25 c-56 -28 -95 -88 -95 -146 l0 -32 -72 -7 c-40 -4
-349 -5 -685 -3 l-613 3 -2 -2183 -3 -2183 -42 30 c-24 17 -47 31 -52 31 -5 0
-11 3 -13 8 -5 11 -84 52 -102 52 -9 0 -16 5 -16 10 0 7 -170 10 -490 10 -320
0 -490 -3 -490 -10 0 -5 -8 -10 -17 -10 -10 0 -47 -18 -82 -41 -35 -22 -66
-37 -70 -34 -3 4 -7 977 -9 2163 l-2 2157 684 0 c376 0 688 3 691 7 13 13 -5
77 -30 106 -15 18 -42 34 -69 41 -69 17 -1169 14 -1218 -3 -36 -13 -116 -70
-131 -93 -4 -6 -14 -19 -22 -27 -9 -8 -18 -29 -21 -45 -4 -17 -13 -31 -20 -31
-12 0 -14 -313 -14 -2020 0 -2013 0 -2020 -20 -2020 -17 0 -20 -7 -20 -40 l0
-40 -2332 2 -2333 3 -96 26 c-237 66 -414 199 -521 391 -86 155 -78 -145 -76
2933 l3 2740 37 76 c120 244 365 416 653 458 33 5 1831 8 4055 7 3716 -2 4000
-3 4062 -19z m-2538 -504 c118 -75 296 -166 305 -157 3 2 -9 19 -26 37 -122
131 -91 153 77 57 125 -72 191 -94 347 -116 65 -8 159 -29 209 -45 110 -35
114 -35 114 -6 0 91 87 204 179 231 30 9 68 16 85 16 36 0 102 -29 132 -57 11
-11 42 -23 68 -27 60 -9 93 -24 101 -44 7 -19 -23 -62 -57 -81 -22 -13 -28
-12 -57 10 -25 18 -36 21 -49 13 -21 -14 -26 -61 -10 -92 13 -23 14 -24 201
-23 107 0 205 5 230 12 23 6 103 35 177 64 74 28 177 64 229 79 52 15 130 42
173 61 44 20 84 32 90 29 6 -4 8 -25 5 -51 -4 -35 -2 -43 9 -39 7 3 105 46
217 96 112 49 207 90 210 90 15 0 5 -20 -31 -67 -21 -26 -41 -53 -45 -59 -4
-7 43 10 103 37 60 27 114 49 120 49 23 0 7 -32 -50 -104 -33 -42 -57 -76 -52
-76 4 0 12 4 18 9 5 5 41 25 80 45 119 60 125 46 22 -54 -70 -68 -79 -82 -37
-59 26 13 50 5 43 -16 -4 -8 -33 -38 -66 -65 -33 -28 -53 -50 -45 -50 8 0 21
-7 28 -16 12 -15 8 -22 -34 -59 -105 -92 -299 -179 -428 -191 -41 -4 -71 -13
-84 -25 -32 -29 -86 -47 -178 -60 l-87 -13 22 -20 c20 -19 20 -20 2 -33 -13
-10 -35 -12 -74 -8 l-55 6 33 -15 c54 -25 35 -41 -48 -40 l-73 0 37 -29 c92
-74 -10 -74 -213 1 -9 3 6 -15 33 -39 30 -28 47 -50 42 -57 -12 -20 -78 -14
-126 12 l-44 23 -19 -23 c-10 -13 -29 -24 -42 -24 -30 0 -36 -18 -19 -65 8
-22 14 -42 14 -44 0 -2 -12 0 -27 3 l-26 7 31 -36 c42 -47 41 -58 -3 -49 -35
6 -35 6 -25 -21 16 -43 13 -125 -6 -132 -21 -8 -30 9 -38 68 -4 26 -10 51 -15
53 -13 8 -32 -19 -56 -78 -11 -28 -25 -50 -30 -49 -6 0 -16 22 -24 47 -9 28
-20 46 -29 46 -27 0 -52 -32 -52 -64 0 -17 -7 -42 -16 -54 -15 -22 -17 -22
-34 -7 -10 9 -24 30 -30 46 l-12 29 -46 -45 c-25 -25 -49 -45 -53 -45 -15 0
-29 39 -29 80 0 41 -1 42 -27 34 -16 -4 -44 -8 -63 -8 -50 -1 -51 25 -2 74 32
32 47 40 77 40 42 0 95 44 95 79 0 17 -5 19 -35 14 l-35 -6 0 110 c0 60 -3
113 -7 116 -3 4 -20 -2 -37 -12 -55 -33 -83 -34 -111 -7 -14 14 -25 36 -25 50
l0 24 -50 -19 c-28 -10 -66 -19 -86 -19 -32 0 -36 2 -31 23 2 12 8 30 12 40 6
15 0 14 -46 -8 -89 -41 -137 -28 -111 30 l11 24 -46 -25 c-53 -28 -76 -30 -93
-9 -9 11 -9 22 -2 45 12 34 8 36 -28 15 -54 -31 -132 -7 -111 34 9 16 6 16
-47 -2 -70 -23 -129 -18 -155 14 -10 13 -16 31 -14 40 4 16 -3 18 -67 16 -108
-2 -144 19 -112 68 14 21 14 21 -48 21 -60 -1 -96 13 -96 36 0 5 11 20 24 33
l25 25 -27 6 c-136 29 -272 89 -300 132 -15 23 -15 26 11 48 27 23 27 25 12
48 -25 38 -16 71 18 71 31 -1 33 4 12 31 -17 22 -20 64 -5 64 20 0 68 -29 115
-70 46 -39 114 -80 134 -80 6 0 -10 19 -35 42 -68 63 -93 125 -62 156 24 24
64 10 182 -65z m3314 -1956 l63 -2 -39 -55 c-22 -30 -47 -71 -57 -90 -10 -19
-23 -38 -29 -42 -8 -5 -12 -454 -16 -1620 -6 -1713 -3 -1638 -53 -1798 -97
-318 -397 -562 -732 -596 -36 -4 -65 -11 -65 -15 0 -5 -11 -9 -25 -9 -45 0
-119 -35 -205 -99 -73 -53 -85 -59 -92 -44 -3 10 -7 999 -7 2198 l-1 2180 597
-3 c329 -1 626 -3 661 -5z m-1518 -2167 l0 -1980 -455 0 -455 0 0 1980 0 1980
455 0 455 0 0 -1980z M8281 7230 c2 -98 0 -115 -13 -118 -20 -4 -32 -93 -15
-105 18 -12 137 -1 153 15 12 12 11 19 -11 48 -19 26 -25 46 -25 84 0 57 -33
139 -69 171 l-23 20 3 -115z"/>
</g>
</svg>
