<?xml version="1.0" standalone="no"?>
<!DOCTYPE svg PUBLIC "-//W3C//DTD SVG 20010904//EN"
 "http://www.w3.org/TR/2001/REC-SVG-20010904/DTD/svg10.dtd">
<svg version="1.0" xmlns="http://www.w3.org/2000/svg"
 width="2048.000000pt" height="2048.000000pt" viewBox="0 0 2048.000000 2048.000000"
 preserveAspectRatio="xMidYMid meet">
<metadata>
Created by potrace 1.13, written by Peter Selinger 2001-2015
</metadata>
<g transform="translate(0.000000,2048.000000) scale(0.192120,-0.192120)"
fill="#000000" stroke="none">
<path d="M1239 8924 c-397 -72 -730 -365 -857 -754 -55 -169 -52 -15 -52
-2824 0 -1664 4 -2616 10 -2661 25 -177 91 -345 189 -488 61 -88 184 -212 272
-274 91 -65 251 -139 366 -171 l98 -27 4065 0 4065 0 98 27 c195 54 372 156
511 296 154 155 246 323 303 551 16 61 17 282 20 2696 3 2330 2 2640 -12 2720
-74 435 -386 774 -825 896 l-85 24 -4045 2 c-3407 1 -4057 -1 -4121 -13z
m8161 -258 c116 -28 211 -68 303 -129 93 -62 155 -126 226 -231 61 -90 73
-113 113 -222 l33 -89 3 -542 c3 -497 1 -543 -14 -543 -9 0 -18 -9 -21 -20 -5
-20 -19 -20 -1847 -22 -1818 -3 -1841 -3 -1881 -23 -36 -18 -105 -94 -105
-116 0 -5 801 -10 2004 -11 1102 -2 2007 -6 2011 -10 4 -4 -3 -24 -16 -45 -33
-53 -59 -112 -59 -134 0 -10 -4 -19 -10 -19 -7 0 -10 -403 -10 -1190 0 -654 3
-1190 8 -1190 4 0 16 -21 27 -48 10 -26 29 -62 42 -81 13 -19 22 -39 20 -45
-3 -8 -593 -12 -2015 -14 -1107 -1 -2012 -6 -2012 -11 0 -15 59 -90 83 -106
13 -8 49 -24 82 -35 57 -20 80 -20 1867 -20 1801 0 1808 0 1808 -20 0 -13 7
-20 20 -20 21 0 21 -1 18 -522 l-3 -523 -40 -110 c-51 -139 -98 -223 -170
-303 -144 -158 -344 -250 -594 -272 -78 -7 -1387 -10 -4026 -8 l-3910 3 -90
22 c-317 75 -538 269 -624 547 -20 66 -21 86 -21 617 l0 549 45 0 c38 0 45 3
45 19 0 19 11 20 424 23 l424 3 44 30 c23 17 58 53 76 80 l34 50 -623 3 c-343
1 -627 6 -632 11 -4 4 10 36 33 72 22 35 43 73 46 86 4 13 10 23 15 23 5 0 9
500 9 1190 0 673 -4 1190 -9 1190 -5 0 -11 14 -15 32 -3 18 -24 61 -47 96 -22
36 -37 67 -34 71 4 3 283 7 621 9 338 1 614 5 614 8 0 20 -46 88 -77 111 l-36
28 -434 3 c-356 2 -433 5 -433 16 0 17 -22 26 -61 26 l-29 0 0 570 c0 553 1
573 21 633 104 310 395 533 739 567 41 4 1850 7 4020 6 3766 -2 3948 -2 4020
-20z M3650 7929 c-124 -14 -335 -58 -456 -94 -1024 -311 -1747 -1191 -1855
-2260 -17 -168 -7 -494 21 -655 56 -335 173 -659 330 -915 22 -36 40 -68 40
-71 0 -3 31 -49 69 -102 279 -393 639 -691 1066 -884 197 -89 490 -172 740
-210 140 -21 559 -17 710 6 552 84 1048 328 1439 706 198 192 323 353 458 590
175 307 292 672 329 1028 17 165 7 524 -20 678 -91 532 -331 1012 -694 1390
-426 444 -965 713 -1578 789 -134 16 -469 19 -599 4z m254 -380 l-2 -281 -78
-38 c-106 -52 -191 -122 -223 -184 -23 -45 -26 -64 -29 -188 -3 -99 -1 -138 7
-138 20 0 149 70 297 161 l32 19 -3 -162 -3 -163 -36 -7 c-89 -19 -182 -96
-223 -184 -87 -191 15 -408 222 -469 l40 -12 3 -83 3 -83 -55 7 c-169 19 -268
101 -326 270 -23 69 -67 133 -122 180 -23 20 -43 35 -44 33 -2 -2 6 -32 17
-67 11 -36 24 -110 29 -165 12 -120 31 -201 66 -273 47 -97 118 -128 317 -139
l117 -6 0 -62 0 -63 -54 -6 c-106 -14 -225 -93 -242 -161 -25 -99 74 -194 234
-225 l63 -13 -3 -75 -3 -76 -110 -18 c-160 -26 -234 -51 -272 -90 -68 -72 -99
-174 -114 -375 -5 -76 -19 -212 -30 -302 -10 -90 -18 -166 -15 -168 10 -10
173 312 210 417 15 41 38 93 51 115 47 82 166 171 253 190 l32 7 0 -66 0 -66
-47 -24 c-93 -47 -152 -137 -180 -274 -40 -192 39 -397 178 -468 47 -23 49
-26 49 -68 l0 -43 -90 -12 c-108 -14 -226 -50 -296 -90 -58 -34 -125 -93 -384
-343 -101 -98 -190 -178 -197 -178 -20 0 -165 75 -285 147 -646 387 -1074
1027 -1190 1778 -17 113 -21 184 -21 365 0 259 19 413 78 637 132 498 414 945
804 1271 378 317 836 518 1301 571 52 6 109 13 125 15 17 1 57 4 90 5 l60 1
-1 -281z m391 255 c716 -98 1367 -523 1769 -1154 75 -117 191 -362 239 -505
52 -153 89 -305 114 -465 25 -162 24 -539 0 -700 -86 -553 -322 -1024 -707
-1411 -201 -202 -381 -334 -634 -465 l-140 -72 -210 203 c-274 263 -316 299
-401 341 -68 33 -191 67 -287 79 l-48 6 0 45 c0 42 2 45 43 64 132 62 214 252
189 439 -20 145 -87 258 -184 307 l-48 24 0 60 c0 56 2 60 23 60 40 0 126 -48
183 -102 63 -59 94 -108 119 -188 30 -94 200 -439 210 -428 2 2 -5 78 -15 168
-10 91 -23 228 -29 306 -16 225 -69 357 -162 404 -43 22 -174 54 -271 65 l-58
7 0 78 0 77 63 13 c209 41 299 187 184 298 -42 41 -128 79 -194 88 l-53 6 0
64 0 64 64 0 c92 0 214 18 262 40 70 30 120 115 149 254 8 41 15 94 15 118 0
40 29 177 46 222 7 18 5 18 -25 -3 -54 -39 -119 -131 -142 -201 -52 -160 -153
-244 -318 -266 l-51 -7 0 86 0 85 38 7 c93 17 184 93 230 194 35 74 37 192 5
263 -41 90 -134 171 -222 193 l-45 12 -1 190 -2 190 72 57 c108 87 186 191
236 316 22 57 59 185 59 209 0 7 -30 -15 -67 -49 -114 -107 -237 -189 -283
-190 -13 0 -15 36 -15 266 l0 266 95 -6 c52 -4 145 -14 205 -22z m-304 -1514
c24 -13 26 -66 3 -98 -18 -27 -69 -30 -96 -5 -24 22 -25 88 0 102 22 13 68 14
93 1z m105 -2920 c148 -50 217 -90 341 -201 104 -92 117 -110 109 -144 -13
-53 -222 -93 -527 -102 -212 -6 -368 5 -533 38 -196 39 -204 65 -59 195 102
91 148 126 203 154 63 33 268 98 310 99 19 1 90 -17 156 -39z"/>
</g>
</svg>
