<?xml version="1.0" standalone="no"?>
<!DOCTYPE svg PUBLIC "-//W3C//DTD SVG 20010904//EN"
 "http://www.w3.org/TR/2001/REC-SVG-20010904/DTD/svg10.dtd">
<svg version="1.0" xmlns="http://www.w3.org/2000/svg"
 width="2048.000000pt" height="2048.000000pt" viewBox="0 0 2048.000000 2048.000000"
 preserveAspectRatio="xMidYMid meet">
<metadata>
Created by potrace 1.13, written by Peter Selinger 2001-2015
</metadata>
<g transform="translate(0.000000,2048.000000) scale(0.192120,-0.192120)"
fill="#000000" stroke="none">
<path d="M1276 8929 c-149 -22 -326 -91 -457 -179 -35 -24 -105 -84 -154 -134
-152 -152 -245 -314 -303 -524 l-27 -97 0 -2665 0 -2665 27 -97 c58 -210 150
-369 302 -523 155 -157 323 -250 542 -301 76 -18 222 -19 4134 -19 l4055 0 98
27 c112 31 256 96 348 158 35 24 105 84 155 135 152 154 244 313 302 523 l27
97 0 2665 0 2665 -27 97 c-58 210 -150 369 -302 523 -50 51 -120 111 -155 135
-92 62 -236 127 -348 158 l-98 27 -4030 1 c-2233 1 -4056 -2 -4089 -7z m3711
-138 c40 -20 56 -21 331 -21 330 0 322 -2 458 84 84 52 89 54 92 33 3 -27 8 2
-225 -1298 l-187 -1046 -126 0 -126 0 -112 626 c-62 344 -153 851 -202 1126
-49 275 -92 526 -96 558 l-7 59 79 -50 c44 -27 98 -59 121 -71z m-525 -2616
c-43 -44 -87 -93 -98 -108 l-20 -28 -44 34 c-25 18 -817 591 -1760 1272 -943
681 -1732 1252 -1753 1269 -34 27 -36 31 -19 37 11 4 82 13 158 19 77 6 202
25 279 41 111 23 175 30 310 35 261 8 249 5 323 82 l64 65 1319 -1319 1318
-1318 -77 -81z m4362 2656 c42 -39 78 -63 103 -69 21 -6 119 -12 218 -15 145
-5 209 -11 330 -36 83 -16 205 -35 273 -41 184 -17 182 -14 71 -97 -52 -38
-841 -609 -1754 -1268 -913 -659 -1680 -1214 -1705 -1232 l-44 -34 -20 28
c-11 15 -55 64 -98 108 l-78 80 1318 1318 c724 724 1318 1317 1320 1317 1 0
31 -27 66 -59z m-4243 -192 c38 -20 26 36 234 -1122 165 -912 169 -936 195
-982 32 -57 15 -76 -135 -149 -74 -36 -141 -66 -149 -66 -7 0 -19 7 -26 15 -7
9 -19 14 -26 11 -7 -3 -11 0 -8 7 14 38 -155 218 -1000 1067 -480 481 -933
939 -1009 1017 -134 139 -165 185 -136 204 21 13 2035 12 2060 -2z m3543 5
c30 -12 17 -51 -36 -111 -28 -32 -471 -479 -983 -993 -512 -514 -956 -964
-986 -1000 -96 -112 -139 -176 -127 -188 8 -8 5 -9 -9 -6 -12 3 -24 1 -27 -5
-13 -20 -54 -11 -148 33 -51 24 -105 48 -120 54 -15 6 -35 23 -44 37 -15 23
-15 29 -1 68 27 72 32 99 206 1067 94 520 175 962 181 982 21 73 -58 68 1066
68 557 0 1019 -3 1028 -6z m-7259 -380 c33 -19 749 -533 1590 -1141 1630
-1177 1679 -1212 1761 -1250 64 -29 73 -51 50 -121 -19 -57 -48 -92 -77 -92
-11 0 -37 13 -57 29 -20 16 -62 36 -92 45 -66 19 21 6 -1855 266 -836 116
-1535 213 -1552 216 l-33 6 0 902 c0 986 -2 948 60 1065 39 72 80 111 118 111
15 0 54 -16 87 -36z m9069 11 c15 -14 44 -60 64 -102 l37 -78 3 -937 2 -938
-22 -5 c-13 -3 -738 -104 -1613 -225 -874 -121 -1633 -227 -1685 -236 -96 -16
-173 -45 -222 -85 -40 -33 -71 -20 -96 39 -12 27 -24 67 -28 90 l-6 41 66 30
c89 40 13 -14 1770 1256 852 615 1572 1131 1600 1147 63 34 95 35 130 3z
m-4369 -2042 c287 -81 522 -288 628 -555 53 -131 62 -182 62 -348 0 -166 -9
-217 -62 -348 -86 -217 -287 -423 -495 -509 -157 -64 -355 -89 -514 -64 -364
59 -662 331 -760 696 -27 99 -27 351 0 449 95 355 368 615 726 691 94 20 323
13 415 -12z m-3405 -462 c910 -127 1724 -239 1809 -251 85 -11 155 -21 156
-23 1 -1 -2 -39 -6 -85 -5 -45 -5 -119 0 -165 4 -45 7 -83 6 -84 -1 -2 -71
-12 -156 -23 -85 -12 -899 -124 -1809 -251 -910 -126 -1687 -233 -1727 -237
-83 -9 -83 -18 -3 104 27 41 51 88 55 104 4 17 11 30 16 30 5 0 9 175 9 430 0
237 -4 430 -8 430 -4 0 -13 19 -19 43 -7 23 -28 69 -49 102 -20 33 -45 74 -55
91 l-19 30 73 -8 c39 -4 817 -111 1727 -237z m8130 233 c0 -4 -17 -34 -38 -68
-21 -34 -49 -83 -63 -111 l-24 -50 0 -450 0 -450 29 -55 c16 -30 44 -77 62
-105 19 -27 34 -53 34 -57 0 -14 -56 -9 -417 42 -197 27 -569 78 -828 114
-1135 158 -2414 335 -2463 341 -48 6 -52 9 -46 28 4 12 7 78 7 147 0 69 -3
135 -7 147 -6 19 -2 22 46 28 50 6 1429 197 2463 341 259 36 625 87 815 114
337 47 430 57 430 44z m-3796 -1030 c66 -50 117 -70 226 -88 52 -9 811 -115
1685 -236 875 -121 1600 -223 1613 -225 l23 -6 -3 -922 -3 -922 -31 -72 c-18
-40 -46 -90 -64 -113 -27 -34 -37 -40 -69 -40 -24 0 -53 10 -82 28 -24 16
-733 525 -1574 1133 -842 607 -1561 1127 -1599 1154 -39 28 -108 70 -155 95
l-86 45 1 50 c0 59 40 155 64 155 4 0 28 -16 54 -36z m-2303 17 c25 13 35 6
59 -41 25 -50 35 -112 21 -138 -6 -11 -42 -36 -81 -56 -92 -48 -9 11 -1730
-1232 -1616 -1167 -1599 -1155 -1648 -1172 -59 -20 -99 12 -156 125 -57 115
-56 90 -56 1054 l0 887 33 6 c17 3 766 107 1662 231 897 124 1661 232 1699
240 85 18 172 65 169 91 -1 11 0 13 3 7 4 -9 11 -10 25 -2z m271 -506 l77 -81
-1319 -1319 -1318 -1318 -59 61 c-32 33 -72 66 -88 73 -17 6 -123 15 -240 20
-115 5 -223 11 -240 15 -143 29 -243 45 -355 54 -73 7 -142 15 -153 19 -25 9
-130 -68 1863 1371 894 645 1645 1189 1670 1207 l44 34 20 -28 c11 -15 55 -64
98 -108z m3590 -1120 c937 -676 1738 -1257 1782 -1289 89 -68 89 -69 -30 -81
-111 -10 -296 -35 -334 -45 -69 -17 -108 -21 -305 -30 -255 -11 -267 -14 -358
-106 l-48 -48 -1319 1319 -1319 1319 78 81 c43 44 86 93 96 108 15 24 20 26
36 15 10 -7 785 -566 1721 -1243z m-3365 953 c8 22 41 13 136 -37 52 -27 113
-55 136 -62 29 -9 47 -21 57 -41 8 -15 11 -28 7 -28 -27 0 -40 -65 -223 -1085
-83 -462 -155 -860 -161 -885 -20 -91 -41 -140 -71 -165 l-31 -26 -996 3
c-548 2 -1004 7 -1013 12 -54 25 -57 22 905 986 1046 1048 1103 1107 1172
1210 28 41 55 78 60 82 6 5 5 16 -4 30 -13 22 -13 22 4 8 14 -11 19 -12 22 -2z
m1302 -3 c12 5 13 3 4 -6 -12 -12 37 -89 130 -204 22 -27 485 -495 1028 -1040
543 -544 990 -1001 994 -1014 4 -13 2 -28 -4 -34 -22 -22 -177 -25 -1107 -26
-909 -1 -932 -1 -956 19 -49 38 -42 4 -238 1100 -161 899 -177 985 -195 1021
-22 42 -1 66 90 103 44 18 104 46 134 63 44 26 59 30 79 22 14 -5 33 -7 41 -4z
m-421 -824 c62 -344 153 -851 202 -1126 49 -275 92 -526 96 -558 l7 -58 -94
57 c-154 93 -157 94 -461 94 -299 0 -283 3 -446 -98 -77 -49 -82 -51 -83 -30
0 13 93 546 208 1184 l207 1162 126 0 126 0 112 -627z"/>
</g>
</svg>
