<?xml version="1.0" standalone="no"?>
<!DOCTYPE svg PUBLIC "-//W3C//DTD SVG 20010904//EN"
 "http://www.w3.org/TR/2001/REC-SVG-20010904/DTD/svg10.dtd">
<svg version="1.0" xmlns="http://www.w3.org/2000/svg"
 width="2048.000000pt" height="2048.000000pt" viewBox="0 0 2048.000000 2048.000000"
 preserveAspectRatio="xMidYMid meet">
<metadata>
Created by potrace 1.13, written by Peter Selinger 2001-2015
</metadata>
<g transform="translate(0.000000,2048.000000) scale(0.192120,-0.192120)"
fill="#000000" stroke="none">
<path d="M1247 8924 c-400 -72 -742 -369 -862 -747 -58 -182 -55 -22 -55
-2847 0 -2240 2 -2609 15 -2682 76 -437 387 -776 822 -896 l98 -27 4065 0
4065 0 98 27 c413 114 710 423 814 847 14 57 17 163 20 774 l4 707 -3751 0
-3750 0 0 1250 0 1250 3750 0 3751 0 -4 708 c-3 610 -6 716 -20 773 -55 224
-149 396 -302 551 -137 138 -317 242 -512 296 l-98 27 -4035 2 c-3449 1 -4046
-1 -4113 -13z m8090 -255 c110 -15 243 -60 343 -116 125 -70 252 -200 308
-313 87 -178 82 -127 82 -797 0 -586 0 -593 -20 -593 -11 0 -20 -7 -20 -15 0
-13 -398 -15 -3517 -15 -2077 0 -3534 -4 -3557 -10 -60 -13 -88 -40 -127 -119
l-36 -72 -53 48 c-178 160 -1966 1856 -1968 1867 -2 10 17 17 65 25 131 23
219 43 297 67 178 55 -84 52 4178 53 2789 1 3969 -2 4025 -10z m-8524 -437
c15 -10 69 -56 119 -103 184 -168 1554 -1462 1596 -1507 l42 -46 0 -1206 c0
-1183 0 -1207 -19 -1225 -11 -9 -21 -32 -23 -51 -3 -30 -89 -114 -862 -844
-473 -446 -873 -818 -889 -827 -39 -20 -68 -7 -101 45 -60 96 -56 -113 -56
2873 l0 2727 21 55 c30 79 72 127 112 127 18 0 44 -8 60 -18z m2030 -4232 c28
-75 52 -106 104 -131 l48 -24 3523 -3 c3510 -2 3522 -2 3522 -22 0 -13 7 -20
20 -20 20 0 20 -7 20 -577 0 -455 -3 -589 -14 -628 -21 -77 -60 -166 -101
-231 -119 -186 -253 -281 -492 -346 l-118 -33 -4015 0 c-4055 0 -4019 0 -4160
30 -8 2 -53 13 -100 24 -47 11 -112 23 -145 26 -89 9 -189 25 -195 31 -2 3 22
31 55 62 33 31 141 134 240 227 99 94 223 211 275 260 53 50 137 129 188 177
106 100 234 221 360 340 48 46 162 153 252 238 90 85 203 191 250 236 430 407
452 426 459 417 4 -4 15 -28 24 -53z M10315 6400 c-3 -11 -10 -20 -15 -20 -5
0 -12 -16 -16 -35 -3 -19 -10 -38 -15 -41 -13 -8 -12 -1974 1 -1974 6 0 10 -8
10 -17 0 -10 12 -36 25 -58 l25 -40 0 1103 c0 606 -2 1102 -4 1102 -3 0 -8 -9
-11 -20z"/>
</g>
</svg>
