<?xml version="1.0" standalone="no"?>
<!DOCTYPE svg PUBLIC "-//W3C//DTD SVG 20010904//EN"
 "http://www.w3.org/TR/2001/REC-SVG-20010904/DTD/svg10.dtd">
<svg version="1.0" xmlns="http://www.w3.org/2000/svg"
 width="2048.000000pt" height="2048.000000pt" viewBox="0 0 2048.000000 2048.000000"
 preserveAspectRatio="xMidYMid meet">
<metadata>
Created by potrace 1.13, written by Peter Selinger 2001-2015
</metadata>
<g transform="translate(0.000000,2048.000000) scale(0.192120,-0.192120)"
fill="#000000" stroke="none">
<path d="M1320 10324 c-273 -42 -463 -131 -640 -301 -176 -167 -284 -364 -332
-603 -19 -96 -19 -8084 0 -8180 80 -398 361 -723 733 -849 180 -60 -136 -56
4249 -56 3399 0 4036 2 4095 14 398 79 726 367 848 746 55 171 52 -100 52
4235 0 4335 3 4064 -52 4235 -51 157 -132 292 -250 415 -160 169 -333 267
-572 328 -61 15 -367 16 -4086 18 -2211 1 -4031 0 -4045 -2z m8089 -287 c294
-72 494 -221 609 -457 l37 -75 0 -4165 0 -4165 -28 -69 c-120 -296 -384 -481
-736 -516 -74 -8 -1306 -10 -4041 -8 -3625 4 -3940 5 -4000 20 -334 86 -563
284 -649 562 l-21 68 0 4104 0 4105 21 62 c63 189 239 375 443 467 83 38 192
68 287 79 41 5 1846 8 4039 7 3772 -1 3969 -2 4039 -19z M5055 8749 c-531 -45
-1014 -212 -1452 -502 -382 -252 -756 -653 -984 -1053 -198 -347 -331 -706
-413 -1114 -41 -204 -46 -290 -46 -740 0 -387 2 -455 20 -575 93 -631 353
-1230 749 -1725 101 -126 330 -356 461 -462 670 -544 1548 -774 2441 -638 681
104 1288 426 1756 932 128 139 204 236 322 413 286 430 484 949 561 1476 20
137 21 177 18 620 -4 468 -4 476 -31 614 -73 372 -158 634 -318 970 -75 158
-201 366 -313 515 -535 715 -1259 1147 -2106 1255 -151 20 -513 27 -665 14z
m530 -249 c572 -49 1099 -257 1545 -610 129 -102 350 -322 452 -450 373 -470
592 -997 685 -1650 25 -182 26 -719 0 -910 -145 -1069 -674 -1895 -1512 -2357
-771 -426 -1805 -468 -2624 -106 -548 242 -1001 649 -1310 1176 -192 328 -334
726 -401 1122 -68 398 -66 873 5 1285 159 934 703 1729 1472 2153 492 271
1102 396 1688 347z M5100 7306 c-321 -47 -578 -170 -804 -386 -302 -289 -490
-697 -563 -1220 -23 -172 -23 -556 1 -730 69 -509 245 -901 530 -1185 221
-220 461 -345 771 -401 153 -28 462 -26 612 4 313 63 560 196 773 419 357 372
549 963 527 1618 -23 660 -241 1195 -627 1539 -179 160 -407 271 -665 326
-131 27 -417 36 -555 16z m500 -282 c114 -20 277 -75 377 -129 342 -181 574
-520 678 -989 l26 -119 -4 -481 c-4 -478 -4 -482 -29 -578 -107 -405 -276
-687 -523 -871 -268 -200 -628 -279 -1025 -226 -508 69 -880 402 -1050 939
-81 255 -83 267 -87 720 -5 440 -2 483 49 683 71 285 200 526 375 701 217 219
488 339 833 370 76 6 291 -5 380 -20z"/>
</g>
</svg>
