<?xml version="1.0" standalone="no"?>
<!DOCTYPE svg PUBLIC "-//W3C//DTD SVG 20010904//EN"
 "http://www.w3.org/TR/2001/REC-SVG-20010904/DTD/svg10.dtd">
<svg version="1.0" xmlns="http://www.w3.org/2000/svg"
 width="2048.000000pt" height="2048.000000pt" viewBox="0 0 2048.000000 2048.000000"
 preserveAspectRatio="xMidYMid meet">
<metadata>
Created by potrace 1.13, written by Peter Selinger 2001-2015
</metadata>
<g transform="translate(0.000000,2048.000000) scale(0.192120,-0.192120)"
fill="#000000" stroke="none">
<path d="M1247 8924 c-398 -72 -737 -367 -861 -748 -60 -183 -57 -22 -53
-2891 3 -2404 4 -2625 20 -2686 57 -228 149 -396 303 -551 139 -140 316 -242
511 -296 l98 -27 4065 0 4065 0 98 27 c424 117 733 448 819 878 20 100 19
5304 -1 5405 -71 355 -298 646 -626 801 -52 25 -138 57 -192 72 l-98 27 -4035
2 c-3449 1 -4046 -1 -4113 -13z m7503 -277 c609 -3 627 -3 703 -25 268 -75
474 -244 563 -462 l24 -60 0 -2766 0 -2766 -26 -66 c-37 -95 -125 -223 -201
-291 -117 -106 -286 -185 -448 -210 -49 -7 -1269 -11 -4040 -11 -3579 -1
-3978 0 -4052 15 -271 52 -475 194 -600 418 -80 144 -73 -141 -71 2932 l3
2750 24 50 c95 197 265 355 465 430 118 44 194 58 356 64 147 6 5972 4 7300
-2z M5269 7462 c-66 -43 -123 -111 -170 -204 -24 -49 -106 -277 -199 -558 -86
-261 -166 -494 -178 -517 -12 -22 -33 -51 -48 -62 -26 -21 -35 -21 -503 -21
-511 0 -730 -10 -801 -35 -96 -33 -210 -151 -210 -218 0 -44 66 -159 132 -232
63 -68 308 -257 737 -565 l243 -175 -5 -70 c-3 -55 -35 -165 -150 -517 -212
-646 -226 -718 -171 -827 29 -60 98 -136 134 -149 58 -22 140 5 268 87 33 22
242 171 463 331 221 161 422 303 447 316 54 29 86 30 134 6 19 -10 207 -143
416 -295 530 -385 622 -443 710 -451 68 -7 141 52 188 152 24 51 26 64 21 142
-6 101 -17 137 -197 695 -158 488 -168 525 -153 558 6 12 190 153 409 312 219
160 416 305 439 324 117 97 140 120 180 176 93 131 105 189 56 266 -33 52
-110 112 -172 135 -69 24 -292 33 -817 34 l-484 0 -28 30 c-37 39 -54 87 -209
565 -176 540 -214 630 -304 718 -45 44 -99 77 -125 77 -4 0 -28 -13 -53 -28z
m109 -229 c24 -76 132 -412 240 -746 l198 -609 787 2 c433 0 787 -3 787 -7 0
-4 -23 -23 -51 -41 -28 -19 -308 -220 -623 -449 -314 -228 -578 -418 -586
-423 -15 -9 -11 -22 355 -1137 67 -205 120 -373 118 -373 -2 0 -39 26 -81 58
-186 141 -1182 862 -1191 862 -9 0 -1069 -766 -1213 -876 -31 -24 -58 -44 -61
-44 -2 0 48 161 113 358 318 970 373 1142 369 1145 -19 15 -977 708 -1094 792
-82 59 -157 113 -165 121 -13 13 84 15 774 13 l790 -1 193 594 c106 326 214
662 240 746 26 83 50 152 53 152 3 0 25 -62 48 -137z"/>
</g>
</svg>
