<?xml version="1.0" standalone="no"?>
<!DOCTYPE svg PUBLIC "-//W3C//DTD SVG 20010904//EN"
 "http://www.w3.org/TR/2001/REC-SVG-20010904/DTD/svg10.dtd">
<svg version="1.0" xmlns="http://www.w3.org/2000/svg"
 width="2048.000000pt" height="2048.000000pt" viewBox="0 0 2048.000000 2048.000000"
 preserveAspectRatio="xMidYMid meet">
<metadata>
Created by potrace 1.13, written by Peter Selinger 2001-2015
</metadata>
<g transform="translate(0.000000,2048.000000) scale(0.192120,-0.192120)"
fill="#000000" stroke="none">
<path d="M1247 8924 c-399 -72 -737 -366 -862 -751 -50 -151 -55 -221 -55
-718 l0 -460 5001 0 5000 0 -4 500 c-3 415 -7 511 -20 566 -54 223 -149 396
-302 551 -137 138 -317 242 -512 296 l-98 27 -4035 2 c-3449 1 -4046 -1 -4113
-13z m8099 -285 c310 -43 563 -226 670 -486 23 -58 24 -59 24 -475 l0 -418
-4720 0 -4721 0 3 418 3 417 42 85 c47 98 132 203 218 273 111 89 288 163 443
186 89 13 7944 13 8038 0z M10304 6813 c-10 -21 -22 -39 -26 -41 -5 -2 -8 -12
-8 -23 0 -10 -4 -19 -10 -19 -7 0 -10 -471 -10 -1392 l0 -1393 29 -61 c16 -34
34 -65 40 -68 8 -5 11 411 11 1513 0 837 -2 1521 -3 1521 -2 0 -12 -17 -23
-37z M330 5330 c0 -878 4 -1510 9 -1510 5 0 12 11 15 25 4 14 11 25 16 25 6 0
10 9 10 20 0 11 5 20 10 20 7 0 10 477 10 1410 0 933 -3 1410 -10 1410 -5 0
-10 6 -10 13 0 15 -38 97 -45 97 -3 0 -5 -679 -5 -1510z M5257 6750 c-97 -25
-162 -85 -186 -172 -8 -31 -11 -166 -9 -472 l3 -429 220 -69 c121 -37 232 -71
247 -74 l27 -6 0 376 0 376 -47 24 c-128 65 -212 173 -197 253 11 61 76 116
166 140 l74 20 -54 17 c-67 20 -194 28 -244 16z M5624 6653 c-3 -16 -19 -81
-35 -145 -16 -64 -29 -121 -29 -127 0 -5 26 -11 58 -13 l57 -3 -4 -80 c-2 -44
-1 -78 2 -75 16 16 186 395 179 402 -10 9 -186 68 -206 68 -9 0 -18 -12 -22
-27z M4860 6629 c-41 -17 -76 -32 -78 -33 -1 -2 37 -91 85 -199 48 -108 89
-195 91 -193 6 7 -10 456 -17 455 -3 0 -40 -14 -81 -30z M5986 6488 c-13 -24
-90 -157 -170 -295 l-146 -253 0 -65 c0 -36 4 -65 9 -65 5 0 61 56 125 124
103 110 116 127 116 159 0 41 32 73 85 83 23 4 58 32 130 104 l99 99 -25 20
c-32 27 -185 131 -192 131 -3 0 -17 -19 -31 -42z M4524 6454 c-128 -90 -124
-77 -41 -167 l72 -79 62 -2 c88 -3 103 -19 103 -107 l0 -68 123 -135 122 -135
3 64 3 64 -178 310 c-98 171 -181 310 -184 311 -4 0 -42 -25 -85 -56z M6273
6188 l-83 -73 0 -118 0 -117 158 81 c86 45 159 83 160 85 5 3 -91 143 -125
182 l-28 32 -82 -72z M4235 6175 c-53 -73 -109 -164 -104 -168 2 -2 70 -38
152 -80 l147 -76 0 128 0 128 -69 62 c-38 33 -73 61 -78 61 -4 0 -26 -25 -48
-55z M4555 6122 c-46 -10 -45 4 -45 -556 0 -563 2 -593 50 -718 30 -80 77
-147 128 -183 39 -27 51 -30 116 -30 94 1 162 33 238 113 50 52 113 157 133
221 7 22 3 21 -41 -13 -66 -51 -159 -93 -221 -101 -43 -6 -60 -3 -105 18 -66
31 -95 58 -122 116 -20 45 -21 60 -24 573 -3 425 -6 529 -17 538 -18 15 -66
27 -90 22z M6009 6101 l-24 -19 -5 -534 c-5 -531 -5 -533 -28 -576 -26 -49
-88 -98 -146 -113 -71 -19 -196 21 -295 95 -19 14 -37 24 -39 21 -3 -3 14 -43
37 -90 72 -146 183 -237 309 -252 130 -15 232 85 294 289 21 71 22 89 26 615
2 381 0 548 -8 562 -15 28 -88 29 -121 2z M5793 5772 c-98 -85 -112 -101 -112
-130 l-1 -32 53 29 c28 15 82 45 120 65 l67 37 0 64 c0 36 -3 65 -7 64 -5 0
-58 -44 -120 -97z M6390 5786 l-195 -83 -3 -97 -3 -96 58 5 c144 13 332 25
384 25 32 0 60 4 64 9 6 10 -59 270 -75 301 -6 11 -16 20 -23 19 -7 0 -100
-38 -207 -83z M4022 5793 c-25 -78 -65 -244 -60 -248 2 -1 86 -7 188 -14 102
-6 206 -14 233 -18 l47 -6 0 96 c0 66 -4 96 -12 100 -11 4 -326 137 -364 153
-6 3 -20 -24 -32 -63z M4720 5777 c0 -87 -14 -72 163 -167 l97 -52 0 35 c0 34
-33 68 -242 245 -17 14 -18 10 -18 -61z M5798 5543 c-60 -25 -108 -50 -108
-54 0 -11 49 -11 153 -3 l77 7 0 48 c0 27 -3 49 -7 48 -5 0 -56 -21 -115 -46z
M4720 5537 l0 -44 123 -10 c67 -6 123 -10 125 -9 2 3 -103 49 -200 87 l-48 19
0 -43z M4837 5434 c-4 -4 -7 -16 -7 -27 0 -19 -1 -19 -19 -3 -21 19 -62 18
-68 -1 -2 -6 11 -29 30 -50 l35 -38 -35 -38 c-38 -42 -39 -60 -4 -65 15 -3 34
7 55 27 l32 31 22 -30 c15 -19 31 -30 48 -30 38 0 41 27 5 64 -17 17 -31 36
-31 41 0 5 14 24 31 41 20 20 29 39 26 48 -8 21 -51 20 -68 0 -12 -15 -14 -14
-19 6 -6 24 -21 35 -33 24z M5067 5433 c-4 -3 -7 -15 -7 -26 0 -19 -1 -19 -19
-3 -21 19 -62 18 -68 -1 -2 -6 11 -29 30 -50 l35 -38 -35 -38 c-38 -42 -39
-60 -4 -65 15 -3 34 7 55 27 l32 31 22 -30 c15 -19 31 -30 48 -30 38 0 41 27
5 64 -17 17 -31 36 -31 41 0 5 14 24 31 41 35 36 34 64 -2 64 -13 0 -31 -7
-41 -17 -17 -15 -18 -15 -18 10 0 25 -18 36 -33 20z M5297 5434 c-4 -4 -7 -16
-7 -27 0 -19 -1 -19 -19 -3 -21 19 -62 18 -68 -1 -2 -6 11 -29 30 -50 l35 -38
-34 -39 c-38 -44 -39 -59 -5 -64 15 -3 34 7 55 27 l32 31 22 -30 c15 -19 31
-30 48 -30 38 0 41 27 5 64 -17 17 -31 36 -31 41 0 5 14 24 31 41 20 20 29 39
26 48 -8 21 -51 20 -68 0 -12 -15 -14 -14 -19 6 -6 24 -21 35 -33 24z M5530
5415 c0 -28 -12 -32 -30 -9 -14 16 -61 16 -67 -2 -2 -5 12 -28 31 -49 l33 -40
-32 -40 c-18 -22 -30 -46 -28 -52 8 -23 49 -14 78 17 l29 30 27 -30 c55 -60
104 -26 50 35 -17 20 -31 38 -31 40 0 2 14 20 31 40 18 20 29 41 25 50 -7 20
-45 19 -68 -2 -17 -15 -18 -15 -18 10 0 17 -5 27 -15 27 -9 0 -15 -9 -15 -25z
M5760 5415 c0 -28 -12 -32 -30 -9 -14 16 -61 16 -67 -2 -2 -5 12 -28 31 -49
l33 -40 -32 -40 c-18 -22 -30 -46 -28 -52 8 -23 49 -14 78 17 l29 30 24 -30
c17 -21 32 -30 53 -30 38 0 38 24 -1 69 l-29 34 20 28 c11 16 24 31 29 34 6 4
10 15 10 26 0 24 -45 26 -72 2 -17 -15 -18 -15 -18 10 0 17 -5 27 -15 27 -9 0
-15 -9 -15 -25z M3945 5372 c-7 -7 -6 -67 1 -141 l7 -61 238 0 239 0 0 94 0
94 -157 6 c-87 3 -195 8 -241 9 -45 2 -84 1 -87 -1z M6475 5368 c-121 -5 -235
-11 -252 -14 l-33 -5 0 -89 0 -90 259 0 259 0 7 83 c8 91 5 120 -10 122 -5 1
-109 -2 -230 -7z M4752 5158 c-15 -15 -16 -45 -1 -54 7 -4 259 -7 561 -7 479
0 551 2 565 15 12 12 13 20 4 37 -12 21 -12 21 -564 21 -417 0 -556 -3 -565
-12z M4862 5010 l-53 -70 124 0 124 0 45 58 c24 31 48 63 52 70 6 9 -20 12
-116 12 l-123 -1 -53 -69z M5470 5075 c0 -3 23 -35 51 -70 l51 -65 120 0 c67
0 118 4 116 9 -1 5 -24 37 -50 70 l-48 61 -120 0 c-66 0 -120 -2 -120 -5z
M4284 4986 c-60 -31 -130 -61 -155 -67 -42 -11 -50 -10 -88 9 -47 25 -49 21
-21 -42 l19 -46 222 0 221 0 -6 23 c-4 12 -14 54 -23 92 -18 82 -13 71 -39 79
-15 5 -54 -10 -130 -48z M6216 4949 c-10 -45 -20 -87 -23 -95 -4 -12 30 -14
211 -14 l217 0 18 43 c10 23 21 52 25 65 l8 23 -39 -25 c-78 -52 -172 -44
-243 20 -41 37 -97 64 -133 64 -21 0 -25 -7 -41 -81z M5261 4922 c-19 -9 -45
-32 -59 -49 l-25 -33 153 0 153 0 -25 33 c-31 40 -82 67 -128 67 -19 0 -50 -8
-69 -18z M4103 4783 c-18 -9 -33 -19 -33 -22 0 -3 15 -33 33 -66 l32 -60 243
-3 243 -2 -43 52 c-23 29 -44 55 -45 57 -2 3 -21 -5 -42 -17 -72 -41 -136 -29
-258 48 -52 33 -83 36 -130 13z M5242 4765 c-62 -17 -120 -50 -177 -100 l-40
-34 290 0 290 0 -45 41 c-98 88 -214 122 -318 93z M6375 4740 c-49 -25 -72
-30 -130 -30 -50 0 -78 5 -95 17 -17 12 -25 13 -28 5 -2 -7 -29 -33 -59 -57
l-55 -45 255 0 c192 0 257 3 264 13 6 6 20 31 33 55 30 54 20 65 -63 69 -52 2
-72 -2 -122 -27z M4305 4554 c-91 -38 -92 -39 -33 -111 l52 -63 1007 0 1007 0
47 57 47 57 -24 20 c-12 10 -47 30 -76 44 -85 39 -146 30 -263 -38 -78 -45
-102 -54 -144 -55 -50 0 -59 4 -176 78 -38 24 -126 33 -175 17 -21 -7 -72 -32
-112 -56 -127 -77 -179 -75 -317 11 -70 44 -86 50 -135 50 -48 0 -66 -6 -147
-53 -51 -30 -108 -58 -128 -62 -47 -11 -98 4 -153 44 -108 78 -125 86 -172 86
-25 -1 -72 -12 -105 -26z M4605 4334 c-48 -12 -151 -47 -159 -54 -4 -5 20 -29
54 -54 l62 -46 766 0 765 0 43 28 c24 15 43 31 41 36 -5 14 -117 56 -191 72
-78 17 -94 15 -221 -28 -107 -36 -155 -34 -288 12 -129 46 -184 43 -299 -12
-126 -60 -170 -59 -299 2 -85 41 -102 45 -174 47 -44 1 -89 -1 -100 -3z M4919
4086 c-116 -41 -116 -45 -1 -79 266 -81 494 -87 750 -21 53 14 114 33 136 42
l40 18 -64 28 c-45 20 -80 29 -124 30 -70 1 -102 -10 -206 -74 -96 -58 -143
-60 -222 -10 -151 97 -196 106 -309 66z M330 3210 c0 -250 5 -486 10 -525 25
-177 91 -345 189 -488 61 -88 184 -212 272 -274 91 -65 251 -139 366 -171 l98
-27 4065 0 4065 0 98 27 c413 114 711 424 814 847 13 55 17 151 20 566 l4 500
-5000 0 -5001 0 0 -455z m9710 -230 l0 -400 -25 -67 c-52 -137 -164 -283 -276
-360 -77 -53 -189 -104 -288 -132 l-96 -26 -3975 -3 c-2837 -2 -3999 0 -4060
8 -109 14 -245 59 -339 113 -156 88 -301 261 -358 427 -22 63 -22 78 -23 453
l0 387 4720 0 4720 0 0 -400z"/>
</g>
</svg>
