<?xml version="1.0" standalone="no"?>
<!DOCTYPE svg PUBLIC "-//W3C//DTD SVG 20010904//EN"
 "http://www.w3.org/TR/2001/REC-SVG-20010904/DTD/svg10.dtd">
<svg version="1.0" xmlns="http://www.w3.org/2000/svg"
 width="2048.000000pt" height="2048.000000pt" viewBox="0 0 2048.000000 2048.000000"
 preserveAspectRatio="xMidYMid meet">
<metadata>
Created by potrace 1.13, written by Peter Selinger 2001-2015
</metadata>
<g transform="translate(0.000000,2048.000000) scale(0.192120,-0.192120)"
fill="#000000" stroke="none">
<path d="M1247 8924 c-477 -86 -844 -474 -907 -957 -7 -57 -10 -889 -7 -2692
3 -2395 4 -2615 20 -2676 57 -228 149 -396 303 -551 139 -140 316 -242 511
-296 l98 -27 4065 0 4065 0 98 27 c424 117 733 448 819 878 20 100 19 5304 -1
5405 -71 355 -298 646 -626 801 -52 25 -138 57 -192 72 l-98 27 -4035 2
c-3449 1 -4046 -1 -4113 -13z m8000 -234 c243 -19 418 -91 567 -234 78 -75
140 -165 211 -307 35 -69 92 -164 127 -210 36 -46 68 -90 72 -96 6 -10 -976
-13 -4894 -13 -4879 0 -4901 0 -4890 20 6 11 33 50 61 86 28 37 81 129 119
205 106 212 197 322 344 414 130 81 253 120 421 135 141 11 7706 12 7862 0z
m-3989 -1076 c35 -10 26 -34 -44 -109 -77 -82 -127 -163 -185 -298 -27 -63
-53 -107 -74 -125 -31 -28 -37 -29 -166 -35 -149 -7 -222 -24 -284 -67 -77
-54 -155 -154 -155 -198 0 -12 17 -54 37 -93 43 -83 150 -202 253 -281 93 -70
94 -80 46 -268 -57 -226 -48 -297 55 -413 101 -115 174 -106 412 51 60 39 125
77 146 83 48 14 76 3 211 -86 178 -117 247 -143 316 -119 49 16 114 87 148
159 36 75 34 142 -9 319 -19 80 -35 154 -35 166 0 34 15 54 77 101 166 125
293 292 293 387 0 39 -47 109 -111 165 -75 66 -143 85 -333 95 l-148 8 -29 35
c-15 19 -43 70 -60 114 -64 159 -110 234 -204 331 -40 41 -45 69 -12 78 12 3
1058 6 2325 6 l2302 0 0 -2300 0 -2300 -4710 0 -4710 0 0 2300 0 2300 2313 0
c1271 0 2322 -3 2335 -6z m105 -276 c16 -51 60 -191 99 -311 l70 -219 324 4
c178 1 324 1 323 -2 0 -3 -118 -89 -263 -192 l-262 -187 102 -308 c56 -169
100 -310 98 -312 -2 -3 -14 5 -27 16 -58 54 -492 363 -504 359 -14 -6 -405
-291 -471 -344 -24 -19 -45 -33 -47 -31 -2 2 41 139 96 303 54 165 99 304 99
310 0 6 -117 95 -259 196 -143 102 -260 187 -260 190 -1 3 145 3 323 2 l324
-4 70 219 c39 120 83 260 99 311 15 50 30 92 33 92 3 0 18 -42 33 -92z m4867
-4512 c0 -3 -28 -42 -63 -88 -78 -103 -93 -128 -160 -264 -30 -60 -73 -133
-96 -162 -128 -162 -301 -265 -517 -309 -85 -17 -270 -18 -4069 -18 -3819 0
-3983 1 -4065 18 -171 37 -322 113 -435 219 -89 83 -127 137 -205 296 -37 75
-90 167 -118 204 -28 38 -56 77 -62 88 l-11 20 4901 0 c2695 0 4900 -2 4900
-4z M3025 6602 c-90 -56 -161 -174 -201 -332 -20 -83 -20 -686 1 -795 85 -442
298 -882 598 -1230 420 -489 957 -785 1592 -877 57 -8 181 -13 335 -12 216 1
262 4 390 27 352 63 671 190 960 385 161 108 239 172 375 307 380 377 631 840
746 1380 22 103 24 131 24 430 -1 360 -6 396 -82 558 -38 82 -111 161 -158
173 -50 12 -132 -61 -183 -163 -16 -32 -51 -139 -76 -238 -56 -212 -86 -310
-134 -425 -158 -386 -428 -711 -770 -927 -388 -245 -851 -355 -1307 -313 -673
64 -1255 433 -1582 1005 -110 191 -163 330 -246 645 -56 215 -95 309 -150 365
-57 58 -85 66 -132 37z m65 -174 c0 -264 97 -629 242 -910 285 -555 822 -987
1424 -1143 202 -53 332 -68 564 -69 381 -1 666 63 995 224 507 247 899 672
1109 1200 85 215 146 509 146 704 0 52 4 97 9 100 11 7 48 -167 66 -319 17
-139 19 -385 4 -523 -96 -885 -683 -1636 -1522 -1946 -414 -153 -927 -180
-1359 -71 -426 108 -787 314 -1095 627 -126 128 -197 213 -285 346 -348 528
-469 1165 -337 1789 26 122 39 119 39 -9z"/>
</g>
</svg>
