<?xml version="1.0" standalone="no"?>
<!DOCTYPE svg PUBLIC "-//W3C//DTD SVG 20010904//EN"
 "http://www.w3.org/TR/2001/REC-SVG-20010904/DTD/svg10.dtd">
<svg version="1.0" xmlns="http://www.w3.org/2000/svg"
 width="2048.000000pt" height="2048.000000pt" viewBox="0 0 2048.000000 2048.000000"
 preserveAspectRatio="xMidYMid meet">
<metadata>
Created by potrace 1.13, written by Peter Selinger 2001-2015
</metadata>
<g transform="translate(0.000000,2048.000000) scale(0.192120,-0.192120)"
fill="#000000" stroke="none">
<path d="M1247 8924 c-398 -72 -737 -367 -861 -748 -60 -183 -57 -22 -53
-2891 3 -2404 4 -2625 20 -2686 57 -228 149 -396 303 -551 139 -140 316 -242
511 -296 l98 -27 4065 0 4065 0 98 27 c424 117 733 448 819 878 20 100 19
5304 -1 5405 -71 355 -298 646 -626 801 -52 25 -138 57 -192 72 l-98 27 -4035
2 c-3449 1 -4046 -1 -4113 -13z m8158 -286 c180 -43 325 -116 436 -223 80 -76
115 -125 161 -220 l43 -90 0 -2770 0 -2770 -35 -80 c-114 -257 -319 -419 -610
-482 -82 -17 -246 -18 -4070 -18 -3822 0 -3988 1 -4070 18 -192 42 -325 112
-455 242 -73 73 -100 108 -138 181 -85 165 -77 -118 -77 2914 0 2952 -4 2733
58 2856 126 250 388 421 697 454 39 4 1852 7 4030 6 3634 -2 3966 -3 4030 -18z
M5070 7715 c-309 -36 -387 -52 -490 -105 -25 -13 -85 -36 -135 -51 -54 -18
-156 -65 -255 -119 -91 -50 -219 -116 -285 -149 -73 -35 -160 -88 -222 -135
-140 -105 -339 -321 -452 -491 -90 -135 -98 -150 -126 -250 -21 -74 -55 -162
-94 -245 -17 -35 -33 -84 -37 -109 -8 -63 -44 -200 -60 -233 -19 -38 -18 -213
1 -268 10 -29 15 -81 15 -162 0 -83 -5 -129 -15 -155 -9 -22 -15 -68 -15 -124
0 -73 4 -98 26 -148 15 -34 31 -61 35 -61 5 0 9 -20 9 -44 0 -25 4 -47 9 -51
5 -3 12 -18 16 -35 3 -16 17 -52 31 -80 13 -28 24 -68 24 -91 0 -22 6 -53 14
-67 7 -15 24 -52 37 -82 13 -30 48 -91 78 -135 29 -44 57 -89 61 -100 13 -32
98 -143 200 -260 161 -184 222 -246 305 -307 44 -33 134 -115 200 -182 129
-133 155 -150 315 -221 168 -75 200 -86 300 -106 88 -18 103 -25 198 -89 134
-90 184 -106 306 -94 92 9 120 9 351 3 184 -5 275 23 459 140 101 65 103 65
281 90 52 7 98 24 180 65 61 30 148 73 195 94 96 44 141 78 286 213 199 186
220 207 320 315 181 197 254 289 311 394 17 31 46 80 66 110 34 51 87 178 87
208 0 7 20 59 44 115 69 157 77 207 81 472 2 179 7 240 19 274 21 58 22 221 1
261 -21 40 -44 131 -55 216 -13 102 -44 193 -111 329 -32 66 -59 125 -59 132
0 6 -16 35 -36 64 -20 30 -59 101 -88 159 -43 88 -65 120 -141 200 -50 52
-112 122 -137 155 -64 83 -138 153 -313 292 -186 148 -184 147 -286 183 -46
17 -138 57 -204 90 -87 44 -142 65 -199 76 -44 8 -122 27 -175 43 -220 66
-350 81 -463 56 -72 -17 -82 -17 -175 -1 -54 9 -103 15 -108 15 -6 -1 -62 -7
-125 -14z m263 -236 l91 -41 54 26 c101 50 178 45 225 -15 l22 -28 52 15 c68
20 115 7 177 -47 46 -41 48 -41 85 -30 49 14 84 14 134 -1 53 -16 127 -86 127
-119 0 -25 1 -25 98 -26 123 0 161 -13 211 -69 39 -45 67 -120 56 -154 -5 -16
-2 -17 41 -8 139 30 214 -38 214 -194 l0 -56 53 -7 c120 -17 188 -74 208 -176
10 -51 17 -63 57 -96 44 -36 81 -99 82 -138 0 -11 -7 -33 -15 -49 -8 -15 -15
-29 -15 -31 0 -1 17 -7 38 -13 59 -18 85 -52 85 -109 0 -36 5 -54 22 -73 50
-56 56 -92 26 -179 l-19 -55 38 -45 c51 -60 70 -108 70 -173 0 -54 -26 -126
-57 -160 -15 -16 -14 -23 12 -80 37 -83 39 -153 4 -228 -21 -46 -24 -61 -16
-95 21 -96 -16 -224 -89 -304 -35 -39 -37 -46 -35 -96 4 -81 -40 -154 -104
-175 -29 -10 -33 -16 -38 -56 -7 -68 -45 -132 -101 -171 -27 -18 -61 -33 -77
-33 -26 0 -28 -2 -20 -23 15 -40 -11 -81 -82 -127 -52 -34 -67 -50 -71 -75
-11 -58 -89 -112 -177 -122 -46 -5 -49 -7 -49 -35 0 -37 -25 -96 -53 -126 -42
-46 -96 -66 -174 -67 -71 0 -72 0 -87 -32 -19 -40 -106 -99 -166 -112 -25 -6
-82 -11 -127 -11 -89 0 -103 8 -103 63 0 21 9 28 63 47 76 28 195 87 284 141
349 214 651 580 771 937 l27 81 1 -77 c1 -73 20 -170 30 -159 3 3 12 55 20
117 9 72 26 141 46 193 l31 81 18 -61 c26 -85 47 -100 41 -30 -2 28 1 70 7 92
5 22 17 69 26 105 10 39 15 85 12 116 -5 52 -54 160 -100 222 l-25 33 -4 -158
c-3 -138 -7 -170 -32 -256 -16 -53 -30 -96 -32 -94 -2 2 5 48 15 103 11 54 22
128 25 164 5 54 2 46 -19 -50 -101 -477 -390 -899 -795 -1162 -120 -78 -412
-220 -424 -207 -2 2 -11 64 -21 137 -19 156 -28 138 101 203 81 41 139 52 190
35 19 -6 22 -2 28 32 12 77 101 166 179 179 30 4 38 11 43 32 22 110 56 156
148 201 63 31 63 32 76 88 11 50 20 64 76 117 l63 61 -6 55 c-3 33 -1 71 6 92
11 32 81 109 109 118 9 3 7 18 -7 54 -40 108 -36 173 16 227 l26 27 -31 79
c-44 112 -48 145 -23 220 l21 62 -30 42 c-37 51 -54 109 -46 162 6 40 5 42
-40 68 -66 41 -90 114 -60 188 4 10 -3 19 -23 28 -51 23 -90 72 -113 144 -21
64 -24 68 -57 74 -126 22 -171 50 -175 109 -1 21 -9 27 -55 41 -34 10 -67 28
-88 49 -31 31 -37 33 -122 37 -75 3 -95 8 -129 30 -21 15 -48 44 -59 66 -18
38 -20 39 -44 26 -38 -21 -68 -16 -99 15 -27 27 -33 28 -97 24 -80 -5 -111 8
-133 54 -10 23 -20 31 -30 26 -116 -49 -188 -56 -223 -20 l-22 22 -68 -34
c-83 -43 -166 -52 -211 -24 -28 18 -29 18 -99 -17 -54 -27 -84 -35 -130 -37
-59 -1 -60 -2 -96 -49 -46 -60 -91 -84 -158 -84 -44 0 -53 -3 -53 -18 0 -48
-108 -131 -191 -147 -31 -6 -37 -11 -47 -50 -18 -67 -68 -111 -142 -126 -58
-11 -60 -13 -60 -43 0 -41 -38 -97 -83 -120 -32 -18 -35 -24 -41 -78 -7 -74
-25 -116 -64 -153 -28 -26 -30 -34 -25 -70 6 -43 -11 -90 -47 -135 l-20 -25
20 -53 c11 -29 20 -68 20 -88 0 -46 -26 -101 -57 -121 l-24 -16 22 -23 c29
-31 38 -86 27 -174 l-9 -73 42 -35 c69 -59 87 -125 45 -167 -22 -22 -22 -25
-7 -30 10 -3 31 -19 47 -36 27 -28 29 -36 29 -110 l0 -79 35 0 c87 -1 149 -94
105 -157 -14 -21 -13 -21 37 -28 77 -11 111 -49 110 -125 0 -3 -3 -15 -7 -27
-5 -19 -2 -23 14 -23 11 0 33 -11 48 -24 26 -22 27 -27 16 -55 l-11 -31 38 0
c85 0 191 -68 205 -131 6 -28 7 -28 68 -22 65 6 137 -8 155 -30 7 -8 4 -60
-10 -167 -11 -85 -22 -157 -24 -159 -13 -14 -281 116 -404 196 -407 264 -699
687 -791 1146 l-21 108 25 27 c30 31 57 91 57 124 0 13 -12 50 -25 83 -24 58
-24 60 -5 80 10 11 20 36 22 55 3 30 7 35 32 38 16 2 47 -6 72 -19 23 -13 46
-21 49 -17 20 20 -85 148 -122 148 -12 0 -14 7 -10 29 4 18 -1 42 -13 65 l-18
37 23 9 c13 5 30 19 39 32 17 24 21 104 7 128 -7 10 -2 19 19 32 43 26 63 71
58 134 -4 45 -2 53 14 57 17 5 18 -3 18 -106 0 -65 -6 -135 -14 -166 -17 -61
-29 -81 -20 -30 l7 34 -36 -34 c-39 -37 -58 -103 -39 -138 9 -16 13 -12 31 30
12 27 21 52 21 57 0 4 9 10 19 13 26 6 79 81 92 131 9 30 9 68 0 144 -8 78 -8
119 1 165 10 56 15 64 46 79 31 15 33 15 26 0 -62 -149 -64 -195 -10 -297 l31
-59 6 109 c4 61 17 151 29 200 12 52 20 112 18 142 -3 52 -2 53 34 71 l37 19
-16 -23 c-11 -18 -12 -28 -5 -37 6 -7 18 -39 26 -72 9 -32 18 -60 21 -63 7 -8
34 61 50 132 17 72 10 107 -25 126 -30 16 -25 34 15 53 71 34 99 13 115 -88 5
-32 14 -63 19 -68 24 -24 65 210 43 248 -8 15 -4 23 26 43 l36 24 23 -26 c16
-20 23 -40 23 -71 0 -34 3 -43 14 -39 28 11 50 76 51 147 0 65 1 68 33 87 18
11 39 34 46 50 15 37 26 29 26 -19 0 -24 10 -49 30 -75 24 -32 30 -50 30 -89
0 -44 2 -48 16 -36 49 41 67 139 40 217 -15 41 -15 41 19 75 27 27 40 33 64
29 29 -4 30 -5 16 -25 -21 -30 -19 -39 16 -83 26 -33 30 -45 26 -78 -3 -21 -1
-50 5 -65 l10 -26 18 36 c10 19 28 63 40 98 18 53 19 69 9 98 -6 19 -21 39
-34 45 l-23 10 31 33 c29 28 34 30 52 18 41 -28 109 -12 154 37 27 30 28 30
45 11 16 -18 16 -21 1 -44 -19 -29 -13 -47 29 -86 23 -22 25 -29 19 -82 -7
-68 2 -74 40 -29 44 52 59 143 34 200 -5 10 3 21 24 32 28 16 32 16 55 2 18
-12 39 -15 80 -12 52 5 56 3 70 -23 18 -35 18 -130 1 -172 -8 -18 -27 -47 -42
-66 l-29 -33 35 7 c96 20 144 87 144 202 0 68 1 72 20 66 81 -25 116 -105 90
-205 -7 -29 -12 -55 -9 -57 11 -11 58 37 76 77 16 35 19 59 15 103 l-5 58 51
3 c48 3 54 0 80 -29 38 -43 44 -127 14 -190 -24 -50 -19 -60 20 -40 50 27 97
88 117 154 5 16 2 23 -11 26 -14 4 -14 5 -2 6 8 0 25 -12 37 -29 13 -17 39
-34 62 -41 l40 -12 0 -66 c0 -49 -5 -74 -20 -96 -11 -16 -20 -37 -20 -47 0
-46 123 50 141 111 l11 37 52 -18 c28 -9 58 -17 67 -18 25 0 32 -45 14 -81
-15 -29 -13 -69 4 -69 5 0 20 -11 34 -24 20 -19 25 -32 25 -70 -2 -126 59 -38
64 92 2 52 27 55 40 5 9 -36 53 -76 101 -94 30 -10 32 -15 32 -53 -1 -23 -9
-53 -18 -66 -23 -33 -22 -38 19 -99 20 -29 39 -71 41 -92 7 -48 20 -50 39 -4
13 32 13 41 -1 81 -16 49 -19 92 -7 111 9 14 30 -31 50 -102 5 -22 27 -94 47
-160 39 -127 46 -206 31 -330 l-8 -60 32 30 c48 45 63 88 63 183 0 45 2 82 4
82 2 0 13 -5 23 -10 16 -9 18 -15 10 -36 -24 -61 -3 -160 58 -279 33 -62 37
-78 37 -147 0 -61 4 -82 21 -105 18 -24 19 -31 7 -53 -7 -14 -13 -44 -13 -66
0 -53 29 -91 77 -100 32 -6 40 -3 61 21 28 33 25 75 -13 142 l-23 43 20 22
c11 13 17 18 14 11 -7 -13 7 -18 74 -28 25 -4 60 -16 78 -27 18 -11 36 -18 39
-14 12 12 -32 89 -75 132 -41 41 -97 65 -120 50 -5 -3 -22 12 -37 33 -22 32
-25 43 -16 60 21 38 13 98 -17 133 -23 27 -29 43 -30 85 -1 57 -22 107 -51
122 -14 8 -20 25 -23 67 -4 50 -10 62 -40 89 -19 18 -40 34 -46 36 -6 2 -16
29 -22 58 -6 30 -19 64 -30 76 -11 12 -20 27 -20 34 0 11 -3 11 -15 1 -21 -17
-32 -5 -40 42 -9 51 -58 105 -103 114 -21 4 -31 13 -35 30 -5 30 85 131 128
142 42 12 42 29 -2 41 -77 22 -149 6 -203 -43 -41 -38 -62 -31 -90 27 -20 42
-34 56 -74 76 -44 22 -47 25 -28 35 11 6 31 26 44 45 14 21 35 38 54 43 32 8
51 33 34 43 -6 4 -41 9 -78 12 -55 5 -77 2 -114 -15 -28 -12 -49 -29 -53 -42
-5 -16 -12 -20 -28 -16 -12 3 -34 6 -49 6 -51 0 -100 123 -81 204 16 72 1 76
-48 13 -24 -31 -49 -71 -55 -89 -13 -38 -39 -48 -47 -18 -3 11 -1 20 4 20 20
0 7 40 -22 64 -17 14 -34 26 -38 26 -14 0 -51 41 -46 50 3 5 1 20 -6 32 -12
22 -12 22 -20 3 -4 -11 -8 -46 -8 -77 -1 -52 -3 -58 -22 -58 -11 0 -35 11 -54
25 -40 31 -93 41 -135 26 -28 -9 -36 -7 -68 14 -40 27 -116 34 -153 15 -14 -8
-25 -6 -45 6 -32 22 -112 24 -147 5 -21 -11 -32 -12 -52 -3 -56 26 -133 6
-166 -41 -4 -5 -20 -2 -37 7 -54 28 -135 15 -170 -27 -9 -11 -21 -11 -57 -3
l-45 11 6 65 6 65 -26 -30 c-36 -41 -66 -99 -66 -128 0 -32 -15 -43 -68 -50
-52 -6 -88 -29 -110 -68 -38 -67 -90 -2 -78 98 7 58 0 65 -31 31 -35 -38 -63
-105 -63 -148 l0 -41 26 20 c15 12 36 21 48 21 15 0 9 -6 -20 -19 -22 -10 -54
-34 -70 -54 -19 -23 -44 -39 -70 -46 -51 -14 -93 -51 -100 -91 -6 -25 -11 -30
-36 -30 -58 0 -128 -61 -128 -112 0 -10 -15 -21 -42 -30 -49 -15 -82 -57 -92
-116 -4 -31 -11 -41 -30 -46 -13 -3 -38 -22 -55 -41 -25 -29 -31 -45 -31 -80
l0 -45 -69 0 c-64 0 -73 3 -115 35 -26 19 -48 35 -51 35 -9 0 7 -54 31 -102
13 -26 42 -61 64 -79 22 -18 40 -37 40 -44 0 -6 -13 -21 -30 -33 -45 -34 -63
-77 -57 -134 5 -35 3 -48 -7 -48 -15 0 -61 -48 -69 -72 -4 -10 -13 -18 -22
-18 -20 0 -75 28 -75 38 0 4 -12 21 -26 37 l-25 30 6 -55 c8 -73 40 -136 81
-163 30 -20 33 -25 27 -52 -10 -43 -8 -82 7 -109 10 -20 9 -30 -9 -64 -12 -23
-21 -53 -21 -67 0 -34 42 -75 75 -75 l27 0 -20 -32 c-16 -27 -21 -55 -24 -146
-1 -61 -1 -112 2 -112 3 0 11 -42 18 -93 6 -51 23 -133 38 -182 41 -141 39
-139 -41 20 l-74 150 -1 135 0 135 -25 -30 c-14 -16 -39 -58 -56 -92 -31 -61
-31 -65 -27 -170 5 -110 12 -135 73 -281 14 -35 29 -91 33 -125 l7 -62 24 33
c25 35 30 77 18 147 l-7 40 22 -45 c18 -35 23 -69 28 -160 l5 -115 29 59 c20
39 31 80 34 119 l5 61 32 -90 c154 -431 540 -829 990 -1023 46 -20 84 -39 84
-43 1 -5 1 -38 1 -74 l0 -66 -62 7 c-93 11 -165 41 -214 90 -40 41 -45 43
-112 47 -57 3 -76 8 -106 32 -56 42 -78 83 -73 134 4 40 3 42 -22 42 -43 0
-87 34 -105 82 -17 43 -17 43 -69 44 -29 0 -67 8 -84 17 -33 17 -63 62 -63 92
0 9 -16 31 -35 49 -27 26 -35 41 -35 68 0 35 -1 36 -46 41 -34 3 -55 13 -81
38 -44 43 -66 85 -60 116 3 18 -2 27 -23 38 -30 15 -40 33 -40 71 0 13 -5 24
-11 24 -6 0 -26 7 -43 15 -61 29 -97 135 -71 208 13 37 12 38 -15 52 -15 8
-40 29 -55 47 -23 28 -27 39 -23 80 3 31 13 57 27 72 l22 23 -58 34 c-76 44
-100 87 -84 146 6 22 24 55 40 72 24 26 26 32 14 43 -26 22 -43 67 -43 117 0
60 11 92 49 140 l29 36 -23 17 c-85 64 -86 249 -1 316 23 17 24 24 19 74 -3
31 0 78 7 107 15 63 78 160 123 191 l33 23 -15 42 c-12 35 -13 51 -2 97 18 83
67 158 119 183 27 13 42 27 42 39 0 34 62 135 110 180 30 28 61 47 83 51 29 6
36 12 41 38 19 95 177 179 257 137 16 -9 19 -7 19 11 0 35 36 83 82 109 33 19
57 25 105 24 56 0 62 2 67 22 8 31 53 82 88 100 33 17 123 23 179 11 33 -7 37
-5 66 36 57 81 184 120 282 86 26 -9 35 -8 49 4 31 27 80 47 116 47 19 0 56
11 82 25 65 34 102 32 207 -16z m-189 -201 c3 -7 7 -28 10 -45 5 -31 4 -33
-22 -33 -61 0 -82 52 -32 77 32 16 40 16 44 1z m205 8 c-2 -1 -20 -8 -39 -14
-32 -11 -33 -10 -16 3 16 12 69 23 55 11z m221 -19 c0 -9 -10 -12 -30 -9 -44
6 -47 22 -6 22 23 0 36 -5 36 -13z m187 -25 c8 -5 9 -13 3 -22 -6 -8 -10 -25
-10 -37 0 -25 -7 -27 -43 -14 -30 12 -44 46 -27 66 13 16 57 20 77 7z m-1003
-64 c16 -38 8 -50 -29 -50 -44 0 -57 30 -25 62 28 28 38 25 54 -12z m1193 4
c10 -6 10 -16 1 -45 -13 -44 -21 -45 -54 -12 -20 20 -23 28 -14 45 11 20 45
26 67 12z m-1370 -104 c14 -16 13 -18 -13 -29 -36 -13 -59 -1 -59 32 0 30 48
59 54 31 1 -9 10 -25 18 -34z m1562 18 c8 -10 9 -16 1 -21 -5 -3 -10 -15 -10
-26 0 -25 -13 -24 -46 4 -18 16 -25 30 -21 40 8 21 60 23 76 3z m-1759 -78 c0
-6 7 -19 15 -28 23 -25 -5 -45 -57 -41 -23 1 -24 44 -2 65 18 19 44 21 44 4z
m1940 -33 c-7 -9 -15 -13 -17 -11 -7 7 7 26 19 26 6 0 6 -6 -2 -15z m85 -5 c3
-5 1 -10 -4 -10 -6 0 -11 5 -11 10 0 6 2 10 4 10 3 0 8 -4 11 -10z m-2178
-132 c-24 -19 -37 -21 -61 -12 -23 9 -20 50 5 68 20 14 24 13 50 -12 l29 -27
-23 -17z m103 53 c0 -5 -6 -14 -14 -20 -12 -10 -13 -8 -9 8 5 21 23 30 23 12z
m-258 -173 c-21 -24 -50 -32 -67 -18 -21 18 -18 47 7 64 19 14 23 13 48 -7 25
-20 26 -24 12 -39z m118 58 c0 -3 -14 -15 -32 -27 -17 -13 -29 -19 -26 -13 3
5 8 17 11 27 5 14 47 26 47 13z m1495 -100 c59 -18 111 -65 120 -107 10 -46
-3 -113 -31 -154 -19 -29 -24 -48 -24 -103 0 -49 -6 -80 -24 -117 -21 -47 -85
-115 -106 -115 -6 0 -10 32 -10 71 0 82 -15 190 -37 272 -12 44 -29 72 -65
113 -60 65 -162 120 -207 111 -97 -20 -197 -104 -231 -194 -28 -75 -50 -210
-50 -309 0 -98 -10 -106 -65 -51 -53 53 -115 281 -115 421 0 79 30 143 80 169
32 17 61 18 375 14 275 -4 350 -8 390 -21z m-1744 -78 c24 -9 -20 -48 -53 -48
-24 0 -28 4 -28 27 0 14 7 34 16 44 15 17 17 16 34 -1 9 -9 24 -20 31 -22z
m1398 -28 c7 -25 66 -214 131 -420 65 -206 121 -385 125 -398 l7 -23 474 3
c261 2 474 1 474 -2 0 -3 -17 -16 -38 -29 -30 -19 -718 -506 -731 -517 -3 -3
267 -816 297 -893 3 -7 -89 57 -204 143 -115 86 -287 214 -382 285 l-174 129
-331 -246 c-183 -135 -351 -261 -375 -280 -23 -19 -45 -32 -48 -30 -3 3 61
201 141 439 81 239 147 438 148 443 2 8 -239 183 -588 429 -93 65 -171 122
-173 125 -1 4 210 7 469 7 l472 0 111 350 c62 193 125 394 141 447 16 54 32
94 35 90 4 -4 12 -27 19 -52z m-1549 -115 c7 -8 19 -15 26 -15 22 0 16 -17
-12 -39 -34 -26 -50 -26 -64 0 -9 16 -8 26 5 45 18 28 28 30 45 9z m3124 -34
c17 -19 17 -20 -3 -31 -19 -10 -21 -8 -21 20 0 35 1 36 24 11z m-2210 -78 c10
-38 26 -98 37 -135 24 -84 25 -180 2 -199 -12 -11 -77 -16 -267 -21 -138 -3
-270 -9 -293 -12 -38 -6 -43 -5 -43 12 0 59 460 422 535 422 5 0 18 -30 29
-67z m1362 31 c101 -30 257 -130 366 -233 l68 -63 0 -65 c0 -58 -2 -64 -17
-58 -57 23 -103 28 -347 34 -247 6 -269 8 -282 26 -20 28 -17 80 11 168 14 43
25 91 25 107 0 28 34 98 55 112 5 4 16 6 22 3 7 -2 52 -16 99 -31z m-2368 -95
c27 -9 30 -14 22 -30 -25 -46 -80 -46 -80 0 0 43 8 47 58 30z m3300 -1 c26
-33 23 -53 -11 -68 -17 -7 -35 -15 -39 -17 -9 -6 -22 63 -14 82 7 18 50 20 64
3z m-3385 -185 c24 -7 21 -25 -8 -53 -23 -22 -27 -22 -41 -8 -22 22 -10 83 14
73 10 -4 25 -10 35 -12z m3464 2 c25 -18 37 -55 17 -55 -8 0 -23 -9 -33 -19
-25 -25 -31 -18 -31 34 0 58 10 66 47 40z m-2077 -104 c-10 -37 -48 -121 -53
-121 -3 0 -1 17 4 38 5 20 9 39 9 42 0 8 39 70 44 70 3 0 1 -13 -4 -29z m650
-25 c0 -12 3 -32 5 -46 3 -14 -3 -2 -14 25 -24 62 -27 88 -6 61 8 -11 15 -29
15 -40z m-2083 -60 c1 -1 -5 -16 -12 -33 -25 -58 -84 -38 -69 22 5 21 10 23
42 18 21 -3 38 -6 39 -7z m3578 -25 c0 -43 -18 -50 -40 -17 -21 32 -13 58 17
54 19 -2 23 -9 23 -37z m-3714 -74 c-8 -8 -11 0 -10 29 1 39 1 39 11 11 7 -21
7 -32 -1 -40z m3769 -139 c0 -39 -17 -27 -22 16 -3 28 -1 33 9 24 7 -6 13 -24
13 -40z m-3690 21 c0 -9 -8 -27 -19 -40 -16 -20 -21 -21 -35 -10 -9 7 -16 26
-16 42 0 27 3 29 35 26 25 -1 35 -7 35 -18z m-55 -159 c3 -5 -3 -10 -14 -10
-12 0 -21 5 -21 10 0 6 6 10 14 10 8 0 18 -4 21 -10z m3202 -37 c5 -16 7 -92
6 -171 -2 -123 -7 -155 -30 -230 -15 -48 -37 -105 -50 -127 -12 -22 -23 -48
-23 -58 0 -11 -9 -30 -20 -44 -11 -14 -20 -33 -20 -42 -1 -25 -182 -234 -222
-256 -35 -19 -37 -19 -57 -1 -22 20 -147 384 -157 459 -8 56 -18 47 211 215
88 65 197 155 243 200 46 45 89 82 97 82 8 0 18 -12 22 -27z m533 17 c0 -5 -9
-10 -21 -10 -11 0 -17 5 -14 10 3 6 13 10 21 10 8 0 14 -4 14 -10z m-3088 -80
c35 -34 135 -115 223 -181 222 -165 215 -159 215 -209 0 -45 -120 -421 -144
-453 -13 -17 -17 -17 -44 -3 -16 8 -45 35 -63 58 -18 24 -54 68 -80 98 -45 54
-129 213 -129 245 0 9 -14 48 -31 88 -50 116 -62 172 -60 280 1 96 13 137 38
137 7 0 41 -27 75 -60z m1399 -982 c85 -51 162 -95 170 -97 7 -2 48 -6 89 -9
41 -2 77 -6 78 -7 7 -7 32 -191 32 -238 0 -43 -3 -48 -27 -57 -78 -28 -107
-47 -129 -82 -34 -53 -33 -143 2 -235 14 -37 31 -96 37 -131 16 -84 49 -125
127 -153 51 -18 60 -25 60 -46 0 -27 -44 -75 -95 -106 -17 -9 -51 -33 -78 -52
-62 -44 -137 -72 -249 -91 -86 -15 -94 -15 -184 5 -118 26 -145 26 -230 0
-121 -37 -246 -6 -289 74 -12 21 -34 43 -55 52 -19 9 -44 24 -56 34 -21 17
-49 60 -42 65 2 2 31 16 66 31 82 36 98 60 105 156 3 48 13 91 26 117 48 93
65 251 35 311 -20 40 -83 87 -129 95 -40 8 -41 9 -22 145 l12 85 72 -1 c83 -2
91 2 268 112 149 92 193 115 225 115 16 0 89 -38 181 -92z M5802 7358 c4 -16
19 -28 36 -28 17 0 6 17 -19 30 -15 8 -19 8 -17 -2z M3653 6704 c4 -53 34
-125 55 -132 8 -2 12 14 12 55 0 60 -19 103 -45 103 -7 0 -16 6 -19 13 -3 6
-4 -11 -3 -39z M6995 6531 l-40 -18 40 -11 c56 -17 72 -15 96 9 17 17 19 23 8
30 -22 14 -61 10 -104 -10z M7243 6193 c-7 -21 -18 -65 -25 -99 l-14 -61 39
-44 c22 -24 62 -74 89 -111 51 -70 67 -81 69 -50 6 73 -19 152 -83 258 -23 38
-47 86 -53 107 l-11 39 -11 -39z M3255 5881 c-1 -22 -10 -50 -23 -68 -18 -26
-22 -45 -22 -111 l0 -81 31 9 c16 5 45 22 63 37 l32 29 -34 104 c-18 58 -37
108 -40 112 -4 4 -7 -10 -7 -31z M7012 5662 c-40 -40 -62 -96 -62 -156 0 -42
11 -46 35 -10 28 44 54 64 81 64 23 0 25 3 19 23 -4 12 -10 43 -12 70 -3 26
-9 47 -14 47 -5 0 -26 -17 -47 -38z M7306 5471 c-17 -6 -15 -10 14 -34 33 -28
68 -34 101 -17 28 16 23 29 -16 46 -37 15 -69 17 -99 5z M7153 5295 c0 -22 2
-30 4 -17 2 12 2 30 0 40 -3 9 -5 -1 -4 -23z M7161 5214 c0 -11 3 -14 6 -6 3
7 2 16 -1 19 -3 4 -6 -2 -5 -13z M7315 4751 c3 -24 10 -51 15 -60 17 -28 12
33 -5 70 l-16 34 6 -44z"/>
</g>
</svg>
