<?xml version="1.0" standalone="no"?>
<!DOCTYPE svg PUBLIC "-//W3C//DTD SVG 20010904//EN"
 "http://www.w3.org/TR/2001/REC-SVG-20010904/DTD/svg10.dtd">
<svg version="1.0" xmlns="http://www.w3.org/2000/svg"
 width="2048.000000pt" height="2048.000000pt" viewBox="0 0 2048.000000 2048.000000"
 preserveAspectRatio="xMidYMid meet">
<metadata>
Created by potrace 1.13, written by Peter Selinger 2001-2015
</metadata>
<g transform="translate(0.000000,2048.000000) scale(0.192120,-0.192120)"
fill="#000000" stroke="none">
<path d="M1247 8924 c-474 -86 -838 -467 -907 -949 -6 -42 -10 -395 -10 -872
l0 -803 5000 0 5001 0 -4 848 c-3 742 -5 855 -20 913 -55 225 -149 396 -302
551 -137 138 -317 242 -512 296 l-98 27 -4035 2 c-3449 1 -4046 -1 -4113 -13z
m8068 -235 c95 -12 223 -47 290 -81 221 -112 385 -314 456 -564 22 -76 23 -97
26 -586 3 -308 8 -508 14 -508 5 0 9 -20 9 -45 0 -25 5 -45 10 -45 6 0 10 -6
10 -14 0 -8 6 -21 13 -28 6 -8 22 -33 34 -55 l23 -41 -63 -7 c-76 -7 -9663 -2
-9671 6 -6 6 55 132 67 137 4 2 7 24 7 48 0 24 4 44 9 44 6 0 11 199 14 508 3
486 4 510 25 587 45 161 135 309 255 421 67 61 87 74 87 55 0 -5 29 7 65 26
79 42 158 70 243 88 106 23 115 7 47 -82 -141 -182 -207 -296 -263 -453 -24
-70 -26 -89 -30 -288 -4 -205 -3 -216 23 -305 91 -322 317 -579 585 -666 285
-92 549 -74 673 47 42 41 46 65 17 122 -32 64 -75 105 -214 209 -155 116 -232
196 -278 288 l-33 67 -3 205 -3 204 31 64 c42 84 128 175 241 254 51 35 113
82 138 103 55 47 134 143 157 191 9 19 20 35 25 35 5 0 9 7 9 15 0 13 96 15
805 15 l805 0 0 -27 c0 -16 -7 -48 -16 -72 -33 -96 22 -234 142 -353 41 -40
74 -77 74 -82 0 -4 -31 -40 -69 -80 -89 -92 -122 -134 -146 -186 -16 -36 -17
-49 -8 -95 19 -90 59 -160 139 -241 41 -42 74 -83 74 -93 0 -9 -38 -56 -84
-106 -86 -91 -136 -168 -136 -206 0 -11 7 -45 16 -75 19 -68 94 -147 173 -187
76 -37 179 -38 254 -2 99 47 172 141 192 246 8 45 -43 130 -142 235 -47 48
-73 84 -73 99 0 15 15 35 43 58 53 43 118 137 141 202 10 28 22 58 27 67 27
52 -14 132 -135 263 -47 51 -86 97 -86 102 0 5 26 34 57 64 71 68 126 152 152
234 26 80 26 104 0 154 -35 67 -27 76 74 79 l87 3 0 -28 c0 -15 -8 -47 -17
-71 -35 -92 23 -235 144 -355 40 -40 73 -76 73 -81 0 -5 -41 -51 -90 -103 -90
-94 -140 -171 -140 -216 0 -36 33 -127 65 -183 15 -27 57 -77 92 -111 35 -34
63 -70 63 -81 0 -11 -36 -57 -80 -103 -83 -87 -140 -173 -140 -210 0 -39 23
-103 53 -147 85 -126 261 -179 390 -117 98 47 168 136 192 243 9 45 -43 134
-140 236 -41 44 -75 88 -75 98 0 10 24 42 53 71 69 67 108 125 140 212 34 88
34 105 0 163 -24 42 -177 222 -195 230 -18 8 -4 32 48 82 75 72 126 151 152
232 27 83 27 98 1 154 -33 73 -28 79 74 82 l87 3 0 -28 c0 -15 -7 -48 -16 -73
-34 -98 30 -252 150 -359 45 -40 66 -64 66 -74 0 -6 -38 -49 -84 -97 -89 -93
-146 -178 -146 -221 0 -37 32 -128 64 -183 15 -26 59 -79 97 -117 50 -51 67
-73 62 -86 -4 -10 -43 -54 -86 -99 -82 -85 -137 -167 -137 -205 0 -24 15 -77
34 -119 16 -37 101 -114 154 -141 34 -17 68 -25 123 -27 65 -3 84 0 130 22
105 49 171 134 185 239 5 38 2 54 -25 103 -18 33 -65 95 -106 138 -41 44 -75
88 -75 98 0 10 24 41 53 68 60 56 112 137 138 217 37 111 21 159 -100 293
-119 132 -113 113 -48 175 100 95 167 221 167 315 0 20 -7 58 -16 83 -23 69
-17 77 61 77 58 0 65 2 65 20 0 20 7 20 1523 20 1044 0 1550 -4 1612 -11z
m-7100 -50 c5 -5 -2 -9 -17 -9 -38 0 -154 -38 -223 -72 -194 -98 -346 -266
-421 -464 -77 -205 -72 -445 12 -646 38 -92 124 -217 196 -284 116 -109 229
-171 378 -210 112 -29 88 -38 -88 -31 -190 7 -324 50 -472 150 -155 106 -286
291 -341 479 -30 105 -37 288 -15 399 87 428 478 729 911 701 39 -2 74 -8 80
-13z m2069 -49 l16 -61 60 7 c73 8 77 -3 15 -43 -25 -15 -45 -33 -45 -39 0 -6
7 -32 16 -58 9 -26 14 -49 12 -52 -3 -2 -25 12 -51 32 l-46 36 -47 -36 c-26
-20 -49 -34 -52 -32 -2 3 3 26 12 52 9 26 16 52 16 58 0 6 -20 24 -45 39 -62
40 -58 51 15 43 l60 -7 16 61 c10 33 20 60 24 60 4 0 14 -27 24 -60z m750 0
l17 -61 60 7 c35 4 59 3 59 -3 0 -5 -20 -23 -45 -41 -25 -17 -45 -36 -45 -41
0 -4 7 -28 15 -51 22 -63 20 -65 -35 -25 l-49 36 -47 -35 c-26 -20 -49 -34
-52 -32 -2 3 3 26 12 52 9 26 16 52 16 58 0 6 -20 24 -45 39 -62 40 -58 51 15
43 l59 -7 18 61 c10 33 21 60 24 60 4 0 14 -27 23 -60z m834 -55 l67 6 -29
-23 c-16 -13 -41 -33 -55 -44 l-25 -21 21 -57 c11 -31 18 -56 16 -56 -3 0 -27
16 -54 36 l-48 35 -47 -35 c-26 -20 -49 -34 -52 -32 -2 3 5 29 16 59 l21 55
-50 33 c-27 19 -49 38 -49 43 0 5 27 6 59 2 l59 -7 17 53 c26 78 28 79 48 10
l19 -62 66 5z m-1585 -635 l17 -60 63 0 c69 -1 69 1 -9 -56 l-29 -21 19 -52
c10 -29 16 -55 13 -58 -4 -3 -24 9 -45 26 -22 17 -45 31 -52 31 -7 0 -30 -14
-52 -31 -21 -17 -41 -29 -45 -26 -3 3 3 29 13 58 21 57 26 46 -52 106 l-29 22
62 0 63 1 17 60 c10 33 20 60 23 60 3 0 13 -27 23 -60z m835 -60 l67 0 -53
-35 c-28 -20 -52 -39 -52 -43 0 -5 7 -30 16 -56 9 -26 14 -50 11 -53 -4 -3
-24 9 -45 26 -22 17 -45 31 -52 31 -7 0 -30 -14 -52 -31 -21 -17 -41 -29 -44
-27 -2 3 3 24 11 48 22 61 20 65 -32 102 l-48 33 64 5 64 5 12 43 c24 81 26
81 47 15 l19 -63 67 0z m750 0 l67 0 -53 -35 c-28 -20 -52 -39 -52 -43 0 -5 7
-30 16 -56 9 -26 14 -50 11 -53 -3 -3 -26 11 -50 31 l-45 36 -51 -40 c-56 -44
-58 -43 -36 20 21 61 20 65 -31 102 l-47 33 64 5 63 5 13 45 c22 78 25 78 45
13 l19 -63 67 0z m-1586 -632 l15 -53 61 -3 c34 -2 62 -6 62 -10 0 -4 -20 -20
-45 -35 -50 -32 -51 -36 -30 -97 22 -62 20 -64 -31 -25 -26 19 -50 35 -54 35
-4 0 -28 -16 -54 -35 -51 -39 -53 -37 -31 25 21 61 20 65 -30 97 -25 15 -45
31 -45 35 0 4 28 8 62 10 l61 3 15 53 c8 28 18 52 22 52 4 0 14 -24 22 -52z
m752 -3 l17 -54 67 -3 67 -3 -53 -34 c-57 -36 -59 -44 -37 -98 26 -61 19 -67
-31 -28 -26 19 -50 35 -54 35 -4 0 -27 -16 -51 -34 -24 -19 -45 -33 -47 -31
-2 2 3 25 12 51 9 26 16 53 16 59 0 6 -21 27 -47 46 l-48 34 65 5 65 5 14 53
c8 28 17 52 21 52 3 0 14 -25 24 -55z m750 0 l17 -54 66 -3 66 -3 -52 -35
c-28 -19 -51 -38 -51 -41 0 -3 9 -31 19 -62 11 -32 16 -57 11 -57 -5 0 -11 4
-14 8 -3 5 -23 21 -45 36 l-40 28 -51 -37 c-55 -40 -57 -38 -35 25 8 23 15 48
15 54 0 7 -21 28 -47 47 l-48 34 65 5 65 5 15 53 c8 28 17 52 21 52 3 0 13
-25 23 -55z M3425 8093 c-68 -35 -179 -150 -212 -219 -25 -52 -26 -61 -16
-109 19 -90 59 -160 139 -241 41 -42 74 -83 74 -93 -1 -9 -38 -56 -84 -104
-83 -89 -136 -169 -136 -208 0 -59 33 -131 83 -182 75 -76 142 -107 233 -107
85 0 138 19 204 75 53 44 81 89 105 166 l18 56 -41 69 c-22 38 -72 101 -109
139 -38 39 -72 78 -76 88 -5 13 10 34 57 82 66 66 131 168 142 224 4 17 11 34
15 37 19 11 8 65 -25 121 -40 69 -154 181 -213 212 -55 27 -96 26 -158 -6z
m108 -198 l14 -50 64 -5 64 -5 -47 -33 c-53 -37 -55 -41 -33 -102 8 -24 13
-45 11 -48 -3 -2 -23 10 -44 27 -22 17 -45 31 -52 31 -7 0 -30 -14 -52 -31
-21 -17 -41 -29 -45 -26 -3 3 2 27 11 53 9 26 16 51 16 56 0 4 -24 23 -52 43
l-53 35 68 0 67 0 17 60 c9 33 20 57 24 53 4 -4 14 -30 22 -58z m-2 -687 l14
-53 63 -3 c34 -2 62 -6 62 -10 0 -4 -20 -20 -45 -35 -25 -16 -45 -34 -45 -41
0 -7 7 -34 16 -60 9 -26 14 -49 12 -51 -2 -2 -23 12 -47 31 -24 18 -47 34 -51
34 -4 0 -28 -16 -54 -35 -50 -39 -57 -33 -31 28 22 54 20 62 -37 98 l-53 34
67 3 67 3 17 54 c10 30 21 55 24 55 4 0 13 -24 21 -52z M2682 7404 c-100 -50
-242 -218 -242 -286 0 -11 7 -44 16 -74 19 -68 94 -147 173 -187 79 -39 173
-38 256 2 99 49 147 105 180 212 l17 55 -33 59 c-46 82 -137 176 -208 213 -71
39 -92 39 -159 6z m98 -196 l15 -53 65 -5 65 -5 -47 -34 c-27 -19 -48 -40 -48
-47 0 -6 7 -31 15 -54 22 -63 20 -65 -35 -25 l-51 37 -40 -28 c-22 -15 -42
-31 -45 -36 -3 -4 -9 -8 -14 -8 -5 0 0 25 11 57 10 31 19 59 19 62 0 3 -23 22
-51 41 l-52 35 66 3 66 3 17 54 c10 30 20 55 23 55 4 0 13 -24 21 -52z M10304
6123 c-10 -21 -22 -39 -26 -41 -5 -2 -8 -12 -8 -22 0 -10 -4 -22 -10 -25 -7
-4 -10 -251 -10 -709 0 -696 3 -756 33 -756 4 0 7 -6 7 -13 0 -8 9 -24 20 -37
l20 -23 0 831 c0 458 -2 832 -3 832 -2 0 -12 -17 -23 -37z M330 5324 c0 -448
4 -813 8 -810 5 3 17 23 28 45 10 23 22 41 27 41 4 0 7 324 7 720 0 473 -3
720 -10 720 -5 0 -10 5 -10 12 0 17 -34 87 -42 88 -5 0 -8 -367 -8 -816z M330
3558 c0 -478 4 -831 10 -873 25 -177 91 -345 189 -488 61 -88 184 -212 272
-274 91 -65 251 -139 366 -171 l98 -27 4065 0 4065 0 98 27 c413 114 709 422
814 847 15 58 17 171 20 914 l4 847 -5001 0 -5000 0 0 -802z m9710 467 l0 -45
-4720 0 -4720 0 0 45 0 45 4720 0 4720 0 0 -45z m103 -82 l-62 -4 -4 -617 -3
-617 -27 -93 c-93 -319 -279 -502 -606 -595 l-76 -22 -3985 -3 c-2926 -2
-4006 0 -4065 8 -154 22 -297 79 -410 162 -171 127 -264 274 -310 492 l-25
118 0 584 0 583 -62 4 c-35 2 2133 3 4817 3 2684 0 4852 -1 4818 -3z"/>
</g>
</svg>
