<?xml version="1.0" standalone="no"?>
<!DOCTYPE svg PUBLIC "-//W3C//DTD SVG 20010904//EN"
 "http://www.w3.org/TR/2001/REC-SVG-20010904/DTD/svg10.dtd">
<svg version="1.0" xmlns="http://www.w3.org/2000/svg"
 width="2048.000000pt" height="2048.000000pt" viewBox="0 0 2048.000000 2048.000000"
 preserveAspectRatio="xMidYMid meet">
<metadata>
Created by potrace 1.13, written by Peter Selinger 2001-2015
</metadata>
<g transform="translate(0.000000,2048.000000) scale(0.192120,-0.192120)"
fill="#000000" stroke="none">
<path d="M1247 8924 c-399 -72 -737 -366 -862 -751 -55 -168 -55 -163 -55
-1410 l0 -1153 833 0 832 0 0 1665 0 1665 -335 -1 c-242 -1 -357 -5 -413 -15z
m453 -1664 l0 -1380 -545 0 -545 0 2 1108 3 1107 43 88 c74 152 200 276 362
357 156 78 258 98 503 99 l177 1 0 -1380z M2168 8920 c18 -11 37 -20 42 -20 5
0 16 -8 26 -17 16 -17 59 -18 601 -18 418 0 586 3 591 11 4 6 18 15 32 19 14
4 32 13 40 20 8 7 22 15 30 18 8 3 -302 6 -690 6 l-705 1 33 -20z M3660 7275
l0 -1665 835 0 835 0 0 1665 0 1665 -835 0 -835 0 0 -1665z m1400 -15 l0
-1400 -570 0 -570 0 0 1400 0 1400 570 0 570 0 0 -1400z M5608 7135 l2 -1805
-2640 0 -2641 0 4 -1332 c3 -1198 5 -1340 20 -1399 56 -227 149 -396 303 -551
139 -140 316 -242 511 -296 l98 -27 4065 0 4065 0 98 27 c201 56 375 158 518
305 161 165 256 346 301 573 20 100 19 5304 -1 5405 -71 355 -298 646 -626
801 -52 25 -138 57 -192 72 l-98 27 -1895 3 -1895 2 3 -1805z m3812 1503 c292
-72 513 -250 605 -486 l26 -67 -3 -2765 -3 -2765 -30 -70 c-39 -87 -119 -207
-177 -261 -105 -99 -252 -177 -404 -216 l-89 -23 -4010 0 c-3760 0 -4015 1
-4087 17 -304 68 -543 270 -635 538 l-22 65 -1 1227 0 1228 2473 2 2472 3 57
28 c68 33 157 126 184 191 11 25 22 46 27 46 4 0 7 16 7 35 0 19 5 35 10 35 7
0 10 550 10 1630 l0 1630 1763 -3 c1582 -2 1769 -4 1827 -19z M7264 6690 c-73
-11 -131 -40 -199 -99 -84 -73 -135 -151 -135 -206 0 -41 -2 -44 -32 -51 -18
-4 -36 -7 -41 -6 -40 10 -193 -120 -233 -200 l-24 -47 0 -790 c0 -772 0 -790
20 -837 29 -67 85 -140 143 -186 46 -36 55 -39 101 -37 l51 3 17 -62 c23 -85
54 -136 127 -205 71 -68 122 -93 217 -107 91 -13 1296 -13 1389 0 97 14 164
49 229 122 64 70 85 111 95 182 10 72 14 76 69 69 34 -4 58 -1 79 11 53 27
123 108 159 183 l34 72 0 788 c0 893 6 822 -84 928 -61 70 -116 107 -162 107
-66 0 -84 12 -84 56 0 57 -43 132 -115 201 -73 70 -122 95 -215 110 -74 12
-1324 13 -1406 1z m1566 -250 c0 -3 -193 -198 -430 -435 l-430 -430 -433 430
c-238 237 -432 432 -431 435 3 7 1724 7 1724 0z m-1578 -725 l428 -430 -435
-435 -435 -435 0 868 c0 478 3 867 8 865 4 -2 199 -197 434 -433z m1873 -430
c0 -476 -2 -864 -5 -862 -3 1 -197 196 -432 432 l-428 430 428 431 c235 237
429 432 432 433 3 0 5 -388 5 -864z m-1137 67 c53 3 56 1 63 -22 14 -49 10
-99 -8 -108 -31 -16 -138 -21 -156 -7 -19 14 -23 87 -7 130 9 22 13 24 31 15
11 -7 46 -10 77 -8z m851 -1219 c2 -2 -387 -3 -866 -3 l-871 0 432 433 431
432 435 -430 c239 -236 436 -431 439 -432z"/>
</g>
</svg>
