<?xml version="1.0" standalone="no"?>
<!DOCTYPE svg PUBLIC "-//W3C//DTD SVG 20010904//EN"
 "http://www.w3.org/TR/2001/REC-SVG-20010904/DTD/svg10.dtd">
<svg version="1.0" xmlns="http://www.w3.org/2000/svg"
 width="2048.000000pt" height="2048.000000pt" viewBox="0 0 2048.000000 2048.000000"
 preserveAspectRatio="xMidYMid meet">
<metadata>
Created by potrace 1.13, written by Peter Selinger 2001-2015
</metadata>
<g transform="translate(0.000000,2048.000000) scale(0.192120,-0.192120)"
fill="#000000" stroke="none">
<path d="M1320 10324 c-273 -42 -463 -131 -640 -301 -176 -167 -284 -364 -332
-603 -19 -96 -19 -8084 0 -8180 80 -398 361 -723 733 -849 180 -60 -136 -56
4249 -56 3399 0 4036 2 4095 14 398 79 726 367 848 746 55 171 52 -100 52
4235 0 4335 3 4064 -52 4235 -51 157 -132 292 -250 415 -160 169 -333 267
-572 328 -61 15 -367 16 -4086 18 -2211 1 -4031 0 -4045 -2z m8089 -287 c294
-72 494 -221 609 -457 l37 -75 0 -4165 0 -4165 -28 -69 c-120 -296 -384 -481
-736 -516 -74 -8 -1306 -10 -4041 -8 -3625 4 -3940 5 -4000 20 -335 86 -565
286 -649 564 -21 68 -21 81 -19 992 l3 922 85 -84 c95 -92 155 -128 245 -146
44 -8 543 -10 1870 -8 l1810 3 85 23 c164 44 303 129 413 255 56 63 85 82 104
68 5 -3 31 -39 57 -79 100 -149 217 -240 337 -262 37 -7 655 -10 1870 -8
l1814 3 80 22 c44 13 123 44 175 70 80 39 109 60 186 137 124 125 202 260 264
458 19 61 20 101 20 1645 l0 1581 -31 94 c-43 133 -91 226 -158 310 -135 170
-267 258 -464 310 l-82 23 -1754 2 c-1164 2 -1773 0 -1810 -7 -91 -16 -168
-61 -254 -147 -63 -62 -86 -95 -119 -163 -22 -47 -45 -96 -51 -109 -16 -32
-33 -37 -51 -14 -196 243 -292 324 -460 385 -163 59 -112 58 -1981 58 -1863 0
-1794 2 -1894 -56 -68 -40 -191 -169 -239 -251 l-42 -71 0 -140 c0 -112 3
-142 15 -152 8 -7 15 -18 15 -24 0 -20 75 -129 128 -188 59 -64 130 -112 199
-136 44 -15 196 -17 1688 -22 l1640 -5 3 -1279 c2 -1017 0 -1281 -10 -1288 -7
-4 -740 -8 -1628 -8 -921 0 -1650 -4 -1695 -9 -126 -15 -180 -40 -280 -131
-48 -44 -91 -80 -96 -80 -5 0 -9 1180 -9 2890 l0 2891 21 62 c63 189 239 375
443 467 83 38 192 68 287 79 41 5 1846 8 4039 7 3772 -1 3969 -2 4039 -19z
m-4744 -2811 c232 -69 363 -207 427 -448 l22 -83 4 -1455 c3 -1523 2 -1572
-40 -1710 -62 -204 -198 -334 -413 -397 -56 -17 -178 -18 -1905 -21 -1313 -2
-1856 0 -1883 8 -94 27 -149 121 -148 255 0 92 16 143 59 189 62 66 -84 60
1862 66 l1766 5 49 25 c38 20 55 37 75 75 l25 49 0 1396 0 1395 -25 50 c-20
40 -35 55 -75 75 l-50 25 -1715 5 c-1865 5 -1744 1 -1808 63 -59 57 -80 194
-46 306 18 61 72 121 124 138 25 8 539 11 1835 9 1704 -1 1803 -2 1860 -20z
m4670 1 c229 -68 361 -200 425 -427 38 -135 41 -305 37 -1740 -3 -1347 -4
-1366 -24 -1458 -57 -248 -194 -398 -428 -468 -57 -18 -159 -19 -1916 -21
l-1856 -3 -53 27 c-72 38 -109 103 -117 206 -10 127 28 216 110 260 l42 22
1770 5 c1703 5 1771 6 1808 24 47 23 83 66 97 114 14 51 14 2773 0 2824 -14
48 -55 96 -100 117 -32 14 -200 16 -1755 21 l-1720 5 -42 23 c-84 44 -126 161
-103 290 13 76 27 107 68 145 63 60 -52 56 1902 54 1687 -2 1799 -3 1855 -20z
m-3955 -535 c0 -16 132 -142 175 -167 109 -64 -21 -59 1775 -65 l1635 -5 3
-1279 c2 -1017 0 -1281 -10 -1288 -7 -4 -740 -8 -1628 -8 -964 0 -1649 -4
-1698 -10 -88 -10 -166 -39 -227 -86 l-35 -26 0 31 c0 17 -4 31 -10 31 -11 0
-15 2817 -4 2858 6 20 24 32 24 14z"/>
</g>
</svg>
