<?xml version="1.0" standalone="no"?>
<!DOCTYPE svg PUBLIC "-//W3C//DTD SVG 20010904//EN"
 "http://www.w3.org/TR/2001/REC-SVG-20010904/DTD/svg10.dtd">
<svg version="1.0" xmlns="http://www.w3.org/2000/svg"
 width="2048.000000pt" height="2048.000000pt" viewBox="0 0 2048.000000 2048.000000"
 preserveAspectRatio="xMidYMid meet">
<metadata>
Created by potrace 1.13, written by Peter Selinger 2001-2015
</metadata>
<g transform="translate(0.000000,2048.000000) scale(0.192120,-0.192120)"
fill="#000000" stroke="none">
<path d="M1320 10324 c-273 -42 -463 -131 -640 -301 -176 -167 -284 -364 -332
-603 -19 -96 -19 -8084 0 -8180 44 -218 140 -404 289 -560 167 -175 365 -284
603 -332 100 -20 8084 -19 8185 1 451 90 796 436 887 891 19 96 19 8084 0
8180 -45 223 -141 407 -298 570 -156 162 -327 258 -563 318 -61 15 -367 16
-4086 18 -2211 1 -4031 0 -4045 -2z m8100 -288 c291 -70 510 -243 609 -481
l31 -74 -2 -4158 -3 -4158 -31 -70 c-124 -285 -380 -467 -709 -505 -73 -8
-1175 -10 -4055 -8 l-3955 3 -96 26 c-182 51 -356 157 -458 279 -58 70 -126
191 -152 272 -19 60 -19 133 -19 4173 0 4069 0 4112 20 4169 98 285 392 506
725 545 39 5 1859 8 4045 7 3800 -1 3978 -2 4050 -20z M3610 8914 c-30 -8 -79
-29 -109 -47 -78 -47 -211 -191 -262 -284 -137 -253 -338 -561 -485 -744 -181
-225 -330 -378 -567 -579 -112 -95 -230 -235 -273 -325 -31 -64 -34 -77 -34
-164 0 -65 5 -110 17 -141 18 -49 81 -151 132 -214 17 -21 31 -47 31 -58 0
-11 -24 -45 -53 -76 -99 -107 -137 -155 -162 -208 -23 -48 -25 -64 -25 -192
l0 -140 42 -83 c49 -99 153 -211 233 -252 79 -40 147 -47 442 -47 l273 0 0
-370 0 -370 -193 0 c-294 0 -351 -17 -482 -142 -58 -54 -84 -89 -115 -150
l-40 -80 0 -124 c0 -68 4 -132 8 -142 60 -123 86 -164 145 -228 114 -122 204
-152 465 -154 83 0 91 -7 71 -67 -20 -63 -136 -305 -182 -384 -105 -177 -170
-269 -362 -513 -48 -60 -105 -146 -128 -190 -42 -81 -42 -81 -42 -191 0 -102
2 -114 29 -165 74 -142 185 -263 286 -311 191 -92 379 -48 562 133 189 186
466 604 640 965 68 143 79 168 123 298 35 101 34 220 -1 321 -15 40 -24 80
-21 89 5 13 36 15 202 15 l195 0 0 -28 c0 -16 -11 -52 -25 -80 -23 -48 -25
-62 -25 -199 0 -108 7 -191 25 -307 28 -174 60 -477 70 -651 12 -198 61 -326
172 -446 112 -121 211 -164 354 -156 128 7 207 45 305 150 50 54 86 103 112
155 l37 77 3 188 c4 208 -16 411 -68 723 -46 276 -81 416 -121 496 -5 10 -9
31 -9 48 l0 30 330 0 330 0 0 -29 c0 -16 -9 -50 -20 -76 -15 -36 -20 -68 -20
-143 0 -107 2 -114 103 -462 65 -223 120 -445 152 -610 33 -173 80 -272 177
-376 138 -147 279 -184 463 -123 81 27 159 82 225 161 51 62 73 98 113 191 27
60 23 229 -8 376 -48 226 -154 578 -261 868 -35 95 -64 183 -64 198 l0 25 360
0 c323 0 361 -2 367 -16 3 -9 -4 -44 -15 -79 -16 -46 -22 -87 -22 -153 0 -152
4 -159 306 -612 111 -166 198 -311 297 -498 42 -78 91 -164 108 -190 174 -257
393 -343 603 -238 117 59 212 162 278 302 37 79 38 86 38 190 0 107 0 108 -51
226 -84 196 -225 434 -424 715 -55 78 -117 166 -137 195 -53 75 -80 128 -74
144 4 10 26 14 83 14 144 1 259 17 319 44 85 39 181 142 235 251 l44 88 3 134
4 134 -36 76 c-28 58 -55 94 -114 153 -127 126 -175 140 -473 140 l-199 0 0
370 0 370 283 0 c161 0 309 5 343 11 154 28 297 166 365 352 15 40 19 79 19
169 0 112 -1 119 -35 192 -47 101 -156 213 -252 259 l-68 32 -327 3 -328 3 0
353 0 353 183 6 c122 3 198 10 231 21 110 34 224 145 289 282 30 66 32 76 35
205 3 135 3 135 -29 205 -46 96 -179 231 -264 265 l-60 24 -2033 3 -2033 2
-10 23 c-8 18 -6 35 11 78 61 153 70 184 70 258 0 107 -49 206 -155 313 -136
137 -285 185 -445 142z m250 -256 c144 -66 186 -190 109 -327 -51 -89 -179
-277 -267 -390 -45 -58 -80 -106 -78 -108 2 -2 86 1 187 7 117 6 952 10 2299
10 2041 0 2117 -1 2150 -19 19 -10 48 -39 64 -65 26 -41 30 -60 34 -134 2 -49
-1 -106 -7 -130 -16 -56 -70 -115 -119 -130 -26 -8 -142 -12 -351 -12 l-311 0
0 -616 0 -615 458 2 c505 2 491 3 546 -61 63 -75 74 -241 22 -336 -14 -27 -43
-60 -63 -74 l-37 -25 -463 -3 -463 -3 0 -629 0 -630 366 0 c361 0 367 0 406
-22 63 -36 91 -94 96 -199 5 -107 -13 -171 -65 -223 -20 -20 -53 -41 -74 -46
-24 -7 -1054 -9 -3006 -8 l-2969 3 -41 27 c-65 43 -88 101 -88 223 0 108 15
154 67 202 44 41 65 43 451 43 l372 0 0 630 0 630 -453 0 c-499 0 -493 -1
-549 63 -43 49 -58 98 -58 192 0 104 32 180 94 221 l42 27 461 1 462 1 -3 220
c-3 253 11 482 40 674 11 73 18 135 16 137 -2 2 -28 -24 -58 -58 -88 -103
-255 -272 -404 -411 -165 -153 -231 -192 -330 -191 -187 0 -312 205 -229 373
15 28 42 64 61 79 324 249 620 549 850 862 150 203 286 422 405 647 73 139
120 193 183 213 55 17 184 6 245 -22z m-1050 -2218 c0 -47 -1 -49 -22 -41 -31
11 -34 38 -7 67 12 13 24 24 26 24 2 0 3 -22 3 -50z m389 -2871 c94 -21 186
-89 212 -156 15 -40 10 -119 -11 -173 -135 -343 -381 -758 -627 -1057 -118
-144 -196 -193 -308 -193 -208 0 -361 191 -285 357 10 24 63 91 116 150 120
132 243 297 330 440 73 119 194 356 243 474 64 153 155 197 330 158z m4426
-10 c38 -20 71 -51 138 -135 230 -286 538 -761 652 -1005 65 -140 8 -287 -140
-360 -52 -25 -76 -31 -129 -31 -73 1 -144 27 -189 70 -15 14 -66 99 -112 189
-173 331 -330 585 -518 837 -76 103 -98 139 -107 180 -24 115 48 224 179 273
58 21 167 13 226 -18z m-1588 -18 c70 -35 90 -74 199 -396 130 -379 238 -803
232 -901 -7 -112 -83 -188 -219 -218 -120 -28 -194 -17 -255 36 -51 45 -62 73
-89 227 -43 244 -115 523 -227 875 -53 167 -60 224 -34 273 17 33 60 75 96 93
85 44 223 49 297 11z m-1549 4 c65 -20 116 -64 136 -118 59 -159 183 -1024
174 -1213 -2 -54 -9 -79 -27 -105 -55 -81 -158 -124 -279 -117 -160 10 -242
94 -242 250 0 201 -52 637 -127 1073 -7 43 13 108 44 145 31 37 90 69 158 86
69 17 103 17 163 -1z M3590 6745 l0 -615 410 0 410 0 0 615 0 615 -410 0 -410
0 0 -615z m550 -4 l0 -348 -46 -7 c-26 -3 -93 -6 -150 -6 l-104 0 0 355 0 355
150 0 150 0 0 -349z M4900 6745 l0 -615 416 2 416 3 1 613 2 612 -417 0 -418
0 0 -615z m560 -5 l0 -350 -155 0 -155 0 0 350 0 350 155 0 155 0 0 -350z
M6220 6745 l0 -615 425 0 425 0 0 615 0 615 -425 0 -425 0 0 -615z m580 -10
l0 -355 -43 0 c-24 0 -99 3 -165 7 l-122 6 0 349 0 348 165 0 165 0 0 -355z
M3590 5000 l0 -630 410 0 410 0 0 630 0 630 -410 0 -410 0 0 -630z m550 -10
l0 -370 -150 0 -150 0 0 370 0 370 150 0 150 0 0 -370z M4900 5000 l0 -630
418 0 417 0 0 630 0 630 -417 0 -418 0 0 -630z m560 -10 l0 -370 -155 0 -155
0 0 370 0 370 155 0 155 0 0 -370z M6220 5000 l0 -630 425 0 425 0 0 630 0
630 -425 0 -425 0 0 -630z m580 -10 l0 -370 -165 0 -165 0 0 370 0 370 165 0
165 0 0 -370z"/>
</g>
</svg>
