<?xml version="1.0" standalone="no"?>
<!DOCTYPE svg PUBLIC "-//W3C//DTD SVG 20010904//EN"
 "http://www.w3.org/TR/2001/REC-SVG-20010904/DTD/svg10.dtd">
<svg version="1.0" xmlns="http://www.w3.org/2000/svg"
 width="2048.000000pt" height="2048.000000pt" viewBox="0 0 2048.000000 2048.000000"
 preserveAspectRatio="xMidYMid meet">
<metadata>
Created by potrace 1.13, written by Peter Selinger 2001-2015
</metadata>
<g transform="translate(0.000000,2048.000000) scale(0.192120,-0.192120)"
fill="#000000" stroke="none">
<path d="M1320 10324 c-272 -41 -463 -131 -640 -301 -176 -167 -284 -364 -332
-603 -19 -96 -19 -8084 0 -8180 80 -398 361 -723 733 -849 180 -60 -136 -56
4249 -56 3399 0 4036 2 4095 14 398 79 726 367 848 746 55 171 52 -100 52
4235 0 4335 3 4064 -52 4235 -51 157 -132 292 -250 415 -175 184 -378 293
-627 335 -78 13 -557 15 -4070 14 -2189 -1 -3992 -3 -4006 -5z m8099 -298
c285 -69 504 -240 600 -469 l31 -76 -2 -4158 -3 -4158 -33 -75 c-75 -171 -208
-311 -377 -396 -110 -54 -196 -80 -323 -94 -69 -8 -1242 -10 -4052 -8 l-3955
3 -96 27 c-232 64 -415 197 -524 381 -27 45 -59 111 -72 147 l-22 65 -1 4116
c0 4110 0 4116 20 4175 95 274 383 490 712 533 35 5 1854 8 4043 7 3800 -1
3983 -2 4054 -20z M3665 8897 c-80 -27 -131 -62 -210 -142 -117 -121 -165
-230 -165 -375 0 -70 -2 -79 -20 -85 -15 -5 -20 -15 -20 -41 l0 -34 -402 0
c-500 -1 -584 -7 -673 -49 -83 -38 -212 -166 -256 -252 -28 -56 -29 -64 -29
-191 0 -127 1 -136 30 -197 53 -112 168 -235 265 -284 55 -28 146 -37 357 -37
233 0 238 -1 203 -66 -47 -87 -349 -345 -630 -539 -165 -114 -280 -235 -344
-361 -29 -57 -31 -69 -31 -165 0 -101 1 -105 42 -186 50 -101 114 -182 193
-245 141 -114 301 -120 480 -18 135 77 385 285 633 525 95 92 163 151 178 152
l24 4 0 -153 c0 -84 3 -210 7 -279 l6 -127 -109 -6 c-129 -8 -209 -26 -267
-63 -73 -45 -186 -171 -223 -248 -33 -67 -34 -73 -34 -194 l0 -125 42 -85 c33
-66 62 -106 135 -181 51 -54 93 -102 93 -108 0 -23 -82 -32 -285 -32 -277 -1
-401 -12 -470 -44 -80 -36 -218 -173 -261 -258 -34 -67 -34 -68 -34 -207 l0
-139 40 -80 c45 -89 125 -182 203 -236 93 -64 116 -66 637 -66 256 0 471 -4
479 -9 28 -18 0 -65 -92 -156 -164 -163 -373 -325 -684 -533 -249 -167 -345
-259 -414 -397 -40 -80 -41 -80 -37 -181 3 -95 5 -105 45 -185 107 -215 284
-349 462 -349 126 0 234 47 471 206 444 296 950 752 1142 1029 40 58 89 151
112 213 21 55 21 210 1 275 -10 35 -12 54 -4 68 9 18 24 19 269 19 l260 0 0
-445 0 -445 -27 -11 c-37 -14 -235 3 -428 36 -182 31 -208 31 -303 -1 -123
-41 -225 -136 -300 -279 -35 -68 -36 -74 -40 -196 l-4 -126 39 -78 c75 -153
211 -280 345 -324 171 -55 362 -76 698 -76 299 0 388 11 539 61 249 83 449
309 520 586 33 128 41 283 41 794 l0 492 23 6 c12 3 126 6 254 6 220 0 233 -1
243 -20 7 -14 6 -31 -5 -62 -9 -28 -15 -81 -15 -151 0 -91 4 -117 24 -166 48
-118 183 -297 343 -452 443 -432 1010 -832 1297 -914 95 -28 197 -17 290 28
106 53 206 161 272 294 49 97 49 99 52 211 4 108 3 115 -27 179 -67 142 -182
253 -388 372 -414 241 -875 613 -824 664 9 9 148 13 494 17 l482 5 59 27 c69
33 191 150 227 218 62 118 69 146 69 277 0 120 -1 126 -35 196 -41 87 -158
213 -233 251 -86 43 -124 48 -449 55 -391 8 -381 3 -261 122 146 146 193 254
186 434 -4 100 -7 116 -38 180 -45 94 -172 223 -256 262 -51 23 -78 28 -209
36 -215 13 -198 5 -190 85 3 37 8 169 11 295 7 297 -2 290 176 123 377 -353
717 -593 911 -642 212 -55 429 89 539 358 25 62 28 83 28 175 0 98 -2 109 -34
176 -38 83 -137 202 -217 264 -30 23 -103 72 -164 109 -250 152 -514 344 -603
437 -23 24 -33 42 -30 58 l3 24 250 5 250 5 69 33 c98 46 190 142 247 258 l44
87 3 127 4 127 -35 69 c-41 80 -136 189 -204 232 -102 64 -105 65 -680 70
l-523 4 0 33 c0 20 -6 35 -15 39 -11 4 -15 23 -15 78 -1 152 -50 265 -167 384
-52 54 -91 84 -140 107 -63 29 -76 32 -169 32 -96 0 -103 -2 -176 -38 -60 -29
-93 -55 -154 -120 -115 -121 -154 -210 -154 -350 0 -77 -2 -86 -20 -92 -15 -5
-20 -15 -20 -41 l0 -34 -287 0 c-340 0 -490 -11 -553 -38 -25 -11 -72 -40
-105 -64 -108 -81 -114 -81 -214 -3 -116 91 -189 104 -588 105 l-233 0 0 35
c0 22 -6 38 -15 41 -12 5 -15 25 -15 90 0 157 -48 269 -166 387 -103 103 -161
130 -284 134 -60 2 -110 -2 -135 -10z m215 -243 c40 -8 98 -51 117 -86 16 -29
19 -70 23 -321 l5 -287 460 -3 c519 -2 511 -1 563 -80 24 -35 27 -53 30 -134
4 -85 1 -99 -23 -148 -17 -36 -39 -62 -63 -77 -37 -23 -41 -23 -429 -28 l-392
-5 92 -115 c172 -217 433 -459 655 -609 135 -91 172 -142 172 -235 0 -131
-107 -236 -238 -236 -95 0 -170 48 -354 228 -216 211 -365 399 -494 622 -36
63 -64 104 -61 90 3 -14 15 -79 26 -145 44 -257 51 -362 51 -794 l0 -414 -25
-43 c-38 -65 -96 -89 -215 -89 -88 0 -99 2 -150 31 -39 22 -61 43 -77 74 -23
43 -23 48 -23 410 0 468 11 600 76 945 3 18 -15 -8 -46 -65 -222 -406 -627
-849 -1094 -1197 -159 -119 -226 -142 -328 -111 -52 15 -131 87 -158 144 -18
37 -21 58 -18 118 5 108 27 135 201 250 443 292 786 610 1083 1006 52 68 94
128 94 132 0 4 -251 9 -558 10 l-559 3 -36 28 c-61 46 -81 97 -81 202 0 73 4
98 22 132 26 50 62 79 113 93 25 7 256 10 664 8 l625 -3 0 273 c0 286 4 317
48 365 54 60 179 85 302 61z m3017 -19 c59 -18 106 -65 122 -122 6 -22 11
-147 11 -298 l0 -260 655 3 c437 2 669 -1 695 -8 90 -24 139 -100 140 -216 0
-83 -20 -147 -58 -188 -54 -57 -41 -56 -672 -56 -319 0 -580 -3 -580 -6 0 -16
201 -242 322 -361 268 -265 575 -496 948 -712 69 -40 137 -84 152 -98 95 -90
88 -278 -14 -382 -50 -51 -103 -73 -174 -73 -82 0 -135 25 -323 152 -455 309
-852 710 -1101 1113 -36 58 -66 104 -68 102 -2 -1 10 -85 27 -186 17 -101 35
-245 41 -318 13 -173 13 -804 0 -852 -5 -19 -24 -50 -42 -68 -49 -50 -91 -64
-193 -65 -106 0 -169 24 -213 82 l-27 35 0 491 c0 487 1 492 27 651 15 88 30
178 34 200 5 35 -2 26 -55 -68 -145 -257 -334 -500 -558 -718 -187 -182 -452
-388 -565 -439 -146 -67 -312 48 -312 215 0 106 38 155 192 250 352 216 723
577 990 964 l63 91 -441 0 c-489 0 -483 -1 -537 65 -53 63 -68 172 -38 272 18
60 65 107 124 123 26 7 218 10 553 10 l513 -1 5 283 c5 294 7 303 52 344 67
61 195 82 305 49z m-1605 -1306 c119 -96 190 -119 367 -119 134 0 146 -8 108
-73 -49 -83 -349 -347 -436 -384 -19 -8 -44 -12 -57 -9 -12 3 -68 53 -125 111
-56 57 -127 124 -157 147 -116 91 -143 115 -167 148 -32 44 -22 54 68 68 85
13 133 37 221 107 38 31 79 55 92 55 12 0 51 -23 86 -51z m-944 -1012 c109
-100 136 -124 190 -164 91 -68 166 -103 262 -123 49 -10 98 -24 108 -32 28
-19 172 -199 172 -214 0 -30 -74 -35 -455 -32 l-380 3 4 285 c2 157 8 293 13
303 14 27 35 21 86 -26z m1954 -267 c3 -146 4 -273 1 -283 -4 -17 -22 -18
-312 -15 -317 3 -348 7 -334 44 3 8 49 47 102 87 125 94 207 165 364 313 182
173 170 182 179 -146z m1319 -583 c34 -18 51 -36 74 -82 26 -50 30 -69 30
-139 0 -101 -22 -162 -76 -210 -28 -26 -48 -36 -72 -36 -17 0 -1050 0 -2295 0
-2490 0 -2295 -5 -2342 61 -66 92 -66 266 0 359 13 18 41 41 64 51 40 18 119
19 2307 19 l2266 0 44 -23z m772 -1031 c48 -18 73 -40 100 -91 18 -33 22 -57
22 -140 0 -120 -23 -180 -85 -221 l-37 -25 -1382 -2 -1381 -2 -3 -730 c-3
-715 -3 -732 -25 -808 -42 -151 -113 -244 -238 -309 -137 -72 -296 -98 -599
-98 -282 0 -530 27 -695 76 -99 29 -180 135 -180 236 0 45 41 146 76 186 19
22 55 50 80 62 54 27 99 24 278 -14 156 -33 337 -50 461 -43 159 10 222 36
254 106 14 32 16 110 19 689 l3 652 -1410 0 c-1242 -1 -1413 1 -1439 14 -106
55 -144 236 -78 370 27 54 57 82 105 96 14 5 1396 8 3071 9 2544 0 3051 -2
3083 -13z m-4518 -767 c53 -16 78 -31 120 -72 80 -78 93 -152 43 -252 -58
-113 -438 -493 -733 -731 -226 -182 -515 -383 -642 -445 -187 -93 -406 28
-421 233 -4 48 0 67 22 112 31 63 60 90 159 148 367 212 829 580 1089 866 146
160 215 187 363 141z m3118 -22 c45 -20 94 -62 216 -180 304 -296 693 -582
1025 -754 49 -25 108 -65 132 -88 102 -103 90 -254 -30 -375 -99 -101 -214
-111 -368 -34 -347 174 -759 486 -1129 854 -222 221 -254 262 -265 343 -27
193 215 329 419 234z"/>
</g>
</svg>
