<?xml version="1.0" standalone="no"?>
<!DOCTYPE svg PUBLIC "-//W3C//DTD SVG 20010904//EN"
 "http://www.w3.org/TR/2001/REC-SVG-20010904/DTD/svg10.dtd">
<svg version="1.0" xmlns="http://www.w3.org/2000/svg"
 width="2048.000000pt" height="2048.000000pt" viewBox="0 0 2048.000000 2048.000000"
 preserveAspectRatio="xMidYMid meet">
<metadata>
Created by potrace 1.13, written by Peter Selinger 2001-2015
</metadata>
<g transform="translate(0.000000,2048.000000) scale(0.192120,-0.192120)"
fill="#000000" stroke="none">
<path d="M1320 10324 c-272 -41 -463 -131 -640 -301 -176 -167 -284 -364 -332
-603 -19 -96 -19 -8084 0 -8180 80 -398 361 -723 733 -849 180 -60 -136 -56
4249 -56 3399 0 4036 2 4095 14 398 79 726 367 848 746 55 171 52 -100 52
4235 0 4335 3 4064 -52 4235 -51 157 -132 292 -250 415 -175 184 -378 293
-627 335 -78 13 -557 15 -4070 14 -2189 -1 -3992 -3 -4006 -5z m8099 -298
c285 -69 504 -240 600 -469 l31 -76 -2 -4158 -3 -4158 -33 -75 c-75 -171 -208
-311 -377 -396 -110 -54 -196 -80 -323 -94 -69 -8 -1242 -10 -4052 -8 l-3955
3 -96 27 c-232 64 -415 197 -524 381 -27 45 -59 111 -72 147 l-22 65 -1 4116
c0 4110 0 4116 20 4175 95 274 383 490 712 533 35 5 1854 8 4043 7 3800 -1
3983 -2 4054 -20z M5005 8907 c-80 -27 -131 -62 -210 -142 -119 -122 -165
-230 -165 -385 0 -79 -2 -88 -20 -93 -15 -4 -20 -14 -20 -41 l0 -36 -253 0
c-349 0 -388 -9 -526 -119 -41 -33 -83 -62 -92 -64 -28 -7 -65 17 -168 111
-273 250 -633 522 -808 611 -183 92 -337 79 -487 -42 -85 -67 -160 -157 -204
-241 -36 -70 -37 -73 -37 -186 0 -129 8 -154 90 -280 61 -95 142 -172 326
-310 182 -137 276 -214 454 -370 166 -146 219 -186 296 -225 185 -94 350 -63
513 94 111 107 109 107 187 69 108 -52 143 -57 436 -64 l273 -7 0 -117 0 -118
-392 -5 c-437 -5 -455 -7 -556 -74 -68 -46 -166 -155 -209 -234 -32 -59 -33
-64 -33 -176 l0 -115 -24 4 c-16 3 -27 0 -30 -9 -4 -9 -37 12 -108 70 -251
204 -599 448 -755 530 -198 104 -347 111 -491 24 -86 -51 -207 -185 -250 -275
-36 -75 -37 -80 -37 -192 0 -128 4 -142 80 -260 64 -100 158 -187 326 -301
215 -145 366 -259 569 -427 272 -226 342 -264 485 -265 185 0 340 117 453 342
l47 94 0 146 c0 91 4 146 10 146 6 -1 35 -10 65 -20 52 -19 95 -20 923 -23
l867 -3 0 -24 0 -25 -512 0 c-504 0 -743 -12 -794 -38 -11 -5 -57 -21 -104
-36 -105 -32 -187 -84 -285 -183 -118 -117 -175 -212 -216 -359 -20 -70 -23
-109 -27 -331 -2 -139 -8 -253 -12 -253 -5 0 -12 6 -17 13 -5 7 -10 -2 -13
-26 l-5 -38 -60 51 c-112 96 -225 137 -348 127 -108 -9 -182 -50 -292 -161
-105 -106 -133 -158 -215 -391 -159 -455 -358 -888 -615 -1340 -53 -93 -124
-226 -158 -295 l-62 -125 0 -125 c0 -121 1 -127 33 -192 45 -92 140 -209 213
-263 93 -68 155 -89 275 -89 96 -1 103 1 175 36 87 43 179 127 250 228 151
214 481 870 689 1371 60 142 97 216 115 222 40 16 40 22 45 -780 4 -517 10
-779 17 -803 39 -124 89 -205 181 -292 99 -93 182 -127 308 -128 176 0 340
117 432 309 20 41 40 95 45 120 6 25 13 244 16 486 5 366 9 444 21 463 24 36
26 35 98 -78 134 -209 291 -310 523 -340 50 -6 341 -10 732 -10 735 0 671 9
647 -89 -8 -31 -15 -106 -17 -167 -4 -91 -1 -120 15 -162 48 -125 197 -294
304 -345 101 -48 286 -74 593 -84 305 -9 487 18 642 94 180 88 338 282 414
508 l24 70 0 1410 0 1410 -34 80 c-44 103 -90 173 -171 258 -97 103 -174 154
-304 199 -175 61 -262 68 -928 68 l-568 0 0 25 0 25 928 0 c563 0 954 4 997
10 116 17 207 75 297 190 81 103 108 183 108 329 0 109 -1 117 -34 185 -38 78
-141 194 -212 239 -94 59 -107 60 -626 65 l-478 4 0 117 0 118 353 6 c376 7
417 12 500 61 55 31 155 138 191 202 56 99 66 140 66 266 0 111 -2 122 -32
185 -38 82 -177 227 -249 260 -79 37 -149 43 -496 43 l-333 0 0 35 c0 22 -6
38 -15 41 -12 5 -15 25 -15 95 0 178 -45 276 -190 417 -127 123 -311 152 -479
76 -75 -34 -219 -179 -253 -254 -44 -99 -50 -124 -55 -227 -5 -88 -8 -102 -24
-106 -14 -4 -19 -14 -19 -41 l0 -36 -435 0 -435 0 0 35 c0 22 -6 38 -15 41
-12 5 -15 25 -15 95 0 162 -46 272 -166 393 -50 51 -93 84 -140 107 -60 30
-78 34 -163 36 -60 2 -111 -2 -136 -10z m226 -247 c57 -16 102 -51 127 -100
21 -43 22 -54 22 -327 l0 -283 709 0 709 0 -5 258 c-7 295 -1 341 50 390 114
111 390 84 443 -43 11 -27 14 -96 14 -320 l0 -285 508 0 509 0 44 -23 c34 -17
51 -36 72 -77 26 -51 28 -62 25 -146 -3 -81 -7 -98 -33 -140 -19 -29 -45 -55
-70 -68 -39 -21 -52 -21 -548 -21 l-507 0 0 -392 0 -393 613 0 c416 0 625 -4
652 -11 84 -23 135 -111 135 -231 0 -106 -37 -179 -110 -215 l-44 -23 -1113 0
-1113 0 0 -307 0 -308 793 0 c735 0 798 -1 872 -18 217 -51 335 -166 380 -372
14 -62 15 -224 13 -1375 -3 -1212 -4 -1309 -21 -1365 -60 -206 -184 -322 -403
-377 -83 -21 -110 -23 -374 -22 -415 1 -611 29 -689 99 -58 53 -84 123 -79
210 8 123 75 218 174 245 38 11 58 10 147 -8 198 -41 438 -60 550 -43 97 14
137 37 167 97 l25 49 0 1155 c0 1098 -1 1157 -18 1188 -12 21 -34 41 -61 52
-39 18 -85 19 -759 22 l-717 3 0 -889 0 -888 213 4 c190 3 217 6 247 24 72 41
70 26 70 629 0 328 4 554 10 576 30 108 184 167 326 124 57 -17 126 -71 143
-113 9 -21 11 -199 9 -693 -3 -649 -4 -665 -25 -720 -11 -31 -28 -69 -36 -85
-25 -48 -95 -111 -154 -139 -115 -55 -133 -56 -1079 -53 l-869 3 -67 23 c-126
42 -208 120 -248 236 -36 101 -41 217 -38 827 l3 585 28 42 c17 27 46 52 80
69 45 24 64 28 137 28 104 0 166 -26 211 -88 l29 -40 0 -527 c0 -536 5 -616
38 -653 40 -44 68 -50 270 -55 l192 -5 0 889 0 889 -667 -3 c-736 -3 -710 -1
-757 -65 -21 -28 -21 -33 -26 -1500 -5 -1389 -6 -1474 -23 -1505 -24 -44 -87
-88 -148 -102 -72 -17 -194 -8 -245 18 -53 27 -101 83 -109 124 -3 18 -4 724
-3 1568 3 1391 5 1539 20 1581 64 182 158 267 353 321 79 22 85 22 842 23
l763 0 0 308 0 307 -1012 0 c-634 0 -1026 4 -1048 10 -43 12 -93 61 -114 112
-19 45 -21 164 -4 221 16 54 73 112 123 126 27 7 217 11 580 11 l540 0 -2 392
-2 392 -438 0 -438 1 -43 25 c-68 38 -95 94 -100 201 -4 77 -1 93 21 141 17
39 36 62 63 79 l39 24 448 5 449 5 -1 267 c-1 174 2 283 10 310 13 50 70 109
120 125 44 14 184 16 230 3z m-2616 -113 c71 -26 421 -276 620 -442 162 -135
344 -307 374 -353 58 -91 66 -206 19 -298 -27 -55 -65 -89 -137 -122 -45 -21
-64 -24 -125 -20 -97 7 -139 30 -271 153 -231 214 -451 392 -685 554 -58 40
-115 85 -127 100 -36 42 -56 116 -50 181 6 68 25 107 80 167 84 91 195 121
302 80z m-320 -1783 c151 -51 650 -403 1008 -711 122 -105 150 -154 151 -258
0 -54 -5 -80 -22 -112 -33 -64 -79 -111 -136 -141 -43 -22 -64 -27 -131 -27
-102 0 -115 8 -275 148 -231 203 -512 414 -775 582 -158 100 -185 132 -192
228 -11 134 72 260 197 298 43 13 127 10 175 -7z m2415 -1941 c0 -24 -31 -74
-72 -115 -17 -17 -18 -15 -18 62 l0 80 45 0 c42 0 45 -2 45 -27z m819 -75 c0
-57 -3 -96 -6 -88 -3 8 -16 25 -29 39 -34 36 -77 120 -70 136 4 11 21 15 56
15 l50 0 -1 -102z m1204 69 c-1 -15 -10 -40 -21 -55 -17 -24 -65 -115 -95
-179 -5 -12 -16 -24 -23 -27 -11 -4 -14 22 -14 145 l0 150 78 -3 77 -3 -2 -28z
m865 -974 l-3 -1008 -79 -3 c-63 -2 -82 0 -98 15 -22 20 -18 51 11 92 10 14
32 53 49 86 28 55 39 81 71 158 8 20 11 228 11 732 0 788 8 694 -74 829 -35
58 -43 86 -29 99 3 4 37 7 75 7 l68 0 -2 -1007z m-4283 685 c61 -32 119 -90
140 -140 36 -88 18 -168 -125 -553 -194 -520 -442 -1053 -678 -1458 -141 -242
-182 -278 -322 -285 -178 -9 -322 112 -322 270 0 72 9 96 87 223 311 505 614
1154 795 1699 58 175 88 222 165 258 60 28 192 21 260 -14z M5380 7083 l0
-393 708 0 707 0 -1 391 -2 391 -706 1 -706 2 0 -392z m1130 -13 l0 -120 -435
0 -435 0 0 120 0 120 435 0 435 0 0 -120z"/>
</g>
</svg>
