<?xml version="1.0" standalone="no"?>
<!DOCTYPE svg PUBLIC "-//W3C//DTD SVG 20010904//EN"
 "http://www.w3.org/TR/2001/REC-SVG-20010904/DTD/svg10.dtd">
<svg version="1.0" xmlns="http://www.w3.org/2000/svg"
 width="2048.000000pt" height="2048.000000pt" viewBox="0 0 2048.000000 2048.000000"
 preserveAspectRatio="xMidYMid meet">
<metadata>
Created by potrace 1.13, written by Peter Selinger 2001-2015
</metadata>
<g transform="translate(0.000000,2048.000000) scale(0.192120,-0.192120)"
fill="#000000" stroke="none">
<path d="M5065 10323 c-462 -27 -896 -110 -1313 -249 -229 -76 -385 -140 -627
-259 -1297 -635 -2260 -1811 -2630 -3209 -269 -1020 -205 -2121 182 -3106 398
-1015 1140 -1892 2079 -2456 1063 -638 2330 -859 3544 -618 449 89 821 215
1235 419 1461 718 2487 2110 2734 3710 45 292 55 427 55 775 0 348 -10 483
-55 775 -159 1030 -649 1997 -1390 2745 -387 390 -807 695 -1304 945 -611 308
-1241 479 -1930 525 -137 9 -457 11 -580 3z m745 -288 c1122 -113 2141 -594
2925 -1379 710 -711 1162 -1610 1310 -2603 22 -151 22 -1298 0 -1441 -140
-890 -480 -1647 -1053 -2342 -109 -132 -414 -439 -547 -551 -318 -268 -631
-470 -1010 -655 -225 -110 -379 -172 -611 -247 -1180 -383 -2460 -298 -3594
240 -732 348 -1420 939 -1863 1601 -425 636 -666 1272 -777 2049 -6 42 -10
300 -10 625 0 499 2 566 20 688 77 521 219 979 445 1431 222 442 496 820 865
1190 209 209 319 306 515 453 613 460 1333 769 2085 895 160 27 407 55 570 65
133 8 580 -4 730 -19z M2380 8451 c-163 -6 -167 -7 -235 -40 -96 -48 -210
-161 -259 -260 l-37 -73 3 -142 c3 -141 3 -143 41 -218 48 -97 154 -213 234
-255 32 -17 85 -36 117 -42 42 -8 736 -11 2323 -11 l2263 0 -2 -2309 c-2
-1270 -7 -2313 -11 -2318 -5 -4 -67 -9 -138 -11 -150 -4 -334 16 -559 60 -101
20 -188 31 -250 32 -90 1 -100 -1 -165 -33 -98 -48 -219 -170 -268 -270 l-37
-74 0 -138 c0 -157 7 -183 75 -289 81 -124 186 -210 305 -249 126 -41 376 -80
662 -102 200 -15 560 -7 681 15 260 49 432 148 563 325 105 142 155 257 184
431 19 112 20 174 20 2523 l0 2407 233 0 c254 0 325 8 402 47 78 40 177 149
227 250 l43 86 3 142 3 141 -34 74 c-46 102 -158 218 -253 262 -61 29 -77 31
-222 39 -175 9 -5652 9 -5912 0z m6065 -252 c61 -17 104 -55 133 -118 50 -108
29 -265 -46 -345 -52 -55 -58 -56 -477 -56 l-385 0 -2 -2597 -3 -2598 -26 -82
c-79 -251 -263 -381 -599 -422 -107 -14 -478 -14 -635 -1 -269 23 -590 77
-659 112 -54 27 -93 64 -119 113 -18 33 -22 57 -22 131 0 84 3 96 35 160 28
54 45 74 83 98 67 42 128 45 263 13 411 -96 835 -119 979 -53 57 26 89 64 114
134 15 43 16 264 19 2520 l2 2472 -2439 0 c-1694 0 -2448 3 -2468 11 -46 17
-101 78 -120 133 -10 31 -17 81 -17 127 0 65 5 86 30 135 16 32 41 66 55 77
68 49 -110 46 3184 47 2197 0 3091 -3 3120 -11z M3421 7009 c-253 -23 -420
-106 -575 -286 -64 -75 -137 -213 -161 -308 -13 -51 -15 -217 -15 -1255 0
-1150 1 -1198 19 -1262 64 -222 226 -429 406 -518 183 -91 291 -99 1295 -99
779 0 1012 8 1139 39 245 60 424 231 534 512 l32 83 3 1215 c2 907 0 1229 -9
1270 -17 82 -81 223 -130 288 -137 179 -282 268 -507 313 -70 14 -1888 21
-2031 8z m2074 -263 c210 -55 323 -162 382 -361 16 -56 18 -144 21 -1190 3
-1253 4 -1222 -62 -1362 -46 -95 -114 -164 -209 -208 -148 -69 -122 -68 -1122
-72 -988 -5 -1141 0 -1272 42 -178 56 -278 164 -330 355 -17 60 -18 147 -18
1215 0 1083 1 1154 18 1214 23 80 59 154 103 207 70 87 210 153 364 172 44 6
481 9 1065 8 919 -2 995 -4 1060 -20z M3555 6239 c-44 -11 -78 -39 -103 -84
-15 -27 -17 -116 -20 -940 -2 -500 0 -938 3 -972 8 -76 35 -120 90 -148 39
-20 60 -20 860 -20 653 0 828 3 857 13 46 16 84 60 98 112 7 26 10 348 8 982
-3 931 -3 944 -24 982 -12 25 -35 48 -60 60 -38 21 -51 21 -854 23 -482 1
-831 -3 -855 -8z m1523 -1085 l2 -821 -37 -7 c-50 -8 -1257 -8 -1317 0 l-46 7
0 818 c0 644 3 818 13 822 6 3 320 5 697 4 l685 -2 3 -821z"/>
</g>
</svg>
