<?xml version="1.0" standalone="no"?>
<!DOCTYPE svg PUBLIC "-//W3C//DTD SVG 20010904//EN"
 "http://www.w3.org/TR/2001/REC-SVG-20010904/DTD/svg10.dtd">
<svg version="1.0" xmlns="http://www.w3.org/2000/svg"
 width="2048.000000pt" height="2048.000000pt" viewBox="0 0 2048.000000 2048.000000"
 preserveAspectRatio="xMidYMid meet">
<metadata>
Created by potrace 1.13, written by Peter Selinger 2001-2015
</metadata>
<g transform="translate(0.000000,2048.000000) scale(0.192120,-0.192120)"
fill="#000000" stroke="none">
<path d="M4275 10109 c-883 -76 -1739 -395 -2457 -917 -366 -266 -731 -627
-1009 -997 -145 -192 -345 -507 -404 -637 -77 -168 -35 -389 99 -524 144 -144
362 -175 554 -79 93 47 157 117 243 265 393 680 939 1195 1634 1543 1022 511
2222 549 3276 102 399 -169 718 -377 1003 -655 360 -351 606 -744 761 -1215
222 -672 199 -1343 -66 -1947 -43 -99 -67 -135 -54 -83 20 84 37 193 50 315
73 682 -141 1405 -581 1960 -166 209 -448 459 -682 603 -403 250 -880 411
-1366 462 -167 17 -480 20 -641 5 -636 -59 -1242 -302 -1745 -700 -140 -110
-424 -397 -533 -539 -556 -720 -843 -1689 -776 -2621 50 -713 281 -1384 680
-1975 264 -392 643 -772 1029 -1034 673 -457 1463 -730 2317 -802 187 -15 711
-7 888 15 805 99 1509 354 2155 781 613 405 1108 925 1493 1571 132 220 160
311 140 445 -40 255 -275 434 -524 399 -181 -26 -288 -109 -403 -311 -292
-516 -721 -976 -1216 -1303 -262 -174 -492 -293 -770 -399 -458 -176 -900
-257 -1396 -257 -655 0 -1285 157 -1848 461 -852 459 -1411 1245 -1568 2201
-19 114 -22 174 -22 418 -1 321 7 392 74 657 45 176 170 506 187 490 2 -3 -5
-49 -16 -103 -34 -171 -45 -293 -45 -494 1 -210 11 -322 50 -524 82 -421 279
-843 551 -1181 106 -132 333 -351 465 -450 724 -542 1712 -749 2618 -548 892
197 1647 741 2111 1520 216 363 389 813 473 1233 84 414 99 914 40 1320 -163
1138 -778 2127 -1714 2756 -644 433 -1439 704 -2265 774 -142 12 -647 11 -790
-1z m905 -263 c333 -39 584 -90 890 -181 476 -142 981 -395 1355 -679 297
-225 638 -585 820 -866 254 -393 415 -763 514 -1180 73 -307 71 -284 71 -895
0 -551 0 -554 -25 -692 -134 -723 -475 -1386 -946 -1837 -486 -466 -1089 -748
-1783 -833 -159 -19 -534 -21 -686 -4 -590 69 -1128 282 -1540 610 -465 370
-781 912 -879 1511 -35 210 -41 295 -41 557 0 140 -5 276 -11 305 -22 109 -75
188 -143 212 -11 4 -37 -2 -62 -15 -127 -61 -249 -290 -335 -629 l-32 -125 -4
-403 c-4 -340 -2 -420 12 -509 88 -560 375 -1175 756 -1618 309 -360 647 -620
1084 -835 761 -373 1627 -497 2460 -354 684 118 1304 401 1872 852 150 119
477 450 606 612 100 126 224 303 381 547 36 56 81 113 100 128 119 91 329 86
404 -10 20 -25 22 -40 22 -139 0 -127 -6 -143 -105 -306 -464 -766 -1105
-1347 -1920 -1741 -819 -396 -1734 -546 -2635 -433 -539 67 -1069 233 -1565
488 -641 329 -1133 781 -1490 1366 -72 119 -204 371 -246 470 -100 239 -189
534 -242 805 l-31 160 -4 498 c-3 497 -3 498 23 652 91 545 293 1046 587 1459
218 306 535 602 860 805 716 447 1623 584 2454 371 321 -82 638 -222 898 -394
535 -356 891 -876 1025 -1498 46 -215 53 -285 60 -635 4 -253 9 -345 19 -355
6 -6 12 -22 12 -35 0 -38 45 -116 90 -157 36 -32 46 -36 73 -30 45 10 78 37
132 111 115 157 205 403 255 699 20 118 21 154 17 468 -4 357 -8 389 -60 621
-105 460 -326 918 -627 1302 -107 136 -395 427 -520 525 -209 164 -426 299
-665 414 -752 361 -1592 480 -2425 343 -555 -91 -1111 -312 -1590 -632 -242
-162 -391 -286 -635 -531 -258 -259 -391 -427 -651 -826 -91 -138 -101 -150
-165 -185 -122 -66 -301 -28 -354 76 -11 19 -15 61 -15 136 0 107 1 109 40
181 55 101 211 336 310 467 304 401 683 759 1094 1035 194 130 317 200 541
310 580 286 1107 427 1800 484 117 9 666 -3 795 -18z M5095 6695 c-211 -36
-434 -141 -605 -284 -241 -202 -397 -451 -479 -766 -6 -22 -11 -144 -11 -277
0 -267 6 -308 71 -473 143 -366 429 -669 761 -804 398 -163 829 -117 1184 125
268 183 479 488 569 826 23 86 25 109 25 324 0 213 -2 239 -24 325 -114 437
-462 814 -886 959 -170 58 -417 76 -605 45z m430 -230 c227 -47 427 -157 586
-322 47 -48 104 -117 128 -152 63 -92 128 -236 158 -348 24 -89 27 -115 27
-278 0 -164 -3 -189 -27 -280 -54 -202 -193 -430 -338 -557 -458 -398 -1113
-380 -1539 42 -207 204 -316 453 -327 742 -9 223 23 373 119 560 229 448 729
693 1213 593z"/>
</g>
</svg>
