<?xml version="1.0" standalone="no"?>
<!DOCTYPE svg PUBLIC "-//W3C//DTD SVG 20010904//EN"
 "http://www.w3.org/TR/2001/REC-SVG-20010904/DTD/svg10.dtd">
<svg version="1.0" xmlns="http://www.w3.org/2000/svg"
 width="2048.000000pt" height="2048.000000pt" viewBox="0 0 2048.000000 2048.000000"
 preserveAspectRatio="xMidYMid meet">
<metadata>
Created by potrace 1.13, written by Peter Selinger 2001-2015
</metadata>
<g transform="translate(0.000000,2048.000000) scale(0.192120,-0.192120)"
fill="#000000" stroke="none">
<path d="M1320 10324 c-273 -42 -463 -131 -640 -301 -169 -160 -265 -330 -328
-573 -15 -60 -16 -357 -19 -3830 l-3 -3765 70 206 c67 200 80 245 103 359 7
38 12 1087 16 3490 l6 3435 23 85 c37 140 117 287 217 399 57 64 177 151 268
196 125 60 218 83 377 95 176 13 7609 13 7810 0 213 -13 344 -52 490 -145 182
-116 354 -347 413 -552 l22 -78 6 -2970 c4 -2150 9 -2989 17 -3038 12 -74 38
-171 83 -312 45 -143 69 -236 59 -230 -5 3 -58 68 -117 143 -232 296 -463 585
-612 762 -905 1081 -1597 1700 -2086 1866 -102 35 -118 38 -220 37 -119 -1
-176 -14 -316 -72 -519 -216 -1344 -1009 -2310 -2221 -85 -107 -188 -239 -228
-293 l-74 -97 -141 137 c-335 327 -601 545 -836 689 -95 58 -268 144 -288 144
-15 0 -83 118 -163 285 -157 327 -239 648 -258 1007 -25 479 67 921 280 1348
133 264 287 478 499 690 669 670 1634 934 2556 700 735 -187 1366 -691 1711
-1367 176 -343 266 -672 294 -1074 6 -90 13 -166 15 -168 9 -10 133 61 139 79
4 11 11 20 16 20 5 0 9 15 9 34 0 19 5 38 10 41 6 3 10 49 10 102 0 80 2 94
15 89 9 -3 15 0 15 10 0 11 5 14 18 9 59 -24 193 -67 457 -146 220 -65 305
-95 318 -110 10 -13 50 -31 98 -45 167 -49 147 -78 -101 -149 -229 -65 -378
-116 -423 -145 -46 -29 -87 -97 -87 -144 l0 -25 53 15 c28 8 116 35 194 60 78
24 225 62 326 84 271 58 399 109 466 186 74 84 9 179 -170 250 -35 13 -165 54
-289 89 -302 86 -950 282 -957 289 -4 3 7 16 23 28 16 13 162 133 324 268 162
135 350 283 416 328 219 150 339 269 364 362 20 74 -26 130 -124 154 -63 15
-245 6 -454 -24 -120 -16 -377 -48 -572 -70 -195 -23 -370 -43 -389 -47 -28
-5 -33 -3 -28 10 3 8 128 235 278 504 150 268 294 531 321 583 47 96 78 190
78 242 0 51 -26 98 -64 113 -82 34 -158 11 -451 -137 -199 -100 -640 -343
-892 -492 -32 -19 -59 -33 -61 -31 -1 1 6 76 18 166 11 90 36 299 55 464 20
165 45 379 56 475 23 194 21 297 -8 375 -47 125 -160 116 -302 -25 -36 -36
-232 -277 -436 -534 -203 -258 -377 -478 -386 -490 -17 -20 -17 -20 -28 19 -6
22 -86 301 -176 620 -178 627 -208 709 -285 779 -83 75 -165 35 -240 -118 -30
-60 -82 -227 -205 -661 -90 -319 -170 -598 -176 -620 -11 -39 -11 -39 -28 -19
-9 12 -182 232 -386 490 -203 258 -401 499 -438 536 -78 77 -135 108 -196 108
-112 0 -150 -140 -117 -430 55 -480 127 -1089 132 -1112 3 -16 1 -28 -4 -28
-5 0 -70 34 -143 76 -429 244 -969 538 -1032 564 -247 99 -345 -1 -246 -249
24 -60 483 -898 611 -1114 34 -58 35 -71 6 -64 -13 4 -277 36 -588 73 -647 77
-799 85 -882 47 -118 -54 -106 -163 33 -302 52 -52 380 -316 1023 -822 20 -17
20 -17 -19 -28 -22 -6 -301 -86 -620 -176 -434 -123 -600 -175 -661 -205 -207
-102 -206 -220 1 -321 77 -37 375 -126 1085 -324 113 -32 211 -61 218 -64 9
-5 -8 -23 -50 -56 -392 -306 -936 -743 -983 -792 -174 -177 -135 -303 98 -320
72 -5 298 15 375 34 27 6 28 28 3 69 -24 39 -58 50 -174 59 -62 5 -93 12 -110
25 l-22 19 25 47 c27 51 49 70 310 272 91 70 232 181 314 246 82 65 160 122
174 127 43 16 63 -9 116 -142 74 -189 94 -214 291 -361 66 -50 121 -91 122
-92 2 -2 -25 3 -60 10 -157 34 -324 3 -522 -95 -486 -242 -1100 -818 -1964
-1846 l-152 -180 5 -265 c4 -279 10 -321 60 -468 109 -316 380 -581 701 -685
171 -55 -100 -52 4235 -52 4355 0 4070 -4 4240 53 170 56 321 153 453 292 143
149 227 306 285 530 15 60 16 374 19 4065 3 2763 0 4025 -7 4081 -30 235 -129
446 -288 615 -166 176 -333 273 -582 337 -60 15 -371 16 -4085 18 -2211 1
-4031 0 -4045 -2z m4029 -1054 c28 -14 52 -84 168 -485 100 -348 107 -376 107
-463 l1 -94 -305 0 -305 -1 1 79 c1 68 15 126 103 434 109 379 141 474 172
515 22 27 31 30 58 15z m-1450 -348 c31 -32 179 -213 329 -401 296 -373 303
-384 240 -414 -18 -8 -89 -38 -158 -65 -69 -27 -181 -77 -250 -111 l-124 -62
-18 23 c-27 37 -36 86 -73 398 -29 242 -35 331 -35 493 0 231 0 230 89 139z
m2941 -121 c0 -141 -7 -243 -35 -478 -40 -339 -47 -377 -80 -415 l-24 -28
-142 70 c-78 38 -179 83 -223 99 -164 60 -176 66 -176 104 0 59 621 827 669
827 8 0 11 -53 11 -179z m-4220 -712 c36 -17 244 -130 463 -251 382 -212 397
-222 397 -250 0 -24 -28 -58 -166 -201 -261 -270 -242 -257 -294 -209 -36 33
-466 805 -486 874 -24 78 -11 83 86 37z m5500 -10 c0 -37 -64 -163 -288 -569
-100 -181 -191 -333 -205 -344 -15 -11 -32 -16 -44 -12 -11 4 -53 41 -94 83
-41 43 -128 132 -193 199 -131 134 -140 146 -132 172 14 43 917 525 948 506 4
-3 8 -18 8 -35z m802 -1253 c16 -12 15 -15 -12 -48 -16 -20 -73 -69 -127 -109
-77 -58 -312 -251 -616 -504 -19 -17 -45 -19 -65 -6 -7 4 -44 84 -82 177 -37
93 -84 207 -104 254 -38 91 -43 118 -23 125 6 3 172 23 367 45 195 23 416 49
490 60 167 22 152 22 172 6z m-6772 -35 c190 -22 401 -46 469 -53 75 -8 129
-18 138 -26 18 -18 12 -39 -67 -227 -37 -88 -80 -193 -95 -234 -26 -69 -54
-111 -74 -111 -15 0 -82 50 -295 219 -394 312 -516 419 -516 451 0 27 69 24
440 -19z m279 -1466 c1 -132 -2 -257 -6 -278 -5 -33 -9 -38 -27 -34 -44 10
-686 197 -781 227 -177 57 -216 93 -132 124 23 9 231 69 462 135 231 66 431
124 445 129 23 9 25 7 32 -27 4 -20 7 -144 7 -276z m5013 9 c46 -15 173 -73
283 -129 110 -57 220 -111 245 -121 91 -35 193 -120 338 -282 76 -87 233 -254
347 -372 308 -318 707 -773 996 -1135 75 -93 180 -222 235 -285 122 -142 154
-183 154 -201 0 -8 9 -25 20 -39 19 -24 20 -46 20 -781 0 -740 0 -757 -21
-819 -102 -310 -347 -523 -675 -587 -80 -15 -223 -17 -1474 -22 l-1385 -6 -55
-28 c-30 -16 -64 -37 -76 -48 -11 -10 -25 -19 -31 -19 -7 0 -74 84 -149 188
-621 845 -1117 1457 -1672 2062 l-160 175 66 8 c73 8 150 40 199 81 17 15 130
147 250 294 814 997 1404 1593 1884 1906 105 68 275 151 349 170 92 24 216 20
312 -10z m-4570 -1645 c67 -14 327 -148 478 -247 183 -119 316 -227 590 -478
191 -175 260 -229 368 -288 106 -57 168 -115 375 -350 364 -412 734 -867 1128
-1386 206 -271 220 -297 177 -322 -19 -11 -425 -13 -2318 -13 -2149 0 -2301 1
-2388 18 -269 51 -474 191 -599 410 -73 129 -83 188 -83 483 l0 252 57 73
c131 171 454 535 726 819 250 260 590 571 892 814 117 94 296 182 428 211 79
17 103 18 169 4z"/>
</g>
</svg>
