<?xml version="1.0" standalone="no"?>
<!DOCTYPE svg PUBLIC "-//W3C//DTD SVG 20010904//EN"
 "http://www.w3.org/TR/2001/REC-SVG-20010904/DTD/svg10.dtd">
<svg version="1.0" xmlns="http://www.w3.org/2000/svg"
 width="2048.000000pt" height="2048.000000pt" viewBox="0 0 2048.000000 2048.000000"
 preserveAspectRatio="xMidYMid meet">
<metadata>
Created by potrace 1.13, written by Peter Selinger 2001-2015
</metadata>
<g transform="translate(0.000000,2048.000000) scale(0.192120,-0.192120)"
fill="#000000" stroke="none">
<path d="M1320 10324 c-273 -42 -463 -131 -640 -301 -175 -167 -284 -365 -332
-603 -19 -96 -19 -8084 0 -8180 48 -239 156 -436 332 -603 149 -143 306 -227
530 -285 60 -15 380 -16 4178 -19 3965 -3 4112 -3 4112 15 0 14 18 24 73 41
265 85 510 298 642 561 32 63 68 166 93 260 15 60 16 374 19 4065 3 2763 0
4025 -7 4081 -30 235 -129 446 -288 615 -166 176 -333 273 -582 337 -60 15
-371 16 -4085 18 -2211 1 -4031 0 -4045 -2z m4120 -128 c30 -8 91 -25 135 -37
l80 -24 1845 -6 c1363 -4 1861 -9 1905 -18 194 -38 328 -107 461 -238 127
-125 217 -283 261 -458 16 -66 17 -291 20 -3717 2 -2400 7 -3648 13 -3648 6 0
10 -16 10 -35 0 -50 20 -92 89 -192 34 -47 61 -90 61 -95 0 -4 -186 -8 -412
-8 l-413 0 3 1672 c2 1185 -1 1688 -8 1725 -17 80 -64 142 -134 178 l-60 30
-1050 0 -1051 0 -48 -24 c-58 -28 -119 -96 -135 -148 -8 -27 -12 -250 -12
-764 l-1 -726 -557 -2 -557 -2 3 1248 3 1248 -559 559 -560 558 -277 0 -278 0
-553 -553 -554 -554 0 -1667 0 -1668 -557 0 -558 0 0 727 0 728 -23 51 c-27
60 -81 116 -137 141 -37 17 -92 18 -768 21 -400 1 -727 5 -727 9 0 7 79 124
96 140 6 7 20 33 30 57 11 25 22 46 27 46 4 0 7 18 7 40 0 22 4 40 10 40 6 0
11 784 13 2258 l2 2257 23 85 c42 158 153 349 260 448 117 109 270 194 405
225 91 21 104 21 1952 27 l1860 5 70 24 c148 51 246 61 345 37z m-920 -3180
c0 -10 17 -16 58 -21 91 -9 133 -24 187 -65 28 -21 238 -227 468 -458 l417
-419 0 -1061 c0 -701 3 -1062 10 -1062 6 0 10 -20 10 -45 0 -25 4 -45 9 -45 5
0 12 -11 15 -24 3 -13 32 -51 64 -84 l58 -60 -36 -6 c-19 -3 -79 -6 -134 -6
-54 0 -116 -5 -138 -12 -56 -16 -121 -78 -149 -140 l-24 -53 -3 -1503 c-1
-826 -5 -1502 -8 -1502 -3 0 -18 8 -32 19 -37 25 -120 61 -143 61 -11 0 -19 5
-19 10 0 7 -222 10 -645 10 -423 0 -645 -3 -645 -10 0 -5 -7 -10 -15 -10 -16
0 -86 -34 -126 -61 l-26 -18 -7 46 c-3 25 -6 508 -6 1073 0 1143 3 1094 -67
1171 -68 75 -96 83 -285 87 l-168 4 54 51 c29 29 59 69 66 90 8 20 18 37 22
37 4 0 8 18 8 40 0 22 5 40 10 40 7 0 10 241 10 703 0 502 3 712 12 737 8 25
12 256 15 777 4 621 7 744 19 754 8 6 14 19 14 28 0 18 832 852 889 891 53 36
100 49 184 50 60 0 77 -3 77 -14z m3610 -1906 c0 -14 7 -20 23 -20 12 0 139
-7 281 -15 290 -16 765 -11 778 9 5 7 8 7 8 -2 0 -7 14 -25 30 -39 l30 -25 0
-959 c0 -633 3 -959 10 -959 7 0 10 -193 10 -560 0 -312 4 -560 9 -560 5 0 11
-23 13 -52 3 -29 11 -54 17 -56 6 -2 11 -11 11 -19 0 -19 41 -68 87 -105 l36
-28 -141 0 c-78 0 -163 -5 -189 -10 -71 -16 -135 -67 -169 -137 l-29 -58 -3
-532 c-2 -293 -5 -533 -8 -533 -3 0 -18 8 -32 19 -33 22 -120 61 -138 61 -8 0
-14 5 -14 10 0 12 -466 14 -472 3 -2 -5 -40 -27 -85 -50 l-83 -43 -2 1508 c-3
1446 -4 1509 -22 1550 -10 23 -38 59 -62 80 -78 69 -96 72 -543 73 -218 1
-409 4 -424 8 l-29 6 46 34 c82 62 126 128 126 190 0 30 4 41 15 41 13 0 15
66 15 534 0 462 2 535 15 546 8 7 15 18 15 26 0 33 42 38 350 45 227 5 318 11
355 22 28 8 76 16 108 16 51 1 57 -1 57 -19z m-6401 -881 l31 -11 0 -659 c0
-551 2 -659 14 -659 9 0 15 -16 19 -46 2 -26 9 -49 13 -53 5 -3 26 -32 47 -63
43 -63 89 -106 157 -146 l45 -27 245 0 c226 0 280 -5 280 -25 0 -4 -47 -54
-105 -112 -57 -59 -107 -118 -111 -132 -3 -14 -10 -26 -15 -26 -5 0 -9 -121
-9 -275 0 -151 4 -275 8 -275 4 0 14 -16 21 -36 7 -19 49 -72 94 -119 107
-109 127 -115 367 -115 222 0 256 9 340 87 34 31 73 77 87 102 15 25 32 49 38
53 6 5 10 107 10 301 0 266 -2 295 -17 311 -10 10 -18 21 -18 25 0 11 -127
140 -178 183 l-44 35 34 21 c60 37 183 65 268 60 41 -3 85 -10 98 -17 l22 -12
0 -994 0 -995 -330 0 -330 0 0 30 c0 20 -5 30 -15 30 -10 0 -15 10 -15 30 0
17 -4 30 -10 30 -6 0 -10 78 -10 215 0 119 -4 215 -9 215 -5 0 -12 10 -15 23
-12 44 -136 175 -193 202 -60 29 -143 38 -303 32 -206 -8 -229 -16 -334 -121
-45 -45 -88 -91 -96 -101 -12 -16 -16 -63 -18 -242 -3 -187 -5 -223 -18 -223
-9 0 -14 -10 -14 -30 0 -23 -4 -30 -20 -30 -16 0 -20 -7 -20 -31 l0 -32 -197
6 c-124 4 -226 12 -273 22 -297 65 -527 261 -617 525 l-22 65 -1 1498 0 1497
423 1 c232 1 454 5 492 9 111 11 170 11 204 -1z m6154 -779 l27 -13 0 -1414 0
-1413 -1205 0 -1205 0 0 1403 0 1404 21 19 c17 15 40 20 113 22 93 4 121 -3
276 -64 40 -16 89 -19 419 -22 413 -4 530 4 651 45 152 51 172 53 535 50 262
-2 346 -6 368 -17z m-4773 -1452 l0 -278 -280 0 -280 0 0 278 0 277 280 0 280
0 0 -277z m6369 -518 c92 -30 102 -31 323 -37 l228 -6 0 -116 c0 -134 -20
-204 -89 -320 -78 -131 -180 -222 -337 -300 -127 -63 -202 -81 -352 -88 l-132
-6 2 444 3 444 35 13 c61 21 210 8 319 -28z m-6929 -592 l0 -278 -277 0 -278
0 2 277 c1 153 2 278 3 278 0 0 124 0 275 0 l275 0 0 -277z M5281 10123 c-41
-20 -84 -77 -122 -160 -25 -53 -225 -737 -340 -1158 -18 -66 -36 -124 -39
-128 -4 -5 -176 204 -381 465 -206 260 -402 503 -437 540 -196 207 -333 177
-348 -78 -5 -84 48 -592 126 -1209 11 -82 18 -151 16 -153 -2 -1 -26 10 -53
26 -198 117 -1044 583 -1108 610 -60 26 -99 36 -156 40 -73 4 -77 3 -108 -24
-57 -51 -50 -156 23 -309 28 -61 339 -624 548 -993 39 -68 68 -125 65 -128 -2
-2 -256 25 -563 61 -769 91 -837 94 -938 45 -103 -49 -94 -144 25 -274 28 -31
115 -107 193 -169 216 -173 808 -640 838 -662 15 -11 28 -22 28 -25 0 -3 -30
-14 -67 -24 -38 -9 -312 -87 -611 -172 -534 -151 -651 -192 -727 -250 -127
-97 -61 -220 161 -300 63 -23 602 -179 1034 -299 113 -32 207 -59 209 -61 3
-3 -6 -12 -19 -21 -26 -18 -698 -550 -842 -666 -48 -39 -86 -72 -84 -75 9 -8
383 111 416 132 32 21 260 199 380 296 98 79 150 89 171 32 5 -15 14 -36 19
-47 5 -11 26 -63 45 -115 34 -89 112 -251 166 -346 19 -34 21 -45 11 -56 -13
-16 -118 -35 -377 -68 -88 -11 -177 -25 -199 -31 -41 -11 -120 -79 -148 -126
l-16 -28 41 3 c79 7 732 82 791 92 33 5 62 8 64 6 2 -2 -8 -22 -22 -45 -70
-111 -406 -712 -503 -901 -109 -212 -153 -322 -153 -384 0 -42 10 -76 22 -76
13 0 107 94 135 135 37 55 65 106 295 555 205 397 266 587 232 716 -7 30 -14
59 -14 64 0 5 23 21 50 36 28 15 50 31 50 35 0 5 -27 57 -60 116 -175 318
-292 683 -330 1033 -15 135 -15 436 0 570 100 917 658 1711 1485 2115 512 250
1052 330 1615 239 971 -157 1790 -861 2101 -1805 53 -162 102 -384 119 -549
23 -211 13 -518 -24 -749 -7 -45 -10 -81 -8 -81 3 0 48 28 100 62 53 34 102
61 109 61 7 0 13 7 13 14 0 8 5 11 10 8 6 -3 10 -14 10 -24 0 -22 30 -51 53
-51 8 0 162 45 341 100 180 55 399 116 489 135 181 39 265 64 350 106 143 70
183 147 116 224 -64 72 -126 98 -459 195 -129 37 -379 111 -554 164 -176 53
-339 101 -363 107 -24 6 -43 15 -43 18 0 13 660 554 738 606 203 132 335 254
378 350 30 65 26 99 -14 138 -64 61 -209 71 -482 32 -96 -14 -348 -46 -560
-70 -499 -59 -500 -59 -500 -52 0 3 129 236 287 519 157 282 303 549 324 593
106 221 84 345 -61 345 -32 0 -82 -8 -111 -17 -88 -28 -512 -249 -879 -457
-189 -108 -345 -196 -348 -196 -2 0 -2 17 1 38 4 20 32 251 62 512 31 261 63
531 72 600 51 420 -88 540 -333 288 -34 -35 -218 -261 -408 -503 -426 -540
-413 -524 -419 -505 -3 8 -80 278 -171 600 -91 322 -177 614 -191 649 -65 166
-150 237 -234 194z m81 -310 c22 -20 57 -129 178 -557 78 -275 90 -329 90
-395 l0 -76 -310 0 -310 0 0 58 c0 38 16 116 46 225 72 263 174 612 195 665
37 93 70 117 111 80z m-1511 -291 c14 -9 49 -42 76 -72 61 -68 547 -681 562
-709 29 -53 13 -66 -151 -131 -73 -29 -191 -81 -262 -116 -71 -35 -135 -64
-141 -64 -12 0 -36 43 -49 85 -3 11 -21 158 -41 327 -28 250 -35 342 -35 502
0 108 3 196 8 196 4 0 19 -8 33 -18z m2989 -170 c0 -140 -7 -240 -35 -476 -41
-340 -48 -379 -75 -408 -11 -12 -20 -25 -20 -30 0 -4 -55 20 -122 53 -67 34
-185 86 -262 116 -154 60 -180 76 -173 108 5 28 502 659 588 747 99 102 99
102 99 -110z m-4226 -703 c106 -47 866 -476 871 -491 9 -26 -1 -39 -141 -182
-71 -72 -157 -162 -191 -199 -75 -80 -106 -88 -146 -34 -43 57 -456 807 -473
859 -27 82 -15 90 80 47z m5506 -6 c0 -16 -11 -53 -23 -83 -23 -54 -399 -745
-441 -807 -29 -45 -57 -56 -88 -35 -34 23 -382 382 -397 410 -8 15 -9 28 -2
41 22 40 880 501 933 501 13 0 18 -8 18 -27z m-5965 -1298 c165 -18 368 -41
452 -51 101 -11 154 -21 157 -30 8 -20 -12 -78 -75 -226 -33 -75 -71 -170 -85
-210 -41 -114 -68 -142 -113 -119 -29 16 -613 481 -694 553 -73 66 -98 105
-75 120 15 10 27 9 433 -37z m6773 23 c4 -21 -42 -67 -151 -149 -130 -99 -198
-154 -417 -337 -217 -182 -242 -196 -272 -149 -8 12 -37 81 -66 152 -28 72
-68 173 -90 225 -45 109 -54 141 -44 156 4 5 126 23 272 38 146 16 355 41 465
56 230 32 298 34 303 8z m-644 -1163 c82 -31 382 -124 658 -204 230 -66 252
-75 244 -98 -3 -8 -6 -18 -6 -22 0 -10 -78 -36 -200 -66 -295 -73 -699 -233
-737 -292 l-18 -27 -6 29 c-7 32 -12 705 -5 705 2 0 33 -11 70 -25z m-5859
-98 c8 -93 3 -532 -6 -541 -3 -3 -48 7 -100 24 -52 16 -200 59 -329 95 -233
66 -384 112 -469 142 -43 15 -81 44 -81 61 0 19 85 48 485 161 231 66 431 124
445 130 45 18 48 15 55 -72z M6920 3730 c-55 -41 -60 -51 -12 -26 25 13 82 66
71 66 -3 0 -30 -18 -59 -40z M2803 3167 c-97 -50 -150 -92 -173 -137 -18 -35
-19 -44 -8 -68 7 -15 21 -28 31 -30 17 -3 361 180 373 199 8 13 -14 39 -46 51
-56 23 -113 18 -177 -15z M4824 5822 c-74 -26 -224 -159 -224 -198 0 -8 -4
-14 -10 -14 -6 0 -10 -100 -10 -280 0 -157 4 -280 9 -280 5 0 12 -11 15 -25 4
-14 11 -25 16 -25 6 0 10 -7 10 -15 0 -9 29 -44 65 -80 68 -67 127 -97 216
-110 91 -14 89 -37 -4 -49 -27 -4 -71 -18 -96 -31 -55 -28 -196 -160 -206
-192 -3 -13 -11 -23 -16 -23 -15 0 -12 -547 4 -566 70 -88 176 -173 237 -192
106 -32 394 -21 475 18 41 20 162 129 203 183 15 20 18 557 3 557 -5 0 -13 10
-16 23 -4 12 -37 53 -74 90 -70 72 -150 121 -217 132 -80 13 -94 17 -94 25 0
5 26 14 58 20 141 28 160 37 237 114 41 41 78 88 86 109 7 20 17 37 21 37 4 0
8 126 8 280 0 180 -4 280 -10 280 -5 0 -10 7 -10 16 0 25 -125 148 -183 180
-52 29 -53 29 -247 32 -167 2 -202 0 -246 -16z m506 -492 l0 -280 -280 0 -280
0 0 280 0 280 280 0 280 0 0 -280z m0 -1110 l0 -280 -280 0 -280 0 0 280 0
280 280 0 280 0 0 -280z M4288 3577 c-62 -18 -113 -54 -190 -135 l-63 -67 0
-255 c0 -288 -10 -248 94 -361 32 -36 75 -69 110 -86 56 -28 57 -28 261 -28
194 0 208 1 252 23 53 26 174 149 184 187 3 14 10 25 15 25 5 0 9 104 9 235 0
150 -4 235 -10 235 -5 0 -10 7 -10 15 0 25 -40 77 -102 131 -96 85 -106 88
-318 91 -130 2 -199 -1 -232 -10z m488 -467 l0 -280 -278 0 -278 0 0 280 0
280 278 0 278 0 0 -280z M8480 5021 c0 -5 -14 -11 -30 -15 -28 -5 -140 -81
-140 -95 0 -3 -23 -30 -50 -59 -28 -29 -50 -59 -50 -67 0 -8 -4 -15 -10 -15
-6 0 -10 -98 -10 -275 0 -177 4 -275 10 -275 6 0 10 -6 10 -14 0 -8 6 -21 13
-28 7 -7 20 -26 30 -41 50 -78 125 -136 212 -163 46 -15 90 -19 195 -19 138 0
199 10 271 46 46 23 155 141 171 185 7 19 16 34 20 34 4 0 8 124 8 275 0 154
-4 275 -9 275 -5 0 -12 12 -16 27 -3 15 -46 66 -95 114 -67 67 -96 89 -124 94
-20 4 -36 11 -36 16 0 5 -83 9 -185 9 -102 0 -185 -4 -185 -9z m460 -523 l0
-278 -278 0 -278 0 2 278 c0 152 2 277 3 277 0 0 125 0 276 0 l275 1 0 -278z
M8510 3913 c-61 -12 -137 -57 -200 -121 -87 -90 -92 -106 -85 -324 11 -327 27
-391 120 -476 74 -68 109 -75 350 -70 171 3 194 5 230 24 56 30 174 141 181
170 3 13 10 24 15 24 5 0 9 114 9 260 0 146 -4 260 -9 260 -5 0 -12 11 -15 25
-9 35 -146 168 -200 193 -25 12 -64 26 -88 32 -42 9 -260 12 -308 3z m430
-525 l0 -278 -278 0 -278 0 2 278 c0 152 2 277 3 277 0 0 125 0 276 0 l275 0
0 -277z M7071 3359 c-24 -5 -55 -16 -70 -25 -26 -17 -134 -124 -181 -180 l-25
-29 0 -298 c0 -189 4 -300 10 -305 6 -4 22 -26 37 -48 38 -59 126 -141 178
-167 42 -21 58 -22 255 -22 200 0 212 1 257 23 57 28 182 158 200 208 6 18 16
34 20 34 4 0 8 126 8 280 0 157 -4 280 -9 280 -5 0 -11 10 -15 23 -6 24 -148
172 -187 193 -13 8 -40 18 -59 24 -46 12 -361 19 -419 9z m479 -529 l0 -280
-277 0 -278 0 0 280 0 280 278 0 277 0 0 -280z M6523 2240 c-23 -5 -55 -16
-71 -24 -45 -23 -191 -165 -198 -192 -3 -13 -10 -24 -15 -24 -5 0 -9 -123 -9
-280 0 -154 4 -280 8 -280 4 0 14 -15 20 -34 20 -55 134 -171 200 -203 57 -28
58 -28 262 -28 190 0 208 2 253 22 65 30 146 110 182 180 17 32 33 60 38 61
10 5 9 562 -2 562 -5 0 -12 12 -15 26 -4 14 -44 63 -89 109 -107 109 -129 115
-356 114 -91 -1 -185 -5 -208 -9z m477 -520 l0 -280 -280 0 -280 0 0 280 0
280 280 0 280 0 0 -280z"/>
</g>
</svg>
