<?xml version="1.0" standalone="no"?>
<!DOCTYPE svg PUBLIC "-//W3C//DTD SVG 20010904//EN"
 "http://www.w3.org/TR/2001/REC-SVG-20010904/DTD/svg10.dtd">
<svg version="1.0" xmlns="http://www.w3.org/2000/svg"
 width="2048.000000pt" height="2048.000000pt" viewBox="0 0 2048.000000 2048.000000"
 preserveAspectRatio="xMidYMid meet">
<metadata>
Created by potrace 1.13, written by Peter Selinger 2001-2015
</metadata>
<g transform="translate(0.000000,2048.000000) scale(0.192120,-0.192120)"
fill="#000000" stroke="none">
<path d="M4905 9523 c-815 -67 -1648 -401 -2380 -954 -1236 -933 -1986 -2424
-2160 -4294 -29 -321 -35 -596 -35 -1755 0 -1277 0 -1267 56 -1436 133 -398
491 -689 916 -744 58 -8 1269 -10 4088 -7 3702 3 4010 4 4071 19 235 60 408
157 561 316 122 128 198 251 252 414 57 168 57 179 54 1313 -4 1140 -1 1079
-64 1196 -127 235 -472 324 -796 206 -102 -37 -169 -81 -297 -197 -164 -148
-159 -145 -310 -194 -231 -75 -441 -120 -711 -153 -200 -23 -638 -23 -840 1
-524 62 -953 184 -1385 396 -995 487 -1546 1297 -1454 2138 45 415 218 801
473 1056 249 249 556 395 971 461 155 25 526 31 712 11 281 -30 548 -87 780
-167 128 -44 175 -66 311 -146 270 -159 526 -248 655 -229 117 18 180 118 162
260 -37 300 -184 636 -423 970 -155 215 -452 528 -662 698 -591 475 -1265 754
-1980 818 -105 9 -468 11 -565 3z m645 -228 c622 -72 1206 -318 1730 -728 88
-69 316 -273 335 -300 7 -10 48 -55 91 -101 293 -308 434 -515 549 -806 33
-82 39 -109 43 -197 3 -65 1 -103 -6 -103 -5 0 -12 -9 -15 -20 -13 -49 -171
-1 -502 153 -116 54 -137 61 -195 61 -36 1 -92 -5 -126 -13 l-60 -14 -130 85
c-594 390 -1266 597 -1859 575 -408 -16 -735 -123 -1081 -353 -485 -323 -842
-839 -994 -1434 -177 -693 -74 -1423 284 -2010 194 -318 483 -610 808 -816
198 -125 452 -243 688 -319 495 -159 1284 -255 1843 -226 706 38 1251 199
1780 527 l117 73 48 -14 c104 -31 148 -26 232 23 25 15 50 27 57 27 7 0 43 25
80 56 37 30 89 70 116 88 208 142 467 159 624 43 18 -14 49 -50 68 -82 l35
-58 0 -1046 0 -1047 -30 -114 c-16 -63 -41 -138 -56 -167 -121 -239 -320 -388
-609 -456 -64 -15 -400 -16 -4015 -19 -2648 -3 -3976 0 -4040 6 -173 19 -315
68 -449 155 -148 95 -276 261 -328 424 l-24 74 3 1557 3 1556 28 195 c54 380
110 671 187 965 238 916 698 1782 1260 2370 731 764 1715 1289 2660 1420 267
37 580 41 850 10z m258 -1666 c39 -9 52 -17 52 -31 0 -11 -7 -18 -19 -18 -11
0 -22 -4 -25 -9 -3 -4 -25 -11 -48 -15 -23 -4 -47 -11 -53 -15 -5 -5 -35 -14
-65 -21 -177 -41 -448 -167 -620 -288 -157 -112 -357 -320 -477 -497 -102
-151 -225 -441 -272 -639 -41 -170 -43 -194 -39 -521 l4 -320 31 -115 c69
-258 200 -531 368 -765 168 -234 396 -464 646 -650 390 -291 910 -529 1419
-650 207 -50 302 -78 301 -90 -1 -30 -393 -47 -671 -30 -220 14 -586 64 -815
111 -769 160 -1358 527 -1710 1065 -140 212 -248 455 -308 689 -46 176 -49
220 -45 655 4 409 4 410 32 525 104 428 294 770 588 1062 328 327 725 525
1153 577 110 13 506 7 573 -10z"/>
</g>
</svg>
