<?xml version="1.0" standalone="no"?>
<!DOCTYPE svg PUBLIC "-//W3C//DTD SVG 20010904//EN"
 "http://www.w3.org/TR/2001/REC-SVG-20010904/DTD/svg10.dtd">
<svg version="1.0" xmlns="http://www.w3.org/2000/svg"
 width="2048.000000pt" height="2048.000000pt" viewBox="0 0 2048.000000 2048.000000"
 preserveAspectRatio="xMidYMid meet">
<metadata>
Created by potrace 1.13, written by Peter Selinger 2001-2015
</metadata>
<g transform="translate(0.000000,2048.000000) scale(0.192120,-0.192120)"
fill="#000000" stroke="none">
<path d="M4995 10319 c-1391 -94 -2686 -769 -3561 -1858 -915 -1138 -1283
-2602 -1019 -4046 297 -1624 1405 -3013 2932 -3674 1123 -486 2398 -542 3558
-156 1801 600 3108 2165 3374 4040 107 751 39 1540 -194 2250 -378 1155 -1148
2120 -2195 2750 -287 173 -709 364 -1024 464 -603 192 -1253 272 -1871 230z
m880 -203 c520 -65 976 -189 1408 -382 152 -68 592 -291 667 -338 366 -229
794 -608 1102 -976 325 -387 608 -862 729 -1222 11 -35 45 -115 74 -178 117
-253 223 -669 275 -1073 17 -138 20 -215 20 -616 0 -562 -3 -591 -110 -1026
-43 -176 -90 -370 -104 -432 -70 -305 -301 -803 -543 -1170 -169 -259 -330
-462 -539 -684 -276 -292 -472 -457 -754 -634 -19 -12 -78 -49 -130 -82 -154
-97 -360 -209 -538 -295 -1334 -642 -2920 -635 -4248 21 -509 251 -853 488
-1210 834 -404 391 -710 803 -949 1277 -252 500 -397 966 -484 1557 -7 44 -11
287 -11 632 0 601 2 635 56 916 157 811 522 1568 1074 2226 220 263 494 544
630 650 257 199 679 436 1105 622 445 193 920 320 1395 371 220 24 211 24 595
21 259 -2 397 -7 490 -19z M6365 9489 c-218 -28 -403 -193 -460 -409 -29 -109
-15 -266 34 -374 53 -117 180 -234 306 -282 85 -32 233 -43 316 -24 99 23 196
77 268 149 111 112 163 237 163 392 -1 155 -53 282 -161 390 -123 124 -292
181 -466 158z m242 -193 c79 -30 142 -77 192 -146 l31 -43 0 -159 c0 -185 -6
-202 -92 -290 -82 -83 -170 -117 -304 -118 -146 0 -277 67 -353 181 -50 74
-54 97 -49 251 3 112 6 126 30 163 50 77 127 133 226 166 46 16 78 18 167 15
65 -3 127 -11 152 -20z M2838 9210 c-397 -63 -706 -336 -808 -715 -27 -100
-37 -290 -21 -395 58 -374 335 -685 707 -792 108 -31 380 -33 489 -4 288 78
507 258 636 521 72 149 94 246 93 430 -1 120 -5 165 -22 226 -51 188 -141 338
-280 470 -130 123 -283 206 -450 243 -89 20 -266 28 -344 16z m314 -180 c55
-12 122 -29 150 -40 186 -71 384 -264 452 -440 15 -40 17 -79 14 -311 l-3
-266 -47 -94 c-102 -203 -283 -354 -503 -420 -88 -26 -314 -37 -408 -20 -281
53 -504 225 -617 475 -46 101 -52 152 -48 371 5 221 8 233 87 370 39 68 161
194 235 243 201 135 443 181 688 132z M8588 8097 c-49 -14 -62 -22 -117 -71
-112 -102 -108 -295 9 -399 57 -52 103 -70 180 -71 238 -2 368 273 213 453
-67 79 -185 116 -285 88z m162 -187 c28 -15 29 -126 1 -159 -41 -47 -137 -47
-187 0 -20 19 -24 32 -24 80 0 62 6 69 69 90 32 10 113 4 141 -11z M3554 6990
c-193 -27 -361 -114 -496 -259 -145 -155 -214 -318 -225 -531 -24 -485 384
-892 867 -867 215 12 376 80 531 225 177 166 262 364 262 607 -1 146 -23 239
-87 370 -133 268 -400 443 -704 459 -48 3 -114 1 -148 -4z m280 -306 c103 -26
185 -73 262 -149 110 -109 114 -121 114 -369 0 -201 -1 -209 -25 -259 -63
-132 -175 -227 -319 -273 -294 -93 -610 23 -732 271 l-39 79 0 186 0 185 33
61 c122 224 425 339 706 268z M6885 6990 c-344 -53 -606 -289 -696 -625 -30
-112 -31 -289 -1 -400 44 -167 118 -291 241 -407 155 -145 318 -214 531 -225
485 -24 892 384 867 867 -12 215 -80 376 -225 531 -154 165 -339 251 -563 263
-52 2 -121 1 -154 -4z m200 -290 c196 -28 359 -133 437 -281 22 -42 23 -54 23
-254 l0 -210 -39 -70 c-101 -180 -289 -285 -511 -285 -225 0 -435 120 -528
301 l-37 74 0 188 c0 185 1 189 28 245 69 144 256 267 442 291 91 12 106 12
185 1z M1088 5597 c-49 -14 -62 -22 -117 -71 -112 -102 -108 -295 9 -399 57
-52 103 -70 180 -71 238 -2 368 273 213 453 -67 79 -185 116 -285 88z m162
-187 c28 -15 29 -126 1 -159 -41 -47 -137 -47 -187 0 -20 19 -24 32 -24 80 0
62 6 69 69 90 32 10 113 4 141 -11z M9115 5596 c-272 -63 -449 -278 -448 -547
1 -257 169 -470 424 -535 87 -22 232 -15 314 16 224 85 365 288 365 525 -1
294 -223 528 -522 549 -45 4 -96 0 -133 -8z m178 -167 c92 -14 179 -56 239
-114 72 -72 78 -91 78 -259 0 -172 -10 -202 -91 -285 -127 -128 -336 -156
-515 -71 -55 27 -126 97 -163 162 -30 52 -31 55 -31 191 0 158 8 183 82 253
82 78 142 107 248 123 78 12 74 12 153 0z M2851 3871 c-27 -27 -28 -92 -3
-159 61 -161 303 -402 587 -587 454 -296 976 -485 1525 -551 196 -24 543 -24
740 0 642 77 1288 340 1745 709 103 84 260 246 309 321 76 115 98 224 55 267
-31 31 -78 21 -297 -62 -609 -231 -1057 -333 -1682 -380 -210 -17 -798 -16
-1000 0 -647 51 -1068 146 -1681 380 -219 83 -267 93 -298 62z m1032 -584
c396 -95 813 -144 1312 -154 604 -12 1126 42 1642 167 179 44 203 47 203 25 0
-8 -4 -15 -9 -15 -5 0 -17 -7 -25 -16 -77 -76 -390 -227 -671 -322 -106 -36
-362 -92 -565 -124 -126 -19 -184 -22 -440 -22 -256 0 -314 3 -440 22 -363 57
-700 162 -1004 314 -114 57 -236 139 -236 158 0 21 21 17 233 -33z M1862 3646
c-196 -48 -365 -224 -408 -425 -18 -84 -17 -139 1 -226 28 -134 118 -268 233
-347 315 -217 758 -42 847 336 68 288 -113 585 -402 660 -72 19 -197 19 -271
2z m255 -170 c111 -30 207 -95 243 -167 18 -33 20 -59 20 -207 l0 -169 -40
-55 c-82 -115 -191 -168 -344 -168 -146 0 -236 37 -321 132 -79 88 -85 107
-85 263 0 95 4 146 14 170 20 46 90 121 144 153 98 57 257 78 369 48z M7630
3205 c0 -49 28 -100 92 -166 89 -92 124 -139 175 -239 l48 -95 3 -234 c2 -142
-1 -254 -8 -285 -28 -135 -154 -319 -287 -423 -294 -229 -770 -224 -1057 10
-130 106 -233 255 -271 392 -9 33 -23 82 -31 109 -8 26 -14 66 -14 87 0 22 -4
39 -10 39 -5 0 -10 7 -10 16 0 16 -67 83 -84 84 -17 0 1 -271 23 -349 100
-345 380 -607 734 -688 109 -25 319 -22 424 5 370 96 635 362 724 729 29 116
31 304 5 418 -56 246 -202 465 -401 598 -22 15 -43 27 -47 27 -5 0 -8 -16 -8
-35z M4717 1989 c-128 -31 -206 -124 -215 -254 -6 -93 21 -158 90 -220 114
-102 266 -99 373 8 80 81 105 184 69 289 -41 123 -193 208 -317 177z m144
-192 c15 -10 19 -24 19 -75 0 -53 -4 -67 -25 -87 -20 -21 -34 -25 -84 -25 -49
0 -65 4 -90 26 -28 23 -31 31 -31 85 0 50 3 60 23 70 54 29 146 32 188 6z"/>
</g>
</svg>
