<?xml version="1.0" standalone="no"?>
<!DOCTYPE svg PUBLIC "-//W3C//DTD SVG 20010904//EN"
 "http://www.w3.org/TR/2001/REC-SVG-20010904/DTD/svg10.dtd">
<svg version="1.0" xmlns="http://www.w3.org/2000/svg"
 width="2048.000000pt" height="2048.000000pt" viewBox="0 0 2048.000000 2048.000000"
 preserveAspectRatio="xMidYMid meet">
<metadata>
Created by potrace 1.13, written by Peter Selinger 2001-2015
</metadata>
<g transform="translate(0.000000,2048.000000) scale(0.192120,-0.192120)"
fill="#000000" stroke="none">
<path d="M4995 10319 c-1391 -94 -2686 -769 -3561 -1858 -915 -1138 -1283
-2602 -1019 -4046 297 -1624 1405 -3013 2932 -3674 1123 -486 2398 -542 3558
-156 1801 600 3108 2165 3374 4040 107 751 39 1540 -194 2250 -378 1155 -1148
2120 -2195 2750 -287 173 -709 364 -1024 464 -603 192 -1253 272 -1871 230z
m880 -203 c520 -65 976 -189 1408 -382 152 -68 592 -291 667 -338 145 -91 353
-246 504 -376 589 -505 1022 -1086 1313 -1760 61 -142 91 -227 138 -398 20
-74 59 -202 86 -285 81 -248 102 -344 139 -630 17 -138 20 -215 20 -615 0
-350 -4 -487 -15 -582 -105 -851 -423 -1642 -931 -2317 -124 -164 -203 -258
-350 -414 -276 -292 -472 -457 -754 -634 -19 -12 -78 -49 -130 -82 -1249 -785
-2710 -979 -4109 -547 -523 162 -1171 502 -1569 823 -533 431 -978 985 -1292
1611 -51 102 -137 294 -167 375 -152 407 -229 707 -292 1132 -7 44 -11 287
-11 632 0 453 3 582 16 673 143 1037 638 2018 1394 2766 202 200 366 336 630
521 199 139 250 170 472 285 636 329 1224 499 1938 560 25 2 207 2 405 1 259
-2 397 -7 490 -19z M6365 9489 c-218 -28 -403 -193 -460 -409 -29 -109 -15
-266 34 -374 53 -117 180 -234 306 -282 85 -32 233 -43 316 -24 99 23 196 77
268 149 111 112 163 237 163 392 -1 155 -53 282 -161 390 -123 124 -292 181
-466 158z m242 -193 c79 -30 142 -77 192 -146 l31 -43 0 -159 c0 -185 -6 -202
-92 -290 -82 -83 -170 -117 -304 -118 -146 0 -277 67 -353 181 -50 74 -54 97
-49 251 3 112 6 126 30 163 50 77 127 133 226 166 46 16 78 18 167 15 65 -3
127 -11 152 -20z M3077 8924 c-373 -67 -669 -339 -770 -708 -19 -69 -22 -107
-22 -251 0 -147 3 -181 23 -249 69 -241 233 -455 440 -580 94 -56 244 -110
352 -127 105 -16 295 -6 395 21 347 94 609 364 697 720 30 121 30 320 -1 444
-25 106 -93 253 -155 340 -62 87 -189 204 -286 264 -197 121 -444 168 -673
126z m426 -188 c48 -14 114 -39 145 -55 143 -72 284 -210 353 -347 l44 -87 3
-257 3 -258 -31 -81 c-84 -217 -302 -408 -540 -473 -112 -30 -357 -33 -460 -4
-153 42 -333 152 -418 254 -76 91 -133 187 -157 265 -23 72 -25 93 -25 281 0
219 5 248 63 362 33 65 123 179 180 226 113 94 247 160 392 192 112 25 335 16
448 -18z M8588 8097 c-49 -14 -62 -22 -117 -71 -112 -102 -108 -295 9 -399 57
-52 103 -70 180 -71 238 -2 368 273 213 453 -67 79 -185 116 -285 88z m162
-187 c28 -15 29 -126 1 -159 -41 -47 -137 -47 -187 0 -20 19 -24 32 -24 80 0
62 6 69 69 90 32 10 113 4 141 -11z M5710 6421 c-267 -58 -503 -259 -599 -510
-43 -112 -55 -182 -54 -311 1 -141 24 -238 87 -365 108 -218 311 -379 551
-436 120 -28 323 -23 430 11 156 49 307 151 408 275 59 73 139 235 163 330 26
103 24 295 -5 400 -79 291 -297 514 -583 595 -107 31 -287 36 -398 11z m375
-176 c182 -47 348 -176 431 -335 l29 -55 0 -245 0 -245 -35 -70 c-48 -96 -188
-237 -285 -287 -221 -114 -494 -109 -711 14 -120 67 -253 223 -295 346 -26 77
-28 418 -2 484 54 139 210 295 358 358 35 15 133 41 205 54 48 9 246 -3 305
-19z M1088 5597 c-49 -14 -62 -22 -117 -71 -112 -102 -108 -295 9 -399 57 -52
103 -70 180 -71 238 -2 368 273 213 453 -67 79 -185 116 -285 88z m162 -187
c28 -15 29 -126 1 -159 -41 -47 -137 -47 -187 0 -20 19 -24 32 -24 80 0 62 6
69 69 90 32 10 113 4 141 -11z M9115 5596 c-272 -63 -449 -278 -448 -547 1
-255 168 -469 418 -534 123 -32 257 -16 381 44 188 93 304 282 304 496 -1 294
-223 528 -522 549 -45 4 -96 0 -133 -8z m178 -167 c92 -14 179 -56 239 -114
72 -72 78 -91 78 -259 0 -169 -10 -201 -86 -279 -82 -84 -185 -127 -309 -127
-161 0 -297 77 -374 212 -30 52 -31 56 -31 191 0 158 8 183 82 253 82 78 142
107 248 123 78 12 74 12 153 0z M3040 4490 c-219 -28 -401 -185 -467 -404 -24
-77 -22 -216 5 -301 59 -192 217 -341 411 -385 78 -18 231 -8 306 20 235 89
375 302 362 550 -16 324 -298 561 -617 520z m201 -184 c73 -22 130 -55 177
-100 70 -66 72 -74 72 -263 0 -192 -2 -199 -85 -284 -80 -82 -172 -119 -301
-119 -134 0 -259 56 -334 151 -64 81 -70 104 -70 258 0 134 1 138 29 182 52
80 136 144 226 172 65 19 226 21 286 3z M6941 3365 c-495 -112 -821 -554 -771
-1045 44 -424 344 -762 763 -857 109 -25 319 -22 424 5 370 96 635 362 724
729 29 116 31 304 5 418 -81 356 -333 626 -682 731 -76 23 -111 27 -244 30
-110 3 -174 -1 -219 -11z m335 -160 c175 -30 281 -76 410 -180 91 -72 168
-169 216 -270 l33 -70 0 -270 0 -270 -47 -95 c-156 -314 -487 -490 -846 -451
-300 32 -526 183 -670 446 -55 100 -62 143 -62 371 0 199 2 217 24 278 13 36
39 91 57 123 42 70 175 207 250 256 183 121 415 169 635 132z M4430 1987
c-120 -34 -196 -123 -207 -245 -8 -87 17 -153 81 -217 79 -79 168 -101 275
-69 153 45 236 234 167 379 -56 118 -196 185 -316 152z m151 -188 c39 -21 33
-137 -10 -170 -21 -17 -37 -20 -88 -17 -82 5 -113 35 -113 108 0 54 15 76 58
86 15 3 32 7 37 9 15 6 97 -6 116 -16z"/>
</g>
</svg>
