<?xml version="1.0" standalone="no"?>
<!DOCTYPE svg PUBLIC "-//W3C//DTD SVG 20010904//EN"
 "http://www.w3.org/TR/2001/REC-SVG-20010904/DTD/svg10.dtd">
<svg version="1.0" xmlns="http://www.w3.org/2000/svg"
 width="2048.000000pt" height="2048.000000pt" viewBox="0 0 2048.000000 2048.000000"
 preserveAspectRatio="xMidYMid meet">
<metadata>
Created by potrace 1.13, written by Peter Selinger 2001-2015
</metadata>
<g transform="translate(0.000000,2048.000000) scale(0.192120,-0.192120)"
fill="#000000" stroke="none">
<path d="M5065 10323 c-708 -42 -1346 -211 -1965 -519 -1292 -644 -2245 -1819
-2610 -3219 -264 -1014 -198 -2105 187 -3085 398 -1015 1140 -1892 2079 -2456
1249 -750 2770 -918 4149 -459 1801 600 3108 2165 3374 4040 107 751 39 1540
-194 2250 -423 1290 -1337 2344 -2550 2940 -607 299 -1234 465 -1905 505 -151
9 -442 11 -565 3z m385 -77 c41 -28 77 -53 80 -56 19 -19 74 -30 205 -40 983
-75 1967 -483 2719 -1130 519 -445 912 -942 1199 -1515 252 -506 407 -1009
477 -1558 17 -138 20 -215 20 -615 0 -350 -4 -487 -15 -582 -105 -851 -423
-1642 -931 -2317 -587 -779 -1389 -1362 -2299 -1673 -364 -124 -743 -204
-1135 -241 -69 -6 -126 -15 -128 -20 -2 -5 -21 -9 -43 -9 -21 0 -39 -4 -39
-10 0 -5 -6 -10 -14 -10 -7 0 -56 -29 -109 -65 -53 -36 -98 -65 -101 -65 -4 0
-6 2246 -6 4990 l0 4991 23 -12 c12 -7 56 -35 97 -63z m-370 -186 c0 -13 7
-20 20 -20 20 0 20 -7 20 -409 0 -319 3 -410 13 -414 9 -3 12 -762 12 -3752 0
-2990 -3 -3749 -12 -3753 -10 -3 -13 -115 -13 -518 0 -507 0 -514 -20 -514
-17 0 -20 -7 -20 -40 l0 -40 -58 0 c-76 0 -378 35 -522 60 -788 139 -1456 433
-2147 947 -520 387 -1011 997 -1320 1642 -233 485 -391 1034 -443 1538 -8 70
-10 284 -8 608 4 457 6 512 27 640 97 612 265 1102 557 1630 269 485 620 916
1044 1280 174 150 223 187 415 315 674 449 1410 719 2175 799 58 6 119 13 135
15 17 1 56 4 88 5 51 1 57 -1 57 -19z M7243 8926 c-248 -48 -475 -191 -619
-392 -62 -87 -130 -234 -155 -340 -31 -126 -32 -323 -1 -447 88 -353 351 -623
697 -717 100 -27 290 -37 395 -21 374 58 684 335 792 707 20 69 23 101 23 249
0 188 -11 245 -70 386 -115 272 -367 488 -655 559 -110 27 -307 35 -407 16z
m369 -176 c103 -23 210 -67 293 -123 87 -59 204 -181 247 -259 67 -125 70
-138 66 -415 l-3 -248 -41 -85 c-79 -166 -216 -304 -379 -385 -142 -70 -192
-80 -390 -79 -154 0 -178 3 -251 26 -203 65 -346 174 -464 355 -26 39 -60 105
-74 146 -27 73 -27 75 -24 308 l3 234 36 75 c113 235 323 395 599 454 97 21
278 19 382 -4z M9413 5592 c-90 -32 -149 -89 -178 -173 -63 -177 75 -366 265
-363 78 1 123 19 180 71 60 53 90 121 90 203 0 82 -30 150 -90 203 -77 70
-175 92 -267 59z m146 -175 c41 -14 54 -49 45 -114 -10 -70 -63 -100 -145 -82
-21 5 -50 19 -64 31 -21 18 -25 30 -25 79 0 50 3 60 22 70 55 30 112 35 167
16z M7473 4489 c-170 -22 -335 -139 -412 -293 -84 -167 -82 -351 4 -516 91
-172 259 -278 456 -288 114 -5 175 7 274 54 134 63 241 190 287 339 27 85 29
224 6 301 -83 272 -337 439 -615 403z m239 -188 c61 -19 159 -92 195 -145 l33
-48 0 -159 c0 -186 -7 -207 -94 -294 -86 -86 -190 -121 -331 -112 -92 6 -170
33 -233 82 -47 36 -107 110 -122 150 -6 15 -10 93 -10 174 0 145 0 148 29 192
47 75 135 137 231 165 54 16 246 12 302 -5z M6107 1989 c-224 -55 -294 -321
-124 -476 179 -165 476 -17 454 227 -6 68 -44 147 -89 185 -66 56 -166 83
-241 64z m138 -191 c23 -10 25 -16 25 -78 0 -56 -3 -70 -22 -87 -46 -42 -135
-38 -184 8 -20 19 -24 32 -24 80 0 50 3 60 23 70 54 30 127 32 182 7z M4383
9205 c-258 -56 -437 -278 -437 -540 0 -215 112 -398 301 -493 359 -179 775 59
800 458 17 274 -170 518 -442 575 -85 18 -140 18 -222 0z m262 -126 c107 -27
203 -93 257 -178 l28 -45 0 -183 c0 -179 -1 -185 -26 -236 -31 -59 -97 -125
-170 -167 -130 -76 -320 -80 -464 -11 -71 34 -174 136 -206 204 -22 48 -24 64
-24 202 0 168 8 195 74 274 67 80 194 144 306 154 59 6 175 -2 225 -14z M1940
8099 c-132 -26 -231 -160 -217 -295 15 -144 132 -249 276 -247 78 0 125 19
182 70 65 59 84 104 84 203 0 68 -5 93 -22 125 -58 108 -184 168 -303 144z
m162 -134 c51 -25 61 -49 57 -143 -4 -87 -16 -110 -74 -140 -64 -33 -194 -12
-241 39 -20 22 -32 136 -20 184 18 72 180 107 278 60z M3518 6705 c-347 -66
-612 -334 -673 -680 -19 -110 -19 -170 0 -280 31 -179 104 -316 239 -450 257
-255 642 -312 967 -144 298 155 466 469 437 818 -18 213 -132 425 -303 564
-77 62 -239 141 -335 162 -105 23 -240 27 -332 10z m376 -135 c191 -49 366
-190 453 -368 l28 -57 0 -260 0 -260 -34 -65 c-51 -99 -103 -163 -193 -235
-93 -75 -213 -136 -308 -156 -92 -20 -298 -17 -380 5 -174 46 -335 162 -448
322 -12 17 -35 66 -52 108 l-31 77 3 222 3 222 38 75 c106 211 304 350 552
390 89 14 277 4 369 -20z M1365 5599 c-172 -21 -340 -140 -415 -294 -159 -324
12 -698 360 -790 120 -32 253 -16 379 46 142 70 246 196 286 349 23 85 19 232
-8 311 -88 259 -331 411 -602 378z m201 -120 c114 -21 247 -117 293 -212 19
-39 21 -61 21 -218 0 -173 0 -174 -29 -224 -122 -214 -434 -288 -665 -159 -59
33 -143 119 -172 176 -22 44 -24 58 -24 213 0 193 7 215 94 300 119 116 289
159 482 124z M3905 3646 c-197 -38 -371 -130 -511 -270 -338 -339 -378 -876
-93 -1263 246 -333 689 -473 1084 -342 683 226 889 1096 381 1605 -120 120
-276 210 -441 254 -103 28 -317 36 -420 16z m361 -117 c274 -49 506 -220 622
-458 l37 -76 0 -300 0 -300 -42 -86 c-56 -115 -119 -195 -211 -272 -95 -79
-139 -107 -229 -145 -114 -49 -210 -66 -363 -66 -136 0 -204 10 -315 46 -200
64 -418 257 -501 443 -53 121 -54 126 -54 378 0 268 4 287 81 423 125 218 350
370 619 417 52 9 299 7 356 -4z"/>
</g>
</svg>
