<?xml version="1.0" standalone="no"?>
<!DOCTYPE svg PUBLIC "-//W3C//DTD SVG 20010904//EN"
 "http://www.w3.org/TR/2001/REC-SVG-20010904/DTD/svg10.dtd">
<svg version="1.0" xmlns="http://www.w3.org/2000/svg"
 width="2048.000000pt" height="2048.000000pt" viewBox="0 0 2048.000000 2048.000000"
 preserveAspectRatio="xMidYMid meet">
<metadata>
Created by potrace 1.13, written by Peter Selinger 2001-2015
</metadata>
<g transform="translate(0.000000,2048.000000) scale(0.192120,-0.192120)"
fill="#000000" stroke="none">
<path d="M5545 10319 c-344 -42 -673 -181 -938 -396 -98 -80 -252 -245 -330
-354 -110 -154 -222 -391 -267 -566 l-11 -43 -72 49 c-131 89 -281 151 -447
187 -126 27 -362 24 -495 -5 -441 -99 -795 -422 -929 -850 -46 -146 -59 -248
-53 -416 6 -154 24 -255 67 -366 11 -30 20 -57 20 -60 0 -3 -44 5 -97 19 -87
22 -119 25 -278 26 -139 0 -199 -4 -265 -18 -559 -121 -973 -534 -1092 -1089
-29 -137 -31 -387 -4 -527 108 -555 511 -968 1079 -1107 68 -17 261 -18 3462
-21 3352 -3 3392 -2 3530 18 798 114 1467 650 1761 1410 45 117 99 328 121
470 24 159 24 473 0 630 -146 947 -839 1679 -1767 1864 -318 64 -665 56 -960
-21 -52 -14 -104 -27 -115 -30 -18 -4 -24 4 -39 52 -44 141 -175 359 -314 525
-253 302 -644 528 -1042 600 -134 24 -401 34 -525 19z m486 -184 c279 -42 556
-164 784 -346 77 -61 252 -240 288 -293 85 -128 118 -181 156 -256 70 -136
118 -197 183 -231 47 -24 106 -24 240 0 232 43 512 51 734 21 287 -40 606
-160 854 -322 440 -287 740 -703 865 -1198 25 -97 25 -105 25 -507 l0 -409
-29 -115 c-88 -351 -253 -644 -521 -922 -161 -168 -321 -288 -525 -393 -251
-129 -458 -192 -735 -224 -53 -6 -1354 -10 -3430 -10 -2978 -1 -3354 0 -3430
14 -459 83 -824 394 -977 831 -28 80 -28 81 -31 377 l-3 297 31 92 c121 362
411 649 780 773 167 55 265 68 505 64 253 -4 257 -3 317 77 l38 50 0 368 0
368 26 77 c85 255 284 477 544 608 177 88 307 117 530 117 152 0 174 -2 282
-31 65 -17 164 -52 220 -77 191 -88 231 -91 302 -20 43 44 72 95 144 260 141
325 402 604 732 783 198 108 446 178 690 196 89 6 308 -4 411 -19z M3465 4480
c-71 -35 -69 -28 -75 -391 l-5 -326 -220 129 c-350 205 -367 212 -436 165 -68
-45 -85 -132 -39 -196 11 -16 128 -89 289 -181 175 -100 267 -158 259 -163 -7
-4 -132 -76 -277 -159 -255 -146 -264 -152 -283 -196 -42 -94 23 -192 128
-192 37 0 170 72 477 257 48 29 92 53 97 53 6 0 10 -120 10 -316 0 -300 1
-318 20 -349 22 -36 73 -65 115 -65 37 0 98 36 118 70 15 25 17 68 17 344 0
174 3 316 6 316 4 0 127 -70 273 -155 283 -164 307 -173 369 -141 84 43 103
152 38 217 -13 14 -142 92 -286 174 -173 99 -257 152 -248 158 7 4 128 73 268
152 140 80 263 155 272 166 10 12 22 39 28 60 14 52 -14 119 -62 149 -64 40
-96 29 -368 -130 -135 -78 -255 -149 -267 -158 l-23 -14 0 325 0 325 -27 33
c-27 32 -77 59 -110 59 -10 0 -36 -9 -58 -20z m127 -837 c45 -37 46 -40 54
-101 5 -45 3 -62 -16 -99 -23 -46 -70 -83 -105 -83 -32 0 -82 36 -110 79 -44
70 -29 146 39 200 50 40 93 41 138 4z M9021 4483 c-19 -10 -44 -31 -55 -46
-20 -27 -21 -43 -24 -352 l-3 -324 -112 67 c-62 38 -185 110 -275 161 -151 87
-165 93 -206 89 -24 -3 -55 -14 -69 -24 -65 -47 -75 -151 -21 -205 16 -15 144
-93 284 -173 140 -80 254 -149 252 -153 -1 -5 -120 -76 -264 -158 -285 -163
-308 -182 -308 -258 0 -49 31 -102 73 -123 64 -33 101 -19 379 145 142 83 260
151 263 151 3 0 5 -138 5 -307 0 -273 2 -312 18 -342 26 -52 65 -76 122 -76
57 0 96 24 122 76 16 30 18 69 18 342 0 169 2 307 5 307 2 0 112 -62 242 -139
131 -76 252 -146 270 -155 95 -48 203 19 203 127 0 69 -27 91 -310 254 -146
84 -263 156 -260 160 2 4 117 73 255 152 137 79 258 151 269 160 46 40 58 108
31 164 -22 45 -60 70 -114 74 -44 4 -58 -3 -305 -146 -142 -83 -265 -156 -272
-162 -12 -10 -14 39 -14 302 0 279 -2 318 -18 348 -35 70 -116 98 -181 64z
m125 -843 c33 -24 43 -39 52 -80 14 -62 15 -90 3 -90 -5 0 -15 -16 -23 -36
-14 -39 -61 -74 -99 -74 -30 0 -99 45 -99 65 0 7 -7 21 -16 30 -13 12 -15 30
-12 76 4 51 9 65 34 88 64 60 101 65 160 21z M6241 4202 c-19 -9 -44 -30 -55
-45 -20 -27 -21 -41 -21 -348 0 -175 -3 -319 -7 -319 -4 0 -36 17 -70 38 -35
21 -155 92 -267 156 -200 116 -205 118 -254 113 -42 -4 -56 -10 -84 -40 -18
-20 -35 -48 -39 -62 -9 -37 4 -91 29 -120 12 -13 138 -91 281 -172 142 -82
259 -152 260 -156 0 -5 -118 -76 -263 -160 -147 -85 -273 -163 -284 -178 -82
-113 51 -267 176 -203 18 9 140 80 272 157 132 77 242 141 245 143 3 1 4 -134
2 -301 -4 -293 -4 -305 17 -347 25 -53 70 -81 127 -81 50 0 87 21 114 66 19
30 20 52 20 351 l0 318 23 -14 c128 -84 518 -301 547 -305 79 -11 150 54 150
137 0 77 -18 93 -277 241 -131 75 -253 144 -272 154 -18 9 -29 20 -25 25 5 4
124 73 264 153 140 80 266 157 279 171 32 34 40 110 17 155 -34 65 -121 90
-189 55 -18 -9 -139 -79 -270 -155 -130 -77 -239 -139 -242 -139 -2 0 -6 146
-7 324 l-3 324 -25 27 c-52 56 -108 68 -169 37z m91 -814 c59 -31 79 -56 91
-113 10 -49 9 -60 -6 -87 -9 -16 -17 -36 -17 -43 0 -18 -51 -54 -87 -61 -39
-7 -103 36 -127 88 -23 49 -18 128 10 159 23 26 84 68 100 68 7 1 22 -5 36
-11z M1242 3370 c-34 -15 -47 -29 -64 -66 -20 -45 -20 -60 -16 -351 2 -167 2
-303 0 -303 -2 0 -16 8 -30 18 -15 10 -134 81 -265 157 -267 154 -296 164
-357 123 -66 -44 -87 -124 -50 -185 23 -38 29 -42 328 -213 203 -116 254 -150
224 -150 -20 0 -520 -294 -539 -318 -48 -58 -42 -125 16 -184 34 -33 44 -38
86 -38 43 0 69 12 249 117 111 64 229 134 264 155 34 21 66 38 70 38 4 0 6
-126 4 -279 -3 -154 -1 -301 3 -327 12 -82 93 -139 170 -120 14 4 43 22 63 41
l37 33 3 326 c1 179 5 326 7 326 3 0 112 -62 242 -139 131 -76 252 -146 270
-155 69 -35 155 -9 189 55 23 45 15 121 -17 155 -13 14 -139 91 -279 171 -140
80 -259 148 -264 153 -4 4 2 13 15 20 13 7 136 76 272 153 270 154 287 169
287 247 0 81 -54 135 -135 135 -46 0 -69 -11 -295 -144 -135 -79 -255 -150
-267 -159 l-23 -14 0 318 c0 299 -1 321 -20 351 -39 65 -108 86 -178 53z m106
-824 c47 -24 69 -58 77 -113 6 -44 3 -61 -15 -99 -24 -49 -69 -84 -109 -84
-35 0 -87 36 -101 70 -7 17 -16 30 -21 30 -13 0 -11 81 2 118 13 37 83 92 116
92 13 0 36 -6 51 -14z M4037 2265 c-48 -16 -62 -28 -81 -69 -14 -29 -16 -81
-16 -346 l0 -312 -23 15 c-13 8 -133 79 -267 157 -154 90 -256 144 -279 147
-47 5 -98 -21 -129 -67 -28 -42 -27 -112 4 -153 10 -14 139 -94 286 -179 148
-84 268 -155 267 -158 0 -3 -120 -73 -267 -156 -291 -165 -312 -183 -312 -258
0 -80 59 -136 141 -136 36 0 77 20 278 137 130 75 248 145 263 155 14 10 29
18 32 18 3 0 6 -141 6 -312 0 -295 1 -315 20 -346 57 -94 183 -94 240 0 19 31
20 51 20 346 0 171 2 312 5 312 2 0 33 -17 67 -38 35 -21 154 -91 264 -155
170 -99 208 -117 243 -117 82 0 141 56 141 136 0 75 -22 94 -304 255 -142 82
-263 150 -270 153 -15 7 -18 5 264 166 134 77 257 153 273 169 42 41 48 112
15 161 -30 45 -82 72 -129 67 -29 -4 -418 -221 -546 -305 l-23 -14 0 314 c0
286 -2 316 -19 348 -32 60 -101 87 -164 65z m106 -842 c45 -32 57 -56 57 -122
0 -88 -55 -161 -122 -161 -38 0 -87 37 -109 84 -18 36 -20 53 -15 100 7 52 11
59 53 91 55 42 84 44 136 8z M7653 2269 c-43 -12 -91 -62 -98 -102 -4 -18 -5
-166 -3 -330 2 -163 3 -297 2 -297 -1 0 -122 70 -269 156 -170 99 -281 158
-304 161 -47 5 -99 -22 -129 -67 -33 -48 -27 -118 13 -160 16 -17 145 -96 287
-177 142 -80 258 -149 258 -152 -1 -3 -120 -73 -266 -156 -166 -94 -273 -160
-286 -178 -29 -40 -34 -96 -12 -142 23 -48 67 -75 124 -75 41 0 74 16 304 151
142 83 263 152 270 155 8 3 10 -77 8 -303 -2 -279 -1 -311 15 -343 52 -101
184 -105 243 -8 19 31 20 51 20 346 0 171 2 312 5 312 3 0 22 -11 43 -23 20
-13 139 -83 264 -155 190 -110 235 -132 268 -132 81 0 140 57 140 136 0 76
-22 94 -305 256 -143 82 -263 152 -267 156 -4 4 114 77 263 162 159 91 276
165 287 180 11 16 17 44 17 82 0 49 -4 61 -29 87 -35 37 -86 55 -129 46 -18
-3 -149 -75 -292 -159 l-260 -153 -5 321 c-4 285 -7 325 -23 349 -30 46 -99
71 -154 56z m105 -849 c44 -33 47 -39 56 -111 6 -37 2 -53 -20 -92 -43 -77
-102 -96 -165 -53 -51 35 -73 90 -64 160 6 52 10 59 52 91 56 43 87 44 141 5z"/>
</g>
</svg>
