<?xml version="1.0" standalone="no"?>
<!DOCTYPE svg PUBLIC "-//W3C//DTD SVG 20010904//EN"
 "http://www.w3.org/TR/2001/REC-SVG-20010904/DTD/svg10.dtd">
<svg version="1.0" xmlns="http://www.w3.org/2000/svg"
 width="2048.000000pt" height="2048.000000pt" viewBox="0 0 2048.000000 2048.000000"
 preserveAspectRatio="xMidYMid meet">
<metadata>
Created by potrace 1.13, written by Peter Selinger 2001-2015
</metadata>
<g transform="translate(0.000000,2048.000000) scale(0.192120,-0.192120)"
fill="#000000" stroke="none">
<path d="M5545 10319 c-344 -42 -673 -181 -938 -396 -98 -80 -252 -245 -330
-354 -110 -154 -222 -391 -267 -566 l-11 -43 -72 49 c-131 89 -281 151 -447
187 -126 27 -362 24 -495 -5 -441 -99 -795 -422 -929 -850 -46 -146 -59 -248
-53 -416 6 -154 24 -255 67 -366 11 -30 20 -57 20 -60 0 -3 -44 5 -97 19 -87
22 -119 25 -278 26 -139 0 -199 -4 -265 -18 -559 -121 -973 -534 -1092 -1089
-29 -137 -31 -387 -4 -527 108 -555 511 -968 1079 -1107 68 -17 261 -18 3462
-21 3352 -3 3392 -2 3530 18 798 114 1467 650 1761 1410 45 117 99 328 121
470 24 159 24 473 0 630 -146 947 -839 1679 -1767 1864 -318 64 -665 56 -960
-21 -52 -14 -104 -27 -115 -30 -18 -4 -24 4 -39 52 -44 141 -175 359 -314 525
-253 302 -644 528 -1042 600 -134 24 -401 34 -525 19z m486 -184 c279 -42 556
-164 784 -346 77 -61 252 -240 288 -293 85 -128 118 -181 156 -256 70 -136
118 -197 183 -231 47 -24 106 -24 240 0 232 43 512 51 734 21 287 -40 606
-160 854 -322 440 -287 740 -703 865 -1198 25 -97 25 -105 25 -507 l0 -409
-29 -115 c-120 -476 -399 -876 -831 -1189 -93 -67 -323 -186 -452 -234 -105
-39 -250 -78 -387 -104 -78 -15 -389 -17 -3426 -22 -1837 -3 -3387 -1 -3444 3
-249 20 -481 114 -691 282 -165 131 -311 343 -387 560 -28 80 -28 81 -31 377
l-3 297 31 92 c121 362 411 649 780 773 167 55 265 68 505 64 253 -4 257 -3
317 77 l38 50 0 368 0 368 26 77 c85 255 284 477 544 608 177 88 307 117 530
117 152 0 174 -2 282 -31 65 -17 164 -52 220 -77 191 -88 231 -91 302 -20 43
44 72 95 144 260 141 325 402 604 732 783 198 108 446 178 690 196 89 6 308
-4 411 -19z M3220 4103 c-442 -264 -488 -295 -550 -368 -88 -107 -125 -225
-117 -374 6 -117 31 -191 94 -284 98 -145 253 -232 433 -244 255 -16 486 146
560 393 22 76 23 87 16 314 -3 129 -9 359 -12 510 -4 151 -9 280 -13 285 -3 6
-184 -96 -411 -232z m190 -515 l0 -343 -28 -42 c-51 -78 -131 -121 -240 -130
-133 -11 -272 50 -332 144 -29 46 -30 51 -30 172 0 142 5 156 89 223 63 52
508 316 534 318 4 0 7 -154 7 -342z M6659 4330 c-15 -11 -204 -125 -420 -254
-297 -176 -410 -248 -460 -295 -205 -189 -226 -501 -51 -734 41 -54 126 -123
190 -156 63 -32 185 -61 256 -61 200 1 401 124 490 300 55 110 60 151 52 440
-3 140 -9 373 -13 518 -3 144 -9 262 -12 262 -3 0 -18 -9 -32 -20z m-189 -753
l0 -342 -35 -47 c-25 -34 -52 -55 -102 -80 -61 -30 -76 -33 -158 -33 -143 0
-250 52 -305 148 -29 50 -30 57 -30 176 l0 123 63 62 c44 43 118 94 247 171
228 135 302 175 312 169 4 -3 8 -159 8 -347z M1241 3246 c-358 -216 -442 -271
-485 -316 -96 -104 -146 -231 -146 -370 0 -235 143 -441 366 -526 92 -36 239
-44 334 -19 191 49 339 196 396 391 18 63 18 24 -2 842 -5 180 -11 262 -18
261 -6 -1 -206 -119 -445 -263z m229 -499 l0 -344 -30 -42 c-63 -86 -165 -127
-299 -119 -126 7 -236 71 -280 162 -18 35 -21 61 -21 158 0 137 9 156 110 231
85 63 480 296 503 297 16 0 17 -23 17 -343z M8150 3392 c-107 -64 -301 -180
-430 -256 -273 -162 -335 -216 -394 -338 -177 -372 94 -798 507 -798 243 0
445 146 522 375 24 72 27 91 26 234 -1 86 -5 269 -11 406 -5 138 -10 305 -10
373 0 67 -3 122 -7 122 -5 0 -96 -53 -203 -118z m-20 -645 l0 -344 -30 -42
c-63 -86 -165 -127 -299 -119 -128 7 -237 71 -280 163 -17 37 -21 64 -21 158
0 110 1 115 29 155 38 52 114 105 341 237 102 60 194 114 205 121 11 7 28 13
38 13 16 1 17 -22 17 -342z M4890 3159 c-69 -42 -264 -159 -433 -260 -194
-115 -325 -200 -354 -229 -105 -103 -154 -212 -161 -359 -8 -171 42 -306 157
-420 206 -206 505 -227 743 -54 54 39 132 138 160 203 51 117 52 130 38 610
-7 245 -15 477 -19 515 l-6 71 -125 -77z m-90 -682 l0 -342 -35 -52 c-27 -41
-48 -58 -100 -84 -163 -80 -371 -33 -462 105 -33 48 -33 49 -33 174 0 143 5
157 89 224 63 52 508 316 534 318 4 0 7 -154 7 -343z M2955 2201 c-60 -38
-255 -154 -432 -260 -274 -163 -329 -200 -377 -252 -98 -106 -146 -227 -146
-368 0 -243 141 -442 375 -531 82 -31 226 -38 315 -16 159 40 295 147 364 287
59 120 61 149 48 597 -7 219 -12 445 -12 505 0 79 -3 107 -12 106 -7 0 -62
-31 -123 -68z m-95 -693 l0 -343 -38 -49 c-54 -71 -132 -108 -238 -114 -140
-7 -256 44 -321 142 -33 48 -33 49 -33 176 l0 127 39 44 c21 24 63 61 92 81
96 66 463 278 482 278 16 0 17 -23 17 -342z M5990 1745 c-360 -214 -436 -263
-496 -321 -185 -179 -216 -462 -75 -683 42 -64 142 -158 208 -194 67 -36 191
-67 267 -67 261 1 493 191 541 444 11 60 11 146 -3 572 l-17 501 -425 -252z
m210 -498 c0 -330 0 -333 -24 -377 -90 -172 -385 -200 -540 -52 -62 59 -76
100 -76 225 0 138 14 165 130 248 83 60 478 289 497 289 10 0 13 -67 13 -333z"/>
</g>
</svg>
