<?xml version="1.0" standalone="no"?>
<!DOCTYPE svg PUBLIC "-//W3C//DTD SVG 20010904//EN"
 "http://www.w3.org/TR/2001/REC-SVG-20010904/DTD/svg10.dtd">
<svg version="1.0" xmlns="http://www.w3.org/2000/svg"
 width="2048.000000pt" height="2048.000000pt" viewBox="0 0 2048.000000 2048.000000"
 preserveAspectRatio="xMidYMid meet">
<metadata>
Created by potrace 1.13, written by Peter Selinger 2001-2015
</metadata>
<g transform="translate(0.000000,2048.000000) scale(0.192120,-0.192120)"
fill="#000000" stroke="none">
<path d="M5625 10324 c-819 -39 -1323 -98 -1870 -221 -882 -197 -1524 -547
-1718 -938 -79 -158 -102 -291 -94 -538 6 -187 28 -320 87 -522 156 -537 557
-1221 1034 -1765 56 -63 245 -261 421 -440 392 -398 507 -530 633 -722 60 -93
152 -270 182 -353 91 -250 130 -413 161 -671 35 -299 16 -688 -51 -1039 -97
-503 -317 -1122 -566 -1594 -30 -57 -53 -105 -52 -106 2 -1 26 -14 53 -28 28
-14 59 -32 69 -40 17 -12 25 -12 65 1 32 11 89 16 186 16 120 1 151 -2 215
-22 110 -35 220 -96 294 -163 l65 -60 15 29 c32 62 129 172 198 224 132 101
270 156 413 165 l90 6 65 55 c150 126 373 338 526 499 744 788 1408 1743 2092
3007 271 502 421 865 567 1371 271 941 372 2020 245 2631 -49 237 -134 391
-314 569 -346 341 -945 550 -1806 631 -127 12 -306 17 -655 19 -264 1 -511 1
-550 -1z m1170 -204 c450 -32 1004 -119 1140 -179 49 -22 313 -186 329 -205 6
-7 29 -25 51 -41 60 -44 231 -212 280 -275 23 -30 62 -91 86 -135 25 -44 72
-109 107 -145 34 -35 62 -73 62 -83 0 -34 -81 -183 -145 -269 -279 -372 -780
-657 -1550 -883 -586 -172 -1364 -311 -2210 -394 -110 -11 -271 -27 -358 -36
-441 -43 -602 -124 -512 -257 30 -45 105 -82 212 -106 247 -55 1356 23 2183
154 1086 172 1820 435 2334 838 54 42 100 75 103 72 3 -2 -16 -55 -42 -118
-72 -173 -91 -246 -125 -468 -33 -222 -72 -430 -95 -507 -8 -26 -18 -100 -21
-163 -6 -98 -4 -125 14 -186 l20 -71 -56 -63 c-173 -194 -480 -411 -807 -570
-505 -246 -1017 -375 -1787 -450 -316 -31 -450 -65 -520 -131 -32 -30 -38 -43
-38 -76 0 -185 366 -248 1030 -177 642 68 1171 216 1689 474 108 54 197 97
198 96 1 0 -52 -69 -118 -151 -66 -83 -139 -180 -162 -217 -23 -37 -90 -143
-150 -235 -59 -92 -156 -265 -216 -383 -60 -118 -148 -280 -196 -360 -141
-234 -185 -328 -204 -439 l-16 -96 -70 -47 c-93 -64 -323 -176 -465 -228 -370
-136 -700 -202 -1225 -245 -269 -22 -369 -45 -442 -100 -38 -30 -52 -80 -33
-125 26 -63 151 -135 309 -178 95 -26 100 -26 431 -26 358 -1 467 8 749 60 74
14 138 23 142 22 5 -2 -57 -51 -136 -111 -128 -95 -165 -130 -322 -304 -379
-420 -566 -613 -710 -733 -120 -99 -164 -122 -308 -160 -155 -40 -261 -92
-390 -190 -122 -93 -143 -98 -241 -51 -106 50 -213 82 -330 98 -147 21 -147
20 -60 231 54 130 64 197 47 316 -6 44 -9 81 -7 83 2 3 24 -8 48 -23 252 -160
752 -246 1028 -177 115 28 203 82 236 145 8 15 14 49 14 76 0 40 -5 53 -27 74
-49 46 -109 60 -363 83 -321 30 -443 78 -613 243 -83 81 -147 169 -130 180 39
27 106 90 122 116 29 46 58 170 86 361 20 137 25 210 25 373 0 128 -4 202 -10
202 -5 0 -10 10 -10 23 0 12 -21 60 -45 106 -25 46 -43 86 -41 88 3 3 53 -6
113 -20 246 -59 451 -84 758 -93 292 -9 801 22 985 61 270 57 470 204 422 310
-12 26 -67 58 -122 70 -19 5 -271 9 -560 10 -563 2 -650 7 -967 60 -269 45
-520 125 -679 216 -75 43 -76 44 -69 79 3 19 8 69 11 111 6 70 3 82 -27 155
-107 256 -377 612 -583 765 -44 34 -143 99 -219 146 -76 47 -136 88 -133 90 2
3 76 -7 163 -21 578 -94 1154 -96 1728 -5 277 44 718 144 1031 233 331 95 631
255 691 370 20 39 3 79 -45 103 -30 15 -60 18 -157 17 -131 -1 -272 -22 -521
-78 -388 -88 -856 -155 -1289 -186 -192 -13 -681 -13 -850 0 -587 47 -1077
183 -1421 396 l-71 44 -12 87 c-15 108 -39 166 -145 357 -104 187 -190 358
-246 491 -100 238 -126 289 -205 405 -110 162 -108 154 -28 123 379 -146 780
-221 1403 -265 356 -24 1258 -13 1745 23 1108 80 2015 364 2369 739 114 122
166 241 166 381 0 131 -53 243 -164 346 -301 282 -1097 358 -2406 227 -560
-55 -965 -125 -1145 -196 -66 -26 -135 -85 -135 -115 0 -58 102 -91 305 -100
140 -6 258 0 795 37 886 61 1525 47 1880 -41 194 -48 290 -112 290 -192 0 -48
-78 -116 -202 -176 -342 -167 -1042 -308 -1793 -361 -999 -70 -1994 -37 -2530
85 -239 54 -469 143 -553 213 l-34 28 58 49 c32 28 111 102 174 166 126 126
275 232 453 324 81 42 99 48 107 35 8 -12 14 -12 45 3 20 9 45 17 57 17 23 0
22 -10 -11 -100 -13 -36 -20 -80 -21 -128 0 -61 5 -82 29 -131 33 -64 101
-130 171 -166 65 -33 217 -79 355 -108 115 -25 253 -43 510 -68 162 -16 858
-16 1120 -1 469 29 1089 102 1236 147 158 48 249 120 249 198 0 51 -34 98 -92
125 -64 30 -101 37 -45 8 113 -56 134 -109 68 -169 -84 -75 -222 -115 -571
-162 -547 -73 -914 -99 -1410 -99 -512 -1 -784 24 -1075 99 -431 111 -581 294
-390 479 143 139 421 252 925 375 530 129 1099 208 1725 241 207 10 815 5
1020 -10z m0 -455 c392 -36 691 -141 792 -277 21 -29 23 -42 23 -153 0 -121 0
-121 -36 -181 -219 -365 -1178 -677 -2329 -758 -643 -46 -1454 -48 -1925 -6
-390 35 -718 93 -945 165 -181 58 -185 63 -185 216 0 62 3 79 14 79 8 0 68
-20 134 -44 280 -103 584 -159 1092 -202 252 -22 1108 -25 1465 -6 921 50
1609 165 2060 347 171 69 266 151 320 275 70 158 -56 337 -287 410 -38 11
-203 48 -248 55 -42 6 -131 23 -210 39 -41 9 -85 16 -97 16 -13 0 -23 6 -23
14 0 11 14 16 48 18 68 4 255 0 337 -7z m1921 -1394 c-47 -91 -343 -274 -662
-410 -360 -153 -994 -325 -1429 -386 -22 -3 -65 -10 -96 -16 -31 -5 -74 -11
-95 -14 -22 -2 -59 -7 -84 -10 -287 -38 -370 -47 -461 -50 -58 -2 -117 -7
-132 -10 -29 -8 -54 2 -40 16 5 5 25 11 44 13 19 2 81 14 139 26 58 12 114 24
125 25 11 2 45 9 75 15 30 6 138 27 240 46 680 129 1251 307 1672 521 256 130
410 235 618 422 l95 86 3 -123 c2 -93 -1 -129 -12 -151z m-3046 -897 c0 -17
-22 -14 -28 4 -2 7 3 12 12 12 9 0 16 -7 16 -16z m-2168 -989 c319 -87 702
-129 1163 -128 333 0 574 15 915 59 107 13 215 27 240 30 25 3 59 7 75 9 17 2
53 6 80 10 28 3 60 8 73 11 17 3 22 0 22 -17 0 -16 -5 -20 -20 -16 -11 3 -20
1 -20 -4 0 -5 -9 -9 -20 -9 -11 0 -20 -4 -20 -8 0 -5 -6 -9 -12 -9 -7 -1 -69
-15 -138 -32 -69 -18 -134 -34 -145 -36 -11 -2 -54 -11 -95 -20 -138 -30 -157
-34 -327 -59 -268 -39 -419 -50 -723 -50 -282 1 -439 10 -679 40 -220 28 -357
74 -440 150 -37 32 -71 81 -71 99 0 11 52 4 142 -20z m2604 -33 c-4 -3 -12 0
-19 7 -9 9 -9 14 3 21 11 7 16 5 18 -6 2 -9 1 -18 -2 -22z m44 22 c0 -8 -5
-12 -10 -9 -6 4 -8 11 -5 16 9 14 15 11 15 -7z m2152 -305 c-4 -52 -43 -118
-97 -166 -54 -48 -265 -157 -430 -221 -158 -62 -473 -161 -562 -177 -18 -3
-63 -12 -100 -21 -38 -9 -81 -18 -98 -20 -16 -3 -39 -6 -50 -8 -189 -32 -318
-49 -396 -52 -53 -1 -109 -6 -124 -10 -15 -4 -31 -2 -38 5 -15 15 -5 22 34 23
19 0 41 4 49 8 8 5 31 11 50 14 70 11 124 22 315 66 518 119 1011 320 1365
557 36 24 69 41 75 39 5 -2 9 -18 7 -37z m-1952 -674 c0 -9 -6 -12 -15 -9 -8
4 -15 10 -15 15 0 5 7 9 15 9 8 0 15 -7 15 -15z m-1436 -1065 c137 -36 419
-84 586 -99 119 -11 272 -26 388 -37 33 -4 52 -10 52 -18 0 -15 -75 -22 -345
-35 -272 -12 -574 11 -787 60 l-86 20 -21 49 c-21 49 -26 85 -15 113 5 13 13
13 61 -4 30 -10 105 -32 167 -49z m1856 -945 c0 -46 -102 -154 -176 -185 -145
-62 -616 -102 -901 -76 -72 7 -83 11 -83 27 0 10 6 19 12 19 13 0 148 18 343
46 237 34 604 120 735 173 38 15 70 13 70 -4z m-2174 -1017 c44 -28 125 -74
182 -101 125 -61 133 -80 30 -71 -40 3 -80 6 -88 6 -26 0 -161 38 -212 60
l-48 20 0 57 c0 98 24 103 136 29z M2359 2190 c-156 -27 -366 -115 -484 -205
-141 -107 -275 -265 -348 -410 -26 -53 -70 -173 -87 -241 l-10 -41 -77 5
c-107 5 -208 -18 -321 -73 -156 -77 -280 -218 -337 -382 -49 -141 -51 -298 -4
-445 l22 -68 3788 0 3789 0 0 78 c0 92 -18 168 -62 258 -59 121 -200 250 -318
289 l-48 16 -7 55 c-16 134 -88 315 -175 445 -53 79 -206 232 -281 281 -377
248 -841 247 -1212 -4 -85 -57 -200 -169 -259 -253 -27 -38 -52 -70 -56 -70
-4 0 -35 15 -69 32 -59 31 -189 73 -225 73 -24 0 -24 -49 -1 -97 29 -62 160
-125 265 -126 49 0 65 5 110 35 29 19 87 66 128 104 84 78 175 154 183 154 4
0 23 12 44 26 21 14 65 39 99 54 275 127 590 111 849 -42 90 -54 225 -167 283
-237 58 -72 130 -223 143 -301 12 -76 33 -130 75 -195 43 -66 79 -102 173
-174 109 -83 133 -113 129 -165 l-3 -41 -85 -7 c-47 -3 -1660 -6 -3585 -7
-3153 -1 -3503 1 -3523 15 -21 14 -22 23 -22 133 0 106 2 122 26 170 38 75
129 162 214 202 38 19 70 40 70 47 0 19 52 38 155 57 50 9 108 27 131 40 48
28 132 117 156 166 118 242 150 291 257 400 121 122 282 215 454 262 109 29
365 31 467 4 150 -41 295 -116 402 -208 58 -51 160 -169 212 -246 81 -121 195
-213 264 -213 40 0 75 24 102 72 9 16 1 20 -64 40 l-75 22 -51 100 c-159 319
-465 550 -810 612 -80 14 -315 17 -391 4z"/>
</g>
</svg>
