<?xml version="1.0" standalone="no"?>
<!DOCTYPE svg PUBLIC "-//W3C//DTD SVG 20010904//EN"
 "http://www.w3.org/TR/2001/REC-SVG-20010904/DTD/svg10.dtd">
<svg version="1.0" xmlns="http://www.w3.org/2000/svg"
 width="2048.000000pt" height="2048.000000pt" viewBox="0 0 2048.000000 2048.000000"
 preserveAspectRatio="xMidYMid meet">
<metadata>
Created by potrace 1.13, written by Peter Selinger 2001-2015
</metadata>
<g transform="translate(0.000000,2048.000000) scale(0.192120,-0.192120)"
fill="#000000" stroke="none">
<path d="M1340 9876 c-282 -60 -488 -256 -561 -534 -26 -97 -28 -283 -5 -388
33 -152 94 -291 186 -424 39 -56 1011 -1034 3769 -3791 3478 -3478 3722 -3720
3816 -3782 112 -74 228 -127 348 -159 66 -18 110 -22 227 -22 171 -1 230 12
368 80 164 80 291 230 348 409 98 309 12 664 -230 946 l-65 77 34 63 c73 139
157 430 191 664 22 146 25 503 6 645 -63 474 -241 893 -536 1265 -99 125
-4172 4201 -4296 4299 -359 285 -742 454 -1200 532 -148 25 -504 30 -670 10
-243 -30 -483 -94 -683 -182 l-99 -43 -81 70 c-141 123 -297 206 -465 250
-100 27 -310 34 -402 15z m97 -293 c4 -10 -13 -54 -43 -112 l-49 -96 0 -121 0
-121 47 -94 c26 -52 88 -148 139 -214 124 -164 159 -241 225 -498 29 -116 56
-234 60 -263 6 -53 -1 -94 -16 -94 -5 0 -49 37 -98 83 -49 45 -135 123 -191
172 -159 141 -407 479 -473 645 -18 48 -22 81 -26 243 l-4 189 31 63 c50 101
160 184 294 220 70 19 96 18 104 -2z m2147 -23 c297 -29 589 -115 746 -222 19
-13 79 -47 132 -75 132 -71 244 -144 368 -243 73 -58 712 -690 2116 -2094
1106 -1106 2050 -2056 2098 -2110 232 -264 389 -574 471 -928 24 -101 25 -122
25 -417 0 -260 -2 -310 -14 -305 -13 5 -47 73 -99 199 -14 33 -52 116 -84 185
-176 372 -381 670 -693 1005 -217 233 -4107 4116 -4225 4216 -351 300 -688
510 -1015 633 -121 46 -220 95 -220 110 0 13 33 36 70 47 37 11 199 10 324 -1z
m-1204 -45 c30 -10 69 -28 87 -41 28 -21 50 -26 163 -34 602 -46 1239 -357
1810 -882 204 -188 4184 -4180 4265 -4278 367 -444 604 -892 710 -1341 28
-122 55 -324 55 -417 0 -46 5 -71 19 -90 21 -31 53 -123 46 -131 -7 -6 -7211
7195 -7227 7223 -8 15 -7 18 3 14 8 -3 39 -13 69 -23z m-471 -16 c79 -35 255
-236 364 -417 94 -155 147 -301 213 -587 41 -177 76 -288 117 -370 122 -244
389 -493 630 -586 43 -16 171 -52 285 -80 312 -75 449 -126 617 -229 233 -142
486 -400 626 -638 95 -161 153 -322 219 -615 54 -236 105 -360 205 -493 156
-207 353 -365 547 -435 44 -16 180 -54 303 -84 257 -63 348 -95 497 -172 285
-148 599 -460 746 -741 78 -149 116 -257 176 -504 31 -125 69 -262 85 -306 83
-229 301 -477 541 -618 91 -53 194 -88 445 -149 257 -63 348 -95 497 -172 182
-94 440 -307 483 -398 23 -49 31 -146 16 -202 -15 -57 -66 -121 -124 -157 -38
-23 -62 -30 -122 -34 -104 -6 -145 11 -251 108 -208 190 -321 243 -714 335
-389 91 -628 223 -897 497 -120 122 -172 184 -246 299 -123 189 -174 326 -262
699 -34 141 -69 247 -105 320 -72 141 -220 313 -374 432 -152 117 -269 165
-606 243 -245 58 -416 126 -577 230 -115 75 -166 117 -291 239 -177 173 -293
330 -376 509 -58 123 -85 211 -149 472 -30 121 -69 256 -87 299 -106 253 -398
541 -644 637 -45 18 -188 58 -319 90 -303 75 -427 122 -605 231 -215 131 -483
405 -615 629 -94 160 -129 257 -212 586 -88 348 -140 455 -314 645 -109 120
-136 193 -111 296 42 176 223 265 389 191z m1951 -1856 c17 -30 17 -32 2 -37
-24 -7 -45 -3 -257 48 -227 55 -297 78 -390 124 -203 101 -405 318 -481 518
-33 87 -144 526 -144 569 0 17 3 35 7 39 9 9 1237 -1217 1263 -1261z m-664
-911 c60 -17 150 -40 199 -51 274 -64 419 -141 583 -310 148 -150 187 -231
267 -543 60 -232 71 -338 38 -338 -21 0 -1165 1145 -1207 1207 -28 42 -30 80
-3 70 8 -3 63 -19 123 -35z m3154 -1580 c11 -18 16 -30 10 -27 -5 3 -10 2 -10
-4 0 -14 -47 -5 -306 59 -317 79 -419 128 -578 280 -125 119 -198 226 -250
362 -40 108 -136 502 -136 560 l0 53 625 -625 c344 -344 634 -640 645 -658z
m-625 -917 c322 -86 383 -105 445 -133 179 -84 374 -269 459 -438 40 -80 61
-147 116 -370 49 -199 58 -294 28 -294 -23 0 -1169 1150 -1211 1214 -18 27
-32 54 -32 59 0 13 30 7 195 -38z m3115 -1573 c11 -18 16 -30 10 -27 -5 3 -10
2 -10 -4 0 -13 -22 -9 -267 50 -233 56 -320 85 -411 135 -155 85 -317 245
-399 395 -57 103 -88 198 -158 485 -45 186 -51 224 -38 238 9 9 1247 -1228
1273 -1272z m-648 -911 c79 -21 197 -53 263 -70 165 -44 292 -108 435 -221 63
-50 149 -107 189 -128 72 -35 80 -37 175 -37 91 0 107 3 159 28 32 16 85 54
117 84 l59 54 7 -26 c10 -42 -4 -113 -34 -173 -114 -227 -469 -293 -789 -147
-132 61 -377 230 -492 340 -102 98 -261 297 -261 328 0 13 26 8 172 -32z
M1065 8268 c-78 -170 -141 -394 -177 -623 -30 -199 -30 -521 0 -720 43 -277
111 -495 232 -740 89 -182 180 -325 297 -470 49 -60 918 -935 2175 -2191 2148
-2146 2146 -2144 2353 -2276 311 -198 675 -327 1055 -374 104 -13 186 -15 355
-11 232 5 353 21 553 72 180 45 452 149 435 166 -8 8 -137 34 -213 44 -108 13
-150 11 -284 -15 -240 -47 -316 -54 -566 -54 -264 1 -422 20 -629 74 -153 40
-347 120 -448 183 -139 88 -315 213 -419 299 -131 108 -4121 4098 -4208 4208
-248 313 -403 646 -470 1009 -13 65 -16 160 -16 438 l0 355 36 180 c35 173 35
183 25 279 -11 101 -38 239 -47 239 -3 0 -20 -33 -39 -72z M1413 7865 c-18 -8
-33 -21 -33 -30 0 -8 -4 -15 -10 -15 -17 0 -11 -122 10 -196 42 -155 174 -451
281 -636 120 -206 311 -471 469 -648 139 -155 3799 -3819 4070 -4074 389 -365
635 -546 970 -715 267 -134 511 -221 624 -221 43 0 53 4 78 32 16 18 27 39 26
47 -2 10 -45 28 -123 52 -66 20 -158 51 -205 68 -127 47 -430 199 -560 282
-160 101 -395 278 -525 397 -60 55 -1049 1040 -2196 2188 -2161 2164 -2167
2171 -2352 2435 -205 295 -361 615 -464 956 l-28 92 -32 -14z"/>
</g>
</svg>
