<?xml version="1.0" standalone="no"?>
<!DOCTYPE svg PUBLIC "-//W3C//DTD SVG 20010904//EN"
 "http://www.w3.org/TR/2001/REC-SVG-20010904/DTD/svg10.dtd">
<svg version="1.0" xmlns="http://www.w3.org/2000/svg"
 width="2048.000000pt" height="2048.000000pt" viewBox="0 0 2048.000000 2048.000000"
 preserveAspectRatio="xMidYMid meet">
<metadata>
Created by potrace 1.13, written by Peter Selinger 2001-2015
</metadata>
<g transform="translate(0.000000,2048.000000) scale(0.192120,-0.192120)"
fill="#000000" stroke="none">
<path d="M4055 8379 c-895 -51 -1752 -607 -2348 -1520 -117 -180 -170 -273
-268 -469 -200 -402 -356 -868 -449 -1344 -91 -469 -128 -1089 -79 -1329 68
-337 284 -616 594 -767 185 -91 368 -129 555 -115 612 44 1050 523 1050 1148
0 373 48 811 130 1187 192 886 603 1695 1148 2262 269 279 533 482 826 634
l119 62 -49 22 c-263 118 -608 208 -859 225 -181 11 -233 12 -370 4z m285
-163 c41 -8 134 -32 205 -54 72 -23 150 -46 175 -52 48 -13 80 -35 80 -56 0
-7 -42 -57 -92 -109 -115 -119 -117 -123 -87 -145 l23 -18 -109 -117 c-89 -95
-133 -132 -237 -202 -147 -98 -174 -126 -224 -226 -32 -63 -66 -117 -176 -280
-15 -22 -30 -57 -33 -76 -13 -80 -14 -82 -34 -71 -44 23 -119 115 -135 166 -5
17 0 22 41 33 76 19 136 70 173 145 30 60 32 72 28 134 -4 50 -13 83 -33 121
-86 157 -302 190 -431 65 -61 -60 -87 -121 -86 -201 3 -140 95 -247 233 -271
41 -7 44 -10 41 -36 -17 -139 -137 -246 -277 -246 -109 0 -217 71 -257 170 -6
14 -14 61 -18 106 -9 93 -31 142 -87 196 -116 112 -294 104 -401 -17 -80 -91
-91 -203 -31 -316 l30 -56 -19 -34 c-11 -19 -25 -51 -32 -71 -6 -21 -14 -38
-16 -38 -3 0 -22 9 -42 19 -173 88 -421 16 -493 -143 -27 -59 -25 -133 6 -190
l24 -46 -24 -46 c-14 -26 -25 -58 -25 -70 0 -20 -5 -24 -32 -24 -44 0 -126
-40 -166 -80 -49 -49 -74 -106 -79 -180 -4 -55 -1 -73 20 -112 l24 -48 -23
-47 c-126 -248 315 -467 626 -311 l65 33 77 -39 c63 -32 89 -40 150 -43 46 -3
93 1 128 11 30 8 55 14 55 13 0 -1 14 -30 30 -65 35 -75 122 -163 191 -193
l47 -21 -6 -53 c-3 -29 -12 -66 -21 -83 -14 -27 -14 -34 -1 -66 8 -20 15 -66
15 -103 0 -115 -58 -206 -160 -252 -56 -25 -153 -28 -210 -5 -37 15 -43 15
-80 0 -22 -9 -54 -16 -70 -16 -27 0 -30 -3 -30 -33 0 -48 45 -131 96 -176 77
-68 180 -88 277 -55 51 17 142 92 152 125 4 11 9 18 12 16 9 -9 -19 -93 -65
-192 -46 -99 -46 -101 -50 -226 -4 -127 0 -154 46 -278 4 -11 -11 -13 -84 -9
-75 4 -99 10 -151 36 -157 80 -251 257 -224 423 5 30 6 71 1 89 l-8 35 -1 -36
c-4 -151 -131 -279 -277 -279 -96 0 -203 69 -249 159 -26 52 -31 139 -10 203
15 51 16 59 1 102 -9 26 -16 58 -16 71 0 21 -5 25 -32 25 -38 0 -108 30 -154
65 -18 14 -46 53 -63 86 -113 227 102 465 344 382 166 -56 230 -283 122 -425
-42 -54 -86 -84 -156 -104 -45 -14 -51 -18 -36 -26 9 -6 38 -11 64 -11 l47 -1
-30 -27 c-57 -51 -17 -59 200 -42 67 6 127 13 133 17 30 19 -56 70 -141 86
-43 8 -32 8 57 4 l110 -5 -46 29 c-56 36 -106 95 -120 142 -9 29 -8 44 5 75
16 37 16 41 -1 72 -16 31 -16 33 7 83 36 77 108 130 197 145 39 6 42 9 48 48
4 23 14 54 21 69 13 24 12 34 -4 82 l-19 55 -16 -53 c-61 -192 -309 -253 -455
-113 -39 37 -76 106 -86 159 l-7 37 -47 -29 c-26 -16 -63 -43 -82 -60 -19 -17
-65 -54 -102 -82 -117 -87 -198 -217 -198 -316 0 -51 2 -56 55 -111 l54 -57
-58 -58 c-72 -71 -125 -158 -153 -251 -23 -78 -26 -84 -54 -90 -82 -18 -143
-54 -216 -126 l-78 -76 -3 -179 c-1 -98 -3 17 -5 256 -2 419 -1 441 23 610 81
557 235 1069 454 1510 150 299 226 429 377 636 270 371 497 593 863 842 158
108 266 169 404 229 173 75 296 110 577 164 30 6 96 24 147 40 152 48 265 58
393 35z m-1490 -1216 c0 -36 -3 -40 -24 -40 -41 0 -56 11 -56 40 0 31 10 38
53 39 25 1 27 -2 27 -39z m194 -303 c43 -28 60 -64 58 -121 -3 -88 7 -136 27
-136 10 0 42 -7 70 -17 231 -74 248 -404 26 -509 -132 -63 -307 -1 -366 131
-35 76 -31 80 63 77 78 -3 86 -1 130 27 26 16 54 45 64 62 18 36 21 118 6 158
-8 23 -10 22 -34 -30 -33 -73 -66 -109 -130 -144 -45 -26 -64 -30 -128 -30
-64 0 -83 4 -129 30 -61 34 -103 80 -128 142 -10 24 -21 43 -25 43 -12 0 -21
-68 -15 -116 3 -32 13 -55 33 -76 48 -50 81 -62 171 -63 95 0 98 -5 64 -81
-79 -174 -319 -211 -450 -69 -66 72 -89 151 -71 239 23 111 105 196 211 218
57 12 58 12 64 52 15 93 94 188 181 220 57 21 272 16 308 -7z m-860 -821 c136
-57 113 -250 -32 -264 -162 -15 -217 199 -67 264 39 17 58 17 99 0z m856 -13
c34 -20 70 -81 70 -118 0 -37 -36 -98 -70 -118 -39 -23 -107 -22 -148 3 -56
35 -78 120 -47 181 33 63 132 90 195 52z m-371 -191 c14 -30 14 -75 0 -89 -12
-12 -38 -7 -139 27 -36 12 -71 24 -77 26 -7 2 -13 16 -13 32 l0 28 109 0 c105
0 110 -2 120 -24z m-839 -1204 c98 -42 160 -136 160 -244 0 -116 -46 -196
-141 -249 -46 -26 -65 -30 -129 -30 -64 0 -83 4 -128 29 -76 43 -126 109 -142
189 -6 33 -8 36 -9 13 -1 -38 26 -141 51 -190 11 -23 38 -64 59 -93 l38 -51
-38 -43 c-50 -54 -90 -135 -104 -211 -31 -168 69 -359 229 -434 55 -25 63 -33
88 -88 17 -36 52 -84 85 -117 l57 -56 -42 14 c-50 17 -233 118 -329 181 -150
99 -299 279 -374 449 -25 58 -31 85 -31 141 0 95 6 110 32 77 11 -14 25 -25
33 -25 7 0 18 -7 25 -15 7 -8 26 -15 42 -15 l29 0 -34 29 c-80 71 -113 189
-83 296 30 100 148 195 243 195 17 0 24 7 28 28 20 97 58 159 125 202 81 52
168 58 260 18z m286 -684 c71 -31 168 -41 257 -25 84 15 95 9 184 -88 39 -42
94 -92 122 -111 28 -19 54 -45 57 -57 17 -62 -120 -218 -265 -303 -175 -102
-412 -147 -509 -96 -15 8 -54 40 -87 71 -33 31 -98 88 -144 127 -100 85 -120
123 -121 221 0 125 64 210 176 233 32 6 84 23 114 37 89 41 106 40 216 -9z
M4153 8101 c-111 -28 -198 -131 -210 -245 -20 -191 165 -346 348 -292 110 32
180 109 201 223 21 114 -41 237 -146 288 -58 28 -140 39 -193 26z m105 -260
c4 -28 -12 -41 -50 -41 -21 0 -29 6 -34 24 -9 36 3 47 44 44 30 -2 38 -7 40
-27z M3542 7951 c-111 -38 -207 -125 -262 -235 -62 -124 -26 -236 77 -236 28
0 28 0 29 68 1 122 57 207 173 260 45 21 64 24 121 20 147 -11 258 -120 260
-256 0 -40 2 -43 23 -36 12 3 23 8 25 9 7 6 -117 256 -154 310 -21 32 -55 70
-77 86 -34 25 -49 29 -101 29 -34 -1 -85 -9 -114 -19z M3177 7319 c-29 -22
-42 -61 -52 -154 -7 -59 -7 -60 11 -35 49 71 116 121 184 140 24 6 24 7 -19
38 -51 37 -88 40 -124 11z M2531 4950 c-11 -56 -10 -65 9 -106 26 -52 76 -85
165 -108 69 -18 134 -20 187 -6 46 13 118 67 129 97 8 21 7 21 -28 -3 -52 -35
-137 -58 -190 -50 -106 14 -178 68 -227 167 l-33 70 -12 -61z M2519 4370 c-2
-20 -2 -19 16 -65 l16 -40 -6 50 c-5 47 -24 86 -26 55z M6825 8379 c-563 -34
-1120 -271 -1620 -691 -122 -103 -371 -359 -478 -493 -398 -496 -704 -1121
-877 -1790 -116 -446 -173 -870 -185 -1380 -3 -126 -12 -275 -20 -330 -80
-534 -418 -1000 -898 -1242 -107 -53 -294 -117 -394 -135 l-72 -12 -45 32
c-56 41 -128 59 -290 72 -180 15 -276 34 -416 80 -465 152 -849 539 -989 997
-52 169 -53 184 -49 663 4 423 6 454 31 617 92 590 238 1062 477 1548 330 670
792 1209 1355 1580 290 191 552 315 850 400 121 34 304 74 347 76 12 0 17 3
10 6 -17 7 -228 -13 -338 -32 -818 -140 -1593 -711 -2123 -1564 -449 -723
-705 -1571 -761 -2516 -23 -402 -5 -601 80 -856 81 -246 208 -449 399 -639
145 -144 270 -237 426 -314 208 -104 415 -159 657 -176 178 -12 6309 -12 6718
0 227 7 305 13 382 29 582 126 1054 545 1238 1100 76 227 95 385 87 691 -52
1804 -899 3372 -2163 4003 -429 214 -865 304 -1339 276z m318 -219 c383 -28
683 -118 1086 -328 58 -30 115 -63 126 -72 11 -9 52 -37 90 -62 278 -177 647
-558 879 -908 108 -162 142 -222 200 -350 26 -58 73 -152 104 -210 81 -153 99
-190 158 -341 137 -353 274 -890 274 -1080 0 -62 23 -237 45 -345 14 -67 27
-268 42 -615 9 -236 -17 -337 -140 -544 -174 -291 -352 -480 -584 -619 -118
-70 -337 -156 -438 -171 -27 -4 -58 -11 -68 -17 -10 -5 -43 -16 -73 -24 -30
-7 -84 -29 -121 -48 -38 -18 -78 -36 -90 -40 l-23 -7 25 53 c102 219 -110 460
-338 382 -57 -19 -131 -83 -160 -138 -32 -60 -31 -193 1 -253 12 -24 18 -43
12 -43 -5 0 -35 12 -67 26 -118 52 -144 55 -349 36 -174 -15 -197 -15 -377 1
-243 22 -446 22 -712 1 -194 -16 -224 -16 -398 -2 -206 18 -226 15 -340 -36
-32 -14 -61 -26 -66 -26 -4 0 3 22 16 49 30 61 34 165 9 224 -56 136 -199 204
-341 163 -81 -24 -157 -100 -181 -181 -21 -74 -14 -151 20 -217 l25 -48 -37
16 c-20 9 -73 29 -117 45 l-80 29 -390 0 -390 0 -60 -26 c-33 -14 -81 -34
-107 -44 l-47 -19 27 52 c38 74 38 180 0 253 -107 204 -394 202 -495 -3 -35
-73 -37 -164 -5 -237 12 -27 20 -51 18 -54 -3 -2 -33 10 -68 26 -127 62 -139
65 -265 71 -146 7 -164 17 -139 72 8 19 33 54 56 79 215 234 324 400 420 641
90 224 125 432 135 779 7 262 19 419 51 658 77 572 236 1105 474 1582 74 150
85 169 188 345 300 510 758 978 1187 1211 369 201 657 286 1060 313 174 12
187 12 338 1z m-3132 -5530 c24 -13 28 -80 4 -80 -8 0 -15 -4 -15 -10 0 -14
-101 -12 -133 3 -36 16 -38 68 -4 85 29 14 123 15 148 2z m1664 -2 c36 -16 35
-68 -2 -85 -80 -38 -202 9 -165 63 22 33 115 46 167 22z m2783 -4 c50 -35 8
-94 -67 -94 -24 0 -60 5 -78 12 -30 11 -34 16 -31 42 2 21 11 35 28 43 35 18
121 16 148 -3z M6909 7815 c-69 -22 -143 -93 -168 -161 -31 -80 -28 -148 10
-222 51 -103 131 -153 244 -153 117 0 219 68 260 174 22 58 17 165 -10 221
-58 120 -207 183 -336 141z m148 -186 c36 -13 43 -25 43 -76 0 -30 -7 -50 -26
-72 -23 -27 -32 -31 -76 -31 -40 0 -59 6 -85 26 -32 24 -34 29 -31 77 3 48 6
53 38 69 40 20 95 23 137 7z M5515 7257 c-83 -32 -141 -92 -171 -174 -31 -89
-8 -195 62 -271 166 -186 474 -69 476 181 1 159 -116 278 -272 276 -36 0 -79
-6 -95 -12z m177 -191 c14 -8 18 -24 18 -67 0 -46 -4 -59 -24 -78 -35 -33 -93
-38 -143 -13 -46 24 -53 36 -53 97 0 36 4 47 23 56 53 29 137 31 179 5z M7759
6987 c-97 -27 -178 -113 -200 -213 -25 -110 29 -231 130 -291 159 -95 355 -15
407 165 58 200 -136 395 -337 339z m136 -191 c34 -15 35 -16 35 -72 0 -81 -23
-104 -101 -104 -49 0 -61 4 -88 29 -26 24 -31 37 -31 74 0 48 8 58 55 75 43
15 90 14 130 -2z M6360 6151 c-202 -62 -261 -332 -103 -471 83 -73 214 -91
310 -42 84 43 153 154 153 247 0 98 -72 208 -165 251 -52 25 -141 31 -195 15z
m158 -197 c18 -12 22 -25 22 -64 0 -63 -6 -78 -41 -95 -37 -20 -80 -19 -123 1
-39 19 -56 49 -56 100 0 28 6 38 33 54 40 25 132 27 165 4z M4987 5600 c-54
-14 -87 -33 -129 -75 -124 -124 -103 -325 43 -424 132 -91 311 -46 393 99 27
48 31 64 31 130 0 62 -5 84 -27 126 -58 111 -193 173 -311 144z m147 -199 c11
-9 16 -31 16 -70 0 -77 -27 -105 -99 -104 -64 1 -108 30 -117 78 -10 53 2 84
39 101 38 17 138 14 161 -5z M7469 5316 c-121 -43 -190 -137 -191 -261 -2
-285 380 -385 516 -136 36 67 43 140 22 216 -42 141 -211 230 -347 181z m159
-192 c18 -13 22 -25 22 -74 0 -53 -3 -61 -29 -79 -55 -39 -155 -18 -180 37 -6
13 -11 39 -11 58 0 28 6 38 33 54 40 25 132 27 165 4z M8857 5316 c-99 -36
-166 -112 -187 -213 -55 -261 277 -435 467 -245 82 81 103 217 51 318 -64 122
-209 183 -331 140z m161 -192 c18 -13 22 -25 22 -74 0 -53 -3 -61 -29 -79 -56
-40 -170 -14 -185 42 -15 55 -7 87 27 107 40 25 132 27 165 4z M4428 4486
c-212 -59 -278 -307 -123 -463 41 -40 65 -55 110 -69 182 -52 355 77 355 266
0 181 -171 314 -342 266z m150 -202 c18 -12 22 -24 22 -65 0 -41 -5 -54 -26
-74 -48 -45 -119 -42 -171 7 -33 30 -33 112 -1 129 59 31 131 33 176 3z M6110
4491 c-58 -13 -87 -28 -131 -68 -144 -130 -107 -375 69 -455 109 -49 222 -29
307 55 80 81 105 184 69 289 -41 122 -190 206 -314 179z m130 -201 c31 -16 29
-118 -2 -147 -36 -34 -86 -38 -138 -11 l-45 23 -3 62 -3 61 43 16 c45 16 114
14 148 -4z M8327 4490 c-141 -35 -226 -153 -214 -296 13 -173 182 -289 349
-240 73 21 147 87 178 158 44 102 16 232 -67 310 -59 56 -169 87 -246 68z
m140 -205 c18 -12 23 -24 23 -61 0 -56 -12 -79 -50 -99 -40 -21 -78 -19 -125
8 -39 22 -40 25 -43 80 l-3 58 43 20 c48 22 115 20 155 -6z M6905 4203 c-67
-23 -146 -101 -168 -167 -47 -139 10 -279 140 -342 182 -90 393 42 393 246 0
192 -185 325 -365 263z m167 -189 c29 -15 30 -17 26 -75 -3 -42 -10 -64 -24
-77 -43 -40 -122 -38 -167 4 -23 21 -27 33 -27 79 0 52 2 56 33 69 44 19 121
19 159 0z M9689 3927 c-61 -23 -104 -54 -135 -99 -40 -56 -54 -99 -54 -163 0
-110 58 -203 155 -251 50 -24 64 -26 134 -22 61 4 88 10 124 31 189 111 180
389 -17 489 -51 26 -157 34 -207 15z m156 -189 c23 -10 25 -16 25 -74 0 -58
-2 -64 -29 -83 -36 -26 -101 -28 -139 -4 -38 25 -42 32 -42 91 0 50 2 54 33
67 39 17 117 19 152 3z M4957 3646 c-151 -54 -224 -236 -152 -382 51 -104 152
-161 269 -152 76 7 130 33 183 91 70 76 90 181 53 279 -51 138 -214 213 -353
164z m176 -188 c13 -7 17 -22 17 -73 0 -59 -2 -65 -29 -84 -59 -42 -161 -16
-182 46 -6 19 -8 50 -5 68 6 31 12 36 54 49 47 15 110 13 145 -6z M8893 3379
c-60 -11 -114 -42 -156 -88 -51 -57 -70 -104 -70 -182 -4 -290 386 -384 521
-125 35 67 37 168 5 238 -52 114 -177 180 -300 157z m117 -194 c28 -14 30 -19
30 -74 0 -47 -4 -61 -23 -79 -70 -66 -197 -16 -197 77 0 44 7 55 45 75 38 20
108 20 145 1z M6362 3095 c-213 -66 -266 -337 -95 -479 132 -110 330 -70 417
84 27 48 31 65 31 130 0 65 -4 82 -31 130 -37 66 -96 114 -166 135 -62 18 -99
18 -156 0z m148 -190 c28 -14 30 -19 30 -74 0 -47 -4 -61 -23 -79 -40 -38
-122 -34 -167 8 -28 26 -31 34 -28 77 3 44 6 50 38 65 43 22 111 23 150 3z
M7479 3097 c-77 -22 -153 -90 -185 -165 -19 -46 -21 -135 -4 -188 45 -137 197
-220 332 -180 75 21 134 68 172 136 27 48 31 64 31 130 0 80 -17 126 -70 188
-57 68 -185 104 -276 79z m155 -196 c11 -9 16 -31 16 -70 0 -77 -27 -105 -99
-104 -64 1 -108 30 -117 78 -10 53 2 84 39 101 38 17 138 14 161 -5z M6165
8368 c-142 -14 -372 -64 -517 -112 -144 -47 -291 -109 -296 -124 -1 -5 11 -15
28 -22 40 -17 101 -4 210 45 201 88 433 160 645 201 131 24 102 30 -70 12z"/>
</g>
</svg>
