<?xml version="1.0" standalone="no"?>
<!DOCTYPE svg PUBLIC "-//W3C//DTD SVG 20010904//EN"
 "http://www.w3.org/TR/2001/REC-SVG-20010904/DTD/svg10.dtd">
<svg version="1.0" xmlns="http://www.w3.org/2000/svg"
 width="2048.000000pt" height="2048.000000pt" viewBox="0 0 2048.000000 2048.000000"
 preserveAspectRatio="xMidYMid meet">
<metadata>
Created by potrace 1.13, written by Peter Selinger 2001-2015
</metadata>
<g transform="translate(0.000000,2048.000000) scale(0.192120,-0.192120)"
fill="#000000" stroke="none">
<path d="M3252 10103 c-45 -38 -178 -193 -247 -288 -271 -372 -409 -787 -422
-1265 -15 -549 144 -1067 437 -1425 222 -271 566 -509 1293 -894 l118 -63 -20
51 c-10 28 -39 79 -64 114 -79 110 -168 184 -353 292 -295 172 -440 271 -599
406 -255 217 -410 451 -509 769 -72 228 -76 264 -76 684 0 361 1 381 24 489
46 212 112 368 279 661 53 93 104 192 113 220 20 63 65 156 74 156 14 0 153
-341 285 -700 422 -1146 820 -2557 851 -3020 3 -47 10 -98 15 -113 8 -28 -1
-39 -243 -290 -411 -428 -755 -814 -1013 -1137 -59 -74 -121 -151 -137 -170
l-29 -35 5 70 c3 39 11 133 17 210 14 172 6 459 -16 580 -32 176 -107 357
-209 499 -379 530 -1037 802 -1636 675 -45 -10 -46 -11 -73 -79 -82 -210 -112
-394 -104 -625 10 -254 56 -435 173 -670 137 -276 340 -504 568 -637 210 -123
517 -196 1017 -241 l47 -4 -30 58 c-49 95 -121 138 -285 169 -269 52 -323 63
-403 86 -418 120 -756 520 -861 1019 -17 80 -23 162 -31 405 -12 362 -12 389
-4 397 14 14 434 -417 722 -742 385 -435 694 -820 923 -1153 l91 -134 -98
-131 c-764 -1024 -1279 -2056 -1481 -2972 -54 -242 -71 -365 -60 -415 23 -101
128 -221 245 -280 63 -32 75 -35 159 -35 115 0 224 36 331 107 108 73 120 94
155 294 75 424 221 921 403 1369 65 158 186 436 196 448 3 4 53 -48 111 -115
260 -306 527 -582 684 -709 221 -179 451 -286 715 -336 129 -24 455 -29 606
-9 549 72 1025 351 1333 781 100 138 98 134 72 197 -73 170 -210 374 -355 525
-377 395 -895 613 -1456 613 -497 0 -821 -168 -1557 -808 -79 -68 -143 -121
-143 -118 0 4 32 70 71 149 306 611 705 1245 1162 1847 150 197 418 530 426
529 3 0 50 -58 105 -130 241 -316 512 -618 689 -765 259 -217 505 -327 852
-379 135 -21 440 -24 575 -7 392 52 735 191 1035 421 129 99 323 302 415 436
l32 47 -27 66 c-81 195 -205 402 -329 551 -341 408 -855 677 -1416 742 -145
16 -407 6 -528 -20 -297 -65 -557 -201 -962 -502 -97 -72 -170 -136 -220 -192
-71 -80 -76 -84 -105 -76 -53 16 -122 10 -177 -14 -66 -30 -150 -85 -204 -134
-40 -36 -277 -327 -312 -382 -9 -14 -48 -69 -87 -121 -508 -678 -980 -1454
-1135 -1863 -47 -125 -64 -159 -105 -217 -151 -210 -449 -1057 -564 -1605 -29
-137 -61 -243 -77 -256 -8 -6 -14 -17 -14 -24 0 -35 -142 -81 -213 -70 -49 8
-73 20 -105 48 -20 19 -22 29 -22 139 0 89 6 148 25 236 77 359 228 791 422
1207 177 380 380 728 730 1253 143 215 265 409 298 475 65 132 65 132 135 184
75 56 178 164 360 378 172 202 416 475 599 670 66 71 121 136 121 143 0 7 51
65 113 130 61 64 141 150 176 191 115 134 232 237 282 246 26 5 25 0 -15 -70
-92 -161 -108 -241 -58 -288 15 -15 35 -27 44 -27 9 0 116 107 239 238 434
462 965 978 1399 1360 353 311 410 393 351 502 l-18 35 181 97 c392 212 969
493 1383 674 537 234 1169 457 1416 499 37 6 38 5 32 -17 -4 -13 -27 -62 -51
-109 -23 -47 -70 -159 -104 -250 -108 -286 -209 -456 -387 -650 -186 -202
-411 -359 -635 -443 -103 -39 -275 -86 -367 -102 -114 -18 -356 -18 -482 1
-118 18 -380 80 -524 125 -185 57 -295 55 -404 -8 l-43 -25 28 -15 c48 -25
372 -147 504 -190 299 -97 460 -126 690 -126 142 1 195 5 280 23 359 76 718
269 1000 537 271 259 467 597 556 959 27 110 57 322 48 336 -10 17 -164 130
-242 179 -317 196 -652 290 -1037 290 -198 0 -350 -19 -532 -65 -232 -60 -427
-145 -604 -264 -335 -224 -543 -540 -854 -1300 -37 -89 -41 -94 -84 -113 -61
-26 -114 -65 -321 -236 -559 -464 -1100 -946 -1502 -1341 -98 -96 -178 -171
-178 -168 0 3 39 77 86 164 568 1042 663 1510 443 2177 -199 604 -621 1100
-1164 1367 -170 83 -269 120 -443 165 -152 39 -172 41 -200 17z m459 -383
c506 -209 914 -641 1106 -1169 79 -219 83 -248 83 -597 0 -276 -2 -325 -20
-402 -31 -141 -93 -309 -197 -542 -68 -149 -101 -204 -129 -208 -35 -5 -56 52
-134 368 -137 550 -424 1469 -672 2155 -58 160 -111 305 -117 324 -13 40 -15
101 -2 101 4 0 41 -14 82 -30z m5194 -315 c115 -20 270 -61 315 -83 21 -10 36
-25 38 -39 4 -28 -22 -42 -261 -132 -592 -224 -1101 -450 -1719 -763 -163 -82
-302 -147 -307 -143 -32 19 14 145 124 345 141 254 276 411 464 539 207 141
553 261 841 291 119 12 397 4 505 -15z m-7128 -3099 c37 -8 106 -27 153 -42
380 -120 725 -429 834 -746 26 -76 26 -81 24 -315 l-3 -238 -50 50 c-28 28
-102 115 -166 195 -137 171 -452 539 -623 729 -269 297 -303 339 -292 366 7
19 36 19 123 1z m4782 -280 c412 -88 749 -269 1012 -544 106 -111 144 -167
133 -196 -3 -9 -17 -16 -30 -16 -13 0 -151 25 -306 55 -615 121 -1143 201
-1811 275 -343 38 -411 56 -388 99 25 47 419 248 586 300 170 53 236 61 470
57 179 -4 228 -8 334 -30z m-1679 -516 c848 -73 1755 -198 2456 -339 244 -50
571 -127 628 -150 28 -11 28 -12 10 -33 -11 -11 -56 -45 -100 -74 -45 -29
-117 -81 -160 -116 -239 -191 -436 -304 -659 -377 -508 -165 -1088 -127 -1474
98 -174 102 -394 301 -615 556 -66 77 -148 166 -181 198 -70 68 -174 133 -227
142 -21 4 -38 10 -38 13 0 2 17 27 37 53 27 36 44 49 63 49 14 0 131 -9 260
-20z m-107 -2056 c276 -38 536 -137 769 -293 228 -153 282 -245 123 -211 -109
24 -419 77 -540 94 -325 45 -562 59 -1062 60 -248 0 -455 4 -459 8 -41 42 249
224 474 297 206 68 426 82 695 45z m-58 -524 c337 -27 673 -80 966 -151 189
-47 471 -138 476 -156 5 -13 -42 -61 -166 -168 -207 -179 -279 -239 -346 -283
-328 -217 -788 -326 -1193 -281 -265 29 -440 91 -645 229 -126 85 -181 133
-427 373 -107 105 -230 219 -273 255 -73 61 -101 102 -81 122 16 15 428 54
734 70 207 11 769 5 955 -10z"/>
</g>
</svg>
