<?xml version="1.0" standalone="no"?>
<!DOCTYPE svg PUBLIC "-//W3C//DTD SVG 20010904//EN"
 "http://www.w3.org/TR/2001/REC-SVG-20010904/DTD/svg10.dtd">
<svg version="1.0" xmlns="http://www.w3.org/2000/svg"
 width="2048.000000pt" height="2048.000000pt" viewBox="0 0 2048.000000 2048.000000"
 preserveAspectRatio="xMidYMid meet">
<metadata>
Created by potrace 1.13, written by Peter Selinger 2001-2015
</metadata>
<g transform="translate(0.000000,2048.000000) scale(0.192120,-0.192120)"
fill="#000000" stroke="none">
<path d="M5089 10265 c-248 -88 -437 -170 -714 -310 -789 -398 -1481 -911
-2100 -1555 -977 -1016 -1606 -2280 -1839 -3695 -62 -381 -93 -714 -102 -1135
-6 -224 -4 -279 10 -352 105 -555 673 -1247 1464 -1786 823 -560 1786 -929
2748 -1052 269 -34 359 -40 649 -47 1026 -22 2039 216 2980 701 1039 535 1860
1329 2085 2014 58 178 64 235 57 531 -51 2023 -785 3723 -2187 5067 -744 713
-1706 1318 -2581 1623 -230 80 -236 80 -470 -4z m336 -249 c224 -59 587 -253
845 -449 600 -458 1248 -1274 1752 -2207 171 -315 215 -402 318 -625 493
-1063 866 -2190 1150 -3480 48 -217 69 -278 106 -319 22 -23 79 -56 97 -56 15
0 -103 550 -208 965 -201 796 -424 1492 -695 2175 -684 1719 -1534 2975 -2560
3785 -149 117 -154 122 -113 101 134 -68 477 -292 757 -496 121 -88 558 -423
626 -479 521 -433 850 -768 1224 -1246 126 -161 365 -515 463 -685 544 -943
848 -1973 913 -3093 27 -456 31 -480 86 -544 65 -75 66 -72 -16 -168 -204
-240 -537 -513 -899 -737 -1225 -759 -2963 -1127 -4656 -988 -951 79 -1852
308 -2635 670 -621 287 -1182 688 -1515 1083 -55 66 -56 62 18 149 24 27 46
66 54 95 7 26 17 145 23 263 58 1204 330 2198 866 3160 335 603 795 1187 1302
1653 475 437 1217 1005 1665 1276 122 74 189 110 172 94 -5 -6 -55 -45 -110
-88 -1370 -1074 -2448 -2964 -3168 -5555 -124 -444 -278 -1098 -315 -1334 l-9
-55 36 15 c19 8 43 22 52 30 28 26 60 111 85 233 113 532 302 1240 475 1781
328 1025 773 2035 1222 2780 547 905 1208 1648 1788 2009 179 111 530 275 629
294 51 9 126 6 175 -7z m-4165 -7719 c252 -175 437 -280 737 -416 455 -207
1105 -415 1408 -451 118 -14 312 -52 506 -100 371 -91 1125 -145 1714 -121
481 19 912 64 1103 116 122 33 414 91 526 105 378 47 1109 297 1631 558 190
95 275 144 417 244 118 82 168 109 168 89 0 -31 -182 -216 -355 -361 -1005
-843 -2428 -1350 -3785 -1350 -1255 0 -2583 437 -3565 1173 -246 184 -529 443
-579 527 l-18 32 23 -7 c13 -3 44 -21 69 -38z M5239 9501 c-50 -43 -124 -164
-162 -261 -102 -263 -143 -378 -192 -540 -452 -1484 -778 -3529 -1010 -6340
-16 -194 -21 -600 -7 -600 4 0 13 -15 20 -33 7 -19 23 -44 36 -56 l24 -23 6
54 c4 29 18 206 32 393 204 2783 593 5250 1046 6635 97 296 279 760 298 760
15 0 172 -390 260 -645 457 -1337 833 -3625 1064 -6485 9 -102 22 -282 31
-400 8 -118 18 -237 21 -263 6 -46 7 -48 25 -31 10 9 28 35 39 58 18 38 20 62
20 242 0 109 -7 285 -15 389 -193 2378 -473 4298 -836 5724 -144 569 -328
1116 -446 1325 -53 94 -105 136 -169 136 -34 0 -49 -7 -85 -39z M4475 9256
c-177 -82 -614 -550 -939 -1006 -534 -749 -979 -1617 -1384 -2700 -265 -708
-503 -1518 -689 -2343 -57 -250 -57 -253 -58 -417 0 -154 2 -168 24 -215 l24
-50 38 190 c450 2224 1205 4139 2143 5440 276 382 556 696 925 1039 58 55 62
61 45 73 -27 19 -73 16 -129 -11z M6058 9273 c-10 -2 -18 -8 -18 -11 0 -4 89
-93 198 -198 370 -358 643 -686 945 -1136 865 -1287 1562 -3119 1986 -5213
l38 -190 24 50 c20 42 24 69 27 165 3 104 -1 134 -38 310 -147 692 -313 1298
-553 2020 -429 1294 -1013 2468 -1641 3303 -239 317 -587 700 -747 820 -105
79 -156 97 -221 80z M6005 9214 c-14 -22 -16 -44 -13 -138 4 -91 12 -133 42
-231 20 -66 64 -214 97 -330 416 -1431 763 -3697 959 -6265 25 -324 39 -389
100 -450 22 -22 45 -40 51 -40 14 0 11 66 -26 550 -213 2776 -610 5225 -1074
6616 -51 154 -110 314 -116 314 -1 0 -10 -12 -20 -26z M4610 9186 c-11 -27
-49 -134 -85 -240 -468 -1397 -866 -3840 -1080 -6636 -45 -600 -46 -579 13
-521 67 67 74 102 107 531 208 2662 557 4879 1000 6356 35 116 71 238 79 271
21 79 21 241 1 267 -14 18 -16 16 -35 -28z"/>
</g>
</svg>
