<?xml version="1.0" standalone="no"?>
<!DOCTYPE svg PUBLIC "-//W3C//DTD SVG 20010904//EN"
 "http://www.w3.org/TR/2001/REC-SVG-20010904/DTD/svg10.dtd">
<svg version="1.0" xmlns="http://www.w3.org/2000/svg"
 width="2048.000000pt" height="2048.000000pt" viewBox="0 0 2048.000000 2048.000000"
 preserveAspectRatio="xMidYMid meet">
<metadata>
Created by potrace 1.13, written by Peter Selinger 2001-2015
</metadata>
<g transform="translate(0.000000,2048.000000) scale(0.192120,-0.192120)"
fill="#000000" stroke="none">
<path d="M5229 10307 c-150 -63 -254 -168 -613 -617 -285 -356 -463 -558 -638
-722 -249 -233 -268 -257 -268 -339 0 -35 6 -47 38 -78 20 -20 46 -41 57 -47
19 -11 18 -13 -22 -56 -75 -83 -93 -151 -54 -214 19 -32 126 -94 161 -94 9 0
19 -3 23 -6 10 -10 -273 -302 -423 -437 -239 -214 -290 -281 -290 -376 0 -107
79 -172 268 -221 l43 -11 -48 -42 c-201 -173 -269 -268 -261 -362 3 -38 12
-64 32 -89 l27 -36 -93 -89 c-51 -48 -149 -138 -218 -199 -69 -61 -144 -136
-168 -166 -146 -189 -118 -335 83 -431 68 -32 180 -65 223 -65 11 0 23 -4 26
-8 3 -5 -64 -70 -149 -145 -243 -216 -312 -339 -261 -462 l14 -34 -141 -138
c-78 -76 -202 -192 -275 -257 -212 -188 -264 -248 -318 -361 -28 -57 -34 -81
-34 -135 0 -120 62 -205 202 -276 91 -46 143 -63 271 -88 l108 -21 -173 -163
c-196 -185 -289 -287 -338 -370 -37 -64 -66 -93 -365 -361 -268 -241 -351
-335 -426 -483 -81 -161 -74 -277 22 -382 123 -135 393 -206 785 -206 266 0
632 37 1435 144 602 80 830 109 834 104 2 -2 -17 -181 -41 -398 -50 -434 -52
-513 -14 -648 85 -303 327 -490 730 -564 167 -31 533 -31 700 0 404 74 645
260 730 562 38 137 36 215 -14 650 -24 217 -43 396 -41 398 4 5 221 -22 830
-103 826 -110 1048 -133 1351 -142 443 -13 739 56 874 204 94 103 101 211 25
371 -67 141 -175 267 -389 456 -266 235 -359 326 -400 389 -66 106 -130 176
-326 362 l-190 180 112 22 c309 60 468 184 468 364 0 58 -5 77 -40 145 -51
101 -130 190 -310 350 -80 71 -207 189 -282 262 l-136 133 14 34 c51 124 -21
250 -265 466 -82 73 -148 137 -145 141 3 4 15 8 26 8 43 0 154 33 223 65 201
95 229 243 83 431 -24 30 -101 107 -173 171 -71 63 -169 154 -218 200 l-87 84
27 35 c19 25 28 51 31 89 8 94 -60 189 -261 362 l-49 42 29 6 c300 67 367 233
175 431 -31 33 -116 113 -189 178 -148 133 -426 420 -416 430 4 3 14 6 23 6
35 0 142 62 161 94 39 63 21 131 -54 214 -40 43 -41 45 -22 56 11 6 37 27 57
47 32 31 38 43 38 78 0 64 -34 118 -134 211 -288 268 -452 448 -791 874 -109
137 -240 295 -291 351 -209 231 -360 304 -505 242z m186 -286 c70 -40 204
-183 389 -416 319 -400 530 -634 708 -783 116 -96 184 -175 208 -240 11 -29
27 -66 35 -82 l15 -28 -53 -14 c-78 -20 -376 -16 -497 6 -295 54 -554 154
-762 293 -56 37 -107 72 -113 77 -8 6 -51 -17 -126 -67 -252 -168 -568 -281
-889 -318 -121 -14 -335 -7 -396 13 l-42 13 44 89 c43 85 55 100 263 305 238
236 295 300 601 681 112 140 249 301 305 357 145 147 211 171 310 114z m-20
-1554 c198 -143 447 -251 717 -311 158 -35 292 -48 446 -44 115 3 131 1 126
-12 -21 -47 -33 -88 -34 -107 0 -41 32 -118 73 -171 46 -61 178 -191 252 -250
28 -22 81 -71 118 -109 87 -89 93 -114 46 -210 -25 -51 -34 -81 -34 -120 l0
-51 -40 -6 c-292 -39 -702 21 -1075 155 -189 69 -453 208 -586 310 -35 27 -68
49 -73 49 -6 0 -41 -23 -78 -51 -306 -229 -775 -407 -1213 -460 -113 -14 -353
-17 -430 -6 l-55 8 -1 73 c0 57 -5 81 -22 111 -30 49 -31 99 -5 128 11 12 24
31 28 42 4 11 67 76 142 145 145 135 245 246 281 313 26 49 30 147 7 187 -8
14 -14 27 -15 30 0 3 60 4 132 2 403 -10 845 125 1163 355 32 24 62 43 65 43
3 0 33 -19 65 -43z m75 -1172 c438 -256 832 -377 1330 -409 115 -7 205 -18
220 -25 42 -22 129 -113 135 -142 8 -36 -8 -65 -48 -86 -43 -22 -296 -30 -449
-14 -393 43 -746 162 -1078 363 -231 140 -274 141 -490 8 -332 -202 -678 -322
-1056 -366 -186 -22 -432 -16 -487 11 -73 34 -66 99 17 172 68 59 105 70 261
77 268 13 515 56 749 133 227 74 369 139 626 285 117 67 145 66 270 -7z m-79
-365 c255 -202 700 -384 1108 -455 301 -52 557 -42 809 31 21 6 22 4 22 -63 0
-93 28 -148 123 -238 40 -39 104 -99 141 -134 73 -69 86 -92 86 -147 0 -26 -7
-41 -26 -57 -123 -102 -155 -149 -157 -223 0 -30 -5 -45 -16 -50 -33 -13 -332
-16 -457 -5 -264 24 -541 83 -794 169 -301 102 -604 258 -822 423 l-78 58 -77
-58 c-499 -375 -1275 -620 -1902 -598 -86 3 -163 8 -172 11 -11 5 -15 21 -16
56 -1 57 -31 115 -87 169 -20 19 -36 39 -36 44 0 5 -11 18 -25 29 -32 25 -32
58 0 96 14 17 25 34 25 39 0 5 54 63 120 129 142 142 170 191 170 296 l0 66
49 -18 c136 -52 445 -71 673 -41 434 56 868 221 1188 450 47 33 89 61 93 61 4
0 30 -18 58 -40z m20 -963 c35 -18 106 -59 158 -91 126 -77 279 -153 442 -219
388 -158 750 -238 1162 -256 164 -7 199 -12 232 -29 51 -26 250 -227 265 -267
15 -38 4 -108 -19 -129 -10 -9 -54 -24 -97 -33 -101 -21 -502 -24 -644 -4
-361 49 -699 148 -997 291 -127 60 -170 85 -353 199 -116 72 -184 101 -233
101 -49 -1 -133 -39 -274 -127 -271 -169 -494 -269 -797 -358 -360 -106 -793
-150 -1087 -110 -167 22 -199 42 -199 125 0 39 6 48 102 148 112 117 160 159
198 174 14 6 111 14 216 19 214 10 338 25 553 68 366 74 787 241 1091 432 112
70 168 98 201 99 9 0 45 -15 80 -33z m-35 -588 c162 -132 518 -323 776 -419
358 -132 733 -202 1083 -203 265 -1 439 28 576 97 l67 33 7 -71 c4 -39 15 -90
25 -114 24 -53 97 -132 220 -234 131 -109 290 -266 290 -286 0 -10 7 -26 15
-36 22 -29 18 -66 -13 -110 -21 -31 -45 -47 -109 -75 -119 -52 -165 -88 -198
-155 -19 -38 -26 -67 -23 -90 l4 -35 -66 -8 c-112 -14 -473 -7 -630 11 -726
86 -1450 360 -1962 743 l-110 83 -66 -54 c-278 -222 -744 -458 -1176 -595
-253 -81 -550 -144 -826 -177 -157 -19 -533 -25 -632 -11 -57 8 -58 9 -58 40
0 97 -52 165 -172 227 -46 24 -95 55 -110 69 -14 14 -36 35 -47 45 -30 28 -26
66 12 116 17 23 38 54 46 67 17 32 49 64 247 246 187 171 217 215 229 333 l7
71 67 -33 c358 -176 1097 -117 1751 141 211 83 542 269 684 384 21 17 42 31
46 31 4 0 25 -14 46 -31z m69 -1163 c39 -24 115 -71 170 -106 229 -146 562
-299 880 -405 226 -76 420 -124 656 -164 243 -41 333 -50 574 -57 236 -6 268
-13 330 -71 166 -157 422 -448 444 -505 58 -154 -351 -264 -879 -237 -702 36
-1407 281 -2005 699 -183 127 -216 144 -285 144 -70 0 -93 -12 -335 -174 -263
-176 -388 -245 -641 -355 -252 -110 -608 -218 -874 -264 -528 -93 -1054 -65
-1268 68 -46 28 -76 78 -65 108 27 72 437 519 514 561 38 20 56 22 178 22 75
0 197 5 271 10 708 53 1420 289 2008 667 142 92 192 115 232 106 14 -3 57 -24
95 -47z m-14 -892 c477 -383 1148 -670 1819 -778 747 -121 1351 4 1454 300
l12 37 40 -94 c36 -87 47 -101 149 -206 61 -63 112 -119 114 -125 2 -7 37 -52
77 -100 93 -112 104 -133 104 -207 0 -59 -1 -61 -37 -85 -104 -69 -270 -90
-633 -83 -315 7 -437 19 -971 93 -222 30 -519 71 -659 91 -146 20 -303 36
-367 36 -98 2 -115 0 -140 -19 -35 -26 -62 -78 -72 -144 -4 -28 -11 -53 -14
-57 -4 -3 -111 2 -239 11 -498 38 -984 38 -1475 0 -128 -10 -236 -15 -239 -11
-4 4 -11 29 -15 57 -10 66 -37 118 -72 144 -25 19 -42 21 -140 19 -114 -1
-159 -7 -912 -112 -718 -100 -916 -117 -1260 -108 -246 7 -332 20 -423 66 -80
40 -92 54 -92 105 0 58 38 115 161 241 54 56 99 106 99 111 0 6 21 30 46 54
71 71 118 138 159 233 l39 89 13 -36 c105 -304 732 -424 1520 -290 422 71 947
260 1318 474 175 101 386 247 488 337 20 18 41 33 45 33 4 0 51 -34 103 -76z
m355 -1524 c275 -15 303 -19 314 -41 26 -47 40 -229 40 -513 l0 -288 -26 -52
c-70 -140 -229 -228 -492 -273 -120 -20 -441 -22 -557 -4 -290 46 -467 140
-536 286 l-29 60 0 235 c0 237 24 501 49 548 9 16 25 22 83 27 279 24 852 32
1154 15z"/>
</g>
</svg>
