<?xml version="1.0" standalone="no"?>
<!DOCTYPE svg PUBLIC "-//W3C//DTD SVG 20010904//EN"
 "http://www.w3.org/TR/2001/REC-SVG-20010904/DTD/svg10.dtd">
<svg version="1.0" xmlns="http://www.w3.org/2000/svg"
 width="2048.000000pt" height="2048.000000pt" viewBox="0 0 2048.000000 2048.000000"
 preserveAspectRatio="xMidYMid meet">
<metadata>
Created by potrace 1.13, written by Peter Selinger 2001-2015
</metadata>
<g transform="translate(0.000000,2048.000000) scale(0.192120,-0.192120)"
fill="#000000" stroke="none">
<path d="M4320 10300 c-122 -21 -242 -97 -304 -193 -19 -28 -112 -213 -207
-409 -153 -318 -175 -357 -193 -353 -55 12 -761 56 -829 52 -196 -13 -367
-165 -408 -365 -11 -54 -9 -114 14 -455 15 -215 30 -403 33 -417 5 -25 -8 -32
-366 -205 -224 -109 -392 -196 -424 -221 -104 -82 -166 -213 -166 -353 0 -142
13 -168 275 -555 129 -190 235 -349 235 -351 0 -3 -53 -82 -118 -177 -246
-359 -341 -505 -363 -553 -20 -43 -23 -67 -23 -170 -1 -111 1 -125 26 -179 43
-90 94 -152 161 -196 52 -34 631 -322 736 -366 27 -11 32 -18 28 -36 -3 -13
-18 -202 -33 -421 -31 -444 -30 -458 28 -577 42 -85 119 -162 203 -201 114
-54 146 -55 570 -25 209 15 395 28 412 29 l33 2 123 -255 c251 -518 243 -504
303 -565 83 -84 180 -128 297 -133 119 -6 196 15 293 80 41 27 74 53 74 57 0
4 -14 27 -30 50 -43 59 -68 66 -167 47 -45 -9 -108 -16 -141 -16 -52 0 -66 5
-121 40 -80 52 -112 102 -284 445 -145 291 -192 358 -295 423 -85 55 -115 57
-506 32 -391 -26 -427 -24 -508 30 -76 50 -73 32 -73 525 0 398 -2 444 -18
479 -9 21 -54 76 -100 121 -81 81 -86 84 -352 218 -206 104 -285 150 -335 192
-88 75 -99 99 -100 211 0 85 2 93 33 145 18 30 40 65 48 79 7 14 70 111 139
215 143 218 215 352 225 419 14 94 -51 230 -251 523 -57 84 -104 155 -104 158
0 2 -19 34 -43 72 -41 66 -42 69 -45 169 l-4 102 43 42 c24 23 48 51 53 63 8
15 100 66 292 162 155 77 304 157 330 178 63 49 148 148 174 204 20 43 21 53
14 471 l-7 428 31 36 c18 19 32 40 32 46 0 20 87 62 149 73 49 9 132 7 394
-11 433 -29 442 -27 595 119 58 56 70 75 181 303 181 369 221 428 314 469 69
29 158 23 240 -16 32 -15 161 -96 286 -180 231 -154 338 -214 425 -236 101
-25 201 20 522 237 121 81 248 161 284 178 111 52 212 47 292 -16 57 -45 115
-141 253 -420 119 -242 130 -260 189 -315 86 -81 149 -120 214 -134 60 -12 74
-12 489 18 308 21 378 8 449 -85 l34 -45 0 -346 c0 -337 9 -495 32 -556 20
-53 85 -140 144 -194 47 -43 111 -80 345 -196 289 -143 362 -187 375 -228 4
-12 16 -34 27 -49 17 -23 19 -38 15 -105 -6 -99 -29 -145 -191 -387 -217 -324
-277 -444 -262 -524 16 -89 93 -226 282 -505 63 -92 118 -180 124 -195 5 -15
18 -43 29 -63 30 -56 28 -161 -5 -225 -45 -86 -90 -117 -381 -260 -286 -140
-367 -192 -435 -277 -81 -101 -79 -83 -79 -526 0 -402 -1 -418 -41 -507 -14
-34 -28 -47 -71 -68 -79 -38 -146 -41 -483 -16 -165 12 -327 19 -359 16 -83
-8 -134 -36 -227 -123 -76 -72 -83 -83 -159 -237 -43 -88 -95 -201 -116 -251
-59 -145 -100 -219 -147 -268 -63 -64 -101 -78 -232 -84 -60 -2 -123 -9 -139
-15 -29 -12 -86 -80 -86 -104 0 -7 35 -30 77 -51 76 -37 79 -38 192 -38 113 0
118 1 194 37 54 26 95 55 133 94 58 59 50 44 321 604 l104 215 47 -3 c26 -1
171 -11 322 -22 458 -34 478 -34 547 -17 181 47 308 178 344 356 12 55 10 112
-15 459 -16 219 -29 407 -30 419 -1 23 50 50 609 318 150 72 217 121 268 197
59 90 80 166 75 283 -3 81 -9 111 -29 156 -15 30 -125 200 -245 377 -120 177
-223 328 -228 335 -6 9 57 110 209 333 119 175 227 337 240 359 57 99 72 249
35 368 -24 76 -89 170 -152 219 -25 18 -212 114 -417 213 -327 158 -371 182
-367 200 2 11 17 197 32 413 31 435 30 470 -22 578 -37 77 -131 171 -208 208
-109 52 -143 53 -589 22 -221 -16 -407 -30 -412 -33 -6 -2 -91 163 -189 366
-99 203 -195 391 -215 418 -124 164 -360 224 -546 139 -43 -19 -518 -335 -669
-444 -34 -25 -52 -33 -62 -26 -8 5 -158 107 -334 227 -176 120 -343 229 -372
242 -29 13 -82 29 -118 34 -72 12 -76 12 -140 1z M5200 8379 c-831 -49 -1548
-647 -1755 -1463 -74 -293 -74 -650 0 -946 173 -691 710 -1232 1401 -1410 447
-116 932 -66 1344 139 578 287 971 830 1064 1472 20 135 20 401 1 538 -133
934 -911 1638 -1850 1673 -49 2 -142 1 -205 -3z m318 -269 c715 -75 1305 -563
1472 -1217 20 -78 21 -103 18 -475 l-3 -393 -42 -120 c-72 -212 -140 -339
-273 -515 -109 -144 -290 -304 -457 -404 -294 -176 -690 -267 -1035 -238 -255
22 -438 72 -663 183 -179 88 -301 175 -446 319 -216 216 -365 476 -434 763
-24 98 -25 115 -25 432 0 291 2 339 19 410 43 179 116 346 218 500 350 527
998 824 1651 755z M607 3348 c52 -652 238 -1189 555 -1600 320 -414 764 -687
1298 -797 267 -56 232 -54 1310 -60 l1005 -6 7 -63 c21 -192 131 -362 282
-435 153 -75 377 -75 533 0 146 70 260 247 281 435 l7 63 1005 6 c979 5 1009
6 1144 27 694 113 1199 425 1560 965 231 347 399 844 446 1317 16 171 17 180
8 180 -4 0 -37 -18 -73 -40 -298 -182 -775 -360 -1178 -439 -236 -47 -378 -61
-697 -71 -162 -5 -340 -14 -395 -20 -591 -67 -1011 -246 -1336 -570 -270 -270
-416 -572 -474 -985 -13 -90 -13 -31 -8 577 3 372 2 735 -2 806 l-7 129 -286
194 c-157 107 -290 194 -296 194 -6 0 -124 -76 -262 -170 l-252 -170 -7 -139
c-4 -77 -5 -450 -2 -830 5 -619 4 -681 -8 -591 -54 385 -197 696 -434 947
-275 291 -617 468 -1082 562 -197 40 -360 56 -684 66 -335 10 -472 25 -721 75
-403 82 -832 242 -1149 430 -42 25 -80 45 -84 45 -4 0 -6 -15 -4 -32z m492
-517 c186 -75 387 -140 571 -185 292 -71 470 -93 896 -111 224 -9 393 -22 490
-36 467 -67 837 -231 1085 -480 125 -125 200 -239 321 -487 54 -112 112 -224
127 -250 40 -65 45 -87 26 -106 -15 -14 -94 -16 -803 -16 -808 0 -973 6 -1191
41 -588 94 -1053 372 -1338 799 -59 88 -154 257 -194 346 -36 80 -104 277
-129 375 -19 74 -27 169 -14 169 4 0 72 -27 153 -59z m8601 -11 c0 -142 -123
-475 -262 -706 -200 -336 -426 -549 -755 -713 -263 -131 -549 -204 -913 -231
-184 -14 -1695 -13 -1721 0 -10 6 -19 18 -19 26 0 28 251 525 312 617 79 119
254 294 370 370 185 121 407 215 643 270 198 47 377 67 738 82 344 14 489 28
692 66 243 45 568 142 795 238 52 21 101 40 108 40 8 1 12 -17 12 -59z m-4328
1 c63 -33 202 -124 236 -154 l22 -20 0 -426 c0 -447 8 -594 40 -749 18 -89 84
-252 102 -252 4 0 8 -5 8 -12 0 -6 9 -21 19 -32 41 -44 32 -77 -42 -154 -65
-69 -127 -152 -127 -172 0 -19 -71 -144 -98 -172 -59 -64 -244 -84 -348 -39
-67 29 -96 61 -134 146 -17 39 -38 84 -45 100 -8 17 -46 68 -85 112 -98 114
-100 121 -51 197 64 99 101 204 128 363 13 79 17 199 20 620 l5 522 91 60
c100 65 150 90 183 91 12 0 46 -13 76 -29z"/>
</g>
</svg>
