<?xml version="1.0" standalone="no"?>
<!DOCTYPE svg PUBLIC "-//W3C//DTD SVG 20010904//EN"
 "http://www.w3.org/TR/2001/REC-SVG-20010904/DTD/svg10.dtd">
<svg version="1.0" xmlns="http://www.w3.org/2000/svg"
 width="2048.000000pt" height="2048.000000pt" viewBox="0 0 2048.000000 2048.000000"
 preserveAspectRatio="xMidYMid meet">
<metadata>
Created by potrace 1.13, written by Peter Selinger 2001-2015
</metadata>
<g transform="translate(0.000000,2048.000000) scale(0.192120,-0.192120)"
fill="#000000" stroke="none">
<path d="M5085 10319 c-1312 -125 -2798 -1197 -3599 -2597 -305 -533 -496
-1088 -573 -1662 -26 -193 -26 -746 0 -940 52 -392 141 -698 292 -1005 193
-393 455 -704 830 -985 299 -224 675 -413 1098 -551 332 -108 790 -205 1155
-244 l63 -7 -5 -37 c-4 -20 -33 -279 -67 -576 -66 -589 -68 -653 -29 -793 85
-303 327 -490 730 -564 96 -18 154 -21 350 -21 196 0 254 3 350 21 404 74 645
260 730 562 39 143 37 205 -29 795 -34 297 -63 556 -67 576 l-5 36 63 7 c381
41 838 140 1188 256 965 321 1624 880 1958 1660 131 304 211 644 243 1027 15
186 7 626 -15 793 -129 961 -603 1906 -1359 2708 -987 1047 -2258 1640 -3302
1541z m476 -249 c981 -98 2064 -739 2864 -1695 101 -121 411 -530 485 -640
108 -162 248 -439 350 -695 61 -154 110 -299 110 -329 0 -9 30 -141 66 -292
97 -400 93 -369 93 -749 1 -303 -2 -351 -24 -500 -13 -91 -33 -230 -45 -310
-23 -160 -60 -332 -92 -425 -24 -74 -126 -275 -186 -370 -64 -100 -385 -499
-451 -560 -288 -265 -689 -512 -996 -614 -293 -97 -897 -236 -1175 -271 -184
-24 -239 -50 -279 -133 -12 -24 -24 -71 -27 -104 l-7 -61 -116 -11 c-64 -7
-138 -14 -166 -17 -27 -2 -182 -9 -343 -14 -326 -10 -786 1 -1032 25 -85 8
-160 15 -166 15 -6 0 -14 27 -18 62 -3 34 -15 81 -27 105 -40 83 -95 109 -279
133 -275 34 -942 189 -1188 275 -111 39 -266 109 -346 157 -241 145 -444 289
-583 416 -112 101 -313 331 -406 464 -142 204 -280 455 -300 548 -2 14 -23
109 -46 212 -80 366 -81 376 -81 903 0 451 1 476 24 615 36 213 78 377 155
609 225 673 647 1334 1220 1909 770 772 1720 1268 2576 1345 91 8 340 6 436
-3z m-546 -8001 c228 -8 397 -8 640 1 182 6 337 13 346 16 9 2 28 0 42 -5 32
-12 39 -43 72 -339 21 -185 25 -270 25 -504 l0 -280 -26 -52 c-70 -140 -229
-228 -492 -273 -120 -20 -441 -22 -557 -4 -290 46 -467 140 -536 286 l-29 60
0 228 c0 187 5 275 30 495 33 288 44 358 62 380 9 10 26 13 63 8 27 -3 190
-11 360 -17z M4065 7819 c-203 -29 -367 -124 -395 -230 -30 -111 83 -222 287
-281 69 -20 100 -23 263 -23 147 0 198 4 249 19 139 38 251 108 287 177 22 44
18 106 -12 156 -80 138 -397 223 -679 182z m313 -189 c34 -6 87 -20 117 -31
48 -18 55 -24 55 -48 0 -32 -40 -58 -135 -87 -92 -28 -316 -26 -411 4 -172 53
-162 120 23 157 82 16 265 19 351 5z M6285 7820 c-165 -25 -323 -104 -370
-184 -29 -49 -33 -112 -11 -155 37 -71 148 -138 291 -177 57 -15 105 -19 250
-19 157 0 190 3 258 23 149 43 251 114 282 196 46 119 -74 238 -300 296 -92
24 -303 35 -400 20z m313 -190 c34 -6 87 -20 117 -31 47 -17 55 -24 55 -45 0
-37 -21 -52 -108 -82 -69 -23 -92 -26 -222 -26 -112 0 -159 4 -205 18 -79 24
-112 42 -125 66 -24 44 22 72 161 99 62 12 253 13 327 1z M2098 7260 c-172
-31 -304 -100 -353 -185 -76 -128 38 -260 283 -327 113 -31 382 -31 495 0 164
45 287 133 303 217 21 114 -87 218 -288 276 -57 16 -107 22 -233 24 -88 2
-181 0 -207 -5z m401 -199 c84 -22 122 -51 105 -79 -32 -50 -176 -91 -326 -92
-206 0 -387 70 -333 130 18 20 110 49 195 61 88 13 276 2 359 -20z M8207 7260
c-318 -57 -469 -244 -313 -388 98 -91 248 -140 446 -149 220 -9 418 42 521
135 85 76 100 144 50 224 -31 49 -59 72 -138 111 -102 52 -185 69 -358 72 -88
2 -182 0 -208 -5z m303 -180 c115 -16 187 -40 200 -66 16 -29 4 -47 -49 -73
-126 -63 -404 -67 -543 -7 -37 15 -78 49 -78 63 0 61 280 111 470 83z M2937
6150 c-67 -12 -184 -48 -230 -72 -60 -30 -124 -95 -143 -144 -22 -57 -8 -108
43 -165 45 -50 169 -112 270 -136 110 -25 369 -25 468 1 244 64 361 191 299
322 -37 77 -168 152 -325 184 -99 21 -288 25 -382 10z m373 -195 c88 -21 118
-34 125 -55 9 -27 -3 -45 -43 -68 -183 -102 -688 -41 -614 75 34 53 375 84
532 48z M7337 6141 c-154 -34 -285 -109 -321 -185 -63 -132 58 -260 304 -322
110 -28 374 -26 481 4 163 44 273 122 300 211 16 55 -7 116 -66 170 -55 50
-102 74 -212 107 -122 36 -354 43 -486 15z m425 -190 c81 -19 128 -43 128 -64
0 -24 -44 -55 -110 -78 -80 -28 -311 -39 -388 -19 -105 27 -143 43 -162 67
-26 33 -25 39 6 59 80 53 372 72 526 35z M5130 5865 c-235 -47 -378 -165 -350
-289 25 -110 188 -205 404 -235 324 -45 659 68 696 235 27 119 -113 239 -333
285 -109 22 -316 24 -417 4z m425 -190 c76 -21 105 -40 105 -68 -1 -29 -33
-51 -116 -78 -57 -19 -92 -23 -204 -24 -147 0 -235 14 -295 49 -100 56 -66 97
110 132 91 18 317 12 400 -11z M1775 4750 c-49 -10 -122 -35 -161 -55 -229
-113 -230 -285 0 -394 110 -53 188 -71 336 -78 384 -17 677 157 580 346 -35
70 -132 131 -272 172 -109 31 -359 36 -483 9z m320 -170 c107 -10 220 -43 229
-66 11 -28 -2 -49 -42 -71 -127 -70 -447 -70 -575 0 -45 25 -59 63 -32 83 28
21 119 44 203 53 107 12 116 12 217 1z M8488 4760 c-171 -29 -315 -106 -358
-191 -58 -112 21 -225 206 -295 212 -79 528 -68 715 26 102 52 169 129 169
195 0 109 -142 214 -344 256 -96 20 -296 24 -388 9z m402 -201 c107 -29 132
-56 88 -95 -94 -83 -403 -100 -583 -32 -36 14 -75 47 -75 64 0 33 105 72 230
84 107 11 253 2 340 -21z M4107 4489 c-104 -11 -218 -43 -290 -81 -260 -139
-177 -354 169 -440 172 -42 423 -27 578 34 163 64 244 185 192 287 -53 101
-221 178 -436 201 -105 11 -103 11 -213 -1z m285 -194 c165 -29 208 -89 98
-136 -75 -32 -141 -42 -275 -43 -119 -1 -151 3 -215 23 -79 24 -120 52 -120
83 0 9 10 24 23 32 22 15 116 41 172 49 69 9 245 5 317 -8z M6327 4489 c-158
-17 -291 -66 -368 -136 -51 -46 -69 -81 -69 -134 0 -111 122 -204 335 -256
108 -25 334 -23 449 5 284 71 401 232 266 371 -109 112 -374 177 -613 150z
m288 -194 c103 -19 149 -42 153 -76 4 -32 -21 -50 -114 -81 -59 -19 -89 -23
-214 -22 -122 0 -157 3 -220 23 -79 24 -120 52 -120 83 0 9 10 24 23 32 22 15
116 41 172 49 73 10 250 6 320 -8z M2937 3650 c-67 -12 -184 -48 -230 -72 -60
-30 -124 -95 -143 -144 -22 -57 -8 -108 43 -165 45 -50 169 -112 270 -136 110
-25 369 -25 468 1 244 64 361 191 299 322 -37 77 -168 152 -325 184 -99 21
-288 25 -382 10z m373 -195 c88 -21 118 -34 125 -55 9 -27 -3 -45 -43 -68
-127 -71 -457 -69 -580 4 -82 48 -41 94 109 123 76 15 317 12 389 -4z M7337
3641 c-154 -34 -285 -109 -321 -185 -63 -132 58 -260 304 -322 110 -28 374
-26 481 4 163 44 273 122 300 211 16 55 -7 116 -66 170 -55 50 -102 74 -212
107 -122 36 -354 43 -486 15z m425 -190 c81 -19 128 -43 128 -64 0 -17 -37
-50 -72 -65 -109 -46 -334 -57 -465 -22 -90 25 -107 33 -127 62 -21 30 -20 35
10 54 80 53 372 72 526 35z M5130 3365 c-235 -47 -378 -165 -350 -289 25 -110
188 -205 404 -235 324 -45 659 68 696 235 27 119 -113 239 -333 285 -109 22
-316 24 -417 4z m425 -190 c76 -21 105 -40 105 -68 -1 -29 -33 -51 -116 -78
-57 -19 -92 -23 -204 -24 -147 0 -235 14 -295 49 -100 56 -66 97 110 132 91
18 317 12 400 -11z"/>
</g>
</svg>
