<?xml version="1.0" standalone="no"?>
<!DOCTYPE svg PUBLIC "-//W3C//DTD SVG 20010904//EN"
 "http://www.w3.org/TR/2001/REC-SVG-20010904/DTD/svg10.dtd">
<svg version="1.0" xmlns="http://www.w3.org/2000/svg"
 width="2048.000000pt" height="2048.000000pt" viewBox="0 0 2048.000000 2048.000000"
 preserveAspectRatio="xMidYMid meet">
<metadata>
Created by potrace 1.13, written by Peter Selinger 2001-2015
</metadata>
<g transform="translate(0.000000,2048.000000) scale(0.192120,-0.192120)"
fill="#000000" stroke="none">
<path d="M1710 10119 c-615 -48 -1310 -220 -1310 -324 0 -8 33 -31 73 -52 80
-42 204 -133 308 -225 148 -131 337 -366 579 -718 290 -423 387 -548 549 -703
231 -221 484 -387 716 -470 210 -75 444 -91 627 -43 205 53 379 175 513 361
l20 28 92 -69 c198 -149 336 -295 465 -494 248 -379 386 -878 428 -1550 14
-224 14 -416 5 -3007 l-7 -2252 21 -45 c49 -100 219 -162 477 -173 309 -13
547 54 604 171 l20 43 0 1606 -1 1606 72 118 c217 356 469 685 742 970 105
109 294 282 380 347 l38 29 27 -25 c37 -36 134 -95 200 -125 203 -89 486 -90
740 -2 375 131 774 450 1021 818 32 47 127 201 211 341 309 516 458 706 684
875 39 29 101 70 139 90 82 45 86 63 21 105 -170 107 -727 229 -1239 271 -181
14 -576 14 -730 0 -839 -81 -1331 -393 -1464 -931 -23 -93 -41 -264 -34 -320
5 -34 3 -37 -79 -92 -191 -131 -515 -403 -652 -548 -36 -39 -67 -70 -69 -70
-2 0 -7 73 -11 163 -39 900 -257 1663 -638 2232 -282 420 -673 767 -1129 1000
l-107 55 -11 49 c-29 136 -92 271 -181 389 -243 322 -690 512 -1345 572 -128
12 -612 11 -765 -1z m870 -284 c519 -62 901 -228 1077 -467 19 -27 63 -111 98
-187 96 -214 181 -310 375 -423 440 -258 749 -547 984 -922 289 -461 456
-1029 526 -1796 24 -269 39 -328 106 -425 29 -42 117 -124 146 -136 68 -28
171 28 368 202 63 56 173 147 245 203 314 245 403 372 419 596 14 183 77 337
189 456 272 292 808 438 1542 421 285 -7 472 -24 730 -67 252 -42 279 -50 283
-78 4 -29 -18 -62 -170 -250 -87 -107 -211 -293 -358 -537 -237 -392 -316
-502 -477 -655 -226 -217 -468 -362 -713 -428 -78 -20 -120 -25 -230 -26 -155
-1 -203 8 -335 66 -49 22 -117 51 -150 66 -169 72 -292 7 -630 -332 -269 -270
-508 -563 -712 -872 -90 -136 -213 -370 -213 -406 -1 -13 -7 -34 -15 -48 -12
-21 -14 -243 -15 -1522 0 -1487 0 -1497 -20 -1508 -15 -8 -20 -21 -20 -50 0
-37 -2 -40 -39 -50 -122 -33 -373 -31 -492 3 -42 12 -44 15 -47 52 -2 22 -10
44 -18 48 -12 7 -14 355 -14 2510 0 2589 -1 2621 -40 2943 -92 752 -348 1319
-780 1727 -159 149 -288 227 -379 227 -57 0 -141 -48 -276 -157 -147 -118
-242 -166 -376 -189 -343 -59 -766 122 -1130 486 -125 124 -220 245 -413 525
-247 357 -360 507 -543 717 -106 122 -124 152 -102 173 27 27 433 93 699 115
74 6 155 12 180 14 112 9 613 -4 740 -19z"/>
</g>
</svg>
