<?xml version="1.0" standalone="no"?>
<!DOCTYPE svg PUBLIC "-//W3C//DTD SVG 20010904//EN"
 "http://www.w3.org/TR/2001/REC-SVG-20010904/DTD/svg10.dtd">
<svg version="1.0" xmlns="http://www.w3.org/2000/svg"
 width="2048.000000pt" height="2048.000000pt" viewBox="0 0 2048.000000 2048.000000"
 preserveAspectRatio="xMidYMid meet">
<metadata>
Created by potrace 1.13, written by Peter Selinger 2001-2015
</metadata>
<g transform="translate(0.000000,2048.000000) scale(0.192120,-0.192120)"
fill="#000000" stroke="none">
<path d="M7875 10170 c-122 -20 -259 -81 -284 -129 -6 -11 -11 -36 -11 -56 0
-33 14 -50 183 -223 100 -103 219 -236 265 -297 97 -129 192 -314 222 -430 20
-80 44 -264 36 -272 -2 -3 -49 5 -103 16 -339 69 -683 51 -1011 -55 -141 -46
-364 -157 -481 -241 -201 -144 -365 -341 -422 -507 -50 -144 -49 -239 4 -317
32 -47 134 -97 215 -106 38 -3 62 -10 62 -18 0 -6 -9 -81 -21 -166 -101 -754
-294 -1427 -578 -2014 -210 -434 -444 -783 -750 -1120 -345 -378 -769 -742
-1165 -1000 -762 -495 -1600 -732 -2386 -674 -277 21 -437 18 -534 -10 -150
-42 -265 -111 -367 -218 -108 -115 -163 -252 -162 -408 3 -576 848 -1100 2023
-1254 460 -61 1005 -72 1500 -31 1323 109 2447 554 3380 1340 167 140 480 452
624 621 800 942 1303 2128 1470 3469 13 107 27 237 31 288 l7 92 37 0 c56 0
136 45 171 94 84 123 106 343 69 686 -56 510 -281 892 -679 1155 -96 63 -275
157 -363 190 -35 13 -46 22 -43 34 15 47 28 334 22 471 -14 335 -62 553 -164
755 -85 166 -213 265 -407 316 -92 24 -295 33 -390 19z m318 -285 c216 -46
301 -146 369 -440 19 -80 22 -128 25 -442 3 -209 8 -353 14 -353 5 0 9 -15 9
-32 0 -43 74 -144 161 -219 35 -31 114 -85 174 -119 316 -180 486 -360 631
-664 93 -196 99 -232 99 -576 l0 -295 -58 -90 c-32 -49 -65 -111 -75 -137 -16
-46 -18 -48 -47 -42 -41 8 -173 75 -237 120 -190 131 -393 342 -469 484 -38
72 -73 95 -128 85 -20 -3 -103 -35 -186 -70 -175 -73 -198 -81 -287 -95 -148
-23 -297 30 -416 148 -65 64 -157 194 -214 300 -53 99 -177 128 -474 111 -87
-5 -220 -12 -295 -15 l-136 -7 -12 60 c-13 67 -47 121 -112 180 -41 37 -41 38
-37 99 4 72 42 137 127 222 28 28 51 56 51 62 0 32 205 177 355 251 140 68
255 107 415 140 99 20 144 24 320 24 113 0 264 -4 336 -9 125 -9 134 -8 177
13 65 31 191 156 207 205 18 56 7 222 -20 311 -62 198 -158 372 -327 592 -128
165 -137 179 -129 199 7 19 99 18 189 -1z m-881 -2464 c130 -14 162 -37 261
-185 108 -159 238 -279 357 -326 115 -46 286 -44 418 6 264 100 304 109 354
76 15 -9 55 -53 89 -97 126 -162 330 -350 484 -446 l63 -40 7 -86 c14 -168 -5
-344 -81 -737 -315 -1626 -1170 -2966 -2411 -3780 -754 -494 -1615 -791 -2583
-890 -502 -52 -1080 -52 -1535 -1 -893 101 -1672 443 -1859 815 -35 71 -36 76
-36 187 0 76 5 125 14 148 34 81 174 175 316 212 77 20 217 22 503 6 1063 -58
2094 336 3072 1173 175 150 555 525 677 669 136 160 264 329 363 480 469 712
775 1535 940 2530 21 120 41 229 46 241 10 28 30 32 219 43 206 12 225 12 322
2z"/>
</g>
</svg>
