<?xml version="1.0" standalone="no"?>
<!DOCTYPE svg PUBLIC "-//W3C//DTD SVG 20010904//EN"
 "http://www.w3.org/TR/2001/REC-SVG-20010904/DTD/svg10.dtd">
<svg version="1.0" xmlns="http://www.w3.org/2000/svg"
 width="2048.000000pt" height="2048.000000pt" viewBox="0 0 2048.000000 2048.000000"
 preserveAspectRatio="xMidYMid meet">
<metadata>
Created by potrace 1.13, written by Peter Selinger 2001-2015
</metadata>
<g transform="translate(0.000000,2048.000000) scale(0.192120,-0.192120)"
fill="#000000" stroke="none">
<path d="M7284 10292 c-112 -39 -200 -116 -252 -222 l-27 -55 -5 -670 -5 -669
-75 -12 c-234 -37 -514 -134 -750 -260 -625 -335 -1107 -965 -1328 -1739 -113
-391 -152 -689 -152 -1157 0 -1495 521 -2845 1447 -3748 788 -769 1864 -1232
3186 -1371 155 -16 567 -45 567 -40 0 2 -22 38 -49 80 -106 166 -198 377 -251
575 -56 209 -72 331 -77 584 -12 522 55 881 372 1987 243 850 317 1174 360
1587 17 171 20 553 4 733 -90 1058 -556 1921 -1299 2408 -233 152 -574 292
-855 350 -151 32 -255 43 -255 29 0 -19 85 -116 133 -152 52 -39 83 -51 335
-133 447 -146 801 -395 1118 -787 258 -318 449 -741 569 -1255 20 -88 61 -245
92 -350 59 -202 103 -384 103 -424 0 -17 -23 16 -71 99 -373 652 -924 1101
-1539 1255 -173 43 -309 58 -537 59 l-213 1 -2 1505 -3 1505 -27 58 c-31 66
-112 156 -172 191 -96 56 -242 72 -342 38z m221 -286 c19 -8 46 -32 62 -57
l28 -43 3 -570 c2 -351 6 -574 12 -580 6 -6 10 -32 10 -58 0 -26 3 -48 8 -48
30 0 32 -59 32 -817 0 -672 2 -763 15 -763 10 0 15 -11 15 -35 0 -19 4 -35 8
-35 4 0 14 -16 21 -35 7 -19 17 -35 22 -35 5 0 9 -5 9 -11 0 -18 73 -80 118
-101 36 -16 78 -21 229 -28 317 -15 474 -46 707 -139 187 -75 375 -185 540
-317 107 -86 298 -276 325 -324 l21 -39 -35 4 c-20 2 -50 10 -68 18 -371 175
-661 270 -977 321 -245 39 -652 46 -733 13 -57 -24 -145 -98 -159 -134 -6 -18
-16 -33 -20 -33 -4 0 -8 -239 -8 -530 0 -526 0 -531 22 -578 32 -67 122 -155
178 -171 24 -7 135 -17 245 -22 110 -5 225 -13 256 -18 319 -54 589 -185 803
-391 109 -105 184 -198 192 -239 9 -42 -3 -41 -119 14 -284 132 -538 201 -841
225 -232 18 -441 9 -503 -24 -43 -22 -122 -95 -149 -137 -22 -36 -24 -49 -24
-166 0 -136 35 -411 91 -703 33 -178 44 -214 83 -289 31 -60 115 -150 164
-175 18 -9 99 -39 180 -67 159 -55 408 -170 460 -214 18 -15 32 -36 32 -46 0
-19 -7 -20 -182 -17 -134 2 -196 -1 -231 -11 -52 -15 -123 -72 -169 -135 -55
-77 -37 -190 77 -466 63 -153 175 -384 264 -545 79 -141 101 -198 82 -210 -17
-10 -138 93 -247 211 -171 186 -308 358 -419 529 -69 105 -153 193 -215 225
-61 31 -127 23 -222 -27 -58 -30 -104 -69 -222 -186 -82 -81 -152 -147 -157
-147 -5 0 -9 42 -9 94 0 74 5 110 26 172 35 109 121 282 188 384 32 47 76 122
98 167 39 79 41 87 40 169 -1 70 -10 116 -51 257 -84 292 -106 385 -182 786
-32 171 -67 235 -158 293 -84 53 -184 33 -405 -80 -211 -107 -438 -273 -684
-500 -82 -75 -106 -92 -113 -81 -47 72 192 459 436 703 171 173 340 292 562
397 118 56 198 127 229 202 10 26 22 47 27 47 4 0 7 293 7 650 0 374 -4 650
-9 650 -5 0 -12 11 -15 24 -7 28 -87 110 -131 134 -22 12 -64 17 -160 20 -375
11 -876 -112 -1375 -338 -47 -21 -97 -42 -112 -45 -24 -6 -28 -4 -28 15 0 28
173 203 300 304 224 178 492 328 724 405 158 52 269 77 457 101 96 12 160 25
186 38 50 26 117 98 134 145 7 21 17 37 21 37 4 0 8 16 8 35 0 19 5 35 10 35
7 0 10 256 10 748 0 642 2 751 15 768 8 10 15 31 15 46 0 15 5 30 10 33 6 3
10 21 10 40 0 19 5 37 10 40 6 4 10 207 10 575 0 379 4 578 11 597 14 37 47
73 84 89 40 18 147 18 190 0z m-506 -2212 l1 -801 -147 -6 c-683 -24 -1396
-454 -1895 -1142 -44 -60 -105 -152 -136 -204 -31 -51 -58 -89 -60 -83 -7 21
30 177 90 377 32 110 84 301 114 425 83 343 149 531 274 780 201 399 443 690
775 930 212 153 418 258 679 345 43 15 85 33 93 41 8 8 19 14 25 14 15 0 126
110 151 150 l22 35 6 -30 c4 -16 7 -391 8 -831z m1 -2272 l0 -649 -87 -33
c-527 -198 -967 -658 -1246 -1300 -89 -205 -189 -526 -213 -685 l-7 -50 -13
30 c-7 17 -27 91 -45 165 -47 201 -78 307 -181 610 -173 509 -251 872 -303
1425 -9 94 -23 184 -30 200 -8 17 -32 54 -54 84 -23 30 -41 58 -41 62 0 10 92
80 190 146 391 261 900 483 1313 572 207 45 283 53 680 69 l37 2 0 -648z
m1325 634 c564 -15 1217 -270 1753 -685 50 -39 92 -74 92 -77 0 -4 -20 -36
-44 -73 -54 -81 -58 -97 -96 -350 -31 -205 -64 -371 -119 -601 -37 -157 -48
-243 -56 -453 -4 -92 -10 -180 -14 -195 l-8 -27 -7 30 c-14 56 -93 250 -141
345 -103 206 -217 364 -374 520 -340 337 -755 489 -1306 478 l-170 -3 -3 551
-2 551 167 -3 c93 -2 240 -6 328 -8z m220 -1902 c356 -44 677 -173 963 -386
94 -71 237 -205 268 -253 l17 -27 -54 -51 c-83 -79 -100 -125 -227 -607 l-57
-215 0 -200 c-1 -110 -2 -204 -3 -209 -1 -5 -15 9 -30 30 -50 69 -134 155
-237 243 -311 268 -682 468 -1013 547 -59 14 -108 27 -109 28 -4 3 -64 314
-87 451 -26 154 -86 601 -86 642 0 22 2 23 148 26 201 5 364 -1 507 -19z
m-1480 -300 c40 -306 131 -701 224 -982 l59 -175 -55 -65 c-253 -298 -410
-763 -430 -1273 -7 -186 -2 -184 -104 -42 -84 116 -84 116 -284 298 -305 277
-430 412 -632 683 -165 220 -184 241 -265 282 -31 16 -60 34 -63 40 -9 14 54
119 153 255 299 411 675 750 1054 950 103 54 319 147 326 141 2 -2 10 -53 17
-112z m1470 -1524 c154 -13 300 -34 495 -71 148 -29 385 -85 402 -95 4 -3 -7
-35 -26 -72 -65 -129 -66 -138 -66 -533 0 -338 1 -365 25 -492 37 -200 68
-280 215 -557 63 -120 52 -153 -32 -96 -223 149 -523 464 -718 754 -200 299
-372 641 -515 1025 -40 107 -46 130 -34 138 18 11 104 11 254 -1z m-825 -387
c47 -91 219 -338 327 -473 342 -427 765 -774 1258 -1032 131 -69 144 -78 105
-72 -78 11 -298 70 -475 127 -243 78 -343 109 -573 172 -375 104 -647 203
-967 352 -224 105 -238 110 -348 118 l-98 7 37 66 c146 262 390 576 533 686
55 42 146 95 166 96 6 0 21 -21 35 -47z M2189 8094 c-56 -17 -132 -82 -162
-138 -22 -40 -22 -50 -27 -511 l-5 -470 -25 -3 c-160 -18 -365 -80 -535 -162
-663 -319 -1066 -1028 -1101 -1934 -15 -380 43 -703 264 -1476 152 -532 194
-706 233 -960 26 -175 32 -497 11 -625 -40 -242 -113 -436 -240 -633 l-15 -24
69 6 c281 24 424 39 542 56 839 124 1523 443 2031 949 539 537 869 1280 967
2174 24 213 24 628 1 797 -34 241 -83 438 -156 626 -221 567 -628 967 -1156
1137 -111 36 -254 67 -306 67 l-28 0 -3 473 c-3 465 -3 473 -25 513 -31 59
-106 121 -166 139 -62 18 -107 18 -168 -1z m121 -323 c6 -13 10 -149 10 -375
0 -226 4 -357 10 -361 6 -3 10 -28 10 -55 0 -26 3 -50 8 -52 4 -1 15 -20 25
-41 15 -34 17 -80 17 -482 0 -290 3 -445 10 -445 6 0 10 -16 10 -35 0 -19 5
-35 10 -35 6 0 10 -9 10 -20 0 -11 7 -23 15 -26 8 -4 15 -12 15 -19 0 -21 72
-90 116 -113 22 -11 90 -28 154 -37 245 -36 451 -109 578 -204 33 -26 42 -51
18 -51 -8 0 -63 12 -123 26 -330 78 -527 89 -632 34 -44 -23 -141 -116 -141
-136 0 -8 -4 -14 -10 -14 -7 0 -10 -175 -10 -505 0 -330 3 -505 10 -505 6 0
10 -6 10 -14 0 -8 6 -21 13 -28 6 -7 23 -29 37 -49 39 -57 103 -104 213 -159
55 -28 132 -72 169 -97 144 -95 344 -313 287 -313 -11 0 -127 66 -189 108 -56
38 -231 119 -282 131 -108 25 -161 11 -243 -68 -64 -61 -89 -122 -129 -316
-19 -93 -53 -244 -75 -334 -65 -263 -61 -288 85 -527 69 -113 74 -125 74 -178
0 -63 7 -62 -75 -10 -113 71 -187 87 -257 57 -56 -26 -164 -126 -223 -209 -25
-35 -50 -64 -56 -64 -14 0 -11 133 6 197 33 126 15 185 -87 289 -84 86 -84 87
74 159 109 50 200 173 233 315 39 169 67 371 71 520 l5 155 -30 47 c-37 57
-118 124 -169 138 -100 28 -284 21 -521 -20 -136 -24 -141 -24 -141 -6 0 42
172 130 327 167 45 11 146 26 225 33 149 15 181 23 230 57 41 29 104 118 117
165 14 52 15 864 1 864 -5 0 -10 7 -10 15 0 23 -88 114 -132 136 -110 56 -360
46 -673 -27 -11 -2 -29 -6 -40 -8 -11 -2 -39 -9 -63 -15 -23 -7 -47 -9 -52 -6
-6 3 -10 0 -11 -7 0 -10 -2 -10 -6 0 -12 29 119 116 259 171 116 46 222 70
383 86 93 9 161 21 188 33 51 23 120 95 138 145 7 21 17 37 21 37 4 0 8 16 8
35 0 19 5 35 10 35 7 0 10 155 10 446 0 428 1 447 21 490 11 25 23 68 26 96 3
28 12 52 19 55 11 4 14 71 14 358 0 194 3 360 6 369 9 23 61 21 74 -3z m-311
-1383 l1 -508 -151 0 c-270 0 -506 -69 -737 -216 -237 -151 -490 -427 -651
-709 -55 -97 -63 -92 -36 25 35 147 112 359 249 678 181 422 370 669 670 871
93 63 240 140 348 181 45 17 87 38 95 46 8 8 19 14 25 14 15 0 126 110 151
150 l22 35 6 -30 c4 -16 7 -258 8 -537z m663 450 c67 -67 91 -81 245 -143 96
-40 210 -97 267 -133 301 -194 540 -487 677 -829 148 -371 306 -849 287 -868
-2 -3 -41 51 -85 118 -376 566 -892 897 -1399 897 l-104 0 0 513 c0 281 3 523
7 536 l6 25 15 -25 c9 -13 46 -54 84 -91z m-662 -1820 c0 -172 -3 -370 -7
-440 l-6 -128 -142 0 c-210 0 -380 -35 -541 -111 -158 -75 -323 -213 -440
-369 -63 -84 -165 -270 -200 -364 -16 -43 -19 -46 -26 -27 -4 12 -12 138 -17
279 -9 230 -14 279 -49 472 -39 220 -50 253 -109 329 -18 24 -33 50 -33 57 0
29 231 215 397 320 180 114 425 217 613 258 121 27 194 33 383 35 l177 1 0
-312z m880 302 c286 -35 622 -166 923 -362 124 -81 305 -221 313 -243 3 -8 -7
-33 -23 -57 -16 -24 -37 -59 -46 -79 -17 -38 -19 -48 -42 -244 -35 -298 -84
-528 -170 -804 -30 -97 -70 -255 -89 -351 -19 -96 -41 -192 -48 -213 l-14 -38
-36 133 c-148 547 -463 979 -858 1177 -54 27 -130 60 -169 72 l-71 23 0 498 0
498 123 0 c67 0 161 -5 207 -10z m-934 -1490 c-14 -155 -79 -558 -109 -677
l-12 -46 -80 -22 c-264 -72 -625 -296 -799 -496 l-38 -44 6 85 c22 288 21 307
-40 515 -41 139 -64 181 -133 250 -28 27 -51 54 -51 60 0 13 86 97 164 159
130 104 306 188 491 236 149 38 227 47 434 49 l174 1 -7 -70z m656 -86 c269
-96 564 -310 789 -573 106 -124 229 -294 229 -317 0 -7 -31 -31 -70 -54 -47
-28 -83 -58 -112 -96 -135 -176 -241 -297 -393 -449 -99 -100 -195 -206 -229
-255 -64 -92 -96 -130 -106 -130 -4 0 -10 55 -13 123 -11 201 -64 417 -146
593 -49 104 -95 174 -170 262 l-60 70 28 85 c62 181 126 467 152 675 6 50 15
92 20 92 4 0 41 -12 81 -26z m-917 -1146 c-19 -63 -115 -289 -175 -413 -137
-283 -300 -516 -495 -710 -66 -66 -135 -128 -153 -138 -31 -18 -32 -18 -32 0
0 11 18 57 41 104 81 166 120 263 144 358 22 86 25 117 25 296 l0 200 -29 60
c-16 33 -41 79 -55 102 -15 23 -22 44 -17 47 16 10 212 54 336 75 153 27 251
38 343 40 72 1 73 0 67 -21z m488 -235 c103 -52 285 -257 406 -460 l52 -88
-33 -6 c-18 -4 -63 -9 -100 -12 -45 -4 -97 -18 -155 -42 -214 -88 -322 -129
-528 -200 -121 -42 -254 -89 -295 -105 -252 -97 -515 -177 -556 -168 -9 2 17
22 62 47 210 118 398 262 577 439 182 180 346 387 442 560 45 79 42 79 128 35z"/>
</g>
</svg>
