<?xml version="1.0" standalone="no"?>
<!DOCTYPE svg PUBLIC "-//W3C//DTD SVG 20010904//EN"
 "http://www.w3.org/TR/2001/REC-SVG-20010904/DTD/svg10.dtd">
<svg version="1.0" xmlns="http://www.w3.org/2000/svg"
 width="2048.000000pt" height="2048.000000pt" viewBox="0 0 2048.000000 2048.000000"
 preserveAspectRatio="xMidYMid meet">
<metadata>
Created by potrace 1.13, written by Peter Selinger 2001-2015
</metadata>
<g transform="translate(0.000000,2048.000000) scale(0.192120,-0.192120)"
fill="#000000" stroke="none">
<path d="M8213 9815 c-154 -42 -327 -172 -428 -324 -95 -144 -144 -287 -265
-776 -179 -724 -294 -1075 -485 -1483 -120 -258 -282 -543 -432 -762 -98 -143
-266 -370 -272 -369 -3 0 -26 32 -51 71 -81 127 -246 288 -405 395 -283 190
-726 354 -1123 413 -181 27 -476 37 -652 21 -488 -45 -952 -200 -1400 -469
-369 -221 -590 -444 -709 -717 -40 -89 -62 -168 -130 -453 -36 -148 -72 -230
-134 -300 -69 -77 -81 -107 -78 -184 1 -39 52 -92 111 -117 73 -31 160 -37
261 -16 182 36 326 120 540 316 171 155 330 271 559 409 456 274 980 500 1470
635 154 42 184 42 322 -1 324 -102 479 -330 413 -610 -32 -139 -99 -249 -262
-431 -68 -76 -123 -150 -148 -195 -35 -68 -48 -81 -184 -189 -535 -424 -1668
-1226 -2989 -2112 -705 -473 -961 -697 -1115 -970 -27 -47 -20 -231 12 -302
106 -239 432 -398 966 -474 212 -30 395 -41 681 -41 700 0 1391 106 1989 305
682 226 1466 705 2320 1415 323 269 469 403 862 793 l372 370 -42 61 c-129
192 -262 352 -423 512 -312 310 -669 526 -871 528 -46 1 -63 5 -63 15 0 7 -15
52 -34 100 -41 104 -64 197 -111 446 -20 105 -43 215 -52 245 -71 251 -215
414 -468 530 -239 111 -448 133 -809 84 l-129 -17 -42 48 c-40 46 -44 49 -101
53 -71 5 -163 -18 -424 -107 -386 -132 -580 -211 -840 -344 -397 -204 -671
-385 -945 -627 -66 -58 -142 -122 -170 -142 -144 -103 -349 -163 -430 -126
-33 15 -32 45 4 111 51 90 89 200 140 404 52 209 101 340 163 433 50 75 166
206 226 255 27 22 53 49 58 60 27 60 442 311 684 413 369 156 718 242 1035
254 69 2 80 0 83 -15 3 -15 17 -17 115 -17 106 -1 226 -9 345 -25 44 -7 52 -5
52 9 0 9 2 16 4 16 2 0 40 -7 85 -15 128 -25 345 -89 481 -143 320 -127 481
-227 760 -472 161 -142 208 -161 295 -121 98 45 234 195 356 392 29 46 69 109
89 139 152 226 360 656 495 1025 110 301 159 468 294 1010 127 509 169 630
269 770 118 167 316 279 454 259 77 -11 163 -61 231 -133 142 -150 213 -298
316 -656 22 -77 51 -168 65 -201 14 -34 35 -108 48 -165 22 -99 23 -123 23
-534 -1 -378 -3 -455 -23 -635 -30 -276 -74 -559 -128 -830 -111 -553 -207
-837 -444 -1316 -136 -274 -152 -321 -130 -388 18 -55 82 -129 157 -182 283
-197 466 -371 599 -569 130 -192 187 -323 239 -545 l27 -115 -4 -470 -4 -470
-57 -220 c-71 -277 -85 -321 -154 -462 -280 -580 -744 -927 -1358 -1014 -38
-6 -225 -14 -415 -18 -377 -9 -417 -15 -511 -72 -53 -33 -68 -35 -109 -14 -36
19 -50 43 -50 90 0 69 58 153 233 332 128 131 170 156 391 233 245 84 354 147
472 271 78 83 116 139 171 256 25 53 65 123 88 157 75 108 112 189 144 314 36
138 41 192 41 471 0 261 -2 281 -25 376 -63 249 -164 437 -251 465 -34 12 -89
6 -82 -8 66 -126 144 -301 171 -382 60 -177 70 -243 68 -445 -4 -416 -77 -730
-227 -972 -29 -47 -86 -116 -144 -173 -156 -155 -288 -220 -663 -329 -114 -34
-229 -72 -255 -85 -26 -13 -82 -53 -125 -89 -87 -73 -181 -122 -307 -161 -166
-53 -326 -71 -793 -92 l-128 -6 78 -27 c67 -24 157 -69 241 -122 31 -19 36
-42 17 -78 -22 -44 -192 -219 -244 -253 -25 -15 -41 -28 -35 -28 10 0 129 44
292 108 126 50 249 86 373 109 85 16 153 18 714 15 762 -5 905 6 1175 83 292
84 549 235 765 450 171 171 285 332 400 570 107 221 180 442 235 716 49 238
63 397 57 614 -6 198 -21 312 -63 480 -134 528 -508 1001 -1006 1274 -43 24
-78 44 -78 45 0 1 36 61 79 134 242 403 408 837 510 1332 187 911 229 1724
121 2388 -100 617 -339 1038 -639 1126 -66 19 -168 20 -238 1z m-2598 -3872
c238 -85 374 -204 438 -380 14 -40 47 -175 73 -300 75 -367 125 -501 227 -604
63 -62 77 -69 225 -120 217 -75 395 -190 635 -411 93 -86 267 -276 315 -345
34 -48 29 -92 -17 -150 -75 -92 -514 -516 -751 -723 -465 -407 -799 -661
-1380 -1048 -344 -230 -421 -277 -595 -362 -405 -200 -678 -288 -1157 -374
-566 -103 -1080 -144 -1563 -125 -245 9 -355 20 -598 60 -133 22 -211 29 -311
29 -141 0 -246 19 -323 59 l-38 19 60 -5 c74 -7 175 17 221 52 18 13 43 46 55
72 21 43 24 65 27 210 4 161 4 162 -21 187 -31 31 -97 40 -258 34 l-120 -4 53
34 c56 35 230 121 310 153 27 10 66 30 87 45 22 14 45 23 51 19 6 -4 17 -1 25
5 11 9 15 9 15 1 0 -6 16 -35 36 -64 101 -146 174 -186 374 -208 120 -13 333
-7 549 16 301 32 665 100 961 181 519 141 1145 453 1763 879 75 52 137 90 137
85 0 -18 390 281 560 429 161 140 342 326 395 406 102 156 125 222 125 368 0
105 -1 109 -39 185 -119 236 -422 357 -966 387 -66 4 -128 12 -138 17 -36 19
-2 82 123 233 170 206 240 320 299 488 29 84 31 97 31 238 0 139 -2 155 -31
245 -17 53 -28 102 -25 111 8 19 63 11 161 -24z m-330 -1454 c469 -35 762
-163 816 -357 30 -106 -26 -254 -149 -398 -125 -145 -430 -408 -757 -652 -689
-514 -1401 -894 -1979 -1057 -276 -78 -680 -155 -993 -191 -179 -20 -500 -23
-593 -5 -76 15 -146 43 -177 73 -34 32 -31 94 6 144 51 70 143 148 311 264
192 133 479 349 920 690 1040 806 1545 1159 1940 1359 272 137 353 153 655
130z m-4355 -3033 c0 -19 -4 -23 -20 -19 -30 8 -25 43 7 43 7 0 13 -11 13 -24z
M8819 8608 c-79 -82 -226 -530 -413 -1253 -41 -159 -98 -362 -126 -450 -181
-558 -459 -1110 -856 -1698 -63 -93 -114 -170 -114 -171 0 -1 33 2 73 7 127
16 357 3 489 -27 65 -15 143 -36 174 -46 32 -11 63 -20 70 -20 16 0 217 404
289 584 291 718 476 1524 526 2296 13 198 6 580 -12 680 -21 116 -52 147 -100
98z m-74 -1353 c-98 -651 -270 -1259 -506 -1791 -95 -215 -129 -275 -176 -308
l-42 -29 -108 21 c-59 12 -142 26 -184 31 -42 5 -86 14 -97 20 -31 16 -28 58
6 112 16 25 31 49 33 54 2 6 47 82 100 170 128 214 274 492 370 703 44 95 79
175 79 178 0 2 29 79 64 171 93 242 133 373 241 778 106 399 163 590 203 680
l27 60 3 -375 c2 -295 -1 -396 -13 -475z M5248 876 c-27 -7 -48 -12 -48 -10 0
2 -22 -17 -50 -43 -60 -55 -91 -116 -100 -197 l-7 -61 -2 55 c0 30 4 72 10 93
11 42 59 101 104 129 40 24 14 23 -34 -1 -56 -29 -98 -82 -106 -135 -9 -59 0
-97 48 -189 70 -135 164 -195 292 -184 35 2 77 12 95 21 18 8 38 13 44 9 6 -3
8 -3 4 2 -4 4 13 30 37 58 80 89 95 201 40 313 -58 118 -197 177 -327 140z"/>
</g>
</svg>
