<?xml version="1.0" standalone="no"?>
<!DOCTYPE svg PUBLIC "-//W3C//DTD SVG 20010904//EN"
 "http://www.w3.org/TR/2001/REC-SVG-20010904/DTD/svg10.dtd">
<svg version="1.0" xmlns="http://www.w3.org/2000/svg"
 width="2048.000000pt" height="2048.000000pt" viewBox="0 0 2048.000000 2048.000000"
 preserveAspectRatio="xMidYMid meet">
<metadata>
Created by potrace 1.13, written by Peter Selinger 2001-2015
</metadata>
<g transform="translate(0.000000,2048.000000) scale(0.192120,-0.192120)"
fill="#000000" stroke="none">
<path d="M1181 10315 c-91 -26 -147 -78 -177 -167 -28 -84 -23 -232 20 -517
52 -351 48 -516 -16 -619 -12 -19 -48 -65 -80 -101 -37 -42 -77 -102 -108
-166 -86 -175 -116 -345 -107 -610 8 -240 40 -426 118 -694 45 -152 58 -177
60 -110 1 32 6 15 20 -66 134 -781 672 -1933 1432 -3068 461 -689 868 -1190
1396 -1717 896 -893 1554 -1414 2206 -1745 415 -211 772 -323 1210 -382 180
-24 658 -24 872 0 411 46 722 128 1011 267 569 274 880 685 989 1305 22 126
25 574 5 735 -70 570 -248 1041 -551 1460 -446 617 -1092 1026 -1906 1205
-209 46 -360 87 -503 136 -1042 358 -2112 1134 -2809 2036 -55 70 -162 209
-238 308 -216 279 -425 524 -597 700 l-157 162 54 -5 c30 -2 55 -2 55 2 0 16
-302 270 -450 378 -144 105 -292 192 -397 235 -112 46 -195 52 -428 28 -222
-22 -302 -12 -367 48 -65 60 -78 119 -88 402 -6 153 -15 263 -24 303 -31 124
-90 207 -176 245 -59 27 -194 33 -269 12z m182 -292 c44 -64 49 -91 58 -293 9
-226 16 -267 64 -365 27 -56 52 -89 110 -143 160 -149 224 -166 581 -148 162
8 175 8 245 -13 92 -28 187 -79 349 -185 69 -46 143 -93 165 -106 128 -76 150
-93 130 -101 -11 -4 -186 -8 -388 -8 -405 -1 -420 -3 -456 -61 -10 -17 -23
-57 -29 -88 -11 -57 -23 -406 -13 -397 2 3 7 85 11 183 7 169 8 180 34 224 15
26 39 51 55 58 21 8 123 11 373 8 l343 -3 52 -27 c31 -17 74 -54 110 -95 32
-36 130 -148 218 -247 193 -218 390 -457 550 -666 308 -403 435 -552 689 -806
524 -524 1077 -927 1721 -1254 398 -203 748 -330 1162 -425 462 -106 797 -241
1103 -442 641 -423 1011 -980 1160 -1748 18 -90 20 -145 20 -533 0 -467 -3
-500 -57 -662 -149 -445 -488 -751 -1029 -929 -365 -120 -732 -168 -1203 -158
-287 6 -437 24 -681 83 -737 176 -1432 600 -2360 1439 -247 223 -891 870
-1050 1055 -789 915 -1566 2165 -1986 3196 -76 188 -197 555 -234 714 -17 74
-52 197 -76 272 l-44 136 0 243 0 242 35 72 c40 83 97 139 159 156 23 6 73 9
113 6 84 -6 175 -47 233 -103 20 -19 40 -34 45 -34 6 0 28 -18 50 -40 22 -21
44 -39 48 -40 5 0 21 -8 35 -19 70 -48 237 -69 292 -35 19 11 21 14 5 10 -64
-15 -88 -16 -145 -7 -93 15 -152 49 -274 155 -60 52 -136 110 -170 128 -56 30
-69 32 -152 33 -80 0 -95 -3 -128 -25 -81 -55 -148 -175 -222 -395 l-43 -130
-1 333 c0 350 6 420 50 536 23 59 111 215 156 274 44 58 90 153 109 227 20 79
20 353 0 512 -10 76 -15 177 -13 283 l3 165 38 3 c20 2 37 7 37 13 0 19 18 7
43 -28z"/>
</g>
</svg>
