<?xml version="1.0" standalone="no"?>
<!DOCTYPE svg PUBLIC "-//W3C//DTD SVG 20010904//EN"
 "http://www.w3.org/TR/2001/REC-SVG-20010904/DTD/svg10.dtd">
<svg version="1.0" xmlns="http://www.w3.org/2000/svg"
 width="2048.000000pt" height="2048.000000pt" viewBox="0 0 2048.000000 2048.000000"
 preserveAspectRatio="xMidYMid meet">
<metadata>
Created by potrace 1.13, written by Peter Selinger 2001-2015
</metadata>
<g transform="translate(0.000000,2048.000000) scale(0.192120,-0.192120)"
fill="#000000" stroke="none">
<path d="M2826 10305 c-171 -35 -293 -92 -376 -175 -74 -74 -134 -167 -252
-394 -252 -483 -371 -590 -896 -802 -343 -140 -443 -194 -534 -291 -55 -59
-86 -117 -123 -233 -24 -73 -28 -102 -29 -205 0 -106 3 -129 28 -200 68 -197
212 -383 511 -658 357 -328 706 -528 1320 -755 480 -177 1117 -346 1553 -413
45 -7 82 -15 82 -19 0 -4 -37 -12 -82 -19 -274 -42 -735 -151 -1086 -257 -555
-168 -1007 -359 -1349 -570 -181 -112 -321 -225 -552 -449 -331 -320 -460
-573 -423 -828 22 -153 75 -278 150 -360 91 -97 181 -147 502 -277 558 -227
672 -326 925 -810 201 -382 286 -473 510 -543 124 -39 219 -50 357 -44 148 6
231 28 378 98 179 86 403 246 665 479 391 347 754 975 1002 1732 37 114 70
207 73 208 3 0 2 -53 -2 -117 -17 -308 -6 -746 28 -1093 99 -1026 408 -1928
869 -2535 174 -230 277 -331 401 -394 170 -86 333 -57 520 93 189 152 273 287
274 439 0 153 -42 226 -270 466 -201 211 -343 376 -485 566 -435 580 -719
1169 -884 1830 -53 212 -121 598 -108 611 2 3 21 -46 42 -108 98 -298 290
-733 434 -982 192 -331 361 -544 590 -744 471 -411 742 -552 1062 -552 155 0
331 42 451 107 67 37 152 121 210 209 26 40 93 159 148 265 257 491 377 597
927 818 309 124 416 184 506 280 96 104 152 270 151 446 -1 92 -5 123 -28 190
-58 169 -153 303 -376 526 -328 329 -547 485 -956 680 -534 255 -1442 530
-2051 620 -46 7 -83 16 -83 21 0 4 9 8 19 8 71 0 572 106 854 181 868 231
1551 538 1948 876 147 125 389 366 467 466 205 260 256 486 168 745 -34 98
-62 148 -114 205 -90 95 -201 157 -512 282 -543 218 -665 326 -919 813 -196
375 -281 465 -506 535 -124 39 -219 50 -357 44 -147 -6 -231 -28 -376 -97
-272 -129 -696 -472 -912 -735 -245 -299 -495 -761 -690 -1275 -103 -273 -217
-651 -263 -872 -12 -60 -24 -108 -27 -108 -3 0 -16 50 -28 111 -130 622 -447
1403 -768 1891 -163 247 -303 405 -534 599 -308 260 -534 400 -740 460 -97 28
-330 35 -434 14z m378 -285 c191 -49 372 -156 651 -388 319 -265 512 -517 738
-967 139 -275 264 -596 386 -990 104 -336 154 -440 255 -533 78 -71 122 -69
201 12 81 83 132 195 230 503 134 424 220 647 363 945 252 525 491 823 922
1147 210 158 365 240 517 275 94 21 272 21 366 0 199 -45 277 -116 417 -379
177 -333 312 -520 475 -654 143 -118 277 -192 578 -318 326 -135 414 -188 457
-274 17 -33 20 -59 20 -187 0 -105 -4 -162 -14 -190 -62 -175 -428 -550 -737
-754 -421 -280 -1024 -513 -1894 -733 -435 -110 -472 -124 -577 -209 -60 -49
-118 -130 -118 -165 0 -36 46 -115 95 -165 94 -93 163 -121 530 -212 679 -169
1168 -334 1582 -534 351 -169 562 -319 844 -600 146 -146 213 -227 260 -317
l30 -57 -3 -161 c-3 -147 -5 -164 -28 -209 -49 -96 -145 -155 -455 -281 -337
-137 -492 -231 -665 -405 -139 -138 -215 -245 -337 -470 -111 -205 -190 -326
-240 -370 -96 -85 -243 -124 -438 -117 -147 5 -216 22 -350 89 -232 116 -607
418 -788 636 -141 169 -323 463 -459 742 -15 30 -81 165 -146 300 -151 311
-226 412 -315 427 -28 4 -42 -3 -97 -46 -36 -28 -68 -51 -72 -51 -4 0 -29 36
-55 81 -54 93 -131 169 -173 169 -31 0 -86 -38 -147 -101 -54 -57 -138 -219
-258 -498 -155 -361 -262 -567 -418 -801 -139 -209 -245 -332 -420 -483 -307
-266 -519 -398 -718 -449 -118 -29 -318 -22 -434 15 -154 51 -208 104 -335
332 -40 72 -95 170 -122 220 -66 118 -141 223 -233 328 -163 186 -342 300
-728 458 -331 137 -407 186 -459 294 -26 56 -28 68 -28 186 0 87 5 140 15 169
31 88 108 184 294 370 286 285 463 412 816 585 429 211 931 381 1620 550 288
71 370 98 450 151 79 52 165 169 165 224 0 33 -62 121 -118 168 -89 75 -178
107 -541 198 -185 47 -367 94 -406 105 -535 156 -988 330 -1300 501 -233 127
-351 211 -557 396 -206 184 -329 327 -399 462 -33 63 -34 68 -37 207 -4 133
-2 145 19 189 47 92 125 141 442 273 374 156 502 231 659 379 143 137 238 271
384 544 153 285 217 360 357 413 129 49 345 60 481 25z m2356 -6790 c158 -432
354 -814 626 -1220 171 -256 358 -488 619 -770 88 -95 168 -184 177 -199 14
-20 18 -47 18 -119 0 -80 -3 -97 -24 -130 -34 -54 -118 -126 -184 -159 -76
-37 -174 -39 -244 -5 -106 52 -229 181 -372 389 -298 434 -499 934 -642 1598
l-37 170 -4 305 c-3 185 -1 301 5 295 5 -5 33 -75 62 -155z"/>
</g>
</svg>
