<?xml version="1.0" standalone="no"?>
<!DOCTYPE svg PUBLIC "-//W3C//DTD SVG 20010904//EN"
 "http://www.w3.org/TR/2001/REC-SVG-20010904/DTD/svg10.dtd">
<svg version="1.0" xmlns="http://www.w3.org/2000/svg"
 width="2048.000000pt" height="2048.000000pt" viewBox="0 0 2048.000000 2048.000000"
 preserveAspectRatio="xMidYMid meet">
<metadata>
Created by potrace 1.13, written by Peter Selinger 2001-2015
</metadata>
<g transform="translate(0.000000,2048.000000) scale(0.192120,-0.192120)"
fill="#000000" stroke="none">
<path d="M6079 10316 c-66 -23 -107 -56 -194 -154 -364 -408 -611 -902 -739
-1475 -23 -100 -64 -358 -66 -407 -1 -8 -23 29 -50 83 -144 282 -356 564 -607
808 -384 371 -835 608 -1358 713 -231 46 -288 51 -580 51 -248 0 -295 -3 -410
-24 -205 -36 -515 -134 -515 -162 0 -4 39 -54 87 -111 524 -622 1038 -1044
1450 -1191 340 -122 1048 -239 1713 -283 140 -9 255 -17 256 -18 0 0 -4 -75
-9 -166 -9 -144 -8 -172 7 -222 50 -172 234 -253 391 -173 109 56 155 147 155
309 0 142 18 342 45 499 97 574 326 1064 664 1420 97 101 116 142 116 242 -1
92 -14 126 -78 193 -70 72 -187 101 -278 68z m-74 -462 c-14 -21 -29 -41 -33
-44 -4 -3 -47 -65 -95 -137 -49 -73 -90 -133 -93 -133 -2 0 -4 13 -4 30 0 45
130 231 220 317 34 32 37 14 5 -33z m-3140 -234 c408 -59 750 -186 1065 -395
233 -155 459 -368 640 -606 153 -201 161 -234 54 -234 -188 -2 -952 113 -1134
170 -113 36 -583 269 -700 347 -52 35 -131 91 -175 124 -200 153 -511 451
-548 526 -16 31 -16 34 3 49 13 11 56 20 132 28 62 6 129 13 148 15 79 9 384
-6 515 -24z m2902 -97 c-3 -10 -5 -4 -5 12 0 17 2 24 5 18 2 -7 2 -21 0 -30z
m-403 -1240 c24 -315 19 -455 -15 -474 -35 -18 -59 -2 -59 39 0 26 -6 41 -20
50 -19 11 -20 23 -20 172 l0 159 32 48 c38 58 59 83 68 83 5 0 10 -35 14 -77z
M6810 8379 c-224 -13 -372 -43 -651 -135 -155 -50 -318 -93 -414 -108 -76 -12
-95 -18 -95 -26 0 -4 20 -31 45 -58 57 -64 140 -107 186 -97 21 5 34 3 39 -5
8 -13 70 3 320 80 264 82 416 109 665 117 529 18 1076 -110 1454 -341 158 -96
341 -244 341 -276 0 -8 15 -30 34 -50 54 -56 189 -240 236 -321 67 -113 148
-308 185 -447 67 -241 65 -215 65 -986 0 -755 -1 -766 -61 -1146 -45 -282
-150 -763 -215 -978 -241 -805 -505 -1391 -877 -1947 -399 -598 -832 -972
-1215 -1052 -61 -12 -116 -14 -262 -10 -262 7 -364 28 -654 134 -223 81 -337
110 -487 124 -223 21 -427 -13 -705 -117 -313 -117 -421 -138 -719 -138 -216
-1 -222 0 -305 28 -471 158 -963 673 -1397 1461 -214 389 -366 741 -520 1205
-169 509 -282 1017 -353 1586 l-30 239 0 626 c0 572 2 636 19 735 20 114 61
277 88 348 105 283 231 484 422 673 38 37 72 77 75 88 16 47 232 201 405 288
148 76 255 117 491 187 122 37 226 74 257 92 63 38 93 87 93 153 l0 48 -67 -6
c-38 -3 -124 -17 -193 -31 -470 -95 -857 -291 -1168 -591 -183 -176 -307 -348
-422 -587 -202 -421 -277 -875 -251 -1527 41 -1031 228 -1935 588 -2841 462
-1162 1156 -2067 1802 -2351 183 -81 353 -102 616 -79 238 20 365 51 610 148
270 106 444 136 663 114 149 -15 229 -36 420 -112 250 -98 378 -129 617 -150
173 -16 344 -8 448 19 417 109 906 540 1326 1168 484 726 857 1651 1060 2634
164 792 220 1695 140 2243 -123 849 -588 1465 -1337 1771 -211 86 -440 146
-681 179 -92 13 -473 40 -491 34 -3 0 -66 -4 -140 -9z"/>
</g>
</svg>
