<?xml version="1.0" standalone="no"?>
<!DOCTYPE svg PUBLIC "-//W3C//DTD SVG 20010904//EN"
 "http://www.w3.org/TR/2001/REC-SVG-20010904/DTD/svg10.dtd">
<svg version="1.0" xmlns="http://www.w3.org/2000/svg"
 width="2048.000000pt" height="2048.000000pt" viewBox="0 0 2048.000000 2048.000000"
 preserveAspectRatio="xMidYMid meet">
<metadata>
Created by potrace 1.13, written by Peter Selinger 2001-2015
</metadata>
<g transform="translate(0.000000,2048.000000) scale(0.192120,-0.192120)"
fill="#000000" stroke="none">
<path d="M4240 10273 c-189 -15 -409 -58 -580 -115 -207 -68 -558 -268 -780
-444 -122 -97 -384 -363 -468 -476 -122 -163 -199 -309 -232 -435 -6 -24 -13
-43 -16 -43 -2 0 -64 25 -136 56 -237 99 -643 230 -953 308 -188 47 -428 96
-469 96 -110 0 -226 -84 -261 -189 -49 -149 39 -315 188 -355 29 -7 122 -28
207 -46 514 -108 1126 -322 1520 -533 215 -115 474 -291 466 -317 -2 -8 -16
-46 -30 -85 -43 -119 -32 -213 33 -267 111 -94 370 2 579 214 123 126 199 249
228 375 27 116 -1 198 -79 233 -72 33 -144 25 -268 -32 l-67 -30 -63 52 c-35
28 -113 84 -174 125 l-110 73 -97 6 c-232 15 -419 72 -482 146 -20 24 -26 42
-26 79 l0 48 60 6 c108 9 166 58 268 224 84 136 169 241 306 379 213 212 414
357 684 491 205 103 404 166 595 188 50 6 57 5 57 -10 0 -16 8 -17 83 -12 385
30 759 9 1240 -69 92 -15 175 -33 184 -39 13 -10 13 -15 -1 -50 -9 -22 -43
-75 -75 -120 -31 -44 -74 -108 -95 -143 -47 -78 -107 -138 -261 -261 -283
-227 -609 -412 -918 -522 -262 -94 -674 -171 -1059 -198 -80 -6 -170 -16 -199
-22 -62 -13 -109 -54 -109 -93 l0 -26 138 0 c356 0 954 86 1257 180 460 142
944 464 1396 926 186 190 439 480 439 503 0 5 -10 11 -22 13 -13 3 -115 26
-228 51 -343 77 -697 132 -1019 157 -124 9 -544 11 -651 3z m-1523 -2068 c28
-13 93 -53 145 -91 51 -37 122 -81 158 -98 58 -28 75 -31 155 -31 l90 0 -3
-29 c-5 -48 -29 -84 -110 -165 -69 -69 -141 -118 -197 -135 -28 -8 -55 38 -55
93 0 86 -93 225 -247 366 -71 65 -91 94 -78 116 10 15 79 2 142 -26z M5690
9482 c0 -38 45 -125 81 -155 53 -46 92 -56 292 -72 301 -26 493 -56 752 -120
868 -213 1661 -694 2236 -1355 115 -132 247 -302 270 -348 7 -15 71 -125 141
-244 144 -246 199 -352 287 -554 124 -286 206 -559 278 -919 l27 -140 4 -624
3 -623 -26 -152 c-108 -643 -347 -1224 -728 -1770 -295 -423 -711 -825 -1149
-1110 -1062 -690 -2366 -892 -3591 -556 -1093 300 -2042 1025 -2592 1980 -290
504 -454 971 -540 1537 -24 156 -25 181 -25 660 0 446 2 512 20 633 71 476
185 846 395 1275 107 218 197 368 360 600 24 33 52 78 64 100 12 22 44 72 71
110 66 94 84 149 77 239 -3 39 -10 84 -16 100 -14 36 -16 35 -134 -103 -356
-415 -665 -960 -842 -1486 -281 -839 -317 -1719 -105 -2581 154 -625 457
-1238 863 -1747 292 -365 654 -698 1037 -954 1260 -841 2853 -1006 4260 -441
262 105 611 290 840 445 451 304 866 709 1181 1151 976 1368 1120 3177 374
4684 -297 601 -724 1132 -1246 1550 -661 530 -1466 868 -2319 973 -161 20
-600 32 -600 17z"/>
</g>
</svg>
