<?xml version="1.0" standalone="no"?>
<!DOCTYPE svg PUBLIC "-//W3C//DTD SVG 20010904//EN"
 "http://www.w3.org/TR/2001/REC-SVG-20010904/DTD/svg10.dtd">
<svg version="1.0" xmlns="http://www.w3.org/2000/svg"
 width="2048.000000pt" height="2048.000000pt" viewBox="0 0 2048.000000 2048.000000"
 preserveAspectRatio="xMidYMid meet">
<metadata>
Created by potrace 1.13, written by Peter Selinger 2001-2015
</metadata>
<g transform="translate(0.000000,2048.000000) scale(0.192120,-0.192120)"
fill="#000000" stroke="none">
<path d="M1905 10236 c-155 -37 -253 -92 -365 -205 -68 -68 -94 -104 -127
-171 -61 -124 -77 -193 -76 -336 l0 -120 -61 8 c-77 11 -208 -5 -299 -37 -168
-58 -324 -198 -402 -359 -101 -211 -101 -428 -1 -631 75 -151 178 -255 321
-326 114 -56 189 -73 320 -73 160 0 276 35 405 123 l57 39 309 -310 c170 -170
317 -314 328 -320 18 -10 18 -6 14 78 -7 133 -23 159 -215 355 -219 222 -356
319 -454 319 -16 0 -92 -21 -167 -47 l-137 -48 -145 0 c-145 0 -146 0 -215 34
-91 45 -217 169 -263 260 l-32 64 0 166 c0 153 2 170 24 216 12 28 48 76 79
107 32 32 57 62 57 68 0 15 99 78 158 100 28 11 100 28 159 39 143 26 154 31
228 102 70 67 89 109 100 224 8 90 39 179 86 251 138 212 393 303 625 224 63
-22 164 -79 164 -93 0 -4 26 -32 58 -62 34 -32 69 -76 85 -109 26 -53 27 -60
27 -229 0 -183 2 -173 -59 -341 -49 -136 -17 -227 142 -406 99 -111 296 -301
347 -333 61 -39 212 -61 250 -37 11 7 -54 78 -307 332 l-321 323 44 64 c57 85
90 171 110 284 26 151 5 286 -69 437 -33 69 -58 102 -132 175 -98 98 -175 146
-300 185 -90 28 -263 36 -350 16z M4760 9160 c-567 -58 -1182 -463 -2060
-1356 -727 -740 -1082 -1274 -1181 -1774 -26 -134 -29 -338 -5 -460 56 -295
230 -590 499 -848 158 -150 340 -252 752 -422 495 -205 713 -336 956 -579 243
-243 374 -461 579 -956 170 -412 272 -595 422 -750 260 -272 554 -446 845
-501 125 -24 329 -21 463 5 501 99 1034 453 1769 1176 837 824 1236 1399 1342
1935 27 134 29 338 5 460 -46 242 -172 488 -361 703 -224 255 -377 354 -864
557 -130 54 -284 120 -342 148 -498 233 -841 574 -1076 1070 -29 62 -98 220
-153 352 -173 416 -263 572 -428 742 -354 365 -761 540 -1162 498z m209 -240
c272 -28 511 -150 742 -380 132 -131 210 -240 300 -420 32 -65 59 -121 59
-124 0 -15 191 -449 246 -559 155 -309 304 -498 579 -735 55 -48 116 -103 135
-122 105 -105 427 -281 795 -435 430 -180 574 -263 735 -425 165 -165 270
-330 335 -524 l37 -108 -4 -242 -4 -241 -37 -110 c-62 -182 -172 -393 -275
-530 -135 -179 -270 -354 -312 -405 -36 -44 -72 -91 -199 -256 -94 -124 -535
-563 -681 -679 -69 -54 -199 -158 -290 -230 -236 -187 -270 -213 -420 -311
-635 -415 -1149 -439 -1636 -74 -158 118 -262 230 -351 380 -74 123 -107 193
-242 508 -144 336 -169 387 -268 546 -101 162 -159 232 -345 418 -295 294
-486 414 -1038 648 -309 131 -376 164 -485 236 -223 146 -445 408 -538 634
-58 143 -59 146 -55 436 l3 269 34 95 c45 130 154 344 253 500 45 71 171 240
280 377 109 136 228 286 265 333 186 233 574 610 823 800 80 61 196 150 258
198 438 336 761 493 1088 531 100 12 102 12 213 1z M6380 6713 c-465 -156
-977 -499 -1455 -978 -442 -442 -772 -915 -941 -1350 -32 -83 -39 -112 -39
-170 1 -109 51 -191 150 -243 41 -22 64 -27 125 -27 65 0 82 4 129 30 72 40
104 82 147 194 138 361 427 772 814 1161 399 400 816 695 1181 834 112 43 154
75 194 147 26 47 30 64 30 129 -1 91 -31 158 -97 214 -60 52 -175 81 -238 59z
m69 -267 c28 -33 5 -50 -204 -156 -202 -102 -483 -283 -601 -387 -18 -16 -51
-44 -75 -63 -111 -90 -350 -314 -458 -428 -338 -359 -525 -616 -710 -974 -118
-226 -161 -274 -215 -235 -16 11 -18 24 -14 83 3 54 14 89 46 160 263 574 891
1272 1522 1691 334 222 663 365 709 309z M8414 3215 c-9 -37 5 -134 27 -184
14 -32 84 -110 247 -274 268 -271 350 -340 430 -363 63 -19 80 -15 277 57 84
31 99 33 215 34 102 0 138 -4 195 -22 76 -24 162 -76 179 -108 6 -11 27 -38
46 -61 75 -88 80 -109 80 -323 0 -214 -2 -224 -69 -314 -85 -116 -209 -181
-396 -207 -44 -7 -99 -20 -123 -30 -48 -21 -162 -130 -162 -154 0 -9 -4 -16
-10 -16 -5 0 -10 -9 -10 -20 0 -11 -4 -20 -9 -20 -5 0 -10 -35 -13 -77 -2 -43
-11 -94 -20 -113 -9 -19 -21 -55 -28 -80 -7 -24 -30 -70 -51 -102 -99 -146
-283 -228 -477 -214 -190 14 -337 101 -433 256 l-34 55 -3 188 -3 188 42 107
c56 143 59 180 22 262 -16 36 -57 99 -90 140 -84 104 -418 430 -474 462 -61
36 -121 50 -199 46 l-65 -3 363 -366 364 -366 -50 -77 c-28 -42 -63 -113 -79
-159 -26 -75 -28 -94 -28 -227 0 -125 3 -155 23 -215 62 -186 194 -339 367
-425 105 -52 196 -72 320 -73 124 0 201 19 325 80 164 80 296 235 357 418 23
70 27 97 27 211 l1 131 96 -5 c127 -6 225 15 349 76 179 87 320 261 370 458
27 104 27 254 0 358 -49 194 -190 370 -367 458 -124 63 -214 82 -356 76 -138
-6 -236 -37 -351 -109 l-79 -50 -362 360 c-199 199 -364 361 -368 361 -4 0 -9
-11 -13 -25z"/>
</g>
</svg>
