<?xml version="1.0" standalone="no"?>
<!DOCTYPE svg PUBLIC "-//W3C//DTD SVG 20010904//EN"
 "http://www.w3.org/TR/2001/REC-SVG-20010904/DTD/svg10.dtd">
<svg version="1.0" xmlns="http://www.w3.org/2000/svg"
 width="2048.000000pt" height="2048.000000pt" viewBox="0 0 2048.000000 2048.000000"
 preserveAspectRatio="xMidYMid meet">
<metadata>
Created by potrace 1.13, written by Peter Selinger 2001-2015
</metadata>
<g transform="translate(0.000000,2048.000000) scale(0.192120,-0.192120)"
fill="#000000" stroke="none">
<path d="M4900 10174 c-25 -2 -110 -8 -190 -14 -386 -29 -814 -96 -1175 -186
-933 -233 -1679 -628 -2200 -1165 -381 -394 -606 -828 -692 -1337 -14 -83 -18
-161 -18 -347 1 -212 3 -252 23 -345 41 -188 104 -343 193 -472 l39 -58 -10
-256 c-12 -310 -2 -399 60 -499 11 -18 20 -35 20 -38 0 -3 -28 -24 -62 -48
-135 -91 -396 -338 -433 -409 -46 -89 -14 -134 125 -176 163 -49 177 -55 226
-85 27 -17 103 -84 169 -148 131 -128 185 -161 303 -187 97 -20 206 -17 392
11 115 17 207 25 305 25 374 0 485 -52 707 -335 208 -264 319 -335 521 -335
165 0 273 28 482 124 129 59 235 86 365 93 196 10 325 -38 537 -199 67 -51
176 -135 243 -186 192 -147 327 -205 475 -206 103 0 169 16 280 69 85 41 128
72 450 320 204 158 348 211 540 201 140 -7 232 -31 382 -99 206 -93 300 -117
471 -117 201 0 293 59 508 326 232 289 313 331 654 341 164 4 204 2 359 -21
210 -31 311 -33 413 -7 123 32 168 61 296 190 97 97 131 124 192 154 64 32
219 81 228 72 2 -1 -13 -31 -32 -66 -19 -35 -40 -84 -46 -109 -7 -25 -16 -54
-20 -65 -5 -11 -11 -33 -13 -50 -3 -16 -12 -57 -21 -90 -19 -76 -22 -189 -3
-182 7 2 39 10 72 17 111 23 141 83 132 265 -4 77 -13 137 -31 199 -21 71 -24
91 -14 97 7 5 16 9 20 9 3 0 20 12 37 26 66 55 22 145 -152 310 -91 86 -253
219 -295 243 -13 7 -12 15 12 55 68 117 78 192 66 514 l-10 252 39 58 c87 127
153 289 193 476 19 87 22 133 22 336 1 177 -3 262 -17 345 -63 399 -214 748
-475 1095 -105 141 -395 433 -542 546 -760 587 -1736 931 -2980 1050 -154 15
-995 28 -1120 18z m1055 -263 c1297 -116 2328 -488 3051 -1102 111 -94 314
-306 391 -408 177 -234 310 -510 373 -773 18 -75 20 -118 20 -469 0 -381 0
-388 -24 -471 -14 -46 -44 -127 -66 -179 -30 -67 -43 -113 -47 -159 -5 -62 -4
-67 31 -118 l37 -53 -68 -71 c-386 -401 -1127 -629 -2318 -713 -469 -32 -666
-37 -1754 -42 -1447 -7 -1973 8 -2606 73 -959 98 -1585 310 -1943 659 l-93 91
32 53 c44 71 43 119 -6 237 -20 49 -53 134 -73 189 l-37 100 -3 373 -3 373 30
124 c57 234 155 451 307 682 91 138 259 320 454 492 179 158 434 331 703 475
50 27 87 53 87 62 0 10 39 34 105 65 57 27 107 49 110 49 3 0 5 -7 5 -15 0
-12 4 -13 19 -6 39 21 197 82 234 90 20 5 39 5 42 0 3 -4 -22 -39 -56 -76 -77
-85 -98 -113 -140 -188 -31 -56 -33 -67 -37 -176 -4 -124 6 -174 53 -254 34
-58 125 -147 192 -188 56 -34 194 -87 227 -87 9 0 16 -8 16 -19 0 -49 234 -49
336 0 64 31 140 113 179 194 32 66 35 80 35 163 0 82 -4 101 -36 183 -44 109
-97 190 -181 280 -108 114 -215 173 -378 206 -90 18 -18 56 240 126 292 80
560 136 836 174 106 15 129 21 129 34 0 9 7 19 15 23 10 4 15 -1 15 -16 0 -19
4 -20 45 -14 48 6 368 33 470 40 121 7 934 -3 1050 -13z m-2660 -591 c97 -46
234 -211 285 -341 12 -30 22 -77 22 -104 1 -113 -58 -156 -218 -163 -80 -3
-119 0 -185 17 -95 24 -190 66 -234 104 -81 68 -116 209 -80 318 23 68 109
158 175 182 65 24 171 18 235 -13z m-2058 -3644 c545 -331 1321 -483 2748
-538 413 -15 2280 -15 2695 1 1169 44 1860 150 2408 370 73 29 262 124 343
172 38 23 73 38 79 34 27 -17 -9 -245 -53 -335 -28 -57 -99 -108 -264 -189
-200 -99 -437 -182 -715 -250 -567 -139 -1187 -221 -2063 -272 -294 -17 -1529
-23 -1880 -10 -1063 41 -1891 148 -2510 322 -453 128 -839 323 -859 432 -2 12
-9 49 -16 82 -29 143 -32 168 -26 200 4 19 11 35 16 35 5 0 48 -24 97 -54z
m-164 -362 c444 -402 1519 -668 3077 -759 830 -49 1848 -41 2670 21 1369 102
2360 366 2764 735 l55 50 17 -58 c23 -83 53 -129 132 -206 73 -70 90 -103 72
-137 -6 -12 -48 -45 -94 -75 -45 -30 -117 -85 -161 -122 -180 -156 -214 -176
-335 -193 -76 -11 -114 -9 -325 16 -155 18 -394 18 -520 -1 -265 -39 -409
-122 -595 -342 -184 -216 -255 -264 -400 -271 -112 -6 -225 17 -350 69 -315
133 -497 164 -698 123 -161 -33 -294 -106 -544 -300 -269 -208 -380 -264 -527
-264 -141 0 -247 51 -494 239 -232 175 -289 213 -390 261 -129 62 -191 75
-352 74 -161 0 -255 -20 -414 -86 -245 -101 -332 -123 -470 -116 -150 8 -208
46 -378 245 -218 256 -358 337 -642 374 -117 15 -335 13 -483 -5 -357 -42
-414 -29 -613 141 -54 47 -138 111 -185 143 -95 64 -124 105 -102 141 7 10 12
24 12 31 0 7 28 40 61 73 78 76 115 133 130 201 7 30 14 54 17 54 2 0 32 -25
65 -56z M6010 9784 c-172 -47 -390 -231 -475 -400 -35 -69 -40 -89 -43 -162
-4 -72 -1 -89 21 -135 14 -29 39 -66 56 -83 125 -130 245 -176 462 -176 93 1
135 6 212 28 11 4 17 0 17 -10 0 -21 8 -20 54 9 88 54 164 146 219 263 26 58
31 81 35 169 3 84 1 112 -17 165 -41 122 -154 254 -268 310 -56 27 -81 33
-143 35 -44 2 -98 -4 -130 -13z m236 -208 c61 -28 115 -82 146 -145 31 -62 32
-176 2 -242 -50 -107 -133 -162 -276 -181 -204 -27 -422 38 -465 139 -35 85
38 218 181 330 165 129 283 157 412 99z M7785 9246 c-126 -40 -244 -142 -310
-267 -36 -70 -39 -80 -43 -180 -4 -91 -1 -114 17 -163 36 -97 50 -118 126
-193 85 -82 176 -132 300 -163 85 -22 254 -31 313 -16 26 6 32 5 32 -8 0 -24
16 -20 76 20 60 40 112 105 150 188 24 52 25 66 22 164 -3 92 -7 116 -32 172
-92 204 -265 386 -419 440 -65 23 -170 26 -232 6z m223 -201 c99 -46 218 -181
284 -320 39 -84 44 -172 14 -218 -63 -93 -297 -102 -505 -19 -126 50 -211 165
-211 286 0 124 93 252 208 286 58 18 155 11 210 -15z M4842 8712 c-162 -58
-305 -229 -361 -432 -17 -60 -21 -104 -21 -227 0 -90 4 -154 10 -158 6 -3 10
-14 10 -23 0 -53 157 -189 244 -213 216 -59 578 175 676 437 30 82 28 222 -5
309 -45 121 -144 234 -253 287 -56 28 -77 33 -156 35 -70 3 -103 -1 -144 -15z
m254 -196 c61 -28 115 -82 146 -145 18 -35 23 -63 23 -121 0 -102 -32 -167
-124 -252 -161 -148 -353 -217 -447 -159 -54 33 -69 80 -69 211 0 124 21 213
71 313 83 163 243 224 400 153z M1835 8437 c-136 -35 -278 -159 -358 -314 -74
-143 -87 -195 -87 -352 0 -115 3 -141 20 -177 25 -50 106 -129 174 -169 185
-108 577 50 728 295 42 68 58 139 58 251 0 105 -2 114 -35 185 -47 102 -143
202 -240 250 -82 41 -178 52 -260 31z m188 -193 c62 -21 144 -96 173 -159 37
-79 34 -174 -9 -256 -89 -173 -427 -322 -566 -251 -51 25 -76 81 -75 167 3
208 143 456 280 499 65 19 140 20 197 0z M8831 7845 c-200 -45 -416 -211 -503
-388 -37 -74 -38 -77 -38 -193 0 -154 19 -210 105 -306 185 -206 462 -222 657
-36 73 70 120 144 162 254 45 116 60 214 52 327 -7 111 -35 173 -107 245 -99
98 -196 127 -328 97z m207 -195 c70 -43 93 -131 68 -261 -30 -158 -108 -311
-187 -369 -155 -112 -366 -57 -449 115 -33 69 -33 169 -1 243 77 175 442 349
569 272z M3640 7306 c-130 -29 -267 -142 -334 -273 -36 -72 -36 -74 -36 -199
0 -121 1 -129 32 -193 90 -189 301 -312 563 -328 203 -12 350 66 423 225 22
48 24 64 20 145 -4 80 -10 104 -45 184 -48 110 -117 206 -217 301 -83 78 -167
124 -260 141 -71 13 -75 13 -146 -3z m203 -204 c64 -29 158 -120 222 -217 164
-249 111 -400 -140 -398 -228 2 -416 91 -477 227 -27 61 -30 171 -5 226 36 81
111 150 190 176 56 18 151 12 210 -14z M6707 7310 c-127 -22 -279 -145 -345
-279 -35 -71 -37 -83 -40 -184 -4 -107 -1 -123 36 -207 42 -97 158 -207 274
-259 106 -48 199 -66 333 -66 110 0 125 2 178 27 71 33 169 125 196 184 17 35
21 64 21 139 0 82 -4 105 -31 172 -38 97 -52 121 -115 208 -144 197 -332 296
-507 265z m203 -215 c100 -50 228 -204 281 -336 29 -74 31 -159 3 -196 -48
-64 -153 -90 -295 -72 -266 33 -419 157 -419 339 0 221 233 365 430 265z M552
4752 c-32 -76 -42 -122 -42 -203 0 -85 17 -145 56 -196 30 -39 97 -80 139 -85
l30 -3 0 85 c0 77 -5 97 -48 214 -49 132 -90 220 -106 230 -5 3 -18 -16 -29
-42z M740 4166 c0 -182 51 -429 126 -607 77 -183 191 -355 338 -508 545 -567
1532 -907 2976 -1025 381 -32 627 -40 1155 -40 526 0 754 8 1145 39 963 78
1708 253 2285 536 525 258 885 618 1050 1050 59 152 105 399 105 556 l0 90
-167 -49 c-1060 -311 -2246 -723 -3713 -1290 -184 -71 -391 -155 -460 -188
-160 -75 -224 -88 -319 -67 -38 9 -111 37 -161 62 -146 73 -1110 432 -2020
751 -435 152 -1598 541 -2112 706 l-228 73 0 -89z m8852 -333 c16 -189 -136
-480 -354 -678 -675 -612 -1997 -925 -3908 -925 -1693 0 -2944 250 -3665 733
-368 246 -604 568 -609 830 l-1 72 30 -3 c39 -4 1466 -480 1950 -650 768 -269
1714 -619 1955 -722 297 -128 386 -128 673 -6 560 238 1943 750 2857 1057 369
125 1030 335 1061 338 4 1 9 -20 11 -46z M748 3565 c-79 -175 -118 -364 -125
-622 -11 -353 40 -616 172 -890 90 -189 200 -339 356 -487 559 -532 1550 -833
3049 -926 657 -40 1625 -40 2265 0 1510 96 2483 392 3044 926 156 148 256 284
352 479 134 274 186 538 176 895 -7 263 -47 459 -127 625 l-38 80 -2 -55 c0
-30 -5 -237 -10 -460 -6 -279 -14 -439 -25 -515 -59 -399 -203 -659 -515 -933
-364 -318 -953 -551 -1738 -686 -679 -117 -1426 -164 -2467 -153 -629 7 -932
21 -1360 63 -1156 114 -1954 371 -2429 783 -273 237 -416 497 -481 876 -21
124 -25 178 -25 354 0 114 -5 243 -10 287 -6 43 -14 160 -18 259 l-7 180 -37
-80z"/>
</g>
</svg>
