<?xml version="1.0" standalone="no"?>
<!DOCTYPE svg PUBLIC "-//W3C//DTD SVG 20010904//EN"
 "http://www.w3.org/TR/2001/REC-SVG-20010904/DTD/svg10.dtd">
<svg version="1.0" xmlns="http://www.w3.org/2000/svg"
 width="2048.000000pt" height="2048.000000pt" viewBox="0 0 2048.000000 2048.000000"
 preserveAspectRatio="xMidYMid meet">
<metadata>
Created by potrace 1.13, written by Peter Selinger 2001-2015
</metadata>
<g transform="translate(0.000000,2048.000000) scale(0.192120,-0.192120)"
fill="#000000" stroke="none">
<path d="M3205 10289 c-269 -25 -554 -98 -865 -220 -141 -55 -505 -242 -673
-346 -189 -117 -425 -284 -602 -426 -124 -100 -390 -332 -428 -374 -17 -20
-11 -23 400 -230 445 -223 603 -297 968 -455 626 -271 1171 -462 1466 -514
189 -33 447 -5 671 72 366 126 734 375 1129 762 l166 162 88 30 c303 103 806
160 1410 160 431 0 761 -46 1090 -151 l123 -39 118 66 c172 96 637 366 649
376 11 10 -103 128 -225 232 -395 338 -878 554 -1383 621 -172 22 -455 20
-599 -4 -254 -44 -448 -131 -639 -288 -195 -161 -369 -441 -434 -698 -9 -38
-19 -76 -21 -84 -3 -8 -31 40 -63 105 -300 606 -890 1053 -1578 1194 -230 48
-561 69 -768 49z m446 -239 c457 -45 824 -187 1154 -445 106 -83 272 -256 364
-380 41 -55 89 -119 106 -142 111 -149 152 -178 251 -178 l62 0 -39 -46 -38
-45 -55 6 c-45 5 -67 2 -108 -16 -61 -26 -67 -31 -295 -230 -294 -258 -501
-402 -748 -520 -350 -167 -637 -202 -968 -118 -232 58 -596 185 -972 336 -225
91 -300 129 -452 230 -140 93 -287 168 -452 232 -101 39 -275 124 -324 159
-75 52 -82 77 -38 122 16 16 47 49 69 71 121 125 584 437 876 589 584 305
1098 425 1607 375z m3534 -310 c404 -35 785 -166 1126 -389 116 -75 149 -103
149 -126 0 -33 -123 -121 -290 -208 -87 -45 -101 -45 -279 -2 -330 80 -559
105 -973 105 -323 0 -531 -9 -772 -35 -186 -20 -216 -20 -217 3 -4 64 33 142
126 260 231 296 630 434 1130 392z M8187 8692 c-13 -24 -16 -68 -6 -105 18
-67 83 -121 260 -213 271 -142 456 -267 652 -441 544 -483 891 -1177 1007
-2012 17 -126 20 -199 20 -560 0 -359 -3 -435 -20 -551 -32 -222 -72 -387
-149 -620 -202 -603 -571 -1187 -1107 -1751 -170 -179 -334 -334 -439 -416
-696 -540 -951 -719 -1403 -987 -308 -183 -700 -386 -805 -418 -88 -26 -191
-22 -483 21 -795 117 -1566 344 -2239 658 -343 160 -658 346 -1020 602 -291
206 -601 514 -837 831 -414 558 -660 1172 -763 1909 -22 155 -22 1242 0 1403
78 566 248 1043 521 1459 108 165 168 239 331 412 120 127 153 186 153 266 -1
31 -6 69 -13 85 l-13 29 -89 -75 c-189 -158 -393 -390 -538 -611 -314 -477
-497 -1029 -574 -1727 -25 -230 -25 -852 0 -1085 117 -1076 514 -1932 1227
-2645 401 -403 851 -720 1415 -1000 277 -137 446 -210 728 -314 637 -234 1357
-400 2037 -470 l135 -14 280 138 c1275 629 2398 1532 3060 2461 450 630 708
1271 792 1959 33 274 23 751 -23 1065 -158 1090 -700 1952 -1554 2470 -176
107 -531 269 -543 247z M5830 8379 c-91 -18 -186 -103 -210 -187 -16 -59 -12
-142 10 -190 14 -30 78 -102 203 -225 614 -609 1008 -1380 1126 -2202 75 -522
33 -1375 -100 -2039 -94 -471 -202 -787 -391 -1147 -90 -172 51 -389 252 -389
118 0 190 50 268 186 200 348 385 967 476 1594 60 417 80 709 81 1190 0 436
-9 552 -61 840 -121 668 -405 1312 -822 1865 -140 185 -214 269 -406 461 -148
148 -203 196 -246 217 -65 30 -119 38 -180 26z m149 -261 c96 -48 421 -395
595 -636 370 -513 590 -1015 724 -1652 l26 -125 3 -774 c4 -737 3 -781 -17
-940 -82 -647 -233 -1218 -420 -1591 -72 -143 -144 -199 -211 -165 -27 14 -29
20 -29 70 0 44 9 74 41 143 220 469 354 999 435 1722 22 190 32 1167 14 1335
-33 319 -144 737 -281 1057 -215 506 -494 924 -880 1323 -69 72 -133 141 -142
155 -20 29 -22 86 -4 93 31 13 103 6 146 -15z"/>
</g>
</svg>
