<?xml version="1.0" standalone="no"?>
<!DOCTYPE svg PUBLIC "-//W3C//DTD SVG 20010904//EN"
 "http://www.w3.org/TR/2001/REC-SVG-20010904/DTD/svg10.dtd">
<svg version="1.0" xmlns="http://www.w3.org/2000/svg"
 width="2048.000000pt" height="2048.000000pt" viewBox="0 0 2048.000000 2048.000000"
 preserveAspectRatio="xMidYMid meet">
<metadata>
Created by potrace 1.13, written by Peter Selinger 2001-2015
</metadata>
<g transform="translate(0.000000,2048.000000) scale(0.192120,-0.192120)"
fill="#000000" stroke="none">
<path d="M1905 10236 c-155 -37 -253 -92 -365 -205 -68 -68 -94 -104 -127
-171 -61 -124 -77 -193 -76 -336 l0 -120 -61 8 c-77 11 -208 -5 -299 -37 -168
-58 -324 -198 -402 -359 -101 -211 -101 -428 -1 -631 75 -151 178 -255 321
-326 114 -56 189 -73 320 -73 160 0 276 35 405 123 l57 39 594 -594 c327 -327
599 -594 605 -594 20 0 37 58 32 113 -3 39 -13 66 -38 103 -45 65 -948 983
-1025 1041 -126 96 -174 102 -328 44 -144 -55 -213 -71 -303 -71 -212 1 -394
106 -482 279 l-32 64 0 166 c0 153 2 170 24 216 35 76 130 165 228 213 67 33
108 46 208 62 142 24 173 36 225 88 70 70 108 157 119 271 3 35 15 94 26 132
45 149 191 278 367 324 71 19 219 19 295 1 48 -11 58 -11 60 1 2 10 20 3 66
-24 34 -20 62 -41 62 -45 0 -5 26 -33 58 -63 34 -32 69 -76 85 -109 26 -53 27
-60 27 -229 0 -183 2 -173 -59 -341 -43 -121 -20 -213 90 -348 68 -82 669
-688 824 -830 66 -61 137 -119 157 -129 45 -23 115 -25 164 -4 l36 15 -21 27
c-11 16 -272 280 -580 587 l-559 559 41 61 c57 85 94 177 113 287 26 153 5
288 -69 439 -33 69 -58 102 -132 175 -98 98 -175 146 -300 185 -90 28 -263 36
-350 16z M3917 8078 c-37 -49 -54 -88 -81 -180 -43 -149 -51 -241 -51 -566 0
-194 -4 -302 -10 -302 -81 0 -519 -66 -700 -105 -225 -48 -423 -121 -494 -181
l-29 -24 275 -272 c649 -644 1046 -1108 1185 -1382 47 -93 142 -416 318 -1081
212 -804 297 -1063 454 -1390 191 -399 450 -755 812 -1120 577 -581 1147 -906
1754 -1001 159 -25 471 -25 630 -1 527 82 1042 348 1459 752 209 202 381 455
551 809 439 911 446 1854 19 2621 -173 311 -398 583 -724 873 -415 370 -819
603 -1350 778 -291 95 -503 147 -1230 298 -939 195 -1035 223 -1330 388 -380
211 -924 627 -1311 1001 l-122 118 -25 -33z m209 -475 c426 -359 591 -488 829
-648 236 -159 480 -293 658 -364 149 -59 327 -102 1107 -266 912 -192 1209
-275 1580 -444 535 -243 1106 -721 1414 -1186 137 -206 241 -441 303 -685 l34
-135 -4 -485 -3 -485 -27 -110 c-99 -406 -274 -800 -495 -1115 -264 -376 -711
-699 -1187 -859 -241 -81 -423 -111 -667 -111 -543 0 -1051 202 -1583 629
-200 161 -490 452 -681 686 -181 222 -396 586 -510 865 -71 176 -178 508 -250
780 -152 571 -189 709 -265 973 -99 348 -109 378 -173 512 -137 285 -442 660
-1026 1260 -186 191 -203 222 -132 252 49 21 227 56 442 88 246 36 270 44 346
117 65 62 124 160 124 204 0 13 5 24 10 24 6 0 10 94 10 263 0 221 2 266 16
285 8 12 23 22 33 22 9 0 53 -30 97 -67z"/>
</g>
</svg>
