<?xml version="1.0" standalone="no"?>
<!DOCTYPE svg PUBLIC "-//W3C//DTD SVG 20010904//EN"
 "http://www.w3.org/TR/2001/REC-SVG-20010904/DTD/svg10.dtd">
<svg version="1.0" xmlns="http://www.w3.org/2000/svg"
 width="2048.000000pt" height="2048.000000pt" viewBox="0 0 2048.000000 2048.000000"
 preserveAspectRatio="xMidYMid meet">
<metadata>
Created by potrace 1.13, written by Peter Selinger 2001-2015
</metadata>
<g transform="translate(0.000000,2048.000000) scale(0.192120,-0.192120)"
fill="#000000" stroke="none">
<path d="M3635 7659 c-129 -12 -312 -45 -445 -79 -723 -183 -1316 -624 -1699
-1260 -40 -66 -60 -88 -127 -136 -310 -221 -590 -508 -753 -772 -112 -181
-196 -378 -239 -567 -40 -171 -50 -403 -25 -544 l6 -34 18 24 c10 13 19 35 19
49 0 14 7 36 15 50 10 18 14 62 15 159 0 274 96 559 282 839 113 171 242 326
388 467 46 44 93 91 104 103 12 13 60 60 108 103 l87 80 -20 -53 c-12 -29 -28
-69 -36 -88 -8 -19 -13 -33 -10 -30 3 3 33 39 67 80 34 41 79 93 99 115 20 22
77 99 126 170 137 200 209 290 335 415 251 251 587 478 885 596 127 51 375
129 470 148 661 133 1276 58 1835 -224 116 -58 138 -67 245 -95 55 -15 126
-34 158 -44 32 -10 54 -15 50 -11 -4 4 -34 28 -66 54 -54 43 -56 46 -30 45 15
0 51 -4 78 -10 28 -5 147 -16 265 -24 402 -28 759 -71 1015 -121 509 -100 869
-198 1245 -341 573 -216 1068 -505 1442 -841 323 -289 550 -629 648 -971 35
-123 49 -211 60 -391 10 -166 16 -203 40 -242 l17 -29 7 48 c51 365 -42 755
-265 1115 -185 299 -507 613 -881 861 -191 127 -322 201 -563 318 -318 155
-605 263 -990 374 -634 182 -1305 282 -2010 302 l-230 6 -115 63 c-314 174
-678 286 -1049 324 -120 12 -445 11 -576 -1z M6070 6682 c0 -5 12 -19 26 -33
40 -37 187 -236 252 -340 170 -271 281 -539 339 -818 36 -173 38 -396 5 -516
-124 -449 -606 -836 -1347 -1081 -683 -225 -1364 -284 -2030 -173 -764 126
-1476 439 -1837 805 -104 106 -145 159 -197 254 -37 68 -39 70 -45 43 -4 -15
-9 -89 -12 -163 -12 -278 65 -525 246 -783 86 -123 314 -350 465 -463 630
-471 1572 -786 2660 -888 1466 -138 2948 141 3914 739 256 158 545 418 681
613 332 473 332 981 0 1454 -90 129 -315 352 -473 470 -575 429 -1430 732
-2422 858 -88 11 -175 23 -192 26 -18 2 -33 1 -33 -4z m720 -367 c370 -71 766
-190 1099 -331 189 -79 251 -118 228 -141 -4 -4 -81 -11 -170 -15 -325 -17
-464 -73 -640 -258 -92 -96 -164 -219 -192 -326 -20 -76 -20 -309 -1 -379 27
-98 110 -252 182 -338 29 -34 31 -63 5 -77 -11 -5 -68 -14 -128 -19 -139 -13
-190 -24 -269 -63 -129 -63 -237 -174 -311 -318 l-38 -75 -3 -155 c-3 -146 -1
-159 23 -219 77 -197 220 -347 387 -409 32 -12 99 -27 150 -33 115 -14 341 -5
422 17 182 48 340 198 422 399 26 63 29 83 32 210 4 164 0 181 -74 327 -30 59
-54 116 -54 126 0 17 13 19 163 25 186 8 277 27 385 81 181 91 333 285 402
514 20 65 22 89 18 225 -5 138 -8 160 -36 242 -33 92 -39 125 -23 125 4 0 55
-48 112 -108 142 -147 234 -289 283 -439 15 -45 17 -88 14 -315 l-3 -263 -36
-86 c-38 -91 -128 -233 -214 -339 -156 -192 -471 -419 -820 -593 -131 -65
-417 -183 -467 -192 -9 -2 -65 -21 -125 -43 -59 -22 -166 -56 -238 -76 -71
-21 -150 -43 -175 -51 -159 -47 -620 -134 -753 -141 -63 -3 -79 -1 -84 12 -3
8 10 52 28 97 32 77 34 89 34 197 0 108 -2 119 -32 180 -45 95 -137 196 -223
247 -66 40 -139 54 -297 60 -170 7 -245 -4 -333 -45 -77 -35 -199 -164 -245
-258 -34 -68 -35 -75 -35 -180 0 -119 9 -155 68 -255 40 -71 42 -106 5 -115
-39 -10 -413 3 -608 21 -1281 119 -2409 562 -2890 1135 -72 86 -105 137 -105
163 0 26 14 21 88 -26 630 -410 1626 -668 2416 -627 657 34 1250 184 1766 446
462 234 778 541 929 907 76 182 81 209 81 448 0 225 -7 285 -55 464 -41 156
-102 313 -204 526 -50 107 -55 152 -13 143 9 -2 78 -15 152 -29z m1431 -719
c202 -43 372 -206 424 -406 25 -96 17 -243 -19 -335 -54 -141 -179 -266 -321
-322 -68 -26 -77 -27 -305 -31 -266 -4 -307 1 -420 56 -182 89 -302 282 -303
487 -1 161 48 280 163 395 85 85 168 132 270 154 89 20 422 21 511 2z m-708
-1391 c83 -22 133 -50 193 -109 109 -109 147 -252 108 -401 -41 -161 -180
-282 -349 -304 -38 -5 -146 -8 -240 -6 -143 3 -179 7 -226 24 -116 44 -198
121 -250 236 -19 41 -23 68 -23 155 -1 103 0 108 37 182 57 115 146 189 270
223 75 20 403 20 480 0z m-1516 -844 c108 -48 168 -148 161 -268 -6 -108 -56
-185 -151 -235 -39 -21 -57 -23 -240 -26 -234 -4 -273 4 -349 76 -159 148 -92
409 120 468 33 10 102 13 227 11 164 -2 185 -5 232 -26z M2785 6596 c-50 -22
-358 -235 -387 -268 -110 -125 8 -331 174 -303 24 4 73 29 121 63 319 216 329
226 343 309 21 134 -128 253 -251 199z m25 -216 c0 -33 -169 -150 -217 -150
-23 0 -30 15 -15 35 13 20 92 77 145 106 62 34 87 37 87 9z M4945 6556 c-37
-17 -80 -62 -94 -99 -26 -68 -6 -160 44 -207 36 -33 428 -190 476 -190 137 0
227 148 164 270 -27 52 -73 79 -268 159 -209 86 -257 96 -322 67z m240 -221
c17 -7 45 -19 63 -26 33 -14 48 -47 15 -35 -9 4 -40 14 -67 23 -28 9 -58 22
-67 30 -9 7 -19 10 -22 6 -4 -3 -7 1 -7 11 0 18 27 15 85 -9z M3585 5694 c-55
-19 -109 -66 -143 -122 -24 -42 -27 -57 -27 -138 0 -83 2 -94 30 -140 17 -27
51 -63 76 -79 24 -17 170 -82 324 -145 212 -86 294 -115 337 -118 205 -15 351
195 268 386 -33 75 -90 122 -213 171 -478 195 -494 201 -554 200 -32 0 -76 -7
-98 -15z m196 -180 c89 -26 431 -164 476 -193 l43 -26 0 -67 c0 -59 -3 -69
-25 -86 -61 -48 -128 -37 -375 60 -305 120 -340 145 -340 242 0 46 1 48 43 66
52 24 106 25 178 4z M1615 5446 c-63 -27 -113 -102 -114 -172 -1 -38 41 -123
72 -146 13 -9 113 -53 222 -97 216 -88 261 -97 325 -62 109 58 135 204 52 289
-30 31 -73 53 -239 120 -212 86 -256 95 -318 68z m221 -217 c16 -7 31 -13 34
-15 3 -1 15 -5 28 -9 12 -4 22 -14 22 -22 0 -10 -6 -13 -16 -9 -9 3 -27 9 -40
12 -13 3 -24 10 -24 16 0 5 -4 7 -9 4 -16 -10 -41 6 -41 26 0 10 4 17 9 14 4
-3 21 -11 37 -17z m101 -61 c-3 -8 -6 -5 -6 6 -1 11 2 17 5 13 3 -3 4 -12 1
-19z M5284 5206 c-55 -25 -374 -248 -393 -275 -43 -60 -46 -135 -7 -209 32
-62 126 -101 198 -81 61 16 400 249 427 293 34 54 37 122 9 175 -34 67 -86
104 -150 108 -31 2 -66 -2 -84 -11z m36 -210 c0 -8 -21 -32 -47 -53 -27 -21
-49 -41 -51 -45 -2 -5 -10 -8 -18 -8 -8 0 -14 -4 -14 -10 0 -5 -7 -10 -15 -10
-8 0 -15 -4 -15 -8 0 -4 -18 -13 -40 -19 -32 -8 -42 -7 -51 4 -17 19 18 54
116 114 79 49 135 63 135 35z M3390 4619 c-57 -13 -403 -148 -430 -167 -34
-25 -70 -98 -70 -144 0 -146 135 -226 282 -167 29 12 118 46 197 75 79 30 157
64 173 75 58 42 85 143 57 216 -30 81 -125 132 -209 112z m-60 -225 c0 -8 -5
-12 -10 -9 -6 4 -8 11 -5 16 9 14 15 11 15 -7z m-30 -10 c0 -8 -4 -13 -9 -10
-5 4 -11 2 -13 -4 -5 -15 -66 -31 -74 -19 -7 13 -8 12 41 32 51 20 55 20 55 1z
m-110 -40 c0 -8 -4 -12 -10 -9 -5 3 -10 10 -10 16 0 5 5 9 10 9 6 0 10 -7 10
-16z m-33 -16 c-3 -8 -6 -5 -6 6 -1 11 2 17 5 13 3 -3 4 -12 1 -19z M344 4175
c-5 -38 -9 -151 -8 -250 1 -145 5 -201 23 -285 63 -299 202 -581 416 -846 97
-119 333 -348 469 -453 1656 -1290 4874 -1563 7123 -605 582 248 1018 534
1373 901 303 313 483 635 561 1003 18 84 22 140 23 285 1 99 -3 212 -8 250
l-9 70 -24 -110 c-111 -495 -471 -968 -1042 -1369 -509 -357 -1226 -658 -1991
-834 -579 -134 -1115 -197 -1770 -209 -1269 -22 -2471 215 -3425 676 -932 450
-1528 1068 -1679 1741 l-24 105 -8 -70z m6066 -2671 c0 -8 -5 -12 -10 -9 -6 4
-8 11 -5 16 9 14 15 11 15 -7z m-2055 -4 c3 -5 1 -10 -4 -10 -6 0 -11 5 -11
10 0 6 2 10 4 10 3 0 8 -4 11 -10z m1965 0 c0 -5 -5 -10 -11 -10 -5 0 -7 5 -4
10 3 6 8 10 11 10 2 0 4 -4 4 -10z m-1866 -9 c3 -5 -1 -11 -9 -15 -9 -3 -15 0
-15 9 0 16 16 20 24 6z m1776 -6 c0 -9 -6 -12 -15 -9 -8 4 -12 10 -9 15 8 14
24 10 24 -6z m-1666 -4 c3 -5 -1 -11 -9 -15 -9 -3 -15 0 -15 9 0 16 16 20 24
6z m1556 -6 c0 -9 -6 -12 -15 -9 -8 4 -12 10 -9 15 8 14 24 10 24 -6z m-1432
-4 c10 -6 9 -10 -7 -14 -14 -3 -21 0 -21 9 0 16 9 18 28 5z m1312 -7 c0 -11
-5 -14 -16 -10 -9 3 -18 6 -20 6 -3 0 -2 5 1 10 10 16 35 12 35 -6z m-1145 -4
c16 -7 17 -9 3 -9 -9 -1 -23 -4 -32 -7 -11 -4 -16 -1 -16 10 0 17 14 19 45 6z
m995 -6 c0 -11 -5 -14 -16 -10 -9 3 -23 6 -32 7 -14 0 -13 2 3 9 31 13 45 11
45 -6z m-725 -4 l30 -8 -31 -1 c-17 0 -46 -4 -63 -7 -24 -5 -31 -3 -31 10 0
18 40 20 95 6z m505 -6 c0 -13 -7 -15 -31 -10 -17 3 -48 7 -68 7 l-36 2 35 7
c65 14 100 11 100 -6z"/>
</g>
</svg>
