<?xml version="1.0" standalone="no"?>
<!DOCTYPE svg PUBLIC "-//W3C//DTD SVG 20010904//EN"
 "http://www.w3.org/TR/2001/REC-SVG-20010904/DTD/svg10.dtd">
<svg version="1.0" xmlns="http://www.w3.org/2000/svg"
 width="2048.000000pt" height="2048.000000pt" viewBox="0 0 2048.000000 2048.000000"
 preserveAspectRatio="xMidYMid meet">
<metadata>
Created by potrace 1.13, written by Peter Selinger 2001-2015
</metadata>
<g transform="translate(0.000000,2048.000000) scale(0.192120,-0.192120)"
fill="#000000" stroke="none">
<path d="M5014 9209 c-822 -44 -1612 -282 -2272 -681 -647 -393 -1170 -935
-1489 -1545 -43 -81 -85 -145 -124 -188 -295 -326 -462 -660 -510 -1020 -32
-242 20 -832 117 -1330 311 -1592 1084 -2829 2181 -3493 565 -342 1168 -530
1938 -604 198 -19 782 -16 975 5 952 106 1686 419 2350 1002 977 859 1654
2320 1856 4000 41 346 -7 637 -155 936 -102 205 -219 364 -426 580 -99 104
-148 164 -205 255 -345 550 -887 1069 -1495 1432 -817 487 -1739 706 -2741
651z m691 -140 c764 -55 1528 -316 2165 -742 240 -161 381 -272 670 -533 231
-208 366 -360 545 -614 127 -181 147 -200 227 -214 43 -8 66 -41 171 -251 121
-243 203 -480 252 -726 36 -178 46 -450 21 -581 -53 -280 -202 -535 -457 -783
-216 -209 -450 -368 -799 -543 -691 -347 -1540 -572 -2525 -669 -259 -25 -968
-25 -1210 0 -1326 139 -2571 568 -3260 1124 -333 269 -534 559 -597 862 -17
83 -19 122 -15 296 5 217 25 358 77 564 46 182 125 401 189 530 28 54 33 59
71 64 58 8 97 43 159 143 245 398 419 618 676 855 318 293 553 464 893 651
807 444 1748 638 2747 567z m-4809 -4380 c157 -236 421 -501 699 -700 708
-507 1734 -857 2855 -973 321 -33 467 -40 875 -41 428 0 588 8 930 46 1376
152 2550 633 3220 1320 148 151 234 258 329 409 36 57 66 101 66 99 0 -8 -55
-167 -83 -239 -14 -36 -64 -153 -112 -260 -47 -107 -124 -306 -170 -442 -157
-459 -298 -790 -431 -1008 -39 -63 -96 -162 -128 -218 -31 -57 -61 -109 -67
-115 -5 -7 -57 -83 -114 -170 -332 -500 -703 -878 -1150 -1169 -498 -325
-1036 -518 -1660 -598 -535 -68 -1143 -46 -1665 61 -1061 218 -1895 774 -2486
1659 -319 477 -511 909 -734 1650 -42 139 -66 206 -160 445 -76 194 -140 383
-154 455 -6 27 4 15 42 -51 27 -48 71 -120 98 -160z M4945 7668 c-32 -17 -76
-61 -91 -90 -34 -66 -6 -184 54 -226 47 -34 424 -182 462 -182 138 1 227 149
164 272 -31 60 -40 65 -307 174 -164 66 -233 79 -282 52z m237 -192 c187 -68
215 -87 191 -125 -17 -26 -88 -17 -193 25 -52 21 -98 42 -101 47 -3 5 -10 8
-14 7 -4 -2 -20 10 -36 24 -23 22 -26 30 -16 41 20 23 70 17 169 -19z M2475
7411 c-27 -16 -117 -76 -200 -134 -178 -123 -198 -147 -192 -244 2 -51 8 -69
33 -100 39 -49 87 -73 147 -73 60 0 76 8 279 148 182 124 208 152 216 233 10
104 -67 190 -176 196 -49 3 -64 0 -107 -26z m113 -167 c4 -32 -40 -78 -138
-144 -128 -86 -210 -101 -210 -40 0 32 29 58 145 132 122 78 197 97 203 52z
M8017 7396 c-73 -27 -127 -102 -127 -176 0 -43 29 -107 62 -138 29 -27 432
-192 469 -192 132 0 227 142 175 263 -25 59 -66 84 -268 166 -215 88 -254 98
-311 77z m276 -218 c126 -49 154 -69 141 -102 -6 -16 -28 -21 -74 -17 -33 3
-213 71 -221 83 -3 5 -9 8 -12 6 -9 -5 -67 42 -67 55 0 49 59 43 233 -25z
M6579 6977 c-119 -45 -189 -140 -189 -257 0 -67 116 -633 139 -679 24 -46 88
-105 138 -127 58 -26 167 -23 226 5 90 44 157 148 157 245 0 52 -115 614 -135
664 -20 47 -79 108 -130 134 -50 26 -156 34 -206 15z m157 -162 c68 -28 91
-80 138 -307 21 -99 26 -154 26 -263 l0 -137 -34 -34 c-31 -31 -40 -34 -90
-34 -127 0 -159 49 -221 339 -28 132 -35 185 -35 276 0 94 3 117 17 131 43 43
134 56 199 29z M3567 6796 c-98 -49 -147 -120 -155 -225 -7 -110 38 -207 121
-255 23 -13 166 -75 317 -137 266 -109 277 -113 350 -113 58 -1 84 4 116 21
66 35 101 70 130 129 51 103 29 232 -53 316 -40 41 -51 46 -388 184 -219 89
-247 98 -315 101 -63 3 -82 0 -123 -21z m233 -155 c71 -20 364 -137 440 -176
74 -38 80 -47 80 -126 0 -64 -3 -73 -28 -99 -40 -39 -91 -47 -172 -26 -84 21
-472 178 -515 208 -48 32 -65 67 -65 131 0 49 3 58 28 75 15 10 34 22 42 25
32 12 128 6 190 -12z M2343 6102 c-28 -10 -67 -30 -85 -44 -37 -28 -357 -501
-391 -578 -13 -29 -21 -67 -21 -106 0 -228 273 -357 449 -212 39 32 350 493
386 573 45 97 13 233 -71 308 -77 70 -175 92 -267 59z m175 -168 l32 -15 0
-84 c0 -46 -5 -97 -12 -112 -21 -48 -230 -356 -275 -404 -82 -88 -175 -102
-248 -37 -34 29 -35 32 -35 106 l0 75 124 188 c125 188 181 260 220 281 50 28
134 28 194 2z M8733 6102 c-92 -33 -116 -60 -297 -336 -95 -144 -178 -277
-186 -296 -8 -19 -15 -64 -14 -100 1 -147 126 -270 274 -270 62 0 135 28 178
68 42 38 350 494 383 567 45 97 13 233 -71 308 -77 70 -175 92 -267 59z m180
-174 c26 -18 27 -23 27 -99 0 -54 -5 -90 -16 -112 -39 -75 -226 -347 -275
-399 -84 -88 -170 -101 -244 -36 -34 29 -35 32 -35 106 l0 75 111 171 c115
177 184 265 227 294 52 34 156 34 205 0z M3930 5221 c-111 -34 -200 -152 -200
-266 0 -54 28 -129 64 -171 57 -67 473 -417 524 -441 133 -64 307 5 368 144
26 60 23 157 -8 224 -23 50 -50 76 -277 272 -188 160 -264 220 -298 231 -49
17 -130 20 -173 7z m175 -175 c43 -20 281 -212 408 -329 37 -34 37 -36 37
-111 0 -91 -15 -121 -70 -137 -52 -16 -118 -4 -172 30 -56 36 -387 318 -416
356 -29 37 -32 153 -4 178 47 43 141 49 217 13z M6072 5051 c-75 -26 -118 -66
-157 -146 -51 -104 -24 -240 63 -316 71 -63 92 -67 433 -89 173 -12 332 -19
354 -15 53 7 138 57 169 98 82 108 77 267 -12 360 -32 34 -95 72 -134 81 -26
6 -587 46 -638 46 -14 -1 -49 -9 -78 -19z m398 -151 c239 -14 302 -23 340 -50
28 -20 30 -25 30 -91 0 -61 -3 -72 -27 -99 -44 -48 -97 -53 -372 -35 -274 17
-304 21 -351 45 -47 24 -70 66 -70 128 0 52 10 70 53 94 26 14 106 25 162 21
22 -1 128 -7 235 -13z"/>
</g>
</svg>
