<?xml version="1.0" standalone="no"?>
<!DOCTYPE svg PUBLIC "-//W3C//DTD SVG 20010904//EN"
 "http://www.w3.org/TR/2001/REC-SVG-20010904/DTD/svg10.dtd">
<svg version="1.0" xmlns="http://www.w3.org/2000/svg"
 width="2048.000000pt" height="2048.000000pt" viewBox="0 0 2048.000000 2048.000000"
 preserveAspectRatio="xMidYMid meet">
<metadata>
Created by potrace 1.13, written by Peter Selinger 2001-2015
</metadata>
<g transform="translate(0.000000,2048.000000) scale(0.192120,-0.192120)"
fill="#000000" stroke="none">
<path d="M4095 10173 c-165 -37 -310 -139 -389 -273 -24 -40 -490 -670 -535
-722 -10 -11 -844 -138 -971 -148 -183 -14 -302 -67 -417 -188 -61 -63 -124
-184 -142 -270 -17 -80 -14 -148 24 -672 20 -266 34 -484 33 -485 -2 -2 -205
-101 -453 -221 -247 -120 -473 -232 -501 -250 -103 -64 -191 -177 -236 -300
-27 -75 -36 -230 -18 -316 7 -32 31 -94 52 -136 37 -74 351 -875 351 -897 0
-21 -296 -764 -339 -850 -57 -116 -74 -179 -74 -289 0 -187 79 -354 221 -463
33 -26 236 -130 524 -269 259 -125 471 -228 473 -229 1 -1 -14 -219 -33 -485
-39 -544 -41 -611 -20 -694 63 -242 293 -431 530 -437 86 -2 1018 -157 1031
-172 28 -29 461 -637 493 -692 73 -125 209 -228 356 -271 120 -34 291 -17 407
42 46 23 707 465 839 560 26 19 50 34 53 34 4 0 194 -128 424 -284 230 -156
441 -295 470 -310 164 -83 386 -77 550 16 74 42 161 125 202 194 28 47 507
670 554 721 13 14 887 159 976 161 131 5 259 58 359 149 127 114 193 261 193
428 0 75 -48 775 -67 980 l-6 60 138 65 c76 35 296 141 488 236 294 143 359
179 407 223 198 181 248 471 123 710 -21 40 -84 228 -161 476 l-126 410 15 50
c60 209 244 762 272 815 48 94 67 170 68 269 0 193 -87 369 -235 474 -35 25
-270 145 -523 267 -253 122 -461 223 -462 224 -2 1 13 214 33 472 44 585 45
633 9 739 -79 237 -299 404 -535 405 -49 0 -965 170 -973 181 -321 401 -520
655 -542 693 -46 82 -145 171 -238 215 -45 22 -106 44 -135 50 -117 24 -261 9
-368 -38 -24 -11 -233 -148 -465 -306 -232 -158 -427 -289 -434 -292 -7 -2
-204 125 -437 283 -232 158 -445 297 -473 310 -81 37 -163 54 -255 53 -47 -1
-94 -3 -105 -6z m225 -152 c95 -27 123 -44 488 -289 381 -255 455 -295 546
-296 90 0 145 30 541 296 193 129 377 247 409 262 104 48 204 57 310 30 121
-31 208 -102 336 -274 141 -189 440 -557 476 -586 67 -53 128 -83 207 -104
112 -28 684 -137 817 -156 140 -19 200 -35 265 -73 72 -41 152 -126 186 -196
l29 -60 0 -573 c0 -644 -4 -606 75 -687 55 -55 103 -81 494 -271 179 -86 350
-172 382 -190 81 -48 138 -108 182 -190 l37 -72 0 -136 0 -137 -51 -132 c-58
-148 -205 -605 -239 -742 -26 -105 -24 -179 10 -302 54 -196 194 -635 235
-738 l45 -114 0 -138 0 -138 -41 -75 c-82 -150 -95 -159 -700 -453 -324 -158
-366 -186 -414 -281 -27 -53 -27 -55 -21 -197 3 -79 8 -314 12 -523 6 -344 5
-384 -11 -435 -31 -99 -45 -126 -93 -178 -92 -99 -160 -127 -366 -154 -265
-34 -812 -128 -872 -150 -66 -24 -131 -68 -185 -126 -39 -41 -305 -378 -456
-579 -145 -192 -197 -235 -330 -269 -108 -28 -233 -14 -343 37 -36 17 -218
134 -404 261 -380 257 -443 292 -526 291 -79 -1 -131 -30 -497 -277 -175 -118
-341 -228 -368 -244 -119 -70 -246 -95 -369 -74 -142 25 -224 83 -331 233
-308 432 -425 591 -468 635 -64 66 -141 107 -238 127 -132 27 -729 124 -836
136 -186 20 -274 54 -361 140 -26 26 -60 70 -76 100 l-29 54 7 582 c6 581 6
583 -15 621 -53 95 -92 120 -491 313 -453 219 -496 245 -578 355 -69 93 -70
98 -70 275 l0 160 59 134 c68 153 232 575 267 686 37 116 34 221 -10 347 -41
115 -228 601 -280 723 l-36 85 0 158 c0 170 4 187 59 254 14 17 39 48 55 68
45 56 113 95 501 283 198 96 379 188 402 204 53 36 99 84 116 121 6 15 15 27
20 27 4 0 5 267 1 593 -8 679 -16 617 90 734 98 107 181 142 401 168 108 12
553 79 765 114 30 5 79 18 108 29 108 41 140 76 439 474 154 206 300 391 324
412 111 95 267 128 409 87z M4680 8109 c-600 -48 -1210 -275 -1693 -632 -143
-106 -318 -260 -343 -303 -35 -59 -32 -114 7 -158 68 -78 136 -61 362 92 823
554 1669 733 2466 521 368 -98 749 -296 1086 -566 138 -110 373 -338 477 -462
445 -534 619 -1217 482 -1901 -47 -235 -159 -521 -284 -725 -124 -203 -348
-455 -518 -584 -359 -272 -744 -394 -1192 -378 -470 17 -896 203 -1228 537
-214 214 -349 461 -414 758 -32 143 -32 453 0 599 101 465 408 853 804 1017
139 58 233 77 406 83 167 6 252 -3 391 -43 169 -49 334 -144 470 -270 410
-379 424 -998 31 -1384 -160 -157 -342 -227 -565 -217 -198 9 -339 70 -476
207 -180 179 -222 368 -125 565 51 104 117 170 273 276 158 108 209 155 223
210 23 83 -27 167 -111 189 -114 31 -371 -48 -532 -164 -72 -51 -189 -170
-236 -239 -50 -74 -117 -222 -142 -317 -20 -73 -23 -109 -23 -250 0 -151 2
-173 27 -253 73 -238 217 -419 454 -574 213 -139 445 -206 713 -206 360 1 658
127 920 392 219 220 345 454 412 765 32 147 31 436 -1 586 -89 414 -320 750
-684 993 -518 347 -1194 390 -1749 113 -558 -280 -938 -834 -1045 -1526 -25
-163 -25 -551 0 -705 63 -381 208 -715 434 -995 72 -89 254 -267 338 -331 293
-224 632 -375 989 -439 164 -30 485 -45 674 -31 860 64 1550 497 1960 1228
190 339 317 752 384 1248 32 241 32 591 0 780 -47 273 -116 484 -242 740 -566
1151 -1850 1859 -3180 1754z m1327 -431 c-3 -8 -6 -5 -6 6 -1 11 2 17 5 13 3
-3 4 -12 1 -19z m79 -3 c175 -46 545 -247 779 -424 175 -132 389 -339 515
-497 36 -45 75 -94 88 -110 44 -56 172 -263 216 -351 85 -172 125 -275 183
-475 l27 -93 4 -470 c4 -485 2 -521 -39 -715 -114 -541 -299 -930 -608 -1279
-258 -291 -648 -517 -1076 -625 -109 -27 -112 -28 -298 -52 -169 -21 -625 -15
-760 10 -222 42 -398 101 -592 198 -471 234 -809 623 -954 1095 -57 186 -61
231 -61 630 0 408 6 463 76 673 91 274 237 505 440 699 215 205 469 342 754
407 600 136 1233 -76 1599 -536 83 -105 136 -201 190 -345 l26 -70 0 -350 c0
-341 -1 -352 -24 -420 -109 -325 -331 -583 -616 -716 -87 -41 -223 -83 -320
-98 -85 -14 -326 -7 -412 13 -286 63 -531 215 -651 404 -82 129 -82 131 -82
395 l0 232 36 87 c52 124 167 257 249 288 34 13 31 4 -22 -77 -127 -196 -143
-245 -143 -441 0 -131 2 -149 26 -210 65 -164 196 -334 334 -433 58 -42 188
-103 265 -124 94 -26 294 -31 396 -10 203 41 388 156 527 329 116 144 201 304
251 478 21 73 22 92 19 320 -5 278 -7 286 -103 483 -64 131 -130 222 -240 330
-192 190 -388 301 -649 366 -117 30 -377 37 -506 15 -281 -49 -514 -173 -741
-393 -213 -207 -362 -454 -451 -749 l-33 -109 0 -350 0 -350 28 -90 c140 -452
401 -800 797 -1060 322 -212 680 -319 1070 -319 324 0 589 62 872 204 624 314
1110 1004 1243 1764 21 120 21 661 1 787 -44 264 -118 484 -254 754 -131 262
-365 546 -692 843 -182 165 -518 403 -717 509 -18 9 -33 23 -33 30 0 16 -3 16
66 -2z"/>
</g>
</svg>
