<?xml version="1.0" standalone="no"?>
<!DOCTYPE svg PUBLIC "-//W3C//DTD SVG 20010904//EN"
 "http://www.w3.org/TR/2001/REC-SVG-20010904/DTD/svg10.dtd">
<svg version="1.0" xmlns="http://www.w3.org/2000/svg"
 width="2048.000000pt" height="2048.000000pt" viewBox="0 0 2048.000000 2048.000000"
 preserveAspectRatio="xMidYMid meet">
<metadata>
Created by potrace 1.13, written by Peter Selinger 2001-2015
</metadata>
<g transform="translate(0.000000,2048.000000) scale(0.192120,-0.192120)"
fill="#000000" stroke="none">
<path d="M5106 8380 c-682 -44 -1240 -234 -1599 -543 -271 -234 -358 -538
-233 -820 162 -368 702 -676 1394 -797 415 -72 906 -72 1329 1 680 117 1228
431 1389 796 82 185 74 379 -23 564 -175 337 -701 627 -1343 743 -282 50 -651
73 -914 56z m602 -315 c372 -39 685 -120 952 -246 145 -69 195 -100 306 -185
87 -68 131 -114 176 -183 27 -44 28 -48 28 -185 0 -134 -1 -144 -27 -196 -41
-79 -152 -192 -263 -266 -274 -182 -657 -306 -1130 -366 -166 -21 -710 -18
-880 5 -452 61 -821 183 -1098 363 -113 74 -230 192 -270 273 -31 61 -32 70
-32 183 0 149 10 171 130 290 215 213 565 373 1010 462 105 21 255 42 420 59
106 11 544 6 678 -8z M3154 7413 c-119 -219 -270 -643 -395 -1116 l-34 -128
-155 -104 c-184 -122 -314 -229 -436 -358 -578 -611 -549 -1346 77 -1941 499
-474 1321 -814 2274 -941 271 -36 403 -45 720 -52 1910 -40 3548 760 3720
1817 90 556 -230 1095 -904 1523 -50 32 -91 64 -91 72 0 24 -146 523 -200 687
-64 190 -138 375 -201 498 -57 111 -90 160 -60 90 47 -114 75 -260 91 -469 6
-79 15 -164 21 -190 13 -58 132 -452 165 -548 32 -89 77 -134 154 -154 62 -16
54 0 120 -248 118 -452 143 -570 144 -676 0 -217 -92 -415 -289 -622 -201
-212 -444 -378 -764 -523 -988 -447 -2272 -487 -3311 -102 -823 305 -1345 821
-1305 1290 5 64 177 777 203 843 8 20 21 28 63 37 67 16 113 51 143 110 26 53
147 449 171 561 8 39 20 136 25 214 16 216 45 366 91 475 29 67 14 49 -37 -45z
m5188 -1848 c7 7 115 -114 191 -214 62 -81 123 -197 156 -298 19 -55 21 -87
21 -277 0 -213 0 -215 -31 -308 -63 -189 -187 -376 -361 -543 -270 -261 -649
-483 -1068 -627 -357 -123 -836 -223 -1305 -274 -201 -21 -809 -30 -1026 -15
-452 32 -903 110 -1314 227 -738 212 -1366 661 -1574 1127 -65 146 -71 179
-71 412 0 189 2 221 21 281 26 83 96 226 152 309 50 74 151 180 188 199 l28
14 6 -57 c6 -57 19 -97 59 -185 l22 -49 -57 -113 c-73 -144 -99 -250 -99 -400
0 -73 7 -136 19 -189 145 -604 1007 -1117 2166 -1289 298 -44 513 -59 855 -60
320 0 496 10 765 44 995 127 1822 515 2142 1006 107 164 153 311 153 487 0
151 -26 257 -99 401 l-57 112 22 54 c36 89 54 159 54 208 0 43 1 44 18 29 10
-10 21 -15 24 -12z m-5557 -1319 c151 -135 432 -325 596 -402 25 -12 65 -34
89 -49 24 -15 50 -28 59 -30 18 -2 29 -35 12 -35 -6 0 -11 5 -11 11 0 5 -4 8
-9 5 -5 -4 -31 3 -58 15 -26 11 -59 23 -73 25 -42 8 -340 160 -430 220 -260
173 -469 413 -436 499 4 11 28 -11 84 -77 43 -51 123 -133 177 -182z m5345
234 c0 -78 -175 -283 -355 -417 -76 -56 -179 -123 -191 -123 -2 0 -10 -5 -17
-10 -20 -17 -276 -140 -291 -140 -8 0 -35 -9 -61 -20 -26 -11 -51 -18 -56 -14
-5 3 -9 0 -9 -7 0 -7 -3 -9 -7 -6 -3 4 -12 2 -20 -4 -10 -9 -13 -7 -13 6 0 10
3 16 6 12 3 -3 35 12 70 33 35 22 91 53 124 70 93 47 289 171 395 250 114 84
235 195 335 308 41 45 78 82 82 82 4 0 8 -9 8 -20z m-4563 -752 c-3 -8 -6 -5
-6 6 -1 11 2 17 5 13 3 -3 4 -12 1 -19z m3530 0 c-3 -8 -6 -5 -6 6 -1 11 2 17
5 13 3 -3 4 -12 1 -19z m-3480 -20 c-3 -8 -6 -5 -6 6 -1 11 2 17 5 13 3 -3 4
-12 1 -19z M2655 6841 c-401 -137 -864 -365 -1190 -585 -359 -242 -674 -554
-854 -844 -112 -181 -196 -378 -239 -567 -40 -171 -50 -403 -25 -544 l6 -34
18 24 c10 13 19 35 19 49 0 14 7 36 15 50 10 18 14 62 15 159 1 415 219 852
630 1261 248 248 581 476 985 675 138 68 309 146 380 175 173 69 207 88 293
155 101 79 101 79 -53 26z M7890 6873 c0 -7 37 -38 89 -75 55 -39 143 -81 286
-138 145 -58 493 -231 647 -321 220 -129 456 -300 630 -457 323 -289 550 -629
648 -971 35 -123 49 -211 60 -391 10 -166 16 -203 40 -242 l17 -29 7 48 c51
365 -42 755 -265 1115 -132 214 -377 480 -611 666 -364 289 -816 535 -1330
725 -177 66 -218 79 -218 70z M344 4175 c-5 -38 -9 -151 -8 -250 1 -145 5
-201 23 -285 63 -299 202 -581 416 -846 97 -119 333 -348 469 -453 1656 -1290
4874 -1563 7123 -605 582 248 1018 534 1373 901 303 313 483 635 561 1003 18
84 22 140 23 285 1 99 -3 212 -8 250 l-9 70 -24 -110 c-111 -495 -471 -968
-1042 -1369 -509 -357 -1226 -658 -1991 -834 -579 -134 -1115 -197 -1770 -209
-1269 -22 -2471 215 -3425 676 -932 450 -1528 1068 -1679 1741 l-24 105 -8
-70z m6066 -2671 c0 -8 -5 -12 -10 -9 -6 4 -8 11 -5 16 9 14 15 11 15 -7z
m-2055 -4 c3 -5 1 -10 -4 -10 -6 0 -11 5 -11 10 0 6 2 10 4 10 3 0 8 -4 11
-10z m1965 0 c0 -5 -5 -10 -11 -10 -5 0 -7 5 -4 10 3 6 8 10 11 10 2 0 4 -4 4
-10z m-1866 -9 c3 -5 -1 -11 -9 -15 -9 -3 -15 0 -15 9 0 16 16 20 24 6z m1776
-6 c0 -9 -6 -12 -15 -9 -8 4 -12 10 -9 15 8 14 24 10 24 -6z m-1666 -4 c3 -5
-1 -11 -9 -15 -9 -3 -15 0 -15 9 0 16 16 20 24 6z m1556 -6 c0 -9 -6 -12 -15
-9 -8 4 -12 10 -9 15 8 14 24 10 24 -6z m-1432 -4 c10 -6 9 -10 -7 -14 -14 -3
-21 0 -21 9 0 16 9 18 28 5z m1312 -7 c0 -11 -5 -14 -16 -10 -9 3 -18 6 -20 6
-3 0 -2 5 1 10 10 16 35 12 35 -6z m-1145 -4 c16 -7 17 -9 3 -9 -9 -1 -23 -4
-32 -7 -11 -4 -16 -1 -16 10 0 17 14 19 45 6z m995 -6 c0 -11 -5 -14 -16 -10
-9 3 -23 6 -32 7 -14 0 -13 2 3 9 31 13 45 11 45 -6z m-725 -4 l30 -8 -31 -1
c-17 0 -46 -4 -63 -7 -24 -5 -31 -3 -31 10 0 18 40 20 95 6z m505 -6 c0 -13
-7 -15 -31 -10 -17 3 -48 7 -68 7 l-36 2 35 7 c65 14 100 11 100 -6z"/>
</g>
</svg>
