<?xml version="1.0" standalone="no"?>
<!DOCTYPE svg PUBLIC "-//W3C//DTD SVG 20010904//EN"
 "http://www.w3.org/TR/2001/REC-SVG-20010904/DTD/svg10.dtd">
<svg version="1.0" xmlns="http://www.w3.org/2000/svg"
 width="2048.000000pt" height="2048.000000pt" viewBox="0 0 2048.000000 2048.000000"
 preserveAspectRatio="xMidYMid meet">
<metadata>
Created by potrace 1.13, written by Peter Selinger 2001-2015
</metadata>
<g transform="translate(0.000000,2048.000000) scale(0.192120,-0.192120)"
fill="#000000" stroke="none">
<path d="M1550 10199 c-254 -33 -483 -164 -592 -339 -65 -102 -82 -162 -82
-285 -1 -128 11 -179 66 -285 78 -151 193 -263 400 -391 174 -107 259 -205
239 -276 -24 -84 -120 -193 -278 -315 -110 -85 -169 -151 -214 -240 -80 -158
-79 -315 1 -483 49 -102 119 -180 223 -248 256 -168 558 -198 917 -91 47 14
166 63 265 109 318 147 556 232 866 309 400 99 642 131 1009 131 352 0 485
-21 765 -121 101 -36 149 -47 214 -52 l84 -5 71 -61 c494 -423 886 -999 1029
-1516 84 -300 93 -613 25 -904 l-20 -88 45 -87 c82 -156 195 -455 257 -681 89
-326 123 -751 85 -1044 -90 -689 -527 -1194 -1230 -1424 -124 -40 -132 -48
-94 -96 54 -69 195 -109 384 -108 341 0 676 142 1000 422 356 307 594 782 679
1355 113 757 -61 1602 -479 2331 -191 332 -410 615 -721 934 l-172 175 -32
105 c-51 167 -85 224 -239 403 -132 153 -161 191 -161 215 0 12 13 40 29 63
43 58 64 130 59 196 -4 43 -22 88 -86 216 -122 241 -122 243 -122 478 l0 198
38 72 c29 57 71 108 196 238 87 91 183 191 212 222 33 35 65 59 84 62 44 9
279 -72 516 -179 186 -83 377 -185 549 -292 535 -333 1018 -809 1383 -1362
133 -201 197 -275 278 -317 l54 -28 0 -110 c0 -306 -62 -611 -168 -820 -60
-120 -111 -185 -260 -335 -252 -252 -284 -341 -118 -327 144 11 458 153 624
280 91 70 178 161 258 270 l73 99 -6 -159 c-5 -153 -4 -164 31 -343 61 -314
90 -542 106 -835 17 -321 18 -329 57 -398 l35 -62 -47 -43 c-143 -129 -375
-280 -620 -404 -190 -96 -277 -151 -334 -213 -51 -56 -53 -92 -6 -114 46 -23
198 -17 350 14 101 20 448 127 590 181 14 6 9 -8 -19 -57 -64 -110 -102 -200
-136 -319 -104 -366 -178 -568 -302 -815 -88 -176 -137 -259 -243 -408 -204
-287 -395 -480 -645 -652 -180 -124 -221 -151 -255 -171 -11 -6 -60 -35 -110
-64 -604 -352 -1363 -557 -2295 -621 -415 -28 -1438 2 -1725 51 -858 146
-1561 782 -1884 1705 -54 152 -94 299 -121 443 -20 108 -21 137 -17 615 3 539
3 529 62 767 85 338 254 710 430 945 249 334 524 567 860 730 218 105 431 170
675 205 711 101 1391 -85 1886 -517 124 -108 216 -204 329 -344 11 -14 49 -61
84 -104 118 -146 194 -205 264 -205 19 0 45 8 58 19 l22 18 -37 69 c-21 38
-75 125 -121 194 -372 554 -939 937 -1575 1064 -268 53 -628 67 -880 32 -762
-103 -1370 -487 -1792 -1131 -474 -722 -631 -1735 -404 -2600 257 -976 930
-1759 1756 -2043 247 -85 438 -118 760 -132 124 -6 304 -14 400 -20 231 -13
693 -13 916 0 461 27 841 82 1244 181 644 158 1179 411 1637 774 113 89 354
324 451 440 488 580 778 1317 877 2225 35 316 30 777 -11 1135 -107 940 -457
1840 -1008 2590 -147 200 -276 348 -495 565 -443 441 -906 753 -1476 994 -265
112 -680 243 -955 301 -463 98 -2363 378 -3245 479 -617 71 -862 86 -1025 65z
m556 -219 c541 -50 1437 -168 2449 -321 357 -54 624 -93 915 -134 102 -14 245
-37 319 -51 132 -25 172 -25 256 -4 22 5 45 10 52 10 20 0 42 -90 30 -124 -10
-30 -74 -96 -203 -213 -153 -137 -265 -306 -304 -459 -34 -133 -25 -310 25
-459 26 -79 119 -262 179 -355 31 -46 56 -92 56 -101 0 -49 -79 -98 -203 -123
-105 -22 -112 -21 -127 14 -25 59 -84 108 -157 129 -200 57 -447 122 -513 135
-424 84 -982 49 -1664 -104 -327 -74 -426 -107 -851 -290 -210 -90 -325 -115
-525 -115 -132 0 -167 3 -235 23 -93 27 -197 79 -253 128 -35 30 -222 260
-230 283 -3 10 65 37 398 161 723 269 1040 428 1040 520 0 66 -66 93 -473 195
-339 85 -431 112 -548 159 -58 24 -71 34 -105 84 -22 31 -70 90 -107 132 -94
103 -169 204 -206 274 -30 57 -31 63 -31 185 0 149 -3 142 113 277 49 57 225
135 357 157 69 12 350 5 546 -13z m-72 -1438 c124 -31 145 -47 106 -83 -43
-37 -294 -150 -420 -188 -108 -33 -121 -17 -60 77 22 35 54 91 71 125 17 34
40 76 52 93 l20 31 61 -14 c34 -8 110 -26 170 -41z m7189 -2097 c18 -33 22
-62 25 -166 5 -152 2 -160 -106 -268 -99 -99 -154 -136 -274 -185 -38 -15 -38
-15 -38 9 0 14 22 57 49 97 70 104 135 238 196 405 29 79 61 153 71 164 16 18
18 18 37 2 10 -10 29 -36 40 -58z m-2330 -527 c238 -325 457 -800 561 -1215
67 -264 66 -255 66 -840 l0 -536 -26 -116 c-69 -309 -189 -587 -338 -785 -217
-288 -488 -494 -772 -587 -97 -32 -234 -49 -234 -29 0 16 44 56 126 113 383
267 639 661 740 1137 23 109 24 132 24 475 0 311 -3 376 -20 475 -43 257 -115
506 -227 789 -74 187 -75 204 -30 327 44 119 58 249 64 572 3 160 7 292 9 292
2 0 28 -33 57 -72z m2587 -1936 c0 -39 -18 -59 -69 -77 -54 -19 -71 -19 -71
-1 0 14 115 105 133 106 4 0 7 -13 7 -28z"/>
</g>
</svg>
