<?xml version="1.0" standalone="no"?>
<!DOCTYPE svg PUBLIC "-//W3C//DTD SVG 20010904//EN"
 "http://www.w3.org/TR/2001/REC-SVG-20010904/DTD/svg10.dtd">
<svg version="1.0" xmlns="http://www.w3.org/2000/svg"
 width="2048.000000pt" height="2048.000000pt" viewBox="0 0 2048.000000 2048.000000"
 preserveAspectRatio="xMidYMid meet">
<metadata>
Created by potrace 1.13, written by Peter Selinger 2001-2015
</metadata>
<g transform="translate(0.000000,2048.000000) scale(0.192120,-0.192120)"
fill="#000000" stroke="none">
<path d="M5166 10289 c-591 -40 -1113 -256 -1461 -604 -237 -236 -392 -519
-460 -840 -12 -60 -25 -134 -28 -163 -6 -47 -4 -51 11 -43 9 5 47 40 83 78 70
72 99 126 150 270 106 300 346 594 639 785 564 366 1441 442 2160 187 119 -42
293 -131 304 -154 5 -11 48 -44 96 -74 233 -143 424 -350 542 -586 75 -149 93
-214 93 -335 0 -123 13 -112 -160 -131 -223 -24 -429 -89 -675 -213 -256 -128
-420 -236 -575 -377 -197 -180 -386 -419 -420 -533 -18 -59 -31 -214 -17 -201
6 6 30 44 53 85 327 581 888 974 1554 1090 96 17 334 29 410 22 59 -6 70 -10
74 -27 6 -33 40 -74 74 -89 18 -8 102 -31 187 -50 337 -76 566 -181 835 -380
135 -100 358 -333 453 -473 201 -297 314 -607 352 -963 19 -183 29 -220 72
-266 21 -23 38 -47 38 -54 0 -16 -73 -167 -93 -192 -23 -29 -533 -174 -952
-271 -721 -167 -1424 -267 -2220 -317 -284 -18 -808 -28 -824 -16 -22 17 -91
124 -91 141 0 9 11 37 24 63 113 224 155 723 91 1087 -81 460 -279 841 -609
1171 -348 348 -758 552 -1245 620 -156 22 -441 22 -586 0 -733 -111 -1338
-549 -1655 -1200 -138 -282 -202 -532 -220 -856 -6 -118 -14 -164 -38 -245
-17 -55 -39 -113 -48 -129 -24 -41 -14 -138 35 -327 49 -191 120 -393 186
-524 45 -90 54 -102 93 -121 39 -18 49 -32 118 -160 251 -463 525 -826 905
-1199 375 -367 785 -669 1264 -932 322 -177 692 -339 993 -433 l102 -33 0
-161 0 -162 -272 -143 c-789 -416 -1314 -704 -1361 -749 -39 -37 -67 -101 -67
-154 0 -57 45 -149 98 -201 87 -85 474 -217 826 -282 326 -60 611 -84 1091
-92 693 -11 1308 44 1865 168 146 32 423 109 507 141 130 48 200 214 142 335
-47 98 -180 184 -765 496 -181 97 -831 423 -911 457 l-53 22 0 164 0 163 43
11 c91 24 270 86 436 152 1001 400 1862 1034 2440 1798 178 235 291 411 425
661 45 84 63 109 93 126 71 40 89 69 128 203 19 69 51 199 70 290 19 91 49
219 65 285 37 147 38 204 5 300 -21 65 -23 81 -15 127 12 62 -2 286 -25 421
-132 748 -641 1372 -1349 1652 -180 71 -372 117 -597 140 l-56 6 -7 72 c-24
259 -125 558 -263 774 -304 479 -874 802 -1552 878 -172 19 -400 25 -555 14z
m-1511 -2024 c510 -77 973 -353 1275 -760 141 -191 216 -356 286 -629 l25 -98
-3 -432 -3 -431 -28 -81 c-15 -45 -36 -93 -48 -108 -42 -54 -55 -56 -295 -46
-828 35 -1597 128 -2386 290 -414 85 -1033 246 -1050 273 -4 7 -8 95 -8 197 0
250 34 441 117 650 211 531 691 948 1276 1105 75 21 246 53 472 89 50 8 264
-3 370 -19z m-2488 -2002 c-3 -10 -5 -2 -5 17 0 19 2 27 5 18 2 -10 2 -26 0
-35z m99 -203 c148 -51 446 -136 679 -194 958 -239 2114 -393 3095 -412 151
-2 298 -7 325 -10 l50 -5 20 -62 c19 -58 23 -64 70 -87 49 -25 53 -25 280 -23
840 8 1891 136 2740 334 172 40 541 134 569 145 11 4 16 1 16 -10 0 -21 11
-20 102 8 89 28 88 28 88 -64 0 -72 -40 -228 -87 -340 -57 -137 -65 -161 -71
-230 l-7 -65 -90 -34 c-502 -188 -1450 -363 -2380 -441 -432 -35 -564 -41
-1075 -47 -736 -8 -1268 19 -1905 98 -707 87 -1466 247 -2014 424 l-108 35 -5
65 c-5 52 -18 89 -67 194 -34 71 -88 200 -122 288 -33 87 -84 199 -113 248
-90 151 -117 215 -92 215 7 0 52 -14 102 -30z m942 -1359 c727 -183 1446 -289
2382 -353 251 -17 1377 -17 1640 0 617 40 1077 91 1575 173 203 33 540 100
660 130 191 49 246 58 252 43 7 -19 -19 -47 -72 -78 -129 -76 -1072 -242
-1827 -322 -29 -3 -66 -7 -83 -9 -88 -10 -426 -36 -610 -47 -278 -16 -1237
-17 -1500 0 -888 56 -1692 175 -2342 346 -186 49 -244 71 -292 112 -38 32 -40
54 -6 54 14 0 114 -22 223 -49z m-143 -250 c1097 -273 2002 -391 3115 -408
1108 -16 2146 88 3300 332 145 30 268 54 274 52 5 -2 -46 -46 -115 -98 -68
-52 -205 -164 -303 -249 -425 -367 -509 -437 -651 -545 -437 -329 -982 -627
-1490 -814 -300 -111 -292 -107 -382 -197 -45 -45 -85 -93 -89 -108 -3 -14
-10 -26 -15 -26 -5 0 -9 -76 -9 -168 0 -151 2 -173 21 -213 32 -65 104 -154
161 -199 27 -22 223 -127 436 -235 400 -202 688 -354 900 -478 137 -80 153
-101 111 -142 -51 -49 -417 -141 -789 -199 -432 -67 -768 -91 -1295 -90 -519
0 -796 19 -1161 79 -332 55 -688 169 -715 229 -24 51 -57 30 616 391 264 141
540 289 613 328 173 93 256 167 332 297 18 32 27 356 11 411 -13 43 -148 187
-198 213 -18 9 -101 43 -185 75 -435 166 -793 344 -1150 572 -356 228 -627
446 -998 802 -74 72 -211 191 -305 265 -93 74 -177 142 -185 150 -13 12 -13
13 5 9 11 -4 74 -20 140 -36z"/>
</g>
</svg>
