<?xml version="1.0" standalone="no"?>
<!DOCTYPE svg PUBLIC "-//W3C//DTD SVG 20010904//EN"
 "http://www.w3.org/TR/2001/REC-SVG-20010904/DTD/svg10.dtd">
<svg version="1.0" xmlns="http://www.w3.org/2000/svg"
 width="2048.000000pt" height="2048.000000pt" viewBox="0 0 2048.000000 2048.000000"
 preserveAspectRatio="xMidYMid meet">
<metadata>
Created by potrace 1.13, written by Peter Selinger 2001-2015
</metadata>
<g transform="translate(0.000000,2048.000000) scale(0.192120,-0.192120)"
fill="#000000" stroke="none">
<path d="M2815 10309 c-228 -30 -427 -150 -498 -299 -20 -44 -171 -672 -282
-1175 -4 -18 -68 -35 -582 -154 -363 -83 -595 -142 -624 -156 -65 -33 -148
-112 -188 -180 -45 -74 -86 -190 -101 -288 -19 -115 -8 -307 24 -432 31 -119
114 -294 184 -385 111 -147 284 -278 447 -341 132 -51 211 -66 645 -123 228
-31 447 -60 485 -66 109 -16 342 -23 430 -12 44 5 81 8 83 7 1 -1 -11 -31 -27
-66 -77 -170 -156 -454 -191 -687 -27 -178 -37 -511 -21 -688 55 -583 252
-1087 610 -1559 98 -130 398 -429 529 -529 273 -207 585 -371 894 -471 607
-196 1291 -191 1868 15 63 22 122 43 130 46 13 4 15 -16 16 -138 1 -111 14
-238 58 -568 71 -540 89 -651 121 -747 58 -171 148 -316 272 -433 91 -87 151
-130 258 -183 187 -92 324 -121 539 -115 138 4 159 8 249 38 165 55 281 147
336 265 20 42 67 229 156 620 71 308 131 563 134 567 3 4 262 66 575 138 577
133 621 146 700 209 164 131 252 414 216 697 -57 457 -362 810 -797 924 -43
11 -213 38 -378 60 -165 22 -383 51 -485 65 -102 14 -235 28 -297 32 l-112 6
43 86 c119 237 214 577 251 896 20 169 19 502 0 669 -77 654 -359 1251 -813
1718 -487 501 -1078 795 -1777 884 -156 20 -502 23 -655 5 -356 -40 -693 -137
-980 -281 -55 -27 -102 -50 -105 -50 -3 0 -5 58 -5 129 0 80 -9 201 -25 317
-117 898 -119 907 -162 1027 -129 361 -424 613 -805 691 -97 20 -257 27 -343
15z m350 -269 c201 -52 360 -163 474 -330 90 -132 123 -236 161 -505 44 -317
56 -356 133 -447 22 -27 38 -50 36 -52 -2 -1 -60 -30 -129 -64 -686 -332
-1267 -968 -1518 -1659 l-48 -132 -48 39 c-93 77 -93 77 -377 115 -434 58
-522 78 -653 148 -128 68 -270 217 -341 357 -59 118 -65 151 -65 387 0 190 2
218 19 251 10 20 28 46 40 56 12 11 21 25 21 32 0 23 74 74 135 93 34 11 200
51 370 91 475 110 583 137 633 161 59 28 209 178 239 239 29 59 37 88 137 525
96 415 121 501 159 563 47 73 147 129 270 152 80 14 261 4 352 -20z m699
-1586 c14 -5 16 -28 16 -153 0 -80 -3 -155 -6 -166 -3 -11 -32 -37 -65 -59
-154 -101 -385 -300 -525 -452 -126 -138 -227 -271 -339 -449 -48 -77 -105
-157 -126 -177 l-38 -38 -108 1 c-59 0 -126 3 -148 7 -39 7 -40 8 -43 53 -3
39 6 63 59 170 125 251 303 493 529 720 210 211 447 392 658 501 94 49 108 53
136 42z m1964 -234 c131 -15 257 -36 377 -66 242 -59 334 -98 320 -136 -4 -10
-55 -45 -113 -79 -211 -123 -328 -206 -446 -320 -201 -193 -331 -370 -450
-610 -115 -231 -168 -405 -215 -710 -18 -113 -37 -159 -68 -159 -15 0 -113 99
-168 170 -112 146 -234 367 -287 519 -83 241 -108 405 -108 702 0 264 -1 266
-105 380 -36 39 -65 79 -65 88 0 30 31 49 141 85 195 66 436 117 649 139 82 9
449 6 538 -3z m-1683 -191 c19 -38 35 -78 35 -88 0 -25 -60 -78 -180 -159
-144 -98 -282 -216 -430 -368 -239 -246 -390 -488 -390 -622 1 -141 119 -331
350 -563 281 -282 589 -483 1015 -661 133 -55 114 -85 -92 -143 -348 -96 -750
-128 -1143 -90 -179 18 -189 18 -233 1 -27 -10 -79 -47 -124 -88 -71 -64 -78
-68 -90 -52 -10 14 -13 98 -13 379 0 444 1 451 124 880 14 50 26 115 26 146 0
52 -3 59 -34 87 -19 16 -51 35 -71 42 -44 15 -45 13 42 180 131 253 296 475
522 701 156 155 257 240 416 348 79 55 221 140 232 141 1 0 18 -32 38 -71z
m325 -308 c-149 -732 284 -1644 979 -2065 l81 -49 153 61 c868 344 1638 240
2267 -305 l115 -100 -2 -66 c-7 -217 -136 -620 -286 -892 -102 -187 -338 -510
-357 -488 -4 4 -12 39 -19 78 -30 170 -143 447 -259 633 -169 272 -417 524
-702 714 -130 86 -410 225 -550 272 -124 42 -306 88 -326 84 -10 -2 2 -26 42
-83 143 -204 302 -503 392 -735 176 -456 246 -979 192 -1430 -17 -137 -43
-285 -52 -296 -4 -6 -23 -14 -41 -17 -231 -43 -275 -48 -482 -54 -168 -4 -252
-2 -357 11 -138 16 -416 71 -431 85 -4 5 12 32 36 62 337 418 586 1050 673
1709 20 146 26 557 11 680 l-8 65 -167 28 c-683 111 -1259 379 -1680 782 -154
147 -340 379 -329 409 13 34 141 218 220 316 167 208 414 422 647 561 79 47
254 138 258 135 1 -2 -6 -49 -18 -105z m2241 53 c106 -53 267 -154 376 -235
189 -140 437 -408 591 -636 l42 -61 -88 -7 c-503 -37 -1008 -215 -1432 -506
-270 -185 -488 -410 -614 -632 -37 -67 -47 -77 -53 -61 -4 10 -8 152 -8 314 0
237 4 315 18 395 88 499 305 885 669 1190 126 106 381 274 416 275 7 0 44 -16
83 -36z m1234 -991 c34 -36 42 -51 108 -208 63 -149 104 -280 141 -446 25
-111 26 -131 26 -420 l0 -304 -117 116 c-65 64 -145 136 -178 161 -288 217
-617 359 -955 412 -113 18 -343 36 -371 29 -10 -3 -49 -2 -85 2 -120 13 -98
48 89 141 279 140 506 214 845 274 201 35 243 53 322 135 88 92 100 105 100
115 0 9 17 18 37 19 7 1 24 -11 38 -26z m-2466 -1269 c-340 -556 -764 -992
-1249 -1284 -144 -87 -379 -199 -535 -255 l-129 -47 -24 29 c-51 62 -194 284
-246 383 -104 197 -189 438 -237 672 -12 60 -20 110 -17 113 3 3 30 -1 61 -9
156 -41 267 -51 542 -51 279 1 384 10 625 56 397 76 824 230 1155 417 49 28
91 49 93 48 2 -2 -16 -34 -39 -72z m876 -525 c55 -37 102 -63 103 -58 5 12
107 -76 208 -178 195 -198 374 -480 453 -713 55 -162 118 -249 236 -331 39
-26 60 -34 95 -34 105 0 251 130 406 361 54 80 109 155 123 165 29 23 42 21
128 -18 l62 -28 -36 -70 c-80 -158 -243 -386 -406 -567 -224 -251 -582 -518
-890 -663 -127 -60 -144 -62 -162 -11 -18 51 -59 93 -100 100 -18 4 -66 0
-107 -8 -192 -39 -199 -35 -140 74 73 137 82 207 82 665 0 301 -3 407 -16 483
-44 276 -113 516 -235 819 -16 39 -29 88 -29 108 l0 36 62 -33 c34 -18 108
-63 163 -99z m-1108 -354 c-5 -123 -37 -259 -113 -484 -84 -248 -165 -421
-305 -653 -141 -233 -182 -321 -182 -387 0 -33 6 -68 16 -86 9 -16 17 -38 17
-49 0 -31 -66 -13 -233 66 -268 126 -441 229 -617 369 -96 76 -240 221 -240
243 0 21 20 31 90 45 142 28 451 170 676 311 256 159 429 302 689 566 139 141
201 198 204 186 2 -9 1 -66 -2 -127z m3664 -724 c19 -7 48 -19 64 -27 17 -8
109 -25 206 -39 334 -47 498 -119 651 -284 68 -73 113 -147 159 -261 l34 -85
0 -210 0 -210 -33 -66 c-40 -83 -100 -139 -178 -169 -32 -12 -194 -53 -359
-91 -502 -115 -606 -141 -644 -156 -85 -35 -237 -168 -274 -239 -21 -40 -55
-172 -122 -464 -112 -491 -138 -578 -191 -648 -29 -37 -92 -72 -179 -98 -88
-27 -311 -25 -417 4 -178 48 -279 104 -394 217 -93 92 -151 187 -189 310 -29
96 -37 140 -75 405 -36 251 -40 263 -96 347 -25 38 -46 72 -47 76 -1 5 61 30
138 56 169 57 314 122 455 203 593 341 1071 880 1324 1491 l15 38 59 -44 c33
-24 75 -49 93 -56z m-523 -7 c88 -13 126 -22 130 -32 18 -47 -74 -228 -205
-403 -271 -363 -571 -639 -918 -843 -155 -92 -362 -182 -429 -188 l-39 -3 -18
55 c-20 61 -25 161 -9 206 8 23 29 38 93 71 175 90 425 270 592 425 206 193
381 396 510 593 78 119 110 150 149 140 11 -2 76 -12 144 -21z"/>
</g>
</svg>
