<?xml version="1.0" standalone="no"?>
<!DOCTYPE svg PUBLIC "-//W3C//DTD SVG 20010904//EN"
 "http://www.w3.org/TR/2001/REC-SVG-20010904/DTD/svg10.dtd">
<svg version="1.0" xmlns="http://www.w3.org/2000/svg"
 width="2048.000000pt" height="2048.000000pt" viewBox="0 0 2048.000000 2048.000000"
 preserveAspectRatio="xMidYMid meet">
<metadata>
Created by potrace 1.13, written by Peter Selinger 2001-2015
</metadata>
<g transform="translate(0.000000,2048.000000) scale(0.192120,-0.192120)"
fill="#000000" stroke="none">
<path d="M4850 8649 c-2031 -136 -3687 -1051 -4091 -2259 -67 -202 -99 -402
-99 -626 0 -55 -13 -206 -29 -335 -56 -440 -81 -827 -81 -1238 0 -323 9 -409
70 -646 130 -511 399 -961 816 -1365 684 -663 1730 -1100 2967 -1240 325 -37
406 -41 825 -47 531 -7 845 11 1282 73 1641 234 2867 981 3395 2069 155 320
240 637 254 948 8 167 0 606 -14 797 -22 305 -60 675 -85 825 -5 33 -10 107
-10 165 0 319 -61 582 -200 865 -261 531 -761 994 -1464 1356 -719 370 -1590
595 -2551 659 -176 11 -805 11 -985 -1z m645 -278 c53 -4 71 -10 73 -22 3 -15
-56 -93 -130 -174 -15 -16 -44 -62 -63 -102 -34 -70 -35 -75 -35 -193 0 -111
2 -125 29 -184 88 -194 241 -329 403 -356 32 -5 84 -5 125 0 83 11 246 61 325
101 118 59 240 203 294 345 20 53 24 83 24 167 0 107 -9 143 -54 233 -35 70
-37 98 -9 102 29 4 325 -50 517 -94 685 -158 1312 -422 1791 -754 94 -64 125
-93 125 -116 0 -18 -63 -34 -135 -34 -73 0 -215 -23 -273 -44 -114 -41 -256
-177 -320 -306 -34 -69 -37 -83 -40 -179 -4 -117 3 -150 56 -251 38 -73 87
-139 141 -188 133 -122 232 -150 484 -132 84 6 182 18 218 26 166 38 303 173
399 394 40 91 59 113 81 89 38 -40 75 -99 119 -192 44 -94 64 -146 101 -267
11 -36 14 -166 14 -670 l0 -625 -29 -85 c-68 -203 -175 -380 -310 -516 -94
-94 -172 -147 -346 -234 -231 -115 -339 -216 -592 -557 -89 -120 -198 -263
-242 -317 -282 -351 -519 -476 -898 -476 -148 0 -232 10 -593 70 -503 83 -516
84 -850 85 -329 0 -381 -5 -695 -71 -91 -19 -181 -37 -200 -40 -19 -3 -53 -12
-75 -19 -68 -22 -385 -93 -480 -107 -135 -19 -401 -17 -505 5 -179 38 -370
116 -503 204 -95 63 -193 157 -342 328 -284 326 -489 482 -747 568 -135 45
-183 50 -448 42 -273 -7 -302 -4 -410 51 -195 98 -428 396 -515 656 -72 218
-75 249 -75 833 0 621 8 713 82 945 126 394 448 784 923 1117 156 109 163 106
87 -38 l-47 -91 -3 -127 c-3 -117 -1 -133 21 -189 45 -111 140 -228 234 -288
107 -70 297 -112 417 -93 162 26 300 151 378 342 25 61 28 82 28 177 0 103 -2
113 -34 182 -79 170 -236 293 -423 333 -38 7 -96 19 -130 26 -35 7 -63 18 -63
25 0 19 84 68 220 130 727 330 1586 522 2480 554 259 9 338 9 425 1z m658
-147 c61 -21 132 -84 164 -148 22 -42 27 -64 27 -126 0 -94 -26 -152 -96 -215
-45 -40 -67 -51 -210 -96 -147 -47 -166 -51 -233 -47 -86 6 -143 34 -199 99
-69 81 -87 210 -42 304 51 104 95 134 288 195 167 53 225 60 301 34z m-3598
-809 c127 -30 169 -50 218 -104 52 -58 69 -97 75 -172 6 -88 -16 -154 -73
-217 -55 -61 -128 -95 -205 -95 -70 -1 -241 38 -301 69 -176 88 -207 334 -57
469 89 80 168 91 343 50z m6551 -397 c215 -112 202 -431 -21 -529 -40 -18 -86
-25 -245 -36 -107 -8 -215 -12 -238 -9 -99 13 -185 78 -230 176 -69 146 -1
326 147 393 52 24 200 36 411 33 114 -2 129 -4 176 -28z m936 -2043 c-6 -104
-25 -298 -42 -429 -22 -179 -30 -280 -30 -402 0 -170 -17 -335 -50 -489 -81
-369 -287 -781 -542 -1080 -65 -77 -199 -203 -371 -349 -723 -613 -1754 -980
-3037 -1082 -296 -24 -933 -24 -1228 0 -726 57 -1318 185 -1882 407 -567 222
-1063 542 -1424 917 -143 150 -329 421 -434 635 -119 243 -190 469 -236 752
-66 403 -87 542 -101 675 -20 185 -29 607 -17 775 l9 130 2 -123 c4 -367 86
-767 209 -1017 126 -255 377 -537 562 -630 118 -59 173 -69 350 -59 85 4 216
8 290 8 126 0 141 -2 229 -32 179 -62 344 -164 474 -295 34 -34 128 -138 208
-232 244 -284 334 -358 574 -467 207 -95 364 -134 570 -144 221 -10 411 19
935 146 438 105 601 126 910 117 215 -7 386 -28 792 -96 341 -58 448 -71 592
-71 391 0 669 140 965 485 83 97 119 144 376 490 124 168 223 279 290 325 22
15 83 44 135 65 172 68 305 157 440 294 200 203 349 500 415 825 21 104 48
370 43 416 -1 8 2 42 7 75 17 107 30 -313 17 -540z M3936 8030 c-133 -23 -301
-159 -381 -310 l-40 -75 0 -126 0 -125 42 -85 c98 -198 263 -332 508 -414 69
-24 92 -27 170 -23 72 3 101 10 148 32 117 56 238 198 292 339 34 91 36 228 3
314 -61 165 -197 300 -395 395 -147 69 -255 93 -347 78z m290 -305 c169 -82
207 -110 250 -187 25 -46 29 -63 29 -133 0 -63 -5 -89 -23 -122 -57 -109 -146
-165 -264 -165 -67 -1 -76 2 -222 75 -171 84 -215 117 -254 191 -36 69 -38
189 -5 252 64 120 172 181 298 167 22 -2 108 -37 191 -78z M7391 7679 c-70
-12 -219 -71 -296 -117 -91 -55 -198 -170 -245 -265 -39 -78 -40 -82 -40 -186
0 -126 14 -172 84 -281 146 -225 344 -295 582 -205 219 82 350 202 426 388 25
61 28 82 28 179 0 104 -2 113 -35 185 -100 216 -302 337 -504 302z m166 -214
c118 -35 203 -148 203 -270 0 -90 -24 -151 -84 -210 -42 -41 -75 -60 -191
-110 -128 -55 -145 -60 -210 -59 -85 1 -151 30 -212 96 -105 115 -94 304 23
407 37 32 269 141 329 154 42 9 93 6 142 -8z M5105 6654 c-704 -45 -1246 -213
-1552 -481 -78 -69 -131 -138 -182 -238 l-41 -79 0 -138 c0 -126 2 -141 27
-200 103 -241 348 -515 552 -617 548 -277 1953 -319 2686 -80 213 69 300 120
444 261 143 141 267 322 317 462 24 68 26 86 22 188 -3 111 -4 115 -50 209
-177 363 -710 610 -1498 694 -139 15 -600 27 -725 19z m775 -208 c686 -88
1186 -307 1325 -582 27 -53 30 -69 30 -149 0 -123 -27 -180 -135 -287 -44 -43
-84 -78 -89 -78 -5 0 -2 23 6 51 21 70 14 161 -17 223 -102 204 -631 349
-1410 387 -556 27 -1208 -47 -1570 -177 -194 -69 -298 -154 -331 -266 -13 -47
-10 -127 6 -173 8 -21 12 -41 10 -43 -7 -7 -81 56 -129 109 -25 28 -58 76 -73
107 -24 50 -28 68 -28 147 0 78 4 97 27 141 124 236 479 427 990 533 128 27
390 64 523 75 127 10 745 -3 865 -18z m-65 -646 c521 -45 937 -161 1075 -299
80 -80 80 -152 1 -231 -142 -142 -531 -252 -1066 -302 -183 -17 -756 -17 -940
0 -677 63 -1125 229 -1125 417 0 115 176 228 481 309 231 61 496 97 874 120
103 6 574 -3 700 -14z M2095 6426 c-27 -7 -75 -23 -105 -35 -75 -30 -550 -281
-627 -331 -92 -61 -217 -198 -258 -287 -34 -70 -35 -77 -35 -187 0 -137 15
-188 91 -301 61 -91 143 -166 228 -208 53 -26 78 -32 150 -35 73 -4 98 0 166
22 79 27 607 299 694 359 104 71 201 193 251 316 27 66 30 84 30 184 0 109 -1
112 -41 196 -33 69 -58 102 -123 167 -107 106 -184 146 -294 150 -43 2 -99 -2
-127 -10z m225 -246 c207 -104 226 -387 34 -507 -27 -16 -197 -108 -378 -203
-325 -171 -331 -173 -403 -178 -67 -4 -79 -2 -138 27 -111 55 -165 142 -165
266 0 74 43 170 93 211 40 31 697 381 752 400 55 19 150 12 205 -16z M8405
5598 c-96 -12 -176 -59 -280 -163 -80 -80 -103 -113 -207 -290 -64 -110 -143
-252 -175 -315 l-58 -115 0 -131 0 -130 44 -89 c55 -111 164 -226 256 -271 55
-26 69 -29 165 -29 98 0 110 2 170 32 72 35 177 134 234 218 59 89 262 438
295 510 67 143 71 157 71 285 0 117 -1 121 -37 197 -28 58 -55 96 -112 154
-115 115 -222 155 -366 137z m190 -233 c59 -29 113 -86 140 -150 24 -57 23
-159 -2 -215 -38 -85 -345 -595 -380 -632 -75 -78 -216 -105 -314 -61 -63 28
-119 81 -149 140 -35 68 -35 188 -1 253 53 100 344 587 364 608 83 90 227 114
342 57z M2966 5099 c-75 -18 -159 -72 -241 -155 -67 -67 -89 -99 -133 -188
-85 -171 -112 -267 -112 -394 0 -117 10 -156 67 -254 166 -285 461 -351 682
-152 69 62 148 186 204 319 80 194 90 232 85 353 -4 98 -7 113 -40 182 -42 85
-145 200 -218 243 -86 49 -201 68 -294 46z m198 -220 c114 -42 196 -175 182
-294 -8 -66 -135 -367 -177 -417 -45 -56 -138 -98 -214 -98 -90 0 -151 24
-211 85 -63 63 -88 129 -82 218 3 49 19 97 73 225 81 189 112 232 199 273 75
36 150 38 230 8z M4557 4419 c-75 -18 -142 -61 -233 -153 -67 -67 -99 -109
-125 -161 -31 -65 -34 -78 -38 -182 -4 -133 5 -164 125 -454 115 -280 157
-350 271 -461 239 -234 560 -156 728 176 l50 98 3 115 c4 138 1 153 -88 378
-136 342 -172 407 -286 516 -125 118 -264 162 -407 128z m229 -252 c88 -44
109 -79 239 -393 131 -318 140 -353 110 -449 -66 -210 -341 -269 -488 -105
-35 39 -62 96 -161 336 -110 266 -119 294 -120 354 0 87 31 156 96 215 64 58
115 75 203 71 51 -2 84 -10 121 -29z M6404 4322 c-126 -45 -260 -170 -325
-305 -38 -78 -39 -84 -39 -186 0 -124 15 -175 85 -283 88 -135 182 -215 347
-293 184 -87 312 -98 442 -37 122 57 242 201 298 358 16 44 19 74 16 158 -3
97 -5 107 -45 188 -33 67 -61 104 -126 169 -90 92 -173 144 -323 206 -77 32
-102 37 -184 40 -73 3 -107 -1 -146 -15z m352 -287 c83 -40 167 -87 187 -105
118 -103 124 -303 12 -415 -58 -57 -126 -85 -212 -85 -70 0 -76 2 -231 80
-128 64 -168 89 -200 125 -173 197 -13 505 248 478 28 -2 100 -31 196 -78z"/>
</g>
</svg>
