<?xml version="1.0" standalone="no"?>
<!DOCTYPE svg PUBLIC "-//W3C//DTD SVG 20010904//EN"
 "http://www.w3.org/TR/2001/REC-SVG-20010904/DTD/svg10.dtd">
<svg version="1.0" xmlns="http://www.w3.org/2000/svg"
 width="2048.000000pt" height="2048.000000pt" viewBox="0 0 2048.000000 2048.000000"
 preserveAspectRatio="xMidYMid meet">
<metadata>
Created by potrace 1.13, written by Peter Selinger 2001-2015
</metadata>
<g transform="translate(0.000000,2048.000000) scale(0.192120,-0.192120)"
fill="#000000" stroke="none">
<path d="M1113 9732 c-156 -56 -241 -184 -231 -346 7 -112 31 -151 174 -295
l125 -126 -12 -99 c-13 -107 -7 -227 17 -343 16 -80 497 -1925 545 -2093 75
-262 228 -473 409 -565 197 -100 452 -69 680 81 37 25 37 25 43 113 15 205 84
455 181 655 203 419 566 756 993 923 198 78 355 115 547 129 l96 7 84 87 c191
201 274 390 264 600 -5 93 -8 107 -46 183 -23 45 -62 105 -87 134 -88 100
-274 204 -444 248 -36 9 -162 36 -280 60 -119 24 -630 128 -1136 231 l-920
187 -160 1 c-127 1 -176 -3 -238 -18 l-79 -19 -108 110 c-131 133 -184 164
-293 170 -52 3 -86 -1 -124 -15z m313 -237 c74 -14 150 -25 167 -25 29 -1 25
-4 -40 -39 -97 -51 -174 -112 -229 -180 -42 -53 -111 -177 -128 -231 -7 -23
-9 -23 -13 -5 -18 78 -66 276 -73 305 -16 61 -12 103 16 143 14 21 35 42 47
47 38 15 114 11 253 -15z m684 -280 c89 -12 756 -145 1960 -390 308 -63 415
-92 510 -140 81 -42 125 -74 156 -116 22 -30 24 -42 24 -151 0 -81 -5 -132
-16 -165 -20 -60 -114 -202 -157 -239 -46 -39 -79 -50 -241 -84 -408 -85 -740
-263 -1039 -558 -184 -181 -287 -321 -401 -545 -78 -155 -125 -279 -180 -486
-21 -78 -47 -151 -64 -176 -24 -39 -34 -45 -101 -65 -238 -72 -415 -1 -535
213 -20 37 -49 100 -62 140 -21 60 -415 1555 -513 1944 -31 121 -31 123 -31
397 l0 276 36 39 c54 60 105 80 261 101 171 22 258 24 393 5z M4732 7715 c9
-105 53 -135 250 -170 187 -34 331 -77 467 -139 362 -163 661 -457 814 -799
103 -232 137 -374 137 -577 0 -119 -3 -147 -19 -178 -22 -42 -1536 -1559
-1579 -1581 -48 -25 -92 -30 -196 -20 -392 38 -712 172 -1003 419 -296 253
-487 629 -542 1070 -17 131 -65 192 -161 201 l-35 4 1 -145 c2 -593 370 -1202
919 -1525 270 -159 551 -241 869 -252 l158 -6 899 899 899 899 0 93 c0 521
-239 1048 -634 1393 -327 287 -785 468 -1185 469 l-63 0 4 -55z M7305 6336
c-181 -36 -245 -76 -459 -287 l-180 -176 28 -19 c62 -40 147 -7 288 114 173
147 260 189 408 199 146 9 264 -35 403 -150 155 -130 396 -358 698 -664 309
-312 317 -321 362 -412 l47 -93 0 -145 c0 -126 -3 -151 -22 -196 -53 -125 -82
-158 -539 -602 -186 -181 -374 -387 -399 -440 -23 -48 -36 -153 -21 -175 9
-12 107 81 520 495 l508 510 47 95 c83 171 97 342 42 515 -50 158 -59 168
-606 719 -278 280 -538 535 -578 567 -158 127 -362 181 -547 145z M4593 3798
c-133 -136 -154 -162 -191 -238 -56 -113 -75 -194 -75 -310 0 -116 19 -196 74
-310 41 -85 43 -87 608 -651 605 -605 602 -603 755 -654 168 -56 343 -42 516
41 l95 46 490 490 c489 490 490 490 460 499 -40 12 -130 1 -182 -22 -55 -25
-109 -74 -488 -450 -341 -337 -398 -384 -520 -422 -89 -28 -231 -29 -320 -3
-133 39 -166 66 -565 459 -542 534 -633 628 -687 715 l-48 77 -3 172 c-3 169
-3 173 23 225 15 29 35 62 46 74 10 11 19 24 19 28 0 5 31 48 70 96 88 111
120 166 120 210 0 34 -22 80 -39 80 -4 0 -75 -69 -158 -152z M7115 3747 c-98
-33 -172 -97 -213 -185 -23 -49 -27 -70 -27 -147 1 -74 5 -99 24 -140 19 -41
270 -297 1330 -1358 1473 -1475 1359 -1372 1516 -1372 68 0 89 4 139 29 177
87 248 287 165 464 -17 37 -306 331 -1328 1353 -1450 1451 -1349 1359 -1494
1365 -42 2 -89 -2 -112 -9z m245 -269 c79 -56 288 -270 390 -399 44 -54 495
-515 1077 -1099 l1003 -1006 0 -70 c0 -59 -3 -74 -21 -90 -33 -30 -113 -25
-175 10 -33 19 -371 350 -1029 1006 -632 630 -1024 1013 -1105 1080 -144 118
-380 347 -416 402 -19 30 -24 51 -24 101 0 94 34 118 160 114 72 -2 78 -4 140
-49z"/>
</g>
</svg>
