<?xml version="1.0" standalone="no"?>
<!DOCTYPE svg PUBLIC "-//W3C//DTD SVG 20010904//EN"
 "http://www.w3.org/TR/2001/REC-SVG-20010904/DTD/svg10.dtd">
<svg version="1.0" xmlns="http://www.w3.org/2000/svg"
 width="2048.000000pt" height="2048.000000pt" viewBox="0 0 2048.000000 2048.000000"
 preserveAspectRatio="xMidYMid meet">
<metadata>
Created by potrace 1.13, written by Peter Selinger 2001-2015
</metadata>
<g transform="translate(0.000000,2048.000000) scale(0.192120,-0.192120)"
fill="#000000" stroke="none">
<path d="M5004 10264 c-280 -189 -426 -455 -428 -782 -1 -104 -2 -113 -21
-117 -11 -2 -58 -11 -105 -20 -120 -23 -374 -89 -453 -119 -276 -104 -440
-392 -387 -682 38 -213 213 -409 420 -472 96 -29 180 -35 320 -22 316 28 685
142 1040 320 341 171 516 295 821 582 145 136 147 139 164 202 24 88 17 247
-14 328 -49 127 -129 206 -261 257 -41 16 -156 50 -255 76 -215 56 -308 89
-421 149 -112 60 -183 116 -291 230 l-91 96 -38 -26z m43 -225 c15 -5 48 -27
73 -48 175 -147 385 -245 699 -326 183 -47 378 -126 446 -179 19 -16 19 -17
-36 -69 -389 -370 -1676 -838 -2476 -902 -46 -4 -83 -5 -83 -2 0 3 16 50 35
106 19 55 35 106 35 112 0 7 18 49 39 93 55 113 130 193 230 245 100 52 128
62 328 116 198 54 216 62 273 113 62 55 100 138 100 218 0 60 44 223 78 290
47 92 118 182 169 215 53 33 52 33 90 18z m1107 -895 c15 -39 -29 -92 -229
-273 -231 -208 -668 -444 -1058 -570 -298 -96 -607 -135 -768 -97 -56 13 -167
68 -181 90 -10 15 -10 76 0 76 4 0 71 11 149 25 387 68 908 220 1323 387 177
71 484 222 624 306 66 40 123 72 127 72 4 0 10 -7 13 -16z M6390 9092 c0 -19
29 -78 52 -104 13 -15 68 -51 123 -79 199 -101 335 -225 427 -389 37 -64 78
-120 126 -172 l35 -37 -99 -64 c-836 -540 -1902 -988 -2846 -1196 -379 -83
-858 -151 -1069 -151 l-59 0 12 28 c7 18 11 134 12 342 l1 315 43 79 c95 177
187 275 352 377 55 33 114 78 130 98 30 36 64 123 50 129 -17 7 -187 -64 -261
-108 -238 -144 -391 -341 -461 -597 -17 -63 -21 -106 -21 -218 0 -122 3 -151
27 -228 14 -48 44 -124 67 -168 22 -45 39 -82 37 -83 -296 -138 -492 -317
-637 -581 -133 -242 -184 -554 -136 -830 17 -98 73 -271 112 -350 76 -150 215
-325 339 -425 l79 -63 5 -376 5 -376 29 -59 c34 -69 125 -165 213 -224 34 -23
64 -50 67 -59 3 -10 19 -81 36 -158 17 -77 39 -176 50 -220 11 -44 45 -190 75
-325 175 -767 368 -1505 446 -1699 62 -155 144 -276 274 -400 278 -267 670
-391 1235 -391 388 0 638 44 856 150 228 111 395 280 514 522 46 92 68 157
225 653 100 317 423 1306 520 1596 l86 255 62 37 c145 85 262 208 292 309 12
43 15 125 15 490 0 344 -3 438 -12 438 -7 0 -50 -27 -96 -59 -98 -71 -280
-165 -416 -215 -154 -58 -342 -102 -601 -141 -579 -87 -1087 -130 -1670 -142
-566 -10 -1038 27 -1390 111 -55 13 -127 27 -160 31 -192 23 -444 107 -557
186 -24 18 -26 23 -21 79 7 69 -3 98 -62 190 -86 133 -85 139 35 132 66 -4 80
-2 80 10 0 13 40 16 253 21 366 9 650 38 943 96 115 22 143 25 150 14 25 -37
1035 296 1646 543 645 260 1256 589 1602 862 16 12 33 22 37 22 5 0 9 -57 9
-126 l0 -127 -42 -79 c-56 -105 -184 -265 -286 -357 -181 -165 -487 -353 -957
-591 -534 -270 -990 -442 -1685 -635 -314 -87 -458 -132 -492 -152 -34 -20
-56 -48 -46 -59 4 -3 64 1 135 11 842 111 1892 515 2796 1077 174 108 275 185
382 293 216 216 359 475 411 745 26 138 24 362 -5 497 -57 272 -177 497 -362
682 -86 86 -223 190 -235 178 -3 -3 0 -23 6 -44 27 -84 73 -157 152 -246 46
-50 103 -121 127 -156 45 -66 128 -235 151 -305 21 -66 47 -119 84 -170 43
-61 43 -60 -78 -182 -436 -434 -1418 -920 -2723 -1348 -472 -154 -738 -222
-1043 -265 -290 -41 -379 -46 -755 -46 -371 0 -458 6 -620 41 l-70 15 0 397 0
397 33 87 c67 176 186 346 332 478 174 157 205 192 231 258 13 34 27 62 31 62
3 0 29 -28 56 -62 207 -258 476 -392 814 -405 533 -21 1238 147 1963 467 309
136 701 349 866 471 223 165 381 394 430 626 31 146 23 321 -21 458 -84 262
-222 434 -461 576 -101 60 -329 137 -329 111z m608 -1201 c-5 -145 -8 -152
-101 -267 -135 -167 -335 -303 -753 -512 -613 -307 -1221 -502 -1774 -569
-170 -20 -501 -23 -585 -5 -104 23 -188 53 -259 94 -80 47 -105 70 -109 100
-2 25 -7 24 238 58 637 88 1370 297 2044 582 360 152 679 312 1060 530 123 70
228 125 234 121 6 -3 8 -54 5 -132z m648 -3346 c24 -25 25 -29 20 -118 -3 -50
-8 -159 -12 -242 -3 -82 -10 -154 -15 -159 -5 -6 -9 -26 -9 -47 0 -22 -10 -50
-25 -73 -14 -20 -25 -40 -25 -44 0 -4 -45 -50 -99 -102 -117 -112 -151 -171
-151 -262 l0 -56 -77 -32 c-315 -132 -742 -224 -1278 -277 -228 -22 -1009 -26
-1230 -5 -424 39 -775 101 -1070 188 -130 38 -325 113 -380 145 -32 19 -34 23
-29 62 10 75 -28 149 -145 281 -42 48 -62 79 -66 105 -4 20 -13 53 -22 73 -13
32 -15 62 -9 178 4 78 12 152 18 165 7 15 33 33 73 51 l63 26 60 -41 c561
-380 2016 -530 3202 -330 606 102 1035 292 1144 507 20 39 29 40 62 7z m-4083
-1344 c99 -34 417 -112 581 -142 173 -32 397 -61 626 -81 224 -20 927 -17
1167 5 374 34 633 78 960 162 115 30 180 42 186 36 14 -14 -11 -96 -37 -123
-75 -78 -155 -121 -341 -183 -374 -124 -824 -185 -1380 -185 -458 0 -809 38
-1165 125 -347 85 -640 232 -686 342 -29 69 -10 78 89 44z m-126 -225 c463
-299 1255 -454 2124 -416 644 28 1125 132 1522 331 42 22 77 37 77 34 0 -2
-29 -49 -64 -103 -131 -199 -218 -424 -456 -1177 -56 -176 -112 -351 -126
-388 -153 -428 -418 -630 -899 -686 -375 -43 -803 -11 -1061 80 -365 129 -553
320 -673 686 -43 132 -174 619 -269 1008 -82 330 -95 368 -179 532 -40 78 -71
143 -69 143 3 0 36 -20 73 -44z M7825 6400 c10 -72 49 -176 123 -330 109 -225
114 -247 110 -502 l-3 -213 -33 -78 c-17 -44 -62 -124 -100 -178 -96 -143
-111 -169 -118 -216 -6 -43 1 -83 16 -83 18 0 141 123 195 196 133 176 195
361 195 580 0 291 -121 592 -318 794 l-74 75 7 -45z"/>
</g>
</svg>
