<?xml version="1.0" standalone="no"?>
<!DOCTYPE svg PUBLIC "-//W3C//DTD SVG 20010904//EN"
 "http://www.w3.org/TR/2001/REC-SVG-20010904/DTD/svg10.dtd">
<svg version="1.0" xmlns="http://www.w3.org/2000/svg"
 width="2048.000000pt" height="2048.000000pt" viewBox="0 0 2048.000000 2048.000000"
 preserveAspectRatio="xMidYMid meet">
<metadata>
Created by potrace 1.13, written by Peter Selinger 2001-2015
</metadata>
<g transform="translate(0.000000,2048.000000) scale(0.192120,-0.192120)"
fill="#000000" stroke="none">
<path d="M7030 10179 c-708 -38 -1296 -175 -1493 -349 -79 -70 -77 -63 -67
-346 13 -351 41 -570 105 -839 97 -409 244 -725 467 -1006 72 -92 269 -286
318 -316 17 -9 30 -20 30 -24 0 -3 -47 -102 -104 -220 -423 -871 -911 -2238
-1003 -2811 -9 -57 -17 -104 -18 -106 -1 -1 -41 9 -88 22 -249 72 -665 129
-1162 157 -260 15 -1024 15 -1280 0 -577 -34 -992 -97 -1294 -197 -118 -39
-290 -127 -349 -179 -128 -114 -152 -254 -61 -373 21 -29 35 -52 30 -52 -11 0
-35 28 -55 65 -16 28 -17 16 -12 -235 23 -1264 459 -2235 1229 -2741 177 -117
384 -214 579 -273 l86 -27 499 3 498 3 110 34 c452 137 801 366 1093 716 88
105 211 289 267 399 43 84 40 96 -19 96 -66 0 -148 -64 -211 -165 -114 -181
-359 -440 -535 -565 -188 -134 -491 -271 -698 -316 -89 -19 -692 -30 -888 -16
-171 12 -287 47 -491 147 -305 150 -568 371 -783 660 -245 331 -429 806 -519
1343 -26 155 -31 210 -31 353 l0 169 50 -25 c38 -19 50 -22 50 -11 0 11 26 5
112 -25 179 -62 467 -131 743 -178 761 -129 1605 -131 2370 -5 253 42 704 146
715 165 4 5 53 23 110 40 58 17 129 42 158 55 106 47 182 161 184 275 1 48 5
62 25 81 14 13 37 46 51 73 l25 50 9 -30 c11 -35 3 -445 -12 -620 -43 -507
-153 -985 -301 -1316 -22 -48 -39 -93 -39 -100 0 -28 75 -126 159 -209 266
-261 677 -421 1271 -496 171 -21 718 -30 920 -15 844 64 1422 348 1658 817 47
94 68 165 96 334 59 360 86 711 86 1130 0 644 -69 1166 -231 1760 -181 664
-505 1502 -830 2152 -49 98 -89 181 -89 185 0 5 23 24 51 43 72 48 237 207
311 299 359 445 559 1115 562 1886 1 251 1 252 -83 328 -270 242 -1296 398
-2281 346z m825 -281 c65 -9 120 -27 87 -28 -8 0 -28 -6 -45 -14 -81 -35 -529
-57 -755 -36 -173 15 -257 31 -257 50 0 7 14 18 30 22 86 26 780 30 940 6z
m1336 -68 c56 -28 96 -65 118 -110 27 -54 21 -247 -10 -296 -35 -58 -93 -92
-228 -134 -808 -254 -1741 -316 -2611 -175 -281 46 -582 122 -735 185 -125 53
-195 151 -195 275 0 101 68 204 162 245 84 36 139 31 313 -28 425 -143 1050
-219 1599 -192 483 23 841 84 1296 220 154 46 215 48 291 10z m-67 -726 c14
-36 5 -227 -15 -331 -62 -328 -177 -629 -325 -856 -83 -127 -123 -176 -245
-302 -180 -187 -239 -276 -239 -362 0 -78 25 -142 178 -468 142 -302 347 -798
431 -1042 26 -77 31 -106 31 -185 l0 -93 -49 75 c-68 105 -170 198 -271 249
-46 23 -100 44 -121 47 -25 4 -40 13 -44 25 -4 11 -11 19 -16 19 -5 0 -13 10
-18 23 -5 12 -31 69 -59 127 -102 213 -269 341 -483 373 -283 41 -574 -147
-671 -433 -17 -51 -19 -80 -16 -212 3 -165 3 -163 78 -311 17 -32 30 -71 30
-86 0 -16 -16 -59 -36 -97 -64 -126 -74 -168 -74 -322 0 -150 4 -170 58 -280
44 -92 109 -167 192 -224 88 -60 151 -85 264 -104 88 -15 104 -15 194 0 122
20 228 70 333 159 93 78 141 102 244 122 179 33 344 155 423 311 30 60 62 146
62 169 0 11 7 38 15 60 10 28 14 86 15 190 l1 150 45 -130 c115 -332 199 -640
269 -990 19 -99 42 -200 50 -225 33 -107 37 -215 33 -950 -5 -718 -5 -727 -30
-900 -50 -336 -81 -444 -164 -572 -173 -264 -530 -455 -1029 -548 -371 -69
-930 -79 -1360 -24 -479 60 -879 217 -1087 425 -58 57 -58 58 -58 117 0 42 10
89 34 159 50 142 81 249 121 411 42 170 58 212 81 212 9 0 51 -34 93 -75 53
-54 98 -87 150 -113 72 -35 79 -37 207 -42 146 -6 129 1 234 -96 99 -91 200
-134 316 -134 200 0 377 147 458 380 21 61 21 246 0 320 -11 37 -18 120 -22
250 -7 192 -7 196 -38 260 -40 82 -115 174 -177 217 -105 71 -262 93 -389 53
-71 -22 -108 -44 -208 -125 -73 -59 -105 -71 -206 -78 -91 -7 -167 -34 -253
-91 -38 -25 -74 -46 -80 -46 -6 0 -11 11 -11 25 0 15 -6 25 -14 25 -12 0 -15
35 -18 188 l-3 189 -30 49 c-17 27 -52 65 -78 84 -32 24 -47 42 -47 58 0 102
-128 224 -333 316 -54 24 -101 47 -104 49 -3 3 9 12 25 21 47 24 100 93 121
160 11 33 36 125 56 204 151 606 496 1547 850 2318 108 236 155 365 155 428 0
86 -62 185 -220 351 -168 177 -252 297 -365 520 -102 200 -186 463 -230 719
-16 95 -20 213 -7 234 6 9 34 4 119 -23 147 -47 365 -98 543 -128 231 -40 230
-40 230 -21 0 15 8 16 63 10 34 -3 118 -11 187 -16 257 -21 248 -20 253 -42 6
-21 8 -21 334 -15 414 7 671 33 1043 103 140 26 440 100 545 134 74 23 72 23
79 4z m-1244 -2854 c158 -26 298 -131 368 -277 33 -71 37 -87 40 -178 l4 -100
50 4 c235 16 460 -167 500 -406 50 -301 -211 -576 -523 -550 l-69 6 -21 -41
c-86 -168 -317 -276 -514 -239 -318 59 -494 392 -359 677 29 61 108 153 160
184 19 12 34 25 34 28 -1 4 -23 23 -51 42 -63 44 -131 133 -159 208 -34 87
-38 212 -11 300 60 199 247 341 461 351 14 0 54 -4 90 -9z m-3690 -2179 c261
-22 436 -43 469 -57 32 -13 33 -16 19 -30 -28 -28 -116 -52 -303 -83 -238 -40
-371 -58 -540 -73 -188 -16 -820 -16 -1005 0 -172 16 -528 65 -620 86 -117 28
-160 40 -160 48 0 5 -9 8 -20 8 -32 0 -23 25 13 38 59 21 372 54 682 72 199
11 1306 4 1465 -9z m1328 -207 c56 -28 90 -63 125 -128 18 -34 22 -57 21 -128
0 -83 -2 -89 -37 -142 -48 -72 -97 -99 -271 -154 -980 -304 -2115 -378 -3156
-206 -310 51 -652 136 -847 211 -160 61 -233 152 -233 288 0 181 192 318 360
257 193 -69 251 -87 390 -122 263 -66 546 -113 890 -147 249 -25 903 -25 1150
0 339 34 667 89 945 158 129 32 404 111 445 128 14 5 57 10 96 10 56 1 80 -4
122 -25z m1491 -520 c180 -82 261 -299 177 -475 l-26 -57 35 -52 c66 -98 80
-198 45 -311 -81 -259 -399 -344 -589 -157 -45 44 -86 118 -97 175 l-6 32 -37
-24 c-62 -40 -133 -58 -214 -53 -129 9 -231 78 -289 196 -30 61 -33 74 -33
162 0 84 3 102 28 152 87 177 296 262 460 186 36 -17 57 -23 57 -15 0 26 50
117 86 156 102 113 266 148 403 85z M7906 5675 c-125 -32 -225 -115 -250 -210
-27 -97 -40 -245 -26 -295 19 -72 45 -114 100 -163 130 -117 351 -129 508 -28
69 45 117 99 143 158 15 35 19 69 19 152 0 95 -3 113 -26 159 -34 68 -130 155
-219 199 -84 41 -162 50 -249 28z m190 -80 c78 -24 143 -80 184 -159 30 -60
35 -78 35 -140 0 -123 -69 -232 -180 -286 -76 -36 -190 -35 -267 3 -143 70
-214 242 -159 387 61 161 226 244 387 195z M6649 3071 c-88 -35 -196 -127
-219 -187 -6 -14 -10 -51 -10 -81 0 -106 55 -177 187 -243 199 -100 403 22
403 240 0 124 -56 220 -155 266 -61 29 -140 31 -206 5z m134 -52 c49 -13 115
-73 138 -124 65 -143 -42 -307 -201 -307 -171 0 -276 180 -190 328 52 92 150
132 253 103z"/>
</g>
</svg>
