<?xml version="1.0" standalone="no"?>
<!DOCTYPE svg PUBLIC "-//W3C//DTD SVG 20010904//EN"
 "http://www.w3.org/TR/2001/REC-SVG-20010904/DTD/svg10.dtd">
<svg version="1.0" xmlns="http://www.w3.org/2000/svg"
 width="2048.000000pt" height="2048.000000pt" viewBox="0 0 2048.000000 2048.000000"
 preserveAspectRatio="xMidYMid meet">
<metadata>
Created by potrace 1.13, written by Peter Selinger 2001-2015
</metadata>
<g transform="translate(0.000000,2048.000000) scale(0.192120,-0.192120)"
fill="#000000" stroke="none">
<path d="M4245 10324 c-665 -52 -1251 -224 -1780 -523 -1096 -620 -1852 -1679
-2069 -2901 -49 -276 -60 -413 -60 -730 -1 -309 7 -413 50 -680 259 -1616
1474 -2949 3064 -3359 334 -87 590 -121 960 -128 464 -9 838 40 1276 168 372
108 855 336 1115 525 26 19 51 34 55 34 5 0 24 -29 42 -64 58 -112 288 -511
459 -795 371 -617 620 -982 751 -1102 127 -117 258 -204 412 -278 214 -102
430 -154 646 -155 l131 -1 104 52 c347 172 818 666 911 954 21 66 21 74 10
192 -37 362 -165 670 -395 943 -128 153 -342 310 -857 631 -294 183 -908 543
-1097 642 l-62 33 68 102 c188 279 368 651 478 986 79 241 142 528 180 815 26
199 26 747 0 955 -82 658 -294 1248 -645 1789 -575 889 -1483 1534 -2507 1781
-330 80 -573 110 -930 114 -143 2 -282 2 -310 0z m475 -304 c1349 -81 2534
-802 3182 -1935 195 -342 329 -706 424 -1150 l28 -130 4 -603 c3 -575 2 -608
-18 -720 -80 -449 -236 -887 -447 -1252 -33 -58 -88 -160 -122 -227 -56 -113
-61 -128 -61 -189 0 -58 5 -76 35 -129 43 -77 160 -204 234 -254 31 -21 174
-106 319 -190 478 -277 1026 -619 1221 -763 229 -170 373 -354 455 -584 49
-138 56 -182 56 -366 0 -167 -1 -177 -25 -222 -48 -90 -139 -202 -274 -337
-154 -153 -268 -242 -390 -302 l-84 -42 -121 0 c-236 1 -497 85 -720 233 -102
68 -258 228 -352 362 -182 258 -494 764 -789 1280 -64 113 -132 223 -150 245
-60 74 -156 163 -207 190 -95 52 -151 33 -518 -170 -442 -243 -921 -395 -1460
-462 -203 -25 -685 -25 -890 1 -920 112 -1721 496 -2350 1126 -354 354 -622
755 -825 1236 -81 192 -176 507 -214 714 -11 58 -25 137 -33 175 -10 53 -13
201 -13 610 0 521 1 545 23 670 177 991 674 1802 1477 2407 729 550 1679 833
2605 778z M4275 9704 c-303 -29 -410 -46 -620 -98 -717 -177 -1359 -583 -1856
-1171 -417 -494 -696 -1115 -794 -1767 -22 -142 -21 -858 0 -1007 134 -925
651 -1793 1410 -2368 467 -353 1031 -584 1635 -668 156 -22 573 -31 737 -16
600 55 1131 243 1633 576 492 327 915 804 1187 1340 190 376 299 703 363 1095
18 111 20 170 20 540 0 444 -4 492 -56 740 -99 470 -322 968 -603 1350 -595
807 -1447 1312 -2421 1436 -117 14 -545 27 -635 18z m605 -230 c1269 -143
2350 -1013 2770 -2229 218 -631 237 -1347 54 -1989 -123 -432 -332 -835 -616
-1190 -107 -132 -375 -400 -508 -505 -576 -457 -1251 -705 -1985 -728 -920
-29 -1797 320 -2455 977 -538 536 -865 1214 -956 1980 -21 173 -23 551 -5 710
31 266 86 516 165 748 365 1061 1244 1869 2336 2147 192 49 417 83 650 99 101
7 414 -4 550 -20z M4140 9303 c-352 -13 -672 -94 -995 -253 -254 -125 -442
-251 -607 -409 -264 -251 -409 -513 -459 -826 -6 -38 -14 -216 -19 -395 -14
-530 -37 -612 -302 -1054 -274 -455 -316 -579 -305 -895 6 -185 26 -296 84
-476 121 -374 332 -719 627 -1023 469 -483 1014 -766 1651 -858 166 -24 478
-24 640 0 380 57 755 195 1013 372 220 152 426 411 518 651 122 319 143 537
144 1433 0 725 -3 707 243 1321 129 320 175 449 211 594 24 91 26 118 26 310
0 241 -9 289 -84 448 -119 254 -377 514 -675 682 -300 168 -705 293 -1131 350
-129 17 -391 36 -460 33 -25 -1 -79 -3 -120 -5z m425 -187 c618 -80 1124 -273
1452 -555 288 -248 420 -538 385 -850 -21 -191 -68 -337 -241 -758 -118 -288
-165 -419 -206 -578 -66 -256 -68 -282 -60 -935 7 -615 2 -741 -35 -948 -77
-423 -286 -717 -659 -926 -241 -136 -586 -243 -883 -275 -124 -14 -367 -14
-483 0 -746 86 -1449 519 -1871 1151 -304 456 -406 971 -270 1364 39 114 61
154 223 422 324 536 339 587 353 1162 9 384 18 461 70 623 57 179 154 337 295
485 149 156 306 274 515 385 275 146 501 219 762 247 119 12 512 4 653 -14z
M3776 6430 c-153 -24 -328 -93 -457 -180 -87 -59 -229 -199 -288 -284 -87
-127 -149 -273 -183 -431 -16 -78 -16 -333 0 -410 51 -237 153 -425 319 -586
146 -142 303 -232 498 -285 91 -25 116 -27 275 -28 157 0 185 3 271 26 413
112 707 411 811 825 32 127 32 379 0 506 -104 415 -402 717 -811 824 -108 28
-328 39 -435 23z m389 -270 c283 -67 511 -254 611 -501 25 -61 25 -63 22 -338
l-3 -276 -31 -70 c-40 -93 -140 -232 -214 -297 -184 -163 -456 -247 -707 -219
-317 36 -567 199 -706 461 -72 136 -77 162 -77 415 0 241 4 265 65 385 125
246 413 432 720 464 74 7 240 -5 320 -24z"/>
</g>
</svg>
