<?xml version="1.0" standalone="no"?>
<!DOCTYPE svg PUBLIC "-//W3C//DTD SVG 20010904//EN"
 "http://www.w3.org/TR/2001/REC-SVG-20010904/DTD/svg10.dtd">
<svg version="1.0" xmlns="http://www.w3.org/2000/svg"
 width="2048.000000pt" height="2048.000000pt" viewBox="0 0 2048.000000 2048.000000"
 preserveAspectRatio="xMidYMid meet">
<metadata>
Created by potrace 1.13, written by Peter Selinger 2001-2015
</metadata>
<g transform="translate(0.000000,2048.000000) scale(0.192120,-0.192120)"
fill="#000000" stroke="none">
<path d="M1670 10279 c-69 -13 -148 -48 -220 -95 -43 -28 -187 -165 -421 -401
-383 -386 -401 -409 -445 -558 -52 -179 5 -368 138 -457 100 -68 257 -86 376
-45 l43 15 122 -130 c75 -80 150 -148 195 -179 170 -113 377 -127 562 -37 52
25 97 63 223 187 87 85 172 177 189 204 76 119 106 286 74 421 -31 132 -73
196 -238 358 l-149 148 17 70 c23 97 16 218 -19 293 -73 161 -254 244 -447
206z m160 -262 c11 -6 20 -15 20 -19 0 -4 11 -19 25 -34 22 -23 25 -36 26 -98
0 -102 35 -170 106 -211 29 -16 52 -36 53 -43 0 -32 -84 -127 -369 -415 -279
-281 -417 -407 -447 -407 -7 0 -27 23 -45 51 -44 70 -63 80 -172 89 -74 6
-101 13 -132 34 -74 48 -75 50 -75 152 0 89 1 93 35 140 19 27 42 65 52 84 18
39 399 422 543 548 94 82 171 127 243 142 49 10 110 5 137 -13z m220 -704 c0
-22 -59 -88 -237 -264 -249 -247 -283 -275 -283 -233 0 24 489 514 506 507 8
-3 14 -7 14 -10z m265 -141 c-12 -190 -54 -281 -195 -422 -100 -100 -176 -151
-263 -180 -78 -26 -220 -43 -284 -35 l-56 7 394 394 c450 450 416 430 404 236z
M3427 8500 c-26 -5 -78 -23 -115 -40 -62 -29 -103 -67 -504 -468 -402 -402
-440 -442 -468 -504 -104 -222 -16 -463 206 -565 45 -21 79 -28 145 -31 98 -5
164 11 239 59 25 15 244 227 486 471 502 504 484 479 492 651 5 100 -16 176
-69 253 -89 130 -257 201 -412 174z m159 -335 c22 -14 24 -22 24 -96 0 -67 -4
-87 -25 -122 -13 -23 -176 -193 -362 -378 -370 -368 -398 -389 -499 -389 -65
0 -97 12 -129 46 -21 23 -25 37 -25 92 l0 65 366 361 c364 359 427 415 494
435 45 13 126 6 156 -14z M1879 7815 c-328 -62 -599 -285 -726 -595 -27 -65
-37 -103 -59 -207 -4 -20 -11 -23 -57 -23 -124 0 -244 -55 -348 -159 -223
-223 -224 -555 -4 -776 105 -106 236 -165 365 -165 l52 0 -9 -32 c-4 -18 -8
-74 -8 -124 0 -84 3 -95 37 -165 20 -40 53 -89 72 -108 l35 -34 -35 -41 c-98
-114 -140 -314 -99 -470 55 -210 237 -376 445 -407 41 -6 80 -13 86 -14 6 -2
13 -32 16 -67 4 -52 24 -113 64 -204 3 -7 -14 -16 -43 -23 -72 -19 -137 -58
-194 -118 -60 -63 -96 -137 -107 -219 -27 -207 80 -383 275 -454 53 -19 77
-22 155 -18 79 3 103 9 159 36 161 77 262 268 229 434 -6 33 -13 65 -16 72 -3
7 18 12 65 13 224 6 435 182 496 413 19 72 19 201 0 275 -21 78 -66 161 -125
227 l-49 55 44 43 c50 49 105 147 129 229 33 111 15 283 -40 380 -13 24 -24
45 -24 46 0 1 33 0 73 -3 295 -19 566 246 567 554 0 67 -33 193 -67 257 -36
66 -120 157 -184 198 -51 32 -51 33 -45 76 3 24 2 43 -3 43 -17 0 -81 -72 -82
-93 -3 -64 -4 -62 139 -264 l33 -47 -3 -171 -3 -172 -40 -49 c-22 -27 -46 -55
-55 -62 -30 -25 -106 -60 -190 -87 -102 -32 -163 -75 -213 -147 l-37 -54 0
-175 c0 -96 -5 -194 -11 -219 -5 -25 -30 -89 -56 -143 -58 -127 -57 -170 7
-297 l44 -85 4 -152 c4 -142 2 -156 -18 -199 -43 -87 -107 -137 -246 -189 -88
-33 -166 -94 -215 -168 -34 -51 -39 -66 -39 -116 0 -43 -5 -65 -20 -84 -11
-14 -20 -35 -20 -48 0 -12 -12 -37 -26 -56 -72 -95 -244 -108 -352 -27 -49 38
-62 72 -62 164 0 96 11 119 78 170 69 52 144 131 170 179 41 78 24 278 -32
374 -38 64 -113 131 -171 152 -166 59 -223 95 -277 172 l-33 48 0 170 c0 162
1 173 28 240 37 94 36 152 -4 246 -23 56 -32 95 -36 158 -5 79 -5 84 13 77 55
-22 118 -37 198 -46 48 -6 98 -15 110 -21 11 -7 48 -39 81 -73 33 -34 81 -76
107 -95 73 -52 73 -83 3 -117 -68 -32 -149 -109 -190 -179 l-40 -69 -3 -125
-4 -124 39 -75 c139 -271 442 -309 613 -77 65 88 80 138 80 270 0 108 -2 119
-31 180 -17 36 -56 95 -87 131 -66 78 -64 89 24 115 122 35 224 114 290 225
75 127 94 192 101 344 l4 95 58 60 c32 33 74 85 94 116 45 72 107 227 107 269
0 30 -53 120 -71 120 -5 0 -11 -17 -14 -37 -28 -184 -111 -322 -245 -411 -33
-22 -64 -42 -70 -44 -6 -2 -3 -22 9 -53 75 -200 -12 -416 -207 -512 -73 -37
-80 -38 -181 -38 -98 0 -111 2 -172 31 -106 51 -187 138 -219 236 -10 32 -14
36 -29 28 -35 -18 -135 -28 -199 -19 -136 19 -247 101 -309 227 -37 74 -38 79
-38 187 0 104 2 114 32 176 85 172 301 277 466 226 l47 -15 0 36 c0 64 29 175
61 241 46 94 155 200 250 246 41 19 98 40 127 47 28 7 52 16 52 19 0 4 -17 17
-37 30 -62 36 -114 31 -218 -20 -121 -60 -211 -150 -280 -281 -60 -114 -99
-156 -152 -165 -113 -19 -233 -78 -300 -147 -53 -55 -126 -179 -141 -240 -7
-26 -12 -105 -12 -177 0 -124 -1 -131 -25 -156 l-24 -27 -46 23 c-53 27 -98
67 -140 129 -30 43 -30 45 -33 189 l-2 146 34 47 c48 63 111 104 225 145 116
42 149 61 199 118 44 50 67 95 113 215 33 88 98 197 143 239 14 14 26 29 26
34 0 18 63 82 125 127 119 88 271 139 459 155 97 8 196 30 291 64 l80 29 -30
12 c-128 52 -352 73 -496 45z m164 -2518 c137 -81 185 -246 109 -380 -132
-236 -486 -164 -518 106 -10 86 16 158 79 222 67 66 118 86 213 81 56 -2 82
-9 117 -29z M3940 7766 c0 -43 9 -92 25 -142 28 -87 31 -133 11 -172 -8 -15
-140 -151 -293 -303 -339 -336 -334 -333 -504 -324 -63 3 -127 2 -144 -3 l-29
-8 87 -87 c115 -114 147 -121 247 -54 51 34 789 764 823 814 12 18 25 33 28
33 3 0 13 -26 23 -57 32 -102 56 -135 206 -286 172 -171 223 -203 316 -195 47
4 57 2 76 -19 12 -13 26 -23 32 -23 18 -1 86 -57 112 -92 110 -149 38 -364
-218 -650 -93 -103 -246 -234 -341 -290 -104 -63 -184 -88 -275 -88 -89 0
-155 26 -208 81 -27 29 -29 35 -29 112 0 70 -4 88 -25 122 -30 50 -244 269
-330 340 -82 66 -93 72 -218 111 l-103 32 186 -193 c102 -106 247 -252 321
-325 l136 -132 60 -126 c156 -329 301 -699 578 -1472 264 -735 330 -900 477
-1195 89 -179 159 -299 265 -458 170 -255 244 -334 1107 -1201 454 -455 871
-869 926 -918 133 -119 236 -172 333 -172 138 1 52 -77 1390 1258 662 661
1226 1230 1253 1266 91 120 111 254 59 393 -12 33 -49 100 -82 150 -53 80
-174 205 -922 953 -499 499 -909 901 -976 956 -307 255 -642 464 -1020 639
-321 148 -580 249 -1305 509 -527 189 -902 328 -1085 403 l-135 54 -400 402
c-220 221 -408 406 -417 412 -16 9 -18 4 -18 -55z m1512 -1332 c101 -36 358
-128 571 -205 727 -262 996 -370 1337 -540 294 -147 539 -300 752 -470 100
-80 208 -186 208 -204 0 -14 -6 -12 -31 9 -17 14 -34 26 -39 26 -5 0 -31 14
-57 30 -27 17 -58 32 -68 34 -11 3 -36 11 -55 19 -71 31 -200 50 -285 43 -160
-12 -282 -60 -425 -166 -54 -41 -313 -291 -718 -694 -743 -741 -834 -840 -916
-1001 -59 -116 -66 -152 -66 -336 0 -181 6 -212 69 -339 92 -184 194 -299 803
-906 552 -549 631 -620 773 -692 160 -80 338 -99 503 -53 46 13 86 21 89 17
12 -12 -24 -61 -104 -142 -96 -96 -173 -140 -225 -129 -98 21 -221 126 -491
420 -181 197 -914 930 -1211 1210 -244 231 -374 392 -533 660 -205 343 -310
592 -618 1455 -76 212 -188 518 -250 680 -112 292 -135 359 -135 392 0 11 30
33 92 64 132 69 235 149 383 298 151 151 243 270 318 409 70 131 103 177 127
177 11 0 102 -30 202 -66z m2938 -1476 c0 -12 -6 -9 -26 13 -19 22 -19 22 4 8
12 -8 22 -17 22 -21z m-385 -78 c33 -13 85 -38 115 -57 35 -22 281 -261 691
-671 580 -581 639 -643 672 -708 89 -172 90 -349 5 -524 -29 -59 -102 -135
-767 -803 -415 -416 -760 -754 -791 -775 -186 -124 -460 -120 -630 10 -14 10
-314 308 -668 661 -559 558 -647 650 -676 707 -96 183 -86 402 26 570 21 31
359 376 775 791 667 665 744 738 803 767 103 50 161 62 280 58 79 -2 120 -9
165 -26z m1801 -1322 c114 -117 188 -201 202 -229 27 -56 30 -170 7 -227 -17
-40 -222 -254 -267 -278 -26 -14 -28 -13 -28 5 0 11 12 55 27 98 26 73 27 89
27 248 0 150 -2 178 -22 235 -42 121 -166 325 -253 415 -16 17 -29 37 -29 44
0 19 131 -102 336 -311z M2219 3092 c-307 -81 -411 -467 -186 -693 205 -204
547 -144 669 118 58 123 49 282 -23 395 -63 98 -164 166 -279 188 -71 13 -103
12 -181 -8z m231 -226 c19 -10 47 -30 63 -44 26 -25 27 -29 27 -127 0 -90 -2
-104 -25 -137 -73 -107 -271 -115 -372 -13 l-43 42 0 97 c0 54 4 106 10 116
11 21 67 58 119 77 49 18 175 12 221 -11z"/>
</g>
</svg>
