<?xml version="1.0" standalone="no"?>
<!DOCTYPE svg PUBLIC "-//W3C//DTD SVG 20010904//EN"
 "http://www.w3.org/TR/2001/REC-SVG-20010904/DTD/svg10.dtd">
<svg version="1.0" xmlns="http://www.w3.org/2000/svg"
 width="2048.000000pt" height="2048.000000pt" viewBox="0 0 2048.000000 2048.000000"
 preserveAspectRatio="xMidYMid meet">
<metadata>
Created by potrace 1.13, written by Peter Selinger 2001-2015
</metadata>
<g transform="translate(0.000000,2048.000000) scale(0.192120,-0.192120)"
fill="#000000" stroke="none">
<path d="M7822 10301 c-57 -20 -123 -75 -149 -126 -9 -16 -81 -214 -160 -439
-160 -458 -165 -482 -119 -581 43 -93 153 -165 251 -165 85 0 187 58 234 133
10 17 85 221 166 452 143 409 147 422 142 487 -7 112 -86 212 -191 243 -65 20
-109 18 -174 -4z m88 -355 c0 -53 -7 -94 -26 -147 -14 -41 -38 -112 -54 -159
-80 -234 -113 -308 -150 -337 -33 -27 -40 -16 -40 65 0 71 6 96 76 292 94 269
120 327 153 345 14 8 29 14 34 15 4 0 7 -33 7 -74z M9678 10037 c-69 -32
-1101 -1058 -1129 -1121 -29 -67 -34 -124 -15 -189 45 -154 197 -237 352 -192
59 16 62 20 592 548 427 426 538 542 559 585 70 142 -6 326 -155 376 -66 23
-148 20 -204 -7z m91 -276 c11 -7 9 -16 -7 -52 -14 -32 -126 -149 -418 -440
-399 -396 -468 -459 -509 -459 -34 0 -46 19 -30 49 22 43 856 867 900 889 46
24 46 24 64 13z M2363 10035 c-281 -51 -443 -196 -515 -460 -19 -72 -22 -112
-26 -382 -4 -326 -5 -323 46 -287 12 8 22 12 23 7 2 -21 18 36 18 66 1 25 5
32 16 27 13 -5 15 22 15 205 0 180 3 224 21 298 24 101 57 165 119 234 89 99
208 149 402 167 77 8 641 10 1778 8 l1665 -3 80 -23 c188 -55 304 -162 362
-335 l28 -82 3 -534 c3 -513 2 -536 -17 -593 -33 -98 -87 -182 -168 -265 -100
-101 -123 -136 -123 -185 l0 -38 58 29 c169 87 312 275 363 481 20 80 20 1054
0 1155 -58 292 -228 457 -529 511 -110 19 -3510 19 -3619 -1z M923 8794 c-135
-29 -259 -98 -366 -202 -86 -85 -147 -181 -189 -302 l-33 -95 0 -1615 0 -1615
33 -95 c43 -124 103 -218 194 -306 85 -83 181 -142 293 -181 l80 -28 443 -3
442 -3 0 -374 c0 -233 4 -394 11 -427 42 -203 224 -385 427 -427 37 -8 410
-11 1212 -11 l1160 0 0 -1153 c0 -1266 -3 -1202 61 -1330 38 -75 151 -190 226
-230 28 -15 86 -36 129 -47 75 -20 116 -20 1688 -20 1775 0 1670 -3 1805 63
87 42 195 149 238 237 60 121 63 145 63 561 l0 378 438 3 c425 4 439 4 507 27
136 45 223 98 320 196 100 99 154 189 197 325 l23 75 0 1605 c0 1523 -1 1608
-18 1670 -71 252 -254 444 -507 530 -72 25 -118 27 -672 33 l-287 3 -3 -216
c-3 -209 -4 -217 -30 -272 -35 -76 -104 -148 -175 -184 -53 -27 -67 -29 -163
-29 -111 0 -147 11 -225 70 l-31 23 -44 -56 c-208 -261 -626 -218 -773 78
l-25 49 -41 -49 c-89 -106 -258 -206 -396 -235 -101 -21 -245 -19 -341 5 -160
40 -316 141 -408 263 l-48 64 -44 -47 c-117 -125 -327 -148 -469 -50 l-41 28
-38 -74 c-66 -129 -216 -270 -351 -330 -168 -74 -381 -84 -547 -27 -208 72
-396 248 -467 437 -49 133 -52 177 -48 722 3 486 4 513 25 593 68 259 233 405
522 462 35 7 288 11 704 13 l649 3 4 278 5 278 -24 -7 c-116 -33 -158 -38
-278 -33 -132 5 -205 24 -315 80 -124 63 -246 185 -312 313 l-37 71 -39 -28
c-58 -42 -131 -64 -212 -63 -98 1 -170 31 -246 102 -51 47 -62 53 -70 40 -25
-45 -105 -131 -161 -173 -145 -109 -286 -156 -463 -156 -213 0 -399 80 -539
232 -32 34 -58 60 -60 58 -2 -2 -16 -28 -31 -57 -38 -71 -134 -158 -212 -194
-168 -76 -365 -46 -500 76 -29 26 -61 62 -73 81 l-21 34 -44 -33 c-93 -71
-234 -90 -348 -46 -80 30 -166 111 -203 192 -29 62 -29 65 -32 276 l-3 212
-417 -1 c-310 -1 -433 -4 -479 -15z m312 -214 c6 -19 15 -20 194 -20 l188 0 6
-107 c3 -60 3 -120 0 -135 -5 -26 -9 -28 -57 -28 -81 -1 -184 -18 -269 -46
-141 -47 -313 -198 -380 -334 l-32 -65 -3 -1229 c-2 -1217 -2 -1231 18 -1292
27 -80 63 -136 146 -224 85 -90 188 -159 285 -191 67 -22 91 -24 244 -24 153
0 175 2 216 21 59 27 163 130 180 178 7 20 17 36 21 36 12 0 10 2516 -1 2538
-6 9 -18 42 -27 72 -9 30 -23 68 -31 83 -8 16 -13 30 -11 32 2 2 41 -10 88
-26 129 -44 267 -39 391 13 l35 16 28 -43 c152 -241 513 -274 716 -66 30 31
66 80 79 108 l24 52 76 -77 c82 -81 152 -128 251 -169 217 -87 479 -65 674 59
64 41 169 139 208 196 l30 43 39 -45 c59 -67 149 -108 248 -114 89 -5 149 10
224 58 l46 29 20 -44 c30 -69 93 -155 157 -215 74 -70 103 -90 190 -133 116
-58 173 -71 320 -71 73 -1 130 -4 128 -7 -8 -14 -98 -29 -176 -29 -110 0 -223
14 -410 49 -207 39 -273 43 -483 32 -271 -15 -429 -63 -561 -170 -96 -77 -124
-133 -124 -248 0 -35 -3 -63 -6 -63 -4 0 -22 14 -42 31 -50 44 -98 62 -167 62
-101 1 -189 -59 -230 -156 -13 -32 -15 -204 -15 -1455 l0 -1418 26 -52 c78
-157 288 -187 402 -57 64 72 62 53 62 659 0 303 3 588 7 633 l6 82 31 -72 c84
-191 207 -316 367 -372 l38 -14 4 37 c2 20 4 -18 5 -85 l2 -121 45 -16 c91
-31 198 -41 296 -27 257 34 468 179 579 399 17 34 34 62 36 62 3 0 21 -12 39
-26 43 -33 143 -64 204 -64 100 0 221 56 279 127 l28 36 38 -51 c47 -65 138
-147 210 -191 318 -191 707 -129 954 153 18 21 35 37 36 35 2 -2 16 -28 32
-58 105 -197 356 -290 567 -211 76 29 172 102 215 165 19 28 39 49 46 48 6 -1
38 -12 71 -24 119 -43 288 -33 397 22 47 24 46 33 4 -86 l-25 -70 -1 -1267 c0
-1190 1 -1269 17 -1296 10 -16 21 -30 26 -31 4 0 16 -10 26 -20 11 -11 36 -23
56 -27 l35 -6 -2 -316 -3 -315 -43 -15 c-50 -16 -112 -73 -112 -102 0 -11 -4
-20 -10 -20 -6 0 -10 -75 -10 -204 0 -126 -4 -207 -10 -211 -6 -3 -10 -49 -10
-103 0 -78 -4 -106 -20 -137 -11 -22 -20 -47 -20 -58 0 -29 -35 -89 -72 -123
-45 -42 -75 -59 -139 -81 -51 -17 -132 -18 -1589 -21 -1044 -2 -1565 0 -1630
8 -150 16 -264 84 -302 178 -43 105 -42 79 -45 1210 -2 706 -7 1082 -13 1082
-6 0 -10 9 -10 20 0 11 -4 20 -9 20 -5 0 -12 8 -15 18 -8 23 -71 62 -111 69
l-32 5 -6 172 c-4 94 -7 442 -7 774 0 415 -3 601 -10 597 -17 -10 -60 -83 -60
-100 0 -8 -4 -15 -10 -15 -6 0 -10 -130 -10 -370 0 -240 -4 -370 -10 -370 -6
0 -10 -78 -10 -215 0 -208 -1 -215 -20 -215 -17 0 -20 -7 -20 -40 l0 -40 -992
0 c-546 1 -1040 5 -1096 10 -110 10 -179 34 -246 85 -36 28 -86 114 -86 149 0
12 -7 39 -15 61 -11 31 -14 105 -15 338 0 191 -4 297 -10 297 -5 0 -10 9 -10
20 0 11 -4 20 -9 20 -5 0 -12 12 -16 27 -9 37 -121 144 -181 174 -48 24 -55
24 -409 30 -396 7 -438 13 -548 71 -76 41 -172 135 -223 218 l-39 65 -3 1650
c-1 908 0 1664 3 1681 8 48 101 181 158 225 104 83 201 118 352 128 61 5 118
9 127 10 9 0 20 -8 23 -19z m585 -2000 l0 -1490 -198 0 c-174 0 -206 3 -258
20 -115 40 -210 122 -253 221 -40 91 -42 142 -39 1309 3 1121 3 1125 25 1188
26 77 62 125 121 163 95 60 183 76 430 78 l172 1 0 -1490z m2095 278 c3 -13 6
-304 8 -648 l3 -625 37 -132 37 -133 0 -629 0 -630 -22 -15 c-29 -20 -87 -20
-116 0 l-22 15 0 1394 0 1394 22 15 c31 22 47 20 53 -6z m5810 -1103 c130 -37
242 -113 305 -207 l40 -60 0 -1682 0 -1682 -36 -60 c-76 -127 -193 -209 -339
-238 -46 -9 -178 -16 -392 -19 l-323 -5 0 127 0 128 138 6 c156 6 231 25 327
82 119 72 232 213 294 369 l31 78 0 1223 c0 1322 3 1247 -55 1367 -41 86 -168
216 -255 262 -85 45 -220 76 -333 76 -74 0 -78 1 -87 26 -6 14 -10 73 -10 131
l0 105 318 -5 c258 -4 328 -8 377 -22z m-408 -488 c135 -39 207 -103 245 -216
l23 -66 3 -1125 c2 -763 -1 -1147 -8 -1194 -22 -144 -102 -249 -237 -314 l-78
-37 -212 -3 -213 -3 0 1491 0 1492 213 -5 c147 -3 228 -9 264 -20z M2639 7073
c-52 -8 -132 -66 -164 -117 l-30 -49 -3 -1426 c-3 -1603 -9 -1475 74 -1557 98
-99 261 -94 352 11 66 75 62 -35 62 1529 l0 1421 -24 50 c-46 99 -157 157
-267 138z m105 -199 c15 -6 16 -139 16 -1410 l0 -1403 -22 -15 c-29 -20 -87
-20 -116 0 l-22 15 0 1399 c0 1322 1 1400 18 1409 19 11 101 15 126 5z M5430
4291 c-72 -22 -139 -81 -166 -147 -12 -28 -14 -272 -14 -1459 l0 -1425 21 -45
c59 -126 215 -177 338 -110 59 32 96 75 117 132 11 31 13 297 14 1454 l0 1415
-26 52 c-14 29 -42 66 -62 82 -59 49 -156 71 -222 51z m91 -231 c5 0 9 -548 9
-1379 0 -1247 -2 -1379 -16 -1385 -8 -3 -26 -3 -40 0 l-24 6 0 1378 c0 1305 1
1379 18 1383 9 3 23 3 30 1 8 -2 18 -4 23 -4z M6670 4291 c-72 -22 -139 -81
-166 -147 -12 -28 -14 -272 -14 -1457 l0 -1423 28 -55 c47 -93 152 -149 253
-133 63 10 139 62 174 118 l30 49 3 1429 2 1429 -21 50 c-46 106 -182 172
-289 140z m91 -231 c5 0 9 -548 9 -1379 0 -1247 -2 -1379 -16 -1385 -8 -3 -26
-3 -40 0 l-24 6 0 1378 c0 1305 1 1379 18 1383 9 3 23 3 30 1 8 -2 18 -4 23
-4z M7910 4291 c-72 -22 -139 -81 -166 -147 -12 -28 -14 -272 -14 -1457 l0
-1423 28 -55 c47 -93 152 -149 253 -133 63 10 139 62 174 118 l30 49 3 1429 2
1429 -21 50 c-46 106 -182 172 -289 140z m91 -231 c5 0 9 -548 9 -1379 0
-1247 -2 -1379 -16 -1385 -8 -3 -26 -3 -40 0 l-24 6 0 1378 c0 1305 1 1379 18
1383 9 3 23 3 30 1 8 -2 18 -4 23 -4z M9985 8183 c-41 -11 -746 -263 -774
-278 -16 -8 -47 -35 -70 -61 -119 -136 -76 -341 92 -431 23 -12 55 -18 112
-18 77 0 92 4 438 128 197 70 375 136 397 147 50 25 105 91 124 148 36 105 11
208 -69 289 -69 68 -164 97 -250 76z m-105 -339 c0 -8 -5 -12 -10 -9 -6 4 -8
11 -5 16 9 14 15 11 15 -7z m-30 -10 c0 -8 -5 -12 -10 -9 -6 4 -8 11 -5 16 9
14 15 11 15 -7z m-33 -16 c-3 -8 -6 -5 -6 6 -1 11 2 17 5 13 3 -3 4 -12 1 -19z
m-30 -10 c-3 -8 -6 -5 -6 6 -1 11 2 17 5 13 3 -3 4 -12 1 -19z m-77 -24 c0 -8
-5 -12 -10 -9 -6 4 -8 11 -5 16 9 14 15 11 15 -7z m-30 -10 c0 -8 -5 -12 -10
-9 -6 4 -8 11 -5 16 9 14 15 11 15 -7z m-33 -16 c-3 -8 -6 -5 -6 6 -1 11 2 17
5 13 3 -3 4 -12 1 -19z m-30 -10 c-3 -8 -6 -5 -6 6 -1 11 2 17 5 13 3 -3 4
-12 1 -19z M6155 7247 c34 -53 -2 -51 1045 -58 1061 -7 1069 -7 1210 -65 88
-35 173 -97 215 -155 95 -132 125 -262 125 -537 0 -120 3 -181 10 -177 6 4 10
-10 10 -35 0 -25 4 -39 10 -35 6 3 10 -2 10 -11 0 -10 3 -14 7 -11 3 4 15 -1
26 -10 19 -18 19 -14 15 272 -4 256 -7 299 -26 370 -69 255 -225 402 -482 455
-91 19 -143 20 -1143 20 l-1047 0 15 -23z"/>
</g>
</svg>
