<?xml version="1.0" standalone="no"?>
<!DOCTYPE svg PUBLIC "-//W3C//DTD SVG 20010904//EN"
 "http://www.w3.org/TR/2001/REC-SVG-20010904/DTD/svg10.dtd">
<svg version="1.0" xmlns="http://www.w3.org/2000/svg"
 width="2048.000000pt" height="2048.000000pt" viewBox="0 0 2048.000000 2048.000000"
 preserveAspectRatio="xMidYMid meet">
<metadata>
Created by potrace 1.13, written by Peter Selinger 2001-2015
</metadata>
<g transform="translate(0.000000,2048.000000) scale(0.192120,-0.192120)"
fill="#000000" stroke="none">
<path d="M2630 10100 c-108 -20 -198 -69 -277 -153 -36 -38 -133 -199 -355
-588 -168 -294 -314 -557 -324 -585 -26 -72 -24 -178 3 -230 32 -61 97 -111
171 -134 62 -19 97 -20 1218 -20 l1154 0 0 -3872 c0 -2130 -4 -3879 -9 -3886
-6 -10 -31 3 -102 50 -52 35 -95 66 -97 71 -2 4 -15 7 -28 7 -13 0 -24 4 -24
10 0 6 -338 10 -912 13 -904 3 -914 3 -996 25 -266 70 -505 269 -623 517 -73
153 -69 72 -69 1342 0 1009 -2 1143 -15 1143 -13 0 -15 95 -15 794 0 519 -3
797 -10 801 -5 3 -10 13 -10 21 0 8 -5 20 -10 27 -6 7 -28 41 -49 77 -38 63
-38 65 -18 72 12 3 676 6 1475 7 l1453 1 -28 34 c-29 35 -96 86 -114 86 -5 0
-12 7 -15 15 -5 13 -155 15 -1265 15 -1112 0 -1259 2 -1259 15 0 11 -11 15
-40 15 l-40 0 0 85 0 85 40 0 c33 0 40 3 40 20 0 20 11 20 1257 22 994 2 1257
6 1261 16 2 6 10 12 18 12 16 0 44 23 105 85 l39 40 -1482 5 c-816 3 -1484 7
-1485 8 0 1 1 20 4 41 4 29 -1 54 -20 94 -22 48 -33 59 -103 102 -255 155
-376 272 -467 450 -71 141 -77 175 -77 424 0 213 2 230 24 294 73 207 239 406
423 508 74 41 195 89 225 89 9 0 23 6 30 13 20 20 50 25 231 41 210 19 245 36
263 125 l7 33 -244 -5 c-226 -4 -251 -6 -337 -30 -427 -122 -743 -476 -807
-904 -54 -354 60 -699 315 -954 120 -121 301 -230 450 -273 l55 -16 -3 -2237
c-2 -1557 0 -2271 8 -2345 44 -439 337 -810 750 -950 183 -62 -46 -58 3410
-58 3461 0 3228 -4 3414 59 412 140 705 514 746 954 8 76 10 828 8 2345 l-3
2232 55 16 c149 43 330 152 450 273 254 255 369 600 315 951 -68 454 -419 826
-869 920 -73 16 -132 20 -305 20 l-213 0 6 -32 c18 -89 53 -105 269 -124 169
-14 207 -20 217 -34 3 -4 39 -17 80 -29 82 -25 207 -85 279 -134 73 -49 202
-187 247 -263 23 -38 59 -112 80 -164 l39 -95 3 -193 c5 -232 -6 -289 -78
-440 -95 -198 -247 -350 -456 -455 -106 -54 -146 -106 -148 -194 0 -29 -1 -54
-1 -55 0 -1 -667 -5 -1482 -8 l-1483 -5 33 -35 c46 -48 75 -70 92 -70 8 0 15
-4 15 -10 0 -5 18 -10 39 -10 23 0 41 -5 43 -12 4 -10 267 -14 1261 -16 1246
-2 1257 -2 1257 -22 0 -13 7 -20 20 -20 18 0 20 -7 20 -85 0 -78 -2 -85 -20
-85 -11 0 -20 -7 -20 -15 0 -13 -147 -15 -1260 -15 -833 0 -1260 -3 -1260 -10
0 -5 -10 -10 -22 -10 -38 0 -121 -45 -161 -86 l-38 -39 1470 -5 c808 -3 1471
-7 1474 -10 3 -3 -15 -39 -39 -80 -24 -41 -44 -82 -44 -92 0 -9 -5 -20 -10
-23 -7 -4 -10 -282 -10 -801 0 -699 -2 -794 -15 -794 -13 0 -15 -134 -15
-1147 0 -938 -3 -1157 -14 -1199 -22 -83 -101 -240 -155 -307 -143 -179 -307
-289 -521 -348 l-85 -23 -887 -4 c-558 -2 -888 -6 -888 -12 0 -6 -20 -10 -45
-10 -25 0 -45 -4 -45 -9 0 -5 -10 -11 -22 -15 -13 -3 -61 -30 -107 -61 -63
-42 -86 -53 -93 -43 -4 7 -8 1756 -8 3886 l0 3872 1154 0 c1121 0 1156 1 1218
20 74 23 139 73 171 134 27 52 29 158 3 231 -10 28 -154 288 -319 579 -317
555 -354 610 -456 675 -136 88 -308 101 -460 35 -34 -15 -353 -231 -742 -504
l-683 -478 -29 46 c-70 111 -217 236 -343 293 -146 66 -185 72 -557 77 -214 2
-374 0 -433 -7 -116 -14 -241 -55 -335 -111 -87 -52 -205 -162 -258 -241 l-39
-58 -58 43 c-299 217 -1308 914 -1357 936 -92 43 -191 57 -287 40z m202 -307
c67 -21 156 -79 666 -436 580 -407 605 -424 677 -458 50 -24 62 -27 70 -15 7
9 29 14 60 13 76 -1 171 55 330 191 77 67 174 117 272 143 100 25 469 37 679
21 219 -17 281 -44 508 -221 122 -96 198 -135 261 -135 30 0 54 -5 60 -13 8
-10 20 -8 62 11 65 31 110 61 657 444 545 382 610 425 684 452 78 30 181 30
248 1 102 -45 123 -76 446 -640 l208 -364 0 -72 c0 -73 0 -73 -32 -86 -27 -11
-246 -15 -1103 -19 l-1070 -5 -56 -28 c-51 -24 -94 -64 -166 -152 -13 -14 -23
-31 -23 -36 0 -5 -4 -9 -10 -9 -7 0 -10 -468 -10 -1384 0 -913 -3 -1387 -10
-1391 -7 -4 -10 -792 -10 -2331 0 -2317 0 -2324 -20 -2324 -17 0 -20 -7 -20
-40 l0 -40 -870 0 -870 0 0 40 c0 29 -4 40 -15 40 -13 0 -15 265 -15 2324 0
1539 -3 2327 -10 2331 -7 4 -10 478 -10 1391 0 761 -3 1384 -8 1384 -4 0 -13
13 -20 29 -22 49 -123 148 -177 173 l-50 23 -1065 5 c-999 5 -1068 7 -1112 24
l-48 18 0 57 c0 57 4 64 216 437 220 385 323 552 365 591 82 74 206 96 331 56z"/>
</g>
</svg>
