<?xml version="1.0" standalone="no"?>
<!DOCTYPE svg PUBLIC "-//W3C//DTD SVG 20010904//EN"
 "http://www.w3.org/TR/2001/REC-SVG-20010904/DTD/svg10.dtd">
<svg version="1.0" xmlns="http://www.w3.org/2000/svg"
 width="2048.000000pt" height="2048.000000pt" viewBox="0 0 2048.000000 2048.000000"
 preserveAspectRatio="xMidYMid meet">
<metadata>
Created by potrace 1.13, written by Peter Selinger 2001-2015
</metadata>
<g transform="translate(0.000000,2048.000000) scale(0.192120,-0.192120)"
fill="#000000" stroke="none">
<path d="M5234 10174 c-53 -19 -119 -76 -144 -123 -10 -21 -39 -93 -64 -162
-247 -683 -576 -1127 -997 -1349 -176 -92 -342 -136 -565 -149 -146 -9 -211
-27 -259 -71 -19 -17 -25 -17 -90 -5 -324 62 -716 38 -1069 -65 -808 -235
-1445 -901 -1645 -1721 -52 -214 -65 -330 -65 -574 0 -244 13 -360 65 -575
104 -426 347 -846 662 -1146 201 -192 400 -311 601 -361 l63 -15 12 -54 c41
-180 199 -342 390 -398 69 -20 209 -21 284 -1 179 46 328 186 389 363 18 54
23 87 22 172 0 58 -6 117 -12 132 -11 27 -10 27 106 94 855 491 1614 1384
1846 2174 52 179 61 243 60 440 0 172 -2 191 -27 273 -70 227 -219 448 -442
653 -103 95 -231 194 -251 194 -19 0 -44 -53 -44 -95 0 -79 31 -109 224 -220
155 -90 271 -177 335 -254 l44 -53 -64 49 c-326 247 -897 164 -1553 -227 -287
-171 -539 -371 -817 -649 -349 -349 -593 -678 -778 -1051 -285 -573 -315
-1067 -82 -1342 l36 -43 -42 33 c-101 79 -185 194 -327 450 -51 92 -126 223
-166 291 -129 220 -201 389 -267 627 l-27 99 -4 410 c-3 406 -3 411 22 525 33
153 84 297 161 455 159 327 358 570 635 776 305 227 590 352 960 420 113 21
156 23 440 24 173 1 323 2 332 3 26 3 58 41 86 105 29 67 13 66 196 15 191
-53 366 -129 551 -241 l99 -60 51 18 c436 153 879 578 1174 1128 29 53 54 97
56 97 2 0 24 -38 49 -85 195 -361 477 -674 801 -891 116 -77 307 -176 411
-214 l62 -22 87 52 c226 136 616 271 814 282 l54 3 37 -65 c56 -100 76 -107
330 -120 329 -16 531 -56 773 -152 134 -52 178 -76 338 -178 248 -158 479
-361 614 -539 133 -175 236 -376 315 -610 84 -249 85 -261 85 -706 l0 -390
-36 -135 c-67 -248 -168 -480 -294 -671 -35 -53 -72 -111 -83 -130 -10 -19
-51 -92 -91 -162 -120 -216 -208 -334 -304 -409 l-42 -33 36 43 c343 404 106
1263 -575 2087 -127 154 -437 464 -591 591 -397 328 -807 559 -1188 668 -223
64 -474 79 -632 37 -99 -26 -188 -69 -257 -123 l-53 -42 36 45 c74 91 221 199
414 304 142 77 186 120 201 192 8 39 -29 128 -48 117 -106 -62 -296 -221 -401
-334 -177 -192 -281 -365 -339 -567 -20 -68 -23 -101 -23 -258 0 -191 10 -262
61 -435 97 -327 281 -674 536 -1009 l80 -104 -27 -49 c-50 -92 -44 -193 18
-284 45 -68 104 -101 212 -120 151 -26 246 -70 276 -126 10 -19 8 -25 -19 -49
-52 -47 -94 -53 -377 -54 -255 0 -262 -1 -350 -28 -257 -80 -433 -247 -489
-463 -49 -190 10 -405 152 -556 149 -157 330 -241 612 -283 137 -20 218 -48
269 -91 48 -42 52 -65 14 -92 -61 -42 -96 -47 -368 -47 -239 -1 -266 -3 -340
-24 -323 -91 -525 -327 -525 -611 0 -164 61 -303 189 -431 96 -96 186 -154
309 -199 90 -33 259 -70 319 -70 121 0 236 84 269 195 38 133 -20 269 -143
334 -13 6 -70 20 -127 30 -57 11 -124 28 -148 39 -50 22 -118 78 -118 97 0 21
57 63 103 77 28 8 131 12 302 13 278 1 300 4 437 59 202 82 354 245 402 432
19 72 21 191 5 266 -44 208 -212 392 -449 491 -99 41 -175 61 -320 82 -150 22
-226 50 -282 103 -35 33 -35 56 0 80 60 42 95 47 367 48 281 1 312 5 462 67
112 46 247 154 296 235 l17 30 -45 18 c-66 25 -143 15 -233 -30 -166 -84 -230
-96 -508 -96 -221 0 -273 -9 -354 -60 -97 -62 -190 -186 -190 -255 0 -74 106
-228 203 -293 61 -41 115 -60 251 -88 214 -43 305 -76 406 -144 62 -43 99 -79
129 -130 19 -31 21 -51 21 -175 0 -136 -1 -141 -29 -190 -51 -89 -125 -143
-255 -188 -54 -18 -89 -21 -291 -24 -315 -5 -379 -23 -492 -141 -79 -83 -117
-152 -110 -199 18 -106 141 -260 251 -312 33 -16 82 -35 108 -41 56 -14 69
-28 61 -59 -6 -22 -8 -23 -90 -17 -197 15 -408 135 -471 267 -19 40 -22 62
-22 183 0 154 6 172 86 240 131 110 267 148 534 147 200 0 283 10 349 44 106
54 211 200 211 293 0 54 -46 135 -119 210 -86 89 -184 137 -316 157 -16 3 -41
7 -55 10 -14 2 -41 7 -60 10 -128 20 -287 94 -363 168 -88 86 -97 111 -97 280
0 142 0 144 29 183 38 53 82 89 152 124 32 17 69 41 82 54 22 22 43 30 132 53
11 3 124 9 250 13 287 8 313 16 421 124 114 116 130 175 68 267 -66 99 -125
143 -304 224 -110 50 -124 62 -183 147 -18 26 -47 66 -65 88 l-34 40 31 29
c74 69 160 84 316 53 235 -47 428 -151 541 -291 54 -68 118 -197 133 -269 25
-121 8 -259 -45 -363 -14 -28 -24 -52 -22 -53 106 -82 405 -250 578 -323 248
-106 440 -152 661 -160 179 -6 265 7 411 61 392 147 825 627 1032 1144 122
304 171 562 170 902 0 238 -14 358 -65 569 -160 655 -601 1221 -1199 1540
-363 193 -761 286 -1195 280 -153 -2 -175 0 -225 19 -43 17 -77 21 -160 22
-114 0 -293 20 -405 44 -570 124 -983 475 -1285 1091 -49 99 -112 243 -140
320 -72 199 -89 232 -138 275 -74 66 -184 87 -278 54z m135 -358 c12 -13 55
-99 95 -192 121 -281 199 -425 341 -635 41 -61 75 -115 75 -120 0 -15 -40 14
-46 33 -3 10 -10 18 -15 18 -5 0 -13 8 -16 18 -4 9 -15 26 -26 37 -10 11 -44
57 -75 103 -71 106 -230 260 -306 297 -56 27 -57 27 -100 11 -51 -20 -88 -46
-164 -118 -70 -66 -126 -130 -161 -183 -14 -22 -29 -41 -33 -43 -5 -2 -8 -8
-8 -13 0 -14 -83 -131 -97 -136 -7 -3 -13 -10 -13 -17 0 -6 -23 -35 -50 -65
-28 -30 -50 -51 -50 -47 0 9 31 57 47 74 7 7 13 16 13 20 0 4 14 22 30 41 17
18 30 37 30 42 0 4 15 30 32 56 82 121 274 508 358 723 44 111 93 145 139 96z
m541 -976 c9 -16 8 -18 -5 -14 -8 4 -15 12 -15 20 0 20 7 17 20 -6z m-1615
-1634 c79 -22 122 -44 166 -83 78 -70 79 -76 79 -388 0 -270 -1 -277 -26 -355
-14 -43 -36 -88 -49 -100 l-23 -22 -11 44 c-5 24 -17 72 -26 108 -9 36 -36
107 -61 158 -38 79 -60 108 -137 186 -100 101 -169 142 -287 172 -83 21 -212
15 -294 -14 -144 -52 -299 -195 -377 -349 l-44 -88 -3 -158 c-3 -155 -3 -161
24 -225 85 -203 231 -353 404 -417 62 -23 91 -27 170 -27 160 0 273 50 405
178 78 76 82 56 12 -68 -242 -428 -719 -919 -1191 -1227 -86 -56 -141 -77
-178 -67 -12 3 -63 38 -113 77 -165 132 -316 185 -495 176 -231 -12 -431 -134
-604 -370 -69 -93 -95 -109 -132 -81 -14 10 -37 39 -50 64 -23 43 -24 52 -24
265 0 191 3 230 20 295 87 316 288 684 563 1025 523 651 1254 1157 1851 1281
133 27 350 32 431 10z m2477 -6 c316 -61 653 -218 1007 -470 211 -149 411
-324 411 -359 0 -9 -3 -12 -8 -6 -4 6 -25 10 -47 11 -22 0 -67 4 -100 8 -69 8
-171 -5 -254 -34 -135 -48 -290 -192 -359 -333 -56 -115 -66 -167 -59 -308 4
-102 9 -125 37 -190 46 -106 93 -173 180 -260 124 -124 264 -178 428 -166 232
16 434 189 533 457 20 56 24 89 29 237 3 94 9 175 13 180 5 4 22 -8 38 -27
245 -294 452 -655 555 -970 27 -82 28 -94 32 -340 2 -163 0 -268 -7 -290 -14
-47 -72 -114 -127 -146 -146 -86 -386 -96 -656 -29 -147 37 -286 91 -473 185
-150 75 -171 89 -179 115 -4 17 -13 39 -18 49 -6 11 -14 83 -18 160 -4 92 -13
158 -24 191 -116 329 -373 556 -736 652 -71 19 -131 26 -239 30 l-144 6 -38
34 c-94 85 -317 495 -396 727 l-48 141 -3 268 -3 267 28 51 c43 79 120 135
225 163 82 22 296 20 420 -4z m-2819 -510 c107 -40 195 -129 240 -244 16 -38
21 -75 21 -146 1 -88 -2 -101 -33 -167 -80 -171 -247 -263 -438 -241 -175 20
-331 176 -351 351 -25 217 98 402 308 463 62 19 182 11 253 -16z m4143 -547
c322 -108 391 -530 121 -730 -252 -185 -606 -40 -660 270 -32 191 87 390 276
458 67 24 195 25 263 2z m-5664 -1669 c133 -39 272 -152 327 -267 49 -103 49
-102 -8 -132 -56 -28 -101 -87 -101 -130 0 -14 -7 -28 -15 -31 -8 -4 -15 -18
-15 -34 0 -15 -9 -39 -20 -53 -11 -14 -20 -32 -20 -41 0 -8 -25 -40 -55 -70
-44 -45 -67 -59 -121 -76 -120 -37 -257 -21 -350 42 -23 15 -65 55 -95 89 -61
70 -112 98 -180 99 -40 0 -48 3 -53 23 -10 38 -6 109 9 174 53 225 236 391
470 427 49 7 170 -4 227 -20z M5080 5314 c-199 -54 -332 -260 -299 -466 22
-135 110 -252 236 -310 87 -41 210 -50 294 -23 246 79 366 353 255 579 -88
180 -292 272 -486 220z m213 -309 c25 -16 27 -22 27 -89 0 -43 -5 -78 -12 -88
-28 -33 -63 -48 -116 -48 -98 0 -152 48 -152 136 0 59 20 87 75 104 45 14 147
5 178 -15z M3664 3960 c-116 -25 -155 -42 -206 -88 -119 -107 -118 -297 2
-405 81 -74 152 -88 287 -58 117 26 204 27 261 1 56 -25 57 -55 2 -110 -51
-51 -116 -83 -263 -131 -334 -108 -556 -313 -622 -574 -76 -300 110 -610 427
-710 173 -55 351 -55 571 0 54 13 125 27 156 31 71 8 163 -10 187 -37 17 -19
17 -21 -1 -55 -34 -63 -120 -113 -280 -163 -329 -101 -548 -294 -626 -551 -27
-88 -31 -214 -10 -300 54 -219 236 -392 481 -454 149 -38 375 -28 544 24 88
28 154 90 181 169 25 75 17 174 -19 235 -69 118 -191 160 -348 120 -93 -24
-215 -23 -259 2 -47 27 -48 54 -5 102 46 51 127 93 253 131 404 124 652 399
653 721 0 159 -54 286 -174 406 -65 65 -98 89 -166 122 -137 66 -191 77 -375
76 -146 0 -172 -3 -291 -32 -157 -38 -256 -42 -321 -12 -53 24 -55 43 -9 96
45 53 110 87 267 139 214 72 358 159 472 286 60 66 126 182 151 267 94 322
-108 652 -459 748 -96 27 -346 29 -461 4z m529 -322 c31 -17 75 -51 98 -75
l41 -44 -4 -157 c-3 -145 -5 -160 -27 -197 -60 -100 -182 -186 -298 -211 -40
-8 -25 17 66 111 97 100 171 224 171 287 0 51 -48 133 -132 223 -43 46 -78 88
-78 93 0 30 76 15 163 -30z m-226 -690 c-3 -8 -6 -5 -6 6 -1 11 2 17 5 13 3
-3 4 -12 1 -19z m-207 -85 c0 -9 -3 -13 -7 -10 -10 11 -186 -172 -229 -238
-34 -53 -39 -69 -42 -132 -4 -71 -4 -73 41 -141 25 -37 71 -91 101 -120 54
-49 70 -81 44 -83 -98 -8 -242 72 -282 155 -21 45 -23 280 -2 329 33 80 214
217 319 243 29 7 53 13 55 13 1 1 2 -6 2 -16z m828 -723 c79 -37 126 -73 153
-116 19 -32 21 -46 17 -177 -4 -153 -9 -171 -70 -249 -59 -76 -278 -190 -278
-146 0 7 41 55 90 106 104 108 160 207 160 283 0 61 -47 140 -137 233 -40 41
-73 80 -73 85 0 21 76 11 138 -19z m-891 -2 c-3 -8 -6 -5 -6 6 -1 11 2 17 5
13 3 -3 4 -12 1 -19z m700 -700 c-3 -8 -6 -5 -6 6 -1 11 2 17 5 13 3 -3 4 -12
1 -19z m-210 -90 c-3 -8 -6 -5 -6 6 -1 11 2 17 5 13 3 -3 4 -12 1 -19z m-17
-3 c0 -8 -4 -15 -8 -15 -8 0 -106 -97 -167 -165 -19 -22 -49 -67 -65 -99 -61
-120 -30 -208 123 -357 68 -67 62 -95 -19 -80 -47 9 -130 50 -172 86 -57 48
-72 96 -72 236 0 119 1 126 30 175 16 29 53 72 82 97 111 94 268 166 268 122z
m-53 -717 c-3 -8 -6 -5 -6 6 -1 11 2 17 5 13 3 -3 4 -12 1 -19z M8590 3379
c-190 -21 -368 -162 -445 -351 -27 -67 -29 -83 -30 -198 0 -116 2 -130 30
-197 72 -175 221 -304 393 -344 26 -6 86 -11 133 -11 100 0 209 32 292 86 72
45 160 143 196 218 108 220 67 464 -108 638 -129 129 -278 180 -461 159z m243
-303 c29 -14 68 -41 87 -61 l35 -36 3 -129 c3 -119 2 -133 -20 -176 -45 -92
-144 -144 -272 -144 -132 0 -229 46 -286 137 -29 45 -30 51 -30 169 l0 121 39
44 c97 110 302 145 444 75z M920 3094 c-118 -32 -212 -110 -268 -222 -36 -73
-37 -80 -37 -181 0 -98 2 -111 32 -173 135 -286 524 -326 710 -74 123 167 107
394 -39 539 -107 108 -256 149 -398 111z m203 -312 c28 -15 32 -24 35 -64 7
-112 -32 -158 -137 -158 -100 0 -153 52 -149 144 3 40 8 53 29 68 55 41 162
46 222 10z M2120 2251 c-192 -61 -341 -217 -385 -403 -67 -287 105 -581 390
-664 85 -25 230 -22 316 5 243 77 407 323 386 577 -20 231 -189 430 -414 489
-78 20 -224 19 -293 -4z m323 -286 c32 -16 74 -46 93 -67 l34 -38 0 -130 c0
-109 -3 -137 -19 -168 -103 -199 -472 -192 -570 12 -17 35 -21 62 -21 153 0
106 1 112 29 150 32 44 76 75 149 104 38 15 67 19 147 16 87 -3 108 -7 158
-32z M7315 1985 c-187 -48 -315 -211 -315 -405 0 -199 132 -362 328 -406 217
-48 432 87 488 306 76 298 -203 579 -501 505z m197 -311 c27 -14 28 -17 28
-94 0 -78 0 -79 -33 -104 -65 -49 -206 -26 -235 39 -19 42 -15 119 7 139 49
44 167 54 233 20z"/>
</g>
</svg>
