<?xml version="1.0" standalone="no"?>
<!DOCTYPE svg PUBLIC "-//W3C//DTD SVG 20010904//EN"
 "http://www.w3.org/TR/2001/REC-SVG-20010904/DTD/svg10.dtd">
<svg version="1.0" xmlns="http://www.w3.org/2000/svg"
 width="2048.000000pt" height="2048.000000pt" viewBox="0 0 2048.000000 2048.000000"
 preserveAspectRatio="xMidYMid meet">
<metadata>
Created by potrace 1.13, written by Peter Selinger 2001-2015
</metadata>
<g transform="translate(0.000000,2048.000000) scale(0.192120,-0.192120)"
fill="#000000" stroke="none">
<path d="M4195 9856 c-91 -42 -148 -128 -148 -226 0 -39 142 -631 503 -2095
277 -1122 505 -2058 507 -2080 3 -28 -152 -675 -532 -2215 -575 -2330 -552
-2227 -510 -2315 87 -181 349 -194 449 -22 18 30 130 472 409 1607 212 861
400 1629 418 1708 18 78 36 142 39 142 3 0 21 -64 39 -142 18 -79 206 -847
418 -1708 283 -1151 391 -1576 409 -1608 100 -172 363 -157 450 26 40 85 61
-9 -511 2312 -378 1536 -535 2187 -532 2215 2 22 230 958 507 2080 361 1462
503 2056 503 2095 -1 254 -338 343 -474 124 -15 -26 -615 -2431 -765 -3071
-21 -90 -41 -163 -44 -163 -3 0 -23 73 -44 163 -123 521 -747 3041 -760 3064
-59 113 -213 164 -331 109z m966 -3362 c50 -71 129 -134 169 -134 57 0 141 83
221 220 l44 75 3 -120 3 -120 -107 -430 c-139 -556 -138 -549 -64 -861 28
-120 74 -308 101 -417 48 -191 49 -203 47 -320 l-3 -122 -25 40 c-56 92 -172
195 -219 195 -54 0 -163 -96 -227 -201 -38 -62 -39 -63 -42 -34 -2 17 -2 77 1
135 3 91 18 162 112 540 98 398 107 441 102 505 -3 40 -52 258 -116 515 l-111
445 0 135 1 135 33 -60 c19 -33 53 -87 77 -121z M3905 9178 c-22 -6 -717 -178
-1545 -383 -828 -205 -1536 -385 -1573 -399 -351 -133 -473 -346 -412 -721 16
-99 579 -2378 621 -2515 104 -340 279 -490 568 -490 140 0 134 -1 1551 350
336 83 862 214 1170 290 308 76 571 143 584 147 l24 10 -31 22 c-17 12 -55 27
-84 33 -55 11 -70 8 -738 -137 -138 -31 -915 -219 -1620 -394 -638 -158 -703
-171 -850 -172 -140 0 -219 24 -289 87 -91 82 -146 184 -200 369 -11 39 -146
578 -301 1200 l-280 1129 0 199 c0 236 -1 232 126 368 68 73 231 131 668 240
175 43 324 83 330 88 6 5 83 26 171 46 88 21 529 130 980 242 451 112 878 218
950 235 144 36 203 68 242 131 l23 37 -22 -1 c-13 -1 -41 -6 -63 -11z M6680
9182 c0 -22 67 -91 105 -108 65 -28 46 -23 1200 -310 610 -151 1112 -278 1115
-282 3 -4 113 -34 245 -66 583 -143 696 -193 784 -345 l41 -69 0 -190 0 -189
-59 -249 c-96 -403 -428 -1732 -454 -1819 -132 -438 -170 -528 -266 -625 -81
-82 -126 -100 -268 -107 -161 -9 -231 5 -1028 204 -475 118 -1436 351 -1480
358 -22 4 -83 18 -135 30 -188 46 -486 103 -541 104 -31 0 -71 -4 -89 -9 -34
-10 -84 -39 -78 -45 2 -3 337 -87 743 -189 1663 -414 2325 -576 2415 -591 395
-64 611 77 735 478 41 134 604 2414 620 2512 61 375 -61 589 -412 721 -37 14
-266 75 -508 136 -885 220 -2611 647 -2647 653 -24 5 -38 3 -38 -3z M2630
7805 c-345 -74 -611 -324 -701 -660 -28 -106 -31 -317 -6 -419 70 -279 247
-498 500 -616 139 -65 189 -75 382 -75 164 1 173 2 265 33 244 82 427 242 536
467 66 136 86 225 87 380 1 160 -23 268 -88 400 -118 241 -325 410 -590 481
-83 22 -301 27 -385 9z m350 -292 c179 -44 332 -158 408 -305 27 -52 27 -56
30 -262 4 -241 -2 -268 -73 -377 -81 -123 -210 -213 -365 -255 -101 -28 -284
-25 -380 5 -212 65 -369 210 -426 391 -10 32 -14 99 -14 226 l0 182 40 80 c87
173 281 302 501 332 80 11 194 4 279 -17z M7690 7805 c-214 -45 -417 -171
-539 -332 -70 -92 -136 -229 -163 -338 -30 -124 -30 -315 1 -430 23 -88 83
-221 130 -289 112 -162 282 -287 481 -352 80 -27 95 -28 260 -28 165 0 180 1
260 28 320 107 536 338 617 662 25 102 22 313 -6 419 -86 322 -329 562 -656
651 -83 22 -300 28 -385 9z m350 -292 c180 -44 339 -164 412 -311 21 -44 23
-61 26 -256 4 -239 -2 -268 -70 -374 -80 -123 -212 -217 -368 -259 -88 -24
-271 -24 -360 0 -165 44 -311 147 -386 273 -70 118 -76 148 -72 361 l3 188 35
65 c44 83 156 196 240 243 164 90 355 115 540 70z"/>
</g>
</svg>
