<?xml version="1.0" standalone="no"?>
<!DOCTYPE svg PUBLIC "-//W3C//DTD SVG 20010904//EN"
 "http://www.w3.org/TR/2001/REC-SVG-20010904/DTD/svg10.dtd">
<svg version="1.0" xmlns="http://www.w3.org/2000/svg"
 width="2048.000000pt" height="2048.000000pt" viewBox="0 0 2048.000000 2048.000000"
 preserveAspectRatio="xMidYMid meet">
<metadata>
Created by potrace 1.13, written by Peter Selinger 2001-2015
</metadata>
<g transform="translate(0.000000,2048.000000) scale(0.192120,-0.192120)"
fill="#000000" stroke="none">
<path d="M7740 10199 c-121 -24 -238 -117 -297 -237 -37 -74 -38 -79 -38 -186
0 -104 2 -115 32 -178 17 -37 50 -87 72 -111 l41 -44 0 -120 0 -120 -67 -7
c-38 -3 -120 -16 -183 -28 l-115 -21 -156 157 -156 156 -5 77 c-6 101 -46 189
-122 265 -215 215 -567 150 -699 -129 -30 -64 -32 -75 -32 -178 0 -103 2 -114
32 -178 40 -85 126 -173 205 -210 62 -29 178 -53 205 -43 12 5 39 -16 98 -74
l82 -81 -71 -68 c-39 -37 -107 -97 -151 -133 -450 -371 -738 -912 -795 -1493
-7 -73 -10 -430 -8 -1055 l3 -945 28 -57 c83 -168 297 -227 671 -183 71 8 131
17 133 19 2 2 -11 28 -30 57 -168 264 -233 565 -253 1180 l-7 206 154 11 c175
14 389 54 564 107 264 80 655 255 867 388 l87 55 108 -65 c436 -262 984 -450
1415 -484 l148 -12 0 -51 c-1 -115 -21 -419 -35 -526 -43 -317 -129 -570 -259
-764 -25 -38 -45 -70 -44 -71 7 -5 234 -46 313 -56 108 -14 270 -7 342 15 114
36 201 125 223 230 8 38 10 342 7 1047 -3 974 -4 996 -25 1109 -102 534 -346
963 -747 1313 -44 38 -117 106 -163 150 l-83 80 77 78 c62 62 82 77 99 73 34
-8 144 15 205 44 77 36 163 125 203 209 30 64 32 75 32 178 0 103 -2 114 -32
178 -106 223 -359 317 -577 214 -91 -43 -164 -114 -207 -203 -27 -54 -33 -81
-37 -149 l-4 -82 -154 -153 -153 -153 -83 16 c-115 24 -206 37 -250 37 l-38 0
0 121 0 122 41 44 c22 24 55 74 72 111 30 63 32 74 32 177 0 103 -2 114 -32
178 -89 187 -282 285 -483 246z m190 -311 l45 -23 3 -103 3 -103 -46 -96 -46
-97 3 -143 c2 -90 7 -146 14 -151 26 -17 34 -56 34 -167 0 -115 0 -117 -29
-146 -49 -49 -152 -39 -198 19 -9 10 -13 50 -13 111 0 84 3 102 28 151 15 30
30 57 35 58 4 2 7 61 7 130 l0 127 -52 105 c-52 104 -52 106 -53 200 l0 95 54
28 c71 35 147 37 211 5z m-1393 -278 c43 -19 79 -63 89 -110 3 -14 14 -42 25
-63 10 -22 19 -43 19 -49 0 -5 28 -51 63 -101 73 -107 211 -255 291 -312 62
-44 74 -66 56 -100 -15 -28 -50 -45 -95 -45 -71 0 -80 9 -185 190 -86 149
-219 258 -375 309 -69 23 -98 38 -122 65 -30 33 -33 41 -33 101 0 59 3 69 27
91 50 46 166 58 240 24z m2783 -2 l45 -23 3 -83 c3 -82 2 -84 -30 -116 -22
-22 -59 -41 -113 -59 -165 -55 -334 -210 -412 -377 -12 -25 -37 -62 -56 -82
-29 -32 -41 -38 -74 -38 -57 0 -98 17 -111 45 -16 35 -8 47 67 103 127 95 282
279 338 402 35 76 41 91 47 120 10 47 46 91 89 110 60 28 150 26 207 -2z
m-1743 -778 c80 -177 313 -220 450 -82 60 60 76 110 81 250 l4 124 45 -45 c59
-60 110 -74 185 -49 l54 18 -4 -78 c-6 -95 13 -152 70 -214 77 -84 209 -112
311 -66 28 12 81 52 121 92 40 38 75 70 78 70 4 0 9 -19 13 -42 10 -61 43
-115 79 -129 16 -7 57 -18 91 -24 l60 -11 3 -38 c3 -32 -2 -44 -29 -72 -91
-94 -380 -183 -1019 -312 l-335 -68 -165 33 c-909 181 -1220 286 -1220 412 0
20 4 41 8 46 4 6 37 16 74 22 36 6 78 19 92 29 29 22 56 81 56 124 0 17 3 30
7 30 3 0 39 -32 79 -70 40 -40 93 -80 121 -92 102 -46 234 -18 311 66 57 62
76 119 70 214 l-4 77 56 -18 c76 -25 123 -13 182 47 l43 43 6 -121 c4 -91 10
-132 26 -166z m-1087 -570 c198 -100 600 -210 1114 -304 237 -44 309 -38 803
70 381 83 564 137 755 225 83 38 88 39 121 26 70 -30 220 -232 311 -422 68
-140 91 -203 127 -344 l29 -114 0 -1057 c0 -1199 9 -1084 -89 -1085 l-56 0 -3
43 c-2 27 8 82 27 145 16 56 44 161 61 232 17 72 35 146 40 166 14 50 13 599
0 599 -5 0 -10 4 -10 10 0 28 -181 210 -237 239 -28 14 -106 31 -230 50 -385
61 -662 155 -1103 376 -198 100 -262 125 -314 125 -59 0 -137 -31 -347 -136
-443 -221 -711 -311 -1101 -368 -113 -17 -181 -32 -210 -47 -57 -29 -238 -211
-238 -239 0 -6 -4 -10 -10 -10 -6 0 -10 -117 -10 -332 0 -352 4 -394 65 -652
9 -37 15 -96 13 -129 -3 -69 -15 -79 -68 -57 -27 11 -29 16 -35 93 -3 45 -5
523 -3 1062 l4 980 31 110 c41 146 73 228 139 360 64 129 166 276 246 358 67
68 90 72 178 27z M2715 10033 c-207 -74 -386 -295 -530 -653 -109 -272 -192
-653 -211 -968 l-7 -112 -41 -10 c-132 -33 -367 -118 -477 -173 -169 -84 -284
-163 -405 -279 -243 -234 -377 -516 -423 -888 -7 -49 -11 -304 -11 -615 0
-583 1 -592 61 -706 63 -117 196 -233 364 -317 58 -29 276 -112 294 -112 4 0
-7 37 -25 83 -95 236 -130 501 -141 1071 -6 331 -6 339 13 333 10 -3 71 -24
134 -46 207 -71 512 -130 874 -167 206 -21 837 -30 1076 -15 462 29 904 106
1146 200 43 17 82 31 87 31 10 0 9 -301 -3 -530 -21 -396 -96 -735 -206 -927
-19 -33 -21 -43 -11 -43 33 0 260 85 362 135 226 112 367 266 404 443 14 69
15 1052 1 1177 -43 369 -180 657 -425 894 -220 211 -482 345 -882 451 l-43 11
0 48 c0 133 -44 442 -91 635 -126 522 -346 899 -595 1022 -65 32 -87 38 -157
41 -61 3 -95 -1 -132 -14z m203 -249 c83 -34 225 -212 308 -389 94 -198 171
-486 219 -816 28 -193 47 -241 109 -272 21 -11 60 -22 86 -25 l48 -4 7 -65
c14 -131 -21 -299 -84 -409 -60 -104 -183 -215 -307 -277 -118 -59 -328 -107
-473 -107 -97 0 -263 28 -358 60 -201 69 -366 203 -441 361 -59 125 -80 233
-67 363 l6 73 57 7 c66 8 115 41 136 91 8 18 26 114 41 212 77 521 221 907
414 1106 101 106 193 134 299 91z m-1154 -1882 c9 -11 41 -67 71 -126 92 -182
198 -310 337 -409 375 -268 978 -260 1337 18 134 103 227 225 322 419 29 59
59 111 67 114 39 14 283 -96 420 -190 197 -136 323 -299 399 -513 l28 -80 0
-655 c0 -360 -1 -466 -2 -236 -2 231 -7 422 -11 425 -4 4 -24 29 -44 56 -44
60 -118 133 -172 169 -57 38 -117 34 -336 -19 -466 -114 -846 -151 -1465 -142
-546 8 -828 41 -1257 148 -192 48 -258 50 -314 13 -80 -53 -224 -214 -224
-249 0 -8 -7 -15 -15 -15 -13 0 -15 30 -15 213 0 195 2 220 25 306 72 267 231
464 510 632 80 48 283 139 311 139 6 0 18 -8 28 -18z M1890 5833 c-119 -10
-377 -56 -412 -74 -47 -24 -67 -61 -47 -85 26 -32 75 -43 240 -54 301 -20 508
-55 635 -106 107 -43 166 -34 204 29 42 68 17 131 -75 192 -129 85 -307 117
-545 98z M3495 5830 c-83 -14 -153 -35 -208 -65 -134 -71 -176 -143 -127 -222
39 -65 96 -71 216 -25 128 49 367 86 696 108 141 9 200 44 164 99 -25 39 -62
50 -250 80 -185 29 -397 39 -491 25z M6890 5833 c-119 -10 -377 -56 -412 -74
-47 -24 -67 -61 -47 -85 26 -32 75 -43 240 -54 301 -20 508 -55 635 -106 107
-43 166 -34 204 29 42 68 17 131 -75 192 -129 85 -307 117 -545 98z M8495
5830 c-83 -14 -153 -35 -208 -65 -134 -71 -176 -143 -127 -222 39 -65 96 -71
216 -25 128 49 367 86 696 108 141 9 200 44 164 99 -25 39 -62 50 -250 80
-185 29 -397 39 -491 25z M2695 5109 c-156 -19 -275 -79 -275 -139 0 -67 116
-120 309 -142 252 -28 521 45 521 142 0 101 -284 172 -555 139z M7695 5109
c-156 -19 -275 -79 -275 -139 0 -67 116 -120 309 -142 252 -28 521 45 521 142
0 101 -284 172 -555 139z M4055 4913 c-172 -183 -433 -314 -740 -372 -171 -32
-274 -41 -490 -41 -429 0 -723 54 -980 179 -137 68 -223 129 -313 225 l-63 68
-74 -57 c-346 -265 -648 -840 -757 -1440 l-23 -130 0 -1030 0 -1030 32 -95
c36 -104 106 -226 179 -308 103 -116 267 -214 424 -252 84 -20 111 -20 1580
-20 1469 0 1496 0 1580 20 279 67 508 279 603 560 l32 95 0 1025 c0 1148 3
1088 -75 1396 -110 433 -334 851 -594 1110 -81 80 -193 168 -228 178 -7 2 -49
-34 -93 -81z m119 -208 c36 -15 165 -145 222 -225 162 -223 304 -529 379 -820
9 -35 21 -114 26 -175 5 -60 13 -157 19 -215 5 -58 9 -432 10 -832 0 -440 4
-728 9 -728 5 0 12 -64 14 -143 6 -162 15 -221 51 -326 l26 -74 -143 6 c-580
26 -1085 188 -1363 438 -87 77 -158 164 -201 245 l-38 73 47 45 c61 58 77 92
94 195 27 171 114 973 114 1055 0 80 -2 89 -42 167 -35 68 -40 84 -28 91 248
143 371 259 458 433 74 146 102 290 108 560 3 110 7 210 10 223 4 22 8 23 101
21 53 -1 111 -7 127 -14z m-2460 -67 c3 -18 7 -107 10 -198 9 -306 64 -495
191 -660 80 -104 156 -164 375 -299 13 -8 12 -14 -8 -48 -86 -144 -87 -166
-23 -728 76 -668 70 -639 153 -717 61 -56 61 -57 48 -89 -27 -65 -109 -177
-181 -248 -281 -277 -792 -450 -1407 -478 l-142 -6 35 104 c19 57 39 129 44
159 6 32 12 430 15 965 6 988 6 985 67 1240 78 331 289 757 469 948 63 66 86
75 212 76 45 0 83 3 86 6 3 3 16 5 28 5 18 0 24 -7 28 -32z m1971 -535 c-24
-61 -37 -68 -69 -37 -14 15 -26 34 -26 43 0 9 -14 49 -32 89 -25 56 -30 77
-22 90 6 9 44 29 85 43 l74 26 3 -106 c2 -78 -1 -117 -13 -148z m-1582 180 c5
-3 7 -19 4 -37 -7 -49 -55 -168 -76 -189 -18 -18 -19 -18 -41 13 -33 46 -50
113 -50 196 l0 72 77 -24 c42 -14 80 -27 86 -31z m1162 -52 c59 -27 103 -77
121 -139 15 -51 14 -68 -15 -325 -63 -555 -102 -892 -146 -1287 -25 -223 -50
-439 -55 -480 -6 -41 -31 -253 -55 -471 -46 -423 -54 -460 -113 -523 -84 -89
-260 -89 -344 0 -58 62 -65 96 -118 556 -27 238 -85 753 -130 1143 -45 391
-83 735 -86 765 -3 30 -11 107 -19 170 -45 362 -47 398 -31 453 10 35 28 64
53 89 70 68 64 67 503 67 361 1 398 -1 435 -18z m194 -2910 c58 -38 135 -85
171 -104 152 -83 422 -174 644 -217 122 -23 126 -24 126 -49 0 -12 -17 -26
-52 -42 -53 -23 -54 -23 -586 -27 -554 -4 -562 -3 -562 37 0 9 16 55 35 102
23 57 41 127 55 214 20 124 30 155 53 155 6 0 58 -31 116 -69z m-1103 -71 c22
-127 54 -237 80 -274 8 -11 14 -35 14 -53 0 -28 -4 -33 -33 -38 -19 -4 -263
-5 -543 -3 -508 4 -509 4 -561 27 -36 16 -53 30 -53 42 0 10 4 20 8 23 4 2 66
16 137 31 332 67 599 176 830 339 30 22 60 35 75 33 24 -2 26 -7 46 -127z
M4100 2458 c-119 -42 -228 -141 -295 -269 -33 -63 -35 -72 -35 -165 0 -93 2
-101 40 -180 51 -106 140 -198 237 -246 64 -31 74 -33 173 -33 102 0 109 1
182 38 97 47 183 131 226 217 31 60 32 69 32 182 0 116 -1 120 -35 188 -52
104 -155 208 -247 250 -97 45 -185 50 -278 18z m208 -200 c55 -14 133 -83 163
-146 34 -69 32 -169 -4 -238 -53 -104 -156 -161 -271 -152 -77 7 -132 34 -184
93 -111 127 -89 312 50 408 77 54 137 63 246 35z M1365 3300 c-126 -27 -274
-149 -341 -282 -33 -65 -34 -72 -34 -182 0 -114 8 -149 47 -221 9 -16 22 -35
28 -41 6 -7 23 -25 37 -42 39 -47 143 -119 206 -142 46 -18 74 -21 147 -18 77
3 100 8 158 35 92 44 191 143 238 238 33 67 34 74 34 185 0 104 -3 120 -27
173 -35 75 -108 169 -169 217 -87 69 -222 102 -324 80z m196 -220 c60 -30 96
-66 127 -125 22 -41 26 -63 26 -125 0 -116 -49 -197 -154 -251 -61 -32 -176
-33 -236 -1 -65 33 -101 69 -128 125 -50 101 -41 205 23 294 32 44 101 90 154
104 51 13 140 3 188 -21z M9055 4912 c-175 -183 -435 -314 -740 -371 -171 -32
-274 -41 -490 -41 -429 0 -723 54 -980 179 -135 66 -221 128 -313 225 l-63 66
-57 -42 c-80 -58 -207 -188 -282 -287 -240 -318 -412 -726 -492 -1166 l-23
-130 0 -1030 0 -1030 31 -92 c98 -288 322 -496 606 -563 85 -20 104 -20 1610
-17 l1523 2 70 24 c272 90 467 284 559 554 l31 92 0 1030 c0 1027 0 1030 -23
1155 -91 504 -293 947 -581 1277 -74 86 -200 193 -268 229 l-38 20 -80 -84z
m143 -236 c108 -55 312 -348 405 -579 55 -137 119 -344 152 -494 58 -256 56
-227 65 -1243 5 -612 11 -968 19 -1010 6 -36 15 -91 19 -122 l9 -58 -51 0
c-152 0 -505 49 -681 95 -545 142 -899 421 -1001 790 -9 33 -19 116 -21 186
l-5 126 75 6 c46 3 90 13 115 26 23 12 45 21 51 21 9 0 304 188 504 322 65 44
124 77 130 75 14 -5 457 290 457 304 0 5 31 43 69 83 81 88 111 144 111 209 0
158 -272 486 -495 595 -58 29 -84 36 -153 40 -79 4 -83 6 -78 26 22 92 39 240
44 396 l7 184 35 7 c19 4 54 10 77 14 24 3 53 10 65 15 13 5 24 9 26 9 1 1 24
-10 50 -23z m-2663 -51 c17 -4 62 -9 100 -12 39 -3 73 -10 76 -15 3 -5 9 -80
12 -166 5 -135 22 -274 44 -360 5 -22 4 -23 -63 -21 -97 2 -141 -13 -246 -84
-154 -103 -312 -278 -388 -427 -28 -54 -34 -76 -34 -130 0 -77 19 -112 109
-205 32 -33 63 -69 69 -80 14 -25 459 -325 466 -314 3 5 91 -48 195 -118 200
-133 340 -223 440 -281 53 -31 70 -36 149 -40 l88 -5 -5 -126 c-5 -141 -21
-211 -72 -318 -121 -258 -355 -450 -710 -583 -236 -89 -539 -148 -852 -166
l-121 -7 10 44 c5 24 15 69 20 99 7 34 14 371 19 870 4 448 12 928 17 1065 9
267 23 350 97 583 76 240 271 596 413 752 60 67 64 68 167 45z m2228 -284 c-3
-61 -15 -69 -58 -40 -19 13 -35 29 -35 36 0 15 61 54 80 50 11 -2 14 -14 13
-46z m-1828 -12 c9 -26 -2 -39 -31 -39 -21 0 -24 4 -24 40 0 39 1 39 25 28 13
-6 27 -19 30 -29z m1215 -129 c220 -28 454 -95 643 -183 191 -89 411 -253 540
-403 63 -73 171 -223 165 -229 -25 -21 -1661 -1105 -1668 -1105 -5 0 -384 249
-840 554 l-831 553 50 74 c196 292 507 519 883 644 179 59 300 83 563 109 69
7 406 -3 495 -14z m-412 -2110 c79 -25 104 -25 180 -1 l60 18 12 -26 c7 -14
23 -57 37 -96 68 -187 158 -332 287 -460 238 -237 619 -407 1064 -475 72 -11
138 -23 146 -26 47 -18 -17 -82 -112 -114 -117 -38 -261 -41 -1687 -38 l-1360
4 -78 22 c-95 26 -167 72 -167 106 0 19 7 21 164 46 219 36 381 79 546 147
415 171 653 404 785 768 44 119 54 145 57 145 2 0 32 -9 66 -20z M9128 2456
c-26 -7 -66 -25 -90 -40 -74 -48 -173 -161 -215 -245 -37 -73 -38 -80 -38
-176 1 -96 2 -103 39 -175 48 -93 129 -173 222 -221 65 -32 73 -34 173 -34 93
0 113 3 161 26 115 55 217 155 261 257 15 34 19 68 19 151 0 101 -2 112 -31
170 -17 34 -57 90 -88 123 -139 151 -270 203 -413 164z m180 -198 c55 -14 133
-83 163 -146 34 -69 32 -169 -4 -238 -53 -104 -156 -161 -271 -152 -77 7 -132
34 -184 93 -111 127 -89 312 50 408 77 54 137 63 246 35z M6375 2464 c-123
-31 -289 -173 -354 -302 -29 -57 -31 -69 -31 -165 0 -119 10 -151 72 -234 51
-67 121 -124 207 -166 61 -30 72 -32 171 -32 100 0 109 2 175 34 87 43 198
151 238 232 24 51 27 66 27 164 0 100 -2 112 -32 173 -41 86 -178 227 -259
266 -55 27 -166 42 -214 30z m172 -210 c126 -45 202 -210 159 -342 -21 -61
-84 -135 -139 -164 -94 -47 -225 -31 -306 38 -64 55 -95 124 -95 209 1 84 17
128 74 188 80 88 189 113 307 71z"/>
</g>
</svg>
