<?xml version="1.0" standalone="no"?>
<!DOCTYPE svg PUBLIC "-//W3C//DTD SVG 20010904//EN"
 "http://www.w3.org/TR/2001/REC-SVG-20010904/DTD/svg10.dtd">
<svg version="1.0" xmlns="http://www.w3.org/2000/svg"
 width="2048.000000pt" height="2048.000000pt" viewBox="0 0 2048.000000 2048.000000"
 preserveAspectRatio="xMidYMid meet">
<metadata>
Created by potrace 1.13, written by Peter Selinger 2001-2015
</metadata>
<g transform="translate(0.000000,2048.000000) scale(0.192120,-0.192120)"
fill="#000000" stroke="none">
<path d="M3125 10281 c-37 -22 -188 -183 -284 -303 -266 -332 -396 -666 -362
-931 28 -214 140 -377 328 -475 133 -69 212 -87 393 -87 146 0 212 9 295 41
14 6 15 -80 13 -892 -3 -894 -3 -899 -24 -945 -31 -67 -87 -124 -152 -156 -47
-23 -70 -28 -132 -28 -125 1 -214 56 -270 167 l-30 61 0 890 c0 707 -3 888
-12 884 -475 -191 -849 -417 -1121 -677 -320 -306 -477 -603 -512 -970 -13
-137 31 -389 90 -519 24 -51 25 -63 25 -241 0 -462 66 -824 200 -1105 80 -166
175 -277 290 -335 80 -40 120 -50 265 -60 195 -13 305 -53 432 -157 48 -39
125 -132 235 -283 94 -130 169 -202 251 -241 109 -50 275 -57 393 -16 22 8
114 53 204 99 210 108 288 130 471 136 251 8 353 -38 623 -283 148 -133 221
-188 310 -231 106 -51 198 -68 330 -61 222 12 358 74 559 253 315 282 397 324
626 324 190 0 314 -35 505 -143 197 -111 267 -131 381 -107 150 30 226 96 355
305 109 177 187 258 302 314 119 59 215 80 403 91 88 5 183 16 210 24 197 60
352 250 453 556 85 256 113 448 119 820 5 285 5 285 33 355 129 318 111 665
-52 990 -189 375 -597 735 -1132 1000 -124 61 -359 165 -372 165 -2 0 -4 -400
-4 -888 l0 -889 -30 -61 c-56 -112 -145 -167 -270 -167 -124 0 -222 62 -277
173 l-28 57 -3 898 c-1 493 -1 897 0 897 2 0 35 -9 73 -21 88 -26 272 -36 374
-20 171 27 298 88 406 196 130 130 179 255 178 455 -2 302 -165 625 -505 1000
-124 137 -155 160 -215 160 -63 0 -89 -17 -193 -127 -477 -504 -646 -985 -468
-1337 22 -44 26 -57 14 -53 -29 11 -279 57 -421 77 -130 18 -332 39 -520 56
l-80 7 -68 92 c-96 130 -288 338 -330 358 -45 22 -89 22 -134 0 -42 -20 -235
-229 -330 -358 l-68 -93 -75 -6 c-367 -33 -575 -59 -795 -102 -71 -14 -138
-27 -148 -30 -16 -5 -14 3 11 53 156 307 46 715 -311 1158 -90 112 -244 273
-278 290 -39 21 -108 19 -144 -4z m185 -347 c142 -150 299 -395 349 -543 7
-21 11 -117 11 -256 0 -186 2 -225 15 -235 8 -7 15 -22 15 -34 1 -28 17 -48
68 -80 45 -28 45 -28 8 -79 -26 -36 -129 -114 -181 -138 l-39 -18 -26 46 c-46
84 -56 88 -258 89 -233 1 -286 15 -409 105 -58 44 -96 87 -130 151 -21 40 -23
54 -23 215 0 157 2 178 24 235 43 116 107 228 233 407 57 82 184 208 213 213
37 6 69 -13 130 -78z m4246 13 c118 -122 253 -318 333 -486 l36 -76 0 -220 0
-221 -42 -64 c-65 -98 -144 -156 -250 -181 -27 -7 -129 -12 -235 -13 -213 -1
-222 -4 -268 -89 l-26 -46 -39 18 c-60 27 -158 105 -190 151 -15 22 -26 42
-24 43 2 2 23 15 45 29 66 42 74 79 74 335 l0 213 33 83 c67 165 213 383 343
515 64 64 76 72 110 72 34 0 45 -7 100 -63z m-2065 -962 c105 -100 179 -163
189 -162 3 0 25 -10 50 -23 33 -17 60 -23 102 -22 l57 2 55 -113 c172 -350
148 -686 -63 -896 -37 -37 -94 -81 -130 -100 -62 -33 -65 -33 -75 -15 -25 44
-84 94 -112 95 -34 1 -438 1 -473 0 -23 -1 -85 -56 -107 -95 -10 -18 -13 -18
-70 13 -329 175 -407 605 -187 1024 l47 88 47 -6 c38 -5 56 -2 98 19 28 15 52
25 54 24 5 -5 65 48 182 159 120 115 154 135 199 120 15 -5 77 -56 137 -112z
m-1021 -345 c0 -17 6 -20 48 -17 l47 2 -3 -65 c-1 -36 -5 -174 -8 -308 -6
-269 -4 -281 68 -410 38 -70 54 -90 129 -169 l59 -63 0 -735 c0 -442 4 -735 9
-735 5 0 12 -60 14 -132 3 -73 9 -158 15 -189 32 -181 222 -359 418 -391 230
-39 505 155 558 392 6 27 11 387 13 917 l3 872 61 63 c87 90 114 126 144 193
63 140 65 152 65 369 0 145 -4 216 -15 256 -8 30 -15 75 -15 99 l0 44 45 -5
c40 -5 45 -3 45 14 0 23 -17 24 275 -17 94 -13 213 -27 265 -30 139 -9 155
-13 194 -47 l36 -32 0 -864 c0 -580 4 -878 11 -906 38 -150 75 -213 174 -304
161 -147 341 -184 514 -106 122 55 257 201 292 314 38 126 39 150 39 817 0
564 2 653 15 653 7 0 18 7 23 16 8 14 16 13 68 -12 150 -70 398 -229 539 -344
234 -191 436 -454 506 -659 17 -48 19 -86 19 -325 0 -236 -3 -282 -20 -354
-11 -46 -20 -113 -20 -149 0 -60 3 -70 40 -125 28 -40 39 -65 35 -79 -10 -32
-117 -169 -200 -257 -308 -327 -818 -628 -1409 -831 -1570 -540 -3616 -451
-5001 218 -471 228 -853 527 -1053 825 l-39 59 41 66 c37 59 41 71 40 126 -1
33 -13 104 -28 158 -25 94 -26 112 -26 339 0 231 1 242 26 316 73 219 264 471
499 661 142 114 239 179 420 283 133 76 187 98 193 79 2 -6 12 -11 23 -11 18
0 19 -19 22 -677 3 -639 6 -719 27 -768 4 -11 14 -35 21 -54 21 -57 94 -146
167 -205 160 -129 322 -155 486 -78 166 79 267 211 315 415 8 33 11 308 11
901 0 746 2 856 15 870 8 8 15 19 15 23 0 5 17 17 38 27 27 14 68 19 157 22
66 2 208 17 315 33 240 36 220 35 220 11z m638 -1047 c45 -14 92 -18 222 -18
158 0 204 6 292 40 11 4 12 -163 10 -887 -3 -1024 3 -955 -91 -1048 -41 -41
-70 -60 -110 -73 -146 -47 -291 9 -369 141 -32 55 -30 1 -34 1160 -3 577 -1
711 10 707 7 -2 38 -13 70 -22z m-3334 -2068 c620 -540 1666 -918 2849 -1030
632 -59 1351 -33 1962 71 455 78 935 212 1287 360 440 185 713 349 1053 633
27 22 54 41 58 41 5 0 7 -66 5 -147 -5 -132 -8 -158 -36 -238 -66 -195 -173
-325 -295 -360 -29 -8 -108 -19 -177 -25 -400 -35 -620 -168 -850 -510 -102
-152 -168 -196 -283 -188 -55 3 -87 15 -233 85 -247 119 -373 153 -554 153
-234 -1 -384 -69 -660 -301 -262 -220 -342 -260 -536 -267 -204 -8 -285 31
-554 263 -266 230 -399 292 -640 302 -203 8 -361 -33 -620 -162 -146 -73 -200
-89 -295 -88 -143 0 -191 32 -359 242 -59 75 -127 156 -150 180 -75 80 -190
164 -281 206 -104 49 -180 69 -320 85 -206 23 -282 69 -373 225 -23 39 -56
113 -73 165 -29 86 -33 110 -37 243 l-4 149 22 -12 c12 -7 55 -40 94 -75z
M1225 5177 c-138 -106 -370 -334 -465 -455 -211 -271 -346 -552 -401 -835 -22
-111 -23 -136 -23 -522 0 -440 0 -439 22 -552 165 -839 993 -1584 2270 -2042
1479 -531 3390 -585 4962 -141 1268 359 2200 996 2566 1755 119 248 167 450
168 705 1 680 0 684 -23 800 -86 417 -325 809 -698 1146 -131 118 -276 229
-281 215 -11 -32 66 -187 128 -261 21 -25 92 -99 157 -166 195 -199 303 -346
407 -556 117 -234 156 -390 156 -623 0 -216 21 -305 88 -377 25 -27 25 -29 12
-85 -35 -160 -135 -379 -255 -558 -588 -882 -1957 -1542 -3615 -1744 -333 -41
-522 -53 -938 -58 -439 -6 -680 3 -1022 38 -1756 177 -3208 859 -3814 1792
-106 162 -203 379 -236 529 l-13 57 41 45 c23 25 44 57 47 73 4 15 11 41 16
57 5 16 12 111 15 210 8 250 37 384 124 573 99 214 244 420 447 633 142 149
186 206 231 295 27 56 55 135 49 142 -2 1 -57 -39 -122 -90z M1381 4657 l-1
-338 25 25 25 25 -1 198 c0 167 -4 216 -24 313 l-23 115 -1 -338z M9253 4867
c-19 -93 -23 -145 -23 -305 0 -192 0 -193 25 -218 l25 -25 0 331 c0 181 -1
330 -2 330 -2 0 -13 -51 -25 -113z M1343 4205 c-178 -450 -89 -906 259 -1320
521 -621 1590 -1080 2851 -1225 523 -60 1125 -65 1627 -15 1149 117 2125 472
2735 996 536 460 715 1017 502 1561 l-32 83 -6 -205 c-6 -215 -18 -295 -65
-438 -230 -694 -1073 -1226 -2349 -1481 -493 -99 -959 -142 -1535 -142 -536 0
-957 36 -1430 122 -1216 221 -2077 704 -2387 1339 -94 193 -124 330 -132 600
l-6 205 -32 -80z"/>
</g>
</svg>
