<?xml version="1.0" standalone="no"?>
<!DOCTYPE svg PUBLIC "-//W3C//DTD SVG 20010904//EN"
 "http://www.w3.org/TR/2001/REC-SVG-20010904/DTD/svg10.dtd">
<svg version="1.0" xmlns="http://www.w3.org/2000/svg"
 width="2048.000000pt" height="2048.000000pt" viewBox="0 0 2048.000000 2048.000000"
 preserveAspectRatio="xMidYMid meet">
<metadata>
Created by potrace 1.13, written by Peter Selinger 2001-2015
</metadata>
<g transform="translate(0.000000,2048.000000) scale(0.192120,-0.192120)"
fill="#000000" stroke="none">
<path d="M5250 10323 c-1618 -71 -3027 -571 -3810 -1353 -337 -336 -522 -694
-554 -1072 l-5 -68 3498 0 c2486 0 3514 -3 3556 -11 166 -30 322 -151 394
-304 49 -104 56 -151 56 -390 -1 -213 -2 -222 -28 -298 -42 -121 -119 -223
-220 -293 l-28 -20 -4 -139 c-15 -571 -247 -1022 -535 -1042 -95 -7 -163 21
-251 104 -159 150 -260 392 -304 728 -15 113 -20 255 -10 255 3 0 37 -16 75
-35 38 -19 76 -35 85 -35 8 0 15 -5 15 -11 0 -8 92 -10 328 -7 l327 4 50 26
c28 14 66 43 85 63 l35 38 -30 -9 c-16 -4 -1632 -9 -3589 -11 -3880 -3 -3610
-7 -3729 51 l-47 23 0 -97 c0 -191 33 -408 87 -580 29 -91 111 -262 128 -267
6 -1 22 14 38 34 32 43 36 108 11 194 -62 207 -85 351 -70 431 6 32 8 34 42
30 29 -4 36 -1 41 17 5 19 12 21 94 21 49 0 89 4 89 9 0 6 98 11 233 13 l232
3 83 48 c45 26 84 47 86 47 12 0 14 -74 5 -172 -37 -431 -196 -773 -410 -884
-46 -24 -66 -28 -134 -29 -69 0 -88 4 -138 29 -54 28 -134 102 -183 171 l-22
30 -73 -51 c-370 -255 -527 -971 -337 -1539 77 -229 221 -432 369 -518 105
-61 249 -85 350 -57 35 10 36 12 42 68 20 221 213 273 505 135 128 -61 247
-149 408 -303 402 -387 683 -542 984 -541 151 0 169 6 495 154 144 65 338 134
490 173 l110 29 335 -1 335 0 135 -36 c173 -47 332 -106 550 -206 96 -44 195
-86 220 -92 245 -67 529 10 818 220 130 95 176 134 373 320 166 156 250 217
393 286 280 134 462 88 497 -127 6 -35 15 -68 20 -74 6 -6 63 -10 128 -10
l118 0 86 43 c94 47 187 128 245 217 l33 49 -37 19 c-66 34 -119 25 -237 -37
-157 -85 -165 -83 -330 50 -102 84 -146 99 -277 99 -126 0 -203 -21 -357 -98
-128 -63 -218 -130 -383 -286 -229 -216 -328 -292 -482 -368 -117 -58 -198
-88 -291 -107 -152 -32 -246 -17 -485 78 -307 121 -356 130 -526 97 -149 -29
-157 -28 -104 12 27 21 55 56 76 97 31 59 33 71 30 135 -5 83 -27 134 -83 191
-71 71 -91 74 -474 74 -331 0 -337 -1 -386 -24 -140 -65 -201 -230 -136 -368
22 -48 40 -70 89 -110 43 -36 31 -36 -125 -2 -103 23 -125 25 -173 15 -52 -10
-214 -67 -419 -146 -250 -97 -407 -85 -691 54 -100 48 -233 152 -445 346 -243
223 -355 297 -570 376 -83 30 -100 33 -210 33 -111 1 -124 -1 -172 -26 -29
-15 -78 -46 -109 -70 -142 -108 -145 -110 -196 -105 -131 12 -261 167 -352
417 l-31 85 -3 338 c-3 317 -2 343 18 419 41 157 154 351 225 385 34 16 37 16
88 -6 180 -80 166 -76 273 -76 96 0 103 1 180 39 61 31 98 59 164 125 169 171
247 349 335 764 9 42 21 77 26 77 5 0 14 11 19 25 l10 25 2449 0 2449 0 6 -24
c3 -13 14 -26 24 -28 15 -4 22 -25 36 -94 49 -257 95 -384 193 -542 195 -313
449 -423 692 -300 75 38 163 115 181 157 7 17 10 61 8 106 l-3 77 82 -4 c69
-4 93 -10 155 -41 222 -110 392 -385 465 -752 14 -71 18 -138 18 -315 -1 -196
-4 -239 -24 -330 -30 -139 -66 -245 -117 -348 l-42 -84 95 -241 c53 -133 97
-243 98 -245 1 -1 40 15 86 37 257 122 544 138 824 46 20 -6 22 6 63 292 24
164 67 451 97 638 63 394 79 509 101 735 21 226 30 874 15 1122 -70 1154 -380
2127 -904 2832 -628 844 -1529 1298 -2732 1376 -140 9 -787 11 -965 3z m950
-283 c1119 -70 1962 -476 2543 -1225 422 -544 693 -1273 822 -2213 12 -94 15
-248 15 -935 0 -890 2 -841 -59 -1237 -17 -107 -44 -283 -61 -390 -38 -250
-56 -326 -88 -372 l-25 -38 -135 0 c-104 0 -162 -6 -259 -25 -69 -14 -134 -23
-145 -19 -10 3 -35 30 -55 60 -44 67 -52 126 -28 204 91 298 95 322 95 650 0
239 -3 292 -20 375 -37 182 -127 406 -217 542 -46 71 -199 231 -256 269 -81
54 -87 63 -87 120 0 29 7 86 15 126 24 111 55 318 55 366 0 52 8 68 73 150 80
101 145 218 177 319 l30 93 0 278 c0 255 -2 284 -21 343 -52 162 -158 318
-288 426 -73 60 -193 123 -286 150 -57 17 -251 18 -3427 23 -1851 3 -3370 8
-3374 13 -4 4 -7 32 -6 62 3 135 182 408 410 626 745 715 2082 1185 3582 1258
237 12 835 12 1020 1z m-1451 -6590 c74 -10 96 -31 72 -68 -7 -11 -68 -14
-312 -14 -167 0 -316 1 -331 1 -24 1 -28 5 -28 30 0 32 26 47 90 54 75 8 448
6 509 -3z M695 7792 c-175 -60 -311 -218 -351 -412 -24 -116 -15 -460 14 -551
34 -104 135 -242 206 -281 18 -10 18 -7 14 36 -4 30 -19 66 -47 108 -89 137
-86 119 -89 435 -3 317 -4 313 72 411 48 63 98 111 163 157 43 30 79 82 72
103 -3 7 -20 5 -54 -6z M3043 5601 c-49 -13 -119 -57 -153 -98 -57 -70 -61
-104 -58 -475 3 -322 4 -334 25 -374 52 -98 145 -154 253 -154 111 1 206 62
251 163 24 51 24 56 24 392 0 338 0 340 -24 389 -47 95 -132 154 -234 161 -29
2 -66 0 -84 -4z M5799 5594 c-56 -17 -132 -82 -162 -138 -21 -40 -22 -52 -25
-384 -3 -393 -1 -411 71 -485 64 -65 107 -82 208 -82 78 0 90 3 134 30 57 35
110 100 125 153 6 22 10 172 10 372 0 330 -1 336 -24 385 -44 95 -155 166
-255 164 -20 0 -57 -7 -82 -15z M1170 3280 c0 -81 28 -199 66 -277 40 -83 101
-143 164 -162 33 -10 40 -16 34 -29 -88 -206 -92 -350 -13 -510 48 -98 140
-202 234 -263 l61 -40 12 -116 c38 -353 229 -578 577 -678 50 -14 126 -29 170
-33 l80 -7 3 -65 c7 -142 52 -250 144 -347 138 -143 382 -208 691 -183 71 6
161 17 200 26 l71 14 30 -28 c108 -102 309 -185 551 -228 120 -21 353 -24 470
-5 244 38 464 124 570 222 l42 39 79 -15 c209 -41 457 -38 614 6 167 46 299
147 359 273 32 67 61 187 61 255 l0 38 78 6 c217 17 430 118 567 269 107 119
184 324 185 493 l0 60 56 35 c73 45 180 153 222 222 96 161 105 332 28 520
l-24 58 37 10 c129 34 231 225 231 430 0 54 -2 58 -21 53 -38 -10 -74 -59 -98
-134 -33 -100 -59 -151 -126 -238 -94 -124 -90 -108 -90 -351 l0 -215 -38 -63
c-21 -34 -78 -104 -126 -155 -120 -126 -162 -190 -175 -262 -16 -88 -79 -258
-114 -304 -106 -142 -241 -224 -442 -271 -74 -17 -148 -52 -185 -87 -47 -44
-91 -115 -98 -159 -4 -21 -18 -61 -32 -89 -13 -27 -25 -54 -25 -60 0 -18 -82
-106 -119 -129 -105 -65 -236 -90 -446 -86 -375 8 -374 8 -440 -25 -33 -16
-86 -45 -118 -63 -172 -99 -474 -162 -707 -147 -218 13 -421 70 -590 165 -150
84 -163 86 -387 72 -377 -24 -590 32 -690 180 -33 49 -83 177 -83 214 0 13 -3
24 -7 24 -5 0 -17 19 -28 41 -22 47 -87 101 -148 123 -23 8 -85 26 -137 41
-210 58 -361 168 -438 321 -25 50 -64 183 -69 239 -8 76 -57 155 -173 280 -31
33 -73 83 -93 111 -65 91 -68 103 -66 323 1 193 0 199 -24 247 -14 27 -48 78
-76 112 -60 75 -69 91 -105 197 -35 100 -60 133 -113 149 -22 7 -23 5 -23 -44z
M9704 3228 c9 -57 37 -95 104 -143 149 -108 287 -276 351 -429 l31 -75 0 -300
c0 -283 -1 -304 -22 -358 -61 -165 -160 -298 -320 -428 -376 -306 -981 -279
-1336 59 -129 123 -199 227 -258 381 -26 68 -27 78 -32 318 -4 233 -2 252 18
320 41 134 120 264 238 392 66 71 103 152 83 184 -10 16 -105 -61 -178 -146
-165 -190 -257 -422 -270 -679 -18 -365 145 -713 440 -935 375 -283 892 -297
1282 -36 239 160 411 415 470 698 75 357 -40 743 -300 1004 -78 78 -220 182
-279 205 l-29 11 7 -43z M4110 2544 c-25 -2 -108 -9 -185 -15 -362 -28 -595
-106 -595 -199 0 -118 296 -239 745 -307 170 -25 665 -25 845 0 337 47 604
136 704 233 70 68 38 139 -82 184 -110 42 -254 70 -462 91 -100 10 -876 21
-970 13z m642 -223 c174 -7 221 -12 239 -25 13 -9 17 -16 10 -16 -8 0 -19 -6
-25 -14 -19 -24 -290 -56 -478 -56 -191 0 -465 32 -484 56 -6 8 -17 14 -25 14
-8 1 0 8 16 17 23 13 72 18 205 23 258 10 304 10 542 1z"/>
</g>
</svg>
