<?xml version="1.0" standalone="no"?>
<!DOCTYPE svg PUBLIC "-//W3C//DTD SVG 20010904//EN"
 "http://www.w3.org/TR/2001/REC-SVG-20010904/DTD/svg10.dtd">
<svg version="1.0" xmlns="http://www.w3.org/2000/svg"
 width="2048.000000pt" height="2048.000000pt" viewBox="0 0 2048.000000 2048.000000"
 preserveAspectRatio="xMidYMid meet">
<metadata>
Created by potrace 1.13, written by Peter Selinger 2001-2015
</metadata>
<g transform="translate(0.000000,2048.000000) scale(0.192120,-0.192120)"
fill="#000000" stroke="none">
<path d="M610 7968 l0 -697 833 2 832 2 0 -1945 0 -1945 -832 2 -833 2 0 -697
0 -697 4720 0 4720 0 0 697 0 697 -835 -4 -835 -4 0 1949 0 1949 835 -4 835
-4 0 697 0 697 -4720 0 -4720 0 0 -697z m1110 2 l0 -420 -280 0 -280 0 0 420
0 420 280 0 280 0 0 -420z m1110 0 l0 -420 -280 0 -280 0 0 420 0 420 280 0
280 0 0 -420z m1110 0 l0 -420 -277 0 -278 0 2 417 c1 230 2 419 2 421 1 1
125 2 276 2 l275 0 0 -420z m1110 0 l0 -420 -277 0 -278 0 2 417 c1 230 3 419
3 421 0 1 124 2 275 2 l275 0 0 -420z m1113 -3 l2 -417 -277 0 -278 0 0 420 0
420 276 -2 275 -3 2 -418z m1111 0 l1 -417 -277 0 -278 0 0 420 0 420 277 -2
276 -3 1 -418z m1116 3 l0 -420 -280 0 -280 0 0 420 0 420 280 0 280 0 0 -420z
m1110 0 l0 -420 -280 0 -280 0 0 420 0 420 280 0 280 0 0 -420z m-1670 -2640
l0 -1946 -2500 0 -2500 0 0 1946 0 1946 2500 0 2500 0 0 -1946z m-6110 -2640
l0 -420 -280 0 -280 0 0 420 0 420 280 0 280 0 0 -420z m1110 0 l0 -420 -280
0 -280 0 0 420 0 420 280 0 280 0 0 -420z m1110 0 l0 -420 -277 2 -276 3 -1
418 -1 417 278 0 277 0 0 -420z m1110 0 l0 -420 -276 2 -275 3 -2 418 -2 417
278 0 277 0 0 -420z m1113 3 l-2 -418 -275 -3 -276 -2 0 420 0 420 278 0 277
0 -2 -417z m1111 0 l-1 -418 -276 -3 -277 -2 0 420 0 420 278 0 277 0 -1 -417z
m1116 -3 l0 -420 -280 0 -280 0 0 420 0 420 280 0 280 0 0 -420z m1110 0 l0
-420 -280 0 -280 0 0 420 0 420 280 0 280 0 0 -420z M3080 7065 c-13 -26 -15
-241 -18 -1714 -2 -1577 -1 -1688 15 -1735 l17 -51 7 50 c9 63 9 3339 0 3420
l-6 59 -15 -29z M610 5330 l0 -1855 28 35 c15 19 35 50 46 70 10 19 24 38 30
42 15 10 16 3395 0 3406 -6 4 -23 30 -38 57 -15 28 -35 61 -46 75 -19 25 -20
8 -20 -1830z M9995 7103 c-25 -43 -45 -86 -45 -95 0 -10 -4 -18 -10 -18 -12 0
-14 -3336 -2 -3342 4 -1 20 -28 35 -58 16 -30 40 -68 53 -85 l24 -30 0 1853
c0 1018 -2 1852 -5 1852 -2 0 -25 -35 -50 -77z M8640 7071 c0 -11 -6 -21 -12
-23 -10 -4 -14 -353 -16 -1694 -2 -1553 -1 -1693 14 -1734 9 -25 21 -49 25
-55 5 -5 9 758 9 1758 0 1171 -3 1767 -10 1767 -5 0 -10 -9 -10 -19z"/>
</g>
</svg>
