<?xml version="1.0" standalone="no"?>
<!DOCTYPE svg PUBLIC "-//W3C//DTD SVG 20010904//EN"
 "http://www.w3.org/TR/2001/REC-SVG-20010904/DTD/svg10.dtd">
<svg version="1.0" xmlns="http://www.w3.org/2000/svg"
 width="2048.000000pt" height="2048.000000pt" viewBox="0 0 2048.000000 2048.000000"
 preserveAspectRatio="xMidYMid meet">
<metadata>
Created by potrace 1.13, written by Peter Selinger 2001-2015
</metadata>
<g transform="translate(0.000000,2048.000000) scale(0.192120,-0.192120)"
fill="#000000" stroke="none">
<path d="M5120 10049 c-1655 -71 -3152 -1010 -3949 -2477 -308 -566 -493
-1192 -551 -1862 -16 -186 -13 -609 5 -806 104 -1130 591 -2150 1406 -2949
456 -447 976 -784 1569 -1018 909 -358 1908 -425 2860 -191 630 155 1214 434
1730 827 791 603 1396 1476 1669 2411 135 459 192 861 192 1352 0 367 -35 689
-112 1034 -416 1868 -1960 3322 -3849 3624 -149 24 -344 45 -475 51 -246 11
-324 12 -495 4z m646 -184 c468 -45 822 -134 1404 -355 178 -68 248 -101 421
-200 880 -506 1570 -1279 1954 -2191 134 -319 213 -571 274 -874 64 -322 64
-320 69 -855 2 -328 0 -527 -8 -590 -54 -460 -176 -904 -362 -1325 -141 -317
-131 -289 -136 -407 -2 -60 -6 -108 -9 -108 -12 0 -133 70 -729 421 -603 354
-716 419 -728 419 -9 0 7 -76 27 -125 38 -93 14 -77 665 -459 260 -153 480
-285 488 -293 8 -8 14 -32 14 -54 0 -32 -13 -59 -76 -151 -93 -138 -144 -197
-344 -403 -328 -338 -535 -515 -845 -722 -506 -337 -1072 -566 -1680 -678
-447 -83 -966 -97 -1420 -39 -838 107 -1620 440 -2278 969 -171 137 -498 450
-603 576 -79 95 -240 313 -261 353 -31 59 -33 86 -14 125 17 32 73 68 482 310
517 306 599 358 626 398 34 49 68 183 46 183 -9 0 -103 -55 -753 -440 -322
-190 -611 -361 -642 -379 l-58 -32 0 98 c0 119 -11 161 -86 319 -195 414 -325
839 -394 1289 -18 118 -20 181 -20 690 0 511 2 571 20 690 77 496 221 936 454
1390 387 752 940 1347 1688 1816 251 158 451 251 828 387 333 120 736 210
1095 246 197 19 690 20 891 1z M5213 9496 c-106 -35 -198 -115 -247 -216 -29
-61 -31 -72 -31 -175 0 -101 2 -115 29 -170 58 -117 173 -203 304 -226 168
-30 349 66 428 226 27 55 29 69 29 170 0 103 -2 114 -31 175 -39 81 -109 152
-193 193 -55 27 -76 32 -155 34 -57 2 -107 -2 -133 -11z m226 -283 c23 -18 26
-28 29 -94 4 -98 -1 -111 -47 -137 -68 -38 -178 -25 -230 27 -30 30 -31 159
-2 185 54 49 195 59 250 19z M3323 8956 c-104 -34 -204 -123 -251 -224 -24
-50 -27 -69 -27 -162 0 -97 2 -110 32 -172 58 -123 167 -206 301 -229 170 -30
356 69 429 228 93 202 5 442 -196 537 -56 26 -80 31 -156 33 -57 2 -106 -2
-132 -11z m188 -266 c60 -17 79 -42 79 -109 0 -111 -34 -152 -131 -159 -67 -5
-114 8 -152 43 -25 24 -27 32 -27 99 0 59 4 76 19 90 44 40 139 56 212 36z
M7105 8957 c-152 -51 -260 -176 -284 -329 -21 -127 20 -250 113 -344 200 -199
528 -142 649 114 30 62 32 75 32 172 0 99 -2 110 -32 171 -40 81 -121 160
-200 197 -47 21 -76 27 -148 29 -56 2 -105 -2 -130 -10z m186 -268 c62 -21 69
-33 69 -124 0 -87 -9 -104 -67 -134 -40 -21 -132 -14 -179 14 -48 28 -64 62
-64 135 0 36 5 51 24 69 48 46 146 63 217 40z M5057 8199 c-999 -103 -1857
-692 -2301 -1579 -140 -280 -229 -560 -278 -871 -19 -123 -22 -184 -22 -419 0
-235 3 -296 22 -419 147 -940 723 -1735 1563 -2156 282 -142 591 -237 909
-282 156 -21 564 -24 720 -5 1241 154 2238 1074 2483 2292 42 205 52 320 52
570 0 251 -11 369 -52 570 -91 450 -290 874 -578 1235 -99 125 -310 336 -435
437 -313 252 -707 449 -1096 549 -238 60 -392 80 -664 84 -129 2 -275 0 -323
-6z m603 -534 c512 -76 966 -304 1332 -668 365 -362 595 -821 675 -1347 23
-157 23 -482 0 -640 -39 -259 -110 -487 -222 -716 -148 -301 -352 -563 -597
-767 -613 -508 -1413 -679 -2165 -463 -643 185 -1170 625 -1463 1221 -117 237
-179 434 -221 695 -31 191 -31 507 0 700 41 261 104 458 221 695 293 596 820
1036 1462 1221 128 36 310 71 448 84 117 12 403 3 530 -15z m827 -47 c-3 -8
-6 -5 -6 6 -1 11 2 17 5 13 3 -3 4 -12 1 -19z m-2330 -10 c-3 -8 -6 -5 -6 6
-1 11 2 17 5 13 3 -3 4 -12 1 -19z m2350 0 c-3 -8 -6 -5 -6 6 -1 11 2 17 5 13
3 -3 4 -12 1 -19z m-2370 -10 c-3 -8 -6 -5 -6 6 -1 11 2 17 5 13 3 -3 4 -12 1
-19z m2390 0 c-3 -8 -6 -5 -6 6 -1 11 2 17 5 13 3 -3 4 -12 1 -19z m-2410 -10
c-3 -8 -6 -5 -6 6 -1 11 2 17 5 13 3 -3 4 -12 1 -19z m2503 -16 c3 -4 37 -23
75 -42 280 -139 612 -446 828 -766 66 -98 93 -145 150 -259 82 -164 87 -183
87 -340 l-1 -140 -23 70 c-100 297 -308 673 -500 903 -114 137 -269 285 -401
384 -66 49 -128 96 -138 104 -9 7 -22 14 -27 14 -6 0 -10 3 -10 8 0 4 -27 23
-60 41 -69 40 -85 72 -23 46 21 -9 40 -19 43 -23z m-2520 16 c0 -7 -21 -26
-48 -43 -26 -16 -51 -33 -57 -37 -5 -5 -59 -45 -119 -89 -60 -45 -134 -105
-164 -133 -31 -28 -83 -76 -115 -106 -81 -75 -220 -236 -301 -348 -149 -206
-284 -473 -381 -749 l-24 -68 0 142 c-1 136 0 146 29 218 185 466 620 939
1088 1181 95 49 92 49 92 32z m-1139 -3132 c48 -128 154 -345 224 -461 190
-313 477 -615 769 -808 98 -65 343 -208 361 -211 6 -1 24 -9 38 -19 15 -9 30
-17 35 -17 14 0 62 -25 62 -32 0 -4 -4 -10 -10 -13 -5 -3 -10 -2 -10 4 0 6 -7
8 -15 5 -8 -4 -15 -1 -15 6 0 6 -4 9 -8 6 -4 -2 -34 6 -67 19 -32 14 -61 22
-63 20 -2 -2 -11 3 -19 11 -8 8 -19 12 -24 9 -5 -4 -9 -1 -9 5 0 6 -4 9 -10 5
-10 -6 -111 43 -222 108 -40 24 -80 46 -88 49 -35 15 -196 129 -287 205 -155
129 -341 328 -428 458 -76 116 -178 303 -233 430 l-47 110 -2 155 c-2 147 -1
153 12 111 8 -25 33 -94 56 -155z m4788 -116 c-33 -124 -204 -447 -314 -595
-85 -115 -326 -356 -458 -458 -65 -51 -124 -94 -130 -96 -7 -2 -31 -17 -54
-32 -23 -16 -44 -29 -48 -29 -3 0 -22 -11 -43 -23 -58 -37 -224 -120 -239
-120 -7 0 -13 -4 -13 -8 0 -4 -10 -11 -22 -15 -23 -7 -34 -10 -73 -16 -11 -2
-26 -9 -33 -15 -18 -17 -32 -16 -32 2 0 8 42 35 101 65 55 28 113 59 127 69
15 10 72 46 126 80 471 295 830 743 1052 1314 30 75 55 145 56 155 1 9 4 -39
6 -108 2 -77 -2 -142 -9 -170z m-1469 -1416 c0 -8 -4 -13 -9 -10 -5 4 -11 0
-14 -6 -2 -7 -8 -10 -12 -6 -12 11 2 38 20 38 8 0 15 -7 15 -16z m-50 -20 c0
-8 -4 -12 -10 -9 -5 3 -10 10 -10 16 0 5 5 9 10 9 6 0 10 -7 10 -16z m-1755
-3 c3 -5 1 -12 -5 -16 -5 -3 -10 1 -10 9 0 18 6 21 15 7z m1725 -7 c0 -8 -5
-12 -10 -9 -6 4 -8 11 -5 16 9 14 15 11 15 -7z m-1703 -16 c-3 -8 -6 -5 -6 6
-1 11 2 17 5 13 3 -3 4 -12 1 -19z m1670 0 c-3 -8 -6 -5 -6 6 -1 11 2 17 5 13
3 -3 4 -12 1 -19z M6507 7126 c-127 -46 -218 -127 -831 -735 -634 -631 -713
-718 -794 -872 -37 -71 -37 -73 -37 -188 0 -113 1 -118 34 -178 32 -60 119
-155 191 -208 127 -95 275 -118 411 -65 75 30 238 139 344 231 146 126 1177
1167 1228 1240 71 101 87 142 87 229 0 238 -163 454 -404 535 -84 28 -169 32
-229 11z m285 -156 c53 -15 117 -67 152 -123 38 -61 47 -159 21 -238 -17 -51
-55 -92 -738 -776 -522 -523 -734 -729 -771 -749 -43 -24 -62 -28 -126 -28
-113 0 -191 47 -245 146 -25 45 -29 64 -29 128 0 63 4 83 27 126 21 37 228
250 750 771 788 787 747 751 867 752 30 1 72 -4 92 -9z M1973 7606 c-104 -34
-204 -123 -251 -224 -24 -50 -27 -69 -27 -162 0 -97 2 -110 31 -170 120 -254
452 -313 650 -116 199 200 142 528 -114 649 -58 28 -79 32 -157 34 -55 2 -106
-3 -132 -11z m230 -285 c37 -23 37 -23 37 -91 0 -85 -11 -112 -60 -139 -71
-40 -183 -23 -228 34 -29 37 -32 153 -4 178 58 52 185 62 255 18z M8427 7596
c-111 -47 -175 -104 -222 -201 -116 -235 24 -516 283 -570 182 -38 365 54 446
224 29 61 31 74 31 171 0 93 -3 111 -27 163 -37 79 -117 160 -196 199 -57 29
-77 33 -161 36 -84 2 -103 0 -154 -22z m240 -267 l43 -21 0 -86 c0 -48 -4 -92
-8 -98 -19 -31 -79 -54 -135 -54 -115 0 -167 49 -167 157 0 57 2 63 30 83 63
45 166 53 237 19z M1499 5729 c-127 -14 -251 -105 -312 -229 -30 -60 -32 -72
-32 -170 0 -98 2 -110 32 -170 80 -164 245 -252 426 -228 215 28 376 247 338
460 -38 219 -230 362 -452 337z m151 -291 l45 -23 3 -69 c4 -89 -9 -120 -62
-146 -76 -36 -190 -16 -230 41 -23 34 -22 150 2 172 56 50 168 62 242 25z
M8973 5711 c-141 -52 -238 -169 -264 -319 -30 -168 67 -350 226 -428 55 -27
69 -29 170 -29 102 0 115 2 175 31 82 39 151 108 193 193 30 61 32 73 32 171
0 98 -2 110 -32 171 -42 85 -111 154 -193 193 -56 27 -78 31 -160 34 -74 2
-107 -2 -147 -17z m237 -271 l40 -20 0 -88 c0 -79 -2 -91 -22 -110 -72 -66
-233 -49 -273 29 -17 33 -20 121 -4 151 29 55 182 77 259 38z"/>
</g>
</svg>
