<?xml version="1.0" standalone="no"?>
<!DOCTYPE svg PUBLIC "-//W3C//DTD SVG 20010904//EN"
 "http://www.w3.org/TR/2001/REC-SVG-20010904/DTD/svg10.dtd">
<svg version="1.0" xmlns="http://www.w3.org/2000/svg"
 width="2048.000000pt" height="2048.000000pt" viewBox="0 0 2048.000000 2048.000000"
 preserveAspectRatio="xMidYMid meet">
<metadata>
Created by potrace 1.13, written by Peter Selinger 2001-2015
</metadata>
<g transform="translate(0.000000,2048.000000) scale(0.192120,-0.192120)"
fill="#000000" stroke="none">
<path d="M5243 10262 c-105 -37 -162 -110 -183 -232 -7 -45 -10 -331 -8 -925
l3 -860 135 207 c74 114 137 207 140 207 3 0 60 -84 127 -187 67 -103 129
-196 137 -207 14 -18 15 31 16 489 l0 508 -27 -7 c-16 -3 -71 -9 -123 -12
-108 -6 -172 12 -249 68 -46 33 -121 140 -121 172 0 12 29 48 70 87 61 59 70
72 70 103 0 20 5 39 10 42 6 3 10 51 10 108 0 91 3 107 27 156 20 39 37 58 60
68 40 16 157 17 275 1 77 -10 92 -15 100 -34 9 -18 26 -24 117 -39 651 -104
1074 -178 1100 -191 33 -16 33 -34 0 -34 -10 0 -19 -4 -19 -9 0 -5 -12 -11
-27 -14 -16 -2 -57 -12 -93 -21 -36 -9 -184 -38 -330 -66 -465 -89 -613 -120
-693 -146 -67 -22 -82 -31 -103 -64 -34 -51 -47 -160 -19 -160 44 0 1386 236
1455 256 306 88 350 331 83 456 -78 37 -108 43 -933 179 -579 96 -695 112
-815 116 -117 3 -148 0 -192 -15z M5291 8250 c-82 -448 -277 -949 -574 -1470
-266 -468 -656 -1013 -989 -1382 l-69 -76 1 -584 c1 -555 0 -587 -19 -662 -27
-101 -70 -177 -145 -251 -110 -108 -238 -159 -396 -158 -150 0 -262 46 -372
151 -72 68 -112 131 -146 224 l-26 73 -4 606 -3 606 188 129 c984 674 1707
1370 2138 2059 130 208 279 521 329 693 l15 54 -39 -36 c-56 -50 -88 -56 -115
-21 l-22 27 -55 -68 c-30 -38 -86 -109 -124 -159 -188 -245 -480 -566 -698
-767 -574 -532 -1092 -862 -1991 -1267 -633 -286 -832 -417 -937 -617 -70
-132 -71 -143 -76 -593 -2 -254 0 -433 7 -483 20 -145 80 -281 165 -371 l39
-42 13 40 c20 64 16 135 -11 215 l-25 74 0 510 0 511 28 47 c71 124 189 224
389 331 161 86 587 279 591 268 2 -6 8 -11 13 -11 19 0 505 245 671 339 285
161 649 409 868 590 131 109 339 293 385 341 72 75 226 213 231 207 6 -6 -72
-124 -126 -192 -22 -27 -57 -72 -79 -100 -77 -100 -418 -450 -586 -601 -295
-265 -585 -492 -1015 -796 -149 -105 -244 -194 -262 -245 -7 -18 -16 -33 -20
-33 -4 0 -8 -232 -8 -515 0 -580 -7 -529 82 -595 l26 -20 -15 -57 c-61 -234
-252 -424 -494 -489 -85 -23 -252 -23 -339 -1 -88 23 -196 78 -252 127 -25 22
-48 40 -51 40 -2 0 -7 -46 -11 -102 -10 -154 -10 -145 -115 -1418 -78 -929
-97 -1198 -90 -1246 31 -222 193 -400 415 -458 56 -14 410 -16 3746 -16 3250
0 3691 2 3742 15 221 58 384 238 415 459 7 48 -13 319 -90 1246 -106 1281
-105 1266 -115 1418 -4 56 -9 102 -11 102 -3 0 -26 -18 -51 -40 -56 -49 -164
-104 -252 -127 -87 -22 -254 -22 -339 1 -136 37 -283 131 -366 234 -54 67
-107 173 -128 255 l-15 57 26 20 c89 66 82 16 82 590 0 304 -4 510 -9 510 -5
0 -13 14 -16 31 -12 52 -134 163 -335 303 -307 215 -614 450 -830 635 -345
294 -725 689 -916 951 -167 228 -150 239 52 33 237 -241 376 -368 588 -537
426 -339 750 -542 1261 -792 177 -86 251 -118 255 -108 9 24 596 -256 754
-361 110 -73 209 -179 248 -264 l29 -63 -4 -517 c-3 -500 -4 -518 -25 -579
-12 -35 -22 -77 -22 -93 0 -37 22 -119 32 -119 16 0 100 117 133 185 69 144
70 150 70 650 0 504 -1 512 -72 649 -46 88 -165 209 -278 284 -107 71 -328
182 -680 342 -975 444 -1516 801 -2110 1395 -255 254 -412 435 -689 795 l-48
63 -21 -37 c-31 -54 -62 -50 -132 18 -48 48 -54 51 -49 28 18 -77 86 -238 174
-417 389 -786 1150 -1558 2338 -2372 l183 -126 -4 -601 c-4 -653 -3 -641 -63
-763 -32 -66 -127 -170 -194 -213 -87 -56 -182 -83 -290 -84 -158 0 -286 51
-396 159 -75 74 -118 150 -145 251 -19 75 -20 107 -19 662 l1 584 -69 76
c-456 505 -957 1257 -1224 1834 -166 359 -254 618 -328 963 l-28 130 -1 -80
c-1 -44 6 -190 14 -325 84 -1369 245 -2223 479 -2538 l47 -64 -4 -586 c-3
-512 -6 -595 -21 -651 -50 -189 -197 -340 -390 -399 -73 -22 -226 -21 -296 3
-198 65 -336 207 -386 396 -15 56 -18 139 -21 651 l-4 586 46 64 c57 77 91
143 138 269 117 312 204 766 272 1404 43 413 91 1110 83 1220 l-3 50 -14 -75z
m445 -1408 c247 -460 596 -975 936 -1380 70 -83 128 -158 128 -165 0 -8 11
-24 25 -37 l25 -23 0 -453 c0 -291 4 -455 10 -459 6 -3 10 -21 10 -38 1 -32
10 -43 92 -110 l28 -22 -14 -66 c-41 -190 -199 -354 -396 -410 -68 -19 -223
-16 -299 6 -35 10 -96 39 -135 65 -133 87 -213 205 -243 360 l-17 83 25 19
c13 10 39 32 57 48 l32 29 0 538 0 539 -71 144 c-130 265 -199 497 -264 895
-21 127 -25 181 -25 370 1 256 -4 253 96 67z m-746 -412 c-26 -154 -73 -374
-107 -499 -38 -143 -84 -261 -162 -421 l-71 -145 0 -544 c0 -299 3 -541 7
-538 3 4 11 -3 17 -14 6 -12 14 -21 19 -20 4 1 13 -3 20 -9 6 -5 23 -18 36
-29 l25 -18 -17 -83 c-30 -155 -110 -273 -243 -360 -93 -61 -172 -83 -294 -83
-159 -1 -272 46 -386 158 -81 79 -126 158 -150 262 l-16 68 25 20 c76 62 87
77 87 114 0 16 5 33 10 36 6 4 10 168 10 459 0 440 1 453 20 471 11 10 20 25
20 33 0 8 29 46 64 86 116 130 319 390 477 612 205 287 270 391 504 794 43 74
87 151 99 170 l21 35 3 -215 c2 -180 -1 -235 -18 -340z m-2425 -2622 c16 -75
79 -182 150 -253 123 -123 246 -170 420 -162 124 5 187 26 284 92 90 60 169
159 208 258 30 77 42 90 50 56 18 -68 90 -188 147 -245 109 -109 224 -159 371
-163 87 -2 180 12 191 30 3 5 -2 19 -10 31 -32 45 -21 88 39 161 31 37 58 67
61 67 8 0 -3 -203 -27 -465 -49 -541 -135 -1098 -255 -1645 -80 -360 -213
-862 -246 -923 -9 -18 -24 7 -112 184 -117 234 -192 359 -325 537 -101 134
-316 362 -442 468 l-76 65 152 152 c165 165 261 277 420 489 178 238 423 615
509 786 32 64 25 65 -72 17 -86 -44 -140 -97 -212 -210 -92 -145 -317 -461
-426 -599 -56 -72 -167 -204 -246 -293 -82 -92 -160 -191 -181 -229 -50 -90
-49 -124 5 -226 34 -63 73 -111 196 -238 210 -218 344 -386 431 -541 39 -69
42 -126 9 -134 -13 -3 -450 -4 -973 -3 -900 3 -953 4 -1000 22 -79 29 -132 71
-160 126 -24 48 -25 55 -25 261 0 174 12 348 66 993 74 891 77 993 32 1126
-14 41 -24 76 -23 78 2 2 21 -6 43 -17 22 -11 80 -32 127 -46 168 -49 364 -29
519 52 105 56 237 191 296 305 37 72 48 85 62 77 9 -5 19 -23 23 -41z m5750
-214 c74 -75 106 -99 175 -132 123 -60 199 -75 345 -69 121 5 204 25 294 71
18 10 34 16 36 14 2 -2 -12 -48 -31 -103 -30 -91 -33 -111 -34 -220 0 -66 27
-442 60 -835 55 -653 60 -739 60 -996 l0 -280 -29 -46 c-17 -26 -48 -57 -73
-72 -95 -56 -95 -56 -1065 -56 -490 0 -898 3 -907 6 -48 19 6 131 167 346 82
110 266 319 288 326 22 8 168 185 197 240 64 120 32 222 -125 394 -274 300
-460 542 -718 938 -98 150 -148 211 -196 236 -41 21 -111 45 -116 40 -7 -7 65
-142 154 -289 259 -428 607 -879 854 -1110 l103 -96 -29 -23 c-68 -52 -229
-204 -304 -286 -215 -234 -356 -443 -517 -763 -47 -95 -80 -149 -89 -149 -9 0
-33 -9 -55 -20 -22 -11 -41 -20 -44 -20 -13 0 -108 333 -185 650 -181 747
-314 1620 -346 2275 l-6 120 50 -55 c28 -30 58 -70 67 -88 15 -31 14 -36 -5
-74 -11 -23 -18 -45 -16 -48 18 -29 210 -39 306 -16 143 34 286 151 356 291
21 44 42 91 46 105 8 33 19 20 51 -58 57 -143 180 -264 321 -318 83 -32 228
-43 318 -24 180 37 350 192 408 370 34 105 45 106 98 3 36 -69 64 -107 136
-179z m-3484 -37 c19 -13 57 -40 85 -60 114 -82 280 -137 414 -137 134 0 300
55 414 137 128 92 144 98 191 67 24 -16 25 -20 25 -135 0 -232 74 -847 160
-1334 63 -356 96 -510 196 -925 18 -78 24 -126 22 -185 l-3 -80 -1015 0 -1015
0 -3 60 c-2 43 8 104 33 210 140 586 232 1079 294 1580 41 329 61 549 61 676
0 104 1 108 26 128 35 27 73 27 115 -2z"/>
</g>
</svg>
