<?xml version="1.0" standalone="no"?>
<!DOCTYPE svg PUBLIC "-//W3C//DTD SVG 20010904//EN"
 "http://www.w3.org/TR/2001/REC-SVG-20010904/DTD/svg10.dtd">
<svg version="1.0" xmlns="http://www.w3.org/2000/svg"
 width="2048.000000pt" height="2048.000000pt" viewBox="0 0 2048.000000 2048.000000"
 preserveAspectRatio="xMidYMid meet">
<metadata>
Created by potrace 1.13, written by Peter Selinger 2001-2015
</metadata>
<g transform="translate(0.000000,2048.000000) scale(0.192120,-0.192120)"
fill="#000000" stroke="none">
<path d="M4960 10310 c-238 -19 -465 -53 -920 -140 -399 -77 -508 -92 -655
-92 -150 0 -215 9 -690 97 -575 106 -720 125 -1017 132 -142 4 -255 1 -329 -7
-579 -64 -897 -355 -993 -910 -70 -404 13 -1225 200 -1984 250 -1012 653
-1898 1141 -2506 645 -805 1448 -1105 2255 -843 125 40 394 172 391 191 -70
342 -110 697 -120 1052 l-6 235 -43 -90 c-24 -49 -49 -110 -56 -135 -14 -52
-15 -388 -3 -731 l8 -215 -99 -41 c-315 -130 -650 -162 -981 -93 -616 129
-1178 630 -1632 1457 -376 686 -676 1616 -818 2538 -28 180 -28 181 -28 710
l0 530 33 84 c147 383 452 551 1000 551 265 0 489 -27 1003 -121 450 -82 564
-98 714 -105 195 -10 277 1 920 120 357 66 563 93 781 105 718 38 1072 -172
1186 -704 22 -105 23 -128 23 -515 0 -461 -11 -571 -85 -875 -21 -88 -51 -216
-65 -285 -15 -69 -49 -215 -76 -325 -27 -110 -60 -252 -74 -315 -28 -134 -52
-194 -95 -235 l-32 -30 -169 3 c-193 4 -251 -5 -354 -54 -72 -35 -196 -120
-160 -110 113 30 541 31 760 1 61 -8 111 -15 112 -15 1 0 29 82 62 183 331
1015 478 2203 335 2717 -48 176 -130 330 -233 442 -148 161 -379 272 -653 312
-132 20 -389 27 -538 16z M2000 9024 c-14 -2 -52 -9 -85 -15 -312 -54 -620
-280 -773 -569 -51 -95 -59 -142 -37 -215 19 -67 80 -139 140 -166 55 -25 147
-24 205 2 61 27 95 62 138 139 50 90 168 206 258 253 280 145 559 50 795 -269
82 -111 135 -144 233 -144 139 0 241 94 253 232 8 79 -13 128 -102 247 -239
316 -548 492 -889 505 -61 3 -122 3 -136 0z m-90 -291 c0 -9 -6 -13 -15 -9 -8
3 -15 2 -15 -3 0 -5 -11 -12 -25 -15 -14 -4 -25 -11 -25 -16 0 -6 -5 -10 -12
-10 -14 0 -101 -55 -143 -90 -39 -32 -151 -144 -196 -195 -78 -89 -131 -117
-144 -75 -13 41 7 80 82 160 112 119 228 197 354 238 102 33 139 37 139 15z
m400 8 c0 -6 -4 -13 -10 -16 -5 -3 -10 1 -10 9 0 9 5 16 10 16 6 0 10 -4 10
-9z m177 -46 c39 -18 98 -50 130 -72 68 -45 194 -161 235 -217 30 -42 37 -90
13 -100 -31 -11 -72 18 -175 123 -114 118 -210 200 -268 230 -20 11 -46 28
-57 38 -11 11 -26 18 -33 15 -7 -2 -12 5 -12 16 0 18 4 19 48 10 26 -6 79 -25
119 -43z M4510 9015 c-221 -35 -432 -146 -613 -323 -80 -78 -200 -229 -231
-291 -46 -89 -25 -212 49 -286 56 -56 116 -79 199 -73 86 5 146 42 206 128
223 320 516 425 799 287 86 -42 224 -176 269 -264 54 -102 132 -153 237 -153
99 0 178 50 228 144 30 58 30 154 -2 219 -69 142 -200 298 -334 401 -235 179
-526 255 -807 211z m10 -271 c0 -8 -5 -12 -10 -9 -6 4 -8 11 -5 16 9 14 15 11
15 -7z m-40 -11 c0 -9 -6 -13 -15 -9 -8 3 -15 1 -15 -4 0 -5 -10 -12 -22 -16
-13 -4 -25 -10 -28 -14 -3 -4 -24 -17 -47 -28 -58 -30 -147 -104 -290 -244
-71 -69 -129 -118 -141 -118 -29 0 -45 25 -37 57 13 54 180 213 304 291 115
71 291 123 291 85z m400 2 c0 -8 -4 -15 -10 -15 -5 0 -10 7 -10 15 0 8 5 15
10 15 6 0 10 -7 10 -15z m195 -50 c216 -104 394 -298 345 -375 -8 -13 -14 -12
-45 4 -20 11 -50 36 -67 55 -52 60 -162 174 -203 211 -44 39 -186 130 -204
130 -6 0 -11 8 -11 19 0 17 4 18 48 9 26 -5 88 -29 137 -53z M1642 7078 c-33
-42 -21 -122 38 -271 134 -334 490 -822 818 -1121 176 -161 389 -307 537 -369
146 -61 200 -72 355 -72 141 1 148 2 255 38 168 58 321 147 501 291 l82 66 12
82 c23 161 62 292 123 413 43 86 82 141 156 219 112 117 231 190 399 245 l87
29 37 68 c81 151 124 335 89 377 -18 23 -76 21 -130 -3 -24 -11 -103 -63 -177
-115 -395 -282 -739 -437 -1089 -490 -129 -19 -378 -19 -514 0 -133 19 -323
66 -455 112 -233 81 -552 232 -816 389 -63 37 -139 80 -169 96 -57 30 -121 37
-139 16z m586 -516 c333 -166 575 -254 836 -307 359 -72 677 -56 1008 51 103
33 128 36 128 12 0 -5 -21 -58 -47 -117 -46 -105 -61 -148 -109 -309 -13 -46
-38 -109 -54 -142 -26 -51 -40 -66 -112 -113 -415 -274 -743 -228 -1217 171
-190 160 -409 412 -567 652 -92 140 -124 210 -94 210 6 0 108 -49 228 -108z
M8760 6669 c-178 -18 -439 -59 -812 -129 -205 -38 -429 -77 -498 -86 -210 -27
-315 -16 -994 110 -137 26 -294 52 -350 59 -97 13 -101 12 -104 -6 -9 -52 47
-116 123 -141 57 -18 713 -139 868 -161 275 -37 390 -30 892 50 624 100 831
126 1087 132 253 7 390 -5 555 -48 149 -38 205 -62 278 -114 123 -88 190 -169
254 -307 91 -197 93 -219 88 -758 -4 -399 -7 -473 -26 -600 -37 -248 -51 -320
-95 -490 -24 -91 -65 -253 -91 -360 -27 -107 -67 -263 -91 -345 -24 -83 -59
-211 -78 -285 -49 -191 -102 -336 -236 -650 -83 -195 -269 -559 -328 -642 -26
-38 -85 -123 -131 -190 -91 -132 -208 -290 -238 -323 -10 -11 -57 -65 -104
-120 -316 -369 -713 -618 -1124 -705 -129 -27 -393 -38 -532 -21 -402 49 -793
253 -1132 589 -400 397 -720 923 -1026 1687 -107 266 -219 631 -335 1089 -29
115 -60 217 -75 241 -27 46 -74 75 -123 75 -30 0 -31 -1 -25 -37 10 -74 74
-361 114 -513 148 -569 328 -1056 564 -1525 434 -867 967 -1439 1565 -1680
371 -150 763 -173 1150 -69 871 235 1648 1200 2146 2669 207 610 350 1264 410
1885 24 243 24 658 1 795 -92 532 -368 816 -882 911 -107 20 -516 28 -665 13z
M5825 5315 c-299 -54 -559 -190 -776 -405 -100 -99 -158 -176 -211 -278 -32
-61 -38 -83 -38 -133 0 -99 45 -177 129 -222 66 -36 125 -43 192 -23 72 21
118 61 169 148 56 96 191 228 298 292 45 27 128 65 184 85 99 35 108 36 243
36 122 0 148 -3 205 -24 127 -46 212 -116 342 -281 58 -72 119 -104 202 -103
71 0 118 17 170 63 71 63 101 165 76 256 -28 99 -225 323 -366 416 -202 133
-390 189 -628 187 -66 0 -152 -7 -191 -14z m299 -215 c231 -23 422 -114 589
-281 70 -71 77 -82 77 -117 0 -96 -66 -78 -205 57 -202 197 -329 260 -540 268
-124 5 -216 -8 -300 -42 -11 -5 -38 -15 -60 -24 -158 -63 -306 -172 -451 -333
-125 -139 -149 -157 -191 -142 -30 10 -39 37 -29 79 11 42 116 164 205 237
236 194 463 282 791 306 8 1 60 -3 114 -8z M8323 5316 c-228 -44 -442 -162
-604 -334 -80 -84 -157 -191 -175 -240 -30 -84 -7 -191 54 -255 119 -125 303
-106 403 40 82 119 195 212 317 261 62 24 79 27 212 27 141 0 148 -1 245 -35
55 -20 138 -58 184 -85 110 -65 244 -195 300 -292 49 -86 98 -128 170 -149 98
-29 187 -1 258 80 79 90 83 197 12 322 -172 301 -495 537 -868 636 -101 26
-136 31 -276 34 -108 2 -184 -1 -232 -10z m307 -216 c323 -32 674 -220 847
-454 37 -50 43 -65 43 -107 0 -55 -12 -66 -57 -54 -29 7 -70 46 -198 189 -156
174 -380 306 -591 346 -53 10 -228 9 -289 -2 -79 -14 -230 -89 -315 -156 -25
-20 -83 -75 -130 -122 -69 -70 -93 -88 -124 -94 -32 -6 -43 -4 -59 12 -32 32
-15 73 62 151 192 195 400 285 686 299 17 1 73 -3 125 -8z M7103 3165 c-156
-28 -353 -112 -518 -219 -326 -213 -688 -619 -802 -899 -32 -79 -36 -153 -9
-173 44 -32 95 -13 298 109 337 204 629 330 893 388 116 26 376 36 498 20 116
-16 287 -59 412 -105 143 -53 414 -189 598 -300 181 -109 242 -135 283 -121
124 44 -72 415 -396 749 -413 426 -862 623 -1257 551z m414 -244 c207 -60 414
-182 636 -375 76 -65 197 -206 197 -228 0 -22 -30 -13 -148 41 -609 280 -1037
312 -1576 116 -70 -25 -175 -69 -234 -96 -132 -63 -202 -87 -202 -70 0 26 42
80 132 167 260 252 510 401 768 459 95 21 331 14 427 -14z"/>
</g>
</svg>
