<?xml version="1.0" standalone="no"?>
<!DOCTYPE svg PUBLIC "-//W3C//DTD SVG 20010904//EN"
 "http://www.w3.org/TR/2001/REC-SVG-20010904/DTD/svg10.dtd">
<svg version="1.0" xmlns="http://www.w3.org/2000/svg"
 width="2048.000000pt" height="2048.000000pt" viewBox="0 0 2048.000000 2048.000000"
 preserveAspectRatio="xMidYMid meet">
<metadata>
Created by potrace 1.13, written by Peter Selinger 2001-2015
</metadata>
<g transform="translate(0.000000,2048.000000) scale(0.192120,-0.192120)"
fill="#000000" stroke="none">
<path d="M5020 10319 c-1828 -135 -3363 -1466 -3759 -3259 -66 -302 -93 -548
-96 -905 l-2 -270 -184 -1 c-174 0 -188 -2 -264 -28 -103 -35 -160 -72 -234
-152 -69 -73 -124 -179 -140 -268 -15 -83 -15 -2629 0 -2712 16 -89 71 -195
140 -268 74 -79 131 -116 234 -153 l80 -28 365 0 c349 0 368 1 435 22 187 59
315 188 381 383 18 53 19 126 21 1785 1 1842 3 1970 28 2165 100 767 424 1439
945 1960 524 524 1179 838 1955 936 195 25 615 25 810 0 777 -98 1430 -411
1955 -936 321 -321 569 -701 734 -1128 120 -308 198 -647 226 -987 8 -87 12
-732 13 -1935 2 -1731 3 -1807 21 -1860 66 -195 194 -324 381 -383 67 -21 86
-22 425 -22 267 0 369 3 410 14 207 51 383 234 419 435 15 83 15 2629 0 2712
-36 199 -209 380 -414 435 -32 8 -115 13 -229 13 l-179 1 -2 265 c-3 267 -12
402 -41 605 -182 1269 -941 2387 -2057 3026 -714 409 -1550 598 -2377 538z
m770 -294 c892 -108 1680 -480 2309 -1090 621 -603 997 -1350 1121 -2230 11
-77 24 -223 30 -325 6 -102 15 -193 21 -202 5 -10 9 -31 9 -48 0 -16 5 -30 10
-30 6 0 10 -8 10 -18 0 -27 71 -110 143 -167 l29 -22 -174 -6 c-255 -9 -347
-43 -481 -179 -75 -75 -78 -78 -72 -46 4 18 23 76 43 128 19 52 43 116 52 143
9 26 20 50 24 54 3 3 6 139 6 302 0 317 -9 413 -64 676 -90 426 -274 873 -504
1225 -638 975 -1658 1562 -2796 1608 -661 27 -1232 -93 -1797 -379 -477 -241
-917 -618 -1250 -1069 -257 -349 -468 -797 -579 -1232 -81 -315 -92 -403 -97
-772 -3 -204 -1 -337 5 -350 53 -115 132 -329 132 -359 0 -5 -29 21 -64 59
-128 139 -241 183 -495 192 l-170 7 48 40 c65 54 122 140 135 205 4 19 11 89
16 155 26 354 63 608 124 850 230 909 789 1695 1586 2230 580 389 1251 617
1970 669 126 9 590 -3 720 -19z m-4224 -4396 c45 -14 79 -32 101 -54 l33 -33
-2 -1420 -3 -1420 -30 -39 c-71 -89 -177 -112 -500 -112 -353 0 -466 29 -532
137 l-23 37 0 1359 0 1360 49 47 c64 62 138 86 293 94 118 7 157 13 273 45
100 27 251 27 341 -1z m7869 0 c99 -27 163 -37 303 -48 107 -8 131 -13 187
-40 35 -18 73 -44 85 -58 20 -26 20 -32 20 -1399 0 -1362 0 -1373 -20 -1407
-26 -44 -82 -81 -156 -104 -51 -15 -100 -17 -359 -18 -282 0 -304 1 -370 22
-44 14 -86 36 -112 58 -79 68 -73 -64 -73 1487 0 1217 2 1393 15 1418 18 34
89 79 154 96 72 20 244 16 326 -7z M4750 7361 c-963 -200 -951 -197 -1016
-273 -15 -18 -37 -53 -48 -78 l-21 -45 0 -2278 c0 -1252 -2 -2277 -5 -2277 -3
0 -41 12 -85 25 -159 50 -293 69 -495 68 -219 0 -358 -21 -540 -82 -238 -80
-425 -196 -583 -361 -110 -115 -177 -223 -223 -357 -66 -194 -67 -366 -3 -558
135 -405 577 -708 1132 -776 140 -17 424 -6 549 20 214 46 458 155 619 275 99
75 238 216 296 301 58 87 109 191 140 292 l28 88 3 2214 c1 1218 3 2216 5
2217 1 2 266 57 587 124 322 66 604 129 626 139 63 29 110 76 141 139 l28 57
3 559 c2 368 -1 576 -8 609 -20 96 -85 148 -182 146 -29 -1 -456 -85 -948
-188z m878 -588 l-3 -508 -35 -17 c-19 -9 -143 -39 -275 -67 -132 -28 -347
-73 -478 -100 -137 -29 -262 -61 -294 -76 -93 -42 -233 -194 -233 -252 0 -7
-4 -13 -10 -13 -6 0 -11 -752 -12 -2162 l-3 -2163 -23 -70 c-13 -38 -30 -90
-38 -113 -23 -73 -104 -193 -184 -272 -164 -165 -395 -282 -670 -341 -137 -30
-433 -33 -577 -6 -197 37 -357 95 -498 181 -159 95 -262 201 -332 337 l-43 83
0 206 c1 192 2 208 24 259 87 200 332 394 627 494 150 51 261 69 464 74 172 4
205 2 348 -21 181 -30 215 -31 262 -12 79 33 195 185 195 254 0 16 4 32 10 38
6 6 11 762 12 2186 l3 2177 28 29 c18 19 50 36 85 45 31 9 395 86 807 171 824
169 791 163 823 165 l22 1 -2 -507z M7270 6550 c-344 -70 -638 -134 -655 -143
-53 -28 -110 -84 -140 -138 l-30 -54 -3 -1612 -2 -1612 -27 14 c-50 26 -167
40 -348 40 -114 0 -206 -5 -250 -14 -380 -75 -673 -314 -751 -612 -21 -78 -23
-224 -5 -299 131 -531 885 -810 1496 -554 202 85 377 240 460 407 82 164 78
53 70 1842 l-7 1580 423 87 c469 97 483 102 548 194 58 80 61 102 61 483 0
213 -4 361 -11 384 -21 76 -105 140 -180 136 -13 -1 -305 -59 -649 -129z m590
-426 c0 -165 -4 -293 -10 -303 -15 -29 -73 -47 -332 -101 -302 -64 -352 -76
-402 -102 -47 -24 -186 -155 -186 -175 0 -7 -4 -13 -10 -13 -5 0 -12 -16 -16
-35 -3 -19 -10 -35 -15 -35 -5 0 -9 -648 -9 -1538 0 -1351 -2 -1545 -15 -1597
-9 -32 -19 -64 -24 -69 -5 -6 -11 -27 -14 -47 -7 -50 -67 -139 -127 -191 -315
-271 -880 -287 -1235 -33 -75 53 -126 110 -160 179 -23 47 -25 59 -25 207 l0
158 48 63 c119 158 334 266 590 297 60 7 165 9 290 5 l197 -6 47 30 c53 35
121 116 139 167 7 19 17 35 21 35 4 0 8 16 8 35 0 19 5 35 10 35 7 0 10 507
10 1501 0 1411 1 1503 18 1531 9 16 33 38 54 49 38 19 1025 226 1141 238 4 1
7 -128 7 -285z"/>
</g>
</svg>
