<?xml version="1.0" standalone="no"?>
<!DOCTYPE svg PUBLIC "-//W3C//DTD SVG 20010904//EN"
 "http://www.w3.org/TR/2001/REC-SVG-20010904/DTD/svg10.dtd">
<svg version="1.0" xmlns="http://www.w3.org/2000/svg"
 width="2048.000000pt" height="2048.000000pt" viewBox="0 0 2048.000000 2048.000000"
 preserveAspectRatio="xMidYMid meet">
<metadata>
Created by potrace 1.13, written by Peter Selinger 2001-2015
</metadata>
<g transform="translate(0.000000,2048.000000) scale(0.192120,-0.192120)"
fill="#000000" stroke="none">
<path d="M4895 9213 c-837 -73 -1533 -667 -1731 -1478 -119 -487 -42 -1010
211 -1440 148 -252 402 -516 622 -648 29 -17 53 -35 53 -39 0 -5 -35 -6 -77
-4 -283 14 -577 -97 -793 -300 -195 -183 -315 -428 -342 -699 l-12 -110 -140
3 -141 4 -831 554 -831 554 -136 0 -137 0 0 -1945 0 -1945 140 0 140 0 832
555 832 555 137 0 137 0 4 -362 c4 -352 5 -366 30 -459 36 -132 78 -229 146
-334 182 -282 482 -467 815 -504 129 -15 3715 -15 3842 -1 258 29 470 128 657
308 144 139 248 314 305 512 l27 95 4 513 3 512 280 0 279 0 0 -140 0 -140
415 0 415 0 0 835 0 835 -415 0 -415 0 0 -140 0 -140 -279 0 -279 0 -4 222
c-4 192 -8 234 -27 303 -13 44 -24 86 -24 93 -1 8 23 21 58 33 101 34 264 116
365 184 368 247 615 614 712 1058 19 88 22 132 22 327 1 197 -2 238 -22 330
-46 212 -126 404 -240 580 -542 837 -1696 1009 -2460 368 -52 -44 -84 -64 -86
-56 -3 7 -12 47 -22 88 -107 468 -435 914 -867 1182 -335 209 -779 315 -1172
281z m-285 -379 c0 -8 -5 -12 -10 -9 -6 4 -8 11 -5 16 9 14 15 11 15 -7z m900
1 c0 -8 -4 -15 -10 -15 -5 0 -10 7 -10 15 0 8 5 15 10 15 6 0 10 -7 10 -15z
m-960 -16 c0 -15 -5 -19 -15 -15 -8 3 -15 1 -15 -4 0 -4 -16 -14 -35 -20 -19
-6 -35 -16 -35 -21 0 -5 -6 -9 -13 -9 -14 0 -195 -100 -224 -124 -10 -8 -47
-36 -83 -63 -108 -79 -281 -261 -359 -378 -94 -140 -182 -323 -228 -470 l-37
-120 -4 -285 c-4 -318 1 -364 64 -538 229 -635 739 -1048 1364 -1103 551 -48
1093 225 1410 711 104 160 211 422 244 600 25 131 22 491 -5 623 -29 143 -59
229 -124 359 -84 169 -191 320 -313 445 -99 101 -259 233 -282 233 -6 0 -10 4
-10 8 0 5 -37 28 -82 52 -46 24 -86 48 -89 52 -3 5 -12 10 -20 12 -8 1 -30 11
-49 21 -19 11 -38 20 -42 21 -5 1 -11 3 -15 4 -5 1 -11 2 -15 1 -5 0 -8 5 -8
13 0 14 21 11 108 -14 182 -53 354 -147 517 -280 118 -97 263 -258 332 -370
50 -79 106 -196 159 -332 79 -201 154 -307 264 -378 85 -55 129 -41 387 117
112 69 165 94 288 139 23 8 25 9 83 22 34 8 42 7 42 -4 0 -8 -3 -13 -7 -12
-27 5 -234 -115 -341 -199 -110 -86 -159 -135 -268 -268 -84 -104 -186 -302
-230 -450 -26 -84 -28 -105 -32 -326 -4 -226 -3 -241 21 -335 67 -264 247
-555 448 -723 239 -200 509 -301 804 -301 424 0 798 207 1055 584 53 78 145
273 181 381 32 98 33 103 37 324 5 295 -12 385 -112 596 -103 219 -233 373
-468 560 -31 25 -172 105 -185 105 -7 0 -13 4 -13 9 0 5 -16 15 -35 21 -24 8
-35 18 -35 31 0 14 4 18 13 12 6 -4 21 -9 32 -10 39 -6 171 -56 225 -86 289
-157 514 -403 610 -666 l30 -82 0 -443 c0 -421 -1 -446 -21 -507 -47 -146
-166 -337 -284 -455 -112 -112 -208 -181 -364 -259 -110 -56 -149 -82 -209
-139 -70 -67 -141 -157 -171 -217 -9 -19 -11 -53 -7 -125 3 -55 9 -179 12
-276 4 -134 9 -178 19 -178 7 0 14 -18 18 -46 2 -26 9 -49 14 -53 4 -3 21 -26
37 -50 41 -64 111 -135 164 -170 67 -42 152 -54 342 -49 204 6 223 15 378 168
l111 110 135 0 136 0 0 -545 0 -545 -120 0 c-145 0 -141 -2 -288 135 -80 75
-135 112 -181 124 -63 17 -243 23 -349 12 -124 -12 -163 -31 -261 -130 -93
-95 -111 -118 -118 -152 -3 -17 -12 -33 -19 -36 -12 -4 -14 -82 -14 -436 0
-401 -1 -437 -21 -522 -43 -189 -113 -319 -229 -429 -112 -105 -237 -170 -405
-209 -89 -21 -102 -21 -1915 -25 -1202 -2 -1864 1 -1940 7 -330 30 -562 168
-703 417 -42 75 -60 128 -87 258 -17 86 -20 137 -20 383 0 182 -4 283 -10 283
-5 0 -10 9 -10 20 0 11 -4 20 -9 20 -5 0 -12 12 -15 26 -9 35 -171 196 -221
220 -28 13 -68 20 -132 22 -109 5 -171 -11 -288 -71 -44 -23 -390 -248 -769
-500 -379 -252 -699 -462 -712 -467 l-24 -10 0 1605 c0 991 4 1605 9 1605 6 0
335 -216 732 -480 396 -264 758 -498 803 -520 154 -75 318 -77 422 -5 128 88
201 207 239 386 38 187 86 281 198 397 135 139 277 210 534 266 61 14 136 37
165 52 98 50 218 200 218 273 0 34 -31 100 -82 171 -21 30 -125 143 -232 250
-144 146 -208 219 -254 289 -74 112 -141 247 -176 354 l-26 77 0 509 0 509 31
89 c111 318 376 622 707 812 73 42 192 95 237 106 6 1 17 5 25 8 8 4 26 9 40
11 14 3 26 5 28 7 1 1 6 2 11 3 5 0 13 4 17 9 11 11 14 9 14 -14z m30 6 c0 -8
-4 -15 -10 -15 -5 0 -10 7 -10 15 0 8 5 15 10 15 6 0 10 -7 10 -15z m698 -180
c565 -92 1018 -530 1137 -1100 23 -110 31 -321 16 -439 -78 -620 -554 -1109
-1174 -1206 -100 -16 -321 -13 -434 5 -184 30 -399 117 -563 228 -111 76 -284
253 -363 373 -159 239 -230 479 -230 769 0 384 135 710 407 980 218 216 484
352 775 394 96 14 329 12 429 -4z m2459 -917 c-3 -8 -6 -5 -6 6 -1 11 2 17 5
13 3 -3 4 -12 1 -19z m748 13 c3 -5 1 -12 -5 -16 -5 -3 -10 1 -10 9 0 18 6 21
15 7z m35 -16 c0 -8 -4 -15 -10 -15 -5 0 -10 7 -10 15 0 8 5 15 10 15 6 0 10
-7 10 -15z m-220 -190 c569 -100 973 -632 912 -1202 -62 -593 -568 -1030
-1156 -1000 -381 20 -710 217 -905 545 -65 109 -104 212 -131 343 -31 146 -24
369 14 509 114 413 458 729 874 804 103 19 288 19 392 1z M5149 5000 c-25 -4
-63 -17 -85 -28 -53 -27 -171 -143 -180 -176 -3 -14 -10 -26 -15 -26 -5 0 -9
-581 -9 -1385 0 -762 4 -1385 8 -1385 4 0 14 -16 21 -36 19 -54 124 -159 190
-191 l56 -28 1305 0 1305 0 51 23 c62 28 166 131 194 193 19 43 20 68 20 1422
0 1189 -2 1382 -15 1413 -17 41 -144 166 -194 191 -34 17 -113 18 -1321 19
-707 1 -1306 -2 -1331 -6z m2681 -1615 l0 -1390 -1390 0 -1390 0 0 1390 0
1390 1390 0 1390 0 0 -1390z M5610 3385 l0 -835 833 0 832 0 0 835 0 835 -832
0 -833 0 0 -835z m1410 -10 l0 -585 -590 0 -590 0 0 585 0 585 590 0 590 0 0
-585z M3860 3329 c-129 -14 -247 -66 -362 -157 -135 -108 -255 -283 -293 -429
-19 -74 -20 -308 -1 -378 51 -191 225 -423 387 -518 399 -234 884 -24 1058
459 30 81 31 92 31 243 0 178 -9 219 -70 341 -77 150 -224 302 -361 371 -113
57 -262 83 -389 68z m195 -234 c98 -21 185 -67 260 -136 122 -114 177 -238
178 -399 1 -161 -50 -287 -163 -400 -109 -109 -234 -160 -391 -160 -46 0 -109
7 -139 15 -149 40 -286 150 -352 286 -46 92 -59 151 -59 257 0 152 53 277 165
387 139 137 314 189 501 150z M4941 7999 c-152 -27 -302 -109 -421 -229 -88
-90 -131 -159 -171 -272 -26 -76 -29 -95 -29 -220 0 -125 3 -145 29 -222 75
-225 240 -386 478 -468 367 -127 798 82 938 455 23 62 25 80 25 230 0 173 -5
196 -60 312 -82 171 -279 331 -485 394 -81 25 -224 35 -304 20z m238 -184
c208 -49 369 -215 417 -431 71 -319 -171 -638 -502 -661 -168 -12 -311 42
-430 161 -113 112 -164 235 -164 391 0 156 51 279 164 391 139 139 326 193
515 149z M7935 7150 c-94 -25 -137 -44 -220 -97 -133 -86 -241 -216 -304 -365
-25 -60 -26 -70 -26 -248 l0 -185 33 -77 c88 -202 245 -347 464 -426 66 -24
87 -26 223 -26 139 -1 156 1 230 27 247 87 432 273 494 497 29 103 29 276 1
378 -54 196 -191 357 -391 462 -148 77 -350 101 -504 60z m280 -165 c213 -45
387 -214 435 -424 19 -81 8 -231 -22 -312 -63 -170 -214 -304 -392 -348 -77
-19 -211 -15 -286 8 -193 60 -345 224 -385 416 -19 88 -18 142 0 230 20 96 66
184 133 257 141 152 324 214 517 173z"/>
</g>
</svg>
