<?xml version="1.0" standalone="no"?>
<!DOCTYPE svg PUBLIC "-//W3C//DTD SVG 20010904//EN"
 "http://www.w3.org/TR/2001/REC-SVG-20010904/DTD/svg10.dtd">
<svg version="1.0" xmlns="http://www.w3.org/2000/svg"
 width="2048.000000pt" height="2048.000000pt" viewBox="0 0 2048.000000 2048.000000"
 preserveAspectRatio="xMidYMid meet">
<metadata>
Created by potrace 1.13, written by Peter Selinger 2001-2015
</metadata>
<g transform="translate(0.000000,2048.000000) scale(0.192120,-0.192120)"
fill="#000000" stroke="none">
<path d="M8795 10145 c-396 -100 -727 -184 -735 -187 -21 -7 76 -36 191 -55
143 -25 156 -23 853 146 272 66 263 66 315 10 40 -43 95 -226 227 -751 107
-429 137 -562 141 -635 5 -88 5 -92 -20 -116 -13 -14 -43 -31 -65 -37 -23 -6
-55 -22 -72 -37 -36 -30 -115 -142 -106 -150 5 -5 477 103 482 110 0 1 -102
416 -228 922 -125 506 -230 930 -233 943 -3 12 -11 21 -18 21 -6 -1 -336 -84
-732 -184z M7005 9703 c-495 -124 -918 -229 -939 -235 l-39 -10 140 -141 c77
-78 389 -403 693 -722 304 -319 592 -620 638 -668 l86 -88 930 231 c512 127
937 234 945 236 10 3 -31 51 -121 142 -74 75 -384 398 -688 717 -746 782 -730
765 -738 764 -4 -1 -412 -103 -907 -226z m880 -132 c44 -20 156 -131 682 -683
188 -196 344 -366 348 -378 9 -29 -17 -53 -75 -69 -25 -7 -279 -71 -565 -143
-579 -145 -615 -150 -682 -106 -23 15 -230 224 -461 465 -556 581 -571 598
-545 624 10 10 790 210 1108 284 122 29 139 29 190 6z M5110 9228 l-845 -212
45 -13 c81 -24 180 -43 228 -43 72 0 207 29 702 149 594 145 614 152 665 206
22 23 50 61 63 84 21 37 21 41 5 41 -10 -1 -398 -96 -863 -212z M4118 8985
c-2 -3 -420 -108 -929 -234 -508 -126 -923 -232 -922 -235 1 -4 296 -314 655
-689 358 -375 705 -737 769 -804 l117 -123 933 231 c514 127 940 233 948 235
9 3 -46 66 -151 172 -91 92 -441 456 -779 810 -337 353 -618 642 -624 642 -7
0 -14 -2 -17 -5z m-3 -354 c40 -18 150 -129 749 -756 142 -148 264 -281 271
-296 29 -54 15 -59 -572 -205 -647 -161 -650 -162 -707 -140 -46 18 -163 133
-577 566 -479 502 -490 515 -459 544 11 10 1006 264 1175 299 43 10 82 6 120
-12z M1272 8273 c-767 -192 -902 -228 -897 -242 3 -8 108 -423 233 -921 l227
-905 5 -2460 5 -2460 23 -85 c115 -432 397 -720 822 -838 l95 -27 3725 -3
c2618 -2 3750 0 3808 8 505 66 905 474 961 983 8 66 11 852 11 2472 l0 2377
-4715 -4 c-3413 -2 -4705 0 -4682 8 18 6 250 64 517 128 267 65 491 120 499
122 8 3 -21 40 -80 102 -245 255 -1321 1384 -1368 1434 -29 31 -50 61 -47 67
13 21 80 23 187 6 191 -31 177 -33 1083 191 401 98 434 112 487 199 43 70 45
75 22 75 -10 -1 -424 -102 -921 -227z m-212 -1305 c332 -347 331 -346 295
-381 -18 -19 -250 -97 -286 -97 -39 0 -61 51 -118 273 -40 157 -51 214 -51
277 0 44 3 80 8 80 4 0 72 -68 152 -152z m1009 -855 c43 -32 78 -49 110 -54
25 -4 332 -8 682 -8 708 -1 674 -4 821 70 66 33 87 39 143 39 36 0 65 -2 65
-5 0 -2 -247 -438 -550 -967 l-550 -963 -970 -3 c-533 -1 -970 0 -970 2 0 8
996 1756 1077 1889 37 61 60 61 142 0z m3876 7 c96 -74 50 -70 785 -70 740 0
693 -4 851 76 57 28 79 34 134 34 l66 0 -17 -32 c-9 -18 -257 -455 -552 -970
l-535 -938 -974 0 -975 0 14 23 c8 12 240 416 515 897 275 481 520 908 544
948 53 87 68 90 144 32z m3886 -4 c86 -67 129 -86 199 -86 47 0 60 -3 60 -15
0 -8 9 -15 20 -15 13 0 20 -7 20 -20 0 -11 5 -20 10 -20 7 0 10 -209 10 -607
0 -803 6 -860 92 -1001 25 -41 38 -74 38 -97 l0 -35 -830 -2 c-457 -2 -830 -2
-830 0 0 5 1070 1872 1094 1909 12 19 29 33 41 33 11 0 45 -20 76 -44z m-8512
-244 c106 -6 136 -10 144 -23 13 -20 -21 -91 -164 -341 -108 -190 -151 -250
-166 -234 -4 4 -9 144 -11 311 l-3 304 33 -5 c18 -3 93 -8 167 -12z m4025 -49
c-2 -43 -20 -76 -324 -608 -141 -247 -291 -511 -333 -587 -42 -75 -95 -159
-117 -186 -33 -43 -46 -52 -90 -61 -56 -12 -1152 -15 -1229 -3 -49 8 -67 27
-58 63 6 25 672 1195 741 1303 37 57 72 93 105 108 9 4 306 6 661 5 l645 -2
-1 -32z m3894 14 c2 -10 -12 -51 -31 -90 -51 -108 -712 -1262 -748 -1307 -54
-67 -29 -65 -709 -65 -338 0 -627 3 -642 8 -36 10 -37 40 -2 108 30 61 554
980 663 1163 76 130 117 181 155 196 12 5 311 8 666 7 613 -2 645 -3 648 -20z
m-4535 -1624 c-19 -4 -23 -11 -23 -42 0 -92 56 -176 139 -208 43 -17 109 -18
916 -18 814 0 873 1 917 18 62 24 122 91 142 158 21 71 20 87 -6 92 -13 2 393
4 902 4 509 0 915 -2 903 -4 -19 -4 -23 -11 -23 -41 0 -92 48 -168 130 -206
44 -20 61 -21 668 -24 l622 -3 0 -1377 -1 -1377 -28 -70 c-70 -177 -204 -322
-377 -409 -115 -58 -229 -86 -394 -96 -191 -13 -7055 -13 -7250 0 -168 10
-270 34 -385 90 -198 95 -357 271 -415 459 -20 62 -20 97 -20 1422 l0 1358
803 3 802 3 56 28 c64 31 102 78 125 153 19 65 18 82 -8 87 -13 2 393 4 902 4
509 0 915 -2 903 -4z M7099 7860 c-31 -5 -92 -18 -135 -29 -44 -11 -135 -32
-204 -46 -214 -45 -810 -194 -860 -216 -55 -24 -74 -42 -125 -123 l-37 -59 38
7 c55 10 1634 403 1662 413 19 7 8 13 -65 31 -107 26 -199 33 -274 22z M3340
6923 c-19 -3 -82 -16 -140 -29 -58 -14 -159 -36 -225 -50 -191 -40 -835 -203
-865 -219 -50 -26 -159 -175 -128 -175 16 0 1645 405 1677 417 22 9 21 10 -15
21 -120 36 -209 46 -304 35z"/>
</g>
</svg>
