<?xml version="1.0" standalone="no"?>
<!DOCTYPE svg PUBLIC "-//W3C//DTD SVG 20010904//EN"
 "http://www.w3.org/TR/2001/REC-SVG-20010904/DTD/svg10.dtd">
<svg version="1.0" xmlns="http://www.w3.org/2000/svg"
 width="2048.000000pt" height="2048.000000pt" viewBox="0 0 2048.000000 2048.000000"
 preserveAspectRatio="xMidYMid meet">
<metadata>
Created by potrace 1.13, written by Peter Selinger 2001-2015
</metadata>
<g transform="translate(0.000000,2048.000000) scale(0.192120,-0.192120)"
fill="#000000" stroke="none">
<path d="M5055 10299 c-249 -36 -473 -196 -584 -416 -13 -27 -28 -43 -40 -43
-34 0 -317 -82 -456 -132 -458 -166 -859 -398 -1239 -715 l-99 -83 -217 0
c-185 0 -228 -3 -296 -20 -236 -61 -417 -212 -518 -432 -19 -40 -37 -88 -41
-106 l-7 -34 42 41 c60 58 274 212 378 271 132 76 186 90 399 100 251 12 281
22 340 115 32 51 42 53 124 29 117 -35 276 -135 338 -212 29 -37 29 -37 10
-61 -38 -47 -27 -73 82 -186 91 -95 100 -102 94 -73 -11 52 -59 162 -94 213
-17 25 -29 51 -26 56 12 18 213 156 339 232 220 132 395 212 681 312 83 29
150 57 150 61 0 5 -35 27 -78 48 -123 63 -156 62 -357 -14 -280 -105 -463
-198 -659 -334 -109 -76 -145 -83 -209 -42 -93 58 -85 81 60 178 62 41 123 80
136 87 12 6 22 17 22 24 0 24 79 74 265 168 179 90 378 174 508 215 31 10 57
24 57 31 0 7 4 13 10 13 5 0 45 25 89 54 44 30 97 60 118 66 33 10 40 18 53
57 14 42 19 47 62 60 27 7 105 52 175 99 254 171 322 194 598 201 290 8 417
-21 595 -137 158 -103 196 -125 258 -150 58 -24 66 -30 82 -69 14 -37 23 -45
71 -65 31 -12 89 -43 130 -68 41 -26 87 -50 102 -54 16 -3 31 -13 34 -20 2 -7
21 -18 41 -25 109 -35 336 -131 474 -200 186 -93 276 -148 316 -193 16 -18 70
-62 121 -97 93 -64 115 -94 94 -128 -16 -26 -86 -70 -111 -71 -29 0 -90 31
-172 88 -125 87 -363 216 -465 252 -27 10 -102 38 -166 63 -193 74 -293 73
-415 -5 l-49 -31 170 -57 c213 -71 312 -113 495 -206 159 -80 301 -167 453
-275 l98 -71 -21 -31 c-33 -49 -97 -188 -105 -227 l-7 -35 57 55 c125 120 156
178 120 226 -20 27 -20 29 27 80 89 97 229 176 367 208 60 14 61 14 73 -7 24
-47 70 -95 105 -112 29 -14 87 -21 243 -31 295 -18 326 -30 627 -257 77 -58
152 -120 166 -137 32 -38 33 -29 6 53 -80 241 -291 433 -543 497 -67 17 -113
20 -298 20 l-219 0 -92 78 c-474 400 -1049 696 -1623 834 l-131 32 -34 65
c-44 86 -179 224 -274 279 -86 50 -194 87 -298 101 -91 13 -425 13 -512 0z
M4394 9633 c-10 -80 1 -225 24 -309 33 -124 95 -227 202 -335 82 -82 108 -102
190 -142 158 -78 183 -82 510 -82 322 0 356 6 510 86 180 94 325 270 381 464
22 77 36 255 25 329 l-7 46 -914 0 -914 0 -7 -57z m1606 -230 c0 -20 -10 -57
-22 -82 -28 -59 -168 -198 -235 -234 -127 -68 -391 -104 -574 -78 -168 24
-270 60 -360 128 -52 39 -157 161 -183 210 -16 33 -21 75 -9 86 3 4 316 7 695
7 l688 0 0 -37z M5190 8354 c0 -354 -8 -324 70 -261 19 15 40 32 47 37 15 12
40 13 45 2 7 -17 99 -84 106 -78 10 11 15 512 5 569 l-8 47 -55 -50 c-30 -27
-62 -50 -71 -50 -9 0 -32 14 -50 30 -19 17 -46 40 -61 51 l-28 20 0 -317z
M1544 8242 c-36 -339 127 -645 421 -792 142 -70 201 -80 494 -80 334 0 420 19
579 124 84 55 127 95 186 169 123 154 181 355 162 558 l-7 74 -857 -3 c-472
-2 -883 1 -914 6 l-57 9 -7 -65z m1556 -260 c0 -127 -157 -274 -343 -322 -65
-16 -118 -20 -359 -22 l-283 -3 -57 27 c-32 15 -80 48 -108 74 -64 60 -130
186 -130 250 l0 44 640 0 640 0 0 -48z M7276 8271 c-13 -80 -6 -238 14 -317
67 -260 252 -459 515 -551 79 -27 84 -27 360 -31 237 -3 290 -1 350 13 241 58
426 208 529 426 62 130 85 265 72 410 l-7 74 -857 -3 c-472 -2 -883 1 -914 6
l-56 9 -6 -36z m1549 -270 c15 -67 -77 -242 -160 -306 -82 -62 -117 -68 -365
-66 -349 3 -451 21 -579 105 -116 76 -191 178 -191 257 l0 39 644 0 644 0 7
-29z M5170 8014 c-14 -2 -79 -11 -145 -20 -526 -71 -1042 -376 -1362 -805
-267 -360 -402 -739 -420 -1179 -23 -603 204 -1167 638 -1586 105 -101 214
-187 315 -249 44 -27 81 -50 82 -51 2 -1 -30 -76 -71 -166 -42 -90 -164 -356
-271 -593 -108 -236 -200 -431 -206 -433 -11 -4 -275 156 -334 201 -35 28 -38
29 -32 9 l7 -22 -909 2 -910 3 -6 -35 c-3 -19 -6 -78 -6 -130 0 -207 81 -402
226 -545 96 -94 196 -153 334 -197 71 -22 89 -23 360 -23 327 0 353 4 510 82
81 40 109 61 190 143 73 73 105 114 137 176 67 128 87 215 88 371 0 151 -4
150 86 31 33 -42 69 -84 81 -92 28 -20 88 -20 134 -1 l36 15 -6 -25 c-7 -29
-145 -335 -198 -440 l-35 -69 -21 46 c-11 26 -29 51 -40 57 -26 14 -73 14
-109 0 -27 -10 -28 -11 -8 -26 11 -8 55 -33 98 -54 48 -24 77 -45 74 -52 -3
-7 -74 -160 -157 -342 -83 -181 -230 -503 -326 -715 -96 -212 -178 -392 -183
-400 -7 -13 -50 -15 -292 -15 l-284 0 -57 -28 c-108 -53 -165 -153 -156 -271
3 -34 13 -77 23 -96 29 -58 95 -118 153 -140 51 -19 79 -20 907 -20 828 0 856
1 907 20 58 22 124 82 153 140 10 19 20 62 23 96 9 118 -48 218 -156 271 l-57
28 -280 1 c-154 0 -410 1 -569 2 l-289 2 78 51 c102 66 178 139 230 219 24 36
127 250 230 475 204 445 249 552 270 633 8 29 17 57 21 63 4 7 10 47 15 90 6
66 16 94 60 180 29 56 88 149 132 207 94 126 104 145 334 652 224 492 262 589
278 720 7 64 33 111 122 226 70 91 125 196 198 373 62 150 68 221 31 336 -27
82 -41 113 -50 105 -2 -3 -70 -149 -151 -325 -80 -176 -159 -347 -175 -380
-16 -33 -51 -109 -78 -170 -71 -160 -101 -215 -102 -188 0 29 -36 135 -65 193
-27 54 -141 172 -182 189 -51 21 -177 181 -158 200 12 12 175 -132 175 -155 0
-8 4 -14 8 -14 4 0 28 -19 52 -42 25 -24 48 -42 53 -40 5 1 20 -6 33 -16 21
-15 37 -17 103 -11 43 4 92 14 110 24 l33 16 -94 70 c-51 38 -147 125 -213
192 -284 287 -447 646 -474 1040 -59 849 504 1590 1344 1768 96 20 138 23 325
23 186 0 229 -3 320 -22 679 -147 1170 -637 1322 -1318 19 -86 22 -129 22
-324 0 -195 -3 -238 -22 -327 -73 -337 -222 -613 -456 -847 -66 -67 -160 -150
-208 -186 -49 -35 -88 -67 -88 -71 0 -26 191 -51 206 -27 3 4 15 8 28 8 12 0
26 3 30 8 4 4 11 7 14 7 4 0 55 48 114 106 58 59 116 109 127 112 25 6 25 8 4
-34 -29 -59 -101 -143 -155 -179 -28 -19 -65 -49 -82 -65 -40 -39 -116 -188
-123 -243 -3 -23 -9 -42 -13 -42 -4 0 -33 57 -65 128 -32 70 -73 161 -93 202
-33 70 -229 497 -310 674 l-36 79 -20 -43 c-29 -68 -56 -171 -56 -216 0 -54
20 -118 81 -259 65 -152 97 -210 180 -320 80 -107 108 -165 109 -223 0 -24 5
-52 11 -63 6 -11 17 -44 24 -72 18 -69 100 -260 294 -683 188 -413 189 -415
291 -550 97 -127 169 -269 180 -356 20 -153 71 -284 324 -838 173 -376 215
-457 275 -523 42 -47 132 -117 209 -163 l56 -34 -295 -2 c-162 -1 -420 -2
-574 -2 -270 -1 -282 -2 -326 -24 -148 -72 -206 -237 -134 -377 37 -73 108
-130 180 -145 34 -8 320 -10 905 -8 l855 3 41 22 c66 35 101 70 130 129 69
141 6 308 -141 376 -48 22 -59 23 -332 23 -155 0 -283 2 -286 5 -2 3 -11 23
-19 45 -9 22 -150 333 -313 690 -164 358 -307 670 -317 694 -24 52 -32 42 93
111 l81 44 -33 12 c-76 28 -127 4 -152 -70 l-13 -38 -59 123 c-32 68 -88 192
-125 274 -66 146 -112 247 -449 982 -88 194 -161 356 -161 360 0 5 26 24 58
42 296 175 582 489 755 828 268 527 298 1154 81 1703 -83 210 -185 382 -342
576 -310 383 -783 649 -1292 729 -100 15 -417 29 -470 19z m1487 -728 c58 -40
119 -133 100 -152 -16 -16 -157 125 -157 157 0 5 -4 9 -10 9 -5 0 -10 5 -10
11 0 14 38 2 77 -25z m-2597 14 c0 -18 -104 -132 -154 -168 -46 -34 -48 -35
-41 -11 13 43 99 151 135 170 38 21 60 24 60 9z m3147 -1422 c-2 -35 -3 -9 -3
57 0 66 1 94 3 63 2 -32 2 -86 0 -120z m-3760 5 c-2 -32 -3 -8 -3 52 0 61 1
87 3 58 2 -29 2 -78 0 -110z m-317 -3070 c0 -103 -98 -211 -269 -297 -93 -48
-173 -59 -406 -58 -180 0 -221 3 -288 21 -142 37 -251 113 -311 215 -27 47
-48 120 -39 142 4 12 113 14 659 14 l654 0 0 -37z M3470 7963 c1 -4 7 -35 15
-68 8 -33 15 -79 15 -102 0 -47 -14 -61 -82 -83 -21 -6 -38 -15 -38 -18 0 -4
80 -87 178 -185 l179 -179 7 73 c8 92 22 109 90 110 106 1 107 -2 -89 198
-176 180 -275 271 -275 254z M6955 7750 c-120 -120 -216 -222 -212 -226 3 -4
38 -10 76 -13 39 -4 73 -9 76 -12 3 -3 9 -38 14 -78 5 -40 12 -75 16 -79 7 -8
356 340 352 351 -1 5 -27 18 -57 30 -52 21 -55 24 -58 60 -3 34 5 87 24 164 4
13 2 23 -3 23 -4 0 -107 -99 -228 -220z M1646 7527 c-147 -322 -268 -779 -306
-1152 -18 -179 -17 -175 -49 -175 -48 0 -176 -37 -242 -70 -178 -89 -308 -225
-377 -393 -27 -65 -56 -173 -33 -122 11 25 40 52 171 157 190 152 244 189 357
244 61 31 117 61 123 68 5 8 16 37 23 65 l12 51 235 -1 c186 0 248 -4 300 -17
l65 -17 7 -43 c18 -107 100 -165 239 -167 41 -1 80 -5 87 -9 6 -4 33 -37 59
-73 37 -52 46 -73 45 -102 -2 -27 7 -50 38 -96 47 -71 50 -58 11 43 l-29 72
414 0 c228 0 414 3 414 6 0 3 -18 28 -40 54 -52 62 -52 90 0 155 l40 50 -58 6
c-31 4 -274 7 -539 8 l-482 1 -47 29 c-25 16 -68 38 -95 47 -56 20 -54 14 -39
149 35 311 118 638 239 939 18 43 30 80 28 83 -17 16 -195 -94 -236 -146 -57
-72 -118 -259 -186 -571 -17 -82 -37 -143 -57 -177 l-29 -53 -70 0 -69 0 0
142 c0 127 4 158 36 297 20 86 56 218 80 293 58 182 61 217 34 358 -12 63 -25
121 -30 129 -6 12 -18 -5 -44 -62z M8946 7528 c-45 -205 -45 -223 10 -406 95
-320 107 -383 112 -574 l4 -178 -70 0 -70 0 -25 43 c-16 27 -40 109 -67 232
-80 358 -133 501 -214 572 -45 40 -183 119 -192 111 -2 -3 10 -38 27 -79 49
-120 128 -355 159 -479 47 -189 67 -303 95 -556 l4 -42 -102 -50 -102 -51
-527 -3 c-289 -2 -529 -6 -533 -10 -4 -4 11 -29 34 -56 23 -27 41 -59 41 -73
0 -13 -20 -49 -45 -81 l-45 -58 419 0 420 0 -24 -52 c-13 -29 -27 -66 -31 -83
l-6 -30 27 35 c41 54 57 90 51 115 -4 16 6 40 33 81 59 90 76 103 141 102 72
-1 116 9 168 39 52 30 82 75 82 125 0 36 2 38 53 54 42 14 100 18 304 22 l252
4 6 -29 c19 -86 44 -112 139 -148 124 -46 188 -87 286 -178 25 -24 72 -65 105
-92 89 -73 155 -138 155 -152 0 -11 -173 -13 -900 -13 -850 0 -900 1 -901 18
-1 9 -5 1 -11 -18 -18 -67 -12 -268 10 -353 40 -149 139 -304 252 -395 30 -25
57 -49 58 -54 8 -19 -136 -341 -220 -493 -81 -146 -229 -369 -320 -479 l-73
-89 -76 -19 -76 -18 -374 376 c-206 206 -395 394 -421 415 l-47 40 -6 -48
c-14 -115 -13 -112 -53 -123 -20 -5 -59 -10 -87 -10 l-50 0 399 -399 399 -400
-55 -60 c-31 -33 -71 -86 -90 -118 -41 -69 -84 -170 -76 -179 12 -11 236 166
298 236 74 82 117 110 169 110 108 0 207 64 239 152 l17 50 230 -4 c203 -4
238 -7 299 -27 67 -22 68 -23 62 -53 -18 -91 43 -174 222 -300 167 -117 231
-169 248 -198 15 -25 15 -25 8 10 -3 19 -16 61 -29 93 -66 166 -190 303 -355
391 l-59 31 63 97 c95 147 208 357 280 518 68 154 140 350 131 358 -16 16
-152 -85 -227 -168 -37 -40 -79 -108 -137 -222 -115 -223 -168 -313 -219 -366
l-44 -45 -76 6 c-43 3 -85 8 -94 12 -33 13 -19 57 57 184 93 159 190 358 210
436 18 69 10 134 -29 233 l-24 61 56 -28 c160 -80 252 -94 571 -89 245 4 246
4 338 36 112 38 178 74 264 145 118 98 214 253 254 412 25 99 23 274 -4 378
-72 275 -312 503 -585 555 -45 8 -86 16 -91 17 -6 2 -17 61 -24 131 -31 321
-110 667 -221 969 -46 126 -121 295 -130 295 -4 0 -15 -33 -24 -72z m827
-2220 c11 -76 -52 -198 -140 -270 -92 -77 -182 -110 -345 -128 -57 -7 -148
-23 -203 -36 -110 -26 -156 -29 -235 -14 -85 16 -140 49 -231 140 -106 106
-159 194 -166 280 l-6 60 660 0 661 0 5 -32z m-2069 -1635 c4 -3 -15 -18 -43
-33 -28 -16 -68 -42 -89 -59 l-39 -30 8 57 c10 73 26 85 99 76 30 -4 59 -9 64
-11z M5190 7209 l0 -352 49 44 c90 81 90 81 124 48 12 -11 38 -34 58 -50 l36
-29 7 38 c8 48 8 532 0 599 l-7 52 -36 -27 c-20 -14 -44 -34 -54 -44 -26 -27
-50 -22 -104 20 -26 21 -54 41 -60 46 -10 6 -13 -66 -13 -345z M4266 7138 c-3
-18 -7 -50 -10 -71 -3 -22 -10 -45 -16 -52 -6 -7 -45 -16 -87 -20 l-76 -7 244
-244 c163 -163 246 -239 251 -231 4 7 8 28 8 48 0 50 18 97 41 104 10 3 47 9
81 13 l63 8 -200 203 c-110 112 -221 221 -247 242 l-47 40 -5 -33z M6142 6935
c-133 -132 -242 -242 -242 -246 0 -3 31 -9 69 -13 87 -9 99 -22 108 -110 3
-36 9 -66 12 -66 8 0 481 473 481 482 0 4 -32 10 -70 14 -80 8 -99 23 -101 84
-1 19 -5 49 -8 65 -7 30 -10 28 -249 -210z M5152 6754 c-162 -35 -336 -135
-445 -255 -163 -179 -247 -432 -218 -658 28 -217 111 -382 269 -533 63 -60
101 -87 183 -127 146 -72 235 -94 384 -94 134 0 213 15 330 64 255 106 442
335 500 609 23 110 20 260 -9 372 -97 381 -431 641 -820 637 -61 -1 -139 -7
-174 -15z m324 -285 c148 -45 277 -116 326 -181 14 -18 40 -60 59 -93 l33 -60
4 -190 3 -190 -32 -70 c-76 -167 -176 -286 -287 -338 l-67 -32 -190 0 -190 0
-65 31 c-36 17 -86 50 -111 72 -82 73 -192 256 -219 364 -8 30 -11 97 -8 177
4 128 4 129 46 215 58 117 114 172 233 230 180 87 326 107 465 65z M3747 6061
l-49 -6 38 -50 c43 -56 49 -99 19 -133 -11 -11 -28 -34 -38 -51 l-18 -31 346
0 c389 0 363 -7 283 78 -27 28 -48 55 -48 61 0 5 25 36 55 69 l55 59 -68 7
c-81 7 -507 5 -575 -3z M6310 6061 l-45 -6 41 -45 c62 -68 66 -79 42 -115 -12
-16 -37 -47 -57 -67 l-35 -38 352 0 c395 0 372 -5 301 70 -24 25 -33 43 -33
68 0 18 4 36 10 40 5 4 24 25 41 48 l32 41 -82 6 c-99 8 -504 6 -567 -2z
M2441 5603 c-1 -10 -190 -13 -910 -13 l-909 0 -7 -76 c-39 -414 245 -781 654
-844 111 -18 539 -8 615 14 110 31 201 76 276 136 128 102 210 217 263 367 26
76 31 105 34 213 2 69 0 145 -5 170 -6 25 -10 39 -11 33z m-251 -315 c0 -31
-9 -71 -20 -97 -50 -110 -189 -262 -275 -301 -97 -44 -217 -50 -331 -15 -27 8
-105 22 -174 30 -154 20 -186 28 -277 71 -123 59 -226 181 -247 295 -13 75
-69 69 665 69 l659 0 0 -52z M4320 5115 c-129 -129 -231 -238 -227 -242 4 -4
38 -10 74 -14 80 -8 88 -17 98 -104 3 -36 10 -65 14 -65 17 0 301 298 301 316
0 10 -9 30 -20 44 -23 30 -25 68 -5 134 16 51 21 166 7 166 -4 0 -113 -106
-242 -235z M6084 5281 c3 -37 13 -87 21 -111 20 -57 19 -71 -10 -127 l-26 -47
153 -153 c103 -103 155 -148 160 -140 4 7 8 34 8 60 0 66 30 97 97 98 106 1
110 -6 -147 253 -129 130 -241 236 -249 236 -11 0 -13 -14 -7 -69z M5195 4984
c-96 -49 -146 -92 -200 -174 -101 -152 -215 -418 -215 -504 -1 -23 -7 -52 -15
-66 -8 -14 -14 -34 -15 -46 0 -20 -100 -178 -162 -256 -43 -55 -60 -89 -258
-524 -226 -495 -260 -578 -270 -668 -11 -90 -29 -151 -74 -249 -39 -86 -127
-227 -186 -297 -21 -25 -57 -84 -80 -130 -89 -177 -371 -806 -391 -872 -31
-102 -18 -170 47 -247 14 -17 31 -31 38 -31 6 0 24 26 40 57 28 57 483 1052
516 1130 l18 41 69 -25 c91 -34 218 -70 272 -79 l45 -7 -24 39 c-92 152 -106
163 -192 145 -29 -6 -76 -22 -105 -35 l-51 -24 9 26 c26 71 225 495 233 494 5
-1 19 -26 31 -56 12 -31 37 -78 55 -105 24 -38 34 -69 41 -123 7 -56 14 -77
33 -95 l24 -22 17 47 c22 58 78 154 117 197 27 32 29 32 66 19 55 -19 71 -17
167 21 98 40 198 69 290 86 33 6 94 26 136 45 42 19 91 34 108 34 17 0 59 -14
92 -31 33 -16 106 -41 162 -55 56 -13 158 -45 226 -71 121 -46 125 -46 179
-35 43 9 59 9 70 0 27 -23 93 -128 120 -192 l28 -64 26 28 c15 16 30 46 33 67
10 64 26 104 62 151 35 47 60 98 70 144 l5 27 -88 -25 c-49 -14 -135 -36 -192
-49 l-102 -25 -73 55 c-126 97 -262 151 -412 162 l-70 5 3 432 c2 237 1 459
-3 494 l-7 62 -36 -29 c-20 -16 -47 -39 -59 -50 -34 -32 -34 -32 -114 38 -25
23 -49 41 -53 41 -3 0 -6 -223 -6 -495 l0 -495 -55 0 c-74 0 -196 -26 -270
-57 -68 -29 -181 -99 -209 -131 -11 -12 -30 -22 -44 -22 -29 0 -332 78 -353
90 -11 7 -5 27 29 102 24 51 147 322 275 601 208 457 234 507 252 502 258 -75
636 -85 925 -24 52 11 101 21 109 22 10 1 44 -63 104 -193 49 -107 170 -373
269 -590 99 -217 207 -453 240 -525 91 -196 188 -416 188 -426 0 -5 -10 -3
-23 6 -35 23 -136 55 -173 55 -54 0 -82 -20 -128 -89 -62 -95 -70 -111 -53
-111 22 0 198 48 291 80 50 16 94 30 98 30 5 0 20 -25 33 -55 42 -94 492
-1079 516 -1128 l23 -47 29 28 c78 74 92 173 43 302 -33 84 -266 600 -356 785
-32 67 -81 149 -111 187 -55 68 -159 237 -196 318 -26 56 -41 115 -53 206 -11
91 -67 231 -260 654 -204 447 -242 522 -293 581 -51 58 -138 200 -150 244 -5
17 -12 57 -17 90 -27 192 -202 530 -323 623 -54 42 -160 96 -177 90 -11 -4 26
-88 273 -630 187 -411 203 -448 192 -448 -3 0 -25 10 -48 21 -63 33 -176 69
-213 69 -18 0 -68 -11 -111 -25 -99 -31 -167 -32 -268 0 -44 14 -99 25 -122
25 -42 0 -167 -44 -230 -80 -18 -11 -33 -18 -33 -16 0 7 94 217 283 633 109
237 197 436 197 442 0 18 -22 12 -95 -25z m155 -2124 c0 -5 6 -10 14 -10 7 0
19 -7 26 -15 11 -13 3 -15 -65 -15 -68 0 -76 2 -65 15 7 8 21 15 31 15 11 0
19 5 19 10 0 6 9 10 20 10 11 0 20 -4 20 -10z M2105 4749 c-35 -66 -55 -143
-55 -206 0 -98 52 -217 215 -493 34 -58 65 -115 69 -127 11 -36 -26 -61 -95
-65 -76 -4 -108 5 -141 39 -34 35 -136 211 -227 390 -76 149 -116 204 -199
273 -61 52 -130 95 -138 87 -4 -3 4 -36 17 -74 78 -237 261 -607 401 -815 57
-86 58 -82 -22 -124 -165 -86 -329 -295 -365 -463 l-7 -33 41 41 c23 23 110
93 194 155 84 62 164 126 179 142 42 46 71 120 64 165 l-6 38 52 16 c102 29
163 35 357 35 l196 0 30 -63 c38 -79 85 -113 175 -128 36 -5 73 -14 82 -20 10
-5 24 -9 32 -9 7 0 31 -19 52 -42 92 -100 145 -148 248 -222 102 -73 108 -76
102 -49 -20 83 -96 212 -175 296 l-45 48 392 392 c216 216 392 395 392 398 0
3 -33 9 -72 13 -40 4 -79 12 -86 19 -6 7 -16 46 -20 87 l-8 75 -420 -418 -420
-417 -77 20 c-88 22 -83 17 -217 195 -157 209 -310 480 -420 745 -29 69 -54
127 -56 128 -1 2 -10 -11 -19 -29z m990 -1086 c4 -10 11 -37 15 -59 l6 -41
-74 48 c-41 27 -80 50 -86 50 -22 3 50 17 90 18 31 1 44 -4 49 -16z M5208
4572 c-16 -3 -18 -18 -18 -133 0 -143 -1 -141 62 -87 55 47 68 58 76 58 4 0
32 -20 62 -45 30 -25 58 -45 62 -45 5 0 8 56 8 125 l0 125 -32 0 c-18 -1 -49
-9 -68 -19 -31 -17 -38 -17 -62 -5 -44 23 -72 31 -90 26z M4994 4247 c24 -59
76 -127 103 -138 18 -7 58 -5 132 7 96 14 115 14 200 0 110 -18 142 -10 184
46 24 31 57 97 57 114 0 4 -24 3 -52 -1 -179 -24 -398 -23 -586 1 l-54 7 16
-36z M7284 3153 c-10 -16 -98 -73 -309 -202 l-50 -30 37 -15 c90 -38 142 -16
222 98 25 33 55 71 68 83 l23 22 -3 -119 c-2 -93 1 -137 18 -207 20 -86 84
-231 118 -269 9 -11 32 -37 51 -59 87 -102 221 -189 366 -236 63 -20 94 -23
326 -27 336 -5 431 12 597 109 73 44 217 188 261 261 90 155 126 327 105 506
l-7 52 -909 0 -910 0 6 25 c8 29 5 31 -10 8z m1536 -346 c0 -101 -94 -221
-221 -283 -108 -53 -150 -59 -414 -59 -205 0 -249 3 -300 18 -92 29 -188 83
-259 148 -71 65 -106 126 -106 182 l0 37 650 0 650 0 0 -43z M4396 2169 c-9
-48 -7 -176 4 -247 40 -242 196 -454 415 -563 146 -72 205 -82 490 -83 210 -1
263 2 330 18 201 46 375 167 484 336 88 137 136 328 120 485 -4 44 -8 81 -8
83 -1 1 -412 2 -915 2 l-913 0 -7 -31z m1564 -267 c0 -141 -155 -295 -353
-350 -91 -25 -493 -25 -587 1 -146 39 -272 129 -327 234 -31 59 -50 134 -38
153 4 7 218 10 656 10 l649 0 0 -48z"/>
</g>
</svg>
