<?xml version="1.0" standalone="no"?>
<!DOCTYPE svg PUBLIC "-//W3C//DTD SVG 20010904//EN"
 "http://www.w3.org/TR/2001/REC-SVG-20010904/DTD/svg10.dtd">
<svg version="1.0" xmlns="http://www.w3.org/2000/svg"
 width="2048.000000pt" height="2048.000000pt" viewBox="0 0 2048.000000 2048.000000"
 preserveAspectRatio="xMidYMid meet">
<metadata>
Created by potrace 1.13, written by Peter Selinger 2001-2015
</metadata>
<g transform="translate(0.000000,2048.000000) scale(0.192120,-0.192120)"
fill="#000000" stroke="none">
<path d="M4995 10319 c-864 -58 -1707 -344 -2425 -821 -1315 -876 -2133 -2294
-2230 -3868 -102 -1671 642 -3281 1985 -4295 1115 -841 2533 -1174 3920 -920
363 66 786 197 1090 335 81 37 79 40 -53 60 -122 19 -191 8 -442 -65 -372
-108 -618 -159 -978 -202 -213 -25 -855 -26 -1062 0 -433 53 -705 113 -1165
259 -88 28 -200 68 -249 90 -1038 456 -1902 1286 -2408 2313 -224 456 -365
909 -444 1430 -23 154 -24 180 -24 695 0 484 2 548 20 675 76 522 227 1010
455 1465 67 134 181 341 213 387 11 15 50 75 87 133 316 492 807 996 1275
1307 732 488 1433 746 2280 840 191 21 752 24 930 5 503 -54 886 -146 1355
-325 196 -75 523 -239 714 -358 51 -33 95 -59 97 -59 4 0 278 -178 349 -227
95 -66 250 -198 440 -378 252 -237 559 -626 774 -979 267 -438 505 -1057 596
-1551 61 -328 58 -291 63 -875 2 -374 0 -575 -8 -640 -34 -282 -114 -645 -206
-940 -33 -106 -35 -122 -31 -205 3 -49 12 -110 20 -135 l14 -45 26 56 c82 180
195 554 252 832 76 376 99 616 99 1017 0 310 -9 453 -45 705 -283 1986 -1733
3617 -3673 4130 -506 133 -1088 189 -1611 154z M5051 9210 c-757 -60 -1471
-329 -2065 -778 -274 -207 -552 -485 -757 -758 -429 -567 -676 -1190 -765
-1924 -25 -202 -25 -638 0 -840 46 -385 123 -691 258 -1030 288 -724 817
-1369 1479 -1803 1008 -661 2300 -818 3417 -415 79 29 82 31 62 45 -32 23
-173 71 -226 78 -37 5 -84 -1 -184 -24 -155 -35 -334 -65 -500 -83 -152 -16
-728 -16 -880 0 -474 52 -812 149 -1215 352 -590 295 -1076 732 -1448 1300
-265 405 -447 872 -532 1360 -24 141 -25 156 -25 643 0 489 0 501 26 645 96
556 326 1090 667 1551 513 694 1304 1204 2160 1391 1001 219 2035 24 2872
-543 50 -33 169 -119 265 -191 397 -295 741 -715 985 -1205 140 -280 257 -621
314 -911 48 -243 51 -290 51 -735 0 -465 -3 -497 -66 -812 -18 -95 -34 -190
-34 -212 0 -46 31 -148 64 -210 22 -41 24 -43 34 -25 19 35 82 253 112 384
212 937 74 1922 -385 2747 -183 328 -368 575 -634 847 -635 647 -1427 1032
-2346 1141 -158 19 -548 27 -704 15z M5127 8099 c-644 -46 -1258 -321 -1725
-773 -371 -359 -638 -819 -762 -1311 -120 -477 -114 -954 16 -1435 90 -331
281 -701 510 -990 95 -120 340 -361 459 -451 329 -251 680 -419 1060 -509 497
-118 1008 -98 1488 57 122 39 127 51 32 78 -50 15 -58 14 -226 -19 -96 -19
-236 -42 -311 -50 -178 -21 -498 -21 -676 0 -149 17 -401 64 -478 90 -254 84
-535 228 -739 377 -200 146 -296 237 -471 442 -309 362 -497 740 -590 1184
-23 109 -24 129 -24 543 0 394 2 438 21 531 46 232 128 461 240 675 97 186
178 305 354 517 144 173 432 406 675 544 119 68 356 176 473 215 91 30 333 89
427 105 227 36 644 39 855 6 522 -82 957 -281 1355 -617 389 -329 683 -794
811 -1283 49 -186 49 -185 49 -692 l0 -482 -30 -138 c-36 -163 -39 -253 -10
-300 11 -18 22 -33 24 -33 7 0 75 213 96 304 103 433 99 906 -10 1331 -98 379
-252 696 -499 1020 -86 114 -327 360 -446 455 -215 174 -537 356 -792 449
-363 132 -768 188 -1156 160z M5180 7179 c-420 -35 -830 -229 -1137 -537 -163
-165 -241 -273 -348 -483 -72 -142 -112 -246 -152 -400 -25 -98 -27 -119 -30
-390 -5 -310 0 -364 53 -546 54 -189 200 -482 306 -615 280 -350 667 -589
1100 -678 365 -74 778 -27 1093 126 75 36 100 54 150 111 33 37 91 99 128 137
67 67 68 69 50 90 -10 11 -19 23 -20 25 -1 1 -50 -29 -108 -68 -384 -257 -835
-345 -1283 -251 -495 104 -930 446 -1152 905 -222 458 -222 992 0 1450 222
459 659 802 1152 905 220 45 416 48 643 10 506 -86 961 -427 1194 -895 255
-511 235 -1095 -55 -1597 l-27 -47 78 -73 c43 -40 82 -74 86 -76 5 -2 9 27 9
65 0 62 5 78 41 149 66 127 123 277 149 394 7 30 17 71 23 90 15 55 21 548 7
643 -35 238 -151 536 -289 740 -322 478 -823 773 -1384 817 -135 11 -142 11
-277 -1z M5065 5887 c-116 -45 -185 -143 -185 -262 0 -124 -39 -78 757 -875
720 -721 724 -725 738 -700 31 54 14 114 -61 213 -26 34 -314 330 -639 657
-367 369 -598 609 -608 632 -26 56 -22 104 10 125 42 28 119 23 178 -12 32
-18 232 -209 540 -515 678 -672 770 -752 870 -752 36 0 65 16 65 35 0 5 -314
325 -697 709 -774 775 -755 759 -877 757 -34 0 -75 -6 -91 -12z M8016 3159
c585 -585 1069 -1066 1076 -1070 49 -26 427 -40 538 -19 407 75 634 314 591
623 -24 172 -125 366 -282 542 -93 105 -389 383 -484 456 -332 253 -676 420
-1030 500 -97 22 -118 23 -786 26 l-686 4 1063 -1062z m159 781 c226 -13 442
-68 619 -157 95 -48 408 -248 525 -337 224 -169 533 -504 581 -631 5 -14 10
-86 10 -160 0 -130 -1 -134 -26 -165 -35 -40 -121 -84 -226 -112 -72 -20 -107
-23 -268 -23 -157 0 -193 3 -235 19 -44 16 -133 102 -778 745 -400 399 -739
743 -753 763 -46 66 -41 68 193 68 114 -1 276 -5 358 -10z M6443 3226 l3 -721
26 -105 c66 -267 185 -523 369 -795 226 -335 447 -564 812 -843 94 -72 272
-163 367 -189 99 -26 257 -24 341 5 135 46 235 136 299 266 66 134 75 184 74
401 0 169 -3 204 -28 313 -15 67 -30 132 -34 142 -4 11 -508 521 -1120 1133
l-1113 1113 4 -720z m1099 -713 c455 -456 841 -847 858 -870 l30 -41 0 -290 0
-290 -28 -53 c-23 -45 -37 -59 -84 -83 -49 -24 -69 -29 -135 -29 -166 0 -322
76 -585 284 -178 142 -336 306 -473 494 -33 44 -79 105 -104 135 -112 138
-227 350 -287 530 l-39 115 -3 463 c-2 366 0 462 10 462 7 0 385 -372 840
-827z M9103 1990 c-36 -39 -41 -59 -35 -152 5 -73 3 -79 -20 -103 -25 -24 -26
-25 -104 -13 -44 6 -90 9 -104 5 -25 -6 -90 -62 -90 -77 0 -4 31 -39 68 -78
116 -121 213 -148 335 -94 141 62 206 246 137 381 -20 40 -134 161 -151 161
-4 0 -20 -13 -36 -30z"/>
</g>
</svg>
