<?xml version="1.0" standalone="no"?>
<!DOCTYPE svg PUBLIC "-//W3C//DTD SVG 20010904//EN"
 "http://www.w3.org/TR/2001/REC-SVG-20010904/DTD/svg10.dtd">
<svg version="1.0" xmlns="http://www.w3.org/2000/svg"
 width="2048.000000pt" height="2048.000000pt" viewBox="0 0 2048.000000 2048.000000"
 preserveAspectRatio="xMidYMid meet">
<metadata>
Created by potrace 1.13, written by Peter Selinger 2001-2015
</metadata>
<g transform="translate(0.000000,2048.000000) scale(0.192120,-0.192120)"
fill="#000000" stroke="none">
<path d="M5030 9449 c-2190 -112 -4043 -1442 -4560 -3272 -161 -568 -182
-1200 -58 -1777 18 -84 28 -106 85 -195 87 -132 196 -241 288 -286 68 -33 72
-34 195 -34 115 1 133 3 220 34 139 47 332 145 715 361 925 522 1263 680 1454
680 152 0 186 -91 111 -303 -80 -227 -179 -403 -635 -1137 -578 -929 -655
-1083 -655 -1309 1 -129 27 -223 96 -341 96 -164 160 -211 544 -403 652 -327
1337 -511 2107 -568 213 -15 774 -6 978 15 1270 138 2380 644 3201 1461 345
344 591 679 804 1100 309 608 449 1294 400 1960 -60 802 -362 1539 -906 2209
-126 155 -443 472 -604 604 -1030 846 -2376 1273 -3780 1201z m755 -224 c536
-44 1008 -148 1490 -331 164 -62 330 -131 400 -166 28 -14 109 -51 180 -83
257 -113 585 -330 889 -589 223 -189 535 -528 702 -761 321 -447 542 -967 639
-1498 l26 -148 -4 -432 c-3 -412 -5 -439 -30 -582 -116 -660 -323 -1139 -724
-1672 -323 -430 -762 -816 -1268 -1115 -653 -385 -1375 -618 -2180 -703 -206
-22 -735 -31 -950 -16 -743 52 -1402 227 -2040 541 -319 157 -402 216 -464
334 -31 59 -31 59 -31 217 0 150 1 161 27 221 65 150 193 368 518 888 292 466
461 753 563 960 123 248 163 362 169 491 5 88 3 102 -19 151 -34 74 -136 181
-204 214 -51 25 -61 26 -157 21 -250 -12 -492 -126 -1627 -762 -96 -54 -233
-127 -305 -162 -314 -153 -479 -164 -622 -39 -95 83 -149 198 -184 392 -17 96
-19 157 -19 578 0 426 2 483 20 591 105 622 394 1240 824 1759 311 378 760
755 1211 1021 78 46 465 235 481 235 2 0 52 20 110 45 398 170 906 307 1377
370 333 45 854 58 1202 30z M5731 8650 c-322 -68 -567 -299 -652 -615 -31
-112 -30 -297 0 -410 75 -281 272 -490 551 -587 91 -31 101 -32 250 -33 176 0
230 11 365 76 171 81 303 213 385 384 67 139 84 212 84 365 0 87 -5 146 -18
195 -26 101 -106 259 -169 336 -103 124 -270 232 -422 274 -70 20 -307 29
-374 15z m364 -264 c155 -49 295 -160 354 -280 l31 -63 0 -207 c0 -230 -3
-246 -72 -348 -108 -159 -278 -252 -483 -265 -236 -15 -467 96 -583 280 -67
106 -74 140 -70 349 3 181 3 184 33 243 17 34 59 89 100 131 56 56 90 81 165
117 124 61 205 78 340 73 76 -3 127 -12 185 -30z M2985 8100 c-133 -21 -295
-93 -400 -178 -133 -107 -243 -279 -286 -447 -28 -111 -28 -290 1 -400 83
-322 341 -563 664 -620 103 -18 175 -19 266 -5 326 52 591 287 682 607 30 103
32 323 4 423 -82 298 -310 526 -600 600 -94 24 -246 33 -331 20z m295 -256
c151 -34 314 -152 385 -278 l35 -63 0 -216 c0 -250 -5 -271 -85 -378 -117
-157 -296 -243 -505 -243 -122 0 -196 16 -295 64 -108 53 -185 117 -241 201
-78 118 -84 142 -84 353 l0 183 32 64 c21 42 58 90 107 140 166 167 398 229
651 173z M8281 6990 c-523 -72 -850 -593 -685 -1090 42 -125 99 -215 204 -320
124 -124 223 -182 391 -227 91 -24 300 -24 394 1 293 77 517 294 600 581 132
457 -151 936 -615 1039 -88 20 -211 26 -289 16z m229 -234 c41 -8 100 -24 131
-35 127 -48 259 -160 317 -268 l32 -61 0 -223 c0 -250 -1 -253 -79 -367 -103
-152 -280 -247 -486 -259 -260 -16 -493 106 -615 322 l-45 80 -3 209 -3 209
31 64 c119 241 428 382 720 329z M7945 4561 c-120 -23 -245 -76 -354 -150
-114 -78 -247 -249 -310 -400 l-36 -86 -3 -241 c-3 -238 -3 -242 23 -317 102
-298 324 -512 620 -598 67 -20 102 -24 220 -24 124 0 151 4 235 28 235 70 418
222 548 460 18 31 43 91 57 133 24 72 25 89 25 302 0 214 -1 229 -25 298 -63
184 -207 371 -360 468 -145 93 -263 127 -455 131 -80 2 -163 0 -185 -4z m364
-86 c93 -23 225 -88 310 -153 131 -100 225 -235 282 -402 28 -83 33 -111 37
-225 5 -161 -17 -266 -84 -401 -103 -210 -308 -379 -534 -441 -101 -27 -330
-25 -433 5 -139 40 -258 109 -359 208 -114 112 -184 231 -230 391 -29 102 -31
304 -4 403 108 394 449 652 841 635 61 -2 139 -11 174 -20z M4635 3954 c-154
-16 -336 -64 -440 -117 -162 -82 -311 -229 -390 -386 -47 -93 -55 -136 -55
-287 0 -122 3 -150 24 -211 42 -123 120 -259 216 -374 413 -498 1247 -727
1815 -500 230 93 411 283 489 517 23 66 26 93 26 206 0 111 -4 140 -24 202
-62 184 -157 328 -320 483 -236 226 -578 389 -941 448 -91 15 -327 26 -400 19z
m439 -253 c577 -116 1033 -489 1063 -871 15 -201 -99 -381 -308 -484 -52 -26
-139 -58 -194 -73 -93 -25 -115 -27 -315 -27 -189 -1 -228 2 -323 22 -228 49
-435 133 -610 248 -129 84 -296 249 -355 349 -203 347 -66 673 340 809 130 44
224 56 418 52 129 -3 204 -9 284 -25z"/>
</g>
</svg>
