<?xml version="1.0" standalone="no"?>
<!DOCTYPE svg PUBLIC "-//W3C//DTD SVG 20010904//EN"
 "http://www.w3.org/TR/2001/REC-SVG-20010904/DTD/svg10.dtd">
<svg version="1.0" xmlns="http://www.w3.org/2000/svg"
 width="2048.000000pt" height="2048.000000pt" viewBox="0 0 2048.000000 2048.000000"
 preserveAspectRatio="xMidYMid meet">
<metadata>
Created by potrace 1.13, written by Peter Selinger 2001-2015
</metadata>
<g transform="translate(0.000000,2048.000000) scale(0.192120,-0.192120)"
fill="#000000" stroke="none">
<path d="M4670 10300 c-1576 -70 -2794 -342 -3135 -701 -74 -79 -93 -128 -94
-239 0 -41 83 -1164 184 -2495 101 -1331 202 -2667 225 -2970 23 -302 52 -689
66 -859 14 -170 23 -310 21 -312 -2 -2 -62 -20 -133 -39 -177 -49 -495 -156
-639 -217 -570 -239 -855 -506 -832 -782 25 -300 424 -591 1142 -833 1251
-422 3194 -609 5000 -483 1824 128 3316 548 3730 1050 297 359 53 724 -699
1044 -133 57 -462 169 -650 222 l-138 38 5 51 c4 27 31 383 62 790 30 407 141
1861 245 3230 104 1370 189 2531 187 2580 -2 71 -7 100 -26 135 -147 287 -868
540 -1951 684 -300 40 -639 71 -1050 96 -228 14 -1269 21 -1520 10z m1295
-300 c763 -32 1422 -107 1973 -226 165 -35 232 -58 232 -79 0 -33 -214 -96
-610 -179 -517 -108 -1049 -183 -1615 -227 -227 -17 -993 -23 -1251 -10 -759
40 -1552 169 -2059 336 -107 36 -131 47 -144 66 -16 27 15 43 144 74 508 120
1277 213 2020 244 281 12 1035 12 1310 1z m-4106 -592 c-20 -61 -24 -93 -24
-189 l0 -116 44 -87 c57 -112 158 -218 251 -263 84 -40 302 -108 572 -177
1593 -407 3392 -404 5208 10 324 74 541 133 615 169 86 41 169 120 224 213 61
102 71 140 71 261 0 90 -4 115 -25 166 -27 66 -32 105 -12 105 7 0 40 -18 75
-41 l62 -41 0 -334 0 -334 -150 -1962 c-82 -1080 -154 -2010 -160 -2068 -7
-71 -20 -127 -38 -172 l-27 -67 -125 -30 c-1630 -394 -3565 -443 -5245 -135
-350 65 -858 186 -1025 246 l-64 23 -22 65 c-27 79 -20 -7 -204 2401 -128
1683 -140 1856 -140 2090 0 290 -8 264 94 328 68 42 76 30 45 -61z m608 42
c585 -187 1345 -321 2093 -370 275 -18 796 -23 1076 -11 853 37 1603 148 2458
362 307 78 327 79 416 34 171 -88 203 -314 64 -447 -51 -48 -73 -57 -304 -117
-754 -195 -1510 -320 -2290 -377 -300 -22 -958 -30 -1260 -15 -842 41 -1623
168 -2320 379 -235 71 -273 87 -318 133 -54 54 -75 102 -80 182 -8 134 71 248
197 284 64 18 121 10 268 -37z m-367 -5093 c1343 -394 2876 -536 4450 -412
687 55 1350 161 2016 324 109 27 201 48 203 46 2 -2 -24 -48 -57 -103 -74
-118 -88 -150 -107 -245 -9 -39 -20 -83 -25 -97 -5 -14 -21 -166 -35 -339 -26
-327 -34 -716 -15 -765 12 -33 61 -62 127 -77 l53 -12 0 -81 c0 -235 -146
-486 -391 -668 -183 -138 -380 -212 -804 -303 -1196 -256 -2970 -271 -4125
-34 -578 119 -915 258 -1151 477 -163 151 -279 384 -279 562 l0 57 59 16 c46
13 66 25 85 50 26 34 26 35 26 225 0 120 -11 338 -30 584 -34 443 -46 548 -60
562 -5 5 -10 17 -10 26 0 9 -32 68 -71 131 -85 137 -88 143 -63 136 10 -4 102
-31 204 -60z m-298 -2007 c14 -10 52 -68 86 -127 112 -200 214 -318 382 -444
295 -222 784 -381 1491 -484 1252 -183 2930 -119 3987 151 376 96 579 200 783
404 116 116 191 221 268 376 57 115 72 134 109 134 41 0 392 -121 564 -195
238 -102 456 -235 531 -324 24 -30 27 -40 27 -112 0 -100 -13 -131 -82 -196
-275 -258 -1028 -526 -1964 -697 -1116 -205 -2478 -274 -3729 -190 -1027 68
-1980 232 -2675 459 -415 136 -745 301 -897 448 -57 55 -73 92 -73 172 l0 66
57 60 c125 131 387 273 745 403 109 39 342 114 359 116 4 0 17 -9 31 -20z"/>
</g>
</svg>
