<?xml version="1.0" standalone="no"?>
<!DOCTYPE svg PUBLIC "-//W3C//DTD SVG 20010904//EN"
 "http://www.w3.org/TR/2001/REC-SVG-20010904/DTD/svg10.dtd">
<svg version="1.0" xmlns="http://www.w3.org/2000/svg"
 width="2048.000000pt" height="2048.000000pt" viewBox="0 0 2048.000000 2048.000000"
 preserveAspectRatio="xMidYMid meet">
<metadata>
Created by potrace 1.13, written by Peter Selinger 2001-2015
</metadata>
<g transform="translate(0.000000,2048.000000) scale(0.192120,-0.192120)"
fill="#000000" stroke="none">
<path d="M6601 10253 c-3 -26 -64 -83 -107 -99 -41 -15 -56 -16 -139 -5 -78
10 -98 10 -127 -2 -39 -16 -85 -67 -94 -103 -5 -21 -9 -22 -28 -12 -11 7 -52
12 -91 12 -81 0 -139 -22 -222 -84 -88 -67 -89 -64 44 -176 216 -183 477 -410
535 -466 37 -35 38 -79 2 -107 -15 -12 -35 -21 -45 -21 -11 0 -55 32 -98 70
l-80 70 -7 -36 c-16 -85 21 -245 86 -374 17 -33 30 -63 30 -68 0 -9 -166 -142
-178 -142 -4 1 -52 59 -107 130 -96 124 -124 150 -164 150 -28 0 -168 -109
-182 -142 -6 -15 -9 -38 -5 -50 3 -13 53 -82 111 -155 l106 -132 85 69 c122
100 118 99 162 51 64 -70 113 -61 220 42 79 76 99 142 62 202 l-20 32 42 39
c24 22 118 98 211 169 l168 129 -43 38 c-122 108 -260 177 -369 186 l-66 4 14
42 c11 29 14 75 11 161 -3 104 -6 127 -28 171 l-26 52 52 5 c89 9 189 72 242
152 31 47 57 145 49 186 -2 13 -5 19 -6 12z m-430 -484 c12 -18 23 -47 23 -65
1 -21 9 -39 21 -48 19 -14 19 -15 -7 -25 -15 -6 -34 -8 -42 -5 -20 8 -76 117
-76 148 0 22 4 26 29 26 22 0 36 -8 52 -31z m-98 -64 c13 -8 33 -28 45 -44
l21 -29 -77 25 c-42 14 -79 28 -82 30 -8 8 32 33 52 33 10 0 29 -7 41 -15z
M5515 9975 c-45 -44 -34 -69 73 -158 l78 -65 11 -68 c9 -49 22 -82 50 -123 99
-145 187 -202 323 -209 88 -4 96 -17 -75 128 -60 52 -154 134 -207 183 l-98
89 0 67 c0 37 5 72 11 78 15 15 -85 103 -118 103 -13 0 -35 -11 -48 -25z
M6750 9723 c-8 -3 -43 -28 -78 -55 -114 -91 -113 -107 18 -272 56 -69 103
-126 105 -126 3 0 26 15 52 34 53 37 115 66 144 66 14 0 22 -14 34 -54 26 -90
49 -114 159 -169 75 -37 114 -63 158 -108 32 -33 58 -65 58 -71 0 -6 10 -31
21 -55 18 -37 20 -54 15 -106 -4 -35 -11 -68 -15 -76 -5 -7 -36 -31 -70 -54
-192 -131 -319 -220 -426 -301 -263 -198 -1349 -1051 -1407 -1104 -54 -50
-144 -156 -188 -222 -57 -85 -88 -119 -129 -140 -25 -13 -59 -32 -74 -43 -21
-14 -31 -16 -41 -8 -21 18 -76 195 -79 252 l-2 51 53 21 c33 12 62 32 76 51
31 42 56 149 56 242 0 89 19 172 56 240 31 57 147 214 153 208 9 -9 52 75 76
148 24 74 34 168 17 168 -4 0 -13 -5 -20 -12 -9 -9 -12 -3 -12 28 0 28 6 47
20 59 11 10 20 25 20 34 0 28 53 51 114 51 43 0 56 -3 56 -15 0 -8 -5 -15 -11
-15 -5 0 -7 -4 -4 -10 3 -5 28 -10 55 -10 67 0 100 29 106 90 4 45 4 45 -58
96 -142 116 -265 174 -368 174 l-60 0 10 26 c16 42 23 195 11 259 -15 82 -47
142 -106 201 -121 121 -295 110 -441 -28 l-53 -50 105 -82 c86 -67 111 -81
133 -78 19 2 47 -7 84 -28 50 -28 58 -30 63 -15 4 9 1 34 -6 55 -14 41 -3 70
24 70 24 0 67 -57 73 -96 3 -21 12 -44 20 -51 51 -40 -135 -10 -228 37 -21 11
-39 19 -39 16 0 -2 96 -81 213 -176 116 -95 220 -181 230 -192 37 -43 6 -111
-50 -111 -23 0 -49 15 -99 56 -38 32 -72 57 -75 57 -4 0 -11 -24 -14 -54 -12
-94 32 -260 104 -395 l18 -34 -71 -57 c-92 -75 -127 -112 -171 -185 -86 -144
-121 -373 -89 -581 4 -30 -2 -37 -126 -138 l-130 -107 -52 41 c-28 23 -69 50
-89 61 -48 24 -151 49 -205 49 l-42 0 -136 174 c-75 96 -144 177 -152 180 -42
16 -73 5 -146 -53 -121 -95 -121 -99 32 -291 l121 -151 42 35 c42 34 104 69
143 80 19 6 24 0 40 -46 35 -97 105 -142 274 -174 83 -16 111 -11 166 31 l33
25 66 -83 c62 -76 105 -144 105 -165 0 -5 -23 -19 -50 -32 -63 -29 -101 -64
-123 -111 -9 -20 -24 -39 -32 -43 -8 -3 -15 -13 -15 -23 0 -11 -20 -29 -51
-46 -48 -26 -119 -80 -494 -373 -88 -69 -198 -150 -245 -181 -119 -79 -340
-246 -762 -576 -352 -275 -413 -328 -527 -449 -56 -61 -61 -64 -91 -48 -41 22
-52 101 -48 357 3 263 2 257 80 355 16 21 45 67 64 103 41 81 46 150 13 204
l-21 35 43 35 c23 20 127 102 230 183 l188 147 -47 42 c-119 105 -250 170
-356 177 -71 4 -71 4 -82 -24 -11 -28 -9 -32 49 -85 50 -47 60 -61 60 -89 0
-22 -7 -39 -22 -52 -39 -31 -66 -23 -139 42 -37 33 -74 66 -82 73 -16 12 -87
76 -339 306 -97 87 -148 128 -155 121 -16 -16 -12 -141 7 -195 24 -70 146
-196 224 -233 51 -24 70 -27 158 -27 l100 0 1 -80 c1 -90 42 -229 94 -321 l29
-51 -62 -46 c-174 -128 -252 -274 -278 -515 -21 -203 30 -503 118 -690 37 -78
96 -116 191 -120 51 -3 79 0 95 10 28 18 66 33 52 20 -24 -22 -437 -310 -632
-440 -598 -399 -1199 -733 -1635 -908 l-98 -39 0 -447 0 -448 23 9 c417 162
594 239 913 399 850 426 1799 1070 2944 1996 364 295 764 628 1580 1317 1624
1371 2401 1917 3028 2130 192 65 250 74 487 73 284 0 465 -35 735 -140 112
-44 280 -131 280 -145 0 -5 -63 -89 -109 -145 -5 -6 -12 -26 -16 -45 -4 -19
-21 -63 -37 -99 l-29 -65 23 -15 c12 -8 55 -39 96 -67 40 -29 75 -53 78 -53 2
0 4 322 4 714 l0 715 -112 36 c-461 149 -951 191 -1328 114 -319 -65 -692
-217 -1085 -441 l-130 -75 -6 -59 c-3 -32 -9 -67 -13 -77 -7 -15 -1909 -1509
-2003 -1573 -64 -43 -156 -25 -199 41 -23 35 -21 110 3 144 34 45 2004 1580
2045 1593 31 9 45 8 79 -5 23 -9 45 -14 50 -12 14 9 48 112 59 177 20 128 -17
249 -117 382 -99 132 -175 209 -241 244 -64 34 -158 62 -209 62 -30 0 -41 11
-140 137 -59 75 -119 150 -133 165 -25 28 -72 43 -100 31z m2825 -994 c149
-15 275 -38 438 -80 l37 -10 0 -175 c0 -164 -1 -176 -17 -169 -10 3 -68 22
-129 40 -308 94 -652 118 -909 65 -504 -104 -1119 -463 -2090 -1220 -340 -265
-665 -532 -1565 -1290 -800 -674 -1151 -963 -1535 -1266 -1066 -840 -1941
-1414 -2740 -1799 -179 -87 -402 -185 -453 -200 l-22 -6 2 176 3 177 160 77
c430 206 728 374 1232 695 229 146 504 341 610 432 54 47 109 91 123 98 14 7
64 16 111 18 102 7 171 34 283 112 120 84 1745 1356 1815 1421 125 116 239
301 241 390 0 11 19 34 43 52 23 17 80 67 127 110 47 43 94 84 103 92 11 9 56
17 111 21 108 9 170 33 275 107 65 46 1591 1235 1746 1361 87 70 157 141 239
242 84 102 94 110 272 202 391 200 737 313 1039 338 109 9 294 4 450 -11z
m-4360 -1999 c38 -13 134 -9 170 5 11 5 -78 -74 -199 -176 -273 -230 -280
-236 -273 -218 38 93 49 155 45 245 l-5 94 76 64 76 64 36 -33 c20 -18 53 -38
74 -45z m-300 -422 c45 -49 53 -98 23 -154 -20 -38 -158 -149 -1018 -820 -547
-427 -1005 -780 -1018 -785 -13 -5 -35 -9 -49 -9 -36 0 -102 40 -119 72 -19
37 -18 108 4 139 9 15 433 352 942 750 1233 963 1082 852 1148 847 47 -4 60
-10 87 -40z M5502 9628 c-25 -13 -37 -46 -28 -82 5 -20 55 -49 282 -165 152
-78 281 -141 287 -141 31 0 -61 68 -149 110 -150 72 -244 156 -244 217 0 14
-16 28 -53 46 -58 30 -62 30 -95 15z M4618 9169 c-55 -31 -44 -85 28 -139 30
-22 55 -39 55 -38 1 2 3 26 4 55 2 28 8 60 14 71 9 17 7 24 -15 41 -29 23 -59
26 -86 10z M4710 8947 c0 -60 26 -121 82 -195 65 -85 88 -104 164 -139 62 -28
179 -43 209 -26 15 9 -7 31 -151 146 -93 74 -199 160 -236 192 l-68 57 0 -35z
M4541 8874 c-27 -34 -27 -60 2 -86 20 -19 539 -298 554 -298 3 0 -2 10 -13 21
-10 12 -68 46 -129 76 -186 93 -284 180 -285 253 0 17 -9 31 -29 43 -42 25
-76 22 -100 -9z M8800 7799 c-91 -23 -363 -157 -486 -238 -49 -33 -131 -95
-182 -138 -62 -53 -134 -101 -221 -147 -124 -66 -281 -174 -462 -316 -154
-121 -183 -162 -182 -253 l1 -59 -129 -106 -129 -107 0 -3048 0 -3049 -47 28
c-27 15 -54 34 -62 41 -18 19 -87 53 -106 53 -8 0 -15 5 -15 10 0 6 -62 10
-165 10 -140 0 -165 2 -165 15 0 11 -12 15 -45 15 l-45 0 0 45 c0 33 -4 45
-15 45 -13 0 -15 57 -15 450 0 293 -3 450 -10 450 -7 0 -10 694 -10 2063 0
2031 0 2064 -20 2104 -20 43 -62 83 -113 109 -57 30 -145 -2 -277 -100 -131
-97 -444 -374 -544 -481 -94 -101 -131 -131 -255 -213 -131 -86 -165 -115
-357 -306 -117 -116 -217 -224 -223 -239 -12 -31 -15 -87 -5 -87 8 0 100 73
284 226 509 421 638 529 665 553 17 15 91 78 165 141 74 63 228 194 343 292
l207 179 0 -2706 0 -2705 555 0 555 0 0 3168 0 3167 223 171 c406 312 692 511
941 654 123 71 361 187 448 219 l58 21 -3 -3700 -2 -3700 558 0 557 0 0 3619
c0 2883 -3 3621 -12 3628 -15 11 -213 98 -245 108 l-23 6 0 -3658 c0 -2098 -4
-3664 -9 -3672 -10 -15 -26 -7 -135 66 -26 18 -57 33 -67 33 -10 0 -19 5 -19
10 0 6 -62 10 -165 10 -140 0 -165 2 -165 15 0 11 -12 15 -45 15 l-45 0 0 45
c0 33 -4 45 -15 45 -13 0 -15 57 -15 450 0 293 -3 450 -10 450 -7 0 -10 1031
-10 3073 0 3022 0 3074 -19 3113 -24 50 -94 108 -146 123 -48 13 -34 14 -125
-10z M2820 7797 c-33 -17 -48 -59 -31 -89 8 -13 39 -45 69 -72 l56 -50 14 35
c8 19 23 44 35 57 l22 23 -57 55 c-60 57 -69 61 -108 41z M3178 7776 c-53 -19
-158 -84 -158 -98 0 -3 79 -79 176 -169 333 -310 314 -294 335 -281 21 14 24
9 9 -18 -8 -16 -1 -27 49 -71 64 -56 79 -86 60 -122 -16 -29 -28 -37 -62 -37
-23 0 -76 44 -290 244 -144 134 -282 265 -307 290 -24 25 -48 46 -52 46 -12 0
-9 -143 3 -181 18 -52 114 -175 167 -214 67 -49 168 -79 236 -71 l54 6 0 -78
c-1 -93 27 -202 79 -311 20 -42 37 -79 37 -83 1 -4 -37 -38 -83 -74 l-85 -67
-25 33 c-14 19 -70 89 -123 157 -129 162 -144 166 -264 65 -62 -52 -69 -62
-72 -98 -3 -38 4 -49 118 -192 74 -92 126 -149 133 -145 6 4 54 40 106 81 l94
74 37 -41 c61 -66 121 -54 203 40 56 64 66 105 39 160 l-20 39 44 39 c24 21
124 100 223 177 99 76 180 142 181 145 1 16 -164 135 -239 171 -65 32 -98 42
-153 46 -65 4 -69 6 -64 26 14 59 17 196 6 251 -33 161 -156 276 -294 275 -34
-1 -77 -7 -98 -14z m224 -238 c28 -23 48 -62 48 -93 0 -17 5 -36 12 -43 16
-16 2 -16 -57 0 -36 10 -45 17 -45 34 0 11 -5 35 -11 53 -17 48 15 79 53 49z
M2735 7555 c-38 -37 -32 -68 18 -108 50 -40 137 -100 137 -94 0 3 -7 22 -16
43 -11 27 -14 53 -10 86 6 46 6 48 -31 72 -47 32 -67 33 -98 1z M8217 7265
c-15 -33 -32 -68 -37 -77 -6 -10 -10 -24 -10 -31 0 -27 -59 -107 -80 -107 -11
0 -20 4 -20 8 0 4 -20 18 -45 30 l-45 22 0 -565 0 -565 -287 0 -288 0 63 -59
c56 -53 78 -91 52 -91 -5 0 -10 -6 -10 -14 0 -7 -12 -22 -26 -32 -15 -10 -37
-30 -50 -44 l-24 -25 285 -3 285 -2 0 -560 0 -560 -287 0 -288 0 63 -60 c57
-55 77 -90 52 -90 -5 0 -10 -6 -10 -14 0 -7 -15 -23 -32 -36 -18 -12 -41 -33
-51 -46 l-18 -24 286 0 285 0 0 -561 0 -561 -165 7 c-91 4 -220 4 -287 0
l-121 -7 39 -39 c21 -21 45 -38 52 -39 6 0 12 -7 12 -15 0 -8 5 -15 10 -15 6
0 10 -9 10 -20 0 -11 -4 -20 -10 -20 -5 0 -10 -7 -10 -15 0 -8 -10 -20 -22
-26 -13 -7 -36 -26 -51 -43 l-28 -31 285 -3 286 -2 0 -558 0 -558 -209 4
c-116 3 -245 1 -287 -3 l-77 -7 39 -39 c21 -21 45 -38 52 -39 6 0 12 -9 12
-20 0 -11 5 -20 10 -20 6 0 10 -7 10 -15 0 -8 -4 -15 -10 -15 -5 0 -10 -7 -10
-15 0 -8 -10 -19 -21 -26 -29 -15 -79 -60 -79 -71 0 -4 128 -8 285 -8 l285 0
0 -605 0 -605 138 0 137 0 -3 605 -3 605 331 2 331 3 -36 38 c-19 20 -43 37
-54 37 -10 0 -21 9 -24 20 -3 12 -14 20 -26 20 -12 0 -21 6 -21 15 0 8 9 15
19 15 11 0 22 9 26 19 3 11 15 23 27 26 11 4 36 22 55 40 l35 33 -85 7 c-47 4
-196 6 -331 3 l-246 -3 0 557 0 558 331 2 332 3 -34 33 c-18 18 -43 35 -55 38
-12 3 -24 14 -27 25 -3 11 -14 19 -26 19 -14 0 -21 6 -21 20 0 13 7 20 20 20
11 0 23 7 26 15 3 8 15 17 26 21 11 3 36 21 55 39 l35 33 -166 7 c-91 4 -240
4 -331 0 l-165 -7 0 561 0 561 331 0 331 0 -33 39 c-19 22 -44 40 -55 40 -13
1 -24 9 -27 21 -3 12 -14 20 -26 20 -30 0 -26 28 4 36 14 3 25 12 25 20 0 8 6
14 14 14 7 0 33 18 57 40 l44 40 -333 0 -332 0 0 560 0 560 333 0 332 1 -43
39 c-24 22 -50 40 -57 40 -7 0 -15 9 -18 20 -3 12 -14 20 -26 20 -14 0 -21 6
-21 20 0 15 7 20 25 20 16 0 25 6 25 15 0 8 6 15 14 15 7 0 33 18 57 40 l44
40 -332 0 -333 0 -2 673 -3 672 -28 -60z m-57 -1250 c0 -8 4 -15 10 -15 5 0
23 -15 40 -34 37 -41 137 -96 174 -96 19 0 26 -5 26 -20 0 -12 -7 -20 -17 -20
-48 -1 -233 -127 -233 -159 0 -6 -19 -11 -45 -11 -25 0 -45 5 -45 11 0 5 -21
30 -47 54 -51 47 -129 91 -181 101 -43 9 -46 44 -3 44 16 0 48 9 72 19 49 22
158 110 158 129 1 19 91 16 91 -3z m0 -1390 c0 -8 4 -15 10 -15 5 0 24 -15 41
-34 32 -35 154 -106 183 -106 9 0 16 -7 16 -15 0 -8 -7 -15 -16 -15 -50 0
-234 -126 -234 -159 0 -6 -20 -11 -45 -11 -27 0 -45 5 -45 11 0 7 -12 23 -27
36 -84 74 -113 93 -170 110 -67 19 -80 37 -35 46 54 11 123 49 169 92 26 25
51 45 55 45 4 0 8 7 8 15 0 11 12 15 45 15 33 0 45 -4 45 -15z m0 -1390 c0 -8
4 -15 10 -15 5 0 22 -14 37 -30 34 -39 117 -86 166 -95 27 -5 37 -12 37 -26 0
-11 -7 -19 -16 -19 -50 0 -234 -126 -234 -159 0 -6 -20 -11 -45 -11 -27 0 -45
5 -45 11 0 7 -12 23 -27 36 -84 74 -113 93 -170 110 -77 22 -86 47 -22 58 65
11 104 31 155 80 27 25 52 45 56 45 4 0 8 7 8 15 0 11 12 15 45 15 33 0 45 -4
45 -15z m0 -1390 c0 -8 5 -15 10 -15 6 0 20 -12 33 -26 25 -29 130 -94 153
-94 7 0 14 -4 14 -10 0 -5 9 -10 20 -10 34 0 22 -27 -14 -34 -50 -10 -114 -48
-174 -106 -73 -70 -101 -69 -179 4 -62 60 -117 92 -175 102 -40 7 -54 34 -18
34 11 0 20 5 20 10 0 6 8 10 18 10 31 0 97 37 143 80 24 22 47 40 51 40 4 0 8
7 8 15 0 11 12 15 45 15 33 0 45 -4 45 -15z M2828 7255 c-44 -80 -101 -105
-244 -105 l-106 0 -39 -39 c-22 -21 -42 -52 -45 -69 l-6 -31 -62 6 c-79 7
-154 -14 -218 -62 -27 -19 -48 -39 -48 -43 0 -4 55 -55 122 -112 67 -58 158
-138 202 -179 45 -40 100 -89 122 -107 l42 -34 31 17 c31 18 31 18 31 105 0
110 -14 179 -51 246 l-29 52 33 0 c75 0 211 99 250 182 21 44 40 138 35 176
l-3 27 -17 -30z m-400 -481 c26 -18 52 -65 52 -93 0 -11 8 -25 18 -30 15 -9
14 -10 -8 -11 -47 0 -69 12 -94 51 -36 53 -34 92 4 98 3 1 16 -6 28 -15z
M1827 7048 c-22 -18 -36 -59 -27 -83 4 -11 32 -40 61 -65 94 -79 87 -76 101
-44 6 16 22 41 35 55 l23 25 -64 62 c-66 64 -95 75 -129 50z M1797 6778 c-23
-18 -36 -59 -27 -84 7 -17 61 -57 147 -107 6 -4 3 11 -8 32 -21 45 -24 83 -9
112 9 16 5 22 -22 39 -38 23 -58 25 -81 8z M5443 5030 c-17 -41 -38 -99 -47
-128 -31 -107 -75 -148 -115 -111 -11 11 -32 24 -46 29 l-25 10 0 -120 0 -120
-141 0 -140 0 16 -28 c57 -96 216 -80 321 34 36 38 47 44 83 44 30 0 41 -4 41
-15 0 -8 3 -15 8 -15 4 0 31 -22 59 -48 31 -29 77 -58 113 -73 33 -13 60 -28
60 -34 0 -6 -24 -19 -52 -30 -29 -10 -60 -23 -69 -29 -35 -24 -119 -105 -119
-115 0 -6 -20 -11 -45 -11 -25 0 -45 5 -45 11 0 17 -91 96 -140 121 -37 19
-60 23 -130 22 -150 -1 -368 -50 -400 -89 -11 -13 25 -15 284 -15 l296 0 0
-559 0 -558 -279 1 c-154 1 -283 -2 -287 -6 -9 -10 60 -78 79 -78 34 0 30 -94
-4 -105 -11 -4 -36 -23 -55 -43 l-36 -37 291 -3 291 -2 0 -558 0 -557 -279 0
c-154 0 -283 -3 -287 -7 -9 -10 60 -78 79 -78 17 0 29 -47 20 -78 -3 -12 -14
-24 -24 -27 -10 -4 -35 -23 -56 -43 l-38 -37 293 -3 293 -2 -3 -605 -3 -605
138 0 137 0 0 605 0 605 325 0 c179 0 325 4 325 8 0 13 -70 72 -86 72 -8 0
-14 7 -14 15 0 9 -12 18 -30 21 -32 7 -42 34 -12 34 9 0 26 11 36 25 10 14 23
25 28 25 5 0 15 6 23 13 7 6 23 21 36 32 l24 19 -55 9 c-30 5 -178 7 -328 5
l-272 -3 0 558 0 557 325 0 c190 0 325 4 325 9 0 12 -74 71 -89 71 -6 0 -11 7
-11 15 0 9 -12 18 -30 22 -35 7 -44 43 -10 43 11 0 28 9 37 20 10 11 21 20 26
20 5 0 14 6 22 13 7 6 23 21 36 32 l24 20 -115 8 c-63 5 -211 6 -327 2 l-213
-5 0 560 0 560 325 0 c179 0 325 4 325 8 0 13 -70 72 -86 72 -8 0 -14 7 -14
15 0 9 -12 18 -30 22 -16 3 -30 12 -30 20 0 7 14 16 30 20 17 3 30 12 30 19 0
8 7 14 15 14 9 0 18 7 21 15 4 8 11 15 16 15 6 0 19 10 30 23 l20 22 -326 3
-326 2 -2 258 -3 257 -32 -75z m-53 -1795 c0 -8 3 -15 8 -15 4 0 32 -23 62
-51 40 -37 68 -54 112 -66 76 -21 77 -42 6 -68 -29 -10 -60 -23 -69 -29 -35
-24 -119 -105 -119 -115 0 -6 -20 -11 -45 -11 -26 0 -45 5 -45 11 0 13 -80 86
-122 112 -35 21 -106 47 -130 47 -11 0 -18 8 -18 19 0 14 10 20 43 25 58 9
140 52 177 93 17 18 35 33 40 33 6 0 10 7 10 15 0 11 12 15 45 15 33 0 45 -4
45 -15z m0 -1390 c0 -8 4 -15 8 -15 4 0 27 -18 51 -40 43 -40 112 -80 138 -80
7 0 13 -4 13 -10 0 -5 7 -10 15 -10 26 0 16 -28 -12 -34 -52 -12 -109 -47
-166 -102 -78 -73 -106 -74 -179 -3 -60 58 -128 96 -187 105 -45 7 -58 34 -16
34 14 0 25 5 25 10 0 6 7 10 15 10 27 0 116 50 153 86 19 19 39 34 44 34 4 0
8 7 8 15 0 11 12 15 45 15 33 0 45 -4 45 -15z M4479 4317 c-14 -12 -75 -62
-135 -111 l-109 -88 -5 -1889 -5 -1889 -83 55 c-45 31 -96 58 -112 62 -17 3
-30 9 -30 14 0 5 -74 9 -165 9 -140 0 -165 2 -165 15 0 11 -11 15 -40 15 l-40
0 0 45 c0 38 -3 45 -20 45 -20 0 -20 7 -20 450 0 293 -3 450 -10 450 -7 0 -10
319 -10 938 0 904 -1 940 -19 978 -34 70 -106 124 -166 124 -69 0 -246 -100
-355 -201 -142 -132 -439 -336 -565 -388 -113 -47 -152 -67 -361 -191 -318
-188 -336 -204 -337 -301 -1 -50 -1 -50 -56 -83 -31 -18 -92 -53 -136 -76
l-80 -43 4 -746 c1 -410 0 -841 -4 -958 l-7 -212 -27 13 c-15 8 -51 33 -81 55
-30 23 -69 44 -87 47 -18 3 -33 10 -33 15 0 5 -74 9 -165 9 -140 0 -165 2
-165 15 0 11 -11 15 -40 15 l-40 0 0 45 c0 38 -3 45 -20 45 -20 0 -20 7 -20
589 0 350 -4 592 -9 596 -5 3 -12 18 -16 34 -6 30 -97 127 -127 137 -10 3 -18
12 -18 20 0 8 -4 15 -10 15 -5 1 -14 3 -20 4 -5 1 -21 3 -35 4 -16 1 -25 7
-25 17 0 10 -6 14 -15 10 -10 -4 -15 1 -15 14 0 11 -4 20 -10 20 -5 0 -10 7
-10 15 0 8 -4 15 -10 15 -5 0 -10 6 -10 13 0 6 -25 43 -55 80 l-55 68 0 -245
c0 -135 1 -246 3 -246 2 0 65 25 141 55 75 30 140 55 144 55 4 0 6 -346 4
-770 l-2 -770 557 0 558 0 -3 1039 -2 1039 87 47 c365 198 1190 732 1515 981
31 24 59 44 62 44 3 0 6 -709 6 -1575 l0 -1575 555 0 555 0 0 2005 c0 1103 -1
2005 -2 2005 -2 -1 -15 -11 -29 -23z M3140 3187 c0 -30 94 -82 109 -61 3 5 20
16 36 24 32 16 55 35 55 44 0 3 -45 6 -100 6 -77 0 -100 -3 -100 -13z M3020
3014 c-144 -21 -262 -53 -275 -75 -4 -5 115 -9 307 -9 l313 1 -44 39 c-24 22
-49 40 -56 40 -7 0 -15 7 -19 15 -7 19 -33 17 -226 -11z M2689 2884 c-47 -71
-59 -93 -59 -108 0 -8 -11 -28 -25 -44 -26 -31 -65 -48 -65 -29 0 11 -70 57
-84 57 -4 0 -6 -213 -6 -473 l0 -472 -252 3 c-139 2 -272 -1 -296 -5 l-42 -8
24 -25 c36 -36 54 -50 64 -50 12 0 22 -51 16 -77 -3 -11 -17 -27 -32 -35 -15
-9 -40 -30 -56 -47 l-30 -31 303 0 303 0 -4 -605 -4 -605 138 0 138 0 0 605 0
605 323 0 322 0 -40 40 c-22 21 -47 39 -56 40 -9 0 -19 9 -22 20 -3 14 -14 20
-31 20 -16 0 -26 6 -26 15 0 9 9 15 23 15 16 0 28 9 35 25 6 14 18 25 27 25 8
0 15 5 15 10 0 6 5 10 11 10 7 0 20 10 31 23 l20 22 -54 8 c-29 5 -171 7 -315
5 l-263 -3 -2 554 -3 554 -26 -39z m-59 -1039 c0 -8 4 -15 8 -15 4 0 27 -18
51 -40 43 -40 112 -80 138 -80 7 0 13 -4 13 -10 0 -5 7 -10 15 -10 26 0 16
-28 -12 -34 -52 -12 -109 -47 -166 -102 -78 -73 -106 -74 -179 -3 -60 58 -128
96 -187 105 -45 7 -58 34 -16 34 14 0 25 5 25 10 0 6 7 10 15 10 27 0 116 50
153 86 19 19 39 34 44 34 4 0 8 7 8 15 0 11 12 15 45 15 33 0 45 -4 45 -15z"/>
</g>
</svg>
