<?xml version="1.0" standalone="no"?>
<!DOCTYPE svg PUBLIC "-//W3C//DTD SVG 20010904//EN"
 "http://www.w3.org/TR/2001/REC-SVG-20010904/DTD/svg10.dtd">
<svg version="1.0" xmlns="http://www.w3.org/2000/svg"
 width="2048.000000pt" height="2048.000000pt" viewBox="0 0 2048.000000 2048.000000"
 preserveAspectRatio="xMidYMid meet">
<metadata>
Created by potrace 1.13, written by Peter Selinger 2001-2015
</metadata>
<g transform="translate(0.000000,2048.000000) scale(0.192120,-0.192120)"
fill="#000000" stroke="none">
<path d="M6655 10136 c-107 -34 -242 -126 -351 -239 -262 -270 -420 -663 -501
-1247 -21 -155 -24 -590 -5 -755 30 -262 76 -527 122 -704 l19 -75 -222 -230
c-393 -408 -487 -517 -674 -777 -380 -531 -561 -1049 -540 -1553 16 -392 144
-778 372 -1116 193 -287 412 -491 706 -660 115 -66 298 -143 421 -178 247 -70
547 -88 805 -46 l38 6 68 -289 c102 -437 116 -511 123 -673 10 -223 -26 -424
-95 -523 -39 -57 -124 -133 -194 -176 -106 -63 -280 -111 -404 -111 -62 0 -75
13 -30 31 17 7 69 49 113 94 66 64 89 97 123 165 48 101 61 161 61 284 0 214
-77 389 -235 534 -266 243 -641 225 -896 -44 -106 -113 -164 -221 -205 -381
-37 -145 -40 -220 -15 -347 39 -194 106 -322 240 -457 211 -211 481 -322 816
-336 551 -22 1018 295 1160 789 45 156 50 436 11 654 -31 177 -174 855 -192
916 -4 13 13 26 78 59 146 72 246 146 373 274 96 97 132 141 182 225 98 167
152 306 195 500 31 142 33 451 4 605 -44 239 -125 442 -251 630 -95 142 -183
237 -303 328 -227 171 -456 251 -719 252 l-133 0 -15 70 c-8 39 -42 198 -74
355 l-59 285 77 85 c378 415 616 885 735 1451 90 431 85 905 -13 1314 -45 185
-96 325 -181 500 -93 190 -172 315 -261 409 -97 105 -175 133 -274 102z m100
-332 c42 -20 97 -90 170 -219 32 -55 77 -132 101 -171 73 -117 94 -180 94
-279 0 -47 -1 -85 -2 -85 -2 0 -44 40 -94 89 -109 106 -150 125 -251 119 -127
-7 -255 -90 -386 -248 -81 -98 -159 -251 -233 -455 -25 -71 -50 -137 -55 -145
-5 -9 -8 129 -6 335 l2 350 34 90 c57 148 268 449 376 535 117 93 184 116 250
84z m114 -779 c44 -22 62 -87 68 -240 8 -195 -25 -342 -128 -583 -59 -138
-125 -257 -234 -422 -79 -119 -238 -320 -254 -320 -13 0 -33 145 -38 285 -15
400 160 1005 343 1189 92 92 179 125 243 91z m241 -1261 c-11 -56 -20 -121
-20 -144 0 -23 -11 -84 -25 -135 -38 -145 -111 -292 -211 -425 -22 -31 -79
-114 -126 -185 -47 -72 -119 -173 -160 -225 -109 -139 -162 -217 -197 -289
-29 -60 -31 -72 -31 -173 0 -68 -5 -117 -12 -131 -7 -12 -14 -23 -15 -25 0 -2
-29 18 -63 45 -54 42 -68 48 -109 48 -59 0 -122 -31 -216 -106 -81 -64 -222
-220 -311 -344 -32 -44 -101 -134 -154 -200 -293 -366 -375 -498 -450 -724
-66 -199 -80 -291 -80 -545 0 -121 -4 -227 -9 -234 -10 -16 -66 97 -107 218
l-29 85 1 445 c0 406 2 450 19 500 31 93 72 173 143 281 37 57 93 147 124 199
66 113 186 281 313 440 96 120 156 188 364 411 146 158 232 270 288 376 73
136 76 155 68 345 -5 110 -4 168 3 168 6 0 33 -27 61 -59 103 -118 176 -145
269 -97 191 99 411 413 628 893 65 144 59 154 62 -92 2 -188 -1 -235 -18 -321z
m-892 -2068 c23 -123 44 -230 47 -238 4 -10 -17 -28 -73 -61 -169 -98 -306
-229 -424 -407 -110 -164 -162 -281 -203 -454 -70 -291 -43 -543 83 -791 140
-273 393 -483 682 -566 84 -24 128 -19 190 23 58 40 75 72 75 143 0 93 -33
135 -148 193 -153 77 -240 180 -292 345 -56 177 -21 337 110 497 51 63 158
158 180 160 6 1 14 -18 18 -42 31 -165 271 -1374 281 -1418 8 -30 12 -58 10
-62 -5 -7 -107 -25 -215 -37 -194 -21 -485 36 -684 136 -359 180 -601 507
-671 903 -21 120 -14 321 16 465 77 368 252 675 622 1090 109 123 333 344 348
345 3 0 25 -101 48 -224z m324 -223 c144 -157 169 -170 365 -189 186 -19 293
-43 400 -94 140 -66 246 -151 311 -250 71 -109 161 -298 197 -412 l36 -116 -3
-423 c-4 -480 3 -437 -94 -585 -60 -91 -192 -214 -229 -214 -14 0 -2 49 25 96
17 29 61 126 97 216 l66 163 4 185 c4 184 4 185 -26 278 -41 123 -97 235 -168
334 -189 263 -468 429 -609 362 -21 -10 -84 -62 -139 -116 -55 -54 -107 -98
-116 -98 -8 0 -47 26 -85 59 -112 94 -143 104 -223 76 -129 -45 -307 -228
-395 -404 -24 -47 -53 -126 -66 -176 -13 -49 -29 -103 -36 -120 l-13 -30 -15
37 c-13 30 -16 79 -16 242 0 237 7 270 95 446 86 174 153 269 236 336 116 93
178 154 224 219 43 61 86 147 99 198 9 39 29 34 78 -20z m513 -917 c161 -76
268 -187 352 -363 69 -144 87 -232 80 -383 -12 -240 -81 -422 -212 -558 -41
-42 -77 -73 -81 -70 -3 4 -26 107 -50 230 -64 327 -224 1110 -241 1177 -5 22
-4 23 28 16 19 -3 75 -26 124 -49z m-5 -1432 c44 -59 90 -100 138 -122 29 -14
33 -20 28 -44 -3 -15 -32 -63 -65 -108 -34 -45 -68 -97 -77 -116 -9 -19 -20
-34 -25 -34 -5 0 -9 -6 -9 -14 0 -9 -8 -12 -24 -9 -31 6 -156 124 -156 148 0
10 11 32 24 50 57 75 78 135 83 243 l6 102 20 -22 c10 -13 36 -46 57 -74z
m-968 -1385 c90 -30 207 -117 255 -190 24 -36 24 -43 21 -172 l-3 -135 -46
-68 c-139 -206 -189 -298 -189 -349 0 -19 12 -58 26 -85 14 -27 24 -59 22 -72
-3 -21 -8 -23 -53 -21 -97 3 -289 86 -389 168 -107 87 -133 124 -220 318 -23
52 -26 70 -26 179 0 105 3 128 22 167 22 46 134 161 202 208 100 70 260 92
378 52z M6740 8960 c-27 -4 -31 -7 -17 -13 25 -10 89 -9 106 2 17 11 -40 18
-89 11z M5972 5603 c-39 -4 -42 -6 -37 -26 12 -41 41 -72 71 -75 46 -6 100 16
141 55 l38 37 -40 7 c-41 8 -97 8 -173 2z M5588 5126 c-31 -13 -71 -32 -89
-44 l-32 -20 58 -7 c57 -8 203 0 214 10 10 11 -31 73 -53 79 -31 8 -36 8 -98
-18z M5387 3626 c63 -40 154 -70 183 -61 22 7 60 60 60 83 0 9 -36 12 -147 12
l-148 -1 52 -33z M6350 3646 c14 -8 52 -19 86 -26 51 -10 66 -9 97 4 66 27 45
36 -85 36 -110 -1 -120 -2 -98 -14z M6515 3137 c-33 -5 -139 -6 -235 -2 -97 3
-183 3 -193 -1 -50 -19 8 -24 274 -24 248 0 290 2 280 14 -16 19 -55 23 -126
13z M7154 3631 c16 -16 47 -40 71 -52 38 -20 47 -22 83 -11 22 7 59 30 83 52
l44 39 -154 1 -155 0 28 -29z M330 5330 l0 -4170 2398 1 c1318 0 2419 4 2445
7 l48 7 -73 73 c-41 40 -98 87 -128 104 l-55 30 -2157 -6 c-1903 -5 -2158 -4
-2158 9 0 11 -11 15 -40 15 l-40 0 0 3920 0 3920 40 0 c33 0 40 3 40 20 0 20
7 20 2505 20 1663 0 2505 3 2505 10 0 6 8 10 19 10 29 0 148 64 236 127 l80
58 -50 7 c-27 3 -1302 7 -2832 7 l-2783 1 0 -4170z M7331 9491 l-45 -6 55 -41
c83 -62 190 -124 215 -124 13 0 26 -4 29 -10 3 -5 24 -10 46 -10 21 0 39 -4
39 -10 0 -7 407 -10 1200 -10 l1200 0 0 -60 0 -60 -1167 0 c-991 -1 -1174 -3
-1208 -15 -22 -8 -47 -15 -56 -15 -50 0 -208 -162 -177 -182 7 -4 655 -8 1441
-8 l1427 0 0 280 0 280 -1477 -2 c-813 0 -1498 -4 -1522 -7z M2155 9150 c-64
-4 -104 -13 -137 -30 -55 -27 -186 -153 -194 -186 -4 -13 -10 -24 -15 -24 -5
0 -9 -282 -9 -665 0 -383 4 -665 9 -665 5 0 12 -11 15 -24 8 -33 143 -168 191
-190 21 -10 68 -22 104 -27 36 -5 830 -8 1764 -9 1881 0 1713 -6 1801 64 37
30 116 130 116 148 0 4 -856 8 -1902 8 l-1903 0 0 695 0 695 1895 0 c1042 0
1901 4 1907 8 24 15 -76 141 -147 185 l-35 22 -1685 1 c-927 1 -1726 -2 -1775
-6z M7370 7537 c0 -21 68 -114 103 -141 18 -14 62 -34 97 -46 64 -19 89 -20
1283 -20 l1217 0 0 -60 0 -60 -1264 0 -1264 0 -89 -29 c-84 -27 -214 -97 -292
-155 l-35 -26 1580 0 c868 0 1589 -3 1602 -6 l22 -6 0 281 0 281 -1480 0
c-1186 0 -1480 -3 -1480 -13z M2095 7201 c-22 -4 -57 -16 -79 -26 -48 -23
-196 -165 -196 -188 0 -10 -4 -17 -10 -17 -7 0 -10 -228 -10 -665 0 -366 4
-665 8 -665 4 0 13 -15 20 -33 15 -42 132 -156 192 -188 l45 -24 1148 -3 c775
-2 1147 1 1147 8 0 5 9 10 20 10 29 0 122 49 230 121 86 58 92 64 70 70 -14 4
-623 7 -1355 8 l-1330 1 2 692 2 693 1871 3 1870 2 0 23 c0 42 -49 123 -92
153 l-41 29 -1736 1 c-955 1 -1754 -1 -1776 -5z M6925 5600 c-55 -3 -91 -7
-79 -8 11 -1 81 -7 155 -12 193 -15 352 -44 618 -111 128 -32 255 -59 282 -59
27 0 49 -4 49 -10 0 -7 360 -10 1060 -10 l1060 0 0 -60 0 -59 -1002 -3 c-768
-3 -1012 -7 -1040 -16 -20 -7 -52 -31 -71 -53 -34 -40 -66 -123 -53 -137 4 -4
552 -8 1217 -10 l1209 -2 0 280 0 280 -1652 -2 c-909 -1 -1698 -5 -1753 -8z
M2130 5260 c-36 -3 -82 -15 -104 -25 -55 -26 -182 -144 -197 -182 -7 -18 -17
-33 -21 -33 -4 0 -8 -299 -8 -665 0 -383 4 -665 9 -665 5 0 11 -10 15 -22 8
-33 137 -163 186 -188 25 -13 77 -25 128 -31 52 -6 545 -8 1237 -7 1048 3
1153 4 1180 20 45 24 70 56 104 128 l31 65 -1345 5 -1346 5 -2 692 -2 693
1247 2 c685 2 1250 6 1253 10 11 11 -51 102 -97 143 -76 69 1 65 -1155 64
-576 -1 -1077 -5 -1113 -9z M9228 3663 c-593 -2 -1078 -6 -1078 -9 0 -11 34
-70 59 -102 34 -43 73 -67 152 -92 62 -19 90 -20 887 -20 l822 0 0 -60 0 -60
-867 0 c-1013 0 -936 7 -1161 -107 -78 -40 -153 -79 -165 -88 -19 -13 102 -15
1216 -15 l1237 0 0 280 c0 219 -3 279 -12 278 -7 -2 -498 -4 -1090 -5z M2090
3311 c-19 -4 -52 -16 -73 -26 -50 -24 -186 -151 -193 -181 -3 -13 -10 -24 -15
-24 -5 0 -9 -282 -9 -665 0 -366 4 -665 8 -665 4 0 13 -15 20 -33 16 -45 139
-162 199 -190 l48 -22 1455 -3 c877 -1 1463 1 1475 7 11 5 35 15 53 21 52 20
274 169 267 180 -4 7 -573 10 -1668 10 l-1662 0 0 695 0 695 1560 2 1560 3
-175 79 c-96 43 -200 88 -230 100 -55 21 -60 21 -1320 22 -696 1 -1281 -1
-1300 -5z M6566 1711 c-7 -11 127 -105 188 -131 48 -22 84 -16 139 23 43 30
90 99 75 109 -18 11 -395 10 -402 -1z M7544 1708 c-9 -15 111 -127 164 -154
20 -11 39 -22 40 -26 2 -5 24 -8 48 -8 24 0 44 -4 44 -10 0 -7 378 -10 1115
-10 l1115 0 0 -60 0 -60 -1114 0 c-978 0 -1115 -2 -1126 -15 -7 -8 -26 -15
-42 -15 -16 0 -45 -7 -64 -15 -37 -15 -142 -95 -182 -138 l-23 -24 62 -7 c34
-3 667 -6 1405 -6 l1344 0 0 280 0 280 -1389 0 c-1069 0 -1392 -3 -1397 -12z
M6750 1280 c-19 -10 -57 -38 -84 -61 l-50 -44 55 -7 c62 -7 249 1 249 12 0 10
-54 83 -71 96 -27 21 -63 23 -99 4z"/>
</g>
</svg>
