<?xml version="1.0" standalone="no"?>
<!DOCTYPE svg PUBLIC "-//W3C//DTD SVG 20010904//EN"
 "http://www.w3.org/TR/2001/REC-SVG-20010904/DTD/svg10.dtd">
<svg version="1.0" xmlns="http://www.w3.org/2000/svg"
 width="2048.000000pt" height="2048.000000pt" viewBox="0 0 2048.000000 2048.000000"
 preserveAspectRatio="xMidYMid meet">
<metadata>
Created by potrace 1.13, written by Peter Selinger 2001-2015
</metadata>
<g transform="translate(0.000000,2048.000000) scale(0.192120,-0.192120)"
fill="#000000" stroke="none">
<path d="M2440 10325 c-8 -2 -49 -9 -90 -15 -41 -7 -113 -26 -160 -42 -399
-139 -688 -494 -740 -910 -14 -115 -14 -7941 0 -8056 52 -409 333 -761 720
-903 190 -69 -93 -63 3105 -66 1989 -3 2915 0 2971 7 424 55 779 346 914 747
64 193 60 -102 60 4243 0 4345 4 4050 -60 4243 -109 326 -375 591 -705 702
-158 53 65 49 -3090 51 -1600 1 -2917 0 -2925 -1z m5850 -259 c228 -53 409
-176 540 -367 56 -81 87 -150 119 -263 l26 -91 3 -2792 c1 -1831 6 -2793 12
-2793 6 0 10 -131 10 -364 0 -201 4 -367 9 -370 5 -3 11 -30 13 -60 4 -43 22
-91 81 -212 42 -87 75 -159 73 -162 -3 -2 -44 18 -93 46 -800 451 -2095 861
-3241 1027 -470 68 -779 90 -1247 89 -405 0 -566 -10 -880 -55 -749 -105
-1376 -356 -1865 -746 -47 -37 -152 -133 -233 -213 l-148 -145 52 145 c103
288 127 361 134 408 4 26 10 1431 14 3122 l6 3075 23 84 c61 228 210 424 405
535 66 37 83 43 85 30 3 -10 10 -13 20 -9 49 19 167 46 242 55 56 6 829 10
2287 10 l2203 0 0 21 0 20 638 -4 c558 -3 646 -6 712 -21z m-3215 -6586 c925
-59 1894 -265 2854 -607 297 -105 619 -241 843 -354 l138 -70 0 -614 0 -614
-25 -79 c-14 -44 -33 -90 -44 -103 -10 -13 -26 -38 -35 -56 -24 -48 -122 -149
-192 -199 -125 -89 -267 -137 -454 -154 -152 -13 -5500 -13 -5660 0 -365 30
-619 210 -745 525 -19 48 -20 79 -23 711 l-3 661 100 95 c102 97 286 234 438
326 488 295 1124 476 1868 531 163 12 756 13 940 1z M4307 9205 c-430 -54
-837 -228 -1174 -501 -172 -140 -383 -370 -501 -546 -145 -216 -275 -507 -333
-748 -45 -183 -49 -233 -49 -555 0 -271 3 -323 20 -415 88 -452 298 -858 614
-1188 386 -401 865 -647 1400 -717 134 -17 408 -20 541 -5 687 79 1300 461
1699 1060 146 219 269 517 337 820 19 83 22 134 26 404 4 258 2 325 -12 410
-110 657 -493 1245 -1054 1617 -276 184 -581 303 -907 355 -137 22 -469 27
-607 9z m513 -255 c395 -49 772 -209 1080 -457 97 -78 279 -267 353 -365 630
-841 551 -2008 -187 -2750 -325 -328 -737 -535 -1201 -603 -150 -22 -424 -22
-580 0 -697 100 -1288 527 -1599 1156 -395 798 -237 1774 389 2404 350 352
770 555 1280 618 69 9 387 6 465 -3z"/>
</g>
</svg>
