<?xml version="1.0" standalone="no"?>
<!DOCTYPE svg PUBLIC "-//W3C//DTD SVG 20010904//EN"
 "http://www.w3.org/TR/2001/REC-SVG-20010904/DTD/svg10.dtd">
<svg version="1.0" xmlns="http://www.w3.org/2000/svg"
 width="2048.000000pt" height="2048.000000pt" viewBox="0 0 2048.000000 2048.000000"
 preserveAspectRatio="xMidYMid meet">
<metadata>
Created by potrace 1.13, written by Peter Selinger 2001-2015
</metadata>
<g transform="translate(0.000000,2048.000000) scale(0.192120,-0.192120)"
fill="#000000" stroke="none">
<path d="M5765 10310 c-270 -71 -536 -305 -634 -558 -43 -111 -60 -221 -72
-447 -23 -421 3 -688 104 -1053 l31 -113 17 33 c31 61 59 161 59 212 -1 28 -7
87 -15 131 -11 62 -15 186 -15 566 0 465 1 490 21 555 71 234 328 465 559 504
125 21 269 -26 408 -134 118 -90 225 -230 262 -342 22 -66 22 -69 19 -717 l-3
-652 34 -79 c30 -72 34 -77 42 -55 23 62 80 299 105 434 26 143 27 164 27 475
0 337 -8 445 -44 586 -76 302 -354 574 -668 655 -92 23 -146 23 -237 -1z
M8580 9485 c-122 -25 -235 -77 -345 -160 -182 -137 -295 -291 -349 -477 -42
-145 -50 -248 -51 -603 0 -317 1 -336 28 -488 25 -139 97 -430 110 -443 3 -3
19 32 37 78 l32 83 -8 125 c-4 69 -8 364 -8 655 l-1 530 25 60 c76 179 245
349 427 426 72 31 87 33 183 34 96 0 111 -3 175 -31 182 -79 352 -245 424
-416 l26 -63 1 -670 0 -670 28 -65 c15 -36 31 -69 35 -73 8 -8 57 164 91 320
48 222 54 295 53 603 -1 415 -22 568 -98 729 -119 251 -383 461 -647 515 -89
18 -82 18 -168 1z M5204 8093 c48 -155 101 -360 114 -440 l16 -103 552 0 553
0 6 58 c8 71 47 232 91 379 19 61 34 114 34 117 0 3 -309 6 -686 6 -648 0
-685 -1 -680 -17z M5320 7414 c-6 -43 -25 -120 -41 -173 -15 -52 -27 -96 -25
-98 1 -1 27 12 56 30 103 61 124 131 70 235 -47 91 -46 91 -60 6z M6396 7423
c-65 -110 -60 -158 26 -239 51 -49 118 -99 118 -89 0 4 -16 53 -35 108 -19 56
-42 143 -52 194 l-18 91 -39 -65z M3620 7304 c-271 -23 -476 -55 -662 -103
-736 -190 -1382 -606 -1858 -1198 -169 -209 -289 -399 -415 -655 -406 -824
-465 -1781 -165 -2662 408 -1198 1461 -2094 2710 -2305 222 -38 330 -46 600
-45 292 1 434 14 680 64 290 58 553 147 818 275 379 184 667 389 962 684 788
790 1148 1899 975 3005 -89 569 -312 1093 -663 1559 -262 347 -588 642 -977
883 -79 49 -142 90 -141 91 1 1 53 -9 116 -23 302 -65 362 -76 455 -81 69 -4
103 -10 108 -19 6 -11 38 -14 130 -14 134 0 167 -11 167 -54 0 -27 -17 -36
-66 -36 -64 0 -156 -32 -190 -67 -33 -33 -74 -136 -60 -150 4 -5 192 -9 418
-11 l411 -3 -46 63 c-109 149 -238 339 -282 416 l-48 82 -666 0 -666 -1 -150
60 c-302 120 -597 194 -925 231 -99 11 -492 21 -570 14z m405 -264 c315 -20
546 -68 905 -185 140 -46 302 -95 360 -109 173 -40 274 -85 430 -189 68 -46
200 -166 200 -182 0 -12 175 -226 286 -351 11 -12 47 -52 81 -90 152 -169 233
-269 284 -349 216 -335 366 -711 456 -1137 24 -115 26 -146 30 -460 5 -340 4
-355 -37 -743 -17 -155 -28 -211 -65 -325 -133 -412 -361 -866 -517 -1030 -24
-25 -101 -110 -173 -189 -280 -310 -584 -546 -934 -725 -370 -189 -723 -295
-1156 -348 -134 -16 -572 -16 -710 0 -742 88 -1401 391 -1905 877 -137 132
-273 280 -336 366 -263 357 -432 711 -543 1139 -65 252 -71 316 -71 815 0 411
2 463 21 571 54 314 146 588 299 894 147 293 269 470 487 705 288 311 569 523
933 705 522 261 1094 377 1675 340z M3760 5734 c-227 -60 -406 -240 -466 -465
-22 -84 -22 -234 1 -319 45 -173 176 -335 338 -417 117 -59 306 -80 432 -48
289 73 495 333 495 625 0 291 -211 559 -490 624 -81 20 -238 19 -310 0z m311
-234 c111 -34 215 -115 254 -196 22 -46 22 -329 0 -381 -16 -38 -75 -115 -110
-145 -73 -62 -183 -98 -300 -98 -172 0 -307 68 -393 199 l-37 56 -3 166 -3
167 31 51 c41 66 98 114 185 156 84 40 93 42 216 44 71 1 114 -4 160 -19z
M2044 5151 c-141 -23 -260 -85 -364 -190 -200 -202 -242 -498 -107 -756 50
-95 174 -213 277 -264 158 -77 319 -90 485 -37 277 88 461 357 442 646 -15
231 -145 432 -348 535 -114 58 -267 84 -385 66z m192 -232 c119 -22 238 -98
296 -188 28 -45 28 -46 28 -207 0 -171 -4 -190 -49 -254 -66 -94 -141 -145
-258 -175 -199 -52 -419 33 -518 199 l-35 60 0 158 c0 186 6 205 93 284 122
112 274 154 443 123z M3365 3166 c-218 -51 -393 -210 -469 -426 -25 -72 -30
-100 -30 -190 -1 -125 13 -187 66 -300 76 -159 241 -291 418 -336 84 -22 226
-22 310 0 178 45 341 176 418 337 125 258 77 548 -124 744 -121 119 -254 175
-424 181 -67 2 -127 -1 -165 -10z m257 -227 c116 -25 246 -116 288 -203 17
-37 20 -61 20 -192 -1 -170 -7 -194 -69 -277 -91 -119 -260 -181 -431 -157
-143 20 -271 105 -336 223 -28 49 -29 59 -32 194 -4 132 -2 146 19 189 47 99
169 190 292 220 66 16 181 17 249 3z M7980 7270 c0 -3 16 -59 36 -125 50 -170
84 -314 84 -357 0 -74 -49 -68 565 -68 l552 0 7 63 c8 67 61 283 101 410 14
43 25 79 25 80 0 1 -308 2 -685 2 -377 0 -685 -2 -685 -5z M9176 6592 c-70
-118 -56 -182 59 -275 93 -75 98 -77 75 -22 -30 71 -68 203 -82 286 l-13 77
-39 -66z M8110 6646 c0 -35 -47 -224 -75 -302 l-35 -96 38 27 c57 43 122 107
138 137 21 40 17 94 -11 150 -28 55 -55 97 -55 84z M6967 6415 c-3 -7 -9 -40
-13 -73 -8 -75 9 -131 72 -233 124 -201 167 -275 234 -407 40 -79 88 -162 106
-186 40 -53 110 -92 147 -82 35 8 59 56 55 108 l-3 41 -37 -53 c-24 -34 -39
-48 -42 -39 -3 8 -20 59 -38 114 -58 181 -200 441 -368 680 -90 128 -107 147
-113 130z M7913 6100 c-43 -76 -197 -306 -277 -413 -31 -40 -56 -76 -56 -78 0
-2 488 -4 1085 -4 597 0 1085 1 1085 2 0 2 -38 54 -84 115 -77 105 -193 277
-262 391 l-29 48 -713 2 -713 2 -36 -65z M9736 5553 c-19 -117 -6 -159 97
-325 122 -197 138 -225 191 -344 29 -65 65 -155 79 -199 55 -165 57 -186 57
-547 0 -288 -3 -358 -21 -480 -47 -328 -129 -719 -193 -914 -24 -77 -65 -215
-90 -309 -100 -377 -317 -1040 -395 -1209 -39 -85 -76 -131 -118 -147 -35 -13
-1341 -12 -1380 1 -50 18 -85 77 -154 256 -67 178 -223 653 -288 881 -111 388
-144 453 -230 453 -30 0 -41 -4 -41 -16 0 -43 113 -454 215 -784 108 -348 254
-750 338 -928 l25 -53 833 0 834 -1 28 56 c95 192 289 746 421 1201 258 895
403 1697 383 2125 -19 394 -178 782 -509 1238 -33 45 -64 82 -68 82 -4 0 -10
-17 -14 -37z"/>
</g>
</svg>
