<?xml version="1.0" standalone="no"?>
<!DOCTYPE svg PUBLIC "-//W3C//DTD SVG 20010904//EN"
 "http://www.w3.org/TR/2001/REC-SVG-20010904/DTD/svg10.dtd">
<svg version="1.0" xmlns="http://www.w3.org/2000/svg"
 width="2048.000000pt" height="2048.000000pt" viewBox="0 0 2048.000000 2048.000000"
 preserveAspectRatio="xMidYMid meet">
<metadata>
Created by potrace 1.13, written by Peter Selinger 2001-2015
</metadata>
<g transform="translate(0.000000,2048.000000) scale(0.192120,-0.192120)"
fill="#000000" stroke="none">
<path d="M8390 10150 c-19 -3 -50 -14 -69 -24 -148 -78 -1601 -902 -1620 -919
-13 -12 -34 -44 -47 -72 -82 -173 66 -369 255 -339 50 8 1638 898 1690 947 18
18 42 50 52 72 22 48 25 142 5 189 -42 101 -160 166 -266 146z m61 -220 c5 0
9 -13 9 -29 0 -23 -10 -38 -42 -64 -46 -37 -1278 -734 -1412 -799 -82 -39
-122 -46 -157 -28 -24 13 -25 52 -1 72 19 17 1329 756 1430 807 65 33 128 52
150 45 8 -2 18 -4 23 -4z M5695 9337 c-58 -19 -1978 -1312 -2058 -1386 -61
-55 -89 -151 -68 -229 7 -23 96 -181 200 -350 183 -300 366 -601 944 -1557
l285 -470 -27 -25 c-15 -14 -107 -92 -204 -173 -532 -446 -1172 -1051 -1216
-1147 -24 -52 -28 -161 -10 -302 16 -130 73 -399 84 -399 16 1 84 121 99 176
31 111 36 151 36 291 0 137 1 148 25 188 48 82 329 357 710 695 512 454 591
532 635 636 22 50 26 100 10 110 -5 3 -10 14 -10 23 0 27 -193 409 -261 517
-35 55 -106 161 -159 235 -122 171 -152 222 -239 400 -38 80 -181 327 -317
550 -333 547 -354 585 -354 635 0 28 7 39 40 62 22 15 40 35 40 44 0 21 7 26
370 274 783 536 1390 940 1440 961 42 18 74 24 137 24 45 0 88 -3 97 -6 36
-14 10 -227 -48 -388 -97 -271 -316 -532 -666 -793 -63 -48 -130 -100 -148
-117 -102 -94 -108 -246 -20 -511 40 -121 109 -285 119 -285 16 0 39 104 39
174 0 44 -10 105 -25 161 -20 71 -25 113 -25 202 l0 112 45 38 c25 20 45 42
45 49 0 6 22 27 50 46 97 68 291 241 380 339 126 139 198 239 264 368 31 61
68 122 82 136 48 48 50 45 388 -505 134 -217 292 -476 351 -575 60 -99 121
-196 135 -215 112 -147 423 -646 509 -818 27 -53 72 -137 100 -185 27 -49 62
-119 76 -155 15 -37 37 -94 50 -127 39 -100 75 -253 75 -320 0 -113 -4 -115
-505 -285 -143 -48 -325 -111 -405 -140 -351 -126 -446 -148 -511 -115 -18 10
-74 57 -124 104 -59 57 -112 98 -154 119 -35 18 -66 30 -69 28 -5 -6 80 -166
149 -282 72 -121 139 -164 251 -164 95 0 353 89 1113 383 402 155 445 171 445
165 0 -2 -9 -35 -20 -73 -37 -130 -23 -201 52 -259 30 -22 118 -61 123 -54 16
22 -231 1077 -269 1150 -12 24 -115 194 -228 378 -113 184 -366 601 -563 925
-639 1053 -955 1552 -1042 1641 -70 71 -165 98 -248 71z M8437 8759 c-36 -8
-976 -531 -1026 -571 -39 -30 -71 -85 -83 -141 -25 -117 50 -238 167 -273 66
-19 116 -14 178 18 131 66 957 535 981 557 42 38 76 117 76 176 0 151 -148
269 -293 234z m71 -221 c28 -28 2 -71 -73 -120 -60 -39 -584 -333 -704 -395
-110 -56 -166 -67 -195 -37 -22 21 -20 42 7 66 22 20 347 205 677 386 191 105
259 129 288 100z M8660 7456 c-52 -18 -681 -364 -709 -389 -58 -53 -85 -162
-61 -248 28 -102 155 -181 264 -165 49 8 703 360 748 403 72 69 89 186 42 281
-52 105 -177 157 -284 118z m93 -246 c-1 -24 -9 -41 -27 -55 -30 -24 -454
-256 -510 -279 -46 -19 -107 -21 -124 -4 -17 17 -15 53 6 70 22 19 507 282
547 296 17 6 48 10 70 9 39 -2 40 -3 38 -37z M5584 7217 c-33 -12 -147 -85
-562 -358 -224 -147 -239 -159 -266 -210 -68 -123 -18 -267 114 -335 49 -25
144 -23 197 4 37 19 114 69 600 388 190 125 222 159 231 255 16 172 -158 314
-314 256z m100 -203 c10 -4 16 -18 16 -38 0 -36 -32 -71 -115 -126 -27 -19
-52 -37 -55 -41 -5 -6 -171 -88 -350 -171 -47 -21 -93 -43 -102 -49 -24 -13
-28 -12 -28 9 0 9 17 28 37 42 20 14 41 30 47 35 49 46 263 220 311 252 115
77 192 105 239 87z M5421 6443 c28 -76 214 -433 223 -430 6 2 19 21 30 42 29
61 19 136 -32 239 -46 92 -89 135 -162 161 -63 22 -72 20 -59 -12z M10290
6136 c-14 -8 -261 -109 -550 -226 -795 -321 -1273 -517 -1343 -549 l-62 -29
155 3 c194 3 104 -28 1019 342 447 180 611 243 636 243 8 0 15 -6 15 -14 0 -9
7 -12 20 -9 20 5 20 0 20 -222 0 -171 4 -239 15 -274 22 -72 45 -249 45 -352
0 -52 -8 -134 -17 -184 -15 -81 -17 -251 -20 -1700 -2 -971 -7 -1618 -12
-1630 -5 -11 -12 -63 -14 -115 -3 -58 -17 -143 -37 -220 -107 -425 -370 -663
-786 -710 -72 -8 -1208 -10 -4119 -8 l-4020 3 -100 27 c-310 85 -517 282 -620
589 l-35 107 0 343 0 344 40 17 c22 9 40 23 40 32 0 8 27 29 60 47 59 31 81
57 121 139 10 19 14 36 10 38 -4 1 -101 -37 -214 -84 l-207 -87 0 -301 c0
-415 24 -561 131 -785 160 -336 432 -527 814 -571 122 -13 7986 -14 8106 0
290 33 525 155 686 355 78 96 171 281 207 410 58 206 56 80 56 2668 0 1307 -3
2377 -7 2377 -5 -1 -19 -7 -33 -14z M5980 5999 c-162 -27 -342 -56 -400 -64
-175 -26 -233 -58 -276 -150 -51 -109 -18 -234 79 -301 72 -50 109 -51 341
-15 753 119 708 110 765 152 77 55 115 193 77 283 -21 49 -71 101 -121 125
-64 30 -123 26 -465 -30z m381 -159 c32 -18 24 -54 -18 -77 -46 -26 -211 -55
-313 -57 -141 -1 -310 6 -315 14 -6 9 18 31 37 34 7 1 36 9 63 19 28 9 127 27
220 41 94 14 181 27 195 29 51 8 112 7 131 -3z M9700 5321 c-14 -5 -180 -75
-370 -156 -190 -81 -462 -196 -605 -257 -143 -61 -264 -113 -269 -116 -5 -3 2
10 16 29 84 112 53 270 -66 344 -68 41 -163 43 -251 3 -33 -15 -98 -43 -145
-64 -769 -332 -1190 -519 -1216 -539 -17 -13 -44 -48 -58 -77 -64 -127 -6
-276 126 -326 l46 -17 -381 -159 c-210 -87 -459 -192 -554 -232 -95 -41 -174
-74 -176 -74 -3 0 4 17 15 39 75 151 -39 332 -209 332 -67 1 -44 9 -518 -191
-771 -326 -1008 -426 -1220 -515 -446 -188 -444 -186 -488 -270 -28 -52 -29
-155 -3 -205 34 -66 90 -112 155 -130 22 -5 18 -9 -35 -30 -228 -91 -806 -343
-1039 -452 -324 -152 -516 -195 -693 -153 -133 32 -249 121 -325 250 -65 110
-85 132 -150 165 -139 69 -302 16 -371 -122 -36 -72 -36 -170 -1 -246 46 -99
137 -226 224 -313 138 -138 282 -221 474 -272 112 -30 417 -32 547 -3 144 31
337 100 520 186 415 195 1074 474 4230 1795 1469 615 2183 915 2690 1131 293
124 330 143 371 184 132 131 93 355 -76 442 -44 23 -153 33 -195 19z m-1460
-401 c0 -5 6 -10 14 -10 7 0 29 -17 48 -38 19 -21 49 -48 66 -61 18 -12 32
-26 32 -30 0 -11 -64 -39 -730 -318 -501 -210 -680 -283 -697 -283 -1 0 -3 12
-3 28 0 15 -7 49 -15 76 -22 74 -20 104 10 118 14 6 25 18 25 27 0 9 24 32 53
51 56 37 497 232 637 282 47 17 130 48 185 71 164 66 375 115 375 87z m212
-308 c25 -11 67 -24 92 -27 47 -7 59 -24 34 -48 -15 -14 -146 -79 -263 -130
-248 -109 -1324 -556 -1355 -562 -8 -2 -34 -8 -57 -13 -63 -14 -56 5 31 96 75
77 130 145 154 188 23 41 2 32 722 331 437 182 439 183 496 192 53 8 74 4 146
-27z m-2892 -797 c0 -8 9 -15 20 -15 11 0 20 -5 20 -10 0 -16 48 -66 91 -96
22 -15 39 -30 39 -34 0 -4 -80 -41 -177 -82 -389 -165 -1870 -786 -1899 -796
l-31 -10 -7 51 c-10 83 -7 124 9 137 8 7 15 18 15 25 0 25 118 110 225 161
147 70 1062 456 1195 504 58 21 179 67 270 103 224 88 230 90 230 62z m218
-321 c29 -13 69 -26 90 -29 69 -12 74 -15 58 -31 -8 -8 -19 -14 -25 -14 -6 0
-11 -4 -11 -8 0 -19 -75 -52 -840 -374 -327 -137 -748 -314 -935 -393 -429
-180 -570 -235 -603 -235 -25 0 -10 28 50 90 34 36 88 98 120 140 82 106 86
109 153 140 96 45 1604 676 1692 709 126 46 158 47 251 5z m-4510 -1326 c175
-180 222 -231 222 -243 0 -16 -32 -8 -97 24 -87 44 -226 213 -209 256 10 26
31 16 84 -37z m239 -260 c-3 -8 -6 -5 -6 6 -1 11 2 17 5 13 3 -3 4 -12 1 -19z
M5220 4931 c-113 -35 -180 -122 -180 -236 0 -71 23 -127 71 -171 19 -17 155
-96 304 -175 241 -128 276 -143 328 -147 170 -13 294 146 245 312 -24 78 -81
121 -358 268 -296 158 -334 172 -410 149z m257 -353 c-3 -8 -6 -5 -6 6 -1 11
2 17 5 13 3 -3 4 -12 1 -19z m20 -10 c-3 -8 -6 -5 -6 6 -1 11 2 17 5 13 3 -3
4 -12 1 -19z m20 -10 c-3 -8 -6 -5 -6 6 -1 11 2 17 5 13 3 -3 4 -12 1 -19z
m20 -10 c-3 -8 -6 -5 -6 6 -1 11 2 17 5 13 3 -3 4 -12 1 -19z M6305 4215
c-281 -99 -368 -163 -411 -302 l-13 -42 52 20 c29 11 205 84 392 161 187 77
346 142 353 145 23 10 12 24 -40 48 -85 40 -152 34 -333 -30z M3350 3273 c-52
-19 -1444 -604 -1697 -714 -68 -29 -123 -56 -123 -60 0 -4 31 -13 68 -19 64
-12 75 -11 153 12 46 14 131 44 189 68 58 23 139 55 180 72 147 59 647 270
795 335 136 60 163 77 290 177 178 140 181 142 145 129z"/>
</g>
</svg>
