<?xml version="1.0" standalone="no"?>
<!DOCTYPE svg PUBLIC "-//W3C//DTD SVG 20010904//EN"
 "http://www.w3.org/TR/2001/REC-SVG-20010904/DTD/svg10.dtd">
<svg version="1.0" xmlns="http://www.w3.org/2000/svg"
 width="2048.000000pt" height="2048.000000pt" viewBox="0 0 2048.000000 2048.000000"
 preserveAspectRatio="xMidYMid meet">
<metadata>
Created by potrace 1.13, written by Peter Selinger 2001-2015
</metadata>
<g transform="translate(0.000000,2048.000000) scale(0.192120,-0.192120)"
fill="#000000" stroke="none">
<path d="M8579 10316 c-124 -44 -189 -135 -189 -263 0 -207 210 -339 394 -249
64 31 99 70 134 145 21 45 24 64 20 120 -6 78 -25 120 -81 179 -70 72 -187
101 -278 68z M9280 10051 c-14 -5 -43 -17 -65 -29 -47 -24 -995 -972 -1018
-1017 -24 -48 -36 -134 -27 -192 10 -64 31 -103 80 -157 l38 -42 -551 -509
c-303 -281 -673 -623 -821 -761 -629 -582 -2036 -1883 -2088 -1929 l-56 -50
295 -297 296 -296 52 56 c61 68 1510 1634 2114 2287 234 253 574 621 756 817
l329 356 48 -43 c58 -52 120 -75 203 -75 132 0 108 -19 648 519 363 361 495
499 514 536 38 72 42 170 13 250 -21 55 -42 79 -264 301 -219 220 -246 243
-299 263 -59 21 -148 27 -197 12z m173 -302 c23 -12 108 -88 189 -168 l148
-146 0 -71 c0 -91 0 -92 -270 -359 -116 -115 -257 -259 -312 -320 -172 -188
-228 -243 -264 -260 -19 -9 -78 -23 -131 -30 -86 -13 -102 -19 -150 -55 l-53
-41 -90 82 c-49 45 -119 115 -156 156 l-67 74 25 27 c49 54 69 106 83 217 4
27 18 68 31 90 23 40 644 667 644 651 0 -5 34 23 75 62 41 39 91 80 112 91 52
28 131 27 186 0z m-1969 -2276 c-14 -21 -80 -100 -147 -177 -151 -172 -311
-366 -397 -481 -36 -48 -81 -106 -100 -128 -70 -83 -1368 -1483 -1408 -1519
-49 -44 -87 -49 -138 -17 -42 26 -141 134 -162 176 -14 29 -14 34 0 56 9 13
358 339 775 726 606 560 793 727 924 825 90 68 257 208 371 312 195 178 294
264 303 264 3 0 -7 -17 -21 -37z M8056 9768 c-70 -10 -151 -68 -189 -135 -59
-106 -44 -233 36 -321 55 -59 108 -84 188 -90 56 -4 75 -1 120 20 75 35 114
70 145 134 65 132 10 299 -120 366 -50 25 -118 36 -180 26z M9964 8928 c-17
-5 -53 -27 -80 -47 -210 -158 -94 -492 170 -492 106 0 190 49 240 141 75 137
21 311 -119 382 -46 24 -162 33 -211 16z M9441 8379 c-96 -19 -185 -102 -212
-197 -6 -23 -9 -68 -6 -100 17 -198 232 -311 407 -216 93 51 140 132 140 241
0 177 -157 307 -329 272z M5250 7679 c-487 -63 -895 -312 -1260 -770 -147
-184 -220 -323 -275 -523 -36 -135 -44 -153 -85 -206 -57 -72 -47 -146 26
-206 25 -21 57 -58 72 -83 24 -41 27 -56 26 -136 0 -108 -22 -169 -107 -297
-132 -202 -329 -384 -498 -462 -224 -103 -432 -59 -628 133 -99 98 -119 111
-164 111 -77 0 -117 -36 -151 -136 -46 -137 -53 -143 -181 -164 -245 -38 -484
-182 -828 -498 -357 -327 -544 -628 -626 -1003 -103 -478 25 -1048 353 -1564
82 -130 119 -176 130 -165 7 7 11 68 10 153 0 163 -2 168 -100 379 -76 163
-135 329 -163 462 -19 85 -21 129 -21 389 0 265 2 301 21 373 42 162 133 343
257 509 125 169 411 435 610 568 115 77 202 118 350 166 125 40 182 73 264
150 89 83 111 83 241 0 94 -60 229 -121 305 -138 114 -24 217 -6 370 65 174
81 319 194 463 360 210 242 299 421 299 600 0 97 -10 134 -66 249 -24 50 -44
100 -44 112 0 11 15 63 34 114 19 52 46 130 61 174 109 325 445 700 795 887
94 50 261 113 365 136 372 86 709 39 1110 -153 163 -79 205 -88 350 -83 67 3
127 8 134 12 16 10 -48 62 -194 158 -340 223 -710 340 -1070 337 -66 -1 -149
-5 -185 -10z M7185 6634 c-4 -36 -5 -99 -3 -140 5 -69 11 -88 82 -232 93 -187
146 -325 176 -453 20 -87 21 -115 18 -384 -4 -283 -4 -292 -31 -380 -41 -133
-103 -254 -208 -405 -165 -237 -442 -489 -654 -595 -129 -65 -439 -168 -478
-159 -16 3 -73 27 -125 52 -88 43 -102 47 -186 50 -110 5 -186 -13 -301 -69
-242 -119 -530 -401 -654 -641 -68 -132 -81 -183 -81 -326 0 -108 3 -129 30
-206 32 -90 68 -162 132 -260 57 -89 54 -115 -26 -204 -85 -94 -107 -134 -151
-277 -71 -228 -166 -375 -433 -672 -182 -203 -406 -356 -674 -459 -170 -66
-440 -101 -645 -84 -248 21 -406 59 -658 160 -231 92 -251 99 -336 111 -88 12
-279 5 -279 -11 0 -11 186 -136 296 -198 250 -142 533 -246 791 -292 190 -33
467 -29 649 11 147 31 235 63 389 139 226 112 392 243 614 484 319 346 460
581 501 834 21 125 28 132 164 178 100 34 136 74 136 151 0 45 -13 65 -111
164 -276 281 -248 591 86 924 323 323 603 401 758 211 65 -79 133 -83 222 -16
40 31 74 45 168 70 228 59 379 140 587 314 380 318 589 628 689 1027 103 408
40 868 -176 1269 -84 158 -238 380 -263 380 -5 0 -12 -30 -15 -66z M2995 4412
c-28 -10 -70 -29 -95 -44 -70 -41 -173 -154 -214 -235 -35 -71 -36 -75 -36
-188 0 -135 8 -163 89 -285 96 -147 740 -786 925 -917 112 -80 189 -106 294
-101 130 6 230 65 337 197 81 100 95 141 95 274 0 108 -1 112 -39 191 -58 120
-155 228 -577 646 -389 385 -433 422 -548 462 -65 22 -166 22 -231 0z m242
-226 c68 -37 922 -893 953 -955 31 -61 36 -135 16 -206 -23 -77 -98 -154 -175
-180 -67 -22 -150 -17 -211 13 -32 15 -174 151 -501 479 -497 499 -489 489
-489 603 0 112 84 232 186 264 71 23 159 15 221 -18z M1515 2229 c-264 -331
-513 -641 -552 -690 -40 -49 -73 -92 -73 -96 0 -10 543 -553 553 -553 4 0 51
36 105 79 53 44 363 292 687 552 l590 472 -2 49 c-3 66 -51 200 -103 291 -144
253 -432 462 -677 492 l-48 6 -480 -602z m692 280 c128 -55 293 -210 339 -318
15 -35 19 -98 8 -126 -6 -14 -556 -461 -764 -620 -85 -65 -262 -172 -299 -180
-41 -9 -83 15 -163 92 -81 79 -95 107 -75 155 32 77 140 225 408 560 316 394
351 435 394 454 35 16 89 10 152 -17z"/>
</g>
</svg>
