<?xml version="1.0" standalone="no"?>
<!DOCTYPE svg PUBLIC "-//W3C//DTD SVG 20010904//EN"
 "http://www.w3.org/TR/2001/REC-SVG-20010904/DTD/svg10.dtd">
<svg version="1.0" xmlns="http://www.w3.org/2000/svg"
 width="2048.000000pt" height="2048.000000pt" viewBox="0 0 2048.000000 2048.000000"
 preserveAspectRatio="xMidYMid meet">
<metadata>
Created by potrace 1.13, written by Peter Selinger 2001-2015
</metadata>
<g transform="translate(0.000000,2048.000000) scale(0.192120,-0.192120)"
fill="#000000" stroke="none">
<path d="M4016 10300 c-173 -22 -427 -94 -582 -165 -220 -101 -352 -259 -362
-434 -5 -92 9 -150 48 -194 l29 -33 -11 -79 c-14 -112 -3 -386 21 -525 64
-367 201 -604 384 -666 45 -15 52 -15 93 1 31 12 55 15 77 10 52 -13 166 -8
262 10 84 15 90 15 102 -1 11 -15 13 -14 19 10 9 36 -13 84 -47 101 -52 27
-149 14 -280 -37 -76 -29 -77 -30 -113 -13 -55 26 -180 175 -228 270 -78 155
-137 455 -138 703 0 48 -4 82 -10 82 -5 0 -10 8 -10 18 0 10 -18 38 -40 63
-22 24 -40 47 -40 51 0 16 111 104 165 129 72 34 172 51 239 41 l49 -7 96
-288 c95 -285 96 -287 124 -287 41 0 71 39 96 126 28 96 42 118 100 152 67 39
149 38 217 -3 40 -25 55 -43 83 -100 47 -93 49 -168 7 -240 -79 -135 -78 -132
-74 -240 5 -115 25 -169 89 -234 66 -69 186 -118 310 -127 89 -7 113 2 175 68
118 123 240 398 279 633 20 115 22 318 5 415 -35 204 -122 363 -281 515 -137
130 -286 215 -450 255 -96 24 -296 34 -403 20z m269 -251 c113 -13 233 -54
327 -110 102 -61 224 -186 268 -274 l35 -70 0 -290 c0 -259 -2 -296 -19 -350
-51 -157 -130 -287 -201 -327 -78 -44 -193 -20 -223 47 -7 14 -12 66 -12 116
0 72 5 101 25 151 21 52 25 78 25 165 0 133 -27 207 -107 294 -77 82 -145 114
-243 113 -78 0 -113 -13 -202 -72 -27 -17 -45 -22 -63 -18 -27 7 -28 8 -90
159 -63 151 -180 232 -332 229 -23 -1 -45 4 -49 9 -4 8 -9 7 -15 -2 -7 -12 -9
-12 -9 0 -1 69 366 203 633 231 108 11 153 11 252 -1z M10275 8847 c-314 -577
-791 -1244 -1303 -1822 -156 -176 -672 -690 -857 -855 -419 -372 -1045 -853
-1145 -880 l-44 -12 24 -18 c29 -22 87 -40 127 -40 36 0 76 29 108 80 l23 37
159 31 c735 146 1533 229 1832 191 145 -18 176 -42 174 -134 -3 -139 -159
-377 -424 -649 -65 -66 -117 -121 -116 -122 1 -1 43 2 92 7 203 18 472 6 635
-27 100 -21 188 -62 228 -108 28 -32 32 -43 26 -70 -17 -78 -103 -194 -279
-375 -627 -644 -1922 -1616 -2925 -2196 -810 -468 -1761 -800 -2680 -935 -268
-39 -436 -52 -757 -57 -430 -7 -706 16 -978 81 -156 38 -162 42 -80 50 270 29
467 83 785 216 252 105 1372 596 1440 630 67 34 117 84 130 131 11 36 14 119
4 119 -15 0 -2367 -1026 -2457 -1072 l-39 -19 -71 27 c-214 80 -378 197 -432
308 -32 66 -43 173 -26 272 16 95 75 272 124 374 42 84 42 85 102 108 49 20
2021 881 2273 993 l73 32 -32 33 c-18 18 -47 40 -65 49 -61 29 -99 22 -264
-50 -85 -37 -213 -91 -285 -120 -259 -105 -1013 -438 -1151 -509 -187 -97
-345 -203 -512 -344 l-63 -53 31 61 c106 210 419 609 674 859 l75 75 51 -13
c74 -19 114 -16 173 13 50 25 90 54 479 352 100 77 212 161 248 186 100 69
278 188 284 188 2 0 40 22 83 49 219 136 320 218 408 332 50 63 92 145 82 156
-10 9 -64 -18 -267 -130 -458 -253 -895 -555 -1245 -860 -65 -56 -133 -115
-152 -131 -78 -65 -1046 -285 -1701 -387 -145 -22 -510 -69 -540 -69 -2 0 -1
-345 1 -768 3 -749 4 -769 25 -857 33 -133 59 -210 108 -308 160 -324 427
-510 799 -556 128 -16 8002 -16 8130 0 502 62 824 389 916 929 19 113 19 190
17 3892 l-3 3777 -50 -92z m-230 -7689 c-8 -32 -24 -78 -35 -103 -11 -24 -20
-47 -20 -50 0 -4 -21 -39 -46 -78 -110 -172 -252 -267 -479 -320 l-90 -22
-3975 -3 c-2805 -2 -4007 0 -4082 8 -199 20 -372 88 -491 192 -87 76 -161 193
-213 334 l-29 79 -3 696 -3 696 93 12 c171 21 635 101 898 155 143 29 262 51
265 48 12 -13 3 -50 -22 -87 -52 -78 -219 -312 -314 -440 -116 -158 -166 -249
-216 -397 -37 -112 -37 -114 -41 -302 -2 -108 1 -198 6 -210 5 -12 18 -41 28
-66 72 -171 233 -334 424 -427 134 -66 198 -83 369 -99 86 -8 181 -19 211 -24
326 -57 850 -76 1221 -46 1037 84 2068 398 3016 917 1081 592 2643 1777 3262
2473 117 132 221 315 221 390 0 90 -141 267 -266 333 -56 30 -245 83 -294 83
-12 0 -25 10 -32 25 -10 23 -5 39 50 148 81 159 102 223 102 307 0 87 -32 160
-107 241 -71 76 -121 105 -203 118 -143 23 -537 6 -929 -40 -97 -11 -216 -21
-266 -22 -137 -3 -133 8 62 179 682 600 1233 1207 1753 1934 72 102 144 199
158 215 l27 30 3 -3410 c2 -2989 0 -3417 -13 -3467z M4613 8333 c-67 -67 -54
-119 38 -157 l35 -15 -12 82 c-7 45 -14 93 -16 107 -3 25 -4 24 -45 -17z
M3380 8094 c-185 -40 -348 -187 -408 -369 -65 -197 -13 -415 137 -564 96 -96
239 -161 356 -161 l34 0 3 -617 3 -618 25 -65 c14 -36 185 -330 380 -655 195
-324 363 -605 372 -622 18 -32 17 -37 -103 -635 -138 -689 -141 -719 -91 -858
15 -41 99 -217 186 -390 150 -296 163 -319 225 -381 72 -71 171 -126 270 -149
78 -18 231 -8 306 20 282 107 431 412 339 694 -9 28 -63 144 -120 257 l-103
206 45 219 c24 120 51 251 59 289 66 301 145 743 145 807 0 141 -33 219 -219
518 -60 96 -108 176 -107 177 1 1 141 -54 311 -123 171 -69 335 -135 365 -146
30 -11 56 -21 57 -22 1 -1 74 -181 161 -401 321 -805 329 -824 376 -890 25
-34 74 -84 108 -110 79 -59 682 -360 763 -380 187 -47 392 12 528 153 104 108
157 235 157 373 0 166 -51 293 -164 405 -66 65 -87 79 -290 181 l-219 109 -20
50 c-10 27 -29 76 -42 109 -12 33 -58 146 -100 250 -43 105 -106 262 -140 350
-190 483 -214 533 -301 620 -81 81 -116 97 -726 340 l-498 198 0 369 0 368 34
0 c230 0 461 197 511 435 20 95 19 157 -5 250 -53 209 -216 366 -425 410 -55
11 -156 15 -460 15 l-390 0 -105 -105 c-58 -58 -108 -105 -112 -105 -5 0 -95
47 -201 105 l-193 105 -324 -1 c-239 0 -342 -4 -390 -15z m717 -274 c23 -6 95
-34 160 -64 201 -92 240 -91 401 7 56 33 110 59 136 62 23 4 190 5 372 3 354
-5 389 -9 474 -63 73 -46 80 -65 80 -222 0 -198 -19 -230 -165 -279 -44 -15
-96 -37 -115 -49 -48 -31 -190 -179 -190 -199 0 -9 -4 -16 -10 -16 -6 0 -10
-132 -10 -375 0 -243 4 -375 10 -375 6 0 10 -8 10 -19 0 -58 162 -230 263
-279 34 -17 237 -101 450 -186 418 -168 507 -209 554 -259 17 -18 63 -93 103
-167 40 -74 78 -142 85 -150 28 -34 87 -154 148 -300 80 -193 103 -261 111
-325 21 -166 142 -378 276 -478 33 -25 121 -78 195 -118 74 -39 153 -87 175
-106 81 -69 130 -234 101 -340 -27 -100 -155 -189 -290 -200 -123 -10 -192 16
-389 145 -64 42 -179 111 -255 152 -192 104 -221 136 -323 365 -25 54 -51 106
-58 115 -50 56 -150 270 -286 611 -86 215 -103 245 -189 329 -159 157 -530
340 -687 340 -69 0 -106 -16 -171 -74 -96 -86 -123 -171 -87 -276 27 -78 84
-182 143 -258 105 -137 101 -123 101 -326 0 -168 -2 -191 -36 -350 -21 -103
-55 -225 -85 -307 -70 -191 -109 -389 -109 -546 0 -141 3 -153 112 -386 37
-81 80 -181 93 -222 29 -84 33 -186 11 -240 -24 -56 -91 -120 -159 -151 -55
-26 -73 -29 -162 -29 -187 1 -217 32 -436 468 -60 120 -124 257 -141 305 -30
80 -33 99 -36 233 l-4 147 102 503 c123 606 121 585 38 759 -30 63 -178 322
-330 575 -302 504 -318 533 -318 568 0 14 -7 44 -15 67 -13 36 -15 127 -15
576 0 344 -4 535 -10 539 -5 3 -10 15 -10 26 0 10 -4 19 -10 19 -5 0 -10 7
-10 14 0 21 -88 124 -149 175 -33 28 -88 58 -149 83 -119 47 -162 76 -191 129
-20 35 -22 51 -19 137 3 88 6 101 33 141 68 100 156 140 335 150 151 9 494 3
547 -9z M2772 7463 c-364 -272 -619 -641 -721 -1041 -87 -340 -63 -764 66
-1154 46 -140 136 -211 268 -212 114 -1 206 56 253 157 38 83 37 127 -11 289
-112 376 -96 717 47 1013 87 180 216 341 384 478 43 35 58 53 50 59 -20 12
-184 9 -215 -4 -137 -59 -345 -347 -433 -600 -52 -153 -60 -214 -60 -488 0
-230 2 -260 25 -366 30 -138 34 -283 9 -308 -18 -18 -51 -20 -88 -6 -29 11
-81 85 -97 140 -46 152 -48 183 -49 553 0 328 2 364 20 435 58 220 174 425
353 620 42 47 77 89 77 94 0 4 27 41 61 81 33 39 72 97 86 127 28 60 83 191
83 196 0 13 -28 -4 -108 -63z M6020 7283 c1 -106 52 -223 130 -298 16 -16 30
-34 30 -40 0 -16 122 -113 227 -182 187 -122 369 -202 532 -234 59 -11 130
-25 159 -30 62 -12 80 -35 62 -79 -18 -43 -56 -54 -161 -46 -95 7 -286 51
-379 88 -161 63 -366 181 -547 314 -65 48 -141 97 -170 110 -47 21 -146 44
-246 58 l-38 5 21 -27 c12 -15 60 -63 108 -106 277 -252 572 -444 850 -551
190 -73 456 -118 566 -95 108 22 193 107 217 216 34 153 -83 313 -240 328
-224 22 -285 38 -458 121 -178 85 -351 207 -563 395 -97 86 -100 88 -100 53z
M9070 5470 c-182 -40 -514 -150 -750 -249 -52 -21 -284 -122 -515 -223 -368
-162 -426 -190 -466 -229 -25 -24 -54 -57 -63 -72 -20 -32 -58 -138 -52 -144
2 -2 26 5 54 16 70 28 1857 810 1962 859 84 39 85 40 57 51 -40 16 -129 12
-227 -9z M5490 4915 c-58 -17 -115 -37 -125 -43 -18 -10 -15 -13 30 -33 95
-42 175 -38 200 11 16 30 20 86 8 93 -5 2 -55 -10 -113 -28z M9705 4414 c-136
-59 -1576 -689 -1647 -721 -43 -20 -78 -39 -78 -44 0 -14 80 -71 115 -80 31
-9 54 -4 171 36 127 43 391 152 664 275 331 148 777 431 833 529 22 37 19 37
-58 5z M5884 4134 c-74 -19 -241 -90 -295 -125 -54 -34 -234 -218 -262 -268
l-18 -31 48 19 c69 27 592 255 695 303 48 22 85 44 83 48 -10 16 -96 50 -148
58 -38 6 -70 5 -103 -4z M6895 3185 c-16 -8 -320 -141 -675 -296 -355 -155
-667 -292 -694 -306 l-48 -24 23 -26 c31 -32 74 -54 124 -64 43 -8 102 13 425
151 80 33 183 77 230 97 47 19 177 76 289 126 355 156 391 185 391 308 0 55
-10 60 -65 34z"/>
</g>
</svg>
