<?xml version="1.0" standalone="no"?>
<!DOCTYPE svg PUBLIC "-//W3C//DTD SVG 20010904//EN"
 "http://www.w3.org/TR/2001/REC-SVG-20010904/DTD/svg10.dtd">
<svg version="1.0" xmlns="http://www.w3.org/2000/svg"
 width="2048.000000pt" height="2048.000000pt" viewBox="0 0 2048.000000 2048.000000"
 preserveAspectRatio="xMidYMid meet">
<metadata>
Created by potrace 1.13, written by Peter Selinger 2001-2015
</metadata>
<g transform="translate(0.000000,2048.000000) scale(0.192120,-0.192120)"
fill="#000000" stroke="none">
<path d="M5800 9814 c-265 -22 -446 -52 -684 -114 -205 -52 -368 -107 -684
-229 -986 -380 -1727 -530 -2617 -531 -194 0 -270 -11 -375 -53 -225 -91 -407
-281 -615 -642 -108 -186 -291 -568 -315 -656 -28 -100 -31 -201 -7 -245 16
-32 56 -64 79 -64 7 0 33 -14 57 -30 116 -79 208 -21 476 300 188 227 269 313
371 399 152 127 286 197 434 227 140 28 233 15 503 -71 199 -64 281 -79 402
-72 111 7 146 16 285 75 156 67 226 77 515 76 179 0 326 -7 515 -24 350 -32
824 -35 965 -7 221 45 367 108 466 203 l36 35 7 -247 c33 -1214 230 -2287 504
-2738 23 -37 42 -70 42 -73 0 -3 -15 -24 -33 -47 -168 -207 -375 -627 -511
-1039 -87 -262 -165 -377 -257 -377 -76 0 -145 94 -208 284 -58 175 -89 367
-101 634 -14 310 -56 496 -169 754 -204 464 -633 884 -1187 1161 -206 103
-347 136 -619 144 -329 9 -577 -42 -838 -173 -176 -89 -353 -243 -452 -394
-119 -182 -220 -457 -271 -735 -21 -119 -30 -421 -15 -554 44 -404 210 -796
454 -1071 41 -47 98 -103 126 -125 27 -22 50 -42 50 -45 0 -3 -31 -24 -68 -48
l-69 -42 -831 2 -831 3 0 -1667 0 -1668 5000 0 5000 0 0 2173 0 2174 -182 101
c-331 183 -717 358 -1023 463 -163 56 -269 77 -438 88 -142 10 -208 31 -294
95 -125 91 -229 253 -328 511 -95 244 -175 580 -280 1170 -108 606 -130 710
-182 870 -60 185 -183 388 -536 882 -254 357 -330 493 -346 620 -5 43 -18 87
-31 107 -60 98 -243 180 -477 215 -78 12 -339 21 -413 15z m418 -310 c115 -19
204 -50 229 -77 11 -12 57 -96 101 -187 97 -198 167 -310 379 -609 269 -379
383 -565 432 -706 44 -128 103 -403 181 -850 179 -1018 339 -1471 631 -1779
159 -169 289 -231 534 -257 111 -11 175 -29 175 -49 0 -20 -52 -55 -140 -92
-421 -179 -1186 -233 -1815 -127 -252 42 -582 138 -657 191 -39 27 -36 60 12
150 104 197 104 231 2 474 -39 95 -89 224 -111 287 -160 467 -276 1239 -311
2067 -12 288 -22 355 -63 433 -36 70 -151 182 -200 195 -47 13 -72 7 -229 -55
-258 -102 -372 -118 -748 -110 -140 3 -372 15 -515 27 -333 28 -660 31 -795 6
-52 -9 -160 -39 -240 -66 -253 -86 -323 -86 -602 -4 -256 75 -325 87 -463 81
-119 -5 -194 -23 -326 -81 -192 -82 -422 -278 -677 -576 -110 -129 -178 -199
-194 -200 -5 0 -8 22 -8 48 0 40 13 74 83 212 269 535 469 747 742 788 39 6
180 14 315 17 895 22 1556 162 2555 543 528 201 876 291 1240 321 139 12 371
5 483 -15z m-3036 -2905 c193 -21 370 -80 553 -185 44 -25 109 -62 145 -82
243 -134 449 -274 590 -402 l55 -50 -135 64 c-74 35 -184 80 -245 100 -840
278 -1668 -95 -1939 -873 -56 -161 -77 -274 -83 -463 -8 -240 16 -413 93 -650
20 -60 34 -111 32 -113 -2 -2 -16 -1 -33 2 -117 23 -367 481 -439 804 -25 113
-26 127 -26 458 0 378 3 407 66 597 38 114 100 246 161 341 107 168 297 303
539 382 215 70 441 94 666 70z m611 -610 c124 -14 374 -65 443 -91 84 -31 158
-82 239 -163 85 -85 135 -155 185 -260 47 -96 100 -252 100 -291 0 -16 9 -72
21 -124 15 -71 22 -147 26 -302 5 -197 4 -209 -16 -251 -20 -42 -24 -45 -72
-51 -139 -19 -424 -119 -734 -259 -104 -47 -201 -87 -215 -89 -23 -3 -25 0
-28 44 -2 38 7 72 46 170 89 219 97 268 60 338 -28 53 -111 136 -160 161 -45
23 -142 25 -178 4 -14 -8 -40 -21 -58 -30 -18 -9 -79 -54 -135 -100 -71 -59
-139 -104 -222 -147 -66 -34 -192 -106 -279 -161 -221 -139 -421 -228 -479
-213 -31 7 -58 62 -87 177 -20 76 -21 103 -17 284 7 322 56 504 200 740 74
121 103 158 187 244 183 184 379 288 660 351 173 38 298 43 513 19z m5572
-1060 c36 -38 70 -57 216 -123 244 -108 463 -226 468 -251 2 -11 12 -26 22
-33 18 -12 19 -31 19 -308 0 -287 0 -294 -20 -294 -16 0 -20 -7 -20 -30 l0
-30 -1537 0 c-1349 1 -1540 2 -1558 16 -11 8 -63 56 -115 107 -148 144 -301
219 -505 248 -148 20 -240 -7 -309 -91 l-40 -47 -115 54 c-63 29 -117 56 -120
59 -3 2 21 28 52 57 65 61 96 111 160 262 59 142 77 211 77 303 0 56 3 73 13
69 542 -240 1060 -340 1667 -324 618 17 1153 163 1458 398 l87 67 29 -31 c16
-18 48 -53 71 -78z m-5663 -275 c15 -32 0 -75 -91 -271 -147 -317 -169 -496
-64 -539 75 -32 185 -2 450 124 508 240 900 342 1040 269 79 -41 83 -139 12
-302 -50 -117 -63 -207 -35 -250 l16 -25 178 0 c204 0 234 7 398 91 112 57
188 108 267 178 66 58 108 82 185 105 178 52 451 8 610 -99 102 -69 131 -156
77 -236 l-25 -39 1774 -2 1775 -3 -54 -84 c-30 -46 -55 -94 -55 -107 0 -13 -4
-24 -10 -24 -6 0 -10 -52 -10 -135 0 -83 -4 -135 -10 -135 -7 0 -10 -427 -10
-1260 0 -1253 0 -1260 -20 -1260 -17 0 -20 -7 -20 -45 l0 -45 -4760 0 -4760 0
0 1425 0 1425 45 0 c38 0 45 3 45 20 0 19 13 19 653 22 596 3 656 5 698 21 64
25 122 77 149 134 22 47 22 49 5 97 l-17 50 28 20 c61 46 326 227 629 429 527
353 748 476 858 477 31 0 40 -5 49 -26z M4125 5736 c-174 -34 -327 -111 -495
-249 -38 -32 -77 -72 -86 -90 -36 -68 -10 -153 56 -188 68 -37 111 -23 214 69
114 101 244 166 366 184 36 5 80 17 99 26 124 61 93 239 -45 256 -21 3 -70 -1
-109 -8z M2965 4891 c-141 -37 -253 -91 -370 -179 -110 -82 -153 -125 -171
-169 -37 -88 32 -183 133 -183 43 0 63 12 145 84 110 100 266 174 398 191 73
10 106 30 131 83 29 58 19 104 -31 154 -36 36 -41 38 -101 37 -35 0 -95 -9
-134 -18z"/>
</g>
</svg>
