<?xml version="1.0" standalone="no"?>
<!DOCTYPE svg PUBLIC "-//W3C//DTD SVG 20010904//EN"
 "http://www.w3.org/TR/2001/REC-SVG-20010904/DTD/svg10.dtd">
<svg version="1.0" xmlns="http://www.w3.org/2000/svg"
 width="2048.000000pt" height="2048.000000pt" viewBox="0 0 2048.000000 2048.000000"
 preserveAspectRatio="xMidYMid meet">
<metadata>
Created by potrace 1.13, written by Peter Selinger 2001-2015
</metadata>
<g transform="translate(0.000000,2048.000000) scale(0.192120,-0.192120)"
fill="#000000" stroke="none">
<path d="M4010 10300 c-181 -25 -423 -94 -576 -165 -220 -101 -352 -259 -362
-434 -5 -92 9 -150 48 -194 l29 -33 -11 -79 c-14 -113 -3 -386 22 -530 43
-252 126 -450 235 -561 33 -33 78 -70 100 -82 50 -25 145 -43 194 -37 20 2 77
9 126 15 50 6 126 18 169 27 90 17 100 13 112 -54 l6 -33 28 20 c15 11 33 34
40 51 12 28 11 36 -10 76 -29 54 -90 100 -144 108 -23 4 -95 -1 -161 -9 -160
-21 -202 -20 -245 5 -81 49 -158 161 -206 302 -33 96 -70 322 -79 480 -4 70
-11 127 -16 127 -5 0 -9 8 -9 17 0 10 -32 48 -71 85 -39 38 -66 68 -59 68 7 0
38 23 69 52 98 90 229 133 359 118 l44 -5 96 -287 c96 -285 97 -288 125 -288
41 0 71 39 96 126 12 42 31 89 42 104 71 95 232 101 317 12 40 -43 75 -130 76
-192 1 -56 -2 -64 -73 -195 -32 -58 -33 -63 -29 -160 3 -78 9 -111 27 -147 61
-126 196 -201 383 -214 l87 -7 56 54 c119 112 242 366 290 596 46 223 37 448
-23 623 -44 127 -103 221 -206 329 -149 155 -300 245 -491 292 -93 23 -305 33
-405 19z m342 -305 c81 -17 169 -52 245 -96 77 -45 212 -182 243 -244 25 -49
25 -54 28 -342 l3 -293 -31 -92 c-67 -201 -151 -285 -255 -257 -51 14 -65 42
-65 124 0 55 7 91 31 156 28 76 31 92 27 174 -7 135 -46 217 -160 333 -89 89
-150 117 -258 117 -77 0 -91 -3 -144 -32 -91 -50 -98 -47 -157 67 -23 45 -66
98 -137 170 l-103 105 24 21 c25 22 171 64 302 88 105 19 321 20 407 1z
M10275 8847 c-314 -577 -791 -1244 -1303 -1822 -156 -176 -672 -690 -857 -855
-419 -372 -1045 -853 -1145 -880 l-44 -12 24 -18 c29 -22 87 -40 127 -40 36 0
76 29 108 80 l23 37 159 31 c735 146 1533 229 1832 191 145 -18 176 -42 174
-134 -3 -139 -159 -377 -424 -649 -65 -66 -117 -121 -116 -122 1 -1 43 2 92 7
203 18 472 6 635 -27 100 -21 188 -62 228 -108 28 -32 32 -43 26 -70 -17 -78
-103 -194 -279 -375 -627 -644 -1922 -1616 -2925 -2196 -810 -468 -1761 -800
-2680 -935 -268 -39 -436 -52 -757 -57 -430 -7 -706 16 -978 81 -156 38 -162
42 -80 50 270 29 467 83 785 216 252 105 1372 596 1440 630 67 34 117 84 130
131 11 36 14 119 4 119 -15 0 -2367 -1026 -2457 -1072 l-39 -19 -71 27 c-214
80 -378 197 -432 308 -32 66 -43 173 -26 272 16 95 75 272 124 374 42 84 42
85 102 108 49 20 2021 881 2273 993 l73 32 -32 33 c-18 18 -47 40 -65 49 -61
29 -99 22 -264 -50 -85 -37 -213 -91 -285 -120 -259 -105 -1013 -438 -1151
-509 -187 -97 -345 -203 -512 -344 l-63 -53 31 61 c106 210 419 609 674 859
l75 75 51 -13 c74 -19 114 -16 173 13 50 25 90 54 479 352 100 77 212 161 248
186 100 69 278 188 284 188 2 0 40 22 83 49 219 136 320 218 408 332 50 63 92
145 82 156 -10 9 -64 -18 -267 -130 -458 -253 -895 -555 -1245 -860 -65 -56
-133 -115 -152 -131 -78 -65 -1046 -285 -1701 -387 -145 -22 -510 -69 -540
-69 -2 0 -1 -345 1 -768 3 -749 4 -769 25 -857 33 -133 59 -210 108 -308 160
-324 427 -510 799 -556 128 -16 8002 -16 8130 0 502 62 824 389 916 929 19
113 19 190 17 3892 l-3 3777 -50 -92z m-230 -7689 c-8 -32 -24 -78 -35 -103
-11 -24 -20 -47 -20 -50 0 -4 -21 -39 -46 -78 -110 -172 -252 -267 -479 -320
l-90 -22 -3975 -3 c-2805 -2 -4007 0 -4082 8 -199 20 -372 88 -491 192 -87 76
-161 193 -213 334 l-29 79 -3 696 -3 696 93 12 c171 21 635 101 898 155 143
29 262 51 265 48 12 -13 3 -50 -22 -87 -52 -78 -219 -312 -314 -440 -116 -158
-166 -249 -216 -397 -37 -112 -37 -114 -41 -302 -2 -108 1 -198 6 -210 5 -12
18 -41 28 -66 72 -171 233 -334 424 -427 134 -66 198 -83 369 -99 86 -8 181
-19 211 -24 326 -57 850 -76 1221 -46 1037 84 2068 398 3016 917 1081 592
2643 1777 3262 2473 117 132 221 315 221 390 0 90 -141 267 -266 333 -56 30
-245 83 -294 83 -12 0 -25 10 -32 25 -10 23 -5 39 50 148 81 159 102 223 102
307 0 87 -32 160 -107 241 -71 76 -121 105 -203 118 -143 23 -537 6 -929 -40
-97 -11 -216 -21 -266 -22 -137 -3 -133 8 62 179 682 600 1233 1207 1753 1934
72 102 144 199 158 215 l27 30 3 -3410 c2 -2989 0 -3417 -13 -3467z M4600
8300 c-61 -60 -66 -95 -20 -133 31 -26 97 -53 107 -43 6 6 -27 226 -34 226 -2
0 -26 -22 -53 -50z M3408 8100 c-219 -37 -412 -220 -450 -427 -5 -32 -12 -67
-14 -78 -2 -11 -21 -30 -42 -42 -118 -67 -318 -236 -439 -371 -463 -521 -582
-1170 -348 -1910 40 -125 121 -200 237 -217 139 -21 281 82 308 223 11 58 5
94 -33 224 -111 375 -96 717 47 1013 92 190 219 345 410 498 l90 72 -55 8
c-80 12 -197 4 -244 -18 -53 -24 -197 -171 -262 -266 -66 -96 -164 -292 -193
-384 -45 -147 -50 -195 -50 -460 0 -231 2 -265 25 -377 45 -223 24 -329 -53
-258 -37 34 -49 61 -76 157 -26 92 -26 93 -26 485 0 385 1 395 24 473 65 218
179 408 357 593 43 45 79 87 79 93 0 6 23 38 51 70 48 55 106 161 160 293 l24
59 11 -69 c33 -191 140 -344 295 -422 72 -36 165 -62 221 -62 l37 0 3 -617 3
-618 25 -65 c14 -36 185 -330 380 -655 195 -324 363 -605 372 -622 18 -32 17
-37 -103 -635 -138 -689 -141 -719 -91 -858 15 -41 99 -217 186 -390 150 -296
163 -319 225 -381 72 -71 171 -126 270 -149 78 -18 231 -8 306 20 282 107 431
412 339 694 -9 28 -63 144 -120 257 l-103 206 45 219 c24 120 51 251 59 289
66 301 145 743 145 807 0 141 -33 219 -219 518 -60 96 -108 176 -107 177 1 1
141 -54 311 -123 171 -69 335 -135 365 -146 30 -11 56 -21 57 -22 1 -1 74
-181 161 -401 321 -805 329 -824 376 -890 25 -34 74 -84 108 -110 79 -59 682
-360 763 -380 187 -47 392 12 528 153 104 108 157 235 157 373 0 166 -51 293
-164 405 -66 65 -87 79 -290 181 l-219 109 -20 50 c-10 27 -29 76 -42 109 -12
33 -58 146 -100 250 -43 105 -106 262 -140 350 -190 483 -214 533 -301 620
-81 81 -116 97 -726 340 l-498 198 0 367 0 367 78 7 c159 14 338 138 419 291
35 67 32 72 53 -65 15 -93 38 -147 93 -218 93 -121 212 -218 414 -340 146 -87
353 -166 491 -187 74 -11 97 -21 100 -43 2 -14 -3 -25 -14 -29 -22 -8 -199 13
-279 34 -33 8 -67 17 -75 18 -8 2 -15 4 -15 5 0 1 -9 3 -20 5 -37 7 -169 65
-265 117 -86 45 -202 121 -422 272 -42 29 -105 62 -140 74 -85 28 -220 54
-255 50 l-28 -3 40 -44 c50 -56 245 -227 355 -312 188 -146 432 -289 625 -364
178 -70 462 -117 569 -95 149 31 249 180 217 324 -31 137 -143 226 -288 226
-275 0 -641 202 -1046 576 l-77 70 15 70 c20 94 19 156 -5 249 -53 209 -216
366 -425 410 -55 11 -156 15 -462 15 l-392 0 -102 -105 c-56 -58 -106 -105
-111 -105 -5 0 -95 47 -200 105 l-192 105 -320 -1 c-177 -1 -342 -5 -368 -9z
m736 -271 c21 -6 76 -28 122 -49 113 -53 186 -73 233 -65 20 3 72 26 115 50
43 25 94 50 114 56 25 7 156 9 402 7 394 -5 423 -8 510 -63 75 -47 80 -63 80
-243 0 -97 -4 -163 -10 -167 -5 -3 -10 -15 -10 -25 0 -30 -52 -59 -137 -76
-43 -9 -91 -23 -107 -31 -42 -22 -196 -173 -202 -200 -4 -12 -10 -23 -15 -23
-5 0 -9 -162 -9 -375 0 -243 4 -375 10 -375 6 0 10 -8 10 -19 0 -58 162 -230
263 -279 34 -17 237 -101 450 -186 418 -168 507 -209 554 -259 17 -18 63 -93
103 -167 40 -74 78 -142 85 -150 28 -34 87 -154 148 -300 80 -193 103 -261
111 -325 21 -166 142 -378 276 -478 33 -25 121 -78 195 -118 74 -39 153 -87
175 -106 81 -69 130 -234 101 -340 -27 -100 -155 -189 -290 -200 -123 -10
-192 16 -389 145 -64 42 -179 111 -255 152 -192 104 -221 136 -323 365 -25 54
-51 106 -58 115 -50 56 -150 270 -286 611 -86 215 -103 245 -189 329 -159 157
-530 340 -687 340 -69 0 -106 -16 -171 -74 -96 -86 -123 -171 -87 -276 27 -78
84 -182 143 -258 105 -137 101 -123 101 -326 0 -168 -2 -191 -36 -350 -21
-103 -55 -225 -85 -307 -70 -191 -109 -389 -109 -546 0 -141 3 -153 112 -386
37 -81 80 -181 93 -222 29 -84 33 -186 11 -240 -24 -56 -91 -120 -159 -151
-55 -26 -73 -29 -162 -29 -187 1 -217 32 -436 468 -60 120 -124 257 -141 305
-30 80 -33 99 -36 233 l-4 147 102 503 c123 606 121 585 38 759 -30 63 -178
322 -330 575 -302 504 -318 533 -318 568 0 14 -7 44 -15 67 -13 36 -15 127
-15 576 0 344 -4 535 -10 539 -5 3 -10 15 -10 26 0 10 -4 19 -9 19 -5 0 -12
11 -15 25 -8 31 -159 186 -204 209 -18 9 -71 30 -119 47 -91 32 -145 62 -178
99 -30 33 -33 147 -6 224 46 132 145 203 316 226 94 12 604 12 649 -1z M9070
5470 c-182 -40 -514 -150 -750 -249 -52 -21 -284 -122 -515 -223 -368 -162
-426 -190 -466 -229 -25 -24 -54 -57 -63 -72 -20 -32 -58 -138 -52 -144 2 -2
26 5 54 16 70 28 1857 810 1962 859 84 39 85 40 57 51 -40 16 -129 12 -227 -9z
M5490 4915 c-58 -17 -115 -37 -125 -43 -18 -10 -15 -13 30 -33 95 -42 175 -38
200 11 16 30 20 86 8 93 -5 2 -55 -10 -113 -28z M9705 4414 c-136 -59 -1576
-689 -1647 -721 -43 -20 -78 -39 -78 -44 0 -14 80 -71 115 -80 31 -9 54 -4
171 36 127 43 391 152 664 275 331 148 777 431 833 529 22 37 19 37 -58 5z
M5884 4134 c-74 -19 -241 -90 -295 -125 -54 -34 -234 -218 -262 -268 l-18 -31
48 19 c69 27 592 255 695 303 48 22 85 44 83 48 -10 16 -96 50 -148 58 -38 6
-70 5 -103 -4z M6895 3185 c-16 -8 -320 -141 -675 -296 -355 -155 -667 -292
-694 -306 l-48 -24 23 -26 c31 -32 74 -54 124 -64 43 -8 102 13 425 151 80 33
183 77 230 97 47 19 177 76 289 126 355 156 391 185 391 308 0 55 -10 60 -65
34z"/>
</g>
</svg>
