<?xml version="1.0" standalone="no"?>
<!DOCTYPE svg PUBLIC "-//W3C//DTD SVG 20010904//EN"
 "http://www.w3.org/TR/2001/REC-SVG-20010904/DTD/svg10.dtd">
<svg version="1.0" xmlns="http://www.w3.org/2000/svg"
 width="2048.000000pt" height="2048.000000pt" viewBox="0 0 2048.000000 2048.000000"
 preserveAspectRatio="xMidYMid meet">
<metadata>
Created by potrace 1.13, written by Peter Selinger 2001-2015
</metadata>
<g transform="translate(0.000000,2048.000000) scale(0.192120,-0.192120)"
fill="#000000" stroke="none">
<path d="M1650 10050 c-126 -16 -231 -69 -325 -164 -82 -83 -118 -145 -145
-252 -20 -76 -20 -126 -20 -4434 0 -3105 3 -4373 11 -4416 45 -247 264 -439
514 -451 260 -14 485 141 566 389 l24 73 0 1424 0 1423 -70 28 c-87 34 -151
88 -181 154 l-24 51 0 835 c0 459 -4 841 -9 848 -14 22 -116 -3 -146 -36 l-25
-27 0 -833 0 -832 24 -59 c24 -58 113 -188 155 -225 l21 -19 0 -1375 c0 -1370
0 -1376 -21 -1418 -41 -86 -136 -144 -249 -152 -88 -6 -168 12 -210 47 -40 33
-43 65 -12 133 12 26 22 58 22 71 0 14 7 38 15 53 13 26 15 512 15 4132 l0
4103 21 42 c45 87 131 167 149 137 4 -7 15 -10 24 -7 15 6 16 -65 16 -803 0
-715 2 -809 15 -804 12 5 15 -2 15 -30 0 -20 4 -36 9 -36 5 0 12 -8 15 -18 6
-19 46 -36 108 -47 l36 -7 7 -91 c3 -51 5 -487 3 -970 l-3 -878 95 -29 c446
-136 1044 -226 1643 -246 l207 -7 0 -974 0 -974 42 5 c24 3 86 8 138 11 231
15 613 64 925 121 155 28 813 161 833 169 9 3 12 205 12 964 l0 960 123 40
c410 132 993 215 1660 235 l157 5 0 -969 0 -968 98 -6 c462 -30 805 -103 1140
-243 70 -29 100 -36 152 -37 111 0 207 61 254 163 21 46 21 53 24 921 l2 875
-187 52 c-456 127 -949 203 -1313 203 -59 0 -122 3 -139 6 l-31 7 0 968 0 969
88 0 c461 -1 1072 -93 1491 -225 l81 -26 0 -64 c0 -62 -21 -130 -45 -147 -6
-5 -11 -262 -13 -728 l-3 -720 28 -58 c20 -42 29 -79 33 -142 4 -47 7 724 8
1712 1 1249 -1 1812 -9 1847 -22 103 -84 164 -226 222 -393 161 -835 255
-1295 276 l-138 6 0 -975 0 -975 -227 -7 c-611 -18 -1104 -84 -1503 -201 -64
-19 -137 -43 -163 -54 l-47 -20 -1 -928 c0 -510 -4 -948 -7 -973 l-7 -44 -95
-23 c-266 -64 -803 -162 -1085 -198 -194 -24 -418 -44 -592 -51 l-163 -7 0
971 0 970 63 6 c34 3 126 8 205 11 330 13 775 73 1227 165 215 44 435 97 444
106 10 10 13 1974 3 1974 -6 0 -95 -18 -198 -41 -740 -160 -1175 -231 -1581
-261 l-163 -12 0 -972 0 -973 -127 5 c-615 22 -1255 118 -1775 264 l-38 11 0
867 c0 850 1 868 21 912 40 88 139 160 222 160 32 0 37 3 37 23 0 108 -70 273
-154 364 -118 128 -303 195 -476 173z m222 -242 c66 -31 140 -95 173 -152 26
-44 47 -120 39 -141 -4 -9 -51 -14 -167 -17 -136 -4 -171 -9 -220 -28 -107
-41 -201 -139 -240 -250 -9 -27 -13 -946 -17 -4210 -4 -3423 -7 -4179 -18
-4198 -7 -13 -28 -32 -45 -42 -33 -21 -102 -27 -112 -11 -3 6 4 45 15 87 20
77 20 92 20 4133 0 2691 4 4105 11 4201 13 195 45 383 73 446 42 91 129 170
221 201 66 21 199 12 267 -19z m6493 -369 c245 -34 617 -131 782 -205 l53 -23
0 -636 0 -635 -22 5 c-206 47 -345 73 -533 100 -145 20 -413 45 -487 45 l-58
0 0 690 0 690 63 -6 c34 -3 125 -15 202 -25z m-2782 -1680 c-11 -10 -435 -93
-633 -123 -226 -35 -482 -65 -622 -73 l-118 -6 0 690 0 690 118 12 c267 28
703 101 1102 185 l155 32 3 -700 c1 -385 -1 -703 -5 -707z m1957 -918 l0 -688
-117 -7 c-423 -24 -848 -80 -1147 -151 -59 -14 -110 -25 -112 -25 -2 0 -4 310
-4 689 l0 689 128 30 c190 45 214 50 382 76 257 41 576 71 778 75 l92 1 0
-689z m-5030 296 c340 -70 600 -105 1063 -142 l77 -7 0 -690 0 -691 -117 7
c-386 22 -789 80 -1165 168 l-138 32 0 689 0 689 28 -5 c15 -2 128 -25 252
-50z m5860 -1573 c236 -24 553 -80 775 -137 l50 -13 3 -722 2 -722 -26 0 c-15
0 -122 31 -238 69 -273 89 -513 141 -768 167 l-68 7 0 687 0 687 58 -4 c31 -2
127 -11 212 -19z m-2780 -987 l0 -673 -317 -62 c-434 -85 -567 -105 -1015
-157 l-48 -6 0 684 0 684 148 12 c306 25 716 85 1062 155 91 19 166 34 168 35
1 1 2 -302 2 -672z M7345 9769 c-180 -14 -445 -48 -695 -90 -264 -44 -626
-116 -648 -128 -11 -6 1 -15 42 -30 97 -36 114 -35 426 18 377 64 615 96 865
116 110 9 202 20 203 25 2 6 11 10 20 10 16 0 152 77 152 85 0 7 -242 3 -365
-6z M2330 9475 c0 -32 29 -83 61 -108 42 -31 85 -49 214 -92 278 -91 614 -145
925 -148 l145 -2 58 33 c31 19 57 37 57 41 0 5 -91 11 -202 14 -429 13 -712
73 -1175 246 -68 25 -83 28 -83 16z M7250 4024 c-214 -20 -423 -48 -705 -95
-319 -53 -305 -51 -305 -60 0 -4 -14 -11 -32 -14 -38 -9 -77 -35 -138 -93 -30
-29 -38 -42 -25 -38 39 10 483 96 650 125 311 55 573 86 825 97 80 4 151 10
157 13 8 4 -12 20 -49 41 -55 29 -73 34 -143 36 -44 2 -150 -4 -235 -12z
M2466 3652 c-30 -4 -76 -29 -76 -42 0 -20 299 -107 511 -149 247 -48 388 -63
634 -68 303 -7 296 -8 216 45 -36 23 -73 42 -83 42 -10 0 -18 5 -18 10 0 6
-32 10 -76 10 -192 0 -604 52 -839 106 -163 37 -237 50 -269 46z"/>
</g>
</svg>
