<?xml version="1.0" standalone="no"?>
<!DOCTYPE svg PUBLIC "-//W3C//DTD SVG 20010904//EN"
 "http://www.w3.org/TR/2001/REC-SVG-20010904/DTD/svg10.dtd">
<svg version="1.0" xmlns="http://www.w3.org/2000/svg"
 width="2048.000000pt" height="2048.000000pt" viewBox="0 0 2048.000000 2048.000000"
 preserveAspectRatio="xMidYMid meet">
<metadata>
Created by potrace 1.13, written by Peter Selinger 2001-2015
</metadata>
<g transform="translate(0.000000,2048.000000) scale(0.192120,-0.192120)"
fill="#000000" stroke="none">
<path d="M4380 10038 c-180 -20 -414 -97 -567 -186 -170 -99 -318 -243 -380
-368 -32 -66 -37 -87 -41 -164 -4 -78 -1 -94 21 -143 13 -30 45 -76 71 -102
l46 -48 -7 -87 c-22 -313 118 -659 361 -888 191 -181 424 -286 694 -313 96
-10 238 -1 286 17 17 7 25 -20 33 -118 l6 -78 -44 -47 c-87 -94 -162 -226
-195 -348 -22 -83 -30 -316 -14 -432 l13 -93 -99 -122 c-124 -155 -464 -497
-609 -612 -236 -188 -525 -361 -763 -455 -110 -44 -301 -104 -367 -115 -64
-12 -179 -72 -207 -108 -38 -50 -55 -89 -63 -140 -21 -138 82 -281 221 -307
131 -25 533 98 864 264 377 189 689 421 1026 760 l182 183 60 -172 c33 -94
125 -347 206 -563 80 -216 148 -403 151 -415 4 -21 -67 -74 -692 -518 -392
-279 -721 -520 -753 -551 -31 -31 -70 -83 -87 -116 -22 -41 -118 -359 -322
-1076 -160 -560 -291 -1027 -291 -1040 0 -58 -7 -63 -68 -56 -121 16 -447 21
-558 10 -192 -20 -255 -43 -302 -111 -44 -65 -23 -183 40 -224 13 -8 187 -72
388 -141 201 -70 565 -196 810 -281 245 -85 460 -154 478 -154 79 0 140 64
176 182 47 156 58 218 53 302 -5 72 -3 84 23 135 16 32 130 414 264 886 131
457 246 860 256 896 l20 65 342 245 c189 134 393 281 455 326 l113 82 0 -332
c0 -367 4 -399 63 -517 20 -40 57 -90 99 -132 l66 -67 896 -448 c492 -246 898
-444 902 -440 18 17 -104 214 -181 293 -45 45 -107 79 -592 323 -526 264 -863
450 -931 514 -40 38 -72 96 -72 130 0 14 -7 38 -15 53 -12 23 -15 71 -15 224
0 280 -23 351 -128 390 -29 11 -62 20 -72 20 -20 0 -20 9 -20 408 l0 408 -67
17 c-38 10 -99 35 -138 55 l-70 38 -21 70 -22 69 50 27 c75 41 79 49 75 148
-4 95 -11 117 -144 474 -47 127 -96 258 -109 292 -41 112 -84 192 -119 222
-32 29 -129 72 -161 72 -11 0 1 21 35 63 128 157 316 411 364 494 5 7 -23 29
-75 59 -46 26 -151 89 -235 141 -83 51 -154 93 -157 93 -3 0 -17 -17 -31 -37
-14 -21 -25 -35 -25 -31 0 12 60 161 81 200 5 10 9 26 9 36 0 38 49 162 119
296 80 157 88 203 51 276 l-20 40 67 49 c70 52 213 131 280 156 l38 14 -55 1
c-30 1 -89 0 -130 -2 -170 -7 -180 -5 -255 40 -87 53 -110 59 -270 66 -279 12
-448 78 -629 247 -41 38 -97 100 -125 138 -46 61 -70 108 -169 325 -15 32 -61
116 -103 185 -42 69 -75 127 -74 129 2 2 20 -5 42 -16 75 -38 180 -63 353 -83
484 -56 664 -145 936 -465 267 -314 344 -386 486 -456 236 -117 619 -128 928
-27 310 102 660 367 756 574 27 57 31 117 9 135 -8 6 -64 16 -125 21 -61 5
-140 16 -177 24 -274 64 -504 245 -833 656 -138 173 -332 372 -430 440 -186
131 -399 209 -667 244 -125 16 -340 18 -473 3z m533 -312 c281 -53 465 -145
647 -326 47 -47 152 -164 232 -260 304 -365 464 -509 716 -644 54 -28 98 -58
100 -68 14 -71 -298 -223 -538 -263 -207 -34 -490 -28 -609 12 -96 32 -206
129 -381 333 -271 316 -469 457 -741 528 -78 21 -185 39 -389 67 -124 18 -176
36 -229 80 -41 35 -61 80 -61 138 0 35 7 54 35 89 35 47 124 119 203 165 123
72 330 140 497 162 102 14 414 6 518 -13z m87 -3146 c34 -17 61 -38 65 -51 21
-65 -146 -274 -279 -350 -111 -62 -160 -100 -321 -247 -178 -163 -267 -238
-369 -312 -42 -30 -83 -61 -91 -67 -7 -7 -16 -13 -19 -13 -2 0 -44 -26 -93
-58 -48 -33 -113 -72 -143 -88 -30 -16 -58 -33 -62 -39 -5 -7 -8 -7 -8 0 0 7
-3 7 -8 0 -8 -11 -69 -36 -89 -38 -7 0 -13 -4 -13 -9 0 -5 -4 -7 -9 -4 -5 4
-12 0 -14 -6 -4 -9 -6 -8 -6 2 -1 9 36 39 85 70 509 326 962 756 1184 1125 30
50 61 95 69 102 25 20 57 15 121 -17z m-1473 -1292 c-3 -8 -6 -5 -6 6 -1 11 2
17 5 13 3 -3 4 -12 1 -19z m-20 -10 c-3 -8 -6 -5 -6 6 -1 11 2 17 5 13 3 -3 4
-12 1 -19z m-20 -10 c-3 -8 -6 -5 -6 6 -1 11 2 17 5 13 3 -3 4 -12 1 -19z
m-20 -10 c-3 -8 -6 -5 -6 6 -1 11 2 17 5 13 3 -3 4 -12 1 -19z m-20 -10 c-3
-8 -6 -5 -6 6 -1 11 2 17 5 13 3 -3 4 -12 1 -19z m1888 -836 l70 -38 3 -265 2
-265 -82 -53 c-46 -29 -198 -134 -338 -234 -205 -145 -277 -203 -366 -292
-162 -162 -158 -154 -368 -890 -96 -335 -184 -647 -195 -692 -27 -105 -27
-216 0 -328 11 -48 19 -88 17 -90 -2 -2 -43 11 -93 27 -153 51 -428 116 -623
148 -103 17 -191 32 -196 34 -5 1 14 16 41 34 72 47 160 143 188 206 14 31
123 401 244 823 121 423 233 807 249 854 39 115 66 157 132 211 58 48 951 688
1083 776 126 85 134 87 232 34z m-1793 -3226 c89 -19 192 -43 228 -53 l65 -18
3 -89 c3 -95 -5 -116 -44 -116 -26 0 -557 182 -624 213 -25 12 -53 29 -63 38
-17 15 -17 17 6 32 71 46 186 44 429 -7z M5696 7798 c-37 -53 -8 -125 108
-263 28 -33 53 -62 56 -65 3 -3 32 -38 65 -79 85 -105 157 -176 218 -214 28
-17 56 -32 62 -33 5 0 35 -2 66 -2 l56 -2 71 -147 c74 -156 154 -344 191 -453
l22 -65 117 -82 c382 -268 644 -539 818 -844 36 -65 78 -128 92 -142 134 -126
355 -88 439 77 21 40 27 66 27 122 1 65 -3 79 -44 160 -25 49 -79 140 -122
204 -317 476 -827 895 -1534 1261 l-170 89 -58 93 c-108 175 -238 308 -367
377 -68 36 -93 38 -113 8z m1109 -1091 c418 -266 794 -621 979 -926 42 -68 51
-141 18 -141 -26 0 -84 61 -147 155 -181 269 -492 585 -740 752 -33 22 -94 56
-136 75 -50 23 -84 47 -101 69 -27 36 -43 84 -33 99 8 12 21 6 160 -83z M6575
6446 c-16 -8 -41 -26 -55 -41 -35 -38 -33 -116 7 -275 17 -69 39 -159 48 -200
10 -41 35 -136 56 -210 51 -182 122 -467 164 -661 34 -153 45 -289 27 -314 -4
-6 -27 -19 -51 -30 -45 -20 -84 -67 -96 -116 -6 -25 -7 -25 -68 -16 -88 12
-248 3 -342 -21 -178 -46 -256 -56 -427 -57 -161 0 -167 -1 -145 -17 12 -10
30 -20 40 -24 9 -3 17 -10 17 -15 0 -5 7 -9 15 -9 8 0 15 -4 15 -10 0 -5 20
-10 45 -10 27 0 45 -5 45 -11 0 -18 136 -5 333 31 190 34 247 38 247 15 0 -8
9 -15 20 -15 20 0 20 -7 20 -464 0 -299 4 -467 10 -471 6 -3 10 -16 10 -29 0
-42 36 -97 118 -180 103 -103 149 -131 596 -353 l359 -178 191 -2 c105 -1 209
-6 231 -11 32 -8 35 -10 14 -11 -55 -2 -158 -42 -188 -71 -24 -25 -34 -51 -59
-157 -83 -350 -118 -635 -121 -984 -4 -413 37 -658 121 -736 68 -63 192 -51
245 23 32 45 486 1679 480 1726 -11 86 -79 133 -242 167 -95 20 -135 39 -815
380 l-715 359 -5 553 c-3 305 -5 555 -4 557 2 4 68 -21 187 -70 85 -35 128
-48 155 -46 l37 3 3 74 c9 227 -165 995 -360 1591 -55 168 -115 331 -126 342
-4 4 -20 1 -37 -6z m1529 -4008 c99 -19 99 -38 -5 -410 -91 -329 -115 -406
-139 -446 -44 -72 -50 -46 -57 283 -5 250 -4 278 16 383 40 207 50 218 185
190z"/>
</g>
</svg>
