<?xml version="1.0" standalone="no"?>
<!DOCTYPE svg PUBLIC "-//W3C//DTD SVG 20010904//EN"
 "http://www.w3.org/TR/2001/REC-SVG-20010904/DTD/svg10.dtd">
<svg version="1.0" xmlns="http://www.w3.org/2000/svg"
 width="2048.000000pt" height="2048.000000pt" viewBox="0 0 2048.000000 2048.000000"
 preserveAspectRatio="xMidYMid meet">
<metadata>
Created by potrace 1.13, written by Peter Selinger 2001-2015
</metadata>
<g transform="translate(0.000000,2048.000000) scale(0.192120,-0.192120)"
fill="#000000" stroke="none">
<path d="M5568 10275 c-117 -29 -228 -107 -269 -187 -109 -214 114 -775 431
-1083 34 -33 80 -87 103 -120 168 -248 391 -436 644 -545 136 -58 343 -106
343 -80 0 31 -80 178 -107 198 -16 11 -89 48 -162 81 -73 33 -165 82 -204 108
-72 47 -222 192 -372 357 -76 85 -149 141 -274 208 -48 26 -51 31 -73 100 -17
54 -23 97 -23 168 0 86 3 101 31 161 55 115 193 243 344 319 72 36 183 80 203
80 7 0 32 -27 56 -61 60 -85 89 -96 282 -108 122 -7 170 -14 230 -34 229 -77
425 -270 530 -522 l31 -76 -6 -187 c-3 -103 -9 -230 -12 -283 -6 -91 -4 -98
25 -162 41 -93 69 -131 86 -117 22 18 65 126 90 225 53 210 58 447 11 590 -58
180 -156 335 -311 491 -163 164 -311 251 -495 290 -77 16 -234 18 -313 4 l-57
-11 -76 47 c-95 57 -212 108 -313 135 -100 27 -293 35 -373 14z m108 -290 c12
-31 -90 -153 -119 -142 -19 7 -31 58 -22 96 5 24 15 33 48 45 55 19 86 20 93
1z M3023 10030 c-43 -26 -80 -84 -93 -147 -10 -46 -9 -58 7 -90 16 -33 38 -49
168 -120 132 -73 151 -81 160 -66 58 95 97 141 152 178 34 22 62 42 62 45 1 3
-32 22 -72 44 -39 21 -129 70 -198 107 -69 38 -132 69 -140 69 -8 0 -28 -9
-46 -20z M3587 9866 c-26 -7 -50 -15 -52 -18 -10 -10 66 -60 133 -87 37 -15
93 -33 125 -40 38 -8 81 -28 125 -59 60 -41 221 -116 231 -107 2 2 -11 34 -28
70 -35 76 -111 156 -187 197 -101 55 -241 72 -347 44z M3236 9488 c-10 -40 -7
-123 8 -170 9 -33 11 -61 5 -99 -5 -30 -13 -133 -19 -229 -37 -624 118 -1133
448 -1468 80 -81 195 -169 200 -153 5 16 -18 110 -36 146 -17 34 -81 122 -130
179 -53 60 -159 227 -196 308 -39 85 -80 205 -101 293 -40 172 -45 248 -45
628 0 376 -5 501 -21 491 -5 -3 -9 0 -9 7 0 14 -76 89 -90 89 -4 0 -10 -10
-14 -22z M4097 9459 c-34 -20 -67 -108 -67 -177 0 -107 17 -127 172 -212 73
-40 313 -173 533 -295 480 -267 1295 -718 2510 -1390 495 -274 919 -509 943
-522 l42 -24 -24 -42 c-59 -100 -163 -403 -206 -599 -16 -73 -3 -127 51 -202
92 -128 321 -247 483 -250 56 -1 60 1 92 38 41 48 69 120 97 251 18 85 21 135
21 330 0 202 -3 243 -22 334 -41 186 -83 264 -175 325 -58 38 -709 399 -854
474 l-92 47 -40 -39 c-37 -36 -42 -38 -83 -32 -45 7 -220 92 -393 190 -187
107 -221 145 -210 233 6 48 6 48 -37 75 -41 25 -408 229 -1553 863 -286 158
-661 366 -833 461 -172 96 -318 174 -325 174 -7 0 -20 -5 -30 -11z m4367
-2775 c3 -9 6 -143 6 -299 0 -284 -5 -327 -36 -339 -21 -8 -97 22 -137 55
l-37 30 0 88 c0 73 6 107 36 201 20 63 53 151 74 197 33 71 42 83 63 83 14 0
28 -7 31 -16z M5427 9113 c-8 -29 -19 -84 -23 -123 -7 -78 0 -87 41 -45 29 28
32 84 11 170 l-12 50 -17 -52z M3948 9033 l-56 -33 -7 -117 c-7 -112 -3 -247
11 -334 6 -34 23 -57 107 -145 138 -145 439 -404 469 -404 13 0 48 53 48 72 0
67 -113 200 -340 399 -120 105 -141 127 -146 158 -3 20 -10 45 -15 56 -5 11
-10 101 -12 201 l-2 180 -57 -33z M4540 8720 c-26 -26 -25 -35 13 -102 69
-122 466 -431 640 -499 55 -21 299 -89 466 -131 7 -1 15 2 18 8 2 6 -79 60
-179 120 -298 177 -515 326 -765 526 -130 104 -157 114 -193 78z M7157 8460
c-235 -42 -341 -194 -278 -396 42 -137 33 -129 361 -313 l295 -166 155 0 c182
0 240 13 375 80 105 52 188 112 305 223 86 82 100 109 39 73 -94 -55 -271 -65
-394 -21 -137 48 -196 92 -331 248 -183 212 -269 272 -403 278 -42 1 -98 -1
-124 -6z m152 -292 c42 -20 213 -182 267 -254 45 -59 -2 -86 -91 -53 -57 22
-281 143 -309 167 -36 32 -61 133 -39 155 16 16 128 6 172 -15z M3905 8358
c-53 -30 -57 -71 -18 -173 32 -86 60 -131 116 -189 58 -60 116 -75 196 -50 8
3 -9 28 -49 71 -78 83 -150 192 -187 283 -15 38 -30 70 -33 70 -3 -1 -14 -6
-25 -12z M4325 7948 c-47 -143 -226 -448 -368 -626 -57 -71 -58 -74 -41 -93
56 -62 392 -279 431 -279 17 0 16 -28 -3 -81 -25 -71 -71 -270 -93 -401 -55
-329 -78 -737 -62 -1082 l11 -216 -81 -267 c-44 -148 -151 -497 -236 -778
-191 -626 -176 -576 -166 -585 14 -14 233 -81 378 -116 284 -68 586 -109 885
-120 157 -6 188 -4 410 36 265 48 612 68 820 49 58 -5 151 -21 208 -35 128
-31 137 -27 128 56 -9 89 -39 191 -196 665 -174 527 -171 519 -206 655 -25
101 -26 112 -20 300 11 389 80 683 232 1000 75 155 136 257 317 530 183 275
227 375 227 519 0 91 -30 173 -103 284 -57 85 -182 212 -270 275 l-46 33 -7
-28 c-15 -68 -27 -94 -59 -122 -40 -34 -87 -46 -153 -38 -143 18 -218 69 -377
253 -111 129 -188 199 -231 210 -37 9 -280 -14 -371 -36 -110 -26 -225 -71
-306 -120 l-66 -40 -123 45 c-94 35 -302 131 -440 203 -3 1 -14 -21 -23 -50z
m1254 -219 c47 -21 276 -238 286 -270 7 -21 134 -119 190 -147 131 -64 245
-72 372 -27 82 29 83 29 115 12 18 -10 48 -37 66 -61 l32 -43 0 -131 c0 -128
-1 -132 -33 -194 -18 -35 -89 -149 -158 -254 -251 -380 -382 -653 -463 -964
-43 -164 -56 -263 -56 -432 0 -175 4 -190 77 -290 39 -53 41 -49 -54 -87 -158
-62 -516 -96 -846 -80 -402 20 -694 105 -825 240 l-33 34 53 50 c66 62 88 96
88 133 0 15 4 32 9 38 6 5 11 200 14 459 5 523 8 553 107 1028 11 55 20 120
20 145 0 96 -83 214 -232 333 -74 58 -88 74 -88 98 0 18 26 71 69 142 133 217
141 223 242 195 71 -19 67 -19 71 -2 2 11 22 8 98 -15 52 -16 127 -32 165 -35
77 -6 101 0 295 74 188 72 334 90 419 51z m-1085 -3025 c211 -68 354 -90 661
-99 216 -7 464 5 630 31 55 9 118 14 141 11 54 -6 114 -42 114 -69 0 -34 -75
-182 -142 -280 -79 -116 -239 -283 -428 -446 -242 -209 -320 -291 -320 -334 0
-11 10 -34 22 -51 14 -20 17 -29 7 -25 -7 4 -52 23 -99 44 -82 37 -90 38 -235
45 -163 8 -341 29 -505 60 -168 32 -221 49 -267 88 -68 56 -66 75 76 543 129
423 142 461 174 496 27 29 41 28 171 -14z m1562 -545 c21 -41 92 -238 115
-318 10 -36 19 -90 19 -119 0 -46 -3 -54 -23 -61 -13 -5 -124 -14 -248 -21
-123 -6 -260 -15 -303 -19 -90 -8 -147 -2 -154 17 -2 7 29 43 70 80 99 90 295
288 393 395 87 95 102 101 131 46z M3971 3148 c-56 -297 -91 -531 -91 -613 0
-126 51 -393 207 -1095 47 -212 88 -399 90 -416 l5 -30 -109 -23 c-364 -77
-842 -250 -948 -342 -70 -62 -113 -171 -100 -256 l6 -43 979 0 c923 0 979 1
984 18 16 56 28 198 23 286 -6 118 -38 230 -85 298 l-31 45 -40 379 c-50 469
-67 647 -81 841 -11 145 -10 159 15 305 31 180 54 298 101 505 19 83 34 156
34 163 0 15 -55 -25 -106 -77 -57 -58 -85 -135 -129 -351 l-37 -182 5 -378 c3
-323 8 -411 30 -612 34 -297 48 -363 103 -468 41 -78 43 -84 22 -77 -13 4 -88
9 -168 12 -113 4 -179 0 -299 -16 -85 -11 -156 -19 -158 -18 -1 2 8 18 21 36
61 82 59 164 -9 471 -25 113 -71 324 -102 470 l-57 265 -4 262 c-3 246 -2 271
23 424 22 137 25 172 16 221 -10 56 -56 158 -71 158 -5 0 -22 -73 -39 -162z
m734 -2244 c41 -17 61 -33 87 -73 15 -22 18 -50 18 -167 0 -138 -1 -142 -22
-148 -30 -8 -655 -6 -1013 3 -206 5 -286 10 -304 20 l-25 14 27 23 c30 25 284
110 492 164 140 36 174 48 241 87 120 71 196 89 370 92 63 1 103 -4 129 -15z
M6050 3260 c-23 -23 -50 -61 -60 -84 -25 -57 -34 -175 -20 -276 32 -241 97
-392 401 -932 70 -125 130 -237 134 -249 4 -11 4 -35 1 -53 -5 -27 -17 -38
-81 -75 -41 -23 -83 -43 -93 -44 -52 -3 -84 28 -260 247 -329 409 -436 553
-485 651 -30 62 -57 168 -97 395 -20 115 -39 193 -56 227 -26 55 -92 126 -144
157 l-32 18 7 -48 c19 -146 118 -721 131 -764 27 -92 204 -333 636 -868 126
-156 231 -289 234 -296 3 -7 -2 -38 -10 -70 -9 -31 -20 -105 -26 -164 -6 -59
-15 -123 -20 -143 -10 -35 -13 -37 -78 -53 -236 -60 -391 -239 -392 -454 l0
-53 503 3 c493 3 503 3 542 25 81 43 138 122 179 245 56 166 99 560 77 716
-21 160 -87 250 -200 273 l-56 11 -200 351 c-237 416 -388 709 -409 792 -14
58 -48 303 -62 455 -9 107 -13 111 -64 60z m674 -1708 c7 -19 33 -58 59 -87
26 -29 47 -58 47 -63 0 -5 9 -17 21 -28 20 -18 21 -25 16 -254 -4 -216 -6
-243 -32 -340 -39 -151 -76 -214 -143 -246 -33 -16 -66 -18 -317 -17 -154 1
-293 6 -310 10 -22 7 -30 15 -30 33 0 20 14 31 85 66 100 51 169 119 212 209
44 96 74 342 49 408 -5 14 -24 41 -42 61 l-32 36 37 55 c20 30 55 69 79 86 81
60 211 111 271 106 12 -1 23 -14 30 -35z"/>
</g>
</svg>
