<?xml version="1.0" standalone="no"?>
<!DOCTYPE svg PUBLIC "-//W3C//DTD SVG 20010904//EN"
 "http://www.w3.org/TR/2001/REC-SVG-20010904/DTD/svg10.dtd">
<svg version="1.0" xmlns="http://www.w3.org/2000/svg"
 width="2048.000000pt" height="2048.000000pt" viewBox="0 0 2048.000000 2048.000000"
 preserveAspectRatio="xMidYMid meet">
<metadata>
Created by potrace 1.13, written by Peter Selinger 2001-2015
</metadata>
<g transform="translate(0.000000,2048.000000) scale(0.192120,-0.192120)"
fill="#000000" stroke="none">
<path d="M1359 10318 c-60 -16 -130 -77 -164 -143 l-30 -59 0 -755 c0 -600 3
-764 13 -793 20 -57 93 -132 153 -158 42 -18 66 -21 123 -18 81 4 129 24 179
75 43 42 67 90 76 152 l7 46 13 -55 c31 -141 128 -220 268 -220 116 0 207 59
253 163 21 47 21 56 21 806 0 662 -2 764 -15 796 -59 140 -217 209 -358 155
-69 -26 -142 -100 -159 -163 -6 -23 -15 -53 -19 -67 -8 -23 -8 -22 -9 10 -2
53 -43 132 -91 173 -71 60 -166 81 -261 55z m214 -370 c107 -62 132 -70 175
-58 20 5 71 30 112 55 48 29 86 45 107 45 l33 0 0 -605 c0 -531 -2 -605 -15
-605 -10 0 -15 -11 -15 -35 0 -47 -13 -46 -127 16 -117 63 -142 63 -258 -4
-44 -25 -92 -48 -107 -51 -27 -6 -28 -5 -28 33 0 25 -5 41 -15 45 -13 5 -15
81 -15 600 0 556 1 596 18 605 24 14 57 4 135 -41z M8579 10316 c-56 -20 -104
-53 -133 -91 -60 -78 -57 -40 -57 -866 0 -750 0 -759 21 -806 46 -104 137
-163 253 -163 140 0 237 79 268 220 l13 55 7 -46 c9 -62 33 -110 76 -152 50
-51 98 -71 179 -75 90 -5 156 21 215 85 79 86 74 26 74 878 0 752 0 761 -21
806 -80 173 -292 223 -434 102 -48 -41 -89 -120 -91 -173 -1 -39 0 -40 -30 59
-39 130 -209 214 -340 167z m189 -352 c23 -13 63 -36 88 -50 71 -41 106 -37
211 24 56 32 102 52 122 52 l31 0 0 -605 c0 -531 -2 -605 -15 -605 -10 0 -15
-11 -15 -35 0 -48 -17 -46 -115 11 -115 68 -141 69 -258 6 -52 -28 -106 -53
-120 -56 -25 -4 -27 -2 -27 34 0 24 -5 40 -15 44 -13 5 -15 81 -15 600 0 556
1 596 18 605 22 13 56 5 110 -25z M2383 9493 c-24 -2 -43 -6 -43 -8 0 -1 16
-26 35 -55 19 -29 35 -62 35 -74 0 -12 -16 -45 -35 -73 -19 -29 -35 -55 -35
-58 0 -3 487 -5 1083 -5 l1082 0 -60 -33 c-264 -143 -419 -326 -488 -576 -19
-70 -21 -107 -24 -496 -2 -231 0 -508 5 -615 l8 -195 122 -390 c67 -214 128
-405 136 -424 l13 -34 27 70 27 71 -7 197 c-8 220 -8 221 51 129 45 -71 165
-195 224 -233 25 -17 93 -51 151 -76 108 -48 149 -76 188 -128 l22 -31 2 67
c0 37 1 71 2 76 1 6 -26 24 -59 42 -248 131 -434 346 -521 601 -46 135 -54
211 -54 494 l0 264 43 0 c23 0 73 11 112 25 217 77 365 284 426 598 23 117 23
137 5 137 -34 0 -103 -90 -174 -227 -73 -142 -140 -240 -191 -280 -15 -12 -73
-45 -127 -72 -54 -28 -119 -69 -143 -91 -24 -21 -48 -37 -52 -34 -5 3 -9 126
-9 273 l0 268 36 73 c30 59 61 98 168 204 148 149 185 205 189 288 l2 53 44 5
c39 4 42 7 28 19 -33 26 -21 48 29 55 26 3 329 6 674 6 345 0 648 -3 674 -6
36 -5 46 -11 46 -26 0 -10 -7 -21 -15 -24 -28 -11 -15 -24 23 -24 42 0 71 -13
53 -24 -18 -11 -13 -81 9 -137 22 -54 106 -189 202 -324 83 -116 139 -218 170
-310 26 -75 28 -91 28 -260 0 -167 -1 -178 -16 -157 -28 41 -98 103 -137 123
-39 21 -76 26 -372 54 -315 30 -601 120 -766 241 -57 41 -132 122 -207 221
-49 66 -103 113 -130 113 -6 0 -8 -17 -5 -42 31 -271 242 -481 604 -601 197
-66 401 -100 702 -119 l197 -12 0 -251 c0 -333 -20 -446 -113 -630 -95 -190
-269 -366 -455 -460 -52 -27 -72 -42 -68 -52 3 -8 6 -42 6 -76 l0 -61 23 31
c36 48 77 79 162 118 102 46 150 72 200 106 47 31 155 149 203 220 18 27 36
49 38 49 3 0 4 -87 3 -192 l-3 -193 28 -69 c27 -64 30 -67 39 -45 8 22 44 135
239 759 l70 225 1 365 c2 317 0 377 -16 454 -41 201 -114 375 -219 519 -32 45
-85 120 -116 167 -31 47 -94 122 -139 168 l-82 82 1065 0 c585 0 1064 3 1064
6 0 4 -16 29 -35 55 -44 61 -44 90 0 154 l34 50 -47 7 c-49 6 -5814 7 -5889 1z
M1064 9446 c-58 -58 -44 -165 26 -201 l31 -16 -8 28 c-10 36 -10 160 0 196 10
37 -7 35 -49 -7z M9547 9453 c10 -36 10 -160 0 -196 l-8 -28 31 16 c70 36 84
143 26 201 -42 42 -59 44 -49 7z M2841 9143 c-6 -21 -11 -52 -11 -69 0 -36
893 -2936 942 -3059 70 -178 173 -307 291 -365 36 -18 70 -31 76 -29 5 2 -10
37 -35 78 -146 241 -162 283 -343 881 -79 264 -624 2032 -684 2220 -36 114
-77 210 -110 260 -33 49 -97 120 -109 120 -4 0 -12 -17 -17 -37z M7754 9138
c-56 -59 -93 -111 -119 -166 -41 -88 -366 -1134 -415 -1335 -48 -197 -75 -289
-212 -732 -261 -848 -287 -918 -402 -1120 -37 -65 -74 -128 -83 -141 -21 -33
-4 -32 74 5 111 53 221 188 287 354 45 114 946 3037 946 3071 0 38 -18 106
-28 106 -4 0 -26 -19 -48 -42z M3328 9143 c-77 -83 -79 -159 -13 -379 265
-873 370 -1163 449 -1231 35 -32 97 -46 109 -25 6 9 -35 149 -239 812 -225
729 -264 850 -273 850 -4 0 -19 -12 -33 -27z M7241 9013 c-72 -227 -332 -1074
-379 -1233 -42 -142 -41 -150 7 -150 34 0 100 71 135 145 53 112 132 344 279
825 104 338 112 373 97 443 -10 50 -59 127 -80 127 -5 0 -32 -71 -59 -157z
M4748 7784 c-30 -16 -58 -61 -58 -94 0 -61 70 -118 130 -105 33 7 76 51 85 86
9 38 -18 95 -54 113 -37 20 -68 20 -103 0z M5804 7781 c-36 -22 -59 -78 -49
-113 11 -34 54 -76 85 -83 60 -13 130 44 130 105 0 54 -57 110 -112 110 -13 0
-37 -9 -54 -19z M5123 7331 c6 -53 49 -117 97 -146 27 -15 52 -20 110 -20 58
0 83 5 110 20 48 29 91 93 97 146 l5 44 -212 0 -212 0 5 -44z M4905 6928 c22
-72 79 -122 181 -161 53 -20 77 -22 244 -22 167 0 191 2 244 22 102 39 159 89
181 161 l6 22 -431 0 -431 0 6 -22z M4220 4918 l0 -1528 -140 -696 c-77 -382
-140 -696 -140 -697 0 -1 33 -1 73 0 39 1 227 2 417 2 l345 1 138 415 139 415
278 0 278 0 139 -415 138 -415 345 -1 c190 0 378 -2 418 -3 39 0 72 0 72 1 0
1 -63 315 -140 697 l-140 694 0 1528 0 1529 -342 -2 -343 -2 -2 -102 c-1 -56
-9 -124 -17 -153 -32 -107 -117 -206 -226 -259 -61 -30 -70 -32 -180 -32 -110
0 -119 2 -180 32 -109 53 -194 152 -226 259 -8 29 -16 97 -17 153 l-2 102
-342 2 -343 2 0 -1527z m430 1316 c0 -9 8 -18 18 -21 10 -3 38 -47 66 -105 64
-129 118 -203 202 -272 207 -171 439 -202 658 -89 50 26 98 64 162 127 84 83
97 101 149 211 32 66 64 124 72 128 7 4 13 15 13 22 0 12 17 15 85 15 78 0 85
-2 85 -20 0 -13 7 -20 20 -20 20 0 20 -7 20 -990 0 -873 2 -990 15 -990 11 0
15 -11 15 -37 0 -47 22 -92 92 -187 20 -27 35 -53 32 -58 -6 -9 -2037 -11
-2047 -2 -3 3 19 42 49 87 30 44 54 89 54 99 0 10 5 18 10 18 6 0 10 18 10 40
0 22 5 40 10 40 7 0 10 337 10 990 0 873 2 990 15 990 8 0 15 9 15 20 0 18 7
20 85 20 71 0 85 -3 85 -16z m1490 -2579 l0 -55 -820 0 -820 0 0 55 0 55 820
0 820 0 0 -55z m214 -276 c4 -3 -13 -43 -36 -89 -65 -125 -65 -178 5 -535 59
-298 73 -405 62 -479 l-7 -46 -117 0 c-155 0 -181 8 -220 68 -17 27 -63 146
-106 272 -61 182 -84 238 -121 293 -56 81 -129 148 -204 185 -55 27 -55 27
-280 27 l-225 0 -60 -29 c-73 -36 -198 -158 -238 -233 -15 -29 -57 -138 -92
-242 -113 -336 -118 -341 -337 -341 l-116 0 -7 40 c-10 61 0 136 67 470 78
385 79 422 20 545 -23 48 -42 89 -42 90 0 2 26 6 58 8 95 6 1990 2 1996 -4z
M4080 1909 c0 -29 239 -932 249 -942 9 -9 49 38 75 90 29 59 21 162 -29 357
-73 287 -102 347 -216 450 -62 56 -79 66 -79 45z M6508 1873 c-114 -97 -157
-173 -212 -378 -68 -253 -80 -349 -52 -416 21 -51 76 -123 86 -113 11 11 250
913 250 943 0 19 -15 12 -72 -36z M4604 1878 c-74 -89 -80 -160 -29 -368 81
-329 115 -399 269 -565 l75 -80 -15 65 c-11 50 -142 551 -246 943 -6 20 -14
37 -18 37 -5 0 -21 -15 -36 -32z M5997 1853 c-36 -131 -227 -863 -241 -923
l-15 -65 46 50 c177 192 197 234 289 595 40 159 45 233 20 295 -18 43 -62 105
-75 105 -4 0 -15 -26 -24 -57z M4373 879 c-214 -19 -358 -90 -412 -203 -18
-37 -21 -61 -21 -194 l0 -152 555 0 555 0 0 155 c0 135 -3 161 -20 194 -28 55
-112 126 -178 151 -118 45 -310 64 -479 49z M6045 879 c-168 -14 -270 -48
-345 -116 -83 -74 -90 -96 -90 -278 l0 -155 555 0 555 0 0 152 c0 133 -3 157
-21 194 -38 80 -145 152 -270 182 -42 11 -260 34 -284 30 -5 0 -50 -4 -100 -9z"/>
</g>
</svg>
