<?xml version="1.0" standalone="no"?>
<!DOCTYPE svg PUBLIC "-//W3C//DTD SVG 20010904//EN"
 "http://www.w3.org/TR/2001/REC-SVG-20010904/DTD/svg10.dtd">
<svg version="1.0" xmlns="http://www.w3.org/2000/svg"
 width="2048.000000pt" height="2048.000000pt" viewBox="0 0 2048.000000 2048.000000"
 preserveAspectRatio="xMidYMid meet">
<metadata>
Created by potrace 1.13, written by Peter Selinger 2001-2015
</metadata>
<g transform="translate(0.000000,2048.000000) scale(0.192120,-0.192120)"
fill="#000000" stroke="none">
<path d="M4550 10165 c-304 -51 -718 -248 -912 -433 -143 -137 -200 -253 -201
-407 0 -117 25 -188 89 -243 39 -35 44 -44 44 -82 0 -70 29 -247 61 -380 105
-425 298 -744 514 -851 53 -26 82 -33 145 -37 71 -4 92 -1 215 38 75 23 175
57 223 76 48 19 89 34 93 34 3 0 15 -18 28 -40 27 -48 51 -155 51 -231 0 -49
-4 -59 -31 -85 -79 -74 -171 -237 -205 -359 -22 -82 -30 -322 -14 -436 l12
-90 -98 -122 c-124 -154 -465 -496 -609 -611 -236 -188 -525 -361 -763 -455
-110 -44 -301 -104 -367 -115 -64 -12 -179 -72 -207 -108 -38 -50 -55 -89 -63
-140 -21 -138 82 -281 221 -307 131 -25 533 98 864 264 377 189 689 421 1027
761 l182 183 27 -82 c15 -45 100 -280 189 -522 206 -559 209 -565 204 -569 -2
-1 -319 -227 -704 -502 -393 -280 -722 -522 -751 -551 -28 -29 -65 -79 -82
-110 -21 -41 -119 -369 -321 -1076 -160 -560 -291 -1027 -291 -1040 0 -58 -7
-63 -68 -56 -121 16 -447 21 -558 10 -192 -20 -255 -43 -302 -111 -44 -65 -23
-183 40 -224 13 -8 187 -72 388 -141 201 -70 565 -196 810 -281 245 -85 460
-154 478 -154 79 0 140 64 176 182 47 156 58 218 53 302 -5 72 -3 84 23 135
16 32 130 414 264 886 131 457 246 860 256 896 l20 65 342 245 c189 134 393
281 455 326 l113 82 0 -332 c0 -367 4 -399 63 -517 20 -40 57 -90 99 -132 l66
-67 896 -448 c492 -246 898 -444 902 -440 18 17 -104 214 -181 293 -45 45
-107 79 -592 323 -526 264 -863 450 -931 514 -40 38 -72 96 -72 130 0 14 -7
38 -15 53 -12 23 -15 71 -15 224 0 280 -23 351 -128 390 -29 11 -62 20 -72 20
-20 0 -20 9 -20 408 l0 409 -55 12 c-85 19 -214 87 -226 119 -27 69 -24 78 27
108 75 44 83 58 84 141 0 55 -8 97 -31 170 -45 142 -272 746 -312 834 -43 92
-139 205 -157 184 -9 -11 -19 -9 -58 16 -25 16 -51 29 -56 29 -77 0 -259 -124
-549 -375 -58 -49 -139 -115 -181 -145 -42 -30 -83 -61 -91 -67 -7 -7 -16 -13
-19 -13 -2 0 -44 -26 -93 -58 -48 -33 -113 -72 -143 -88 -30 -16 -58 -33 -62
-39 -5 -7 -8 -7 -8 0 0 7 -3 7 -8 0 -8 -11 -69 -36 -89 -38 -7 0 -13 -4 -13
-9 0 -5 -4 -7 -9 -4 -5 4 -12 0 -14 -6 -4 -9 -6 -8 -6 2 -1 9 36 39 85 70 148
95 357 247 471 343 159 133 312 277 319 299 3 11 64 86 136 166 143 162 225
274 271 370 29 62 30 67 25 178 -3 63 -3 114 -1 114 2 0 13 -5 24 -10 18 -10
19 -6 19 144 0 180 5 197 94 344 99 164 136 258 136 348 0 46 -2 52 -19 47
-16 -4 -19 3 -23 49 -2 30 -15 76 -28 104 -29 59 -117 150 -184 189 -69 40
-123 37 -320 -20 -248 -70 -325 -60 -434 60 -132 144 -212 341 -302 737 -25
109 -48 142 -133 192 -51 31 -55 39 -31 76 78 117 222 202 366 215 l63 6 160
-291 c88 -161 166 -294 174 -298 21 -8 64 20 80 53 8 16 18 67 22 113 6 67 13
94 36 130 77 125 279 138 372 25 46 -56 81 -128 87 -180 5 -39 -1 -69 -31
-158 -36 -107 -37 -112 -26 -181 29 -195 126 -307 302 -349 35 -8 88 -15 117
-15 28 0 52 -4 52 -8 0 -4 -17 -25 -39 -46 -81 -79 -100 -167 -51 -235 22 -32
20 -51 -6 -51 -27 0 -14 -18 72 -99 95 -90 124 -110 124 -87 0 12 18 7 82 -20
46 -19 98 -45 118 -57 55 -33 147 -125 214 -212 105 -139 228 -248 379 -337
37 -22 67 -46 67 -54 0 -7 9 -18 20 -24 23 -12 25 -4 10 34 -5 14 -7 26 -4 26
12 0 196 -113 213 -130 9 -10 65 -48 125 -85 238 -146 332 -220 559 -445 266
-262 385 -400 483 -561 40 -67 48 -139 15 -139 -24 0 -87 67 -147 155 -121
180 -307 394 -444 510 -112 95 -257 192 -373 250 -111 56 -155 59 -209 15 -33
-27 -38 -29 -46 -14 -9 16 -12 15 -40 -7 -16 -13 -44 -49 -62 -79 -52 -89 -45
-140 84 -575 149 -502 246 -904 246 -1023 0 -101 -7 -121 -47 -128 -19 -4 -62
-25 -96 -49 -70 -47 -120 -75 -157 -85 l-25 -7 25 -6 c14 -3 42 -9 64 -12 l38
-6 -25 -27 c-14 -15 -37 -53 -51 -85 l-26 -58 0 -477 c0 -557 -9 -507 118
-636 103 -103 149 -131 596 -353 l359 -178 191 -2 c105 -1 209 -6 231 -11 32
-8 35 -10 14 -11 -55 -2 -158 -42 -188 -71 -24 -25 -34 -51 -59 -157 -83 -350
-118 -635 -121 -984 -4 -413 37 -658 121 -736 68 -63 192 -51 245 23 32 45
486 1679 480 1726 -11 86 -79 133 -242 167 -95 20 -135 39 -817 381 l-717 360
-3 553 c-2 303 -3 553 -2 555 2 4 68 -21 187 -70 85 -35 128 -48 155 -46 l37
3 3 74 c11 274 -260 1376 -467 1899 -11 28 -17 52 -13 52 4 0 65 -42 135 -94
393 -286 643 -551 810 -857 25 -46 59 -96 74 -111 135 -127 355 -90 440 76 21
40 27 66 27 122 1 65 -3 79 -44 160 -25 49 -79 140 -122 204 -316 476 -833
901 -1532 1260 l-170 88 -60 96 c-155 244 -328 391 -521 441 -32 8 -74 15 -91
15 -32 0 -32 1 -76 123 -68 186 -68 173 0 182 97 12 128 39 192 164 151 300
186 767 83 1096 -70 223 -193 392 -388 530 -251 179 -538 249 -825 200z m405
-314 c159 -41 344 -152 437 -263 61 -71 92 -129 118 -214 20 -67 21 -88 18
-395 -3 -306 -4 -327 -25 -382 -30 -79 -75 -148 -111 -170 -61 -35 -168 -16
-211 39 -23 29 -23 30 -16 249 l6 220 -30 72 c-38 93 -76 147 -148 213 -147
135 -321 145 -470 28 -69 -55 -105 -78 -121 -78 -18 0 -57 45 -92 105 -35 61
-118 149 -182 193 -50 34 -113 53 -162 46 -97 -12 -146 -12 -146 1 0 34 189
154 360 230 151 67 283 106 435 129 67 10 262 -3 340 -23z m-1428 -4563 c-3
-8 -6 -5 -6 6 -1 11 2 17 5 13 3 -3 4 -12 1 -19z m-20 -10 c-3 -8 -6 -5 -6 6
-1 11 2 17 5 13 3 -3 4 -12 1 -19z m-20 -10 c-3 -8 -6 -5 -6 6 -1 11 2 17 5
13 3 -3 4 -12 1 -19z m-20 -10 c-3 -8 -6 -5 -6 6 -1 11 2 17 5 13 3 -3 4 -12
1 -19z m-20 -10 c-3 -8 -6 -5 -6 6 -1 11 2 17 5 13 3 -3 4 -12 1 -19z m1912
-811 l46 -25 3 -284 2 -284 -82 -53 c-46 -29 -198 -134 -338 -234 -205 -145
-277 -203 -366 -292 -162 -162 -158 -154 -368 -890 -96 -335 -184 -647 -195
-692 -27 -105 -27 -216 0 -328 11 -48 19 -88 17 -90 -2 -2 -43 11 -93 27 -153
51 -428 116 -623 148 -103 17 -191 32 -196 34 -5 1 14 16 41 34 72 47 160 143
188 206 14 31 123 401 244 823 121 423 233 807 249 854 39 115 66 157 132 211
75 61 1100 794 1169 836 64 38 94 38 170 -1z m2745 -1999 c99 -19 99 -38 -5
-410 -91 -329 -115 -406 -139 -446 -44 -72 -50 -46 -57 283 -5 250 -4 278 16
383 40 207 50 218 185 190z m-4562 -1252 c89 -19 192 -43 228 -53 l65 -18 3
-89 c3 -95 -5 -116 -44 -116 -26 0 -557 182 -624 213 -25 12 -53 29 -63 38
-17 15 -17 17 6 32 71 46 186 44 429 -7z"/>
</g>
</svg>
