<?xml version="1.0" standalone="no"?>
<!DOCTYPE svg PUBLIC "-//W3C//DTD SVG 20010904//EN"
 "http://www.w3.org/TR/2001/REC-SVG-20010904/DTD/svg10.dtd">
<svg version="1.0" xmlns="http://www.w3.org/2000/svg"
 width="2048.000000pt" height="2048.000000pt" viewBox="0 0 2048.000000 2048.000000"
 preserveAspectRatio="xMidYMid meet">
<metadata>
Created by potrace 1.13, written by Peter Selinger 2001-2015
</metadata>
<g transform="translate(0.000000,2048.000000) scale(0.192120,-0.192120)"
fill="#000000" stroke="none">
<path d="M1359 10318 c-60 -16 -130 -77 -164 -143 l-30 -59 0 -755 c0 -600 3
-764 13 -793 20 -57 93 -132 153 -158 42 -18 66 -21 123 -18 81 4 129 24 179
75 43 42 67 90 76 152 l7 46 13 -55 c31 -141 128 -220 268 -220 116 0 207 59
253 163 21 47 21 56 21 806 0 662 -2 764 -15 796 -59 140 -217 209 -358 155
-69 -26 -142 -100 -159 -163 -6 -23 -15 -53 -19 -67 -8 -23 -8 -22 -9 10 -2
53 -43 132 -91 173 -71 60 -166 81 -261 55z m214 -370 c107 -62 132 -70 175
-58 20 5 71 30 112 55 48 29 86 45 107 45 l33 0 0 -605 c0 -531 -2 -605 -15
-605 -10 0 -15 -11 -15 -35 0 -47 -13 -46 -127 16 -117 63 -142 63 -258 -4
-44 -25 -92 -48 -107 -51 -27 -6 -28 -5 -28 33 0 25 -5 41 -15 45 -13 5 -15
81 -15 600 0 556 1 596 18 605 24 14 57 4 135 -41z M8579 10316 c-56 -20 -104
-53 -133 -91 -60 -78 -57 -40 -57 -866 0 -750 0 -759 21 -806 46 -104 137
-163 253 -163 140 0 237 79 268 220 l13 55 7 -46 c9 -62 33 -110 76 -152 50
-51 98 -71 179 -75 90 -5 156 21 215 85 79 86 74 26 74 878 0 752 0 761 -21
806 -80 173 -292 223 -434 102 -48 -41 -89 -120 -91 -173 -1 -39 0 -40 -30 59
-39 130 -209 214 -340 167z m189 -352 c23 -13 63 -36 88 -50 71 -41 106 -37
211 24 56 32 102 52 122 52 l31 0 0 -605 c0 -531 -2 -605 -15 -605 -10 0 -15
-11 -15 -35 0 -48 -17 -46 -115 11 -115 68 -141 69 -258 6 -52 -28 -106 -53
-120 -56 -25 -4 -27 -2 -27 34 0 24 -5 40 -15 44 -13 5 -15 81 -15 600 0 556
1 596 18 605 22 13 56 5 110 -25z M2383 9493 c-24 -2 -43 -6 -43 -8 0 -1 16
-26 35 -55 19 -29 35 -62 35 -74 0 -12 -16 -45 -35 -73 -19 -29 -35 -55 -35
-58 0 -3 453 -4 1006 -3 l1007 3 12 48 c7 26 21 54 31 62 51 39 71 40 944 40
777 0 848 -1 883 -17 40 -18 67 -64 67 -113 l0 -25 1015 0 c558 0 1015 3 1015
6 0 4 -16 29 -35 55 -44 61 -44 90 0 154 l34 50 -47 7 c-49 6 -5814 7 -5889 1z
M1064 9446 c-58 -58 -44 -165 26 -201 l31 -16 -8 28 c-10 36 -10 160 0 196 10
37 -7 35 -49 -7z M9547 9453 c10 -36 10 -160 0 -196 l-8 -28 31 16 c70 36 84
143 26 201 -42 42 -59 44 -49 7z M4444 9189 c-181 -95 -321 -277 -369 -481
-20 -85 -20 -389 0 -521 25 -164 84 -304 162 -379 l33 -32 0 107 c0 103 1 107
23 111 110 21 145 31 199 58 42 21 89 57 139 108 118 119 189 274 229 505 16
93 17 97 24 60 26 -151 71 -247 161 -343 218 -234 605 -359 1202 -388 l143 -7
2 -166 3 -166 48 80 c55 93 99 201 130 323 19 76 22 112 21 277 0 172 -3 199
-27 288 -50 189 -151 366 -289 512 l-80 85 -848 0 -848 0 -58 -31z m436 -248
c501 8 1115 7 1160 -2 46 -10 63 -20 110 -68 58 -59 106 -141 134 -227 13 -40
16 -84 14 -215 l-3 -164 -70 3 c-223 9 -474 49 -646 102 -217 67 -334 149
-482 333 -39 50 -84 103 -98 117 -78 74 -109 100 -122 100 -16 0 -117 -97
-179 -173 -26 -32 -74 -111 -107 -175 -33 -64 -73 -136 -88 -159 -40 -58 -101
-105 -132 -101 l-26 3 -3 193 c-2 192 -2 194 24 241 32 60 107 137 157 163 58
29 111 37 222 32 55 -2 116 -3 135 -3z M2834 9105 c-3 -14 -3 -42 1 -63 4 -20
213 -705 466 -1522 342 -1106 470 -1508 503 -1575 72 -150 155 -244 264 -299
19 -10 36 -15 39 -12 3 3 -24 56 -60 118 -99 173 -165 315 -187 403 -17 66
-830 2684 -851 2740 -35 92 -109 204 -150 225 -15 9 -20 6 -25 -15z M7787
9110 c-32 -26 -94 -107 -125 -165 -28 -53 -57 -144 -426 -1340 -173 -561 -333
-1092 -354 -1180 -70 -280 -135 -442 -269 -673 -36 -62 -63 -115 -60 -118 7
-8 63 22 119 63 81 58 174 201 228 346 33 90 912 2939 923 2994 7 33 7 59 1
73 l-9 21 -28 -21z M3344 9084 c-40 -52 -45 -149 -14 -255 57 -191 672 -2179
686 -2213 27 -70 60 -103 115 -116 28 -7 53 -10 56 -6 8 8 4 24 -378 1261
-360 1163 -417 1345 -429 1358 -4 5 -21 -8 -36 -29z M7277 9113 c-10 -18 -98
-295 -298 -943 -116 -377 -278 -903 -360 -1169 -83 -266 -148 -490 -145 -498
4 -9 14 -11 33 -7 56 14 83 35 109 87 15 28 107 313 206 632 99 319 246 796
328 1060 81 264 158 514 171 555 27 90 30 192 6 236 -18 35 -43 59 -50 47z
M4748 7784 c-30 -16 -58 -61 -58 -94 0 -61 70 -118 130 -105 33 7 76 51 85 86
9 38 -18 95 -54 113 -37 20 -68 20 -103 0z M5804 7781 c-36 -22 -59 -78 -49
-113 11 -34 54 -76 85 -83 60 -13 130 44 130 105 0 54 -57 110 -112 110 -13 0
-37 -9 -54 -19z M4273 7568 c4 -120 11 -175 31 -252 75 -289 278 -541 544
-675 60 -31 62 -32 62 -71 0 -22 4 -40 8 -40 16 0 32 24 32 47 0 39 -24 74
-110 158 -75 73 -248 290 -299 375 -48 80 -85 171 -112 279 -16 62 -29 125
-29 140 0 36 -29 121 -49 145 -15 17 -63 46 -77 46 -4 0 -4 -69 -1 -152z
M6335 7596 c-23 -14 -47 -37 -55 -53 -8 -15 -18 -30 -21 -33 -4 -3 -12 -34
-18 -70 -31 -187 -45 -217 -197 -432 -70 -100 -147 -194 -221 -270 -106 -109
-113 -119 -113 -156 0 -27 5 -42 16 -46 24 -9 24 -9 24 34 0 38 2 41 53 66
159 80 316 219 412 363 60 92 120 227 146 335 21 89 38 286 23 286 -5 0 -27
-11 -49 -24z M5123 7331 c6 -53 49 -117 97 -146 27 -15 52 -20 110 -20 58 0
83 5 110 20 48 29 91 93 97 146 l5 44 -212 0 -212 0 5 -44z M4905 6928 c33
-106 152 -174 333 -187 285 -21 474 48 517 187 l6 22 -431 0 -431 0 6 -22z
M4220 4914 l0 -1525 -140 -696 c-77 -383 -139 -696 -138 -697 2 -1 190 0 418
2 l415 3 139 414 138 415 278 0 278 0 138 -415 139 -414 415 -3 c228 -2 416
-3 418 -2 1 1 -61 314 -138 697 l-140 696 0 1525 0 1526 -344 0 -344 0 -3
-123 c-4 -114 -6 -127 -36 -188 -158 -321 -608 -321 -766 0 -30 61 -32 74 -36
188 l-3 123 -344 0 -344 0 0 -1526z m460 1254 c22 -23 53 -68 70 -99 92 -174
238 -302 409 -361 52 -18 88 -23 171 -23 83 0 119 5 171 23 168 58 305 182
403 366 20 38 49 84 64 102 27 32 28 33 115 33 81 1 87 0 87 -19 0 -13 7 -20
20 -20 20 0 20 -7 20 -960 0 -633 3 -960 10 -960 6 0 10 -18 10 -40 0 -22 5
-40 10 -40 6 0 10 -9 10 -20 0 -11 4 -20 8 -20 5 0 16 -15 25 -32 10 -18 35
-57 57 -87 22 -29 37 -58 34 -62 -7 -12 -2081 -12 -2088 0 -3 5 16 40 43 77
62 89 91 149 91 191 0 18 5 33 10 33 7 0 10 327 10 960 0 847 2 960 15 960 8
0 15 9 15 20 0 18 7 20 85 20 l85 0 40 -42z m1460 -2508 l0 -30 -820 0 -820 0
0 30 0 30 820 0 820 0 0 -30z m157 -276 l90 -7 -53 -103 c-51 -99 -54 -108
-54 -179 0 -49 18 -168 54 -352 58 -299 71 -397 60 -468 l-6 -45 -134 0 c-162
0 -191 9 -228 72 -14 24 -60 146 -102 271 -67 200 -83 237 -128 300 -56 79
-153 159 -213 177 -57 18 -354 25 -443 11 -93 -15 -145 -44 -230 -130 -84 -86
-108 -131 -185 -358 -77 -230 -95 -270 -135 -308 l-31 -30 -155 -3 -154 -4 0
102 c0 83 11 154 61 408 76 387 77 417 7 551 l-47 90 62 4 c115 6 1873 7 1964
1z M4090 1872 c0 -18 211 -828 225 -864 10 -25 21 -15 51 45 24 47 26 59 21
132 -6 79 -42 237 -94 405 -41 137 -79 200 -159 265 -37 31 -44 33 -44 17z
M6493 1825 c-86 -85 -106 -127 -170 -350 -38 -136 -46 -177 -50 -275 l-5 -115
32 -49 c26 -41 34 -47 41 -34 16 28 230 852 227 873 -3 16 -16 7 -75 -50z
M4617 1844 c-58 -88 -58 -141 0 -368 46 -183 70 -258 104 -328 25 -50 51 -83
161 -212 l27 -31 -11 45 c-16 70 -165 640 -204 785 -20 72 -39 134 -44 139 -5
4 -20 -9 -33 -30z M6006 1872 c-6 -11 -107 -387 -190 -711 l-65 -254 52 58
c69 77 123 158 148 225 40 105 120 425 126 500 5 64 2 82 -17 122 -23 50 -45
74 -54 60z M4373 879 c-214 -19 -358 -90 -412 -203 -18 -37 -21 -61 -21 -194
l0 -152 555 0 555 0 0 155 c0 181 -7 204 -89 277 -105 94 -335 140 -588 117z
M6045 880 c-212 -18 -357 -89 -416 -202 -16 -32 -19 -59 -19 -193 l0 -155 555
0 555 0 0 152 c0 133 -3 157 -21 194 -38 80 -135 147 -255 178 -52 13 -269 38
-299 34 -5 0 -50 -4 -100 -8z"/>
</g>
</svg>
