<?xml version="1.0" standalone="no"?>
<!DOCTYPE svg PUBLIC "-//W3C//DTD SVG 20010904//EN"
 "http://www.w3.org/TR/2001/REC-SVG-20010904/DTD/svg10.dtd">
<svg version="1.0" xmlns="http://www.w3.org/2000/svg"
 width="2048.000000pt" height="2048.000000pt" viewBox="0 0 2048.000000 2048.000000"
 preserveAspectRatio="xMidYMid meet">
<metadata>
Created by potrace 1.13, written by Peter Selinger 2001-2015
</metadata>
<g transform="translate(0.000000,2048.000000) scale(0.192120,-0.192120)"
fill="#000000" stroke="none">
<path d="M5800 9814 c-457 -39 -793 -121 -1310 -321 -635 -246 -1112 -384
-1606 -468 -324 -54 -553 -74 -986 -84 -294 -8 -329 -10 -393 -31 -246 -79
-434 -255 -643 -603 -93 -154 -303 -572 -335 -667 -61 -177 -54 -297 17 -344
14 -9 31 -16 38 -16 7 0 33 -14 57 -30 115 -78 209 -20 470 294 253 303 370
418 532 519 192 119 382 153 581 102 35 -9 125 -36 201 -60 199 -64 281 -79
402 -72 104 6 188 28 276 73 178 90 468 104 1044 53 299 -27 812 -33 930 -11
235 43 394 110 498 210 l37 36 0 -109 c0 -218 24 -647 56 -985 78 -854 246
-1554 454 -1897 22 -36 40 -67 40 -69 0 -3 -22 -33 -49 -68 -165 -216 -342
-581 -496 -1026 -98 -283 -191 -403 -284 -368 -90 33 -183 220 -229 458 -34
173 -43 246 -52 455 -12 266 -34 388 -106 597 -169 488 -539 910 -1077 1227
-296 174 -468 226 -783 238 -588 21 -1077 -205 -1324 -611 -106 -174 -204
-455 -245 -696 -23 -133 -30 -401 -16 -541 50 -478 273 -939 584 -1206 l49
-42 -69 -46 -69 -45 -832 2 -832 3 0 -1667 0 -1668 5000 0 5000 0 0 2173 0
2173 -50 18 c-72 26 -250 147 -515 350 -380 292 -638 452 -832 515 -80 27
-221 51 -293 51 -214 0 -404 164 -551 475 -112 237 -186 510 -318 1166 -94
466 -123 593 -167 724 -61 183 -187 391 -508 840 -282 396 -359 530 -375 662
-5 43 -18 87 -31 107 -61 99 -251 184 -485 216 -87 12 -332 20 -405 14z m321
-225 c197 -20 329 -59 384 -113 17 -17 42 -58 55 -91 78 -206 176 -371 439
-740 256 -359 386 -576 440 -732 37 -111 79 -289 160 -693 111 -550 176 -809
256 -1015 15 -38 33 -87 41 -108 53 -142 184 -356 265 -433 158 -151 310 -217
584 -253 222 -29 430 -144 910 -506 243 -183 363 -268 423 -299 19 -10 32 -24
32 -36 0 -11 9 -24 20 -30 19 -10 20 -21 20 -310 0 -260 2 -300 15 -300 11 0
15 -12 15 -45 0 -25 4 -45 8 -45 4 0 14 -16 21 -35 7 -19 23 -47 35 -63 13
-15 26 -37 30 -49 6 -20 3 -22 -56 -28 -35 -3 -836 -5 -1781 -3 l-1718 3 26
34 c32 44 34 109 4 157 -68 111 -295 197 -519 196 -176 0 -245 -27 -393 -152
-79 -67 -196 -138 -320 -193 l-92 -41 -197 -4 -197 -3 -17 25 c-33 51 -15 154
48 280 17 33 36 87 42 120 l13 61 18 -100 c27 -155 48 -193 120 -226 118 -54
274 9 387 158 63 81 102 155 154 291 135 348 221 533 355 757 108 181 131 235
131 316 0 61 -7 84 -72 241 -40 95 -90 223 -111 283 -164 476 -278 1243 -319
2156 -12 274 -33 348 -120 427 -70 64 -108 65 -246 7 -208 -86 -307 -110 -516
-125 -166 -13 -328 -7 -698 23 -185 14 -353 21 -555 21 -324 1 -363 -4 -548
-70 -270 -96 -353 -97 -657 -5 -203 62 -270 74 -400 74 -84 -1 -137 -6 -195
-22 -105 -27 -280 -115 -380 -191 -106 -80 -282 -254 -413 -409 -216 -254
-285 -314 -343 -296 -19 7 -21 13 -17 89 3 79 5 86 89 256 294 600 512 846
802 906 43 9 188 18 400 24 378 11 478 19 772 61 553 80 1045 216 1735 482
676 260 1196 361 1631 316z m-2826 -3034 c109 -19 248 -65 327 -107 46 -24 58
-36 56 -52 -4 -25 -28 -30 -208 -46 -229 -19 -436 -77 -632 -177 -147 -75
-262 -158 -396 -288 -152 -147 -243 -270 -337 -458 -124 -250 -174 -454 -182
-742 -3 -93 -8 -175 -12 -182 -10 -19 -54 27 -84 90 -15 33 -40 98 -54 145
-27 86 -27 89 -31 446 -3 307 -1 371 13 435 43 193 124 390 213 516 163 231
481 391 867 435 109 12 350 4 460 -15z m570 -439 c298 -51 559 -164 807 -349
l68 -51 -7 -86 c-6 -84 -4 -92 41 -233 26 -81 49 -164 52 -184 8 -61 44 -262
60 -334 8 -37 14 -98 14 -135 0 -98 24 -242 49 -298 11 -27 43 -81 69 -120 27
-39 54 -80 60 -92 11 -20 10 -20 -35 3 -147 74 -533 -26 -1058 -275 -261 -124
-361 -151 -438 -119 -113 48 -85 227 93 607 68 145 79 189 55 213 -45 46 -173
-3 -460 -176 -228 -137 -903 -590 -921 -618 -3 -6 5 -23 20 -38 34 -33 89 -33
166 2 30 13 199 118 375 234 382 250 392 256 404 249 5 -4 28 3 50 15 69 36
75 14 36 -137 -33 -128 -34 -248 -3 -310 32 -65 111 -149 163 -173 33 -15 64
-21 119 -21 97 0 191 30 406 127 215 99 417 177 560 218 157 44 190 50 190 31
0 -10 12 -16 38 -18 l37 -3 -1 -65 c-1 -36 -5 -113 -9 -172 -7 -99 -6 -109 14
-141 24 -40 101 -111 141 -132 76 -39 327 -45 455 -10 81 22 285 122 365 180
233 166 268 180 429 172 142 -7 207 -28 271 -86 27 -25 50 -54 50 -64 0 -48
99 -155 179 -195 l56 -27 1628 -3 c1614 -2 1627 -3 1627 -22 0 -13 7 -20 20
-20 20 0 20 -7 20 -1405 0 -1398 0 -1405 -20 -1405 -17 0 -20 -7 -20 -45 l0
-45 -4760 0 -4760 0 0 1425 0 1425 45 0 c38 0 45 3 45 20 0 19 13 19 653 22
715 3 687 1 779 65 49 33 104 106 112 147 4 19 0 43 -13 68 l-18 38 31 23 c17
13 46 32 64 42 17 11 32 22 32 26 0 4 -11 31 -24 60 -36 83 -92 263 -118 379
-20 93 -22 133 -22 340 0 205 2 247 21 333 68 300 197 540 398 742 232 234
550 381 900 419 75 8 330 -3 420 -18z M4125 5736 c-178 -35 -345 -119 -502
-254 -79 -68 -108 -121 -97 -178 9 -48 61 -101 107 -109 64 -12 81 -3 222 116
98 82 276 159 370 159 92 0 160 109 120 194 -35 74 -100 95 -220 72z M3010
4903 c-57 -9 -191 -58 -270 -99 -151 -78 -301 -205 -321 -272 -29 -100 69
-195 174 -169 13 4 56 35 95 70 130 114 277 186 416 202 139 17 191 156 90
245 -31 27 -41 30 -97 29 -34 -1 -73 -4 -87 -6z"/>
</g>
</svg>
