<?xml version="1.0" standalone="no"?>
<!DOCTYPE svg PUBLIC "-//W3C//DTD SVG 20010904//EN"
 "http://www.w3.org/TR/2001/REC-SVG-20010904/DTD/svg10.dtd">
<svg version="1.0" xmlns="http://www.w3.org/2000/svg"
 width="2048.000000pt" height="2048.000000pt" viewBox="0 0 2048.000000 2048.000000"
 preserveAspectRatio="xMidYMid meet">
<metadata>
Created by potrace 1.13, written by Peter Selinger 2001-2015
</metadata>
<g transform="translate(0.000000,2048.000000) scale(0.192120,-0.192120)"
fill="#000000" stroke="none">
<path d="M1359 10318 c-60 -16 -130 -77 -164 -143 l-30 -59 0 -755 c0 -600 3
-764 13 -793 20 -57 93 -132 153 -158 42 -18 66 -21 123 -18 81 4 129 24 179
75 43 42 67 90 76 152 l7 46 13 -55 c31 -141 128 -220 268 -220 116 0 207 59
253 163 21 47 21 56 21 806 0 662 -2 764 -15 796 -59 140 -217 209 -358 155
-69 -26 -142 -100 -159 -163 -6 -23 -15 -53 -19 -67 -8 -23 -8 -22 -9 10 -2
53 -43 132 -91 173 -71 60 -166 81 -261 55z m214 -370 c107 -62 132 -70 175
-58 20 5 71 30 112 55 48 29 86 45 107 45 l33 0 0 -605 c0 -531 -2 -605 -15
-605 -10 0 -15 -11 -15 -35 0 -47 -13 -46 -127 16 -117 63 -142 63 -258 -4
-44 -25 -92 -48 -107 -51 -27 -6 -28 -5 -28 33 0 25 -5 41 -15 45 -13 5 -15
81 -15 600 0 556 1 596 18 605 24 14 57 4 135 -41z M8579 10316 c-56 -20 -104
-53 -133 -91 -60 -78 -57 -40 -57 -866 0 -750 0 -759 21 -806 46 -104 137
-163 253 -163 140 0 237 79 268 220 l13 55 7 -46 c9 -62 33 -110 76 -152 50
-51 98 -71 179 -75 90 -5 156 21 215 85 79 86 74 26 74 878 0 752 0 761 -21
806 -80 173 -292 223 -434 102 -48 -41 -89 -120 -91 -173 -1 -39 0 -40 -30 59
-39 130 -209 214 -340 167z m189 -352 c23 -13 63 -36 88 -50 71 -41 106 -37
211 24 56 32 102 52 122 52 l31 0 0 -605 c0 -531 -2 -605 -15 -605 -10 0 -15
-11 -15 -35 0 -48 -17 -46 -115 11 -115 68 -141 69 -258 6 -52 -28 -106 -53
-120 -56 -25 -4 -27 -2 -27 34 0 24 -5 40 -15 44 -13 5 -15 81 -15 600 0 556
1 596 18 605 22 13 56 5 110 -25z M2383 9493 c-24 -2 -43 -6 -43 -8 0 -1 16
-26 35 -55 19 -29 35 -62 35 -74 0 -12 -16 -45 -35 -73 -19 -29 -35 -55 -35
-58 0 -3 119 -5 264 -5 l264 0 -19 -50 c-10 -28 -19 -68 -19 -89 0 -42 886
-2927 942 -3066 84 -212 212 -353 353 -390 32 -8 60 -13 62 -12 1 2 -12 28
-31 58 -179 291 -196 326 -266 552 -251 816 -824 2670 -835 2702 -28 84 -84
192 -124 236 -22 26 -37 49 -34 53 10 10 431 7 437 -3 3 -5 0 -11 -8 -14 -8
-3 -29 -27 -48 -54 -31 -45 -33 -53 -33 -128 1 -61 9 -107 34 -190 58 -194
679 -2199 691 -2230 42 -115 89 -156 182 -163 l60 -5 -7 34 c-10 47 -812 2640
-836 2703 -10 28 -19 52 -19 54 0 1 260 2 578 2 l577 -1 -65 -34 c-131 -70
-229 -171 -300 -307 -65 -125 -80 -201 -80 -412 0 -329 47 -509 168 -646 l40
-45 4 -180 c4 -153 9 -195 31 -279 77 -290 280 -541 545 -675 l62 -31 0 -81 0
-81 38 6 c80 15 111 69 77 136 -9 18 -77 95 -151 171 -74 77 -134 143 -134
148 0 4 -37 57 -82 117 -44 60 -98 145 -119 189 -42 89 -82 243 -99 380 -18
146 -20 151 -43 186 -13 19 -46 52 -75 73 -50 37 -52 41 -52 87 0 48 0 48 38
54 236 38 402 189 495 450 25 71 67 251 67 290 0 23 -23 18 -57 -13 -39 -37
-72 -88 -135 -215 -54 -110 -110 -192 -167 -246 -45 -42 -132 -83 -168 -79
-50 6 -53 29 -51 298 l3 246 33 55 c40 65 209 255 271 304 l44 35 679 0 c757
0 707 5 770 -72 51 -63 153 -217 191 -290 63 -118 67 -141 67 -365 0 -129 -4
-212 -11 -225 -12 -22 -38 -22 -319 3 -280 25 -553 101 -732 206 -78 46 -155
119 -239 227 -75 95 -97 117 -141 141 l-26 14 5 -42 c25 -219 171 -401 421
-526 213 -107 499 -169 885 -193 l197 -12 0 -87 0 -88 -49 -38 c-27 -21 -61
-58 -74 -83 -30 -55 -63 -162 -77 -250 -25 -165 -55 -234 -149 -355 -26 -33
-71 -96 -101 -140 -29 -44 -108 -137 -176 -206 -68 -70 -128 -139 -134 -153
-26 -71 2 -118 78 -131 l42 -7 0 81 0 81 63 31 c338 171 555 509 574 893 l6
120 48 80 c63 105 113 237 139 367 31 148 25 378 -14 524 -51 193 -180 413
-316 539 l-61 56 560 0 c309 0 561 -1 561 -2 0 -2 -9 -26 -19 -54 -24 -62
-826 -2656 -836 -2701 -7 -33 -6 -33 34 -33 71 0 134 38 167 102 15 29 704
2247 735 2367 28 111 25 175 -12 239 -16 29 -36 55 -44 59 -8 3 -12 9 -9 14 7
11 431 12 438 1 3 -5 -9 -22 -25 -38 -68 -64 -110 -149 -178 -355 -128 -393
-683 -2208 -711 -2324 -77 -324 -147 -504 -273 -704 -43 -69 -85 -138 -93
-153 l-14 -28 32 6 c150 27 293 171 381 384 47 114 947 3040 947 3079 -1 20
-9 60 -19 89 l-18 52 264 0 c144 0 263 3 263 6 0 4 -16 29 -35 55 -44 61 -44
90 0 154 l34 50 -47 7 c-49 6 -5814 7 -5889 1z m3730 -175 c31 -18 37 -28 37
-65 l0 -33 -820 0 -820 0 0 28 c0 33 10 50 41 67 34 19 1528 21 1562 3z M1064
9446 c-58 -58 -44 -165 26 -201 l31 -16 -8 28 c-10 36 -10 160 0 196 10 37 -7
35 -49 -7z M9547 9453 c10 -36 10 -160 0 -196 l-8 -28 31 16 c70 36 84 143 26
201 -42 42 -59 44 -49 7z M4748 7784 c-30 -16 -58 -61 -58 -94 0 -61 70 -118
130 -105 33 7 76 51 85 86 9 38 -18 95 -54 113 -37 20 -68 20 -103 0z M5804
7781 c-36 -22 -59 -78 -49 -113 11 -34 54 -76 85 -83 60 -13 130 44 130 105 0
54 -57 110 -112 110 -13 0 -37 -9 -54 -19z M5123 7331 c6 -53 49 -117 97 -146
27 -15 52 -20 110 -20 58 0 83 5 110 20 48 29 91 93 97 146 l5 44 -212 0 -212
0 5 -44z M4905 6928 c22 -72 79 -122 180 -160 54 -20 79 -22 245 -22 167 -1
191 1 244 22 102 37 159 88 181 160 l6 22 -431 0 -431 0 6 -22z M4220 6433 c0
-5 0 -691 0 -1526 l0 -1517 -140 -696 c-77 -382 -140 -696 -140 -697 0 -1 152
-1 338 0 185 2 373 3 417 3 l80 0 138 415 139 415 278 0 278 0 139 -415 138
-415 80 0 c44 0 232 -1 417 -2 186 -2 338 -2 338 -1 0 1 -63 315 -140 697
l-140 696 0 1522 0 1523 -344 3 -344 2 -3 -123 c-4 -115 -6 -127 -37 -190
-157 -319 -607 -318 -765 2 -30 61 -32 74 -36 188 l-3 123 -344 0 c-189 0
-344 -3 -344 -7z m484 -258 c19 -19 54 -67 77 -107 86 -149 176 -237 304 -298
166 -79 316 -81 480 -5 128 59 230 161 309 310 20 39 50 85 66 103 l30 32 100
0 c93 0 100 -1 100 -20 0 -15 7 -20 25 -20 l24 0 3 -997 c2 -786 6 -997 16
-1001 6 -2 12 -12 12 -23 0 -10 4 -19 8 -19 5 0 16 -15 25 -32 10 -18 35 -57
57 -87 22 -29 37 -58 34 -62 -7 -12 -2081 -12 -2088 0 -3 5 16 40 43 77 27 38
58 89 70 114 l21 44 0 993 0 993 25 0 c18 0 25 5 25 20 0 19 7 20 100 20 l99
0 35 -35z m1436 -2515 l0 -30 -820 0 -820 0 0 30 0 30 820 0 820 0 0 -30z
m157 -276 l90 -7 -53 -103 c-51 -99 -54 -108 -54 -179 0 -51 19 -171 60 -380
54 -273 60 -316 58 -408 l-3 -102 -142 1 c-164 1 -176 5 -222 86 -16 28 -64
155 -107 280 -67 201 -83 238 -128 301 -56 79 -153 159 -213 177 -57 18 -354
25 -443 11 -93 -15 -145 -44 -230 -130 -84 -86 -109 -134 -185 -359 -88 -263
-118 -323 -175 -353 -27 -14 -242 -26 -284 -15 -25 6 -26 9 -26 92 0 65 16
165 66 417 82 414 82 440 12 576 l-47 90 62 4 c115 6 1873 7 1964 1z M4064
1963 c3 -10 17 -65 31 -123 63 -251 222 -854 241 -909 7 -21 59 32 86 88 33
67 30 163 -11 326 -52 211 -101 367 -132 421 -28 50 -156 181 -199 204 -19 10
-21 9 -16 -7z M6519 1921 c-139 -112 -175 -177 -250 -461 -68 -253 -76 -361
-34 -438 34 -62 82 -112 89 -91 34 101 278 1040 272 1046 -2 2 -37 -23 -77
-56z M4585 1909 c-96 -107 -93 -177 27 -604 51 -183 80 -233 237 -410 39 -44
71 -83 71 -86 0 -4 -27 4 -60 18 -92 37 -201 54 -350 55 -290 3 -484 -70 -549
-206 -18 -37 -21 -61 -21 -194 l0 -152 555 0 555 0 0 155 c0 175 -4 191 -70
260 -35 36 -42 54 -70 165 -29 117 -220 841 -257 978 -10 34 -20 62 -24 62 -4
0 -23 -18 -44 -41z m84 -1278 c45 -25 8 -36 -124 -36 -139 0 -175 12 -114 40
41 19 201 16 238 -4z M6007 1888 c-41 -149 -239 -906 -262 -999 -22 -90 -30
-108 -64 -143 -67 -70 -71 -86 -71 -261 l0 -155 555 0 555 0 0 152 c0 133 -3
157 -21 194 -65 136 -259 209 -549 206 -149 -1 -258 -18 -350 -55 -33 -14 -60
-22 -60 -18 1 3 43 55 95 116 142 164 157 199 261 590 43 165 51 278 21 332
-19 36 -75 103 -86 103 -4 0 -14 -28 -24 -62z m219 -1253 c20 -8 33 -19 30
-24 -17 -26 -286 -23 -286 4 0 32 192 47 256 20z"/>
</g>
</svg>
