<?xml version="1.0" standalone="no"?>
<!DOCTYPE svg PUBLIC "-//W3C//DTD SVG 20010904//EN"
 "http://www.w3.org/TR/2001/REC-SVG-20010904/DTD/svg10.dtd">
<svg version="1.0" xmlns="http://www.w3.org/2000/svg"
 width="2048.000000pt" height="2048.000000pt" viewBox="0 0 2048.000000 2048.000000"
 preserveAspectRatio="xMidYMid meet">
<metadata>
Created by potrace 1.13, written by Peter Selinger 2001-2015
</metadata>
<g transform="translate(0.000000,2048.000000) scale(0.192120,-0.192120)"
fill="#000000" stroke="none">
<path d="M4380 10039 c-183 -22 -415 -99 -567 -187 -170 -100 -318 -243 -380
-370 -36 -73 -38 -80 -38 -176 0 -116 14 -154 88 -230 l42 -45 0 -143 c1 -334
123 -616 369 -845 189 -175 415 -276 681 -303 97 -10 243 -2 289 16 16 6 20
-4 35 -86 l8 -45 11 40 c17 58 15 115 -7 155 -34 64 -51 70 -237 86 -93 7
-205 22 -249 33 -161 39 -313 128 -441 258 -133 135 -196 241 -278 474 -20 58
-65 158 -100 222 -35 64 -61 117 -58 117 2 0 28 -13 56 -29 80 -46 176 -70
361 -91 204 -24 252 -32 372 -65 207 -55 369 -168 553 -382 215 -251 279 -320
348 -375 131 -104 282 -160 502 -188 375 -46 783 88 1108 362 182 155 299 356
237 408 -8 7 -63 16 -122 20 -379 28 -623 192 -1013 681 -138 173 -332 372
-430 440 -158 111 -351 189 -570 229 -134 25 -433 35 -570 19z m525 -263 c139
-24 260 -61 371 -116 183 -89 304 -196 519 -455 352 -426 565 -609 823 -707
74 -28 82 -34 82 -58 0 -45 -100 -126 -246 -199 -155 -78 -264 -108 -554 -155
-52 -9 -133 -23 -180 -31 -131 -24 -202 -3 -339 100 -106 80 -166 141 -349
352 -314 362 -522 480 -952 538 -63 8 -149 20 -190 26 -178 25 -281 119 -279
254 0 56 16 87 78 151 161 164 446 285 746 318 80 8 382 -3 470 -18z M5415
7859 c-151 -34 -404 -187 -534 -322 -102 -106 -181 -242 -217 -372 -22 -80
-30 -338 -15 -445 l12 -81 -97 -122 c-124 -154 -465 -496 -609 -611 -282 -225
-614 -411 -900 -505 -82 -27 -177 -54 -210 -61 -81 -17 -173 -59 -213 -99
-121 -122 -100 -320 45 -418 95 -64 181 -61 445 16 554 163 1113 515 1569 989
60 62 109 117 109 122 0 19 -54 45 -92 44 -70 -2 -121 -37 -368 -253 -205
-179 -406 -321 -636 -449 -108 -61 -344 -172 -364 -172 -6 0 -18 -4 -28 -10
-75 -42 -398 -124 -464 -118 -77 8 -111 55 -70 96 10 10 78 35 151 56 470 134
876 367 1279 734 50 47 98 95 105 107 6 13 76 92 154 177 207 223 263 308 263
395 0 30 -7 60 -20 81 l-20 32 61 95 c34 52 63 95 65 95 13 0 474 -285 472
-291 -14 -41 -253 -357 -410 -542 l-33 -38 29 -82 c16 -45 93 -255 171 -467
204 -550 229 -620 224 -623 -2 -2 -319 -228 -704 -503 -393 -280 -722 -522
-751 -551 -28 -29 -65 -79 -82 -110 -21 -41 -119 -369 -321 -1076 -160 -560
-291 -1027 -291 -1040 0 -58 -7 -63 -68 -56 -121 16 -447 21 -558 10 -192 -20
-255 -43 -301 -111 -45 -65 -24 -183 39 -224 13 -8 187 -72 388 -141 201 -70
565 -196 810 -281 245 -85 460 -154 478 -154 79 0 140 64 176 182 47 156 58
218 53 302 -5 72 -3 84 23 135 16 32 130 414 264 886 131 457 246 860 256 896
l20 65 342 245 c189 134 393 281 455 326 l113 82 0 -332 c0 -367 4 -399 63
-517 20 -40 57 -90 99 -132 l66 -67 896 -448 c492 -246 898 -444 902 -440 18
17 -104 214 -181 293 -45 45 -107 79 -592 323 -526 264 -863 450 -931 514 -40
38 -72 96 -72 130 0 14 -7 38 -15 53 -12 23 -15 71 -15 224 0 280 -23 351
-128 390 -29 11 -62 20 -72 20 -20 0 -20 9 -20 408 l0 408 -67 17 c-38 10 -99
35 -138 55 l-70 38 -21 70 -22 69 50 27 c75 41 79 49 75 148 -4 98 -7 106
-173 554 -140 375 -141 380 -150 432 -8 50 -5 56 99 194 143 188 217 333 217
423 0 132 -160 289 -422 415 l-97 47 0 76 c-1 61 4 84 24 125 30 61 140 199
201 253 93 82 278 171 354 171 24 0 30 4 30 21 0 19 4 20 43 14 110 -18 282
-149 382 -289 22 -31 50 -69 63 -84 45 -54 191 -279 231 -357 109 -213 178
-395 221 -585 12 -52 39 -150 61 -218 180 -566 329 -1164 329 -1315 0 -40 -4
-77 -8 -82 -4 -6 -27 -19 -51 -30 -45 -20 -84 -67 -96 -116 -6 -25 -7 -25 -68
-16 -88 12 -248 3 -342 -21 -178 -46 -256 -56 -427 -57 -161 0 -167 -1 -145
-17 12 -10 30 -20 40 -24 9 -3 17 -10 17 -15 0 -5 7 -9 15 -9 8 0 15 -4 15
-10 0 -5 20 -10 45 -10 27 0 45 -5 45 -11 0 -18 136 -5 333 31 190 34 247 38
247 15 0 -8 9 -15 20 -15 20 0 20 -7 20 -464 0 -299 4 -467 10 -471 6 -3 10
-16 10 -29 0 -42 36 -97 118 -180 103 -103 149 -131 596 -353 l359 -178 191
-2 c105 -1 209 -6 231 -11 32 -8 35 -10 14 -11 -55 -2 -158 -42 -188 -71 -24
-25 -34 -51 -59 -157 -83 -350 -118 -635 -121 -984 -4 -413 37 -658 121 -736
68 -63 192 -51 245 23 32 45 486 1679 480 1726 -11 86 -79 133 -242 167 -95
20 -135 39 -815 380 l-715 359 -5 553 c-3 305 -5 555 -4 557 2 4 68 -21 187
-70 85 -35 128 -48 155 -46 l37 3 3 74 c7 185 -116 779 -272 1306 -241 818
-535 1482 -781 1767 -183 213 -422 314 -630 267z m-80 -3447 l70 -38 3 -265 2
-265 -82 -53 c-46 -29 -198 -134 -338 -234 -205 -145 -277 -203 -366 -292
-162 -162 -158 -154 -368 -890 -96 -335 -184 -647 -195 -692 -27 -105 -27
-216 0 -328 11 -48 19 -88 17 -90 -2 -2 -43 11 -93 27 -153 51 -428 116 -623
148 -103 17 -191 32 -196 34 -5 1 14 16 41 34 72 47 160 143 188 206 14 31
123 401 244 823 121 423 233 807 249 854 39 115 66 157 132 211 58 48 951 688
1083 776 126 85 134 87 232 34z m2769 -1974 c99 -19 99 -38 -5 -410 -91 -329
-115 -406 -139 -446 -44 -72 -50 -46 -57 283 -5 250 -4 278 16 383 40 207 50
218 185 190z m-4562 -1252 c89 -19 192 -43 228 -53 l65 -18 3 -89 c3 -95 -5
-116 -44 -116 -26 0 -557 182 -624 213 -25 12 -53 29 -63 38 -17 15 -17 17 6
32 71 46 186 44 429 -7z M6310 7264 c22 -27 267 -264 323 -312 26 -23 87 -69
135 -103 48 -33 92 -67 97 -73 6 -7 39 -32 75 -56 164 -110 376 -281 385 -311
4 -11 67 -82 140 -157 199 -204 307 -339 394 -493 25 -45 31 -67 31 -116 0
-69 -17 -93 -67 -93 -52 0 -93 40 -200 195 -189 275 -344 441 -591 631 -52 41
-147 83 -197 89 -40 5 -57 2 -83 -15 -18 -11 -32 -27 -30 -34 2 -8 58 -56 124
-108 327 -252 542 -484 696 -753 35 -60 74 -122 87 -138 70 -83 224 -109 327
-55 96 50 147 135 148 244 1 65 -3 79 -43 158 -267 526 -870 1065 -1616 1443
-84 43 -143 68 -135 57z"/>
</g>
</svg>
