<?xml version="1.0" standalone="no"?>
<!DOCTYPE svg PUBLIC "-//W3C//DTD SVG 20010904//EN"
 "http://www.w3.org/TR/2001/REC-SVG-20010904/DTD/svg10.dtd">
<svg version="1.0" xmlns="http://www.w3.org/2000/svg"
 width="2048.000000pt" height="2048.000000pt" viewBox="0 0 2048.000000 2048.000000"
 preserveAspectRatio="xMidYMid meet">
<metadata>
Created by potrace 1.13, written by Peter Selinger 2001-2015
</metadata>
<g transform="translate(0.000000,2048.000000) scale(0.192120,-0.192120)"
fill="#000000" stroke="none">
<path d="M1359 10318 c-60 -16 -130 -77 -164 -143 l-30 -59 0 -755 c0 -600 3
-764 13 -793 20 -57 93 -132 153 -158 42 -18 66 -21 123 -18 81 4 129 24 179
75 43 42 67 90 76 152 l7 46 13 -55 c31 -141 128 -220 268 -220 116 0 207 59
253 163 21 47 21 56 21 806 0 662 -2 764 -15 796 -59 140 -217 209 -358 155
-69 -26 -142 -100 -159 -163 -6 -23 -15 -53 -19 -67 -8 -23 -8 -22 -9 10 -2
53 -43 132 -91 173 -71 60 -166 81 -261 55z m214 -370 c107 -62 132 -70 175
-58 20 5 71 30 112 55 48 29 86 45 107 45 l33 0 0 -605 c0 -531 -2 -605 -15
-605 -10 0 -15 -11 -15 -35 0 -47 -13 -46 -127 16 -117 63 -142 63 -258 -4
-44 -25 -92 -48 -107 -51 -27 -6 -28 -5 -28 33 0 25 -5 41 -15 45 -13 5 -15
81 -15 600 0 556 1 596 18 605 24 14 57 4 135 -41z M8579 10316 c-56 -20 -104
-53 -133 -91 -60 -78 -57 -40 -57 -866 0 -750 0 -759 21 -806 46 -104 137
-163 253 -163 140 0 237 79 268 220 l13 55 7 -46 c9 -62 33 -110 76 -152 50
-51 98 -71 179 -75 90 -5 156 21 215 85 79 86 74 26 74 878 0 752 0 761 -21
806 -80 173 -292 223 -434 102 -48 -41 -89 -120 -91 -173 -1 -39 0 -40 -30 59
-39 130 -209 214 -340 167z m189 -352 c23 -13 63 -36 88 -50 71 -41 106 -37
211 24 56 32 102 52 122 52 l31 0 0 -605 c0 -531 -2 -605 -15 -605 -10 0 -15
-11 -15 -35 0 -48 -17 -46 -115 11 -115 68 -141 69 -258 6 -52 -28 -106 -53
-120 -56 -25 -4 -27 -2 -27 34 0 24 -5 40 -15 44 -13 5 -15 81 -15 600 0 556
1 596 18 605 22 13 56 5 110 -25z M2383 9493 c-24 -2 -43 -6 -43 -8 0 -1 16
-26 35 -55 19 -29 35 -62 35 -74 0 -12 -16 -45 -35 -73 -19 -29 -35 -55 -35
-58 0 -3 119 -5 265 -5 l266 0 -17 -32 c-9 -17 -18 -56 -21 -87 -4 -52 29
-165 451 -1531 251 -811 470 -1511 487 -1555 61 -160 179 -312 283 -363 26
-13 74 -29 107 -35 l59 -12 0 -1108 0 -1108 -140 -695 c-77 -382 -140 -696
-140 -698 0 -2 26 -3 57 -2 l57 1 23 -90 c82 -318 254 -966 263 -990 l12 -30
35 40 c60 69 73 104 73 200 0 71 -9 122 -55 299 -85 334 -107 381 -235 498
l-70 66 53 6 c28 4 179 6 335 5 156 -1 284 0 286 2 2 2 65 190 140 417 l138
412 278 0 278 0 138 -412 c75 -227 138 -415 140 -417 1 -1 137 -3 301 -3 164
1 315 -2 335 -6 l38 -7 -61 -50 c-79 -65 -141 -148 -173 -232 -14 -37 -50
-166 -81 -285 -79 -312 -76 -377 23 -488 l40 -45 12 29 c6 16 69 253 141 525
71 273 133 510 137 526 8 29 10 30 65 29 31 -1 57 0 57 2 0 2 -63 316 -140
698 l-140 695 0 1108 0 1108 60 12 c87 16 143 47 213 118 67 66 127 161 170
265 15 36 234 736 488 1555 427 1380 460 1494 456 1546 -3 31 -12 70 -21 87
l-17 32 266 0 c146 0 265 3 265 6 0 4 -16 29 -35 55 -44 61 -44 90 0 154 l34
50 -47 7 c-49 6 -5814 7 -5889 1z m3783 -134 c65 -13 91 -37 99 -94 l7 -45
519 0 c286 0 519 -1 519 -2 0 -2 -9 -26 -19 -54 -16 -42 -710 -2277 -813
-2619 l-33 -110 -348 3 -347 2 0 85 0 85 63 31 c338 171 555 509 574 893 6
117 7 120 46 185 56 91 104 205 135 319 24 89 26 112 26 292 0 181 -2 202 -27
295 -54 195 -177 406 -315 538 l-61 57 -844 0 -844 0 -59 -31 c-183 -97 -321
-277 -369 -481 -20 -85 -20 -389 0 -521 24 -163 75 -284 155 -371 l38 -41 4
-180 c4 -153 9 -195 31 -279 77 -290 280 -541 545 -675 l62 -31 0 -85 0 -84
-349 -3 -350 -3 -5 25 c-7 38 -815 2646 -837 2704 -10 28 -19 52 -19 54 0 1
232 2 515 2 l514 0 7 38 c10 55 22 72 62 90 32 15 95 18 477 22 595 7 1179 2
1241 -11z m-2924 -145 c4 -3 -3 -26 -14 -52 -26 -58 -21 -137 17 -267 52 -180
704 -2282 724 -2336 36 -95 92 -143 181 -155 30 -4 58 -12 62 -18 11 -16 10
-748 -1 -744 -16 6 -170 245 -215 335 -24 48 -67 162 -95 253 -28 91 -102 334
-165 540 -63 206 -156 507 -205 668 -237 764 -278 898 -366 1187 -52 171 -104
338 -115 372 -11 34 -20 73 -20 87 0 14 -4 26 -10 26 -5 0 -10 7 -10 15 0 8
-9 29 -19 47 -11 17 -18 35 -15 40 6 9 257 11 266 2z m4440 0 c8 -7 -42 -104
-53 -104 -5 0 -9 -16 -9 -36 0 -19 -5 -45 -11 -56 -6 -12 -21 -57 -34 -102
-12 -45 -172 -562 -355 -1151 -182 -588 -358 -1174 -390 -1302 -86 -339 -142
-475 -285 -688 -47 -71 -91 -131 -96 -133 -11 -4 -12 727 -1 744 4 6 30 15 57
19 28 4 59 12 70 17 31 16 71 63 94 110 20 41 736 2350 760 2450 17 71 14 148
-8 190 -10 21 -16 40 -13 43 7 7 267 7 274 -1z m-1640 -255 c76 -17 148 -93
214 -225 l49 -99 3 -199 c2 -109 -1 -203 -6 -208 -9 -9 -296 13 -425 33 -189
28 -413 97 -529 162 -102 57 -162 111 -262 236 -134 168 -182 204 -238 180
-54 -22 -142 -130 -203 -250 -109 -214 -175 -296 -258 -321 -32 -10 -40 -9
-48 3 -5 8 -9 111 -9 230 l0 216 38 59 c40 61 116 135 165 161 16 8 47 18 70
23 67 13 1377 12 1439 -1z m-1142 -312 c26 -130 130 -277 265 -372 230 -163
590 -257 1078 -281 l147 -7 0 -122 0 -122 -64 -32 c-56 -27 -67 -37 -89 -84
-38 -79 -57 -134 -57 -167 0 -58 -31 -176 -61 -235 -17 -33 -59 -96 -93 -140
-35 -44 -84 -111 -110 -150 -27 -38 -101 -124 -165 -190 -65 -66 -126 -133
-136 -149 -24 -39 -23 -98 1 -122 25 -24 89 -54 115 -54 20 0 21 -4 18 -113
-4 -103 -7 -118 -37 -180 -157 -319 -607 -318 -765 2 -29 60 -32 75 -36 178
-3 110 -3 113 18 113 25 0 92 32 108 52 6 7 13 26 17 41 12 52 -26 113 -148
237 -63 63 -127 134 -143 156 -15 23 -60 84 -99 135 -121 159 -171 286 -209
524 -18 113 -44 190 -74 212 -9 7 -37 23 -63 35 l-48 22 0 78 c0 73 1 78 23
82 110 21 145 31 199 58 42 21 89 57 140 109 120 120 194 289 230 521 13 90
13 90 38 -35z m-172 -2474 c22 -21 59 -74 83 -118 130 -243 398 -370 648 -309
172 42 299 150 400 339 17 33 45 75 61 93 l30 32 110 0 c103 0 110 -1 110 -20
0 -16 7 -20 34 -20 l34 0 -5 -1000 c-5 -755 -3 -1000 5 -1000 7 0 12 -9 12
-20 0 -11 4 -20 8 -20 5 0 16 -15 25 -32 10 -18 35 -57 57 -87 22 -29 37 -58
34 -62 -7 -12 -2081 -12 -2088 0 -3 5 17 40 44 78 99 142 91 59 85 878 -2 396
-7 843 -10 993 l-6 272 36 0 c28 0 35 4 35 20 0 19 7 20 109 20 l108 0 41 -37z
m1412 -2513 l0 -30 -820 0 -820 0 0 30 0 30 820 0 820 0 0 -30z m157 -276 l90
-7 -53 -103 c-51 -99 -54 -108 -54 -179 0 -51 19 -171 60 -380 56 -280 60
-314 58 -418 l-3 -112 -130 1 c-153 1 -177 10 -223 81 -17 27 -66 153 -113
292 -72 214 -88 252 -133 315 -56 78 -153 158 -213 176 -57 18 -354 25 -443
11 -93 -15 -145 -44 -230 -130 -85 -87 -108 -131 -190 -375 -79 -234 -105
-291 -154 -333 -29 -27 -45 -32 -108 -38 -40 -3 -104 -5 -143 -3 l-70 3 -3 96
c-2 86 5 135 63 430 83 417 84 442 13 578 l-47 90 62 4 c115 6 1873 7 1964 1z
M4748 7784 c-30 -16 -58 -61 -58 -94 0 -61 70 -118 130 -105 33 7 76 51 85 86
9 38 -18 95 -54 113 -37 20 -68 20 -103 0z M5804 7781 c-36 -22 -59 -78 -49
-113 11 -34 54 -76 85 -83 60 -13 130 44 130 105 0 54 -57 110 -112 110 -13 0
-37 -9 -54 -19z M5123 7331 c6 -53 49 -117 97 -146 27 -15 52 -20 110 -20 58
0 83 5 110 20 47 28 89 91 96 145 l6 45 -212 0 -212 0 5 -44z M4905 6928 c22
-72 79 -122 180 -160 54 -20 78 -22 245 -22 167 0 191 2 245 22 101 38 158 88
180 160 l6 22 -431 0 -431 0 6 -22z M1064 9446 c-58 -58 -44 -165 26 -201 l31
-16 -8 28 c-10 36 -10 160 0 196 10 37 -7 35 -49 -7z M9547 9453 c10 -36 10
-160 0 -196 l-8 -28 31 16 c70 36 84 143 26 201 -42 42 -59 44 -49 7z M4577
1940 c-94 -103 -99 -171 -31 -436 93 -366 112 -411 238 -565 47 -57 84 -104
83 -105 -1 -1 -36 7 -77 17 -41 11 -134 24 -206 30 -259 21 -487 -37 -584
-147 -54 -62 -60 -88 -60 -254 l0 -150 555 0 555 0 0 155 c0 175 -4 191 -70
260 -35 36 -42 53 -75 185 -30 121 -256 975 -272 1033 -8 25 -17 22 -56 -23z
m113 -1288 c42 -21 50 -47 18 -56 -30 -8 -276 -8 -305 0 -36 10 -27 33 20 54
58 27 216 28 267 2z M6027 1963 c-13 -45 -249 -942 -277 -1053 -28 -111 -35
-129 -70 -165 -66 -69 -70 -85 -70 -260 l0 -155 555 0 555 0 0 150 c0 166 -6
192 -60 254 -65 74 -165 115 -339 141 -95 14 -135 15 -245 6 -72 -6 -165 -19
-206 -30 -41 -10 -76 -18 -77 -17 -2 1 30 43 71 92 84 102 126 173 154 259 24
73 115 417 132 499 21 100 -2 182 -71 261 -35 39 -44 43 -52 18z m211 -1313
c46 -21 55 -44 20 -54 -13 -3 -86 -6 -164 -6 -106 0 -145 3 -160 14 -22 17
-16 26 31 50 46 24 217 22 273 -4z"/>
</g>
</svg>
