<?xml version="1.0" standalone="no"?>
<!DOCTYPE svg PUBLIC "-//W3C//DTD SVG 20010904//EN"
 "http://www.w3.org/TR/2001/REC-SVG-20010904/DTD/svg10.dtd">
<svg version="1.0" xmlns="http://www.w3.org/2000/svg"
 width="2048.000000pt" height="2048.000000pt" viewBox="0 0 2048.000000 2048.000000"
 preserveAspectRatio="xMidYMid meet">
<metadata>
Created by potrace 1.13, written by Peter Selinger 2001-2015
</metadata>
<g transform="translate(0.000000,2048.000000) scale(0.192120,-0.192120)"
fill="#000000" stroke="none">
<path d="M5800 9814 c-457 -39 -793 -121 -1310 -321 -635 -246 -1112 -384
-1606 -468 -323 -54 -550 -73 -989 -84 -291 -8 -326 -10 -390 -31 -247 -79
-433 -254 -644 -605 -93 -155 -301 -568 -334 -665 -61 -176 -55 -297 17 -344
14 -9 31 -16 38 -16 7 0 33 -14 57 -30 115 -78 209 -20 470 294 185 222 277
321 372 400 258 217 488 285 742 220 34 -8 123 -35 199 -59 308 -99 455 -100
668 -5 104 47 175 66 305 81 131 15 426 7 750 -22 299 -27 812 -33 930 -11
234 43 394 110 496 208 l36 35 7 -240 c34 -1232 230 -2292 506 -2748 22 -36
40 -67 40 -69 0 -3 -24 -36 -54 -75 -85 -112 -203 -319 -283 -497 -91 -202
-189 -446 -202 -504 -6 -24 -22 -72 -37 -108 -66 -165 -143 -272 -201 -283
-102 -19 -203 133 -268 408 -38 155 -55 290 -65 509 -9 216 -25 326 -67 476
-150 538 -515 984 -1093 1335 -300 182 -488 241 -806 252 -247 8 -445 -20
-657 -94 -335 -116 -574 -319 -717 -611 -212 -429 -273 -910 -174 -1372 81
-377 287 -751 529 -961 33 -28 61 -55 62 -58 1 -3 -29 -25 -67 -49 l-68 -42
-831 2 -831 3 0 -1667 0 -1668 5000 0 5000 0 0 2173 0 2174 -182 101 c-228
126 -488 252 -683 330 -82 33 -184 74 -225 92 -179 75 -420 130 -571 130 -331
1 -558 322 -738 1045 -41 166 -91 415 -156 785 -93 529 -137 729 -194 880 -51
136 -205 383 -481 770 -292 410 -363 534 -379 667 -5 43 -18 87 -31 107 -61
99 -251 184 -485 216 -87 12 -332 20 -405 14z m470 -263 c69 -15 96 -17 101
-9 12 19 83 -19 117 -61 16 -20 46 -79 67 -131 66 -166 160 -328 324 -560 250
-352 377 -543 464 -701 86 -154 134 -342 237 -924 105 -594 159 -840 242
-1100 124 -394 249 -612 430 -757 124 -99 244 -151 373 -162 33 -3 87 -8 120
-11 33 -2 110 -9 170 -15 86 -8 138 -7 235 5 148 17 180 18 180 5 0 -5 -30
-42 -67 -81 -217 -230 -654 -392 -1238 -461 -148 -17 -673 -17 -830 0 -370 41
-719 128 -1005 249 -120 51 -230 110 -230 124 0 5 41 29 91 54 115 58 169 108
214 198 57 113 50 174 -43 384 -234 528 -373 1314 -422 2388 -11 246 -20 304
-56 376 -30 60 -109 136 -157 151 -41 12 -81 1 -272 -77 -243 -100 -519 -115
-1151 -63 -320 26 -736 31 -854 10 -41 -8 -149 -39 -240 -69 -251 -85 -331
-85 -610 -1 -209 62 -291 78 -416 78 -144 0 -246 -25 -389 -95 -199 -98 -390
-266 -643 -566 -144 -172 -218 -244 -257 -251 -37 -8 -48 13 -43 84 3 53 15
87 73 208 243 506 434 760 650 865 122 60 159 66 512 76 587 16 985 69 1488
199 361 93 589 167 1045 340 341 129 487 177 698 229 318 79 501 101 787 96
164 -3 231 -8 305 -24z m-3081 -2991 c115 -12 259 -46 350 -83 63 -26 131 -66
131 -79 0 -18 -48 -29 -167 -39 -244 -19 -441 -73 -648 -175 -169 -83 -294
-173 -430 -309 -138 -138 -220 -248 -307 -411 -127 -240 -189 -481 -205 -787
-6 -134 -15 -156 -48 -123 -25 25 -65 124 -91 225 -23 90 -24 108 -24 436 l0
343 29 115 c84 330 219 545 431 679 263 167 624 244 979 208z m676 -444 c195
-33 381 -96 555 -188 99 -52 259 -157 282 -185 9 -11 13 -49 13 -122 0 -102 3
-112 53 -258 77 -224 111 -399 112 -568 0 -114 25 -302 48 -362 11 -28 33 -72
50 -97 60 -88 61 -83 -29 -78 -206 12 -521 -87 -989 -308 -233 -111 -338 -138
-416 -105 -105 44 -78 235 84 580 80 169 92 213 67 238 -69 70 -376 -98 -1153
-632 -183 -125 -184 -125 -162 -143 12 -10 37 -18 56 -18 74 0 125 29 572 319
281 183 302 195 302 182 0 -5 29 6 65 25 l64 35 7 -27 c4 -17 -6 -70 -30 -154
-31 -111 -36 -143 -36 -233 0 -104 0 -104 39 -164 82 -128 174 -158 344 -113
43 11 171 61 285 111 343 151 513 212 687 248 88 18 90 18 93 0 3 -14 12 -19
38 -19 l34 0 0 -190 c0 -213 3 -224 66 -280 65 -57 113 -72 250 -78 181 -7
297 20 449 106 197 112 305 218 305 296 0 56 -13 61 -61 22 -160 -129 -244
-183 -394 -250 l-90 -40 -193 -4 c-212 -4 -215 -3 -231 56 -13 46 2 116 46
212 19 41 40 86 45 100 10 23 12 20 24 -38 18 -83 39 -125 80 -162 43 -37 133
-64 186 -56 87 14 204 93 258 174 36 54 40 115 14 218 -9 36 -14 67 -12 70 9
9 159 -55 298 -127 l134 -70 73 11 c162 25 395 -28 528 -120 96 -66 122 -153
70 -231 l-25 -39 1774 -2 1775 -3 -54 -84 c-30 -46 -55 -94 -55 -107 0 -13 -4
-24 -10 -24 -6 0 -10 -52 -10 -135 0 -83 -4 -135 -10 -135 -7 0 -10 -427 -10
-1260 0 -1253 0 -1260 -20 -1260 -17 0 -20 -7 -20 -45 l0 -45 -4760 0 -4760 0
0 1425 0 1425 45 0 c38 0 45 3 45 20 0 19 13 19 653 22 593 3 656 5 696 21 62
24 108 62 142 115 32 50 36 93 14 132 -8 14 -14 28 -15 31 0 4 34 30 75 58 41
29 75 54 75 56 0 3 -11 29 -25 60 -37 84 -91 258 -117 375 -20 93 -22 133 -22
340 0 205 2 247 21 333 68 300 197 540 398 742 230 232 535 375 880 416 97 11
332 3 440 -15z m5700 -1342 c93 -39 450 -217 472 -236 10 -8 13 -86 13 -344
l0 -334 -1530 0 c-1309 0 -1535 2 -1559 14 -15 8 -47 38 -72 68 -176 210 -331
287 -622 308 -150 11 -182 19 -261 63 -42 23 -62 41 -67 59 -16 61 37 199 93
241 25 19 26 19 114 -13 351 -125 530 -175 769 -214 264 -44 355 -51 685 -51
332 0 451 9 691 51 392 68 675 174 934 348 l130 88 60 -5 c38 -3 94 -19 150
-43z M4141 5739 c-160 -27 -336 -112 -486 -232 -112 -90 -145 -145 -125 -209
15 -53 57 -95 103 -103 64 -12 81 -3 222 116 98 82 276 159 370 159 95 0 163
116 117 200 -35 63 -102 86 -201 69z M2965 4891 c-170 -44 -309 -119 -450
-241 -74 -64 -109 -122 -101 -169 11 -70 71 -121 141 -121 44 0 67 13 135 75
120 110 275 186 411 201 48 5 69 13 95 36 68 60 67 147 -2 208 -31 27 -41 30
-97 29 -34 0 -93 -9 -132 -18z"/>
</g>
</svg>
