<?xml version="1.0" standalone="no"?>
<!DOCTYPE svg PUBLIC "-//W3C//DTD SVG 20010904//EN"
 "http://www.w3.org/TR/2001/REC-SVG-20010904/DTD/svg10.dtd">
<svg version="1.0" xmlns="http://www.w3.org/2000/svg"
 width="2048.000000pt" height="2048.000000pt" viewBox="0 0 2048.000000 2048.000000"
 preserveAspectRatio="xMidYMid meet">
<metadata>
Created by potrace 1.13, written by Peter Selinger 2001-2015
</metadata>
<g transform="translate(0.000000,2048.000000) scale(0.192120,-0.192120)"
fill="#000000" stroke="none">
<path d="M4010 10300 c-181 -25 -423 -94 -576 -165 -220 -101 -352 -259 -362
-434 -5 -91 9 -150 47 -194 28 -32 28 -33 19 -112 -14 -117 -3 -389 22 -530
57 -334 182 -565 348 -647 61 -30 74 -33 157 -32 49 1 151 12 225 24 187 31
181 31 196 -10 7 -19 13 -48 13 -65 l1 -30 -348 0 c-330 0 -350 -1 -417 -22
-176 -55 -324 -209 -370 -384 -8 -30 -15 -66 -15 -82 0 -21 -10 -34 -47 -60
-199 -138 -322 -243 -445 -381 -217 -244 -361 -528 -430 -846 -20 -93 -22
-134 -22 -350 -1 -260 6 -320 60 -533 45 -180 72 -251 110 -295 104 -122 294
-131 406 -19 81 81 102 190 60 317 -60 184 -86 339 -86 525 0 159 13 249 56
385 86 271 282 525 544 708 l32 22 58 -30 c67 -34 161 -60 216 -60 l37 0 3
-617 3 -618 25 -65 c14 -36 185 -330 380 -655 195 -324 363 -605 372 -622 18
-32 17 -37 -103 -635 -138 -689 -141 -719 -91 -858 15 -41 99 -217 186 -390
150 -296 163 -319 225 -381 72 -71 171 -126 270 -149 78 -18 231 -8 306 20
282 107 431 412 339 694 -9 28 -63 144 -120 257 l-103 206 45 219 c24 120 51
251 59 289 66 301 145 743 145 807 0 141 -33 219 -219 518 -60 96 -108 176
-107 177 1 1 141 -54 311 -123 171 -69 335 -135 365 -146 30 -11 56 -21 57
-22 1 -1 74 -181 161 -401 321 -805 329 -824 376 -890 25 -34 74 -84 108 -110
79 -59 682 -360 763 -380 187 -47 392 12 528 153 104 108 157 235 157 373 0
166 -51 293 -164 405 -66 65 -87 79 -290 181 l-219 109 -20 50 c-10 27 -29 76
-42 109 -12 33 -58 146 -100 250 -43 105 -106 262 -140 350 -190 483 -214 533
-301 620 -81 81 -116 97 -726 340 l-498 198 0 367 0 367 52 5 52 5 121 -114
c302 -290 629 -510 930 -628 178 -70 462 -117 569 -95 254 53 304 390 76 514
-43 23 -70 30 -159 37 -134 11 -255 45 -398 114 -191 91 -413 252 -618 447
l-98 94 12 34 c6 19 15 69 18 110 16 208 -113 433 -301 526 -121 59 -165 64
-602 64 -345 0 -393 2 -398 16 -3 8 -14 69 -23 135 -11 75 -22 119 -29 119
-20 0 -114 -79 -135 -113 -40 -67 -15 -132 69 -182 29 -16 51 -34 51 -40 0 -5
-30 -43 -67 -82 l-67 -73 -155 85 c-85 47 -159 90 -164 95 -7 7 2 20 25 40 20
16 42 43 49 59 11 27 10 37 -8 74 -24 51 -102 131 -152 157 -60 30 -96 32
-251 15 -141 -16 -153 -16 -195 0 -163 62 -274 350 -290 750 -7 169 -14 188
-106 274 -21 19 -38 40 -38 47 0 20 79 82 145 114 67 33 176 52 244 42 l44 -7
96 -287 c95 -286 96 -288 124 -288 41 0 71 39 96 126 28 96 42 118 100 152 83
49 193 33 259 -36 40 -44 75 -130 75 -192 1 -57 -9 -85 -74 -200 -30 -53 -31
-58 -27 -155 5 -115 25 -169 89 -235 40 -41 126 -90 194 -109 52 -15 169 -25
202 -17 38 10 119 91 168 170 210 338 277 777 167 1096 -44 127 -103 221 -206
329 -149 155 -300 245 -491 292 -93 23 -305 33 -405 19z m375 -319 c189 -48
372 -183 448 -331 l37 -72 0 -269 c0 -261 -1 -270 -26 -351 -71 -225 -173
-333 -280 -298 -51 17 -64 43 -64 130 0 59 7 96 31 165 28 80 31 98 27 176 -4
78 -9 97 -46 172 -33 68 -57 99 -113 151 -128 118 -245 137 -390 63 -41 -20
-79 -37 -85 -37 -19 0 -41 32 -88 126 -44 89 -99 152 -195 225 -42 33 -36 61
18 83 58 23 217 62 302 75 40 6 85 13 99 15 55 10 248 -4 325 -23z m-55 -2127
c107 -47 152 -52 215 -24 80 36 110 40 163 23 37 -13 126 -17 417 -23 309 -6
379 -10 424 -24 74 -24 126 -59 155 -104 23 -35 24 -49 31 -239 4 -111 4 -212
0 -224 -7 -21 -10 -21 -125 -14 -144 8 -162 2 -268 -99 -117 -111 -112 -88
-112 -513 0 -235 4 -363 10 -363 6 0 10 -8 10 -19 0 -58 162 -230 263 -279 34
-17 237 -101 450 -186 418 -168 507 -209 554 -259 17 -18 63 -93 103 -167 40
-74 78 -142 85 -150 28 -34 87 -154 148 -300 80 -193 103 -261 111 -325 21
-166 142 -378 276 -478 33 -25 121 -78 195 -118 74 -39 153 -87 175 -106 81
-69 130 -234 101 -340 -27 -100 -155 -189 -290 -200 -123 -10 -192 16 -389
145 -64 42 -179 111 -255 152 -192 104 -221 136 -323 365 -25 54 -51 106 -58
115 -50 56 -150 270 -286 611 -86 215 -103 245 -189 329 -159 157 -530 340
-687 340 -69 0 -106 -16 -171 -74 -96 -86 -123 -171 -87 -276 27 -78 84 -182
143 -258 105 -137 101 -123 101 -326 0 -168 -2 -191 -36 -350 -21 -103 -55
-225 -85 -307 -70 -191 -109 -389 -109 -546 0 -141 3 -153 112 -386 37 -81 80
-181 93 -222 29 -84 33 -186 11 -240 -24 -56 -91 -120 -159 -151 -55 -26 -73
-29 -162 -29 -187 1 -217 32 -436 468 -60 120 -124 257 -141 305 -30 80 -33
99 -36 233 l-4 147 102 503 c123 606 121 585 38 759 -30 63 -178 322 -330 575
-302 504 -318 533 -318 568 0 14 -7 44 -15 67 -13 36 -15 127 -15 576 0 344
-4 535 -10 539 -5 3 -10 15 -10 26 0 10 -4 19 -9 19 -5 0 -12 11 -15 25 -9 34
-161 187 -212 213 -49 25 -199 69 -280 82 -66 11 -104 42 -104 86 0 13 17 57
38 96 22 40 47 94 57 121 36 95 125 166 246 198 24 6 170 14 324 18 249 7 286
10 335 29 103 39 123 38 240 -14z m-1277 -633 l35 -49 -74 -11 c-91 -13 -118
-27 -213 -105 -183 -152 -376 -475 -436 -731 -12 -54 -15 -144 -15 -481 0
-274 -3 -413 -10 -409 -6 4 -10 201 -10 559 0 476 2 559 15 592 62 155 152
285 324 471 164 177 198 218 241 291 l42 74 33 -76 c18 -41 49 -97 68 -125z
m2912 -101 c29 -57 142 -191 208 -248 57 -49 145 -115 266 -199 25 -18 53 -37
61 -43 8 -6 21 -15 29 -19 7 -5 12 -14 10 -19 -3 -7 -21 -3 -49 10 -25 12 -48
20 -52 20 -5 -1 -8 3 -8 10 0 6 -3 8 -6 5 -4 -3 -16 -1 -28 5 -62 32 -265 162
-360 232 -107 77 -239 147 -303 161 -18 4 -33 10 -33 14 0 4 27 26 59 49 33
23 81 66 108 96 l48 55 16 -47 c9 -27 24 -63 34 -82z m592 -542 c-3 -8 -6 -5
-6 6 -1 11 2 17 5 13 3 -3 4 -12 1 -19z m20 -10 c-3 -8 -6 -5 -6 6 -1 11 2 17
5 13 3 -3 4 -12 1 -19z m20 -10 c-3 -8 -6 -5 -6 6 -1 11 2 17 5 13 3 -3 4 -12
1 -19z M10275 8847 c-314 -577 -791 -1244 -1303 -1822 -156 -176 -672 -690
-857 -855 -419 -372 -1045 -853 -1145 -880 l-44 -12 24 -18 c29 -22 87 -40
127 -40 36 0 76 29 108 80 l23 37 159 31 c735 146 1533 229 1832 191 145 -18
176 -42 174 -134 -3 -139 -159 -377 -424 -649 -65 -66 -117 -121 -116 -122 1
-1 43 2 92 7 203 18 472 6 635 -27 100 -21 188 -62 228 -108 28 -32 32 -43 26
-70 -17 -78 -103 -194 -279 -375 -627 -644 -1922 -1616 -2925 -2196 -810 -468
-1761 -800 -2680 -935 -268 -39 -436 -52 -757 -57 -430 -7 -706 16 -978 81
-156 38 -162 42 -80 50 270 29 467 83 785 216 252 105 1372 596 1440 630 67
34 117 84 130 131 11 36 14 119 4 119 -15 0 -2367 -1026 -2457 -1072 l-39 -19
-71 27 c-214 80 -378 197 -432 308 -32 66 -43 173 -26 272 16 95 75 272 124
374 42 84 42 85 102 108 49 20 2021 881 2273 993 l73 32 -32 33 c-18 18 -47
40 -65 49 -61 29 -99 22 -264 -50 -85 -37 -213 -91 -285 -120 -259 -105 -1013
-438 -1151 -509 -187 -97 -345 -203 -512 -344 l-63 -53 31 61 c106 210 419
609 674 859 l75 75 51 -13 c74 -19 114 -16 173 13 50 25 90 54 479 352 100 77
212 161 248 186 100 69 278 188 284 188 2 0 40 22 83 49 219 136 320 218 408
332 50 63 92 145 82 156 -10 9 -64 -18 -267 -130 -458 -253 -895 -555 -1245
-860 -65 -56 -133 -115 -152 -131 -78 -65 -1046 -285 -1701 -387 -145 -22
-510 -69 -540 -69 -2 0 -1 -345 1 -768 3 -749 4 -769 25 -857 33 -133 59 -210
108 -308 160 -324 427 -510 799 -556 128 -16 8002 -16 8130 0 502 62 824 389
916 929 19 113 19 190 17 3892 l-3 3777 -50 -92z m-230 -7689 c-8 -32 -24 -78
-35 -103 -11 -24 -20 -47 -20 -50 0 -4 -21 -39 -46 -78 -110 -172 -252 -267
-479 -320 l-90 -22 -3975 -3 c-2805 -2 -4007 0 -4082 8 -199 20 -372 88 -491
192 -87 76 -161 193 -213 334 l-29 79 -3 696 -3 696 93 12 c171 21 635 101
898 155 143 29 262 51 265 48 12 -13 3 -50 -22 -87 -52 -78 -219 -312 -314
-440 -116 -158 -166 -249 -216 -397 -37 -112 -37 -114 -41 -302 -2 -108 1
-198 6 -210 5 -12 18 -41 28 -66 72 -171 233 -334 424 -427 134 -66 198 -83
369 -99 86 -8 181 -19 211 -24 326 -57 850 -76 1221 -46 1037 84 2068 398
3016 917 1081 592 2643 1777 3262 2473 117 132 221 315 221 390 0 90 -141 267
-266 333 -56 30 -245 83 -294 83 -12 0 -25 10 -32 25 -10 23 -5 39 50 148 81
159 102 223 102 307 0 87 -32 160 -107 241 -71 76 -121 105 -203 118 -143 23
-537 6 -929 -40 -97 -11 -216 -21 -266 -22 -137 -3 -133 8 62 179 682 600
1233 1207 1753 1934 72 102 144 199 158 215 l27 30 3 -3410 c2 -2989 0 -3417
-13 -3467z M9070 5470 c-182 -40 -514 -150 -750 -249 -52 -21 -284 -122 -515
-223 -368 -162 -426 -190 -466 -229 -25 -24 -54 -57 -63 -72 -20 -32 -58 -138
-52 -144 2 -2 26 5 54 16 70 28 1857 810 1962 859 84 39 85 40 57 51 -40 16
-129 12 -227 -9z M5490 4915 c-58 -17 -115 -37 -125 -43 -18 -10 -15 -13 30
-33 95 -42 175 -38 200 11 16 30 20 86 8 93 -5 2 -55 -10 -113 -28z M9705
4414 c-136 -59 -1576 -689 -1647 -721 -43 -20 -78 -39 -78 -44 0 -14 80 -71
115 -80 31 -9 54 -4 171 36 127 43 391 152 664 275 331 148 777 431 833 529
22 37 19 37 -58 5z M5884 4134 c-74 -19 -241 -90 -295 -125 -54 -34 -234 -218
-262 -268 l-18 -31 48 19 c69 27 592 255 695 303 48 22 85 44 83 48 -10 16
-96 50 -148 58 -38 6 -70 5 -103 -4z M6895 3185 c-16 -8 -320 -141 -675 -296
-355 -155 -667 -292 -694 -306 l-48 -24 23 -26 c31 -32 74 -54 124 -64 43 -8
102 13 425 151 80 33 183 77 230 97 47 19 177 76 289 126 355 156 391 185 391
308 0 55 -10 60 -65 34z"/>
</g>
</svg>
