<?xml version="1.0" standalone="no"?>
<!DOCTYPE svg PUBLIC "-//W3C//DTD SVG 20010904//EN"
 "http://www.w3.org/TR/2001/REC-SVG-20010904/DTD/svg10.dtd">
<svg version="1.0" xmlns="http://www.w3.org/2000/svg"
 width="2048.000000pt" height="2048.000000pt" viewBox="0 0 2048.000000 2048.000000"
 preserveAspectRatio="xMidYMid meet">
<metadata>
Created by potrace 1.13, written by Peter Selinger 2001-2015
</metadata>
<g transform="translate(0.000000,2048.000000) scale(0.192120,-0.192120)"
fill="#000000" stroke="none">
<path d="M5805 9814 c-434 -32 -800 -122 -1315 -321 -588 -227 -1029 -360
-1495 -448 -353 -66 -629 -93 -1097 -104 -294 -8 -329 -10 -393 -31 -248 -79
-431 -252 -648 -612 -88 -147 -307 -584 -335 -670 -43 -132 -47 -248 -11 -295
24 -32 54 -53 75 -53 12 0 27 -7 35 -16 21 -25 65 -44 104 -44 90 0 173 71
410 356 347 415 553 567 818 605 120 18 222 2 437 -66 233 -74 310 -89 429
-83 98 5 177 27 326 91 33 14 98 34 145 44 124 26 510 24 850 -6 350 -31 727
-38 885 -17 251 33 419 98 544 212 l41 36 0 -113 c1 -338 46 -965 100 -1379
88 -666 237 -1211 410 -1497 22 -36 40 -68 40 -72 0 -4 -15 -25 -34 -47 -81
-94 -209 -316 -307 -529 -66 -142 -112 -258 -189 -475 -75 -210 -127 -317
-179 -369 -85 -85 -162 -54 -247 100 l-35 64 6 -45 c16 -113 43 -162 101 -186
101 -42 237 15 339 143 58 73 115 191 201 413 83 217 187 436 286 600 133 222
148 258 148 344 0 63 -12 103 -70 231 -239 530 -379 1320 -430 2423 -14 289
-30 354 -110 426 -58 52 -97 50 -263 -18 -202 -82 -299 -102 -557 -112 -156
-7 -403 4 -725 32 -256 22 -582 29 -700 15 -118 -14 -196 -34 -360 -92 -109
-39 -130 -43 -235 -46 -125 -5 -163 3 -470 94 -120 35 -132 36 -280 37 -182 1
-244 -14 -397 -94 -189 -99 -371 -262 -622 -557 -194 -228 -246 -273 -316
-273 -73 0 -89 113 -34 248 16 43 71 156 121 252 239 463 401 666 618 775 117
58 164 65 506 75 414 12 643 32 939 81 518 87 976 217 1590 454 463 178 805
273 1145 316 147 19 551 17 648 -3 63 -13 72 -13 72 0 0 19 37 10 116 -28 76
-37 126 -95 154 -181 58 -171 167 -359 392 -676 264 -370 359 -518 432 -674
78 -165 105 -270 216 -820 151 -751 239 -1043 400 -1333 57 -104 151 -221 215
-271 133 -102 208 -131 420 -165 344 -54 496 -140 1173 -657 91 -69 264 -185
295 -196 9 -3 17 -15 17 -26 0 -11 9 -25 20 -31 19 -10 20 -21 20 -240 0 -147
4 -230 10 -230 6 0 10 -33 10 -80 0 -47 4 -80 10 -80 6 0 10 -10 10 -21 0 -31
22 -99 32 -99 4 0 8 -4 8 -10 0 -5 14 -31 30 -57 l30 -47 0 495 0 495 -50 18
c-72 26 -249 147 -515 350 -385 296 -610 436 -809 505 -102 36 -233 61 -316
61 -166 0 -333 110 -456 300 -159 246 -261 575 -409 1320 -123 619 -162 763
-256 939 -67 125 -183 307 -322 504 -299 422 -351 500 -407 612 -50 98 -62
134 -70 193 -6 51 -16 85 -34 112 -63 95 -252 178 -482 210 -81 11 -324 20
-399 14z M2770 6835 c-343 -47 -630 -177 -834 -379 -46 -44 -104 -111 -130
-148 -85 -121 -181 -337 -241 -543 -68 -237 -92 -555 -60 -805 60 -475 277
-911 579 -1167 l49 -41 -70 -46 -69 -46 -832 2 -832 3 0 -1667 0 -1668 5000 0
5000 0 0 1668 0 1667 -1587 -3 c-874 -1 -1686 -1 -1806 0 l-218 3 26 34 c32
44 34 109 4 157 -67 110 -293 196 -514 197 -166 1 -255 -30 -362 -124 -111
-98 -285 -200 -427 -249 -51 -17 -84 -20 -237 -20 l-179 0 -16 25 c-29 44 -14
142 39 262 55 121 66 185 43 235 -24 51 -67 71 -161 76 -191 10 -518 -92 -942
-292 -98 -47 -207 -94 -243 -106 -226 -76 -310 2 -251 232 22 86 91 258 150
376 51 102 67 162 51 192 -34 63 -234 -22 -605 -259 -169 -108 -488 -322 -675
-453 l-125 -88 -23 48 c-34 72 -98 275 -124 392 -20 93 -22 132 -22 340 0 258
10 330 73 520 164 489 581 850 1095 949 427 83 903 -20 1289 -279 59 -39 129
-92 157 -118 l50 -47 -11 -45 c-15 -62 -7 -107 51 -288 59 -186 87 -341 100
-552 11 -192 25 -271 54 -330 25 -48 126 -198 126 -186 0 4 -9 57 -20 119 -25
146 -40 295 -40 416 -1 255 -68 528 -196 798 -153 321 -430 635 -776 876 -221
154 -463 280 -618 322 -198 53 -477 69 -690 40z m416 -266 c186 -19 412 -89
464 -143 l22 -24 -21 -11 c-11 -6 -76 -16 -143 -21 -274 -22 -475 -79 -706
-200 -140 -74 -242 -151 -378 -285 -152 -150 -235 -263 -323 -435 -127 -250
-184 -468 -198 -768 -3 -73 -10 -135 -15 -138 -14 -9 -53 37 -75 91 -67 160
-67 160 -71 544 -3 299 -1 366 13 435 39 191 133 415 225 538 227 300 709 467
1206 417z m154 -2288 c7 -14 6 -40 -5 -91 -8 -39 -15 -118 -15 -175 0 -126 14
-158 111 -256 146 -147 242 -139 684 61 226 102 482 194 623 225 25 5 32 3 32
-9 0 -12 10 -16 41 -16 l40 0 -7 -158 c-8 -184 -5 -194 83 -279 95 -91 119
-98 328 -98 172 0 184 1 260 28 112 40 224 98 338 175 225 155 290 180 429
168 97 -8 209 -41 215 -64 2 -10 16 -24 31 -33 18 -10 32 -30 40 -57 9 -29 31
-58 83 -106 104 -96 135 -108 303 -117 78 -4 813 -8 1634 -8 1485 -1 1492 -1
1492 -21 0 -13 7 -20 20 -20 20 0 20 -7 20 -1390 0 -1383 0 -1390 -20 -1390
-17 0 -20 -7 -20 -45 l0 -45 -4760 0 -4760 0 0 1425 0 1425 45 0 c38 0 45 3
45 20 0 20 7 20 613 20 616 0 708 5 771 37 121 62 197 188 151 249 -8 10 -15
24 -15 30 0 11 109 89 115 82 1 -2 10 -18 19 -35 27 -53 110 -59 196 -13 32
17 281 176 540 346 132 86 207 129 211 122 5 -8 17 -5 41 10 40 26 35 26 48 3z
M4125 5736 c-178 -35 -345 -119 -502 -254 -79 -68 -108 -121 -97 -178 9 -48
61 -101 107 -109 64 -12 81 -3 222 116 98 82 276 159 370 159 92 0 160 109
120 194 -35 74 -100 95 -220 72z M2960 4890 c-173 -48 -307 -120 -445 -240
-74 -64 -109 -122 -101 -169 11 -70 71 -121 141 -121 45 0 65 11 147 84 112
101 268 175 402 191 139 17 191 156 90 245 -32 27 -41 30 -102 29 -37 0 -96
-9 -132 -19z"/>
</g>
</svg>
