<?xml version="1.0" standalone="no"?>
<!DOCTYPE svg PUBLIC "-//W3C//DTD SVG 20010904//EN"
 "http://www.w3.org/TR/2001/REC-SVG-20010904/DTD/svg10.dtd">
<svg version="1.0" xmlns="http://www.w3.org/2000/svg"
 width="2048.000000pt" height="2048.000000pt" viewBox="0 0 2048.000000 2048.000000"
 preserveAspectRatio="xMidYMid meet">
<metadata>
Created by potrace 1.13, written by Peter Selinger 2001-2015
</metadata>
<g transform="translate(0.000000,2048.000000) scale(0.192120,-0.192120)"
fill="#000000" stroke="none">
<path d="M3925 10280 c-198 -35 -467 -120 -561 -176 -134 -80 -244 -228 -279
-375 -27 -114 -15 -216 29 -244 20 -14 22 -20 15 -67 -11 -79 -10 -282 1 -399
42 -406 182 -705 377 -801 58 -28 75 -32 147 -31 44 0 152 13 240 27 87 15
164 25 172 22 7 -3 19 -26 27 -52 l13 -46 37 35 c48 45 49 80 5 138 -76 99
-121 107 -373 69 -129 -19 -156 -12 -229 63 -34 34 -75 89 -92 122 -64 121
-112 312 -136 543 -6 61 -15 112 -20 112 -4 0 -8 9 -8 19 0 11 -3 21 -7 23 -5
2 -21 23 -37 48 -16 25 -46 66 -68 91 -21 26 -38 50 -38 53 0 3 32 6 71 6 45
0 120 12 203 31 180 43 271 39 378 -14 98 -49 171 -114 195 -175 15 -39 18
-76 18 -210 0 -89 3 -155 7 -145 4 10 25 81 48 158 50 173 66 211 101 236 86
61 189 -31 189 -170 0 -106 -61 -223 -124 -239 -25 -7 -32 -14 -34 -40 -7 -70
80 -224 186 -329 109 -109 293 -179 388 -150 78 24 199 183 260 342 16 41 31
75 34 74 3 0 25 -26 50 -58 162 -208 415 -305 751 -287 375 19 648 143 860
389 68 80 229 310 229 329 0 5 -19 -7 -42 -27 -97 -83 -251 -134 -401 -135
-194 0 -327 56 -572 240 -88 66 -190 136 -226 155 -72 37 -170 65 -235 65 -61
0 -185 -35 -263 -74 l-68 -34 -6 68 c-9 107 -35 197 -87 305 -125 256 -389
458 -683 520 -95 21 -316 18 -442 -5z m463 -300 c238 -67 414 -226 477 -430
47 -155 154 -303 262 -367 50 -29 89 -29 252 2 155 28 230 1 471 -170 80 -56
169 -117 198 -135 29 -18 52 -39 52 -49 0 -43 -119 -70 -313 -71 -207 0 -328
37 -484 151 -105 76 -187 119 -227 119 -61 0 -176 -92 -303 -242 -36 -42 -78
-82 -94 -88 -66 -28 -152 11 -207 91 -29 42 -26 66 22 179 33 79 36 92 36 191
0 94 -3 113 -26 164 -32 70 -139 186 -197 214 -48 23 -74 26 -177 16 l-75 -7
-65 49 c-88 67 -125 88 -206 120 -64 25 -80 27 -224 28 l-155 1 0 24 c0 35 66
81 172 120 109 40 327 96 424 109 113 15 301 6 387 -19z M10275 8847 c-145
-265 -429 -710 -631 -987 -352 -483 -636 -813 -1083 -1261 -468 -467 -834
-781 -1361 -1164 -187 -136 -193 -140 -261 -150 l-45 -7 -48 124 c-72 182
-112 253 -182 323 -81 81 -115 97 -726 340 l-498 198 0 367 0 367 78 7 c159
14 338 138 419 291 35 67 32 72 53 -65 15 -93 38 -147 93 -218 93 -121 212
-218 414 -340 146 -87 353 -166 491 -187 74 -11 97 -21 100 -43 2 -14 -3 -25
-14 -29 -22 -8 -199 13 -279 34 -33 8 -67 17 -75 18 -8 2 -15 4 -15 5 0 1 -9
3 -20 5 -37 7 -169 65 -265 117 -86 45 -202 121 -422 272 -42 29 -105 62 -140
74 -85 28 -220 54 -255 50 l-28 -3 40 -44 c50 -56 245 -227 355 -312 188 -146
432 -289 625 -364 178 -70 462 -117 569 -95 149 31 249 180 217 324 -31 137
-143 226 -288 226 -275 0 -641 202 -1046 576 l-77 70 15 70 c20 94 19 156 -5
249 -53 209 -216 366 -425 410 -55 11 -156 15 -462 15 l-392 0 -102 -105 c-56
-58 -106 -105 -111 -105 -5 0 -95 48 -201 106 l-192 105 -350 -3 c-327 -4
-354 -6 -416 -26 -181 -60 -338 -234 -371 -409 -5 -32 -12 -67 -14 -78 -2 -11
-21 -30 -42 -42 -118 -67 -318 -236 -439 -371 -463 -521 -582 -1170 -348
-1910 40 -125 121 -200 237 -217 139 -21 281 82 308 223 11 58 5 94 -33 224
-111 375 -96 717 47 1013 92 190 219 345 410 498 l90 72 -55 8 c-80 12 -197 4
-244 -18 -53 -24 -197 -171 -262 -266 -66 -96 -164 -292 -193 -384 -45 -147
-50 -195 -50 -460 0 -231 2 -265 25 -377 45 -223 24 -329 -53 -258 -37 34 -49
61 -76 157 -26 92 -26 93 -26 485 0 385 1 395 24 473 65 218 179 408 357 593
43 45 79 87 79 93 0 6 23 38 51 70 48 55 106 161 160 293 l24 59 11 -69 c33
-191 140 -344 295 -422 72 -36 165 -62 221 -62 l37 0 3 -617 3 -618 25 -65
c14 -36 185 -331 380 -655 195 -324 356 -594 358 -600 1 -6 -37 -30 -85 -54
-464 -228 -1062 -628 -1458 -974 -205 -179 -151 -154 -543 -251 -497 -122
-892 -203 -1335 -271 -125 -19 -488 -65 -515 -65 -2 0 -1 -345 1 -768 3 -749
4 -769 25 -857 33 -133 59 -210 108 -308 160 -324 427 -510 799 -556 128 -16
8002 -16 8130 0 502 62 824 389 916 929 19 113 19 190 17 3892 l-3 3777 -50
-92z m-177 -4232 l-3 -3390 -31 -90 c-54 -153 -125 -260 -234 -355 -131 -112
-265 -165 -485 -189 -138 -16 -7910 -17 -8039 -1 -221 26 -403 103 -511 218
-65 68 -139 194 -181 308 l-29 79 -3 698 -3 697 25 0 c37 0 56 10 56 30 0 14
12 19 58 25 234 28 882 148 892 166 4 6 85 28 181 49 204 45 210 48 397 133
165 76 168 90 -21 -122 -134 -152 -244 -290 -358 -452 l-89 -127 -58 -7 c-88
-10 -130 -35 -212 -121 -98 -103 -148 -203 -195 -394 -16 -61 -21 -378 -7
-408 71 -146 79 -157 167 -246 106 -105 223 -181 379 -247 159 -66 223 -57
336 48 l57 53 84 -15 c421 -75 952 -86 1459 -29 827 91 1794 388 2550 781
1041 542 2566 1660 3298 2418 111 115 146 145 178 154 103 28 234 154 234 225
0 38 -56 132 -118 198 -103 109 -180 148 -354 183 -45 9 -91 19 -100 21 -30 9
-21 59 23 137 67 118 119 257 119 318 0 48 -36 114 -100 182 -87 93 -129 103
-208 48 -24 -17 -51 -20 -267 -25 -378 -8 -776 -52 -1369 -152 -115 -19 -216
-33 -225 -31 -9 2 15 19 55 39 170 87 410 242 544 351 291 237 794 720 1088
1046 92 101 194 212 227 246 33 34 80 90 105 124 25 34 79 106 120 159 102
131 267 350 378 502 108 147 121 163 147 178 16 9 22 8 33 -5 10 -14 12 -697
10 -3408z m-5954 3214 c21 -6 76 -28 122 -49 113 -53 186 -73 233 -65 20 3 72
26 115 50 43 25 94 50 114 56 25 7 156 9 402 7 394 -5 423 -8 510 -63 75 -47
80 -63 80 -243 0 -97 -4 -163 -10 -167 -5 -3 -10 -15 -10 -25 0 -30 -52 -59
-137 -76 -43 -9 -91 -23 -107 -31 -42 -22 -196 -173 -202 -200 -4 -12 -10 -23
-15 -23 -5 0 -9 -162 -9 -375 0 -243 4 -375 10 -375 6 0 10 -8 10 -19 0 -58
162 -230 263 -279 34 -17 237 -101 450 -186 418 -167 507 -209 555 -259 16
-18 59 -86 94 -152 100 -190 244 -325 346 -325 20 0 31 4 27 10 -14 22 -15 64
-3 71 7 5 33 9 58 9 26 0 67 10 98 25 30 14 58 23 63 20 4 -3 34 8 66 24 191
96 357 138 768 192 133 17 161 18 168 7 7 -11 28 -11 113 -3 58 6 107 9 109 6
29 -28 -45 -85 -242 -185 -59 -30 -279 -129 -488 -221 -209 -91 -399 -177
-421 -190 -23 -14 -61 -47 -84 -75 -42 -50 -42 -50 -59 -29 -17 21 -17 20 -63
-47 -68 -103 -71 -111 -65 -174 9 -103 71 -218 175 -324 71 -72 104 -95 265
-181 174 -93 194 -112 263 -250 39 -77 76 -135 116 -179 63 -70 82 -79 93 -45
5 14 12 18 23 14 10 -4 26 -9 37 -12 11 -2 36 -9 55 -14 49 -15 113 8 492 171
238 101 305 127 312 116 7 -10 30 -4 112 32 114 50 149 52 118 5 -9 -15 -81
-91 -158 -169 -160 -160 -489 -428 -691 -562 -71 -48 -202 -139 -290 -203 -88
-63 -205 -146 -260 -183 -83 -57 -225 -165 -245 -186 -32 -35 -330 -232 -595
-393 -190 -115 -894 -461 -1134 -557 -508 -203 -930 -332 -1391 -424 -488 -97
-1131 -150 -1410 -116 -162 20 -192 39 -127 78 17 11 374 169 792 352 764 334
857 376 907 412 27 19 73 82 119 165 26 47 34 50 84 29 19 -8 35 -11 35 -5 0
5 -4 9 -10 9 -6 0 -10 31 -10 74 0 91 -11 119 -207 511 -77 154 -155 323 -173
375 -46 134 -69 176 -143 252 l-64 67 -12 -25 -11 -25 -28 19 c-15 10 -34 21
-43 24 -32 12 -130 -16 -329 -94 -113 -44 -245 -96 -295 -115 -91 -35 -271
-111 -535 -223 -80 -34 -185 -79 -235 -100 -49 -21 -160 -68 -245 -105 -203
-88 -257 -106 -264 -89 -9 23 6 49 64 116 99 116 165 164 318 239 123 60 153
79 210 136 68 66 302 266 422 359 215 168 459 332 715 485 99 59 187 113 196
121 8 8 44 32 80 53 35 22 87 61 115 87 l51 48 -5 -47 -4 -48 32 30 c45 42
115 142 140 199 11 26 20 69 20 96 0 99 -48 193 -375 740 -299 499 -315 528
-315 563 0 14 -7 44 -15 67 -13 36 -15 127 -15 576 0 344 -4 535 -10 539 -5 3
-10 15 -10 26 0 10 -4 19 -9 19 -5 0 -12 11 -15 25 -8 31 -159 186 -204 209
-18 9 -71 30 -119 47 -91 32 -145 62 -178 99 -30 33 -33 147 -6 224 46 132
145 203 316 226 94 12 604 12 649 -1z m5226 -2399 c0 -101 -62 -224 -207 -411
-49 -62 -143 -169 -210 -238 -67 -69 -121 -126 -120 -127 1 -1 49 2 107 6 281
24 574 -1 734 -61 62 -23 151 -98 144 -121 -3 -7 -15 -19 -29 -26 -13 -7 -409
-181 -879 -386 -470 -206 -881 -386 -912 -400 l-58 -26 0 45 c0 130 -61 268
-164 371 -66 65 -87 79 -289 180 l-219 110 -38 93 c-38 92 -38 92 -17 101 67
28 2041 892 2087 913 30 14 58 26 63 26 4 1 7 -22 7 -49z m-5310 -2347 c0 -60
7 -96 28 -153 45 -125 326 -672 377 -734 45 -56 45 -56 23 -66 -13 -5 -581
-253 -1263 -551 -682 -298 -1248 -542 -1257 -541 -29 1 -187 69 -266 114 -89
50 -183 134 -217 192 -38 66 -51 159 -36 269 13 99 68 276 124 397 l35 76
1163 509 c640 279 1189 521 1219 536 30 15 58 28 63 29 4 0 7 -35 7 -77z
M5148 5367 c-46 -20 -135 -104 -162 -153 -18 -32 -26 -61 -26 -93 1 -135 149
-370 290 -461 37 -24 65 -33 110 -37 l61 -6 -6 45 -6 45 38 0 c84 -3 261 115
294 195 11 28 15 30 51 25 35 -5 38 -3 38 20 0 75 -106 215 -223 295 -155 106
-370 164 -459 125z m260 -285 l274 -110 -59 -16 c-32 -9 -114 -34 -183 -56
-68 -21 -125 -38 -126 -37 -1 1 -39 65 -86 142 -46 77 -93 153 -104 170 -14
22 -15 28 -4 23 8 -4 138 -56 288 -116z M6095 4300 c4 -6 9 -24 11 -39 5 -27
3 -28 -48 -34 -99 -10 -626 -232 -699 -294 -15 -13 -17 -10 -13 27 l4 41 -73
-60 c-145 -120 -206 -211 -241 -360 -40 -171 -48 -232 -44 -362 l3 -124 54
-120 c29 -66 81 -183 115 -260 76 -175 100 -216 169 -288 55 -56 77 -69 77
-44 0 27 21 36 48 21 15 -8 38 -14 52 -14 15 0 30 -4 36 -10 6 -6 41 2 97 20
135 46 1078 453 1222 528 92 49 186 137 214 202 12 28 25 48 30 46 4 -3 21 -7
37 -10 l30 -6 -6 53 c-3 31 -18 73 -35 102 -46 78 -179 203 -270 254 -295 163
-301 170 -411 415 -66 147 -188 277 -287 305 -23 7 -50 15 -61 18 -12 3 -16 1
-11 -7z m165 -423 c128 -320 160 -353 523 -532 l229 -112 -43 -17 c-47 -19
-1339 -584 -1452 -635 -38 -17 -70 -31 -71 -31 -2 0 -6 28 -9 63 -9 88 -31
145 -145 373 l-100 200 51 256 51 257 430 189 c237 105 437 190 444 189 7 -1
49 -91 92 -200z M4595 8318 c-49 -45 -58 -60 -58 -88 0 -23 7 -40 26 -55 29
-26 114 -61 123 -52 4 3 -2 61 -13 128 l-19 122 -59 -55z"/>
</g>
</svg>
