<?xml version="1.0" standalone="no"?>
<!DOCTYPE svg PUBLIC "-//W3C//DTD SVG 20010904//EN"
 "http://www.w3.org/TR/2001/REC-SVG-20010904/DTD/svg10.dtd">
<svg version="1.0" xmlns="http://www.w3.org/2000/svg"
 width="2048.000000pt" height="2048.000000pt" viewBox="0 0 2048.000000 2048.000000"
 preserveAspectRatio="xMidYMid meet">
<metadata>
Created by potrace 1.13, written by Peter Selinger 2001-2015
</metadata>
<g transform="translate(0.000000,2048.000000) scale(0.192120,-0.192120)"
fill="#000000" stroke="none">
<path d="M5560 10275 c-131 -37 -254 -130 -278 -211 -32 -109 -4 -306 70 -491
81 -203 203 -392 363 -560 46 -49 117 -133 158 -188 188 -252 437 -437 705
-524 139 -45 214 -56 382 -56 l155 0 70 35 c181 91 291 282 335 583 18 123 17
321 -3 393 -92 337 -378 666 -685 789 -124 50 -305 68 -449 45 -62 -10 -63
-10 -120 26 -83 54 -205 109 -308 139 -114 34 -308 44 -395 20z m672 -293 c65
-83 90 -93 277 -102 216 -11 316 -45 462 -156 128 -98 222 -215 297 -372 l47
-97 0 -170 c0 -161 -2 -176 -33 -282 -17 -62 -41 -133 -53 -157 -33 -72 -93
-132 -166 -168 -90 -44 -209 -50 -362 -18 -247 50 -444 171 -629 385 -154 178
-209 231 -297 279 -46 26 -91 56 -100 66 -41 46 -91 252 -80 335 18 148 147
304 341 415 68 39 210 98 240 99 6 1 31 -25 56 -57z m-537 17 c14 -21 -7 -58
-69 -125 -55 -59 -67 -67 -83 -58 -15 9 -18 24 -18 85 l0 74 50 17 c57 20 111
23 120 7z M3011 10028 c-68 -46 -111 -180 -78 -244 11 -22 53 -50 166 -111 83
-46 154 -83 159 -83 4 1 17 22 29 48 26 56 89 123 150 163 41 25 43 29 26 39
-84 50 -373 202 -393 206 -16 4 -37 -3 -59 -18z M3566 9860 c-32 -10 -63 -23
-68 -28 -6 -6 8 -25 36 -49 47 -41 116 -68 239 -93 40 -8 81 -27 130 -60 40
-27 99 -59 132 -71 32 -12 74 -31 93 -42 l35 -21 -7 40 c-20 105 -117 231
-222 286 -109 59 -256 74 -368 38z M3241 9513 c-15 -53 -14 -141 3 -195 9 -33
11 -61 5 -99 -34 -212 -31 -577 6 -809 59 -366 204 -670 423 -889 66 -65 166
-147 208 -169 20 -11 20 -10 11 51 -14 93 -41 155 -102 232 -240 305 -318 473
-376 810 -16 94 -19 166 -20 505 -1 217 -4 420 -9 450 -4 30 -8 51 -9 45 -1
-5 -7 1 -14 15 -12 24 -91 90 -107 90 -5 0 -14 -17 -19 -37z M4092 9454 c-78
-55 -93 -243 -24 -306 15 -14 88 -58 162 -98 74 -40 421 -232 770 -426 349
-193 655 -363 680 -377 808 -447 1484 -820 1945 -1076 319 -176 584 -322 589
-324 4 -1 -12 -45 -37 -97 -82 -172 -187 -515 -187 -610 1 -157 228 -342 477
-387 79 -15 88 -15 117 1 98 53 159 287 159 611 0 200 -17 328 -59 454 -34
103 -75 160 -148 208 -34 22 -574 323 -1201 670 -627 347 -1592 882 -2145
1188 -1186 658 -1053 585 -1065 585 -6 0 -21 -7 -33 -16z m4366 -2769 c8 -18
12 -114 12 -303 0 -259 -1 -279 -20 -310 -22 -36 -41 -36 -114 0 -72 37 -86
58 -86 136 0 81 39 231 97 370 56 132 86 161 111 107z M5443 9189 c-33 -87
-65 -301 -46 -312 12 -7 67 20 89 44 22 24 20 121 -4 239 l-18 85 -21 -56z
M3933 9024 l-41 -24 -7 -117 c-7 -109 -1 -280 12 -344 7 -36 154 -192 305
-326 116 -102 257 -213 271 -213 17 0 57 50 57 73 0 52 -51 124 -168 240 -133
131 -226 213 -294 260 -56 38 -68 66 -68 162 0 111 -12 315 -19 314 -3 -1 -25
-12 -48 -25z M4511 8764 c-47 -33 -14 -135 74 -230 14 -15 25 -23 25 -18 0 4
19 -10 43 -32 96 -93 329 -267 429 -323 85 -47 242 -94 476 -145 76 -16 112
-20 112 -12 0 6 -80 58 -178 116 -329 195 -610 394 -883 622 -51 42 -64 45
-98 22z M3860 8423 c-40 -27 -49 -45 -50 -91 -1 -144 156 -392 265 -418 38 -9
140 -3 152 10 3 3 -30 43 -73 90 -93 99 -164 212 -210 334 -18 48 -38 88 -46
90 -7 1 -24 -5 -38 -15z M7032 8192 c-104 -57 -131 -84 -132 -130 l0 -23 41
23 c46 25 174 140 190 169 5 11 8 19 7 19 -2 0 -50 -26 -106 -58z M4325 7948
c-52 -158 -276 -531 -403 -670 -25 -27 -25 -28 -7 -48 48 -53 301 -224 372
-251 13 -5 23 -13 23 -19 0 -5 -18 -53 -39 -105 -149 -357 -271 -927 -311
-1450 -11 -139 -52 -506 -100 -875 -11 -85 -27 -220 -35 -300 -9 -80 -36 -311
-60 -515 -24 -203 -63 -554 -86 -780 l-42 -409 27 -246 c51 -461 122 -937 189
-1265 20 -100 25 -111 54 -131 67 -45 175 -59 463 -59 218 0 277 4 333 18 153
39 217 85 217 157 0 21 -9 99 -20 172 -19 131 -62 469 -101 783 -11 88 -22
219 -25 290 -6 116 -3 144 21 260 49 241 140 572 200 731 14 37 23 69 20 72
-9 10 -80 -54 -98 -89 -13 -25 -17 -48 -13 -86 l5 -53 -98 0 -97 0 -82 -268
c-45 -147 -82 -272 -82 -279 0 -9 32 -13 110 -15 l109 -3 -32 -50 c-39 -60
-42 -111 -10 -172 l23 -43 -48 -2 c-26 -1 -65 -2 -87 -2 l-39 -1 -13 120 c-8
66 -16 126 -18 133 -5 15 -36 9 -70 -13 -11 -7 -24 -13 -30 -14 -5 -1 -14 -12
-18 -24 l-8 -22 -17 21 c-17 22 -91 64 -112 64 -16 0 -5 -188 13 -206 3 -3 20
1 38 10 18 9 38 16 46 16 7 0 16 7 19 15 9 22 21 18 28 -7 6 -24 61 -66 111
-84 30 -11 30 -12 47 -135 9 -68 22 -180 29 -247 l13 -124 78 4 c75 3 79 2 73
-17 -3 -11 -9 -45 -12 -76 -5 -50 -2 -63 24 -112 l31 -56 -27 -5 c-14 -3 -49
-8 -78 -11 -61 -8 -54 -20 -73 145 -6 58 -15 108 -19 113 -4 4 -28 -6 -54 -23
-26 -16 -52 -30 -57 -30 -5 0 -11 -8 -13 -17 -4 -17 -5 -17 -6 0 0 9 -8 17
-16 17 -8 0 -29 9 -47 20 -71 43 -77 31 -56 -120 13 -97 7 -93 86 -58 23 10
42 23 42 28 0 6 9 1 21 -11 12 -12 46 -32 78 -47 31 -14 57 -26 59 -27 4 -3
62 -476 62 -511 0 -29 -3 -35 -16 -30 -9 3 -40 9 -69 12 -48 6 -59 3 -110 -26
-31 -18 -59 -29 -63 -26 -8 9 -24 122 -53 374 l-24 202 -93 0 -94 0 6 -27 c10
-45 66 -501 66 -533 l0 -30 -72 36 c-63 32 -82 37 -140 36 -38 0 -68 3 -68 6
0 4 -11 93 -24 197 -14 105 -28 222 -31 262 l-7 72 -42 6 c-100 15 -95 12 -84
53 15 55 3 126 -32 188 l-32 55 44 -6 c110 -15 107 -14 112 -48 3 -18 11 -78
17 -135 7 -56 14 -102 17 -102 2 0 25 10 51 23 45 23 108 27 120 8 9 -12 68
-41 86 -41 16 0 16 -4 -5 147 -5 39 -10 74 -10 76 0 5 -60 -15 -77 -26 -16
-10 -52 6 -100 45 -22 19 -55 40 -71 47 -22 9 -32 21 -36 44 -6 35 -54 422
-58 476 -3 33 -5 35 -63 48 -90 20 -85 15 -69 70 17 53 12 120 -11 177 -8 19
-15 38 -15 41 0 8 35 6 89 -6 l49 -10 1 -97 c0 -53 4 -114 8 -134 l8 -37 44
19 c61 28 80 25 134 -19 46 -39 84 -58 93 -48 3 2 -1 57 -8 121 -13 126 -14
128 -73 102 -37 -16 -69 -3 -132 55 -24 22 -48 39 -54 39 -17 0 -7 98 35 330
19 107 38 210 42 228 5 27 4 32 -12 32 -11 0 -51 9 -91 21 l-71 21 29 46 c33
53 38 105 14 172 -8 24 -13 45 -11 48 3 2 46 -5 97 -17 51 -12 95 -18 99 -14
4 5 15 60 24 123 15 94 75 424 102 557 l6 31 -116 36 c-115 36 -133 49 -102
76 8 6 22 31 32 55 15 42 15 46 -6 110 -12 36 -20 68 -18 71 3 2 58 -12 124
-31 136 -40 144 -41 144 -17 0 16 81 485 84 489 1 2 27 -7 57 -19 30 -11 90
-31 134 -43 44 -13 79 -27 78 -31 -1 -5 -22 -114 -47 -243 -26 -129 -44 -236
-41 -239 15 -15 389 -71 400 -60 14 13 69 286 89 438 l7 46 57 -7 c31 -4 89
-8 127 -8 39 -1 76 -5 84 -10 27 -17 -66 -470 -101 -492 -7 -5 -21 -9 -31 -9
-22 0 -74 -34 -99 -64 -11 -13 -21 -17 -25 -11 -5 6 -30 25 -57 43 -37 24 -52
29 -57 20 -10 -18 -59 -189 -59 -205 0 -22 49 -5 113 39 l58 40 34 -35 c18
-19 42 -37 54 -40 21 -5 27 8 61 143 6 25 13 52 16 61 4 14 36 17 230 22 124
4 233 11 243 17 21 11 69 180 103 362 l22 116 70 7 c39 3 103 12 141 20 39 7
72 11 74 9 6 -5 -40 -250 -69 -366 l-28 -110 44 7 c24 3 44 3 44 0 0 -4 -20
-32 -44 -63 -68 -89 -205 -215 -399 -367 -99 -77 -185 -145 -193 -151 -8 -6
-14 -15 -14 -19 0 -18 75 7 194 64 70 34 129 61 131 61 15 0 127 59 164 87 24
18 47 30 52 27 5 -3 12 1 15 9 6 16 44 11 44 -5 0 -6 20 -39 45 -73 l44 -63
-29 -6 c-36 -7 -37 -11 -15 -242 19 -204 22 -224 41 -224 11 0 9 -10 -11 -45
-39 -66 -38 -142 2 -198 46 -64 83 -268 80 -437 -3 -160 13 -199 117 -297 128
-121 194 -222 220 -332 22 -94 62 -168 133 -243 35 -37 63 -76 63 -86 0 -10
-17 -34 -37 -53 -21 -19 -52 -52 -69 -73 l-31 -40 -55 82 -54 81 -77 -45 c-42
-24 -77 -49 -77 -54 0 -5 23 -43 50 -84 28 -41 50 -79 50 -85 0 -17 -88 -37
-142 -32 -26 2 -73 55 -114 130 -26 46 -76 105 -164 193 -141 142 -184 205
-224 328 -33 102 -79 175 -163 259 -85 84 -93 107 -93 250 0 164 -26 434 -48
511 -105 360 -113 378 -191 465 -34 37 -64 79 -68 93 -8 34 7 71 38 94 28 21
89 35 89 20 0 -5 16 -13 35 -19 l34 -11 52 97 c28 53 60 110 70 126 l18 30
-207 -2 -206 -2 -39 -128 c-42 -142 -141 -436 -167 -498 -15 -34 -24 -42 -62
-52 -29 -8 -61 -28 -92 -57 l-47 -45 -27 27 c-15 15 -39 35 -54 45 l-27 17
-36 -112 c-19 -61 -34 -113 -32 -114 9 -9 85 19 116 43 20 16 41 32 47 36 6 3
30 -12 53 -33 24 -22 48 -40 55 -40 8 0 29 49 52 121 l39 121 115 -6 115 -6
29 75 c16 41 34 82 40 90 9 13 22 -57 60 -322 55 -388 109 -701 131 -767 30
-86 139 -262 389 -626 151 -218 432 -598 504 -680 l40 -45 7 40 c27 163 64
246 149 330 134 132 374 192 504 126 22 -11 43 -25 47 -31 3 -5 -2 -33 -11
-62 -10 -33 -19 -110 -24 -206 -4 -94 -11 -157 -18 -164 -7 -7 -12 -35 -12
-62 0 -108 -49 -337 -90 -415 -26 -51 -82 -98 -127 -108 -49 -9 -491 -9 -566
1 -97 13 -86 51 29 105 160 75 269 263 213 367 -13 25 -86 71 -96 60 -3 -2 -9
-42 -15 -88 -12 -98 -20 -116 -56 -124 -227 -50 -366 -173 -417 -370 -8 -32
-15 -78 -15 -101 l0 -44 503 3 c477 3 504 4 542 23 162 80 244 322 261 775 7
184 -2 255 -41 336 -14 28 -25 58 -25 66 0 8 -27 55 -61 104 -420 616 -641
966 -689 1091 -46 122 -87 728 -96 1423 -7 524 -10 474 41 685 3 11 10 112 15
224 21 422 88 704 245 1029 76 156 115 226 263 462 166 264 207 367 206 515 0
85 -4 109 -26 163 -57 135 -188 293 -328 396 l-65 48 -13 -53 c-18 -69 -43
-103 -92 -123 -51 -20 -99 -20 -175 -1 -98 26 -151 62 -249 170 -50 55 -129
139 -177 187 -100 102 -111 105 -284 89 -126 -11 -226 -31 -316 -62 -70 -24
-189 -81 -231 -110 l-26 -19 -124 45 c-94 35 -302 131 -440 203 -3 1 -14 -21
-23 -50z m1281 -263 c21 -8 106 -83 197 -173 145 -141 171 -162 247 -199 141
-69 236 -77 365 -33 32 11 69 20 82 20 26 0 98 -60 119 -101 21 -42 19 -255
-3 -311 -9 -24 -76 -142 -148 -263 -212 -355 -290 -512 -371 -747 -74 -213
-125 -465 -140 -688 -5 -70 -11 -100 -24 -115 -10 -11 -20 -31 -22 -45 -3 -22
-10 -26 -83 -38 -81 -13 -113 -26 -240 -98 -66 -37 -74 -39 -155 -39 -85 0
-86 0 -175 52 -50 28 -112 57 -138 64 -71 18 -161 7 -236 -30 -128 -61 -169
-53 -314 60 -111 86 -184 112 -297 107 l-75 -3 -3 204 c-2 160 2 238 18 360
47 364 111 651 217 981 93 291 91 329 -34 482 -30 36 -78 87 -108 113 -77 65
-75 80 21 237 97 158 112 173 167 171 23 0 108 -21 188 -46 229 -71 248 -71
434 5 152 61 263 87 378 88 65 0 110 -5 133 -15z m-1421 -2695 c-11 -18 -43
-11 -59 12 -25 36 -19 40 24 18 23 -12 38 -25 35 -30z m587 -147 l88 -15 -44
-49 c-24 -27 -52 -71 -62 -99 -10 -27 -21 -50 -25 -50 -4 0 -17 -11 -30 -25
-27 -28 -39 -31 -39 -12 0 8 -11 24 -25 37 -22 21 -25 32 -25 94 0 53 -5 81
-21 110 l-21 39 59 -7 c32 -4 97 -14 145 -23z m821 -75 c-17 -18 -48 -67 -68
-108 -51 -104 -87 -140 -139 -140 -38 0 -42 4 -58 38 -9 20 -19 62 -23 92 -4
30 -15 74 -25 97 -10 23 -16 44 -12 47 3 3 84 6 181 6 l175 0 -31 -32z m343
-581 l-7 -44 33 5 33 5 -23 -25 c-34 -38 -52 -32 -52 16 0 43 9 86 17 86 3 0
2 -19 -1 -43z M4150 4443 c0 -4 -6 -39 -14 -78 -30 -150 -30 -145 -1 -145 14
0 39 7 56 15 16 9 34 13 39 10 6 -3 10 -1 10 4 0 21 20 10 35 -19 8 -16 32
-41 52 -55 37 -24 38 -24 45 -5 6 18 38 184 38 202 0 8 -47 0 -71 -12 -10 -6
-27 -10 -38 -10 -10 0 -21 -6 -23 -12 -3 -7 -13 0 -24 17 -29 46 -104 109
-104 88z M5501 4161 c-29 -57 -50 -106 -47 -108 9 -10 73 45 95 80 29 47 35
88 18 112 -14 18 -18 12 -66 -84z M4360 4098 c0 -13 -25 -161 -56 -329 -31
-167 -59 -316 -61 -330 -5 -26 -3 -27 71 -38 42 -6 106 -13 143 -17 l68 -6
111 339 c61 186 110 339 109 341 -1 1 -74 14 -161 28 -248 41 -224 40 -224 12z
M5565 3739 c-55 -28 -107 -57 -115 -65 -13 -12 -12 -40 9 -227 13 -116 25
-214 27 -216 2 -2 39 12 81 32 43 19 95 42 116 51 20 8 37 19 37 23 0 4 -7 60
-14 123 -8 63 -18 163 -22 223 -4 59 -9 107 -13 107 -3 0 -51 -23 -106 -51z
M3967 3437 c-11 -30 -40 -217 -34 -224 8 -7 126 27 133 39 3 4 19 -6 36 -23
39 -39 77 -64 85 -55 6 6 42 178 43 204 0 6 -8 12 -17 12 -27 0 -113 -33 -113
-43 0 -5 -7 -4 -15 3 -8 7 -15 16 -15 21 0 15 -76 79 -94 79 -2 0 -6 -6 -9
-13z M4186 3129 c-2 -8 -10 -50 -16 -94 -6 -44 -27 -165 -46 -268 -19 -103
-34 -192 -34 -197 0 -4 30 -11 68 -15 37 -3 79 -9 95 -11 22 -5 27 -2 27 15 0
32 56 240 106 393 25 77 42 144 37 148 -4 4 -53 13 -107 20 -55 6 -105 14
-113 17 -7 3 -15 -1 -17 -8z M5660 2999 c-131 -70 -126 -64 -106 -146 20 -77
94 -309 107 -335 8 -15 18 -12 84 28 42 24 79 44 84 44 5 0 14 6 20 14 9 10 4
41 -18 127 -16 63 -37 160 -47 217 -9 56 -20 102 -23 102 -3 0 -49 -23 -101
-51z M5897 2314 c-43 -25 -77 -49 -75 -53 9 -21 224 -350 229 -350 4 -1 41 20
83 45 l77 46 -18 27 c-41 63 -171 269 -189 299 -10 17 -21 32 -24 32 -3 0 -40
-21 -83 -46z M4115 2259 c8 -37 55 -420 55 -456 0 -61 4 -63 101 -63 53 0 89
4 89 10 0 6 -11 97 -24 203 -14 105 -27 217 -31 248 l-6 57 -62 6 c-34 4 -77
9 -95 13 -31 5 -33 4 -27 -18z M3672 864 c-280 -86 -492 -178 -559 -244 -67
-64 -87 -111 -87 -205 l-1 -80 981 -3 981 -2 13 77 c16 95 16 270 1 338 -13
58 -50 155 -60 155 -3 0 -21 -52 -40 -116 -19 -63 -38 -117 -43 -120 -4 -3 -8
-25 -8 -49 0 -34 -4 -45 -19 -50 -10 -3 -22 -16 -25 -29 -6 -23 -7 -23 -218
-29 -204 -6 -930 6 -1053 18 -120 12 -113 43 21 93 185 68 226 96 238 162 18
101 19 120 5 120 -8 -1 -65 -17 -127 -36z"/>
</g>
</svg>
