<?xml version="1.0" standalone="no"?>
<!DOCTYPE svg PUBLIC "-//W3C//DTD SVG 20010904//EN"
 "http://www.w3.org/TR/2001/REC-SVG-20010904/DTD/svg10.dtd">
<svg version="1.0" xmlns="http://www.w3.org/2000/svg"
 width="2048.000000pt" height="2048.000000pt" viewBox="0 0 2048.000000 2048.000000"
 preserveAspectRatio="xMidYMid meet">
<metadata>
Created by potrace 1.13, written by Peter Selinger 2001-2015
</metadata>
<g transform="translate(0.000000,2048.000000) scale(0.192120,-0.192120)"
fill="#000000" stroke="none">
<path d="M4380 10038 c-180 -20 -414 -97 -567 -186 -170 -99 -318 -243 -380
-368 -32 -66 -37 -87 -41 -164 -4 -78 -1 -94 21 -143 13 -30 45 -76 71 -102
l46 -48 -7 -87 c-22 -313 118 -659 361 -888 191 -181 419 -283 694 -313 95
-10 237 -2 286 17 17 6 24 -19 32 -118 l7 -78 -44 -47 c-87 -94 -162 -227
-195 -348 -22 -83 -30 -305 -14 -427 l12 -98 -98 -123 c-125 -155 -465 -497
-609 -611 -236 -188 -525 -361 -763 -455 -110 -44 -301 -104 -367 -115 -64
-12 -179 -72 -207 -108 -38 -50 -55 -89 -63 -140 -21 -138 82 -281 221 -307
63 -12 163 5 347 59 768 224 1497 784 2070 1590 53 74 97 138 97 141 0 4 -55
39 -122 79 -68 40 -173 104 -234 141 -62 38 -114 69 -117 69 -3 0 -27 -31 -53
-70 -25 -38 -52 -75 -60 -81 -28 -23 16 95 95 256 43 88 82 171 86 185 4 14
29 70 56 125 75 156 81 205 35 288 l-21 38 35 30 c100 86 315 205 412 228 26
6 65 11 87 11 28 0 39 4 36 13 -4 9 -70 13 -272 14 l-267 3 -73 36 c-72 35
-77 36 -236 44 -105 6 -190 16 -242 29 -251 64 -479 259 -594 506 -18 39 -44
93 -57 121 -13 27 -64 115 -114 194 -49 80 -90 148 -90 152 0 5 17 0 38 -11
74 -37 180 -62 352 -82 484 -56 664 -145 936 -465 266 -313 348 -389 488 -458
235 -115 619 -125 926 -25 245 80 527 268 672 448 96 119 134 227 93 261 -8 6
-64 16 -125 21 -61 5 -140 16 -177 24 -274 64 -505 246 -833 656 -138 173
-332 372 -430 440 -186 131 -399 209 -667 244 -125 16 -340 18 -473 3z m523
-328 c203 -34 370 -100 509 -200 89 -64 213 -191 358 -365 303 -364 484 -529
720 -655 119 -63 118 -89 -9 -163 -106 -63 -246 -115 -381 -142 -201 -41 -568
-25 -684 30 -71 34 -175 132 -346 325 -75 85 -164 180 -198 212 -229 211 -423
298 -775 348 -235 33 -270 40 -322 68 -66 36 -95 80 -95 147 0 63 33 113 120
178 149 112 328 186 540 222 123 21 427 19 563 -5z m55 -3193 c17 -14 15 -53
-5 -85 -72 -112 -126 -167 -313 -322 -69 -57 -168 -143 -220 -191 -90 -84
-233 -199 -246 -199 -3 0 -14 -10 -25 -22 -10 -13 -18 -18 -19 -12 0 7 91 103
203 215 213 215 308 323 443 506 46 61 91 116 101 122 19 11 60 5 81 -12z
m-858 -858 c-7 -11 -14 -18 -17 -15 -8 8 5 36 17 36 7 0 7 -6 0 -21z M5756
7781 c-33 -37 -32 -84 7 -163 19 -40 46 -84 59 -98 13 -14 58 -68 100 -120
138 -173 183 -202 304 -201 l70 1 82 -167 c45 -93 117 -257 161 -366 l79 -199
78 -52 c44 -29 126 -90 184 -135 307 -239 516 -469 666 -732 36 -65 78 -128
92 -142 134 -126 355 -88 439 77 21 40 27 66 27 122 1 65 -3 79 -44 160 -25
49 -79 140 -122 204 -320 482 -854 917 -1569 1280 l-135 69 -52 85 c-100 164
-207 280 -327 357 -69 44 -76 46 -99 20z m1334 -1311 c7 -13 7 -20 1 -20 -6 0
-15 9 -21 20 -7 13 -7 20 -1 20 6 0 15 -9 21 -20z m57 -38 c10 -10 32 -26 48
-37 55 -34 249 -211 326 -296 80 -89 186 -225 233 -297 30 -47 44 -106 28
-116 -14 -9 -51 32 -147 163 -155 212 -188 251 -364 432 -51 53 -96 101 -100
106 -3 5 -14 12 -23 16 -20 7 -44 47 -29 47 6 0 18 -8 28 -18z M6563 6385
c-17 -7 -37 -23 -43 -35 -20 -37 -13 -128 19 -265 17 -71 36 -152 42 -180 6
-27 29 -111 50 -185 51 -183 122 -468 164 -661 34 -153 45 -289 27 -314 -4 -6
-27 -19 -51 -30 -45 -20 -84 -67 -96 -116 -6 -25 -7 -25 -68 -16 -88 12 -248
3 -342 -21 -178 -46 -256 -56 -427 -57 -161 0 -167 -1 -145 -17 12 -10 30 -20
40 -24 9 -3 17 -10 17 -15 0 -5 7 -9 15 -9 8 0 15 -4 15 -10 0 -5 20 -10 45
-10 27 0 45 -5 45 -11 0 -18 136 -5 333 31 190 34 247 38 247 15 0 -8 9 -15
20 -15 20 0 20 -7 20 -464 0 -299 4 -467 10 -471 6 -3 10 -16 10 -29 0 -42 36
-97 118 -180 103 -103 149 -131 596 -353 l359 -178 191 -2 c105 -1 209 -6 231
-11 32 -8 35 -10 14 -11 -55 -2 -158 -42 -188 -71 -24 -25 -34 -51 -59 -157
-83 -350 -118 -635 -121 -984 -4 -413 37 -658 121 -736 68 -63 192 -51 245 23
32 45 486 1679 480 1726 -11 86 -79 133 -242 167 -95 20 -135 39 -815 380
l-715 359 -5 553 c-3 305 -5 555 -4 557 2 4 68 -21 187 -70 85 -35 128 -48
155 -46 l37 3 3 74 c11 270 -212 1190 -448 1849 -13 36 -34 40 -87 17z m1541
-3947 c99 -19 99 -38 -5 -410 -91 -329 -115 -406 -139 -446 -44 -72 -50 -46
-57 283 -5 250 -4 278 16 383 40 207 50 218 185 190z M4860 5956 c0 -11 119
-342 254 -703 80 -216 148 -403 151 -415 4 -21 -67 -74 -692 -518 -392 -279
-721 -520 -753 -551 -31 -31 -70 -83 -87 -116 -22 -41 -118 -359 -322 -1076
-160 -560 -291 -1027 -291 -1040 0 -58 -7 -63 -68 -56 -121 16 -447 21 -558
10 -192 -20 -255 -43 -301 -111 -45 -65 -24 -183 39 -224 13 -8 187 -72 388
-141 201 -70 565 -196 810 -281 245 -85 460 -154 478 -154 79 0 140 64 176
182 47 156 58 218 53 302 -5 72 -3 84 23 135 16 32 130 414 264 886 131 457
246 860 256 896 l20 65 342 245 c189 134 393 281 455 326 l113 82 0 -332 c0
-367 4 -399 63 -517 20 -40 57 -90 99 -132 l66 -67 896 -448 c492 -246 898
-444 902 -440 18 17 -104 214 -181 293 -45 45 -107 79 -592 323 -526 264 -863
450 -931 514 -40 38 -72 96 -72 130 0 14 -7 38 -15 53 -12 23 -15 71 -15 224
0 280 -23 351 -128 390 -29 11 -62 20 -72 20 -20 0 -20 9 -20 408 l0 408 -67
17 c-38 10 -99 35 -138 55 l-70 38 -21 70 -22 69 50 27 c75 41 79 50 75 148
-3 63 -12 109 -36 180 -55 159 -242 652 -263 695 -30 60 -66 93 -125 115 -47
18 -133 28 -133 16z m475 -1544 l70 -38 3 -265 2 -265 -82 -53 c-46 -29 -198
-134 -338 -234 -205 -145 -277 -203 -366 -292 -162 -162 -158 -154 -368 -890
-96 -335 -184 -647 -195 -692 -27 -105 -27 -216 0 -328 11 -48 19 -88 17 -90
-2 -2 -43 11 -93 27 -153 51 -428 116 -623 148 -103 17 -191 32 -196 34 -5 1
14 16 41 34 72 47 160 143 188 206 14 31 123 401 244 823 121 423 233 807 249
854 39 115 66 157 132 211 58 48 951 688 1083 776 126 85 134 87 232 34z
m-1793 -3226 c89 -19 192 -43 228 -53 l65 -18 3 -89 c3 -95 -5 -116 -44 -116
-26 0 -557 182 -624 213 -25 12 -53 29 -63 38 -17 15 -17 17 6 32 71 46 186
44 429 -7z"/>
</g>
</svg>
