<?xml version="1.0" standalone="no"?>
<!DOCTYPE svg PUBLIC "-//W3C//DTD SVG 20010904//EN"
 "http://www.w3.org/TR/2001/REC-SVG-20010904/DTD/svg10.dtd">
<svg version="1.0" xmlns="http://www.w3.org/2000/svg"
 width="2048.000000pt" height="2048.000000pt" viewBox="0 0 2048.000000 2048.000000"
 preserveAspectRatio="xMidYMid meet">
<metadata>
Created by potrace 1.13, written by Peter Selinger 2001-2015
</metadata>
<g transform="translate(0.000000,2048.000000) scale(0.192120,-0.192120)"
fill="#000000" stroke="none">
<path d="M4010 10300 c-181 -25 -423 -94 -576 -165 -220 -101 -352 -259 -362
-434 -5 -91 9 -150 47 -194 28 -32 28 -33 19 -107 -14 -110 -3 -394 22 -535
67 -389 221 -631 429 -676 58 -12 185 -1 371 32 57 10 108 15 111 11 11 -13
29 -74 29 -101 l0 -26 -348 0 c-330 0 -350 -1 -417 -22 -176 -55 -324 -209
-370 -384 -8 -30 -15 -66 -15 -80 0 -22 -19 -40 -117 -112 -160 -115 -267
-210 -374 -331 -219 -245 -360 -524 -431 -847 -20 -92 -22 -133 -22 -349 -1
-260 6 -320 60 -533 63 -251 96 -312 198 -364 40 -21 66 -27 121 -27 84 -1
143 23 200 79 82 83 99 186 53 330 -201 627 -39 1175 458 1556 l91 69 59 -30
c67 -34 161 -60 216 -60 l37 0 3 -617 3 -618 25 -65 c14 -36 185 -330 380
-655 195 -324 363 -605 372 -622 18 -32 17 -37 -103 -635 -138 -689 -141 -719
-91 -858 15 -41 99 -217 186 -390 150 -296 163 -319 225 -381 72 -71 171 -126
270 -149 78 -18 231 -8 306 20 282 107 431 412 339 694 -9 28 -63 144 -120
257 l-103 206 45 219 c24 120 51 251 59 289 66 301 145 743 145 807 0 141 -33
219 -219 518 -60 96 -108 176 -107 177 1 1 141 -54 311 -123 171 -69 335 -135
365 -146 30 -11 56 -21 57 -22 1 -1 74 -181 161 -401 321 -805 329 -824 376
-890 25 -34 74 -84 108 -110 79 -59 682 -360 763 -380 187 -47 392 12 528 153
104 108 157 235 157 373 0 166 -51 293 -164 405 -66 65 -87 79 -290 181 l-219
109 -20 50 c-10 27 -29 76 -42 109 -12 33 -58 146 -100 250 -43 105 -106 262
-140 350 -190 483 -214 533 -301 620 -81 81 -116 97 -726 340 l-498 198 0 367
0 367 52 5 52 5 121 -114 c302 -290 629 -510 930 -628 178 -70 462 -117 569
-95 254 53 304 390 76 514 -43 23 -70 30 -159 37 -134 11 -255 45 -398 114
-191 91 -413 252 -618 447 l-98 94 12 34 c6 19 15 69 18 110 16 208 -113 433
-301 526 -121 59 -165 64 -603 64 -364 0 -392 1 -397 18 -6 20 -34 194 -38
237 l-3 30 56 -3 c37 -3 67 2 86 11 40 21 112 101 156 174 224 370 275 839
127 1160 -49 106 -88 161 -174 252 -149 155 -300 245 -491 292 -93 23 -305 33
-405 19z m338 -326 c155 -32 286 -106 394 -223 31 -33 68 -84 83 -114 l26 -54
-3 -299 -3 -299 -34 -83 c-38 -93 -91 -174 -134 -206 -33 -25 -115 -29 -140
-7 -28 23 -23 176 8 263 20 56 25 88 25 165 0 90 -2 100 -39 178 -30 65 -55
100 -110 155 -93 93 -158 124 -257 124 -62 0 -81 -4 -146 -37 -42 -20 -80 -37
-85 -37 -18 0 -51 45 -82 110 -21 44 -59 95 -115 155 -47 50 -85 98 -86 108 0
11 13 23 35 33 44 18 223 61 301 73 100 15 279 12 362 -5z m-707 -343 c3 -3
48 -133 100 -288 93 -281 94 -283 122 -283 41 0 71 39 96 126 28 96 42 118
100 152 83 49 193 33 259 -36 40 -43 75 -130 76 -192 1 -56 -2 -64 -73 -195
-32 -58 -33 -63 -29 -160 5 -116 25 -169 90 -236 43 -44 156 -104 219 -114 21
-4 39 -10 39 -15 0 -4 -22 -22 -50 -40 -80 -51 -128 -116 -145 -193 -3 -15
-10 -25 -15 -22 -4 3 -23 7 -40 9 -32 4 -52 20 -82 67 -32 49 -127 146 -182
183 -78 55 -107 59 -287 40 l-156 -17 -48 24 c-94 47 -167 161 -209 330 -30
119 -56 298 -56 386 0 110 -15 177 -47 214 -31 35 -69 72 -98 93 -18 13 -18
15 -2 39 37 57 160 123 254 136 59 8 153 4 164 -8z m643 -1625 c78 -40 156
-82 173 -92 l32 -19 82 80 c65 65 83 77 90 65 6 -8 24 -39 40 -68 24 -42 40
-58 77 -75 44 -20 69 -22 382 -28 396 -7 409 -10 487 -92 71 -75 102 -142 118
-252 17 -127 40 -173 103 -214 l52 -33 -16 -30 c-37 -71 -160 -177 -225 -193
-22 -5 -28 -2 -39 24 -16 40 -70 87 -109 96 -43 9 -104 -21 -189 -94 -115 -99
-112 -84 -112 -488 0 -222 4 -343 10 -343 6 0 10 -8 10 -19 0 -58 162 -230
263 -279 34 -17 237 -101 450 -186 418 -168 507 -209 554 -259 17 -18 63 -93
103 -167 40 -74 78 -142 85 -150 28 -34 87 -154 148 -300 80 -193 103 -261
111 -325 21 -166 142 -378 276 -478 33 -25 121 -78 195 -118 74 -39 153 -87
175 -106 81 -69 130 -234 101 -340 -27 -100 -155 -189 -290 -200 -123 -10
-192 16 -389 145 -64 42 -179 111 -255 152 -192 104 -221 136 -323 365 -25 54
-51 106 -58 115 -50 56 -150 270 -286 611 -86 215 -103 245 -189 329 -159 157
-530 340 -687 340 -69 0 -106 -16 -171 -74 -96 -86 -123 -171 -87 -276 27 -78
84 -182 143 -258 105 -137 101 -123 101 -326 0 -168 -2 -191 -36 -350 -21
-103 -55 -225 -85 -307 -70 -191 -109 -389 -109 -546 0 -141 3 -153 112 -386
37 -81 80 -181 93 -222 29 -84 33 -186 11 -240 -24 -56 -91 -120 -159 -151
-55 -26 -73 -29 -162 -29 -187 1 -217 32 -436 468 -60 120 -124 257 -141 305
-30 80 -33 99 -36 233 l-4 147 102 503 c123 606 121 585 38 759 -30 63 -178
322 -330 575 -302 504 -318 533 -318 568 0 14 -7 44 -15 67 -13 36 -15 126
-15 566 0 343 -3 524 -10 524 -5 0 -10 9 -10 20 0 11 -4 20 -9 20 -5 0 -14 14
-21 30 -14 33 -105 122 -174 169 -45 31 -139 66 -215 81 -58 11 -102 -7 -145
-56 l-31 -36 -44 47 c-48 52 -97 149 -107 212 -6 41 -6 42 30 52 91 25 148 76
201 181 42 84 87 133 155 169 105 56 142 62 415 70 208 5 255 9 281 23 33 18
69 78 80 136 4 17 9 32 12 32 3 0 69 -33 146 -74z m-1494 -895 c0 -5 -27 -42
-61 -82 -118 -144 -207 -275 -273 -403 l-31 -61 -3 69 c-3 67 -1 72 43 146 90
149 325 388 325 331z m3259 -171 c25 -22 48 -40 52 -40 3 0 9 -9 12 -20 6 -25
-8 -26 -22 -2 -6 9 -11 13 -11 9 0 -14 -90 65 -90 79 0 22 12 17 59 -26z m108
-95 c9 -25 -4 -29 -17 -6 -7 15 -7 21 0 21 6 0 13 -7 17 -15z M10275 8847
c-314 -577 -791 -1244 -1303 -1822 -156 -176 -672 -690 -857 -855 -419 -372
-1045 -853 -1145 -880 l-44 -12 24 -18 c29 -22 87 -40 127 -40 36 0 76 29 108
80 l23 37 159 31 c735 146 1533 229 1832 191 145 -18 176 -42 174 -134 -3
-139 -159 -377 -424 -649 -65 -66 -117 -121 -116 -122 1 -1 43 2 92 7 203 18
472 6 635 -27 100 -21 188 -62 228 -108 28 -32 32 -43 26 -70 -17 -78 -103
-194 -279 -375 -627 -644 -1922 -1616 -2925 -2196 -810 -468 -1761 -800 -2680
-935 -268 -39 -436 -52 -757 -57 -430 -7 -706 16 -978 81 -156 38 -162 42 -80
50 270 29 467 83 785 216 252 105 1372 596 1440 630 67 34 117 84 130 131 11
36 14 119 4 119 -15 0 -2367 -1026 -2457 -1072 l-39 -19 -71 27 c-214 80 -378
197 -432 308 -32 66 -43 173 -26 272 16 95 75 272 124 374 42 84 42 85 102
108 49 20 2021 881 2273 993 l73 32 -32 33 c-18 18 -47 40 -65 49 -61 29 -99
22 -264 -50 -85 -37 -213 -91 -285 -120 -259 -105 -1013 -438 -1151 -509 -187
-97 -345 -203 -512 -344 l-63 -53 31 61 c106 210 419 609 674 859 l75 75 51
-13 c74 -19 114 -16 173 13 50 25 90 54 479 352 100 77 212 161 248 186 100
69 278 188 284 188 2 0 40 22 83 49 219 136 320 218 408 332 50 63 92 145 82
156 -10 9 -64 -18 -267 -130 -458 -253 -895 -555 -1245 -860 -65 -56 -133
-115 -152 -131 -78 -65 -1046 -285 -1701 -387 -145 -22 -510 -69 -540 -69 -2
0 -1 -345 1 -768 3 -749 4 -769 25 -857 33 -133 59 -210 108 -308 160 -324
427 -510 799 -556 128 -16 8002 -16 8130 0 502 62 824 389 916 929 19 113 19
190 17 3892 l-3 3777 -50 -92z m-230 -7689 c-8 -32 -24 -78 -35 -103 -11 -24
-20 -47 -20 -50 0 -4 -21 -39 -46 -78 -110 -172 -252 -267 -479 -320 l-90 -22
-3975 -3 c-2805 -2 -4007 0 -4082 8 -199 20 -372 88 -491 192 -87 76 -161 193
-213 334 l-29 79 -3 696 -3 696 93 12 c171 21 635 101 898 155 143 29 262 51
265 48 12 -13 3 -50 -22 -87 -52 -78 -219 -312 -314 -440 -116 -158 -166 -249
-216 -397 -37 -112 -37 -114 -41 -302 -2 -108 1 -198 6 -210 5 -12 18 -41 28
-66 72 -171 233 -334 424 -427 134 -66 198 -83 369 -99 86 -8 181 -19 211 -24
326 -57 850 -76 1221 -46 1037 84 2068 398 3016 917 1081 592 2643 1777 3262
2473 117 132 221 315 221 390 0 90 -141 267 -266 333 -56 30 -245 83 -294 83
-12 0 -25 10 -32 25 -10 23 -5 39 50 148 81 159 102 223 102 307 0 87 -32 160
-107 241 -71 76 -121 105 -203 118 -143 23 -537 6 -929 -40 -97 -11 -216 -21
-266 -22 -137 -3 -133 8 62 179 682 600 1233 1207 1753 1934 72 102 144 199
158 215 l27 30 3 -3410 c2 -2989 0 -3417 -13 -3467z M9070 5470 c-182 -40
-514 -150 -750 -249 -52 -21 -284 -122 -515 -223 -368 -162 -426 -190 -466
-229 -25 -24 -54 -57 -63 -72 -20 -32 -58 -138 -52 -144 2 -2 26 5 54 16 70
28 1857 810 1962 859 84 39 85 40 57 51 -40 16 -129 12 -227 -9z M5490 4915
c-58 -17 -115 -37 -125 -43 -18 -10 -15 -13 30 -33 95 -42 175 -38 200 11 16
30 20 86 8 93 -5 2 -55 -10 -113 -28z M9705 4414 c-136 -59 -1576 -689 -1647
-721 -43 -20 -78 -39 -78 -44 0 -14 80 -71 115 -80 31 -9 54 -4 171 36 127 43
391 152 664 275 331 148 777 431 833 529 22 37 19 37 -58 5z M5884 4134 c-74
-19 -241 -90 -295 -125 -54 -34 -234 -218 -262 -268 l-18 -31 48 19 c69 27
592 255 695 303 48 22 85 44 83 48 -10 16 -96 50 -148 58 -38 6 -70 5 -103 -4z
M6895 3185 c-16 -8 -320 -141 -675 -296 -355 -155 -667 -292 -694 -306 l-48
-24 23 -26 c31 -32 74 -54 124 -64 43 -8 102 13 425 151 80 33 183 77 230 97
47 19 177 76 289 126 355 156 391 185 391 308 0 55 -10 60 -65 34z"/>
</g>
</svg>
