<?xml version="1.0" standalone="no"?>
<!DOCTYPE svg PUBLIC "-//W3C//DTD SVG 20010904//EN"
 "http://www.w3.org/TR/2001/REC-SVG-20010904/DTD/svg10.dtd">
<svg version="1.0" xmlns="http://www.w3.org/2000/svg"
 width="2048.000000pt" height="2048.000000pt" viewBox="0 0 2048.000000 2048.000000"
 preserveAspectRatio="xMidYMid meet">
<metadata>
Created by potrace 1.13, written by Peter Selinger 2001-2015
</metadata>
<g transform="translate(0.000000,2048.000000) scale(0.192120,-0.192120)"
fill="#000000" stroke="none">
<path d="M2427 10320 c-147 -25 -337 -112 -492 -227 -299 -221 -596 -628 -737
-1007 -60 -162 -82 -277 -82 -431 -1 -121 2 -149 22 -206 76 -221 459 -714
1076 -1384 395 -429 1377 -1423 1927 -1950 l196 -188 -37 -50 c-71 -93 -98
-234 -66 -340 l14 -45 -85 -52 c-578 -354 -968 -971 -1042 -1652 -68 -620 151
-1287 566 -1728 209 -223 376 -350 630 -483 321 -166 636 -241 1013 -241 230
0 357 15 555 66 824 213 1464 890 1624 1719 46 241 53 562 16 779 -65 386
-222 737 -465 1045 -139 176 -387 392 -576 504 l-72 42 15 47 c33 105 -1 258
-79 356 l-31 38 240 242 c1332 1345 2453 2558 2849 3086 120 159 139 212 137
375 -2 186 -51 360 -168 600 -127 261 -300 501 -506 700 -174 168 -322 271
-483 335 -159 64 60 60 -3061 59 -1567 -1 -2872 -5 -2898 -9z m281 -107 c-21
-21 -49 -65 -65 -98 -24 -52 -27 -72 -27 -155 1 -286 185 -671 598 -1249 l146
-204 -29 -21 c-40 -28 -71 -77 -71 -110 0 -78 76 -221 183 -347 86 -101 988
-1011 995 -1004 3 3 148 -136 321 -308 474 -470 533 -499 736 -370 49 32 164
139 391 364 176 176 322 317 325 315 10 -10 996 989 1044 1057 57 82 94 168
95 220 0 20 -9 57 -21 82 -24 52 -38 28 118 210 393 460 621 850 674 1150 16
94 7 225 -21 300 -18 46 -40 77 -95 133 -40 39 -69 72 -65 72 49 0 426 -170
455 -205 5 -7 37 -27 70 -45 298 -165 623 -557 785 -945 69 -167 80 -220 80
-386 0 -138 -1 -149 -26 -195 -14 -27 -42 -69 -62 -93 -21 -24 -79 -96 -130
-160 -52 -64 -120 -145 -151 -181 -32 -36 -104 -119 -160 -185 -347 -405
-1192 -1306 -1991 -2124 -538 -550 -544 -557 -571 -667 -7 -27 -13 -50 -14
-52 -1 -1 -37 7 -80 18 -75 19 -111 20 -815 20 -704 0 -740 -1 -815 -20 -43
-11 -82 -20 -86 -20 -4 0 -10 17 -14 38 -15 89 -48 126 -809 885 -752 751
-1083 1093 -1442 1492 -454 505 -771 919 -815 1063 -7 25 -10 103 -7 227 4
185 5 192 37 280 63 170 188 399 305 558 190 257 447 460 664 524 34 10 62 24
62 31 0 6 7 12 15 12 9 0 57 21 108 46 84 43 178 81 202 83 5 1 -7 -16 -27
-36z m5114 -172 c26 -7 62 -22 80 -35 l33 -22 0 -179 0 -180 -49 -110 c-60
-134 -140 -268 -255 -429 -179 -249 -282 -366 -324 -366 -9 0 -54 20 -101 44
-168 86 -375 115 -986 137 -393 14 -2158 6 -2335 -10 -187 -18 -302 -40 -400
-77 -53 -21 -99 -33 -112 -29 -82 20 -476 661 -558 907 -21 66 -25 94 -25 203
l0 125 28 11 c15 6 59 14 97 19 39 4 1148 7 2465 6 1900 -2 2405 -5 2442 -15z
m-1342 -1400 c638 -41 823 -108 741 -269 -10 -20 -33 -55 -51 -77 -17 -22
-438 -448 -936 -946 l-904 -906 -894 896 c-985 986 -1010 1013 -1021 1102 -17
132 152 185 658 209 253 12 2197 4 2407 -9z m-385 -3673 c15 -7 25 -19 25 -32
0 -12 6 -30 14 -41 7 -11 28 -60 45 -110 24 -70 31 -106 31 -165 0 -52 5 -82
15 -96 8 -10 15 -27 15 -37 1 -70 129 -228 272 -337 248 -190 387 -333 521
-541 116 -180 188 -351 243 -574 23 -97 24 -111 24 -475 0 -408 -4 -445 -66
-635 -59 -181 -119 -303 -228 -470 -153 -233 -318 -398 -551 -550 -371 -243
-845 -363 -1285 -326 -517 44 -971 255 -1315 613 -228 236 -393 537 -476 864
l-30 122 3 403 c4 385 5 408 27 484 131 460 368 793 778 1093 127 94 207 194
254 318 22 59 29 96 29 148 0 38 5 86 11 105 31 99 84 227 97 239 22 17 1508
18 1547 0z M5170 4394 c-463 -44 -909 -277 -1214 -633 -100 -117 -119 -143
-183 -251 -93 -155 -155 -298 -199 -453 -48 -173 -54 -225 -54 -512 0 -249 2
-278 24 -376 73 -322 241 -648 454 -884 126 -139 326 -296 492 -388 158 -86
391 -165 575 -192 128 -19 400 -19 526 0 669 100 1231 586 1458 1260 76 225
83 285 78 623 -4 322 -9 352 -83 575 -38 116 -164 358 -241 467 -83 117 -298
335 -413 419 -219 161 -495 279 -760 326 -92 16 -369 27 -460 19z m338 -184
c387 -41 744 -218 1023 -507 230 -238 382 -537 441 -863 24 -137 29 -400 9
-525 -87 -551 -419 -1008 -910 -1254 -263 -132 -546 -188 -859 -169 -620 37
-1187 447 -1422 1026 -155 383 -168 780 -40 1163 102 306 300 585 555 784 343
267 773 390 1203 345z"/>
</g>
</svg>
