<?xml version="1.0" standalone="no"?>
<!DOCTYPE svg PUBLIC "-//W3C//DTD SVG 20010904//EN"
 "http://www.w3.org/TR/2001/REC-SVG-20010904/DTD/svg10.dtd">
<svg version="1.0" xmlns="http://www.w3.org/2000/svg"
 width="2048.000000pt" height="2048.000000pt" viewBox="0 0 2048.000000 2048.000000"
 preserveAspectRatio="xMidYMid meet">
<metadata>
Created by potrace 1.13, written by Peter Selinger 2001-2015
</metadata>
<g transform="translate(0.000000,2048.000000) scale(0.192120,-0.192120)"
fill="#000000" stroke="none">
<path d="M5800 9814 c-265 -22 -446 -52 -684 -114 -205 -52 -368 -107 -684
-229 -986 -380 -1727 -530 -2617 -531 -194 0 -270 -11 -375 -53 -225 -91 -407
-281 -615 -642 -108 -186 -291 -568 -315 -656 -28 -100 -31 -201 -7 -245 16
-32 56 -64 79 -64 7 0 33 -14 57 -30 116 -79 208 -21 476 300 188 227 269 313
371 399 152 127 286 197 434 227 140 28 233 15 503 -71 199 -64 281 -79 402
-72 111 7 146 16 285 75 156 67 226 77 515 76 179 0 326 -7 515 -24 350 -32
824 -35 965 -7 221 45 367 108 466 204 l36 34 7 -248 c33 -1216 231 -2286 504
-2737 23 -37 42 -70 42 -73 0 -3 -15 -24 -33 -47 -165 -203 -372 -622 -507
-1027 -77 -229 -140 -342 -212 -378 -30 -15 -47 -17 -71 -10 -67 18 -138 128
-191 294 -58 182 -83 346 -95 624 -14 302 -58 497 -171 755 -197 449 -610 860
-1143 1136 -254 132 -397 165 -717 165 -226 0 -288 -7 -465 -52 -298 -76 -550
-231 -714 -437 -142 -179 -270 -498 -327 -811 -21 -121 -30 -424 -15 -550 47
-406 194 -764 432 -1050 42 -50 103 -113 137 -140 34 -28 62 -52 62 -55 -1 -3
-32 -24 -69 -48 l-69 -42 -831 2 -831 3 0 -1667 0 -1668 5000 0 5000 0 0 2173
0 2174 -182 101 c-331 183 -717 358 -1023 463 -163 56 -269 77 -438 88 -142
10 -208 31 -294 95 -125 91 -229 253 -328 511 -95 244 -175 580 -280 1170
-108 606 -130 710 -182 870 -59 182 -192 402 -515 853 -270 377 -352 521 -367
649 -6 44 -18 86 -31 107 -60 98 -243 180 -477 215 -78 12 -339 21 -413 15z
m365 -285 c50 -6 125 -21 167 -33 66 -20 78 -21 80 -8 5 26 72 -68 108 -153
89 -207 167 -335 425 -700 255 -360 381 -569 433 -720 47 -136 72 -252 188
-890 135 -746 232 -1093 392 -1398 112 -215 282 -384 465 -466 73 -33 138 -46
302 -61 66 -7 154 -18 195 -26 41 -8 135 -18 208 -21 l133 -6 -28 -30 c-131
-139 -451 -284 -797 -362 -297 -66 -568 -90 -931 -82 -421 10 -740 63 -1102
183 -141 47 -356 142 -351 155 2 4 31 28 66 53 112 83 213 248 220 362 5 71
-2 97 -69 250 -74 173 -137 353 -185 533 -124 466 -209 1122 -244 1886 -14
309 -29 360 -129 468 -79 84 -124 104 -192 89 -28 -7 -83 -26 -122 -44 -114
-49 -224 -84 -332 -104 -145 -27 -552 -25 -895 5 -339 29 -635 37 -770 22
-129 -15 -188 -29 -360 -88 -110 -38 -152 -47 -227 -51 -110 -6 -168 4 -365
63 -215 65 -300 78 -443 72 -337 -14 -609 -197 -1039 -699 -173 -202 -196
-216 -196 -123 0 50 9 73 109 268 59 116 132 250 160 296 133 215 263 353 400
425 116 60 155 66 491 76 540 16 863 54 1321 155 390 87 743 198 1284 405 127
48 289 107 360 129 244 79 555 147 771 170 118 12 397 12 499 0z m-2845 -2988
c126 -25 205 -53 325 -113 138 -69 210 -118 210 -143 0 -19 -7 -20 -140 -21
-308 -3 -462 -25 -655 -91 -261 -89 -527 -274 -692 -482 -120 -151 -228 -357
-285 -546 -47 -155 -53 -220 -53 -550 l-1 -310 -29 35 c-25 28 -30 31 -30 15
0 -18 -2 -18 -20 5 -38 49 -99 176 -133 280 -67 204 -69 224 -64 630 4 334 6
371 25 435 122 407 258 588 547 730 162 80 301 120 495 145 114 14 388 4 500
-19z m580 -431 c149 -27 327 -87 468 -157 141 -70 163 -90 191 -176 12 -37 44
-120 72 -185 82 -189 128 -310 157 -412 25 -91 26 -108 30 -385 2 -198 0 -302
-8 -330 -12 -41 -12 -41 -78 -53 -159 -27 -420 -117 -662 -227 -263 -120 -330
-146 -363 -143 l-32 3 1 65 c1 53 10 85 48 175 98 228 113 302 78 371 -24 45
-73 95 -119 118 -40 20 -139 21 -173 1 -14 -8 -40 -22 -59 -30 -19 -9 -82 -52
-140 -96 -58 -43 -165 -110 -238 -148 -72 -38 -190 -108 -262 -155 -71 -47
-181 -114 -243 -149 -170 -96 -173 -98 -194 -127 -58 -82 -97 -130 -104 -130
-11 0 -64 130 -89 220 -59 215 -81 508 -52 709 89 609 495 1071 1073 1220 65
17 153 35 195 40 120 15 370 5 503 -19z m5519 -1279 c106 -36 356 -150 511
-234 l115 -62 3 -338 2 -337 -1530 0 c-1309 0 -1535 2 -1559 14 -15 8 -47 38
-72 68 -133 159 -245 233 -419 280 -72 19 -114 22 -285 25 -110 1 -213 6 -230
11 -76 22 -63 126 41 332 64 129 86 134 281 65 268 -95 551 -163 833 -201 166
-22 654 -30 833 -15 167 15 410 54 541 87 270 67 447 136 639 248 173 100 169
99 296 57z m-5718 -172 c16 -32 5 -69 -65 -219 -171 -366 -198 -544 -89 -595
71 -34 185 -3 451 124 260 124 473 205 677 258 124 32 272 41 330 20 40 -14
40 -15 40 -65 0 -37 6 -59 23 -81 12 -16 22 -37 22 -46 0 -9 -20 -67 -45 -129
-49 -125 -59 -202 -29 -244 15 -21 21 -22 193 -22 200 0 220 4 377 81 109 53
213 121 284 185 30 28 71 60 91 72 130 79 420 73 612 -12 176 -78 240 -185
172 -287 l-25 -39 1774 -2 1775 -3 -54 -84 c-30 -46 -55 -94 -55 -107 0 -13
-4 -24 -10 -24 -6 0 -10 -52 -10 -135 0 -83 -4 -135 -10 -135 -7 0 -10 -427
-10 -1260 0 -1253 0 -1260 -20 -1260 -17 0 -20 -7 -20 -45 l0 -45 -4760 0
-4760 0 0 1425 0 1425 45 0 c38 0 45 3 45 20 0 19 13 19 653 22 743 4 710 0
798 88 71 71 80 114 45 201 -7 17 111 102 614 441 623 420 897 558 941 477z
m2189 -524 c140 -70 139 -68 19 -82 -57 -7 -112 -10 -121 -7 -18 5 -34 45 -44
112 l-7 42 40 -14 c21 -7 72 -30 113 -51z M4141 5739 c-141 -24 -323 -106
-451 -204 -144 -111 -179 -165 -158 -242 19 -68 96 -116 162 -99 13 3 46 24
73 46 109 91 172 135 238 166 77 37 171 64 221 64 17 0 46 10 65 23 96 64 84
199 -21 241 -44 18 -50 18 -129 5z M2995 4899 c-80 -19 -172 -53 -245 -89
-136 -69 -299 -202 -327 -269 -36 -86 35 -181 134 -181 43 0 63 12 145 84 110
100 268 175 398 192 73 9 106 30 131 82 27 55 19 101 -25 150 -32 34 -38 36
-102 39 -38 1 -87 -2 -109 -8z"/>
</g>
</svg>
