<?xml version="1.0" standalone="no"?>
<!DOCTYPE svg PUBLIC "-//W3C//DTD SVG 20010904//EN"
 "http://www.w3.org/TR/2001/REC-SVG-20010904/DTD/svg10.dtd">
<svg version="1.0" xmlns="http://www.w3.org/2000/svg"
 width="2048.000000pt" height="2048.000000pt" viewBox="0 0 2048.000000 2048.000000"
 preserveAspectRatio="xMidYMid meet">
<metadata>
Created by potrace 1.13, written by Peter Selinger 2001-2015
</metadata>
<g transform="translate(0.000000,2048.000000) scale(0.192120,-0.192120)"
fill="#000000" stroke="none">
<path d="M4045 10260 c-1041 -5 -1072 -6 -1140 -26 -200 -59 -336 -182 -420
-384 l-32 -75 -704 -5 c-772 -6 -735 -3 -876 -69 -167 -79 -325 -237 -415
-416 -100 -197 -146 -479 -119 -721 6 -56 92 -526 191 -1045 295 -1540 370
-1919 391 -1983 100 -299 390 -574 731 -694 193 -69 138 -65 1153 -69 772 -2
920 -5 927 -17 20 -35 226 -304 324 -421 59 -71 188 -210 286 -308 l179 -178
-11 -117 c-55 -606 -191 -1122 -419 -1589 l-69 -141 -339 -4 -338 -4 -80 -28
c-208 -72 -383 -247 -424 -426 -6 -25 -11 -120 -11 -211 l0 -167 -122 -4
c-114 -3 -128 -6 -191 -35 -79 -38 -163 -114 -200 -180 -49 -92 -59 -266 -22
-398 32 -112 126 -183 270 -205 48 -7 955 -10 2850 -8 l2780 3 56 23 c61 24
101 61 120 107 17 44 23 267 10 365 -14 105 -49 179 -113 242 -74 72 -128 88
-298 88 l-140 0 0 168 c0 196 -14 275 -65 379 -60 121 -166 215 -301 265 -56
21 -78 22 -450 26 l-392 4 -66 137 c-221 463 -350 937 -411 1511 l-15 144 37
30 c234 191 551 542 774 855 l65 91 919 3 c1007 4 959 1 1145 64 277 94 533
310 668 563 22 41 49 102 60 135 28 82 122 602 437 2407 l95 548 0 229 c0 210
-2 236 -25 325 -92 364 -332 629 -639 706 -75 19 -114 20 -736 20 l-656 0 -24
57 c-34 82 -113 195 -173 248 -97 85 -234 142 -412 172 -89 15 -230 17 -1325
18 -674 1 -1706 -1 -2295 -5z m3496 -211 c138 -13 251 -43 324 -84 36 -20 98
-71 154 -128 103 -104 173 -147 240 -147 l40 0 20 -64 c40 -131 81 -412 81
-556 l0 -75 -54 -23 c-52 -23 -92 -57 -115 -100 -7 -13 -11 -95 -11 -224 0
-385 -34 -661 -131 -1073 -109 -459 -275 -913 -552 -1505 -62 -135 -120 -269
-127 -298 -20 -87 -2 -129 73 -168 l27 -15 -31 -62 c-70 -138 -310 -529 -380
-618 -27 -35 -31 -36 -67 -28 -104 24 -211 -56 -442 -331 -82 -98 -233 -264
-334 -368 -150 -155 -190 -202 -215 -255 -35 -73 -38 -111 -14 -162 9 -19 15
-37 12 -39 -37 -34 -181 -125 -261 -164 -182 -90 -303 -118 -457 -109 -117 7
-216 34 -341 93 -102 48 -299 175 -339 218 -23 24 -24 30 -13 59 40 111 1 182
-244 442 -67 72 -173 191 -235 265 -140 168 -282 308 -344 339 -46 23 -91 25
-136 7 -23 -10 -240 324 -406 624 -40 71 -49 100 -31 100 8 0 31 15 51 34 64
58 53 107 -96 422 -254 537 -417 969 -531 1407 -111 422 -146 673 -155 1104
l-6 311 -31 39 c-20 25 -49 45 -83 58 l-53 20 5 125 c7 153 31 320 66 460 l26
105 50 5 c69 8 119 41 190 123 118 139 165 174 285 212 43 14 107 20 285 25
404 11 4192 11 4306 -1z m-5305 -565 c11 -59 -3 -199 -23 -235 -44 -77 -14
-70 -284 -74 -278 -4 -340 -14 -458 -72 -106 -52 -239 -185 -298 -298 -68
-132 -73 -160 -73 -407 l0 -219 44 -207 c25 -114 90 -412 145 -662 55 -250
129 -594 166 -765 88 -418 102 -475 132 -558 103 -287 315 -521 540 -596 35
-12 104 -26 155 -31 115 -12 638 -12 772 0 142 12 146 10 240 -144 64 -107 81
-154 65 -183 l-12 -23 -671 0 c-791 0 -837 4 -1030 81 -185 75 -387 245 -473
400 -73 130 -52 32 -397 1835 l-206 1072 0 303 c0 296 1 306 25 372 35 102 81
172 165 257 105 105 218 160 370 180 30 4 290 8 577 9 l522 1 7 -36z m7389 13
c178 -51 325 -169 403 -326 l42 -83 0 -417 0 -417 -120 -690 c-300 -1713 -326
-1855 -371 -1979 -82 -225 -299 -427 -556 -516 -153 -53 -137 -52 -916 -56
-575 -3 -732 -1 -744 8 -10 9 -13 24 -10 46 6 36 120 232 161 276 26 28 26 28
114 20 48 -4 247 -8 442 -7 401 0 421 3 570 76 68 33 102 58 175 132 110 109
173 203 233 343 50 118 65 178 158 618 36 171 124 576 195 900 180 816 169
752 169 984 0 219 -6 252 -76 399 -45 94 -188 242 -281 290 -115 60 -191 73
-446 77 -209 3 -230 5 -241 22 -34 50 -60 190 -50 271 l6 53 542 -3 c472 -4
549 -6 601 -21z m-7313 -830 c-5 -287 4 -437 39 -682 85 -591 333 -1334 682
-2045 48 -96 106 -210 131 -252 l44 -78 -491 0 c-491 0 -492 0 -559 24 -135
48 -248 153 -327 306 -49 94 -60 133 -115 405 -47 227 -215 1007 -336 1550
-79 355 -95 464 -86 588 14 202 100 349 242 414 82 37 119 41 460 42 l321 1
-5 -273z m6790 246 c123 -46 211 -139 251 -268 19 -61 22 -91 21 -240 l0 -170
-108 -480 c-131 -589 -284 -1295 -326 -1510 -18 -88 -45 -192 -60 -232 -66
-164 -182 -296 -319 -362 l-76 -36 -482 -3 -482 -3 35 63 c63 111 209 408 287
583 298 673 483 1294 554 1865 14 114 18 216 18 483 l0 338 315 -3 c293 -3
319 -5 372 -25z m-4244 -5438 c206 -101 320 -130 512 -129 156 1 234 17 413
89 l110 44 27 -19 c26 -18 30 -32 55 -167 76 -413 191 -806 295 -1013 38 -75
135 -179 216 -232 35 -22 64 -42 64 -44 0 -2 -554 -4 -1231 -4 l-1231 0 56 37
c67 46 148 123 186 178 108 158 247 611 331 1078 46 257 45 256 197 182z
m1717 -1714 l100 -33 345 -7 c322 -7 349 -9 401 -29 121 -48 168 -134 176
-329 3 -68 10 -123 14 -123 5 0 9 -18 9 -40 0 -22 4 -40 8 -40 4 0 14 -16 21
-35 17 -49 147 -180 202 -204 24 -11 69 -23 99 -26 30 -4 79 -13 108 -21 l53
-15 -3 -132 -3 -132 -65 -6 c-103 -10 -5264 -10 -5368 1 -55 5 -103 15 -118
25 -23 15 -24 21 -24 110 0 93 0 94 30 115 16 12 76 33 132 46 56 14 116 33
132 41 41 21 139 121 161 163 10 19 22 38 27 41 6 4 13 27 15 53 3 26 10 49
14 52 5 3 9 45 9 94 0 131 26 205 92 265 56 50 94 73 173 100 41 15 102 19
355 25 301 8 306 8 400 38 52 16 104 32 115 35 11 3 531 4 1155 3 l1135 -1
100 -34z"/>
</g>
</svg>
