<?xml version="1.0" standalone="no"?>
<!DOCTYPE svg PUBLIC "-//W3C//DTD SVG 20010904//EN"
 "http://www.w3.org/TR/2001/REC-SVG-20010904/DTD/svg10.dtd">
<svg version="1.0" xmlns="http://www.w3.org/2000/svg"
 width="2048.000000pt" height="2048.000000pt" viewBox="0 0 2048.000000 2048.000000"
 preserveAspectRatio="xMidYMid meet">
<metadata>
Created by potrace 1.13, written by Peter Selinger 2001-2015
</metadata>
<g transform="translate(0.000000,2048.000000) scale(0.192120,-0.192120)"
fill="#000000" stroke="none">
<path d="M3925 10280 c-131 -23 -202 -42 -366 -96 -160 -53 -231 -92 -317
-177 -149 -147 -222 -420 -137 -512 23 -24 23 -27 18 -192 -17 -537 153 -998
404 -1093 50 -19 62 -20 88 -10 43 18 101 24 109 11 4 -6 24 -11 45 -11 38 0
257 35 284 46 8 3 18 -5 24 -18 l11 -23 12 26 c9 21 9 32 -3 61 -20 48 -73 72
-141 65 -57 -6 -219 -56 -224 -69 -2 -4 -21 -8 -41 -8 -30 0 -48 8 -84 40
-124 109 -227 290 -268 469 -25 108 -49 274 -55 374 -4 59 -11 107 -16 107 -4
0 -8 6 -8 14 0 13 -48 99 -87 154 l-15 22 62 0 c36 0 115 13 188 31 107 27
140 31 218 27 81 -3 100 -8 165 -40 99 -50 172 -115 196 -176 15 -39 18 -76
18 -210 0 -89 3 -154 7 -145 4 10 26 83 49 163 62 214 85 250 160 250 71 0
129 -85 129 -189 0 -108 -58 -219 -125 -241 -29 -10 -35 -16 -35 -40 0 -42 34
-122 87 -204 106 -163 274 -274 424 -277 46 -1 67 4 104 25 72 42 173 191 226
333 13 35 26 63 29 63 3 0 16 -16 28 -35 64 -93 196 -198 312 -246 113 -47
216 -64 400 -63 413 1 703 126 935 404 68 81 215 295 215 312 0 5 -19 -7 -42
-27 -97 -83 -251 -134 -401 -135 -194 0 -327 56 -572 240 -88 66 -190 136
-226 155 -163 85 -316 82 -501 -11 l-68 -33 0 37 c0 53 -17 145 -42 222 -98
307 -393 564 -731 635 -95 21 -316 18 -442 -5z m503 -268 c130 -42 222 -100
323 -201 91 -92 119 -139 163 -273 38 -117 73 -177 145 -249 91 -91 115 -98
255 -70 60 12 129 21 155 21 100 0 212 -50 363 -162 130 -97 216 -152 306
-197 95 -48 103 -66 44 -99 -76 -42 -203 -65 -372 -66 -243 -1 -347 30 -527
159 -146 104 -200 122 -267 90 -52 -25 -139 -108 -216 -206 -39 -50 -86 -99
-103 -110 -42 -25 -109 -25 -163 1 -72 36 -154 140 -154 197 0 10 12 40 26 67
48 91 64 152 64 253 0 81 -4 102 -28 156 -19 42 -45 77 -78 106 -81 72 -134
85 -230 56 -27 -8 -58 -12 -68 -9 -10 4 -59 37 -109 75 -104 79 -185 115 -289
127 -68 8 -107 6 -290 -14 l-68 -7 0 51 c0 48 3 54 53 104 72 74 187 126 392
180 175 45 273 58 430 54 135 -3 159 -6 243 -34z M10275 8847 c-145 -265 -429
-710 -631 -987 -352 -483 -636 -813 -1083 -1261 -468 -467 -834 -781 -1361
-1164 -187 -136 -193 -140 -261 -150 l-45 -7 -48 124 c-72 182 -112 253 -182
323 -81 81 -115 97 -726 340 l-498 198 0 369 0 368 34 0 c230 0 461 197 511
435 20 95 19 157 -5 250 -53 209 -216 366 -425 410 -55 11 -156 15 -460 15
l-390 0 -105 -105 c-58 -58 -108 -105 -112 -105 -5 0 -95 47 -201 105 l-193
105 -319 0 c-355 0 -414 -7 -523 -61 -78 -38 -180 -132 -226 -208 -134 -221
-100 -498 83 -680 96 -96 239 -161 356 -161 l34 0 3 -617 3 -618 25 -65 c14
-36 185 -331 380 -655 195 -324 356 -594 358 -600 1 -6 -37 -30 -85 -54 -464
-228 -1062 -628 -1458 -974 -205 -179 -151 -154 -543 -251 -497 -122 -892
-203 -1335 -271 -125 -19 -488 -65 -515 -65 -2 0 -1 -345 1 -768 3 -749 4
-769 25 -857 33 -133 59 -210 108 -308 160 -324 427 -510 799 -556 128 -16
8002 -16 8130 0 502 62 824 389 916 929 19 113 19 190 17 3892 l-3 3777 -50
-92z m-177 -4232 l-3 -3390 -31 -90 c-54 -153 -125 -260 -234 -355 -131 -112
-265 -165 -485 -189 -138 -16 -7910 -17 -8039 -1 -221 26 -403 103 -511 218
-65 68 -139 194 -181 308 l-29 79 -3 698 -3 697 25 0 c37 0 56 10 56 30 0 14
12 19 58 25 234 28 882 148 892 166 4 6 85 28 181 49 204 45 210 48 397 133
165 76 168 90 -21 -122 -134 -152 -244 -290 -358 -452 l-89 -127 -58 -7 c-88
-10 -130 -35 -212 -121 -98 -103 -148 -203 -195 -394 -16 -61 -21 -378 -7
-408 71 -146 79 -157 167 -246 106 -105 223 -181 379 -247 159 -66 223 -57
336 48 l57 53 84 -15 c421 -75 952 -86 1459 -29 827 91 1794 388 2550 781
1041 542 2566 1660 3298 2418 111 115 146 145 178 154 103 28 234 154 234 225
0 38 -56 132 -118 198 -103 109 -180 148 -354 183 -45 9 -91 19 -100 21 -30 9
-21 59 23 137 67 118 119 257 119 318 0 48 -36 114 -100 182 -87 93 -129 103
-208 48 -24 -17 -51 -20 -267 -25 -378 -8 -776 -52 -1369 -152 -115 -19 -216
-33 -225 -31 -9 2 15 19 55 39 170 87 410 242 544 351 291 237 794 720 1088
1046 92 101 194 212 227 246 33 34 80 90 105 124 25 34 79 106 120 159 102
131 267 350 378 502 108 147 121 163 147 178 16 9 22 8 33 -5 10 -14 12 -697
10 -3408z m-6001 3205 c23 -6 95 -34 160 -64 201 -92 240 -91 401 7 56 33 110
59 136 62 23 4 190 5 372 3 354 -5 389 -9 474 -63 73 -46 80 -65 80 -222 0
-198 -19 -230 -165 -279 -44 -15 -96 -37 -115 -49 -48 -31 -190 -179 -190
-199 0 -9 -4 -16 -10 -16 -6 0 -10 -132 -10 -375 0 -243 4 -375 10 -375 6 0
10 -8 10 -19 0 -58 162 -230 263 -279 34 -17 237 -101 450 -186 418 -167 507
-209 555 -259 16 -18 59 -86 94 -152 100 -190 244 -325 346 -325 20 0 31 4 27
10 -14 22 -15 64 -3 71 7 5 33 9 58 9 26 0 67 10 98 25 30 14 58 23 63 20 4
-3 34 8 66 24 191 96 357 138 768 192 133 17 161 18 168 7 7 -11 28 -11 113
-3 58 6 107 9 109 6 29 -28 -45 -85 -242 -185 -59 -30 -279 -129 -488 -221
-209 -91 -399 -177 -421 -190 -23 -14 -61 -47 -84 -75 -42 -50 -42 -50 -59
-29 -17 21 -17 20 -63 -47 -68 -103 -71 -111 -65 -174 9 -103 71 -218 175
-324 71 -72 104 -95 265 -181 174 -93 194 -112 263 -250 39 -77 76 -135 116
-179 63 -70 82 -79 93 -45 5 14 12 18 23 14 10 -4 26 -9 37 -12 11 -2 36 -9
55 -14 49 -15 113 8 492 171 238 101 305 127 312 116 7 -10 30 -4 112 32 114
50 149 52 118 5 -9 -15 -81 -91 -158 -169 -160 -160 -489 -428 -691 -562 -71
-48 -202 -139 -290 -203 -88 -63 -205 -146 -260 -183 -83 -57 -225 -165 -245
-186 -32 -35 -330 -232 -595 -393 -190 -115 -894 -461 -1134 -557 -508 -203
-930 -332 -1391 -424 -488 -97 -1131 -150 -1410 -116 -162 20 -192 39 -127 78
17 11 374 169 792 352 764 334 857 376 907 412 27 19 73 82 119 165 26 47 34
50 84 29 19 -8 35 -11 35 -5 0 5 -4 9 -10 9 -6 0 -10 31 -10 74 0 91 -11 119
-207 511 -77 154 -155 323 -173 375 -46 134 -69 176 -143 252 l-64 67 -12 -25
-11 -25 -28 19 c-15 10 -34 21 -43 24 -32 12 -130 -16 -329 -94 -113 -44 -245
-96 -295 -115 -91 -35 -271 -111 -535 -223 -80 -34 -185 -79 -235 -100 -49
-21 -160 -68 -245 -105 -203 -88 -257 -106 -264 -89 -9 23 6 49 64 116 99 116
165 164 318 239 123 60 153 79 210 136 68 66 302 266 422 359 215 168 459 332
715 485 99 59 187 113 196 121 8 8 44 32 80 53 35 22 87 61 115 87 l51 48 -5
-47 -4 -48 32 30 c45 42 115 142 140 199 11 26 20 69 20 96 0 99 -48 193 -375
740 -299 499 -315 528 -315 563 0 14 -7 44 -15 67 -13 36 -15 127 -15 576 0
344 -4 535 -10 539 -5 3 -10 15 -10 26 0 10 -4 19 -10 19 -5 0 -10 7 -10 14 0
21 -88 124 -149 175 -33 28 -88 58 -149 83 -119 47 -162 76 -191 129 -20 35
-22 51 -19 137 3 88 6 101 33 141 68 100 156 140 335 150 153 8 494 3 547 -9z
m5273 -2390 c0 -101 -62 -224 -207 -411 -49 -62 -143 -169 -210 -238 -67 -69
-121 -126 -120 -127 1 -1 49 2 107 6 281 24 574 -1 734 -61 62 -23 151 -98
144 -121 -3 -7 -15 -19 -29 -26 -13 -7 -409 -181 -879 -386 -470 -206 -881
-386 -912 -400 l-58 -26 0 45 c0 130 -61 268 -164 371 -66 65 -87 79 -289 180
l-219 110 -38 93 c-38 92 -38 92 -17 101 67 28 2041 892 2087 913 30 14 58 26
63 26 4 1 7 -22 7 -49z m-5310 -2347 c0 -60 7 -96 28 -153 45 -125 326 -672
377 -734 45 -56 45 -56 23 -66 -13 -5 -581 -253 -1263 -551 -682 -298 -1248
-542 -1257 -541 -29 1 -187 69 -266 114 -89 50 -183 134 -217 192 -38 66 -51
159 -36 269 13 99 68 276 124 397 l35 76 1163 509 c640 279 1189 521 1219 536
30 15 58 28 63 29 4 0 7 -35 7 -77z M5148 5367 c-46 -20 -135 -104 -162 -153
-18 -32 -26 -61 -26 -93 1 -135 149 -370 290 -461 37 -24 65 -33 110 -37 l61
-6 -6 45 -6 45 38 0 c84 -3 261 115 294 195 11 28 15 30 51 25 35 -5 38 -3 38
20 0 75 -106 215 -223 295 -155 106 -370 164 -459 125z m260 -285 l274 -110
-59 -16 c-32 -9 -114 -34 -183 -56 -68 -21 -125 -38 -126 -37 -1 1 -39 65 -86
142 -46 77 -93 153 -104 170 -14 22 -15 28 -4 23 8 -4 138 -56 288 -116z
M6095 4300 c4 -6 9 -24 11 -39 5 -27 3 -28 -48 -34 -99 -10 -626 -232 -699
-294 -15 -13 -17 -10 -13 27 l4 41 -73 -60 c-145 -120 -206 -211 -241 -360
-40 -171 -48 -232 -44 -362 l3 -124 54 -120 c29 -66 81 -183 115 -260 76 -175
100 -216 169 -288 55 -56 77 -69 77 -44 0 27 21 36 48 21 15 -8 38 -14 52 -14
15 0 30 -4 36 -10 6 -6 41 2 97 20 135 46 1078 453 1222 528 92 49 186 137
214 202 12 28 25 48 30 46 4 -3 21 -7 37 -10 l30 -6 -6 53 c-3 31 -18 73 -35
102 -46 78 -179 203 -270 254 -295 163 -301 170 -411 415 -66 147 -188 277
-287 305 -23 7 -50 15 -61 18 -12 3 -16 1 -11 -7z m165 -423 c128 -320 160
-353 523 -532 l229 -112 -43 -17 c-47 -19 -1339 -584 -1452 -635 -38 -17 -70
-31 -71 -31 -2 0 -6 28 -9 63 -9 88 -31 145 -145 373 l-100 200 51 256 51 257
430 189 c237 105 437 190 444 189 7 -1 49 -91 92 -200z M4598 8341 c-34 -34
-39 -45 -36 -77 3 -40 25 -62 88 -88 l36 -14 -15 109 c-9 60 -20 109 -24 109
-5 0 -27 -18 -49 -39z M2772 7463 c-364 -272 -619 -641 -721 -1041 -87 -340
-63 -764 66 -1154 46 -140 136 -211 268 -212 114 -1 206 56 253 157 38 83 37
127 -11 289 -112 376 -96 717 47 1013 87 180 216 341 384 478 43 35 58 53 50
59 -20 12 -184 9 -215 -4 -137 -59 -345 -347 -433 -600 -52 -153 -60 -214 -60
-488 0 -230 2 -260 25 -366 30 -138 34 -283 9 -308 -18 -18 -51 -20 -88 -6
-29 11 -81 85 -97 140 -46 152 -48 183 -49 553 0 328 2 364 20 435 58 220 174
425 353 620 42 47 77 89 77 94 0 4 27 41 61 81 33 39 72 97 86 127 28 60 83
191 83 196 0 13 -28 -4 -108 -63z M6020 7283 c1 -106 52 -223 130 -298 16 -16
30 -34 30 -40 0 -16 122 -113 227 -182 187 -122 369 -202 532 -234 59 -11 130
-25 159 -30 62 -12 80 -35 62 -79 -18 -43 -56 -54 -161 -46 -95 7 -286 51
-379 88 -161 63 -366 181 -547 314 -65 48 -141 97 -170 110 -47 21 -146 44
-246 58 l-38 5 21 -27 c12 -15 60 -63 108 -106 277 -252 572 -444 850 -551
190 -73 456 -118 566 -95 108 22 193 107 217 216 34 153 -83 313 -240 328
-224 22 -285 38 -458 121 -178 85 -351 207 -563 395 -97 86 -100 88 -100 53z"/>
</g>
</svg>
