<?xml version="1.0" standalone="no"?>
<!DOCTYPE svg PUBLIC "-//W3C//DTD SVG 20010904//EN"
 "http://www.w3.org/TR/2001/REC-SVG-20010904/DTD/svg10.dtd">
<svg version="1.0" xmlns="http://www.w3.org/2000/svg"
 width="2048.000000pt" height="2048.000000pt" viewBox="0 0 2048.000000 2048.000000"
 preserveAspectRatio="xMidYMid meet">
<metadata>
Created by potrace 1.13, written by Peter Selinger 2001-2015
</metadata>
<g transform="translate(0.000000,2048.000000) scale(0.192120,-0.192120)"
fill="#000000" stroke="none">
<path d="M955 10245 c-143 -31 -259 -96 -360 -199 -226 -233 -257 -600 -75
-873 18 -26 552 -568 1186 -1203 l1153 -1155 -31 -40 c-53 -70 -194 -286 -258
-399 -67 -116 -209 -405 -231 -469 l-13 -38 1395 -1395 c767 -767 1400 -1394
1406 -1394 19 0 38 64 38 130 0 53 -5 74 -28 115 -20 35 -398 419 -1271 1291
-812 811 -1248 1254 -1260 1279 -12 25 -16 49 -12 73 6 41 72 174 182 367 40
72 80 157 89 190 16 65 19 179 6 238 -5 20 -6 37 -3 37 3 0 62 -55 131 -123
142 -138 217 -200 411 -342 295 -216 639 -429 913 -565 771 -384 952 -184 548
605 -247 481 -630 1033 -910 1310 -56 55 -101 102 -101 106 0 3 24 2 53 -3 71
-14 199 -3 271 21 32 12 94 41 137 66 138 80 289 154 344 170 76 22 96 12 277
-151 195 -175 2184 -2159 2326 -2319 139 -158 2053 -2076 2342 -2348 323 -303
382 -364 414 -428 l28 -57 -4 -168 c-5 -158 -7 -175 -36 -258 -136 -384 -465
-814 -872 -1140 -266 -213 -338 -264 -505 -358 -239 -135 -488 -201 -673 -178
-116 14 -151 40 -421 304 -282 277 -345 326 -429 333 -59 5 -133 -14 -140 -35
-2 -6 171 -186 385 -401 l388 -390 70 -21 c98 -30 253 -37 375 -16 398 68 854
354 1305 817 277 285 463 530 587 774 128 250 172 409 173 620 0 119 -3 151
-23 215 l-23 75 -2709 2710 -2709 2709 -38 -13 c-65 -22 -352 -164 -468 -231
-113 -65 -329 -204 -401 -258 l-40 -31 -1140 1140 c-626 627 -1167 1160 -1201
1185 -158 114 -365 159 -548 119z m573 -230 c3 -2 -18 -30 -46 -62 -75 -87
-818 -823 -830 -823 -32 0 -26 503 7 589 48 127 165 243 286 284 58 19 565 30
583 12z m619 -897 c304 -304 553 -560 553 -568 0 -35 -55 -98 -288 -331 -163
-162 -256 -248 -275 -253 -18 -4 -41 0 -65 11 -43 19 -1058 1027 -1091 1083
-12 19 -21 44 -21 54 0 22 378 409 489 502 55 46 71 54 105 54 40 0 46 -5 593
-552z m900 -704 c17 -86 28 -117 57 -158 49 -72 502 -518 606 -597 47 -35 89
-74 94 -85 5 -12 25 -31 43 -44 42 -29 185 -178 259 -271 212 -266 520 -752
655 -1034 95 -199 111 -251 107 -355 l-3 -85 -57 3 c-188 8 -660 246 -1143
577 -349 239 -498 365 -603 512 -105 147 -240 299 -433 488 -201 196 -245 224
-396 251 -52 9 -93 21 -93 28 0 14 861 876 876 876 6 0 20 -48 31 -106z M5515
3104 c-177 -17 -283 -42 -421 -97 -190 -77 -330 -171 -480 -322 -187 -190
-311 -425 -371 -705 -25 -117 -25 -399 0 -522 107 -530 505 -952 1022 -1083
689 -175 1388 191 1643 860 108 281 115 618 21 910 -135 415 -467 751 -879
889 -154 52 -398 83 -535 70z m420 -157 c33 -24 70 -54 82 -66 12 -11 27 -21
33 -21 5 0 10 -5 10 -10 0 -6 20 -20 45 -32 25 -12 45 -25 45 -29 0 -4 37 -29
82 -55 202 -119 359 -287 452 -485 97 -207 99 -214 103 -488 5 -266 2 -289
-50 -401 -41 -89 -139 -254 -199 -334 -89 -119 -205 -223 -328 -295 -90 -53
-114 -70 -244 -176 -37 -30 -77 -60 -87 -65 -17 -9 -17 -8 -6 22 9 25 12 318
12 1208 l0 1176 -30 61 -31 61 26 -13 c14 -7 52 -33 85 -58z m-574 11 l-26
-53 -3 -1165 c-2 -809 1 -1178 8 -1209 6 -24 9 -45 7 -47 -4 -4 -156 119 -172
140 -5 7 -18 15 -27 19 -10 3 -18 11 -18 16 0 6 -30 26 -67 46 -202 106 -410
331 -501 540 -69 159 -66 146 -70 451 -4 322 0 347 73 501 107 228 269 404
480 523 33 19 78 54 100 78 102 113 212 212 235 212 4 0 -5 -24 -19 -52z m313
-134 c14 -6 16 -112 16 -1099 0 -987 -2 -1093 -16 -1099 -28 -11 -140 -6 -152
6 -9 9 -12 267 -12 1099 0 1027 1 1088 18 1092 26 7 128 8 146 1z"/>
</g>
</svg>
