<?xml version="1.0" standalone="no"?>
<!DOCTYPE svg PUBLIC "-//W3C//DTD SVG 20010904//EN"
 "http://www.w3.org/TR/2001/REC-SVG-20010904/DTD/svg10.dtd">
<svg version="1.0" xmlns="http://www.w3.org/2000/svg"
 width="2048.000000pt" height="2048.000000pt" viewBox="0 0 2048.000000 2048.000000"
 preserveAspectRatio="xMidYMid meet">
<metadata>
Created by potrace 1.13, written by Peter Selinger 2001-2015
</metadata>
<g transform="translate(0.000000,2048.000000) scale(0.192120,-0.192120)"
fill="#000000" stroke="none">
<path d="M4012 10309 c-188 -33 -360 -155 -435 -309 -69 -140 -99 -324 -78
-474 13 -92 15 -88 -71 -106 -32 -7 -61 -17 -65 -23 -3 -6 5 -19 18 -30 22
-18 35 -19 140 -14 l117 5 21 -55 c44 -115 152 -238 275 -312 78 -47 210 -90
298 -97 76 -7 169 11 211 41 17 12 28 8 90 -30 l70 -44 18 -70 c24 -93 61
-164 119 -225 43 -46 58 -77 159 -326 61 -152 111 -288 111 -303 0 -23 -7 -31
-35 -43 -67 -27 -231 -37 -424 -25 l-178 11 -97 50 c-53 27 -102 50 -109 50
-13 0 -197 157 -197 168 0 4 30 15 67 25 89 23 180 69 239 121 l49 44 -80 6
c-130 10 -290 44 -387 81 -125 49 -231 108 -261 148 -37 49 -209 196 -305 261
-154 104 -305 170 -517 226 -116 31 -125 32 -275 27 -124 -4 -175 -10 -255
-31 -105 -27 -342 -137 -352 -162 -3 -8 -9 -14 -14 -14 -4 0 -59 32 -121 71
-201 127 -390 229 -424 229 -2 0 -4 -7 -4 -15 0 -8 34 -52 76 -97 42 -46 93
-112 114 -148 41 -69 84 -188 78 -217 -2 -10 -34 -35 -72 -55 -190 -104 -383
-305 -507 -528 -111 -201 -236 -421 -320 -562 l-87 -147 174 -170 c96 -94 174
-173 174 -176 0 -3 -7 -5 -15 -5 -25 0 -93 -69 -100 -101 -10 -43 3 -86 37
-125 l30 -34 -23 -1 c-55 -4 -166 4 -189 13 -40 15 -70 49 -70 79 0 28 18 38
70 39 32 1 92 22 126 45 l27 17 -154 154 c-84 84 -156 151 -159 149 -12 -7
-149 -239 -171 -290 -28 -62 -23 -149 11 -220 50 -105 181 -204 291 -220 86
-13 123 6 240 121 l106 105 154 65 c210 90 476 190 710 267 285 94 247 99 311
-35 131 -272 333 -616 491 -837 107 -149 308 -399 469 -584 l129 -148 -7 -102
c-8 -120 8 -283 38 -395 11 -42 21 -84 22 -93 0 -9 -53 -59 -126 -118 -460
-370 -805 -704 -940 -908 -124 -186 -320 -611 -388 -842 -71 -237 -69 -272 55
-901 13 -69 29 -179 35 -245 24 -252 74 -409 142 -446 74 -40 311 100 411 243
l40 57 -12 85 c-14 102 -44 223 -67 271 -13 28 -22 35 -44 35 -24 0 -35 13
-93 108 -138 228 -217 416 -219 521 -1 50 6 71 49 157 158 316 397 598 743
876 93 74 97 79 156 195 279 537 354 684 354 693 0 6 -11 33 -25 60 -14 27
-25 54 -25 59 0 6 22 22 49 36 27 13 59 38 71 55 20 28 21 39 16 133 -3 56 -8
179 -12 272 -3 94 -10 174 -15 180 -5 5 -9 16 -9 25 0 29 -66 153 -120 225
-29 39 -103 131 -164 205 -311 375 -433 548 -636 902 -38 65 -87 141 -110 168
-46 55 -140 116 -234 151 l-59 23 54 18 c230 78 774 196 1169 252 250 36 236
36 311 -11 142 -89 324 -169 491 -214 l88 -24 -6 -135 c-3 -74 -12 -200 -20
-279 -20 -206 -20 -924 1 -1062 43 -288 92 -423 179 -491 92 -74 156 -88 385
-88 167 0 167 0 212 29 25 15 56 41 68 57 l23 29 -269 7 c-147 4 -287 10 -309
13 l-42 6 -40 167 c-76 313 -87 406 -87 752 0 239 5 355 22 535 12 127 25 266
29 310 6 75 7 79 23 60 9 -11 31 -32 49 -47 45 -38 87 -36 171 6 l68 35 0
-187 c-1 -139 3 -205 16 -258 49 -215 143 -354 298 -447 35 -20 68 -37 74 -37
5 1 20 22 32 48 33 70 78 112 120 112 69 0 139 -55 205 -162 22 -36 36 -48 54
-48 33 0 32 29 -6 108 -57 121 -175 243 -260 271 -28 9 -48 8 -93 -4 -86 -22
-128 -1 -175 90 -20 39 -27 69 -30 138 l-4 87 26 0 c16 0 26 5 26 15 0 8 6 15
13 15 18 -1 100 -24 113 -32 21 -14 142 -21 173 -10 l30 11 37 -77 c100 -210
150 -343 199 -534 l32 -127 -41 -15 c-22 -9 -66 -25 -96 -36 -30 -11 -58 -20
-61 -20 -3 0 -11 19 -18 43 -16 51 -53 103 -82 112 -86 28 -118 -225 -54 -427
27 -83 27 -88 11 -113 -9 -14 -30 -28 -47 -32 l-30 -6 6 -61 c3 -33 16 -302
30 -596 14 -294 27 -590 31 -657 4 -68 4 -123 1 -123 -3 0 -53 25 -110 55 -57
30 -107 52 -110 49 -4 -4 -12 -2 -19 4 -21 17 -450 -2 -513 -23 -76 -26 -238
-110 -475 -247 -118 -68 -246 -141 -285 -162 -182 -99 -473 -302 -610 -426
l-80 -72 -3 47 c-2 31 6 73 24 127 54 162 59 215 25 267 -15 24 -66 51 -96 51
-40 0 -259 -528 -299 -724 -26 -122 -23 -145 28 -214 144 -195 508 -528 761
-697 204 -136 291 -171 576 -234 535 -118 900 -118 957 2 36 75 -58 303 -176
425 l-52 54 -173 -4 c-208 -5 -230 -12 -235 -75 l-3 -41 -96 -7 c-53 -4 -151
-5 -218 -3 -104 4 -129 9 -180 32 -179 82 -473 324 -661 544 -84 99 -118 155
-110 186 23 93 511 439 1256 893 l165 100 280 6 c279 5 591 31 760 62 44 8
143 26 219 41 368 67 798 199 1023 313 34 17 66 31 70 31 4 0 8 -100 8 -223 0
-290 29 -503 99 -722 53 -167 35 -194 -179 -273 -77 -28 -318 -116 -535 -196
-608 -222 -653 -240 -693 -285 -106 -117 -245 -448 -277 -657 -7 -44 -25 -133
-40 -199 -64 -270 -65 -411 -3 -473 24 -24 28 -24 116 -19 61 3 117 14 166 31
84 29 188 85 215 115 24 26 43 109 57 251 13 137 6 167 -42 177 l-32 6 7 166
c8 180 21 308 37 358 12 37 -24 26 432 124 690 147 1099 265 1216 349 23 17
51 51 66 79 65 129 173 443 215 624 12 53 28 97 34 97 6 0 29 -60 50 -132 49
-169 230 -714 290 -877 25 -69 46 -130 46 -137 0 -7 -28 -28 -63 -47 -217
-122 -992 -721 -1248 -965 -53 -50 -88 -94 -113 -142 -44 -84 -114 -291 -151
-450 -15 -63 -36 -145 -46 -181 -56 -196 -82 -414 -60 -496 17 -63 49 -83 133
-83 39 0 98 7 132 16 82 21 217 86 259 126 31 31 35 41 50 140 10 59 17 145
17 192 0 91 -8 106 -60 106 -11 0 -23 7 -26 15 -4 8 3 88 15 178 21 172 57
306 92 351 47 60 231 168 878 516 624 335 788 434 838 509 12 18 27 57 33 88
16 73 10 110 -95 618 -47 226 -111 539 -143 698 l-58 287 66 39 c209 125 475
371 641 593 158 212 281 453 350 681 103 346 92 731 -28 970 -13 27 -23 50
-21 51 2 1 38 10 82 20 109 25 215 81 327 174 274 227 393 514 345 830 -28
182 -108 386 -214 546 -50 75 -257 289 -481 497 -302 279 -411 457 -455 744
l-14 90 -1 -175 c-2 -331 44 -659 125 -898 14 -43 52 -126 83 -187 59 -116 78
-138 313 -361 68 -65 93 -96 124 -159 38 -77 39 -82 39 -184 0 -95 -3 -112
-27 -161 -79 -160 -273 -315 -489 -389 l-56 -19 -64 45 c-235 165 -551 258
-957 283 -160 9 -325 5 -897 -25 -55 -3 -239 -9 -410 -15 -170 -5 -395 -14
-500 -19 -104 -6 -272 -13 -372 -17 -183 -6 -183 -6 -183 -29 0 -19 -10 -27
-52 -43 -29 -11 -147 -57 -262 -101 -115 -45 -214 -80 -220 -78 -6 2 -29 57
-51 123 l-40 119 -240 7 c-272 8 -369 18 -508 52 -95 24 -162 59 -248 131 -18
14 -47 24 -85 28 -78 8 -208 42 -261 68 -105 51 -130 108 -113 257 20 188 80
295 178 322 65 17 86 11 90 -25 6 -66 34 -136 72 -184 22 -28 40 -56 40 -64 0
-7 4 -17 9 -23 5 -5 14 -43 20 -84 6 -41 23 -121 38 -177 26 -96 29 -103 53
-103 l25 0 23 230 c12 126 25 236 28 245 5 12 17 5 58 -31 66 -60 120 -94 149
-94 13 0 32 -7 43 -15 26 -19 186 -20 278 0 79 17 131 47 194 113 132 138 130
214 -15 557 -87 207 -133 261 -274 331 -81 40 -89 54 -89 153 0 122 69 224
188 279 70 32 183 29 252 -6 60 -31 117 -87 145 -142 46 -92 206 -541 238
-670 l13 -55 60 1 c32 1 127 3 209 5 169 4 206 -4 311 -67 50 -30 63 -34 84
-26 502 200 875 353 878 360 1 5 -33 62 -77 128 -278 418 -719 720 -1199 821
-109 23 -151 26 -297 26 -239 0 -401 -37 -593 -135 -104 -52 -107 -52 -155 11
-23 29 -28 42 -23 71 29 168 29 236 0 352 -8 31 -11 63 -8 72 4 9 -6 31 -23
53 -17 21 -53 75 -82 120 -90 141 -206 232 -342 269 -71 19 -201 25 -267 13z
m284 -275 c43 -22 133 -68 199 -102 66 -34 133 -73 150 -86 l30 -24 -90 -27
c-79 -24 -321 -123 -397 -161 l-26 -14 67 -65 c37 -36 73 -65 79 -65 27 0 41
42 35 106 -5 58 -4 64 21 89 41 41 92 17 127 -60 21 -45 25 -145 7 -163 -19
-19 -14 -21 150 -48 31 -5 32 -6 26 -45 -7 -44 8 -69 59 -95 l27 -15 -46 -57
c-45 -54 -104 -163 -104 -189 0 -7 -2 -13 -4 -13 -2 0 -31 27 -65 59 -69 69
-95 77 -201 67 -135 -14 -252 25 -329 109 -52 56 -51 69 17 157 26 34 56 87
68 118 12 30 25 63 29 73 7 18 6 18 -31 2 -22 -10 -56 -24 -76 -32 -23 -10
-41 -26 -49 -45 -21 -50 -83 -94 -160 -113 -54 -14 -73 -15 -82 -6 -8 8 -12
68 -12 194 0 166 2 187 23 239 49 123 123 198 234 239 42 15 74 19 149 17 90
-3 100 -5 175 -44z m1489 -864 c273 -61 515 -183 740 -372 109 -91 132 -115
140 -149 5 -20 1 -32 -15 -47 -42 -39 -378 -171 -437 -172 -17 0 -82 16 -145
36 -98 31 -131 36 -246 41 l-133 6 -29 37 c-17 21 -57 112 -95 211 -36 96 -90
222 -120 281 -53 105 -63 136 -47 153 13 14 293 -4 387 -25z m-3886 -411 c15
-12 40 -19 70 -19 l46 -1 -47 -25 c-63 -32 -158 -54 -241 -54 l-69 0 40 43
c22 23 49 52 59 64 10 12 36 33 58 48 l40 26 10 -32 c6 -17 21 -40 34 -50z
m296 -25 c154 -19 260 -50 374 -110 162 -85 258 -183 380 -387 87 -143 204
-300 303 -403 44 -46 79 -86 77 -87 -2 -2 -62 -11 -133 -21 -253 -33 -815
-156 -1039 -227 -54 -17 -100 -29 -103 -26 -3 2 -9 229 -14 503 -5 275 -12
558 -14 630 -3 72 -3 134 1 137 9 10 21 9 168 -9z m831 -78 c121 -59 231 -135
344 -235 104 -92 193 -161 270 -206 36 -21 68 -44 72 -49 13 -19 9 -76 -8
-111 -22 -46 -126 -151 -158 -159 -42 -10 -99 10 -140 51 -54 54 -185 231
-309 420 -58 89 -128 188 -154 220 -60 72 -84 109 -76 117 15 15 58 2 159 -48z
m-1415 -311 c189 -65 230 -323 70 -441 -169 -123 -401 -7 -401 201 0 175 167
296 331 240z m-374 -590 c165 -134 316 -158 476 -76 42 22 57 26 57 15 0 -17
12 -18 28 -2 9 9 12 5 12 -20 0 -18 4 -32 9 -32 5 0 12 -8 15 -18 11 -33 69
-90 128 -125 l57 -34 -77 -26 c-42 -15 -165 -56 -272 -93 -107 -36 -301 -108
-431 -160 -130 -52 -239 -94 -242 -94 -3 0 -1 17 5 38 18 63 5 149 -36 234
-20 42 -36 86 -36 99 0 39 125 265 178 322 14 15 34 27 43 27 10 0 48 -25 86
-55z m2423 -5 c-52 -66 -84 -83 -164 -88 -61 -3 -75 -1 -97 17 -15 11 -29 32
-31 45 -5 23 -1 25 61 36 55 10 148 21 244 29 16 1 13 -6 -13 -39z m3418 -665
c24 -19 53 -37 64 -41 32 -10 79 4 128 36 l45 30 11 -38 c20 -66 43 -257 69
-566 34 -403 84 -730 141 -928 4 -14 -13 -22 -88 -47 -376 -120 -896 -189
-1706 -227 l-143 -7 28 -30 c31 -33 96 -66 131 -67 12 0 22 -5 22 -11 0 -9 30
-10 105 -7 65 4 108 2 111 -4 7 -10 30 -9 379 18 211 16 473 47 580 69 39 8
112 21 162 30 291 49 421 108 495 224 25 40 28 54 28 126 0 44 -11 143 -24
220 -55 316 -96 712 -96 936 l0 129 45 0 c39 0 47 4 55 24 l9 24 236 7 c446
14 755 -30 1019 -146 226 -100 275 -105 354 -34 l50 45 50 -46 c77 -68 193
-233 192 -271 0 -4 -25 -19 -56 -32 -93 -41 -90 -21 -85 -446 4 -422 4 -418
-85 -672 -117 -332 -314 -589 -673 -878 -135 -108 -217 -199 -258 -285 -23
-49 -25 -62 -19 -135 22 -297 23 -301 136 -851 l71 -341 -3 -144 -3 -144 -65
-43 c-148 -97 -320 -174 -320 -143 0 5 29 47 64 95 106 142 124 218 86 364
-32 127 -265 795 -299 858 -37 70 -70 110 -131 158 -58 46 -100 48 -131 7 -21
-29 -22 -29 -62 -15 -149 53 -360 195 -507 343 -118 119 -185 213 -230 322
-18 47 -42 86 -65 107 -52 48 -95 44 -290 -24 -265 -92 -302 -104 -517 -158
-113 -29 -212 -57 -220 -63 -7 -6 -27 -15 -43 -19 -36 -8 -76 -36 -172 -122
-49 -43 -74 -60 -77 -51 -6 17 -20 209 -46 639 -11 179 -27 434 -36 568 -9
134 -14 245 -12 247 2 3 67 16 144 30 276 51 523 116 572 150 19 14 22 25 22
83 0 75 -33 230 -79 372 l-31 95 40 80 c25 50 48 119 61 180 40 183 37 175 77
192 19 8 126 34 237 58 317 69 450 119 485 185 14 26 18 26 68 -15z m-1061
-114 c44 -21 83 -46 87 -56 8 -21 8 -178 -1 -334 l-6 -123 -59 154 c-68 180
-138 375 -138 389 0 18 37 8 117 -30z m-246 -251 c37 -21 84 -147 99 -270 5
-41 16 -104 25 -140 23 -93 31 -253 14 -267 -26 -19 -66 -24 -79 -8 -7 8 -16
13 -20 10 -4 -2 -10 30 -13 73 -4 58 -18 111 -57 217 -129 352 -129 349 -45
379 50 18 52 18 76 6z m-2766 -2439 c8 -15 -29 -104 -60 -146 -26 -33 -133
-115 -151 -115 -4 0 -35 -18 -70 -40 -111 -70 -76 -2 67 131 211 196 202 188
214 170z m4285 -366 c30 -22 81 -58 112 -78 38 -25 60 -47 64 -64 11 -41 -49
-232 -112 -361 -57 -115 -98 -162 -142 -162 -31 0 -28 28 9 102 30 60 31 66
26 158 -3 52 -15 129 -27 170 -12 44 -23 123 -27 189 l-6 113 24 -12 c13 -7
49 -32 79 -55z m-2860 -1932 c0 -24 -19 -13 -80 44 -104 96 -105 112 -18 220
l52 64 23 -158 c12 -87 22 -164 23 -170z m-2185 194 l69 -33 -115 -37 c-63
-20 -120 -37 -126 -37 -18 0 14 83 42 114 31 34 46 33 130 -7z m3376 -34 l54
-58 -67 -3 c-38 -2 -97 -2 -132 0 l-65 3 32 35 c43 48 86 80 107 80 9 0 41
-26 71 -57z m1213 -1066 c17 -18 50 -55 72 -83 l42 -49 -152 3 c-225 4 -211
-2 -144 65 60 59 113 97 137 97 7 0 28 -15 45 -33z M2164 8163 c3 -296 9 -560
13 -586 l6 -48 30 28 c40 37 127 171 127 194 0 11 5 19 10 19 6 0 10 118 10
334 0 213 -4 337 -10 341 -5 3 -10 13 -10 22 0 39 -144 233 -173 233 -7 0 -8
-173 -3 -537z M1459 8207 c-88 -59 -59 -203 44 -222 50 -10 85 1 117 35 75 80
19 210 -90 210 -22 0 -51 -9 -71 -23z M7094 8439 c-5 -19 -8 -115 -6 -213 3
-172 2 -181 -23 -247 -38 -98 -96 -159 -200 -208 -101 -48 -186 -74 -470 -144
-244 -60 -333 -92 -414 -146 -101 -67 -144 -153 -99 -198 15 -15 20 -13 57 19
85 73 201 115 508 184 374 84 550 154 667 268 132 128 180 313 123 476 -21 59
-83 175 -120 224 -14 19 -15 18 -23 -15z M5470 8200 c-30 -10 -62 -28 -72 -39
-23 -29 -33 -121 -19 -176 6 -24 11 -78 11 -120 0 -65 -4 -84 -31 -135 -40
-77 -115 -145 -182 -165 -107 -32 -276 -57 -425 -62 -84 -3 -155 -10 -158 -14
-3 -5 -21 -9 -40 -9 -37 0 -59 -10 -117 -54 -36 -27 -74 -82 -64 -93 10 -9
195 -22 322 -23 346 0 547 60 696 209 139 139 193 292 178 501 -7 104 -26 200
-38 200 -3 -1 -31 -9 -61 -20z M5823 8032 c-95 -32 -175 -61 -179 -65 -12 -12
25 -44 75 -66 39 -16 55 -18 82 -11 18 6 41 7 51 4 41 -13 155 61 178 116 15
37 6 80 -18 80 -9 0 -94 -26 -189 -58z"/>
</g>
</svg>
