<?xml version="1.0" standalone="no"?>
<!DOCTYPE svg PUBLIC "-//W3C//DTD SVG 20010904//EN"
 "http://www.w3.org/TR/2001/REC-SVG-20010904/DTD/svg10.dtd">
<svg version="1.0" xmlns="http://www.w3.org/2000/svg"
 width="2048.000000pt" height="2048.000000pt" viewBox="0 0 2048.000000 2048.000000"
 preserveAspectRatio="xMidYMid meet">
<metadata>
Created by potrace 1.13, written by Peter Selinger 2001-2015
</metadata>
<g transform="translate(0.000000,2048.000000) scale(0.192120,-0.192120)"
fill="#000000" stroke="none">
<path d="M1359 10318 c-60 -16 -130 -77 -164 -143 l-30 -59 0 -755 c0 -600 3
-764 13 -793 20 -57 93 -132 153 -158 42 -18 66 -21 123 -18 81 4 129 24 179
75 43 42 67 90 76 152 l7 46 13 -55 c31 -141 128 -220 268 -220 116 0 207 59
253 163 21 47 21 56 21 806 0 662 -2 764 -15 796 -59 140 -217 209 -358 155
-69 -26 -142 -100 -159 -163 -6 -23 -15 -53 -19 -67 -8 -23 -8 -22 -9 10 -2
53 -43 132 -91 173 -71 60 -166 81 -261 55z m214 -370 c107 -62 132 -70 175
-58 20 5 71 30 112 55 48 29 86 45 107 45 l33 0 0 -605 c0 -531 -2 -605 -15
-605 -10 0 -15 -11 -15 -35 0 -47 -13 -46 -127 16 -117 63 -142 63 -258 -4
-44 -25 -92 -48 -107 -51 -27 -6 -28 -5 -28 33 0 25 -5 41 -15 45 -13 5 -15
81 -15 600 0 556 1 596 18 605 24 14 57 4 135 -41z M8579 10316 c-56 -20 -104
-53 -133 -91 -60 -78 -57 -40 -57 -866 0 -750 0 -759 21 -806 46 -104 137
-163 253 -163 140 0 237 79 268 220 l13 55 7 -46 c9 -62 33 -110 76 -152 50
-51 98 -71 179 -75 90 -5 156 21 215 85 79 86 74 26 74 878 0 752 0 761 -21
806 -80 173 -292 223 -434 102 -48 -41 -89 -120 -91 -173 -1 -39 0 -40 -30 59
-39 130 -209 214 -340 167z m189 -352 c23 -13 63 -36 88 -50 71 -41 106 -37
211 24 56 32 102 52 122 52 l31 0 0 -605 c0 -531 -2 -605 -15 -605 -10 0 -15
-11 -15 -35 0 -48 -17 -46 -115 11 -115 68 -141 69 -258 6 -52 -28 -106 -53
-120 -56 -25 -4 -27 -2 -27 34 0 24 -5 40 -15 44 -13 5 -15 81 -15 600 0 556
1 596 18 605 22 13 56 5 110 -25z M2383 9493 c-24 -2 -43 -6 -43 -8 0 -1 16
-26 35 -55 19 -29 35 -62 35 -74 0 -12 -16 -45 -35 -73 -19 -29 -35 -55 -35
-58 0 -3 487 -5 1083 -5 l1082 -1 -65 -34 c-131 -70 -229 -171 -300 -307 -65
-125 -80 -201 -80 -412 0 -329 50 -520 170 -650 l38 -41 4 -180 c4 -153 9
-195 31 -279 77 -290 280 -541 545 -675 l62 -31 0 -70 c0 -75 -1 -75 60 -47
78 36 47 107 -112 263 -52 50 -122 131 -156 180 -34 49 -78 109 -97 134 -87
113 -148 285 -180 502 -9 62 -18 127 -21 145 -6 39 -44 86 -96 119 -38 24 -38
25 -38 89 0 59 2 65 23 69 172 32 237 65 337 165 113 114 180 256 221 464 23
117 23 137 5 137 -34 0 -103 -90 -174 -228 -107 -207 -160 -271 -267 -323 -79
-38 -99 -38 -119 5 -13 28 -16 73 -16 261 0 220 1 228 25 279 13 28 54 88 91
131 123 148 153 202 157 277 l2 53 44 5 c39 4 42 7 28 19 -33 26 -21 48 29 55
26 3 329 6 674 6 345 0 648 -3 674 -6 36 -5 46 -11 46 -26 0 -10 -7 -21 -15
-24 -28 -11 -15 -24 23 -24 42 0 71 -13 53 -24 -17 -11 -13 -81 9 -136 11 -28
47 -94 81 -147 75 -120 122 -212 143 -282 21 -72 23 -427 3 -455 -13 -18 -23
-18 -178 -7 -296 21 -441 46 -643 111 -225 73 -351 164 -504 367 -49 66 -103
113 -130 113 -6 0 -8 -17 -5 -42 31 -271 242 -481 604 -601 197 -66 401 -100
702 -119 l197 -12 0 -107 0 -107 -32 -20 c-18 -12 -45 -33 -59 -49 -28 -30
-89 -194 -89 -239 0 -15 -7 -63 -16 -108 -18 -92 -61 -179 -133 -270 -26 -34
-73 -100 -104 -148 -33 -50 -96 -124 -148 -175 -117 -113 -159 -171 -159 -214
0 -36 18 -54 72 -70 l28 -8 0 70 0 69 63 31 c338 171 555 509 574 894 l6 119
45 74 c56 92 105 212 134 327 20 79 23 114 22 280 0 174 -3 198 -28 290 -53
197 -183 418 -318 539 l-61 56 1066 0 c587 0 1067 3 1067 6 0 4 -16 29 -35 55
-44 61 -44 90 0 154 l34 50 -47 7 c-49 6 -5814 7 -5889 1z M1064 9446 c-58
-58 -44 -165 26 -201 l31 -16 -8 28 c-10 36 -10 160 0 196 10 37 -7 35 -49 -7z
M9547 9453 c10 -36 10 -160 0 -196 l-8 -28 31 16 c70 36 84 143 26 201 -42 42
-59 44 -49 7z M2841 9143 c-6 -21 -11 -52 -11 -69 0 -36 893 -2936 942 -3059
70 -178 173 -307 291 -365 103 -51 108 -41 36 75 -98 159 -164 299 -213 455
-24 80 -201 651 -392 1270 -485 1576 -467 1520 -527 1610 -33 49 -97 120 -109
120 -4 0 -12 -17 -17 -37z M7754 9138 c-90 -95 -117 -144 -171 -308 -125 -380
-692 -2235 -725 -2370 -76 -313 -143 -481 -281 -710 -86 -141 -85 -149 17
-102 113 53 223 188 290 355 45 114 946 3037 946 3071 0 38 -18 106 -28 106
-4 0 -26 -19 -48 -42z M3328 9143 c-76 -82 -79 -160 -14 -374 14 -46 111 -363
217 -704 105 -341 238 -773 295 -960 170 -555 187 -595 254 -630 16 -8 52 -18
79 -21 l50 -5 -15 53 c-19 66 -755 2450 -795 2576 -17 50 -33 92 -38 92 -4 0
-19 -12 -33 -27z M7255 9058 c-51 -160 -771 -2492 -789 -2556 l-15 -53 45 5
c50 6 91 25 115 52 32 37 57 102 132 344 41 135 197 639 346 1120 149 481 278
907 287 947 20 90 8 161 -37 216 -17 20 -34 37 -39 37 -5 0 -25 -51 -45 -112z
M4748 7784 c-30 -16 -58 -61 -58 -94 0 -61 70 -118 130 -105 33 7 76 51 85 86
9 38 -18 95 -54 113 -37 20 -68 20 -103 0z M5804 7781 c-36 -22 -59 -78 -49
-113 11 -34 54 -76 85 -83 60 -13 130 44 130 105 0 54 -57 110 -112 110 -13 0
-37 -9 -54 -19z M5123 7331 c6 -53 49 -117 97 -146 27 -15 52 -20 110 -20 58
0 83 5 110 20 48 29 91 93 97 146 l5 44 -212 0 -212 0 5 -44z M4905 6928 c22
-72 79 -122 181 -161 53 -20 76 -22 244 -22 166 0 191 3 244 23 102 37 159 88
181 160 l6 22 -431 0 -431 0 6 -22z M4220 4914 l0 -1525 -140 -695 c-77 -382
-140 -696 -140 -697 0 -1 35 -2 78 -1 42 1 230 2 417 3 l340 1 138 415 139
415 278 0 278 0 139 -415 138 -415 340 -1 c187 -1 375 -2 417 -3 43 -1 78 0
78 1 0 1 -63 315 -140 697 l-140 695 0 1525 0 1526 -344 0 -344 0 -3 -123 c-4
-114 -6 -127 -36 -188 -42 -84 -118 -160 -202 -202 -62 -30 -71 -32 -181 -32
-110 0 -119 2 -181 32 -84 42 -160 118 -202 202 -30 61 -32 74 -36 188 l-3
123 -344 0 -344 0 0 -1526z m450 1276 c6 -11 16 -20 23 -20 7 0 42 -51 79
-112 127 -213 290 -332 490 -358 249 -31 488 111 624 370 20 39 47 81 60 93
13 12 24 28 24 35 0 9 27 12 100 12 93 0 100 -1 100 -20 0 -13 7 -20 20 -20
20 0 20 -7 20 -960 0 -633 3 -960 10 -960 6 0 10 -18 10 -40 0 -22 5 -40 10
-40 6 0 10 -9 10 -20 0 -11 4 -20 8 -20 5 0 16 -15 25 -32 10 -18 35 -57 57
-87 22 -29 37 -58 34 -62 -7 -12 -2081 -12 -2088 0 -3 5 16 40 43 77 62 89 91
149 91 191 0 18 5 33 10 33 7 0 10 327 10 960 0 847 2 960 15 960 8 0 15 9 15
20 0 19 7 20 95 20 84 0 95 -2 105 -20z m1470 -2530 l0 -30 -820 0 -820 0 0
30 0 30 820 0 820 0 0 -30z m157 -276 l90 -7 -53 -103 c-51 -99 -54 -108 -54
-179 0 -51 19 -171 60 -378 58 -292 73 -431 54 -481 -5 -14 -28 -16 -149 -16
-140 0 -144 1 -174 26 -42 35 -77 114 -156 352 -58 176 -74 212 -119 275 -56
79 -153 159 -213 177 -57 18 -354 25 -443 11 -93 -15 -145 -44 -230 -130 -84
-86 -109 -134 -185 -359 -73 -217 -93 -264 -133 -312 l-30 -35 -156 -3 -155
-3 -7 26 c-13 52 5 182 66 490 77 390 78 420 8 554 l-47 90 62 4 c115 6 1873
7 1964 1z M4076 1913 c20 -82 208 -802 231 -882 l27 -94 23 29 c57 70 66 100
60 213 -4 86 -15 142 -57 296 -64 237 -96 301 -197 395 -41 39 -79 70 -84 70
-5 0 -6 -12 -3 -27z M6512 1887 c-126 -105 -161 -175 -237 -470 -67 -265 -64
-331 23 -445 l27 -35 18 59 c10 32 68 250 128 484 61 234 113 433 115 443 8
27 -7 20 -74 -36z M4601 1892 c-77 -98 -81 -166 -22 -402 58 -231 97 -341 145
-410 53 -76 190 -231 194 -219 5 13 -261 1028 -277 1057 -6 10 -16 4 -40 -26z
M6001 1863 c-27 -92 -249 -939 -257 -983 l-7 -35 45 50 c180 201 194 229 290
597 53 207 56 279 14 355 -16 29 -37 60 -47 69 -17 15 -19 12 -38 -53z M4380
880 c-223 -22 -365 -91 -419 -204 -18 -37 -21 -61 -21 -194 l0 -152 555 0 555
0 0 155 c0 135 -3 161 -20 194 -28 55 -112 126 -178 151 -115 43 -320 65 -472
50z m204 -259 c9 -13 -48 -24 -84 -16 -44 10 -26 25 30 25 27 0 51 -4 54 -9z
M6045 879 c-170 -14 -276 -50 -348 -118 -81 -75 -87 -95 -87 -276 l0 -155 555
0 555 0 0 152 c0 174 -10 209 -82 274 -77 69 -188 107 -363 124 -110 10 -102
10 -230 -1z m133 -258 c20 -12 -51 -24 -90 -16 -23 5 -27 9 -17 16 18 11 90
11 107 0z"/>
</g>
</svg>
