<?xml version="1.0" standalone="no"?>
<!DOCTYPE svg PUBLIC "-//W3C//DTD SVG 20010904//EN"
 "http://www.w3.org/TR/2001/REC-SVG-20010904/DTD/svg10.dtd">
<svg version="1.0" xmlns="http://www.w3.org/2000/svg"
 width="2048.000000pt" height="2048.000000pt" viewBox="0 0 2048.000000 2048.000000"
 preserveAspectRatio="xMidYMid meet">
<metadata>
Created by potrace 1.13, written by Peter Selinger 2001-2015
</metadata>
<g transform="translate(0.000000,2048.000000) scale(0.192120,-0.192120)"
fill="#000000" stroke="none">
<path d="M5800 9814 c-265 -22 -446 -52 -684 -114 -205 -52 -368 -107 -684
-229 -986 -380 -1727 -530 -2617 -531 -194 0 -270 -11 -375 -53 -225 -91 -407
-281 -615 -642 -108 -186 -291 -568 -315 -656 -28 -100 -31 -201 -7 -245 16
-32 56 -64 79 -64 7 0 33 -14 57 -30 116 -79 208 -21 476 300 188 227 269 313
371 399 152 127 286 197 434 227 140 28 233 15 503 -71 199 -64 281 -79 402
-72 111 7 146 16 285 75 156 67 226 77 515 76 179 0 326 -7 515 -24 350 -32
824 -35 965 -7 221 45 367 108 466 204 l36 34 7 -248 c33 -1216 231 -2286 504
-2737 23 -37 42 -70 42 -73 0 -3 -15 -24 -33 -47 -167 -205 -344 -567 -507
-1031 -82 -234 -141 -339 -212 -374 -30 -15 -47 -17 -71 -10 -67 18 -138 128
-191 294 -58 182 -83 346 -95 624 -14 302 -58 497 -170 753 -204 464 -630 881
-1186 1161 -199 100 -355 136 -619 144 -195 6 -327 -6 -497 -48 -269 -65 -484
-181 -654 -353 -132 -133 -198 -239 -288 -466 -188 -471 -196 -1017 -21 -1487
50 -136 152 -331 230 -439 67 -94 180 -218 248 -272 l38 -30 -69 -46 -69 -46
-832 2 -832 3 0 -1667 0 -1668 5000 0 5000 0 0 2173 0 2173 -50 18 c-72 26
-250 147 -515 350 -550 422 -777 539 -1100 565 -141 11 -209 33 -292 95 -198
145 -346 442 -472 943 -27 109 -86 383 -131 608 -86 432 -125 602 -167 725
-62 182 -198 406 -515 848 -270 377 -352 521 -367 649 -6 44 -18 86 -31 107
-60 98 -243 180 -477 215 -78 12 -339 21 -413 15z m459 -299 c98 -22 177 -52
205 -78 13 -12 38 -58 57 -102 91 -216 195 -385 510 -825 116 -164 240 -361
294 -469 74 -149 108 -276 205 -766 141 -714 229 -1023 371 -1312 128 -259
289 -445 470 -542 86 -47 150 -65 302 -86 308 -43 458 -122 992 -525 143 -107
290 -215 328 -239 l67 -44 0 -343 0 -344 -1550 0 c-1734 0 -1571 -7 -1630 74
-17 22 -61 72 -98 109 -125 128 -315 197 -542 197 -135 0 -213 -16 -316 -65
-40 -19 -76 -35 -79 -35 -15 0 -1 101 26 182 69 208 182 450 324 693 114 193
145 269 145 349 0 64 -9 92 -84 265 -232 533 -367 1311 -416 2386 -14 309 -29
360 -129 468 -79 84 -124 104 -192 89 -28 -7 -83 -26 -122 -44 -114 -49 -224
-84 -332 -104 -145 -27 -552 -25 -895 5 -339 29 -635 37 -770 22 -129 -15
-188 -29 -360 -88 -110 -38 -152 -47 -227 -51 -110 -6 -168 4 -365 63 -215 65
-300 78 -443 72 -337 -14 -609 -197 -1039 -699 -173 -202 -196 -216 -196 -123
0 50 9 73 109 268 59 116 132 250 160 296 133 215 263 353 400 425 116 60 155
66 491 76 540 16 863 54 1321 155 390 87 743 198 1284 405 450 172 785 260
1131 300 126 14 506 5 593 -15z m-3099 -2905 c146 -13 281 -47 409 -104 93
-41 297 -158 401 -231 25 -17 90 -62 145 -100 101 -68 126 -88 224 -177 l54
-49 -44 16 c-24 9 -52 21 -62 26 -36 20 -26 2 16 -28 55 -40 177 -165 231
-238 95 -126 206 -362 227 -480 6 -33 17 -91 24 -130 8 -38 19 -99 25 -135 13
-88 13 -473 -1 -519 -11 -36 -13 -38 -78 -49 -158 -27 -419 -117 -661 -227
-263 -120 -330 -146 -363 -143 l-32 3 1 65 c1 53 10 85 48 175 118 276 122
338 32 433 -77 83 -171 95 -283 36 -37 -20 -97 -60 -133 -88 -105 -85 -128
-100 -265 -171 -71 -37 -184 -102 -250 -144 -157 -100 -213 -131 -315 -174
-47 -19 -115 -52 -153 -72 -37 -20 -83 -37 -102 -38 -19 -1 -35 -4 -35 -7 0
-3 4 -21 9 -41 l8 -36 -34 7 c-45 11 -63 28 -143 135 -112 152 -189 299 -251
485 -66 199 -69 222 -69 603 0 328 1 346 24 442 101 413 273 658 572 810 234
120 527 171 824 145z m541 -1951 c16 -32 5 -69 -65 -219 -171 -366 -198 -544
-89 -595 71 -34 185 -3 451 124 260 124 473 205 677 258 124 32 272 41 330 20
40 -14 40 -15 40 -65 0 -37 6 -59 23 -81 12 -16 22 -37 22 -46 0 -9 -20 -67
-45 -129 -49 -125 -59 -202 -29 -244 15 -21 21 -22 193 -22 200 0 220 4 377
81 108 53 211 120 289 189 119 106 260 143 448 121 326 -40 522 -202 423 -351
l-26 -40 1764 -2 1765 -3 -40 -63 c-22 -34 -42 -76 -46 -92 -3 -17 -9 -30 -14
-30 -5 0 -9 -67 -9 -150 0 -93 -4 -150 -10 -150 -7 0 -10 -427 -10 -1260 0
-1253 0 -1260 -20 -1260 -17 0 -20 -7 -20 -45 l0 -45 -4760 0 -4760 0 0 1425
0 1425 45 0 c38 0 45 3 45 20 0 19 13 19 653 23 481 2 662 6 689 15 59 20 130
74 166 126 35 53 40 95 17 136 -8 14 -14 28 -15 32 0 11 73 63 460 325 645
438 914 591 1032 593 28 0 40 -5 49 -21z M4125 5736 c-181 -35 -345 -120 -516
-268 -95 -81 -111 -163 -45 -233 33 -35 87 -52 129 -41 25 6 65 35 162 117 98
82 276 159 370 159 92 0 160 109 120 194 -35 74 -100 95 -220 72z M2965 4891
c-170 -44 -309 -119 -450 -241 -74 -64 -109 -122 -101 -169 11 -70 71 -121
141 -121 44 0 67 13 135 75 121 111 265 180 415 201 68 9 102 31 126 82 29 58
19 104 -31 154 -36 36 -41 38 -101 37 -35 0 -95 -9 -134 -18z"/>
</g>
</svg>
