<?xml version="1.0" standalone="no"?>
<!DOCTYPE svg PUBLIC "-//W3C//DTD SVG 20010904//EN"
 "http://www.w3.org/TR/2001/REC-SVG-20010904/DTD/svg10.dtd">
<svg version="1.0" xmlns="http://www.w3.org/2000/svg"
 width="2048.000000pt" height="2048.000000pt" viewBox="0 0 2048.000000 2048.000000"
 preserveAspectRatio="xMidYMid meet">
<metadata>
Created by potrace 1.13, written by Peter Selinger 2001-2015
</metadata>
<g transform="translate(0.000000,2048.000000) scale(0.192120,-0.192120)"
fill="#000000" stroke="none">
<path d="M5568 10275 c-117 -29 -228 -107 -269 -187 -59 -116 -18 -366 102
-613 94 -195 168 -303 314 -455 50 -52 117 -131 148 -176 142 -200 336 -368
545 -473 88 -45 253 -98 342 -111 128 -19 118 -14 112 -65 -6 -56 24 -175 44
-175 42 0 76 88 54 140 -12 29 -56 74 -81 82 -21 7 28 94 74 133 22 19 64 44
94 55 70 26 182 44 225 36 33 -6 34 -7 34 -60 2 -82 52 -170 177 -310 34 -38
110 -111 170 -164 125 -111 130 -125 65 -173 -55 -39 -88 -93 -88 -143 l0 -39
113 6 c237 13 407 96 632 310 81 78 94 103 34 68 -119 -70 -313 -66 -471 9
-85 41 -144 91 -254 218 -115 133 -191 204 -251 233 l-48 24 43 85 c106 212
143 575 78 775 -58 180 -156 335 -311 491 -163 164 -311 251 -495 290 -77 16
-234 18 -313 4 l-57 -11 -76 47 c-95 57 -212 108 -313 135 -100 27 -293 35
-373 14z m671 -296 c60 -85 89 -96 282 -108 122 -7 170 -14 230 -34 228 -77
423 -269 528 -519 30 -71 31 -76 31 -237 0 -150 -3 -173 -30 -278 -17 -63 -37
-127 -45 -142 -23 -46 -80 -88 -142 -106 -32 -9 -97 -37 -145 -62 -108 -55
-137 -60 -235 -38 -159 35 -271 83 -396 167 -64 43 -234 208 -344 335 -59 67
-158 144 -204 158 -65 21 -87 45 -117 129 -63 174 -68 285 -16 397 54 115 192
243 344 319 76 38 178 79 201 80 8 0 34 -27 58 -61z m-563 6 c12 -31 -90 -153
-119 -142 -19 7 -31 58 -22 96 5 24 15 33 48 45 55 19 86 20 93 1z M3023
10030 c-43 -26 -80 -84 -93 -147 -10 -46 -9 -58 7 -90 16 -33 38 -49 168 -120
83 -46 152 -83 155 -82 3 0 15 22 28 48 25 54 108 143 151 160 26 11 30 9 72
-32 46 -46 127 -78 232 -91 66 -8 129 -37 183 -85 24 -21 68 -46 96 -56 29 -9
73 -28 99 -41 l48 -24 -6 38 c-23 149 -138 283 -294 344 -34 13 -87 22 -144
25 -78 5 -100 2 -165 -20 l-75 -26 -201 110 c-111 60 -208 109 -215 109 -8 0
-28 -9 -46 -20z M3249 9553 c-19 -48 -22 -183 -6 -234 10 -34 12 -61 6 -100
-5 -30 -14 -132 -20 -228 -26 -419 43 -814 192 -1108 106 -211 255 -385 437
-513 l92 -64 -27 -28 c-26 -27 -26 -28 -8 -48 57 -62 392 -280 432 -280 17 0
16 -28 -3 -81 -25 -71 -71 -270 -93 -401 -55 -329 -78 -737 -62 -1082 l11
-216 -81 -267 c-44 -148 -151 -497 -236 -778 -191 -627 -176 -576 -166 -585 7
-7 182 -63 323 -104 236 -68 758 -137 1020 -135 109 0 126 3 325 38 178 32
369 51 555 56 200 5 341 -7 478 -41 128 -31 137 -27 128 56 -9 89 -39 191
-196 665 -174 527 -171 519 -206 655 -25 101 -26 112 -20 300 11 389 80 683
232 1000 75 155 136 257 317 530 183 274 227 375 227 518 0 166 -124 361 -334
528 -44 35 -83 61 -87 59 -3 -3 -10 -25 -14 -50 -8 -56 -51 -109 -102 -126
-42 -14 -126 -7 -200 15 -77 24 -158 91 -278 232 -112 130 -188 199 -233 211
-41 10 -279 -15 -382 -41 -109 -27 -217 -71 -301 -122 l-58 -35 -128 48 c-70
26 -199 82 -285 125 l-157 77 -17 -51 c-46 -138 -207 -420 -324 -567 l-44 -55
-21 85 c-28 111 -41 133 -151 270 -155 193 -228 320 -284 494 -68 214 -72 249
-79 794 -5 379 -9 495 -19 499 -6 2 -12 8 -12 13 0 14 -29 42 -75 72 -49 33
-53 33 -66 0z m2361 -1802 c56 -29 104 -73 236 -216 115 -124 193 -182 294
-215 78 -26 184 -29 261 -6 29 9 66 16 82 16 38 0 87 -37 127 -95 30 -43 30
-45 30 -174 0 -127 -1 -131 -33 -193 -18 -35 -89 -149 -158 -254 -251 -380
-382 -653 -463 -964 -43 -164 -56 -263 -56 -432 0 -175 4 -190 77 -290 39 -53
41 -49 -54 -87 -158 -62 -516 -96 -846 -80 -402 20 -694 105 -825 240 l-33 34
53 50 c66 62 88 96 88 133 0 15 4 32 9 38 6 5 11 200 14 459 5 523 8 553 107
1028 11 55 20 120 20 145 0 100 -92 227 -247 343 -130 98 -130 95 -16 279 117
185 121 188 224 170 35 -6 72 -13 82 -16 11 -4 17 0 17 10 0 20 -5 21 125 -9
167 -38 213 -35 362 24 68 28 156 57 196 66 40 10 77 19 82 21 6 2 53 2 105 1
78 -2 103 -6 140 -26z m-1116 -3047 c211 -68 354 -90 661 -99 216 -7 464 5
630 31 55 9 118 14 141 11 54 -6 114 -42 114 -69 0 -34 -75 -182 -142 -280
-79 -116 -239 -283 -428 -446 -243 -210 -320 -291 -320 -335 0 -11 11 -35 25
-53 l26 -33 -68 30 c-113 51 -142 57 -260 52 -127 -6 -320 14 -533 57 -177 35
-220 50 -261 89 -18 17 -36 31 -40 31 -5 0 -9 31 -9 69 0 60 16 123 119 463
129 423 142 461 174 496 27 29 41 28 171 -14z m1562 -545 c21 -41 92 -238 115
-318 25 -87 25 -167 1 -180 -19 -10 -175 -24 -490 -42 -175 -11 -205 -10 -213
2 -15 24 -11 31 64 98 94 85 291 282 392 394 87 95 102 101 131 46z M4081
9441 c-53 -56 -69 -187 -31 -260 16 -33 38 -49 152 -111 354 -194 1347 -745
1378 -765 19 -12 96 -55 170 -95 135 -73 403 -220 1265 -698 253 -140 611
-338 795 -440 184 -102 354 -196 378 -209 l42 -24 -24 -42 c-59 -100 -163
-403 -206 -599 -16 -73 -3 -127 51 -202 92 -128 321 -247 483 -250 56 -1 60 1
92 38 41 48 69 120 97 251 18 85 21 135 21 330 0 202 -3 243 -22 334 -41 186
-83 264 -175 325 -48 31 -672 379 -882 491 -49 26 -106 58 -125 70 -46 29
-599 335 -606 335 -3 0 -33 16 -67 36 -57 34 -902 503 -2102 1167 -258 143
-505 279 -547 303 -43 24 -85 44 -94 44 -9 0 -28 -13 -43 -29z m4383 -2757 c3
-9 6 -143 6 -299 0 -284 -5 -327 -36 -339 -21 -8 -97 22 -137 55 l-37 30 0 88
c0 73 6 107 36 201 20 63 53 151 74 197 33 71 42 83 63 83 14 0 28 -7 31 -16z
M5447 9185 c-34 -104 -49 -194 -45 -278 l3 -67 45 22 c31 16 51 35 64 61 18
37 18 40 -4 161 -34 198 -32 194 -63 101z M3933 9023 l-41 -23 -7 -126 c-5
-75 -3 -172 3 -241 l11 -115 60 -66 c122 -137 308 -305 472 -428 57 -42 110
-79 117 -81 19 -8 62 37 62 64 0 46 -53 127 -143 221 -121 124 -319 298 -407
356 -39 26 -71 47 -72 49 -1 1 -4 94 -7 207 l-6 205 -42 -22z M4461 8804 c-21
-15 -23 -23 -19 -70 4 -46 12 -63 63 -130 57 -73 166 -179 185 -179 5 0 53
-34 107 -76 139 -109 286 -207 368 -245 76 -36 228 -82 394 -120 106 -24 120
-22 121 12 0 7 -82 61 -183 121 -343 207 -597 384 -850 596 -70 59 -135 107
-145 107 -10 0 -28 -7 -41 -16z M3843 8460 c-18 -11 -33 -27 -33 -35 0 -8 -4
-15 -10 -15 -15 0 -12 -120 6 -170 49 -144 132 -266 231 -337 34 -24 53 -30
103 -32 59 -2 130 13 130 28 0 4 -31 35 -69 69 -122 109 -213 248 -267 412
-18 52 -38 96 -46 98 -7 1 -28 -7 -45 -18z M5707 8074 c-9 -32 -15 -59 -14
-61 2 -1 13 4 25 13 15 10 22 25 22 47 0 61 -16 61 -33 1z M4017 3373 c-23
-36 -137 -738 -137 -839 0 -128 38 -330 205 -1092 54 -243 96 -445 93 -447 -2
-2 -59 -16 -127 -30 -355 -75 -821 -244 -926 -336 -70 -62 -113 -171 -100
-256 l6 -43 979 0 c923 0 979 1 984 18 16 56 28 198 23 286 -6 117 -31 206
-80 287 -38 62 -33 31 -87 539 -35 326 -55 541 -70 742 -10 138 -9 155 14 295
34 195 76 403 121 591 20 84 34 156 31 159 -9 10 -111 -64 -156 -114 -61 -65
-94 -148 -137 -338 l-37 -170 -4 -349 c-2 -266 1 -385 12 -500 9 -87 16 -242
16 -367 l0 -216 -131 -7 c-191 -11 -172 -42 -284 464 -134 608 -135 613 -135
889 0 212 3 259 26 398 17 103 24 177 20 213 -8 83 -100 254 -119 223z m748
-2344 c76 -15 80 -19 66 -70 -7 -25 -15 -131 -18 -241 -5 -190 -6 -196 -27
-202 -28 -8 -672 -6 -1016 3 -201 5 -282 10 -299 20 l-25 14 27 23 c28 24 263
103 490 164 169 46 208 78 228 185 7 33 15 63 18 67 10 12 189 40 301 47 115
7 179 5 255 -10z M6044 3275 c-71 -73 -94 -132 -94 -239 0 -205 51 -389 177
-640 71 -142 315 -587 335 -613 5 -6 10 -32 11 -56 2 -52 -11 -66 -105 -117
-72 -39 -91 -34 -161 38 -97 103 -476 588 -564 723 -62 95 -83 164 -128 409
-52 284 -62 313 -130 383 -43 44 -113 93 -121 84 -15 -15 117 -788 146 -854
40 -91 236 -353 619 -827 124 -154 230 -286 234 -293 5 -8 2 -41 -7 -76 -9
-34 -22 -118 -30 -187 -8 -69 -17 -132 -21 -141 -4 -11 -32 -23 -73 -34 -236
-59 -391 -238 -392 -453 l0 -53 503 3 c493 3 503 3 542 25 45 24 102 81 133
133 58 99 102 306 122 580 25 332 -30 477 -197 520 l-58 15 -192 335 c-106
184 -241 432 -301 550 -125 246 -125 246 -166 608 -13 117 -27 216 -30 219 -3
4 -27 -15 -52 -42z m709 -1735 c10 -28 31 -66 47 -84 17 -19 30 -40 30 -48 0
-8 9 -23 21 -34 20 -18 21 -25 16 -254 -4 -216 -6 -243 -32 -340 -39 -151 -76
-214 -143 -246 -33 -16 -66 -18 -317 -17 -154 1 -293 6 -310 10 -22 7 -30 15
-30 33 0 20 14 31 85 66 124 63 207 159 239 279 17 67 33 226 26 271 -4 30
-18 56 -47 89 l-42 47 25 46 c63 120 241 228 379 231 34 1 36 -2 53 -49z"/>
</g>
</svg>
