<?xml version="1.0" standalone="no"?>
<!DOCTYPE svg PUBLIC "-//W3C//DTD SVG 20010904//EN"
 "http://www.w3.org/TR/2001/REC-SVG-20010904/DTD/svg10.dtd">
<svg version="1.0" xmlns="http://www.w3.org/2000/svg"
 width="2048.000000pt" height="2048.000000pt" viewBox="0 0 2048.000000 2048.000000"
 preserveAspectRatio="xMidYMid meet">
<metadata>
Created by potrace 1.13, written by Peter Selinger 2001-2015
</metadata>
<g transform="translate(0.000000,2048.000000) scale(0.192120,-0.192120)"
fill="#000000" stroke="none">
<path d="M5568 10275 c-117 -29 -228 -107 -269 -187 -68 -134 2 -456 155 -718
l37 -62 -29 -77 c-47 -123 -56 -176 -57 -324 0 -87 -4 -136 -10 -133 -5 2
-282 155 -615 340 l-604 335 -12 60 c-35 171 -155 300 -327 353 -90 27 -226
22 -302 -11 l-51 -22 -202 112 c-219 120 -224 122 -280 74 -65 -55 -97 -181
-60 -237 10 -16 73 -56 160 -103 79 -42 146 -80 150 -84 4 -3 1 -28 -7 -55
-18 -58 -18 -165 -1 -221 8 -25 9 -58 4 -88 -32 -212 -29 -611 7 -824 82 -477
297 -834 638 -1058 l58 -38 -27 -28 c-33 -35 -33 -35 91 -129 92 -70 307 -200
332 -200 17 0 16 -28 -3 -81 -25 -71 -71 -270 -93 -401 -55 -329 -78 -737 -62
-1082 l11 -216 -81 -267 c-44 -148 -151 -497 -236 -778 -191 -626 -176 -576
-166 -585 10 -9 177 -64 253 -83 37 -9 54 -18 53 -28 -1 -8 -18 -97 -37 -199
-99 -519 -118 -682 -97 -831 20 -134 80 -430 191 -937 87 -391 107 -471 120
-467 78 24 224 39 380 40 182 0 242 -9 289 -44 l24 -18 -23 -64 c-16 -47 -23
-96 -27 -186 -4 -95 -9 -123 -19 -123 -10 0 -14 -13 -14 -39 0 -32 -4 -40 -22
-45 -30 -8 -668 -6 -1018 3 -201 5 -282 10 -299 20 l-25 14 27 23 c27 23 250
99 469 159 157 44 187 72 196 181 l5 67 -39 -7 c-160 -29 -484 -123 -673 -195
-157 -60 -259 -111 -306 -152 -70 -62 -113 -171 -100 -256 l6 -43 979 0 980 0
5 22 c28 125 32 287 10 391 -15 74 -55 170 -84 202 -15 16 -25 90 -60 410 -48
449 -66 639 -81 850 -10 145 -9 155 20 323 45 260 155 752 171 766 2 2 65 6
141 9 l136 6 12 -87 c23 -170 120 -738 135 -788 28 -95 145 -257 588 -811
l289 -361 35 69 c76 153 216 239 426 264 l58 7 -16 24 c-29 44 -276 478 -368
644 -160 291 -223 430 -241 528 -16 87 -49 365 -62 520 l-7 84 44 -6 c24 -3
73 -8 109 -11 36 -3 111 -17 168 -31 128 -31 137 -27 128 56 -9 89 -39 191
-196 665 -174 527 -171 519 -206 655 -25 101 -26 112 -20 300 11 389 80 683
232 1000 75 155 136 257 317 530 183 275 227 375 227 519 0 91 -30 173 -103
284 -60 89 -193 224 -271 273 -25 16 -46 34 -46 39 1 27 27 110 36 110 7 0
1420 -779 1672 -922 l42 -24 -24 -42 c-59 -100 -163 -403 -206 -599 -16 -73
-3 -127 51 -202 92 -128 321 -247 483 -250 56 -1 60 1 92 38 41 48 69 120 97
251 18 85 21 135 21 330 0 202 -3 243 -22 334 -41 186 -83 264 -175 325 -56
37 -632 357 -834 463 -130 69 -143 70 -177 22 -35 -50 -125 -19 -411 142 -237
133 -294 189 -273 266 8 29 6 37 -9 48 -26 20 -157 94 -693 390 -607 336 -683
379 -687 392 -2 5 7 14 21 21 36 16 95 71 113 105 10 19 17 69 21 136 l5 105
33 -40 c20 -23 34 -50 34 -66 0 -34 47 -133 93 -196 48 -65 216 -225 307 -294
189 -141 472 -280 567 -277 71 1 65 15 -16 37 -235 65 -442 192 -626 383 -145
151 -218 258 -317 465 -102 213 -122 386 -62 515 37 77 130 181 220 245 67 48
221 124 293 145 42 13 45 12 60 -11 37 -57 85 -100 120 -109 20 -5 95 -12 166
-16 72 -3 157 -13 190 -21 149 -38 311 -148 438 -299 70 -83 115 -158 158
-261 l31 -75 -3 -307 -4 -308 38 -77 c21 -42 42 -77 47 -77 17 0 81 146 105
243 53 212 58 448 11 592 -58 180 -156 335 -311 491 -163 164 -311 251 -495
290 -77 16 -234 18 -313 4 l-57 -11 -76 47 c-95 57 -212 108 -313 135 -100 27
-293 35 -373 14z m108 -290 c12 -31 -90 -153 -119 -142 -19 7 -31 58 -22 96 5
24 15 33 48 45 55 19 86 20 93 1z m-2306 -285 c0 -10 -6 -17 -15 -16 -23 3
-29 14 -15 31 15 18 30 11 30 -15z m441 -80 c14 -8 53 -47 86 -85 36 -42 79
-81 107 -95 46 -24 47 -26 39 -60 -4 -19 -8 -67 -8 -107 0 -58 4 -77 22 -101
l22 -29 -42 -41 c-23 -22 -64 -53 -92 -69 l-50 -29 -8 -80 c-10 -99 -2 -360
13 -399 16 -43 296 -315 448 -437 207 -165 341 -252 461 -298 l103 -41 47 30
c159 103 378 161 601 161 113 0 118 -1 157 -29 22 -16 92 -87 155 -157 142
-160 187 -200 253 -230 124 -57 231 -56 296 3 22 20 41 34 43 32 2 -2 8 -26
15 -53 7 -28 24 -75 38 -105 29 -65 26 -59 80 -142 l43 -64 0 -132 c0 -129 -1
-133 -33 -195 -18 -35 -89 -149 -158 -254 -251 -380 -382 -653 -463 -964 -43
-164 -56 -263 -56 -432 0 -175 4 -190 77 -290 39 -53 41 -49 -54 -87 -158 -62
-516 -96 -846 -80 -402 20 -694 105 -825 240 l-33 34 53 50 c66 62 88 96 88
133 0 15 4 32 9 37 6 6 11 201 14 460 5 522 9 566 107 1030 30 143 25 196 -29
278 -45 69 -123 151 -182 191 -19 13 -94 54 -165 91 -71 37 -131 69 -133 71
-2 2 32 59 76 126 44 68 105 169 137 224 l57 101 37 -13 c50 -18 142 -18 168
1 26 17 50 73 38 84 -5 4 -48 29 -95 54 l-86 46 -17 -54 c-9 -30 -20 -55 -25
-55 -14 0 -146 117 -189 169 -89 105 -167 261 -202 399 -12 47 -27 52 -84 28
-53 -22 -76 -63 -76 -138 0 -142 104 -342 272 -525 53 -57 55 -64 33 -116 -22
-54 -63 -97 -92 -97 -51 0 -179 115 -260 235 -113 169 -177 333 -218 564 -23
130 -24 160 -28 674 l-5 537 32 9 c51 15 296 8 327 -9z m402 -446 c18 -9 56
-32 85 -51 50 -34 52 -36 52 -82 0 -56 -70 -12 668 -422 499 -277 561 -314
595 -357 21 -26 55 -64 74 -84 l36 -37 -18 -65 c-10 -36 -20 -66 -22 -66 -15
0 -378 223 -538 331 -270 182 -467 338 -705 558 -81 75 -128 109 -205 150 -55
29 -111 61 -124 72 l-24 20 23 24 c27 29 58 32 103 9z m16 -175 c6 -18 11 -47
11 -65 0 -19 5 -34 10 -34 6 0 10 -9 10 -20 0 -28 50 -124 99 -190 99 -132
368 -370 599 -530 101 -70 119 -98 85 -130 -33 -30 -81 -51 -133 -57 -70 -8
-118 19 -262 151 -262 238 -496 441 -560 483 -36 25 -69 54 -72 66 -3 12 -6
72 -6 134 l0 112 36 37 c52 51 93 74 136 74 32 0 37 -4 47 -31z m1908 -775
c92 -53 192 -109 222 -125 71 -36 91 -52 91 -72 0 -23 -42 -31 -87 -17 -44 14
-257 129 -323 174 -63 43 -140 123 -140 146 0 18 2 18 35 4 19 -8 110 -57 202
-110z m108 -285 c104 -58 191 -111 192 -115 2 -5 -14 -18 -34 -29 -21 -10 -68
-50 -105 -88 -65 -66 -68 -68 -105 -62 -55 10 -128 63 -230 168 -112 115 -126
141 -118 210 4 36 1 66 -9 96 -9 24 -16 46 -16 48 0 6 200 -101 425 -228z
m2219 -1255 c3 -9 6 -143 6 -299 0 -284 -5 -327 -36 -339 -21 -8 -97 22 -137
55 l-37 30 0 88 c0 73 6 107 36 201 20 63 53 151 74 197 33 71 42 83 63 83 14
0 28 -7 31 -16z m-3970 -1980 c211 -68 354 -90 661 -99 216 -7 464 5 630 31
55 9 118 14 141 11 54 -6 114 -42 114 -69 0 -34 -75 -182 -142 -280 -79 -116
-239 -283 -428 -446 -243 -210 -320 -291 -320 -335 0 -11 16 -40 36 -64 l37
-44 -84 42 c-114 58 -156 61 -240 18 l-64 -34 -145 1 c-285 2 -504 71 -610
194 l-52 60 1 70 c1 59 20 132 120 462 129 424 142 461 174 496 27 29 41 28
171 -14z m1562 -545 c21 -41 92 -238 115 -318 10 -36 19 -92 19 -124 0 -53 -2
-58 -27 -69 -16 -6 -66 -28 -113 -49 -102 -45 -147 -54 -358 -74 -225 -21
-277 -20 -302 5 -11 11 -20 24 -20 30 0 15 43 58 190 188 75 65 185 173 245
238 186 201 201 215 219 208 9 -4 23 -19 32 -35z m-1696 -788 c96 -16 247 -38
335 -47 88 -10 162 -19 164 -20 2 -2 -9 -14 -25 -28 -126 -106 -149 -155 -215
-457 l-43 -194 -4 -343 c-2 -261 0 -380 12 -501 17 -164 21 -477 8 -498 -4 -7
-47 -15 -101 -19 -91 -7 -93 -6 -116 18 -31 34 -53 110 -124 433 -121 550
-121 548 -121 823 0 227 2 256 31 425 39 225 37 294 -9 387 l-32 63 33 -6 c17
-3 111 -19 207 -36z m1644 19 c14 0 7 -12 -31 -54 -76 -83 -95 -195 -68 -403
35 -265 95 -412 366 -899 153 -274 156 -287 82 -334 -61 -39 -84 -38 -135 8
-58 52 -429 520 -525 662 -69 102 -90 177 -148 510 -19 113 -42 225 -52 250
-22 62 -65 122 -114 161 -31 25 -38 34 -27 40 41 23 512 73 598 63 19 -2 43
-4 54 -4z M7140 8456 c-178 -37 -280 -139 -280 -279 0 -71 14 -122 55 -202
l30 -59 295 -166 295 -165 155 0 c182 0 240 13 375 80 105 52 188 112 305 223
86 82 100 109 39 73 -94 -55 -271 -65 -394 -21 -137 48 -196 92 -331 248 -182
212 -269 271 -403 278 -42 2 -105 -3 -141 -10z m160 -273 c41 -17 294 -267
305 -303 11 -35 -18 -53 -77 -46 -47 5 -128 42 -272 123 -166 94 -228 220
-118 238 20 4 42 8 47 10 16 5 77 -6 115 -22z M6810 1557 c0 -43 25 -131 50
-178 38 -70 23 -398 -26 -599 -37 -149 -74 -213 -142 -246 -33 -16 -66 -18
-317 -17 -154 1 -293 6 -310 10 -22 7 -30 15 -30 33 0 20 14 31 85 66 102 51
169 118 214 214 29 62 31 71 31 188 l0 123 -43 41 c-27 25 -47 37 -53 31 -13
-13 -36 -133 -44 -228 -11 -133 -15 -140 -93 -160 -236 -59 -391 -238 -392
-453 l0 -53 503 3 c493 3 503 3 542 25 115 62 184 196 224 435 49 286 49 548
1 656 -35 79 -113 142 -175 142 -22 0 -25 -4 -25 -33z"/>
</g>
</svg>
