<?xml version="1.0" standalone="no"?>
<!DOCTYPE svg PUBLIC "-//W3C//DTD SVG 20010904//EN"
 "http://www.w3.org/TR/2001/REC-SVG-20010904/DTD/svg10.dtd">
<svg version="1.0" xmlns="http://www.w3.org/2000/svg"
 width="2048.000000pt" height="2048.000000pt" viewBox="0 0 2048.000000 2048.000000"
 preserveAspectRatio="xMidYMid meet">
<metadata>
Created by potrace 1.13, written by Peter Selinger 2001-2015
</metadata>
<g transform="translate(0.000000,2048.000000) scale(0.192120,-0.192120)"
fill="#000000" stroke="none">
<path d="M5568 10275 c-117 -29 -228 -107 -269 -187 -75 -146 10 -487 194
-785 70 -113 126 -183 232 -293 45 -47 107 -121 139 -166 212 -301 532 -517
853 -578 154 -29 150 -29 164 12 18 53 95 125 161 150 80 30 180 45 242 38
l54 -7 -2 -62 c-2 -103 50 -193 204 -348 41 -42 100 -98 130 -124 132 -112
133 -115 64 -172 -53 -44 -71 -74 -80 -134 l-7 -42 104 6 c230 14 405 100 624
310 81 78 94 103 34 68 -119 -70 -317 -66 -473 9 -82 40 -143 93 -252 218
-115 133 -191 204 -251 233 l-48 24 43 85 c106 212 143 575 78 775 -58 180
-156 335 -311 491 -163 164 -311 251 -495 290 -77 16 -234 18 -313 4 l-57 -11
-76 47 c-95 57 -212 108 -313 135 -100 27 -293 35 -373 14z m671 -296 c60 -85
89 -96 282 -108 122 -7 170 -14 230 -34 228 -77 423 -269 528 -519 30 -71 31
-77 31 -234 0 -141 -3 -174 -26 -260 -29 -113 -62 -178 -102 -198 -15 -7 -61
-23 -102 -35 -41 -13 -110 -43 -153 -68 -99 -56 -151 -63 -263 -35 -117 30
-183 57 -278 115 -110 67 -226 168 -313 270 -147 174 -204 224 -345 295 -62
31 -78 58 -109 182 -43 170 -10 294 112 424 72 77 154 139 249 186 76 38 178
79 201 80 8 0 34 -27 58 -61z m-563 6 c12 -31 -90 -153 -119 -142 -19 7 -31
58 -22 96 5 24 15 33 48 45 55 19 86 20 93 1z M3023 10030 c-43 -26 -80 -84
-93 -147 -10 -46 -9 -58 7 -90 16 -33 38 -49 168 -120 83 -46 153 -83 156 -83
4 0 10 11 13 24 11 44 93 140 150 176 30 19 55 37 55 40 1 8 -395 220 -410
220 -8 0 -28 -9 -46 -20z M3566 9860 c-32 -10 -63 -23 -68 -28 -14 -14 67 -79
128 -101 30 -12 85 -27 123 -35 79 -17 109 -31 176 -82 26 -20 71 -44 99 -54
29 -10 71 -27 95 -40 l44 -22 -8 39 c-19 104 -117 230 -221 285 -109 59 -256
74 -368 38z M3241 9515 c-15 -60 -14 -142 3 -197 9 -33 11 -61 5 -99 -5 -30
-14 -133 -20 -230 -38 -620 121 -1140 451 -1469 83 -84 233 -197 238 -180 7
21 -20 133 -46 190 -14 30 -42 72 -62 95 -184 205 -296 408 -356 645 -48 190
-54 268 -54 665 0 384 -6 519 -21 509 -5 -3 -9 2 -9 11 0 17 -42 57 -91 87
l-27 16 -11 -43z M4081 9441 c-53 -56 -69 -187 -31 -260 16 -33 38 -49 152
-111 252 -139 1323 -732 1388 -770 36 -20 247 -138 470 -260 223 -123 632
-349 910 -503 278 -154 656 -363 840 -465 184 -102 354 -196 378 -209 l42 -24
-24 -42 c-59 -100 -163 -403 -206 -599 -16 -73 -3 -127 51 -202 92 -128 321
-247 483 -250 56 -1 60 1 92 38 41 48 69 120 97 251 18 85 21 135 21 330 0
202 -3 243 -22 334 -40 181 -82 263 -167 320 -25 17 -247 142 -493 277 -246
136 -476 263 -512 284 -93 54 -529 295 -630 348 -47 25 -89 48 -95 52 -5 5
-179 101 -385 215 -481 266 -1584 877 -1988 1101 -172 96 -320 174 -328 174
-9 0 -28 -13 -43 -29z m4383 -2757 c3 -9 6 -143 6 -299 0 -284 -5 -327 -36
-339 -21 -8 -97 22 -137 55 l-37 30 0 88 c0 73 6 107 36 201 20 63 53 151 74
197 33 71 42 83 63 83 14 0 28 -7 31 -16z M5437 9158 c-23 -76 -37 -163 -37
-229 l0 -58 29 10 c49 17 76 55 75 103 -1 54 -34 226 -43 226 -4 0 -15 -24
-24 -52z M3933 9024 l-41 -24 -7 -117 c-7 -109 -1 -280 12 -344 13 -64 373
-404 581 -548 31 -21 34 -22 57 -7 65 42 28 132 -114 276 -113 114 -275 258
-348 309 -30 21 -56 48 -63 65 -5 16 -10 95 -10 176 0 148 -7 241 -19 239 -3
-1 -25 -12 -48 -25z M4502 8774 c-50 -34 -14 -137 84 -243 31 -34 59 -59 61
-57 3 3 40 -23 82 -58 275 -226 411 -305 626 -365 261 -72 324 -82 325 -50 0
4 -78 53 -172 109 -328 196 -537 340 -805 557 -84 68 -158 123 -166 123 -7 0
-23 -7 -35 -16z M3860 8423 c-45 -31 -51 -44 -47 -108 8 -105 82 -255 173
-352 53 -55 129 -79 199 -63 27 6 51 13 55 15 4 2 -32 44 -79 93 -98 101 -168
211 -217 340 -18 48 -38 88 -46 90 -7 1 -24 -5 -38 -15z M6867 8213 c-20 -20
6 -161 31 -171 23 -8 62 43 62 81 0 37 -5 45 -44 75 -31 23 -39 26 -49 15z
M4324 7948 c-54 -163 -274 -529 -402 -670 -25 -27 -25 -28 -7 -48 57 -62 392
-280 432 -280 17 0 16 -28 -3 -81 -25 -71 -71 -270 -93 -401 -55 -329 -78
-737 -62 -1082 l11 -216 -81 -267 c-44 -148 -151 -497 -236 -778 -191 -626
-176 -576 -166 -585 20 -19 295 -100 454 -134 273 -59 538 -92 809 -102 157
-6 188 -4 410 36 265 48 612 68 820 49 58 -5 151 -21 208 -35 128 -31 137 -27
128 56 -9 89 -39 191 -196 665 -174 527 -171 519 -206 655 -25 101 -26 112
-20 300 11 389 80 683 232 1000 75 155 136 257 317 530 183 275 227 375 227
519 0 91 -30 173 -103 284 -57 85 -182 212 -270 275 -51 36 -51 36 -62 -31 -8
-47 -55 -102 -102 -118 -42 -14 -126 -7 -200 15 -77 24 -155 89 -278 232 -112
131 -188 199 -232 210 -41 11 -286 -15 -386 -40 -108 -28 -219 -72 -299 -122
l-56 -34 -124 45 c-94 35 -302 131 -440 203 -3 1 -14 -21 -24 -50z m1272 -209
c29 -14 86 -63 155 -133 60 -61 109 -114 109 -118 0 -4 31 -34 69 -67 90 -77
194 -128 292 -142 78 -11 84 -10 236 33 56 16 100 -4 147 -69 l36 -48 0 -132
c0 -130 0 -132 -33 -195 -18 -35 -89 -149 -158 -254 -251 -380 -382 -653 -463
-964 -43 -164 -56 -263 -56 -432 0 -175 4 -190 77 -290 39 -53 41 -49 -54 -87
-158 -62 -516 -96 -846 -80 -402 20 -694 105 -825 240 l-33 34 53 50 c66 62
88 96 88 133 0 15 4 32 9 38 6 5 11 200 14 459 5 523 8 553 107 1028 26 129
25 180 -4 242 -33 71 -117 166 -205 233 -92 69 -100 79 -101 117 0 37 161 298
203 329 25 18 32 19 85 8 31 -7 67 -15 80 -18 16 -5 22 -2 22 11 0 11 6 15 18
11 237 -67 296 -71 422 -25 209 77 281 99 346 107 96 11 156 6 210 -19z
m-1102 -3035 c211 -68 354 -90 661 -99 216 -7 464 5 630 31 55 9 118 14 141
11 54 -6 114 -42 114 -69 0 -34 -75 -182 -142 -280 -79 -116 -239 -283 -428
-446 -243 -210 -320 -291 -320 -335 0 -11 11 -35 25 -53 l25 -33 -92 42 -93
41 -175 7 c-187 8 -399 35 -570 74 -132 29 -152 37 -201 78 -65 54 -61 83 80
549 129 423 142 461 174 496 27 29 41 28 171 -14z m1562 -545 c21 -41 92 -238
115 -318 25 -87 25 -167 1 -180 -19 -10 -175 -24 -490 -42 -175 -11 -205 -10
-213 2 -15 24 -11 31 64 98 94 85 291 282 392 394 87 95 102 101 131 46z
M4010 3355 c0 -5 -11 -65 -25 -133 -53 -265 -105 -605 -105 -687 0 -130 39
-337 205 -1093 54 -243 96 -444 94 -447 -3 -2 -60 -16 -128 -30 -355 -75 -821
-244 -926 -336 -70 -62 -113 -171 -100 -256 l6 -43 979 0 c923 0 979 1 984 17
16 57 28 199 23 287 -6 117 -34 217 -81 291 -36 56 -32 30 -86 530 -34 322
-56 548 -70 747 -10 132 -9 158 10 270 38 229 125 643 156 742 6 18 5 18 -27
0 -65 -38 -148 -124 -179 -187 -32 -65 -66 -202 -100 -400 -31 -182 -28 -554
6 -889 19 -193 24 -293 22 -429 -2 -98 -5 -180 -8 -182 -3 -3 -70 -9 -150 -13
-164 -7 -162 -8 -193 72 -16 43 -99 404 -188 824 l-52 245 -5 248 c-4 233 -2
257 23 413 32 192 30 258 -9 337 -27 54 -75 119 -76 102z m750 -2326 l36 -9 1
-67 c1 -38 5 -149 8 -249 l7 -181 -24 -6 c-30 -9 -663 -7 -1018 2 -201 5 -282
10 -299 20 l-25 14 27 23 c27 23 293 114 437 149 149 37 221 66 260 107 36 36
70 109 70 149 0 10 8 20 18 23 132 37 399 51 502 25z M6045 3276 c-72 -74 -95
-132 -95 -240 0 -205 51 -389 177 -640 71 -142 315 -587 335 -613 5 -6 10 -32
11 -56 2 -52 -11 -66 -106 -117 -66 -36 -85 -34 -136 14 -74 69 -482 587 -581
737 -69 105 -89 168 -135 419 -50 271 -58 299 -113 365 -28 34 -119 105 -134
105 -6 0 -7 -22 -3 -57 14 -117 116 -710 130 -761 27 -92 166 -283 594 -815
141 -175 262 -327 269 -337 12 -16 11 -29 -2 -82 -9 -35 -22 -119 -30 -188 -8
-69 -17 -132 -21 -141 -4 -11 -32 -23 -73 -34 -236 -59 -391 -238 -392 -453
l0 -53 503 3 c493 3 503 3 542 25 45 24 102 81 133 133 58 99 102 306 122 580
25 332 -30 477 -197 520 l-58 15 -192 335 c-228 398 -396 722 -417 805 -14 58
-48 310 -62 465 -11 121 -13 124 -69 66z m708 -1736 c10 -28 31 -66 47 -84 17
-19 30 -40 30 -48 0 -8 9 -23 21 -34 20 -18 21 -25 16 -254 -4 -216 -6 -243
-32 -340 -39 -151 -76 -214 -143 -246 -33 -16 -66 -18 -317 -17 -154 1 -293 6
-310 10 -22 7 -30 15 -30 33 0 20 14 31 85 66 175 88 244 208 266 460 8 99 -4
140 -54 189 l-37 35 25 47 c64 121 241 229 380 232 34 1 36 -2 53 -49z"/>
</g>
</svg>
