<?xml version="1.0" standalone="no"?>
<!DOCTYPE svg PUBLIC "-//W3C//DTD SVG 20010904//EN"
 "http://www.w3.org/TR/2001/REC-SVG-20010904/DTD/svg10.dtd">
<svg version="1.0" xmlns="http://www.w3.org/2000/svg"
 width="2048.000000pt" height="2048.000000pt" viewBox="0 0 2048.000000 2048.000000"
 preserveAspectRatio="xMidYMid meet">
<metadata>
Created by potrace 1.13, written by Peter Selinger 2001-2015
</metadata>
<g transform="translate(0.000000,2048.000000) scale(0.192120,-0.192120)"
fill="#000000" stroke="none">
<path d="M4555 10165 c-223 -35 -485 -140 -745 -300 -124 -76 -271 -222 -318
-315 -88 -176 -74 -374 34 -468 39 -35 44 -44 44 -82 0 -72 29 -248 64 -390
104 -419 297 -735 512 -841 63 -31 76 -34 164 -34 82 0 111 6 210 38 63 20
157 53 208 73 90 35 94 35 107 18 22 -28 52 -114 60 -168 l8 -49 23 54 c50
117 39 216 -31 277 -72 64 -134 65 -330 7 -139 -42 -268 -55 -338 -36 -185 52
-366 378 -462 831 -30 140 -46 172 -112 229 l-45 38 40 55 c79 107 171 170
298 203 32 8 74 15 94 15 l35 0 160 -291 c88 -160 166 -293 173 -296 22 -9 60
15 78 49 10 18 21 71 25 117 10 107 41 161 116 203 42 24 64 30 113 29 106 0
171 -45 235 -162 41 -76 43 -138 7 -236 -42 -113 -46 -147 -28 -233 49 -232
205 -340 476 -327 70 3 117 10 138 21 88 45 199 310 237 563 21 139 21 375 -1
502 -51 308 -189 535 -429 706 -251 179 -527 246 -820 200z m385 -260 c155
-36 325 -127 441 -237 85 -81 139 -167 178 -287 20 -60 21 -86 21 -375 0 -282
-2 -318 -20 -385 -36 -129 -89 -213 -155 -242 -83 -38 -191 -15 -251 54 l-35
42 3 240 3 240 -37 77 c-47 100 -120 178 -207 221 -57 28 -76 32 -141 32 -96
-1 -159 -29 -254 -114 -38 -33 -75 -61 -82 -61 -26 0 -76 55 -121 132 -105
182 -234 257 -377 217 -21 -6 -46 -12 -55 -14 -9 -2 -46 -17 -82 -34 -77 -36
-86 -37 -94 -12 -42 134 510 455 885 515 116 19 276 15 380 -9z M5418 8123
c-31 -34 -39 -71 -23 -103 15 -28 105 -99 105 -83 0 5 -15 53 -33 107 -31 92
-34 96 -49 79z M5390 7854 c-126 -34 -351 -168 -472 -282 -94 -89 -150 -164
-198 -264 -64 -135 -75 -188 -75 -388 0 -96 3 -200 7 -231 l8 -56 -106 -129
c-135 -163 -455 -483 -599 -598 -281 -224 -613 -411 -900 -505 -82 -27 -177
-54 -210 -61 -81 -17 -173 -59 -213 -99 -121 -122 -100 -320 45 -418 95 -64
181 -61 445 16 177 52 286 95 483 190 313 151 577 331 874 594 108 96 311 302
311 317 0 14 -67 40 -102 40 -50 0 -120 -44 -261 -165 -318 -272 -471 -383
-723 -523 -108 -61 -344 -172 -364 -172 -6 0 -18 -4 -28 -10 -75 -42 -398
-124 -464 -118 -77 8 -111 55 -70 96 10 10 78 35 151 56 470 134 876 367 1279
734 50 46 92 89 92 95 0 5 35 46 78 91 317 333 376 435 322 553 l-19 43 61 92
c33 51 64 97 68 101 6 7 443 -246 474 -274 16 -14 -206 -316 -406 -552 l-33
-38 29 -82 c16 -45 102 -280 191 -522 206 -559 209 -565 204 -569 -2 -1 -319
-227 -704 -502 -393 -280 -722 -522 -751 -551 -28 -29 -65 -79 -82 -110 -21
-41 -119 -369 -321 -1076 -160 -560 -291 -1027 -291 -1040 0 -58 -7 -63 -68
-56 -121 16 -447 21 -558 10 -192 -20 -255 -43 -301 -111 -45 -65 -24 -183 39
-224 13 -8 187 -72 388 -141 201 -70 565 -196 810 -281 245 -85 460 -154 478
-154 79 0 140 64 176 182 47 156 58 218 53 302 -5 72 -3 84 23 135 16 32 130
414 264 886 131 457 246 860 256 896 l20 65 342 245 c189 134 393 281 455 326
l113 82 0 -332 c0 -367 4 -399 63 -517 20 -40 57 -90 99 -132 l66 -67 896
-448 c492 -246 898 -444 902 -440 18 17 -104 214 -181 293 -45 45 -107 79
-592 323 -526 264 -863 450 -931 514 -40 38 -72 96 -72 130 0 14 -7 38 -15 53
-12 23 -15 71 -15 224 0 280 -23 351 -128 390 -29 11 -62 20 -72 20 -20 0 -20
9 -20 408 l0 409 -55 12 c-85 19 -214 87 -226 119 -27 69 -24 78 27 108 75 44
83 58 84 141 0 87 -15 139 -152 508 -156 422 -178 487 -178 530 1 35 12 55 86
154 159 212 234 356 234 450 0 138 -153 294 -430 439 l-95 50 -3 53 c-4 68 17
123 80 208 69 92 153 168 245 223 97 57 161 79 236 81 47 1 57 5 57 20 0 20
19 17 110 -16 119 -44 197 -112 330 -288 222 -296 363 -591 485 -1019 19 -69
76 -260 125 -425 135 -448 240 -888 240 -1003 0 -101 -7 -121 -47 -128 -19 -4
-62 -25 -96 -49 -70 -47 -120 -75 -157 -85 l-25 -7 25 -6 c14 -3 42 -9 64 -12
l38 -6 -25 -27 c-14 -15 -37 -53 -51 -85 l-26 -58 0 -477 c0 -557 -9 -507 118
-636 103 -103 149 -131 596 -353 l359 -178 191 -2 c105 -1 209 -6 231 -11 32
-8 35 -10 14 -11 -55 -2 -158 -42 -188 -71 -24 -25 -34 -51 -59 -157 -83 -350
-118 -635 -121 -984 -4 -413 37 -658 121 -736 68 -63 192 -51 245 23 32 45
486 1679 480 1726 -11 86 -79 133 -242 167 -95 20 -135 39 -817 381 l-717 360
-3 553 c-2 303 -3 553 -2 555 2 4 68 -21 187 -70 85 -35 128 -48 155 -46 l37
3 3 74 c13 314 -270 1408 -543 2106 -229 586 -429 927 -644 1098 -162 129
-351 176 -521 131z m-31 -3417 l46 -25 3 -284 2 -284 -82 -53 c-46 -29 -198
-134 -338 -234 -205 -145 -277 -203 -366 -292 -162 -162 -158 -154 -368 -890
-96 -335 -184 -647 -195 -692 -27 -105 -27 -216 0 -328 11 -48 19 -88 17 -90
-2 -2 -43 11 -93 27 -153 51 -428 116 -623 148 -103 17 -191 32 -196 34 -5 1
14 16 41 34 72 47 160 143 188 206 14 31 123 401 244 823 121 423 233 807 249
854 39 115 66 157 132 211 75 61 1100 794 1169 836 64 38 94 38 170 -1z m2745
-1999 c99 -19 99 -38 -5 -410 -91 -329 -115 -406 -139 -446 -44 -72 -50 -46
-57 283 -5 250 -4 278 16 383 40 207 50 218 185 190z m-4562 -1252 c89 -19
192 -43 228 -53 l65 -18 3 -89 c3 -95 -5 -116 -44 -116 -26 0 -557 182 -624
213 -25 12 -53 29 -63 38 -17 15 -17 17 6 32 71 46 186 44 429 -7z M6340 7251
c0 -21 337 -335 438 -406 59 -43 112 -83 117 -89 6 -7 33 -27 60 -46 157 -106
385 -292 385 -314 0 -7 52 -66 116 -132 194 -199 318 -355 403 -505 25 -45 31
-67 31 -116 0 -69 -17 -93 -67 -93 -52 0 -93 40 -200 195 -185 269 -372 471
-568 612 -109 79 -203 112 -262 92 -28 -9 -53 -34 -53 -53 0 -2 52 -45 115
-94 323 -251 535 -481 687 -747 35 -60 74 -122 87 -138 70 -83 224 -109 327
-55 96 50 147 135 148 244 1 65 -3 79 -43 158 -231 455 -702 911 -1326 1284
-165 98 -395 217 -395 203z"/>
</g>
</svg>
