<?xml version="1.0" standalone="no"?>
<!DOCTYPE svg PUBLIC "-//W3C//DTD SVG 20010904//EN"
 "http://www.w3.org/TR/2001/REC-SVG-20010904/DTD/svg10.dtd">
<svg version="1.0" xmlns="http://www.w3.org/2000/svg"
 width="2048.000000pt" height="2048.000000pt" viewBox="0 0 2048.000000 2048.000000"
 preserveAspectRatio="xMidYMid meet">
<metadata>
Created by potrace 1.13, written by Peter Selinger 2001-2015
</metadata>
<g transform="translate(0.000000,2048.000000) scale(0.192120,-0.192120)"
fill="#000000" stroke="none">
<path d="M5800 9814 c-265 -22 -446 -52 -684 -114 -205 -52 -368 -107 -684
-229 -986 -380 -1727 -530 -2617 -531 -194 0 -270 -11 -375 -53 -225 -91 -407
-281 -615 -642 -108 -186 -291 -568 -315 -656 -28 -100 -31 -201 -7 -245 16
-32 56 -64 79 -64 7 0 33 -14 57 -30 116 -79 208 -21 476 300 188 227 269 313
371 399 152 127 286 197 434 227 140 28 233 15 503 -71 199 -64 281 -79 402
-72 111 7 146 16 285 75 156 67 226 77 515 76 179 0 326 -7 515 -24 350 -32
824 -35 965 -7 221 45 367 108 466 203 l36 35 7 -247 c33 -1214 231 -2287 504
-2738 23 -37 42 -70 42 -73 0 -3 -15 -24 -33 -47 -167 -205 -344 -566 -507
-1031 -98 -281 -168 -385 -261 -385 -76 0 -145 94 -208 284 -58 175 -89 367
-101 634 -7 161 -16 248 -34 337 -137 662 -602 1218 -1322 1578 -202 102 -346
136 -610 144 -392 12 -712 -71 -994 -260 -96 -64 -242 -211 -304 -307 -120
-183 -220 -454 -272 -735 -25 -136 -30 -450 -10 -601 59 -447 282 -899 562
-1138 l65 -55 -69 -46 -68 -45 -832 2 -832 3 0 -1667 0 -1668 5000 0 5000 0 0
2173 0 2173 -50 18 c-72 26 -250 147 -515 350 -550 422 -777 539 -1100 565
-141 11 -209 33 -292 95 -198 145 -346 442 -472 943 -27 109 -86 383 -131 608
-86 432 -125 602 -167 725 -63 185 -189 392 -536 877 -254 357 -330 493 -346
620 -5 43 -18 87 -31 107 -60 98 -243 180 -477 215 -78 12 -339 21 -413 15z
m418 -310 c115 -19 204 -50 229 -77 11 -12 57 -96 101 -187 97 -198 167 -310
379 -609 198 -279 295 -427 362 -552 90 -168 117 -268 231 -834 128 -636 194
-885 307 -1160 139 -337 363 -606 587 -704 68 -30 142 -47 277 -66 274 -37
473 -143 964 -515 121 -92 257 -192 303 -224 l82 -58 0 -314 0 -314 -1526 0
c-1139 0 -1531 3 -1547 12 -12 6 -71 62 -132 123 -96 98 -121 118 -195 154
-139 68 -219 85 -400 85 -150 1 -158 -1 -249 -32 -119 -41 -126 -35 -96 81 36
140 169 425 317 683 179 310 181 326 70 590 -39 95 -89 224 -111 287 -160 467
-276 1239 -311 2067 -12 288 -22 355 -63 433 -36 70 -151 182 -200 195 -47 13
-72 7 -229 -55 -258 -102 -372 -118 -748 -110 -140 3 -372 15 -515 27 -333 28
-660 31 -795 6 -52 -9 -160 -39 -240 -66 -253 -86 -323 -86 -602 -4 -256 75
-325 87 -463 81 -119 -5 -194 -23 -326 -81 -192 -82 -422 -278 -677 -576 -110
-129 -178 -199 -194 -200 -5 0 -8 22 -8 48 0 40 13 74 83 212 269 535 469 747
742 788 39 6 180 14 315 17 895 22 1556 162 2555 543 528 201 876 291 1240
321 139 12 371 5 483 -15z m-3047 -2894 c226 -23 334 -62 672 -243 273 -145
385 -214 520 -315 98 -74 295 -258 247 -230 -14 8 -53 31 -87 52 -98 58 -258
131 -378 170 -301 100 -611 119 -892 57 -536 -120 -947 -517 -1083 -1045 -43
-169 -53 -271 -47 -468 6 -208 27 -329 98 -542 27 -82 47 -151 45 -154 -11
-10 -65 11 -97 38 -102 83 -273 400 -364 673 -62 188 -67 234 -62 645 4 357 5
369 29 453 51 175 121 333 203 459 202 312 702 499 1196 450z m737 -676 c292
-42 363 -63 479 -142 101 -70 215 -204 277 -327 42 -84 96 -242 96 -281 0 -16
9 -72 21 -124 15 -71 22 -147 26 -302 5 -197 4 -209 -16 -251 -20 -42 -24 -45
-72 -51 -139 -19 -424 -119 -734 -259 -104 -47 -201 -87 -215 -89 -23 -3 -25
0 -28 44 -2 38 7 72 46 170 89 219 97 268 60 338 -28 53 -111 136 -160 161
-45 23 -142 25 -178 4 -14 -8 -41 -22 -60 -31 -19 -9 -37 -19 -40 -23 -3 -3
-43 -38 -90 -78 -57 -48 -138 -100 -240 -155 -85 -46 -216 -123 -290 -170
-166 -105 -212 -129 -319 -162 -77 -24 -86 -25 -107 -11 -30 20 -46 50 -79
158 -27 86 -28 94 -22 245 13 356 83 580 260 842 105 155 294 315 463 391 280
127 549 157 922 103z m-206 -1280 c15 -32 0 -75 -91 -271 -147 -317 -169 -496
-64 -539 75 -32 185 -2 450 124 508 240 900 342 1040 269 79 -41 83 -139 12
-302 -50 -117 -63 -207 -35 -250 l16 -25 178 0 c204 0 234 7 398 91 112 57
188 108 267 178 108 95 200 126 367 125 213 -2 432 -85 505 -192 34 -50 34
-114 0 -165 l-26 -37 1786 0 1786 0 -66 -96 c-36 -53 -65 -106 -65 -120 0 -13
-4 -24 -10 -24 -6 0 -10 -48 -10 -125 0 -77 -4 -125 -10 -125 -7 0 -10 -427
-10 -1260 0 -1253 0 -1260 -20 -1260 -17 0 -20 -7 -20 -45 l0 -45 -4760 0
-4760 0 0 1425 0 1425 45 0 c38 0 45 3 45 20 0 20 7 20 613 20 632 0 707 4
779 41 54 28 122 101 138 149 11 34 11 46 -3 82 -14 35 -15 44 -4 56 38 38
895 611 1070 716 218 130 339 185 410 186 31 0 40 -5 49 -26z M4125 5736
c-165 -32 -337 -117 -485 -241 -109 -91 -133 -141 -104 -215 19 -48 61 -80
113 -87 48 -7 77 8 164 84 120 104 245 167 367 185 36 5 80 17 99 26 124 61
93 239 -45 256 -21 3 -70 -1 -109 -8z M2965 4891 c-96 -25 -143 -44 -233 -91
-133 -69 -282 -194 -309 -259 -36 -86 35 -181 134 -181 43 0 63 12 145 84 110
100 266 174 398 191 73 10 106 30 131 83 27 55 19 101 -25 150 -32 34 -38 36
-102 39 -43 2 -95 -4 -139 -16z"/>
</g>
</svg>
