<?xml version="1.0" standalone="no"?>
<!DOCTYPE svg PUBLIC "-//W3C//DTD SVG 20010904//EN"
 "http://www.w3.org/TR/2001/REC-SVG-20010904/DTD/svg10.dtd">
<svg version="1.0" xmlns="http://www.w3.org/2000/svg"
 width="2048.000000pt" height="2048.000000pt" viewBox="0 0 2048.000000 2048.000000"
 preserveAspectRatio="xMidYMid meet">
<metadata>
Created by potrace 1.13, written by Peter Selinger 2001-2015
</metadata>
<g transform="translate(0.000000,2048.000000) scale(0.192120,-0.192120)"
fill="#000000" stroke="none">
<path d="M5560 10275 c-131 -37 -254 -130 -278 -211 -18 -61 -14 -197 8 -297
23 -106 88 -272 147 -374 23 -42 43 -82 43 -89 0 -7 -9 -34 -21 -61 -42 -97
-62 -211 -63 -345 -1 -71 -2 -128 -4 -128 -2 0 -44 24 -95 54 -51 29 -315 176
-587 326 -272 150 -504 279 -516 286 -14 8 -23 27 -27 57 -23 168 -155 315
-330 369 -88 26 -224 22 -305 -11 l-54 -21 -191 105 c-106 59 -203 109 -217
111 -59 12 -138 -86 -148 -185 -8 -82 7 -97 182 -190 86 -46 156 -84 156 -84
0 -1 -7 -24 -15 -51 -19 -62 -19 -159 -1 -219 9 -31 11 -59 5 -90 -4 -24 -13
-127 -19 -228 -22 -356 19 -682 117 -949 110 -299 299 -542 546 -705 l58 -38
-27 -28 c-14 -15 -23 -32 -19 -38 23 -39 309 -234 382 -262 13 -5 23 -13 23
-19 0 -5 -18 -53 -39 -105 -149 -357 -271 -927 -311 -1450 -11 -139 -52 -506
-100 -875 -11 -85 -27 -220 -35 -300 -9 -80 -36 -311 -60 -515 -24 -203 -63
-554 -86 -780 l-42 -409 27 -246 c51 -461 122 -937 189 -1265 20 -100 25 -111
54 -131 67 -45 175 -59 463 -59 218 0 277 4 333 18 153 39 217 85 217 157 0
21 -9 99 -20 172 -19 131 -62 469 -101 783 -11 88 -22 219 -25 290 -6 116 -3
144 21 260 49 241 140 572 200 731 14 37 23 69 20 72 -9 10 -80 -54 -98 -89
-13 -25 -17 -48 -13 -86 l5 -53 -98 0 -97 0 -82 -267 c-45 -148 -82 -273 -82
-280 0 -9 32 -13 110 -15 l109 -3 -32 -50 c-39 -60 -42 -111 -10 -173 l23 -42
-48 -2 c-26 -1 -65 -2 -87 -2 l-39 -1 -13 120 c-8 66 -16 126 -18 133 -6 15
-36 9 -75 -16 -14 -9 -27 -14 -29 -11 -2 2 -8 -7 -13 -21 l-9 -25 -17 21 c-17
22 -91 64 -112 64 -16 0 -5 -188 13 -206 3 -3 20 1 38 10 18 9 38 16 46 16 7
0 16 7 19 15 9 22 21 18 28 -7 6 -24 61 -66 111 -84 30 -11 30 -12 47 -135 9
-68 22 -180 29 -247 l13 -124 78 4 c75 3 79 2 73 -17 -3 -11 -9 -45 -12 -76
-5 -50 -2 -63 24 -112 l31 -56 -27 -5 c-14 -3 -49 -8 -78 -11 -61 -8 -54 -20
-73 145 -6 58 -15 108 -19 113 -4 4 -28 -6 -54 -23 -26 -16 -52 -30 -57 -30
-5 0 -11 -8 -13 -18 -4 -16 -5 -16 -6 1 0 9 -8 17 -16 17 -8 0 -29 9 -47 20
-71 43 -77 31 -56 -120 13 -97 7 -93 86 -58 23 10 42 23 42 28 0 6 9 1 21 -11
12 -12 46 -32 78 -47 31 -14 57 -26 59 -27 4 -3 62 -476 62 -511 0 -29 -3 -35
-16 -30 -9 3 -40 9 -69 12 -48 6 -59 3 -110 -26 -31 -18 -59 -29 -63 -26 -8 9
-24 122 -53 374 l-24 202 -93 0 -94 0 6 -28 c10 -44 66 -500 66 -532 l0 -30
-72 36 c-63 32 -82 37 -140 36 -38 0 -68 3 -68 6 0 4 -11 93 -24 197 -14 105
-28 222 -31 262 l-7 72 -42 6 c-100 15 -95 12 -84 53 15 55 3 126 -32 188
l-32 55 44 -6 c110 -15 107 -14 112 -48 3 -18 11 -78 17 -134 7 -57 14 -103
17 -103 2 0 25 10 51 23 45 23 108 27 120 8 9 -12 68 -41 86 -41 16 0 16 -4
-5 147 -5 39 -10 74 -10 76 0 5 -60 -15 -77 -26 -16 -10 -52 6 -100 45 -22 19
-55 40 -71 47 -22 9 -32 21 -36 44 -6 35 -54 422 -58 476 -3 33 -5 35 -63 48
-90 20 -85 15 -69 70 17 53 12 120 -11 177 -8 19 -15 38 -15 41 0 8 35 6 89
-6 l49 -10 1 -97 c0 -53 4 -114 8 -134 l8 -37 44 19 c61 28 80 25 134 -19 46
-39 84 -58 93 -48 3 2 -1 57 -8 121 -13 126 -14 128 -73 102 -37 -16 -69 -3
-132 55 -24 22 -48 39 -54 39 -17 0 -7 98 35 330 19 107 38 210 42 228 5 27 4
32 -12 32 -11 0 -51 9 -91 21 l-71 21 29 46 c33 53 38 105 14 172 -8 24 -13
45 -11 48 3 2 46 -5 97 -17 51 -12 95 -18 99 -14 4 5 15 60 24 123 15 94 75
424 102 557 l6 31 -116 36 c-115 36 -133 49 -102 76 8 6 22 31 32 55 15 42 15
46 -6 110 -12 36 -20 68 -18 71 3 2 58 -12 124 -31 136 -40 144 -41 144 -17 0
16 81 485 84 489 1 2 27 -7 57 -19 30 -11 90 -31 134 -43 44 -13 79 -27 78
-31 -1 -5 -22 -114 -47 -243 -26 -129 -44 -236 -41 -239 15 -15 389 -71 400
-60 14 13 69 286 89 438 l7 46 57 -7 c31 -4 89 -8 127 -8 39 -1 76 -5 84 -10
27 -17 -66 -470 -101 -492 -7 -5 -21 -9 -31 -9 -22 0 -74 -34 -99 -64 -11 -13
-21 -17 -25 -11 -5 6 -30 25 -57 43 -37 24 -52 29 -57 20 -10 -18 -59 -189
-59 -205 0 -22 49 -5 113 39 l58 40 34 -35 c18 -19 42 -37 54 -40 21 -5 27 8
61 143 6 25 13 52 16 61 4 14 36 17 230 22 124 4 233 11 243 17 21 11 69 180
103 362 l22 116 70 7 c39 3 103 12 141 20 39 7 72 11 74 9 6 -5 -40 -250 -69
-366 l-28 -110 44 7 c24 3 44 3 44 0 0 -4 -20 -32 -44 -63 -68 -89 -205 -215
-399 -367 -99 -77 -185 -145 -193 -151 -8 -6 -14 -15 -14 -19 0 -18 75 7 194
64 70 34 129 61 131 61 15 0 127 59 164 87 24 18 47 30 52 27 5 -3 12 1 15 9
6 16 44 11 44 -5 0 -6 20 -39 45 -73 l44 -63 -29 -6 c-36 -7 -37 -11 -15 -242
19 -204 22 -224 41 -224 11 0 9 -10 -11 -45 -39 -66 -38 -142 2 -198 46 -64
83 -268 80 -437 -3 -160 13 -199 117 -297 128 -121 194 -222 220 -332 22 -94
62 -168 133 -243 35 -37 63 -76 63 -86 0 -10 -17 -34 -37 -53 -21 -19 -52 -52
-69 -73 l-31 -40 -55 82 -54 81 -77 -45 c-42 -24 -77 -49 -77 -54 0 -5 23 -43
50 -84 28 -41 50 -79 50 -85 0 -17 -88 -37 -142 -32 -26 2 -73 55 -114 130
-26 46 -76 105 -164 193 -141 142 -184 205 -224 328 -33 102 -79 175 -163 259
-85 84 -93 107 -93 250 0 164 -26 434 -48 511 -105 360 -113 378 -191 465 -34
37 -64 79 -68 93 -8 34 7 71 38 94 28 21 89 35 89 20 0 -5 16 -13 35 -19 l34
-11 52 97 c28 53 60 110 70 126 l18 30 -207 -2 -206 -2 -39 -128 c-42 -142
-141 -436 -167 -498 -15 -34 -24 -42 -62 -52 -29 -8 -61 -28 -92 -57 l-47 -45
-27 27 c-15 15 -39 35 -54 45 l-27 17 -36 -112 c-19 -61 -34 -113 -32 -114 9
-9 85 19 116 43 20 16 41 32 47 36 6 3 30 -12 53 -33 24 -22 48 -40 55 -40 8
0 29 49 52 121 l39 121 115 -6 115 -6 29 75 c16 41 34 82 40 90 9 13 22 -57
60 -322 55 -388 109 -701 131 -767 30 -86 139 -262 389 -626 151 -218 432
-598 504 -680 l40 -45 7 40 c27 163 64 246 149 330 134 132 374 192 504 126
22 -11 43 -25 47 -31 3 -5 -2 -33 -11 -62 -10 -33 -19 -110 -24 -206 -4 -94
-11 -157 -18 -164 -7 -7 -12 -35 -12 -62 0 -108 -49 -337 -90 -415 -26 -51
-82 -98 -127 -108 -49 -9 -491 -9 -566 1 -97 13 -86 51 29 105 160 75 269 263
213 367 -13 25 -86 71 -96 60 -3 -2 -9 -42 -15 -88 -12 -98 -20 -116 -56 -124
-227 -50 -366 -173 -417 -370 -8 -32 -15 -78 -15 -101 l0 -44 503 3 c477 3
504 4 542 23 162 80 244 322 261 775 7 184 -2 255 -41 336 -14 28 -25 58 -25
66 0 8 -27 55 -61 104 -420 616 -641 966 -689 1091 -46 122 -87 728 -96 1423
-7 524 -10 474 41 685 3 11 10 112 15 224 21 422 88 704 245 1029 76 156 115
226 263 462 166 264 207 367 206 515 0 85 -4 109 -26 163 -58 136 -199 305
-331 396 -35 24 -57 46 -57 58 0 22 21 108 26 108 2 0 326 -179 721 -398 395
-219 779 -431 853 -472 74 -40 136 -75 138 -76 2 -1 -17 -44 -41 -95 -82 -171
-187 -514 -187 -609 1 -157 228 -342 477 -387 79 -15 88 -15 117 1 98 53 159
287 159 611 0 200 -17 328 -59 454 -34 103 -75 160 -148 208 -53 34 -1281 717
-1608 894 l-117 63 60 32 c84 45 152 99 239 188 41 43 93 87 115 98 22 12 66
47 97 80 97 99 166 267 198 481 18 123 17 321 -3 393 -92 337 -378 666 -685
789 -124 50 -305 68 -449 45 -62 -10 -63 -10 -120 26 -83 54 -205 109 -308
139 -114 34 -308 44 -395 20z m661 -280 c54 -72 92 -85 276 -95 213 -11 311
-44 448 -149 138 -106 247 -241 323 -399 l46 -97 4 -197 c3 -174 1 -208 -17
-280 -26 -102 -64 -177 -141 -277 -62 -79 -82 -124 -94 -202 -8 -56 -15 -59
-131 -59 -417 0 -836 245 -1114 652 -27 40 -77 100 -111 133 -80 77 -154 175
-141 188 10 10 45 -5 78 -35 21 -19 20 -17 -8 70 -36 113 -53 220 -44 281 21
147 149 301 341 411 69 39 210 98 240 99 7 1 27 -19 45 -44z m-526 4 c14 -21
-7 -58 -69 -125 -55 -59 -67 -67 -83 -58 -15 9 -18 24 -18 85 l0 74 50 17 c57
20 111 23 120 7z m-2357 -279 c-39 -47 -53 -51 -43 -13 4 16 7 28 8 29 58 36
73 29 35 -16z m454 -124 c21 -10 51 -37 68 -59 29 -39 30 -46 30 -139 0 -78 3
-100 15 -104 9 -4 15 -19 15 -38 0 -35 49 -91 105 -119 l30 -15 -37 -35 c-21
-19 -57 -46 -80 -59 l-43 -23 -8 -80 c-5 -44 -5 -152 -2 -240 l6 -161 -44 -11
c-48 -13 -97 -47 -97 -69 0 -8 -4 -14 -10 -14 -14 0 -13 -125 1 -175 31 -110
123 -269 229 -394 57 -68 62 -77 57 -111 -6 -45 -41 -96 -71 -104 -14 -4 -38
6 -74 31 -164 113 -318 397 -376 695 -15 77 -17 151 -14 633 3 590 1 564 56
565 15 0 22 6 22 19 0 25 19 30 110 27 48 -1 88 -8 112 -20z m306 -204 c23
-76 69 -129 166 -192 189 -122 214 -151 201 -230 l-6 -38 68 -41 c37 -22 285
-161 550 -308 l483 -268 79 -86 79 -85 -18 -65 c-10 -35 -23 -63 -29 -62 -20
5 -361 213 -498 304 -259 173 -478 344 -703 551 -108 98 -145 126 -268 194
-147 81 -162 95 -177 163 -14 67 21 201 53 201 5 0 14 -17 20 -38z m37 -513
c51 -27 81 -55 168 -158 150 -178 312 -325 571 -516 127 -94 146 -111 146
-135 0 -23 -8 -32 -43 -49 -27 -13 -63 -21 -94 -21 -68 0 -101 23 -338 235
-276 247 -400 352 -464 393 -31 19 -59 40 -63 46 -14 20 -9 224 5 230 19 8 68
-3 112 -25z m1473 -226 c500 -276 1125 -624 1142 -636 18 -13 17 -15 -20 -55
l-38 -42 -76 2 c-67 1 -79 -1 -100 -21 -13 -13 -30 -36 -36 -52 -7 -16 -15
-29 -19 -29 -9 0 -370 198 -536 293 l-130 75 -6 58 c-3 33 -11 70 -19 83 -26
50 -108 126 -206 191 -99 67 -154 119 -154 145 0 36 14 75 27 75 8 0 85 -39
171 -87z m-1262 -563 c208 -167 335 -249 454 -297 l105 -41 60 34 c122 71 239
113 385 138 109 19 301 21 333 5 39 -21 88 -68 198 -194 111 -125 170 -180
224 -208 44 -22 146 -47 191 -47 59 1 121 33 146 76 l22 38 17 -85 c21 -98 51
-182 83 -224 57 -75 66 -107 66 -234 0 -89 -4 -132 -17 -163 -9 -24 -76 -142
-148 -263 -212 -355 -290 -512 -371 -747 -74 -213 -125 -465 -140 -688 -5 -70
-11 -100 -24 -115 -10 -11 -20 -31 -22 -45 -3 -22 -10 -26 -83 -38 -81 -13
-113 -26 -240 -98 -66 -37 -74 -39 -155 -39 -85 0 -86 0 -175 52 -50 28 -112
57 -138 64 -71 18 -161 7 -236 -30 -128 -61 -169 -53 -314 60 -111 86 -184
112 -297 107 l-75 -3 -3 204 c-2 160 2 238 18 360 47 364 111 651 217 981 83
259 85 296 25 397 -78 132 -224 241 -385 288 -31 9 -59 20 -62 25 -3 5 35 69
83 144 49 74 113 181 143 236 38 71 58 99 69 96 122 -39 130 -40 164 -23 39
18 62 66 43 90 -7 8 -46 32 -88 55 l-76 41 -17 -55 c-9 -30 -20 -54 -25 -54
-14 0 -146 117 -187 166 -61 73 -114 159 -151 247 -27 64 -63 179 -63 200 0 3
71 -65 158 -152 86 -86 216 -204 288 -261z m1774 -268 c25 -14 53 -30 63 -36
19 -12 23 -62 5 -68 -30 -10 -148 86 -148 121 0 23 9 21 80 -17z m2338 -1137
c8 -18 12 -114 12 -303 0 -259 -1 -279 -20 -310 -22 -36 -41 -36 -114 0 -72
37 -86 58 -86 136 0 81 39 231 97 370 56 132 86 161 111 107z m-4273 -1695
c-11 -18 -43 -11 -59 12 -25 36 -19 40 24 18 23 -12 38 -25 35 -30z m587 -147
l88 -15 -44 -49 c-24 -27 -52 -71 -62 -99 -10 -27 -21 -50 -25 -50 -4 0 -17
-11 -30 -25 -27 -28 -39 -31 -39 -12 0 8 -11 24 -25 37 -22 21 -25 32 -25 94
0 53 -5 81 -21 110 l-21 39 59 -7 c32 -4 97 -14 145 -23z m821 -75 c-17 -18
-48 -67 -68 -108 -51 -104 -87 -140 -139 -140 -38 0 -42 4 -58 38 -9 20 -19
62 -23 92 -4 30 -15 74 -25 97 -10 23 -16 44 -12 47 3 3 84 6 181 6 l175 0
-31 -32z m343 -581 l-7 -44 33 5 33 5 -23 -25 c-34 -38 -52 -32 -52 16 0 43 9
86 17 86 3 0 2 -19 -1 -43z M4150 4443 c0 -4 -6 -39 -14 -78 -30 -150 -30
-145 -1 -145 14 0 39 7 56 15 16 9 34 13 39 10 6 -3 10 -1 10 4 0 21 20 10 35
-19 8 -16 32 -41 52 -55 37 -24 38 -24 45 -5 6 18 38 184 38 202 0 8 -47 0
-71 -12 -10 -6 -27 -10 -38 -10 -10 0 -21 -6 -23 -12 -3 -7 -13 0 -24 17 -29
46 -104 109 -104 88z M5501 4161 c-29 -57 -50 -106 -47 -108 9 -10 73 45 95
80 29 47 35 88 18 112 -14 18 -18 12 -66 -84z M4360 4098 c0 -13 -25 -161 -56
-329 -31 -167 -59 -316 -61 -330 -5 -26 -3 -27 71 -38 42 -6 106 -13 143 -17
l68 -6 111 339 c61 186 110 339 109 341 -1 1 -74 14 -161 28 -248 41 -224 40
-224 12z M5565 3739 c-55 -28 -107 -57 -115 -65 -13 -12 -12 -40 9 -227 13
-116 25 -214 27 -216 2 -2 39 12 81 32 43 19 95 42 116 51 20 8 37 19 37 23 0
4 -7 60 -14 123 -8 63 -18 163 -22 223 -4 59 -9 107 -13 107 -3 0 -51 -23
-106 -51z M3967 3437 c-11 -30 -40 -217 -34 -224 8 -7 126 27 133 39 3 4 19
-6 36 -23 39 -39 77 -64 85 -55 6 6 42 178 43 204 0 6 -8 12 -17 12 -27 0
-113 -33 -113 -43 0 -5 -7 -4 -15 3 -8 7 -15 16 -15 21 0 15 -76 79 -94 79 -2
0 -6 -6 -9 -13z M4186 3129 c-2 -8 -10 -50 -16 -94 -6 -44 -27 -165 -46 -268
-19 -103 -34 -192 -34 -197 0 -4 30 -11 68 -15 37 -3 79 -9 95 -11 22 -5 27
-2 27 15 0 32 56 240 106 393 25 77 42 144 37 148 -4 4 -53 13 -107 20 -55 6
-105 14 -113 17 -7 3 -15 -1 -17 -8z M5660 2999 c-131 -70 -126 -64 -106 -146
20 -77 94 -309 107 -335 8 -15 18 -12 84 28 42 24 79 44 84 44 5 0 14 6 20 14
9 10 4 41 -18 127 -16 63 -37 160 -47 217 -9 56 -20 102 -23 102 -3 0 -49 -23
-101 -51z M5897 2314 c-43 -25 -77 -49 -75 -53 9 -21 224 -350 229 -350 4 -1
41 20 83 45 l77 46 -18 27 c-41 63 -171 269 -189 299 -10 17 -21 32 -24 32 -3
0 -40 -21 -83 -46z M4115 2259 c8 -37 55 -420 55 -456 0 -61 4 -63 101 -63 53
0 89 4 89 10 0 6 -11 97 -24 203 -14 105 -27 217 -31 248 l-6 57 -62 6 c-34 4
-77 9 -95 13 -31 5 -33 4 -27 -18z M3672 864 c-280 -86 -492 -178 -559 -244
-67 -64 -87 -111 -87 -205 l-1 -80 981 -3 981 -2 13 77 c16 95 16 270 1 338
-13 58 -50 155 -60 155 -3 0 -21 -52 -40 -116 -19 -63 -38 -117 -43 -120 -4
-3 -8 -25 -8 -49 0 -34 -4 -45 -19 -50 -10 -3 -22 -16 -25 -29 -6 -23 -7 -23
-218 -29 -204 -6 -930 6 -1053 18 -120 12 -113 43 21 93 185 68 226 96 238
162 18 101 19 120 5 120 -8 -1 -65 -17 -127 -36z"/>
</g>
</svg>
