<?xml version="1.0" standalone="no"?>
<!DOCTYPE svg PUBLIC "-//W3C//DTD SVG 20010904//EN"
 "http://www.w3.org/TR/2001/REC-SVG-20010904/DTD/svg10.dtd">
<svg version="1.0" xmlns="http://www.w3.org/2000/svg"
 width="2048.000000pt" height="2048.000000pt" viewBox="0 0 2048.000000 2048.000000"
 preserveAspectRatio="xMidYMid meet">
<metadata>
Created by potrace 1.13, written by Peter Selinger 2001-2015
</metadata>
<g transform="translate(0.000000,2048.000000) scale(0.192120,-0.192120)"
fill="#000000" stroke="none">
<path d="M5568 10275 c-117 -29 -228 -107 -269 -187 -59 -116 -18 -366 102
-613 95 -199 165 -300 314 -455 50 -52 118 -133 151 -180 75 -107 245 -278
349 -351 159 -113 374 -207 513 -225 l54 -7 -22 44 c-32 63 -64 90 -160 134
-284 131 -406 225 -618 473 -65 76 -140 134 -207 160 -60 23 -88 66 -137 212
-27 80 -32 111 -32 195 -1 92 1 105 30 166 55 115 193 243 344 319 72 36 183
80 203 80 7 0 32 -27 56 -61 60 -85 89 -96 282 -108 122 -7 170 -14 230 -34
229 -77 425 -270 530 -522 l31 -74 -6 -188 c-3 -103 -8 -243 -12 -309 l-6
-121 35 -70 c52 -102 59 -105 96 -41 74 128 114 319 115 548 1 154 -1 170 -26
245 -63 185 -159 336 -313 491 -163 164 -311 251 -495 290 -77 16 -234 18
-313 4 l-57 -11 -76 47 c-95 57 -212 108 -313 135 -100 27 -293 35 -373 14z
m108 -290 c12 -31 -90 -153 -119 -142 -19 7 -31 58 -22 96 5 24 15 33 48 45
55 19 86 20 93 1z M3023 10030 c-43 -26 -80 -84 -93 -147 -10 -46 -9 -58 7
-90 16 -33 38 -49 165 -119 81 -44 150 -83 153 -85 2 -3 -2 -27 -10 -54 -19
-61 -19 -158 -1 -217 9 -33 11 -61 5 -99 -5 -30 -14 -132 -20 -228 -13 -211 0
-442 37 -638 81 -441 299 -792 627 -1008 l58 -38 -27 -28 c-27 -28 -27 -29 -9
-49 57 -62 392 -280 432 -280 17 0 16 -28 -3 -81 -25 -71 -71 -270 -93 -401
-55 -329 -78 -737 -62 -1082 l11 -216 -81 -267 c-44 -148 -151 -497 -236 -778
-191 -627 -176 -576 -166 -585 7 -8 192 -67 323 -104 242 -68 756 -137 1015
-135 114 0 131 2 330 38 183 33 372 52 560 56 205 4 336 -7 473 -41 128 -31
137 -27 128 56 -9 89 -39 191 -196 665 -174 527 -171 519 -206 655 -25 101
-26 112 -20 300 11 389 80 683 232 1000 75 155 136 257 317 530 131 197 195
316 216 402 17 73 14 177 -9 243 -45 132 -176 296 -327 412 -68 52 -74 60 -69
85 7 34 -4 35 -41 4 -30 -26 -30 -23 8 -84 12 -20 12 -27 -6 -59 -35 -64 -65
-78 -158 -77 -153 2 -226 48 -403 250 -68 79 -144 157 -169 175 -25 18 -45 36
-45 40 0 21 14 39 32 39 27 0 68 45 68 75 0 36 -34 99 -83 152 l-42 46 75 -38
c41 -21 226 -121 410 -223 184 -102 353 -195 375 -207 54 -30 1629 -902 1683
-932 l42 -24 -24 -42 c-59 -100 -163 -403 -206 -599 -16 -73 -3 -127 51 -202
92 -128 321 -247 483 -250 56 -1 60 1 92 38 41 48 69 120 97 251 18 85 21 135
21 330 0 202 -3 243 -22 334 -40 181 -82 263 -167 320 -39 27 -642 362 -905
504 l-85 45 -33 -29 c-54 -48 -95 -42 -254 39 -183 93 -324 179 -354 215 -23
27 -26 38 -22 85 l5 53 -91 53 c-82 48 -481 270 -2121 1178 l-520 287 -13 63
c-18 90 -56 161 -121 227 -93 93 -208 141 -341 141 -66 0 -147 -17 -189 -39
-20 -11 -43 -2 -225 98 -112 61 -210 111 -217 111 -8 0 -28 -9 -46 -20z m466
-279 c51 -55 78 -65 213 -82 99 -12 149 -33 205 -86 26 -26 71 -52 122 -73 45
-18 81 -34 81 -35 0 -2 -13 -16 -28 -33 -54 -57 -70 -188 -32 -261 17 -34 39
-49 162 -117 79 -43 417 -230 753 -416 l610 -339 76 -82 76 -81 -20 -66 c-10
-36 -21 -67 -22 -68 -6 -6 -333 191 -495 298 -199 131 -419 297 -590 444 -74
64 -140 116 -146 116 -6 0 -23 -9 -38 -21 -60 -47 -17 -164 113 -301 88 -93
231 -216 231 -198 0 6 35 -15 78 -47 110 -82 314 -217 367 -243 25 -12 103
-41 173 -65 70 -24 120 -45 112 -48 -8 -3 -62 -13 -120 -22 -133 -22 -245 -60
-366 -125 l-95 -50 -67 24 c-37 13 -78 28 -92 34 -14 6 -50 20 -80 32 -30 12
-117 53 -192 91 l-137 68 -17 -54 c-10 -30 -20 -55 -24 -55 -15 0 -144 115
-189 170 -88 106 -177 279 -196 383 -9 46 -17 51 -58 38 -52 -17 -87 -70 -87
-130 0 -69 55 -215 113 -301 44 -64 125 -148 171 -177 46 -29 132 -41 189 -25
22 6 37 7 37 1 0 -37 -185 -349 -275 -463 -19 -25 -27 -16 -49 56 -22 72 -61
133 -146 228 -188 211 -295 430 -352 722 -19 103 -22 156 -28 598 -6 479 -6
485 -28 521 -14 23 -43 47 -76 65 -51 26 -53 30 -44 54 14 37 72 108 115 141
21 15 40 29 42 29 3 0 25 -22 50 -49z m2056 -1938 c107 -34 144 -64 364 -296
129 -136 233 -184 386 -179 230 8 210 11 250 -28 20 -19 50 -54 66 -77 28 -41
29 -44 29 -172 0 -127 -1 -131 -33 -193 -18 -35 -89 -149 -158 -254 -251 -380
-382 -653 -463 -964 -43 -164 -56 -263 -56 -432 0 -175 4 -190 77 -290 39 -53
41 -49 -54 -87 -158 -62 -516 -96 -846 -80 -402 20 -694 105 -825 240 l-33 34
53 50 c66 62 88 96 88 133 0 15 4 32 9 38 6 5 11 200 14 459 5 523 8 553 107
1028 28 137 26 181 -10 253 -37 75 -142 184 -247 257 -125 87 -124 112 15 316
83 122 91 127 218 123 91 -2 104 0 104 14 0 15 12 16 118 9 219 -14 248 -11
359 39 180 81 336 101 468 59z m2919 -1129 c3 -9 6 -143 6 -299 0 -284 -5
-327 -36 -339 -21 -8 -97 22 -137 55 l-37 30 0 88 c0 73 6 107 36 201 20 63
53 151 74 197 33 71 42 83 63 83 14 0 28 -7 31 -16z m-3970 -1980 c211 -68
354 -90 661 -99 216 -7 464 5 630 31 55 9 118 14 141 11 54 -6 114 -42 114
-69 0 -34 -75 -182 -142 -280 -79 -116 -239 -283 -428 -446 -243 -210 -320
-291 -320 -335 0 -11 11 -35 26 -54 14 -18 22 -33 19 -33 -3 0 -38 17 -78 38
l-72 37 -166 -3 c-183 -4 -342 12 -543 54 -157 33 -213 55 -264 104 -69 67
-66 90 77 562 129 423 142 461 174 496 27 29 41 28 171 -14z m1562 -545 c21
-41 92 -238 115 -318 19 -67 25 -157 11 -177 -12 -19 -179 -43 -412 -59 -124
-9 -231 -18 -238 -20 -7 -3 -33 -2 -57 2 -33 4 -45 10 -45 22 0 10 39 53 88
96 109 99 302 292 407 408 87 95 102 101 131 46z M3943 9029 l-51 -30 -7 -124
c-7 -114 -2 -253 11 -331 14 -82 431 -461 702 -639 41 -27 43 -27 62 -10 26
23 26 76 0 133 -37 82 -436 463 -587 560 -60 39 -73 53 -79 80 -4 18 -5 114
-2 213 2 98 4 179 4 178 -1 0 -24 -14 -53 -30z M5461 9228 c-37 -94 -53 -171
-58 -290 -6 -131 -6 -131 55 -98 88 47 97 71 77 203 -8 51 -20 125 -26 165 -6
39 -15 72 -19 72 -4 0 -17 -24 -29 -52z M7140 8456 c-122 -27 -201 -75 -247
-153 -25 -43 -28 -58 -28 -133 0 -74 5 -95 34 -163 18 -43 39 -83 45 -88 6 -6
110 -64 231 -131 121 -66 252 -139 290 -162 l70 -41 155 0 c182 0 240 13 375
80 105 52 188 112 305 223 86 82 100 109 39 73 -93 -55 -271 -65 -389 -23
-145 51 -160 64 -435 354 -125 132 -188 168 -304 174 -42 2 -105 -3 -141 -10z
m150 -257 c31 -14 88 -64 187 -166 78 -80 145 -155 149 -166 11 -36 -31 -58
-102 -55 -54 3 -76 12 -205 82 -189 103 -229 149 -229 257 0 46 2 49 33 58 54
15 119 12 167 -10z M4017 3389 c-14 -58 -69 -361 -103 -564 -56 -341 -56 -340
153 -1298 111 -509 119 -538 138 -532 157 43 517 57 608 22 26 -10 47 -24 47
-30 0 -7 -7 -34 -15 -61 -8 -27 -15 -87 -15 -135 0 -47 -5 -127 -12 -178 -10
-78 -15 -93 -33 -97 -27 -8 -676 -6 -1015 3 -201 5 -282 10 -299 20 l-25 14
27 23 c28 24 276 107 473 159 162 43 206 78 225 182 14 72 10 74 -121 47 -337
-68 -820 -244 -925 -335 -70 -62 -113 -171 -100 -256 l6 -43 979 0 c923 0 979
1 984 18 16 56 28 198 23 286 -6 117 -31 206 -80 287 l-34 56 -41 379 c-46
413 -65 619 -82 846 -11 144 -10 152 19 322 34 197 88 454 132 628 16 64 29
119 29 123 0 10 -64 -27 -115 -67 -83 -66 -134 -137 -160 -227 -16 -54 -58
-250 -80 -371 -23 -132 -20 -573 5 -820 19 -186 27 -474 14 -537 l-6 -30 -116
-5 c-64 -3 -122 -3 -129 -1 -31 12 -65 123 -132 423 -38 173 -86 397 -105 497
-35 175 -36 190 -36 404 0 192 3 241 26 373 42 244 25 352 -71 463 -32 37 -32
37 -38 12z M6056 3331 c-47 -37 -81 -82 -107 -136 -35 -74 -21 -339 26 -497
39 -132 159 -377 369 -750 98 -174 107 -209 66 -253 -28 -30 -98 -65 -129 -65
-13 0 -41 19 -69 48 -92 91 -506 622 -568 727 -44 75 -70 169 -113 410 -27
146 -51 249 -66 283 -27 59 -109 144 -174 180 l-41 24 5 -39 c50 -361 131
-816 154 -869 40 -91 200 -305 580 -779 145 -181 268 -335 273 -342 6 -8 4
-35 -6 -75 -9 -35 -22 -119 -30 -188 -8 -69 -17 -132 -21 -141 -4 -11 -32 -23
-73 -34 -236 -59 -391 -238 -392 -453 l0 -53 503 3 c493 3 503 3 542 25 115
62 184 196 224 435 49 286 49 548 1 656 -35 78 -113 142 -173 142 -14 0 -34 8
-45 18 -35 30 -410 695 -532 944 -90 183 -96 208 -135 563 -14 127 -27 234
-28 238 -1 5 -20 -5 -41 -22z m728 -1782 c4 -22 15 -58 26 -80 11 -21 20 -43
20 -48 0 -6 11 -27 25 -47 23 -34 25 -45 25 -159 0 -166 -15 -309 -46 -435
-37 -149 -74 -213 -142 -246 -33 -16 -66 -18 -317 -17 -154 1 -293 6 -310 10
-22 7 -30 15 -30 33 0 20 14 31 85 66 176 89 260 237 260 462 0 73 -17 113
-67 157 l-34 30 31 63 c74 146 243 249 411 251 l56 1 7 -41z"/>
</g>
</svg>
