<?xml version="1.0" standalone="no"?>
<!DOCTYPE svg PUBLIC "-//W3C//DTD SVG 20010904//EN"
 "http://www.w3.org/TR/2001/REC-SVG-20010904/DTD/svg10.dtd">
<svg version="1.0" xmlns="http://www.w3.org/2000/svg"
 width="2048.000000pt" height="2048.000000pt" viewBox="0 0 2048.000000 2048.000000"
 preserveAspectRatio="xMidYMid meet">
<metadata>
Created by potrace 1.13, written by Peter Selinger 2001-2015
</metadata>
<g transform="translate(0.000000,2048.000000) scale(0.192120,-0.192120)"
fill="#000000" stroke="none">
<path d="M4550 10165 c-304 -51 -718 -248 -912 -433 -143 -137 -200 -253 -201
-407 0 -117 25 -188 89 -243 39 -35 44 -44 44 -82 0 -70 29 -247 61 -380 105
-425 298 -744 514 -851 101 -49 188 -52 331 -9 60 18 162 53 228 77 96 37 120
42 128 32 39 -56 68 -171 68 -270 0 -38 -5 -50 -31 -75 -79 -74 -172 -237
-205 -359 -22 -83 -30 -305 -14 -427 l12 -98 -98 -123 c-125 -155 -465 -497
-609 -611 -236 -188 -525 -361 -763 -455 -110 -44 -301 -104 -367 -115 -64
-12 -179 -72 -207 -108 -38 -50 -55 -89 -63 -140 -21 -138 82 -281 221 -307
131 -25 533 98 864 264 376 189 688 420 1027 760 l182 183 27 -81 c15 -45 100
-280 189 -522 206 -559 209 -565 204 -569 -2 -1 -319 -227 -704 -502 -393
-280 -722 -522 -751 -551 -28 -29 -65 -79 -82 -110 -21 -41 -119 -369 -321
-1076 -160 -560 -291 -1027 -291 -1040 0 -58 -7 -63 -68 -56 -121 16 -447 21
-558 10 -192 -20 -255 -43 -302 -111 -44 -65 -23 -183 40 -224 13 -8 187 -72
388 -141 201 -70 565 -196 810 -281 245 -85 460 -154 478 -154 79 0 140 64
176 182 47 156 58 218 53 302 -5 72 -3 84 23 135 16 32 130 414 264 886 131
457 246 860 256 896 l20 65 342 245 c189 134 393 281 455 326 l113 82 0 -332
c0 -367 4 -399 63 -517 20 -40 57 -90 99 -132 l66 -67 896 -448 c492 -246 898
-444 902 -440 18 17 -104 214 -181 293 -45 45 -107 79 -592 323 -526 264 -863
450 -931 514 -40 38 -72 96 -72 130 0 14 -7 38 -15 53 -12 23 -15 71 -15 224
0 280 -23 351 -128 390 -29 11 -62 20 -72 20 -20 0 -20 9 -20 408 l0 409 -55
12 c-85 19 -214 87 -226 119 -27 69 -24 78 27 108 75 44 83 58 84 141 0 89
-20 154 -172 563 -127 342 -157 409 -205 455 -37 35 -115 65 -172 65 -17 0
-31 2 -31 5 0 3 53 72 119 153 112 140 241 314 289 393 l22 37 -107 63 c-60
35 -166 99 -237 143 l-130 80 -20 -29 c-12 -15 -29 -37 -39 -49 l-18 -21 7 25
c3 14 29 72 56 130 28 58 65 146 83 195 18 50 53 130 79 179 83 158 93 211 51
289 l-24 46 42 35 c58 48 220 142 285 166 30 12 74 23 97 27 l42 5 16 -66 c24
-97 44 -119 155 -172 112 -54 174 -106 316 -271 136 -157 222 -210 323 -198
l49 5 77 -157 c66 -138 171 -389 206 -493 10 -28 34 -51 129 -117 382 -268
644 -539 818 -844 36 -65 78 -128 92 -142 134 -126 355 -88 439 77 21 40 27
66 27 122 1 65 -3 79 -44 160 -25 49 -79 140 -122 204 -320 482 -854 917
-1568 1280 l-136 68 -58 96 c-114 183 -266 334 -401 397 -68 32 -164 59 -211
59 -30 0 -32 3 -68 99 -28 77 -65 187 -66 197 0 1 26 5 57 9 98 12 129 39 193
164 151 300 186 767 83 1096 -70 223 -193 392 -388 530 -251 179 -538 249
-825 200z m440 -339 c152 -49 308 -148 396 -249 19 -23 54 -80 77 -127 l42
-85 3 -340 3 -340 -27 -82 c-32 -101 -87 -167 -147 -178 -53 -10 -123 18 -148
59 -19 29 -19 44 -13 251 l7 220 -42 87 c-55 116 -157 223 -256 269 -129 61
-257 39 -389 -66 -38 -30 -76 -55 -86 -55 -20 0 -45 26 -97 105 -52 77 -173
192 -229 217 -24 10 -71 21 -105 23 -81 5 -90 16 -48 55 42 39 285 159 402
200 163 56 254 70 422 66 130 -3 161 -7 235 -30z m-755 -797 c88 -160 166
-293 174 -297 21 -8 64 20 80 53 8 16 18 67 22 113 6 67 13 94 36 130 77 125
279 138 372 25 46 -56 81 -128 87 -180 5 -39 -1 -69 -31 -158 -35 -105 -37
-113 -27 -180 27 -193 127 -308 303 -350 35 -8 88 -15 117 -15 28 0 52 -2 52
-5 0 -3 -26 -33 -57 -67 -148 -159 -175 -178 -257 -178 -46 0 -86 23 -180 108
-96 85 -149 88 -386 21 -185 -52 -253 -55 -330 -13 -153 83 -292 362 -370 740
-33 157 -54 192 -150 246 -30 17 -57 33 -59 35 -18 14 76 126 145 174 72 49
181 86 264 88 l35 1 160 -291z m2558 -2343 c15 -13 27 -30 27 -37 0 -8 -3 -10
-8 -4 -4 6 -14 11 -22 13 -18 4 -50 32 -50 44 0 15 25 8 53 -16z m-1810 -143
c57 -29 25 -110 -94 -238 -31 -33 -82 -78 -113 -100 -147 -105 -211 -156 -330
-263 -121 -110 -259 -222 -272 -222 -3 0 -14 -10 -25 -22 -10 -13 -18 -18 -19
-12 0 6 96 108 213 226 209 211 350 375 457 533 88 131 103 139 183 98z m2107
-73 c7 -13 7 -20 1 -20 -6 0 -15 9 -21 20 -7 13 -7 20 -1 20 6 0 15 -9 21 -20z
m57 -38 c10 -10 32 -26 48 -37 55 -34 249 -211 326 -296 80 -89 186 -225 233
-297 30 -47 44 -106 28 -116 -14 -9 -51 32 -147 163 -155 212 -188 251 -364
432 -51 53 -96 101 -100 106 -3 5 -14 12 -23 16 -20 7 -44 47 -29 47 6 0 18
-8 28 -18z m-3047 -773 c-7 -11 -14 -18 -17 -15 -8 8 5 36 17 36 7 0 7 -6 0
-21z m1259 -1222 l46 -25 3 -284 2 -284 -82 -53 c-46 -29 -198 -134 -338 -234
-205 -145 -277 -203 -366 -292 -162 -162 -158 -154 -368 -890 -96 -335 -184
-647 -195 -692 -27 -105 -27 -216 0 -328 11 -48 19 -88 17 -90 -2 -2 -43 11
-93 27 -153 51 -428 116 -623 148 -103 17 -191 32 -196 34 -5 1 14 16 41 34
72 47 160 143 188 206 14 31 123 401 244 823 121 423 233 807 249 854 39 115
66 157 132 211 75 61 1100 794 1169 836 64 38 94 38 170 -1z m-1817 -3251 c89
-19 192 -43 228 -53 l65 -18 3 -89 c3 -95 -5 -116 -44 -116 -26 0 -557 182
-624 213 -25 12 -53 29 -63 38 -17 15 -17 17 6 32 71 46 186 44 429 -7z M6552
6423 c-77 -38 -84 -105 -34 -308 18 -71 37 -152 43 -180 6 -27 36 -138 66
-245 105 -375 183 -724 183 -818 0 -101 -7 -121 -47 -128 -19 -4 -62 -25 -96
-49 -70 -47 -120 -75 -157 -85 l-25 -7 25 -6 c14 -3 42 -9 64 -12 l38 -6 -25
-27 c-14 -15 -37 -53 -51 -85 l-26 -58 0 -477 c0 -557 -9 -507 118 -636 103
-103 149 -131 596 -353 l359 -178 191 -2 c105 -1 209 -6 231 -11 32 -8 35 -10
14 -11 -55 -2 -158 -42 -188 -71 -24 -25 -34 -51 -59 -157 -83 -350 -118 -635
-121 -984 -4 -413 37 -658 121 -736 68 -63 192 -51 245 23 32 45 486 1679 480
1726 -11 86 -79 133 -242 167 -95 20 -135 39 -817 381 l-717 360 -3 553 c-2
303 -3 553 -2 555 2 4 68 -21 187 -70 85 -35 128 -48 155 -46 l37 3 3 74 c10
241 -189 1097 -392 1686 -89 259 -84 253 -154 218z m1552 -3985 c99 -19 99
-38 -5 -410 -91 -329 -115 -406 -139 -446 -44 -72 -50 -46 -57 283 -5 250 -4
278 16 383 40 207 50 218 185 190z"/>
</g>
</svg>
