<?xml version="1.0" standalone="no"?>
<!DOCTYPE svg PUBLIC "-//W3C//DTD SVG 20010904//EN"
 "http://www.w3.org/TR/2001/REC-SVG-20010904/DTD/svg10.dtd">
<svg version="1.0" xmlns="http://www.w3.org/2000/svg"
 width="2048.000000pt" height="2048.000000pt" viewBox="0 0 2048.000000 2048.000000"
 preserveAspectRatio="xMidYMid meet">
<metadata>
Created by potrace 1.13, written by Peter Selinger 2001-2015
</metadata>
<g transform="translate(0.000000,2048.000000) scale(0.192120,-0.192120)"
fill="#000000" stroke="none">
<path d="M3925 10280 c-198 -35 -467 -120 -561 -176 -134 -80 -244 -228 -279
-375 -25 -107 -15 -213 23 -241 15 -12 17 -38 17 -243 0 -177 4 -255 18 -339
61 -360 189 -602 365 -688 60 -30 75 -33 152 -32 47 1 144 11 215 24 209 37
193 36 206 4 6 -16 13 -47 16 -69 l5 -40 -348 0 c-332 0 -352 -1 -419 -22
-176 -55 -324 -209 -370 -384 -8 -30 -15 -66 -15 -82 0 -21 -10 -34 -47 -60
-199 -138 -322 -243 -445 -381 -217 -244 -361 -528 -430 -846 -20 -93 -22
-134 -22 -350 -1 -260 6 -320 60 -533 45 -180 72 -251 110 -295 104 -122 294
-131 406 -19 81 81 102 190 60 317 -60 184 -86 339 -86 525 0 159 13 249 56
385 86 271 282 525 544 708 l32 22 58 -30 c67 -34 161 -60 216 -60 l37 0 3
-617 3 -618 25 -65 c14 -36 185 -331 380 -655 195 -324 356 -594 358 -600 1
-6 -37 -30 -85 -54 -464 -228 -1062 -628 -1458 -974 -205 -179 -151 -154 -543
-251 -497 -122 -892 -203 -1335 -271 -125 -19 -488 -65 -515 -65 -2 0 -1 -345
1 -767 3 -750 4 -770 25 -858 33 -133 59 -210 108 -308 160 -324 427 -510 799
-556 128 -16 8002 -16 8130 0 501 61 823 388 916 927 19 112 19 196 19 3895
l0 3782 -62 -110 c-338 -609 -785 -1232 -1296 -1810 -148 -167 -667 -686 -842
-842 -285 -253 -610 -515 -930 -748 -187 -136 -193 -140 -261 -150 l-45 -7
-48 124 c-72 182 -112 253 -182 323 -81 81 -115 97 -726 340 l-498 198 0 367
0 367 52 5 52 5 121 -114 c302 -290 629 -510 930 -628 178 -70 462 -117 569
-95 254 53 304 390 76 514 -43 23 -70 30 -159 37 -134 11 -255 45 -398 114
-191 91 -413 252 -618 447 l-98 94 12 34 c6 19 15 69 18 110 16 208 -113 433
-301 526 -121 59 -164 64 -603 64 l-393 0 -5 23 c-13 57 -35 203 -35 233 0 20
-5 34 -12 34 -21 0 -112 -68 -138 -102 -54 -72 -22 -168 74 -219 25 -13 46
-28 46 -34 -1 -5 -31 -43 -68 -82 l-67 -73 -155 85 c-85 47 -159 90 -164 95
-6 6 5 22 31 45 49 42 60 79 39 130 -19 46 -119 145 -171 169 -40 19 -30 19
-341 0 -85 -6 -93 -5 -131 19 -74 47 -136 140 -181 273 -39 115 -82 365 -82
481 0 29 -4 53 -10 53 -5 0 -10 7 -10 15 0 9 -5 21 -10 28 -6 7 -37 48 -70 92
l-59 80 72 6 c40 4 110 17 157 30 66 19 110 24 196 24 107 0 112 -1 185 -37
99 -50 172 -115 196 -176 15 -39 18 -76 18 -210 0 -89 3 -155 7 -145 4 10 26
83 49 163 63 215 85 250 160 250 43 0 77 -28 108 -88 55 -107 -8 -316 -102
-340 -25 -6 -33 -14 -35 -35 -9 -71 85 -238 191 -340 109 -105 277 -168 380
-143 78 18 201 178 263 341 16 41 31 75 34 74 3 0 25 -26 50 -58 162 -208 415
-305 751 -287 375 19 649 143 859 389 70 81 230 310 230 329 0 5 -19 -7 -42
-27 -97 -83 -251 -134 -401 -135 -194 0 -327 56 -572 240 -88 66 -190 136
-226 155 -72 37 -170 65 -235 65 -61 0 -185 -35 -263 -74 l-68 -34 -6 68 c-9
107 -34 196 -87 305 -123 255 -389 458 -683 520 -95 21 -316 18 -442 -5z m417
-295 c145 -30 266 -95 373 -201 75 -73 129 -165 155 -264 35 -131 160 -294
267 -346 l55 -27 129 23 c215 39 267 23 523 -158 88 -62 178 -123 198 -134 47
-27 51 -61 11 -81 -45 -23 -224 -40 -330 -33 -176 13 -290 55 -418 152 -71 53
-169 109 -208 118 -63 15 -179 -69 -316 -228 -46 -53 -97 -104 -114 -112 -66
-35 -158 2 -215 87 -30 43 -26 76 22 189 33 80 36 92 36 194 0 105 -1 110 -36
177 -39 74 -116 154 -177 182 -40 20 -109 22 -171 6 -50 -12 -80 -1 -151 56
-62 50 -113 79 -195 111 -72 28 -81 29 -230 28 -101 -1 -157 2 -162 9 -12 20
21 65 69 94 101 62 367 143 548 166 76 10 275 6 337 -8z m5756 -5370 l-3
-3390 -31 -90 c-54 -153 -125 -260 -234 -355 -131 -112 -265 -165 -485 -189
-138 -16 -7910 -17 -8039 -1 -221 26 -403 103 -511 218 -65 68 -139 194 -181
308 l-29 79 -3 698 -3 697 25 0 c37 0 56 10 56 30 0 14 12 19 58 25 234 28
882 148 892 166 4 6 85 28 181 49 204 45 210 48 397 133 165 76 168 90 -21
-122 -134 -152 -244 -290 -358 -452 l-89 -127 -58 -7 c-88 -10 -130 -35 -212
-121 -98 -103 -148 -203 -195 -394 -16 -61 -21 -378 -7 -408 71 -146 79 -157
167 -246 106 -105 223 -181 379 -247 159 -66 223 -57 336 48 l57 53 84 -15
c421 -75 952 -86 1459 -29 827 91 1794 388 2550 781 1041 542 2566 1660 3298
2418 111 115 146 145 178 154 103 28 234 154 234 225 0 38 -56 132 -118 198
-103 109 -180 148 -354 183 -45 9 -91 19 -100 21 -30 9 -21 59 23 137 67 118
119 257 119 318 0 48 -36 114 -100 182 -87 93 -129 103 -208 48 -24 -17 -51
-20 -267 -25 -378 -8 -776 -52 -1369 -152 -115 -19 -216 -33 -225 -31 -9 2 15
19 55 39 170 87 410 242 544 351 291 237 794 720 1088 1046 92 101 194 212
227 246 33 34 80 90 105 124 25 34 79 106 120 159 102 131 267 350 378 502
108 147 121 163 147 178 16 9 22 8 33 -5 10 -14 12 -697 10 -3408z m-5768
3239 c111 -49 151 -52 224 -20 66 29 114 34 166 16 23 -9 160 -15 405 -20 309
-6 379 -10 424 -24 74 -24 126 -59 155 -104 23 -35 24 -49 31 -239 4 -111 4
-212 0 -224 -7 -21 -10 -21 -125 -14 -144 8 -162 2 -268 -99 -117 -111 -112
-88 -112 -513 0 -235 4 -363 10 -363 6 0 10 -8 10 -19 0 -58 162 -230 263
-279 34 -17 237 -101 450 -186 418 -167 507 -209 555 -259 16 -18 59 -86 94
-152 100 -190 244 -325 346 -325 20 0 31 4 27 10 -14 22 -15 64 -3 71 7 5 33
9 58 9 26 0 67 10 98 25 30 14 58 23 63 20 4 -3 34 8 66 24 191 96 357 138
768 192 133 17 161 18 168 7 7 -11 28 -11 113 -3 58 6 107 9 109 6 29 -28 -45
-85 -242 -185 -59 -30 -279 -129 -488 -221 -209 -91 -399 -177 -421 -190 -23
-14 -61 -47 -84 -75 -42 -50 -42 -50 -59 -29 -17 21 -17 20 -63 -47 -68 -103
-71 -111 -65 -174 9 -103 71 -218 175 -324 71 -72 104 -95 265 -181 174 -93
194 -112 263 -250 39 -77 76 -135 116 -179 63 -70 82 -79 93 -45 5 14 12 18
23 14 10 -4 26 -9 37 -12 11 -2 36 -9 55 -14 49 -15 113 8 492 171 238 101
305 127 312 116 7 -10 30 -4 112 32 114 50 149 52 118 5 -9 -15 -81 -91 -158
-169 -160 -160 -489 -428 -691 -562 -71 -48 -202 -139 -290 -203 -88 -63 -205
-146 -260 -183 -83 -57 -225 -165 -245 -186 -32 -35 -330 -232 -595 -393 -190
-115 -894 -461 -1134 -557 -508 -203 -930 -332 -1391 -424 -488 -97 -1131
-150 -1410 -116 -162 20 -192 39 -127 78 17 11 374 169 792 352 764 334 857
376 907 412 27 19 73 82 119 165 26 47 34 50 84 29 19 -8 35 -11 35 -5 0 5 -4
9 -10 9 -6 0 -10 31 -10 74 0 91 -11 119 -207 511 -77 154 -155 323 -173 375
-46 134 -69 176 -143 252 l-64 67 -12 -25 -11 -25 -28 19 c-15 10 -34 21 -43
24 -32 12 -130 -16 -329 -94 -113 -44 -245 -96 -295 -115 -91 -35 -271 -111
-535 -223 -80 -34 -185 -79 -235 -100 -49 -21 -160 -68 -245 -105 -203 -88
-257 -106 -264 -89 -9 23 6 49 64 116 99 116 165 164 318 239 123 60 153 79
210 136 68 66 302 266 422 359 215 168 459 332 715 485 99 59 187 113 196 121
8 8 44 32 80 53 35 22 87 61 115 87 l51 48 -5 -47 -4 -48 32 30 c45 42 115
142 140 199 11 26 20 69 20 96 0 99 -48 193 -375 740 -299 499 -315 528 -315
563 0 14 -7 44 -15 67 -13 36 -15 127 -15 576 0 344 -4 535 -10 539 -5 3 -10
15 -10 26 0 10 -4 19 -9 19 -5 0 -12 11 -15 25 -9 34 -161 187 -212 213 -49
25 -199 69 -280 82 -66 11 -104 42 -104 86 0 13 17 57 38 96 22 40 47 94 57
121 36 95 124 166 246 198 24 6 169 15 324 19 268 6 283 8 355 33 88 32 110
30 220 -19z m-1277 -633 l35 -49 -74 -11 c-91 -13 -118 -27 -213 -105 -183
-152 -376 -475 -436 -731 -12 -54 -15 -144 -15 -481 0 -274 -3 -413 -10 -409
-6 4 -10 201 -10 559 0 476 2 559 15 592 62 155 152 285 324 471 164 177 198
218 241 291 l42 74 33 -76 c18 -41 49 -97 68 -125z m2912 -101 c29 -57 142
-191 208 -248 57 -49 145 -115 266 -199 25 -18 53 -37 61 -43 8 -6 21 -15 29
-19 7 -5 12 -14 10 -19 -3 -7 -21 -3 -49 10 -25 12 -48 20 -52 20 -5 -1 -8 3
-8 10 0 6 -3 8 -6 5 -4 -3 -16 -1 -28 5 -62 32 -265 162 -360 232 -107 77
-239 147 -303 161 -18 4 -33 10 -33 14 0 4 27 26 59 49 33 23 81 66 108 96
l48 55 16 -47 c9 -27 24 -63 34 -82z m592 -542 c-3 -8 -6 -5 -6 6 -1 11 2 17
5 13 3 -3 4 -12 1 -19z m20 -10 c-3 -8 -6 -5 -6 6 -1 11 2 17 5 13 3 -3 4 -12
1 -19z m20 -10 c-3 -8 -6 -5 -6 6 -1 11 2 17 5 13 3 -3 4 -12 1 -19z m2773
-1128 c0 -101 -62 -224 -207 -411 -49 -62 -143 -169 -210 -238 -67 -69 -121
-126 -120 -127 1 -1 49 2 107 6 281 24 574 -1 734 -61 62 -23 151 -98 144
-121 -3 -7 -15 -19 -29 -26 -13 -7 -409 -181 -879 -386 -470 -206 -881 -386
-912 -400 l-58 -26 0 45 c0 130 -61 268 -164 371 -66 65 -87 79 -289 180
l-219 110 -38 93 c-38 92 -38 92 -17 101 67 28 2041 892 2087 913 30 14 58 26
63 26 4 1 7 -22 7 -49z m-5310 -2347 c0 -60 7 -96 28 -153 45 -125 326 -672
377 -734 45 -56 45 -56 23 -66 -13 -5 -581 -253 -1263 -551 -682 -298 -1248
-542 -1257 -541 -29 1 -187 69 -266 114 -89 50 -183 134 -217 192 -38 66 -51
159 -36 269 13 99 68 276 124 397 l35 76 1163 509 c640 279 1189 521 1219 536
30 15 58 28 63 29 4 0 7 -35 7 -77z M5148 5367 c-46 -20 -135 -104 -162 -153
-18 -32 -26 -61 -26 -93 1 -135 149 -370 290 -461 37 -24 65 -33 110 -37 l61
-6 -6 45 -6 45 38 0 c84 -3 261 115 294 195 11 28 15 30 51 25 35 -5 38 -3 38
20 0 75 -106 215 -223 295 -155 106 -370 164 -459 125z m260 -285 l274 -110
-59 -16 c-32 -9 -114 -34 -183 -56 -68 -21 -125 -38 -126 -37 -1 1 -39 65 -86
142 -46 77 -93 153 -104 170 -14 22 -15 28 -4 23 8 -4 138 -56 288 -116z
M6095 4300 c4 -6 9 -24 11 -39 5 -27 3 -28 -48 -34 -99 -10 -626 -232 -699
-294 -15 -13 -17 -10 -13 27 l4 41 -73 -60 c-145 -120 -206 -211 -241 -360
-40 -171 -48 -232 -44 -362 l3 -124 54 -120 c29 -66 81 -183 115 -260 76 -175
100 -216 169 -288 55 -56 77 -69 77 -44 0 27 21 36 48 21 15 -8 38 -14 52 -14
15 0 30 -4 36 -10 6 -6 41 2 97 20 135 46 1078 453 1222 528 92 49 186 137
214 202 12 28 25 48 30 46 4 -3 21 -7 37 -10 l30 -6 -6 53 c-3 31 -18 73 -35
102 -46 78 -179 203 -270 254 -295 163 -301 170 -411 415 -66 147 -188 277
-287 305 -23 7 -50 15 -61 18 -12 3 -16 1 -11 -7z m165 -423 c128 -320 160
-353 523 -532 l229 -112 -43 -17 c-47 -19 -1339 -584 -1452 -635 -38 -17 -70
-31 -71 -31 -2 0 -6 28 -9 63 -9 88 -31 145 -145 373 l-100 200 51 256 51 257
430 189 c237 105 437 190 444 189 7 -1 49 -91 92 -200z"/>
</g>
</svg>
