<?xml version="1.0" standalone="no"?>
<!DOCTYPE svg PUBLIC "-//W3C//DTD SVG 20010904//EN"
 "http://www.w3.org/TR/2001/REC-SVG-20010904/DTD/svg10.dtd">
<svg version="1.0" xmlns="http://www.w3.org/2000/svg"
 width="2048.000000pt" height="2048.000000pt" viewBox="0 0 2048.000000 2048.000000"
 preserveAspectRatio="xMidYMid meet">
<metadata>
Created by potrace 1.13, written by Peter Selinger 2001-2015
</metadata>
<g transform="translate(0.000000,2048.000000) scale(0.192120,-0.192120)"
fill="#000000" stroke="none">
<path d="M10247 9395 c-42 -57 -188 -244 -324 -417 -329 -418 -569 -730 -800
-1039 -451 -605 -815 -986 -1258 -1319 -412 -309 -842 -530 -1520 -779 -258
-94 -405 -134 -675 -181 -828 -143 -2354 -167 -3870 -59 -381 27 -788 30 -900
7 -171 -36 -247 -83 -322 -197 -103 -157 -184 -352 -225 -542 -26 -123 -24
-372 4 -495 48 -205 136 -372 275 -519 186 -197 410 -306 713 -347 127 -17
887 -16 1195 1 682 38 2066 149 2530 202 749 86 1676 306 2235 531 364 147
490 235 576 402 68 131 96 176 459 726 191 289 414 631 495 760 233 371 338
513 855 1150 313 386 469 584 567 723 l73 101 0 698 c0 384 -1 698 -2 697 -2
0 -38 -47 -81 -104z m-187 -958 l0 -323 -102 -134 c-56 -74 -167 -216 -247
-315 -619 -767 -779 -972 -928 -1195 -116 -174 -292 -459 -346 -560 -65 -124
-106 -188 -355 -562 -114 -172 -249 -381 -300 -464 -123 -203 -181 -265 -308
-331 -103 -53 -298 -135 -442 -184 -45 -15 -94 -37 -109 -48 -14 -12 -31 -21
-37 -21 -19 0 -66 -40 -157 -134 l-86 -88 -6 73 c-6 68 -89 1403 -100 1602 -3
48 -1 87 3 87 4 0 37 -9 72 -20 94 -29 168 -29 264 1 17 5 41 11 52 14 60 11
471 216 638 318 279 169 521 348 771 571 28 25 53 41 55 35 4 -13 273 261 414
421 152 174 287 344 539 680 346 462 692 900 711 900 2 0 4 -145 4 -323z
m-3716 -2949 c3 -18 15 -170 26 -338 20 -301 26 -835 11 -890 -6 -23 -20 -28
-166 -62 -349 -83 -753 -157 -1074 -198 -417 -53 -2357 -210 -2603 -210 l-38
0 0 736 0 737 113 -7 c476 -27 1592 -26 2087 4 668 40 1168 115 1515 229 118
38 121 38 129 -1z m-4074 -954 l0 -975 -39 22 c-21 12 -52 33 -67 46 -35 30
-97 63 -119 63 -8 0 -15 4 -15 9 0 4 -132 11 -292 14 -327 6 -450 21 -593 68
-254 84 -468 302 -545 556 -20 66 -21 88 -18 324 4 284 6 293 90 463 76 152
141 217 243 245 121 34 436 33 943 -2 138 -10 172 -10 172 0 0 7 7 13 15 13
20 0 88 34 108 54 13 14 107 76 114 76 2 0 3 -439 3 -976z M6659 3100 c-724
-41 -1295 -184 -1509 -377 -106 -96 -100 -49 -100 -723 l0 -585 24 -51 c95
-204 593 -376 1307 -450 209 -21 795 -30 1026 -15 341 22 588 58 851 122 281
69 482 155 589 253 98 89 93 46 93 721 0 554 -2 592 -19 631 -98 216 -627 392
-1381 459 -212 18 -680 27 -881 15z m626 -240 c477 -24 884 -90 1154 -189 94
-34 212 -96 224 -117 4 -8 14 -14 22 -14 7 0 15 -3 17 -8 2 -4 26 -24 53 -44
28 -20 61 -48 75 -63 l25 -27 -45 -40 c-86 -77 -306 -168 -550 -228 -358 -87
-771 -130 -1265 -130 -603 0 -1118 69 -1502 201 -187 64 -361 167 -347 204 3
8 36 39 72 70 37 31 77 65 88 76 31 28 165 92 266 127 398 140 1086 213 1713
182z m-1832 -876 c800 -280 2251 -282 3070 -5 l117 40 0 -284 0 -285 -92 -44
c-190 -92 -517 -166 -933 -211 -202 -22 -806 -31 -1031 -16 -502 35 -936 122
-1159 233 -103 52 -95 23 -95 335 0 182 3 273 10 273 6 0 57 -16 113 -36z"/>
</g>
</svg>
