<?xml version="1.0" standalone="no"?>
<!DOCTYPE svg PUBLIC "-//W3C//DTD SVG 20010904//EN"
 "http://www.w3.org/TR/2001/REC-SVG-20010904/DTD/svg10.dtd">
<svg version="1.0" xmlns="http://www.w3.org/2000/svg"
 width="2048.000000pt" height="2048.000000pt" viewBox="0 0 2048.000000 2048.000000"
 preserveAspectRatio="xMidYMid meet">
<metadata>
Created by potrace 1.13, written by Peter Selinger 2001-2015
</metadata>
<g transform="translate(0.000000,2048.000000) scale(0.192120,-0.192120)"
fill="#000000" stroke="none">
<path d="M5075 10323 c-199 -15 -311 -27 -435 -45 l-145 -20 -150 -77 c-501
-259 -961 -592 -1369 -991 -327 -321 -565 -612 -796 -975 -206 -324 -416 -745
-531 -1062 -18 -51 -36 -93 -40 -93 -11 0 -100 123 -169 234 -129 205 -249
492 -281 674 -14 83 -13 86 51 96 54 9 98 42 168 131 288 362 466 558 699 766
311 280 669 525 1123 771 211 115 631 320 782 383 64 27 116 51 114 53 -11 10
-327 -85 -511 -153 -572 -213 -1075 -514 -1548 -925 -124 -107 -386 -371 -494
-497 -286 -333 -560 -755 -733 -1129 l-42 -92 71 -140 c325 -639 868 -1147
1606 -1503 792 -381 1750 -582 3000 -630 165 -6 301 -12 302 -13 1 -1 27 -98
57 -216 121 -475 197 -929 231 -1396 l7 -91 -196 -6 c-234 -7 -702 6 -975 28
-1803 144 -3268 813 -4255 1943 -108 124 -256 316 -256 332 0 5 18 29 39 54
53 61 66 101 101 316 41 246 89 459 157 693 55 191 56 193 60 352 l4 160 -21
-45 c-72 -153 -181 -494 -239 -745 -108 -467 -150 -981 -121 -1455 l11 -165
152 -149 c584 -573 1251 -1006 2032 -1321 938 -378 2040 -568 3198 -553 l316
4 -5 -46 c-2 -25 -9 -112 -15 -195 -23 -319 -86 -700 -169 -1018 -21 -82 -41
-151 -43 -153 -5 -6 -375 12 -567 26 -1321 101 -2427 406 -3347 921 -332 186
-678 434 -928 663 l-94 86 6 70 c7 84 -1 114 -84 327 -88 226 -145 396 -198
591 -51 188 -114 356 -181 482 l-44 85 5 -55 c18 -163 73 -425 142 -665 216
-762 642 -1497 1204 -2079 124 -128 136 -138 227 -182 776 -371 1614 -604
2587 -719 237 -28 534 -52 735 -60 225 -9 344 -16 348 -19 10 -10 -176 -386
-254 -515 l-27 -44 157 7 c146 7 504 40 510 48 2 2 39 86 83 188 286 658 442
1308 494 2054 15 225 7 857 -15 1071 -61 605 -188 1228 -353 1728 l-35 109 37
91 c140 341 311 635 524 900 93 115 411 437 432 437 32 0 292 -633 398 -970
301 -959 384 -1974 246 -3010 -95 -704 -320 -1509 -600 -2145 -31 -71 -60
-134 -64 -138 -4 -4 -21 -3 -37 3 -49 19 -153 15 -224 -8 -36 -12 -155 -44
-265 -72 -110 -28 -229 -63 -265 -77 -72 -28 -182 -90 -220 -123 l-25 -21 50
6 c270 33 738 168 1079 311 173 72 612 298 649 333 25 24 203 591 281 893 251
978 321 1963 205 2918 -92 767 -318 1537 -663 2264 -36 76 -66 142 -66 146 0
12 271 127 413 176 204 70 420 118 697 157 l36 5 69 -116 c97 -162 241 -451
305 -612 169 -431 262 -814 317 -1320 25 -231 25 -856 0 -1115 -79 -799 -286
-1643 -602 -2452 -89 -225 -85 -219 -142 -228 -65 -10 -116 -37 -193 -104 -36
-31 -87 -75 -115 -96 -27 -22 -52 -43 -55 -46 -3 -4 -25 -23 -48 -43 -74 -61
-301 -321 -290 -331 3 -3 58 32 124 76 664 453 1236 1111 1608 1849 l83 165
41 205 c98 489 146 883 161 1330 34 1002 -148 1901 -540 2679 l-88 174 87 -7
c48 -3 125 -13 172 -20 47 -8 87 -12 88 -11 7 6 -157 295 -241 425 -44 69 -85
133 -91 144 -10 17 -26 18 -296 13 -296 -6 -444 -19 -690 -61 -1099 -191
-1958 -789 -2504 -1745 -104 -182 -264 -529 -319 -693 -5 -15 -18 -18 -69 -18
-194 0 -688 36 -983 71 -335 39 -755 115 -755 136 0 7 30 90 66 185 312 813
683 1420 1174 1922 660 675 1440 1055 2405 1173 259 31 936 23 1058 -13 9 -3
17 -15 17 -28 0 -12 7 -45 17 -72 14 -41 45 -79 202 -239 102 -105 226 -232
275 -284 49 -51 112 -110 140 -131 59 -43 165 -104 171 -98 2 2 -34 53 -80
113 -363 478 -862 919 -1413 1249 l-113 68 -177 -16 c-1083 -98 -1966 -476
-2730 -1169 -621 -564 -1136 -1377 -1494 -2357 l-61 -169 -121 44 c-393 140
-717 301 -1001 500 -145 101 -141 96 -121 132 9 15 40 96 70 178 149 415 347
815 571 1156 490 742 1152 1326 1965 1735 458 230 969 408 1384 482 l106 20
18 -22 c47 -59 87 -76 299 -131 197 -51 489 -137 522 -154 42 -22 423 -118
541 -136 67 -11 44 5 -120 80 -556 256 -1132 400 -1770 445 -133 9 -468 11
-565 3z m-395 -317 c0 -13 -117 -87 -270 -171 -660 -364 -1231 -861 -1690
-1471 -307 -408 -604 -966 -767 -1442 -38 -113 -47 -153 -51 -228 -4 -88 -3
-94 28 -153 85 -158 242 -280 603 -466 418 -215 688 -304 780 -254 48 26 127
110 162 173 18 34 60 131 93 216 425 1101 1026 1920 1812 2469 238 166 409
265 642 372 405 186 805 303 1253 368 219 32 340 37 408 17 114 -33 65 -55
-183 -81 -80 -8 -172 -20 -205 -26 -33 -5 -69 -12 -80 -13 -11 -2 -33 -6 -50
-10 -848 -170 -1521 -522 -2124 -1111 -298 -291 -545 -600 -752 -940 -211
-345 -424 -782 -545 -1115 -30 -85 -38 -123 -42 -198 -5 -102 3 -132 52 -197
49 -66 122 -121 190 -143 232 -76 1190 -182 1543 -170 136 4 157 12 240 90 66
63 85 96 173 299 291 672 688 1163 1239 1533 529 355 1200 558 1931 583 197 6
234 1 285 -39 29 -23 65 -87 65 -117 0 -10 -17 -41 -39 -68 -101 -128 -99
-149 46 -481 198 -456 298 -788 378 -1258 l36 -209 -4 -815 -3 -815 -27 -165
c-88 -528 -152 -741 -291 -960 l-41 -65 -3 128 c-2 119 0 142 43 345 79 373
121 630 155 954 17 162 13 1138 -5 1298 -67 583 -227 1123 -485 1640 -111 223
-157 295 -240 374 -111 106 -123 111 -250 110 -223 -3 -681 -127 -920 -250
-97 -50 -170 -117 -224 -208 -58 -97 -50 -138 90 -462 284 -657 447 -1223 545
-1889 l29 -200 0 -831 c0 -771 -1 -842 -20 -977 -64 -474 -171 -969 -296
-1366 -106 -335 -142 -401 -248 -457 -49 -25 -58 -27 -67 -14 -16 23 -4 86 45
231 215 643 349 1247 411 1860 21 206 21 1229 0 1425 -74 700 -249 1389 -506
1986 -105 246 -138 305 -203 372 -98 99 -158 116 -251 72 -202 -96 -558 -503
-778 -892 -87 -155 -195 -380 -231 -483 -54 -154 -52 -224 15 -457 110 -389
185 -727 251 -1129 l33 -200 0 -855 c0 -950 6 -854 -71 -1245 -74 -377 -231
-882 -343 -1103 -52 -101 -106 -140 -187 -130 -25 3 -29 7 -32 39 -2 21 4 64
12 97 34 128 17 187 -78 284 -88 89 -135 102 -401 113 -77 3 -187 10 -245 14
-58 5 -112 9 -120 9 -208 1 -892 102 -1276 187 -665 148 -1411 419 -1651 599
-104 78 -214 209 -198 236 3 5 137 -58 298 -139 160 -81 344 -169 407 -196
870 -361 1838 -569 2964 -636 310 -18 371 -6 463 95 90 98 122 182 187 492 76
358 106 599 106 840 0 176 -1 183 -26 227 -27 49 -107 128 -158 155 -26 14
-86 17 -391 23 -613 13 -1045 47 -1480 120 -1154 191 -2115 584 -2955 1208
-63 47 -120 90 -126 96 -7 5 -27 21 -44 35 -79 60 -252 212 -343 300 l-99 95
-6 93 c-4 71 -2 92 8 92 7 0 77 -62 154 -137 313 -305 527 -480 859 -702 1072
-717 2500 -1097 4057 -1079 351 4 355 5 445 96 91 94 95 107 95 333 0 215 -21
402 -81 732 -54 301 -143 668 -182 758 -28 61 -116 156 -181 194 -51 29 -141
42 -351 50 -646 23 -1361 116 -1860 241 -353 89 -789 251 -1110 414 -407 205
-683 405 -956 688 -185 193 -406 505 -449 637 -36 108 43 246 102 178 8 -10
39 -63 68 -118 151 -285 298 -445 406 -445 95 0 187 116 303 385 299 692 719
1293 1251 1791 416 389 1023 797 1350 908 78 27 180 33 180 12z M9780 7500 c0
-77 5 -94 98 -320 199 -488 320 -1007 362 -1549 13 -174 13 -601 0 -789 -20
-283 -69 -618 -130 -899 -16 -75 -28 -138 -26 -140 5 -6 52 148 91 300 286
1116 168 2329 -326 3365 -27 56 -54 102 -59 102 -6 0 -10 -31 -10 -70z M10071
3774 c0 -11 3 -14 6 -6 3 7 2 16 -1 19 -3 4 -6 -2 -5 -13z M2170 1461 c68 -61
267 -209 385 -288 785 -522 1668 -806 2610 -838 l180 -7 -25 21 c-14 11 -49
37 -78 57 -57 40 -44 37 -352 64 -634 54 -1238 234 -1920 571 -118 58 -273
138 -345 176 -71 39 -157 85 -190 103 -33 18 -98 55 -145 83 -47 27 -101 59
-120 69 l-35 20 35 -31z"/>
</g>
</svg>
