<?xml version="1.0" standalone="no"?>
<!DOCTYPE svg PUBLIC "-//W3C//DTD SVG 20010904//EN"
 "http://www.w3.org/TR/2001/REC-SVG-20010904/DTD/svg10.dtd">
<svg version="1.0" xmlns="http://www.w3.org/2000/svg"
 width="2048.000000pt" height="2048.000000pt" viewBox="0 0 2048.000000 2048.000000"
 preserveAspectRatio="xMidYMid meet">
<metadata>
Created by potrace 1.13, written by Peter Selinger 2001-2015
</metadata>
<g transform="translate(0.000000,2048.000000) scale(0.192120,-0.192120)"
fill="#000000" stroke="none">
<path d="M3320 9973 c-268 -21 -588 -84 -839 -165 -1364 -442 -2192 -1681
-2148 -3213 15 -488 98 -918 269 -1390 382 -1054 1176 -1964 2068 -2370 291
-133 561 -212 880 -257 146 -20 613 -17 765 5 217 32 445 87 640 153 449 153
770 245 1010 290 157 29 296 7 465 -72 215 -102 390 -244 765 -625 326 -331
438 -468 936 -1145 513 -700 581 -784 663 -823 79 -39 167 -24 274 46 60 39
669 635 779 762 160 186 167 322 25 452 -57 52 -394 306 -848 639 -560 410
-745 564 -1079 896 -400 397 -556 605 -634 842 -49 151 -48 256 5 485 66 287
133 511 196 657 315 727 352 1503 105 2201 -177 499 -468 935 -923 1379 -720
703 -1688 1148 -2708 1245 -144 14 -534 18 -666 8z m755 -297 c978 -120 1879
-556 2553 -1236 449 -452 735 -949 846 -1471 l27 -125 -3 -474 -3 -475 -28
-81 c-18 -51 -47 -105 -80 -150 -49 -65 -863 -888 -1282 -1295 -104 -102 -406
-405 -670 -673 -511 -520 -709 -711 -790 -757 -133 -77 -357 -112 -720 -113
-272 -1 -351 6 -567 49 -699 141 -1361 570 -1880 1220 -448 560 -761 1279
-868 1990 -18 115 -20 184 -20 613 0 470 1 486 25 629 83 482 248 873 523
1243 109 147 371 409 514 515 469 347 1002 545 1634 604 147 14 634 6 789 -13z
m3525 -4126 c-17 -34 -83 -147 -146 -253 -202 -334 -238 -422 -324 -794 -37
-159 -40 -184 -40 -318 0 -111 4 -161 19 -213 21 -75 69 -194 107 -261 14 -25
24 -60 24 -83 l0 -39 -32 22 c-18 13 -150 138 -293 279 -143 141 -280 270
-305 287 -47 31 -110 57 -118 48 -3 -3 695 -706 1551 -1563 1540 -1540 1580
-1582 1525 -1582 -5 0 -37 -18 -73 -41 -86 -54 -212 -189 -252 -270 l-32 -64
-1561 1560 c-922 922 -1560 1552 -1560 1542 0 -41 43 -93 259 -312 301 -306
399 -421 378 -441 -7 -7 -103 28 -281 101 -136 57 -256 78 -396 71 -161 -8
-381 -58 -585 -133 -124 -46 -266 -117 -453 -226 -236 -138 -287 -164 -273
-140 12 23 2874 2883 2884 2883 4 0 -6 -27 -23 -60z m1146 -3368 c66 -48 238
-175 384 -282 316 -231 443 -326 528 -393 60 -49 62 -52 62 -97 0 -36 -7 -55
-30 -87 -41 -56 -85 -71 -137 -47 -86 42 -1003 980 -1003 1028 0 14 83 -37
196 -122z m-235 -881 c537 -534 539 -536 539 -577 0 -44 -16 -65 -80 -103 -70
-42 -141 -18 -222 74 -54 62 -286 373 -564 760 -220 305 -274 385 -274 406 0
20 0 20 31 -1 16 -12 273 -264 570 -559z M8995 9494 c-273 -38 -451 -126 -621
-307 -97 -103 -166 -216 -210 -344 -45 -132 -58 -223 -51 -368 11 -244 98
-443 271 -624 427 -444 1145 -383 1497 126 106 153 158 311 166 503 12 275
-78 516 -266 713 -143 150 -303 240 -503 282 -71 15 -233 26 -283 19z m305
-235 c221 -56 411 -205 507 -398 l38 -76 3 -223 c2 -134 -1 -243 -7 -273 -25
-113 -136 -282 -245 -370 -77 -62 -199 -123 -301 -151 -108 -28 -318 -31 -420
-4 -147 38 -309 132 -404 235 -49 53 -120 164 -149 235 -24 57 -26 73 -30 271
-4 234 3 273 69 390 36 64 141 180 207 229 105 77 265 139 399 156 92 11 242
2 333 -21z"/>
</g>
</svg>
