<?xml version="1.0" standalone="no"?>
<!DOCTYPE svg PUBLIC "-//W3C//DTD SVG 20010904//EN"
 "http://www.w3.org/TR/2001/REC-SVG-20010904/DTD/svg10.dtd">
<svg version="1.0" xmlns="http://www.w3.org/2000/svg"
 width="2048.000000pt" height="2048.000000pt" viewBox="0 0 2048.000000 2048.000000"
 preserveAspectRatio="xMidYMid meet">
<metadata>
Created by potrace 1.13, written by Peter Selinger 2001-2015
</metadata>
<g transform="translate(0.000000,2048.000000) scale(0.192120,-0.192120)"
fill="#000000" stroke="none">
<path d="M7473 10140 c-80 -40 -170 -136 -355 -380 -226 -296 -284 -366 -444
-530 -152 -155 -184 -198 -184 -243 0 -35 33 -72 81 -91 l41 -17 -56 -59 c-63
-69 -77 -110 -52 -158 14 -26 66 -60 115 -74 16 -5 -155 -192 -321 -355 -58
-56 -113 -118 -123 -139 -22 -47 -23 -103 -1 -136 20 -31 97 -74 149 -83 l39
-8 -85 -86 c-47 -47 -92 -100 -101 -118 -22 -44 -20 -112 4 -143 l19 -25 -169
-165 c-178 -174 -209 -217 -210 -293 0 -47 20 -87 59 -120 34 -29 121 -64 181
-73 22 -4 40 -9 40 -13 0 -3 -51 -55 -114 -116 -86 -83 -121 -124 -140 -165
-28 -59 -33 -109 -15 -143 11 -19 -6 -39 -213 -242 -182 -178 -230 -231 -252
-277 -51 -105 -45 -176 23 -251 l36 -40 -60 6 c-33 4 -567 7 -1188 8 l-1127 1
-52 -30 c-29 -16 -65 -44 -79 -63 -15 -19 -285 -635 -599 -1370 l-572 -1336
-91 -38 c-137 -57 -393 -186 -498 -251 -421 -259 -679 -541 -791 -865 -31 -90
-33 -100 -32 -239 2 -185 27 -292 113 -465 152 -304 402 -505 745 -598 l81
-22 4000 -3 c2814 -2 4025 0 4083 8 368 48 681 274 852 615 87 173 113 279
114 465 0 139 -1 149 -33 240 -103 302 -341 571 -720 818 -298 195 -760 393
-1176 505 l-120 32 -67 595 c-37 327 -67 622 -67 656 l-1 61 253 -33 c138 -18
365 -48 502 -68 471 -67 605 -79 830 -80 184 0 221 2 297 22 324 81 366 270
124 555 -23 26 -112 114 -200 194 -116 107 -171 166 -203 217 -27 42 -106 133
-192 220 l-146 149 84 18 c258 57 355 186 270 360 -27 55 -64 96 -257 284
-215 211 -224 222 -212 244 20 39 7 113 -30 171 -18 28 -79 94 -136 147 -57
53 -104 99 -104 103 0 4 21 10 48 14 55 7 147 48 180 79 35 32 52 71 52 114
-1 73 -33 120 -205 293 l-165 165 22 43 c18 39 19 48 9 85 -15 51 -55 102
-140 182 l-63 59 43 12 c160 41 206 131 125 248 -21 30 -74 87 -118 127 -45
41 -135 132 -201 203 l-119 130 41 14 c58 19 101 62 101 102 0 42 -13 66 -73
127 l-50 52 42 17 c74 30 103 97 64 154 -9 14 -78 88 -153 165 -155 160 -230
248 -391 460 -293 388 -384 477 -498 492 -27 3 -52 -3 -98 -27z m169 -322 c25
-24 133 -153 240 -288 182 -228 293 -350 395 -433 95 -78 182 -209 151 -229
-22 -13 -190 -9 -284 7 -184 32 -392 119 -523 218 l-64 48 -26 -24 c-108 -99
-354 -207 -555 -242 -96 -16 -263 -20 -285 -6 -27 17 37 109 162 231 144 139
245 255 403 460 65 85 151 188 190 228 65 65 75 72 111 72 33 0 47 -7 85 -42z
m-24 -1009 c72 -55 201 -123 304 -160 125 -46 239 -69 379 -76 l127 -6 -14
-33 c-8 -18 -14 -59 -14 -89 0 -78 30 -126 167 -263 62 -62 113 -121 113 -131
0 -9 4 -21 9 -26 5 -6 11 -45 13 -87 4 -63 2 -78 -11 -83 -30 -12 -242 -5
-343 11 -247 39 -531 155 -707 288 -29 23 -59 45 -66 50 -8 6 -40 -11 -98 -53
-179 -130 -448 -241 -682 -281 -117 -20 -348 -28 -371 -12 -14 9 9 173 28 200
7 11 47 57 89 103 109 119 124 139 153 194 30 55 34 126 12 180 l-15 35 88 0
c235 0 535 97 713 231 34 26 65 48 67 48 2 1 29 -18 59 -40z m-17 -861 c44
-13 54 -32 12 -22 -16 4 -40 7 -55 8 -29 1 -37 11 -15 19 18 8 17 8 58 -5z
m-81 -14 c0 -8 -4 -12 -10 -9 -5 3 -10 10 -10 16 0 5 5 9 10 9 6 0 10 -7 10
-16z m-25 -3 c3 -5 1 -12 -5 -16 -5 -3 -10 1 -10 9 0 18 6 21 15 7z m391 -123
c7 -5 20 -11 30 -13 11 -2 62 -18 114 -35 115 -39 289 -76 428 -91 71 -8 110
-18 125 -30 l22 -17 -30 -12 c-35 -14 -146 -7 -270 17 -92 17 -262 69 -270 83
-3 5 -12 7 -20 3 -8 -3 -15 0 -15 7 0 6 -4 8 -10 5 -5 -3 -10 -1 -10 6 0 7 -3
10 -6 6 -4 -3 -23 5 -43 18 -19 14 -39 25 -43 25 -11 0 -48 33 -48 42 0 8 29
0 46 -14z m-646 -18 c-29 -23 -127 -72 -153 -77 -10 -2 -36 -12 -59 -24 -100
-51 -420 -105 -480 -80 -62 24 -18 45 127 61 107 12 277 47 388 79 37 11 67
18 67 15 0 -2 11 3 24 11 13 9 37 18 52 21 16 3 31 7 33 10 2 2 9 4 15 4 6 0
0 -9 -14 -20z m359 -34 c135 -126 470 -272 727 -316 174 -31 400 -28 507 6 15
5 17 -2 17 -63 0 -78 24 -128 103 -220 57 -67 65 -106 37 -187 -11 -33 -20
-79 -20 -102 0 -57 -7 -58 -219 -51 -197 7 -345 34 -551 103 -215 72 -449 196
-612 326 l-27 21 -73 -55 c-257 -194 -596 -331 -943 -383 -99 -15 -349 -21
-379 -9 -12 5 -15 15 -10 44 4 22 0 59 -10 93 -22 75 -21 120 4 142 11 10 20
26 20 35 0 10 14 35 31 56 51 63 69 111 69 187 0 60 2 68 18 63 106 -34 333
-37 503 -7 256 44 528 159 706 297 31 24 61 44 67 44 5 0 21 -11 35 -24z m147
-811 c305 -175 606 -270 969 -305 133 -13 169 -27 229 -87 120 -120 33 -162
-278 -133 -306 29 -590 125 -871 295 -115 70 -194 105 -235 105 -40 0 -119
-34 -223 -97 -296 -178 -576 -273 -892 -304 -66 -6 -154 -9 -195 -6 -149 10
-167 46 -72 139 31 31 69 61 84 67 14 5 81 15 149 21 339 31 634 121 914 278
190 106 207 114 248 109 23 -3 94 -37 173 -82z m-127 -289 c214 -167 535 -310
835 -371 295 -60 549 -52 741 22 10 3 15 -12 20 -54 12 -109 29 -138 158 -271
120 -121 121 -123 121 -171 1 -45 -3 -52 -55 -108 -58 -63 -86 -128 -77 -177
4 -21 0 -25 -31 -30 -68 -11 -296 -6 -421 9 -453 56 -913 237 -1252 493 l-97
73 -78 -59 c-171 -130 -380 -247 -592 -331 -106 -43 -260 -91 -290 -91 -10 0
-23 18 -35 46 -24 58 -71 90 -156 103 -36 6 -206 11 -378 11 -305 0 -352 4
-352 32 0 6 -8 17 -17 24 -17 12 -17 16 7 61 13 26 60 86 103 133 90 99 123
160 133 248 5 44 10 62 19 58 193 -74 445 -81 742 -21 302 61 608 196 820 361
37 29 70 53 72 53 3 1 30 -19 60 -43z m-9 -840 c19 -7 78 -41 130 -75 243
-159 623 -313 921 -375 127 -26 272 -45 418 -56 158 -11 174 -16 227 -62 43
-38 207 -227 224 -258 49 -91 -79 -140 -365 -140 -296 0 -643 79 -946 215
-148 67 -245 122 -417 238 -232 156 -251 156 -495 -5 -159 -106 -237 -148
-274 -148 -65 0 -200 299 -152 336 8 6 46 23 84 39 101 42 318 154 401 208 98
63 163 97 188 97 12 -1 37 -7 56 -14z m-1120 -222 c39 -12 66 -29 104 -67 47
-48 60 -74 163 -317 62 -146 167 -391 234 -545 67 -154 129 -300 139 -325 9
-25 230 -540 489 -1145 259 -605 475 -1109 480 -1120 7 -18 14 -14 70 40 71
67 102 115 131 199 38 111 37 156 -16 636 l-6 54 37 -49 c53 -71 133 -152 185
-188 25 -17 47 -34 50 -38 3 -4 24 -15 48 -24 23 -10 42 -21 42 -26 0 -5 6
-11 13 -14 246 -81 637 -265 822 -385 139 -91 292 -214 301 -243 4 -12 29 -47
57 -77 74 -81 150 -186 188 -260 l34 -65 0 -225 c0 -214 -1 -228 -24 -289 -85
-222 -290 -411 -531 -489 -152 -49 51 -47 -4180 -47 -3791 0 -3979 1 -4059 18
-321 69 -575 290 -661 573 -19 65 -21 90 -18 255 l3 184 34 65 c76 148 211
300 388 437 97 75 263 183 281 183 37 0 24 -45 -96 -330 -139 -331 -162 -406
-162 -523 0 -113 18 -172 83 -269 56 -85 119 -143 192 -179 92 -45 166 -53
440 -44 332 11 378 10 555 -4 128 -11 162 -11 195 1 49 16 75 62 82 148 l6 59
-594 3 -594 3 -49 24 c-103 51 -159 139 -160 251 -1 62 6 81 173 470 95 223
214 498 264 613 l90 207 49 0 c97 0 182 73 246 210 42 90 555 1286 687 1600
344 820 356 842 485 901 19 9 57 35 85 58 27 22 54 40 60 38 5 -2 22 -21 37
-43 15 -21 408 -926 873 -2010 l845 -1972 0 -68 c0 -86 -29 -153 -90 -207 -83
-75 -47 -72 -707 -75 l-592 -3 -6 23 c-4 20 -463 3126 -529 3583 -13 94 -25
165 -25 158 -2 -23 -119 -818 -336 -2285 -118 -801 -215 -1461 -215 -1467 0
-8 156 -11 549 -11 l549 0 10 -71 c13 -84 31 -115 80 -136 33 -14 54 -14 187
-2 83 8 211 12 285 9 74 -2 243 -4 375 -4 270 -1 305 5 425 72 112 62 153 79
221 91 47 8 457 11 1424 11 1214 0 1366 2 1424 16 36 9 72 22 80 29 11 11 6
11 -25 0 -33 -12 -288 -14 -1555 -15 -834 0 -1518 2 -1521 5 -2 3 16 26 41 53
70 71 85 110 89 224 3 85 0 108 -23 180 -15 46 -362 864 -770 1818 -408 954
-750 1755 -758 1780 -16 44 -22 79 -19 110 1 9 17 23 35 33 29 15 96 17 812
19 716 3 783 4 818 20 22 10 41 27 44 38 3 11 9 20 13 20 10 0 48 78 55 112 3
14 13 29 23 31 9 3 236 5 503 6 416 1 493 -1 539 -15z m1143 -345 c166 -140
421 -289 655 -383 590 -237 1244 -246 1453 -19 22 25 42 43 43 41 1 -2 15 -37
30 -79 15 -41 38 -92 51 -112 14 -20 25 -41 25 -47 0 -7 20 -35 44 -64 56 -65
69 -97 54 -131 -11 -26 -22 -29 -133 -45 -186 -26 -613 7 -1160 90 -281 43
-377 53 -451 48 -60 -4 -70 -7 -95 -36 -27 -30 -40 -65 -54 -145 l-6 -37 -97
7 c-53 5 -263 8 -465 8 l-369 0 9 40 c14 71 9 196 -11 245 -36 91 -86 159
-157 214 l-69 54 117 62 c197 104 413 250 482 324 14 14 26 26 28 26 2 0 36
-27 76 -61z m155 -1115 l91 -7 10 -49 c6 -27 31 -230 56 -451 54 -486 63 -550
81 -605 9 -26 14 -85 14 -150 l0 -107 -30 47 c-17 27 -30 50 -30 53 0 3 -40
95 -89 203 -86 190 -254 579 -359 827 -55 131 -78 206 -68 230 4 12 27 15 119
15 63 0 155 -3 205 -6z m-4628 -1173 c17 -64 25 -115 115 -726 79 -532 85
-590 83 -710 l-3 -130 -232 -3 -233 -2 0 123 c0 101 13 210 70 598 85 575 108
717 127 789 8 30 17 65 20 78 9 38 41 28 53 -17z M2910 4551 c-102 -40 -185
-215 -542 -1141 -154 -397 -248 -658 -248 -685 0 -7 -43 -124 -96 -261 -233
-605 -299 -786 -310 -860 -17 -116 70 -226 199 -249 41 -8 43 -14 22 -75 -8
-23 -15 -43 -15 -44 0 -1 35 -2 78 -2 48 0 121 -10 196 -27 132 -31 270 -45
279 -30 4 6 -45 28 -111 52 -146 53 -334 144 -432 208 -94 63 -115 85 -102
110 11 19 939 2435 1062 2761 71 190 79 233 48 245 -7 2 -20 1 -28 -2z M3328
4543 c-43 -10 -68 59 657 -1826 251 -654 454 -1195 451 -1202 -8 -21 -174
-127 -280 -179 -54 -27 -161 -72 -237 -101 -76 -28 -136 -55 -132 -58 13 -14
112 -6 228 18 212 45 242 49 291 38 24 -6 44 -9 44 -8 0 1 -9 28 -20 60 -11
32 -20 60 -20 62 0 1 11 3 25 3 67 0 162 60 202 127 23 39 25 52 20 111 -6 89
-32 160 -375 1052 -520 1351 -620 1600 -709 1755 -64 113 -107 156 -145 148z
M3270 9585 c-112 -25 -241 -96 -323 -178 -40 -40 -82 -85 -93 -102 l-21 -30
-59 20 c-91 29 -248 32 -352 6 -144 -36 -275 -119 -371 -236 -54 -65 -116
-194 -131 -270 -7 -33 -14 -65 -15 -71 -2 -8 -20 -6 -58 7 -94 32 -189 42
-278 30 -268 -36 -477 -202 -571 -453 -27 -71 -32 -100 -35 -203 -6 -146 10
-224 68 -342 83 -168 232 -293 429 -359 52 -18 119 -19 1385 -22 1185 -2 1339
-1 1409 13 257 52 463 248 533 505 24 87 23 261 -1 350 -50 182 -193 359 -356
438 -102 50 -183 72 -266 72 l-61 0 4 118 c4 87 1 135 -11 187 -53 228 -235
424 -461 501 -100 33 -263 42 -365 19z m375 -199 c79 -33 131 -66 192 -124 83
-81 142 -220 143 -339 0 -39 6 -84 14 -100 7 -15 24 -50 37 -77 40 -83 86
-119 202 -156 56 -17 133 -48 171 -69 84 -44 175 -132 210 -202 25 -52 26 -58
26 -243 l0 -189 -30 -63 c-43 -87 -140 -183 -233 -229 -139 -68 -73 -66 -1530
-63 l-1312 3 -77 27 c-141 50 -241 134 -315 266 l-33 57 0 190 0 190 29 50
c116 199 319 295 591 279 75 -5 118 -3 145 6 61 20 114 83 177 212 49 98 68
125 126 179 76 71 162 118 265 143 53 13 104 16 230 14 190 -4 183 -6 322 112
154 130 242 161 445 157 122 -2 142 -5 205 -31z"/>
</g>
</svg>
