<?xml version="1.0" standalone="no"?>
<!DOCTYPE svg PUBLIC "-//W3C//DTD SVG 20010904//EN"
 "http://www.w3.org/TR/2001/REC-SVG-20010904/DTD/svg10.dtd">
<svg version="1.0" xmlns="http://www.w3.org/2000/svg"
 width="2048.000000pt" height="2048.000000pt" viewBox="0 0 2048.000000 2048.000000"
 preserveAspectRatio="xMidYMid meet">
<metadata>
Created by potrace 1.13, written by Peter Selinger 2001-2015
</metadata>
<g transform="translate(0.000000,2048.000000) scale(0.192120,-0.192120)"
fill="#000000" stroke="none">
<path d="M7050 10286 c-156 -35 -249 -136 -285 -311 -9 -44 -18 -81 -20 -83
-2 -2 -61 4 -132 12 -532 66 -1128 30 -1648 -100 -1133 -284 -1977 -989 -2284
-1909 -67 -202 -91 -325 -91 -467 0 -137 17 -203 66 -257 46 -51 100 -65 192
-51 135 22 343 110 567 241 l120 70 37 143 c71 275 201 584 352 835 426 706
1126 1221 1902 1400 127 29 247 49 382 62 153 15 614 5 737 -15 50 -9 94 -15
99 -16 4 0 5 25 1 55 -9 78 -2 93 50 100 90 14 127 -36 86 -116 -12 -22 -21
-46 -21 -53 0 -8 32 -22 83 -35 123 -33 393 -143 560 -228 276 -141 500 -305
723 -527 460 -460 760 -1064 859 -1726 50 -338 41 -730 -24 -1052 l-18 -86 84
-118 c221 -308 433 -504 546 -504 44 0 112 36 148 78 179 216 257 790 173
1287 -153 909 -786 1758 -1741 2336 -270 164 -619 324 -926 426 -95 31 -174
58 -176 60 -2 1 4 50 14 107 17 99 17 109 1 173 -47 192 -230 311 -416 269z
m-2781 -1058 c-7 -13 -44 -60 -83 -106 -39 -46 -84 -100 -101 -121 -16 -21
-66 -82 -110 -137 -240 -297 -415 -626 -581 -1093 -59 -166 -76 -184 -232
-262 -133 -66 -247 -109 -291 -109 l-23 0 4 153 c3 147 5 156 45 272 178 521
569 979 1108 1297 191 113 219 128 248 128 26 0 27 -2 16 -22z m5196 -1080
c257 -308 441 -664 548 -1058 l31 -115 4 -438 c3 -423 2 -440 -19 -517 -47
-177 -102 -191 -227 -61 -65 67 -170 196 -187 228 -9 18 -11 145 -7 531 4 443
2 521 -13 622 -32 221 -92 452 -181 706 -85 242 -78 256 51 102z M6838 9830
c-386 -46 -764 -409 -1097 -1051 -206 -396 -372 -862 -521 -1459 l-59 -235 42
-43 c55 -57 252 -231 347 -307 119 -95 337 -236 433 -280 73 -34 86 -43 82
-60 -10 -45 -483 -2472 -487 -2495 l-3 -25 -370 -6 c-632 -11 -1071 -61 -1500
-171 -478 -122 -829 -297 -1097 -547 l-75 -70 -161 -35 c-879 -192 -1525 -466
-1832 -776 -52 -52 -110 -121 -128 -151 -273 -464 160 -920 1203 -1267 1199
-399 3064 -576 4820 -457 1692 115 3052 478 3624 968 134 115 235 266 261 394
50 237 -101 480 -433 701 -115 76 -406 232 -433 232 -4 0 10 -19 31 -41 46
-48 121 -99 145 -99 42 0 90 -88 90 -164 0 -92 -32 -160 -114 -242 -84 -82
-193 -141 -371 -197 -500 -160 -1311 -233 -2863 -258 -684 -11 -1620 -2 -2117
21 -1515 69 -2203 242 -2319 583 -60 178 34 311 323 456 45 23 85 40 87 38 3
-2 -5 -25 -16 -51 -36 -86 -52 -168 -52 -268 0 -115 20 -167 85 -224 187 -161
713 -246 1827 -295 377 -16 2040 -23 2610 -10 1649 37 2395 129 2615 322 58
51 78 101 79 194 1 72 -3 87 -35 155 -115 241 -457 516 -894 717 -489 226
-1132 389 -1870 473 -99 11 -231 23 -292 27 -62 3 -113 8 -113 11 0 3 13 71
30 151 16 80 122 621 235 1201 113 580 208 1067 211 1081 5 25 10 27 77 33
182 17 434 74 704 162 l172 55 10 47 c72 341 138 804 161 1140 13 197 13 562
0 728 -64 798 -332 1271 -780 1377 -86 20 -189 27 -272 17z m315 -193 c24 -29
80 -92 123 -142 208 -240 278 -390 345 -740 17 -92 19 -152 19 -717 0 -658 0
-654 -55 -993 -28 -174 -43 -228 -79 -290 -25 -42 -31 -46 -109 -69 -116 -36
-306 -82 -412 -101 -167 -30 -212 -48 -309 -125 -140 -111 -198 -136 -276
-115 -50 13 -99 43 -100 60 -1 15 -53 81 -136 172 -62 68 -108 105 -248 196
-178 118 -399 289 -454 352 -29 32 -32 42 -32 99 0 145 181 739 341 1116 153
362 330 662 517 875 129 147 234 225 437 326 77 38 182 91 234 118 112 58 125
57 194 -22z m-736 -3313 c62 -13 121 -24 132 -24 31 0 33 -16 7 -55 -53 -77
-41 -23 -282 -1255 -151 -766 -177 -912 -181 -1015 -4 -107 -3 -125 16 -168
33 -77 29 -184 -18 -422 -70 -354 -82 -375 -194 -354 -88 16 -227 -3 -339 -46
-17 -7 -18 2 -18 102 0 158 82 562 123 605 65 70 122 161 146 238 6 19 105
519 222 1110 210 1074 234 1221 211 1288 l-10 30 36 -5 c21 -2 87 -15 149 -29z
m-879 -2611 c-12 -83 -166 -861 -178 -906 -11 -35 -13 -37 -43 -32 -18 3 -52
9 -77 13 -44 8 -254 -14 -365 -38 -100 -21 -191 -81 -237 -155 -63 -103 39
-269 202 -327 46 -17 73 -23 265 -58 61 -11 121 -23 135 -26 24 -6 24 -7 5
-14 -81 -31 -746 -31 -1345 0 -821 42 -1368 139 -1412 248 -6 15 -12 81 -15
147 -2 66 -11 150 -20 187 -16 64 -16 68 1 87 10 11 43 30 74 42 76 31 104 47
267 162 245 173 381 250 572 326 289 114 593 187 981 236 281 35 420 45 732
51 l275 6 60 28 c33 16 76 40 95 54 19 14 35 25 36 26 1 0 -3 -26 -8 -57z
m825 -45 c22 -20 53 -40 71 -44 17 -3 38 -12 46 -19 9 -8 92 -22 200 -35 862
-99 1572 -300 2065 -584 160 -92 315 -210 315 -239 0 -5 48 -59 106 -120 l106
-111 -5 -49 c-6 -72 -45 -98 -208 -142 -360 -96 -1147 -159 -2269 -180 -269
-5 -725 10 -765 25 -19 7 -18 8 5 14 14 3 99 17 190 31 243 37 289 53 353 124
96 107 103 209 19 318 -26 35 -110 88 -164 104 -48 15 -195 38 -255 40 -73 3
-77 7 -69 70 9 69 152 801 167 854 l11 39 21 -29 c12 -17 39 -47 60 -67z
m-430 -828 c30 -11 101 -50 158 -86 127 -81 148 -89 246 -104 99 -15 165 -43
203 -87 35 -39 37 -61 10 -95 -30 -39 -140 -64 -400 -90 -201 -21 -892 -17
-1055 5 -229 31 -365 74 -387 122 -10 22 -8 29 16 54 54 57 153 86 386 116
204 26 274 42 393 91 61 25 141 57 177 70 84 30 179 32 253 4z m-4168 -274
c-4 -17 -9 -84 -12 -150 -4 -105 -2 -125 18 -180 47 -129 138 -253 252 -340
305 -233 994 -361 2247 -416 708 -31 2225 -31 2980 0 1176 48 1838 144 2205
320 135 64 209 121 302 233 81 99 100 112 139 97 31 -12 100 -75 136 -124 27
-37 28 -44 28 -154 0 -109 -1 -117 -30 -167 -121 -212 -600 -466 -1224 -650
-1236 -363 -3000 -506 -4696 -379 -1603 119 -2965 493 -3413 937 -98 97 -117
140 -117 259 0 112 9 131 112 231 121 117 344 250 608 362 155 65 441 164 458
157 10 -3 12 -14 7 -36z M3535 7254 c26 -189 127 -310 309 -371 76 -25 93 -27
266 -27 206 -1 307 12 547 69 132 32 423 121 423 130 0 12 -92 56 -136 65 -45
10 -64 7 -171 -20 -241 -61 -407 -83 -628 -84 -163 -1 -210 2 -255 16 -66 21
-147 88 -194 163 -40 61 -77 91 -130 100 l-38 8 7 -49z M7813 6483 c-13 -2
-23 -10 -23 -17 0 -19 223 -216 365 -323 412 -310 711 -409 930 -309 65 29
133 90 176 158 38 59 32 68 -45 68 -38 0 -69 -10 -130 -40 -132 -65 -219 -70
-385 -20 -164 48 -350 161 -596 359 -150 122 -199 142 -292 124z"/>
</g>
</svg>
