<?xml version="1.0" standalone="no"?>
<!DOCTYPE svg PUBLIC "-//W3C//DTD SVG 20010904//EN"
 "http://www.w3.org/TR/2001/REC-SVG-20010904/DTD/svg10.dtd">
<svg version="1.0" xmlns="http://www.w3.org/2000/svg"
 width="2048.000000pt" height="2048.000000pt" viewBox="0 0 2048.000000 2048.000000"
 preserveAspectRatio="xMidYMid meet">
<metadata>
Created by potrace 1.13, written by Peter Selinger 2001-2015
</metadata>
<g transform="translate(0.000000,2048.000000) scale(0.192120,-0.192120)"
fill="#000000" stroke="none">
<path d="M2985 10251 c-26 -11 -43 -31 -97 -111 -24 -36 -374 -531 -778 -1100
-466 -657 -755 -1055 -792 -1091 -88 -86 -90 -100 -86 -491 3 -282 6 -328 21
-361 26 -57 86 -117 142 -143 48 -23 59 -24 293 -24 227 0 243 -1 238 -17 -3
-10 -233 -1350 -511 -2978 -277 -1628 -508 -2980 -512 -3005 l-8 -45 -248 4
-247 4 0 -282 0 -281 2635 0 2635 0 0 282 0 281 -244 -6 -244 -7 -7 42 c-19
115 -1015 5947 -1021 5976 l-6 32 1876 0 1876 0 0 -847 -1 -848 -52 -24 c-67
-32 -146 -111 -181 -183 -147 -302 103 -642 435 -591 227 36 374 231 348 464
-13 123 -111 261 -219 311 l-50 23 0 810 c0 445 -3 827 -6 848 l-7 37 725 0
c803 0 777 -2 856 66 22 19 52 57 66 86 l26 52 0 345 c0 342 0 347 -24 396
-12 28 -43 69 -69 92 -80 74 -72 73 -741 73 l-590 0 -2666 1106 c-1624 675
-2681 1108 -2705 1110 -22 2 -49 0 -60 -5z m298 -380 c290 -123 4140 -1719
4310 -1787 53 -21 97 -41 97 -44 0 -3 -828 -4 -1840 -2 l-1840 3 0 -421 0
-420 -280 0 -280 0 0 561 0 562 280 -5 280 -5 0 32 c0 47 -55 149 -99 184 -69
55 -73 56 -413 61 l-318 5 -2 658 c-2 361 1 657 5 657 4 0 49 -18 100 -39z
m-383 -741 l0 -540 -307 -1 c-209 0 -318 -4 -340 -12 -66 -25 -119 -73 -152
-137 l-31 -63 0 -168 0 -167 -162 -4 c-90 -2 -165 -2 -167 -1 -3 2 10 22 27
46 17 23 102 141 187 262 86 121 273 384 416 585 143 201 319 449 391 553 72
103 133 187 135 187 1 0 3 -243 3 -540z m226 -704 c38 -19 90 -44 117 -55 73
-31 62 -47 -35 -54 -134 -10 -206 -45 -257 -126 -48 -75 -51 -103 -51 -434 0
-278 2 -313 19 -362 22 -62 50 -101 101 -137 50 -35 92 -48 191 -55 102 -7
111 -24 22 -44 -44 -10 -88 -10 -216 0 -89 7 -174 14 -190 15 -15 1 -58 -1
-96 -5 -117 -13 -223 -82 -303 -198 -30 -42 -30 -45 -23 -124 l7 -80 -95 -96
c-99 -100 -153 -184 -175 -271 -9 -36 -10 10 -7 226 l3 271 -30 54 c-43 74
-132 160 -201 193 -52 26 -71 29 -192 34 -74 3 -135 9 -135 13 0 5 -9 9 -21 9
-11 0 -29 5 -40 10 -18 10 -19 24 -19 293 l0 282 39 42 c21 22 42 50 45 61 14
42 53 37 135 -17 42 -27 98 -55 124 -62 70 -17 167 -7 220 24 47 28 177 154
177 173 0 6 9 21 20 34 11 13 20 37 20 57 0 18 5 33 10 33 6 0 10 32 10 75 0
58 4 77 15 81 8 4 15 14 15 24 0 26 23 29 250 36 113 3 226 10 251 15 25 6 76
30 114 55 38 24 79 44 91 44 12 0 53 -15 90 -34z m45 -196 c5 0 9 -191 9 -470
l0 -470 -42 0 c-52 0 -139 39 -162 71 -14 21 -16 68 -16 404 0 422 -2 407 67
441 43 20 101 34 121 28 8 -2 18 -4 23 -4z m1399 -750 l0 -280 -165 0 -165 0
0 280 0 280 165 0 165 0 0 -280z m830 0 l0 -280 -280 0 -280 0 0 280 0 280
280 0 280 0 0 -280z m833 3 l-2 -278 -276 0 -276 0 -2 278 -2 277 280 0 280 0
-2 -277z m837 -3 l0 -280 -280 0 -280 0 0 280 0 280 280 0 280 0 0 -280z m830
0 l0 -280 -280 0 -280 0 0 280 0 280 280 0 280 0 0 -280z m833 3 l-2 -278
-276 -3 -275 -2 0 280 0 280 278 0 277 0 -2 -277z m764 257 c62 -37 68 -56 71
-242 3 -153 2 -172 -17 -211 -37 -77 -54 -82 -313 -85 l-228 -3 0 280 0 281
228 0 c207 0 230 -2 259 -20z m-5583 -827 c4 -16 9 -134 12 -263 4 -232 4
-234 -13 -195 -42 94 -70 132 -159 223 -92 93 -95 98 -89 132 4 19 16 54 27
77 23 46 28 48 154 51 60 2 62 1 68 -25z m-399 8 c-6 -5 -115 -92 -243 -194
l-233 -186 -227 180 c-125 100 -234 188 -242 195 -12 12 57 14 470 14 275 0
480 -4 475 -9z m4538 -8 c-7 -2 -21 -2 -30 0 -10 3 -4 5 12 5 17 0 24 -2 18
-5z m-5491 -460 c72 -60 142 -117 156 -129 l25 -21 -207 -166 c-113 -92 -208
-167 -210 -167 -2 0 5 44 15 98 10 53 33 186 51 295 18 108 34 197 36 197 2 0
62 -48 134 -107z m1101 45 c4 -29 25 -154 47 -278 22 -124 40 -231 40 -238 0
-16 12 -25 -226 167 -99 79 -180 148 -182 152 -2 4 39 41 90 82 51 42 120 98
153 125 33 28 62 49 66 46 3 -2 9 -27 12 -56z m-1548 -418 c8 -7 15 -28 15
-46 0 -19 4 -34 8 -34 4 0 13 -15 20 -32 6 -18 36 -61 67 -96 33 -38 55 -73
55 -87 0 -14 -31 -62 -79 -121 -142 -179 -158 -239 -96 -360 19 -37 35 -77 35
-87 0 -11 -41 -61 -94 -116 -99 -101 -158 -197 -175 -283 -6 -31 -9 9 -10 137
-1 177 3 212 48 455 6 30 29 168 52 305 22 138 54 300 69 360 16 61 37 159 47
220 l18 109 3 -156 c2 -123 6 -159 17 -168z m1890 170 c8 -36 21 -103 30 -148
8 -46 17 -87 20 -92 3 -4 18 -88 34 -186 17 -99 46 -273 65 -387 32 -184 36
-228 36 -380 l0 -172 -37 65 c-20 36 -77 106 -125 156 -101 104 -103 111 -58
206 54 114 35 184 -89 340 -68 83 -91 118 -91 137 0 5 21 33 46 63 25 29 53
68 62 86 9 17 19 32 23 32 5 0 11 17 14 38 4 20 15 55 26 78 15 33 19 66 20
165 1 68 4 111 6 94 2 -16 10 -59 18 -95z m-792 -333 c94 -78 270 -223 390
-321 119 -97 217 -181 216 -184 0 -4 -176 -123 -390 -265 l-389 -257 -388 258
c-213 142 -389 260 -392 263 -3 3 148 131 335 284 187 153 363 298 390 321 28
24 51 44 53 44 1 0 80 -64 175 -143z m4837 -667 c0 -5 -4 -10 -10 -10 -5 0
-10 5 -10 10 0 6 5 10 10 10 6 0 10 -4 10 -10z m28 -151 c14 -24 44 -72 68
-106 43 -60 44 -64 44 -138 0 -92 -14 -128 -68 -177 -70 -63 -105 -62 -182 8
-57 52 -70 81 -70 161 0 68 0 69 60 151 33 45 60 85 60 90 0 16 42 63 53 59 6
-2 22 -23 35 -48z m-5728 -233 c74 -49 179 -118 233 -153 l97 -63 -322 -215
c-177 -118 -324 -213 -326 -210 -3 3 7 70 21 150 15 79 43 245 63 367 20 123
38 229 40 236 3 11 10 10 32 -5 15 -10 88 -58 162 -107z m1625 -203 c30 -176
59 -339 64 -364 23 -97 25 -97 -156 27 -92 63 -238 161 -325 217 -87 56 -158
105 -158 108 0 3 17 15 38 27 20 11 136 86 257 166 121 79 221 143 223 141 2
-1 27 -147 57 -322z m380 -411 c3 -9 30 -162 60 -341 50 -297 55 -339 55 -481
l0 -155 -41 74 c-27 48 -70 102 -124 155 -105 105 -109 113 -90 168 28 82 15
133 -60 239 -37 52 -65 103 -65 118 0 5 23 36 50 67 57 65 110 157 110 190 0
12 7 27 15 34 12 10 15 40 16 144 l0 131 34 -164 c19 -90 36 -170 40 -179z
m-2541 69 c9 -10 16 -27 16 -40 0 -35 45 -114 99 -174 66 -71 66 -94 5 -173
-90 -115 -109 -176 -80 -258 7 -21 11 -50 7 -62 -3 -13 -45 -63 -92 -111 -92
-96 -146 -179 -165 -258 -11 -45 -12 -34 -13 130 -1 177 0 186 59 520 33 187
67 369 75 405 9 36 26 113 38 171 l22 107 6 -119 c5 -90 11 -124 23 -138z
m1706 -223 c256 -167 482 -315 503 -327 l39 -24 -49 -27 c-26 -15 -256 -140
-511 -279 l-464 -251 -446 244 c-246 134 -476 258 -511 275 -35 18 -60 36 -55
40 5 5 203 135 439 289 237 155 459 302 495 326 36 25 72 44 80 42 8 -2 224
-140 480 -308z m-1388 -842 c133 -73 300 -164 371 -202 70 -38 127 -73 127
-79 0 -5 -82 -54 -182 -108 -101 -54 -302 -164 -447 -243 -145 -80 -265 -143
-267 -141 -2 2 18 129 45 283 27 153 62 357 77 452 16 94 29 172 30 172 1 0
112 -60 246 -134z m2076 51 c12 -80 124 -738 138 -805 l7 -32 -74 42 c-41 23
-234 128 -429 234 -195 106 -371 202 -390 212 l-34 20 64 32 c72 36 618 333
665 362 17 10 32 18 35 18 4 0 11 -37 18 -83z m-2693 -733 c8 -6 15 -24 15
-40 0 -26 19 -60 102 -183 10 -14 18 -31 18 -37 0 -6 -42 -59 -94 -117 -100
-114 -162 -207 -175 -266 -6 -24 -9 24 -10 149 -1 200 8 276 59 485 16 66 35
152 42 190 l13 70 7 -120 c6 -89 12 -123 23 -131z m3116 31 c52 -242 59 -295
59 -469 l-1 -171 -22 39 c-27 48 -121 167 -175 222 -73 75 -75 97 -17 169 37
46 75 120 75 148 0 10 6 25 14 32 8 8 16 51 21 107 9 104 6 110 46 -77z m-898
-222 c380 -207 693 -377 694 -377 1 -1 143 -817 190 -1096 l5 -25 -1582 0
-1582 0 5 30 c3 17 47 269 96 560 50 292 94 531 99 533 4 1 315 171 692 377
377 206 686 375 688 375 1 0 314 -170 695 -377z m-2509 -1423 c15 0 26 -21 26
-52 0 -32 50 -108 122 -186 38 -40 68 -79 68 -87 0 -28 -71 -37 -276 -33 -152
2 -205 6 -217 17 -10 7 -17 16 -17 20 0 3 34 41 74 84 95 100 146 201 178 349
l23 107 3 -109 c2 -85 6 -110 16 -110z m3736 -89 c19 -35 68 -99 108 -142 77
-82 86 -108 42 -120 -14 -4 -111 -7 -216 -8 -195 -1 -254 7 -254 36 0 8 27 43
59 76 67 70 131 169 131 204 0 13 9 31 20 40 17 15 20 30 21 98 l0 80 27 -100
c15 -55 43 -129 62 -164z M3988 8226 c-23 -47 -23 -92 -2 -100 9 -4 19 -5 21
-2 2 2 3 34 1 71 l-3 68 -17 -37z M7935 4404 c-58 -20 -106 -64 -140 -125 -26
-47 -30 -64 -30 -129 0 -83 15 -122 68 -177 l31 -33 -897 0 -897 0 0 -141 0
-141 115 3 115 4 0 -342 0 -343 -115 0 -115 0 0 -140 0 -140 1970 0 1970 0 0
140 0 140 -120 0 -120 0 2 342 3 343 118 -4 117 -3 0 141 0 141 -897 0 -897 0
26 28 c48 51 72 111 71 182 0 77 -17 122 -70 180 -73 82 -200 113 -308 74z
m120 -240 c9 -4 29 -36 46 -73 16 -36 43 -82 59 -102 16 -20 26 -39 23 -43 -8
-8 -293 -8 -293 0 0 3 11 20 24 37 14 18 39 63 56 100 18 37 39 71 48 77 21
12 17 11 37 4z m160 -449 c123 -51 174 -54 798 -55 l527 0 0 -140 c0 -87 4
-140 10 -140 6 0 10 -65 10 -176 0 -182 -5 -204 -44 -204 -9 0 -16 -8 -16 -20
0 -20 -7 -20 -1470 -20 -1463 0 -1470 0 -1470 20 0 11 -5 20 -11 20 -34 0 -39
27 -39 204 0 111 4 176 10 176 6 0 10 53 10 140 l0 140 533 0 c566 0 685 7
763 41 163 72 244 75 389 14z"/>
</g>
</svg>
