<?xml version="1.0" standalone="no"?>
<!DOCTYPE svg PUBLIC "-//W3C//DTD SVG 20010904//EN"
 "http://www.w3.org/TR/2001/REC-SVG-20010904/DTD/svg10.dtd">
<svg version="1.0" xmlns="http://www.w3.org/2000/svg"
 width="2048.000000pt" height="2048.000000pt" viewBox="0 0 2048.000000 2048.000000"
 preserveAspectRatio="xMidYMid meet">
<metadata>
Created by potrace 1.13, written by Peter Selinger 2001-2015
</metadata>
<g transform="translate(0.000000,2048.000000) scale(0.192120,-0.192120)"
fill="#000000" stroke="none">
<path d="M6119 9769 c-25 -4 -63 -16 -85 -27 -24 -13 -450 -432 -1083 -1065
-919 -921 -1042 -1047 -1032 -1063 27 -47 63 -74 98 -74 44 1 169 71 239 134
40 36 78 66 85 66 8 0 394 380 859 844 870 870 887 885 963 886 15 0 47 -9 70
-21 29 -14 578 -556 1775 -1752 1465 -1465 1732 -1736 1732 -1759 0 -42 -37
-36 -102 14 -29 23 -372 359 -763 747 -737 733 -777 769 -874 787 -50 10 -127
-18 -212 -77 -51 -36 -298 -275 -805 -782 -402 -401 -742 -736 -755 -743 -13
-7 -29 -13 -36 -14 -19 0 -43 29 -43 53 0 15 216 238 718 742 744 746 794 801
849 934 12 31 23 72 23 92 0 46 -40 135 -98 219 -61 88 -1215 1246 -1306 1311
-139 98 -212 97 -361 -9 -71 -50 -1444 -1421 -1580 -1577 -144 -166 -619 -644
-795 -800 -74 -65 -315 -298 -535 -515 -427 -423 -521 -506 -603 -530 -25 -7
-36 -4 -57 12 -23 18 -25 26 -25 93 0 70 2 75 38 122 64 79 331 334 368 349
18 8 53 14 77 14 100 0 243 112 312 243 43 84 46 132 10 200 -19 35 -23 52
-16 65 5 9 172 179 370 377 l361 360 0 365 c0 402 -1 409 -63 454 -27 20 -43
21 -345 24 -295 2 -319 1 -352 -16 -19 -11 -44 -35 -55 -53 -19 -33 -20 -55
-23 -824 l-2 -790 -93 -92 c-50 -51 -94 -93 -97 -93 -3 0 -14 33 -24 73 -54
214 -236 724 -371 1042 -92 217 -266 576 -360 740 -96 169 -213 340 -284 413
-94 96 -131 95 -227 -3 -207 -211 -547 -870 -802 -1555 -243 -653 -385 -1222
-454 -1815 -16 -142 -16 -641 0 -805 57 -562 200 -950 447 -1217 154 -167 364
-283 605 -334 139 -30 464 -34 605 -7 175 33 357 109 483 202 l62 46 0 1114 0
1113 45 6 c25 4 62 15 83 26 21 11 762 745 1757 1740 946 947 1722 1721 1725
1721 3 0 322 -317 710 -705 l705 -705 -818 -817 c-902 -902 -868 -864 -868
-989 0 -163 133 -285 298 -272 32 2 76 12 98 22 28 13 287 266 862 840 l822
822 823 -821 c567 -566 835 -828 863 -841 22 -10 71 -20 108 -22 61 -4 75 -1
133 28 71 35 110 79 140 155 20 55 16 153 -11 210 -22 49 -3657 3693 -3722
3731 -49 30 -121 42 -184 33z m-4328 -1234 c73 -96 168 -264 289 -510 171
-346 285 -627 491 -1214 53 -151 89 -198 179 -233 33 -12 60 -27 60 -33 0 -5
-112 -122 -249 -260 -282 -284 -286 -290 -280 -418 4 -61 10 -83 34 -123 28
-44 93 -105 127 -117 8 -3 -4 -20 -34 -49 -27 -24 -48 -52 -48 -61 0 -10 -4
-15 -10 -12 -7 4 -10 -315 -10 -949 0 -945 0 -955 -20 -966 -15 -8 -20 -21
-20 -51 l0 -40 -74 -34 c-41 -19 -116 -46 -168 -61 -51 -14 -138 -39 -192 -55
-155 -46 -170 -44 -553 77 -348 110 -560 380 -672 856 -57 238 -61 295 -61
813 0 426 2 489 21 617 76 533 271 1211 519 1810 190 457 416 895 527 1018 62
70 88 69 144 -5z m1847 -640 l-3 -275 -130 -130 c-71 -71 -138 -130 -147 -130
-17 0 -18 25 -18 405 l0 405 151 0 150 0 -3 -275z M6391 5609 c-25 -43 -53
-87 -63 -96 -30 -27 -71 -24 -109 8 -19 16 -37 29 -40 29 -3 0 -9 -28 -13 -61
-8 -80 -8 -3813 0 -3901 l7 -67 50 39 c63 51 89 51 158 -1 l54 -40 3 1040 c1
572 1 1510 0 2084 l-3 1045 -44 -79z M3942 5055 l3 -555 553 -3 552 -2 0 558
0 557 -555 0 -555 0 2 -555z m888 -15 l0 -340 -340 0 -340 0 0 340 0 340 340
0 340 0 0 -340z M7412 5055 l3 -556 553 0 553 0 2 556 2 555 -558 0 -557 0 2
-555z m888 -15 l0 -340 -340 0 -340 0 0 340 0 340 340 0 340 0 0 -340z M9727
5462 c-21 -21 -42 -54 -47 -73 -6 -21 -10 -418 -10 -1067 0 -1140 -4 -1063 64
-1116 l36 -27 0 1160 c0 639 -1 1161 -3 1161 -2 0 -20 -17 -40 -38z M2561
3163 l0 -78 19 40 c22 47 25 86 8 103 -23 23 -28 11 -27 -65z M3940 2280 l0
-830 31 0 c23 0 41 12 80 52 27 28 52 62 55 75 4 13 10 23 15 23 5 0 9 20 9
45 0 25 5 45 10 45 7 0 10 200 10 580 0 509 2 580 15 580 8 0 15 9 15 20 0 20
7 20 305 20 298 0 305 0 305 -20 0 -15 7 -20 25 -20 l25 0 0 -580 c0 -380 3
-580 10 -580 6 0 10 -20 10 -45 0 -25 4 -45 9 -45 5 0 11 -11 15 -23 3 -13 28
-47 56 -75 39 -39 58 -52 81 -52 l29 0 0 830 0 830 -555 0 -555 0 0 -830z
M7412 2555 l3 -555 553 0 553 -1 2 556 2 555 -558 0 -557 0 2 -555z m888 -15
l0 -340 -340 0 -340 0 0 340 0 340 340 0 340 0 0 -340z M9734 3091 c-95 -58
-274 -334 -378 -584 -94 -222 -132 -398 -123 -563 13 -229 94 -388 233 -457
l52 -26 18 20 c34 38 26 119 -24 225 l-42 91 0 216 0 215 31 89 c30 83 106
247 151 323 59 99 106 115 157 54 44 -55 145 -256 180 -361 31 -91 31 -92 31
-316 l0 -225 -46 -95 c-51 -106 -62 -158 -44 -211 15 -46 36 -47 117 -6 163
81 244 250 244 509 0 165 -38 324 -127 534 -99 231 -288 522 -371 569 -28 16
-31 16 -59 -1z M2663 3037 c-153 -159 -332 -501 -410 -784 -25 -88 -28 -114
-28 -263 0 -132 4 -177 18 -225 42 -134 114 -230 212 -279 61 -32 80 -29 96
11 19 48 5 122 -39 219 l-42 91 0 202 c0 200 0 203 31 294 37 111 113 269 168
355 43 66 79 89 111 72 45 -24 163 -249 220 -419 l32 -94 -4 -221 -4 -221 -37
-85 c-42 -97 -46 -150 -18 -197 19 -30 22 -31 51 -20 51 19 122 79 163 137 84
120 119 352 83 545 -53 283 -253 693 -430 882 -78 84 -93 84 -173 0z M1566
3073 c-19 -63 -66 -650 -85 -1053 -22 -460 -24 -530 -13 -530 19 0 113 93 140
139 46 78 61 155 88 454 5 52 11 77 20 77 18 0 23 -34 44 -283 6 -64 14 -125
19 -135 5 -9 15 -37 22 -62 9 -29 33 -65 73 -108 106 -113 100 -125 93 174
-12 450 -70 1256 -96 1327 -7 19 -13 16 -69 -36 -73 -68 -95 -71 -143 -21 -18
20 -46 44 -61 55 -25 18 -27 18 -32 2z M646 1429 c-113 -27 -224 -121 -279
-237 -29 -61 -32 -75 -32 -167 0 -92 3 -106 32 -167 54 -115 150 -199 262
-232 50 -15 486 -16 4701 -16 4215 0 4651 1 4701 16 112 33 208 117 262 232
29 61 32 75 32 167 0 92 -3 106 -32 167 -17 37 -53 90 -79 118 -81 87 -222
140 -315 118 -61 -14 -200 -13 -284 1 -90 16 -6678 10 -6792 -6 -49 -7 -97 -7
-145 0 -95 13 -1979 18 -2032 6z m4359 -215 l110 -39 505 1 c607 2 505 2 2310
0 l1455 -1 105 29 c217 59 409 37 515 -60 35 -31 35 -33 35 -113 0 -73 -3 -85
-24 -106 -53 -53 235 -50 -4691 -50 -3663 0 -4588 3 -4622 13 -22 7 -55 25
-72 41 -28 27 -31 34 -31 93 0 121 23 128 495 138 198 5 383 13 410 19 80 16
351 13 467 -5 76 -12 142 -15 258 -11 140 4 164 8 255 38 96 31 107 32 265 33
154 1 173 -1 275 -29 l110 -30 375 0 375 0 85 33 c47 19 112 37 145 42 33 5
222 8 420 6 l360 -2 110 -40z"/>
</g>
</svg>
