<?xml version="1.0" standalone="no"?>
<!DOCTYPE svg PUBLIC "-//W3C//DTD SVG 20010904//EN"
 "http://www.w3.org/TR/2001/REC-SVG-20010904/DTD/svg10.dtd">
<svg version="1.0" xmlns="http://www.w3.org/2000/svg"
 width="2048.000000pt" height="2048.000000pt" viewBox="0 0 2048.000000 2048.000000"
 preserveAspectRatio="xMidYMid meet">
<metadata>
Created by potrace 1.13, written by Peter Selinger 2001-2015
</metadata>
<g transform="translate(0.000000,2048.000000) scale(0.192120,-0.192120)"
fill="#000000" stroke="none">
<path d="M4970 9490 c-179 -28 -335 -143 -414 -305 -41 -83 -56 -151 -56 -248
l-1 -72 -50 -34 c-85 -58 -161 -158 -201 -267 -21 -55 -22 -79 -26 -396 l-3
-338 -140 0 -139 0 0 -3725 0 -3725 -26 10 c-45 18 -88 11 -149 -25 l-60 -34
1625 0 1625 0 -60 34 c-61 36 -104 43 -149 25 l-26 -10 0 3725 0 3725 -139 0
-140 0 -3 338 c-4 317 -5 341 -26 396 -40 109 -116 209 -201 267 l-50 34 -1
75 c-1 249 -157 458 -400 536 -47 15 -102 18 -395 20 -187 1 -365 -1 -395 -6z
m742 -208 c89 -32 132 -63 184 -133 40 -55 84 -166 84 -214 0 -18 5 -37 10
-40 6 -3 10 -15 10 -26 0 -17 17 -56 30 -69 3 -3 13 -17 23 -32 22 -35 86
-107 198 -225 48 -51 97 -106 109 -123 l21 -30 -103 -2 c-57 -2 -168 -3 -247
-3 l-143 0 -2 -278 -1 -277 267 0 268 0 6 -27 c8 -42 35 -102 51 -114 7 -6 13
-20 13 -30 0 -10 8 -23 19 -28 16 -9 19 -28 26 -146 4 -74 11 -135 16 -135 5
0 9 -27 9 -60 0 -33 4 -60 8 -60 32 0 32 -47 32 -3375 l0 -3325 -25 0 c-16 0
-25 -6 -25 -15 0 -11 -12 -15 -50 -15 -27 0 -50 -4 -50 -10 0 -5 -11 -10 -24
-10 -39 0 -74 -17 -163 -77 -46 -31 -86 -53 -90 -49 -5 4 -9 187 -11 407 l-2
400 -275 2 -274 2 -3 -402 c-2 -221 -6 -405 -10 -409 -4 -4 -46 18 -92 49
-148 99 -204 99 -345 5 -50 -34 -94 -58 -99 -54 -4 4 -8 188 -10 409 l-3 402
-274 -2 -275 -2 -2 -400 c-2 -220 -6 -403 -10 -407 -4 -4 -40 15 -79 42 -118
81 -123 84 -141 84 -10 0 -18 5 -18 10 0 6 -25 10 -55 10 -42 0 -55 3 -55 15
0 10 -10 15 -30 15 l-30 0 2 3407 c2 2714 6 3407 16 3411 9 3 12 39 12 137 0
124 1 133 20 138 11 3 20 12 20 21 0 9 15 32 34 51 19 18 37 49 41 67 15 75
-13 68 283 68 l267 0 -1 277 -2 278 -148 0 c-82 1 -193 2 -248 3 l-98 2 28 38
c21 28 186 214 214 242 52 50 130 171 130 200 0 10 5 22 10 25 6 3 10 24 10
45 0 51 41 151 86 213 56 77 171 139 279 150 22 3 171 4 330 2 264 -2 295 -4
347 -23z m-1132 -1187 l0 -95 -65 0 -65 0 0 95 0 95 65 0 65 0 0 -95z m1610 0
l0 -95 -65 0 -65 0 0 95 0 95 65 0 65 0 0 -95z m-1390 -7340 l0 -165 -30 0
-30 0 0 165 0 165 30 0 30 0 0 -165z m1110 0 l0 -165 -30 0 -30 0 0 165 0 165
30 0 30 0 0 -165z M5050 8108 l0 -278 280 0 280 0 0 278 0 279 -280 -1 -280 0
0 -278z m370 -13 l0 -95 -100 0 -100 0 0 95 0 95 100 0 100 0 0 -95z M4500
6163 c0 -2 0 -877 0 -1945 l0 -1943 275 -3 275 -2 0 1947 0 1948 -275 0 c-151
0 -275 -1 -275 -2z m320 -1953 l0 -1720 -50 0 -50 0 0 1720 0 1720 50 0 50 0
0 -1720z M5610 4217 l0 -1947 275 2 275 3 0 1943 0 1943 -275 2 -275 2 0
-1948z m320 -7 l0 -1720 -50 0 -50 0 0 1720 0 1720 50 0 50 0 0 -1720z M4500
1998 c0 -2 -1 -128 -3 -281 l-2 -277 278 0 277 0 0 280 0 280 -275 0 c-151 0
-275 -1 -275 -2z m320 -283 l0 -45 -50 0 -50 0 0 45 0 45 50 0 50 0 0 -45z
M5610 1720 l0 -280 278 0 277 0 -2 277 -2 278 -276 3 -275 2 0 -280z m320 -5
l0 -45 -50 0 -50 0 0 45 0 45 50 0 50 0 0 -45z M1350 7823 c-59 -10 -153 -47
-207 -82 -145 -94 -253 -277 -253 -428 l0 -43 -41 0 c-117 0 -253 -63 -354
-165 -82 -82 -118 -144 -145 -251 -20 -76 -20 -121 -20 -3048 0 -2540 2 -2981
15 -3039 40 -191 194 -355 384 -411 100 -29 103 -23 31 52 -81 84 -183 215
-224 284 l-31 53 0 3056 0 3055 38 56 c61 88 109 130 206 181 95 50 145 97
156 145 l6 29 112 6 c147 9 2338 9 2496 0 l122 -6 20 -38 c25 -49 67 -72 116
-63 42 8 41 8 103 63 l45 40 -132 1 -133 0 0 38 c-1 121 -62 255 -165 357 -82
82 -144 118 -251 145 -74 19 -111 20 -973 19 -493 -1 -907 -4 -921 -6z m1745
-222 c127 -11 206 -37 259 -86 20 -18 36 -42 36 -53 0 -48 21 -47 -1105 -47
-583 0 -1077 4 -1097 8 -29 6 -38 13 -38 28 0 33 18 57 63 83 69 41 127 58
222 66 133 10 1532 11 1660 1z M7412 7810 c-99 -26 -174 -71 -252 -149 -97
-98 -160 -235 -160 -350 l0 -41 -132 0 -132 0 30 -31 c45 -48 100 -72 143 -63
20 4 43 8 51 8 8 1 24 19 35 42 l20 41 119 6 c154 9 2335 9 2492 1 l120 -7 25
-51 c22 -47 31 -54 128 -106 133 -71 187 -119 234 -209 l37 -70 0 -3026 0
-3026 -26 -56 c-41 -85 -135 -204 -266 -336 -43 -42 -46 -47 -25 -47 38 0 128
30 192 63 127 67 239 219 270 364 13 58 15 499 15 3039 0 2927 0 2972 -20
3048 -27 107 -63 169 -145 252 -100 101 -235 164 -352 164 l-43 0 0 43 c0 107
-58 242 -145 335 -65 71 -131 115 -223 151 l-67 26 -925 2 c-887 2 -928 1
-998 -17z m1899 -222 c115 -30 189 -82 189 -133 0 -15 -8 -26 -22 -31 -30 -10
-1835 -18 -2035 -9 -166 8 -190 15 -180 57 15 57 145 116 282 128 50 5 455 7
900 5 668 -2 820 -5 866 -17z M887 3943 l3 -1668 275 -3 275 -2 0 1670 0 1670
-277 0 -278 0 2 -1667z m333 -13 l0 -1460 -65 0 -65 0 0 1460 0 1460 65 0 65
0 0 -1460z M2000 5605 c0 -3 0 -753 0 -1667 l0 -1663 275 -3 275 -2 0 1670 0
1670 -275 0 c-151 0 -275 -2 -275 -5z m330 -1675 l0 -1460 -65 0 -65 0 0 1460
0 1460 65 0 65 0 0 -1460z M3110 3940 l0 -1670 275 2 275 3 0 1665 0 1665
-275 3 -275 2 0 -1670z m330 -10 l0 -1460 -65 0 -65 0 0 1460 0 1460 65 0 65
0 0 -1460z M7000 5605 c0 -3 0 -753 0 -1667 l0 -1663 275 -3 275 -2 0 1670 0
1670 -275 0 c-151 0 -275 -2 -275 -5z m330 -1675 l0 -1460 -65 0 -65 0 0 1460
0 1460 65 0 65 0 0 -1460z M8110 3940 l0 -1670 275 2 275 3 0 1665 0 1665
-275 3 -275 2 0 -1670z m330 -10 l0 -1460 -65 0 -65 0 0 1460 0 1460 65 0 65
0 0 -1460z M9220 3940 l0 -1670 275 2 275 3 3 1668 2 1667 -277 0 -278 0 0
-1670z m330 -10 l0 -1460 -65 0 -65 0 0 1460 0 1460 65 0 65 0 0 -1460z M885
1720 l0 -280 278 0 277 0 0 280 0 280 -277 0 -278 0 0 -280z m335 -10 l0 -70
-65 0 -65 0 0 70 0 70 65 0 65 0 0 -70z M2000 1995 c0 -3 0 -128 -1 -277 l0
-273 276 -3 275 -2 0 280 0 280 -275 0 c-151 0 -275 -2 -275 -5z m330 -285 l0
-70 -65 0 -65 0 0 70 0 70 65 0 65 0 0 -70z M3110 1720 l0 -280 275 2 276 3 0
275 0 275 -276 3 -275 2 0 -280z m330 -10 l0 -70 -65 0 -65 0 0 70 0 70 65 0
65 0 0 -70z M7000 1995 c0 -3 0 -128 -1 -277 l0 -273 276 -3 275 -2 0 280 0
280 -275 0 c-151 0 -275 -2 -275 -5z m330 -285 l0 -70 -65 0 -65 0 0 70 0 70
65 0 65 0 0 -70z M8110 1720 l0 -280 275 2 276 3 0 275 0 275 -276 3 -275 2 0
-280z m330 -10 l0 -70 -65 0 -65 0 0 70 0 70 65 0 65 0 0 -70z M9220 1720 l0
-280 278 0 277 0 0 280 0 280 -277 0 -278 0 0 -280z m330 -10 l0 -70 -65 0
-65 0 0 70 0 70 65 0 65 0 0 -70z M890 1165 c-1 0 -2 -188 -3 -418 l-2 -417
278 0 277 0 0 418 0 417 -275 0 c-151 0 -275 0 -275 0z M2000 1160 c0 -3 -1
-191 -2 -418 l-3 -412 284 0 283 0 -6 23 c-3 12 -6 200 -6 417 l0 395 -275 0
c-151 0 -275 -2 -275 -5z M3110 770 c0 -217 -3 -405 -6 -418 l-6 -22 283 0
284 0 -3 415 -2 416 -275 2 -275 2 0 -395z M7000 1160 c0 -3 -1 -191 -2 -418
l-3 -412 284 0 283 0 -6 23 c-3 12 -6 200 -6 417 l0 395 -275 0 c-151 0 -275
-2 -275 -5z M8110 770 c0 -217 -3 -405 -6 -418 l-6 -22 283 0 284 0 -3 415 -2
416 -275 2 -275 2 0 -395z M9218 747 l-3 -417 280 0 280 0 -2 415 -1 416 -276
2 -276 2 -2 -418z M1643 430 c-13 -5 -53 -30 -89 -55 l-66 -45 226 0 c124 0
226 2 226 4 0 3 -37 28 -82 55 -74 46 -88 51 -138 50 -30 0 -65 -4 -77 -9z
M2740 421 c-19 -10 -60 -35 -90 -55 l-55 -36 234 0 c129 0 232 2 230 4 -2 2
-42 27 -89 55 -75 45 -92 51 -140 51 -35 0 -68 -7 -90 -19z M7740 421 c-19
-10 -60 -35 -90 -55 l-55 -36 234 0 c129 0 232 2 230 4 -2 2 -42 27 -89 55
-75 45 -92 51 -140 51 -35 0 -68 -7 -90 -19z M8850 421 c-19 -10 -60 -35 -90
-55 l-55 -36 235 0 235 0 -51 33 c-100 65 -130 77 -186 77 -33 0 -66 -7 -88
-19z"/>
</g>
</svg>
