<?xml version="1.0" standalone="no"?>
<!DOCTYPE svg PUBLIC "-//W3C//DTD SVG 20010904//EN"
 "http://www.w3.org/TR/2001/REC-SVG-20010904/DTD/svg10.dtd">
<svg version="1.0" xmlns="http://www.w3.org/2000/svg"
 width="2048.000000pt" height="2048.000000pt" viewBox="0 0 2048.000000 2048.000000"
 preserveAspectRatio="xMidYMid meet">
<metadata>
Created by potrace 1.13, written by Peter Selinger 2001-2015
</metadata>
<g transform="translate(0.000000,2048.000000) scale(0.192120,-0.192120)"
fill="#000000" stroke="none">
<path d="M5305 9773 c-107 -18 -35 49 -1167 -1082 -582 -581 -1058 -1060
-1058 -1065 0 -25 53 -76 85 -82 50 -9 163 49 264 136 43 38 82 66 85 62 4 -3
390 377 859 845 737 736 858 853 899 868 63 23 104 14 175 -40 32 -24 824
-810 1761 -1747 1265 -1266 1702 -1709 1702 -1726 0 -30 -23 -37 -63 -22 -20
8 -303 283 -757 735 -399 397 -748 738 -777 758 -149 108 -223 100 -408 -43
-44 -34 -399 -381 -788 -771 -389 -391 -719 -714 -733 -719 -35 -14 -64 3 -64
38 0 22 123 149 708 737 390 390 731 741 760 779 74 101 105 170 110 242 4 53
0 70 -26 126 -17 35 -54 95 -83 133 -61 82 -1141 1170 -1245 1254 -180 146
-264 141 -467 -30 -122 -102 -1403 -1389 -1497 -1504 -95 -116 -602 -628 -795
-802 -82 -75 -325 -308 -540 -517 -214 -210 -406 -394 -425 -408 -27 -20 -40
-24 -57 -17 -13 4 -23 16 -23 25 0 9 112 129 248 268 253 257 323 341 367 440
33 75 32 119 -4 181 l-30 50 370 370 369 370 0 378 c1 423 1 420 -70 459 -33
17 -57 18 -352 16 -302 -3 -318 -4 -345 -24 -15 -11 -36 -36 -45 -55 -17 -31
-18 -91 -18 -819 l0 -785 -375 -375 c-334 -334 -377 -381 -395 -428 -37 -97
-18 -197 51 -276 63 -72 107 -91 209 -91 63 0 94 5 120 19 19 10 812 795 1763
1744 l1727 1727 707 -707 708 -708 -832 -832 c-808 -810 -832 -835 -847 -887
-20 -68 -20 -104 -1 -168 18 -60 81 -135 139 -165 24 -13 68 -23 109 -26 131
-9 68 -63 992 859 l830 829 815 -816 c462 -462 834 -827 860 -842 39 -24 55
-27 130 -27 102 0 146 19 209 91 73 83 89 195 43 296 -15 32 -485 508 -1861
1883 -1012 1012 -1856 1848 -1875 1858 -36 19 -118 35 -151 30z m-2495 -1845
c0 -134 -5 -261 -10 -282 -7 -31 -32 -62 -117 -148 -93 -95 -146 -138 -168
-138 -3 0 -5 182 -5 405 l0 405 150 0 150 0 0 -242z M5561 5613 c-60 -116
-108 -146 -161 -101 -10 9 -30 24 -44 33 l-26 17 0 -2021 c0 -1111 3 -2021 6
-2021 3 0 29 18 56 40 65 51 91 51 155 0 l50 -40 7 38 c8 49 6 4059 -3 4095
-6 26 -8 23 -40 -40z M3110 5053 l0 -558 552 2 553 3 3 555 2 555 -555 0 -555
0 0 -557z m880 -13 l0 -340 -340 0 -340 0 0 340 0 340 340 0 340 0 0 -340z
M6580 5053 l0 -558 555 0 555 0 0 558 0 557 -555 0 -555 0 0 -557z m890 -13
l0 -340 -340 0 -340 0 0 340 0 340 340 0 340 0 0 -340z M1720 3536 c0 -1964 0
-1967 20 -1956 11 6 20 14 20 18 0 4 15 23 33 42 l32 34 0 1861 c0 1727 -1
1863 -17 1878 -9 9 -25 27 -35 39 -10 13 -26 29 -36 37 -16 13 -17 -84 -17
-1953z M8898 5463 c-20 -21 -40 -50 -43 -65 -4 -16 -11 -28 -16 -28 -5 0 -9
-769 -9 -1840 0 -1071 4 -1840 9 -1840 5 0 11 -10 15 -22 3 -13 23 -41 43 -62
l38 -40 3 988 c1 543 1 1428 0 1967 l-3 980 -37 -38z M3110 2275 l0 -835 -864
0 c-820 0 -867 -1 -925 -19 -120 -37 -205 -111 -257 -225 -94 -206 -3 -451
204 -549 l67 -32 3995 0 3995 0 67 32 c207 98 298 343 204 549 -52 114 -137
188 -257 225 -59 18 -136 19 -2592 19 l-2532 0 3 835 2 835 -555 0 -555 0 0
-835z m850 595 c0 -13 7 -20 20 -20 20 0 20 -7 20 -580 0 -486 2 -580 14 -580
9 0 15 -17 18 -53 3 -37 12 -61 29 -81 13 -16 37 -44 53 -63 15 -18 42 -37 60
-42 19 -6 -168 -9 -509 -9 -297 1 -530 3 -518 5 19 4 62 45 117 114 12 14 21
45 24 76 3 29 8 53 13 53 5 0 9 255 9 580 0 573 0 580 20 580 13 0 20 7 20 20
0 20 7 20 305 20 298 0 305 0 305 -20z m220 -1656 l105 -39 495 1 c272 0 565
1 650 3 411 7 3691 -17 3763 -27 44 -6 95 -19 115 -29 l37 -18 0 -83 c0 -77
-2 -85 -25 -102 -62 -47 125 -45 -3995 -45 -4106 0 -3935 -2 -3991 44 -33 27
-44 55 -44 115 0 55 0 55 44 81 29 17 71 29 123 36 44 6 390 12 793 15 398 3
743 9 777 15 34 5 84 19 110 30 103 45 146 48 553 46 l385 -3 105 -40z M6580
2553 l0 -558 555 0 555 0 0 558 0 557 -555 0 -555 0 0 -557z m890 -13 l0 -340
-340 0 -340 0 0 340 0 340 340 0 340 0 0 -340z"/>
</g>
</svg>
