<?xml version="1.0" standalone="no"?>
<!DOCTYPE svg PUBLIC "-//W3C//DTD SVG 20010904//EN"
 "http://www.w3.org/TR/2001/REC-SVG-20010904/DTD/svg10.dtd">
<svg version="1.0" xmlns="http://www.w3.org/2000/svg"
 width="2048.000000pt" height="2048.000000pt" viewBox="0 0 2048.000000 2048.000000"
 preserveAspectRatio="xMidYMid meet">
<metadata>
Created by potrace 1.13, written by Peter Selinger 2001-2015
</metadata>
<g transform="translate(0.000000,2048.000000) scale(0.192120,-0.192120)"
fill="#000000" stroke="none">
<path d="M1605 10318 c-77 -14 -203 -80 -263 -137 -70 -68 -128 -159 -155
-246 l-22 -70 0 -1480 0 -1480 24 -73 c31 -94 82 -173 159 -244 94 -86 171
-120 335 -143 l37 -6 0 -277 0 -277 -322 0 c-284 0 -330 -2 -383 -18 -137 -42
-267 -143 -333 -258 -38 -68 -72 -178 -72 -235 l0 -44 4715 0 c2818 0 4715 -4
4715 -9 0 -5 -30 -53 -66 -107 -36 -55 -68 -111 -71 -126 -3 -16 -9 -28 -14
-28 -5 0 -9 -373 -9 -855 0 -494 4 -855 9 -855 5 0 11 -10 15 -23 3 -13 27
-52 54 -88 51 -69 82 -115 82 -124 0 -3 -2122 -5 -4715 -5 l-4715 0 0 -557 0
-558 3055 3 3055 2 0 -557 0 -558 1390 0 1390 0 -1 480 c0 264 -4 502 -7 528
l-7 48 -50 -51 c-90 -93 -95 -99 -95 -115 0 -8 -4 -15 -10 -15 -6 0 -10 -105
-10 -295 0 -288 0 -295 -20 -295 -17 0 -20 -7 -20 -45 l0 -45 -1165 0 -1165 0
0 45 c0 38 -3 45 -20 45 -20 0 -20 7 -20 295 0 165 -4 295 -9 295 -5 0 -12 16
-15 36 -5 26 -28 57 -82 114 -58 60 -71 79 -58 84 22 8 3198 6 3251 -2 l43 -7
-65 -97 c-36 -53 -65 -101 -65 -106 0 -6 -6 -12 -12 -14 -10 -4 -14 -99 -18
-416 -4 -310 -8 -414 -17 -424 -7 -6 -13 -30 -13 -52 0 -36 -17 -83 -57 -161
-34 -65 -90 -106 -199 -147 l-59 -22 -1322 -3 -1323 -4 0 26 c0 18 -5 25 -20
25 -17 0 -20 7 -20 40 0 22 -4 40 -10 40 -5 0 -10 9 -10 20 0 11 -4 20 -10 20
-5 0 -10 5 -10 12 0 6 -19 43 -42 82 l-43 71 -3 -240 c-1 -132 -6 -243 -11
-248 -4 -4 -40 9 -80 30 -64 32 -83 37 -161 41 -103 5 -139 -5 -228 -61 -35
-22 -66 -36 -70 -32 -4 3 -8 360 -10 791 -1 431 -7 784 -11 784 -9 0 -57 -51
-99 -105 -12 -16 -22 -37 -22 -47 0 -10 -4 -18 -10 -18 -7 0 -10 -193 -10
-560 0 -367 -3 -560 -10 -560 -5 0 -10 -20 -10 -45 0 -41 -2 -45 -25 -45 -16
0 -25 -6 -25 -15 0 -13 -42 -15 -315 -15 -203 0 -315 -4 -315 -10 0 -5 -18
-10 -40 -10 -22 0 -40 -3 -40 -8 0 -4 -18 -13 -41 -20 -22 -7 -58 -24 -80 -39
-22 -14 -43 -23 -47 -19 -4 4 -9 357 -12 784 l-5 776 -52 -45 c-35 -30 -54
-54 -58 -76 -4 -18 -13 -33 -21 -33 -12 0 -14 -93 -14 -585 0 -578 0 -585 -20
-585 -17 0 -20 -7 -20 -40 l0 -40 -1205 0 -1205 0 0 40 c0 29 -4 40 -15 40
-13 0 -15 72 -15 585 0 490 -2 585 -14 585 -7 0 -16 13 -19 29 -4 16 -27 50
-54 76 l-48 48 -6 -744 c-3 -409 -7 -763 -8 -787 l-1 -43 -43 29 c-23 15 -57
34 -74 41 -18 8 -33 17 -33 22 0 5 -11 9 -25 9 -14 0 -25 5 -25 10 0 6 -112
10 -315 10 -273 0 -315 2 -315 15 0 11 -11 15 -40 15 -40 0 -40 0 -40 39 0 30
-4 40 -20 44 -20 5 -20 14 -20 566 0 367 -3 561 -10 561 -5 0 -10 8 -10 18 0
20 -34 66 -90 122 l-35 35 -6 -50 c-4 -27 -8 -384 -8 -792 -1 -409 -5 -743 -9
-743 -14 0 -112 87 -198 175 -85 86 -164 206 -164 248 0 13 -7 44 -15 67 -12
35 -15 115 -15 466 0 276 -3 424 -10 424 -5 0 -10 9 -10 20 0 11 -4 20 -10 20
-5 0 -10 6 -10 13 0 6 -24 45 -53 86 l-52 73 -3 -558 c-2 -383 1 -578 8 -619
36 -191 183 -351 390 -424 41 -15 444 -16 4290 -19 3844 -2 4252 -1 4317 13
108 24 187 68 269 150 78 78 133 176 153 273 8 38 11 723 11 2351 l0 2299 -21
68 c-57 186 -195 323 -384 381 -57 17 -147 18 -2048 18 l-1987 0 0 276 c0 309
-5 289 73 289 142 1 333 133 414 286 67 126 63 29 63 1649 0 1306 -2 1474 -16
1529 -45 174 -175 316 -352 385 l-67 26 -2035 1 c-1245 1 -2054 -2 -2085 -8z
m620 -280 c11 -11 -11 -29 -154 -123 -143 -94 -284 -223 -378 -349 -64 -84
-145 -247 -178 -355 -22 -75 -25 -103 -25 -245 l0 -160 40 -81 c49 -99 116
-184 195 -247 86 -70 150 -92 260 -93 122 0 180 28 290 139 82 83 119 141 185
291 20 44 41 90 48 102 14 25 66 56 76 46 15 -16 5 -125 -15 -166 -21 -41 -89
-144 -115 -176 -8 -9 -62 -77 -121 -151 -162 -203 -161 -202 -399 -476 -262
-300 -352 -416 -422 -543 l-52 -94 0 -106 c0 -104 1 -107 39 -181 50 -95 120
-181 196 -242 64 -52 75 -57 75 -32 0 11 5 14 18 9 74 -31 119 -38 275 -42
153 -5 167 -7 167 -23 0 -13 9 -20 28 -22 23 -3 27 -7 26 -33 -1 -16 -11 -55
-23 -85 -11 -30 -20 -76 -21 -101 0 -44 2 -47 31 -53 17 -3 645 -6 1394 -6
749 0 1377 3 1394 6 27 6 31 11 31 38 0 43 -27 143 -45 169 -26 38 -19 57 20
57 24 0 35 5 35 15 0 10 10 15 34 15 128 0 239 52 355 169 69 69 91 98 109
146 31 81 52 187 52 260 0 60 1 61 38 80 20 11 72 55 115 98 l77 77 0 -350 0
-350 -25 -41 c-24 -37 -80 -79 -168 -123 -78 -40 -117 -110 -117 -208 0 -36 4
-48 18 -51 9 -3 -108 -5 -260 -6 l-278 -1 0 -277 0 -278 -1390 0 -1390 0 0
278 0 277 -272 1 c-150 1 -265 3 -255 6 39 10 10 161 -41 216 -15 16 -59 43
-97 61 -86 40 -142 87 -166 141 -18 38 -19 110 -19 1523 0 1640 -5 1509 66
1572 44 38 109 67 178 80 59 10 551 8 561 -2z m2441 -1 c4 -4 -25 -40 -66 -80
-106 -102 -182 -188 -223 -249 -33 -51 -651 -1167 -802 -1448 -103 -193 -132
-265 -149 -367 -11 -71 -20 -96 -39 -115 -24 -24 -24 -24 -125 -12 -55 6 -105
15 -111 18 -24 15 -7 49 85 167 225 290 358 527 430 764 36 120 46 375 19 506
-18 95 -88 265 -136 336 -97 142 -253 300 -359 361 -25 15 -51 32 -58 39 -7 7
-17 13 -22 13 -9 0 -70 55 -70 63 0 3 10 8 23 10 39 8 1595 2 1603 -6z m984 3
c82 -13 160 -51 199 -96 l31 -35 0 -881 0 -881 -67 64 c-38 36 -83 75 -100 88
-28 19 -33 29 -33 60 0 22 -6 44 -15 51 -13 11 -15 75 -15 466 0 514 -7 589
-66 734 -44 109 -87 171 -204 293 -52 55 -101 105 -107 113 -17 17 -16 22 5
27 34 9 309 7 372 -3z m-2838 -244 c186 -36 321 -106 448 -235 97 -98 140
-166 181 -283 74 -220 53 -448 -65 -693 -104 -215 -234 -391 -595 -805 l-231
-265 413 -5 412 -5 58 -29 c69 -33 110 -84 127 -157 32 -131 -30 -255 -147
-299 -52 -19 -79 -20 -783 -20 -714 0 -730 0 -785 21 -106 40 -158 113 -159
223 0 110 12 128 399 566 368 417 592 695 692 860 128 213 135 389 19 518 -55
60 -115 86 -206 86 -63 1 -85 -4 -132 -27 -94 -46 -132 -105 -198 -309 -73
-224 -123 -280 -257 -287 -89 -4 -147 15 -205 67 -60 55 -81 103 -86 203 -19
384 280 758 693 865 108 28 291 32 407 10z m2360 -29 c129 -63 204 -166 233
-321 12 -64 15 -189 15 -701 l0 -622 78 -5 c112 -7 187 -53 235 -143 29 -56
29 -164 0 -220 -48 -92 -121 -136 -235 -143 l-76 -4 -4 -222 c-3 -214 -4 -223
-29 -277 -45 -95 -117 -133 -254 -133 -100 -1 -161 21 -209 74 -57 63 -66 113
-66 352 l0 208 -503 0 c-570 0 -567 0 -643 75 -51 51 -67 98 -62 178 4 60 17
86 442 857 241 437 457 826 478 864 103 176 197 228 409 223 111 -2 118 -3
191 -40z m-935 -2434 l381 -4 5 -72 c5 -93 20 -146 63 -232 41 -81 75 -125
168 -215 36 -35 66 -70 66 -77 0 -29 -82 -33 -722 -33 -645 0 -748 5 -748 34
0 7 27 32 59 55 84 58 172 159 215 243 40 81 76 210 76 277 0 42 1 43 28 36
15 -4 199 -10 409 -12z m-1992 -1498 c10 -80 42 -136 90 -160 39 -20 60 -20
1330 -20 1284 0 1290 0 1329 21 50 26 79 79 84 156 l4 58 247 -2 246 -3 3 -25
c10 -109 35 -154 102 -191 32 -18 800 -27 800 -10 0 6 9 11 20 11 11 0 20 5
20 10 0 6 6 10 13 10 14 0 156 103 175 128 10 13 12 -31 11 -229 0 -134 -4
-236 -7 -226 -8 20 -161 137 -179 137 -7 0 -13 5 -13 10 0 6 -9 10 -20 10 -12
0 -20 7 -20 17 0 15 -36 16 -487 7 -269 -5 -634 -7 -813 -4 -179 3 -860 5
-1515 5 -655 0 -1338 -2 -1520 -5 -423 -6 -1091 9 -1105 25 -16 19 17 53 63
66 23 6 150 15 282 18 248 8 265 11 313 54 25 23 52 103 52 154 l0 33 244 0
245 0 6 -55z m4475 -3296 l0 -512 -20 26 c-11 14 -44 43 -73 64 -28 20 -58 43
-65 50 -7 7 -24 13 -38 13 -13 0 -24 5 -24 10 0 16 -263 12 -360 -5 -66 -12
-169 -15 -465 -14 -209 0 -400 4 -425 7 l-45 7 1 45 c1 24 6 46 13 48 8 3 11
86 11 302 0 262 2 299 16 304 9 3 294 6 635 6 406 0 619 3 619 10 0 6 11 10
25 10 14 0 25 4 25 8 0 5 10 13 23 19 12 6 38 24 57 41 43 37 84 71 88 72 1 0
2 -230 2 -511z m-4652 345 l22 -6 0 -298 c0 -216 3 -299 11 -302 7 -2 12 -24
13 -48 l1 -45 -70 -8 c-101 -12 -821 -2 -870 11 -22 6 -82 15 -132 18 -68 5
-93 11 -93 20 0 10 -13 14 -40 14 l-40 0 0 305 0 305 40 0 c33 0 40 3 40 20 0
20 7 20 548 20 301 0 557 -3 570 -6z m7692 -343 l0 -298 -137 -7 c-76 -3 -172
-10 -213 -15 -43 -6 -595 -10 -1287 -10 l-1213 -1 0 315 0 315 1425 0 1425 0
0 -299z m-4708 9 l-3 -280 -1389 0 -1390 0 0 280 0 280 1393 0 1392 0 -3 -280z
M4786 9078 c-147 -309 -314 -654 -387 -800 l-79 -158 270 0 270 0 0 545 c0
300 -3 545 -6 545 -3 0 -34 -60 -68 -132z M2777 2714 c-27 -27 -56 -62 -65
-79 -20 -39 -20 -131 1 -170 18 -35 104 -121 112 -113 3 3 4 96 3 208 l-3 203
-48 -49z M4500 2556 c0 -113 4 -206 8 -206 11 0 98 91 111 117 6 12 11 31 11
42 0 12 5 21 10 21 6 0 10 9 10 20 0 11 -4 20 -10 20 -5 0 -10 9 -10 21 0 36
-50 108 -107 152 l-23 18 0 -205z M610 4225 c0 -593 2 -1076 4 -1074 19 20 98
147 102 166 4 12 10 23 15 23 5 0 9 367 9 870 0 490 -4 870 -9 870 -5 0 -11
14 -15 31 -3 16 -28 67 -56 112 l-50 81 0 -1079z M6720 4436 l0 -776 555 0
555 0 0 558 0 557 -437 -3 c-433 -4 -663 3 -663 18 0 4 18 39 40 76 22 38 40
79 40 91 0 13 5 23 10 23 6 0 10 18 10 40 0 22 -4 40 -10 40 -5 0 -10 8 -10
18 0 21 -48 100 -73 121 -16 13 -17 -39 -17 -763z m890 -231 l0 -345 -330 0
-330 0 0 345 0 345 330 0 330 0 0 -345z M1160 4218 l0 -558 558 0 557 0 -2
556 -1 556 -556 1 -556 2 0 -557z m900 -8 l0 -350 -350 0 -350 0 0 350 0 350
350 0 350 0 0 -350z M3110 4218 l0 -558 555 0 555 0 0 558 0 557 -555 0 -555
0 0 -557z m890 -8 l0 -350 -350 0 -350 0 0 350 0 350 350 0 350 0 0 -350z
M5050 4217 l0 -557 555 2 555 3 0 553 1 554 -556 1 -555 2 0 -558z m900 -7 l0
-350 -350 0 -350 0 0 350 0 350 350 0 350 0 0 -350z M8390 4773 c-1 -2 -1
-252 -1 -555 l0 -553 555 -3 556 -2 0 557 0 558 -555 0 c-305 0 -555 -1 -555
-2z m890 -568 l0 -345 -350 0 -350 0 0 345 0 345 350 0 350 0 0 -345z M6721
3435 l0 -220 40 45 c22 24 43 57 46 72 3 16 10 31 14 34 12 7 11 84 -1 84 -5
0 -10 9 -10 21 0 17 -50 124 -80 169 -6 10 -10 -57 -9 -205z"/>
</g>
</svg>
