<?xml version="1.0" standalone="no"?>
<!DOCTYPE svg PUBLIC "-//W3C//DTD SVG 20010904//EN"
 "http://www.w3.org/TR/2001/REC-SVG-20010904/DTD/svg10.dtd">
<svg version="1.0" xmlns="http://www.w3.org/2000/svg"
 width="2048.000000pt" height="2048.000000pt" viewBox="0 0 2048.000000 2048.000000"
 preserveAspectRatio="xMidYMid meet">
<metadata>
Created by potrace 1.13, written by Peter Selinger 2001-2015
</metadata>
<g transform="translate(0.000000,2048.000000) scale(0.192120,-0.192120)"
fill="#000000" stroke="none">
<path d="M3660 9773 l0 -558 -277 -277 -278 -278 2225 0 2225 0 -278 278 -277
277 0 558 0 557 -140 0 -140 0 0 -140 0 -140 -1390 0 -1390 0 0 140 0 140
-140 0 -140 0 0 -557z m310 152 c48 -13 214 -15 1365 -15 1245 1 1313 1 1380
19 49 13 75 16 89 9 23 -13 75 -71 102 -117 12 -19 30 -38 40 -42 11 -4 -717
-7 -1616 -7 -899 0 -1627 2 -1617 5 9 2 26 21 36 41 28 54 68 105 94 119 24
13 46 11 127 -12z m2788 -515 c1 -74 7 -139 12 -144 6 -6 10 -25 10 -42 0 -18
4 -35 9 -38 5 -3 12 -18 16 -33 3 -16 29 -61 56 -101 65 -96 70 -116 30 -136
-27 -14 -189 -16 -1568 -16 -1376 0 -1541 2 -1561 16 -31 22 -28 41 21 116 24
36 49 81 56 100 7 18 17 41 22 50 5 10 9 31 9 47 0 17 5 33 10 36 6 4 10 63
10 146 l0 139 1433 -2 1432 -3 3 -135z M3665 8477 c-4 -52 -6 -218 -4 -370 l4
-277 -270 0 -270 0 55 -35 c158 -99 131 -90 275 -90 122 0 134 2 186 28 59 28
139 105 139 132 0 8 5 15 10 15 6 0 10 95 10 265 0 170 -4 265 -10 265 -5 0
-10 8 -10 19 0 18 -39 82 -63 105 -45 42 -45 43 -52 -57z M6943 8530 c-23 -23
-45 -51 -48 -61 -4 -11 -11 -19 -16 -19 -5 0 -9 -9 -9 -20 0 -11 -4 -20 -10
-20 -6 0 -10 -93 -10 -260 0 -167 4 -260 10 -260 6 0 10 -6 10 -14 0 -27 91
-115 148 -143 53 -26 65 -28 182 -28 l125 0 105 62 105 63 -270 0 -270 0 3
302 c2 167 0 334 -5 372 l-8 70 -42 -44z M4697 7579 l-618 -309 -484 0 -485 0
0 280 0 280 -418 0 -417 0 -139 -695 -139 -695 -526 -394 c-289 -216 -538
-401 -553 -411 -16 -9 -28 -20 -28 -24 0 -3 1998 -6 4440 -6 2442 0 4440 3
4440 6 0 3 -21 21 -47 39 -27 19 -276 204 -554 412 l-506 378 -139 695 -139
695 -417 0 -418 0 0 -280 0 -280 -485 0 -484 0 -621 310 c-341 171 -626 310
-633 309 -6 0 -290 -139 -630 -310z m1223 -249 c289 -143 554 -270 590 -282
64 -23 73 -23 515 -23 443 0 451 0 498 22 76 35 197 170 197 220 0 7 5 13 10
13 6 0 10 16 10 35 0 19 5 35 10 35 6 0 10 40 10 100 l0 100 205 0 c204 0 205
0 220 -24 24 -36 29 -60 120 -506 46 -228 91 -445 99 -482 43 -181 160 -335
386 -508 129 -98 149 -120 125 -140 -40 -33 -217 -35 -3585 -35 -3441 0 -3550
1 -3588 39 -14 14 -14 17 4 37 10 12 71 61 134 110 166 126 249 218 312 343
38 75 30 41 138 576 50 245 98 470 106 500 27 93 18 90 251 90 l203 0 0 -100
c0 -78 3 -100 14 -100 8 0 15 -17 19 -50 3 -27 11 -55 16 -62 6 -7 28 -36 50
-64 45 -58 103 -107 158 -132 34 -15 82 -17 483 -17 l445 0 75 25 c41 13 296
134 565 268 270 135 513 253 540 263 34 13 65 18 95 14 33 -3 190 -77 570
-265z M5190 7451 c-140 -47 -1148 -556 -1348 -681 -96 -61 -242 -189 -242
-214 0 -6 -9 -22 -20 -36 -38 -48 -23 -103 51 -191 56 -65 120 -102 209 -121
96 -19 2884 -19 2981 0 115 24 204 91 253 191 23 49 20 89 -13 147 -64 111
-200 209 -531 384 -222 118 -990 501 -990 494 0 -3 -12 2 -27 10 -45 25 -133
46 -187 46 -29 -1 -89 -13 -136 -29z m981 -596 l831 -415 -1672 0 -1672 0 829
414 c455 228 833 415 840 415 7 1 386 -186 844 -414z M2000 5180 l0 -344 31
30 c17 16 40 45 52 64 11 19 26 38 31 42 14 10 15 406 1 416 -5 4 -19 23 -29
42 -20 35 -24 40 -64 74 l-22 19 0 -343z M8601 5471 c-34 -34 -52 -61 -57 -85
-3 -20 -10 -36 -15 -36 -5 0 -9 -76 -9 -170 0 -93 4 -170 9 -170 5 0 11 -13
14 -29 4 -16 31 -55 61 -88 l55 -58 1 343 c0 188 -2 342 -5 342 -3 0 -27 -22
-54 -49z M1334 4244 c-362 -289 -675 -539 -694 -554 l-35 -29 4725 0 c4026 -1
4722 1 4710 13 -8 7 -320 257 -693 555 l-677 541 -3339 0 -3338 0 -659 -526z
m7266 240 c58 -28 519 -384 618 -477 68 -65 33 -82 -188 -94 -193 -11 -7224
-10 -7410 1 -209 12 -241 22 -206 69 25 33 590 477 635 499 24 12 72 25 105
28 34 4 1483 7 3221 6 l3160 -1 65 -31z M1720 3213 l0 -357 55 80 c31 43 58
89 61 102 4 12 10 22 15 22 5 0 9 79 9 175 0 96 -4 175 -9 175 -5 0 -11 14
-15 30 -5 29 -89 130 -107 130 -5 0 -9 -161 -9 -357z M8876 3520 c-25 -27 -49
-63 -52 -80 -4 -16 -10 -30 -15 -30 -5 0 -9 -79 -9 -175 0 -96 4 -175 9 -175
5 0 11 -10 15 -23 3 -12 30 -58 61 -102 l55 -79 0 357 c0 196 -4 357 -9 357
-4 0 -29 -22 -55 -50z M1720 2549 l0 -281 -139 3 -140 4 -554 -970 -554 -970
2498 -3 c1375 -1 3623 -1 4998 0 l2498 3 -554 970 -555 970 -139 -4 -139 -3 0
281 0 281 -3610 0 -3610 0 0 -281z m6940 -14 l0 -35 -3340 0 -3340 0 0 35 0
35 3340 0 3340 0 0 -35z m193 -261 l77 -7 0 -41 c0 -57 18 -117 43 -144 12
-13 49 -36 82 -51 93 -42 67 -3 519 -795 277 -485 336 -596 336 -626 0 -25 -5
-40 -16 -44 -9 -3 -2067 -6 -4574 -6 -4132 0 -4560 1 -4574 16 -22 21 -13 50
47 159 99 179 647 1135 682 1189 37 59 85 96 146 115 69 22 109 91 109 188 l0
42 53 4 c94 6 6992 7 7070 1z"/>
</g>
</svg>
