<?xml version="1.0" standalone="no"?>
<!DOCTYPE svg PUBLIC "-//W3C//DTD SVG 20010904//EN"
 "http://www.w3.org/TR/2001/REC-SVG-20010904/DTD/svg10.dtd">
<svg version="1.0" xmlns="http://www.w3.org/2000/svg"
 width="2048.000000pt" height="2048.000000pt" viewBox="0 0 2048.000000 2048.000000"
 preserveAspectRatio="xMidYMid meet">
<metadata>
Created by potrace 1.13, written by Peter Selinger 2001-2015
</metadata>
<g transform="translate(0.000000,2048.000000) scale(0.192120,-0.192120)"
fill="#000000" stroke="none">
<path d="M1891 9489 c-207 -27 -409 -140 -541 -301 -65 -80 -134 -219 -163
-328 l-22 -85 0 -3445 0 -3445 22 -85 c46 -175 151 -341 285 -450 80 -65 219
-134 328 -163 l85 -22 3445 0 3445 0 85 22 c109 29 248 98 328 163 134 109
239 275 285 450 l22 85 0 3445 0 3445 -22 85 c-29 109 -98 248 -163 328 -107
131 -271 236 -445 285 l-80 22 -3415 1 c-1878 1 -3444 -2 -3479 -7z m6974
-206 c39 -13 104 -39 145 -60 99 -48 221 -169 268 -264 l32 -66 0 -3559 0
-3559 -30 -63 c-16 -34 -54 -94 -85 -132 -90 -113 -192 -179 -342 -222 l-78
-23 -3450 0 c-3262 0 -3454 1 -3515 18 -90 24 -194 77 -265 134 -72 58 -166
186 -195 264 l-20 56 0 3530 0 3530 21 49 c67 151 226 296 384 349 135 46 -29
44 3615 42 l3445 -2 70 -22z"/>
</g>
</svg>
