<?xml version="1.0" standalone="no"?>
<!DOCTYPE svg PUBLIC "-//W3C//DTD SVG 20010904//EN"
 "http://www.w3.org/TR/2001/REC-SVG-20010904/DTD/svg10.dtd">
<svg version="1.0" xmlns="http://www.w3.org/2000/svg"
 width="2048.000000pt" height="2048.000000pt" viewBox="0 0 2048.000000 2048.000000"
 preserveAspectRatio="xMidYMid meet">
<metadata>
Created by potrace 1.13, written by Peter Selinger 2001-2015
</metadata>
<g transform="translate(0.000000,2048.000000) scale(0.192120,-0.192120)"
fill="#000000" stroke="none">
<path d="M1320 8934 c-161 -25 -271 -59 -391 -121 -323 -169 -544 -486 -588
-848 -13 -106 -16 -2479 -3 -2471 5 3 17 23 28 45 10 23 22 41 27 41 4 0 7 20
7 45 0 25 4 45 10 45 6 0 10 415 12 1143 l3 1142 28 100 c113 414 457 715 872
764 129 16 7809 15 7960 0 274 -27 459 -114 649 -304 153 -153 256 -357 288
-570 7 -45 12 -464 15 -1172 2 -704 7 -1103 13 -1103 6 0 10 -20 10 -45 0 -25
4 -45 9 -45 5 0 12 -13 16 -30 4 -16 10 -30 14 -30 4 0 13 -10 19 -22 8 -17
11 309 11 1187 1 1329 1 1316 -59 1498 -110 329 -377 594 -705 701 -185 60
113 56 -4239 55 -2189 -1 -3992 -3 -4006 -5z M6855 7811 c-304 -136 -1032
-610 -1541 -1002 -259 -200 -314 -262 -361 -407 -23 -70 -26 -98 -32 -297 l-6
-220 -30 -54 c-81 -146 -239 -220 -563 -264 l-103 -14 -16 31 c-22 43 -22 135
0 169 25 39 79 51 145 34 51 -14 52 -14 52 7 0 36 -45 120 -81 152 -35 30 -70
47 -122 58 -35 8 -51 46 -43 105 13 96 58 102 213 27 52 -25 97 -46 100 -46
14 0 -5 121 -26 163 -19 38 -33 53 -75 73 -102 52 -146 100 -146 162 0 15 6
37 14 48 25 33 149 19 269 -31 15 -6 17 -1 17 36 0 53 -31 120 -72 154 -17 15
-61 41 -98 60 -74 37 -93 55 -84 78 10 28 69 40 155 32 43 -4 79 -4 79 -1 0
15 -31 79 -50 104 -32 40 -104 88 -154 102 -76 21 -126 120 -111 220 10 65 19
77 87 111 75 38 198 119 198 130 0 5 -23 9 -51 9 -43 0 -50 2 -45 18 3 9 8 68
12 131 l7 114 -29 -20 c-82 -58 -230 -116 -343 -134 -81 -13 -118 -30 -177
-82 l-46 -40 -211 9 c-117 5 -277 9 -357 9 -139 0 -147 -1 -203 -29 -63 -30
-97 -72 -97 -118 0 -30 -2 -30 -190 -43 -269 -19 -389 -50 -510 -130 -74 -49
-154 -130 -145 -145 9 -14 68 -12 197 6 62 9 151 17 198 18 75 1 92 -2 143
-28 60 -29 97 -72 97 -112 0 -29 25 -48 53 -40 17 4 30 0 42 -14 24 -26 33
-25 41 5 6 25 28 33 39 15 12 -20 25 -9 25 21 l0 31 36 -23 36 -22 -7 44 -7
43 35 -27 c20 -15 38 -27 41 -27 3 0 6 17 8 38 l3 37 65 -3 c36 -1 88 -9 116
-17 49 -14 114 -61 114 -83 0 -19 -221 -55 -445 -72 -166 -12 -883 -14 -870
-2 6 5 50 26 99 48 l89 38 -79 13 c-134 21 -381 120 -563 227 -35 20 -66 35
-69 32 -9 -9 130 -278 189 -366 61 -91 105 -132 215 -203 74 -48 194 -111 194
-102 0 3 -16 37 -36 76 -19 39 -33 73 -31 76 3 2 81 -3 173 -12 93 -8 248 -18
346 -22 l176 -6 7 -44 c4 -25 24 -79 46 -121 36 -70 38 -78 28 -112 -9 -30 -8
-47 5 -88 10 -28 23 -55 30 -61 15 -13 32 21 82 166 16 46 32 83 35 83 4 0 22
-23 39 -51 18 -27 36 -47 40 -42 4 4 15 30 25 58 23 62 100 141 174 178 78 38
85 36 112 -30 22 -55 22 -57 4 -67 -78 -43 -122 -129 -112 -217 5 -42 4 -47
-30 -73 -45 -37 -83 -117 -83 -178 0 -42 -3 -48 -34 -68 -42 -25 -93 -100
-102 -148 -4 -19 -3 -51 2 -71 9 -34 7 -38 -38 -82 -62 -62 -83 -130 -74 -240
7 -72 6 -78 -13 -84 -12 -3 -26 -15 -31 -26 -10 -18 -25 -19 -350 -19 l-340 0
0 53 c0 52 -23 109 -95 237 -15 27 -23 52 -19 65 9 29 51 72 116 116 32 22 65
54 74 72 18 34 39 271 29 317 -6 23 -61 90 -75 90 -3 0 -5 -31 -5 -68 0 -60
-4 -73 -29 -106 -15 -21 -36 -40 -45 -43 -9 -3 -25 -13 -35 -22 -18 -15 -19
-15 -13 1 3 9 11 43 18 75 l12 58 -58 110 c-31 61 -66 120 -78 132 -32 36 -94
54 -167 51 l-65 -3 36 -16 c46 -21 94 -80 109 -134 10 -37 10 -48 -4 -74 -9
-17 -23 -44 -31 -60 -9 -16 -21 -60 -28 -97 l-12 -68 -37 50 c-20 27 -49 56
-65 64 -15 8 -45 29 -65 47 -86 75 -153 102 -202 83 l-28 -10 33 -23 c19 -12
45 -44 58 -71 23 -47 24 -49 7 -77 -20 -34 -11 -76 23 -114 11 -11 21 -43 24
-73 9 -74 32 -109 103 -151 57 -33 61 -38 57 -66 -2 -16 -10 -100 -16 -185
l-12 -155 -678 -3 -677 -2 0 -1293 c0 -1400 -1 -1381 55 -1550 53 -165 144
-310 271 -439 139 -140 316 -242 511 -296 l98 -27 4065 0 4065 0 98 27 c435
120 752 468 822 903 13 76 15 296 15 1383 l0 1292 -790 0 -790 0 29 58 c78
154 87 334 25 490 l-27 65 53 166 c29 91 55 169 57 173 2 4 25 -15 52 -42 31
-31 78 -63 132 -88 94 -45 185 -79 193 -71 3 2 -8 47 -24 98 -41 132 -77 297
-91 424 -9 83 -9 174 0 405 7 163 15 307 18 320 3 12 1 22 -6 22 -6 0 -68 -66
-138 -147 -229 -264 -304 -344 -551 -591 -134 -134 -241 -246 -237 -250 12
-12 298 -7 358 7 32 7 61 11 64 8 4 -4 -91 -222 -104 -236 -2 -3 -20 5 -41 16
-20 11 -66 30 -102 41 -261 83 -491 44 -643 -110 -122 -123 -154 -251 -93
-368 39 -75 129 -161 213 -201 66 -33 71 -34 188 -33 110 0 231 20 308 49 33
13 17 -16 -38 -71 -36 -36 -81 -67 -132 -92 l-78 -37 -175 0 c-174 1 -176 1
-385 50 l-210 50 -312 0 c-172 0 -313 3 -313 7 0 3 32 35 70 71 130 120 289
180 483 181 59 1 107 4 107 7 0 3 -18 52 -39 110 -51 135 -64 207 -59 321 5
108 28 169 97 255 81 101 273 239 472 338 l93 47 -59 24 c-166 67 -241 185
-185 293 50 100 268 327 496 518 57 48 102 89 100 90 -2 2 -70 -28 -152 -65
-557 -259 -1030 -423 -1224 -426 -105 -1 -124 12 -140 100 -25 133 4 324 71
456 17 33 29 62 27 63 -2 2 -21 -4 -43 -14z m-2945 -476 c0 -12 4 -13 19 -6
17 10 19 6 23 -37 10 -105 43 -198 106 -292 36 -54 42 -70 37 -95 -11 -48 -9
-126 5 -177 12 -42 11 -49 -8 -80 -12 -18 -33 -55 -47 -82 -28 -51 -29 -76 -9
-218 5 -44 3 -52 -40 -121 -42 -67 -46 -79 -46 -137 0 -54 5 -73 35 -127 40
-73 44 -112 15 -168 -15 -30 -20 -59 -20 -120 0 -97 12 -121 109 -212 96 -92
134 -108 251 -107 301 5 524 106 676 308 95 127 112 187 124 436 14 297 40
333 470 652 356 264 863 599 868 574 3 -13 8 -13 37 0 43 18 45 18 45 -2 0
-28 68 -158 112 -214 100 -126 210 -179 341 -165 96 10 338 71 444 112 9 4 13
-4 13 -25 0 -16 7 -49 15 -73 27 -75 36 -126 26 -152 -5 -14 -44 -53 -87 -88
-119 -99 -227 -228 -283 -339 l-48 -96 -7 -144 c-5 -96 -12 -150 -21 -160 -7
-8 -16 -30 -20 -47 -3 -18 -13 -33 -20 -33 -7 0 -55 -21 -106 -47 -72 -36
-112 -64 -180 -130 -129 -124 -174 -223 -135 -297 18 -36 90 -100 146 -130 69
-38 124 -46 369 -56 193 -8 253 -14 414 -45 255 -48 358 -58 493 -45 60 5 127
15 149 21 95 27 210 103 310 203 72 73 67 72 120 22 26 -25 67 -53 91 -62 24
-9 44 -20 44 -24 0 -4 -22 -38 -49 -76 -180 -257 -520 -424 -946 -465 -66 -6
-121 -13 -123 -14 -2 -2 76 -47 174 -100 282 -156 483 -273 550 -320 142 -102
222 -196 195 -229 -27 -33 -128 -9 -216 50 -27 19 -77 52 -109 74 -33 22 -63
40 -68 40 -4 0 6 -27 23 -61 41 -83 69 -197 69 -285 0 -86 -43 -420 -71 -548
-10 -49 -26 -97 -35 -107 -21 -23 -14 -112 13 -166 16 -34 26 -40 108 -68 162
-56 235 -107 281 -197 37 -72 32 -87 -15 -45 -54 49 -107 64 -172 49 -76 -18
-87 -16 -190 35 -132 66 -188 69 -325 18 -117 -45 -162 -47 -240 -11 -105 48
-212 27 -319 -64 -60 -51 -73 -55 -157 -51 -36 2 -67 -6 -139 -38 -51 -23 -94
-39 -97 -36 -11 11 21 87 51 122 18 20 55 47 84 59 29 13 54 32 58 43 8 26 44
48 91 56 57 10 104 25 104 35 0 30 -159 40 -230 15 -54 -19 -120 -19 -156 0
-54 28 -100 16 -163 -41 l-41 -36 0 33 c0 65 63 133 151 164 24 9 54 28 66 43
20 26 25 27 116 27 52 0 93 3 92 6 -5 7 -67 33 -110 45 -21 7 -31 17 -33 34
-7 53 -57 63 -144 30 -28 -11 -53 -18 -55 -16 -2 2 11 25 29 52 42 62 86 87
152 88 37 1 55 6 67 20 23 28 46 16 151 -80 72 -65 118 -97 201 -139 139 -70
182 -73 274 -19 34 20 81 56 104 80 l43 44 -17 35 c-33 70 -17 129 44 161 29
15 30 17 24 67 -5 36 -2 66 10 100 15 46 15 50 -6 105 -13 35 -23 84 -24 128
-3 71 -3 72 -48 114 -26 23 -49 50 -52 60 -5 15 -19 19 -85 22 -64 2 -84 7
-100 24 -20 20 -24 20 -73 7 -92 -24 -172 -12 -225 32 -27 23 -29 23 -87 9
-125 -29 -230 -15 -295 39 -21 18 -45 26 -96 30 -90 9 -184 54 -214 102 -15
25 -29 35 -46 35 -35 0 -95 27 -126 57 l-28 26 -22 -29 c-29 -37 -62 -69 -120
-116 -81 -65 -106 -152 -73 -250 23 -67 68 -105 154 -128 40 -11 100 -35 134
-52 47 -23 82 -33 145 -39 127 -11 211 -72 247 -178 14 -42 21 -131 10 -131
-21 0 -213 69 -265 95 l-66 33 -28 -54 c-70 -133 -207 -276 -368 -384 -112
-74 -317 -177 -418 -210 l-74 -24 29 -13 c21 -9 54 -11 108 -7 64 5 82 3 105
-12 15 -9 30 -23 34 -29 4 -7 29 -16 55 -20 82 -12 117 -37 152 -106 17 -34
31 -71 31 -81 0 -18 -4 -17 -37 10 -84 65 -134 77 -185 41 -36 -26 -99 -27
-155 -4 -21 9 -80 41 -131 72 l-92 56 -68 -8 c-69 -8 -127 -9 -284 -5 -150 4
-296 -30 -398 -91 -68 -41 -85 -43 -119 -18 -41 30 -90 20 -146 -32 l-43 -40
-17 45 c-22 58 -7 93 52 121 23 11 41 25 39 30 -1 6 -29 26 -62 46 -37 23 -60
44 -62 57 -7 47 -78 39 -134 -16 -21 -19 -40 -33 -44 -30 -13 13 23 95 56 128
40 40 113 66 154 56 13 -3 40 1 60 9 51 22 76 19 163 -19 62 -27 97 -35 171
-40 52 -4 92 -3 92 2 0 5 -18 30 -40 54 -44 51 -89 73 -181 87 -75 13 -108 33
-116 72 -12 61 -78 76 -150 34 -41 -23 -43 -23 -43 -4 0 29 26 74 56 98 21 17
40 21 93 20 36 0 75 -4 86 -8 14 -6 24 -2 35 12 13 16 23 19 53 13 28 -5 60
-29 135 -100 94 -89 101 -94 170 -111 115 -28 189 -33 256 -19 34 7 91 13 127
14 65 0 65 0 82 35 20 42 70 75 115 75 29 0 32 3 32 30 0 45 27 90 62 104 l30
13 -38 19 c-23 11 -45 32 -54 50 -15 31 -16 32 -67 27 -67 -7 -167 12 -219 42
-25 15 -49 40 -64 68 -17 33 -37 51 -77 72 -73 38 -152 111 -174 160 -21 45
-24 110 -9 150 9 23 8 26 -4 22 -48 -19 -134 -29 -161 -20 -27 9 -35 5 -93
-43 -35 -28 -91 -67 -125 -85 -59 -32 -67 -34 -173 -36 l-112 -1 -60 -44 c-33
-25 -72 -50 -88 -56 -24 -10 -34 -27 -61 -100 -76 -210 -90 -243 -97 -245 -12
-3 -101 158 -125 223 -11 30 -23 89 -28 130 l-8 75 -50 -65 c-113 -146 -206
-248 -289 -320 -100 -85 -167 -169 -227 -283 -40 -77 -79 -177 -79 -204 0 -26
71 -46 184 -53 96 -5 110 -8 126 -28 10 -12 24 -22 32 -22 70 0 152 -60 169
-122 17 -65 6 -74 -43 -39 -67 47 -92 49 -144 11 -24 -17 -57 -35 -73 -40 -63
-18 -190 26 -276 95 -79 64 -128 72 -189 30 -90 -61 -139 -72 -216 -49 -77 23
-119 14 -209 -45 -88 -58 -172 -91 -231 -91 -44 0 -104 21 -132 47 -13 12 -28
14 -65 8 -58 -8 -86 -25 -135 -79 -40 -44 -44 -39 -27 34 16 73 51 116 110
137 60 21 83 57 52 81 -56 43 -188 57 -260 27 -19 -8 -39 -15 -44 -15 -16 0
-10 32 13 68 32 52 90 74 190 71 78 -2 82 -1 101 25 16 22 18 32 9 51 -6 12
-8 33 -5 45 4 16 -1 28 -18 41 -33 26 -70 24 -114 -6 -20 -15 -40 -24 -43 -21
-11 12 21 91 48 118 23 22 37 28 74 28 54 0 90 -15 111 -46 13 -21 20 -22 66
-17 48 6 58 2 166 -53 l114 -59 102 0 c91 0 109 3 161 28 76 35 136 84 189
155 39 51 42 61 48 133 4 62 10 84 31 111 20 26 69 61 106 74 1 0 -5 17 -13
37 -25 60 -20 111 14 140 16 13 46 28 66 31 34 7 35 8 20 29 -19 27 -19 64 0
97 8 14 14 28 15 33 0 12 -212 8 -326 -8 -156 -21 -154 -21 -154 -55 0 -98
-48 -215 -122 -296 -57 -62 -61 -60 -72 21 -25 179 -90 350 -189 499 -77 115
-114 155 -319 351 -134 127 -284 375 -318 525 l-13 55 -14 -40 c-7 -22 -32
-67 -54 -101 -26 -40 -43 -80 -48 -114 -9 -53 -33 -95 -66 -114 -11 -6 -41
-26 -68 -43 -68 -45 -116 -57 -180 -43 -62 13 -89 26 -67 33 123 38 136 44
157 76 27 39 29 66 8 87 -22 23 -19 40 18 81 18 21 46 59 60 85 15 26 44 60
63 75 19 16 42 40 49 54 10 18 28 30 61 39 26 8 80 35 120 62 39 26 75 48 79
48 5 0 26 -15 49 -34 56 -45 97 -65 151 -73 l45 -6 0 -52 0 -53 43 -11 c78
-19 127 -75 127 -144 0 -32 2 -34 51 -45 65 -15 104 -43 129 -92 l20 -39 55 6
c54 6 57 5 94 -31 l38 -37 36 21 c21 12 44 19 55 16 15 -5 21 1 31 33 11 40
51 81 77 81 21 0 17 12 -16 44 -48 47 -73 111 -78 204 l-5 82 59 0 c33 0 70 7
84 15 14 8 34 18 46 24 44 20 114 147 114 207 0 14 25 79 55 144 30 65 55 126
55 135 0 18 43 105 94 189 20 33 36 66 36 73 0 7 22 59 49 116 27 57 54 123
61 148 6 24 26 80 45 124 58 140 57 180 -15 295 -22 36 -40 73 -40 83 0 9 11
40 25 69 30 62 32 111 5 169 -11 24 -20 52 -20 62 0 28 39 108 76 153 l33 41
103 5 c72 4 118 12 153 26 61 26 65 26 65 7z m-730 -18 c0 -77 127 -91 152
-17 3 9 11 11 31 4 l27 -9 -20 -33 c-38 -63 -120 -90 -180 -59 -53 27 -91 120
-52 130 35 9 42 7 42 -16z m5708 -744 l-3 -97 -33 -8 c-45 -12 -96 16 -100 56
-3 23 7 39 56 87 32 32 64 59 71 59 8 0 11 -27 9 -97z m-528 -633 c46 -12 108
-21 137 -22 43 -1 53 -5 53 -19 0 -10 5 -21 10 -24 12 -8 14 -331 2 -339 -5
-3 -37 26 -71 65 -35 38 -86 83 -114 99 -49 28 -59 30 -162 30 -188 0 -250 17
-299 83 -16 22 -18 31 -8 51 39 87 255 123 452 76z m1163 -900 l517 0 -2
-1237 -3 -1238 -30 -70 c-128 -293 -381 -464 -734 -495 -78 -7 -1388 -10
-4026 -8 l-3910 3 -90 21 c-306 72 -536 270 -620 537 l-25 78 0 1205 0 1204
349 0 c380 0 361 3 361 -56 0 -27 -24 -110 -46 -161 -27 -61 -13 -111 53 -178
45 -47 88 -65 152 -65 73 0 148 32 221 95 106 90 117 88 219 -49 39 -51 139
-162 224 -247 197 -198 255 -284 321 -483 44 -130 80 -198 137 -258 49 -52 59
-58 95 -58 64 0 123 45 204 155 39 52 75 95 80 95 5 0 11 10 13 23 2 12 5 -4
6 -35 1 -47 -6 -73 -34 -134 -19 -41 -35 -81 -35 -88 0 -7 -9 -25 -20 -39 -11
-14 -20 -32 -20 -41 0 -23 -63 -66 -122 -82 -73 -19 -141 -10 -268 38 -117 43
-290 88 -341 88 -19 0 -56 -11 -84 -24 -95 -46 -162 -129 -172 -217 -3 -30
-11 -60 -16 -68 -6 -7 -16 -21 -22 -30 -5 -10 -27 -43 -47 -74 -49 -72 -51
-123 -9 -188 15 -24 40 -55 55 -68 14 -14 26 -33 26 -43 0 -34 65 -162 100
-196 42 -43 67 -52 140 -52 32 0 87 -7 122 -16 74 -19 165 -21 228 -4 25 6 90
32 144 57 94 44 105 46 220 54 67 4 144 14 171 23 80 25 115 20 227 -31 130
-59 222 -68 339 -34 41 11 93 25 117 31 27 7 57 25 82 50 150 150 86 321 -167
447 -53 27 -101 56 -107 65 -17 28 16 76 123 182 174 172 188 177 285 87 115
-107 178 -101 269 26 27 38 68 97 91 133 53 82 92 104 216 124 113 18 148 30
258 85 111 56 134 55 192 -11 68 -79 135 -144 248 -241 108 -93 123 -120 76
-137 -39 -15 -146 -12 -201 6 -27 9 -85 42 -128 75 -127 94 -174 113 -275 113
-154 -1 -250 -49 -326 -163 -28 -44 -34 -62 -34 -108 0 -62 -21 -114 -56 -142
-13 -10 -40 -42 -59 -71 -40 -59 -47 -123 -19 -179 18 -35 98 -121 114 -121 5
0 10 -13 10 -29 0 -17 4 -32 9 -35 5 -4 19 -26 30 -49 27 -56 106 -135 145
-146 17 -4 81 -6 141 -4 95 4 126 10 225 43 165 56 216 62 461 58 l214 -3 76
-36 c127 -61 172 -72 258 -66 222 16 272 38 324 138 37 71 34 131 -11 207 -31
52 -39 87 -24 107 4 6 45 40 92 77 47 36 128 110 180 164 111 116 134 134 177
134 56 0 83 -16 83 -49 0 -15 7 -45 15 -64 24 -59 19 -87 -35 -172 -43 -68
-50 -86 -50 -129 0 -72 48 -149 112 -179 42 -20 48 -27 58 -70 7 -26 16 -50
21 -53 5 -3 9 -14 9 -24 0 -28 59 -103 105 -135 38 -26 43 -26 130 -20 150 11
192 22 293 74 120 61 162 68 278 46 98 -18 143 -16 269 17 97 24 166 20 275
-17 96 -33 164 -40 274 -26 102 12 139 34 186 109 39 62 39 114 1 191 -36 71
-113 143 -209 195 -50 27 -74 47 -78 63 -9 34 0 118 40 388 20 132 36 259 36
283 l0 42 40 0 c22 0 56 6 75 14 38 16 102 79 111 111 4 11 11 22 15 26 5 3
12 25 15 50 14 101 -112 269 -301 401 -94 65 -128 100 -123 124 2 10 46 39
113 73 131 66 236 138 325 221 109 103 108 102 235 96 61 -3 343 -6 628 -6z
m-3049 -831 c33 -17 75 -42 93 -55 17 -13 43 -28 57 -34 25 -9 37 -40 16 -40
-5 0 -10 4 -10 8 0 5 -15 7 -32 6 -83 -7 -261 58 -272 99 -14 55 56 62 148 16z
m249 -119 c13 0 72 -16 130 -35 92 -31 118 -35 205 -35 60 0 135 -8 193 -20
52 -11 122 -20 157 -20 79 0 189 -25 222 -50 24 -18 25 -24 28 -147 4 -134
-10 -202 -57 -286 -59 -107 -51 -99 -109 -94 -61 6 -130 42 -236 123 -88 68
-146 96 -205 102 -62 6 -78 19 -102 87 -40 115 -81 184 -154 260 -40 41 -75
72 -78 68 -4 -3 -7 -2 -7 4 0 6 -11 14 -25 17 -16 4 -25 13 -25 27 0 16 3 18
19 9 11 -5 31 -10 44 -10z"/>
</g>
</svg>
