<?xml version="1.0" standalone="no"?>
<!DOCTYPE svg PUBLIC "-//W3C//DTD SVG 20010904//EN"
 "http://www.w3.org/TR/2001/REC-SVG-20010904/DTD/svg10.dtd">
<svg version="1.0" xmlns="http://www.w3.org/2000/svg"
 width="2048.000000pt" height="2048.000000pt" viewBox="0 0 2048.000000 2048.000000"
 preserveAspectRatio="xMidYMid meet">
<metadata>
Created by potrace 1.13, written by Peter Selinger 2001-2015
</metadata>
<g transform="translate(0.000000,2048.000000) scale(0.192120,-0.192120)"
fill="#000000" stroke="none">
<path d="M1400 9204 c-153 -95 -424 -824 -729 -1966 l-61 -227 0 -150 0 -151
-40 0 c-23 0 -61 -11 -89 -25 -198 -100 -198 -390 1 -489 29 -14 69 -26 90
-26 l38 0 0 -2675 c0 -1901 3 -2689 11 -2727 19 -94 74 -193 147 -267 81 -82
155 -125 258 -151 76 -20 120 -20 4304 -20 4179 0 4228 0 4304 20 107 27 169
63 252 146 78 77 133 175 153 272 8 38 11 825 11 2726 l0 2673 51 6 c158 19
262 187 216 348 -30 101 -135 189 -227 189 l-40 0 0 151 0 150 -61 227 c-288
1075 -537 1767 -694 1929 -64 66 -89 69 -144 14 -154 -154 -397 -816 -676
-1848 l-85 -311 0 -151 0 -151 -3060 0 -3060 0 0 151 0 151 -56 206 c-300
1113 -546 1794 -706 1954 -41 41 -68 47 -108 22z m66 -459 c53 -53 200 -478
374 -1080 74 -255 80 -287 78 -355 l-3 -75 -484 -3 -483 -2 4 92 c4 78 17 135
81 353 171 588 308 977 369 1055 26 33 43 37 64 15z m7787 -17 c55 -74 197
-482 342 -983 96 -332 113 -413 101 -479 l-7 -36 -478 0 c-535 0 -491 -7 -491
73 0 114 310 1121 416 1355 24 52 62 102 79 102 8 0 25 -15 38 -32z m-7034
-1737 c24 -15 -47 -113 -106 -148 l-48 -28 -600 -3 c-330 -2 -614 0 -631 3
-50 9 -120 62 -155 116 -26 42 -30 52 -18 60 19 12 1540 12 1558 0z m7780 0
c12 -8 10 -16 -12 -49 -14 -22 -41 -54 -59 -71 -64 -60 -72 -61 -717 -61 -349
0 -600 4 -621 10 -47 13 -104 62 -137 117 -21 37 -24 47 -12 54 19 12 1540 11
1558 0z m-7690 -282 c73 -11 106 -26 157 -72 99 -86 113 -251 31 -359 -51 -66
-95 -91 -199 -113 l-28 -5 0 -415 0 -415 3058 0 3057 0 -3 420 -2 420 -33 0
c-73 0 -170 70 -213 153 -26 49 -30 157 -9 213 36 94 116 156 225 173 70 12
1637 16 1678 5 14 -4 22 -14 22 -29 0 -33 20 -86 47 -121 12 -17 23 -37 23
-43 0 -7 9 -24 20 -38 28 -36 16 -75 -52 -178 -15 -22 -31 -59 -37 -83 -5 -24
-12 -47 -16 -50 -4 -4 -362 -9 -797 -12 l-790 -5 31 -23 c73 -54 105 -72 127
-72 13 0 24 -4 24 -10 0 -7 193 -10 560 -10 367 0 560 -3 560 -10 0 -5 14 -10
30 -10 23 0 30 -4 30 -20 0 -13 7 -20 20 -20 20 0 20 -7 20 -2552 0 -2522 -1
-2554 -20 -2597 -11 -24 -20 -53 -20 -65 -1 -37 -58 -115 -108 -147 -100 -63
-98 -63 -649 -67 l-503 -3 0 40 c0 30 -4 41 -15 41 -13 0 -15 261 -15 2285 0
1517 -3 2285 -10 2285 -5 0 -10 7 -10 17 0 9 -3 14 -6 10 -4 -3 -14 2 -23 12
-9 10 -31 21 -48 25 l-33 5 -2 -2438 c-2 -1342 -6 -2442 -10 -2446 -4 -4 -22
1 -40 10 -124 66 -58 60 -633 60 l-520 0 -40 -24 c-22 -14 -42 -28 -45 -31 -3
-3 -26 -18 -52 -33 l-48 -28 -2 411 -3 411 -555 -1 -555 0 0 737 c0 818 3 778
-67 917 -43 86 -154 194 -241 235 -223 106 -459 67 -633 -104 -75 -74 -118
-145 -151 -251 -17 -55 -18 -109 -18 -797 l0 -737 -555 0 -555 1 -5 -411 -5
-411 -75 47 c-122 76 -104 74 -650 74 l-486 0 -55 -27 c-29 -15 -56 -30 -59
-33 -3 -4 -14 -10 -26 -14 -20 -6 -22 -2 -27 61 -4 38 -7 1136 -7 2441 0 2266
-1 2372 -18 2372 -10 0 -27 -7 -38 -15 -12 -8 -24 -12 -27 -8 -3 3 -9 -6 -13
-21 -3 -14 -10 -26 -15 -26 -5 0 -9 -266 -9 -625 0 -410 -3 -625 -10 -625 -7
0 -10 -558 -10 -1655 0 -1648 0 -1655 -20 -1655 -17 0 -20 -7 -20 -41 l0 -40
-497 3 c-435 3 -504 6 -548 21 -75 25 -154 84 -189 142 l-31 50 -3 2603 c-2
2602 -2 2604 18 2609 11 3 20 12 20 19 0 8 10 14 24 14 14 0 31 7 39 15 13 12
98 15 568 17 l554 3 83 55 84 55 -790 5 c-435 3 -793 8 -796 11 -3 3 -10 30
-16 59 -6 33 -26 78 -50 115 -47 72 -54 129 -20 160 33 30 56 76 70 140 7 33
17 63 24 67 18 12 1601 9 1675 -3z m5571 -305 c0 -14 25 -76 54 -138 42 -85
71 -129 125 -188 l71 -76 0 -211 0 -211 -2815 0 -2815 0 0 199 0 200 57 53
c55 52 125 149 156 218 28 61 57 144 57 163 0 16 128 17 2555 17 l2555 0 0
-26z m-2386 -3619 c32 -16 71 -44 87 -62 l29 -34 0 -669 0 -670 -290 0 -290 0
0 658 c0 722 -4 673 59 730 66 59 142 83 257 79 77 -2 99 -7 148 -32z m352
-1673 c0 -80 31 -141 87 -173 41 -23 47 -24 257 -23 118 0 297 4 398 9 l182 8
0 -182 0 -181 -1450 0 -1450 0 0 181 0 182 193 -8 c105 -5 289 -9 407 -9 210
-1 216 0 257 23 55 32 85 90 87 171 l1 60 515 0 515 0 1 -58z M1160 5330 l0
-280 280 0 280 0 0 280 0 280 -280 0 -280 0 0 -280z m320 -10 l0 -50 -50 0
-50 0 0 50 0 50 50 0 50 0 0 -50z M8940 5330 l0 -280 280 0 280 0 0 280 0 280
-280 0 -280 0 0 -280z m320 -10 l0 -50 -45 0 -45 0 0 50 0 50 45 0 45 0 0 -50z
M4140 5013 c-102 -92 -177 -348 -196 -672 l-7 -121 1393 0 1393 0 -7 121 c-14
239 -52 418 -117 555 -70 149 -154 193 -234 122 -38 -33 -93 -132 -115 -205
l-13 -43 -907 0 -907 0 -12 43 c-7 23 -29 72 -48 110 -69 132 -144 162 -223
90z m181 -404 c111 -88 104 -115 -29 -126 l-82 -6 0 76 c0 41 3 82 6 91 10 27
39 18 105 -35z m2109 -45 l0 -87 -72 7 c-121 11 -126 43 -21 124 85 64 93 60
93 -44z M2830 4498 l0 -278 280 0 280 0 -2 277 -3 276 -278 1 -277 1 0 -277z
M7274 4771 c-2 -2 -4 -127 -4 -278 l0 -273 280 0 280 0 0 278 0 277 -276 0
c-152 0 -278 -2 -280 -4z M1160 4220 l0 -280 280 0 280 0 0 280 0 280 -280 0
-280 0 0 -280z m320 -5 l0 -45 -50 0 -50 0 0 45 0 45 50 0 50 0 0 -45z M8940
4220 l0 -280 280 0 280 0 0 280 0 280 -280 0 -280 0 0 -280z m320 -5 l0 -45
-45 0 -45 0 0 45 0 45 45 0 45 0 0 -45z M3882 4130 c-50 -20 -52 -44 -52 -532
0 -411 2 -456 18 -488 20 -40 103 -106 144 -116 16 -3 28 -12 28 -20 0 -8 9
-14 20 -14 13 0 20 -7 20 -19 0 -10 7 -21 15 -24 12 -5 14 -113 17 -768 2
-599 6 -763 16 -767 6 -2 12 -12 12 -21 0 -23 78 -113 91 -105 5 3 9 384 9
930 l0 926 -140 -4 -140 -3 0 518 c0 486 -1 517 -17 516 -10 0 -28 -4 -41 -9z
M6720 3623 l0 -518 -140 3 -140 4 0 -926 c0 -530 4 -927 9 -930 12 -8 79 68
87 99 3 14 10 25 15 25 5 0 9 18 9 40 0 22 5 40 10 40 7 0 10 250 10 730 0
723 0 730 20 730 13 0 20 7 20 18 0 13 12 22 39 31 22 6 41 18 43 25 2 8 23
29 48 48 24 18 51 47 60 63 8 17 18 32 23 33 4 2 7 215 7 473 0 274 -4 468 -9
465 -5 -3 -12 5 -15 18 -4 15 -17 28 -37 35 -63 22 -59 58 -59 -506z M2830
3388 l0 -278 280 0 280 0 -2 275 -3 276 -278 2 -277 2 0 -277z M7274 3661 c-2
-2 -4 -127 -4 -278 l0 -273 280 0 280 0 0 278 0 277 -276 0 c-152 0 -278 -2
-280 -4z"/>
</g>
</svg>
