<?xml version="1.0" standalone="no"?>
<!DOCTYPE svg PUBLIC "-//W3C//DTD SVG 20010904//EN"
 "http://www.w3.org/TR/2001/REC-SVG-20010904/DTD/svg10.dtd">
<svg version="1.0" xmlns="http://www.w3.org/2000/svg"
 width="2048.000000pt" height="2048.000000pt" viewBox="0 0 2048.000000 2048.000000"
 preserveAspectRatio="xMidYMid meet">
<metadata>
Created by potrace 1.13, written by Peter Selinger 2001-2015
</metadata>
<g transform="translate(0.000000,2048.000000) scale(0.192120,-0.192120)"
fill="#000000" stroke="none">
<path d="M1890 8473 c-106 -11 -170 -44 -170 -88 0 -56 187 -232 398 -374 l62
-42 10 26 c19 49 11 99 -26 174 -41 83 -37 96 30 86 29 -4 41 -2 51 11 11 15
19 16 76 5 138 -27 429 -140 679 -266 176 -89 187 -93 265 -110 102 -21 109
-21 100 13 -18 72 -122 157 -315 256 -143 73 -387 180 -514 225 -173 61 -479
101 -646 84z M2174 7846 c-149 -54 -250 -113 -330 -191 -132 -129 -158 -231
-113 -435 32 -139 34 -416 5 -520 -57 -205 -143 -349 -305 -511 -127 -127
-237 -209 -515 -387 -261 -166 -316 -205 -387 -275 -101 -101 -146 -235 -135
-407 20 -341 244 -712 515 -854 127 -66 143 -68 481 -67 336 1 1634 19 1745
24 123 6 173 53 161 151 -14 125 -176 370 -388 592 -43 45 -78 84 -78 88 0 3
50 6 111 6 194 0 435 46 614 117 536 211 835 697 785 1273 -43 482 -293 921
-695 1220 -85 63 -241 160 -257 160 -5 0 -8 -11 -8 -25 0 -14 -9 -42 -19 -63
-48 -94 -169 -165 -313 -184 -76 -10 -90 -9 -154 10 -113 34 -372 169 -526
273 -31 22 -67 39 -80 39 -13 -1 -64 -16 -114 -34z m248 -351 c316 -171 436
-215 577 -215 103 0 189 22 280 72 163 88 168 90 200 83 84 -18 260 -175 373
-332 66 -91 133 -221 175 -338 l28 -80 0 -330 0 -330 -29 -79 c-60 -163 -193
-323 -351 -421 -152 -95 -312 -148 -575 -191 -93 -15 -175 -34 -206 -48 -103
-47 -234 -199 -234 -270 0 -62 71 -190 208 -374 69 -93 81 -138 40 -146 -65
-13 -210 -16 -953 -16 -878 -1 -852 -2 -965 55 -76 39 -185 152 -237 247 -72
132 -83 176 -83 347 0 147 0 150 27 181 35 43 93 84 318 229 285 184 387 262
531 406 179 179 280 324 368 530 21 49 52 118 68 152 l30 62 -7 213 c-4 117
-7 283 -8 368 l-2 154 50 38 c68 51 158 87 222 88 44 0 67 -8 155 -55z M2450
7236 c-125 -47 -257 -158 -350 -296 -24 -36 -47 -66 -52 -68 -11 -5 -11 -245
0 -257 5 -6 15 -26 22 -45 23 -59 87 -163 137 -220 151 -171 336 -222 508
-141 101 47 217 167 276 286 44 89 44 91 47 211 4 121 3 122 -31 195 -19 41
-47 90 -61 109 -47 62 -147 159 -189 184 -91 52 -228 71 -307 42z m227 -271
c172 -85 205 -304 68 -442 -73 -73 -170 -99 -265 -73 -182 50 -263 266 -158
421 81 119 225 157 355 94z M3900 7616 c0 -12 340 -230 421 -270 220 -107 929
-283 1438 -356 253 -36 256 -36 411 24 100 39 113 33 -155 71 -627 89 -1230
238 -1944 479 -175 59 -171 58 -171 52z M8755 7300 c-27 -5 -100 -27 -162 -49
-347 -124 -763 -203 -1218 -232 -213 -13 -650 -7 -864 12 l-134 12 -21 -28
c-193 -259 -343 -580 -410 -880 -76 -335 -76 -713 0 -1051 107 -481 372 -917
749 -1232 283 -237 640 -396 1004 -446 144 -21 398 -21 542 0 445 62 859 277
1183 614 100 105 238 281 262 335 17 39 47 462 70 995 15 339 24 59 22 -710
l-1 -765 22 -47 c26 -53 96 -123 144 -143 131 -54 279 -2 351 125 l31 55 3
770 c4 916 -1 979 -86 1199 -81 207 -245 389 -434 482 -41 20 -58 34 -58 47 0
34 -67 222 -109 304 -116 231 -298 436 -487 546 -123 72 -284 107 -399 87z
m191 -285 c195 -58 423 -321 533 -616 12 -31 36 -78 53 -105 31 -47 169 -189
310 -319 73 -68 140 -173 169 -266 18 -57 19 -96 18 -627 -1 -312 -3 -558 -5
-547 -1 11 -7 72 -13 135 -6 63 -18 187 -26 275 -27 286 -52 414 -96 492 -37
64 -91 113 -126 113 -33 0 -108 -76 -141 -142 -27 -56 -60 -221 -97 -488 -68
-503 -80 -531 -287 -739 -596 -597 -1530 -698 -2241 -244 -163 104 -358 282
-469 428 -167 222 -302 520 -358 793 -18 90 -20 137 -20 450 0 312 2 361 20
451 54 269 211 615 307 678 25 17 63 18 478 19 505 0 660 11 1015 70 184 31
574 131 775 199 28 9 157 3 201 -10z M5110 4494 c-116 -17 -176 -30 -244 -55
-512 -186 -771 -740 -586 -1252 80 -220 262 -423 475 -530 552 -275 1212 22
1377 620 18 65 22 107 22 243 1 143 -2 176 -22 249 -60 221 -196 417 -377 546
-75 54 -226 126 -310 148 -106 28 -256 42 -335 31z m285 -314 c197 -50 364
-177 447 -341 l33 -64 3 -225 c4 -263 -3 -298 -82 -418 -66 -99 -152 -174
-261 -228 -124 -60 -204 -78 -350 -77 -139 1 -233 22 -341 76 -153 77 -250
175 -323 327 l-36 75 0 220 0 221 38 77 c102 207 314 343 592 381 55 8 208 -6
280 -24z M2700 4022 c214 -107 365 -217 525 -383 114 -118 164 -181 258 -324
294 -451 474 -1057 567 -1910 5 -49 23 -252 40 -450 39 -464 58 -576 104 -614
42 -35 207 28 309 119 212 190 449 617 617 1115 l48 140 1361 3 c1085 2 1362
0 1365 -10 2 -7 11 -74 21 -148 37 -300 115 -652 190 -870 82 -235 180 -360
282 -360 202 0 562 715 828 1645 82 287 297 1169 344 1417 39 197 86 526 78
535 -21 20 -111 -120 -152 -232 -13 -39 -50 -191 -82 -340 l-57 -270 -1 -280
c-1 -226 -4 -294 -18 -355 -42 -182 -98 -308 -227 -510 -90 -141 -132 -228
-208 -440 -200 -552 -404 -930 -503 -930 -29 0 -75 45 -103 99 -68 131 -136
398 -201 787 -32 191 -41 226 -69 274 -36 62 -117 133 -173 152 -48 16 -2391
24 -2546 9 -115 -11 -156 -31 -234 -113 -58 -62 -79 -99 -121 -218 -64 -178
-183 -449 -248 -561 -110 -191 -261 -383 -323 -408 -83 -35 -101 30 -141 509
-32 375 -57 587 -105 860 -141 811 -413 1415 -813 1807 -123 121 -231 187
-402 245 -82 28 -292 78 -327 78 -9 0 43 -30 117 -68z M8565 3100 c-168 -34
-321 -148 -394 -294 -109 -217 -72 -464 96 -638 172 -177 438 -220 658 -105
81 42 191 154 233 237 85 171 78 374 -21 543 -43 72 -142 164 -221 203 -113
55 -244 75 -351 54z m258 -323 c31 -16 68 -42 82 -58 24 -29 25 -36 25 -160 0
-141 -6 -163 -57 -211 -106 -101 -325 -98 -436 7 -52 50 -67 94 -67 202 0 114
13 143 82 191 71 48 122 62 224 59 75 -2 100 -7 147 -30z"/>
</g>
</svg>
