<?xml version="1.0" standalone="no"?>
<!DOCTYPE svg PUBLIC "-//W3C//DTD SVG 20010904//EN"
 "http://www.w3.org/TR/2001/REC-SVG-20010904/DTD/svg10.dtd">
<svg version="1.0" xmlns="http://www.w3.org/2000/svg"
 width="2048.000000pt" height="2048.000000pt" viewBox="0 0 2048.000000 2048.000000"
 preserveAspectRatio="xMidYMid meet">
<metadata>
Created by potrace 1.13, written by Peter Selinger 2001-2015
</metadata>
<g transform="translate(0.000000,2048.000000) scale(0.192120,-0.192120)"
fill="#000000" stroke="none">
<path d="M10270 8304 c-67 -94 -179 -200 -238 -226 -59 -27 -141 -26 -217 2
-33 12 -91 33 -128 46 -138 50 -253 42 -392 -27 -91 -45 -190 -116 -286 -207
l-67 -62 -58 34 c-252 150 -449 131 -689 -68 -144 -119 -241 -187 -307 -214
-53 -21 -73 -24 -148 -20 -131 6 -242 64 -385 200 -40 37 -75 68 -79 68 -21 0
121 -300 201 -425 294 -455 806 -808 1330 -914 56 -12 113 -21 126 -21 14 0
28 -4 31 -9 4 -5 2 -42 -4 -83 -5 -40 -14 -145 -20 -233 -31 -480 -72 -664
-201 -915 -77 -149 -167 -269 -304 -405 -279 -278 -476 -331 -769 -209 -165
70 -310 162 -906 580 -326 228 -541 376 -1102 756 -481 325 -788 462 -1203
535 -128 22 -617 25 -765 5 -645 -91 -1237 -303 -1828 -654 -385 -228 -715
-481 -997 -763 -286 -285 -469 -550 -521 -755 -52 -206 76 -717 295 -1175 340
-709 883 -1329 1561 -1782 262 -175 672 -389 980 -513 663 -266 1398 -424
2290 -492 229 -17 936 -17 1060 0 811 115 1525 459 2060 992 688 687 1116
1725 1234 3000 69 741 16 1569 -135 2106 l-30 109 33 25 c18 13 71 61 116 105
296 284 489 855 519 1538 3 81 4 147 2 147 -3 0 -29 -34 -59 -76z m-880 -439
c0 -12 5 -13 28 -3 56 22 170 14 287 -22 90 -28 127 -34 205 -34 52 -1 98 -5
102 -11 27 -36 -7 -243 -71 -425 -81 -235 -137 -330 -343 -579 -43 -52 -92
-124 -109 -160 -30 -62 -31 -71 -26 -151 3 -47 17 -132 30 -190 14 -58 37
-175 51 -260 58 -346 59 -361 63 -1055 6 -825 6 -826 -115 -1220 -114 -371
-193 -581 -322 -860 -80 -174 -216 -391 -348 -560 -86 -109 -287 -305 -392
-382 -501 -366 -1144 -551 -2100 -604 -258 -14 -715 -6 -885 15 -772 97 -1453
418 -2190 1031 -214 178 -464 415 -860 813 -198 200 -426 421 -506 490 -80 70
-213 186 -296 258 -177 154 -248 207 -389 285 -127 71 -254 122 -354 144 -170
37 -203 79 -134 172 13 17 24 35 24 39 0 22 130 176 244 289 777 771 1883
1307 2860 1385 247 19 452 9 676 -36 174 -35 338 -92 525 -184 191 -93 350
-191 688 -423 139 -95 338 -231 442 -302 162 -109 368 -252 568 -392 131 -92
476 -318 592 -388 269 -162 458 -225 634 -212 205 16 396 123 627 352 228 226
356 435 456 740 63 195 101 474 114 840 l6 170 -31 55 c-38 70 -165 194 -222
218 -24 10 -73 26 -109 36 -194 52 -332 104 -469 177 -230 123 -451 304 -451
371 0 11 29 31 93 61 58 28 147 85 239 154 185 139 235 165 337 171 68 3 90
-1 204 -37 149 -48 183 -50 255 -16 70 32 202 124 202 140 0 14 43 48 110 88
52 31 60 33 60 12z m-8565 -3614 c199 -48 415 -174 685 -399 63 -53 385 -365
715 -692 711 -706 890 -869 1246 -1135 259 -194 463 -320 739 -458 401 -201
772 -316 1200 -372 354 -47 951 -36 1440 25 1085 136 1794 523 2252 1230 170
263 290 509 497 1025 40 99 20 23 -50 -190 -225 -691 -466 -1125 -883 -1592
-232 -259 -441 -436 -681 -573 -16 -10 -79 -46 -140 -81 -317 -183 -730 -336
-1096 -408 -258 -50 -335 -56 -714 -56 -790 1 -1540 100 -2200 292 -104 30
-220 64 -257 74 -99 28 -445 157 -670 251 -211 87 -609 331 -853 521 -519 406
-928 900 -1206 1458 -109 218 -201 466 -265 706 -40 153 -56 193 -113 286 -22
37 -41 71 -41 76 0 5 24 14 53 20 28 6 61 13 72 15 38 9 191 -4 270 -23z
M2002 4752 c-239 -85 -349 -353 -238 -578 156 -314 598 -306 749 14 30 62 32
75 32 172 0 100 -2 109 -34 175 -44 89 -113 157 -199 198 -58 27 -80 32 -162
34 -73 3 -107 -1 -148 -15z m231 -258 c64 -32 67 -39 67 -136 0 -49 -5 -98
-10 -109 -32 -59 -176 -83 -260 -42 -63 31 -80 64 -80 155 0 66 3 77 24 97 52
49 193 68 259 35z"/>
</g>
</svg>
