<?xml version="1.0" standalone="no"?>
<!DOCTYPE svg PUBLIC "-//W3C//DTD SVG 20010904//EN"
 "http://www.w3.org/TR/2001/REC-SVG-20010904/DTD/svg10.dtd">
<svg version="1.0" xmlns="http://www.w3.org/2000/svg"
 width="2048.000000pt" height="2048.000000pt" viewBox="0 0 2048.000000 2048.000000"
 preserveAspectRatio="xMidYMid meet">
<metadata>
Created by potrace 1.13, written by Peter Selinger 2001-2015
</metadata>
<g transform="translate(0.000000,2048.000000) scale(0.192120,-0.192120)"
fill="#000000" stroke="none">
<path d="M3531 10284 c-235 -177 -440 -566 -566 -1079 l-42 -170 -48 -30 c-26
-16 -295 -195 -599 -396 -303 -201 -605 -398 -671 -439 -146 -89 -319 -174
-399 -194 l-59 -16 -33 30 c-77 67 -186 110 -279 110 -180 0 -374 -128 -461
-304 -37 -75 -39 -85 -39 -170 0 -112 19 -170 86 -271 117 -175 354 -335 745
-504 l121 -52 74 -111 c261 -391 411 -546 598 -620 45 -18 76 -22 161 -22 90
0 115 4 173 27 140 55 280 171 475 394 105 120 136 119 413 -16 231 -113 371
-239 458 -416 63 -126 82 -209 88 -371 13 -343 -80 -657 -374 -1268 -108 -224
-114 -240 -97 -253 26 -19 82 -16 134 8 49 22 55 28 119 109 93 117 258 496
350 801 71 233 84 329 79 579 -5 198 -7 222 -32 300 -87 277 -304 533 -557
656 -158 77 -374 113 -500 84 -81 -18 -204 -87 -351 -198 -156 -115 -204 -144
-277 -166 -122 -36 -193 -19 -451 107 l-205 100 53 18 c199 68 1161 269 1671
349 130 20 192 34 210 47 44 34 64 70 68 125 5 69 -24 122 -84 154 l-43 22 49
32 c94 59 101 72 101 166 0 155 -69 349 -159 447 -91 100 -210 170 -287 171
-43 1 -59 -5 -105 -36 -56 -38 -109 -87 -192 -176 -26 -29 -55 -52 -65 -52
-11 0 -43 17 -73 39 -87 62 -132 81 -192 81 -68 0 -134 -32 -204 -100 -69 -66
-118 -156 -175 -324 -40 -115 -48 -152 -49 -213 -1 -65 2 -79 27 -114 15 -22
54 -58 88 -80 l61 -41 12 99 c23 188 71 363 130 476 80 153 156 142 238 -35
54 -118 130 -428 109 -447 -5 -5 -38 -14 -74 -20 -221 -39 -692 -143 -1092
-241 -114 -27 -211 -50 -216 -50 -5 0 -13 17 -16 38 -21 117 -66 187 -148 228
-27 14 -123 50 -211 80 -199 68 -289 110 -350 164 -90 79 -136 196 -116 294
35 168 212 289 378 259 32 -6 106 -32 164 -56 138 -59 177 -65 265 -38 89 27
244 106 412 211 254 159 1135 752 1178 794 24 22 57 63 75 91 28 43 32 58 30
110 0 33 -3 69 -5 79 -4 28 144 118 437 266 521 264 846 353 1209 330 544 -35
974 -274 1242 -692 156 -242 244 -542 244 -831 1 -250 -33 -794 -61 -982 -51
-353 -119 -646 -239 -1031 -115 -364 -210 -618 -465 -1234 -54 -129 -111 -273
-127 -320 -103 -302 -152 -765 -113 -1067 55 -422 192 -734 415 -946 252 -242
572 -341 1015 -317 258 14 450 48 650 115 731 245 1175 888 1235 1792 25 368
-44 759 -227 1298 -321 945 -377 1166 -405 1612 -31 494 51 993 219 1327 143
285 364 508 626 631 198 93 333 124 579 132 191 6 319 -5 441 -38 93 -25 177
-59 177 -71 0 -47 -83 -124 -172 -157 -97 -37 -274 -128 -358 -184 -345 -232
-556 -517 -640 -863 -20 -82 -21 -108 -17 -344 4 -230 7 -266 30 -361 62 -257
133 -447 296 -788 166 -346 240 -527 336 -823 131 -401 211 -783 255 -1213 8
-73 10 -274 8 -600 -5 -472 -6 -496 -31 -647 -68 -409 -141 -641 -290 -931
-108 -208 -139 -265 -170 -307 -9 -14 -34 -50 -54 -80 -213 -324 -518 -596
-883 -788 -541 -284 -1200 -405 -2029 -373 -939 37 -1633 206 -2163 527 -266
161 -481 364 -633 598 -149 228 -230 457 -281 791 -17 113 -29 147 -70 202
-29 38 -100 89 -137 99 l-27 6 0 -115 c0 -301 83 -644 225 -927 296 -589 880
-1017 1693 -1240 735 -202 1752 -257 2481 -135 671 113 1222 376 1645 785 543
526 844 1217 938 2155 19 190 16 736 -6 945 -64 631 -211 1224 -436 1763 -29
67 -109 241 -180 387 -238 493 -322 782 -323 1110 -1 315 87 544 291 761 131
139 282 242 587 399 184 95 268 148 279 176 14 36 5 67 -29 101 -26 26 -35 44
-35 67 0 119 -236 366 -350 366 -56 0 -98 -16 -212 -79 -59 -33 -125 -65 -146
-72 -47 -14 -80 -1 -194 72 -127 81 -187 95 -256 60 -43 -22 -62 -42 -124
-132 -49 -69 -103 -113 -159 -130 -19 -5 -101 -16 -184 -24 -254 -24 -262 -31
-271 -231 -7 -145 -15 -181 -51 -225 -34 -39 -68 -56 -134 -65 -80 -10 -124
-37 -174 -105 -50 -69 -70 -125 -60 -178 3 -20 29 -76 57 -125 86 -150 76
-206 -63 -340 -89 -87 -108 -116 -116 -186 -9 -78 12 -133 94 -241 82 -109 97
-140 87 -181 -3 -16 -35 -98 -71 -181 -36 -83 -72 -184 -80 -223 -16 -70 -16
-72 9 -125 14 -30 56 -90 94 -134 106 -123 132 -158 162 -222 24 -51 27 -70
27 -158 -1 -82 -8 -126 -39 -250 -66 -256 -60 -278 118 -410 139 -103 182
-146 202 -208 21 -63 16 -100 -37 -257 -67 -202 -49 -273 104 -414 165 -153
168 -223 20 -448 -39 -59 -82 -133 -94 -165 -33 -84 -31 -204 4 -346 28 -111
34 -206 17 -251 -5 -14 -26 -43 -46 -65 -40 -45 -106 -71 -180 -71 -82 0 -140
-19 -188 -61 -53 -47 -81 -103 -130 -259 -63 -203 -99 -265 -172 -300 -74 -36
-160 -25 -384 49 -237 78 -234 77 -268 56 -36 -23 -51 -42 -122 -155 -94 -149
-128 -180 -197 -180 -87 0 -143 44 -232 180 -75 116 -105 153 -154 187 -80 57
-128 52 -268 -28 -114 -66 -143 -74 -188 -51 -46 22 -81 89 -81 152 0 25 7 88
15 140 19 121 19 162 0 235 -32 124 -105 197 -230 229 -145 37 -165 175 -48
329 90 119 98 138 97 242 -1 62 -9 122 -28 192 -17 66 -26 128 -26 177 0 96
23 128 108 152 140 38 193 70 219 132 25 59 28 183 8 327 -18 131 -18 132 2
171 14 28 51 62 134 121 131 94 195 159 233 234 38 78 35 112 -26 226 -45 85
-51 105 -51 155 1 89 45 165 174 304 137 146 174 214 174 319 0 69 -1 73 -47
135 -55 73 -66 114 -50 187 16 76 57 152 129 240 65 80 105 146 117 196 12 49
-19 126 -90 222 -84 115 -104 157 -104 222 0 68 8 88 84 193 83 115 109 182
110 280 1 86 -8 107 -83 197 -53 63 -71 98 -71 138 0 13 33 90 74 172 100 200
116 265 80 336 -44 87 -98 107 -293 107 -75 0 -154 5 -176 11 -52 15 -110 74
-124 126 -6 22 -12 141 -14 265 -2 257 -6 269 -79 289 -55 14 -144 6 -355 -32
-89 -16 -185 -29 -212 -29 -43 0 -53 4 -75 31 -37 44 -49 70 -95 201 -49 143
-84 213 -116 234 -34 22 -166 14 -255 -16 -120 -40 -195 -93 -345 -243 -190
-191 -210 -207 -251 -207 -66 0 -96 35 -220 252 -111 193 -161 248 -228 248
-13 0 -51 -20 -85 -46z m1247 -316 c18 -18 15 -85 -4 -92 -19 -7 -133 11 -155
24 -11 7 -11 14 -3 27 25 42 133 70 162 41z m-1137 -55 c46 -51 108 -141 114
-166 4 -16 1 -30 -11 -42 -19 -19 -331 -171 -371 -181 -21 -6 -23 -3 -23 38 0
74 115 288 188 348 45 37 71 38 103 3z m-414 -2065 c74 -79 159 -337 179 -549
l7 -66 -64 -7 c-34 -4 -141 -21 -237 -37 -96 -16 -178 -27 -183 -23 -25 15 7
260 56 427 72 249 160 341 242 255z m-332 -687 c-6 -5 -32 -12 -60 -15 -48 -6
-49 -6 -25 8 27 16 101 22 85 7z M4520 9199 c-410 -46 -830 -222 -1159 -485
-123 -99 -169 -183 -158 -290 7 -63 46 -143 88 -178 121 -102 257 -99 384 9
l64 55 10 -38 c14 -52 62 -124 103 -155 171 -131 412 -72 501 121 17 36 22 66
22 132 0 73 -4 92 -27 137 -15 28 -32 54 -38 58 -5 3 -10 12 -10 19 0 19 200
55 365 67 77 5 160 14 184 20 85 19 161 91 191 182 16 51 9 152 -15 202 -29
59 -94 119 -150 138 -53 19 -219 21 -355 6z m284 -235 c22 -21 20 -40 -6 -64
-27 -25 -27 -25 -198 -45 -169 -21 -229 -43 -282 -107 -34 -39 -41 -55 -45
-105 l-5 -59 -62 -23 c-109 -42 -239 -106 -342 -169 -56 -34 -106 -62 -111
-62 -4 0 -21 14 -36 30 -32 34 -68 38 -158 19 -43 -9 -55 -9 -63 2 -6 8 -23
20 -39 26 -33 15 -51 56 -37 83 5 10 23 29 40 43 16 14 30 32 30 40 0 45 358
247 575 325 147 53 165 57 165 36 0 -12 6 -15 23 -10 23 6 230 42 282 49 17 2
80 5 142 6 90 1 115 -2 127 -15z M817 7706 c-20 -8 -52 -25 -71 -40 -99 -75
-127 -246 -45 -275 17 -6 36 -8 41 -5 6 4 90 6 189 6 173 -1 179 -1 194 21 18
26 19 85 3 141 -16 55 -99 138 -154 154 -53 15 -109 15 -157 -2z M1667 5140
c-151 -24 -315 -83 -409 -148 -134 -92 -260 -266 -288 -400 -22 -102 28 -122
120 -47 132 108 188 148 248 177 198 97 278 -38 115 -193 -26 -25 -70 -61 -98
-79 -133 -88 -255 -254 -255 -346 0 -96 81 -89 236 18 170 118 269 157 319
124 58 -38 18 -169 -100 -325 -71 -94 -95 -141 -95 -188 0 -58 22 -83 73 -83
63 0 131 45 227 150 159 174 184 196 261 234 214 105 444 82 627 -64 93 -75
93 -75 -86 -75 -127 -1 -173 -5 -244 -23 -265 -66 -451 -210 -556 -430 -39
-83 -49 -167 -21 -185 28 -17 65 1 153 75 189 160 341 216 391 145 46 -66 -14
-164 -169 -277 -101 -73 -164 -138 -211 -215 -84 -141 -63 -225 48 -191 24 7
98 49 164 93 137 91 220 128 270 118 93 -17 61 -148 -86 -350 -94 -129 -111
-195 -60 -241 29 -26 98 -14 163 29 29 19 84 70 122 113 125 141 208 219 266
249 l58 30 0 73 c0 40 7 135 16 210 32 271 1 499 -92 685 -19 38 -34 72 -34
77 0 5 10 12 23 15 35 11 77 56 77 83 0 79 -151 252 -271 311 -171 82 -377 85
-571 6 -40 -16 -72 -23 -90 -20 -33 8 -186 158 -194 191 -3 13 3 55 15 93 26
86 26 153 1 210 -24 52 -25 77 -4 85 31 12 273 6 365 -10 239 -40 466 -148
627 -298 80 -75 133 -144 205 -266 30 -53 73 -116 94 -140 40 -46 86 -119 113
-180 37 -81 42 -137 38 -440 l-4 -295 -28 -60 c-33 -72 -85 -152 -118 -182
-25 -23 -119 -73 -137 -73 -15 0 -14 -6 5 -46 54 -114 248 1 351 209 47 93 62
163 74 333 14 220 -7 477 -56 674 -37 146 -120 335 -207 465 -67 102 -250 287
-350 353 -156 105 -342 183 -526 223 -110 23 -405 34 -505 19z m1011 -1532
c16 -16 17 -496 1 -532 -10 -21 -15 -23 -38 -15 -28 10 -89 63 -133 117 -33
39 -34 67 -8 142 25 72 25 118 -2 196 -30 89 -21 97 123 102 25 1 50 -3 57
-10z"/>
</g>
</svg>
