<?xml version="1.0" standalone="no"?>
<!DOCTYPE svg PUBLIC "-//W3C//DTD SVG 20010904//EN"
 "http://www.w3.org/TR/2001/REC-SVG-20010904/DTD/svg10.dtd">
<svg version="1.0" xmlns="http://www.w3.org/2000/svg"
 width="2048.000000pt" height="2048.000000pt" viewBox="0 0 2048.000000 2048.000000"
 preserveAspectRatio="xMidYMid meet">
<metadata>
Created by potrace 1.13, written by Peter Selinger 2001-2015
</metadata>
<g transform="translate(0.000000,2048.000000) scale(0.192120,-0.192120)"
fill="#000000" stroke="none">
<path d="M9131 9250 c-2 -331 44 -659 125 -898 14 -43 52 -126 83 -187 59
-116 78 -138 313 -361 68 -65 93 -96 124 -159 38 -77 39 -82 39 -184 0 -95 -3
-112 -27 -161 -79 -160 -273 -315 -489 -389 l-56 -19 -64 45 c-235 165 -551
258 -957 283 -185 11 -356 4 -1332 -50 -1525 -85 -1815 -88 -2185 -25 -220 38
-301 64 -391 126 -98 67 -256 218 -328 312 -56 74 -147 219 -141 225 2 2 31
-17 66 -43 81 -60 206 -120 289 -139 85 -20 235 -20 314 0 67 17 206 80 206
93 0 5 -18 11 -40 15 -125 20 -341 113 -461 199 -71 50 -249 205 -249 216 0 3
30 14 67 24 89 23 180 69 239 121 l49 44 -80 6 c-130 10 -290 44 -387 81 -125
49 -231 108 -261 148 -37 49 -209 196 -305 261 -154 104 -305 170 -517 226
-116 31 -125 32 -275 27 -124 -4 -175 -10 -255 -31 -105 -27 -342 -137 -352
-162 -3 -8 -9 -14 -14 -14 -4 0 -59 32 -121 71 -201 127 -390 229 -424 229 -2
0 -4 -7 -4 -15 0 -8 34 -52 75 -97 110 -118 169 -224 190 -339 6 -35 5 -37
-47 -69 -183 -116 -350 -270 -449 -416 -29 -43 -101 -172 -160 -285 -101 -195
-156 -287 -399 -664 -57 -88 -123 -198 -148 -245 -41 -79 -44 -88 -40 -150 5
-85 36 -149 107 -221 91 -91 209 -134 302 -109 37 10 73 40 239 204 271 266
350 316 530 340 220 29 410 117 486 228 26 37 44 48 44 27 0 -19 182 -387 279
-564 222 -405 442 -713 813 -1138 l129 -148 -7 -102 c-8 -120 8 -283 38 -395
11 -42 21 -84 22 -93 0 -9 -53 -59 -126 -118 -460 -370 -805 -704 -940 -908
-124 -186 -320 -611 -388 -842 -71 -237 -69 -272 55 -901 13 -69 29 -179 35
-245 24 -252 74 -409 142 -446 74 -40 311 100 411 243 l40 57 -12 85 c-14 102
-44 223 -67 271 -13 28 -22 35 -44 35 -24 0 -35 13 -93 107 -138 229 -217 417
-219 522 -1 50 6 71 49 157 158 316 397 598 743 876 93 74 97 79 156 195 279
537 354 684 354 693 0 6 -11 33 -25 60 -14 27 -25 54 -25 59 0 6 22 22 49 36
27 13 59 38 71 55 20 28 21 39 16 133 -3 56 -8 179 -12 272 -3 94 -10 174 -15
180 -5 5 -9 16 -9 25 0 29 -66 153 -120 225 -29 39 -103 131 -164 205 -296
357 -460 583 -558 767 -22 43 -47 85 -54 93 -6 8 -60 107 -119 220 -159 303
-216 381 -341 460 -73 46 -117 42 -240 -21 -139 -71 -211 -96 -338 -119 -152
-28 -209 -45 -294 -91 -112 -59 -188 -118 -339 -259 -142 -134 -197 -169 -247
-156 -40 10 -56 33 -56 83 0 51 7 63 200 363 62 96 125 198 140 225 15 28 58
104 95 170 76 133 165 316 165 339 0 8 16 46 36 84 47 94 146 194 270 275 107
69 189 149 223 215 12 23 28 72 35 109 12 56 21 73 48 96 l33 27 10 -31 c21
-61 41 -68 188 -68 211 0 368 -37 525 -122 155 -83 251 -182 370 -380 248
-411 590 -727 968 -893 98 -43 276 -106 300 -106 6 0 17 -21 23 -46 39 -152
133 -221 371 -268 235 -47 298 -51 745 -51 237 1 538 7 670 13 132 7 521 28
865 47 963 52 1103 58 1270 51 276 -12 512 -58 698 -137 264 -112 300 -116
380 -44 l50 45 50 -46 c77 -68 193 -233 192 -271 0 -4 -25 -19 -56 -32 -92
-40 -88 -16 -88 -475 l-1 -401 -31 -95 c-69 -206 -113 -292 -293 -565 -121
-185 -227 -298 -430 -460 -135 -108 -217 -199 -258 -285 -23 -49 -25 -62 -19
-135 22 -297 23 -301 136 -851 l71 -341 -3 -144 -3 -144 -65 -43 c-148 -97
-320 -174 -320 -143 0 5 29 47 64 95 106 142 124 218 86 364 -32 127 -265 795
-299 858 -37 70 -70 110 -131 158 -58 46 -100 48 -131 7 -21 -29 -22 -29 -62
-15 -149 53 -360 195 -507 343 -118 119 -185 213 -230 322 -18 47 -42 86 -65
107 -52 48 -95 44 -290 -24 -244 -85 -298 -102 -461 -145 -269 -70 -560 -124
-829 -153 -215 -23 -262 -26 -515 -36 -317 -12 -322 -13 -678 -232 -108 -66
-253 -152 -322 -191 -250 -140 -516 -322 -665 -457 l-80 -72 -3 47 c-2 31 6
73 24 127 54 162 59 215 25 267 -15 24 -66 51 -96 51 -40 0 -259 -528 -299
-724 -26 -122 -23 -145 28 -214 144 -195 508 -528 761 -697 204 -136 291 -171
576 -234 535 -118 900 -118 957 2 36 75 -58 303 -176 425 l-52 54 -173 -4
c-208 -5 -230 -12 -235 -75 l-3 -41 -96 -7 c-53 -4 -151 -5 -218 -3 -104 4
-129 9 -180 32 -179 82 -473 324 -661 544 -84 99 -118 155 -110 186 8 31 128
144 256 240 197 147 585 400 1002 654 l167 102 198 0 c702 0 1548 167 2052
406 51 24 96 44 100 44 3 0 6 -100 6 -223 0 -290 29 -503 99 -722 53 -167 35
-194 -179 -273 -77 -28 -318 -116 -535 -196 -608 -222 -653 -240 -693 -285
-106 -117 -245 -448 -277 -657 -7 -44 -25 -133 -40 -199 -64 -270 -65 -411 -3
-473 24 -24 28 -24 116 -19 61 3 117 14 166 31 84 29 188 85 215 115 24 26 43
109 57 251 13 137 6 167 -42 177 l-32 6 7 166 c8 180 21 308 37 358 12 37 -24
26 432 124 690 147 1099 265 1216 349 23 17 51 51 66 79 65 129 173 443 215
624 12 53 28 97 34 97 6 0 29 -60 50 -133 49 -168 230 -713 290 -876 25 -69
46 -130 46 -137 0 -7 -28 -28 -63 -47 -217 -122 -992 -721 -1248 -965 -53 -50
-88 -94 -113 -142 -44 -84 -114 -291 -151 -450 -15 -63 -36 -145 -46 -181 -56
-196 -82 -414 -60 -496 17 -63 49 -83 133 -83 39 0 98 7 132 16 82 21 217 86
259 126 31 31 35 41 50 140 10 59 17 145 17 192 0 91 -8 106 -60 106 -11 0
-23 7 -26 15 -4 8 3 88 15 178 21 172 57 306 92 351 47 60 231 168 878 516
624 335 788 434 838 509 12 18 27 57 33 88 16 73 10 110 -95 618 -47 226 -111
539 -143 698 l-58 287 66 39 c209 125 475 371 641 593 158 212 281 453 350
681 103 346 92 731 -28 970 -13 27 -23 50 -21 51 2 1 38 10 82 20 109 25 215
81 327 174 274 227 393 514 345 830 -28 182 -108 386 -214 546 -50 75 -257
289 -481 497 -302 279 -411 457 -455 744 l-14 90 -1 -175z m-6105 -594 c121
-59 231 -135 344 -235 139 -124 284 -226 348 -246 12 -3 22 -11 22 -16 0 -6
16 -44 35 -85 19 -41 35 -84 35 -95 0 -28 -48 -95 -108 -151 -46 -44 -53 -46
-82 -38 -45 13 -127 79 -221 177 -99 105 -165 193 -302 400 -58 89 -128 188
-154 220 -60 72 -84 109 -76 117 15 15 58 2 159 -48z m-21 -4375 c8 -15 -29
-104 -60 -146 -26 -33 -133 -115 -151 -115 -4 0 -35 -18 -70 -40 -111 -70 -76
-2 67 131 211 196 202 188 214 170z m4285 -366 c30 -22 81 -58 112 -78 38 -25
60 -47 64 -64 11 -41 -49 -232 -112 -361 -57 -115 -98 -162 -142 -162 -31 0
-28 28 9 102 30 60 31 66 26 158 -3 52 -15 129 -27 170 -12 44 -23 123 -27
189 l-6 113 24 -12 c13 -7 49 -32 79 -55z m-2860 -1932 c0 -24 -19 -13 -80 44
-104 96 -105 112 -18 220 l52 64 23 -158 c12 -87 22 -164 23 -170z m-2185 194
l69 -33 -115 -37 c-63 -20 -120 -37 -126 -37 -18 0 14 83 42 114 31 34 46 33
130 -7z m3376 -34 l54 -58 -67 -3 c-38 -2 -97 -2 -132 0 l-65 3 32 35 c43 48
86 80 107 80 9 0 41 -26 71 -57z m1213 -1066 c17 -18 50 -55 72 -83 l42 -49
-152 3 c-225 4 -211 -2 -144 65 60 59 113 97 137 97 7 0 28 -15 45 -33z M1445
8166 c-32 -32 -40 -69 -25 -107 26 -62 104 -80 157 -35 23 20 28 32 28 71 0
39 -5 51 -28 71 -39 33 -99 33 -132 0z"/>
</g>
</svg>
