<?xml version="1.0" standalone="no"?>
<!DOCTYPE svg PUBLIC "-//W3C//DTD SVG 20010904//EN"
 "http://www.w3.org/TR/2001/REC-SVG-20010904/DTD/svg10.dtd">
<svg version="1.0" xmlns="http://www.w3.org/2000/svg"
 width="2048.000000pt" height="2048.000000pt" viewBox="0 0 2048.000000 2048.000000"
 preserveAspectRatio="xMidYMid meet">
<metadata>
Created by potrace 1.13, written by Peter Selinger 2001-2015
</metadata>
<g transform="translate(0.000000,2048.000000) scale(0.192120,-0.192120)"
fill="#000000" stroke="none">
<path d="M8422 6800 c-61 -38 -93 -153 -72 -256 7 -33 29 -93 50 -134 114
-227 228 -643 266 -975 21 -182 14 -460 -15 -585 -76 -331 -256 -526 -556
-602 -89 -23 -98 -23 -665 -23 -487 0 -600 3 -740 18 -376 42 -604 101 -855
222 -288 139 -461 277 -950 755 -264 258 -354 336 -500 433 -243 160 -453 229
-695 228 -271 -1 -460 -71 -885 -326 -206 -124 -333 -187 -426 -211 -117 -30
-655 -6 -1134 52 -498 59 -611 65 -708 33 -49 -16 -113 -71 -137 -118 -70
-139 -93 -578 -40 -790 85 -346 353 -599 775 -734 264 -85 448 -111 890 -127
445 -16 589 -62 776 -249 91 -92 170 -206 442 -637 169 -267 271 -407 415
-567 145 -162 375 -366 530 -470 70 -47 66 -26 40 -177 -17 -100 -4 -472 21
-587 51 -240 167 -348 388 -361 160 -8 303 34 459 137 l89 59 85 -82 c257
-246 526 -395 716 -396 121 0 255 49 313 116 95 107 140 302 141 599 l0 120
419 0 420 0 6 -60 c31 -295 129 -443 323 -484 75 -16 195 -14 271 5 85 21 228
89 311 148 l65 46 15 -22 c33 -50 130 -156 186 -204 194 -167 364 -249 539
-261 142 -10 256 22 335 93 120 108 162 274 164 644 0 161 -3 207 -18 265 -12
44 -15 70 -8 73 5 1 50 29 99 62 431 286 667 757 745 1490 16 152 16 671 0
830 -92 903 -424 1610 -1119 2380 -181 200 -544 569 -597 605 -69 47 -126 56
-174 25z m429 -627 c52 -53 97 -97 100 -98 11 0 195 -212 300 -345 381 -482
613 -937 729 -1435 61 -258 60 -248 60 -911 0 -579 -1 -617 -21 -715 -62 -312
-153 -534 -298 -724 -25 -33 -109 -123 -187 -200 -136 -135 -226 -251 -254
-325 -9 -24 -16 -125 -21 -310 -4 -151 -11 -289 -14 -306 -4 -17 -23 -62 -44
-99 -45 -85 -79 -105 -171 -105 -125 0 -250 51 -405 165 -246 180 -302 202
-379 150 l-36 -24 -26 38 c-30 46 -73 165 -74 204 l0 27 -107 1 c-60 1 -205 0
-324 -1 -224 -2 -308 5 -314 24 -1 6 -8 30 -14 54 -15 55 -64 110 -121 136
-41 18 -71 20 -305 24 -283 5 -411 -5 -473 -37 -21 -11 -68 -48 -104 -83 -85
-82 -128 -166 -128 -252 -1 -34 -5 -81 -10 -106 -6 -25 -14 -69 -20 -98 -11
-65 -66 -169 -103 -196 -43 -31 -169 -28 -258 7 -73 28 -229 118 -353 205
-178 123 -245 140 -315 77 l-38 -35 -55 58 c-109 114 -217 275 -268 399 l-25
62 -125 61 c-153 76 -290 157 -290 173 1 7 7 23 15 37 17 30 19 85 4 131 -19
57 -112 170 -206 249 -240 204 -382 348 -507 514 -67 89 -236 343 -356 536
-341 546 -553 724 -950 800 -58 11 -123 20 -145 20 -41 1 -106 27 -112 45 -2
6 29 35 69 65 39 30 95 84 124 119 65 79 144 232 151 292 4 39 0 51 -34 104
-22 33 -66 84 -98 112 -104 93 -54 88 -905 88 -684 0 -748 -1 -776 -17 l-32
-17 -6 37 c-11 66 -7 339 5 366 7 15 26 30 45 36 19 7 34 18 34 26 0 33 67 31
475 -16 393 -46 580 -60 870 -67 307 -7 369 1 525 63 123 49 288 143 363 207
160 136 227 169 446 220 170 40 182 41 351 41 169 1 178 0 250 -28 175 -66
345 -166 515 -300 96 -76 675 -646 675 -665 0 -12 154 -141 260 -217 106 -77
237 -157 357 -218 144 -74 144 -87 4 -93 -242 -11 -430 -110 -514 -271 -35
-66 -37 -75 -37 -166 0 -78 4 -105 23 -148 30 -67 126 -164 199 -201 57 -28
193 -67 235 -67 16 0 23 -6 23 -20 0 -15 7 -20 25 -20 23 0 25 -3 25 -51 0
-108 56 -237 135 -314 101 -98 240 -148 415 -149 232 -1 381 77 518 272 32 44
53 41 88 -15 71 -115 193 -202 335 -239 79 -21 252 -24 329 -5 136 33 266 122
323 221 29 50 52 133 62 223 4 40 11 57 21 57 8 0 14 9 14 20 0 16 7 20 31 20
54 0 172 32 239 64 84 40 162 118 200 198 26 55 30 74 30 154 0 80 -4 98 -29
151 -16 33 -48 81 -70 107 -78 90 -77 109 7 162 84 54 152 113 152 133 0 10
12 29 28 43 127 115 221 275 277 472 39 132 45 198 45 473 0 231 -3 278 -24
405 -25 143 -63 313 -110 483 -25 89 -34 175 -18 175 5 0 51 -44 103 -97z
m-6611 -1733 c-57 -81 -143 -174 -184 -199 -74 -46 -140 -10 -257 142 -39 51
-74 93 -78 95 -3 1 -28 -42 -55 -95 -66 -134 -109 -203 -156 -252 -54 -55 -83
-55 -136 2 -58 60 -78 92 -149 234 l-63 126 -17 -54 c-93 -285 -203 -499 -257
-499 -27 0 -76 61 -122 149 -41 80 -136 320 -151 384 l-7 27 837 0 836 0 -41
-60z m3657 -332 c-3 -8 -6 -5 -6 6 -1 11 2 17 5 13 3 -3 4 -12 1 -19z m323
-71 c58 -14 126 -29 153 -32 75 -11 74 -33 -7 -170 -13 -21 -33 -46 -45 -53
-19 -13 -24 -13 -42 4 -12 11 -37 43 -57 73 -20 30 -67 86 -104 123 -38 38
-68 72 -68 77 0 13 57 5 170 -22z m-4417 -7 c7 0 26 -12 42 -27 16 -16 32 -27
35 -25 2 2 6 -2 9 -9 2 -7 -2 -10 -11 -6 -9 3 -19 2 -24 -3 -21 -20 -133 -15
-141 6 -13 33 30 78 65 68 8 -2 19 -4 25 -4z m4085 -105 c117 -28 215 -93 251
-168 138 -286 -383 -498 -696 -283 -64 44 -113 124 -113 186 1 118 104 219
271 264 71 19 208 19 287 1z m1110 0 c262 -62 360 -277 194 -427 -201 -181
-635 -131 -733 86 -63 138 47 285 254 341 69 18 207 18 285 0z m1110 0 c150
-35 254 -123 277 -234 17 -79 -52 -189 -153 -244 -141 -77 -369 -80 -513 -7
-92 48 -168 144 -169 215 0 119 114 230 276 269 78 19 204 19 282 1z m-625
-39 c-3 -41 -44 -106 -68 -106 -31 0 -93 104 -81 135 5 13 20 15 78 13 l73 -3
-2 -39z m-1021 -522 c157 -47 258 -148 258 -258 0 -159 -209 -286 -450 -273
-413 24 -528 376 -168 518 104 41 248 46 360 13z m1103 2 c110 -29 207 -96
243 -168 95 -191 -129 -382 -428 -365 -110 6 -192 32 -266 82 -82 56 -116 114
-115 197 1 192 298 325 566 254z m-2992 -2061 c82 -40 97 -57 200 -221 57 -92
71 -141 45 -161 -25 -20 -119 -35 -170 -29 -127 17 -147 56 -148 279 0 104 4
157 11 157 5 0 34 -11 62 -25z m3305 -331 c32 -9 27 -31 -8 -39 -16 -4 -32
-11 -35 -16 -4 -5 -43 -9 -89 -9 -69 0 -86 3 -104 20 -27 26 -27 29 1 40 25
10 200 13 235 4z M3126 5378 c-34 -49 -13 -203 40 -294 36 -62 116 -131 192
-167 61 -29 75 -32 167 -32 92 0 106 3 167 32 92 43 160 110 204 198 62 126
58 285 -7 285 -11 0 -73 -21 -137 -47 -114 -46 -119 -47 -227 -48 -108 0 -112
1 -227 48 -65 26 -126 47 -137 47 -11 0 -27 -10 -35 -22z"/>
</g>
</svg>
