<?xml version="1.0" standalone="no"?>
<!DOCTYPE svg PUBLIC "-//W3C//DTD SVG 20010904//EN"
 "http://www.w3.org/TR/2001/REC-SVG-20010904/DTD/svg10.dtd">
<svg version="1.0" xmlns="http://www.w3.org/2000/svg"
 width="2048.000000pt" height="2048.000000pt" viewBox="0 0 2048.000000 2048.000000"
 preserveAspectRatio="xMidYMid meet">
<metadata>
Created by potrace 1.13, written by Peter Selinger 2001-2015
</metadata>
<g transform="translate(0.000000,2048.000000) scale(0.192120,-0.192120)"
fill="#000000" stroke="none">
<path d="M2293 6986 c-161 -52 -276 -247 -292 -495 l-6 -94 -70 -22 c-182 -57
-437 -199 -648 -363 -406 -313 -783 -781 -896 -1110 -28 -83 -27 -93 8 -46 40
55 120 128 234 213 54 40 113 92 132 115 18 22 65 82 105 131 79 100 309 361
440 498 155 164 277 239 510 317 236 78 359 196 397 379 39 188 149 280 226
190 16 -19 40 -59 54 -89 14 -30 32 -70 41 -89 24 -47 135 -154 196 -188 46
-25 59 -28 141 -26 156 2 672 117 740 165 17 11 59 56 95 99 36 42 71 80 77
83 17 7 36 -41 83 -209 162 -581 202 -1250 106 -1795 -31 -172 -30 -158 -11
-135 9 11 37 58 63 105 230 420 400 1126 458 1906 3 51 10 97 14 105 6 9 27
-5 76 -50 37 -34 79 -64 93 -68 16 -4 50 2 89 16 35 12 66 20 68 18 21 -21
101 -398 138 -652 77 -527 87 -1105 25 -1585 -36 -290 -97 -576 -172 -812 -19
-60 -32 -108 -28 -108 13 0 149 222 222 365 290 562 469 1278 569 2272 11 111
20 206 20 210 0 4 14 -9 31 -30 17 -21 48 -46 69 -57 37 -19 40 -25 79 -142
71 -222 124 -463 162 -748 29 -221 37 -656 15 -880 -13 -144 -46 -365 -62
-425 -12 -46 37 29 100 153 206 405 338 926 417 1640 7 61 15 112 18 112 3 0
31 -16 61 -35 70 -45 101 -45 168 1 30 20 56 34 58 31 3 -2 13 -49 23 -103 54
-280 78 -647 62 -931 -11 -193 -31 -369 -57 -503 -8 -41 -14 -82 -14 -90 1
-20 41 44 100 162 172 337 286 739 376 1323 14 94 27 171 29 173 1 1 38 -16
81 -38 96 -50 107 -49 198 27 37 30 69 54 71 52 2 -2 10 -51 19 -109 53 -360
44 -832 -24 -1209 -11 -58 -18 -107 -16 -109 5 -5 67 100 109 183 139 279 253
655 327 1075 18 102 37 189 41 194 6 6 22 3 44 -7 47 -22 72 -21 119 4 47 25
46 27 86 -101 68 -218 131 -532 162 -805 17 -159 18 -713 0 -855 -12 -100 -47
-313 -58 -355 -13 -49 50 49 115 180 202 409 335 952 407 1673 10 94 21 172
25 172 3 0 22 -24 41 -52 19 -29 65 -98 101 -153 38 -57 82 -110 102 -124 19
-13 35 -29 35 -35 0 -7 37 -34 83 -60 293 -172 362 -221 483 -343 129 -131
205 -255 258 -421 l26 -83 0 -764 0 -764 -25 -138 c-81 -439 -218 -816 -390
-1078 -62 -94 -89 -120 -132 -130 -25 -5 -34 -2 -47 16 -20 29 -13 58 37 139
68 111 163 300 207 410 23 58 48 121 56 140 45 112 122 408 149 576 40 244 45
338 45 880 0 512 -1 534 -21 600 -58 191 -208 364 -315 364 -41 0 -113 -59
-159 -131 -37 -58 -52 -115 -90 -346 -53 -320 -159 -868 -199 -1023 -34 -131
-178 -1011 -211 -1285 -8 -71 -19 -166 -24 -210 -6 -44 -21 -141 -35 -215 -26
-141 -54 -332 -106 -710 -26 -186 -36 -236 -60 -288 l-29 -63 -543 3 c-299 2
-551 7 -560 12 -51 24 -11 55 227 174 110 55 227 120 260 144 68 50 131 127
169 207 l26 55 0 277 0 277 -31 61 c-42 81 -127 172 -251 266 -272 207 -502
439 -707 715 -81 109 -182 207 -252 245 -80 43 -137 39 -483 -34 -339 -72
-607 -121 -836 -152 -142 -19 -234 -23 -655 -29 -481 -7 -517 -10 -582 -44
-46 -23 -155 -134 -185 -189 -34 -60 -37 -82 -148 -967 -109 -869 -113 -897
-147 -966 l-26 -54 -461 0 c-421 0 -618 8 -646 25 -22 13 13 35 98 61 259 78
457 227 548 411 63 129 63 128 -65 1413 -139 1382 -138 1373 -166 1430 -28 56
-140 171 -188 194 -67 31 -140 36 -541 36 -634 0 -891 -28 -1354 -146 -218
-55 -267 -62 -305 -43 -12 7 -54 42 -93 80 -64 62 -156 119 -192 119 -20 0
-86 36 -121 66 -18 15 -48 50 -68 78 -46 68 -36 30 28 -99 68 -137 163 -267
302 -411 l118 -122 82 33 c284 114 694 207 1041 235 71 5 349 10 617 10 459 0
489 -1 489 -17 1 -10 63 -634 139 -1388 l138 -1370 -41 -37 c-68 -62 -181
-137 -269 -178 -77 -36 -111 -45 -266 -69 -85 -14 -125 -46 -174 -142 -40 -78
-70 -198 -82 -333 l-7 -76 835 0 835 0 5 33 c3 17 65 516 139 1109 l133 1076
520 5 c573 5 606 7 1020 77 245 41 578 109 814 166 79 18 145 34 147 34 2 0
27 -35 55 -77 262 -390 680 -810 992 -995 l67 -40 0 -277 0 -276 -307 -154
c-170 -84 -339 -174 -376 -198 -198 -131 -266 -284 -191 -425 l29 -53 837 -3
838 -2 4 22 c3 13 12 84 21 158 9 74 50 380 91 680 145 1067 289 1965 438
2740 55 289 82 471 97 660 6 80 12 146 14 148 7 7 86 -137 110 -202 50 -134
55 -180 55 -554 0 -191 -5 -414 -10 -497 -41 -627 -166 -1067 -425 -1501 -99
-165 -114 -199 -115 -265 -1 -116 85 -232 195 -265 100 -29 207 -2 276 69 87
90 286 459 377 699 136 358 208 708 243 1183 8 96 13 348 14 580 0 451 -3 485
-67 685 -123 384 -423 717 -838 926 -52 26 -130 74 -173 105 -202 151 -409
244 -632 285 -173 32 -729 18 -1025 -26 -58 -8 -264 -29 -360 -35 -85 -6 -421
-26 -591 -35 -350 -20 -437 10 -1034 360 -439 258 -852 400 -1310 451 -177 20
-435 18 -525 -5 -41 -10 -169 -43 -285 -72 -243 -62 -444 -106 -617 -134 -68
-11 -126 -20 -130 -20 -5 0 -8 20 -8 43 0 61 -35 191 -70 264 -80 163 -236
252 -367 209z m1905 -688 c-2 -92 -6 -113 -18 -113 -23 0 -49 82 -49 158 l-1
67 35 0 36 0 -3 -112z m1116 -277 c15 -161 -3 -369 -40 -457 -17 -41 -28 -43
-42 -6 -10 25 -16 60 -57 312 -22 141 -28 214 -21 254 l7 35 73 -36 73 -36 7
-66z m3326 -447 c0 -78 -10 -92 -34 -46 -21 40 -26 139 -6 127 6 -3 10 -1 10
6 0 8 4 8 15 -1 11 -9 15 -33 15 -86z M1648 5876 c-119 -33 -208 -146 -208
-267 0 -113 83 -228 189 -264 225 -74 437 154 346 372 -20 47 -90 118 -138
141 -57 27 -132 34 -189 18z M509 4887 c-53 -15 -130 -58 -160 -90 -19 -20
-21 -30 -15 -117 3 -52 15 -131 27 -175 12 -44 22 -93 22 -108 0 -16 3 -24 7
-18 3 7 13 -3 22 -22 35 -74 114 -137 171 -137 23 0 24 3 30 103 15 231 102
401 226 438 23 7 41 15 41 20 0 12 -96 69 -151 90 -67 26 -162 32 -220 16z"/>
</g>
</svg>
