<?xml version="1.0" standalone="no"?>
<!DOCTYPE svg PUBLIC "-//W3C//DTD SVG 20010904//EN"
 "http://www.w3.org/TR/2001/REC-SVG-20010904/DTD/svg10.dtd">
<svg version="1.0" xmlns="http://www.w3.org/2000/svg"
 width="2048.000000pt" height="2048.000000pt" viewBox="0 0 2048.000000 2048.000000"
 preserveAspectRatio="xMidYMid meet">
<metadata>
Created by potrace 1.13, written by Peter Selinger 2001-2015
</metadata>
<g transform="translate(0.000000,2048.000000) scale(0.192120,-0.192120)"
fill="#000000" stroke="none">
<path d="M2299 6987 c-59 -17 -136 -73 -175 -129 -76 -106 -113 -216 -123
-367 l-6 -95 -55 -16 c-76 -23 -218 -85 -314 -138 -517 -283 -1066 -867 -1233
-1312 l-25 -65 74 71 c40 39 117 103 170 143 152 113 260 252 371 478 85 173
121 227 210 309 99 93 202 141 406 190 113 27 306 106 382 157 121 81 199 187
212 288 10 77 46 158 91 205 36 37 49 44 80 44 57 0 106 -58 152 -180 33 -86
43 -101 106 -162 102 -99 113 -100 318 -49 214 52 310 68 505 81 88 7 192 18
230 26 191 41 248 46 420 40 168 -5 369 -29 515 -61 110 -24 195 -34 282 -35
99 0 282 -24 379 -49 169 -45 335 -133 508 -269 138 -110 205 -150 360 -220
184 -82 291 -118 391 -133 73 -10 89 -9 238 20 288 56 459 62 712 26 139 -21
257 -20 546 5 131 11 342 24 467 30 126 5 233 12 237 15 5 3 71 6 147 6 179 0
288 -26 458 -110 227 -112 354 -215 539 -437 111 -133 171 -238 223 -394 l28
-85 3 -1087 c3 -1069 2 -1088 -17 -1107 -11 -11 -21 -35 -23 -53 -3 -30 -6
-33 -38 -33 -33 0 -35 2 -38 35 -2 19 -12 42 -22 50 -18 14 -19 44 -29 470
-13 596 -33 716 -130 817 -42 44 -72 50 -111 23 -76 -54 -131 -179 -201 -455
-26 -104 -61 -242 -77 -305 -52 -200 -187 -1052 -317 -2005 -63 -459 -74 -518
-110 -575 l-25 -40 -468 1 c-524 0 -664 7 -689 32 -15 15 -15 18 2 37 11 12
114 69 230 127 265 133 331 177 398 262 59 75 77 104 77 126 0 8 5 15 10 15 7
0 10 150 10 430 0 239 -4 430 -9 430 -5 0 -11 13 -14 28 -11 52 -136 181 -291
301 -232 178 -453 401 -656 661 -102 132 -162 187 -250 229 -68 33 -82 36
-155 34 -93 -1 -305 -34 -415 -64 -361 -98 -372 -99 -720 -110 -162 -4 -329
-13 -370 -19 -41 -6 -304 -15 -585 -19 -410 -7 -519 -12 -557 -24 -60 -19
-127 -74 -183 -151 -25 -33 -49 -66 -53 -71 -13 -16 -24 -110 -137 -1122 -57
-518 -109 -962 -115 -988 -6 -25 -22 -69 -37 -97 l-27 -51 -540 7 c-298 3
-558 9 -578 12 -20 3 -39 13 -43 22 -10 27 27 49 130 76 269 70 484 234 578
439 37 81 26 280 -98 1769 -63 761 -120 1420 -125 1466 -13 103 -42 158 -124
234 -110 104 -165 117 -478 118 -466 0 -821 -101 -1067 -307 -350 -290 -566
-436 -668 -450 -50 -7 -79 9 -163 88 -71 66 -111 90 -180 109 -64 17 -96 36
-152 88 l-48 45 16 -39 c52 -126 177 -298 329 -453 l112 -114 71 22 c187 56
415 213 687 470 138 131 201 179 303 230 219 110 575 164 927 141 200 -13 235
-19 235 -36 0 -31 270 -3261 275 -3290 5 -29 0 -36 -62 -86 -98 -79 -154 -115
-246 -158 -77 -36 -111 -45 -266 -69 -85 -14 -125 -46 -174 -142 -40 -78 -70
-198 -82 -333 l-7 -76 835 0 834 0 6 38 c3 20 65 583 139 1249 l133 1213 465
0 c509 0 650 8 1035 61 328 44 1001 158 1209 205 61 13 71 13 78 0 18 -32 185
-256 253 -341 235 -289 571 -596 790 -722 l65 -37 0 -416 0 -415 -307 -154
c-170 -84 -345 -177 -390 -207 -125 -83 -193 -171 -209 -270 -7 -49 16 -138
47 -177 l20 -27 834 0 833 0 6 38 c3 20 24 179 46 352 101 789 282 1995 405
2695 78 446 91 514 100 523 3 4 5 -320 4 -719 l-2 -725 22 -49 c65 -146 234
-210 375 -141 59 29 94 64 129 130 l22 41 0 1110 c0 1187 1 1153 -51 1355 -26
100 -101 268 -153 343 -132 193 -322 336 -572 433 -49 19 -143 65 -210 104
-211 120 -345 161 -602 182 -182 15 -406 3 -922 -46 -198 -20 -387 -38 -420
-41 -168 -15 -386 -25 -566 -25 -308 -1 -354 13 -954 305 -470 229 -754 338
-1083 419 -275 68 -524 99 -787 100 l-180 0 -260 -68 c-327 -85 -470 -118
-663 -150 -85 -14 -158 -26 -163 -26 -5 0 -9 20 -9 43 0 61 -35 191 -70 262
-80 164 -227 249 -361 212z M3112 6286 c-145 -36 -289 -151 -356 -285 -66
-130 -80 -251 -46 -385 52 -205 200 -354 405 -406 92 -23 155 -25 246 -6 296
63 490 360 428 658 -41 197 -215 377 -410 423 -77 18 -194 18 -267 1z m249
-288 c139 -58 203 -233 135 -371 -104 -213 -401 -208 -502 8 -58 124 -9 280
111 350 79 47 166 51 256 13z M5045 6281 c-241 -69 -405 -281 -405 -526 0
-166 49 -285 165 -400 221 -220 553 -219 776 4 115 115 163 234 162 397 -2
149 -56 276 -163 384 -72 72 -176 130 -268 149 -76 16 -198 12 -267 -8z m253
-277 c130 -53 202 -209 158 -342 -20 -61 -83 -135 -140 -165 -33 -17 -58 -22
-126 -22 -75 0 -91 3 -132 27 -86 51 -148 152 -148 242 0 126 106 252 230 276
44 9 115 1 158 -16z M1368 5877 c-75 -22 -145 -81 -178 -152 -80 -174 37 -375
229 -392 171 -16 316 132 298 304 -17 167 -188 284 -349 240z M7020 5734
c-254 -55 -440 -287 -440 -549 0 -68 33 -193 67 -258 15 -29 59 -84 98 -123
112 -114 233 -164 395 -164 155 0 288 58 394 171 300 318 139 834 -289 924
-85 18 -140 18 -225 -1z m237 -293 c95 -48 145 -126 151 -237 5 -90 -21 -156
-85 -215 -61 -56 -104 -72 -188 -72 -83 0 -126 16 -185 70 -151 135 -105 387
86 463 64 26 161 22 221 -9z M9015 5744 c-223 -34 -401 -185 -466 -394 -25
-80 -27 -219 -4 -304 49 -185 206 -341 395 -391 70 -19 209 -19 280 0 190 50
345 204 395 391 23 85 21 224 -4 304 -53 170 -184 308 -347 365 -68 23 -190
38 -249 29z m151 -289 c64 -19 128 -73 162 -139 22 -42 27 -64 27 -126 0 -66
-4 -82 -31 -130 -56 -98 -171 -160 -273 -146 -177 24 -286 190 -237 361 14 45
29 69 70 111 79 78 173 102 282 69z M4216 4895 c-147 -41 -285 -153 -350 -285
-38 -78 -66 -186 -66 -255 0 -66 28 -176 62 -245 43 -88 160 -205 248 -248
277 -136 610 -23 743 251 42 86 57 153 57 250 0 246 -174 469 -416 532 -71 18
-211 18 -278 0z m250 -280 c49 -20 120 -90 145 -143 54 -110 16 -257 -85 -333
-61 -46 -119 -63 -194 -56 -70 6 -125 32 -173 84 -51 53 -71 97 -77 169 -16
207 193 359 384 279z M509 4887 c-55 -16 -126 -56 -158 -91 -23 -24 -24 -30
-18 -113 7 -100 45 -260 76 -320 42 -83 115 -143 174 -143 23 0 24 3 30 103
15 231 102 401 226 438 23 7 41 15 41 20 0 12 -96 69 -151 90 -67 26 -162 32
-220 16z M6190 4344 c-211 -45 -387 -218 -429 -422 -72 -347 190 -673 539
-672 269 1 489 181 545 445 18 88 18 132 0 220 -23 110 -68 189 -154 276 -87
86 -166 131 -276 154 -85 18 -140 18 -225 -1z m212 -284 c58 -21 123 -81 154
-140 29 -55 26 -181 -6 -243 -48 -95 -141 -151 -250 -150 -79 0 -124 18 -184
73 -94 87 -118 210 -63 322 66 134 209 191 349 138z M8130 4344 c-250 -54
-440 -289 -440 -544 0 -243 180 -471 420 -535 72 -19 201 -19 274 0 193 51
356 216 401 407 72 307 -120 608 -430 673 -85 18 -140 18 -225 -1z m238 -295
c34 -16 73 -45 88 -62 100 -118 89 -287 -25 -390 -57 -51 -105 -70 -181 -70
-152 -1 -267 104 -278 254 -6 86 14 145 72 207 89 97 208 119 324 61z"/>
</g>
</svg>
