<?xml version="1.0" standalone="no"?>
<!DOCTYPE svg PUBLIC "-//W3C//DTD SVG 20010904//EN"
 "http://www.w3.org/TR/2001/REC-SVG-20010904/DTD/svg10.dtd">
<svg version="1.0" xmlns="http://www.w3.org/2000/svg"
 width="2048.000000pt" height="2048.000000pt" viewBox="0 0 2048.000000 2048.000000"
 preserveAspectRatio="xMidYMid meet">
<metadata>
Created by potrace 1.13, written by Peter Selinger 2001-2015
</metadata>
<g transform="translate(0.000000,2048.000000) scale(0.192120,-0.192120)"
fill="#000000" stroke="none">
<path d="M3054 9201 c-71 -43 -152 -171 -242 -380 -64 -148 -168 -459 -209
-618 -15 -62 -30 -113 -33 -113 -3 0 -16 28 -29 63 -14 34 -66 145 -117 247
-179 357 -325 540 -433 540 -75 0 -175 -146 -259 -375 -76 -209 -169 -575
-208 -825 l-17 -106 -76 -54 c-248 -178 -497 -447 -607 -655 l-39 -75 -57 0
c-75 0 -194 -24 -257 -50 -63 -28 -127 -95 -137 -145 -10 -53 3 -179 27 -271
43 -166 132 -317 255 -435 38 -36 87 -96 109 -134 80 -136 302 -335 537 -481
293 -181 714 -370 1133 -509 196 -64 298 -120 457 -247 348 -281 551 -684 782
-1554 109 -410 191 -806 311 -1503 134 -771 181 -961 274 -1100 46 -69 89 -94
157 -88 149 11 289 162 408 440 162 379 250 891 263 1518 l6 296 126 7 c174
10 378 30 781 76 623 71 667 74 1035 75 220 0 374 -4 435 -13 126 -16 313 -51
329 -61 25 -16 156 -509 311 -1171 62 -261 129 -541 151 -621 101 -380 194
-549 302 -549 181 0 368 502 516 1383 35 202 50 314 102 712 24 192 179 1941
179 2026 -1 240 -67 524 -171 732 -22 42 -35 77 -29 77 26 0 258 109 355 167
309 185 514 401 663 698 254 507 255 1216 3 1739 -227 471 -665 817 -1229 972
-249 68 -464 97 -717 98 -195 1 -217 -6 -292 -86 -113 -123 -90 -314 49 -412
54 -37 60 -38 169 -47 63 -4 175 -13 249 -19 423 -32 792 -178 1032 -408 174
-166 274 -347 335 -602 31 -130 43 -422 24 -575 -41 -318 -189 -593 -419 -774
-166 -130 -325 -210 -574 -285 l-117 -35 -54 23 c-62 28 -239 69 -394 93 -149
22 -457 22 -628 -1 -71 -9 -236 -34 -365 -56 -607 -101 -1027 -140 -1509 -140
-245 0 -375 15 -521 62 -294 94 -540 282 -768 587 -156 209 -300 469 -512 926
-56 121 -122 258 -145 305 -35 70 -49 115 -75 245 -148 737 -370 1363 -519
1462 -41 28 -66 29 -107 4z m84 -418 c50 -71 177 -485 256 -833 82 -362 95
-410 132 -498 58 -135 177 -381 218 -447 20 -33 76 -136 123 -230 201 -399
370 -655 572 -868 257 -271 523 -426 855 -500 95 -21 124 -22 476 -22 510 0
788 25 1415 124 471 75 480 76 720 75 237 -1 319 -12 586 -74 69 -17 148 -30
175 -30 92 0 324 70 456 136 26 13 63 24 82 24 91 0 357 227 499 423 87 123
182 309 228 447 32 98 34 102 37 65 2 -22 2 -92 0 -155 -3 -104 -6 -121 -34
-180 -47 -99 -133 -227 -205 -304 -83 -88 -231 -210 -317 -261 -9 -5 -19 -12
-22 -15 -8 -8 -93 -63 -118 -77 -55 -30 -196 -149 -244 -206 -98 -118 -108
-186 -53 -352 76 -228 75 -218 75 -662 l0 -403 -60 -642 c-32 -354 -62 -677
-66 -718 -8 -106 -59 -489 -95 -725 -91 -594 -229 -1126 -291 -1125 -55 1 -95
125 -228 700 -155 669 -270 1105 -320 1217 -37 81 -162 209 -240 246 -119 56
-376 87 -733 87 -333 0 -507 -13 -1177 -89 -146 -17 -362 -40 -480 -50 -124
-12 -236 -28 -265 -37 -36 -13 -72 -39 -137 -102 -49 -47 -91 -96 -94 -109 -4
-12 -10 -23 -15 -23 -5 0 -9 -9 -9 -20 0 -11 -4 -20 -8 -20 -5 0 -12 -111 -15
-247 -12 -459 -69 -875 -164 -1203 -71 -244 -181 -448 -244 -450 -8 0 -25 10
-36 22 -60 66 -82 164 -228 998 -226 1292 -469 2144 -736 2586 -160 265 -430
545 -631 656 -54 30 -103 46 -239 82 -97 25 -585 218 -762 300 -173 81 -620
308 -677 343 -30 20 -93 74 -140 122 -67 68 -96 90 -138 105 l-53 18 19 22
c30 32 45 68 102 241 91 278 138 356 293 491 26 22 47 48 47 58 0 31 -62 80
-131 104 -73 25 -203 52 -257 52 -33 0 -26 6 75 54 155 75 232 127 349 237 55
52 153 142 216 201 120 112 198 204 229 273 10 22 36 128 59 235 54 256 83
372 127 505 91 282 135 286 278 25 137 -249 188 -317 288 -383 97 -64 134 -57
244 46 76 71 100 118 183 358 76 219 106 291 147 357 39 61 70 69 101 25z
m6178 -408 c9 -8 24 -15 35 -15 10 0 19 -4 19 -10 0 -5 5 -10 11 -10 24 0 178
-112 261 -190 130 -121 268 -314 297 -415 7 -23 11 -86 9 -150 l-3 -110 -24
65 c-107 295 -269 525 -520 740 -35 30 -70 61 -77 68 -8 7 -14 10 -14 5 0 -10
-20 19 -20 30 0 11 10 8 26 -8z m-8509 -1856 c-3 -22 -23 -78 -45 -124 -37
-76 -42 -82 -66 -78 -40 8 -68 63 -74 143 -4 66 -4 69 19 75 50 12 115 23 143
24 28 1 28 0 23 -40z M2215 6991 c-222 -58 -290 -324 -122 -478 104 -96 257
-95 365 2 69 62 96 127 90 220 -5 76 -21 115 -70 171 -59 67 -181 107 -263 85z
M1630 6139 c-205 -17 -430 -73 -536 -135 -29 -16 -46 -36 -58 -64 -21 -52 -20
-65 4 -115 28 -57 64 -75 163 -81 207 -11 473 -97 792 -256 141 -71 319 -171
427 -240 87 -56 139 -68 184 -45 96 50 112 161 32 233 -72 66 -547 323 -728
394 -47 18 -88 36 -92 39 -12 10 168 2 347 -15 173 -17 401 -52 545 -84 113
-25 154 -25 195 0 95 59 79 205 -28 244 -60 22 -330 73 -509 96 -286 36 -528
46 -738 29z"/>
</g>
</svg>
