<?xml version="1.0" standalone="no"?>
<!DOCTYPE svg PUBLIC "-//W3C//DTD SVG 20010904//EN"
 "http://www.w3.org/TR/2001/REC-SVG-20010904/DTD/svg10.dtd">
<svg version="1.0" xmlns="http://www.w3.org/2000/svg"
 width="2048.000000pt" height="2048.000000pt" viewBox="0 0 2048.000000 2048.000000"
 preserveAspectRatio="xMidYMid meet">
<metadata>
Created by potrace 1.13, written by Peter Selinger 2001-2015
</metadata>
<g transform="translate(0.000000,2048.000000) scale(0.192120,-0.192120)"
fill="#000000" stroke="none">
<path d="M1350 8915 c-108 -51 -198 -182 -240 -349 -49 -194 -7 -336 100 -336
124 0 247 -82 313 -207 63 -120 79 -195 84 -398 2 -99 0 -207 -4 -239 l-8 -59
-102 -33 c-289 -93 -603 -291 -838 -528 -129 -130 -205 -232 -260 -348 -55
-116 -69 -186 -61 -308 11 -196 54 -307 155 -403 76 -72 160 -120 413 -236
117 -54 232 -108 255 -119 91 -47 145 -127 180 -267 14 -55 17 -112 17 -270 0
-236 -8 -305 -109 -965 -77 -498 -107 -725 -125 -935 -13 -157 -13 -530 1
-653 40 -373 215 -800 458 -1117 71 -93 216 -239 322 -324 294 -237 643 -382
1084 -448 114 -17 295 -18 3600 -18 l3480 0 73 23 c124 39 192 123 192 236 0
94 -117 202 -385 357 -215 123 -709 350 -995 455 l-102 38 48 41 c183 153 303
279 445 467 294 390 470 842 546 1401 26 188 26 647 0 837 -103 753 -418 1413
-921 1929 -544 556 -1182 862 -2001 957 -198 23 -593 23 -785 0 -375 -45 -713
-132 -1032 -266 -1123 -473 -1954 -1436 -2275 -2638 -29 -108 -36 -156 -37
-227 0 -152 45 -277 139 -383 210 -235 574 -234 780 2 59 67 99 145 125 241
67 248 136 438 228 620 425 849 1208 1416 2132 1541 188 26 512 23 699 -5 318
-48 565 -128 793 -257 377 -212 688 -545 882 -944 69 -142 143 -351 175 -496
89 -403 61 -887 -74 -1234 -96 -250 -230 -445 -433 -632 -402 -371 -984 -500
-1492 -332 -401 133 -690 467 -786 909 -24 110 -24 360 0 470 55 254 177 441
371 571 165 109 324 160 473 151 323 -19 526 -389 422 -766 -28 -99 -78 -194
-144 -276 -66 -80 -74 -120 -29 -154 95 -75 375 -73 582 5 205 77 383 247 492
469 75 154 94 245 93 445 -1 151 -4 175 -31 280 -110 415 -371 759 -709 932
-244 125 -579 181 -892 148 -807 -85 -1472 -692 -1655 -1510 -77 -340 -77
-719 -1 -1058 136 -610 538 -1171 1060 -1478 506 -297 1154 -392 1764 -258
316 70 635 211 929 411 102 69 104 69 115 0 10 -62 58 -121 129 -161 34 -19
139 -67 232 -106 327 -139 530 -245 594 -309 10 -10 53 -39 97 -65 84 -51 134
-92 134 -111 0 -7 -19 -21 -43 -31 -41 -19 -123 -19 -3312 -22 -3389 -3 -3496
-2 -3741 38 -813 133 -1345 614 -1575 1425 -22 77 -23 96 -27 562 -4 549 -5
531 103 1224 93 596 95 613 95 958 0 333 -2 346 -60 483 -34 80 -110 176 -200
252 -25 21 -115 71 -200 113 -85 41 -205 99 -266 129 -123 60 -194 115 -227
178 -19 36 -22 60 -25 193 -4 148 -3 153 23 205 54 108 166 236 315 360 52 44
98 88 102 98 17 46 285 203 502 295 111 46 176 126 176 216 0 44 2 45 113 59
92 11 107 7 107 -31 0 -39 32 -101 68 -131 17 -14 79 -42 138 -62 60 -21 159
-64 220 -96 171 -91 236 -96 293 -24 l22 28 53 -57 c30 -31 70 -81 91 -112
l37 -57 -29 -36 c-41 -51 -63 -96 -63 -129 0 -15 20 -104 45 -198 l45 -170 0
-440 c0 -526 2 -507 -146 -1176 l-54 -245 0 -191 c0 -206 6 -237 57 -318 50
-79 154 -113 139 -47 -55 242 -47 366 44 732 21 85 57 237 80 338 165 747 160
1293 -18 1696 l-26 59 77 461 c108 645 127 832 108 1045 -25 273 -112 470
-273 615 -34 31 -92 71 -128 89 -56 28 -75 32 -140 32 -86 -1 -117 -14 -186
-77 -55 -51 -103 -130 -139 -228 -37 -100 -46 -257 -20 -326 21 -56 44 -70
122 -77 330 -27 463 -459 331 -1077 l-21 -100 -46 43 c-115 107 -319 224 -440
251 -37 9 -100 19 -138 22 l-70 7 14 76 c52 300 74 623 54 791 -32 258 -108
420 -264 566 -135 126 -263 163 -377 109z m198 -283 c51 -23 118 -96 152 -165
30 -62 31 -63 28 -210 l-3 -148 -63 75 c-109 130 -206 212 -289 245 -32 13
-33 15 -33 73 0 133 86 187 208 130z m1093 -10 c52 -32 105 -91 136 -152 25
-49 28 -67 31 -170 2 -63 2 -135 0 -159 l-3 -44 -52 69 c-73 99 -180 196 -268
245 l-75 41 0 49 c0 133 115 193 231 121z m4384 -1791 c739 -99 1324 -384
1805 -877 193 -199 299 -334 424 -543 188 -312 304 -621 381 -1004 25 -127 25
-134 25 -610 0 -445 -2 -491 -21 -592 -62 -332 -180 -658 -316 -873 -142 -224
-215 -319 -385 -500 -99 -105 -195 -220 -299 -359 -85 -112 -466 -292 -789
-372 -184 -46 -303 -61 -516 -68 -308 -9 -586 30 -860 123 -106 36 -321 137
-419 198 -494 305 -853 813 -980 1385 -24 111 -25 125 -25 486 0 385 5 450 47
595 98 338 275 625 521 846 421 376 952 530 1502 435 282 -49 476 -147 664
-335 96 -97 168 -198 235 -332 94 -189 96 -198 96 -524 l0 -285 -37 -79 c-75
-164 -219 -321 -357 -390 -59 -30 -151 -61 -219 -75 -64 -13 -201 -14 -221 -2
-24 15 -16 63 24 156 60 141 65 168 65 390 0 226 -4 248 -72 378 -58 111 -147
200 -254 255 -123 63 -297 68 -461 14 -339 -113 -579 -371 -667 -718 -13 -48
-16 -120 -16 -325 0 -248 2 -269 24 -354 63 -231 197 -465 362 -629 143 -143
296 -237 484 -299 188 -62 252 -72 475 -72 223 0 285 10 480 72 532 171 937
595 1120 1173 64 204 68 235 72 625 3 245 1 384 -7 435 -34 219 -107 443 -215
665 -129 263 -231 410 -419 603 -186 191 -372 326 -611 443 -215 105 -403 163
-675 209 -162 28 -505 38 -676 20 -377 -38 -727 -144 -1048 -317 -710 -381
-1206 -999 -1455 -1812 -66 -213 -89 -259 -174 -344 -47 -47 -145 -95 -218
-107 -80 -13 -192 5 -261 42 -32 17 -80 54 -108 84 l-50 53 0 110 c0 92 5 129
30 218 40 148 127 404 184 543 120 291 337 657 543 915 113 142 408 437 548
549 561 445 1230 722 1900 786 61 5 126 12 145 14 93 11 533 -4 675 -23z"/>
</g>
</svg>
