<?xml version="1.0" standalone="no"?>
<!DOCTYPE svg PUBLIC "-//W3C//DTD SVG 20010904//EN"
 "http://www.w3.org/TR/2001/REC-SVG-20010904/DTD/svg10.dtd">
<svg version="1.0" xmlns="http://www.w3.org/2000/svg"
 width="2048.000000pt" height="2048.000000pt" viewBox="0 0 2048.000000 2048.000000"
 preserveAspectRatio="xMidYMid meet">
<metadata>
Created by potrace 1.13, written by Peter Selinger 2001-2015
</metadata>
<g transform="translate(0.000000,2048.000000) scale(0.192120,-0.192120)"
fill="#000000" stroke="none">
<path d="M6495 10320 c-855 -43 -1544 -173 -1995 -374 -263 -118 -421 -242
-501 -396 -22 -41 -24 -57 -24 -185 0 -175 31 -328 99 -486 11 -26 -158 -44
-404 -44 -240 0 -224 -4 -516 131 -240 110 -319 136 -414 137 -84 0 -138 -18
-183 -60 -73 -71 -17 -137 274 -323 171 -109 228 -152 258 -196 57 -83 -1
-162 -264 -359 -154 -115 -215 -172 -215 -203 0 -23 53 -74 104 -101 156 -82
317 -33 626 190 209 152 219 155 406 163 230 9 489 47 710 105 l71 18 77 -37
c171 -83 298 -111 550 -117 476 -13 1089 81 1701 259 l140 40 155 -5 c455 -16
851 -167 1074 -407 153 -166 246 -375 276 -622 8 -67 10 -770 8 -2523 -3
-2272 -4 -2433 -20 -2480 -38 -112 -117 -194 -226 -236 -72 -28 -256 -38 -341
-19 -86 19 -158 58 -211 117 -80 87 -109 197 -110 403 -1 400 -130 853 -340
1186 -96 153 -164 238 -305 379 -303 305 -656 500 -1090 605 -288 70 -614 81
-926 31 -287 -47 -623 -178 -872 -340 -152 -100 -235 -167 -368 -300 -285
-285 -477 -632 -572 -1036 -40 -168 -57 -301 -67 -520 -6 -134 -14 -218 -25
-255 -58 -193 -212 -289 -447 -278 -77 3 -104 9 -150 31 -78 38 -151 119 -197
220 -79 171 -96 306 -88 712 20 988 201 1717 549 2210 79 112 258 298 361 376
224 169 412 249 902 384 221 60 292 107 302 199 4 35 1 47 -22 74 -116 138
-538 144 -1052 17 -536 -133 -1065 -398 -1517 -759 -135 -107 -431 -404 -540
-541 -318 -398 -539 -847 -671 -1360 -131 -513 -170 -1122 -99 -1555 107 -649
461 -1185 999 -1513 688 -419 1539 -459 2260 -108 477 233 843 609 1050 1078
125 286 185 567 199 944 9 222 36 309 124 395 155 151 509 151 664 0 92 -89
113 -165 127 -451 11 -228 34 -385 82 -565 177 -666 651 -1197 1306 -1465 881
-359 1896 -147 2543 531 329 346 523 766 592 1279 19 147 19 5115 0 5285 -78
679 -363 1278 -832 1750 -527 531 -1214 852 -2040 955 -150 19 -694 27 -945
15z m970 -254 c171 -24 390 -70 534 -111 417 -119 858 -345 1141 -583 127
-107 171 -151 261 -263 43 -51 88 -106 102 -121 113 -122 241 -304 297 -423
71 -151 176 -457 223 -650 l32 -130 2 -2780 c3 -2532 2 -2787 -13 -2860 -50
-246 -137 -461 -270 -667 -79 -121 -123 -177 -218 -276 -288 -298 -673 -498
-1121 -583 -157 -30 -494 -37 -660 -15 -399 55 -776 216 -1070 456 -97 80
-259 251 -327 346 -67 95 -167 272 -207 369 -88 210 -145 484 -161 775 -13
223 -28 301 -84 414 -78 159 -230 298 -376 346 -187 62 -423 35 -574 -64 -90
-60 -210 -197 -257 -291 -49 -101 -79 -246 -79 -388 -1 -295 -97 -686 -233
-941 -132 -249 -302 -450 -522 -617 -211 -161 -509 -300 -780 -364 -308 -73
-684 -75 -994 -5 -300 67 -582 196 -819 374 -115 87 -294 270 -374 381 -141
199 -254 459 -310 715 -22 102 -23 120 -23 610 l0 505 28 156 c150 846 506
1476 1132 2005 317 268 788 531 1185 662 162 54 211 49 133 -14 -210 -167
-399 -355 -517 -513 -318 -427 -512 -1007 -591 -1770 -11 -106 -15 -268 -15
-626 0 -481 0 -483 25 -581 46 -181 127 -326 255 -454 91 -92 162 -134 272
-162 103 -26 207 -21 323 16 95 31 148 64 233 148 145 144 231 360 232 583 0
188 46 477 106 665 212 672 812 1164 1589 1301 188 33 522 33 710 0 670 -118
1207 -498 1477 -1045 123 -247 208 -625 208 -922 0 -249 119 -501 305 -641 75
-58 142 -87 238 -107 212 -44 425 9 567 141 71 66 156 190 196 288 l29 70 0
2575 0 2575 -22 81 c-58 219 -167 416 -324 588 -213 234 -614 399 -1083 447
-194 19 -300 9 -521 -51 -301 -81 -490 -123 -750 -165 -301 -48 -434 -59 -740
-60 -318 0 -323 1 -536 66 -174 54 -197 53 -317 -17 l-33 -19 -87 91 c-52 54
-104 120 -129 165 -59 104 -59 101 -14 122 21 10 51 30 66 44 26 26 26 29 21
123 -3 52 -8 180 -12 283 l-6 188 41 39 c23 22 41 45 41 53 0 14 33 42 110 91
72 47 220 113 362 161 175 60 718 194 833 206 320 32 604 56 865 73 30 2 240
2 465 1 323 -2 436 -6 530 -19z m-4058 -1488 c69 -20 100 -23 273 -23 155 0
214 4 288 20 68 14 98 16 110 8 20 -12 28 -41 15 -54 -12 -12 -121 -26 -303
-39 -171 -12 -250 -33 -374 -99 -48 -25 -70 -32 -73 -23 -3 6 -9 10 -14 6 -5
-3 -9 19 -9 49 0 30 -3 82 -6 116 -5 42 -3 61 4 61 7 0 47 -10 89 -22z M5497
9751 c-100 -51 -155 -128 -164 -230 -10 -110 52 -221 152 -274 60 -32 183 -31
248 3 204 104 199 398 -8 496 -65 31 -173 33 -228 5z"/>
</g>
</svg>
