<?xml version="1.0" standalone="no"?>
<!DOCTYPE svg PUBLIC "-//W3C//DTD SVG 20010904//EN"
 "http://www.w3.org/TR/2001/REC-SVG-20010904/DTD/svg10.dtd">
<svg version="1.0" xmlns="http://www.w3.org/2000/svg"
 width="2048.000000pt" height="2048.000000pt" viewBox="0 0 2048.000000 2048.000000"
 preserveAspectRatio="xMidYMid meet">
<metadata>
Created by potrace 1.13, written by Peter Selinger 2001-2015
</metadata>
<g transform="translate(0.000000,2048.000000) scale(0.192120,-0.192120)"
fill="#000000" stroke="none">
<path d="M1872 10316 c-28 -7 -73 -26 -99 -42 -152 -94 -189 -313 -74 -437 36
-40 66 -53 135 -61 69 -8 89 -17 139 -65 l38 -36 20 24 c21 26 26 92 8 138 -6
15 -46 63 -90 106 -69 67 -78 80 -69 97 17 33 53 35 217 17 31 -3 75 -49 141
-146 31 -47 92 -121 134 -163 l76 -78 -151 0 c-145 0 -365 -17 -527 -41 -156
-23 -280 -59 -400 -118 -41 -20 -78 -37 -82 -39 -3 -2 -17 22 -31 52 -119 258
-337 377 -568 306 -61 -18 -81 -30 -129 -78 -66 -66 -90 -124 -90 -216 0 -127
87 -236 188 -236 84 0 152 -47 198 -135 l29 -55 -23 -38 c-149 -246 -210 -471
-199 -736 13 -319 135 -602 357 -826 182 -185 422 -311 674 -355 112 -19 313
-19 431 0 355 58 727 -51 941 -276 55 -57 113 -189 351 -785 2 -6 -36 -35 -84
-64 -107 -66 -249 -203 -284 -275 -35 -73 -34 -157 3 -213 73 -110 294 -195
543 -209 l101 -6 32 -101 c82 -257 172 -561 170 -572 -2 -6 -41 -40 -88 -76
-142 -108 -223 -225 -223 -323 0 -61 23 -105 80 -156 74 -64 244 -127 397
-147 l59 -7 62 -160 c320 -826 778 -1521 1306 -1981 l97 -84 -19 -50 c-27 -72
-49 -220 -49 -330 1 -219 62 -384 162 -436 48 -25 145 -18 217 16 119 57 252
170 358 305 l31 39 118 -56 c66 -31 177 -77 249 -103 126 -46 355 -115 379
-115 7 0 16 -29 23 -73 35 -217 173 -475 296 -551 104 -64 193 -42 298 72 73
80 156 241 189 366 l22 83 197 6 c196 7 342 22 512 53 49 9 91 15 93 13 2 -2
22 -32 45 -67 24 -35 75 -96 116 -136 271 -272 495 -123 551 367 6 55 8 59 48
79 203 102 406 298 519 500 167 299 203 673 97 999 -103 313 -329 577 -623
725 -181 92 -360 134 -568 134 -150 0 -263 -20 -424 -75 -176 -60 -290 -86
-415 -93 -371 -24 -640 73 -897 321 -211 203 -394 491 -552 864 -89 210 -147
387 -297 901 -510 1752 -760 2357 -1201 2909 -572 715 -1375 1145 -2348 1258
-71 8 -147 15 -167 15 -36 0 -37 1 -43 48 -34 267 -170 495 -347 581 -56 28
-81 34 -150 37 -49 2 -104 -2 -136 -10z m-982 -701 c23 -8 63 -30 89 -49 64
-47 97 -62 190 -89 l80 -23 -72 -54 c-40 -30 -114 -95 -164 -144 l-93 -89 0
59 c0 40 -7 74 -23 106 -25 55 -99 147 -139 174 -55 38 -39 78 37 90 28 4 45
11 45 20 0 17 -2 17 50 -1z m1581 -173 c124 -49 239 -67 239 -37 0 20 9 19
180 -9 547 -92 1047 -301 1455 -611 111 -84 223 -184 380 -339 66 -65 166
-154 222 -198 200 -155 282 -277 344 -513 18 -66 58 -181 90 -255 84 -197 191
-468 239 -605 41 -118 91 -229 168 -372 63 -117 91 -219 112 -411 7 -67 30
-168 65 -290 30 -103 73 -254 95 -337 61 -225 59 -221 133 -334 38 -58 80
-127 93 -153 36 -71 71 -204 85 -319 18 -158 33 -213 104 -357 85 -174 121
-225 264 -376 79 -84 150 -170 206 -254 94 -142 163 -217 233 -255 26 -14 117
-46 202 -71 86 -25 205 -65 265 -89 174 -71 260 -80 450 -52 115 16 170 33
305 90 196 82 321 93 568 50 296 -52 411 -103 586 -260 104 -93 178 -189 231
-299 86 -179 89 -193 93 -448 4 -265 -4 -311 -87 -483 -69 -143 -139 -231
-291 -365 -102 -90 -122 -109 -153 -152 -40 -55 -67 -118 -67 -159 0 -34 -3
-38 -50 -58 -117 -50 -401 -131 -461 -131 -20 0 -30 7 -39 30 -20 48 -85 97
-147 111 -44 10 -82 9 -211 -4 -86 -9 -218 -22 -292 -28 -87 -7 -150 -17 -176
-29 -48 -21 -85 -67 -106 -130 l-15 -45 -114 2 c-179 3 -517 53 -524 77 -38
149 -68 181 -196 215 -144 38 -210 62 -336 122 -67 32 -142 65 -168 73 -94 32
-167 14 -202 -51 -10 -18 -20 -33 -22 -33 -12 0 -187 100 -276 158 -98 63
-285 200 -285 207 0 3 9 19 20 37 52 85 6 182 -170 359 -63 64 -158 150 -210
191 -200 159 -276 258 -374 486 -19 45 -57 121 -84 169 -27 49 -71 126 -97
173 -26 47 -86 159 -133 250 -96 187 -121 228 -219 358 -39 51 -92 134 -119
184 -52 95 -107 155 -152 164 -23 5 -32 16 -49 62 -40 103 -147 462 -140 467
1 2 21 12 43 23 67 34 94 74 94 138 0 109 -66 341 -132 465 -59 111 -162 206
-237 218 -34 6 -37 9 -69 96 -38 101 -166 458 -176 492 -6 19 0 26 44 48 64
32 85 74 76 150 -15 116 -76 251 -194 425 -46 69 -116 187 -154 264 -38 76
-81 156 -95 177 -55 84 -244 200 -409 252 -195 62 -360 76 -604 52 -210 -21
-335 -16 -475 20 -332 84 -622 360 -724 689 -19 61 -21 92 -21 313 0 289 -1
286 107 523 141 312 150 323 285 359 43 12 139 41 215 65 123 40 138 43 141
27 3 -17 7 -17 85 1 115 26 187 31 187 13 0 -7 -3 -15 -7 -17 -21 -9 -128
-156 -161 -220 -35 -69 -37 -79 -40 -180 -3 -91 0 -116 18 -165 48 -129 191
-267 327 -315 68 -23 173 -25 246 -4 65 19 180 98 236 163 23 26 57 80 76 119
34 68 35 76 35 184 0 100 -3 119 -27 174 -33 74 -118 192 -176 240 -75 64
-105 86 -116 86 -6 0 -11 9 -11 20 0 16 6 19 38 15 21 -2 72 -17 113 -33z
m-164 -251 c95 -48 145 -126 151 -237 5 -90 -21 -156 -85 -215 -60 -56 -104
-72 -188 -73 -56 0 -80 5 -121 26 -95 49 -145 126 -152 233 -4 58 0 80 18 123
27 62 101 133 163 156 58 21 159 15 214 -13z m1073 -3511 c0 -32 -1 -33 -24
-24 -16 6 -22 35 -9 47 16 17 33 5 33 -23z m2469 -4357 c70 -40 79 -66 36
-108 -29 -29 -89 -35 -99 -9 -11 29 -7 144 6 144 6 0 32 -12 57 -27z m1650
-607 c18 -22 -7 -56 -41 -56 -29 0 -65 40 -53 60 9 15 81 12 94 -4z M4818
8105 c-57 -21 -94 -53 -155 -135 -220 -293 -646 -568 -1121 -725 -109 -36
-169 -77 -209 -144 -87 -146 -25 -331 134 -397 63 -27 145 -22 253 16 529 182
990 466 1277 788 154 172 192 240 193 342 0 112 -60 204 -164 251 -49 22 -153
24 -208 4z m164 -197 c23 -11 32 -49 24 -104 -8 -60 -19 -78 -105 -178 -119
-139 -326 -310 -519 -429 -291 -180 -648 -328 -794 -330 -62 -1 -70 1 -98 28
-24 23 -30 37 -30 71 0 50 22 72 98 100 527 193 827 381 1131 710 49 53 104
106 121 117 54 34 123 40 172 15z M5426 6514 c-21 -7 -77 -43 -125 -78 -359
-267 -770 -443 -1205 -516 -132 -22 -185 -46 -235 -107 -65 -78 -79 -209 -33
-300 43 -83 153 -153 240 -153 56 0 265 38 406 75 356 92 698 246 1021 461
247 164 298 225 299 359 0 59 -4 78 -29 124 -69 125 -211 182 -339 135z m166
-201 c13 -12 18 -30 18 -70 0 -77 -27 -107 -200 -222 -373 -247 -797 -416
-1200 -477 -121 -18 -181 -11 -221 27 -26 24 -30 34 -27 71 4 53 38 79 130 98
502 100 798 222 1213 500 55 37 114 72 130 78 49 17 136 14 157 -5z M6015
5053 c-87 -16 -109 -28 -203 -115 -352 -324 -741 -522 -1231 -627 -154 -33
-192 -50 -245 -113 -117 -136 -72 -346 91 -424 52 -24 64 -26 143 -21 87 5
238 37 392 81 438 127 897 386 1208 682 118 113 144 161 145 264 0 65 -4 82
-30 129 -32 57 -96 114 -148 130 -41 12 -97 19 -122 14z m92 -215 c8 -6 13
-34 13 -76 0 -80 -15 -107 -107 -188 -195 -172 -478 -349 -733 -460 -264 -114
-639 -210 -744 -190 -69 13 -119 80 -101 136 9 30 67 55 180 79 436 94 846
293 1155 561 117 100 154 128 200 144 47 17 113 14 137 -6z M6535 3861 c-48
-12 -108 -47 -136 -78 -14 -15 -52 -66 -85 -112 -212 -301 -571 -563 -965
-707 -120 -44 -139 -54 -186 -100 -40 -40 -55 -64 -69 -109 -52 -181 77 -355
264 -355 144 0 553 188 829 382 250 176 580 522 659 693 33 69 33 161 0 230
-25 55 -90 119 -141 141 -42 17 -131 25 -170 15z m120 -205 l35 -15 0 -69 c0
-80 -17 -112 -126 -239 -237 -276 -477 -464 -789 -618 -200 -98 -310 -136
-398 -137 -61 -1 -71 2 -97 27 -24 23 -30 37 -30 71 0 59 18 73 164 130 373
145 693 377 935 679 96 120 122 146 166 166 48 22 94 24 140 5z M7343 3250
c-81 -17 -147 -66 -188 -141 -26 -49 -29 -65 -37 -203 -16 -305 -87 -597 -199
-818 -36 -72 -123 -199 -187 -276 -115 -135 -120 -268 -16 -391 73 -87 225
-114 331 -58 63 33 154 135 255 287 208 313 339 735 367 1181 10 155 4 214
-28 277 -51 101 -185 165 -298 142z m125 -212 l24 -8 -5 -283 c-4 -277 -5
-284 -35 -397 -84 -313 -218 -581 -378 -756 -80 -87 -172 -110 -233 -58 -28
23 -31 31 -31 84 0 51 4 64 33 102 231 303 374 709 404 1148 9 126 34 166 118
183 23 4 69 -2 103 -15z M8557 3236 c-117 -44 -187 -141 -187 -261 0 -72 21
-125 80 -203 63 -84 150 -259 189 -379 85 -261 93 -537 24 -823 -29 -121 -26
-167 13 -247 44 -92 133 -145 243 -145 98 -1 167 36 229 120 35 49 71 184 98
372 23 158 15 479 -14 635 -37 192 -90 350 -178 528 -100 201 -209 349 -289
389 -51 27 -156 34 -208 14z m171 -205 c44 -23 66 -46 120 -126 84 -126 171
-323 212 -485 18 -72 20 -110 20 -477 -1 -356 -3 -403 -19 -450 -45 -130 -119
-174 -211 -124 l-35 18 0 429 0 429 -28 100 c-41 146 -108 303 -187 441 -63
110 -70 127 -70 177 0 52 2 55 33 71 44 21 120 20 165 -3z"/>
</g>
</svg>
