<?xml version="1.0" standalone="no"?>
<!DOCTYPE svg PUBLIC "-//W3C//DTD SVG 20010904//EN"
 "http://www.w3.org/TR/2001/REC-SVG-20010904/DTD/svg10.dtd">
<svg version="1.0" xmlns="http://www.w3.org/2000/svg"
 width="2048.000000pt" height="2048.000000pt" viewBox="0 0 2048.000000 2048.000000"
 preserveAspectRatio="xMidYMid meet">
<metadata>
Created by potrace 1.13, written by Peter Selinger 2001-2015
</metadata>
<g transform="translate(0.000000,2048.000000) scale(0.192120,-0.192120)"
fill="#000000" stroke="none">
<path d="M5228 10307 c-87 -37 -148 -80 -219 -154 -274 -286 -303 -737 -94
-1466 78 -271 198 -576 287 -725 45 -76 100 -132 128 -132 115 0 369 597 489
1147 133 611 57 1003 -242 1246 -119 96 -246 127 -349 84z m207 -312 c59 -34
120 -109 150 -182 25 -63 25 -66 25 -357 0 -225 -4 -313 -16 -377 -65 -349
-199 -768 -252 -792 -21 -10 -27 -8 -45 13 -50 61 -99 199 -173 482 -84 324
-94 398 -94 685 0 219 2 250 20 304 31 92 71 148 145 204 78 60 161 67 240 20z
M4634 8570 c-802 -209 -1482 -816 -1793 -1597 -88 -223 -126 -374 -175 -703
-3 -19 -10 -233 -16 -475 -13 -604 -34 -1034 -85 -1815 -42 -630 -120 -1608
-184 -2308 -29 -325 -28 -383 8 -488 118 -336 505 -490 831 -331 96 47 209
161 255 258 36 76 65 183 52 195 -12 12 -121 -82 -169 -146 -95 -126 -197
-191 -335 -212 -196 -31 -390 60 -489 227 l-29 50 -3 225 c-3 193 2 284 32
635 105 1202 186 2372 206 2965 6 157 14 375 20 485 5 110 9 287 10 393 1 443
77 793 251 1147 135 276 282 480 517 719 292 296 583 474 1027 626 103 36 125
47 158 83 21 23 45 54 53 70 14 26 13 27 -8 27 -13 -1 -73 -14 -134 -30z
M5880 8580 c10 -19 66 -77 107 -110 11 -9 82 -38 158 -64 296 -102 563 -246
786 -423 84 -67 113 -98 266 -273 276 -317 442 -592 546 -908 99 -299 126
-474 136 -870 4 -200 11 -316 18 -320 6 -4 13 -96 17 -242 20 -711 124 -2233
236 -3474 12 -125 20 -299 20 -409 0 -205 2 -195 -62 -324 -77 -157 -296 -250
-499 -213 -129 24 -226 96 -370 275 -32 41 -68 75 -86 81 l-30 11 9 -46 c23
-127 72 -218 167 -311 83 -82 161 -126 272 -155 87 -23 249 -16 336 15 164 57
306 199 363 363 36 102 39 165 19 382 -107 1154 -201 2415 -243 3255 -25 490
-27 529 -36 975 -10 462 -22 591 -77 815 -232 956 -976 1719 -1911 1961 -138
35 -157 37 -142 9z M3420 5594 c-118 -32 -212 -110 -268 -222 -36 -73 -37 -80
-37 -181 0 -98 2 -111 32 -173 165 -350 670 -306 778 67 66 224 -90 471 -324
515 -71 13 -114 12 -181 -6z m200 -322 c20 -16 26 -29 28 -72 4 -75 -3 -98
-41 -120 -39 -24 -78 -25 -139 -4 -62 21 -81 44 -86 107 -3 45 -1 55 20 74 48
45 166 53 218 15z M7050 5599 c-175 -34 -315 -195 -327 -377 -23 -326 319
-548 608 -396 83 44 140 104 183 194 29 60 31 73 31 171 0 101 -1 108 -38 181
-86 175 -266 264 -457 227z m180 -326 c28 -16 30 -22 30 -76 0 -73 -11 -94
-63 -118 -80 -36 -174 -14 -197 47 -17 44 -12 109 9 128 52 47 159 56 221 19z
M5110 5324 c-19 -2 -78 -9 -130 -15 -368 -42 -743 -167 -1002 -335 -62 -40
-68 -47 -68 -77 0 -74 -74 -137 -162 -137 -44 0 -49 -3 -107 -66 -300 -327
-337 -750 -98 -1106 246 -366 767 -644 1352 -724 72 -9 131 -18 133 -20 2 -1
-17 -63 -42 -138 -162 -483 -278 -1014 -306 -1398 -34 -458 95 -770 375 -909
184 -91 367 -90 554 2 98 48 197 140 254 235 42 70 91 209 108 309 17 100 14
367 -5 520 -45 359 -161 852 -291 1239 -25 76 -45 139 -43 141 2 1 48 8 103
14 625 76 1184 386 1417 786 200 345 150 739 -133 1049 -60 65 -62 66 -112 66
-87 0 -143 48 -154 131 -6 38 -11 45 -76 87 -191 123 -465 231 -727 287 -195
42 -335 56 -570 60 -129 2 -251 1 -270 -1z m145 -158 c242 -1 494 1 560 4
l120 5 125 -58 c366 -168 724 -404 947 -622 l102 -100 -6 -143 c-4 -82 -2
-147 3 -150 11 -9 64 -107 64 -120 0 -26 -205 -88 -405 -121 -370 -62 -833
-91 -1435 -91 -629 0 -1114 33 -1486 100 -177 32 -354 88 -354 111 0 5 14 37
30 71 29 59 30 67 30 199 l0 138 62 67 c208 221 646 512 1018 674 89 38 118
47 148 42 20 -3 235 -6 477 -6z m-1295 -1485 c249 -38 579 -66 933 -77 198 -6
217 -6 217 9 0 15 22 17 220 17 198 0 220 -2 220 -17 0 -15 18 -16 208 -9 370
12 702 40 962 81 80 12 149 19 154 14 25 -23 -28 -101 -132 -193 -85 -75 -171
-130 -297 -193 -177 -89 -304 -130 -648 -211 -48 -12 -103 -30 -121 -41 -48
-30 -85 -89 -98 -158 l-11 -60 -60 -7 c-76 -8 -306 -6 -372 2 l-50 7 -6 56
c-9 81 -61 151 -135 180 -16 6 -87 24 -159 39 -394 87 -675 213 -885 397 -128
112 -173 205 -90 188 14 -2 81 -13 150 -24z m1482 -1041 c51 -63 183 -546 253
-923 23 -129 25 -159 25 -458 0 -314 0 -321 -25 -390 -46 -132 -124 -213 -241
-249 -193 -59 -392 19 -478 187 -50 99 -56 149 -56 441 0 243 3 286 25 414 63
367 192 857 252 960 24 41 49 48 148 43 66 -3 82 -7 97 -25z M3562 1259 c29
-158 142 -313 290 -397 197 -113 489 -89 653 54 38 33 39 35 21 49 -36 28 -96
28 -186 0 -171 -52 -333 -41 -451 30 -55 34 -84 63 -218 223 -37 44 -96 92
-113 92 -3 0 -1 -23 4 -51z M7061 1284 c-17 -14 -59 -62 -95 -107 -117 -149
-192 -202 -327 -232 -99 -21 -191 -17 -319 16 -89 22 -171 22 -193 0 -27 -27
129 -124 250 -155 77 -20 211 -20 288 -1 178 46 338 186 404 353 23 58 42 152
30 152 -4 0 -21 -11 -38 -26z"/>
</g>
</svg>
