<?xml version="1.0" standalone="no"?>
<!DOCTYPE svg PUBLIC "-//W3C//DTD SVG 20010904//EN"
 "http://www.w3.org/TR/2001/REC-SVG-20010904/DTD/svg10.dtd">
<svg version="1.0" xmlns="http://www.w3.org/2000/svg"
 width="2048.000000pt" height="2048.000000pt" viewBox="0 0 2048.000000 2048.000000"
 preserveAspectRatio="xMidYMid meet">
<metadata>
Created by potrace 1.13, written by Peter Selinger 2001-2015
</metadata>
<g transform="translate(0.000000,2048.000000) scale(0.192120,-0.192120)"
fill="#000000" stroke="none">
<path d="M3210 9489 c-920 -45 -1760 -308 -2195 -687 -135 -117 -213 -223
-306 -415 -321 -670 -446 -2008 -344 -3697 80 -1314 279 -2607 457 -2967 134
-269 440 -534 772 -668 196 -78 407 -114 561 -95 154 19 249 68 335 172 131
156 123 210 -67 453 -180 232 -320 477 -368 647 -114 405 -89 1144 65 1893 38
184 62 285 70 285 3 0 21 -89 39 -197 48 -290 99 -520 236 -1068 247 -981 288
-1191 305 -1573 14 -309 42 -459 115 -619 169 -367 523 -523 1190 -523 816 0
1171 229 1281 825 10 59 17 163 20 300 2 116 7 209 11 209 97 -19 850 -34
1015 -21 l27 2 5 -205 c8 -396 84 -627 266 -811 177 -179 396 -260 780 -290
170 -13 497 -7 645 12 215 27 415 98 551 194 240 172 363 494 364 954 0 284
120 713 436 1561 80 217 167 455 193 527 25 73 49 133 54 133 4 0 7 -16 7 -35
0 -19 7 -139 16 -267 8 -128 19 -388 24 -578 5 -238 12 -357 21 -384 18 -53
89 -129 146 -157 71 -33 162 -32 236 4 60 30 95 65 130 131 21 40 22 50 20
336 -5 992 -142 2061 -383 2981 -21 81 -44 184 -50 230 -82 622 -291 1173
-602 1587 -502 668 -1313 1068 -2413 1191 -301 34 -475 43 -830 43 l-339 0
-36 28 c-114 90 -413 245 -615 318 -376 136 -810 217 -1300 242 -222 11 -304
11 -545 -1z m880 -238 c308 -38 572 -95 815 -176 158 -53 278 -104 540 -230
193 -93 202 -96 250 -90 28 4 58 8 69 8 23 2 91 -120 176 -321 113 -265 187
-514 235 -792 33 -188 45 -526 26 -712 -49 -468 -235 -900 -567 -1313 -390
-484 -920 -800 -1566 -934 -298 -62 -491 -80 -968 -90 -409 -9 -439 -14 -517
-70 -136 -98 -64 -351 129 -456 50 -27 60 -29 288 -42 400 -24 761 -8 1065 47
918 166 1628 711 2080 1595 373 729 394 1522 64 2352 -85 214 -212 459 -342
661 -26 40 -47 74 -47 77 0 11 55 4 153 -19 82 -19 151 -26 347 -35 333 -15
410 -22 410 -35 0 -8 42 -16 118 -24 181 -18 470 -68 651 -113 1045 -259 1694
-803 2014 -1689 85 -235 125 -392 177 -695 17 -99 55 -281 85 -405 153 -633
257 -1240 277 -1610 5 -102 12 -481 14 -843 l5 -659 -23 4 c-18 2 -24 10 -26
35 -2 18 -12 39 -22 46 -18 12 -20 37 -30 308 -19 533 -49 691 -157 810 -39
43 -80 69 -111 69 -33 0 -110 -57 -157 -117 -75 -96 -146 -250 -278 -603 -184
-492 -262 -721 -322 -945 -80 -302 -114 -495 -115 -655 -1 -173 -34 -377 -82
-500 -31 -79 -99 -180 -149 -224 -173 -148 -499 -217 -959 -203 -363 12 -559
56 -722 164 -189 124 -274 335 -285 705 -3 93 -9 168 -14 168 -5 0 -9 9 -9 20
0 11 -4 20 -10 20 -5 0 -10 6 -10 14 0 44 -143 178 -208 195 -35 9 -624 27
-847 25 -81 0 -107 -4 -140 -21 -55 -29 -174 -140 -181 -169 -3 -13 -10 -24
-15 -24 -5 0 -9 -9 -9 -19 0 -11 -4 -22 -8 -25 -5 -3 -12 -83 -15 -178 -9
-260 -56 -444 -148 -579 -99 -147 -272 -233 -555 -276 -140 -21 -601 -24 -749
-4 -240 31 -428 105 -533 209 -137 135 -195 321 -212 677 -19 389 -63 618
-310 1615 -185 746 -196 785 -274 1005 -60 167 -92 230 -135 266 -46 37 -86
38 -137 1 -134 -98 -196 -246 -258 -622 -51 -308 -56 -382 -56 -899 0 -475 0
-486 25 -606 57 -285 168 -507 435 -874 56 -77 61 -87 58 -129 -3 -38 -9 -50
-38 -73 -126 -101 -451 -68 -735 74 -297 148 -502 360 -588 607 -132 377 -267
1236 -364 2315 -27 299 -27 303 -31 1380 -4 1141 -2 1191 43 1550 108 838 290
1295 613 1533 395 292 1081 498 1867 562 61 4 274 7 475 5 290 -3 399 -8 530
-24z m1723 -3776 c-26 -41 -52 -83 -58 -93 -20 -35 -90 -129 -165 -217 -116
-139 -229 -249 -395 -384 -234 -191 -581 -359 -929 -451 -285 -75 -512 -100
-891 -100 -351 1 -507 11 -569 39 -55 24 -79 63 -53 88 13 14 64 17 354 24
556 13 861 51 1217 154 524 150 975 433 1328 832 52 59 111 129 130 154 19 25
44 55 54 68 l19 22 3 -31 c3 -23 -9 -49 -45 -105z M2033 6805 c-122 -33 -214
-108 -268 -219 -126 -254 33 -557 311 -594 185 -24 352 65 435 233 32 66 34
75 34 175 0 97 -2 110 -32 172 -89 188 -289 284 -480 233z m208 -298 c33 -22
34 -24 37 -101 3 -94 -8 -117 -73 -141 -82 -32 -195 -1 -223 60 -19 41 -15
139 6 158 38 34 77 47 148 47 57 0 78 -4 105 -23z"/>
</g>
</svg>
