<?xml version="1.0" standalone="no"?>
<!DOCTYPE svg PUBLIC "-//W3C//DTD SVG 20010904//EN"
 "http://www.w3.org/TR/2001/REC-SVG-20010904/DTD/svg10.dtd">
<svg version="1.0" xmlns="http://www.w3.org/2000/svg"
 width="2048.000000pt" height="2048.000000pt" viewBox="0 0 2048.000000 2048.000000"
 preserveAspectRatio="xMidYMid meet">
<metadata>
Created by potrace 1.13, written by Peter Selinger 2001-2015
</metadata>
<g transform="translate(0.000000,2048.000000) scale(0.192120,-0.192120)"
fill="#000000" stroke="none">
<path d="M6780 9609 c-157 -61 -286 -88 -530 -113 -312 -33 -577 -39 -1333
-33 -743 7 -834 4 -1037 -29 -999 -164 -1765 -821 -2005 -1720 l-28 -101 -59
-7 c-159 -16 -472 -106 -678 -193 -412 -176 -681 -392 -656 -528 6 -31 24 -55
84 -115 218 -217 789 -497 1420 -696 8 -2 21 -23 30 -46 34 -92 161 -329 234
-438 109 -163 194 -266 338 -411 200 -200 415 -359 649 -478 l117 -60 13 -67
c17 -92 98 -335 156 -467 267 -606 795 -1128 1442 -1425 116 -53 352 -142 377
-142 9 0 33 -39 60 -96 78 -164 222 -368 404 -570 l91 -102 -210 -208 c-238
-237 -263 -273 -263 -378 1 -115 72 -221 177 -261 58 -22 164 -17 222 10 23
11 91 71 160 142 66 68 124 123 127 123 4 0 1 -21 -7 -47 -24 -80 -19 -162 13
-224 33 -63 103 -121 169 -139 56 -16 149 -8 199 18 39 20 102 81 123 119 5
11 69 217 142 458 118 396 131 445 126 495 -8 96 -63 176 -151 223 -37 19 -57
22 -196 23 -127 1 -168 5 -225 22 -96 29 -219 93 -289 150 -32 26 -69 56 -82
66 -23 19 -24 19 -43 2 -35 -32 -45 -80 -31 -147 7 -33 11 -61 9 -64 -2 -2
-18 7 -34 21 -17 13 -82 65 -145 116 -105 83 -214 173 -249 204 -11 10 1 9 49
-2 109 -25 323 -62 395 -68 39 -3 115 -10 170 -16 248 -24 761 -1 1020 46 28
5 34 1 65 -48 83 -128 303 -356 487 -505 62 -50 70 -60 60 -75 -7 -9 -84 -111
-172 -225 -191 -248 -210 -283 -209 -373 2 -77 21 -125 72 -182 106 -117 294
-118 403 -2 20 22 71 86 114 144 43 58 82 109 86 114 4 5 5 -31 2 -81 -5 -75
-3 -96 14 -134 28 -62 72 -110 130 -139 65 -34 188 -35 248 -3 62 32 121 102
139 164 19 62 146 864 146 919 0 91 -64 191 -149 234 -73 37 -116 40 -212 15
-69 -18 -100 -21 -172 -15 -206 14 -357 80 -553 241 l-32 26 -17 -44 c-9 -25
-20 -69 -23 -98 -5 -41 -11 -55 -25 -57 -10 -2 -73 21 -141 52 -67 30 -134 58
-149 61 -15 4 -27 10 -27 14 0 4 60 20 133 36 726 155 1374 472 1967 964 247
205 637 627 694 751 59 131 -6 305 -139 366 -65 31 -104 30 -282 -5 -167 -33
-377 -65 -533 -81 -167 -17 -514 -32 -538 -23 -19 7 -11 16 73 82 360 280 710
682 967 1111 403 671 644 1463 724 2380 20 233 14 273 -58 355 -53 60 -105 84
-181 85 -96 0 -147 -31 -241 -149 -293 -367 -710 -690 -1191 -926 -503 -246
-981 -370 -1661 -430 l-71 -7 -6 154 c-11 303 -83 575 -234 886 -25 51 -44 94
-42 96 61 42 155 126 225 199 225 235 349 515 264 592 -29 26 -72 21 -178 -20
-51 -20 -139 -46 -195 -60 -95 -22 -287 -55 -287 -49 0 1 37 28 83 60 103 72
285 255 355 356 98 143 165 314 149 378 -16 66 -63 81 -147 49z m-680 -389 c0
-18 5 -20 33 -16 17 3 64 8 102 11 39 3 103 10 144 16 123 18 121 4 -17 -170
-103 -130 -142 -202 -142 -260 0 -33 8 -48 50 -94 56 -61 133 -117 162 -117
10 0 23 -11 28 -24 8 -21 17 -25 57 -28 47 -3 48 -3 46 -36 -1 -33 -19 -63
-122 -207 -28 -38 -65 -98 -82 -133 -43 -85 -38 -120 51 -357 100 -264 126
-374 134 -560 5 -98 12 -160 22 -179 8 -16 14 -36 14 -44 0 -21 75 -110 138
-162 77 -65 117 -83 197 -88 184 -11 747 86 1141 197 548 156 1173 528 1583
944 52 53 98 94 102 91 4 -2 28 21 54 51 46 53 100 95 124 95 8 0 11 -53 11
-181 0 -200 -16 -327 -90 -704 -21 -110 -48 -248 -59 -306 -35 -181 -138 -473
-266 -760 -82 -182 -203 -399 -323 -579 -203 -304 -294 -412 -658 -774 -191
-191 -226 -230 -254 -287 l-32 -67 25 -54 c34 -74 125 -171 191 -203 74 -36
187 -47 361 -35 187 14 364 35 575 70 232 39 244 39 248 17 2 -10 1 -29 -2
-42 -17 -67 -290 -360 -511 -549 -422 -360 -838 -602 -1367 -794 -91 -33 -214
-85 -274 -115 -178 -89 -194 -92 -381 -89 -98 1 -221 -4 -315 -14 -84 -8 -324
-20 -533 -25 -209 -5 -414 -12 -455 -15 -117 -9 -214 16 -383 98 -78 39 -191
89 -252 113 -392 153 -711 360 -986 642 -183 187 -283 322 -409 552 -74 133
-121 247 -180 431 -26 80 -60 160 -82 196 -58 93 -175 198 -314 283 -182 110
-317 215 -471 368 -197 194 -329 376 -473 648 -35 66 -80 145 -100 175 -80
118 -133 256 -165 421 -23 124 -19 858 6 904 57 106 90 181 114 255 103 321
293 633 508 836 341 323 726 518 1207 612 251 50 225 49 1370 45 305 -1 614 2
685 6 223 13 215 14 215 -9z m-4283 -1760 c-17 -104 -20 -174 -21 -415 -1
-258 2 -304 22 -420 22 -129 76 -349 106 -434 9 -24 16 -48 16 -53 0 -5 -46
33 -102 84 -157 143 -200 172 -369 244 -319 136 -620 300 -673 367 -15 17 -30
37 -34 42 -19 25 -20 45 -1 68 10 14 19 32 19 40 0 53 418 255 694 334 55 16
96 33 96 41 0 6 5 12 10 12 19 0 116 77 187 147 37 37 68 68 69 68 1 0 -8 -56
-19 -125z m6027 -5399 c121 -39 243 -52 399 -44 l127 6 0 -154 c0 -125 -6
-187 -30 -334 -35 -202 -50 -261 -81 -311 -35 -57 -65 -44 -150 62 -143 180
-212 186 -389 34 -100 -86 -161 -110 -190 -75 -20 24 -4 60 80 175 154 211
210 322 210 415 0 47 -8 71 -45 144 -47 91 -53 111 -34 111 7 0 53 -13 103
-29z m-1854 -36 c136 -91 282 -141 435 -151 44 -3 99 -7 123 -10 l42 -5 0 -81
c0 -72 -8 -109 -70 -314 -39 -129 -80 -259 -91 -290 -24 -62 -72 -124 -98
-124 -23 0 -74 55 -100 107 -48 96 -140 173 -206 173 -45 0 -80 -16 -214 -98
-46 -29 -93 -52 -103 -52 -28 0 -58 18 -58 35 0 8 41 59 91 113 132 140 203
232 244 315 30 62 37 85 36 136 0 54 -6 74 -55 172 -31 60 -56 112 -56 115 0
10 16 2 80 -41z M3185 8379 c-74 -15 -204 -81 -262 -134 -236 -211 -244 -576
-19 -801 221 -221 561 -221 780 0 173 173 212 410 106 632 -88 183 -266 300
-470 309 -47 2 -107 0 -135 -6z m253 -257 c64 -25 115 -60 152 -107 l30 -38 0
-134 c0 -114 -3 -140 -20 -173 -113 -222 -494 -226 -620 -7 -28 50 -30 57 -30
171 0 105 2 123 22 155 83 134 300 196 466 133z M8862 6994 c-13 -8 -54 -77
-91 -153 -298 -594 -659 -1029 -1069 -1288 -408 -258 -889 -342 -1384 -242
-297 59 -630 194 -861 346 -40 27 -75 49 -78 51 -14 6 -27 -57 -19 -93 20 -88
115 -229 258 -385 589 -638 1477 -755 2332 -309 357 187 664 465 836 756 97
163 202 440 244 643 61 293 21 593 -89 667 -40 27 -49 28 -79 7z m-24 -596
c-3 -158 -5 -166 -42 -273 -71 -206 -135 -331 -246 -480 -310 -417 -859 -719
-1425 -786 -125 -15 -391 -6 -505 16 -233 45 -486 153 -567 243 -46 50 -31 52
108 17 677 -172 1286 -41 1829 393 103 82 313 297 417 427 93 115 217 295 365
530 26 41 52 75 59 75 7 0 10 -48 7 -162z"/>
</g>
</svg>
