<?xml version="1.0" standalone="no"?>
<!DOCTYPE svg PUBLIC "-//W3C//DTD SVG 20010904//EN"
 "http://www.w3.org/TR/2001/REC-SVG-20010904/DTD/svg10.dtd">
<svg version="1.0" xmlns="http://www.w3.org/2000/svg"
 width="2048.000000pt" height="2048.000000pt" viewBox="0 0 2048.000000 2048.000000"
 preserveAspectRatio="xMidYMid meet">
<metadata>
Created by potrace 1.13, written by Peter Selinger 2001-2015
</metadata>
<g transform="translate(0.000000,2048.000000) scale(0.192120,-0.192120)"
fill="#000000" stroke="none">
<path d="M9200 10323 c-998 -70 -1870 -365 -2475 -838 l-98 -77 -151 26 c-426
73 -882 82 -1362 26 -1494 -171 -2438 -960 -2999 -2505 -71 -194 -132 -389
-186 -590 -82 -303 -100 -362 -139 -444 -56 -116 -115 -170 -350 -321 -388
-248 -516 -351 -609 -495 -73 -111 -94 -173 -95 -275 -1 -69 3 -93 21 -126 44
-82 145 -148 275 -179 38 -9 152 -19 288 -25 436 -18 542 -31 1250 -155 496
-87 901 -128 1265 -128 236 1 354 10 665 54 255 36 381 60 381 74 -1 19 -123
84 -178 95 -41 9 -71 9 -116 1 -281 -51 -564 -95 -767 -120 -100 -13 -424 -41
-427 -37 -2 1 59 20 135 41 358 100 928 303 1179 420 105 49 95 54 108 -50 21
-173 123 -483 212 -644 132 -239 242 -349 563 -566 260 -176 382 -245 435
-245 80 0 137 93 224 363 56 178 74 293 74 477 0 222 -41 429 -130 660 -49
125 -173 370 -251 494 -34 54 -61 100 -59 102 11 12 320 120 422 149 248 69
394 89 605 82 237 -8 396 -56 573 -176 301 -203 475 -555 494 -1001 18 -423
-120 -848 -396 -1217 -134 -180 -332 -374 -502 -493 l-64 -44 53 59 c131 146
267 386 316 559 25 84 26 100 26 331 0 261 -6 311 -57 475 -24 77 -43 127 -91
230 -32 70 -126 201 -189 265 -156 155 -357 251 -554 262 -112 7 -157 -5 -194
-49 -22 -26 -75 -119 -75 -132 0 -2 33 3 73 10 87 17 206 18 279 3 192 -39
382 -206 496 -434 230 -462 191 -1094 -93 -1520 -121 -181 -319 -320 -550
-387 -70 -20 -102 -23 -260 -23 -170 0 -187 2 -305 32 -202 53 -341 109 -750
303 -363 173 -584 253 -768 280 -73 11 -85 10 -119 -6 -51 -25 -54 -57 -14
-138 41 -81 135 -195 325 -394 141 -148 161 -173 201 -255 95 -198 130 -394
122 -682 -10 -327 -72 -545 -237 -820 -64 -106 -78 -156 -57 -189 22 -33 63
-40 139 -22 167 39 420 182 688 390 155 120 437 406 544 552 l89 121 106 6
c308 18 724 100 1051 207 226 73 398 145 615 254 276 139 490 277 730 469 133
106 449 424 559 562 703 881 965 2029 731 3200 -141 705 -483 1391 -960 1926
-34 38 -55 71 -55 85 0 13 11 75 24 136 112 531 346 979 729 1401 147 162 162
192 155 316 -7 112 -52 189 -146 249 -85 55 -188 70 -392 55z m235 -277 l40
-12 0 -54 c-1 -64 -6 -72 -178 -276 -289 -343 -505 -761 -624 -1208 -26 -100
-36 -159 -40 -249 l-6 -119 42 -82 c23 -46 108 -170 188 -277 193 -257 259
-359 453 -703 150 -266 239 -510 337 -926 15 -67 18 -146 21 -701 3 -599 2
-632 -18 -750 -123 -724 -450 -1363 -954 -1864 -413 -410 -907 -709 -1496
-905 -301 -101 -547 -154 -934 -205 -149 -19 -200 -30 -242 -50 -73 -36 -195
-144 -276 -245 -97 -121 -295 -318 -418 -416 -125 -100 -276 -204 -296 -204
-23 0 -17 87 18 232 30 129 31 142 35 410 4 252 3 287 -17 388 -39 208 -102
361 -219 535 -69 103 -77 131 -32 122 16 -3 150 -63 297 -133 533 -251 742
-319 1020 -331 90 -4 170 -1 225 6 175 26 357 102 521 219 129 92 527 469 673
637 279 321 466 704 540 1104 21 115 21 534 0 655 -48 272 -160 520 -315 690
-245 271 -497 389 -860 403 -245 9 -490 -28 -755 -113 -203 -66 -302 -130
-360 -232 -29 -51 -38 -143 -16 -165 6 -6 11 -17 11 -25 0 -8 48 -110 107
-228 l107 -214 7 -97 c5 -54 15 -127 23 -163 12 -51 15 -138 16 -401 0 -310
-2 -342 -20 -402 -47 -153 -77 -173 -179 -116 -74 42 -322 211 -391 267 -116
94 -205 212 -291 383 -28 55 -65 122 -84 147 -49 70 -70 117 -116 256 -46 142
-78 193 -153 244 -81 54 -110 49 -436 -78 -488 -190 -836 -286 -1075 -297
-145 -6 -301 12 -775 93 -633 108 -787 127 -1155 143 -236 11 -309 21 -367 54
-37 20 -38 22 -38 78 0 54 3 62 46 115 79 97 158 158 437 341 265 174 313 213
397 323 125 164 166 265 279 685 174 651 452 1263 768 1693 417 567 981 939
1686 1111 350 86 736 130 1138 131 209 0 376 -12 639 -46 122 -16 212 -23 240
-19 62 9 168 61 270 130 181 123 229 154 335 215 300 173 703 324 1121 419
189 43 224 47 224 26 0 -14 6 -16 28 -12 60 13 393 58 487 66 147 12 314 11
360 -3z M3894 6990 c-380 -58 -588 -469 -408 -810 93 -177 278 -290 479 -290
166 0 286 49 401 164 82 82 126 164 150 276 47 221 -53 456 -248 581 -100 65
-256 98 -374 79z m249 -308 c38 -19 78 -47 92 -66 24 -31 25 -39 25 -170 0
-151 -5 -169 -62 -223 -118 -114 -351 -107 -472 13 -54 55 -66 93 -66 210 0
125 12 154 88 206 77 53 134 69 238 65 79 -2 100 -7 157 -35z"/>
</g>
</svg>
