<?xml version="1.0" standalone="no"?>
<!DOCTYPE svg PUBLIC "-//W3C//DTD SVG 20010904//EN"
 "http://www.w3.org/TR/2001/REC-SVG-20010904/DTD/svg10.dtd">
<svg version="1.0" xmlns="http://www.w3.org/2000/svg"
 width="2048.000000pt" height="2048.000000pt" viewBox="0 0 2048.000000 2048.000000"
 preserveAspectRatio="xMidYMid meet">
<metadata>
Created by potrace 1.13, written by Peter Selinger 2001-2015
</metadata>
<g transform="translate(0.000000,2048.000000) scale(0.192120,-0.192120)"
fill="#000000" stroke="none">
<path d="M7380 10324 c-116 -8 -341 -36 -485 -60 -1072 -178 -2149 -681 -3057
-1427 -62 -51 -172 -127 -244 -170 -664 -396 -1270 -1108 -1887 -2218 -116
-209 -174 -319 -497 -939 -213 -409 -259 -487 -318 -541 -39 -36 -104 -74
-245 -143 -206 -101 -259 -136 -294 -194 -30 -48 -29 -86 3 -150 30 -60 147
-175 253 -247 39 -27 71 -51 71 -55 0 -4 -33 -29 -72 -56 -92 -62 -219 -186
-247 -241 -12 -25 -21 -61 -21 -88 0 -114 74 -172 405 -316 186 -80 219 -103
355 -239 479 -482 1178 -917 1995 -1241 120 -48 211 -94 365 -185 1317 -776
2555 -1297 3430 -1443 286 -48 622 -53 818 -12 101 21 144 42 174 82 19 25 19
28 4 57 -30 58 -125 98 -270 112 -227 22 -690 196 -1171 440 -315 160 -591
329 -832 510 l-102 77 -83 -14 c-212 -33 -605 -35 -878 -3 -205 24 -473 74
-649 121 -169 45 -184 51 -210 83 -151 182 -312 293 -591 404 -505 201 -1051
502 -1435 790 -159 119 -230 180 -390 332 -205 194 -252 228 -461 330 -171 83
-214 113 -214 148 0 7 19 34 43 60 109 120 167 220 167 293 0 52 -45 134 -119
216 -23 26 -52 67 -64 90 -19 39 -19 43 -4 67 10 14 17 31 17 39 0 7 37 31 82
52 287 139 387 256 643 750 340 658 473 903 658 1220 392 673 779 1171 1190
1532 137 120 247 203 442 333 147 98 259 185 311 241 29 32 115 146 132 174
16 28 261 101 456 134 422 74 994 31 1431 -105 61 -19 115 -36 122 -37 6 -1
47 52 91 118 189 284 430 537 687 722 239 172 574 323 716 323 124 0 221 59
222 136 1 50 -24 89 -77 117 -36 19 -58 22 -176 23 -74 1 -160 0 -190 -2z
m-600 -363 c0 -19 -58 -80 -131 -138 -43 -34 -200 -184 -285 -273 -84 -88
-166 -187 -268 -324 -47 -63 -95 -121 -108 -130 -31 -22 -53 -20 -219 14 -194
41 -406 67 -634 80 -222 12 -260 17 -275 35 -16 20 10 42 116 102 491 277
1113 509 1729 646 50 11 75 7 75 -12z m-1358 -8527 c16 -8 64 -45 106 -82 42
-37 95 -81 117 -98 115 -89 418 -275 640 -394 129 -68 206 -120 198 -133 -5
-8 -8 -8 -10 0 -2 6 -12 9 -22 6 -60 -16 -499 121 -883 276 -248 99 -388 161
-594 261 -199 97 -263 136 -264 162 0 15 24 17 277 18 152 0 279 3 282 6 10
10 123 -7 153 -22z M5975 8730 c-708 -481 -1228 -1072 -1565 -1775 -290 -605
-439 -1248 -466 -2010 -6 -163 -4 -198 10 -248 58 -199 322 -265 463 -116 67
71 76 109 84 364 16 498 82 889 220 1313 286 872 851 1587 1644 2077 117 73
329 185 349 185 7 0 20 -22 30 -50 43 -120 115 -170 312 -215 64 -15 112 -31
107 -35 -4 -4 -69 -47 -143 -95 -701 -455 -1200 -1040 -1473 -1730 -128 -321
-207 -702 -210 -1010 -2 -123 -1 -133 25 -180 33 -63 70 -98 130 -125 127 -56
262 -20 340 90 39 55 48 95 59 248 24 352 106 656 264 977 236 480 615 901
1110 1230 140 93 313 190 322 181 4 -3 10 -36 14 -71 16 -133 74 -205 226
-283 l94 -48 -108 -53 c-559 -272 -914 -707 -1063 -1305 -37 -146 -37 -214 -1
-283 95 -188 362 -206 477 -33 15 22 38 88 54 152 75 299 184 502 370 689 137
137 312 249 488 313 l73 26 -7 -68 c-3 -37 -7 -72 -9 -77 -9 -31 23 -147 86
-312 104 -276 159 -374 242 -434 72 -52 128 -33 230 81 56 62 103 140 180 300
105 217 255 462 401 655 69 92 258 282 363 366 79 63 221 139 259 139 23 0 24
-3 24 -64 0 -80 -32 -187 -135 -446 -113 -288 -253 -653 -286 -750 -36 -105
-171 -644 -200 -800 -17 -94 -22 -166 -26 -388 -5 -272 -1 -343 38 -632 29
-220 157 -614 392 -1210 203 -513 217 -556 217 -663 0 -81 -10 -89 -79 -63
-116 43 -285 176 -428 338 -220 248 -375 491 -580 907 -109 220 -134 262 -186
318 -112 120 -161 123 -272 16 -64 -60 -89 -98 -171 -263 -216 -437 -513 -829
-834 -1105 -467 -400 -892 -628 -1549 -830 -205 -63 -272 -92 -315 -138 -49
-53 -76 -147 -42 -147 35 0 257 43 368 71 1204 303 2237 1193 2633 2267 21 56
40 100 43 97 3 -2 29 -68 58 -146 68 -179 200 -452 308 -633 366 -615 805
-1017 1115 -1020 115 -1 170 47 178 156 11 136 -45 321 -275 903 -223 566
-293 770 -366 1067 -58 233 -77 372 -83 584 -8 269 16 457 98 773 73 282 144
487 368 1054 158 401 213 556 241 683 53 242 -4 345 -185 331 -299 -22 -724
-413 -1068 -982 -105 -174 -240 -442 -301 -600 -26 -66 -52 -131 -58 -145 -9
-22 -15 -7 -54 127 -53 187 -133 397 -229 603 -342 738 -887 1355 -1540 1747
-177 107 -554 284 -598 283 -7 -1 -97 -59 -202 -130z m234 -164 c67 -24 65
-67 -6 -116 -20 -14 -41 -30 -47 -35 -6 -6 -33 -26 -61 -45 -379 -256 -792
-675 -1049 -1065 -367 -556 -588 -1161 -675 -1855 -22 -172 -41 -422 -41 -536
0 -61 -4 -78 -20 -94 -11 -11 -20 -30 -20 -43 0 -12 -7 -33 -16 -45 -17 -25
-66 -30 -109 -10 l-26 12 3 400 c4 429 4 429 69 741 106 510 308 1008 577
1420 176 270 307 430 552 676 211 211 348 327 586 497 154 109 204 127 283 98z
m1009 -636 c39 -24 48 -43 34 -74 -11 -24 -25 -36 -227 -187 -369 -277 -687
-618 -885 -949 -89 -149 -214 -411 -263 -550 -64 -186 -113 -391 -138 -588
-11 -92 -29 -187 -39 -212 -11 -25 -22 -55 -25 -67 -9 -33 -64 -48 -109 -29
l-36 15 0 228 c0 240 9 309 68 533 91 344 296 740 545 1052 220 276 531 563
820 757 139 93 193 108 255 71z m679 -830 c26 -24 37 -54 29 -84 -3 -14 -46
-49 -119 -99 -329 -222 -518 -471 -652 -862 -71 -204 -109 -250 -193 -229 -32
8 -37 14 -45 49 -15 70 -2 192 32 290 48 135 153 339 228 440 138 186 364 382
547 475 89 45 140 51 173 20z M2880 6433 c-59 -11 -152 -64 -203 -115 -204
-204 -149 -537 111 -665 73 -37 80 -38 181 -38 98 0 111 2 173 32 249 117 318
435 143 649 -88 107 -257 164 -405 137z m197 -309 c26 -19 28 -28 31 -94 3
-84 -10 -114 -63 -136 -41 -17 -112 -18 -152 -3 -15 5 -40 22 -55 37 -25 23
-28 33 -28 92 0 74 8 87 70 115 50 22 160 16 197 -11z"/>
</g>
</svg>
