<?xml version="1.0" standalone="no"?>
<!DOCTYPE svg PUBLIC "-//W3C//DTD SVG 20010904//EN"
 "http://www.w3.org/TR/2001/REC-SVG-20010904/DTD/svg10.dtd">
<svg version="1.0" xmlns="http://www.w3.org/2000/svg"
 width="2048.000000pt" height="2048.000000pt" viewBox="0 0 2048.000000 2048.000000"
 preserveAspectRatio="xMidYMid meet">
<metadata>
Created by potrace 1.13, written by Peter Selinger 2001-2015
</metadata>
<g transform="translate(0.000000,2048.000000) scale(0.192120,-0.192120)"
fill="#000000" stroke="none">
<path d="M4650 10103 c-95 -16 -258 -98 -273 -138 -27 -69 49 -116 268 -164
55 -13 107 -25 115 -28 16 -6 15 -7 -180 -48 -249 -53 -490 -139 -737 -263
-996 -499 -1672 -1445 -1818 -2547 -9 -66 -20 -208 -24 -315 -8 -179 -12 -210
-51 -375 -182 -773 -396 -1310 -877 -2209 -202 -377 -220 -417 -229 -513 -18
-195 70 -384 207 -443 64 -27 172 -29 256 -5 277 81 623 389 888 790 40 61 96
152 124 203 29 50 54 92 56 92 1 0 15 -37 30 -82 85 -267 283 -689 436 -933
165 -263 377 -521 571 -695 291 -261 600 -442 966 -565 9 -3 11 -15 7 -37 -10
-60 -25 -252 -25 -320 l0 -68 -303 0 c-339 0 -363 -4 -435 -66 -147 -125 -119
-364 53 -457 36 -20 60 -22 240 -27 l200 -5 -51 -27 c-70 -37 -130 -108 -150
-176 -58 -198 130 -394 329 -343 47 11 792 410 851 455 20 15 48 53 67 91 29
59 31 71 27 132 -6 84 -34 140 -90 185 -104 83 -187 196 -237 328 -32 81 -60
214 -49 226 4 3 37 1 75 -5 251 -41 637 -41 886 0 38 6 71 8 75 5 11 -12 -17
-145 -49 -226 -50 -132 -133 -245 -237 -328 -56 -45 -84 -101 -90 -185 -4 -61
-2 -73 27 -132 18 -37 47 -76 66 -90 45 -35 793 -440 841 -455 83 -28 215 9
275 78 128 145 89 348 -85 440 l-51 27 200 5 c180 5 204 7 240 27 172 93 200
332 53 457 -72 62 -96 66 -435 66 l-303 0 0 63 c0 67 -16 271 -25 325 -4 22
-2 34 7 37 598 201 1076 576 1457 1140 48 72 111 170 140 219 127 216 288 570
366 804 20 61 39 112 40 112 2 0 27 -42 56 -92 138 -247 301 -464 483 -643
137 -135 240 -212 377 -284 117 -62 188 -82 282 -83 99 0 161 27 226 98 107
116 141 337 77 495 -12 31 -100 200 -193 376 -94 175 -211 399 -261 498 -301
603 -509 1194 -646 1828 -20 89 -26 148 -26 235 -1 482 -153 1052 -403 1507
-156 285 -337 525 -572 760 -266 267 -532 459 -864 625 -286 143 -587 244
-859 290 -41 7 -70 15 -65 19 4 4 55 18 113 30 295 65 354 137 189 234 -164
96 -356 99 -547 7 -96 -46 -150 -81 -249 -162 l-73 -59 -72 59 c-100 81 -154
116 -250 162 -120 58 -252 81 -358 63z m285 -289 c25 -10 40 -12 44 -5 4 6 29
-3 66 -25 109 -66 217 -115 263 -121 60 -6 125 18 252 92 58 35 96 52 100 45
4 -7 22 -4 52 10 25 11 53 17 61 14 9 -3 19 -24 23 -47 5 -35 19 -55 78 -112
86 -85 142 -114 379 -195 227 -77 282 -99 418 -163 509 -240 924 -598 1265
-1092 140 -202 347 -621 417 -843 65 -204 114 -493 123 -727 6 -169 19 -266
61 -455 19 -85 41 -193 49 -240 27 -145 63 -277 136 -495 159 -476 349 -899
673 -1500 193 -358 175 -310 175 -477 0 -131 -2 -148 -20 -171 -41 -52 -160
-43 -287 22 -208 105 -422 316 -640 631 -97 139 -209 262 -265 291 -72 37
-114 22 -211 -75 -62 -61 -110 -148 -197 -357 -104 -249 -199 -427 -345 -649
-311 -471 -629 -754 -1112 -990 -186 -91 -205 -103 -242 -150 -43 -55 -65
-116 -59 -162 4 -27 2 -29 -61 -48 -74 -22 -203 -50 -230 -50 -12 0 -21 14
-30 50 -18 70 -63 116 -121 125 -25 3 -130 2 -233 -3 -122 -7 -253 -7 -375 0
-103 5 -207 7 -232 3 -58 -9 -103 -55 -121 -125 -7 -27 -18 -50 -25 -50 -27 0
-179 32 -237 50 l-62 19 -2 56 c-1 44 -8 66 -34 106 -17 27 -46 61 -63 73 -17
13 -119 67 -226 119 -291 142 -496 286 -710 499 -288 287 -547 689 -743 1154
-108 257 -150 323 -251 396 -66 48 -123 33 -227 -60 -60 -54 -89 -91 -224
-282 -231 -328 -461 -532 -684 -607 -57 -19 -88 -24 -123 -20 -95 12 -118 50
-118 200 0 119 -4 110 162 417 248 460 416 807 540 1114 151 378 287 808 366
1161 53 238 62 295 62 401 0 293 83 719 196 1017 206 541 564 1019 1034 1383
278 215 574 366 1005 514 226 78 299 115 370 192 30 32 55 66 55 74 0 8 4 22
9 32 5 9 12 25 15 35 7 21 14 21 61 1z m-314 -8287 c9 -7 41 -62 72 -124 68
-137 107 -199 180 -285 59 -68 70 -105 47 -148 -14 -26 -102 -79 -370 -223
-296 -159 -341 -176 -385 -143 -26 19 -23 69 8 137 51 113 52 121 28 170 -42
84 -167 191 -241 206 -17 3 -33 10 -36 14 -3 5 -18 9 -35 9 -18 0 -29 5 -29
14 0 20 118 36 265 36 69 0 145 5 168 11 90 22 188 121 261 263 21 42 41 76
45 76 3 0 13 -6 22 -13z m1462 -25 c56 -109 88 -155 148 -214 88 -86 125 -98
301 -98 145 0 268 -17 268 -37 0 -8 -12 -13 -29 -13 -17 0 -32 -4 -35 -9 -3
-4 -19 -11 -36 -14 -96 -20 -260 -182 -260 -257 0 -14 13 -57 30 -95 31 -73
37 -123 20 -156 -24 -44 -92 -18 -433 166 -152 82 -290 162 -307 178 -46 45
-41 79 22 152 68 80 129 174 188 294 47 96 84 146 101 135 4 -2 14 -17 22 -32z
M3398 7531 c-173 -57 -288 -215 -288 -395 0 -111 37 -203 114 -284 92 -96 198
-138 329 -129 305 21 485 361 330 624 -38 65 -134 148 -200 174 -81 31 -208
36 -285 10z m217 -283 c49 -25 55 -38 55 -112 0 -108 -40 -146 -150 -146 -108
0 -160 48 -160 149 0 56 2 62 33 85 57 43 162 55 222 24z M7010 7531 c-95 -30
-186 -104 -238 -191 -117 -199 -31 -470 183 -576 164 -81 350 -49 476 83 82
86 119 175 119 289 0 278 -276 480 -540 395z m215 -283 c48 -25 55 -38 55
-112 0 -50 -5 -79 -16 -95 -54 -76 -236 -64 -279 19 -8 16 -15 54 -15 84 0 51
3 57 34 81 55 42 162 53 221 23z M5154 7255 c-141 -30 -285 -107 -391 -209
-85 -80 -139 -154 -188 -259 -50 -105 -67 -177 -72 -312 -8 -181 24 -287 117
-388 129 -140 334 -197 710 -197 376 0 581 57 710 197 93 101 125 207 117 388
-6 148 -22 210 -89 345 -45 91 -65 118 -148 201 -127 129 -254 200 -419 235
-82 17 -266 17 -347 -1z m324 -210 c38 -8 89 -22 113 -32 137 -54 278 -176
330 -286 29 -62 29 -63 29 -253 l0 -191 -31 -46 c-24 -37 -46 -54 -102 -82
-110 -53 -192 -66 -437 -72 -379 -9 -592 46 -665 171 -24 41 -25 50 -25 217 0
165 2 177 25 228 122 260 454 411 763 346z"/>
</g>
</svg>
