<?xml version="1.0" standalone="no"?>
<!DOCTYPE svg PUBLIC "-//W3C//DTD SVG 20010904//EN"
 "http://www.w3.org/TR/2001/REC-SVG-20010904/DTD/svg10.dtd">
<svg version="1.0" xmlns="http://www.w3.org/2000/svg"
 width="2048.000000pt" height="2048.000000pt" viewBox="0 0 2048.000000 2048.000000"
 preserveAspectRatio="xMidYMid meet">
<metadata>
Created by potrace 1.13, written by Peter Selinger 2001-2015
</metadata>
<g transform="translate(0.000000,2048.000000) scale(0.192120,-0.192120)"
fill="#000000" stroke="none">
<path d="M2087 10319 c-270 -31 -557 -141 -777 -297 -122 -86 -306 -271 -393
-392 -80 -113 -184 -319 -226 -446 -97 -297 -106 -650 -26 -950 93 -346 299
-658 580 -879 90 -70 225 -155 248 -155 21 0 31 77 16 135 -13 52 -27 68 -197
224 -247 225 -395 463 -463 746 -16 69 -19 118 -19 362 0 299 4 333 54 479 32
96 86 202 153 301 60 90 194 237 267 293 25 19 45 43 46 53 0 21 128 107 248
167 115 57 134 63 143 49 5 -10 25 -7 81 9 148 44 213 53 398 59 203 6 328 -7
479 -51 64 -19 80 -20 87 -9 13 19 175 -56 323 -150 209 -133 307 -177 396
-177 73 0 190 37 342 108 82 38 195 88 253 111 169 67 179 74 225 168 22 45
43 84 47 88 3 4 118 -41 254 -100 326 -141 683 -285 706 -285 24 0 344 130
691 280 181 77 262 108 271 101 6 -5 18 -27 25 -48 25 -71 62 -123 101 -143
21 -11 84 -38 141 -60 57 -23 177 -75 266 -116 323 -148 389 -142 704 62 146
95 278 159 300 146 12 -8 37 -4 94 13 169 53 226 60 460 60 239 0 303 -9 475
-65 53 -17 87 -24 91 -18 9 14 42 3 137 -49 149 -80 282 -179 282 -210 0 -7
12 -20 26 -29 37 -25 169 -178 220 -256 52 -79 116 -204 143 -280 51 -142 53
-161 49 -528 -3 -342 -4 -346 -30 -420 -52 -150 -106 -258 -194 -390 -118
-176 -184 -251 -300 -345 -113 -93 -134 -126 -134 -220 0 -52 3 -65 16 -65 25
0 143 73 240 148 191 149 349 340 458 551 137 268 195 528 183 831 -12 327
-116 632 -305 900 -86 122 -270 306 -392 392 -645 457 -1516 398 -2102 -141
l-67 -62 -87 51 c-536 316 -1187 476 -1864 457 -249 -7 -419 -26 -649 -73
-354 -72 -691 -198 -994 -373 l-108 -62 -79 72 c-358 325 -842 483 -1313 428z
M2085 9844 c-185 -34 -373 -110 -501 -205 -200 -148 -350 -350 -431 -584 l-38
-110 -3 -257 c-3 -239 -2 -262 19 -340 58 -216 187 -433 333 -556 87 -75 243
-141 269 -116 4 4 -28 30 -71 58 -158 103 -324 298 -402 470 -189 423 -101
914 225 1241 383 385 970 440 1423 133 41 -27 76 -47 79 -44 11 11 -21 72 -61
114 -75 78 -277 161 -485 197 -103 18 -250 18 -356 -1z M8189 9845 c-146 -29
-318 -93 -405 -151 -59 -40 -114 -111 -114 -150 0 -20 7 -17 82 33 207 139
394 196 638 196 534 1 978 -369 1092 -908 19 -92 17 -324 -5 -425 -58 -275
-228 -529 -464 -696 -92 -65 -96 -69 -67 -72 71 -7 185 60 302 178 106 107
185 240 253 425 l33 90 4 273 c3 270 3 275 -23 365 -123 437 -488 763 -941
842 -104 18 -294 18 -385 0z M3135 9475 c44 -38 277 -185 455 -287 283 -162
747 -389 1160 -565 277 -119 561 -233 580 -233 18 0 308 116 575 230 528 226
1045 486 1395 704 141 88 253 166 247 172 -2 2 -64 -4 -138 -15 -74 -11 -571
-74 -1106 -141 l-972 -121 -733 91 c-742 93 -1394 176 -1458 186 l-35 5 30
-26z m1769 -481 c376 -49 479 -49 851 -1 154 20 292 35 307 34 45 -3 34 -31
-24 -62 -29 -16 -56 -33 -59 -38 -3 -5 -9 -9 -12 -8 -4 0 -39 -15 -79 -33 -40
-18 -163 -70 -273 -116 -235 -98 -286 -107 -395 -70 -100 34 -528 219 -568
246 -19 13 -39 24 -44 24 -15 0 -38 27 -38 44 0 22 11 21 334 -20z M2903 9369
c-287 -258 -625 -697 -884 -1150 -76 -132 -269 -514 -269 -531 0 -19 25 -4 69
42 31 32 71 95 111 173 128 246 302 533 477 782 76 109 191 248 351 428 97
110 183 211 191 225 14 27 32 92 25 92 -2 0 -34 -27 -71 -61z M7690 9402 c0
-33 61 -114 180 -241 65 -69 146 -160 181 -201 112 -135 291 -380 337 -460 10
-19 73 -129 139 -245 66 -115 139 -246 163 -289 58 -107 131 -215 170 -254 31
-32 50 -40 50 -23 0 20 -250 503 -324 626 -167 277 -346 527 -529 741 -100
116 -344 364 -358 364 -5 0 -9 -8 -9 -18z M3390 7826 c0 -6 380 -242 575 -358
349 -207 793 -453 1168 -647 l197 -103 193 100 c373 194 796 427 1144 633 251
148 605 370 599 376 -2 3 -96 -9 -208 -26 -112 -17 -546 -80 -966 -140 l-762
-109 -793 114 c-436 62 -866 125 -956 139 -165 25 -191 28 -191 21z m1659
-511 c225 -31 340 -32 567 0 235 32 274 34 274 14 0 -24 -87 -81 -282 -186
-197 -106 -250 -127 -302 -118 -92 14 -536 264 -536 302 0 26 17 25 279 -12z
M1535 7188 c-211 -571 -391 -1228 -490 -1788 -14 -80 -30 -163 -35 -185 -15
-58 -86 -572 -106 -760 -26 -251 -19 -489 22 -765 21 -141 21 -141 49 -94 l24
39 -22 12 c-17 10 144 12 776 13 438 0 797 1 797 3 0 1 -329 331 -731 732
-402 402 -744 747 -760 767 l-29 36 77 54 c65 44 83 62 105 108 37 74 61 196
62 305 0 88 -1 92 -47 185 -36 72 -44 96 -34 102 12 6 881 118 1421 183 115
14 210 26 212 28 2 1 -236 194 -529 427 -292 234 -583 467 -645 518 -70 57
-114 87 -117 80z m182 -461 c47 -26 402 -313 411 -333 6 -12 6 -27 1 -36 -12
-21 -113 -41 -374 -73 -231 -28 -214 -28 -221 1 -11 45 5 133 51 273 59 181
74 200 132 168z m-159 -2411 c315 -315 331 -335 276 -356 -14 -6 -159 -10
-339 -10 l-314 0 -6 33 c-3 17 -5 163 -3 323 3 269 4 294 22 313 15 17 22 18
40 10 11 -6 157 -147 324 -313z M9099 7184 c-12 -14 -1126 -910 -1239 -995
l-35 -27 60 -7 c416 -48 1569 -196 1580 -202 12 -7 7 -24 -27 -98 -53 -114
-58 -170 -28 -326 34 -183 49 -207 196 -316 l29 -21 -765 -766 -765 -766 800
0 c633 -1 795 -3 778 -13 l-22 -12 24 -39 c28 -47 28 -47 49 94 57 384 50 611
-38 1237 -20 136 -40 266 -46 288 -5 22 -21 105 -35 185 -69 388 -187 869
-317 1285 -48 155 -168 497 -178 508 -4 4 -13 0 -21 -9z m-95 -467 c19 -28 40
-86 77 -212 34 -117 40 -222 12 -232 -32 -13 -517 53 -550 75 -47 30 -32 46
211 236 142 112 206 155 228 156 4 0 14 -10 22 -23z m454 -2099 c9 -9 12 -93
12 -317 0 -169 -3 -316 -6 -328 l-6 -23 -304 0 c-172 0 -314 4 -328 10 -56 21
-40 41 282 363 170 169 316 307 324 307 8 0 19 -5 26 -12z M3778 6144 c-165
-39 -284 -153 -354 -334 l-29 -75 0 -405 0 -405 29 -75 c91 -238 256 -350 516
-350 278 0 456 132 532 395 22 77 23 94 23 435 0 341 -1 358 -23 435 -60 206
-187 336 -373 380 -79 18 -244 18 -321 -1z m273 -279 c74 -19 124 -49 149 -89
19 -32 20 -49 20 -441 0 -455 1 -444 -70 -509 -51 -46 -105 -61 -220 -60 -143
1 -216 38 -269 139 -20 38 -21 53 -21 431 0 390 0 391 23 425 66 98 236 144
388 104z M6556 6144 c-138 -33 -259 -130 -321 -258 -67 -137 -70 -160 -70
-556 0 -396 3 -419 70 -556 63 -130 184 -225 326 -259 82 -19 236 -19 317 0
168 40 287 151 358 335 l29 75 0 405 0 405 -29 75 c-71 184 -190 295 -358 335
-79 18 -244 18 -322 -1z m308 -285 c21 -7 59 -32 85 -55 l46 -42 3 -417 3
-417 -26 -44 c-35 -59 -79 -90 -156 -110 -159 -41 -321 14 -380 128 -18 35
-19 63 -19 428 0 424 -1 418 57 471 36 34 67 50 128 66 59 15 202 10 259 -8z
M2655 4100 c-140 -8 -168 -15 -203 -52 -21 -23 -42 -76 -42 -105 0 -9 174 -10
728 -6 781 6 855 3 1092 -43 163 -32 382 -106 544 -183 71 -33 131 -61 133
-61 2 0 11 17 19 37 31 73 -20 161 -121 212 -63 31 -228 87 -363 122 -154 40
-320 67 -487 79 -153 11 -1092 11 -1300 0z M6685 4100 c-220 -18 -452 -66
-665 -137 -193 -64 -269 -114 -289 -191 -12 -43 0 -122 18 -122 4 0 66 28 137
61 158 76 378 149 544 182 235 47 309 50 1094 44 l728 -6 -6 31 c-14 71 -52
111 -122 129 -51 14 -1290 21 -1439 9z M5085 3584 c-103 -11 -278 -48 -360
-75 -290 -97 -349 -233 -216 -496 58 -117 153 -243 279 -374 174 -181 342
-305 473 -349 61 -21 66 -21 124 -5 221 59 621 440 766 728 133 263 74 399
-216 496 -169 56 -292 73 -565 76 -135 2 -263 1 -285 -1z m496 -289 c110 -19
309 -79 321 -97 12 -19 1 -83 -24 -131 -73 -145 -320 -391 -453 -453 -103 -49
-189 -24 -340 99 -186 150 -345 357 -345 449 0 35 2 37 53 56 68 26 193 60
276 77 94 19 406 19 512 0z M934 3243 l-39 -78 1 -185 c0 -151 4 -204 22 -287
62 -289 201 -542 412 -753 l85 -85 460 -44 c253 -24 563 -54 690 -67 126 -14
237 -23 246 -22 11 2 -34 46 -125 123 -196 167 -1534 1323 -1627 1407 -42 37
-79 68 -82 68 -2 0 -22 -35 -43 -77z m343 -540 c202 -170 590 -508 605 -527
10 -11 22 -26 28 -33 13 -15 13 -26 1 -19 -5 4 -11 0 -14 -6 -9 -29 -308 -3
-384 34 -99 46 -232 237 -294 419 -29 86 -39 189 -19 189 5 0 40 -26 77 -57z
M9625 3273 c-62 -57 -1212 -1051 -1546 -1337 -135 -116 -241 -212 -235 -214 7
-1 239 20 516 47 278 28 588 58 690 67 216 20 206 15 333 159 265 298 395 649
385 1034 -3 129 -5 139 -36 202 -45 94 -48 95 -107 42z m-175 -582 c0 -97 -48
-220 -145 -371 -84 -132 -151 -179 -279 -200 -79 -12 -271 -18 -281 -8 -4 3
-4 16 0 28 6 20 680 610 697 610 4 0 8 -26 8 -59z M5220 1721 c-122 -124 -263
-224 -437 -310 -270 -135 -483 -193 -860 -237 l-43 -5 36 -57 c94 -147 250
-318 389 -427 403 -315 932 -428 1424 -304 147 37 229 68 372 141 245 125 490
350 642 590 l37 56 -38 6 c-20 3 -68 8 -107 11 -38 4 -115 16 -170 26 -412 81
-775 261 -1030 511 -60 59 -110 107 -110 106 0 -1 -47 -49 -105 -107z m210
-331 c30 -22 94 -67 143 -100 126 -88 119 -121 -35 -161 -189 -49 -522 -10
-541 63 -3 9 0 24 7 32 14 19 260 194 289 206 35 15 78 2 137 -40z m-858 -205
c129 -120 298 -213 474 -262 92 -26 113 -28 284 -28 171 0 192 2 284 28 176
49 330 133 469 257 37 33 70 60 72 60 1 0 15 -21 30 -47 37 -64 69 -97 138
-144 34 -24 57 -47 57 -58 0 -73 -336 -287 -574 -365 -168 -56 -265 -70 -476
-70 -216 0 -319 16 -495 76 -197 67 -425 200 -496 290 -50 64 -50 90 -1 119
58 35 90 68 129 136 21 35 39 63 41 63 2 0 31 -25 64 -55z"/>
</g>
</svg>
