<?xml version="1.0" standalone="no"?>
<!DOCTYPE svg PUBLIC "-//W3C//DTD SVG 20010904//EN"
 "http://www.w3.org/TR/2001/REC-SVG-20010904/DTD/svg10.dtd">
<svg version="1.0" xmlns="http://www.w3.org/2000/svg"
 width="2048.000000pt" height="2048.000000pt" viewBox="0 0 2048.000000 2048.000000"
 preserveAspectRatio="xMidYMid meet">
<metadata>
Created by potrace 1.13, written by Peter Selinger 2001-2015
</metadata>
<g transform="translate(0.000000,2048.000000) scale(0.192120,-0.192120)"
fill="#000000" stroke="none">
<path d="M3611 10299 c-183 -23 -402 -96 -621 -205 -328 -163 -579 -342 -821
-583 -223 -224 -307 -359 -296 -481 30 -341 707 -622 1437 -596 96 3 190 9
209 12 l34 7 -6 -34 c-3 -19 -15 -79 -27 -134 -59 -284 -84 -633 -77 -1055 5
-321 18 -468 57 -661 137 -675 490 -959 1190 -959 578 0 913 194 1094 633 36
87 98 308 111 400 9 62 19 66 35 14 20 -69 89 -206 134 -267 22 -31 101 -112
174 -180 164 -154 237 -248 311 -404 63 -132 71 -156 101 -293 18 -85 20 -131
20 -561 0 -462 0 -469 -26 -592 -66 -325 -113 -429 -368 -825 -173 -267 -368
-444 -641 -579 -187 -93 -344 -141 -559 -171 -154 -22 -646 -38 -732 -25 -182
29 -473 116 -618 185 -39 19 -134 75 -211 124 -77 49 -196 126 -265 170 -167
107 -319 230 -470 381 -144 143 -231 248 -335 405 -178 270 -301 568 -349 850
-13 71 -16 175 -16 487 0 386 1 401 25 516 56 267 182 515 350 690 100 106
130 118 305 127 142 7 355 29 424 45 22 5 46 16 52 24 6 9 16 16 22 16 13 0
102 98 126 140 18 31 18 32 0 27 -11 -3 -66 -15 -124 -26 -205 -40 -341 -54
-557 -56 -249 -2 -228 6 -380 -147 -346 -351 -499 -854 -463 -1521 22 -399 91
-669 256 -1003 82 -166 201 -353 321 -503 104 -130 344 -369 478 -475 652
-517 1459 -761 2183 -661 896 124 1522 781 1721 1805 57 290 77 698 47 926
-50 382 -221 746 -489 1044 -127 142 -329 317 -429 373 l-40 22 7 65 c27 272
33 672 15 938 -45 632 -183 1131 -408 1472 -113 170 -304 339 -457 403 l-60
25 -7 75 c-29 313 -274 501 -744 572 -203 30 -509 42 -643 24z m559 -295 c234
-30 406 -85 497 -160 47 -39 74 -83 93 -154 34 -129 161 -286 315 -390 159
-108 262 -230 356 -425 86 -177 131 -323 206 -675 16 -78 18 -158 21 -927 l3
-843 -41 -102 c-84 -215 -231 -368 -419 -439 -294 -110 -769 -105 -1051 11
-234 97 -379 292 -468 630 l-27 105 0 565 c0 594 2 631 51 958 28 192 29 202
8 272 -12 42 -30 69 -81 122 -105 108 -112 110 -407 119 -334 9 -542 42 -761
119 -288 102 -390 219 -306 352 77 121 325 340 566 500 168 111 438 249 590
301 116 40 225 66 328 77 96 11 384 3 527 -16z M560 8931 c-215 -66 -298 -318
-162 -496 56 -74 144 -117 244 -118 62 -1 83 3 130 26 97 48 168 143 183 248
14 94 -41 224 -120 284 -72 55 -195 80 -275 56z M9255 8789 c-76 -11 -215 -54
-280 -86 -188 -95 -351 -264 -440 -456 -61 -133 -79 -223 -79 -392 1 -176 18
-253 88 -399 52 -108 94 -169 179 -255 368 -374 966 -374 1334 0 84 86 127
147 179 254 69 145 89 234 88 405 0 119 -4 160 -23 230 -126 469 -572 767
-1046 699z m380 -282 c183 -60 341 -193 416 -350 l29 -62 0 -228 c0 -220 -1
-229 -25 -290 -49 -119 -139 -228 -253 -303 -64 -43 -125 -70 -263 -118 -89
-30 -119 -36 -190 -36 -139 0 -222 32 -364 138 -108 79 -182 156 -232 241 -68
113 -75 149 -71 384 l3 204 40 79 c68 135 208 257 366 321 106 43 172 53 324
49 117 -3 153 -8 220 -29z M1495 8719 c-156 -10 -395 -38 -413 -48 -17 -10 43
-62 106 -92 42 -21 49 -21 210 -10 475 34 464 32 502 94 40 66 37 67 -127 66
-82 -1 -206 -6 -278 -10z M710 8203 c0 -18 61 -113 132 -205 396 -519 1012
-971 1482 -1088 97 -24 111 -20 99 30 -18 76 -50 101 -217 170 -225 94 -385
187 -611 359 -156 118 -419 369 -565 541 -35 41 -77 87 -94 103 -38 34 -226
109 -226 90z M8931 6848 c-144 -344 -363 -629 -650 -845 l-95 -71 -60 43
c-256 181 -665 274 -1341 305 -270 12 -305 12 -305 1 0 -12 183 -95 278 -125
52 -16 106 -26 145 -26 88 0 250 -19 256 -29 4 -5 62 -16 131 -26 292 -39 508
-99 689 -190 126 -63 191 -80 249 -65 104 26 238 123 425 308 207 205 401 549
383 680 -6 46 -44 142 -55 142 -4 0 -27 -46 -50 -102z M9474 6854 c-99 -74
-168 -152 -217 -244 -121 -226 -138 -255 -257 -415 -91 -123 -257 -319 -321
-381 -30 -28 -92 -81 -139 -118 -47 -38 -103 -88 -126 -113 -37 -40 -47 -57
-84 -135 -9 -19 -11 -66 -8 -170 6 -157 48 -390 146 -803 28 -115 56 -248 62
-295 13 -98 10 -81 141 -635 116 -487 189 -809 254 -1125 57 -271 78 -324 166
-409 34 -34 67 -61 72 -61 10 0 5 49 -24 220 -55 319 -157 783 -360 1625 -275
1140 -316 1339 -332 1587 l-5 67 67 44 c394 263 714 643 905 1074 47 105 120
313 113 320 -3 2 -26 -13 -53 -33z M7485 4211 c-27 -10 -118 -50 -201 -88 -82
-39 -161 -74 -175 -78 -91 -28 -272 -141 -379 -237 -62 -56 -55 -59 75 -24
257 70 548 190 745 309 64 39 76 43 82 29 3 -10 26 -80 51 -157 109 -343 295
-815 512 -1300 83 -185 337 -687 388 -769 l44 -68 17 43 c19 48 23 159 7 202
-6 14 -66 140 -135 279 -243 496 -398 860 -612 1440 -93 255 -110 291 -157
344 -78 90 -158 113 -262 75z M3490 2790 c0 -50 122 -589 174 -768 20 -68 36
-126 36 -128 0 -18 27 18 51 70 37 78 38 157 4 305 -50 219 -88 306 -196 452
-58 78 -69 89 -69 69z M4469 2446 c-157 -124 -198 -372 -85 -524 l23 -32 26
92 c40 144 107 449 107 489 0 27 -8 24 -71 -25z M3973 1899 c-264 -24 -509
-163 -667 -379 -199 -270 -241 -664 -95 -891 87 -136 242 -221 484 -264 123
-23 458 -31 610 -16 382 39 584 159 667 399 20 60 23 85 22 227 0 144 -3 169
-27 248 -49 158 -114 271 -226 389 -150 159 -367 268 -566 284 -38 3 -81 6
-95 8 -14 1 -62 -1 -107 -5z m212 -220 c177 -33 448 -234 530 -395 l30 -59 3
-216 3 -215 -33 -50 c-82 -122 -351 -185 -737 -171 -337 12 -516 68 -596 187
l-30 45 0 191 0 191 39 77 c53 104 142 198 271 286 116 79 189 115 262 129 68
13 189 13 258 0z M9050 1904 c-202 -19 -358 -80 -517 -201 -260 -197 -406
-562 -349 -873 49 -269 232 -414 598 -472 114 -18 544 -17 663 1 350 53 537
196 591 451 21 99 14 284 -15 392 -96 366 -394 631 -776 693 -86 14 -118 16
-195 9z m195 -259 c211 -58 319 -117 424 -231 34 -37 77 -98 96 -137 l35 -70
0 -207 0 -207 -29 -43 c-54 -80 -168 -133 -351 -162 -114 -18 -496 -17 -615 1
-216 33 -340 96 -386 198 -18 40 -20 61 -17 221 3 172 4 179 33 242 50 109
177 248 310 340 145 100 280 115 500 55z"/>
</g>
</svg>
