<?xml version="1.0" standalone="no"?>
<!DOCTYPE svg PUBLIC "-//W3C//DTD SVG 20010904//EN"
 "http://www.w3.org/TR/2001/REC-SVG-20010904/DTD/svg10.dtd">
<svg version="1.0" xmlns="http://www.w3.org/2000/svg"
 width="2048.000000pt" height="2048.000000pt" viewBox="0 0 2048.000000 2048.000000"
 preserveAspectRatio="xMidYMid meet">
<metadata>
Created by potrace 1.13, written by Peter Selinger 2001-2015
</metadata>
<g transform="translate(0.000000,2048.000000) scale(0.192120,-0.192120)"
fill="#000000" stroke="none">
<path d="M5142 8639 c-305 -17 -610 -81 -905 -191 -148 -55 -414 -189 -553
-277 l-111 -70 -100 44 c-609 268 -1427 315 -2023 116 -627 -210 -992 -656
-1097 -1341 -25 -162 -24 -547 1 -715 97 -647 414 -1147 916 -1442 108 -63
244 -124 351 -158 46 -15 90 -28 98 -31 11 -3 12 -18 7 -67 -3 -34 -9 -150
-13 -257 -14 -451 55 -815 218 -1147 318 -648 1024 -1087 2049 -1274 104 -19
121 -25 190 -71 218 -144 499 -244 830 -294 139 -22 489 -25 625 -6 338 47
639 151 867 300 71 47 86 52 195 72 163 28 453 101 602 150 978 324 1512 906
1637 1785 19 132 25 507 11 697 l-8 107 71 21 c468 139 872 484 1098 935 298
597 310 1430 30 1978 -253 494 -750 795 -1433 867 -140 15 -479 15 -615 1
-335 -36 -662 -121 -925 -240 l-68 -31 -101 66 c-135 87 -451 242 -611 300
-164 58 -397 117 -568 143 -117 18 -440 43 -507 39 -14 0 -85 -4 -158 -9z
m458 -219 c260 -24 556 -94 800 -192 69 -27 224 -100 345 -163 242 -124 312
-150 386 -142 26 3 141 37 256 76 373 125 641 171 998 171 386 0 694 -64 970
-200 160 -80 251 -145 383 -274 158 -155 232 -271 306 -485 70 -202 78 -274
73 -684 -4 -353 -4 -365 -31 -476 -84 -348 -237 -636 -457 -862 -179 -182
-394 -335 -639 -452 -124 -59 -178 -103 -210 -169 -19 -39 -20 -62 -20 -322 0
-218 -5 -314 -19 -426 -60 -453 -213 -781 -500 -1071 -239 -241 -491 -391
-852 -508 -281 -91 -419 -127 -788 -202 -32 -7 -128 -49 -229 -101 -222 -114
-314 -151 -477 -193 -198 -51 -339 -68 -565 -68 -225 0 -366 17 -565 68 -167
43 -248 75 -475 192 -180 92 -189 95 -330 123 -260 51 -458 104 -733 195 -414
136 -783 416 -1024 775 -126 187 -208 407 -259 693 -23 128 -26 174 -31 472
-3 269 -7 336 -20 365 -30 68 -82 109 -235 186 -371 186 -659 439 -847 742
-88 142 -159 311 -213 511 l-32 116 -3 414 c-4 394 -3 419 17 515 37 172 95
313 193 472 203 328 602 555 1109 630 149 22 485 29 648 15 263 -24 461 -68
757 -167 107 -36 218 -68 246 -71 76 -7 149 20 354 130 417 223 784 336 1208
370 97 8 400 6 505 -3z M2570 7604 c-307 -26 -516 -80 -721 -185 -413 -212
-638 -583 -679 -1122 -33 -441 86 -893 318 -1203 63 -84 245 -274 263 -274 4
0 11 21 14 48 134 1016 547 1969 1144 2640 40 46 71 85 69 87 -6 6 -354 14
-408 9z m-50 -253 c-1 -23 -28 -76 -76 -146 -67 -99 -187 -302 -260 -440 -212
-401 -342 -740 -468 -1214 -69 -261 -84 -293 -122 -267 -58 41 -148 220 -200
397 -27 93 -27 99 -32 429 -5 375 0 420 55 569 53 143 105 223 218 337 74 74
125 115 195 157 150 89 328 152 513 182 159 25 177 25 177 -4z M7753 7603
c-40 -2 -73 -6 -73 -9 0 -3 37 -47 81 -97 439 -496 786 -1163 989 -1904 48
-177 114 -494 134 -652 8 -62 17 -115 20 -118 8 -8 115 90 189 175 184 208
310 473 368 772 43 225 43 534 0 758 -115 592 -533 963 -1192 1057 -109 15
-392 25 -516 18z m492 -238 c150 -14 346 -71 488 -141 258 -127 413 -300 510
-571 l32 -88 3 -382 c3 -377 3 -382 -22 -481 -25 -103 -82 -254 -123 -328 -27
-48 -76 -104 -90 -104 -30 0 -53 57 -98 240 -141 567 -396 1167 -683 1610 -41
63 -88 137 -104 163 -37 64 -37 103 1 93 9 -2 48 -7 86 -11z M3730 5219 c-122
-20 -248 -117 -306 -234 -27 -56 -29 -68 -29 -175 0 -111 1 -118 34 -182 82
-165 266 -261 438 -229 91 17 167 56 229 117 184 184 156 489 -58 634 -94 63
-199 86 -308 69z m170 -301 l45 -23 3 -72 c3 -87 -12 -123 -62 -147 -42 -20
-125 -21 -170 -2 -56 23 -76 59 -76 136 0 51 4 71 18 83 56 50 168 62 242 25z
M6793 5220 c-124 -19 -252 -113 -307 -226 -124 -252 26 -543 306 -595 172 -32
357 64 439 229 33 64 34 71 34 182 0 105 -2 120 -27 170 -85 172 -262 268
-445 240z m164 -301 l43 -21 0 -87 c0 -78 -2 -90 -22 -109 -50 -46 -142 -56
-215 -23 -52 24 -73 63 -73 136 0 48 4 60 27 81 51 47 166 59 240 23z M5174
5100 c-434 -113 -786 -675 -864 -1375 -14 -130 -14 -436 1 -556 34 -282 133
-505 288 -652 175 -165 403 -239 731 -239 275 0 465 48 629 157 82 54 184 160
234 241 74 123 134 312 157 494 14 122 15 417 0 551 -98 895 -633 1522 -1176
1379z m336 -290 c258 -111 450 -386 551 -786 l30 -120 -3 -445 -3 -444 -27
-73 c-75 -207 -205 -322 -433 -384 -111 -30 -448 -33 -567 -5 -218 51 -345
141 -431 305 -72 137 -77 176 -77 606 0 407 3 442 54 617 74 254 167 423 315
570 92 92 180 148 271 174 84 23 249 15 320 -15z"/>
</g>
</svg>
