<?xml version="1.0" standalone="no"?>
<!DOCTYPE svg PUBLIC "-//W3C//DTD SVG 20010904//EN"
 "http://www.w3.org/TR/2001/REC-SVG-20010904/DTD/svg10.dtd">
<svg version="1.0" xmlns="http://www.w3.org/2000/svg"
 width="2048.000000pt" height="2048.000000pt" viewBox="0 0 2048.000000 2048.000000"
 preserveAspectRatio="xMidYMid meet">
<metadata>
Created by potrace 1.13, written by Peter Selinger 2001-2015
</metadata>
<g transform="translate(0.000000,2048.000000) scale(0.192120,-0.192120)"
fill="#000000" stroke="none">
<path d="M3610 8645 c-620 -75 -1208 -343 -1750 -797 -137 -115 -395 -372
-515 -513 -404 -476 -704 -1043 -733 -1387 l-7 -81 -40 -12 c-133 -39 -235
-145 -235 -242 0 -104 63 -152 335 -253 457 -170 574 -191 1055 -191 418 0
820 26 1705 111 889 86 996 94 1385 110 618 25 1098 8 2140 -75 239 -19 509
-40 600 -47 161 -13 1122 -19 1134 -8 2 3 -2 48 -11 100 -27 158 1 320 85 488
20 40 41 77 48 82 7 7 26 5 54 -5 79 -28 155 6 295 134 195 178 433 324 634
390 77 25 81 25 81 6 0 -12 8 -14 43 -8 83 13 82 14 85 -47 2 -37 -8 -104 -32
-205 -19 -82 -46 -229 -60 -325 -23 -154 -26 -208 -26 -443 l0 -268 40 -162
c50 -200 61 -270 67 -419 4 -94 2 -118 -9 -118 -60 1 -301 76 -393 123 -77 39
-198 112 -336 202 -166 110 -220 136 -290 142 -136 13 -437 -92 -712 -248
-118 -67 -392 -251 -482 -324 -38 -32 -159 -126 -267 -211 -206 -161 -415
-350 -492 -444 -24 -31 -58 -82 -75 -114 -49 -93 -47 -117 45 -461 35 -132 37
-150 42 -327 4 -166 2 -189 -12 -194 -9 -4 -16 -18 -16 -34 0 -15 -7 -33 -15
-40 -44 -36 -264 59 -440 191 -137 103 -235 162 -302 184 -45 15 -60 15 -103
5 -71 -17 -202 -87 -352 -188 -656 -441 -1115 -646 -1635 -731 -652 -106
-1226 2 -1706 322 -400 268 -712 637 -986 1168 -172 333 -277 607 -431 1119
-18 58 -45 128 -61 157 -41 72 -149 169 -234 210 -105 52 -147 77 -155 93 -4
8 -14 30 -23 48 -9 19 -17 50 -17 70 0 20 -11 82 -25 137 -14 55 -25 101 -25
102 0 1 -13 -3 -30 -8 -76 -27 -113 -125 -114 -300 -1 -111 0 -117 29 -164 56
-90 179 -152 324 -163 l85 -7 27 -110 c148 -611 420 -1248 731 -1713 643 -962
1542 -1370 2626 -1191 599 99 1198 380 1831 858 84 64 162 122 172 130 17 12
27 5 111 -71 133 -120 192 -168 286 -232 226 -153 428 -207 548 -145 59 30
105 100 123 185 37 186 -12 516 -133 889 -25 76 -44 140 -43 141 1 0 79 69
174 152 568 497 889 735 1213 897 177 89 315 140 470 175 l85 19 70 -68 c316
-304 851 -530 1087 -459 52 15 94 64 102 121 10 63 -5 141 -74 392 -169 618
-170 836 -6 1427 74 266 80 293 80 375 0 82 -15 113 -75 148 -53 31 -213 27
-343 -8 -202 -55 -428 -169 -615 -309 -117 -87 -293 -261 -350 -346 l-42 -63
-170 116 c-219 149 -418 295 -1055 771 -286 214 -533 398 -549 409 l-28 21
114 43 c157 60 375 168 489 242 115 76 247 205 280 274 32 66 37 148 15 215
-34 103 -182 232 -371 322 l-89 43 -140 0 c-132 -1 -146 -3 -235 -33 -138 -48
-267 -114 -417 -214 -137 -92 -319 -236 -388 -307 -21 -22 -43 -41 -47 -41 -5
0 -52 28 -106 61 -655 414 -1334 686 -1883 754 -150 18 -488 18 -639 0z m649
-241 c414 -54 908 -232 1409 -508 65 -35 164 -84 222 -109 58 -25 143 -63 190
-85 126 -60 169 -69 228 -47 62 23 154 83 277 180 130 102 289 206 394 257 74
35 86 38 96 25 7 -9 16 -12 25 -7 31 16 162 40 223 40 83 0 177 -29 255 -79
76 -50 95 -77 87 -125 -14 -71 -103 -141 -361 -282 -190 -104 -252 -150 -327
-242 -91 -110 -99 -147 -56 -234 51 -101 150 -191 479 -437 91 -68 172 -132
180 -141 22 -26 545 -415 770 -574 107 -75 201 -145 208 -154 24 -32 4 -173
-43 -295 -8 -20 -15 -51 -15 -67 0 -20 -6 -31 -20 -35 -11 -3 -20 -15 -20 -25
0 -10 -7 -21 -16 -24 -30 -12 -453 -6 -809 11 -295 13 -381 14 -480 5 -252
-25 -402 -14 -657 48 -146 36 -260 46 -653 61 -286 11 -451 10 -1125 -7 -298
-7 -636 -30 -1150 -79 -958 -91 -1390 -119 -1840 -119 -419 -1 -570 20 -851
115 -182 61 -204 73 -218 117 -16 48 2 91 68 174 65 80 87 127 122 265 41 160
85 268 183 460 242 468 611 911 1038 1244 692 539 1444 771 2187 673z M5762
7520 c-104 -52 -158 -147 -150 -262 5 -74 29 -129 78 -178 58 -58 103 -75 200
-75 75 0 91 3 132 27 154 91 186 306 65 431 -57 58 -108 80 -192 85 -63 3 -77
0 -133 -28z M2215 6991 c-222 -58 -290 -324 -122 -478 104 -96 257 -95 365 2
69 62 96 127 90 220 -5 76 -21 115 -70 171 -59 67 -181 107 -263 85z M4813
6705 c-121 -33 -219 -112 -274 -223 -32 -64 -34 -72 -34 -177 0 -103 2 -114
32 -177 41 -88 113 -160 201 -201 63 -30 74 -32 177 -32 104 0 114 2 175 32
259 128 319 466 117 667 -108 108 -253 149 -394 111z m176 -251 c30 -8 64 -26
77 -39 22 -22 24 -33 24 -111 0 -77 -3 -91 -25 -120 -52 -68 -184 -84 -275
-33 -57 32 -70 62 -70 158 0 80 0 80 36 107 36 28 107 52 155 53 14 1 49 -6
78 -15z M6756 6429 c-65 -15 -155 -70 -203 -123 -192 -212 -125 -536 135 -659
62 -30 75 -32 172 -32 99 0 109 2 173 33 89 44 160 114 199 199 40 85 50 207
24 295 -60 208 -285 337 -500 287z m206 -260 c61 -31 68 -46 68 -147 0 -93 0
-94 -33 -127 -59 -59 -170 -70 -259 -24 -58 30 -78 69 -78 157 0 70 2 76 31
103 43 40 110 60 186 54 35 -2 73 -9 85 -16z M7009 5031 c-234 -75 -354 -345
-250 -567 141 -302 550 -327 731 -44 88 138 76 344 -27 471 -111 136 -292 192
-454 140z m239 -217 c20 -8 49 -27 65 -41 26 -26 27 -30 27 -136 0 -131 -13
-156 -98 -195 -106 -48 -261 -13 -313 71 -15 26 -19 51 -19 128 0 91 1 96 28
122 48 46 109 67 195 67 48 0 92 -6 115 -16z M5762 4744 c-203 -101 -202 -391
2 -496 49 -25 138 -34 193 -19 73 20 134 71 172 142 31 60 33 69 29 140 -7
114 -60 193 -163 240 -63 29 -168 26 -233 -7z m169 -204 c23 -13 26 -72 4 -90
-21 -18 -83 -15 -106 6 -27 24 -25 72 4 84 30 12 74 12 98 0z M4632 3920
c-294 -79 -468 -375 -394 -668 28 -108 70 -182 151 -262 135 -133 328 -188
510 -145 203 48 374 222 416 422 58 275 -91 545 -355 641 -93 34 -230 39 -328
12z m229 -204 c110 -24 195 -75 238 -146 19 -32 21 -50 21 -186 l0 -151 -31
-46 c-39 -59 -80 -93 -149 -126 -49 -23 -67 -26 -170 -26 -110 0 -118 1 -182
33 -70 34 -133 95 -162 156 -22 46 -23 284 -2 325 22 42 102 110 160 137 90
41 179 50 277 30z"/>
</g>
</svg>
