<?xml version="1.0" standalone="no"?>
<!DOCTYPE svg PUBLIC "-//W3C//DTD SVG 20010904//EN"
 "http://www.w3.org/TR/2001/REC-SVG-20010904/DTD/svg10.dtd">
<svg version="1.0" xmlns="http://www.w3.org/2000/svg"
 width="2048.000000pt" height="2048.000000pt" viewBox="0 0 2048.000000 2048.000000"
 preserveAspectRatio="xMidYMid meet">
<metadata>
Created by potrace 1.13, written by Peter Selinger 2001-2015
</metadata>
<g transform="translate(0.000000,2048.000000) scale(0.192120,-0.192120)"
fill="#000000" stroke="none">
<path d="M5090 10320 c-318 -33 -607 -118 -880 -259 -61 -32 -63 -34 -45 -48
32 -24 82 -43 114 -43 16 0 87 18 158 40 70 22 198 56 283 75 536 118 921 98
1519 -80 136 -41 172 -41 235 -4 20 12 36 22 36 24 0 6 -96 56 -184 96 -187
85 -410 149 -636 184 -124 19 -476 28 -600 15z M3091 10178 c-586 -44 -1208
-259 -1671 -576 -654 -448 -1018 -1066 -1081 -1838 -14 -168 -7 -1078 11
-1484 43 -984 141 -1657 306 -2097 116 -311 264 -480 451 -514 148 -28 342 60
535 240 l81 77 -2 139 c-4 272 62 893 155 1450 266 1613 747 2882 1401 3700
111 139 318 352 448 462 85 71 244 184 349 248 l29 17 -54 34 c-192 119 -554
173 -958 142z m333 -298 c38 -14 32 -41 -18 -97 -449 -498 -645 -781 -910
-1310 -530 -1061 -888 -2521 -1017 -4148 -6 -82 -16 -153 -21 -156 -5 -3 -14
-28 -21 -55 -10 -42 -19 -54 -60 -81 -104 -69 -206 -89 -282 -54 -185 86 -336
564 -424 1346 -55 478 -54 456 -58 1555 -3 751 -1 1056 7 1110 55 357 216 691
472 978 377 423 1011 749 1693 871 224 39 583 63 639 41z M7132 10180 c-207
-19 -414 -76 -522 -144 l-53 -34 29 -17 c219 -133 390 -271 584 -472 455 -471
826 -1122 1129 -1981 236 -668 437 -1545 550 -2392 60 -449 93 -816 90 -1013
l-2 -138 49 -50 c74 -77 210 -175 299 -219 186 -90 341 -70 482 63 286 270
467 1048 533 2287 28 530 39 1486 20 1715 -51 585 -283 1090 -689 1495 -479
478 -1199 804 -1966 890 -134 15 -416 20 -533 10z m523 -310 c737 -82 1434
-402 1865 -857 241 -255 390 -523 477 -858 l28 -110 0 -1155 c0 -1131 0 -1159
-23 -1370 -90 -853 -225 -1361 -403 -1514 -73 -62 -145 -61 -274 3 -44 22 -89
49 -99 60 -31 34 -48 138 -71 426 -86 1093 -349 2340 -682 3235 -311 833 -653
1422 -1131 1948 -62 67 -119 134 -128 147 -20 30 -13 52 18 59 33 7 317 -3
423 -14z M3787 6424 c-140 -34 -264 -129 -326 -251 -66 -133 -71 -168 -71
-563 0 -398 4 -431 67 -558 64 -130 174 -219 318 -257 73 -19 228 -22 310 -5
149 30 272 126 339 261 68 140 71 162 71 559 0 391 -3 414 -66 548 -37 77
-130 179 -198 215 -113 62 -308 84 -444 51z m297 -304 c35 -13 68 -35 91 -61
l36 -40 -3 -412 -3 -412 -27 -42 c-19 -29 -44 -49 -85 -69 -50 -25 -69 -28
-148 -28 -133 -1 -198 27 -256 107 l-29 40 0 405 0 405 26 34 c47 61 130 91
256 92 65 1 101 -4 142 -19z M6552 6420 c-184 -49 -310 -181 -369 -390 -16
-57 -18 -106 -18 -420 0 -397 3 -418 72 -560 88 -180 249 -271 483 -271 153 0
263 34 360 113 56 44 125 149 158 238 l27 75 3 378 c3 356 2 382 -18 453 -41
149 -122 265 -232 331 -116 70 -314 93 -466 53z m298 -296 c36 -11 67 -29 92
-54 l38 -38 0 -426 0 -426 -47 -49 c-59 -60 -106 -76 -223 -74 -137 1 -216 40
-256 127 -24 51 -24 52 -24 432 0 379 0 381 23 415 27 40 89 84 137 97 58 16
201 14 260 -4z M3820 4195 c-636 -121 -1106 -579 -1237 -1204 -22 -107 -26
-152 -26 -296 -1 -201 15 -304 73 -478 85 -253 205 -444 397 -628 351 -336
834 -484 1308 -402 50 9 107 22 128 29 l37 13 0 -68 c0 -135 48 -315 116 -440
101 -184 259 -306 469 -363 67 -18 108 -21 245 -21 192 0 270 16 410 84 107
53 236 176 296 284 74 134 124 317 124 454 l0 67 92 -23 c387 -98 840 -10
1193 231 151 103 326 284 427 442 92 144 185 386 215 562 20 119 22 365 4 477
-67 408 -275 756 -598 999 -200 150 -415 240 -686 287 -107 18 -172 19 -1487
18 l-1375 -1 -125 -23z m2030 -142 c96 -8 330 -19 520 -23 190 -4 374 -13 410
-19 215 -38 421 -119 602 -237 92 -60 246 -215 316 -317 69 -100 153 -276 189
-397 27 -92 28 -102 28 -320 0 -197 -2 -230 -18 -265 -10 -22 -31 -76 -47
-120 -80 -230 -241 -504 -371 -633 -149 -146 -356 -255 -603 -315 -82 -20
-118 -22 -356 -23 -146 0 -272 -1 -281 -2 -28 -3 -66 -50 -79 -97 -7 -25 -16
-47 -19 -50 -12 -7 -151 45 -244 91 -188 95 -372 243 -500 404 -33 41 -63 75
-67 75 -4 0 -34 -34 -67 -75 -82 -103 -211 -223 -321 -298 -150 -103 -417
-221 -426 -189 -21 72 -42 111 -70 128 -29 18 -45 19 -256 13 -187 -5 -242 -3
-325 11 -180 30 -370 104 -510 198 -83 56 -124 93 -240 218 -127 136 -204 263
-287 469 l-63 155 -3 269 c-3 263 -3 270 23 360 47 170 195 425 323 559 112
118 298 241 455 301 225 85 301 96 732 106 193 5 400 13 460 20 301 31 760 33
1095 3z m-460 -2581 c14 -9 48 -36 75 -62 111 -103 263 -210 368 -261 l47 -23
0 -81 c0 -62 -6 -96 -24 -142 -82 -209 -252 -306 -531 -305 -265 2 -433 91
-522 278 -31 64 -37 91 -41 158 l-4 81 59 30 c123 62 223 133 363 254 119 103
147 113 210 73z M5076 3860 c-331 -38 -562 -133 -617 -255 -70 -153 65 -420
361 -715 223 -224 392 -334 511 -334 108 -1 283 109 483 303 255 248 407 497
406 666 -1 152 -183 262 -530 320 -112 19 -494 28 -614 15z m519 -271 c116
-12 249 -41 311 -69 44 -19 44 -19 44 -72 0 -44 -7 -65 -39 -120 -133 -227
-414 -481 -558 -504 -86 -13 -211 59 -378 218 -164 156 -265 301 -280 400 -6
41 -5 48 16 62 33 21 179 62 274 76 184 28 391 31 610 9z M1744 3758 c10 -111
41 -291 72 -413 98 -388 271 -683 511 -867 63 -49 191 -123 198 -116 5 5 -85
139 -209 313 -235 331 -316 515 -391 897 -25 124 -42 190 -57 211 -22 31 -72
57 -109 57 -21 0 -21 -2 -15 -82z M8860 3833 c-56 -21 -77 -67 -116 -264 -72
-357 -160 -578 -307 -771 -75 -97 -87 -114 -210 -292 -54 -77 -95 -141 -93
-143 7 -8 120 54 181 99 148 110 285 279 383 475 104 207 194 548 218 821 7
82 7 82 -17 81 -13 0 -31 -3 -39 -6z"/>
</g>
</svg>
