<?xml version="1.0" standalone="no"?>
<!DOCTYPE svg PUBLIC "-//W3C//DTD SVG 20010904//EN"
 "http://www.w3.org/TR/2001/REC-SVG-20010904/DTD/svg10.dtd">
<svg version="1.0" xmlns="http://www.w3.org/2000/svg"
 width="2048.000000pt" height="2048.000000pt" viewBox="0 0 2048.000000 2048.000000"
 preserveAspectRatio="xMidYMid meet">
<metadata>
Created by potrace 1.13, written by Peter Selinger 2001-2015
</metadata>
<g transform="translate(0.000000,2048.000000) scale(0.192120,-0.192120)"
fill="#000000" stroke="none">
<path d="M934 10315 c-25 -64 166 -820 423 -1670 315 -1046 718 -2224 1022
-2983 172 -428 359 -844 461 -1023 27 -49 50 -92 50 -95 0 -3 -37 -47 -83 -97
-590 -655 -958 -1366 -1064 -2057 -24 -158 -24 -540 0 -689 93 -572 374 -969
852 -1205 254 -126 395 -161 650 -160 239 0 302 11 990 172 394 93 706 139
812 121 105 -18 404 -23 560 -10 129 11 163 11 268 -4 179 -24 394 -68 744
-151 381 -91 563 -123 741 -131 249 -10 453 36 705 162 592 295 895 857 872
1615 -6 187 -20 303 -58 478 -129 595 -480 1240 -984 1810 -60 68 -114 129
-118 135 -5 7 18 60 57 132 312 571 811 1888 1295 3415 306 968 566 1916 597
2182 6 50 4 59 -11 64 -61 24 -482 -197 -865 -455 -884 -593 -1553 -1300
-1844 -1947 -108 -239 -246 -662 -336 -1029 -106 -434 -163 -811 -177 -1187
-3 -93 -9 -167 -12 -165 -3 2 -71 35 -151 74 -725 353 -1279 353 -2000 0 -80
-40 -148 -73 -152 -75 -5 -2 -8 36 -8 85 0 197 -36 539 -85 823 -92 524 -293
1193 -465 1545 -270 552 -792 1128 -1506 1661 -366 273 -816 548 -1056 643
-85 34 -116 38 -124 16z m513 -486 c769 -458 1496 -1121 1855 -1692 176 -279
303 -608 465 -1202 36 -129 36 -132 40 -375 3 -135 2 -243 -1 -240 -2 3 -27
73 -55 155 -139 414 -211 591 -350 860 -213 412 -489 774 -893 1171 -237 232
-448 402 -570 459 -104 49 -175 29 -250 -70 l-38 -50 0 -195 -1 -195 -38 110
c-21 61 -42 119 -48 130 -23 43 -124 360 -187 585 -128 462 -151 566 -147 643
l1 27 42 -21 c24 -12 102 -57 175 -100z m7970 22 c-16 -146 -246 -950 -362
-1266 -20 -55 -41 -111 -45 -125 -5 -15 -9 61 -9 183 -1 204 -1 208 -26 247
-39 62 -98 100 -155 100 -231 0 -979 -715 -1363 -1303 -236 -360 -359 -629
-538 -1167 l-78 -235 2 250 2 250 48 185 c56 215 189 623 253 778 232 554 732
1125 1479 1687 204 153 535 371 710 466 82 45 91 40 82 -50z m-7521 -1027
c186 -116 499 -392 710 -625 324 -357 531 -647 709 -994 207 -404 431 -1135
520 -1700 l24 -150 -22 -15 c-267 -186 -434 -316 -620 -485 -65 -59 -120 -105
-122 -103 -9 9 -202 478 -273 663 -286 747 -594 1672 -837 2520 -125 433 -225
844 -225 921 0 39 37 30 136 -32z m7004 32 c0 -77 -98 -477 -225 -921 -243
-845 -569 -1828 -844 -2536 -72 -186 -258 -639 -266 -648 -2 -1 -61 49 -132
113 -160 144 -332 282 -486 389 -66 45 -125 87 -132 92 -11 8 -11 27 1 110 72
478 252 1120 441 1564 235 556 740 1199 1293 1648 156 127 290 213 331 213 13
0 19 -7 19 -24z m-3255 -3220 c147 -31 288 -76 488 -157 189 -76 230 -89 290
-89 56 0 74 8 141 63 26 22 58 41 71 42 21 0 24 -5 28 -45 4 -43 14 -76 44
-147 23 -55 113 -142 258 -252 77 -58 197 -153 266 -211 121 -101 228 -170
264 -170 9 0 19 -9 22 -21 4 -16 12 -20 29 -16 20 4 24 0 24 -22 1 -14 7 -37
15 -51 8 -14 14 -33 15 -44 0 -26 54 -130 105 -201 40 -57 216 -266 278 -330
150 -156 439 -641 507 -850 7 -22 32 -92 56 -155 51 -140 84 -249 119 -398
l26 -112 -3 -438 c-4 -486 -1 -458 -81 -667 -130 -340 -433 -616 -811 -740
-142 -46 -230 -59 -391 -59 -154 1 -304 20 -495 64 -216 49 -272 76 -240 115
8 10 57 49 110 87 141 105 313 281 399 411 107 164 168 298 212 472 19 71 20
103 17 315 -4 234 -4 235 -36 330 -62 181 -140 322 -252 458 -52 64 -118 104
-295 182 -172 75 -277 135 -377 212 -35 27 -110 84 -167 127 -254 193 -525
270 -948 271 -283 0 -509 -38 -685 -115 -74 -33 -122 -66 -342 -239 -146 -114
-233 -171 -399 -258 -214 -112 -257 -145 -333 -246 -109 -147 -195 -332 -229
-495 -21 -96 -20 -438 1 -527 44 -187 146 -393 279 -565 79 -102 256 -271 357
-342 85 -59 98 -88 56 -115 -40 -26 -353 -97 -563 -129 -120 -18 -353 -16
-458 5 -239 46 -511 186 -685 350 -180 170 -312 413 -367 674 -21 103 -22 771
-1 882 65 338 190 656 399 1020 113 198 319 492 428 614 125 139 226 285 248
356 7 25 17 55 22 68 5 13 9 39 9 58 0 32 2 34 25 28 19 -5 25 -2 25 9 0 9 13
18 33 22 50 10 142 70 267 175 63 53 178 144 255 201 229 173 293 257 313 414
9 67 28 69 94 10 114 -102 159 -102 428 7 269 110 447 163 625 187 121 17 374
5 510 -23z m20 -2160 c192 -35 339 -93 417 -163 31 -29 69 -48 138 -72 202
-70 418 -192 582 -328 446 -371 589 -900 369 -1369 -183 -390 -629 -722 -1139
-848 -154 -38 -157 -38 -181 -12 -12 12 -43 33 -69 47 -46 24 -52 24 -322 25
-151 0 -308 4 -347 8 -92 10 -160 -5 -216 -48 -23 -18 -47 -35 -54 -39 -13 -8
-98 10 -218 47 -318 96 -589 258 -800 478 -248 257 -357 528 -342 846 10 209
60 359 182 547 164 253 440 471 775 610 48 20 77 41 112 80 95 105 285 175
578 209 84 10 449 -3 535 -18z M3705 3976 c-116 -28 -232 -124 -283 -233 -38
-84 -43 -217 -11 -307 42 -121 134 -213 255 -255 90 -32 223 -27 307 11 121
56 216 181 239 316 49 289 -220 538 -507 468z m212 -302 c26 -19 28 -27 31
-96 3 -69 1 -78 -23 -106 -56 -67 -184 -68 -254 -3 -29 27 -31 34 -31 99 0 77
9 93 65 118 47 22 176 14 212 -12z M6750 3975 c-258 -72 -383 -362 -259 -596
40 -74 122 -152 196 -187 52 -24 69 -27 168 -27 103 0 114 2 177 32 93 44 151
100 196 191 36 74 37 79 37 187 0 104 -2 114 -32 176 -87 177 -299 275 -483
224z m210 -295 l40 -20 0 -81 c0 -44 -5 -89 -11 -101 -13 -24 -84 -58 -124
-58 -53 0 -108 21 -142 55 -31 31 -33 38 -33 97 0 50 4 69 18 81 54 49 182 63
252 27z M6120 3107 c-19 -20 -44 -55 -56 -79 -12 -24 -38 -79 -60 -123 -32
-67 -56 -98 -149 -191 -153 -153 -292 -238 -445 -270 -179 -37 -393 53 -600
253 -101 98 -111 112 -190 261 -48 92 -100 156 -114 141 -11 -11 27 -149 60
-219 119 -252 422 -492 691 -547 65 -13 81 -13 146 0 270 55 571 294 692 548
35 74 69 204 63 242 -3 16 -7 14 -38 -16z M5025 2160 c-291 -16 -507 -87 -589
-194 -66 -87 -66 -88 -66 -320 0 -248 14 -342 65 -454 58 -125 189 -230 335
-268 36 -9 79 -22 95 -29 123 -52 927 -41 999 14 6 4 40 18 76 31 136 48 234
133 293 252 52 105 67 206 67 453 0 237 -3 250 -88 335 -91 90 -196 132 -420
165 -117 18 -557 26 -767 15z m510 -124 c321 -11 600 -88 621 -172 11 -45 -4
-434 -20 -514 -42 -208 -144 -295 -386 -331 -116 -17 -724 -17 -840 0 -330 49
-410 184 -410 691 0 159 0 161 25 186 50 50 193 95 390 125 80 11 383 27 440
22 17 -1 98 -4 180 -7z"/>
</g>
</svg>
