<?xml version="1.0" standalone="no"?>
<!DOCTYPE svg PUBLIC "-//W3C//DTD SVG 20010904//EN"
 "http://www.w3.org/TR/2001/REC-SVG-20010904/DTD/svg10.dtd">
<svg version="1.0" xmlns="http://www.w3.org/2000/svg"
 width="2048.000000pt" height="2048.000000pt" viewBox="0 0 2048.000000 2048.000000"
 preserveAspectRatio="xMidYMid meet">
<metadata>
Created by potrace 1.13, written by Peter Selinger 2001-2015
</metadata>
<g transform="translate(0.000000,2048.000000) scale(0.192120,-0.192120)"
fill="#000000" stroke="none">
<path d="M734 9986 c-104 -45 -237 -459 -318 -986 -126 -821 -85 -1544 109
-1945 53 -110 142 -238 240 -342 l72 -78 -30 -65 c-55 -122 -155 -385 -207
-545 -346 -1069 -359 -2215 -34 -3043 94 -240 252 -513 410 -712 92 -115 298
-320 414 -412 657 -520 1566 -818 2825 -927 368 -32 485 -36 1110 -36 646 0
784 5 1175 41 1226 112 2126 410 2760 914 125 99 330 302 424 420 168 210 343
524 434 776 336 930 266 2202 -182 3319 -35 88 -74 183 -87 212 l-22 52 79 84
c264 279 377 584 415 1127 42 598 -85 1543 -265 1969 -45 108 -78 156 -118
177 -70 36 -334 1 -622 -82 -584 -169 -1207 -461 -1606 -752 l-55 -40 -95 56
c-139 81 -454 232 -615 295 -364 143 -728 234 -1125 284 -115 14 -217 18 -490
18 -370 0 -491 -10 -770 -61 -505 -93 -1042 -290 -1456 -535 -81 -48 -90 -51
-110 -38 -13 8 -69 46 -126 85 -424 292 -1101 589 -1653 725 -234 57 -413 74
-481 45z m297 -196 c253 -44 669 -181 1028 -339 52 -23 175 -83 275 -133 100
-51 213 -107 251 -126 39 -19 79 -42 90 -52 27 -23 199 -123 250 -145 48 -20
126 -23 181 -5 21 7 121 52 221 101 227 111 357 166 547 235 915 334 1879 349
2791 42 127 -42 322 -118 445 -173 58 -25 130 -55 160 -66 30 -11 75 -29 100
-41 84 -39 175 -75 224 -87 71 -18 135 1 274 77 210 116 563 293 742 372 490
217 1067 385 1183 345 84 -29 132 -120 197 -373 17 -64 37 -142 46 -172 35
-121 53 -205 76 -351 22 -148 23 -175 23 -739 0 -569 -1 -588 -22 -688 -53
-242 -142 -444 -266 -598 -39 -49 -91 -118 -115 -154 l-44 -65 5 -80 c5 -86
48 -214 129 -385 91 -191 212 -618 268 -945 57 -335 62 -408 58 -927 -4 -433
-6 -484 -27 -608 -129 -783 -466 -1362 -1036 -1785 -421 -311 -958 -537 -1525
-640 -41 -8 -136 -25 -210 -39 -419 -78 -1117 -152 -1660 -177 -960 -43 -2465
128 -3129 356 -715 246 -1234 620 -1588 1145 -202 301 -347 686 -417 1111 -26
154 -26 162 -26 697 0 493 2 554 21 684 58 407 165 816 316 1208 66 171 103
291 103 331 0 57 -25 105 -120 229 -147 193 -220 350 -278 595 -25 110 -25
110 -29 665 -5 571 -3 606 38 875 40 263 116 583 164 691 43 96 99 152 156
154 9 0 68 -9 130 -20z M1060 9188 c-97 -51 -175 -454 -200 -1035 -16 -364 6
-752 61 -1097 12 -71 24 -138 28 -149 6 -16 22 7 78 115 292 557 779 1161
1268 1573 44 37 81 71 83 75 3 9 -175 108 -363 203 -435 217 -868 360 -955
315z m317 -277 c145 -48 336 -126 483 -199 119 -59 135 -70 138 -94 3 -22 -21
-52 -154 -190 -262 -273 -452 -502 -686 -832 -51 -70 -74 -88 -89 -65 -5 8 -9
247 -9 533 0 423 3 537 16 620 20 128 41 214 61 245 14 22 19 23 82 18 36 -3
107 -20 158 -36z M9445 9184 c-185 -41 -518 -170 -797 -310 -191 -95 -370
-195 -366 -203 2 -5 37 -36 78 -70 477 -398 982 -1023 1272 -1578 38 -73 71
-133 73 -133 10 0 56 293 74 477 70 698 -19 1693 -163 1812 -24 20 -93 22
-171 5z m73 -276 c11 -24 29 -79 39 -123 16 -73 18 -134 18 -665 0 -380 -4
-587 -10 -590 -11 -5 -77 76 -225 276 -136 184 -325 407 -486 574 -222 231
-228 244 -139 292 83 45 292 138 430 190 155 58 255 87 312 87 39 1 42 -1 61
-41z M2125 6141 c-97 -28 -165 -69 -241 -145 -139 -139 -193 -326 -149 -512
54 -230 234 -391 476 -427 156 -22 335 40 452 157 143 143 197 337 147 530
-27 107 -63 169 -145 252 -76 77 -155 124 -252 149 -76 20 -213 18 -288 -4z
m289 -300 c57 -25 95 -53 118 -89 15 -22 18 -49 18 -143 0 -115 0 -117 -32
-165 -49 -73 -118 -107 -228 -112 -99 -5 -169 16 -234 70 -59 48 -76 95 -76
212 0 86 3 104 21 130 34 48 77 79 148 104 82 28 192 26 265 -7z M8235 6141
c-335 -96 -499 -470 -343 -782 78 -156 219 -261 397 -296 283 -56 568 132 636
421 44 186 -10 373 -149 512 -77 77 -157 124 -253 149 -76 20 -213 18 -288 -4z
m309 -310 c36 -18 75 -46 90 -65 25 -33 26 -41 26 -151 0 -135 -10 -167 -71
-219 -136 -116 -397 -75 -476 74 -22 41 -24 55 -21 152 l3 107 35 36 c73 75
160 107 277 101 56 -2 87 -10 137 -35z M4910 5463 c-1038 -36 -1624 -187
-1977 -508 -124 -112 -238 -292 -297 -469 -149 -446 -94 -1109 136 -1646 295
-689 862 -1188 1595 -1404 601 -178 1325 -178 1926 0 821 242 1425 832 1686
1647 128 402 163 872 91 1228 -155 766 -778 1089 -2215 1148 -177 8 -776 10
-945 4z m1268 -207 c817 -70 1263 -230 1511 -544 89 -111 141 -215 188 -372
l37 -125 4 -320 c4 -347 0 -398 -49 -596 -67 -278 -138 -432 -336 -737 -355
-546 -943 -904 -1668 -1016 -271 -41 -740 -47 -995 -11 -691 96 -1218 369
-1606 831 -199 238 -332 488 -429 809 -71 234 -75 269 -75 714 0 397 0 399 25
486 50 172 150 335 273 445 272 244 722 381 1432 435 304 23 289 22 920 20
430 -2 634 -7 768 -19z M3920 4145 c-138 -39 -208 -140 -241 -350 -18 -113
-15 -505 4 -615 32 -179 95 -278 206 -322 48 -19 75 -22 191 -22 116 0 143 3
191 22 111 44 176 146 204 317 31 195 26 544 -10 702 -31 133 -98 224 -191
258 -69 25 -278 31 -354 10z m287 -271 l28 -21 3 -337 c3 -369 0 -387 -57
-424 -39 -26 -181 -24 -218 4 -62 46 -64 55 -61 416 3 298 5 329 21 345 31 31
78 43 169 40 70 -2 92 -6 115 -23z M6420 4145 c-138 -39 -208 -140 -241 -350
-18 -113 -15 -505 4 -615 32 -179 95 -278 206 -322 48 -19 75 -22 191 -22 116
0 143 3 191 22 111 44 176 146 204 317 31 195 26 544 -10 702 -31 133 -98 224
-191 258 -69 25 -278 31 -354 10z m287 -271 l28 -21 3 -337 c3 -369 0 -387
-57 -424 -39 -26 -181 -24 -218 4 -62 46 -64 55 -61 416 3 298 5 329 21 345
31 31 78 43 169 40 70 -2 92 -6 115 -23z"/>
</g>
</svg>
