<?xml version="1.0" standalone="no"?>
<!DOCTYPE svg PUBLIC "-//W3C//DTD SVG 20010904//EN"
 "http://www.w3.org/TR/2001/REC-SVG-20010904/DTD/svg10.dtd">
<svg version="1.0" xmlns="http://www.w3.org/2000/svg"
 width="2048.000000pt" height="2048.000000pt" viewBox="0 0 2048.000000 2048.000000"
 preserveAspectRatio="xMidYMid meet">
<metadata>
Created by potrace 1.13, written by Peter Selinger 2001-2015
</metadata>
<g transform="translate(0.000000,2048.000000) scale(0.192120,-0.192120)"
fill="#000000" stroke="none">
<path d="M1185 10308 c-5 -27 -67 -426 -89 -578 -48 -334 -100 -810 -128
-1170 -8 -101 -13 -346 -13 -630 0 -492 7 -598 56 -845 63 -317 176 -526 325
-600 33 -16 60 -30 62 -31 2 -1 -22 -71 -53 -155 -162 -441 -309 -1026 -400
-1598 l-35 -213 357 -363 357 -362 69 18 c38 10 112 25 165 34 54 9 108 18
121 21 l23 5 -4 604 c-2 333 -1 605 2 604 3 0 73 -114 156 -252 83 -139 238
-395 345 -570 l194 -319 70 6 c130 12 569 26 803 26 349 0 451 -28 575 -159
74 -78 119 -162 180 -331 25 -69 54 -148 65 -176 17 -42 19 -58 10 -100 -20
-101 13 -276 74 -397 65 -130 168 -251 281 -331 310 -221 814 -226 1135 -12
230 153 376 411 376 661 -1 68 -6 115 -17 146 l-17 47 50 137 c98 267 179 384
314 450 128 63 172 68 596 62 206 -4 465 -11 575 -18 167 -10 201 -9 208 2 4
8 145 239 313 514 168 275 319 526 337 557 17 32 34 58 37 58 3 0 4 -274 2
-609 l-4 -610 38 -6 c32 -5 216 -42 312 -63 18 -4 80 55 380 358 347 353 357
364 354 399 -6 70 -74 469 -108 636 -77 371 -199 811 -316 1134 -33 89 -58
164 -56 165 2 1 29 15 60 30 185 88 306 370 365 846 28 226 25 998 -5 1355
-38 443 -87 854 -157 1305 -52 331 -52 330 -57 335 -6 6 -158 -61 -376 -166
-752 -361 -1354 -807 -1608 -1189 l-46 -69 -68 44 c-695 445 -1661 637 -2602
515 -526 -68 -1025 -238 -1443 -494 l-104 -64 -45 68 c-238 358 -787 777
-1476 1124 -152 77 -492 236 -504 236 -3 0 -8 -10 -11 -22z m380 -441 c375
-184 742 -411 1000 -618 66 -53 192 -167 280 -253 174 -170 305 -269 374 -281
61 -10 126 13 370 134 121 60 257 123 303 141 412 160 773 236 1241 260 530
28 1082 -53 1547 -227 126 -47 232 -95 422 -192 185 -94 274 -125 336 -116 49
7 160 79 237 152 28 26 52 48 55 48 3 1 43 40 90 89 266 276 721 587 1240 846
163 82 200 95 217 77 18 -18 37 -125 78 -427 68 -514 66 -472 63 -1475 -2
-676 -6 -916 -15 -935 -9 -20 -12 72 -12 435 l-1 460 -30 185 c-64 389 -172
878 -220 993 -25 59 -44 87 -95 136 -63 60 -115 91 -154 91 -44 0 -182 -53
-276 -106 -366 -207 -663 -463 -760 -658 -48 -95 -54 -133 -30 -200 20 -55 94
-160 210 -295 213 -246 292 -348 412 -526 80 -120 207 -327 273 -448 62 -112
136 -200 210 -247 29 -19 50 -39 50 -50 0 -22 19 -30 69 -30 74 0 164 82 268
245 l44 70 -3 -115 c-3 -93 -8 -124 -25 -161 -30 -63 -92 -155 -167 -247 -130
-162 -135 -219 -38 -457 105 -259 255 -805 283 -1027 6 -46 24 -168 40 -273
16 -104 29 -226 29 -271 l0 -80 -233 -231 c-194 -193 -239 -233 -274 -242 -55
-15 -73 -7 -73 35 0 18 -6 37 -14 41 -12 7 -15 72 -18 373 -5 396 -10 436 -64
521 -32 51 -88 104 -133 125 -31 15 -37 15 -80 -2 -66 -24 -189 -153 -271
-282 -123 -194 -242 -377 -249 -382 -4 -3 -40 -54 -80 -115 -138 -207 -122
-200 -406 -191 -323 10 -691 8 -791 -4 -112 -14 -247 -59 -321 -106 -86 -55
-214 -191 -258 -275 -50 -96 -54 -149 -21 -308 14 -68 26 -128 26 -134 0 -5
-23 14 -52 42 -85 85 -234 145 -463 187 -145 27 -605 27 -750 0 -280 -51 -453
-137 -515 -256 l-19 -35 -1 50 c0 28 7 88 15 135 21 119 19 185 -8 250 -48
116 -178 271 -287 343 -69 45 -209 92 -320 107 -56 8 -201 11 -425 9 -597 -6
-570 -7 -602 17 -43 32 -87 94 -237 341 -77 125 -158 255 -180 288 -120 182
-220 286 -310 320 -41 16 -46 16 -80 0 -45 -21 -129 -102 -151 -145 -46 -88
-48 -109 -52 -494 -5 -352 -6 -369 -24 -373 -15 -4 -19 -14 -19 -44 0 -34 -3
-39 -22 -39 -57 1 -110 43 -329 258 l-224 220 1 83 c3 209 166 933 318 1409
119 374 124 406 82 495 -13 28 -65 102 -116 165 -51 63 -108 146 -127 185 -31
66 -33 75 -33 183 0 125 5 131 46 49 52 -102 143 -205 213 -241 16 -9 48 -16
71 -16 33 0 40 3 40 19 0 12 17 29 46 46 79 46 154 132 218 251 187 345 393
641 661 950 80 93 164 195 186 228 45 67 74 154 66 200 -15 93 -154 291 -277
396 -170 144 -317 248 -490 347 -184 105 -276 136 -345 113 -51 -17 -171 -132
-202 -194 -33 -66 -74 -209 -113 -399 -17 -84 -35 -168 -40 -187 -12 -46 -53
-289 -79 -462 -19 -122 -21 -186 -22 -620 -1 -430 -3 -477 -15 -428 -11 43
-15 243 -20 955 l-6 900 26 230 c48 415 95 728 112 757 12 19 59 3 199 -65z
m253 -696 c304 -153 630 -389 788 -570 101 -116 105 -93 -37 -239 -311 -318
-566 -673 -813 -1127 -42 -77 -84 -159 -92 -182 -9 -24 -19 -43 -23 -43 -21 0
-76 47 -102 87 -71 113 -94 261 -86 563 9 374 73 769 239 1462 13 54 24 98 26
98 1 0 46 -22 100 -49z m7166 -114 c151 -636 214 -1027 223 -1392 8 -306 -15
-454 -86 -568 -26 -40 -81 -87 -102 -87 -4 0 -14 19 -24 43 -24 62 -167 323
-258 472 -192 315 -402 586 -646 837 l-124 128 29 41 c92 134 336 338 593 497
94 58 338 191 351 192 3 0 22 -73 44 -163z m-3309 -5731 c122 -21 199 -42 254
-69 l46 -23 3 -148 3 -147 -33 -67 c-46 -97 -143 -189 -250 -241 -107 -52
-186 -70 -328 -78 -190 -9 -351 31 -492 124 -85 56 -140 118 -184 209 -33 70
-34 73 -34 203 l0 131 33 20 c66 41 263 89 427 104 100 9 468 -3 555 -18z
M3778 6144 c-165 -39 -284 -153 -354 -334 l-29 -75 0 -405 0 -405 29 -75 c91
-238 256 -350 516 -350 282 0 460 136 537 410 16 57 18 107 18 420 0 341 -1
358 -23 435 -60 206 -187 336 -373 380 -79 18 -244 18 -321 -1z m331 -256 c67
-25 137 -93 146 -140 3 -18 5 -216 3 -439 l-3 -406 -37 -55 c-44 -67 -111
-104 -212 -119 -166 -23 -304 32 -375 151 -20 34 -21 46 -21 451 l0 416 26 39
c15 21 34 45 43 52 32 26 124 65 175 72 73 12 192 1 255 -22z M6556 6144
c-181 -44 -309 -176 -368 -379 -22 -77 -23 -94 -23 -435 0 -341 1 -358 23
-435 60 -206 187 -336 373 -380 82 -19 236 -19 317 0 168 40 287 151 358 335
l29 75 0 405 0 405 -29 75 c-71 184 -190 295 -358 335 -79 18 -244 18 -322 -1z
m312 -250 c57 -17 117 -59 142 -99 19 -31 20 -50 20 -458 0 -234 -4 -436 -9
-449 -5 -13 -27 -44 -50 -70 -59 -66 -126 -90 -251 -90 -153 0 -241 39 -302
136 l-33 51 -3 403 c-3 444 -4 435 61 502 39 41 122 80 191 90 62 10 175 2
234 -16z M612 4758 c16 -64 193 -559 195 -548 2 8 -3 77 -11 154 -14 148 -10
192 23 237 l21 28 -28 19 c-45 32 -191 122 -198 122 -3 0 -4 -6 -2 -12z
M10015 4756 c-11 -8 -60 -39 -108 -70 l-88 -56 21 -28 c34 -46 39 -90 24 -234
-8 -73 -13 -142 -12 -153 2 -15 177 470 196 543 4 15 -7 15 -33 -2z M906 4430
c-39 -220 -20 -523 50 -802 13 -53 29 -109 34 -123 l10 -27 49 44 c26 23 78
59 114 78 37 19 67 39 67 44 0 7 -280 734 -309 801 -7 17 -9 15 -15 -15z
M9710 4372 c-18 -48 -91 -235 -161 -416 -71 -181 -129 -331 -129 -335 0 -3 29
-22 63 -41 34 -19 85 -58 114 -85 l53 -51 19 61 c82 251 122 587 97 823 -7 67
-15 124 -18 127 -2 3 -19 -34 -38 -83z M952 3425 c-64 -78 -80 -196 -41 -302
23 -61 94 -176 128 -207 20 -18 19 -19 -67 -192 l-87 -175 35 -27 c19 -15 394
-326 833 -692 l798 -665 427 -123 c705 -202 1135 -322 1139 -318 2 2 -13 14
-34 27 -21 13 -100 63 -176 112 -76 48 -164 101 -195 117 -31 15 -241 80 -467
145 -499 142 -568 166 -659 225 -75 50 -480 383 -544 448 -42 43 -447 382
-457 382 -16 0 -392 318 -432 366 -42 49 -43 97 -7 209 35 107 30 172 -21 280
-48 104 -81 207 -87 270 -3 28 -16 75 -29 105 l-25 54 -32 -39z M9622 3362
c-18 -38 -41 -103 -52 -144 -11 -42 -34 -111 -52 -154 -47 -118 -48 -175 -4
-299 41 -114 45 -164 16 -210 -23 -38 -169 -160 -364 -304 -214 -159 -326
-253 -506 -426 -107 -103 -506 -436 -583 -486 -71 -46 -111 -59 -597 -198
-410 -117 -493 -145 -580 -193 -67 -37 -341 -208 -355 -221 -13 -12 -89 -33
797 219 l766 217 803 670 c442 368 817 680 834 693 l30 23 -94 189 -94 188 46
66 c106 155 119 312 35 421 -13 18 -17 14 -46 -51z M5180 1721 c-146 -149
-283 -246 -480 -339 -246 -117 -444 -170 -778 -208 l-43 -5 17 -27 c133 -210
315 -400 499 -523 106 -71 297 -166 410 -204 218 -73 472 -100 703 -74 518 57
964 341 1256 800 l16 26 -87 7 c-370 29 -724 148 -1018 344 -122 81 -275 216
-330 291 -16 22 -32 40 -35 40 -3 -1 -61 -58 -130 -128z m180 -262 c19 -12 56
-39 81 -60 74 -61 257 -181 357 -233 100 -51 120 -73 101 -108 -12 -22 -11
-22 22 3 19 14 54 38 80 52 l45 27 79 -47 c44 -25 101 -52 128 -59 82 -21 97
-49 53 -101 -48 -57 -328 -211 -481 -264 -284 -98 -695 -99 -985 -2 -89 29
-279 122 -383 187 -73 46 -127 105 -127 139 0 20 33 43 75 53 39 9 77 28 143
72 l53 34 69 -46 c38 -25 72 -46 75 -46 3 0 1 9 -5 21 -15 28 7 52 85 91 90
46 208 123 322 210 138 106 155 112 213 77z M5020 937 c3 -3 37 -13 75 -22
101 -24 267 -30 377 -15 98 13 171 34 88 25 -173 -18 -395 -13 -515 11 -16 4
-28 4 -25 1z M5618 933 c6 -2 18 -2 25 0 6 3 1 5 -13 5 -14 0 -19 -2 -12 -5z"/>
</g>
</svg>
