<?xml version="1.0" standalone="no"?>
<!DOCTYPE svg PUBLIC "-//W3C//DTD SVG 20010904//EN"
 "http://www.w3.org/TR/2001/REC-SVG-20010904/DTD/svg10.dtd">
<svg version="1.0" xmlns="http://www.w3.org/2000/svg"
 width="2048.000000pt" height="2048.000000pt" viewBox="0 0 2048.000000 2048.000000"
 preserveAspectRatio="xMidYMid meet">
<metadata>
Created by potrace 1.13, written by Peter Selinger 2001-2015
</metadata>
<g transform="translate(0.000000,2048.000000) scale(0.192120,-0.192120)"
fill="#000000" stroke="none">
<path d="M5682 10180 c-62 -25 -206 -147 -307 -260 -237 -265 -449 -673 -615
-1185 -50 -156 -135 -475 -160 -605 l-13 -65 -161 -100 c-88 -55 -507 -331
-929 -613 -997 -666 -1183 -783 -1462 -919 -135 -66 -246 -106 -327 -118 -46
-7 -49 -6 -102 41 -72 64 -148 109 -238 142 -65 23 -88 26 -213 26 -128 0
-147 -2 -220 -28 -113 -39 -199 -87 -293 -162 -234 -187 -347 -457 -299 -712
33 -172 122 -326 282 -488 224 -226 541 -418 1050 -638 170 -74 206 -93 238
-128 21 -23 105 -141 187 -263 309 -459 470 -644 690 -790 251 -167 477 -201
742 -111 239 81 479 273 741 592 111 136 155 173 224 194 90 27 179 -3 588
-198 307 -145 416 -213 576 -354 170 -150 311 -374 366 -583 24 -91 26 -118
27 -290 0 -161 -3 -206 -23 -295 -90 -419 -325 -862 -713 -1347 -139 -174
-226 -272 -402 -450 l-140 -143 1661 0 1660 0 21 58 c28 75 79 134 145 166 28
14 110 36 180 50 198 39 262 76 309 180 19 43 23 67 23 156 -1 92 -6 123 -41
250 -50 177 -59 242 -44 317 24 117 136 270 238 326 27 14 90 42 142 62 285
109 375 184 387 325 7 79 -9 165 -67 347 -68 212 -85 298 -70 354 25 93 101
166 339 329 288 197 344 295 260 450 -20 36 -61 105 -92 153 -84 132 -101 183
-102 297 0 82 4 103 27 153 34 73 106 149 235 249 164 127 219 201 230 312 7
72 -15 141 -82 256 -134 228 -160 312 -132 425 22 90 58 148 173 285 109 129
144 193 144 261 0 70 -24 126 -101 229 -103 137 -123 184 -127 297 -5 123 26
247 129 510 43 111 79 216 79 233 0 53 -50 93 -156 125 -49 15 -119 36 -155
47 -37 11 -82 32 -100 47 -28 24 -34 36 -39 87 -11 93 7 209 60 401 81 288 69
364 -67 432 -80 40 -180 56 -422 66 -140 7 -169 14 -208 57 -53 57 -48 151 22
425 25 96 48 204 51 241 5 59 4 70 -16 95 -44 56 -70 62 -245 61 -133 -1 -198
-7 -385 -37 -330 -53 -340 -54 -394 -28 -77 38 -117 112 -221 411 -107 307
-154 370 -282 370 -142 0 -322 -46 -462 -117 -168 -86 -284 -185 -591 -509
-254 -266 -319 -243 -574 208 -60 106 -128 220 -150 253 -104 156 -200 218
-284 185z m2022 -341 c29 -13 68 -82 100 -176 36 -102 93 -230 131 -294 65
-106 50 -123 -85 -103 -295 46 -563 61 -786 46 -161 -11 -194 -8 -194 19 0 26
226 257 323 330 173 131 423 218 511 178z m-1956 -13 c29 -15 77 -80 135 -181
115 -201 185 -303 274 -395 40 -43 73 -84 73 -93 0 -25 -45 -50 -220 -121
-228 -94 -506 -226 -760 -362 -118 -63 -225 -117 -237 -120 -22 -6 -23 -3 -23
49 0 146 214 648 381 897 122 181 277 338 337 340 7 0 25 -6 40 -14z m3216
-751 c0 -85 -27 -174 -59 -197 -22 -17 -25 -16 -136 51 -161 96 -188 114 -189
129 0 6 -5 12 -11 12 -6 0 -3 7 6 16 14 14 61 23 300 57 17 3 44 4 60 3 l30
-1 -1 -70z m-1539 35 c223 -14 413 -42 600 -90 194 -49 314 -93 501 -185 583
-285 1019 -791 1233 -1430 93 -279 129 -497 135 -820 16 -887 -135 -1823 -450
-2787 -409 -1252 -1072 -2442 -1814 -3257 -52 -57 -103 -109 -112 -114 -13 -9
-29 1 -81 50 -40 37 -77 62 -97 67 -18 3 -452 6 -965 6 -1017 0 -1005 -1
-1005 54 0 13 7 29 15 36 8 6 17 22 21 33 4 12 37 60 74 107 421 535 675 1013
760 1431 27 129 29 564 4 663 -102 403 -383 741 -822 990 -132 75 -490 241
-609 282 -99 35 -117 38 -218 38 -90 1 -121 -3 -168 -21 -117 -44 -175 -90
-422 -332 -93 -91 -208 -195 -255 -230 -97 -73 -235 -143 -330 -167 -78 -20
-214 -22 -290 -4 -124 28 -280 120 -425 250 -105 94 -160 132 -283 196 -61 32
-108 62 -104 66 15 15 575 153 1052 259 654 146 1274 264 1859 354 146 23 248
43 271 55 45 23 105 88 125 136 17 42 20 150 4 191 -28 77 -102 144 -182 168
l-39 11 57 43 c84 63 95 87 95 202 0 205 -108 572 -219 741 -95 145 -260 268
-361 268 -63 0 -145 -42 -242 -126 -125 -106 -164 -173 -283 -491 -15 -40 -30
-75 -33 -77 -18 -10 -53 17 -78 61 -109 192 -157 253 -248 318 -151 107 -272
90 -420 -58 -58 -58 -82 -92 -123 -177 -66 -133 -73 -151 -140 -345 -77 -224
-93 -292 -93 -408 0 -114 16 -156 77 -205 43 -34 104 -72 116 -72 4 0 7 34 7
76 0 197 86 577 178 791 160 372 329 330 485 -122 66 -191 148 -593 123 -600
-6 -2 -76 -15 -156 -30 -398 -72 -1032 -213 -1700 -376 -245 -60 -453 -109
-462 -109 -12 0 -18 8 -18 23 0 52 -30 124 -67 161 -21 20 -81 60 -133 87 -52
28 -156 83 -230 123 -74 41 -173 93 -220 116 -86 43 -200 106 -341 187 -94 53
-214 155 -275 231 -25 31 -62 91 -82 132 l-37 75 -3 159 c-2 111 0 168 9 190
26 63 92 156 148 208 113 106 204 150 343 171 128 18 193 3 388 -95 148 -74
171 -83 232 -86 165 -10 450 116 898 396 199 124 392 252 1070 707 239 161
537 358 662 439 242 157 299 205 341 289 29 56 33 92 17 147 -12 43 -21 36
210 174 242 144 415 238 695 376 592 292 1081 449 1498 479 61 4 123 9 137 9
14 1 102 -3 195 -8z m2228 -867 c11 -6 9 -61 -3 -84 -14 -25 -24 -24 -54 8
-31 33 -42 73 -24 85 12 7 62 2 81 -9z m-4595 -2099 c87 -67 182 -281 253
-569 30 -124 69 -362 69 -426 l0 -36 -122 -17 c-98 -13 -455 -71 -634 -103
-38 -6 -44 8 -44 109 0 233 102 666 210 883 89 179 174 230 268 159z m-527
-1125 c27 -12 48 -24 46 -26 -7 -6 -196 -43 -220 -43 -19 0 -15 7 25 45 54 52
76 55 149 24z m37 -302 c44 -12 51 -30 14 -35 -12 -2 -22 -7 -22 -11 0 -9
-129 -32 -193 -35 -25 -1 -37 3 -37 12 0 7 5 10 10 7 6 -3 10 -2 10 3 0 12 77
54 114 62 48 10 58 9 104 -3z m-1051 -209 c36 -13 45 -38 13 -38 -11 0 -20 -4
-20 -8 0 -6 -76 -30 -155 -48 -179 -42 -570 -134 -692 -164 -193 -47 -248 -54
-284 -39 -33 13 -42 31 -25 54 13 18 113 44 616 161 422 98 479 107 547 82z
m6121 -890 c4 -33 -13 -68 -33 -68 -16 0 -20 36 -9 78 9 31 38 24 42 -10z
m-490 -1180 c8 -8 12 -47 12 -110 l0 -97 -72 -34 c-40 -19 -78 -32 -85 -30
-26 10 -14 76 30 155 68 123 88 143 115 116z m-681 -1251 c18 -35 30 -192 19
-249 -7 -41 -21 -49 -139 -79 -45 -11 -122 -41 -170 -66 -48 -25 -91 -43 -94
-39 -10 10 16 53 141 226 133 184 172 232 195 241 21 9 28 4 48 -34z M7345
8169 c-640 -51 -1268 -281 -1780 -650 -173 -125 -285 -226 -317 -288 -57 -109
-30 -255 64 -335 79 -68 201 -86 293 -42 28 13 77 47 110 77 33 30 88 76 123
103 34 27 62 55 62 63 0 8 -11 25 -25 38 -40 41 -88 34 -206 -27 -79 -42 -110
-53 -144 -52 -99 2 -124 62 -55 129 22 21 40 44 40 51 0 29 179 162 367 273
155 92 349 185 528 254 175 67 195 73 195 51 0 -11 5 -14 17 -10 56 22 300 78
433 100 294 48 578 60 601 25 14 -22 6 -50 -21 -70 -19 -15 -57 -21 -170 -29
-287 -22 -548 -70 -664 -123 -59 -27 -111 -76 -132 -124 -15 -35 -19 -99 -6
-107 4 -2 53 8 110 24 264 75 467 108 733 120 158 7 192 11 232 30 52 24 122
95 142 143 54 131 2 279 -125 351 -52 30 -61 31 -175 33 -66 0 -169 -3 -230
-8z M6515 7410 c-220 -91 -563 -280 -586 -322 -17 -31 -22 -133 -9 -206 44
-262 297 -461 559 -439 281 23 491 250 491 529 0 141 -53 271 -150 369 -51 51
-151 119 -175 119 -5 0 -64 -23 -130 -50z m118 -196 c21 -14 51 -44 67 -66 29
-40 30 -43 30 -165 0 -143 -12 -177 -80 -235 -102 -88 -303 -92 -419 -8 -51
37 -75 76 -100 156 -13 44 -16 74 -11 108 4 25 9 48 11 49 15 12 89 52 176 96
191 97 260 110 326 65z M1163 5895 c-29 -8 -72 -24 -94 -36 -53 -27 -131 -105
-158 -158 -52 -101 -64 -237 -26 -295 29 -43 76 -51 235 -37 111 10 169 10
280 0 178 -16 212 -8 241 54 23 51 24 104 4 180 -21 82 -50 133 -105 188 -101
101 -243 140 -377 104z m170 -238 c18 -8 38 -21 45 -30 22 -26 -15 -37 -120
-37 -68 0 -100 4 -114 15 -19 14 -18 15 6 34 40 32 128 40 183 18z"/>
</g>
</svg>
