<?xml version="1.0" standalone="no"?>
<!DOCTYPE svg PUBLIC "-//W3C//DTD SVG 20010904//EN"
 "http://www.w3.org/TR/2001/REC-SVG-20010904/DTD/svg10.dtd">
<svg version="1.0" xmlns="http://www.w3.org/2000/svg"
 width="2048.000000pt" height="2048.000000pt" viewBox="0 0 2048.000000 2048.000000"
 preserveAspectRatio="xMidYMid meet">
<metadata>
Created by potrace 1.13, written by Peter Selinger 2001-2015
</metadata>
<g transform="translate(0.000000,2048.000000) scale(0.192120,-0.192120)"
fill="#000000" stroke="none">
<path d="M2333 10026 c-136 -43 -263 -204 -313 -400 -48 -190 -53 -449 -11
-659 76 -377 270 -691 499 -805 70 -34 83 -37 161 -37 73 0 95 4 144 27 84 40
156 118 212 231 234 476 42 1305 -367 1581 -99 67 -228 92 -325 62z m168 -317
c115 -39 225 -187 296 -399 l28 -85 0 -320 c0 -317 0 -320 -24 -368 -72 -145
-185 -153 -315 -23 -77 76 -164 244 -201 386 -24 90 -25 109 -25 375 0 273 1
281 24 330 47 99 122 135 217 104z M4230 10018 c-465 -163 -748 -1109 -490
-1635 51 -104 128 -189 207 -228 50 -25 69 -29 143 -29 73 0 94 4 150 29 198
91 367 315 471 625 103 308 112 663 23 913 -98 272 -294 399 -504 325z m189
-325 c14 -10 39 -44 54 -74 l28 -54 -4 -305 c-3 -296 -4 -307 -29 -386 -96
-299 -264 -483 -407 -444 -45 12 -77 46 -112 117 -23 46 -24 58 -27 316 -4
296 1 339 60 491 69 179 177 312 287 353 46 17 116 11 150 -14z M1082 8634
c-64 -24 -153 -111 -190 -187 -49 -99 -66 -184 -66 -327 1 -202 55 -382 164
-547 215 -327 534 -382 700 -122 100 155 118 427 43 664 -70 223 -219 417
-378 496 -56 27 -80 33 -148 36 -56 2 -95 -2 -125 -13z m203 -325 c56 -26 121
-97 160 -175 l30 -59 3 -210 c3 -223 0 -244 -45 -264 -79 -36 -191 36 -265
171 -59 107 -68 151 -68 336 l0 164 29 29 c37 36 90 39 156 8z M5480 8636
c-214 -82 -372 -277 -456 -561 -36 -121 -45 -326 -20 -439 37 -162 135 -294
247 -331 80 -27 187 -17 271 24 174 86 328 299 395 547 23 87 27 118 27 254 0
144 -1 161 -27 233 -47 133 -106 210 -201 259 -51 27 -183 35 -236 14z m145
-322 l25 -16 0 -199 c0 -190 -1 -202 -25 -261 -60 -147 -161 -243 -256 -243
-37 0 -54 5 -71 23 -22 22 -23 28 -23 225 l0 203 38 76 c76 155 227 247 312
192z M3175 7534 c-206 -34 -458 -143 -628 -269 -365 -272 -623 -676 -718
-1125 -19 -87 -23 -138 -23 -300 -2 -423 78 -640 262 -711 46 -18 78 -22 162
-22 115 0 188 12 469 78 585 138 779 137 1391 -4 298 -69 331 -74 450 -74 84
0 116 4 162 22 151 58 230 215 259 515 29 300 -14 579 -130 849 -95 221 -206
388 -376 565 -250 261 -550 425 -870 477 -110 18 -302 18 -410 -1z m350 -295
c281 -35 549 -172 767 -395 158 -162 263 -330 339 -544 l34 -95 0 -356 0 -355
-27 -42 c-54 -80 -137 -79 -528 8 -297 66 -434 89 -593 99 -254 15 -442 -7
-857 -99 -378 -84 -466 -88 -526 -24 -51 53 -56 99 -52 434 l3 295 34 100
c212 633 809 1047 1406 974z M6239 5587 c-115 -33 -205 -119 -274 -261 -65
-137 -87 -239 -93 -435 -5 -180 6 -291 43 -441 112 -452 379 -771 644 -771
113 0 187 35 268 126 310 348 222 1212 -166 1618 -127 133 -296 199 -422 164z
m186 -339 c99 -49 205 -204 262 -383 l28 -90 0 -316 0 -315 -30 -59 c-127
-249 -410 -30 -519 401 -13 49 -16 121 -16 345 0 277 1 285 24 334 27 59 51
82 103 100 44 16 91 11 148 -17z M8176 5589 c-130 -21 -282 -139 -393 -305
-311 -462 -338 -1209 -53 -1494 84 -84 134 -105 250 -105 86 0 101 3 160 31
138 66 265 203 363 392 248 478 242 1093 -13 1365 -90 97 -195 135 -314 116z
m117 -331 c35 -18 66 -59 83 -110 13 -40 15 -94 12 -340 -4 -282 -5 -296 -30
-373 -51 -160 -141 -320 -216 -386 -53 -47 -117 -72 -168 -66 -61 6 -96 37
-130 109 l-29 63 -3 273 c-3 266 -2 275 23 370 54 206 172 389 287 446 57 28
133 35 171 14z M4993 4196 c-124 -40 -213 -150 -259 -317 -29 -103 -24 -316 9
-442 69 -261 221 -470 406 -559 58 -28 76 -32 151 -33 73 0 92 4 135 27 140
73 222 233 232 453 20 424 -260 861 -564 881 -42 2 -84 -1 -110 -10z m187
-334 c51 -24 113 -93 151 -169 l34 -67 3 -195 c2 -107 1 -205 -3 -218 -10 -40
-41 -63 -85 -63 -89 0 -176 78 -243 218 l-42 87 -3 182 c-3 124 0 188 8 203
26 49 103 58 180 22z M9380 4195 c-76 -22 -152 -69 -225 -140 -305 -298 -374
-877 -133 -1118 69 -69 124 -92 223 -92 71 0 88 4 156 36 183 87 338 300 406
557 22 82 26 120 27 242 1 126 -2 155 -22 220 -31 98 -71 168 -128 220 -85 78
-194 105 -304 75z m143 -333 c17 -15 18 -34 15 -222 l-3 -206 -37 -75 c-67
-136 -151 -209 -241 -209 -48 0 -83 24 -93 63 -3 13 -4 106 -2 208 l3 185 32
65 c37 74 97 148 147 178 65 40 141 46 179 13z M7122 3100 c-230 -29 -484
-133 -682 -278 -367 -269 -624 -669 -721 -1122 -20 -91 -23 -134 -23 -320 0
-355 47 -531 170 -639 112 -98 266 -105 609 -26 506 116 608 130 868 122 194
-6 303 -23 622 -97 269 -63 369 -80 465 -80 262 0 384 156 420 535 32 346 -20
634 -170 940 -246 499 -698 867 -1169 951 -109 19 -294 26 -389 14z m439 -333
c437 -115 803 -464 962 -920 l32 -92 3 -325 c3 -353 0 -384 -48 -442 l-28 -33
-113 1 c-100 1 -145 8 -364 57 -381 86 -525 107 -730 107 -199 0 -358 -23
-705 -100 -250 -56 -333 -70 -413 -70 -95 0 -133 18 -160 77 -21 46 -22 59
-22 373 l0 325 34 100 c79 235 202 428 388 606 190 182 400 296 648 349 132
29 381 23 516 -13z"/>
</g>
</svg>
