<?xml version="1.0" standalone="no"?>
<!DOCTYPE svg PUBLIC "-//W3C//DTD SVG 20010904//EN"
 "http://www.w3.org/TR/2001/REC-SVG-20010904/DTD/svg10.dtd">
<svg version="1.0" xmlns="http://www.w3.org/2000/svg"
 width="2048.000000pt" height="2048.000000pt" viewBox="0 0 2048.000000 2048.000000"
 preserveAspectRatio="xMidYMid meet">
<metadata>
Created by potrace 1.13, written by Peter Selinger 2001-2015
</metadata>
<g transform="translate(0.000000,2048.000000) scale(0.192120,-0.192120)"
fill="#000000" stroke="none">
<path d="M2408 10035 c-157 -19 -294 -51 -461 -106 -591 -193 -1097 -634
-1372 -1194 -112 -228 -185 -462 -222 -710 -24 -165 -24 -505 0 -665 63 -410
214 -771 459 -1098 83 -110 299 -332 403 -414 105 -82 241 -171 356 -233 56
-30 106 -55 111 -55 5 0 33 20 64 45 64 53 103 79 108 74 2 -2 -3 -56 -11
-119 -16 -127 -12 -556 7 -775 74 -853 312 -1282 776 -1400 202 -51 467 -46
839 16 66 11 246 44 400 74 775 150 1049 185 1465 185 410 0 688 -35 1415
-175 181 -35 384 -73 450 -84 370 -62 637 -67 839 -16 439 112 677 504 761
1255 41 368 46 859 10 1018 -3 12 -1 22 3 22 5 0 40 -24 77 -52 37 -29 73 -57
80 -62 25 -18 261 117 432 246 489 369 813 921 910 1548 25 161 24 500 -1 665
-119 783 -597 1440 -1301 1786 -349 171 -714 249 -1110 236 -362 -12 -643 -82
-970 -242 -375 -184 -694 -464 -917 -803 -31 -48 -63 -96 -71 -106 -13 -19
-16 -19 -98 -3 -302 60 -716 60 -1018 0 -82 -16 -85 -16 -98 3 -8 10 -39 57
-70 104 -354 542 -948 921 -1603 1025 -143 23 -500 29 -642 10z m582 -212
c317 -42 613 -154 925 -348 197 -123 321 -236 510 -466 112 -136 183 -205 252
-246 72 -42 109 -46 277 -26 200 23 557 23 752 0 166 -20 209 -15 289 34 63
38 190 163 297 294 94 113 271 282 376 358 99 71 226 145 357 208 511 245
1120 280 1655 94 162 -56 255 -100 455 -215 186 -106 358 -251 512 -432 228
-269 397 -628 464 -987 25 -140 28 -653 3 -796 -44 -261 -145 -528 -287 -765
-168 -280 -457 -573 -713 -722 -96 -57 -138 -72 -234 -87 -86 -14 -155 -45
-184 -84 -20 -27 -21 -43 -27 -450 -7 -498 -26 -679 -98 -952 -61 -231 -138
-384 -250 -495 -146 -146 -293 -192 -651 -205 -96 -3 -242 -13 -325 -22 -308
-31 -543 5 -845 130 -127 53 -209 73 -380 96 -328 44 -477 55 -785 55 -319 0
-490 -12 -820 -59 -186 -27 -242 -42 -385 -102 -221 -95 -378 -127 -620 -127
-91 0 -197 5 -236 12 -39 6 -150 14 -245 17 -302 9 -389 23 -520 83 -163 74
-307 274 -388 538 -89 289 -131 658 -131 1143 l0 273 -26 48 c-32 58 -80 85
-179 100 -103 16 -154 35 -250 96 -469 294 -823 784 -954 1322 -47 192 -54
278 -48 603 5 285 6 298 35 419 75 307 201 579 388 831 88 120 296 331 404
411 410 302 906 457 1405 440 61 -2 162 -10 225 -19z M2400 9424 c-181 -28
-425 -105 -581 -184 -486 -247 -854 -703 -989 -1222 -76 -295 -83 -608 -19
-903 116 -539 474 -1011 971 -1279 86 -47 87 -47 92 -24 3 13 13 61 22 108 46
237 152 543 284 818 348 722 913 1349 1570 1744 130 78 284 158 383 198 31 13
57 27 57 31 0 16 -240 256 -314 314 -283 220 -588 352 -927 400 -132 19 -422
18 -549 -1z m471 -184 c347 -36 654 -158 920 -368 73 -57 80 -66 77 -94 -3
-36 -27 -54 -203 -160 -485 -291 -989 -780 -1309 -1268 -137 -209 -295 -497
-376 -685 -45 -106 -125 -320 -170 -458 -54 -166 -82 -167 -278 -9 -270 217
-479 545 -568 892 -23 92 -24 108 -24 440 0 306 2 354 19 425 118 491 500 932
988 1144 285 124 607 173 924 141z M7705 9425 c-345 -52 -664 -193 -937 -413
-74 -60 -298 -287 -298 -302 0 -4 21 -15 48 -25 82 -31 272 -130 411 -214 645
-391 1206 -1018 1552 -1735 129 -267 232 -566 284 -820 13 -65 26 -120 29
-123 6 -6 151 76 246 140 566 376 893 1034 849 1709 -22 352 -126 661 -317
946 -283 425 -708 711 -1216 818 -104 22 -152 26 -341 29 -154 3 -247 0 -310
-10z m580 -200 c651 -113 1164 -544 1374 -1155 l36 -105 3 -408 3 -407 -25
-95 c-78 -292 -256 -582 -492 -804 -88 -82 -201 -164 -242 -176 -44 -13 -73
35 -131 214 -61 189 -140 379 -248 600 -345 702 -929 1339 -1596 1743 -141 85
-187 122 -187 148 0 44 219 202 405 291 186 89 387 147 585 169 116 12 406 4
515 -15z M3521 5315 c-204 -45 -335 -178 -391 -399 -18 -72 -20 -112 -20 -421
0 -307 2 -350 20 -419 63 -248 231 -390 486 -411 235 -19 443 90 533 279 63
132 66 154 66 556 0 355 -1 367 -23 440 -66 211 -194 334 -387 375 -86 18
-199 18 -284 0z m296 -297 c32 -12 65 -34 87 -58 l36 -40 0 -418 0 -418 -30
-48 c-41 -65 -114 -98 -226 -104 -139 -7 -234 32 -292 121 l-27 42 -3 392 c-3
427 -4 418 55 477 78 79 264 104 400 54z M6850 5314 c-189 -41 -317 -166 -382
-374 -22 -73 -23 -85 -23 -445 l0 -370 29 -88 c68 -208 201 -326 408 -363 86
-16 191 -13 278 8 179 42 318 191 371 396 17 67 19 112 19 417 0 308 -2 349
-20 419 -57 225 -188 357 -396 401 -85 18 -198 18 -284 -1z m238 -279 c59 -7
132 -46 160 -84 22 -30 22 -30 22 -455 l0 -424 -33 -44 c-19 -25 -53 -53 -82
-68 -44 -22 -63 -25 -161 -25 -103 0 -114 2 -170 30 -43 22 -68 43 -91 79
l-33 48 0 402 c0 377 1 403 19 432 39 64 105 100 206 113 59 8 77 8 163 -4z
M1555 5438 c-343 -320 -596 -891 -702 -1578 -25 -164 -25 -542 0 -695 48 -291
146 -569 265 -755 l35 -55 18 40 c32 71 25 120 -45 308 -36 95 -77 217 -93
272 l-28 100 0 445 c0 486 -4 446 66 725 89 352 243 676 467 980 65 87 102
171 102 228 0 26 -4 47 -10 47 -5 0 -39 -28 -75 -62z M9020 5453 c0 -63 31
-127 113 -234 254 -333 416 -704 513 -1174 29 -140 29 -141 29 -505 -1 -262
-5 -382 -14 -425 -7 -33 -17 -84 -21 -112 -11 -68 -40 -156 -108 -328 -62
-154 -72 -230 -40 -290 l16 -29 32 49 c49 78 125 240 164 354 157 451 166 913
30 1471 -106 434 -268 781 -497 1066 -67 82 -190 204 -207 204 -6 0 -10 -21
-10 -47z M5200 3104 c-578 -55 -815 -393 -595 -850 113 -234 351 -472 582
-581 65 -31 87 -37 144 -37 60 0 78 5 161 46 114 57 207 126 314 232 237 237
359 512 324 731 -36 223 -214 373 -519 435 -98 20 -317 33 -411 24z m421 -277
c110 -29 190 -66 237 -110 l32 -31 0 -145 c0 -133 -2 -151 -24 -198 -83 -177
-297 -391 -449 -448 -70 -26 -159 -17 -234 25 -166 94 -322 260 -403 432 -28
60 -30 70 -30 192 l0 129 42 40 c67 64 200 114 361 137 34 5 132 7 217 5 123
-3 175 -9 251 -28z M2770 2543 c-756 -42 -1446 -204 -1999 -469 -372 -179
-436 -237 -436 -399 0 -63 5 -89 22 -120 53 -99 145 -155 255 -155 59 0 75 5
140 40 397 216 707 333 1148 430 112 25 433 80 438 75 2 -1 -39 -26 -90 -55
-139 -79 -359 -227 -483 -327 -221 -177 -513 -484 -572 -602 -91 -181 43 -394
248 -395 105 0 161 33 256 152 94 119 257 284 379 383 467 383 1153 694 1859
845 44 9 100 27 125 39 134 68 193 230 130 355 -30 61 -86 117 -140 141 -92
42 -477 70 -920 67 -168 -1 -330 -3 -360 -5z m627 -253 c318 -12 452 -24 494
-46 56 -29 11 -55 -191 -110 -183 -50 -473 -148 -645 -216 -253 -101 -670
-312 -860 -436 -201 -130 -295 -210 -526 -445 -135 -137 -171 -168 -190 -165
-38 5 -35 39 9 94 96 122 407 405 612 559 123 92 222 184 252 234 12 20 25 38
28 41 15 13 40 81 40 112 0 66 -94 169 -187 205 -34 13 -74 18 -138 18 -112 0
-215 -8 -215 -16 0 -3 -11 -5 -25 -4 -14 2 -25 0 -25 -4 0 -5 -11 -6 -25 -3
-14 2 -25 0 -25 -4 0 -5 -12 -9 -27 -9 -16 0 -47 -4 -70 -8 -35 -6 -43 -4 -43
8 0 12 13 20 23 13 1 -1 13 4 25 11 13 7 33 14 45 17 12 2 31 6 42 9 24 6 201
44 230 49 154 29 215 39 360 56 190 21 441 39 615 43 63 2 122 4 130 5 8 1
137 -3 287 -8z m-1777 -205 c0 -8 -4 -15 -9 -15 -13 0 -22 16 -14 24 11 11 23
6 23 -9z m-40 -11 c0 -8 -5 -12 -10 -9 -6 4 -8 11 -5 16 9 14 15 11 15 -7z
m-80 -20 c0 -8 -5 -12 -10 -9 -6 4 -8 11 -5 16 9 14 15 11 15 -7z m-103 -36
c-3 -8 -6 -5 -6 6 -1 11 2 17 5 13 3 -3 4 -12 1 -19z m-30 -10 c-3 -8 -6 -5
-6 6 -1 11 2 17 5 13 3 -3 4 -12 1 -19z M7035 2539 c-224 -15 -377 -36 -425
-58 -88 -39 -161 -143 -165 -236 -8 -144 97 -262 260 -295 33 -6 139 -32 235
-56 618 -159 1198 -435 1614 -767 128 -103 308 -283 409 -409 63 -79 87 -102
134 -125 186 -91 396 40 397 248 0 87 -29 144 -143 279 -241 286 -572 558
-916 755 -122 69 -129 76 -79 69 538 -80 1039 -232 1404 -426 243 -130 217
-120 300 -116 85 4 136 25 186 75 59 59 79 108 79 198 0 158 -54 210 -390 378
-490 244 -1092 402 -1805 473 -193 19 -889 28 -1095 13z m930 -260 c88 -5 237
-19 330 -29 145 -17 206 -27 360 -56 12 -2 63 -13 115 -24 84 -18 118 -25 155
-34 6 -2 30 -9 55 -16 25 -7 51 -15 59 -16 26 -5 36 -23 17 -30 -10 -4 -21 -3
-25 2 -3 5 -19 10 -36 11 -93 6 -115 9 -115 17 0 4 -11 6 -25 4 -14 -3 -25 -1
-25 5 0 5 -11 7 -25 5 -14 -3 -25 -2 -25 1 0 8 -103 16 -215 16 -106 0 -167
-19 -234 -74 -54 -43 -101 -115 -101 -152 0 -73 104 -209 246 -320 299 -235
486 -399 625 -548 93 -98 116 -135 99 -156 -14 -17 -46 -11 -73 12 -12 10 -96
93 -187 184 -281 282 -394 367 -730 548 -418 225 -870 407 -1260 506 -58 15
-119 33 -137 41 -17 8 -34 14 -38 14 -8 0 -34 31 -35 41 -3 53 700 81 1225 48z
m1130 -198 c3 -5 1 -12 -5 -16 -5 -3 -10 1 -10 9 0 18 6 21 15 7z m40 -10 c3
-5 1 -12 -5 -16 -5 -3 -10 1 -10 9 0 18 6 21 15 7z m32 -23 c-3 -8 -6 -5 -6 6
-1 11 2 17 5 13 3 -3 4 -12 1 -19z m38 3 c3 -5 1 -12 -5 -16 -5 -3 -10 1 -10
9 0 18 6 21 15 7z m672 -293 c-3 -8 -6 -5 -6 6 -1 11 2 17 5 13 3 -3 4 -12 1
-19z M2505 1252 l-40 -7 103 -48 c167 -78 405 -171 623 -242 186 -60 212 -72
304 -132 492 -328 1225 -512 1945 -489 700 22 1329 207 1776 523 34 24 66 43
72 43 6 0 89 25 184 56 205 66 483 175 623 243 l100 48 -69 8 c-132 15 -275
-12 -541 -100 -38 -13 -113 -35 -165 -51 -135 -39 -230 -81 -351 -157 -451
-280 -995 -428 -1634 -444 -714 -18 -1345 135 -1855 448 -133 82 -167 98 -315
144 -66 20 -176 55 -245 77 -69 22 -161 48 -205 59 -87 21 -246 32 -310 21z"/>
</g>
</svg>
