<?xml version="1.0" standalone="no"?>
<!DOCTYPE svg PUBLIC "-//W3C//DTD SVG 20010904//EN"
 "http://www.w3.org/TR/2001/REC-SVG-20010904/DTD/svg10.dtd">
<svg version="1.0" xmlns="http://www.w3.org/2000/svg"
 width="2048.000000pt" height="2048.000000pt" viewBox="0 0 2048.000000 2048.000000"
 preserveAspectRatio="xMidYMid meet">
<metadata>
Created by potrace 1.13, written by Peter Selinger 2001-2015
</metadata>
<g transform="translate(0.000000,2048.000000) scale(0.192120,-0.192120)"
fill="#000000" stroke="none">
<path d="M2345 9763 c-716 -98 -1271 -614 -1427 -1326 -20 -89 -23 -131 -23
-327 0 -197 3 -238 23 -330 50 -231 148 -454 280 -639 64 -91 224 -264 286
-310 l29 -21 -94 -98 c-509 -525 -895 -1237 -1028 -1893 -70 -345 -80 -740
-25 -1009 85 -416 370 -611 858 -587 318 16 544 64 1691 357 708 181 1278 286
1835 337 270 25 893 25 1165 0 623 -57 1108 -152 2165 -422 995 -254 1320
-306 1620 -260 459 69 647 390 627 1065 -15 470 -127 905 -352 1365 -183 372
-451 756 -734 1047 l-94 98 29 21 c62 46 222 219 286 310 132 185 230 409 280
639 19 92 22 134 22 330 0 195 -3 238 -22 327 -146 669 -634 1158 -1305 1305
-90 20 -130 23 -332 22 -256 0 -329 -11 -530 -78 -509 -171 -927 -608 -1065
-1113 -12 -43 -23 -83 -25 -89 -2 -7 -44 3 -117 28 -592 204 -1280 224 -1899
54 -68 -19 -161 -48 -207 -65 -58 -21 -84 -26 -87 -18 -2 7 -13 46 -24 88 -68
247 -208 491 -397 689 -245 257 -571 430 -923 489 -95 16 -162 21 -290 20 -91
-1 -179 -4 -196 -6z m520 -298 c210 -40 439 -146 605 -280 202 -163 309 -303
410 -539 74 -172 75 -174 154 -248 84 -80 153 -118 212 -118 23 0 129 22 235
50 349 89 538 114 849 114 313 0 494 -25 848 -115 107 -27 212 -49 235 -49 66
1 123 33 212 123 72 73 85 92 114 167 90 230 190 385 335 519 165 152 334 255
534 325 169 58 362 85 362 49 0 -10 -6 -12 -20 -8 -11 4 -20 2 -20 -4 0 -6 -7
-11 -15 -11 -8 0 -15 -3 -15 -8 0 -4 -21 -15 -47 -24 -125 -45 -323 -185 -449
-318 -143 -150 -257 -342 -309 -519 -24 -80 -25 -98 -25 -329 l0 -244 35 -104
c40 -120 116 -271 175 -346 207 -265 490 -440 793 -488 122 -20 350 -8 467 25
95 26 255 96 310 135 26 18 30 19 30 5 0 -46 209 152 309 292 71 99 158 270
196 385 46 138 58 230 64 458 l6 215 18 -60 c17 -54 18 -96 15 -440 l-3 -380
-36 -91 c-75 -185 -138 -288 -307 -498 -88 -109 -107 -136 -142 -205 -25 -51
-31 -73 -28 -105 10 -85 70 -184 228 -376 303 -369 518 -711 656 -1045 217
-526 224 -559 224 -1063 0 -327 -2 -371 -20 -455 -71 -321 -194 -409 -570
-409 -285 1 -511 44 -1415 272 -1128 284 -1557 365 -2230 422 -225 19 -864 16
-1095 -5 -648 -60 -1076 -142 -2165 -417 -891 -225 -1133 -271 -1420 -271
-302 -1 -448 64 -525 235 -55 121 -60 171 -60 564 0 314 3 374 20 475 94 544
362 1094 789 1620 181 224 224 282 257 354 19 39 34 87 34 106 0 54 -51 154
-129 252 -170 214 -234 305 -285 410 -105 212 -101 188 -104 605 -2 337 -1
370 17 430 l19 65 1 -171 c1 -192 30 -383 77 -517 66 -182 212 -415 336 -533
90 -86 148 -129 148 -110 0 15 4 15 30 -4 57 -40 236 -119 330 -145 117 -33
345 -45 467 -25 243 39 465 154 649 335 168 165 273 348 330 573 21 83 24 117
24 279 0 235 -16 309 -109 515 -82 184 -276 406 -459 525 -92 61 -227 133
-248 133 -8 0 -14 5 -14 10 0 6 -7 10 -15 10 -8 0 -15 5 -15 11 0 6 -9 8 -20
4 -14 -4 -20 -2 -20 8 0 20 79 21 175 2z m-319 -256 c405 -56 735 -364 819
-764 20 -95 23 -284 6 -370 -82 -404 -380 -703 -786 -786 -85 -17 -274 -15
-370 6 -286 60 -540 256 -672 520 -158 313 -126 710 81 999 48 68 169 186 237
233 198 136 448 195 685 162z m5945 -22 c99 -26 224 -82 307 -139 68 -46 187
-164 238 -234 138 -193 206 -457 175 -688 -81 -607 -679 -989 -1261 -804 -335
106 -589 395 -661 753 -17 87 -14 275 6 370 61 289 254 538 520 673 72 36 208
79 290 92 100 15 278 5 386 -23z m-7041 -200 c0 -12 -7 -23 -49 -73 -5 -6 -12
-20 -15 -32 -4 -12 -11 -22 -16 -22 -5 0 -11 -8 -13 -17 -4 -14 -5 -13 -6 4
-1 23 29 83 42 83 4 0 7 5 7 11 0 9 40 58 48 59 1 0 2 -6 2 -13z m7800 -37 c5
0 10 -5 10 -11 0 -7 7 -17 14 -23 8 -6 18 -23 22 -39 5 -22 3 -26 -10 -21 -9
3 -16 15 -16 25 0 10 -4 19 -10 19 -5 0 -10 5 -10 11 0 6 -7 17 -15 25 -8 9
-15 25 -14 37 l0 22 9 -22 c5 -13 14 -23 20 -23z M4140 5041 c-111 -34 -200
-152 -200 -266 0 -101 76 -213 172 -255 43 -18 65 -22 124 -18 111 7 190 62
235 163 64 142 -13 320 -158 369 -49 17 -130 20 -173 7z m151 -201 c28 -16 27
-109 -1 -135 -29 -27 -111 -26 -148 2 -23 17 -27 27 -27 69 0 42 3 50 25 61
30 15 124 17 151 3z M6343 5034 c-181 -67 -235 -311 -100 -452 75 -79 205
-105 305 -62 96 42 172 154 172 255 0 93 -69 203 -154 247 -54 28 -165 34
-223 12z m168 -194 c15 -9 19 -22 19 -64 0 -68 -21 -89 -89 -90 -71 -1 -105
26 -109 87 -3 41 0 47 25 61 32 17 125 21 154 6z M2295 8647 c-118 -39 -207
-117 -258 -225 -30 -63 -32 -74 -32 -177 0 -98 3 -116 27 -168 82 -174 288
-279 469 -237 327 76 439 476 198 705 -84 80 -150 108 -269 112 -60 2 -110 -2
-135 -10z m208 -323 c25 -13 27 -19 27 -72 0 -35 -6 -66 -15 -79 -37 -53 -155
-54 -207 -3 -23 24 -28 37 -28 79 0 43 4 53 25 67 54 35 138 38 198 8z M8112
8641 c-71 -27 -108 -51 -164 -108 -126 -129 -153 -317 -69 -481 82 -160 282
-252 459 -212 117 27 231 119 285 229 30 62 32 72 32 176 0 103 -2 114 -32
177 -41 88 -113 160 -201 201 -58 27 -80 32 -162 34 -75 3 -106 -1 -148 -16z
m226 -317 c19 -13 22 -23 22 -79 0 -56 -3 -66 -25 -84 -52 -40 -144 -38 -192
3 -21 18 -27 34 -31 78 -4 52 -2 57 22 73 55 36 154 41 204 9z M430 3502 c0
-7 20 -75 45 -150 51 -152 173 -409 260 -547 494 -781 1422 -1376 2620 -1680
427 -108 757 -163 1275 -212 271 -26 1121 -25 1405 0 660 60 1172 162 1710
342 1131 377 1937 1008 2329 1825 57 120 156 388 156 422 0 7 -20 -24 -45 -70
-52 -97 -102 -164 -245 -328 -58 -66 -147 -180 -199 -253 -151 -213 -310 -394
-476 -541 -750 -664 -1853 -1074 -3220 -1196 -244 -21 -930 -30 -1190 -15
-1526 89 -2790 552 -3563 1303 -157 153 -270 287 -427 513 -27 39 -95 124
-151 191 -145 172 -188 231 -239 326 -25 46 -45 77 -45 70z"/>
</g>
</svg>
