<?xml version="1.0" standalone="no"?>
<!DOCTYPE svg PUBLIC "-//W3C//DTD SVG 20010904//EN"
 "http://www.w3.org/TR/2001/REC-SVG-20010904/DTD/svg10.dtd">
<svg version="1.0" xmlns="http://www.w3.org/2000/svg"
 width="2048.000000pt" height="2048.000000pt" viewBox="0 0 2048.000000 2048.000000"
 preserveAspectRatio="xMidYMid meet">
<metadata>
Created by potrace 1.13, written by Peter Selinger 2001-2015
</metadata>
<g transform="translate(0.000000,2048.000000) scale(0.192120,-0.192120)"
fill="#000000" stroke="none">
<path d="M1211 10035 c-55 -17 -86 -47 -121 -115 -120 -238 -179 -816 -166
-1645 12 -842 81 -1674 202 -2435 l36 -225 -36 -115 c-120 -389 -194 -992
-224 -1835 l-7 -189 -45 -9 c-130 -25 -300 -71 -335 -92 -55 -32 -90 -71 -116
-130 -79 -177 55 -385 249 -385 24 0 79 9 123 20 137 35 466 98 649 124 359
52 688 76 1010 75 l205 0 -95 -35 c-643 -233 -1183 -530 -1610 -885 -153 -127
-275 -254 -301 -314 -80 -179 56 -385 255 -385 82 0 138 30 242 129 79 76 220
193 334 279 237 178 671 416 1010 555 420 172 912 312 1364 388 197 33 266 58
311 111 113 134 93 317 -45 417 -54 39 -339 130 -567 180 -674 150 -1485 154
-2356 10 -136 -23 -250 -39 -253 -37 -2 3 9 47 25 99 16 52 39 126 51 164 51
167 162 352 299 497 391 416 1066 660 1966 708 110 6 234 14 275 17 l75 5 -95
29 c-193 60 -237 64 -448 45 -582 -52 -960 -139 -1277 -291 -193 -93 -346
-198 -555 -382 l-65 -57 -3 199 c-4 270 31 523 118 865 52 203 53 281 5 608
-59 403 -107 845 -140 1292 -22 297 -22 1913 0 2081 42 317 84 431 172 460
135 44 666 -84 1146 -278 319 -128 860 -397 1036 -515 306 -205 527 -409 713
-656 78 -103 166 -183 243 -218 96 -45 275 -24 478 56 71 27 131 50 134 50 2
0 -13 -21 -35 -47 -204 -245 -394 -709 -553 -1348 -51 -205 -123 -548 -135
-642 -8 -61 -1 -65 51 -33 43 27 59 70 101 265 194 926 447 1555 667 1658 61
29 151 41 213 28 81 -16 121 -38 183 -102 186 -190 382 -719 552 -1489 36
-161 70 -291 82 -313 22 -39 61 -67 93 -67 21 0 17 37 -36 300 -166 821 -397
1449 -642 1743 -22 26 -37 47 -34 47 3 0 63 -23 132 -50 132 -53 262 -80 389
-80 124 0 237 82 396 285 142 182 285 320 494 479 297 226 752 471 1220 659
471 188 1009 317 1108 266 94 -48 124 -130 172 -461 14 -94 30 -188 36 -207 7
-25 9 -294 6 -861 -3 -740 -6 -851 -26 -1080 -43 -507 -92 -945 -146 -1300
-37 -243 -34 -331 15 -512 53 -196 80 -334 80 -405 0 -32 7 -101 15 -153 9
-60 15 -171 15 -303 0 -241 9 -231 -109 -124 -345 316 -759 495 -1346 581
-258 38 -458 58 -585 59 -116 0 -170 -10 -334 -61 l-58 -19 62 -6 c35 -4 96
-7 136 -7 40 0 157 -7 261 -15 993 -80 1664 -378 2009 -891 61 -91 122 -216
152 -314 48 -151 81 -264 79 -266 -1 -2 -47 6 -102 17 -725 140 -1513 170
-2160 83 -372 -50 -865 -184 -953 -259 -116 -100 -131 -275 -32 -388 66 -75
92 -86 282 -118 611 -104 1188 -284 1693 -528 433 -210 768 -434 1051 -702
110 -104 157 -129 244 -129 182 0 317 178 266 352 -21 73 -75 138 -217 264
-437 386 -978 698 -1619 935 l-185 68 205 1 c325 0 671 -26 1015 -76 185 -27
515 -91 647 -125 99 -25 183 -22 245 9 84 43 153 154 153 247 0 91 -69 204
-150 245 -37 19 -183 58 -297 81 l-63 12 0 56 c0 84 -18 466 -30 636 -42 581
-114 1036 -212 1330 l-40 119 36 226 c77 489 135 1030 171 1595 84 1337 12
2350 -183 2558 -181 192 -1304 -127 -2143 -609 -559 -321 -973 -691 -1149
-1027 l-43 -82 -111 22 c-131 27 -378 58 -566 73 -74 6 -141 13 -148 15 -38
13 -731 -73 -840 -104 -31 -9 -32 -8 -52 36 -11 24 -48 89 -83 142 -249 379
-720 748 -1367 1070 -327 162 -614 279 -927 376 -385 120 -744 173 -882 130z
m1767 -6618 c94 -11 115 -16 127 -34 10 -14 30 -22 67 -27 235 -30 647 -130
758 -184 63 -31 72 -54 40 -95 -25 -32 -40 -36 -290 -87 -688 -141 -1293 -350
-1784 -616 -78 -42 -148 -82 -156 -88 -26 -22 -242 -152 -340 -206 -121 -67
-154 -90 -311 -216 -126 -101 -179 -128 -202 -105 -19 19 10 57 103 139 47 41
138 123 204 181 153 137 199 171 370 274 188 113 365 205 630 327 121 55 228
109 238 119 9 11 30 27 45 36 15 9 64 52 108 96 78 76 80 80 80 126 0 62 -36
111 -115 157 -92 54 -138 61 -395 60 -297 -1 -554 -27 -1030 -104 -94 -16
-146 -19 -190 -14 -33 4 -70 6 -82 5 -40 -4 -25 32 17 44 3 0 24 11 47 23 87
45 320 91 668 131 318 37 476 45 848 45 296 0 367 2 367 13 0 16 29 16 178 0z
m4862 -8 c0 -17 5 -20 23 -16 12 4 126 9 252 13 276 8 600 -7 915 -42 455 -50
705 -104 786 -169 l29 -23 -28 -11 c-43 -17 -172 -13 -288 8 -470 87 -1037
132 -1254 101 -128 -19 -238 -87 -279 -174 -17 -37 -17 -37 14 -101 57 -117
124 -163 451 -313 471 -217 761 -386 955 -559 54 -48 141 -125 194 -171 153
-133 189 -182 140 -195 -28 -7 -86 25 -165 94 -89 77 -230 176 -320 224 -73
40 -296 175 -305 184 -7 8 -30 21 -205 118 -157 87 -453 225 -590 275 -204 75
-435 150 -590 193 -93 26 -208 57 -255 70 -76 22 -327 74 -499 105 -109 19
-171 63 -156 109 3 10 31 30 63 44 52 23 299 96 380 112 18 4 43 17 55 30 17
18 47 28 127 44 145 28 427 66 518 70 26 1 32 -3 32 -20z M1701 9164 c-148
-188 -148 -1522 0 -2584 11 -80 22 -146 23 -147 1 -2 39 52 83 120 300 455
797 899 1368 1223 153 86 451 231 579 280 l99 39 -99 93 c-268 254 -616 489
-1019 687 -391 192 -759 315 -944 315 -63 0 -71 -2 -90 -26z m235 -195 c32 -5
118 -28 189 -50 391 -122 831 -346 1220 -623 178 -126 178 -139 -2 -236 -202
-108 -343 -190 -488 -285 -310 -202 -498 -356 -777 -637 -114 -114 -213 -208
-221 -208 -35 0 -52 56 -72 240 -12 107 -15 298 -15 913 0 815 2 853 43 882
25 18 44 18 123 4z M8740 9174 c-193 -41 -489 -151 -755 -278 -411 -198 -790
-451 -1060 -708 l-98 -93 124 -49 c161 -64 462 -215 641 -323 551 -331 976
-719 1275 -1166 47 -70 87 -126 89 -125 5 6 64 487 78 648 42 460 61 907 53
1275 -11 472 -43 715 -109 808 -18 26 -23 27 -96 26 -42 0 -106 -7 -142 -15z
m119 -216 c12 -12 23 -35 26 -52 12 -61 -1 -1808 -13 -1861 -12 -50 -41 -115
-52 -115 -15 0 -77 57 -215 198 -261 267 -446 421 -755 626 -161 107 -253 162
-565 332 -75 40 -99 65 -90 93 12 40 273 223 516 362 314 180 698 346 944 408
146 37 178 38 204 9z M3800 6144 c-139 -36 -280 -144 -348 -266 -168 -297 -20
-680 306 -794 345 -119 717 124 740 483 10 169 -44 311 -162 428 -80 80 -162
127 -257 150 -80 18 -207 18 -279 -1z m293 -294 c35 -13 77 -39 104 -65 l45
-43 -4 -134 c-3 -128 -4 -135 -32 -176 -42 -61 -129 -102 -233 -109 -131 -9
-242 34 -303 119 -29 40 -30 44 -30 161 0 140 10 162 92 216 98 64 241 76 361
31z M6575 6141 c-190 -54 -336 -199 -391 -386 -22 -76 -23 -221 -1 -291 29
-98 71 -167 142 -240 176 -180 425 -221 653 -109 263 130 377 448 257 720 -65
148 -208 267 -372 309 -79 21 -212 19 -288 -3z m248 -276 c67 -17 123 -51 160
-95 26 -31 27 -36 27 -157 0 -116 -2 -130 -24 -168 -69 -117 -278 -161 -431
-91 -121 55 -145 99 -145 261 l0 115 34 38 c82 91 244 132 379 97z M6409 4976
c-85 -44 -88 -78 -20 -235 27 -62 52 -115 55 -118 9 -9 7 340 -2 354 -6 10
-13 9 -33 -1z M4217 4973 c-4 -3 -7 -85 -7 -182 0 -96 4 -171 8 -165 23 26 86
196 90 241 4 48 2 55 -26 83 -30 29 -52 37 -65 23z M4870 4769 c-214 -10 -384
-47 -477 -105 -214 -133 -237 -398 -57 -676 166 -258 504 -549 814 -701 98
-49 110 -52 180 -52 68 0 83 4 170 46 241 116 539 349 715 560 180 216 254
402 225 566 -15 87 -47 148 -109 206 -84 78 -205 122 -401 147 -109 13 -841
20 -1060 9z m979 -270 c122 -11 251 -40 288 -64 22 -15 23 -21 23 -128 l0
-112 -44 -75 c-91 -156 -236 -295 -511 -494 -158 -113 -204 -136 -276 -136
-72 0 -127 28 -298 152 -288 208 -457 379 -526 531 -23 49 -25 67 -23 148 l3
93 40 23 c49 28 155 52 271 62 136 12 924 12 1053 0z M5547 3183 c-32 -48 -63
-107 -70 -130 -6 -24 -15 -43 -19 -43 -4 0 -8 -90 -8 -200 0 -226 4 -244 91
-372 149 -220 400 -356 732 -398 123 -16 378 -9 562 15 164 22 195 18 195 -24
0 -62 -106 -91 -406 -113 -387 -28 -735 43 -998 204 -172 105 -242 138 -295
138 -57 0 -92 -16 -263 -119 -303 -182 -628 -252 -1031 -223 -322 24 -446 61
-421 127 13 32 48 31 349 -6 111 -13 351 -10 460 6 136 21 234 49 342 100 201
94 330 219 415 400 l29 64 -3 216 c-2 137 -7 218 -14 223 -5 4 -16 23 -24 42
-8 19 -34 66 -59 105 l-46 70 -5 -316 -5 -316 -44 -57 c-217 -281 -669 -386
-1226 -284 -123 22 -183 19 -244 -12 -92 -46 -143 -126 -149 -233 -7 -115 47
-211 147 -261 129 -65 650 -108 911 -76 335 42 632 166 832 349 l55 50 34 -35
c120 -125 332 -242 552 -305 163 -47 258 -61 474 -66 214 -6 341 3 551 38 144
24 178 37 234 87 136 122 112 352 -45 442 -75 42 -119 46 -262 21 -200 -35
-379 -46 -532 -32 -321 28 -553 137 -691 325 l-37 50 -5 319 -5 318 -58 -88z
M947 2802 c34 -156 146 -443 166 -423 17 17 47 145 47 204 0 108 -66 203 -181
263 l-47 23 15 -67z M9684 2834 c-67 -45 -105 -87 -135 -149 -37 -76 -39 -167
-6 -269 l22 -70 39 84 c44 97 122 326 132 388 8 50 1 52 -52 16z M1469 1782
c18 -35 159 -188 272 -297 255 -245 523 -431 874 -604 298 -148 564 -246 890
-331 570 -148 1111 -210 1823 -210 573 0 1038 41 1487 131 872 174 1542 490
2089 985 91 82 250 252 294 315 l15 22 -75 -6 c-95 -7 -161 -39 -283 -138
-320 -260 -356 -288 -510 -385 -149 -95 -182 -114 -363 -203 -535 -265 -1194
-432 -1962 -497 -259 -21 -864 -30 -1130 -15 -654 36 -1176 128 -1675 295
-557 187 -979 431 -1415 819 -107 96 -195 137 -298 137 -38 0 -42 -2 -33 -18z"/>
</g>
</svg>
