<?xml version="1.0" standalone="no"?>
<!DOCTYPE svg PUBLIC "-//W3C//DTD SVG 20010904//EN"
 "http://www.w3.org/TR/2001/REC-SVG-20010904/DTD/svg10.dtd">
<svg version="1.0" xmlns="http://www.w3.org/2000/svg"
 width="2048.000000pt" height="2048.000000pt" viewBox="0 0 2048.000000 2048.000000"
 preserveAspectRatio="xMidYMid meet">
<metadata>
Created by potrace 1.13, written by Peter Selinger 2001-2015
</metadata>
<g transform="translate(0.000000,2048.000000) scale(0.192120,-0.192120)"
fill="#000000" stroke="none">
<path d="M7875 9094 c-77 -13 -421 -69 -765 -124 -3732 -596 -5565 -888 -5685
-906 -206 -31 -469 -183 -617 -357 -150 -177 -258 -434 -258 -614 0 -58 483
-3123 510 -3241 94 -397 405 -734 800 -866 149 -50 263 -66 470 -66 96 0 261
-5 365 -10 105 -5 564 -28 1020 -50 457 -22 963 -47 1125 -55 405 -20 374 -22
366 16 -9 46 -44 97 -76 114 -79 41 -422 45 -537 6 -163 -54 -341 -49 -522 14
-166 58 -200 62 -624 81 l-399 18 -126 -42 c-187 -61 -184 -61 -134 -17 51 44
91 119 99 183 4 36 -66 437 -286 1652 -321 1767 -302 1680 -389 1747 -159 121
-382 48 -439 -145 l-16 -57 293 -1615 c209 -1158 299 -1629 315 -1666 12 -28
39 -67 60 -87 21 -20 36 -37 33 -37 -16 0 -126 44 -209 84 -53 26 -128 53
-165 62 -130 30 -208 56 -284 94 -247 125 -443 342 -528 585 -41 117 -64 247
-287 1660 l-226 1430 3 195 c3 194 3 195 34 260 74 156 163 269 282 358 142
105 281 158 517 196 55 9 876 140 1825 291 1503 240 2849 455 3570 570 1055
168 1029 165 1140 165 214 0 440 -89 599 -234 53 -49 146 -170 188 -246 56
-99 74 -168 138 -523 44 -244 66 -310 136 -409 32 -44 85 -168 102 -238 9 -36
133 -844 277 -1796 l260 -1730 0 -202 c0 -196 -1 -205 -26 -265 -52 -123 -110
-194 -424 -511 -168 -170 -357 -354 -420 -410 -63 -55 -189 -177 -280 -269
-271 -278 -388 -365 -546 -409 -78 -22 -85 -22 -1043 -26 -1022 -3 -1185 1
-1306 39 -151 46 -327 161 -415 272 -98 123 -180 362 -180 523 0 59 14 89 24
51 9 -38 91 -123 144 -149 l47 -23 1030 0 c1139 0 1094 -2 1297 65 387 129
698 447 822 839 58 184 56 101 56 2141 0 1864 -1 1875 -21 1920 -26 59 -72
106 -134 138 -128 66 -302 6 -367 -126 l-23 -47 -5 -1885 c-5 -1777 -7 -1888
-24 -1945 -74 -249 -255 -436 -500 -518 -56 -19 -94 -21 -492 -26 l-431 -6
-12 75 c-38 245 -236 3194 -271 4044 -9 214 -13 256 -31 295 -26 59 -71 106
-134 139 -141 73 -330 -7 -381 -161 -15 -44 -16 -77 -10 -237 19 -530 161
-2748 226 -3540 18 -220 53 -543 65 -595 4 -20 -1 -20 -328 -20 -370 0 -368 0
-447 -71 -45 -41 -73 -89 -85 -144 -4 -19 -22 -57 -40 -85 -86 -133 -121 -245
-111 -360 17 -182 91 -337 235 -489 162 -169 378 -286 588 -316 54 -8 408 -10
1163 -8 l1085 3 70 24 c193 65 252 112 680 543 931 937 989 998 1038 1083 72
123 117 279 117 405 0 51 -528 3600 -565 3799 -20 108 -63 211 -124 298 l-48
69 -52 299 c-53 312 -73 393 -122 508 -67 160 -231 358 -376 456 -257 172
-524 223 -868 165z m-1773 -1825 c13 -6 32 -22 43 -37 17 -24 21 -55 32 -277
55 -1099 231 -3697 265 -3910 13 -84 71 -198 125 -246 20 -17 57 -41 82 -53
44 -20 61 -21 396 -21 295 0 363 3 430 17 175 38 310 111 432 234 148 149 241
330 282 550 8 43 11 571 11 1845 0 1186 4 1796 10 1821 15 53 61 88 115 88 24
0 56 -5 70 -12 l25 -11 -2 -1951 -3 -1951 -21 -60 c-62 -172 -155 -315 -291
-445 -150 -145 -319 -232 -543 -282 l-105 -23 -985 0 c-1122 0 -1043 -6 -1048
80 -5 92 -12 89 286 96 255 5 260 6 314 32 56 27 96 70 137 144 23 40 23 47
18 210 -3 92 -13 238 -21 323 -21 203 -56 680 -111 1505 -91 1373 -96 1472
-93 1915 l3 404 25 13 c31 16 91 17 122 2z m-3983 -875 c51 -42 24 88 331
-1602 239 -1315 240 -1323 240 -1462 0 -156 -2 -160 -73 -160 -84 0 -123 38
-151 148 -22 81 -30 128 -287 1537 -225 1230 -232 1274 -233 1405 -1 134 -1
134 24 147 44 22 114 16 149 -13z M3959 7196 c-117 -41 -189 -139 -189 -255 0
-79 280 -3733 291 -3788 28 -146 176 -244 322 -213 98 20 195 114 215 207 9
39 -17 409 -133 1923 -79 1031 -147 1892 -150 1914 -23 155 -208 265 -356 212z
m159 -223 c32 -20 48 -64 56 -153 4 -41 58 -745 121 -1564 109 -1416 115
-1504 115 -1777 0 -158 -3 -294 -6 -303 -10 -25 -67 -39 -112 -26 -50 13 -55
19 -80 105 -26 85 -18 -2 -152 1739 -102 1330 -110 1449 -110 1702 0 197 3
275 12 280 40 25 114 24 156 -3z"/>
</g>
</svg>
