<?xml version="1.0" standalone="no"?>
<!DOCTYPE svg PUBLIC "-//W3C//DTD SVG 20010904//EN"
 "http://www.w3.org/TR/2001/REC-SVG-20010904/DTD/svg10.dtd">
<svg version="1.0" xmlns="http://www.w3.org/2000/svg"
 width="2048.000000pt" height="2048.000000pt" viewBox="0 0 2048.000000 2048.000000"
 preserveAspectRatio="xMidYMid meet">
<metadata>
Created by potrace 1.13, written by Peter Selinger 2001-2015
</metadata>
<g transform="translate(0.000000,2048.000000) scale(0.192120,-0.192120)"
fill="#000000" stroke="none">
<path d="M5223 10315 c-348 -94 -708 -603 -1058 -1495 -454 -1158 -834 -2838
-990 -4371 -14 -136 -28 -306 -31 -378 l-7 -131 -66 0 c-225 0 -523 -81 -759
-205 -211 -112 -371 -232 -557 -419 -327 -329 -546 -736 -585 -1087 -20 -183
19 -297 153 -435 136 -143 357 -277 692 -422 149 -65 293 -120 1040 -397 268
-100 523 -200 620 -244 22 -10 78 -46 125 -80 313 -225 763 -321 1515 -321
604 0 1022 72 1317 226 311 163 582 276 1233 514 952 349 1259 500 1477 729
128 133 168 250 148 429 -22 196 -91 393 -215 606 -364 631 -1016 1072 -1631
1103 l-111 6 -7 126 c-49 927 -279 2302 -562 3356 -528 1964 -1177 3042 -1741
2890z m194 -251 c175 -60 380 -299 593 -694 324 -600 646 -1561 891 -2658 177
-797 292 -1516 369 -2320 17 -171 35 -332 42 -357 12 -46 54 -100 98 -128 14
-8 50 -20 81 -27 l57 -11 6 -72 c24 -289 38 -635 33 -857 -6 -262 -19 -392
-68 -698 -33 -200 -32 -234 5 -248 61 -23 229 158 367 393 104 179 171 341
216 523 23 92 26 125 26 260 -2 232 -30 405 -88 536 -14 31 -25 58 -25 61 0 8
113 -83 187 -151 40 -36 98 -84 129 -107 31 -23 64 -49 74 -58 9 -9 66 -52
126 -96 198 -144 415 -383 542 -596 60 -99 141 -285 166 -379 14 -50 17 -95
14 -195 l-3 -130 -38 -52 c-40 -55 -111 -114 -240 -202 -84 -57 -112 -95 -142
-191 -10 -30 -21 -59 -25 -63 -4 -4 -38 8 -76 27 -223 111 -504 134 -804 65
-493 -114 -883 -432 -916 -748 -4 -34 -8 -61 -10 -61 -1 0 -33 7 -71 16 -88
20 -145 13 -248 -33 -265 -117 -494 -176 -840 -215 -162 -18 -936 -18 -1090 0
-209 25 -321 43 -455 77 -169 43 -231 64 -349 123 -84 42 -102 47 -160 47 -36
0 -83 -4 -103 -8 -38 -8 -38 -8 -38 24 0 52 -30 150 -67 220 -88 170 -278 333
-513 442 -340 158 -722 198 -1010 106 -36 -11 -96 -36 -134 -55 -38 -19 -72
-31 -76 -27 -4 4 -19 44 -34 88 -16 44 -35 88 -45 99 -9 10 -68 53 -131 96
-103 71 -173 136 -207 194 -8 14 -12 74 -13 182 0 187 10 228 108 424 106 214
259 421 431 582 88 82 266 222 308 241 13 5 23 14 23 18 0 5 24 30 52 56 29
26 86 80 128 118 41 39 89 81 107 93 l31 22 -29 -70 c-42 -99 -68 -239 -79
-412 -14 -242 12 -393 111 -633 111 -270 320 -572 441 -638 44 -23 54 -22 74
9 16 24 15 36 -15 227 -50 319 -61 426 -67 687 -6 223 8 603 32 860 l6 65 52
1 c28 0 62 2 75 5 34 5 117 101 135 156 9 27 29 185 46 353 126 1266 385 2562
736 3680 273 872 606 1565 894 1859 147 151 269 198 397 155z m2441 -6462 c23
-11 45 -35 59 -62 22 -42 23 -50 23 -336 0 -288 0 -294 -26 -376 -26 -81 -92
-227 -116 -259 -7 -9 -21 -16 -30 -16 -17 0 -18 33 -18 540 l0 540 36 -6 c20
-3 52 -14 72 -25z m-4988 -508 c0 -347 -3 -523 -10 -519 -5 3 -10 1 -10 -6 0
-7 -8 -5 -20 6 -27 25 -92 160 -124 259 -25 77 -26 84 -26 365 0 255 2 290 19
326 10 22 25 46 33 53 20 16 87 40 116 41 l22 1 0 -526z"/>
</g>
</svg>
