<?xml version="1.0" standalone="no"?>
<!DOCTYPE svg PUBLIC "-//W3C//DTD SVG 20010904//EN"
 "http://www.w3.org/TR/2001/REC-SVG-20010904/DTD/svg10.dtd">
<svg version="1.0" xmlns="http://www.w3.org/2000/svg"
 width="2048.000000pt" height="2048.000000pt" viewBox="0 0 2048.000000 2048.000000"
 preserveAspectRatio="xMidYMid meet">
<metadata>
Created by potrace 1.13, written by Peter Selinger 2001-2015
</metadata>
<g transform="translate(0.000000,2048.000000) scale(0.192120,-0.192120)"
fill="#000000" stroke="none">
<path d="M3910 10316 c-207 -44 -346 -149 -434 -327 -90 -183 -80 164 -86
-3179 l-5 -2965 -24 -48 c-43 -88 -122 -112 -185 -57 -65 57 -65 59 -70 635
-4 536 -8 596 -52 824 -84 440 -291 873 -576 1206 -153 179 -296 279 -478 337
-65 20 -95 23 -230 23 -175 0 -255 -15 -377 -70 -181 -83 -257 -237 -224 -455
14 -90 73 -264 171 -500 259 -626 515 -1609 650 -2493 16 -109 42 -251 56
-315 274 -1223 1222 -2195 2441 -2501 1516 -380 3118 349 3822 1739 160 315
262 638 322 1015 22 134 23 173 26 902 4 673 2 773 -12 850 -68 366 -254 590
-559 673 -64 18 -99 21 -186 18 -99 -3 -112 -6 -182 -40 -71 -36 -138 -94
-179 -157 -15 -24 -16 -23 -22 50 -8 95 -38 192 -90 294 -31 61 -63 102 -132
171 -82 83 -102 97 -205 147 -63 31 -146 63 -185 73 -86 21 -221 23 -295 5
-129 -32 -272 -129 -344 -234 -22 -32 -43 -54 -46 -50 -4 5 -13 30 -19 57 -17
68 -62 165 -115 244 -158 238 -451 394 -708 379 -177 -11 -360 -102 -519 -259
l-89 -87 0 1747 c0 1888 2 1805 -53 1942 -64 158 -167 275 -300 339 -45 23
-109 48 -142 57 -82 22 -282 27 -365 10z m350 -231 c78 -24 171 -78 213 -124
43 -48 67 -93 98 -186 l24 -70 5 -1660 c6 -1752 4 -1696 52 -1788 79 -156 160
-182 298 -96 221 137 273 161 387 179 218 36 488 -90 618 -287 110 -167 130
-194 167 -233 49 -50 99 -74 142 -66 30 6 48 17 200 120 103 69 182 90 315 83
167 -8 293 -63 408 -176 67 -65 82 -90 156 -251 65 -141 148 -229 218 -230 21
0 68 16 117 40 126 60 181 74 282 67 228 -15 407 -151 470 -355 19 -62 20 -95
20 -974 l0 -910 -25 -127 c-47 -230 -104 -416 -193 -621 -70 -164 -104 -228
-198 -378 -156 -249 -299 -427 -490 -612 -495 -479 -1114 -777 -1814 -875
-156 -22 -541 -31 -707 -16 -475 42 -913 178 -1318 409 -724 413 -1263 1114
-1471 1912 -19 74 -64 306 -99 515 -157 936 -373 1750 -648 2440 -126 317
-127 322 -127 480 0 152 1 154 102 200 167 76 429 74 606 -6 115 -51 197 -119
317 -259 239 -280 415 -655 494 -1050 44 -223 51 -330 51 -806 0 -477 -1 -464
48 -604 28 -82 114 -185 183 -220 145 -74 307 54 372 295 8 28 13 910 17 2960
l5 2920 21 60 c42 121 85 182 171 239 55 36 123 62 201 76 68 13 248 4 312
-15z"/>
</g>
</svg>
