<?xml version="1.0" standalone="no"?>
<!DOCTYPE svg PUBLIC "-//W3C//DTD SVG 20010904//EN"
 "http://www.w3.org/TR/2001/REC-SVG-20010904/DTD/svg10.dtd">
<svg version="1.0" xmlns="http://www.w3.org/2000/svg"
 width="2048.000000pt" height="2048.000000pt" viewBox="0 0 2048.000000 2048.000000"
 preserveAspectRatio="xMidYMid meet">
<metadata>
Created by potrace 1.13, written by Peter Selinger 2001-2015
</metadata>
<g transform="translate(0.000000,2048.000000) scale(0.192120,-0.192120)"
fill="#000000" stroke="none">
<path d="M7822 10301 c-57 -20 -123 -75 -149 -126 -9 -16 -81 -214 -160 -439
-160 -458 -165 -482 -119 -581 43 -93 153 -165 251 -165 85 0 187 58 234 133
10 17 85 221 166 452 143 409 147 422 142 487 -7 112 -86 212 -191 243 -65 20
-109 18 -174 -4z m88 -355 c0 -53 -7 -94 -26 -147 -14 -41 -38 -112 -54 -159
-80 -234 -113 -308 -150 -337 -33 -27 -40 -16 -40 65 0 71 6 96 76 292 94 269
120 327 153 345 14 8 29 14 34 15 4 0 7 -33 7 -74z M9678 10037 c-67 -32
-1101 -1058 -1128 -1119 -29 -68 -34 -128 -16 -191 45 -154 197 -237 352 -192
59 16 62 20 592 548 427 426 538 542 559 585 70 142 -6 326 -155 376 -66 23
-148 20 -204 -7z m91 -276 c11 -7 9 -16 -7 -52 -14 -32 -126 -149 -418 -440
-399 -396 -468 -459 -509 -459 -34 0 -46 19 -30 49 22 43 856 867 900 889 46
24 46 24 64 13z M3683 10025 c-101 -22 -178 -69 -279 -170 -66 -65 -99 -108
-122 -155 -30 -60 -58 -167 -48 -178 3 -2 21 -1 40 2 45 9 87 44 135 115 21
31 66 82 99 114 151 143 325 162 497 52 103 -65 382 -322 785 -720 374 -370
430 -415 516 -415 29 0 55 4 58 8 3 5 -270 283 -607 619 -512 510 -623 617
-682 651 -135 78 -271 105 -392 77z M2578 9646 c-120 -42 -236 -140 -318 -268
-54 -83 -80 -170 -80 -269 0 -77 -1 -80 -45 -144 -43 -63 -85 -172 -85 -221 0
-19 5 -24 26 -24 65 0 121 67 144 171 11 49 10 63 -4 105 l-17 49 60 57 c149
141 346 179 534 103 135 -54 135 -54 1272 -1185 1574 -1566 1715 -1705 1729
-1704 7 1 57 39 110 85 l97 84 -1320 1315 c-726 723 -1334 1337 -1351 1363
-40 61 -74 138 -89 204 -10 42 -23 61 -69 105 -186 176 -406 240 -594 174z
M6655 9048 c-27 -5 -84 -25 -125 -45 -98 -47 -231 -177 -278 -272 -41 -83 -41
-91 4 -91 53 0 90 22 179 105 177 166 321 194 505 99 36 -19 120 -80 185 -136
268 -229 2040 -1995 2185 -2178 321 -404 527 -870 600 -1359 18 -118 20 -185
20 -585 0 -637 9 -695 149 -980 43 -88 84 -179 90 -201 6 -22 11 -83 11 -136
0 -90 -2 -99 -39 -175 -29 -59 -65 -108 -144 -194 -100 -110 -1318 -1326
-1727 -1725 -256 -249 -309 -279 -530 -291 -58 -3 -123 -12 -146 -20 -40 -14
-90 -66 -80 -83 11 -17 174 -34 278 -28 116 6 215 35 303 88 36 22 388 367
1083 1063 1102 1104 1086 1086 1126 1225 20 69 20 199 1 276 -15 60 -76 190
-159 339 -81 146 -81 143 -82 716 0 489 -3 561 -35 760 -82 520 -319 1033
-673 1455 -69 83 -746 763 -1576 1584 -688 681 -696 688 -780 729 -128 63
-233 82 -345 60z M1466 8829 c-74 -17 -167 -72 -241 -141 -155 -145 -225 -315
-195 -477 31 -175 92 -264 326 -481 l177 -164 21 29 c11 17 53 62 93 102 53
53 94 82 157 114 77 38 93 42 180 47 83 4 106 1 179 -22 51 -16 113 -45 158
-74 57 -38 346 -320 1285 -1255 l1210 -1205 94 105 93 106 -259 256 c-142 141
-779 774 -1416 1408 -844 841 -1166 1168 -1191 1210 -38 62 -60 114 -77 180
-22 86 -210 219 -365 258 -65 16 -168 18 -229 4z m225 -255 c80 -23 166 -73
203 -115 17 -21 50 -68 71 -106 22 -37 67 -103 100 -147 33 -43 68 -92 79
-108 30 -47 13 -55 -127 -60 -149 -6 -216 -26 -343 -101 -114 -68 -129 -71
-179 -47 -54 26 -172 144 -215 216 -33 55 -35 64 -38 160 -4 111 3 135 58 198
38 43 117 94 173 111 58 19 153 18 218 -1z M5594 8776 c-52 -17 -158 -73 -179
-96 -15 -16 37 -70 792 -822 870 -867 924 -919 1083 -1049 251 -204 440 -308
569 -312 122 -3 168 -55 -708 814 -441 437 -819 820 -842 851 -78 112 -118
229 -120 351 l0 62 -62 53 c-130 111 -259 162 -405 161 -48 0 -105 -6 -128
-13z m341 -289 l60 -32 3 -62 c2 -35 -1 -63 -6 -63 -14 0 -131 119 -147 150
-26 51 4 53 90 7z M9985 8183 c-41 -11 -746 -263 -774 -278 -16 -8 -47 -35
-70 -61 -119 -136 -76 -341 92 -431 23 -12 55 -18 112 -18 77 0 92 4 438 128
197 70 375 136 397 147 50 25 105 91 124 148 36 105 11 208 -69 289 -69 68
-164 97 -250 76z m-105 -339 c0 -8 -5 -12 -10 -9 -6 4 -8 11 -5 16 9 14 15 11
15 -7z m-30 -10 c0 -8 -5 -12 -10 -9 -6 4 -8 11 -5 16 9 14 15 11 15 -7z m-33
-16 c-3 -8 -6 -5 -6 6 -1 11 2 17 5 13 3 -3 4 -12 1 -19z m-30 -10 c-3 -8 -6
-5 -6 6 -1 11 2 17 5 13 3 -3 4 -12 1 -19z m-77 -24 c0 -8 -5 -12 -10 -9 -6 4
-8 11 -5 16 9 14 15 11 15 -7z m-30 -10 c0 -8 -5 -12 -10 -9 -6 4 -8 11 -5 16
9 14 15 11 15 -7z m-33 -16 c-3 -8 -6 -5 -6 6 -1 11 2 17 5 13 3 -3 4 -12 1
-19z m-30 -10 c-3 -8 -6 -5 -6 6 -1 11 2 17 5 13 3 -3 4 -12 1 -19z m-30 -10
c-3 -8 -6 -5 -6 6 -1 11 2 17 5 13 3 -3 4 -12 1 -19z m-30 -10 c-3 -8 -6 -5
-6 6 -1 11 2 17 5 13 3 -3 4 -12 1 -19z M1501 7500 c-22 -49 -45 -140 -37
-147 10 -10 77 19 91 40 21 31 19 66 -9 112 l-25 40 -20 -45z M925 7426 c-97
-24 -166 -66 -260 -161 -102 -101 -146 -174 -171 -281 -21 -89 -13 -188 21
-280 50 -134 95 -185 480 -546 198 -185 362 -337 365 -337 3 -1 23 22 44 50
48 63 136 131 218 169 156 73 346 51 511 -58 34 -23 436 -414 991 -966 830
-822 935 -924 941 -904 4 13 32 67 62 120 30 53 53 105 51 115 -2 10 -580 592
-1286 1293 -912 907 -1296 1294 -1328 1342 -52 78 -89 163 -99 229 -6 40 -13
51 -60 87 -148 116 -331 165 -480 128z m212 -250 c126 -33 163 -65 244 -209
73 -130 148 -220 354 -427 174 -175 225 -234 225 -259 0 -9 7 -8 -125 -15
-132 -6 -199 -25 -327 -91 -59 -30 -117 -55 -130 -55 -41 0 -93 42 -339 270
-183 169 -254 242 -288 295 -45 69 -46 72 -49 163 -6 136 0 154 67 221 107
107 232 143 368 107z M1312 5728 c-38 -80 -48 -128 -26 -128 33 0 82 32 95 61
13 34 0 97 -25 118 -12 10 -20 1 -44 -51z M803 5645 c-100 -22 -178 -69 -273
-165 -126 -126 -180 -242 -180 -388 0 -131 65 -281 172 -394 42 -45 2791
-2603 3144 -2925 541 -495 1155 -759 1864 -803 316 -20 472 -69 776 -246 147
-85 240 -127 349 -158 327 -92 597 -41 785 149 l62 63 -58 16 c-107 30 -211
77 -311 138 -250 155 -365 213 -506 257 -89 27 -154 38 -347 56 -573 56 -1109
275 -1565 640 -129 103 -264 236 -1936 1900 -1069 1063 -1404 1403 -1428 1445
-43 77 -71 153 -85 234 l-11 68 -61 37 c-123 74 -272 103 -391 76z m240 -263
c49 -17 50 -19 126 -153 42 -75 100 -167 128 -206 73 -97 3136 -3143 3283
-3264 237 -195 412 -309 686 -447 87 -44 113 -65 93 -77 -24 -15 -159 -3 -294
26 -468 102 -883 319 -1270 665 -61 53 -485 446 -944 873 -460 427 -1130 1050
-1491 1385 -360 334 -675 631 -698 659 -78 91 -92 130 -92 255 0 105 1 111 30
150 52 73 160 140 250 156 41 7 141 -4 193 -22z m5413 -4367 c117 -21 240 -63
361 -124 107 -53 162 -96 146 -112 -68 -68 -417 30 -614 174 -102 74 -70 92
107 62z M1055 3201 c-104 -37 -278 -98 -385 -136 -186 -66 -197 -72 -246 -120
-136 -136 -100 -357 73 -441 102 -50 125 -46 553 105 206 73 390 142 407 153
186 114 168 391 -32 484 -88 42 -148 34 -370 -45z m75 -277 c0 -8 -5 -12 -10
-9 -6 4 -8 11 -5 16 9 14 15 11 15 -7z m-30 -10 c0 -8 -5 -12 -10 -9 -6 4 -8
11 -5 16 9 14 15 11 15 -7z m-33 -16 c-3 -8 -6 -5 -6 6 -1 11 2 17 5 13 3 -3
4 -12 1 -19z m-30 -10 c-3 -8 -6 -5 -6 6 -1 11 2 17 5 13 3 -3 4 -12 1 -19z
m-30 -10 c-3 -8 -6 -5 -6 6 -1 11 2 17 5 13 3 -3 4 -12 1 -19z m-30 -10 c-3
-8 -6 -5 -6 6 -1 11 2 17 5 13 3 -3 4 -12 1 -19z m-17 -4 c0 -8 -4 -12 -10 -9
-5 3 -10 10 -10 16 0 5 5 9 10 9 6 0 10 -7 10 -16z m-30 -10 c0 -8 -5 -12 -10
-9 -6 4 -8 11 -5 16 9 14 15 11 15 -7z m-33 -16 c-3 -8 -6 -5 -6 6 -1 11 2 17
5 13 3 -3 4 -12 1 -19z m-30 -10 c-3 -8 -6 -5 -6 6 -1 11 2 17 5 13 3 -3 4
-12 1 -19z m-30 -10 c-3 -8 -6 -5 -6 6 -1 11 2 17 5 13 3 -3 4 -12 1 -19z
m-30 -10 c-3 -8 -6 -5 -6 6 -1 11 2 17 5 13 3 -3 4 -12 1 -19z M1765 2125
c-22 -8 -42 -15 -45 -15 -2 0 -245 -240 -538 -532 -593 -591 -582 -578 -582
-702 0 -189 171 -314 356 -261 59 16 62 19 597 553 388 388 544 550 559 582
28 56 30 166 4 222 -22 51 -70 104 -123 135 -56 33 -166 42 -228 18z m80 -295
c4 -13 -1 -33 -14 -53 -30 -48 -841 -852 -879 -871 -45 -23 -76 -18 -80 13 -3
21 64 92 430 456 302 300 447 437 478 453 55 27 57 27 65 2z M2916 1650 c-52
-20 -118 -77 -141 -120 -7 -14 -79 -214 -160 -445 -137 -392 -147 -424 -143
-480 15 -242 313 -348 476 -171 45 48 46 52 217 540 110 315 125 366 125 423
0 71 -16 117 -59 172 -69 87 -211 124 -315 81z m104 -340 c0 -46 -12 -94 -49
-202 -126 -370 -152 -432 -193 -457 -31 -20 -40 2 -35 89 4 61 19 114 81 290
104 291 129 340 178 340 15 0 18 -9 18 -60z"/>
</g>
</svg>
