<?xml version="1.0" standalone="no"?>
<!DOCTYPE svg PUBLIC "-//W3C//DTD SVG 20010904//EN"
 "http://www.w3.org/TR/2001/REC-SVG-20010904/DTD/svg10.dtd">
<svg version="1.0" xmlns="http://www.w3.org/2000/svg"
 width="2048.000000pt" height="2048.000000pt" viewBox="0 0 2048.000000 2048.000000"
 preserveAspectRatio="xMidYMid meet">
<metadata>
Created by potrace 1.13, written by Peter Selinger 2001-2015
</metadata>
<g transform="translate(0.000000,2048.000000) scale(0.192120,-0.192120)"
fill="#000000" stroke="none">
<path d="M6465 8869 c-1938 -311 -4686 -750 -4905 -784 -199 -30 -304 -61
-430 -126 -177 -91 -329 -233 -434 -408 -82 -136 -146 -337 -146 -458 0 -67
495 -3192 519 -3278 130 -465 534 -816 1017 -884 38 -6 159 -11 269 -12 110
-1 272 -6 360 -10 1859 -91 2432 -119 2470 -119 43 0 46 1 40 23 -16 55 -52
113 -81 129 -41 24 -148 38 -306 39 -119 1 -145 -2 -248 -29 -207 -54 -331
-49 -540 22 -72 25 -154 47 -183 51 -28 3 -220 14 -426 24 -405 20 -407 20
-541 -31 -36 -14 -78 -28 -95 -32 l-30 -7 31 33 c44 46 75 112 81 172 3 39
-63 424 -281 1621 -157 864 -291 1591 -297 1617 -24 105 -106 185 -215 209
-144 32 -293 -67 -324 -216 -11 -51 5 -141 280 -1657 160 -882 296 -1618 301
-1636 6 -17 26 -54 45 -82 l34 -49 -38 13 c-20 8 -80 34 -132 59 -109 51 -128
58 -267 91 -172 41 -328 132 -467 270 -148 148 -237 312 -286 526 -5 25 -113
700 -240 1500 l-230 1455 0 162 c0 149 2 168 25 229 103 272 319 467 610 547
33 9 933 156 2000 326 1067 171 2518 402 3225 515 707 113 1328 210 1380 217
366 44 693 -123 885 -450 63 -108 96 -232 160 -611 22 -126 55 -224 106 -307
52 -84 97 -182 115 -248 8 -27 134 -842 280 -1810 l265 -1760 -3 -195 c-4
-220 -6 -227 -96 -365 -48 -74 -572 -612 -772 -793 -58 -52 -197 -186 -310
-297 -279 -274 -330 -313 -480 -367 l-65 -23 -1105 0 -1105 0 -79 23 c-164 47
-336 159 -430 279 -55 70 -105 167 -126 248 -5 17 -15 55 -24 87 -19 68 -31
181 -22 203 5 13 13 8 39 -26 48 -64 109 -106 171 -119 38 -8 344 -10 1062 -7
999 3 1010 3 1106 25 130 30 223 64 338 124 303 157 541 445 639 774 53 177
51 101 51 2123 0 1865 -1 1876 -21 1921 -26 59 -72 106 -134 138 -128 66 -302
6 -367 -126 l-23 -47 -5 -1885 c-5 -1777 -7 -1888 -24 -1945 -74 -249 -246
-427 -496 -516 -63 -23 -76 -23 -496 -27 l-431 -3 -11 68 c-36 206 -233 3151
-272 4052 -12 279 -20 311 -95 380 -59 54 -107 74 -186 74 -122 2 -230 -76
-266 -190 -15 -49 -16 -78 -5 -341 30 -683 189 -3108 237 -3612 15 -152 42
-375 50 -415 4 -20 -1 -20 -328 -20 -324 0 -333 -1 -378 -22 -80 -40 -136
-110 -154 -193 -4 -19 -21 -54 -37 -78 -46 -67 -97 -182 -109 -247 -12 -66 -6
-159 16 -246 84 -324 442 -628 802 -679 54 -8 408 -10 1163 -8 l1085 3 70 24
c193 65 252 112 680 543 931 937 989 998 1038 1083 72 122 117 279 117 404 0
63 -538 3672 -570 3820 -23 109 -62 198 -124 285 l-43 61 -52 300 c-69 404
-98 495 -207 663 -200 307 -551 495 -918 491 -80 -1 -422 -53 -1651 -250z
m-329 -1615 c38 -49 35 -26 54 -424 36 -730 181 -2930 236 -3570 25 -294 40
-345 134 -441 89 -90 96 -92 533 -87 394 5 416 8 562 72 268 119 478 407 530
730 13 84 15 317 15 1878 0 1748 0 1784 20 1815 10 17 29 37 41 44 25 13 103
16 137 5 l22 -7 -2 -1972 -3 -1972 -43 -100 c-108 -254 -315 -469 -558 -581
-43 -20 -131 -50 -194 -67 l-115 -30 -535 -8 c-617 -10 -1485 -2 -1515 14 -11
5 -23 15 -27 21 -12 18 -9 74 6 110 12 29 19 34 61 39 26 4 136 7 245 7 231 0
278 10 345 71 72 67 85 106 85 263 0 74 -9 232 -20 352 -32 358 -71 915 -171
2439 -25 384 -33 571 -36 935 -5 415 -3 457 12 470 39 32 153 28 181 -6z
m-4040 -834 c52 -20 66 -50 100 -210 20 -96 457 -2495 494 -2715 15 -86 10
-289 -7 -306 -15 -15 -123 -15 -152 0 -36 20 -67 100 -99 261 -17 85 -135 727
-262 1425 -221 1222 -230 1276 -230 1398 l0 126 28 15 c32 18 90 20 128 6z
M3959 7196 c-61 -21 -108 -56 -138 -99 -38 -58 -51 -100 -51 -171 0 -34 65
-898 144 -1921 158 -2056 142 -1910 221 -1990 126 -125 322 -105 424 45 16 25
35 65 40 90 14 62 -270 3787 -295 3869 -42 139 -210 226 -345 177z m151 -206
c28 -15 57 -70 64 -120 3 -25 58 -717 121 -1539 115 -1491 115 -1494 115
-1831 l0 -337 -25 -11 c-34 -16 -78 -15 -118 1 -27 12 -36 25 -55 78 -12 35
-26 107 -32 159 -5 52 -62 771 -125 1597 -109 1422 -115 1514 -113 1744 l3
243 25 13 c30 15 114 17 140 3z"/>
</g>
</svg>
