<?xml version="1.0" standalone="no"?>
<!DOCTYPE svg PUBLIC "-//W3C//DTD SVG 20010904//EN"
 "http://www.w3.org/TR/2001/REC-SVG-20010904/DTD/svg10.dtd">
<svg version="1.0" xmlns="http://www.w3.org/2000/svg"
 width="2048.000000pt" height="2048.000000pt" viewBox="0 0 2048.000000 2048.000000"
 preserveAspectRatio="xMidYMid meet">
<metadata>
Created by potrace 1.13, written by Peter Selinger 2001-2015
</metadata>
<g transform="translate(0.000000,2048.000000) scale(0.192120,-0.192120)"
fill="#000000" stroke="none">
<path d="M7822 10301 c-57 -20 -123 -75 -149 -126 -9 -16 -81 -214 -160 -439
-160 -458 -165 -482 -119 -581 43 -93 153 -165 251 -165 85 0 187 58 234 133
10 17 85 221 166 452 143 409 147 422 142 487 -7 112 -86 212 -191 243 -65 20
-109 18 -174 -4z m88 -355 c0 -53 -7 -94 -26 -147 -14 -41 -38 -112 -54 -159
-80 -234 -113 -308 -150 -337 -33 -27 -40 -16 -40 65 0 71 6 96 76 292 94 269
120 327 153 345 14 8 29 14 34 15 4 0 7 -33 7 -74z M9678 10037 c-67 -32
-1101 -1058 -1128 -1119 -29 -68 -34 -128 -16 -191 45 -154 197 -237 352 -192
59 16 62 20 592 548 427 426 538 542 559 585 70 142 -6 326 -155 376 -66 23
-148 20 -204 -7z m91 -276 c11 -7 9 -16 -7 -52 -14 -32 -126 -149 -418 -440
-399 -396 -468 -459 -509 -459 -34 0 -46 19 -30 49 22 43 856 867 900 889 46
24 46 24 64 13z M3676 10025 c-99 -25 -173 -72 -271 -170 -50 -49 -103 -113
-117 -141 -33 -61 -58 -153 -58 -211 0 -38 2 -43 24 -43 74 0 124 39 202 157
58 87 129 152 204 186 68 31 187 29 260 -5 107 -49 265 -188 750 -659 434
-422 490 -473 563 -509 70 -35 109 -38 155 -10 l33 20 852 -847 c868 -864
1007 -993 1220 -1136 185 -124 335 -179 422 -155 l40 10 -811 807 c-446 443
-826 828 -844 854 -73 109 -116 246 -108 342 3 46 2 48 -59 105 -75 70 -162
121 -261 150 -60 18 -91 22 -170 18 -87 -3 -105 -7 -172 -40 -41 -20 -88 -48
-105 -61 l-30 -26 -625 623 c-669 667 -679 676 -828 725 -83 28 -191 35 -266
16z m2276 -1567 c64 -34 78 -55 78 -116 0 -68 -11 -66 -87 11 -68 70 -103 114
-103 129 0 18 56 6 112 -24z M2578 9646 c-121 -43 -236 -140 -318 -268 -54
-83 -80 -170 -80 -269 0 -74 -2 -82 -35 -128 -62 -85 -88 -157 -93 -248 -3
-49 -1 -83 5 -83 33 0 113 34 135 57 32 35 44 59 74 146 29 86 30 121 4 189
l-20 53 37 33 c57 49 169 100 246 112 115 18 241 -13 374 -91 42 -25 348 -323
1133 -1104 1527 -1519 1739 -1730 1750 -1733 5 -2 35 21 67 50 32 29 78 69
101 88 l43 36 -1312 1304 c-792 789 -1327 1328 -1351 1363 -49 73 -86 154 -94
210 -5 36 -17 53 -78 112 -78 76 -150 122 -248 163 -50 20 -84 26 -168 29 -92
3 -113 1 -172 -21z M6636 9045 c-195 -50 -383 -241 -430 -437 -6 -28 -6 -28
44 -28 68 0 96 16 206 120 234 220 386 202 708 -83 83 -74 1808 -1788 1968
-1956 311 -327 530 -712 659 -1156 83 -290 99 -448 99 -1000 0 -582 6 -624
125 -870 111 -229 115 -241 115 -355 0 -89 -3 -108 -27 -158 -15 -31 -45 -79
-67 -107 -56 -71 -1890 -1908 -1956 -1959 -117 -92 -226 -125 -410 -126 -129
0 -162 -18 -220 -120 -7 -12 -16 -12 -67 4 -94 30 -172 68 -304 151 -223 140
-391 216 -550 249 -41 8 -148 22 -239 30 -579 55 -1116 273 -1575 641 -127
102 -269 240 -1946 1910 -1276 1269 -1390 1386 -1426 1453 -42 77 -68 155 -78
234 -6 45 -9 49 -63 82 -178 108 -349 120 -515 38 -54 -26 -94 -57 -157 -121
-126 -128 -180 -243 -180 -389 0 -139 71 -293 189 -411 99 -99 3122 -2906
3226 -2996 326 -279 702 -485 1093 -599 236 -68 421 -100 672 -116 258 -16
374 -44 567 -135 61 -29 153 -77 205 -108 197 -116 322 -165 493 -193 260 -42
478 18 645 180 l65 63 65 -13 c88 -18 249 -17 335 1 39 8 104 31 145 51 73 35
107 68 1103 1063 764 762 1041 1045 1077 1099 124 184 123 384 -4 617 -24 44
-60 111 -81 149 -79 144 -79 147 -80 716 -1 555 -8 648 -67 920 -103 481 -331
932 -669 1325 -72 83 -1198 1211 -1929 1931 -332 326 -357 346 -497 395 -78
27 -192 33 -267 14z m-5593 -3682 c49 -13 62 -23 91 -62 18 -25 39 -58 47 -72
56 -105 75 -135 127 -201 53 -66 1173 -1187 2672 -2674 675 -669 801 -771
1219 -993 82 -44 146 -84 146 -92 0 -23 -130 -20 -257 7 -393 83 -733 237
-1060 482 -151 112 -224 178 -1313 1191 -1878 1746 -2030 1888 -2061 1932 -59
84 -64 100 -64 218 l0 109 49 54 c108 118 232 149 404 101z m5446 -4343 c124
-25 220 -59 332 -116 163 -84 173 -129 28 -126 -109 3 -373 100 -465 172 -17
14 -41 32 -53 40 -11 8 -21 22 -21 30 0 24 62 24 179 0z M1451 8824 c-86 -23
-159 -71 -251 -163 -173 -174 -218 -357 -140 -564 41 -109 108 -193 283 -355
90 -84 170 -158 176 -166 9 -10 4 -28 -19 -79 -22 -45 -33 -87 -37 -138 l-6
-72 44 7 c81 12 130 66 137 150 4 52 3 56 -37 99 -22 24 -41 50 -41 56 0 7 35
47 78 90 60 60 97 88 164 121 79 39 95 43 182 48 83 4 106 1 178 -21 170 -53
81 30 1733 -1618 l920 -918 94 106 94 105 -229 227 c-126 125 -763 758 -1416
1408 -1286 1281 -1241 1232 -1288 1391 -20 65 -28 78 -87 132 -73 66 -215 142
-301 159 -72 15 -166 13 -231 -5z m247 -273 c79 -24 179 -81 218 -123 17 -18
57 -72 89 -121 32 -48 87 -122 122 -164 41 -49 63 -84 61 -97 -3 -19 -11 -20
-143 -21 -124 -1 -149 -4 -215 -27 -41 -15 -111 -47 -155 -72 -95 -55 -125
-57 -187 -16 -66 44 -168 157 -200 222 -24 48 -28 67 -28 147 0 104 9 127 67
182 111 104 232 134 371 90z M9985 8183 c-41 -11 -746 -263 -774 -278 -16 -8
-47 -35 -70 -61 -119 -136 -76 -341 92 -431 23 -12 55 -18 112 -18 77 0 92 4
438 128 197 70 375 136 397 147 50 25 105 91 124 148 36 105 11 208 -69 289
-69 68 -164 97 -250 76z m-105 -339 c0 -8 -5 -12 -10 -9 -6 4 -8 11 -5 16 9
14 15 11 15 -7z m-30 -10 c0 -8 -5 -12 -10 -9 -6 4 -8 11 -5 16 9 14 15 11 15
-7z m-33 -16 c-3 -8 -6 -5 -6 6 -1 11 2 17 5 13 3 -3 4 -12 1 -19z m-30 -10
c-3 -8 -6 -5 -6 6 -1 11 2 17 5 13 3 -3 4 -12 1 -19z m-77 -24 c0 -8 -5 -12
-10 -9 -6 4 -8 11 -5 16 9 14 15 11 15 -7z m-30 -10 c0 -8 -5 -12 -10 -9 -6 4
-8 11 -5 16 9 14 15 11 15 -7z m-33 -16 c-3 -8 -6 -5 -6 6 -1 11 2 17 5 13 3
-3 4 -12 1 -19z m-30 -10 c-3 -8 -6 -5 -6 6 -1 11 2 17 5 13 3 -3 4 -12 1 -19z
m-30 -10 c-3 -8 -6 -5 -6 6 -1 11 2 17 5 13 3 -3 4 -12 1 -19z m-30 -10 c-3
-8 -6 -5 -6 6 -1 11 2 17 5 13 3 -3 4 -12 1 -19z M925 7426 c-97 -24 -166 -66
-261 -161 -70 -70 -99 -107 -127 -165 -65 -133 -72 -261 -22 -397 49 -131 98
-187 431 -498 172 -159 334 -311 362 -337 l50 -47 -40 -78 c-29 -57 -41 -95
-45 -141 -6 -60 -5 -62 18 -61 67 2 139 54 159 115 17 50 6 100 -30 145 -16
21 -30 42 -30 48 0 5 30 39 67 76 193 191 454 209 688 48 34 -24 467 -446 985
-961 834 -829 926 -918 934 -898 5 11 34 65 63 119 30 53 53 105 51 115 -2 9
-580 591 -1286 1292 -898 893 -1296 1295 -1327 1341 -53 78 -78 135 -96 213
-11 49 -20 64 -61 100 -130 114 -333 169 -483 132z m231 -277 c137 -42 153
-56 266 -229 92 -139 145 -199 357 -406 162 -157 221 -224 221 -251 0 -10 -27
-13 -128 -13 -154 0 -208 -12 -354 -81 -124 -58 -141 -59 -209 -1 -75 62 -421
386 -480 449 -31 32 -68 82 -83 111 -23 45 -26 64 -26 147 0 108 8 131 67 186
111 105 226 132 369 88z M1055 3201 c-104 -37 -278 -98 -385 -136 -186 -66
-197 -72 -246 -120 -136 -136 -100 -357 73 -441 102 -50 125 -46 553 105 206
73 390 142 407 153 186 114 168 391 -32 484 -88 42 -148 34 -370 -45z m75
-277 c0 -8 -5 -12 -10 -9 -6 4 -8 11 -5 16 9 14 15 11 15 -7z m-30 -10 c0 -8
-5 -12 -10 -9 -6 4 -8 11 -5 16 9 14 15 11 15 -7z m-33 -16 c-3 -8 -6 -5 -6 6
-1 11 2 17 5 13 3 -3 4 -12 1 -19z m-30 -10 c-3 -8 -6 -5 -6 6 -1 11 2 17 5
13 3 -3 4 -12 1 -19z m-30 -10 c-3 -8 -6 -5 -6 6 -1 11 2 17 5 13 3 -3 4 -12
1 -19z m-30 -10 c-3 -8 -6 -5 -6 6 -1 11 2 17 5 13 3 -3 4 -12 1 -19z m-17 -4
c0 -8 -4 -12 -10 -9 -5 3 -10 10 -10 16 0 5 5 9 10 9 6 0 10 -7 10 -16z m-30
-10 c0 -8 -5 -12 -10 -9 -6 4 -8 11 -5 16 9 14 15 11 15 -7z m-33 -16 c-3 -8
-6 -5 -6 6 -1 11 2 17 5 13 3 -3 4 -12 1 -19z m-30 -10 c-3 -8 -6 -5 -6 6 -1
11 2 17 5 13 3 -3 4 -12 1 -19z m-30 -10 c-3 -8 -6 -5 -6 6 -1 11 2 17 5 13 3
-3 4 -12 1 -19z m-30 -10 c-3 -8 -6 -5 -6 6 -1 11 2 17 5 13 3 -3 4 -12 1 -19z
M1765 2125 c-22 -8 -42 -15 -45 -15 -2 0 -245 -240 -538 -532 -593 -591 -582
-578 -582 -702 0 -189 171 -314 356 -261 59 16 62 19 597 553 388 388 544 550
559 582 28 56 30 166 4 222 -22 51 -70 104 -123 135 -56 33 -166 42 -228 18z
m80 -295 c4 -13 -1 -33 -14 -53 -30 -48 -841 -852 -879 -871 -45 -23 -76 -18
-80 13 -3 21 64 92 430 456 302 300 447 437 478 453 55 27 57 27 65 2z M2916
1650 c-52 -20 -118 -77 -141 -120 -7 -14 -79 -214 -160 -445 -137 -392 -147
-424 -143 -480 15 -242 313 -348 476 -171 45 48 46 52 217 540 110 315 125
366 125 423 0 71 -16 117 -59 172 -69 87 -211 124 -315 81z m104 -340 c0 -46
-12 -94 -49 -202 -126 -370 -152 -432 -193 -457 -31 -20 -40 2 -35 89 4 61 19
114 81 290 104 291 129 340 178 340 15 0 18 -9 18 -60z"/>
</g>
</svg>
