<?xml version="1.0" standalone="no"?>
<!DOCTYPE svg PUBLIC "-//W3C//DTD SVG 20010904//EN"
 "http://www.w3.org/TR/2001/REC-SVG-20010904/DTD/svg10.dtd">
<svg version="1.0" xmlns="http://www.w3.org/2000/svg"
 width="2048.000000pt" height="2048.000000pt" viewBox="0 0 2048.000000 2048.000000"
 preserveAspectRatio="xMidYMid meet">
<metadata>
Created by potrace 1.13, written by Peter Selinger 2001-2015
</metadata>
<g transform="translate(0.000000,2048.000000) scale(0.192120,-0.192120)"
fill="#000000" stroke="none">
<path d="M3955 10244 c-155 -28 -261 -98 -315 -208 -52 -107 -60 -192 -60
-625 0 -534 -18 -808 -76 -1141 -83 -484 -250 -1010 -458 -1445 -143 -298
-299 -484 -538 -642 -132 -87 -281 -156 -547 -252 -329 -120 -417 -161 -536
-253 -113 -88 -200 -228 -247 -398 l-23 -85 -3 -1710 c-2 -1183 0 -1743 8
-1817 35 -344 157 -551 395 -668 94 -46 191 -72 372 -99 239 -37 349 -86 570
-258 164 -128 175 -135 269 -181 103 -52 213 -86 349 -109 105 -17 230 -18
2810 -18 l2700 0 88 28 c170 53 304 134 418 253 81 86 120 143 169 247 63 134
84 230 84 387 1 195 -39 336 -139 491 -25 39 -45 72 -43 74 2 1 32 21 68 45
178 119 307 301 370 520 27 94 38 301 21 392 -25 133 -71 245 -142 349 l-38
57 62 38 c77 47 200 169 255 251 52 77 106 199 134 301 30 111 30 333 0 447
-30 110 -109 266 -177 349 l-57 68 74 77 c89 90 127 144 178 254 99 212 115
450 45 662 -105 317 -205 490 -377 649 -253 236 -634 391 -1188 485 -513 87
-1158 124 -2590 146 -498 8 -555 11 -610 38 -53 26 -85 69 -99 138 -23 108
-10 230 74 699 102 567 117 671 122 860 4 133 1 203 -11 290 -60 415 -236 797
-479 1043 -146 147 -299 237 -467 272 -90 19 -306 18 -415 -1z m411 -247 c112
-33 212 -95 306 -190 162 -165 298 -412 362 -662 26 -98 26 -103 26 -475 l0
-375 -35 -200 c-118 -674 -115 -651 -115 -848 0 -243 11 -280 117 -384 172
-169 206 -178 708 -188 1432 -27 1849 -46 2335 -101 516 -59 855 -148 1200
-318 158 -78 310 -222 393 -376 54 -100 123 -282 157 -415 17 -66 37 -140 45
-165 8 -25 19 -66 23 -91 l9 -47 -43 33 c-76 58 -179 68 -262 26 -42 -22 -75
-56 -121 -123 -59 -88 -169 -157 -283 -178 -36 -7 -500 -9 -1334 -8 l-1279 3
-54 22 c-134 55 -229 153 -271 279 -18 54 -22 82 -18 159 3 82 8 101 41 167
45 92 121 167 214 211 l68 32 905 5 c904 5 905 5 945 27 89 48 137 126 136
225 0 102 -63 188 -162 223 -35 13 -174 15 -909 15 -947 0 -955 0 -1119 -58
-185 -66 -374 -221 -475 -390 -218 -367 -163 -827 135 -1122 l68 -67 -25 -24
c-35 -32 -104 -123 -137 -180 -67 -118 -106 -256 -114 -409 -13 -257 71 -481
252 -670 l82 -85 -44 -45 c-91 -93 -174 -253 -210 -406 -26 -113 -23 -319 6
-429 26 -98 87 -228 145 -309 42 -59 147 -165 195 -198 l24 -17 -52 -68 c-180
-238 -232 -568 -133 -853 65 -186 199 -358 372 -473 30 -20 47 -37 38 -37 -19
0 -213 51 -313 82 l-70 22 -1420 6 c-1251 5 -1431 8 -1515 23 -190 32 -315 85
-480 203 -341 242 -438 288 -733 345 -88 16 -189 41 -225 55 -150 56 -266 186
-306 341 -15 56 -16 246 -14 1905 l3 1843 40 74 c95 175 164 219 585 376 402
149 606 267 818 469 93 90 209 228 277 332 174 264 424 932 539 1434 103 453
126 690 135 1355 l6 510 31 66 c54 113 107 135 330 138 100 1 136 -3 200 -22z
m3962 -3911 c27 -10 38 -46 22 -76 -27 -50 -22 -50 -857 -50 -469 0 -811 -4
-860 -10 -139 -18 -213 -51 -336 -153 -56 -46 -110 -124 -153 -217 -27 -61
-29 -74 -32 -212 -3 -144 -3 -147 28 -225 73 -183 192 -308 356 -371 l69 -27
1294 -3 c1265 -2 1297 -2 1374 17 105 27 175 69 277 167 72 69 133 114 155
114 3 0 5 -15 5 -32 0 -42 -40 -110 -125 -215 -94 -117 -134 -147 -225 -167
-41 -10 -84 -20 -95 -23 -11 -4 -598 -9 -1305 -13 l-1285 -6 -67 -26 c-98 -39
-154 -74 -230 -147 -55 -51 -78 -83 -116 -159 l-47 -95 0 -166 c0 -161 1 -168
29 -231 83 -189 209 -309 381 -363 l70 -22 1225 0 1225 0 71 22 c93 30 180 87
286 189 88 85 128 105 128 64 0 -44 -48 -110 -165 -228 -100 -100 -135 -128
-191 -155 l-69 -32 -1215 -6 c-1364 -6 -1258 0 -1414 -82 -115 -61 -193 -142
-253 -263 l-48 -97 0 -166 0 -166 37 -77 c65 -136 142 -225 250 -291 79 -47
139 -66 253 -77 119 -12 1862 -12 1986 0 53 5 123 19 155 31 65 24 183 98 212
132 49 60 132 127 157 127 23 0 25 -3 19 -22 -19 -63 -57 -114 -168 -225 -141
-141 -188 -168 -320 -184 -45 -5 -484 -9 -976 -9 -529 0 -919 -4 -954 -10 -88
-14 -188 -56 -259 -107 -98 -72 -148 -134 -205 -255 -32 -66 -32 -68 -32 -227
0 -159 0 -162 32 -233 74 -169 166 -267 328 -348 78 -39 76 -38 63 -51 -7 -7
-47 -13 -90 -16 -90 -5 -210 22 -277 61 -86 50 -194 184 -238 296 -20 49 -23
77 -26 264 -2 136 1 226 8 255 6 25 35 96 65 156 29 61 58 125 64 144 29 88
-1 168 -111 307 -83 105 -123 168 -154 244 -25 61 -25 65 -22 299 l3 236 43
85 c23 47 63 123 87 170 74 140 66 189 -72 397 -122 186 -117 168 -121 458
l-2 250 48 95 c27 52 66 128 87 168 55 104 58 166 15 253 -18 35 -62 109 -98
164 -37 55 -77 129 -90 164 -22 62 -23 74 -20 295 l3 231 39 78 c70 140 227
282 379 344 83 34 169 55 262 63 107 10 1704 6 1733 -4z m1314 -1588 c-3 -87
-1 -100 33 -193 20 -55 47 -140 60 -190 12 -49 35 -130 49 -180 14 -49 26
-100 26 -114 l0 -24 -22 21 c-57 53 -175 78 -245 51 -51 -19 -102 -61 -133
-109 -45 -70 -121 -137 -198 -173 l-67 -32 -1265 0 -1265 0 -75 36 c-230 111
-318 367 -205 596 52 106 139 179 270 227 21 7 430 12 1350 16 l1320 5 90 28
c50 16 133 50 185 77 52 27 95 49 95 49 0 1 -1 -41 -3 -91z m-229 -1405 c-20
-64 -12 -162 21 -288 15 -55 31 -116 36 -135 5 -19 18 -66 29 -105 12 -38 24
-85 27 -104 l7 -33 -46 35 c-119 91 -276 63 -357 -63 -39 -60 -124 -142 -178
-169 -102 -52 -79 -51 -1179 -51 -719 0 -1038 3 -1075 11 -159 34 -296 163
-338 318 -6 23 -11 78 -11 120 0 169 98 318 259 394 l67 32 1245 6 c1344 5
1279 3 1430 58 80 28 80 28 63 -26z m-283 -1364 c-25 -93 -12 -176 79 -509 16
-58 32 -118 36 -135 l7 -30 -29 26 c-41 39 -88 60 -148 66 -95 10 -165 -27
-237 -125 -73 -100 -143 -153 -244 -186 -46 -15 -132 -16 -910 -14 l-859 3
-65 31 c-288 137 -349 506 -118 719 66 62 138 99 222 114 41 7 369 11 1023 11
1040 0 1018 -1 1179 54 38 13 70 22 72 21 2 -2 -2 -23 -8 -46z m-110 -817 c0
-61 -102 -164 -210 -214 -68 -31 -107 -41 -115 -27 -6 9 7 23 61 64 21 16 75
64 119 106 112 106 145 123 145 71z"/>
</g>
</svg>
