<?xml version="1.0" standalone="no"?>
<!DOCTYPE svg PUBLIC "-//W3C//DTD SVG 20010904//EN"
 "http://www.w3.org/TR/2001/REC-SVG-20010904/DTD/svg10.dtd">
<svg version="1.0" xmlns="http://www.w3.org/2000/svg"
 width="2048.000000pt" height="2048.000000pt" viewBox="0 0 2048.000000 2048.000000"
 preserveAspectRatio="xMidYMid meet">
<metadata>
Created by potrace 1.13, written by Peter Selinger 2001-2015
</metadata>
<g transform="translate(0.000000,2048.000000) scale(0.192120,-0.192120)"
fill="#000000" stroke="none">
<path d="M7822 10301 c-57 -20 -123 -75 -149 -126 -9 -16 -81 -214 -160 -439
-160 -458 -165 -482 -119 -581 43 -93 153 -165 251 -165 85 0 187 58 234 133
10 17 85 221 166 452 143 409 147 422 142 487 -7 112 -86 212 -191 243 -65 20
-109 18 -174 -4z m88 -355 c0 -53 -7 -94 -26 -147 -14 -41 -38 -112 -54 -159
-80 -234 -113 -308 -150 -337 -33 -27 -40 -16 -40 65 0 71 6 96 76 292 94 269
120 327 153 345 14 8 29 14 34 15 4 0 7 -33 7 -74z M9678 10037 c-67 -32
-1101 -1058 -1128 -1119 -29 -68 -34 -128 -16 -191 45 -154 197 -237 352 -192
59 16 62 20 592 548 427 426 538 542 559 585 70 142 -6 326 -155 376 -66 23
-148 20 -204 -7z m91 -276 c11 -7 9 -16 -7 -52 -14 -32 -126 -149 -418 -440
-399 -396 -468 -459 -509 -459 -34 0 -46 19 -30 49 22 43 856 867 900 889 46
24 46 24 64 13z M3676 10025 c-89 -23 -173 -73 -258 -153 -117 -112 -172 -210
-185 -332 l-6 -58 39 5 c73 10 109 39 181 148 88 131 207 206 330 207 128 0
225 -52 403 -219 58 -54 146 -134 195 -177 50 -44 227 -215 395 -381 325 -321
390 -379 458 -414 48 -24 107 -30 140 -12 11 6 26 11 32 11 6 0 395 -381 863
-848 939 -934 1069 -1053 1312 -1198 115 -68 214 -106 285 -107 121 -3 167
-55 -709 814 -441 437 -819 820 -842 851 -78 111 -119 231 -119 347 l0 59 -60
55 c-73 68 -161 118 -258 147 -60 18 -91 22 -171 18 -92 -3 -105 -7 -183 -45
-46 -23 -92 -51 -103 -63 -19 -21 -19 -20 -644 603 -670 668 -680 677 -829
726 -83 28 -191 35 -266 16z m2257 -1546 c69 -35 77 -46 77 -105 0 -29 -4 -55
-8 -58 -16 -10 -152 145 -152 172 0 18 37 14 83 -9z M2578 9646 c-121 -43
-236 -140 -318 -268 -54 -83 -80 -170 -80 -269 0 -74 -2 -82 -35 -128 -55 -77
-85 -152 -92 -231 l-6 -70 27 0 c67 0 122 47 159 135 38 91 40 149 7 230 -11
29 -10 32 37 73 65 58 172 109 256 122 115 18 241 -13 374 -91 42 -25 359
-334 1178 -1149 1758 -1749 1701 -1693 1717 -1684 8 5 56 45 106 89 l93 80
-1320 1315 c-726 723 -1334 1337 -1351 1363 -42 64 -78 148 -86 200 -5 36 -17
53 -78 112 -78 76 -150 122 -248 163 -50 20 -84 26 -168 29 -92 3 -113 1 -172
-21z M6636 9045 c-96 -25 -174 -72 -267 -165 -86 -86 -141 -172 -155 -247 -6
-33 -6 -33 35 -33 64 0 101 21 198 113 137 129 240 171 361 146 114 -23 183
-69 412 -275 211 -190 1983 -1963 2022 -2024 50 -77 123 -188 156 -235 198
-284 336 -592 412 -915 64 -275 63 -261 70 -855 8 -672 7 -668 151 -961 l79
-161 0 -146 c0 -160 -3 -170 -73 -262 -17 -22 -411 -422 -877 -890 -466 -467
-879 -888 -917 -935 -119 -144 -232 -229 -352 -264 -30 -9 -111 -19 -180 -22
-153 -8 -181 -18 -216 -78 -15 -25 -30 -46 -34 -46 -16 0 -139 44 -196 69 -33
15 -116 63 -185 106 -224 140 -392 216 -551 249 -41 8 -148 22 -239 31 -485
46 -948 208 -1338 469 -290 193 -223 129 -2211 2105 -1023 1018 -1334 1333
-1372 1389 -57 87 -87 162 -101 255 l-10 67 -57 34 c-177 108 -349 120 -514
38 -54 -26 -94 -57 -157 -121 -126 -128 -180 -243 -180 -389 0 -139 71 -293
189 -411 98 -99 3121 -2906 3226 -2996 326 -279 702 -485 1093 -599 236 -68
421 -100 672 -116 96 -6 209 -18 250 -26 158 -33 320 -100 526 -220 145 -83
241 -127 345 -157 253 -73 490 -56 664 48 33 20 89 65 125 100 l65 63 65 -14
c85 -18 247 -17 335 1 39 8 104 31 145 51 73 35 107 68 1103 1063 764 762
1041 1045 1077 1099 124 184 123 384 -4 617 -24 44 -60 111 -81 149 -79 144
-79 147 -80 716 -1 555 -8 648 -67 920 -103 480 -333 936 -669 1325 -72 83
-1167 1180 -1919 1921 -342 337 -366 356 -507 405 -78 27 -192 33 -267 14z
m-5607 -3671 c48 -14 111 -63 111 -85 0 -16 102 -183 156 -256 51 -69 1597
-1617 2849 -2853 490 -484 681 -635 1020 -811 153 -79 185 -99 185 -115 0 -8
-4 -14 -10 -14 -5 0 -10 5 -10 11 0 8 -4 8 -14 0 -34 -29 -404 47 -606 124
-333 127 -627 308 -910 561 -181 161 -3035 2816 -3095 2879 -38 40 -82 98 -97
127 -25 49 -28 66 -28 152 0 65 5 106 15 125 23 46 121 128 178 150 65 25 182
27 256 5z m5451 -4360 c150 -28 391 -129 459 -192 25 -23 25 -24 6 -38 -45
-33 -220 -5 -381 63 -109 46 -238 131 -242 161 -3 20 1 22 36 22 22 0 77 -7
122 -16z M1451 8824 c-86 -23 -159 -71 -251 -163 -173 -174 -218 -357 -140
-564 41 -109 108 -193 283 -355 90 -84 170 -158 176 -166 9 -10 4 -28 -19 -77
-18 -38 -33 -90 -36 -128 l-7 -62 39 7 c48 8 92 38 105 71 21 57 11 101 -43
175 -28 39 117 185 249 250 74 37 91 41 177 46 83 4 106 1 179 -22 51 -16 113
-45 158 -74 57 -38 349 -323 1285 -1255 l1210 -1205 94 105 93 106 -239 236
c-1350 1337 -2586 2577 -2622 2631 -22 34 -53 100 -68 147 -25 78 -32 89 -92
143 -72 66 -214 142 -300 159 -72 15 -166 13 -231 -5z m222 -259 c68 -18 162
-63 206 -101 18 -15 65 -75 103 -133 39 -58 98 -140 130 -182 32 -42 58 -83
58 -92 0 -18 -12 -20 -107 -17 -135 4 -262 -32 -403 -115 -86 -50 -119 -55
-170 -24 -54 34 -164 149 -198 209 -31 53 -32 59 -32 171 l0 117 46 51 c100
112 229 152 367 116z M9985 8183 c-41 -11 -746 -263 -774 -278 -16 -8 -47 -35
-70 -61 -119 -136 -76 -341 92 -431 23 -12 55 -18 112 -18 77 0 92 4 438 128
197 70 375 136 397 147 50 25 105 91 124 148 36 105 11 208 -69 289 -69 68
-164 97 -250 76z m-105 -339 c0 -8 -5 -12 -10 -9 -6 4 -8 11 -5 16 9 14 15 11
15 -7z m-30 -10 c0 -8 -5 -12 -10 -9 -6 4 -8 11 -5 16 9 14 15 11 15 -7z m-33
-16 c-3 -8 -6 -5 -6 6 -1 11 2 17 5 13 3 -3 4 -12 1 -19z m-30 -10 c-3 -8 -6
-5 -6 6 -1 11 2 17 5 13 3 -3 4 -12 1 -19z m-77 -24 c0 -8 -5 -12 -10 -9 -6 4
-8 11 -5 16 9 14 15 11 15 -7z m-30 -10 c0 -8 -5 -12 -10 -9 -6 4 -8 11 -5 16
9 14 15 11 15 -7z m-33 -16 c-3 -8 -6 -5 -6 6 -1 11 2 17 5 13 3 -3 4 -12 1
-19z m-30 -10 c-3 -8 -6 -5 -6 6 -1 11 2 17 5 13 3 -3 4 -12 1 -19z m-30 -10
c-3 -8 -6 -5 -6 6 -1 11 2 17 5 13 3 -3 4 -12 1 -19z m-30 -10 c-3 -8 -6 -5
-6 6 -1 11 2 17 5 13 3 -3 4 -12 1 -19z M925 7426 c-97 -24 -166 -66 -261
-161 -70 -70 -99 -107 -127 -165 -65 -133 -72 -261 -22 -397 49 -131 98 -187
431 -498 172 -159 335 -312 364 -339 44 -41 51 -52 41 -65 -29 -39 -71 -141
-77 -184 l-7 -47 38 0 c74 0 125 54 125 134 0 36 -6 52 -31 81 -29 33 -30 36
-16 58 55 78 146 153 243 199 67 32 73 33 194 33 117 0 129 -2 195 -31 39 -16
97 -49 130 -72 33 -23 475 -454 985 -961 835 -829 926 -917 934 -897 5 11 34
65 64 118 29 53 52 105 50 115 -2 10 -580 592 -1286 1293 -896 890 -1296 1295
-1327 1341 -53 78 -78 135 -96 213 -11 49 -20 64 -61 100 -130 114 -333 169
-483 132z m187 -257 c29 -6 82 -24 118 -40 71 -33 101 -65 164 -177 63 -112
146 -210 368 -437 120 -124 218 -231 218 -238 0 -12 -22 -15 -107 -16 -151 -3
-230 -21 -348 -81 -108 -55 -143 -62 -190 -37 -34 17 -494 444 -543 503 -63
76 -82 128 -82 226 0 108 12 139 77 200 99 92 202 122 325 97z M1055 3201
c-104 -37 -278 -98 -385 -136 -186 -66 -197 -72 -246 -120 -136 -136 -100
-357 73 -441 102 -50 125 -46 553 105 206 73 390 142 407 153 186 114 168 391
-32 484 -88 42 -148 34 -370 -45z m75 -277 c0 -8 -5 -12 -10 -9 -6 4 -8 11 -5
16 9 14 15 11 15 -7z m-30 -10 c0 -8 -5 -12 -10 -9 -6 4 -8 11 -5 16 9 14 15
11 15 -7z m-33 -16 c-3 -8 -6 -5 -6 6 -1 11 2 17 5 13 3 -3 4 -12 1 -19z m-30
-10 c-3 -8 -6 -5 -6 6 -1 11 2 17 5 13 3 -3 4 -12 1 -19z m-30 -10 c-3 -8 -6
-5 -6 6 -1 11 2 17 5 13 3 -3 4 -12 1 -19z m-30 -10 c-3 -8 -6 -5 -6 6 -1 11
2 17 5 13 3 -3 4 -12 1 -19z m-17 -4 c0 -8 -4 -12 -10 -9 -5 3 -10 10 -10 16
0 5 5 9 10 9 6 0 10 -7 10 -16z m-30 -10 c0 -8 -5 -12 -10 -9 -6 4 -8 11 -5
16 9 14 15 11 15 -7z m-33 -16 c-3 -8 -6 -5 -6 6 -1 11 2 17 5 13 3 -3 4 -12
1 -19z m-30 -10 c-3 -8 -6 -5 -6 6 -1 11 2 17 5 13 3 -3 4 -12 1 -19z m-30
-10 c-3 -8 -6 -5 -6 6 -1 11 2 17 5 13 3 -3 4 -12 1 -19z m-30 -10 c-3 -8 -6
-5 -6 6 -1 11 2 17 5 13 3 -3 4 -12 1 -19z M1765 2125 c-22 -8 -42 -15 -45
-15 -2 0 -245 -240 -538 -532 -593 -591 -582 -578 -582 -702 0 -189 171 -314
356 -261 59 16 62 19 597 553 388 388 544 550 559 582 28 56 30 166 4 222 -22
51 -70 104 -123 135 -56 33 -166 42 -228 18z m80 -295 c4 -13 -1 -33 -14 -53
-30 -48 -841 -852 -879 -871 -45 -23 -76 -18 -80 13 -3 21 64 92 430 456 302
300 447 437 478 453 55 27 57 27 65 2z M2916 1650 c-52 -20 -118 -77 -141
-120 -7 -14 -79 -214 -160 -445 -137 -392 -147 -424 -143 -480 15 -242 313
-348 476 -171 45 48 46 52 217 540 110 315 125 366 125 423 0 71 -16 117 -59
172 -69 87 -211 124 -315 81z m104 -340 c0 -46 -12 -94 -49 -202 -126 -370
-152 -432 -193 -457 -31 -20 -40 2 -35 89 4 61 19 114 81 290 104 291 129 340
178 340 15 0 18 -9 18 -60z"/>
</g>
</svg>
