<?xml version="1.0" standalone="no"?>
<!DOCTYPE svg PUBLIC "-//W3C//DTD SVG 20010904//EN"
 "http://www.w3.org/TR/2001/REC-SVG-20010904/DTD/svg10.dtd">
<svg version="1.0" xmlns="http://www.w3.org/2000/svg"
 width="2048.000000pt" height="2048.000000pt" viewBox="0 0 2048.000000 2048.000000"
 preserveAspectRatio="xMidYMid meet">
<metadata>
Created by potrace 1.13, written by Peter Selinger 2001-2015
</metadata>
<g transform="translate(0.000000,2048.000000) scale(0.192120,-0.192120)"
fill="#000000" stroke="none">
<path d="M5221 10314 c-472 -127 -974 -1039 -1416 -2574 -253 -879 -467 -1938
-585 -2890 -48 -396 -91 -883 -77 -896 4 -4 23 -1 44 7 59 23 78 73 98 264 73
719 124 1083 236 1700 353 1952 935 3563 1470 4071 184 175 338 214 503 128
101 -52 174 -118 291 -259 149 -180 302 -435 433 -720 396 -859 759 -2161 982
-3515 73 -448 118 -807 173 -1375 20 -205 41 -250 130 -276 l30 -8 -7 112 c-4
62 -16 211 -27 332 -171 1903 -728 4064 -1323 5130 -329 590 -652 851 -955
769z M2915 3929 c-121 -16 -168 -34 -229 -90 -73 -67 -129 -178 -156 -309 -28
-135 -43 -387 -30 -493 39 -315 244 -735 472 -964 72 -73 119 -94 149 -67 25
22 24 30 -11 246 -73 444 -84 727 -51 1270 12 191 21 363 21 382 l0 36 -47 -1
c-27 -1 -79 -6 -118 -10z m-75 -770 c0 -427 -2 -480 -15 -469 -8 7 -15 9 -15
4 0 -21 -42 57 -70 128 l-30 77 0 301 c0 281 1 304 20 348 20 45 70 92 97 92
10 0 13 -100 13 -481z M7550 3908 c0 -18 9 -188 21 -378 33 -546 22 -824 -51
-1281 -35 -219 -35 -211 -12 -239 17 -21 22 -22 54 -11 75 25 232 213 344 413
72 128 115 223 158 350 59 171 69 235 69 408 -2 399 -91 640 -267 724 -53 26
-168 46 -262 46 l-54 0 0 -32z m294 -288 c65 -57 68 -77 64 -441 -4 -320 -4
-325 -29 -379 -39 -88 -59 -121 -69 -115 -4 3 -11 -1 -13 -7 -3 -7 -6 209 -6
480 -1 310 3 492 9 492 5 0 25 -14 44 -30z M8082 3818 c30 -24 94 -78 143
-120 89 -76 112 -94 290 -221 375 -268 647 -618 796 -1022 32 -88 33 -94 34
-250 l0 -160 -44 -65 c-27 -41 -74 -91 -129 -135 -125 -102 -161 -135 -182
-165 -20 -28 -56 -148 -47 -157 8 -7 93 39 197 107 126 83 264 222 307 310 39
81 55 164 47 250 -22 247 -121 502 -299 770 -218 329 -515 600 -848 774 -94
50 -281 126 -308 126 -6 0 13 -19 43 -42z M2470 3806 c-165 -67 -293 -140
-451 -257 -407 -302 -754 -808 -832 -1214 -36 -185 -29 -280 26 -395 43 -88
181 -227 307 -310 100 -65 189 -114 196 -107 2 2 0 27 -6 56 -17 89 -45 126
-162 213 -100 74 -166 144 -202 213 -13 24 -16 65 -16 196 0 152 2 173 26 245
27 84 95 230 153 329 32 54 51 83 125 190 118 170 389 431 559 539 31 19 157
127 252 216 33 30 80 72 105 93 25 20 41 37 35 36 -5 0 -57 -19 -115 -43z
M2240 1669 c-149 -18 -332 -90 -414 -161 l-39 -34 124 -56 c170 -76 444 -184
819 -321 402 -148 680 -254 799 -306 52 -23 98 -41 102 -41 16 0 21 111 9 177
-50 260 -338 525 -716 656 -237 82 -476 112 -684 86z M8100 1669 c-530 -61
-1014 -393 -1080 -742 -16 -87 -6 -181 18 -174 10 3 105 41 212 85 107 43 382
148 610 232 460 169 703 264 889 348 l124 56 -39 34 c-48 41 -197 114 -279
135 -131 35 -296 44 -455 26z M6750 750 c-19 -4 -57 -17 -85 -28 -282 -114
-361 -138 -590 -177 -77 -13 -210 -29 -295 -36 -197 -15 -745 -15 -960 0 -338
25 -631 92 -849 194 -72 33 -169 46 -230 30 l-33 -9 46 -38 c229 -187 544
-289 1041 -338 175 -17 850 -17 1015 0 385 39 656 111 865 230 44 24 125 67
180 95 l100 50 -36 12 c-50 18 -128 25 -169 15z"/>
</g>
</svg>
