<?xml version="1.0" standalone="no"?>
<!DOCTYPE svg PUBLIC "-//W3C//DTD SVG 20010904//EN"
 "http://www.w3.org/TR/2001/REC-SVG-20010904/DTD/svg10.dtd">
<svg version="1.0" xmlns="http://www.w3.org/2000/svg"
 width="2048.000000pt" height="2048.000000pt" viewBox="0 0 2048.000000 2048.000000"
 preserveAspectRatio="xMidYMid meet">
<metadata>
Created by potrace 1.13, written by Peter Selinger 2001-2015
</metadata>
<g transform="translate(0.000000,2048.000000) scale(0.192120,-0.192120)"
fill="#000000" stroke="none">
<path d="M3260 10323 c-189 -19 -301 -43 -417 -89 -103 -41 -186 -92 -343
-214 -228 -177 -332 -224 -571 -260 -175 -27 -278 -53 -364 -95 -244 -117
-370 -327 -405 -673 -8 -74 -10 -636 -8 -1817 l3 -1710 23 -85 c61 -219 170
-364 359 -473 90 -52 172 -86 424 -178 266 -96 415 -165 547 -252 303 -200
469 -436 675 -957 189 -479 310 -952 361 -1410 26 -231 36 -461 36 -861 0
-433 8 -518 60 -625 75 -154 244 -224 539 -224 69 0 156 7 192 14 457 97 847
641 945 1316 12 87 15 157 11 290 -5 189 -20 293 -122 860 -84 469 -97 591
-74 699 15 70 46 112 102 140 l49 24 656 13 c1368 27 1881 54 2366 125 745
108 1207 321 1467 675 77 104 136 229 220 463 75 211 60 462 -41 678 -51 110
-89 164 -178 254 l-74 77 57 68 c68 83 147 239 177 349 30 114 30 336 0 447
-27 98 -82 224 -130 297 -51 78 -185 209 -259 255 l-62 38 38 57 c71 104 117
216 142 349 17 91 6 298 -21 392 -63 220 -198 409 -376 525 -32 21 -60 39 -62
40 -2 2 18 35 43 74 54 84 94 177 121 281 28 111 26 315 -5 430 -46 173 -133
321 -257 441 -114 108 -231 176 -391 226 l-88 28 -2665 1 c-1466 0 -2681 -1
-2700 -3z m3180 -134 c-125 -102 -157 -131 -194 -174 -155 -183 -226 -375
-226 -610 0 -215 56 -381 187 -556 l46 -60 -24 -17 c-48 -33 -153 -139 -195
-198 -139 -194 -200 -453 -160 -682 30 -174 87 -300 198 -437 l60 -76 -79 -82
c-178 -186 -263 -412 -250 -667 10 -180 55 -318 152 -465 29 -44 69 -95 89
-114 l35 -34 -68 -67 c-296 -293 -353 -751 -139 -1115 69 -117 202 -251 316
-319 97 -58 247 -111 355 -125 50 -7 388 -11 936 -11 727 0 865 2 900 15 99
35 162 121 162 223 1 99 -47 177 -136 225 -40 22 -41 22 -946 27 l-905 5 -75
37 c-93 46 -168 122 -212 215 -30 64 -32 74 -32 183 0 110 1 118 33 183 62
126 187 222 321 247 74 14 2529 14 2601 0 114 -22 223 -91 281 -178 46 -68 79
-101 121 -123 78 -40 173 -34 251 17 33 22 37 22 37 7 0 -21 -54 -190 -63
-200 -4 -3 -7 -19 -7 -34 0 -47 -77 -268 -135 -384 -120 -245 -271 -380 -548
-489 -138 -54 -307 -107 -452 -141 -60 -14 -155 -37 -210 -50 -55 -13 -149
-29 -210 -35 -60 -6 -121 -12 -135 -15 -36 -7 -495 -43 -700 -55 -197 -11
-736 -25 -1530 -40 -294 -6 -557 -15 -585 -20 -134 -27 -300 -163 -372 -304
l-35 -69 5 -251 c4 -238 6 -261 41 -441 20 -104 52 -286 71 -403 35 -213 35
-214 35 -547 l0 -333 -29 -116 c-67 -265 -186 -490 -341 -646 -104 -104 -170
-148 -282 -187 -171 -60 -486 -32 -528 47 -6 11 -20 53 -31 93 -19 66 -21 115
-29 587 -6 421 -12 547 -29 690 -69 584 -202 1065 -458 1665 -161 378 -337
613 -620 828 -167 128 -337 213 -676 341 -126 47 -264 104 -307 127 -96 49
-197 140 -244 218 -70 115 -66 -19 -66 1970 0 2009 -5 1862 73 1994 85 145
177 195 465 251 284 56 392 103 637 281 237 172 325 215 521 257 l109 23 1168
3 c658 1 1167 7 1167 12 0 4 125 10 278 12 l277 4 115 37 c92 29 209 61 240
66 3 0 -6 -9 -20 -20z m312 -177 c16 -6 15 -9 -5 -25 -12 -10 -41 -30 -64 -45
-118 -76 -213 -187 -266 -308 -26 -59 -27 -69 -27 -231 l0 -170 52 -103 c87
-173 209 -277 383 -327 54 -15 155 -18 1055 -23 1103 -6 1029 -1 1127 -73 62
-46 242 -237 267 -283 13 -24 15 -39 8 -46 -14 -14 -46 4 -107 61 -91 83 -127
110 -190 141 -127 62 -103 61 -1243 57 l-1037 -3 -65 -22 c-36 -12 -93 -39
-127 -59 -114 -70 -177 -140 -240 -263 l-38 -75 0 -175 0 -175 32 -67 c91
-190 200 -291 383 -356 40 -15 181 -17 1260 -22 1110 -6 1220 -8 1275 -24 69
-20 104 -44 200 -141 141 -141 185 -194 185 -225 0 -28 -2 -29 -26 -20 -14 6
-63 44 -107 85 -84 77 -178 132 -277 162 -50 15 -167 17 -1220 20 -1322 4
-1296 6 -1447 -67 -144 -70 -272 -219 -312 -362 -8 -29 -11 -97 -9 -198 l3
-155 38 -76 c108 -215 256 -329 469 -359 35 -6 587 -10 1260 -10 794 0 1222
-4 1273 -11 96 -13 194 -43 227 -68 23 -19 153 -184 191 -243 16 -25 24 -98
11 -98 -15 0 -55 28 -110 79 -134 122 -222 170 -345 191 -42 6 -500 10 -1309
10 -1229 0 -1246 0 -1320 -21 -173 -48 -303 -145 -383 -287 -63 -112 -70 -145
-65 -318 l4 -149 41 -85 c52 -105 134 -207 210 -258 81 -54 93 -60 181 -84 75
-21 103 -21 930 -27 920 -6 871 -3 872 -57 0 -36 -35 -62 -92 -69 -29 -3 -426
-5 -883 -3 -755 4 -836 6 -895 22 -36 10 -74 19 -84 22 -43 8 -170 76 -227
120 -82 63 -160 160 -211 263 l-43 86 0 240 0 240 31 66 c18 37 56 102 87 145
68 98 114 190 123 243 8 49 -6 85 -84 231 -102 188 -102 189 -102 447 l0 224
33 72 c19 40 63 115 99 167 143 207 144 261 9 499 -80 141 -83 155 -79 418 l3
228 33 68 c19 38 63 105 99 150 182 225 196 288 109 472 -86 180 -86 178 -86
442 l0 234 36 74 c68 140 187 242 325 279 56 15 171 20 201 8z m2094 -92 c22
-10 66 -43 97 -72 46 -43 57 -60 57 -85 0 -27 -3 -30 -22 -25 -23 6 -208 185
-208 202 0 11 16 6 76 -20z m-244 -99 c98 -34 163 -84 235 -181 55 -74 81 -97
132 -115 77 -27 157 -16 225 30 35 23 36 24 36 4 0 -11 -15 -66 -33 -122 -39
-118 -85 -303 -93 -373 -4 -28 0 -75 9 -111 8 -35 13 -63 10 -63 -2 0 -32 9
-66 21 -145 49 -146 49 -1171 49 -644 0 -982 4 -1020 11 -83 15 -160 54 -225
115 -248 229 -151 637 174 740 31 10 232 13 886 13 805 1 849 0 901 -18z m251
-1356 c32 -8 76 -24 99 -36 54 -27 139 -109 178 -169 76 -119 229 -152 343
-75 20 14 38 25 41 25 6 0 -1 -26 -35 -145 -84 -285 -93 -330 -86 -423 3 -42
8 -87 12 -98 l7 -22 -59 20 c-162 54 -90 52 -1433 57 l-1245 6 -67 32 c-114
54 -195 143 -238 260 -19 53 -22 77 -18 160 3 85 8 107 36 166 56 120 169 212
297 243 38 9 304 13 1080 13 885 1 1039 -1 1088 -14z m358 -1391 c77 -37 136
-87 192 -164 48 -66 69 -85 122 -110 74 -36 196 -18 257 37 17 15 18 15 18 -4
0 -11 -16 -68 -35 -126 -19 -58 -35 -113 -35 -121 0 -9 -23 -85 -51 -169 -48
-140 -52 -159 -51 -243 l0 -91 -86 43 c-48 24 -127 56 -177 71 l-90 28 -1320
5 c-922 4 -1329 9 -1350 16 -131 48 -218 121 -270 227 -47 95 -61 176 -46 264
28 166 139 298 298 352 57 20 78 20 1308 18 l1250 -2 66 -31z"/>
</g>
</svg>
