<?xml version="1.0" standalone="no"?>
<!DOCTYPE svg PUBLIC "-//W3C//DTD SVG 20010904//EN"
 "http://www.w3.org/TR/2001/REC-SVG-20010904/DTD/svg10.dtd">
<svg version="1.0" xmlns="http://www.w3.org/2000/svg"
 width="2048.000000pt" height="2048.000000pt" viewBox="0 0 2048.000000 2048.000000"
 preserveAspectRatio="xMidYMid meet">
<metadata>
Created by potrace 1.13, written by Peter Selinger 2001-2015
</metadata>
<g transform="translate(0.000000,2048.000000) scale(0.192120,-0.192120)"
fill="#000000" stroke="none">
<path d="M2630 9220 c-712 -74 -1340 -606 -1766 -1495 -272 -569 -435 -1233
-485 -1980 -15 -225 -6 -839 16 -1040 98 -919 347 -1670 753 -2265 265 -391
566 -664 917 -835 331 -161 645 -206 1003 -144 828 143 1551 976 1903 2193
105 363 168 717 211 1186 18 205 15 814 -5 1040 -67 719 -227 1331 -492 1875
-399 819 -983 1337 -1635 1449 -112 19 -313 27 -420 16z m470 -195 c314 -70
598 -225 859 -470 69 -65 220 -237 300 -343 209 -277 408 -674 536 -1072 96
-296 158 -559 210 -895 l25 -160 0 -747 c0 -800 1 -788 -55 -1098 -108 -608
-331 -1212 -602 -1630 -236 -363 -557 -682 -828 -823 -263 -137 -479 -191
-765 -191 -187 0 -277 12 -444 60 -85 25 -278 105 -304 126 -6 6 -12 8 -12 5
0 -13 -176 104 -275 182 -287 228 -601 646 -779 1037 -221 484 -336 886 -429
1499 l-32 210 0 610 0 610 28 192 c94 653 232 1126 466 1593 90 179 118 228
224 385 297 438 662 737 1062 870 188 62 288 75 530 71 147 -3 232 -9 285 -21z
M2590 8918 c-348 -71 -591 -208 -871 -487 -405 -405 -716 -1032 -895 -1802
-33 -140 -37 -171 -41 -341 -4 -158 -3 -190 10 -202 23 -23 33 -3 46 94 80
569 277 1171 521 1595 251 437 537 734 869 900 745 374 1541 -33 2057 -1052
295 -582 469 -1317 492 -2080 29 -924 -134 -1777 -472 -2467 -512 -1044 -1322
-1469 -2078 -1090 -590 296 -1074 1057 -1302 2044 -37 164 -80 387 -91 483 -8
61 -14 71 -39 61 -14 -5 -16 -29 -16 -166 0 -180 17 -288 91 -563 209 -782
582 -1428 1029 -1787 199 -159 369 -247 601 -310 73 -19 108 -22 274 -23 193
0 218 3 370 48 90 26 299 129 395 194 509 346 932 1049 1160 1928 47 179 79
340 117 581 l28 179 0 670 c0 648 -1 675 -23 825 -141 945 -443 1677 -916
2214 -75 85 -250 240 -343 302 -32 21 -63 44 -70 50 -22 21 -190 103 -274 134
-145 54 -246 72 -424 75 -88 1 -180 -2 -205 -7z M2050 6704 c-339 -40 -609
-161 -835 -376 -301 -285 -451 -674 -424 -1100 22 -331 159 -629 398 -868 269
-268 595 -404 971 -404 371 0 692 130 957 387 205 199 332 429 395 715 31 139
31 405 0 544 -62 281 -185 508 -384 705 -201 198 -424 317 -697 373 -93 19
-309 33 -381 24z m94 -198 c37 -15 46 -41 46 -132 l0 -54 -59 0 c-71 0 -204
-24 -286 -52 -229 -79 -434 -250 -549 -459 -177 -322 -163 -712 36 -1016 240
-368 689 -535 1110 -412 353 103 630 412 693 774 41 240 -3 480 -130 694 l-54
91 40 27 c24 15 59 28 87 31 47 4 49 3 96 -49 78 -87 141 -232 172 -396 25
-138 15 -406 -20 -533 -122 -434 -448 -746 -893 -857 -94 -23 -129 -27 -268
-27 -175 -1 -249 11 -405 66 -351 124 -630 409 -750 766 -157 469 4 980 411
1305 210 169 587 290 723 233z m458 -77 c121 -25 234 -115 286 -227 24 -51 27
-69 27 -162 0 -92 -4 -112 -27 -162 -74 -159 -251 -256 -419 -229 -233 38
-384 265 -325 489 39 145 163 263 308 291 62 13 90 12 150 0z m-727 -469 c4
-16 11 -32 16 -35 5 -4 9 -15 9 -26 0 -10 18 -56 40 -101 109 -220 277 -377
455 -424 68 -19 209 -18 276 2 30 9 91 36 137 60 l82 45 0 -193 c-1 -189 -1
-194 -28 -258 -51 -119 -144 -235 -240 -302 -74 -51 -203 -106 -291 -124 -133
-26 -308 -16 -431 25 -177 60 -326 177 -410 321 -72 123 -80 163 -80 386 0
181 2 198 24 258 57 152 172 277 329 360 85 45 103 46 112 6z M7737 9219
c-994 -96 -1841 -1151 -2141 -2669 -73 -369 -105 -677 -113 -1095 -18 -978
161 -1854 531 -2595 201 -402 465 -750 748 -986 632 -529 1406 -584 2068 -147
728 480 1260 1506 1424 2743 43 329 51 455 51 860 0 406 -8 539 -51 860 -211
1580 -1009 2773 -2004 2996 -178 40 -336 50 -513 33z m417 -185 c123 -19 332
-87 443 -142 169 -85 339 -208 486 -351 527 -511 887 -1313 1037 -2306 20
-135 21 -169 18 -945 l-4 -805 -27 -150 c-109 -595 -235 -992 -454 -1430 -199
-398 -483 -751 -793 -986 -89 -67 -201 -137 -209 -131 -2 2 -7 -1 -10 -6 -9
-15 -207 -97 -302 -126 -159 -48 -251 -60 -444 -60 -278 0 -439 37 -710 164
-386 181 -775 601 -1052 1137 -60 115 -78 154 -160 353 -119 287 -231 694
-293 1066 -65 394 -65 392 -65 1014 0 574 0 575 28 770 80 568 178 947 354
1375 184 447 470 865 773 1129 275 240 554 378 868 431 112 19 393 18 516 -1z
M7660 8908 c-112 -23 -226 -61 -327 -108 -195 -91 -456 -299 -615 -488 -361
-431 -619 -988 -784 -1692 -33 -139 -37 -174 -41 -334 -5 -165 -4 -181 13
-193 10 -7 21 -13 24 -13 4 0 12 39 19 88 7 48 28 164 47 258 187 955 584
1708 1110 2103 250 187 513 281 788 281 201 0 352 -37 551 -135 499 -246 926
-827 1186 -1615 358 -1084 355 -2403 -7 -3480 -217 -647 -546 -1153 -942
-1450 -161 -121 -319 -198 -506 -248 -90 -23 -119 -26 -276 -27 -136 0 -192 4
-250 18 -309 75 -578 244 -827 519 -327 361 -593 894 -753 1512 -42 160 -100
442 -121 589 -7 48 -14 87 -16 87 -2 0 -13 -5 -24 -10 -17 -10 -19 -23 -19
-162 0 -122 5 -175 25 -277 153 -758 494 -1472 905 -1895 233 -239 472 -392
743 -473 l122 -37 200 0 c186 -1 207 1 301 26 129 35 185 57 314 125 431 227
805 687 1083 1333 153 355 267 762 336 1200 41 262 43 312 39 980 -4 642 -4
646 -31 815 -70 439 -168 813 -307 1160 -113 284 -330 670 -486 863 -137 172
-335 358 -474 448 -25 16 -53 36 -62 44 -32 29 -223 118 -322 149 -194 62
-431 77 -616 39z M7160 6704 c-355 -42 -624 -168 -860 -404 -189 -188 -318
-428 -377 -702 -25 -117 -25 -419 0 -536 122 -565 544 -980 1107 -1088 139
-26 370 -24 510 5 381 80 687 289 895 611 60 92 98 172 138 286 60 172 72 247
72 454 0 207 -12 282 -72 454 -162 465 -553 804 -1037 897 -97 19 -304 32
-376 23z m95 -198 c36 -15 38 -21 49 -133 l5 -53 -67 0 c-37 0 -107 -9 -157
-19 -404 -84 -703 -387 -786 -796 -6 -33 -12 -112 -12 -175 0 -276 98 -508
298 -705 332 -327 842 -378 1231 -123 152 100 276 244 355 412 71 153 84 217
83 421 0 166 -2 187 -27 268 -26 84 -94 230 -136 292 -28 40 -26 50 12 72 88
53 133 46 194 -29 109 -134 183 -380 183 -608 0 -461 -278 -895 -695 -1085
-82 -37 -199 -75 -300 -96 -78 -17 -342 -17 -420 0 -267 57 -466 161 -640 336
-107 108 -177 207 -245 347 -83 172 -102 253 -108 455 -2 107 0 197 7 238 28
158 103 337 205 485 65 96 210 240 309 308 208 144 541 238 662 188z m528 -96
c179 -68 293 -281 242 -456 -50 -171 -159 -274 -323 -304 -256 -46 -498 196
-452 452 30 162 156 295 310 328 61 12 160 3 223 -20z m-789 -463 c9 -23 16
-46 16 -50 0 -24 90 -192 135 -252 142 -192 304 -285 494 -285 106 0 169 17
279 76 l82 44 0 -195 c0 -183 -2 -199 -24 -254 -51 -125 -163 -257 -277 -327
-144 -87 -275 -119 -463 -111 -149 5 -223 24 -346 88 -142 73 -235 168 -311
316 l-44 86 0 246 0 247 37 75 c40 82 129 186 206 242 56 42 161 96 183 97 10
0 23 -17 33 -43z"/>
</g>
</svg>
