<?xml version="1.0" standalone="no"?>
<!DOCTYPE svg PUBLIC "-//W3C//DTD SVG 20010904//EN"
 "http://www.w3.org/TR/2001/REC-SVG-20010904/DTD/svg10.dtd">
<svg version="1.0" xmlns="http://www.w3.org/2000/svg"
 width="2048.000000pt" height="2048.000000pt" viewBox="0 0 2048.000000 2048.000000"
 preserveAspectRatio="xMidYMid meet">
<metadata>
Created by potrace 1.13, written by Peter Selinger 2001-2015
</metadata>
<g transform="translate(0.000000,2048.000000) scale(0.192120,-0.192120)"
fill="#000000" stroke="none">
<path d="M3910 10316 c-207 -44 -347 -150 -435 -329 -89 -181 -79 164 -85
-3177 l-5 -2965 -24 -48 c-43 -88 -122 -112 -185 -57 -65 57 -65 59 -70 635
-3 406 -7 546 -20 638 -74 534 -282 1011 -608 1392 -153 179 -295 279 -478
337 -65 20 -95 23 -230 23 -175 0 -256 -15 -375 -70 -121 -56 -190 -134 -221
-247 -39 -148 -6 -288 174 -728 251 -617 510 -1603 631 -2410 39 -257 54 -332
96 -495 300 -1155 1222 -2076 2378 -2375 303 -78 515 -104 847 -105 310 0 541
27 815 96 950 239 1743 864 2183 1719 174 336 278 669 339 1075 16 108 18 201
18 905 0 782 0 785 -23 873 -85 334 -260 529 -546 607 -64 18 -99 21 -186 18
-99 -3 -112 -6 -182 -40 -71 -36 -138 -94 -179 -157 -15 -24 -16 -23 -22 45
-10 103 -32 179 -84 284 -39 80 -60 109 -137 185 -98 98 -189 153 -327 200
-269 92 -533 17 -694 -197 -24 -32 -47 -57 -52 -56 -4 2 -21 44 -38 93 -98
292 -341 506 -650 572 -120 26 -279 5 -400 -53 -97 -45 -207 -125 -287 -206
l-78 -80 0 1749 c0 1890 2 1806 -53 1943 -64 158 -167 275 -300 339 -45 23
-109 48 -142 57 -82 22 -282 27 -365 10z m318 -192 c194 -40 305 -139 370
-329 l27 -80 5 -1660 c4 -1375 7 -1666 19 -1695 48 -124 85 -181 132 -205 40
-21 106 2 215 74 121 79 182 109 272 132 106 27 209 25 318 -7 178 -51 303
-144 407 -301 35 -54 70 -109 77 -122 18 -36 90 -111 121 -127 16 -8 38 -14
50 -14 30 0 105 36 154 75 123 97 215 130 360 129 237 -3 465 -138 559 -331
21 -43 54 -111 73 -151 20 -40 57 -95 82 -122 42 -45 52 -50 90 -50 25 0 62
10 93 26 114 58 173 74 269 74 109 0 191 -19 281 -67 122 -64 204 -161 255
-300 l23 -64 0 -928 c0 -1025 4 -958 -65 -1231 -73 -289 -229 -643 -388 -880
-377 -560 -856 -965 -1431 -1210 -371 -157 -717 -237 -1129 -259 -566 -31
-1115 82 -1618 335 -320 160 -560 333 -820 593 -161 162 -259 278 -371 441
-290 424 -441 808 -528 1345 -165 1019 -388 1881 -662 2565 -142 354 -138 339
-138 515 l0 151 28 26 c107 100 412 145 607 89 144 -41 226 -92 356 -221 275
-274 473 -647 572 -1080 61 -265 68 -351 73 -880 3 -276 9 -492 15 -515 21
-83 33 -111 67 -165 124 -195 308 -179 412 34 64 135 60 -93 60 3069 0 2827 0
2873 20 2955 61 254 230 379 518 381 51 1 127 -6 170 -15z"/>
</g>
</svg>
