<?xml version="1.0" standalone="no"?>
<!DOCTYPE svg PUBLIC "-//W3C//DTD SVG 20010904//EN"
 "http://www.w3.org/TR/2001/REC-SVG-20010904/DTD/svg10.dtd">
<svg version="1.0" xmlns="http://www.w3.org/2000/svg"
 width="2048.000000pt" height="2048.000000pt" viewBox="0 0 2048.000000 2048.000000"
 preserveAspectRatio="xMidYMid meet">
<metadata>
Created by potrace 1.13, written by Peter Selinger 2001-2015
</metadata>
<g transform="translate(0.000000,2048.000000) scale(0.192120,-0.192120)"
fill="#000000" stroke="none">
<path d="M7822 10301 c-57 -20 -123 -75 -149 -126 -9 -16 -81 -214 -160 -439
-160 -458 -165 -482 -119 -581 43 -93 153 -165 251 -165 85 0 187 58 234 133
10 17 85 221 166 452 143 409 147 422 142 487 -7 112 -86 212 -191 243 -65 20
-109 18 -174 -4z m88 -355 c0 -53 -7 -94 -26 -147 -14 -41 -38 -112 -54 -159
-80 -234 -113 -308 -150 -337 -33 -27 -40 -16 -40 65 0 71 6 96 76 292 94 269
120 327 153 345 14 8 29 14 34 15 4 0 7 -33 7 -74z M9678 10037 c-67 -32
-1101 -1058 -1128 -1119 -29 -68 -34 -128 -16 -191 45 -154 197 -237 352 -192
59 16 62 20 592 548 427 426 538 542 559 585 70 142 -6 326 -155 376 -66 23
-148 20 -204 -7z m91 -276 c11 -7 9 -16 -7 -52 -14 -32 -126 -149 -418 -440
-399 -396 -468 -459 -509 -459 -34 0 -46 19 -30 49 22 43 856 867 900 889 46
24 46 24 64 13z M3678 10025 c-246 -62 -457 -319 -446 -543 l3 -69 -71 66
c-136 126 -257 182 -409 189 -88 4 -109 1 -172 -21 -124 -43 -239 -139 -323
-269 -54 -83 -80 -170 -80 -269 0 -74 -2 -82 -35 -128 -19 -26 -47 -75 -62
-107 -25 -53 -28 -70 -28 -165 l0 -106 -67 62 c-114 106 -275 175 -408 175
-146 0 -252 -50 -380 -179 -173 -174 -218 -357 -140 -564 41 -109 108 -193
283 -355 90 -84 170 -158 176 -166 9 -10 4 -29 -21 -82 -27 -57 -33 -84 -36
-157 l-5 -88 -31 29 c-99 92 -264 161 -388 162 -69 0 -144 -18 -218 -54 -93
-44 -234 -185 -282 -283 -67 -133 -74 -263 -23 -398 50 -134 97 -188 435 -503
173 -162 336 -313 362 -337 l47 -42 -40 -80 c-32 -61 -42 -94 -46 -146 -3 -37
-8 -67 -11 -67 -2 0 -30 15 -61 34 -176 107 -346 121 -511 40 -58 -28 -95 -57
-160 -123 -127 -128 -180 -243 -180 -389 0 -133 66 -282 177 -399 32 -34 540
-508 1128 -1055 589 -546 1284 -1192 1545 -1434 261 -243 516 -476 565 -519
326 -279 702 -485 1093 -599 236 -68 421 -100 672 -116 96 -6 209 -18 250 -26
161 -33 320 -100 549 -232 147 -84 241 -125 370 -159 82 -22 118 -26 246 -26
136 -1 157 2 230 26 104 34 185 83 265 161 l65 63 65 -13 c101 -20 263 -17
354 6 165 42 103 -14 1229 1109 764 763 1041 1045 1077 1099 65 96 92 182 92
292 -1 132 -32 215 -176 473 -21 38 -48 101 -60 140 -19 69 -20 96 -21 582 -1
551 -6 628 -61 888 -98 462 -296 882 -598 1262 -49 62 -394 414 -910 930
-1256 1255 -1400 1395 -1473 1433 -142 74 -259 95 -377 68 -106 -25 -180 -70
-276 -166 -90 -90 -139 -168 -161 -255 -6 -27 -13 -52 -15 -54 -2 -2 -31 21
-64 52 -73 68 -161 118 -258 147 -60 18 -91 22 -170 18 -87 -3 -105 -7 -172
-40 -41 -20 -88 -48 -105 -61 l-30 -26 -625 623 c-669 667 -679 676 -828 725
-83 28 -191 35 -264 16z m249 -288 c101 -52 346 -272 808 -727 316 -311 433
-411 540 -462 80 -37 106 -36 155 8 l40 36 813 -809 c446 -445 861 -851 921
-902 294 -252 516 -380 660 -384 116 -2 160 -52 -713 814 -441 437 -820 820
-842 851 -71 102 -119 231 -119 322 0 33 0 34 43 29 67 -8 137 30 242 131 115
111 182 146 275 146 95 0 189 -49 343 -179 112 -95 1786 -1750 1988 -1967 387
-413 616 -867 720 -1424 20 -105 22 -163 29 -655 9 -666 11 -684 122 -915 122
-253 122 -253 122 -370 1 -117 -4 -129 -79 -235 -24 -33 -466 -481 -982 -997
-678 -677 -956 -947 -1002 -977 -93 -60 -144 -72 -306 -77 -77 -3 -155 -7
-173 -10 -43 -7 -98 -56 -128 -116 -13 -26 -28 -48 -33 -48 -29 0 -183 77
-291 145 -142 89 -302 171 -405 208 -98 35 -204 54 -392 72 -617 57 -1180 302
-1667 724 -90 78 -1941 1911 -2872 2844 -328 329 -374 380 -406 442 -38 73
-68 163 -68 200 0 19 7 23 45 28 25 4 63 16 85 27 76 39 137 158 127 249 -4
40 -12 52 -54 89 l-48 43 60 56 c179 168 427 181 649 34 37 -25 420 -397 992
-966 823 -817 933 -923 939 -903 4 13 31 66 61 120 30 53 54 102 54 110 0 12
-986 1001 -2128 2133 -239 237 -454 458 -478 491 -53 74 -92 160 -101 220 -5
42 -4 44 19 44 36 0 88 19 123 45 63 46 106 166 91 249 -5 28 -18 45 -56 73
-28 21 -50 42 -50 49 0 17 89 98 153 138 125 80 267 98 415 51 164 -52 96 11
1727 -1616 l920 -918 94 106 94 106 -224 221 c-1114 1100 -2606 2596 -2635
2642 -34 54 -84 171 -84 198 0 8 16 16 41 20 102 16 151 67 212 221 56 141 61
174 36 243 -11 31 -23 64 -26 73 -10 33 102 91 210 109 115 18 241 -13 374
-91 42 -25 339 -315 1108 -1079 1414 -1408 1764 -1754 1775 -1758 5 -2 35 21
67 50 32 29 77 69 101 89 l42 36 -1312 1304 c-1394 1387 -1381 1372 -1428
1514 -25 76 -22 95 18 95 16 0 53 12 83 28 46 23 61 38 104 107 65 103 157
197 215 218 68 25 181 18 247 -16z m-2236 -1223 c63 -19 200 -86 246 -120 18
-14 60 -62 94 -107 34 -45 88 -111 119 -147 63 -74 100 -124 100 -138 0 -5
-17 -7 -37 -5 -124 13 -259 14 -316 4 -34 -7 -109 -35 -166 -62 -57 -27 -117
-49 -133 -49 -16 0 -48 13 -71 29 -65 45 -171 161 -201 218 -23 46 -26 64 -26
148 l0 96 53 53 c89 89 210 118 338 80z m4289 -109 c58 -31 69 -41 79 -74 15
-51 14 -101 -2 -101 -23 0 -187 177 -187 202 0 18 46 6 110 -27z m-4836 -1291
c33 -9 93 -30 131 -48 75 -35 88 -48 223 -231 33 -44 128 -147 212 -230 198
-196 340 -351 340 -371 0 -15 -10 -16 -92 -8 -179 17 -268 5 -400 -53 -42 -18
-90 -36 -106 -39 -53 -11 -64 -2 -406 321 -192 181 -223 213 -258 273 -25 43
-28 56 -28 145 0 112 8 130 82 188 82 65 185 83 302 53z m-82 -1794 c76 -23
91 -39 186 -180 39 -58 106 -143 149 -190 73 -80 1448 -1450 2598 -2591 485
-480 636 -619 803 -738 92 -65 311 -200 389 -239 32 -17 66 -39 77 -51 18 -20
18 -21 -5 -30 -13 -5 -26 -7 -29 -6 -3 2 -34 6 -70 9 -71 7 -290 62 -410 103
-324 111 -637 304 -965 597 -111 99 -2860 2652 -2994 2781 -46 44 -101 107
-122 139 l-39 59 0 110 0 111 51 49 c100 97 218 118 381 67z m5443 -4285 c140
-30 351 -118 400 -166 20 -20 20 -20 1 -35 -60 -44 -271 11 -451 119 -76 45
-85 53 -85 80 0 22 38 22 135 2z M9985 8183 c-41 -11 -746 -263 -774 -278 -16
-8 -47 -35 -70 -61 -119 -136 -76 -341 92 -431 23 -12 55 -18 112 -18 77 0 92
4 438 128 197 70 375 136 397 147 50 25 105 91 124 148 36 105 11 208 -69 289
-69 68 -164 97 -250 76z m-105 -339 c0 -8 -5 -12 -10 -9 -6 4 -8 11 -5 16 9
14 15 11 15 -7z m-30 -10 c0 -8 -5 -12 -10 -9 -6 4 -8 11 -5 16 9 14 15 11 15
-7z m-33 -16 c-3 -8 -6 -5 -6 6 -1 11 2 17 5 13 3 -3 4 -12 1 -19z m-30 -10
c-3 -8 -6 -5 -6 6 -1 11 2 17 5 13 3 -3 4 -12 1 -19z m-77 -24 c0 -8 -5 -12
-10 -9 -6 4 -8 11 -5 16 9 14 15 11 15 -7z m-30 -10 c0 -8 -5 -12 -10 -9 -6 4
-8 11 -5 16 9 14 15 11 15 -7z m-33 -16 c-3 -8 -6 -5 -6 6 -1 11 2 17 5 13 3
-3 4 -12 1 -19z m-30 -10 c-3 -8 -6 -5 -6 6 -1 11 2 17 5 13 3 -3 4 -12 1 -19z
m-30 -10 c-3 -8 -6 -5 -6 6 -1 11 2 17 5 13 3 -3 4 -12 1 -19z m-30 -10 c-3
-8 -6 -5 -6 6 -1 11 2 17 5 13 3 -3 4 -12 1 -19z M1055 3201 c-104 -37 -278
-98 -385 -136 -186 -66 -197 -72 -246 -120 -136 -136 -100 -357 73 -441 102
-50 125 -46 553 105 206 73 390 142 407 153 186 114 168 391 -32 484 -88 42
-148 34 -370 -45z m75 -277 c0 -8 -5 -12 -10 -9 -6 4 -8 11 -5 16 9 14 15 11
15 -7z m-30 -10 c0 -8 -5 -12 -10 -9 -6 4 -8 11 -5 16 9 14 15 11 15 -7z m-33
-16 c-3 -8 -6 -5 -6 6 -1 11 2 17 5 13 3 -3 4 -12 1 -19z m-30 -10 c-3 -8 -6
-5 -6 6 -1 11 2 17 5 13 3 -3 4 -12 1 -19z m-30 -10 c-3 -8 -6 -5 -6 6 -1 11
2 17 5 13 3 -3 4 -12 1 -19z m-30 -10 c-3 -8 -6 -5 -6 6 -1 11 2 17 5 13 3 -3
4 -12 1 -19z m-17 -4 c0 -8 -4 -12 -10 -9 -5 3 -10 10 -10 16 0 5 5 9 10 9 6
0 10 -7 10 -16z m-30 -10 c0 -8 -5 -12 -10 -9 -6 4 -8 11 -5 16 9 14 15 11 15
-7z m-33 -16 c-3 -8 -6 -5 -6 6 -1 11 2 17 5 13 3 -3 4 -12 1 -19z m-30 -10
c-3 -8 -6 -5 -6 6 -1 11 2 17 5 13 3 -3 4 -12 1 -19z m-30 -10 c-3 -8 -6 -5
-6 6 -1 11 2 17 5 13 3 -3 4 -12 1 -19z m-30 -10 c-3 -8 -6 -5 -6 6 -1 11 2
17 5 13 3 -3 4 -12 1 -19z M1765 2125 c-22 -8 -42 -15 -45 -15 -2 0 -245 -240
-538 -532 -593 -591 -582 -578 -582 -702 0 -189 171 -314 356 -261 59 16 62
19 597 553 388 388 544 550 559 582 28 56 30 166 4 222 -22 51 -70 104 -123
135 -56 33 -166 42 -228 18z m80 -295 c4 -13 -1 -33 -14 -53 -30 -48 -841
-852 -879 -871 -45 -23 -76 -18 -80 13 -3 21 64 92 430 456 302 300 447 437
478 453 55 27 57 27 65 2z M2916 1650 c-52 -20 -118 -77 -141 -120 -7 -14 -79
-214 -160 -445 -137 -392 -147 -424 -143 -480 15 -242 313 -348 476 -171 45
48 46 52 217 540 110 315 125 366 125 423 0 71 -16 117 -59 172 -69 87 -211
124 -315 81z m104 -340 c0 -46 -12 -94 -49 -202 -126 -370 -152 -432 -193
-457 -31 -20 -40 2 -35 89 4 61 19 114 81 290 104 291 129 340 178 340 15 0
18 -9 18 -60z"/>
</g>
</svg>
