<?xml version="1.0" standalone="no"?>
<!DOCTYPE svg PUBLIC "-//W3C//DTD SVG 20010904//EN"
 "http://www.w3.org/TR/2001/REC-SVG-20010904/DTD/svg10.dtd">
<svg version="1.0" xmlns="http://www.w3.org/2000/svg"
 width="2048.000000pt" height="2048.000000pt" viewBox="0 0 2048.000000 2048.000000"
 preserveAspectRatio="xMidYMid meet">
<metadata>
Created by potrace 1.13, written by Peter Selinger 2001-2015
</metadata>
<g transform="translate(0.000000,2048.000000) scale(0.192120,-0.192120)"
fill="#000000" stroke="none">
<path d="M4214 9211 c-153 -39 -261 -180 -305 -397 -25 -119 -22 -320 5 -419
41 -148 124 -281 257 -412 310 -304 763 -542 1226 -643 232 -50 260 -52 853
-59 l565 -6 48 -24 c110 -54 116 -163 13 -223 l-41 -23 -2955 -5 -2955 -5 -85
-23 c-254 -68 -424 -225 -486 -452 -25 -90 -25 -318 -1 -410 28 -106 82 -205
155 -281 78 -84 163 -136 292 -181 l95 -33 1773 -3 1772 -2 -65 -62 c-121
-113 -211 -253 -257 -398 -19 -61 -23 -96 -22 -190 0 -103 4 -125 33 -212 81
-236 238 -412 464 -518 46 -22 108 -45 136 -52 28 -6 51 -14 51 -18 0 -3 -13
-14 -29 -23 -52 -30 -138 -116 -177 -175 -108 -161 -128 -349 -60 -549 105
-308 336 -503 645 -544 l89 -12 -49 -37 c-134 -101 -197 -263 -169 -437 24
-152 76 -258 174 -361 105 -110 234 -183 424 -242 196 -59 205 -60 901 -60
651 0 780 5 1005 41 1361 217 2462 1293 2731 2669 48 248 59 367 59 655 0 289
-12 415 -60 655 -165 828 -642 1565 -1332 2059 -441 315 -938 511 -1497 591
-211 30 -597 101 -842 155 -660 146 -1204 309 -1706 511 -331 134 -402 155
-537 160 -58 2 -119 0 -136 -5z m301 -257 c33 -9 184 -64 335 -124 331 -130
588 -218 890 -304 558 -159 1082 -274 1615 -356 484 -75 848 -190 1179 -376
824 -460 1369 -1206 1546 -2114 18 -97 20 -143 20 -592 0 -481 0 -488 -25
-615 -47 -232 -95 -396 -177 -598 -229 -568 -647 -1082 -1150 -1416 -423 -280
-849 -437 -1368 -505 -163 -21 -1292 -32 -1462 -15 -309 33 -567 161 -649 322
-28 56 -29 64 -29 195 0 135 0 138 31 193 35 61 68 154 69 189 1 80 -118 197
-260 257 -178 75 -260 139 -327 252 -59 100 -63 120 -63 288 l0 152 77 114
c80 120 123 204 123 243 0 79 -110 200 -276 303 -114 71 -181 133 -235 217
-68 103 -79 148 -79 309 0 164 4 177 109 335 76 116 106 173 123 235 11 43 10
51 -7 85 -42 78 -119 144 -207 175 -25 9 -454 13 -1698 17 l-1665 5 -78 22
c-43 13 -102 35 -130 50 -67 36 -145 115 -177 178 -23 47 -25 62 -28 224 -4
204 3 234 74 305 57 57 132 99 226 128 l73 23 2925 5 c2307 5 2935 9 2970 19
151 42 293 219 291 363 -1 97 -72 207 -179 278 -93 62 -97 62 -672 70 -301 5
-557 13 -600 19 -330 51 -603 137 -860 273 -286 151 -528 347 -620 503 -68
113 -70 125 -70 341 0 188 1 196 25 244 26 52 51 73 113 96 46 18 191 12 277
-12z"/>
</g>
</svg>
