<?xml version="1.0" standalone="no"?>
<!DOCTYPE svg PUBLIC "-//W3C//DTD SVG 20010904//EN"
 "http://www.w3.org/TR/2001/REC-SVG-20010904/DTD/svg10.dtd">
<svg version="1.0" xmlns="http://www.w3.org/2000/svg"
 width="2048.000000pt" height="2048.000000pt" viewBox="0 0 2048.000000 2048.000000"
 preserveAspectRatio="xMidYMid meet">
<metadata>
Created by potrace 1.13, written by Peter Selinger 2001-2015
</metadata>
<g transform="translate(0.000000,2048.000000) scale(0.192120,-0.192120)"
fill="#000000" stroke="none">
<path d="M8292 10301 c-71 -25 -121 -67 -155 -132 -26 -49 -28 -61 -25 -129 5
-86 28 -140 85 -196 61 -61 109 -76 268 -85 353 -19 642 -137 875 -356 205
-192 349 -464 400 -753 7 -36 15 -123 19 -195 9 -148 25 -199 85 -258 63 -63
109 -82 207 -82 78 0 90 3 135 30 61 38 109 107 125 181 16 70 1 283 -32 450
-53 275 -187 576 -358 799 -63 83 -222 246 -306 315 -295 240 -653 383 -1050
420 -154 14 -212 12 -273 -9z m338 -256 c216 -17 485 -107 695 -233 355 -214
627 -576 719 -957 24 -99 20 -478 -5 -483 -10 -2 -21 9 -29 30 -7 18 -19 40
-26 48 -7 9 -20 63 -29 120 -48 329 -157 592 -343 832 -234 303 -574 514 -923
573 -52 9 -117 20 -145 26 -28 5 -58 7 -67 3 -9 -3 -17 -2 -17 4 0 5 -14 12
-32 16 -63 13 2 37 82 30 25 -2 79 -6 120 -9z M4105 9890 c-230 -49 -446 -254
-472 -445 -3 -27 -19 -70 -34 -95 -45 -75 -71 -166 -76 -270 -9 -186 31 -296
204 -548 491 -720 1808 -2639 1817 -2649 8 -9 38 4 126 54 63 36 117 68 119
70 3 2 -6 18 -19 35 -128 174 -2059 3005 -2081 3051 -15 34 -31 81 -35 104 -6
42 -6 42 45 74 54 33 109 99 151 182 37 73 94 133 163 171 109 61 219 66 319
15 43 -22 127 -101 185 -174 17 -22 63 -79 102 -127 108 -134 135 -172 1211
-1742 558 -813 1035 -1502 1061 -1531 32 -34 74 -65 124 -91 l77 -38 -24 -19
c-385 -307 -642 -615 -825 -989 -137 -279 -218 -546 -265 -878 -20 -145 -17
-583 5 -735 37 -250 94 -460 182 -681 91 -227 240 -490 323 -571 76 -75 182
-90 291 -42 50 22 50 23 -7 107 -246 365 -421 822 -478 1252 -22 168 -22 454
1 625 20 155 78 392 130 530 88 237 253 526 422 735 91 113 291 318 380 390
l72 58 36 -34 c30 -28 44 -34 79 -34 83 0 222 108 275 216 43 86 33 155 -163
1134 l-176 875 0 182 c0 181 0 182 26 212 60 71 190 121 314 121 61 0 79 3 82
15 3 12 9 11 43 -4 69 -32 151 -124 190 -216 27 -64 137 -375 200 -565 342
-1037 565 -1660 659 -1848 24 -49 83 -174 131 -278 48 -104 121 -260 162 -347
162 -345 249 -619 298 -949 11 -72 15 -192 15 -455 0 -394 -10 -497 -69 -746
-74 -308 -218 -659 -369 -897 -78 -123 -312 -401 -471 -560 -532 -530 -1197
-836 -1960 -901 -173 -14 -504 -7 -671 16 -701 95 -1333 402 -1821 885 -157
156 -263 285 -394 479 -51 76 -126 185 -167 242 -228 318 -2267 3305 -2304
3376 l-44 83 0 119 c0 107 2 121 22 147 13 16 28 34 36 39 7 6 18 22 25 35 17
33 97 86 160 105 31 9 91 15 154 15 93 0 107 3 143 25 42 26 75 77 66 101 -9
23 -122 72 -197 84 -265 45 -583 -188 -629 -459 -21 -126 19 -291 100 -415
141 -215 2346 -3424 2365 -3441 12 -11 35 -42 50 -70 16 -27 63 -102 106 -165
217 -322 555 -655 889 -877 1151 -765 2650 -746 3772 47 649 459 1114 1135
1308 1900 72 285 100 515 100 821 0 312 -25 523 -95 807 -64 256 -123 415
-277 736 -274 573 -368 821 -848 2247 -142 421 -271 792 -288 825 -68 133
-185 239 -307 279 -77 26 -223 26 -315 1 -222 -60 -364 -198 -406 -394 -27
-132 -25 -148 199 -1265 l212 -1059 -109 -82 -110 -83 -26 36 c-61 84 -583
844 -1595 2321 -768 1119 -1096 1591 -1137 1630 -66 65 -148 116 -227 143 -64
22 -177 30 -236 17z M6873 9745 c-62 -31 -97 -70 -131 -144 -21 -45 -24 -64
-20 -120 6 -76 25 -120 77 -174 63 -67 98 -79 256 -88 409 -24 760 -139 1100
-360 490 -318 844 -792 990 -1325 42 -153 63 -290 74 -474 9 -163 21 -198 88
-261 54 -52 98 -71 175 -77 62 -4 74 -2 133 27 70 35 124 94 146 159 17 52 5
374 -20 542 -169 1111 -924 1959 -1987 2231 -219 55 -394 79 -629 86 l-200 5
-52 -27z m431 -240 c184 -12 422 -63 629 -135 376 -129 688 -327 956 -605 299
-312 478 -643 597 -1105 26 -99 28 -120 31 -387 l5 -283 -27 0 c-16 0 -28 7
-31 18 -3 9 -14 35 -24 57 -10 22 -23 83 -29 136 -13 120 -52 314 -86 427 -87
294 -258 614 -459 862 -87 108 -276 300 -386 392 -209 176 -522 357 -755 437
-49 18 -97 34 -105 38 -16 6 -31 11 -52 16 -7 1 -17 5 -23 8 -5 4 -23 10 -40
14 -16 4 -39 9 -50 12 -26 7 -217 39 -327 54 -86 12 -123 33 -75 44 34 7 99
12 132 9 17 -2 70 -6 119 -9z M2770 9326 c-208 -60 -389 -229 -431 -402 -7
-27 -33 -81 -60 -121 -68 -103 -91 -170 -96 -283 -6 -110 10 -187 59 -284 31
-61 151 -239 238 -351 26 -33 469 -676 985 -1430 516 -753 942 -1374 946
-1379 4 -4 42 20 86 55 43 35 92 74 108 86 23 17 28 25 20 37 -5 9 -503 734
-1106 1613 -603 879 -1106 1618 -1119 1642 -29 57 -49 115 -59 169 l-9 43 58
29 c63 32 102 72 166 170 50 77 110 130 191 168 48 22 72 27 138 27 72 0 86
-3 143 -34 38 -21 108 -77 173 -138 60 -57 130 -117 156 -133 58 -37 113 -40
142 -9 20 21 20 21 -6 63 -174 278 -277 384 -435 447 -66 27 -221 35 -288 15z
M1954 8086 c-111 -26 -252 -112 -337 -206 -55 -62 -103 -155 -117 -228 -5 -29
-25 -85 -44 -125 -47 -97 -68 -192 -69 -307 0 -115 20 -198 71 -300 45 -92
419 -643 483 -714 26 -28 372 -526 769 -1106 398 -580 728 -1061 734 -1067 9
-10 27 10 79 90 37 56 74 111 82 123 14 19 13 24 -13 60 -87 121 -2000 2916
-2018 2949 -13 22 -32 68 -43 103 -24 70 -26 65 43 116 62 47 89 79 131 161
52 100 123 171 221 221 l77 39 121 -2 c147 -4 170 1 195 35 38 55 36 68 -14
97 -111 66 -236 87 -351 61z M1063 3923 c-57 -20 -136 -92 -165 -151 -21 -44
-23 -57 -20 -202 12 -756 289 -1450 767 -1926 469 -465 1079 -719 1839 -764
249 -15 298 -3 385 96 120 137 84 342 -75 420 -48 24 -73 28 -202 36 -447 27
-894 211 -1267 522 -540 450 -861 1040 -894 1645 -7 139 -10 152 -38 202 -67
119 -200 169 -330 122z m139 -280 c13 -12 18 -30 18 -69 0 -131 83 -501 146
-649 147 -344 290 -581 496 -820 341 -395 775 -690 1219 -829 128 -40 325 -81
441 -91 86 -8 109 -22 82 -50 -18 -18 -33 -18 -299 1 -202 14 -348 42 -568
109 -841 255 -1413 891 -1593 1768 -22 107 -24 142 -24 376 0 142 3 261 7 264
12 13 56 7 75 -10z M500 2529 c-99 -44 -160 -132 -168 -241 -6 -84 13 -291 39
-427 46 -240 177 -546 316 -740 81 -113 237 -278 342 -363 331 -267 791 -428
1222 -428 127 0 230 62 278 170 58 128 -3 291 -132 355 -46 22 -73 27 -208 35
-84 5 -181 14 -214 20 -499 92 -863 404 -1014 867 -42 130 -61 235 -71 411 -8
135 -12 160 -35 208 -64 130 -226 191 -355 133z m140 -264 c23 -12 30 -23 34
-57 2 -24 10 -88 16 -143 68 -603 446 -1115 975 -1319 77 -29 209 -68 280 -82
11 -2 31 -6 45 -9 14 -3 68 -10 120 -15 112 -12 130 -17 130 -34 0 -14 -130
-31 -140 -18 -3 4 -34 8 -69 9 -192 5 -555 126 -743 246 -129 83 -275 205
-354 297 -122 140 -241 351 -298 528 -57 178 -66 233 -66 427 0 157 2 174 18
178 9 3 18 5 20 6 2 0 16 -6 32 -14z"/>
</g>
</svg>
