<?xml version="1.0" standalone="no"?>
<!DOCTYPE svg PUBLIC "-//W3C//DTD SVG 20010904//EN"
 "http://www.w3.org/TR/2001/REC-SVG-20010904/DTD/svg10.dtd">
<svg version="1.0" xmlns="http://www.w3.org/2000/svg"
 width="2048.000000pt" height="2048.000000pt" viewBox="0 0 2048.000000 2048.000000"
 preserveAspectRatio="xMidYMid meet">
<metadata>
Created by potrace 1.13, written by Peter Selinger 2001-2015
</metadata>
<g transform="translate(0.000000,2048.000000) scale(0.192120,-0.192120)"
fill="#000000" stroke="none">
<path d="M4183 9201 c-99 -37 -166 -103 -220 -216 -54 -114 -76 -242 -70 -405
6 -178 45 -301 139 -438 134 -195 455 -444 765 -593 291 -140 558 -216 908
-260 52 -6 309 -13 605 -15 494 -4 516 -5 557 -25 48 -23 83 -72 83 -117 0
-35 -37 -84 -84 -110 -29 -16 -220 -17 -2986 -22 l-2955 -5 -85 -23 c-139 -37
-241 -92 -324 -175 -133 -132 -180 -259 -180 -482 0 -221 48 -356 174 -489 83
-87 150 -128 283 -175 l102 -36 1773 -3 1772 -2 -65 -62 c-121 -113 -211 -253
-257 -398 -19 -61 -23 -96 -22 -190 0 -103 4 -125 33 -212 80 -235 234 -408
460 -517 45 -22 107 -45 137 -52 30 -7 54 -15 54 -18 0 -4 -13 -15 -29 -24
-52 -31 -139 -117 -180 -178 -105 -157 -125 -347 -57 -545 80 -237 228 -402
439 -491 73 -31 214 -63 275 -63 23 0 20 -4 -23 -35 -123 -87 -195 -244 -181
-395 29 -319 230 -535 604 -650 196 -59 205 -60 901 -60 350 0 690 5 756 10
1103 95 2070 727 2620 1713 216 388 347 802 407 1287 19 158 16 583 -5 752
-73 566 -276 1090 -597 1538 -422 590 -1013 1020 -1710 1245 -164 53 -337 90
-597 130 -738 113 -1484 294 -2138 517 -66 23 -237 88 -379 145 -335 134 -401
154 -541 159 -92 4 -119 1 -162 -15z m347 -292 c41 -12 158 -55 260 -96 746
-302 1623 -535 2565 -683 467 -73 723 -150 1065 -321 503 -252 928 -635 1219
-1099 191 -305 323 -640 396 -1009 25 -122 25 -133 25 -608 0 -530 -1 -541
-65 -801 -182 -734 -646 -1393 -1274 -1806 -409 -270 -828 -424 -1336 -493
-113 -15 -219 -17 -815 -18 -757 0 -746 -1 -940 67 -169 59 -275 136 -325 234
-28 56 -30 66 -30 180 l0 120 41 80 c89 172 84 225 -36 345 -61 62 -91 84
-165 118 -178 84 -200 97 -255 151 -37 36 -70 81 -94 131 l-37 76 3 159 3 159
69 100 c75 108 126 210 126 250 0 14 -11 47 -24 73 -42 81 -119 156 -258 249
-147 99 -216 168 -268 269 -35 68 -35 70 -38 216 -4 174 -3 176 122 376 74
118 116 211 116 256 0 36 -57 122 -112 169 -53 45 -96 70 -152 91 -22 7 -524
12 -1701 16 -1828 6 -1694 2 -1831 64 -85 39 -138 87 -173 158 -31 61 -31 62
-31 230 0 147 3 174 19 206 38 73 121 132 246 174 l70 23 2920 6 c3194 6 2974
1 3077 62 67 39 153 137 193 221 69 143 42 248 -98 384 -101 97 -153 120 -299
132 -62 5 -282 10 -489 10 -404 0 -522 8 -723 46 -406 79 -796 259 -1093 507
-113 94 -186 180 -230 272 l-33 69 0 194 c0 171 2 197 19 231 23 45 39 59 88
77 51 19 186 11 283 -17z"/>
</g>
</svg>
