<?xml version="1.0" standalone="no"?>
<!DOCTYPE svg PUBLIC "-//W3C//DTD SVG 20010904//EN"
 "http://www.w3.org/TR/2001/REC-SVG-20010904/DTD/svg10.dtd">
<svg version="1.0" xmlns="http://www.w3.org/2000/svg"
 width="2048.000000pt" height="2048.000000pt" viewBox="0 0 2048.000000 2048.000000"
 preserveAspectRatio="xMidYMid meet">
<metadata>
Created by potrace 1.13, written by Peter Selinger 2001-2015
</metadata>
<g transform="translate(0.000000,2048.000000) scale(0.192120,-0.192120)"
fill="#000000" stroke="none">
<path d="M6191 9205 c-95 -21 -141 -38 -421 -150 -426 -171 -838 -301 -1365
-430 -446 -110 -655 -150 -1300 -254 -946 -153 -1812 -747 -2306 -1583 -237
-400 -382 -823 -446 -1304 -24 -185 -24 -608 1 -799 65 -512 225 -967 485
-1385 562 -904 1493 -1481 2536 -1570 66 -5 405 -10 753 -10 601 0 639 1 735
21 273 55 513 179 632 327 58 72 110 178 131 267 23 100 15 234 -18 306 -36
77 -80 132 -138 176 l-51 38 106 17 c301 50 518 238 621 541 68 201 49 388
-57 546 -41 61 -128 147 -180 178 -38 23 -37 29 9 38 67 12 185 65 268 120
161 108 280 264 345 453 30 88 33 108 34 212 0 93 -5 129 -23 190 -46 145
-136 285 -257 398 l-65 62 1772 3 c1669 2 1777 4 1833 20 247 74 420 245 482
477 24 92 24 320 -1 410 -56 204 -206 360 -416 430 -152 52 -34 50 -3145 50
-2792 0 -2902 1 -2940 19 -53 24 -95 74 -95 113 0 46 35 94 87 119 45 22 51
22 427 20 404 -2 688 9 849 34 545 82 1060 329 1416 678 133 130 216 264 257
412 27 99 30 300 5 419 -37 183 -124 317 -240 372 -47 23 -72 28 -156 30 -63
2 -124 -2 -164 -11z m234 -285 c16 -8 40 -30 52 -49 22 -33 23 -42 23 -242 0
-178 -3 -216 -18 -257 -93 -244 -529 -555 -998 -711 -165 -56 -391 -104 -558
-120 -60 -6 -274 -11 -475 -11 -482 -1 -594 -9 -676 -49 -71 -35 -190 -149
-235 -226 -63 -107 -29 -239 99 -377 35 -38 84 -80 108 -95 104 -61 -115 -56
3078 -63 2804 -5 2922 -6 2975 -24 129 -43 239 -125 255 -189 4 -13 5 -106 3
-208 -3 -159 -6 -189 -23 -224 -43 -86 -136 -153 -270 -192 -56 -16 -176 -18
-1725 -23 -1170 -4 -1674 -9 -1696 -17 -126 -45 -274 -190 -274 -267 0 -35 51
-140 123 -255 109 -176 107 -168 107 -349 0 -181 -6 -208 -69 -301 -55 -81
-97 -119 -227 -206 -63 -42 -138 -103 -173 -140 -58 -63 -111 -148 -111 -179
0 -30 71 -170 127 -249 l58 -82 3 -183 3 -184 -43 -75 c-60 -106 -118 -154
-276 -230 -108 -52 -146 -77 -202 -130 -71 -66 -120 -139 -120 -177 0 -27 30
-106 69 -180 30 -57 31 -61 31 -195 0 -132 -1 -137 -29 -187 -73 -127 -237
-220 -496 -280 -74 -18 -130 -19 -760 -19 -593 0 -697 3 -810 18 -710 96
-1299 378 -1789 856 -164 161 -273 290 -391 466 -210 312 -349 619 -440 970
-70 271 -75 329 -75 804 0 408 1 433 24 562 75 414 219 774 449 1119 388 581
962 1009 1649 1228 169 54 304 84 608 132 470 76 824 149 1255 260 518 133
904 259 1331 433 143 59 255 96 334 111 48 9 165 0 195 -14z"/>
</g>
</svg>
