<?xml version="1.0" standalone="no"?>
<!DOCTYPE svg PUBLIC "-//W3C//DTD SVG 20010904//EN"
 "http://www.w3.org/TR/2001/REC-SVG-20010904/DTD/svg10.dtd">
<svg version="1.0" xmlns="http://www.w3.org/2000/svg"
 width="2048.000000pt" height="2048.000000pt" viewBox="0 0 2048.000000 2048.000000"
 preserveAspectRatio="xMidYMid meet">
<metadata>
Created by potrace 1.13, written by Peter Selinger 2001-2015
</metadata>
<g transform="translate(0.000000,2048.000000) scale(0.192120,-0.192120)"
fill="#000000" stroke="none">
<path d="M4010 10253 c-180 -23 -303 -91 -363 -201 -56 -103 -59 -132 -67
-707 -9 -628 -25 -818 -96 -1190 -107 -553 -364 -1261 -569 -1569 -208 -310
-442 -470 -970 -662 -355 -128 -463 -185 -580 -303 -75 -76 -126 -160 -160
-262 -57 -169 -55 -112 -55 -1932 0 -1128 4 -1709 11 -1774 25 -225 90 -391
197 -505 137 -145 268 -202 571 -248 240 -36 342 -83 576 -264 224 -173 368
-240 610 -283 94 -17 256 -18 2795 -18 l2695 0 85 23 c93 24 224 83 296 133
71 48 181 157 230 225 53 74 117 215 146 321 17 63 21 106 21 223 0 129 -3
155 -26 233 -27 88 -82 207 -120 261 l-20 28 -13 -24 c-7 -13 -18 -51 -25 -85
-12 -58 -11 -70 20 -200 39 -167 45 -188 72 -278 12 -40 23 -109 25 -160 4
-89 4 -90 -11 -51 -35 92 -114 153 -208 163 -80 8 -144 -16 -201 -77 -25 -27
-46 -53 -46 -58 0 -16 -109 -116 -152 -139 -101 -55 -75 -54 -999 -51 l-854 3
-65 31 c-237 113 -327 387 -203 617 48 87 151 168 268 210 20 8 361 13 1060
17 l1030 6 74 22 c114 35 188 69 270 125 180 121 286 261 363 477 69 196 64
421 -13 620 -29 76 -94 190 -108 190 -14 0 -41 -101 -41 -155 0 -50 26 -168
90 -410 50 -192 52 -293 3 -195 -49 99 -157 154 -261 132 -74 -16 -116 -45
-161 -111 -47 -69 -124 -142 -179 -170 -102 -52 -80 -51 -1179 -51 -719 0
-1038 3 -1075 11 -131 28 -254 125 -311 246 -27 58 -32 82 -35 163 -3 78 0
106 18 159 39 117 122 209 238 264 l67 32 1245 6 c1367 6 1285 2 1453 67 160
62 330 197 424 337 51 77 107 204 135 308 32 119 32 318 0 437 -39 145 -100
257 -209 389 -8 10 -15 -11 -24 -73 -13 -79 -4 -129 45 -260 19 -50 41 -122
50 -161 8 -38 19 -86 25 -105 42 -154 51 -201 51 -259 l-1 -66 -14 39 c-66
185 -321 225 -429 67 -61 -90 -127 -150 -205 -189 l-75 -37 -1265 0 -1266 0
-75 36 c-229 111 -318 368 -205 595 52 107 139 180 270 228 21 7 429 12 1350
16 l1320 5 75 23 c221 68 395 189 515 357 130 181 196 445 165 656 -18 125
-93 340 -172 492 -246 474 -806 738 -1788 846 -487 53 -915 71 -2376 100 -407
8 -412 8 -460 32 -57 28 -88 70 -103 140 -24 109 -11 231 74 701 100 558 117
678 122 863 9 309 -54 599 -193 893 -170 361 -437 620 -719 698 -59 17 -323
28 -405 17z m335 -193 c135 -37 255 -109 359 -215 186 -189 312 -419 391 -715
24 -93 25 -102 25 -450 l0 -355 -41 -235 c-117 -675 -109 -614 -109 -841 0
-188 2 -212 21 -256 28 -67 59 -104 130 -159 125 -96 151 -99 1014 -114 871
-16 1311 -34 1720 -71 639 -58 1025 -148 1370 -319 211 -104 303 -174 407
-310 87 -113 206 -384 242 -550 8 -36 22 -91 30 -122 40 -147 46 -176 45 -238
0 -61 -1 -63 -12 -35 -57 148 -212 214 -345 146 -42 -22 -75 -55 -121 -123
-59 -88 -169 -157 -283 -178 -36 -7 -500 -9 -1334 -8 l-1279 3 -55 22 c-193
80 -298 240 -288 443 4 77 9 98 41 162 45 92 121 167 214 211 l68 32 905 5
c904 5 905 5 945 27 22 12 54 36 72 55 124 129 64 349 -109 397 -32 9 -268 11
-943 8 -833 -3 -905 -4 -970 -21 -354 -93 -609 -352 -692 -702 -24 -103 -24
-300 0 -396 44 -177 126 -327 247 -447 l68 -69 -40 -38 c-51 -51 -120 -153
-158 -239 -47 -105 -71 -208 -77 -335 -12 -257 72 -481 250 -667 l80 -83 -37
-42 c-98 -114 -170 -248 -207 -389 -32 -118 -32 -337 0 -454 26 -99 88 -229
145 -309 43 -59 147 -165 195 -199 l24 -16 -40 -53 c-95 -124 -150 -241 -180
-386 -24 -120 -14 -331 22 -442 93 -288 294 -500 574 -606 47 -19 79 -33 71
-34 -56 -1 -319 58 -480 108 l-85 26 -1420 7 c-1013 4 -1444 10 -1505 18 -261
37 -344 74 -655 295 -221 156 -356 214 -615 261 -296 54 -441 143 -535 329
-68 137 -65 19 -65 2021 l0 1810 24 66 c35 101 128 224 212 283 47 33 211 108
339 156 333 122 436 166 568 242 226 129 454 343 589 553 173 267 419 917 527
1390 111 482 131 681 141 1360 8 584 8 585 73 682 39 58 95 89 199 109 81 15
267 12 333 -6z m3955 -4008 l22 -17 -22 -20 c-22 -19 -43 -20 -854 -26 -924
-6 -875 -2 -1025 -76 -123 -59 -241 -192 -304 -341 -25 -60 -27 -73 -27 -216
0 -159 0 -161 51 -273 83 -183 260 -325 447 -359 114 -20 2490 -20 2604 0 119
22 207 69 323 176 94 87 150 124 167 114 31 -20 -23 -122 -114 -215 -92 -94
-170 -134 -318 -165 -19 -4 -609 -10 -1310 -14 -1186 -5 -1279 -7 -1335 -24
-177 -53 -325 -179 -410 -347 l-45 -91 0 -163 c0 -156 1 -165 28 -231 78 -188
214 -325 382 -386 l65 -23 1245 0 c1034 0 1253 2 1295 14 94 26 183 81 280
172 99 93 128 114 151 105 38 -14 -3 -90 -98 -182 -83 -80 -124 -111 -187
-144 -116 -59 -19 -54 -1331 -61 -847 -4 -1222 -10 -1262 -18 -133 -26 -235
-83 -345 -192 -49 -49 -76 -88 -114 -164 l-50 -99 3 -171 3 -170 49 -100 c42
-84 64 -114 135 -185 100 -99 173 -140 296 -165 71 -14 197 -15 1110 -13
l1030 3 74 27 c94 34 167 83 261 173 103 100 150 121 150 70 0 -36 -38 -90
-117 -167 -105 -102 -208 -162 -318 -183 -16 -3 -406 -6 -865 -5 -1071 1
-1164 -5 -1320 -83 -86 -43 -233 -187 -278 -274 -53 -100 -62 -144 -62 -293 0
-130 2 -138 34 -216 67 -163 172 -283 317 -360 49 -26 89 -51 89 -55 0 -22
-42 -29 -115 -20 -155 19 -295 114 -397 270 -72 110 -78 140 -78 386 0 236 3
251 68 385 44 90 82 192 82 221 0 38 -62 150 -143 258 -47 63 -101 144 -119
180 l-33 65 -3 255 -3 256 52 100 c144 277 148 293 102 395 -16 36 -55 102
-86 147 -31 45 -73 117 -94 160 l-38 78 0 240 0 240 50 95 c114 220 128 250
132 297 6 60 -23 128 -108 255 -34 50 -75 120 -93 157 l-31 66 0 255 0 255 34
65 c100 192 299 331 536 375 54 10 267 13 916 14 797 1 848 0 869 -17z m736
-5147 c12 -31 -10 -71 -74 -134 -82 -81 -199 -143 -256 -137 -14 2 -26 -1 -26
-5 0 -5 -5 -9 -11 -9 -6 0 -9 8 -7 18 2 9 10 16 16 14 7 -1 12 2 12 6 0 5 23
23 51 42 28 18 91 71 141 117 106 99 142 120 154 88z m-386 -281 c0 -8 -4 -12
-10 -9 -5 3 -10 10 -10 16 0 5 5 9 10 9 6 0 10 -7 10 -16z m-1805 -25 c-11
-17 -35 -9 -35 11 0 18 3 19 20 10 11 -6 18 -15 15 -21z"/>
</g>
</svg>
