<?xml version="1.0" standalone="no"?>
<!DOCTYPE svg PUBLIC "-//W3C//DTD SVG 20010904//EN"
 "http://www.w3.org/TR/2001/REC-SVG-20010904/DTD/svg10.dtd">
<svg version="1.0" xmlns="http://www.w3.org/2000/svg"
 width="2048.000000pt" height="2048.000000pt" viewBox="0 0 2048.000000 2048.000000"
 preserveAspectRatio="xMidYMid meet">
<metadata>
Created by potrace 1.13, written by Peter Selinger 2001-2015
</metadata>
<g transform="translate(0.000000,2048.000000) scale(0.192120,-0.192120)"
fill="#000000" stroke="none">
<path d="M3260 10323 c-95 -7 -248 -35 -330 -59 -132 -40 -261 -113 -431 -245
-237 -184 -344 -228 -653 -274 -345 -51 -564 -230 -646 -525 -50 -183 -50
-178 -50 -1983 0 -1825 -1 -1772 55 -1937 37 -108 94 -197 177 -276 118 -112
234 -170 593 -299 620 -222 879 -448 1109 -968 205 -463 348 -927 420 -1364
59 -360 67 -467 76 -1073 6 -446 10 -546 24 -599 32 -124 92 -204 195 -256 81
-41 164 -56 336 -62 141 -5 171 -3 250 16 397 94 738 510 883 1076 50 195 65
324 59 520 -5 184 -21 292 -122 860 -85 477 -98 596 -74 704 15 70 46 112 102
140 48 24 55 24 440 32 1714 36 2075 53 2590 125 652 91 1081 253 1360 515
167 155 268 330 372 644 51 155 57 330 15 490 -30 110 -35 114 -36 27 -1 -43
-9 -104 -18 -137 -10 -33 -24 -91 -33 -130 -68 -318 -172 -555 -312 -714 -87
-100 -190 -176 -335 -247 -172 -83 -312 -134 -503 -183 -577 -147 -1074 -185
-2853 -221 -283 -6 -546 -15 -585 -21 -136 -19 -244 -94 -302 -211 l-33 -65 0
-205 c0 -193 2 -217 39 -429 22 -123 56 -319 75 -435 l36 -210 0 -352 c0 -384
-3 -417 -62 -586 -73 -213 -132 -326 -256 -489 -123 -161 -250 -259 -407 -314
-76 -26 -89 -28 -260 -28 -144 0 -191 3 -235 18 -117 37 -157 80 -191 207 -22
82 -23 106 -30 600 -6 433 -10 544 -28 695 -72 603 -208 1101 -459 1680 -167
387 -346 618 -622 802 -150 100 -289 165 -610 285 -118 44 -242 94 -275 110
-162 82 -272 178 -337 296 -73 132 -68 -16 -68 2002 0 1977 -3 1876 56 1993
62 123 146 211 249 261 92 44 151 61 320 92 158 28 269 61 366 109 89 44 119
64 289 190 189 139 303 194 485 234 125 27 272 31 1343 31 734 0 1112 3 1112
10 0 6 102 10 286 10 303 0 325 2 519 57 50 14 140 36 200 49 l110 23 -1670
-1 c-918 -1 -1690 -3 -1715 -5z M6756 10314 c-279 -61 -515 -243 -643 -499
-62 -123 -85 -217 -91 -370 -8 -245 45 -412 191 -603 l40 -53 -24 -16 c-48
-34 -152 -140 -195 -199 -58 -80 -119 -211 -145 -309 -32 -118 -32 -336 0
-454 38 -143 103 -267 199 -379 l45 -52 -80 -83 c-88 -92 -150 -188 -193 -299
-121 -313 -50 -699 171 -934 l50 -52 -36 -28 c-57 -43 -161 -180 -205 -269
-21 -44 -51 -120 -66 -170 -24 -80 -27 -107 -27 -235 0 -155 13 -229 67 -360
86 -215 281 -410 496 -496 33 -14 95 -35 138 -47 76 -21 86 -22 981 -25 983
-3 949 -5 1024 52 19 14 46 49 61 77 65 119 18 264 -109 332 -40 22 -41 22
-946 27 l-905 5 -75 37 c-194 96 -290 307 -234 515 35 127 140 241 273 295
l57 23 1315 0 1315 0 56 -23 c82 -33 146 -79 190 -136 82 -107 102 -127 140
-146 110 -57 241 -22 311 81 84 125 52 238 -117 417 -135 144 -300 235 -498
276 -67 14 -230 16 -1336 16 -902 0 -1275 3 -1313 11 -84 18 -159 59 -221 121
-218 216 -156 572 123 707 l75 36 1266 0 1265 0 75 -37 c78 -39 144 -99 205
-189 116 -170 389 -109 435 96 15 70 4 115 -54 205 -93 145 -269 288 -434 352
-168 65 -86 61 -1453 67 l-1245 6 -75 37 c-94 46 -168 121 -213 215 -30 64
-32 74 -32 183 0 109 2 119 32 183 58 121 180 218 311 246 37 8 356 11 1075
11 1099 0 1077 1 1179 -51 54 -28 132 -101 174 -165 43 -64 95 -101 165 -116
185 -38 346 160 269 331 -29 63 -112 171 -179 233 -106 98 -230 169 -378 215
l-88 28 -1030 5 c-700 4 -1040 9 -1060 17 -117 42 -220 123 -268 210 -124 230
-34 504 203 617 l65 31 854 3 c924 3 898 4 999 -51 43 -23 152 -123 152 -139
0 -5 21 -31 46 -58 134 -143 368 -81 414 110 7 27 9 67 5 89 -15 88 -147 259
-277 356 -79 60 -223 130 -323 157 -80 23 -84 23 -975 25 -762 1 -905 0 -964
-13z m124 -260 c0 -8 -8 -14 -18 -14 -35 0 -147 -52 -220 -103 -114 -78 -199
-184 -255 -315 -25 -60 -27 -72 -27 -218 0 -151 1 -155 32 -226 88 -201 220
-330 398 -390 65 -22 67 -22 1055 -28 912 -5 996 -7 1065 -24 134 -33 217 -82
348 -210 64 -63 72 -75 72 -108 0 -20 -4 -39 -10 -43 -18 -11 -77 26 -169 109
-117 106 -201 151 -327 177 -90 18 -147 19 -927 19 -904 0 -1140 -8 -1242 -39
-106 -33 -182 -78 -263 -156 -87 -83 -132 -151 -169 -256 -23 -67 -25 -83 -21
-213 4 -137 5 -143 40 -218 98 -208 232 -330 423 -385 55 -16 161 -18 1275
-23 1321 -6 1248 -3 1378 -60 63 -28 167 -107 240 -183 48 -51 62 -72 62 -96
0 -69 -44 -53 -174 62 -116 104 -195 149 -313 178 -70 18 -137 19 -1222 19
-1303 0 -1258 3 -1416 -74 -152 -74 -266 -198 -330 -360 -26 -66 -27 -75 -23
-220 l4 -151 46 -95 c100 -205 254 -331 453 -372 32 -6 512 -12 1305 -15 1177
-4 1260 -5 1341 -23 115 -25 206 -71 286 -144 87 -80 123 -130 123 -173 0 -68
-44 -55 -155 47 -134 125 -241 183 -380 208 -16 2 -560 7 -1209 9 -1022 3
-1193 1 -1289 -12 -61 -8 -130 -22 -154 -30 -162 -55 -297 -176 -378 -336
l-45 -91 0 -168 0 -169 34 -75 c90 -198 232 -329 411 -382 54 -16 137 -18 902
-23 611 -4 845 -9 853 -17 9 -9 9 -17 1 -31 -8 -15 -25 -22 -72 -27 -95 -9
-1456 -7 -1608 4 -157 11 -247 37 -365 106 -43 25 -104 71 -135 103 -71 71
-147 197 -161 267 -7 32 -10 139 -8 271 3 253 -2 233 126 430 88 135 117 209
110 276 -3 25 -26 85 -54 138 -27 52 -64 125 -84 163 l-35 70 -3 248 c-4 292
-9 272 127 477 45 69 85 137 88 153 3 16 10 31 14 34 5 3 9 29 9 57 0 46 -10
73 -87 226 l-88 174 0 256 0 256 31 60 c18 33 70 110 117 170 115 150 141 201
140 279 0 50 -8 77 -43 151 -92 196 -90 186 -90 459 l0 243 35 70 c91 182 294
322 495 342 84 8 130 3 130 -15z m1674 7 c3 -5 -1 -11 -9 -15 -9 -3 -15 0 -15
9 0 16 16 20 24 6z m183 -25 c98 -35 175 -84 261 -168 45 -44 52 -56 52 -90 0
-26 -4 -38 -14 -38 -34 0 -75 25 -131 79 -115 111 -237 193 -313 213 -12 4
-22 12 -22 18 0 16 109 6 167 -14z M9322 9605 c-7 -53 -19 -112 -27 -132 -8
-19 -15 -45 -15 -57 0 -12 -4 -26 -9 -31 -5 -6 -11 -30 -13 -55 -3 -25 -17
-97 -32 -160 -29 -121 -30 -184 -3 -236 l14 -27 26 44 c43 73 76 152 98 235
38 140 27 413 -20 502 -4 7 -12 -31 -19 -83z M9611 8295 c-1 -33 -13 -107 -27
-165 -14 -58 -29 -125 -34 -150 -5 -25 -18 -81 -30 -125 -27 -105 -36 -221
-20 -269 6 -20 17 -35 23 -33 20 6 94 163 117 249 43 156 37 374 -14 514 l-15
39 0 -60z M9894 6917 c-1 -40 -9 -99 -19 -132 -9 -33 -19 -75 -22 -93 -3 -18
-9 -35 -14 -38 -5 -3 -9 -20 -9 -38 0 -44 -30 -157 -75 -285 -33 -91 -37 -113
-32 -168 2 -35 8 -67 12 -71 26 -26 160 218 196 358 32 122 32 322 1 434 -32
110 -37 115 -38 33z"/>
</g>
</svg>
