<?xml version="1.0" standalone="no"?>
<!DOCTYPE svg PUBLIC "-//W3C//DTD SVG 20010904//EN"
 "http://www.w3.org/TR/2001/REC-SVG-20010904/DTD/svg10.dtd">
<svg version="1.0" xmlns="http://www.w3.org/2000/svg"
 width="2048.000000pt" height="2048.000000pt" viewBox="0 0 2048.000000 2048.000000"
 preserveAspectRatio="xMidYMid meet">
<metadata>
Created by potrace 1.13, written by Peter Selinger 2001-2015
</metadata>
<g transform="translate(0.000000,2048.000000) scale(0.192120,-0.192120)"
fill="#000000" stroke="none">
<path d="M6715 10205 c-159 -34 -291 -117 -399 -249 l-36 -43 -133 -5 c-107
-5 -146 -10 -205 -31 -271 -94 -456 -339 -469 -622 -5 -96 2 -137 156 -985 89
-487 184 -1006 212 -1153 28 -148 49 -271 47 -273 -2 -2 -42 40 -89 93 -46 54
-202 217 -345 363 l-262 265 -538 -267 c-947 -469 -1616 -768 -2231 -998 -100
-38 -208 -85 -240 -105 -130 -83 -237 -218 -290 -370 -25 -72 -28 -93 -28
-215 0 -144 14 -210 70 -319 84 -166 252 -301 435 -350 212 -56 300 -39 765
144 385 151 1025 432 1450 635 72 34 171 82 222 106 l92 43 143 -167 c264
-308 530 -628 760 -917 109 -137 303 -455 313 -513 16 -95 21 -87 -535 -782
-288 -359 -530 -652 -546 -661 -41 -23 -786 -269 -814 -269 -13 0 -331 102
-706 227 -578 192 -683 230 -687 248 -3 11 -19 74 -37 140 -72 275 -101 530
-101 875 0 290 -8 344 -75 480 -115 232 -356 380 -619 380 -336 0 -622 -239
-681 -570 -9 -49 -13 -159 -14 -315 -1 -1182 403 -2230 1105 -2867 421 -382
907 -624 1490 -743 397 -81 522 -87 1575 -82 936 4 923 3 1205 58 514 100 921
376 1179 799 25 41 77 113 116 160 376 450 645 1117 784 1950 139 827 150
1713 30 2500 -57 376 -159 791 -260 1051 -20 52 -258 734 -530 1517 -287 828
-509 1452 -531 1495 -58 111 -172 220 -293 279 -149 73 -308 95 -455 63z m261
-259 c140 -37 245 -118 304 -236 41 -82 62 -141 538 -1515 242 -698 452 -1301
467 -1340 158 -415 263 -884 320 -1434 18 -171 21 -817 5 -1132 -48 -937 -225
-1730 -514 -2295 -93 -184 -161 -289 -356 -551 -74 -100 -154 -208 -177 -240
-68 -96 -149 -178 -246 -252 -220 -166 -440 -255 -767 -310 -230 -39 -339 -43
-1265 -39 -849 4 -898 5 -1052 26 -424 58 -753 153 -1073 313 -275 138 -502
301 -706 510 -173 177 -251 275 -366 459 -254 409 -405 837 -500 1415 -19 115
-22 180 -25 569 l-4 439 30 62 c51 104 141 171 276 205 183 47 350 7 465 -110
46 -46 59 -69 82 -138 27 -79 28 -88 28 -304 0 -506 81 -943 209 -1133 48 -70
157 -167 226 -200 84 -41 1013 -354 1173 -396 191 -49 228 -44 668 105 318
107 353 122 455 204 88 70 47 21 493 577 467 583 545 686 609 815 51 103 52
106 55 207 4 96 2 108 -26 176 -93 223 -205 385 -607 878 -417 512 -550 653
-700 743 -111 68 -152 61 -485 -80 -124 -52 -263 -111 -310 -131 -47 -19 -150
-63 -230 -98 -479 -209 -959 -404 -1158 -471 -211 -72 -359 -73 -493 -2 -68
35 -128 95 -163 163 -25 47 -26 57 -26 203 0 176 7 199 84 270 25 23 46 49 46
57 0 33 69 66 435 211 532 209 1174 498 1995 899 206 101 389 186 407 190 53
11 96 -19 266 -183 206 -198 315 -286 370 -298 63 -14 98 -4 125 36 13 19 28
35 35 35 20 0 429 -477 798 -930 59 -71 142 -168 185 -215 110 -119 336 -369
420 -465 60 -69 78 -100 125 -209 30 -70 55 -121 57 -112 2 8 -4 103 -12 210
-40 496 -117 902 -231 1221 -81 224 -994 2855 -1030 2965 -40 126 -52 231 -36
326 13 75 38 161 50 168 4 3 26 -2 50 -10 59 -20 119 -4 226 61 81 49 180 96
235 111 61 17 184 17 246 0z m-956 -418 c0 -52 13 -116 52 -263 12 -44 238
-701 501 -1460 264 -759 501 -1444 528 -1522 27 -78 66 -204 86 -280 33 -126
36 -153 41 -306 l4 -169 -27 18 c-39 25 -290 297 -419 453 -208 253 -554 666
-615 736 -34 39 -64 81 -67 95 -3 14 -10 35 -15 48 -5 13 -9 81 -9 151 0 149
5 119 -191 1193 l-139 767 0 194 0 193 29 45 c34 54 88 100 155 134 76 38 86
35 86 -27z"/>
</g>
</svg>
