<?xml version="1.0" standalone="no"?>
<!DOCTYPE svg PUBLIC "-//W3C//DTD SVG 20010904//EN"
 "http://www.w3.org/TR/2001/REC-SVG-20010904/DTD/svg10.dtd">
<svg version="1.0" xmlns="http://www.w3.org/2000/svg"
 width="2048.000000pt" height="2048.000000pt" viewBox="0 0 2048.000000 2048.000000"
 preserveAspectRatio="xMidYMid meet">
<metadata>
Created by potrace 1.13, written by Peter Selinger 2001-2015
</metadata>
<g transform="translate(0.000000,2048.000000) scale(0.192120,-0.192120)"
fill="#000000" stroke="none">
<path d="M6715 10205 c-146 -32 -258 -97 -368 -215 l-72 -77 -130 -6 c-104 -4
-145 -10 -203 -30 -282 -98 -472 -363 -472 -659 0 -56 247 -1452 401 -2267
l22 -115 107 -120 c144 -161 369 -428 608 -721 108 -132 229 -274 267 -315
120 -128 267 -290 381 -420 103 -118 113 -132 163 -250 29 -69 56 -127 58
-130 7 -7 -4 164 -23 365 -44 455 -125 835 -251 1170 -39 105 -472 1352 -884
2543 -80 233 -144 433 -150 475 -15 93 -5 201 27 297 35 106 40 111 92 97 58
-15 110 0 241 72 137 76 218 101 326 101 99 0 194 -26 277 -76 116 -70 173
-148 239 -324 37 -102 911 -2614 1015 -2920 129 -380 208 -759 260 -1249 14
-129 15 -239 11 -695 -3 -297 -10 -599 -16 -671 -56 -630 -145 -1113 -283
-1535 -139 -425 -290 -713 -563 -1074 -50 -65 -108 -144 -129 -175 -95 -136
-141 -193 -219 -268 -240 -230 -520 -356 -949 -425 -128 -21 -169 -22 -1043
-26 -969 -4 -1061 -1 -1352 44 -573 88 -1081 305 -1478 633 -465 383 -801 935
-980 1611 -44 164 -77 331 -105 522 -19 131 -20 183 -18 569 l3 424 24 50 c51
103 181 199 312 230 220 51 444 -23 544 -180 66 -103 75 -151 75 -384 0 -116
5 -268 11 -338 22 -268 87 -603 139 -718 49 -109 144 -213 239 -263 68 -37
1138 -394 1253 -419 117 -25 184 -12 531 103 358 118 433 152 529 242 59 56
804 973 944 1162 165 225 203 385 131 557 -39 92 -140 271 -205 363 -115 162
-763 950 -870 1059 -164 165 -272 214 -397 180 -58 -16 -414 -161 -665 -272
-74 -33 -171 -74 -215 -92 -44 -18 -183 -77 -310 -132 -295 -128 -632 -263
-788 -315 -107 -36 -136 -42 -235 -46 -88 -4 -128 -1 -178 13 -121 33 -225
120 -282 235 -25 51 -27 66 -30 202 -4 173 4 199 86 289 29 31 52 61 52 67 0
29 127 97 310 167 562 212 1519 642 2378 1069 184 91 217 99 274 70 17 -9 105
-88 197 -176 218 -210 290 -265 357 -273 47 -7 54 -5 85 23 l33 30 -27 36
c-39 51 -320 346 -491 516 l-145 144 -538 -266 c-934 -463 -1628 -774 -2208
-990 -242 -90 -299 -123 -395 -224 -117 -124 -180 -270 -188 -440 -18 -382
254 -689 643 -728 85 -9 192 8 315 50 382 131 1366 555 1939 838 74 36 136 66
137 66 3 0 262 -302 395 -460 128 -153 381 -463 511 -625 109 -137 303 -455
313 -513 16 -95 21 -87 -535 -782 -288 -359 -530 -652 -546 -661 -41 -23 -786
-269 -814 -269 -13 0 -331 102 -705 227 l-682 227 -26 95 c-88 316 -133 704
-120 1036 6 175 -8 253 -73 385 -39 77 -62 109 -128 175 -274 273 -705 275
-975 5 -85 -84 -131 -156 -166 -257 -42 -119 -48 -194 -42 -513 7 -414 42
-688 133 -1058 202 -824 602 -1465 1190 -1908 456 -343 978 -540 1649 -621
135 -16 245 -18 1095 -18 1029 0 1031 0 1322 60 512 105 906 375 1162 795 25
41 76 112 114 157 423 508 709 1284 831 2258 151 1203 47 2376 -290 3285 -31
85 -271 773 -533 1528 -276 797 -491 1403 -513 1445 -58 111 -172 220 -293
279 -149 73 -308 95 -455 63z m-705 -654 c0 -76 40 -263 84 -393 19 -57 242
-701 496 -1433 254 -731 482 -1387 506 -1457 24 -69 62 -199 84 -289 36 -145
40 -176 40 -285 0 -68 -4 -125 -9 -129 -12 -7 -208 194 -337 346 -55 64 -205
244 -334 400 -129 156 -280 336 -335 399 -106 122 -135 178 -135 266 0 64 -41
308 -199 1176 l-151 827 0 204 0 203 28 45 c37 57 106 117 173 151 82 41 89
39 89 -31z"/>
</g>
</svg>
