<?xml version="1.0" standalone="no"?>
<!DOCTYPE svg PUBLIC "-//W3C//DTD SVG 20010904//EN"
 "http://www.w3.org/TR/2001/REC-SVG-20010904/DTD/svg10.dtd">
<svg version="1.0" xmlns="http://www.w3.org/2000/svg"
 width="2048.000000pt" height="2048.000000pt" viewBox="0 0 2048.000000 2048.000000"
 preserveAspectRatio="xMidYMid meet">
<metadata>
Created by potrace 1.13, written by Peter Selinger 2001-2015
</metadata>
<g transform="translate(0.000000,2048.000000) scale(0.192120,-0.192120)"
fill="#000000" stroke="none">
<path d="M6191 9205 c-92 -21 -175 -50 -351 -122 -218 -91 -329 -132 -535
-202 -592 -198 -1411 -393 -2050 -486 -203 -30 -362 -63 -513 -106 -1189 -343
-2093 -1320 -2343 -2532 -50 -247 -63 -386 -63 -677 0 -282 12 -405 59 -650
269 -1377 1370 -2452 2735 -2669 220 -35 352 -41 998 -41 595 0 640 1 732 20
258 53 465 153 598 290 69 71 113 141 149 240 24 66 27 89 27 195 0 108 -2
125 -25 175 -35 74 -97 150 -153 187 l-46 30 63 7 c327 36 564 229 673 549 68
200 48 388 -60 549 -39 59 -125 145 -177 175 -16 9 -29 20 -29 23 0 3 29 13
66 23 36 9 97 33 137 53 218 109 370 283 448 512 29 87 33 109 33 212 1 94 -3
129 -22 190 -46 145 -136 285 -257 398 l-65 62 1772 3 c1993 3 1805 -5 1978
80 67 32 102 59 165 122 91 90 132 159 167 280 30 105 32 324 4 425 -56 204
-206 360 -416 430 -152 52 -34 50 -3146 50 l-2900 0 -50 25 c-112 56 -111 170
4 227 l47 23 565 6 c454 5 584 9 663 22 479 80 878 249 1242 526 99 75 264
241 314 317 105 156 147 312 138 513 -11 265 -103 455 -256 527 -47 23 -72 28
-156 30 -63 2 -124 -2 -164 -11z m251 -228 c45 -19 84 -61 104 -112 12 -33 15
-81 12 -256 l-3 -215 -32 -64 c-100 -202 -358 -417 -707 -590 -254 -126 -478
-197 -762 -241 -123 -19 -198 -22 -659 -28 -465 -7 -525 -9 -570 -25 -91 -33
-177 -107 -229 -197 -39 -69 -37 -159 5 -239 53 -98 124 -164 216 -202 l58
-23 2925 -5 2925 -5 77 -22 c130 -37 203 -82 270 -166 l38 -49 0 -214 c0 -239
-3 -254 -68 -333 -51 -64 -67 -76 -147 -116 -145 -73 -24 -68 -1870 -74
l-1660 -6 -60 -28 c-33 -16 -73 -40 -88 -55 -45 -42 -87 -108 -87 -137 0 -36
48 -138 112 -236 112 -171 108 -158 108 -371 0 -212 -3 -224 -83 -339 -60 -85
-104 -124 -241 -214 -152 -100 -246 -203 -246 -272 0 -34 54 -138 129 -247
l61 -90 0 -175 c0 -166 -2 -179 -25 -229 -71 -153 -163 -237 -347 -318 -120
-52 -195 -107 -237 -173 -43 -66 -40 -97 19 -220 l50 -103 0 -128 c0 -93 -4
-138 -16 -165 -21 -52 -85 -136 -131 -174 -54 -45 -194 -115 -289 -144 -178
-56 -193 -57 -893 -57 -381 0 -693 4 -757 11 -584 56 -1125 267 -1596 622
-614 462 -1043 1152 -1193 1920 -25 125 -25 136 -25 611 0 524 0 521 60 771
34 141 79 276 143 432 337 820 1079 1492 1946 1763 210 65 334 92 736 155 480
76 1037 203 1548 351 319 93 586 186 908 317 149 61 276 103 353 117 66 12
174 5 218 -13z"/>
</g>
</svg>
