<?xml version="1.0" standalone="no"?>
<!DOCTYPE svg PUBLIC "-//W3C//DTD SVG 20010904//EN"
 "http://www.w3.org/TR/2001/REC-SVG-20010904/DTD/svg10.dtd">
<svg version="1.0" xmlns="http://www.w3.org/2000/svg"
 width="2048.000000pt" height="2048.000000pt" viewBox="0 0 2048.000000 2048.000000"
 preserveAspectRatio="xMidYMid meet">
<metadata>
Created by potrace 1.13, written by Peter Selinger 2001-2015
</metadata>
<g transform="translate(0.000000,2048.000000) scale(0.192120,-0.192120)"
fill="#000000" stroke="none">
<path d="M7822 10301 c-57 -20 -123 -75 -149 -126 -9 -16 -81 -214 -160 -439
-160 -458 -165 -482 -119 -581 43 -93 153 -165 251 -165 85 0 187 58 234 133
10 17 85 221 166 452 143 409 147 422 142 487 -7 112 -86 212 -191 243 -65 20
-109 18 -174 -4z m88 -355 c0 -53 -7 -94 -26 -147 -14 -41 -38 -112 -54 -159
-80 -234 -113 -308 -150 -337 -33 -27 -40 -16 -40 65 0 71 6 96 76 292 94 269
120 327 153 345 14 8 29 14 34 15 4 0 7 -33 7 -74z M9678 10037 c-67 -32
-1101 -1058 -1128 -1119 -29 -68 -34 -128 -16 -191 45 -154 197 -237 352 -192
59 16 62 20 592 548 427 426 538 542 559 585 70 142 -6 326 -155 376 -66 23
-148 20 -204 -7z m91 -276 c11 -7 9 -16 -7 -52 -14 -32 -126 -149 -418 -440
-399 -396 -468 -459 -509 -459 -34 0 -46 19 -30 49 22 43 856 867 900 889 46
24 46 24 64 13z M3678 10025 c-186 -47 -372 -222 -428 -404 -24 -77 -27 -199
-6 -207 22 -9 117 23 147 49 15 12 51 60 81 107 103 160 186 216 318 214 81
-1 130 -18 207 -70 79 -55 410 -361 723 -669 342 -337 404 -393 509 -455 97
-57 130 -61 187 -21 l45 33 817 -814 c449 -448 866 -856 926 -907 294 -252
516 -380 660 -384 116 -2 160 -52 -713 814 -441 437 -820 820 -842 851 -72
104 -119 231 -119 327 l0 38 63 6 c83 7 108 21 216 126 119 116 177 146 281
146 60 0 86 -6 132 -27 62 -29 148 -89 218 -153 25 -23 59 -51 75 -64 33 -24
1769 -1754 1923 -1916 413 -433 659 -954 737 -1558 11 -90 15 -225 15 -570 0
-494 7 -582 56 -724 15 -42 44 -109 64 -148 21 -38 56 -114 79 -167 39 -92 41
-102 41 -199 0 -183 75 -96 -1044 -1215 -605 -606 -992 -985 -1026 -1007 -94
-61 -164 -78 -346 -86 -187 -8 -195 -11 -247 -98 -25 -43 -39 -57 -53 -55 -46
8 -179 74 -294 147 -142 89 -302 171 -405 208 -99 35 -205 54 -394 72 -617 58
-1178 302 -1665 724 -90 78 -1941 1911 -2872 2844 -328 329 -374 380 -406 442
-40 77 -68 163 -68 207 0 22 5 29 28 33 108 22 164 66 195 151 32 90 16 157
-47 204 l-34 25 26 30 c39 47 124 109 188 137 163 73 349 48 519 -69 34 -24
466 -445 985 -961 l925 -920 13 32 c8 17 36 70 63 117 27 48 49 93 49 100 0
13 -1029 1045 -2129 2134 -258 256 -453 458 -482 499 -50 70 -85 149 -98 223
l-8 42 41 7 c48 7 92 28 123 57 32 28 63 118 63 179 0 49 -2 54 -51 99 -43 41
-49 51 -40 68 22 40 129 124 209 164 77 38 92 42 178 45 80 4 106 1 177 -21
169 -53 87 23 1732 -1618 l920 -918 93 104 93 105 -1233 1228 c-679 675 -1305
1297 -1392 1382 -216 212 -278 299 -308 429 -11 47 -22 62 -81 117 -76 70
-216 145 -305 163 -119 24 -240 6 -341 -51 -31 -17 -94 -70 -141 -117 -173
-174 -218 -357 -140 -564 41 -109 108 -193 283 -355 90 -84 170 -158 176 -166
9 -10 4 -29 -21 -82 -26 -57 -33 -84 -36 -156 l-4 -87 -50 43 c-92 80 -257
145 -370 146 -69 0 -144 -18 -218 -54 -93 -44 -234 -185 -282 -283 -67 -133
-74 -263 -23 -398 50 -134 97 -188 435 -503 173 -162 336 -313 362 -337 l47
-42 -41 -80 c-32 -65 -41 -94 -46 -151 l-5 -70 -55 35 c-123 79 -260 113 -380
94 -110 -17 -203 -69 -302 -170 -127 -128 -180 -243 -180 -389 0 -139 71 -293
189 -411 98 -99 3121 -2906 3226 -2996 326 -279 702 -485 1093 -599 236 -68
421 -100 672 -116 96 -6 209 -18 250 -26 161 -33 320 -100 549 -232 147 -84
241 -125 370 -159 82 -22 118 -26 246 -26 136 -1 157 2 230 26 104 34 185 83
265 161 l65 63 65 -13 c101 -20 263 -17 354 6 165 42 103 -14 1229 1109 764
763 1041 1045 1077 1099 65 96 92 182 92 292 -1 132 -32 215 -176 473 -21 38
-48 101 -60 140 -19 69 -20 96 -21 582 -1 551 -6 628 -61 888 -98 462 -296
881 -598 1262 -49 62 -393 413 -910 930 -1259 1258 -1400 1395 -1473 1433
-142 74 -259 95 -377 68 -106 -25 -180 -70 -276 -166 -90 -90 -139 -168 -161
-255 -6 -27 -13 -52 -15 -54 -2 -2 -31 21 -64 52 -73 68 -161 118 -258 147
-60 18 -91 22 -170 18 -87 -3 -105 -7 -172 -40 -41 -20 -88 -48 -105 -61 l-30
-26 -625 623 c-669 667 -679 676 -828 725 -83 28 -191 35 -264 16z m-2033
-1486 c65 -12 201 -71 268 -118 25 -17 74 -71 113 -123 37 -51 93 -122 124
-158 64 -74 100 -124 100 -138 0 -5 -17 -7 -37 -5 -123 13 -259 14 -316 4 -35
-7 -111 -36 -173 -67 -62 -29 -122 -54 -135 -54 -36 0 -77 29 -166 116 -48 47
-91 100 -107 131 -23 46 -26 64 -26 156 l0 104 39 44 c45 51 121 96 183 108
61 12 67 12 133 0z m4329 -117 c56 -30 72 -45 82 -72 17 -47 18 -120 1 -120
-23 0 -207 197 -207 222 0 19 61 5 124 -30z m-4739 -1325 c101 -41 118 -57
218 -202 42 -61 145 -175 321 -354 244 -250 288 -302 272 -318 -3 -4 -55 -2
-114 5 -162 17 -259 0 -404 -68 -67 -32 -119 -37 -156 -17 -29 17 -446 402
-523 484 -89 96 -99 121 -99 253 l0 111 53 53 c75 75 135 97 252 93 76 -3 104
-9 180 -40z m-170 -1763 c28 -9 58 -24 69 -33 10 -9 56 -72 101 -141 46 -69
116 -161 157 -205 41 -44 522 -525 1069 -1070 2111 -2101 2117 -2107 2337
-2264 106 -75 317 -203 421 -255 49 -25 93 -51 97 -57 10 -16 -24 -40 -50 -34
-12 2 -49 7 -84 10 -74 6 -297 62 -426 106 -338 116 -666 319 -990 613 -313
285 -2982 2769 -3039 2828 -96 103 -117 149 -117 263 0 86 2 95 29 133 35 47
107 99 165 118 53 18 194 11 261 -12z m5520 -4319 c192 -56 395 -169 362 -202
-17 -16 -136 -10 -224 12 -171 44 -383 160 -383 211 0 15 9 16 78 11 42 -3
118 -18 167 -32z M2578 9646 c-121 -43 -236 -140 -318 -268 -54 -83 -80 -170
-80 -269 0 -74 -2 -82 -35 -128 -65 -90 -89 -156 -93 -258 -6 -122 -5 -123 55
-111 98 21 147 78 203 240 44 128 45 144 15 217 l-27 65 24 18 c47 37 145 78
211 88 115 18 241 -13 374 -91 42 -25 339 -315 1108 -1079 1405 -1399 1764
-1754 1775 -1758 5 -2 35 21 67 50 32 29 77 69 101 89 l42 36 -1311 1304
c-795 790 -1327 1327 -1351 1362 -50 74 -87 157 -95 213 -5 39 -14 53 -78 112
-80 74 -153 121 -247 160 -50 20 -84 26 -168 29 -92 3 -113 1 -172 -21z M9985
8183 c-41 -11 -746 -263 -774 -278 -16 -8 -47 -35 -70 -61 -119 -136 -76 -341
92 -431 23 -12 55 -18 112 -18 77 0 92 4 438 128 197 70 375 136 397 147 50
25 105 91 124 148 36 105 11 208 -69 289 -69 68 -164 97 -250 76z m-105 -339
c0 -8 -5 -12 -10 -9 -6 4 -8 11 -5 16 9 14 15 11 15 -7z m-30 -10 c0 -8 -5
-12 -10 -9 -6 4 -8 11 -5 16 9 14 15 11 15 -7z m-33 -16 c-3 -8 -6 -5 -6 6 -1
11 2 17 5 13 3 -3 4 -12 1 -19z m-30 -10 c-3 -8 -6 -5 -6 6 -1 11 2 17 5 13 3
-3 4 -12 1 -19z m-77 -24 c0 -8 -5 -12 -10 -9 -6 4 -8 11 -5 16 9 14 15 11 15
-7z m-30 -10 c0 -8 -5 -12 -10 -9 -6 4 -8 11 -5 16 9 14 15 11 15 -7z m-33
-16 c-3 -8 -6 -5 -6 6 -1 11 2 17 5 13 3 -3 4 -12 1 -19z m-30 -10 c-3 -8 -6
-5 -6 6 -1 11 2 17 5 13 3 -3 4 -12 1 -19z m-30 -10 c-3 -8 -6 -5 -6 6 -1 11
2 17 5 13 3 -3 4 -12 1 -19z m-30 -10 c-3 -8 -6 -5 -6 6 -1 11 2 17 5 13 3 -3
4 -12 1 -19z M1055 3201 c-104 -37 -278 -98 -385 -136 -186 -66 -197 -72 -246
-120 -136 -136 -100 -357 73 -441 102 -50 125 -46 553 105 206 73 390 142 407
153 186 114 168 391 -32 484 -88 42 -148 34 -370 -45z m75 -277 c0 -8 -5 -12
-10 -9 -6 4 -8 11 -5 16 9 14 15 11 15 -7z m-30 -10 c0 -8 -5 -12 -10 -9 -6 4
-8 11 -5 16 9 14 15 11 15 -7z m-33 -16 c-3 -8 -6 -5 -6 6 -1 11 2 17 5 13 3
-3 4 -12 1 -19z m-30 -10 c-3 -8 -6 -5 -6 6 -1 11 2 17 5 13 3 -3 4 -12 1 -19z
m-30 -10 c-3 -8 -6 -5 -6 6 -1 11 2 17 5 13 3 -3 4 -12 1 -19z m-30 -10 c-3
-8 -6 -5 -6 6 -1 11 2 17 5 13 3 -3 4 -12 1 -19z m-17 -4 c0 -8 -4 -12 -10 -9
-5 3 -10 10 -10 16 0 5 5 9 10 9 6 0 10 -7 10 -16z m-30 -10 c0 -8 -5 -12 -10
-9 -6 4 -8 11 -5 16 9 14 15 11 15 -7z m-33 -16 c-3 -8 -6 -5 -6 6 -1 11 2 17
5 13 3 -3 4 -12 1 -19z m-30 -10 c-3 -8 -6 -5 -6 6 -1 11 2 17 5 13 3 -3 4
-12 1 -19z m-30 -10 c-3 -8 -6 -5 -6 6 -1 11 2 17 5 13 3 -3 4 -12 1 -19z
m-30 -10 c-3 -8 -6 -5 -6 6 -1 11 2 17 5 13 3 -3 4 -12 1 -19z M1765 2125
c-22 -8 -42 -15 -45 -15 -2 0 -245 -240 -538 -532 -593 -591 -582 -578 -582
-702 0 -189 171 -314 356 -261 59 16 62 19 597 553 388 388 544 550 559 582
28 56 30 166 4 222 -22 51 -70 104 -123 135 -56 33 -166 42 -228 18z m80 -295
c4 -13 -1 -33 -14 -53 -30 -48 -841 -852 -879 -871 -45 -23 -76 -18 -80 13 -3
21 64 92 430 456 302 300 447 437 478 453 55 27 57 27 65 2z M2916 1650 c-52
-20 -118 -77 -141 -120 -7 -14 -79 -214 -160 -445 -137 -392 -147 -424 -143
-480 15 -242 313 -348 476 -171 45 48 46 52 217 540 110 315 125 366 125 423
0 71 -16 117 -59 172 -69 87 -211 124 -315 81z m104 -340 c0 -46 -12 -94 -49
-202 -126 -370 -152 -432 -193 -457 -31 -20 -40 2 -35 89 4 61 19 114 81 290
104 291 129 340 178 340 15 0 18 -9 18 -60z"/>
</g>
</svg>
