<?xml version="1.0" standalone="no"?>
<!DOCTYPE svg PUBLIC "-//W3C//DTD SVG 20010904//EN"
 "http://www.w3.org/TR/2001/REC-SVG-20010904/DTD/svg10.dtd">
<svg version="1.0" xmlns="http://www.w3.org/2000/svg"
 width="2048.000000pt" height="2048.000000pt" viewBox="0 0 2048.000000 2048.000000"
 preserveAspectRatio="xMidYMid meet">
<metadata>
Created by potrace 1.13, written by Peter Selinger 2001-2015
</metadata>
<g transform="translate(0.000000,2048.000000) scale(0.192120,-0.192120)"
fill="#000000" stroke="none">
<path d="M4540 10309 c-733 -64 -1406 -346 -1951 -817 -567 -489 -946 -1142
-1088 -1872 -51 -260 -53 -304 -58 -1052 -5 -785 -2 -837 58 -1021 85 -261
272 -445 515 -507 106 -27 240 -27 322 1 79 27 169 93 209 153 l32 47 5 -48
c22 -175 81 -326 170 -435 183 -225 529 -346 771 -271 126 40 263 142 326 243
13 22 26 40 29 40 3 0 18 -39 32 -88 42 -133 108 -241 213 -347 198 -198 462
-290 691 -241 155 34 322 133 451 269 l63 65 2 -1762 3 -1761 22 -78 c36 -127
96 -231 182 -317 137 -136 257 -180 494 -180 236 0 346 39 478 170 86 85 143
187 182 325 l22 80 5 2960 c5 2730 6 2962 22 2990 60 109 173 110 230 3 23
-43 23 -44 29 -603 6 -590 9 -622 61 -865 96 -449 333 -907 627 -1213 150
-156 282 -236 456 -278 77 -18 110 -20 225 -16 278 10 465 99 539 257 24 50
26 66 26 180 -1 150 -14 204 -117 455 -195 477 -321 867 -457 1410 -105 420
-178 781 -241 1187 -57 371 -105 562 -205 818 -127 323 -270 574 -491 860
-110 143 -382 417 -529 534 -432 345 -955 584 -1485 680 -253 46 -636 66 -870
45z m710 -203 c358 -52 700 -156 990 -301 308 -154 571 -340 804 -565 383
-372 648 -797 806 -1295 53 -166 81 -302 139 -655 65 -395 140 -757 240 -1155
87 -346 89 -355 179 -645 85 -271 141 -425 270 -745 l77 -190 3 -175 3 -175
-31 -38 c-39 -46 -84 -70 -187 -98 -100 -28 -283 -30 -388 -5 -217 52 -414
224 -618 537 -200 309 -303 577 -374 974 -26 146 -27 165 -33 675 -4 289 -12
543 -17 565 -16 66 -58 138 -108 184 -101 93 -178 95 -289 8 -44 -35 -104
-123 -120 -176 -7 -25 -12 -919 -16 -2951 l-5 -2915 -23 -75 c-44 -138 -53
-158 -102 -223 -57 -75 -119 -120 -210 -148 -89 -29 -315 -32 -405 -5 -181 54
-290 169 -343 363 l-26 98 -6 1655 c-4 1218 -8 1663 -17 1687 -23 65 -64 129
-98 152 -48 33 -95 25 -187 -32 -179 -109 -206 -125 -258 -145 -170 -67 -343
-53 -523 40 -111 58 -210 158 -299 303 -91 149 -150 205 -218 205 -39 0 -71
-16 -191 -96 -128 -86 -188 -107 -309 -107 -219 -2 -420 102 -537 278 -29 44
-53 83 -53 87 0 27 -97 209 -127 240 -66 67 -113 68 -243 3 -132 -66 -256 -75
-397 -31 -176 57 -307 191 -373 382 -20 61 -21 70 -18 1005 3 944 3 944 26
1039 47 193 65 258 103 368 261 759 828 1398 1574 1773 201 101 332 153 534
213 226 68 440 108 681 130 106 9 619 -3 720 -18z"/>
</g>
</svg>
