<?xml version="1.0" standalone="no"?>
<!DOCTYPE svg PUBLIC "-//W3C//DTD SVG 20010904//EN"
 "http://www.w3.org/TR/2001/REC-SVG-20010904/DTD/svg10.dtd">
<svg version="1.0" xmlns="http://www.w3.org/2000/svg"
 width="2048.000000pt" height="2048.000000pt" viewBox="0 0 2048.000000 2048.000000"
 preserveAspectRatio="xMidYMid meet">
<metadata>
Created by potrace 1.13, written by Peter Selinger 2001-2015
</metadata>
<g transform="translate(0.000000,2048.000000) scale(0.192120,-0.192120)"
fill="#000000" stroke="none">
<path d="M4214 9211 c-199 -52 -323 -281 -324 -597 0 -247 85 -438 281 -631
311 -305 763 -542 1226 -643 232 -50 260 -52 853 -59 l565 -6 48 -24 c110 -54
116 -163 13 -223 l-41 -23 -2955 -5 -2955 -5 -85 -23 c-254 -68 -424 -225
-486 -452 -25 -90 -25 -318 -1 -410 31 -117 83 -208 166 -291 88 -88 150 -125
281 -171 l95 -33 1772 -3 1772 -2 -83 -83 c-122 -121 -192 -232 -238 -377 -19
-61 -23 -96 -22 -190 0 -103 4 -125 33 -212 81 -236 238 -412 464 -518 46 -22
108 -45 136 -52 28 -6 51 -14 51 -17 0 -3 -23 -21 -51 -40 -104 -71 -199 -202
-235 -326 -27 -92 -23 -237 10 -348 97 -327 333 -536 655 -578 l89 -12 -49
-37 c-134 -101 -197 -263 -169 -437 24 -152 76 -258 174 -361 105 -110 234
-183 424 -242 196 -59 205 -60 901 -60 651 0 780 5 1005 41 1361 217 2462
1294 2731 2669 48 248 59 367 59 655 0 289 -12 415 -60 655 -200 1003 -859
1866 -1771 2324 -334 167 -672 271 -1058 326 -211 30 -597 101 -842 155 -660
146 -1204 309 -1706 511 -331 134 -402 155 -537 160 -58 2 -119 0 -136 -5z
m321 -246 c49 -14 156 -53 239 -86 394 -158 727 -271 1118 -378 445 -122 948
-231 1353 -296 578 -92 786 -149 1139 -316 319 -152 577 -332 835 -583 463
-454 739 -958 870 -1590 20 -93 21 -133 21 -627 0 -570 0 -571 -61 -814 -135
-535 -432 -1051 -833 -1450 -480 -478 -1054 -767 -1741 -876 -133 -22 -174
-23 -845 -27 -497 -2 -728 0 -784 8 -120 17 -240 55 -353 111 -119 59 -193
124 -241 215 -31 61 -32 64 -32 195 l0 132 46 89 c57 111 65 167 34 228 -39
77 -103 125 -257 193 -157 69 -222 121 -298 237 -71 109 -77 135 -73 311 l3
154 72 105 c81 119 123 201 123 244 0 81 -92 182 -255 281 -124 75 -216 165
-275 270 l-45 80 -3 176 -4 176 33 64 c17 35 42 78 54 94 35 46 109 175 128
223 23 58 21 86 -9 138 -32 54 -73 90 -144 123 l-55 26 -1665 6 c-1171 4
-1678 9 -1710 17 -74 18 -161 51 -205 76 -60 36 -126 106 -157 168 -28 55 -28
57 -28 255 l0 199 28 45 c56 87 168 158 307 195 67 18 194 19 2995 24 l2925 5
58 23 c96 39 160 102 212 208 44 90 46 147 8 225 -34 67 -123 158 -185 187
-78 36 -156 42 -578 42 -535 0 -707 16 -989 91 -565 150 -1109 523 -1214 833
-13 39 -17 87 -17 229 0 106 5 195 11 218 22 71 85 129 164 150 50 14 187 1
280 -26z"/>
</g>
</svg>
