<?xml version="1.0" standalone="no"?>
<!DOCTYPE svg PUBLIC "-//W3C//DTD SVG 20010904//EN"
 "http://www.w3.org/TR/2001/REC-SVG-20010904/DTD/svg10.dtd">
<svg version="1.0" xmlns="http://www.w3.org/2000/svg"
 width="2048.000000pt" height="2048.000000pt" viewBox="0 0 2048.000000 2048.000000"
 preserveAspectRatio="xMidYMid meet">
<metadata>
Created by potrace 1.13, written by Peter Selinger 2001-2015
</metadata>
<g transform="translate(0.000000,2048.000000) scale(0.192120,-0.192120)"
fill="#000000" stroke="none">
<path d="M373 8349 c-37 -19 -47 -60 -40 -167 21 -344 198 -728 523 -1137 104
-131 448 -478 589 -594 220 -183 467 -358 716 -509 l112 -69 -2 -804 c-1 -442
3 -886 8 -986 25 -460 118 -818 316 -1218 154 -311 334 -564 575 -805 490
-490 1113 -791 1811 -876 161 -20 507 -22 659 -5 591 67 1110 275 1565 628
533 414 921 1008 1086 1663 89 353 100 534 98 1599 l-2 803 114 70 c250 152
514 341 724 516 135 113 479 462 579 587 321 403 501 794 523 1132 14 226 -14
230 -625 87 -1022 -238 -1932 -352 -3312 -416 -359 -16 -1719 -16 -2105 0
-998 43 -1741 116 -2500 247 -269 46 -424 78 -850 175 -371 85 -512 105 -562
79z m610 -393 c404 -91 630 -136 915 -181 119 -19 231 -37 249 -40 52 -9 51
-36 -2 -111 -25 -37 -49 -79 -52 -95 -3 -16 -12 -34 -19 -40 -12 -9 -14 -104
-14 -546 0 -524 0 -534 -19 -528 -17 5 -20 0 -23 -30 l-3 -36 -109 74 c-350
240 -716 586 -939 885 -166 224 -309 503 -333 651 -6 39 -1 71 11 71 3 0 155
-33 338 -74z m9027 14 c0 -50 -43 -185 -87 -275 -47 -95 -178 -306 -248 -400
-231 -308 -584 -639 -954 -894 -41 -28 -81 -51 -88 -51 -8 0 -13 12 -13 30 0
20 -5 30 -15 30 -13 0 -15 66 -15 534 0 346 -4 537 -10 541 -5 3 -10 17 -10
31 0 13 -4 24 -10 24 -5 0 -10 6 -10 13 0 6 -18 39 -40 72 -41 61 -45 72 -32
92 4 6 133 32 286 58 302 50 626 115 996 199 129 29 238 51 243 49 4 -2 7 -26
7 -53z m-7579 -444 c430 -79 1079 -158 1634 -201 1132 -85 2218 -58 3385 85
277 34 653 90 810 120 58 11 111 20 118 20 11 0 13 -140 10 -809 -2 -445 -6
-812 -9 -815 -3 -4 -29 -12 -56 -19 -62 -16 -111 -53 -119 -89 -4 -16 -10 -28
-15 -28 -5 0 -9 -379 -9 -867 0 -695 -3 -894 -15 -998 -73 -652 -326 -1202
-769 -1672 -143 -152 -262 -243 -531 -407 -678 -416 -1493 -541 -2255 -346
-311 79 -614 213 -902 397 -164 105 -250 176 -408 337 -463 471 -732 1054
-800 1735 -6 62 -10 447 -10 967 0 569 -3 864 -10 864 -5 0 -10 5 -10 12 0 6
-18 29 -40 49 -29 27 -53 40 -84 44 -23 4 -49 11 -57 16 -21 13 -28 1629 -6
1629 7 0 74 -11 148 -24z M5271 6989 c-99 -20 -190 -110 -211 -212 -7 -36 -9
-741 -8 -2312 3 -2524 -4 -2288 75 -2375 108 -121 298 -121 406 0 79 87 72
-154 72 2405 l0 2290 -21 46 c-55 118 -184 184 -313 158z m132 -213 c16 -13
17 -133 17 -2278 l0 -2264 -20 -22 c-25 -27 -95 -30 -140 -7 l-30 16 0 2269 0
2269 22 15 c28 20 126 21 151 2z"/>
</g>
</svg>
