<?xml version="1.0" standalone="no"?>
<!DOCTYPE svg PUBLIC "-//W3C//DTD SVG 20010904//EN"
 "http://www.w3.org/TR/2001/REC-SVG-20010904/DTD/svg10.dtd">
<svg version="1.0" xmlns="http://www.w3.org/2000/svg"
 width="2048.000000pt" height="2048.000000pt" viewBox="0 0 2048.000000 2048.000000"
 preserveAspectRatio="xMidYMid meet">
<metadata>
Created by potrace 1.13, written by Peter Selinger 2001-2015
</metadata>
<g transform="translate(0.000000,2048.000000) scale(0.192120,-0.192120)"
fill="#000000" stroke="none">
<path d="M3215 10319 c-180 -18 -319 -56 -449 -121 -94 -46 -105 -53 -269
-181 -221 -172 -331 -221 -570 -258 -292 -44 -413 -94 -548 -229 -66 -65 -94
-103 -122 -161 -45 -92 -82 -230 -96 -362 -7 -65 -11 -646 -11 -1774 0 -1803
-1 -1765 51 -1923 69 -213 213 -358 467 -469 38 -17 170 -67 293 -112 715
-258 944 -489 1236 -1244 160 -413 269 -820 327 -1215 38 -259 48 -428 56
-955 8 -575 11 -604 67 -707 81 -149 262 -215 568 -206 166 5 243 24 376 94
416 219 739 863 739 1474 0 156 -22 330 -91 715 -21 121 -55 312 -74 424 -72
414 -56 548 69 610 48 24 53 24 460 32 1447 28 1901 47 2371 99 994 111 1545
371 1794 849 42 82 94 208 136 336 80 242 47 515 -92 755 -21 35 -75 104 -121
152 l-84 87 57 68 c69 83 148 240 176 348 29 116 35 259 15 375 -20 112 -80
269 -139 360 -55 85 -186 216 -264 264 -38 23 -60 43 -56 50 4 6 21 31 39 56
66 93 114 216 135 344 16 104 7 290 -20 383 -64 222 -199 411 -377 528 -32 21
-61 40 -63 41 -2 2 15 30 37 64 54 81 86 149 118 256 24 77 27 107 28 229 1
158 -13 233 -72 372 -106 256 -316 442 -599 530 l-88 28 -2665 1 c-1466 1
-2701 -2 -2745 -7z m3294 -95 c-98 -52 -221 -156 -289 -242 -138 -177 -200
-355 -200 -577 0 -219 57 -386 193 -563 l40 -53 -24 -16 c-48 -34 -152 -140
-195 -199 -58 -81 -119 -211 -145 -309 -29 -110 -32 -316 -6 -429 35 -149 110
-296 209 -408 l41 -48 -80 -83 c-179 -186 -263 -411 -250 -667 7 -125 27 -215
74 -326 33 -80 114 -202 167 -253 l35 -34 -68 -67 c-359 -356 -358 -934 4
-1295 143 -142 303 -225 502 -260 126 -22 1800 -22 1862 0 167 58 219 267 98
393 -18 19 -50 43 -72 55 -40 22 -41 22 -946 27 l-905 5 -75 37 c-94 46 -168
122 -212 215 -43 93 -50 219 -17 317 41 125 138 225 270 279 l55 22 1279 3
c834 1 1298 -1 1334 -8 114 -21 224 -90 283 -178 46 -68 79 -101 121 -123 93
-48 204 -30 282 46 l46 44 0 -32 c0 -18 -9 -64 -20 -102 -12 -39 -36 -129 -55
-201 -33 -129 -95 -296 -154 -412 -38 -76 -130 -192 -208 -262 -224 -203 -766
-377 -1383 -444 -487 -54 -805 -68 -1970 -91 -410 -9 -774 -20 -810 -25 -36
-6 -89 -23 -119 -37 -72 -35 -188 -151 -229 -229 l-32 -62 0 -213 c0 -192 4
-231 30 -384 17 -93 50 -289 75 -435 l45 -265 0 -345 c0 -311 -2 -353 -20
-430 -61 -256 -189 -513 -339 -681 -102 -114 -254 -206 -390 -235 -86 -18
-268 -18 -355 1 -119 25 -153 56 -187 170 -20 66 -22 101 -29 585 -8 542 -16
654 -66 965 -67 421 -182 827 -350 1245 -197 488 -356 727 -625 936 -194 151
-349 231 -704 364 -121 45 -251 98 -290 117 -142 71 -243 158 -302 263 -68
119 -63 -27 -63 1979 0 1779 0 1817 20 1885 40 142 130 255 250 315 79 39 125
52 352 96 227 44 368 110 585 271 219 162 337 220 540 262 68 14 224 16 1251
19 1020 3 1172 6 1172 18 0 13 42 15 288 15 l289 0 129 36 c149 41 280 72 309
73 11 0 -10 -15 -46 -35z m311 -184 c14 -5 18 -8 9 -9 -9 -1 -22 -8 -29 -16
-7 -8 -16 -12 -21 -9 -5 3 -9 0 -9 -5 0 -6 -6 -11 -12 -11 -20 0 -149 -87
-196 -133 -58 -56 -122 -148 -158 -227 -28 -63 -29 -70 -29 -225 0 -156 1
-162 30 -225 91 -202 232 -335 411 -387 54 -15 152 -17 1059 -23 977 -5 1001
-6 1061 -26 84 -29 141 -71 265 -194 106 -105 132 -147 109 -175 -18 -22 -54
-2 -146 83 -107 98 -183 144 -287 173 l-82 24 -1010 0 c-1116 0 -1081 2 -1222
-64 -135 -64 -222 -149 -291 -286 -47 -94 -52 -119 -52 -274 1 -139 2 -149 30
-215 65 -152 181 -284 303 -344 137 -68 76 -64 1412 -71 1339 -7 1254 -3 1358
-72 66 -44 239 -210 261 -252 13 -22 17 -43 12 -61 l-6 -26 -38 19 c-20 11
-50 33 -67 51 -92 97 -206 170 -320 206 -57 18 -114 19 -1280 19 l-1220 0 -70
-23 c-118 -40 -184 -81 -270 -167 -56 -55 -90 -100 -111 -145 -55 -113 -56
-117 -52 -291 3 -162 4 -165 36 -232 91 -188 212 -302 382 -359 l65 -23 1295
-5 c1287 -6 1296 -6 1372 -27 107 -30 154 -57 221 -126 97 -98 147 -173 147
-218 0 -21 -5 -39 -10 -39 -24 0 -77 36 -141 96 -90 84 -177 140 -264 167
l-70 22 -1305 0 -1305 0 -78 -29 c-96 -35 -177 -87 -244 -157 -62 -64 -71 -76
-110 -149 -48 -92 -55 -132 -51 -296 4 -144 5 -152 36 -218 99 -208 242 -331
442 -378 29 -7 349 -13 893 -17 738 -5 849 -8 857 -21 22 -34 1 -63 -58 -80
-48 -13 -1562 -13 -1689 0 -247 26 -447 142 -568 329 -88 137 -89 138 -93 391
-4 267 -1 279 108 443 157 237 166 282 85 437 -27 52 -67 131 -90 175 l-40 80
0 250 0 250 28 54 c16 29 58 96 94 149 85 126 113 189 113 262 0 50 -7 71 -56
166 -132 253 -126 230 -122 505 l3 224 34 68 c19 37 64 105 101 150 168 208
190 286 124 432 -20 44 -52 116 -70 160 l-34 80 0 232 c0 257 2 268 68 373 46
72 144 168 209 203 99 53 267 81 343 57z m2027 -86 c34 -19 89 -60 123 -92 52
-50 60 -62 60 -95 0 -66 -41 -48 -168 74 -86 84 -187 161 -196 152 -3 -4 -6 1
-6 9 0 15 6 15 62 2 35 -8 91 -30 125 -50z m-250 -132 c94 -30 167 -83 228
-167 56 -77 98 -114 148 -131 95 -32 207 0 273 78 l27 33 -5 -55 c-4 -30 -15
-82 -26 -115 -11 -33 -39 -139 -62 -235 -46 -192 -48 -237 -10 -325 19 -43 19
-47 3 -40 -84 34 -182 66 -246 79 -66 14 -200 16 -1034 16 -602 0 -981 4
-1021 10 -85 14 -164 53 -231 116 -248 229 -151 637 174 740 31 10 231 13 882
13 787 1 845 0 900 -17z m256 -1357 c32 -8 76 -24 99 -36 54 -27 139 -109 178
-169 89 -139 265 -156 382 -39 l51 51 -8 -49 c-4 -26 -18 -86 -32 -133 -14
-47 -29 -101 -33 -120 -4 -19 -12 -53 -18 -75 -34 -127 -42 -168 -42 -226 1
-35 9 -88 19 -116 10 -29 15 -53 12 -53 -3 0 -42 14 -85 31 -171 66 -87 62
-1456 68 l-1245 6 -67 32 c-114 54 -195 143 -238 260 -19 53 -22 77 -18 160 3
85 8 107 36 166 38 82 124 171 198 207 103 49 84 48 1179 49 885 1 1039 -1
1088 -14z m368 -1397 c78 -39 144 -99 205 -189 85 -124 279 -132 382 -15 l32
37 0 -33 c0 -19 -9 -65 -20 -103 -12 -39 -27 -97 -36 -130 -27 -110 -36 -139
-78 -260 -36 -105 -41 -130 -40 -200 1 -44 7 -93 13 -109 l12 -29 -27 18
c-125 81 -243 132 -377 159 -67 14 -227 16 -1336 16 -902 0 -1275 3 -1313 11
-229 49 -384 270 -348 496 27 166 138 297 297 352 57 20 78 20 1309 18 l1250
-2 75 -37z"/>
</g>
</svg>
