<?xml version="1.0" standalone="no"?>
<!DOCTYPE svg PUBLIC "-//W3C//DTD SVG 20010904//EN"
 "http://www.w3.org/TR/2001/REC-SVG-20010904/DTD/svg10.dtd">
<svg version="1.0" xmlns="http://www.w3.org/2000/svg"
 width="2048.000000pt" height="2048.000000pt" viewBox="0 0 2048.000000 2048.000000"
 preserveAspectRatio="xMidYMid meet">
<metadata>
Created by potrace 1.13, written by Peter Selinger 2001-2015
</metadata>
<g transform="translate(0.000000,2048.000000) scale(0.192120,-0.192120)"
fill="#000000" stroke="none">
<path d="M4344 8645 c-228 -61 -373 -166 -867 -624 -460 -426 -738 -666 -1062
-917 -428 -331 -692 -492 -1320 -804 -223 -111 -424 -217 -486 -259 -155 -102
-232 -195 -263 -316 -31 -115 -16 -217 53 -362 151 -317 510 -709 1446 -1583
215 -201 496 -466 625 -591 279 -270 338 -322 491 -439 547 -418 1150 -650
1904 -732 161 -17 769 -17 930 0 743 80 1349 311 1887 719 153 115 241 194
493 437 127 122 408 388 625 591 1061 991 1432 1417 1515 1740 27 108 12 232
-40 321 -83 141 -212 228 -709 474 -639 318 -897 476 -1346 824 -309 240 -557
454 -1025 886 -477 440 -616 545 -816 616 -61 22 -97 27 -204 31 -234 9 -380
-31 -563 -155 -143 -96 -186 -114 -282 -114 -96 0 -141 18 -280 113 -116 79
-219 123 -335 144 -107 18 -302 19 -371 0z m421 -285 c39 -12 130 -56 204 -98
184 -104 243 -125 356 -126 112 -1 183 22 316 100 209 122 309 154 486 154
123 0 205 -19 311 -72 142 -72 246 -156 672 -548 882 -811 1417 -1215 2025
-1530 88 -45 195 -103 238 -127 106 -61 103 -73 -15 -74 -84 0 -366 39 -548
76 -185 38 -398 96 -640 174 -1058 342 -1736 493 -2439 542 -216 15 -806 6
-1001 -15 -677 -75 -1242 -208 -2282 -540 -358 -114 -584 -167 -889 -210 -193
-27 -209 -29 -291 -27 -106 2 -70 34 177 159 651 329 1185 729 2095 1568 490
451 631 556 820 609 83 23 312 15 405 -15z m1125 -1785 c662 -67 1293 -216
2307 -545 411 -134 740 -198 1298 -255 368 -38 458 -55 517 -97 77 -54 17 -63
-422 -63 -357 1 -379 2 -1370 70 -1431 98 -2041 125 -2886 125 -855 0 -1463
-27 -2964 -130 -912 -62 -947 -64 -1300 -65 -439 0 -499 9 -422 63 59 42 149
59 522 97 599 61 864 116 1419 294 964 310 1635 462 2246 510 77 6 160 13 185
15 111 9 725 -4 870 -19z m-5284 -948 c-13 -53 68 -125 276 -249 593 -350
1737 -756 2720 -962 1141 -240 2072 -256 3178 -55 946 172 2005 513 2750 885
374 187 542 309 524 381 -7 27 3 29 51 9 84 -35 46 -170 -99 -356 -216 -277
-790 -864 -1081 -1108 -191 -159 -403 -354 -815 -751 -295 -284 -393 -372
-545 -486 -508 -382 -1078 -597 -1782 -671 -194 -21 -668 -24 -858 -6 -717 69
-1297 281 -1820 667 -157 116 -241 190 -575 510 -342 327 -580 549 -700 654
-254 221 -531 494 -906 891 -205 217 -327 367 -374 461 -63 123 -47 200 41
206 17 2 20 -2 15 -20z m5819 -136 c449 -20 846 -43 1275 -71 239 -17 622 -42
850 -56 415 -27 490 -35 490 -56 0 -13 -39 -48 -53 -48 -6 0 -18 -6 -26 -14
-29 -24 -391 -163 -666 -255 -951 -318 -1844 -493 -2710 -531 -939 -42 -2118
156 -3281 551 -253 86 -578 212 -605 235 -8 8 -20 14 -26 14 -14 0 -53 35 -53
48 0 21 75 29 490 56 228 14 613 39 855 56 664 44 899 56 1705 84 194 7 1533
-3 1755 -13z"/>
</g>
</svg>
