<?xml version="1.0" standalone="no"?>
<!DOCTYPE svg PUBLIC "-//W3C//DTD SVG 20010904//EN"
 "http://www.w3.org/TR/2001/REC-SVG-20010904/DTD/svg10.dtd">
<svg version="1.0" xmlns="http://www.w3.org/2000/svg"
 width="2048.000000pt" height="2048.000000pt" viewBox="0 0 2048.000000 2048.000000"
 preserveAspectRatio="xMidYMid meet">
<metadata>
Created by potrace 1.13, written by Peter Selinger 2001-2015
</metadata>
<g transform="translate(0.000000,2048.000000) scale(0.192120,-0.192120)"
fill="#000000" stroke="none">
<path d="M4980 10160 c-648 -46 -1340 -224 -1821 -469 -788 -399 -1205 -984
-1325 -1856 -26 -182 -26 -695 -1 -910 66 -562 180 -1053 417 -1795 169 -529
239 -817 314 -1290 60 -381 88 -661 136 -1345 55 -782 93 -1065 181 -1335 169
-520 503 -767 1109 -820 219 -19 625 -8 915 26 648 74 1125 279 1504 648 409
399 671 937 847 1736 74 339 136 531 249 780 110 240 198 387 525 885 141 215
290 446 332 515 339 563 514 1045 600 1659 30 210 32 677 5 871 -131 917 -619
1640 -1441 2135 -489 294 -1070 479 -1726 550 -172 19 -643 27 -820 15z m835
-165 c490 -56 937 -179 1370 -377 210 -96 241 -112 350 -181 150 -95 236 -160
395 -298 451 -391 740 -878 877 -1479 26 -114 27 -121 30 -583 4 -466 4 -468
-22 -622 -52 -307 -154 -647 -274 -915 -140 -309 -267 -528 -591 -1020 -452
-685 -598 -964 -723 -1385 -70 -235 -84 -285 -152 -535 -177 -654 -358 -1023
-675 -1377 -173 -194 -356 -331 -595 -448 -358 -173 -730 -251 -1318 -275
-557 -23 -895 37 -1135 202 -131 90 -261 272 -327 456 -98 278 -138 551 -195
1362 -28 397 -54 711 -65 805 -3 22 -14 117 -25 210 -42 353 -124 789 -206
1105 -38 148 -71 256 -174 580 -155 485 -268 924 -334 1300 -54 311 -56 339
-56 854 0 437 2 493 20 592 39 218 87 375 169 549 109 232 233 411 406 586
384 390 928 646 1725 813 238 50 393 71 740 100 110 9 653 -4 785 -19z M5120
9574 c-25 -2 -108 -9 -185 -15 -445 -35 -857 -139 -1163 -293 -428 -217 -769
-576 -971 -1023 -182 -403 -264 -831 -265 -1378 0 -347 23 -595 85 -920 36
-188 56 -241 114 -294 59 -55 107 -74 185 -74 195 -2 316 166 266 370 -10 38
-27 129 -40 203 -20 122 -21 136 -7 142 9 4 86 21 171 37 488 93 861 56 1118
-111 178 -117 302 -303 349 -528 24 -115 23 -332 -1 -460 -59 -309 -215 -586
-424 -751 -102 -81 -178 -121 -322 -169 -154 -51 -265 -102 -372 -173 -178
-116 -303 -248 -377 -399 -62 -125 -76 -191 -75 -343 1 -111 5 -143 27 -218
31 -99 73 -189 112 -235 43 -51 127 -86 204 -85 78 0 125 19 183 71 93 84 113
203 57 340 -57 140 -42 218 63 318 92 88 187 140 374 205 64 22 155 59 203 83
498 251 835 764 912 1390 17 138 6 401 -21 531 -115 541 -483 929 -1021 1075
-153 41 -241 52 -464 57 -245 6 -392 -7 -618 -53 -70 -15 -129 -25 -131 -23
-2 2 0 85 5 184 33 651 207 1114 543 1451 311 310 689 458 1324 519 179 17
555 20 722 5 829 -74 1497 -411 1844 -930 226 -336 317 -700 303 -1205 -9
-333 -44 -555 -123 -795 -91 -274 -208 -468 -542 -896 -258 -331 -372 -489
-414 -571 -28 -57 -30 -70 -26 -130 6 -80 30 -133 85 -184 62 -60 98 -74 188
-74 70 0 87 4 134 30 56 31 64 41 200 232 40 56 164 220 277 365 363 465 497
687 608 1008 117 336 166 660 166 1103 1 481 -67 798 -250 1172 -387 793
-1228 1301 -2350 1420 -139 15 -566 27 -660 19z m655 -230 c444 -48 783 -138
1140 -302 191 -87 390 -211 550 -342 80 -65 240 -228 304 -310 174 -219 305
-494 376 -790 l25 -105 0 -560 0 -560 -29 -140 c-49 -238 -139 -482 -247 -675
-74 -130 -201 -314 -371 -534 -85 -111 -212 -275 -281 -366 -155 -205 -200
-243 -267 -226 -48 12 -68 43 -63 96 6 57 58 132 352 510 105 135 221 288 257
340 242 347 392 735 438 1135 6 50 11 244 11 433 0 384 -7 455 -65 665 -43
158 -70 227 -151 387 -227 449 -636 794 -1189 1003 -239 90 -452 143 -735 182
-156 22 -636 31 -823 16 -356 -30 -638 -88 -857 -176 -282 -114 -468 -239
-661 -442 -122 -130 -199 -239 -288 -413 -92 -179 -137 -299 -187 -493 -57
-225 -74 -363 -74 -594 l0 -202 30 -48 c40 -62 94 -120 134 -140 43 -22 113
-21 311 6 211 29 494 32 655 7 505 -77 876 -346 1023 -741 46 -124 47 -136 47
-508 0 -328 -2 -365 -20 -438 -24 -93 -51 -168 -91 -257 -16 -35 -29 -65 -29
-68 0 -2 -21 -39 -47 -82 -147 -243 -319 -417 -526 -531 -40 -22 -149 -71
-243 -108 -231 -93 -310 -139 -414 -243 -64 -64 -94 -104 -122 -161 l-38 -76
0 -205 c0 -229 4 -218 -73 -218 -35 0 -46 6 -83 46 -58 62 -67 106 -62 319 3
167 4 171 33 225 43 77 184 217 287 285 102 65 180 102 333 157 219 79 350
161 493 313 169 178 309 445 373 710 16 68 19 118 19 336 0 244 -1 261 -25
342 -32 111 -93 243 -149 320 -62 88 -209 226 -293 276 -217 129 -450 180
-763 168 -186 -8 -336 -29 -447 -62 -96 -30 -184 -95 -233 -173 l-30 -47 0
-235 c0 -170 -3 -239 -12 -248 -7 -7 -33 -12 -60 -12 -39 0 -52 5 -73 28 -41
43 -78 184 -110 416 -12 86 -15 219 -15 616 0 465 2 517 20 626 50 289 112
494 214 709 106 221 216 374 394 546 361 350 808 533 1487 609 282 32 671 34
940 4z"/>
</g>
</svg>
