<?xml version="1.0" standalone="no"?>
<!DOCTYPE svg PUBLIC "-//W3C//DTD SVG 20010904//EN"
 "http://www.w3.org/TR/2001/REC-SVG-20010904/DTD/svg10.dtd">
<svg version="1.0" xmlns="http://www.w3.org/2000/svg"
 width="2048.000000pt" height="2048.000000pt" viewBox="0 0 2048.000000 2048.000000"
 preserveAspectRatio="xMidYMid meet">
<metadata>
Created by potrace 1.13, written by Peter Selinger 2001-2015
</metadata>
<g transform="translate(0.000000,2048.000000) scale(0.192120,-0.192120)"
fill="#000000" stroke="none">
<path d="M3928 10320 c-210 -38 -363 -150 -452 -331 -90 -183 -80 164 -86
-3179 l-5 -2965 -24 -48 c-44 -89 -129 -112 -192 -51 -57 55 -58 61 -62 634
-5 552 -9 616 -58 855 -127 612 -533 1265 -901 1447 -141 69 -203 83 -383 83
-179 0 -247 -13 -372 -70 -181 -83 -257 -237 -224 -455 14 -90 73 -264 170
-499 240 -582 499 -1546 620 -2306 11 -71 32 -202 46 -290 76 -477 247 -918
508 -1313 494 -747 1255 -1259 2132 -1437 225 -46 362 -58 640 -59 337 -1 550
24 845 99 1036 263 1887 996 2289 1973 92 224 152 433 195 678 43 246 48 367
44 1134 -4 691 -5 717 -25 790 -90 320 -240 496 -498 587 -72 25 -93 28 -210
28 -125 0 -133 -1 -196 -31 -71 -34 -136 -87 -179 -146 l-27 -37 -6 72 c-19
217 -151 439 -335 561 -154 102 -363 159 -507 137 -175 -26 -318 -112 -411
-246 -21 -31 -41 -52 -44 -48 -4 5 -13 31 -19 58 -32 133 -168 342 -280 430
-169 133 -364 203 -536 192 -196 -11 -416 -126 -565 -295 l-50 -57 0 1750 c0
1892 2 1808 -53 1945 -64 158 -167 275 -300 339 -45 23 -109 48 -142 57 -69
18 -278 27 -347 14z m222 -290 c199 -26 291 -96 348 -264 l27 -81 5 -1660 5
-1660 23 -67 c27 -80 93 -173 162 -227 84 -66 133 -57 303 53 175 112 265 146
390 146 145 0 288 -55 394 -154 32 -29 93 -106 136 -169 89 -132 178 -226 243
-258 41 -19 50 -20 87 -9 23 6 96 47 162 89 145 94 187 112 285 118 173 12
380 -82 469 -211 17 -25 48 -82 68 -128 48 -109 89 -172 150 -235 64 -65 109
-93 152 -93 20 0 79 21 144 51 141 65 207 77 312 56 154 -32 259 -107 320
-229 l35 -71 0 -949 c0 -923 -1 -952 -21 -1051 -55 -271 -151 -544 -271 -775
-68 -133 -223 -369 -321 -493 -459 -576 -1139 -975 -1892 -1109 -209 -37 -315
-45 -580 -44 -279 0 -397 11 -635 60 -1077 221 -1958 996 -2288 2014 -66 200
-89 305 -147 655 -99 604 -211 1103 -370 1650 -95 330 -156 505 -290 845 -120
303 -125 320 -125 450 0 92 3 109 19 124 52 47 230 83 365 73 253 -18 453
-164 663 -484 172 -261 277 -535 342 -888 34 -182 41 -319 41 -767 0 -410 5
-488 31 -540 5 -10 9 -24 9 -32 0 -27 98 -162 156 -215 152 -139 258 -131 407
29 70 75 120 163 139 245 9 38 13 757 18 2960 l5 2910 21 66 c31 94 47 121
104 172 57 51 135 85 225 97 84 11 91 11 175 0z"/>
</g>
</svg>
