<?xml version="1.0" standalone="no"?>
<!DOCTYPE svg PUBLIC "-//W3C//DTD SVG 20010904//EN"
 "http://www.w3.org/TR/2001/REC-SVG-20010904/DTD/svg10.dtd">
<svg version="1.0" xmlns="http://www.w3.org/2000/svg"
 width="2048.000000pt" height="2048.000000pt" viewBox="0 0 2048.000000 2048.000000"
 preserveAspectRatio="xMidYMid meet">
<metadata>
Created by potrace 1.13, written by Peter Selinger 2001-2015
</metadata>
<g transform="translate(0.000000,2048.000000) scale(0.192120,-0.192120)"
fill="#000000" stroke="none">
<path d="M5223 10315 c-266 -75 -526 -371 -798 -910 -583 -1152 -1107 -3289
-1270 -5175 -8 -96 -15 -201 -15 -232 l0 -58 -71 0 c-90 0 -275 -27 -313 -46
-16 -7 -32 -11 -37 -8 -5 3 -8 2 -7 -3 2 -5 -17 -29 -40 -53 -116 -120 -174
-338 -174 -660 -1 -173 10 -239 67 -405 89 -262 246 -531 401 -687 38 -38 82
-72 102 -79 30 -10 37 -9 55 10 24 23 26 -3 -27 336 -59 374 -68 666 -37 1177
12 191 21 359 21 375 0 27 1 28 49 25 38 -3 60 2 89 18 70 39 76 61 112 418
44 432 93 803 151 1157 101 612 210 1139 345 1676 319 1267 724 2258 1092
2671 146 164 272 238 407 238 229 0 431 -185 700 -644 185 -316 411 -876 595
-1472 361 -1169 613 -2480 720 -3739 19 -225 48 -284 149 -299 l44 -7 -7 128
c-49 897 -260 2190 -527 3223 -444 1717 -1005 2831 -1515 3011 -77 27 -193 34
-261 14z m-2384 -7167 c0 -271 -3 -487 -6 -480 -2 6 -11 12 -19 12 -17 0 -53
70 -88 172 -26 75 -26 81 -26 351 0 288 6 333 48 380 18 21 72 57 85 57 4 0 7
-222 6 -492z M7550 3911 c0 -16 9 -189 21 -383 33 -553 22 -822 -51 -1279 -35
-219 -35 -211 -12 -239 17 -21 22 -22 54 -11 100 33 312 320 434 587 102 224
139 383 137 589 -3 400 -93 642 -268 721 -53 24 -171 44 -261 44 -53 0 -54 0
-54 -29z m294 -292 c15 -11 35 -38 46 -60 19 -36 20 -59 20 -354 0 -313 0
-317 -26 -393 -27 -82 -69 -156 -84 -147 -4 3 -11 -1 -13 -7 -3 -7 -6 211 -6
485 -1 479 0 497 18 497 10 0 30 -9 45 -21z M7981 3854 c36 -19 117 -80 180
-135 63 -55 148 -125 189 -157 41 -31 81 -63 90 -70 8 -7 60 -46 115 -86 268
-194 506 -478 645 -769 97 -202 112 -259 117 -422 3 -112 1 -145 -11 -165 -8
-14 -21 -36 -27 -50 -18 -36 -101 -116 -197 -188 -112 -86 -132 -114 -163
-226 l-25 -94 25 11 c212 94 461 300 528 437 56 116 62 208 26 395 -50 261
-225 592 -455 860 -267 311 -617 552 -957 659 -143 45 -164 45 -80 0z M2570
3844 c-509 -171 -989 -606 -1248 -1129 -90 -182 -135 -329 -152 -494 -19 -179
21 -291 154 -429 86 -90 234 -195 365 -262 l77 -38 -22 88 c-12 48 -30 102
-40 119 -10 18 -59 61 -109 96 -100 71 -169 138 -209 202 -25 41 -26 48 -26
202 0 145 2 166 26 237 62 184 168 375 323 579 80 106 309 326 431 414 63 45
172 136 242 201 161 149 202 183 269 220 71 39 47 37 -81 -6z M2240 1669
c-149 -18 -332 -90 -414 -161 l-39 -34 129 -58 c173 -78 424 -176 902 -352
218 -81 485 -182 592 -226 107 -44 202 -82 212 -85 13 -4 18 5 23 51 36 287
-276 625 -721 779 -237 82 -476 112 -684 86z M8100 1669 c-530 -61 -1014 -393
-1080 -742 -16 -87 -6 -181 18 -174 10 3 103 40 207 83 105 42 388 150 630
239 485 179 687 258 874 343 l124 56 -39 34 c-48 41 -197 114 -279 135 -131
35 -296 44 -455 26z M6735 789 c-17 -4 -81 -30 -144 -58 -191 -86 -386 -138
-664 -178 -177 -26 -1067 -25 -1262 1 -243 32 -417 74 -580 141 -199 81 -248
90 -349 66 l-69 -16 36 -25 c248 -172 319 -209 513 -269 262 -80 628 -121
1099 -121 601 0 1023 72 1316 226 57 30 161 82 231 117 70 34 128 65 128 68 0
9 -112 41 -170 48 -30 4 -69 4 -85 0z"/>
</g>
</svg>
