<?xml version="1.0" standalone="no"?>
<!DOCTYPE svg PUBLIC "-//W3C//DTD SVG 20010904//EN"
 "http://www.w3.org/TR/2001/REC-SVG-20010904/DTD/svg10.dtd">
<svg version="1.0" xmlns="http://www.w3.org/2000/svg"
 width="2048.000000pt" height="2048.000000pt" viewBox="0 0 2048.000000 2048.000000"
 preserveAspectRatio="xMidYMid meet">
<metadata>
Created by potrace 1.13, written by Peter Selinger 2001-2015
</metadata>
<g transform="translate(0.000000,2048.000000) scale(0.192120,-0.192120)"
fill="#000000" stroke="none">
<path d="M8292 10301 c-71 -25 -121 -67 -155 -132 -26 -49 -28 -61 -25 -129 5
-86 28 -140 85 -196 61 -61 109 -76 268 -85 353 -19 642 -137 875 -356 205
-192 349 -464 400 -753 7 -36 15 -123 19 -195 9 -148 25 -199 85 -258 63 -63
109 -82 207 -82 78 0 90 3 135 30 61 38 109 107 125 181 16 70 1 283 -32 450
-53 275 -187 576 -358 799 -63 83 -222 246 -306 315 -295 240 -653 383 -1050
420 -154 14 -212 12 -273 -9z m338 -256 c216 -17 485 -107 695 -233 355 -214
627 -576 719 -957 24 -99 20 -478 -5 -483 -10 -2 -21 9 -29 30 -7 18 -19 40
-26 48 -7 9 -20 63 -29 120 -48 329 -157 592 -343 832 -234 303 -574 514 -923
573 -52 9 -117 20 -145 26 -28 5 -58 7 -67 3 -9 -3 -17 -2 -17 4 0 5 -14 12
-32 16 -63 13 2 37 82 30 25 -2 79 -6 120 -9z M4080 9885 c-225 -63 -421 -254
-446 -434 -3 -25 -23 -80 -45 -122 -91 -178 -92 -382 -4 -567 19 -40 83 -144
142 -230 521 -764 1808 -2640 1817 -2649 8 -9 38 4 126 54 63 36 116 67 118
69 2 1 -463 682 -1033 1514 -570 831 -1047 1535 -1060 1563 -44 97 -44 99 24
151 68 53 82 70 141 181 24 44 52 92 63 107 30 40 95 83 165 108 78 28 155 24
228 -13 55 -28 158 -132 249 -252 33 -43 65 -83 70 -89 46 -48 317 -438 1194
-1717 557 -812 1031 -1497 1055 -1521 24 -25 73 -62 110 -83 36 -20 66 -38 66
-40 0 -1 -48 -43 -107 -93 -576 -481 -913 -1123 -984 -1876 -16 -172 -6 -490
20 -664 36 -236 89 -431 178 -652 90 -224 239 -488 321 -567 77 -75 182 -90
291 -42 50 22 51 20 -17 121 -204 306 -365 695 -437 1053 -37 187 -48 305 -48
505 1 571 193 1099 569 1570 85 106 255 282 353 366 l74 64 43 -46 c41 -45 45
-46 87 -42 69 8 136 47 212 123 101 101 115 133 115 263 0 97 -15 180 -180
1007 l-180 901 0 157 0 157 34 38 c45 49 107 79 203 99 59 12 92 14 135 7 45
-8 58 -7 60 3 7 34 122 -80 168 -167 25 -47 92 -239 339 -970 381 -1127 428
-1254 538 -1475 33 -66 95 -198 137 -293 42 -95 98 -217 125 -271 73 -145 136
-297 191 -460 63 -187 85 -272 115 -449 24 -136 25 -163 25 -538 0 -427 -4
-478 -59 -720 -56 -245 -136 -466 -257 -707 -84 -168 -134 -246 -259 -402
-184 -229 -295 -349 -450 -484 -694 -605 -1597 -872 -2517 -746 -866 120
-1672 614 -2141 1315 -39 58 -125 182 -191 275 -266 377 -2236 3257 -2282
3336 l-48 84 -4 133 -4 134 41 38 c23 22 41 43 41 49 0 18 60 59 117 82 50 19
76 22 184 20 116 -1 129 1 160 22 19 12 44 40 56 62 20 37 21 41 6 57 -30 33
-150 86 -223 98 -121 20 -240 -10 -373 -96 -192 -124 -288 -312 -258 -504 18
-111 51 -197 111 -290 156 -236 2335 -3407 2351 -3420 10 -8 47 -63 82 -121
119 -196 243 -354 437 -553 200 -205 379 -351 610 -495 687 -430 1518 -597
2320 -465 731 120 1437 507 1926 1055 478 536 762 1176 840 1889 23 212 15
624 -15 820 -58 378 -145 651 -326 1030 -287 598 -381 846 -838 2201 -157 465
-299 872 -315 905 -67 131 -192 245 -305 279 -223 68 -520 -30 -648 -212 -53
-76 -80 -169 -85 -288 -4 -98 0 -123 209 -1158 l212 -1059 -110 -83 c-60 -46
-111 -82 -111 -81 -10 11 -652 945 -1565 2276 -807 1178 -1150 1671 -1191
1710 -141 137 -332 198 -488 155z M6873 9745 c-62 -31 -97 -70 -131 -144 -21
-45 -24 -64 -20 -120 6 -76 25 -120 77 -174 63 -67 98 -79 256 -88 409 -24
760 -139 1100 -360 490 -318 844 -792 990 -1325 42 -153 63 -290 74 -474 9
-163 21 -198 88 -261 54 -52 98 -71 175 -77 62 -4 74 -2 133 27 70 35 124 94
146 159 17 52 5 374 -20 542 -169 1111 -924 1959 -1987 2231 -219 55 -394 79
-629 86 l-200 5 -52 -27z m431 -240 c184 -12 422 -63 629 -135 376 -129 688
-327 956 -605 299 -312 478 -643 597 -1105 26 -99 28 -120 31 -387 l5 -283
-27 0 c-16 0 -28 7 -31 18 -3 9 -14 35 -24 57 -10 22 -23 83 -29 136 -13 120
-52 314 -86 427 -87 294 -258 614 -459 862 -87 108 -276 300 -386 392 -209
176 -522 357 -755 437 -49 18 -97 34 -105 38 -16 6 -31 11 -52 16 -7 1 -17 5
-23 8 -5 4 -23 10 -40 14 -16 4 -39 9 -50 12 -26 7 -217 39 -327 54 -86 12
-123 33 -75 44 34 7 99 12 132 9 17 -2 70 -6 119 -9z M2779 9330 c-201 -51
-398 -233 -440 -406 -7 -27 -33 -81 -60 -121 -68 -103 -91 -170 -96 -283 -6
-110 10 -188 59 -284 31 -62 154 -242 238 -351 26 -33 469 -676 985 -1430 516
-753 942 -1374 946 -1379 4 -4 42 20 86 55 43 35 92 74 108 86 23 17 28 25 20
37 -5 9 -91 134 -191 278 -779 1131 -2016 2942 -2036 2983 -14 28 -33 74 -41
103 l-16 53 53 34 c73 46 109 85 171 180 66 102 103 136 188 176 63 29 75 31
147 27 102 -6 148 -33 294 -175 166 -160 258 -212 312 -176 46 30 41 45 -71
215 -142 215 -233 301 -377 359 -60 24 -217 35 -279 19z M1948 8085 c-216 -55
-413 -246 -448 -435 -6 -30 -26 -86 -45 -125 -46 -94 -67 -190 -68 -305 0
-163 38 -268 163 -456 181 -270 359 -523 400 -569 25 -28 373 -528 774 -1113
400 -585 730 -1062 731 -1060 3 3 135 199 157 234 4 6 -10 35 -31 65 -65 92
-1963 2861 -1992 2908 -16 24 -36 66 -45 93 l-16 50 73 71 c57 56 84 92 119
161 58 115 111 173 202 222 l73 39 154 -3 c174 -3 187 1 221 67 l20 40 -60 40
c-119 79 -260 107 -382 76z M1063 3923 c-57 -20 -136 -92 -165 -151 -21 -44
-23 -57 -20 -202 12 -756 289 -1450 767 -1926 469 -465 1079 -719 1839 -764
249 -15 298 -3 385 96 120 136 83 343 -75 420 -48 24 -73 28 -202 36 -447 27
-894 211 -1267 522 -540 450 -861 1040 -894 1645 -7 139 -10 152 -38 202 -67
119 -200 169 -330 122z m139 -280 c13 -12 18 -30 18 -69 0 -131 83 -501 146
-649 147 -344 290 -581 496 -820 341 -395 775 -690 1219 -829 130 -41 326 -81
444 -91 95 -9 112 -18 85 -47 -20 -22 -24 -22 -305 -2 -202 14 -348 42 -568
109 -841 255 -1413 891 -1593 1768 -22 107 -24 142 -24 376 0 142 3 261 7 264
12 13 56 7 75 -10z M500 2529 c-99 -44 -160 -132 -168 -241 -6 -84 13 -291 39
-427 46 -240 177 -546 316 -740 81 -113 237 -278 342 -363 331 -267 791 -428
1222 -428 127 0 230 62 278 170 58 128 -3 291 -132 355 -46 22 -73 27 -208 35
-84 5 -181 14 -214 20 -499 92 -863 404 -1014 867 -42 130 -61 235 -71 411 -8
135 -12 160 -35 208 -64 130 -226 191 -355 133z m140 -264 c23 -12 30 -23 34
-57 2 -24 10 -88 16 -143 68 -603 446 -1115 975 -1319 77 -29 209 -68 280 -82
11 -2 31 -6 45 -9 14 -3 68 -10 120 -15 112 -12 130 -17 130 -34 0 -14 -130
-31 -140 -18 -3 4 -34 8 -69 9 -192 5 -555 126 -743 246 -129 83 -275 205
-354 297 -122 140 -241 351 -298 528 -57 178 -66 233 -66 427 0 157 2 174 18
178 9 3 18 5 20 6 2 0 16 -6 32 -14z"/>
</g>
</svg>
