<?xml version="1.0" standalone="no"?>
<!DOCTYPE svg PUBLIC "-//W3C//DTD SVG 20010904//EN"
 "http://www.w3.org/TR/2001/REC-SVG-20010904/DTD/svg10.dtd">
<svg version="1.0" xmlns="http://www.w3.org/2000/svg"
 width="2048.000000pt" height="2048.000000pt" viewBox="0 0 2048.000000 2048.000000"
 preserveAspectRatio="xMidYMid meet">
<metadata>
Created by potrace 1.13, written by Peter Selinger 2001-2015
</metadata>
<g transform="translate(0.000000,2048.000000) scale(0.192120,-0.192120)"
fill="#000000" stroke="none">
<path d="M5223 10315 c-212 -58 -424 -263 -646 -630 -557 -917 -1106 -2865
-1351 -4795 -39 -304 -86 -790 -86 -886 l0 -61 -112 -6 c-218 -11 -478 -83
-693 -192 -217 -110 -386 -234 -575 -425 -331 -331 -551 -739 -590 -1091 -20
-183 19 -297 153 -435 211 -221 526 -375 1492 -730 220 -80 483 -180 585 -221
102 -42 205 -83 230 -93 78 -30 93 -39 175 -100 296 -221 762 -320 1505 -320
610 0 1026 71 1322 226 144 75 364 183 407 198 20 7 117 46 216 86 99 40 360
139 580 220 778 287 962 365 1211 511 131 76 214 141 298 230 116 124 165 250
151 392 -47 469 -383 1003 -850 1352 -185 138 -339 223 -531 293 -125 47 -344
93 -470 99 l-111 6 -7 126 c-49 926 -281 2309 -562 3356 -351 1307 -770 2257
-1175 2665 -197 199 -385 273 -566 225z m242 -244 c140 -67 300 -245 468 -517
307 -500 612 -1315 867 -2319 249 -977 401 -1852 499 -2870 30 -313 42 -366
89 -408 27 -24 88 -46 130 -47 25 0 32 -4 32 -20 0 -10 9 -174 21 -362 33
-542 21 -837 -52 -1282 -34 -212 -34 -208 -11 -236 17 -21 22 -22 51 -12 135
47 398 444 505 762 59 175 69 237 68 415 -1 267 -42 463 -122 592 l-39 62 47
-29 c26 -16 108 -82 183 -148 75 -65 152 -128 172 -141 20 -12 40 -28 44 -35
5 -7 36 -31 70 -54 202 -136 415 -353 562 -574 89 -134 150 -256 200 -404 39
-116 41 -125 41 -246 l0 -125 -38 -59 c-40 -61 -106 -122 -229 -213 -91 -66
-107 -88 -134 -187 -32 -119 -33 -121 -75 -89 -48 36 -167 92 -249 115 -328
94 -806 7 -1140 -207 -270 -174 -429 -409 -413 -611 4 -45 2 -52 -11 -47 -9 4
-50 16 -91 27 -94 24 -153 19 -244 -22 -239 -109 -513 -175 -871 -212 -158
-16 -807 -16 -985 0 -356 33 -676 109 -867 205 -71 36 -132 42 -224 19 l-75
-18 4 50 c19 234 -203 513 -544 684 -315 158 -729 212 -1009 132 -83 -24 -201
-79 -250 -116 l-35 -26 -14 33 c-8 19 -19 60 -26 91 -16 80 -42 113 -150 190
-109 79 -160 126 -201 187 l-29 44 0 158 c0 150 1 161 31 246 37 106 136 299
212 414 147 222 356 432 587 589 19 14 64 52 100 86 195 184 320 289 320 270
0 -3 -13 -27 -29 -53 -61 -100 -97 -253 -111 -476 -17 -260 19 -439 144 -711
46 -101 161 -294 220 -371 73 -94 166 -183 204 -196 32 -11 37 -10 54 11 23
28 23 20 -12 239 -73 457 -84 737 -51 1277 12 187 21 345 21 351 0 6 25 10 58
10 109 0 166 54 191 183 6 30 22 172 36 315 47 480 108 918 205 1470 199 1137
528 2326 856 3093 236 551 492 947 702 1085 86 57 111 65 202 66 63 1 84 -4
135 -28z m2371 -6452 c31 -15 48 -32 63 -63 20 -40 21 -60 21 -359 l0 -317
-30 -88 c-30 -86 -79 -179 -91 -171 -3 2 -13 -2 -22 -10 -16 -12 -17 24 -17
508 0 586 -7 541 76 500z m-4982 -20 c3 -17 6 -247 6 -511 0 -446 -1 -479 -17
-467 -9 8 -19 12 -22 9 -10 -8 -78 130 -106 215 -26 80 -26 81 -23 370 3 331
7 350 83 392 55 31 71 29 79 -8z"/>
</g>
</svg>
