<?xml version="1.0" standalone="no"?>
<!DOCTYPE svg PUBLIC "-//W3C//DTD SVG 20010904//EN"
 "http://www.w3.org/TR/2001/REC-SVG-20010904/DTD/svg10.dtd">
<svg version="1.0" xmlns="http://www.w3.org/2000/svg"
 width="2048.000000pt" height="2048.000000pt" viewBox="0 0 2048.000000 2048.000000"
 preserveAspectRatio="xMidYMid meet">
<metadata>
Created by potrace 1.13, written by Peter Selinger 2001-2015
</metadata>
<g transform="translate(0.000000,2048.000000) scale(0.192120,-0.192120)"
fill="#000000" stroke="none">
<path d="M7822 10301 c-57 -20 -123 -75 -149 -126 -9 -16 -81 -214 -160 -439
-160 -458 -165 -482 -119 -581 43 -93 153 -165 251 -165 85 0 187 58 234 133
10 17 85 221 166 452 143 409 147 422 142 487 -7 112 -86 212 -191 243 -65 20
-109 18 -174 -4z m88 -355 c0 -53 -7 -94 -26 -147 -14 -41 -38 -112 -54 -159
-80 -234 -113 -308 -150 -337 -33 -27 -40 -16 -40 65 0 71 6 96 76 292 94 269
120 327 153 345 14 8 29 14 34 15 4 0 7 -33 7 -74z M9678 10037 c-67 -32
-1101 -1058 -1128 -1119 -29 -68 -34 -128 -16 -191 45 -154 197 -237 352 -192
59 16 62 20 592 548 427 426 538 542 559 585 70 142 -6 326 -155 376 -66 23
-148 20 -204 -7z m91 -276 c11 -7 9 -16 -7 -52 -14 -32 -126 -149 -418 -440
-399 -396 -468 -459 -509 -459 -34 0 -46 19 -30 49 22 43 856 867 900 889 46
24 46 24 64 13z M3676 10025 c-99 -25 -173 -72 -271 -170 -50 -49 -103 -113
-117 -141 -35 -65 -58 -154 -58 -221 l0 -53 43 6 c79 12 119 44 177 139 147
241 360 294 567 141 97 -72 402 -355 718 -666 165 -163 333 -324 374 -359 128
-109 237 -145 291 -96 9 8 22 15 29 15 7 0 385 -370 840 -823 454 -452 875
-865 935 -916 294 -251 516 -380 660 -384 116 -2 160 -52 -713 814 -441 437
-820 820 -842 851 -79 114 -125 252 -117 353 3 46 2 48 -59 105 -75 70 -162
121 -261 150 -60 18 -91 22 -170 18 -87 -3 -105 -7 -172 -40 -41 -20 -88 -48
-105 -61 l-30 -26 -625 623 c-669 667 -679 676 -828 725 -83 28 -191 35 -266
16z m2251 -1559 c28 -14 66 -35 82 -47 29 -21 31 -27 31 -86 0 -47 -4 -63 -14
-63 -17 0 -150 139 -170 178 -25 49 -6 54 71 18z M2578 9646 c-120 -42 -236
-140 -318 -268 -54 -83 -80 -170 -80 -269 0 -74 -2 -82 -35 -128 -63 -88 -88
-156 -93 -253 l-4 -88 30 0 c65 0 130 46 167 118 9 19 28 68 42 110 27 85 26
133 -4 196 l-17 36 30 31 c42 43 157 97 237 109 115 18 241 -13 375 -91 41
-25 349 -325 1162 -1134 1768 -1760 1716 -1708 1732 -1699 8 5 56 45 106 89
l92 80 -1319 1315 c-726 723 -1334 1337 -1351 1363 -42 63 -78 147 -87 199
-15 95 -216 250 -380 292 -91 24 -204 20 -285 -8z M6636 9045 c-96 -25 -174
-72 -267 -165 -94 -93 -156 -199 -161 -275 -3 -40 -3 -40 36 -43 61 -5 113 24
216 123 170 163 284 189 453 104 135 -68 285 -209 1323 -1245 584 -582 963
-968 1016 -1034 309 -383 499 -797 589 -1280 20 -105 22 -165 29 -665 5 -302
13 -572 18 -600 29 -145 49 -201 122 -345 26 -52 62 -131 80 -175 29 -74 31
-88 28 -175 -4 -113 -23 -160 -104 -260 -93 -115 -1945 -1955 -1997 -1985 -98
-56 -142 -67 -310 -75 -186 -10 -207 -18 -250 -98 -32 -60 -22 -59 -148 -11
-42 16 -138 68 -215 116 -243 150 -405 224 -565 257 -41 8 -150 22 -244 31
-578 56 -1112 273 -1570 640 -130 104 -271 242 -1941 1905 -1230 1225 -1404
1403 -1433 1457 -46 89 -71 169 -71 225 0 48 -1 49 -57 85 -126 81 -262 113
-384 93 -112 -19 -200 -69 -299 -169 -126 -128 -180 -243 -180 -389 0 -139 71
-293 189 -411 98 -99 3121 -2906 3226 -2996 326 -279 702 -485 1093 -599 236
-68 421 -100 672 -116 96 -6 209 -18 250 -26 161 -33 320 -100 549 -232 147
-85 233 -122 367 -158 86 -24 118 -27 249 -27 136 -1 157 2 230 26 104 34 185
83 265 161 l65 63 65 -13 c88 -18 249 -17 335 1 39 8 104 31 145 51 73 35 107
68 1103 1063 764 762 1041 1045 1077 1099 124 184 123 383 -4 617 -24 44 -60
111 -81 149 -79 144 -79 146 -80 721 -1 424 -4 532 -18 638 -76 566 -286 1061
-637 1507 -56 70 -359 380 -914 935 -1265 1263 -1400 1395 -1473 1433 -139 73
-272 96 -387 67z m-5610 -3685 c91 -24 96 -29 180 -170 31 -52 89 -135 129
-185 40 -49 313 -328 607 -620 293 -291 967 -962 1498 -1490 531 -529 1019
-1008 1085 -1066 221 -192 407 -320 669 -459 178 -95 190 -116 63 -112 -125 5
-403 75 -602 153 -265 103 -562 286 -800 493 -200 174 -3145 2915 -3181 2962
-61 76 -77 114 -82 196 -6 109 2 142 51 195 104 113 220 144 383 103z m5479
-4337 c136 -26 347 -114 418 -174 30 -26 31 -29 15 -45 -41 -41 -236 -7 -407
72 -74 34 -182 101 -189 117 -2 4 -10 14 -18 21 -16 16 -19 30 -5 21 5 -3 13
0 16 6 8 11 36 8 170 -18z M1451 8824 c-86 -23 -159 -71 -251 -163 -173 -174
-218 -357 -140 -564 41 -109 108 -193 283 -355 90 -84 170 -158 176 -166 9
-10 4 -29 -21 -81 -25 -54 -33 -86 -36 -148 l-5 -80 39 7 c96 18 147 73 160
169 7 52 -10 92 -57 131 -30 25 -31 29 -18 53 26 49 141 143 225 185 75 37 92
41 178 46 83 4 106 1 178 -21 170 -53 59 50 1758 -1644 l895 -892 93 104 93
105 -1233 1228 c-679 675 -1305 1297 -1392 1382 -215 212 -278 299 -309 432
-10 43 -22 60 -80 114 -76 70 -216 145 -305 163 -72 15 -166 13 -231 -5z m331
-316 c114 -55 151 -86 214 -180 27 -40 83 -115 124 -168 91 -114 91 -115 85
-132 -4 -10 -33 -12 -133 -10 -164 4 -234 -11 -370 -83 -57 -30 -116 -55 -131
-55 -60 0 -224 148 -275 247 -23 47 -26 64 -26 159 l0 106 63 62 c85 85 140
107 263 103 85 -3 97 -6 186 -49z M9985 8183 c-41 -11 -746 -263 -774 -278
-16 -8 -47 -35 -70 -61 -119 -136 -76 -341 92 -431 23 -12 55 -18 112 -18 77
0 92 4 438 128 197 70 375 136 397 147 50 25 105 91 124 148 36 105 11 208
-69 289 -69 68 -164 97 -250 76z m-105 -339 c0 -8 -5 -12 -10 -9 -6 4 -8 11
-5 16 9 14 15 11 15 -7z m-30 -10 c0 -8 -5 -12 -10 -9 -6 4 -8 11 -5 16 9 14
15 11 15 -7z m-33 -16 c-3 -8 -6 -5 -6 6 -1 11 2 17 5 13 3 -3 4 -12 1 -19z
m-30 -10 c-3 -8 -6 -5 -6 6 -1 11 2 17 5 13 3 -3 4 -12 1 -19z m-77 -24 c0 -8
-5 -12 -10 -9 -6 4 -8 11 -5 16 9 14 15 11 15 -7z m-30 -10 c0 -8 -5 -12 -10
-9 -6 4 -8 11 -5 16 9 14 15 11 15 -7z m-33 -16 c-3 -8 -6 -5 -6 6 -1 11 2 17
5 13 3 -3 4 -12 1 -19z m-30 -10 c-3 -8 -6 -5 -6 6 -1 11 2 17 5 13 3 -3 4
-12 1 -19z m-30 -10 c-3 -8 -6 -5 -6 6 -1 11 2 17 5 13 3 -3 4 -12 1 -19z
m-30 -10 c-3 -8 -6 -5 -6 6 -1 11 2 17 5 13 3 -3 4 -12 1 -19z M925 7426 c-97
-24 -166 -66 -260 -161 -99 -99 -144 -172 -171 -276 -22 -84 -14 -192 21 -285
50 -133 97 -187 435 -502 173 -162 336 -313 362 -337 l47 -42 -40 -80 c-32
-61 -42 -94 -46 -146 l-6 -67 31 0 c57 0 109 29 141 77 57 85 50 159 -21 222
l-30 27 59 60 c33 32 89 76 124 97 95 56 153 70 273 65 116 -5 196 -33 301
-106 33 -23 474 -452 985 -961 l925 -919 13 32 c8 17 36 70 63 117 27 48 49
93 49 100 0 13 -971 987 -2143 2149 -493 489 -532 538 -567 703 -10 49 -18 62
-61 100 -131 115 -333 170 -484 133z m290 -304 c94 -37 118 -59 205 -192 88
-135 117 -168 367 -421 145 -147 223 -233 223 -247 0 -20 -5 -20 -137 -19
-162 1 -217 -11 -355 -79 -105 -51 -128 -52 -187 -7 -55 42 -407 371 -488 456
-103 109 -113 132 -113 267 l0 111 46 49 c86 92 157 122 279 116 60 -2 100
-11 160 -34z M1055 3201 c-104 -37 -278 -98 -385 -136 -186 -66 -197 -72 -246
-120 -136 -136 -100 -357 73 -441 102 -50 125 -46 553 105 206 73 390 142 407
153 186 114 168 391 -32 484 -88 42 -148 34 -370 -45z m75 -277 c0 -8 -5 -12
-10 -9 -6 4 -8 11 -5 16 9 14 15 11 15 -7z m-30 -10 c0 -8 -5 -12 -10 -9 -6 4
-8 11 -5 16 9 14 15 11 15 -7z m-33 -16 c-3 -8 -6 -5 -6 6 -1 11 2 17 5 13 3
-3 4 -12 1 -19z m-30 -10 c-3 -8 -6 -5 -6 6 -1 11 2 17 5 13 3 -3 4 -12 1 -19z
m-30 -10 c-3 -8 -6 -5 -6 6 -1 11 2 17 5 13 3 -3 4 -12 1 -19z m-30 -10 c-3
-8 -6 -5 -6 6 -1 11 2 17 5 13 3 -3 4 -12 1 -19z m-17 -4 c0 -8 -4 -12 -10 -9
-5 3 -10 10 -10 16 0 5 5 9 10 9 6 0 10 -7 10 -16z m-30 -10 c0 -8 -5 -12 -10
-9 -6 4 -8 11 -5 16 9 14 15 11 15 -7z m-33 -16 c-3 -8 -6 -5 -6 6 -1 11 2 17
5 13 3 -3 4 -12 1 -19z m-30 -10 c-3 -8 -6 -5 -6 6 -1 11 2 17 5 13 3 -3 4
-12 1 -19z m-30 -10 c-3 -8 -6 -5 -6 6 -1 11 2 17 5 13 3 -3 4 -12 1 -19z
m-30 -10 c-3 -8 -6 -5 -6 6 -1 11 2 17 5 13 3 -3 4 -12 1 -19z M1765 2125
c-22 -8 -42 -15 -45 -15 -2 0 -245 -240 -538 -532 -593 -591 -582 -578 -582
-702 0 -189 171 -314 356 -261 59 16 62 19 597 553 388 388 544 550 559 582
28 56 30 166 4 222 -22 51 -70 104 -123 135 -56 33 -166 42 -228 18z m80 -295
c4 -13 -1 -33 -14 -53 -30 -48 -841 -852 -879 -871 -45 -23 -76 -18 -80 13 -3
21 64 92 430 456 302 300 447 437 478 453 55 27 57 27 65 2z M2916 1650 c-52
-20 -118 -77 -141 -120 -7 -14 -79 -214 -160 -445 -137 -392 -147 -424 -143
-480 15 -242 313 -348 476 -171 45 48 46 52 217 540 110 315 125 366 125 423
0 71 -16 117 -59 172 -69 87 -211 124 -315 81z m104 -340 c0 -46 -12 -94 -49
-202 -126 -370 -152 -432 -193 -457 -31 -20 -40 2 -35 89 4 61 19 114 81 290
104 291 129 340 178 340 15 0 18 -9 18 -60z"/>
</g>
</svg>
