<?xml version="1.0" standalone="no"?>
<!DOCTYPE svg PUBLIC "-//W3C//DTD SVG 20010904//EN"
 "http://www.w3.org/TR/2001/REC-SVG-20010904/DTD/svg10.dtd">
<svg version="1.0" xmlns="http://www.w3.org/2000/svg"
 width="2048.000000pt" height="2048.000000pt" viewBox="0 0 2048.000000 2048.000000"
 preserveAspectRatio="xMidYMid meet">
<metadata>
Created by potrace 1.13, written by Peter Selinger 2001-2015
</metadata>
<g transform="translate(0.000000,2048.000000) scale(0.192120,-0.192120)"
fill="#000000" stroke="none">
<path d="M6435 8864 c-869 -139 -1949 -312 -2400 -384 -451 -72 -1182 -189
-1625 -260 -443 -71 -854 -136 -915 -145 -137 -21 -245 -55 -356 -111 -310
-155 -533 -462 -582 -800 l-12 -85 251 -1592 c139 -876 259 -1621 268 -1656
96 -363 370 -674 724 -820 39 -16 118 -42 174 -56 94 -24 128 -27 388 -35 157
-5 870 -37 1585 -71 l1300 -63 -21 -62 c-11 -34 -34 -84 -52 -110 -72 -113
-112 -229 -112 -326 0 -58 29 -185 57 -253 122 -289 451 -539 770 -585 54 -8
408 -10 1163 -8 l1085 3 70 24 c92 31 164 68 250 129 76 53 1358 1342 1428
1435 88 116 145 276 153 427 5 88 -15 233 -270 1925 -151 1007 -281 1861 -287
1900 -20 122 -59 214 -134 320 l-42 60 -56 320 c-61 350 -92 461 -166 584
-209 352 -560 554 -955 550 -80 -1 -427 -54 -1681 -255z m1925 -13 c195 -56
353 -171 469 -341 89 -131 118 -213 166 -485 60 -338 79 -402 148 -503 33 -50
83 -157 103 -222 19 -61 10 -3 299 -1925 l256 -1700 -3 -165 -4 -165 -36 -77
c-20 -42 -55 -102 -78 -135 -78 -106 -1224 -1231 -1335 -1309 -72 -51 -155
-92 -227 -111 -57 -15 -164 -17 -1053 -21 -1068 -4 -1160 0 -1296 45 -140 46
-284 145 -377 259 -77 94 -150 285 -159 419 l-6 80 56 -52 c31 -28 74 -57 94
-65 31 -10 236 -13 1063 -13 950 0 1032 1 1115 18 543 110 948 521 1039 1056
14 85 16 293 16 1970 l0 1876 -24 50 c-98 207 -397 211 -498 7 l-23 -47 -5
-1885 c-5 -1776 -6 -1888 -23 -1945 -61 -205 -196 -370 -377 -464 -145 -76
-136 -74 -616 -80 l-431 -6 -12 70 c-37 224 -234 3179 -276 4155 -7 161 -21
209 -78 268 -131 138 -362 104 -446 -64 -34 -67 -36 -135 -17 -509 45 -878
184 -2970 231 -3480 15 -153 41 -377 50 -420 4 -20 0 -20 -296 -17 -343 4
-382 -1 -461 -56 l-53 -38 -30 61 c-41 83 -80 101 -240 115 -198 16 -243 13
-391 -25 -74 -19 -145 -35 -157 -35 -21 1 -22 1 -2 11 90 49 145 117 164 198
13 61 -270 3788 -295 3869 -18 63 -67 121 -133 160 -40 23 -57 27 -126 27 -90
0 -139 -20 -198 -79 -49 -49 -71 -101 -74 -181 -2 -38 61 -910 141 -1936 158
-2046 143 -1914 217 -1989 19 -20 45 -43 59 -53 l25 -17 -35 6 c-19 3 -75 21
-125 39 -157 58 -184 62 -615 80 l-405 17 -113 -41 -113 -41 25 33 c29 39 56
116 56 160 0 18 -131 752 -290 1632 -320 1762 -301 1675 -388 1742 -173 131
-412 34 -446 -182 -9 -58 573 -3258 604 -3317 11 -22 19 -42 18 -44 -2 -2 -56
21 -120 52 -64 30 -147 62 -185 70 -239 55 -376 126 -526 271 -158 151 -256
340 -301 578 -9 44 -115 709 -236 1478 l-221 1399 3 191 3 192 33 69 c101 214
220 335 424 431 109 51 182 66 798 164 311 50 1551 248 2755 440 1205 192
2404 384 2665 425 261 41 486 77 500 80 14 2 88 3 165 1 106 -2 158 -8 215
-24z m-2213 -1596 c36 -42 36 -37 53 -410 33 -707 176 -2881 236 -3583 23
-277 41 -341 123 -433 71 -81 81 -83 441 -87 349 -4 457 4 575 44 309 104 531
378 596 733 18 97 19 162 19 865 0 577 3 770 12 796 10 26 14 286 18 1060 l5
1025 30 15 c37 19 137 19 159 1 15 -12 16 -181 16 -1966 0 -1930 0 -1954 -20
-2018 -96 -310 -377 -596 -692 -703 -180 -61 -137 -59 -1251 -59 -894 0 -1019
2 -1027 15 -21 33 -4 160 23 177 7 4 125 11 262 14 294 6 311 10 373 92 22 29
45 62 51 74 17 34 13 269 -9 506 -31 328 -123 1659 -185 2675 -29 475 -36
1161 -12 1179 26 22 74 32 122 28 42 -4 55 -10 82 -40z m-2006 -276 c45 -55
31 84 169 -1707 l110 -1424 0 -343 0 -343 -31 -11 c-40 -14 -85 -13 -128 2
-27 10 -37 22 -53 62 -11 27 -24 72 -29 100 -5 27 -63 749 -129 1604 -109
1415 -120 1577 -120 1808 l0 254 33 15 c20 9 55 13 95 11 54 -3 67 -7 83 -28z
m-2031 -552 c38 -19 65 -68 84 -152 9 -43 129 -696 266 -1452 223 -1223 250
-1385 250 -1478 0 -57 -4 -115 -10 -129 -9 -25 -13 -26 -88 -26 -91 0 -110 10
-140 72 -30 64 -40 119 -302 1556 -237 1303 -240 1323 -240 1457 l0 136 33 14
c40 18 114 19 147 2z"/>
</g>
</svg>
