<?xml version="1.0" standalone="no"?>
<!DOCTYPE svg PUBLIC "-//W3C//DTD SVG 20010904//EN"
 "http://www.w3.org/TR/2001/REC-SVG-20010904/DTD/svg10.dtd">
<svg version="1.0" xmlns="http://www.w3.org/2000/svg"
 width="2048.000000pt" height="2048.000000pt" viewBox="0 0 2048.000000 2048.000000"
 preserveAspectRatio="xMidYMid meet">
<metadata>
Created by potrace 1.13, written by Peter Selinger 2001-2015
</metadata>
<g transform="translate(0.000000,2048.000000) scale(0.192120,-0.192120)"
fill="#000000" stroke="none">
<path d="M4975 10160 c-449 -34 -887 -121 -1306 -260 -1119 -372 -1710 -1046
-1841 -2100 -17 -137 -17 -675 0 -830 61 -558 184 -1098 409 -1800 179 -556
258 -883 332 -1360 56 -365 85 -656 131 -1315 67 -959 120 -1261 276 -1565
186 -365 496 -544 1024 -591 164 -14 574 -7 805 16 710 68 1202 269 1594 649
430 417 686 951 876 1826 59 273 126 475 234 707 115 247 204 397 531 893 278
423 354 545 462 745 254 470 400 933 470 1485 18 141 17 642 0 770 -53 375
-146 677 -303 979 -471 907 -1437 1529 -2659 1711 -271 40 -770 59 -1035 40z
m825 -224 c438 -50 799 -140 1175 -293 88 -36 183 -74 210 -85 331 -129 748
-450 1030 -793 278 -338 469 -753 545 -1186 20 -118 21 -148 18 -584 l-4 -460
-32 -154 c-86 -408 -178 -675 -358 -1034 -108 -215 -182 -338 -486 -799 -549
-837 -643 -1041 -873 -1903 -99 -368 -205 -660 -323 -890 -70 -135 -229 -367
-330 -480 -353 -398 -830 -612 -1545 -692 -224 -25 -831 -25 -972 0 -205 36
-372 100 -487 185 -128 94 -229 246 -295 442 -88 263 -130 576 -183 1350 -82
1202 -187 1804 -460 2645 -177 544 -298 1029 -371 1490 -21 128 -23 182 -26
637 -4 470 -3 503 17 615 59 331 160 586 338 853 93 140 306 359 457 470 209
155 358 238 585 326 532 207 1027 318 1600 358 125 9 641 -4 770 -18z M5125
9574 c-438 -33 -681 -71 -947 -149 -575 -170 -1006 -508 -1291 -1011 -332
-587 -438 -1460 -286 -2359 48 -284 68 -345 138 -408 57 -51 105 -70 181 -70
109 -1 199 53 246 145 38 75 40 125 10 268 -14 69 -31 164 -39 213 -13 86 -13
88 7 92 12 3 77 17 146 30 832 168 1363 -59 1487 -636 26 -120 23 -350 -5
-479 -61 -279 -172 -492 -347 -665 -118 -116 -215 -174 -388 -232 -171 -58
-278 -108 -400 -190 -213 -141 -358 -328 -414 -533 -29 -104 -24 -300 11 -413
30 -99 72 -189 111 -235 43 -51 127 -86 204 -85 78 0 125 19 183 71 93 84 113
201 56 339 -39 96 -42 169 -11 228 22 41 104 126 159 163 55 37 187 99 274
127 614 200 1043 761 1131 1479 17 138 6 401 -21 531 -108 509 -445 888 -935
1049 -174 58 -302 77 -545 83 -250 6 -395 -6 -623 -53 -70 -15 -129 -25 -131
-23 -6 7 12 342 24 435 66 516 228 896 507 1185 311 322 733 485 1400 540 187
15 637 7 798 -15 1049 -144 1736 -652 1945 -1438 54 -206 65 -304 64 -608 -1
-425 -44 -690 -160 -982 -85 -216 -203 -401 -501 -783 -230 -296 -367 -483
-410 -560 -24 -43 -28 -61 -28 -130 0 -92 19 -137 82 -196 62 -60 98 -74 188
-74 70 0 87 4 134 30 55 30 65 42 191 220 35 50 149 200 254 335 308 396 408
542 517 760 179 356 270 749 287 1234 14 395 -13 651 -100 955 -286 999 -1206
1660 -2498 1796 -140 15 -553 27 -655 19z m725 -218 c943 -124 1629 -493 2035
-1096 118 -176 228 -438 281 -669 24 -105 24 -111 24 -656 0 -591 1 -583 -56
-814 -50 -201 -167 -482 -272 -651 -69 -111 -204 -298 -360 -498 -76 -97 -193
-249 -259 -338 -159 -211 -187 -234 -270 -221 -58 10 -78 37 -78 105 0 56 2
60 88 179 48 67 146 197 219 290 259 331 323 419 426 593 139 234 231 480 289
770 24 118 26 148 30 535 5 433 3 468 -42 660 -72 309 -221 602 -417 821 -423
472 -1047 749 -1840 815 -168 15 -630 5 -793 -15 -623 -79 -974 -227 -1318
-555 -226 -216 -414 -565 -507 -944 -55 -227 -62 -278 -67 -538 l-5 -246 35
-55 c45 -70 96 -114 148 -128 43 -12 79 -9 254 18 83 13 176 17 375 17 237 0
277 -2 378 -23 292 -59 516 -170 699 -345 123 -118 217 -265 281 -439 l26 -73
4 -367 c3 -344 2 -372 -18 -455 -86 -363 -320 -714 -604 -905 -115 -76 -189
-114 -355 -177 -284 -108 -417 -206 -512 -376 l-39 -70 0 -211 c0 -195 -1
-212 -19 -228 -22 -20 -97 -24 -129 -7 -32 17 -78 82 -96 134 -22 64 -23 355
-2 415 70 198 330 400 667 517 57 20 141 55 187 78 313 156 581 551 667 985
14 67 16 125 12 310 -5 260 -13 299 -97 479 -76 162 -182 283 -338 386 -250
167 -608 223 -1027 162 -253 -37 -350 -85 -426 -210 -24 -40 -24 -42 -21 -271
3 -214 2 -232 -16 -254 -15 -18 -29 -23 -65 -23 -26 0 -58 5 -71 12 -50 27
-93 154 -132 391 -26 156 -33 1118 -9 1265 90 556 261 934 571 1264 226 241
552 433 909 537 209 61 548 119 795 137 144 11 739 -1 860 -17z"/>
</g>
</svg>
