<?xml version="1.0" standalone="no"?>
<!DOCTYPE svg PUBLIC "-//W3C//DTD SVG 20010904//EN"
 "http://www.w3.org/TR/2001/REC-SVG-20010904/DTD/svg10.dtd">
<svg version="1.0" xmlns="http://www.w3.org/2000/svg"
 width="2048.000000pt" height="2048.000000pt" viewBox="0 0 2048.000000 2048.000000"
 preserveAspectRatio="xMidYMid meet">
<metadata>
Created by potrace 1.13, written by Peter Selinger 2001-2015
</metadata>
<g transform="translate(0.000000,2048.000000) scale(0.192120,-0.192120)"
fill="#000000" stroke="none">
<path d="M3928 10320 c-210 -38 -363 -150 -452 -331 -90 -183 -80 164 -86
-3179 l-5 -2965 -24 -48 c-44 -89 -129 -112 -192 -51 -57 55 -58 61 -62 634
-5 552 -9 616 -58 855 -127 612 -533 1265 -901 1447 -141 69 -203 83 -383 83
-179 0 -247 -13 -372 -70 -181 -83 -257 -237 -224 -455 14 -90 73 -264 171
-500 259 -627 506 -1575 649 -2492 74 -472 176 -793 364 -1148 468 -880 1310
-1506 2292 -1705 225 -46 362 -58 640 -59 337 -1 550 24 845 99 759 192 1421
635 1886 1261 359 482 580 1060 634 1654 6 66 10 411 10 812 0 646 -1 705 -19
795 -65 332 -233 544 -506 640 -72 25 -93 28 -211 28 l-130 0 -75 -37 c-72
-36 -139 -94 -180 -157 -15 -24 -16 -23 -22 50 -19 219 -150 440 -335 563
-154 102 -363 159 -507 137 -175 -26 -318 -112 -411 -246 -21 -31 -41 -52 -44
-48 -4 5 -13 31 -19 58 -32 133 -168 342 -280 430 -169 133 -364 203 -536 192
-196 -11 -416 -126 -565 -295 l-50 -57 0 1750 c0 1892 2 1808 -53 1945 -64
158 -167 275 -300 339 -45 23 -109 48 -142 57 -69 18 -278 27 -347 14z m347
-299 c118 -43 191 -116 236 -239 l24 -67 5 -1665 c4 -1385 7 -1671 19 -1700 8
-19 20 -55 29 -79 20 -60 98 -158 157 -199 41 -28 55 -32 85 -27 41 8 119 49
243 128 185 117 339 144 517 88 147 -46 252 -134 368 -309 111 -168 214 -262
284 -262 36 1 98 32 201 103 129 88 188 109 302 110 147 1 292 -55 398 -152
49 -46 68 -74 114 -170 66 -136 105 -201 159 -257 88 -94 148 -105 258 -49
106 55 176 75 259 75 182 0 347 -100 424 -258 l28 -57 0 -970 0 -970 -34 -140
c-72 -303 -189 -599 -324 -825 -234 -389 -465 -651 -802 -907 -670 -509 -1561
-732 -2405 -603 -817 125 -1533 547 -2019 1190 -190 251 -354 562 -449 850
-74 225 -97 328 -161 720 -86 529 -208 1072 -356 1585 -87 303 -167 537 -285
835 -133 334 -140 358 -140 490 0 107 0 109 28 129 78 55 276 90 413 71 173
-24 277 -77 415 -215 274 -271 475 -670 559 -1108 42 -217 47 -297 55 -797 4
-272 12 -514 17 -538 18 -75 71 -168 138 -240 148 -159 270 -161 414 -7 40 43
76 95 97 139 69 146 64 -82 64 3087 0 2858 0 2865 21 2944 25 98 40 127 92
179 48 48 118 84 197 103 84 19 279 10 355 -16z"/>
</g>
</svg>
