<?xml version="1.0" standalone="no"?>
<!DOCTYPE svg PUBLIC "-//W3C//DTD SVG 20010904//EN"
 "http://www.w3.org/TR/2001/REC-SVG-20010904/DTD/svg10.dtd">
<svg version="1.0" xmlns="http://www.w3.org/2000/svg"
 width="2048.000000pt" height="2048.000000pt" viewBox="0 0 2048.000000 2048.000000"
 preserveAspectRatio="xMidYMid meet">
<metadata>
Created by potrace 1.13, written by Peter Selinger 2001-2015
</metadata>
<g transform="translate(0.000000,2048.000000) scale(0.192120,-0.192120)"
fill="#000000" stroke="none">
<path d="M3255 10323 c-191 -17 -357 -59 -489 -125 -94 -46 -105 -53 -269
-181 -221 -172 -331 -221 -570 -258 -303 -46 -436 -104 -571 -250 -107 -116
-170 -278 -195 -502 -7 -65 -11 -646 -11 -1774 0 -1820 -2 -1763 55 -1932 69
-208 217 -354 468 -462 40 -17 171 -67 292 -111 711 -258 941 -490 1232 -1243
160 -413 269 -820 327 -1215 38 -260 48 -427 56 -955 8 -575 11 -604 67 -707
49 -90 141 -153 270 -185 100 -25 403 -25 493 0 439 120 810 653 904 1298 35
234 18 441 -75 964 -118 664 -132 778 -110 887 25 120 84 163 234 172 50 3
261 8 467 11 206 3 449 7 540 10 91 3 271 7 400 10 1553 37 2305 184 2765 540
221 172 340 358 460 720 49 148 57 339 20 480 -22 81 -77 216 -117 283 -18 31
-74 99 -124 151 -103 108 -202 173 -332 221 -172 63 -109 60 -1491 60 -902 0
-1275 3 -1313 11 -181 39 -319 186 -349 369 -20 127 27 272 118 364 60 61 105
90 182 116 61 20 74 20 1309 18 l1247 -3 66 -31 c77 -37 136 -87 192 -164 69
-95 127 -129 217 -130 92 0 166 44 220 130 l21 35 -6 -60 c-4 -33 -18 -100
-32 -150 -14 -49 -28 -106 -33 -125 -19 -83 -44 -169 -76 -257 -28 -78 -34
-107 -33 -171 1 -86 9 -124 26 -129 18 -6 119 135 163 230 65 139 83 219 84
382 0 162 -13 229 -75 374 -52 121 -104 198 -198 291 -87 87 -198 159 -308
202 -168 65 -86 61 -1453 67 l-1245 6 -67 32 c-161 76 -259 226 -260 398 0
128 41 227 132 315 61 61 135 101 218 119 38 8 351 11 1075 11 1100 0 1077 1
1179 -51 54 -27 139 -109 178 -169 36 -56 90 -95 155 -111 91 -23 200 22 260
108 l27 38 -6 -60 c-3 -33 -14 -89 -26 -124 -11 -35 -20 -72 -20 -82 0 -10 -5
-21 -10 -24 -5 -3 -10 -16 -10 -28 0 -12 -14 -78 -31 -147 -35 -140 -35 -211
-1 -290 l19 -44 32 44 c97 134 151 312 151 501 0 130 -21 229 -77 362 -119
283 -359 478 -665 541 -67 14 -200 16 -1035 16 -602 0 -981 4 -1021 10 -85 14
-164 53 -231 116 -230 212 -168 581 119 718 l65 31 854 3 c763 2 860 1 910
-14 96 -28 174 -84 236 -169 56 -77 98 -114 148 -131 106 -35 220 5 286 101
l33 50 -6 -60 c-6 -53 -29 -150 -57 -240 -31 -102 -69 -290 -69 -342 0 -60 26
-163 41 -163 28 0 117 170 156 297 23 78 26 104 26 233 0 164 -14 235 -79 385
-105 244 -314 426 -591 512 l-88 28 -2665 1 c-1466 0 -2683 -1 -2705 -3z
m3275 -88 c-170 -89 -321 -237 -406 -397 -73 -140 -104 -268 -104 -433 0 -219
57 -386 193 -563 l40 -53 -24 -16 c-48 -34 -152 -140 -195 -199 -58 -81 -119
-211 -145 -309 -29 -110 -32 -316 -6 -429 35 -149 110 -296 209 -408 l41 -48
-80 -83 c-179 -186 -263 -411 -250 -667 7 -125 27 -215 74 -326 33 -80 114
-202 167 -253 l35 -34 -68 -67 c-298 -295 -353 -756 -135 -1122 101 -169 290
-324 475 -390 164 -58 172 -58 1119 -58 940 0 910 -2 984 55 18 14 45 48 60
76 65 119 17 264 -109 332 -40 22 -41 22 -946 27 l-905 5 -75 37 c-94 46 -168
122 -212 215 -43 93 -50 219 -17 317 41 125 138 225 270 279 l55 22 1279 3
c834 1 1298 -1 1334 -8 114 -21 224 -90 283 -178 46 -68 79 -101 121 -123 111
-57 246 -19 319 90 l31 46 -7 -55 c-7 -58 -41 -201 -55 -235 -5 -11 -11 -33
-13 -50 -14 -100 -108 -355 -173 -472 -100 -179 -248 -315 -441 -404 -360
-167 -758 -262 -1313 -313 -404 -37 -851 -55 -1940 -76 -608 -11 -708 -18
-788 -55 -80 -37 -187 -144 -228 -230 l-34 -69 0 -196 c0 -171 4 -216 30 -365
17 -93 50 -289 75 -435 l45 -265 0 -362 c0 -392 -3 -424 -64 -598 -22 -66 -34
-94 -91 -220 -37 -82 -158 -255 -230 -328 -182 -184 -380 -254 -644 -227 -204
21 -254 59 -289 217 -19 91 -21 134 -26 568 -3 386 -8 504 -25 661 -63 574
-200 1094 -436 1654 -125 295 -209 443 -334 588 -232 268 -465 414 -946 593
-121 45 -251 97 -290 116 -175 88 -295 213 -346 361 -18 53 -19 114 -19 1887
0 1622 2 1838 15 1886 19 66 29 87 78 166 92 149 181 191 549 263 204 40 332
97 523 234 260 187 301 211 433 255 192 65 329 71 1555 71 678 0 1027 3 1027
10 0 6 102 10 287 10 l288 0 150 41 c142 39 302 76 335 78 8 0 -23 -20 -70
-44z m298 -194 c2 -7 -5 -15 -17 -18 -12 -3 -21 -8 -21 -12 0 -4 -17 -13 -37
-20 -21 -8 -72 -38 -113 -67 -113 -81 -195 -185 -244 -307 -26 -66 -27 -75
-24 -225 3 -149 5 -160 32 -222 69 -150 176 -271 298 -333 134 -68 117 -67
1111 -67 491 -1 936 -5 989 -9 176 -16 255 -57 421 -222 94 -92 98 -99 95
-135 -2 -20 -8 -39 -14 -41 -16 -5 -83 44 -163 118 -77 73 -192 138 -281 160
-45 11 -245 14 -1085 14 -1151 0 -1079 4 -1235 -72 -105 -51 -220 -168 -275
-278 l-40 -80 -3 -172 c-3 -171 -3 -171 27 -242 86 -202 248 -348 436 -393 36
-8 386 -13 1265 -17 l1215 -6 65 -22 c82 -28 131 -61 238 -159 96 -89 142
-146 142 -181 0 -56 -58 -33 -161 63 -90 84 -171 136 -261 165 l-73 24 -1235
0 -1235 0 -75 -28 c-174 -64 -288 -165 -366 -322 l-49 -98 -3 -148 -4 -147 34
-84 c80 -195 216 -333 387 -390 l66 -23 1285 -6 c1396 -6 1335 -4 1488 -61 94
-35 282 -237 282 -302 -1 -67 -35 -55 -163 57 -114 100 -156 126 -263 164
l-79 28 -1230 3 c-866 2 -1255 0 -1315 -8 -220 -29 -400 -158 -495 -354 l-45
-92 0 -161 c0 -164 1 -169 48 -273 29 -65 114 -179 166 -224 62 -53 149 -99
231 -123 54 -16 144 -18 907 -23 767 -4 849 -7 864 -21 23 -23 10 -55 -28 -68
-21 -8 -292 -11 -867 -11 -928 0 -918 -1 -1078 65 -148 62 -250 146 -332 274
-77 120 -81 142 -81 404 l0 232 28 60 c16 33 62 110 104 170 76 113 108 186
108 250 0 39 -44 142 -104 245 -21 35 -48 97 -62 137 -24 72 -25 83 -22 286
l3 212 31 66 c18 37 56 102 87 145 91 132 127 211 127 281 0 35 -33 112 -101
233 -78 141 -89 190 -89 414 0 260 12 294 167 491 155 197 168 260 88 430 -96
204 -95 197 -95 449 l0 224 44 89 c80 159 225 274 396 314 84 20 181 20 188 0z
m1976 -56 c125 -60 236 -165 236 -222 0 -59 -53 -36 -165 72 -44 42 -107 95
-140 118 -33 22 -62 44 -63 49 -2 4 -8 6 -13 2 -5 -3 -9 1 -9 9 0 24 75 11
154 -28z"/>
</g>
</svg>
