<?xml version="1.0" standalone="no"?>
<!DOCTYPE svg PUBLIC "-//W3C//DTD SVG 20010904//EN"
 "http://www.w3.org/TR/2001/REC-SVG-20010904/DTD/svg10.dtd">
<svg version="1.0" xmlns="http://www.w3.org/2000/svg"
 width="2048.000000pt" height="2048.000000pt" viewBox="0 0 2048.000000 2048.000000"
 preserveAspectRatio="xMidYMid meet">
<metadata>
Created by potrace 1.13, written by Peter Selinger 2001-2015
</metadata>
<g transform="translate(0.000000,2048.000000) scale(0.192120,-0.192120)"
fill="#000000" stroke="none">
<path d="M4540 10310 c-245 -23 -462 -64 -680 -127 -889 -257 -1645 -878
-2058 -1691 -208 -409 -318 -804 -352 -1267 -7 -97 -10 -384 -7 -815 3 -634 4
-669 24 -751 82 -335 265 -542 548 -620 98 -27 226 -29 306 -6 75 22 172 89
217 149 35 46 37 48 44 26 3 -13 6 -39 7 -58 2 -54 38 -175 77 -256 111 -227
354 -391 629 -426 113 -14 215 4 323 58 81 40 191 136 232 203 14 22 27 41 30
41 3 0 14 -30 24 -66 63 -219 212 -406 416 -522 31 -17 98 -46 150 -64 87 -30
106 -33 215 -33 138 0 206 18 335 87 95 50 159 100 243 187 l67 69 2 -1767 3
-1766 23 -75 c40 -128 97 -226 181 -310 137 -137 257 -180 496 -180 237 0 346
39 476 169 85 85 143 187 182 321 l21 75 6 2965 c5 2734 6 2967 22 2995 61
111 179 110 231 -3 22 -46 22 -59 28 -602 7 -583 9 -623 59 -855 101 -464 335
-915 639 -1228 147 -151 292 -237 465 -274 111 -23 325 -13 441 21 160 48 253
117 303 224 25 52 27 67 27 182 0 152 -18 218 -129 487 -306 740 -552 1675
-701 2663 -89 592 -322 1129 -696 1600 -112 141 -398 425 -539 534 -320 248
-672 435 -1040 554 -211 68 -389 108 -622 137 -146 19 -533 27 -668 15z m440
-270 c458 -27 853 -131 1251 -331 742 -371 1296 -1015 1533 -1781 52 -168 85
-321 120 -548 63 -405 160 -878 267 -1303 96 -381 275 -937 404 -1252 117
-287 114 -278 115 -446 0 -169 -2 -174 -105 -210 -165 -58 -381 -42 -542 39
-115 59 -269 215 -390 396 -206 310 -324 614 -384 994 -20 122 -23 193 -29
657 -4 319 -11 535 -18 559 -34 123 -155 275 -257 322 -101 48 -172 26 -293
-90 -75 -72 -121 -142 -148 -226 -5 -14 -11 -1334 -14 -2935 l-5 -2910 -27
-89 c-62 -202 -145 -275 -339 -298 -170 -20 -335 19 -426 100 -38 34 -88 117
-102 169 -43 158 -41 83 -41 1779 -1 1731 1 1663 -52 1769 -29 55 -131 159
-174 175 -51 20 -104 -1 -271 -107 -223 -141 -382 -166 -573 -91 -135 53 -219
126 -315 273 -82 126 -155 210 -222 254 -77 51 -110 43 -283 -70 -123 -80
-179 -104 -265 -114 -136 -15 -334 57 -439 160 -47 46 -69 81 -126 199 -71
147 -125 220 -204 278 -58 42 -96 38 -235 -24 l-116 -53 -110 1 c-129 0 -189
19 -283 89 -71 52 -140 156 -171 259 -21 67 -21 84 -21 925 0 802 1 863 20
971 58 346 168 654 340 955 248 434 630 824 1070 1090 449 273 975 436 1500
465 74 4 146 8 160 8 14 1 104 -3 200 -8z"/>
</g>
</svg>
