<?xml version="1.0" standalone="no"?>
<!DOCTYPE svg PUBLIC "-//W3C//DTD SVG 20010904//EN"
 "http://www.w3.org/TR/2001/REC-SVG-20010904/DTD/svg10.dtd">
<svg version="1.0" xmlns="http://www.w3.org/2000/svg"
 width="2048.000000pt" height="2048.000000pt" viewBox="0 0 2048.000000 2048.000000"
 preserveAspectRatio="xMidYMid meet">
<metadata>
Created by potrace 1.13, written by Peter Selinger 2001-2015
</metadata>
<g transform="translate(0.000000,2048.000000) scale(0.192120,-0.192120)"
fill="#000000" stroke="none">
<path d="M4545 10309 c-977 -79 -1872 -571 -2452 -1349 -319 -426 -534 -938
-612 -1453 -37 -239 -43 -418 -38 -1107 3 -622 5 -659 24 -741 66 -269 198
-457 392 -558 263 -137 542 -103 680 81 39 53 49 49 50 -23 2 -111 82 -301
171 -408 126 -152 325 -257 535 -283 113 -14 215 4 323 58 81 40 191 136 232
203 14 22 28 41 31 41 3 0 14 -30 24 -66 108 -398 543 -689 911 -610 155 34
322 133 451 269 l63 65 2 -1767 3 -1766 23 -75 c40 -128 97 -226 181 -310 137
-137 257 -180 496 -180 236 0 344 38 476 170 86 85 143 187 182 325 l22 80 5
2960 c5 2730 6 2962 22 2990 61 111 179 110 231 -3 22 -46 22 -59 28 -602 7
-583 9 -623 59 -855 101 -464 335 -915 639 -1228 145 -149 274 -226 449 -268
74 -18 107 -21 227 -16 276 11 460 98 533 255 25 52 27 67 27 182 0 152 -18
218 -128 486 -302 728 -559 1698 -692 2604 -94 640 -306 1142 -691 1640 -114
148 -406 440 -554 554 -538 417 -1143 652 -1814 706 -146 11 -363 11 -511 -1z
m705 -253 c696 -99 1305 -401 1796 -891 296 -295 478 -558 640 -923 127 -287
175 -471 264 -1012 143 -875 394 -1805 659 -2442 96 -231 101 -250 101 -422
l0 -149 -35 -33 c-68 -64 -265 -103 -421 -84 -258 32 -443 173 -664 507 -162
245 -297 560 -349 818 -52 259 -54 286 -61 830 -4 286 -12 538 -17 560 -17 71
-69 158 -125 211 -136 129 -235 125 -372 -11 -63 -63 -99 -119 -120 -185 -7
-25 -12 -905 -16 -2950 l-5 -2915 -22 -59 c-13 -33 -23 -65 -23 -73 0 -8 -12
-40 -27 -71 -38 -80 -114 -153 -188 -181 -125 -47 -343 -48 -465 -2 -115 43
-211 146 -244 261 -48 171 -46 76 -46 1791 -1 1738 1 1674 -56 1778 -31 58
-95 117 -142 130 -43 13 -109 -13 -232 -91 -139 -87 -197 -115 -272 -133 -130
-31 -275 -9 -411 62 -98 50 -204 159 -282 287 -39 63 -84 120 -127 162 -105
99 -134 97 -311 -18 -122 -80 -174 -105 -249 -118 -170 -30 -403 57 -522 193
-40 44 -63 87 -163 292 -26 54 -102 138 -145 161 -43 22 -88 17 -168 -22 -173
-83 -277 -96 -417 -49 -176 59 -297 193 -348 385 -23 84 -22 1716 0 1858 98
614 382 1166 835 1622 518 522 1189 846 1935 935 164 19 654 14 815 -9z"/>
</g>
</svg>
