<?xml version="1.0" standalone="no"?>
<!DOCTYPE svg PUBLIC "-//W3C//DTD SVG 20010904//EN"
 "http://www.w3.org/TR/2001/REC-SVG-20010904/DTD/svg10.dtd">
<svg version="1.0" xmlns="http://www.w3.org/2000/svg"
 width="2048.000000pt" height="2048.000000pt" viewBox="0 0 2048.000000 2048.000000"
 preserveAspectRatio="xMidYMid meet">
<metadata>
Created by potrace 1.13, written by Peter Selinger 2001-2015
</metadata>
<g transform="translate(0.000000,2048.000000) scale(0.192120,-0.192120)"
fill="#000000" stroke="none">
<path d="M4595 10314 c-206 -20 -278 -29 -395 -50 -554 -101 -1071 -338 -1525
-700 -141 -113 -386 -358 -499 -499 -406 -509 -639 -1070 -712 -1715 -20 -178
-32 -1404 -15 -1548 40 -341 187 -585 424 -700 267 -132 519 -98 667 89 l39
49 6 -58 c19 -161 83 -320 172 -424 146 -172 389 -288 601 -288 192 0 366 90
481 248 l45 61 17 -64 c73 -283 300 -513 599 -607 110 -34 273 -32 385 5 122
40 244 118 352 223 l93 91 -2 -1761 -3 -1761 23 -80 c39 -137 87 -220 177
-310 88 -89 163 -135 273 -166 86 -24 356 -27 442 -4 198 53 353 205 424 418
45 135 44 48 51 3107 7 3150 3 2966 62 3022 70 67 149 52 196 -36 22 -40 22
-50 28 -601 7 -587 9 -626 59 -860 104 -490 362 -975 676 -1275 190 -181 394
-259 644 -247 268 13 455 105 526 260 27 58 29 70 28 182 -1 147 -17 203 -140
508 -296 734 -526 1611 -673 2567 -72 468 -154 736 -332 1092 -259 516 -644
952 -1124 1273 -443 296 -914 472 -1445 540 -117 16 -533 28 -625 19z m640
-269 c1101 -152 2013 -829 2448 -1815 113 -258 179 -511 252 -975 133 -842
388 -1811 637 -2420 120 -293 118 -286 118 -467 0 -159 0 -159 -26 -183 -33
-30 -114 -61 -196 -75 -195 -31 -385 12 -541 124 -251 179 -526 637 -646 1076
-31 113 -70 350 -81 491 -5 68 -10 312 -10 541 0 448 -3 475 -53 574 -30 58
-151 178 -201 199 -50 21 -103 18 -159 -8 -59 -28 -176 -142 -205 -201 -56
-111 -52 87 -62 -3036 -9 -2873 -9 -2885 -29 -2950 -11 -36 -21 -72 -21 -81 0
-27 -58 -131 -93 -167 -78 -82 -169 -112 -342 -112 -182 0 -287 35 -373 123
-48 50 -102 149 -102 187 0 15 -8 47 -17 71 -17 41 -18 154 -23 1719 l-5 1675
-28 53 c-33 63 -86 124 -134 153 -58 36 -117 19 -271 -82 -97 -63 -202 -114
-267 -129 -182 -42 -405 25 -549 166 -30 29 -86 104 -124 166 -106 171 -219
269 -290 252 -40 -10 -98 -41 -177 -94 -155 -104 -250 -132 -380 -112 -143 22
-256 76 -350 167 -56 54 -71 80 -146 243 -50 107 -79 147 -157 214 -43 38 -49
40 -96 36 -31 -3 -85 -21 -136 -46 -108 -51 -149 -62 -230 -62 -221 0 -401
135 -479 358 -21 62 -21 68 -21 940 0 966 -2 921 64 1203 53 224 169 512 293
727 483 842 1347 1417 2328 1551 207 28 218 29 505 26 168 -2 296 -9 375 -20z"/>
</g>
</svg>
