<?xml version="1.0" standalone="no"?>
<!DOCTYPE svg PUBLIC "-//W3C//DTD SVG 20010904//EN"
 "http://www.w3.org/TR/2001/REC-SVG-20010904/DTD/svg10.dtd">
<svg version="1.0" xmlns="http://www.w3.org/2000/svg"
 width="2048.000000pt" height="2048.000000pt" viewBox="0 0 2048.000000 2048.000000"
 preserveAspectRatio="xMidYMid meet">
<metadata>
Created by potrace 1.13, written by Peter Selinger 2001-2015
</metadata>
<g transform="translate(0.000000,2048.000000) scale(0.192120,-0.192120)"
fill="#000000" stroke="none">
<path d="M6715 10205 c-159 -34 -291 -117 -399 -249 l-36 -43 -133 -5 c-107
-5 -146 -10 -205 -31 -271 -94 -456 -339 -469 -622 -5 -97 2 -137 191 -1170
107 -588 203 -1110 212 -1160 l17 -90 82 -90 c116 -129 293 -337 505 -594 309
-374 359 -432 524 -612 345 -376 356 -390 417 -533 29 -70 55 -121 57 -112 2
8 -4 103 -12 209 -41 506 -123 931 -241 1252 -81 219 -1023 2934 -1046 3015
-20 69 -17 253 5 325 10 33 24 72 32 86 l13 27 47 -16 c43 -14 51 -14 103 4
31 10 85 36 121 58 176 106 287 137 422 118 148 -21 289 -108 352 -217 44 -75
78 -170 542 -1508 255 -736 466 -1342 470 -1348 10 -16 92 -261 135 -403 84
-278 163 -700 199 -1067 8 -79 10 -303 7 -710 -4 -509 -7 -624 -26 -802 -81
-797 -232 -1403 -471 -1892 -101 -206 -208 -366 -572 -852 -261 -348 -670
-533 -1293 -583 -158 -13 -1587 -13 -1780 0 -710 47 -1274 239 -1754 597 -143
107 -420 381 -517 513 -340 459 -547 989 -643 1646 -19 123 -21 188 -21 574
l0 435 24 50 c55 118 198 205 367 225 216 25 413 -77 480 -248 21 -52 23 -80
30 -327 4 -148 12 -319 19 -380 24 -235 75 -498 120 -617 48 -129 176 -276
287 -329 80 -38 1148 -394 1231 -410 133 -25 206 -12 547 101 171 56 339 116
374 133 70 32 155 96 215 161 74 79 883 1096 938 1178 163 246 177 370 67 590
-122 242 -247 410 -805 1078 -203 243 -275 318 -390 408 -58 44 -142 82 -185
82 -49 0 -143 -30 -270 -86 -57 -25 -158 -67 -224 -93 -66 -27 -203 -84 -305
-129 -775 -337 -1245 -524 -1402 -556 -130 -27 -253 -15 -350 35 -64 33 -144
115 -178 182 -29 59 -30 63 -30 213 l0 152 36 53 c20 30 51 68 70 84 19 17 34
36 34 43 0 28 98 77 353 178 645 254 1414 601 2233 1007 128 63 245 116 261
119 62 9 88 -9 274 -187 100 -96 214 -200 253 -230 61 -46 80 -55 128 -61 54
-6 58 -5 87 24 17 17 31 37 31 44 0 23 -164 203 -431 473 l-247 250 -539 -267
c-946 -469 -1615 -768 -2230 -998 -100 -38 -208 -85 -240 -105 -130 -83 -237
-218 -290 -370 -25 -72 -28 -93 -28 -215 0 -144 14 -210 70 -319 84 -166 252
-301 435 -350 212 -56 298 -40 765 144 384 151 1024 432 1450 635 72 34 171
82 222 106 l92 43 143 -167 c264 -308 530 -628 760 -917 109 -137 303 -455
313 -513 16 -95 21 -87 -535 -782 -288 -359 -530 -652 -546 -661 -41 -23 -786
-269 -814 -269 -13 0 -331 102 -705 227 l-682 227 -26 95 c-89 324 -131 693
-120 1046 6 165 -10 247 -73 375 -65 132 -170 237 -301 302 -123 62 -215 82
-352 76 -182 -8 -328 -73 -456 -203 -80 -81 -126 -153 -160 -252 -37 -106 -45
-181 -45 -433 0 -1180 404 -2226 1105 -2862 421 -382 907 -624 1490 -743 397
-81 522 -87 1575 -82 936 4 923 3 1205 58 514 100 921 376 1179 799 25 41 77
113 116 160 376 450 645 1117 784 1950 153 910 150 1899 -9 2735 -51 270 -148
628 -221 816 -20 52 -258 734 -530 1517 -287 828 -509 1452 -531 1495 -58 111
-172 220 -293 279 -149 73 -308 95 -455 63z m-672 -825 c9 -41 29 -118 45
-170 31 -101 869 -2521 970 -2800 32 -91 73 -212 90 -270 68 -234 74 -267 79
-443 l5 -169 -27 18 c-39 25 -290 297 -419 453 -210 255 -554 666 -619 741
-79 90 -97 145 -97 298 0 115 -1 124 -196 1192 l-144 795 0 170 0 171 33 54
c39 66 136 143 205 163 l47 14 6 -71 c3 -39 13 -105 22 -146z"/>
</g>
</svg>
