<?xml version="1.0" standalone="no"?>
<!DOCTYPE svg PUBLIC "-//W3C//DTD SVG 20010904//EN"
 "http://www.w3.org/TR/2001/REC-SVG-20010904/DTD/svg10.dtd">
<svg version="1.0" xmlns="http://www.w3.org/2000/svg"
 width="2048.000000pt" height="2048.000000pt" viewBox="0 0 2048.000000 2048.000000"
 preserveAspectRatio="xMidYMid meet">
<metadata>
Created by potrace 1.13, written by Peter Selinger 2001-2015
</metadata>
<g transform="translate(0.000000,2048.000000) scale(0.192120,-0.192120)"
fill="#000000" stroke="none">
<path d="M4545 10309 c-1292 -104 -2410 -926 -2878 -2114 -125 -318 -193 -622
-217 -980 -8 -103 -10 -394 -7 -815 3 -622 5 -659 24 -741 66 -269 198 -457
392 -558 263 -137 542 -103 680 81 39 53 49 49 50 -23 2 -61 38 -183 80 -267
92 -183 249 -315 462 -387 201 -69 385 -51 545 54 61 39 168 147 187 188 5 12
13 23 17 23 4 0 15 -30 25 -66 108 -398 543 -689 911 -610 155 34 322 133 452
269 l62 65 0 -1731 c0 -1678 1 -1735 20 -1827 29 -144 93 -265 189 -360 138
-137 257 -180 496 -180 237 0 346 39 476 169 86 86 143 188 182 326 l22 80 5
2960 c5 2730 6 2962 22 2990 61 111 179 110 231 -3 22 -46 22 -59 28 -602 7
-583 9 -623 59 -855 101 -464 335 -915 639 -1228 145 -150 274 -227 449 -268
73 -18 108 -20 222 -16 279 10 465 98 538 255 25 52 27 67 27 182 0 152 -18
218 -128 486 -179 431 -311 841 -446 1381 -105 418 -191 847 -246 1223 -94
641 -304 1139 -691 1640 -114 147 -406 440 -554 554 -538 417 -1143 652 -1814
706 -146 11 -363 11 -511 -1z m685 -234 c525 -72 989 -251 1407 -542 615 -427
1060 -1066 1230 -1767 35 -147 49 -220 83 -436 140 -897 408 -1902 679 -2548
94 -224 101 -253 101 -407 0 -155 -9 -186 -64 -222 -68 -44 -153 -65 -287 -70
-159 -7 -245 10 -373 75 -158 80 -336 278 -507 562 -152 255 -249 529 -306
870 -25 148 -26 179 -33 675 -4 304 -11 535 -17 555 -34 115 -125 231 -210
267 -47 19 -118 16 -162 -7 -57 -28 -144 -117 -173 -175 -62 -123 -58 100 -58
-3051 0 -1589 -4 -2885 -9 -2904 -44 -177 -68 -228 -146 -306 -92 -92 -145
-109 -350 -109 -152 0 -164 1 -239 29 -65 24 -90 40 -140 90 -67 67 -111 140
-125 208 -5 23 -16 75 -25 113 -14 62 -16 253 -16 1675 0 1695 1 1638 -44
1742 -21 48 -87 114 -130 128 -45 15 -107 -9 -231 -90 -233 -150 -380 -179
-582 -115 -169 53 -279 145 -392 327 -75 121 -168 222 -217 234 -45 11 -92 -6
-191 -73 -154 -104 -210 -126 -322 -131 -118 -6 -182 8 -297 63 -157 76 -234
162 -320 361 -40 93 -56 118 -110 172 -58 57 -67 62 -106 62 -29 0 -68 -12
-118 -36 -160 -76 -256 -91 -384 -58 -172 44 -300 160 -376 339 l-25 60 0 945
0 945 23 100 c58 252 91 361 168 548 205 503 591 983 1063 1320 467 335 1025
541 1611 597 141 13 584 4 720 -15z"/>
</g>
</svg>
