<?xml version="1.0" standalone="no"?>
<!DOCTYPE svg PUBLIC "-//W3C//DTD SVG 20010904//EN"
 "http://www.w3.org/TR/2001/REC-SVG-20010904/DTD/svg10.dtd">
<svg version="1.0" xmlns="http://www.w3.org/2000/svg"
 width="2048.000000pt" height="2048.000000pt" viewBox="0 0 2048.000000 2048.000000"
 preserveAspectRatio="xMidYMid meet">
<metadata>
Created by potrace 1.13, written by Peter Selinger 2001-2015
</metadata>
<g transform="translate(0.000000,2048.000000) scale(0.192120,-0.192120)"
fill="#000000" stroke="none">
<path d="M3910 10316 c-207 -44 -346 -149 -434 -327 -90 -183 -80 164 -86
-3179 l-5 -2965 -24 -48 c-43 -88 -122 -112 -185 -57 -65 57 -65 59 -70 635
-4 536 -8 596 -52 824 -120 628 -523 1289 -903 1481 -142 71 -205 85 -381 85
-175 0 -256 -15 -375 -70 -184 -85 -259 -236 -226 -455 14 -90 73 -263 170
-497 197 -480 395 -1164 541 -1878 37 -181 69 -364 130 -742 110 -685 433
-1315 930 -1813 649 -651 1539 -1005 2450 -977 876 28 1685 374 2295 982 518
516 829 1130 946 1870 22 134 23 173 26 905 4 745 4 769 -17 868 -68 336 -232
543 -505 639 -72 25 -93 28 -211 28 l-130 0 -75 -37 c-72 -36 -139 -94 -180
-157 -15 -24 -16 -23 -22 50 -8 95 -38 192 -90 294 -31 61 -63 102 -132 171
-82 83 -102 97 -205 147 -63 31 -146 63 -185 73 -85 20 -221 23 -295 5 -127
-31 -259 -118 -336 -224 -25 -34 -49 -62 -52 -62 -3 0 -12 27 -21 60 -100 361
-473 643 -822 622 -191 -12 -412 -128 -559 -295 l-50 -57 0 1750 c0 1892 2
1808 -53 1945 -64 158 -167 275 -300 339 -45 23 -109 48 -142 57 -82 22 -282
27 -365 10z m311 -240 c87 -19 176 -65 229 -118 46 -47 66 -81 101 -178 l24
-65 5 -1665 c4 -1387 7 -1671 19 -1700 7 -19 20 -55 29 -79 19 -57 88 -140
138 -167 35 -20 44 -21 84 -10 25 7 90 41 145 76 55 35 129 79 165 97 282 142
628 28 810 -266 105 -169 206 -271 270 -271 31 0 106 39 188 99 93 68 162 98
250 111 155 22 336 -32 466 -140 70 -58 104 -104 148 -200 21 -47 44 -96 51
-110 25 -54 98 -147 138 -177 59 -46 89 -43 222 19 101 47 120 52 196 56 214
12 399 -93 488 -276 l38 -77 3 -930 c4 -994 5 -966 -49 -1193 -171 -727 -646
-1403 -1281 -1823 -453 -299 -937 -472 -1483 -530 -163 -17 -514 -14 -680 6
-397 47 -729 147 -1080 325 -581 294 -1012 709 -1327 1280 -88 159 -133 257
-198 437 -71 195 -113 377 -180 778 -150 902 -370 1740 -622 2369 -151 377
-150 375 -156 517 -3 79 0 134 6 146 6 11 37 33 69 50 168 88 458 88 630 -1
122 -63 247 -178 362 -331 257 -341 401 -717 462 -1200 6 -49 15 -308 19 -575
4 -267 12 -503 17 -525 23 -97 91 -203 170 -267 108 -87 207 -77 314 33 53 54
117 173 132 247 7 31 13 1039 16 2962 6 2647 8 2920 22 2966 51 162 161 264
323 299 81 18 225 18 307 1z"/>
</g>
</svg>
