<?xml version="1.0" standalone="no"?>
<!DOCTYPE svg PUBLIC "-//W3C//DTD SVG 20010904//EN"
 "http://www.w3.org/TR/2001/REC-SVG-20010904/DTD/svg10.dtd">
<svg version="1.0" xmlns="http://www.w3.org/2000/svg"
 width="2048.000000pt" height="2048.000000pt" viewBox="0 0 2048.000000 2048.000000"
 preserveAspectRatio="xMidYMid meet">
<metadata>
Created by potrace 1.13, written by Peter Selinger 2001-2015
</metadata>
<g transform="translate(0.000000,2048.000000) scale(0.192120,-0.192120)"
fill="#000000" stroke="none">
<path d="M4214 9211 c-153 -39 -261 -180 -305 -397 -25 -119 -22 -320 5 -419
46 -168 137 -304 307 -460 331 -305 825 -540 1299 -619 210 -35 283 -39 787
-41 502 -3 514 -4 558 -25 50 -24 85 -72 85 -118 0 -35 -37 -84 -84 -110 -29
-16 -220 -17 -2986 -22 l-2955 -5 -85 -23 c-254 -68 -424 -225 -486 -452 -25
-90 -25 -318 -1 -410 28 -106 82 -205 155 -281 78 -84 163 -136 292 -181 l95
-33 1773 -3 1772 -2 -65 -62 c-121 -113 -211 -253 -257 -398 -19 -61 -23 -96
-22 -190 0 -103 4 -125 33 -212 81 -236 238 -412 464 -518 46 -22 108 -45 136
-52 28 -6 51 -14 51 -18 0 -3 -13 -14 -29 -23 -52 -30 -138 -116 -177 -175
-108 -161 -128 -349 -60 -549 105 -309 336 -503 645 -545 l90 -11 -47 -33
c-133 -95 -200 -267 -172 -441 24 -152 76 -258 174 -361 105 -110 234 -183
424 -242 196 -59 205 -60 901 -60 350 0 690 5 756 10 1098 94 2068 726 2614
1703 215 383 345 786 408 1253 24 180 24 618 0 799 -43 322 -123 622 -239 895
-386 908 -1134 1587 -2080 1888 -160 51 -353 93 -583 127 -575 84 -1290 248
-1845 422 -276 86 -397 129 -674 240 -332 133 -401 154 -536 159 -58 2 -119 0
-136 -5z m201 -251 c98 -15 166 -37 450 -149 295 -117 502 -189 778 -270 578
-171 1163 -301 1782 -396 514 -80 929 -235 1332 -501 439 -290 810 -707 1042
-1170 108 -216 183 -425 243 -674 l32 -135 4 -540 c4 -577 4 -580 -49 -802
-175 -747 -654 -1434 -1294 -1857 -374 -248 -767 -404 -1198 -475 -216 -36
-329 -41 -988 -41 -701 0 -723 1 -894 57 -166 54 -294 134 -349 218 -52 81
-56 97 -56 231 l0 124 39 78 c50 99 71 150 71 174 0 36 -48 113 -103 165 -41
39 -91 69 -203 123 -130 63 -156 80 -213 138 -45 45 -78 92 -104 143 l-37 76
0 151 0 151 53 79 c146 213 167 274 126 359 -29 62 -125 156 -218 213 -180
112 -237 169 -306 304 l-35 69 0 165 0 165 31 56 c18 31 55 92 84 136 69 107
115 205 115 248 0 84 -106 198 -224 240 -22 8 -508 13 -1691 17 -1845 7 -1724
2 -1870 74 -79 39 -141 98 -179 171 -25 49 -26 54 -26 241 l0 192 33 48 c60
89 193 158 357 184 43 6 1009 10 2905 10 1753 0 2865 4 2906 10 98 14 153 42
225 115 47 46 74 85 99 139 45 96 46 149 6 232 -34 71 -148 185 -213 214 -77
34 -162 40 -573 40 -518 0 -678 14 -945 80 -336 83 -631 223 -900 426 -173
131 -307 292 -339 409 -6 22 -11 119 -11 216 0 174 0 178 28 230 48 93 126
120 277 99z"/>
</g>
</svg>
