<?xml version="1.0" standalone="no"?>
<!DOCTYPE svg PUBLIC "-//W3C//DTD SVG 20010904//EN"
 "http://www.w3.org/TR/2001/REC-SVG-20010904/DTD/svg10.dtd">
<svg version="1.0" xmlns="http://www.w3.org/2000/svg"
 width="2048.000000pt" height="2048.000000pt" viewBox="0 0 2048.000000 2048.000000"
 preserveAspectRatio="xMidYMid meet">
<metadata>
Created by potrace 1.13, written by Peter Selinger 2001-2015
</metadata>
<g transform="translate(0.000000,2048.000000) scale(0.192120,-0.192120)"
fill="#000000" stroke="none">
<path d="M6715 10205 c-128 -29 -233 -85 -325 -172 -39 -36 -78 -78 -87 -93
-16 -27 -17 -28 -152 -33 -111 -4 -149 -9 -209 -30 -282 -98 -472 -363 -472
-659 0 -45 67 -435 200 -1166 110 -603 205 -1124 211 -1157 10 -49 20 -69 58
-110 87 -93 405 -468 636 -750 127 -154 262 -313 300 -355 90 -96 330 -361
421 -465 59 -67 78 -100 123 -205 29 -69 56 -127 58 -130 7 -7 -4 164 -23 365
-44 455 -130 856 -254 1180 -46 120 -1000 2871 -1021 2945 -7 26 -13 94 -13
160 1 96 5 128 27 195 15 44 40 101 56 126 l29 47 69 4 c46 2 81 11 108 26
218 120 272 136 430 129 134 -6 209 -32 325 -114 92 -64 142 -136 203 -289 19
-49 233 -660 475 -1359 242 -698 460 -1324 485 -1390 170 -456 274 -915 332
-1452 18 -166 22 -1225 5 -1340 -5 -38 -21 -183 -35 -323 -103 -1015 -379
-1812 -810 -2340 -34 -41 -75 -95 -91 -120 -133 -198 -142 -210 -272 -344
-209 -216 -492 -362 -836 -431 -278 -56 -301 -57 -1151 -62 -1005 -6 -1208 4
-1580 78 -835 166 -1490 602 -1934 1289 -221 341 -415 864 -495 1332 -46 272
-48 293 -44 753 l3 440 29 57 c56 111 181 213 310 254 33 10 56 24 59 34 8 32
142 40 260 15 97 -20 177 -67 252 -147 82 -86 109 -129 140 -222 23 -69 25
-89 25 -263 0 -396 57 -827 138 -1047 33 -91 114 -174 211 -219 61 -27 990
-339 1161 -389 109 -32 236 -30 356 5 111 32 529 176 604 207 87 37 171 102
247 192 132 157 796 992 853 1072 31 45 70 110 86 146 26 58 29 76 29 165 l0
101 -58 116 c-122 242 -223 378 -738 993 -293 351 -374 434 -459 474 -36 17
-81 31 -101 31 -80 0 -254 -67 -794 -305 -795 -351 -1227 -524 -1397 -559
-239 -49 -436 18 -569 194 -78 103 -89 143 -89 325 0 144 2 158 25 207 25 53
33 64 130 174 69 78 106 97 475 242 324 127 706 291 1115 480 138 63 318 146
400 184 83 38 322 153 532 254 211 103 399 188 421 191 25 3 50 0 68 -10 17
-9 106 -88 200 -177 194 -185 268 -240 324 -240 23 0 43 7 54 18 15 18 9 26
-128 173 -79 85 -212 221 -295 304 l-150 149 -538 -266 c-895 -443 -1577 -751
-2133 -962 -96 -36 -200 -76 -230 -88 -313 -123 -493 -476 -410 -804 80 -316
351 -527 675 -527 119 0 168 12 387 94 467 176 1186 488 1737 755 118 57 215
104 216 104 5 0 255 -291 446 -520 414 -497 549 -672 662 -863 72 -120 108
-192 112 -221 8 -48 -6 -108 -32 -146 -53 -75 -990 -1240 -1020 -1267 -30 -27
-98 -53 -428 -163 -215 -71 -402 -130 -415 -130 -13 0 -331 102 -706 227
l-683 227 -30 116 c-86 326 -127 685 -114 1010 6 181 -8 257 -73 390 -38 77
-62 110 -128 176 -135 135 -302 203 -497 204 -306 0 -579 -212 -664 -515 -23
-80 -32 -493 -16 -707 88 -1150 520 -2077 1239 -2653 472 -379 1009 -591 1722
-682 116 -14 261 -17 1030 -20 777 -4 916 -2 1055 12 275 28 460 69 662 145
343 129 640 378 836 700 25 41 67 99 92 129 448 523 752 1358 864 2376 82 737
77 1394 -15 2035 -63 440 -155 811 -293 1182 -33 90 -272 774 -531 1522 -270
780 -486 1389 -507 1430 -48 91 -163 208 -256 260 -107 60 -205 87 -327 92
-67 2 -127 -2 -165 -11z m-722 -662 c12 -187 5 -162 544 -1718 261 -753 500
-1440 529 -1525 30 -85 70 -216 89 -290 31 -121 35 -149 35 -267 0 -73 -4
-133 -9 -133 -19 0 -267 274 -461 510 -111 135 -297 357 -413 493 -168 196
-216 259 -230 300 -10 29 -38 162 -62 297 -24 135 -107 592 -184 1017 l-141
772 0 188 c0 170 2 191 21 231 30 60 112 141 184 179 90 49 91 48 98 -54z"/>
</g>
</svg>
