<?xml version="1.0" standalone="no"?>
<!DOCTYPE svg PUBLIC "-//W3C//DTD SVG 20010904//EN"
 "http://www.w3.org/TR/2001/REC-SVG-20010904/DTD/svg10.dtd">
<svg version="1.0" xmlns="http://www.w3.org/2000/svg"
 width="2048.000000pt" height="2048.000000pt" viewBox="0 0 2048.000000 2048.000000"
 preserveAspectRatio="xMidYMid meet">
<metadata>
Created by potrace 1.13, written by Peter Selinger 2001-2015
</metadata>
<g transform="translate(0.000000,2048.000000) scale(0.192120,-0.192120)"
fill="#000000" stroke="none">
<path d="M4970 10159 c-658 -44 -1411 -245 -1880 -501 -743 -406 -1140 -979
-1255 -1809 -22 -161 -30 -548 -16 -749 42 -565 170 -1156 418 -1930 198 -617
283 -983 357 -1540 46 -342 63 -528 106 -1135 34 -488 52 -680 81 -880 111
-775 393 -1130 988 -1245 301 -59 889 -49 1320 20 550 89 973 288 1310 614
429 417 684 947 875 1821 70 321 132 498 276 790 124 251 183 351 490 815 277
420 352 542 463 747 245 452 393 912 463 1436 21 160 29 543 15 706 -52 585
-258 1109 -609 1548 -714 895 -2007 1385 -3402 1292z m635 -249 c209 -14 384
-36 565 -71 330 -64 501 -117 960 -296 451 -176 984 -635 1253 -1078 149 -246
262 -532 325 -824 l27 -126 0 -480 c0 -527 2 -500 -71 -820 -90 -387 -270
-815 -507 -1200 -17 -27 -137 -212 -267 -410 -290 -441 -387 -600 -501 -820
-144 -278 -218 -466 -304 -775 -19 -69 -48 -170 -65 -225 -16 -55 -43 -153
-60 -217 -199 -778 -543 -1317 -1026 -1609 -419 -253 -1012 -374 -1744 -356
-327 8 -502 42 -685 131 -302 149 -433 426 -509 1081 -21 182 -32 310 -66 786
-56 789 -111 1229 -212 1704 -67 317 -120 508 -311 1110 -128 406 -209 734
-284 1152 l-38 208 0 585 0 585 29 120 c95 402 266 719 525 975 170 169 401
335 606 437 91 46 386 156 572 214 567 177 1219 257 1788 219z M5125 9574
c-848 -51 -1395 -242 -1830 -638 -227 -207 -441 -532 -559 -849 -210 -564
-258 -1273 -137 -2019 29 -178 58 -303 80 -347 24 -46 88 -105 138 -127 22
-10 66 -17 104 -17 141 -2 259 102 276 241 3 31 -5 97 -25 197 -27 133 -46
250 -44 272 1 8 98 28 297 63 154 27 418 37 549 21 444 -56 718 -289 803 -682
26 -120 23 -349 -5 -481 -59 -274 -173 -491 -347 -663 -117 -116 -215 -174
-388 -232 -171 -58 -278 -108 -400 -190 -296 -197 -452 -471 -434 -763 10
-151 72 -334 142 -418 43 -51 127 -86 204 -85 78 0 125 19 183 71 93 84 113
201 56 339 -39 96 -42 169 -11 228 60 114 239 231 450 296 37 12 115 43 172
70 514 242 870 773 942 1409 16 142 6 396 -20 521 -108 508 -429 876 -911
1044 -190 66 -316 86 -570 92 -248 6 -387 -6 -623 -53 -71 -15 -130 -24 -132
-22 -8 7 15 356 30 475 100 763 467 1284 1071 1517 170 66 428 123 714 158
169 21 742 18 910 -5 786 -107 1361 -411 1707 -904 73 -104 184 -334 222 -458
83 -274 110 -592 80 -956 -31 -380 -117 -682 -272 -953 -87 -152 -161 -256
-402 -565 -214 -274 -350 -461 -392 -536 -24 -43 -28 -61 -28 -130 0 -92 19
-137 82 -196 52 -50 96 -70 162 -76 129 -12 197 31 313 199 48 70 187 254 308
410 227 290 374 500 454 646 162 296 262 619 313 1007 14 112 18 208 18 480
-1 380 -10 463 -81 735 -272 1037 -1197 1718 -2519 1855 -146 15 -529 26 -650
19z m585 -194 c582 -53 1083 -207 1490 -458 517 -319 850 -772 974 -1324 l26
-115 0 -549 c0 -590 1 -582 -56 -813 -40 -164 -121 -377 -197 -521 -89 -169
-189 -313 -449 -649 -80 -102 -192 -249 -250 -326 -113 -150 -160 -202 -196
-216 -38 -15 -95 -10 -129 11 -36 21 -50 66 -40 126 7 42 123 207 376 532 264
340 364 491 456 686 80 172 117 273 159 442 57 230 61 276 61 734 0 407 -1
430 -23 533 -57 268 -191 578 -329 762 -403 538 -1089 868 -1948 936 -208 16
-613 6 -815 -21 -495 -66 -813 -181 -1110 -400 -368 -273 -617 -728 -715
-1304 -21 -126 -25 -178 -24 -359 l0 -212 37 -55 c45 -65 103 -108 157 -115
22 -3 105 4 184 16 191 27 395 37 568 27 537 -30 961 -276 1156 -670 93 -189
91 -174 95 -594 3 -412 2 -425 -70 -624 -67 -186 -149 -326 -287 -492 -167
-200 -340 -318 -611 -420 -294 -111 -440 -217 -523 -379 l-37 -74 0 -212 c0
-210 0 -213 -22 -227 -38 -24 -65 -28 -110 -16 -54 15 -101 66 -129 139 -18
49 -20 73 -17 236 l3 181 34 67 c65 129 225 273 411 370 47 25 154 70 238 101
239 89 336 152 495 325 159 173 299 462 352 729 14 67 16 125 12 310 -5 264
-13 304 -103 488 -211 433 -686 621 -1341 529 -248 -35 -355 -83 -417 -189
l-26 -45 0 -240 c0 -225 -1 -242 -19 -260 -26 -26 -82 -36 -125 -21 -79 26
-119 128 -161 417 -21 146 -22 1199 0 1318 99 556 285 939 612 1256 375 364
848 552 1568 624 160 16 659 19 815 5z"/>
</g>
</svg>
