<?xml version="1.0" standalone="no"?>
<!DOCTYPE svg PUBLIC "-//W3C//DTD SVG 20010904//EN"
 "http://www.w3.org/TR/2001/REC-SVG-20010904/DTD/svg10.dtd">
<svg version="1.0" xmlns="http://www.w3.org/2000/svg"
 width="2048.000000pt" height="2048.000000pt" viewBox="0 0 2048.000000 2048.000000"
 preserveAspectRatio="xMidYMid meet">
<metadata>
Created by potrace 1.13, written by Peter Selinger 2001-2015
</metadata>
<g transform="translate(0.000000,2048.000000) scale(0.192120,-0.192120)"
fill="#000000" stroke="none">
<path d="M6191 9205 c-91 -20 -175 -49 -349 -122 -717 -298 -1676 -552 -2614
-693 -655 -98 -1171 -321 -1672 -722 -126 -101 -376 -352 -478 -478 -405 -507
-644 -1070 -725 -1711 -23 -184 -23 -603 0 -785 70 -554 245 -1030 543 -1481
477 -721 1199 -1224 2024 -1411 317 -72 459 -82 1208 -82 592 0 640 1 731 20
319 65 560 203 682 392 88 136 122 330 81 465 -27 86 -86 171 -157 221 l-55
39 63 7 c284 31 499 180 626 433 38 77 76 208 85 293 20 191 -81 407 -245 523
-32 23 -58 44 -58 47 -1 3 28 13 65 23 79 21 189 74 269 132 223 161 367 441
352 685 -12 182 -98 358 -253 517 l-90 93 1732 0 c1890 0 1801 -3 1956 57 97
38 173 90 245 166 70 75 114 155 145 262 29 105 32 315 5 415 -64 238 -227
393 -487 462 l-85 23 -2955 5 c-2290 4 -2961 8 -2980 17 -118 57 -119 177 -3
234 l48 24 565 6 c459 5 584 9 665 23 479 80 876 248 1240 525 99 75 264 241
314 317 105 157 147 313 138 514 -13 289 -120 486 -294 540 -77 24 -186 25
-282 5z m274 -202 c22 -12 52 -34 67 -50 53 -56 58 -82 58 -330 l0 -228 -31
-64 c-61 -130 -170 -253 -336 -378 -344 -261 -715 -415 -1173 -489 -83 -13
-215 -18 -630 -24 -496 -7 -529 -8 -590 -28 -81 -27 -154 -85 -197 -158 -28
-47 -33 -65 -33 -119 0 -55 5 -72 36 -125 81 -138 155 -179 343 -191 69 -4
1379 -8 2911 -9 2290 -1 2798 -3 2860 -14 165 -30 302 -109 365 -210 l30 -49
0 -221 0 -221 -28 -52 c-36 -70 -129 -162 -197 -195 -30 -15 -91 -38 -135 -50
l-80 -23 -1660 -5 c-1589 -5 -1662 -6 -1710 -24 -27 -10 -63 -27 -78 -38 -46
-33 -87 -97 -87 -136 0 -41 46 -141 105 -225 23 -34 58 -91 76 -127 l34 -65 0
-190 c0 -186 -1 -191 -27 -248 -57 -122 -164 -234 -313 -328 -125 -78 -150
-99 -194 -159 -56 -77 -44 -126 71 -296 l73 -108 3 -185 c4 -219 -5 -252 -96
-371 -73 -95 -152 -155 -277 -209 -135 -58 -188 -94 -225 -148 -43 -67 -41
-108 15 -221 l45 -91 0 -143 c0 -132 -2 -147 -26 -197 -39 -84 -158 -196 -264
-247 -100 -49 -212 -86 -330 -111 -77 -16 -148 -18 -740 -18 -463 0 -688 4
-768 13 -641 72 -1188 296 -1674 684 -140 112 -385 359 -489 493 -304 391
-492 770 -609 1229 -64 251 -70 317 -70 788 0 412 1 431 25 562 114 619 387
1151 820 1595 426 438 891 712 1482 875 148 41 216 54 483 96 712 110 1526
308 2112 514 181 64 274 99 497 190 103 42 243 87 311 100 14 2 66 3 115 2 69
-2 99 -7 130 -23z"/>
</g>
</svg>
