<?xml version="1.0" standalone="no"?>
<!DOCTYPE svg PUBLIC "-//W3C//DTD SVG 20010904//EN"
 "http://www.w3.org/TR/2001/REC-SVG-20010904/DTD/svg10.dtd">
<svg version="1.0" xmlns="http://www.w3.org/2000/svg"
 width="2048.000000pt" height="2048.000000pt" viewBox="0 0 2048.000000 2048.000000"
 preserveAspectRatio="xMidYMid meet">
<metadata>
Created by potrace 1.13, written by Peter Selinger 2001-2015
</metadata>
<g transform="translate(0.000000,2048.000000) scale(0.192120,-0.192120)"
fill="#000000" stroke="none">
<path d="M3535 9389 c-745 -632 -1729 -1378 -2325 -1763 l-178 -116 -44 20
c-137 62 -306 -14 -364 -165 -20 -54 -16 -154 9 -205 20 -42 1155 -1463 1191
-1491 74 -58 178 -74 271 -42 61 20 137 94 155 149 7 21 16 43 20 47 7 8 782
322 824 335 19 5 19 -5 13 -499 -33 -2513 -317 -4220 -783 -4719 -26 -28 -45
-52 -43 -55 11 -11 552 -94 874 -134 1436 -180 2729 -187 4150 -25 353 40
1059 145 1073 159 3 3 -16 27 -41 54 -441 471 -712 1976 -777 4306 -12 417
-13 915 -2 915 22 0 828 -330 833 -342 35 -78 59 -115 92 -143 98 -84 251 -86
353 -6 36 28 1171 1449 1191 1491 25 51 29 151 9 205 -29 75 -69 120 -137 154
-76 38 -159 42 -227 11 l-44 -20 -141 91 c-612 395 -1427 1009 -2294 1731
l-202 168 -1663 -1 -1663 0 -130 -110z m436 -966 c134 -475 248 -863 252 -863
4 0 192 140 418 310 225 171 411 310 412 310 1 0 2 -1657 2 -3683 l0 -3682 27
-55 c15 -30 26 -55 25 -56 -1 -1 -51 21 -112 49 -125 57 -38 46 -655 82 -448
26 -982 80 -1407 140 -275 40 -297 58 -234 197 308 686 484 1741 571 3413 13
256 13 1515 0 1515 -5 0 -10 7 -10 15 0 19 -54 80 -113 126 -89 70 -142 63
-485 -65 -222 -83 -272 -111 -333 -189 -23 -29 -44 -53 -48 -55 -3 -1 -14 19
-23 45 -13 35 -172 241 -594 768 l-576 720 99 6 c88 4 106 9 173 43 242 122
967 650 1710 1245 456 365 490 399 567 560 l45 96 22 -65 c12 -36 132 -453
267 -927z m3054 894 c25 -51 66 -116 92 -146 99 -114 988 -818 1536 -1218 233
-169 567 -393 656 -438 64 -33 85 -38 168 -44 l95 -6 -576 -720 c-421 -526
-581 -733 -594 -768 -9 -26 -20 -46 -23 -45 -4 2 -24 26 -46 54 -21 28 -51 63
-68 76 -52 43 -508 210 -610 223 -65 9 -103 -7 -173 -70 -102 -92 -95 -17 -89
-894 3 -558 9 -831 21 -1006 66 -976 128 -1509 242 -2090 75 -380 169 -701
292 -998 34 -81 62 -153 62 -160 0 -8 -11 -23 -23 -36 -20 -18 -56 -26 -223
-51 -506 -74 -1110 -131 -1689 -160 -233 -12 -311 -27 -440 -83 -44 -20 -81
-35 -82 -33 -1 1 10 26 25 56 l27 55 0 3682 c0 2026 1 3683 2 3683 1 0 187
-139 413 -310 226 -170 414 -310 419 -310 4 0 13 24 20 53 16 60 484 1703 502
1760 7 20 14 37 16 37 2 0 24 -42 48 -93z m-2962 -150 c309 -226 611 -377 906
-454 125 -33 150 -36 316 -40 197 -6 288 5 458 53 189 53 439 169 655 304 105
65 358 251 448 327 26 23 52 39 57 36 25 -15 -4 -108 -77 -247 -48 -91 -94
-199 -130 -301 -30 -88 -66 -191 -80 -230 -15 -38 -63 -196 -107 -350 -125
-438 -135 -457 -217 -418 -19 9 -131 88 -250 176 -304 224 -377 256 -448 197
-36 -29 -85 -93 -99 -130 -6 -16 -12 -1258 -15 -3575 l-5 -3550 -22 -10 c-17
-7 -23 -19 -25 -49 -3 -37 -6 -41 -38 -48 -34 -8 -137 -3 -166 9 -8 3 -14 19
-14 42 0 25 -6 40 -20 49 -20 12 -20 23 -20 3538 0 2648 -3 3537 -12 3572 -26
108 -109 189 -180 176 -75 -14 -144 -57 -438 -274 -80 -59 -160 -115 -179
-124 -46 -24 -77 -14 -100 32 -10 20 -75 235 -145 478 -151 528 -164 564 -271
770 -80 152 -105 224 -91 259 4 12 25 0 98 -58 51 -41 146 -113 211 -160z
m2131 31 l26 -11 -41 -39 c-72 -69 -310 -177 -506 -230 -116 -31 -123 -32
-338 -32 -207 -1 -226 1 -327 26 -59 15 -147 43 -195 61 -168 65 -353 167
-353 195 0 6 -6 12 -12 12 -7 1 -2 7 12 15 21 12 156 14 867 15 618 0 849 -3
867 -12z m-5170 -1941 c25 -7 61 -32 96 -67 78 -77 949 -1167 957 -1198 10
-40 -9 -75 -49 -95 -49 -24 -91 -11 -153 46 -56 53 -938 1156 -983 1231 -35
57 -37 90 -4 99 22 6 85 -1 136 -16z m8740 17 c27 -10 19 -66 -16 -120 -54
-81 -942 -1186 -982 -1222 -56 -49 -82 -56 -132 -37 -30 11 -46 25 -55 47 -11
28 -10 35 10 71 28 48 880 1114 939 1174 51 52 92 74 157 83 27 4 53 8 57 9 3
0 13 -2 22 -5z"/>
</g>
</svg>
