<?xml version="1.0" standalone="no"?>
<!DOCTYPE svg PUBLIC "-//W3C//DTD SVG 20010904//EN"
 "http://www.w3.org/TR/2001/REC-SVG-20010904/DTD/svg10.dtd">
<svg version="1.0" xmlns="http://www.w3.org/2000/svg"
 width="2048.000000pt" height="2048.000000pt" viewBox="0 0 2048.000000 2048.000000"
 preserveAspectRatio="xMidYMid meet">
<metadata>
Created by potrace 1.13, written by Peter Selinger 2001-2015
</metadata>
<g transform="translate(0.000000,2048.000000) scale(0.192120,-0.192120)"
fill="#000000" stroke="none">
<path d="M1247 10314 c-223 -40 -424 -146 -589 -310 -140 -139 -242 -316 -296
-511 l-27 -98 -3 -4005 c-2 -2763 1 -4030 8 -4086 54 -414 332 -763 720 -905
188 -68 14 -63 2140 -66 l1925 -2 -75 20 c-41 10 -131 39 -200 63 -204 72
-222 76 -341 87 -74 6 -649 9 -1624 8 -1135 -1 -1527 1 -1580 10 -202 35 -366
119 -513 264 -161 158 -249 344 -282 599 -6 45 -10 1348 -10 3343 0 3226 -1
3271 -20 3360 -11 50 -43 170 -71 268 -28 98 -49 180 -47 182 2 3 76 -84 165
-193 628 -769 1397 -1542 1791 -1800 184 -120 250 -127 417 -43 239 121 631
466 1078 951 176 191 367 410 367 421 0 4 -12 12 -27 18 -112 44 -154 14 -532
-391 -415 -443 -785 -759 -969 -828 -113 -43 -200 -13 -397 135 -408 306
-1297 1223 -1602 1651 -90 126 -83 80 -83 562 0 472 0 468 67 595 105 198 221
312 420 411 99 50 112 60 178 146 42 55 49 60 65 48 225 -159 440 -256 792
-358 800 -232 1949 -360 3238 -360 916 0 1699 58 2427 180 742 125 1285 302
1563 510 l55 41 25 -29 c14 -16 45 -53 69 -81 34 -41 61 -60 127 -91 259 -119
423 -309 489 -564 25 -94 25 -104 25 -476 l0 -380 -29 -60 c-66 -136 -306
-414 -756 -873 -729 -746 -1035 -1005 -1210 -1025 -178 -20 -563 291 -1183
952 -248 265 -342 328 -425 285 -12 -7 -24 -13 -26 -15 -5 -5 115 -148 268
-319 170 -189 614 -634 746 -747 169 -145 325 -256 435 -311 94 -47 111 -52
171 -52 56 0 76 5 140 38 366 186 1230 1040 1933 1909 66 81 122 146 124 143
2 -2 -17 -75 -42 -162 -25 -87 -57 -207 -71 -268 l-25 -110 0 -3309 c0 -3548
2 -3362 -46 -3532 -34 -119 -144 -294 -246 -390 -122 -115 -248 -181 -448
-236 -34 -9 -436 -13 -1675 -18 l-1630 -6 -100 -26 c-55 -15 -145 -43 -200
-63 -55 -21 -140 -48 -190 -60 l-90 -24 1880 0 c1201 0 1905 3 1950 9 154 22
293 72 431 153 124 73 298 247 371 371 84 143 133 283 153 440 7 56 10 1323 8
4086 l-3 4005 -27 98 c-68 247 -216 466 -417 619 -90 68 -265 152 -386 185
l-100 28 -4035 2 c-3449 1 -4046 -1 -4113 -13z m6972 -280 c58 -12 30 -40 -64
-63 -22 -6 -65 -17 -95 -26 -132 -37 -633 -119 -950 -155 -1229 -138 -2783
-120 -3905 45 -215 32 -533 90 -605 110 -30 9 -76 21 -102 27 -27 6 -48 15
-48 19 0 5 -9 9 -20 9 -27 0 -25 28 3 33 35 7 5751 8 5786 1z M5285 9338
c-206 -336 -700 -1004 -1005 -1356 -55 -64 -70 -89 -66 -105 18 -73 255 -454
369 -595 37 -45 67 -87 67 -93 0 -16 -170 -437 -955 -2364 -394 -968 -728
-1789 -742 -1825 -37 -96 -43 -253 -14 -373 23 -95 74 -207 122 -269 61 -76
1927 -1906 1981 -1942 83 -56 151 -78 253 -83 145 -9 266 29 364 111 25 21
468 455 985 964 973 960 991 979 1044 1111 59 146 67 343 20 476 -14 39 -364
900 -777 1915 -856 2101 -921 2262 -921 2279 0 6 22 38 49 71 104 124 239 333
346 534 51 95 54 104 39 117 -10 8 -61 66 -114 129 -314 375 -693 885 -910
1228 -46 72 -87 132 -91 132 -3 0 -23 -28 -44 -62z m93 -316 c20 -20 66 -80
101 -132 145 -214 386 -536 601 -805 118 -147 130 -165 130 -187 0 -32 -41
-109 -149 -278 -111 -175 -158 -267 -168 -322 -5 -37 21 -102 51 -127 9 -8 16
-18 16 -22 0 -18 -167 -182 -244 -241 -271 -204 -490 -208 -754 -14 -71 53
-214 186 -244 229 -18 25 -19 30 -5 45 25 29 47 80 47 110 0 49 -43 142 -127
272 -168 263 -200 324 -188 362 4 12 76 108 160 213 145 180 335 437 547 735
97 138 152 200 175 200 7 0 30 -17 51 -38z m-663 -2392 c134 -147 296 -276
409 -324 90 -40 141 -49 234 -44 144 8 284 80 449 231 70 63 116 112 261 277
l31 35 -1 -160 -1 -160 65 -195 c38 -113 323 -828 678 -1700 337 -828 621
-1526 631 -1553 16 -40 19 -76 19 -245 l0 -197 -37 -65 c-44 -75 -180 -213
-1093 -1111 -720 -709 -753 -740 -838 -781 -60 -30 -77 -33 -172 -36 -190 -7
-243 21 -489 262 -619 605 -1573 1548 -1610 1590 -24 28 -57 78 -73 111 -27
59 -28 64 -28 233 l0 172 49 118 c59 140 1149 2821 1263 3106 98 244 111 307
103 481 l-6 130 48 -55 c26 -30 75 -84 108 -120z m465 -68 c50 -10 244 -9 315
2 l60 9 -30 -30 c-43 -41 -109 -65 -185 -66 -79 -1 -151 18 -184 48 -14 13
-27 20 -30 17 -3 -3 -6 0 -6 7 0 7 -4 9 -10 6 -5 -3 -10 1 -10 9 0 10 7 13 23
10 12 -3 38 -8 57 -12z"/>
</g>
</svg>
