<?xml version="1.0" standalone="no"?>
<!DOCTYPE svg PUBLIC "-//W3C//DTD SVG 20010904//EN"
 "http://www.w3.org/TR/2001/REC-SVG-20010904/DTD/svg10.dtd">
<svg version="1.0" xmlns="http://www.w3.org/2000/svg"
 width="2048.000000pt" height="2048.000000pt" viewBox="0 0 2048.000000 2048.000000"
 preserveAspectRatio="xMidYMid meet">
<metadata>
Created by potrace 1.13, written by Peter Selinger 2001-2015
</metadata>
<g transform="translate(0.000000,2048.000000) scale(0.192120,-0.192120)"
fill="#000000" stroke="none">
<path d="M2575 8301 c-130 -47 -215 -141 -215 -239 0 -12 -13 -31 -31 -44 -46
-34 -115 -131 -134 -187 -9 -27 -16 -80 -17 -118 l-1 -68 447 -960 c247 -528
449 -961 450 -962 1 -1 63 23 138 54 l136 57 -33 70 c-18 39 -229 494 -470
1011 -241 517 -447 962 -457 989 -28 72 -23 85 47 110 33 12 85 38 115 58 30
20 69 39 86 42 64 14 127 -33 195 -146 23 -38 245 -506 494 -1041 248 -534
462 -991 474 -1015 30 -59 86 -119 148 -159 28 -18 54 -37 57 -42 3 -5 -36
-34 -87 -64 -475 -284 -781 -746 -872 -1317 -24 -150 -23 -401 4 -550 32 -185
100 -380 149 -433 39 -41 119 -61 211 -53 41 3 76 8 79 10 2 3 -10 40 -28 83
-100 238 -139 417 -147 663 -5 149 -2 193 16 299 52 307 186 571 406 800 112
117 242 222 358 288 42 25 77 46 77 47 0 2 -47 99 -104 217 -57 118 -341 726
-631 1351 -372 803 -538 1150 -563 1179 -71 82 -187 110 -297 70z M7890 8307
c-19 -6 -58 -34 -85 -62 -47 -47 -80 -115 -607 -1250 -515 -1109 -701 -1516
-695 -1520 1 -1 28 -16 60 -34 95 -54 216 -148 320 -250 212 -207 347 -435
421 -709 37 -140 49 -262 43 -440 -8 -233 -42 -392 -133 -620 -25 -63 -44
-116 -41 -118 2 -2 37 -7 78 -10 92 -8 172 12 211 53 49 53 117 248 149 433
26 147 28 397 5 550 -88 570 -406 1045 -888 1327 -43 25 -78 47 -78 48 0 2 31
23 68 49 83 56 109 83 154 161 19 33 236 494 482 1025 246 531 464 994 483
1030 44 82 97 138 138 146 33 6 70 -7 135 -48 19 -12 69 -31 110 -43 l75 -21
-3 -35 c-2 -19 -205 -468 -459 -1014 -250 -539 -470 -1012 -488 -1051 l-33
-71 127 -52 c69 -28 131 -54 137 -57 6 -3 29 36 53 88 24 51 230 496 459 988
381 819 416 899 414 942 -4 97 -77 224 -161 283 -32 22 -40 34 -45 70 -23 148
-243 263 -406 212z M1705 8082 c-137 -47 -225 -142 -225 -242 0 -21 -13 -47
-43 -83 -78 -95 -111 -210 -88 -301 14 -58 66 -173 519 -1151 207 -445 390
-842 408 -881 l32 -72 109 56 c59 30 110 56 112 59 6 5 15 -15 -494 1078 -504
1083 -530 1141 -538 1176 -6 24 -2 28 56 54 34 15 84 46 110 68 41 34 58 41
103 45 60 5 92 -11 170 -82 21 -20 53 -43 71 -51 35 -17 99 -20 108 -5 10 16
-83 214 -121 258 -71 84 -180 112 -289 74z M8752 8074 c-67 -33 -107 -80 -152
-179 -53 -115 -52 -113 -28 -126 32 -17 84 3 170 66 88 63 135 76 185 48 18
-10 61 -34 95 -54 35 -21 83 -43 107 -50 42 -12 43 -14 37 -47 -5 -31 -192
-439 -832 -1814 -112 -241 -204 -441 -204 -445 0 -4 50 -33 111 -64 l111 -56
28 61 c148 329 875 1883 894 1911 101 148 82 310 -53 459 -25 27 -40 54 -44
80 -14 90 -94 171 -212 215 -77 29 -148 27 -213 -5z M1120 7429 c-70 -14 -165
-65 -205 -111 -34 -40 -65 -118 -65 -163 0 -12 -20 -40 -46 -65 -93 -92 -141
-205 -131 -309 8 -78 123 -366 169 -422 46 -57 24 -11 408 -839 183 -393 333
-716 333 -716 1 -1 55 37 119 85 92 67 117 90 114 106 -2 11 -213 470 -469
1020 -256 550 -469 1017 -475 1037 -10 37 -10 37 26 49 59 19 104 45 152 88
25 23 51 41 58 41 6 0 12 4 12 9 0 10 39 27 85 37 17 4 41 16 55 26 23 18 60
66 60 79 0 12 -77 47 -115 51 -22 3 -60 2 -85 -3z M9437 7429 c-21 -5 -47 -14
-58 -19 -18 -10 -18 -13 -4 -39 18 -37 79 -85 126 -100 19 -6 70 -38 111 -70
42 -32 91 -64 110 -70 81 -31 79 -29 72 -58 -11 -48 -42 -116 -503 -1108 -248
-533 -451 -974 -451 -980 1 -5 54 -49 119 -96 l118 -86 316 681 c174 374 330
710 346 746 16 36 49 91 73 122 66 84 189 353 195 426 10 112 -39 224 -141
321 -45 42 -56 59 -65 102 -7 29 -21 68 -32 86 -58 94 -228 166 -332 142z
M4510 7184 c-67 -18 -124 -56 -167 -112 -47 -62 -63 -127 -63 -258 0 -129 26
-984 35 -1146 l6 -106 -71 -38 c-69 -36 -70 -37 -53 -57 25 -27 70 -45 101
-39 14 3 52 31 85 62 52 51 60 64 64 104 3 25 10 46 14 46 5 0 9 282 9 636 l0
636 26 32 c37 43 62 55 116 56 42 0 54 -5 90 -37 22 -21 49 -56 59 -78 10 -22
38 -166 63 -320 26 -154 62 -379 82 -500 47 -291 80 -459 103 -531 11 -33 36
-122 56 -198 62 -238 85 -296 154 -384 42 -53 85 -82 119 -82 27 0 113 79 151
139 85 132 152 428 286 1261 42 261 83 503 91 538 28 124 88 192 171 192 46 0
93 -17 93 -34 0 -6 9 -17 20 -24 20 -12 20 -23 20 -656 0 -563 2 -645 15 -650
9 -3 15 -19 15 -41 0 -19 5 -35 10 -35 6 0 10 -6 10 -13 0 -40 127 -137 179
-137 24 0 93 58 85 71 -3 5 -37 25 -75 45 l-70 35 5 87 c12 171 38 1119 34
1217 -5 125 -30 187 -99 249 -57 51 -117 75 -210 83 -166 14 -287 -67 -339
-228 -11 -35 -61 -320 -111 -634 -103 -647 -148 -887 -221 -1165 -27 -107 -52
-205 -55 -217 -3 -13 -9 -23 -13 -23 -4 0 -10 10 -13 23 -2 12 -25 101 -50
197 -83 317 -115 483 -236 1250 -44 278 -88 530 -96 560 -21 70 -75 150 -125
185 -78 54 -189 68 -300 39z M526 6415 c-170 -70 -231 -200 -172 -365 27 -75
1166 -2525 1230 -2646 308 -579 891 -972 1566 -1054 109 -13 342 -13 450 0
706 88 1309 517 1606 1145 49 105 114 281 114 311 0 39 19 2 53 -104 130 -403
421 -780 792 -1025 124 -82 340 -187 487 -235 417 -138 864 -137 1289 4 232
77 504 235 695 402 182 160 350 377 459 592 80 159 1189 2548 1211 2610 57
159 2 285 -156 359 -45 21 -70 26 -137 26 -45 0 -84 -3 -88 -7 -4 -3 1 -21 11
-40 30 -58 78 -108 126 -134 30 -15 48 -31 48 -42 0 -9 10 -23 21 -30 34 -21
21 -95 -44 -242 -89 -205 -455 -988 -504 -1080 -25 -47 -65 -122 -89 -167 -25
-45 -69 -144 -98 -220 -58 -147 -97 -236 -251 -568 -141 -305 -232 -480 -296
-565 -69 -94 -258 -291 -359 -375 -228 -190 -513 -325 -828 -392 -118 -25
-144 -27 -372 -28 -218 0 -258 3 -360 23 -506 103 -936 385 -1207 792 -42 62
-154 266 -213 385 -22 44 -123 143 -153 150 -83 21 -140 -40 -267 -284 -117
-225 -144 -265 -277 -414 -301 -335 -659 -544 -1078 -627 -155 -31 -464 -39
-625 -16 -622 90 -1144 457 -1413 992 -31 63 -1127 2421 -1155 2487 -7 15 -12
55 -12 88 0 56 2 61 30 77 16 9 30 25 30 35 0 11 11 22 28 28 31 12 110 103
119 138 8 32 -10 41 -87 41 -46 0 -82 -8 -124 -25z"/>
</g>
</svg>
