<?xml version="1.0" standalone="no"?>
<!DOCTYPE svg PUBLIC "-//W3C//DTD SVG 20010904//EN"
 "http://www.w3.org/TR/2001/REC-SVG-20010904/DTD/svg10.dtd">
<svg version="1.0" xmlns="http://www.w3.org/2000/svg"
 width="2048.000000pt" height="2048.000000pt" viewBox="0 0 2048.000000 2048.000000"
 preserveAspectRatio="xMidYMid meet">
<metadata>
Created by potrace 1.13, written by Peter Selinger 2001-2015
</metadata>
<g transform="translate(0.000000,2048.000000) scale(0.192120,-0.192120)"
fill="#000000" stroke="none">
<path d="M2573 8300 c-53 -18 -97 -45 -142 -84 -28 -25 -71 -111 -71 -144 0
-15 -21 -45 -59 -83 -89 -88 -134 -198 -126 -304 2 -28 134 -321 422 -940 231
-495 432 -928 448 -963 15 -34 31 -61 34 -60 4 2 66 27 138 57 l131 54 -33 71
c-18 39 -232 499 -475 1021 -243 523 -451 976 -461 1008 -28 86 -26 92 26 107
25 7 66 26 90 41 93 59 126 71 175 67 96 -9 164 -95 290 -366 42 -92 241 -518
440 -947 412 -886 438 -941 480 -988 16 -19 59 -54 95 -77 36 -23 63 -46 60
-50 -2 -4 -44 -30 -92 -58 -491 -284 -806 -751 -898 -1332 -22 -138 -22 -380
-1 -523 29 -185 103 -406 154 -460 39 -41 119 -61 211 -53 41 3 76 8 78 10 3
2 -16 55 -41 118 -102 257 -130 402 -131 678 0 179 3 218 23 309 45 201 122
379 236 546 118 174 354 391 530 490 36 20 66 39 66 42 0 2 -29 61 -64 131
-36 70 -138 287 -228 482 -671 1452 -974 2094 -1007 2132 -70 82 -186 109
-298 68z M7874 8297 c-27 -13 -66 -43 -85 -65 -37 -43 -993 -2086 -1237 -2641
l-50 -115 65 -38 c297 -174 554 -467 676 -773 83 -209 112 -382 104 -623 -8
-233 -41 -390 -133 -620 -25 -63 -44 -116 -41 -118 2 -2 37 -7 78 -10 92 -8
172 12 211 53 29 31 63 108 101 229 97 307 94 686 -7 1019 -138 458 -427 830
-821 1057 -133 77 -127 63 -49 115 92 61 136 111 185 213 23 47 239 510 481
1030 241 520 456 974 478 1010 21 36 52 79 70 95 28 27 38 30 93 30 54 0 69
-5 116 -35 29 -19 56 -35 60 -36 3 0 35 -9 70 -19 l63 -19 -6 -50 c-5 -38
-127 -309 -463 -1031 -250 -539 -470 -1012 -488 -1051 l-33 -71 127 -52 c69
-28 131 -54 137 -57 6 -3 29 35 52 85 23 50 231 498 462 996 l421 905 -10 54
c-5 30 -17 71 -26 92 -22 53 -86 133 -134 169 -22 17 -41 36 -41 44 0 7 -5 31
-12 53 -43 143 -275 241 -414 175z M1715 8086 c-101 -32 -174 -87 -209 -158
-14 -29 -26 -67 -26 -85 0 -24 -12 -47 -43 -86 -65 -80 -91 -147 -92 -237 0
-73 2 -79 94 -285 51 -115 258 -563 458 -995 201 -432 375 -808 388 -836 l23
-52 111 57 c61 31 111 60 111 64 0 4 -92 205 -204 445 -691 1484 -829 1787
-833 1826 -5 42 -5 43 38 59 24 9 69 36 98 58 66 50 109 69 156 69 44 0 63 -9
143 -72 34 -27 74 -53 88 -58 33 -13 84 -13 84 0 0 24 -80 179 -109 212 -67
77 -175 106 -276 74z M8752 8074 c-66 -33 -107 -80 -149 -173 -27 -58 -31 -76
-21 -83 25 -17 84 5 153 55 67 50 72 52 135 52 60 0 70 -4 129 -42 35 -23 90
-51 122 -64 l59 -22 -6 -36 c-11 -60 -25 -91 -514 -1141 -545 -1170 -535
-1148 -529 -1153 2 -3 53 -29 113 -60 l108 -55 23 52 c109 245 882 1897 899
1921 43 59 61 116 61 195 0 63 -5 85 -31 140 -17 36 -51 88 -76 115 -32 35
-47 62 -52 92 -11 59 -58 128 -113 163 -116 74 -222 89 -311 44z M1123 7428
c-144 -25 -256 -129 -266 -246 -4 -35 -14 -52 -59 -100 -67 -71 -92 -111 -113
-186 -26 -89 -16 -146 58 -331 48 -120 76 -177 115 -228 29 -37 52 -72 52 -77
0 -7 668 -1452 673 -1456 6 -5 236 173 236 182 1 6 -53 127 -120 270 -405 869
-818 1764 -828 1793 -20 61 -15 78 27 91 40 13 122 61 122 72 0 3 17 17 38 29
20 13 43 29 49 35 7 7 36 20 64 29 66 22 127 81 106 102 -18 19 -103 30 -154
21z M9411 7421 c-33 -21 31 -89 121 -128 25 -12 75 -43 111 -71 36 -27 86 -58
112 -68 l47 -18 -5 -46 c-5 -44 -69 -184 -776 -1705 -100 -214 -181 -394 -181
-400 1 -5 42 -40 93 -77 51 -37 104 -76 118 -87 l26 -20 188 407 c104 224 260
560 347 747 101 220 172 359 199 395 66 85 190 355 196 428 10 114 -40 227
-146 325 -51 47 -59 59 -63 100 -10 86 -85 165 -200 209 -50 19 -162 25 -187
9z M4527 7190 c-61 -16 -132 -56 -167 -96 -53 -61 -73 -117 -78 -219 -4 -88
22 -1027 34 -1217 l6 -97 -52 -26 c-48 -25 -51 -28 -36 -43 27 -27 77 -20 124
18 23 18 42 39 42 47 0 7 5 13 10 13 6 0 10 15 10 34 0 19 5 38 10 41 6 4 10
230 10 646 l0 640 31 39 c67 83 189 92 259 19 66 -70 79 -112 130 -429 127
-794 145 -893 175 -1000 9 -30 36 -130 60 -222 51 -194 82 -274 127 -333 33
-43 84 -82 95 -72 3 3 -11 66 -31 139 -92 343 -127 521 -251 1296 -82 513 -97
590 -123 645 -35 76 -88 132 -151 160 -52 23 -173 32 -234 17z M5924 7182
c-77 -27 -130 -76 -172 -157 -31 -62 -35 -83 -132 -690 -105 -657 -149 -886
-225 -1184 -31 -118 -54 -216 -51 -218 10 -10 67 30 99 69 96 118 159 387 297
1253 84 525 99 603 127 660 33 67 57 91 111 109 87 30 145 13 201 -58 l31 -39
0 -643 c0 -423 3 -644 10 -644 6 0 10 -16 10 -35 0 -25 8 -44 24 -60 13 -13
26 -28 27 -32 7 -17 76 -53 100 -53 29 0 72 28 63 41 -3 5 -28 21 -56 35 l-50
25 6 92 c12 178 38 1113 34 1212 -3 85 -8 109 -31 157 -34 68 -100 130 -165
153 -73 26 -197 29 -258 7z M526 6415 c-170 -70 -232 -200 -172 -365 27 -76
1177 -2547 1235 -2655 457 -847 1483 -1256 2402 -959 606 196 1094 668 1294
1252 38 112 41 132 23 132 -40 0 -115 -84 -175 -198 -143 -269 -172 -311 -353
-504 -118 -125 -212 -205 -350 -298 -566 -381 -1330 -419 -1949 -99 -171 88
-304 185 -448 323 -176 169 -297 344 -421 606 -119 253 -976 2100 -1039 2240
-100 220 -109 297 -38 336 20 10 35 26 35 36 0 11 14 25 33 34 34 16 90 83
101 122 7 21 5 22 -56 22 -43 0 -81 -8 -122 -25z M9960 6428 c0 -8 11 -30 25
-49 14 -19 28 -41 31 -50 3 -8 30 -28 60 -42 32 -16 58 -36 63 -50 5 -13 16
-29 25 -36 29 -25 21 -107 -23 -212 -42 -102 -1066 -2309 -1137 -2451 -91
-180 -185 -303 -384 -496 -322 -315 -735 -499 -1195 -532 -522 -37 -1019 130
-1417 475 -164 142 -286 300 -423 549 -49 87 -106 180 -127 208 -38 48 -101
89 -115 74 -20 -20 108 -333 197 -482 207 -346 491 -607 852 -784 421 -207
876 -263 1328 -164 578 127 1084 506 1356 1018 69 129 1204 2574 1232 2651 54
155 -2 282 -158 354 -67 31 -190 43 -190 19z"/>
</g>
</svg>
