<?xml version="1.0" standalone="no"?>
<!DOCTYPE svg PUBLIC "-//W3C//DTD SVG 20010904//EN"
 "http://www.w3.org/TR/2001/REC-SVG-20010904/DTD/svg10.dtd">
<svg version="1.0" xmlns="http://www.w3.org/2000/svg"
 width="2048.000000pt" height="2048.000000pt" viewBox="0 0 2048.000000 2048.000000"
 preserveAspectRatio="xMidYMid meet">
<metadata>
Created by potrace 1.13, written by Peter Selinger 2001-2015
</metadata>
<g transform="translate(0.000000,2048.000000) scale(0.192120,-0.192120)"
fill="#000000" stroke="none">
<path d="M2575 8301 c-129 -46 -215 -141 -215 -237 0 -11 -27 -45 -60 -77 -79
-78 -112 -146 -120 -251 -5 -66 -3 -88 11 -116 9 -19 211 -453 449 -965 237
-511 433 -931 434 -932 1 -1 63 23 138 54 l136 57 -33 70 c-18 39 -216 465
-440 946 -519 1116 -497 1067 -493 1087 2 9 30 27 68 42 36 15 90 44 120 64
72 49 107 49 159 1 64 -57 101 -123 246 -434 884 -1901 816 -1761 893 -1831
29 -27 66 -56 83 -66 16 -9 29 -20 29 -24 0 -3 -21 -18 -47 -32 -73 -39 -195
-127 -285 -203 -263 -225 -481 -591 -572 -959 -66 -269 -62 -633 9 -879 37
-126 83 -238 113 -269 39 -41 119 -61 211 -53 41 3 76 8 78 10 3 2 -16 55 -41
118 -102 257 -130 402 -131 678 0 179 3 218 23 309 65 289 193 527 397 740
167 174 425 357 425 302 0 -5 13 -23 29 -40 51 -54 108 -39 216 57 49 44 85
104 85 143 0 16 5 29 10 29 7 0 10 218 10 635 0 556 2 636 15 641 8 4 15 13
15 20 0 17 40 34 80 34 20 0 40 -11 66 -37 61 -63 59 -56 144 -588 80 -502
118 -705 154 -832 19 -65 51 -179 71 -253 44 -165 80 -242 147 -315 55 -60 93
-85 131 -85 52 0 161 99 212 191 66 121 137 450 255 1184 44 270 87 523 96
563 19 90 63 153 116 166 41 10 88 1 88 -17 0 -7 9 -18 20 -25 20 -12 20 -23
20 -646 0 -554 2 -635 15 -640 9 -3 15 -18 15 -39 0 -41 40 -99 101 -149 125
-101 178 -103 239 -9 l15 23 60 -35 c279 -163 540 -466 658 -762 84 -210 113
-383 104 -629 -8 -229 -52 -427 -144 -644 -20 -45 -34 -85 -31 -87 3 -3 38 -8
79 -11 92 -8 172 12 211 53 14 15 37 55 51 88 213 514 141 1155 -187 1655
-138 211 -295 367 -511 511 -66 44 -121 84 -123 89 -2 4 14 18 35 31 68 42
132 110 172 183 22 39 218 456 436 926 490 1057 526 1131 572 1191 54 72 82
74 192 17 47 -25 107 -51 134 -58 26 -7 50 -16 52 -20 3 -4 -1 -25 -9 -46 -10
-30 -532 -1156 -921 -1990 l-43 -91 137 -55 c75 -31 137 -55 138 -54 0 0 205
438 454 971 497 1066 481 1024 444 1135 -20 61 -90 154 -144 194 -32 23 -40
36 -46 71 -23 156 -269 275 -420 204 -89 -42 -99 -60 -455 -825 -183 -396
-432 -930 -553 -1189 -121 -258 -253 -544 -293 -635 -40 -91 -77 -165 -81
-165 -4 0 -41 17 -81 38 l-73 38 5 77 c11 148 38 1126 34 1226 -5 127 -30 188
-99 250 -57 51 -117 75 -210 83 -164 14 -282 -64 -337 -222 -12 -33 -42 -193
-67 -355 -134 -858 -185 -1137 -267 -1450 -27 -107 -52 -205 -55 -217 -3 -13
-8 -23 -12 -23 -8 0 -88 299 -126 470 -38 172 -86 447 -180 1032 -92 578 -97
597 -176 678 -63 65 -117 85 -224 85 -111 0 -176 -21 -239 -76 -68 -60 -99
-133 -104 -243 -4 -92 23 -1083 34 -1232 l6 -82 -68 -36 c-38 -20 -72 -36 -76
-36 -4 0 -26 35 -47 78 -34 67 -777 1659 -1116 2389 -65 140 -122 249 -143
274 -71 82 -187 110 -297 70z M1685 8075 c-123 -51 -192 -126 -203 -222 -4
-36 -15 -59 -46 -98 -64 -78 -90 -146 -90 -235 -1 -73 2 -80 98 -295 54 -121
258 -564 454 -985 195 -421 367 -793 382 -826 l28 -61 111 56 c61 31 111 60
111 64 0 5 -60 137 -134 295 -371 794 -861 1852 -877 1893 l-18 47 52 22 c29
13 62 30 73 39 12 9 32 23 44 31 12 8 34 25 48 37 49 42 109 24 195 -58 86
-81 193 -119 219 -79 14 21 -90 253 -138 308 -76 90 -192 115 -309 67z M8752
8074 c-29 -14 -67 -44 -86 -66 -35 -41 -140 -263 -131 -277 10 -16 56 -22 95
-11 22 6 59 27 83 48 70 59 80 66 110 80 47 21 84 14 140 -25 28 -20 84 -52
124 -70 40 -19 73 -38 73 -44 0 -14 -135 -306 -796 -1726 -129 -276 -234 -507
-234 -513 0 -5 3 -10 8 -10 4 0 54 -24 111 -54 l103 -55 23 52 c94 212 880
1895 891 1907 7 9 26 42 41 75 41 88 40 185 -3 275 -17 36 -51 88 -76 115 -31
34 -47 62 -51 89 -14 91 -94 171 -212 215 -77 29 -148 27 -213 -5z M1103 7425
c-145 -40 -232 -124 -249 -240 -5 -42 -15 -59 -58 -105 -29 -30 -61 -71 -73
-90 -35 -58 -56 -147 -50 -209 8 -78 132 -384 175 -431 18 -19 48 -66 66 -105
18 -38 176 -379 351 -756 l318 -686 118 86 c65 47 118 91 119 97 0 6 -23 60
-51 120 -108 230 -774 1665 -830 1788 -33 71 -59 135 -59 142 0 7 33 29 73 48
39 19 91 53 114 75 23 22 51 42 63 46 11 3 20 10 20 15 0 5 17 12 38 15 71 12
101 26 132 61 36 41 37 54 8 81 -58 53 -142 71 -225 48z M9434 7431 c-31 -8
-104 -48 -104 -57 0 -2 12 -22 26 -44 30 -45 58 -65 117 -86 45 -16 107 -55
147 -93 14 -13 58 -38 98 -57 66 -31 73 -36 66 -57 -5 -18 -690 -1499 -893
-1931 -28 -60 -51 -114 -51 -120 1 -6 54 -50 119 -97 l118 -86 189 406 c103
223 259 559 345 746 101 217 173 360 200 394 23 30 75 126 116 213 58 122 76
171 80 216 10 112 -41 228 -141 319 -44 41 -54 56 -64 105 -22 97 -87 165
-198 207 -61 24 -129 32 -170 22z M527 6416 c-60 -25 -73 -33 -121 -75 -42
-38 -76 -116 -76 -176 0 -27 11 -79 24 -115 27 -75 1166 -2525 1230 -2646 308
-580 891 -972 1566 -1054 109 -13 342 -13 450 0 143 18 279 49 418 95 522 174
952 554 1188 1050 49 104 114 280 114 311 0 39 19 2 53 -104 130 -403 421
-780 792 -1025 124 -82 340 -187 487 -235 346 -115 706 -134 1068 -56 581 125
1086 506 1360 1025 71 136 1198 2562 1226 2639 57 159 2 286 -156 359 -71 33
-182 41 -229 17 -35 -19 -37 -28 -13 -72 29 -53 86 -109 128 -125 22 -8 40
-23 42 -33 2 -10 12 -26 23 -37 24 -24 24 -35 -2 -112 -23 -68 -1001 -2180
-1135 -2452 -46 -93 -108 -201 -136 -240 -65 -87 -268 -297 -358 -370 -227
-186 -521 -324 -825 -386 -147 -30 -460 -37 -615 -15 -431 63 -797 248 -1091
552 -47 49 -106 117 -133 151 -45 60 -166 256 -166 270 0 11 -81 145 -116 191
-39 52 -136 129 -173 137 -36 8 -66 -5 -128 -54 -63 -49 -89 -87 -183 -261
-106 -196 -162 -271 -335 -445 -298 -301 -654 -480 -1075 -541 -169 -24 -470
-15 -635 20 -498 105 -920 390 -1187 802 -44 68 -146 278 -356 729 -110 237
-336 723 -502 1080 -421 905 -384 820 -385 890 0 55 2 60 28 73 15 7 27 21 27
32 0 13 9 22 25 26 30 7 87 68 115 123 11 22 20 42 20 44 0 3 -15 12 -34 21
-51 24 -149 21 -219 -8z"/>
</g>
</svg>
