<?xml version="1.0" standalone="no"?>
<!DOCTYPE svg PUBLIC "-//W3C//DTD SVG 20010904//EN"
 "http://www.w3.org/TR/2001/REC-SVG-20010904/DTD/svg10.dtd">
<svg version="1.0" xmlns="http://www.w3.org/2000/svg"
 width="2048.000000pt" height="2048.000000pt" viewBox="0 0 2048.000000 2048.000000"
 preserveAspectRatio="xMidYMid meet">
<metadata>
Created by potrace 1.13, written by Peter Selinger 2001-2015
</metadata>
<g transform="translate(0.000000,2048.000000) scale(0.192120,-0.192120)"
fill="#000000" stroke="none">
<path d="M5085 10319 c-1002 -103 -1881 -758 -2390 -1778 -104 -208 -212 -488
-255 -658 l-14 -53 -105 0 c-339 0 -655 -133 -901 -380 -167 -167 -283 -368
-336 -584 -18 -73 -107 -799 -323 -2631 -165 -1392 -302 -2559 -306 -2595 -7
-80 9 -230 36 -329 97 -356 393 -621 768 -686 126 -22 8016 -22 8142 0 377 66
671 329 768 686 27 99 43 249 36 329 -35 353 -609 5146 -626 5215 -95 409
-432 773 -844 913 -109 37 -208 53 -357 59 l-147 6 -6 31 c-14 62 -97 309
-145 425 -381 927 -1088 1627 -1921 1905 -148 49 -314 88 -471 112 -125 18
-479 26 -603 13z m655 -209 c140 -25 315 -73 465 -127 119 -44 517 -243 595
-298 204 -145 465 -391 624 -590 99 -123 244 -339 329 -490 67 -119 177 -364
236 -527 73 -199 121 -258 212 -258 l36 0 26 -97 c63 -239 101 -504 117 -824
7 -130 10 -549 8 -1064 l-3 -850 -23 -47 c-27 -54 -97 -123 -150 -145 -21 -9
-66 -16 -103 -17 -111 0 -204 59 -256 164 -17 32 -18 108 -24 1060 -6 1093 -6
1085 -59 1380 -196 1087 -886 1980 -1762 2279 -435 148 -901 150 -1338 5 -887
-295 -1582 -1187 -1780 -2284 -53 -295 -53 -287 -59 -1380 l-6 -1025 -22 -41
c-35 -66 -70 -101 -130 -131 -67 -32 -164 -37 -225 -10 -53 22 -123 91 -150
145 l-23 47 0 990 c0 888 2 1007 18 1155 24 215 60 426 99 573 l31 117 39 0
c50 0 99 21 125 54 21 27 32 51 133 304 183 461 433 845 770 1183 414 415 946
682 1520 763 161 23 565 15 730 -14z m-130 -565 c345 -46 715 -203 914 -387
11 -10 23 -18 28 -18 4 0 8 -8 8 -17 0 -15 -2 -16 -10 -3 -5 8 -10 11 -10 5 0
-5 -7 -1 -15 9 -8 11 -15 16 -15 12 0 -4 -12 0 -27 8 -159 86 -483 216 -539
216 -12 0 -26 5 -29 10 -4 6 -10 8 -13 6 -4 -2 -43 4 -87 15 -281 67 -637 70
-930 8 -49 -10 -99 -20 -110 -22 -11 -2 -27 -7 -35 -10 -8 -4 -26 -9 -40 -11
-14 -3 -25 -5 -25 -6 0 -1 -9 -3 -19 -5 -55 -10 -265 -94 -371 -148 -44 -23
-82 -41 -85 -42 -3 0 -20 -9 -37 -18 -32 -17 -33 -17 -33 3 0 11 3 20 8 20 4
0 23 14 42 30 19 16 38 30 42 30 4 0 13 6 20 13 7 7 54 37 105 66 202 116 494
214 717 240 119 14 432 12 546 -4z m-84 -336 c732 -72 1388 -524 1833 -1261
l70 -118 -2099 0 -2099 0 36 63 c234 401 548 744 883 963 422 276 904 400
1376 353z m-1415 -86 c-8 -15 -10 -15 -11 -2 0 17 10 32 18 25 2 -3 -1 -13 -7
-23z m-21 -7 c0 -3 -4 -8 -10 -11 -5 -3 -10 -1 -10 4 0 6 5 11 10 11 6 0 10
-2 10 -4z m-843 -1500 c27 -13 75 -29 108 -35 83 -15 3867 -15 3950 0 33 6 85
24 117 40 31 16 64 29 72 29 38 0 78 -141 128 -460 21 -129 22 -178 28 -1150
6 -900 8 -1021 23 -1068 84 -273 284 -432 494 -393 84 15 134 41 199 103 65
62 105 123 139 211 l25 67 0 1093 c0 1026 -1 1103 -20 1251 -22 183 -19 246
14 246 76 -1 260 -68 378 -137 229 -136 390 -344 453 -583 29 -114 13 19 330
-2657 l255 -2153 0 -345 c0 -334 -1 -348 -22 -398 -42 -100 -121 -202 -202
-264 -79 -59 -179 -107 -286 -135 l-85 -23 -4015 0 -4015 0 -88 23 c-220 58
-377 174 -471 347 -57 104 -59 113 -63 380 l-4 250 275 2320 c303 2553 308
2585 337 2682 74 240 254 450 499 582 78 42 226 94 296 106 l42 6 6 -73 c5
-47 2 -115 -8 -191 -14 -101 -16 -282 -16 -1230 l0 -1112 45 -91 c75 -150 188
-247 319 -274 101 -21 211 7 300 75 76 58 168 208 188 307 7 34 13 391 18
1013 8 1062 11 1111 81 1464 24 118 43 178 65 202 18 20 29 17 111 -25z"/>
</g>
</svg>
