<?xml version="1.0" standalone="no"?>
<!DOCTYPE svg PUBLIC "-//W3C//DTD SVG 20010904//EN"
 "http://www.w3.org/TR/2001/REC-SVG-20010904/DTD/svg10.dtd">
<svg version="1.0" xmlns="http://www.w3.org/2000/svg"
 width="2048.000000pt" height="2048.000000pt" viewBox="0 0 2048.000000 2048.000000"
 preserveAspectRatio="xMidYMid meet">
<metadata>
Created by potrace 1.13, written by Peter Selinger 2001-2015
</metadata>
<g transform="translate(0.000000,2048.000000) scale(0.192120,-0.192120)"
fill="#000000" stroke="none">
<path d="M3594 9835 c-268 -58 -438 -320 -383 -587 27 -130 135 -274 244 -327
28 -13 51 -25 52 -26 2 -1 -13 -39 -33 -86 -56 -131 -456 -1110 -524 -1279
-33 -83 -58 -155 -55 -161 9 -14 81 -11 118 5 46 19 96 81 144 178 66 133 465
1116 499 1228 24 79 19 114 -30 188 -24 37 -69 96 -100 132 -87 101 -106 146
-106 254 0 109 15 141 87 186 61 39 102 50 188 50 90 0 158 -24 212 -76 l43
-41 0 -119 0 -120 -46 -74 c-25 -41 -52 -82 -59 -90 -7 -8 -30 -44 -49 -78
-49 -86 -48 -135 0 -262 52 -133 518 -1053 568 -1120 51 -67 133 -120 178
-115 45 6 68 15 68 27 0 5 -156 320 -346 699 -191 379 -345 691 -343 693 2 2
20 11 39 21 52 27 141 123 172 187 101 206 67 422 -91 578 -75 74 -149 114
-249 136 -81 17 -118 17 -198 -1z M6863 9835 c-270 -59 -446 -337 -378 -599 8
-32 27 -83 43 -114 31 -64 120 -160 172 -187 19 -10 37 -19 39 -21 2 -2 -157
-323 -354 -715 -267 -533 -354 -714 -345 -723 18 -18 101 -12 135 10 33 21 89
80 121 128 36 52 539 1056 572 1142 53 134 46 164 -78 339 -92 128 -100 150
-100 257 0 111 15 142 87 188 61 39 102 50 189 50 92 0 156 -23 210 -75 l44
-42 0 -114 c0 -134 -5 -146 -110 -279 -131 -166 -141 -208 -91 -365 48 -148
439 -1094 487 -1176 50 -86 104 -145 151 -165 36 -16 81 -18 101 -5 15 9 -18
94 -373 956 -124 303 -228 555 -230 560 -2 6 19 21 47 34 29 13 79 52 112 85
278 279 135 749 -252 832 -81 17 -118 17 -199 -1z M5216 9279 c-188 -38 -340
-188 -386 -378 -17 -73 -8 -210 19 -282 37 -99 125 -202 215 -254 16 -9 -2
-48 -168 -360 -103 -193 -205 -386 -227 -430 l-40 -80 309 -611 c169 -336 326
-647 347 -692 21 -45 41 -82 44 -82 4 0 42 73 86 163 44 90 197 394 339 677
l260 515 -65 124 c-35 68 -141 268 -235 445 l-170 321 41 26 c65 41 132 117
169 191 134 266 2 591 -280 688 -69 24 -189 33 -258 19z m225 -300 c27 -12 61
-35 75 -52 25 -29 25 -34 22 -146 l-3 -116 -50 -78 c-91 -142 -127 -210 -132
-247 -4 -26 6 -63 37 -140 46 -116 225 -470 322 -637 53 -91 63 -115 62 -153
-1 -38 -33 -110 -197 -437 -204 -406 -223 -436 -266 -414 -35 19 -74 87 -265
464 -167 330 -186 374 -186 418 0 35 7 61 24 87 36 58 160 290 248 464 80 159
138 303 138 343 0 29 -48 119 -115 214 -82 119 -85 127 -85 244 l0 103 33 31
c86 82 220 102 338 52z M2104 8536 c-53 -17 -126 -67 -158 -109 -75 -99 -92
-233 -44 -339 29 -63 99 -138 148 -158 25 -10 31 -18 27 -34 -3 -12 -62 -165
-132 -341 -70 -176 -151 -382 -180 -458 l-54 -139 92 -111 c144 -173 480 -613
548 -717 15 -23 17 -21 71 116 108 270 427 1044 443 1074 9 17 13 36 8 43 -6
11 -367 473 -436 559 l-29 37 36 36 c133 133 118 358 -32 482 -83 67 -205 91
-308 59z m140 -282 c13 -5 16 -22 16 -78 0 -87 -13 -112 -52 -97 -58 22 -102
139 -63 168 20 14 72 17 99 7z m87 -561 c14 -15 47 -58 73 -95 25 -37 85 -114
132 -170 104 -125 109 -137 94 -206 -12 -53 -25 -88 -178 -452 -98 -236 -106
-250 -137 -250 -36 0 -72 36 -201 202 -154 197 -154 196 -154 243 0 50 269
740 296 760 22 15 38 9 75 -32z M8354 8536 c-229 -72 -306 -368 -139 -539 l37
-38 -39 -49 c-122 -155 -419 -535 -425 -545 -4 -7 5 -41 21 -76 16 -35 126
-302 245 -594 119 -291 222 -543 229 -558 l13 -29 44 64 c106 153 408 547 536
700 l73 86 -54 139 c-29 76 -110 282 -180 458 -70 176 -129 329 -132 341 -4
16 2 24 27 34 42 17 114 88 138 136 114 224 -48 486 -297 483 -31 0 -74 -6
-97 -13z m140 -282 c24 -9 21 -98 -5 -140 -11 -19 -24 -34 -29 -34 -5 0 -15
-3 -23 -6 -43 -16 -81 151 -39 175 19 12 72 14 96 5z m-71 -571 c9 -21 73
-181 142 -356 91 -231 125 -329 125 -360 0 -50 -9 -64 -184 -286 -156 -198
-171 -202 -239 -73 -68 129 -249 592 -251 642 -1 43 4 52 75 140 42 52 111
142 154 200 120 161 143 173 178 93z M645 8476 c-145 -36 -254 -143 -291 -286
-56 -220 98 -450 321 -478 l60 -7 7 -60 c69 -550 191 -1783 248 -2510 12 -148
24 -292 28 -318 l7 -49 52 64 c92 113 96 130 90 368 -5 221 -41 636 -114 1340
-36 351 -47 494 -50 678 -3 127 -1 232 2 232 9 0 101 -96 261 -271 102 -111
218 -223 234 -224 3 -1 19 -9 37 -18 45 -24 93 -21 131 7 l33 24 -62 78 c-85
108 -276 328 -439 508 -74 82 -154 170 -176 195 l-42 46 40 43 c22 24 52 69
66 100 24 50 27 70 27 157 0 91 -3 106 -31 165 -54 115 -159 197 -283 220 -66
12 -92 12 -156 -4z m185 -268 l45 -23 3 -105 c2 -94 0 -110 -20 -149 -27 -51
-55 -65 -89 -46 -188 102 -201 115 -207 203 -4 50 -1 62 19 86 50 57 171 73
249 34z M9850 8479 c-114 -22 -222 -108 -274 -219 -28 -59 -31 -74 -31 -165 0
-87 3 -107 27 -157 14 -31 44 -76 67 -101 l40 -44 -92 -99 c-275 -296 -617
-696 -617 -722 0 -25 49 -45 98 -40 94 9 193 98 497 446 16 17 31 30 33 27 3
-3 11 4 19 15 8 11 18 20 24 20 5 0 9 -111 9 -280 0 -238 -4 -324 -30 -577
-31 -306 -48 -452 -56 -464 -8 -13 -25 -155 -44 -369 -14 -152 -20 -297 -20
-495 l0 -280 29 -60 c15 -33 46 -80 68 -105 l40 -44 6 59 c4 33 18 202 32 375
34 420 78 909 121 1330 40 401 123 1150 128 1166 2 6 29 14 60 17 221 23 378
256 322 477 -38 147 -154 257 -304 289 -60 12 -88 13 -152 0z m170 -271 l45
-23 3 -84 c2 -61 -1 -89 -12 -106 -8 -12 -54 -46 -102 -75 -107 -65 -125 -62
-166 19 -23 46 -28 67 -28 132 0 94 4 105 44 126 76 39 152 43 216 11z M5126
5224 c-214 -42 -392 -140 -543 -297 -43 -45 -95 -108 -116 -140 -342 -518
-156 -1211 398 -1482 131 -65 230 -93 360 -104 321 -27 618 85 836 317 121
128 203 275 251 452 31 115 33 365 4 480 -98 394 -403 691 -791 771 -107 22
-296 24 -399 3z m372 -249 c255 -53 453 -201 560 -415 l37 -75 3 -241 c3 -224
2 -245 -18 -305 -49 -147 -188 -316 -325 -397 -153 -90 -352 -131 -531 -111
-121 13 -205 39 -319 97 -158 81 -309 254 -366 419 -17 49 -19 85 -19 280 0
209 2 228 22 276 42 99 92 172 168 247 115 113 258 190 415 223 92 20 285 21
373 2z M2844 4880 c-242 -44 -446 -219 -525 -450 -30 -88 -38 -267 -15 -362
83 -354 435 -577 791 -503 39 8 112 35 163 60 154 77 270 209 329 377 34 95
43 269 19 370 -53 228 -225 413 -450 484 -89 28 -229 39 -312 24z m222 -211
c129 -23 268 -114 324 -213 l30 -51 0 -185 0 -185 -31 -54 c-90 -158 -243
-241 -439 -241 -183 0 -332 77 -428 223 l-47 70 -3 172 c-4 202 4 228 93 319
126 127 308 180 501 145z M7545 4875 c-38 -8 -113 -35 -165 -61 -238 -118
-383 -371 -366 -637 19 -292 223 -535 510 -607 151 -38 303 -21 456 52 69 33
100 57 171 127 70 70 94 103 127 171 180 374 -1 804 -391 935 -99 33 -240 41
-342 20z m334 -231 c107 -40 209 -125 251 -210 18 -35 20 -60 20 -206 0 -118
-4 -177 -14 -206 -17 -46 -82 -134 -130 -173 -150 -125 -404 -145 -589 -47
-68 37 -161 133 -197 203 -23 46 -25 63 -28 202 -4 146 -3 155 22 209 51 110
194 219 329 250 98 22 244 13 336 -22z M1070 4760 c-202 -42 -378 -213 -425
-411 -81 -347 181 -679 537 -679 352 0 614 334 533 678 -23 98 -70 179 -149
258 -78 78 -177 133 -274 153 -58 12 -168 13 -222 1z m247 -256 c60 -20 148
-85 168 -124 11 -22 15 -63 15 -163 0 -133 0 -134 -32 -181 -60 -91 -164 -143
-265 -133 -104 11 -260 104 -299 178 -10 20 -14 63 -14 144 l0 116 53 53 c30
31 82 67 126 89 62 31 84 37 137 37 35 0 85 -7 111 -16z M9332 4755 c-365 -88
-538 -496 -347 -820 48 -81 139 -165 228 -208 225 -109 479 -62 646 120 121
131 172 307 137 473 -56 267 -281 452 -544 449 -37 0 -91 -6 -120 -14z m226
-262 c30 -14 81 -52 113 -82 l59 -57 0 -125 c0 -120 -1 -127 -28 -170 -37 -56
-51 -68 -137 -116 -66 -36 -75 -38 -155 -38 -73 0 -92 4 -135 27 -27 14 -67
44 -87 65 -57 59 -68 95 -68 231 0 107 2 122 23 152 83 123 283 178 415 113z
M9495 3589 c-86 -92 -112 -149 -120 -256 -4 -49 -13 -111 -21 -140 -10 -38
-14 -120 -14 -331 0 -312 0 -312 70 -400 l42 -52 -4127 0 -4127 0 41 47 c23
25 44 57 47 70 4 13 10 23 15 23 12 0 11 535 -1 721 -8 121 -13 153 -32 189
-23 45 -143 180 -159 180 -12 0 -11 -125 5 -485 8 -170 17 -393 21 -495 3
-102 8 -199 11 -216 4 -31 3 -32 -45 -44 -28 -6 -70 -25 -94 -41 -137 -90
-158 -297 -44 -418 39 -41 120 -81 165 -81 l32 0 0 -200 c0 -110 0 -203 0
-207 1 -4 -21 -12 -48 -18 -140 -32 -222 -132 -222 -272 1 -114 55 -202 155
-249 l50 -24 4235 0 4235 0 45 21 c102 46 160 137 160 252 0 109 -43 185 -133
237 -29 16 -72 33 -97 36 l-45 6 3 196 c1 109 5 203 7 210 2 6 17 12 32 12 15
0 51 11 78 24 98 46 154 135 155 242 0 138 -80 243 -211 274 l-50 12 5 42 c3
22 8 118 11 211 3 94 13 323 21 510 8 187 14 371 12 409 l-3 69 -60 -64z
m-126 -1353 c58 -16 128 -58 138 -82 10 -25 -22 -78 -63 -106 -90 -62 226 -58
-4119 -58 -2662 0 -3975 4 -4005 11 -98 22 -190 101 -175 149 7 23 78 67 138
85 65 21 8009 21 8086 1z m-66 -383 l137 -6 -33 -37 c-53 -61 -67 -83 -67
-102 0 -10 -4 -18 -10 -18 -19 0 -10 -76 14 -126 13 -27 38 -62 55 -78 17 -17
31 -33 31 -38 0 -4 -1845 -8 -4100 -8 -2255 0 -4100 2 -4100 5 0 3 16 26 36
51 19 26 38 60 41 75 3 16 9 29 14 29 5 0 9 20 9 45 0 25 -4 45 -10 45 -5 0
-10 8 -10 18 0 21 -49 101 -75 122 -17 14 -11 15 66 21 119 8 7837 10 8002 2z
m69 -589 c107 -39 143 -77 107 -110 -21 -19 -128 -19 -4078 -24 -2231 -3
-4090 -2 -4133 1 -72 6 -108 21 -108 47 0 28 107 90 179 102 25 4 1830 7 4011
6 l3965 -1 57 -21z"/>
</g>
</svg>
