<?xml version="1.0" standalone="no"?>
<!DOCTYPE svg PUBLIC "-//W3C//DTD SVG 20010904//EN"
 "http://www.w3.org/TR/2001/REC-SVG-20010904/DTD/svg10.dtd">
<svg version="1.0" xmlns="http://www.w3.org/2000/svg"
 width="2048.000000pt" height="2048.000000pt" viewBox="0 0 2048.000000 2048.000000"
 preserveAspectRatio="xMidYMid meet">
<metadata>
Created by potrace 1.13, written by Peter Selinger 2001-2015
</metadata>
<g transform="translate(0.000000,2048.000000) scale(0.192120,-0.192120)"
fill="#000000" stroke="none">
<path d="M2575 8301 c-126 -45 -215 -139 -215 -228 0 -21 -15 -43 -60 -86 -79
-77 -114 -149 -119 -244 -2 -40 -7 -73 -11 -73 -4 0 -37 67 -75 150 -42 93
-82 166 -106 193 -81 93 -201 111 -329 51 -36 -17 -79 -43 -97 -58 -39 -33
-83 -119 -83 -163 0 -24 -12 -47 -43 -86 -65 -80 -91 -147 -91 -237 -1 -73 2
-80 85 -265 47 -104 88 -197 91 -205 3 -8 173 -375 378 -815 205 -440 379
-817 387 -837 8 -21 19 -38 24 -38 9 0 209 97 218 106 6 5 13 -12 -499 1089
-495 1065 -512 1103 -504 1116 3 5 31 22 63 38 31 16 77 46 101 66 23 20 51
40 62 46 32 17 82 -7 166 -79 91 -79 141 -106 186 -99 17 3 40 7 51 9 20 3
127 -220 747 -1560 94 -205 175 -371 178 -370 3 2 65 27 137 57 l131 54 -33
71 c-18 39 -231 498 -474 1020 -243 522 -444 959 -447 972 -5 20 0 26 35 40
23 9 59 26 81 38 21 11 62 33 89 49 64 34 87 30 143 -31 56 -61 78 -103 386
-767 422 -910 551 -1183 613 -1306 59 -115 88 -152 178 -219 l34 -26 -114 -76
c-445 -300 -720 -749 -800 -1308 -15 -111 -13 -358 6 -483 27 -179 95 -388
148 -453 39 -47 115 -69 216 -60 41 3 76 8 79 11 3 2 -11 42 -31 87 -47 110
-91 253 -117 374 -27 129 -38 393 -21 528 32 255 132 499 291 711 115 154 348
363 477 429 l32 16 28 -42 c59 -87 107 -87 226 3 83 63 137 138 137 191 0 21
5 38 10 38 7 0 10 215 10 626 0 607 1 626 19 631 11 3 21 13 24 24 4 14 14 19
37 19 38 0 91 -53 109 -109 6 -20 32 -162 57 -316 85 -523 144 -860 163 -930
10 -38 30 -110 44 -160 14 -49 38 -135 53 -190 43 -161 82 -236 167 -320 96
-96 125 -103 202 -50 65 45 133 122 168 191 61 121 138 458 222 984 117 722
125 764 151 818 26 53 63 82 104 82 11 0 20 -6 20 -14 0 -8 8 -17 19 -21 18
-5 18 -32 23 -631 3 -458 8 -628 16 -636 7 -7 12 -27 12 -45 0 -18 4 -33 8
-33 4 0 12 -13 18 -28 12 -32 147 -152 198 -176 57 -27 99 -21 134 18 17 19
33 44 37 55 6 20 8 20 38 5 49 -25 155 -102 226 -163 313 -271 491 -592 542
-976 17 -130 6 -403 -21 -529 -26 -122 -71 -265 -117 -374 -19 -46 -33 -85
-31 -88 3 -2 38 -7 79 -10 92 -8 172 12 211 53 51 54 126 277 154 460 21 142
21 384 -1 523 -85 535 -359 974 -793 1268 -62 41 -109 79 -105 82 5 3 35 26
67 51 71 52 103 95 161 209 23 47 221 469 439 939 508 1093 508 1091 556 1135
22 20 48 36 57 36 9 0 46 -16 82 -36 36 -20 95 -47 131 -59 52 -18 65 -26 63
-42 -1 -10 -201 -446 -444 -968 -243 -523 -458 -987 -479 -1031 l-38 -81 102
-41 c55 -22 117 -47 137 -55 l36 -16 91 197 c50 108 143 310 207 447 64 138
157 336 205 440 48 105 159 341 246 525 174 371 183 399 149 500 -20 61 -90
154 -144 194 -32 23 -40 36 -46 71 -23 156 -269 275 -420 204 -91 -43 -93 -46
-555 -1041 -386 -830 -655 -1409 -785 -1685 l-43 -91 -76 39 -76 40 5 97 c9
160 35 1013 35 1152 0 165 -18 221 -94 296 -60 58 -117 82 -217 91 -166 14
-296 -75 -344 -237 -8 -30 -52 -282 -95 -560 -120 -755 -153 -932 -237 -1250
-25 -96 -48 -185 -50 -197 -3 -13 -8 -23 -12 -23 -9 0 -89 303 -130 490 -38
169 -90 475 -186 1072 -82 513 -88 538 -166 618 -63 65 -117 85 -224 85 -111
0 -176 -21 -239 -76 -70 -62 -100 -133 -104 -249 -4 -96 23 -1056 34 -1222 l5
-87 -70 -36 c-39 -19 -73 -35 -76 -35 -2 0 -22 35 -44 78 -34 68 -629 1341
-1081 2315 -154 331 -184 378 -265 416 -56 26 -141 27 -210 2z M8754 8076
c-27 -13 -66 -42 -86 -65 -42 -49 -154 -292 -145 -315 9 -23 68 -30 109 -13
20 8 70 42 111 75 109 86 140 88 247 12 14 -10 54 -32 90 -50 36 -18 66 -34
68 -35 2 -1 -17 -47 -41 -101 -49 -107 -795 -1715 -909 -1958 -66 -140 -69
-150 -52 -163 26 -19 190 -103 202 -103 5 0 18 21 29 48 60 141 867 1866 898
1917 48 80 69 155 62 222 -7 71 -53 165 -109 228 -31 34 -47 62 -51 89 -14 91
-94 171 -212 215 -74 28 -147 27 -211 -3z M1103 7425 c-145 -40 -232 -124
-249 -240 -5 -42 -15 -59 -58 -105 -66 -70 -90 -110 -111 -184 -27 -92 -17
-146 63 -343 49 -120 81 -186 107 -215 20 -24 63 -99 94 -168 31 -69 187 -405
346 -746 l288 -622 101 75 c56 41 110 83 120 93 19 18 10 38 -417 957 -459
987 -497 1071 -497 1081 0 4 33 24 73 45 39 20 94 57 120 82 26 25 54 45 61
45 7 0 19 7 26 15 7 9 29 15 52 15 55 0 98 23 132 71 l28 41 -33 35 c-68 70
-154 94 -246 68z M9435 7431 c-42 -11 -87 -35 -108 -59 -17 -19 -17 -22 -3
-50 19 -36 96 -102 120 -102 32 0 81 -27 146 -80 36 -29 93 -66 128 -82 34
-17 62 -32 62 -33 0 -6 -300 -654 -765 -1654 l-179 -384 31 -26 c16 -14 71
-56 120 -92 l90 -66 216 466 c119 256 275 592 346 746 83 180 142 295 166 322
20 24 72 119 117 213 62 132 81 182 85 228 10 112 -41 228 -142 320 -45 42
-54 56 -60 95 -9 59 -53 128 -106 166 -76 56 -198 89 -264 72z M608 6439
c-109 -16 -215 -89 -254 -174 -30 -64 -30 -131 0 -215 27 -77 1167 -2527 1232
-2650 307 -576 891 -968 1564 -1050 109 -13 342 -13 450 0 392 49 759 204
1060 447 281 227 524 578 631 908 32 98 49 135 49 103 0 -29 62 -201 106 -297
233 -500 667 -887 1194 -1065 224 -75 413 -106 650 -106 752 1 1445 416 1790
1071 71 136 1199 2562 1226 2639 63 174 -9 309 -200 376 -80 29 -198 14 -234
-29 -11 -13 -10 -22 7 -54 28 -55 96 -122 139 -137 21 -8 39 -21 41 -31 2 -10
9 -25 17 -33 18 -17 18 -27 -2 -91 -14 -47 -999 -2180 -1132 -2451 -78 -159
-153 -266 -274 -394 -240 -255 -486 -416 -785 -516 -598 -199 -1243 -89 -1743
295 -202 155 -349 337 -494 610 -61 114 -93 159 -153 217 -137 132 -195 131
-328 -6 -45 -46 -79 -98 -134 -202 -115 -217 -189 -315 -361 -481 -167 -160
-295 -251 -485 -343 -633 -307 -1378 -233 -1943 191 -203 153 -360 338 -480
569 -63 120 -1107 2361 -1149 2465 -31 78 -29 148 5 153 16 3 22 10 22 28 0
16 6 24 18 24 39 0 151 141 139 175 -16 39 -109 66 -189 54z"/>
</g>
</svg>
