<?xml version="1.0" standalone="no"?>
<!DOCTYPE svg PUBLIC "-//W3C//DTD SVG 20010904//EN"
 "http://www.w3.org/TR/2001/REC-SVG-20010904/DTD/svg10.dtd">
<svg version="1.0" xmlns="http://www.w3.org/2000/svg"
 width="2048.000000pt" height="2048.000000pt" viewBox="0 0 2048.000000 2048.000000"
 preserveAspectRatio="xMidYMid meet">
<metadata>
Created by potrace 1.13, written by Peter Selinger 2001-2015
</metadata>
<g transform="translate(0.000000,2048.000000) scale(0.192120,-0.192120)"
fill="#000000" stroke="none">
<path d="M5175 8379 c-552 -32 -1201 -259 -1695 -593 -659 -446 -1055 -1053
-1165 -1786 -24 -157 -32 -382 -35 -920 -2 -272 -4 -515 -4 -539 l-1 -45 75
-42 c377 -214 1014 -400 1690 -494 124 -17 247 -34 274 -38 l49 -7 -83 -70
c-105 -89 -130 -132 -130 -224 0 -90 32 -162 111 -246 66 -70 103 -91 187
-107 83 -15 184 7 314 71 58 28 110 51 116 51 7 0 36 -51 66 -113 29 -63 72
-141 94 -174 141 -208 338 -247 494 -100 75 71 119 140 177 282 38 92 47 105
71 105 10 0 63 -23 118 -50 208 -105 354 -103 474 8 105 98 166 268 125 354
-28 60 -73 112 -135 158 -34 25 -61 48 -62 51 0 3 80 16 178 28 763 99 1397
275 1812 504 l95 52 2 505 c4 730 -10 957 -74 1225 -216 912 -952 1639 -2020
1993 -243 81 -562 146 -769 157 -60 3 -131 7 -159 9 -27 1 -113 -1 -190 -5z
m403 -230 c242 -26 540 -93 751 -169 84 -30 116 -37 122 -29 10 17 68 -6 274
-110 494 -251 843 -553 1113 -965 186 -283 292 -573 348 -951 8 -60 22 -124
30 -142 8 -17 14 -33 14 -37 0 -9 59 -93 75 -106 9 -7 21 -22 26 -32 9 -17 -3
-25 -113 -77 -386 -184 -950 -346 -1527 -440 -190 -31 -392 -56 -410 -50 -6 2
22 32 62 66 41 34 92 88 113 119 35 50 39 64 42 128 5 88 -14 136 -87 224 -91
109 -193 148 -324 123 -54 -11 -144 -45 -255 -99 -54 -26 -70 -10 -132 128
-46 104 -64 133 -123 196 -92 99 -169 138 -259 132 -84 -5 -145 -37 -228 -118
-68 -67 -94 -106 -144 -220 -54 -123 -56 -126 -79 -128 -12 -1 -65 18 -117 43
-237 112 -373 96 -497 -56 -64 -78 -97 -163 -91 -229 9 -88 54 -155 178 -263
55 -47 55 -47 24 -47 -38 0 -233 25 -394 51 -576 93 -1198 277 -1573 466 l-68
34 21 27 c44 56 88 128 98 162 7 19 19 85 28 145 38 267 104 495 199 690 278
571 768 1018 1435 1310 78 34 100 40 100 28 0 -18 -11 -20 166 40 215 74 472
131 694 156 110 12 396 13 508 0z m-161 -2290 c39 -24 95 -99 123 -165 55
-128 77 -322 57 -504 l-9 -74 45 59 c50 68 172 187 238 232 116 80 268 131
347 117 56 -10 98 -40 121 -88 78 -160 -83 -453 -364 -664 l-30 -22 45 8 c25
4 115 7 200 7 130 -1 168 -4 233 -23 205 -59 314 -162 293 -277 -16 -84 -140
-173 -303 -216 -85 -23 -293 -31 -407 -16 l-60 8 65 -49 c130 -99 258 -255
306 -372 86 -215 32 -350 -139 -350 -159 0 -382 139 -531 330 -28 36 -54 69
-58 73 -4 5 -2 -13 4 -40 5 -26 10 -111 9 -188 0 -110 -4 -157 -21 -220 -39
-147 -109 -263 -182 -301 -36 -18 -102 -18 -138 0 -73 38 -143 154 -182 301
-17 63 -21 110 -21 220 -1 77 4 162 9 188 6 27 8 45 4 40 -4 -4 -24 -30 -46
-58 -125 -162 -287 -282 -444 -329 -148 -44 -259 5 -277 122 -13 85 30 222
102 329 52 76 173 203 247 259 l60 44 -59 -7 c-112 -15 -322 -7 -404 15 -161
43 -290 134 -305 215 -22 117 86 220 292 279 65 19 103 22 233 23 85 0 175 -3
200 -7 l45 -8 -30 22 c-192 144 -327 321 -370 485 -43 166 23 270 170 267 162
-4 401 -158 543 -349 l44 -59 -9 74 c-29 266 26 515 141 634 67 68 139 80 213
35z m-2707 -659 c325 -121 805 -251 1110 -300 77 -13 100 -23 100 -45 0 -6
-27 -50 -61 -96 -96 -132 -109 -164 -109 -262 0 -79 3 -89 46 -177 43 -89 44
-95 27 -107 -21 -16 -66 -12 -243 23 -361 71 -761 198 -1023 325 l-89 42 6
236 c4 130 9 278 12 329 l5 92 29 0 c16 0 102 -27 190 -60z m5453 -67 c4 -71
7 -221 7 -334 l0 -206 -100 -47 c-260 -122 -632 -238 -1017 -316 -156 -31
-229 -35 -238 -12 -3 7 10 41 29 75 98 181 89 273 -47 469 -58 84 -66 113 -35
122 7 2 81 16 163 31 312 57 751 178 1045 289 80 30 154 55 166 55 20 1 21 -6
27 -126z M5185 5031 c-220 -64 -376 -243 -403 -462 -22 -180 32 -336 162 -465
218 -217 554 -217 772 0 128 127 184 286 163 458 -23 188 -133 344 -301 429
-119 60 -271 76 -393 40z m289 -271 c37 -14 76 -39 107 -69 l49 -47 0 -139 c0
-130 -2 -141 -25 -181 -14 -24 -46 -58 -72 -75 -159 -110 -420 -62 -498 91
-22 44 -25 61 -25 164 0 114 0 115 33 157 87 113 276 156 431 99z M2180 5018
c-217 -47 -573 -146 -775 -218 -719 -253 -1099 -569 -1072 -890 11 -126 72
-236 203 -360 455 -432 1636 -774 3194 -924 858 -83 1923 -94 2830 -31 1398
99 2609 371 3249 730 316 177 501 385 518 580 22 263 -200 504 -672 731 -286
137 -728 284 -1095 364 -52 11 -105 23 -118 25 -23 6 -24 6 -6 -23 23 -40 119
-142 133 -142 6 0 11 -4 11 -9 0 -5 17 -15 38 -21 20 -7 42 -18 48 -26 6 -7
70 -29 143 -49 429 -116 828 -280 1061 -436 104 -69 230 -188 230 -216 0 -10
9 -29 20 -43 15 -19 20 -41 20 -94 0 -59 -5 -80 -32 -135 -200 -402 -1360
-798 -2848 -970 -675 -78 -1018 -96 -1910 -96 -784 0 -927 5 -1430 46 -1520
124 -2762 451 -3235 853 -71 60 -75 65 -121 133 -33 50 -34 55 -34 147 0 93 0
95 37 143 20 26 39 50 42 53 3 3 13 17 21 32 25 43 161 150 279 216 229 131
631 284 986 377 77 21 147 43 155 51 8 8 39 35 68 60 47 42 122 132 122 148 0
7 -1 7 -60 -6z"/>
</g>
</svg>
