<?xml version="1.0" standalone="no"?>
<!DOCTYPE svg PUBLIC "-//W3C//DTD SVG 20010904//EN"
 "http://www.w3.org/TR/2001/REC-SVG-20010904/DTD/svg10.dtd">
<svg version="1.0" xmlns="http://www.w3.org/2000/svg"
 width="2048.000000pt" height="2048.000000pt" viewBox="0 0 2048.000000 2048.000000"
 preserveAspectRatio="xMidYMid meet">
<metadata>
Created by potrace 1.13, written by Peter Selinger 2001-2015
</metadata>
<g transform="translate(0.000000,2048.000000) scale(0.192120,-0.192120)"
fill="#000000" stroke="none">
<path d="M2973 9145 c-113 -31 -247 -119 -473 -310 -281 -237 -638 -585 -793
-773 -141 -170 -347 -498 -433 -690 -24 -52 -54 -106 -67 -121 -13 -14 -43
-55 -67 -89 l-42 -64 -22 21 c-24 23 -66 27 -96 11 -34 -18 -540 -697 -557
-747 -11 -31 -14 -67 -11 -117 9 -135 39 -170 413 -486 832 -702 1761 -1433
1984 -1561 72 -42 74 -42 119 -30 26 7 122 46 214 87 93 41 187 77 211 80 39
6 47 3 97 -37 134 -104 551 -532 974 -999 943 -1040 1566 -1509 2691 -2030
479 -221 1168 -498 1565 -629 566 -186 1217 -326 1325 -285 24 9 55 78 128
279 109 300 112 322 51 345 l-24 9 30 60 c69 136 96 267 87 419 -8 122 -27
193 -82 308 -112 232 -277 394 -735 719 -483 343 -855 683 -1121 1026 -239
306 -360 554 -604 1232 l-67 189 30 31 c64 68 83 144 58 228 -29 101 -113 169
-208 169 l-45 0 -22 58 c-12 31 -52 128 -88 216 -59 140 -64 159 -50 168 31
17 69 96 74 156 4 46 1 68 -17 110 -39 91 -116 142 -214 142 -50 0 -55 2 -64
28 -5 15 -47 104 -92 198 l-82 172 28 42 c33 50 44 144 24 205 -28 83 -123
154 -208 155 l-43 0 -65 135 c-36 74 -67 135 -69 135 -2 0 -43 -16 -91 -35
-402 -162 -821 -217 -1209 -159 -210 32 -441 107 -615 201 -433 233 -764 613
-1345 1543 -60 96 -125 192 -144 213 -65 73 -147 97 -238 72z m67 -280 c42
-22 82 -75 240 -320 183 -284 245 -373 400 -580 193 -257 419 -503 550 -600
15 -11 52 -39 82 -61 63 -48 288 -172 400 -220 153 -65 379 -129 573 -161 84
-13 164 -18 340 -17 201 0 241 3 322 22 135 32 196 58 259 109 44 36 58 43 65
32 5 -8 27 -47 50 -87 l40 -73 32 48 c18 26 47 56 64 66 39 22 106 24 154 4
l34 -15 -120 -56 c-66 -32 -142 -68 -170 -81 -27 -13 -124 -58 -215 -100 -190
-86 -229 -119 -256 -213 -44 -149 72 -298 231 -297 56 1 82 11 360 139 321
147 374 171 379 165 2 -2 -5 -51 -15 -109 -19 -111 -23 -147 -13 -137 3 3 23
-6 43 -21 21 -15 65 -40 99 -56 34 -16 62 -34 62 -39 0 -4 -53 -33 -117 -64
-65 -31 -165 -78 -223 -106 -58 -27 -150 -71 -205 -97 -106 -49 -145 -81 -176
-141 -80 -158 35 -339 215 -339 56 0 78 9 378 150 282 133 339 157 338 148 -2
-18 -49 -188 -56 -200 -8 -14 -20 -11 -94 18 -47 18 -91 33 -97 34 -9 0 -5
-20 12 -66 56 -148 118 -285 126 -277 5 5 22 47 39 93 17 46 35 89 40 94 9 9
158 -60 184 -84 5 -5 -133 -79 -305 -165 -173 -86 -327 -169 -342 -183 -49
-46 -71 -99 -71 -172 0 -138 97 -235 234 -234 63 1 74 5 345 138 154 76 290
142 301 146 l22 9 -20 -77 c-10 -42 -24 -90 -29 -107 -6 -16 -13 -74 -16 -127
l-6 -97 -42 -40 c-42 -39 -182 -136 -198 -136 -4 0 -12 -7 -17 -15 -7 -11 -10
-12 -10 -2 0 8 19 33 41 57 48 50 109 135 138 194 32 61 28 94 -15 129 -20 17
-45 33 -56 35 -20 6 -21 -6 -3 -55 5 -14 -97 -101 -278 -236 -127 -95 -251
-174 -383 -244 l-91 -48 -78 102 c-135 176 -307 367 -491 548 -535 524 -1098
839 -1683 940 -368 64 -685 46 -1026 -59 l-128 -40 -32 27 c-18 15 -90 78
-161 141 -254 224 -486 408 -803 635 -182 131 -346 262 -498 397 -133 119
-383 375 -382 392 0 7 37 30 82 52 87 43 100 58 217 252 58 97 193 295 244
358 160 199 472 507 756 746 152 128 225 182 297 220 62 33 91 36 133 14z
m-1703 -1851 c19 -15 76 -66 127 -113 124 -118 174 -163 290 -261 93 -77 167
-133 501 -379 171 -125 368 -284 590 -473 243 -206 325 -258 415 -260 68 -2
205 11 232 21 62 23 331 37 613 30 137 -3 558 -95 603 -131 6 -6 12 -7 12 -3
0 4 6 3 13 -2 6 -6 29 -16 50 -22 20 -7 37 -17 37 -22 0 -5 7 -9 15 -9 8 0 15
-7 15 -16 0 -8 -4 -13 -8 -10 -5 3 -19 7 -33 10 -22 4 -310 84 -384 106 -62
19 -285 50 -405 56 -273 14 -423 -32 -517 -158 -36 -49 -31 -103 15 -171 48
-71 97 -123 447 -477 160 -162 414 -432 564 -600 757 -844 1140 -1199 1786
-1652 348 -244 599 -396 945 -569 356 -178 598 -279 1085 -454 149 -53 380
-136 515 -185 135 -48 261 -92 280 -98 19 -5 130 -37 245 -70 116 -33 277 -76
359 -96 153 -37 226 -64 259 -94 21 -19 51 -72 44 -78 -6 -7 -253 43 -412 82
-292 73 -470 129 -850 269 -154 57 -341 124 -415 150 -986 343 -1641 682
-2355 1218 -560 421 -897 740 -1543 1462 -199 223 -436 470 -726 760 -697 696
-1154 1102 -1636 1450 -395 285 -598 453 -820 674 -118 118 -132 135 -115 142
38 17 124 2 162 -27z m-184 -228 c18 -7 79 -57 137 -111 226 -208 419 -365
705 -571 424 -304 859 -677 1407 -1207 427 -413 657 -653 1059 -1102 507 -567
820 -870 1269 -1230 277 -222 671 -496 942 -656 251 -148 287 -168 476 -268
107 -58 192 -109 192 -117 0 -17 -7 -14 -164 60 -65 31 -122 53 -127 50 -5 -3
-9 0 -9 7 0 7 -3 10 -6 6 -4 -3 -106 44 -228 106 -121 61 -224 111 -228 109
-5 -1 -8 2 -8 8 0 5 -6 10 -13 10 -7 0 -76 37 -153 81 -388 227 -732 485
-1114 835 -209 191 -386 374 -755 779 -356 392 -829 870 -928 939 -128 89
-225 119 -325 97 -28 -6 -112 -33 -186 -61 -76 -28 -153 -50 -174 -50 -73 1
-150 49 -477 299 -291 223 -861 682 -1251 1007 -494 411 -504 421 -504 498 0
31 21 63 136 216 211 278 241 303 327 266z m5523 -20 c18 -19 18 -22 -7 -57
-19 -28 -51 -41 -129 -54 -19 -3 -51 -10 -70 -15 -48 -13 -60 -12 -60 4 0 40
154 136 217 136 19 0 41 -6 49 -14z m-279 -138 c-3 -8 -6 -5 -6 6 -1 11 2 17
5 13 3 -3 4 -12 1 -19z m673 -663 c18 -22 4 -61 -32 -87 -44 -31 -241 -72
-246 -51 -7 26 106 110 186 139 49 17 77 17 92 -1z m-2810 -629 c423 -80 800
-263 1200 -583 157 -126 423 -386 570 -558 100 -117 351 -445 387 -505 9 -16
24 -30 31 -30 8 0 62 16 121 35 300 100 712 360 1051 664 47 42 95 84 106 94
l21 18 -1 -153 c-1 -168 0 -174 79 -342 168 -356 436 -708 801 -1053 219 -206
423 -371 764 -618 233 -168 335 -252 429 -350 99 -105 131 -151 184 -263 l40
-87 7 -220 c7 -203 9 -225 33 -287 22 -58 24 -68 10 -68 -27 0 -323 69 -520
121 -251 66 -478 134 -588 176 -49 19 -250 91 -445 160 -948 335 -1412 558
-2035 980 -585 397 -1121 868 -1626 1433 -426 476 -540 600 -740 806 -118 122
-302 306 -409 409 -107 104 -196 191 -198 195 -3 7 106 29 213 44 71 10 434
-3 515 -18z m3168 -223 c27 -51 -54 -116 -172 -139 -11 -2 -32 -6 -46 -9 -65
-14 -70 -14 -70 1 0 24 101 106 180 146 46 23 97 23 108 1z m-1758 -260 c14
-9 30 -22 36 -28 6 -5 56 -47 110 -92 119 -98 257 -240 419 -428 183 -214 258
-285 337 -319 59 -24 66 -30 53 -42 -18 -18 -78 -44 -102 -44 -29 0 -88 55
-155 143 -199 264 -350 435 -617 705 -115 116 -136 143 -81 105z m1740 -3358
c0 -19 -14 -19 -33 0 -8 8 -17 11 -21 8 -3 -4 -6 4 -6 16 0 21 1 21 30 6 17
-9 30 -22 30 -30z m17 -17 c-3 -8 -6 -5 -6 6 -1 11 2 17 5 13 3 -3 4 -12 1
-19z m20 -10 c-3 -8 -6 -5 -6 6 -1 11 2 17 5 13 3 -3 4 -12 1 -19z m49 1 c3
-6 1 -16 -5 -22 -8 -8 -11 -8 -11 2 0 7 -4 9 -10 6 -5 -3 -10 1 -10 9 0 18 25
22 36 5z m21 -31 c-3 -8 -6 -5 -6 6 -1 11 2 17 5 13 3 -3 4 -12 1 -19z m51
-11 c2 -10 -1 -17 -7 -17 -6 0 -11 5 -11 11 0 5 -4 7 -10 4 -5 -3 -10 0 -10 9
0 20 34 13 38 -7z m19 -19 c-3 -8 -6 -5 -6 6 -1 11 2 17 5 13 3 -3 4 -12 1
-19z m51 -11 c2 -10 -1 -17 -7 -17 -6 0 -11 5 -11 11 0 5 -4 7 -10 4 -5 -3
-10 0 -10 9 0 20 34 13 38 -7z m19 -19 c-3 -8 -6 -5 -6 6 -1 11 2 17 5 13 3
-3 4 -12 1 -19z m53 -13 c0 -8 -4 -15 -10 -15 -5 0 -10 5 -10 11 0 5 -4 7 -10
4 -5 -3 -10 3 -10 15 0 18 3 19 20 10 11 -6 20 -17 20 -25z m47 -10 c3 -9 2
-19 -2 -23 -4 -4 -10 -1 -12 6 -3 6 -9 10 -14 6 -5 -3 -9 2 -9 10 0 21 29 21
37 1z m113 -38 c47 -19 90 -35 95 -37 6 -1 15 -4 20 -5 6 -2 19 -6 30 -11 11
-4 22 -8 25 -9 3 0 30 -9 60 -20 30 -11 58 -20 63 -21 4 -1 8 -2 10 -4 1 -1 9
-3 17 -5 35 -8 538 -190 605 -219 17 -7 57 -24 90 -36 33 -13 63 -29 67 -34 4
-6 8 -7 8 -2 0 5 7 3 15 -4 8 -7 15 -9 15 -5 0 4 7 2 15 -5 8 -7 12 -17 9 -22
-4 -6 -10 -6 -16 0 -6 6 -17 8 -24 5 -8 -3 -14 -1 -14 4 0 5 -8 9 -17 10 -15
0 -81 10 -90 12 -2 1 -5 1 -8 1 -31 3 -598 208 -629 227 -6 4 -20 9 -31 10
-10 2 -30 10 -42 18 -13 9 -23 12 -23 9 0 -4 -9 1 -19 10 -11 10 -25 15 -30
11 -6 -3 -11 -2 -11 3 0 5 -38 24 -85 42 -47 18 -85 37 -85 41 0 5 -6 6 -14 3
-7 -3 -20 1 -27 9 -8 7 -19 12 -25 10 -7 -2 -18 3 -27 11 -8 8 -17 12 -21 9
-3 -4 -6 1 -6 10 0 23 2 22 100 -16z m1175 -436 c3 -5 1 -12 -5 -16 -5 -3 -10
1 -10 9 0 18 6 21 15 7z M6609 6407 c29 -76 143 -297 151 -292 19 12 50 118
50 174 l0 58 -62 30 c-35 17 -74 34 -88 37 -64 19 -61 19 -51 -7z"/>
</g>
</svg>
