<?xml version="1.0" standalone="no"?>
<!DOCTYPE svg PUBLIC "-//W3C//DTD SVG 20010904//EN"
 "http://www.w3.org/TR/2001/REC-SVG-20010904/DTD/svg10.dtd">
<svg version="1.0" xmlns="http://www.w3.org/2000/svg"
 width="2048.000000pt" height="2048.000000pt" viewBox="0 0 2048.000000 2048.000000"
 preserveAspectRatio="xMidYMid meet">
<metadata>
Created by potrace 1.13, written by Peter Selinger 2001-2015
</metadata>
<g transform="translate(0.000000,2048.000000) scale(0.192120,-0.192120)"
fill="#000000" stroke="none">
<path d="M5030 10323 c-36 -2 -139 -10 -230 -19 -867 -81 -1586 -354 -2183
-827 -127 -100 -388 -361 -489 -487 -397 -500 -628 -1074 -679 -1690 -18 -227
1 -665 41 -926 6 -38 22 -127 37 -198 l26 -129 -42 -35 c-93 -77 -204 -260
-262 -429 -111 -330 -113 -716 -4 -1050 93 -284 268 -497 460 -561 53 -18 60
-24 63 -49 9 -94 59 -354 97 -508 425 -1728 1715 -2955 3229 -3075 1369 -108
2667 716 3362 2134 202 412 358 913 423 1360 l17 119 55 16 c189 59 370 280
464 566 164 501 65 1134 -227 1437 l-40 43 16 125 c57 441 71 1013 31 1280
-44 289 -133 566 -275 850 -171 343 -363 606 -659 900 -305 304 -590 511 -971
704 -674 342 -1415 490 -2260 449z m646 -263 c886 -69 1655 -378 2284 -916
126 -107 335 -324 439 -454 221 -277 402 -614 494 -920 72 -237 68 -175 64
-1100 -3 -830 -3 -835 -25 -908 -27 -88 -37 -105 -75 -127 -28 -17 -30 -17
-56 2 -52 39 -112 146 -372 658 -278 550 -295 577 -387 624 -61 31 -109 39
-322 51 -749 41 -1323 159 -1736 356 -160 76 -246 104 -291 93 -61 -13 -63
-26 -13 -71 251 -227 775 -401 1465 -487 225 -29 479 -49 696 -57 l186 -7 27
-56 c151 -310 608 -1195 641 -1240 156 -211 307 -95 410 314 16 61 31 113 35
118 5 6 107 -376 146 -548 9 -42 14 -138 14 -314 0 -228 -2 -261 -21 -325 -84
-290 -166 -428 -344 -585 -164 -145 -196 -194 -235 -366 -12 -49 -32 -126 -45
-170 -13 -44 -34 -134 -45 -200 -61 -340 -263 -841 -489 -1210 -51 -85 -167
-246 -208 -290 -10 -11 -67 -80 -128 -154 -682 -832 -1641 -1279 -2617 -1221
-443 27 -810 128 -1213 333 -532 271 -1021 727 -1370 1278 -96 150 -255 459
-325 629 -118 286 -210 595 -275 925 -19 99 -45 199 -57 222 -34 69 -121 166
-231 260 -146 124 -221 230 -275 388 -41 123 -44 156 -40 505 l3 335 57 165
c31 91 68 215 83 275 15 61 29 117 32 125 3 8 22 -33 43 -92 59 -165 124 -283
195 -355 71 -71 112 -85 164 -59 42 22 65 72 96 212 158 704 483 1325 925
1764 102 101 239 220 255 220 4 0 41 -29 84 -64 121 -100 361 -278 499 -369
442 -291 718 -372 854 -249 70 64 94 199 62 362 -6 33 0 28 122 -90 419 -408
737 -646 891 -667 38 -5 45 -2 74 26 l32 32 -5 92 c-4 75 -14 117 -52 232 -26
77 -75 196 -108 265 l-59 125 -20 -24 c-31 -38 -26 -157 11 -283 34 -114 41
-224 15 -234 -34 -13 -219 124 -498 369 -283 248 -339 276 -420 214 -39 -29
-89 -111 -105 -169 -15 -57 -67 -125 -100 -133 -40 -8 -155 17 -243 54 -173
72 -432 234 -718 451 -245 185 -303 205 -424 145 -134 -67 -385 -318 -566
-569 -245 -338 -454 -777 -577 -1210 -51 -179 -76 -243 -98 -252 -37 -14 -107
73 -122 151 -4 22 -13 54 -21 72 -8 20 -13 71 -13 129 0 56 -9 150 -23 223
-21 121 -22 149 -22 691 l0 565 32 135 c98 414 290 799 569 1141 88 108 302
318 419 412 572 459 1302 729 2163 801 193 17 634 20 808 6z M3890 5881 c-58
-12 -107 -40 -150 -88 -76 -82 -75 -76 -75 -463 0 -340 0 -346 23 -392 27 -54
98 -123 150 -145 49 -21 156 -20 205 1 61 25 110 70 143 128 l29 53 0 355 0
355 -29 53 c-60 107 -182 166 -296 143z M6648 5876 c-94 -26 -174 -105 -199
-199 -6 -23 -9 -165 -7 -370 l3 -332 29 -53 c33 -58 82 -103 143 -128 49 -21
156 -22 205 -1 52 22 123 91 150 145 23 46 23 52 23 392 0 340 0 346 -23 392
-26 53 -98 123 -145 143 -51 21 -127 26 -179 11z M4983 4211 c-49 -13 -117
-57 -147 -96 -42 -55 -59 -104 -59 -175 0 -82 28 -143 89 -200 83 -76 76 -75
464 -75 388 0 381 -1 464 75 61 57 89 118 89 200 0 108 -50 193 -145 246 l-53
29 -335 2 c-184 1 -349 -2 -367 -6z m629 -235 c29 -13 33 -47 9 -67 -33 -27
-84 -31 -331 -27 -196 3 -230 5 -253 21 -28 18 -36 50 -14 64 6 4 35 11 62 14
65 9 505 4 527 -5z M4446 3378 c-119 -17 -218 -128 -220 -246 l-1 -53 -50 -14
c-650 -185 -903 -258 -924 -270 -35 -18 -95 -82 -116 -125 -10 -19 -20 -62
-23 -96 -9 -117 48 -218 153 -270 89 -43 137 -38 440 52 143 42 268 79 278 81
16 5 15 -1 -9 -48 -32 -64 -38 -160 -12 -220 44 -102 147 -169 260 -169 66 0
72 2 314 123 135 68 247 119 249 113 1 -6 8 -29 14 -52 15 -58 62 -118 117
-150 67 -39 170 -45 242 -14 60 26 134 102 152 155 6 19 15 35 20 35 5 0 14
-16 20 -35 18 -53 92 -129 152 -155 75 -32 178 -25 245 16 56 35 111 110 119
165 4 22 10 39 15 39 5 0 117 -54 249 -120 236 -117 243 -120 308 -120 113 0
216 68 260 169 26 60 20 156 -12 220 -24 47 -25 53 -9 49 10 -3 137 -40 283
-83 305 -89 347 -94 435 -50 105 51 162 152 153 269 -3 34 -13 77 -23 96 -21
43 -81 107 -117 126 -15 8 -233 73 -485 144 -252 72 -465 133 -473 135 -11 4
-15 20 -16 57 -1 92 -60 180 -148 223 l-52 25 -870 3 c-479 1 -892 -1 -918 -5z
m1733 -187 c56 -11 91 -37 119 -92 38 -70 91 -137 139 -174 53 -40 124 -65
543 -185 173 -50 328 -98 344 -108 42 -25 50 -42 42 -95 -7 -42 -11 -49 -48
-68 -51 -26 -84 -23 -295 32 -235 60 -290 61 -359 7 -45 -36 -94 -122 -94
-166 0 -23 -8 -49 -18 -63 -11 -13 -22 -37 -26 -52 -16 -65 -125 -62 -278 8
-330 152 -335 152 -533 -2 -100 -78 -114 -76 -320 35 -53 29 -81 28 -151 -9
-32 -18 -79 -43 -103 -55 -46 -25 -102 -31 -144 -15 -14 5 -49 31 -78 57 -155
137 -198 137 -483 2 -108 -51 -141 -62 -195 -65 -83 -5 -131 19 -131 66 0 16
-7 34 -15 41 -9 7 -15 30 -15 54 -1 56 -46 133 -99 171 -64 45 -129 42 -374
-20 -186 -46 -200 -48 -245 -36 -59 15 -78 33 -87 77 -8 44 13 80 59 99 18 8
176 55 352 105 552 157 558 161 678 372 29 52 45 63 103 77 48 11 1653 13
1712 2z"/>
</g>
</svg>
