<?xml version="1.0" standalone="no"?>
<!DOCTYPE svg PUBLIC "-//W3C//DTD SVG 20010904//EN"
 "http://www.w3.org/TR/2001/REC-SVG-20010904/DTD/svg10.dtd">
<svg version="1.0" xmlns="http://www.w3.org/2000/svg"
 width="2048.000000pt" height="2048.000000pt" viewBox="0 0 2048.000000 2048.000000"
 preserveAspectRatio="xMidYMid meet">
<metadata>
Created by potrace 1.13, written by Peter Selinger 2001-2015
</metadata>
<g transform="translate(0.000000,2048.000000) scale(0.192120,-0.192120)"
fill="#000000" stroke="none">
<path d="M4975 9235 c-1455 -166 -2464 -1168 -2785 -2765 -21 -107 -42 -221
-46 -252 l-6 -58 -37 0 c-95 0 -217 -58 -316 -151 -239 -224 -374 -659 -337
-1092 24 -277 90 -485 217 -677 50 -75 149 -174 221 -219 57 -37 160 -71 213
-71 l36 0 33 -132 c19 -73 64 -225 102 -338 192 -580 480 -1091 851 -1514 503
-574 1113 -931 1790 -1047 118 -21 168 -23 414 -24 223 0 303 4 392 18 689
111 1306 466 1817 1047 440 499 781 1162 957 1857 l34 133 36 0 c105 0 244 74
349 187 105 112 168 226 230 412 107 322 105 697 -5 1028 -98 294 -280 507
-484 567 -30 9 -71 16 -92 16 l-37 0 -6 58 c-12 102 -75 403 -116 553 -301
1110 -954 1894 -1885 2262 -232 92 -470 154 -745 193 -159 22 -632 28 -795 9z
m645 -246 c585 -53 1126 -270 1541 -617 218 -183 447 -454 610 -723 224 -370
363 -753 474 -1309 17 -84 37 -151 52 -178 40 -70 181 -202 269 -251 106 -60
158 -103 211 -175 64 -87 104 -172 152 -324 l42 -133 -4 -267 c-4 -288 -8
-319 -68 -465 -67 -165 -156 -269 -276 -323 -131 -58 -144 -67 -213 -134 -79
-77 -118 -151 -155 -290 -50 -188 -96 -309 -219 -579 -135 -296 -202 -422
-335 -631 -351 -553 -813 -973 -1324 -1203 -341 -153 -613 -216 -980 -224
-326 -8 -570 27 -849 120 -427 143 -778 365 -1123 711 -287 288 -514 613 -718
1028 -110 226 -231 548 -287 768 -12 46 -32 107 -46 135 -56 118 -172 227
-296 279 -136 57 -251 192 -317 376 -48 132 -51 163 -51 477 0 271 2 307 21
378 38 148 127 306 216 386 21 18 76 54 123 79 103 54 244 184 283 260 16 31
36 103 52 183 86 443 185 749 347 1072 123 245 237 422 398 615 457 548 1118
886 1876 959 129 12 461 13 594 0z M3857 5316 c-99 -36 -166 -112 -187 -211
-7 -34 -10 -164 -8 -362 3 -300 4 -309 27 -361 43 -96 145 -162 251 -162 75 0
139 27 197 85 80 80 83 99 83 470 0 371 -3 390 -83 470 -79 78 -184 105 -280
71z m103 -546 c0 -273 0 -280 -20 -280 -20 0 -20 7 -20 280 0 273 0 280 20
280 20 0 20 -7 20 -280z M6620 5313 c-66 -24 -144 -107 -164 -173 -23 -76 -23
-651 -1 -726 30 -103 130 -183 239 -191 120 -10 220 46 273 155 l28 57 0 340
c0 324 -1 342 -21 385 -30 65 -70 107 -128 137 -65 33 -161 40 -226 16z m110
-543 c0 -242 -2 -280 -15 -280 -13 0 -15 38 -15 280 0 242 2 280 15 280 13 0
15 -38 15 -280z M4964 3928 c-17 -6 -53 -27 -80 -47 -163 -123 -135 -379 51
-467 50 -24 53 -24 395 -24 342 0 345 0 395 24 207 98 212 393 8 496 l-48 25
-345 2 c-214 1 -357 -3 -376 -9z m689 -212 c24 -12 23 -80 -2 -105 -29 -29
-79 -33 -363 -29 -243 3 -258 4 -285 24 -22 17 -28 29 -28 59 0 61 19 65 365
62 162 -2 303 -6 313 -11z M4405 2896 c-88 -28 -136 -68 -194 -160 -31 -49
-31 -52 -31 -182 0 -78 4 -135 10 -139 6 -3 10 -13 10 -22 0 -8 20 -44 45 -78
66 -92 200 -191 361 -264 153 -70 256 -102 419 -131 105 -19 147 -21 340 -18
235 5 327 19 500 74 129 41 351 154 433 219 39 32 72 61 72 64 0 3 11 18 25
33 14 15 38 53 55 86 28 56 30 67 30 171 0 98 -3 117 -24 159 -46 91 -81 128
-151 163 -120 59 -237 42 -396 -57 -114 -71 -201 -110 -307 -136 -74 -19 -116
-22 -277 -22 -167 0 -201 3 -280 23 -115 30 -193 65 -302 137 -132 87 -237
112 -338 80z m186 -81 c25 -9 69 -36 99 -60 221 -182 599 -248 940 -164 100
24 268 103 325 152 126 109 277 115 390 15 71 -62 90 -106 90 -208 0 -74 -3
-91 -27 -131 -90 -153 -410 -326 -721 -390 -194 -39 -495 -41 -692 -4 -309 58
-652 239 -742 392 -20 34 -27 63 -31 119 -4 68 -2 80 27 138 63 129 206 187
342 141z"/>
</g>
</svg>
