<?xml version="1.0" standalone="no"?>
<!DOCTYPE svg PUBLIC "-//W3C//DTD SVG 20010904//EN"
 "http://www.w3.org/TR/2001/REC-SVG-20010904/DTD/svg10.dtd">
<svg version="1.0" xmlns="http://www.w3.org/2000/svg"
 width="2048.000000pt" height="2048.000000pt" viewBox="0 0 2048.000000 2048.000000"
 preserveAspectRatio="xMidYMid meet">
<metadata>
Created by potrace 1.13, written by Peter Selinger 2001-2015
</metadata>
<g transform="translate(0.000000,2048.000000) scale(0.192120,-0.192120)"
fill="#000000" stroke="none">
<path d="M3505 10284 c-16 -2 -70 -9 -120 -15 -191 -23 -425 -85 -615 -164
-80 -33 -133 -47 -220 -60 -802 -115 -1454 -706 -1646 -1490 -132 -544 -24
-1131 294 -1590 57 -83 171 -222 216 -264 25 -23 26 -30 26 -126 0 -122 22
-300 56 -454 97 -433 343 -838 683 -1122 174 -146 394 -278 574 -345 l77 -29
0 -202 0 -202 48 16 c26 8 62 30 80 48 l32 34 0 150 0 151 -32 52 c-56 91
-119 140 -293 229 -158 80 -207 111 -315 197 -113 90 -174 150 -259 252 -219
262 -343 502 -410 790 -29 122 -61 342 -61 416 0 34 -4 66 -10 69 -5 3 -10 13
-10 21 0 8 -5 20 -10 27 -6 7 -20 25 -31 40 -23 31 -94 71 -109 62 -6 -4 -10
137 -10 387 l0 394 153 2 c307 5 698 49 857 96 25 7 57 14 72 15 83 3 419 96
621 171 541 201 1000 492 1371 869 66 67 120 121 121 121 2 0 17 -44 35 -97
117 -351 342 -724 541 -894 127 -108 284 -203 372 -224 l27 -7 0 -599 0 -598
-50 -22 c-82 -35 -118 -86 -168 -235 -24 -71 -51 -147 -61 -169 -10 -22 -40
-89 -67 -149 -55 -124 -124 -242 -262 -449 -64 -95 -238 -260 -357 -339 -55
-37 -170 -100 -255 -142 -171 -83 -266 -156 -314 -242 -25 -44 -26 -54 -26
-196 0 -84 4 -147 9 -144 5 3 11 -3 14 -14 6 -23 111 -74 133 -66 11 4 14 44
14 193 l0 188 67 24 c92 33 270 125 378 195 364 237 648 586 809 995 37 92
106 343 106 381 0 11 33 62 74 114 267 342 440 770 492 1222 22 184 15 497
-15 669 -89 521 -323 977 -691 1345 -373 373 -843 611 -1375 695 -95 15 -490
29 -560 19z m453 -265 c872 -94 1620 -686 1877 -1484 74 -230 76 -253 72 -731
l-3 -429 -27 -100 c-38 -135 -63 -187 -91 -183 -30 4 -33 32 -35 266 -1 170
-3 204 -16 208 -8 4 -15 12 -15 18 0 27 -42 96 -82 136 -24 23 -88 69 -144
102 -282 167 -459 396 -669 863 -70 155 -143 230 -222 227 -61 -2 -123 -44
-318 -217 -235 -208 -490 -381 -765 -519 -211 -106 -374 -172 -629 -256 -196
-64 -310 -114 -355 -154 -16 -14 -32 -26 -35 -27 -3 0 -17 -2 -29 -5 -13 -2
-44 3 -68 11 -57 19 -189 19 -375 0 -79 -8 -220 -19 -314 -25 -93 -5 -188 -15
-210 -21 -38 -11 -112 -60 -128 -86 -4 -6 -14 -19 -22 -27 -8 -8 -15 -19 -15
-25 0 -6 -4 -11 -10 -11 -5 0 -10 -9 -10 -20 0 -11 -4 -20 -10 -20 -6 0 -10
-29 -10 -67 0 -81 -6 -93 -44 -90 -25 2 -34 12 -62 67 -19 36 -45 101 -59 145
-51 157 -55 195 -55 528 0 296 1 317 24 412 158 651 692 1141 1386 1271 158
30 237 52 455 128 161 55 342 98 490 114 114 13 409 14 523 1z M2454 7534
c-60 -21 -119 -77 -151 -142 -28 -57 -28 -58 -28 -257 0 -200 0 -200 29 -258
52 -107 156 -165 274 -154 73 6 127 33 179 89 66 73 75 115 71 345 -3 223 -9
242 -85 315 -76 73 -189 98 -289 62z M4385 7526 c-59 -27 -107 -72 -138 -130
-21 -39 -22 -53 -22 -261 0 -248 3 -262 82 -336 54 -52 98 -71 175 -77 61 -4
74 -2 132 27 40 19 77 47 96 70 56 72 60 91 60 319 0 204 -1 209 -26 260 -65
131 -228 190 -359 128z M3314 6291 c-27 -12 -72 -66 -80 -97 -10 -40 6 -95 35
-125 42 -42 95 -51 265 -47 179 4 206 14 238 85 26 58 18 103 -27 151 l-33 37
-189 2 c-103 1 -197 -2 -209 -6z M7465 6153 c-238 -29 -479 -94 -663 -178 -60
-28 -92 -36 -189 -45 -228 -21 -416 -74 -618 -175 -464 -232 -800 -665 -905
-1169 -21 -101 -45 -341 -35 -356 4 -6 -153 -10 -423 -10 l-428 0 -194 -297
c-107 -164 -259 -397 -338 -518 -79 -121 -146 -223 -150 -227 -4 -4 -164 229
-357 518 l-350 524 -905 -3 c-786 -2 -912 -5 -955 -18 -178 -56 -270 -163
-318 -373 -21 -90 -21 -106 -24 -1794 l-4 -1702 2250 0 2249 0 13 38 c33 102
130 257 229 365 117 128 358 279 544 341 159 53 335 85 464 86 l62 0 0 185 0
184 -35 24 c-74 51 -201 166 -282 257 -212 238 -370 542 -443 850 -42 178 -48
287 -49 802 l-1 486 62 6 c35 3 131 10 215 16 301 21 656 84 938 165 503 144
964 391 1277 683 l64 61 64 -75 c93 -109 299 -307 420 -404 253 -202 516 -343
760 -406 l85 -22 0 -494 c0 -271 -4 -523 -8 -559 l-8 -66 -57 -28 c-75 -36
-122 -94 -157 -192 -97 -272 -166 -412 -282 -568 -80 -107 -200 -234 -303
-320 -86 -72 -290 -210 -367 -249 -242 -122 -366 -236 -348 -320 15 -71 16
-117 5 -152 -12 -35 -166 -272 -233 -357 -16 -21 -53 -54 -81 -73 -43 -29 -59
-34 -107 -34 -59 0 -98 19 -163 79 -31 29 -210 291 -245 358 -23 46 -27 112
-10 161 27 79 -64 188 -233 277 -286 152 -347 170 -407 119 -17 -14 -31 -32
-31 -39 0 -34 293 -190 453 -241 l87 -29 0 -42 0 -43 -286 0 -286 0 6 -32 c9
-46 36 -80 81 -102 33 -16 60 -19 175 -19 183 1 236 13 289 64 36 35 44 39 57
28 15 -12 354 -518 404 -603 l24 -39 -25 7 c-80 22 -302 27 -1109 24 -989 -4
-877 7 -1100 -103 l-113 -55 2442 0 c1973 0 2441 2 2441 13 0 7 -25 63 -55
124 -156 318 -442 566 -765 664 -73 23 -88 23 -577 27 l-501 3 2 41 2 41 110
39 c591 210 1056 715 1213 1317 23 89 37 121 89 201 165 252 279 557 328 875
23 149 23 459 0 610 -37 239 -99 442 -201 650 -322 663 -950 1113 -1689 1210
-106 14 -405 19 -491 8z m567 -292 c478 -87 868 -309 1177 -671 137 -159 258
-377 326 -584 49 -149 56 -203 53 -374 l-3 -153 -61 49 c-47 37 -90 59 -180
92 -302 111 -545 274 -866 581 -87 83 -184 166 -215 185 -109 66 -174 45 -405
-128 -169 -127 -297 -207 -464 -292 -394 -197 -859 -327 -1369 -381 -83 -8
-192 -20 -244 -26 -52 -5 -114 -18 -138 -29 -49 -22 -173 -139 -173 -164 0 -9
-4 -16 -10 -16 -5 0 -10 -9 -10 -20 0 -11 -4 -20 -10 -20 -6 0 -10 -80 -10
-219 0 -233 -4 -281 -26 -281 -8 0 -14 -7 -14 -15 0 -26 -27 -16 -55 20 -35
47 -108 186 -134 255 -41 109 -61 211 -61 305 0 86 2 93 26 116 51 47 99 158
109 252 52 473 252 815 621 1063 206 138 404 209 704 253 149 22 169 28 349
95 147 54 322 100 446 115 50 6 101 13 115 15 64 11 420 -5 522 -23z m-2962
-1853 c25 -171 87 -373 160 -519 52 -104 99 -177 188 -296 l84 -112 3 -163 c7
-485 186 -897 561 -1288 121 -126 141 -161 129 -233 -11 -65 -40 -85 -174
-117 -285 -70 -454 -161 -556 -300 -20 -27 -57 -90 -84 -140 l-48 -91 -6 38
c-4 21 -7 552 -7 1181 l0 1142 -140 0 -140 0 0 -1274 c0 -700 -3 -1301 -6
-1335 -5 -40 -11 -60 -18 -57 -6 3 -47 19 -91 37 -44 17 -88 35 -97 40 -26 13
-2638 12 -2638 -1 0 -5 -6 -10 -13 -10 -7 0 -48 -22 -92 -49 l-80 -50 -3 1350
-2 1349 -145 0 -145 0 0 -1350 c0 -742 -2 -1350 -5 -1350 -3 0 -42 25 -86 55
-44 30 -91 55 -105 55 -13 0 -24 5 -24 10 0 6 -98 10 -275 10 -268 0 -275 0
-275 20 0 17 -7 20 -45 20 l-45 0 2 1608 3 1607 22 42 c13 23 31 48 40 55 10
7 23 22 28 32 6 10 33 28 60 40 49 21 61 21 850 24 575 2 812 0 841 -8 78 -22
113 -64 354 -424 194 -290 280 -389 384 -440 72 -35 115 -32 184 13 106 70
148 123 388 490 98 151 197 293 219 316 65 67 122 77 460 84 299 6 307 8 344
60 8 11 18 18 22 16 4 -3 12 -42 19 -87z m3098 -2976 c71 -45 76 -45 467 -52
420 -8 480 -15 615 -74 41 -17 107 -51 147 -74 83 -49 243 -195 243 -222 0
-11 5 -22 10 -25 19 -11 11 -51 -12 -63 -17 -9 -266 -13 -908 -16 -829 -3
-891 -5 -982 -23 -54 -11 -98 -17 -98 -15 0 12 324 505 395 602 l37 51 25 -33
c13 -18 41 -43 61 -56z M2627 5378 c31 -54 174 -192 254 -245 311 -205 791
-231 1146 -62 85 40 215 132 269 191 42 44 104 127 104 139 0 5 -355 9 -896 9
l-895 0 18 -32z M6663 3380 c-84 -17 -152 -70 -190 -148 -28 -57 -28 -57 -28
-267 l0 -210 30 -53 c53 -97 132 -145 240 -146 119 -1 212 60 263 171 14 32
17 70 17 243 0 193 -1 208 -23 251 -58 119 -184 184 -309 159z M8318 3376
c-95 -26 -172 -100 -197 -189 -9 -29 -12 -107 -9 -243 3 -183 5 -202 25 -240
46 -86 155 -154 248 -154 98 0 208 72 251 165 23 47 24 61 24 255 0 195 -1
207 -24 255 -56 119 -196 185 -318 151z M7483 2394 c-20 -10 -40 -32 -54 -60
-29 -60 -20 -106 31 -156 33 -33 44 -38 84 -38 87 0 146 55 146 135 0 104
-109 167 -207 119z M6720 1990 c0 -6 14 -39 31 -73 105 -208 292 -369 509
-435 157 -48 369 -52 540 -11 254 60 472 247 575 492 l15 37 -835 0 c-565 0
-835 -3 -835 -10z m1058 -226 c42 -6 52 -10 52 -25 0 -11 -7 -19 -15 -19 -8 0
-15 -4 -15 -9 0 -14 -180 -51 -248 -51 -68 0 -252 38 -252 52 0 4 -7 8 -15 8
-8 0 -15 9 -15 19 0 15 8 21 38 24 64 7 415 7 470 1z"/>
</g>
</svg>
