<?xml version="1.0" standalone="no"?>
<!DOCTYPE svg PUBLIC "-//W3C//DTD SVG 20010904//EN"
 "http://www.w3.org/TR/2001/REC-SVG-20010904/DTD/svg10.dtd">
<svg version="1.0" xmlns="http://www.w3.org/2000/svg"
 width="2048.000000pt" height="2048.000000pt" viewBox="0 0 2048.000000 2048.000000"
 preserveAspectRatio="xMidYMid meet">
<metadata>
Created by potrace 1.13, written by Peter Selinger 2001-2015
</metadata>
<g transform="translate(0.000000,2048.000000) scale(0.192120,-0.192120)"
fill="#000000" stroke="none">
<path d="M5020 10224 c-382 -27 -722 -84 -1063 -180 -1125 -316 -2063 -1057
-2517 -1989 -161 -332 -244 -629 -271 -973 -18 -235 12 -853 55 -1120 7 -46
10 -84 7 -86 -3 -2 -24 -7 -45 -10 -22 -4 -65 -20 -96 -36 -214 -108 -381
-378 -452 -733 -19 -95 -23 -144 -23 -322 0 -178 4 -227 23 -322 79 -392 271
-676 517 -765 84 -30 208 -29 290 1 33 13 66 23 74 24 9 2 19 -25 32 -88 60
-290 187 -645 335 -937 323 -636 811 -1162 1417 -1527 467 -282 982 -455 1567
-528 206 -25 714 -25 920 0 499 62 912 186 1330 398 588 299 1057 716 1427
1269 261 390 469 880 562 1325 13 63 23 90 32 88 8 -1 41 -11 74 -24 82 -30
206 -31 290 -1 246 89 438 373 517 765 19 95 23 144 23 322 0 177 -4 227 -22
320 -88 432 -319 740 -586 780 -60 9 -60 4 -2 -111 64 -128 77 -147 118 -183
101 -89 196 -264 243 -447 22 -90 24 -114 24 -351 0 -283 -9 -354 -63 -483
-50 -121 -160 -274 -241 -336 -63 -48 -106 -58 -240 -56 -114 2 -121 1 -160
-24 -62 -40 -161 -146 -189 -200 -14 -27 -37 -89 -52 -138 -36 -121 -275 -727
-335 -851 -88 -184 -381 -595 -491 -691 -13 -11 -64 -57 -113 -103 -335 -311
-617 -508 -971 -677 -387 -184 -792 -296 -1255 -346 -175 -19 -634 -16 -810 6
-479 58 -879 175 -1270 371 -320 161 -589 349 -876 613 -194 178 -455 515
-581 752 -22 41 -63 118 -91 170 -97 182 -194 433 -277 720 -20 69 -48 145
-62 170 -33 56 -124 152 -183 194 -44 30 -49 31 -180 36 l-135 5 -79 45 c-117
67 -198 177 -259 350 -44 124 -47 158 -47 471 0 277 2 309 21 378 27 96 79
213 144 320 85 142 125 213 167 301 l41 85 29 -125 c56 -246 124 -406 204
-480 38 -35 50 -40 89 -40 60 0 92 18 149 81 60 67 39 30 410 724 173 325 319
596 323 604 6 9 44 17 118 23 591 49 1215 287 1535 584 l45 42 0 -122 c0 -121
1 -124 35 -192 43 -84 105 -135 205 -167 103 -32 293 -30 465 6 271 57 736
233 1039 393 46 24 85 44 86 44 2 0 6 -26 10 -57 9 -82 31 -166 55 -214 54
-106 165 -182 284 -194 220 -24 569 123 973 410 70 50 134 89 142 87 41 -8
287 -137 381 -199 508 -337 865 -876 1030 -1558 34 -142 61 -195 110 -215 91
-38 222 82 320 294 135 288 203 654 225 1211 40 980 -438 1941 -1280 2575
-616 463 -1364 733 -2295 826 -147 14 -769 27 -900 18z m748 -304 c896 -64
1683 -323 2272 -748 596 -431 983 -998 1131 -1658 l29 -132 0 -533 c0 -494 -2
-543 -21 -654 -11 -66 -23 -169 -25 -230 -3 -60 -11 -128 -19 -150 -7 -22 -16
-55 -19 -74 -8 -43 -51 -101 -76 -101 -24 0 -51 46 -85 145 -166 492 -385 854
-711 1178 -240 238 -557 444 -743 482 -114 24 -171 3 -416 -155 -318 -205
-527 -292 -700 -294 -67 -1 -87 3 -123 24 -37 21 -50 39 -99 134 -66 130 -145
218 -213 236 -68 18 -107 5 -500 -165 -183 -79 -463 -174 -610 -207 -149 -33
-363 -33 -433 -1 -43 20 -51 29 -78 90 -17 37 -42 94 -57 127 -32 71 -116 152
-167 162 -58 11 -87 -2 -319 -140 -315 -188 -626 -298 -1021 -362 -335 -53
-345 -57 -470 -181 -55 -54 -82 -101 -324 -554 -340 -636 -361 -668 -417 -638
-28 14 -44 37 -69 99 -25 60 -35 323 -41 1070 -5 504 -3 586 11 664 36 193 96
367 205 591 298 612 868 1158 1581 1516 500 250 1082 409 1679 458 153 12 677
13 848 1z M3579 5316 c-87 -31 -149 -93 -177 -175 -8 -23 -12 -143 -12 -376
l0 -341 26 -52 c30 -61 69 -96 143 -130 45 -21 64 -24 120 -20 36 3 82 13 101
23 48 24 107 82 133 130 21 39 22 50 22 400 0 352 0 361 -22 401 -29 55 -103
119 -160 138 -56 19 -125 20 -174 2z m117 -246 c12 0 14 -47 14 -293 0 -314 0
-317 -51 -317 -59 0 -60 4 -57 318 l3 286 25 7 c14 4 31 5 38 3 8 -2 20 -4 28
-4z M6896 5310 c-58 -23 -119 -78 -149 -135 -21 -39 -22 -50 -22 -400 0 -350
1 -361 22 -400 26 -48 85 -106 133 -130 19 -10 65 -20 102 -23 61 -4 74 -2
132 27 70 34 120 87 142 149 18 50 18 701 1 749 -53 143 -222 220 -361 163z
m135 -240 c6 0 8 -120 7 -302 l-3 -303 -36 -3 c-22 -2 -40 2 -48 11 -8 11 -11
92 -9 303 l3 288 25 7 c14 4 31 5 38 3 8 -2 18 -4 23 -4z M4964 3928 c-17 -6
-53 -27 -80 -47 -163 -123 -135 -379 51 -467 50 -24 53 -24 395 -24 342 0 345
0 395 24 186 88 214 344 51 467 -26 20 -65 41 -86 48 -48 14 -681 13 -726 -1z
m694 -201 c28 -16 32 -22 32 -60 -1 -95 -43 -107 -365 -107 -319 0 -375 16
-375 107 0 71 58 82 405 80 236 -2 274 -5 303 -20z M3577 2816 c-21 -8 -55
-26 -77 -41 -135 -93 -149 -308 -28 -423 84 -80 457 -200 823 -266 377 -68
679 -90 1135 -83 338 6 426 11 680 43 457 57 969 203 1079 307 108 103 108
288 0 396 -88 87 -206 100 -351 38 -172 -73 -473 -147 -763 -186 -783 -107
-1707 -33 -2238 180 -116 47 -199 58 -260 35z m318 -249 c472 -154 1068 -225
1673 -197 490 22 822 77 1206 199 161 52 218 60 275 40 28 -10 31 -15 31 -54
0 -84 -46 -116 -268 -186 -854 -269 -2178 -262 -3018 17 -178 59 -234 100
-234 174 0 25 6 34 33 46 53 24 145 12 302 -39z"/>
</g>
</svg>
