<?xml version="1.0" standalone="no"?>
<!DOCTYPE svg PUBLIC "-//W3C//DTD SVG 20010904//EN"
 "http://www.w3.org/TR/2001/REC-SVG-20010904/DTD/svg10.dtd">
<svg version="1.0" xmlns="http://www.w3.org/2000/svg"
 width="2048.000000pt" height="2048.000000pt" viewBox="0 0 2048.000000 2048.000000"
 preserveAspectRatio="xMidYMid meet">
<metadata>
Created by potrace 1.13, written by Peter Selinger 2001-2015
</metadata>
<g transform="translate(0.000000,2048.000000) scale(0.192120,-0.192120)"
fill="#000000" stroke="none">
<path d="M1067 9375 c-49 -18 -71 -34 -135 -98 -229 -225 -439 -844 -569
-1677 -26 -173 -27 -183 -30 -748 -4 -520 -2 -578 13 -625 9 -29 23 -61 31
-73 8 -13 17 -82 23 -200 23 -412 88 -796 200 -1184 90 -312 135 -642 210
-1540 55 -667 160 -2299 160 -2510 0 -119 -15 -110 190 -110 l177 0 7 88 c3
48 78 962 167 2032 l160 1945 32 27 c98 82 291 172 437 203 103 22 286 19 387
-5 329 -79 618 -326 894 -765 128 -203 345 -649 683 -1403 231 -513 322 -708
413 -882 297 -568 553 -831 909 -933 l79 -22 1985 -3 c1958 -2 1986 -2 2064
18 205 52 424 216 581 436 l48 66 -6 142 c-8 192 -46 342 -129 511 -205 412
-620 717 -1213 890 -193 57 -355 109 -457 147 l-107 40 -50 -40 c-63 -50 -140
-87 -228 -109 -55 -14 -111 -18 -288 -18 -225 1 -334 11 -510 46 -473 95 -851
372 -1180 864 -176 263 -339 573 -545 1040 -694 1567 -1695 2887 -2851 3756
-633 477 -1314 781 -1552 694z m267 -261 c316 -81 752 -322 1203 -666 633
-483 1261 -1162 1778 -1921 55 -81 161 -236 236 -345 75 -108 181 -273 234
-367 140 -244 342 -648 479 -955 444 -994 783 -1480 1245 -1781 327 -214 648
-305 1113 -316 274 -7 345 2 527 64 116 39 143 45 190 40 66 -6 546 -150 675
-202 276 -111 481 -245 646 -422 132 -141 208 -280 274 -498 20 -65 56 -163
81 -216 25 -54 45 -103 45 -109 0 -7 -667 -9 -2173 -8 l-2172 3 -70 34 c-138
68 -290 254 -454 555 -90 166 -189 379 -431 931 -389 887 -562 1227 -823 1620
-333 500 -716 849 -1207 1097 -519 263 -1183 411 -1945 433 -105 3 -219 8
-253 11 -72 7 -70 -1 -26 104 15 36 32 88 37 115 5 28 13 284 17 570 7 564 7
567 75 945 78 433 184 797 297 1024 72 145 115 204 182 250 47 31 123 35 220
10z m-374 -3269 c679 -37 1262 -179 1735 -424 667 -344 1087 -837 1565 -1839
70 -147 167 -357 215 -467 380 -867 479 -1079 600 -1291 146 -253 271 -410
415 -520 128 -98 131 -115 18 -103 -74 7 -197 56 -275 108 -70 48 -181 157
-247 246 -143 190 -339 569 -641 1240 -444 990 -599 1300 -779 1565 -305 449
-632 717 -992 810 -114 30 -303 37 -423 16 -261 -46 -471 -161 -618 -338 -73
-89 -112 -162 -124 -237 -5 -31 -47 -519 -94 -1086 -92 -1118 -100 -1193 -122
-1274 l-15 -54 -15 34 c-21 47 -37 200 -93 904 -79 979 -123 1303 -240 1740
-115 432 -172 813 -144 955 l7 32 81 -6 c45 -3 128 -8 186 -11z"/>
</g>
</svg>
