<?xml version="1.0" standalone="no"?>
<!DOCTYPE svg PUBLIC "-//W3C//DTD SVG 20010904//EN"
 "http://www.w3.org/TR/2001/REC-SVG-20010904/DTD/svg10.dtd">
<svg version="1.0" xmlns="http://www.w3.org/2000/svg"
 width="2048.000000pt" height="2048.000000pt" viewBox="0 0 2048.000000 2048.000000"
 preserveAspectRatio="xMidYMid meet">
<metadata>
Created by potrace 1.13, written by Peter Selinger 2001-2015
</metadata>
<g transform="translate(0.000000,2048.000000) scale(0.192120,-0.192120)"
fill="#000000" stroke="none">
<path d="M4020 10044 c-963 -119 -1776 -724 -2264 -1684 -325 -639 -484 -1336
-462 -2031 l6 -206 -42 -12 c-131 -39 -261 -178 -329 -354 -58 -152 -73 -241
-73 -447 0 -211 18 -330 81 -525 130 -404 395 -718 675 -799 30 -9 90 -18 133
-19 l78 -2 13 -60 c6 -33 15 -71 18 -85 5 -20 -5 -39 -55 -100 -350 -426 -625
-1060 -734 -1695 -41 -242 -50 -342 -50 -585 0 -251 14 -362 57 -461 41 -96
88 -111 219 -68 127 42 413 191 526 275 41 31 43 30 43 -7 0 -83 52 -239 91
-275 98 -88 645 201 1172 619 l88 70 27 -21 c75 -60 272 -188 382 -250 377
-210 779 -342 1241 -407 157 -22 598 -31 781 -16 578 49 1123 234 1588 538 63
42 132 89 152 105 l37 29 123 -94 c424 -323 889 -575 1099 -594 54 -5 56 -5
85 31 31 37 58 108 69 181 14 94 4 91 108 28 201 -123 455 -230 569 -240 52
-5 59 -3 82 22 125 134 136 676 26 1210 -125 608 -399 1201 -738 1598 l-49 58
20 87 c11 48 21 92 23 99 2 7 30 11 78 11 440 2 864 612 893 1282 13 307 -68
578 -220 737 -65 68 -118 104 -185 124 l-43 12 7 196 c19 573 -82 1138 -305
1696 -384 958 -1058 1638 -1901 1915 -312 103 -674 145 -889 105 -269 -51
-576 -218 -864 -469 l-77 -68 -68 61 c-249 220 -544 391 -790 458 -82 22 -121
26 -257 28 -88 2 -176 1 -195 -1z m350 -310 c197 -37 373 -124 648 -321 259
-185 314 -197 467 -105 33 20 102 67 152 104 401 295 662 374 1063 322 253
-33 482 -104 745 -234 769 -378 1318 -1132 1560 -2145 82 -343 92 -460 100
-1115 l6 -535 -25 -122 c-28 -138 -47 -190 -72 -200 -24 -9 -33 6 -120 210
-206 485 -394 781 -673 1057 -221 219 -458 371 -716 460 -183 64 -313 85 -597
100 -410 21 -666 92 -906 254 -169 114 -263 216 -383 418 -130 221 -203 306
-277 325 -68 17 -161 -72 -309 -296 -224 -338 -440 -508 -784 -615 -159 -50
-315 -74 -562 -87 -255 -12 -400 -36 -560 -89 -366 -123 -687 -366 -966 -733
-157 -206 -317 -514 -437 -842 -20 -55 -45 -113 -56 -128 -19 -26 -21 -27 -38
-12 -19 17 -51 108 -77 220 -19 87 -31 525 -14 559 6 13 12 150 14 361 4 288
8 362 26 480 90 571 293 1108 582 1541 345 515 847 904 1395 1077 301 95 611
130 814 91z m970 -1643 c0 -29 58 -187 97 -266 160 -319 424 -560 761 -695
198 -80 460 -130 677 -130 383 0 674 -86 981 -291 135 -90 367 -317 477 -466
337 -456 556 -1041 599 -1597 13 -171 8 -172 86 24 150 378 261 810 312 1211
30 235 26 225 62 154 54 -105 124 -277 154 -375 29 -94 29 -97 29 -360 0 -257
-1 -268 -27 -365 -87 -319 -264 -589 -453 -687 -38 -20 -106 -46 -150 -58 -96
-26 -165 -70 -242 -154 -67 -74 -92 -125 -93 -190 0 -44 4 -53 38 -85 21 -20
57 -43 80 -50 23 -8 42 -19 42 -26 0 -27 -72 -270 -115 -389 -209 -578 -512
-1057 -916 -1451 -74 -72 -168 -156 -209 -188 l-75 -56 -30 33 c-68 77 -98 74
-328 -39 -520 -254 -884 -371 -1342 -432 -164 -21 -647 -25 -805 -5 -291 36
-573 101 -820 189 -123 43 -425 177 -598 265 -232 117 -253 121 -313 58 -21
-22 -42 -40 -47 -40 -16 0 -154 119 -270 234 -201 197 -387 432 -540 683 -191
311 -371 731 -452 1053 -11 47 -23 92 -26 101 -3 11 11 22 50 38 70 29 97 59
103 114 6 53 -24 118 -86 189 -67 75 -131 116 -240 152 -122 41 -178 73 -255
145 -169 162 -308 432 -352 685 -12 71 -15 144 -11 340 4 235 6 256 29 326 38
112 83 220 132 318 52 102 46 112 76 -128 39 -307 108 -615 211 -928 49 -150
137 -381 164 -432 l14 -25 1 35 c1 92 22 292 40 402 115 677 451 1328 862
1674 326 273 659 393 1096 394 280 0 569 65 806 179 357 172 670 518 778 858
22 71 38 93 38 54z m-3500 -4911 c11 -21 33 -71 49 -112 125 -309 289 -610
482 -883 104 -147 183 -244 323 -398 131 -144 132 -147 68 -206 -85 -78 -415
-282 -544 -337 -98 -41 -115 -36 -228 68 -153 142 -175 142 -458 4 -110 -54
-208 -96 -218 -94 -18 3 -19 21 -19 358 0 389 1 401 75 704 89 365 303 861
401 930 29 20 46 11 69 -34z m7064 -3 c36 -38 133 -222 201 -382 96 -224 187
-532 236 -794 16 -90 19 -152 19 -435 0 -182 -4 -337 -9 -345 -12 -18 -49 -6
-231 79 -175 82 -200 90 -260 90 -50 0 -105 -29 -177 -93 -70 -63 -113 -87
-157 -87 -71 0 -327 128 -548 274 -177 116 -184 136 -82 236 173 171 385 445
549 710 76 124 219 405 279 550 70 167 105 230 129 230 11 0 34 -15 51 -33z
M3607 5879 c-89 -21 -160 -79 -196 -159 -19 -42 -21 -65 -21 -390 0 -342 0
-345 24 -395 88 -186 344 -214 467 -51 20 26 41 65 48 86 7 24 11 149 11 360
0 211 -4 336 -11 360 -39 128 -194 220 -322 189z m98 -554 l0 -300 -38 -3
c-68 -6 -67 -11 -67 302 0 212 3 285 12 294 7 7 30 12 53 10 l40 -3 0 -300z
M6941 5879 c-92 -18 -176 -91 -206 -178 -22 -66 -22 -676 1 -743 77 -228 406
-243 510 -23 24 50 24 53 24 395 0 342 0 345 -24 395 -54 114 -182 179 -305
154z m97 -552 l2 -298 -22 -8 c-13 -5 -35 -4 -50 1 l-28 10 0 293 c0 225 3
295 13 299 6 3 28 4 47 3 l35 -2 3 -298z M5000 4491 c-91 -21 -165 -81 -200
-163 -60 -140 1 -298 139 -362 43 -20 65 -21 361 -24 209 -2 332 0 367 8 218
48 290 323 124 473 -78 71 -80 71 -436 73 -176 1 -336 -1 -355 -5z m653 -204
c34 -15 37 -19 37 -57 0 -103 -22 -110 -366 -110 -283 0 -305 3 -351 44 -16
14 -23 31 -23 58 0 76 56 88 415 84 204 -2 257 -6 288 -19z M4185 3380 c-145
-17 -240 -126 -239 -275 0 -56 5 -80 26 -120 49 -94 101 -126 291 -181 698
-201 1442 -202 2122 -4 205 60 256 92 306 190 31 61 32 166 3 231 -44 95 -141
160 -243 161 -37 0 -95 -12 -171 -35 -600 -183 -1260 -187 -1864 -10 -163 48
-174 49 -231 43z m265 -229 c172 -47 337 -80 484 -96 433 -49 818 -21 1249 89
197 51 294 59 336 30 21 -15 23 -23 19 -72 -7 -76 -36 -101 -175 -145 -94 -31
-286 -77 -378 -91 -302 -48 -475 -60 -750 -53 -289 8 -513 36 -774 98 -271 64
-347 103 -358 186 -5 36 -2 45 21 68 26 26 30 27 119 22 59 -3 133 -16 207
-36z"/>
</g>
</svg>
