<?xml version="1.0" standalone="no"?>
<!DOCTYPE svg PUBLIC "-//W3C//DTD SVG 20010904//EN"
 "http://www.w3.org/TR/2001/REC-SVG-20010904/DTD/svg10.dtd">
<svg version="1.0" xmlns="http://www.w3.org/2000/svg"
 width="2048.000000pt" height="2048.000000pt" viewBox="0 0 2048.000000 2048.000000"
 preserveAspectRatio="xMidYMid meet">
<metadata>
Created by potrace 1.13, written by Peter Selinger 2001-2015
</metadata>
<g transform="translate(0.000000,2048.000000) scale(0.192120,-0.192120)"
fill="#000000" stroke="none">
<path d="M5886 10319 c-635 -52 -1172 -283 -1580 -679 -349 -339 -579 -767
-662 -1235 -57 -322 -23 -834 75 -1119 47 -134 132 -258 187 -272 62 -16 84
19 124 196 102 444 352 893 645 1156 120 108 105 104 183 41 338 -272 614
-428 762 -430 119 -1 167 63 157 211 l-5 84 107 -104 c300 -293 533 -453 597
-410 17 11 34 48 34 75 0 48 -42 184 -91 297 -28 63 -53 121 -56 129 -3 7 23
-10 58 -38 218 -176 679 -295 1284 -331 94 -5 182 -10 197 -10 25 0 39 -25
243 -425 173 -339 225 -432 256 -460 95 -86 175 -4 239 246 58 224 89 821 56
1047 -68 457 -300 898 -669 1270 -558 564 -1305 830 -2141 761z m459 -289
c396 -29 755 -139 1074 -329 223 -132 462 -338 618 -531 143 -177 274 -416
344 -625 l34 -100 3 -457 c2 -373 0 -462 -11 -484 l-14 -26 -26 24 c-15 12
-68 102 -118 198 -50 96 -102 190 -116 208 -68 90 -170 171 -244 192 -18 6
-121 17 -228 25 -448 36 -691 85 -1000 203 -167 63 -221 72 -275 47 -35 -17
-136 -109 -136 -124 0 -19 -48 -59 -61 -51 -7 5 -16 7 -21 4 -4 -2 -55 32
-114 77 -105 80 -191 129 -227 129 -34 0 -83 -28 -160 -93 -49 -40 -91 -67
-110 -70 -66 -10 -208 65 -450 238 -242 172 -311 192 -435 126 -202 -109 -451
-410 -631 -766 -45 -88 -90 -168 -100 -178 -17 -17 -19 -17 -35 -2 -14 15 -16
56 -16 383 0 333 2 375 20 452 164 692 727 1238 1482 1440 307 81 636 113 953
90z M3611 7313 c-127 -149 -200 -437 -173 -685 35 -315 164 -531 363 -607 23
-8 27 -17 34 -68 11 -90 53 -285 90 -414 138 -480 400 -930 722 -1241 l80 -78
-1901 -3 c-1726 -3 -1907 -5 -1966 -20 -175 -44 -280 -97 -371 -187 -114 -112
-154 -219 -152 -405 0 -93 6 -141 26 -215 13 -52 223 -642 465 -1310 242 -668
445 -1233 452 -1255 7 -22 24 -62 38 -90 110 -221 295 -356 542 -395 43 -6
1006 -10 2881 -10 l2817 0 -38 98 c-21 53 -277 770 -569 1592 -594 1671 -558
1573 -619 1695 -132 266 -300 428 -498 479 -52 14 -141 16 -570 17 -280 1
-500 4 -489 6 28 7 35 21 35 72 0 63 -26 108 -178 309 -157 208 -193 262 -291
440 -133 241 -225 500 -301 851 -28 128 -67 197 -177 312 -51 53 -101 107
-112 120 -28 36 -68 119 -80 164 -5 22 -14 59 -20 81 -15 55 -14 596 0 703 6
45 9 84 6 87 -2 3 -23 -17 -46 -43z m1959 -3193 c0 -5 -18 -10 -40 -10 -22 0
-40 5 -40 10 0 6 18 10 40 10 22 0 40 -4 40 -10z m-4720 -207 c0 -10 -7 -31
-16 -48 -33 -63 -44 -112 -44 -200 0 -84 2 -94 41 -171 48 -99 138 -191 226
-232 l58 -27 2270 0 2270 0 67 33 c82 40 163 125 210 219 30 62 33 76 36 180
4 115 -1 136 -49 225 -12 24 -12 25 8 25 25 0 122 -103 178 -188 93 -141 59
-51 685 -1809 438 -1228 430 -1204 430 -1293 l0 -67 -2672 3 c-2549 2 -2676 3
-2733 21 -148 44 -254 130 -317 257 -34 66 -858 2323 -908 2486 -17 55 -20 93
-20 254 l0 188 31 35 c36 42 81 71 158 102 68 28 91 30 91 7z m4846 -62 c84
-38 139 -149 116 -235 -23 -81 -81 -137 -162 -155 -66 -15 -4461 -15 -4531 0
-111 24 -185 140 -159 248 14 60 61 118 114 142 40 18 124 19 2311 19 2187 0
2271 -1 2311 -19z M3410 3007 c-100 -34 -157 -72 -250 -166 -99 -100 -165
-215 -199 -345 -30 -115 -31 -461 -1 -583 48 -199 161 -430 288 -586 321 -395
746 -447 1001 -122 59 75 102 149 137 236 50 125 54 150 54 395 0 209 -2 238
-23 320 -95 363 -321 670 -592 803 -55 27 -124 54 -153 60 -87 18 -189 13
-262 -12z m303 -207 c221 -83 421 -325 515 -620 43 -137 57 -228 55 -370 -2
-205 -53 -355 -160 -470 -320 -346 -887 46 -999 690 -22 128 -15 324 16 430
53 183 156 304 299 352 73 24 193 19 274 -12z M8695 7300 c3 -19 10 -66 16
-104 13 -90 2 -461 -17 -579 -26 -154 -74 -246 -199 -377 -121 -127 -161 -199
-201 -364 -19 -78 -43 -166 -54 -196 -82 -240 -214 -578 -271 -693 -80 -162
-202 -323 -358 -472 -259 -249 -307 -299 -344 -366 -38 -68 -44 -100 -28 -157
9 -30 7 -33 -32 -61 -85 -58 -278 -146 -407 -187 -75 -23 -76 -22 -83 54 -10
117 -73 227 -210 365 -125 126 -279 187 -467 187 -116 0 -188 -20 -236 -66
-61 -57 -53 -61 119 -66 132 -4 162 -8 225 -30 223 -80 398 -286 530 -623 17
-44 117 -321 221 -615 104 -294 306 -863 449 -1265 143 -401 264 -746 271
-765 l11 -35 827 0 c822 0 828 0 873 -21 145 -68 206 -236 137 -377 -33 -67
-93 -118 -161 -137 -44 -12 -46 -11 -83 17 -78 62 -30 58 -768 61 -374 2 -693
1 -710 -3 -16 -3 -61 -25 -100 -50 l-70 -44 1238 -1 1238 0 -4 807 c-3 794 -4
810 -26 908 -51 227 -132 421 -250 597 -244 363 -602 608 -1022 702 -174 39
-370 49 -907 45 l-472 -4 0 256 c0 141 3 289 7 330 l6 74 76 55 c112 81 353
326 457 465 301 402 494 863 575 1378 6 42 17 77 23 77 30 0 118 53 163 98 96
96 166 242 199 418 23 123 15 365 -16 479 -27 102 -88 229 -134 280 l-36 40 5
-35z m-1473 -3587 c-27 -105 -42 -270 -23 -258 6 3 11 0 11 -8 0 -21 47 -49
105 -62 44 -10 50 -15 53 -39 11 -93 -171 -264 -375 -350 -32 -13 -59 -23 -60
-23 -1 1 5 36 13 77 37 195 0 338 -120 469 -24 26 -28 35 -16 39 62 22 280
142 345 191 44 32 83 60 86 60 3 1 -5 -43 -19 -96z m1459 -631 c535 -115 936
-468 1073 -946 l26 -88 0 -708 c0 -557 -3 -709 -12 -713 -28 -10 -54 12 -67
54 -43 144 -185 325 -301 384 -112 57 -106 57 -875 62 -581 4 -714 7 -732 19
-12 7 -35 42 -52 76 -17 35 -148 394 -292 798 -198 557 -262 750 -266 795 l-5
60 54 37 c29 20 84 64 123 99 124 110 51 100 680 96 510 -4 557 -5 646 -25z
M4935 7246 c-62 -29 -107 -76 -137 -141 -22 -47 -23 -62 -23 -250 0 -183 2
-204 21 -246 61 -130 201 -195 339 -155 45 14 69 29 111 70 78 78 86 116 82
359 -3 217 -10 240 -89 317 -74 72 -207 92 -304 46z M7165 7251 c-56 -25 -101
-66 -133 -120 -27 -46 -27 -48 -30 -258 -3 -199 -2 -214 18 -262 42 -97 153
-171 255 -171 93 0 202 68 248 154 20 38 22 57 25 244 4 230 -4 270 -63 340
-53 61 -123 92 -209 92 -47 0 -85 -7 -111 -19z M5865 6073 c-82 -43 -119 -108
-113 -199 5 -78 41 -136 108 -171 44 -24 47 -24 316 -21 l271 3 41 29 c59 40
96 119 90 186 -7 69 -51 137 -107 167 -43 22 -51 23 -310 23 -223 -1 -271 -3
-296 -17z M5198 5090 c-98 -29 -154 -148 -115 -243 52 -123 318 -230 672 -272
566 -66 1188 14 1409 182 88 67 116 151 78 235 -29 67 -80 101 -156 106 -53 3
-66 0 -99 -22 -118 -81 -268 -123 -520 -147 -193 -18 -619 -7 -769 20 -138 24
-265 64 -317 99 -72 50 -121 61 -183 42z"/>
</g>
</svg>
