<?xml version="1.0" standalone="no"?>
<!DOCTYPE svg PUBLIC "-//W3C//DTD SVG 20010904//EN"
 "http://www.w3.org/TR/2001/REC-SVG-20010904/DTD/svg10.dtd">
<svg version="1.0" xmlns="http://www.w3.org/2000/svg"
 width="2048.000000pt" height="2048.000000pt" viewBox="0 0 2048.000000 2048.000000"
 preserveAspectRatio="xMidYMid meet">
<metadata>
Created by potrace 1.13, written by Peter Selinger 2001-2015
</metadata>
<g transform="translate(0.000000,2048.000000) scale(0.192120,-0.192120)"
fill="#000000" stroke="none">
<path d="M4602 10035 c-80 -19 -180 -59 -255 -103 -68 -39 -191 -153 -243
-223 l-34 -47 -43 23 c-23 13 -78 36 -122 52 -75 26 -90 28 -245 27 -154 0
-171 -2 -245 -28 -162 -56 -297 -149 -397 -274 -59 -74 -131 -209 -143 -269
-4 -18 -8 -33 -11 -33 -2 0 -43 11 -90 25 -440 127 -896 -132 -1026 -582 -39
-133 -30 -363 17 -485 5 -13 -1 -18 -32 -23 -138 -23 -254 -86 -363 -195 -121
-121 -178 -236 -200 -404 -20 -147 20 -324 98 -440 18 -26 32 -51 32 -55 0 -5
-35 -11 -77 -14 -166 -11 -349 -109 -458 -245 -60 -74 -122 -202 -140 -288
-42 -200 10 -432 130 -572 l34 -39 -87 -43 c-126 -63 -232 -170 -295 -300 -84
-171 -98 -342 -43 -515 35 -110 88 -196 173 -281 l72 -72 -49 -41 c-61 -51
-131 -147 -169 -233 -153 -336 1 -746 337 -900 l63 -29 -35 -40 c-125 -147
-177 -384 -126 -585 32 -129 82 -217 180 -315 96 -98 175 -146 293 -180 l78
-23 -8 -46 c-12 -71 -7 -199 11 -270 30 -122 90 -225 185 -321 72 -73 101 -94
181 -132 101 -49 211 -77 304 -77 136 0 301 56 413 141 l53 39 28 -62 c62
-136 180 -255 316 -322 103 -50 185 -69 301 -69 155 0 259 32 388 120 43 30
80 53 81 51 54 -122 86 -170 165 -248 99 -98 186 -149 307 -180 186 -48 412
-10 557 92 l28 20 107 -31 c242 -70 388 -91 660 -98 309 -8 508 16 784 93
l127 36 28 -20 c145 -102 372 -140 557 -92 121 31 208 82 307 180 79 78 111
126 165 248 1 2 38 -21 81 -51 93 -63 167 -93 278 -114 289 -52 603 114 727
385 l28 62 53 -39 c110 -83 278 -141 412 -141 94 0 204 27 305 77 177 86 318
259 366 453 18 71 23 199 11 270 l-8 46 78 23 c118 34 197 82 293 180 97 98
146 184 180 316 51 198 -1 437 -126 583 l-34 40 63 30 c143 67 257 181 326
325 112 232 88 489 -64 703 -25 35 -68 82 -95 105 l-49 41 72 72 c216 215 265
516 130 795 -62 130 -169 238 -295 301 l-87 43 35 41 c51 59 110 183 130 272
32 146 8 327 -61 464 -102 202 -322 352 -537 367 -43 3 -78 9 -78 14 0 4 14
29 32 55 78 116 118 293 98 440 -22 168 -79 283 -200 404 -109 109 -225 172
-363 195 -31 5 -37 10 -32 23 47 122 55 350 17 485 -128 449 -586 709 -1026
582 -47 -14 -88 -25 -90 -25 -3 0 -7 15 -11 33 -12 60 -84 195 -143 269 -100
125 -235 218 -397 274 -74 26 -91 28 -245 28 -155 1 -170 -1 -245 -27 -44 -16
-99 -39 -122 -52 l-43 -23 -30 41 c-131 179 -318 296 -538 338 -79 15 -265 6
-347 -16 -83 -23 -208 -85 -282 -140 l-63 -47 -62 48 c-72 54 -195 115 -283
139 -83 23 -301 29 -383 10z m352 -261 c32 -8 111 -39 175 -69 199 -92 205
-92 401 0 179 85 305 108 455 85 152 -23 239 -67 395 -199 97 -83 186 -131
241 -131 21 0 84 12 141 26 136 33 279 41 378 20 173 -36 326 -148 420 -306
59 -98 147 -191 214 -226 l54 -28 139 11 c213 18 321 0 468 -76 88 -45 192
-146 227 -221 25 -53 26 -65 31 -268 4 -177 8 -216 21 -231 9 -10 16 -29 16
-43 0 -79 138 -229 273 -298 104 -53 193 -129 225 -192 20 -42 22 -59 22 -225
0 -130 -4 -192 -14 -221 -21 -59 -29 -144 -18 -186 16 -55 77 -142 132 -185
26 -21 94 -57 151 -81 152 -64 216 -109 269 -188 l30 -45 0 -193 0 -192 -35
-91 c-73 -189 -38 -278 199 -501 37 -36 79 -84 93 -107 24 -41 24 -45 21 -230
l-3 -189 -44 -74 c-148 -250 -156 -282 -96 -402 20 -39 48 -89 64 -112 16 -22
40 -65 55 -94 27 -53 27 -55 24 -242 l-3 -188 -34 -48 c-19 -27 -85 -102 -147
-166 -79 -81 -123 -136 -145 -180 -31 -61 -32 -65 -20 -120 6 -32 25 -89 41
-127 30 -69 30 -71 30 -262 l0 -192 -30 -51 c-41 -72 -96 -124 -193 -181 -108
-64 -218 -171 -257 -248 -24 -47 -30 -73 -30 -122 0 -34 -7 -84 -15 -111 -9
-27 -23 -73 -31 -102 -25 -94 -112 -195 -207 -241 -155 -75 -312 -70 -528 18
-166 67 -210 53 -391 -131 -133 -135 -200 -180 -298 -202 -128 -29 -247 -17
-371 38 -67 30 -96 59 -83 85 5 11 56 68 112 127 625 648 1057 1530 1237 2519
56 310 58 342 62 830 l3 460 -27 55 c-17 33 -46 67 -73 88 -39 30 -50 34 -90
30 -25 -3 -90 -25 -145 -50 -156 -71 -220 -88 -342 -88 -86 0 -118 5 -181 26
-195 65 -283 151 -460 449 -19 31 -56 74 -84 95 -83 66 -135 55 -298 -65 -227
-168 -393 -228 -635 -228 -183 -1 -303 26 -450 100 -208 105 -330 237 -465
507 -56 111 -73 136 -118 173 -44 36 -60 43 -95 43 -48 0 -99 -22 -183 -75
-228 -146 -433 -203 -693 -192 -165 6 -293 37 -428 102 -222 108 -361 259
-444 483 -63 170 -104 233 -175 267 -155 73 -542 -159 -850 -511 -218 -249
-418 -655 -518 -1053 -80 -319 -80 -315 -84 -914 -3 -600 -3 -605 73 -908 163
-647 469 -1287 854 -1789 77 -101 254 -300 341 -385 79 -77 94 -104 74 -133
-34 -49 -200 -102 -319 -102 -167 0 -263 49 -435 222 -140 142 -193 175 -261
164 -21 -3 -93 -27 -161 -53 -108 -41 -135 -47 -219 -51 -155 -7 -273 30 -371
117 -56 50 -117 146 -125 198 -3 21 -10 47 -16 58 -5 10 -13 62 -17 115 -4 71
-12 108 -31 145 -36 75 -149 184 -244 235 -92 50 -189 142 -223 211 -20 42
-22 60 -22 213 l0 168 45 115 c25 63 45 131 45 150 0 64 -54 145 -189 281 -86
87 -135 144 -154 182 -26 53 -27 61 -27 213 0 176 4 190 91 318 63 94 99 177
99 231 0 53 -36 135 -105 244 -81 125 -85 141 -85 320 l0 160 31 50 c18 27 85
101 149 164 90 87 126 130 149 178 51 102 51 129 -3 265 l-46 116 0 174 c0
173 0 173 28 218 56 87 149 156 275 204 126 47 159 69 229 157 76 93 85 166
39 307 -18 54 -21 88 -21 220 0 134 3 162 20 200 32 69 127 152 243 212 75 38
117 68 157 109 58 61 110 150 110 188 0 13 7 30 15 38 12 13 15 52 15 221 l0
206 31 62 c38 78 134 177 220 228 133 78 261 100 488 84 l144 -11 54 29 c65
34 134 108 202 220 73 119 149 192 263 249 121 61 211 80 343 73 56 -3 146
-17 203 -31 57 -14 120 -26 141 -26 54 0 143 49 231 126 134 119 228 170 370
200 79 16 230 11 314 -12z m-1555 -2745 c1 -53 35 -177 70 -252 44 -99 113
-197 200 -283 427 -427 1185 -439 1623 -25 38 36 59 49 62 40 2 -8 13 -52 25
-98 57 -225 236 -473 440 -610 93 -63 236 -128 348 -158 88 -24 115 -27 273
-27 158 0 185 3 275 27 197 53 396 173 529 319 36 40 67 70 69 67 1 -2 13 -38
26 -79 130 -419 522 -682 901 -606 140 29 239 77 354 172 35 29 53 39 58 31
11 -18 10 -614 -2 -763 -56 -719 -220 -1330 -516 -1923 -311 -624 -735 -1129
-1239 -1473 -199 -137 -409 -248 -588 -313 l-78 -28 -43 46 c-42 46 -44 47
-105 47 -33 0 -101 -9 -149 -19 -222 -49 -295 -56 -597 -56 -304 0 -371 6
-583 51 -63 13 -140 24 -172 24 -55 0 -59 -2 -103 -46 l-44 -46 -39 12 c-79
26 -265 110 -366 165 -718 395 -1315 1111 -1667 1999 -151 379 -258 788 -283
1076 -19 223 -16 639 6 820 49 408 130 696 281 1006 216 443 522 751 923 929
107 47 110 47 111 -26z M3857 5316 c-98 -35 -166 -111 -187 -210 -8 -33 -10
-157 -8 -361 l3 -310 28 -57 c91 -184 327 -213 461 -56 61 71 66 103 66 453 0
371 -3 390 -83 470 -79 78 -184 105 -280 71z M6620 5313 c-26 -9 -66 -38 -96
-68 -81 -80 -84 -99 -84 -470 0 -356 4 -383 71 -459 53 -60 107 -87 185 -94
118 -9 218 48 271 156 l28 57 3 318 c3 356 -1 390 -61 469 -68 90 -210 130
-317 91z M4956 3924 c-61 -22 -122 -78 -152 -141 -68 -137 -9 -303 131 -369
50 -24 53 -24 395 -24 342 0 345 0 395 24 179 85 213 332 63 460 -73 63 -93
66 -462 65 -260 0 -339 -3 -370 -15z m632 -261 c5 -31 -37 -37 -263 -38 -216
0 -265 7 -265 35 0 10 6 21 13 23 6 3 125 5 262 4 249 -2 250 -2 253 -24z
M4396 2810 c-57 -22 -119 -78 -149 -135 -32 -60 -31 -183 3 -249 58 -114 288
-261 538 -345 183 -61 292 -76 542 -76 249 0 356 15 541 75 249 82 488 238
544 355 61 129 4 295 -125 360 -110 56 -209 41 -330 -50 -175 -133 -365 -189
-635 -189 -281 1 -440 53 -668 219 -81 58 -170 70 -261 35z m216 -301 c34 -17
79 -42 100 -55 43 -27 131 -72 196 -100 52 -22 56 -43 7 -41 -19 1 -35 6 -35
10 0 5 -4 6 -9 2 -6 -3 -57 12 -115 33 -164 61 -258 125 -242 167 8 22 29 19
98 -16z m1538 6 c0 -38 -219 -164 -310 -178 -10 -2 -22 -6 -26 -9 -3 -4 -12
-4 -20 -1 -8 3 -14 1 -14 -3 0 -5 -16 -10 -35 -11 -38 -2 -51 23 -17 33 9 4
36 15 59 25 24 10 44 19 47 19 2 0 54 29 116 65 135 79 200 98 200 60z m-1166
-206 c-10 -16 -24 -9 -24 12 0 18 2 19 15 9 8 -7 12 -16 9 -21z m712 -7 c-4
-3 -12 0 -19 7 -9 9 -9 14 3 21 11 7 16 5 18 -6 2 -9 1 -18 -2 -22z m-39 -9
c-3 -3 -11 -2 -17 2 -8 5 -7 11 2 22 12 15 13 14 16 -1 2 -10 1 -20 -1 -23z
m-632 18 c3 -5 1 -12 -5 -16 -5 -3 -10 1 -10 9 0 18 6 21 15 7z m50 -10 c3 -5
1 -12 -5 -16 -5 -3 -10 1 -10 9 0 18 6 21 15 7z m525 -7 c0 -8 -5 -12 -10 -9
-6 4 -8 11 -5 16 9 14 15 11 15 -7z"/>
</g>
</svg>
