<?xml version="1.0" standalone="no"?>
<!DOCTYPE svg PUBLIC "-//W3C//DTD SVG 20010904//EN"
 "http://www.w3.org/TR/2001/REC-SVG-20010904/DTD/svg10.dtd">
<svg version="1.0" xmlns="http://www.w3.org/2000/svg"
 width="2048.000000pt" height="2048.000000pt" viewBox="0 0 2048.000000 2048.000000"
 preserveAspectRatio="xMidYMid meet">
<metadata>
Created by potrace 1.13, written by Peter Selinger 2001-2015
</metadata>
<g transform="translate(0.000000,2048.000000) scale(0.192120,-0.192120)"
fill="#000000" stroke="none">
<path d="M5085 10043 c-500 -34 -1109 -213 -1630 -478 -630 -321 -1196 -795
-1602 -1345 -526 -713 -839 -1557 -938 -2530 -45 -455 -48 -1740 -5 -2630 55
-1122 203 -1871 438 -2216 56 -83 151 -170 219 -201 182 -83 544 -17 1211 223
446 160 790 279 925 320 151 46 146 52 -53 60 -111 5 -136 3 -225 -19 -139
-35 -228 -63 -465 -147 -485 -170 -552 -193 -688 -230 -224 -62 -349 -83 -492
-84 -117 -1 -128 1 -182 27 -260 127 -442 708 -532 1697 -35 381 -37 505 -34
1890 4 1533 -2 1388 74 1805 111 602 349 1211 662 1690 552 846 1354 1478
2297 1808 656 230 1250 286 1870 176 894 -160 1800 -654 2427 -1324 364 -388
580 -707 864 -1275 174 -348 325 -902 394 -1442 21 -166 21 -183 17 -1915 -3
-1523 -6 -1771 -20 -1923 -34 -363 -63 -558 -102 -685 -31 -104 -104 -271
-145 -335 -102 -159 -280 -220 -558 -192 -233 23 -427 75 -867 230 -309 109
-607 207 -655 215 -14 3 -45 11 -70 18 -52 16 -322 18 -358 3 -20 -8 1 -18
135 -59 164 -50 484 -161 898 -310 631 -227 955 -291 1221 -240 273 52 431
259 522 685 95 439 124 1042 138 2835 6 868 -1 1254 -31 1542 -146 1418 -746
2572 -1755 3375 -690 549 -1563 906 -2385 977 -111 10 -403 12 -520 4z M3445
6782 c-426 -425 -519 -513 -715 -672 -419 -342 -564 -516 -653 -782 -60 -178
-80 -344 -67 -532 89 -1222 561 -2314 1317 -3046 475 -461 1008 -736 1618
-837 159 -26 612 -26 770 0 353 59 655 165 955 335 994 562 1722 1730 1929
3092 52 344 64 582 36 729 -136 710 -812 1219 -1790 1346 -66 9 -235 20 -376
25 -426 15 -703 66 -1149 212 -383 124 -881 344 -1248 549 -67 38 -126 69
-130 69 -4 0 -227 -220 -497 -488z m796 122 c491 -243 869 -393 1269 -504 323
-89 541 -125 845 -140 431 -21 595 -41 828 -100 235 -60 514 -179 674 -288
286 -195 530 -506 598 -763 15 -59 17 -100 12 -335 -6 -287 -18 -392 -70 -584
-14 -52 -31 -124 -37 -160 -44 -260 -106 -477 -185 -645 -24 -50 -55 -120 -70
-156 -25 -59 -71 -159 -208 -454 -95 -205 -325 -532 -501 -714 -93 -95 -275
-258 -421 -376 -102 -82 -229 -161 -403 -249 -343 -173 -581 -252 -894 -297
-169 -25 -476 -29 -633 -10 -234 29 -478 93 -690 181 -157 66 -443 213 -540
278 -242 163 -508 413 -689 647 -98 126 -296 413 -296 429 0 3 -29 57 -64 119
-252 444 -422 941 -527 1537 -19 109 -23 171 -26 476 -5 400 -3 414 74 571 83
172 204 310 442 507 311 257 435 370 796 727 209 206 391 383 405 392 48 33
85 23 311 -89z M3857 5316 c-98 -35 -166 -111 -187 -210 -8 -33 -10 -157 -8
-361 3 -302 4 -311 27 -363 43 -96 145 -162 251 -162 75 0 139 27 197 85 80
80 83 99 83 470 0 371 -3 390 -83 470 -79 78 -184 105 -280 71z M6620 5313
c-26 -9 -66 -38 -96 -68 -81 -80 -84 -99 -84 -470 0 -356 4 -383 71 -459 53
-60 107 -87 185 -94 118 -9 218 48 271 156 l28 57 0 340 c0 324 -1 342 -21
385 -30 65 -70 107 -128 137 -65 33 -161 40 -226 16z M4964 3928 c-17 -6 -53
-27 -80 -47 -163 -123 -135 -379 51 -467 50 -24 53 -24 395 -24 342 0 345 0
395 24 207 98 212 393 8 496 l-48 25 -345 2 c-214 1 -357 -3 -376 -9z m669
-216 c35 -15 43 -35 27 -71 -21 -52 -48 -56 -340 -56 -249 0 -267 1 -300 20
-26 16 -36 29 -38 51 -4 40 15 55 86 65 84 11 531 4 565 -9z M4396 2810 c-98
-38 -165 -130 -174 -236 -10 -128 50 -217 221 -329 158 -102 341 -175 550
-217 97 -20 142 -23 337 -23 249 0 356 15 541 75 249 82 488 238 544 355 60
128 3 295 -125 360 -110 56 -209 41 -330 -50 -175 -133 -365 -189 -635 -189
-281 1 -440 53 -668 219 -81 58 -170 70 -261 35z m215 -278 c41 -21 104 -56
142 -76 85 -47 198 -89 307 -112 128 -28 430 -26 556 4 126 30 219 67 357 145
112 62 183 87 207 72 5 -3 10 -19 10 -34 0 -74 -211 -195 -445 -256 -137 -35
-179 -39 -415 -39 -253 0 -296 5 -455 50 -250 72 -463 211 -415 269 21 25 74
17 151 -23z"/>
</g>
</svg>
