<?xml version="1.0" standalone="no"?>
<!DOCTYPE svg PUBLIC "-//W3C//DTD SVG 20010904//EN"
 "http://www.w3.org/TR/2001/REC-SVG-20010904/DTD/svg10.dtd">
<svg version="1.0" xmlns="http://www.w3.org/2000/svg"
 width="2048.000000pt" height="2048.000000pt" viewBox="0 0 2048.000000 2048.000000"
 preserveAspectRatio="xMidYMid meet">
<metadata>
Created by potrace 1.13, written by Peter Selinger 2001-2015
</metadata>
<g transform="translate(0.000000,2048.000000) scale(0.192120,-0.192120)"
fill="#000000" stroke="none">
<path d="M2117 10230 c-95 -24 -174 -89 -212 -174 -13 -28 -80 -208 -151 -400
-70 -191 -133 -350 -138 -352 -6 -1 -177 -64 -380 -139 -375 -138 -424 -161
-472 -227 -45 -59 -57 -98 -58 -183 0 -67 4 -88 26 -130 59 -112 83 -125 513
-284 l380 -139 141 -381 c78 -210 149 -391 157 -404 116 -177 375 -188 502
-21 20 26 75 161 168 411 75 205 137 376 137 381 0 5 163 69 363 142 199 73
379 142 399 152 60 29 105 75 138 140 73 146 13 331 -130 402 -25 13 -202 81
-395 151 -192 71 -355 133 -362 139 -6 6 -71 173 -143 371 -73 198 -143 379
-156 401 -29 51 -85 101 -138 125 -51 22 -139 31 -189 19z m131 -285 c36 -26
66 -89 162 -345 97 -257 122 -312 164 -370 49 -65 136 -147 187 -175 28 -15
175 -74 326 -131 151 -56 286 -110 299 -119 16 -10 24 -25 24 -43 0 -66 -48
-93 -370 -212 -273 -101 -310 -121 -406 -215 -97 -95 -114 -126 -214 -395
-131 -355 -171 -418 -255 -407 -74 10 -101 57 -223 387 -44 118 -92 241 -107
273 -34 72 -144 191 -216 234 -30 18 -166 75 -304 126 -302 113 -348 135 -365
176 -15 36 -9 54 22 75 13 8 156 65 317 125 317 119 370 147 448 237 71 82 97
135 198 409 128 347 152 385 244 385 26 0 56 -7 69 -15z M6150 9316 c-577 -74
-1126 -307 -1587 -674 -134 -107 -353 -325 -458 -457 -409 -511 -636 -1113
-707 -1870 -17 -185 -17 -1432 1 -1770 26 -498 71 -868 141 -1140 74 -290 165
-458 284 -526 30 -16 57 -36 60 -44 4 -11 22 -15 63 -15 118 0 384 -40 593
-89 679 -159 1344 -563 1786 -1085 l59 -69 290 6 c1313 27 2137 317 2297 807
17 54 22 97 26 262 l4 196 47 12 c146 36 248 164 306 381 83 315 106 750 108
2073 2 900 0 978 -39 1241 -90 620 -323 1178 -680 1625 -95 119 -349 371 -473
469 -431 342 -950 571 -1486 656 -138 22 -498 28 -635 11z m598 -301 c793
-115 1536 -574 1961 -1213 249 -372 395 -781 471 -1318 19 -132 20 -198 20
-1269 0 -645 -5 -1203 -10 -1300 -20 -327 -68 -633 -116 -727 -25 -50 -127
-157 -214 -226 -60 -48 -110 -94 -110 -103 0 -3 18 -9 41 -12 53 -7 55 -10 32
-44 -11 -15 -30 -54 -42 -86 -78 -212 -303 -375 -700 -507 -412 -137 -1121
-231 -1631 -218 -185 5 -208 11 -393 97 l-100 48 349 -5 c356 -5 598 5 854 34
820 93 1380 325 1441 599 8 36 9 65 3 86 -9 30 -16 34 -134 74 -69 23 -224 81
-345 128 -121 47 -294 111 -385 141 -91 31 -172 59 -180 62 -25 10 48 64 161
120 167 83 348 256 540 516 125 169 158 223 260 423 127 251 206 463 274 735
68 271 77 342 82 625 4 237 3 266 -15 330 -41 145 -112 292 -196 405 -301 404
-783 627 -1421 655 -483 21 -859 131 -1465 429 -232 114 -283 125 -378 81 -92
-43 -138 -81 -436 -369 -161 -155 -369 -346 -463 -424 -255 -212 -371 -344
-455 -522 -22 -47 -51 -123 -64 -170 -22 -79 -24 -102 -24 -335 0 -291 15
-418 80 -682 161 -651 483 -1216 895 -1572 80 -69 126 -100 226 -149 69 -34
136 -73 148 -86 l22 -23 -128 -43 c-71 -24 -249 -87 -398 -140 -148 -54 -313
-109 -365 -124 -52 -15 -100 -29 -106 -31 -7 -2 -26 17 -44 41 -39 54 -81 77
-184 97 -117 24 -186 74 -243 176 -70 123 -127 356 -167 671 -41 321 -41 325
-41 1475 l0 1120 23 135 c94 548 268 957 572 1350 41 52 135 156 209 230 452
451 1076 750 1721 826 139 16 420 11 568 -11z m-1182 -1657 c264 -153 699
-337 999 -423 230 -65 391 -91 640 -100 276 -11 446 -38 646 -105 359 -119
629 -334 758 -603 80 -166 101 -297 82 -504 -49 -511 -200 -989 -434 -1378
-198 -329 -446 -599 -723 -786 l-74 -50 0 -293 0 -294 -88 -56 c-524 -330
-1155 -364 -1702 -91 -41 20 -114 62 -162 92 l-88 55 0 286 -1 287 -55 34
c-161 97 -401 315 -545 494 -367 455 -585 1012 -655 1670 -35 326 11 537 156
729 57 75 134 146 325 299 133 106 254 220 620 581 116 114 210 208 211 208 1
0 41 -23 90 -52z m2212 -4373 c87 -26 546 -205 560 -219 9 -9 10 -20 2 -42
-29 -82 -319 -208 -650 -282 -157 -35 -187 -40 -293 -48 -67 -4 -78 -3 -84 12
-7 19 5 31 117 113 36 26 88 76 116 110 44 55 61 84 105 173 5 10 9 27 9 38 0
11 5 20 10 20 6 0 10 28 10 63 0 35 3 67 7 70 10 11 35 8 91 -8z m-2628 -90
l0 -84 -41 18 c-22 10 -46 24 -52 30 -6 6 -16 11 -22 11 -7 0 -20 10 -31 21
-19 21 -19 22 5 38 20 14 112 49 134 50 4 1 7 -37 7 -84z m3784 -347 c-45
-153 -167 -298 -347 -416 -345 -224 -973 -364 -1797 -403 -179 -8 -261 -8
-305 0 -57 10 -275 107 -275 121 0 4 161 10 358 13 381 6 591 23 892 72 698
115 1223 336 1439 607 25 32 47 58 48 58 1 0 -5 -24 -13 -52z m-1637 -150 c-3
-8 -6 -5 -6 6 -1 11 2 17 5 13 3 -3 4 -12 1 -19z M5427 6054 c-69 -21 -131
-86 -153 -159 -23 -81 -17 -344 10 -395 47 -89 119 -134 217 -135 56 0 73 4
114 30 27 17 63 50 80 74 l30 43 3 189 3 189 -28 51 c-33 61 -75 95 -139 115
-57 17 -75 17 -137 -2z M7325 6061 c-69 -17 -125 -62 -161 -131 -17 -30 -19
-59 -19 -215 0 -196 4 -214 64 -278 110 -119 309 -89 377 56 22 49 24 63 24
223 0 162 -1 172 -25 221 -49 98 -157 149 -260 124z M6124 4876 c-32 -32 -34
-38 -34 -101 0 -63 2 -69 34 -101 l34 -34 281 0 281 0 32 29 c32 28 33 32 33
106 0 74 -1 78 -33 106 l-32 29 -281 0 -281 0 -34 -34z M5774 4341 c-100 -45
-135 -163 -80 -269 35 -68 231 -186 382 -231 247 -73 546 -63 778 27 169 66
303 170 324 252 34 136 -84 262 -222 236 -19 -4 -59 -25 -88 -47 -111 -84
-232 -126 -393 -135 -170 -11 -334 28 -442 103 -126 87 -178 101 -259 64z
M5576 3281 c8 -14 14 -43 14 -63 0 -33 6 -42 48 -73 114 -84 277 -150 464
-187 152 -30 498 -32 653 -4 182 33 314 82 446 167 76 49 79 52 79 89 0 21 5
51 10 66 6 15 9 28 7 30 -2 2 -41 -12 -88 -32 -260 -111 -446 -153 -716 -161
-319 -10 -534 30 -826 151 -103 42 -104 42 -91 17z M1277 7268 c-46 -10 -81
-32 -108 -69 -11 -16 -58 -168 -108 -351 l-88 -322 -224 -83 c-123 -45 -235
-91 -249 -101 -112 -83 -96 -249 29 -311 20 -10 126 -51 236 -91 110 -40 202
-74 204 -76 1 -1 42 -159 90 -351 48 -191 93 -358 99 -369 17 -32 67 -71 108
-84 73 -25 176 16 210 82 10 18 56 188 104 377 l86 344 219 82 c256 95 256 94
292 142 25 32 28 45 28 108 0 63 -3 76 -28 108 -36 48 -46 52 -294 143 -114
41 -211 79 -216 83 -4 4 -27 83 -52 177 -111 413 -127 466 -158 501 -49 56
-109 76 -180 61z m67 -440 c8 -13 30 -75 49 -138 47 -154 51 -163 103 -241 53
-80 142 -165 207 -197 93 -46 94 -71 9 -123 -76 -46 -199 -165 -239 -231 -19
-31 -49 -112 -74 -198 -39 -138 -64 -200 -81 -200 -20 0 -54 85 -104 255 -10
33 -27 83 -40 110 -37 85 -159 211 -269 279 -64 39 -59 61 24 105 76 40 176
138 220 213 16 29 51 117 77 196 44 133 73 192 94 192 5 0 16 -10 24 -22z
M3505 2823 c-1240 -76 -2320 -766 -2847 -1818 -92 -183 -184 -422 -228 -595
-6 -25 -13 -53 -16 -62 -5 -17 6 -18 128 -18 l133 0 -46 43 c-64 58 -75 97
-53 184 32 127 105 301 200 477 392 721 1063 1276 1860 1541 279 93 393 116
848 169 105 12 121 17 145 40 22 23 24 28 11 36 -15 9 -30 10 -135 3z M9140
2568 c0 -19 43 -91 82 -138 18 -22 78 -73 133 -113 136 -98 307 -269 382 -383
76 -117 147 -277 182 -418 29 -115 64 -202 106 -264 l25 -37 0 96 c0 235 -75
471 -216 685 -74 111 -250 295 -369 384 -146 109 -325 213 -325 188z M3430
2478 c-869 -72 -1688 -521 -2190 -1201 -207 -279 -343 -557 -456 -929 -5 -17
139 -18 2920 -18 1609 0 2926 1 2926 3 0 12 -95 280 -124 350 -385 927 -1260
1600 -2297 1767 -242 38 -531 49 -779 28z m486 -258 c678 -54 1276 -320 1743
-775 252 -246 436 -507 569 -809 48 -109 105 -276 98 -284 -3 -2 -54 23 -113
56 -188 106 -186 105 -378 113 -209 9 -231 15 -229 57 1 17 11 44 23 60 11 16
34 63 51 105 78 195 13 397 -193 593 -305 294 -716 515 -1029 555 -206 26
-389 -68 -478 -246 l-35 -70 0 -150 c0 -147 1 -151 31 -215 40 -83 94 -155
153 -203 25 -21 118 -74 206 -119 172 -87 292 -162 368 -231 39 -37 47 -50 47
-79 0 -24 -6 -39 -17 -44 -10 -5 -760 -11 -1668 -14 -1141 -4 -1659 -9 -1680
-16 -47 -17 -103 -45 -203 -103 -51 -30 -95 -51 -98 -48 -12 12 76 243 147
387 133 266 282 472 497 685 565 563 1381 859 2188 795z m691 -435 c265 -89
512 -231 738 -425 134 -116 191 -179 223 -248 24 -50 27 -69 27 -162 0 -99 -2
-110 -33 -172 -80 -162 -273 -264 -450 -236 -87 14 -136 41 -225 125 -197 187
-366 299 -582 383 -118 46 -177 100 -229 210 -28 59 -31 74 -31 165 0 87 3
107 27 157 27 58 89 133 142 171 53 38 146 66 220 66 53 1 92 -7 173 -34z
M9220 748 l0 -418 421 0 422 0 -6 83 c-4 45 -7 233 -7 417 l0 335 -415 0 -415
0 0 -417z m664 136 c25 -4 46 -11 46 -16 0 -5 -9 -28 -20 -50 -11 -23 -20 -48
-20 -55 0 -7 -4 -13 -10 -13 -6 0 -10 -28 -10 -65 0 -37 -4 -65 -10 -65 -5 0
-10 -16 -10 -35 0 -28 -4 -35 -20 -35 -11 0 -20 -7 -20 -15 0 -12 -14 -15 -65
-15 -37 0 -65 -4 -65 -10 0 -5 -18 -10 -40 -10 -22 0 -40 -4 -40 -9 0 -9 -88
-37 -95 -29 -2 2 -7 99 -11 216 l-7 212 175 0 c96 0 196 -3 222 -6z M6854 411
c-22 -10 -60 -33 -84 -50 l-43 -31 1218 0 c735 0 1215 4 1209 9 -19 19 -132
71 -153 71 -11 0 -21 5 -21 10 0 7 -354 10 -1042 10 -995 0 -1045 -1 -1084
-19z"/>
</g>
</svg>
