<?xml version="1.0" standalone="no"?>
<!DOCTYPE svg PUBLIC "-//W3C//DTD SVG 20010904//EN"
 "http://www.w3.org/TR/2001/REC-SVG-20010904/DTD/svg10.dtd">
<svg version="1.0" xmlns="http://www.w3.org/2000/svg"
 width="2048.000000pt" height="2048.000000pt" viewBox="0 0 2048.000000 2048.000000"
 preserveAspectRatio="xMidYMid meet">
<metadata>
Created by potrace 1.13, written by Peter Selinger 2001-2015
</metadata>
<g transform="translate(0.000000,2048.000000) scale(0.192120,-0.192120)"
fill="#000000" stroke="none">
<path d="M5619 10312 c-236 -96 -632 -542 -934 -1052 -127 -214 -283 -546
-340 -720 -9 -30 -24 -70 -32 -87 l-15 -33 -332 0 c-886 0 -1307 -70 -1407
-234 -26 -42 -25 -134 2 -217 86 -263 331 -540 684 -774 194 -129 438 -258
615 -325 19 -7 39 -16 43 -20 5 -4 17 -59 28 -121 61 -360 197 -599 308 -539
24 12 35 43 65 171 14 58 41 156 61 218 30 94 39 111 53 106 65 -26 368 -95
569 -129 116 -20 449 -62 644 -80 850 -82 1923 -14 2641 165 64 16 119 29 122
29 3 0 58 -104 122 -231 126 -252 168 -309 225 -309 42 0 65 15 94 60 65 103
111 304 140 611 l6 66 57 23 c113 45 319 150 437 221 377 227 645 489 770 754
91 192 89 305 -7 379 -101 77 -303 125 -653 157 -66 6 -321 13 -566 16 l-446
6 -22 71 c-186 586 -699 1377 -1104 1701 -156 125 -251 156 -372 120 -140 -40
-209 -89 -432 -307 -174 -171 -189 -181 -236 -157 -12 6 -96 85 -187 174 -227
224 -338 292 -490 301 -47 3 -77 -1 -111 -14z m203 -266 c60 -26 123 -74 218
-165 90 -87 214 -179 285 -213 144 -68 267 -17 504 208 147 139 215 182 306
191 46 5 60 1 116 -28 143 -76 415 -382 622 -698 144 -218 308 -522 387 -714
44 -107 98 -161 213 -211 84 -38 87 -40 70 -58 -47 -52 -245 -141 -442 -199
-855 -250 -2438 -253 -3298 -5 -214 62 -420 153 -469 208 -16 16 -15 18 12 28
74 28 155 75 187 108 25 25 64 97 122 222 90 194 132 274 225 430 217 364 478
692 664 834 117 90 183 105 278 62z m-1567 -1832 c-14 -77 -29 -191 -32 -254
-5 -105 -4 -120 17 -168 26 -60 115 -148 204 -201 296 -176 921 -290 1707
-310 1393 -36 2355 167 2499 527 23 59 -2 350 -47 530 -5 20 5 16 92 -34 106
-61 190 -94 241 -94 18 0 34 -5 36 -10 2 -7 106 -14 281 -20 380 -13 608 -37
731 -79 43 -14 51 -21 64 -56 13 -37 12 -45 -8 -98 -62 -165 -274 -390 -520
-552 -56 -37 -180 -104 -274 -149 -219 -105 -225 -108 -262 -145 -52 -52 -69
-96 -68 -183 l1 -76 -56 -22 c-142 -56 -439 -147 -446 -138 -1 2 -9 24 -19 50
-44 120 -94 130 -321 69 -44 -12 -136 -33 -205 -47 -69 -13 -177 -38 -240 -55
-110 -29 -123 -30 -280 -27 -91 2 -302 -3 -470 -11 -232 -11 -392 -12 -670 -5
-201 5 -480 9 -620 10 -248 0 -258 1 -345 27 -49 15 -157 41 -240 57 -82 16
-184 38 -225 50 -192 53 -292 62 -326 28 -8 -8 -26 -41 -39 -74 -21 -51 -27
-59 -47 -56 -40 7 -243 70 -319 100 l-72 29 2 67 c2 53 -3 77 -22 120 -34 73
-80 105 -291 201 -177 81 -343 182 -456 276 -238 197 -400 407 -400 517 0 39
2 43 30 49 21 4 30 11 30 24 0 25 23 33 140 53 159 26 281 35 625 47 181 6
332 14 335 19 3 4 21 10 41 14 20 3 87 37 150 75 63 37 115 67 117 66 1 -1 -9
-65 -23 -141z m306 -229 c334 -125 817 -210 1386 -245 221 -13 780 -13 993 0
568 36 1022 115 1359 236 51 19 100 34 107 34 11 0 14 -18 14 -74 0 -65 -3
-78 -25 -104 -47 -56 -265 -147 -471 -196 -351 -83 -746 -123 -1324 -133 -634
-10 -1195 33 -1599 123 -226 51 -454 141 -525 208 -35 33 -36 35 -36 110 0 57
3 76 14 76 7 0 56 -16 107 -35z M455 6561 c-50 -22 -101 -79 -115 -128 -8 -27
-10 -408 -7 -1333 3 -1285 3 -1296 25 -1394 66 -303 194 -555 390 -771 227
-248 551 -430 875 -491 l97 -18 0 -318 0 -319 -35 -30 c-19 -17 -49 -61 -67
-97 l-33 -67 -3 -632 -3 -633 348 0 348 0 -3 626 c-4 713 -1 686 -88 784 l-46
50 -1 319 -2 318 95 17 c335 59 680 259 907 525 201 236 329 520 373 831 7 50
11 501 10 1354 l0 1280 -26 43 c-34 59 -88 93 -158 100 -73 8 -150 -28 -192
-89 l-29 -41 -6 -1301 c-5 -1414 -2 -1328 -60 -1506 -100 -304 -341 -572 -635
-706 -76 -35 -231 -84 -263 -84 -15 0 -16 138 -16 1787 l0 1788 -25 45 c-85
151 -300 142 -371 -15 -18 -38 -19 -120 -19 -1822 0 -1773 0 -1783 -20 -1783
-37 0 -215 62 -300 105 -337 170 -564 472 -634 844 -14 73 -16 238 -16 1333 0
867 -3 1262 -11 1292 -30 122 -170 189 -284 137z m1558 -3830 c34 -36 57 -68
57 -82 0 -28 -66 -115 -107 -140 -20 -12 -41 -18 -52 -14 -41 13 -131 120
-131 155 0 9 26 44 59 78 79 83 98 83 174 3z m-111 -1217 c50 -7 107 7 151 38
l27 19 0 -25 c0 -37 -22 -126 -32 -126 -4 0 -8 -169 -8 -375 0 -368 0 -375
-20 -375 -17 0 -20 -7 -20 -45 l0 -45 -80 0 -80 0 0 45 c0 38 -3 45 -20 45
-20 0 -20 7 -20 376 0 206 -4 383 -9 392 -5 9 -12 43 -16 75 l-7 59 44 -26
c25 -14 65 -29 90 -32z M5240 6425 c-60 -19 -124 -75 -158 -139 -27 -51 -27
-52 -27 -261 0 -235 4 -250 72 -326 59 -65 104 -84 203 -84 75 0 91 3 131 27
54 32 102 83 126 136 15 31 18 69 18 247 0 209 0 210 -27 261 -66 125 -202
181 -338 139z M7474 6429 c-53 -15 -127 -72 -156 -119 -40 -65 -51 -141 -46
-325 3 -151 5 -164 31 -218 50 -101 142 -157 256 -157 107 1 213 76 251 178
17 46 20 78 20 236 0 221 -9 256 -84 332 -75 74 -175 101 -272 73z M3841 6408
c-97 -153 -145 -395 -123 -613 33 -318 173 -546 375 -609 10 -3 17 -15 17 -29
0 -95 85 -448 155 -642 95 -266 299 -637 456 -827 141 -172 304 -331 446 -436
l63 -47 0 -272 c0 -150 4 -273 9 -273 30 0 72 25 77 46 3 13 10 24 15 24 20 0
12 45 -40 230 -12 41 -21 81 -21 88 0 8 28 -11 63 -41 34 -30 96 -79 138 -109
267 -191 630 -282 1059 -265 426 18 711 118 983 346 l100 84 -6 -39 c-4 -22
-16 -66 -27 -99 -11 -33 -23 -92 -27 -131 -6 -70 -6 -71 28 -102 19 -18 42
-32 52 -32 16 0 17 20 17 273 l0 272 83 60 c187 136 462 444 608 680 201 324
354 726 413 1085 9 52 19 110 22 128 3 19 11 32 20 32 29 0 117 52 160 95 85
86 147 205 186 363 19 73 22 115 22 257 0 188 -9 243 -66 387 l-33 83 -6 -110
c-4 -60 -7 -175 -8 -255 -1 -80 -6 -165 -11 -190 -4 -25 -13 -71 -19 -103 -19
-109 -112 -270 -193 -338 -50 -41 -117 -125 -147 -185 -21 -41 -29 -69 -71
-243 -12 -52 -26 -102 -31 -110 -5 -9 -31 -81 -58 -161 -46 -135 -150 -401
-201 -514 -34 -76 -120 -214 -187 -302 -67 -88 -149 -173 -354 -369 -148 -142
-172 -179 -174 -265 l-1 -54 -69 -48 c-105 -71 -298 -163 -448 -213 -223 -74
-412 -105 -643 -105 -392 0 -777 112 -1091 316 l-83 54 0 54 c0 91 -38 141
-269 352 -129 118 -303 352 -422 567 -142 258 -236 511 -304 822 -48 214 -64
245 -201 380 -112 110 -142 152 -186 255 -22 53 -23 66 -28 438 -4 337 -7 380
-19 360z M6160 5249 c-44 -18 -90 -59 -112 -102 -26 -51 -29 -137 -5 -183 21
-40 89 -101 124 -111 16 -5 143 -8 283 -8 l255 0 47 28 c113 66 139 211 56
311 -59 71 -79 76 -368 75 -143 0 -266 -5 -280 -10z M5494 4260 c-84 -19 -136
-81 -141 -168 -3 -46 1 -65 19 -97 64 -109 310 -207 628 -250 166 -22 547 -31
723 -16 348 29 623 108 742 212 85 75 94 183 22 266 -71 81 -162 84 -266 8
-116 -85 -526 -145 -891 -130 -338 13 -546 56 -690 141 -61 35 -100 45 -146
34z M3938 2540 c-1 -5 -55 -22 -119 -39 -305 -76 -557 -219 -779 -441 -181
-182 -319 -404 -400 -647 -75 -228 -90 -356 -90 -779 l0 -304 3890 0 3890 0 0
323 c0 322 -7 435 -36 577 -41 199 -149 446 -272 620 -86 121 -270 306 -392
393 -169 120 -404 225 -599 267 -47 11 -87 24 -89 30 -3 7 -208 10 -648 10
l-644 0 0 -33 c0 -44 -27 -134 -53 -177 -110 -182 -377 -314 -762 -377 -158
-26 -591 -26 -755 1 -339 54 -577 151 -721 295 -75 75 -106 133 -122 226 l-11
65 -642 0 c-405 0 -644 -4 -646 -10z m1116 -102 c54 -253 117 -400 267 -622
228 -338 653 -720 984 -883 80 -39 96 -44 145 -41 142 10 469 231 758 513 345
335 546 664 612 998 6 31 13 57 16 57 3 0 51 -31 107 -68 56 -38 110 -71 120
-75 9 -3 17 -13 17 -22 0 -8 7 -15 15 -15 11 0 15 11 15 40 0 37 1 39 28 35
15 -2 182 -7 372 -10 190 -4 363 -10 385 -13 37 -7 40 -10 43 -42 l3 -35 104
-27 c333 -85 636 -294 817 -562 77 -115 117 -197 159 -321 l34 -100 3 -333 3
-332 -560 0 -561 0 0 -25 0 -25 -1250 -2 c-687 -2 -1812 -2 -2500 0 l-1250 2
0 25 0 25 -570 0 -570 0 0 280 c0 303 7 364 57 504 63 178 165 337 303 476
193 194 422 324 688 391 92 24 92 24 92 55 0 21 6 34 18 39 26 11 372 25 587
24 105 0 197 2 207 6 13 5 17 -2 23 -34 7 -44 23 -54 32 -21 3 11 12 20 20 20
7 0 19 5 26 10 22 20 182 128 189 129 4 1 10 -9 12 -21z m652 -673 c149 -52
371 -91 597 -105 271 -17 596 15 818 81 54 16 105 29 114 29 27 0 16 -28 -43
-102 -113 -141 -291 -299 -483 -428 -193 -129 -271 -146 -394 -86 -153 74
-368 239 -543 416 -95 96 -162 181 -162 204 0 11 55 6 96 -9z"/>
</g>
</svg>
