<?xml version="1.0" standalone="no"?>
<!DOCTYPE svg PUBLIC "-//W3C//DTD SVG 20010904//EN"
 "http://www.w3.org/TR/2001/REC-SVG-20010904/DTD/svg10.dtd">
<svg version="1.0" xmlns="http://www.w3.org/2000/svg"
 width="2048.000000pt" height="2048.000000pt" viewBox="0 0 2048.000000 2048.000000"
 preserveAspectRatio="xMidYMid meet">
<metadata>
Created by potrace 1.13, written by Peter Selinger 2001-2015
</metadata>
<g transform="translate(0.000000,2048.000000) scale(0.192120,-0.192120)"
fill="#000000" stroke="none">
<path d="M4945 10039 c-770 -58 -1456 -292 -1984 -677 -706 -515 -1153 -1285
-1230 -2122 -38 -403 18 -1002 123 -1326 l34 -104 -33 -20 c-55 -34 -171 -165
-219 -247 -211 -359 -254 -860 -111 -1290 101 -303 284 -511 500 -568 32 -8
59 -16 60 -17 1 -2 10 -43 19 -93 9 -49 35 -157 56 -240 183 -711 527 -1333
1000 -1805 492 -493 1073 -790 1740 -891 133 -20 193 -24 425 -24 284 0 362 7
589 51 452 89 892 289 1266 578 558 430 990 1063 1240 1816 47 141 110 380
136 515 9 50 18 91 19 93 1 1 28 9 60 17 92 24 173 73 256 155 151 149 253
366 306 653 23 128 23 436 0 564 -52 278 -149 492 -292 642 l-73 77 14 59 c56
240 87 602 88 1035 1 364 -2 397 -51 620 -194 889 -871 1706 -1788 2159 -452
224 -899 345 -1440 391 -139 11 -550 11 -710 -1z m568 -269 c217 -11 308 -20
497 -51 1008 -167 1883 -742 2362 -1554 110 -186 203 -412 258 -629 l40 -157
0 -577 c0 -469 -3 -597 -16 -682 -8 -58 -18 -167 -21 -243 -4 -115 -3 -143 11
-172 12 -26 16 -56 14 -117 -3 -77 -5 -83 -29 -97 -53 -30 -148 23 -192 106
-8 16 -132 262 -276 548 -276 549 -296 581 -375 609 -25 9 -117 19 -236 26
-722 40 -1218 144 -1683 354 -32 14 -68 26 -80 26 -22 0 -22 -1 3 -20 42 -33
219 -115 350 -163 327 -118 832 -208 1330 -237 102 -6 226 -13 275 -16 l91 -6
301 -601 c300 -599 340 -670 404 -702 72 -38 149 6 204 115 33 66 35 66 70
-17 18 -43 52 -120 74 -171 23 -52 54 -133 68 -180 27 -85 27 -92 28 -362 l0
-275 -43 -124 c-89 -255 -155 -352 -309 -454 -109 -71 -210 -172 -248 -247
-13 -26 -42 -124 -65 -217 -58 -246 -84 -314 -366 -978 -78 -182 -303 -510
-486 -707 -99 -106 -431 -375 -597 -483 -939 -608 -2167 -603 -3101 13 -375
247 -564 433 -855 837 -96 134 -276 470 -358 670 -70 171 -142 391 -197 608
-28 109 -62 221 -75 248 -29 56 -136 173 -192 211 -21 14 -70 46 -110 72 -109
71 -181 171 -243 337 -43 117 -50 180 -50 470 0 359 6 385 153 678 l104 206
47 -65 c52 -70 105 -117 144 -127 61 -15 113 38 133 135 132 647 386 1183 766
1624 124 143 315 318 348 318 7 0 53 -33 102 -73 367 -302 722 -526 940 -593
112 -34 211 -32 267 6 52 35 84 107 91 200 l6 75 -17 -40 c-80 -197 -120 -227
-273 -206 -193 26 -432 159 -845 470 -205 155 -247 177 -306 161 -123 -33
-460 -404 -649 -713 -48 -79 -167 -314 -221 -437 -59 -135 -135 -359 -189
-557 -56 -208 -91 -283 -129 -283 -43 0 -90 22 -101 47 -14 31 -14 104 0 140
18 44 13 181 -11 279 -11 49 -33 152 -47 229 -26 136 -27 152 -31 610 -4 495
-2 525 43 725 58 255 198 582 345 805 304 460 744 824 1279 1057 426 186 927
295 1451 317 96 5 186 8 200 9 14 1 114 -3 223 -8z M4925 7134 c28 -26 82 -76
120 -113 313 -298 573 -481 680 -481 36 0 48 5 65 28 20 24 22 36 18 112 -4
68 -15 115 -54 230 -42 125 -49 139 -52 107 -2 -21 4 -62 12 -91 11 -37 16
-96 16 -185 l0 -131 -42 0 c-27 0 -66 11 -103 29 -81 38 -270 182 -435 331
-146 131 -245 210 -263 210 -7 0 11 -21 38 -46z M3855 5593 c-68 -25 -107 -54
-144 -109 -48 -72 -53 -120 -49 -466 l3 -313 27 -50 c54 -102 138 -154 248
-155 83 0 149 30 207 93 71 77 74 103 71 484 l-3 328 -30 53 c-67 123 -206
179 -330 135z m115 -542 c0 -193 -4 -292 -11 -296 -5 -4 -21 -4 -35 -1 l-24 6
0 284 c0 155 3 286 7 289 3 4 19 7 35 7 l28 0 0 -289z M6659 5604 c-82 -15
-184 -114 -209 -202 -6 -22 -10 -167 -10 -348 0 -358 4 -387 73 -461 58 -63
124 -93 207 -93 110 1 194 53 248 155 l27 50 0 345 c0 380 0 377 -65 460 -54
68 -176 110 -271 94z m91 -553 c0 -193 -4 -292 -11 -296 -5 -4 -21 -4 -35 -1
l-24 6 0 290 0 290 35 0 35 0 0 -289z M4957 3646 c-151 -55 -224 -235 -153
-381 15 -30 45 -70 68 -89 73 -63 94 -66 458 -66 364 0 385 3 458 66 89 76
120 213 73 320 -27 59 -61 97 -121 132 l-45 27 -350 2 c-275 2 -358 0 -388
-11z m682 -192 l52 -15 -3 -51 c-6 -96 -63 -112 -403 -106 -239 4 -275 10
-318 52 -22 23 -22 78 1 99 33 29 88 35 353 36 213 1 276 -2 318 -15z M6636
2545 c-21 -7 -55 -27 -75 -43 -197 -158 -802 -251 -1453 -222 -510 23 -820 92
-1032 233 -46 30 -55 32 -135 32 -94 0 -122 -10 -187 -67 -117 -103 -119 -295
-2 -404 118 -111 366 -214 665 -274 310 -62 631 -86 1043 -77 485 11 840 65
1125 172 276 103 396 208 412 360 20 195 -178 355 -361 290z m155 -216 c18
-18 20 -29 15 -66 -13 -95 -106 -157 -352 -233 -466 -144 -1291 -179 -1903
-80 -316 52 -593 150 -674 239 -31 34 -37 48 -37 85 0 42 2 45 36 56 64 21
130 8 259 -52 311 -144 672 -195 1294 -185 541 9 854 63 1096 188 143 73 226
88 266 48z"/>
</g>
</svg>
