<?xml version="1.0" standalone="no"?>
<!DOCTYPE svg PUBLIC "-//W3C//DTD SVG 20010904//EN"
 "http://www.w3.org/TR/2001/REC-SVG-20010904/DTD/svg10.dtd">
<svg version="1.0" xmlns="http://www.w3.org/2000/svg"
 width="2048.000000pt" height="2048.000000pt" viewBox="0 0 2048.000000 2048.000000"
 preserveAspectRatio="xMidYMid meet">
<metadata>
Created by potrace 1.13, written by Peter Selinger 2001-2015
</metadata>
<g transform="translate(0.000000,2048.000000) scale(0.192120,-0.192120)"
fill="#000000" stroke="none">
<path d="M5085 10043 c-500 -34 -1109 -213 -1630 -478 -630 -321 -1196 -795
-1602 -1345 -526 -713 -839 -1557 -938 -2530 -45 -455 -48 -1740 -5 -2630 55
-1122 203 -1871 438 -2216 56 -83 151 -170 219 -201 182 -83 544 -17 1211 223
392 141 788 278 942 326 128 40 133 42 100 50 -19 5 -93 10 -165 10 -194 3
-194 3 -1070 -303 -352 -123 -609 -182 -805 -183 -117 -1 -128 1 -182 27 -260
127 -442 708 -532 1697 -35 381 -37 505 -34 1890 4 1533 -2 1388 74 1805 111
602 349 1211 662 1690 552 846 1354 1478 2297 1808 656 230 1250 286 1870 176
894 -160 1800 -654 2427 -1324 364 -388 580 -707 864 -1275 174 -348 325 -902
394 -1442 21 -166 21 -183 17 -1915 -3 -1523 -6 -1771 -20 -1923 -34 -363 -63
-558 -102 -685 -31 -104 -104 -271 -145 -335 -102 -159 -280 -220 -558 -192
-233 23 -427 75 -867 230 -702 247 -821 275 -1069 248 l-80 -8 230 -73 c231
-73 429 -141 869 -300 631 -227 955 -291 1221 -240 273 52 431 259 522 685 95
439 124 1042 138 2835 6 868 -1 1254 -31 1542 -146 1418 -746 2572 -1755 3375
-690 549 -1563 906 -2385 977 -111 10 -403 12 -520 4z M3445 6782 c-424 -423
-521 -514 -715 -673 -267 -218 -389 -334 -476 -449 -183 -243 -267 -543 -243
-868 106 -1468 775 -2749 1789 -3427 142 -94 160 -105 321 -186 263 -131 525
-216 824 -266 157 -26 600 -26 765 0 295 47 558 130 819 261 170 85 187 95
331 191 784 524 1380 1433 1644 2505 117 475 172 979 132 1193 -135 714 -813
1225 -1791 1352 -66 9 -235 20 -375 25 -279 10 -407 24 -630 70 -510 104
-1204 376 -1768 691 -67 38 -126 69 -130 69 -4 0 -227 -220 -497 -488z m797
142 c681 -339 1281 -546 1798 -618 132 -18 202 -24 470 -36 392 -18 638 -63
934 -172 288 -105 547 -275 726 -473 149 -166 262 -355 301 -505 20 -78 21
-100 16 -344 -5 -283 -18 -382 -76 -609 -16 -65 -33 -139 -36 -165 -26 -194
-111 -481 -188 -637 -19 -38 -51 -110 -71 -158 -20 -49 -55 -124 -77 -168 -22
-44 -48 -101 -58 -127 -103 -262 -366 -658 -576 -867 -166 -166 -381 -352
-530 -458 -82 -58 -453 -244 -608 -305 -633 -248 -1316 -240 -1931 23 -209 89
-473 225 -566 291 -193 136 -480 396 -576 521 -246 322 -317 423 -375 529 -17
33 -51 94 -76 137 -238 419 -423 954 -512 1472 -38 226 -41 264 -41 582 0 358
3 380 71 522 89 188 200 316 463 533 309 256 387 327 771 708 209 207 396 389
415 403 62 47 91 41 332 -79z M3857 5316 c-98 -35 -166 -111 -187 -210 -8 -33
-10 -157 -8 -361 3 -302 4 -311 27 -363 43 -96 145 -162 251 -162 75 0 139 27
197 85 80 80 83 99 83 470 0 371 -3 390 -83 470 -79 78 -184 105 -280 71z
M6620 5313 c-26 -9 -66 -38 -96 -68 -81 -80 -84 -99 -84 -470 0 -356 4 -383
71 -459 53 -60 107 -87 185 -94 118 -9 218 48 271 156 l28 57 0 340 c0 324 -1
342 -21 385 -30 65 -70 107 -128 137 -65 33 -161 40 -226 16z M4964 3928 c-17
-6 -53 -27 -80 -47 -163 -123 -135 -379 51 -467 50 -24 53 -24 395 -24 342 0
345 0 395 24 179 85 213 332 63 460 -74 63 -93 66 -462 65 -192 -1 -344 -5
-362 -11z m662 -239 c10 -10 14 -24 10 -37 -13 -40 -56 -47 -311 -47 -255 0
-298 7 -311 47 -15 49 31 57 338 55 223 -2 259 -4 274 -18z M4396 2810 c-98
-38 -165 -130 -174 -236 -10 -129 48 -216 222 -329 157 -102 341 -175 549
-217 97 -20 142 -23 337 -23 249 0 356 15 541 75 249 82 488 238 544 355 60
128 3 295 -125 360 -110 56 -209 41 -330 -50 -175 -133 -365 -189 -635 -189
-281 1 -440 53 -668 219 -81 58 -170 70 -261 35z m164 -265 c14 -4 67 -32 118
-62 150 -89 320 -149 482 -171 70 -9 268 -9 340 0 150 19 322 80 471 166 104
59 141 75 170 70 61 -8 14 -76 -94 -140 -60 -35 -166 -78 -227 -93 -252 -62
-426 -80 -616 -65 -139 12 -162 15 -269 42 -44 11 -91 22 -104 25 -14 2 -28 6
-33 9 -4 3 -18 7 -30 9 -13 3 -59 22 -103 44 -141 68 -206 129 -175 166 7 8
20 13 29 11 9 -2 27 -7 41 -11z"/>
</g>
</svg>
