<?xml version="1.0" standalone="no"?>
<!DOCTYPE svg PUBLIC "-//W3C//DTD SVG 20010904//EN"
 "http://www.w3.org/TR/2001/REC-SVG-20010904/DTD/svg10.dtd">
<svg version="1.0" xmlns="http://www.w3.org/2000/svg"
 width="2048.000000pt" height="2048.000000pt" viewBox="0 0 2048.000000 2048.000000"
 preserveAspectRatio="xMidYMid meet">
<metadata>
Created by potrace 1.13, written by Peter Selinger 2001-2015
</metadata>
<g transform="translate(0.000000,2048.000000) scale(0.192120,-0.192120)"
fill="#000000" stroke="none">
<path d="M5619 10312 c-236 -96 -632 -542 -934 -1052 -127 -214 -283 -546
-340 -720 -9 -30 -24 -70 -32 -87 l-15 -33 -332 0 c-886 0 -1307 -70 -1407
-234 -26 -42 -25 -134 2 -217 86 -263 331 -540 684 -774 194 -129 436 -257
615 -325 53 -20 57 -25 63 -90 8 -74 49 -255 76 -333 51 -146 140 -267 197
-267 60 0 69 16 113 200 17 69 44 165 60 214 17 49 29 91 28 93 -2 2 -51 16
-108 32 -57 16 -143 44 -191 61 l-88 32 0 64 c0 145 -66 212 -331 333 -189 87
-354 186 -469 282 -238 197 -400 407 -400 517 0 39 2 43 30 49 21 4 30 11 30
24 0 25 23 33 140 53 159 26 281 35 625 47 181 6 332 14 335 19 3 4 21 10 41
14 20 3 88 37 153 76 64 38 116 67 116 64 0 -3 -11 -66 -25 -142 -14 -75 -29
-189 -32 -252 -5 -105 -4 -120 17 -168 26 -60 115 -148 204 -201 296 -176 921
-290 1707 -310 1393 -36 2355 167 2499 527 23 59 -2 350 -47 530 -5 20 5 16
92 -34 106 -61 190 -94 241 -94 18 0 34 -5 36 -10 2 -7 106 -14 281 -20 380
-13 608 -37 731 -79 43 -14 51 -21 64 -56 13 -37 12 -45 -8 -98 -62 -165 -274
-390 -520 -552 -57 -38 -185 -107 -284 -154 -100 -47 -198 -96 -218 -109 -90
-56 -146 -161 -133 -251 l7 -49 -79 -30 c-97 -37 -249 -86 -339 -108 -66 -17
-68 -17 -78 2 -6 10 -26 34 -45 52 -33 32 -36 33 -100 29 -85 -5 -467 -80
-551 -108 -36 -12 -84 -31 -107 -44 -66 -36 -92 -38 -179 -13 -74 22 -92 23
-284 18 -258 -6 -1146 -6 -1385 0 -183 4 -207 1 -297 -37 -21 -9 -38 -20 -38
-24 0 -20 -40 -12 -80 17 -100 70 -162 90 -430 139 -107 19 -202 38 -210 41
-8 3 -46 12 -84 20 -93 19 -137 8 -173 -47 -16 -25 -23 -43 -17 -49 42 -42
882 -199 918 -172 25 20 46 20 70 1 69 -54 847 -93 1391 -70 546 24 1133 101
1493 196 52 14 98 25 103 25 5 0 60 -103 123 -228 130 -258 170 -312 232 -312
107 0 182 210 224 629 5 58 11 105 13 106 1 1 56 26 122 55 543 237 975 595
1140 945 91 192 89 305 -7 379 -101 77 -303 125 -653 157 -66 6 -321 13 -566
16 l-446 6 -22 71 c-186 586 -699 1377 -1104 1701 -156 125 -251 156 -372 120
-140 -40 -209 -89 -432 -307 -174 -171 -189 -181 -236 -157 -12 6 -96 85 -187
174 -227 224 -338 292 -490 301 -47 3 -77 -1 -111 -14z m203 -266 c60 -26 123
-74 218 -165 90 -87 214 -179 285 -213 144 -68 267 -17 504 208 147 139 215
182 306 191 46 5 60 1 116 -28 143 -76 415 -382 622 -698 144 -218 308 -522
387 -714 44 -107 98 -161 213 -211 84 -38 87 -40 70 -58 -47 -52 -245 -141
-442 -199 -855 -250 -2438 -253 -3298 -5 -214 62 -420 153 -469 208 -16 16
-15 18 2 24 63 21 166 80 197 112 25 25 64 96 122 222 90 194 132 274 225 430
217 364 478 692 664 834 117 90 183 105 278 62z m-1261 -2061 c334 -125 817
-210 1386 -245 221 -13 780 -13 993 0 568 36 1022 115 1359 236 51 19 100 34
107 34 11 0 14 -18 14 -74 0 -65 -3 -78 -25 -104 -47 -56 -265 -147 -471 -196
-351 -83 -746 -123 -1324 -133 -634 -10 -1195 33 -1599 123 -226 51 -454 141
-525 208 -35 33 -36 35 -36 110 0 57 3 76 14 76 7 0 56 -16 107 -35z M455
6561 c-50 -22 -101 -79 -115 -128 -8 -27 -10 -408 -7 -1333 3 -1285 3 -1296
25 -1394 66 -303 194 -555 390 -771 227 -248 551 -430 875 -491 l97 -18 0
-318 0 -319 -35 -30 c-19 -17 -49 -61 -67 -97 l-33 -67 -3 -632 -3 -633 348 0
348 0 -3 626 c-4 713 -1 686 -88 784 l-46 50 -1 319 -2 318 95 17 c335 59 680
259 907 525 201 236 329 520 373 831 7 50 11 501 10 1354 l0 1280 -26 43 c-34
59 -88 93 -158 100 -73 8 -150 -28 -192 -89 l-29 -41 -6 -1301 c-5 -1414 -2
-1328 -60 -1506 -100 -304 -341 -572 -635 -706 -76 -35 -231 -84 -263 -84 -15
0 -16 138 -16 1787 l0 1788 -25 45 c-85 151 -300 142 -371 -15 -18 -38 -19
-120 -19 -1822 0 -1773 0 -1783 -20 -1783 -37 0 -215 62 -300 105 -337 170
-564 472 -634 844 -14 73 -16 238 -16 1333 0 867 -3 1262 -11 1292 -30 122
-170 189 -284 137z m1558 -3830 c34 -36 57 -68 57 -82 0 -28 -66 -115 -107
-140 -20 -12 -41 -18 -52 -14 -41 13 -131 120 -131 155 0 9 26 44 59 78 79 83
98 83 174 3z m-111 -1217 c50 -7 107 7 151 38 l27 19 0 -25 c0 -37 -22 -126
-32 -126 -4 0 -8 -169 -8 -375 0 -368 0 -375 -20 -375 -17 0 -20 -7 -20 -45
l0 -45 -80 0 -80 0 0 45 c0 38 -3 45 -20 45 -20 0 -20 7 -20 376 0 206 -4 383
-9 392 -5 9 -12 43 -16 75 l-7 59 44 -26 c25 -14 65 -29 90 -32z M3903 6498
c-225 -251 -257 -780 -65 -1097 64 -105 187 -211 246 -211 17 0 18 -1 41 -145
121 -720 519 -1406 1042 -1793 l63 -47 0 -316 0 -317 43 9 c91 20 105 28 118
66 15 46 7 179 -16 256 -9 32 -15 61 -12 64 3 2 47 -25 99 -62 106 -76 233
-140 368 -185 341 -115 854 -117 1210 -5 117 37 288 123 389 195 46 34 86 59
88 56 3 -2 -2 -36 -11 -75 -16 -70 -21 -206 -10 -249 8 -27 47 -50 109 -61
l45 -8 2 315 3 316 85 65 c47 35 148 128 225 205 296 297 506 635 662 1066 44
122 117 409 134 525 15 109 20 122 58 130 47 10 135 80 184 145 120 159 175
366 164 614 -4 81 -14 164 -27 216 -24 97 -95 248 -141 300 l-31 35 7 -45 c21
-153 24 -210 19 -378 -10 -373 -48 -490 -218 -672 -132 -140 -167 -205 -207
-375 -32 -138 -115 -381 -219 -640 -109 -272 -134 -318 -279 -515 -54 -73
-121 -143 -372 -385 -168 -161 -209 -240 -180 -341 9 -31 8 -31 -78 -81 -299
-174 -638 -263 -1001 -263 -327 0 -622 70 -910 216 -168 85 -165 82 -165 161
0 116 -57 199 -261 384 -127 115 -157 148 -282 311 -95 124 -160 234 -272 463
-100 205 -164 400 -230 705 -33 149 -68 208 -204 345 -175 176 -206 273 -206
636 0 193 9 361 25 457 7 38 -4 41 -32 10z M5234 6424 c-58 -21 -120 -77 -152
-138 -27 -51 -27 -52 -27 -261 0 -178 3 -216 18 -247 24 -53 72 -104 126 -136
40 -24 57 -27 131 -27 74 0 91 3 131 27 54 32 102 83 126 136 15 31 18 69 18
247 0 209 0 210 -27 261 -66 126 -213 185 -344 138z M7474 6429 c-53 -15 -127
-72 -156 -119 -40 -65 -51 -141 -46 -325 3 -151 5 -164 31 -218 50 -101 142
-157 256 -157 107 1 213 76 251 178 17 46 20 78 20 236 0 221 -9 256 -84 332
-75 74 -175 101 -272 73z M6160 5249 c-145 -58 -180 -242 -66 -347 63 -58 105
-65 381 -60 l230 3 47 28 c113 66 138 211 55 312 -58 70 -79 75 -367 74 -143
0 -266 -5 -280 -10z M5515 4265 c-5 -2 -22 -6 -37 -9 -37 -8 -98 -63 -114
-103 -21 -49 -17 -112 9 -158 62 -110 308 -207 637 -251 168 -23 655 -26 820
-6 297 37 531 112 635 203 85 75 94 183 22 266 -71 81 -162 84 -265 9 -127
-94 -572 -153 -964 -128 -305 19 -488 60 -618 137 -51 31 -102 47 -125 40z
M3938 2540 c-1 -5 -55 -22 -119 -39 -305 -76 -557 -219 -779 -441 -181 -182
-319 -404 -400 -647 -75 -228 -90 -356 -90 -779 l0 -304 3890 0 3890 0 0 323
c0 322 -7 435 -36 577 -41 199 -149 446 -272 620 -86 121 -270 306 -392 393
-169 120 -404 225 -599 267 -47 11 -87 24 -89 30 -3 7 -208 10 -648 10 l-644
0 0 -33 c0 -44 -27 -134 -53 -177 -124 -203 -443 -345 -880 -390 -154 -16
-495 -8 -642 15 -331 51 -572 151 -716 294 -73 74 -106 136 -122 229 l-11 62
-642 0 c-405 0 -644 -4 -646 -10z m1128 -152 c66 -325 276 -666 612 -989 209
-202 441 -374 627 -466 80 -39 96 -44 145 -41 142 10 469 231 758 513 348 338
545 662 612 1003 l13 62 93 -65 c51 -36 97 -65 103 -65 6 0 11 -4 11 -9 0 -5
9 -11 20 -14 11 -3 20 -12 20 -21 0 -9 7 -16 15 -16 11 0 15 11 15 40 0 37 1
39 28 35 15 -2 182 -7 372 -10 190 -4 363 -10 385 -13 37 -7 40 -10 43 -42 l3
-35 104 -27 c333 -85 636 -294 817 -562 77 -115 117 -197 159 -321 l34 -100 3
-333 3 -332 -560 0 -561 0 0 -25 0 -25 -1250 -2 c-687 -2 -1812 -2 -2500 0
l-1250 2 0 25 0 25 -570 0 -570 0 0 280 c0 303 7 364 57 504 63 178 165 337
303 476 193 194 422 324 688 391 92 24 92 24 92 55 0 21 6 34 18 39 26 11 372
25 587 24 105 0 197 2 207 6 13 5 17 -2 23 -34 7 -44 23 -54 32 -21 3 11 9 20
14 20 10 0 127 75 184 118 22 17 41 29 43 27 2 -2 10 -36 18 -77z m799 -643
c313 -74 707 -85 1045 -29 81 14 283 67 330 87 8 4 21 3 28 -2 19 -12 -3 -52
-79 -143 -111 -133 -299 -296 -480 -418 -189 -127 -270 -145 -388 -90 -177 84
-463 312 -627 501 -148 169 -150 194 -17 148 48 -17 133 -41 188 -54z"/>
</g>
</svg>
