<?xml version="1.0" standalone="no"?>
<!DOCTYPE svg PUBLIC "-//W3C//DTD SVG 20010904//EN"
 "http://www.w3.org/TR/2001/REC-SVG-20010904/DTD/svg10.dtd">
<svg version="1.0" xmlns="http://www.w3.org/2000/svg"
 width="2048.000000pt" height="2048.000000pt" viewBox="0 0 2048.000000 2048.000000"
 preserveAspectRatio="xMidYMid meet">
<metadata>
Created by potrace 1.13, written by Peter Selinger 2001-2015
</metadata>
<g transform="translate(0.000000,2048.000000) scale(0.192120,-0.192120)"
fill="#000000" stroke="none">
<path d="M4025 10044 c-346 -50 -539 -103 -800 -222 -460 -209 -876 -557
-1183 -989 -331 -466 -579 -1065 -686 -1653 -48 -268 -60 -413 -60 -747 l-1
-311 -40 -12 c-55 -16 -100 -45 -164 -105 -100 -93 -170 -229 -214 -419 -31
-135 -30 -416 2 -576 62 -315 195 -592 376 -787 154 -167 315 -251 490 -256
l78 -2 13 -60 c6 -33 15 -71 18 -85 5 -20 -5 -39 -55 -100 -350 -426 -626
-1063 -734 -1694 -41 -244 -50 -343 -50 -586 0 -251 14 -362 57 -461 41 -96
88 -111 219 -68 127 42 413 191 526 275 41 31 43 30 43 -7 0 -83 52 -239 91
-275 98 -88 645 201 1172 619 l88 70 27 -21 c75 -60 272 -188 382 -250 377
-210 779 -342 1241 -407 157 -22 598 -31 781 -16 578 49 1123 234 1588 538 63
42 132 89 152 105 l37 29 123 -94 c424 -323 889 -575 1099 -594 54 -5 56 -5
85 31 31 37 58 108 69 181 14 94 4 91 108 28 201 -123 455 -230 569 -240 52
-5 59 -3 82 22 125 135 137 674 26 1210 -125 608 -399 1201 -738 1598 l-49 58
20 87 c11 48 21 92 23 99 2 7 30 11 78 11 378 2 749 448 867 1042 31 154 33
430 5 560 -40 184 -104 317 -199 417 -65 68 -118 104 -185 124 l-43 12 7 196
c23 664 -121 1335 -420 1956 -458 955 -1235 1586 -2147 1745 -174 30 -407 37
-521 16 -275 -52 -580 -217 -871 -470 l-77 -67 -68 59 c-247 220 -545 392
-790 459 -82 22 -121 26 -257 28 -88 2 -173 1 -190 -1z m366 -329 c190 -40
376 -136 664 -345 128 -92 213 -134 275 -134 62 0 147 42 277 136 284 207 464
299 668 345 92 20 317 20 452 -1 659 -103 1235 -459 1665 -1031 295 -394 529
-949 638 -1519 45 -234 50 -310 61 -865 l11 -545 -22 -120 c-24 -129 -51 -206
-72 -206 -19 0 -57 67 -117 210 -189 443 -380 739 -661 1020 -175 175 -342
294 -555 396 -235 111 -430 154 -765 169 -332 14 -546 62 -764 172 -137 69
-201 116 -321 237 -94 95 -121 130 -189 246 -105 180 -122 205 -185 268 -59
60 -105 84 -142 75 -37 -9 -114 -69 -163 -126 -24 -29 -87 -119 -141 -202
-190 -291 -401 -460 -712 -568 -185 -65 -332 -88 -668 -107 -264 -14 -422 -47
-613 -126 -124 -51 -185 -84 -302 -162 -242 -160 -484 -410 -662 -682 -96
-147 -235 -426 -307 -615 -62 -163 -68 -175 -91 -175 -28 0 -46 33 -68 125
-36 146 -44 232 -38 405 3 91 9 316 14 500 9 335 20 454 63 685 89 481 292
994 544 1370 125 187 205 284 360 441 217 219 430 372 700 504 408 200 861
287 1166 225z m974 -1712 c95 -293 300 -559 565 -735 252 -167 610 -268 947
-268 212 0 426 -33 592 -92 499 -176 939 -638 1211 -1271 141 -330 227 -666
252 -991 13 -171 8 -172 86 24 158 398 266 825 317 1245 24 199 18 195 85 54
63 -136 88 -203 119 -323 19 -70 21 -110 21 -334 0 -240 -1 -260 -26 -361 -55
-225 -162 -432 -298 -579 -53 -57 -167 -127 -247 -151 -136 -42 -155 -51 -226
-111 -110 -92 -173 -189 -173 -266 0 -36 6 -49 34 -78 19 -18 56 -42 83 -52
26 -9 52 -20 56 -24 17 -14 -66 -291 -154 -515 -146 -373 -348 -724 -593
-1029 -140 -175 -395 -427 -515 -511 l-43 -29 -38 44 c-37 44 -40 45 -97 45
-54 0 -72 -7 -199 -71 -129 -66 -362 -170 -546 -243 -104 -41 -396 -124 -543
-155 -256 -52 -356 -61 -710 -61 -291 0 -348 3 -480 23 -245 36 -534 108 -725
180 -166 62 -461 191 -560 244 -201 110 -241 125 -288 107 -14 -5 -42 -28 -62
-52 l-37 -42 -59 45 c-163 125 -429 411 -596 641 -258 354 -490 843 -603 1272
l-34 128 37 15 c99 39 129 66 139 127 10 68 -75 196 -188 281 -43 33 -86 53
-147 72 -127 39 -200 84 -294 181 -115 118 -224 318 -277 505 -46 166 -53 239
-48 494 5 238 5 242 62 409 9 28 43 106 75 174 66 139 62 140 80 -19 45 -408
163 -880 320 -1275 80 -203 75 -202 88 -18 56 758 419 1550 894 1949 325 273
659 393 1096 394 280 0 569 65 806 179 356 172 668 516 778 857 13 40 25 70
27 68 2 -2 18 -48 36 -101z m-3517 -4880 c16 -38 60 -137 97 -221 187 -422
449 -817 774 -1162 34 -36 64 -73 67 -83 9 -29 -20 -62 -120 -132 -222 -155
-462 -285 -523 -285 -45 0 -66 12 -136 76 -103 95 -144 119 -207 119 -49 -1
-77 -11 -255 -98 -111 -53 -208 -97 -217 -97 -9 0 -19 7 -22 16 -3 9 -6 144
-6 300 0 330 15 448 94 760 77 300 247 714 343 832 51 63 73 58 111 -25z
m7058 22 c40 -42 153 -268 223 -446 80 -202 166 -514 201 -724 7 -46 10 -186
8 -405 l-3 -335 -25 3 c-13 1 -97 36 -187 77 -252 117 -285 119 -398 30 -122
-96 -155 -115 -202 -115 -70 0 -268 96 -500 242 -142 90 -173 119 -173 164 0
8 42 59 93 112 208 219 388 461 562 756 59 101 208 402 245 495 44 112 87 181
112 181 6 0 26 -16 44 -35z M3607 5879 c-89 -21 -160 -79 -196 -159 -19 -42
-21 -65 -21 -390 0 -342 0 -345 24 -395 98 -207 392 -212 496 -8 l25 48 0 355
0 355 -25 48 c-55 109 -189 173 -303 146z m73 -554 c0 -278 0 -285 -20 -285
-20 0 -20 7 -20 285 0 278 0 285 20 285 20 0 20 -7 20 -285z M6941 5879 c-92
-18 -176 -91 -206 -178 -22 -66 -22 -676 1 -743 77 -228 406 -243 510 -23 24
50 24 53 24 395 0 342 0 345 -24 395 -54 114 -182 179 -305 154z m77 -548 c1
-157 -2 -279 -7 -284 -5 -5 -18 -6 -30 -2 -21 6 -21 11 -21 279 0 150 3 276 7
280 4 4 16 6 28 4 19 -3 20 -10 23 -277z M5000 4491 c-60 -13 -109 -42 -153
-91 -50 -55 -70 -111 -69 -192 1 -103 64 -197 161 -242 44 -20 60 -21 391 -21
331 0 347 1 391 21 58 27 116 85 141 141 23 52 26 140 7 202 -17 56 -86 132
-146 162 -47 23 -54 24 -368 26 -176 1 -336 -2 -355 -6z m652 -215 c42 -20 33
-97 -15 -124 -28 -15 -65 -17 -312 -17 -265 0 -282 1 -315 21 -32 18 -35 24
-35 64 0 43 1 45 40 57 45 14 607 13 637 -1z M4103 3406 c-84 -27 -132 -68
-182 -159 -29 -51 -30 -203 -2 -276 21 -57 79 -123 136 -156 124 -71 471 -152
850 -197 149 -18 715 -18 850 0 456 61 671 107 822 179 65 30 133 97 162 157
31 66 31 243 0 301 -73 139 -223 191 -439 152 -47 -9 -157 -29 -245 -45 -253
-47 -468 -66 -730 -66 -314 1 -488 19 -883 95 -164 31 -271 36 -339 15z m262
-51 c346 -108 672 -152 1054 -142 319 8 570 48 866 139 149 46 199 47 283 4
132 -67 191 -242 124 -372 -24 -46 -84 -105 -130 -128 -99 -50 -509 -147 -777
-183 -189 -25 -716 -25 -905 0 -284 38 -683 132 -787 186 -159 81 -202 295
-87 430 34 40 90 75 144 92 50 15 106 8 215 -26z"/>
</g>
</svg>
