<?xml version="1.0" standalone="no"?>
<!DOCTYPE svg PUBLIC "-//W3C//DTD SVG 20010904//EN"
 "http://www.w3.org/TR/2001/REC-SVG-20010904/DTD/svg10.dtd">
<svg version="1.0" xmlns="http://www.w3.org/2000/svg"
 width="2048.000000pt" height="2048.000000pt" viewBox="0 0 2048.000000 2048.000000"
 preserveAspectRatio="xMidYMid meet">
<metadata>
Created by potrace 1.13, written by Peter Selinger 2001-2015
</metadata>
<g transform="translate(0.000000,2048.000000) scale(0.192120,-0.192120)"
fill="#000000" stroke="none">
<path d="M6225 9914 c-457 -34 -792 -118 -1130 -283 -457 -224 -788 -550
-1001 -986 -148 -303 -214 -622 -200 -960 8 -194 23 -331 50 -466 l22 -108
-44 -41 c-81 -77 -152 -218 -188 -375 -26 -112 -26 -358 0 -470 26 -113 60
-199 111 -281 56 -90 119 -148 200 -185 l62 -28 7 -63 c11 -96 52 -282 95
-430 102 -347 280 -696 500 -978 142 -183 396 -422 559 -525 l62 -40 0 -186
c0 -154 3 -188 15 -192 61 -24 229 -583 500 -1667 85 -341 252 -1034 295
-1223 l22 -97 279 0 279 0 5 22 c52 229 230 970 311 1292 268 1073 440 1650
499 1672 13 5 15 33 15 190 l0 183 75 51 c336 226 647 594 849 1001 152 305
243 595 301 961 5 32 11 38 43 49 87 28 182 119 240 227 178 333 142 811 -79
1074 -22 27 -38 52 -35 57 18 28 39 342 40 586 1 314 -8 384 -82 610 -203 624
-742 1163 -1428 1429 -193 74 -426 132 -655 161 -118 15 -487 27 -594 19z
m543 -329 c881 -96 1627 -628 1870 -1334 l36 -106 4 -212 c2 -117 1 -213 -3
-213 -3 0 -21 11 -38 24 -43 32 -103 62 -152 75 -69 18 -302 41 -520 51 -512
25 -696 58 -1095 199 -63 23 -126 41 -140 41 -57 -1 -122 -46 -215 -151 -44
-49 -67 -44 -182 41 -120 88 -183 121 -234 122 -44 0 -69 -14 -152 -85 -70
-60 -116 -78 -166 -65 -69 19 -227 110 -380 219 -257 182 -319 202 -443 141
-81 -40 -192 -134 -292 -248 -43 -49 -102 -117 -132 -151 -44 -51 -72 -70
-156 -113 -57 -28 -120 -65 -142 -82 -30 -25 -40 -28 -47 -17 -15 24 -11 350
6 431 41 195 144 431 263 598 126 179 344 376 552 502 463 279 1115 402 1758
333z m-1575 -1501 c229 -179 450 -315 594 -365 32 -11 83 -19 119 -19 56 0 67
3 99 31 45 40 59 92 51 188 l-6 73 123 -119 c68 -65 160 -150 205 -188 45 -38
79 -71 77 -73 -2 -2 -57 13 -122 33 -162 49 -183 51 -297 25 -138 -32 -255
-24 -541 36 -183 38 -245 47 -365 51 -176 7 -212 -1 -406 -87 -75 -33 -138
-59 -140 -57 -6 6 97 167 152 239 82 107 305 328 330 328 3 0 60 -43 127 -96z
m1608 -211 c183 -105 511 -193 879 -238 69 -8 141 -17 160 -19 61 -8 -259 4
-400 15 -74 5 -193 17 -265 25 -255 30 -266 30 -330 0 -32 -14 -59 -25 -61
-24 -1 2 -19 48 -39 103 -21 55 -53 130 -71 167 -19 37 -34 72 -34 78 0 6 24
-9 53 -33 30 -24 78 -57 108 -74z m1202 -270 c-7 -2 -21 -2 -30 0 -10 3 -4 5
12 5 17 0 24 -2 18 -5z m520 -87 c64 -31 110 -84 127 -145 6 -22 10 -271 10
-658 0 -613 0 -623 -21 -680 -32 -86 -144 -194 -264 -255 -325 -165 -844 -217
-1171 -117 -38 11 -148 52 -244 89 -266 104 -332 122 -481 127 -189 8 -235 -4
-624 -152 -223 -85 -312 -106 -486 -112 -310 -12 -651 54 -870 168 -102 53
-196 140 -240 221 l-34 63 -3 624 c-3 723 -6 699 81 785 29 29 68 57 87 63 25
8 602 11 2055 10 l2020 -2 58 -29z m-4433 -700 l41 -59 -28 -28 c-15 -16 -45
-35 -66 -44 l-37 -15 -19 31 c-28 45 -35 134 -20 254 l12 106 38 -93 c21 -51
57 -120 79 -152z m4872 -16 c2 -112 -12 -169 -53 -213 -27 -30 -30 -31 -43
-14 -8 10 -17 17 -21 16 -4 -1 -27 18 -51 41 l-44 43 28 17 c56 35 94 105 134
247 l23 83 13 -63 c6 -34 13 -105 14 -157z m-2937 -1188 c1 -72 33 -134 93
-177 l44 -30 261 -3 c299 -4 322 0 382 71 40 46 58 102 53 159 l-4 38 86 -84
c118 -116 179 -152 309 -183 132 -31 392 -42 564 -23 213 23 420 76 578 147
65 30 67 30 83 12 9 -11 16 -33 16 -50 0 -63 -175 -546 -272 -749 -96 -203
-290 -440 -503 -615 -146 -120 -202 -173 -261 -247 -73 -91 -88 -132 -80 -217
l6 -68 -88 -41 c-473 -220 -989 -249 -1485 -85 -75 25 -174 64 -220 87 l-82
41 3 56 c2 31 -1 74 -7 96 -23 84 -116 196 -260 311 -239 192 -412 402 -571
693 -106 194 -141 275 -203 464 -52 161 -72 253 -63 290 6 25 7 25 36 10 36
-19 38 -19 42 0 2 12 10 11 48 -6 79 -36 261 -86 395 -110 171 -31 544 -34
665 -6 212 49 214 50 330 168 58 60 105 109 105 109 0 0 0 -26 0 -58z m-442
-2185 c148 -106 308 -174 503 -214 129 -26 579 -26 708 0 196 40 354 107 499
211 43 31 80 56 83 56 8 0 -8 -54 -29 -95 -10 -22 -52 -98 -92 -170 -44 -78
-90 -178 -115 -250 -50 -142 -78 -200 -117 -241 -81 -87 -440 -150 -715 -126
-213 19 -404 76 -470 139 -30 29 -56 87 -123 278 -29 81 -73 176 -116 251 -56
99 -99 189 -99 210 0 9 12 1 83 -49z m307 -894 c190 -69 338 -94 555 -94 222
0 426 38 638 119 42 17 74 25 70 19 -3 -7 -37 -57 -74 -112 -131 -196 -120
-161 -349 -1090 -89 -357 -166 -665 -173 -683 -6 -18 -24 -48 -40 -67 -26 -32
-33 -35 -82 -35 -58 0 -81 15 -111 72 -7 14 -43 147 -79 295 -191 777 -298
1201 -324 1278 -33 94 -71 168 -136 260 -23 33 -47 70 -54 83 l-12 23 38 -17
c21 -9 81 -32 133 -51z M4500 6810 c0 -497 2 -526 52 -628 90 -187 348 -290
736 -294 219 -2 304 19 793 195 305 110 438 105 799 -28 379 -140 498 -168
705 -167 457 3 707 127 781 388 15 51 18 126 21 529 l5 470 -1946 0 -1946 0 0
-465z m1062 283 l133 -28 745 0 745 0 133 28 c174 36 292 36 457 2 66 -14 173
-28 238 -32 105 -5 117 -8 117 -24 0 -12 7 -19 20 -19 20 0 20 -7 20 -339 0
-215 -4 -350 -11 -368 -34 -91 -140 -160 -352 -229 -89 -29 -132 -38 -212 -41
-125 -6 -198 10 -355 77 -114 49 -387 141 -530 179 -245 65 -390 52 -760 -67
-191 -62 -245 -81 -341 -126 -176 -80 -342 -87 -533 -22 -215 74 -317 143
-344 233 -8 28 -12 143 -12 372 0 324 0 331 20 331 13 0 20 7 20 20 0 18 7 20
83 20 86 0 134 7 282 39 135 29 274 27 437 -6z M5258 6986 c-99 -27 -176 -109
-198 -209 -8 -32 -11 -119 -8 -227 3 -153 6 -181 24 -221 82 -177 313 -220
449 -84 73 74 80 103 80 335 0 188 -2 209 -21 251 -57 123 -199 191 -326 155z
m125 -243 c13 -7 8 -328 -5 -341 -16 -16 -80 -15 -101 1 -16 11 -17 31 -15
177 l3 165 30 6 c28 6 70 2 88 -8z M7486 6989 c-85 -21 -173 -104 -197 -186
-19 -66 -19 -380 0 -446 17 -59 85 -138 144 -166 134 -63 287 -13 361 119 l31
55 0 215 c0 202 -1 217 -22 256 -35 65 -70 101 -127 129 -60 29 -133 39 -190
24z m117 -246 c13 -7 8 -328 -5 -341 -15 -15 -72 -16 -99 -2 -18 10 -19 23
-19 175 l0 164 33 10 c29 8 69 5 90 -6z M7314 4820 c-17 -4 -51 -21 -75 -38
-128 -91 -414 -142 -799 -142 -377 0 -662 50 -796 139 -77 50 -148 53 -215 8
-66 -45 -96 -139 -68 -214 47 -127 312 -233 695 -278 155 -19 566 -21 734 -5
283 28 525 99 656 192 108 77 118 228 22 302 -28 20 -101 48 -118 45 -3 -1
-19 -4 -36 -9z M2184 7538 c-54 -17 -126 -80 -153 -132 -29 -57 -39 -150 -22
-213 15 -57 66 -121 124 -157 99 -61 250 -44 331 38 56 56 79 108 84 189 4 61
1 75 -28 133 -33 68 -85 116 -153 141 -39 14 -141 15 -183 1z M1750 6704
c-155 -42 -272 -170 -302 -333 -33 -175 72 -370 239 -449 52 -24 69 -27 168
-27 103 0 114 2 177 32 93 44 151 100 196 191 36 74 37 79 37 187 0 99 -3 116
-27 168 -86 183 -296 282 -488 231z m215 -287 l40 -23 3 -86 c3 -79 1 -88 -22
-115 -63 -75 -236 -63 -286 19 -30 49 -28 147 3 176 59 56 189 70 262 29z
M2715 6136 c-93 -43 -165 -153 -165 -251 0 -93 68 -202 154 -248 33 -17 58
-22 126 -22 102 0 146 19 209 91 93 106 93 253 -1 359 -57 64 -124 95 -208 95
-47 0 -79 -7 -115 -24z M1621 5319 c-252 -50 -405 -198 -447 -431 -36 -198 19
-391 145 -511 86 -83 205 -135 346 -152 l55 -7 0 -694 0 -694 -581 -726 c-319
-399 -603 -758 -629 -798 -153 -227 -201 -388 -166 -556 42 -197 164 -326 374
-393 l67 -22 2252 -3 2251 -2 -238 356 -239 356 231 381 c126 210 234 387 240
394 7 8 -23 21 -109 48 -354 110 -438 137 -442 141 -3 3 -4 19 -3 37 1 18 16
241 32 497 16 256 32 489 35 518 l6 52 -314 0 c-173 0 -361 -5 -418 -10 -220
-23 -406 -76 -593 -170 -106 -53 -265 -156 -266 -172 0 -9 86 -22 141 -21 58
2 115 19 263 78 238 95 419 125 758 125 191 0 198 -1 198 -20 0 -15 7 -20 25
-20 l25 0 0 -435 c0 -494 -3 -472 85 -560 51 -51 90 -72 205 -110 99 -33 120
-48 120 -86 0 -32 -53 -138 -159 -316 -90 -153 -141 -264 -148 -325 -8 -66 22
-143 112 -293 40 -66 84 -142 99 -170 54 -103 34 -116 -198 -126 -151 -7 -183
-11 -271 -39 -118 -37 -252 -70 -280 -70 -12 1 2 12 35 28 75 37 170 129 208
200 61 114 87 296 57 398 -46 158 -103 238 -670 947 -264 331 -514 645 -555
697 -41 52 -80 101 -87 108 -7 8 -24 28 -38 46 l-25 33 0 695 0 696 58 7 c87
11 202 51 268 93 150 97 224 247 224 452 -1 271 -114 437 -360 524 l-85 31
-775 2 c-426 0 -795 -3 -819 -8z m1593 -283 c67 -20 110 -58 142 -123 57 -115
28 -291 -58 -356 -64 -49 -105 -57 -294 -57 l-174 0 0 -884 0 -884 212 -264
c251 -312 280 -348 288 -348 3 0 22 16 43 36 51 50 77 42 171 -49 82 -81 614
-743 698 -870 134 -200 171 -327 134 -462 -29 -109 -88 -186 -184 -238 -108
-59 -60 -57 -1770 -57 -1363 0 -1575 2 -1631 15 -210 50 -338 233 -301 430 13
70 78 214 132 293 76 113 435 570 612 781 80 95 148 151 183 151 13 0 37 -7
53 -15 28 -15 29 -15 83 48 29 34 143 174 252 310 l198 248 -6 492 c-4 271 -7
664 -7 875 l0 382 -97 0 c-151 1 -275 15 -320 39 -83 42 -133 134 -133 246 0
122 58 217 153 254 50 19 78 20 813 20 628 1 769 -1 808 -13z M1125 1643
c-353 -442 -446 -572 -490 -680 -56 -140 -10 -269 115 -327 l45 -21 1600 -3
c1757 -2 1660 -6 1737 58 49 41 78 104 85 187 5 63 3 74 -25 128 -51 100 -126
202 -484 652 l-343 431 -950 1 -950 0 -340 -426z m2182 182 c13 -3 39 -20 60
-38 41 -36 532 -645 605 -751 46 -66 48 -73 48 -136 0 -118 193 -105 -1599
-108 -1504 -2 -1557 -2 -1591 17 -31 16 -35 24 -38 61 -2 24 -1 54 2 67 11 41
115 184 354 483 262 327 315 388 353 404 27 11 1759 12 1806 1z M5000 3209
c-87 -44 -92 -48 -60 -48 48 -1 178 75 159 93 -2 2 -47 -18 -99 -45z M7800
3238 c35 -33 68 -52 118 -68 73 -23 55 -6 -46 44 -71 35 -90 41 -72 24z M8085
3078 c3 -18 19 -244 35 -503 16 -258 32 -493 35 -521 l6 -51 -53 -15 c-158
-46 -494 -152 -501 -159 -5 -4 40 -87 100 -185 60 -99 167 -274 237 -391 l127
-212 -192 -287 c-105 -158 -213 -318 -240 -355 l-49 -69 1371 0 1370 0 -4 657
c-5 689 -4 687 -52 873 -134 529 -543 973 -1062 1153 -225 79 -379 97 -821 97
l-313 0 6 -32z m905 -211 c246 -55 462 -157 644 -306 215 -176 370 -398 452
-648 l34 -104 0 -650 0 -650 -1076 3 c-1053 3 -1076 3 -1090 22 -19 27 -12 44
68 169 38 60 86 143 106 185 33 69 37 86 37 157 0 78 -2 83 -62 205 -34 69
-93 178 -132 243 -39 65 -78 134 -87 155 -26 63 -16 74 94 110 149 49 205 91
270 205 22 38 22 44 22 489 l0 450 303 -5 c277 -4 312 -7 417 -30z M5410 340
c-10 -6 67 -10 228 -10 160 0 241 3 237 10 -8 13 -445 13 -465 0z M6990 340
c-10 -6 72 -9 240 -9 143 1 244 5 230 9 -36 12 -452 12 -470 0z"/>
</g>
</svg>
