<?xml version="1.0" standalone="no"?>
<!DOCTYPE svg PUBLIC "-//W3C//DTD SVG 20010904//EN"
 "http://www.w3.org/TR/2001/REC-SVG-20010904/DTD/svg10.dtd">
<svg version="1.0" xmlns="http://www.w3.org/2000/svg"
 width="2048.000000pt" height="2048.000000pt" viewBox="0 0 2048.000000 2048.000000"
 preserveAspectRatio="xMidYMid meet">
<metadata>
Created by potrace 1.13, written by Peter Selinger 2001-2015
</metadata>
<g transform="translate(0.000000,2048.000000) scale(0.192120,-0.192120)"
fill="#000000" stroke="none">
<path d="M6105 9350 c-863 -86 -1521 -456 -1910 -1075 -228 -362 -326 -769
-297 -1233 20 -317 64 -527 147 -698 64 -133 133 -187 194 -154 24 12 35 42
70 190 103 435 314 826 596 1105 44 44 99 95 122 113 l41 32 59 -48 c170 -142
384 -288 520 -356 213 -107 332 -112 388 -16 16 28 20 52 20 126 l-1 91 144
-134 c279 -259 440 -373 529 -373 88 0 70 164 -46 414 -23 49 -39 91 -37 93 2
2 19 -9 37 -25 145 -124 371 -212 716 -276 208 -39 562 -76 732 -76 l76 0 213
-420 c229 -449 262 -500 323 -500 44 0 63 13 97 67 84 133 136 438 148 878 12
394 -37 626 -196 945 -279 557 -802 991 -1455 1205 -134 45 -293 81 -475 110
-123 20 -609 29 -755 15z m728 -294 c537 -77 1007 -296 1360 -635 228 -219
383 -454 474 -718 l38 -108 3 -447 c2 -373 0 -452 -12 -475 l-14 -27 -29 31
c-16 17 -69 107 -117 199 -98 188 -117 216 -193 291 -57 56 -122 98 -175 113
-18 6 -118 17 -223 25 -450 36 -714 89 -1010 205 -166 65 -226 73 -288 36 -25
-14 -70 -53 -99 -86 -80 -88 -92 -88 -208 -1 -126 95 -208 136 -256 128 -32
-5 -113 -58 -156 -100 -31 -32 -84 -57 -118 -57 -51 0 -155 53 -305 155 -271
185 -320 216 -369 230 -64 19 -86 19 -144 -3 -129 -49 -298 -206 -462 -427
-92 -125 -138 -201 -225 -372 -41 -81 -83 -158 -93 -171 -16 -20 -19 -21 -37
-8 -19 14 -20 29 -23 357 -3 290 -1 354 13 418 138 626 644 1129 1355 1344
191 58 421 100 660 121 104 9 550 -3 653 -18z M3841 6409 c-43 -66 -76 -149
-103 -257 -18 -70 -22 -118 -22 -242 -1 -158 8 -219 46 -340 61 -194 186 -339
331 -384 11 -4 17 -16 17 -36 0 -46 46 -274 84 -411 51 -184 120 -363 212
-548 188 -379 463 -719 761 -939 l63 -47 0 -177 0 -176 108 -80 c235 -173 829
-592 945 -665 35 -22 47 -15 47 29 0 101 -93 172 -619 470 -90 50 -301 197
-339 235 -46 46 -86 121 -98 184 l-7 39 64 -56 c256 -223 522 -333 899 -369
148 -14 410 -7 555 16 286 44 516 146 728 324 l100 84 -7 -39 c-13 -76 -67
-165 -131 -217 -89 -72 -229 -162 -425 -272 -401 -225 -490 -297 -490 -396 0
-28 5 -49 10 -49 19 0 482 320 853 588 l227 165 0 181 0 181 83 60 c187 136
462 444 608 680 201 324 354 726 413 1085 9 52 19 110 22 128 3 19 11 32 20
32 20 0 91 37 132 68 45 35 115 130 153 210 99 211 117 520 42 757 -14 44 -37
103 -52 130 l-26 50 -6 -320 c-3 -176 -11 -344 -17 -373 -22 -107 -116 -267
-194 -333 -50 -41 -117 -125 -147 -185 -21 -41 -29 -69 -71 -243 -12 -52 -26
-102 -30 -110 -9 -17 -67 -190 -125 -370 -36 -116 -119 -291 -196 -417 -82
-136 -297 -384 -483 -559 -142 -133 -171 -178 -171 -264 l0 -55 -70 -48 c-105
-71 -298 -163 -448 -213 -223 -74 -412 -105 -643 -105 -392 0 -777 112 -1091
316 l-83 54 0 55 c0 89 -37 143 -190 280 -401 359 -678 865 -809 1475 -43 197
-61 231 -197 365 -93 91 -119 123 -148 184 -55 115 -57 141 -54 550 2 204 3
371 3 371 0 0 -15 -23 -34 -51z M5234 6424 c-58 -21 -120 -77 -152 -138 -27
-51 -27 -52 -27 -261 0 -235 4 -250 72 -326 59 -65 104 -84 203 -84 75 0 91 3
131 27 54 32 102 83 126 136 15 31 18 69 18 247 0 209 0 210 -27 261 -66 126
-213 185 -344 138z M7464 6428 c-60 -20 -127 -80 -159 -143 l-30 -59 0 -200
c0 -200 0 -201 28 -258 50 -102 142 -158 256 -158 107 1 213 76 251 178 17 46
20 78 20 236 0 211 -8 249 -72 321 -56 63 -107 87 -193 91 -38 2 -84 -2 -101
-8z M6160 5249 c-44 -18 -90 -59 -112 -102 -26 -51 -29 -137 -5 -183 21 -40
89 -101 124 -111 16 -5 143 -8 283 -8 l255 0 47 28 c113 66 139 211 56 311
-59 71 -79 76 -368 75 -143 0 -266 -5 -280 -10z M5570 4490 c-115 -11 -459
-88 -505 -113 -104 -57 -108 -206 -7 -271 67 -44 90 -43 298 20 104 31 195 59
201 61 9 3 6 -10 -7 -38 -24 -55 -25 -93 -1 -144 22 -48 44 -69 94 -90 71 -29
104 -21 271 65 85 44 159 80 165 80 6 0 11 -11 11 -24 0 -59 94 -136 167 -136
54 0 113 30 143 72 26 35 29 37 35 18 20 -64 86 -100 161 -86 47 9 111 68 126
117 6 21 13 39 14 39 2 0 76 -36 165 -80 119 -59 171 -80 200 -80 129 0 214
127 164 247 -19 45 -19 47 3 38 9 -3 98 -31 197 -61 196 -60 226 -62 286 -21
50 34 72 71 77 129 3 44 0 59 -20 88 -41 61 -72 73 -309 125 l-224 49 -815 2
c-448 1 -849 -2 -890 -6z M1855 4220 c-54 -21 -114 -74 -151 -131 -19 -30 -29
-37 -66 -41 -51 -6 -674 -238 -737 -275 -41 -24 -46 -25 -102 -13 -120 26
-227 -8 -308 -95 -113 -123 -150 -362 -91 -590 29 -111 117 -286 184 -367 160
-193 374 -271 527 -193 42 22 104 80 130 121 11 19 27 34 36 34 8 0 56 14 105
30 50 17 92 29 93 28 3 -3 371 -981 518 -1376 79 -211 105 -272 117 -268 8 3
101 31 207 63 105 32 194 61 197 64 5 5 -310 850 -573 1538 -29 74 -48 137
-44 141 4 4 31 15 58 25 28 10 69 29 93 43 39 22 47 24 81 13 65 -19 160 -14
216 13 143 66 213 196 222 411 11 259 -81 501 -261 681 -111 110 -202 156
-319 161 -64 2 -93 -1 -132 -17z m219 -148 c204 -96 344 -323 363 -586 10
-143 -41 -294 -128 -377 -35 -34 -145 -97 -154 -88 -2 2 17 29 42 59 53 63
106 168 128 255 49 190 -13 404 -159 549 -103 103 -260 175 -381 176 -49 1
-33 13 47 35 75 21 166 13 242 -23z m-118 -315 c59 -30 120 -86 134 -123 6
-14 10 -85 10 -157 0 -170 -6 -182 -126 -261 -100 -66 -213 -176 -275 -267
-22 -33 -47 -63 -54 -65 -8 -3 -29 2 -48 11 -41 19 -70 79 -93 195 -34 173
-54 233 -131 400 -19 41 -37 90 -40 107 -5 31 -3 34 43 54 27 11 128 48 224
80 158 55 181 60 240 56 44 -3 82 -13 116 -30z m-905 -145 c218 -203 330 -584
248 -840 -10 -30 -14 -33 -38 -28 -71 17 -152 18 -227 2 -95 -19 -123 -13
-194 39 -66 48 -122 121 -173 224 l-42 84 -4 159 c-3 174 1 193 58 222 16 9
31 23 33 34 3 10 21 23 44 30 48 14 85 48 130 119 l35 54 31 -18 c18 -10 62
-46 99 -81z M5031 2893 c-46 -48 -97 -123 -83 -123 12 0 56 32 70 52 7 9 20
24 29 33 9 9 26 32 39 51 36 53 0 45 -55 -13z M7790 2920 c15 -28 129 -140
142 -140 23 0 -73 125 -113 145 -37 20 -42 19 -29 -5z M4430 2549 c-399 -5
-443 -8 -535 -28 -524 -116 -933 -429 -1165 -890 -47 -95 -119 -290 -135 -368
l-6 -33 93 6 c189 12 354 -51 492 -189 123 -123 143 -168 281 -659 l16 -58
3430 0 3429 0 0 323 c0 417 -14 537 -86 757 -173 527 -618 946 -1152 1086
-181 47 -267 54 -694 54 l-396 0 -27 -82 c-115 -350 -341 -800 -549 -1093
-137 -194 -334 -421 -445 -514 l-50 -42 -41 78 c-22 43 -49 94 -61 113 l-22
35 79 135 c49 83 93 174 114 235 l34 100 12 -40 c17 -54 17 -78 -1 -101 -8
-10 -15 -24 -15 -31 0 -6 39 -37 87 -70 66 -44 87 -55 91 -43 3 8 22 31 43 50
28 27 35 39 28 51 -12 23 -255 240 -385 345 -115 92 -297 224 -395 287 l-57
36 -118 -81 c-232 -158 -482 -359 -659 -531 l-80 -77 33 -20 c18 -11 38 -31
44 -45 6 -14 14 -25 18 -25 8 0 149 96 168 114 10 10 10 18 -3 42 -18 34 -18
57 -1 104 l13 35 17 -60 c25 -84 63 -164 140 -294 36 -62 66 -115 66 -118 0
-3 -18 -26 -41 -51 -23 -26 -54 -73 -70 -105 l-30 -58 -48 41 c-178 150 -455
506 -626 804 -129 226 -276 549 -347 764 -17 53 -36 102 -42 107 -7 7 -161 8
-446 4z m264 -320 c30 -24 52 -63 112 -199 55 -127 169 -353 239 -476 100
-174 156 -258 289 -429 157 -202 223 -279 325 -379 50 -49 91 -92 91 -96 0 -4
-7 -14 -17 -21 -13 -11 -101 -15 -457 -17 l-442 -3 -21 44 c-11 24 -33 106
-48 183 -38 195 -88 287 -195 358 -37 25 -85 20 -134 -13 -105 -72 -160 -168
-202 -350 -44 -191 -66 -221 -158 -221 -89 0 -107 25 -136 188 -34 189 -62
261 -127 329 -61 63 -92 83 -132 83 -41 -1 -54 -8 -134 -69 -45 -34 -62 -42
-82 -37 -14 4 -67 50 -118 102 -103 107 -176 163 -287 220 -41 21 -78 43 -82
48 -28 40 14 130 119 259 228 278 575 462 960 506 37 5 190 9 339 10 261 1
272 0 298 -20z m4124 11 c387 -42 742 -230 961 -508 104 -131 152 -220 214
-392 l31 -85 4 -322 3 -323 -240 0 -240 0 -25 43 c-13 23 -34 89 -46 147 -42
201 -101 316 -196 379 -77 51 -119 41 -215 -54 -65 -63 -94 -132 -128 -295
-21 -100 -38 -154 -56 -181 l-25 -39 -70 0 -69 0 -25 43 c-15 25 -38 97 -55
172 -43 193 -90 279 -195 356 -61 45 -98 40 -177 -24 -63 -53 -109 -120 -130
-190 -6 -18 -21 -85 -34 -150 -15 -74 -33 -135 -50 -163 l-26 -44 -417 1
c-229 1 -428 4 -442 8 -47 13 -36 38 67 144 132 137 329 379 440 542 105 153
283 479 356 651 65 152 119 254 144 274 24 19 40 20 285 20 142 0 302 -5 356
-10z m-2323 -570 c14 -5 29 -18 33 -29 4 -10 41 -43 82 -73 143 -102 140 -100
140 -132 0 -17 -29 -88 -67 -166 -66 -131 -68 -137 -68 -212 0 -68 3 -81 30
-120 38 -54 134 -105 220 -116 l60 -7 -70 -58 c-91 -76 -227 -166 -332 -220
l-83 -42 -77 40 c-97 49 -256 155 -348 232 l-70 58 61 7 c83 9 156 42 199 90
45 49 55 75 55 146 0 64 -19 121 -85 252 -25 49 -45 101 -45 115 0 20 20 40
103 101 56 42 105 85 109 95 15 40 96 61 153 39z m-2784 -627 c25 -65 57 -303
75 -546 l6 -99 -63 32 c-57 29 -68 32 -121 26 l-58 -7 0 35 c0 61 40 347 61
436 31 134 75 187 100 123z m834 -6 c27 -65 75 -434 75 -577 l0 -59 -52 24
c-29 14 -60 25 -68 25 -8 0 -39 -11 -67 -25 l-53 -24 0 54 c0 135 59 482 95
563 28 61 50 67 70 19z m3857 -3 c36 -62 84 -321 103 -552 l7 -84 -43 23 c-66
33 -104 30 -202 -19 -14 -7 22 390 49 536 25 136 48 162 86 96z m833 7 c37
-73 86 -338 102 -550 l6 -91 -54 25 c-66 31 -71 31 -136 0 l-53 -24 0 64 c0
160 55 559 81 591 18 22 37 17 54 -15z M1957 984 c-98 -77 -178 -202 -214
-336 -18 -66 -24 -241 -10 -291 l7 -27 808 0 807 1 -55 35 c-30 20 -82 49
-115 65 l-60 29 -571 0 c-488 0 -573 2 -577 14 -3 8 -22 16 -44 18 l-38 3 0
90 0 90 64 103 c53 84 65 111 69 155 2 28 0 62 -5 74 -8 22 -10 22 -66 -23z"/>
</g>
</svg>
