<?xml version="1.0" standalone="no"?>
<!DOCTYPE svg PUBLIC "-//W3C//DTD SVG 20010904//EN"
 "http://www.w3.org/TR/2001/REC-SVG-20010904/DTD/svg10.dtd">
<svg version="1.0" xmlns="http://www.w3.org/2000/svg"
 width="2048.000000pt" height="2048.000000pt" viewBox="0 0 2048.000000 2048.000000"
 preserveAspectRatio="xMidYMid meet">
<metadata>
Created by potrace 1.13, written by Peter Selinger 2001-2015
</metadata>
<g transform="translate(0.000000,2048.000000) scale(0.192120,-0.192120)"
fill="#000000" stroke="none">
<path d="M5000 10320 c-561 -39 -1063 -152 -1520 -343 -804 -335 -1326 -862
-1457 -1470 -25 -116 -25 -409 0 -525 60 -274 164 -470 404 -762 l22 -27 -34
-106 c-67 -212 -122 -513 -146 -807 -16 -189 -16 -1330 0 -1660 45 -954 159
-1485 362 -1689 74 -74 108 -86 229 -85 178 3 375 56 860 232 129 47 312 109
405 138 l170 52 0 31 c0 17 0 31 0 31 0 0 33 -31 72 -69 120 -118 284 -214
453 -264 137 -41 244 -58 415 -64 442 -16 773 89 1012 322 l83 80 0 -37 c0
-32 4 -38 33 -47 17 -5 93 -29 167 -52 74 -23 257 -86 405 -140 310 -112 464
-160 603 -189 517 -105 689 74 756 790 31 320 39 675 40 1620 1 707 -2 976
-12 1070 -26 256 -77 522 -134 699 l-30 94 45 46 c206 215 357 480 423 745 36
140 44 378 19 527 -35 212 -133 442 -273 639 -94 134 -327 365 -484 481 -532
394 -1238 643 -2048 724 -185 18 -665 27 -840 15z m-650 -413 c-1 -18 -7 -43
-15 -57 -10 -18 -14 -59 -14 -140 l-1 -115 45 -84 c25 -45 45 -89 45 -96 0
-24 -46 -43 -171 -70 -267 -57 -542 -135 -769 -218 -368 -133 -606 -250 -681
-333 -43 -48 -79 -107 -79 -132 0 -12 -7 -25 -15 -28 -12 -5 -15 -28 -15 -120
0 -107 -1 -114 -20 -114 -17 0 -20 -7 -20 -45 0 -42 -2 -46 -40 -65 -62 -32
-163 -133 -198 -199 -27 -50 -32 -69 -32 -127 0 -59 5 -78 35 -134 39 -72 44
-105 16 -119 -26 -14 -68 29 -77 78 -4 20 -14 52 -24 71 -10 19 -28 70 -40
112 -20 72 -21 95 -18 320 4 234 5 246 31 318 192 530 836 1008 1687 1249 168
48 352 90 363 84 4 -2 7 -19 7 -36z m2185 -9 c499 -123 983 -349 1305 -607
206 -164 391 -389 473 -571 67 -150 69 -162 65 -482 l-3 -293 -37 -77 c-21
-42 -38 -87 -38 -100 0 -29 -60 -122 -81 -126 -21 -4 -49 24 -49 47 0 10 18
45 40 77 22 33 40 63 40 67 0 5 9 20 20 34 31 40 28 150 -5 203 -14 22 -25 44
-25 50 0 24 -146 156 -193 176 -45 18 -47 20 -47 60 0 28 -5 44 -15 48 -12 4
-15 27 -15 116 0 67 -4 110 -10 110 -5 0 -10 11 -10 25 0 14 -4 25 -10 25 -5
0 -10 8 -10 18 0 22 -63 99 -117 143 -115 92 -539 270 -902 379 -148 44 -245
69 -549 140 -87 20 -112 33 -112 56 0 8 19 54 42 102 39 79 43 95 46 177 3 73
0 101 -17 145 -12 30 -21 68 -21 83 0 27 2 28 38 21 20 -3 109 -24 197 -46z
m-1752 -2 c18 -7 44 -25 59 -40 23 -23 38 -28 100 -33 99 -7 228 18 276 55 31
24 44 27 111 27 67 0 81 -3 117 -28 57 -38 168 -60 268 -53 67 5 82 9 105 32
36 37 81 54 141 54 115 0 200 -87 200 -205 0 -106 -67 -187 -170 -204 l-35 -6
-7 -133 c-26 -502 -237 -840 -563 -903 -138 -26 -335 65 -450 209 -132 166
-209 408 -222 695 -6 136 -6 137 -30 137 -32 0 -93 26 -121 53 -83 77 -83 229
0 303 58 53 151 70 221 40z m-116 -670 c-23 -58 -47 -154 -47 -184 0 -57 29
-160 70 -249 94 -203 211 -322 435 -443 52 -28 95 -55 95 -60 0 -32 -72 -34
-1145 -38 -588 -1 -1072 -6 -1075 -10 -12 -16 -151 -82 -160 -77 -6 4 -10 105
-10 253 l0 247 78 42 c379 205 1012 416 1492 497 234 40 275 44 267 22z m1472
-2 c500 -73 1058 -245 1519 -470 l172 -84 0 -260 c0 -143 -4 -260 -8 -260 -4
0 -12 4 -18 9 -15 16 -132 71 -148 71 -9 0 -16 5 -16 10 0 7 -344 10 -1012 10
-1040 0 -1188 5 -1188 41 0 5 33 25 73 45 92 47 219 129 279 183 89 79 185
236 230 376 30 96 29 180 -6 269 -14 37 -26 70 -26 72 0 7 42 4 149 -12z
m1890 -1132 c99 -50 105 -177 12 -239 l-34 -23 -2677 0 -2677 0 -34 23 c-93
62 -87 189 12 239 32 17 182 18 2699 18 2517 0 2667 -1 2699 -18z m-5272 -381
c213 -206 954 -365 1958 -422 240 -13 970 -13 1220 1 958 52 1654 191 1928
386 26 19 49 34 50 34 2 0 40 -75 85 -167 72 -151 142 -325 142 -356 0 -7 -24
-25 -54 -40 -29 -15 -59 -40 -67 -54 -19 -35 -16 -142 6 -218 18 -64 32 -295
21 -340 -6 -25 -9 -24 -82 54 -91 97 -173 154 -261 181 -116 36 -197 25 -337
-45 -106 -54 -140 -56 -216 -15 -251 137 -444 211 -640 244 -127 21 -301 36
-430 36 -255 0 -614 54 -1099 166 -107 24 -199 43 -204 41 -26 -8 348 -162
559 -230 265 -85 466 -121 749 -132 94 -3 219 -13 279 -21 321 -44 630 -168
833 -334 l72 -59 37 50 c44 60 124 123 183 144 56 19 146 19 202 0 181 -64
322 -314 348 -614 18 -197 -16 -389 -94 -548 -101 -205 -259 -306 -421 -269
-31 7 -31 6 -38 -36 -12 -72 -73 -281 -123 -416 -62 -168 -209 -458 -307 -605
-377 -563 -901 -915 -1487 -1001 -134 -20 -400 -20 -534 -1 -447 64 -860 283
-1203 639 -326 340 -570 787 -697 1281 l-33 130 -68 2 c-407 11 -603 790 -313
1248 81 128 184 197 306 203 61 4 80 0 130 -22 34 -16 82 -50 114 -83 l57 -55
133 108 c74 59 163 132 199 163 82 71 510 492 510 502 0 4 -32 -3 -71 -16
-169 -58 -287 -133 -469 -300 -120 -111 -241 -201 -279 -210 -20 -4 -52 3
-108 25 -110 43 -196 57 -271 43 -133 -25 -267 -122 -364 -263 -32 -47 -63
-87 -69 -89 -8 -2 -10 49 -6 180 3 158 8 201 32 299 47 192 37 250 -51 293
-54 26 -54 29 2 171 28 71 182 386 189 386 1 0 24 -22 52 -49z m3246 -138 c96
-5 127 -9 127 -20 0 -10 -19 -13 -78 -13 -49 0 -83 -5 -90 -12 -10 -10 -141
-13 -584 -13 -448 0 -572 3 -575 13 -3 7 -23 12 -54 12 -36 0 -49 4 -49 14 0
11 15 16 53 19 96 6 1120 7 1250 0z m-3451 -2194 c20 -30 37 -58 37 -62 1 -5
22 -37 47 -73 66 -93 155 -169 251 -215 46 -22 90 -50 99 -64 8 -13 42 -97 74
-187 83 -232 190 -468 276 -610 166 -273 312 -458 508 -645 98 -93 111 -117
78 -145 -9 -8 -100 -42 -202 -75 -102 -34 -266 -92 -365 -131 -318 -124 -497
-142 -590 -61 -125 110 -213 453 -270 1043 -11 121 -15 294 -15 716 0 306 3
560 7 564 13 12 28 0 65 -55z m5536 -1029 c-4 -747 -4 -768 -26 -879 -47 -235
-97 -337 -189 -382 -44 -22 -60 -24 -193 -24 -167 1 -182 4 -424 101 -182 73
-319 119 -420 140 -111 23 -186 65 -186 105 0 9 52 68 116 131 195 190 352
392 486 628 117 206 168 317 258 565 92 253 93 253 165 271 90 22 193 92 268
182 63 76 61 73 82 107 10 17 28 41 39 53 l21 24 3 -129 c1 -70 1 -472 0 -893z
M4302 6056 c-63 -21 -107 -59 -137 -120 -26 -53 -26 -56 -23 -239 l3 -185 30
-43 c106 -151 321 -138 408 25 20 38 22 54 22 221 0 196 -4 214 -64 278 -57
62 -159 89 -239 63z M6180 6055 c-59 -19 -113 -65 -139 -118 -19 -39 -21 -61
-21 -220 0 -192 5 -216 55 -275 85 -102 253 -104 347 -5 49 51 61 96 66 244 5
164 -7 233 -51 291 -59 77 -167 112 -257 83z M4998 4881 c-29 -25 -32 -35 -36
-95 -3 -50 0 -72 12 -91 36 -55 42 -56 334 -56 174 0 277 3 290 10 44 24 62
60 62 128 0 61 -2 67 -34 99 l-34 34 -281 0 -281 0 -32 -29z M4642 4339 c-66
-33 -97 -87 -97 -169 0 -54 5 -73 24 -101 53 -77 208 -172 366 -223 322 -105
722 -55 981 122 132 90 171 176 125 277 -54 120 -190 148 -302 63 -67 -50
-153 -92 -239 -115 -91 -24 -311 -24 -399 0 -86 23 -177 65 -228 104 -90 69
-153 80 -231 42z M4300 3115 c0 -116 1 -125 19 -125 32 0 81 54 81 89 0 57
-39 129 -82 152 -17 9 -18 1 -18 -116z M6287 3210 c-57 -45 -85 -159 -51 -209
14 -19 69 -51 89 -51 3 0 5 63 5 140 0 77 -4 140 -9 140 -4 0 -20 -9 -34 -20z
M3953 3089 c-40 -26 -116 -126 -151 -200 l-26 -56 -186 -8 c-236 -9 -228 -9
-276 5 -39 13 -55 9 -674 -183 -348 -109 -644 -204 -658 -213 -13 -9 -33 -36
-44 -61 l-20 -45 38 -119 38 -119 -21 -22 c-95 -106 -198 -321 -245 -518 -20
-80 -21 -121 -25 -652 l-4 -568 3613 0 3614 0 -3 398 c-6 730 -7 765 -36 872
-43 157 -115 310 -208 436 l-38 52 35 96 c18 53 34 116 34 139 0 50 -28 101
-67 120 -15 8 -309 101 -653 207 -609 188 -625 193 -665 180 -48 -15 -53 -15
-268 -5 l-167 8 -20 43 c-54 123 -174 251 -213 228 -7 -4 -37 -29 -67 -55
-111 -94 -415 -313 -895 -646 -160 -111 -302 -211 -315 -222 l-25 -20 35 0
c78 0 229 18 284 34 43 12 117 56 275 163 295 199 427 287 551 366 l105 68 58
-6 c32 -3 64 -9 70 -13 17 -11 35 -14 106 -20 l64 -6 -6 -76 c-21 -268 -355
-1479 -413 -1498 -6 -2 -49 41 -97 96 -179 204 -464 464 -717 655 -140 106
-325 236 -336 236 -11 0 -277 -187 -389 -275 -188 -146 -349 -291 -546 -492
-141 -145 -189 -201 -189 -219 0 -13 5 -24 12 -24 33 0 256 142 453 289 l120
89 21 -46 c11 -26 52 -99 89 -162 l68 -114 -22 -36 c-90 -147 -175 -358 -227
-561 -21 -79 -41 -148 -45 -153 -5 -5 -33 8 -66 31 -115 80 20 73 -1343 73
-1078 0 -1220 2 -1220 15 0 11 -11 15 -40 15 l-41 0 3 498 3 497 32 65 c48 99
76 120 165 130 101 12 184 34 539 144 167 52 356 108 419 124 226 58 342 116
450 226 30 31 59 56 65 56 22 0 48 -73 110 -309 98 -379 176 -634 215 -711 45
-87 152 -170 199 -155 19 6 18 7 -4 48 -93 167 -373 1207 -401 1487 l-6 65 48
-3 c35 -2 70 5 123 26 72 28 74 28 121 13 64 -21 245 -131 411 -249 238 -169
443 -305 494 -327 65 -29 136 -43 260 -50 l100 -6 -29 23 c-17 13 -165 117
-330 232 -443 308 -706 497 -837 602 -65 52 -121 94 -125 94 -5 0 -23 -10 -41
-21z m-709 -403 c18 -8 46 -31 62 -52 24 -31 29 -47 29 -94 0 -47 -5 -63 -29
-94 -32 -43 -78 -66 -131 -66 -74 0 -144 62 -152 134 -7 58 1 87 34 127 47 56
119 73 187 45z m4304 -13 c51 -38 67 -70 67 -133 0 -44 -5 -66 -21 -87 -74
-100 -201 -98 -271 6 -52 77 -13 192 77 230 37 16 117 7 148 -16z m-4053 -190
c17 -64 4 -113 -37 -148 -16 -14 -75 -38 -131 -56 -56 -17 -199 -61 -317 -99
-494 -157 -838 -260 -866 -260 -34 0 -88 31 -103 58 -9 17 -3 26 42 65 57 49
97 113 97 158 0 18 5 29 14 29 8 0 17 10 20 23 4 14 24 31 54 45 54 26 442
134 487 136 38 2 73 -15 152 -71 89 -63 160 -86 248 -80 83 5 148 32 204 82
60 55 75 104 68 228 l-7 102 31 -80 c17 -44 37 -103 44 -132z m3719 113 c-9
-123 -2 -154 47 -209 60 -68 134 -101 234 -101 99 -1 153 18 244 87 104 80
110 80 264 36 73 -20 190 -53 261 -73 72 -20 132 -40 135 -44 3 -5 14 -11 24
-15 9 -3 17 -15 17 -26 0 -10 7 -21 15 -25 8 -3 15 -15 15 -27 0 -54 26 -106
77 -156 46 -46 52 -56 43 -73 -14 -26 -61 -50 -98 -50 -27 0 -352 98 -877 265
-110 35 -247 78 -305 95 -116 35 -154 62 -171 121 -10 33 -7 50 31 163 23 69
44 126 46 126 2 0 1 -42 -2 -94z m-126 -352 c94 -88 230 -149 452 -204 47 -12
236 -68 420 -125 184 -57 382 -113 439 -125 121 -24 128 -27 170 -76 38 -42
45 -59 79 -179 25 -89 25 -96 29 -517 4 -427 4 -428 -16 -428 -12 0 -21 -7
-21 -15 0 -13 -149 -15 -1227 -18 -812 -2 -1242 -7 -1270 -14 -22 -5 -69 -29
-102 -51 -33 -23 -64 -42 -69 -42 -4 0 -18 39 -31 88 -39 142 -129 397 -190
537 l-57 131 54 89 c67 110 107 185 114 213 6 20 20 12 165 -89 167 -117 374
-251 419 -271 22 -10 28 -10 32 0 2 6 17 12 34 12 71 0 148 82 198 211 40 104
128 405 191 649 52 206 64 244 85 264 22 22 44 14 102 -40z m-1632 -319 c143
-74 274 -209 274 -282 0 -74 -94 -319 -143 -371 -40 -43 -55 -46 -252 -48
-210 -2 -223 1 -264 61 -30 45 -64 129 -97 243 l-26 93 30 62 c32 64 124 165
195 213 111 75 180 82 283 29z m32 -866 c61 -29 158 -127 207 -208 39 -65 125
-264 125 -291 0 -13 -52 -15 -422 -12 -337 2 -437 0 -490 -11 -38 -8 -68 -13
-68 -11 0 2 10 32 21 66 31 91 102 230 154 303 129 181 308 243 473 164z"/>
</g>
</svg>
