<?xml version="1.0" standalone="no"?>
<!DOCTYPE svg PUBLIC "-//W3C//DTD SVG 20010904//EN"
 "http://www.w3.org/TR/2001/REC-SVG-20010904/DTD/svg10.dtd">
<svg version="1.0" xmlns="http://www.w3.org/2000/svg"
 width="2048.000000pt" height="2048.000000pt" viewBox="0 0 2048.000000 2048.000000"
 preserveAspectRatio="xMidYMid meet">
<metadata>
Created by potrace 1.13, written by Peter Selinger 2001-2015
</metadata>
<g transform="translate(0.000000,2048.000000) scale(0.192120,-0.192120)"
fill="#000000" stroke="none">
<path d="M7143 10051 c-145 -77 -296 -186 -428 -311 l-50 -47 -155 -12 c-835
-66 -1716 -335 -2416 -736 -339 -195 -617 -422 -685 -561 -28 -57 -30 -65 -19
-105 7 -24 26 -57 45 -76 l33 -33 107 0 c58 0 115 -5 125 -10 20 -11 36 -55
45 -131 11 -91 103 -188 192 -205 18 -3 35 -10 38 -14 2 -4 -5 -38 -16 -76
-56 -195 -78 -452 -60 -714 21 -300 66 -511 146 -676 64 -133 133 -187 194
-154 24 12 35 43 65 171 104 445 316 842 601 1124 44 44 99 94 121 112 l41 32
94 -75 c345 -276 626 -427 766 -411 59 6 91 30 115 85 17 39 20 58 15 125 l-6
78 127 -120 c280 -263 459 -391 550 -391 89 0 71 159 -49 419 -22 46 -38 85
-37 87 2 1 32 -20 68 -47 108 -83 294 -163 497 -214 211 -53 566 -100 837
-111 l162 -7 214 -421 c229 -449 259 -496 321 -496 43 0 65 15 95 62 86 136
138 445 150 888 6 207 0 329 -22 439 -6 30 -6 31 24 25 111 -22 210 80 243
249 8 38 18 61 28 64 140 43 230 152 262 317 20 108 2 325 -37 443 -141 428
-689 792 -1454 968 -247 57 -471 89 -699 101 -73 4 -128 11 -124 15 19 18 153
88 218 114 86 33 105 50 105 88 0 63 -140 156 -264 175 -52 8 -59 7 -123 -27z
m-7 -454 c122 -113 170 -132 464 -176 451 -69 743 -153 1045 -302 152 -75 303
-172 321 -206 5 -12 35 -42 65 -67 77 -63 157 -160 190 -231 29 -60 29 -60 29
-260 l-1 -200 -27 -37 c-15 -20 -63 -78 -106 -130 -109 -128 -166 -259 -166
-380 0 -56 4 -55 -120 -33 -219 39 -451 60 -1305 120 -357 25 -882 63 -1165
85 -792 60 -900 65 -1460 65 -469 0 -651 -7 -850 -31 l-45 -5 -1 108 c0 99 -3
115 -32 184 -24 56 -55 101 -117 174 -54 62 -85 107 -85 121 0 26 42 63 178
154 45 30 81 62 82 70 0 38 494 298 796 419 516 207 1004 327 1599 395 236 27
284 41 391 113 38 26 97 63 132 84 56 33 67 36 98 27 19 -5 60 -32 90 -61z
m-2510 -2001 c8 -21 -14 -58 -120 -205 -98 -136 -157 -232 -221 -361 -39 -78
-70 -120 -90 -120 -20 0 -25 63 -25 338 0 266 6 316 40 337 15 9 178 21 313
24 76 1 99 -2 103 -13z m1283 -30 c35 -36 -65 -116 -126 -102 -27 7 -116 59
-140 83 -7 6 -13 16 -13 21 0 19 25 22 145 17 82 -4 124 -10 134 -19z m581
-36 c27 -15 25 -46 -6 -75 -22 -20 -30 -22 -52 -14 -36 13 -82 58 -82 79 0 13
12 17 60 19 33 1 69 -3 80 -9z m1392 -95 c350 -25 713 -58 776 -71 l32 -6 0
-293 c0 -162 -3 -300 -6 -309 -9 -23 -39 -20 -56 7 -8 12 -50 88 -93 170 -69
130 -88 158 -166 236 -133 136 -177 154 -449 176 -102 9 -196 17 -210 19 -14
2 -80 12 -147 22 -68 9 -123 21 -123 26 0 4 -11 8 -25 8 -14 0 -25 5 -25 11 0
7 -10 9 -25 5 -17 -4 -25 -2 -25 7 0 22 155 20 542 -8z M5234 6424 c-58 -21
-120 -77 -152 -138 -27 -51 -27 -52 -27 -261 0 -235 4 -250 72 -326 59 -65
104 -84 203 -84 75 0 91 3 131 27 54 32 102 83 126 136 15 31 18 69 18 247 0
209 0 210 -27 261 -66 126 -213 185 -344 138z M7464 6428 c-60 -20 -127 -80
-159 -143 l-30 -59 0 -200 c0 -200 0 -201 28 -258 50 -102 142 -158 256 -158
107 1 213 76 251 178 17 46 20 78 20 236 0 211 -8 249 -72 321 -56 63 -107 87
-193 91 -38 2 -84 -2 -101 -8z M3832 6396 c-37 -62 -71 -151 -94 -244 -18 -70
-22 -117 -22 -242 -1 -158 8 -219 46 -340 61 -194 186 -339 331 -384 11 -4 17
-16 17 -36 0 -46 46 -274 84 -411 104 -378 310 -784 546 -1074 87 -108 258
-278 353 -353 112 -89 113 -89 127 -47 18 56 -18 122 -125 225 -436 423 -693
891 -824 1500 -43 197 -61 231 -197 365 -82 81 -120 126 -143 172 -62 125 -65
143 -71 543 l-5 365 -23 -39z M9057 6229 c-4 -79 -7 -193 -8 -254 0 -60 -4
-130 -9 -155 -4 -25 -13 -71 -19 -103 -19 -109 -112 -270 -193 -338 -50 -41
-117 -125 -147 -185 -21 -41 -29 -69 -71 -243 -12 -52 -26 -102 -30 -110 -9
-17 -67 -190 -125 -370 -36 -116 -119 -291 -196 -417 -79 -131 -285 -371 -481
-559 -108 -104 -126 -126 -138 -167 -7 -28 -10 -65 -6 -88 6 -40 6 -40 -61
-90 -199 -147 -555 -283 -854 -325 -202 -28 -520 -17 -699 24 -79 18 -68 10
35 -25 151 -52 225 -59 455 -46 368 22 570 77 850 232 132 73 198 93 235 73
14 -8 5 -20 -60 -81 -193 -180 -421 -288 -725 -344 -95 -17 -156 -21 -350 -22
l-235 0 -79 47 c-177 108 -520 268 -766 357 -113 41 -151 62 -137 77 7 7 91
-8 132 -23 11 -4 -15 18 -58 49 -43 32 -80 57 -83 57 -2 0 -4 -24 -4 -53 l0
-54 -177 54 c-294 88 -615 153 -935 190 -219 25 -755 25 -958 0 -577 -71
-1059 -249 -1425 -525 -33 -25 -72 -56 -87 -70 -26 -24 -26 -25 -12 -66 22
-60 19 -205 -7 -322 -11 -55 -57 -209 -100 -343 -87 -267 -95 -308 -104 -551
-10 -272 -41 -414 -108 -495 -33 -41 -96 -74 -139 -75 -16 0 -28 -4 -28 -9 0
-37 142 -347 222 -484 l39 -67 4459 0 4460 0 0 323 c0 417 -14 537 -86 757
-185 565 -663 986 -1261 1112 -104 22 -129 23 -720 26 l-613 3 0 282 c0 155 3
305 7 332 6 49 8 52 82 105 180 130 458 441 602 675 201 324 354 726 413 1085
9 52 19 110 22 128 3 19 11 32 20 32 20 0 91 37 132 68 18 13 52 51 76 83 99
132 154 304 163 510 7 150 -7 259 -48 382 -53 159 -55 159 -62 -4z m-5137
-3089 c138 -10 353 -34 413 -46 16 -3 27 -12 27 -23 0 -13 26 -21 144 -44 168
-31 243 -65 189 -84 -242 -85 -338 -160 -417 -322 -24 -50 -26 -66 -26 -177 0
-126 3 -139 49 -232 148 -302 626 -443 956 -282 92 44 149 98 194 183 30 56
31 61 31 192 0 112 -3 144 -21 191 -28 73 -99 177 -163 237 -28 26 -63 59 -78
73 -26 24 -37 53 -20 55 4 0 16 2 27 4 24 5 109 -18 189 -52 44 -18 61 -21 66
-12 6 8 49 -5 156 -51 451 -190 507 -209 562 -193 20 6 51 17 68 24 29 12 35
9 118 -40 48 -29 137 -89 199 -133 715 -511 1210 -1184 1341 -1823 16 -80 29
-185 23 -185 -2 0 -39 20 -83 45 -43 25 -97 51 -119 58 -31 9 -556 12 -2365
12 l-2325 0 -115 -32 c-181 -51 -277 -64 -455 -65 -177 0 -291 14 -497 62 -73
17 -182 36 -242 41 -185 18 -250 56 -300 176 -31 74 -33 115 -8 151 33 47 90
194 111 283 27 115 40 215 51 390 10 160 19 207 85 409 85 261 145 523 145
630 0 21 7 43 15 50 8 7 15 18 15 24 0 30 131 120 285 196 264 129 316 151
449 190 128 37 202 51 437 84 319 45 596 56 889 36z m1060 -320 c199 -56 377
-204 441 -367 18 -45 23 -78 24 -148 0 -82 -3 -96 -33 -157 -186 -379 -882
-308 -1090 111 -36 72 -37 79 -37 180 0 92 3 112 25 156 55 113 185 207 331
240 85 20 240 12 339 -15z m2440 -213 c0 -18 24 -67 33 -67 4 0 7 -6 7 -13 0
-35 149 -185 217 -218 l48 -24 555 -6 c519 -5 562 -7 663 -28 255 -52 462
-145 642 -289 208 -167 355 -374 436 -617 l34 -100 3 -332 3 -333 -965 0
c-944 0 -966 0 -985 19 -30 30 -45 65 -86 196 -102 329 -271 648 -492 932
-125 160 -251 298 -444 483 -154 148 -180 176 -177 199 2 21 11 28 48 39 128
37 245 80 334 124 104 50 126 57 126 35z M2694 2816 c-246 -47 -401 -237 -364
-448 23 -127 100 -248 213 -334 318 -241 775 -194 910 94 103 220 -46 501
-337 632 -129 58 -295 80 -422 56z m281 -243 c87 -21 187 -78 240 -134 l45
-48 0 -99 c0 -92 -2 -101 -25 -126 -50 -54 -107 -71 -240 -71 -98 0 -133 4
-190 23 -89 29 -201 105 -240 163 -27 39 -30 54 -33 130 l-4 87 34 25 c95 73
250 92 413 50z M6143 1876 c-142 -35 -270 -138 -313 -253 -18 -48 -21 -74 -18
-149 3 -81 8 -100 40 -165 111 -222 355 -363 628 -363 165 0 296 50 386 146
155 166 130 403 -64 595 -59 60 -91 82 -175 122 -56 27 -134 57 -174 65 -85
19 -236 20 -310 2z m302 -246 c97 -25 189 -75 243 -134 l42 -46 0 -91 c0 -90
0 -91 -33 -124 -44 -44 -119 -66 -227 -66 -142 1 -275 49 -367 134 -60 55 -83
105 -83 184 0 52 4 66 23 83 78 75 247 100 402 60z M2143 1425 c-248 -67 -381
-274 -315 -492 105 -343 582 -543 917 -383 226 108 292 364 151 584 -84 130
-249 243 -420 286 -94 24 -254 26 -333 5z m282 -240 c94 -20 204 -75 260 -131
l45 -46 0 -97 c0 -93 -1 -98 -27 -123 -125 -114 -441 -76 -598 73 -64 60 -78
96 -73 189 l3 64 48 30 c86 53 213 68 342 41z M6160 5249 c-44 -18 -90 -59
-112 -102 -26 -51 -29 -137 -5 -183 21 -40 89 -101 124 -111 16 -5 143 -8 283
-8 l255 0 47 28 c113 66 139 211 56 311 -59 71 -79 76 -368 75 -143 0 -266 -5
-280 -10z M5570 4490 c-115 -11 -460 -88 -505 -113 -104 -57 -108 -206 -7
-271 67 -44 90 -43 298 20 104 31 195 59 201 61 9 3 6 -10 -7 -38 -24 -55 -25
-93 -1 -144 22 -48 44 -69 94 -90 71 -29 105 -21 271 65 85 44 160 80 165 80
6 0 11 -11 11 -24 0 -59 94 -136 167 -136 54 0 113 30 143 72 26 35 29 37 35
18 20 -64 86 -100 161 -86 47 9 111 68 126 117 6 21 13 39 14 39 2 0 76 -36
165 -80 119 -59 171 -80 200 -80 129 0 214 127 164 247 -19 45 -19 47 3 38 9
-3 98 -31 197 -61 196 -60 226 -62 286 -21 50 34 72 71 77 129 3 44 0 59 -20
88 -41 61 -72 73 -309 125 l-224 49 -815 2 c-448 1 -849 -2 -890 -6z M1248
2815 c-271 -74 -530 -368 -620 -703 -17 -65 -20 -108 -21 -272 -1 -341 52
-575 169 -752 74 -110 181 -181 294 -195 52 -6 52 -6 45 18 -15 50 -55 106
-111 154 -108 93 -145 144 -198 280 l-31 80 0 360 0 360 44 85 c139 271 330
435 534 461 70 9 190 41 217 58 22 15 -11 46 -68 65 -55 19 -187 20 -254 1z"/>
</g>
</svg>
