<?xml version="1.0" standalone="no"?>
<!DOCTYPE svg PUBLIC "-//W3C//DTD SVG 20010904//EN"
 "http://www.w3.org/TR/2001/REC-SVG-20010904/DTD/svg10.dtd">
<svg version="1.0" xmlns="http://www.w3.org/2000/svg"
 width="2048.000000pt" height="2048.000000pt" viewBox="0 0 2048.000000 2048.000000"
 preserveAspectRatio="xMidYMid meet">
<metadata>
Created by potrace 1.13, written by Peter Selinger 2001-2015
</metadata>
<g transform="translate(0.000000,2048.000000) scale(0.192120,-0.192120)"
fill="#000000" stroke="none">
<path d="M4950 10039 c-835 -63 -1543 -321 -2111 -770 -132 -103 -371 -343
-477 -477 -323 -408 -536 -894 -613 -1404 -61 -401 -16 -1082 93 -1428 l24
-75 27 40 c23 34 27 50 27 114 0 40 -10 128 -22 195 -22 116 -23 143 -23 676
l0 555 37 145 c131 517 385 958 773 1345 377 376 891 662 1465 815 372 100
714 142 1150 143 295 0 437 -10 678 -49 950 -152 1774 -649 2318 -1399 178
-244 293 -467 413 -801 99 -273 101 -293 101 -837 0 -340 -4 -496 -15 -592 -8
-71 -15 -175 -15 -229 0 -92 2 -102 26 -133 15 -19 30 -31 35 -26 4 4 17 60
28 123 67 382 91 1071 47 1355 -157 1007 -939 1951 -1992 2404 -406 175 -814
274 -1278 311 -150 12 -530 11 -696 -1z M3290 7476 c-476 -410 -825 -1033
-996 -1778 -44 -193 -64 -227 -134 -228 -47 0 -90 28 -141 92 -35 45 -100 166
-122 231 -4 9 -11 17 -17 17 -6 0 -53 -42 -104 -92 -201 -200 -314 -495 -332
-868 -28 -561 227 -1072 581 -1165 32 -8 59 -16 60 -17 1 -2 10 -43 19 -93 9
-49 35 -157 56 -240 183 -711 527 -1333 1000 -1805 492 -493 1073 -790 1740
-891 133 -20 193 -24 425 -24 284 0 362 7 589 51 452 89 892 289 1266 578 558
430 990 1063 1240 1816 47 141 110 380 136 515 9 50 18 91 19 93 1 1 28 9 60
17 92 24 173 73 256 155 389 385 440 1242 104 1750 -51 76 -154 185 -165 173
-4 -4 -15 -38 -25 -76 -9 -37 -32 -98 -50 -135 -90 -189 -193 -207 -303 -54
-19 26 -166 311 -327 633 l-293 586 -174 7 c-95 4 -251 13 -347 22 -775 67
-1348 232 -1636 473 -33 27 -61 48 -63 46 -2 -2 10 -29 26 -61 79 -157 163
-403 177 -518 12 -90 -23 -156 -82 -156 -118 0 -428 229 -786 579 -92 90 -169
162 -172 160 -2 -3 0 -22 5 -44 14 -61 12 -166 -5 -223 -64 -214 -304 -196
-716 54 -160 96 -407 276 -586 426 -45 37 -85 68 -90 68 -4 0 -46 -33 -93 -74z
m198 -286 c31 -22 116 -83 187 -134 305 -222 573 -361 774 -401 58 -12 184 -7
231 10 24 8 74 38 111 64 132 96 134 96 298 -43 352 -300 574 -399 713 -318
91 52 198 175 198 226 0 14 5 28 10 31 6 3 10 32 10 65 0 53 2 58 20 53 14 -4
20 0 20 10 0 15 4 15 43 1 143 -51 404 -116 615 -154 213 -38 677 -90 812 -90
80 0 121 -18 177 -76 43 -45 78 -107 213 -376 307 -613 467 -823 645 -852 56
-9 122 13 197 67 83 58 101 64 127 36 28 -31 67 -132 86 -227 13 -65 16 -127
13 -319 l-4 -238 -43 -124 c-87 -254 -153 -352 -308 -454 -109 -71 -210 -172
-248 -247 -13 -26 -42 -124 -65 -217 -58 -246 -84 -314 -366 -978 -78 -182
-303 -510 -486 -707 -99 -106 -431 -375 -597 -483 -939 -608 -2167 -603 -3101
13 -375 247 -564 433 -855 837 -96 134 -276 470 -358 670 -70 171 -142 391
-197 608 -28 109 -62 221 -75 248 -29 56 -136 173 -192 211 -21 14 -70 46
-110 72 -109 71 -181 171 -243 337 -43 117 -50 180 -50 469 0 238 3 286 20
356 25 105 45 157 88 222 44 67 66 68 157 6 89 -61 141 -84 194 -84 77 0 152
49 243 161 53 64 82 133 123 294 111 429 256 759 483 1093 119 175 282 362
348 397 40 21 74 13 142 -35z M3855 5593 c-68 -25 -107 -54 -144 -109 -48 -72
-53 -120 -49 -466 l3 -313 27 -50 c54 -102 138 -154 248 -155 83 0 149 30 207
93 71 77 74 103 71 484 l-3 328 -30 53 c-67 123 -206 179 -330 135z m115 -542
c0 -193 -4 -292 -11 -296 -5 -4 -21 -4 -35 -1 l-24 6 0 284 c0 155 3 286 7
289 3 4 19 7 35 7 l28 0 0 -289z M6659 5604 c-82 -15 -184 -114 -209 -202 -6
-22 -10 -167 -10 -348 0 -358 4 -387 73 -461 58 -63 124 -93 207 -93 110 1
194 53 248 155 l27 50 0 345 c0 380 0 377 -65 460 -54 68 -176 110 -271 94z
m91 -553 c0 -193 -4 -292 -11 -296 -5 -4 -21 -4 -35 -1 l-24 6 0 290 0 290 35
0 35 0 0 -289z M4957 3646 c-151 -55 -224 -235 -153 -381 15 -30 45 -70 68
-89 73 -63 94 -66 458 -66 364 0 385 3 458 66 89 76 120 213 73 320 -27 59
-61 97 -121 132 l-45 27 -350 2 c-275 2 -358 0 -388 -11z m682 -192 l52 -15
-3 -51 c-6 -96 -63 -112 -403 -106 -239 4 -275 10 -318 52 -22 23 -22 78 1 99
33 29 88 35 353 36 213 1 276 -2 318 -15z M6636 2545 c-21 -7 -55 -27 -75 -43
-197 -158 -802 -251 -1453 -222 -510 23 -820 92 -1032 233 -46 30 -55 32 -135
32 -94 0 -122 -10 -187 -67 -117 -103 -119 -295 -2 -404 118 -111 366 -214
665 -274 310 -62 631 -86 1043 -77 485 11 840 65 1125 172 276 103 396 208
412 360 20 195 -178 355 -361 290z m155 -216 c18 -18 20 -29 15 -66 -13 -95
-106 -157 -352 -233 -466 -144 -1291 -179 -1903 -80 -316 52 -593 150 -674
239 -31 34 -37 48 -37 85 0 42 2 45 36 56 64 21 130 8 259 -52 311 -144 672
-195 1294 -185 541 9 854 63 1096 188 143 73 226 88 266 48z"/>
</g>
</svg>
