<?xml version="1.0" standalone="no"?>
<!DOCTYPE svg PUBLIC "-//W3C//DTD SVG 20010904//EN"
 "http://www.w3.org/TR/2001/REC-SVG-20010904/DTD/svg10.dtd">
<svg version="1.0" xmlns="http://www.w3.org/2000/svg"
 width="2048.000000pt" height="2048.000000pt" viewBox="0 0 2048.000000 2048.000000"
 preserveAspectRatio="xMidYMid meet">
<metadata>
Created by potrace 1.13, written by Peter Selinger 2001-2015
</metadata>
<g transform="translate(0.000000,2048.000000) scale(0.192120,-0.192120)"
fill="#000000" stroke="none">
<path d="M4950 10039 c-835 -63 -1543 -321 -2111 -770 -132 -103 -371 -343
-477 -477 -323 -408 -536 -894 -613 -1404 -38 -254 -36 -667 7 -998 28 -224
86 -474 108 -467 6 2 21 18 34 37 17 25 22 47 22 93 0 33 -10 114 -22 181 -22
116 -23 143 -23 676 l0 555 37 145 c131 517 385 958 773 1345 377 376 891 662
1465 815 372 100 714 142 1150 143 295 0 437 -10 678 -49 950 -152 1774 -649
2318 -1399 178 -244 293 -467 413 -801 99 -273 101 -293 101 -837 0 -340 -4
-496 -15 -592 -8 -71 -15 -169 -15 -217 0 -84 1 -89 31 -123 18 -20 33 -34 36
-32 8 9 35 173 53 327 43 373 50 912 16 1135 -157 1007 -939 1951 -1992 2404
-406 175 -814 274 -1278 311 -150 12 -530 11 -696 -1z M3290 7476 c-476 -410
-825 -1033 -995 -1777 -45 -194 -65 -228 -135 -229 -47 0 -90 28 -141 92 -39
48 -119 201 -119 226 0 20 -20 23 -42 8 -49 -34 -152 -144 -193 -206 -165
-250 -248 -610 -217 -952 14 -160 32 -249 77 -385 101 -303 284 -511 500 -568
32 -8 59 -16 60 -17 1 -2 10 -43 19 -93 9 -49 35 -157 56 -240 183 -711 527
-1333 1000 -1805 492 -493 1073 -790 1740 -891 133 -20 193 -24 425 -24 284 0
362 7 589 51 452 89 892 289 1266 578 558 430 990 1063 1240 1816 47 141 110
380 136 515 9 50 18 91 19 93 1 1 28 9 60 17 92 24 173 73 256 155 360 356
436 1132 162 1652 -72 137 -215 304 -227 266 -2 -7 -14 -47 -26 -88 -56 -192
-152 -302 -235 -270 -40 15 -75 46 -113 98 -19 26 -166 311 -327 633 l-293
586 -174 7 c-672 27 -1290 140 -1668 306 -111 49 -240 126 -315 189 -33 27
-61 48 -63 46 -2 -2 10 -29 26 -61 79 -157 163 -403 177 -518 12 -90 -23 -156
-82 -156 -118 0 -428 229 -786 579 -92 90 -169 162 -171 160 -2 -2 0 -24 4
-49 14 -70 12 -161 -5 -218 -82 -275 -460 -166 -1095 317 -69 52 -162 125
-207 163 -45 37 -85 68 -90 68 -4 0 -46 -33 -93 -74z m170 -288 c19 -11 91
-62 160 -113 407 -301 711 -446 934 -445 110 1 155 19 290 115 26 19 58 35 71
35 28 0 83 -38 221 -154 293 -245 517 -345 646 -288 85 37 238 197 238 248 0
13 5 26 10 29 6 3 10 29 10 57 0 40 3 49 15 44 9 -3 15 0 15 10 0 19 -10 21
197 -40 317 -94 744 -162 1198 -191 148 -10 172 -18 231 -80 42 -44 81 -112
222 -392 252 -497 393 -706 536 -791 112 -68 188 -63 312 20 94 64 111 61 147
-20 47 -105 57 -180 57 -447 l0 -243 -45 -136 c-82 -247 -143 -340 -283 -433
-102 -66 -240 -202 -270 -264 -12 -24 -46 -141 -75 -259 -55 -217 -87 -303
-258 -702 -32 -76 -59 -140 -59 -143 0 -3 -21 -52 -47 -108 -74 -164 -231
-399 -401 -604 -93 -112 -328 -321 -517 -459 -400 -293 -825 -465 -1325 -535
-127 -19 -592 -19 -720 -1 -581 82 -1058 298 -1531 694 -195 164 -383 384
-554 647 -61 95 -79 125 -188 331 -122 231 -240 551 -322 878 -25 101 -59 210
-74 241 -40 79 -167 206 -273 274 -134 86 -197 160 -251 297 -63 161 -67 188
-67 520 0 277 2 312 20 379 37 131 97 231 140 231 10 0 40 -16 66 -35 180
-130 276 -125 420 21 94 97 132 175 188 389 98 373 217 654 405 955 139 223
333 454 409 487 31 14 52 10 102 -19z M3855 5593 c-68 -25 -107 -54 -144 -109
-48 -73 -53 -120 -49 -466 4 -349 4 -351 76 -430 108 -120 296 -118 409 5 71
77 74 103 71 484 l-3 328 -30 53 c-67 123 -206 179 -330 135z m103 -545 c-3
-260 -4 -283 -20 -286 -17 -3 -18 16 -18 282 0 280 0 286 20 286 20 0 20 -5
18 -282z M6659 5604 c-82 -15 -184 -114 -209 -202 -6 -22 -10 -167 -10 -348 0
-358 4 -387 73 -461 58 -63 124 -93 207 -93 110 1 194 53 248 155 l27 50 0
345 c0 380 0 377 -65 460 -54 68 -176 110 -271 94z m69 -556 c-2 -180 -7 -283
-13 -283 -6 0 -11 103 -13 283 -2 248 0 282 13 282 13 0 15 -34 13 -282z
M4944 3641 c-186 -85 -225 -334 -72 -465 73 -63 94 -66 458 -66 364 0 385 3
458 66 153 131 114 380 -72 465 -38 17 -70 19 -386 19 -316 0 -348 -2 -386
-19z m694 -201 c28 -11 32 -16 32 -48 0 -82 -16 -86 -325 -90 -288 -3 -338 4
-364 49 -18 33 -8 75 22 85 75 25 568 28 635 4z M6636 2545 c-22 -8 -51 -23
-65 -34 -118 -95 -352 -166 -671 -206 -295 -36 -815 -38 -1103 -5 -314 37
-555 104 -681 190 -72 49 -123 64 -201 57 -236 -18 -336 -311 -163 -473 118
-111 366 -214 665 -274 310 -62 631 -86 1043 -77 572 13 963 85 1269 234 186
91 271 193 271 327 0 146 -133 277 -279 276 -25 -1 -64 -7 -85 -15z m-2615
-234 c30 -10 92 -37 139 -60 91 -43 245 -91 375 -116 474 -90 1196 -85 1635
12 164 36 229 58 372 125 116 54 132 59 185 56 58 -3 58 -3 61 -37 5 -54 -5
-77 -53 -116 -71 -59 -319 -154 -462 -178 -15 -3 -71 -13 -123 -22 -175 -31
-313 -45 -567 -57 -367 -18 -815 6 -1073 57 -41 8 -93 18 -115 21 -82 12 -282
76 -370 118 -49 23 -107 58 -127 78 -32 30 -38 42 -38 76 0 35 4 42 28 50 41
16 74 14 133 -7z"/>
</g>
</svg>
