<?xml version="1.0" standalone="no"?>
<!DOCTYPE svg PUBLIC "-//W3C//DTD SVG 20010904//EN"
 "http://www.w3.org/TR/2001/REC-SVG-20010904/DTD/svg10.dtd">
<svg version="1.0" xmlns="http://www.w3.org/2000/svg"
 width="2048.000000pt" height="2048.000000pt" viewBox="0 0 2048.000000 2048.000000"
 preserveAspectRatio="xMidYMid meet">
<metadata>
Created by potrace 1.13, written by Peter Selinger 2001-2015
</metadata>
<g transform="translate(0.000000,2048.000000) scale(0.192120,-0.192120)"
fill="#000000" stroke="none">
<path d="M970 10323 c-190 -17 -278 -30 -415 -59 -88 -18 -173 -37 -190 -42
l-30 -8 -3 -4942 -2 -4942 2085 0 2085 0 0 705 c0 435 -4 743 -11 802 -37 333
-222 633 -504 815 -104 67 -200 110 -334 146 l-96 27 -920 3 -921 3 -17 -36
c-42 -87 -810 -1356 -817 -1348 -9 9 -450 763 -473 808 -15 29 -14 31 24 76
21 26 39 52 39 58 0 6 5 11 10 11 14 0 14 1076 0 1085 -5 3 -10 15 -10 26 0
10 -25 67 -55 125 -31 59 -55 108 -53 109 2 2 44 -8 93 -21 271 -74 614 -73
873 2 104 30 265 105 353 165 108 72 309 281 309 320 0 5 -343 9 -810 9 -445
0 -810 3 -810 7 0 3 20 38 44 77 77 126 76 123 76 293 0 95 -4 153 -10 153 -5
0 -10 9 -10 21 0 11 -14 66 -31 121 -27 88 -31 111 -27 182 5 73 39 204 69
258 12 22 12 1712 0 1736 -4 9 -21 43 -36 75 -15 32 -34 61 -42 64 -8 3 71 34
174 68 391 130 651 254 948 450 313 208 592 474 765 730 28 41 54 75 58 75 4
0 18 -46 31 -103 55 -230 180 -554 285 -737 182 -319 394 -521 649 -621 l72
-28 0 -793 c0 -436 -4 -831 -8 -878 l-8 -85 -69 -32 c-84 -38 -113 -78 -161
-221 -33 -101 -138 -350 -195 -464 -18 -37 -67 -120 -107 -185 -41 -65 -90
-145 -110 -177 -89 -145 -299 -352 -477 -471 -52 -35 -189 -109 -303 -165
-188 -91 -215 -107 -280 -169 -112 -107 -117 -120 -117 -323 0 -101 4 -167 9
-163 5 3 12 -3 16 -14 8 -26 124 -69 136 -50 5 8 9 102 9 209 l0 195 67 24
c94 34 302 138 414 207 297 184 589 469 777 758 85 131 170 294 227 435 49
123 109 321 121 398 6 40 17 58 78 122 232 249 449 588 585 915 83 199 181
551 181 649 0 24 -2 25 -40 16 -140 -32 -170 -67 -233 -276 -85 -279 -212
-570 -283 -650 l-34 -38 -25 28 -25 28 0 555 c0 484 -2 555 -15 560 -8 4 -15
16 -15 29 0 48 -99 151 -210 217 -113 69 -193 129 -264 203 -178 183 -326 445
-447 790 -93 270 -155 355 -254 355 -67 0 -114 -37 -335 -260 -296 -299 -502
-457 -805 -617 -202 -106 -483 -226 -583 -248 l-32 -7 0 1280 c0 1158 2 1280
16 1286 9 3 24 6 35 6 11 0 23 10 28 23 8 20 20 25 86 35 163 25 324 34 515
29 498 -15 947 -146 1406 -412 172 -100 194 -108 283 -103 42 3 94 12 115 22
39 16 39 16 20 38 -25 27 -180 143 -269 200 -492 313 -1078 482 -1655 476 -80
-1 -161 -3 -180 -5z m2387 -5095 c-3 -8 -6 -5 -6 6 -1 11 2 17 5 13 3 -3 4
-12 1 -19z m-2167 -1246 c39 -5 55 -11 55 -22 0 -8 -10 -16 -22 -18 -13 -2
-23 -7 -23 -11 0 -15 -215 -45 -320 -44 -94 1 -267 24 -291 39 -5 3 -9 16 -9
29 0 18 6 25 28 28 44 7 522 6 582 -1z m2335 -1397 c349 -56 617 -299 717
-650 22 -79 22 -89 26 -718 3 -636 3 -637 -18 -637 -11 0 -20 -7 -20 -15 0
-13 -38 -15 -280 -15 -180 0 -280 -4 -280 -10 0 -5 -20 -10 -45 -10 -25 0 -45
-4 -45 -10 0 -5 -6 -10 -13 -10 -7 0 -48 -22 -92 -49 l-80 -50 -3 515 -2 514
-140 0 -140 0 -1 -492 c-1 -271 -4 -503 -7 -515 -7 -21 -10 -20 -79 28 -40 27
-77 49 -83 49 -5 0 -10 5 -10 10 0 6 -9 10 -20 10 -11 0 -20 5 -20 11 0 7
-324 8 -1115 3 l-1115 -7 0 21 c0 19 -6 22 -40 22 l-40 0 0 490 c0 385 3 490
13 490 6 0 23 -16 37 -34 14 -19 28 -33 31 -33 3 1 25 -18 50 -42 133 -131
198 -138 310 -34 86 79 155 182 428 635 143 238 277 453 297 477 21 24 52 50
68 57 48 20 1584 20 1711 -1z M4070 10315 c-544 -86 -968 -490 -1086 -1035
-14 -64 -19 -127 -18 -255 0 -146 4 -190 28 -310 74 -368 215 -699 449 -1050
378 -566 957 -1105 1532 -1424 115 -64 329 -161 355 -161 8 0 67 23 130 50
625 273 1340 902 1773 1560 218 332 355 654 428 1005 30 145 34 176 34 330 0
128 -5 191 -19 255 -101 464 -427 834 -864 980 -466 155 -967 43 -1321 -296
-43 -40 -95 -98 -116 -128 -22 -30 -42 -55 -45 -55 -3 0 -23 25 -45 55 -51 72
-173 188 -266 254 -271 191 -627 276 -949 225z m310 -275 c181 -19 357 -80
500 -173 35 -23 116 -86 180 -139 238 -201 295 -205 501 -31 190 162 282 221
435 279 378 142 850 58 1133 -200 103 -95 294 -322 325 -386 l31 -65 3 -297
c3 -290 2 -299 -23 -405 -95 -394 -316 -798 -674 -1228 -156 -188 -267 -291
-416 -389 -77 -51 -205 -142 -285 -202 -342 -260 -640 -427 -760 -427 -124 0
-403 156 -760 424 -85 64 -221 159 -301 212 -120 79 -165 115 -249 204 -445
467 -757 1005 -850 1464 -19 92 -21 131 -18 363 l3 261 32 67 c35 75 165 232
304 368 167 164 404 274 645 299 112 12 137 12 244 1z M9230 10319 c-538 -47
-1084 -250 -1515 -564 -55 -40 -111 -85 -124 -99 l-24 -26 37 -15 c58 -25 153
-30 206 -12 67 23 98 37 168 80 338 203 710 337 1107 399 204 32 607 31 812 0
165 -26 173 -28 173 -52 0 -10 9 -20 20 -23 20 -5 20 -14 20 -1241 0 -1229 0
-1236 -20 -1236 -17 0 -20 -7 -20 -39 l0 -40 -52 16 c-154 45 -470 187 -643
288 -320 188 -465 307 -830 683 -109 113 -181 159 -232 148 -35 -8 -95 -64
-127 -119 -13 -23 -54 -123 -89 -222 -75 -208 -128 -331 -192 -452 -132 -248
-302 -433 -507 -553 -119 -70 -191 -137 -229 -214 -25 -53 -29 -72 -29 -148 0
-52 -4 -88 -10 -88 -7 0 -10 -163 -10 -468 0 -258 -3 -472 -7 -475 -3 -4 -12
-2 -20 4 -10 9 -13 7 -13 -10 0 -36 -17 -23 -66 51 -78 119 -159 301 -225 503
-34 105 -70 213 -81 241 -29 77 -85 122 -177 143 -40 9 -41 8 -41 -16 0 -53
51 -275 95 -410 142 -442 375 -840 681 -1163 52 -56 62 -72 68 -115 22 -147
126 -431 227 -625 201 -383 516 -723 886 -956 109 -69 342 -186 428 -214 l65
-22 0 -196 c0 -108 4 -203 9 -211 12 -19 121 30 128 59 3 11 9 17 14 14 5 -3
9 71 9 170 0 97 -3 176 -8 176 -4 0 -18 20 -31 45 -47 89 -118 141 -352 256
-162 80 -239 125 -319 185 -371 280 -676 704 -815 1134 -70 218 -76 232 -106
273 -33 47 -79 81 -135 103 l-42 16 -9 77 c-4 42 -8 437 -8 879 l0 803 72 28
c255 100 467 302 649 621 105 183 229 507 286 742 13 54 26 98 30 98 4 0 30
-34 58 -75 116 -172 331 -400 519 -551 342 -275 710 -469 1196 -630 105 -35
185 -63 178 -64 -6 0 -26 -26 -45 -57 l-33 -58 -3 -876 -2 -876 35 -112 c42
-135 45 -209 14 -314 -12 -40 -25 -76 -29 -82 -5 -5 -11 -27 -15 -48 -4 -20
-11 -40 -16 -43 -5 -3 -9 -72 -9 -153 0 -118 3 -155 17 -182 9 -19 19 -36 22
-39 10 -8 91 -136 91 -143 0 -4 -364 -7 -810 -7 -467 0 -810 -4 -810 -9 0 -39
201 -248 309 -320 88 -60 249 -135 353 -165 259 -75 602 -76 873 -2 50 13 92
23 94 21 2 -2 -11 -30 -29 -61 -70 -125 -90 -165 -90 -184 0 -11 -4 -20 -10
-20 -7 0 -10 -173 -10 -500 0 -327 3 -500 10 -500 6 0 10 -16 10 -36 0 -41 11
-64 56 -120 l33 -41 -83 -144 c-235 -409 -410 -699 -416 -692 -12 13 -798
1328 -811 1357 l-13 27 -920 -3 -921 -3 -97 -27 c-463 -127 -786 -497 -837
-961 -7 -59 -11 -367 -11 -802 l0 -705 2085 0 2085 0 0 4943 0 4942 -124 28
c-342 79 -662 103 -976 76z m-1923 -5091 c-3 -8 -6 -5 -6 6 -1 11 2 17 5 13 3
-3 4 -12 1 -19z m2722 -1244 c26 -6 31 -11 31 -35 0 -16 -2 -29 -4 -29 -2 0
-41 -7 -87 -16 -49 -10 -133 -17 -199 -17 -229 0 -469 74 -304 94 68 8 524 10
563 3z m-1206 -1398 c76 -32 97 -61 397 -561 139 -231 270 -445 293 -475 57
-78 147 -161 201 -188 78 -39 117 -22 251 109 49 49 90 79 105 81 l25 3 3
-487 c2 -483 2 -488 -18 -488 -11 0 -20 -7 -20 -15 0 -13 -131 -15 -1115 -15
-737 0 -1115 -3 -1115 -10 0 -5 -18 -10 -40 -10 -22 0 -40 -4 -40 -10 0 -5 -8
-10 -17 -10 -10 0 -52 -22 -93 -49 -72 -46 -75 -48 -82 -27 -3 11 -6 243 -7
514 l-1 492 -140 0 -140 0 -2 -515 -3 -515 -75 50 c-41 28 -80 55 -87 60 -7 6
-19 10 -28 10 -8 0 -15 5 -15 10 0 6 -102 10 -285 10 -247 0 -285 2 -285 15 0
11 -11 15 -40 15 l-40 0 0 683 c0 641 1 687 19 738 68 200 212 371 402 483 66
38 198 84 287 100 113 21 1658 22 1705 2z M1935 6711 c-91 -22 -171 -95 -200
-182 -14 -40 -16 -84 -13 -246 l3 -198 30 -54 c96 -173 341 -191 462 -33 18
23 37 59 43 80 5 20 10 125 10 232 0 183 -2 198 -24 245 -55 119 -188 185
-311 156z M8572 6702 c-66 -24 -126 -80 -158 -147 -23 -47 -24 -61 -24 -245 0
-107 5 -212 10 -232 15 -53 67 -117 123 -152 36 -22 63 -30 116 -34 120 -8
211 39 267 140 29 53 29 54 32 245 3 151 0 204 -12 246 -42 145 -211 230 -354
179z M542 5170 c-89 -54 -94 -178 -10 -230 31 -19 50 -20 353 -20 300 0 322 1
352 20 91 55 80 184 -19 236 -21 11 -90 14 -335 14 -290 0 -310 -1 -341 -20z
M9435 5171 c-48 -29 -67 -57 -72 -104 -6 -52 13 -96 56 -126 28 -20 41 -21
353 -21 306 0 325 1 356 20 84 52 79 176 -10 230 -31 19 -51 20 -343 20 -284
0 -312 -2 -340 -19z"/>
</g>
</svg>
