<?xml version="1.0" standalone="no"?>
<!DOCTYPE svg PUBLIC "-//W3C//DTD SVG 20010904//EN"
 "http://www.w3.org/TR/2001/REC-SVG-20010904/DTD/svg10.dtd">
<svg version="1.0" xmlns="http://www.w3.org/2000/svg"
 width="2048.000000pt" height="2048.000000pt" viewBox="0 0 2048.000000 2048.000000"
 preserveAspectRatio="xMidYMid meet">
<metadata>
Created by potrace 1.13, written by Peter Selinger 2001-2015
</metadata>
<g transform="translate(0.000000,2048.000000) scale(0.192120,-0.192120)"
fill="#000000" stroke="none">
<path d="M7143 10051 c-145 -77 -296 -186 -428 -311 l-50 -47 -155 -12 c-835
-66 -1716 -335 -2416 -736 -340 -195 -617 -422 -686 -562 l-30 -61 17 -57 c23
-81 50 -105 118 -105 80 0 96 -17 108 -114 12 -95 34 -142 91 -190 68 -59 118
-69 262 -51 326 38 899 53 1381 36 376 -14 481 -20 1080 -66 248 -19 639 -48
870 -65 1248 -90 1433 -108 1695 -167 181 -40 257 -24 289 62 15 38 14 43 -16
171 -4 16 2 24 26 34 75 31 158 146 198 276 26 85 26 375 -1 489 -61 265 -258
490 -608 694 -386 224 -996 388 -1556 417 -73 4 -129 11 -125 15 19 18 153 88
218 114 86 33 105 50 105 88 0 63 -140 156 -264 175 -52 8 -59 7 -123 -27z
m-6 -483 c124 -127 153 -139 453 -183 588 -86 1006 -226 1335 -445 105 -71
252 -219 288 -290 l27 -55 0 -245 c0 -230 -1 -248 -21 -285 -42 -79 -175 -268
-203 -288 l-29 -21 -156 22 c-305 43 -510 62 -1361 122 -234 17 -688 50 -1010
75 -322 24 -673 49 -780 55 -328 18 -943 23 -1205 11 -132 -7 -311 -15 -397
-18 l-157 -6 -31 33 c-18 19 -45 59 -61 89 -17 31 -52 84 -79 119 -28 35 -50
70 -50 79 0 36 178 176 375 295 572 347 1302 607 2025 722 52 8 196 27 320 41
268 30 299 42 477 177 89 67 118 84 138 81 14 -3 59 -40 102 -85z M3798 7717
c-137 -236 -261 -580 -327 -904 -42 -202 -68 -418 -82 -668 -13 -241 -6 -1291
11 -1625 22 -430 72 -846 126 -1058 13 -53 24 -97 24 -98 0 0 -60 -4 -132 -8
-687 -35 -1279 -230 -1705 -562 -45 -36 -84 -68 -87 -73 -3 -5 1 -26 10 -47
23 -55 20 -196 -6 -319 -12 -55 -58 -210 -101 -344 -87 -268 -95 -307 -104
-553 -12 -345 -62 -496 -179 -549 -64 -29 -71 -26 -95 40 -19 52 -31 67 -104
126 -125 102 -168 160 -215 290 -26 69 -26 75 -30 407 -4 381 -8 360 87 518
97 163 188 254 326 325 64 33 89 39 168 46 119 10 206 33 222 58 9 16 -25 57
-70 82 -49 28 -180 38 -264 19 -180 -40 -366 -184 -498 -386 -66 -102 -104
-185 -139 -301 -25 -83 -26 -100 -26 -303 0 -175 4 -237 21 -335 25 -142 75
-292 122 -371 81 -135 204 -221 334 -231 l63 -6 27 -76 c32 -91 135 -308 194
-409 l42 -72 4319 0 4320 0 0 538 c0 435 -3 555 -15 632 -95 583 -644 1081
-1395 1263 -221 54 -285 60 -747 64 l-433 5 0 214 c0 118 2 214 4 214 14 0
333 -107 556 -187 525 -189 676 -228 875 -227 113 0 138 3 190 24 106 41 197
151 251 303 43 122 83 399 104 727 24 376 38 1991 20 2290 -23 372 -85 707
-185 1008 -42 125 -116 302 -126 302 -10 0 -63 -69 -84 -109 -26 -52 -21 -138
15 -256 47 -156 96 -358 120 -495 21 -124 21 -133 18 -1580 l-4 -1455 -26
-140 c-44 -235 -89 -328 -183 -375 -45 -23 -61 -25 -165 -24 -88 0 -140 7
-220 27 -136 33 -650 218 -786 283 -27 13 -34 22 -34 44 0 22 25 53 124 151
228 229 413 494 571 822 138 284 234 584 296 922 17 95 23 171 26 366 5 229 4
251 -17 327 -33 121 -135 321 -215 421 -190 234 -499 419 -842 506 -156 39
-271 54 -528 70 -314 19 -482 49 -740 132 -132 42 -400 147 -545 213 -384 175
-424 185 -542 136 -76 -31 -97 -48 -272 -216 -366 -353 -430 -412 -578 -533
-277 -226 -399 -377 -471 -582 -41 -116 -47 -165 -47 -408 0 -198 4 -255 25
-387 76 -479 250 -939 500 -1320 118 -180 187 -264 381 -456 94 -94 175 -181
178 -192 5 -15 -8 -42 -49 -101 -30 -45 -55 -88 -55 -96 0 -22 -16 -26 -60
-16 l-41 9 15 -24 c9 -13 16 -30 16 -37 0 -17 131 -147 183 -183 57 -38 138
-66 199 -67 66 -2 93 17 124 84 16 37 20 40 48 35 84 -17 533 -231 738 -352
355 -210 618 -413 899 -693 331 -331 548 -647 695 -1013 67 -168 130 -409 122
-470 l-3 -26 -49 24 c-121 59 52 55 -2501 52 l-2340 -3 -108 -32 c-167 -49
-281 -65 -457 -65 -171 0 -290 15 -492 62 -73 17 -180 35 -238 41 -186 17
-249 52 -302 168 -47 103 -47 126 1 224 73 150 104 300 122 582 11 180 27 261
100 485 79 244 129 459 129 556 0 25 6 47 15 54 8 7 15 20 15 29 1 9 19 30 42
46 23 17 58 43 79 58 21 15 94 58 161 94 388 211 536 252 1128 314 235 24 279
37 366 108 33 26 85 65 115 85 l54 36 -37 0 c-62 0 -69 6 -52 45 18 44 18 125
-1 250 -76 488 -77 514 -73 1765 4 1106 4 1116 26 1235 49 263 106 459 207
715 81 205 85 287 16 374 l-28 35 -35 -62z m1817 -384 c326 -180 723 -340
1050 -423 187 -47 332 -67 550 -75 348 -13 612 -73 858 -196 367 -183 599
-489 624 -825 15 -207 -67 -674 -173 -985 -209 -612 -545 -1067 -1034 -1401
-34 -24 -40 -33 -40 -63 0 -30 -9 -45 -64 -99 -159 -160 -369 -266 -613 -311
-119 -22 -421 -31 -554 -16 -250 29 -453 105 -625 237 -98 75 -174 157 -174
188 0 21 -16 36 -87 85 -284 191 -538 462 -730 779 -273 451 -446 1055 -447
1557 0 145 3 182 22 250 52 187 148 324 341 483 64 53 164 136 222 184 57 48
246 226 419 397 173 170 317 309 320 308 3 -1 64 -34 135 -74z m-195 -4188 l0
-124 -67 26 c-38 14 -121 42 -185 62 -65 19 -114 38 -110 42 5 5 338 115 360
119 1 0 2 -56 2 -125z m1820 -270 c0 -14 5 -25 10 -25 6 0 10 -7 10 -15 0 -8
4 -15 9 -15 5 0 11 -10 15 -23 10 -41 133 -164 194 -194 l57 -28 405 -6 c503
-9 595 -21 877 -121 417 -148 764 -417 908 -708 67 -133 65 -113 65 -667 l0
-503 -855 0 c-834 0 -855 0 -874 19 -30 30 -44 63 -96 221 -58 179 -123 328
-216 496 -155 280 -316 491 -576 750 -175 176 -296 278 -575 486 -142 107
-188 148 -188 170 0 5 3 7 8 6 4 0 14 1 22 4 8 3 80 11 160 17 178 13 327 46
473 105 169 67 167 66 167 31z M5444 6060 c-83 -19 -155 -95 -175 -184 -18
-81 -8 -332 15 -376 46 -89 119 -134 217 -135 56 0 73 4 114 30 27 17 63 50
80 74 l30 43 3 181 c2 112 -1 196 -7 219 -17 56 -89 124 -152 142 -57 17 -76
18 -125 6z M7325 6061 c-69 -17 -125 -62 -161 -131 -17 -30 -19 -59 -19 -215
0 -156 2 -185 19 -215 94 -178 333 -184 421 -10 24 47 25 57 25 223 0 165 -1
175 -25 224 -49 98 -157 149 -260 124z M6124 4876 c-32 -32 -34 -38 -34 -99 0
-68 18 -104 61 -128 13 -6 119 -10 290 -10 293 0 299 1 335 56 12 19 15 41 12
91 -4 60 -7 70 -36 95 l-32 29 -281 0 -281 0 -34 -34z M5774 4341 c-107 -49
-141 -192 -68 -288 31 -41 169 -132 259 -171 209 -91 490 -115 726 -63 242 54
458 189 487 304 43 168 -147 300 -289 201 -129 -90 -206 -124 -334 -144 -184
-30 -398 10 -522 97 -126 87 -178 101 -259 64z M7230 3281 c-111 -58 -348
-129 -529 -157 -140 -22 -408 -22 -553 0 -122 19 -325 72 -418 110 -35 14 -65
24 -67 22 -6 -6 140 -68 242 -101 169 -56 270 -70 525 -69 247 0 374 16 536
70 80 26 304 128 304 138 0 8 0 8 -40 -13z M4680 2890 c-196 -28 -331 -118
-404 -269 -24 -50 -26 -66 -26 -177 0 -126 3 -139 49 -232 148 -302 626 -443
956 -282 92 44 149 98 194 183 30 56 31 61 31 192 0 128 -2 139 -29 199 -62
137 -192 271 -316 325 -75 33 -283 73 -363 70 -20 -1 -62 -5 -92 -9z m285 -64
c145 -39 301 -141 387 -253 69 -91 92 -159 93 -268 0 -82 -3 -96 -33 -157
-186 -379 -882 -308 -1090 111 -36 72 -37 79 -37 180 0 92 3 113 24 154 58
118 183 209 331 242 79 18 238 13 325 -9z M2694 2816 c-246 -47 -401 -237
-364 -448 23 -127 100 -248 213 -334 318 -241 775 -194 910 94 103 220 -46
501 -337 632 -129 58 -295 80 -422 56z m231 -231 c108 -19 227 -79 288 -144
l47 -50 0 -99 c0 -92 -2 -101 -25 -126 -50 -54 -107 -71 -240 -71 -98 0 -133
4 -190 23 -89 29 -201 105 -240 163 -27 39 -30 54 -33 131 l-4 86 43 31 c85
63 209 82 354 56z M6143 1876 c-142 -35 -270 -138 -313 -253 -18 -48 -21 -74
-18 -149 3 -81 8 -100 40 -165 111 -222 355 -363 628 -363 165 0 296 50 386
146 155 166 130 403 -64 595 -59 60 -91 82 -175 122 -56 27 -134 57 -174 65
-85 19 -236 20 -310 2z m302 -246 c97 -25 189 -75 243 -134 l42 -46 0 -91 c0
-90 0 -91 -33 -124 -44 -44 -119 -66 -227 -66 -142 1 -275 49 -367 134 -60 55
-83 105 -83 184 0 52 4 66 23 83 78 75 247 100 402 60z M2143 1425 c-248 -67
-381 -274 -315 -492 105 -343 582 -543 917 -383 226 108 292 364 151 584 -84
130 -249 243 -420 286 -94 24 -254 26 -333 5z m282 -240 c94 -20 204 -75 260
-131 l45 -46 0 -97 c0 -93 -1 -98 -27 -123 -125 -114 -441 -76 -598 73 -64 60
-78 96 -73 189 l3 64 48 30 c86 53 213 68 342 41z"/>
</g>
</svg>
