<?xml version="1.0" standalone="no"?>
<!DOCTYPE svg PUBLIC "-//W3C//DTD SVG 20010904//EN"
 "http://www.w3.org/TR/2001/REC-SVG-20010904/DTD/svg10.dtd">
<svg version="1.0" xmlns="http://www.w3.org/2000/svg"
 width="2048.000000pt" height="2048.000000pt" viewBox="0 0 2048.000000 2048.000000"
 preserveAspectRatio="xMidYMid meet">
<metadata>
Created by potrace 1.13, written by Peter Selinger 2001-2015
</metadata>
<g transform="translate(0.000000,2048.000000) scale(0.192120,-0.192120)"
fill="#000000" stroke="none">
<path d="M6225 9913 c-424 -25 -794 -118 -1130 -282 -457 -225 -788 -550
-1001 -986 -160 -330 -220 -647 -196 -1041 18 -293 60 -512 126 -665 37 -85
96 -173 127 -190 29 -15 23 -29 -36 -89 -30 -30 -54 -61 -55 -69 0 -8 -7 -11
-19 -8 -18 4 -19 -5 -23 -172 -2 -101 -9 -184 -15 -195 -10 -19 -12 -18 -32
15 -50 80 -53 117 -48 463 3 176 8 337 12 356 l6 35 -46 -49 c-122 -130 -193
-375 -181 -626 9 -197 53 -347 142 -481 57 -86 111 -134 190 -170 52 -24 64
-33 64 -53 0 -41 29 -197 61 -325 102 -412 288 -800 538 -1121 142 -183 396
-422 559 -525 l62 -40 0 -186 c0 -154 3 -188 15 -192 61 -24 227 -577 500
-1667 85 -340 252 -1033 295 -1223 l22 -97 279 0 279 0 5 22 c57 253 234 984
325 1348 264 1051 427 1594 485 1617 12 4 15 37 15 189 l0 183 75 51 c526 355
938 991 1099 1698 22 94 30 136 51 269 5 26 12 34 43 44 291 95 444 653 293
1069 -32 87 -87 185 -122 216 l-22 19 6 -40 c24 -152 28 -234 17 -305 -6 -41
-15 -133 -21 -205 -10 -130 -35 -242 -63 -280 -29 -39 -40 -4 -44 136 -4 122
-6 130 -23 126 -14 -4 -19 0 -19 14 0 10 -4 19 -8 19 -4 0 -16 15 -27 33 -10
17 -29 45 -42 61 -13 15 -31 42 -39 58 -15 28 -15 29 5 19 32 -17 57 -13 91
15 114 97 183 464 184 994 1 307 -9 380 -80 600 -144 441 -451 842 -870 1135
-503 353 -1133 519 -1809 478z m387 -293 c635 -41 1173 -264 1577 -655 239
-231 380 -448 473 -723 32 -97 32 -98 36 -329 2 -128 1 -233 -3 -233 -3 0 -23
13 -43 29 -58 46 -136 81 -215 96 -155 28 -299 46 -467 55 -472 27 -737 76
-1035 193 -164 63 -225 71 -288 34 -40 -24 -96 -78 -141 -139 -16 -22 -23 -24
-53 -17 -19 4 -71 35 -115 70 -98 76 -198 129 -242 129 -35 0 -79 -27 -173
-108 -35 -30 -64 -45 -90 -49 -72 -9 -189 52 -453 238 -163 114 -232 150 -303
157 -41 4 -59 -1 -120 -32 -110 -56 -222 -160 -400 -372 -93 -112 -121 -136
-207 -179 -36 -18 -90 -52 -119 -75 -42 -33 -55 -39 -62 -29 -5 8 -9 104 -9
214 0 178 3 211 24 300 121 499 456 899 967 1155 306 154 673 247 1065 269
200 12 233 12 396 1z m-1419 -1536 c240 -188 474 -329 611 -369 85 -25 167
-17 205 19 40 38 55 100 47 189 l-7 71 108 -105 c116 -112 219 -204 323 -287
l64 -52 566 1 c311 1 655 4 765 8 l200 6 -203 8 c-228 8 -527 30 -709 52 -194
24 -256 21 -319 -15 l-53 -30 -11 43 c-17 67 -70 206 -106 279 -19 37 -34 72
-34 78 0 6 24 -10 54 -34 229 -186 722 -308 1382 -341 125 -7 132 -8 142 -30
10 -22 17 -23 129 -27 106 -3 124 -6 176 -32 65 -31 110 -84 127 -148 7 -24
11 -262 11 -656 0 -593 -1 -621 -20 -671 -39 -104 -130 -193 -271 -265 -219
-113 -540 -174 -854 -163 -172 6 -267 26 -451 97 -419 161 -476 175 -659 167
-148 -6 -216 -24 -458 -118 -340 -132 -448 -155 -707 -146 -483 16 -861 165
-982 389 l-34 63 -3 624 c-3 723 -6 699 81 785 58 57 103 76 188 76 l54 1 43
77 c64 116 166 254 267 360 80 85 198 192 211 192 3 0 60 -43 127 -96z m1325
-2261 c-42 -2 -114 -2 -160 0 -46 1 -11 3 77 3 88 0 125 -2 83 -3z m-466 -110
c-54 -96 -26 -213 66 -278 l44 -30 261 -3 c298 -3 322 1 381 69 63 74 71 179
20 254 l-25 37 31 -22 c17 -12 74 -63 127 -114 52 -50 111 -99 131 -108 19
-10 42 -24 51 -32 16 -14 90 -34 211 -58 95 -18 399 -15 535 6 218 33 387 82
530 151 54 27 92 40 96 34 3 -5 12 -9 20 -7 11 2 14 -11 12 -67 -1 -79 -59
-257 -184 -575 -94 -237 -115 -280 -183 -385 -133 -204 -260 -340 -512 -551
-196 -163 -254 -246 -254 -361 l0 -63 -87 -44 c-373 -186 -835 -249 -1252
-170 -177 34 -401 110 -542 186 l-59 31 0 58 c0 34 -8 75 -19 101 -26 61 -107
155 -192 225 -223 180 -292 249 -416 413 -174 232 -303 471 -396 735 -79 223
-122 420 -99 453 8 11 17 9 51 -12 32 -20 41 -23 41 -11 0 19 -1 19 57 -6 136
-60 338 -113 528 -140 136 -19 420 -17 531 3 98 19 250 64 256 76 4 9 257 252
262 252 3 0 -7 -21 -22 -47z m1351 -2250 c-8 -32 -54 -139 -104 -238 -136
-275 -158 -389 -99 -518 17 -37 30 -69 30 -72 0 -13 -189 -94 -285 -124 -318
-97 -638 -102 -946 -16 -142 40 -349 137 -349 164 0 5 12 34 26 66 23 51 26
66 22 139 -6 103 -58 258 -138 411 -57 108 -95 206 -88 225 2 5 44 -21 93 -58
157 -118 315 -187 521 -229 129 -26 579 -26 708 0 208 42 378 118 534 238 48
37 88 68 89 68 0 1 -6 -25 -14 -56z m-1365 -1202 c232 -59 526 -63 767 -10 49
10 95 19 102 19 27 0 26 -70 -2 -183 -195 -793 -338 -1368 -348 -1395 -6 -18
-24 -48 -40 -67 -26 -32 -33 -35 -82 -35 -43 0 -59 5 -75 23 -38 39 -48 70
-109 318 -33 134 -117 473 -186 754 -116 473 -136 571 -118 588 8 9 4 10 91
-12z M4957 7709 c-83 -9 -98 -14 -254 -86 -103 -48 -121 -59 -101 -64 30 -9
1771 -11 1833 -2 l47 6 -123 39 c-196 61 -195 61 -312 37 -139 -29 -273 -23
-513 25 -167 32 -386 58 -473 55 -20 -1 -67 -5 -104 -10z M4500 6810 c0 -511
2 -529 61 -640 98 -183 343 -278 727 -282 217 -1 315 21 677 154 422 156 525
157 915 13 380 -140 497 -168 705 -167 463 3 732 142 784 405 6 29 11 254 13
517 l3 465 -1942 0 -1943 0 0 -465z m1064 325 l131 -26 780 4 c755 3 783 4
870 25 122 29 286 29 410 1 61 -14 144 -22 258 -26 154 -5 167 -7 167 -24 0
-12 7 -19 20 -19 20 0 20 -7 20 -372 l0 -373 -27 -54 c-27 -53 -80 -104 -139
-134 -43 -22 -226 -90 -304 -113 -48 -14 -97 -19 -190 -19 -136 0 -156 5 -325
75 -118 49 -149 59 -350 119 -250 74 -302 84 -445 84 -138 0 -217 -14 -425
-78 -66 -21 -144 -44 -172 -51 -29 -8 -97 -33 -150 -55 -203 -85 -236 -93
-373 -93 -137 -1 -157 4 -359 77 -137 49 -193 86 -243 157 l-38 53 0 389 0
388 25 0 c18 0 25 5 25 19 0 17 13 19 158 24 103 4 185 13 237 26 119 29 275
27 439 -4z M5258 6986 c-99 -27 -176 -109 -198 -209 -8 -32 -11 -119 -8 -227
3 -153 6 -181 24 -221 82 -177 313 -220 449 -84 73 74 80 103 80 335 0 188 -2
209 -21 251 -57 123 -199 191 -326 155z m112 -406 c0 -140 -1 -150 -20 -160
-12 -6 -30 -8 -40 -5 -19 6 -20 16 -20 161 l0 154 40 0 40 0 0 -150z M7486
6989 c-85 -21 -173 -104 -197 -186 -19 -66 -19 -380 0 -446 17 -59 85 -138
144 -166 134 -63 287 -13 361 119 l31 55 0 215 c0 202 -1 217 -22 256 -35 65
-70 101 -127 129 -60 29 -133 39 -190 24z m104 -413 l0 -154 -24 -6 c-54 -13
-56 -7 -56 160 l0 154 40 0 40 0 0 -154z M7309 4821 c-14 -5 -48 -24 -76 -43
-128 -88 -415 -138 -793 -138 -384 0 -640 45 -799 141 -91 55 -165 52 -235
-10 -48 -42 -69 -134 -45 -198 73 -195 631 -324 1264 -292 380 18 663 87 818
199 85 61 116 173 70 251 -38 67 -138 110 -204 90z M2184 7538 c-54 -17 -126
-80 -153 -132 -29 -57 -39 -150 -22 -213 15 -57 66 -121 124 -157 99 -61 250
-44 331 38 56 56 79 108 84 189 4 61 1 75 -28 133 -33 68 -85 116 -153 141
-39 14 -141 15 -183 1z M1750 6704 c-155 -42 -272 -170 -302 -333 -33 -175 72
-370 239 -449 52 -24 69 -27 168 -27 103 0 114 2 177 32 93 44 151 100 196
191 36 74 37 79 37 187 0 99 -3 116 -27 168 -86 183 -296 282 -488 231z m215
-287 l40 -23 3 -86 c3 -79 1 -88 -22 -115 -63 -75 -236 -63 -286 19 -30 49
-28 147 3 176 59 56 189 70 262 29z M2715 6136 c-93 -43 -165 -153 -165 -251
0 -93 68 -202 154 -248 33 -17 58 -22 126 -22 102 0 146 19 209 91 93 106 93
253 -1 359 -57 64 -124 95 -208 95 -47 0 -79 -7 -115 -24z M1621 5319 c-252
-50 -405 -198 -447 -431 -36 -198 19 -391 145 -511 86 -83 205 -135 346 -152
l55 -7 0 -694 0 -694 -581 -726 c-319 -399 -603 -758 -629 -798 -153 -227
-201 -388 -166 -556 42 -197 164 -326 374 -393 l67 -22 2252 -3 2251 -2 -238
356 -239 356 231 381 c126 210 234 387 240 394 7 8 -23 21 -109 48 -354 110
-438 137 -442 141 -3 3 -4 19 -3 37 1 18 16 241 32 497 16 256 32 489 35 518
l6 52 -314 0 c-173 0 -361 -5 -418 -10 -220 -23 -406 -76 -593 -170 -106 -53
-265 -156 -266 -172 0 -9 86 -22 141 -21 58 2 115 19 263 78 238 95 419 125
758 125 191 0 198 -1 198 -20 0 -15 7 -20 25 -20 l25 0 0 -435 c0 -494 -3
-472 85 -560 51 -51 90 -72 205 -110 99 -33 120 -48 120 -86 0 -32 -53 -138
-159 -316 -90 -153 -141 -264 -148 -325 -8 -66 22 -143 112 -293 40 -66 84
-142 99 -170 54 -103 34 -116 -198 -126 -151 -7 -183 -11 -271 -39 -118 -37
-252 -70 -280 -70 -12 1 2 12 35 28 75 37 170 129 208 200 61 114 87 296 57
398 -46 158 -103 238 -670 947 -264 331 -514 645 -555 697 -41 52 -80 101 -87
108 -7 8 -24 28 -38 46 l-25 33 0 695 0 696 58 7 c87 11 202 51 268 93 150 97
224 247 224 452 -1 271 -114 437 -360 524 l-85 31 -775 2 c-426 0 -795 -3
-819 -8z m1593 -283 c67 -20 110 -58 142 -123 57 -115 28 -291 -58 -356 -64
-49 -105 -57 -294 -57 l-174 0 0 -884 0 -884 212 -264 c251 -312 280 -348 288
-348 3 0 22 16 43 36 51 50 77 42 171 -49 82 -81 614 -743 698 -870 134 -200
171 -327 134 -462 -29 -109 -88 -186 -184 -238 -108 -59 -60 -57 -1770 -57
-1363 0 -1575 2 -1631 15 -210 50 -338 233 -301 430 13 70 78 214 132 293 76
113 435 570 612 781 80 95 148 151 183 151 13 0 37 -7 53 -15 28 -15 29 -15
83 48 29 34 143 174 252 310 l198 248 -6 492 c-4 271 -7 664 -7 875 l0 382
-97 0 c-151 1 -275 15 -320 39 -83 42 -133 134 -133 246 0 122 58 217 153 254
50 19 78 20 813 20 628 1 769 -1 808 -13z M1125 1643 c-353 -442 -446 -572
-490 -680 -56 -140 -10 -269 115 -327 l45 -21 1600 -3 c1757 -2 1660 -6 1737
58 49 41 78 104 85 187 5 63 3 74 -25 128 -51 100 -126 202 -484 652 l-343
431 -950 1 -950 0 -340 -426z m2182 182 c13 -3 39 -20 60 -38 41 -36 532 -645
605 -751 46 -66 48 -73 48 -136 0 -118 193 -105 -1599 -108 -1504 -2 -1557 -2
-1591 17 -31 16 -35 24 -38 61 -2 24 -1 54 2 67 11 41 115 184 354 483 262
327 315 388 353 404 27 11 1759 12 1806 1z M5025 3221 c-103 -51 -115 -60 -87
-60 41 -1 130 41 180 85 20 18 35 33 32 34 -3 0 -59 -27 -125 -59z M7769 3246
c26 -27 122 -73 172 -82 l34 -6 -45 27 c-44 27 -166 85 -178 85 -3 0 5 -11 17
-24z M8085 3078 c3 -18 19 -244 35 -503 16 -258 32 -493 35 -521 l6 -51 -53
-15 c-158 -46 -494 -152 -501 -159 -5 -4 40 -87 100 -185 60 -99 167 -274 237
-391 l127 -212 -192 -287 c-105 -158 -213 -318 -240 -355 l-49 -69 1371 0
1370 0 -4 657 c-5 689 -4 687 -52 873 -134 529 -543 973 -1062 1153 -225 79
-379 97 -821 97 l-313 0 6 -32z m905 -211 c246 -55 462 -157 644 -306 215
-176 370 -398 452 -648 l34 -104 0 -650 0 -650 -1076 3 c-1053 3 -1076 3
-1090 22 -19 27 -12 44 68 169 38 60 86 143 106 185 33 69 37 86 37 157 0 78
-2 83 -62 205 -34 69 -93 178 -132 243 -39 65 -78 134 -87 155 -26 63 -16 74
94 110 149 49 205 91 270 205 22 38 22 44 22 489 l0 450 303 -5 c277 -4 312
-7 417 -30z M5410 340 c-10 -6 67 -10 228 -10 160 0 241 3 237 10 -8 13 -445
13 -465 0z M6990 340 c-10 -6 72 -9 240 -9 143 1 244 5 230 9 -36 12 -452 12
-470 0z"/>
</g>
</svg>
