<?xml version="1.0" standalone="no"?>
<!DOCTYPE svg PUBLIC "-//W3C//DTD SVG 20010904//EN"
 "http://www.w3.org/TR/2001/REC-SVG-20010904/DTD/svg10.dtd">
<svg version="1.0" xmlns="http://www.w3.org/2000/svg"
 width="2048.000000pt" height="2048.000000pt" viewBox="0 0 2048.000000 2048.000000"
 preserveAspectRatio="xMidYMid meet">
<metadata>
Created by potrace 1.13, written by Peter Selinger 2001-2015
</metadata>
<g transform="translate(0.000000,2048.000000) scale(0.192120,-0.192120)"
fill="#000000" stroke="none">
<path d="M1330 10325 c-8 -2 -49 -9 -90 -15 -221 -36 -439 -156 -609 -336
-130 -137 -213 -289 -270 -493 l-26 -96 -3 -3165 c-2 -2189 1 -3190 8 -3247
17 -134 47 -232 110 -358 148 -297 390 -493 727 -587 77 -22 89 -22 991 -25
l913 -4 -15 29 c-25 49 -68 94 -103 108 -26 11 -169 14 -765 14 -733 0 -859 5
-986 37 -295 73 -572 327 -667 612 l-25 76 0 3295 0 3295 23 65 c38 105 103
207 191 296 130 130 275 215 456 265 l85 24 3210 0 c3035 0 3214 -1 3283 -18
144 -35 292 -103 379 -173 23 -19 45 -34 50 -34 15 0 95 -94 151 -179 33 -51
75 -134 104 -210 27 -69 55 -139 63 -156 47 -105 105 -225 124 -255 l22 -35
-4 175 c-5 190 -18 260 -77 406 -143 356 -478 622 -857 679 -85 13 -522 15
-3238 14 -1727 -1 -3147 -3 -3155 -4z M1383 9939 c-165 -20 -335 -107 -448
-231 -61 -68 -136 -196 -160 -274 -22 -73 -22 -6464 0 -6537 29 -96 87 -189
167 -269 127 -126 274 -199 441 -218 113 -13 1627 -13 1627 0 0 6 24 10 53 10
63 0 139 25 262 84 l90 44 -1010 1 c-848 1 -1021 4 -1080 16 -198 42 -358 194
-422 401 -17 57 -18 181 -18 3199 0 3020 1 3142 18 3200 59 191 200 332 392
391 58 18 166 19 3205 19 l3145 0 78 -27 c42 -16 96 -40 119 -55 61 -38 143
-118 183 -179 39 -58 56 -61 80 -13 21 39 19 66 -10 126 -44 96 -164 203 -290
258 -128 57 -263 65 -650 40 -284 -19 -510 -18 -765 2 -179 14 -506 16 -2570
18 -1301 2 -2398 -1 -2437 -6z M6635 9629 c-451 -23 -1002 -205 -1420 -468
-265 -167 -591 -456 -769 -681 -426 -536 -654 -1175 -706 -1975 -21 -319 -8
-1468 20 -1880 61 -868 205 -1351 437 -1458 121 -56 373 -10 818 148 331 118
613 214 708 240 l97 28 0 43 c0 39 -3 45 -32 60 -62 32 -207 134 -295 207
-412 344 -735 877 -881 1452 l-35 140 -76 0 c-65 0 -84 5 -129 30 -122 67
-236 239 -282 425 -44 178 -35 445 20 606 73 211 203 354 348 383 105 20 195
-12 293 -106 l57 -54 39 34 c21 18 88 73 148 122 161 130 172 140 513 479
l312 310 68 -38 c147 -82 496 -248 652 -309 371 -146 717 -227 973 -227 468
-1 906 -140 1184 -377 l52 -44 15 28 c20 39 113 127 160 152 69 36 137 45 208
26 124 -31 218 -120 294 -280 159 -333 110 -808 -108 -1040 -31 -34 -81 -74
-110 -91 -48 -26 -62 -29 -146 -29 -91 0 -93 -1 -99 -25 -79 -352 -224 -709
-398 -980 -196 -305 -473 -589 -734 -751 l-70 -44 0 -55 -1 -55 118 -34 c64
-19 281 -92 481 -163 387 -137 550 -188 677 -212 196 -36 320 -29 431 25 196
95 285 373 323 1019 29 485 36 2144 10 2415 -79 843 -375 1529 -889 2058 -273
281 -557 486 -893 647 -471 224 -921 322 -1383 299z m292 -289 c308 -24 592
-96 924 -236 375 -157 556 -280 855 -578 355 -355 566 -712 711 -1199 30 -101
37 -142 41 -239 2 -65 1 -118 -3 -118 -4 0 -38 25 -75 55 -101 82 -185 118
-291 123 -99 5 -157 -9 -263 -63 -40 -20 -85 -35 -105 -35 -23 0 -74 21 -157
65 -147 78 -262 125 -398 164 -197 57 -322 76 -604 91 -453 24 -782 118 -1327
377 -267 128 -332 153 -393 153 -107 0 -196 -66 -519 -382 -355 -348 -452
-428 -521 -428 -19 0 -75 14 -125 31 -80 27 -100 30 -182 27 -84 -3 -99 -6
-176 -45 -59 -29 -109 -64 -166 -117 -44 -42 -84 -76 -87 -76 -15 0 -5 207 15
289 74 313 207 625 377 883 494 747 1367 1230 2292 1266 25 1 104 -3 177 -8z
m-2866 -3822 c78 -97 179 -187 254 -229 41 -22 83 -53 94 -67 10 -15 47 -101
81 -192 94 -249 179 -432 268 -580 152 -251 260 -394 449 -593 57 -59 103
-111 103 -116 0 -19 -41 -59 -67 -66 -15 -3 -45 -15 -68 -25 -55 -24 -369
-136 -482 -171 -247 -76 -387 -78 -449 -8 -91 105 -155 347 -215 814 -20 152
-23 228 -26 728 -3 360 -1 557 5 557 6 0 29 -24 53 -52z m5469 -731 c0 -778
-4 -866 -54 -1087 -38 -170 -86 -248 -164 -270 -57 -15 -177 -12 -277 9 -196
40 -554 151 -728 225 -48 21 -77 46 -77 67 0 10 47 66 104 126 129 134 194
212 280 332 181 255 328 541 445 868 60 169 61 170 175 217 62 26 160 101 222
171 32 36 62 65 66 65 4 0 8 -325 8 -723z M3050 8379 c-94 -19 -185 -104 -210
-199 -7 -25 -9 -833 -8 -2456 l3 -2419 22 -40 c50 -93 147 -154 244 -155 114
0 206 56 256 158 l28 57 0 2415 c0 2345 -1 2416 -19 2464 -49 127 -183 201
-316 175z M1913 6982 c-93 -33 -158 -99 -183 -187 -8 -29 -10 -509 -8 -1765
l3 -1725 22 -41 c109 -204 396 -205 497 -2 l26 52 0 1735 0 1736 -24 50 c-58
126 -207 192 -333 147z m105 -1929 l-3 -1668 -25 0 -25 0 -3 1655 c-1 910 0
1661 3 1668 2 6 16 12 30 12 l25 0 -2 -1667z M5770 6357 c-19 -6 -58 -34 -86
-62 -68 -67 -77 -109 -72 -310 4 -170 16 -207 85 -264 121 -100 298 -59 364
84 16 34 19 66 19 211 0 128 -4 180 -15 207 -47 114 -175 172 -295 134z M7646
6356 c-56 -21 -123 -90 -142 -148 -12 -38 -15 -81 -12 -211 4 -182 13 -215 82
-275 97 -85 238 -73 329 27 52 58 59 92 55 287 -3 170 -3 171 -33 220 -58 93
-179 137 -279 100z M6503 5205 c-83 -36 -96 -177 -22 -239 l31 -26 269 0 c298
0 314 3 345 62 22 42 15 139 -12 169 -40 45 -68 49 -331 49 -188 -1 -256 -4
-280 -15z M6125 4647 c-43 -20 -92 -80 -105 -128 -31 -114 51 -215 255 -314
304 -149 704 -146 1011 5 109 54 212 138 234 190 21 50 9 142 -24 184 -41 54
-97 79 -166 74 -47 -3 -66 -11 -120 -50 -142 -100 -243 -131 -435 -131 -191 0
-316 38 -444 136 -47 36 -61 42 -115 44 -37 2 -73 -2 -91 -10z M5864 3618 c-9
-14 83 -102 164 -156 182 -124 409 -189 692 -199 393 -14 714 81 929 274 45
41 53 52 46 72 -8 27 -1 29 -170 -43 -495 -210 -1011 -210 -1503 1 -151 64
-150 64 -158 51z M5820 3325 l0 -224 61 -113 c287 -528 660 -1017 846 -1112
74 -37 136 -12 260 107 209 200 470 568 700 986 l73 133 0 214 0 214 -24 0
c-55 0 -117 -93 -146 -220 -7 -30 -16 -63 -21 -72 -5 -10 -9 -32 -9 -50 0 -18
-9 -46 -20 -63 -11 -16 -20 -36 -20 -43 0 -12 -123 -235 -143 -257 -4 -5 -50
-73 -100 -150 -204 -309 -354 -492 -441 -537 -34 -17 -45 -19 -78 -9 -51 16
-145 105 -245 233 -171 218 -472 692 -473 742 -1 12 -7 32 -15 46 -8 14 -14
46 -15 71 0 44 -42 185 -73 244 -20 40 -48 64 -86 75 l-31 9 0 -224z M8111
3265 l0 -60 16 31 c14 28 14 34 0 60 l-16 29 0 -60z M4903 3099 c-343 -31
-716 -147 -994 -311 -161 -96 -270 -179 -395 -303 -170 -170 -278 -336 -344
-533 -58 -175 -60 -200 -60 -943 l0 -679 1735 0 c954 0 1735 2 1735 4 0 2 -24
71 -54 152 -29 82 -248 706 -486 1387 l-433 1237 -306 -1 c-168 -1 -347 -5
-398 -10z m351 -139 c34 -21 81 -46 105 -55 73 -26 111 -61 146 -139 39 -84
713 -2007 731 -2085 15 -62 9 -106 -15 -118 -9 -4 -83 -10 -166 -14 -197 -9
-238 -17 -334 -67 -44 -23 -82 -42 -85 -42 -12 0 -5 58 50 438 30 213 56 396
57 406 2 17 -52 37 -413 157 -393 131 -415 139 -412 161 1 13 57 320 124 683
66 363 123 672 125 688 3 15 10 27 16 27 6 0 38 -18 71 -40z m-300 -209 c6
-73 4 -86 -64 -461 -74 -406 -90 -512 -90 -610 0 -85 3 -103 26 -146 38 -73
100 -131 179 -168 39 -18 174 -68 302 -110 l232 -77 4 -102 c5 -139 -26 -346
-62 -419 l-27 -53 -1042 -3 -1042 -2 0 603 c0 601 0 602 24 688 41 152 103
248 243 379 236 220 593 410 932 494 112 28 254 51 342 55 l36 1 7 -69z M5708
3103 c12 -2 30 -2 40 0 9 3 -1 5 -23 4 -22 0 -30 -2 -17 -4z M7833 3103 c9 -2
23 -2 30 0 6 3 -1 5 -18 5 -16 0 -22 -2 -12 -5z M7958 3089 c-3 -13 -249 -634
-548 -1379 -298 -745 -545 -1361 -547 -1367 -4 -10 346 -13 1731 -13 l1737 0
-4 713 c-4 774 -2 745 -63 932 -160 488 -669 905 -1293 1060 -231 58 -313 66
-677 72 l-331 5 -5 -23z m502 -794 c33 -363 61 -673 63 -688 l2 -28 -410 -136
c-225 -74 -413 -138 -417 -142 -3 -3 20 -188 53 -411 32 -223 58 -418 59 -433
l0 -28 -42 26 c-24 15 -75 42 -115 61 -70 33 -74 34 -202 34 -106 0 -137 3
-175 20 -45 19 -46 20 -46 66 0 32 16 87 56 188 31 77 87 224 126 326 38 102
86 223 107 270 21 47 148 357 281 690 133 333 256 633 273 668 35 72 105 142
141 142 13 0 26 4 28 8 2 5 35 30 73 55 l70 47 7 -37 c4 -21 35 -335 68 -698z
m315 499 c371 -70 739 -247 971 -467 113 -107 174 -188 237 -317 l52 -105 3
-652 3 -653 -1035 0 -1034 0 -20 33 c-40 66 -83 336 -73 461 l6 79 261 88
c144 48 280 97 303 109 81 41 149 118 178 200 20 57 15 243 -17 594 -19 210
-30 390 -30 498 l0 170 28 -6 c15 -3 90 -17 167 -32z"/>
</g>
</svg>
