<?xml version="1.0" standalone="no"?>
<!DOCTYPE svg PUBLIC "-//W3C//DTD SVG 20010904//EN"
 "http://www.w3.org/TR/2001/REC-SVG-20010904/DTD/svg10.dtd">
<svg version="1.0" xmlns="http://www.w3.org/2000/svg"
 width="2048.000000pt" height="2048.000000pt" viewBox="0 0 2048.000000 2048.000000"
 preserveAspectRatio="xMidYMid meet">
<metadata>
Created by potrace 1.13, written by Peter Selinger 2001-2015
</metadata>
<g transform="translate(0.000000,2048.000000) scale(0.192120,-0.192120)"
fill="#000000" stroke="none">
<path d="M5000 10320 c-561 -39 -1063 -152 -1520 -343 -804 -335 -1326 -862
-1457 -1470 -23 -103 -25 -397 -4 -502 76 -391 322 -756 716 -1066 59 -46 63
-51 69 -101 4 -29 16 -104 27 -165 l21 -113 -54 -58 c-95 -103 -165 -269 -189
-448 -15 -115 -6 -304 21 -414 29 -121 105 -272 172 -341 51 -54 139 -109 172
-109 17 0 18 -4 41 -150 60 -380 229 -813 449 -1150 144 -220 395 -493 574
-625 l81 -60 1 -148 0 -148 23 12 c37 19 67 51 67 72 0 18 2 18 33 -6 146
-118 322 -216 477 -267 347 -115 868 -116 1210 -4 120 39 307 137 408 214 52
38 96 70 98 70 2 0 10 -13 19 -30 13 -25 59 -60 80 -60 3 0 5 66 5 148 l1 147
81 60 c108 79 325 294 425 421 216 273 368 558 483 904 55 164 111 390 125
505 10 81 15 95 31 95 33 0 121 55 172 109 66 68 141 217 172 341 74 295 6
662 -156 848 l-45 51 10 58 c6 32 15 112 20 177 6 66 14 122 18 126 5 4 44 36
88 71 345 276 572 607 661 963 36 140 44 378 19 527 -35 212 -133 442 -273
639 -94 134 -327 365 -484 481 -532 394 -1238 643 -2048 724 -185 18 -665 27
-840 15z m-650 -413 c-1 -18 -7 -43 -15 -57 -10 -18 -14 -59 -14 -140 l-1
-115 45 -84 c25 -45 45 -89 45 -96 0 -24 -46 -43 -171 -70 -267 -57 -542 -135
-769 -218 -368 -133 -606 -250 -681 -333 -43 -48 -79 -107 -79 -132 0 -12 -7
-25 -15 -28 -12 -5 -15 -28 -15 -120 0 -107 -1 -114 -20 -114 -17 0 -20 -7
-20 -45 0 -42 -2 -46 -40 -65 -62 -32 -163 -133 -198 -199 -66 -123 -34 -247
98 -380 36 -36 75 -74 88 -83 32 -25 31 -106 -1 -144 l-23 -27 -38 33 c-63 56
-186 259 -186 309 0 13 -9 40 -19 60 -10 20 -29 71 -41 113 -20 72 -21 95 -18
320 4 234 5 246 31 318 192 530 836 1008 1687 1249 168 48 352 90 363 84 4 -2
7 -19 7 -36z m2185 -9 c499 -123 983 -349 1305 -607 206 -164 391 -389 473
-571 67 -150 69 -162 65 -482 l-3 -293 -37 -77 c-21 -42 -38 -86 -38 -98 0
-35 -108 -218 -163 -277 -46 -49 -72 -44 -92 17 -23 68 -14 99 38 131 50 30
123 114 162 184 15 28 31 54 36 60 5 5 9 40 9 77 0 56 -5 76 -25 108 -14 22
-25 44 -25 50 0 24 -146 156 -193 176 -45 18 -47 20 -47 60 0 28 -5 44 -15 48
-12 4 -15 27 -15 116 0 67 -4 110 -10 110 -5 0 -10 11 -10 25 0 14 -4 25 -10
25 -5 0 -10 8 -10 18 0 22 -63 99 -117 143 -115 92 -539 270 -902 379 -148 44
-245 69 -549 140 -87 20 -112 33 -112 56 0 8 19 54 42 102 39 79 43 95 46 177
3 73 0 101 -17 145 -12 30 -21 68 -21 83 0 27 2 28 38 21 20 -3 109 -24 197
-46z m-1752 -2 c18 -7 44 -25 59 -40 23 -23 38 -28 100 -33 99 -7 228 18 276
55 31 24 44 27 111 27 67 0 81 -3 117 -28 57 -38 168 -60 268 -53 67 5 82 9
105 32 36 37 81 54 141 54 115 0 200 -87 200 -205 0 -106 -67 -187 -170 -204
l-35 -6 -7 -133 c-26 -502 -237 -840 -563 -903 -138 -26 -335 65 -450 209
-132 166 -209 408 -222 695 -6 136 -6 137 -30 137 -32 0 -93 26 -121 53 -83
77 -83 229 0 303 58 53 151 70 221 40z m-116 -670 c-23 -58 -47 -154 -47 -184
0 -57 29 -160 70 -249 94 -203 211 -322 435 -443 52 -28 95 -55 95 -60 0 -32
-72 -34 -1145 -38 -588 -1 -1072 -6 -1075 -10 -12 -16 -151 -82 -160 -77 -6 4
-10 105 -10 253 l0 247 78 42 c379 205 1012 416 1492 497 234 40 275 44 267
22z m1472 -2 c500 -73 1058 -245 1519 -470 l172 -84 0 -260 c0 -143 -4 -260
-8 -260 -4 0 -12 4 -18 9 -15 16 -132 71 -148 71 -9 0 -16 5 -16 10 0 7 -344
10 -1012 10 -1040 0 -1188 5 -1188 41 0 5 33 25 73 45 92 47 219 129 279 183
89 79 185 236 230 376 30 96 29 180 -6 269 -14 37 -26 70 -26 72 0 7 42 4 149
-12z m1890 -1132 c99 -50 105 -177 12 -239 l-34 -23 -2677 0 -2677 0 -34 23
c-93 62 -87 189 12 239 32 17 182 18 2699 18 2517 0 2667 -1 2699 -18z m-5123
-479 c295 -154 992 -279 1809 -324 255 -14 1018 -13 1245 1 879 55 1530 174
1815 333 32 18 47 22 50 14 44 -130 66 -410 49 -597 l-7 -66 -50 -12 c-69 -16
-120 -52 -147 -104 -20 -39 -23 -61 -28 -215 l-5 -171 -31 -5 c-51 -7 -54 -3
-267 393 -91 170 -147 237 -228 272 -41 18 -79 21 -336 29 -297 9 -544 23
-695 39 -147 17 -139 8 30 -35 218 -55 538 -98 835 -111 l151 -7 214 -420
c231 -455 259 -497 324 -497 63 0 109 68 162 239 l31 104 18 -89 c23 -114 34
-588 15 -674 -18 -80 -73 -179 -149 -265 -181 -207 -200 -240 -237 -399 -40
-179 -217 -668 -320 -886 -83 -174 -212 -340 -411 -526 -198 -186 -252 -244
-293 -311 -31 -51 -35 -65 -35 -127 l-1 -71 -39 -27 c-53 -36 -243 -129 -330
-161 -231 -85 -403 -118 -651 -124 -211 -6 -330 4 -500 42 -209 48 -391 117
-564 217 l-95 55 3 59 c6 107 -51 192 -247 369 -228 206 -385 423 -561 775
-75 149 -184 471 -215 630 -43 226 -63 266 -225 435 -171 179 -180 206 -180
554 0 227 3 273 25 401 13 80 25 150 25 155 1 6 12 -18 25 -53 64 -167 143
-272 205 -272 47 0 66 31 96 159 76 328 206 627 380 878 35 50 64 94 64 97 0
11 -102 -35 -145 -64 -59 -41 -112 -107 -182 -230 -81 -143 -106 -190 -148
-292 -39 -91 -62 -122 -83 -109 -7 4 -25 55 -41 112 -15 58 -35 119 -44 136
-24 45 -68 78 -123 92 -27 7 -54 14 -60 16 -30 9 -29 384 2 563 17 99 21 115
32 110 4 -2 34 -17 68 -35z m3227 -40 c92 -4 127 -10 127 -19 0 -15 -59 -20
-440 -35 -429 -18 -1182 -11 -1203 10 -6 6 -28 11 -49 11 -26 0 -38 4 -38 14
0 11 14 16 48 19 85 6 1424 7 1555 0z M4560 7217 c0 -9 153 -64 198 -71 57 -8
112 7 143 40 21 24 22 26 4 20 -59 -22 -209 -17 -322 11 -13 3 -23 3 -23 0z
M5250 7149 c84 -78 208 -168 275 -200 105 -50 145 -35 145 55 0 51 -20 136
-40 166 -8 12 -15 9 -43 -18 -63 -62 -98 -60 -307 17 l-85 31 55 -51z M4120
6423 c-27 -10 -65 -37 -96 -68 -74 -74 -84 -114 -84 -330 0 -207 10 -251 75
-323 63 -70 127 -96 221 -90 111 7 189 61 236 163 22 47 23 62 23 250 0 199 0
200 -28 257 -64 131 -208 189 -347 141z M6344 6424 c-60 -21 -119 -77 -151
-142 -28 -57 -28 -58 -28 -262 0 -203 0 -205 27 -256 50 -95 126 -145 233
-152 93 -6 158 21 220 90 65 72 75 116 75 323 0 216 -10 256 -83 330 -80 80
-190 106 -293 69z M5034 5241 c-79 -36 -136 -142 -119 -223 12 -59 53 -116
103 -145 47 -28 47 -28 267 -31 121 -2 243 -1 271 3 94 11 169 81 189 173 17
80 -40 187 -119 223 -36 17 -69 19 -296 19 -227 0 -260 -2 -296 -19z M4384
4260 c-51 -11 -98 -46 -123 -90 -32 -57 -27 -142 12 -193 77 -101 318 -192
617 -232 171 -23 528 -31 715 -16 469 38 781 159 813 315 16 80 -8 142 -75
193 -31 24 -46 28 -99 28 -54 0 -67 -4 -108 -33 -152 -109 -571 -170 -988
-144 -303 19 -490 60 -616 135 -63 38 -101 48 -148 37z M3950 2925 c-79 -59
-181 -231 -188 -320 l-4 -55 -83 0 -82 0 -7 38 c-12 80 -77 128 -160 119 -28
-3 -417 -64 -864 -135 -546 -88 -820 -135 -837 -146 -34 -23 -58 -72 -56 -120
0 -23 12 -106 25 -186 24 -142 25 -145 61 -178 l37 -34 -31 -42 c-104 -139
-201 -336 -251 -510 -57 -193 -62 -241 -67 -649 l-5 -377 3891 0 3891 0 0 309
c0 404 -15 544 -81 756 -45 146 -147 347 -236 465 l-34 45 29 25 c44 37 49 52
77 229 22 132 24 168 15 196 -15 46 -59 81 -117 93 -26 6 -413 67 -858 138
-534 84 -820 125 -839 120 -42 -10 -84 -57 -97 -110 l-11 -46 -84 0 -83 0 5
33 c14 82 -119 306 -209 353 -29 16 -52 9 -78 -22 -38 -46 -396 -307 -904
-659 -165 -114 -309 -216 -320 -227 l-20 -20 98 6 c135 9 191 22 267 63 82 45
275 173 500 335 199 142 249 175 304 200 53 25 76 23 112 -9 71 -64 150 -103
209 -103 21 0 25 -5 25 -31 0 -153 -292 -1237 -380 -1409 -27 -52 -25 -60 9
-60 41 0 110 55 148 119 48 80 130 338 229 721 25 96 52 185 60 197 22 35 50
37 98 9 95 -55 195 -81 371 -96 66 -6 134 -12 150 -15 17 -3 248 -39 515 -81
267 -41 503 -82 526 -90 129 -48 248 -264 330 -599 22 -92 24 -120 24 -337 0
-231 -1 -238 -20 -238 -11 0 -20 -7 -20 -15 0 -13 -158 -15 -1357 -15 -1420
-1 -1418 -1 -1498 -43 -17 -8 -45 -27 -64 -41 -19 -14 -38 -26 -42 -26 -4 0
-24 51 -45 113 -50 152 -114 295 -177 397 l-52 84 77 130 c43 72 80 143 83
158 4 15 11 28 17 28 5 0 47 -26 91 -59 122 -87 374 -254 440 -291 140 -78 70
19 -215 302 -228 226 -475 429 -738 607 l-117 80 -119 -81 c-324 -220 -664
-513 -911 -786 -86 -96 -107 -132 -84 -146 9 -6 237 144 449 296 68 48 125 88
127 88 2 0 8 -15 15 -34 6 -18 44 -91 85 -161 41 -71 75 -131 75 -134 0 -3
-16 -21 -35 -41 -75 -77 -158 -256 -206 -447 -13 -48 -26 -92 -31 -97 -4 -5
-32 8 -65 31 -116 81 37 73 -1483 73 -1202 0 -1360 2 -1360 15 0 11 -11 15
-41 15 l-40 0 3 328 4 327 35 100 c74 207 174 366 253 405 48 23 941 169 1161
190 199 18 363 59 447 110 26 16 33 16 58 3 35 -17 44 -42 105 -273 111 -421
189 -648 246 -711 37 -41 99 -79 128 -79 26 0 69 20 44 20 -60 1 -342 983
-419 1458 -4 26 -2 32 14 32 52 0 124 33 177 81 53 49 58 51 100 47 55 -7 205
-95 435 -258 228 -160 397 -274 447 -300 63 -32 137 -49 248 -56 89 -6 98 -5
85 9 -8 8 -166 119 -350 248 -492 342 -761 536 -871 631 -31 26 -61 48 -66 48
-5 0 -24 -11 -43 -25z m-582 -382 c73 -54 94 -147 49 -214 -70 -104 -197 -106
-271 -6 -32 44 -29 132 6 179 15 19 42 42 60 52 42 21 120 16 156 -11z m4056
-6 c42 -33 71 -102 63 -153 -8 -47 -51 -102 -93 -120 -70 -29 -154 -7 -198 53
-21 28 -32 98 -22 137 8 34 54 86 91 102 45 21 117 12 159 -19z m-3806 -151
c17 -89 15 -126 -8 -163 -27 -46 -60 -59 -190 -78 -63 -9 -164 -25 -225 -35
-128 -23 -1225 -195 -1303 -205 l-52 -7 19 44 c22 51 61 202 61 234 0 12 7 24
15 28 8 3 15 12 15 20 0 16 42 27 205 51 61 8 240 36 400 61 197 31 291 42
293 35 2 -6 11 -11 20 -11 10 0 40 -21 67 -47 69 -64 152 -116 219 -137 158
-50 343 27 392 163 33 90 43 111 52 111 5 0 14 -29 20 -64z m3500 -115 c31
-42 108 -89 170 -102 121 -25 239 20 367 140 47 45 92 81 100 81 8 0 115 -16
237 -35 123 -20 329 -51 458 -71 129 -19 242 -37 251 -39 9 -3 21 -17 27 -30
6 -14 16 -25 20 -25 5 0 12 -34 15 -76 4 -42 18 -107 31 -146 l25 -70 -52 7
c-69 9 -1107 173 -1414 224 -132 22 -250 45 -262 53 -11 7 -31 31 -43 54 -21
39 -21 45 -9 115 l14 73 23 -64 c12 -35 31 -75 42 -89z m-1673 -505 c148 -70
285 -209 285 -288 0 -43 -49 -196 -90 -283 -17 -35 -48 -79 -71 -100 l-42 -37
-106 6 c-59 4 -137 3 -176 -3 -129 -19 -180 28 -244 224 -55 167 -55 169 -26
232 35 77 167 208 254 251 84 42 127 42 216 -2z m65 -872 c75 -36 146 -95 200
-168 41 -56 100 -157 100 -172 0 -5 -166 -9 -407 -9 -225 0 -439 -4 -476 -9
l-68 -8 16 38 c20 50 95 163 140 213 48 52 133 110 197 133 84 29 213 22 298
-18z"/>
</g>
</svg>
