<?xml version="1.0" standalone="no"?>
<!DOCTYPE svg PUBLIC "-//W3C//DTD SVG 20010904//EN"
 "http://www.w3.org/TR/2001/REC-SVG-20010904/DTD/svg10.dtd">
<svg version="1.0" xmlns="http://www.w3.org/2000/svg"
 width="2048.000000pt" height="2048.000000pt" viewBox="0 0 2048.000000 2048.000000"
 preserveAspectRatio="xMidYMid meet">
<metadata>
Created by potrace 1.13, written by Peter Selinger 2001-2015
</metadata>
<g transform="translate(0.000000,2048.000000) scale(0.192120,-0.192120)"
fill="#000000" stroke="none">
<path d="M2355 10319 c-219 -22 -475 -86 -684 -171 l-125 -51 -88 6 c-190 12
-478 -27 -678 -94 -120 -39 -283 -112 -378 -167 l-72 -43 3 -1712 c3 -1880 -1
-1758 63 -2017 121 -489 441 -938 869 -1219 114 -75 291 -167 388 -202 l67
-24 0 -197 c0 -133 3 -198 11 -198 24 0 119 55 125 72 3 10 10 16 15 13 5 -4
9 52 9 138 0 131 -2 149 -22 187 -42 77 -140 163 -267 231 -289 155 -497 323
-661 534 -231 298 -341 559 -399 947 -19 122 -21 183 -21 577 0 287 -3 441
-10 441 -5 0 -10 9 -10 20 0 11 -4 20 -10 20 -5 0 -10 6 -10 13 0 7 -15 37
-34 67 -19 30 -33 56 -32 58 2 1 70 7 152 12 562 36 1045 137 1474 307 500
198 942 489 1287 847 63 65 115 117 117 115 1 -2 12 -34 24 -71 86 -269 240
-562 400 -759 165 -205 385 -355 600 -409 l42 -11 0 -574 c0 -489 -2 -574 -14
-569 -19 7 -85 -28 -118 -63 -46 -48 -68 -109 -68 -193 0 -59 5 -83 21 -110
23 -38 69 -90 79 -90 10 0 46 130 64 227 14 76 20 88 79 165 253 328 416 712
484 1140 25 162 25 557 0 718 -78 489 -297 947 -621 1298 -395 428 -895 692
-1470 778 -123 18 -458 26 -581 13z m476 -259 c549 -56 1049 -302 1429 -705
241 -254 405 -554 504 -915 l31 -115 0 -450 0 -450 -28 -105 c-37 -140 -63
-192 -91 -188 -29 4 -33 33 -35 236 -1 146 -3 172 -16 172 -8 0 -15 6 -15 13
0 29 -41 96 -84 135 -24 22 -96 67 -158 98 -147 73 -207 114 -297 199 -157
149 -294 354 -411 614 -82 184 -105 224 -146 261 -107 94 -159 75 -411 -147
-184 -163 -253 -217 -409 -323 -283 -192 -548 -321 -931 -454 -106 -36 -228
-82 -270 -100 -105 -46 -144 -54 -308 -60 -77 -3 -193 -12 -257 -20 -65 -9
-172 -18 -238 -22 l-120 -7 2 969 3 968 115 47 c231 93 396 125 695 138 l191
8 179 61 c251 85 422 124 625 145 81 8 355 6 451 -3z M7890 10324 c-881 -81
-1635 -593 -2015 -1369 -178 -363 -250 -673 -250 -1080 0 -282 25 -463 96
-705 82 -278 246 -596 419 -815 39 -49 49 -71 59 -125 14 -84 30 -140 39 -140
16 0 64 39 87 70 59 80 10 213 -96 262 -29 14 -51 31 -53 43 -3 11 -7 262 -11
557 l-6 537 33 5 c18 3 78 8 133 11 128 8 412 48 568 81 661 140 1205 390
1694 780 54 43 170 149 257 236 88 87 160 157 161 155 1 -1 12 -33 25 -72 114
-354 316 -697 528 -897 178 -167 362 -258 592 -295 l107 -17 -39 -65 c-21 -36
-38 -74 -38 -83 0 -10 -4 -18 -10 -18 -7 0 -10 -147 -10 -420 0 -420 -9 -569
-49 -775 -37 -190 -151 -473 -254 -625 -208 -308 -427 -501 -790 -695 -107
-57 -139 -80 -189 -134 -33 -36 -67 -80 -74 -98 -17 -40 -19 -290 -3 -326 10
-21 103 -77 129 -77 6 0 10 76 10 198 l0 197 78 29 c175 65 407 203 572 342
344 288 594 702 689 1139 52 241 52 220 49 2015 l-3 1665 -150 75 c-82 42
-201 92 -263 113 -220 72 -497 112 -700 101 -90 -6 -101 -4 -157 21 -168 77
-418 148 -625 180 -101 15 -447 27 -540 19z m570 -284 c156 -26 229 -45 454
-122 l179 -60 194 -9 c192 -9 262 -17 392 -44 90 -19 251 -71 329 -106 l62
-28 0 -960 c0 -529 -4 -961 -8 -961 -24 0 -126 36 -186 66 -245 123 -463 384
-636 764 -95 208 -114 243 -156 280 -110 96 -165 74 -430 -165 -305 -276 -655
-497 -1037 -655 -130 -53 -381 -147 -437 -163 -130 -37 -524 -106 -755 -132
-77 -9 -158 -20 -179 -26 -71 -19 -161 -89 -172 -134 -3 -14 -10 -25 -15 -25
-5 0 -9 -9 -9 -20 0 -11 -7 -20 -15 -20 -13 0 -15 -27 -15 -179 0 -99 -3 -186
-6 -195 -5 -14 -8 -14 -30 1 -33 21 -58 80 -94 218 l-30 116 0 397 c0 382 1
401 24 502 88 387 272 720 562 1016 121 123 198 187 356 293 286 192 667 331
1019 370 141 16 495 6 639 -19z M1347 7536 c-65 -24 -120 -73 -155 -141 -27
-49 -27 -52 -27 -255 0 -204 0 -205 28 -262 87 -177 304 -212 444 -73 73 74
83 114 83 330 0 123 -4 186 -15 222 -18 60 -81 135 -139 165 -52 27 -165 34
-219 14z M3262 7520 c-66 -34 -99 -68 -131 -140 -18 -40 -21 -66 -21 -245 0
-189 2 -203 24 -250 46 -100 127 -155 239 -163 61 -4 73 -2 133 28 48 23 75
44 97 77 52 72 55 92 56 304 1 227 -7 265 -72 332 -57 58 -108 80 -192 85 -63
3 -77 0 -133 -28z M7185 7537 c-84 -32 -143 -91 -170 -168 -19 -53 -20 -416
-2 -466 25 -68 73 -120 141 -153 60 -30 72 -32 133 -28 112 8 193 63 239 163
22 47 24 61 24 251 l0 201 -31 63 c-49 98 -132 148 -244 148 -33 0 -74 -5 -90
-11z M9105 7527 c-66 -31 -131 -105 -150 -170 -11 -36 -15 -99 -15 -222 0
-216 10 -256 83 -330 140 -139 357 -104 444 73 28 57 28 58 28 262 0 203 0
205 -27 256 -51 97 -127 146 -238 151 -64 3 -83 0 -125 -20z M2203 6280 c-46
-27 -65 -62 -65 -116 0 -51 18 -83 66 -118 25 -19 41 -21 210 -21 158 0 185 2
209 18 64 42 86 131 47 194 -34 57 -59 63 -257 63 -159 0 -181 -2 -210 -20z
M8033 6280 c-85 -51 -83 -180 4 -237 24 -16 51 -18 209 -18 169 0 185 2 210
21 48 35 66 67 66 118 0 54 -19 89 -65 116 -29 18 -51 20 -212 20 -161 0 -183
-2 -212 -20z M5270 6153 c-201 -22 -442 -84 -625 -163 -109 -46 -130 -52 -230
-60 -350 -28 -687 -169 -963 -403 -46 -38 -106 -95 -134 -126 -27 -31 -43 -45
-34 -31 9 13 16 28 16 32 0 5 -400 8 -890 8 -490 0 -890 -3 -890 -6 0 -14 63
-95 116 -148 228 -226 574 -332 941 -286 249 31 447 125 612 289 43 43 62 58
44 34 -18 -22 -33 -43 -33 -46 0 -5 61 -1 100 7 70 14 138 46 203 95 246 186
408 273 637 343 49 15 108 22 245 27 l180 7 195 67 c432 148 750 174 1140 92
388 -81 400 -84 493 -129 87 -42 277 -164 377 -242 93 -73 260 -236 260 -253
0 -10 7 -25 16 -32 19 -16 134 -186 187 -277 59 -101 133 -278 173 -412 36
-121 38 -131 42 -313 2 -103 1 -194 -2 -202 -4 -11 -28 8 -83 63 -76 77 -81
80 -203 127 -332 127 -570 286 -880 588 -173 169 -231 209 -308 215 -73 5
-123 -20 -306 -157 -302 -225 -573 -366 -931 -486 -304 -101 -682 -174 -1055
-205 -193 -16 -252 -35 -326 -108 -67 -66 -84 -87 -84 -102 0 -5 -4 -10 -10
-10 -5 0 -10 -9 -10 -20 0 -11 -4 -20 -10 -20 -6 0 -10 -85 -10 -235 0 -224
-1 -235 -20 -247 -11 -7 -20 -18 -20 -25 0 -7 -4 -13 -9 -13 -16 0 -80 78
-106 129 l-25 50 6 493 c7 556 5 543 92 768 87 228 101 308 63 379 l-18 34
-51 -73 c-114 -161 -206 -381 -253 -600 -20 -90 -23 -136 -23 -320 -1 -137 4
-242 12 -290 l14 -75 -139 -210 c-76 -115 -181 -276 -233 -357 -52 -81 -97
-147 -100 -147 -6 1 -671 1002 -684 1029 -9 20 -23 20 -708 20 l-698 0 0
-1945 0 -1945 5000 0 5000 0 0 1945 0 1945 -698 0 c-685 0 -699 0 -708 -20
-12 -27 -678 -1028 -684 -1029 -3 0 -23 27 -45 62 -22 34 -148 229 -281 432
l-242 370 -11 130 c-22 237 -77 462 -162 660 -316 737 -979 1232 -1774 1324
-84 10 -376 13 -455 4z m934 -1528 c293 -291 610 -500 906 -599 58 -19 124
-38 148 -42 l42 -7 0 -446 c0 -456 -8 -622 -35 -784 -44 -262 -166 -547 -332
-780 -69 -96 -250 -287 -349 -368 -161 -132 -393 -261 -573 -320 l-101 -33 0
-43 0 -42 468 0 c489 0 513 -2 653 -47 307 -99 611 -383 733 -683 14 -35 24
-66 21 -69 -2 -2 -53 18 -112 46 -59 28 -130 57 -158 64 -68 18 -1921 19
-2005 1 -30 -6 -56 -10 -58 -8 -5 4 78 136 230 365 72 107 115 179 96 160 -19
-19 -57 -69 -86 -110 -148 -215 -173 -246 -241 -291 -35 -23 -55 -29 -98 -29
-96 0 -149 45 -287 243 -121 174 -131 187 -140 187 -3 0 47 -80 112 -177 148
-222 225 -344 219 -349 -2 -3 -28 1 -58 8 -42 10 -273 13 -1014 13 l-960 0
-65 -24 c-36 -13 -94 -38 -130 -56 -36 -18 -75 -36 -88 -39 l-22 -7 20 52 c89
225 322 460 586 592 141 71 311 120 504 147 41 6 231 11 423 11 l347 0 0 42 0
43 -92 29 c-122 38 -309 133 -453 230 -126 84 -306 249 -406 371 -192 236
-337 541 -398 839 -32 156 -41 336 -41 802 l0 432 53 5 c28 3 102 8 162 11
441 23 960 134 1365 292 336 131 740 383 930 578 l45 46 54 -63 c30 -35 113
-122 185 -193z m-4577 -656 c62 -30 104 -82 315 -397 203 -301 302 -421 393
-473 89 -51 151 -33 260 77 111 112 257 351 299 489 10 33 22 64 26 68 3 4 19
-25 35 -65 68 -178 180 -375 294 -517 28 -35 51 -65 51 -66 0 -1 -7 -22 -15
-45 -20 -57 -20 -264 0 -362 25 -117 64 -245 112 -363 123 -300 257 -502 471
-706 129 -124 174 -145 278 -136 l64 6 0 -140 0 -141 -37 23 c-87 52 -139 79
-155 79 -10 0 -18 4 -18 9 0 21 -281 -47 -440 -106 -122 -46 -170 -68 -250
-116 -151 -92 -235 -171 -436 -411 -31 -38 -72 -75 -90 -82 -28 -12 -218 -14
-1119 -14 l-1085 0 0 1685 0 1685 40 0 c33 0 40 3 40 20 0 20 7 20 462 20 447
0 463 -1 505 -21z m8433 1 c0 -13 7 -20 20 -20 20 0 20 -7 20 -1645 0 -1638 0
-1645 -20 -1645 -17 0 -20 -7 -20 -40 l0 -40 -1058 0 c-988 0 -1059 1 -1089
18 -18 9 -72 69 -123 137 -50 65 -120 152 -155 192 -187 207 -530 373 -827
399 -55 5 -82 3 -92 -6 -10 -7 -27 -9 -46 -5 -19 4 -30 3 -30 -4 0 -6 -6 -11
-12 -11 -7 0 -50 -22 -95 -50 l-83 -49 0 120 0 120 48 -1 c101 -4 118 0 179
38 220 134 481 477 615 807 90 219 108 300 108 482 l0 152 45 97 c107 229 171
446 209 708 8 54 17 100 19 102 2 3 15 -21 27 -53 56 -139 156 -310 298 -508
86 -119 180 -195 242 -195 34 0 99 34 145 78 78 72 152 170 334 440 101 150
202 293 224 317 77 88 45 84 615 85 495 0 502 0 502 -20z m-5536 -2686 c8 -21
-3 -56 -15 -49 -12 8 -12 65 0 65 5 0 12 -7 15 -16z M4470 3381 c-87 -20 -162
-79 -202 -159 -22 -45 -23 -57 -23 -252 0 -188 2 -209 21 -251 48 -104 143
-164 259 -163 111 1 193 51 246 154 23 43 24 53 24 260 0 202 -1 217 -22 256
-35 66 -70 101 -126 128 -59 28 -125 38 -177 27z M6118 3376 c-96 -26 -173
-104 -199 -200 -6 -23 -9 -117 -7 -230 3 -185 4 -193 30 -242 50 -96 135 -147
243 -148 116 -1 211 59 259 163 19 42 21 63 21 251 0 232 -3 246 -75 324 -71
77 -176 109 -272 82z M5284 2391 c-48 -29 -64 -59 -64 -118 0 -48 3 -56 40
-93 37 -37 44 -40 96 -40 52 0 59 3 95 39 38 38 44 56 39 121 -6 86 -127 139
-206 91z M4520 1996 c0 -16 47 -108 83 -164 122 -188 293 -309 514 -364 125
-31 351 -31 476 0 220 54 392 176 512 360 38 59 85 152 85 168 0 2 -376 4
-835 4 -459 0 -835 -2 -835 -4z m1098 -232 c12 -4 22 -14 22 -23 0 -22 -25
-35 -121 -60 -101 -28 -224 -28 -332 0 -100 26 -117 34 -117 59 0 10 8 21 18
23 26 7 504 8 530 1z M7367 5379 c28 -48 129 -155 193 -204 119 -91 262 -155
432 -191 118 -26 391 -26 508 -1 258 56 452 171 598 356 23 29 42 57 42 62 0
5 -364 9 -896 9 l-895 0 18 -31z"/>
</g>
</svg>
