<?xml version="1.0" standalone="no"?>
<!DOCTYPE svg PUBLIC "-//W3C//DTD SVG 20010904//EN"
 "http://www.w3.org/TR/2001/REC-SVG-20010904/DTD/svg10.dtd">
<svg version="1.0" xmlns="http://www.w3.org/2000/svg"
 width="2048.000000pt" height="2048.000000pt" viewBox="0 0 2048.000000 2048.000000"
 preserveAspectRatio="xMidYMid meet">
<metadata>
Created by potrace 1.13, written by Peter Selinger 2001-2015
</metadata>
<g transform="translate(0.000000,2048.000000) scale(0.192120,-0.192120)"
fill="#000000" stroke="none">
<path d="M6045 10319 c-1013 -61 -1620 -383 -2116 -1122 -164 -244 -237 -458
-274 -797 -45 -420 -66 -529 -127 -661 -72 -153 -220 -325 -375 -433 -46 -32
-92 -69 -103 -83 -66 -85 33 -173 292 -257 111 -36 363 -97 493 -119 l79 -13
17 -100 c9 -54 21 -115 26 -134 9 -34 7 -37 -48 -98 -231 -253 -265 -780 -71
-1101 66 -109 154 -184 255 -215 11 -3 17 -15 17 -34 0 -47 38 -238 75 -380
163 -618 529 -1185 982 -1520 l63 -47 0 -164 0 -164 37 6 c46 8 64 26 72 72
l6 36 75 -56 c208 -156 445 -249 731 -287 119 -15 477 -15 589 1 281 40 515
133 720 286 l74 56 13 -44 c13 -44 41 -67 83 -67 19 0 20 8 20 159 l0 160 119
95 c502 403 867 1048 986 1740 13 76 27 142 32 146 4 4 24 13 43 20 134 51
249 212 308 430 23 84 26 115 26 270 1 150 -3 188 -22 265 -29 115 -98 257
-156 322 l-45 50 10 59 c5 33 13 99 17 148 l7 90 75 13 c268 48 564 132 680
194 109 58 145 124 100 182 -12 15 -58 53 -103 86 -96 70 -235 209 -301 300
-88 124 -144 299 -171 542 -48 428 -63 520 -112 668 -121 366 -435 747 -836
1015 -572 382 -1317 542 -2262 485z m-104 -143 c19 -13 54 -30 77 -37 23 -7
42 -15 42 -18 0 -3 174 -5 388 -5 l387 1 76 36 77 35 6 -46 c3 -25 6 -712 6
-1525 0 -814 1 -1481 2 -1483 2 -1 143 2 313 7 583 16 1166 74 1861 184 155
25 288 45 296 45 10 0 19 -21 28 -71 22 -125 9 -134 -325 -204 -118 -25 -196
-48 -255 -75 -172 -77 -274 -97 -435 -84 -151 12 -279 10 -346 -4 -70 -16
-134 -57 -151 -96 -13 -31 -16 -111 -5 -122 3 -3 84 1 179 10 95 9 181 16 190
16 24 0 143 -157 199 -263 26 -51 60 -132 75 -182 26 -84 28 -102 28 -270 0
-168 -2 -186 -27 -269 -103 -334 -362 -585 -692 -672 -83 -22 -124 -27 -235
-28 -183 -1 -298 25 -455 106 -199 101 -379 301 -457 504 l-31 84 -317 0 -317
0 -12 -39 c-23 -77 -101 -217 -166 -298 -127 -159 -310 -277 -510 -329 -181
-48 -414 -37 -580 28 -297 115 -506 342 -601 654 -25 81 -28 104 -28 254 0
141 3 177 22 250 32 117 100 254 179 358 66 86 64 91 -9 23 -21 -19 -38 -33
-38 -30 0 3 9 31 19 62 11 32 15 57 10 57 -15 0 -81 -35 -150 -80 -60 -39 -93
-48 -114 -32 -6 4 -28 30 -50 57 -21 28 -55 67 -74 88 l-35 37 27 0 c15 0 103
-11 195 -25 274 -40 679 -82 690 -70 16 16 6 115 -14 142 -53 70 -178 98 -394
88 -273 -14 -328 -7 -475 58 -102 45 -165 63 -387 111 -245 53 -258 64 -238
190 l13 77 46 -7 c25 -3 125 -19 221 -35 486 -79 978 -139 1435 -175 192 -15
762 -35 778 -27 4 2 7 692 7 1534 0 841 3 1529 8 1529 4 0 23 -11 43 -24z
m-332 -1409 l1 -1358 -57 5 c-32 3 -112 8 -178 11 -220 10 -617 46 -905 81
-355 43 -764 103 -843 125 l-37 10 57 48 c145 122 167 179 213 563 42 352 68
470 137 615 99 212 239 406 428 595 246 247 489 397 825 509 85 28 157 55 158
60 2 5 12 9 23 9 10 0 19 4 19 9 0 5 11 12 25 15 14 4 25 11 25 16 0 5 21 25
47 45 43 32 48 34 54 18 4 -10 8 -629 8 -1376z m1749 1311 c48 -45 155 -97
322 -160 370 -138 675 -340 912 -602 299 -331 388 -546 443 -1071 19 -182 48
-337 75 -401 27 -61 70 -114 136 -169 l54 -43 -48 -11 c-334 -71 -1227 -175
-1687 -196 -71 -3 -167 -8 -212 -11 l-83 -6 0 1305 c0 717 3 1332 6 1365 8 69
7 69 82 0z m1535 -3282 c-10 -13 -36 -46 -58 -74 -22 -28 -51 -67 -65 -86 -14
-20 -33 -36 -44 -36 -10 0 -53 21 -95 46 -42 26 -105 60 -141 75 -36 16 -60
29 -55 29 6 1 111 16 235 35 124 18 229 34 233 34 5 1 0 -10 -10 -23z m-4845
-462 c17 -34 42 -75 56 -91 l26 -31 -22 -83 c-19 -71 -22 -110 -22 -244 1
-140 4 -172 27 -257 211 -789 1194 -1048 1756 -463 76 79 201 254 201 281 0 7
7 15 16 18 9 3 172 6 364 6 l348 0 41 -74 c271 -495 880 -691 1376 -444 305
152 507 418 570 751 18 96 19 268 1 359 l-13 67 27 19 c34 26 83 126 111 230
12 45 24 80 27 78 2 -3 12 -53 23 -113 25 -146 27 -583 3 -676 -24 -92 -86
-204 -158 -286 -135 -152 -179 -222 -211 -336 -58 -207 -243 -702 -326 -874
-106 -220 -255 -403 -514 -633 -104 -92 -180 -182 -216 -256 -17 -35 -20 -55
-16 -98 5 -52 4 -55 -26 -78 -126 -94 -432 -215 -657 -260 -259 -52 -568 -49
-836 8 -196 42 -477 155 -612 248 l-43 29 7 50 c6 44 3 58 -27 117 -36 70
-143 187 -285 311 -40 34 -91 87 -115 117 -24 31 -66 83 -92 117 -100 125
-172 243 -281 457 -85 168 -140 317 -221 600 -70 246 -86 276 -240 460 -95
114 -130 172 -166 278 -16 47 -19 86 -19 262 0 114 4 231 10 261 9 52 31 199
46 303 l7 49 22 -59 c12 -32 36 -87 53 -120z m4672 -55 c12 -30 17 -49 12 -44
-10 11 -62 132 -62 143 1 11 28 -42 50 -99z M5710 6856 c-30 -6 -66 -18 -78
-25 -30 -16 -52 -68 -52 -124 l0 -44 53 -6 c28 -3 222 -11 429 -18 299 -10
458 -10 760 0 211 6 404 15 431 18 l47 6 0 52 c0 67 -29 113 -85 133 -46 16
-238 22 -325 9 -30 -5 -202 -11 -381 -14 -259 -4 -356 -2 -473 11 -170 19
-249 19 -326 2z M4918 6661 c-181 -77 -317 -225 -385 -416 -25 -73 -28 -92
-28 -220 0 -131 2 -145 31 -226 62 -175 186 -315 349 -394 283 -139 598 -80
813 150 124 133 185 287 184 470 0 122 -19 200 -75 315 -52 106 -167 228 -269
284 l-68 37 -197 15 c-268 19 -277 18 -355 -15z m391 -241 c82 -14 133 -40
196 -104 80 -81 85 -97 85 -291 l0 -168 -30 -52 c-153 -268 -626 -250 -765 29
-23 46 -25 60 -25 190 0 167 9 193 91 274 57 57 117 96 177 118 45 16 184 18
271 4z M7730 6684 c-14 -2 -92 -8 -173 -13 l-148 -9 -69 -41 c-144 -86 -248
-212 -304 -370 -29 -80 -31 -95 -31 -226 0 -131 2 -146 31 -226 133 -372 546
-564 904 -422 149 60 292 185 363 320 77 146 101 341 63 493 -50 192 -188 365
-360 451 -82 40 -96 44 -170 45 -45 1 -92 0 -106 -2z m157 -287 c64 -33 165
-126 187 -171 13 -27 16 -68 16 -201 l0 -168 -30 -52 c-153 -268 -626 -250
-765 29 -23 46 -25 60 -25 193 0 165 6 183 85 271 92 103 178 133 365 129 102
-3 121 -6 167 -30z M6001 6574 c2 -5 19 -37 37 -71 l32 -63 369 0 369 0 36 64
c20 35 36 67 36 70 0 3 -30 -7 -67 -22 -67 -26 -71 -27 -354 -30 -281 -3 -288
-3 -355 21 -38 13 -77 27 -88 32 -11 5 -17 4 -15 -1z M6160 5249 c-145 -58
-180 -242 -66 -347 25 -23 57 -45 73 -49 15 -4 143 -8 283 -8 l255 0 47 28
c113 66 138 211 55 312 -58 70 -79 75 -367 74 -143 0 -266 -5 -280 -10z M5515
4265 c-5 -2 -22 -6 -37 -9 -37 -8 -98 -63 -114 -103 -21 -49 -17 -112 9 -158
62 -110 308 -207 637 -251 168 -23 655 -26 820 -6 297 37 531 112 635 203 85
75 94 183 22 266 -71 81 -162 84 -266 8 -116 -85 -525 -145 -891 -131 -338 14
-547 56 -690 141 -51 31 -102 47 -125 40z M337 5678 c-22 -407 10 -851 83
-1131 102 -397 273 -587 528 -587 134 0 250 37 406 129 288 170 364 400 223
676 -114 224 -418 513 -822 783 -109 73 -400 252 -408 252 -2 0 -7 -55 -10
-122z m390 -409 c467 -284 679 -548 587 -730 -42 -84 -210 -186 -322 -196
-169 -15 -281 134 -328 437 -25 163 -31 530 -9 530 3 0 35 -19 72 -41z M1655
4053 c-11 -3 -168 -86 -348 -186 -362 -199 -387 -218 -408 -311 -15 -69 -6
-99 81 -257 84 -152 110 -185 165 -210 66 -30 132 -25 210 17 37 19 68 34 70
32 1 -2 20 -50 42 -108 111 -289 180 -558 225 -874 20 -142 21 -200 25 -988
l4 -838 277 0 277 0 -2 787 c-2 446 -7 849 -13 928 -34 440 -144 865 -325
1251 -25 53 -45 98 -45 100 0 1 20 14 45 29 80 46 125 142 106 225 -13 57
-146 297 -189 343 -49 51 -131 76 -197 60z m85 -299 c48 -52 56 -70 65 -150 9
-78 29 -165 45 -193 10 -19 9 -25 -1 -33 -38 -24 -264 -150 -334 -186 l-80
-40 -33 53 c-25 41 -41 56 -70 66 -20 6 -39 15 -42 19 -3 3 -24 17 -48 30 -53
30 -102 103 -102 153 0 34 4 38 69 77 38 23 71 49 73 58 3 10 66 50 144 93
231 125 245 128 314 53z M4904 2875 c-85 -43 -174 -110 -309 -231 l-104 -94
-193 0 c-223 0 -329 -11 -484 -50 -299 -75 -553 -220 -774 -440 -181 -182
-319 -404 -400 -647 -75 -228 -90 -356 -90 -779 l0 -304 3890 0 3890 0 0 323
c0 177 -5 362 -10 412 -79 689 -566 1255 -1230 1431 -153 40 -277 54 -499 54
l-203 0 -77 72 c-42 39 -110 98 -151 131 -197 158 -306 194 -325 108 l-7 -31
-89 0 -89 0 0 -257 0 -258 20 25 c35 44 119 223 135 288 9 35 19 92 22 128 3
35 9 64 12 64 24 0 105 -67 142 -116 69 -92 154 -173 206 -195 37 -16 64 -20
120 -17 40 2 73 2 73 1 0 -33 -38 -173 -65 -244 -150 -391 -540 -904 -965
-1271 -191 -165 -506 -397 -703 -517 l-67 -41 -65 12 -65 13 0 60 c0 84 26
298 49 402 42 190 117 360 223 500 31 42 56 78 54 80 -1 1 -18 -2 -37 -7 -61
-19 -222 -40 -299 -40 -77 0 -238 21 -299 40 -19 5 -36 9 -37 7 -2 -1 22 -34
52 -72 69 -87 165 -281 199 -400 37 -129 65 -301 72 -447 l6 -128 -23 0 c-12
0 -40 -5 -61 -11 -44 -14 -55 -9 -264 131 -490 328 -852 661 -1156 1066 -225
299 -394 630 -416 812 l-6 52 64 -1 c35 -1 78 2 94 6 60 16 148 92 225 195 18
25 44 55 56 67 23 23 84 63 95 63 3 0 9 -28 13 -63 13 -127 74 -291 150 -403
l26 -39 0 258 0 257 -90 0 c-83 0 -90 1 -90 20 0 25 -34 60 -59 60 -10 0 -49
-16 -87 -35z m-521 -624 c13 -16 67 -116 120 -223 224 -454 576 -890 1024
-1266 68 -57 127 -111 133 -121 14 -28 -8 -41 -87 -52 -37 -4 -677 -8 -1420
-9 l-1353 0 0 284 c0 306 6 362 56 501 65 182 165 336 314 485 242 243 556
387 920 423 19 2 87 5 152 5 l116 2 25 -29z m4547 4 c114 -20 306 -83 402
-131 333 -168 574 -439 691 -777 l31 -92 4 -337 3 -338 -1343 1 c-739 0 -1373
3 -1411 8 -77 8 -106 27 -87 57 7 11 62 60 123 109 286 234 592 568 793 865
120 177 202 329 318 583 36 78 41 80 221 74 88 -3 203 -13 255 -22z M5234
2254 c-14 -95 65 -195 311 -396 72 -58 184 -154 250 -213 66 -59 138 -116 160
-126 50 -23 115 -25 115 -4 0 27 -258 276 -430 415 -91 73 -218 186 -282 250
l-117 116 -7 -42z M7540 2194 c-52 -53 -171 -159 -265 -237 -93 -78 -203 -171
-244 -207 -79 -70 -221 -225 -221 -240 0 -15 86 -12 123 4 18 7 83 59 145 115
62 56 178 155 257 222 255 212 314 282 315 374 0 73 -10 70 -110 -31z"/>
</g>
</svg>
