<?xml version="1.0" standalone="no"?>
<!DOCTYPE svg PUBLIC "-//W3C//DTD SVG 20010904//EN"
 "http://www.w3.org/TR/2001/REC-SVG-20010904/DTD/svg10.dtd">
<svg version="1.0" xmlns="http://www.w3.org/2000/svg"
 width="2048.000000pt" height="2048.000000pt" viewBox="0 0 2048.000000 2048.000000"
 preserveAspectRatio="xMidYMid meet">
<metadata>
Created by potrace 1.13, written by Peter Selinger 2001-2015
</metadata>
<g transform="translate(0.000000,2048.000000) scale(0.192120,-0.192120)"
fill="#000000" stroke="none">
<path d="M5115 9914 c-323 -24 -584 -74 -834 -158 -841 -286 -1408 -967 -1492
-1796 -20 -198 -2 -501 43 -737 l21 -112 -42 -41 c-122 -119 -197 -320 -208
-561 -16 -340 114 -644 315 -741 37 -17 69 -33 71 -34 2 -2 12 -56 22 -120
106 -653 430 -1262 894 -1681 89 -81 224 -182 242 -183 6 0 21 12 33 28 51 64
-3 157 -203 345 -196 185 -333 364 -475 622 -145 265 -226 489 -302 840 -12
55 -29 118 -38 140 -25 60 -87 141 -177 230 -45 44 -96 105 -112 135 -58 103
-63 138 -63 420 0 228 3 271 25 398 14 78 25 146 25 150 0 4 18 -36 40 -88 84
-201 190 -290 246 -205 9 13 31 86 49 162 113 464 321 844 624 1136 67 64 127
117 133 117 6 0 41 -24 77 -53 261 -211 511 -367 660 -411 75 -22 148 -21 188
4 58 35 83 119 65 218 -5 28 -6 52 -3 52 4 0 38 -32 76 -71 164 -166 405 -364
505 -413 69 -35 98 -39 127 -20 25 16 25 19 20 93 -3 45 -16 107 -32 151 -35
96 -106 250 -115 250 -21 0 -40 -53 -40 -110 0 -55 -2 -61 -24 -70 -13 -5 -27
-14 -31 -19 -3 -6 -10 -11 -14 -11 -5 0 -64 46 -132 101 -161 132 -218 169
-268 176 -58 8 -88 -8 -171 -94 l-74 -75 -44 6 c-94 13 -245 96 -482 265 -152
109 -233 151 -289 151 -16 0 -62 -17 -102 -37 -58 -29 -97 -59 -179 -142 -195
-196 -376 -482 -498 -791 -23 -58 -51 -120 -63 -139 -18 -30 -22 -32 -35 -19
-9 8 -24 48 -34 89 -18 67 -20 112 -20 472 0 366 2 405 20 477 51 198 141 394
257 560 83 117 317 353 431 434 335 237 724 378 1207 437 142 18 615 18 745 1
422 -56 792 -190 1110 -403 394 -264 669 -608 796 -996 l34 -104 0 -555 c0
-471 -2 -554 -14 -554 -8 0 -16 -5 -18 -10 -6 -20 -66 55 -116 145 -27 50 -90
172 -141 271 -80 161 -98 188 -151 237 -37 35 -77 61 -107 71 -27 9 -133 23
-238 31 -415 33 -694 85 -930 171 -55 20 -129 47 -165 60 -76 28 -155 31 -189
8 l-22 -16 23 -25 c34 -37 146 -108 222 -143 265 -118 699 -201 1146 -218
l175 -7 211 -415 c231 -455 263 -504 327 -504 25 0 45 8 62 24 36 34 80 131
108 235 l23 87 20 -99 c16 -83 19 -141 19 -388 0 -286 0 -291 -24 -345 -39
-88 -87 -157 -166 -240 -41 -43 -95 -110 -120 -150 -41 -62 -52 -92 -82 -213
-32 -135 -129 -424 -194 -580 -17 -39 -42 -103 -56 -142 -87 -241 -253 -481
-470 -682 -65 -59 -146 -137 -180 -173 -59 -62 -123 -161 -123 -192 0 -7 13
-29 29 -48 34 -41 35 -40 145 42 221 166 471 451 634 724 187 313 332 706 387
1050 9 54 18 108 20 120 3 13 22 28 59 43 146 60 271 252 317 486 22 113 18
360 -9 467 -37 148 -98 273 -171 345 -32 32 -32 33 -22 90 22 125 34 329 35
573 0 240 -1 262 -26 381 -153 711 -715 1331 -1474 1627 -216 84 -414 133
-664 167 -110 15 -489 27 -595 19z M4132 6982 c-71 -26 -118 -66 -156 -132
l-31 -55 0 -215 0 -215 31 -55 c114 -203 392 -192 496 19 22 43 23 58 23 251
0 193 -1 208 -23 251 -65 132 -210 197 -340 151z M6368 6987 c-77 -22 -143
-80 -181 -157 -20 -42 -22 -59 -22 -250 0 -232 7 -260 80 -332 135 -134 345
-104 439 62 l31 55 0 215 c0 202 -1 217 -22 256 -35 65 -70 101 -127 129 -64
31 -136 39 -198 22z M5074 5811 c-52 -13 -103 -50 -128 -94 -33 -58 -40 -99
-25 -159 14 -62 77 -131 136 -148 25 -8 124 -10 295 -8 l256 3 44 30 c128 91
123 274 -10 352 l-47 28 -245 2 c-135 1 -259 -2 -276 -6z M6187 4816 c-22 -8
-49 -23 -60 -34 -48 -45 -220 -97 -412 -124 -122 -18 -648 -18 -770 0 -198 28
-334 71 -440 138 -82 52 -201 15 -247 -77 -22 -41 -23 -120 -4 -158 50 -96
233 -184 490 -236 175 -35 331 -47 586 -47 255 0 411 12 585 47 268 54 454
145 495 245 20 49 9 142 -23 183 -45 60 -133 87 -200 63z M4005 3649 c-312
-45 -579 -188 -817 -438 l-103 -108 -115 -6 c-307 -15 -641 -147 -905 -357
-94 -75 -228 -216 -305 -320 -127 -172 -241 -429 -284 -640 -31 -155 -36 -274
-36 -860 l0 -590 3890 0 3890 0 0 590 c0 721 -7 801 -90 1051 -191 575 -693
1008 -1287 1109 -63 11 -148 20 -188 20 l-73 0 -35 48 c-93 126 -294 291 -452
370 -153 76 -358 129 -537 139 l-118 6 0 -275 0 -275 103 -11 c138 -15 206
-34 313 -87 91 -44 214 -145 264 -216 l21 -28 -75 -35 c-370 -170 -624 -607
-720 -1236 -15 -95 -46 -397 -46 -441 0 -13 -10 -20 -35 -25 -44 -8 -125 -59
-125 -79 0 -8 -4 -15 -10 -15 -6 0 -10 -33 -10 -77 0 -59 6 -96 27 -154 29
-83 27 -104 -13 -119 -17 -7 -448 -9 -1249 -8 -1293 3 -1255 2 -1255 47 0 9
22 53 50 99 60 100 100 190 134 303 24 78 26 99 26 270 0 146 -4 198 -19 254
-46 177 -169 383 -279 471 -79 62 -143 80 -241 66 -42 -6 -78 -9 -80 -6 -17
16 71 269 144 416 180 362 428 559 755 599 l100 12 0 274 0 273 -77 -1 c-43
-1 -105 -5 -138 -10z m-278 -421 c-3 -8 -6 -5 -6 6 -1 11 2 17 5 13 3 -3 4
-12 1 -19z m-20 -10 c-3 -8 -6 -5 -6 6 -1 11 2 17 5 13 3 -3 4 -12 1 -19z
m-17 -1 c0 -7 -17 -27 -37 -43 -76 -59 -175 -155 -258 -249 -51 -58 -154 -222
-224 -356 -84 -160 -103 -182 -157 -177 -39 3 -39 4 -42 48 -5 75 69 231 168
355 51 63 267 265 360 336 48 36 161 97 183 99 4 0 7 -6 7 -13z m3459 -64 c53
-36 197 -165 272 -241 19 -21 69 -82 111 -138 93 -124 177 -201 271 -250 294
-153 450 -372 552 -772 19 -76 25 -123 25 -214 l0 -118 -31 0 c-56 0 -76 36
-124 225 -83 328 -170 500 -344 674 -127 128 -250 177 -421 168 -201 -10 -347
-101 -512 -319 -84 -111 -160 -298 -224 -548 -40 -161 -63 -200 -117 -200
l-29 0 5 148 c4 128 9 160 36 252 92 300 197 465 401 625 125 98 188 166 230
248 43 84 39 140 -17 242 -41 75 -224 281 -237 267 -3 -3 -6 2 -6 11 0 15 5
15 52 -3 29 -11 77 -37 107 -57z m-4149 -174 c-104 -160 -212 -392 -286 -614
-36 -110 -67 -201 -68 -203 -2 -1 -34 12 -71 29 -95 45 -147 48 -216 14 -207
-105 -354 -253 -459 -463 -80 -161 -85 -188 -85 -442 l0 -225 31 -85 c35 -97
77 -182 134 -276 22 -35 40 -75 40 -89 0 -34 -47 -45 -202 -45 l-128 0 0 565
c0 372 4 582 11 617 30 146 112 340 185 439 19 26 34 50 34 54 0 15 62 95 129
167 91 97 188 176 293 238 46 27 89 54 96 60 13 11 188 100 197 100 2 0 57 35
122 77 127 83 296 183 301 178 2 -1 -25 -45 -58 -96z m4962 -88 c221 -93 374
-189 528 -329 213 -193 360 -414 445 -667 53 -156 55 -188 55 -731 0 -497 0
-504 -20 -504 -17 0 -20 -7 -20 -40 l0 -40 -52 1 c-115 2 -126 21 -84 139 25
69 37 210 18 210 -4 0 -13 14 -21 31 -13 29 -59 57 -132 82 -13 4 -17 28 -23
119 -53 860 -362 1450 -844 1612 -63 22 -64 22 -91 86 -15 36 -46 97 -69 137
-23 39 -42 74 -42 77 0 2 52 -26 115 -63 63 -38 170 -92 237 -120z m-298 -660
c74 -36 166 -128 218 -217 112 -192 194 -524 214 -865 l7 -116 -57 -23 c-35
-14 -68 -36 -86 -59 -27 -32 -30 -42 -30 -108 0 -55 6 -89 26 -137 14 -36 24
-73 22 -83 -8 -40 -34 -43 -489 -43 -240 0 -451 3 -468 6 -44 9 -48 39 -17
127 27 76 37 207 16 207 -5 0 -10 6 -10 13 0 21 -40 54 -94 78 l-49 21 6 137
c21 447 159 857 340 1005 130 107 305 129 451 57z m-4744 -102 c202 -25 366
-104 501 -241 157 -159 238 -359 239 -585 0 -235 -90 -446 -260 -606 -411
-388 -1082 -260 -1324 254 -59 125 -71 184 -71 359 1 148 2 159 33 250 63 184
181 337 337 439 118 77 246 120 405 135 19 1 40 4 45 4 6 1 49 -3 95 -9z
m3775 -993 c167 -79 214 -294 93 -431 -113 -129 -303 -129 -416 0 -156 177
-28 455 208 455 48 0 78 -7 115 -24z m1813 -2 c173 -86 206 -334 60 -458 -150
-129 -396 -57 -449 132 -37 133 43 293 169 338 64 23 161 18 220 -12z M2680
1910 c-234 -37 -426 -235 -476 -489 -45 -229 52 -488 230 -620 237 -176 555
-176 792 0 179 132 275 392 230 619 -48 241 -197 404 -428 471 -83 23 -259 33
-348 19z m324 -79 c83 -29 142 -66 209 -130 113 -107 171 -241 170 -396 0
-157 -52 -284 -163 -395 -110 -110 -232 -160 -390 -160 -155 0 -282 52 -390
160 -112 112 -164 238 -163 400 0 160 56 285 177 397 75 70 141 107 238 133
92 25 224 21 312 -9z M4386 3579 c4 -8 11 -32 14 -54 4 -34 14 -47 70 -92 125
-101 306 -178 515 -220 130 -26 560 -26 690 0 186 37 312 86 442 169 106 69
143 105 143 140 0 16 5 39 11 50 9 17 9 20 -2 15 -148 -65 -292 -121 -363
-142 -293 -84 -589 -104 -883 -60 -189 29 -363 85 -632 202 -10 5 -12 2 -5 -8z
M4214 3079 c-10 -17 -17 -133 -10 -173 10 -51 62 -124 355 -489 142 -179 262
-335 266 -347 11 -35 195 -258 271 -329 103 -97 177 -141 234 -141 58 0 136
47 224 136 62 62 836 1024 873 1084 39 63 48 119 34 199 -8 45 -17 71 -24 69
-7 -2 -257 -310 -556 -683 -300 -374 -548 -680 -551 -680 -3 0 -250 304 -547
676 -298 372 -546 680 -551 683 -6 3 -14 1 -18 -5z"/>
</g>
</svg>
