<?xml version="1.0" standalone="no"?>
<!DOCTYPE svg PUBLIC "-//W3C//DTD SVG 20010904//EN"
 "http://www.w3.org/TR/2001/REC-SVG-20010904/DTD/svg10.dtd">
<svg version="1.0" xmlns="http://www.w3.org/2000/svg"
 width="2048.000000pt" height="2048.000000pt" viewBox="0 0 2048.000000 2048.000000"
 preserveAspectRatio="xMidYMid meet">
<metadata>
Created by potrace 1.13, written by Peter Selinger 2001-2015
</metadata>
<g transform="translate(0.000000,2048.000000) scale(0.192120,-0.192120)"
fill="#000000" stroke="none">
<path d="M5279 10186 c-3 -4 -3630 -782 -3816 -819 -40 -8 -84 -22 -98 -31
-74 -49 -86 -150 -24 -211 30 -30 59 -41 274 -102 l240 -69 3 -848 2 -848 -34
-39 c-38 -45 -69 -133 -88 -254 -20 -124 -17 -699 5 -895 52 -460 147 -740
253 -740 104 0 198 264 251 705 26 222 26 851 0 980 -21 104 -47 169 -83 206
l-25 26 -1 784 -1 784 74 6 c70 7 87 3 314 -59 132 -36 242 -67 244 -69 2 -1
-8 -51 -22 -110 -52 -218 -70 -465 -43 -592 77 -362 447 -600 1155 -740 149
-30 433 -67 671 -88 298 -26 1302 -26 1600 0 761 66 1258 202 1553 423 149
112 239 246 273 405 29 132 0 462 -55 637 -14 45 -16 64 -8 67 7 2 322 91 702
199 659 187 691 197 724 230 62 62 50 163 -24 212 -14 9 -58 23 -98 31 -40 8
-921 197 -1960 419 -1038 222 -1902 404 -1921 404 -18 0 -35 -2 -37 -4z m146
-321 c96 -12 2567 -545 2596 -561 16 -8 27 -19 24 -23 -10 -17 -101 -54 -235
-97 -279 -89 -2385 -685 -2441 -691 -77 -8 -136 5 -413 88 -271 81 -356 114
-356 140 0 22 9 24 366 54 333 29 379 36 451 70 74 37 177 150 219 241 66 143
38 252 -101 392 -44 43 -92 81 -121 94 -91 40 -96 39 -931 -28 -238 -19 -498
-36 -578 -37 -80 -1 -145 -5 -145 -8 0 -8 -59 2 -65 12 -6 9 22 26 56 33 13 2
38 9 54 15 40 15 1366 298 1447 309 34 5 77 8 93 6 17 -2 53 -6 80 -9z m-35
-523 c75 -37 102 -127 57 -193 -46 -68 7 -61 -1187 -159 -602 -49 -1144 -95
-1205 -101 -60 -6 -220 -18 -355 -28 l-245 -18 -33 28 c-66 58 -223 75 -306
33 -42 -20 -103 -29 -119 -16 -7 6 -40 25 -74 41 -61 30 -61 31 -53 62 20 68
58 85 236 101 172 15 145 25 -96 34 -183 7 -265 21 -340 59 -55 28 -76 59 -66
99 8 32 -27 39 356 -72 162 -46 311 -89 330 -94 27 -8 380 19 1515 114 814 69
1496 126 1515 127 19 0 51 -7 70 -17z m3668 -71 c8 -79 -46 -101 -708 -291
-195 -56 -377 -114 -404 -128 -61 -33 -86 -66 -93 -121 -5 -34 -11 -45 -32
-53 -61 -24 -2468 -708 -2491 -708 -18 0 -2183 614 -2492 707 -24 7 -22 27 5
59 21 24 33 27 122 35 123 11 169 24 213 57 l33 25 177 -48 c97 -26 574 -161
1059 -300 l883 -252 1642 469 c1922 549 2060 588 2073 584 6 -1 11 -17 13 -35z
m-4943 -1200 c578 -164 1077 -304 1109 -310 86 -16 160 -13 251 8 44 11 538
150 1097 310 559 160 1035 294 1058 297 l40 7 0 -205 c0 -201 0 -205 -27 -259
-15 -29 -54 -81 -88 -115 -169 -166 -635 -307 -1225 -368 -288 -31 -422 -37
-850 -43 -589 -7 -995 14 -1380 73 -373 57 -620 124 -825 224 -151 73 -220
132 -269 232 l-36 71 0 187 c0 103 3 190 8 194 4 4 25 5 47 2 23 -3 513 -140
1090 -305z m-2096 -1045 c8 -10 11 -155 9 -539 -3 -475 -5 -528 -20 -543 -15
-15 -17 -14 -32 14 -14 27 -16 95 -16 546 0 480 1 516 18 525 23 14 28 13 41
-3z M2811 7568 c-46 -269 -37 -612 24 -924 63 -316 215 -538 304 -443 11 12
30 67 46 132 76 310 170 494 330 645 76 72 169 130 244 153 48 14 -83 10 -165
-6 -200 -38 -288 -118 -430 -388 -55 -107 -69 -127 -89 -127 -21 0 -25 8 -44
92 -29 124 -51 319 -51 448 0 115 2 105 -90 343 -30 75 -57 137 -61 137 -4 0
-12 -28 -18 -62z M7813 7613 c-3 -10 -19 -52 -35 -93 -17 -41 -39 -104 -50
-140 -11 -36 -24 -73 -29 -82 -5 -10 -9 -51 -9 -92 0 -41 -4 -78 -10 -81 -5
-3 -10 -30 -10 -59 0 -110 -50 -529 -65 -545 -14 -13 -41 24 -108 142 -138
245 -177 297 -263 352 -108 69 -204 74 -429 20 -457 -109 -713 -135 -1048
-104 -85 7 -144 8 -162 2 l-27 -9 41 -27 c101 -67 237 -98 433 -98 247 0 524
52 836 157 l132 45 46 -20 c63 -28 164 -129 226 -224 69 -108 118 -218 179
-400 28 -83 57 -163 64 -177 19 -37 51 -62 78 -62 111 0 213 279 257 702 18
177 24 466 11 570 -12 98 -40 240 -47 240 -3 0 -7 -8 -11 -17z M4030 7096 c0
-9 218 -172 315 -236 351 -231 555 -257 596 -75 11 51 5 145 -9 145 -4 0 -39
-18 -77 -41 -121 -71 -133 -70 -505 83 -251 103 -320 130 -320 124z M4984
6918 c19 -29 240 -232 336 -308 245 -195 350 -220 350 -80 0 60 -51 223 -100
320 -28 55 -33 60 -48 48 -42 -33 -62 -67 -62 -108 0 -17 -5 -30 -12 -30 -7 0
-22 -3 -33 -6 -13 -3 -47 13 -104 51 -115 76 -223 126 -289 132 l-54 6 16 -25z
M2788 6491 c-87 -96 -156 -266 -179 -437 -15 -115 -6 -304 21 -414 29 -121
105 -272 172 -341 51 -54 139 -109 172 -109 17 0 18 -4 41 -150 60 -382 232
-821 452 -1154 150 -225 392 -489 571 -621 l81 -60 1 -298 0 -299 33 7 c32 7
85 39 99 60 15 21 7 128 -17 222 -14 54 -25 101 -25 106 0 4 35 -19 78 -51
153 -118 258 -175 416 -227 212 -71 452 -102 711 -91 408 17 696 113 960 320
38 30 71 53 73 52 1 -2 -9 -50 -23 -106 -25 -104 -33 -220 -15 -220 6 0 10 -7
10 -15 0 -17 40 -39 88 -50 l32 -7 0 299 0 298 82 60 c107 78 323 292 426 422
233 295 398 616 515 1004 37 119 97 395 97 441 0 37 10 58 26 58 20 0 92 37
132 69 50 40 110 124 152 215 126 270 117 647 -20 904 -37 70 -119 166 -120
140 0 -9 11 -83 25 -165 24 -137 26 -166 23 -414 l-3 -266 -45 -88 c-36 -72
-66 -111 -158 -208 -132 -139 -151 -172 -186 -337 -25 -117 -37 -158 -125
-405 -144 -407 -239 -597 -399 -800 -60 -76 -98 -114 -237 -243 -145 -133
-213 -205 -245 -259 -30 -50 -35 -66 -35 -123 l0 -65 -55 -37 c-138 -93 -398
-200 -597 -247 -224 -52 -513 -66 -734 -35 -277 38 -587 150 -795 287 -61 39
-62 40 -52 74 25 89 -53 201 -279 401 -85 75 -232 250 -320 382 -177 262 -346
663 -409 965 -29 141 -46 211 -60 242 -24 53 -102 150 -173 213 -45 40 -81 84
-109 132 -64 114 -72 158 -72 420 0 221 9 311 55 571 7 39 -7 34 -57 -22z
M4120 6423 c-27 -10 -65 -37 -96 -68 -74 -74 -84 -114 -84 -330 0 -207 10
-251 75 -323 63 -70 127 -96 221 -90 111 7 189 61 236 163 22 47 23 62 23 250
0 199 0 200 -28 257 -64 131 -208 189 -347 141z M6344 6424 c-60 -21 -119 -77
-151 -142 -28 -57 -28 -58 -28 -262 0 -203 0 -205 27 -256 50 -95 126 -145
233 -152 93 -6 158 21 220 90 65 72 75 116 75 323 0 216 -10 256 -83 330 -80
80 -190 106 -293 69z M5034 5241 c-79 -36 -136 -142 -119 -223 12 -59 53 -116
103 -145 47 -28 47 -28 267 -31 121 -2 243 -1 271 3 94 11 169 81 189 173 17
80 -40 187 -119 223 -36 17 -69 19 -296 19 -227 0 -260 -2 -296 -19z M4384
4260 c-115 -26 -177 -152 -128 -256 79 -166 525 -284 1074 -284 598 0 1049
134 1088 324 16 80 -8 142 -75 193 -31 24 -46 28 -99 28 -54 0 -68 -4 -106
-32 -54 -38 -119 -65 -225 -92 -189 -48 -526 -70 -791 -52 -288 20 -466 61
-592 136 -61 37 -99 46 -146 35z M3445 2550 c-472 -5 -562 -8 -635 -24 -183
-38 -295 -76 -455 -156 -406 -204 -718 -578 -845 -1012 -57 -197 -62 -242 -67
-650 l-5 -378 3892 0 3892 0 -5 378 c-5 407 -10 455 -67 648 -79 272 -219 504
-430 714 -131 131 -258 222 -425 305 -150 74 -267 115 -421 146 -120 24 -192
27 -931 32 l-403 2 0 -25 c0 -77 -64 -168 -175 -250 -167 -123 -450 -232 -745
-287 -133 -24 -448 -24 -580 1 -352 65 -650 191 -812 344 -73 70 -108 129
-108 185 l0 37 -62 -2 c-35 -1 -310 -5 -613 -8z m428 -122 c61 -33 115 -82
257 -233 135 -144 172 -171 365 -265 200 -97 338 -148 495 -182 92 -20 133
-22 340 -22 207 0 247 2 340 22 160 35 294 83 473 170 256 124 284 145 445
334 46 53 104 112 130 131 51 38 132 81 138 74 13 -13 -113 -322 -215 -527
-175 -350 -343 -605 -569 -863 -192 -219 -458 -431 -675 -538 l-66 -33 -62 30
c-76 36 -272 163 -354 229 -358 290 -667 700 -917 1215 -78 162 -198 456 -198
487 0 7 16 1 73 -29z m-229 -188 c35 -13 76 -80 131 -214 146 -353 189 -438
350 -686 144 -222 251 -357 459 -578 100 -106 111 -130 66 -143 -14 -4 -228
-7 -476 -8 l-452 -1 -22 46 c-12 26 -33 106 -46 178 -36 187 -74 264 -166 337
-63 50 -107 52 -164 10 -51 -37 -105 -97 -132 -144 -25 -43 -65 -174 -83 -266
-7 -38 -24 -81 -43 -110 l-31 -46 -70 -3 -71 -3 -23 43 c-13 24 -34 100 -48
172 -37 196 -71 266 -170 349 -61 50 -104 51 -167 2 -111 -84 -149 -152 -199
-354 -25 -99 -44 -154 -62 -177 l-26 -34 -240 0 -239 0 0 274 c0 213 3 290 16
343 122 533 612 945 1204 1012 107 12 673 13 704 1z m4064 -1 c453 -49 847
-291 1065 -655 48 -80 90 -180 122 -289 24 -85 25 -96 25 -386 l0 -299 -240 0
-239 0 -25 43 c-13 23 -34 86 -45 141 -41 190 -75 267 -149 340 -105 103 -153
102 -262 -6 -63 -63 -97 -139 -126 -281 -27 -135 -38 -169 -68 -209 -18 -26
-25 -28 -88 -28 -68 0 -68 0 -92 38 -13 21 -32 74 -41 118 -53 244 -99 336
-209 416 -56 41 -96 38 -162 -12 -100 -75 -141 -153 -178 -341 -15 -77 -34
-144 -49 -170 l-25 -44 -445 -3 c-275 -1 -455 2 -471 8 -47 18 -33 45 97 178
304 316 563 713 722 1107 73 184 132 301 161 324 26 20 38 21 326 21 164 0
342 -5 396 -11z m-5110 -1193 c26 -57 57 -280 77 -558 l7 -88 -56 26 c-62 28
-91 27 -160 -8 l-38 -20 6 74 c39 424 113 685 164 574z m832 5 c25 -48 62
-310 76 -539 l7 -112 -54 25 c-66 31 -71 31 -136 0 l-53 -24 0 57 c0 150 68
532 105 588 19 29 41 31 55 5z m3860 -13 c35 -58 84 -319 105 -561 l7 -78 -39
19 c-68 35 -97 36 -159 8 l-56 -26 6 88 c29 379 64 582 102 582 8 0 23 -14 34
-32z m823 14 c24 -26 44 -90 67 -210 21 -115 50 -344 50 -404 l0 -37 -52 24
c-66 31 -70 31 -137 0 l-54 -26 7 133 c11 226 51 492 78 526 14 16 22 15 41
-6z M6317 1865 c-38 -13 -83 -32 -100 -41 -48 -24 -161 -71 -262 -109 -296
-109 -685 -135 -1010 -66 -177 37 -262 66 -544 190 -109 48 -168 54 -202 20
-26 -26 -22 -31 89 -107 216 -147 432 -233 712 -284 154 -28 485 -30 635 -4
283 48 509 135 716 274 135 91 138 94 105 127 -31 31 -52 31 -139 0z"/>
</g>
</svg>
