<?xml version="1.0" standalone="no"?>
<!DOCTYPE svg PUBLIC "-//W3C//DTD SVG 20010904//EN"
 "http://www.w3.org/TR/2001/REC-SVG-20010904/DTD/svg10.dtd">
<svg version="1.0" xmlns="http://www.w3.org/2000/svg"
 width="2048.000000pt" height="2048.000000pt" viewBox="0 0 2048.000000 2048.000000"
 preserveAspectRatio="xMidYMid meet">
<metadata>
Created by potrace 1.13, written by Peter Selinger 2001-2015
</metadata>
<g transform="translate(0.000000,2048.000000) scale(0.192120,-0.192120)"
fill="#000000" stroke="none">
<path d="M7143 10051 c-145 -77 -296 -186 -428 -311 l-50 -47 -155 -12 c-835
-66 -1716 -335 -2416 -736 -340 -195 -617 -422 -686 -562 l-30 -61 17 -57 c23
-81 50 -105 118 -105 80 0 96 -17 108 -114 5 -43 19 -95 29 -116 26 -51 91
-105 144 -120 l44 -12 -69 -132 c-202 -389 -322 -824 -371 -1351 -17 -185 -17
-1432 1 -1770 26 -497 75 -901 140 -1142 l11 -40 222 -6 c388 -10 807 -74
1168 -177 l105 -30 130 41 c71 23 159 50 194 60 l63 18 -6 -22 c-3 -12 -6 -68
-6 -123 l0 -102 -126 44 c-69 24 -134 44 -144 44 -25 0 -34 -47 -20 -98 18
-70 110 -132 194 -132 54 0 76 17 105 78 l24 50 51 -18 c159 -54 517 -227 716
-345 358 -212 620 -414 901 -694 331 -331 548 -647 695 -1013 67 -168 130
-409 122 -470 l-3 -26 -49 24 c-121 59 52 55 -2501 52 l-2340 -3 -108 -32
c-167 -49 -281 -65 -457 -65 -171 0 -290 15 -492 62 -73 17 -182 36 -242 41
-128 12 -200 36 -243 81 -32 33 -108 183 -137 271 -9 26 -16 66 -16 88 l0 41
-26 -31 c-47 -56 -58 -56 -91 -2 -23 36 -55 64 -129 114 -114 76 -160 120
-202 197 -63 114 -72 179 -72 519 1 349 -1 343 96 498 91 148 169 222 305 290
89 44 149 51 251 29 54 -11 83 -13 113 -6 22 5 43 10 47 10 3 0 9 -22 13 -50
4 -27 9 -50 12 -50 16 0 43 24 43 38 0 11 14 25 33 34 17 9 43 26 57 38 45 39
340 207 520 296 188 92 401 145 771 189 118 14 244 30 281 36 103 16 139 54
153 158 l7 54 -123 -7 c-692 -39 -1272 -231 -1698 -564 -51 -40 -94 -72 -96
-70 -1 2 -7 13 -14 25 -6 12 -32 35 -58 50 -38 22 -62 28 -131 31 -98 5 -170
-8 -260 -49 -232 -105 -454 -388 -527 -674 -26 -99 -26 -425 -1 -580 35 -212
93 -367 179 -476 75 -94 196 -159 297 -159 l47 0 28 -77 c32 -93 135 -310 194
-411 l42 -72 4319 0 4320 0 0 538 c0 435 -3 555 -15 632 -96 587 -649 1085
-1405 1265 -223 53 -277 57 -737 62 l-431 5 -4 211 c-2 117 -3 213 -2 215 3 6
320 -98 610 -202 500 -178 627 -211 829 -210 163 0 221 19 307 101 157 150
221 456 249 1197 16 440 17 2019 1 2181 -40 396 -118 738 -237 1032 -30 76
-58 143 -61 150 -3 7 10 14 37 18 88 15 125 90 95 196 -21 76 -21 74 14 89 74
31 157 147 197 276 26 85 26 375 -1 489 -61 265 -258 490 -608 694 -386 224
-996 388 -1556 417 -73 4 -129 11 -125 15 19 18 153 88 218 114 86 33 105 50
105 88 0 63 -140 156 -264 175 -52 8 -59 7 -123 -27z m-8 -452 c109 -105 160
-128 352 -159 358 -58 450 -75 588 -110 319 -81 583 -189 790 -324 84 -55 177
-131 184 -150 2 -6 34 -43 70 -82 36 -39 79 -96 94 -126 l28 -55 -3 -254 -3
-254 -57 -95 c-31 -52 -67 -121 -79 -154 -22 -56 -22 -63 -11 -179 7 -66 10
-122 8 -125 -3 -2 -67 7 -143 22 -253 47 -525 75 -1313 131 -704 50 -847 61
-1280 94 -554 43 -654 49 -1072 62 -404 13 -891 2 -1218 -26 -91 -8 -168 -15
-172 -15 -5 0 -8 33 -8 73 0 132 -42 250 -132 370 -32 43 -58 84 -58 91 0 24
41 65 131 133 49 36 89 72 89 78 0 51 555 353 906 494 516 207 1004 327 1599
395 236 27 284 41 391 113 38 26 97 63 132 84 58 34 67 36 100 27 21 -6 58
-31 87 -59z m-1756 -1955 c20 -4 31 -12 30 -23 0 -9 -40 -47 -89 -86 -49 -38
-214 -192 -367 -340 -153 -149 -355 -334 -449 -412 -256 -213 -372 -345 -456
-523 -22 -47 -51 -123 -64 -170 -22 -79 -24 -102 -24 -335 0 -291 15 -418 80
-682 110 -445 288 -837 538 -1183 85 -119 198 -253 267 -320 76 -73 95 -130
43 -130 -12 0 -112 18 -222 40 -249 48 -430 75 -617 90 -79 7 -173 15 -209 18
l-65 7 -22 45 c-25 49 -36 102 -58 260 -39 291 -40 318 -40 1465 l0 1120 23
135 c57 329 142 608 257 843 61 123 94 153 176 162 193 20 1185 35 1268 19z
m966 -54 c215 -16 671 -50 1015 -75 1075 -77 1473 -116 1543 -150 46 -22 74
-69 122 -207 68 -196 118 -411 155 -674 19 -132 20 -198 20 -1269 0 -1118 -5
-1345 -36 -1594 -36 -304 -91 -450 -183 -488 -24 -11 -67 -15 -131 -15 -142 1
-255 28 -540 129 -334 118 -420 157 -420 189 0 9 44 62 99 118 209 218 391
477 530 756 131 263 209 470 276 740 68 271 77 342 82 625 4 237 3 266 -15
330 -41 145 -112 292 -196 405 -301 404 -783 627 -1421 655 -82 3 -206 13
-273 21 -334 41 -760 188 -1167 402 -167 88 -185 100 -185 126 0 18 6 19 168
13 92 -4 343 -20 557 -37z m-779 -232 c264 -153 699 -337 999 -423 230 -65
391 -91 640 -100 276 -11 446 -38 646 -105 359 -119 629 -334 758 -603 80
-166 101 -297 82 -504 -49 -511 -200 -989 -434 -1378 -197 -329 -446 -599
-722 -785 l-72 -49 -7 -71 c-7 -65 -9 -70 -27 -65 -15 5 -35 -6 -76 -42 -105
-90 -158 -125 -268 -178 -206 -99 -390 -131 -709 -122 -271 8 -421 40 -601
130 -98 48 -139 76 -239 162 -43 36 -84 64 -91 61 -15 -5 -25 23 -25 74 -1 32
-6 38 -56 69 -161 97 -401 315 -545 494 -367 455 -585 1012 -655 1670 -35 326
11 537 156 729 57 75 134 146 325 299 133 106 254 220 620 581 116 114 210
208 211 208 1 0 41 -23 90 -52z m1648 -4378 c23 -8 26 -15 26 -55 0 -25 5 -45
10 -45 6 0 10 -13 10 -30 0 -16 4 -30 9 -30 5 0 14 -12 19 -27 18 -50 128
-160 190 -190 l57 -28 435 -6 c515 -8 590 -17 824 -105 114 -43 364 -167 451
-224 274 -180 448 -381 526 -609 18 -50 19 -92 19 -558 l0 -503 -855 0 c-834
0 -855 0 -874 19 -30 30 -44 63 -96 221 -202 621 -610 1157 -1254 1649 -24 18
-116 83 -204 144 -88 60 -179 124 -203 141 -41 30 -61 64 -46 77 4 4 99 9 212
12 123 3 241 12 295 21 100 18 270 71 355 110 65 29 62 29 94 16z M5427 6054
c-69 -21 -131 -86 -153 -159 -23 -81 -17 -344 10 -395 47 -89 119 -134 217
-135 56 0 73 4 114 30 27 17 63 50 80 74 l30 43 3 189 3 189 -28 51 c-33 61
-75 95 -139 115 -57 17 -75 17 -137 -2z M7325 6061 c-69 -17 -125 -62 -161
-131 -17 -30 -19 -59 -19 -215 0 -196 4 -214 64 -278 110 -119 309 -89 377 56
22 49 24 63 24 223 0 162 -1 172 -25 221 -49 98 -157 149 -260 124z M6124
4876 c-32 -32 -34 -38 -34 -101 0 -63 2 -69 34 -101 l34 -34 281 0 281 0 32
29 c32 28 33 32 33 106 0 74 -1 78 -33 106 l-32 29 -281 0 -281 0 -34 -34z
M5774 4341 c-100 -45 -135 -163 -80 -269 35 -68 231 -186 382 -231 247 -73
546 -63 778 27 169 66 303 170 324 252 34 136 -84 262 -222 236 -19 -4 -59
-25 -88 -47 -111 -84 -232 -126 -393 -135 -170 -11 -334 28 -442 103 -126 87
-178 101 -259 64z M5570 3290 c34 -63 260 -149 515 -195 141 -26 432 -31 597
-11 210 26 385 73 516 140 49 25 109 72 102 80 -3 2 -70 -22 -149 -55 -248
-100 -464 -142 -731 -142 -284 1 -531 55 -798 174 -55 25 -61 26 -52 9z M4655
2879 c-178 -24 -309 -113 -379 -258 -24 -50 -26 -66 -26 -177 0 -126 3 -139
49 -232 148 -302 626 -443 956 -282 92 44 149 98 194 183 30 56 31 61 31 192
0 128 -2 139 -29 200 -63 138 -181 258 -306 311 -90 37 -289 75 -383 73 -26
-1 -74 -5 -107 -10z m310 -53 c145 -39 301 -141 387 -253 69 -91 92 -159 93
-268 0 -82 -3 -96 -33 -157 -186 -379 -882 -308 -1090 111 -36 72 -37 79 -37
180 0 92 3 113 24 154 58 118 183 209 331 242 79 18 238 13 325 -9z M2694
2816 c-246 -47 -401 -237 -364 -448 23 -127 100 -248 213 -334 318 -241 775
-194 910 94 103 220 -46 501 -337 632 -129 58 -295 80 -422 56z m231 -231
c108 -19 227 -79 288 -144 l47 -50 0 -99 c0 -92 -2 -101 -25 -126 -50 -54
-107 -71 -240 -71 -98 0 -133 4 -190 23 -89 29 -201 105 -240 163 -27 39 -30
54 -33 131 l-4 86 43 31 c85 63 209 82 354 56z M6143 1876 c-142 -35 -270
-138 -313 -253 -18 -48 -21 -74 -18 -149 3 -81 8 -100 40 -165 111 -222 355
-363 628 -363 165 0 296 50 386 146 155 166 130 403 -64 595 -59 60 -91 82
-175 122 -56 27 -134 57 -174 65 -85 19 -236 20 -310 2z m302 -246 c97 -25
189 -75 243 -134 l42 -46 0 -91 c0 -90 0 -91 -33 -124 -44 -44 -119 -66 -227
-66 -142 1 -275 49 -367 134 -60 55 -83 105 -83 184 0 52 4 66 23 83 78 75
247 100 402 60z M2143 1425 c-248 -67 -381 -274 -315 -492 105 -343 582 -543
917 -383 226 108 292 364 151 584 -84 130 -249 243 -420 286 -94 24 -254 26
-333 5z m282 -240 c94 -20 204 -75 260 -131 l45 -46 0 -97 c0 -93 -1 -98 -27
-123 -125 -114 -441 -76 -598 73 -64 60 -78 96 -73 189 l3 64 48 30 c86 53
213 68 342 41z"/>
</g>
</svg>
