<?xml version="1.0" standalone="no"?>
<!DOCTYPE svg PUBLIC "-//W3C//DTD SVG 20010904//EN"
 "http://www.w3.org/TR/2001/REC-SVG-20010904/DTD/svg10.dtd">
<svg version="1.0" xmlns="http://www.w3.org/2000/svg"
 width="2048.000000pt" height="2048.000000pt" viewBox="0 0 2048.000000 2048.000000"
 preserveAspectRatio="xMidYMid meet">
<metadata>
Created by potrace 1.13, written by Peter Selinger 2001-2015
</metadata>
<g transform="translate(0.000000,2048.000000) scale(0.192120,-0.192120)"
fill="#000000" stroke="none">
<path d="M6105 9350 c-863 -86 -1521 -456 -1910 -1075 -228 -362 -326 -769
-297 -1233 11 -172 37 -367 60 -447 8 -27 4 -35 -47 -90 -122 -131 -187 -316
-198 -560 -12 -277 75 -532 230 -676 35 -33 118 -79 141 -79 17 0 18 -4 41
-145 45 -282 145 -587 285 -865 185 -370 463 -711 755 -928 l60 -44 5 -181 5
-181 190 -139 c169 -123 615 -436 905 -636 58 -39 103 -75 100 -79 -3 -4 -54
-40 -115 -81 -214 -144 -473 -352 -650 -524 l-80 -77 33 -20 c18 -11 38 -31
44 -45 6 -14 14 -25 18 -25 8 0 149 96 168 114 10 10 10 18 -3 42 -18 34 -18
57 -1 104 l13 35 17 -60 c25 -84 63 -164 140 -294 36 -62 66 -115 66 -118 0
-3 -18 -26 -41 -51 -23 -26 -54 -73 -70 -105 l-30 -58 -48 41 c-65 55 -209
212 -313 341 -256 318 -524 817 -660 1227 -17 53 -35 102 -39 107 -5 7 -158 8
-446 4 -402 -5 -446 -8 -538 -28 -522 -115 -933 -429 -1163 -887 -55 -110
-113 -266 -131 -356 -11 -51 -15 -57 -42 -63 -17 -4 -33 -5 -35 -2 -3 3 -67
171 -144 373 -76 203 -217 578 -314 833 -97 256 -173 468 -169 471 5 4 31 15
58 25 28 10 69 29 93 43 39 22 47 24 81 13 21 -6 67 -11 102 -11 140 0 252 92
310 256 30 85 37 270 14 384 -53 261 -217 500 -408 595 -176 87 -346 46 -443
-106 -19 -30 -29 -37 -66 -41 -51 -6 -674 -238 -737 -275 -41 -24 -46 -25
-102 -13 -120 26 -227 -8 -308 -95 -113 -123 -150 -362 -91 -590 29 -111 117
-286 184 -367 160 -193 374 -271 527 -193 42 22 104 80 130 121 11 19 27 34
36 34 8 0 56 14 106 30 89 30 106 30 107 -3 0 -8 467 -1249 564 -1501 26 -65
45 -120 44 -121 -2 -1 -26 -14 -55 -30 -124 -66 -237 -205 -288 -355 -25 -74
-29 -100 -29 -205 -1 -66 2 -128 6 -137 7 -17 221 -18 4303 -18 l4295 0 0 323
c0 417 -14 537 -86 757 -173 527 -618 946 -1152 1086 -181 47 -267 54 -694 54
l-396 0 -27 -83 c-115 -349 -341 -799 -549 -1092 -137 -194 -334 -421 -445
-514 l-50 -42 -41 78 c-22 43 -49 94 -61 113 l-22 35 79 135 c49 83 93 174
114 235 l34 100 12 -40 c17 -54 17 -78 -1 -101 -8 -10 -15 -24 -15 -31 0 -6
39 -37 87 -70 66 -44 87 -55 91 -43 3 8 22 31 43 50 28 27 35 39 28 51 -10 19
-241 228 -354 320 -118 97 -226 177 -350 259 -60 40 -114 76 -118 80 -4 4 77
65 180 135 276 189 633 440 835 588 l178 130 2 181 3 180 85 65 c121 92 351
326 452 461 237 314 409 671 508 1051 21 85 48 206 58 270 11 64 22 121 25
126 4 6 19 14 34 18 45 11 120 63 161 113 89 107 142 225 174 386 26 131 21
346 -12 476 -27 110 -97 253 -154 317 -46 51 -46 51 -37 99 22 118 35 328 35
569 1 233 -1 272 -22 373 -81 400 -292 773 -618 1094 -121 118 -203 185 -355
287 -331 223 -681 355 -1129 426 -123 20 -609 29 -755 15z m749 -260 c399 -60
766 -206 1071 -424 264 -189 492 -449 641 -731 58 -109 154 -343 173 -417 7
-32 11 -194 11 -508 0 -438 1 -463 20 -499 20 -41 67 -92 107 -118 28 -19 26
-46 -9 -140 -28 -76 -75 -123 -123 -123 -65 0 -94 42 -293 431 -99 195 -195
384 -213 420 l-32 66 -161 6 c-597 23 -1103 146 -1338 325 -38 28 -68 50 -68
48 0 -2 20 -45 44 -97 85 -183 122 -350 87 -392 -57 -69 -256 55 -587 368
l-132 124 5 -82 c4 -72 2 -88 -19 -127 -43 -83 -121 -100 -256 -54 -170 56
-314 149 -696 446 -21 16 -24 14 -108 -60 -139 -123 -263 -272 -371 -445 -126
-203 -253 -521 -308 -769 -27 -125 -47 -158 -94 -158 -60 0 -130 79 -176 199
l-18 49 40 26 c21 15 53 45 69 68 l30 41 0 491 c0 487 0 492 25 591 31 127 55
196 111 315 177 375 476 680 860 877 299 154 617 237 1054 277 122 11 519 -4
654 -24z m-1712 -1693 c21 -12 105 -68 187 -124 175 -119 322 -194 440 -224
127 -32 179 -23 325 58 60 32 90 21 216 -86 204 -171 369 -230 469 -167 46 29
79 69 88 105 3 14 9 31 14 36 4 6 9 31 11 55 2 32 7 45 18 45 8 0 17 5 20 11
3 8 34 2 95 -18 215 -68 542 -125 864 -149 150 -12 167 -15 207 -40 56 -36 99
-95 175 -244 34 -66 83 -154 109 -195 25 -41 71 -120 101 -174 61 -113 124
-188 180 -216 46 -24 122 -26 172 -5 44 18 47 18 47 1 0 -7 9 -16 21 -19 20
-5 20 -11 17 -184 l-3 -178 -34 -68 c-19 -38 -64 -102 -100 -144 -181 -206
-211 -257 -251 -428 -47 -198 -186 -577 -281 -767 -48 -96 -176 -299 -257
-408 -31 -41 -136 -156 -233 -255 -195 -197 -230 -238 -264 -305 -33 -67 -36
-92 -19 -151 19 -64 28 -55 -136 -139 -272 -138 -574 -209 -890 -210 -329 0
-614 65 -895 205 -173 86 -169 82 -154 140 16 63 -1 135 -48 206 -20 29 -113
131 -207 224 -230 229 -330 355 -449 561 -169 296 -237 481 -341 927 -31 131
-67 191 -212 347 -67 73 -107 125 -128 170 l-31 65 -3 227 c-3 220 -2 227 17
238 15 7 27 8 40 0 14 -7 21 -6 24 3 3 9 15 8 53 -6 69 -24 104 -22 155 12 78
52 105 101 159 284 104 358 252 637 465 881 110 127 168 151 247 103z m-3068
-3325 c204 -96 344 -323 363 -586 10 -143 -41 -294 -128 -377 -35 -34 -145
-97 -154 -88 -2 2 17 29 42 59 53 63 106 168 128 255 49 190 -13 404 -159 549
-103 103 -260 175 -381 176 -49 1 -33 13 47 35 75 21 166 13 242 -23z m-118
-315 c59 -30 120 -86 134 -123 6 -14 10 -85 10 -157 0 -170 -6 -182 -126 -261
-100 -66 -213 -176 -275 -267 -22 -33 -47 -63 -54 -65 -8 -3 -29 2 -48 11 -41
19 -70 79 -93 195 -34 173 -54 233 -131 400 -19 41 -37 90 -40 107 -5 31 -3
34 43 54 27 11 128 48 224 80 158 55 181 60 240 56 44 -3 82 -13 116 -30z
m-905 -145 c218 -203 330 -584 248 -840 -10 -30 -14 -33 -38 -28 -71 17 -152
18 -227 2 -95 -19 -123 -13 -194 39 -66 48 -122 121 -173 224 l-42 84 -4 159
c-3 174 1 193 58 222 16 9 31 23 33 34 3 10 21 23 44 30 48 14 85 48 130 119
l35 54 31 -18 c18 -10 62 -46 99 -81z m4584 -815 c242 -121 552 -177 895 -164
351 15 614 89 851 242 68 43 72 45 44 15 -67 -71 -228 -174 -527 -334 -117
-63 -262 -144 -322 -180 -60 -36 -117 -66 -128 -66 -23 0 -55 16 -180 91 -53
32 -170 97 -260 145 -301 160 -449 252 -543 338 l-40 37 60 -40 c33 -21 101
-59 150 -84z m-941 -568 c30 -24 52 -63 112 -199 55 -127 169 -353 239 -476
100 -174 156 -258 289 -429 157 -202 223 -279 325 -379 50 -49 91 -92 91 -96
0 -4 -7 -14 -17 -21 -13 -11 -101 -15 -457 -17 l-442 -3 -21 44 c-11 24 -33
106 -48 183 -38 195 -88 287 -195 358 -37 25 -85 20 -134 -13 -105 -72 -160
-168 -202 -350 -44 -191 -66 -221 -158 -221 -89 0 -107 25 -136 188 -34 189
-62 261 -127 329 -116 120 -160 115 -315 -41 -70 -70 -65 -71 -198 63 -103
104 -169 152 -281 206 -40 19 -76 40 -81 47 -16 26 -7 68 28 135 58 109 120
191 228 298 226 225 526 365 863 404 37 5 190 9 339 10 261 1 272 0 298 -20z
m4124 11 c387 -42 742 -230 961 -508 104 -131 152 -220 214 -392 l31 -85 4
-322 3 -323 -240 0 -240 0 -25 43 c-13 23 -34 89 -46 147 -42 201 -101 316
-196 379 -77 51 -119 41 -215 -54 -65 -63 -94 -132 -128 -295 -21 -100 -38
-154 -56 -181 l-25 -39 -70 0 -69 0 -25 43 c-15 25 -38 97 -55 172 -43 193
-90 279 -195 356 -61 45 -98 40 -177 -24 -63 -53 -109 -120 -130 -190 -6 -18
-21 -85 -34 -150 -15 -74 -33 -135 -50 -163 l-26 -44 -417 1 c-229 1 -428 4
-442 8 -47 13 -36 38 67 144 132 137 329 379 440 542 105 153 283 479 356 651
65 152 119 254 144 274 24 19 40 20 285 20 142 0 302 -5 356 -10z m-2317 -567
c16 -10 29 -24 30 -33 0 -8 49 -51 110 -94 97 -71 109 -83 109 -110 0 -17 -29
-88 -67 -166 -66 -131 -68 -137 -68 -212 0 -68 3 -81 30 -120 38 -54 134 -105
220 -116 l60 -7 -70 -58 c-91 -76 -227 -166 -332 -220 l-83 -42 -77 40 c-97
49 -256 155 -348 232 l-70 58 61 7 c83 9 156 42 199 90 45 49 55 75 55 146 0
64 -19 121 -86 253 -28 56 -44 101 -42 117 2 20 26 44 105 102 56 41 102 82
103 91 0 20 68 58 103 59 16 0 42 -8 58 -17z m-3646 -448 c119 -25 228 -86
320 -179 105 -105 141 -176 205 -398 27 -95 50 -176 50 -180 0 -14 -18 -9
-102 31 -46 21 -96 45 -113 52 -24 11 -138 15 -575 17 -436 2 -548 6 -560 16
-8 8 -25 17 -37 20 -35 11 -31 63 9 117 18 24 39 56 48 71 8 15 32 56 52 91
46 78 54 113 39 173 -7 26 -11 48 -9 49 4 4 221 70 259 78 23 6 27 3 37 -32
14 -46 54 -91 80 -91 30 0 78 62 93 119 7 29 19 52 28 54 34 10 109 6 176 -8z
m856 -182 c25 -65 57 -303 75 -546 l6 -97 -53 25 c-65 30 -90 31 -148 5 -24
-11 -45 -19 -46 -18 -12 13 36 379 66 508 31 133 75 187 100 123z m834 -6 c27
-65 75 -434 75 -577 l0 -59 -52 24 c-29 14 -60 25 -68 25 -8 0 -39 -11 -67
-25 l-53 -24 0 54 c0 135 59 482 95 563 28 61 50 67 70 19z m3857 -3 c36 -62
84 -321 103 -552 l7 -84 -43 23 c-66 33 -104 30 -202 -19 -14 -7 22 390 49
536 25 136 48 162 86 96z m833 7 c37 -73 86 -338 102 -550 l6 -91 -54 25 c-66
31 -71 31 -136 0 l-53 -24 0 64 c0 160 55 559 81 591 18 22 37 17 54 -15z
M5234 6424 c-58 -21 -120 -77 -152 -138 -27 -51 -27 -52 -27 -261 0 -178 3
-216 18 -247 24 -53 72 -104 126 -136 40 -24 57 -27 131 -27 74 0 91 3 131 27
54 32 102 83 126 136 15 31 18 69 18 247 0 209 0 210 -27 261 -66 126 -213
185 -344 138z m114 -406 c-3 -119 -5 -143 -18 -143 -13 0 -15 24 -18 143 -2
138 -2 142 18 142 20 0 20 -4 18 -142z M7464 6428 c-60 -20 -127 -80 -159
-143 l-30 -59 0 -200 c0 -200 0 -201 28 -258 50 -102 142 -158 256 -158 107 1
213 76 251 178 17 46 20 78 20 236 0 211 -8 249 -72 321 -56 63 -107 87 -193
91 -38 2 -84 -2 -101 -8z m106 -408 c0 -133 -1 -140 -20 -140 -19 0 -20 7 -20
140 0 133 1 140 20 140 19 0 20 -7 20 -140z M6167 5250 c-69 -21 -126 -90
-141 -170 -10 -59 17 -131 68 -178 63 -58 105 -65 381 -60 l230 3 47 28 c113
66 138 211 55 312 -57 70 -79 75 -362 74 -137 0 -263 -5 -278 -9z M5540 4624
c-152 -19 -407 -82 -472 -116 -201 -106 -237 -322 -83 -487 84 -90 166 -106
326 -65 31 8 66 14 77 14 12 0 52 -27 89 -61 143 -128 230 -143 424 -73 88 32
130 30 219 -8 69 -30 82 -32 165 -29 124 4 168 4 255 2 64 -2 87 2 153 28 97
39 131 39 242 -1 169 -59 275 -38 395 81 36 36 70 61 83 61 11 0 69 -10 128
-22 94 -18 113 -20 153 -8 132 37 214 152 215 303 1 101 -33 174 -107 230 -62
46 -122 67 -331 114 l-166 38 -275 -4 c-423 -5 -877 -5 -1180 1 -151 4 -291 4
-310 2z m1715 -133 c133 -16 464 -92 498 -115 104 -70 103 -202 -2 -273 -63
-43 -86 -41 -302 24 -109 33 -199 58 -199 54 1 -3 7 -17 15 -31 18 -32 19
-113 1 -148 -19 -36 -65 -78 -99 -91 -63 -24 -101 -14 -267 69 -88 44 -162 80
-165 80 -3 0 -5 -7 -5 -17 0 -36 -50 -101 -93 -122 -83 -40 -156 -21 -193 51
l-16 31 -25 -32 c-50 -63 -143 -88 -216 -57 -40 16 -81 64 -97 111 -7 20 -15
35 -18 33 -4 -2 -76 -38 -160 -80 -169 -86 -210 -95 -280 -59 -46 23 -67 46
-87 94 -20 48 -19 83 5 136 18 40 19 43 2 36 -9 -3 -98 -31 -197 -61 -143 -44
-189 -54 -222 -49 -157 22 -204 222 -70 303 33 20 373 99 482 112 90 11 1617
11 1710 1z M4960 2798 c-12 -22 -12 -22 6 -6 10 10 15 20 12 24 -4 3 -12 -5
-18 -18z M7916 2807 c3 -10 9 -15 12 -12 3 3 0 11 -7 18 -10 9 -11 8 -5 -6z"/>
</g>
</svg>
