<?xml version="1.0" standalone="no"?>
<!DOCTYPE svg PUBLIC "-//W3C//DTD SVG 20010904//EN"
 "http://www.w3.org/TR/2001/REC-SVG-20010904/DTD/svg10.dtd">
<svg version="1.0" xmlns="http://www.w3.org/2000/svg"
 width="2048.000000pt" height="2048.000000pt" viewBox="0 0 2048.000000 2048.000000"
 preserveAspectRatio="xMidYMid meet">
<metadata>
Created by potrace 1.13, written by Peter Selinger 2001-2015
</metadata>
<g transform="translate(0.000000,2048.000000) scale(0.192120,-0.192120)"
fill="#000000" stroke="none">
<path d="M5619 10312 c-236 -96 -632 -541 -934 -1052 -134 -226 -279 -539
-361 -780 l-19 -55 -450 -6 c-645 -9 -923 -38 -1127 -115 -136 -51 -188 -110
-188 -210 0 -193 181 -476 454 -711 221 -190 586 -407 866 -513 54 -20 57 -26
65 -96 4 -35 14 -97 24 -138 l17 -73 -52 -56 c-98 -105 -162 -252 -189 -434
-62 -413 99 -803 368 -887 11 -3 17 -15 17 -34 0 -47 38 -238 75 -380 163
-618 529 -1185 982 -1520 l63 -47 0 -307 0 -308 33 7 c50 9 99 35 105 55 2 10
9 18 14 18 14 0 4 159 -15 240 -8 36 -13 67 -12 68 2 2 36 -21 77 -51 303
-226 705 -324 1182 -288 335 25 584 109 815 273 52 37 96 66 98 64 2 -2 -3
-32 -12 -67 -8 -35 -15 -104 -15 -154 0 -110 11 -128 90 -148 l55 -14 3 303 2
303 119 95 c501 403 867 1048 985 1738 13 75 27 141 30 146 3 6 19 13 35 17
47 10 135 80 184 145 60 79 104 173 135 290 23 84 26 115 26 270 1 150 -3 188
-22 265 -29 115 -98 257 -156 322 l-46 51 10 54 c6 30 14 103 18 162 l7 108
150 67 c544 244 956 589 1120 936 91 192 89 305 -7 379 -101 77 -303 125 -653
157 -66 6 -321 13 -566 16 l-446 6 -22 71 c-186 586 -699 1377 -1104 1701
-156 125 -251 156 -372 120 -140 -40 -209 -89 -432 -307 -174 -171 -189 -181
-236 -157 -12 6 -96 85 -187 174 -227 224 -338 292 -490 301 -47 3 -77 -1
-111 -14z m203 -266 c60 -26 123 -74 218 -165 90 -87 214 -179 285 -213 144
-68 267 -17 504 208 147 139 215 182 306 191 46 5 60 1 116 -28 143 -76 415
-382 622 -698 144 -218 308 -522 387 -714 44 -107 98 -161 213 -211 84 -38 87
-40 70 -58 -47 -52 -245 -141 -442 -199 -1046 -306 -3026 -229 -3679 143 -116
67 -117 68 -19 112 125 55 150 86 252 306 90 194 132 274 225 430 217 364 478
692 664 834 117 90 183 105 278 62z m-1567 -1832 c-14 -77 -29 -191 -32 -254
-5 -105 -4 -120 17 -168 26 -60 115 -148 204 -201 296 -176 921 -290 1707
-310 1393 -36 2355 167 2499 527 23 59 -2 350 -47 530 -5 20 5 16 92 -34 106
-61 190 -94 241 -94 18 0 34 -5 36 -10 2 -7 106 -14 281 -20 380 -13 608 -37
731 -79 43 -14 51 -21 64 -56 13 -37 12 -45 -8 -98 -62 -165 -274 -390 -521
-553 -57 -38 -193 -110 -303 -162 -116 -54 -247 -124 -312 -167 -200 -131
-305 -173 -494 -196 -180 -21 -667 -127 -765 -167 -87 -35 -94 -36 -195 -33
-230 7 -358 5 -645 -8 -313 -14 -655 -11 -1002 10 -161 10 -196 9 -288 -6
-127 -21 -162 -17 -279 31 -87 36 -439 116 -726 165 -247 42 -275 49 -344 82
-39 19 -112 61 -161 94 -98 66 -159 98 -370 193 -148 67 -317 171 -425 261
-238 197 -400 407 -400 517 0 39 2 43 30 49 21 4 30 11 30 24 0 25 23 33 140
53 159 26 281 35 625 47 181 6 332 14 335 19 3 4 21 10 41 14 20 3 87 37 150
75 63 37 115 67 117 66 1 -1 -9 -65 -23 -141z m306 -229 c334 -125 817 -210
1386 -245 221 -13 780 -13 993 0 568 36 1022 115 1359 236 51 19 100 34 107
34 11 0 14 -18 14 -74 0 -65 -3 -78 -25 -104 -47 -56 -265 -147 -471 -196
-351 -83 -746 -123 -1324 -133 -634 -10 -1195 33 -1599 123 -226 51 -454 141
-525 208 -35 33 -36 35 -36 110 0 57 3 76 14 76 7 0 56 -16 107 -35z m4342
-1167 c-4 -7 -24 -38 -43 -68 -20 -30 -49 -80 -64 -110 -16 -30 -32 -63 -37
-72 -5 -10 -9 -37 -9 -62 0 -85 -44 -84 -136 4 -56 54 -167 120 -180 107 -3
-3 40 -95 96 -205 112 -224 156 -282 212 -282 71 1 121 78 173 265 l22 80 18
-90 c15 -71 20 -149 23 -371 3 -266 2 -284 -18 -344 -28 -84 -95 -185 -183
-279 -121 -128 -152 -185 -197 -363 -76 -304 -280 -829 -387 -997 -113 -177
-231 -310 -438 -493 -104 -92 -180 -182 -216 -256 -17 -35 -20 -55 -16 -98 5
-52 4 -55 -26 -78 -126 -94 -432 -215 -657 -260 -259 -52 -568 -49 -836 8
-196 42 -477 155 -612 248 l-43 29 7 50 c6 43 2 58 -26 116 -34 69 -141 186
-286 312 -40 34 -91 87 -115 117 -24 31 -66 83 -92 117 -251 316 -443 761
-538 1247 -19 95 -68 170 -199 305 -172 177 -180 202 -180 549 0 264 0 261 47
535 l6 34 22 -59 c61 -163 144 -274 203 -274 37 0 69 27 78 67 4 16 24 98 46
183 56 217 54 201 32 194 -20 -7 -81 -46 -133 -85 -29 -21 -31 -21 -55 -5 -15
9 -26 24 -26 34 0 9 -34 67 -74 127 -41 61 -73 111 -71 113 2 2 88 -24 191
-57 565 -180 1157 -274 1917 -303 249 -9 389 -9 640 0 773 29 1401 130 1957
315 218 73 214 72 203 55z M5234 6424 c-58 -21 -120 -77 -152 -138 -27 -51
-27 -52 -27 -261 0 -178 3 -216 18 -247 24 -53 72 -104 126 -136 40 -24 57
-27 131 -27 74 0 91 3 131 27 54 32 102 83 126 136 15 31 18 69 18 247 0 209
0 210 -27 261 -66 125 -213 184 -344 138z M7474 6429 c-53 -15 -127 -72 -156
-119 -40 -65 -51 -141 -46 -325 3 -151 5 -164 31 -218 50 -101 142 -157 256
-157 107 1 213 76 251 178 17 46 20 78 20 236 0 221 -9 256 -84 332 -75 74
-175 101 -272 73z M6160 5249 c-145 -58 -180 -242 -66 -347 25 -23 57 -45 73
-49 15 -4 143 -8 283 -8 l255 0 47 28 c113 66 138 211 55 312 -58 70 -79 75
-367 74 -143 0 -266 -5 -280 -10z M5515 4265 c-5 -2 -22 -6 -37 -9 -37 -8 -98
-63 -114 -103 -21 -49 -17 -112 9 -158 62 -110 308 -207 637 -251 168 -23 655
-26 820 -6 297 37 531 112 635 203 85 75 94 183 22 266 -71 81 -162 84 -266 8
-116 -85 -525 -145 -891 -131 -338 14 -547 56 -690 141 -51 31 -102 47 -125
40z M455 6561 c-50 -22 -101 -79 -115 -128 -8 -27 -10 -408 -7 -1333 3 -1285
3 -1296 25 -1394 66 -303 194 -555 390 -771 227 -248 551 -430 875 -491 l97
-18 0 -318 0 -319 -35 -30 c-19 -17 -49 -61 -67 -97 l-33 -67 -3 -632 -3 -633
348 0 348 0 -3 626 c-4 713 -1 686 -88 784 l-46 50 -1 319 -2 318 95 17 c335
59 680 259 907 525 201 236 329 520 373 831 7 50 11 501 10 1354 l0 1280 -26
43 c-34 59 -88 93 -158 100 -73 8 -150 -28 -192 -89 l-29 -41 -6 -1301 c-5
-1414 -2 -1328 -60 -1506 -100 -304 -341 -572 -635 -706 -76 -35 -231 -84
-263 -84 -15 0 -16 138 -16 1787 l0 1788 -25 45 c-85 151 -300 142 -371 -15
-18 -38 -19 -120 -19 -1822 0 -1773 0 -1783 -20 -1783 -37 0 -215 62 -300 105
-337 170 -564 472 -634 844 -14 73 -16 238 -16 1333 0 867 -3 1262 -11 1292
-30 122 -170 189 -284 137z m1558 -3830 c34 -36 57 -68 57 -82 0 -28 -66 -115
-107 -140 -20 -12 -41 -18 -52 -14 -41 13 -131 120 -131 155 0 9 26 44 59 78
79 83 98 83 174 3z m-111 -1217 c50 -7 107 7 151 38 l27 19 0 -25 c0 -37 -22
-126 -32 -126 -4 0 -8 -169 -8 -375 0 -368 0 -375 -20 -375 -17 0 -20 -7 -20
-45 l0 -45 -80 0 -80 0 0 45 c0 38 -3 45 -20 45 -20 0 -20 7 -20 376 0 206 -4
383 -9 392 -5 9 -12 43 -16 75 l-7 59 44 -26 c25 -14 65 -29 90 -32z M3938
2540 c-1 -5 -55 -22 -119 -39 -305 -76 -557 -219 -779 -441 -181 -182 -319
-404 -400 -647 -75 -228 -90 -356 -90 -779 l0 -304 3890 0 3890 0 0 323 c0
322 -7 435 -36 577 -41 199 -149 446 -272 620 -86 121 -270 306 -392 393 -169
120 -404 225 -599 267 -47 11 -87 24 -89 30 -3 7 -208 10 -648 10 l-644 0 0
-33 c0 -44 -27 -134 -53 -177 -110 -182 -377 -314 -762 -377 -158 -26 -591
-26 -755 1 -339 54 -577 151 -721 295 -73 74 -106 136 -122 229 l-11 62 -642
0 c-405 0 -644 -4 -646 -10z m4125 -223 c9 -4 17 -13 17 -22 0 -8 7 -15 15
-15 11 0 15 11 15 40 0 37 1 39 28 35 15 -2 182 -7 372 -10 190 -4 363 -10
385 -13 37 -7 40 -10 43 -42 l3 -35 104 -27 c333 -85 636 -294 817 -562 77
-115 117 -197 159 -321 l34 -100 3 -332 3 -333 -560 0 -561 0 0 -25 0 -25
-1250 -2 c-688 -2 -1813 -2 -2500 0 l-1250 2 0 25 0 25 -570 0 -570 0 0 280
c0 303 7 364 57 504 63 178 165 337 303 476 193 194 422 324 688 391 92 24 92
24 92 55 0 21 6 34 18 39 26 11 372 25 587 24 105 0 197 2 207 6 13 5 17 -2
23 -34 7 -44 23 -54 32 -21 3 11 10 20 15 20 6 0 58 32 116 71 115 77 116 77
127 0 31 -212 195 -523 408 -776 226 -268 578 -556 832 -682 80 -39 96 -44
145 -41 142 10 469 231 758 513 347 338 545 662 612 1003 l13 61 106 -73 c58
-40 114 -76 124 -79z m-2299 -551 c236 -71 497 -102 781 -93 210 7 360 28 530
73 190 51 185 51 185 23 0 -49 -203 -263 -390 -412 -111 -89 -272 -192 -335
-216 -79 -30 -137 -27 -214 9 -177 84 -453 304 -622 496 -85 96 -108 128 -109
153 0 17 19 13 174 -33z"/>
</g>
</svg>
