<?xml version="1.0" standalone="no"?>
<!DOCTYPE svg PUBLIC "-//W3C//DTD SVG 20010904//EN"
 "http://www.w3.org/TR/2001/REC-SVG-20010904/DTD/svg10.dtd">
<svg version="1.0" xmlns="http://www.w3.org/2000/svg"
 width="2048.000000pt" height="2048.000000pt" viewBox="0 0 2048.000000 2048.000000"
 preserveAspectRatio="xMidYMid meet">
<metadata>
Created by potrace 1.13, written by Peter Selinger 2001-2015
</metadata>
<g transform="translate(0.000000,2048.000000) scale(0.192120,-0.192120)"
fill="#000000" stroke="none">
<path d="M6332 10314 c-70 -18 -106 -38 -158 -86 -47 -43 -84 -101 -103 -160
-12 -35 -16 -38 -50 -38 -60 0 -268 -29 -394 -56 -681 -144 -1152 -475 -1411
-992 -154 -308 -223 -599 -256 -1092 -6 -85 -19 -207 -30 -270 -33 -197 -43
-335 -36 -500 8 -184 30 -380 55 -482 l17 -74 -57 -63 c-231 -250 -265 -780
-71 -1100 66 -109 154 -184 255 -215 11 -3 17 -15 17 -34 0 -47 38 -238 75
-380 162 -617 522 -1175 978 -1517 l62 -47 5 -377 5 -376 31 -65 c37 -78 77
-126 153 -184 158 -120 376 -198 680 -243 162 -24 560 -24 721 0 377 57 667
194 766 363 65 111 65 113 64 510 l-1 362 119 96 c502 403 868 1048 986 1738
13 75 27 141 30 146 3 6 19 13 35 17 47 10 135 80 184 145 60 79 104 173 135
290 23 84 26 115 26 270 1 150 -3 188 -22 265 -29 116 -98 257 -157 323 -32
36 -45 57 -41 70 37 116 60 900 32 1107 -8 66 -23 188 -31 270 -103 993 -649
1702 -1523 1979 -165 52 -467 114 -559 116 -7 0 -13 6 -13 13 0 29 -62 139
-99 176 -96 96 -269 136 -419 95z m565 -461 c16 -34 41 -67 59 -79 17 -11 107
-40 200 -63 291 -75 479 -149 664 -261 417 -251 696 -634 821 -1129 24 -93 29
-134 29 -230 0 -64 -4 -121 -8 -127 -18 -29 -573 -66 -1432 -95 -860 -29
-2223 5 -2865 72 -162 17 -145 -4 -145 174 0 155 11 243 51 395 121 462 384
788 806 999 191 96 345 146 642 210 97 21 192 45 212 54 38 16 73 57 90 107
l11 30 419 0 418 0 28 -57z m-2692 -2068 c440 -51 779 -70 1555 -86 1190 -25
2387 13 3010 95 58 7 106 13 107 12 0 0 -14 -37 -33 -81 -53 -127 -43 -236 34
-370 40 -68 40 -68 25 -111 -50 -146 -189 -244 -349 -244 -83 0 -121 15 -425
168 -140 71 -305 147 -366 170 -396 146 -797 212 -1299 212 -514 0 -927 -67
-1319 -215 -66 -25 -246 -109 -401 -186 -274 -138 -283 -142 -357 -147 -160
-10 -289 64 -359 205 l-32 66 22 36 c13 20 37 65 55 101 28 58 32 75 32 150 0
76 -4 93 -37 167 -35 79 -35 83 -15 78 12 -2 81 -11 152 -20z m2610 -385 c541
-40 947 -161 1435 -427 156 -85 235 -113 313 -113 120 0 240 55 300 137 63 86
58 82 51 38 -11 -64 -31 -117 -99 -257 -65 -132 -65 -133 -65 -220 0 -79 -2
-87 -21 -93 -40 -13 -64 5 -124 92 -54 77 -281 310 -292 299 -3 -2 68 -148
156 -324 176 -349 212 -402 273 -402 71 1 121 78 173 265 l22 80 18 -90 c15
-71 20 -149 23 -371 3 -266 2 -284 -18 -344 -28 -84 -95 -185 -183 -279 -121
-128 -152 -185 -197 -363 -76 -304 -280 -829 -387 -997 -113 -177 -231 -310
-438 -493 -104 -92 -180 -182 -216 -256 -17 -35 -20 -55 -16 -98 5 -52 4 -55
-26 -78 -126 -94 -432 -215 -657 -260 -259 -52 -568 -49 -836 8 -196 42 -477
155 -612 248 l-43 29 7 50 c6 43 2 58 -26 116 -34 69 -141 186 -286 312 -40
34 -91 87 -115 117 -24 31 -66 83 -92 117 -251 316 -443 761 -538 1247 -19 96
-68 170 -200 306 -80 81 -106 116 -136 180 l-38 79 -3 265 c-4 263 -2 287 35
498 l17 93 22 -58 c58 -157 143 -273 198 -273 63 0 70 13 115 202 25 106 93
322 127 402 6 15 -3 12 -41 -15 -51 -36 -175 -157 -175 -171 0 -13 -37 -9 -47
5 -17 22 -151 331 -162 372 -13 52 -25 165 -18 165 4 0 19 -25 34 -57 67 -137
181 -213 329 -221 103 -6 118 0 419 154 322 165 500 233 787 299 161 38 374
71 538 84 154 12 554 13 715 1z m-1397 -4463 c252 -193 544 -288 931 -303 438
-18 793 74 1080 278 52 37 96 66 98 65 1 -2 -7 -44 -19 -93 -16 -67 -23 -136
-27 -276 l-6 -186 -31 -44 c-39 -55 -164 -139 -269 -179 -110 -43 -285 -86
-424 -104 -138 -19 -426 -21 -561 -5 -289 35 -571 129 -698 234 -99 81 -96 72
-103 311 -5 184 -14 260 -35 328 -8 25 2 21 64 -26z M6211 7284 c111 -117 350
-303 442 -345 137 -62 166 32 80 266 -14 39 -30 75 -35 80 -9 10 -28 -9 -88
-84 -22 -27 -29 -30 -60 -24 -19 3 -72 24 -118 45 -100 46 -163 72 -216 86
l-39 11 34 -35z M6005 7279 c-78 -44 -141 -54 -269 -41 -60 7 -112 10 -114 7
-9 -8 142 -74 207 -91 103 -26 185 -1 209 63 10 26 24 94 19 92 -1 -1 -24 -14
-52 -30z M6884 7278 c175 -90 583 -181 906 -202 117 -8 89 0 -310 89 -184 41
-401 90 -482 110 -80 19 -152 35 -160 35 -7 -1 14 -15 46 -32z M5234 6424
c-58 -21 -120 -77 -152 -138 -27 -51 -27 -52 -27 -261 0 -178 3 -216 18 -247
24 -53 72 -104 126 -136 40 -24 57 -27 131 -27 74 0 91 3 131 27 54 32 102 83
126 136 15 31 18 69 18 247 0 209 0 210 -27 261 -66 126 -213 185 -344 138z
M7464 6428 c-60 -20 -127 -80 -159 -143 l-30 -59 0 -200 c0 -200 0 -201 28
-258 50 -102 142 -158 256 -158 107 1 213 76 251 178 17 46 20 78 20 236 0
211 -8 249 -72 321 -56 63 -107 87 -193 91 -38 2 -84 -2 -101 -8z M6160 5249
c-145 -58 -180 -242 -66 -347 25 -23 57 -45 73 -49 15 -4 143 -8 283 -8 l255
0 47 28 c113 66 138 211 55 312 -58 70 -79 75 -367 74 -143 0 -266 -5 -280
-10z M5515 4265 c-5 -2 -22 -6 -37 -9 -37 -8 -98 -63 -114 -103 -21 -49 -17
-112 9 -158 62 -110 308 -207 637 -251 168 -23 655 -26 820 -6 297 37 531 112
635 203 85 75 94 183 22 266 -71 81 -162 84 -266 8 -116 -85 -525 -145 -891
-131 -338 14 -547 56 -690 141 -51 31 -102 47 -125 40z M2271 4287 l3 -635
-25 -36 c-79 -117 -315 -197 -589 -198 -212 -1 -357 28 -493 99 -76 40 -122
89 -137 145 -7 23 -9 262 -8 642 2 403 0 606 -7 606 -6 0 -46 -24 -90 -54
-300 -202 -497 -494 -572 -846 -25 -119 -24 -382 1 -499 95 -443 379 -793 781
-962 l90 -38 3 -1090 2 -1091 420 0 421 0 -3 1089 -3 1089 80 32 c167 67 306
160 440 295 186 186 319 441 366 705 19 107 17 354 -4 462 -36 179 -115 367
-214 506 -100 141 -281 307 -426 392 l-39 23 3 -636z m321 -12 c15 -22 42 -74
60 -115 l33 -75 0 -320 0 -320 -33 -81 c-93 -232 -234 -390 -470 -529 -94 -56
-135 -88 -209 -164 -56 -57 -95 -105 -98 -122 -4 -16 -11 -29 -16 -29 -5 0 -9
-9 -9 -19 0 -11 -4 -23 -10 -26 -7 -4 -10 -317 -10 -906 0 -892 0 -899 -20
-899 -17 0 -20 -7 -20 -40 l0 -40 -150 0 -150 0 0 40 c0 29 -4 40 -15 40 -13
0 -15 107 -15 899 0 589 -3 902 -10 906 -5 3 -10 15 -10 25 0 10 -3 20 -7 22
-5 2 -18 24 -31 49 -36 72 -154 183 -262 247 -141 83 -207 132 -291 219 -113
116 -199 262 -239 405 -18 64 -20 102 -20 326 0 246 1 255 26 332 35 105 100
205 134 205 17 0 26 -7 31 -25 4 -14 7 -152 8 -307 1 -176 5 -284 11 -288 6
-3 10 -16 10 -28 0 -68 95 -222 194 -315 109 -102 269 -166 476 -192 242 -29
521 12 695 104 127 66 282 265 308 396 5 25 12 180 16 346 4 165 11 306 15
313 14 22 50 7 78 -34z M3940 1440 l0 -1110 2503 0 2502 0 -3 1110 -2 1110
-418 0 -417 0 3 -415 3 -415 -1672 0 -1671 0 4 415 4 415 -418 0 -418 0 0
-1110z m610 590 c0 -153 4 -240 10 -240 6 0 10 -16 10 -35 0 -19 4 -35 8 -35
4 0 13 -15 20 -32 16 -44 124 -162 175 -193 23 -13 71 -29 107 -34 43 -7 488
-11 1307 -11 683 0 1248 -3 1257 -6 24 -9 19 -25 -25 -74 -101 -114 -159 -190
-190 -250 -31 -60 -33 -72 -34 -161 l0 -97 57 -113 58 -114 -21 -17 c-20 -17
-109 -18 -1560 -18 l-1539 0 0 835 0 835 180 0 180 0 0 -240z m4120 -220 l0
-461 -52 40 c-71 52 -143 87 -268 130 -124 42 -128 49 -81 143 17 34 31 76 31
95 0 18 5 33 10 33 6 0 10 87 10 240 l0 240 175 0 175 0 0 -460z m-375 -539
c112 -30 216 -82 276 -138 191 -178 67 -400 -276 -495 -68 -18 -106 -22 -255
-22 -152 -1 -186 2 -260 22 -181 49 -319 145 -354 248 -20 59 -20 79 0 138 40
118 204 220 419 262 106 20 348 12 450 -15z M4848 2532 c109 -79 186 -111 237
-98 28 7 100 68 116 98 9 17 1 18 -183 17 -184 0 -192 -1 -170 -17z M7679
2531 c14 -26 78 -81 109 -92 14 -5 39 -7 56 -3 38 8 127 51 180 87 l39 27
-197 0 c-189 0 -196 -1 -187 -19z M3770 2489 c-512 -137 -945 -544 -1123
-1056 -78 -223 -97 -380 -97 -805 l0 -298 670 0 c369 0 670 2 670 4 0 2 -19
16 -42 32 -24 16 -51 37 -62 46 -24 21 -79 48 -100 48 -9 0 -16 5 -16 10 0 7
-148 10 -425 10 -371 0 -425 2 -425 15 0 11 -11 15 -40 15 l-41 0 3 368 3 367
38 110 c81 234 222 453 402 623 110 104 222 182 370 257 70 36 119 69 161 111
96 93 158 164 143 163 -8 0 -48 -9 -89 -20z M9100 2415 c52 -53 112 -105 133
-116 20 -11 37 -23 37 -27 0 -5 19 -16 43 -26 77 -34 222 -124 308 -191 210
-167 370 -386 464 -639 72 -196 75 -214 75 -578 0 -321 0 -328 -20 -328 -11 0
-20 -7 -20 -15 0 -13 -54 -15 -425 -15 -277 0 -425 -3 -425 -10 0 -5 -17 -10
-38 -10 -43 0 -112 -32 -192 -90 l-55 -40 674 0 673 0 -5 373 c-4 398 -11 463
-64 647 -53 185 -158 394 -278 551 -75 99 -250 267 -355 341 -166 118 -428
236 -585 263 l-40 7 95 -97z"/>
</g>
</svg>
