<?xml version="1.0" standalone="no"?>
<!DOCTYPE svg PUBLIC "-//W3C//DTD SVG 20010904//EN"
 "http://www.w3.org/TR/2001/REC-SVG-20010904/DTD/svg10.dtd">
<svg version="1.0" xmlns="http://www.w3.org/2000/svg"
 width="2048.000000pt" height="2048.000000pt" viewBox="0 0 2048.000000 2048.000000"
 preserveAspectRatio="xMidYMid meet">
<metadata>
Created by potrace 1.13, written by Peter Selinger 2001-2015
</metadata>
<g transform="translate(0.000000,2048.000000) scale(0.192120,-0.192120)"
fill="#000000" stroke="none">
<path d="M5025 10323 c-33 -2 -134 -10 -225 -19 -866 -81 -1586 -354 -2183
-827 -132 -104 -390 -363 -496 -497 -334 -422 -553 -907 -640 -1421 -70 -409
-45 -992 63 -1466 99 -436 332 -736 450 -580 27 36 29 43 86 281 155 641 468
1227 877 1642 91 93 263 244 277 244 3 0 64 -47 135 -104 563 -452 1012 -683
1219 -627 57 16 116 71 139 129 20 51 24 179 10 266 l-9 50 156 -151 c344
-334 647 -570 800 -623 64 -23 85 -24 120 -9 88 41 50 271 -101 609 -36 80
-67 152 -71 160 -3 8 16 -4 41 -28 56 -51 187 -137 276 -182 396 -198 1124
-339 1891 -366 l185 -7 300 -594 c315 -623 370 -723 427 -766 62 -47 91 -52
145 -26 84 42 148 168 208 405 98 387 145 1233 90 1604 -121 819 -654 1626
-1434 2174 -693 486 -1556 743 -2473 734 -112 -1 -230 -3 -263 -5z m761 -308
c759 -79 1441 -342 2004 -774 528 -404 902 -925 1074 -1494 69 -229 68 -205
62 -924 -5 -735 -12 -875 -46 -978 -31 -92 -41 -103 -75 -81 -40 26 -67 75
-327 585 -240 470 -242 475 -314 546 -42 42 -94 84 -126 99 -58 28 -95 33
-448 56 -322 21 -724 77 -973 136 -265 62 -434 121 -687 240 -174 82 -225 91
-292 51 -51 -30 -77 -57 -107 -113 -24 -43 -24 -23 -5 -299 3 -49 2 -85 -4
-85 -21 0 -178 125 -362 289 -224 200 -301 251 -376 251 -37 0 -51 -7 -103
-50 -58 -48 -123 -142 -137 -195 -3 -14 -12 -29 -19 -33 -6 -4 -18 -18 -25
-31 -11 -21 -17 -23 -59 -17 -170 23 -462 188 -851 480 -174 130 -291 196
-351 196 -90 0 -216 -78 -375 -232 -286 -278 -512 -599 -707 -1008 -89 -185
-129 -285 -203 -506 -56 -168 -77 -214 -98 -214 -17 0 -57 87 -66 145 -5 28
-23 133 -42 235 l-33 185 0 530 0 530 33 140 c122 525 355 946 737 1331 166
168 291 271 482 398 569 377 1286 591 2108 630 154 7 564 -4 711 -19z M1502
6002 c-27 -9 -130 -152 -179 -248 -153 -300 -198 -685 -123 -1055 74 -361 274
-650 505 -727 53 -18 60 -24 63 -49 9 -94 59 -354 97 -508 346 -1405 1273
-2504 2458 -2914 1595 -551 3294 260 4133 1973 202 412 358 913 423 1360 l17
119 55 16 c142 45 287 187 389 381 176 339 205 837 71 1232 -48 141 -141 308
-205 367 -32 30 -32 25 -7 -100 11 -52 29 -159 41 -239 12 -80 28 -180 36
-224 10 -54 14 -153 14 -322 l0 -244 -49 -148 c-26 -81 -63 -176 -81 -212 -42
-84 -138 -209 -196 -257 -86 -71 -194 -188 -223 -243 -16 -30 -41 -105 -55
-165 -14 -61 -37 -150 -51 -200 -14 -49 -34 -141 -46 -204 -43 -236 -160 -555
-325 -886 -132 -267 -230 -419 -396 -615 -21 -25 -66 -79 -99 -120 -455 -561
-1074 -962 -1734 -1126 -262 -65 -384 -78 -705 -78 -244 0 -305 3 -425 22
-779 122 -1463 519 -2004 1162 -448 533 -752 1195 -901 1960 -18 91 -39 183
-48 205 -31 80 -161 227 -283 323 -111 86 -185 202 -245 382 l-28 85 -4 323
-3 324 40 166 c41 172 95 465 89 480 -1 5 -9 7 -16 4z M3890 5881 c-58 -12
-107 -40 -150 -88 -76 -82 -75 -76 -75 -463 0 -388 -1 -381 75 -464 57 -61
118 -89 200 -89 108 0 193 50 246 145 l29 53 0 355 0 355 -29 53 c-60 107
-182 166 -296 143z M6663 5880 c-81 -16 -147 -66 -189 -142 l-29 -53 0 -355 0
-355 29 -53 c53 -95 138 -145 246 -145 82 0 143 28 200 89 76 83 75 76 75 464
0 388 1 381 -75 464 -67 72 -163 104 -257 86z M4983 4211 c-49 -13 -117 -57
-147 -96 -42 -55 -59 -104 -59 -175 0 -82 28 -143 89 -200 83 -76 76 -75 464
-75 341 0 346 0 392 23 64 32 132 108 149 169 38 136 -13 262 -133 329 l-53
29 -335 2 c-184 1 -349 -2 -367 -6z m637 -217 c42 -9 57 -41 39 -80 -21 -44
-72 -52 -326 -53 -297 -1 -359 14 -351 86 5 46 40 52 339 52 147 1 281 -2 299
-5z M4441 3379 c-57 -11 -122 -50 -161 -96 -35 -43 -64 -131 -58 -174 3 -20 0
-30 -11 -33 -9 -3 -223 -64 -475 -136 -252 -72 -471 -137 -485 -145 -14 -7
-43 -31 -63 -52 -132 -136 -93 -355 79 -439 89 -44 134 -39 438 51 143 42 268
79 278 82 17 5 16 1 -6 -43 -54 -107 -42 -211 35 -299 57 -65 123 -95 210 -95
65 0 72 3 308 120 132 66 245 120 250 120 6 0 10 -10 10 -22 0 -38 45 -122 81
-152 55 -47 107 -66 179 -66 112 0 205 59 253 162 12 26 24 47 27 48 4 0 12
-15 18 -34 20 -55 95 -130 153 -156 77 -32 177 -26 245 15 57 36 111 110 120
166 4 22 10 39 15 39 5 0 117 -54 249 -120 236 -117 243 -120 308 -120 85 0
151 30 209 93 77 84 91 193 37 301 -21 43 -22 48 -7 43 10 -3 135 -40 278 -82
290 -85 347 -93 425 -58 104 46 160 124 168 234 3 52 0 81 -13 116 -23 59 -88
131 -140 154 -31 14 -722 215 -921 268 -37 10 -40 13 -36 40 6 46 -24 133 -63
178 -19 23 -61 54 -93 70 l-57 28 -870 2 c-478 0 -890 -3 -914 -8z m1721 -259
c25 -7 47 -24 65 -48 16 -20 34 -43 41 -50 6 -7 12 -17 12 -21 0 -11 131 -138
165 -161 38 -25 177 -71 470 -155 260 -75 310 -92 326 -111 9 -11 6 -16 -13
-23 -19 -7 -68 1 -204 36 -259 65 -305 59 -418 -55 -66 -67 -106 -132 -106
-174 0 -17 -8 -33 -20 -40 -11 -7 -20 -23 -20 -35 0 -52 -63 -39 -268 53 -78
35 -168 71 -200 79 -88 23 -118 13 -258 -87 -118 -84 -138 -85 -268 -19 -128
65 -146 65 -272 1 -138 -71 -162 -68 -292 32 -145 111 -180 110 -437 -7 -165
-75 -225 -93 -261 -77 -13 7 -24 20 -24 31 0 10 -7 24 -15 31 -8 7 -15 26 -15
42 0 47 -44 119 -112 185 -104 99 -151 104 -406 38 -131 -33 -180 -42 -198
-35 -60 23 -20 40 381 156 165 48 324 98 354 112 70 33 161 119 221 207 45 67
70 89 115 98 45 10 1621 7 1657 -3z"/>
</g>
</svg>
