<?xml version="1.0" standalone="no"?>
<!DOCTYPE svg PUBLIC "-//W3C//DTD SVG 20010904//EN"
 "http://www.w3.org/TR/2001/REC-SVG-20010904/DTD/svg10.dtd">
<svg version="1.0" xmlns="http://www.w3.org/2000/svg"
 width="2048.000000pt" height="2048.000000pt" viewBox="0 0 2048.000000 2048.000000"
 preserveAspectRatio="xMidYMid meet">
<metadata>
Created by potrace 1.13, written by Peter Selinger 2001-2015
</metadata>
<g transform="translate(0.000000,2048.000000) scale(0.192120,-0.192120)"
fill="#000000" stroke="none">
<path d="M4020 10043 c-659 -71 -1304 -418 -1775 -956 -470 -536 -807 -1299
-914 -2067 -104 -746 8 -1586 311 -2350 78 -195 74 -193 82 -54 11 176 41 374
87 554 245 978 817 1650 1524 1794 106 22 256 35 385 36 360 1 719 105 1000
291 124 82 323 280 408 406 70 103 165 292 184 365 12 48 28 65 28 29 0 -29
58 -187 97 -266 160 -318 425 -560 758 -694 198 -79 465 -131 678 -131 483 0
869 -152 1205 -474 144 -139 237 -249 345 -413 284 -427 470 -965 509 -1467
13 -173 8 -175 92 42 154 396 253 783 312 1228 24 178 26 232 27 514 0 413
-27 655 -115 1005 -313 1249 -1078 2163 -2088 2495 -312 103 -674 145 -889
105 -267 -51 -578 -220 -864 -469 l-77 -67 -78 67 c-287 251 -594 418 -863
469 -75 14 -273 18 -369 8z m342 -258 c210 -36 409 -134 684 -336 210 -153
269 -172 376 -122 35 17 99 57 143 89 169 124 304 209 410 260 211 101 344
130 560 120 195 -8 384 -42 570 -102 771 -251 1377 -838 1734 -1680 152 -360
258 -766 300 -1146 7 -57 11 -322 11 -639 l0 -542 -31 -150 c-33 -158 -62
-261 -80 -284 -20 -23 -48 -15 -65 19 -9 18 -34 82 -56 143 -118 332 -277 649
-440 878 -121 171 -341 400 -493 513 -300 225 -588 331 -960 354 -490 31 -629
57 -864 166 -276 128 -441 293 -635 634 -57 100 -85 135 -134 173 -45 34 -77
34 -133 -2 -58 -37 -76 -58 -150 -176 -217 -348 -425 -537 -724 -655 -229 -91
-334 -109 -805 -139 -370 -24 -663 -132 -952 -351 -407 -309 -710 -782 -917
-1431 -31 -95 -59 -138 -81 -124 -32 20 -72 144 -115 360 l-26 130 6 520 c3
286 11 561 16 610 59 525 218 1028 466 1478 233 423 588 808 968 1052 297 191
679 336 980 374 50 6 101 13 115 15 66 9 246 4 322 -9z M1238 6105 c-129 -47
-256 -199 -321 -380 -49 -140 -62 -225 -61 -425 0 -160 4 -202 27 -311 91
-434 314 -788 597 -947 88 -50 138 -64 244 -71 l100 -6 18 -84 18 -85 -28 -34
c-168 -210 -269 -365 -388 -597 -287 -559 -451 -1245 -431 -1810 9 -244 44
-393 106 -449 43 -39 150 -14 346 78 108 51 289 155 352 202 41 31 43 30 43
-7 0 -83 52 -239 91 -275 95 -86 621 188 1138 592 l123 96 27 -21 c204 -161
540 -346 821 -454 387 -148 735 -215 1177 -224 384 -8 660 21 983 103 418 107
849 308 1147 536 l52 39 123 -94 c424 -323 889 -575 1099 -594 54 -5 56 -5 85
31 31 37 58 108 69 181 14 93 3 91 118 23 208 -124 447 -225 557 -235 50 -5
58 -3 82 22 123 122 139 641 37 1165 -121 619 -389 1213 -733 1626 l-62 74 21
98 22 97 99 6 c164 10 291 75 439 223 196 196 333 468 402 795 23 110 27 150
27 311 0 208 -16 310 -73 455 -69 179 -202 320 -339 360 -23 7 -23 6 -8 -30 8
-19 41 -81 72 -136 72 -129 126 -247 153 -333 19 -61 21 -92 21 -312 0 -273
-7 -326 -66 -497 -68 -195 -153 -328 -300 -467 -94 -89 -152 -124 -269 -160
-131 -41 -170 -61 -232 -119 -72 -68 -93 -114 -93 -200 0 -65 2 -71 31 -95 17
-14 34 -26 37 -26 4 0 15 -6 24 -14 16 -12 16 -19 -7 -108 -111 -436 -348
-943 -613 -1308 -174 -238 -444 -526 -624 -663 l-76 -58 -44 31 c-36 27 -49
31 -86 27 -23 -2 -64 -16 -90 -29 -652 -335 -921 -432 -1377 -497 -724 -104
-1457 13 -2087 334 -79 39 -199 101 -268 136 -109 56 -132 64 -180 64 -41 0
-63 -6 -87 -23 l-32 -22 -98 79 c-173 139 -386 368 -561 601 -262 351 -510
874 -627 1327 -32 122 -32 128 6 143 70 29 90 129 45 219 -14 26 -50 71 -81
99 -45 42 -71 56 -128 73 -40 11 -92 27 -116 35 -224 71 -429 322 -535 653
-53 164 -58 216 -54 501 3 235 5 260 26 320 26 74 107 243 153 322 38 64 71
138 61 137 -4 0 -24 -7 -44 -14z m594 -2802 c9 -10 27 -47 41 -83 14 -36 37
-96 52 -135 46 -116 183 -403 253 -525 173 -306 354 -548 599 -801 63 -65 93
-104 93 -119 0 -48 -162 -173 -426 -328 -153 -91 -262 -142 -314 -149 -40 -6
-42 -4 -134 85 -116 112 -142 126 -215 119 -43 -5 -96 -27 -246 -102 -197 -99
-260 -120 -284 -92 -10 12 -12 98 -9 394 4 411 8 447 84 742 95 372 304 849
427 979 35 36 57 40 79 15z m7122 -112 c169 -273 311 -630 395 -996 61 -265
61 -268 61 -653 -1 -414 1 -404 -77 -384 -26 7 -114 45 -197 84 -188 88 -217
98 -276 98 -54 0 -86 -18 -190 -110 -85 -75 -103 -83 -155 -76 -50 8 -301 129
-435 211 -219 133 -320 213 -320 253 0 10 47 66 105 125 235 241 421 489 587
782 131 231 178 329 319 669 17 44 41 88 51 98 31 31 68 2 132 -101z M3607
5879 c-89 -22 -160 -79 -196 -159 -19 -42 -21 -65 -21 -390 0 -342 0 -345 24
-395 85 -180 331 -214 460 -63 63 73 66 94 66 458 0 364 -3 385 -66 458 -61
72 -180 113 -267 91z M6928 5876 c-92 -25 -162 -90 -193 -175 -22 -64 -22
-677 1 -743 77 -229 406 -243 510 -23 24 50 24 53 24 395 0 342 0 345 -24 395
-56 119 -196 185 -318 151z M4979 4487 c-53 -15 -94 -43 -138 -92 -45 -52 -63
-101 -63 -175 -1 -108 49 -193 144 -246 l53 -29 355 0 355 0 53 29 c95 53 145
138 145 246 0 82 -28 143 -89 200 -82 75 -79 75 -444 77 -237 2 -337 -1 -371
-10z m590 -248 c40 -14 40 -32 -2 -47 -42 -15 -463 -17 -472 -2 -3 6 -15 10
-26 10 -29 0 -23 27 9 38 38 14 451 15 491 1z M4148 3376 c-119 -33 -208 -146
-208 -267 0 -73 29 -139 84 -195 50 -49 61 -55 182 -93 220 -69 480 -122 744
-153 173 -19 620 -16 800 6 391 47 781 147 868 222 65 55 96 124 96 209 0 84
-23 144 -79 200 -83 82 -189 99 -330 51 -173 -58 -443 -113 -670 -137 -145
-14 -461 -14 -605 0 -231 24 -462 70 -655 131 -115 36 -168 43 -227 26z m157
-295 c3 -5 1 -12 -5 -16 -5 -3 -10 1 -10 9 0 18 6 21 15 7z m45 -16 c0 -8 -4
-15 -10 -15 -5 0 -10 7 -10 15 0 8 5 15 10 15 6 0 10 -7 10 -15z m37 -8 c-6
-20 -27 -19 -27 2 0 14 5 19 15 14 9 -3 14 -10 12 -16z m1910 -14 c-3 -3 -11
-2 -17 2 -8 5 -7 11 2 22 12 15 13 14 16 -1 2 -10 1 -20 -1 -23z m33 21 c0 -8
-4 -12 -10 -9 -5 3 -10 10 -10 16 0 5 5 9 10 9 6 0 10 -7 10 -16z m-1906 -25
c-10 -16 -24 -9 -24 12 0 18 2 19 15 9 8 -7 12 -16 9 -21z m1832 -7 c-4 -3
-12 0 -19 7 -9 9 -9 14 3 21 11 7 16 5 18 -6 2 -9 1 -18 -2 -22z m-1788 6 c-6
-18 -28 -21 -28 -4 0 9 7 16 16 16 9 0 14 -5 12 -12z m1752 -4 c0 -17 -22 -14
-28 4 -2 7 3 12 12 12 9 0 16 -7 16 -16z m-1718 -9 c0 -5 -5 -11 -11 -13 -6
-2 -11 4 -11 13 0 9 5 15 11 13 6 -2 11 -8 11 -13z m1678 0 c0 -8 -4 -15 -9
-15 -13 0 -22 16 -14 24 11 11 23 6 23 -9z m-1635 -4 c3 -5 1 -12 -5 -16 -5
-3 -10 1 -10 9 0 18 6 21 15 7z m1595 -6 c0 -8 -4 -15 -9 -15 -13 0 -22 16
-14 24 11 11 23 6 23 -9z m-1550 -4 c0 -6 -4 -13 -10 -16 -5 -3 -10 1 -10 9 0
9 5 16 10 16 6 0 10 -4 10 -9z m1500 -7 c0 -8 -4 -12 -10 -9 -5 3 -10 10 -10
16 0 5 5 9 10 9 6 0 10 -7 10 -16z m-1455 -3 c3 -5 1 -12 -5 -16 -5 -3 -10 1
-10 9 0 18 6 21 15 7z m1405 -7 c0 -8 -4 -12 -10 -9 -5 3 -10 10 -10 16 0 5 5
9 10 9 6 0 10 -7 10 -16z m-50 -10 c0 -8 -5 -12 -10 -9 -6 4 -8 11 -5 16 9 14
15 11 15 -7z m-1245 -3 c3 -5 1 -12 -5 -16 -5 -3 -10 1 -10 9 0 18 6 21 15 7z
m1185 -1 c0 -5 -5 -10 -11 -10 -5 0 -7 5 -4 10 3 6 8 10 11 10 2 0 4 -4 4 -10z"/>
</g>
</svg>
