<?xml version="1.0" standalone="no"?>
<!DOCTYPE svg PUBLIC "-//W3C//DTD SVG 20010904//EN"
 "http://www.w3.org/TR/2001/REC-SVG-20010904/DTD/svg10.dtd">
<svg version="1.0" xmlns="http://www.w3.org/2000/svg"
 width="2048.000000pt" height="2048.000000pt" viewBox="0 0 2048.000000 2048.000000"
 preserveAspectRatio="xMidYMid meet">
<metadata>
Created by potrace 1.13, written by Peter Selinger 2001-2015
</metadata>
<g transform="translate(0.000000,2048.000000) scale(0.192120,-0.192120)"
fill="#000000" stroke="none">
<path d="M2117 10230 c-95 -24 -174 -89 -212 -174 -13 -28 -80 -208 -151 -400
-70 -191 -133 -350 -138 -352 -6 -1 -177 -64 -380 -139 -375 -138 -424 -161
-472 -227 -45 -59 -57 -98 -58 -183 0 -67 4 -88 26 -130 59 -112 83 -125 513
-284 l380 -139 141 -381 c78 -210 149 -391 157 -404 116 -177 375 -188 502
-21 20 26 75 161 168 411 75 205 137 376 137 381 0 5 163 69 363 142 199 73
379 142 399 152 60 29 105 75 138 140 73 146 13 331 -130 402 -25 13 -202 81
-395 151 -192 71 -355 133 -362 139 -6 6 -71 173 -143 371 -73 198 -143 379
-156 401 -29 51 -85 101 -138 125 -51 22 -139 31 -189 19z m131 -285 c36 -26
66 -89 162 -345 97 -257 122 -312 164 -370 49 -65 136 -147 187 -175 28 -15
175 -74 326 -131 151 -56 286 -110 299 -119 16 -10 24 -25 24 -43 0 -66 -48
-93 -370 -212 -273 -101 -310 -121 -406 -215 -97 -95 -114 -126 -214 -395
-131 -355 -171 -418 -255 -407 -74 10 -101 57 -223 387 -44 118 -92 241 -107
273 -34 72 -144 191 -216 234 -30 18 -166 75 -304 126 -302 113 -348 135 -365
176 -15 36 -9 54 22 75 13 8 156 65 317 125 317 119 370 147 448 237 71 82 97
135 198 409 128 347 152 385 244 385 26 0 56 -7 69 -15z M6150 9316 c-577 -74
-1125 -307 -1587 -674 -132 -105 -352 -324 -454 -452 -449 -564 -673 -1198
-720 -2045 -13 -241 -6 -1291 11 -1625 50 -962 192 -1509 425 -1641 30 -17 55
-37 55 -43 0 -9 31 -15 108 -20 883 -57 1772 -501 2338 -1170 l59 -69 290 6
c1313 27 2137 317 2297 807 17 54 22 97 26 263 l4 197 27 6 c140 29 242 136
307 317 43 120 83 396 104 717 29 440 36 2199 11 2450 -76 736 -302 1327 -701
1830 -105 133 -344 372 -479 479 -422 334 -912 555 -1441 647 -180 32 -511 41
-680 20z m665 -275 c520 -93 1006 -317 1400 -645 157 -131 358 -345 469 -500
231 -322 376 -656 479 -1101 l41 -180 4 -1465 c3 -1441 2 -1467 -18 -1610 -43
-295 -58 -346 -134 -446 -59 -79 -76 -120 -76 -188 0 -62 -6 -66 -100 -66
-154 0 -322 46 -710 197 -217 85 -674 243 -700 243 -6 0 -10 -85 -10 -229 l0
-229 -88 -56 c-524 -330 -1155 -364 -1702 -91 -41 20 -114 62 -162 92 l-88 55
-2 224 -3 224 -235 -79 c-129 -43 -329 -113 -443 -155 -239 -87 -440 -148
-546 -166 l-75 -12 -35 40 c-20 21 -54 59 -76 83 -101 112 -138 158 -167 208
-82 146 -135 364 -190 781 -23 174 -23 180 -23 1365 0 1105 1 1198 18 1295
113 649 351 1135 764 1561 144 148 263 249 423 360 388 269 865 451 1330 508
41 5 179 8 305 6 180 -2 256 -7 350 -24z m1150 -6201 c330 -123 334 -125 302
-174 -21 -31 -148 -96 -275 -140 -222 -77 -584 -149 -654 -129 -34 9 -18 31
70 96 110 82 220 212 238 280 3 15 10 27 15 27 5 0 9 11 9 25 0 14 5 25 10 25
6 0 10 18 10 40 0 39 0 39 33 34 17 -4 127 -41 242 -84z m-2825 25 c0 -39 -4
-42 -26 -21 -17 18 -18 28 -2 44 20 20 28 14 28 -23z m3571 -162 c18 -37 19
-47 9 -80 -56 -174 -458 -388 -920 -491 -422 -94 -962 -150 -1350 -140 -185 5
-208 11 -393 97 l-100 47 355 -4 c361 -5 586 4 848 34 834 94 1402 335 1446
614 l7 41 39 -38 c21 -20 48 -57 59 -80z m209 -195 c-67 -179 -246 -346 -501
-467 -361 -172 -922 -279 -1629 -312 -179 -8 -261 -8 -305 0 -57 10 -275 107
-275 121 0 4 161 10 358 13 472 7 800 43 1181 127 555 124 990 334 1156 558
37 50 43 34 15 -40z M5425 7513 c-79 -32 -167 -106 -441 -375 -154 -150 -331
-315 -394 -366 -275 -224 -375 -331 -458 -490 -28 -54 -62 -138 -76 -186 -25
-84 -26 -99 -26 -343 0 -287 14 -408 75 -662 144 -590 441 -1139 801 -1481
129 -121 188 -157 352 -209 51 -16 108 -41 127 -56 l35 -26 0 35 c0 33 -5 39
-72 83 -282 186 -551 471 -745 791 -272 450 -446 1055 -447 1557 0 145 3 182
22 250 54 193 149 325 360 498 74 62 167 138 206 170 39 33 220 205 402 383
l332 323 108 -61 c301 -169 708 -337 1020 -423 197 -54 329 -75 549 -85 251
-13 360 -25 504 -56 453 -101 797 -338 951 -658 84 -174 103 -317 76 -556 -83
-708 -324 -1279 -740 -1749 -119 -135 -325 -313 -453 -392 -27 -17 -33 -27
-33 -56 0 -34 1 -35 18 -21 27 24 89 53 179 82 112 37 208 104 324 222 191
198 329 390 463 649 159 307 258 598 333 980 22 113 26 164 30 388 5 241 4
263 -17 340 -32 122 -127 306 -210 409 -223 275 -577 465 -1006 538 -65 11
-227 27 -359 35 -265 16 -354 29 -556 80 -255 65 -512 165 -869 338 -253 123
-285 132 -365 100z M5444 6060 c-83 -19 -155 -95 -175 -184 -18 -81 -8 -332
15 -376 46 -89 119 -134 217 -135 56 0 73 4 114 30 27 17 63 50 80 74 l30 43
3 189 3 189 -28 51 c-33 61 -75 95 -139 115 -51 15 -72 16 -120 4z M7325 6061
c-69 -17 -125 -62 -161 -131 -17 -30 -19 -59 -19 -215 0 -196 4 -214 64 -278
110 -119 309 -89 377 56 22 49 24 63 24 223 0 162 -1 172 -25 221 -49 98 -157
149 -260 124z M6124 4876 c-32 -32 -34 -38 -34 -99 0 -67 18 -104 61 -127 12
-7 124 -11 290 -11 293 0 299 1 335 56 12 19 15 41 12 91 -4 60 -7 70 -36 95
l-32 29 -281 0 -281 0 -34 -34z M5774 4341 c-100 -45 -135 -163 -80 -269 35
-68 231 -186 382 -231 247 -73 546 -63 778 27 172 67 303 170 324 255 43 168
-147 300 -289 201 -129 -90 -206 -124 -334 -144 -184 -30 -398 10 -522 97
-126 87 -178 101 -259 64z M7315 3321 c-17 -14 -226 -98 -325 -129 -201 -64
-299 -77 -570 -77 -230 1 -253 2 -373 28 -141 31 -310 86 -429 141 l-77 35 34
-48 c20 -28 35 -60 35 -77 0 -24 10 -36 64 -72 174 -115 400 -177 686 -189
333 -13 630 52 832 183 65 41 68 45 68 82 0 29 9 51 35 86 34 44 41 56 20 37z
M1277 7268 c-46 -10 -81 -32 -108 -69 -11 -16 -58 -168 -108 -351 l-88 -322
-224 -83 c-123 -45 -235 -91 -249 -101 -112 -83 -96 -249 29 -311 20 -10 126
-51 236 -91 110 -40 202 -74 204 -76 1 -1 42 -159 90 -351 48 -191 93 -358 99
-369 17 -32 67 -71 108 -84 73 -25 176 16 210 82 10 18 56 188 104 377 l86
344 219 82 c256 95 256 94 292 142 25 32 28 45 28 108 0 63 -3 76 -28 108 -36
48 -46 52 -294 143 -114 41 -211 79 -216 83 -4 4 -27 83 -52 177 -111 413
-127 466 -158 501 -49 56 -109 76 -180 61z m67 -440 c8 -13 30 -75 49 -138 47
-154 51 -163 103 -241 53 -80 142 -165 207 -197 93 -46 94 -71 9 -123 -76 -46
-199 -165 -239 -231 -19 -31 -49 -112 -74 -198 -39 -138 -64 -200 -81 -200
-20 0 -54 85 -104 255 -10 33 -27 83 -40 110 -37 85 -159 211 -269 279 -64 39
-59 61 24 105 76 40 176 138 220 213 16 29 51 117 77 196 44 133 73 192 94
192 5 0 16 -10 24 -22z M3500 2823 c-242 -17 -435 -46 -646 -98 -1052 -260
-1902 -978 -2297 -1940 -43 -107 -103 -283 -127 -375 -6 -25 -13 -53 -16 -62
-5 -17 6 -18 128 -18 l133 0 -46 43 c-64 58 -75 97 -53 184 32 127 105 301
200 477 392 721 1063 1276 1860 1541 278 93 490 135 834 165 145 13 202 30
218 65 l12 25 -78 -2 c-42 -1 -97 -3 -122 -5z M9154 2533 c41 -81 97 -141 201
-216 135 -97 307 -269 382 -383 76 -117 147 -277 182 -418 29 -115 64 -202
106 -264 l25 -37 0 96 c0 235 -75 471 -216 685 -110 166 -333 374 -526 492
-68 41 -163 92 -173 92 -3 0 6 -21 19 -47z M3430 2478 c-869 -72 -1688 -521
-2190 -1201 -207 -279 -343 -557 -456 -929 -5 -17 139 -18 2920 -18 1609 0
2926 1 2926 3 0 12 -95 280 -124 350 -385 927 -1260 1600 -2297 1767 -242 38
-531 49 -779 28z m486 -258 c678 -54 1276 -320 1743 -775 252 -246 436 -507
569 -809 48 -109 105 -276 98 -284 -3 -2 -54 23 -113 56 -188 106 -186 105
-378 113 -209 9 -231 15 -229 57 1 17 11 44 23 60 11 16 34 63 51 105 78 195
13 397 -193 593 -305 294 -716 515 -1029 555 -206 26 -389 -68 -478 -246 l-35
-70 0 -150 c0 -147 1 -151 31 -215 40 -83 94 -155 153 -203 25 -21 118 -74
206 -119 172 -87 292 -162 368 -231 39 -37 47 -50 47 -79 0 -24 -6 -39 -17
-44 -10 -5 -760 -11 -1668 -14 -1141 -4 -1659 -9 -1680 -16 -47 -17 -103 -45
-203 -103 -51 -30 -95 -51 -98 -48 -12 12 76 243 147 387 133 266 282 472 497
685 565 563 1381 859 2188 795z m691 -435 c265 -89 512 -231 738 -425 134
-116 191 -179 223 -248 24 -50 27 -69 27 -162 0 -99 -2 -110 -33 -172 -80
-162 -273 -264 -450 -236 -87 14 -136 41 -225 125 -197 187 -366 299 -582 383
-118 46 -177 100 -229 210 -28 59 -31 74 -31 165 0 87 3 107 27 157 27 58 89
133 142 171 53 38 146 66 220 66 53 1 92 -7 173 -34z M9220 748 l0 -418 421 0
422 0 -6 83 c-4 45 -7 233 -7 417 l0 335 -415 0 -415 0 0 -417z m664 136 c25
-4 46 -11 46 -16 0 -5 -9 -28 -20 -50 -11 -23 -20 -48 -20 -55 0 -7 -4 -13
-10 -13 -6 0 -10 -28 -10 -65 0 -37 -4 -65 -10 -65 -5 0 -10 -16 -10 -35 0
-28 -4 -35 -20 -35 -11 0 -20 -7 -20 -15 0 -12 -14 -15 -65 -15 -37 0 -65 -4
-65 -10 0 -5 -18 -10 -40 -10 -22 0 -40 -4 -40 -9 0 -9 -88 -37 -95 -29 -2 2
-7 99 -11 216 l-7 212 175 0 c96 0 196 -3 222 -6z M6854 411 c-22 -10 -60 -33
-84 -50 l-43 -31 1218 0 c735 0 1215 4 1209 9 -19 19 -132 71 -153 71 -11 0
-21 5 -21 10 0 7 -354 10 -1042 10 -995 0 -1045 -1 -1084 -19z"/>
</g>
</svg>
