<?xml version="1.0" standalone="no"?>
<!DOCTYPE svg PUBLIC "-//W3C//DTD SVG 20010904//EN"
 "http://www.w3.org/TR/2001/REC-SVG-20010904/DTD/svg10.dtd">
<svg version="1.0" xmlns="http://www.w3.org/2000/svg"
 width="2048.000000pt" height="2048.000000pt" viewBox="0 0 2048.000000 2048.000000"
 preserveAspectRatio="xMidYMid meet">
<metadata>
Created by potrace 1.13, written by Peter Selinger 2001-2015
</metadata>
<g transform="translate(0.000000,2048.000000) scale(0.192120,-0.192120)"
fill="#000000" stroke="none">
<path d="M1641 9941 c-45 -167 -52 -286 -25 -419 62 -305 299 -549 629 -647
67 -20 114 -27 185 -28 88 -2 102 1 185 35 293 119 627 108 946 -33 79 -34
119 -36 244 -10 285 59 520 231 638 468 95 188 109 378 46 616 l-21 77 -92 0
c-229 0 -444 -108 -596 -298 -67 -86 -151 -248 -171 -332 -7 -30 -16 -59 -19
-63 -4 -4 -36 6 -71 23 -106 49 -232 73 -394 72 -190 0 -355 -37 -509 -114
-61 -31 -75 -28 -76 14 0 32 -52 183 -87 253 -108 215 -282 367 -498 435 -46
14 -108 24 -181 27 l-111 6 -22 -82z m364 -294 c93 -46 179 -141 244 -267 29
-58 73 -132 98 -165 67 -91 48 -120 -62 -94 -94 22 -156 59 -245 149 -119 119
-153 189 -158 324 l-4 98 33 -7 c19 -4 61 -21 94 -38z m2225 -60 c0 -46 -6
-105 -14 -131 -21 -69 -100 -189 -158 -240 -88 -77 -228 -130 -325 -124 -65 4
-67 25 -8 90 25 28 84 108 132 177 96 141 137 188 203 234 39 28 142 76 163
77 4 0 7 -38 7 -83z M6091 9958 c-33 -103 -44 -177 -44 -289 1 -206 71 -378
217 -536 84 -90 167 -151 278 -203 110 -51 214 -80 318 -87 76 -5 92 -3 145
19 329 137 622 138 964 1 111 -44 118 -45 188 -39 165 15 357 91 495 196 128
97 238 256 288 415 42 136 38 343 -12 503 l-19 62 -87 0 c-152 0 -284 -40
-412 -125 -159 -106 -304 -312 -357 -509 -9 -33 -18 -62 -19 -64 -1 -2 -20 6
-42 17 -67 34 -206 70 -314 81 -204 20 -425 -19 -600 -106 -37 -19 -71 -34
-75 -34 -5 0 -18 41 -31 91 -69 279 -257 512 -491 610 -86 36 -202 59 -295 59
l-74 0 -21 -62z m338 -300 c63 -26 145 -92 185 -147 18 -25 57 -91 86 -146 29
-55 71 -123 92 -152 45 -60 48 -94 8 -100 -40 -5 -154 31 -216 68 -75 46 -173
152 -215 236 -31 62 -34 77 -37 171 l-4 103 29 -7 c15 -3 48 -15 72 -26z
m2241 -87 c0 -112 -12 -151 -79 -250 -82 -121 -205 -202 -342 -225 -77 -13
-129 -6 -129 19 0 7 24 40 54 73 29 33 82 102 116 153 104 156 139 197 212
253 33 24 139 75 161 76 4 0 7 -45 7 -99z M3025 9479 c-125 -19 -386 -97 -357
-107 6 -2 53 8 104 22 207 56 411 71 626 46 70 -8 104 -7 140 2 l47 12 -55 14
c-67 17 -418 25 -505 11z M7450 9476 c-132 -24 -361 -94 -334 -103 7 -2 63 10
125 26 186 49 248 55 462 46 260 -10 258 -10 292 0 108 30 -389 58 -545 31z
M8751 8988 c-15 -85 -14 -130 4 -204 25 -106 31 -114 89 -116 l51 -1 -48 -6
-48 -6 30 -48 c41 -64 70 -122 92 -182 l18 -50 2 65 c2 54 4 47 9 -45 10 -145
10 -632 0 -715 -5 -49 -7 -55 -8 -25 -2 34 -5 40 -24 41 -13 1 -68 7 -123 13
-55 5 -172 15 -260 21 -575 39 -1014 186 -1231 412 -54 55 -127 148 -184 233
-60 90 -135 148 -125 98 2 -10 9 -47 15 -83 43 -240 237 -455 542 -599 302
-144 693 -218 1238 -236 l145 -4 3 -155 2 -154 -32 -20 c-71 -44 -138 -144
-138 -206 0 -18 -3 -36 -7 -40 -4 -4 -16 -64 -25 -134 -10 -70 -22 -153 -27
-184 -25 -156 -211 -422 -471 -678 -93 -91 -173 -178 -179 -193 -6 -16 -8 -39
-5 -52 7 -28 -20 -45 -119 -75 -262 -78 -589 -71 -822 19 -69 26 -70 28 -67
60 5 47 -32 98 -156 216 -123 117 -292 306 -349 391 -123 184 -186 401 -199
688 -5 92 -12 160 -21 175 -7 15 -13 29 -13 34 0 16 -57 70 -92 88 -20 10 -39
22 -42 27 -9 15 -19 205 -10 199 15 -9 174 12 229 30 282 91 475 345 554 729
40 199 40 201 -33 134 -45 -42 -83 -110 -171 -309 -78 -177 -187 -305 -308
-361 -73 -34 -220 -74 -247 -67 -17 4 -20 -3 -23 -67 l-3 -71 -2 76 c-1 42 -9
93 -17 112 -12 30 -15 96 -15 365 0 270 3 336 15 365 9 21 15 67 15 107 l0 70
38 0 c34 0 39 4 64 49 15 26 33 72 39 101 13 63 3 200 -15 200 -22 0 -135
-104 -191 -175 -70 -88 -136 -215 -172 -331 -28 -89 -28 -90 -28 -379 0 -236
4 -307 18 -380 39 -200 95 -329 195 -447 l52 -63 4 -200 c5 -227 20 -328 71
-483 119 -354 378 -654 695 -803 69 -32 70 -33 70 -71 0 -33 3 -38 23 -38 18
0 105 -18 169 -34 10 -3 34 -13 55 -23 34 -16 68 -18 307 -18 207 0 270 3 274
13 2 6 12 12 22 12 9 0 44 8 76 19 33 10 82 21 111 24 67 7 73 11 73 52 0 31
4 35 67 64 110 52 232 139 339 243 118 115 195 217 269 360 99 191 143 363
152 592 6 131 8 142 34 180 48 71 107 187 144 284 190 494 112 1050 -208 1474
-31 40 -76 93 -100 116 l-45 44 -11 -64z M4306 8994 c-15 -114 -5 -215 31
-291 14 -31 19 -33 67 -35 l51 -1 -48 -6 -47 -6 20 -35 c39 -69 83 -155 96
-190 12 -33 13 -29 15 70 l3 105 9 -155 c12 -207 12 -658 -1 -960 l-11 -245
-38 -30 c-78 -62 -123 -132 -123 -193 0 -15 -7 -37 -15 -48 -8 -10 -15 -41
-15 -69 0 -48 -7 -99 -30 -233 -30 -177 -250 -491 -505 -724 -126 -114 -157
-157 -152 -206 4 -38 -2 -43 -90 -73 -148 -51 -361 -74 -532 -58 -123 11 -267
44 -349 79 -45 19 -50 24 -40 40 22 35 -18 93 -156 228 -217 211 -334 351
-404 482 -88 167 -132 350 -139 585 -5 145 -8 163 -31 205 -28 50 -59 81 -114
110 l-38 20 0 94 c0 105 -3 101 79 105 271 13 503 201 632 511 51 122 118 420
95 420 -18 0 -59 -37 -90 -80 -29 -40 -106 -189 -106 -205 0 -3 -18 -44 -41
-92 -73 -158 -188 -286 -301 -338 -62 -28 -197 -65 -240 -65 -25 0 -28 -3 -29
-37 -2 -32 -3 -29 -9 17 -4 30 -13 73 -19 95 -17 64 -14 660 4 710 8 22 15 67
16 100 l2 60 6 -49 6 -50 28 52 28 52 -33 1 c-32 2 -32 2 7 8 37 6 42 11 72
69 30 57 33 73 33 147 0 45 -3 96 -6 114 l-6 31 -45 -33 c-144 -103 -285 -322
-333 -518 -59 -234 -27 -723 61 -951 33 -85 108 -205 158 -252 l31 -30 0 -175
c0 -352 68 -595 237 -850 117 -176 326 -362 510 -453 79 -39 83 -43 83 -74 0
-41 5 -43 88 -55 64 -9 129 -28 181 -53 33 -15 559 -16 569 0 7 11 112 42 172
50 104 14 100 12 100 52 0 36 2 38 69 69 242 113 479 347 609 601 99 191 145
371 158 612 l7 125 43 70 c89 145 156 313 197 493 29 133 32 472 4 602 -44
204 -116 380 -220 538 -71 109 -182 242 -202 242 -7 0 -15 -19 -19 -46z M6170
8615 c0 -25 2 -45 5 -45 5 0 45 75 45 85 0 3 -11 5 -25 5 -23 0 -25 -4 -25
-45z M2554 8443 c52 -371 378 -647 926 -783 238 -59 544 -96 845 -102 l160 -3
3 73 c2 42 -1 71 -6 68 -5 -3 -24 -1 -42 4 -18 5 -116 14 -219 20 -602 35
-1010 144 -1271 341 -89 67 -134 117 -240 267 -70 99 -129 162 -151 162 -8 0
-9 -16 -5 -47z M2376 7269 c-39 -11 -83 -55 -96 -95 -27 -81 41 -174 126 -174
85 0 144 55 144 135 0 92 -87 159 -174 134z M3764 7269 c-41 -12 -81 -53 -95
-99 -15 -50 2 -100 47 -140 85 -74 224 -10 224 103 0 94 -86 161 -176 136z
M6830 7272 c-90 -15 -139 -129 -90 -209 25 -42 68 -63 126 -63 40 0 51 5 84
38 50 50 60 96 31 154 -29 60 -88 91 -151 80z M8212 7269 c-116 -24 -139 -199
-33 -254 17 -8 50 -15 75 -15 36 0 52 6 80 31 110 96 22 269 -122 238z M2830
6695 c0 -48 42 -138 86 -181 98 -99 287 -97 388 2 33 33 71 111 80 167 l7 37
-281 0 -280 0 0 -25z M7276 6683 c10 -58 42 -125 77 -161 101 -105 291 -109
391 -8 44 43 86 133 86 181 l0 25 -280 0 -281 0 7 -37z M2554 6135 c15 -78
115 -165 230 -203 108 -36 197 -45 376 -39 179 6 244 19 340 67 85 43 168 144
161 195 -1 3 -251 7 -557 8 l-556 2 6 -30z M6995 6162 c-2 -2 3 -23 11 -46 29
-84 135 -163 270 -201 92 -26 387 -32 493 -11 165 34 263 91 313 181 48 87 97
80 -528 80 -306 0 -557 -1 -559 -3z M1880 5594 c-152 -33 -305 -148 -372 -278
-54 -107 -61 -141 -66 -350 l-4 -199 281 5 281 6 0 -728 0 -728 -90 -629 c-50
-345 -93 -635 -96 -644 -4 -14 6 -18 53 -23 153 -17 746 -78 803 -83 l65 -6
39 369 c21 203 40 387 43 409 l5 40 283 -3 283 -3 474 -190 c279 -112 474
-185 476 -179 2 6 87 176 188 377 101 201 183 367 182 368 -2 2 -112 57 -245
124 l-243 121 0 704 0 704 281 -6 281 -5 -6 184 c-8 204 -21 272 -68 363 -44
84 -155 192 -240 234 -112 55 -167 62 -504 62 l-301 0 1 -172 c1 -196 -8 -245
-62 -358 -26 -52 -56 -95 -102 -140 -110 -110 -236 -162 -390 -162 -157 0
-283 53 -396 166 -128 129 -164 238 -164 504 l0 162 -302 -1 c-221 0 -321 -4
-368 -15z m440 -324 c0 -46 39 -176 78 -260 72 -154 227 -332 357 -408 374
-218 819 -61 1034 367 45 89 101 260 101 310 l0 34 183 -6 c213 -7 287 -24
355 -83 l42 -36 0 -72 0 -72 -99 -11 c-54 -6 -116 -19 -137 -29 -51 -24 -197
-167 -221 -215 -10 -22 -21 -39 -25 -39 -5 0 -8 -301 -8 -670 0 -757 -6 -698
83 -828 59 -87 149 -170 230 -212 50 -27 57 -35 57 -61 0 -64 -73 -201 -126
-236 -32 -21 -43 -18 -354 107 -455 182 -465 184 -775 178 -250 -4 -260 -7
-386 -125 -115 -109 -147 -168 -165 -307 -29 -227 -36 -262 -61 -313 -25 -49
-29 -53 -62 -53 -58 1 -267 26 -279 34 -27 17 -6 281 54 671 19 127 27 378 30
1045 l5 745 -28 54 c-33 65 -156 192 -215 222 -28 14 -77 25 -152 33 l-111 11
-3 39 c-5 54 4 80 38 119 66 76 176 103 433 106 l127 1 0 -40z M6324 5595
c-197 -43 -371 -210 -418 -401 -8 -33 -18 -141 -22 -243 l-6 -184 281 5 282 6
-3 -777 -3 -776 -88 -594 c-48 -327 -86 -595 -84 -597 2 -2 140 -18 308 -35
167 -17 372 -38 456 -48 l151 -17 5 36 c3 19 22 203 43 408 l38 372 283 0 284
0 462 -186 c254 -102 467 -187 473 -187 12 -2 390 740 382 748 -2 3 -113 59
-246 124 l-242 120 0 705 0 704 281 -6 281 -5 -4 199 c-4 171 -8 207 -26 257
-72 196 -223 331 -417 372 -52 11 -145 15 -367 15 l-298 0 0 -162 c0 -103 -6
-188 -15 -231 -42 -201 -196 -363 -401 -423 -76 -22 -211 -22 -290 1 -147 42
-281 152 -346 285 -54 113 -63 162 -62 358 l1 172 -306 -1 c-213 0 -324 -5
-367 -14z m436 -322 c0 -70 78 -272 144 -373 131 -201 291 -325 486 -377 86
-22 243 -22 330 1 259 70 481 299 574 596 33 103 36 116 36 153 l0 37 118 0
c173 0 296 -16 356 -45 94 -44 116 -75 116 -163 l0 -58 -103 -11 c-70 -7 -117
-18 -147 -33 -61 -31 -190 -164 -223 -230 l-28 -55 3 -660 3 -660 24 -50 c50
-106 180 -245 284 -304 53 -30 57 -35 57 -70 0 -41 -54 -158 -94 -206 -21 -24
-33 -29 -63 -29 -23 1 -156 49 -330 117 -463 183 -412 171 -713 172 l-255 0
-58 -28 c-66 -33 -210 -171 -242 -234 -11 -21 -23 -40 -26 -43 -3 -3 -16 -86
-28 -185 -19 -146 -28 -192 -51 -242 -24 -53 -33 -63 -54 -63 -30 0 -216 18
-263 26 l-33 5 0 125 c0 68 7 170 15 227 71 466 67 407 72 1298 l5 816 -28 54
c-32 64 -162 197 -218 223 -23 11 -85 23 -148 29 l-108 11 0 63 c0 58 2 65 37
99 77 77 172 100 426 103 l127 1 0 -37z M2816 5267 c-20 -14 -20 -15 0 -20 65
-20 178 -31 309 -32 169 0 293 18 275 41 -9 10 -55 12 -203 11 -106 -1 -230 2
-277 6 -67 7 -89 5 -104 -6z M7261 5269 c-13 -5 -22 -12 -19 -14 2 -3 40 -12
84 -22 100 -22 368 -24 467 -4 61 12 66 15 49 27 -15 10 -62 13 -198 11 -99
-1 -219 1 -269 5 -54 4 -100 3 -114 -3z M1310 4837 c-267 -210 -648 -534 -669
-568 -17 -28 -25 -61 -29 -110 -9 -129 -25 -109 487 -622 271 -272 472 -467
496 -479 55 -29 153 -35 209 -14 67 26 75 40 40 78 -28 30 -101 81 -175 123
-21 11 -217 203 -438 427 l-401 406 0 50 c0 55 -32 23 302 300 175 145 194
172 213 305 7 50 16 104 20 120 4 15 6 27 4 27 -2 0 -29 -19 -59 -43z M4850
4849 c5 -18 14 -68 20 -113 7 -45 19 -99 29 -121 21 -47 88 -114 197 -196 156
-118 233 -137 338 -83 122 62 304 219 330 285 9 23 21 73 26 113 5 39 13 89
17 111 l6 40 -49 -40 c-27 -21 -136 -111 -242 -198 l-192 -158 -113 93 c-175
147 -363 298 -370 298 -3 0 -2 -14 3 -31z M9293 4859 c4 -13 14 -69 22 -124
22 -140 38 -163 225 -318 270 -224 280 -233 280 -273 0 -70 -26 -104 -274
-354 -351 -354 -376 -390 -376 -542 0 -49 3 -88 8 -88 15 0 831 826 848 860
14 26 19 57 19 121 0 129 -3 132 -376 437 -174 142 -331 269 -349 282 l-33 24
6 -25z M1750 4625 c-98 -24 -361 -125 -405 -155 -103 -71 -225 -242 -225 -315
0 -83 88 -223 234 -374 100 -102 343 -312 368 -317 7 -2 26 -6 43 -9 33 -7
106 17 126 41 11 13 -36 64 -311 339 -178 178 -322 326 -320 328 3 2 141 106
308 231 166 125 300 232 297 237 -8 12 -49 10 -115 -6z M4352 4628 c2 -7 139
-115 305 -240 l301 -227 -315 -315 c-173 -174 -313 -322 -311 -328 8 -24 67
-32 129 -19 78 16 127 43 219 123 43 37 80 65 82 62 7 -6 177 180 222 243 61
86 96 167 96 223 0 69 -44 152 -125 238 -76 81 -118 106 -299 172 -192 71
-313 98 -304 68z M6195 4625 c-91 -24 -339 -116 -383 -142 -82 -47 -172 -145
-221 -240 -44 -88 -17 -188 92 -333 49 -65 237 -253 328 -327 35 -29 80 -66
99 -81 67 -55 171 -61 215 -12 17 19 15 22 -63 107 -44 49 -188 195 -320 325
l-240 237 255 192 c318 239 353 267 353 279 0 14 -55 11 -115 -5z M8797 4634
c-10 -10 -25 3 318 -256 154 -116 281 -214 283 -217 1 -3 -140 -148 -313 -321
-173 -173 -315 -318 -315 -322 0 -3 16 -12 36 -18 93 -31 236 32 353 154 19
19 37 33 41 31 9 -6 148 138 209 214 69 88 121 199 121 260 0 52 -66 166 -140
241 -76 77 -121 100 -337 176 -151 53 -241 73 -256 58z M5296 3898 c-80 -17
-148 -69 -317 -237 -92 -91 -183 -192 -203 -224 -46 -71 -62 -149 -49 -227 l9
-55 297 295 297 294 338 -335 c220 -219 351 -342 377 -354 79 -37 227 -25 265
20 17 20 -47 80 -150 141 -73 42 -122 87 -355 320 -148 150 -295 288 -326 309
-73 47 -132 64 -183 53z M9191 2974 c27 -142 63 -213 154 -304 41 -41 75 -80
75 -88 0 -7 10 -26 21 -42 19 -25 21 -38 17 -92 -3 -35 -12 -76 -21 -93 -8
-16 -27 -57 -42 -90 -72 -161 -216 -375 -443 -660 -57 -71 -115 -148 -129
-172 -31 -54 -40 -141 -23 -223 15 -72 7 -77 138 75 363 422 605 785 688 1031
37 111 39 220 4 288 -45 90 -292 325 -418 398 l-29 18 8 -46z M4740 3002 c0
-20 41 -162 58 -199 10 -23 55 -80 100 -128 45 -48 82 -94 82 -102 0 -8 9 -26
20 -40 36 -46 24 -111 -52 -273 -37 -81 -127 -237 -167 -290 -11 -14 -56 -77
-102 -140 -45 -63 -127 -170 -181 -237 -104 -130 -143 -193 -154 -250 -7 -38
12 -169 26 -178 12 -8 137 130 285 315 226 282 357 474 453 666 77 155 97 223
97 335 0 94 0 96 -39 155 -52 79 -178 202 -304 297 -98 73 -122 87 -122 69z
M4400 2323 c0 -154 -185 -434 -540 -822 -61 -66 -109 -121 -106 -121 19 0 230
77 284 103 66 32 138 96 207 183 21 27 46 56 55 64 49 45 157 230 206 351 62
155 48 247 -40 264 -17 4 -39 9 -48 11 -15 5 -18 -1 -18 -33z M8847 2310 c-20
-170 -217 -461 -561 -829 -48 -51 -85 -95 -83 -97 2 -2 49 11 104 30 203 68
273 115 389 258 32 40 64 78 70 83 6 6 27 35 46 65 140 220 206 409 168 481
-12 22 -52 44 -96 52 -31 6 -31 6 -37 -43z M1860 1960 c0 -8 -7 -71 -15 -140
-32 -273 -86 -833 -82 -853 3 -20 9 -16 57 33 115 118 137 176 165 432 23 200
18 306 -18 378 -33 67 -107 170 -107 150z M6306 1949 c-10 -27 -108 -1000
-102 -1006 8 -8 138 141 160 185 33 64 42 105 61 257 20 161 21 337 1 393 -25
69 -112 194 -120 171z M2592 1803 c-43 -43 -88 -97 -100 -120 -29 -57 -52
-231 -59 -438 l-6 -171 35 -84 c69 -168 93 -220 101 -220 4 0 7 9 7 19 0 11 7
77 15 148 33 285 96 935 91 940 -2 3 -40 -30 -84 -74z M7032 1797 c-46 -47
-91 -104 -101 -128 -27 -62 -51 -277 -51 -461 0 -152 1 -157 31 -229 18 -41
46 -109 64 -152 l32 -77 7 47 c18 133 107 1030 104 1055 -3 29 -4 28 -86 -55z
M3628 1296 c-95 -26 -120 -52 -193 -203 -37 -76 -67 -141 -68 -145 -1 -4 196
-99 438 -211 242 -112 468 -218 502 -235 l62 -32 15 27 c7 16 37 79 65 140 62
137 65 178 21 271 -49 105 -150 192 -317 276 -223 112 -392 148 -525 112z
M8085 1301 c-107 -30 -135 -58 -211 -220 -35 -74 -61 -138 -57 -142 5 -4 179
-86 388 -182 209 -96 432 -200 496 -230 l117 -55 63 137 c77 166 80 203 31
304 -68 138 -255 268 -510 354 -84 28 -126 36 -197 39 -49 2 -103 -1 -120 -5z
M1880 880 c-214 -17 -365 -91 -419 -204 -18 -37 -21 -61 -21 -194 l0 -152 555
0 555 0 0 155 c0 176 -6 198 -66 259 -104 104 -344 158 -604 136z M6310 879
c-173 -15 -324 -81 -384 -167 -31 -46 -34 -59 -41 -239 l-6 -143 561 0 561 0
-3 164 -3 164 -30 43 c-79 113 -224 169 -465 182 -52 2 -138 1 -190 -4z"/>
</g>
</svg>
