<?xml version="1.0" standalone="no"?>
<!DOCTYPE svg PUBLIC "-//W3C//DTD SVG 20010904//EN"
 "http://www.w3.org/TR/2001/REC-SVG-20010904/DTD/svg10.dtd">
<svg version="1.0" xmlns="http://www.w3.org/2000/svg"
 width="2048.000000pt" height="2048.000000pt" viewBox="0 0 2048.000000 2048.000000"
 preserveAspectRatio="xMidYMid meet">
<metadata>
Created by potrace 1.13, written by Peter Selinger 2001-2015
</metadata>
<g transform="translate(0.000000,2048.000000) scale(0.192120,-0.192120)"
fill="#000000" stroke="none">
<path d="M4602 10035 c-205 -47 -373 -159 -506 -337 l-27 -36 -42 23 c-23 13
-78 36 -122 52 -75 26 -90 28 -245 28 -155 0 -170 -2 -245 -28 -163 -57 -298
-150 -397 -275 -59 -74 -131 -209 -143 -269 -4 -18 -10 -33 -14 -33 -4 0 -33
9 -64 19 -366 126 -798 -54 -982 -410 -71 -138 -90 -219 -90 -384 0 -132 8
-184 41 -269 4 -11 -4 -16 -33 -21 -138 -23 -254 -86 -363 -195 -121 -121
-178 -236 -200 -404 -20 -147 20 -324 98 -440 18 -26 32 -51 32 -57 0 -5 -24
-9 -52 -9 -227 -1 -468 -168 -575 -398 -107 -230 -72 -529 82 -710 l34 -39
-87 -43 c-126 -63 -232 -170 -295 -300 -74 -152 -93 -292 -61 -447 29 -141 93
-255 201 -359 l63 -61 -50 -42 c-61 -51 -130 -147 -169 -233 -153 -336 1 -746
337 -900 l63 -29 -35 -40 c-125 -147 -177 -384 -126 -585 33 -132 82 -216 185
-319 74 -75 105 -98 175 -132 47 -23 109 -47 138 -53 l52 -12 -7 -52 c-12 -76
-6 -197 11 -268 30 -120 90 -223 185 -319 72 -73 101 -94 181 -132 244 -119
506 -95 717 64 l53 39 28 -62 c124 -271 438 -437 727 -385 112 21 185 51 278
114 43 30 80 53 81 51 54 -122 86 -170 165 -248 99 -98 186 -149 307 -180 186
-48 412 -10 557 92 l28 20 107 -31 c280 -80 401 -96 732 -96 331 0 452 16 732
96 l107 31 28 -20 c192 -135 485 -150 706 -35 105 54 231 182 283 288 21 44
40 82 41 84 1 2 28 -15 58 -38 68 -52 157 -94 245 -118 85 -22 243 -22 330 1
197 52 370 195 452 374 l28 62 53 -39 c210 -159 474 -183 717 -64 177 86 318
259 366 453 18 71 23 199 11 271 l-8 46 68 18 c121 33 199 80 298 179 103 104
152 188 185 320 50 200 -1 438 -126 584 l-34 40 63 30 c143 67 257 181 326
325 112 232 88 489 -64 703 -25 35 -68 82 -95 105 l-49 41 72 72 c124 123 193
275 204 446 18 266 -134 533 -369 650 l-87 43 34 39 c154 181 189 480 82 710
-108 231 -347 397 -574 398 -29 0 -53 4 -53 9 0 6 14 31 32 57 78 116 118 293
98 440 -22 168 -79 283 -200 404 -109 109 -225 172 -363 195 -31 5 -37 10 -32
23 47 122 56 352 17 485 -99 346 -393 586 -750 614 -90 7 -215 -9 -299 -38
-31 -10 -60 -19 -64 -19 -4 0 -10 15 -14 33 -12 60 -84 195 -143 269 -99 125
-234 218 -397 275 -75 26 -90 28 -245 28 -155 0 -170 -2 -245 -28 -44 -16 -99
-39 -122 -52 l-43 -23 -30 41 c-131 179 -318 296 -538 338 -79 15 -265 6 -347
-16 -84 -23 -210 -85 -283 -140 l-62 -47 -62 48 c-72 54 -195 115 -283 139
-83 23 -301 29 -383 10z m324 -265 c39 -10 128 -45 200 -77 120 -53 134 -57
204 -57 70 0 83 4 213 62 176 80 242 96 372 89 161 -8 204 -28 450 -205 190
-138 225 -146 425 -98 101 25 129 28 230 24 97 -4 126 -9 185 -33 119 -48 200
-115 272 -224 20 -31 51 -73 67 -95 36 -44 183 -169 229 -192 36 -19 98 -21
262 -10 142 10 232 -5 335 -55 82 -40 202 -159 248 -245 l32 -62 0 -188 c0
-199 6 -236 54 -332 26 -52 151 -176 226 -224 30 -19 81 -51 112 -71 65 -42
131 -124 165 -207 34 -84 32 -212 -7 -355 -17 -64 -30 -135 -30 -171 0 -58 2
-64 42 -110 90 -104 141 -144 265 -205 135 -67 177 -99 237 -179 l41 -55 3
-184 3 -183 -40 -109 c-25 -66 -41 -125 -41 -152 0 -80 67 -184 218 -337 142
-145 142 -143 142 -339 0 -178 -3 -190 -78 -313 -79 -130 -102 -183 -102 -242
0 -59 17 -97 128 -291 l52 -90 0 -169 0 -169 -31 -53 c-16 -29 -84 -110 -149
-180 -132 -139 -180 -214 -180 -278 0 -23 14 -77 31 -121 49 -129 50 -137 47
-323 l-3 -177 -30 -45 c-39 -57 -78 -92 -184 -161 -99 -64 -228 -194 -264
-266 -17 -33 -26 -73 -30 -128 -7 -89 -48 -231 -83 -287 -51 -80 -137 -137
-245 -163 -123 -29 -238 -13 -399 55 -41 17 -100 34 -131 37 -49 5 -63 2 -110
-23 -29 -16 -113 -87 -187 -157 -149 -143 -205 -177 -324 -197 -76 -13 -144
-8 -224 17 -60 19 -79 31 -88 60 -6 18 15 45 120 160 180 196 278 322 419 533
153 230 225 356 336 585 218 449 364 910 453 1425 50 283 56 377 56 826 l0
422 -24 54 c-28 63 -138 173 -185 183 -40 9 -96 -8 -224 -66 -143 -66 -218
-83 -332 -76 -113 7 -195 35 -289 98 -86 57 -135 113 -222 256 -74 119 -158
214 -218 245 -69 36 -129 14 -308 -114 -224 -159 -373 -211 -603 -210 -187 0
-350 47 -498 142 -155 99 -239 199 -340 403 -93 188 -208 297 -299 283 -44 -7
-125 -46 -226 -108 -327 -201 -724 -223 -1052 -58 -197 99 -322 237 -395 439
-42 118 -76 174 -150 248 -76 76 -117 91 -202 75 -84 -16 -281 -119 -406 -212
-495 -369 -822 -940 -956 -1670 -34 -186 -43 -383 -38 -831 l4 -414 31 -145
c98 -450 265 -918 464 -1299 88 -169 106 -200 217 -376 156 -248 323 -463 513
-662 134 -139 134 -157 -7 -204 -22 -7 -80 -13 -130 -13 -158 0 -272 55 -384
183 -58 67 -166 158 -220 186 -49 25 -125 15 -236 -30 -113 -45 -193 -65 -270
-65 -156 0 -314 81 -382 198 -32 54 -73 217 -73 289 0 36 -8 70 -27 110 -37
79 -174 216 -273 273 -96 56 -162 118 -195 183 -23 48 -25 60 -25 204 l0 154
45 113 c80 202 65 244 -171 486 -142 145 -154 172 -154 353 0 158 0 158 90
306 134 223 134 264 4 476 -20 33 -50 88 -65 122 -28 60 -29 69 -29 205 0 139
1 144 29 193 16 28 36 57 45 64 9 7 16 19 16 25 0 7 12 23 26 37 63 57 216
235 234 270 31 60 25 113 -25 248 l-45 120 0 151 c0 130 3 156 19 189 19 37
124 141 142 141 5 0 9 8 9 18 0 19 18 30 153 91 68 31 105 56 159 108 39 37
82 86 95 107 22 35 24 47 20 110 -3 39 -14 104 -26 145 -17 59 -21 102 -21
205 0 142 10 179 63 242 15 18 27 36 27 40 0 17 75 75 164 127 137 80 286 238
286 303 0 13 5 26 10 29 6 4 10 85 10 210 l0 203 38 73 c54 106 145 199 243
248 119 60 206 76 353 65 194 -14 226 -12 278 19 74 43 198 166 254 252 78
120 136 175 240 228 123 63 283 74 464 33 156 -35 184 -38 228 -27 45 13 183
101 281 180 35 28 87 65 116 81 118 67 304 89 441 50z m-1526 -2756 c52 -381
364 -703 787 -810 141 -35 293 -48 421 -34 267 28 499 127 670 285 45 42 73
62 76 53 2 -7 13 -50 25 -96 42 -167 131 -320 269 -464 141 -147 320 -252 519
-305 88 -24 115 -27 273 -27 158 0 185 3 275 27 197 53 396 173 529 319 36 40
67 70 69 67 1 -2 13 -38 26 -79 78 -255 284 -486 510 -571 140 -53 305 -61
446 -24 89 24 211 88 285 150 54 45 66 51 72 37 11 -27 9 -602 -2 -757 -52
-714 -235 -1379 -543 -1979 -209 -407 -429 -709 -741 -1021 -298 -297 -595
-507 -926 -655 -105 -47 -239 -95 -244 -89 -2 2 -15 23 -30 47 -44 71 -86 76
-286 38 -224 -43 -306 -50 -555 -50 -248 0 -360 11 -573 55 -173 35 -224 25
-267 -55 -11 -20 -23 -36 -28 -36 -4 0 -52 16 -105 36 -539 200 -1086 647
-1489 1215 -333 470 -594 1068 -733 1681 -56 245 -81 621 -62 935 59 971 423
1688 1041 2055 76 45 272 139 278 134 2 -1 8 -38 13 -82z M3857 5316 c-98 -35
-166 -111 -187 -210 -8 -33 -10 -157 -8 -361 l3 -310 28 -57 c87 -177 304
-212 444 -73 80 80 83 99 83 470 0 371 -3 390 -83 470 -79 78 -184 105 -280
71z M6620 5313 c-26 -9 -66 -38 -96 -68 -81 -80 -84 -99 -84 -470 0 -361 4
-383 76 -463 131 -147 363 -113 451 66 l28 57 0 340 c0 324 -1 342 -21 385
-30 65 -70 107 -128 137 -65 33 -161 40 -226 16z M4969 3929 c-19 -6 -57 -27
-84 -47 -164 -124 -137 -380 50 -468 50 -24 53 -24 395 -24 342 0 345 0 395
24 207 98 212 393 8 496 l-48 25 -340 2 c-195 1 -355 -3 -376 -8z m674 -222
c30 -19 33 -33 16 -71 -21 -46 -53 -51 -339 -51 -289 0 -312 4 -337 57 -17 33
-9 53 25 67 47 18 71 19 342 18 236 -2 269 -4 293 -20z M4396 2810 c-57 -22
-119 -78 -149 -135 -30 -55 -31 -182 -2 -240 58 -119 289 -269 543 -354 182
-61 291 -76 542 -76 249 0 357 15 541 75 248 81 486 236 544 355 30 59 28 175
-3 235 -32 60 -68 97 -123 125 -109 56 -209 41 -329 -50 -175 -133 -365 -189
-635 -189 -281 1 -440 53 -668 219 -81 58 -170 70 -261 35z m165 -252 c18 -6
79 -38 134 -70 118 -69 218 -109 347 -140 80 -19 121 -22 288 -22 166 0 209 3
286 22 127 30 226 70 350 141 106 61 180 88 209 77 9 -3 15 -18 15 -35 0 -41
-56 -92 -162 -147 -171 -88 -315 -130 -513 -150 -68 -6 -306 -6 -390 1 -305
25 -737 234 -665 320 15 18 55 19 101 3z"/>
</g>
</svg>
