<?xml version="1.0" standalone="no"?>
<!DOCTYPE svg PUBLIC "-//W3C//DTD SVG 20010904//EN"
 "http://www.w3.org/TR/2001/REC-SVG-20010904/DTD/svg10.dtd">
<svg version="1.0" xmlns="http://www.w3.org/2000/svg"
 width="2048.000000pt" height="2048.000000pt" viewBox="0 0 2048.000000 2048.000000"
 preserveAspectRatio="xMidYMid meet">
<metadata>
Created by potrace 1.13, written by Peter Selinger 2001-2015
</metadata>
<g transform="translate(0.000000,2048.000000) scale(0.192120,-0.192120)"
fill="#000000" stroke="none">
<path d="M5886 10319 c-634 -52 -1172 -283 -1580 -679 -349 -339 -579 -767
-662 -1235 -46 -259 -31 -711 31 -955 l14 -56 -58 -61 c-166 -174 -240 -520
-176 -823 51 -240 174 -421 328 -481 l42 -16 17 -109 c57 -347 190 -728 357
-1019 127 -221 245 -379 414 -552 l109 -112 677 -3 676 -3 73 -27 c183 -67
339 -223 456 -456 59 -117 -14 83 664 -1822 186 -525 344 -971 351 -990 l11
-35 827 0 c822 0 828 0 873 -21 145 -68 206 -236 137 -377 -33 -67 -93 -118
-161 -137 -44 -12 -46 -11 -83 17 -78 62 -30 58 -768 61 -374 2 -693 1 -710
-3 -16 -3 -61 -25 -100 -50 l-70 -44 1238 -1 1238 0 -4 808 c-3 793 -4 809
-26 907 -51 227 -132 421 -250 597 -244 363 -602 608 -1022 702 -179 40 -370
49 -906 43 l-473 -5 0 258 c0 141 3 290 7 331 l6 74 76 55 c112 81 353 326
457 465 296 395 492 858 570 1346 l17 105 47 17 c130 46 239 194 306 412 26
85 28 102 28 285 1 174 -2 204 -22 280 -30 110 -88 230 -149 305 l-48 60 12
84 c35 247 44 661 17 838 -90 611 -500 1217 -1085 1606 -489 325 -1085 469
-1723 416z m574 -320 c449 -47 916 -246 1260 -536 168 -142 345 -345 458 -525
47 -75 135 -260 165 -348 57 -166 57 -166 57 -618 0 -266 -4 -431 -10 -448
l-11 -27 -28 27 c-15 15 -68 104 -117 199 -79 153 -97 181 -165 249 -121 123
-131 126 -514 158 -366 31 -635 91 -955 215 -126 49 -179 50 -242 7 -43 -30
-98 -86 -98 -100 0 -4 -11 -19 -23 -34 -36 -42 -70 -32 -174 51 -147 116 -235
152 -296 120 -12 -7 -47 -33 -77 -59 -97 -82 -117 -93 -161 -87 -80 11 -226
94 -447 254 -208 152 -283 172 -408 108 -83 -42 -151 -99 -262 -220 -150 -164
-247 -305 -349 -508 -90 -179 -125 -221 -145 -177 -4 8 -7 169 -7 357 -1 381
1 403 69 604 134 403 424 760 813 1002 442 275 1061 399 1667 336z m-1547
-1634 c321 -252 565 -385 707 -387 119 -2 167 62 157 210 l-5 84 107 -104
c204 -200 361 -326 475 -383 38 -19 79 -35 92 -35 27 0 52 23 60 56 13 53 -31
206 -110 378 -20 43 -36 80 -36 82 0 2 24 -16 54 -40 184 -150 517 -253 996
-311 109 -13 415 -35 492 -35 25 0 39 -25 243 -425 254 -496 273 -523 359
-484 14 7 37 29 52 51 27 38 93 216 94 251 0 10 4 16 9 13 16 -11 34 -201 27
-288 -4 -45 -11 -141 -16 -213 -17 -273 -54 -362 -226 -546 -115 -123 -155
-204 -205 -414 -32 -134 -243 -705 -309 -836 -31 -60 -153 -242 -208 -309 -25
-30 -91 -97 -146 -149 -191 -179 -302 -296 -341 -361 -41 -67 -46 -97 -33
-214 3 -27 -3 -32 -87 -77 -93 -50 -271 -125 -325 -135 l-30 -6 0 58 c0 121
-50 219 -182 363 -99 107 -191 164 -335 207 -85 25 -102 27 -438 35 -192 4
-404 12 -470 18 -66 5 -187 13 -270 16 -226 9 -235 12 -330 109 -106 107 -233
286 -336 471 -156 283 -234 497 -314 870 -9 44 -22 93 -27 108 -22 56 -86 144
-179 244 -106 113 -152 189 -176 290 -23 101 -38 587 -22 718 10 84 14 96 22
75 42 -105 110 -231 140 -262 41 -41 67 -53 103 -44 33 9 49 45 79 177 104
460 362 920 669 1192 48 42 90 77 92 77 3 0 60 -43 127 -95z m2278 -4677 c-13
-46 -27 -93 -32 -106 -5 -13 -9 -78 -9 -146 0 -117 -1 -124 -25 -150 -48 -52
-80 -32 -145 93 -25 47 -62 100 -91 128 -27 26 -49 51 -49 55 0 4 42 27 94 53
52 25 134 72 182 105 49 32 90 57 93 55 2 -3 -6 -42 -18 -87z m258 -450 c24
-28 51 -44 100 -60 63 -21 87 -22 551 -29 435 -6 495 -9 581 -27 209 -44 404
-128 488 -210 27 -26 84 -74 126 -106 223 -174 384 -408 459 -670 l26 -88 0
-708 c0 -557 -3 -709 -12 -713 -28 -10 -54 12 -67 54 -43 144 -185 325 -301
384 -112 57 -106 57 -875 62 -581 4 -714 7 -732 19 -12 7 -35 42 -52 76 -17
35 -143 378 -279 763 -137 385 -260 725 -272 755 -35 83 -76 137 -141 187 -32
26 -59 50 -59 54 0 4 30 24 68 45 152 84 276 195 304 270 l13 36 20 -28 c11
-15 35 -45 54 -66z M4935 7246 c-62 -29 -107 -76 -137 -141 -22 -47 -23 -62
-23 -250 0 -183 2 -204 21 -246 84 -182 310 -223 451 -83 76 76 85 115 81 357
-3 217 -10 240 -89 317 -74 72 -207 92 -304 46z m133 -394 c2 -137 2 -142 -18
-142 -19 0 -20 6 -20 146 0 133 1 145 18 142 15 -3 17 -19 20 -146z M7165
7251 c-56 -25 -101 -66 -133 -120 -27 -46 -27 -48 -30 -258 -3 -199 -2 -214
18 -262 42 -97 153 -171 255 -171 93 0 202 68 248 154 20 38 22 57 25 244 4
230 -4 270 -63 340 -53 61 -123 92 -209 92 -47 0 -85 -7 -111 -19z m125 -401
c0 -133 -1 -140 -20 -140 -19 0 -20 7 -20 140 0 133 1 140 20 140 19 0 20 -7
20 -140z M5865 6073 c-81 -42 -121 -115 -113 -208 6 -70 45 -129 107 -162 43
-22 51 -23 303 -23 285 0 299 2 355 60 44 45 67 108 60 165 -7 64 -52 133
-106 162 -43 22 -51 23 -310 23 -222 -1 -271 -3 -296 -17z M5198 5090 c-67
-20 -128 -98 -128 -164 0 -136 131 -229 427 -306 369 -95 1032 -88 1387 15
183 53 307 121 348 191 47 80 26 184 -47 240 -30 22 -50 29 -99 32 -53 3 -66
0 -99 -22 -109 -75 -246 -116 -472 -142 -201 -23 -651 -15 -817 15 -138 24
-266 64 -317 99 -72 50 -121 61 -183 42z M975 4213 c-213 -25 -375 -92 -486
-203 -114 -112 -154 -219 -152 -405 0 -93 6 -141 26 -215 13 -52 223 -642 465
-1310 242 -668 445 -1233 452 -1255 7 -22 24 -62 38 -90 110 -221 295 -356
542 -395 43 -6 1006 -10 2881 -10 l2817 0 -38 97 c-21 54 -277 771 -570 1593
-594 1674 -557 1573 -618 1695 -92 185 -206 328 -317 395 l-58 34 -23 -28
c-45 -52 -23 -130 69 -245 122 -151 176 -251 262 -481 78 -211 896 -2509 926
-2605 20 -62 29 -111 29 -158 l0 -67 -2672 3 c-2549 2 -2676 3 -2733 21 -148
44 -254 130 -317 257 -34 66 -858 2323 -908 2486 -17 55 -20 93 -20 254 l0
189 36 40 c38 41 153 105 212 116 27 6 32 4 32 -12 0 -11 -7 -32 -16 -49 -33
-63 -44 -112 -44 -200 0 -84 2 -94 41 -171 48 -99 138 -191 226 -232 l58 -27
2270 0 2270 0 67 33 c82 40 163 125 210 219 31 63 33 75 36 183 l3 115 -42 67
c-31 48 -57 75 -95 98 -104 63 -105 63 -609 71 -253 4 -471 10 -485 14 -57 15
-74 38 -78 108 -4 56 -7 66 -26 71 -22 6 -3610 6 -3661 -1z m4721 -362 c84
-38 139 -149 116 -235 -23 -81 -81 -137 -162 -155 -66 -15 -4461 -15 -4531 0
-111 24 -185 140 -159 248 14 60 61 118 114 142 40 18 124 19 2311 19 2187 0
2271 -1 2311 -19z M3410 3007 c-100 -34 -157 -72 -250 -166 -99 -100 -165
-215 -199 -345 -30 -115 -31 -461 -1 -583 48 -199 161 -430 288 -586 321 -395
746 -447 1001 -122 59 75 102 149 137 236 50 125 54 150 54 395 0 209 -2 238
-23 320 -95 363 -321 670 -592 803 -55 27 -124 54 -153 60 -87 18 -189 13
-262 -12z m303 -207 c221 -83 421 -325 515 -620 43 -137 57 -228 55 -370 -2
-205 -53 -355 -160 -470 -320 -346 -887 46 -999 690 -22 128 -15 324 16 430
53 183 156 304 299 352 73 24 193 19 274 -12z"/>
</g>
</svg>
