<?xml version="1.0" standalone="no"?>
<!DOCTYPE svg PUBLIC "-//W3C//DTD SVG 20010904//EN"
 "http://www.w3.org/TR/2001/REC-SVG-20010904/DTD/svg10.dtd">
<svg version="1.0" xmlns="http://www.w3.org/2000/svg"
 width="2048.000000pt" height="2048.000000pt" viewBox="0 0 2048.000000 2048.000000"
 preserveAspectRatio="xMidYMid meet">
<metadata>
Created by potrace 1.13, written by Peter Selinger 2001-2015
</metadata>
<g transform="translate(0.000000,2048.000000) scale(0.192120,-0.192120)"
fill="#000000" stroke="none">
<path d="M2117 10230 c-95 -24 -174 -89 -212 -174 -13 -28 -80 -208 -151 -400
-70 -191 -133 -350 -138 -352 -6 -1 -177 -64 -380 -139 -375 -138 -424 -161
-472 -227 -45 -59 -57 -98 -58 -183 0 -67 4 -88 26 -130 59 -112 83 -125 513
-284 l380 -139 141 -381 c78 -210 149 -391 157 -404 116 -177 375 -188 502
-21 20 26 75 161 168 411 75 205 137 376 137 381 0 5 163 69 363 142 199 73
379 142 399 152 60 29 105 75 138 140 73 146 13 331 -130 402 -25 13 -202 81
-395 151 -192 71 -355 133 -362 139 -6 6 -71 173 -143 371 -73 198 -143 379
-156 401 -29 51 -85 101 -138 125 -51 22 -139 31 -189 19z m131 -285 c36 -26
66 -89 162 -345 97 -257 122 -312 164 -370 49 -65 136 -147 187 -175 28 -15
175 -74 326 -131 151 -56 286 -110 299 -119 16 -10 24 -25 24 -43 0 -66 -48
-93 -370 -212 -273 -101 -310 -121 -406 -215 -97 -95 -114 -126 -214 -395
-131 -355 -171 -418 -255 -407 -74 10 -101 57 -223 387 -44 118 -92 241 -107
273 -34 72 -144 191 -216 234 -30 18 -166 75 -304 126 -302 113 -348 135 -365
176 -15 36 -9 54 22 75 13 8 156 65 317 125 317 119 370 147 448 237 71 82 97
135 198 409 128 347 152 385 244 385 26 0 56 -7 69 -15z M6155 9354 c-446 -44
-753 -126 -1077 -286 -520 -257 -908 -695 -1083 -1222 -88 -264 -116 -495 -97
-804 11 -172 37 -367 60 -447 8 -27 4 -35 -44 -88 -125 -135 -190 -318 -201
-562 -12 -277 75 -532 230 -676 35 -33 118 -79 141 -79 17 0 18 -4 41 -145 78
-488 303 -992 618 -1385 33 -41 118 -132 188 -201 l128 -126 -77 -17 c-119
-28 -386 -118 -502 -171 -123 -55 -188 -91 -287 -156 -71 -48 -193 -154 -193
-169 0 -4 40 -10 89 -14 418 -31 929 -194 1343 -426 437 -247 846 -620 1104
-1009 l49 -73 170 6 c1054 42 1750 230 2061 558 78 83 121 151 155 248 21 60
23 82 23 290 l1 226 -37 75 c-106 214 -386 401 -808 541 -74 25 -178 55 -231
68 l-96 23 142 141 c217 217 376 440 519 731 130 263 230 570 274 846 11 64
22 121 25 126 4 6 19 14 34 18 45 11 120 63 161 113 89 107 142 225 174 386
26 131 21 346 -12 476 -27 111 -97 253 -155 318 -32 36 -45 57 -41 70 31 96
56 675 37 842 -50 437 -274 866 -637 1222 -128 125 -208 190 -363 293 -329
219 -692 355 -1125 421 -97 15 -601 28 -701 18z m665 -329 c560 -77 1064 -321
1414 -686 201 -209 327 -413 413 -669 l28 -85 3 -432 c2 -347 0 -438 -11 -458
l-13 -26 -25 19 c-13 11 -66 101 -118 200 -83 160 -102 190 -165 252 -111 112
-150 126 -381 145 -500 40 -704 84 -1120 239 -95 35 -148 34 -208 -4 -25 -16
-60 -48 -77 -72 -67 -93 -72 -98 -89 -89 -9 5 -20 7 -26 5 -5 -2 -53 30 -105
71 -102 82 -198 135 -239 135 -36 0 -70 -20 -154 -89 -97 -80 -114 -86 -184
-61 -81 28 -186 90 -357 212 -200 142 -262 173 -341 173 -48 0 -71 -6 -113
-30 -82 -47 -169 -120 -260 -219 -154 -169 -242 -298 -352 -511 -40 -77 -80
-151 -90 -165 -21 -30 -45 -34 -57 -11 -4 9 -9 157 -11 330 -3 291 -2 321 18
414 98 459 418 867 882 1125 203 112 482 209 742 256 114 21 180 30 391 50 88
9 496 -4 605 -19z m-1640 -1485 c342 -273 617 -416 757 -395 89 13 131 90 119
218 l-6 68 146 -136 c318 -295 494 -410 562 -367 52 34 22 191 -79 411 -22 46
-37 86 -35 88 2 2 19 -9 37 -25 145 -124 371 -212 716 -276 208 -39 562 -76
732 -76 l76 0 214 -420 c233 -459 260 -500 327 -500 65 0 117 78 165 250 l26
95 14 -75 c7 -41 13 -115 13 -165 1 -101 -20 -410 -28 -423 -3 -5 -10 -37 -15
-71 -14 -86 -63 -178 -141 -268 -180 -206 -210 -257 -250 -428 -32 -135 -103
-344 -213 -625 -88 -224 -119 -287 -200 -410 -82 -123 -120 -171 -241 -300
-173 -186 -234 -292 -208 -361 6 -14 24 -40 42 -57 17 -18 28 -32 24 -32 -3 0
4 -9 17 -19 51 -40 158 -92 270 -130 421 -145 627 -281 730 -481 34 -66 34
-196 0 -260 -131 -250 -555 -450 -1196 -565 -415 -74 -938 -109 -1057 -69 -48
16 -192 86 -211 104 -4 4 124 10 285 13 161 3 367 13 458 22 950 90 1575 352
1574 660 0 205 -283 393 -789 526 -82 21 -153 39 -157 39 -5 0 -8 -121 -8
-268 l0 -269 -127 -84 c-227 -149 -457 -252 -658 -293 -260 -54 -647 -47 -895
15 -96 24 -118 33 -135 55 -98 133 -162 190 -307 273 -93 54 -93 54 -195 59
l-103 5 0 253 c0 140 -3 254 -7 254 -5 0 -67 -16 -140 -35 -209 -55 -368 -112
-503 -180 l-70 -35 -9 22 c-25 68 54 126 289 211 69 25 149 55 179 67 68 26
181 100 181 117 0 7 4 13 9 13 5 0 19 15 30 34 51 82 12 169 -174 386 -117
136 -295 380 -295 404 0 4 -10 23 -23 44 -41 65 -122 224 -157 307 -68 164
-115 321 -184 618 -31 131 -67 191 -212 347 -98 106 -148 186 -160 260 -3 19
-12 62 -20 96 -18 76 -20 545 -3 660 l12 77 23 -62 c60 -158 143 -271 200
-271 60 0 69 16 113 200 91 386 259 721 506 1010 85 100 244 242 260 232 6 -4
53 -41 105 -82z m2803 -4741 c194 -66 339 -140 397 -201 29 -31 27 -95 -4
-137 -33 -44 -75 -75 -171 -123 -243 -124 -761 -250 -824 -201 -15 12 -14 15
9 34 14 11 70 49 125 85 58 37 124 91 158 126 63 69 117 164 117 208 0 16 5
32 10 35 6 3 10 52 10 111 l0 104 27 0 c15 0 80 -18 146 -41z m948 -541 c-32
-94 -74 -161 -159 -250 -269 -282 -802 -457 -1617 -533 -262 -24 -414 -29
-475 -16 -30 6 -92 33 -139 58 -101 55 -96 61 49 62 110 1 370 17 515 31 661
67 1238 236 1573 460 96 64 216 175 248 229 27 45 29 30 5 -41z M5234 6424
c-58 -21 -120 -77 -152 -138 -27 -51 -27 -52 -27 -261 0 -178 3 -216 18 -247
24 -53 72 -104 126 -136 40 -24 57 -27 131 -27 74 0 91 3 131 27 54 32 102 83
126 136 15 31 18 69 18 247 0 209 0 210 -27 261 -66 126 -213 185 -344 138z
m114 -406 c-3 -119 -5 -143 -18 -143 -13 0 -15 24 -18 143 -2 138 -2 142 18
142 20 0 20 -4 18 -142z M7464 6428 c-60 -20 -127 -80 -159 -143 l-30 -59 0
-200 c0 -200 0 -201 28 -258 50 -102 142 -158 256 -158 107 1 213 76 251 178
17 46 20 78 20 236 0 211 -8 249 -72 321 -56 63 -107 87 -193 91 -38 2 -84 -2
-101 -8z m106 -408 c0 -133 -1 -140 -20 -140 -19 0 -20 7 -20 140 0 133 1 140
20 140 19 0 20 -7 20 -140z M6167 5250 c-69 -21 -126 -90 -141 -170 -10 -59
17 -131 68 -178 63 -58 105 -65 381 -60 l230 3 47 28 c113 66 138 211 55 312
-57 70 -79 75 -362 74 -137 0 -263 -5 -278 -9z M5515 4263 c-53 -9 -67 -16
-101 -45 -44 -39 -64 -82 -64 -140 1 -122 144 -221 420 -289 170 -42 319 -59
570 -66 434 -11 780 39 1006 146 122 58 172 109 188 190 14 75 -47 177 -121
202 -47 15 -119 6 -152 -20 -101 -81 -300 -131 -604 -152 -255 -18 -591 2
-783 47 -89 20 -183 57 -232 89 -43 28 -94 43 -127 38z M5230 3157 c0 -43 3
-47 94 -135 149 -142 306 -236 505 -302 214 -72 501 -102 774 -82 422 32 702
145 953 385 90 86 94 91 94 133 l0 43 -92 -59 c-197 -128 -449 -233 -680 -284
-180 -40 -290 -49 -496 -43 -205 6 -337 25 -510 77 -223 66 -385 144 -619 298
-23 14 -23 14 -23 -31z M1277 7268 c-46 -10 -81 -32 -108 -69 -11 -16 -58
-168 -108 -351 l-88 -322 -224 -83 c-123 -45 -235 -91 -249 -101 -112 -83 -96
-249 29 -311 20 -10 126 -51 236 -91 110 -40 202 -74 204 -76 1 -1 42 -159 90
-351 48 -191 93 -358 99 -369 17 -32 67 -71 108 -84 73 -25 176 16 210 82 10
18 56 188 104 377 l86 344 219 82 c256 95 256 94 292 142 25 32 28 45 28 108
0 63 -3 76 -28 108 -36 48 -46 52 -294 143 -114 41 -211 79 -216 83 -4 4 -27
83 -52 177 -111 413 -127 466 -158 501 -49 56 -109 76 -180 61z m67 -440 c8
-13 30 -75 49 -138 47 -154 51 -163 103 -241 53 -80 142 -165 207 -197 93 -46
94 -71 9 -123 -76 -46 -199 -165 -239 -231 -19 -31 -49 -112 -74 -198 -39
-138 -64 -200 -81 -200 -20 0 -54 85 -104 255 -10 33 -27 83 -40 110 -37 85
-159 211 -269 279 -64 39 -59 61 24 105 76 40 176 138 220 213 16 29 51 117
77 196 44 133 73 192 94 192 5 0 16 -10 24 -22z M3495 2823 c-271 -22 -431
-46 -641 -98 -1052 -260 -1902 -978 -2297 -1940 -43 -107 -103 -283 -127 -375
-6 -25 -13 -53 -16 -62 -5 -17 6 -18 128 -18 l133 0 -46 43 c-64 58 -75 97
-53 184 32 127 105 301 200 477 392 721 1063 1276 1860 1541 353 118 645 163
1136 177 69 2 92 7 114 24 43 32 39 41 -18 47 -52 7 -296 7 -373 0z M3430
2478 c-869 -72 -1688 -521 -2190 -1201 -207 -279 -343 -557 -456 -929 -5 -17
139 -18 2920 -18 1609 0 2926 1 2926 3 0 12 -95 280 -124 350 -385 927 -1260
1600 -2297 1767 -242 38 -531 49 -779 28z m486 -258 c678 -54 1276 -320 1743
-775 252 -246 436 -507 569 -809 48 -109 105 -276 98 -284 -3 -2 -54 23 -113
56 -188 106 -186 105 -378 113 -209 9 -231 15 -229 57 1 17 11 44 23 60 11 16
34 63 51 105 78 195 13 397 -193 593 -305 294 -716 515 -1029 555 -206 26
-389 -68 -478 -246 l-35 -70 0 -150 c0 -147 1 -151 31 -215 40 -83 94 -155
153 -203 25 -21 118 -74 206 -119 172 -87 292 -162 368 -231 39 -37 47 -50 47
-79 0 -24 -6 -39 -17 -44 -10 -5 -760 -11 -1668 -14 -1141 -4 -1659 -9 -1680
-16 -47 -17 -103 -45 -203 -103 -51 -30 -95 -51 -98 -48 -12 12 76 243 147
387 133 266 282 472 497 685 565 563 1381 859 2188 795z m691 -435 c265 -89
512 -231 738 -425 134 -116 191 -179 223 -248 24 -50 27 -69 27 -162 0 -99 -2
-110 -33 -172 -80 -162 -273 -264 -450 -236 -87 14 -136 41 -225 125 -197 187
-366 299 -582 383 -118 46 -177 100 -229 210 -28 59 -31 74 -31 165 0 87 3
107 27 157 27 58 89 133 142 171 53 38 146 66 220 66 53 1 92 -7 173 -34z
M9159 2451 c19 -35 82 -104 119 -130 20 -15 75 -48 122 -74 168 -94 324 -221
453 -367 68 -77 143 -194 220 -344 72 -137 95 -173 169 -255 l48 -53 -6 33
c-15 78 -57 205 -97 297 -85 193 -196 352 -357 512 -163 162 -341 280 -547
360 -116 46 -139 50 -124 21z M9500 1160 c0 -3 -1 -191 -2 -418 l-3 -412 418
0 419 0 -5 383 c-3 210 -9 397 -14 415 l-8 34 -403 1 c-221 1 -402 0 -402 -3z
m656 -276 l52 -7 -19 -41 c-10 -22 -19 -51 -19 -63 0 -13 -4 -23 -10 -23 -6 0
-10 -28 -10 -65 0 -37 -4 -65 -10 -65 -5 0 -10 -16 -10 -35 0 -31 -3 -35 -25
-35 -16 0 -25 -6 -25 -15 0 -12 -14 -15 -65 -15 -37 0 -65 -4 -65 -10 0 -5
-16 -10 -35 -10 -19 0 -35 -4 -35 -9 0 -11 -89 -36 -98 -27 -4 4 -8 102 -10
217 l-4 209 168 0 c93 0 192 -3 220 -6z M6854 411 c-22 -10 -60 -33 -84 -50
l-43 -31 1359 0 1359 0 -48 30 c-26 17 -67 36 -92 42 -25 7 -45 16 -45 20 0 4
-532 8 -1182 8 -1132 0 -1185 -1 -1224 -19z"/>
</g>
</svg>
