<?xml version="1.0" standalone="no"?>
<!DOCTYPE svg PUBLIC "-//W3C//DTD SVG 20010904//EN"
 "http://www.w3.org/TR/2001/REC-SVG-20010904/DTD/svg10.dtd">
<svg version="1.0" xmlns="http://www.w3.org/2000/svg"
 width="2048.000000pt" height="2048.000000pt" viewBox="0 0 2048.000000 2048.000000"
 preserveAspectRatio="xMidYMid meet">
<metadata>
Created by potrace 1.13, written by Peter Selinger 2001-2015
</metadata>
<g transform="translate(0.000000,2048.000000) scale(0.192120,-0.192120)"
fill="#000000" stroke="none">
<path d="M5885 10320 c-641 -57 -1173 -286 -1579 -680 -203 -197 -338 -384
-466 -645 -160 -327 -223 -599 -222 -965 2 -457 91 -836 230 -974 57 -58 103
-60 134 -8 10 16 27 73 39 128 45 210 152 494 256 678 127 225 323 464 478
581 l34 26 123 -96 c230 -181 450 -316 592 -365 77 -26 170 -27 212 -1 48 29
68 92 61 191 l-5 80 130 -125 c203 -196 393 -342 493 -381 90 -34 127 9 106
124 -13 72 -61 204 -110 302 -17 34 -31 66 -31 71 0 5 24 -11 54 -35 155 -126
412 -218 782 -280 141 -23 349 -45 622 -63 l114 -8 208 -408 c114 -225 221
-425 237 -445 102 -126 192 -52 262 216 31 117 28 119 57 -28 22 -111 32 -587
14 -670 -22 -99 -85 -203 -195 -318 -151 -157 -150 -156 -204 -382 -29 -120
-135 -442 -181 -545 -12 -27 -35 -86 -51 -130 -68 -183 -167 -353 -301 -517
-35 -42 -143 -151 -241 -243 -98 -92 -195 -192 -215 -223 -34 -50 -37 -62 -39
-130 l-2 -76 -53 -34 c-130 -84 -408 -202 -535 -227 l-33 -7 0 76 c0 99 -28
162 -120 271 -65 78 -147 155 -164 155 -5 0 -20 8 -34 18 -54 37 -124 56 -210
57 -76 0 -85 -2 -103 -24 -10 -13 -19 -26 -19 -30 0 -4 33 -14 73 -24 128 -30
210 -78 317 -186 155 -157 216 -274 378 -731 99 -278 93 -261 102 -255 15 10
33 127 28 192 -7 88 -40 162 -110 244 l-55 65 61 24 c146 56 297 142 415 237
29 24 56 42 58 39 2 -2 -9 -66 -26 -141 -33 -145 -37 -180 -21 -170 6 3 10 -3
10 -15 0 -30 28 -56 80 -73 l45 -15 5 310 c5 279 7 311 23 319 52 30 188 148
302 263 417 420 695 990 796 1629 6 42 17 77 23 77 30 0 118 53 163 98 96 96
165 242 199 418 23 122 15 365 -16 478 -36 133 -92 241 -167 322 l-29 31 12
85 c36 245 45 667 18 845 -66 447 -302 892 -667 1261 -400 404 -897 656 -1463
742 -159 24 -513 34 -679 20z m645 -265 c373 -54 705 -179 1007 -381 138 -92
196 -138 298 -233 288 -272 475 -554 581 -879 l44 -132 0 -553 0 -552 -21 -14
c-20 -11 -25 -10 -49 16 -30 31 -115 183 -233 418 -63 127 -84 159 -134 207
-33 31 -76 63 -97 72 -42 17 -146 32 -296 41 -354 21 -686 89 -978 199 -203
76 -248 75 -312 -5 -30 -38 -40 -60 -40 -87 0 -58 -9 -77 -41 -91 -35 -15 -35
-15 -174 99 -108 88 -143 113 -192 139 -79 40 -114 27 -226 -82 -51 -50 -76
-67 -96 -67 -33 0 -120 29 -181 60 -55 28 -235 146 -350 230 -120 87 -188 120
-250 120 -213 0 -583 -450 -786 -955 -70 -176 -101 -211 -123 -142 -36 110
-41 177 -41 538 0 327 2 368 21 456 47 216 143 437 277 638 370 552 972 882
1742 955 142 13 515 5 650 -15z M3616 7318 c-87 -100 -154 -269 -176 -448 -14
-114 -13 -177 5 -295 39 -259 152 -453 310 -531 l73 -36 7 -57 c11 -88 53
-284 90 -412 109 -379 296 -742 529 -1029 69 -86 215 -240 226 -240 13 0 40
66 40 97 0 46 -41 120 -137 248 -166 222 -215 301 -328 530 -105 213 -184 453
-250 767 -23 106 -71 182 -190 302 -80 80 -109 117 -140 180 l-40 79 -3 286
c-3 267 -1 298 23 444 14 87 25 160 25 162 0 16 -25 -2 -64 -47z M5009 7269
c-93 -14 -169 -73 -211 -164 -22 -47 -23 -62 -23 -250 0 -183 2 -204 21 -246
61 -130 201 -195 339 -155 45 14 69 29 110 69 79 80 87 113 83 354 -3 183 -5
201 -26 240 -60 113 -170 170 -293 152z M7226 7269 c-92 -14 -191 -100 -216
-187 -5 -20 -10 -125 -10 -232 0 -183 2 -198 24 -245 44 -95 151 -165 251
-165 93 0 202 68 248 154 20 38 22 57 25 244 3 164 1 211 -12 250 -42 126
-170 201 -310 181z M5865 6073 c-142 -75 -157 -267 -27 -358 l44 -30 282 0
283 0 41 29 c59 40 96 119 90 186 -7 69 -51 137 -107 167 -43 22 -51 23 -310
23 -223 -1 -271 -3 -296 -17z M5198 5090 c-98 -29 -154 -148 -115 -243 52
-123 318 -230 672 -272 566 -66 1188 14 1409 182 88 67 116 151 78 235 -29 67
-80 101 -156 106 -53 3 -66 0 -99 -22 -92 -63 -185 -96 -362 -127 -171 -30
-608 -38 -813 -15 -220 26 -326 57 -482 142 -45 24 -84 29 -132 14z M975 4214
c-215 -27 -375 -93 -486 -204 -114 -112 -154 -219 -152 -405 0 -93 6 -141 26
-215 13 -52 223 -642 465 -1310 242 -668 445 -1233 452 -1255 7 -22 24 -62 38
-90 110 -221 295 -356 542 -395 43 -6 1006 -10 2881 -10 l2817 0 -38 97 c-21
54 -277 771 -569 1593 -599 1685 -558 1572 -623 1703 -122 247 -270 396 -465
464 l-78 28 -2390 1 c-1314 1 -2403 0 -2420 -2z m-125 -301 c0 -10 -7 -31 -16
-48 -33 -63 -44 -112 -44 -200 0 -84 2 -94 41 -171 48 -99 138 -191 226 -232
l58 -27 2270 0 2270 0 67 33 c82 40 164 125 210 219 32 66 33 71 33 193 0 99
-4 132 -17 159 -38 72 -12 75 60 7 86 -81 169 -225 243 -423 102 -271 900
-2510 940 -2638 20 -62 29 -111 29 -158 l0 -67 -2672 3 c-2549 2 -2676 3
-2733 21 -148 44 -254 130 -317 257 -34 66 -858 2323 -908 2486 -17 55 -20 93
-20 254 l0 188 31 35 c36 42 81 71 158 102 68 28 91 30 91 7z m4846 -62 c84
-38 139 -149 116 -235 -23 -81 -81 -137 -162 -155 -66 -15 -4461 -15 -4531 0
-111 24 -185 140 -159 248 14 60 61 118 114 142 40 18 124 19 2311 19 2187 0
2271 -1 2311 -19z M3410 3007 c-100 -34 -157 -72 -250 -166 -99 -100 -165
-215 -199 -345 -30 -115 -31 -461 -1 -583 48 -199 161 -430 288 -586 321 -395
746 -447 1001 -122 59 75 102 149 137 236 50 125 54 150 54 395 0 209 -2 238
-23 320 -95 363 -321 670 -592 803 -55 27 -124 54 -153 60 -87 18 -189 13
-262 -12z m303 -207 c221 -83 421 -325 515 -620 43 -137 57 -228 55 -370 -2
-205 -53 -355 -160 -470 -320 -346 -887 46 -999 690 -22 128 -15 324 16 430
53 183 156 304 299 352 73 24 193 19 274 -12z M7377 3383 c-4 -3 -7 -20 -7
-37 0 -107 -184 -272 -402 -362 -38 -15 -68 -31 -68 -35 0 -4 18 -58 41 -121
89 -248 677 -1904 683 -1923 6 -20 14 -20 833 -20 822 0 828 0 873 -21 145
-68 206 -236 137 -377 -33 -67 -93 -118 -161 -137 -44 -12 -46 -11 -83 17 -78
62 -30 58 -768 61 -374 2 -693 1 -710 -3 -16 -3 -61 -25 -100 -50 l-70 -44
1238 -1 1238 0 -4 808 c-3 793 -4 809 -26 907 -51 227 -132 421 -250 597 -295
438 -747 700 -1277 738 -154 11 -1107 14 -1117 3z m1304 -301 c535 -115 936
-468 1073 -946 l26 -88 0 -708 c0 -557 -3 -709 -12 -713 -28 -10 -54 12 -67
54 -43 144 -185 325 -301 384 -112 57 -106 57 -875 62 -581 4 -714 7 -732 19
-37 24 -77 122 -314 789 -294 826 -295 828 -290 896 1 9 25 32 54 51 28 19 92
72 140 117 49 46 103 89 120 97 27 12 121 13 557 10 485 -3 532 -5 621 -24z"/>
</g>
</svg>
