<?xml version="1.0" standalone="no"?>
<!DOCTYPE svg PUBLIC "-//W3C//DTD SVG 20010904//EN"
 "http://www.w3.org/TR/2001/REC-SVG-20010904/DTD/svg10.dtd">
<svg version="1.0" xmlns="http://www.w3.org/2000/svg"
 width="2048.000000pt" height="2048.000000pt" viewBox="0 0 2048.000000 2048.000000"
 preserveAspectRatio="xMidYMid meet">
<metadata>
Created by potrace 1.13, written by Peter Selinger 2001-2015
</metadata>
<g transform="translate(0.000000,2048.000000) scale(0.192120,-0.192120)"
fill="#000000" stroke="none">
<path d="M5279 10186 c-3 -4 -3630 -782 -3816 -819 -40 -8 -84 -22 -98 -31
-74 -49 -86 -150 -24 -211 30 -30 59 -41 274 -102 l240 -69 3 -848 2 -848 -34
-39 c-38 -45 -69 -133 -88 -254 -20 -124 -17 -699 5 -895 52 -460 147 -740
253 -740 104 0 198 264 251 705 26 222 26 851 0 980 -21 104 -47 169 -83 206
l-25 26 -1 784 -1 784 74 6 c70 7 87 3 314 -59 132 -36 242 -67 244 -69 2 -1
-8 -51 -22 -110 -33 -140 -45 -220 -53 -373 -10 -194 17 -310 101 -436 l43
-64 -18 -92 c-55 -267 -51 -632 11 -951 l21 -107 -56 -61 c-68 -74 -135 -206
-167 -334 -20 -76 -23 -116 -23 -260 -1 -205 18 -296 93 -450 62 -126 130
-200 227 -247 l68 -33 12 -86 c22 -150 64 -318 124 -499 114 -344 259 -617
471 -890 95 -122 297 -326 422 -424 l97 -77 0 -324 0 -325 -572 0 c-607 0
-671 -4 -853 -51 -124 -31 -210 -64 -340 -129 -406 -204 -718 -578 -845 -1012
-57 -197 -62 -242 -67 -651 l-5 -377 3892 0 3892 0 -5 378 c-5 407 -10 455
-67 648 -79 272 -219 504 -430 714 -131 131 -258 222 -425 305 -148 73 -265
114 -421 147 -105 22 -129 23 -721 26 l-613 3 0 327 1 327 81 60 c109 80 326
296 426 421 217 276 366 556 482 904 55 164 110 390 125 505 10 81 15 95 31
95 33 0 121 55 172 109 67 69 143 220 172 341 74 305 4 674 -162 855 l-47 52
14 84 c22 128 35 276 42 474 6 201 -4 332 -41 494 l-23 104 35 46 c49 64 90
155 108 242 29 132 0 462 -55 637 -14 45 -16 64 -8 67 7 2 322 91 702 199 659
187 691 197 724 230 62 62 50 163 -24 212 -14 9 -58 23 -98 31 -40 8 -921 197
-1960 419 -1038 222 -1902 404 -1921 404 -18 0 -35 -2 -37 -4z m146 -321 c96
-12 2567 -545 2596 -561 16 -8 27 -19 24 -23 -10 -17 -101 -54 -235 -97 -279
-89 -2385 -685 -2441 -691 -77 -8 -136 5 -413 88 -271 81 -356 114 -356 140 0
22 9 24 366 54 333 29 379 36 451 70 74 37 177 150 219 241 66 143 38 252
-101 392 -44 43 -92 81 -121 94 -91 40 -96 39 -931 -28 -238 -19 -498 -36
-578 -37 -80 -1 -145 -5 -145 -8 0 -8 -59 2 -65 12 -6 9 22 26 56 33 13 2 38
9 54 15 40 15 1366 298 1447 309 34 5 77 8 93 6 17 -2 53 -6 80 -9z m-35 -523
c75 -37 102 -127 57 -193 -46 -68 7 -61 -1187 -159 -602 -49 -1144 -95 -1205
-101 -60 -6 -220 -18 -355 -28 l-245 -18 -33 28 c-66 58 -223 75 -306 33 -42
-20 -103 -29 -119 -16 -7 6 -40 25 -74 41 -61 30 -61 31 -53 62 20 68 58 85
236 101 172 15 145 25 -96 34 -183 7 -265 21 -340 59 -55 28 -76 59 -66 99 8
32 -27 39 356 -72 162 -46 311 -89 330 -94 27 -8 380 19 1515 114 814 69 1496
126 1515 127 19 0 51 -7 70 -17z m3668 -71 c8 -79 -46 -101 -708 -291 -195
-56 -377 -114 -404 -128 -61 -33 -86 -66 -93 -121 -5 -34 -11 -45 -32 -53 -61
-24 -2468 -708 -2491 -708 -18 0 -2183 614 -2492 707 -24 7 -22 27 5 59 21 24
33 27 122 35 123 11 169 24 213 57 l33 25 177 -48 c97 -26 574 -161 1059 -300
l883 -252 1642 469 c1922 549 2060 588 2073 584 6 -1 11 -17 13 -35z m-4958
-1162 c542 -154 1023 -289 1070 -300 116 -26 214 -24 335 5 71 18 1831 516
2018 572 11 4 17 0 17 -12 0 -13 6 -15 33 -10 17 4 47 10 65 13 l32 6 0 -215
c0 -188 -3 -223 -20 -278 -22 -69 -26 -150 -9 -183 6 -12 25 -37 42 -54 l31
-33 -25 -26 c-13 -14 -56 -45 -94 -69 -326 -204 -892 -330 -1674 -375 -236
-14 -954 -14 -1181 0 -444 26 -798 75 -1100 150 -283 71 -536 180 -658 285
l-42 37 28 36 c16 21 34 47 41 59 17 34 13 103 -11 168 -20 54 -23 82 -26 273
-4 240 -6 233 74 215 40 -9 44 -8 44 8 0 10 5 16 13 14 6 -2 455 -131 997
-286z m-885 -874 c55 -23 108 -45 118 -48 45 -17 34 -47 -64 -177 -31 -42 -71
-99 -89 -128 -32 -53 -62 -78 -80 -67 -21 13 -30 91 -30 278 l0 198 23 -7 c12
-3 67 -25 122 -49z m4353 -210 c-4 -322 -8 -328 -108 -180 -26 38 -84 114
-129 168 -108 131 -108 135 17 183 53 20 120 48 147 61 28 12 56 23 63 23 10
0 12 -51 10 -255z m-3566 89 c230 -194 523 -379 678 -429 75 -25 156 -25 197
0 51 30 68 76 67 177 l-1 87 131 -122 c281 -261 455 -387 537 -387 93 0 75
166 -47 428 l-43 93 37 -29 c101 -78 212 -117 369 -131 252 -22 638 43 985
166 l97 34 46 -20 c152 -67 313 -322 420 -664 38 -122 66 -174 104 -193 66
-33 132 49 198 244 23 70 43 120 43 112 0 -8 7 -63 16 -122 13 -90 14 -139 5
-310 -18 -359 -45 -439 -211 -623 -72 -80 -133 -162 -163 -221 -9 -17 -32 -94
-51 -170 -54 -211 -225 -681 -316 -865 -78 -159 -237 -369 -366 -484 -223
-198 -312 -298 -365 -408 -24 -50 -24 -47 8 -158 12 -43 -330 -196 -572 -255
-458 -112 -964 -53 -1385 162 -152 77 -144 69 -130 140 24 124 -27 200 -331
489 -98 93 -201 219 -296 360 -55 83 -185 323 -226 421 -66 154 -136 387 -181
599 -10 44 -24 99 -33 123 -18 50 -77 141 -130 198 -21 23 -65 70 -97 105 -68
73 -108 151 -132 259 -32 142 -36 679 -5 763 5 13 14 -1 35 -55 57 -147 137
-248 196 -248 50 0 70 32 96 155 20 96 86 289 125 366 137 274 362 445 591
448 51 1 60 -3 100 -35z m-1983 -88 c8 -10 11 -155 9 -539 -3 -475 -5 -528
-20 -543 -15 -15 -17 -14 -32 14 -14 27 -16 95 -16 546 0 480 1 516 18 525 23
14 28 13 41 -3z m2507 -4229 c238 -119 553 -177 894 -164 355 14 623 93 865
256 49 33 91 58 93 56 4 -3 -17 -86 -45 -183 -18 -62 -14 -213 5 -220 7 -2 12
-11 12 -20 0 -9 7 -26 15 -36 16 -21 20 -83 7 -102 -16 -24 -145 -115 -194
-138 -478 -223 -988 -254 -1463 -90 -201 69 -205 71 -309 137 -70 44 -105 73
-120 99 l-21 36 38 72 c55 105 52 180 -13 400 -5 19 -10 38 -10 42 0 5 39 -18
88 -51 48 -32 119 -74 158 -94z m-629 -378 c113 -54 162 -58 208 -17 l33 29
53 -57 c235 -247 833 -435 1267 -396 255 23 494 88 717 197 141 68 224 125
299 205 l48 52 28 -27 c44 -42 103 -38 213 15 49 23 90 40 93 38 13 -14 -112
-322 -215 -528 -175 -350 -343 -605 -569 -863 -192 -219 -458 -431 -675 -538
l-66 -33 -62 30 c-76 36 -272 163 -354 229 -358 290 -667 700 -917 1215 -78
162 -198 456 -198 487 0 6 11 2 97 -38z m-253 -179 c35 -13 76 -80 131 -214
146 -353 189 -438 350 -686 144 -222 251 -357 459 -578 100 -106 111 -130 66
-143 -14 -4 -228 -7 -476 -8 l-452 -1 -22 46 c-12 26 -33 106 -46 178 -36 187
-74 264 -166 337 -63 50 -107 52 -164 10 -51 -37 -105 -97 -132 -144 -25 -43
-65 -174 -83 -266 -7 -38 -24 -81 -43 -110 l-31 -46 -70 -3 -71 -3 -23 43
c-13 24 -34 100 -48 172 -37 196 -71 266 -170 349 -61 50 -104 51 -167 2 -111
-84 -149 -152 -199 -354 -25 -99 -44 -154 -62 -177 l-26 -34 -240 0 -239 0 0
274 c0 213 3 290 16 343 122 533 612 945 1204 1012 107 12 673 13 704 1z
m4064 -1 c453 -49 847 -291 1065 -655 48 -80 90 -180 122 -289 24 -85 25 -96
25 -386 l0 -299 -240 0 -239 0 -25 43 c-13 23 -34 86 -45 141 -41 190 -75 267
-149 340 -105 103 -153 102 -262 -6 -63 -63 -97 -139 -126 -281 -27 -135 -38
-169 -68 -209 -18 -26 -25 -28 -88 -28 -68 0 -68 0 -92 38 -13 21 -32 74 -41
118 -53 244 -99 336 -209 416 -56 41 -96 38 -162 -12 -100 -75 -141 -153 -178
-341 -15 -77 -34 -144 -49 -170 l-25 -44 -445 -3 c-275 -1 -455 2 -471 8 -47
18 -33 45 97 178 304 316 563 713 722 1107 73 184 132 301 161 324 26 20 38
21 326 21 164 0 342 -5 396 -11z m-5110 -1193 c26 -57 57 -280 77 -558 l7 -88
-56 26 c-62 28 -91 27 -160 -8 l-38 -20 6 74 c39 424 113 685 164 574z m832 5
c25 -48 62 -310 76 -539 l7 -112 -54 25 c-66 31 -71 31 -136 0 l-53 -24 0 57
c0 150 68 532 105 588 19 29 41 31 55 5z m3860 -13 c35 -58 84 -319 105 -561
l7 -78 -39 19 c-68 35 -97 36 -159 8 l-56 -26 6 88 c29 379 64 582 102 582 8
0 23 -14 34 -32z m823 14 c24 -26 44 -90 67 -210 21 -115 50 -344 50 -404 l0
-37 -52 24 c-66 31 -70 31 -137 0 l-54 -26 7 133 c11 226 51 492 78 526 14 16
22 15 41 -6z M4120 6423 c-27 -10 -65 -37 -96 -68 -74 -74 -84 -114 -84 -330
0 -203 10 -250 71 -319 53 -60 107 -87 185 -94 118 -9 227 54 275 160 23 50
24 64 24 253 0 199 0 200 -28 257 -64 131 -208 189 -347 141z m120 -395 c0
-131 -7 -167 -29 -154 -7 5 -11 55 -11 147 0 132 1 139 20 139 19 0 20 -7 20
-132z M6344 6424 c-60 -21 -119 -77 -151 -142 -28 -57 -28 -58 -28 -257 0
-188 1 -203 23 -250 28 -61 62 -98 122 -133 39 -24 56 -27 130 -27 102 0 146
19 209 91 61 69 71 116 71 319 0 216 -10 256 -83 330 -80 80 -190 106 -293 69z
m116 -403 c0 -141 -6 -165 -35 -141 -12 10 -15 41 -15 146 l0 134 25 0 25 0 0
-139z M5050 5249 c-82 -34 -134 -111 -134 -199 1 -61 18 -101 60 -144 61 -60
65 -61 354 -61 289 0 293 1 354 61 93 94 78 241 -32 319 l-44 30 -266 2 c-162
1 -277 -2 -292 -8z M4384 4260 c-51 -11 -98 -46 -123 -90 -31 -55 -27 -140 9
-189 72 -102 316 -194 630 -238 178 -25 682 -25 860 0 242 34 432 92 547 166
78 50 105 90 111 157 6 67 -1 95 -34 134 -66 78 -166 90 -250 31 -150 -108
-573 -169 -986 -143 -304 19 -490 60 -616 135 -63 38 -101 48 -148 37z M4200
1860 c-27 -27 -23 -32 88 -108 216 -147 432 -233 712 -284 154 -28 485 -30
635 -4 195 33 351 81 510 156 103 48 313 182 321 205 3 8 0 23 -6 35 -11 20
-18 22 -59 17 -25 -3 -118 -37 -207 -75 -306 -133 -521 -186 -794 -198 -310
-14 -573 40 -919 190 -201 87 -249 98 -281 66z"/>
</g>
</svg>
