<?xml version="1.0" standalone="no"?>
<!DOCTYPE svg PUBLIC "-//W3C//DTD SVG 20010904//EN"
 "http://www.w3.org/TR/2001/REC-SVG-20010904/DTD/svg10.dtd">
<svg version="1.0" xmlns="http://www.w3.org/2000/svg"
 width="2048.000000pt" height="2048.000000pt" viewBox="0 0 2048.000000 2048.000000"
 preserveAspectRatio="xMidYMid meet">
<metadata>
Created by potrace 1.13, written by Peter Selinger 2001-2015
</metadata>
<g transform="translate(0.000000,2048.000000) scale(0.192120,-0.192120)"
fill="#000000" stroke="none">
<path d="M1330 10325 c-8 -2 -49 -9 -90 -15 -221 -36 -439 -156 -609 -336
-130 -137 -213 -289 -270 -493 l-26 -96 -3 -3165 c-2 -2189 1 -3190 8 -3247
17 -134 47 -232 110 -358 148 -297 391 -493 727 -587 77 -22 93 -22 871 -25
l793 -4 -7 28 c-3 15 -14 42 -23 58 -35 62 -10 59 -776 66 -385 3 -709 9 -720
12 -11 3 -54 14 -95 23 -246 57 -461 222 -608 468 -23 37 -53 103 -67 145
l-25 76 0 3295 0 3295 23 65 c38 105 103 207 191 296 130 130 275 215 456 265
l85 24 3210 0 c3035 0 3214 -1 3283 -18 271 -66 480 -212 603 -423 88 -150
119 -279 125 -529 3 -104 9 -199 14 -210 5 -11 11 -42 13 -70 5 -68 36 -176
91 -320 l46 -120 -3 490 c-3 543 -2 535 -77 721 -143 356 -478 622 -857 679
-85 13 -522 15 -3238 14 -1727 -1 -3147 -3 -3155 -4z M1383 9939 c-164 -19
-335 -107 -448 -231 -61 -68 -136 -196 -160 -274 -22 -73 -22 -6464 0 -6537
29 -96 87 -189 167 -269 127 -126 274 -199 441 -218 103 -12 1447 -13 1447 -1
0 4 57 11 128 13 107 5 160 13 337 56 116 28 230 55 255 60 30 7 -316 10
-1055 11 -927 1 -1111 4 -1170 16 -198 42 -358 194 -422 401 -17 57 -18 181
-18 3199 0 3020 1 3142 18 3200 59 191 200 332 392 391 58 18 166 19 3200 19
3018 0 3142 -1 3199 -18 106 -33 177 -76 251 -151 126 -128 165 -241 165 -483
l0 -142 33 11 c17 6 44 23 60 39 l27 28 0 154 c0 129 -3 164 -21 218 -37 115
-96 214 -173 292 -130 133 -258 196 -444 217 -108 12 -6103 11 -6209 -1z
M6105 9350 c-863 -86 -1521 -456 -1910 -1075 -227 -362 -326 -769 -297 -1231
21 -335 69 -555 158 -724 59 -112 127 -161 183 -130 24 12 35 42 70 190 103
435 314 826 596 1105 44 44 99 94 121 112 l41 32 94 -75 c351 -282 646 -436
783 -410 82 16 123 96 112 219 l-6 68 146 -136 c282 -261 442 -375 531 -375
88 0 70 164 -46 414 -23 49 -40 90 -39 92 2 1 32 -20 68 -47 108 -83 294 -163
497 -214 232 -58 687 -115 922 -115 l76 0 213 -420 c233 -458 261 -500 328
-500 135 0 224 350 241 950 11 393 -39 628 -203 950 -112 221 -240 393 -431
582 -134 132 -212 196 -362 297 -336 224 -683 355 -1131 426 -123 20 -609 29
-755 15z m625 -290 c217 -23 466 -79 646 -145 206 -76 467 -216 655 -352 277
-199 505 -515 631 -873 l33 -95 3 -446 c2 -286 -1 -455 -7 -472 -24 -63 -59
-20 -184 229 -108 212 -213 323 -342 359 -27 8 -120 19 -205 25 -434 31 -721
88 -1013 201 -184 71 -222 78 -278 51 -46 -23 -99 -66 -115 -93 -5 -9 -23 -32
-41 -52 -28 -32 -35 -35 -61 -27 -17 4 -72 40 -123 80 -176 136 -239 150 -331
78 -29 -23 -66 -55 -83 -70 -46 -44 -92 -54 -152 -34 -68 23 -220 114 -383
231 -168 120 -239 156 -307 157 -115 0 -252 -97 -433 -308 -116 -135 -221
-296 -319 -489 -45 -88 -90 -170 -99 -183 -16 -20 -19 -21 -37 -8 -19 14 -20
29 -23 367 -4 392 -1 413 65 603 80 232 198 419 383 610 356 366 842 584 1450
650 149 16 537 20 670 6z M3038 8376 c-95 -26 -173 -104 -198 -197 -7 -24 -9
-893 -8 -2455 l3 -2419 22 -40 c50 -93 147 -154 244 -155 114 0 206 56 256
158 l28 57 0 2415 c0 2345 -1 2416 -19 2464 -50 131 -197 208 -328 172z M1925
6987 c-66 -22 -101 -44 -139 -88 -71 -84 -67 56 -64 -1864 l3 -1730 22 -41
c109 -204 396 -205 497 -2 l26 52 0 1735 0 1736 -24 50 c-25 55 -90 119 -141
141 -50 21 -134 26 -180 11z m93 -1934 l-3 -1668 -25 0 -25 0 -3 1655 c-1 910
0 1661 3 1668 2 6 16 12 30 12 l25 0 -2 -1667z M3875 6460 c-61 -82 -101 -169
-133 -290 -21 -82 -25 -117 -26 -255 0 -98 4 -183 12 -220 35 -158 95 -293
169 -375 l43 -48 0 -959 c0 -1081 -4 -1023 75 -1111 62 -69 127 -96 220 -90
107 7 183 57 233 152 l27 51 0 356 c0 257 -3 360 -12 370 -21 26 -141 272
-181 374 -82 207 -151 455 -180 653 l-18 116 -39 13 c-22 8 -48 20 -59 28 -18
13 -18 16 -2 55 24 60 20 138 -10 217 -78 206 -84 247 -84 556 0 142 5 301 11
352 6 52 9 100 7 107 -3 7 -26 -16 -53 -52z m373 -2684 c-2 -221 -6 -290 -15
-294 -10 -3 -13 63 -13 310 1 279 2 311 15 293 13 -16 15 -65 13 -309z M8975
6460 c21 -153 24 -210 19 -378 -10 -363 -51 -496 -204 -657 -141 -148 -186
-231 -224 -410 -40 -190 -131 -543 -161 -625 -39 -106 -147 -317 -214 -415
-86 -127 -144 -189 -277 -295 -225 -182 -343 -308 -384 -408 -8 -21 -10 -51
-6 -87 6 -52 5 -55 -26 -78 -103 -77 -363 -189 -553 -237 -196 -49 -329 -63
-565 -57 -229 6 -348 26 -560 93 -123 38 -349 141 -425 194 l-46 32 6 52 c6
45 3 62 -20 110 -39 82 -88 140 -228 265 -69 62 -166 159 -215 216 -120 136
-197 196 -256 198 -31 1 -50 -4 -65 -17 l-21 -19 22 -36 c129 -215 383 -492
595 -649 l63 -47 0 -195 0 -195 29 -20 c16 -11 118 -85 228 -164 227 -166 706
-500 853 -597 55 -36 100 -69 100 -72 0 -4 -25 -22 -55 -40 -157 -95 -534
-386 -535 -413 -1 -50 77 -240 150 -365 l80 -136 -54 -152 c-30 -83 -73 -212
-96 -286 -23 -74 -46 -151 -52 -170 -11 -35 -12 -33 -209 362 l-197 397 -44
-47 c-24 -26 -61 -68 -82 -94 -21 -26 -42 -45 -48 -42 -63 39 -355 1078 -413
1469 -9 60 -17 110 -18 110 -1 0 -198 -2 -437 -5 -395 -6 -444 -9 -537 -29
-335 -71 -618 -225 -858 -466 -177 -179 -315 -403 -395 -642 -75 -228 -90
-356 -90 -779 l0 -304 3890 0 3890 0 0 323 c0 177 -5 362 -10 412 -72 623
-470 1143 -1056 1375 -78 31 -222 72 -323 91 -80 15 -914 28 -923 15 -4 -6 -8
-27 -8 -46 -1 -91 -118 -595 -225 -970 -84 -291 -179 -560 -199 -560 -2 0 -40
43 -85 95 -75 87 -101 109 -101 87 0 -5 -85 -181 -188 -392 l-188 -382 -81
233 c-44 129 -94 270 -111 315 l-30 80 79 135 c60 102 89 163 118 254 21 66
37 123 34 128 -18 31 -406 322 -535 403 -27 16 -48 32 -48 36 0 4 33 28 73 54
159 103 756 522 1000 702 l127 94 0 193 0 193 88 68 c102 79 322 297 408 404
233 289 432 671 528 1011 40 145 82 331 92 409 10 78 19 97 51 104 111 28 238
183 303 370 55 161 64 428 20 606 -24 97 -95 248 -141 300 l-31 35 7 -45z
m-3523 -3550 c215 -155 462 -240 783 -270 276 -25 584 3 810 75 112 36 285
124 384 195 46 34 85 59 88 57 10 -11 -22 -63 -69 -113 -58 -61 -179 -144
-363 -248 -234 -133 -281 -161 -392 -232 -61 -40 -136 -93 -167 -118 -74 -60
-95 -59 -171 2 -80 64 -201 143 -365 238 -420 242 -543 326 -597 408 -30 44
-40 66 -29 66 3 0 42 -27 88 -60z m2967 -562 c29 -156 241 -1432 241 -1450 0
-11 -118 -54 -416 -152 -302 -100 -414 -141 -411 -150 17 -43 47 -150 43 -153
-2 -2 -51 20 -107 49 -102 52 -106 53 -214 59 -60 4 -122 10 -138 14 -52 14
-49 83 8 169 40 60 67 76 130 76 51 0 95 17 95 37 0 7 4 13 9 13 20 0 153 135
181 185 69 121 213 611 315 1075 38 176 67 250 97 250 10 0 18 4 18 9 0 11
100 80 116 81 7 0 20 -46 33 -112z m-3857 52 c38 -27 71 -50 75 -50 14 0 44
-46 64 -99 11 -31 37 -121 56 -201 100 -420 231 -865 289 -985 33 -69 148
-190 207 -218 20 -10 37 -22 37 -27 0 -6 29 -10 64 -10 62 0 66 -2 89 -32 64
-85 96 -194 65 -215 -7 -4 -62 -11 -123 -15 -149 -8 -195 -20 -297 -72 -49
-25 -88 -41 -88 -37 0 4 11 41 25 81 14 41 24 78 23 82 -2 5 -183 68 -403 142
-220 73 -406 135 -414 137 -11 4 8 133 98 674 125 749 151 895 159 895 3 0 36
-22 74 -50z m-298 -176 c11 -86 6 -128 -80 -644 -75 -452 -85 -526 -81 -607 3
-77 8 -99 32 -138 37 -64 84 -114 144 -155 110 -75 115 -75 -727 -78 l-733 -3
3 318 3 318 33 95 c44 128 93 225 176 350 248 371 656 579 1152 589 l71 1 7
-46z m4661 16 c223 -38 444 -133 625 -268 216 -162 361 -358 454 -612 l31 -85
3 -338 3 -338 -723 3 c-727 3 -768 5 -768 37 0 5 23 23 50 41 61 39 121 106
151 167 37 77 25 217 -70 781 -55 326 -81 508 -81 563 l0 81 108 -7 c59 -4
157 -15 217 -25z m-2354 -516 c125 -66 246 -185 265 -261 8 -29 -39 -190 -82
-283 -62 -134 -112 -166 -232 -149 -46 7 -95 6 -158 -2 -85 -11 -94 -11 -125
7 -19 11 -48 41 -65 66 -38 56 -109 268 -107 320 2 100 193 295 331 339 43 13
100 1 173 -37z m-16 -849 c87 -42 183 -170 258 -346 39 -90 46 -115 25 -86 -7
10 -60 33 -118 53 -104 36 -106 36 -275 36 l-170 0 -97 -36 c-52 -20 -101 -36
-107 -36 -6 0 -11 -5 -11 -12 0 -6 -2 -9 -5 -6 -7 7 49 140 90 214 68 121 147
201 230 232 42 16 133 9 180 -13z M5234 6424 c-58 -21 -120 -77 -152 -138 -27
-51 -27 -52 -27 -261 0 -178 3 -216 18 -247 24 -53 72 -104 126 -136 40 -24
57 -27 131 -27 74 0 91 3 131 27 54 32 102 83 126 136 15 31 18 69 18 247 0
209 0 210 -27 261 -66 126 -213 185 -344 138z M7464 6428 c-60 -20 -127 -80
-159 -143 l-30 -59 0 -200 c0 -200 0 -201 28 -258 50 -102 142 -158 256 -158
107 1 213 76 251 178 17 46 20 78 20 236 0 211 -8 249 -72 321 -56 63 -107 87
-193 91 -38 2 -84 -2 -101 -8z M6160 5249 c-145 -58 -180 -242 -66 -347 63
-58 105 -65 381 -60 l230 3 47 28 c113 66 138 211 55 312 -58 70 -79 75 -367
74 -143 0 -266 -5 -280 -10z M8642 4495 c-7 -44 -31 -174 -53 -290 -57 -302
-69 -391 -69 -515 0 -60 -4 -110 -9 -110 -5 0 -12 -130 -15 -292 -3 -161 -9
-340 -12 -398 -6 -115 2 -148 50 -205 32 -37 35 -33 75 90 51 156 52 189 49
1025 -3 680 -5 765 -16 695z M5515 4265 c-5 -2 -22 -6 -37 -9 -37 -8 -98 -63
-114 -103 -21 -49 -17 -112 9 -158 62 -110 308 -207 637 -251 168 -23 655 -26
820 -6 297 37 531 112 635 203 85 75 94 183 22 266 -71 81 -162 84 -265 9
-127 -94 -572 -153 -964 -128 -305 19 -488 60 -618 137 -51 31 -102 47 -125
40z M8110 3282 c0 -299 -19 -380 -116 -507 l-37 -49 30 -59 29 -60 42 64 c24
35 62 92 86 126 80 114 86 140 86 408 0 150 -4 235 -10 235 -5 0 -10 6 -10 14
0 16 -59 56 -84 56 -14 0 -16 -24 -16 -228z M5626 1310 c-69 -68 -126 -127
-126 -131 0 -13 110 1 146 17 17 8 40 31 51 52 22 39 65 173 58 180 -2 2 -60
-51 -129 -118z M7130 1418 c0 -28 49 -162 68 -188 10 -14 34 -30 53 -37 38
-13 129 -17 129 -5 0 7 -165 171 -222 222 -22 18 -28 20 -28 8z"/>
</g>
</svg>
