<?xml version="1.0" standalone="no"?>
<!DOCTYPE svg PUBLIC "-//W3C//DTD SVG 20010904//EN"
 "http://www.w3.org/TR/2001/REC-SVG-20010904/DTD/svg10.dtd">
<svg version="1.0" xmlns="http://www.w3.org/2000/svg"
 width="2048.000000pt" height="2048.000000pt" viewBox="0 0 2048.000000 2048.000000"
 preserveAspectRatio="xMidYMid meet">
<metadata>
Created by potrace 1.13, written by Peter Selinger 2001-2015
</metadata>
<g transform="translate(0.000000,2048.000000) scale(0.192120,-0.192120)"
fill="#000000" stroke="none">
<path d="M5000 10320 c-561 -39 -1063 -152 -1520 -343 -804 -335 -1326 -862
-1457 -1470 -23 -103 -25 -397 -4 -502 52 -266 191 -535 395 -767 92 -103 235
-235 327 -301 l57 -39 7 -67 c33 -329 173 -651 283 -651 55 0 66 21 113 211
89 358 228 650 437 918 l65 83 41 -6 c174 -25 364 -48 487 -60 l147 -13 90
-52 c181 -105 330 -143 402 -103 32 17 60 57 74 105 5 14 18 17 80 17 l75 0
58 -53 c214 -194 381 -307 455 -307 69 0 77 84 23 247 -19 58 -35 107 -35 109
0 2 35 4 78 4 66 0 92 -5 164 -34 97 -40 264 -86 418 -116 203 -40 579 -80
760 -80 l75 0 214 -422 c232 -455 259 -498 325 -498 104 0 184 216 221 600 8
80 15 150 15 156 0 6 35 38 79 72 344 267 587 616 677 976 36 140 44 378 19
527 -35 212 -133 442 -273 639 -94 134 -327 365 -484 481 -532 394 -1238 643
-2048 724 -185 18 -665 27 -840 15z m-650 -413 c-1 -18 -7 -43 -15 -57 -10
-18 -14 -59 -14 -140 l-1 -115 45 -84 c25 -45 45 -89 45 -96 0 -24 -46 -43
-171 -70 -267 -57 -542 -135 -769 -218 -368 -133 -606 -250 -681 -333 -43 -48
-79 -107 -79 -132 0 -12 -7 -25 -15 -28 -12 -5 -15 -28 -15 -120 0 -107 -1
-114 -20 -114 -17 0 -20 -7 -20 -45 0 -42 -2 -46 -40 -65 -21 -11 -68 -47
-103 -80 -129 -121 -161 -244 -95 -369 34 -64 78 -122 78 -102 0 6 23 -6 50
-28 70 -55 99 -59 228 -26 l109 27 199 -21 c109 -11 269 -25 354 -31 85 -6
173 -13 195 -16 43 -6 115 -34 115 -44 0 -4 -12 -20 -26 -36 -27 -30 -74 -120
-74 -141 0 -17 1 -17 -149 12 -243 48 -461 116 -590 186 -30 16 -58 26 -62 22
-18 -19 -41 -225 -46 -416 l-6 -207 -49 87 c-130 230 -156 275 -216 367 -105
162 -172 288 -172 325 0 13 -9 40 -19 60 -10 20 -29 71 -41 113 -20 72 -21 95
-18 320 4 234 5 246 31 318 192 530 836 1008 1687 1249 168 48 352 90 363 84
4 -2 7 -19 7 -36z m2185 -9 c415 -103 802 -266 1109 -468 164 -108 235 -165
360 -288 180 -178 285 -336 351 -531 24 -72 25 -82 25 -345 0 -283 -5 -326
-45 -410 -13 -28 -27 -64 -30 -81 -19 -88 -62 -172 -180 -347 -38 -57 -108
-173 -155 -258 l-85 -154 -7 199 c-4 142 -12 232 -28 310 -12 60 -23 112 -25
115 -2 4 -43 -13 -91 -36 -212 -104 -593 -194 -1074 -254 -199 -24 -515 -50
-613 -50 l-72 0 -47 54 c-55 62 -133 106 -191 106 -82 0 -134 -49 -151 -142
l-7 -38 -174 0 -174 0 -21 48 c-38 85 -100 132 -175 132 -67 0 -119 -41 -155
-123 l-21 -47 -62 0 c-34 0 -92 3 -130 7 l-67 6 -45 62 c-71 100 -167 152
-320 174 -140 20 -275 51 -275 63 0 4 10 8 23 9 12 1 83 5 157 10 74 5 756 13
1515 18 1487 9 1616 13 2083 66 28 3 85 -5 155 -21 144 -33 177 -26 270 54 36
31 71 68 78 82 7 14 21 37 31 52 29 42 25 148 -7 198 -14 22 -25 44 -25 50 0
24 -146 156 -193 176 -45 18 -47 20 -47 60 0 28 -5 44 -15 48 -12 4 -15 27
-15 116 0 67 -4 110 -10 110 -5 0 -10 11 -10 25 0 14 -4 25 -10 25 -5 0 -10 8
-10 18 0 22 -63 99 -117 143 -115 92 -539 270 -902 379 -148 44 -245 69 -549
140 -87 20 -112 33 -112 56 0 8 19 54 42 102 39 79 43 95 46 177 3 73 0 101
-17 145 -12 30 -21 68 -21 83 0 27 2 28 38 21 20 -3 109 -24 197 -46z m-1752
-2 c18 -7 44 -25 59 -40 23 -23 38 -28 100 -33 99 -7 228 18 276 55 31 24 44
27 111 27 67 0 81 -3 117 -28 57 -38 168 -60 268 -53 67 5 82 9 105 32 36 37
81 54 141 54 115 0 200 -87 200 -205 0 -106 -67 -187 -170 -204 l-35 -6 -7
-133 c-26 -502 -237 -840 -563 -903 -138 -26 -335 65 -450 209 -132 166 -209
408 -222 695 -6 136 -6 137 -30 137 -32 0 -93 26 -121 53 -83 77 -83 229 0
303 58 53 151 70 221 40z m-116 -670 c-23 -58 -47 -154 -47 -184 0 -57 29
-160 70 -249 94 -203 211 -322 435 -443 52 -28 95 -55 95 -60 0 -32 -72 -34
-1145 -38 -588 -1 -1072 -6 -1075 -10 -12 -16 -151 -82 -160 -77 -6 4 -10 105
-10 253 l0 247 78 42 c379 205 1012 416 1492 497 234 40 275 44 267 22z m1472
-2 c500 -73 1058 -245 1519 -470 l172 -84 0 -260 c0 -143 -4 -260 -8 -260 -4
0 -12 4 -18 9 -15 16 -132 71 -148 71 -9 0 -16 5 -16 10 0 7 -344 10 -1012 10
-1040 0 -1188 5 -1188 41 0 5 33 25 73 45 92 47 219 129 279 183 89 79 185
236 230 376 30 96 29 180 -6 269 -14 37 -26 70 -26 72 0 7 42 4 149 -12z
m1890 -1132 c99 -50 105 -177 12 -239 l-34 -23 -2677 0 -2677 0 -34 23 c-93
62 -87 189 12 239 32 17 182 18 2699 18 2517 0 2667 -1 2699 -18z m-4920 -782
c148 -43 151 -44 151 -80 0 -17 -29 -86 -68 -162 -102 -200 -100 -198 -143
-150 -53 57 -69 121 -69 278 0 98 4 144 11 144 6 0 59 -14 118 -30z m4551
-132 c0 -152 -2 -168 -30 -257 -16 -53 -32 -113 -35 -134 -4 -27 -13 -41 -28
-47 -30 -12 -50 13 -128 164 -35 67 -91 161 -124 209 -47 70 -57 92 -49 105 7
10 63 30 150 54 76 20 159 44 184 52 25 7 48 14 53 15 4 1 7 -72 7 -161z
M4120 6423 c-27 -10 -65 -37 -96 -68 -74 -74 -84 -114 -84 -330 0 -207 10
-251 75 -323 63 -70 127 -96 221 -90 111 7 189 61 236 163 22 47 23 62 23 250
0 199 0 200 -28 257 -64 131 -208 189 -347 141z M6344 6424 c-60 -21 -119 -77
-151 -142 -28 -57 -28 -58 -28 -262 0 -203 0 -205 27 -256 50 -95 126 -145
233 -152 93 -6 158 21 220 90 65 72 75 116 75 323 0 216 -10 256 -83 330 -80
80 -190 106 -293 69z M2712 6378 c-138 -239 -148 -636 -23 -903 43 -92 106
-181 154 -218 40 -30 112 -67 131 -67 17 0 22 -15 31 -90 34 -287 184 -728
347 -1024 161 -291 420 -603 653 -785 44 -34 88 -69 98 -77 14 -11 17 -31 18
-106 1 -78 3 -88 11 -61 l10 32 86 -75 c313 -273 685 -390 1187 -370 434 16
742 129 1020 374 l80 70 6 -29 c13 -59 19 -41 19 57 l0 99 83 62 c410 306 762
834 932 1398 40 132 90 349 100 435 9 75 14 90 31 90 22 0 105 46 140 77 234
210 307 716 151 1046 l-32 68 -3 -248 c-2 -136 -7 -273 -12 -303 -24 -147 -31
-174 -59 -232 -43 -91 -79 -141 -163 -227 -123 -126 -154 -181 -188 -334 -33
-147 -113 -386 -225 -667 -131 -330 -236 -492 -471 -721 -75 -74 -172 -168
-214 -209 -89 -88 -123 -150 -118 -218 l3 -45 -65 -44 c-100 -69 -323 -175
-461 -221 -217 -72 -407 -102 -639 -102 -231 0 -415 29 -636 102 -132 43 -380
161 -474 225 -55 38 -55 38 -60 98 -9 102 -20 116 -258 341 -146 137 -309 353
-426 564 -159 286 -245 520 -321 870 -37 176 -58 214 -192 345 -62 61 -113
114 -113 118 0 4 -11 24 -24 45 -13 20 -35 69 -47 107 -22 66 -24 89 -29 440
l-5 370 -33 -57z M5034 5241 c-79 -36 -136 -142 -119 -223 12 -59 53 -116 103
-145 l47 -28 265 0 265 0 47 28 c50 29 91 86 103 145 17 81 -40 187 -119 223
-36 17 -69 19 -296 19 -227 0 -260 -2 -296 -19z M4384 4260 c-115 -26 -177
-152 -128 -256 62 -131 377 -241 779 -274 265 -21 601 -9 829 30 320 55 529
162 554 284 16 80 -8 142 -75 193 -31 24 -46 28 -99 28 -54 0 -68 -4 -107 -33
-136 -98 -404 -146 -807 -146 -397 1 -636 42 -800 139 -61 37 -100 46 -146 35z
M3950 2925 c-79 -59 -181 -231 -188 -320 l-4 -55 -83 0 -82 0 -7 38 c-12 80
-77 128 -160 119 -28 -3 -417 -64 -864 -135 -546 -88 -820 -135 -837 -146 -34
-23 -58 -72 -56 -120 0 -23 12 -106 25 -186 24 -142 25 -145 61 -178 l37 -34
-31 -42 c-104 -139 -201 -336 -251 -510 -57 -193 -62 -241 -67 -649 l-5 -377
3891 0 3891 0 0 309 c0 404 -15 544 -81 756 -45 146 -147 347 -236 465 l-34
45 29 25 c44 37 49 52 77 229 22 132 24 168 15 196 -15 46 -59 81 -117 93 -26
6 -413 67 -858 138 -534 84 -820 125 -839 120 -42 -10 -84 -57 -97 -110 l-11
-46 -84 0 -83 0 5 33 c14 82 -119 306 -209 353 -29 16 -52 9 -78 -22 -37 -45
-438 -336 -981 -713 -153 -105 -280 -197 -284 -203 -5 -8 24 -9 109 -5 130 8
200 21 266 49 51 21 284 175 496 327 207 148 331 231 364 242 24 8 35 7 58 -8
15 -9 30 -20 33 -23 34 -35 138 -80 185 -80 21 0 25 -5 25 -31 0 -153 -292
-1237 -380 -1409 -27 -52 -25 -60 9 -60 41 0 110 55 148 119 48 80 130 338
229 721 25 96 52 185 60 197 22 35 50 37 98 9 95 -55 195 -81 371 -96 66 -6
134 -12 150 -15 17 -3 248 -39 515 -81 267 -41 503 -82 526 -90 129 -48 248
-264 330 -599 22 -92 24 -120 24 -337 0 -231 -1 -238 -20 -238 -11 0 -20 -7
-20 -15 0 -13 -158 -15 -1357 -15 -1420 -1 -1418 -1 -1498 -43 -17 -8 -45 -27
-64 -41 -19 -14 -38 -26 -42 -26 -4 0 -24 51 -45 113 -50 152 -114 295 -177
397 l-52 84 77 130 c43 72 80 143 83 158 4 15 11 28 17 28 5 0 47 -26 91 -59
122 -87 374 -254 440 -291 140 -78 70 19 -215 302 -226 224 -497 447 -762 626
-102 69 -81 72 -231 -32 -328 -228 -652 -510 -892 -774 -86 -96 -107 -132 -84
-146 9 -6 237 144 449 296 68 48 125 88 127 88 2 0 8 -15 15 -34 6 -18 44 -91
85 -161 41 -71 75 -131 75 -134 0 -3 -16 -21 -35 -41 -75 -77 -158 -256 -206
-447 -13 -48 -26 -92 -31 -97 -4 -5 -32 8 -65 31 -116 81 37 73 -1483 73
-1202 0 -1360 2 -1360 15 0 11 -11 15 -41 15 l-40 0 3 328 4 327 35 100 c74
207 174 366 253 405 48 23 941 169 1161 190 199 18 363 59 447 110 26 16 33
16 58 3 35 -17 44 -42 105 -273 111 -421 189 -648 246 -711 37 -41 99 -79 128
-79 26 0 69 20 44 20 -60 1 -342 983 -419 1458 -4 26 -2 32 14 32 45 0 121 33
172 75 60 49 88 55 136 28 108 -62 238 -146 359 -232 272 -194 461 -318 518
-339 61 -23 192 -42 292 -42 51 0 57 2 45 14 -8 7 -195 139 -415 292 -434 301
-747 528 -836 605 -31 27 -61 49 -66 49 -5 0 -24 -11 -43 -25z m-582 -382 c73
-54 94 -147 49 -214 -70 -104 -197 -106 -271 -6 -32 44 -29 132 6 179 15 19
42 42 60 52 42 21 120 16 156 -11z m4056 -6 c42 -33 71 -102 63 -153 -8 -47
-51 -102 -93 -120 -70 -29 -154 -7 -198 53 -21 28 -32 98 -22 137 8 34 54 86
91 102 45 21 117 12 159 -19z m-3806 -151 c17 -89 15 -126 -8 -163 -27 -46
-60 -59 -190 -78 -63 -9 -164 -25 -225 -35 -128 -23 -1225 -195 -1303 -205
l-52 -7 19 44 c22 51 61 202 61 234 0 12 7 24 15 28 8 3 15 12 15 20 0 16 42
27 205 51 61 8 240 36 400 61 197 31 291 42 293 35 2 -6 11 -11 20 -11 10 0
40 -21 67 -47 69 -64 152 -116 219 -137 158 -50 343 27 392 163 33 90 43 111
52 111 5 0 14 -29 20 -64z m3500 -115 c31 -42 108 -89 170 -102 121 -25 239
20 367 140 47 45 92 81 100 81 8 0 115 -16 237 -35 123 -20 329 -51 458 -71
129 -19 242 -37 251 -39 9 -3 21 -17 27 -30 6 -14 16 -25 20 -25 5 0 12 -34
15 -76 4 -42 18 -107 31 -146 l25 -70 -52 7 c-69 9 -1107 173 -1414 224 -132
22 -250 45 -262 53 -11 7 -31 31 -43 54 -21 39 -21 45 -9 115 l14 73 23 -64
c12 -35 31 -75 42 -89z m-1673 -505 c148 -70 285 -209 285 -288 0 -43 -49
-196 -90 -283 -17 -35 -48 -79 -71 -100 l-42 -37 -106 6 c-59 4 -137 3 -176
-3 -129 -19 -180 28 -244 224 -55 167 -55 169 -26 232 35 77 167 208 254 251
84 42 127 42 216 -2z m65 -872 c75 -36 146 -95 200 -168 41 -56 100 -157 100
-172 0 -5 -166 -9 -407 -9 -225 0 -439 -4 -476 -9 l-68 -8 16 38 c20 50 95
163 140 213 48 52 133 110 197 133 84 29 213 22 298 -18z"/>
</g>
</svg>
