<?xml version="1.0" standalone="no"?>
<!DOCTYPE svg PUBLIC "-//W3C//DTD SVG 20010904//EN"
 "http://www.w3.org/TR/2001/REC-SVG-20010904/DTD/svg10.dtd">
<svg version="1.0" xmlns="http://www.w3.org/2000/svg"
 width="2048.000000pt" height="2048.000000pt" viewBox="0 0 2048.000000 2048.000000"
 preserveAspectRatio="xMidYMid meet">
<metadata>
Created by potrace 1.13, written by Peter Selinger 2001-2015
</metadata>
<g transform="translate(0.000000,2048.000000) scale(0.192120,-0.192120)"
fill="#000000" stroke="none">
<path d="M5025 10323 c-650 -34 -1261 -186 -1768 -439 -361 -181 -624 -368
-898 -643 -293 -294 -507 -604 -664 -965 -200 -460 -273 -882 -247 -1428 14
-285 28 -414 73 -640 l30 -157 -63 -63 c-155 -154 -266 -405 -309 -698 -20
-134 -15 -393 10 -534 70 -393 265 -692 511 -783 30 -11 57 -27 61 -34 4 -8
19 -89 34 -182 66 -418 206 -861 399 -1262 602 -1251 1678 -2052 2891 -2155
723 -61 1474 153 2096 597 254 181 566 476 763 723 399 500 690 1100 851 1755
38 155 88 415 97 509 3 25 9 30 58 45 340 105 588 663 540 1216 -19 226 -68
406 -156 576 -47 90 -150 233 -175 241 -9 3 -8 33 4 134 58 452 72 1014 32
1284 -147 990 -879 1934 -1905 2454 -509 259 -1043 403 -1652 446 -134 9 -464
11 -613 3z m535 -313 c210 -11 316 -23 515 -56 962 -159 1812 -659 2351 -1386
211 -284 361 -595 446 -923 l33 -130 -1 -810 c-1 -794 -1 -811 -22 -860 -11
-27 -23 -62 -26 -77 -4 -17 -13 -28 -23 -28 -42 0 -95 89 -344 577 -225 441
-259 503 -310 558 -68 72 -121 111 -180 131 -24 9 -137 21 -273 29 -498 32
-855 82 -1190 166 -229 58 -368 107 -579 208 -177 83 -225 98 -277 82 -51 -15
-115 -71 -142 -124 -21 -42 -21 -38 -2 -314 4 -60 2 -83 -6 -83 -25 0 -149 98
-370 294 -242 214 -327 267 -399 251 -46 -10 -135 -93 -175 -164 -20 -35 -36
-70 -36 -77 0 -7 -11 -25 -25 -40 -14 -15 -25 -31 -25 -37 0 -21 -126 0 -211
35 -159 65 -440 238 -653 402 -223 171 -324 228 -406 228 -94 -1 -227 -87
-394 -257 -261 -265 -440 -514 -622 -870 -107 -208 -179 -381 -259 -620 -59
-178 -75 -211 -98 -202 -26 10 -57 90 -57 145 0 28 -14 134 -32 234 l-32 183
-4 480 c-4 507 -1 551 43 745 85 367 246 706 489 1030 87 116 299 336 426 442
650 546 1528 831 2600 846 52 1 174 -3 270 -8z m-2241 -2394 c122 -101 355
-274 496 -368 362 -240 625 -340 778 -297 53 14 112 71 134 127 20 51 24 179
10 266 l-9 50 156 -151 c344 -334 647 -570 800 -623 64 -23 85 -24 120 -9 87
40 51 267 -96 599 -33 74 -64 139 -69 145 -5 5 -9 15 -9 23 0 9 19 -3 45 -27
54 -49 185 -136 274 -181 395 -198 1123 -339 1887 -366 l191 -7 52 -106 c245
-495 588 -1155 625 -1202 28 -36 61 -65 91 -79 45 -22 47 -22 90 -5 83 31 151
153 211 378 19 72 39 141 43 151 10 26 65 -264 91 -484 14 -126 20 -236 20
-391 0 -235 -7 -276 -77 -464 -64 -173 -97 -219 -289 -412 -77 -77 -154 -165
-172 -195 -22 -37 -45 -101 -67 -189 -18 -74 -45 -174 -58 -224 -13 -49 -32
-135 -42 -190 -54 -314 -299 -894 -514 -1215 -166 -250 -495 -621 -726 -819
-769 -661 -1761 -901 -2709 -656 -917 236 -1709 915 -2170 1860 -184 376 -289
693 -386 1167 -26 128 -47 203 -65 236 -35 65 -207 256 -278 310 -103 78 -177
192 -233 362 -27 84 -28 88 -31 391 -3 174 0 327 5 355 10 49 42 215 88 459
36 186 32 183 73 64 105 -295 252 -468 357 -417 43 20 69 79 104 233 155 680
469 1284 891 1716 95 97 267 248 283 249 4 0 42 -29 85 -64z M3890 5881 c-58
-12 -107 -40 -150 -88 -76 -82 -75 -76 -75 -463 0 -388 -1 -381 75 -464 57
-61 118 -89 200 -89 108 0 193 50 246 145 l29 53 0 355 0 355 -29 53 c-60 107
-182 166 -296 143z m68 -553 c-3 -275 -4 -283 -23 -283 -19 0 -20 8 -23 270
-1 148 0 275 3 282 2 7 14 13 25 13 20 0 20 -4 18 -282z M6663 5880 c-81 -16
-147 -66 -189 -142 l-29 -53 0 -355 0 -355 29 -53 c53 -95 138 -145 246 -145
82 0 143 28 200 89 76 83 75 76 75 464 0 388 1 381 -75 464 -67 72 -163 104
-257 86z m75 -552 c-3 -260 -4 -283 -20 -286 -17 -3 -18 16 -18 282 0 280 0
286 20 286 20 0 20 -5 18 -282z M4973 4206 c-153 -49 -230 -198 -182 -355 17
-56 86 -133 147 -163 46 -23 51 -23 392 -23 341 0 346 0 392 23 61 30 130 107
147 163 42 138 -14 276 -137 336 l-57 28 -330 2 c-252 2 -340 -1 -372 -11z
m658 -208 c42 -12 54 -33 44 -77 -4 -21 -17 -35 -43 -48 -33 -16 -65 -18 -307
-18 -250 0 -273 1 -310 20 -38 19 -40 23 -40 65 0 43 1 45 40 56 54 17 563 18
616 2z M4441 3379 c-57 -11 -122 -50 -161 -96 -35 -43 -64 -131 -58 -174 3
-20 0 -30 -11 -33 -9 -3 -223 -64 -475 -136 -252 -72 -471 -137 -485 -145 -14
-7 -43 -31 -63 -52 -132 -136 -93 -355 79 -439 89 -44 134 -39 438 51 143 42
268 79 278 82 17 5 16 1 -6 -43 -54 -107 -42 -211 35 -299 57 -65 123 -95 210
-95 65 0 72 3 308 120 132 66 245 120 250 120 6 0 10 -10 10 -22 0 -38 45
-122 81 -152 55 -47 107 -66 179 -66 112 0 205 59 253 162 12 26 24 47 27 48
4 0 12 -15 18 -34 20 -55 95 -130 153 -156 77 -32 177 -26 245 15 57 36 111
110 120 166 4 22 10 39 15 39 5 0 117 -54 249 -120 236 -117 243 -120 308
-120 87 0 153 30 210 95 77 88 89 192 35 299 -22 44 -23 48 -6 43 10 -3 135
-40 278 -82 290 -85 347 -93 425 -58 104 46 160 124 168 234 3 52 0 81 -13
116 -23 59 -88 131 -140 154 -31 14 -710 212 -920 268 l-40 11 -1 53 c-1 97
-63 184 -163 231 -46 21 -54 21 -916 23 -478 0 -890 -3 -914 -8z m1742 -261
c20 -9 40 -25 44 -35 4 -9 12 -24 19 -33 119 -149 181 -203 270 -238 27 -11
194 -61 369 -112 176 -50 332 -99 348 -108 30 -18 35 -37 11 -46 -29 -11 -64
-6 -202 30 -162 42 -280 54 -332 32 -82 -35 -191 -163 -206 -242 -3 -21 -18
-56 -33 -78 -25 -39 -28 -40 -71 -36 -27 3 -106 33 -200 75 -170 78 -215 93
-275 93 -43 0 -80 -20 -216 -115 -94 -66 -120 -66 -252 3 -54 29 -112 52 -128
52 -16 0 -70 -22 -122 -49 -51 -26 -106 -51 -124 -55 -42 -9 -89 12 -177 78
-104 79 -129 89 -197 83 -55 -5 -98 -21 -344 -131 -55 -25 -95 -36 -127 -36
-46 0 -48 1 -68 42 -11 23 -20 50 -20 61 0 10 -13 47 -29 81 -22 48 -44 76
-95 119 -75 63 -103 72 -204 63 -80 -7 -76 -6 -227 -45 -129 -34 -190 -39
-198 -18 -13 34 -2 38 393 151 181 52 353 106 383 121 56 26 191 150 202 186
4 11 11 19 16 19 5 0 9 7 9 15 0 8 5 15 10 15 6 0 10 6 10 14 0 23 50 49 109
56 31 5 407 7 836 6 712 -1 783 -2 818 -18z"/>
</g>
</svg>
