<?xml version="1.0" standalone="no"?>
<!DOCTYPE svg PUBLIC "-//W3C//DTD SVG 20010904//EN"
 "http://www.w3.org/TR/2001/REC-SVG-20010904/DTD/svg10.dtd">
<svg version="1.0" xmlns="http://www.w3.org/2000/svg"
 width="2048.000000pt" height="2048.000000pt" viewBox="0 0 2048.000000 2048.000000"
 preserveAspectRatio="xMidYMid meet">
<metadata>
Created by potrace 1.13, written by Peter Selinger 2001-2015
</metadata>
<g transform="translate(0.000000,2048.000000) scale(0.192120,-0.192120)"
fill="#000000" stroke="none">
<path d="M5085 10043 c-1110 -93 -2237 -669 -2993 -1528 -745 -847 -1146
-1912 -1202 -3195 -21 -473 -10 -1656 20 -2275 57 -1163 215 -1917 470 -2247
98 -126 195 -180 340 -186 241 -10 533 63 1175 295 479 173 734 258 940 314
152 41 146 37 100 61 -72 37 -258 165 -370 254 -139 111 -414 385 -531 529
-538 664 -889 1526 -998 2455 -33 276 -38 401 -22 527 21 156 57 286 111 401
111 235 225 355 685 727 91 74 297 270 630 602 273 271 499 493 503 493 3 0
62 -31 129 -69 368 -206 826 -408 1227 -541 447 -149 830 -220 1189 -220 306
0 674 -62 961 -162 162 -56 386 -166 516 -252 394 -263 631 -626 685 -1048 10
-83 0 -245 -30 -493 -114 -918 -463 -1765 -998 -2425 -105 -130 -408 -433
-520 -520 -134 -104 -251 -186 -336 -234 -47 -27 -74 -47 -65 -50 8 -3 68 -19
134 -36 169 -44 493 -152 890 -295 726 -262 909 -309 1205 -310 142 0 186 3
235 18 201 62 337 215 419 472 146 451 186 1143 189 3235 2 1128 0 1197 -59
1599 -159 1105 -594 2017 -1309 2749 -735 754 -1780 1259 -2795 1351 -105 10
-429 12 -525 4z m720 -302 c1197 -185 2298 -877 2952 -1856 355 -532 566
-1081 700 -1822 l38 -208 0 -1930 c0 -2118 2 -2032 -60 -2405 -34 -202 -40
-226 -76 -336 -53 -158 -139 -262 -247 -295 -20 -6 -91 -13 -158 -16 -258 -11
-475 45 -1249 321 -372 133 -415 152 -415 183 0 9 69 84 153 167 380 377 644
749 892 1259 219 450 358 880 451 1397 44 246 54 360 54 636 0 248 -1 267 -26
360 -108 418 -382 785 -784 1049 -260 172 -571 295 -920 365 -199 40 -361 58
-650 70 -254 11 -447 34 -635 76 -459 102 -944 287 -1535 584 -223 113 -268
130 -335 130 -110 -1 -196 -70 -690 -560 -340 -337 -475 -464 -645 -604 -373
-308 -545 -495 -658 -714 -70 -136 -101 -220 -132 -353 -21 -92 -22 -112 -17
-435 5 -353 10 -405 67 -699 106 -548 329 -1153 588 -1595 227 -388 420 -639
724 -943 98 -98 178 -184 178 -192 0 -19 -44 -48 -115 -74 -512 -188 -951
-337 -1103 -374 -231 -56 -387 -69 -482 -41 -212 63 -373 523 -469 1344 -57
479 -54 405 -58 1985 -3 1294 -2 1485 12 1595 137 1087 532 1951 1210 2649
634 653 1517 1119 2398 1266 238 39 303 44 612 40 236 -2 316 -7 430 -24z
M3857 5316 c-98 -35 -166 -111 -187 -210 -8 -33 -10 -157 -8 -361 3 -302 4
-311 27 -363 43 -96 145 -162 251 -162 75 0 139 27 197 85 80 80 83 99 83 470
0 371 -3 390 -83 470 -79 78 -184 105 -280 71z M6620 5313 c-26 -9 -66 -38
-96 -68 -81 -80 -84 -99 -84 -470 0 -356 4 -383 71 -459 53 -60 107 -87 185
-94 118 -9 218 48 271 156 l28 57 0 340 c0 324 -1 342 -21 385 -30 65 -70 107
-128 137 -65 33 -161 40 -226 16z M4956 3924 c-61 -22 -122 -78 -152 -141 -68
-137 -9 -303 131 -369 50 -24 53 -24 395 -24 342 0 345 0 395 24 220 104 205
433 -23 510 -64 22 -686 22 -746 0z M4396 2810 c-98 -38 -165 -130 -174 -236
-10 -129 48 -216 222 -329 157 -102 341 -175 549 -217 97 -20 142 -23 337 -23
249 0 356 15 541 75 249 82 488 238 544 355 61 129 4 295 -125 360 -110 56
-209 41 -330 -50 -175 -133 -365 -189 -635 -189 -281 1 -440 53 -668 219 -81
58 -170 70 -261 35z m141 -312 c-3 -8 -6 -5 -6 6 -1 11 2 17 5 13 3 -3 4 -12
1 -19z m49 9 c44 -19 126 -69 146 -89 10 -10 23 -18 28 -18 6 0 10 -8 9 -17 0
-11 -3 -13 -6 -5 -2 6 -9 10 -14 6 -5 -3 -9 -1 -9 4 0 5 -10 8 -22 6 -24 -2
-147 59 -160 80 -8 11 -11 46 -4 46 2 0 17 -6 32 -13z m1524 -7 c0 -6 -12 -22
-26 -35 -25 -23 -38 -29 -56 -26 -5 0 -8 -3 -8 -9 0 -5 -3 -9 -7 -9 -5 1 -24
-4 -43 -12 -19 -7 -38 -12 -42 -11 -5 1 -8 -3 -8 -9 0 -5 -5 -7 -10 -4 -15 9
5 32 49 56 20 11 54 31 76 44 42 26 75 32 75 15z M4036 1269 c-46 -25 -52 -19
99 -96 368 -187 771 -283 1188 -283 310 0 555 39 847 136 159 53 490 203 490
223 0 12 -80 41 -114 41 -15 0 -60 -11 -99 -25 -384 -131 -635 -186 -950 -207
-400 -27 -805 38 -1267 201 -100 36 -141 38 -194 10z"/>
</g>
</svg>
