<?xml version="1.0" standalone="no"?>
<!DOCTYPE svg PUBLIC "-//W3C//DTD SVG 20010904//EN"
 "http://www.w3.org/TR/2001/REC-SVG-20010904/DTD/svg10.dtd">
<svg version="1.0" xmlns="http://www.w3.org/2000/svg"
 width="2048.000000pt" height="2048.000000pt" viewBox="0 0 2048.000000 2048.000000"
 preserveAspectRatio="xMidYMid meet">
<metadata>
Created by potrace 1.13, written by Peter Selinger 2001-2015
</metadata>
<g transform="translate(0.000000,2048.000000) scale(0.192120,-0.192120)"
fill="#000000" stroke="none">
<path d="M4985 10319 c-1310 -83 -2440 -661 -2835 -1449 -101 -201 -139 -352
-147 -575 -6 -195 9 -305 68 -480 104 -312 312 -591 635 -851 l91 -74 12 -87
c7 -49 19 -123 28 -165 l15 -78 -56 -61 c-68 -73 -135 -206 -167 -334 -20 -78
-23 -114 -23 -265 0 -156 3 -185 27 -272 33 -125 103 -261 171 -331 49 -52
138 -107 170 -107 17 0 17 1 41 -150 59 -365 209 -764 414 -1095 145 -236 418
-540 608 -680 l82 -60 1 -177 0 -177 78 -59 c133 -101 485 -350 797 -565 165
-114 308 -212 318 -219 17 -12 9 -19 -75 -73 -183 -118 -498 -365 -498 -391 0
-7 16 -62 36 -121 25 -75 60 -149 115 -242 43 -73 79 -135 79 -138 0 -3 -20
-27 -44 -54 -98 -109 -192 -355 -240 -626 l-5 -33 650 0 651 0 -7 38 c-13 72
-66 248 -106 347 -38 96 -122 255 -160 303 -18 23 -17 24 15 75 85 136 138
241 171 342 19 61 35 113 35 116 0 18 -392 316 -537 408 -29 18 -53 35 -53 36
0 2 78 57 173 121 252 173 615 427 835 587 l192 140 0 181 1 181 81 60 c109
80 326 296 426 421 217 276 366 556 482 904 55 164 110 390 125 505 10 81 15
95 31 95 33 0 121 55 172 109 67 69 143 220 172 341 72 300 6 662 -154 846
l-44 50 14 114 c7 63 16 145 19 181 l6 66 83 66 c385 306 628 682 692 1075 23
142 14 382 -20 517 -77 308 -234 566 -504 827 -486 469 -1259 797 -2142 907
-312 39 -677 50 -995 30z m820 -298 c428 -58 843 -183 1260 -381 281 -133 620
-344 843 -523 l62 -50 0 -458 c0 -252 -3 -465 -6 -474 -6 -14 -9 -14 -28 3
-47 42 -143 102 -174 108 -17 4 -32 10 -32 15 0 5 -362 9 -829 9 -785 0 -919
4 -943 28 -15 15 2 36 62 81 135 101 222 216 261 343 26 85 28 424 3 509 -32
108 -110 200 -211 246 -44 21 -78 27 -177 33 -117 6 -126 9 -221 52 -157 72
-202 83 -345 83 -144 0 -188 -11 -345 -83 -96 -44 -105 -46 -221 -53 -144 -7
-202 -29 -277 -103 -99 -98 -117 -163 -117 -424 0 -230 9 -272 80 -392 49 -81
84 -120 183 -199 42 -34 77 -69 77 -76 0 -39 -14 -40 -922 -43 -483 -1 -878
-6 -878 -11 0 -5 -12 -12 -27 -16 -14 -3 -38 -15 -52 -26 -127 -97 -129 -98
-135 -83 -3 9 -6 222 -6 473 l0 458 103 80 c302 237 704 465 1087 616 402 159
720 234 1195 281 22 2 162 2 310 1 199 -3 309 -9 420 -24z m-294 -555 c72 -25
158 -78 202 -124 l28 -29 82 30 c104 37 192 42 234 12 38 -28 80 -116 93 -195
5 -36 10 -124 10 -195 0 -203 -34 -299 -144 -403 -126 -120 -342 -174 -686
-174 -344 0 -560 54 -686 174 -110 104 -144 200 -144 403 0 71 5 159 10 195
13 79 55 167 93 195 42 30 130 25 234 -12 l82 -30 28 29 c62 65 188 130 285
147 77 14 202 4 279 -23z m2726 -645 c34 -45 79 -141 102 -215 19 -62 21 -92
21 -321 0 -212 -2 -255 -15 -265 -9 -8 -15 -8 -15 -2 0 15 -93 153 -119 176
-21 19 -21 25 -21 342 0 346 0 349 47 285z m-5816 -656 c-16 -18 -39 -51 -52
-74 -12 -23 -26 -41 -30 -41 -4 0 -9 -10 -13 -22 -5 -22 -6 -22 -23 -5 -16 16
-18 43 -21 247 -3 211 -1 235 19 302 24 82 66 171 113 238 l31 45 3 -329 2
-328 -29 -33z m5608 -73 c99 -50 105 -177 12 -239 l-34 -23 -2677 0 -2677 0
-34 23 c-93 62 -87 189 12 239 32 17 182 18 2699 18 2517 0 2667 -1 2699 -18z
m-5603 -339 c63 -78 125 -132 186 -161 51 -24 58 -31 68 -70 11 -45 5 -92 -12
-92 -6 0 -16 -7 -23 -16 -16 -22 -36 -8 -98 66 -70 84 -133 183 -157 246 -34
91 -23 99 36 27z m5830 -24 c-8 -41 -109 -205 -167 -271 -78 -90 -118 -75
-119 43 l0 67 33 6 c49 9 114 55 182 128 33 35 64 62 69 60 4 -3 5 -17 2 -33z
m-5357 -113 c124 -63 366 -135 676 -203 l40 -9 -60 -29 c-117 -58 -240 -214
-381 -482 -41 -77 -61 -103 -81 -103 -7 0 -29 32 -48 71 -19 40 -46 87 -60
106 -30 38 -115 103 -161 122 -38 15 -44 37 -44 165 0 119 33 396 47 396 2 0
34 -15 72 -34z m4970 -195 c12 -91 14 -262 5 -296 -3 -12 -31 -34 -70 -54
-121 -63 -183 -160 -203 -315 -9 -71 -18 -105 -32 -119 l-19 -21 -25 24 c-13
14 -63 97 -111 185 -100 185 -138 238 -208 296 -103 84 -144 92 -511 104 -104
3 -239 10 -300 16 -146 13 -367 41 -362 46 2 2 103 12 223 23 727 66 1234 168
1503 305 l66 33 17 -70 c9 -39 22 -109 27 -157z m-2879 109 c0 -14 -7 -20 -24
-20 -13 0 -26 -4 -28 -8 -6 -16 -135 -52 -184 -52 -83 0 -234 53 -234 82 0 17
18 18 235 18 228 0 235 -1 235 -20z m690 0 c0 -13 -7 -20 -19 -20 -11 0 -21
-3 -23 -8 -1 -4 -34 -23 -73 -42 -65 -32 -76 -35 -165 -34 -85 0 -104 4 -180
34 -47 19 -86 38 -88 42 -2 4 -15 8 -28 8 -17 0 -24 6 -24 20 0 20 7 20 300
20 293 0 300 0 300 -20z m1060 2 c0 -14 -14 -21 -62 -31 -130 -27 -375 -49
-505 -45 -97 2 -313 34 -313 46 0 4 -13 8 -30 8 -23 0 -30 4 -30 20 0 20 7 20
470 20 446 0 470 -1 470 -18z m-2880 -162 c74 -11 223 -29 332 -40 l196 -20
76 -45 c148 -87 282 -132 361 -120 54 8 101 50 111 100 l6 35 79 0 79 0 67
-62 c191 -173 376 -298 444 -298 15 0 35 8 44 17 28 27 15 138 -27 251 l-35
92 85 0 c73 0 96 -5 171 -34 175 -70 395 -121 671 -156 173 -22 399 -40 505
-40 l70 0 214 -422 c157 -309 225 -432 253 -460 92 -92 173 -18 241 221 l24
83 12 -60 c20 -103 22 -181 12 -397 -11 -239 -21 -305 -57 -383 -34 -75 -70
-125 -158 -221 -120 -130 -162 -206 -200 -363 -39 -159 -115 -381 -224 -654
-96 -240 -106 -260 -192 -390 -119 -176 -195 -261 -364 -407 -56 -49 -153
-147 -188 -191 -81 -101 -104 -178 -77 -255 14 -40 13 -41 -141 -120 -580
-297 -1260 -297 -1840 0 -159 82 -153 76 -138 137 9 41 9 60 -2 94 -23 72 -88
159 -194 258 -253 238 -383 398 -508 625 -174 316 -257 543 -333 910 -9 44
-24 96 -32 115 -29 64 -96 154 -183 245 -48 50 -100 115 -117 145 -28 52 -36
75 -62 192 -16 70 -14 532 3 651 8 54 16 100 19 103 2 2 9 -15 16 -38 23 -76
101 -216 142 -253 57 -51 107 -46 138 13 5 9 16 52 25 95 53 260 165 545 304
772 75 123 204 294 222 295 8 0 76 -9 150 -20z m925 -89 c37 -8 35 -9 -25 -9
-36 0 -78 4 -95 8 -25 6 -21 8 25 8 30 1 73 -3 95 -7z m758 -11 c17 -5 15 -10
-17 -38 -47 -41 -90 -42 -187 -2 -41 16 -76 31 -79 32 -3 1 27 4 65 8 88 8
194 8 218 0z m-1011 -4476 c265 -133 646 -190 1024 -153 291 28 522 107 734
249 80 54 90 58 72 33 -55 -77 -225 -191 -537 -361 -250 -135 -299 -164 -392
-227 -86 -59 -118 -60 -199 -3 -79 55 -179 114 -359 210 -309 166 -518 303
-573 375 -22 30 -17 28 59 -23 46 -31 122 -76 171 -100z m865 -1081 c64 -43
276 -208 292 -227 22 -27 8 -85 -43 -167 -52 -87 -76 -147 -76 -193 0 -54 -21
-59 -238 -62 -177 -2 -194 0 -217 18 -18 14 -25 29 -25 56 0 43 -26 104 -80
187 -47 73 -59 132 -35 172 15 25 120 103 139 103 7 0 76 51 111 84 35 33 79
56 105 56 15 0 44 -12 67 -27z m113 -820 c106 -52 160 -129 160 -227 0 -76 -1
-76 -357 -76 -351 0 -353 0 -353 70 0 60 81 158 178 217 69 41 119 53 217 50
79 -2 99 -6 155 -34z M4811 9226 c-84 -62 -105 -125 -99 -303 3 -121 5 -132
37 -196 37 -77 112 -158 182 -196 39 -21 42 -22 23 -3 -118 114 -178 254 -177
412 0 102 17 179 59 262 27 54 22 59 -25 24z M5824 9202 c100 -197 75 -442
-62 -610 -19 -24 -44 -53 -56 -64 -19 -19 -16 -18 23 3 67 36 147 122 183 198
31 62 33 74 36 194 5 177 -18 246 -103 304 -19 13 -37 23 -40 23 -3 0 6 -22
19 -48z M4120 6423 c-27 -10 -65 -37 -96 -68 -74 -74 -84 -114 -84 -330 0
-203 10 -250 71 -319 53 -60 107 -87 185 -94 118 -9 227 54 275 160 23 50 24
64 24 253 0 199 0 200 -28 257 -64 131 -208 189 -347 141z m128 -241 c9 -7 12
-47 10 -168 l-3 -159 -31 -3 c-58 -6 -64 12 -64 174 0 141 1 145 23 154 28 11
49 12 65 2z M6344 6424 c-60 -21 -119 -77 -151 -142 -28 -57 -28 -58 -28 -257
0 -189 1 -203 24 -253 48 -106 157 -169 275 -160 78 7 132 34 185 94 61 69 71
116 71 319 0 216 -10 256 -83 330 -80 80 -190 106 -293 69z m124 -242 c9 -7
12 -47 10 -168 l-3 -159 -27 -3 c-15 -2 -36 2 -48 8 -19 10 -20 20 -20 161 0
146 1 150 23 159 28 11 49 12 65 2z M5050 5249 c-82 -33 -134 -111 -134 -199
0 -79 42 -146 119 -188 44 -25 480 -31 557 -8 93 27 151 101 152 196 1 70 -32
132 -92 175 l-44 30 -266 2 c-162 1 -277 -2 -292 -8z M6175 4255 c-16 -9 -45
-26 -63 -39 -127 -94 -572 -153 -970 -128 -298 18 -487 60 -610 136 -47 30
-67 36 -111 36 -141 0 -227 -144 -158 -265 62 -109 306 -206 632 -251 183 -25
685 -26 865 -1 313 44 558 136 630 237 25 35 38 117 26 164 -23 91 -156 152
-241 111z M3390 2799 c-30 -5 -181 -29 -335 -54 -395 -63 -805 -128 -1045
-165 -113 -18 -220 -39 -239 -48 -43 -20 -71 -66 -71 -119 0 -60 39 -301 55
-340 19 -46 68 -73 130 -72 54 0 215 26 178 28 -27 1 -26 0 -57 191 -37 226
-50 329 -43 336 3 4 27 -1 53 -10 68 -23 85 -20 145 19 29 20 56 32 60 28 4
-4 23 -107 42 -228 48 -304 47 -293 34 -299 -7 -4 2 -4 18 -2 17 3 85 13 153
23 114 16 123 19 118 38 -24 98 -86 525 -76 525 4 0 27 -7 50 -15 67 -24 101
-19 153 20 25 19 48 35 51 35 10 0 86 -446 86 -506 0 -14 6 -27 13 -29 6 -2
76 6 154 18 101 16 138 25 128 32 -9 7 -26 85 -49 240 -40 260 -46 295 -43
295 1 0 30 -9 65 -20 70 -22 86 -19 157 30 l44 30 10 -53 c14 -68 58 -347 67
-427 l7 -62 -70 7 c-64 6 -75 4 -119 -19 -27 -14 -41 -26 -30 -26 46 0 382 62
408 76 41 21 68 70 67 124 0 77 -44 316 -63 345 -39 59 -89 72 -206 54z M7113
2790 c-52 -31 -65 -63 -90 -209 -28 -171 -29 -217 -3 -259 28 -46 63 -58 263
-92 179 -30 227 -35 197 -22 -8 4 -27 15 -43 26 -23 16 -38 17 -102 11 l-75
-7 0 28 c0 34 69 470 79 495 6 18 9 17 48 -11 62 -46 89 -51 158 -29 33 10 60
17 61 16 7 -9 -77 -520 -87 -532 -10 -10 268 -58 282 -50 3 3 9 30 12 61 10
95 69 450 77 464 5 8 21 2 57 -24 56 -40 87 -44 153 -21 23 8 44 15 46 15 10
0 1 -83 -31 -285 -20 -121 -37 -229 -38 -239 -2 -17 11 -21 108 -37 61 -10
124 -20 140 -23 30 -6 31 -5 33 31 3 47 71 479 79 499 7 18 18 16 -287 64
-146 22 -362 57 -480 76 -277 45 -475 74 -503 74 -12 0 -36 -9 -54 -20z M8480
2580 c68 -57 79 -58 203 -23 13 4 17 -1 17 -23 0 -31 -66 -457 -76 -486 -3
-10 -15 -18 -27 -19 -37 -2 125 -27 178 -28 61 -1 105 23 127 70 18 37 58 275
58 340 0 49 -20 90 -56 114 -23 15 -393 86 -444 85 -9 0 -2 -12 20 -30z M3790
2215 c-22 -102 -15 -230 20 -368 125 -491 189 -673 256 -726 26 -21 64 -28 64
-13 0 4 -21 68 -45 142 -63 187 -146 480 -219 775 l-63 250 -13 -60z M6798
2016 c-63 -257 -165 -616 -227 -799 -38 -114 -39 -118 -18 -111 77 24 112 96
202 406 133 463 149 548 125 672 -7 36 -15 66 -19 66 -3 0 -32 -105 -63 -234z
M2716 2162 c-10 -2 -39 -15 -65 -29 l-46 -25 50 8 c28 3 81 12 119 18 l69 11
-55 10 c-29 6 -62 9 -72 7z M7865 2156 l-49 -12 84 -12 c47 -7 101 -15 120
-18 31 -5 28 -2 -25 25 -33 17 -64 30 -70 30 -5 -1 -32 -7 -60 -13z M2135
2064 c-71 -36 -52 -42 70 -20 l70 12 -34 12 c-45 16 -70 15 -106 -4z M8415
2066 c-28 -12 -26 -13 58 -25 49 -7 91 -11 94 -8 10 11 -62 47 -92 47 -16 -1
-43 -7 -60 -14z M8872 1847 c-24 -66 -15 -125 34 -232 82 -177 105 -238 140
-370 l34 -130 0 -317 c0 -311 0 -318 -20 -318 -11 0 -20 -7 -20 -15 0 -13
-156 -15 -1345 -15 -962 0 -1358 -3 -1392 -11 -69 -17 -119 -38 -171 -76 l-47
-33 1568 0 1569 0 -5 368 c-4 389 -11 453 -60 632 -29 105 -88 253 -135 340
-30 54 -130 210 -136 210 -1 0 -7 -15 -14 -33z M1726 1814 c-124 -180 -218
-414 -263 -659 -11 -57 -16 -187 -20 -452 l-5 -373 1568 0 1569 1 -29 22 c-15
12 -56 39 -90 60 l-61 38 -1358 -3 c-1287 -3 -1357 -2 -1357 15 0 14 -9 17
-45 17 l-45 0 0 345 c0 275 3 362 16 423 18 88 65 211 135 355 26 54 51 117
54 141 7 42 -9 126 -23 126 -4 0 -24 -25 -46 -56z M4635 1462 c-152 -133 -425
-421 -425 -448 0 -15 6 -24 16 -24 20 0 299 186 447 298 55 41 57 44 42 65
-19 27 -19 92 0 146 8 22 13 41 12 41 -2 0 -43 -35 -92 -78z M5955 1489 c20
-55 19 -109 -2 -138 -16 -24 -16 -25 17 -52 42 -36 290 -201 399 -268 154 -93
149 -67 -22 119 -124 135 -381 380 -398 380 -5 0 -2 -19 6 -41z"/>
</g>
</svg>
