<?xml version="1.0" standalone="no"?>
<!DOCTYPE svg PUBLIC "-//W3C//DTD SVG 20010904//EN"
 "http://www.w3.org/TR/2001/REC-SVG-20010904/DTD/svg10.dtd">
<svg version="1.0" xmlns="http://www.w3.org/2000/svg"
 width="2048.000000pt" height="2048.000000pt" viewBox="0 0 2048.000000 2048.000000"
 preserveAspectRatio="xMidYMid meet">
<metadata>
Created by potrace 1.13, written by Peter Selinger 2001-2015
</metadata>
<g transform="translate(0.000000,2048.000000) scale(0.192120,-0.192120)"
fill="#000000" stroke="none">
<path d="M5090 10315 c-489 -64 -1007 -276 -1404 -575 -326 -244 -538 -502
-732 -890 -126 -252 -208 -468 -358 -953 -121 -387 -178 -522 -240 -562 -13
-9 -84 -31 -157 -49 -398 -99 -648 -275 -731 -513 -20 -59 -23 -87 -23 -213 0
-109 5 -164 19 -220 78 -308 297 -579 676 -835 60 -41 115 -75 120 -75 6 0 10
-58 10 -147 1 -617 45 -1291 110 -1653 64 -354 168 -619 283 -716 32 -27 108
-66 115 -59 2 2 -3 26 -12 53 -9 27 -25 98 -36 158 -10 60 -32 147 -49 194
-131 360 -193 877 -208 1713 -3 202 -10 367 -15 367 -4 0 -8 5 -8 10 0 31 -98
90 -150 90 -13 0 -22 9 -26 26 -12 49 4 782 21 934 20 180 48 352 82 494 l25
109 287 -6 c356 -8 606 -30 1233 -106 621 -76 839 -97 1158 -111 417 -18 841
8 1535 95 735 92 956 112 1342 122 l262 6 10 -26 c19 -49 80 -371 95 -502 32
-270 49 -844 30 -1002 -6 -47 -9 -53 -30 -53 -29 0 -104 -29 -122 -47 -7 -7
-18 -13 -23 -13 -5 0 -9 -7 -9 -15 0 -8 -4 -15 -9 -15 -4 0 -11 -222 -15 -492
-8 -581 -21 -957 -41 -1158 -8 -80 -15 -166 -15 -192 0 -26 -4 -67 -9 -90 -6
-24 -15 -67 -22 -97 -6 -30 -31 -95 -54 -145 -23 -50 -48 -109 -55 -131 -7
-22 -26 -71 -41 -108 l-28 -68 37 7 c105 19 204 99 260 210 125 248 164 662
176 1872 l5 464 101 63 c407 259 655 553 736 875 14 57 19 110 19 220 -1 125
-4 154 -24 210 -86 242 -330 416 -727 516 -74 18 -143 38 -154 44 -57 31 -110
142 -201 425 -227 705 -273 832 -405 1094 -171 343 -366 594 -629 812 -285
236 -600 406 -992 535 -348 115 -700 158 -993 119z m-99 -147 c60 -21 82 -22
334 -23 254 0 274 1 343 23 l72 23 49 -26 c141 -77 424 -335 575 -525 165
-208 298 -444 337 -598 19 -75 19 -106 17 -673 l-3 -594 -33 -67 c-37 -76 -92
-129 -151 -146 -55 -17 -2347 -17 -2402 0 -59 17 -114 70 -151 146 l-33 67 -3
594 c-2 570 -2 598 18 675 38 153 171 387 336 596 88 110 328 349 424 422 73
55 187 128 201 128 3 0 35 -10 70 -22z m1632 -509 c56 -29 242 -160 332 -234
346 -284 559 -635 773 -1270 33 -99 98 -295 143 -435 57 -177 98 -287 135
-359 56 -107 61 -125 44 -136 -6 -4 -104 -11 -218 -16 -265 -12 -492 -31 -867
-74 -294 -33 -367 -40 -750 -70 -104 -8 -242 -20 -305 -25 -229 -21 -578 -29
-814 -20 -270 11 -464 27 -876 74 -162 19 -353 37 -425 40 -71 4 -240 18 -375
31 -275 28 -518 45 -660 46 -178 2 -182 8 -108 166 31 65 86 213 123 328 196
615 256 779 376 1018 150 301 326 523 574 722 161 130 345 242 345 210 0 -12
-46 -104 -76 -150 -49 -77 -151 -293 -174 -365 -19 -62 -20 -92 -20 -738 l0
-673 34 -73 c64 -139 155 -235 266 -282 43 -18 91 -19 1190 -22 829 -2 1161 0
1205 8 121 24 220 101 286 223 72 131 67 81 68 821 l1 669 -31 91 c-31 88
-108 252 -153 325 -42 68 -86 152 -86 167 0 17 14 18 43 3z m1828 -2564 c231
-40 452 -139 559 -250 l35 -36 -85 40 c-144 67 -353 117 -575 136 -121 10
-118 9 -112 62 3 25 11 49 18 54 20 13 65 11 160 -6z m-6120 -5 c14 -8 19 -21
19 -54 l0 -43 -75 -7 c-231 -21 -439 -72 -579 -141 l-89 -43 39 39 c50 52 153
120 237 158 162 73 394 120 448 91z m6312 -344 c92 -19 199 -59 245 -93 l32
-24 0 -149 c0 -174 -10 -211 -91 -337 -86 -133 -229 -263 -229 -209 0 8 -6 21
-14 28 -9 9 -15 56 -20 143 -7 142 -32 406 -46 497 -5 31 -6 82 -3 112 5 50 8
55 27 51 11 -2 56 -11 99 -19z m-6553 -88 c0 -57 -7 -166 -14 -243 -8 -77 -18
-202 -22 -277 -6 -122 -9 -137 -25 -141 -11 -3 -19 -14 -19 -26 0 -32 -13 -26
-77 37 -69 66 -131 155 -176 250 -32 66 -32 69 -32 217 l0 150 47 32 c60 39
227 96 306 102 9 1 12 -26 12 -101z M3668 6800 c-183 -62 -336 -159 -474 -301
-116 -120 -192 -251 -239 -414 -24 -85 -25 -95 -25 -394 0 -345 5 -389 71
-661 31 -126 113 -367 170 -499 61 -139 171 -353 226 -436 22 -33 56 -85 76
-115 56 -85 165 -218 237 -288 67 -65 234 -183 322 -228 83 -42 181 -109 223
-153 21 -22 43 -41 47 -41 4 0 8 27 8 59 l0 60 -77 52 c-525 352 -908 925
-1089 1629 -102 397 -129 781 -70 983 62 211 135 303 421 537 208 170 272 226
265 234 -3 2 -45 -8 -92 -24z M6630 6769 c501 -155 807 -411 919 -769 48 -153
51 -248 16 -515 -108 -826 -504 -1557 -1070 -1974 -49 -37 -102 -75 -117 -84
-26 -16 -28 -23 -28 -77 l0 -60 64 52 c35 29 122 88 193 130 229 136 335 229
478 423 249 333 432 732 541 1170 63 258 76 357 81 618 5 233 4 239 -22 329
-65 227 -203 430 -388 572 -152 116 -364 182 -652 200 l-80 6 65 -21z M4335
6061 c-69 -17 -125 -62 -161 -131 -17 -30 -19 -59 -19 -215 0 -196 4 -214 64
-278 110 -119 309 -89 377 56 22 49 24 63 24 223 0 163 -1 172 -26 222 -30 61
-74 98 -140 118 -51 15 -72 16 -119 5z M6210 6061 c-69 -21 -122 -65 -156
-131 -15 -28 -19 -63 -22 -185 -5 -201 4 -243 72 -310 36 -36 65 -55 99 -64
100 -28 206 14 262 103 30 49 30 49 33 224 3 144 0 183 -13 218 -41 107 -172
176 -275 145z M5013 4876 c-35 -32 -37 -38 -38 -93 0 -34 6 -72 15 -87 29 -55
47 -58 341 -57 176 0 276 4 289 11 76 41 80 194 8 244 -19 14 -65 16 -300 16
l-278 0 -37 -34z M4664 4341 c-79 -36 -125 -132 -103 -213 16 -61 42 -92 122
-149 93 -66 149 -94 257 -129 358 -117 788 -53 1044 155 62 51 88 100 88 165
0 100 -75 180 -175 187 -57 5 -86 -8 -190 -80 -108 -75 -272 -114 -442 -103
-156 9 -301 58 -379 127 -69 60 -147 74 -222 40z M3682 3397 c-40 -19 -62 -77
-62 -162 0 -71 1 -75 23 -75 20 1 77 41 77 55 0 3 14 19 30 35 39 38 77 39
193 5 203 -58 425 -225 489 -365 84 -183 98 -209 132 -229 18 -12 50 -21 70
-21 45 0 42 7 105 -232 80 -301 181 -476 481 -836 l85 -103 44 48 c148 159
348 437 423 588 53 105 62 130 117 335 l47 175 58 12 c81 16 115 51 161 167
65 165 141 256 294 355 88 56 163 91 246 112 104 28 128 25 175 -17 22 -20 40
-41 40 -48 0 -15 65 -56 90 -56 18 0 20 7 20 63 0 85 -16 135 -55 174 -31 31
-37 33 -104 33 -193 0 -485 -107 -668 -244 -107 -81 -174 -207 -230 -436 l-27
-110 -41 -11 c-81 -22 -172 -38 -274 -48 -133 -14 -444 -14 -590 0 -123 11
-340 61 -352 80 -4 7 -10 30 -13 53 -10 65 -65 235 -96 296 -57 113 -129 184
-240 241 -25 13 -47 26 -51 31 -11 16 -209 91 -317 119 -120 31 -236 38 -280
16z m1886 -1155 c9 -65 -183 -363 -248 -384 -35 -12 -87 36 -171 157 -76 108
-128 223 -113 247 3 4 123 7 267 6 l262 -3 3 -23z M4370 3345 c0 -2 45 -36 99
-75 108 -77 157 -126 167 -166 11 -45 162 -107 358 -146 95 -19 143 -23 331
-22 230 0 331 11 477 55 121 36 155 55 162 92 10 51 60 102 175 179 142 95
143 97 16 37 -197 -92 -409 -154 -618 -180 -145 -17 -443 -7 -582 21 -143 28
-343 95 -478 158 -59 28 -107 49 -107 47z M3043 3100 c-48 -11 -118 -56 -152
-97 -64 -78 -61 1 -61 -1400 l0 -1273 2500 0 2500 0 0 1273 c0 1413 4 1323
-67 1406 -19 23 -58 54 -87 69 -51 27 -52 27 -261 27 -200 0 -212 -1 -257 -23
-26 -13 -65 -44 -87 -68 -76 -86 -71 8 -71 -1391 0 -804 -3 -1253 -10 -1253
-5 0 -51 27 -102 61 -51 33 -105 63 -120 66 -15 3 -28 9 -28 14 0 5 -615 9
-1420 9 -781 0 -1420 -4 -1420 -8 0 -4 -15 -13 -32 -20 -18 -7 -71 -39 -118
-73 l-85 -61 -5 1274 -5 1273 -23 47 c-31 63 -102 124 -165 143 -54 16 -362
20 -424 5z m330 -276 l27 -6 0 -1104 0 -1104 -149 0 -148 0 -7 40 c-3 22 -11
40 -17 40 -16 0 -8 2105 9 2122 24 24 188 31 285 12z m4180 -6 c16 -8 17 -69
17 -1068 0 -692 -3 -1060 -10 -1060 -5 0 -13 -18 -16 -40 l-7 -40 -148 0 -149
0 0 1099 c0 833 3 1102 12 1107 35 22 259 23 301 2z M2750 2635 c-63 -22 -223
-106 -310 -163 -125 -80 -194 -136 -294 -231 -203 -197 -323 -396 -392 -652
l-28 -104 -4 -578 -3 -577 538 0 538 0 -48 34 c-73 52 -134 112 -140 138 -4
15 1 38 13 60 l19 36 -37 6 c-20 3 -213 6 -429 6 l-391 0 14 47 c18 58 18 117
0 175 l-13 46 51 6 c28 3 219 6 424 6 204 0 372 4 372 8 0 5 -20 18 -44 30
-41 21 -56 22 -310 22 -146 0 -266 4 -266 9 0 5 -25 11 -55 13 -51 4 -58 8
-102 56 -27 29 -58 70 -71 92 l-23 40 438 1 c241 0 461 4 488 8 l50 7 -51 49
c-66 64 -80 75 -99 75 -8 0 -15 5 -15 10 0 6 -93 10 -260 10 -222 0 -261 2
-266 15 -4 8 -18 15 -33 15 -51 0 -54 8 -49 126 4 91 9 121 33 179 97 237 263
437 503 606 40 28 72 54 72 58 0 5 16 26 36 47 67 73 195 268 182 279 -2 1
-19 -3 -38 -10z M7870 2644 c0 -37 153 -251 219 -308 14 -12 43 -38 65 -58 23
-21 86 -73 141 -116 204 -161 346 -368 407 -596 26 -101 23 -216 -7 -216 -7 0
-15 -7 -19 -15 -5 -13 -43 -15 -261 -15 -163 0 -255 -4 -255 -10 0 -5 -20 -10
-45 -10 -25 0 -45 -4 -45 -8 0 -4 -15 -14 -34 -20 -19 -7 -51 -32 -72 -55
l-39 -42 50 -7 c28 -3 247 -7 488 -7 l439 -1 -23 -37 c-21 -35 -38 -59 -86
-120 -10 -13 -33 -26 -50 -29 -18 -3 -33 -10 -33 -14 0 -4 -134 -10 -297 -12
-292 -5 -299 -5 -343 -29 l-45 -24 427 -5 c234 -3 429 -7 432 -10 3 -3 -2 -34
-11 -69 -14 -56 -14 -70 -1 -132 l15 -69 -381 0 c-210 0 -405 -3 -434 -7 l-53
-6 23 -24 c24 -26 29 -94 7 -102 -7 -2 -31 -20 -53 -40 -23 -21 -61 -51 -85
-69 l-45 -32 537 0 537 0 0 140 c0 118 2 140 15 140 21 0 22 265 1 273 -11 5
-15 60 -18 304 -5 328 -13 376 -87 569 -103 266 -357 551 -654 733 -119 72
-327 171 -327 155z"/>
</g>
</svg>
