<?xml version="1.0" standalone="no"?>
<!DOCTYPE svg PUBLIC "-//W3C//DTD SVG 20010904//EN"
 "http://www.w3.org/TR/2001/REC-SVG-20010904/DTD/svg10.dtd">
<svg version="1.0" xmlns="http://www.w3.org/2000/svg"
 width="2048.000000pt" height="2048.000000pt" viewBox="0 0 2048.000000 2048.000000"
 preserveAspectRatio="xMidYMid meet">
<metadata>
Created by potrace 1.13, written by Peter Selinger 2001-2015
</metadata>
<g transform="translate(0.000000,2048.000000) scale(0.192120,-0.192120)"
fill="#000000" stroke="none">
<path d="M4020 10044 c-884 -109 -1645 -628 -2141 -1461 -402 -676 -611 -1485
-585 -2264 l7 -196 -43 -12 c-137 -40 -273 -194 -341 -386 -49 -137 -62 -226
-61 -420 0 -147 4 -201 23 -295 88 -443 313 -806 601 -968 88 -50 138 -64 244
-71 l100 -6 18 -84 18 -85 -28 -34 c-282 -351 -476 -713 -621 -1155 -134 -410
-196 -777 -196 -1167 0 -251 14 -363 57 -461 41 -96 88 -111 219 -68 127 42
413 191 526 275 41 31 43 30 43 -7 0 -83 52 -239 91 -275 98 -88 645 201 1172
619 l88 70 27 -21 c15 -12 72 -52 127 -90 439 -302 930 -488 1496 -567 157
-22 598 -31 781 -16 578 49 1123 234 1588 538 63 42 132 89 152 105 l38 29
122 -94 c420 -321 889 -575 1099 -594 54 -5 56 -5 85 31 31 37 58 108 69 181
14 94 4 91 108 28 198 -121 457 -230 569 -240 52 -5 59 -3 82 22 121 130 136
645 35 1165 -122 625 -399 1236 -746 1642 l-49 58 21 97 22 98 79 2 c163 5
311 78 459 227 196 196 333 469 402 795 23 108 26 151 27 306 1 197 -13 296
-60 428 -69 192 -205 348 -339 387 l-41 12 0 311 c-1 410 -29 655 -116 1002
-313 1249 -1078 2163 -2088 2495 -310 102 -675 145 -886 105 -272 -52 -579
-218 -867 -469 l-77 -68 -68 61 c-249 220 -544 391 -790 458 -82 22 -121 26
-257 28 -88 2 -176 1 -195 -1z m375 -273 c200 -41 380 -135 695 -362 125 -89
174 -113 240 -113 70 0 117 24 271 137 153 112 242 169 358 227 212 106 342
135 571 127 321 -11 598 -85 925 -247 475 -235 862 -600 1154 -1088 249 -415
419 -902 507 -1452 18 -113 35 -599 37 -1090 l1 -265 -36 -155 c-81 -350 -105
-360 -203 -91 -203 557 -413 911 -716 1208 -178 174 -346 295 -533 384 -212
99 -388 143 -641 159 -509 32 -685 69 -926 197 -239 126 -410 306 -582 613
-69 123 -134 190 -185 190 -31 0 -92 -32 -124 -67 -14 -15 -58 -79 -98 -142
-238 -379 -470 -570 -837 -690 -165 -54 -322 -79 -568 -91 -298 -15 -441 -40
-635 -112 -364 -134 -732 -449 -969 -830 -163 -261 -289 -540 -390 -863 -35
-111 -52 -141 -76 -131 -35 13 -84 161 -130 398 -24 127 -26 151 -22 340 2
112 9 226 15 253 6 28 11 168 11 320 1 283 6 346 46 588 77 456 259 952 488
1329 338 555 800 956 1356 1178 343 136 744 193 996 141z m945 -1680 c0 -35
61 -195 111 -290 153 -294 405 -526 711 -657 211 -90 416 -131 734 -144 278
-12 415 -35 587 -97 563 -202 1034 -757 1295 -1524 96 -282 158 -608 162 -849
l1 -35 15 28 c28 51 121 300 173 461 94 292 161 589 201 896 30 234 27 225 57
165 14 -27 52 -99 84 -158 33 -59 76 -149 97 -200 l37 -92 3 -283 c3 -277 2
-285 -23 -379 -106 -400 -330 -690 -593 -769 -133 -39 -176 -62 -242 -127 -75
-74 -100 -123 -100 -193 0 -48 4 -57 38 -91 21 -21 49 -45 61 -53 l23 -15 -22
-85 c-115 -450 -362 -961 -650 -1345 -166 -221 -416 -483 -576 -603 l-69 -51
-28 27 c-23 22 -37 27 -80 27 -45 0 -78 -13 -247 -94 -596 -286 -903 -384
-1395 -443 -131 -16 -621 -16 -750 0 -411 50 -752 146 -1132 318 -150 68 -219
101 -426 207 -31 17 -79 32 -105 35 -41 3 -52 0 -79 -22 -17 -14 -35 -26 -40
-26 -20 0 -203 162 -324 286 -369 380 -649 837 -842 1374 -56 156 -133 420
-124 425 89 51 117 85 117 144 0 58 -32 120 -93 180 -71 70 -82 77 -185 110
-142 46 -206 85 -307 186 -170 169 -286 389 -341 648 -10 49 -14 139 -14 324
0 273 5 313 55 429 27 62 37 81 106 209 23 44 51 96 60 115 17 34 17 35 23 10
3 -14 14 -99 26 -189 50 -398 154 -802 306 -1193 83 -214 80 -212 88 -72 20
348 116 741 266 1090 273 638 719 1084 1228 1229 141 40 253 55 487 65 471 19
773 114 1075 334 106 78 269 248 348 364 70 102 165 290 184 364 12 48 28 65
28 29z m-3495 -4795 c9 -13 38 -79 64 -147 153 -391 321 -698 556 -1015 93
-126 186 -234 322 -375 121 -125 120 -126 -91 -276 -223 -158 -508 -313 -574
-313 -30 0 -47 12 -127 88 -166 159 -176 159 -480 6 -174 -87 -240 -109 -256
-83 -5 8 -9 170 -9 361 0 301 3 361 20 465 27 158 82 380 132 533 101 311 283
682 369 755 38 31 54 32 74 1z m7042 -18 c51 -56 171 -278 253 -467 103 -239
191 -530 240 -798 18 -93 20 -152 20 -463 0 -420 3 -404 -84 -377 -31 10 -129
52 -218 94 -197 92 -253 102 -320 58 -24 -16 -76 -58 -117 -94 -71 -64 -76
-66 -125 -65 -63 2 -155 40 -330 136 -251 138 -446 280 -446 323 0 15 39 61
161 190 119 125 249 286 364 452 129 185 324 553 424 798 66 162 92 218 105
227 21 14 53 8 73 -14z M3607 5879 c-89 -22 -160 -79 -196 -159 -19 -42 -21
-65 -21 -390 0 -342 0 -345 24 -395 85 -180 331 -214 460 -63 63 73 66 94 66
458 0 364 -3 385 -66 458 -61 72 -180 113 -267 91z M6928 5876 c-92 -25 -162
-90 -193 -175 -22 -64 -22 -677 1 -743 77 -229 406 -243 510 -23 24 50 24 53
24 395 0 342 0 345 -24 395 -56 119 -196 185 -318 151z M4979 4487 c-53 -15
-94 -43 -138 -92 -45 -52 -63 -101 -63 -175 -1 -111 52 -199 150 -247 l57 -28
350 0 350 0 53 29 c95 53 145 138 145 246 0 82 -28 143 -89 200 -82 75 -79 75
-444 77 -237 2 -337 -1 -371 -10z m640 -236 c32 -18 24 -52 -19 -74 -31 -16
-62 -17 -280 -15 -262 3 -302 10 -308 54 -4 26 28 42 93 48 107 8 491 -1 514
-13z M4163 3380 c-92 -19 -168 -85 -202 -174 -41 -110 -19 -209 63 -292 50
-49 61 -55 182 -93 220 -69 480 -122 744 -153 173 -19 620 -16 800 6 391 47
781 147 868 222 65 55 96 124 96 209 0 84 -23 144 -79 200 -87 87 -177 98
-356 43 -606 -188 -1263 -189 -1889 -3 -139 41 -172 46 -227 35z m298 -310
c144 -37 326 -73 429 -86 25 -3 56 -8 70 -10 172 -25 568 -25 740 0 14 2 45 7
70 10 103 13 285 49 429 86 156 40 205 47 215 31 8 -13 -4 -42 -15 -35 -5 3
-9 1 -9 -4 0 -11 -103 -42 -250 -76 -472 -109 -1010 -118 -1500 -25 -189 36
-373 88 -392 110 -43 51 12 51 213 -1z"/>
</g>
</svg>
