<?xml version="1.0" standalone="no"?>
<!DOCTYPE svg PUBLIC "-//W3C//DTD SVG 20010904//EN"
 "http://www.w3.org/TR/2001/REC-SVG-20010904/DTD/svg10.dtd">
<svg version="1.0" xmlns="http://www.w3.org/2000/svg"
 width="2048.000000pt" height="2048.000000pt" viewBox="0 0 2048.000000 2048.000000"
 preserveAspectRatio="xMidYMid meet">
<metadata>
Created by potrace 1.13, written by Peter Selinger 2001-2015
</metadata>
<g transform="translate(0.000000,2048.000000) scale(0.192120,-0.192120)"
fill="#000000" stroke="none">
<path d="M7143 10051 c-145 -77 -296 -186 -428 -311 l-50 -47 -155 -12 c-835
-66 -1716 -335 -2416 -736 -339 -195 -617 -422 -685 -561 -28 -57 -30 -65 -19
-105 7 -24 26 -57 45 -76 l33 -33 107 0 c58 0 115 -5 125 -10 20 -11 35 -55
45 -132 12 -96 116 -199 202 -202 l38 -1 0 115 c0 158 -19 206 -131 336 -52
60 -84 106 -84 120 0 25 34 55 168 148 45 32 82 63 82 71 0 37 510 305 806
424 518 207 1005 327 1599 395 236 27 284 41 391 113 38 26 97 63 132 84 56
33 67 36 98 27 19 -5 60 -32 90 -61 122 -113 170 -132 464 -176 451 -69 743
-153 1045 -302 152 -75 303 -172 321 -206 5 -12 35 -42 65 -67 77 -63 157
-160 190 -231 29 -60 29 -60 29 -260 l-1 -200 -27 -37 c-15 -20 -64 -80 -109
-133 -103 -122 -133 -194 -141 -337 l-5 -97 27 -7 c102 -25 205 83 237 249 8
38 18 61 28 64 140 43 230 152 262 317 20 108 2 325 -37 443 -141 428 -689
792 -1454 968 -247 57 -471 89 -699 101 -73 4 -128 11 -124 15 19 18 153 88
218 114 86 33 105 50 105 88 0 63 -140 156 -264 175 -52 8 -59 7 -123 -27z
M4435 7844 c-215 -12 -450 -36 -457 -47 -12 -19 -56 -215 -67 -300 -20 -145
-24 -301 -12 -477 11 -160 37 -349 59 -425 8 -27 4 -35 -44 -88 -125 -135
-190 -318 -201 -562 -12 -277 75 -532 230 -676 35 -33 118 -79 141 -79 17 0
18 -4 41 -145 20 -125 63 -298 110 -444 176 -543 524 -1047 932 -1349 l63 -47
0 -56 0 -57 93 -32 c252 -89 566 -232 809 -366 l120 -67 217 6 c119 3 261 13
316 21 276 44 504 143 710 308 l84 68 -13 -43 c-8 -23 -33 -91 -56 -152 -35
-89 -44 -126 -48 -196 -4 -77 -2 -92 19 -135 32 -63 132 -164 194 -195 l50
-24 555 -6 c519 -5 562 -7 663 -28 255 -52 462 -145 642 -289 208 -167 355
-374 436 -617 l34 -100 3 -333 3 -332 -965 0 c-944 0 -966 0 -985 19 -30 30
-45 65 -86 196 -155 499 -462 970 -897 1377 -159 148 -242 210 -353 263 -85
40 -433 161 -441 152 -2 -2 42 -35 98 -73 257 -174 458 -335 647 -519 446
-434 748 -938 845 -1410 16 -80 29 -185 23 -185 -2 0 -39 20 -83 45 -43 25
-97 51 -119 58 -31 9 -556 12 -2365 12 l-2325 0 -115 -32 c-181 -51 -277 -64
-455 -65 -177 0 -291 14 -497 62 -73 17 -180 35 -238 41 -181 17 -226 40 -305
159 -25 38 -60 79 -76 91 -31 22 -201 100 -206 95 -14 -14 122 -320 206 -465
l42 -71 4459 0 4460 0 0 323 c0 417 -14 537 -86 757 -185 565 -663 986 -1261
1112 -104 22 -129 23 -721 26 l-612 3 2 326 3 327 80 60 c117 89 358 334 457
466 237 315 409 671 508 1051 21 85 48 206 58 270 11 64 22 121 25 126 4 6 19
14 34 18 45 11 120 63 161 113 89 107 142 225 174 386 26 131 21 346 -12 476
-27 110 -97 253 -154 317 -46 51 -46 51 -37 99 22 116 35 327 35 564 1 277
-11 395 -42 404 -38 11 -266 46 -397 60 -220 24 -328 33 -1015 81 -355 25
-881 63 -1170 85 -289 22 -604 45 -700 50 -174 11 -1091 21 -1225 14z m745
-304 c342 -273 617 -416 757 -395 89 13 131 90 119 218 l-6 68 146 -136 c318
-295 494 -410 562 -367 52 34 22 191 -79 411 -22 46 -38 85 -37 87 2 1 32 -20
68 -47 108 -83 294 -163 497 -214 232 -58 687 -115 922 -115 l76 0 214 -420
c233 -459 260 -500 327 -500 65 0 117 78 165 250 l26 95 14 -75 c7 -41 13
-115 13 -165 1 -101 -20 -410 -28 -423 -3 -5 -10 -37 -15 -71 -14 -86 -63
-178 -141 -268 -180 -207 -210 -258 -250 -428 -17 -71 -50 -186 -75 -255 -24
-69 -64 -190 -89 -269 -111 -348 -253 -560 -611 -911 -158 -154 -237 -245
-270 -310 -21 -41 -25 -63 -25 -133 l0 -84 -107 -55 c-346 -179 -787 -256
-1151 -202 -102 15 -107 17 -161 63 -69 59 -127 98 -211 141 -36 19 -76 42
-90 51 -14 9 -76 43 -138 74 -130 66 -127 64 -249 210 -50 61 -158 174 -239
250 -252 239 -396 441 -535 750 -94 211 -144 367 -223 708 -31 131 -67 191
-212 347 -98 106 -148 186 -160 260 -3 19 -12 62 -20 96 -18 76 -20 545 -3
660 l12 77 23 -62 c60 -158 143 -271 200 -271 60 0 69 16 113 200 91 386 259
721 506 1010 85 100 244 242 260 232 6 -4 53 -41 105 -82z m-533 24 c8 -20
-24 -82 -83 -159 -86 -114 -152 -221 -224 -360 -39 -76 -80 -151 -90 -165 -21
-30 -45 -34 -57 -11 -9 19 -17 582 -9 626 11 59 25 67 122 75 49 4 144 8 212
9 104 1 124 -1 129 -15z m1281 -19 c24 -9 12 -53 -24 -89 -48 -48 -89 -55
-159 -26 -110 44 -183 123 -122 132 27 4 287 -11 305 -17z m590 -47 c37 -11
39 -23 15 -69 -46 -86 -76 -86 -163 -2 -60 59 -63 64 -45 76 20 16 136 13 193
-5z m752 -73 c0 -2 -7 -5 -15 -9 -9 -3 -15 0 -15 9 0 9 6 12 15 9 8 -4 15 -7
15 -9z m485 -10 c554 -40 804 -62 898 -81 l27 -6 0 -306 c-1 -342 -5 -370 -51
-334 -13 11 -66 101 -118 201 -84 161 -103 190 -168 256 -112 115 -147 128
-383 145 -155 12 -325 32 -410 49 -25 5 -83 16 -130 26 -47 9 -89 21 -94 26
-6 5 -18 9 -28 9 -11 0 -18 7 -18 19 0 16 8 19 63 20 34 0 220 -10 412 -24z
M5234 6424 c-58 -21 -120 -77 -152 -138 -27 -51 -27 -52 -27 -261 0 -178 3
-216 18 -247 24 -53 72 -104 126 -136 40 -24 57 -27 131 -27 74 0 91 3 131 27
54 32 102 83 126 136 15 31 18 69 18 247 0 209 0 210 -27 261 -66 126 -213
185 -344 138z m114 -406 c-3 -119 -5 -143 -18 -143 -13 0 -15 24 -18 143 -2
138 -2 142 18 142 20 0 20 -4 18 -142z M7464 6428 c-60 -20 -127 -80 -159
-143 l-30 -59 0 -200 c0 -200 0 -201 28 -258 50 -102 142 -158 256 -158 107 1
213 76 251 178 17 46 20 78 20 236 0 211 -8 249 -72 321 -56 63 -107 87 -193
91 -38 2 -84 -2 -101 -8z m106 -408 c0 -133 -1 -140 -20 -140 -19 0 -20 7 -20
140 0 133 1 140 20 140 19 0 20 -7 20 -140z M6167 5250 c-69 -21 -126 -90
-141 -170 -10 -59 17 -131 68 -178 63 -58 105 -65 381 -60 l230 3 47 28 c113
66 138 211 55 312 -57 70 -79 75 -362 74 -137 0 -263 -5 -278 -9z M5570 4490
c-115 -11 -460 -88 -505 -113 -104 -57 -108 -206 -7 -271 67 -44 90 -43 298
20 104 31 195 59 201 61 9 3 6 -10 -7 -38 -24 -55 -25 -93 -1 -144 22 -48 44
-69 94 -90 70 -29 103 -21 270 65 85 44 160 80 166 80 6 0 11 -11 11 -24 0
-60 94 -136 169 -136 49 0 118 36 145 77 22 32 25 33 31 14 20 -65 86 -101
161 -87 47 9 111 68 126 117 6 21 13 39 14 39 2 0 76 -36 165 -80 119 -59 171
-80 200 -80 129 0 214 127 164 247 -8 20 -14 38 -12 40 2 1 28 -5 58 -15 30
-11 119 -38 199 -61 132 -39 150 -42 188 -32 146 40 179 213 56 296 -21 14
-110 39 -255 70 l-224 49 -815 2 c-448 1 -849 -2 -890 -6z m241 -250 c17 0 9
-39 -11 -50 -26 -14 -40 -5 -40 24 0 28 9 38 28 31 7 -3 18 -5 23 -5z m791 -9
c11 -10 8 -16 -11 -32 -26 -21 -92 -26 -136 -9 -18 7 -44 5 -91 -6 -91 -21
-154 -6 -154 36 0 10 6 20 13 23 6 3 92 4 189 3 130 -1 181 -5 190 -15z m428
-17 c0 -20 -4 -25 -16 -20 -9 3 -18 6 -20 6 -2 0 -4 9 -4 20 0 13 7 20 20 20
15 0 20 -7 20 -26z M3340 3353 c-583 -44 -1105 -205 -1485 -458 -124 -82 -210
-154 -198 -165 18 -16 110 -40 154 -40 37 0 66 10 126 41 241 128 470 239 560
271 176 65 454 109 868 139 439 32 1059 -32 1448 -149 96 -28 140 -36 204 -36
72 -1 84 2 107 23 25 24 60 107 50 122 -12 20 -336 111 -564 158 -347 71 -655
102 -995 99 -126 -1 -250 -3 -275 -5z M4749 2906 c-3 -3 -36 -10 -75 -15 -105
-15 -164 -36 -233 -82 -73 -50 -128 -113 -165 -188 -24 -50 -26 -66 -26 -177
0 -68 5 -136 11 -151 33 -83 70 -143 119 -196 286 -313 920 -298 1073 25 25
53 27 66 27 188 0 128 -1 133 -34 203 -54 114 -142 201 -308 305 -36 22 -79
44 -95 48 -15 4 -37 13 -48 20 -20 13 -236 30 -246 20z m169 -72 c386 -79 627
-415 493 -688 -76 -156 -247 -245 -467 -246 -261 0 -518 148 -622 359 -36 72
-37 79 -37 180 0 92 3 113 24 154 97 195 348 295 609 241z M1235 2812 c-267
-80 -526 -381 -610 -707 -25 -94 -25 -432 -2 -580 64 -397 221 -609 470 -635
99 -10 141 0 196 47 83 70 117 193 131 473 16 309 20 330 109 604 94 287 122
412 122 538 0 137 -27 197 -111 246 -39 23 -57 27 -145 29 -73 2 -116 -2 -160
-15z m175 -383 c0 -114 -9 -156 -81 -376 -69 -214 -96 -354 -108 -563 -8 -141
-14 -187 -32 -235 -30 -81 -44 -95 -83 -88 -90 16 -160 92 -206 223 -23 62
-24 81 -28 381 l-3 316 24 61 c87 214 290 381 465 382 l52 0 0 -101z M2694
2816 c-246 -47 -401 -237 -364 -448 23 -127 100 -248 213 -334 318 -241 775
-194 910 94 103 220 -46 501 -337 632 -129 58 -295 80 -422 56z m231 -231
c108 -19 227 -79 288 -144 l47 -50 0 -99 c0 -92 -2 -101 -25 -126 -44 -48
-109 -70 -221 -74 -154 -6 -276 32 -386 122 -73 60 -98 113 -98 210 l0 76 42
30 c84 61 209 81 353 55z M6143 1876 c-142 -35 -270 -138 -313 -253 -18 -48
-21 -74 -18 -149 3 -81 8 -100 40 -165 111 -222 355 -363 628 -363 165 0 296
50 386 146 155 166 130 403 -64 595 -59 60 -91 82 -175 122 -56 27 -134 57
-174 65 -85 19 -236 20 -310 2z m302 -246 c97 -25 189 -75 243 -134 l42 -46 0
-91 c0 -90 0 -91 -33 -124 -44 -44 -119 -66 -227 -66 -142 1 -275 49 -367 134
-60 55 -83 105 -83 184 0 52 4 66 23 83 78 75 247 100 402 60z M2143 1425
c-248 -67 -381 -275 -315 -492 105 -343 582 -543 917 -383 226 108 292 364
151 584 -84 130 -249 243 -420 286 -94 24 -254 26 -333 5z m301 -245 c97 -25
186 -72 242 -128 l44 -44 0 -97 c0 -93 -1 -98 -27 -123 -125 -114 -441 -76
-598 73 -64 60 -78 96 -73 189 l3 64 47 30 c93 57 228 70 362 36z"/>
</g>
</svg>
