<?xml version="1.0" standalone="no"?>
<!DOCTYPE svg PUBLIC "-//W3C//DTD SVG 20010904//EN"
 "http://www.w3.org/TR/2001/REC-SVG-20010904/DTD/svg10.dtd">
<svg version="1.0" xmlns="http://www.w3.org/2000/svg"
 width="2048.000000pt" height="2048.000000pt" viewBox="0 0 2048.000000 2048.000000"
 preserveAspectRatio="xMidYMid meet">
<metadata>
Created by potrace 1.13, written by Peter Selinger 2001-2015
</metadata>
<g transform="translate(0.000000,2048.000000) scale(0.192120,-0.192120)"
fill="#000000" stroke="none">
<path d="M5000 10320 c-561 -39 -1063 -152 -1520 -343 -804 -335 -1326 -862
-1457 -1470 -23 -103 -25 -397 -4 -502 52 -266 191 -535 395 -767 92 -103 235
-235 327 -300 56 -40 57 -41 63 -102 4 -33 16 -109 27 -169 l21 -107 -56 -61
c-68 -74 -135 -206 -167 -334 -20 -76 -23 -116 -23 -260 -1 -205 18 -296 93
-450 62 -126 130 -200 227 -247 l68 -33 12 -86 c22 -150 64 -318 124 -499 114
-344 259 -617 471 -890 95 -122 297 -326 422 -424 l97 -77 0 -176 c0 -198 9
-185 -77 -111 -29 26 -48 35 -62 31 -32 -8 -96 -78 -146 -157 -52 -84 -75
-144 -75 -197 l0 -39 -84 0 -83 0 -7 38 c-12 80 -77 128 -160 119 -28 -3 -417
-64 -864 -135 -546 -88 -820 -135 -837 -146 -34 -23 -58 -72 -56 -120 0 -23
12 -106 25 -186 24 -142 25 -145 61 -178 l37 -34 -31 -42 c-104 -139 -201
-336 -251 -510 -57 -193 -62 -241 -67 -649 l-5 -377 3891 0 3891 0 0 309 c0
404 -15 544 -81 756 -45 146 -147 347 -236 465 l-34 45 29 25 c44 37 49 52 77
229 22 132 24 168 15 196 -15 46 -59 81 -117 93 -26 6 -413 67 -858 138 -534
84 -820 125 -839 120 -42 -10 -84 -57 -97 -110 l-11 -46 -84 0 -83 0 5 32 c14
83 -119 307 -209 354 -33 17 -34 17 -109 -54 l-46 -44 19 -45 c19 -45 126
-192 164 -226 31 -27 87 -55 128 -62 33 -6 37 -11 37 -37 0 -152 -293 -1237
-380 -1408 -27 -52 -25 -60 9 -60 41 0 110 55 148 119 48 80 130 338 229 721
25 96 52 185 60 197 22 35 50 37 98 9 95 -55 195 -81 371 -96 66 -6 134 -12
150 -15 17 -3 248 -39 515 -81 267 -41 503 -82 526 -90 129 -48 248 -264 330
-599 22 -92 24 -120 24 -337 0 -231 -1 -238 -20 -238 -11 0 -20 -7 -20 -15 0
-13 -158 -15 -1357 -15 -1420 -1 -1418 -1 -1498 -43 -17 -8 -45 -27 -64 -41
-19 -14 -38 -26 -42 -26 -4 0 -24 51 -45 113 -50 152 -114 295 -177 397 l-52
84 77 130 c43 72 80 143 83 158 4 15 11 28 17 28 5 0 47 -26 91 -59 122 -87
374 -254 440 -291 140 -78 70 19 -215 302 -229 227 -487 440 -735 605 -62 41
-113 77 -113 78 0 2 100 72 223 156 303 208 450 312 735 517 l242 174 0 182 1
181 81 60 c109 80 326 296 426 421 217 276 366 556 482 904 55 164 110 390
125 505 10 81 15 95 31 95 33 0 121 55 172 109 67 69 143 220 172 341 72 300
6 662 -154 846 l-44 50 13 109 c8 61 17 144 20 185 l7 75 68 49 c94 67 248
213 339 321 177 212 288 424 347 659 36 140 44 378 19 527 -35 212 -133 442
-273 639 -94 134 -327 365 -484 481 -532 394 -1238 643 -2048 724 -185 18
-665 27 -840 15z m-650 -413 c-1 -18 -7 -43 -15 -57 -10 -18 -14 -59 -14 -140
l-1 -115 45 -84 c25 -45 45 -89 45 -96 0 -24 -46 -43 -171 -70 -267 -57 -542
-135 -769 -218 -368 -133 -606 -250 -681 -333 -43 -48 -79 -107 -79 -132 0
-12 -7 -25 -15 -28 -12 -5 -15 -28 -15 -120 0 -107 -1 -114 -20 -114 -17 0
-20 -7 -20 -45 0 -42 -2 -46 -40 -65 -21 -11 -68 -47 -103 -80 -129 -121 -161
-244 -95 -369 33 -63 78 -122 78 -103 0 7 20 -4 45 -23 65 -49 100 -53 210
-21 111 32 177 33 375 7 80 -11 219 -25 310 -31 91 -6 217 -15 280 -20 147
-12 2261 -12 2900 0 523 10 711 20 946 50 202 27 260 26 367 -6 98 -29 151
-27 200 5 40 26 137 121 137 135 0 6 9 22 20 36 31 39 28 148 -5 200 -14 22
-25 44 -25 50 0 24 -146 156 -193 176 -45 18 -47 20 -47 60 0 28 -5 44 -15 48
-12 4 -15 27 -15 116 0 67 -4 110 -10 110 -5 0 -10 11 -10 25 0 14 -4 25 -10
25 -5 0 -10 8 -10 18 0 22 -63 99 -117 143 -115 92 -539 270 -902 379 -148 44
-245 69 -549 140 -87 20 -112 33 -112 56 0 8 19 54 42 102 39 79 43 95 46 177
3 73 0 101 -17 145 -12 30 -21 68 -21 83 0 27 2 28 38 21 97 -17 372 -91 507
-135 295 -99 571 -230 799 -379 164 -108 235 -165 360 -288 180 -178 285 -336
351 -531 24 -72 25 -82 25 -345 0 -283 -5 -326 -45 -410 -13 -28 -27 -64 -30
-81 -9 -44 -55 -154 -84 -202 -15 -23 -48 -77 -75 -120 -28 -43 -98 -172 -157
-287 l-107 -209 -4 229 c-4 182 -10 251 -27 339 -13 60 -24 112 -26 115 -2 4
-43 -13 -91 -36 -316 -155 -1068 -286 -1781 -311 -106 -3 -193 -9 -193 -12 0
-21 278 -107 470 -145 213 -43 604 -86 789 -86 l76 0 214 -422 c158 -309 225
-432 253 -460 92 -92 173 -18 241 220 l24 84 14 -79 c17 -95 17 -191 2 -393
-24 -316 -55 -400 -213 -575 -72 -80 -133 -162 -163 -221 -9 -17 -32 -94 -51
-170 -54 -211 -225 -681 -316 -865 -78 -159 -237 -369 -366 -484 -223 -198
-312 -298 -365 -408 -24 -50 -24 -47 8 -158 12 -43 -330 -196 -572 -255 -458
-112 -964 -53 -1385 162 -153 78 -146 70 -131 140 26 123 -26 199 -330 489
-98 93 -201 219 -296 360 -55 83 -185 323 -226 421 -66 154 -136 387 -181 599
-34 158 -70 222 -208 369 -46 48 -95 106 -110 128 -29 42 -68 137 -68 166 0 9
-7 41 -15 71 -19 74 -23 567 -5 666 12 62 14 67 23 45 75 -190 155 -300 216
-300 51 0 72 31 95 143 72 353 243 723 455 987 34 41 61 77 61 80 0 3 -48 14
-107 24 -254 42 -521 118 -669 191 -49 24 -92 41 -95 39 -4 -2 -15 -54 -25
-116 -15 -87 -19 -166 -19 -343 l0 -231 -111 211 c-61 115 -137 255 -169 310
-134 229 -165 291 -165 327 0 11 -9 37 -19 57 -10 20 -29 71 -41 113 -20 72
-21 95 -18 320 4 234 5 246 31 318 192 530 836 1008 1687 1249 168 48 352 90
363 84 4 -2 7 -19 7 -36z m433 -11 c18 -7 44 -25 59 -40 23 -23 38 -28 100
-33 99 -7 228 18 276 55 31 24 44 27 111 27 67 0 81 -3 117 -28 57 -38 168
-60 268 -53 67 5 82 9 105 32 36 37 81 54 141 54 115 0 200 -87 200 -205 0
-106 -67 -187 -170 -204 l-35 -6 -7 -133 c-26 -502 -237 -840 -563 -903 -138
-26 -335 65 -450 209 -132 166 -209 408 -222 695 -6 136 -6 137 -30 137 -32 0
-93 26 -121 53 -83 77 -83 229 0 303 58 53 151 70 221 40z m-116 -670 c-23
-58 -47 -154 -47 -184 0 -57 29 -160 70 -249 94 -203 211 -322 435 -443 52
-28 95 -55 95 -60 0 -32 -72 -34 -1145 -38 -588 -1 -1072 -6 -1075 -10 -12
-16 -151 -82 -160 -77 -6 4 -10 105 -10 253 l0 247 78 42 c379 205 1012 416
1492 497 234 40 275 44 267 22z m1472 -2 c500 -73 1058 -245 1519 -470 l172
-84 0 -260 c0 -143 -4 -260 -8 -260 -4 0 -12 4 -18 9 -15 16 -132 71 -148 71
-9 0 -16 5 -16 10 0 7 -344 10 -1012 10 -1040 0 -1188 5 -1188 41 0 5 33 25
73 45 92 47 219 129 279 183 89 79 185 236 230 376 30 96 29 180 -6 269 -14
37 -26 70 -26 72 0 7 42 4 149 -12z m1890 -1132 c99 -50 105 -177 12 -239
l-34 -23 -2677 0 -2677 0 -34 23 c-93 62 -87 189 12 239 32 17 182 18 2699 18
2517 0 2667 -1 2699 -18z m-4869 -835 l115 -33 3 -34 c2 -27 -15 -70 -70 -180
-40 -79 -81 -149 -91 -155 -23 -13 -59 31 -81 101 -21 65 -23 334 -3 334 6 -1
64 -15 127 -33z m4460 -139 c0 -95 -5 -189 -10 -209 -6 -20 -14 -69 -19 -108
-5 -39 -18 -85 -29 -102 l-19 -31 -26 24 c-15 13 -65 97 -113 188 -47 91 -102
191 -122 223 -28 46 -34 62 -25 75 6 11 61 31 149 54 76 21 153 42 169 47 17
5 33 10 38 10 4 1 7 -77 7 -171z m-3195 -4265 c72 -46 207 -107 300 -137 356
-114 864 -113 1216 4 141 47 229 90 353 174 88 59 93 62 86 37 -13 -48 -38
-87 -74 -119 -61 -53 -221 -156 -366 -234 -36 -19 -83 -46 -105 -58 -22 -13
-60 -34 -85 -48 -86 -48 -230 -142 -311 -202 -47 -34 -92 -60 -105 -60 -14 0
-72 33 -137 79 -107 75 -320 207 -407 251 -66 34 -237 137 -343 207 -109 73
-150 117 -165 174 l-10 38 52 -37 c28 -21 74 -52 101 -69z m-82 -166 c270
-195 538 -384 790 -555 109 -74 197 -136 195 -137 -2 -2 -55 -38 -118 -81
-316 -212 -660 -509 -907 -782 -86 -96 -107 -132 -84 -146 9 -6 237 144 449
296 68 48 125 88 127 88 2 0 8 -15 15 -34 6 -18 44 -91 85 -161 41 -71 75
-131 75 -134 0 -3 -16 -21 -35 -41 -75 -77 -158 -256 -206 -447 -13 -48 -26
-92 -31 -97 -4 -5 -32 8 -65 31 -116 81 37 73 -1483 73 -1202 0 -1360 2 -1360
15 0 11 -11 15 -41 15 l-40 0 3 328 4 327 35 100 c74 207 174 366 253 405 48
23 941 169 1161 190 199 18 363 59 447 110 26 16 33 16 58 3 35 -17 44 -42
105 -273 111 -421 189 -648 246 -711 37 -41 99 -79 128 -79 26 0 69 20 44 20
-60 1 -342 983 -419 1458 -4 26 -2 32 14 32 10 0 42 7 71 16 59 17 128 79 162
145 11 22 23 39 28 39 5 0 22 32 40 70 17 39 33 70 36 70 3 0 101 -69 218
-153z m-975 -144 c73 -54 94 -147 49 -214 -70 -104 -197 -106 -271 -6 -32 44
-29 132 6 179 15 19 42 42 60 52 42 21 120 16 156 -11z m4056 -6 c42 -33 71
-102 63 -153 -8 -47 -51 -102 -93 -120 -70 -29 -154 -7 -198 53 -21 28 -32 98
-22 137 8 34 54 86 91 102 45 21 117 12 159 -19z m-3806 -151 c17 -89 15 -126
-8 -163 -27 -46 -60 -59 -190 -78 -63 -9 -164 -25 -225 -35 -128 -23 -1225
-195 -1303 -205 l-52 -7 19 44 c22 51 61 202 61 234 0 12 7 24 15 28 8 3 15
12 15 20 0 16 42 27 205 51 61 8 240 36 400 61 197 31 291 42 293 35 2 -6 11
-11 20 -11 10 0 40 -21 67 -47 69 -64 152 -116 219 -137 158 -50 343 27 392
163 33 90 43 111 52 111 5 0 14 -29 20 -64z m3500 -115 c31 -42 108 -89 170
-102 121 -25 239 20 367 140 47 45 92 81 100 81 8 0 115 -16 237 -35 123 -20
329 -51 458 -71 129 -19 242 -37 251 -39 9 -3 21 -17 27 -30 6 -14 16 -25 20
-25 5 0 12 -34 15 -76 4 -42 18 -107 31 -146 l25 -70 -52 7 c-69 9 -1107 173
-1414 224 -132 22 -250 45 -262 53 -11 7 -31 31 -43 54 -21 39 -21 45 -9 115
l14 73 23 -64 c12 -35 31 -75 42 -89z m-1673 -502 c84 -41 202 -136 248 -200
46 -65 47 -96 7 -220 -44 -133 -84 -211 -131 -254 l-42 -37 -106 6 c-59 4
-137 3 -176 -3 -129 -19 -180 28 -244 224 -55 167 -55 169 -26 232 35 77 167
208 254 251 84 42 133 42 216 1z m65 -875 c75 -36 146 -95 200 -168 41 -56
100 -157 100 -172 0 -5 -166 -9 -407 -9 -225 0 -439 -4 -476 -9 l-68 -8 16 38
c20 50 95 163 140 213 48 52 133 110 197 133 84 29 213 22 298 -18z M3910
7343 c46 -20 235 -41 297 -32 26 3 41 7 33 8 -8 0 -89 10 -180 21 -193 23
-196 23 -150 3z M4391 7304 c19 -23 255 -134 318 -150 74 -18 139 -14 177 11
24 15 71 101 62 111 -3 2 -92 9 -199 14 -107 6 -233 14 -281 18 -66 6 -85 5
-77 -4z M5100 7276 c0 -7 200 -175 279 -234 94 -71 191 -122 233 -122 75 0 79
96 12 287 l-26 72 -249 0 c-137 0 -249 -2 -249 -3z M4120 6423 c-27 -10 -65
-37 -96 -68 -74 -74 -84 -114 -84 -330 0 -203 10 -250 71 -319 53 -60 107 -87
185 -94 118 -9 227 54 275 160 23 50 24 64 24 253 0 199 0 200 -28 257 -64
131 -208 189 -347 141z m120 -395 c0 -131 -7 -167 -29 -154 -7 5 -11 55 -11
147 0 132 1 139 20 139 19 0 20 -7 20 -132z M6344 6424 c-60 -21 -119 -77
-151 -142 -28 -57 -28 -58 -28 -257 0 -188 1 -203 23 -250 28 -61 62 -98 122
-133 39 -24 56 -27 130 -27 102 0 146 19 209 91 61 69 71 116 71 319 0 216
-10 256 -83 330 -80 80 -190 106 -293 69z m116 -403 c0 -141 -6 -165 -35 -141
-12 10 -15 41 -15 146 l0 134 25 0 25 0 0 -139z M5050 5249 c-82 -34 -134
-111 -134 -199 1 -61 18 -101 60 -144 61 -60 65 -61 354 -61 289 0 293 1 354
61 93 94 78 241 -32 319 l-44 30 -266 2 c-162 1 -277 -2 -292 -8z M4384 4260
c-51 -11 -98 -46 -123 -90 -31 -55 -27 -140 9 -189 72 -102 316 -194 630 -238
178 -25 682 -25 860 0 242 34 432 92 547 166 78 50 105 90 111 157 6 67 -1 95
-34 134 -66 78 -166 90 -250 31 -150 -108 -573 -169 -986 -143 -304 19 -490
60 -616 135 -63 38 -101 48 -148 37z"/>
</g>
</svg>
