<?xml version="1.0" standalone="no"?>
<!DOCTYPE svg PUBLIC "-//W3C//DTD SVG 20010904//EN"
 "http://www.w3.org/TR/2001/REC-SVG-20010904/DTD/svg10.dtd">
<svg version="1.0" xmlns="http://www.w3.org/2000/svg"
 width="2048.000000pt" height="2048.000000pt" viewBox="0 0 2048.000000 2048.000000"
 preserveAspectRatio="xMidYMid meet">
<metadata>
Created by potrace 1.13, written by Peter Selinger 2001-2015
</metadata>
<g transform="translate(0.000000,2048.000000) scale(0.192120,-0.192120)"
fill="#000000" stroke="none">
<path d="M6105 9350 c-863 -86 -1521 -456 -1910 -1075 -163 -260 -265 -565
-296 -885 -18 -195 0 -507 43 -715 11 -55 22 -113 25 -128 7 -43 51 -155 90
-229 58 -110 126 -158 182 -128 24 12 35 41 67 180 67 287 192 579 345 806
104 155 265 335 375 421 l41 32 94 -75 c273 -219 520 -366 677 -404 152 -36
234 43 218 213 l-6 68 138 -128 c321 -300 501 -418 570 -375 53 34 22 193 -84
421 l-44 93 33 -26 c163 -134 363 -215 690 -281 237 -47 584 -85 776 -85 l76
0 214 -420 c233 -459 260 -500 327 -500 44 0 80 34 117 114 30 62 74 220 81
286 3 25 12 108 20 185 23 202 32 556 17 685 -50 437 -273 864 -637 1222 -121
118 -203 185 -355 287 -331 223 -681 355 -1129 426 -123 20 -609 29 -755 15z
m728 -294 c537 -77 1007 -296 1360 -635 228 -219 383 -454 474 -718 l38 -108
3 -475 c3 -550 0 -573 -67 -500 -15 17 -76 125 -137 241 -103 199 -113 215
-185 283 -91 88 -126 102 -288 116 -296 26 -355 33 -481 51 -248 37 -384 73
-627 165 -172 65 -217 69 -284 25 -24 -16 -53 -45 -63 -63 -11 -18 -23 -35
-26 -38 -4 -3 -16 -21 -26 -40 -18 -33 -24 -36 -69 -31 -6 1 -44 29 -85 62
-174 143 -248 176 -317 145 -21 -9 -54 -31 -73 -48 -80 -70 -117 -97 -141
-103 -56 -14 -214 70 -455 241 -178 126 -229 154 -301 161 -48 5 -62 2 -130
-32 -62 -31 -98 -59 -193 -154 -185 -184 -290 -336 -440 -636 -114 -228 -128
-242 -155 -153 -12 42 -15 117 -15 392 0 328 1 345 25 441 33 138 57 201 125
340 187 383 551 706 1005 892 246 101 543 168 875 197 104 9 550 -3 653 -18z
M3901 6493 c-204 -231 -251 -688 -106 -1010 40 -87 79 -145 137 -202 43 -43
124 -91 152 -91 17 0 18 -2 41 -145 118 -716 519 -1406 1042 -1793 l63 -47 0
-177 0 -176 113 -84 c241 -180 930 -662 1043 -731 29 -17 54 -35 54 -38 0 -3
-34 -27 -76 -54 -186 -117 -518 -382 -699 -558 l-80 -77 33 -20 c18 -11 38
-31 44 -45 6 -14 14 -25 18 -25 8 0 149 96 168 114 10 10 10 18 -3 42 -18 34
-18 57 -1 104 l13 35 17 -60 c25 -84 63 -164 140 -294 36 -62 66 -115 66 -118
0 -3 -18 -26 -41 -51 -23 -26 -54 -73 -70 -105 l-30 -58 -48 41 c-65 55 -209
212 -313 341 -256 318 -524 817 -660 1227 -17 53 -35 102 -39 107 -5 7 -158 8
-446 4 -402 -5 -446 -8 -538 -28 -523 -116 -933 -429 -1165 -890 -50 -101
-122 -298 -135 -372 l-7 -37 44 9 c116 22 246 1 377 -62 69 -34 102 -58 166
-123 110 -111 141 -173 220 -451 36 -124 65 -230 65 -235 0 -19 -23 -9 -129
55 -201 121 -126 109 -746 113 -443 2 -542 5 -550 17 -6 7 -24 15 -40 17 -26
3 -30 8 -33 37 -5 48 3 71 44 131 20 29 50 82 66 117 26 55 30 73 26 128 -5
86 -15 94 -71 62 -117 -69 -223 -204 -272 -347 -25 -74 -29 -100 -29 -205 -1
-66 2 -128 6 -137 7 -17 221 -18 4303 -18 l4295 0 0 323 c0 417 -14 537 -86
757 -173 527 -618 946 -1152 1086 -181 47 -267 54 -694 54 l-396 0 -27 -83
c-115 -349 -341 -799 -549 -1092 -137 -194 -334 -421 -445 -514 l-50 -42 -41
78 c-22 43 -49 94 -61 113 l-22 35 79 135 c49 83 93 174 114 235 l34 100 12
-40 c17 -54 17 -78 -1 -101 -8 -10 -15 -24 -15 -31 0 -6 39 -37 87 -70 66 -44
87 -55 91 -43 3 8 22 31 43 50 28 27 35 39 28 51 -10 19 -239 226 -354 320
-111 91 -270 208 -381 281 -52 33 -94 64 -94 67 0 3 17 16 38 27 85 49 855
589 1072 752 l85 63 5 182 5 181 85 65 c47 35 148 128 225 205 296 297 506
635 662 1066 44 122 117 409 134 525 15 109 20 122 58 130 47 10 135 80 184
145 120 159 175 366 164 614 -4 81 -14 164 -27 216 -26 108 -96 252 -150 310
l-41 45 5 -35 c31 -193 36 -254 36 -420 0 -347 -42 -475 -214 -660 -129 -138
-168 -207 -203 -360 -13 -58 -48 -177 -78 -265 -29 -88 -72 -218 -95 -290 -45
-139 -133 -326 -208 -440 -81 -124 -206 -267 -419 -481 -169 -169 -214 -220
-236 -267 -28 -59 -34 -117 -18 -160 9 -22 4 -27 -77 -74 -441 -255 -994 -331
-1496 -204 -185 47 -426 147 -548 229 -39 25 -39 26 -33 74 9 63 -15 133 -68
201 -22 28 -129 140 -237 247 -158 157 -212 219 -281 317 -223 325 -359 653
-459 1113 -33 149 -68 208 -204 345 -119 120 -151 178 -186 336 -16 72 -6 595
13 722 8 48 10 87 6 87 -4 0 -26 -21 -48 -47z m3585 -3571 c-46 -74 -211 -190
-471 -332 -238 -130 -334 -189 -528 -326 -45 -33 -49 -31 -174 58 -91 66 -230
150 -465 282 -193 108 -365 224 -420 284 -27 28 -48 56 -48 62 0 6 24 -6 53
-27 295 -215 653 -308 1104 -289 365 15 656 105 888 274 44 32 81 58 83 56 2
-1 -8 -20 -22 -42z m-2792 -693 c30 -24 52 -63 112 -199 55 -127 169 -353 239
-476 100 -174 156 -258 289 -429 157 -202 223 -279 325 -379 50 -49 91 -92 91
-96 0 -4 -7 -14 -17 -21 -13 -11 -101 -15 -457 -17 l-442 -3 -21 44 c-11 24
-33 106 -48 183 -38 195 -88 287 -195 358 -37 25 -85 20 -134 -13 -105 -72
-160 -168 -202 -350 -44 -191 -66 -221 -158 -221 -89 0 -107 25 -136 188 -34
189 -62 261 -127 329 -111 115 -143 113 -296 -14 -51 -42 -72 -33 -172 71
-115 119 -157 152 -280 218 -92 49 -100 56 -103 85 -4 43 41 128 124 231 231
289 579 476 971 521 37 5 190 9 339 10 261 1 272 0 298 -20z m4124 11 c387
-42 742 -230 961 -508 104 -131 152 -220 214 -392 l31 -85 4 -322 3 -323 -240
0 -240 0 -25 43 c-13 23 -34 89 -46 147 -42 201 -101 316 -196 379 -77 51
-119 41 -215 -54 -65 -63 -94 -132 -128 -295 -21 -100 -38 -154 -56 -181 l-25
-39 -70 0 -69 0 -25 43 c-15 25 -38 97 -55 172 -43 193 -90 279 -195 356 -61
45 -98 40 -177 -24 -63 -53 -109 -120 -130 -190 -6 -18 -21 -85 -34 -150 -15
-74 -33 -135 -50 -163 l-26 -44 -417 1 c-229 1 -428 4 -442 8 -47 13 -36 38
67 144 132 137 329 379 440 542 105 153 283 479 356 651 65 152 119 254 144
274 24 19 40 20 285 20 142 0 302 -5 356 -10z m-2310 -576 c12 -8 22 -20 22
-27 1 -6 50 -48 110 -91 98 -71 110 -83 110 -110 0 -17 -29 -88 -67 -166 -66
-131 -68 -137 -68 -212 0 -68 3 -81 30 -120 38 -54 134 -105 220 -116 l60 -7
-70 -58 c-91 -76 -227 -166 -332 -220 l-83 -42 -77 40 c-97 49 -256 155 -348
232 l-70 58 61 7 c83 9 156 42 199 90 45 49 55 75 55 146 0 64 -19 121 -85
252 -25 49 -45 101 -45 115 0 20 20 40 103 101 56 42 104 84 106 92 4 21 28
39 66 51 35 11 70 6 103 -15z m-2797 -621 c25 -65 57 -303 75 -546 l6 -97 -65
31 c-65 30 -66 30 -123 15 l-57 -15 6 92 c8 117 33 288 58 397 31 133 75 188
100 123z m834 -6 c27 -65 75 -434 75 -577 l0 -59 -52 24 c-29 14 -60 25 -68
25 -8 0 -39 -11 -67 -25 l-53 -24 0 54 c0 135 59 482 95 563 28 61 50 67 70
19z m3857 -3 c36 -62 84 -321 103 -552 l7 -84 -43 23 c-66 33 -104 30 -202
-19 -14 -7 22 390 49 536 25 136 48 162 86 96z m833 7 c37 -73 86 -338 102
-550 l6 -91 -54 25 c-66 31 -71 31 -136 0 l-53 -24 0 64 c0 160 55 559 81 591
18 22 37 17 54 -15z M5234 6424 c-58 -21 -120 -77 -152 -138 -27 -51 -27 -52
-27 -261 0 -178 3 -216 18 -247 24 -53 72 -104 126 -136 40 -24 57 -27 131
-27 74 0 91 3 131 27 54 32 102 83 126 136 15 31 18 69 18 247 0 209 0 210
-27 261 -66 126 -213 185 -344 138z M7464 6428 c-60 -20 -127 -80 -159 -143
l-30 -59 0 -200 c0 -200 0 -201 28 -258 50 -102 142 -158 256 -158 107 1 213
76 251 178 17 46 20 78 20 236 0 211 -8 249 -72 321 -56 63 -107 87 -193 91
-38 2 -84 -2 -101 -8z M6160 5249 c-145 -58 -180 -242 -66 -347 63 -58 105
-65 381 -60 l230 3 47 28 c113 66 138 211 55 312 -58 70 -79 75 -367 74 -143
0 -266 -5 -280 -10z M5570 4490 c-108 -10 -455 -87 -501 -111 -68 -34 -99
-106 -79 -180 15 -55 64 -102 124 -119 44 -12 53 -10 238 45 106 32 199 60
205 62 9 3 6 -10 -7 -38 -24 -55 -25 -93 -1 -144 22 -48 44 -69 94 -90 69 -28
100 -21 269 65 86 44 162 80 167 80 6 0 11 -11 11 -24 0 -60 94 -136 169 -136
49 0 118 36 145 77 22 32 25 33 31 14 20 -65 86 -101 161 -87 47 9 111 68 126
117 6 21 13 39 14 39 2 0 76 -36 166 -81 153 -76 166 -81 216 -77 120 10 194
133 147 245 -8 20 -14 38 -12 40 2 1 28 -5 58 -15 30 -11 119 -38 199 -61 132
-39 150 -42 188 -32 146 40 179 213 56 296 -21 14 -110 39 -255 70 l-224 49
-815 2 c-448 1 -849 -2 -890 -6z m353 -239 c15 -15 -12 -38 -84 -73 -63 -32
-87 -35 -95 -13 -4 8 -11 15 -18 15 -11 0 -42 58 -35 64 27 22 54 26 132 23
49 -3 94 -10 100 -16z m758 2 c17 -17 -19 -55 -77 -83 -37 -18 -54 -20 -126
-15 -47 4 -107 3 -139 -3 -69 -13 -110 -4 -168 38 -46 34 -54 66 -18 73 12 3
133 4 269 3 181 -1 250 -4 259 -13z m404 5 c24 -11 36 -48 15 -48 -5 0 -10 -7
-10 -15 0 -8 -7 -15 -15 -15 -7 0 -18 -8 -23 -17 -9 -15 -18 -13 -86 21 -54
27 -76 43 -76 56 0 21 21 26 112 29 31 0 69 -4 83 -11z M1855 4220 c-54 -21
-114 -74 -151 -131 -19 -30 -29 -37 -66 -41 -51 -6 -674 -238 -737 -275 -41
-24 -46 -25 -102 -13 -120 26 -227 -8 -308 -95 -113 -123 -150 -362 -91 -590
29 -111 117 -286 184 -367 160 -193 374 -271 527 -193 42 22 104 80 130 121
11 19 27 34 36 34 8 0 56 14 105 30 50 17 92 29 93 28 2 -3 304 -803 518
-1373 55 -148 102 -271 103 -273 1 -2 48 12 105 31 57 19 152 47 211 63 60 16
108 32 108 35 0 6 -439 1172 -579 1538 -29 74 -48 137 -44 141 4 4 31 15 58
25 28 10 69 29 93 43 39 22 47 24 81 13 65 -19 160 -14 216 13 143 66 213 196
222 411 11 259 -81 501 -261 681 -111 110 -202 156 -319 161 -64 2 -93 -1
-132 -17z m219 -148 c204 -96 344 -323 363 -586 10 -143 -41 -294 -128 -377
-35 -34 -145 -97 -154 -88 -2 2 17 29 42 59 53 63 106 168 128 255 49 190 -13
404 -159 549 -103 103 -260 175 -381 176 -49 1 -33 13 47 35 75 21 166 13 242
-23z m-118 -315 c59 -30 120 -86 134 -123 6 -14 10 -85 10 -157 0 -170 -6
-182 -126 -261 -100 -66 -213 -176 -275 -267 -22 -33 -47 -63 -54 -65 -8 -3
-29 2 -48 11 -41 19 -70 79 -93 195 -34 173 -54 233 -131 400 -19 41 -37 90
-40 107 -5 31 -3 34 43 54 27 11 128 48 224 80 158 55 181 60 240 56 44 -3 82
-13 116 -30z m-905 -145 c218 -203 330 -584 248 -840 -10 -30 -14 -33 -38 -28
-71 17 -152 18 -227 2 -95 -19 -123 -13 -194 39 -66 48 -122 121 -173 224
l-42 84 -4 159 c-3 174 1 193 58 222 16 9 31 23 33 34 3 10 21 23 44 30 48 14
85 48 130 119 l35 54 31 -18 c18 -10 62 -46 99 -81z M4986 2838 c-46 -65 -52
-86 -15 -52 20 18 75 114 65 114 -3 0 -25 -28 -50 -62z M7850 2896 c0 -14 55
-94 72 -105 17 -11 18 -10 9 7 -12 23 -81 106 -81 98z"/>
</g>
</svg>
