<?xml version="1.0" standalone="no"?>
<!DOCTYPE svg PUBLIC "-//W3C//DTD SVG 20010904//EN"
 "http://www.w3.org/TR/2001/REC-SVG-20010904/DTD/svg10.dtd">
<svg version="1.0" xmlns="http://www.w3.org/2000/svg"
 width="2048.000000pt" height="2048.000000pt" viewBox="0 0 2048.000000 2048.000000"
 preserveAspectRatio="xMidYMid meet">
<metadata>
Created by potrace 1.13, written by Peter Selinger 2001-2015
</metadata>
<g transform="translate(0.000000,2048.000000) scale(0.192120,-0.192120)"
fill="#000000" stroke="none">
<path d="M5115 9914 c-322 -24 -587 -74 -833 -158 -843 -287 -1409 -967 -1493
-1796 -20 -197 -2 -501 42 -736 l22 -110 -46 -48 c-202 -207 -265 -627 -147
-970 51 -150 150 -276 258 -328 37 -17 69 -33 71 -34 2 -2 12 -56 22 -121 75
-462 277 -941 550 -1303 176 -234 412 -460 598 -575 36 -22 61 -45 61 -55 0
-24 213 -228 295 -282 143 -94 278 -148 461 -185 129 -26 579 -26 709 0 176
36 321 94 460 185 82 54 295 258 295 282 0 10 25 33 61 55 187 115 422 341
599 577 274 363 473 835 549 1302 10 64 20 118 22 120 2 1 34 17 71 34 201 97
331 401 315 741 -11 232 -84 436 -196 548 -32 32 -32 33 -22 90 22 126 35 330
35 573 0 240 -1 263 -26 381 -153 711 -714 1331 -1474 1627 -216 84 -414 133
-664 167 -110 15 -489 27 -595 19z m460 -304 c245 -22 487 -74 680 -145 138
-50 402 -181 510 -254 356 -236 633 -568 756 -902 60 -163 59 -152 59 -643 0
-388 -2 -455 -15 -472 -15 -18 -16 -18 -48 18 -18 20 -75 118 -127 219 -112
214 -180 298 -284 349 -56 28 -76 31 -256 45 -462 36 -697 83 -1017 201 -203
75 -237 79 -307 33 -25 -17 -52 -41 -58 -53 -6 -11 -24 -37 -39 -57 -16 -20
-29 -43 -29 -50 0 -9 -12 -14 -30 -15 -22 -1 -47 14 -102 59 -107 88 -212 154
-257 162 -50 8 -77 -5 -177 -90 -43 -35 -90 -67 -104 -70 -58 -13 -220 71
-435 224 -225 161 -285 189 -367 177 -131 -20 -365 -238 -547 -509 -29 -43
-95 -162 -148 -265 -100 -194 -117 -222 -139 -222 -28 0 -34 78 -34 423 0 320
2 355 21 430 70 279 202 517 403 734 364 390 921 626 1596 676 106 8 394 6
495 -3z m-1546 -1483 c263 -212 513 -368 660 -411 114 -33 201 -13 236 55 22
41 29 123 17 177 -5 23 -7 42 -3 42 4 0 38 -32 76 -71 149 -152 356 -325 470
-393 82 -50 129 -62 161 -41 52 34 20 198 -81 413 -24 50 -42 92 -39 92 2 0
29 -20 58 -44 226 -184 736 -312 1331 -334 l180 -7 210 -414 c231 -456 263
-505 328 -505 25 0 45 8 62 24 36 34 80 131 109 236 l23 89 14 -75 c10 -55 13
-140 11 -315 -5 -381 -33 -472 -198 -655 -141 -157 -183 -230 -214 -370 -33
-149 -104 -360 -228 -670 -88 -223 -116 -278 -216 -424 -85 -125 -207 -256
-423 -454 -214 -196 -273 -316 -182 -371 l31 -19 -39 -25 c-61 -39 -250 -131
-328 -160 -542 -204 -1121 -174 -1639 85 -54 27 -117 61 -138 76 l-39 26 25
15 c95 57 26 190 -207 399 -241 217 -371 383 -529 677 -137 254 -222 493 -293
830 -30 145 -69 211 -202 348 -111 113 -149 177 -179 295 -22 90 -24 116 -24
357 0 232 7 336 26 429 6 26 10 20 45 -64 83 -203 188 -291 245 -205 9 13 29
80 45 147 87 366 251 711 462 974 70 86 281 294 299 294 6 0 41 -24 77 -53z
M4148 6986 c-96 -26 -173 -104 -199 -200 -6 -23 -9 -117 -7 -230 3 -174 5
-195 25 -232 35 -66 70 -101 130 -131 141 -69 303 -10 375 136 22 43 23 58 23
251 0 193 -1 208 -23 251 -62 126 -197 191 -324 155z m110 -412 l2 -162 -26
-6 c-17 -5 -35 -1 -50 9 -24 15 -24 18 -24 164 0 163 -1 161 60 158 l35 -2 3
-161z M6375 6989 c-95 -23 -185 -117 -206 -217 -6 -32 -10 -122 -7 -225 3
-154 5 -177 26 -218 71 -145 234 -204 375 -136 60 30 95 65 130 131 21 39 22
54 22 256 0 202 -1 217 -22 256 -35 65 -70 101 -126 128 -60 29 -135 39 -192
25z m105 -413 c0 -160 0 -164 -22 -169 -12 -4 -33 -1 -48 6 -25 12 -25 13 -28
161 -3 165 -3 166 61 166 l37 0 0 -164z M5072 5810 c-73 -17 -144 -94 -157
-170 -13 -75 27 -161 96 -207 l43 -28 277 0 277 0 44 30 c60 43 93 105 92 175
-1 63 -18 102 -65 148 -55 54 -104 62 -353 61 -122 -1 -236 -5 -254 -9z M6201
4820 c-18 -4 -45 -18 -60 -29 -66 -54 -228 -105 -426 -133 -121 -17 -648 -17
-770 0 -195 28 -307 63 -445 138 -53 29 -100 30 -156 5 -82 -37 -124 -136 -95
-224 43 -128 308 -236 697 -282 178 -22 584 -21 769 0 307 36 535 109 640 206
55 51 68 84 63 158 -3 44 -11 68 -31 94 -41 55 -120 83 -186 67z M4005 3649
c-312 -45 -579 -188 -817 -438 l-103 -108 -115 -6 c-307 -15 -641 -147 -905
-357 -94 -75 -228 -216 -305 -320 -127 -172 -241 -429 -284 -640 -31 -155 -36
-274 -36 -860 l0 -590 3890 0 3890 0 0 590 c0 721 -7 801 -90 1051 -191 575
-693 1008 -1287 1109 -63 11 -148 20 -188 20 l-73 0 -35 48 c-20 26 -78 89
-131 140 -231 223 -530 351 -863 369 l-113 6 0 -274 0 -275 110 -12 c201 -23
349 -86 475 -204 42 -39 84 -83 95 -99 l21 -28 -75 -35 c-370 -170 -624 -607
-720 -1236 -15 -95 -46 -397 -46 -441 0 -13 -10 -20 -35 -25 -44 -8 -125 -59
-125 -79 0 -8 -4 -15 -10 -15 -6 0 -10 -33 -10 -77 0 -59 6 -96 27 -154 29
-83 27 -104 -13 -119 -17 -7 -448 -9 -1249 -8 -1293 3 -1255 2 -1255 47 0 9
22 53 50 99 60 100 100 190 134 303 24 78 26 100 26 271 0 169 -2 194 -25 273
-34 117 -84 215 -164 321 -127 168 -216 217 -356 195 -38 -5 -71 -8 -74 -5 -8
8 28 140 65 237 183 481 475 747 862 783 l72 7 0 273 0 274 -77 -1 c-43 -1
-105 -5 -138 -10z m-278 -421 c-3 -8 -6 -5 -6 6 -1 11 2 17 5 13 3 -3 4 -12 1
-19z m-20 -10 c-3 -8 -6 -5 -6 6 -1 11 2 17 5 13 3 -3 4 -12 1 -19z m-17 -1
c0 -7 -17 -27 -37 -43 -76 -59 -175 -155 -258 -249 -51 -58 -154 -222 -224
-356 -84 -160 -103 -182 -157 -177 -39 3 -39 4 -42 48 -5 75 69 231 168 355
51 63 267 265 360 336 48 36 161 97 183 99 4 0 7 -6 7 -13z m3459 -64 c53 -36
197 -165 272 -241 19 -21 69 -82 111 -138 93 -124 177 -201 271 -250 294 -153
450 -372 552 -772 19 -76 25 -123 25 -214 l0 -118 -31 0 c-56 0 -76 36 -124
225 -83 328 -170 500 -344 674 -127 128 -250 177 -421 168 -201 -10 -347 -101
-512 -319 -84 -111 -160 -298 -224 -548 -40 -161 -63 -200 -117 -200 l-29 0 5
148 c4 128 9 160 36 252 92 300 197 465 401 625 125 98 188 166 230 248 43 84
39 140 -17 242 -41 75 -224 281 -237 267 -3 -3 -6 2 -6 11 0 15 5 15 52 -3 29
-11 77 -37 107 -57z m-4149 -174 c-104 -160 -212 -392 -286 -614 -36 -110 -67
-201 -68 -203 -2 -1 -34 12 -71 29 -95 45 -147 48 -216 14 -207 -105 -354
-253 -459 -463 -80 -161 -85 -188 -85 -442 l0 -225 31 -85 c35 -97 77 -182
134 -276 22 -35 40 -75 40 -89 0 -34 -47 -45 -202 -45 l-128 0 0 565 c0 372 4
582 11 617 30 146 112 340 185 439 19 26 34 50 34 54 0 15 62 95 129 167 91
97 188 176 293 238 46 27 89 54 96 60 13 11 188 100 197 100 2 0 57 35 122 77
127 83 296 183 301 178 2 -1 -25 -45 -58 -96z m4962 -88 c221 -93 374 -189
528 -329 213 -193 360 -414 445 -667 53 -156 55 -188 55 -731 0 -497 0 -504
-20 -504 -17 0 -20 -7 -20 -40 l0 -40 -52 1 c-115 2 -126 21 -84 139 25 69 37
210 18 210 -4 0 -13 14 -21 31 -13 29 -59 57 -132 82 -13 4 -17 28 -23 119
-53 860 -362 1450 -844 1612 -63 22 -64 22 -91 86 -15 36 -46 97 -69 137 -23
39 -42 74 -42 77 0 2 52 -26 115 -63 63 -38 170 -92 237 -120z m-298 -660 c74
-36 166 -128 218 -217 112 -192 194 -524 214 -865 l7 -116 -57 -23 c-35 -14
-68 -36 -86 -59 -27 -32 -30 -42 -30 -108 0 -55 6 -89 26 -137 14 -36 24 -73
22 -83 -8 -40 -34 -43 -489 -43 -240 0 -451 3 -468 6 -44 9 -48 39 -17 127 27
76 37 207 16 207 -5 0 -10 6 -10 13 0 21 -40 54 -94 78 l-49 21 6 137 c21 447
159 857 340 1005 130 107 305 129 451 57z m-4744 -102 c202 -25 366 -104 501
-241 157 -159 238 -359 239 -585 0 -235 -90 -446 -260 -606 -411 -388 -1082
-260 -1324 254 -59 125 -71 184 -71 359 1 148 2 159 33 250 63 184 181 337
337 439 118 77 246 120 405 135 19 1 40 4 45 4 6 1 49 -3 95 -9z m3775 -993
c167 -79 214 -294 93 -431 -113 -129 -303 -129 -416 0 -156 177 -28 455 208
455 48 0 78 -7 115 -24z m1813 -2 c173 -86 206 -334 60 -458 -150 -129 -396
-57 -449 132 -37 133 43 293 169 338 64 23 161 18 220 -12z M2680 1910 c-234
-37 -426 -235 -476 -489 -45 -229 52 -488 230 -620 237 -176 555 -176 792 0
179 132 275 392 230 619 -48 241 -197 404 -428 471 -83 23 -259 33 -348 19z
m324 -79 c83 -29 142 -66 209 -130 113 -107 171 -241 170 -396 0 -157 -52
-284 -163 -395 -110 -110 -232 -160 -390 -160 -155 0 -282 52 -390 160 -112
112 -164 238 -163 400 0 160 56 285 177 397 75 70 141 107 238 133 92 25 224
21 312 -9z"/>
</g>
</svg>
