<?xml version="1.0" standalone="no"?>
<!DOCTYPE svg PUBLIC "-//W3C//DTD SVG 20010904//EN"
 "http://www.w3.org/TR/2001/REC-SVG-20010904/DTD/svg10.dtd">
<svg version="1.0" xmlns="http://www.w3.org/2000/svg"
 width="2048.000000pt" height="2048.000000pt" viewBox="0 0 2048.000000 2048.000000"
 preserveAspectRatio="xMidYMid meet">
<metadata>
Created by potrace 1.13, written by Peter Selinger 2001-2015
</metadata>
<g transform="translate(0.000000,2048.000000) scale(0.192120,-0.192120)"
fill="#000000" stroke="none">
<path d="M4955 10220 c-365 -30 -669 -84 -998 -176 -1125 -316 -2063 -1057
-2517 -1989 -161 -332 -244 -629 -271 -973 -18 -235 12 -853 55 -1120 7 -46
10 -84 7 -86 -3 -2 -24 -7 -45 -10 -22 -4 -65 -20 -96 -36 -214 -108 -381
-378 -452 -733 -19 -95 -23 -144 -23 -322 0 -178 4 -227 23 -322 65 -322 203
-570 389 -697 97 -66 169 -89 273 -89 79 0 116 8 212 48 13 5 18 1 22 -17 105
-480 262 -881 496 -1268 313 -517 752 -955 1273 -1269 465 -281 970 -451 1562
-528 200 -25 730 -25 930 0 505 66 909 187 1325 398 871 443 1512 1176 1854
2122 45 123 110 353 135 472 13 63 23 90 32 88 8 -1 41 -11 74 -24 82 -30 206
-31 290 -1 246 89 438 373 517 765 19 95 23 144 23 322 0 177 -4 227 -22 320
-87 429 -313 733 -580 778 -57 10 -64 14 -60 32 117 520 145 1054 77 1475
-126 776 -574 1495 -1245 2000 -616 463 -1364 732 -2295 826 -183 18 -801 27
-965 14z m915 -324 c830 -75 1505 -296 2080 -679 406 -271 745 -638 955 -1032
104 -193 179 -387 242 -625 l28 -105 3 -580 c3 -555 2 -586 -19 -710 -12 -71
-25 -177 -29 -235 -12 -162 -35 -238 -76 -254 -22 -8 -51 31 -80 108 -178 472
-317 729 -532 986 -277 330 -632 599 -901 680 -136 42 -198 22 -464 -148 -189
-121 -361 -210 -488 -254 -81 -28 -108 -32 -195 -33 -94 0 -103 2 -136 27 -25
19 -50 57 -82 122 -32 65 -63 111 -102 151 -131 133 -158 131 -539 -37 -510
-226 -898 -316 -1095 -256 -54 16 -69 35 -127 158 -56 119 -80 152 -147 201
-76 56 -134 41 -351 -91 -348 -212 -666 -323 -1136 -395 -90 -14 -180 -30
-199 -36 -59 -19 -125 -67 -197 -142 -63 -67 -87 -108 -322 -547 -265 -496
-326 -602 -360 -619 -33 -18 -69 3 -91 54 -40 94 -43 149 -44 960 l-1 780 23
93 c184 749 754 1442 1566 1907 568 325 1236 517 1966 565 173 12 651 4 850
-14z m-1735 -2743 c0 -128 0 -128 36 -193 44 -81 109 -132 204 -163 104 -33
303 -30 472 7 274 60 694 219 1018 385 50 25 93 47 97 49 3 2 9 -23 13 -55 9
-82 31 -166 55 -214 54 -106 165 -182 284 -194 220 -24 578 127 974 411 l126
90 49 -18 c157 -60 387 -200 542 -330 412 -346 686 -812 835 -1418 34 -137 62
-190 110 -210 118 -49 281 148 392 472 30 89 48 120 48 85 0 -7 25 -63 55
-123 38 -77 77 -136 134 -202 86 -101 131 -183 183 -332 l33 -95 3 -301 c3
-279 1 -308 -18 -383 -27 -107 -58 -176 -124 -276 -62 -91 -132 -162 -197
-196 -40 -21 -58 -23 -179 -24 -153 0 -146 2 -246 -89 -91 -82 -130 -148 -179
-300 -23 -72 -51 -153 -63 -181 -12 -27 -69 -171 -128 -320 -58 -148 -126
-310 -150 -359 -72 -144 -238 -390 -375 -551 -126 -149 -472 -453 -684 -600
-478 -332 -1041 -543 -1660 -622 -199 -25 -731 -25 -930 0 -709 91 -1338 351
-1861 771 -322 258 -494 447 -718 788 -88 134 -256 456 -315 606 -40 99 -128
362 -170 508 -26 90 -83 176 -169 255 -105 96 -99 94 -242 95 -123 0 -126 1
-196 36 -124 64 -208 176 -277 366 l-31 87 -4 337 c-3 319 -2 341 18 417 22
79 120 295 162 354 20 29 136 258 160 317 9 22 14 8 39 -100 38 -164 73 -268
120 -361 106 -205 228 -215 364 -29 18 25 171 304 340 620 169 316 319 596
333 622 27 52 21 50 177 63 303 27 707 134 991 262 196 88 436 242 523 337 14
14 25 26 25 26 1 0 1 -57 1 -127z M3579 5316 c-85 -30 -148 -90 -175 -165 -10
-27 -13 -127 -14 -382 l0 -345 26 -52 c30 -61 69 -96 143 -130 45 -21 64 -24
120 -20 36 3 82 13 101 23 48 24 107 82 133 130 21 39 22 50 22 400 0 405 3
389 -78 473 -70 72 -187 101 -278 68z m101 -546 c0 -273 0 -280 -20 -280 -20
0 -20 7 -20 280 0 273 0 280 20 280 20 0 20 -7 20 -280z M6896 5310 c-58 -23
-119 -78 -149 -135 -21 -39 -22 -50 -22 -400 0 -350 1 -361 22 -400 26 -48 85
-106 133 -130 19 -10 65 -20 101 -23 56 -4 75 -1 120 20 74 34 113 69 143 130
l26 52 -1 345 c-1 372 -1 378 -55 453 -65 92 -210 132 -318 88z m124 -534 c0
-174 -4 -277 -10 -281 -6 -3 -19 -3 -30 0 -19 6 -20 16 -20 281 l0 274 30 0
30 0 0 -274z M4964 3928 c-17 -6 -53 -27 -80 -47 -163 -123 -135 -379 51 -467
50 -24 53 -24 395 -24 342 0 345 0 395 24 206 98 211 393 8 496 l-48 25 -345
2 c-214 1 -357 -3 -376 -9z m674 -209 c49 -17 54 -76 10 -116 -18 -16 -45 -18
-287 -21 -146 -2 -284 -1 -307 3 -55 8 -84 36 -84 81 0 59 21 63 351 64 181 0
297 -4 317 -11z M3577 2816 c-120 -43 -187 -141 -187 -270 1 -109 55 -193 161
-246 132 -68 470 -165 744 -214 371 -67 679 -90 1135 -83 338 6 426 11 680 43
283 35 591 104 815 181 158 55 230 91 272 135 101 105 97 282 -8 387 -88 87
-204 99 -354 37 -406 -168 -1157 -264 -1790 -227 -536 31 -870 96 -1285 250
-64 24 -129 26 -183 7z m258 -246 c466 -158 1016 -231 1620 -217 549 14 915
71 1355 213 121 39 218 50 241 27 19 -19 14 -81 -8 -105 -47 -53 -392 -167
-613 -202 -19 -3 -46 -8 -60 -10 -278 -51 -563 -76 -925 -83 -396 -7 -730 13
-1025 62 -47 8 -101 16 -120 19 -19 3 -46 8 -60 11 -14 2 -50 10 -80 16 -149
29 -435 116 -500 152 -61 33 -80 57 -80 98 0 35 3 39 33 48 47 15 121 5 222
-29z"/>
</g>
</svg>
