<?xml version="1.0" standalone="no"?>
<!DOCTYPE svg PUBLIC "-//W3C//DTD SVG 20010904//EN"
 "http://www.w3.org/TR/2001/REC-SVG-20010904/DTD/svg10.dtd">
<svg version="1.0" xmlns="http://www.w3.org/2000/svg"
 width="2048.000000pt" height="2048.000000pt" viewBox="0 0 2048.000000 2048.000000"
 preserveAspectRatio="xMidYMid meet">
<metadata>
Created by potrace 1.13, written by Peter Selinger 2001-2015
</metadata>
<g transform="translate(0.000000,2048.000000) scale(0.192120,-0.192120)"
fill="#000000" stroke="none">
<path d="M1330 10325 c-8 -2 -49 -9 -90 -15 -221 -36 -439 -156 -609 -336
-130 -137 -213 -289 -270 -493 l-26 -96 -3 -3165 c-2 -2189 1 -3190 8 -3247
17 -134 47 -232 110 -358 148 -297 391 -493 727 -587 77 -22 93 -22 871 -25
l793 -4 -7 28 c-3 15 -14 42 -23 58 -35 62 -10 59 -776 66 -385 3 -709 9 -720
12 -11 3 -54 14 -95 23 -246 57 -461 222 -608 468 -23 37 -53 103 -67 145
l-25 76 0 3295 0 3295 23 65 c38 105 103 207 191 296 130 130 275 215 456 265
l85 24 3210 0 c3035 0 3214 -1 3283 -18 271 -66 480 -212 603 -423 90 -154
119 -279 125 -544 3 -113 9 -214 14 -225 5 -11 11 -47 14 -80 6 -93 20 -149
78 -326 l53 -164 3 75 c2 41 2 282 0 535 -4 509 -4 507 -78 691 -143 356 -478
622 -857 679 -85 13 -522 15 -3238 14 -1727 -1 -3147 -3 -3155 -4z M1383 9939
c-164 -19 -335 -107 -448 -231 -61 -68 -136 -196 -160 -274 -22 -73 -22 -6464
0 -6537 29 -96 87 -189 167 -269 127 -126 274 -199 441 -218 103 -12 1447 -13
1447 -1 0 4 57 11 128 13 107 5 160 13 337 56 116 28 230 55 255 60 30 7 -316
10 -1055 11 -927 1 -1111 4 -1170 16 -198 42 -358 194 -422 401 -17 57 -18
181 -18 3199 0 3020 1 3142 18 3200 59 191 200 332 392 391 58 18 166 19 3200
19 3018 0 3142 -1 3199 -18 106 -33 177 -76 251 -151 130 -132 165 -238 165
-509 l0 -167 38 15 c20 8 47 28 59 43 22 26 23 35 23 203 0 151 -3 185 -21
240 -37 115 -96 214 -173 292 -130 133 -258 196 -444 217 -108 12 -6103 11
-6209 -1z M6105 9349 c-639 -59 -1179 -286 -1569 -659 -372 -356 -587 -794
-636 -1295 -20 -198 5 -572 49 -760 l19 -76 -39 -36 c-82 -76 -151 -210 -191
-371 -18 -70 -22 -118 -22 -242 -1 -91 5 -180 12 -215 34 -158 95 -293 169
-375 l43 -48 0 -959 c0 -1081 -4 -1023 75 -1111 62 -69 127 -96 220 -90 107 7
183 57 233 152 l27 51 3 343 c3 281 1 347 -11 370 -79 152 -153 307 -190 402
-82 205 -153 469 -179 659 -9 67 -17 95 -28 98 -43 13 -91 38 -106 54 -15 17
-15 22 0 65 24 71 20 111 -24 240 l-40 118 0 281 c-1 241 2 300 22 423 12 78
25 142 28 142 3 0 14 -24 24 -52 51 -147 146 -278 200 -278 63 0 70 13 115
200 91 383 251 706 492 994 45 54 123 134 173 177 78 68 92 77 107 66 10 -6
72 -55 139 -107 317 -248 586 -385 716 -365 89 13 132 91 120 220 l-6 70 97
-94 c270 -259 490 -421 575 -421 15 0 34 8 43 17 23 23 16 134 -14 223 -30 88
-112 270 -121 270 -21 0 -50 -74 -50 -126 0 -44 -3 -54 -17 -54 -9 0 -24 -7
-33 -15 -18 -16 1 -29 -218 148 -95 77 -168 117 -213 117 -42 0 -82 -26 -157
-104 -40 -42 -71 -66 -85 -66 -89 0 -272 96 -488 256 -189 141 -268 176 -346
155 -125 -34 -335 -236 -489 -473 -68 -103 -194 -341 -228 -429 -50 -126 -78
-189 -87 -189 -5 0 -9 -6 -9 -14 0 -29 -28 -25 -43 7 -38 80 -47 187 -47 546
0 376 5 418 65 597 39 116 146 325 222 434 84 119 309 346 423 426 461 326
1024 479 1690 461 520 -15 905 -129 1380 -412 246 -146 335 -218 452 -363 99
-125 258 -410 321 -577 58 -152 57 -142 57 -730 0 -324 -4 -545 -9 -545 -5 0
-16 -3 -24 -6 -24 -9 -76 73 -213 336 -130 251 -159 294 -226 344 -58 43 -112
54 -327 71 -406 32 -699 89 -974 192 -173 64 -242 76 -294 48 l-33 -18 32 -29
c60 -53 171 -121 252 -155 267 -113 685 -190 1137 -209 l156 -7 198 -391 c109
-215 214 -415 233 -444 56 -85 118 -105 170 -53 43 44 99 174 118 279 7 35 7
35 16 12 25 -68 38 -226 38 -468 0 -229 -2 -258 -21 -314 -27 -82 -96 -187
-179 -273 -100 -103 -157 -198 -180 -297 -11 -46 -33 -141 -50 -213 -17 -71
-47 -200 -66 -285 -19 -85 -46 -191 -60 -234 -53 -158 -211 -439 -305 -541
-22 -24 -100 -89 -172 -144 -171 -129 -266 -214 -329 -293 -70 -87 -91 -139
-84 -205 l6 -51 -58 -37 c-153 -98 -415 -201 -612 -243 -171 -37 -279 -45
-493 -39 -214 6 -346 26 -522 80 -153 47 -358 139 -465 209 l-48 31 2 61 c2
105 -51 176 -324 431 -47 44 -115 112 -150 150 -134 148 -214 191 -275 151
l-26 -17 22 -37 c120 -198 372 -469 576 -620 l63 -47 1 -195 0 -195 47 -34
c313 -230 1038 -738 1096 -768 20 -11 31 -12 39 -4 14 14 50 14 64 0 9 -9 25
-3 65 21 107 66 728 501 981 688 l127 94 0 193 0 193 88 68 c202 156 458 445
607 684 71 114 189 344 235 457 19 46 35 81 37 79 2 -2 -13 -100 -32 -217 -54
-315 -65 -410 -65 -551 0 -71 -4 -128 -9 -128 -5 0 -12 -132 -15 -297 -3 -164
-9 -345 -12 -403 -6 -115 2 -148 50 -205 31 -37 35 -33 72 78 53 158 53 169
54 1049 l0 817 40 153 c22 84 49 206 60 271 11 66 22 123 25 127 3 5 18 11 34
15 47 10 135 80 184 145 120 159 175 366 164 614 -4 81 -14 164 -27 216 -27
110 -96 253 -154 317 -46 51 -46 51 -37 99 22 118 35 328 35 569 1 233 -1 272
-22 373 -59 292 -200 596 -390 842 -80 103 -270 299 -372 385 -389 324 -886
529 -1431 590 -145 16 -509 18 -664 4z m1425 -6384 c-20 -52 -41 -85 -78 -121
-43 -41 -196 -150 -280 -198 -400 -230 -556 -331 -653 -422 -80 -75 -72 -76
-164 11 -65 61 -253 185 -485 320 -204 119 -363 224 -433 285 -40 36 -96 124
-85 135 2 2 49 -28 103 -66 114 -81 240 -144 375 -189 342 -115 857 -117 1210
-5 158 51 311 132 441 235 28 22 53 40 55 40 2 0 -1 -11 -6 -25z M3038 8376
c-95 -26 -173 -104 -198 -197 -7 -24 -9 -893 -8 -2455 l3 -2419 22 -40 c50
-93 147 -154 244 -155 114 0 206 56 256 158 l28 57 0 2415 c0 2345 -1 2416
-19 2464 -50 131 -197 208 -328 172z M1925 6987 c-66 -22 -101 -44 -139 -88
-71 -84 -67 56 -64 -1864 l3 -1730 22 -41 c109 -204 396 -205 497 -2 l26 52 0
1735 0 1736 -24 50 c-25 55 -90 119 -141 141 -50 21 -134 26 -180 11z m93
-1934 l-3 -1668 -25 0 -25 0 -3 1655 c-1 910 0 1661 3 1668 2 6 16 12 30 12
l25 0 -2 -1667z M5234 6424 c-58 -21 -120 -77 -152 -138 -27 -51 -27 -52 -27
-261 0 -178 3 -216 18 -247 24 -53 72 -104 126 -136 40 -24 57 -27 131 -27 74
0 91 3 131 27 54 32 102 83 126 136 15 31 18 69 18 247 0 209 0 210 -27 261
-66 126 -213 185 -344 138z M7464 6428 c-60 -20 -127 -80 -159 -143 l-30 -59
0 -200 c0 -200 0 -201 28 -258 50 -102 142 -158 256 -158 107 1 213 76 251
178 17 46 20 78 20 236 0 211 -8 249 -72 321 -56 63 -107 87 -193 91 -38 2
-84 -2 -101 -8z M6160 5249 c-145 -58 -180 -242 -66 -347 63 -58 105 -65 381
-60 l230 3 47 28 c113 66 138 211 55 312 -58 70 -79 75 -367 74 -143 0 -266
-5 -280 -10z M5515 4265 c-5 -2 -22 -6 -37 -9 -37 -8 -98 -63 -114 -103 -21
-49 -17 -112 9 -158 62 -110 308 -207 637 -251 168 -23 655 -26 820 -6 297 37
531 112 635 203 85 75 94 183 22 266 -71 81 -162 84 -265 9 -153 -113 -733
-167 -1169 -110 -195 25 -310 58 -413 119 -51 31 -102 47 -125 40z M8110 3298
c0 -316 -17 -394 -116 -523 l-37 -49 30 -59 29 -60 42 64 c24 35 62 92 86 126
81 114 86 139 86 417 l0 243 -32 36 c-18 20 -45 39 -60 43 l-28 6 0 -244z
M4395 2550 c-361 -6 -410 -8 -502 -28 -337 -73 -618 -226 -858 -467 -177 -179
-315 -403 -395 -642 -75 -228 -90 -356 -90 -779 l0 -304 3890 0 3890 0 0 323
c0 177 -5 362 -10 412 -72 623 -470 1143 -1056 1375 -78 31 -222 72 -323 91
-80 15 -914 28 -923 15 -4 -6 -8 -27 -8 -46 -1 -91 -118 -595 -225 -970 -84
-291 -179 -560 -199 -560 -2 0 -40 43 -85 95 -75 87 -101 109 -101 87 0 -5
-85 -181 -188 -392 l-188 -382 -81 233 c-44 129 -94 270 -111 315 l-30 80 79
135 c60 102 89 163 118 254 28 85 36 124 29 133 -36 44 -432 340 -550 411
l-37 22 -133 -90 c-119 -80 -219 -156 -401 -301 -31 -25 -56 -52 -56 -61 -2
-50 75 -240 149 -365 l80 -136 -54 -152 c-30 -83 -73 -212 -96 -286 -23 -74
-46 -151 -52 -170 -11 -35 -12 -33 -209 362 l-197 397 -44 -47 c-24 -26 -61
-68 -82 -94 -21 -26 -42 -45 -48 -42 -48 30 -257 726 -367 1224 -24 108 -61
324 -61 354 0 3 -17 5 -37 4 -21 -1 -218 -5 -438 -8z m4024 -202 c29 -156 241
-1432 241 -1450 0 -11 -118 -54 -416 -152 -302 -100 -414 -141 -411 -150 17
-43 47 -150 43 -153 -2 -2 -51 20 -107 49 -102 52 -106 53 -214 59 -60 4 -122
10 -138 14 -52 14 -49 83 8 169 40 60 67 76 130 76 51 0 95 17 95 37 0 7 4 13
9 13 20 0 153 135 181 185 69 121 213 611 315 1075 38 176 67 250 97 250 10 0
18 4 18 9 0 11 100 80 116 81 7 0 20 -46 33 -112z m-3857 52 c38 -27 71 -50
75 -50 14 0 44 -46 64 -99 11 -31 37 -121 56 -201 100 -420 231 -865 289 -985
33 -69 148 -190 207 -218 20 -10 37 -22 37 -27 0 -6 29 -10 64 -10 62 0 66 -2
89 -32 64 -85 96 -194 65 -215 -7 -4 -62 -11 -123 -15 -149 -8 -195 -20 -297
-72 -49 -25 -88 -41 -88 -37 0 4 11 41 25 81 14 41 24 78 23 82 -2 5 -183 68
-403 142 -220 73 -406 135 -414 137 -11 4 8 133 98 674 125 749 151 895 159
895 3 0 36 -22 74 -50z m-298 -176 c11 -86 6 -128 -80 -644 -75 -452 -85 -526
-81 -607 3 -77 8 -99 32 -138 37 -64 84 -114 144 -155 110 -75 115 -75 -727
-78 l-733 -3 3 318 3 318 33 95 c44 128 93 225 176 350 248 371 656 579 1152
589 l71 1 7 -46z m4661 16 c223 -38 444 -133 625 -268 216 -162 361 -358 454
-612 l31 -85 3 -338 3 -338 -723 3 c-727 3 -768 5 -768 37 0 5 23 23 50 41 61
39 121 106 151 167 37 77 25 217 -70 781 -55 326 -81 508 -81 563 l0 81 108
-7 c59 -4 157 -15 217 -25z m-2354 -516 c125 -66 246 -185 265 -261 8 -29 -39
-190 -82 -283 -62 -134 -112 -166 -232 -149 -46 7 -95 6 -158 -2 -85 -11 -94
-11 -125 7 -19 11 -48 41 -65 66 -38 56 -109 268 -107 320 2 100 193 295 331
339 43 13 100 1 173 -37z m-16 -849 c87 -42 183 -170 258 -346 39 -90 46 -115
25 -86 -7 10 -60 33 -118 53 -104 36 -106 36 -275 36 l-170 0 -97 -36 c-52
-20 -101 -36 -107 -36 -6 0 -11 -5 -11 -12 0 -6 -2 -9 -5 -6 -7 7 49 140 90
214 68 121 147 201 230 232 42 16 133 9 180 -13z M5626 1310 c-69 -68 -126
-127 -126 -131 0 -13 110 1 146 17 17 8 40 31 51 52 22 39 65 173 58 180 -2 2
-60 -51 -129 -118z M7130 1418 c0 -28 49 -162 68 -188 10 -14 34 -30 53 -37
38 -13 129 -17 129 -5 0 7 -165 171 -222 222 -22 18 -28 20 -28 8z"/>
</g>
</svg>
