<?xml version="1.0" standalone="no"?>
<!DOCTYPE svg PUBLIC "-//W3C//DTD SVG 20010904//EN"
 "http://www.w3.org/TR/2001/REC-SVG-20010904/DTD/svg10.dtd">
<svg version="1.0" xmlns="http://www.w3.org/2000/svg"
 width="2048.000000pt" height="2048.000000pt" viewBox="0 0 2048.000000 2048.000000"
 preserveAspectRatio="xMidYMid meet">
<metadata>
Created by potrace 1.13, written by Peter Selinger 2001-2015
</metadata>
<g transform="translate(0.000000,2048.000000) scale(0.192120,-0.192120)"
fill="#000000" stroke="none">
<path d="M4550 10324 c-677 -65 -1261 -521 -1483 -1161 -65 -187 -104 -431
-94 -591 12 -195 149 -356 415 -486 49 -24 98 -45 109 -48 20 -5 20 -17 26
-504 l5 -499 -28 -115 c-63 -254 -94 -468 -110 -760 -19 -354 -8 -1372 20
-1805 57 -871 200 -1366 430 -1486 39 -21 58 -24 150 -23 170 1 330 42 741
189 134 49 343 121 464 160 l220 73 5 31 5 32 55 -56 c158 -161 382 -274 640
-322 135 -25 505 -25 640 1 250 46 464 151 623 306 58 57 67 71 67 101 l0 35
-152 -76 c-169 -84 -348 -147 -514 -181 -154 -30 -454 -38 -614 -15 -560 81
-1056 393 -1430 899 -230 313 -418 734 -504 1129 -6 26 -9 27 -69 27 -153 -1
-275 96 -367 293 -100 215 -118 514 -43 752 53 169 153 309 265 372 48 26 62
29 143 29 108 0 148 -17 237 -102 l57 -55 58 49 c32 27 110 90 173 140 63 50
123 100 133 111 17 19 17 19 -75 26 -408 30 -1198 165 -1198 204 0 4 18 29 40
56 22 26 47 71 56 99 17 55 32 272 33 500 1 144 18 195 58 180 7 -3 13 -1 13
5 0 6 32 20 70 31 39 12 70 25 70 29 0 4 -44 20 -98 35 -53 16 -132 42 -174
59 -73 28 -78 31 -78 59 0 73 -38 119 -172 203 -118 74 -169 117 -213 180
l-36 53 3 234 c4 222 5 239 32 324 55 180 178 411 299 562 161 201 396 374
652 478 214 87 271 100 540 120 110 8 243 19 295 25 52 5 124 10 160 10 l64 0
-120 -73 c-262 -159 -396 -290 -523 -512 -94 -164 -171 -393 -157 -467 8 -46
59 -96 105 -104 45 -9 108 13 133 46 10 14 30 66 44 115 30 107 105 267 165
356 62 93 171 197 279 269 103 67 279 159 375 195 54 21 61 21 82 8 39 -26
131 -17 252 22 391 128 868 125 1249 -6 149 -51 188 -56 251 -33 47 17 51 17
98 -1 26 -10 98 -43 158 -73 357 -181 521 -369 639 -732 36 -111 45 -127 75
-147 65 -44 161 -21 196 46 24 47 18 107 -24 232 -119 353 -292 567 -626 774
-60 37 -112 70 -115 73 -13 12 663 -29 786 -48 79 -12 216 -50 224 -62 4 -4
32 -17 64 -28 32 -11 107 -45 166 -76 309 -163 550 -410 692 -712 98 -207 108
-260 108 -594 l0 -246 -40 -51 c-43 -54 -79 -83 -230 -183 -101 -67 -119 -91
-128 -164 l-5 -43 -76 -29 c-42 -16 -120 -41 -174 -57 -54 -16 -94 -31 -90
-35 5 -4 37 -17 73 -29 112 -38 120 -43 120 -62 0 -11 5 -19 10 -19 6 0 10
-102 10 -285 0 -183 4 -285 10 -285 6 0 10 -16 10 -34 0 -21 16 -66 40 -112
22 -43 36 -82 32 -86 -12 -12 -188 -55 -342 -84 -297 -55 -774 -114 -1045
-129 -174 -10 -176 -12 -45 -55 181 -59 349 -150 470 -254 l55 -47 19 28 c44
63 136 142 191 162 227 85 446 -94 536 -437 26 -101 36 -319 19 -433 -26 -185
-98 -344 -200 -449 -91 -93 -198 -130 -305 -106 l-31 7 -28 -118 c-54 -221
-161 -503 -267 -701 -208 -390 -508 -730 -826 -935 -43 -27 -43 -28 -43 -86 0
-33 -2 -65 -5 -73 -4 -10 40 -28 162 -67 93 -29 303 -101 468 -161 476 -171
609 -205 810 -204 168 0 222 19 310 108 87 87 128 177 169 374 56 265 73 542
87 1397 22 1345 3 1737 -101 2146 -25 97 -27 116 -14 125 12 9 14 94 16 523
l3 512 79 34 c241 105 399 249 448 408 18 62 20 86 15 206 -34 808 -629 1480
-1442 1627 -152 27 -444 26 -591 -4 -153 -30 -338 -92 -470 -156 l-110 -55
-116 58 c-476 239 -1047 239 -1520 1 l-96 -48 -74 38 c-144 75 -300 127 -498
165 -83 16 -350 27 -440 19z m-758 -3600 c41 -7 56 -31 38 -63 -16 -31 -151
-221 -161 -227 -5 -3 -9 55 -9 135 0 159 7 178 64 167 17 -4 48 -9 68 -12z
m5366 -6 c8 -8 12 -47 12 -112 l-1 -101 -40 45 c-68 75 -92 117 -85 144 4 17
14 26 34 29 52 8 68 7 80 -5z m-5476 -1344 c118 -198 190 -274 325 -341 51
-26 99 -56 106 -67 8 -12 40 -93 71 -181 189 -525 426 -909 770 -1244 53 -52
96 -102 96 -112 0 -41 -28 -55 -360 -174 -388 -140 -541 -179 -676 -173 -64 2
-89 8 -111 24 -126 93 -222 440 -278 1013 -20 206 -22 1345 -2 1339 6 -2 33
-40 59 -84z m5538 -839 c0 -702 -2 -852 -16 -947 -43 -311 -100 -452 -200
-494 -126 -53 -354 -13 -764 134 -423 151 -440 159 -440 203 0 12 39 57 101
117 305 293 562 704 729 1167 93 257 95 262 149 280 159 55 251 127 363 287
35 48 66 88 70 88 5 0 8 -376 8 -835z M3940 7573 c0 -360 3 -377 64 -414 40
-25 112 -25 152 0 61 37 64 57 64 385 l0 295 -37 7 c-21 3 -84 16 -140 29
l-103 22 0 -324z M8815 7873 c-60 -13 -120 -26 -132 -29 l-23 -4 0 -292 c0
-270 1 -295 20 -333 34 -70 117 -98 188 -61 66 34 66 34 72 408 3 222 2 338
-5 337 -5 -1 -59 -13 -120 -26z M4300 7818 c0 -2 24 -22 53 -43 28 -22 54 -43
57 -46 12 -17 419 -66 429 -52 3 4 17 9 31 10 14 1 48 12 75 24 l50 23 -120
13 c-150 16 -504 61 -545 69 -16 4 -30 5 -30 2z M8415 7799 c-66 -10 -213 -28
-327 -40 l-206 -22 61 -30 c54 -26 72 -30 137 -29 111 3 364 38 368 51 2 6 12
11 23 11 10 0 19 5 19 10 0 6 6 10 13 10 6 1 28 14 47 30 33 29 33 30 10 29
-14 -1 -79 -10 -145 -20z M7678 7727 l-128 -10 0 -300 c0 -279 1 -304 20 -342
24 -50 65 -75 122 -75 54 0 100 27 121 73 15 30 17 77 17 351 0 247 -3 316
-12 314 -7 -1 -70 -6 -140 -11z M5050 7425 c0 -287 1 -312 20 -350 24 -50 65
-75 122 -75 54 0 100 27 121 73 15 30 17 76 17 341 l0 306 -42 0 c-24 0 -87 3
-140 7 l-98 6 0 -308z M5450 7674 l55 -37 190 -9 c105 -5 242 -8 305 -6 104 3
121 6 180 34 l65 31 -360 6 c-199 4 -390 10 -425 13 l-65 6 55 -38z M7210
7700 c-91 -4 -257 -8 -370 -9 l-205 -3 75 -36 75 -37 275 3 c168 1 276 6 278
12 2 6 12 10 23 10 10 0 19 5 19 10 0 6 6 10 13 10 6 0 30 11 52 25 l40 24
-55 -1 c-30 -1 -129 -5 -220 -8z M6300 7370 c0 -346 2 -362 53 -409 38 -35
114 -40 160 -12 65 40 67 51 67 415 l0 326 -140 0 -140 0 0 -320z M5005 6756
c41 -15 69 -17 385 -35 102 -6 221 -15 265 -21 94 -12 532 -16 690 -6 61 4
184 3 275 -2 266 -15 985 19 1013 48 9 9 -7 10 -73 6 -601 -43 -1991 -32
-2540 19 l-55 6 40 -15z M5444 6060 c-48 -11 -103 -49 -134 -92 -42 -58 -53
-123 -48 -289 3 -123 7 -150 25 -185 46 -86 143 -141 232 -131 63 7 121 37
156 79 50 59 55 83 55 275 0 159 -2 181 -21 220 -27 55 -81 100 -143 118 -54
16 -74 17 -122 5z M7325 6061 c-69 -17 -125 -62 -161 -131 -17 -30 -19 -59
-19 -215 0 -165 2 -183 22 -220 56 -105 167 -155 275 -125 54 15 118 68 144
120 22 42 23 57 24 221 0 168 -1 177 -25 226 -49 98 -157 149 -260 124z M1744
5460 c-518 -93 -976 -771 -1111 -1640 -28 -180 -25 -564 5 -729 83 -458 312
-791 667 -969 76 -38 229 -92 261 -92 12 0 14 -115 14 -850 l0 -850 281 0 280
0 -2 847 -1 847 92 27 c402 116 703 449 819 907 41 160 54 288 54 507 0 163
-5 243 -22 355 -86 573 -314 1071 -633 1376 -133 127 -274 212 -413 249 -74
20 -222 27 -291 15z m296 -304 c332 -113 630 -549 760 -1114 l30 -127 0 -431
0 -432 -26 -88 c-14 -49 -38 -118 -53 -154 -40 -96 -138 -236 -219 -312 -78
-73 -136 -110 -292 -184 -74 -36 -123 -67 -167 -108 -76 -70 -131 -143 -139
-184 -4 -17 -12 -33 -20 -36 -12 -5 -14 -111 -14 -661 l0 -655 -45 0 -45 0 0
660 c0 433 -3 660 -10 660 -5 0 -10 9 -10 20 0 11 -4 20 -9 20 -5 0 -12 12
-15 26 -4 14 -46 66 -94 116 -82 85 -94 93 -220 154 -73 35 -158 81 -190 103
-148 101 -282 287 -346 482 -55 171 -58 205 -54 614 5 360 6 373 32 485 84
355 245 696 419 890 126 140 289 244 427 275 87 20 208 12 300 -19z M6124
4876 c-32 -32 -34 -38 -34 -99 0 -68 18 -104 61 -128 13 -6 119 -10 290 -10
293 0 299 1 335 56 12 19 15 41 12 91 -4 60 -7 70 -36 95 l-32 29 -281 0 -281
0 -34 -34z M5774 4341 c-107 -49 -141 -192 -68 -288 31 -41 169 -132 259 -171
209 -91 490 -115 726 -63 242 54 458 189 487 304 43 168 -147 300 -289 201
-129 -90 -206 -124 -334 -144 -184 -30 -398 10 -522 97 -126 87 -178 101 -259
64z M5426 3224 c-8 -20 -8 -308 0 -328 5 -13 12 -11 41 11 20 15 47 45 60 67
29 45 27 87 -8 165 -31 71 -81 117 -93 85z M7405 3203 c-42 -42 -65 -100 -65
-167 0 -59 0 -60 53 -108 l52 -49 6 28 c16 69 7 323 -11 323 -4 0 -20 -12 -35
-27z M4645 2823 c-740 -63 -1357 -405 -1652 -918 -53 -92 -108 -233 -135 -342
-20 -83 -21 -119 -25 -661 l-4 -572 1753 0 1753 1 -60 31 c-33 17 -87 43 -120
57 l-60 26 -1512 3 c-1329 2 -1513 4 -1513 17 0 11 -12 15 -45 15 l-45 0 0
530 c0 604 -1 597 80 754 113 219 236 365 440 522 100 76 190 129 465 274 55
29 123 65 152 81 103 57 186 82 268 81 17 0 176 -4 355 -8 l325 -7 60 31 c33
17 76 45 95 61 l35 30 -285 -1 c-157 -1 -303 -3 -325 -5z M5333 2818 c173
-385 1064 -2390 1080 -2430 12 -32 24 -58 28 -58 3 0 16 26 29 58 25 63 952
2152 1031 2324 27 59 49 110 49 113 0 3 -20 5 -44 5 -35 0 -57 -9 -112 -46
-249 -167 -522 -234 -954 -234 -432 0 -705 67 -954 234 -56 38 -77 46 -113 46
-33 0 -44 -4 -40 -12z m697 -505 c86 -15 162 -18 420 -17 285 0 327 3 435 23
169 33 160 33 158 -14 -1 -22 -17 -78 -36 -125 -66 -162 -510 -1155 -529
-1183 -22 -31 -48 -35 -71 -9 -25 28 -74 133 -308 657 -252 568 -279 633 -279
680 l0 33 53 -14 c28 -7 99 -22 157 -31z M7655 2805 c40 -33 99 -62 161 -77
112 -27 652 -10 662 21 2 6 9 8 17 5 7 -3 15 -1 18 3 27 44 -132 64 -548 69
l-340 5 30 -26z M8660 2728 c0 -11 4 -17 9 -13 6 3 13 0 18 -7 17 -28 98 -76
353 -210 196 -104 298 -167 398 -247 188 -150 318 -315 406 -515 77 -177 76
-165 76 -743 l0 -513 -25 0 c-16 0 -25 -6 -25 -15 0 -13 -172 -15 -1487 -15
-1676 -1 -1574 4 -1743 -77 l-85 -41 1748 -1 1748 -1 -3 578 -4 577 -28 104
c-69 257 -183 447 -388 647 -151 148 -285 242 -486 343 -120 60 -258 114 -359
142 -107 29 -123 30 -123 7z"/>
</g>
</svg>
