<?xml version="1.0" standalone="no"?>
<!DOCTYPE svg PUBLIC "-//W3C//DTD SVG 20010904//EN"
 "http://www.w3.org/TR/2001/REC-SVG-20010904/DTD/svg10.dtd">
<svg version="1.0" xmlns="http://www.w3.org/2000/svg"
 width="2048.000000pt" height="2048.000000pt" viewBox="0 0 2048.000000 2048.000000"
 preserveAspectRatio="xMidYMid meet">
<metadata>
Created by potrace 1.13, written by Peter Selinger 2001-2015
</metadata>
<g transform="translate(0.000000,2048.000000) scale(0.192120,-0.192120)"
fill="#000000" stroke="none">
<path d="M5170 9629 c-365 -19 -792 -140 -1165 -329 -305 -155 -540 -325 -786
-570 -185 -184 -261 -275 -387 -465 -338 -507 -510 -1065 -553 -1790 -22 -371
-3 -1554 31 -1980 63 -772 209 -1227 427 -1328 99 -46 340 -14 612 80 9 3 -2
-14 -25 -38 -226 -246 -373 -516 -494 -909 -22 -74 -42 -136 -44 -137 -2 -2
-34 11 -72 29 -54 26 -82 33 -129 33 -54 0 -68 -5 -140 -48 -167 -101 -259
-188 -355 -338 -84 -129 -79 -129 -80 -12 0 95 2 108 31 168 17 36 58 103 92
150 34 46 75 102 91 125 36 52 176 176 275 241 42 28 78 54 81 58 3 4 32 26
65 48 33 22 110 82 170 133 61 50 163 134 228 186 64 52 117 96 117 98 0 11
-211 -51 -314 -91 -307 -120 -577 -297 -772 -506 -134 -145 -250 -340 -303
-512 -48 -155 -51 -206 -51 -922 l0 -673 3610 0 3611 0 -4 718 c-3 693 -4 720
-25 805 -90 369 -345 698 -717 927 -102 63 -316 163 -425 200 -100 33 -251 72
-257 66 -2 -2 26 -28 62 -58 69 -58 99 -76 313 -191 171 -93 272 -167 402
-297 271 -269 408 -535 440 -853 7 -63 10 -215 8 -347 -3 -202 -5 -240 -21
-267 -21 -39 -30 -40 -119 -11 -78 25 -71 6 -88 218 -61 748 -309 1265 -712
1479 -40 22 -98 47 -128 56 l-55 17 -56 117 c-40 81 -81 146 -137 216 -44 55
-79 101 -78 102 1 1 38 -9 81 -22 165 -51 340 -73 450 -56 327 52 430 341 465
1311 17 478 24 1771 11 1995 -34 583 -148 1040 -368 1479 -237 474 -602 885
-1045 1179 -547 363 -1179 548 -1768 516z m403 -314 c806 -94 1582 -561 2017
-1215 165 -246 313 -581 375 -843 17 -73 20 -203 4 -212 -6 -4 -20 2 -32 13
-42 38 -135 91 -195 111 -120 41 -246 24 -393 -50 -32 -16 -72 -29 -88 -29
-16 0 -91 32 -172 74 -318 163 -558 223 -987 246 -309 16 -498 54 -807 161
-187 64 -305 114 -565 239 -233 112 -282 130 -348 130 -112 0 -213 -75 -558
-412 -335 -327 -423 -398 -491 -398 -15 0 -66 14 -113 30 -192 67 -349 28
-529 -132 -30 -26 -59 -48 -63 -48 -16 0 -8 159 12 244 50 208 148 463 257
666 311 581 877 1049 1552 1284 211 73 482 134 661 149 118 9 348 6 463 -8z
m-1112 -1656 c129 -73 433 -218 579 -277 379 -153 752 -242 1013 -242 468 -1
906 -140 1184 -377 l52 -44 12 23 c23 43 114 130 162 154 75 38 140 47 211 29
122 -31 216 -121 292 -281 70 -146 89 -238 88 -439 0 -144 -3 -184 -23 -260
-49 -195 -159 -362 -283 -431 -48 -26 -62 -29 -145 -29 l-92 0 -27 -110 c-168
-683 -565 -1280 -1079 -1625 l-105 -70 0 -289 0 -289 -147 -209 c-82 -115
-299 -426 -483 -691 -184 -264 -337 -481 -340 -481 -3 0 -156 217 -340 481
-184 265 -401 576 -482 691 l-148 209 0 284 0 283 -32 17 c-178 92 -454 332
-624 544 -257 319 -471 760 -564 1160 l-21 95 -77 0 c-66 0 -85 5 -130 30
-123 67 -233 234 -284 430 -20 78 -23 113 -22 265 0 155 3 186 26 271 65 241
194 403 354 444 108 27 207 -6 305 -102 l56 -54 75 63 c42 35 129 107 194 161
66 53 259 236 429 407 171 170 313 309 318 310 4 0 48 -23 98 -51z m-1814
-2248 c51 -51 125 -112 175 -145 100 -64 102 -68 178 -265 142 -368 292 -642
502 -916 108 -140 346 -383 469 -478 l86 -66 7 -62 c3 -34 3 -91 0 -128 l-6
-66 -72 -27 c-190 -72 -410 -263 -564 -489 -17 -25 -63 -108 -103 -183 -93
-179 -109 -198 -163 -194 l-41 3 -3 47 c-5 81 65 219 185 366 144 177 213 302
213 384 0 46 -43 119 -104 176 -100 95 -147 105 -369 77 -129 -16 -181 -11
-226 23 -77 57 -151 287 -201 627 -48 320 -53 395 -57 908 -3 273 -2 497 1
497 3 0 45 -40 93 -89z m5393 -1511 c-29 -218 -70 -358 -123 -414 -54 -57
-122 -66 -332 -45 -155 16 -200 3 -295 -87 -78 -74 -120 -140 -120 -190 0 -34
32 -111 72 -175 137 -217 276 -380 370 -435 29 -17 91 -53 137 -80 219 -128
369 -354 461 -696 26 -97 30 -131 30 -235 l0 -123 -28 0 c-54 0 -79 42 -118
196 -91 359 -175 526 -359 710 -121 121 -250 171 -420 161 -203 -11 -371 -122
-520 -342 -90 -135 -140 -258 -205 -514 -47 -182 -63 -210 -122 -211 l-28 0 0
123 c0 175 40 325 140 532 74 150 159 259 272 345 190 146 288 274 288 375 0
106 -157 311 -305 397 -51 29 -182 86 -236 102 -20 5 -34 130 -24 206 7 47 10
51 98 122 206 163 444 434 607 690 110 173 231 413 308 613 100 259 103 262
200 315 86 47 163 104 222 165 l35 36 3 -728 c2 -489 -1 -756 -8 -813z m-1455
-831 c133 -40 242 -105 337 -202 92 -93 92 -90 -4 -135 -92 -44 -151 -84 -225
-153 -296 -278 -460 -708 -518 -1358 -9 -96 -17 -176 -18 -177 -1 -1 -24 -9
-52 -18 -59 -20 -73 -30 -104 -74 -21 -29 -23 -42 -19 -115 3 -59 10 -95 26
-126 12 -25 22 -59 22 -77 0 -27 -5 -34 -31 -43 -35 -12 -2129 -14 -2183 -2
-51 11 -55 34 -18 99 66 114 131 259 156 346 24 80 26 105 26 265 0 207 -14
275 -84 425 -120 257 -275 391 -430 372 -28 -4 -65 -9 -83 -12 l-31 -6 9 44
c6 23 26 90 46 148 166 491 480 800 841 827 45 3 82 3 82 0 0 -3 -7 -34 -16
-68 -20 -80 -13 -135 27 -213 17 -33 120 -186 228 -341 193 -275 271 -392 271
-408 0 -16 140 -213 203 -287 103 -120 226 -210 286 -210 65 0 181 89 290 224
89 110 691 975 717 1031 28 59 31 133 9 215 -9 33 -11 57 -5 60 17 11 173 -9
245 -31z m929 -832 c71 -33 156 -113 215 -202 119 -182 208 -525 227 -882 l7
-122 -29 -11 c-73 -26 -124 -62 -124 -87 0 -7 -4 -13 -10 -13 -6 0 -10 -31
-10 -72 0 -54 7 -90 26 -140 29 -78 28 -98 -6 -115 -31 -16 -894 -19 -935 -3
-38 15 -40 34 -11 118 36 106 36 192 0 240 -16 20 -50 45 -82 60 l-55 25 6
131 c14 294 85 602 182 796 90 179 225 292 369 308 84 10 164 -1 230 -31z
m-4349 -127 c163 -38 286 -111 413 -244 65 -70 92 -107 132 -189 72 -147 85
-203 85 -377 -1 -170 -13 -229 -81 -366 -104 -213 -295 -370 -529 -436 -105
-29 -316 -32 -414 -5 -257 70 -446 226 -556 458 -104 220 -102 495 5 714 96
197 256 342 462 419 37 14 82 28 100 32 144 26 251 25 383 -6z m3390 -974
c172 -80 217 -300 88 -437 -63 -67 -127 -93 -219 -87 -152 10 -257 119 -257
268 0 161 116 280 273 280 47 0 79 -7 115 -24z m1813 -2 c134 -67 193 -236
127 -370 -68 -140 -232 -194 -374 -123 -123 61 -177 189 -137 323 38 125 132
194 267 195 51 1 76 -5 117 -25z m-6320 -294 c16 -30 49 -86 71 -125 64 -108
55 -124 -69 -132 l-80 -6 0 175 c0 96 3 178 6 181 9 8 33 -24 72 -93z M4311
6356 c-48 -17 -108 -71 -134 -119 -20 -39 -22 -55 -22 -222 0 -167 2 -183 22
-222 45 -84 151 -140 240 -127 71 10 143 61 175 123 28 52 28 56 28 227 0 124
-4 184 -13 207 -48 112 -184 174 -296 133z M6185 6355 c-24 -8 -59 -34 -87
-64 -61 -67 -71 -111 -66 -306 3 -130 6 -155 25 -191 31 -58 84 -101 148 -119
85 -25 166 -2 232 67 56 58 63 89 63 275 0 156 -2 172 -24 219 -50 108 -176
160 -291 119z M5043 5205 c-83 -36 -96 -177 -22 -239 l31 -26 269 0 c298 0
314 3 345 62 22 42 15 139 -12 169 -40 45 -68 49 -331 49 -188 -1 -256 -4
-280 -15z M4665 4647 c-43 -20 -92 -80 -105 -128 -29 -106 38 -198 212 -293
310 -170 730 -176 1054 -16 109 54 212 138 234 190 21 50 9 142 -24 184 -41
54 -97 79 -166 74 -47 -3 -66 -11 -120 -50 -142 -100 -243 -130 -435 -130
-192 0 -312 36 -443 135 -48 36 -62 42 -116 44 -37 2 -73 -2 -91 -10z M6060
3563 c-132 -55 -272 -97 -420 -125 -95 -19 -151 -22 -325 -22 -314 0 -479 36
-833 181 -10 4 -11 -2 -7 -23 17 -76 249 -221 436 -274 240 -67 589 -67 839 1
168 45 411 194 424 260 8 41 8 49 -1 48 -5 -1 -55 -21 -113 -46z M2824 1911
c-183 -29 -337 -147 -424 -324 -92 -189 -92 -384 2 -576 173 -352 647 -452
969 -205 99 76 186 216 220 354 22 87 17 232 -10 320 -66 216 -208 355 -426
415 -69 19 -256 28 -331 16z m280 -71 c107 -27 169 -63 252 -145 114 -112 165
-235 165 -395 0 -153 -54 -284 -160 -391 -268 -268 -731 -188 -891 153 -123
263 -41 549 203 709 128 83 280 108 431 69z"/>
</g>
</svg>
