<?xml version="1.0" standalone="no"?>
<!DOCTYPE svg PUBLIC "-//W3C//DTD SVG 20010904//EN"
 "http://www.w3.org/TR/2001/REC-SVG-20010904/DTD/svg10.dtd">
<svg version="1.0" xmlns="http://www.w3.org/2000/svg"
 width="2048.000000pt" height="2048.000000pt" viewBox="0 0 2048.000000 2048.000000"
 preserveAspectRatio="xMidYMid meet">
<metadata>
Created by potrace 1.13, written by Peter Selinger 2001-2015
</metadata>
<g transform="translate(0.000000,2048.000000) scale(0.192120,-0.192120)"
fill="#000000" stroke="none">
<path d="M5030 10323 c-36 -2 -139 -10 -230 -19 -867 -81 -1586 -354 -2183
-827 -132 -104 -390 -363 -496 -497 -334 -422 -553 -907 -640 -1421 -33 -192
-44 -384 -37 -619 10 -313 31 -513 82 -762 l26 -126 -64 -64 c-155 -154 -266
-405 -309 -698 -20 -134 -15 -393 10 -534 70 -397 272 -702 517 -785 55 -18
59 -22 62 -53 7 -83 57 -339 98 -508 192 -781 571 -1482 1091 -2021 141 -145
298 -286 433 -387 1020 -769 2293 -884 3395 -308 328 171 583 363 875 655 329
330 581 686 796 1125 202 412 358 913 423 1360 l17 119 55 16 c339 106 587
663 539 1216 -19 226 -68 406 -156 576 -47 90 -150 233 -175 241 -9 3 -8 33 4
134 58 452 72 1014 32 1284 -68 458 -278 945 -584 1353 -344 459 -793 834
-1321 1101 -675 343 -1415 490 -2260 449z m800 -317 c385 -47 716 -128 1045
-257 1010 -396 1778 -1194 2005 -2084 l40 -156 0 -798 c0 -777 -1 -801 -21
-867 -34 -116 -38 -124 -68 -124 -54 0 -65 18 -368 614 -235 463 -247 484
-311 549 -37 37 -90 79 -117 93 -54 26 -95 31 -450 54 -435 29 -863 98 -1178
190 -170 49 -270 88 -453 173 -161 76 -215 93 -265 83 -46 -8 -101 -55 -133
-112 -33 -58 -35 -138 -6 -242 21 -74 27 -177 11 -186 -20 -13 -162 97 -398
306 -186 165 -237 206 -298 234 -79 38 -113 32 -187 -31 -41 -34 -102 -126
-112 -169 -4 -15 -21 -46 -39 -68 -32 -40 -32 -40 -87 -35 -162 17 -444 176
-855 481 -219 162 -271 190 -350 191 -51 0 -70 -6 -132 -40 -127 -71 -306
-241 -484 -461 -290 -356 -527 -824 -689 -1359 -28 -92 -42 -124 -58 -130 -20
-7 -52 18 -52 41 0 12 -9 41 -20 65 -13 29 -20 66 -20 109 0 36 -12 130 -27
210 -26 143 -26 153 -30 681 l-4 536 30 149 c53 256 171 572 293 779 55 94
178 273 246 360 133 168 390 408 584 548 526 377 1224 617 1963 677 72 5 148
12 170 14 106 10 698 -3 825 -18z m-2511 -2390 c122 -101 355 -274 496 -368
362 -240 625 -340 778 -297 53 14 112 71 134 127 20 51 24 179 10 266 l-9 50
156 -151 c344 -334 647 -570 800 -623 64 -23 85 -24 120 -9 38 18 50 58 43
152 -7 117 -77 327 -176 526 -23 46 -41 88 -41 93 0 6 20 -8 45 -31 54 -49
185 -136 274 -181 396 -198 1120 -339 1892 -366 l186 -7 42 -86 c225 -457 598
-1176 635 -1222 58 -74 120 -106 172 -89 53 18 102 74 145 165 33 70 52 130
110 345 l12 45 19 -75 c10 -41 29 -142 43 -225 14 -82 32 -189 40 -236 11 -62
15 -163 15 -351 l0 -264 -36 -109 c-77 -235 -140 -343 -272 -465 -117 -109
-219 -226 -245 -284 -13 -28 -32 -87 -42 -131 -9 -44 -30 -123 -46 -175 -15
-52 -40 -159 -54 -238 -78 -426 -370 -1069 -640 -1407 -88 -111 -268 -321
-342 -400 -1061 -1131 -2661 -1334 -3922 -498 -264 175 -556 442 -775 708
-298 361 -549 829 -709 1320 -62 189 -109 374 -152 588 -22 111 -45 199 -61
231 -32 65 -193 249 -263 300 -119 88 -203 219 -255 400 -26 87 -26 94 -26
412 l0 323 39 163 c21 90 51 226 66 303 15 77 30 144 33 149 3 5 21 -38 42
-95 104 -296 251 -468 356 -417 43 20 69 79 104 233 158 690 475 1296 908
1733 97 98 249 231 266 232 4 0 42 -29 85 -64z M3890 5881 c-58 -12 -107 -40
-150 -88 -76 -82 -75 -76 -75 -463 0 -388 -1 -381 75 -464 57 -61 118 -89 200
-89 112 0 207 60 254 162 20 44 21 60 21 391 l0 345 -28 57 c-54 109 -180 173
-297 149z m90 -556 l0 -305 -38 0 c-21 0 -43 5 -50 12 -18 18 -17 584 1 591 6
3 29 6 50 6 l37 1 0 -305z M6663 5880 c-81 -16 -147 -66 -189 -142 l-29 -53 0
-355 0 -355 29 -53 c53 -95 138 -145 246 -145 82 0 143 28 200 89 76 83 75 76
75 464 0 388 1 381 -75 464 -67 72 -163 104 -257 86z m95 -557 l2 -303 -38 0
c-21 0 -43 5 -50 12 -18 18 -17 584 1 592 6 3 28 4 47 3 l35 -2 3 -302z M4972
4205 c-206 -65 -263 -324 -103 -468 81 -73 76 -72 461 -72 387 0 381 -1 465
76 113 104 118 286 10 394 -21 21 -59 47 -84 59 -44 20 -63 21 -376 23 -257 2
-340 -1 -373 -12z m683 -199 c32 -14 35 -19 35 -56 0 -56 -12 -75 -60 -94 -34
-13 -84 -16 -308 -16 -240 0 -271 2 -309 19 -46 22 -63 45 -63 90 0 68 87 82
448 75 164 -3 232 -8 257 -18z M4447 3380 c-124 -21 -220 -128 -221 -246 -1
-39 -5 -55 -16 -59 -8 -2 -222 -63 -474 -135 -252 -72 -471 -137 -485 -145
-14 -7 -43 -31 -63 -52 -131 -136 -93 -355 77 -439 91 -44 137 -38 440 51 143
42 268 79 278 82 17 5 16 1 -6 -43 -54 -107 -42 -211 35 -299 57 -65 123 -95
210 -95 65 0 72 3 308 120 132 66 245 120 250 120 6 0 10 -10 10 -22 0 -38 45
-122 81 -152 83 -70 199 -87 294 -42 57 26 128 100 147 152 7 19 15 34 18 34
3 0 12 -15 18 -34 20 -55 95 -130 153 -156 77 -32 177 -26 245 15 57 36 111
110 120 166 4 22 10 39 15 39 5 0 117 -54 249 -120 236 -117 243 -120 308
-120 87 0 153 30 210 95 77 88 90 194 36 299 -23 43 -24 48 -7 43 10 -3 135
-40 278 -82 303 -89 349 -95 440 -51 174 85 209 314 69 448 -22 20 -56 44 -76
52 -29 12 -739 218 -913 265 l-40 11 -1 52 c-1 98 -63 185 -164 232 -44 21
-55 21 -910 22 -476 1 -886 -2 -913 -6z m1755 -252 c14 -9 50 -52 81 -95 64
-92 137 -162 203 -192 26 -13 200 -67 388 -121 188 -54 360 -106 384 -115 39
-16 43 -20 40 -49 -3 -28 -8 -32 -45 -40 -35 -7 -70 -1 -223 38 -195 50 -277
58 -327 33 -42 -22 -126 -100 -143 -133 -8 -16 -19 -32 -24 -35 -4 -4 -11 -27
-13 -52 -3 -27 -13 -53 -24 -63 -11 -9 -19 -25 -19 -36 0 -10 -11 -24 -25 -30
-38 -17 -101 1 -261 75 -168 78 -203 89 -263 89 -56 0 -87 -14 -173 -80 -130
-100 -174 -105 -298 -32 -43 25 -91 45 -116 48 -43 4 -68 -5 -194 -73 -29 -16
-62 -25 -91 -25 -49 0 -71 11 -170 90 -73 58 -105 72 -160 72 -60 0 -92 -11
-276 -94 -84 -37 -172 -71 -195 -74 -55 -7 -98 9 -98 36 0 12 -7 28 -15 36 -8
9 -15 30 -15 48 0 72 -87 188 -175 233 -48 25 -129 17 -326 -32 -192 -49 -246
-53 -278 -21 -19 20 -7 45 31 63 13 7 182 58 374 113 192 56 378 114 413 131
69 32 158 115 201 188 42 72 69 99 108 109 24 7 335 10 867 9 762 -2 833 -3
857 -19z"/>
</g>
</svg>
