<?xml version="1.0" standalone="no"?>
<!DOCTYPE svg PUBLIC "-//W3C//DTD SVG 20010904//EN"
 "http://www.w3.org/TR/2001/REC-SVG-20010904/DTD/svg10.dtd">
<svg version="1.0" xmlns="http://www.w3.org/2000/svg"
 width="2048.000000pt" height="2048.000000pt" viewBox="0 0 2048.000000 2048.000000"
 preserveAspectRatio="xMidYMid meet">
<metadata>
Created by potrace 1.13, written by Peter Selinger 2001-2015
</metadata>
<g transform="translate(0.000000,2048.000000) scale(0.192120,-0.192120)"
fill="#000000" stroke="none">
<path d="M5886 10319 c-634 -52 -1172 -283 -1580 -679 -349 -338 -579 -768
-662 -1235 -46 -258 -31 -712 31 -955 l14 -56 -58 -61 c-166 -174 -240 -520
-176 -823 51 -240 174 -421 328 -481 l42 -16 17 -109 c57 -347 190 -728 357
-1019 127 -221 245 -379 414 -552 l109 -112 677 -3 676 -3 73 -27 c228 -83
404 -294 535 -638 36 -94 914 -2563 936 -2630 l11 -35 827 0 c822 0 828 0 873
-21 145 -68 206 -236 137 -377 -33 -67 -93 -118 -161 -137 -44 -12 -46 -11
-83 17 -78 62 -30 58 -768 61 -374 2 -693 1 -710 -3 -16 -3 -61 -25 -100 -50
l-70 -44 1238 -1 1238 0 -4 808 c-3 793 -4 809 -26 907 -51 227 -132 421 -250
597 -244 363 -602 608 -1022 702 -177 40 -370 49 -906 44 l-473 -5 0 257 c0
141 3 290 7 331 l6 74 76 55 c112 81 353 326 457 465 296 395 492 858 570
1346 l17 105 47 17 c130 46 239 194 306 412 26 85 28 102 28 285 1 174 -2 204
-22 280 -30 110 -88 230 -149 305 l-48 60 12 84 c35 247 44 661 17 838 -66
448 -301 892 -667 1261 -558 564 -1305 830 -2141 761z m654 -314 c528 -83
1003 -322 1345 -676 116 -121 182 -200 255 -309 118 -176 208 -369 256 -554
23 -88 24 -100 24 -528 0 -419 -4 -488 -30 -488 -26 0 -98 116 -205 329 -81
162 -190 272 -297 301 -18 5 -119 16 -225 25 -477 38 -662 78 -1093 234 -47
17 -101 31 -121 31 -45 0 -123 -50 -157 -100 -12 -19 -32 -46 -42 -60 -11 -13
-20 -29 -20 -35 0 -6 -13 -11 -29 -11 -22 -1 -48 13 -103 58 -151 124 -244
175 -298 163 -14 -3 -52 -27 -84 -53 -104 -84 -148 -112 -175 -112 -30 0 -167
63 -246 113 -27 17 -112 75 -187 129 -181 128 -247 162 -318 162 -89 0 -191
-63 -333 -207 -151 -153 -273 -332 -402 -587 -48 -96 -94 -183 -102 -192 -14
-16 -16 -16 -37 3 -21 20 -21 27 -24 375 -4 398 -1 425 68 635 130 398 406
749 782 996 288 189 672 322 1043 362 55 6 116 13 135 15 87 10 520 -3 620
-19z m-1627 -1640 c321 -252 565 -385 707 -387 119 -2 167 62 157 210 l-5 84
107 -104 c204 -200 361 -326 475 -383 38 -19 79 -35 92 -35 27 0 52 23 60 56
13 53 -31 206 -110 378 -20 43 -36 80 -36 82 0 2 24 -16 54 -40 184 -149 514
-252 996 -310 109 -14 414 -36 492 -36 25 0 39 -25 243 -425 254 -496 273
-523 359 -484 14 7 37 29 52 51 27 38 93 216 94 251 0 10 4 16 9 13 5 -3 14
-43 21 -88 14 -93 0 -524 -20 -632 -16 -90 -74 -189 -174 -301 -151 -169 -181
-224 -230 -435 -14 -58 -37 -136 -51 -175 -15 -38 -42 -113 -60 -165 -35 -102
-137 -366 -160 -415 -54 -117 -83 -169 -142 -254 -112 -163 -140 -193 -391
-429 -139 -130 -226 -243 -238 -309 -4 -21 -1 -58 6 -85 15 -59 20 -54 -130
-131 -97 -51 -257 -116 -322 -131 l-28 -6 0 63 c0 88 -29 164 -97 260 -116
161 -251 261 -418 309 -76 22 -93 23 -340 20 -143 -2 -424 2 -625 8 -425 14
-425 14 -523 119 -98 107 -262 334 -331 461 -175 321 -256 534 -330 880 -39
183 -61 222 -216 386 -112 120 -151 189 -181 324 -19 88 -20 116 -15 370 5
281 23 458 40 395 12 -49 82 -191 116 -239 59 -81 133 -98 165 -37 8 16 24 73
36 128 27 125 104 361 159 483 124 278 321 554 517 726 47 41 87 74 90 74 2 0
59 -43 126 -95z m2297 -4656 c-38 -131 -42 -153 -38 -229 4 -83 6 -87 105
-182 47 -45 51 -53 42 -76 -7 -18 -6 -28 3 -34 54 -36 82 -51 110 -60 21 -7
237 -14 593 -18 508 -7 569 -10 656 -28 533 -113 936 -468 1073 -946 l26 -88
0 -708 c0 -557 -3 -709 -12 -713 -28 -10 -54 12 -67 54 -43 144 -185 325 -301
384 -112 57 -106 57 -875 62 -581 4 -714 7 -732 19 -12 7 -35 42 -52 76 -17
35 -161 430 -321 880 -276 777 -290 820 -290 887 0 65 -9 87 -25 61 -3 -5 -14
-10 -24 -10 -14 0 -20 11 -25 43 -11 66 -74 246 -113 317 -19 36 -55 86 -80
112 l-46 46 109 54 c109 55 184 100 259 156 22 17 41 27 43 23 1 -5 -7 -42
-18 -82z M4935 7247 c-62 -30 -107 -77 -137 -142 -22 -47 -23 -62 -23 -250 0
-229 8 -259 85 -334 115 -111 299 -102 404 21 59 68 68 118 64 341 -3 177 -5
195 -26 234 -52 99 -128 146 -242 151 -63 2 -83 -1 -125 -21z m163 -372 c1
-77 0 -150 -3 -162 -7 -28 -39 -38 -76 -23 l-29 12 0 153 c0 170 -2 165 70
162 l35 -2 3 -140z M7165 7251 c-56 -25 -101 -66 -133 -120 -27 -46 -27 -48
-30 -258 -3 -199 -2 -214 18 -262 42 -97 153 -171 255 -171 93 0 202 68 248
154 20 38 22 57 25 240 4 226 -2 259 -56 331 -54 71 -124 105 -216 105 -47 0
-84 -7 -111 -19z m153 -394 l3 -157 -26 -12 c-19 -8 -31 -8 -50 0 l-25 12 0
154 c0 168 -1 166 60 163 l35 -2 3 -158z M5865 6073 c-81 -42 -121 -115 -113
-208 6 -70 45 -129 107 -162 43 -22 51 -23 304 -23 285 0 297 2 357 63 93 95
68 262 -49 324 -43 22 -51 23 -310 23 -222 -1 -271 -3 -296 -17z M5194 5089
c-43 -12 -101 -72 -115 -118 -44 -146 76 -254 376 -340 372 -106 1057 -104
1429 4 289 84 405 189 367 333 -22 81 -91 132 -179 132 -40 0 -59 -7 -98 -33
-101 -69 -262 -114 -497 -138 -184 -18 -630 -7 -779 20 -138 24 -266 64 -317
99 -73 50 -120 61 -187 41z M975 4213 c-213 -25 -375 -92 -486 -203 -114 -112
-154 -219 -152 -405 0 -93 6 -141 26 -215 13 -52 223 -642 465 -1310 242 -668
445 -1233 452 -1255 7 -22 24 -62 38 -90 110 -221 295 -356 542 -395 43 -6
1006 -10 2881 -10 l2817 0 -38 97 c-21 54 -277 771 -570 1593 -594 1674 -557
1573 -618 1695 -69 139 -127 223 -216 311 -94 92 -204 157 -231 134 -22 -18
-29 -73 -15 -116 15 -43 11 -38 86 -124 143 -164 204 -264 275 -444 57 -144
900 -2509 955 -2675 25 -78 34 -122 34 -173 l0 -68 -2672 3 c-2549 2 -2676 3
-2733 21 -148 44 -254 130 -317 257 -34 66 -858 2323 -908 2486 -17 55 -20 93
-20 254 l0 189 36 40 c38 41 153 105 212 116 27 6 32 4 32 -12 0 -11 -7 -32
-16 -49 -33 -63 -44 -112 -44 -200 0 -84 2 -94 41 -171 48 -99 138 -191 226
-232 l58 -27 2270 0 2270 0 67 33 c82 40 163 125 210 219 30 62 33 77 36 176
4 119 -1 141 -54 220 -59 90 -142 132 -294 148 -47 5 -247 9 -445 9 -198 0
-378 5 -400 10 -55 13 -75 40 -75 105 0 51 -1 53 -31 59 -32 6 -3640 6 -3694
-1z m4721 -362 c84 -38 139 -149 116 -235 -23 -81 -81 -137 -162 -155 -66 -15
-4461 -15 -4531 0 -111 24 -185 140 -159 248 14 60 61 118 114 142 40 18 124
19 2311 19 2187 0 2271 -1 2311 -19z M3410 3007 c-100 -34 -157 -72 -250 -166
-99 -100 -165 -215 -199 -345 -30 -115 -31 -461 -1 -583 48 -199 161 -430 288
-586 321 -395 746 -447 1001 -122 59 75 102 149 137 236 50 125 54 150 54 395
0 209 -2 238 -23 320 -95 363 -321 670 -592 803 -55 27 -124 54 -153 60 -87
18 -189 13 -262 -12z m303 -207 c221 -83 421 -325 515 -620 43 -137 57 -228
55 -370 -2 -205 -53 -355 -160 -470 -320 -346 -887 46 -999 690 -22 128 -15
324 16 430 53 183 156 304 299 352 73 24 193 19 274 -12z"/>
</g>
</svg>
