<?xml version="1.0" standalone="no"?>
<!DOCTYPE svg PUBLIC "-//W3C//DTD SVG 20010904//EN"
 "http://www.w3.org/TR/2001/REC-SVG-20010904/DTD/svg10.dtd">
<svg version="1.0" xmlns="http://www.w3.org/2000/svg"
 width="2048.000000pt" height="2048.000000pt" viewBox="0 0 2048.000000 2048.000000"
 preserveAspectRatio="xMidYMid meet">
<metadata>
Created by potrace 1.13, written by Peter Selinger 2001-2015
</metadata>
<g transform="translate(0.000000,2048.000000) scale(0.192120,-0.192120)"
fill="#000000" stroke="none">
<path d="M4945 10039 c-337 -25 -695 -92 -993 -185 -1161 -362 -1980 -1250
-2187 -2369 -57 -310 -60 -698 -9 -1100 65 -519 241 -915 404 -915 60 0 93 45
120 167 155 701 433 1256 841 1677 107 111 246 236 262 236 4 0 75 -55 159
-123 713 -571 1147 -719 1234 -420 17 57 15 189 -2 253 -5 17 49 -30 168 -146
283 -276 545 -488 681 -549 107 -49 162 -40 185 29 27 83 -30 302 -147 557
-32 71 -56 129 -52 129 4 0 25 -18 46 -40 126 -129 419 -264 770 -353 332 -85
784 -145 1238 -163 l168 -7 299 -597 c253 -506 307 -606 350 -653 61 -67 103
-84 152 -64 59 25 112 104 165 247 13 36 26 72 29 80 3 8 21 -61 40 -155 21
-104 55 -228 87 -320 l52 -150 0 -300 0 -300 -38 -110 c-54 -155 -106 -260
-163 -330 -62 -76 -72 -85 -170 -145 -87 -53 -191 -155 -224 -219 -10 -21 -29
-76 -40 -122 -87 -349 -87 -350 -214 -654 -37 -88 -91 -219 -121 -291 -94
-231 -158 -343 -325 -574 -137 -188 -237 -296 -434 -465 -520 -447 -1039 -680
-1656 -745 -122 -13 -458 -13 -580 0 -538 56 -1043 258 -1470 588 -238 185
-390 336 -555 552 -140 184 -226 323 -344 552 -158 306 -248 547 -339 911 -27
105 -58 210 -69 232 -38 74 -139 171 -244 236 -149 92 -235 198 -298 369 -48
131 -51 161 -51 492 0 307 1 316 25 402 15 48 43 125 65 171 51 109 75 185
100 312 27 140 27 138 -11 116 -90 -53 -223 -232 -289 -388 -82 -198 -114
-371 -114 -620 0 -204 13 -299 60 -462 96 -333 291 -568 519 -628 32 -8 59
-16 60 -17 1 -2 10 -43 19 -93 9 -49 35 -157 56 -240 183 -711 527 -1333 1000
-1805 492 -493 1071 -789 1740 -891 136 -21 190 -24 435 -23 307 0 442 14 690
74 1058 252 1906 1056 2341 2219 66 176 143 441 180 621 15 74 28 136 29 138
1 1 28 9 60 17 229 60 423 295 520 630 45 155 59 264 59 460 0 196 -14 305
-59 460 -58 200 -141 353 -251 463 l-73 74 15 64 c56 245 87 599 88 1034 1
364 -2 397 -51 620 -194 889 -871 1706 -1788 2159 -452 224 -899 345 -1440
391 -139 11 -550 11 -710 -1z m568 -269 c217 -11 308 -20 497 -51 1008 -167
1883 -742 2362 -1554 110 -186 203 -412 259 -631 l40 -159 -4 -620 c-4 -620
-4 -620 -30 -770 -15 -82 -27 -166 -27 -187 0 -38 -27 -78 -51 -78 -34 0 -95
105 -318 550 -228 453 -243 478 -298 532 -99 94 -150 110 -393 123 -381 20
-749 71 -1055 145 -212 51 -347 97 -540 185 -88 40 -175 78 -194 84 -84 28
-147 5 -201 -74 l-32 -46 6 -102 c3 -56 8 -139 12 -184 6 -77 5 -83 -13 -83
-23 0 -150 100 -343 270 -290 257 -348 286 -437 221 -52 -37 -85 -81 -119
-155 -15 -32 -35 -67 -45 -77 -11 -11 -19 -23 -19 -29 0 -20 -96 -9 -178 19
-142 49 -368 187 -610 369 -275 209 -315 232 -397 232 -98 0 -204 -71 -380
-252 -321 -329 -555 -718 -748 -1243 -24 -66 -49 -140 -55 -165 -16 -65 -51
-140 -68 -147 -8 -3 -21 3 -29 13 -26 36 -74 201 -102 350 -27 146 -27 157
-31 614 -4 489 -2 521 43 720 58 255 198 582 345 805 304 460 744 824 1279
1057 426 186 927 295 1451 317 96 5 186 8 200 9 14 1 114 -3 223 -8z M3855
5593 c-68 -25 -107 -54 -144 -109 -48 -73 -53 -120 -49 -466 4 -349 4 -351 76
-430 108 -120 296 -118 409 5 71 77 74 103 71 484 l-3 328 -30 53 c-67 123
-206 179 -330 135z M6659 5604 c-82 -15 -184 -114 -209 -202 -6 -22 -10 -167
-10 -348 0 -358 4 -387 73 -461 113 -123 301 -125 409 -5 74 82 73 76 73 462
0 380 0 377 -65 460 -54 68 -176 110 -271 94z M4959 3646 c-112 -40 -181 -141
-181 -263 0 -114 74 -221 180 -257 38 -13 103 -16 372 -16 364 0 385 3 458 66
153 131 114 380 -72 465 -38 17 -69 19 -381 18 -252 0 -349 -3 -376 -13z m645
-205 c70 -12 86 -47 42 -98 l-24 -28 -295 0 -295 0 -26 24 c-47 44 -32 87 35
100 56 11 498 12 563 2z M6638 2546 c-21 -8 -48 -21 -60 -30 -13 -9 -38 -28
-56 -41 -109 -79 -426 -155 -777 -186 -168 -14 -663 -14 -830 0 -376 33 -657
104 -799 201 -72 49 -123 64 -201 57 -236 -18 -336 -311 -163 -473 247 -233
901 -368 1703 -351 574 12 967 85 1274 234 186 91 271 193 271 327 0 146 -133
277 -279 276 -25 -1 -63 -7 -83 -14z m120 -222 c18 -5 22 -13 22 -49 0 -61
-32 -94 -143 -149 -163 -80 -437 -146 -759 -183 -197 -22 -854 -25 -1053 -5
-567 59 -993 212 -959 346 13 52 109 46 234 -14 212 -103 466 -163 800 -189
237 -19 455 -22 670 -12 457 23 708 73 959 191 144 67 180 77 229 64z"/>
</g>
</svg>
