<?xml version="1.0" standalone="no"?>
<!DOCTYPE svg PUBLIC "-//W3C//DTD SVG 20010904//EN"
 "http://www.w3.org/TR/2001/REC-SVG-20010904/DTD/svg10.dtd">
<svg version="1.0" xmlns="http://www.w3.org/2000/svg"
 width="2048.000000pt" height="2048.000000pt" viewBox="0 0 2048.000000 2048.000000"
 preserveAspectRatio="xMidYMid meet">
<metadata>
Created by potrace 1.13, written by Peter Selinger 2001-2015
</metadata>
<g transform="translate(0.000000,2048.000000) scale(0.192120,-0.192120)"
fill="#000000" stroke="none">
<path d="M5085 10043 c-1110 -93 -2237 -669 -2993 -1528 -745 -847 -1146
-1912 -1202 -3195 -21 -473 -10 -1656 20 -2275 57 -1163 215 -1917 470 -2247
98 -126 195 -180 340 -186 241 -10 533 63 1175 295 479 174 725 256 952 318
l122 33 124 -64 c275 -142 538 -228 852 -281 158 -26 612 -26 770 0 213 36
440 98 633 176 61 24 262 124 309 152 l31 20 149 -41 c202 -56 484 -149 888
-295 727 -262 909 -309 1205 -310 142 0 186 3 235 18 201 62 337 215 419 472
146 451 186 1143 189 3235 2 1128 0 1197 -59 1599 -159 1105 -594 2017 -1309
2749 -735 754 -1780 1259 -2795 1351 -105 10 -429 12 -525 4z m720 -302 c1197
-185 2298 -877 2952 -1856 355 -532 566 -1081 700 -1822 l38 -208 0 -1930 c0
-2118 2 -2032 -60 -2405 -34 -202 -40 -226 -76 -336 -53 -158 -139 -262 -247
-295 -20 -6 -91 -13 -158 -16 -258 -11 -479 46 -1249 322 -402 144 -425 154
-425 190 0 8 78 92 173 187 359 359 604 700 841 1176 267 533 440 1104 516
1700 26 197 28 582 5 693 -33 154 -131 395 -212 518 -292 446 -752 754 -1353
906 -241 61 -461 90 -775 100 -411 14 -727 75 -1165 224 -321 109 -554 207
-945 402 -305 151 -384 179 -450 161 -105 -30 -157 -74 -610 -522 -359 -356
-484 -472 -680 -635 -392 -325 -538 -485 -658 -722 -66 -131 -102 -229 -132
-365 -26 -117 -17 -656 14 -848 98 -614 256 -1115 512 -1623 234 -464 503
-833 863 -1185 86 -84 156 -160 156 -170 0 -37 2 -37 -510 -220 -512 -184
-719 -246 -926 -277 -127 -19 -207 -19 -274 1 -212 63 -373 523 -469 1344 -57
479 -54 405 -58 1985 -3 1294 -2 1485 12 1595 137 1087 532 1951 1210 2649
634 653 1517 1119 2398 1266 238 39 303 44 612 40 236 -2 316 -7 430 -24z
m-1733 -2540 c368 -206 826 -408 1227 -541 447 -149 830 -220 1189 -220 306 0
674 -62 961 -162 162 -56 386 -166 516 -252 394 -263 631 -625 685 -1048 16
-129 -24 -524 -86 -843 -178 -905 -575 -1708 -1133 -2288 -206 -214 -423 -393
-625 -516 l-99 -60 -34 26 c-53 41 -111 42 -219 3 -623 -225 -1132 -273 -1691
-160 -179 36 -380 93 -513 145 -52 20 -121 39 -153 42 -53 5 -61 3 -101 -25
l-43 -31 -98 59 c-422 258 -850 706 -1155 1210 -392 648 -627 1412 -690 2247
-19 242 24 472 125 679 99 205 236 354 570 624 249 202 322 270 805 754 234
234 428 426 432 426 4 0 63 -31 130 -69z M3857 5316 c-98 -35 -166 -111 -187
-210 -8 -33 -10 -157 -8 -361 3 -302 4 -311 27 -363 43 -96 145 -162 251 -162
75 0 139 27 197 85 80 80 83 99 83 470 0 371 -3 390 -83 470 -79 78 -184 105
-280 71z M6620 5313 c-26 -9 -66 -38 -96 -68 -81 -80 -84 -99 -84 -470 0 -361
4 -383 76 -463 131 -147 363 -113 451 66 l28 57 0 340 c0 324 -1 342 -21 385
-30 65 -70 107 -128 137 -65 33 -161 40 -226 16z M4964 3928 c-17 -6 -53 -27
-80 -47 -164 -124 -136 -379 51 -467 50 -24 53 -24 395 -24 342 0 345 0 395
24 207 98 212 392 8 496 l-48 25 -345 2 c-214 1 -357 -3 -376 -9z m586 -236
c36 -6 46 -11 48 -29 5 -34 -27 -38 -273 -38 -246 0 -278 4 -273 38 2 17 12
23 43 28 55 9 400 9 455 1z M4396 2810 c-98 -38 -165 -130 -174 -236 -10 -129
48 -216 222 -329 157 -102 341 -175 549 -217 97 -20 142 -23 337 -23 249 0
356 15 541 75 249 82 488 238 544 355 61 129 4 295 -125 360 -110 56 -209 41
-330 -50 -175 -133 -365 -189 -635 -189 -281 1 -440 53 -668 219 -81 58 -170
70 -261 35z m215 -300 c32 -16 77 -41 99 -55 51 -32 200 -105 200 -98 0 3 6 1
13 -4 6 -6 24 -13 40 -17 15 -4 27 -13 27 -22 0 -13 -7 -15 -37 -9 -21 5 -46
8 -55 9 -10 0 -18 4 -18 9 0 4 -4 6 -9 3 -13 -8 -173 49 -246 87 -71 38 -127
91 -119 112 9 23 40 18 105 -15z m1537 9 c7 -37 -101 -108 -253 -165 -38 -15
-80 -27 -92 -28 -13 0 -23 -3 -23 -6 0 -3 -8 -6 -17 -6 -10 -1 -35 -4 -55 -9
-31 -6 -38 -4 -38 9 0 9 5 17 10 17 16 2 22 5 62 22 21 10 41 17 45 17 5 0 58
28 118 61 181 102 199 110 220 107 11 -2 21 -10 23 -19z m-492 -227 c-4 -3
-12 0 -19 7 -9 9 -9 14 3 21 11 7 16 5 18 -6 2 -9 1 -18 -2 -22z m-628 16 c-6
-18 -28 -21 -28 -4 0 9 7 16 16 16 9 0 14 -5 12 -12z m44 -13 c0 -5 -5 -11
-11 -13 -6 -2 -11 4 -11 13 0 9 5 15 11 13 6 -2 11 -8 11 -13z m528 -1 c0 -8
-4 -12 -10 -9 -5 3 -10 10 -10 16 0 5 5 9 10 9 6 0 10 -7 10 -16z m-456 -3 c3
-5 -1 -11 -9 -15 -9 -3 -15 0 -15 9 0 16 16 20 24 6z m396 -6 c0 -9 -6 -12
-15 -9 -8 4 -12 10 -9 15 8 14 24 10 24 -6z"/>
</g>
</svg>
