<?xml version="1.0" standalone="no"?>
<!DOCTYPE svg PUBLIC "-//W3C//DTD SVG 20010904//EN"
 "http://www.w3.org/TR/2001/REC-SVG-20010904/DTD/svg10.dtd">
<svg version="1.0" xmlns="http://www.w3.org/2000/svg"
 width="2048.000000pt" height="2048.000000pt" viewBox="0 0 2048.000000 2048.000000"
 preserveAspectRatio="xMidYMid meet">
<metadata>
Created by potrace 1.13, written by Peter Selinger 2001-2015
</metadata>
<g transform="translate(0.000000,2048.000000) scale(0.192120,-0.192120)"
fill="#000000" stroke="none">
<path d="M4950 10039 c-835 -63 -1543 -321 -2111 -770 -132 -103 -371 -343
-477 -477 -323 -408 -536 -894 -613 -1404 -63 -420 -13 -1119 106 -1473 l34
-100 -22 -14 c-12 -8 -58 -51 -103 -95 -150 -150 -253 -373 -301 -656 -22
-130 -23 -422 0 -550 49 -283 153 -507 307 -661 82 -82 186 -143 269 -157 l44
-7 32 -150 c123 -570 352 -1104 662 -1542 173 -246 425 -516 638 -687 547
-438 1158 -666 1835 -683 507 -13 947 82 1395 302 327 160 584 344 846 605
527 525 891 1226 1062 2045 l23 110 45 7 c175 30 367 218 473 464 151 347 164
805 34 1173 -58 165 -130 284 -234 391 l-63 65 24 120 c77 374 108 1123 61
1430 -157 1007 -939 1951 -1992 2404 -406 175 -814 274 -1278 311 -150 12
-530 11 -696 -1z m760 -140 c1126 -99 2124 -692 2698 -1601 126 -198 197 -348
299 -628 104 -287 105 -297 100 -902 -3 -458 -6 -529 -25 -663 -12 -82 -22
-190 -22 -238 0 -79 3 -92 25 -122 24 -31 25 -36 14 -81 -14 -60 -64 -171 -86
-196 -29 -32 -4 -33 30 -1 71 68 103 64 166 -19 56 -75 107 -187 136 -302 23
-93 25 -114 25 -357 l0 -259 -49 -148 c-93 -284 -181 -408 -366 -519 -156 -92
-194 -144 -235 -323 -54 -236 -93 -355 -186 -575 -53 -126 -119 -284 -146
-350 -66 -162 -115 -260 -195 -388 -115 -182 -242 -345 -373 -477 -567 -572
-1153 -874 -1855 -955 -171 -20 -501 -19 -674 1 -665 77 -1239 359 -1769 868
-104 99 -314 364 -425 536 -234 363 -406 771 -527 1255 -24 94 -56 195 -71
226 -34 69 -94 123 -206 186 -47 26 -104 67 -128 90 -102 98 -183 244 -230
409 -26 91 -26 91 -23 435 l3 344 28 80 c40 114 94 218 151 290 75 96 111 102
199 32 23 -18 56 -42 72 -52 23 -14 19 -6 -22 37 -46 49 -109 155 -127 215 -5
15 0 32 16 53 19 27 22 42 21 108 -1 42 -15 142 -32 222 -51 252 -53 285 -49
835 l4 510 37 140 c87 339 218 628 413 912 296 429 674 753 1159 993 484 239
1011 366 1645 394 114 5 451 -4 580 -15z M3277 7461 c-240 -206 -484 -523
-646 -841 -159 -312 -250 -563 -332 -920 -17 -74 -36 -143 -41 -152 -15 -31 0
-19 21 16 12 18 39 102 61 185 109 415 222 694 413 1021 138 235 372 516 517
619 57 41 70 46 115 45 58 -1 91 -20 271 -156 271 -205 536 -365 691 -417 33
-11 101 -25 150 -31 77 -10 99 -9 147 5 76 22 105 50 150 139 25 51 46 81 65
90 26 14 30 13 84 -28 31 -23 71 -55 89 -71 259 -233 378 -328 493 -394 84
-48 93 -51 160 -51 38 0 75 4 82 8 6 4 -13 7 -42 8 -127 1 -351 162 -746 537
l-195 185 4 -108 c6 -133 -11 -192 -67 -243 -52 -47 -99 -61 -180 -54 -216 19
-555 213 -1000 572 -68 55 -132 106 -141 113 -16 12 -30 3 -123 -77z M5676
7126 c66 -151 107 -265 129 -361 l14 -60 -5 80 c-2 44 -7 115 -10 158 -9 111
-10 110 83 78 43 -16 92 -35 109 -44 45 -23 284 -104 379 -128 349 -89 776
-149 1245 -174 131 -7 169 -20 213 -70 9 -11 108 -200 218 -420 271 -537 369
-707 436 -750 l28 -18 -31 34 c-52 57 -83 115 -375 700 l-282 566 -191 6
c-212 7 -435 27 -661 58 -603 82 -1036 224 -1279 419 l-82 66 62 -140z M5802
6572 c-11 -25 -11 -25 4 -10 9 9 15 21 13 27 -2 6 -10 -2 -17 -17z M3852 5592
c-73 -27 -122 -69 -157 -137 l-30 -59 0 -345 c0 -387 -1 -381 73 -463 108
-120 296 -118 409 5 71 77 74 103 71 484 l-3 328 -30 53 c-68 124 -206 179
-333 134z M6659 5604 c-82 -15 -184 -114 -209 -202 -6 -22 -10 -167 -10 -348
0 -358 4 -387 73 -461 113 -123 301 -125 409 -5 74 82 73 76 73 462 0 380 0
377 -65 460 -54 68 -176 110 -271 94z M4944 3641 c-187 -85 -226 -334 -72
-465 73 -63 94 -66 458 -66 364 0 385 3 458 66 154 131 115 380 -72 465 -38
17 -70 19 -386 19 -316 0 -348 -2 -386 -19z M6649 2551 c-36 -11 -65 -28 -115
-66 -114 -88 -418 -163 -789 -195 -166 -15 -663 -15 -825 -1 -381 34 -662 104
-803 200 -77 53 -116 64 -196 59 -103 -8 -181 -59 -229 -152 -21 -41 -26 -65
-25 -121 0 -116 47 -188 171 -266 317 -200 889 -301 1617 -286 574 12 967 85
1274 234 189 93 271 192 271 329 0 173 -187 314 -351 265z m-2544 -331 c106
-50 225 -100 225 -95 0 2 17 -3 37 -12 21 -8 49 -17 63 -19 14 -2 36 -7 50
-11 14 -3 29 -5 33 -5 15 4 48 -19 42 -29 -8 -11 -45 -12 -45 0 0 4 -11 6 -25
3 -14 -2 -25 0 -25 7 0 5 -6 8 -14 5 -7 -3 -38 1 -67 9 -30 8 -62 13 -72 11
-9 -1 -17 2 -17 8 0 6 -7 8 -15 4 -8 -3 -15 -1 -15 4 0 5 -6 7 -13 4 -28 -10
-258 86 -286 120 -7 9 -10 23 -7 32 8 21 50 12 151 -36z m2602 42 c18 -11 -25
-55 -82 -85 -66 -34 -193 -78 -227 -79 -16 -1 -28 -4 -28 -9 0 -4 -8 -6 -17
-5 -10 2 -42 -3 -72 -11 -29 -8 -60 -12 -67 -9 -8 3 -14 1 -14 -5 0 -6 -10 -9
-22 -8 -13 1 -31 -2 -41 -6 -27 -11 -44 10 -19 24 10 6 22 8 25 5 3 -3 14 -1
24 4 10 5 34 12 53 15 56 9 175 54 310 118 122 57 153 66 177 51z m-2094 -217
c1 -6 -8 -11 -20 -13 -18 -3 -23 2 -23 17 0 16 4 19 21 13 11 -5 21 -12 22
-17z m1477 5 c0 -13 -7 -20 -19 -20 -41 0 -29 28 17 39 1 1 2 -8 2 -19z
m-1406 -9 c3 -5 -1 -12 -10 -15 -25 -10 -34 -7 -34 9 0 16 35 21 44 6z m1336
-6 c0 -16 -9 -19 -34 -9 -20 8 -11 24 15 24 10 0 19 -7 19 -15z m-1265 -1 c13
-5 14 -8 3 -15 -20 -13 -38 -11 -38 6 0 16 9 19 35 9z m1185 -9 c0 -16 -9 -19
-34 -9 -20 8 -11 24 15 24 10 0 19 -7 19 -15z m-1086 -4 c3 -5 -1 -12 -10 -15
-25 -10 -34 -7 -34 9 0 16 35 21 44 6z m996 -6 c0 -16 -9 -19 -34 -9 -20 8
-11 24 15 24 10 0 19 -7 19 -15z m-870 -5 c8 -5 11 -10 5 -10 -5 0 -20 -3 -32
-6 -17 -5 -23 -2 -23 10 0 18 27 21 50 6z m750 -6 c0 -12 -6 -15 -22 -10 -13
3 -30 6 -38 7 -10 0 -8 3 5 9 32 14 55 11 55 -6z m-200 -9 c0 -6 -73 -10 -200
-10 -127 0 -200 4 -200 10 0 6 73 10 200 10 127 0 200 -4 200 -10z"/>
</g>
</svg>
