<?xml version="1.0" standalone="no"?>
<!DOCTYPE svg PUBLIC "-//W3C//DTD SVG 20010904//EN"
 "http://www.w3.org/TR/2001/REC-SVG-20010904/DTD/svg10.dtd">
<svg version="1.0" xmlns="http://www.w3.org/2000/svg"
 width="2048.000000pt" height="2048.000000pt" viewBox="0 0 2048.000000 2048.000000"
 preserveAspectRatio="xMidYMid meet">
<metadata>
Created by potrace 1.13, written by Peter Selinger 2001-2015
</metadata>
<g transform="translate(0.000000,2048.000000) scale(0.192120,-0.192120)"
fill="#000000" stroke="none">
<path d="M6045 10319 c-1013 -61 -1620 -383 -2116 -1122 -164 -244 -237 -458
-274 -797 -45 -420 -66 -529 -127 -661 -72 -153 -220 -325 -375 -433 -46 -32
-92 -69 -103 -83 -60 -77 13 -154 221 -232 118 -44 342 -102 521 -135 l122
-22 18 -105 c9 -57 21 -117 26 -134 8 -27 4 -35 -44 -88 -125 -135 -190 -318
-201 -562 -12 -277 75 -532 230 -676 35 -33 118 -79 141 -79 17 0 18 -4 41
-145 78 -486 309 -1004 615 -1380 127 -155 336 -355 450 -431 l40 -27 0 -188
0 -189 -91 0 -92 0 6 -67 c15 -161 88 -327 205 -473 86 -106 155 -170 407
-380 327 -273 497 -464 605 -685 94 -190 145 -403 157 -657 l6 -128 -23 0
c-12 0 -40 -5 -61 -11 -44 -14 -55 -9 -264 131 -490 328 -852 661 -1156 1066
-224 298 -394 630 -415 810 l-6 51 89 5 c79 3 93 7 133 35 50 34 113 100 178
187 24 32 65 71 93 88 54 34 61 56 29 88 -28 28 -47 25 -126 -15 -85 -43 -174
-110 -309 -231 l-104 -94 -193 0 c-223 0 -329 -11 -484 -50 -299 -75 -553
-220 -774 -440 -181 -182 -319 -404 -400 -647 -75 -228 -90 -356 -90 -779 l0
-304 3890 0 3890 0 0 323 c0 177 -5 362 -10 412 -79 689 -566 1255 -1230 1431
-153 40 -277 54 -498 54 l-204 0 -86 81 c-105 97 -261 217 -323 247 -89 43
-130 37 -143 -20 -5 -24 -2 -30 31 -47 43 -22 89 -68 157 -158 92 -122 162
-162 280 -160 42 1 76 1 76 0 0 -32 -38 -173 -65 -244 -150 -391 -540 -904
-965 -1271 -191 -165 -506 -397 -703 -517 l-67 -41 -65 12 -65 13 0 60 c0 84
26 298 49 402 34 152 100 319 169 427 113 176 308 379 562 586 271 222 415
371 495 514 48 86 94 231 102 320 l6 76 -92 0 -91 0 2 187 3 187 85 65 c121
92 351 326 452 461 237 314 409 671 508 1051 21 85 48 206 58 270 11 64 22
121 25 126 4 6 19 14 34 18 45 11 120 63 161 113 89 107 142 225 174 386 26
131 21 346 -12 476 -27 110 -97 253 -154 316 l-44 50 14 95 c7 52 14 110 14
129 0 72 5 76 88 90 337 53 686 170 761 255 59 67 41 108 -92 204 -96 70 -235
209 -301 300 -88 124 -144 299 -171 542 -48 428 -63 520 -112 668 -121 366
-435 747 -836 1015 -572 382 -1317 542 -2262 485z m-104 -143 c19 -13 54 -30
77 -37 23 -7 42 -15 42 -18 0 -3 174 -5 388 -5 l387 1 76 36 77 35 6 -46 c3
-25 6 -712 6 -1525 0 -814 1 -1481 2 -1483 2 -1 143 2 313 7 583 16 1166 74
1861 184 155 25 288 45 296 45 10 0 19 -21 28 -71 20 -114 4 -128 -191 -174
-219 -52 -271 -68 -299 -92 -34 -28 -50 -76 -50 -149 0 -50 -1 -52 -32 -57
-185 -32 -288 -48 -368 -57 -52 -6 -114 -13 -137 -16 l-42 -5 -11 43 c-30 122
-57 143 -175 136 -92 -6 -152 -32 -188 -80 -23 -31 -35 -122 -18 -132 6 -4 87
0 180 9 124 12 175 14 189 6 35 -19 151 -172 197 -262 24 -47 56 -125 71 -175
25 -82 28 -103 28 -264 1 -206 -13 -269 -94 -435 -123 -253 -351 -439 -625
-511 -83 -22 -122 -27 -235 -27 -180 -1 -290 24 -445 101 -207 102 -394 309
-471 518 l-27 74 -317 0 -318 0 -17 -52 c-43 -133 -165 -315 -272 -404 -192
-162 -395 -238 -638 -238 -176 0 -287 26 -440 102 -150 74 -290 201 -384 347
-241 376 -186 897 127 1199 l41 39 163 -17 c217 -22 198 -24 198 30 0 60 -31
115 -80 143 -52 29 -192 47 -242 30 -40 -13 -69 -57 -88 -135 l-10 -40 -79 8
c-96 9 -346 45 -411 59 l-47 10 -7 67 c-8 76 -28 124 -60 145 -25 17 -83 33
-275 77 -218 49 -230 60 -211 184 l13 77 46 -7 c25 -3 125 -19 221 -35 486
-79 978 -139 1435 -175 192 -15 762 -35 778 -27 4 2 7 692 7 1534 0 841 3
1529 8 1529 4 0 23 -11 43 -24z m-332 -1409 l1 -1358 -57 5 c-32 3 -112 8
-178 11 -220 10 -617 46 -905 81 -355 43 -764 103 -843 125 l-37 10 57 48
c145 122 167 179 213 563 42 352 68 470 137 615 99 212 239 406 428 595 246
247 489 397 825 509 85 28 157 55 158 60 2 5 12 9 23 9 10 0 19 4 19 9 0 5 11
12 25 15 14 4 25 11 25 16 0 5 21 25 47 45 43 32 48 34 54 18 4 -10 8 -629 8
-1376z m1749 1311 c48 -45 155 -97 322 -160 370 -138 675 -340 912 -602 299
-331 388 -546 443 -1071 19 -182 48 -337 75 -401 27 -61 70 -114 136 -169 l54
-43 -48 -11 c-334 -71 -1227 -175 -1687 -196 -71 -3 -167 -8 -212 -11 l-83 -6
0 1305 c0 717 3 1332 6 1365 8 69 7 69 82 0z m-3310 -3743 c17 -33 42 -75 55
-93 27 -36 27 -38 -17 -157 -23 -64 -6 -351 29 -470 53 -186 139 -331 274
-465 176 -175 379 -271 631 -300 229 -27 491 39 690 173 134 90 376 319 411
390 12 23 27 45 33 49 6 4 135 8 286 8 151 0 280 -4 286 -8 6 -4 21 -25 32
-47 25 -51 257 -276 365 -357 352 -261 805 -285 1179 -62 108 65 277 231 342
336 61 99 111 224 138 340 25 113 28 323 6 405 l-15 52 28 20 c36 27 83 125
112 237 l24 89 13 -85 c8 -54 10 -123 6 -190 -3 -58 -11 -179 -16 -270 -12
-209 -20 -259 -54 -344 -32 -78 -66 -131 -146 -231 -130 -161 -134 -170 -275
-545 -111 -296 -213 -555 -246 -625 -42 -90 -153 -258 -240 -361 -38 -45 -122
-129 -187 -187 -151 -134 -237 -227 -284 -308 -41 -68 -47 -111 -27 -183 13
-49 11 -51 -146 -129 -275 -137 -572 -206 -885 -207 -328 0 -611 64 -895 204
-178 88 -170 80 -156 148 15 72 5 114 -49 198 -41 62 -82 105 -276 290 -126
121 -271 306 -349 445 -169 303 -194 359 -310 713 -99 296 -130 360 -264 536
-189 249 -188 246 -194 676 -2 190 0 360 6 409 l10 84 22 -59 c12 -33 36 -86
53 -119z m4652 -9 c0 -12 -5 -7 -19 24 -11 24 -11 24 3 6 9 -11 16 -24 16 -30z
m34 -86 c3 -14 -3 -7 -13 15 -11 22 -20 45 -20 50 0 15 26 -37 33 -65z m-3082
-3449 c259 -125 596 -179 951 -153 344 26 567 97 802 257 l95 64 0 -61 c0 -57
2 -63 36 -94 22 -22 50 -36 75 -40 l39 -7 0 -143 0 -144 -27 -11 c-81 -33
-173 -83 -208 -116 -22 -20 -132 -113 -245 -207 -247 -204 -436 -390 -470
-461 -17 -35 -26 -74 -30 -130 l-5 -80 -75 -13 c-76 -14 -268 -10 -340 6 l-35
8 -6 79 c-4 51 -13 94 -27 120 -44 86 -202 245 -428 432 -39 32 -119 99 -178
148 -189 159 -213 177 -278 200 l-63 23 -3 141 c-2 108 0 142 10 145 118 34
143 60 142 146 l-1 57 93 -63 c51 -35 130 -81 176 -103z m-1269 -540 c13 -16
67 -116 120 -223 224 -454 576 -890 1024 -1266 68 -57 127 -111 133 -121 14
-28 -8 -41 -87 -52 -37 -4 -677 -8 -1420 -9 l-1353 0 0 284 c0 306 6 362 56
501 65 182 165 336 314 485 242 243 556 387 920 423 19 2 87 5 152 5 l116 2
25 -29z m4547 4 c114 -20 306 -83 402 -131 333 -168 574 -439 691 -777 l31
-92 4 -337 3 -338 -1343 1 c-739 0 -1373 3 -1411 8 -77 8 -106 27 -87 57 7 11
62 60 123 109 243 199 557 530 716 755 180 255 259 394 395 693 36 78 41 80
221 74 88 -3 203 -13 255 -22z M5690 6835 c-26 -8 -55 -25 -67 -37 -23 -26
-43 -79 -43 -113 0 -25 3 -26 262 -41 l108 -6 44 -66 c24 -37 51 -82 60 -99
l17 -33 372 0 373 0 18 38 c9 20 36 65 58 98 l41 62 106 6 c58 4 141 9 185 12
l78 6 -5 45 c-11 97 -75 138 -212 137 -59 0 -102 -6 -126 -16 -39 -17 -92 -89
-110 -149 l-11 -36 -112 -6 c-143 -9 -410 -9 -564 -1 l-120 7 -11 41 c-13 53
-62 121 -101 141 -44 23 -183 29 -240 10z M4918 6661 c-181 -77 -317 -225
-385 -416 -25 -73 -28 -92 -28 -220 0 -131 2 -145 31 -226 62 -175 186 -315
349 -394 283 -139 598 -80 813 150 124 133 185 287 184 470 0 122 -19 200 -75
315 -52 106 -167 228 -269 284 l-68 37 -197 15 c-268 19 -277 18 -355 -15z
m397 -242 c80 -15 128 -41 190 -103 80 -81 85 -97 85 -291 l0 -168 -30 -52
c-153 -268 -636 -249 -766 29 -22 46 -24 64 -23 196 0 120 3 151 18 179 31 58
131 150 205 187 64 32 75 34 166 34 53 0 123 -5 155 -11z M7730 6684 c-14 -2
-92 -8 -173 -13 l-148 -9 -69 -41 c-144 -86 -248 -212 -304 -370 -29 -80 -31
-95 -31 -226 0 -131 2 -146 31 -226 133 -372 546 -564 904 -422 149 60 292
185 363 320 76 145 100 330 63 488 -45 192 -186 369 -360 456 -82 40 -96 44
-170 45 -45 1 -92 0 -106 -2z m145 -283 c70 -33 175 -126 199 -175 13 -27 16
-68 16 -201 l0 -168 -30 -52 c-153 -268 -636 -249 -766 29 -22 46 -24 65 -24
194 0 164 8 188 88 274 90 96 171 126 352 127 96 1 110 -2 165 -28z M6167
5250 c-69 -21 -126 -90 -141 -170 -10 -59 17 -131 68 -178 63 -58 105 -65 381
-60 l230 3 47 28 c113 66 138 211 55 312 -57 70 -79 75 -362 74 -137 0 -263
-5 -278 -9z M5515 4263 c-53 -9 -67 -16 -101 -45 -44 -39 -64 -82 -64 -140 1
-122 144 -221 420 -289 170 -42 319 -59 570 -66 434 -11 780 39 1006 146 122
58 172 109 188 190 14 75 -47 177 -121 202 -47 15 -119 6 -152 -20 -101 -81
-300 -131 -604 -152 -255 -18 -591 2 -783 47 -89 20 -183 57 -232 89 -43 28
-94 43 -127 38z M337 5678 c-22 -407 10 -851 83 -1131 102 -397 273 -587 528
-587 134 0 250 37 406 129 288 170 364 400 223 676 -114 224 -418 513 -822
783 -109 73 -400 252 -408 252 -2 0 -7 -55 -10 -122z m390 -409 c467 -284 679
-548 587 -730 -42 -84 -210 -186 -322 -196 -169 -15 -281 134 -328 437 -25
163 -31 530 -9 530 3 0 35 -19 72 -41z M1655 4053 c-11 -3 -168 -86 -348 -186
-362 -199 -387 -218 -408 -311 -15 -69 -6 -99 81 -257 84 -152 110 -185 165
-210 66 -30 132 -25 210 17 37 19 68 34 70 32 1 -2 20 -50 42 -108 111 -289
180 -558 225 -874 20 -142 21 -200 25 -988 l4 -838 277 0 277 0 -2 787 c-2
446 -7 849 -13 928 -34 440 -144 865 -325 1251 -25 53 -45 98 -45 100 0 1 20
14 45 29 80 46 125 142 106 225 -13 57 -146 297 -189 343 -49 51 -131 76 -197
60z m85 -299 c48 -52 56 -70 65 -150 9 -78 29 -165 45 -193 10 -19 9 -25 -1
-33 -38 -24 -264 -150 -334 -186 l-80 -40 -33 53 c-25 41 -41 56 -70 66 -20 6
-39 15 -42 19 -3 3 -24 17 -48 30 -53 30 -102 103 -102 153 0 34 4 38 69 77
38 23 71 49 73 58 3 10 66 50 144 93 231 125 245 128 314 53z"/>
</g>
</svg>
