<?xml version="1.0" standalone="no"?>
<!DOCTYPE svg PUBLIC "-//W3C//DTD SVG 20010904//EN"
 "http://www.w3.org/TR/2001/REC-SVG-20010904/DTD/svg10.dtd">
<svg version="1.0" xmlns="http://www.w3.org/2000/svg"
 width="2048.000000pt" height="2048.000000pt" viewBox="0 0 2048.000000 2048.000000"
 preserveAspectRatio="xMidYMid meet">
<metadata>
Created by potrace 1.13, written by Peter Selinger 2001-2015
</metadata>
<g transform="translate(0.000000,2048.000000) scale(0.192120,-0.192120)"
fill="#000000" stroke="none">
<path d="M5000 10323 c-105 -10 -214 -25 -285 -39 -647 -127 -1238 -525 -1610
-1084 -215 -323 -333 -627 -397 -1025 -21 -125 -22 -168 -26 -1185 -3 -1066 0
-1231 33 -1452 19 -129 56 -285 96 -406 17 -52 29 -96 26 -98 -2 -2 -41 1 -88
7 -104 14 -343 6 -459 -15 -687 -125 -1225 -649 -1370 -1334 -17 -76 -23 -159
-30 -387 -5 -159 -14 -355 -20 -435 -30 -418 -114 -904 -220 -1280 -22 -78
-37 -146 -34 -152 18 -29 415 -203 624 -273 l125 -42 -58 -13 c-381 -79 -731
-349 -888 -686 -22 -45 -39 -85 -39 -88 0 -3 2228 -6 4951 -6 l4950 0 -6 23
c-17 55 -109 225 -162 299 -122 171 -322 339 -499 419 -38 17 -109 41 -157 54
l-88 22 108 38 c196 68 551 228 568 254 3 6 -5 48 -19 93 -153 507 -255 1237
-256 1820 0 536 -250 1037 -678 1358 -347 260 -796 383 -1201 329 -45 -6 -84
-9 -86 -7 -3 2 5 29 16 59 34 89 87 307 111 460 l23 144 0 1575 c0 1496 -1
1580 -19 1675 -109 584 -531 1003 -1134 1125 -142 28 -333 39 -473 27 -165
-15 -163 -15 -288 42 -215 99 -427 158 -650 181 -96 9 -311 11 -391 3z m505
-276 c143 -27 247 -57 415 -122 91 -34 190 -68 220 -74 30 -5 147 -9 260 -9
212 2 295 -6 445 -44 382 -96 677 -328 801 -631 69 -171 64 -20 61 -1938 -2
-1620 -4 -1741 -21 -1834 -28 -160 -15 -232 59 -313 l33 -37 -142 3 c-631 14
-1160 -277 -1520 -838 -27 -41 -45 -66 -41 -55 19 50 18 65 -5 65 -13 0 -20 5
-18 13 3 6 20 62 37 123 55 188 34 166 432 439 428 294 544 395 673 590 138
208 257 510 311 792 13 65 15 208 15 866 0 518 -3 787 -10 787 -5 0 -10 7 -10
15 0 22 -68 94 -109 114 -45 23 -61 26 -196 46 -164 24 -287 60 -410 120 -219
107 -361 254 -495 515 -71 137 -99 179 -148 215 -92 71 -166 39 -412 -174
-453 -393 -1108 -690 -1765 -800 -152 -26 -327 -48 -480 -61 -66 -5 -143 -16
-172 -23 -59 -16 -159 -89 -169 -124 -3 -13 -10 -23 -15 -23 -5 0 -9 -306 -9
-722 l0 -723 25 -110 c71 -312 237 -664 396 -840 68 -75 114 -118 209 -190 97
-76 407 -293 540 -380 203 -132 217 -148 271 -335 35 -118 36 -125 18 -128
-11 -2 -19 -11 -19 -20 0 -8 -27 24 -60 72 -88 130 -147 201 -247 297 -241
233 -510 376 -842 446 -113 24 -148 27 -338 27 l-213 1 30 28 c75 70 87 161
50 375 -20 114 -21 148 -18 1467 l3 1350 27 100 c102 380 260 670 525 960 379
416 913 679 1498 739 89 9 453 -3 530 -17z m685 -1517 c213 -423 568 -652
1072 -692 l148 -12 0 -693 c0 -729 -4 -809 -46 -999 -87 -394 -279 -740 -570
-1026 -208 -204 -425 -347 -689 -454 l-80 -32 -6 -259 c-6 -292 -13 -335 -81
-465 -130 -251 -424 -406 -697 -369 -270 36 -484 208 -576 463 -33 91 -37 135
-39 407 l-1 224 -55 19 c-96 32 -291 133 -409 212 -469 314 -772 766 -893
1330 -23 110 -25 171 -30 1057 l-3 406 135 6 c1030 47 1957 419 2600 1043
l114 112 32 -97 c18 -54 51 -135 74 -181z m-2863 -3676 c327 -48 636 -205 874
-443 136 -137 197 -229 259 -394 21 -56 63 -159 94 -229 l57 -126 -3 -98 -3
-97 -55 52 c-32 30 -87 67 -130 88 -262 125 -330 162 -427 229 -122 86 -190
143 -348 294 -179 170 -246 205 -337 175 -61 -19 -125 -59 -250 -151 -435
-323 -922 -493 -1641 -574 -121 -13 -193 -26 -224 -40 l-45 -20 4 118 c4 105
9 127 43 217 123 327 359 587 682 753 220 113 413 159 713 171 191 8 197 9
285 44 50 19 101 37 115 40 58 10 240 6 337 -9z m4354 0 c30 -9 81 -28 114
-42 55 -23 76 -26 265 -33 291 -11 463 -49 679 -150 275 -129 541 -389 662
-648 61 -130 79 -197 79 -298 0 -51 -2 -93 -4 -93 -1 0 -52 21 -112 46 -271
113 -447 234 -719 494 -178 170 -246 205 -337 175 -61 -19 -125 -59 -250 -151
-426 -316 -942 -499 -1603 -569 -238 -25 -268 -35 -359 -119 -21 -20 -42 -36
-46 -36 -4 0 -12 -10 -18 -22 -8 -18 -11 5 -11 102 -1 122 0 127 35 205 19 44
66 155 104 247 72 177 119 257 223 379 165 193 466 387 722 464 197 60 462 83
576 49z m-4222 -788 c143 -161 331 -324 512 -443 139 -90 272 -155 413 -200
l118 -38 -5 -355 c-4 -253 -10 -385 -22 -458 -83 -530 -420 -990 -900 -1229
-55 -28 -122 -58 -149 -68 l-48 -19 5 -45 5 -46 -279 -280 -279 -280 -280 280
-280 280 0 46 c0 46 0 46 -47 64 -27 10 -93 40 -147 67 -394 197 -691 540
-830 959 -72 215 -86 339 -86 745 l0 311 38 7 c20 3 62 6 92 6 154 0 561 62
795 121 484 122 915 343 1220 623 33 30 60 55 61 56 0 0 42 -47 93 -104z
m5000 0 c143 -161 331 -324 512 -443 138 -90 272 -155 412 -200 l119 -38 -5
-375 c-6 -390 -11 -448 -56 -616 -104 -384 -347 -724 -676 -946 -86 -58 -250
-144 -344 -180 l-44 -17 6 -43 6 -43 -279 -280 -280 -280 -279 279 -280 280
-3 49 -3 49 -80 33 c-189 79 -355 187 -504 330 -208 200 -344 412 -432 675
-68 204 -80 305 -86 706 l-6 351 39 6 c22 4 64 7 94 7 154 0 561 62 795 121
484 122 915 343 1220 623 33 30 60 55 61 56 0 0 42 -47 93 -104z m-2544 -392
c-11 -58 -19 -193 -25 -389 -17 -535 -56 -889 -147 -1315 -34 -161 -103 -432
-123 -485 -5 -14 -10 -30 -10 -35 0 -29 423 -219 662 -296 77 -25 86 -26 147
-15 111 21 337 30 545 23 l199 -7 14 -50 c28 -102 65 -155 210 -307 78 -81
145 -158 148 -169 11 -33 -9 -43 -98 -51 -104 -8 -1611 -8 -1732 1 l-90 6 -3
45 c-2 43 0 48 55 104 31 32 89 82 127 111 81 59 212 145 221 145 4 0 13 7 21
15 23 23 11 19 -71 -24 -82 -43 -204 -129 -271 -191 -60 -55 -167 -179 -209
-244 -34 -51 -39 -54 -63 -45 -34 13 -117 16 -168 6 l-41 -8 -69 103 c-87 130
-248 294 -364 369 -111 72 -113 74 -109 61 2 -5 51 -45 109 -87 105 -78 227
-194 261 -250 11 -16 19 -43 19 -60 0 -65 74 -60 -962 -60 -983 0 -988 0 -988
41 0 8 57 74 127 147 162 169 205 228 235 321 l23 74 345 6 c222 5 380 3 443
-3 l98 -11 122 45 c144 52 394 161 485 212 46 26 61 40 58 52 -133 441 -219
910 -256 1396 -6 77 -15 271 -20 430 -6 162 -17 328 -25 375 -19 113 -19 113
17 50 43 -75 112 -165 152 -195 40 -30 138 -68 237 -90 93 -22 257 -31 272
-16 6 6 21 11 32 11 33 0 164 36 220 61 62 27 148 117 207 215 23 40 44 72 46
70 2 -2 -4 -44 -13 -92z m-1192 -1229 c9 -38 22 -101 28 -140 19 -125 70 -387
100 -517 28 -121 37 -233 23 -286 -4 -15 -25 -32 -57 -48 -74 -38 -390 -171
-434 -183 -46 -13 -272 -14 -367 -1 -61 7 -85 19 -86 42 0 4 21 27 46 50 265
244 386 409 533 730 17 37 58 149 92 250 33 101 66 189 71 196 16 19 32 -10
51 -93z m1286 28 c11 -32 36 -110 55 -173 45 -148 135 -348 215 -475 102 -162
207 -283 413 -477 60 -57 15 -82 -173 -99 -88 -8 -132 -8 -175 1 -79 17 -487
183 -551 226 -37 24 -32 151 12 340 19 82 52 242 74 355 35 181 62 306 76 347
10 29 34 9 54 -45z m3661 -438 c15 -71 37 -174 49 -227 15 -66 21 -122 19
-175 l-3 -78 -140 -70 c-77 -39 -169 -92 -205 -119 -111 -83 -154 -98 -283
-99 -118 0 -167 12 -167 39 0 10 47 62 105 117 206 195 331 375 489 704 47 97
74 117 94 69 8 -17 26 -89 42 -161z m-8594 170 c8 -8 35 -58 60 -112 128 -279
294 -513 480 -678 92 -81 94 -83 94 -111 0 -28 -55 -44 -154 -44 -92 0 -113 8
-236 92 -57 38 -153 89 -240 127 -80 35 -153 72 -162 83 -27 31 -22 86 28 320
71 334 85 369 130 323z m930 -1045 l152 0 22 -69 c30 -98 64 -146 215 -302
134 -139 157 -171 136 -192 -21 -21 -165 -25 -756 -25 -625 0 -867 6 -886 25
-32 32 27 80 228 185 146 76 199 114 242 178 29 42 34 59 35 109 l1 60 50 12
c66 16 242 28 334 23 41 -2 143 -4 227 -4z m7309 -5 c17 -5 20 -15 20 -58 1
-65 43 -146 100 -192 22 -18 83 -59 135 -90 116 -70 221 -147 237 -174 18 -29
6 -49 -35 -58 -21 -5 -392 -8 -827 -8 -822 0 -835 1 -835 41 0 8 60 78 134
155 157 164 198 219 231 314 l24 70 178 6 c195 7 606 3 638 -6z M4270 7541
c-50 -16 -87 -41 -124 -81 -68 -75 -71 -90 -71 -325 0 -209 0 -210 27 -261
108 -204 388 -204 496 0 27 51 27 52 27 261 0 235 -3 250 -71 325 -53 59 -105
83 -189 86 -38 2 -81 0 -95 -5z M6192 7533 c-60 -21 -135 -97 -155 -157 -14
-40 -17 -87 -16 -245 1 -212 4 -232 56 -304 22 -33 49 -54 97 -77 60 -30 72
-32 133 -28 112 8 193 63 239 163 22 47 24 61 24 251 l0 201 -31 63 c-33 64
-86 112 -152 137 -45 16 -144 14 -195 -4z M5113 6280 c-45 -27 -66 -64 -66
-114 0 -51 25 -97 67 -122 27 -17 52 -19 211 -19 174 0 181 1 214 24 81 58 79
180 -4 231 -29 18 -49 20 -211 20 -160 0 -182 -2 -211 -20z M4430 5386 c0 -17
69 -102 127 -156 204 -193 442 -280 768 -280 290 0 509 70 703 226 66 53 192
192 192 212 0 4 -403 7 -895 7 -498 0 -895 -4 -895 -9z M2220 3241 c-82 -26
-151 -94 -169 -166 -6 -24 -11 -104 -11 -178 0 -175 13 -220 80 -280 121 -109
288 -75 366 73 16 30 19 59 19 200 0 114 -4 177 -14 203 -17 50 -64 103 -111
127 -43 22 -124 33 -160 21z M3330 3241 c-71 -23 -122 -66 -156 -131 -17 -30
-19 -58 -19 -210 0 -162 2 -178 22 -216 73 -136 241 -172 352 -77 78 66 86 93
86 293 0 190 -5 210 -64 273 -52 57 -157 89 -221 68z M2754 2391 c-34 -21 -64
-75 -64 -116 0 -15 8 -43 17 -62 46 -98 200 -97 247 1 21 44 20 83 -2 125 -35
66 -133 91 -198 52z M2284 1965 c26 -62 86 -144 143 -194 106 -95 238 -141
403 -141 213 0 373 77 484 233 24 34 51 79 59 100 l16 37 -560 0 -559 0 14
-35z M7220 3241 c-82 -26 -151 -94 -169 -166 -6 -24 -11 -104 -11 -178 0 -175
13 -220 80 -280 121 -109 288 -75 366 73 16 30 19 59 19 200 0 114 -4 177 -14
203 -17 50 -64 103 -111 127 -43 22 -124 33 -160 21z M8330 3241 c-71 -23
-122 -66 -156 -131 -17 -30 -19 -58 -19 -210 0 -162 2 -178 22 -216 73 -136
241 -172 352 -77 78 66 86 93 86 293 0 190 -5 210 -64 273 -52 57 -157 89
-221 68z M7754 2391 c-34 -21 -64 -75 -64 -116 0 -15 8 -43 17 -62 46 -98 200
-97 247 1 21 44 20 83 -2 125 -35 66 -133 91 -198 52z M7284 1965 c26 -62 86
-144 143 -194 106 -95 238 -141 403 -141 213 0 373 77 484 233 24 34 51 79 59
100 l16 37 -560 0 -559 0 14 -35z"/>
</g>
</svg>
