<?xml version="1.0" standalone="no"?>
<!DOCTYPE svg PUBLIC "-//W3C//DTD SVG 20010904//EN"
 "http://www.w3.org/TR/2001/REC-SVG-20010904/DTD/svg10.dtd">
<svg version="1.0" xmlns="http://www.w3.org/2000/svg"
 width="2048.000000pt" height="2048.000000pt" viewBox="0 0 2048.000000 2048.000000"
 preserveAspectRatio="xMidYMid meet">
<metadata>
Created by potrace 1.13, written by Peter Selinger 2001-2015
</metadata>
<g transform="translate(0.000000,2048.000000) scale(0.192120,-0.192120)"
fill="#000000" stroke="none">
<path d="M1330 10325 c-8 -2 -49 -9 -90 -15 -221 -36 -439 -156 -609 -336
-130 -137 -213 -289 -270 -493 l-26 -96 -3 -3165 c-2 -2189 1 -3190 8 -3247
17 -134 47 -232 110 -358 148 -297 391 -493 727 -587 77 -22 93 -22 871 -25
l793 -4 -7 28 c-3 15 -14 42 -23 58 -35 62 -10 59 -776 66 -385 3 -709 9 -720
12 -11 3 -54 14 -95 23 -246 57 -461 222 -608 468 -23 37 -53 103 -67 145
l-25 76 0 3295 0 3295 23 65 c38 105 103 207 191 296 130 130 275 215 456 265
l85 24 3210 0 c3035 0 3214 -1 3283 -18 271 -66 480 -212 603 -423 88 -150
119 -279 126 -531 3 -106 10 -193 14 -193 5 0 9 -21 9 -47 0 -53 2 -59 60
-238 85 -259 80 -277 77 265 -3 526 -3 521 -77 706 -143 356 -478 622 -857
679 -85 13 -522 15 -3238 14 -1727 -1 -3147 -3 -3155 -4z M1383 9939 c-164
-19 -335 -107 -448 -231 -61 -68 -136 -196 -160 -274 -22 -73 -22 -6464 0
-6537 29 -96 87 -189 167 -269 127 -126 274 -199 441 -218 103 -12 1447 -13
1447 -1 0 4 57 11 128 13 107 5 160 13 337 56 116 28 230 55 255 60 30 7 -316
10 -1055 11 -927 1 -1111 4 -1170 16 -198 42 -358 194 -422 401 -17 57 -18
181 -18 3199 0 3020 1 3142 18 3200 59 191 200 332 392 391 58 18 166 19 3200
19 3018 0 3142 -1 3199 -18 106 -33 177 -76 251 -151 124 -126 165 -242 165
-473 0 -76 4 -133 9 -133 23 0 68 23 89 45 21 23 22 32 22 173 0 124 -4 159
-21 213 -37 115 -96 214 -173 292 -130 133 -258 196 -444 217 -108 12 -6103
11 -6209 -1z M6105 9350 c-863 -86 -1521 -456 -1910 -1075 -228 -363 -326
-768 -297 -1234 20 -316 64 -526 147 -697 64 -133 133 -187 194 -154 24 12 35
43 65 171 104 445 316 842 601 1124 44 44 99 95 122 113 l41 32 59 -48 c255
-212 542 -389 694 -428 116 -30 186 -6 221 74 17 39 20 58 15 125 l-6 78 127
-120 c280 -263 459 -391 550 -391 89 0 71 159 -49 419 -22 46 -38 85 -37 87 2
1 32 -20 68 -47 108 -83 294 -163 497 -214 211 -53 566 -100 837 -111 l162 -7
214 -421 c227 -446 259 -496 319 -496 45 0 59 9 92 57 88 128 142 436 155 888
12 398 -37 631 -202 955 -112 221 -240 393 -431 582 -134 132 -212 196 -362
297 -336 224 -683 355 -1131 426 -123 20 -609 29 -755 15z m765 -318 c379 -62
671 -170 981 -363 283 -176 457 -344 614 -594 96 -152 171 -323 209 -471 22
-86 24 -830 2 -859 -13 -18 -14 -18 -37 7 -13 14 -59 94 -103 177 -70 133 -88
160 -162 235 -111 112 -173 144 -310 156 -54 5 -175 17 -269 25 -341 32 -578
84 -840 185 -245 94 -262 93 -403 -29 -51 -44 -91 -71 -106 -71 -13 0 -58 25
-102 56 -112 81 -163 111 -212 124 -38 10 -49 9 -86 -9 -23 -12 -60 -36 -82
-55 -74 -63 -115 -86 -155 -86 -57 0 -208 82 -389 211 -301 214 -364 225 -552
98 -176 -120 -412 -413 -559 -695 -86 -165 -120 -199 -133 -133 -3 17 -6 160
-6 318 0 269 1 292 24 386 172 708 802 1223 1676 1370 222 38 312 44 605 40
212 -2 297 -7 395 -23z M3038 8376 c-95 -26 -173 -104 -198 -197 -7 -24 -9
-893 -8 -2455 l3 -2419 22 -40 c50 -93 147 -154 244 -155 114 0 206 56 256
158 l28 57 0 2415 c0 2345 -1 2416 -19 2464 -50 131 -197 208 -328 172z M1925
6987 c-66 -22 -101 -44 -139 -88 -71 -84 -67 56 -64 -1864 l3 -1730 22 -41
c109 -204 396 -205 497 -2 l26 52 0 1735 0 1736 -24 50 c-25 55 -90 119 -141
141 -50 21 -134 26 -180 11z m93 -1934 l-3 -1668 -25 0 -25 0 -3 1655 c-1 910
0 1661 3 1668 2 6 16 12 30 12 l25 0 -2 -1667z M5234 6424 c-58 -21 -120 -77
-152 -138 -27 -51 -27 -52 -27 -261 0 -235 3 -250 71 -325 60 -66 104 -85 204
-85 75 0 91 3 131 27 25 15 61 44 79 64 62 71 65 87 65 319 0 209 0 210 -27
261 -66 126 -213 185 -344 138z M7464 6428 c-60 -20 -127 -80 -159 -143 l-30
-59 0 -200 c0 -200 0 -201 28 -258 50 -102 142 -158 256 -158 107 1 213 76
251 178 17 46 20 78 20 236 0 211 -8 249 -72 321 -56 63 -107 87 -193 91 -38
2 -84 -2 -101 -8z M3797 6323 c-118 -254 -112 -618 13 -868 42 -85 94 -155
106 -143 3 4 9 38 11 75 4 60 0 79 -33 168 l-38 100 -5 367 c-3 201 -9 369
-12 372 -3 3 -22 -29 -42 -71z M9052 6133 c-5 -430 -43 -558 -218 -742 -93
-99 -139 -160 -167 -221 -8 -19 -36 -130 -61 -245 -50 -230 -57 -327 -31 -424
14 -54 14 -55 -20 -142 -79 -205 -243 -487 -388 -665 l-57 -71 0 -285 c0 -361
-14 -430 -116 -563 l-37 -49 30 -59 29 -60 42 64 c24 35 62 92 86 126 84 118
86 131 86 481 1 169 4 325 9 347 10 53 185 295 213 295 4 0 8 -237 8 -527 0
-297 4 -540 9 -557 5 -17 15 -49 21 -71 6 -22 25 -56 41 -75 35 -42 37 -40 75
73 53 158 53 168 54 1050 l0 819 40 151 c21 84 46 195 55 247 8 52 18 110 21
128 3 19 11 32 20 32 19 0 91 36 131 67 17 13 50 48 72 76 175 227 222 622
111 930 -54 147 -55 145 -58 -130z M3940 4312 c0 -1080 -4 -1022 75 -1110 62
-69 127 -96 220 -90 107 7 183 57 233 152 l27 51 3 346 3 347 -45 81 c-162
293 -293 679 -338 1000 l-14 93 -39 14 c-21 7 -58 27 -82 43 l-43 31 0 -958z
M6160 5249 c-146 -59 -181 -241 -66 -347 25 -23 57 -45 73 -49 15 -4 143 -8
283 -8 l255 0 47 28 c113 66 139 210 56 311 -59 71 -79 76 -368 75 -143 0
-266 -5 -280 -10z M5494 4260 c-84 -19 -136 -81 -141 -168 -3 -46 1 -65 19
-97 64 -109 310 -207 628 -250 166 -22 547 -31 723 -16 348 29 623 108 742
212 85 75 94 183 22 266 -71 81 -162 84 -266 8 -116 -85 -526 -145 -891 -130
-338 13 -546 56 -690 141 -61 35 -100 45 -146 34z M4664 3806 c-16 -12 -16
-15 6 -47 104 -149 318 -370 468 -484 l92 -70 0 -192 0 -192 98 -74 c178 -135
651 -469 899 -635 l92 -62 6 33 c12 65 -29 126 -140 208 -71 51 -48 37 -295
185 -244 145 -462 290 -518 344 -23 22 -53 62 -66 88 -22 43 -56 143 -56 164
0 5 31 -19 70 -53 205 -184 426 -296 685 -348 271 -54 599 -54 865 -1 260 53
473 158 673 334 48 42 87 74 87 70 0 -26 -36 -138 -58 -177 -54 -100 -184
-192 -647 -459 -175 -101 -310 -203 -346 -262 -21 -34 -26 -101 -8 -111 5 -4
36 10 67 30 121 80 558 386 780 547 l232 169 0 197 0 197 83 60 c45 33 138
115 206 183 133 131 140 147 62 144 -61 -3 -152 -60 -272 -171 -78 -73 -109
-127 -109 -193 l0 -46 -82 -53 c-188 -121 -434 -223 -660 -273 -173 -38 -300
-49 -502 -43 -212 6 -374 34 -573 99 -142 46 -365 153 -468 225 -69 47 -70 49
-76 100 -9 72 -47 131 -131 205 -40 35 -140 129 -223 211 -84 81 -154 147
-156 147 -2 0 -18 4 -36 9 -22 7 -37 5 -49 -3z M4395 2550 c-361 -6 -410 -8
-502 -28 -337 -73 -618 -226 -858 -467 -177 -179 -315 -403 -395 -642 -75
-228 -90 -356 -90 -779 l0 -304 3890 0 3890 0 0 323 c0 177 -5 362 -10 412
-72 623 -470 1143 -1056 1375 -78 31 -222 72 -323 91 -80 15 -914 28 -923 15
-4 -6 -8 -27 -8 -46 -1 -91 -118 -595 -225 -970 -84 -291 -179 -560 -199 -560
-2 0 -40 43 -85 95 -75 87 -101 109 -101 87 0 -5 -85 -181 -188 -392 l-188
-382 -81 233 c-44 129 -94 270 -111 315 l-30 80 79 135 c60 102 89 163 118
254 21 66 37 123 34 128 -19 32 -486 382 -566 423 -27 14 -31 13 -160 -75
-118 -81 -225 -162 -400 -301 -31 -25 -56 -52 -56 -61 -2 -50 75 -240 149
-365 l80 -136 -54 -152 c-30 -83 -73 -212 -96 -286 -23 -74 -46 -151 -52 -170
-11 -35 -12 -33 -209 362 l-197 397 -44 -47 c-24 -26 -61 -68 -82 -94 -21 -26
-42 -45 -48 -42 -48 30 -257 726 -367 1224 -24 108 -61 324 -61 354 0 3 -17 5
-37 4 -21 -1 -218 -5 -438 -8z m4024 -202 c29 -156 241 -1432 241 -1450 0 -11
-118 -54 -416 -152 -302 -100 -414 -141 -411 -150 17 -43 47 -150 43 -153 -2
-2 -51 20 -107 49 -102 52 -106 53 -214 59 -60 4 -122 10 -138 14 -52 14 -49
83 8 169 40 60 67 76 130 76 51 0 95 17 95 37 0 7 4 13 9 13 20 0 153 135 181
185 69 121 213 611 315 1075 38 176 67 250 97 250 10 0 18 4 18 9 0 11 100 80
116 81 7 0 20 -46 33 -112z m-3857 52 c38 -27 71 -50 75 -50 14 0 44 -46 64
-99 11 -31 37 -121 56 -201 100 -420 231 -865 289 -985 33 -69 148 -190 207
-218 20 -10 37 -22 37 -27 0 -6 29 -10 64 -10 62 0 66 -2 89 -32 64 -85 96
-194 65 -215 -7 -4 -62 -11 -123 -15 -149 -8 -195 -20 -297 -72 -49 -25 -88
-41 -88 -37 0 4 11 41 25 81 14 41 24 78 23 82 -2 5 -183 68 -403 142 -220 73
-406 135 -414 137 -11 4 8 133 98 674 125 749 151 895 159 895 3 0 36 -22 74
-50z m-298 -176 c11 -86 6 -128 -80 -644 -75 -452 -85 -526 -81 -607 3 -77 8
-99 32 -138 37 -64 84 -114 144 -155 110 -75 115 -75 -727 -78 l-733 -3 3 318
3 318 33 95 c44 128 93 225 176 350 248 371 656 579 1152 589 l71 1 7 -46z
m4661 16 c223 -38 444 -133 625 -268 216 -162 361 -358 454 -612 l31 -85 3
-338 3 -338 -723 3 c-727 3 -768 5 -768 37 0 5 23 23 50 41 61 39 121 106 151
167 37 77 25 217 -70 781 -55 326 -81 508 -81 563 l0 81 108 -7 c59 -4 157
-15 217 -25z m-2354 -516 c125 -66 246 -185 265 -261 8 -29 -39 -190 -82 -283
-62 -134 -112 -166 -232 -149 -46 7 -95 6 -158 -2 -85 -11 -94 -11 -125 7 -19
11 -48 41 -65 66 -38 56 -109 268 -107 320 2 100 193 295 331 339 43 13 100 1
173 -37z m-16 -849 c87 -42 183 -170 258 -346 39 -90 46 -115 25 -86 -7 10
-60 33 -118 53 -104 36 -106 36 -275 36 l-170 0 -97 -36 c-52 -20 -101 -36
-107 -36 -6 0 -11 -5 -11 -12 0 -6 -2 -9 -5 -6 -7 7 49 140 90 214 68 121 147
201 230 232 42 16 133 9 180 -13z M5626 1310 c-69 -68 -126 -127 -126 -131 0
-13 110 1 146 17 17 8 40 31 51 52 22 39 65 173 58 180 -2 2 -60 -51 -129
-118z M7130 1418 c0 -28 49 -162 68 -188 10 -14 34 -30 53 -37 38 -13 129 -17
129 -5 0 7 -165 171 -222 222 -22 18 -28 20 -28 8z"/>
</g>
</svg>
