<?xml version="1.0" standalone="no"?>
<!DOCTYPE svg PUBLIC "-//W3C//DTD SVG 20010904//EN"
 "http://www.w3.org/TR/2001/REC-SVG-20010904/DTD/svg10.dtd">
<svg version="1.0" xmlns="http://www.w3.org/2000/svg"
 width="2048.000000pt" height="2048.000000pt" viewBox="0 0 2048.000000 2048.000000"
 preserveAspectRatio="xMidYMid meet">
<metadata>
Created by potrace 1.13, written by Peter Selinger 2001-2015
</metadata>
<g transform="translate(0.000000,2048.000000) scale(0.192120,-0.192120)"
fill="#000000" stroke="none">
<path d="M5015 9240 c-991 -100 -1788 -590 -2307 -1419 -183 -292 -330 -631
-439 -1016 -40 -141 -112 -482 -125 -587 l-6 -58 -37 0 c-176 0 -387 -173
-510 -418 -40 -79 -95 -243 -115 -342 -99 -495 26 -1031 302 -1292 105 -98
226 -158 321 -158 l36 0 34 -133 c75 -299 190 -612 327 -895 102 -212 159
-314 282 -502 542 -831 1287 -1355 2133 -1501 119 -21 166 -23 419 -23 250 0
301 2 414 22 297 52 529 128 796 261 570 284 1073 776 1453 1419 209 352 392
802 498 1220 l34 132 36 0 c106 0 247 76 355 193 136 147 231 359 280 630 25
131 24 427 0 562 -53 291 -166 528 -320 672 -100 94 -222 153 -316 153 l-37 0
-12 83 c-22 146 -71 378 -111 528 -270 994 -824 1730 -1610 2137 -312 162
-642 264 -1020 317 -136 19 -617 28 -755 15z m655 -215 c559 -62 1031 -248
1445 -570 324 -253 610 -607 810 -1005 162 -322 260 -616 350 -1050 20 -99 47
-198 61 -227 35 -73 152 -179 263 -237 195 -104 294 -251 388 -574 24 -83 24
-92 21 -356 -4 -261 -5 -274 -31 -361 -41 -133 -110 -265 -180 -341 -48 -52
-76 -72 -146 -105 -152 -71 -172 -83 -220 -134 -72 -76 -96 -125 -145 -302
-57 -201 -84 -273 -184 -493 -44 -96 -119 -260 -166 -365 -100 -221 -157 -319
-300 -519 -177 -247 -261 -337 -540 -575 -430 -367 -867 -581 -1351 -661 -742
-123 -1482 84 -2100 589 -238 195 -372 332 -540 556 -173 231 -279 403 -423
691 -115 230 -231 534 -298 782 -14 53 -39 125 -55 158 -53 112 -157 206 -274
249 -148 54 -263 198 -349 435 l-30 85 -4 333 c-3 311 -2 338 18 415 41 162
163 363 261 433 24 17 82 51 129 75 98 50 204 149 237 220 11 24 32 107 47
184 87 445 196 772 371 1111 159 310 347 567 580 792 425 413 950 666 1555
751 193 27 192 27 445 29 138 1 270 -4 355 -13z M3857 5316 c-98 -35 -166
-111 -187 -210 -8 -33 -10 -157 -8 -361 3 -302 4 -311 27 -363 43 -96 145
-162 251 -162 75 0 139 27 197 85 80 80 83 99 83 470 0 371 -3 390 -83 470
-79 78 -184 105 -280 71z M6620 5313 c-26 -9 -66 -38 -96 -68 -81 -80 -84 -99
-84 -470 0 -356 4 -383 71 -459 53 -60 107 -87 185 -94 118 -9 218 48 271 156
l28 57 0 340 c0 324 -1 342 -21 385 -30 65 -70 107 -128 137 -65 33 -161 40
-226 16z M4964 3928 c-17 -6 -53 -27 -80 -47 -163 -123 -135 -379 51 -467 50
-24 53 -24 395 -24 342 0 345 0 395 24 207 98 212 393 8 496 l-48 25 -345 2
c-214 1 -357 -3 -376 -9z m669 -216 c35 -15 43 -35 27 -71 -21 -52 -48 -56
-340 -56 -249 0 -267 1 -300 20 -26 16 -36 29 -38 51 -4 40 15 55 86 65 84 11
531 4 565 -9z M4396 2810 c-98 -38 -165 -130 -174 -236 -10 -128 50 -217 221
-329 158 -102 341 -175 550 -217 97 -20 142 -23 337 -23 249 0 356 15 541 75
249 82 488 238 544 355 60 128 3 295 -125 360 -110 56 -209 41 -330 -50 -175
-133 -365 -189 -635 -189 -281 1 -440 53 -668 219 -81 58 -170 70 -261 35z
m215 -278 c41 -21 104 -56 142 -76 85 -47 198 -89 307 -112 128 -28 430 -26
556 4 126 30 219 67 357 145 112 62 183 87 207 72 5 -3 10 -19 10 -34 0 -74
-211 -195 -445 -256 -137 -35 -179 -39 -415 -39 -253 0 -296 5 -455 50 -250
72 -463 211 -415 269 21 25 74 17 151 -23z"/>
</g>
</svg>
