<?xml version="1.0" standalone="no"?>
<!DOCTYPE svg PUBLIC "-//W3C//DTD SVG 20010904//EN"
 "http://www.w3.org/TR/2001/REC-SVG-20010904/DTD/svg10.dtd">
<svg version="1.0" xmlns="http://www.w3.org/2000/svg"
 width="2048.000000pt" height="2048.000000pt" viewBox="0 0 2048.000000 2048.000000"
 preserveAspectRatio="xMidYMid meet">
<metadata>
Created by potrace 1.13, written by Peter Selinger 2001-2015
</metadata>
<g transform="translate(0.000000,2048.000000) scale(0.192120,-0.192120)"
fill="#000000" stroke="none">
<path d="M4950 10039 c-835 -63 -1543 -321 -2111 -770 -132 -103 -371 -343
-477 -477 -323 -408 -536 -894 -613 -1404 -50 -331 -31 -851 46 -1238 28 -140
81 -320 95 -320 5 0 18 13 29 29 30 42 27 130 -12 329 l-32 167 0 555 0 555
37 145 c131 517 385 958 773 1345 377 376 891 662 1465 815 372 100 714 142
1150 143 295 0 437 -10 678 -49 950 -152 1774 -649 2318 -1399 178 -244 293
-467 413 -801 99 -273 101 -293 101 -837 0 -397 -3 -487 -20 -637 -11 -96 -20
-216 -20 -267 0 -83 2 -94 25 -121 32 -38 31 -55 -5 -164 -48 -143 -109 -227
-177 -244 -38 -10 -104 28 -148 85 -20 25 -171 315 -336 644 l-299 597 -88 0
c-283 1 -755 51 -1092 116 -440 86 -752 206 -959 370 -45 35 -81 62 -81 59 0
-3 15 -36 34 -73 85 -170 160 -395 171 -516 7 -73 -14 -125 -57 -140 -104 -36
-408 178 -809 571 -91 90 -168 163 -171 163 -3 0 -1 -24 4 -52 14 -73 4 -206
-17 -249 -44 -86 -92 -113 -200 -113 -59 1 -100 8 -158 27 -218 75 -510 258
-856 536 -79 64 -149 120 -156 125 -33 24 -324 -263 -484 -477 -298 -398 -499
-846 -616 -1372 -30 -135 -44 -174 -74 -204 -25 -25 -79 -28 -120 -6 -62 31
-157 172 -199 293 l-11 33 -32 -18 c-53 -31 -175 -167 -223 -249 -131 -224
-190 -462 -190 -769 0 -196 14 -305 59 -460 97 -334 292 -570 520 -630 32 -8
59 -16 60 -17 1 -2 10 -43 19 -93 46 -243 151 -586 251 -825 203 -481 465
-880 800 -1216 539 -540 1177 -844 1920 -915 166 -16 514 -6 680 19 258 40
502 106 710 192 736 307 1317 866 1710 1645 174 343 288 667 370 1050 l32 150
44 7 c83 14 187 75 269 157 154 154 258 378 307 661 23 129 23 421 0 550 -48
276 -148 498 -292 649 l-74 77 24 120 c77 373 108 1123 61 1429 -157 1007
-939 1951 -1992 2404 -406 175 -814 274 -1278 311 -150 12 -530 11 -696 -1z
m-1500 -2730 c19 -12 87 -61 150 -109 190 -144 396 -276 555 -355 186 -93 278
-118 409 -113 110 4 173 30 256 109 30 28 62 54 70 58 31 16 78 -11 186 -106
298 -264 481 -373 625 -373 57 0 94 16 149 66 55 50 70 85 70 164 0 37 3 102
6 144 6 68 9 76 25 71 11 -4 19 -1 19 5 0 14 -9 16 170 -45 309 -105 691 -177
1175 -220 94 -8 205 -15 248 -15 95 0 151 -23 206 -86 24 -28 110 -187 236
-436 109 -216 218 -424 243 -463 25 -38 56 -88 70 -110 107 -170 238 -239 356
-187 25 12 73 42 104 67 32 25 67 45 79 45 47 0 98 -83 151 -245 25 -77 26
-92 30 -352 3 -254 2 -276 -18 -345 -97 -330 -192 -479 -381 -589 -93 -54
-173 -133 -204 -201 -13 -29 -34 -94 -45 -143 -66 -286 -83 -336 -229 -680
-57 -132 -113 -267 -126 -300 -87 -231 -358 -631 -556 -820 -573 -548 -1091
-816 -1769 -915 -122 -18 -502 -24 -647 -11 -581 55 -1105 270 -1563 641 -237
192 -325 281 -496 501 -124 159 -231 326 -337 524 -176 332 -288 637 -392
1075 -10 41 -29 95 -41 120 -34 67 -122 151 -221 211 -174 105 -255 210 -336
437 l-31 87 -4 336 c-3 287 -1 346 13 400 47 183 152 359 214 359 10 0 47 -23
82 -51 148 -118 231 -125 334 -28 74 70 101 127 151 322 132 511 338 931 637
1300 91 113 205 230 251 258 40 25 83 24 126 -2z M3855 5593 c-68 -25 -107
-54 -144 -109 -48 -73 -53 -120 -49 -466 4 -349 4 -351 76 -430 108 -120 296
-118 409 5 71 77 74 103 71 484 l-3 328 -30 53 c-67 123 -206 179 -330 135z
M6659 5604 c-82 -15 -184 -114 -209 -202 -6 -22 -10 -167 -10 -348 0 -358 4
-387 73 -461 113 -123 301 -125 409 -5 74 82 73 76 73 462 0 380 0 377 -65
460 -54 68 -176 110 -271 94z M4944 3641 c-187 -85 -226 -334 -72 -465 73 -63
94 -66 458 -66 364 0 385 3 458 66 122 104 127 304 10 410 -82 74 -82 74 -468
74 -316 0 -348 -2 -386 -19z m639 -235 c21 -10 22 -23 3 -42 -12 -11 -61 -14
-263 -14 -234 0 -249 1 -260 19 -15 24 -2 37 42 44 47 8 458 1 478 -7z M6649
2551 c-36 -11 -65 -28 -115 -66 -84 -64 -291 -129 -530 -164 -214 -33 -385
-43 -674 -43 -581 0 -1013 75 -1213 211 -77 53 -116 64 -196 59 -103 -8 -181
-59 -229 -152 -21 -41 -26 -65 -25 -121 0 -116 47 -188 171 -266 317 -200 889
-301 1617 -286 574 12 967 85 1274 234 189 93 271 192 271 329 0 173 -187 314
-351 265z m-2522 -327 c136 -59 242 -93 395 -123 431 -86 1058 -92 1525 -15
206 34 343 74 494 145 122 57 180 71 194 48 14 -21 -6 -58 -47 -88 -44 -33
-220 -106 -278 -116 -19 -3 -69 -14 -110 -25 -92 -23 -114 -27 -320 -54 -391
-51 -1064 -45 -1399 13 -31 6 -76 13 -101 16 -25 4 -79 15 -121 25 -42 11 -87
22 -100 24 -13 3 -25 5 -26 5 -2 1 -6 2 -10 2 -21 3 -154 54 -198 76 -54 27
-115 80 -115 99 0 21 32 34 65 28 17 -3 85 -30 152 -60z"/>
</g>
</svg>
