<?xml version="1.0" standalone="no"?>
<!DOCTYPE svg PUBLIC "-//W3C//DTD SVG 20010904//EN"
 "http://www.w3.org/TR/2001/REC-SVG-20010904/DTD/svg10.dtd">
<svg version="1.0" xmlns="http://www.w3.org/2000/svg"
 width="2048.000000pt" height="2048.000000pt" viewBox="0 0 2048.000000 2048.000000"
 preserveAspectRatio="xMidYMid meet">
<metadata>
Created by potrace 1.13, written by Peter Selinger 2001-2015
</metadata>
<g transform="translate(0.000000,2048.000000) scale(0.192120,-0.192120)"
fill="#000000" stroke="none">
<path d="M5000 10323 c-105 -10 -214 -25 -285 -39 -647 -127 -1238 -525 -1610
-1084 -215 -323 -333 -627 -397 -1025 -21 -125 -22 -168 -26 -1185 -3 -1066 0
-1231 33 -1452 19 -129 56 -285 96 -406 17 -52 29 -96 26 -98 -2 -2 -41 1 -88
7 -104 14 -343 6 -459 -15 -615 -112 -1128 -557 -1320 -1144 -63 -195 -74
-274 -75 -527 0 -257 9 -324 72 -520 54 -169 181 -415 262 -510 10 -11 28 -49
41 -85 143 -407 511 -783 928 -951 l82 -33 0 -47 0 -47 -402 -5 c-368 -4 -412
-6 -503 -26 -447 -98 -790 -352 -956 -707 -22 -45 -39 -85 -39 -88 0 -3 2228
-6 4950 -6 2723 0 4950 2 4950 4 0 2 -13 35 -29 73 -136 318 -407 582 -713
694 -152 56 -186 59 -694 59 l-464 0 0 49 0 50 53 19 c356 135 661 400 851
740 30 53 71 139 91 191 20 52 57 121 81 154 154 209 270 507 304 780 17 134
7 412 -19 537 -46 223 -131 429 -258 620 -96 144 -302 355 -438 446 -351 238
-771 344 -1154 293 -45 -6 -84 -9 -86 -7 -3 2 5 29 16 59 34 89 87 307 111
460 l23 144 0 1575 c0 1496 -1 1580 -19 1675 -109 584 -531 1003 -1134 1125
-142 28 -333 39 -473 27 -165 -15 -163 -15 -288 42 -215 99 -427 158 -650 181
-96 9 -311 11 -391 3z m505 -276 c143 -27 247 -57 415 -122 91 -34 190 -68
220 -74 30 -5 147 -9 260 -9 212 2 295 -6 445 -44 382 -96 677 -328 801 -631
69 -171 64 -20 61 -1938 -2 -1620 -4 -1741 -21 -1834 -28 -160 -15 -232 59
-313 l33 -37 -142 3 c-631 14 -1160 -277 -1520 -838 -27 -41 -45 -66 -41 -55
19 50 18 65 -5 65 -13 0 -20 5 -18 13 3 6 20 62 37 123 55 188 34 166 432 439
428 294 544 395 673 590 138 208 257 510 311 792 13 65 15 208 15 866 0 518
-3 787 -10 787 -5 0 -10 7 -10 15 0 22 -68 94 -109 114 -45 23 -61 26 -196 46
-164 24 -287 60 -410 120 -219 107 -361 254 -495 515 -71 137 -99 179 -148
215 -92 71 -166 39 -412 -174 -453 -393 -1108 -690 -1765 -800 -152 -26 -327
-48 -480 -61 -66 -5 -143 -16 -172 -23 -59 -16 -159 -89 -169 -124 -3 -13 -10
-23 -15 -23 -5 0 -9 -306 -9 -722 l0 -723 25 -110 c71 -312 237 -664 396 -840
119 -132 277 -253 724 -553 94 -62 180 -123 193 -135 42 -39 66 -90 103 -217
35 -118 36 -125 18 -128 -11 -2 -19 -11 -19 -20 0 -9 -25 21 -57 68 -263 395
-637 651 -1092 747 -113 24 -148 27 -338 27 l-213 1 30 28 c75 70 87 161 50
375 -20 114 -21 148 -18 1467 l3 1350 27 100 c102 380 260 670 525 960 379
416 913 679 1498 739 89 9 453 -3 530 -17z m685 -1517 c213 -423 568 -652
1072 -692 l148 -12 0 -693 c0 -729 -4 -809 -46 -999 -87 -394 -279 -740 -570
-1026 -208 -204 -425 -347 -689 -454 l-80 -32 -6 -259 c-6 -292 -13 -335 -81
-465 -130 -251 -424 -406 -697 -369 -270 36 -484 208 -576 463 -33 91 -37 135
-39 407 l-1 224 -55 19 c-96 32 -291 133 -409 212 -469 314 -772 766 -893
1330 -23 110 -25 171 -30 1057 l-3 406 135 6 c1030 47 1957 419 2600 1043
l114 112 32 -97 c18 -54 51 -135 74 -181z m-2863 -3676 c334 -49 670 -223 898
-465 118 -125 169 -209 251 -409 39 -96 88 -213 108 -260 29 -70 36 -97 36
-155 0 -102 -7 -106 -71 -46 -31 29 -87 67 -129 87 -41 20 -130 63 -197 96
-194 94 -345 206 -578 428 -179 170 -246 205 -337 175 -61 -19 -125 -59 -250
-151 -435 -323 -922 -493 -1641 -574 -121 -13 -193 -26 -224 -40 l-45 -20 4
118 c4 105 9 127 43 217 123 327 359 587 682 753 220 113 413 159 713 171 191
8 197 9 285 44 50 19 101 37 115 40 58 10 240 6 337 -9z m4354 0 c30 -9 81
-28 114 -42 55 -23 76 -26 265 -33 342 -13 561 -71 805 -217 221 -132 441
-369 536 -578 63 -138 79 -200 79 -301 0 -51 -2 -93 -4 -93 -1 0 -52 21 -112
46 -271 113 -447 234 -719 494 -178 170 -246 205 -337 175 -61 -19 -125 -59
-250 -151 -433 -321 -964 -506 -1648 -574 -126 -13 -208 -30 -238 -51 -31 -22
-114 -92 -134 -113 -18 -19 -18 -17 -18 100 0 115 2 122 36 199 19 44 66 155
104 247 72 177 119 257 223 379 165 193 466 387 722 464 197 60 462 83 576 49z
m-4222 -788 c143 -161 331 -324 512 -443 139 -90 272 -155 413 -200 l118 -38
-5 -350 c-6 -381 -15 -466 -68 -664 -114 -429 -427 -811 -840 -1025 -46 -24
-112 -53 -146 -66 l-63 -23 0 -48 0 -48 469 0 c393 -1 482 -3 548 -17 273 -56
557 -255 733 -514 42 -62 135 -248 128 -255 -2 -2 -53 18 -113 46 -59 27 -131
56 -159 64 -44 12 -348 15 -2106 18 -1917 3 -2057 4 -2087 20 -38 20 -42 43
-13 80 11 14 20 30 20 35 0 25 150 133 265 190 215 108 379 139 808 151 259 7
296 10 329 27 34 17 91 79 101 107 5 16 166 -133 363 -337 90 -93 165 -167
166 -165 2 2 98 101 213 218 218 222 231 255 20 51 -223 -216 -247 -217 -459
-11 -181 177 -181 177 -183 287 -1 65 -7 102 -19 126 -31 61 -144 160 -259
228 -326 193 -504 384 -679 727 -26 50 -65 112 -87 137 -36 41 -132 99 -164
99 -7 0 -17 22 -24 51 -24 112 -31 234 -31 527 l0 306 38 7 c20 3 62 6 92 6
154 0 561 62 795 121 484 122 915 343 1220 623 33 30 60 55 61 56 0 0 42 -47
93 -104z m5000 0 c143 -161 331 -324 512 -443 138 -90 272 -155 411 -200 l118
-38 0 -300 c0 -291 -8 -428 -31 -547 -11 -57 -12 -58 -65 -82 -58 -27 -136
-94 -157 -135 -145 -285 -206 -377 -342 -520 -107 -112 -202 -184 -377 -289
-140 -83 -228 -161 -259 -230 -10 -22 -21 -73 -24 -114 -4 -40 -9 -84 -11 -98
-7 -31 -263 -292 -319 -324 -99 -57 -151 -37 -317 121 -186 177 -184 169 6
-27 99 -102 189 -195 200 -207 l21 -23 257 256 257 256 50 -51 c84 -86 72 -84
516 -92 415 -7 464 -12 597 -63 82 -31 116 -48 201 -103 102 -67 201 -164 222
-219 17 -44 17 -47 -1 -64 -18 -18 -103 -19 -2089 -25 -2056 -7 -2071 -7
-2150 -28 -44 -11 -105 -31 -135 -45 -30 -13 -76 -32 -102 -43 l-47 -18 15 42
c38 108 146 260 261 367 199 186 456 308 758 360 107 19 160 21 483 21 l362
-1 0 44 c0 49 -8 58 -65 76 -68 22 -205 95 -315 168 -331 220 -579 563 -674
930 -53 204 -58 256 -63 628 l-5 351 38 6 c22 4 64 7 94 7 154 0 561 62 795
121 484 122 915 343 1220 623 33 30 60 55 61 56 0 0 42 -47 93 -104z m-2546
-397 c-13 -72 -17 -146 -17 -319 0 -196 3 -238 22 -329 34 -153 77 -281 141
-416 l57 -120 -4 -116 c-3 -89 -1 -129 13 -175 25 -87 118 -275 193 -389 77
-117 231 -280 319 -338 68 -45 72 -46 156 -54 l57 -5 0 -94 c0 -52 -2 -94 -5
-94 -2 0 -36 17 -76 38 -69 36 -75 37 -168 35 -257 -4 -704 -134 -858 -249
-17 -13 -34 -24 -38 -24 -15 0 -146 -115 -194 -170 -97 -111 -157 -170 -174
-170 -21 0 -80 52 -129 114 -111 141 -235 254 -348 318 -111 63 -304 135 -436
163 -78 17 -454 37 -464 26 -3 -3 -37 -23 -77 -43 l-71 -37 -7 40 c-4 23 -4
65 0 95 l6 54 47 0 c74 -1 95 7 173 66 85 65 230 223 299 327 70 105 157 280
189 380 18 56 22 91 20 181 l-1 112 42 84 c182 361 234 759 154 1175 -4 24 1
19 27 -25 38 -65 106 -154 145 -192 37 -34 128 -75 223 -99 93 -24 277 -26
371 -4 132 31 199 65 270 137 36 37 86 101 110 142 24 41 46 74 48 72 2 -2 -5
-46 -15 -97z M4270 7541 c-50 -16 -87 -41 -124 -81 -68 -75 -71 -90 -71 -325
0 -209 0 -210 27 -261 108 -204 388 -204 496 0 27 51 27 52 27 261 0 235 -3
250 -71 325 -53 59 -105 83 -189 86 -38 2 -81 0 -95 -5z M6192 7533 c-60 -21
-135 -97 -155 -157 -14 -40 -17 -87 -16 -245 1 -212 4 -232 56 -304 22 -33 49
-54 97 -77 60 -30 72 -32 133 -28 112 8 193 63 239 163 22 47 24 61 24 251 l0
201 -31 63 c-33 64 -86 112 -152 137 -45 16 -144 14 -195 -4z M5113 6280 c-45
-27 -66 -64 -66 -114 0 -51 25 -97 67 -122 27 -17 52 -19 211 -19 174 0 181 1
214 24 81 58 79 180 -4 231 -29 18 -49 20 -211 20 -160 0 -182 -2 -211 -20z
M4430 5386 c0 -17 69 -102 127 -156 204 -193 442 -280 768 -280 290 0 509 70
703 226 66 53 192 192 192 212 0 4 -403 7 -895 7 -498 0 -895 -4 -895 -9z
M2220 3241 c-82 -26 -151 -94 -169 -166 -6 -24 -11 -104 -11 -178 0 -175 13
-220 80 -280 121 -109 288 -75 366 73 16 30 19 59 19 200 0 114 -4 177 -14
203 -17 50 -64 103 -111 127 -43 22 -124 33 -160 21z M3330 3241 c-71 -23
-122 -66 -156 -131 -17 -30 -19 -58 -19 -210 0 -162 2 -178 22 -216 73 -136
241 -172 352 -77 78 66 86 93 86 293 0 190 -5 210 -64 273 -52 57 -157 89
-221 68z M2754 2391 c-34 -21 -64 -75 -64 -116 0 -15 8 -43 17 -62 46 -98 200
-97 247 1 21 44 20 83 -2 125 -35 66 -133 91 -198 52z M2284 1965 c25 -60 85
-143 138 -190 110 -99 239 -145 407 -145 215 0 374 77 485 233 24 34 51 79 59
100 l16 37 -560 0 -559 0 14 -35z M7220 3241 c-82 -26 -151 -94 -169 -166 -6
-24 -11 -104 -11 -178 0 -175 13 -220 80 -280 121 -109 288 -75 366 73 16 30
19 59 19 200 0 114 -4 177 -14 203 -17 50 -64 103 -111 127 -43 22 -124 33
-160 21z M8330 3241 c-71 -23 -122 -66 -156 -131 -17 -30 -19 -58 -19 -210 0
-162 2 -178 22 -216 73 -136 241 -172 352 -77 78 66 86 93 86 293 0 190 -5
210 -64 273 -52 57 -157 89 -221 68z M7754 2391 c-34 -21 -64 -75 -64 -116 0
-15 8 -43 17 -62 46 -98 200 -97 247 1 21 44 20 83 -2 125 -35 66 -133 91
-198 52z M7284 1965 c25 -60 85 -143 138 -190 110 -99 239 -145 407 -145 215
0 374 77 485 233 24 34 51 79 59 100 l16 37 -560 0 -559 0 14 -35z"/>
</g>
</svg>
