<?xml version="1.0" standalone="no"?>
<!DOCTYPE svg PUBLIC "-//W3C//DTD SVG 20010904//EN"
 "http://www.w3.org/TR/2001/REC-SVG-20010904/DTD/svg10.dtd">
<svg version="1.0" xmlns="http://www.w3.org/2000/svg"
 width="2048.000000pt" height="2048.000000pt" viewBox="0 0 2048.000000 2048.000000"
 preserveAspectRatio="xMidYMid meet">
<metadata>
Created by potrace 1.13, written by Peter Selinger 2001-2015
</metadata>
<g transform="translate(0.000000,2048.000000) scale(0.192120,-0.192120)"
fill="#000000" stroke="none">
<path d="M4602 10035 c-201 -46 -378 -163 -502 -332 l-30 -41 -43 23 c-23 13
-78 36 -122 52 -75 26 -90 28 -245 28 -155 0 -170 -2 -245 -28 -163 -57 -298
-150 -397 -275 -59 -74 -131 -209 -143 -269 -4 -18 -8 -33 -11 -33 -2 0 -43
11 -90 25 -440 127 -896 -131 -1026 -582 -19 -65 -23 -102 -23 -218 0 -132 8
-184 41 -269 4 -11 -4 -16 -33 -21 -138 -23 -254 -86 -363 -195 -121 -121
-178 -236 -200 -404 -20 -147 20 -324 98 -440 18 -26 32 -51 32 -57 0 -5 -24
-9 -52 -9 -163 -1 -369 -107 -483 -248 -60 -74 -122 -202 -140 -288 -42 -200
10 -432 130 -572 l34 -39 -87 -43 c-126 -63 -232 -170 -295 -300 -84 -171 -98
-342 -43 -515 35 -110 88 -196 173 -281 l72 -72 -49 -41 c-61 -51 -131 -147
-169 -233 -153 -336 1 -746 337 -900 l63 -29 -35 -40 c-125 -147 -177 -384
-126 -585 32 -129 82 -217 180 -315 96 -98 175 -146 293 -180 l78 -23 -8 -46
c-12 -71 -7 -199 11 -270 30 -122 90 -225 185 -321 72 -73 101 -94 181 -132
101 -49 211 -77 304 -77 136 0 301 56 413 141 l53 39 28 -62 c62 -136 180
-255 316 -322 103 -50 185 -69 301 -69 155 0 259 32 388 120 43 30 80 53 81
51 54 -122 86 -170 165 -248 99 -98 186 -149 307 -180 186 -48 412 -10 557 92
l28 20 107 -31 c248 -71 389 -92 667 -98 314 -7 524 19 797 98 l107 31 28 -20
c145 -102 371 -140 557 -92 122 31 209 82 307 180 78 78 112 128 165 248 1 2
38 -21 81 -51 95 -64 168 -94 283 -114 289 -51 598 114 722 385 l28 62 53 -39
c110 -83 278 -141 412 -141 94 0 204 27 305 77 177 86 318 259 366 453 18 71
23 199 11 270 l-8 46 78 23 c118 34 197 82 293 180 97 98 146 184 180 316 51
198 -1 437 -126 583 l-34 40 63 30 c143 67 257 181 326 325 112 232 88 489
-64 703 -25 35 -68 82 -95 105 l-49 41 72 72 c124 123 193 275 204 446 18 266
-134 533 -369 650 l-87 43 35 41 c51 59 110 183 130 272 32 146 8 327 -61 464
-106 209 -350 369 -562 370 -29 0 -53 4 -53 9 0 6 14 31 32 57 78 116 118 293
98 440 -22 168 -79 283 -200 404 -109 109 -225 172 -363 195 -31 5 -37 10 -32
23 47 122 56 352 17 485 -130 450 -586 709 -1026 582 -47 -14 -88 -25 -90 -25
-3 0 -7 15 -11 33 -12 60 -84 195 -143 269 -99 125 -234 218 -397 275 -75 26
-90 28 -245 28 -155 0 -170 -2 -245 -28 -44 -16 -99 -39 -122 -52 l-43 -23
-30 41 c-131 179 -318 296 -538 338 -79 15 -265 6 -347 -16 -84 -23 -210 -85
-283 -140 l-62 -47 -62 48 c-72 54 -195 115 -283 139 -83 23 -301 29 -383 10z
m358 -270 c30 -9 109 -42 175 -73 113 -54 125 -57 195 -57 71 0 82 3 205 61
196 93 335 115 498 78 130 -29 189 -63 373 -213 90 -73 163 -111 214 -111 19
0 91 14 160 30 213 51 373 37 533 -47 90 -47 188 -144 242 -238 53 -93 175
-216 238 -240 45 -17 59 -17 190 -6 112 10 159 11 222 1 201 -30 357 -132 451
-295 l29 -50 5 -217 c4 -155 9 -221 18 -230 6 -6 12 -26 12 -42 0 -17 9 -42
20 -56 11 -14 20 -30 20 -37 0 -6 33 -45 72 -86 56 -57 94 -85 163 -120 103
-53 184 -120 220 -181 24 -42 25 -48 25 -233 0 -149 -3 -200 -16 -234 -21 -59
-23 -168 -4 -205 20 -39 76 -113 108 -142 44 -41 95 -71 184 -105 116 -46 199
-106 248 -180 l40 -59 0 -174 0 -174 -36 -88 c-46 -111 -55 -197 -26 -262 24
-57 105 -155 205 -250 43 -41 90 -93 103 -116 25 -42 25 -46 22 -236 l-3 -193
-63 -103 c-92 -152 -112 -196 -112 -245 0 -47 33 -125 94 -219 92 -145 88
-126 84 -342 l-3 -193 -30 -44 c-16 -24 -82 -99 -147 -166 -126 -131 -169
-199 -170 -267 -1 -25 16 -87 41 -156 l42 -115 -3 -170 c-2 -139 -6 -177 -21
-206 -32 -65 -111 -142 -198 -193 -114 -68 -229 -179 -267 -259 -24 -50 -30
-79 -34 -154 -3 -51 -10 -99 -16 -106 -6 -7 -16 -35 -22 -62 -14 -61 -57 -130
-115 -184 -82 -76 -191 -114 -325 -114 -92 0 -161 16 -275 64 -182 78 -226 62
-445 -160 -137 -138 -230 -181 -395 -181 -143 0 -325 71 -325 126 0 8 63 81
139 164 302 324 507 618 717 1025 235 457 388 910 488 1445 58 307 66 420 66
885 l0 431 -32 54 c-18 30 -49 65 -68 78 -50 34 -101 26 -241 -36 -148 -66
-212 -82 -324 -82 -224 0 -406 104 -546 312 -33 50 -71 112 -84 137 -34 66
-89 126 -138 150 -69 33 -93 23 -347 -155 -285 -200 -675 -226 -995 -67 -208
104 -355 264 -474 517 -49 107 -79 148 -132 183 -59 39 -115 30 -226 -36 -258
-153 -399 -200 -623 -208 -268 -10 -491 53 -680 193 -146 107 -234 227 -304
414 -26 69 -58 142 -71 162 -30 45 -82 86 -126 98 -70 20 -215 -35 -384 -144
-516 -336 -871 -941 -1000 -1700 -25 -145 -25 -158 -25 -674 0 -580 0 -580 66
-846 135 -539 366 -1078 649 -1511 173 -264 368 -507 559 -695 54 -53 66 -70
66 -96 0 -30 -5 -35 -66 -64 -159 -75 -327 -81 -474 -17 -57 25 -109 68 -215
176 -55 56 -122 116 -149 134 -70 45 -119 42 -266 -16 -151 -59 -245 -73 -357
-53 -98 17 -202 68 -260 129 -45 46 -103 148 -103 181 0 12 -7 39 -15 61 -8
22 -14 72 -15 110 0 57 -6 82 -30 134 -41 87 -149 193 -255 251 -92 50 -179
132 -215 205 -24 47 -25 59 -25 215 l0 165 44 103 c78 189 60 243 -155 457
-85 84 -121 128 -140 169 -24 54 -25 62 -22 224 l3 168 58 90 c81 123 120 208
125 269 4 44 -1 62 -33 126 -21 41 -50 92 -65 114 -15 22 -41 67 -59 100 l-31
60 0 166 0 165 31 49 c17 27 84 101 148 164 187 184 217 272 150 432 -51 121
-59 163 -59 310 0 125 2 139 26 187 28 57 115 142 178 174 22 12 78 36 124 54
124 48 203 118 259 226 29 56 29 103 -2 213 -21 78 -25 111 -25 248 0 141 2
162 21 200 35 68 116 137 230 197 76 40 120 71 164 116 64 66 115 153 115 195
0 14 4 29 9 35 5 5 11 104 13 219 4 204 5 211 31 262 35 68 141 179 211 222
140 84 274 109 483 90 131 -11 145 -11 189 6 64 24 165 127 230 235 125 206
295 307 534 317 104 5 128 2 246 -26 72 -17 147 -31 165 -31 55 0 127 41 244
139 122 102 232 163 335 186 83 18 264 13 340 -10z m-1561 -2736 c1 -53 35
-177 70 -252 44 -99 113 -197 200 -283 427 -427 1185 -439 1623 -25 39 36 59
49 62 40 2 -8 10 -39 17 -69 40 -182 153 -375 307 -522 140 -133 303 -225 489
-275 88 -24 115 -27 273 -27 158 0 185 3 275 27 197 53 396 173 529 319 36 40
67 70 69 67 2 -2 14 -38 27 -79 81 -272 302 -506 554 -586 246 -78 525 -12
718 170 l37 34 7 -34 c3 -19 4 -205 1 -412 -5 -400 -19 -568 -72 -878 -146
-847 -492 -1620 -993 -2219 -125 -149 -354 -375 -492 -486 -246 -197 -555
-379 -782 -460 l-67 -23 -41 41 c-58 59 -89 62 -291 24 -253 -47 -336 -55
-584 -56 -250 0 -356 10 -590 56 -82 16 -165 29 -183 29 -45 0 -99 -27 -125
-62 -11 -15 -27 -28 -34 -28 -28 0 -242 93 -358 156 -532 289 -1005 757 -1353
1337 -259 433 -452 923 -565 1432 -46 206 -62 401 -62 725 1 552 97 1004 299
1417 217 441 527 753 926 929 105 46 108 46 109 -27z M3857 5316 c-98 -35
-166 -111 -187 -210 -8 -33 -10 -157 -8 -361 l3 -310 28 -57 c87 -177 304
-212 444 -73 80 80 83 99 83 470 0 371 -3 390 -83 470 -79 78 -184 105 -280
71z M6620 5313 c-26 -9 -66 -38 -96 -68 -81 -80 -84 -99 -84 -470 0 -356 4
-383 71 -459 53 -60 107 -87 185 -94 118 -9 218 48 271 156 l28 57 0 340 c0
324 -1 342 -21 385 -30 65 -70 107 -128 137 -65 33 -161 40 -226 16z M4964
3928 c-17 -6 -53 -27 -80 -47 -163 -123 -135 -379 51 -467 50 -24 53 -24 395
-24 342 0 345 0 395 24 207 98 212 393 8 496 l-48 25 -345 2 c-214 1 -357 -3
-376 -9z m662 -239 c20 -20 12 -49 -18 -69 -19 -12 -71 -16 -265 -18 -225 -3
-246 -2 -288 17 -61 27 -61 68 0 84 11 3 140 5 287 4 233 -2 269 -4 284 -18z
M4396 2810 c-57 -22 -119 -78 -149 -135 -32 -60 -31 -183 3 -249 58 -114 288
-261 538 -345 183 -61 292 -76 542 -76 249 0 356 15 541 75 249 82 488 238
544 355 60 128 3 295 -125 360 -110 56 -209 41 -330 -50 -175 -133 -365 -189
-635 -189 -281 1 -440 53 -668 219 -81 58 -170 70 -261 35z m164 -265 c14 -4
67 -32 119 -63 303 -179 660 -226 999 -131 101 28 194 69 308 136 73 42 107
57 138 57 148 3 -96 -181 -304 -229 -8 -2 -62 -15 -120 -29 -253 -61 -520 -56
-810 15 -205 50 -410 163 -410 227 0 31 16 34 80 17z"/>
</g>
</svg>
