<?xml version="1.0" standalone="no"?>
<!DOCTYPE svg PUBLIC "-//W3C//DTD SVG 20010904//EN"
 "http://www.w3.org/TR/2001/REC-SVG-20010904/DTD/svg10.dtd">
<svg version="1.0" xmlns="http://www.w3.org/2000/svg"
 width="2048.000000pt" height="2048.000000pt" viewBox="0 0 2048.000000 2048.000000"
 preserveAspectRatio="xMidYMid meet">
<metadata>
Created by potrace 1.13, written by Peter Selinger 2001-2015
</metadata>
<g transform="translate(0.000000,2048.000000) scale(0.192120,-0.192120)"
fill="#000000" stroke="none">
<path d="M5085 10043 c-1109 -93 -2237 -669 -2993 -1528 -618 -702 -1001
-1564 -1146 -2575 -49 -340 -57 -498 -63 -1225 -16 -2021 108 -3191 397 -3755
88 -170 179 -269 296 -322 101 -45 322 -33 593 33 163 40 369 107 726 236 479
173 725 256 952 318 l122 33 133 -68 c266 -136 513 -219 813 -271 172 -30 530
-37 714 -15 357 44 681 147 984 314 l79 43 131 -36 c196 -55 519 -162 917
-305 515 -185 703 -243 925 -287 130 -25 417 -25 500 0 201 62 337 215 419
472 146 451 186 1143 189 3235 2 1128 0 1197 -59 1599 -159 1104 -594 2018
-1309 2749 -735 754 -1780 1259 -2795 1351 -105 10 -429 12 -525 4z m590 -268
c954 -101 1934 -587 2625 -1301 637 -659 1004 -1416 1182 -2439 l33 -190 0
-1925 c0 -1786 -1 -1937 -18 -2090 -61 -556 -146 -823 -294 -918 -127 -82
-387 -82 -701 -1 -151 39 -334 99 -717 236 -605 215 -585 207 -585 248 0 13
50 67 138 150 228 216 395 407 565 650 139 197 346 572 456 827 189 435 328
949 391 1443 25 200 28 555 6 662 -42 195 -157 453 -273 607 -269 359 -713
635 -1233 766 -249 63 -429 87 -765 101 -357 14 -532 39 -842 120 -409 106
-796 260 -1352 537 -254 127 -254 127 -326 127 -116 0 -132 -13 -615 -491
-417 -412 -499 -490 -670 -630 -252 -208 -323 -270 -405 -355 -108 -112 -165
-190 -237 -325 -59 -109 -100 -216 -129 -334 -16 -65 -19 -117 -19 -399 0
-297 2 -340 26 -500 169 -1158 707 -2201 1492 -2892 59 -53 65 -78 25 -107
-45 -30 -923 -343 -1144 -407 -266 -77 -503 -111 -605 -86 -250 60 -422 568
-524 1551 -38 371 -40 464 -40 1891 0 1553 -4 1459 70 1861 231 1263 890 2263
1938 2942 547 355 1231 603 1845 670 169 19 530 19 702 1z m-1300 -2730 c820
-402 1520 -604 2105 -605 429 -1 875 -99 1230 -271 538 -260 860 -661 936
-1161 16 -109 10 -241 -27 -528 -118 -940 -477 -1798 -1027 -2455 -224 -267
-611 -608 -783 -690 -36 -17 -36 -17 -78 11 -63 41 -109 37 -268 -25 -165 -64
-192 -73 -328 -110 -124 -34 -306 -72 -440 -92 -120 -18 -608 -19 -725 -1
-270 41 -506 101 -730 187 -91 34 -181 65 -201 69 -41 7 -84 -6 -116 -36 -29
-27 -53 -20 -151 45 -228 153 -516 416 -709 649 -541 650 -891 1478 -1017
2403 -70 514 -48 759 95 1045 95 190 231 339 539 590 282 230 352 295 813 758
l449 449 111 -64 c62 -36 207 -111 322 -168z M3857 5316 c-98 -35 -166 -111
-187 -210 -8 -33 -10 -157 -8 -361 l3 -310 28 -57 c87 -177 304 -212 444 -73
80 80 83 99 83 470 0 371 -3 390 -83 470 -79 78 -184 105 -280 71z M6620 5313
c-26 -9 -66 -38 -96 -68 -81 -80 -84 -99 -84 -470 0 -356 4 -383 71 -459 53
-60 107 -87 185 -94 118 -9 218 48 271 156 l28 57 0 340 c0 324 -1 342 -21
385 -30 65 -70 107 -128 137 -65 33 -161 40 -226 16z M4964 3928 c-17 -6 -53
-27 -80 -47 -163 -123 -135 -379 51 -467 50 -24 53 -24 395 -24 342 0 345 0
395 24 207 98 212 393 8 496 l-48 25 -345 2 c-214 1 -357 -3 -376 -9z m662
-239 c20 -20 12 -49 -18 -69 -19 -12 -71 -16 -265 -18 -225 -3 -246 -2 -288
17 -61 27 -61 68 0 84 11 3 140 5 287 4 233 -2 269 -4 284 -18z M4396 2810
c-57 -22 -119 -78 -149 -135 -32 -60 -31 -183 3 -249 58 -114 288 -261 538
-345 183 -61 292 -76 542 -76 249 0 356 15 541 75 249 82 488 238 544 355 60
128 3 295 -125 360 -110 56 -209 41 -330 -50 -175 -133 -365 -189 -635 -189
-281 1 -440 53 -668 219 -81 58 -170 70 -261 35z m164 -265 c14 -4 67 -32 119
-63 303 -179 660 -226 999 -131 101 28 194 69 308 136 73 42 107 57 138 57
148 3 -96 -181 -304 -229 -8 -2 -62 -15 -120 -29 -253 -61 -520 -56 -810 15
-205 50 -410 163 -410 227 0 31 16 34 80 17z"/>
</g>
</svg>
