<?xml version="1.0" standalone="no"?>
<!DOCTYPE svg PUBLIC "-//W3C//DTD SVG 20010904//EN"
 "http://www.w3.org/TR/2001/REC-SVG-20010904/DTD/svg10.dtd">
<svg version="1.0" xmlns="http://www.w3.org/2000/svg"
 width="2048.000000pt" height="2048.000000pt" viewBox="0 0 2048.000000 2048.000000"
 preserveAspectRatio="xMidYMid meet">
<metadata>
Created by potrace 1.13, written by Peter Selinger 2001-2015
</metadata>
<g transform="translate(0.000000,2048.000000) scale(0.192120,-0.192120)"
fill="#000000" stroke="none">
<path d="M5015 9240 c-1187 -120 -2100 -806 -2573 -1935 -131 -312 -241 -709
-293 -1062 l-12 -83 -32 0 c-51 0 -145 -29 -203 -62 -210 -120 -373 -403 -438
-763 -24 -135 -25 -431 0 -562 49 -271 144 -483 280 -630 108 -117 249 -193
355 -193 l36 0 34 -133 c75 -298 189 -610 327 -895 101 -211 159 -314 281
-500 545 -835 1288 -1358 2137 -1503 154 -27 513 -37 678 -20 669 69 1296 389
1819 928 502 518 887 1227 1080 1991 l34 132 36 0 c89 0 211 57 305 142 357
327 461 1063 224 1600 -77 177 -206 334 -332 406 -58 33 -152 62 -203 62 l-32
0 -12 83 c-109 734 -383 1396 -785 1896 -486 605 -1148 973 -1956 1086 -136
19 -617 28 -755 15z m730 -194 c810 -114 1450 -489 1922 -1127 238 -321 400
-649 527 -1069 34 -114 88 -329 102 -405 18 -104 53 -244 69 -275 32 -63 136
-153 236 -205 179 -92 299 -243 373 -467 67 -201 66 -197 66 -456 0 -307 -20
-410 -114 -594 -81 -160 -157 -231 -317 -298 -160 -68 -225 -144 -274 -320
-56 -199 -109 -350 -172 -490 -300 -663 -307 -677 -414 -837 -193 -291 -314
-429 -576 -659 -193 -170 -344 -284 -504 -379 -433 -258 -851 -376 -1339 -376
-676 0 -1252 233 -1834 741 -114 100 -269 258 -319 326 -12 17 -63 85 -112
150 -162 213 -299 440 -430 709 -104 216 -221 528 -280 750 -58 215 -135 316
-290 377 -47 18 -105 48 -130 65 -100 73 -197 223 -261 408 l-28 80 -4 339 -3
338 26 90 c43 151 126 298 224 395 33 33 89 70 160 107 120 63 207 139 239
211 10 22 31 103 46 180 140 707 360 1206 744 1689 83 105 303 322 414 410
202 159 503 333 728 419 233 91 530 157 855 191 99 10 555 -2 670 -18z M3859
5318 c-60 -16 -130 -77 -164 -143 l-30 -59 0 -340 c0 -338 0 -341 24 -394 84
-186 331 -218 465 -60 61 71 66 103 66 453 0 371 -3 390 -83 470 -77 76 -172
102 -278 73z M6620 5313 c-26 -9 -66 -38 -96 -68 -81 -80 -84 -99 -84 -470 0
-356 4 -383 71 -459 53 -60 107 -87 185 -94 118 -9 218 48 271 156 l28 57 0
340 c0 325 -1 342 -21 386 -48 103 -130 159 -243 165 -44 3 -81 -2 -111 -13z
M4956 3924 c-61 -22 -122 -78 -152 -141 -68 -137 -9 -303 131 -369 50 -24 53
-24 395 -24 342 0 345 0 395 24 220 104 205 433 -23 510 -64 22 -686 22 -746
0z m629 -244 c22 -18 18 -37 -7 -45 -36 -11 -337 -18 -421 -10 -86 8 -119 24
-98 48 17 21 82 25 319 22 132 -2 197 -7 207 -15z M4396 2810 c-98 -38 -165
-130 -174 -236 -10 -129 48 -216 222 -329 157 -102 341 -175 549 -217 97 -20
142 -23 337 -23 249 0 356 15 541 75 249 82 488 238 544 355 61 129 4 295
-125 360 -110 56 -209 41 -330 -50 -175 -133 -365 -189 -635 -189 -281 1 -440
53 -668 219 -81 58 -170 70 -261 35z m181 -282 c15 -7 65 -34 111 -61 46 -27
122 -67 168 -89 76 -36 100 -45 127 -47 4 -1 7 -8 7 -16 0 -13 -7 -15 -37 -9
-21 4 -46 8 -55 8 -10 0 -18 4 -18 9 0 4 -4 6 -9 2 -12 -7 -189 57 -254 92
-65 36 -107 76 -107 102 0 24 24 28 67 9z m1571 -10 c4 -23 -50 -70 -122 -106
-81 -41 -195 -84 -223 -84 -13 0 -23 -3 -23 -7 0 -4 -18 -6 -40 -6 -22 0 -40
-3 -40 -7 0 -5 -7 -8 -15 -8 -16 0 -21 29 -5 31 38 5 167 65 290 136 58 33
112 63 120 66 25 9 55 1 58 -15z m-492 -226 c-4 -3 -12 0 -19 7 -9 9 -9 14 3
21 11 7 16 5 18 -6 2 -9 1 -18 -2 -22z m-628 16 c-6 -18 -28 -21 -28 -4 0 9 7
16 16 16 9 0 14 -5 12 -12z m47 -7 c3 -5 1 -12 -5 -16 -5 -3 -10 1 -10 9 0 18
6 21 15 7z m525 -7 c0 -8 -4 -12 -10 -9 -5 3 -10 10 -10 16 0 5 5 9 10 9 6 0
10 -7 10 -16z m-455 -4 c3 -5 1 -10 -4 -10 -6 0 -11 5 -11 10 0 6 2 10 4 10 3
0 8 -4 11 -10z m385 0 c0 -5 -5 -10 -11 -10 -5 0 -7 5 -4 10 3 6 8 10 11 10 2
0 4 -4 4 -10z"/>
</g>
</svg>
