<?xml version="1.0" standalone="no"?>
<!DOCTYPE svg PUBLIC "-//W3C//DTD SVG 20010904//EN"
 "http://www.w3.org/TR/2001/REC-SVG-20010904/DTD/svg10.dtd">
<svg version="1.0" xmlns="http://www.w3.org/2000/svg"
 width="2048.000000pt" height="2048.000000pt" viewBox="0 0 2048.000000 2048.000000"
 preserveAspectRatio="xMidYMid meet">
<metadata>
Created by potrace 1.13, written by Peter Selinger 2001-2015
</metadata>
<g transform="translate(0.000000,2048.000000) scale(0.192120,-0.192120)"
fill="#000000" stroke="none">
<path d="M4985 10319 c-1310 -83 -2440 -661 -2835 -1449 -101 -201 -139 -352
-147 -575 -6 -195 9 -305 68 -480 104 -312 313 -592 638 -855 l90 -73 7 -56
c14 -118 54 -310 78 -375 64 -169 144 -276 206 -276 47 0 66 31 95 154 74 319
190 595 353 841 37 55 68 103 70 107 6 12 -79 -20 -123 -47 -48 -30 -91 -69
-125 -115 -58 -79 -159 -265 -221 -409 -24 -55 -44 -87 -57 -92 -23 -9 -25 -4
-62 116 -12 39 -26 82 -33 97 -15 36 -81 77 -138 84 -48 6 -48 6 -56 53 -15
92 -9 449 11 569 10 61 21 112 25 112 4 0 36 -15 71 -34 297 -157 990 -281
1815 -326 447 -25 1239 -10 1665 30 643 61 1165 175 1396 304 26 14 48 25 50
24 1 -2 12 -52 24 -113 25 -126 36 -379 23 -520 l-8 -89 -45 -8 c-48 -8 -120
-37 -120 -48 0 -3 -9 -16 -19 -27 -21 -22 -39 -142 -44 -288 -1 -38 -6 -70
-12 -71 -5 0 -19 -4 -29 -9 -27 -12 -60 32 -152 205 -154 290 -179 333 -223
377 -84 86 -87 86 -491 94 -195 4 -393 10 -440 13 -47 4 -114 9 -150 11 -91 7
-51 -8 103 -39 219 -45 592 -86 782 -86 l70 0 215 -422 c231 -456 259 -498
324 -498 62 0 115 77 161 237 27 90 64 335 66 433 0 30 4 65 7 76 4 12 43 51
87 86 388 313 627 684 691 1076 23 142 14 382 -20 517 -77 308 -234 566 -504
827 -486 469 -1259 797 -2142 907 -312 39 -677 50 -995 30z m820 -298 c428
-58 843 -183 1260 -381 281 -133 620 -344 843 -523 l62 -50 0 -458 c0 -252 -3
-465 -6 -474 -6 -14 -9 -14 -28 3 -47 42 -143 102 -174 108 -17 4 -32 10 -32
15 0 5 -362 9 -829 9 -785 0 -919 4 -943 28 -15 15 2 36 62 81 135 101 222
216 261 343 26 85 28 424 3 509 -32 108 -110 200 -211 246 -44 21 -78 27 -177
33 -117 6 -126 9 -221 52 -157 72 -202 83 -345 83 -144 0 -188 -11 -345 -83
-96 -44 -105 -46 -221 -53 -144 -7 -202 -29 -277 -103 -99 -98 -117 -163 -117
-424 0 -230 9 -272 80 -392 49 -81 84 -120 183 -199 42 -34 77 -69 77 -76 0
-39 -14 -40 -922 -43 -483 -1 -878 -6 -878 -11 0 -5 -12 -12 -27 -16 -14 -3
-38 -15 -52 -26 -127 -97 -129 -98 -135 -83 -3 9 -6 222 -6 473 l0 458 103 80
c302 237 704 465 1087 616 402 159 720 234 1195 281 22 2 162 2 310 1 199 -3
309 -9 420 -24z m-294 -555 c72 -25 158 -78 202 -124 l28 -29 82 30 c104 37
192 42 234 12 38 -28 80 -116 93 -195 5 -36 10 -124 10 -195 0 -203 -34 -299
-144 -403 -126 -120 -342 -174 -686 -174 -344 0 -560 54 -686 174 -110 104
-144 200 -144 403 0 71 5 159 10 195 13 79 55 167 93 195 42 30 130 25 234
-12 l82 -30 28 29 c62 65 188 130 285 147 77 14 202 4 279 -23z m2726 -645
c34 -45 79 -141 102 -215 19 -62 21 -92 21 -321 0 -212 -2 -255 -15 -265 -9
-8 -15 -8 -15 -2 0 15 -93 153 -119 176 -21 19 -21 25 -21 342 0 346 0 349 47
285z m-5816 -656 c-16 -18 -39 -51 -52 -74 -12 -23 -26 -41 -30 -41 -4 0 -9
-10 -13 -22 -5 -22 -6 -22 -23 -5 -16 16 -18 43 -21 247 -3 211 -1 235 19 302
24 82 66 171 113 238 l31 45 3 -329 2 -328 -29 -33z m5608 -73 c99 -50 105
-177 12 -239 l-34 -23 -2677 0 -2677 0 -34 23 c-93 62 -87 189 12 239 32 17
182 18 2699 18 2517 0 2667 -1 2699 -18z m-5603 -339 c22 -27 58 -66 81 -88
48 -46 61 -81 39 -110 -20 -27 -39 -14 -93 61 -37 52 -83 148 -83 174 0 21 19
8 56 -37z m5831 -22 c-7 -35 -81 -162 -108 -186 -25 -24 -53 -10 -57 29 -3 21
12 42 75 109 43 46 82 81 87 79 4 -3 6 -16 3 -31z M4811 9226 c-84 -62 -105
-125 -99 -303 3 -121 5 -132 37 -196 37 -77 112 -158 182 -196 39 -21 42 -22
23 -3 -118 114 -178 254 -177 412 0 102 17 179 59 262 27 54 22 59 -25 24z
M5824 9202 c100 -197 75 -442 -62 -610 -19 -24 -44 -53 -56 -64 -19 -19 -16
-18 23 3 67 36 147 122 183 198 31 62 33 74 36 194 5 177 -18 246 -103 304
-19 13 -37 23 -40 23 -3 0 6 -22 19 -48z M4673 7168 c28 -15 126 -26 161 -18
74 16 54 25 -59 25 -62 0 -108 -3 -102 -7z M5276 7128 c47 -49 185 -148 249
-179 104 -50 145 -35 145 53 0 28 -7 75 -16 103 l-17 53 -44 -34 c-54 -41 -96
-44 -193 -13 -36 11 -85 26 -109 34 l-44 14 29 -31z M2788 6491 c-87 -96 -156
-266 -179 -437 -15 -115 -6 -304 21 -414 29 -121 105 -272 172 -341 51 -54
139 -109 172 -109 17 0 18 -4 41 -150 60 -382 232 -821 452 -1154 149 -225
391 -489 571 -621 l81 -60 3 -180 3 -180 175 -127 c381 -278 916 -648 936
-648 23 0 38 72 24 116 -16 48 -94 127 -185 185 -72 46 -332 199 -339 199 -8
0 -197 116 -303 186 -123 83 -175 133 -204 201 -10 24 -19 47 -19 50 0 2 28
-17 63 -45 148 -117 268 -183 431 -238 380 -126 886 -125 1261 4 163 56 307
140 472 274 18 14 0 -44 -26 -86 -48 -77 -182 -174 -451 -326 -215 -121 -394
-230 -451 -274 -92 -70 -128 -156 -96 -229 l12 -28 99 67 c226 151 744 516
983 694 l33 24 0 180 0 181 82 60 c107 78 323 292 426 422 214 271 372 569
487 918 50 151 106 380 120 490 10 81 15 95 31 95 20 0 91 37 132 69 50 40
110 124 152 215 148 319 105 786 -94 1011 -41 47 -43 41 -19 -76 15 -70 18
-140 18 -410 l0 -326 -45 -88 c-36 -72 -65 -111 -158 -208 -132 -139 -151
-172 -186 -337 -25 -117 -37 -158 -125 -405 -144 -407 -239 -597 -399 -800
-60 -76 -98 -114 -237 -243 -145 -133 -213 -205 -245 -259 -30 -50 -35 -66
-35 -123 l0 -65 -56 -37 c-141 -94 -397 -200 -596 -247 -224 -52 -513 -66
-734 -35 -277 38 -587 150 -795 287 -61 39 -62 40 -52 74 25 89 -53 201 -279
401 -85 75 -232 250 -320 382 -177 262 -346 663 -409 965 -29 141 -46 211 -60
242 -24 52 -80 123 -173 213 -68 66 -95 102 -126 164 l-40 79 -3 295 c-2 258
0 312 18 431 11 75 23 146 26 159 7 34 -10 26 -58 -27z M4120 6423 c-27 -10
-65 -37 -96 -68 -74 -74 -84 -114 -84 -330 0 -207 10 -251 75 -323 63 -70 127
-96 221 -90 111 7 189 61 236 163 22 47 23 62 23 250 0 199 0 200 -28 257 -64
131 -208 189 -347 141z M6344 6424 c-60 -21 -119 -77 -151 -142 -28 -57 -28
-58 -28 -262 0 -203 0 -205 27 -256 50 -95 126 -145 233 -152 93 -6 158 21
220 90 65 72 75 116 75 323 0 216 -10 256 -83 330 -80 80 -190 106 -293 69z
M5034 5241 c-79 -36 -136 -142 -119 -223 12 -59 53 -116 103 -145 47 -28 47
-28 267 -31 121 -2 243 -1 271 3 94 11 169 81 189 173 17 80 -40 187 -119 223
-36 17 -69 19 -296 19 -227 0 -260 -2 -296 -19z M4384 4260 c-115 -26 -177
-152 -128 -256 79 -166 525 -284 1074 -284 598 0 1049 134 1088 324 16 80 -8
142 -75 193 -31 24 -46 28 -99 28 -54 0 -68 -4 -106 -32 -54 -38 -119 -65
-225 -92 -189 -48 -526 -70 -791 -52 -288 20 -466 61 -592 136 -61 37 -99 46
-146 35z M6713 2910 c9 -14 22 -34 28 -46 6 -11 25 -29 42 -39 l31 -18 -29 39
c-15 21 -42 50 -59 64 l-31 25 18 -25z M3913 2887 c-17 -18 -38 -46 -49 -62
-18 -28 -18 -28 1 -17 23 12 54 46 78 85 24 37 7 34 -30 -6z M3390 2799 c-30
-5 -181 -29 -335 -54 -395 -63 -805 -128 -1045 -165 -113 -18 -220 -39 -239
-48 -43 -20 -71 -66 -71 -119 0 -60 39 -301 55 -340 19 -46 68 -73 130 -72 54
0 215 26 178 28 -27 1 -26 0 -57 191 -37 226 -50 329 -43 336 3 4 27 -1 53
-10 68 -23 85 -20 145 19 29 20 56 32 60 28 4 -4 23 -107 42 -228 48 -304 47
-293 34 -299 -7 -4 2 -4 18 -2 17 3 85 13 153 23 114 16 123 19 118 38 -24 98
-86 525 -76 525 4 0 27 -7 50 -15 67 -24 101 -19 153 20 25 19 48 35 51 35 10
0 86 -446 86 -506 0 -14 6 -27 13 -29 6 -2 76 6 154 18 101 16 138 25 128 32
-9 7 -26 85 -49 240 -40 260 -46 295 -43 295 1 0 30 -9 65 -20 70 -22 86 -19
157 30 l44 30 10 -53 c14 -68 58 -347 67 -427 l7 -62 -70 7 c-64 6 -75 4 -119
-19 -27 -14 -41 -26 -30 -26 46 0 382 62 408 76 41 21 68 70 67 124 0 77 -44
316 -63 345 -39 59 -89 72 -206 54z M7113 2790 c-52 -31 -65 -63 -90 -209 -28
-171 -29 -217 -3 -259 28 -46 63 -58 263 -92 179 -30 227 -35 197 -22 -8 4
-27 15 -43 26 -23 16 -38 17 -102 11 l-75 -7 0 28 c0 34 69 470 79 495 6 18 9
17 48 -11 62 -46 89 -51 158 -29 33 10 60 17 61 16 7 -9 -77 -520 -87 -532
-10 -10 268 -58 282 -50 3 3 9 30 12 61 10 95 69 450 77 464 5 8 21 2 57 -24
56 -40 87 -44 153 -21 23 8 44 15 46 15 10 0 1 -83 -31 -285 -20 -121 -37
-229 -38 -239 -2 -17 11 -21 108 -37 61 -10 124 -20 140 -23 30 -6 31 -5 33
31 3 47 71 479 79 499 7 18 18 16 -287 64 -146 22 -362 57 -480 76 -277 45
-475 74 -503 74 -12 0 -36 -9 -54 -20z M8480 2580 c68 -57 79 -58 203 -23 13
4 17 -1 17 -23 0 -31 -66 -457 -76 -486 -3 -10 -15 -18 -27 -19 -37 -2 125
-27 178 -28 61 -1 105 23 127 70 18 37 58 275 58 340 0 49 -20 90 -56 114 -23
15 -393 86 -444 85 -9 0 -2 -12 20 -30z M3790 2215 c-22 -102 -15 -230 20
-368 125 -491 189 -673 256 -726 26 -21 64 -28 64 -13 0 4 -21 68 -45 142 -63
187 -146 480 -219 775 l-63 250 -13 -60z M6798 2016 c-63 -257 -165 -616 -227
-799 -38 -114 -39 -118 -18 -111 77 24 112 96 202 406 133 463 149 548 125
672 -7 36 -15 66 -19 66 -3 0 -32 -105 -63 -234z M2716 2162 c-10 -2 -39 -15
-65 -29 l-46 -25 50 8 c28 3 81 12 119 18 l69 11 -55 10 c-29 6 -62 9 -72 7z
M7865 2156 l-49 -12 84 -12 c47 -7 101 -15 120 -18 31 -5 28 -2 -25 25 -33 17
-64 30 -70 30 -5 -1 -32 -7 -60 -13z M2135 2064 c-71 -36 -52 -42 70 -20 l70
12 -34 12 c-45 16 -70 15 -106 -4z M8415 2066 c-28 -12 -26 -13 58 -25 49 -7
91 -11 94 -8 10 11 -62 47 -92 47 -16 -1 -43 -7 -60 -14z M5198 1908 c-213
-145 -458 -339 -458 -364 0 -7 16 -62 36 -121 25 -75 60 -149 115 -242 43 -73
79 -135 79 -138 0 -3 -20 -27 -44 -54 -98 -109 -192 -355 -240 -626 l-5 -33
650 0 651 0 -7 38 c-13 72 -66 248 -106 347 -38 96 -122 255 -160 303 -18 23
-17 24 15 75 85 136 138 241 171 342 19 61 35 113 35 116 0 18 -372 300 -542
411 l-56 37 -134 -91z m207 -201 c17 -12 32 -24 35 -27 3 -3 55 -42 116 -87
60 -45 118 -91 128 -102 28 -31 16 -84 -38 -172 -52 -87 -76 -147 -76 -193 0
-54 -21 -59 -238 -62 -177 -2 -194 0 -217 18 -18 14 -25 29 -25 56 0 43 -26
104 -80 187 -47 73 -59 132 -35 172 15 26 120 103 139 103 4 0 42 27 85 59
111 87 139 93 206 48z m105 -814 c106 -52 160 -129 160 -227 0 -76 -1 -76
-357 -76 -351 0 -353 0 -353 70 0 60 81 158 178 217 69 41 119 53 217 50 79
-2 99 -6 155 -34z M8872 1847 c-24 -66 -15 -125 34 -232 82 -177 105 -238 140
-370 l34 -130 0 -317 c0 -311 0 -318 -20 -318 -11 0 -20 -7 -20 -15 0 -13
-156 -15 -1345 -15 -962 0 -1358 -3 -1392 -11 -69 -17 -119 -38 -171 -76 l-47
-33 1568 0 1569 0 -5 368 c-4 389 -11 453 -60 632 -29 105 -88 253 -135 340
-30 54 -130 210 -136 210 -1 0 -7 -15 -14 -33z M1726 1814 c-124 -180 -218
-414 -263 -659 -11 -57 -16 -187 -20 -452 l-5 -373 1568 0 1569 1 -29 22 c-15
12 -56 39 -90 60 l-61 38 -1358 -3 c-1287 -3 -1357 -2 -1357 15 0 14 -9 17
-45 17 l-45 0 0 345 c0 275 3 362 16 423 18 88 65 211 135 355 26 54 51 117
54 141 7 42 -9 126 -23 126 -4 0 -24 -25 -46 -56z M4635 1462 c-152 -133 -425
-421 -425 -448 0 -15 6 -24 16 -24 20 0 299 186 447 298 55 41 57 44 42 65
-19 27 -19 92 0 146 8 22 13 41 12 41 -2 0 -43 -35 -92 -78z M5955 1489 c20
-55 19 -109 -2 -138 -16 -24 -16 -25 17 -52 42 -36 290 -201 399 -268 154 -93
149 -67 -22 119 -124 135 -381 380 -398 380 -5 0 -2 -19 6 -41z"/>
</g>
</svg>
