<?xml version="1.0" standalone="no"?>
<!DOCTYPE svg PUBLIC "-//W3C//DTD SVG 20010904//EN"
 "http://www.w3.org/TR/2001/REC-SVG-20010904/DTD/svg10.dtd">
<svg version="1.0" xmlns="http://www.w3.org/2000/svg"
 width="2048.000000pt" height="2048.000000pt" viewBox="0 0 2048.000000 2048.000000"
 preserveAspectRatio="xMidYMid meet">
<metadata>
Created by potrace 1.13, written by Peter Selinger 2001-2015
</metadata>
<g transform="translate(0.000000,2048.000000) scale(0.192120,-0.192120)"
fill="#000000" stroke="none">
<path d="M1330 10325 c-8 -2 -49 -9 -90 -15 -221 -36 -439 -156 -609 -336
-130 -137 -213 -289 -270 -493 l-26 -96 -3 -3165 c-2 -2189 1 -3190 8 -3247
17 -134 47 -232 110 -358 148 -297 390 -493 727 -587 77 -22 89 -22 991 -25
l913 -4 -15 29 c-25 49 -68 94 -103 108 -26 11 -169 14 -765 14 -733 0 -859 5
-986 37 -295 73 -572 327 -667 612 l-25 76 0 3295 0 3295 23 65 c38 105 103
207 191 296 130 130 275 215 456 265 l85 24 3210 0 c3035 0 3214 -1 3283 -18
158 -38 283 -98 403 -193 170 -133 217 -217 362 -643 12 -36 46 -112 74 -170
l53 -106 -4 210 c-4 229 -13 285 -76 441 -143 356 -478 622 -857 679 -85 13
-522 15 -3238 14 -1727 -1 -3147 -3 -3155 -4z M1383 9939 c-165 -20 -335 -107
-448 -231 -61 -68 -136 -196 -160 -274 -22 -73 -22 -6464 0 -6537 29 -96 87
-189 167 -269 127 -126 274 -199 441 -218 113 -13 1627 -13 1627 0 0 6 24 10
53 10 63 0 139 25 262 84 l90 44 -1010 1 c-848 1 -1021 4 -1080 16 -198 42
-358 194 -422 401 -17 57 -18 181 -18 3199 0 3020 1 3142 18 3200 59 191 200
332 392 391 58 18 166 19 3200 19 3018 0 3142 -1 3199 -18 151 -47 287 -156
354 -284 18 -35 37 -63 42 -63 13 0 41 31 51 57 15 41 10 68 -26 141 -64 127
-222 254 -385 309 -51 17 -101 18 -675 19 -4292 10 -5611 11 -5672 3z M6468
9615 c-1010 -138 -1899 -761 -2353 -1650 -225 -440 -341 -899 -376 -1490 -14
-231 -6 -1372 11 -1675 38 -677 114 -1122 236 -1379 77 -163 157 -245 263
-271 112 -27 360 25 706 146 327 114 795 271 833 279 l32 7 0 -240 0 -239 61
-114 c207 -384 466 -757 673 -965 215 -216 257 -217 466 -5 206 207 486 609
681 977 l59 111 0 231 c0 128 -3 232 -7 232 -18 0 -74 -49 -91 -80 -28 -50
-62 -163 -62 -204 0 -19 -4 -37 -9 -40 -4 -3 -11 -28 -14 -56 -3 -28 -13 -60
-22 -72 -8 -13 -15 -28 -15 -35 0 -19 -144 -256 -267 -440 -209 -312 -392
-525 -460 -535 -77 -11 -149 45 -303 238 -173 216 -490 711 -490 766 0 13 -7
32 -15 42 -9 12 -15 43 -15 80 0 66 -46 228 -80 284 -11 18 -36 40 -55 49 -28
14 -35 22 -35 47 0 29 0 29 63 -33 153 -151 360 -252 605 -297 135 -24 384
-29 528 -10 282 37 499 134 671 299 l72 69 3 -33 3 -33 165 -52 c91 -28 251
-82 355 -119 547 -194 691 -236 868 -255 78 -9 125 -9 179 -1 332 51 432 336
468 1336 17 461 18 1946 2 2125 -66 717 -275 1291 -655 1800 -130 174 -413
459 -580 584 -452 338 -965 551 -1492 620 -146 19 -468 20 -607 1z m589 -250
c256 -34 470 -94 808 -227 399 -157 466 -200 749 -478 109 -107 242 -244 294
-305 219 -255 414 -609 516 -938 74 -237 86 -303 86 -459 l0 -143 -73 76
c-115 120 -189 166 -308 191 -87 18 -166 1 -293 -62 -124 -62 -122 -62 -284
28 -304 168 -581 237 -1032 257 -411 18 -797 133 -1360 405 -238 116 -293 134
-352 121 -95 -22 -159 -75 -543 -451 -266 -261 -377 -353 -441 -366 -21 -4
-56 4 -122 30 -154 60 -248 58 -381 -7 -77 -37 -187 -141 -247 -231 -64 -98
-67 -94 -61 115 4 156 8 200 31 289 99 391 253 717 491 1037 98 134 384 422
515 519 460 343 952 542 1505 607 88 11 396 5 502 -8z m-1136 -1706 c235 -132
607 -297 859 -379 279 -92 472 -127 758 -140 315 -14 513 -49 720 -126 173
-65 294 -133 418 -234 l71 -59 16 28 c9 16 46 55 81 89 75 70 139 97 231 95
180 -2 339 -176 413 -453 23 -84 26 -115 26 -270 1 -152 -2 -187 -22 -265 -51
-196 -161 -362 -284 -431 -48 -26 -62 -29 -144 -29 l-92 0 -26 -106 c-54 -219
-143 -455 -252 -669 -528 -1038 -1554 -1526 -2524 -1201 -290 97 -561 265
-799 496 -366 354 -631 826 -767 1368 l-26 105 -77 4 c-98 6 -160 38 -242 125
-120 128 -187 314 -196 544 -7 162 6 267 48 394 92 276 280 429 469 381 74
-19 100 -35 170 -103 l55 -53 76 63 c42 34 134 110 205 169 71 59 264 242 429
407 165 166 303 301 308 301 4 0 48 -23 98 -51z m-1857 -2029 c55 -93 122
-176 178 -220 47 -38 164 -100 187 -100 19 0 59 -84 119 -250 126 -350 256
-597 461 -880 70 -96 267 -317 332 -371 57 -48 71 -82 43 -107 -22 -20 -137
-66 -453 -182 -289 -105 -381 -130 -507 -137 -92 -5 -106 -4 -148 17 -131 63
-217 344 -292 950 -14 109 -18 254 -21 753 -3 340 -2 626 2 635 5 14 11 12 35
-14 15 -18 44 -60 64 -94z m5496 -797 c0 -876 -2 -908 -50 -1137 -27 -129 -78
-238 -128 -271 -91 -60 -234 -57 -496 10 -94 24 -191 46 -215 50 -134 22 -492
169 -525 216 -21 31 -12 44 106 158 99 94 262 288 348 413 159 231 283 487
411 843 41 117 63 162 84 177 5 4 35 15 65 24 95 27 174 81 253 174 58 67 59
69 82 105 26 41 46 65 57 65 4 0 8 -372 8 -827z M5770 6357 c-19 -6 -58 -34
-86 -62 -68 -67 -77 -109 -72 -310 4 -170 16 -207 85 -264 121 -100 298 -59
364 84 16 34 19 66 19 211 0 128 -4 180 -15 207 -47 114 -175 172 -295 134z
M7646 6356 c-56 -21 -123 -90 -142 -148 -12 -38 -15 -81 -12 -211 4 -182 13
-215 82 -275 97 -85 238 -73 329 27 52 58 59 92 55 287 -3 170 -3 171 -33 220
-58 92 -180 136 -279 100z M6503 5205 c-83 -36 -96 -177 -22 -239 l31 -26 269
0 c298 0 314 3 345 62 22 42 15 139 -12 169 -40 45 -68 49 -331 49 -188 -1
-256 -4 -280 -15z M6125 4647 c-43 -20 -92 -80 -105 -128 -31 -114 51 -215
255 -314 305 -149 703 -147 1011 5 109 54 212 138 234 190 21 50 9 142 -24
184 -41 54 -97 79 -166 74 -47 -3 -66 -11 -120 -50 -142 -100 -242 -130 -435
-130 -191 -1 -315 37 -444 135 -47 36 -61 42 -115 44 -37 2 -73 -2 -91 -10z
M3038 8376 c-95 -26 -173 -104 -198 -197 -7 -24 -9 -893 -8 -2455 l3 -2419 22
-40 c50 -93 147 -154 244 -155 114 0 206 56 256 158 l28 57 0 2415 c0 2345 -1
2416 -19 2464 -50 131 -197 208 -328 172z M1925 6987 c-66 -22 -101 -44 -139
-88 -71 -84 -67 56 -64 -1864 l3 -1730 22 -41 c109 -204 396 -205 497 -2 l26
52 0 1735 0 1736 -24 50 c-25 55 -90 119 -141 141 -50 21 -134 26 -180 11z
m93 -1934 l-3 -1668 -25 0 -25 0 -3 1655 c-1 910 0 1661 3 1668 2 6 16 12 30
12 l25 0 -2 -1667z M8110 3296 c0 -92 7 -100 36 -44 13 26 14 38 5 68 -6 21
-18 43 -26 50 -13 11 -15 2 -15 -74z M4955 3103 c-214 -17 -414 -56 -600 -118
-341 -112 -613 -274 -841 -500 -170 -170 -278 -336 -344 -533 -58 -175 -60
-200 -60 -943 l0 -679 1735 0 c954 0 1735 2 1735 4 0 2 -24 71 -54 152 -29 82
-248 706 -486 1387 l-433 1237 -306 -2 c-168 -1 -324 -3 -346 -5z m299 -143
c34 -21 81 -46 105 -55 73 -26 111 -61 146 -139 39 -84 713 -2007 731 -2085
15 -62 9 -106 -15 -118 -9 -4 -83 -10 -166 -14 -197 -9 -238 -17 -334 -67 -44
-23 -82 -42 -85 -42 -12 0 -5 58 50 438 30 213 56 396 57 406 2 17 -52 37
-413 157 -393 131 -415 139 -412 161 1 13 57 320 124 683 66 363 123 672 125
688 3 15 10 27 16 27 6 0 38 -18 71 -40z m-301 -211 c6 -76 4 -90 -63 -459
-74 -406 -90 -512 -90 -610 0 -85 3 -103 26 -146 38 -73 100 -131 179 -168 39
-18 174 -68 302 -110 l232 -77 4 -102 c5 -139 -26 -346 -62 -419 l-27 -53
-1042 -3 -1042 -2 0 603 c0 601 0 602 24 688 12 47 35 109 49 138 101 201 405
446 738 597 203 91 444 160 642 183 135 16 123 21 130 -60z M5708 3103 c18 -2
45 -2 60 0 15 2 0 4 -33 4 -33 0 -45 -2 -27 -4z M7813 3103 c15 -2 37 -2 50 0
12 2 0 4 -28 4 -27 0 -38 -2 -22 -4z M7958 3089 c-3 -13 -249 -634 -548 -1379
-298 -745 -545 -1361 -547 -1367 -4 -10 346 -13 1731 -13 l1737 0 -4 713 c-4
774 -2 745 -63 932 -116 356 -425 685 -834 890 -212 106 -401 168 -650 212
-130 23 -179 26 -481 30 l-336 6 -5 -24z m502 -794 c33 -363 61 -673 63 -688
l2 -28 -410 -136 c-225 -74 -413 -138 -417 -142 -3 -3 20 -188 53 -411 32
-223 58 -418 59 -433 l0 -28 -42 26 c-24 15 -75 42 -115 61 -70 33 -74 34
-202 34 -106 0 -137 3 -175 20 -45 19 -46 20 -46 66 0 32 16 87 56 188 31 77
87 224 126 326 38 102 86 223 107 270 21 47 148 357 281 689 133 332 253 629
268 660 35 73 109 151 144 151 15 0 28 4 30 9 2 5 35 29 73 54 l70 45 7 -36
c4 -21 35 -334 68 -697z m325 494 c88 -17 213 -48 277 -69 252 -83 518 -235
684 -393 113 -107 174 -188 237 -317 l52 -105 3 -652 3 -653 -1035 0 -1034 0
-20 33 c-40 66 -83 336 -73 461 l6 79 261 88 c144 48 280 97 303 109 81 41
149 118 178 200 20 57 15 243 -17 594 -19 210 -30 391 -30 498 l0 168 23 -4
c12 -3 94 -19 182 -37z"/>
</g>
</svg>
