<?xml version="1.0" standalone="no"?>
<!DOCTYPE svg PUBLIC "-//W3C//DTD SVG 20010904//EN"
 "http://www.w3.org/TR/2001/REC-SVG-20010904/DTD/svg10.dtd">
<svg version="1.0" xmlns="http://www.w3.org/2000/svg"
 width="2048.000000pt" height="2048.000000pt" viewBox="0 0 2048.000000 2048.000000"
 preserveAspectRatio="xMidYMid meet">
<metadata>
Created by potrace 1.13, written by Peter Selinger 2001-2015
</metadata>
<g transform="translate(0.000000,2048.000000) scale(0.192120,-0.192120)"
fill="#000000" stroke="none">
<path d="M5090 10315 c-489 -64 -1007 -276 -1404 -575 -326 -244 -538 -502
-732 -890 -126 -252 -208 -468 -358 -953 -121 -387 -178 -522 -240 -562 -13
-9 -84 -31 -157 -49 -398 -99 -648 -275 -731 -513 -20 -59 -23 -87 -23 -213 0
-163 15 -239 72 -375 171 -410 677 -796 1390 -1060 l100 -38 12 -71 c60 -368
234 -805 448 -1130 116 -174 338 -436 371 -436 7 0 21 15 33 32 16 26 19 44
15 82 -6 58 -33 105 -141 251 -126 169 -190 271 -284 458 -88 173 -157 351
-206 527 -47 170 -66 218 -93 246 -33 32 -81 54 -121 54 -31 0 -34 5 -43 64
-2 12 -21 25 -58 39 -41 15 -73 38 -126 91 -85 85 -143 192 -182 335 -23 85
-26 116 -26 271 -1 150 3 188 22 265 32 126 99 260 168 334 l56 61 -20 102
c-23 115 -48 325 -40 334 7 6 362 -19 583 -42 142 -14 383 -43 840 -99 914
-113 1342 -109 2435 25 492 60 722 85 925 99 83 6 183 14 224 17 l74 6 -6
-133 c-4 -74 -14 -178 -22 -233 l-15 -98 46 -51 c57 -64 125 -205 156 -322 19
-77 23 -114 23 -260 -1 -202 -19 -293 -90 -443 -57 -120 -158 -227 -245 -259
-37 -14 -56 -27 -58 -39 -9 -58 -13 -64 -39 -64 -42 0 -110 -38 -132 -73 -18
-30 -40 -90 -126 -337 -41 -119 -166 -433 -206 -520 -54 -114 -149 -255 -285
-420 -74 -91 -104 -147 -104 -197 0 -41 32 -103 52 -103 33 0 255 262 371 436
213 323 388 763 448 1129 l11 70 152 59 c690 267 1165 635 1336 1034 60 141
75 216 75 382 -1 125 -4 154 -24 210 -86 242 -330 416 -727 516 -74 18 -143
38 -154 44 -57 31 -110 142 -201 425 -227 705 -273 832 -405 1094 -171 343
-366 594 -629 812 -285 236 -600 406 -992 535 -348 115 -700 158 -993 119z
m-99 -147 c60 -21 82 -22 334 -23 254 0 274 1 343 23 l72 23 49 -26 c141 -77
424 -335 575 -525 165 -208 298 -444 337 -598 19 -75 19 -106 17 -673 l-3
-594 -33 -67 c-37 -76 -92 -129 -151 -146 -55 -17 -2347 -17 -2402 0 -59 17
-114 70 -151 146 l-33 67 -3 594 c-2 570 -2 598 18 675 38 153 171 387 336
596 88 110 328 349 424 422 73 55 187 128 201 128 3 0 35 -10 70 -22z m1632
-509 c56 -29 242 -160 332 -234 346 -284 559 -635 773 -1270 33 -99 97 -292
142 -430 85 -263 105 -315 150 -380 87 -127 209 -198 420 -245 288 -65 461
-142 570 -255 l35 -36 -85 40 c-213 99 -537 151 -952 151 -124 0 -128 1 -128
21 0 41 -23 98 -49 123 -43 41 -117 50 -295 36 -83 -6 -243 -15 -356 -20 -134
-6 -332 -24 -570 -54 -670 -82 -875 -98 -1275 -99 -408 0 -650 19 -1365 109
-355 44 -702 68 -985 67 -133 0 -179 -32 -194 -132 l-6 -46 -110 -2 c-489 -10
-773 -56 -979 -158 l-89 -43 39 39 c49 50 154 121 231 155 94 42 153 61 320
99 355 81 437 167 578 610 197 618 256 779 376 1018 150 301 326 523 574 722
161 130 345 242 345 210 0 -12 -46 -104 -76 -150 -49 -77 -151 -293 -174 -365
-19 -62 -20 -92 -20 -738 l0 -673 34 -73 c64 -139 155 -235 266 -282 43 -18
91 -19 1190 -22 829 -2 1161 0 1205 8 121 24 220 101 286 223 72 131 67 81 68
821 l1 669 -31 91 c-31 88 -108 252 -153 325 -42 68 -86 152 -86 167 0 17 14
18 43 3z m-4045 -2972 c3 -106 2 -108 -28 -152 -47 -69 -107 -200 -135 -299
-22 -78 -25 -107 -25 -250 0 -193 -5 -232 -31 -239 -11 -3 -19 -14 -19 -26 0
-12 -6 -21 -13 -21 -7 0 -53 27 -103 61 -236 161 -381 315 -467 496 -32 67
-32 70 -32 218 l0 150 48 32 c117 78 471 145 737 139 l65 -1 3 -108z m5727
103 c282 -21 487 -67 575 -131 l40 -29 0 -150 c0 -177 -10 -212 -99 -347 -91
-138 -270 -302 -456 -416 -59 -37 -60 -37 -63 -15 -2 13 -11 29 -20 36 -15 11
-18 43 -23 230 -5 210 -6 220 -37 309 -31 92 -83 202 -121 258 -18 26 -21 46
-21 148 l0 117 43 0 c23 0 105 -5 182 -10z M3316 6850 c-86 -55 -135 -127
-202 -294 -40 -99 -49 -106 -139 -106 -91 0 -92 -3 -35 -118 46 -92 105 -152
148 -152 48 0 68 34 101 170 36 152 80 291 132 418 21 53 39 97 39 99 0 7 -17
0 -44 -17z M7200 6855 c0 -13 306 -615 332 -652 31 -46 72 -73 111 -73 26 0
76 48 100 95 12 25 57 159 57 171 0 10 -81 3 -116 -10 -23 -8 -48 -10 -60 -6
-35 13 -81 75 -138 187 -31 59 -77 132 -103 162 -56 64 -183 151 -183 126z
M4120 6423 c-27 -10 -65 -37 -96 -68 -74 -74 -84 -114 -84 -330 0 -203 10
-250 71 -319 63 -72 107 -91 209 -91 74 0 91 3 130 27 60 35 94 72 122 133 22
47 23 62 23 250 0 199 0 200 -28 257 -64 131 -208 189 -347 141z M6344 6424
c-60 -21 -119 -77 -151 -142 -28 -57 -28 -58 -28 -262 0 -203 0 -205 27 -256
28 -53 76 -102 131 -131 23 -13 55 -18 117 -18 102 0 146 19 209 91 61 69 71
116 71 319 0 216 -10 256 -83 330 -80 80 -190 106 -293 69z M5032 5239 c-56
-28 -98 -80 -112 -140 -21 -88 18 -179 98 -226 47 -28 47 -28 267 -31 121 -2
243 -1 271 3 128 16 213 133 184 254 -14 60 -57 113 -113 140 -40 20 -60 21
-298 21 -238 0 -257 -1 -297 -21z M4384 4260 c-51 -11 -98 -46 -123 -90 -31
-55 -27 -140 9 -189 51 -73 210 -150 403 -196 160 -38 313 -55 557 -62 436
-11 783 39 1005 147 139 67 187 125 187 220 -1 59 -19 97 -66 138 -62 54 -148
55 -221 3 -134 -96 -400 -144 -800 -145 -400 0 -640 41 -805 139 -61 37 -100
46 -146 35z M3674 3391 c-20 -12 -37 -34 -45 -58 -16 -47 -15 -159 1 -237 l12
-58 49 4 c50 5 119 43 119 66 0 6 5 12 10 12 6 0 10 9 10 20 0 11 7 23 15 26
8 4 15 15 15 25 0 48 201 2 364 -83 113 -60 214 -160 260 -259 20 -41 40 -94
45 -119 6 -25 27 -119 47 -210 43 -197 86 -338 115 -374 27 -34 70 -56 109
-56 25 0 30 3 26 18 -55 177 -77 257 -132 477 -70 282 -96 361 -150 451 -46
77 -75 106 -156 160 -234 156 -610 259 -714 195z M6673 3385 c-262 -67 -497
-199 -581 -324 -60 -90 -95 -191 -167 -482 -54 -213 -112 -416 -143 -498 -4
-11 4 -13 43 -9 62 7 94 32 127 98 39 77 117 371 138 515 12 86 40 145 128
273 46 67 94 107 182 152 181 92 360 134 360 85 0 -8 9 -19 20 -25 12 -6 20
-21 20 -35 0 -14 4 -25 9 -25 5 0 12 -9 16 -20 10 -32 69 -61 127 -63 l52 -2
9 45 c4 25 6 88 5 140 -4 105 -29 168 -75 189 -41 19 -170 12 -270 -14z M3043
3101 c-49 -13 -118 -57 -153 -98 -63 -77 -60 -12 -60 -1405 l0 -1268 2500 0
2500 0 0 1268 c0 1406 4 1329 -66 1410 -20 24 -59 55 -88 70 -51 27 -52 27
-261 27 -200 0 -212 -1 -257 -23 -26 -13 -65 -44 -87 -68 -76 -86 -71 8 -71
-1391 0 -804 -3 -1253 -10 -1253 -5 0 -51 27 -102 61 -51 33 -105 63 -120 66
-15 3 -28 9 -28 14 0 5 -615 9 -1420 9 -781 0 -1420 -4 -1420 -8 0 -4 -15 -13
-32 -20 -18 -7 -71 -39 -118 -73 l-85 -61 -5 1274 -5 1273 -23 47 c-13 26 -41
63 -64 83 -70 64 -91 69 -303 72 -104 1 -204 -2 -222 -6z m335 -307 l22 -4 0
-1090 0 -1090 -149 0 -148 0 -7 40 c-3 22 -11 40 -16 40 -11 0 -13 1780 -2
1968 6 99 10 115 27 125 34 20 198 27 273 11z m4170 -10 l22 -14 0 -1040 c0
-678 -3 -1040 -10 -1040 -5 0 -13 -18 -16 -40 l-7 -40 -148 0 -149 0 0 1084
c0 849 3 1086 12 1092 37 23 259 21 296 -2z M4775 2852 c22 -21 50 -44 63 -51
31 -16 27 -65 -5 -69 -23 -3 -38 -28 -23 -37 25 -15 229 -46 366 -56 109 -8
199 -8 307 0 151 10 327 37 327 50 -1 12 -38 51 -49 51 -29 0 -5 30 88 108
l34 29 -138 -28 c-320 -66 -676 -52 -990 37 -14 4 -8 -6 20 -34z M2721 2504
c-165 -34 -381 -128 -536 -232 -374 -252 -623 -626 -716 -1078 -21 -99 -23
-143 -27 -486 l-3 -378 678 0 678 0 -48 34 c-73 52 -134 112 -140 138 -4 15 1
38 13 60 l19 36 -37 6 c-20 3 -274 6 -564 6 l-526 0 19 50 c24 63 24 107 0
169 l-18 49 45 6 c25 3 276 6 558 6 283 0 514 4 514 8 0 5 -20 18 -44 30 -42
22 -52 22 -450 22 -264 0 -406 3 -406 10 0 6 -17 10 -39 10 -54 0 -98 34 -138
105 -18 33 -33 66 -33 73 0 9 119 12 558 13 306 0 580 4 607 8 l50 7 -51 49
c-66 64 -80 75 -99 75 -8 0 -15 5 -15 10 0 6 -124 10 -352 10 -343 0 -352 1
-399 23 -48 22 -48 23 -49 70 0 50 16 90 93 222 135 234 374 449 621 560 47
22 86 45 86 51 0 7 8 15 18 19 30 11 214 237 201 249 -2 2 -33 -3 -68 -10z
M7870 2513 c0 -3 16 -29 36 -59 49 -73 161 -186 206 -207 21 -10 41 -24 45
-31 4 -7 41 -30 82 -51 134 -67 242 -146 362 -265 130 -129 211 -243 271 -383
43 -99 48 -147 18 -177 -19 -19 -33 -20 -375 -20 -230 0 -355 -4 -355 -10 0
-5 -20 -10 -45 -10 -25 0 -45 -4 -45 -8 0 -4 -15 -14 -34 -20 -19 -7 -51 -32
-72 -55 l-39 -42 50 -7 c28 -3 301 -7 608 -7 374 -1 557 -4 557 -11 0 -21 -59
-126 -85 -153 -15 -15 -36 -27 -46 -27 -11 0 -19 -4 -19 -9 0 -6 -179 -11
-437 -13 l-438 -4 -45 -24 -45 -25 560 -6 c308 -3 561 -6 562 -7 0 -1 -7 -25
-18 -52 -24 -64 -24 -107 1 -170 l20 -50 -513 0 c-281 0 -536 -3 -565 -7 l-53
-6 23 -24 c24 -26 29 -94 7 -102 -7 -2 -31 -20 -53 -40 -23 -21 -61 -51 -85
-69 l-45 -32 678 0 677 0 -3 377 c-5 420 -12 481 -83 699 -163 497 -573 907
-1065 1062 -93 30 -200 54 -200 45z M4840 2076 c0 -29 463 -1127 472 -1118 16
17 463 1090 456 1097 -2 2 -29 -5 -61 -16 -125 -42 -206 -54 -377 -54 -197 0
-310 22 -472 90 -10 4 -18 4 -18 1z m513 -390 c12 -32 -22 -106 -48 -106 -17
0 -59 86 -51 105 7 20 92 21 99 1z"/>
</g>
</svg>
