<?xml version="1.0" standalone="no"?>
<!DOCTYPE svg PUBLIC "-//W3C//DTD SVG 20010904//EN"
 "http://www.w3.org/TR/2001/REC-SVG-20010904/DTD/svg10.dtd">
<svg version="1.0" xmlns="http://www.w3.org/2000/svg"
 width="2048.000000pt" height="2048.000000pt" viewBox="0 0 2048.000000 2048.000000"
 preserveAspectRatio="xMidYMid meet">
<metadata>
Created by potrace 1.13, written by Peter Selinger 2001-2015
</metadata>
<g transform="translate(0.000000,2048.000000) scale(0.192120,-0.192120)"
fill="#000000" stroke="none">
<path d="M5279 10186 c-3 -4 -3630 -782 -3816 -819 -40 -8 -84 -22 -98 -31
-74 -49 -86 -150 -24 -211 30 -30 59 -41 274 -102 l240 -69 3 -848 2 -848 -34
-39 c-38 -45 -69 -133 -88 -254 -20 -124 -17 -699 5 -895 52 -460 147 -740
253 -740 63 0 128 110 175 297 27 108 28 117 13 134 -28 31 -52 32 -97 6 -75
-41 -102 -9 -131 159 -13 72 -16 179 -16 564 0 443 2 478 19 516 10 23 25 45
31 49 20 13 47 -32 80 -133 16 -51 40 -112 51 -137 35 -75 89 -103 132 -71 17
13 18 23 7 153 -16 205 -40 294 -97 354 l-24 26 -1 784 -1 784 74 6 c70 7 87
3 314 -59 132 -36 242 -67 244 -69 2 -1 -8 -51 -22 -110 -39 -162 -50 -253
-51 -423 -1 -144 1 -161 27 -241 l28 -86 -30 -50 c-55 -90 -179 -356 -226
-488 -123 -340 -191 -702 -215 -1135 -20 -369 -9 -1406 20 -1830 62 -905 215
-1394 463 -1476 39 -13 70 -15 139 -10 189 13 267 36 1058 309 135 46 269 90
298 98 l52 13 0 65 -1 66 -72 45 c-106 66 -249 183 -360 295 -367 368 -621
849 -751 1418 -6 26 -9 27 -70 27 -35 0 -83 7 -106 15 -139 49 -258 212 -318
435 -23 84 -26 115 -26 270 -1 150 3 188 22 265 32 129 99 261 171 338 80 85
144 119 235 125 103 6 172 -22 253 -103 52 -52 64 -60 74 -48 7 8 80 69 163
135 89 72 248 218 388 356 l237 235 148 -16 c130 -14 272 -25 528 -41 57 -3
96 -15 203 -60 244 -102 509 -183 727 -221 50 -8 173 -20 275 -25 250 -14 371
-26 490 -50 272 -55 551 -184 711 -327 l52 -47 15 24 c36 59 141 148 199 170
81 31 178 25 252 -15 122 -67 233 -235 282 -430 20 -78 23 -114 23 -265 0
-156 -3 -185 -27 -272 -51 -193 -165 -361 -283 -419 -41 -20 -64 -24 -141 -24
l-92 0 -21 -95 c-70 -305 -226 -666 -407 -945 -174 -267 -423 -527 -657 -684
l-73 -50 -7 -72 c-3 -39 -5 -73 -3 -75 2 -2 70 -24 153 -50 82 -26 291 -97
464 -159 477 -171 630 -209 825 -209 157 0 215 18 298 94 118 107 183 303 221
660 27 251 35 455 47 1165 12 733 8 1362 -11 1560 -47 514 -193 1020 -400
1390 l-51 89 26 58 c45 100 58 186 51 340 -7 150 -34 327 -65 426 -14 45 -16
64 -8 67 7 2 322 91 702 199 659 187 691 197 724 230 62 62 50 163 -24 212
-14 9 -58 23 -98 31 -40 8 -921 197 -1960 419 -1038 222 -1902 404 -1921 404
-18 0 -35 -2 -37 -4z m146 -321 c96 -12 2567 -545 2596 -561 16 -8 27 -19 24
-23 -10 -17 -101 -54 -235 -97 -279 -89 -2385 -685 -2441 -691 -77 -8 -136 5
-413 88 -271 81 -356 114 -356 140 0 22 9 24 366 54 333 29 379 36 451 70 74
37 177 150 219 241 66 143 38 252 -101 392 -44 43 -92 81 -121 94 -91 40 -96
39 -931 -28 -238 -19 -498 -36 -578 -37 -80 -1 -145 -5 -145 -8 0 -8 -59 2
-65 12 -6 9 22 26 56 33 13 2 38 9 54 15 40 15 1366 298 1447 309 34 5 77 8
93 6 17 -2 53 -6 80 -9z m-35 -523 c75 -37 102 -127 57 -193 -46 -68 7 -61
-1187 -159 -602 -49 -1144 -95 -1205 -101 -60 -6 -220 -18 -355 -28 l-245 -18
-33 28 c-66 58 -223 75 -306 33 -42 -20 -103 -29 -119 -16 -7 6 -40 25 -74 41
-61 30 -61 31 -53 62 20 68 58 85 236 101 172 15 145 25 -96 34 -183 7 -265
21 -340 59 -55 28 -76 59 -66 99 8 32 -27 39 356 -72 162 -46 311 -89 330 -94
27 -8 380 19 1515 114 814 69 1496 126 1515 127 19 0 51 -7 70 -17z m3668 -71
c8 -79 -46 -101 -708 -291 -195 -56 -377 -114 -404 -128 -61 -33 -86 -66 -93
-121 -5 -34 -11 -45 -32 -53 -61 -24 -2468 -708 -2491 -708 -18 0 -2183 614
-2492 707 -24 7 -22 27 5 59 21 24 33 27 122 35 123 11 169 24 213 57 l33 25
177 -48 c97 -26 574 -161 1059 -300 l883 -252 1642 469 c1922 549 2060 588
2073 584 6 -1 11 -17 13 -35z m-4943 -1200 c578 -164 1077 -304 1109 -310 86
-16 160 -13 251 8 44 11 538 150 1097 310 559 160 1035 294 1058 297 l40 7 0
-219 c0 -191 -3 -227 -21 -293 -12 -42 -27 -83 -34 -91 -7 -8 -16 -25 -20 -38
-14 -48 -219 -154 -428 -222 -374 -122 -860 -187 -1477 -197 -383 -6 -470 -1
-685 43 -66 14 -208 31 -315 39 -107 8 -259 20 -337 27 -110 9 -163 9 -231 0
-127 -17 -206 -15 -327 9 -235 45 -488 134 -645 227 -93 55 -110 70 -133 122
-38 85 -47 157 -47 369 0 114 3 211 8 215 4 4 25 5 47 2 23 -3 513 -140 1090
-305z m-1101 -512 c184 -130 482 -237 876 -314 191 -37 185 -33 94 -66 -138
-51 -237 -106 -349 -197 -281 -227 -261 -219 -407 -168 -216 74 -357 36 -550
-149 l-83 -80 -3 90 c-2 63 3 115 18 179 28 121 93 327 148 466 46 115 46 115
50 262 l4 148 67 -61 c36 -34 97 -83 135 -110z m4851 -204 c78 -209 136 -462
135 -592 0 -51 -4 -93 -9 -93 -6 0 -31 19 -58 42 -71 61 -130 96 -202 118
-118 37 -226 23 -366 -47 -41 -21 -84 -36 -105 -35 -23 0 -84 25 -180 74 -285
145 -502 188 -947 188 -305 0 -530 23 -858 87 l-140 28 235 7 c742 23 1044 47
1400 114 460 86 787 219 990 402 l55 50 6 -122 c6 -106 11 -133 44 -221z
m-5255 -2151 c72 -90 172 -178 254 -223 90 -50 88 -47 176 -281 175 -462 396
-821 706 -1143 126 -131 127 -144 9 -192 -148 -61 -519 -191 -613 -216 -149
-38 -272 -41 -323 -6 -110 74 -185 340 -255 907 -23 185 -33 1210 -12 1210 7
0 33 -25 58 -56z m5480 -546 c0 -699 -14 -952 -65 -1213 -43 -222 -91 -302
-193 -324 -143 -30 -296 1 -664 135 -321 117 -388 148 -388 180 0 8 44 62 99
119 320 336 549 718 720 1200 54 152 62 163 176 219 84 41 114 64 195 142 52
52 101 94 108 94 9 0 12 -117 12 -552z M4335 6061 c-69 -17 -125 -62 -161
-131 -17 -30 -19 -59 -19 -215 0 -196 4 -214 64 -278 110 -119 309 -89 377 56
22 49 24 63 24 223 0 162 -1 172 -25 221 -49 98 -157 149 -260 124z M6215
6061 c-70 -18 -125 -63 -161 -131 -17 -30 -19 -59 -19 -215 0 -156 2 -185 19
-215 48 -90 119 -134 217 -135 56 0 73 4 115 30 30 19 60 49 79 79 30 49 30
49 33 224 4 198 -4 234 -62 294 -58 60 -149 88 -221 69z M5021 4884 c-49 -41
-64 -147 -28 -195 37 -48 45 -49 337 -49 301 0 304 0 335 60 32 61 13 159 -37
194 -19 14 -65 16 -299 16 l-277 0 -31 -26z M4660 4338 c-94 -49 -131 -160
-84 -253 40 -79 227 -196 390 -244 301 -89 674 -52 909 91 150 91 195 146 195
239 0 101 -70 176 -172 185 -58 6 -85 -5 -191 -79 -124 -87 -338 -127 -522
-97 -128 20 -205 54 -334 144 -58 41 -129 46 -191 14z M6150 3298 c-199 -92
-379 -146 -577 -174 -177 -24 -475 -15 -638 20 -149 32 -278 75 -417 138 -60
26 -110 48 -113 48 -3 0 -5 -7 -5 -15 0 -7 -8 -18 -17 -24 -16 -9 -14 -14 22
-51 44 -45 171 -133 250 -173 83 -41 218 -85 337 -109 98 -20 143 -23 338 -23
192 0 241 4 336 23 233 46 434 142 573 271 44 41 45 42 24 56 -12 8 -23 24
-25 34 -3 17 -10 15 -88 -21z M4310 3031 l0 -201 -369 0 c-203 0 -415 -5 -472
-10 -538 -53 -1031 -278 -1365 -621 -182 -188 -285 -367 -350 -610 l-28 -104
-4 -577 -3 -578 3611 0 3611 0 -3 578 -4 577 -28 104 c-46 173 -117 321 -220
461 -53 73 -203 227 -285 294 -261 213 -628 377 -996 445 -182 34 -300 41
-689 41 l-371 0 0 189 c0 104 -3 192 -7 196 -19 20 -118 -47 -118 -79 0 -6 -7
-24 -16 -41 -9 -17 -18 -66 -21 -111 l-6 -82 34 -30 c19 -17 55 -36 82 -42 46
-12 47 -13 47 -51 0 -127 -117 -272 -290 -359 -207 -104 -561 -162 -855 -140
-346 26 -610 117 -755 260 -73 71 -104 126 -120 210 -9 48 -8 57 7 67 9 7 25
13 35 13 34 0 99 40 109 68 19 46 4 162 -28 227 -30 61 -60 90 -105 101 l-28
6 0 -201z m-368 -287 c30 -5 40 -14 62 -54 170 -313 426 -567 699 -695 191
-89 335 -124 557 -132 557 -21 1017 246 1326 767 57 97 60 100 94 100 22 0 69
16 118 40 l82 39 -6 -27 c-28 -120 -192 -506 -300 -706 -328 -604 -713 -1022
-1166 -1266 l-77 -41 -43 22 c-160 80 -384 241 -539 387 -304 287 -592 710
-799 1175 -65 148 -149 367 -164 429 l-6 27 62 -30 c35 -16 79 -32 100 -35z
m3381 -240 c519 -71 1068 -406 1246 -761 75 -150 71 -114 71 -650 l0 -483 -95
0 -95 0 -24 38 c-16 23 -36 84 -55 168 -45 199 -95 293 -195 366 -57 41 -101
38 -163 -11 -112 -90 -141 -146 -182 -357 -11 -56 -31 -125 -45 -153 l-26 -51
-69 0 c-94 0 -114 25 -150 192 -46 211 -98 311 -198 377 -76 51 -115 42 -204
-44 -72 -70 -104 -140 -139 -306 -20 -99 -37 -153 -55 -180 l-25 -39 -603 0
c-386 0 -615 4 -639 11 -63 17 -52 38 62 119 118 84 234 187 371 327 313 321
563 705 794 1218 83 184 113 231 147 238 33 6 146 -2 271 -19z m-3683 -14 c15
-16 58 -98 95 -182 166 -380 402 -769 630 -1043 183 -220 315 -346 540 -517
111 -84 130 -108 98 -124 -10 -5 -300 -10 -644 -12 l-627 -3 -21 35 c-13 20
-33 93 -51 185 -34 172 -60 233 -129 304 -99 104 -156 103 -266 -7 -62 -62
-102 -148 -139 -300 -22 -86 -42 -146 -61 -174 l-28 -42 -68 0 -68 0 -25 43
c-14 24 -31 79 -41 132 -42 240 -79 317 -189 397 -51 37 -95 37 -150 -1 -105
-72 -160 -168 -202 -350 -47 -206 -61 -221 -195 -221 l-99 0 0 465 c0 444 1
469 21 527 95 283 340 526 714 708 284 138 539 207 778 209 97 1 99 1 127 -29z
m-1035 -1454 c28 -65 75 -432 75 -576 l0 -59 -52 24 c-66 31 -71 31 -137 0
l-54 -25 6 97 c13 202 61 460 98 536 24 46 46 47 64 3z m839 -13 c26 -75 87
-606 71 -621 -1 -2 -26 8 -54 22 -62 32 -73 32 -138 1 l-53 -24 0 32 c0 56 29
288 51 401 31 165 59 236 95 236 6 0 19 -21 28 -47z m3850 20 c34 -67 66 -217
92 -438 7 -66 14 -139 14 -162 l0 -42 -52 24 c-66 31 -70 31 -137 0 l-54 -26
6 123 c12 220 53 504 78 535 18 21 37 15 53 -14z m830 5 c41 -67 80 -278 110
-595 3 -29 3 -53 2 -53 -2 0 -28 11 -58 25 -66 31 -70 31 -137 0 l-54 -25 7
102 c16 245 53 505 77 550 13 25 36 22 53 -4z"/>
</g>
</svg>
