<?xml version="1.0" standalone="no"?>
<!DOCTYPE svg PUBLIC "-//W3C//DTD SVG 20010904//EN"
 "http://www.w3.org/TR/2001/REC-SVG-20010904/DTD/svg10.dtd">
<svg version="1.0" xmlns="http://www.w3.org/2000/svg"
 width="2048.000000pt" height="2048.000000pt" viewBox="0 0 2048.000000 2048.000000"
 preserveAspectRatio="xMidYMid meet">
<metadata>
Created by potrace 1.13, written by Peter Selinger 2001-2015
</metadata>
<g transform="translate(0.000000,2048.000000) scale(0.192120,-0.192120)"
fill="#000000" stroke="none">
<path d="M4985 10319 c-993 -63 -1907 -414 -2453 -944 -266 -256 -422 -514
-498 -819 -35 -137 -43 -376 -20 -521 44 -265 182 -546 380 -774 l64 -74 -15
-46 c-63 -198 -128 -532 -154 -791 -6 -63 -13 -350 -16 -637 -15 -1522 84
-2370 316 -2712 86 -126 167 -168 310 -158 188 14 338 55 801 220 298 106 574
197 597 197 9 0 13 19 13 68 l-1 67 -72 45 c-168 105 -385 302 -531 484 -244
304 -421 652 -536 1055 -104 363 -153 785 -116 985 49 257 145 391 466 646 85
68 241 207 345 309 105 102 240 234 301 294 l111 108 144 -11 144 -12 105 -53
c239 -120 536 -238 765 -304 256 -74 395 -95 720 -111 277 -13 471 -51 674
-131 382 -152 632 -401 726 -725 36 -122 40 -211 20 -389 -71 -643 -267 -1155
-619 -1620 -127 -168 -368 -396 -543 -513 l-61 -42 -4 -72 c-2 -40 -3 -74 -2
-76 1 -2 68 -23 149 -48 81 -25 290 -97 464 -159 498 -178 622 -210 826 -209
158 0 215 18 299 94 163 149 228 461 256 1226 17 449 18 1975 2 2144 -26 269
-63 476 -128 718 l-36 132 77 88 c207 237 346 517 391 790 23 142 14 382 -20
517 -77 308 -234 566 -504 827 -486 469 -1259 797 -2142 907 -312 39 -677 50
-995 30z m820 -298 c428 -58 843 -183 1260 -381 281 -133 620 -344 843 -523
l62 -50 0 -458 c0 -252 -3 -465 -6 -474 -6 -14 -9 -14 -28 3 -47 42 -143 102
-174 108 -17 4 -32 10 -32 15 0 5 -362 9 -829 9 -785 0 -919 4 -943 28 -15 15
2 36 62 81 135 101 222 216 261 343 26 85 28 424 3 509 -32 108 -110 200 -211
246 -44 21 -78 27 -177 33 -117 6 -126 9 -221 52 -157 72 -202 83 -345 83
-144 0 -188 -11 -345 -83 -96 -44 -105 -46 -221 -53 -144 -7 -202 -29 -277
-103 -99 -98 -117 -163 -117 -424 0 -230 9 -272 80 -392 49 -81 84 -120 183
-199 42 -34 77 -69 77 -76 0 -39 -14 -40 -922 -43 -483 -1 -878 -6 -878 -11 0
-5 -12 -12 -27 -16 -14 -3 -38 -15 -52 -26 -127 -97 -129 -98 -135 -83 -3 9
-6 222 -6 473 l0 458 103 80 c302 237 704 465 1087 616 402 159 720 234 1195
281 22 2 162 2 310 1 199 -3 309 -9 420 -24z m-294 -555 c72 -25 158 -78 202
-124 l28 -29 82 30 c104 37 192 42 234 12 38 -28 80 -116 93 -195 5 -36 10
-124 10 -195 0 -203 -34 -299 -144 -403 -126 -120 -342 -174 -686 -174 -344 0
-560 54 -686 174 -110 104 -144 200 -144 403 0 71 5 159 10 195 13 79 55 167
93 195 42 30 130 25 234 -12 l82 -30 28 29 c62 65 188 130 285 147 77 14 202
4 279 -23z m2726 -645 c34 -45 79 -141 102 -215 19 -62 21 -92 21 -321 0 -212
-2 -255 -15 -265 -9 -8 -15 -8 -15 -2 0 15 -93 153 -119 176 -21 19 -21 25
-21 342 0 346 0 349 47 285z m-5816 -656 c-16 -18 -39 -51 -52 -74 -12 -23
-26 -41 -30 -41 -4 0 -9 -10 -13 -22 -5 -22 -6 -22 -23 -5 -16 16 -18 43 -21
247 -3 211 -1 235 19 302 24 82 66 171 113 238 l31 45 3 -329 2 -328 -29 -33z
m5608 -73 c99 -50 105 -177 12 -239 l-34 -23 -2677 0 -2677 0 -34 23 c-93 62
-87 189 12 239 32 17 182 18 2699 18 2517 0 2667 -1 2699 -18z m-5603 -339
c61 -75 124 -131 182 -159 75 -38 173 -43 900 -43 598 -1 612 -1 612 -20 0
-11 -6 -26 -14 -33 -7 -7 -123 -119 -257 -248 -298 -288 -324 -312 -471 -433
-255 -210 -385 -359 -473 -542 -89 -184 -95 -218 -95 -523 0 -284 8 -363 60
-602 132 -600 415 -1149 815 -1579 63 -69 115 -133 115 -142 0 -17 -44 -59
-62 -59 -5 0 -28 -8 -51 -19 -80 -36 -393 -143 -517 -178 -130 -36 -243 -50
-302 -39 -123 23 -214 285 -277 796 -39 315 -41 388 -41 1450 0 1185 -3 1129
85 1525 25 110 45 224 45 253 0 71 -39 152 -168 355 -88 137 -142 244 -142
277 0 21 19 8 56 -37z m5834 -11 c0 -10 -10 -35 -21 -57 -45 -84 -72 -131 -99
-170 -95 -140 -131 -197 -160 -254 -31 -62 -32 -67 -27 -165 3 -60 15 -145 31
-211 15 -60 38 -174 51 -253 l25 -143 0 -1362 c0 -1451 -1 -1476 -49 -1707
-33 -157 -72 -236 -136 -272 -34 -19 -54 -23 -130 -22 -142 1 -325 49 -665
176 -118 44 -223 87 -232 95 -31 27 -21 56 38 113 65 63 216 243 291 345 233
321 437 759 537 1152 77 303 96 441 96 711 0 189 -3 233 -19 292 -101 365
-386 693 -767 884 -256 128 -540 195 -899 211 -408 18 -718 98 -1165 298 -63
28 -121 57 -128 64 -7 7 -17 13 -21 13 -15 0 -51 38 -51 54 0 15 119 16 1493
16 820 1 1550 5 1620 10 162 11 204 29 302 133 70 72 85 81 85 49z M4811 9226
c-84 -62 -105 -125 -99 -303 3 -121 5 -132 37 -196 37 -77 112 -158 182 -196
39 -21 42 -22 23 -3 -118 114 -178 254 -177 412 0 102 17 179 59 262 27 54 22
59 -25 24z M5824 9202 c100 -197 75 -442 -62 -610 -19 -24 -44 -53 -56 -64
-19 -19 -16 -18 23 3 67 36 147 122 183 198 31 62 33 74 36 194 5 177 -18 246
-103 304 -19 13 -37 23 -40 23 -3 0 6 -22 19 -48z M4335 6061 c-69 -17 -125
-62 -161 -131 -17 -30 -19 -59 -19 -215 0 -196 4 -214 64 -278 110 -119 309
-89 377 56 22 49 24 63 24 223 0 162 -1 172 -25 221 -49 98 -157 149 -260 124z
M6215 6061 c-70 -18 -125 -63 -161 -131 -15 -28 -19 -63 -22 -185 -5 -201 4
-243 72 -310 36 -36 65 -55 99 -64 100 -28 206 14 262 103 30 49 30 49 33 224
4 198 -4 234 -62 294 -58 60 -149 88 -221 69z M5021 4884 c-69 -58 -62 -192
13 -231 24 -12 77 -15 299 -15 250 1 273 2 296 20 14 10 32 30 38 43 17 33 16
114 -2 149 -31 60 -33 60 -336 60 l-277 0 -31 -26z M4665 4342 c-85 -40 -126
-124 -104 -216 10 -40 23 -61 64 -101 201 -192 616 -282 957 -206 205 46 420
166 469 262 47 93 8 214 -83 258 -82 39 -134 27 -261 -62 -124 -87 -338 -127
-522 -97 -128 20 -205 54 -334 144 -55 38 -128 45 -186 18z M4410 3306 c0 -12
-5 -27 -12 -34 -16 -16 0 -33 97 -105 139 -103 293 -170 485 -208 129 -26 410
-36 561 -19 271 29 511 125 667 265 49 44 51 48 37 68 -8 12 -15 29 -15 39 0
10 -2 18 -5 18 -3 0 -49 -20 -102 -44 -192 -86 -350 -132 -553 -162 -89 -13
-157 -15 -305 -11 -295 8 -472 49 -762 175 -91 40 -93 40 -93 18z M4310 2980
l0 -149 -80 -3 -81 -3 153 -110 c503 -360 855 -601 864 -592 9 9 -12 63 -33
84 -11 11 -139 99 -286 196 -333 222 -461 317 -483 358 l-16 32 28 -19 c558
-375 789 -494 962 -494 139 0 386 122 782 386 201 134 190 127 190 115 0 -41
-211 -196 -675 -498 -44 -28 -92 -64 -107 -80 -29 -30 -41 -73 -22 -80 11 -4
416 275 795 547 l216 155 -86 3 -86 3 -1 140 c-1 77 -4 143 -7 145 -3 3 -17
-2 -31 -11 -30 -20 -70 -100 -85 -170 -18 -90 -26 -111 -51 -142 -21 -26 -253
-185 -435 -299 -127 -79 -297 -150 -383 -161 -37 -4 -68 2 -139 26 -153 51
-242 100 -537 297 -206 137 -206 137 -206 156 0 9 -6 21 -14 27 -7 6 -16 38
-19 71 -4 33 -16 80 -27 105 -11 24 -20 48 -20 53 0 11 -41 47 -62 55 -17 6
-18 -5 -18 -143z M3743 2800 c14 -16 28 -39 32 -50 8 -27 19 -25 39 5 9 14 23
36 32 50 l16 25 -72 0 -72 0 25 -30z M6838 2777 l37 -54 13 31 c7 17 23 41 34
53 l21 23 -71 0 -71 0 37 -53z M3379 2798 l-65 -10 12 -51 c13 -53 58 -334 70
-441 l7 -58 -70 7 c-64 6 -75 4 -119 -19 -27 -14 -41 -26 -30 -26 46 0 382 62
408 76 39 20 68 70 68 119 0 74 -45 322 -64 349 -40 62 -85 73 -217 54z M7113
2790 c-52 -31 -65 -63 -90 -214 -28 -174 -28 -212 -3 -254 28 -46 63 -58 263
-92 179 -30 227 -35 197 -22 -8 4 -27 15 -43 26 -23 16 -38 17 -102 11 l-75
-7 0 28 c0 37 70 472 80 499 8 20 4 22 -74 33 -108 16 -115 15 -153 -8z M3248
2773 c6 -2 18 -2 25 0 6 3 1 5 -13 5 -14 0 -19 -2 -12 -5z M7388 2773 c6 -2
18 -2 25 0 6 3 1 5 -13 5 -14 0 -19 -2 -12 -5z M3145 2760 c-26 -7 -23 -8 22
-9 28 0 55 4 58 9 7 11 -35 11 -80 0z M7448 2763 c6 -2 18 -2 25 0 6 3 1 5
-13 5 -14 0 -19 -2 -12 -5z M7513 2753 c9 -2 23 -2 30 0 6 3 -1 5 -18 5 -16 0
-22 -2 -12 -5z M3068 2743 c7 -3 16 -2 19 1 4 3 -2 6 -13 5 -11 0 -14 -3 -6
-6z M7578 2743 c7 -3 16 -2 19 1 4 3 -2 6 -13 5 -11 0 -14 -3 -6 -6z M2870
2715 c-74 -13 -127 -23 -118 -24 9 -1 19 -9 22 -18 7 -24 52 -303 67 -418 7
-49 15 -93 19 -97 3 -5 72 2 153 15 103 16 142 25 132 32 -10 7 -26 86 -50
250 -20 132 -39 250 -41 263 -5 27 -5 27 -184 -3z M7605 2708 c-7 -43 -65
-411 -72 -461 -3 -21 -11 -41 -17 -44 -6 -4 54 -17 134 -29 79 -13 148 -20
152 -18 4 3 8 17 8 32 0 29 67 456 76 484 3 10 13 18 22 19 16 1 -259 48 -285
49 -7 0 -15 -15 -18 -32z M2450 2651 c-124 -21 -319 -53 -435 -71 -115 -18
-225 -39 -244 -48 -43 -20 -71 -66 -71 -119 0 -60 39 -301 55 -340 19 -46 68
-73 130 -72 54 0 215 26 178 28 -27 1 -26 0 -57 191 -37 226 -50 329 -43 336
3 4 27 -1 53 -10 68 -23 85 -20 145 19 29 20 56 32 60 28 4 -4 23 -107 42
-228 48 -304 47 -293 34 -299 -7 -4 2 -4 18 -2 17 3 85 13 153 23 114 16 123
19 118 38 -21 84 -86 525 -78 525 3 0 29 -7 57 -16 63 -20 94 -14 138 26 l32
29 -30 0 c-16 -1 -131 -18 -255 -38z M7944 2671 c10 -11 33 -27 52 -36 32 -15
39 -15 88 -1 30 9 57 16 60 16 12 0 5 -71 -29 -285 -20 -121 -37 -229 -38
-239 -2 -17 11 -21 108 -37 61 -10 124 -20 140 -23 30 -6 31 -5 33 31 1 21 18
137 38 258 45 284 44 259 14 263 -14 2 -120 19 -235 38 -116 19 -219 34 -229
34 -18 0 -18 -1 -2 -19z M8480 2580 c68 -57 79 -58 203 -23 13 4 17 -1 17 -23
0 -31 -66 -457 -76 -486 -3 -10 -15 -18 -27 -19 -37 -2 125 -27 178 -28 61 -1
105 23 127 70 18 37 58 275 58 340 0 49 -20 90 -56 114 -23 15 -393 86 -444
85 -9 0 -2 -12 20 -30z M3790 2221 c-17 -71 -17 -222 -1 -291 35 -147 127
-478 161 -583 43 -130 76 -194 116 -226 26 -21 64 -28 64 -13 0 4 -21 68 -45
142 -63 189 -146 481 -219 775 l-63 250 -13 -54z M6798 2016 c-63 -257 -165
-616 -227 -799 -38 -114 -39 -118 -18 -111 77 24 112 96 202 406 133 463 149
548 125 672 -7 36 -15 66 -19 66 -3 0 -32 -105 -63 -234z M2716 2162 c-10 -2
-39 -15 -65 -29 l-46 -25 50 8 c28 3 81 12 119 18 l69 11 -55 10 c-29 6 -62 9
-72 7z M7865 2156 l-49 -12 84 -12 c47 -7 101 -15 120 -18 31 -5 28 -2 -25 25
-33 17 -64 30 -70 30 -5 -1 -32 -7 -60 -13z M2135 2064 c-71 -36 -52 -42 70
-20 l70 12 -34 12 c-45 16 -70 15 -106 -4z M8415 2066 c-28 -12 -26 -13 58
-25 49 -7 91 -11 94 -8 10 11 -62 47 -92 47 -16 -1 -43 -7 -60 -14z M5198
1908 c-213 -145 -458 -339 -458 -364 0 -7 16 -62 36 -121 25 -75 60 -149 115
-242 43 -73 79 -135 79 -138 0 -3 -20 -27 -44 -54 -98 -109 -192 -355 -240
-626 l-5 -33 650 0 651 0 -7 38 c-13 72 -66 248 -106 347 -38 96 -122 255
-160 303 -18 23 -17 24 15 75 85 136 138 241 171 342 19 61 35 113 35 116 0
18 -372 300 -542 411 l-56 37 -134 -91z m202 -199 c19 -12 37 -24 40 -28 3 -3
55 -43 116 -88 60 -45 118 -91 128 -102 28 -31 16 -84 -38 -172 -52 -87 -76
-147 -76 -193 0 -54 -21 -59 -238 -62 -177 -2 -194 0 -217 18 -18 14 -25 29
-25 56 0 43 -26 104 -80 187 -47 73 -59 132 -35 172 15 26 120 103 139 103 5
0 38 23 74 51 110 87 147 97 212 58z m110 -816 c106 -52 160 -129 160 -227 0
-76 -1 -76 -357 -76 -351 0 -353 0 -353 70 0 60 81 158 178 217 69 41 119 53
217 50 79 -2 99 -6 155 -34z M1822 1783 c-17 -37 -40 -99 -52 -138 -45 -148
-50 -227 -50 -787 l0 -528 1428 0 1427 1 -29 22 c-15 12 -56 39 -89 60 l-61
37 -1218 0 c-1076 0 -1218 2 -1218 15 0 11 -12 15 -45 15 l-45 0 0 534 c0 452
2 546 16 612 19 90 15 150 -13 194 l-20 31 -31 -68z M8786 1825 c-9 -14 -22
-50 -28 -78 -10 -46 -7 -67 18 -172 l29 -120 3 -488 3 -487 -26 0 c-16 0 -25
-6 -25 -15 0 -13 -141 -15 -1205 -15 -859 0 -1218 -3 -1252 -11 -69 -17 -119
-38 -171 -76 l-47 -33 1428 0 1427 0 0 528 c0 408 -3 549 -15 623 -15 103 -62
258 -99 327 l-22 44 -18 -27z M4635 1462 c-152 -133 -425 -421 -425 -448 0
-15 6 -24 16 -24 20 0 299 186 447 298 55 41 57 44 42 65 -19 27 -19 92 0 146
8 22 13 41 12 41 -2 0 -43 -35 -92 -78z M5955 1489 c20 -55 19 -109 -2 -138
-16 -24 -16 -25 17 -52 42 -36 290 -201 399 -268 154 -93 149 -67 -22 119
-124 135 -381 380 -398 380 -5 0 -2 -19 6 -41z"/>
</g>
</svg>
