<?xml version="1.0" standalone="no"?>
<!DOCTYPE svg PUBLIC "-//W3C//DTD SVG 20010904//EN"
 "http://www.w3.org/TR/2001/REC-SVG-20010904/DTD/svg10.dtd">
<svg version="1.0" xmlns="http://www.w3.org/2000/svg"
 width="2048.000000pt" height="2048.000000pt" viewBox="0 0 2048.000000 2048.000000"
 preserveAspectRatio="xMidYMid meet">
<metadata>
Created by potrace 1.13, written by Peter Selinger 2001-2015
</metadata>
<g transform="translate(0.000000,2048.000000) scale(0.192120,-0.192120)"
fill="#000000" stroke="none">
<path d="M5110 9914 c-353 -30 -580 -73 -828 -158 -838 -285 -1409 -968 -1492
-1785 -34 -339 25 -816 130 -1048 75 -165 175 -236 225 -159 8 12 33 92 54
177 55 215 100 339 191 524 125 255 245 422 440 608 61 59 116 107 121 107 6
0 59 -38 117 -86 142 -113 376 -269 482 -321 117 -57 189 -76 263 -71 52 4 64
9 88 36 39 43 53 102 44 186 l-7 70 137 -132 c220 -212 411 -357 508 -383 31
-8 43 -7 63 6 52 34 20 198 -81 413 -24 50 -42 92 -39 92 2 0 32 -23 66 -50
192 -155 575 -264 1099 -314 85 -8 203 -16 263 -17 59 -1 117 -4 127 -6 13 -4
81 -128 226 -415 228 -452 260 -502 326 -502 47 0 79 30 117 109 79 167 123
494 124 925 1 240 -1 262 -26 381 -154 713 -713 1330 -1478 1628 -212 83 -418
135 -661 167 -109 14 -505 26 -599 18z m371 -304 c381 -22 697 -100 1003 -249
252 -121 435 -249 616 -431 216 -215 347 -421 442 -692 l32 -93 4 -395 c2
-217 0 -410 -3 -427 -13 -71 -48 -33 -155 169 -102 192 -229 326 -349 366 -18
7 -117 19 -220 27 -242 20 -407 41 -561 71 -173 34 -248 56 -450 131 -243 90
-269 89 -388 -22 -33 -30 -76 -62 -95 -70 -39 -16 -23 -24 -182 87 -161 113
-209 115 -330 14 -76 -63 -105 -79 -146 -79 -52 0 -160 54 -299 148 -261 178
-305 205 -357 225 -71 26 -116 25 -181 -5 -80 -37 -139 -81 -236 -174 -165
-160 -297 -339 -418 -564 -96 -179 -128 -212 -142 -146 -3 17 -6 158 -6 313 0
263 2 287 24 381 71 291 202 527 416 749 172 178 330 292 565 407 305 149 670
238 1065 258 80 5 154 9 165 9 11 1 95 -3 186 -8z M4132 6982 c-71 -26 -118
-66 -156 -132 l-31 -55 0 -215 0 -215 31 -55 c114 -203 392 -192 496 19 22 43
23 58 23 251 0 193 -1 208 -23 251 -65 132 -210 197 -340 151z M6368 6987
c-77 -22 -143 -80 -181 -157 -20 -42 -22 -59 -22 -250 0 -232 7 -260 80 -332
135 -134 345 -104 439 62 l31 55 0 215 c0 202 -1 217 -22 256 -35 65 -70 101
-127 129 -64 31 -136 39 -198 22z M2728 6960 c-33 -48 -79 -162 -100 -248 -27
-106 -32 -353 -9 -467 46 -234 171 -426 317 -486 37 -15 56 -30 59 -43 2 -12
11 -66 20 -121 72 -450 273 -921 550 -1290 105 -140 313 -358 426 -445 73 -57
79 -59 89 -41 5 11 10 38 10 60 0 33 -9 51 -58 113 -32 40 -94 107 -138 148
-198 185 -424 520 -548 812 -70 165 -140 386 -180 568 -49 218 -65 251 -196
381 -113 112 -159 179 -193 282 -19 57 -21 94 -26 432 -6 352 -7 369 -23 345z
M7942 6677 c-6 -442 -42 -551 -247 -767 -111 -118 -143 -179 -188 -365 -33
-136 -128 -411 -222 -645 -130 -322 -217 -450 -504 -744 -224 -229 -249 -269
-202 -327 l19 -23 74 56 c100 77 316 300 408 423 223 294 389 630 489 984 42
148 91 380 91 431 0 27 6 33 64 59 81 36 137 88 197 178 95 145 134 302 134
533 -1 129 -5 170 -24 245 -20 77 -73 215 -83 215 -2 0 -5 -114 -6 -253z
M5074 5811 c-78 -20 -142 -88 -159 -169 -17 -81 40 -187 119 -223 36 -17 69
-19 296 -19 288 0 309 5 368 75 82 100 55 247 -56 312 l-47 28 -245 2 c-135 1
-259 -2 -276 -6z M6187 4816 c-22 -8 -49 -23 -60 -34 -49 -46 -222 -97 -417
-124 -127 -17 -643 -18 -765 0 -198 28 -334 71 -440 138 -82 52 -201 15 -247
-77 -22 -41 -23 -120 -4 -158 66 -126 357 -235 731 -272 154 -15 536 -15 690
0 307 31 568 111 676 208 53 48 71 86 71 144 0 125 -123 216 -235 175z M4005
3649 c-312 -45 -579 -188 -817 -438 l-103 -108 -115 -6 c-307 -15 -641 -147
-905 -357 -94 -75 -228 -216 -305 -320 -127 -172 -241 -429 -284 -640 -31
-155 -36 -274 -36 -860 l0 -590 3890 0 3890 0 0 590 c0 721 -7 801 -90 1051
-191 575 -693 1008 -1287 1109 -63 11 -148 20 -188 20 l-73 0 -35 48 c-93 126
-294 291 -452 370 -153 76 -358 129 -537 139 l-118 6 0 -279 0 -279 -552 -690
c-304 -380 -555 -690 -558 -690 -3 0 -254 310 -558 690 l-552 690 0 277 0 278
-77 -1 c-43 -1 -105 -5 -138 -10z m-278 -421 c-3 -8 -6 -5 -6 6 -1 11 2 17 5
13 3 -3 4 -12 1 -19z m-20 -10 c-3 -8 -6 -5 -6 6 -1 11 2 17 5 13 3 -3 4 -12
1 -19z m-17 -1 c0 -7 -17 -27 -37 -43 -76 -59 -175 -155 -258 -249 -51 -58
-154 -222 -224 -356 -84 -160 -103 -182 -157 -177 -39 3 -39 4 -42 48 -5 75
69 231 168 355 51 63 267 265 360 336 48 36 161 97 183 99 4 0 7 -6 7 -13z
m3459 -64 c53 -36 197 -165 272 -241 19 -21 69 -82 111 -138 93 -124 177 -201
271 -250 294 -153 450 -372 552 -772 19 -76 25 -123 25 -214 l0 -118 -31 0
c-56 0 -76 36 -124 225 -83 328 -170 500 -344 674 -127 128 -250 177 -421 168
-201 -10 -347 -101 -512 -319 -84 -111 -160 -298 -224 -548 -40 -161 -63 -200
-117 -200 l-29 0 5 148 c4 128 9 160 36 252 92 300 197 465 401 625 125 98
188 166 230 248 43 84 39 140 -17 242 -41 75 -224 281 -237 267 -3 -3 -6 2 -6
11 0 15 5 15 52 -3 29 -11 77 -37 107 -57z m-2963 -80 c-35 -194 -42 -180 351
-672 139 -174 258 -327 265 -341 50 -98 238 -312 362 -412 147 -118 233 -104
401 66 74 74 801 973 871 1076 55 80 67 158 43 256 -7 26 -8 49 -3 54 11 11
143 -4 227 -25 108 -27 236 -97 321 -176 42 -39 85 -84 96 -100 l21 -28 -75
-35 c-370 -170 -624 -607 -720 -1236 -15 -95 -46 -397 -46 -441 0 -13 -10 -20
-35 -25 -44 -8 -125 -59 -125 -79 0 -8 -4 -15 -10 -15 -6 0 -10 -33 -10 -77 0
-59 6 -96 27 -154 29 -83 27 -104 -13 -119 -17 -7 -448 -9 -1249 -8 -1293 3
-1255 2 -1255 47 0 9 22 53 50 99 60 100 100 190 134 303 24 78 26 99 26 270
0 146 -4 198 -19 254 -46 177 -169 383 -279 471 -79 62 -143 80 -241 66 -42
-6 -78 -9 -80 -6 -8 8 29 142 65 237 176 461 463 735 814 776 41 5 79 9 84 10
5 0 6 -16 2 -36z m-1186 -94 c-104 -160 -212 -392 -286 -614 -36 -110 -67
-201 -68 -203 -2 -1 -34 12 -71 29 -95 45 -147 48 -216 14 -207 -105 -354
-253 -459 -463 -80 -161 -85 -188 -85 -442 l0 -225 31 -85 c35 -97 77 -182
134 -276 22 -35 40 -75 40 -89 0 -34 -47 -45 -202 -45 l-128 0 0 565 c0 372 4
582 11 617 30 146 112 340 185 439 19 26 34 50 34 54 0 15 62 95 129 167 91
97 188 176 293 238 46 27 89 54 96 60 13 11 188 100 197 100 2 0 57 35 122 77
127 83 296 183 301 178 2 -1 -25 -45 -58 -96z m4962 -88 c221 -93 374 -189
528 -329 213 -193 360 -414 445 -667 53 -156 55 -188 55 -731 0 -497 0 -504
-20 -504 -17 0 -20 -7 -20 -40 l0 -40 -52 1 c-115 2 -126 21 -84 139 25 69 37
210 18 210 -4 0 -13 14 -21 31 -13 29 -59 57 -132 82 -13 4 -17 28 -23 119
-53 860 -362 1450 -844 1612 -63 22 -64 22 -91 86 -15 36 -46 97 -69 137 -23
39 -42 74 -42 77 0 2 52 -26 115 -63 63 -38 170 -92 237 -120z m-298 -660 c74
-36 166 -128 218 -217 112 -192 194 -524 214 -865 l7 -116 -57 -23 c-35 -14
-68 -36 -86 -59 -27 -32 -30 -42 -30 -108 0 -55 6 -89 26 -137 14 -36 24 -73
22 -83 -8 -40 -34 -43 -489 -43 -240 0 -451 3 -468 6 -44 9 -48 39 -17 127 27
76 37 207 16 207 -5 0 -10 6 -10 13 0 21 -40 54 -94 78 l-49 21 6 137 c21 447
159 857 340 1005 130 107 305 129 451 57z m-4744 -102 c202 -25 366 -104 501
-241 157 -159 238 -359 239 -585 0 -235 -90 -446 -260 -606 -411 -388 -1082
-260 -1324 254 -59 125 -71 184 -71 359 1 148 2 159 33 250 63 184 181 337
337 439 118 77 246 120 405 135 19 1 40 4 45 4 6 1 49 -3 95 -9z m3775 -993
c167 -79 214 -294 93 -431 -113 -129 -303 -129 -416 0 -156 177 -28 455 208
455 48 0 78 -7 115 -24z m1813 -2 c173 -86 206 -334 60 -458 -150 -129 -396
-57 -449 132 -37 133 43 293 169 338 64 23 161 18 220 -12z M2680 1910 c-234
-37 -426 -235 -476 -489 -45 -229 52 -488 230 -620 237 -176 555 -176 792 0
179 132 275 392 230 619 -48 241 -197 404 -428 471 -83 23 -259 33 -348 19z
m324 -79 c83 -29 142 -66 209 -130 113 -107 171 -241 170 -396 0 -157 -52
-284 -163 -395 -110 -110 -232 -160 -390 -160 -155 0 -282 52 -390 160 -112
112 -164 238 -163 400 0 160 56 285 177 397 75 70 141 107 238 133 92 25 224
21 312 -9z M6305 3608 c-155 -82 -396 -168 -570 -203 -449 -91 -870 -36 -1317
174 -48 23 -89 41 -92 41 -12 0 21 -79 43 -103 82 -91 289 -214 437 -260 171
-54 238 -62 524 -62 216 0 282 3 354 18 240 49 434 143 592 289 24 22 44 48
44 57 0 9 7 28 14 44 8 15 14 27 13 27 -1 -1 -20 -10 -42 -22z"/>
</g>
</svg>
