<?xml version="1.0" standalone="no"?>
<!DOCTYPE svg PUBLIC "-//W3C//DTD SVG 20010904//EN"
 "http://www.w3.org/TR/2001/REC-SVG-20010904/DTD/svg10.dtd">
<svg version="1.0" xmlns="http://www.w3.org/2000/svg"
 width="2048.000000pt" height="2048.000000pt" viewBox="0 0 2048.000000 2048.000000"
 preserveAspectRatio="xMidYMid meet">
<metadata>
Created by potrace 1.13, written by Peter Selinger 2001-2015
</metadata>
<g transform="translate(0.000000,2048.000000) scale(0.192120,-0.192120)"
fill="#000000" stroke="none">
<path d="M5085 10043 c-697 -59 -1402 -305 -2045 -715 -444 -284 -876 -688
-1194 -1117 -587 -792 -906 -1759 -956 -2891 -21 -473 -10 -1679 20 -2280 72
-1422 286 -2214 648 -2392 57 -28 78 -33 162 -36 243 -10 535 63 1175 295 503
183 999 343 1059 343 27 0 18 16 -21 34 -62 29 -250 158 -368 252 -221 176
-513 489 -702 754 -425 596 -720 1381 -822 2190 -36 284 -43 441 -26 570 20
153 56 284 110 397 111 235 226 357 685 728 91 74 297 270 630 602 273 271
499 493 503 493 3 0 62 -31 129 -69 160 -89 347 -183 550 -274 713 -323 1337
-487 1855 -487 318 0 676 -60 973 -162 145 -50 388 -168 505 -245 399 -264
641 -631 694 -1053 11 -84 0 -257 -30 -500 -99 -796 -388 -1570 -813 -2175
-132 -190 -260 -341 -440 -520 -218 -217 -413 -373 -604 -482 -44 -24 -69 -44
-61 -47 8 -3 68 -19 134 -36 169 -44 493 -152 890 -295 726 -262 909 -309
1205 -310 142 0 186 3 235 18 265 81 405 298 489 757 77 420 100 861 117 2205
13 1016 7 1708 -16 1985 -133 1583 -830 2848 -2025 3675 -625 432 -1399 719
-2120 784 -105 10 -429 12 -525 4z m595 -313 c641 -74 1297 -316 1862 -686
557 -364 1023 -853 1339 -1404 268 -466 436 -949 552 -1580 l32 -175 3 -1890
c4 -1968 3 -2021 -39 -2340 -60 -452 -143 -661 -289 -724 -71 -31 -191 -42
-313 -31 -249 24 -426 74 -1007 282 -385 138 -430 155 -457 180 -29 27 -20 46
65 123 99 91 293 305 402 445 537 689 878 1511 1022 2460 20 134 23 192 23
435 0 307 -5 344 -75 525 -73 190 -119 275 -248 448 -356 480 -950 792 -1687
887 -66 9 -226 20 -355 25 -352 15 -520 37 -795 106 -410 102 -812 258 -1340
518 -318 157 -345 168 -415 168 -121 0 -203 -65 -710 -567 -293 -290 -478
-464 -594 -560 -94 -77 -211 -176 -260 -220 -346 -303 -532 -594 -606 -945
-17 -80 -20 -134 -20 -340 0 -326 31 -585 115 -945 213 -921 645 -1729 1253
-2347 213 -216 212 -212 62 -268 -165 -63 -673 -243 -783 -279 -286 -93 -503
-136 -651 -129 -82 3 -99 7 -136 32 -56 37 -80 65 -131 156 -142 254 -246 775
-316 1585 -16 190 -18 344 -18 1625 l0 1415 23 155 c92 614 223 1059 447 1515
275 558 643 1014 1150 1421 135 108 439 312 590 396 515 286 1109 480 1620
528 61 6 128 12 150 14 69 7 436 -3 535 -14z M3857 5316 c-98 -35 -166 -111
-187 -210 -8 -33 -10 -157 -8 -361 3 -302 4 -311 27 -363 43 -96 145 -162 251
-162 75 0 139 27 197 85 80 80 83 99 83 470 0 371 -3 390 -83 470 -79 78 -184
105 -280 71z M6620 5313 c-26 -9 -66 -38 -96 -68 -81 -80 -84 -99 -84 -470 0
-356 4 -383 71 -459 53 -60 107 -87 185 -94 118 -9 218 48 271 156 l28 57 0
340 c0 324 -1 342 -21 385 -30 65 -70 107 -128 137 -65 33 -161 40 -226 16z
M4956 3924 c-61 -22 -122 -78 -152 -141 -68 -137 -9 -303 131 -369 50 -24 53
-24 395 -24 342 0 345 0 395 24 220 104 205 433 -23 510 -64 22 -686 22 -746
0z M4396 2810 c-98 -38 -165 -130 -174 -236 -10 -129 48 -216 222 -329 157
-102 341 -175 549 -217 97 -20 142 -23 337 -23 195 0 240 3 338 23 266 54 513
168 672 309 184 164 96 456 -147 489 -75 9 -145 -15 -233 -81 -175 -133 -365
-189 -635 -189 -281 1 -440 53 -668 219 -81 58 -170 70 -261 35z m243 -331
c70 -39 91 -58 90 -78 0 -11 -2 -12 -6 -3 -4 10 -8 10 -19 1 -11 -9 -14 -8
-14 1 0 8 -3 10 -7 7 -7 -7 -84 34 -115 61 -23 19 -23 42 -1 42 9 0 41 -14 72
-31z m1471 14 c0 -9 -3 -14 -6 -10 -3 3 -16 -5 -28 -19 -11 -13 -31 -26 -43
-28 -11 -3 -34 -11 -51 -20 -16 -8 -32 -12 -36 -9 -3 4 -6 1 -6 -6 0 -7 -4 -9
-10 -6 -5 3 -10 1 -10 -5 0 -6 -5 -8 -11 -5 -18 11 45 60 136 105 49 24 65 25
65 3z m-1363 -105 c-3 -8 -6 -5 -6 6 -1 11 2 17 5 13 3 -3 4 -12 1 -19z m20
-10 c-3 -8 -6 -5 -6 6 -1 11 2 17 5 13 3 -3 4 -12 1 -19z M4073 1257 c-18 -7
-34 -16 -35 -22 -2 -15 160 -98 302 -154 216 -85 389 -133 610 -168 163 -25
596 -26 760 0 270 42 539 126 780 244 l155 75 -29 15 c-64 34 -120 29 -295
-26 -225 -71 -414 -117 -583 -143 -210 -33 -609 -33 -818 0 -173 27 -367 74
-581 142 -159 51 -209 58 -266 37z"/>
</g>
</svg>
