<?xml version="1.0" standalone="no"?>
<!DOCTYPE svg PUBLIC "-//W3C//DTD SVG 20010904//EN"
 "http://www.w3.org/TR/2001/REC-SVG-20010904/DTD/svg10.dtd">
<svg version="1.0" xmlns="http://www.w3.org/2000/svg"
 width="2048.000000pt" height="2048.000000pt" viewBox="0 0 2048.000000 2048.000000"
 preserveAspectRatio="xMidYMid meet">
<metadata>
Created by potrace 1.13, written by Peter Selinger 2001-2015
</metadata>
<g transform="translate(0.000000,2048.000000) scale(0.192120,-0.192120)"
fill="#000000" stroke="none">
<path d="M5135 10169 c-332 -31 -716 -125 -1003 -245 -248 -104 -535 -273
-732 -430 -122 -98 -329 -303 -423 -419 -226 -280 -388 -609 -457 -930 -41
-187 -37 -706 6 -994 8 -52 13 -95 12 -96 -2 -1 -23 -7 -48 -14 -168 -48 -314
-248 -376 -516 -15 -64 -19 -118 -18 -270 0 -172 3 -199 27 -287 64 -240 195
-422 345 -478 71 -27 138 -27 152 0 18 33 27 23 40 -42 85 -434 354 -950 693
-1329 164 -183 405 -399 541 -485 l46 -29 -2 -339 -3 -340 -120 -17 c-596 -86
-1344 -303 -1913 -555 -442 -197 -777 -404 -1000 -618 -123 -119 -182 -194
-233 -299 -55 -114 -61 -156 -57 -409 3 -221 3 -223 30 -269 44 -75 129 -119
266 -139 91 -13 8753 -13 8844 0 137 20 222 64 266 139 27 46 27 48 30 269 2
137 -1 243 -8 276 -13 65 -65 174 -121 258 -56 84 -221 246 -341 336 -530 398
-1442 762 -2368 946 -177 35 -215 46 -214 59 0 10 2 171 3 360 l2 342 86 60
c456 317 890 879 1088 1410 46 121 101 307 110 367 10 69 17 75 58 49 45 -28
118 -28 194 1 73 27 174 124 226 218 48 87 93 224 113 345 24 147 15 366 -20
500 -68 262 -232 461 -407 496 l-57 11 14 51 c61 233 86 734 49 982 -77 511
-348 1002 -743 1348 -486 424 -1096 662 -1867 727 -140 11 -580 11 -710 -1z
m580 -279 c384 -21 702 -80 1018 -190 739 -255 1266 -775 1432 -1415 l25 -97
0 -567 c1 -564 1 -566 23 -608 12 -23 42 -66 66 -95 40 -47 72 -77 222 -207
22 -18 53 -62 71 -99 l33 -66 3 -256 c4 -314 -3 -357 -81 -467 -34 -48 -72
-69 -154 -84 -77 -14 -124 -43 -208 -128 -91 -92 -108 -123 -165 -296 -102
-307 -168 -443 -339 -705 -68 -105 -131 -187 -237 -310 -97 -112 -159 -172
-314 -304 -156 -132 -243 -227 -308 -334 l-32 -53 0 -365 c0 -236 4 -364 10
-364 6 0 10 -7 10 -15 0 -8 4 -15 9 -15 5 0 15 -15 22 -32 24 -59 127 -162
201 -203 29 -16 116 -41 230 -66 590 -131 1074 -289 1537 -503 474 -218 843
-480 956 -678 24 -42 25 -48 25 -250 0 -200 -1 -208 -21 -219 -11 -6 -76 -15
-142 -20 -161 -11 -8417 -11 -8567 0 -64 5 -128 15 -143 22 l-27 12 0 197 0
197 41 64 c280 434 1466 975 2639 1204 369 72 377 75 463 158 63 63 97 107
126 166 20 43 21 58 21 383 0 191 -4 338 -9 338 -5 0 -12 12 -15 26 -16 63
-142 205 -311 349 -421 360 -705 771 -866 1254 -78 234 -101 280 -187 368 -72
74 -110 98 -201 128 -64 21 -120 69 -156 133 -56 99 -58 111 -62 368 -4 225
-3 244 17 304 28 82 61 130 151 215 100 94 151 155 190 228 l34 62 5 545 6
545 26 86 c45 145 123 317 194 432 76 120 210 285 328 402 486 484 1181 778
1946 824 195 12 264 12 465 1z"/>
</g>
</svg>
