<?xml version="1.0" standalone="no"?>
<!DOCTYPE svg PUBLIC "-//W3C//DTD SVG 20010904//EN"
 "http://www.w3.org/TR/2001/REC-SVG-20010904/DTD/svg10.dtd">
<svg version="1.0" xmlns="http://www.w3.org/2000/svg"
 width="2048.000000pt" height="2048.000000pt" viewBox="0 0 2048.000000 2048.000000"
 preserveAspectRatio="xMidYMid meet">
<metadata>
Created by potrace 1.13, written by Peter Selinger 2001-2015
</metadata>
<g transform="translate(0.000000,2048.000000) scale(0.192120,-0.192120)"
fill="#000000" stroke="none">
<path d="M1320 10324 c-274 -42 -463 -131 -640 -301 -169 -160 -265 -330 -328
-573 -15 -60 -16 -319 -20 -3225 -2 -2309 0 -3185 8 -3253 15 -125 42 -218 96
-331 148 -313 391 -515 742 -614 76 -21 91 -22 975 -27 l897 -5 -26 -39 c-45
-65 -110 -206 -139 -296 -50 -161 -55 -230 -55 -802 l0 -528 3610 0 3610 0 0
538 c0 592 -4 647 -61 817 -132 394 -491 749 -959 948 -208 88 -419 147 -543
153 -48 2 -97 9 -108 15 -11 5 -91 15 -177 21 -86 6 -158 12 -160 13 -1 1 7
22 18 47 11 25 25 69 31 99 6 30 13 55 14 57 2 2 72 -21 156 -51 304 -108 459
-142 639 -141 157 0 217 20 302 101 157 150 221 456 249 1197 16 440 17 2019
1 2181 -52 519 -166 930 -370 1330 -83 161 -228 388 -338 525 -137 170 -347
373 -548 528 l-87 67 -2 275 c-4 300 -5 307 -72 440 -36 71 -144 177 -221 217
-129 68 147 63 -3319 63 -3456 0 -3182 5 -3315 -62 -129 -65 -244 -214 -279
-361 -8 -35 -11 -882 -11 -3185 0 -2796 1 -3143 15 -3196 40 -152 154 -289
297 -356 46 -21 113 -44 148 -49 43 -7 454 -11 1198 -11 l1132 0 88 44 c280
140 603 221 930 233 l162 6 -44 -66 c-66 -98 -80 -149 -73 -271 6 -132 98
-507 218 -901 89 -289 130 -361 245 -433 50 -32 97 -41 109 -22 3 5 88 65 188
133 100 68 282 194 405 280 122 87 230 161 239 164 14 5 12 -1 -6 -31 -91
-147 -92 -238 -3 -285 22 -12 22 -14 22 -235 l0 -224 -54 -30 c-75 -43 -96
-82 -96 -182 0 -43 4 -81 9 -85 5 -3 12 -19 16 -35 4 -17 10 -30 15 -30 4 0
10 -8 12 -18 5 -16 -68 -17 -1446 -14 -934 1 -1452 6 -1454 12 -2 6 -24 10
-48 10 l-45 0 3 503 3 502 64 170 c34 94 67 178 72 187 5 10 9 36 9 58 0 44 8
55 153 209 49 52 98 108 108 125 22 36 26 96 5 96 -38 0 -254 -192 -364 -323
l-66 -79 -24 48 c-29 58 -58 92 -92 107 -18 8 -259 14 -815 18 -873 6 -852 5
-1021 73 -250 101 -454 323 -533 580 l-21 68 0 3252 c0 2946 2 3257 16 3307
25 86 101 230 158 302 154 194 372 309 636 337 125 13 6127 13 6260 0 126 -12
236 -42 332 -91 106 -52 150 -84 248 -175 98 -93 156 -173 198 -274 64 -155
72 -209 82 -540 10 -306 5 -280 103 -532 82 -211 76 -238 77 328 0 558 -3 598
-64 770 -127 354 -429 620 -806 711 -71 17 -232 18 -3260 19 -1752 1 -3196 0
-3210 -2z m1157 -763 c4 -17 21 -19 221 -23 119 -3 309 -3 421 0 189 5 204 6
209 24 4 18 55 19 2121 15 2296 -3 2161 0 2269 -56 58 -30 120 -93 158 -161
39 -70 45 -89 55 -180 12 -120 26 -180 57 -260 16 -41 29 -76 27 -78 -1 -1
-47 23 -101 54 -575 333 -1196 481 -1749 419 -916 -103 -1778 -643 -2266
-1420 -137 -218 -219 -396 -324 -700 -72 -208 -73 -209 -80 -165 -14 89 -49
173 -103 255 -18 28 -31 59 -30 70 2 10 19 30 38 43 19 13 36 27 38 32 2 5 30
36 62 69 78 80 130 185 131 262 1 87 -26 137 -136 245 -52 51 -97 104 -100
117 -4 16 7 48 36 103 23 43 45 84 49 89 26 36 73 134 99 211 28 81 31 100 31
220 0 106 -4 142 -21 192 -57 169 -275 405 -435 473 -27 11 -62 28 -79 37 -24
14 -56 17 -165 17 -120 0 -140 -3 -182 -23 -27 -12 -59 -27 -73 -32 -93 -35
-331 -244 -396 -348 -23 -36 -55 -97 -70 -135 -26 -63 -29 -81 -29 -188 0
-130 6 -151 71 -249 37 -55 112 -132 161 -164 33 -21 42 -45 29 -77 -5 -13
-53 -82 -106 -154 -127 -170 -165 -248 -165 -341 0 -59 5 -77 32 -124 31 -55
134 -164 217 -230 56 -45 53 -64 -29 -145 -76 -76 -152 -191 -185 -278 -23
-62 -25 -81 -25 -226 0 -118 -3 -160 -12 -164 -7 -2 -43 3 -80 11 -53 13 -68
20 -68 34 0 10 -7 18 -15 18 -9 0 -15 9 -15 23 0 52 -68 164 -149 247 -92 93
-148 123 -227 122 -74 -1 -125 -31 -224 -131 -85 -85 -150 -186 -150 -232 0
-12 -8 -23 -20 -26 -11 -3 -20 -13 -20 -23 0 -17 -19 -30 -43 -30 -36 0 -37
51 -37 1407 l0 1328 21 35 c12 19 32 44 44 55 12 11 25 28 28 37 8 22 70 61
133 83 73 26 192 32 692 33 434 2 454 1 459 -17z m597 -382 c192 -59 316 -226
318 -427 1 -197 -91 -356 -426 -737 l-105 -120 242 -5 c265 -5 282 -9 317 -65
26 -42 27 -119 1 -161 -39 -63 -44 -64 -513 -64 -394 0 -426 2 -465 19 -25 12
-48 32 -57 50 -20 39 -20 104 0 142 8 17 93 119 187 227 232 265 262 302 344
412 126 170 157 265 113 354 -32 67 -71 91 -147 91 -99 0 -143 -45 -190 -194
-36 -114 -78 -161 -147 -161 -167 0 -216 176 -107 385 69 134 225 248 371 274
73 13 186 5 264 -20z m3753 -28 c258 -39 494 -111 742 -225 213 -98 282 -145
369 -248 39 -47 116 -127 173 -179 236 -217 283 -267 424 -454 263 -348 394
-591 503 -925 58 -180 72 -248 72 -362 l0 -101 -42 37 c-121 104 -238 156
-352 156 -75 0 -147 -20 -241 -67 -41 -21 -84 -36 -105 -36 -24 1 -81 25 -180
76 -302 156 -570 225 -945 242 -483 21 -859 131 -1465 429 -232 114 -283 125
-378 81 -92 -43 -138 -82 -438 -371 -317 -306 -423 -397 -482 -415 -34 -10
-49 -7 -143 25 -168 57 -290 45 -425 -44 -69 -45 -194 -171 -249 -251 l-36
-54 6 155 c22 561 18 530 98 730 232 576 650 1065 1193 1396 205 125 479 246
739 328 132 41 337 78 550 100 105 11 485 -4 612 -23z m-1261 -1793 c264 -153
699 -337 999 -423 230 -65 391 -91 640 -100 88 -3 198 -11 245 -16 358 -42
664 -166 915 -373 l30 -25 42 54 c113 146 279 194 418 122 128 -67 236 -228
286 -428 26 -107 36 -316 20 -431 -34 -230 -146 -433 -287 -518 -56 -34 -62
-35 -155 -35 l-96 0 -28 -115 c-48 -199 -146 -464 -242 -655 -194 -384 -498
-739 -819 -956 l-74 -50 0 -197 c0 -108 -3 -219 -6 -247 l-6 -50 -87 0 c-84 0
-88 -1 -176 -49 -49 -27 -121 -69 -160 -94 -38 -26 -79 -51 -90 -57 -85 -47
-319 -215 -397 -286 -42 -38 -85 -69 -95 -69 -11 0 -32 14 -49 31 -71 75 -466
348 -649 449 -150 83 -155 85 -237 83 -70 -2 -76 0 -82 20 -3 12 -6 119 -6
237 l-1 215 -55 34 c-161 97 -401 315 -545 494 -279 346 -477 764 -583 1230
-6 26 -9 27 -70 27 -79 0 -134 19 -198 68 -145 110 -243 341 -255 603 -12 266
61 506 199 654 77 83 142 117 232 123 103 6 172 -22 252 -102 l60 -61 91 75
c49 41 132 110 184 152 52 43 240 221 419 397 179 176 325 320 326 320 1 1 41
-22 90 -51z m-2527 -113 c166 -40 298 -164 341 -324 20 -77 15 -189 -15 -277
-47 -142 -137 -274 -365 -533 -77 -88 -140 -162 -140 -163 0 -2 93 -2 207 0
137 3 225 0 260 -8 l53 -11 0 -128 0 -128 -42 -12 c-31 -9 -160 -11 -453 -9
-389 3 -412 4 -444 23 -19 11 -43 32 -53 46 -24 32 -27 103 -5 144 8 17 91
116 183 220 448 509 525 638 465 770 -36 81 -110 117 -193 94 -62 -16 -101
-63 -133 -161 -53 -158 -80 -190 -166 -190 -90 0 -149 55 -157 145 -17 212
159 439 391 502 69 18 187 18 266 0z m-1359 -464 c45 -32 50 -54 50 -248 l0
-183 183 0 c165 0 185 -2 215 -20 61 -37 79 -133 37 -196 -30 -46 -68 -54
-260 -54 l-175 0 0 -180 c0 -200 -6 -227 -60 -255 -37 -19 -103 -19 -140 0
-57 29 -60 42 -60 247 l0 188 -177 0 c-203 0 -235 9 -265 70 -34 68 -15 144
45 180 29 18 51 20 215 20 l182 0 0 190 0 190 28 31 c43 49 127 58 182 20z
m1715 -533 c-4 -73 -10 -149 -14 -168 l-7 -35 -27 40 c-37 54 -35 97 11 205
20 49 38 90 40 90 2 0 0 -60 -3 -132z m-1315 -413 c0 -8 9 -15 20 -15 14 0 20
-7 20 -24 0 -13 7 -29 15 -36 8 -7 15 -19 15 -27 0 -7 9 -31 20 -53 42 -82 21
-100 -113 -100 -109 0 -127 6 -127 39 0 27 21 96 33 107 4 4 7 22 7 41 0 26 4
33 20 33 13 0 20 7 20 19 0 21 13 29 48 30 13 1 22 -5 22 -14z m-860 -67 c0
-16 7 -40 16 -53 9 -14 17 -48 18 -76 1 -49 -1 -53 -28 -62 -21 -7 -30 -6 -36
3 -7 12 -33 10 -74 -6 -14 -5 -16 9 -16 118 l0 125 60 -10 c57 -9 60 -11 60
-39z m2159 -270 c0 -35 -2 -39 -9 -21 -8 19 -3 63 6 63 2 0 4 -19 3 -42z m1
-282 c0 -68 3 -131 6 -140 6 -15 -96 -16 -1111 -16 -1238 0 -1162 -4 -1205 65
-24 40 -26 106 -3 145 9 15 32 37 52 49 36 20 39 21 1149 21 l1112 0 0 -124z
m343 -13 c30 -38 79 -91 108 -118 53 -50 166 -125 187 -125 24 0 64 -74 123
-230 133 -354 253 -585 436 -840 102 -141 153 -201 305 -356 70 -72 128 -136
128 -143 0 -27 -22 -49 -102 -103 -177 -119 -260 -153 -533 -223 -308 -79
-433 -92 -512 -54 -46 22 -103 90 -143 168 -66 132 -130 402 -177 749 -25 186
-27 220 -27 599 -1 393 -1 402 20 430 12 16 24 38 28 51 4 12 11 22 16 22 11
0 30 77 39 155 12 108 30 111 104 18z m5477 -557 c0 -569 -8 -801 -36 -1025
-36 -304 -91 -449 -183 -489 -28 -13 -68 -16 -189 -14 -189 2 -240 10 -426 67
-82 25 -186 49 -232 55 -85 9 -123 24 -219 86 -90 57 -88 64 52 207 225 230
406 485 552 777 78 156 116 245 215 507 36 95 52 114 122 142 86 35 149 80
237 169 43 43 85 79 93 79 12 0 14 -80 14 -561z m-5801 -26 c36 -915 155
-1476 354 -1683 67 -69 113 -90 206 -95 140 -8 328 35 646 146 273 96 258 92
215 48 -63 -66 -131 -91 -424 -151 -148 -31 -305 -64 -350 -74 -45 -11 -112
-24 -151 -30 -38 -6 -86 -13 -105 -16 -59 -9 -2345 -5 -2404 5 -110 18 -182
64 -249 160 l-32 45 -3 919 c-2 875 -2 918 15 911 10 -3 30 -9 46 -12 22 -4
27 -2 27 13 0 18 28 19 1017 16 559 -1 1019 1 1022 5 3 5 25 21 49 36 23 15
54 41 69 58 l28 30 6 -23 c4 -13 12 -151 18 -308z m1823 -1562 c57 -46 123
-98 148 -116 155 -112 233 -167 470 -334 454 -317 563 -389 574 -378 13 13 53
13 61 0 4 -6 30 5 63 26 85 54 448 307 681 473 112 80 229 163 259 184 64 44
165 123 237 184 27 24 60 43 72 43 50 0 158 -136 210 -262 21 -53 24 -73 20
-129 -25 -298 -368 -1539 -426 -1539 -4 0 -67 64 -139 143 -129 140 -332 333
-487 462 -207 172 -483 365 -522 365 -44 0 -364 -231 -603 -436 -134 -115
-437 -416 -494 -491 -31 -41 -43 -50 -53 -41 -71 58 -369 1132 -422 1522 l-11
80 49 102 c56 113 149 224 188 224 13 0 67 -36 125 -82z m3203 -319 c5 -5 43
-36 84 -70 106 -89 156 -120 251 -158 128 -50 354 -162 455 -226 293 -186 499
-446 582 -735 l27 -95 4 -417 c3 -417 3 -418 -17 -418 -17 0 -21 -6 -21 -35
l0 -35 -1402 0 c-861 0 -1430 -4 -1473 -10 -66 -9 -145 -37 -145 -51 0 -4 -11
-14 -25 -23 l-25 -16 0 39 c0 36 3 40 38 54 49 20 76 51 96 111 39 118 3 216
-96 267 l-38 19 0 225 0 224 29 16 c81 41 81 137 1 267 -16 26 -26 48 -22 48
4 0 88 -57 187 -127 189 -133 493 -339 607 -411 90 -57 108 -56 197 16 89 72
132 169 236 532 54 187 161 610 185 735 28 143 53 227 74 250 32 35 175 51
211 24z m-1856 -913 c53 -27 90 -66 124 -130 34 -64 31 -174 -8 -244 -126
-230 -462 -182 -515 74 -24 113 29 231 129 291 29 17 65 34 80 37 54 9 141 -4
190 -28z m-22 -822 c54 -19 119 -83 146 -142 16 -34 21 -66 21 -117 -2 -292
-392 -381 -520 -118 -111 226 110 463 353 377z m-432 -470 c6 0 18 -2 28 -2
13 -2 17 -11 17 -37 0 -19 -4 -35 -8 -35 -12 0 -72 67 -72 80 0 6 5 8 13 3 6
-4 17 -8 22 -9z M5427 6054 c-69 -21 -131 -86 -153 -159 -23 -81 -17 -344 10
-395 47 -89 119 -134 217 -135 56 0 73 4 114 30 27 17 63 50 80 74 l30 43 3
189 3 189 -28 51 c-33 61 -75 95 -139 115 -57 17 -75 17 -137 -2z M7325 6061
c-69 -17 -125 -62 -161 -131 -17 -30 -19 -59 -19 -215 0 -196 4 -214 64 -278
110 -119 309 -89 377 56 22 49 24 63 24 223 0 162 -1 172 -25 221 -49 98 -157
149 -260 124z M6124 4876 c-32 -32 -34 -38 -34 -101 0 -63 2 -69 34 -101 l34
-34 281 0 281 0 32 29 c32 28 33 32 33 106 0 74 -1 78 -33 106 l-32 29 -281 0
-281 0 -34 -34z M5774 4341 c-100 -45 -135 -163 -80 -269 35 -68 231 -186 382
-231 247 -73 546 -63 778 27 169 66 303 170 324 252 34 136 -84 262 -222 236
-19 -4 -59 -25 -88 -47 -111 -84 -232 -126 -393 -135 -170 -11 -334 28 -442
103 -126 87 -178 101 -259 64z M7210 3274 c-263 -112 -450 -154 -722 -161
-316 -9 -536 32 -823 152 l-103 43 0 -55 1 -54 71 -51 c120 -85 248 -140 411
-178 270 -62 658 -49 904 31 97 31 239 104 305 155 53 42 56 47 51 77 -4 18
-2 45 4 60 6 15 9 27 8 27 -1 -1 -49 -21 -107 -46z"/>
</g>
</svg>
