<?xml version="1.0" standalone="no"?>
<!DOCTYPE svg PUBLIC "-//W3C//DTD SVG 20010904//EN"
 "http://www.w3.org/TR/2001/REC-SVG-20010904/DTD/svg10.dtd">
<svg version="1.0" xmlns="http://www.w3.org/2000/svg"
 width="2048.000000pt" height="2048.000000pt" viewBox="0 0 2048.000000 2048.000000"
 preserveAspectRatio="xMidYMid meet">
<metadata>
Created by potrace 1.13, written by Peter Selinger 2001-2015
</metadata>
<g transform="translate(0.000000,2048.000000) scale(0.192120,-0.192120)"
fill="#000000" stroke="none">
<path d="M2355 10319 c-219 -22 -475 -86 -684 -171 l-125 -51 -88 6 c-190 12
-478 -27 -678 -94 -120 -39 -283 -112 -378 -167 l-72 -43 3 -1712 c3 -1880 -1
-1758 63 -2017 121 -489 441 -938 869 -1219 114 -75 291 -167 388 -202 l67
-24 0 -197 c0 -133 3 -198 11 -198 24 0 119 55 125 72 3 10 10 16 15 13 5 -4
9 52 9 138 0 131 -2 149 -22 187 -42 77 -140 163 -267 231 -289 155 -497 323
-661 534 -231 298 -341 559 -399 947 -19 122 -21 183 -21 577 0 287 -3 441
-10 441 -5 0 -10 9 -10 20 0 11 -4 20 -10 20 -5 0 -10 6 -10 13 0 7 -15 37
-34 67 -19 30 -33 56 -32 58 2 1 70 7 152 12 562 36 1045 137 1474 307 500
198 942 489 1287 847 63 65 115 117 117 115 1 -2 12 -34 24 -71 86 -269 240
-562 400 -759 165 -205 385 -355 600 -409 l42 -11 0 -574 c0 -490 -2 -574 -14
-569 -18 7 -72 -20 -109 -55 -49 -45 -70 -98 -75 -188 -4 -74 -2 -86 21 -125
14 -24 38 -53 55 -65 l29 -22 21 72 c12 40 28 109 36 154 14 76 20 88 79 165
253 328 416 712 484 1140 25 162 25 557 0 718 -78 489 -297 947 -621 1298
-395 428 -895 692 -1470 778 -123 18 -458 26 -581 13z m476 -259 c549 -56
1049 -302 1429 -705 241 -254 405 -554 504 -915 l31 -115 0 -450 0 -450 -28
-105 c-37 -140 -63 -192 -91 -188 -29 4 -33 33 -35 236 -1 146 -3 172 -16 172
-8 0 -15 6 -15 13 0 29 -41 96 -84 135 -24 22 -96 67 -158 98 -147 73 -207
114 -297 199 -157 149 -294 354 -411 614 -82 184 -105 224 -146 261 -107 94
-159 75 -411 -147 -184 -163 -253 -217 -409 -323 -283 -192 -548 -321 -931
-454 -106 -36 -228 -82 -270 -100 -105 -46 -144 -54 -308 -60 -77 -3 -193 -12
-257 -20 -65 -9 -172 -18 -238 -22 l-120 -7 2 969 3 968 115 47 c231 93 396
125 695 138 l191 8 179 61 c251 85 422 124 625 145 81 8 355 6 451 -3z M7890
10324 c-881 -81 -1635 -593 -2015 -1369 -178 -363 -250 -673 -250 -1080 0
-282 25 -463 96 -705 82 -278 246 -597 419 -815 34 -43 50 -73 55 -105 11 -70
37 -170 44 -170 18 0 74 44 91 72 30 49 35 93 16 142 -20 53 -84 120 -131 137
-22 8 -37 21 -40 34 -2 11 -6 262 -10 557 l-6 537 33 5 c18 3 78 8 133 11 128
8 412 48 568 81 661 140 1205 390 1694 780 54 43 170 149 257 236 88 87 160
157 161 155 1 -1 12 -33 25 -72 114 -354 316 -697 528 -897 178 -167 362 -258
592 -295 l107 -17 -39 -65 c-21 -36 -38 -74 -38 -83 0 -10 -4 -18 -10 -18 -7
0 -10 -147 -10 -420 0 -420 -9 -569 -49 -775 -37 -190 -151 -473 -254 -625
-208 -308 -427 -501 -790 -695 -107 -57 -139 -80 -189 -134 -33 -36 -67 -80
-74 -98 -17 -40 -19 -290 -3 -326 10 -21 103 -77 129 -77 6 0 10 76 10 198 l0
197 78 29 c175 65 407 203 572 342 344 288 594 702 689 1139 52 241 52 220 49
2015 l-3 1665 -150 75 c-82 42 -201 92 -263 113 -220 72 -497 112 -700 101
-90 -6 -101 -4 -157 21 -168 77 -418 148 -625 180 -101 15 -447 27 -540 19z
m570 -284 c156 -26 229 -45 454 -122 l179 -60 194 -9 c192 -9 262 -17 392 -44
90 -19 251 -71 329 -106 l62 -28 0 -960 c0 -529 -4 -961 -8 -961 -24 0 -126
36 -186 66 -245 123 -463 384 -636 764 -95 208 -114 243 -156 280 -110 96
-165 74 -430 -165 -305 -276 -655 -497 -1037 -655 -130 -53 -381 -147 -437
-163 -130 -37 -524 -106 -755 -132 -77 -9 -158 -20 -179 -26 -71 -19 -161 -89
-172 -134 -3 -14 -10 -25 -15 -25 -5 0 -9 -9 -9 -20 0 -11 -7 -20 -15 -20 -13
0 -15 -27 -15 -179 0 -99 -3 -186 -6 -195 -5 -14 -8 -14 -30 1 -33 21 -58 80
-94 218 l-30 116 0 397 c0 382 1 401 24 502 88 387 272 720 562 1016 121 123
198 187 356 293 286 192 667 331 1019 370 141 16 495 6 639 -19z M1347 7536
c-65 -24 -120 -73 -155 -141 -27 -49 -27 -52 -27 -255 0 -204 0 -205 28 -262
87 -177 304 -212 444 -73 73 74 83 114 83 330 0 123 -4 186 -15 222 -18 60
-81 135 -139 165 -52 27 -165 34 -219 14z M3262 7520 c-66 -34 -99 -68 -131
-140 -18 -40 -21 -66 -21 -245 0 -189 2 -203 24 -250 46 -100 127 -155 239
-163 61 -4 73 -2 133 28 48 23 75 44 97 77 52 72 55 92 56 304 1 227 -7 265
-72 332 -57 58 -108 80 -192 85 -63 3 -77 0 -133 -28z M7185 7537 c-84 -32
-143 -91 -170 -168 -19 -53 -20 -416 -2 -466 25 -68 73 -120 141 -153 60 -30
72 -32 133 -28 112 8 193 63 239 163 22 47 24 61 24 251 l0 201 -31 63 c-49
98 -132 148 -244 148 -33 0 -74 -5 -90 -11z M9105 7527 c-66 -31 -131 -105
-150 -170 -11 -36 -15 -99 -15 -222 0 -216 10 -256 83 -330 140 -139 357 -104
444 73 28 57 28 58 28 262 0 203 0 205 -27 256 -51 97 -127 146 -238 151 -64
3 -83 0 -125 -20z M2203 6280 c-46 -27 -65 -62 -65 -116 0 -51 18 -83 66 -118
25 -19 41 -21 210 -21 158 0 185 2 209 18 64 42 86 131 47 194 -34 57 -59 63
-257 63 -159 0 -181 -2 -210 -20z M8033 6280 c-85 -51 -83 -180 4 -237 24 -16
51 -18 209 -18 169 0 185 2 210 21 48 35 66 67 66 118 0 54 -19 89 -65 116
-29 18 -51 20 -212 20 -161 0 -183 -2 -212 -20z M5205 6149 c-206 -27 -458
-98 -621 -174 -68 -31 -94 -38 -189 -45 -60 -5 -148 -16 -195 -25 -302 -59
-645 -239 -845 -444 l-49 -51 -893 0 c-491 0 -893 -3 -893 -6 0 -14 63 -95
116 -148 208 -207 500 -309 839 -292 278 13 514 102 660 250 l60 61 70 0 c88
1 158 32 266 115 198 153 429 266 658 322 25 6 116 12 201 13 l155 2 150 53
c332 116 483 144 760 145 219 0 294 -9 560 -71 330 -76 366 -90 555 -214 185
-122 443 -350 480 -425 8 -16 46 -79 84 -140 164 -262 243 -463 297 -753 13
-76 19 -156 20 -281 l2 -176 12 90 c7 50 13 82 14 72 0 -9 5 -25 10 -35 107
-203 151 -357 236 -827 67 -370 147 -742 236 -1097 31 -124 39 -176 39 -246 0
-105 9 -93 -145 -184 -207 -122 -537 -282 -715 -346 -142 -51 -181 -55 -392
-38 -171 13 -228 25 -228 44 1 15 37 52 100 102 95 74 240 220 324 324 66 82
196 267 196 279 0 3 16 34 36 68 81 144 178 398 213 562 47 215 51 284 51 796
0 468 -4 566 -20 556 -4 -3 -11 6 -14 19 -3 13 -39 55 -79 93 -69 65 -83 74
-198 118 -331 128 -544 271 -878 590 -234 225 -289 247 -429 178 -32 -16 -113
-71 -179 -121 -175 -132 -305 -215 -466 -297 -428 -217 -904 -343 -1507 -400
-181 -17 -252 -33 -296 -67 -62 -48 -115 -103 -120 -125 -4 -13 -10 -23 -15
-23 -5 0 -9 -251 -9 -589 0 -547 1 -596 20 -688 61 -305 215 -636 422 -905 89
-116 278 -306 380 -382 74 -55 100 -89 81 -106 -28 -26 -277 -64 -373 -57 -76
5 -163 34 -390 129 -215 90 -677 335 -708 375 -7 10 -12 47 -12 91 0 57 15
135 69 355 39 155 82 338 96 407 15 69 40 184 55 255 24 111 47 231 121 655
21 118 30 290 38 690 9 442 4 408 96 660 59 159 68 239 33 289 -12 19 -28 36
-33 38 -6 2 -29 -27 -52 -64 -207 -339 -287 -764 -218 -1153 l17 -95 -184
-280 c-101 -154 -202 -308 -223 -342 -22 -35 -42 -62 -45 -62 -6 1 -672 1002
-684 1029 -9 20 -23 20 -708 20 l-698 0 0 -1945 0 -1945 5000 0 5000 0 0 1945
0 1945 -698 0 c-685 0 -699 0 -708 -20 -12 -27 -678 -1028 -684 -1029 -3 0
-23 27 -45 62 -21 34 -154 237 -294 451 l-255 389 -13 121 c-44 406 -186 773
-426 1095 -333 446 -834 750 -1397 846 -112 20 -498 29 -605 14z m880 -1429
c338 -358 678 -592 1013 -699 70 -22 140 -43 156 -46 l29 -6 -6 -517 c-7 -625
-17 -719 -112 -992 -190 -544 -630 -986 -1175 -1181 l-105 -37 2 -37 c2 -32
-26 -78 -260 -427 -144 -216 -270 -397 -279 -402 -13 -8 -23 -8 -35 0 -10 5
-136 186 -280 402 -234 349 -262 395 -260 427 l2 37 -105 37 c-117 42 -233 98
-358 173 -423 254 -738 674 -862 1150 -57 217 -62 278 -67 834 l-5 511 139 6
c182 8 387 31 601 67 724 122 1315 391 1767 803 l60 55 30 -37 c16 -20 66 -74
110 -121z m-4458 -751 c61 -30 105 -84 286 -354 242 -362 335 -473 440 -524
43 -21 87 -28 87 -13 0 4 20 15 45 26 25 10 68 38 95 63 91 82 235 311 291
463 17 47 32 86 33 88 2 1 15 -29 30 -67 l28 -69 -36 -216 c-99 -590 -269
-1347 -360 -1603 l-15 -42 112 -69 c307 -189 727 -393 1035 -502 l93 -33 96
17 c142 25 324 35 556 29 l206 -6 11 -31 c29 -79 99 -208 171 -317 43 -66 79
-124 79 -129 0 -5 9 -25 21 -44 11 -20 18 -43 15 -54 -13 -41 -35 -42 -933
-42 -572 0 -887 -4 -942 -11 -45 -6 -85 -8 -89 -4 -4 3 0 18 9 33 l15 27
-1213 -3 -1213 -2 0 1685 0 1685 40 0 c33 0 40 3 40 20 0 20 7 20 462 20 447
0 463 -1 505 -21z m8433 1 c0 -13 7 -20 20 -20 20 0 20 -7 20 -1645 0 -1638 0
-1645 -20 -1645 -17 0 -20 -7 -20 -40 l0 -40 -1198 2 -1198 3 14 -28 c8 -16
12 -31 9 -34 -3 -3 -35 0 -70 6 -43 7 -339 11 -930 11 -764 0 -871 2 -906 16
-74 30 -65 58 111 336 53 83 101 185 112 239 l6 27 313 7 c311 7 451 3 557
-16 53 -10 60 -9 170 34 285 110 630 279 888 433 151 91 163 100 159 124 -2
14 -23 88 -45 165 -104 356 -212 847 -302 1369 -38 218 -79 505 -80 550 0 10
24 -31 54 -91 112 -228 268 -477 348 -555 99 -95 200 -120 270 -65 102 80 162
156 377 475 101 150 202 293 224 317 77 88 45 84 615 85 495 0 502 0 502 -20z
M4428 3376 c-92 -25 -162 -90 -193 -175 -22 -63 -21 -398 1 -463 32 -95 127
-170 231 -184 111 -14 229 54 279 161 23 47 24 61 24 255 0 195 -1 207 -24
255 -56 119 -196 185 -318 151z M6107 3379 c-89 -22 -160 -79 -196 -159 -18
-40 -21 -66 -21 -244 0 -127 4 -214 12 -240 8 -27 32 -61 69 -98 45 -45 68
-60 114 -73 104 -31 218 3 288 86 59 68 67 108 67 319 0 211 -8 251 -66 318
-61 72 -180 113 -267 91z M5261 2392 c-63 -32 -87 -110 -55 -178 47 -98 201
-98 248 0 44 94 -20 196 -124 196 -19 0 -50 -8 -69 -18z M4505 1973 c10 -42
80 -160 137 -229 135 -167 339 -271 578 -296 322 -34 621 77 798 296 57 69
127 187 137 229 l7 27 -832 0 -832 0 7 -27z m1083 -209 c26 -8 29 -39 5 -52
-10 -6 -55 -19 -100 -31 -139 -36 -264 -28 -410 25 -48 18 -59 49 -20 57 35 7
499 7 525 1z M7367 5379 c28 -48 129 -155 193 -204 119 -91 262 -155 432 -191
118 -26 391 -26 508 -1 258 56 452 171 598 356 23 29 42 57 42 62 0 5 -364 9
-896 9 l-895 0 18 -31z"/>
</g>
</svg>
