<?xml version="1.0" standalone="no"?>
<!DOCTYPE svg PUBLIC "-//W3C//DTD SVG 20010904//EN"
 "http://www.w3.org/TR/2001/REC-SVG-20010904/DTD/svg10.dtd">
<svg version="1.0" xmlns="http://www.w3.org/2000/svg"
 width="2048.000000pt" height="2048.000000pt" viewBox="0 0 2048.000000 2048.000000"
 preserveAspectRatio="xMidYMid meet">
<metadata>
Created by potrace 1.13, written by Peter Selinger 2001-2015
</metadata>
<g transform="translate(0.000000,2048.000000) scale(0.192120,-0.192120)"
fill="#000000" stroke="none">
<path d="M3130 10318 c-227 -21 -541 -104 -750 -198 -659 -297 -1164 -854
-1385 -1525 -44 -133 -72 -248 -102 -422 -15 -87 -17 -220 -21 -1203 -2 -742
0 -1148 8 -1235 20 -250 79 -518 165 -752 81 -220 256 -540 381 -694 l53 -67
-237 -5 c-167 -3 -252 -9 -287 -19 -176 -52 -270 -162 -318 -372 -21 -90 -21
-106 -24 -1794 l-4 -1702 4696 0 c3801 0 4695 2 4695 13 0 7 -25 63 -55 124
-156 318 -442 566 -765 664 -73 23 -88 23 -577 27 l-501 3 2 41 2 41 110 39
c591 210 1056 715 1213 1317 23 89 37 121 89 201 165 252 279 557 328 875 23
149 23 459 0 610 -37 239 -99 442 -201 650 -328 676 -978 1132 -1733 1215
-158 18 -455 8 -597 -19 -196 -37 -412 -104 -536 -167 -34 -17 -76 -25 -164
-34 -137 -12 -277 -41 -390 -79 l-80 -28 3 1441 c2 919 -1 1478 -7 1543 -27
265 -105 489 -244 692 -75 111 -233 264 -355 345 -183 122 -408 207 -640 241
-123 19 -376 22 -472 6 l-66 -11 -124 56 c-370 165 -705 220 -1110 182z m565
-272 c133 -24 263 -62 416 -122 208 -82 238 -88 409 -80 235 11 430 -14 627
-79 346 -115 605 -355 709 -656 14 -41 35 -114 47 -164 21 -90 21 -95 24
-1507 3 -1243 5 -1418 18 -1418 11 0 15 -11 15 -40 0 -33 6 -47 36 -76 20 -19
57 -45 82 -58 l46 -23 -110 -56 c-356 -183 -610 -434 -779 -772 -105 -212
-157 -399 -175 -638 -23 -301 36 -598 171 -869 74 -149 135 -240 261 -389 l47
-56 -14 -48 c-19 -61 -19 -204 0 -318 63 -386 265 -755 596 -1091 48 -48 80
-90 84 -108 10 -45 -4 -148 -20 -148 -8 0 -18 -8 -23 -17 -7 -11 -40 -23 -98
-35 -213 -44 -419 -131 -527 -222 -67 -57 -118 -124 -172 -224 -24 -44 -30
-50 -36 -35 -4 10 -8 534 -8 1166 l-1 1147 -140 0 -140 0 -2 -1319 c-2 -726
-6 -1322 -9 -1325 -3 -3 -45 8 -93 24 l-88 30 -1349 0 c-742 0 -1349 -3 -1349
-8 0 -4 -27 -18 -60 -31 -33 -13 -60 -27 -60 -31 0 -4 -9 -10 -20 -13 -20 -5
-20 0 -20 1334 l0 1339 -145 0 -145 0 0 -1340 0 -1341 -67 38 c-38 20 -69 41
-71 45 -2 4 -12 8 -23 8 -10 0 -19 5 -19 10 0 6 -105 10 -295 10 -256 0 -295
2 -295 15 0 11 -11 15 -40 15 l-40 0 0 1601 c0 1167 3 1612 11 1640 7 20 24
51 39 67 15 17 30 37 33 47 15 39 169 75 322 75 91 1 140 15 263 78 l113 57
490 3 c479 3 491 2 496 -17 3 -10 13 -21 24 -24 10 -3 19 -12 19 -20 0 -14 54
-154 88 -227 62 -136 212 -294 336 -354 271 -131 545 -137 799 -18 111 52 177
101 249 186 82 97 138 196 183 324 21 59 44 111 52 115 7 4 13 15 13 22 0 11
12 15 40 15 27 0 43 5 46 15 5 13 37 15 199 15 171 0 198 2 236 20 l44 20
-186 0 c-102 0 -254 3 -338 7 l-151 6 15 23 c8 13 18 45 22 70 3 25 12 48 19
51 10 3 14 23 14 59 0 39 4 56 15 60 8 4 15 15 15 25 0 12 13 24 38 34 20 9
42 22 47 29 6 7 46 32 90 54 280 141 418 264 656 582 305 408 395 568 460 823
48 188 49 206 49 1025 0 508 -3 772 -10 772 -5 0 -10 7 -10 16 0 22 -84 101
-128 120 -20 9 -93 25 -162 35 -479 74 -730 251 -935 659 -65 129 -91 165
-143 200 -92 61 -162 31 -386 -162 -257 -223 -558 -409 -897 -556 -143 -62
-435 -161 -589 -201 -150 -38 -434 -85 -635 -105 -255 -26 -313 -34 -358 -54
-46 -20 -137 -100 -137 -120 0 -7 -5 -12 -10 -12 -8 0 -10 -229 -8 -732 l4
-733 36 -135 c69 -255 165 -479 294 -680 90 -142 141 -206 257 -326 179 -186
387 -339 609 -447 88 -43 127 -67 128 -79 0 -10 9 -22 20 -28 16 -9 20 -21 20
-61 0 -35 4 -51 15 -55 9 -4 15 -19 15 -38 0 -18 4 -36 9 -41 4 -6 13 -25 19
-43 l11 -32 -600 0 -599 0 20 40 c11 21 20 52 20 67 0 39 -53 154 -137 303
-142 251 -217 427 -276 650 -60 222 -57 144 -57 1601 l0 1339 24 113 c81 370
279 733 561 1025 126 132 222 212 382 319 303 202 647 331 1013 378 140 19
482 13 605 -9z m608 -1334 c85 -263 271 -520 472 -653 202 -134 398 -198 678
-221 l147 -12 0 -686 c-1 -726 -5 -806 -50 -1014 -62 -283 -215 -603 -401
-836 -217 -273 -537 -509 -867 -640 l-82 -33 1 -246 c0 -217 -2 -255 -20 -322
-65 -251 -261 -446 -506 -505 -93 -22 -250 -22 -335 0 -197 52 -365 189 -454
370 -61 124 -70 179 -70 459 l-1 247 -70 27 c-381 144 -743 435 -981 789 -177
265 -298 598 -333 916 -7 58 -11 340 -11 698 l0 600 64 0 c34 0 121 5 192 10
957 76 1746 387 2373 936 70 62 147 135 171 164 23 28 46 48 50 43 3 -4 19
-45 33 -91z m3729 -2851 c480 -88 868 -309 1177 -671 137 -159 258 -377 326
-584 49 -149 56 -203 53 -374 l-3 -153 -61 49 c-47 37 -90 59 -180 92 -302
111 -545 274 -866 581 -87 83 -184 166 -215 185 -109 66 -174 45 -405 -128
-169 -127 -297 -207 -464 -292 -394 -197 -859 -327 -1369 -381 -83 -8 -193
-20 -245 -26 -65 -6 -111 -17 -146 -34 -54 -26 -164 -134 -164 -160 0 -8 -4
-15 -10 -15 -5 0 -10 -9 -10 -20 0 -11 -4 -20 -10 -20 -6 0 -10 -66 -10 -179
0 -176 -9 -239 -31 -225 -6 3 -15 1 -19 -5 -23 -38 -128 166 -175 339 -23 88
-25 111 -25 316 0 239 14 351 65 530 99 340 387 692 710 866 l80 43 120 1 c79
1 151 9 210 22 50 11 142 28 205 37 160 22 196 31 357 91 165 61 340 107 468
123 50 6 101 13 115 15 65 12 420 -4 522 -23z m367 -1232 c334 -333 676 -548
1011 -635 l85 -22 0 -494 c0 -271 -4 -523 -8 -559 l-8 -66 -57 -28 c-75 -36
-122 -94 -157 -192 -97 -272 -166 -412 -282 -568 -80 -107 -200 -234 -303
-320 -86 -72 -290 -210 -367 -249 -242 -122 -366 -236 -348 -320 15 -71 16
-117 5 -152 -12 -35 -166 -272 -233 -357 -16 -21 -53 -54 -81 -73 -43 -29 -59
-34 -107 -34 -59 0 -98 19 -163 79 -31 29 -210 291 -245 358 -23 46 -27 112
-10 161 27 79 -64 188 -233 277 -195 103 -298 148 -345 149 -40 1 -49 -3 -75
-34 l-29 -35 28 -23 c83 -67 312 -181 448 -223 l75 -23 0 -43 0 -43 -285 0
c-280 0 -285 0 -285 -20 0 -12 9 -38 20 -59 30 -60 75 -74 240 -74 182 1 236
13 289 64 36 35 44 39 57 28 15 -12 354 -518 404 -603 l24 -39 -25 7 c-81 22
-300 27 -1119 23 -677 -2 -884 -6 -915 -16 -22 -7 -93 -37 -157 -67 -64 -30
-119 -54 -122 -54 -19 0 29 113 87 205 216 345 643 577 1103 602 l114 6 0 77
c0 42 -3 125 -7 183 l-6 106 -71 53 c-154 114 -346 332 -461 523 -136 226
-235 517 -264 780 -5 50 -10 309 -11 577 l0 486 62 6 c35 3 131 10 215 16 414
29 866 125 1230 260 206 77 475 213 648 328 142 95 305 223 369 291 l30 31 44
-52 c25 -29 111 -119 191 -199z m-231 -3597 c71 -45 76 -45 467 -52 420 -8
480 -15 615 -74 41 -17 107 -51 147 -74 83 -49 243 -195 243 -222 0 -11 5 -22
10 -25 19 -11 11 -51 -12 -63 -17 -9 -266 -13 -908 -16 -829 -3 -891 -5 -982
-23 -54 -11 -98 -17 -98 -15 0 12 324 505 395 602 l37 51 25 -33 c13 -18 41
-43 61 -56z M2425 7526 c-59 -27 -107 -72 -138 -130 -21 -39 -22 -53 -22 -261
0 -248 3 -262 82 -336 54 -52 98 -71 174 -77 56 -4 75 -1 120 20 74 34 113 69
143 130 25 51 26 56 26 263 0 207 0 212 -26 263 -65 131 -228 190 -359 128z
M4386 7535 c-47 -17 -104 -61 -134 -105 -45 -66 -54 -127 -50 -318 3 -170 4
-179 31 -234 91 -184 327 -213 461 -56 55 64 66 115 66 313 0 206 -11 255 -73
322 -77 84 -197 115 -301 78z M3314 6291 c-27 -12 -72 -66 -80 -97 -10 -40 6
-95 35 -125 42 -42 95 -51 265 -47 179 4 206 14 238 85 26 58 18 103 -27 151
l-33 37 -189 2 c-103 1 -197 -2 -209 -6z M2610 5392 c0 -14 71 -100 132 -158
152 -149 321 -231 547 -269 150 -25 399 -17 532 18 127 33 226 77 324 142 81
54 215 185 247 241 l16 29 -899 0 c-494 0 -899 -1 -899 -3z M6663 3380 c-84
-17 -152 -70 -190 -148 -28 -57 -28 -57 -28 -267 l0 -210 30 -53 c53 -97 132
-145 240 -146 119 -1 212 60 263 171 14 32 17 70 17 243 0 193 -1 208 -23 251
-58 119 -184 184 -309 159z M8318 3376 c-95 -26 -172 -100 -197 -189 -9 -29
-12 -107 -9 -243 3 -183 5 -202 25 -240 46 -86 155 -154 248 -154 98 0 208 72
251 165 23 47 24 61 24 255 0 195 -1 207 -24 255 -56 119 -196 185 -318 151z
M7483 2394 c-20 -10 -40 -32 -54 -60 -29 -60 -20 -106 31 -156 33 -33 44 -38
84 -38 87 0 146 55 146 135 0 104 -109 167 -207 119z M6720 1990 c0 -6 14 -39
31 -73 105 -208 292 -369 509 -435 157 -48 369 -52 540 -11 254 60 472 247
575 492 l15 37 -835 0 c-565 0 -835 -3 -835 -10z m1058 -226 c42 -6 52 -10 52
-25 0 -11 -7 -19 -15 -19 -8 0 -15 -4 -15 -9 0 -14 -180 -51 -248 -51 -68 0
-252 38 -252 52 0 4 -7 8 -15 8 -8 0 -15 9 -15 19 0 15 8 21 38 24 64 7 415 7
470 1z"/>
</g>
</svg>
