<?xml version="1.0" standalone="no"?>
<!DOCTYPE svg PUBLIC "-//W3C//DTD SVG 20010904//EN"
 "http://www.w3.org/TR/2001/REC-SVG-20010904/DTD/svg10.dtd">
<svg version="1.0" xmlns="http://www.w3.org/2000/svg"
 width="2048.000000pt" height="2048.000000pt" viewBox="0 0 2048.000000 2048.000000"
 preserveAspectRatio="xMidYMid meet">
<metadata>
Created by potrace 1.13, written by Peter Selinger 2001-2015
</metadata>
<g transform="translate(0.000000,2048.000000) scale(0.192120,-0.192120)"
fill="#000000" stroke="none">
<path d="M6120 10284 c-832 -111 -1607 -568 -2097 -1234 -149 -204 -302 -483
-397 -727 -108 -277 -186 -620 -222 -973 -34 -339 -28 -1578 12 -2102 29 -391
71 -679 129 -894 19 -69 35 -128 35 -130 0 -2 -597 -5 -1327 -7 -1190 -3
-1335 -5 -1393 -20 -174 -44 -280 -97 -371 -187 -114 -112 -154 -219 -152
-405 0 -93 6 -141 26 -215 13 -52 223 -642 465 -1310 242 -668 445 -1233 452
-1255 7 -22 24 -62 38 -90 110 -221 295 -356 542 -395 43 -6 1006 -10 2881
-10 l2817 0 -38 98 c-21 53 -277 770 -570 1592 -292 822 -540 1520 -552 1550
-131 339 -337 567 -564 625 -66 16 -153 21 -330 17 l-122 -2 9 -41 c5 -23 7
-49 4 -59 -14 -43 -33 -44 -815 -48 -410 -2 -778 -1 -818 3 -92 9 -106 21
-100 91 5 53 4 53 -26 57 -17 2 361 5 839 5 567 2 883 6 908 13 l37 10 0 63 0
62 -42 24 c-78 44 -243 175 -352 280 -312 301 -566 714 -702 1140 -15 47 -28
86 -28 87 -1 1 -20 -4 -41 -12 -175 -62 -373 70 -471 314 -55 136 -68 213 -68
401 0 156 3 185 26 271 50 184 140 328 249 399 97 62 192 74 288 34 l33 -14
65 70 c36 39 144 134 242 212 113 91 265 229 426 387 138 135 291 285 341 334
l91 89 92 -52 c250 -141 650 -316 901 -394 277 -86 434 -113 718 -126 232 -11
361 -27 519 -65 320 -77 613 -246 773 -447 l37 -47 34 23 c57 38 101 51 169
51 183 0 350 -182 422 -460 20 -78 23 -114 23 -270 -1 -212 -17 -290 -90 -444
-59 -122 -159 -226 -248 -259 -67 -26 -145 -28 -202 -6 -66 25 -65 26 -100
-81 -105 -326 -277 -643 -494 -912 -139 -173 -394 -406 -532 -486 -36 -21 -37
-22 -41 -96 -4 -52 -10 -76 -19 -79 -8 -3 -33 -24 -55 -47 -52 -54 -84 -145
-84 -241 0 -86 19 -115 95 -138 54 -18 55 -18 55 -57 0 -87 -69 -205 -163
-277 -99 -77 -290 -156 -430 -179 l-40 -6 8 44 c4 24 11 64 15 89 21 125 -51
309 -163 417 -72 70 -74 66 38 83 198 30 374 95 520 193 140 94 217 174 208
219 l-5 26 -151 -73 c-172 -83 -290 -125 -445 -160 -128 -29 -364 -53 -369
-38 -14 41 -69 105 -117 137 -149 99 -344 120 -418 46 -41 -42 -36 -50 30 -50
33 0 94 -9 137 -20 265 -68 463 -312 623 -770 28 -80 97 -273 152 -430 56
-157 245 -690 421 -1185 176 -495 323 -906 327 -913 6 -11 162 -14 832 -15
817 -2 825 -2 870 -23 25 -12 62 -39 84 -60 141 -141 90 -384 -93 -449 -41
-14 -42 -14 -90 20 -30 22 -69 39 -101 45 -32 6 -318 10 -720 10 l-667 0 -47
-25 c-26 -14 -64 -36 -84 -50 l-37 -25 1238 0 1237 0 0 1023 c0 1121 0 1120
-60 1299 -167 499 -667 908 -1309 1073 -245 63 -290 67 -776 72 l-450 5 0 214
c0 118 3 214 7 214 19 0 347 -109 612 -204 475 -169 630 -209 821 -210 158 -1
246 32 327 122 122 135 185 403 218 927 29 455 36 2193 11 2445 -53 514 -163
909 -368 1312 -220 434 -547 814 -947 1101 -414 297 -930 501 -1416 562 -154
19 -455 18 -600 -1z m460 -244 c561 -42 1134 -272 1595 -639 153 -122 362
-337 482 -496 221 -293 391 -662 485 -1050 51 -212 58 -273 58 -492 0 -131 -4
-213 -10 -213 -5 0 -25 24 -43 53 -49 76 -173 189 -248 226 -80 39 -155 52
-262 44 -97 -7 -109 -2 -212 83 -202 166 -430 279 -698 344 -155 38 -301 57
-547 70 -294 15 -493 56 -800 163 -198 70 -309 117 -550 234 -295 143 -332
153 -425 109 -79 -36 -142 -92 -415 -361 -245 -242 -621 -569 -700 -610 -19
-10 -73 -22 -120 -27 -47 -4 -106 -15 -132 -24 -107 -35 -237 -145 -305 -259
-47 -77 -83 -125 -94 -125 -5 0 -9 101 -9 224 0 179 4 248 20 341 137 799 536
1441 1172 1883 419 292 948 485 1428 521 154 12 182 12 330 1z m-2898 -3956
c150 -253 248 -340 430 -381 88 -20 103 -35 154 -151 191 -432 386 -725 676
-1016 93 -93 167 -174 165 -180 -11 -34 -44 -36 -678 -36 l-626 0 -20 23 c-52
56 -106 324 -148 729 -11 108 -15 269 -15 601 0 250 3 457 7 460 13 14 23 6
55 -49z m5528 -731 c0 -762 -3 -803 -55 -1021 -54 -223 -119 -282 -310 -282
-169 0 -262 27 -904 266 -97 36 -151 70 -151 93 0 6 54 66 121 132 279 280
466 565 664 1011 26 59 55 114 65 123 12 10 48 20 92 25 165 19 267 88 392
264 38 53 72 96 77 96 5 0 9 -297 9 -707z m-8360 -1440 c0 -10 -7 -31 -16 -48
-33 -63 -44 -112 -44 -200 0 -84 2 -94 41 -171 48 -99 138 -191 226 -232 l58
-27 2270 0 2270 0 67 33 c82 40 164 125 210 219 32 66 33 71 33 193 0 99 -4
132 -17 159 -10 19 -18 43 -18 53 0 27 25 11 86 -52 97 -101 158 -213 251
-460 78 -208 890 -2487 924 -2595 20 -62 29 -111 29 -158 l0 -67 -2672 3
c-2549 2 -2676 3 -2733 21 -148 44 -254 130 -317 257 -34 66 -858 2323 -908
2486 -17 55 -20 93 -20 254 l0 188 31 35 c36 42 81 71 158 102 68 28 91 30 91
7z m4846 -62 c84 -38 139 -149 116 -235 -23 -81 -81 -137 -162 -155 -66 -15
-4461 -15 -4531 0 -111 24 -185 140 -159 248 14 60 61 118 114 142 40 18 124
19 2311 19 2187 0 2271 -1 2311 -19z m2655 -321 c241 -25 461 -92 709 -217
323 -162 547 -364 663 -596 72 -144 67 -57 67 -1150 0 -895 -1 -988 -16 -994
-10 -4 -24 4 -39 21 -12 14 -27 26 -34 26 -6 0 -11 8 -11 18 0 23 -23 88 -58
165 -19 40 -55 90 -101 139 -85 90 -175 141 -281 158 -39 6 -338 10 -754 10
l-689 0 -36 38 c-44 46 -15 -31 -372 972 -315 882 -312 874 -329 939 -19 72
-10 85 84 129 142 67 240 144 336 266 16 21 45 50 62 63 l32 23 332 0 c182 0
378 -5 435 -10z M3410 3007 c-100 -34 -157 -72 -250 -166 -99 -100 -165 -215
-199 -345 -30 -115 -31 -461 -1 -583 52 -217 173 -454 315 -616 381 -436 848
-402 1080 78 80 165 79 162 83 437 3 229 2 254 -19 335 -92 365 -321 679 -594
812 -55 27 -124 54 -153 60 -87 18 -189 13 -262 -12z m303 -207 c221 -83 421
-325 515 -620 43 -137 57 -228 55 -370 -2 -205 -53 -355 -160 -470 -320 -346
-887 46 -999 690 -22 128 -15 324 16 430 53 183 156 304 299 352 73 24 193 19
274 -12z M5410 7020 c-56 -26 -96 -63 -123 -115 -18 -34 -22 -61 -25 -191 -5
-190 8 -244 73 -309 111 -112 287 -89 365 48 l30 52 0 178 c0 192 -5 216 -55
275 -61 73 -181 101 -265 62z M7290 7019 c-55 -25 -95 -62 -123 -114 -20 -37
-22 -55 -22 -220 0 -167 2 -183 22 -222 49 -91 162 -146 256 -124 72 16 130
61 161 123 25 50 26 58 26 227 -1 164 -2 179 -24 221 -55 109 -189 158 -296
109z M6180 5883 c-67 -19 -90 -56 -90 -144 0 -56 3 -64 34 -95 l34 -34 279 0
c305 0 307 0 338 60 23 44 20 132 -6 164 -38 49 -48 50 -319 52 -140 0 -262
-1 -270 -3z M5774 5315 c-101 -52 -138 -180 -78 -274 66 -102 309 -224 524
-262 96 -17 313 -17 410 0 165 29 330 97 445 184 90 67 125 142 104 220 -23
88 -98 146 -187 147 -46 0 -89 -18 -136 -57 -44 -37 -137 -80 -223 -105 -62
-17 -105 -22 -208 -22 -189 0 -316 39 -444 137 -47 36 -61 42 -115 44 -42 3
-71 -1 -92 -12z"/>
</g>
</svg>
