<?xml version="1.0" standalone="no"?>
<!DOCTYPE svg PUBLIC "-//W3C//DTD SVG 20010904//EN"
 "http://www.w3.org/TR/2001/REC-SVG-20010904/DTD/svg10.dtd">
<svg version="1.0" xmlns="http://www.w3.org/2000/svg"
 width="2048.000000pt" height="2048.000000pt" viewBox="0 0 2048.000000 2048.000000"
 preserveAspectRatio="xMidYMid meet">
<metadata>
Created by potrace 1.13, written by Peter Selinger 2001-2015
</metadata>
<g transform="translate(0.000000,2048.000000) scale(0.192120,-0.192120)"
fill="#000000" stroke="none">
<path d="M5090 10315 c-489 -64 -1007 -276 -1404 -575 -326 -244 -538 -502
-732 -890 -126 -252 -208 -468 -358 -953 -121 -387 -178 -522 -240 -562 -13
-9 -84 -31 -157 -49 -398 -99 -648 -275 -731 -513 -20 -59 -23 -87 -23 -213 0
-163 15 -239 72 -375 171 -410 677 -796 1390 -1060 l100 -38 12 -71 c60 -368
234 -805 448 -1130 118 -178 366 -466 401 -466 6 0 21 15 34 33 51 71 24 139
-142 362 -122 164 -170 238 -258 400 -101 185 -204 452 -251 646 -22 93 -54
174 -79 203 -25 27 -69 47 -121 55 -41 5 -46 10 -51 35 -4 24 -14 32 -60 49
-41 15 -73 38 -126 91 -85 85 -143 192 -182 335 -23 85 -26 116 -26 271 -1
203 17 293 83 436 41 86 118 196 150 214 16 8 20 1 36 -58 44 -161 148 -312
214 -312 54 0 70 28 102 179 35 161 155 496 208 580 8 13 73 7 443 -38 774
-95 899 -107 1251 -121 450 -18 761 3 1601 106 247 31 452 52 456 47 4 -4 90
-170 191 -368 199 -390 229 -435 293 -435 68 0 131 103 167 276 33 151 28 147
83 75 60 -78 117 -201 147 -316 20 -77 24 -114 24 -260 -1 -202 -19 -293 -90
-443 -57 -120 -158 -227 -245 -259 -49 -18 -55 -24 -58 -52 -3 -27 -7 -31 -31
-31 -65 0 -129 -37 -157 -93 -9 -15 -46 -117 -84 -225 -87 -251 -218 -581
-270 -680 -46 -88 -145 -229 -270 -384 -59 -73 -92 -125 -105 -161 l-18 -55
24 -48 c13 -26 30 -50 37 -52 32 -10 277 272 405 464 213 323 388 763 448
1129 l11 70 152 59 c690 267 1165 635 1336 1034 60 141 75 216 75 382 -1 125
-4 154 -24 210 -86 242 -330 416 -727 516 -74 18 -143 38 -154 44 -57 31 -110
142 -201 425 -227 705 -273 832 -405 1094 -171 343 -366 594 -629 812 -285
236 -600 406 -992 535 -348 115 -700 158 -993 119z m-99 -147 c60 -21 82 -22
334 -23 254 0 274 1 343 23 l72 23 49 -26 c141 -77 424 -335 575 -525 165
-208 298 -444 337 -598 19 -75 19 -106 17 -673 l-3 -594 -33 -67 c-37 -76 -92
-129 -151 -146 -55 -17 -2347 -17 -2402 0 -59 17 -114 70 -151 146 l-33 67 -3
594 c-2 570 -2 598 18 675 38 153 171 387 336 596 88 110 328 349 424 422 73
55 187 128 201 128 3 0 35 -10 70 -22z m1632 -509 c56 -29 242 -160 332 -234
272 -223 457 -483 625 -876 73 -171 135 -346 241 -679 102 -320 155 -460 198
-523 89 -130 208 -200 421 -247 288 -65 461 -142 570 -255 l35 -36 -85 40
c-303 142 -790 181 -1515 121 -239 -20 -214 -22 -225 19 -14 53 -45 99 -82
121 -51 31 -158 26 -598 -30 -530 -66 -701 -80 -1055 -87 -488 -9 -744 8
-1445 99 -435 56 -566 63 -617 35 -35 -19 -77 -83 -88 -134 -6 -31 -7 -32 -53
-27 -275 26 -694 38 -898 25 -315 -20 -522 -64 -688 -146 l-89 -43 39 39 c49
50 154 121 231 155 94 42 153 61 320 99 354 81 438 169 578 610 195 613 256
779 376 1018 150 301 326 523 574 722 161 130 345 242 345 210 0 -12 -46 -104
-76 -150 -49 -77 -151 -293 -174 -365 -19 -62 -20 -92 -20 -738 l0 -673 34
-73 c64 -139 155 -235 266 -282 43 -18 91 -19 1190 -22 829 -2 1161 0 1205 8
121 24 220 101 286 223 72 131 67 81 68 821 l1 669 -31 91 c-31 88 -108 252
-153 325 -42 68 -86 152 -86 167 0 17 14 18 43 3z m1243 -2811 c-4 -68 -13
-157 -19 -198 l-12 -75 -51 -6 c-29 -4 -58 -10 -65 -15 -19 -12 -81 -34 -98
-34 -30 0 -91 94 -128 201 l-24 71 22 33 c22 31 25 32 108 38 47 4 87 11 89
17 2 5 12 10 22 10 10 0 20 3 22 8 2 6 124 69 137 71 2 1 1 -54 -3 -121z
m-4986 81 c30 -13 57 -27 58 -31 2 -4 17 -8 33 -8 16 0 29 -4 29 -9 0 -5 19
-12 43 -16 23 -4 48 -12 55 -17 32 -27 -4 -176 -55 -230 -21 -22 -32 -26 -57
-22 -17 3 -55 8 -84 11 -63 6 -65 9 -87 146 -19 116 -20 211 -2 204 6 -3 37
-16 67 -28z m-210 -199 l0 -71 -66 -77 c-77 -89 -150 -231 -183 -358 -17 -64
-21 -110 -21 -230 0 -195 -7 -251 -31 -257 -11 -3 -19 -14 -19 -26 0 -12 -4
-21 -9 -21 -13 0 -178 110 -246 165 -151 121 -262 250 -327 382 l-43 86 0 151
0 151 48 32 c124 83 424 137 785 142 l112 1 0 -70z m5635 60 c282 -21 487 -67
575 -131 l40 -29 0 -150 c0 -177 -10 -212 -99 -347 -90 -136 -231 -267 -426
-397 -94 -62 -100 -65 -103 -44 -2 13 -11 31 -20 42 -14 15 -18 53 -23 235 -7
227 -12 258 -63 381 -48 113 -81 164 -167 257 -38 41 -39 43 -39 117 l0 76 93
0 c50 0 155 -5 232 -10z M4120 6423 c-27 -10 -65 -37 -96 -68 -74 -74 -84
-114 -84 -330 0 -203 10 -250 71 -319 63 -72 107 -91 209 -91 74 0 91 3 130
27 60 35 94 72 122 133 22 47 23 62 23 250 0 199 0 200 -28 257 -64 131 -208
189 -347 141z M6344 6424 c-60 -21 -119 -77 -151 -142 -28 -57 -28 -58 -28
-262 0 -203 0 -205 27 -256 28 -53 76 -102 131 -131 23 -13 55 -18 117 -18
102 0 146 19 209 91 61 69 71 116 71 319 0 216 -10 256 -83 330 -80 80 -190
106 -293 69z M5050 5249 c-82 -33 -134 -111 -134 -199 0 -60 17 -100 60 -144
61 -60 65 -61 354 -61 289 0 293 1 354 61 43 44 60 84 60 144 1 70 -33 133
-92 175 l-44 30 -266 2 c-162 1 -277 -2 -292 -8z M4384 4260 c-51 -11 -98 -46
-123 -90 -31 -55 -27 -140 9 -189 72 -102 316 -194 630 -238 178 -25 682 -25
860 0 242 34 432 92 547 166 80 52 106 90 111 163 5 71 -8 107 -59 152 -64 59
-149 61 -226 6 -149 -107 -572 -168 -985 -142 -303 19 -490 60 -616 135 -63
38 -101 48 -148 37z M3674 3392 c-20 -13 -37 -35 -45 -59 -16 -46 -15 -159 1
-236 10 -52 14 -57 38 -57 74 0 162 60 162 109 0 11 5 23 11 26 5 4 14 17 19
30 25 67 229 23 420 -91 97 -58 207 -168 263 -264 31 -53 37 -74 37 -120 0
-109 69 -418 116 -517 27 -56 50 -77 98 -89 26 -6 28 -5 22 12 -18 44 -88 305
-140 519 -78 319 -132 428 -259 521 -82 61 -256 144 -395 188 -147 47 -299 59
-348 28z M6720 3399 c-198 -53 -363 -123 -487 -205 -158 -105 -201 -190 -307
-609 -42 -165 -89 -340 -105 -390 -16 -49 -28 -91 -27 -92 1 -2 17 2 36 7 84
24 117 96 184 396 20 88 36 187 36 220 0 51 5 67 33 109 123 186 155 221 257
282 73 44 207 98 290 117 56 13 120 11 120 -5 0 -4 11 -20 25 -35 14 -15 25
-35 25 -45 0 -26 41 -85 73 -104 15 -9 51 -17 79 -18 l52 -2 8 40 c11 61 9
195 -3 240 -6 21 -26 54 -44 72 -33 33 -34 33 -121 32 -49 0 -105 -5 -124 -10z
M3043 3101 c-49 -13 -118 -57 -153 -98 -63 -77 -60 -12 -60 -1405 l0 -1268
2500 0 2500 0 0 1268 c0 1406 4 1329 -66 1410 -20 24 -59 55 -88 70 -51 27
-52 27 -261 27 -200 0 -212 -1 -257 -23 -26 -13 -65 -44 -87 -68 -76 -86 -71
8 -71 -1391 0 -804 -3 -1253 -10 -1253 -5 0 -51 27 -102 61 -51 33 -105 63
-120 66 -15 3 -28 9 -28 14 0 5 -615 9 -1420 9 -781 0 -1420 -4 -1420 -8 0 -4
-15 -13 -32 -20 -18 -7 -71 -39 -118 -73 l-85 -61 -5 1274 -5 1273 -23 47
c-13 26 -41 63 -64 83 -70 64 -91 69 -303 72 -104 1 -204 -2 -222 -6z m335
-307 l22 -4 0 -1090 0 -1090 -149 0 -148 0 -7 40 c-3 22 -11 40 -16 40 -11 0
-13 1780 -2 1968 6 99 10 115 27 125 34 20 198 27 273 11z m4170 -10 l22 -14
0 -1040 c0 -678 -3 -1040 -10 -1040 -5 0 -13 -18 -16 -40 l-7 -40 -148 0 -149
0 0 1084 c0 849 3 1086 12 1092 37 23 259 21 296 -2z M4675 2882 c28 -26 61
-60 74 -75 l24 -27 -22 -24 c-13 -14 -20 -29 -17 -34 8 -14 146 -49 267 -69
72 -11 170 -16 319 -17 225 -1 332 10 482 46 78 19 86 23 78 39 -18 32 -12 88
11 107 12 9 37 31 58 49 l36 32 -112 -29 c-222 -58 -278 -64 -543 -65 -272 0
-364 13 -594 81 l-111 32 50 -46z M2721 2504 c-165 -34 -381 -128 -536 -232
-374 -252 -623 -626 -716 -1078 -21 -99 -23 -143 -27 -486 l-3 -378 678 0 678
0 -48 34 c-73 52 -134 112 -140 138 -4 15 1 38 13 60 l19 36 -37 6 c-20 3
-274 6 -564 6 l-526 0 19 50 c24 63 24 107 0 169 l-18 49 45 6 c25 3 276 6
558 6 283 0 514 4 514 8 0 5 -20 18 -44 30 -42 22 -52 22 -450 22 -264 0 -406
3 -406 10 0 6 -17 10 -39 10 -54 0 -98 34 -138 105 -18 33 -33 66 -33 73 0 9
119 12 558 13 306 0 580 4 607 8 l50 7 -51 49 c-66 64 -80 75 -99 75 -8 0 -15
5 -15 10 0 6 -124 10 -352 10 -343 0 -352 1 -399 23 -48 22 -48 23 -49 70 0
50 16 90 93 222 135 234 374 449 621 560 47 22 86 45 86 51 0 7 8 15 18 19 30
11 214 237 201 249 -2 2 -33 -3 -68 -10z M7870 2513 c0 -3 16 -29 36 -59 49
-73 161 -186 206 -207 21 -10 41 -24 45 -31 4 -7 41 -30 82 -51 134 -67 242
-146 362 -265 130 -129 211 -243 271 -383 43 -99 48 -147 18 -177 -19 -19 -33
-20 -375 -20 -230 0 -355 -4 -355 -10 0 -5 -20 -10 -45 -10 -25 0 -45 -4 -45
-8 0 -4 -15 -14 -34 -20 -19 -7 -51 -32 -72 -55 l-39 -42 50 -7 c28 -3 301 -7
608 -7 374 -1 557 -4 557 -11 0 -21 -59 -126 -85 -153 -15 -15 -36 -27 -46
-27 -11 0 -19 -4 -19 -9 0 -6 -179 -11 -437 -13 l-438 -4 -45 -24 -45 -25 560
-6 c308 -3 561 -6 562 -7 0 -1 -7 -25 -18 -52 -24 -64 -24 -107 1 -170 l20
-50 -513 0 c-281 0 -536 -3 -565 -7 l-53 -6 23 -24 c24 -26 29 -94 7 -102 -7
-2 -31 -20 -53 -40 -23 -21 -61 -51 -85 -69 l-45 -32 678 0 677 0 -3 377 c-5
420 -12 481 -83 699 -163 497 -573 907 -1065 1062 -93 30 -200 54 -200 45z
M4840 2076 c0 -29 463 -1127 472 -1118 18 19 463 1090 455 1098 -2 2 -35 -7
-73 -19 -119 -41 -199 -52 -369 -52 -192 1 -307 23 -467 90 -10 4 -18 5 -18 1z
m517 -383 c8 -21 -18 -93 -38 -106 -21 -13 -41 5 -59 55 -19 53 -9 68 45 68
33 0 47 -4 52 -17z"/>
</g>
</svg>
