<?xml version="1.0" standalone="no"?>
<!DOCTYPE svg PUBLIC "-//W3C//DTD SVG 20010904//EN"
 "http://www.w3.org/TR/2001/REC-SVG-20010904/DTD/svg10.dtd">
<svg version="1.0" xmlns="http://www.w3.org/2000/svg"
 width="2048.000000pt" height="2048.000000pt" viewBox="0 0 2048.000000 2048.000000"
 preserveAspectRatio="xMidYMid meet">
<metadata>
Created by potrace 1.13, written by Peter Selinger 2001-2015
</metadata>
<g transform="translate(0.000000,2048.000000) scale(0.192120,-0.192120)"
fill="#000000" stroke="none">
<path d="M4950 10039 c-835 -63 -1543 -321 -2111 -770 -132 -103 -371 -343
-477 -477 -329 -415 -539 -903 -619 -1437 -24 -164 -24 -642 0 -862 28 -249
79 -504 120 -603 l14 -32 27 34 c22 30 26 45 26 104 0 39 -12 135 -27 214
l-28 145 0 555 0 555 37 145 c131 517 385 958 773 1345 377 376 891 662 1465
815 372 100 714 142 1150 143 295 0 437 -10 678 -49 950 -152 1774 -649 2318
-1399 178 -244 293 -467 413 -801 99 -273 101 -293 101 -837 0 -394 -3 -488
-20 -641 -30 -273 -27 -326 27 -361 12 -9 23 -13 23 -9 0 3 9 51 20 106 72
352 102 1106 56 1403 -157 1007 -939 1951 -1992 2404 -406 175 -814 274 -1278
311 -150 12 -530 11 -696 -1z M3290 7476 c-475 -409 -827 -1037 -995 -1776
-44 -194 -65 -229 -135 -230 -47 0 -90 28 -141 92 -35 45 -100 166 -122 231
-4 9 -11 17 -17 17 -6 0 -53 -42 -104 -92 -131 -130 -209 -269 -270 -481 -47
-163 -60 -258 -60 -462 0 -204 13 -299 60 -462 96 -333 291 -568 519 -628 32
-8 59 -16 60 -17 1 -2 10 -43 19 -93 9 -49 35 -157 56 -240 183 -711 527
-1333 1000 -1805 492 -493 1071 -789 1740 -891 136 -21 190 -24 435 -23 307 0
442 14 690 74 1058 252 1906 1056 2341 2219 66 176 143 441 180 621 15 74 28
136 29 138 1 1 28 9 60 17 92 24 173 73 256 155 389 385 440 1243 104 1750
-43 65 -148 177 -161 173 -4 -1 -18 -39 -31 -84 -60 -209 -154 -314 -246 -276
-81 34 -102 70 -422 708 l-304 606 -183 7 c-555 21 -1096 108 -1468 234 -217
74 -364 148 -489 248 -42 34 -77 61 -78 60 -2 -1 24 -60 56 -132 100 -220 162
-438 147 -519 -9 -45 -46 -85 -80 -85 -121 0 -418 217 -778 569 -98 96 -180
172 -183 170 -2 -3 0 -22 5 -44 14 -61 12 -166 -5 -223 -64 -214 -304 -196
-716 54 -160 96 -407 276 -586 426 -45 37 -85 68 -90 68 -4 0 -46 -33 -93 -74z
m169 -227 c18 -11 87 -61 153 -111 376 -284 694 -443 909 -456 118 -6 172 11
286 93 54 39 100 65 115 65 27 0 42 -10 236 -172 243 -202 420 -298 547 -298
49 0 126 43 183 101 74 75 102 149 102 269 0 49 3 58 15 54 9 -4 15 0 15 8 0
10 33 3 128 -28 344 -113 796 -192 1292 -224 214 -14 227 -18 289 -85 40 -45
84 -122 217 -388 224 -447 365 -676 462 -757 59 -49 130 -80 183 -80 60 0 98
16 184 79 38 28 74 51 80 51 40 0 89 -81 131 -215 17 -53 19 -95 19 -355 l0
-295 -38 -110 c-54 -155 -106 -260 -163 -330 -62 -76 -72 -85 -170 -145 -87
-53 -191 -155 -224 -219 -10 -21 -29 -76 -40 -122 -87 -349 -87 -350 -214
-654 -37 -88 -91 -219 -121 -291 -94 -231 -158 -343 -325 -574 -137 -188 -237
-296 -434 -465 -409 -352 -796 -560 -1254 -674 -237 -60 -418 -81 -692 -81
-274 0 -451 21 -695 81 -378 93 -750 274 -1065 517 -238 185 -390 336 -555
552 -140 184 -226 323 -344 552 -158 306 -248 547 -339 911 -27 105 -58 210
-69 232 -38 74 -139 171 -244 236 -149 92 -235 198 -298 369 -48 131 -51 161
-51 492 0 307 1 316 26 403 26 92 79 202 117 243 32 35 72 29 136 -22 81 -62
137 -88 196 -90 65 -1 110 22 179 91 76 77 108 144 156 328 116 448 271 794
503 1125 98 141 202 265 291 348 60 56 71 62 109 62 25 0 56 -8 76 -21z M3855
5593 c-68 -25 -107 -54 -144 -109 -48 -73 -53 -120 -49 -466 4 -349 4 -351 76
-430 108 -120 296 -118 409 5 71 77 74 103 71 484 l-3 328 -30 53 c-67 123
-206 179 -330 135z M6659 5604 c-82 -15 -184 -114 -209 -202 -6 -22 -10 -167
-10 -348 0 -358 4 -387 73 -461 113 -123 301 -125 409 -5 74 82 73 76 73 462
0 380 0 377 -65 460 -54 68 -176 110 -271 94z M4959 3646 c-112 -40 -181 -141
-181 -263 0 -114 74 -221 180 -257 38 -13 103 -16 372 -16 364 0 385 3 458 66
153 131 114 380 -72 465 -38 17 -69 19 -381 18 -252 0 -349 -3 -376 -13z m645
-205 c70 -12 86 -47 42 -98 l-24 -28 -295 0 -295 0 -26 24 c-47 44 -32 87 35
100 56 11 498 12 563 2z M6638 2546 c-21 -8 -48 -21 -60 -30 -13 -9 -38 -28
-56 -41 -109 -79 -426 -155 -777 -186 -168 -14 -663 -14 -830 0 -376 33 -657
104 -799 201 -72 49 -123 64 -201 57 -236 -18 -336 -311 -163 -473 247 -233
901 -368 1703 -351 574 12 967 85 1274 234 186 91 271 193 271 327 0 146 -133
277 -279 276 -25 -1 -63 -7 -83 -14z m120 -222 c18 -5 22 -13 22 -49 0 -61
-32 -94 -143 -149 -163 -80 -437 -146 -759 -183 -197 -22 -854 -25 -1053 -5
-567 59 -993 212 -959 346 13 52 109 46 234 -14 212 -103 466 -163 800 -189
237 -19 455 -22 670 -12 457 23 708 73 959 191 144 67 180 77 229 64z"/>
</g>
</svg>
