<?xml version="1.0" standalone="no"?>
<!DOCTYPE svg PUBLIC "-//W3C//DTD SVG 20010904//EN"
 "http://www.w3.org/TR/2001/REC-SVG-20010904/DTD/svg10.dtd">
<svg version="1.0" xmlns="http://www.w3.org/2000/svg"
 width="2048.000000pt" height="2048.000000pt" viewBox="0 0 2048.000000 2048.000000"
 preserveAspectRatio="xMidYMid meet">
<metadata>
Created by potrace 1.13, written by Peter Selinger 2001-2015
</metadata>
<g transform="translate(0.000000,2048.000000) scale(0.192120,-0.192120)"
fill="#000000" stroke="none">
<path d="M5085 10043 c-697 -59 -1402 -305 -2045 -715 -444 -284 -876 -688
-1194 -1117 -587 -792 -906 -1759 -956 -2891 -21 -473 -10 -1656 20 -2275 70
-1419 286 -2219 648 -2397 57 -28 78 -33 162 -36 243 -10 535 63 1175 295 487
177 971 334 1060 345 11 1 99 -37 195 -84 188 -94 369 -160 563 -207 236 -57
317 -66 617 -66 293 0 372 8 600 61 233 54 478 148 680 260 l81 45 132 -37
c194 -53 518 -160 902 -299 726 -262 909 -309 1205 -310 142 0 186 3 235 18
265 81 405 300 490 762 75 413 99 860 116 2190 13 1011 7 1719 -16 1995 -133
1583 -830 2848 -2025 3675 -625 432 -1399 719 -2120 784 -105 10 -429 12 -525
4z m635 -308 c668 -84 1354 -350 1925 -748 798 -556 1358 -1325 1639 -2254
115 -379 187 -766 221 -1180 28 -343 17 -2677 -15 -3303 -41 -779 -135 -1192
-296 -1302 -66 -45 -144 -62 -279 -61 -179 1 -368 38 -650 130 -142 46 -829
289 -897 317 -43 18 -68 41 -68 63 0 8 47 60 104 114 221 211 412 440 591 709
153 230 225 356 336 585 255 526 426 1114 494 1700 20 177 20 529 0 627 -39
182 -134 406 -242 567 -287 426 -748 727 -1338 874 -243 61 -418 84 -740 98
-440 18 -709 66 -1110 196 -331 107 -588 215 -1016 424 -265 130 -337 161
-382 166 -147 15 -185 -13 -712 -537 -352 -349 -474 -463 -670 -626 -261 -217
-439 -388 -531 -514 -120 -165 -208 -361 -254 -567 -17 -80 -20 -128 -20 -340
0 -393 56 -763 181 -1203 114 -403 309 -869 491 -1174 234 -390 411 -620 700
-910 98 -98 178 -186 178 -195 0 -20 -29 -46 -61 -56 -13 -4 -37 -13 -54 -21
-38 -17 -365 -133 -660 -236 -389 -135 -614 -188 -794 -188 -158 0 -215 38
-305 203 -139 255 -235 727 -308 1512 -21 219 -22 294 -26 1620 -3 1010 0
1419 8 1495 90 816 327 1513 717 2109 710 1084 1953 1821 3248 1925 103 8 474
-4 595 -19z m-1648 -2534 c368 -206 826 -408 1227 -541 447 -149 830 -220
1189 -220 219 0 490 -34 721 -91 446 -110 863 -344 1097 -617 195 -227 308
-476 344 -754 17 -134 -24 -527 -91 -863 -220 -1113 -779 -2066 -1556 -2649
-67 -50 -155 -111 -197 -135 l-76 -43 -37 30 c-79 62 -104 62 -249 6 -220 -84
-423 -139 -664 -180 -283 -47 -636 -45 -938 6 -224 38 -352 75 -686 197 -86
31 -124 27 -177 -21 -21 -20 -42 -36 -47 -36 -14 0 -143 79 -230 142 -882 636
-1503 1774 -1661 3048 -38 304 -44 435 -27 567 22 166 58 290 120 418 101 206
238 356 571 625 249 202 322 270 805 754 234 234 428 426 432 426 4 0 63 -31
130 -69z M3857 5316 c-98 -35 -166 -111 -187 -210 -8 -33 -10 -157 -8 -361 l3
-310 28 -57 c87 -177 304 -212 444 -73 80 80 83 99 83 470 0 371 -3 390 -83
470 -79 78 -184 105 -280 71z M6620 5313 c-26 -9 -66 -38 -96 -68 -81 -80 -84
-99 -84 -470 0 -361 4 -383 76 -463 131 -147 363 -113 451 66 l28 57 0 340 c0
324 -1 342 -21 385 -30 65 -70 107 -128 137 -65 33 -161 40 -226 16z M4969
3929 c-19 -6 -57 -27 -84 -47 -164 -124 -137 -380 50 -468 50 -24 53 -24 395
-24 342 0 345 0 395 24 207 98 212 393 8 496 l-48 25 -340 2 c-195 1 -355 -3
-376 -8z m674 -222 c30 -19 33 -33 16 -71 -21 -46 -53 -51 -339 -51 -289 0
-312 4 -337 57 -17 33 -9 53 25 67 47 18 71 19 342 18 236 -2 269 -4 293 -20z
M4396 2810 c-57 -22 -119 -78 -149 -135 -30 -55 -31 -182 -2 -240 58 -119 289
-269 543 -354 182 -61 291 -76 542 -76 249 0 357 15 541 75 248 81 486 236
544 355 30 59 28 175 -3 235 -32 60 -68 97 -123 125 -109 56 -209 41 -329 -50
-175 -133 -365 -189 -635 -189 -281 1 -440 53 -668 219 -81 58 -170 70 -261
35z m165 -252 c18 -6 79 -38 134 -70 118 -69 218 -109 347 -140 80 -19 121
-22 288 -22 166 0 209 3 286 22 127 30 226 70 350 141 106 61 180 88 209 77 9
-3 15 -18 15 -35 0 -41 -56 -92 -162 -147 -171 -88 -315 -130 -513 -150 -68
-6 -306 -6 -390 1 -305 25 -737 234 -665 320 15 18 55 19 101 3z"/>
</g>
</svg>
