<?xml version="1.0" standalone="no"?>
<!DOCTYPE svg PUBLIC "-//W3C//DTD SVG 20010904//EN"
 "http://www.w3.org/TR/2001/REC-SVG-20010904/DTD/svg10.dtd">
<svg version="1.0" xmlns="http://www.w3.org/2000/svg"
 width="2048.000000pt" height="2048.000000pt" viewBox="0 0 2048.000000 2048.000000"
 preserveAspectRatio="xMidYMid meet">
<metadata>
Created by potrace 1.13, written by Peter Selinger 2001-2015
</metadata>
<g transform="translate(0.000000,2048.000000) scale(0.192120,-0.192120)"
fill="#000000" stroke="none">
<path d="M6233 9600 c-148 -12 -288 -36 -449 -75 -612 -150 -1170 -480 -1582
-935 -400 -441 -665 -999 -771 -1625 -51 -297 -54 -354 -58 -1045 l-4 -655 56
-29 c103 -53 197 -184 224 -314 16 -76 14 -232 -5 -312 -16 -73 -65 -164 -117
-218 -32 -33 -95 -77 -101 -71 -12 13 -46 91 -46 105 0 9 20 53 44 97 76 141
94 251 60 368 -15 50 -66 147 -84 159 -5 3 -19 26 -33 52 -25 48 -26 65 -3
136 7 20 2 25 -37 42 -114 50 -123 51 -945 48 l-767 -3 -81 -27 c-205 -70
-323 -205 -360 -410 -36 -198 19 -391 145 -511 86 -83 205 -135 346 -152 l55
-7 0 -694 0 -694 -581 -726 c-319 -399 -603 -758 -629 -798 -153 -227 -201
-388 -166 -556 42 -197 164 -326 374 -393 l67 -22 2232 -3 2232 -2 -239 356
-239 356 39 62 c171 273 437 728 427 731 -7 2 -124 38 -262 80 -137 42 -258
79 -267 81 -13 4 -18 15 -18 38 0 45 58 947 66 1016 l5 55 -121 -7 c-451 -27
-910 -191 -1233 -441 -73 -57 -78 -62 -56 -68 43 -12 153 -9 203 6 26 8 143
62 260 119 116 58 255 121 308 140 176 64 408 98 408 61 0 -8 9 -15 19 -15 19
0 20 -13 23 -432 l3 -433 29 -50 c48 -82 108 -130 210 -170 50 -19 95 -35 99
-35 5 0 24 -7 43 -16 60 -29 48 -76 -73 -284 -27 -47 -70 -122 -96 -166 -26
-45 -59 -111 -73 -145 -48 -118 -24 -231 88 -404 71 -112 118 -202 118 -229 0
-39 -31 -48 -199 -57 -131 -7 -172 -13 -256 -39 -119 -37 -252 -70 -280 -70
-12 1 2 12 35 28 75 37 170 129 208 200 61 114 87 296 57 398 -45 155 -106
243 -609 872 -232 290 -453 568 -491 617 -38 50 -72 92 -76 95 -4 3 -50 59
-103 125 l-96 120 0 698 0 697 23 0 c48 1 163 31 223 59 l63 29 5 -41 c42
-336 69 -486 122 -671 42 -147 117 -303 179 -373 27 -31 68 -63 101 -79 49
-24 67 -27 143 -26 169 3 337 46 746 192 241 86 670 230 686 230 5 0 9 -91 9
-220 l0 -220 54 -178 c146 -477 540 -2027 651 -2560 l7 -32 301 0 302 0 33
148 c174 765 477 1951 618 2420 l64 212 0 210 c0 146 3 210 11 210 24 0 289
-88 591 -196 348 -125 517 -177 647 -200 103 -18 272 -20 332 -4 252 68 353
315 399 975 28 404 42 2132 20 2426 -91 1196 -633 2107 -1583 2664 -492 287
-1128 446 -1624 405z m367 -260 c573 -52 1151 -295 1607 -678 458 -383 776
-904 918 -1504 20 -88 25 -133 25 -245 l0 -138 -75 82 c-80 86 -174 155 -265
192 -30 13 -104 49 -165 81 -162 86 -183 90 -505 96 -186 3 -351 13 -510 29
-129 14 -338 29 -465 35 -494 22 -781 103 -1378 392 -270 130 -308 139 -402
94 -78 -39 -124 -78 -346 -292 -250 -242 -250 -242 -462 -259 -176 -15 -211
-24 -332 -89 -44 -23 -123 -59 -176 -79 -52 -21 -117 -51 -144 -68 -72 -45
-162 -135 -210 -210 -24 -37 -48 -70 -55 -74 -9 -6 -11 37 -7 186 6 217 16
272 103 534 134 403 337 734 644 1049 235 241 466 409 772 563 468 234 981
343 1428 303z m-1052 -1705 c113 -65 448 -225 592 -283 283 -114 578 -197 800
-226 63 -8 189 -17 280 -20 149 -5 405 -37 419 -53 4 -3 -41 -3 -99 1 -58 4
-247 11 -420 16 -173 5 -367 14 -430 20 -481 44 -600 51 -965 57 -467 7 -561
0 -755 -56 -74 -22 -137 -37 -140 -34 -6 6 620 622 633 623 4 0 43 -20 85 -45z
m2129 -591 c-3 -3 -12 -4 -19 -1 -8 3 -5 6 6 6 11 1 17 -2 13 -5z m835 -77
c68 -33 123 -92 138 -146 7 -27 10 -246 8 -678 l-3 -638 -25 -49 c-115 -227
-482 -376 -985 -402 -229 -12 -371 18 -700 146 -228 88 -334 118 -455 126
-153 11 -261 -14 -568 -132 -340 -131 -479 -156 -743 -136 -278 22 -476 70
-657 158 -135 66 -225 146 -270 240 l-27 59 -3 623 c-1 407 1 637 8 662 24 90
105 169 194 191 17 4 931 6 2031 6 l2000 -2 57 -28z m-4303 -73 c2 -2 -16 -25
-39 -51 -23 -26 -51 -68 -62 -93 -12 -25 -25 -53 -29 -62 -5 -10 -9 -243 -9
-518 l0 -500 29 -65 c16 -35 41 -79 55 -98 41 -53 36 -61 -34 -54 -314 33
-515 558 -389 1018 59 217 209 400 350 428 39 8 117 5 128 -5z m4637 -26 c66
-32 162 -139 206 -228 217 -434 72 -1075 -266 -1175 -27 -8 -62 -15 -78 -15
l-28 0 44 64 c24 35 54 90 65 122 21 56 22 66 19 558 l-3 501 -28 54 c-16 29
-49 75 -73 102 -43 45 -44 48 -22 51 40 6 117 -10 164 -34z m-5178 -1209 c133
-220 169 -256 370 -378 43 -26 83 -81 109 -150 211 -575 412 -914 746 -1258
81 -83 147 -158 147 -167 0 -26 -50 -52 -235 -121 -532 -199 -778 -257 -889
-211 -40 17 -85 69 -120 141 -55 113 -128 425 -157 672 l-11 94 55 112 c31 62
63 136 71 166 21 71 22 353 2 426 -19 73 -93 218 -127 251 l-29 28 0 221 c0
269 4 279 68 174z m5502 -1867 c-47 -274 -91 -371 -189 -415 -85 -38 -262 -24
-476 38 -77 23 -511 176 -635 225 -52 20 -100 54 -100 71 0 4 60 69 134 143
74 75 174 189 222 253 48 65 100 134 114 153 93 123 261 450 360 699 33 85 70
171 82 190 37 62 89 109 180 163 92 54 170 125 237 218 21 30 50 68 63 85 l23
29 3 -864 c2 -835 1 -869 -18 -988z m-4755 1353 c84 -83 160 -126 270 -154
388 -97 738 -106 1035 -25 127 35 133 38 270 159 121 106 215 135 443 135 162
0 257 -17 326 -56 42 -24 145 -106 181 -144 43 -45 281 -119 450 -140 219 -27
626 11 824 76 94 31 211 124 305 244 24 30 41 46 38 35 -3 -11 -15 -56 -27
-100 -53 -196 -198 -513 -324 -713 -183 -289 -426 -547 -683 -726 -69 -48 -82
-62 -86 -89 -3 -28 -5 -29 -11 -10 -8 20 -13 19 -149 -47 -295 -143 -575 -210
-873 -210 -438 0 -887 167 -1255 466 -212 173 -447 452 -591 704 -132 230
-282 607 -313 785 -7 39 -5 37 46 -40 29 -44 85 -112 124 -150z m-1201 -109
c69 -21 115 -60 144 -125 54 -118 25 -289 -60 -354 -64 -49 -105 -57 -294 -57
l-174 0 0 -884 0 -884 212 -264 c251 -312 280 -348 288 -348 3 0 22 16 43 36
51 50 77 42 171 -49 82 -81 614 -743 698 -870 134 -200 171 -327 134 -462 -29
-109 -88 -186 -184 -238 -108 -59 -60 -57 -1770 -57 -1363 0 -1575 2 -1631 15
-210 50 -338 233 -301 430 13 70 78 214 132 293 76 113 435 570 612 781 80 95
148 151 183 151 13 0 37 -7 53 -15 28 -15 29 -15 83 48 29 34 143 174 252 310
l198 248 -6 492 c-4 271 -7 664 -7 875 l0 382 -97 0 c-151 1 -275 15 -320 39
-83 42 -133 134 -133 246 0 122 58 217 153 254 50 19 78 20 813 20 628 1 769
-1 808 -13z m4226 -1466 c0 -28 -4 -40 -14 -40 -23 0 -75 -49 -95 -89 -26 -51
-56 -161 -71 -261 -7 -47 -22 -107 -32 -135 -13 -31 -22 -86 -25 -145 -5 -91
-4 -98 26 -164 17 -38 31 -72 31 -76 0 -15 -186 -100 -306 -140 -340 -113
-700 -115 -1032 -4 -107 35 -274 113 -317 149 l-26 20 30 70 c17 39 31 87 31
108 0 37 -18 137 -42 227 -6 25 -15 79 -18 120 -14 151 -66 276 -132 313 -30
17 -38 28 -38 50 0 27 2 26 63 -35 165 -164 411 -278 690 -319 118 -17 420
-15 542 4 278 44 549 177 688 338 23 27 43 49 45 49 1 0 2 -18 2 -40z m-1420
-1324 c231 -56 532 -61 769 -11 68 14 126 23 130 19 20 -20 -3 -148 -92 -504
-53 -212 -132 -531 -176 -710 -85 -348 -95 -380 -135 -423 -23 -25 -31 -27
-100 -27 -119 0 -124 10 -216 390 -29 118 -105 429 -170 690 -65 261 -121 494
-125 517 -6 37 0 83 10 83 2 0 49 -11 105 -24z M4500 6258 c0 -503 4 -542 57
-639 97 -179 308 -268 678 -285 209 -11 366 18 632 116 395 146 424 154 573
154 142 0 202 -15 498 -125 338 -126 490 -157 712 -145 299 15 488 74 603 188
53 53 101 145 116 222 6 28 11 259 13 514 l3 462 -1942 0 -1943 0 0 -462z
m3353 313 c330 -1 337 -1 337 -21 0 -13 7 -20 20 -20 20 0 20 -7 20 -390 0
-376 -1 -391 -21 -427 -54 -97 -136 -148 -304 -186 -153 -36 -413 -77 -480
-77 -92 0 -192 28 -335 95 -258 121 -531 187 -709 171 -178 -16 -436 -89 -621
-176 -69 -32 -153 -66 -186 -74 -84 -22 -221 -20 -319 3 -44 11 -102 22 -130
26 -75 11 -249 52 -292 70 -44 19 -105 74 -139 127 l-24 38 0 400 0 400 40 0
c33 0 40 3 40 20 0 19 8 20 293 22 246 3 1168 2 2810 -1z M5400 6327 c-49 -16
-123 -93 -138 -143 -7 -25 -12 -105 -12 -205 0 -188 9 -219 77 -280 52 -47 99
-62 179 -57 78 5 134 40 179 112 29 48 30 53 33 200 3 90 -1 172 -7 202 -31
138 -171 215 -311 171z M7281 6326 c-49 -18 -106 -70 -130 -119 -19 -39 -21
-61 -21 -215 0 -192 7 -221 63 -281 97 -102 275 -93 357 20 42 58 53 122 48
289 -4 160 -12 190 -71 250 -62 64 -162 87 -246 56z M6134 5174 c-42 -21 -64
-62 -64 -124 0 -63 19 -101 62 -124 30 -16 60 -17 306 -14 l274 3 28 32 c57
63 47 176 -19 220 -33 23 -39 23 -295 23 -212 0 -267 -3 -292 -16z M5790 4628
c-113 -32 -170 -156 -121 -265 26 -55 111 -122 236 -183 124 -61 263 -99 400
-108 232 -16 429 19 610 108 189 92 264 177 252 282 -20 163 -197 223 -331
111 -168 -141 -536 -169 -758 -58 -29 15 -75 44 -103 65 -44 34 -111 62 -140
59 -5 0 -26 -5 -45 -11z M1125 1643 c-353 -442 -446 -572 -490 -680 -56 -140
-10 -269 115 -327 l45 -21 1600 -3 c1757 -2 1660 -6 1737 58 49 41 78 104 85
187 5 63 3 74 -25 128 -51 100 -126 202 -484 652 l-343 431 -950 1 -950 0
-340 -426z m2182 182 c13 -3 39 -20 60 -38 41 -36 532 -645 605 -751 46 -66
48 -73 48 -136 0 -118 193 -105 -1599 -108 -1504 -2 -1557 -2 -1591 17 -31 16
-35 24 -38 61 -2 24 -1 54 2 67 11 41 115 184 354 483 262 327 315 388 353
404 27 11 1759 12 1806 1z M2184 7538 c-54 -17 -126 -80 -153 -132 -29 -57
-39 -150 -22 -213 15 -57 66 -121 124 -157 99 -61 250 -44 331 38 56 56 79
108 84 189 4 61 1 75 -28 133 -33 68 -85 116 -153 141 -39 14 -141 15 -183 1z
M1750 6704 c-155 -42 -272 -170 -302 -333 -33 -175 72 -370 239 -449 52 -24
69 -27 168 -27 103 0 114 2 177 32 93 44 151 100 196 191 36 74 37 79 37 187
0 99 -3 116 -27 168 -86 183 -296 282 -488 231z m215 -287 l40 -23 3 -86 c3
-79 1 -88 -22 -115 -63 -75 -236 -63 -286 19 -30 49 -28 147 3 176 59 56 189
70 262 29z M2715 6136 c-93 -43 -165 -153 -165 -251 0 -93 68 -202 154 -248
59 -31 193 -31 252 0 48 25 110 92 129 137 77 184 -56 386 -255 386 -47 0 -79
-7 -115 -24z M8094 3030 c4 -41 18 -250 31 -465 14 -214 28 -429 31 -476 6
-79 5 -87 -12 -92 -17 -5 -499 -152 -533 -163 -11 -3 -11 -8 1 -27 101 -155
458 -762 454 -772 -2 -7 -101 -156 -218 -331 -117 -175 -221 -331 -231 -346
l-19 -28 1222 0 1221 0 -4 692 c-4 586 -7 706 -20 774 -86 429 -405 812 -874
1050 -280 143 -615 233 -933 252 l-122 7 6 -75z m411 -145 c146 -24 264 -68
510 -191 421 -208 687 -467 791 -768 l24 -70 0 -673 0 -674 -923 3 c-1007 3
-965 1 -954 58 3 14 41 82 83 150 104 166 134 242 134 332 0 62 -5 79 -48 171
-27 56 -87 167 -133 247 -109 187 -111 192 -107 225 3 26 10 31 83 55 44 15
100 37 125 49 59 28 129 97 160 157 l25 49 -4 448 -3 447 73 0 c41 0 115 -7
164 -15z M5370 340 c-10 -6 67 -10 228 -10 160 0 241 3 237 10 -8 13 -445 13
-465 0z M6990 340 c-10 -6 72 -9 240 -9 143 1 244 5 230 9 -36 12 -452 12
-470 0z"/>
</g>
</svg>
