<?xml version="1.0" standalone="no"?>
<!DOCTYPE svg PUBLIC "-//W3C//DTD SVG 20010904//EN"
 "http://www.w3.org/TR/2001/REC-SVG-20010904/DTD/svg10.dtd">
<svg version="1.0" xmlns="http://www.w3.org/2000/svg"
 width="2048.000000pt" height="2048.000000pt" viewBox="0 0 2048.000000 2048.000000"
 preserveAspectRatio="xMidYMid meet">
<metadata>
Created by potrace 1.13, written by Peter Selinger 2001-2015
</metadata>
<g transform="translate(0.000000,2048.000000) scale(0.192120,-0.192120)"
fill="#000000" stroke="none">
<path d="M5085 10043 c-500 -34 -1109 -213 -1630 -478 -630 -321 -1196 -795
-1602 -1345 -526 -713 -839 -1557 -938 -2530 -45 -455 -48 -1740 -5 -2630 55
-1122 203 -1871 438 -2216 55 -82 151 -170 219 -202 54 -25 67 -27 193 -27
268 1 476 56 1175 307 215 77 489 173 610 214 121 40 218 73 215 74 -83 16
-194 26 -246 23 -125 -7 -211 -33 -929 -284 -352 -123 -609 -182 -805 -183
-117 -1 -128 1 -182 27 -260 127 -442 708 -532 1697 -35 381 -37 505 -34 1890
4 1533 -2 1388 74 1805 111 602 349 1211 662 1690 552 846 1354 1478 2297
1808 656 230 1250 286 1870 176 894 -160 1800 -654 2427 -1324 364 -388 580
-707 864 -1275 174 -348 325 -902 394 -1442 21 -166 21 -183 17 -1915 -4
-1829 -3 -1812 -47 -2193 -15 -122 -46 -317 -60 -372 -26 -98 -90 -256 -138
-341 -108 -190 -281 -259 -580 -229 -224 22 -421 73 -806 209 -599 211 -751
254 -898 254 -53 0 -108 -3 -122 -6 -14 -3 -38 -8 -53 -11 -22 -5 39 -29 277
-109 168 -56 413 -142 545 -190 746 -273 1080 -344 1361 -290 273 52 431 259
522 685 95 439 124 1042 138 2835 6 868 -1 1254 -31 1542 -146 1418 -746 2572
-1755 3375 -690 549 -1563 906 -2385 977 -111 10 -403 12 -520 4z M3440 6777
c-429 -428 -523 -516 -710 -667 -344 -279 -478 -419 -575 -603 -117 -220 -164
-455 -145 -722 87 -1202 562 -2302 1306 -3025 485 -471 1012 -745 1629 -847
87 -14 167 -18 385 -18 294 0 374 8 600 61 1361 319 2435 1704 2679 3454 46
330 53 511 27 653 -123 651 -698 1138 -1550 1313 -194 39 -335 54 -612 64
-355 12 -564 44 -904 136 -436 117 -1043 371 -1498 625 -67 38 -126 69 -130
69 -4 0 -230 -222 -502 -493z m782 82 c520 -259 960 -429 1388 -538 315 -80
492 -105 860 -121 129 -5 273 -15 320 -20 551 -67 1014 -266 1285 -551 144
-152 246 -302 301 -444 l39 -100 0 -260 c0 -296 -10 -384 -75 -655 -22 -91
-44 -199 -51 -240 -16 -108 -83 -338 -133 -460 -24 -58 -85 -195 -135 -305
-360 -788 -853 -1362 -1445 -1679 -283 -153 -545 -245 -841 -298 -143 -25
-516 -36 -666 -19 -493 56 -1002 270 -1399 587 -117 94 -389 367 -488 490
-239 299 -461 685 -612 1064 -136 343 -248 786 -300 1185 -7 57 -10 199 -8
385 l3 295 28 78 c81 222 223 391 552 657 191 154 312 266 665 615 206 205
391 384 410 398 61 46 93 39 302 -64z M3857 5316 c-99 -36 -166 -112 -187
-211 -7 -34 -10 -164 -8 -362 3 -300 4 -309 27 -361 43 -96 145 -162 251 -162
75 0 139 27 197 85 80 80 83 99 83 470 0 371 -3 390 -83 470 -79 78 -184 105
-280 71z m103 -546 c0 -273 0 -280 -20 -280 -20 0 -20 7 -20 280 0 273 0 280
20 280 20 0 20 -7 20 -280z M6620 5313 c-66 -24 -144 -107 -164 -173 -23 -76
-23 -651 -1 -726 30 -103 130 -183 239 -191 120 -10 220 46 273 155 l28 57 0
340 c0 324 -1 342 -21 385 -30 65 -70 107 -128 137 -65 33 -161 40 -226 16z
m110 -543 c0 -242 -2 -280 -15 -280 -13 0 -15 38 -15 280 0 242 2 280 15 280
13 0 15 -38 15 -280z M4964 3928 c-17 -6 -53 -27 -80 -47 -163 -123 -135 -379
51 -467 50 -24 53 -24 395 -24 342 0 345 0 395 24 207 98 212 393 8 496 l-48
25 -345 2 c-214 1 -357 -3 -376 -9z m689 -212 c24 -12 23 -80 -2 -105 -29 -29
-79 -33 -363 -29 -243 3 -258 4 -285 24 -22 17 -28 29 -28 59 0 61 19 65 365
62 162 -2 303 -6 313 -11z M4405 2896 c-88 -28 -136 -68 -194 -160 -31 -49
-31 -52 -31 -182 0 -78 4 -135 10 -139 6 -3 10 -13 10 -22 0 -8 20 -44 45 -78
66 -92 200 -191 361 -264 153 -70 256 -102 419 -131 105 -19 147 -21 340 -18
235 5 327 19 500 74 129 41 351 154 433 219 39 32 72 61 72 64 0 3 11 18 25
33 14 15 38 53 55 86 28 56 30 67 30 171 0 98 -3 117 -24 159 -46 91 -81 128
-151 163 -120 59 -237 42 -396 -57 -114 -71 -201 -110 -307 -136 -74 -19 -116
-22 -277 -22 -167 0 -201 3 -280 23 -115 30 -193 65 -302 137 -132 87 -237
112 -338 80z m186 -81 c25 -9 69 -36 99 -60 221 -182 599 -248 940 -164 100
24 268 103 325 152 126 109 277 115 390 15 71 -62 90 -106 90 -208 0 -74 -3
-91 -27 -131 -90 -153 -410 -326 -721 -390 -194 -39 -495 -41 -692 -4 -309 58
-652 239 -742 392 -20 34 -27 63 -31 119 -4 68 -2 80 27 138 63 129 206 187
342 141z"/>
</g>
</svg>
