<?xml version="1.0" standalone="no"?>
<!DOCTYPE svg PUBLIC "-//W3C//DTD SVG 20010904//EN"
 "http://www.w3.org/TR/2001/REC-SVG-20010904/DTD/svg10.dtd">
<svg version="1.0" xmlns="http://www.w3.org/2000/svg"
 width="2048.000000pt" height="2048.000000pt" viewBox="0 0 2048.000000 2048.000000"
 preserveAspectRatio="xMidYMid meet">
<metadata>
Created by potrace 1.13, written by Peter Selinger 2001-2015
</metadata>
<g transform="translate(0.000000,2048.000000) scale(0.192120,-0.192120)"
fill="#000000" stroke="none">
<path d="M1320 10324 c-274 -42 -463 -131 -640 -301 -169 -160 -265 -330 -328
-573 -15 -60 -16 -319 -20 -3225 -2 -2309 0 -3185 8 -3253 15 -125 42 -218 96
-331 148 -313 391 -515 742 -614 76 -21 91 -22 975 -27 l897 -5 -26 -39 c-45
-65 -110 -206 -139 -296 -50 -161 -55 -230 -55 -802 l0 -528 3610 0 3610 0 0
538 c0 435 -3 555 -15 632 -68 417 -367 793 -835 1052 -139 77 -406 177 -554
208 -51 10 -60 10 -77 -6 -38 -34 -17 -98 51 -157 22 -19 93 -58 158 -87 286
-129 471 -235 609 -351 205 -172 344 -380 410 -609 l27 -95 4 -417 c3 -417 3
-418 -17 -418 -17 0 -21 -6 -21 -35 l0 -35 -1402 0 c-861 0 -1430 -4 -1473
-10 -66 -9 -145 -37 -145 -51 0 -4 -11 -14 -25 -23 l-25 -16 0 39 c0 36 3 40
38 54 49 20 76 51 96 111 39 118 3 216 -96 267 l-38 19 0 225 0 224 29 16 c81
41 81 137 1 267 -16 26 -26 48 -22 48 4 0 88 -57 187 -127 189 -133 493 -339
607 -411 90 -57 108 -56 197 16 89 72 132 169 236 532 89 306 189 728 236 995
16 90 1 105 -115 105 -33 0 -37 3 -31 17 20 46 44 120 45 136 0 11 -8 17 -20
17 -23 0 -76 25 -147 70 -26 17 -50 30 -55 30 -4 0 10 -24 32 -52 22 -29 57
-87 77 -128 35 -69 38 -82 37 -155 -1 -48 -14 -141 -33 -233 -109 -520 -345
-1322 -390 -1322 -5 0 -65 62 -134 137 -251 275 -562 543 -871 752 -76 51
-136 94 -134 95 2 2 136 94 298 206 541 373 915 645 970 705 l25 28 -76 -6
c-42 -4 -107 -17 -143 -31 -62 -22 -66 -22 -66 -5 0 46 -27 35 -153 -62 -48
-37 -115 -85 -150 -105 -199 -119 -409 -250 -532 -331 -115 -76 -147 -93 -178
-93 -47 0 -46 0 -237 125 -85 55 -229 146 -320 200 -91 54 -221 140 -290 191
-170 124 -180 129 -180 79 l0 -22 -38 18 c-44 22 -160 49 -211 49 l-35 0 30
-31 c65 -70 348 -276 912 -667 l362 -251 -122 -82 c-148 -98 -322 -231 -478
-365 -134 -115 -437 -416 -494 -491 -31 -41 -43 -50 -53 -41 -71 58 -369 1132
-422 1521 l-11 79 40 85 c22 47 60 114 86 150 l46 65 -33 -18 c-19 -9 -71 -45
-115 -80 -102 -79 -138 -100 -200 -119 -64 -18 -574 -130 -689 -150 -105 -19
-306 -21 -385 -4 -39 9 -371 14 -1150 18 l-1095 6 -59 24 c-66 26 -123 73
-169 140 l-32 46 -3 919 c-2 875 -2 918 15 911 10 -3 30 -9 46 -12 22 -4 27
-2 27 13 0 18 27 19 970 16 648 -1 970 1 970 8 0 5 7 10 15 10 9 0 23 6 32 13
37 27 170 164 182 184 l12 23 -1107 0 c-1226 0 -1151 -4 -1194 65 -25 40 -26
106 -3 145 9 15 33 38 53 49 38 21 40 21 1144 21 l1107 0 -46 66 c-25 37 -45
75 -45 86 0 22 19 60 60 121 16 25 30 47 30 50 0 3 -16 1 -35 -4 -20 -6 -204
-9 -447 -7 -392 3 -415 4 -447 23 -19 11 -43 32 -53 46 -24 32 -27 103 -5 144
8 17 91 116 183 220 448 509 525 638 465 770 -36 81 -110 117 -193 94 -62 -16
-101 -63 -133 -161 -53 -158 -80 -190 -166 -190 -90 0 -149 55 -157 145 -22
263 235 517 523 517 254 -1 448 -157 485 -392 20 -130 -18 -260 -125 -424 -67
-103 -93 -136 -272 -341 -73 -84 -133 -153 -133 -155 0 -2 98 -1 218 1 130 2
233 -1 255 -7 20 -6 37 -7 37 -2 0 4 -20 35 -44 67 -83 113 -83 117 -17 295
112 304 135 409 135 603 0 155 -14 229 -64 349 -17 39 -30 80 -30 92 0 14 33
58 86 115 116 128 168 230 169 333 0 63 -4 78 -29 117 -16 24 -62 76 -102 115
-40 40 -76 83 -79 96 -4 17 6 47 36 104 23 43 45 84 49 89 26 36 73 134 99
211 28 81 31 100 31 220 0 106 -4 142 -21 192 -57 169 -275 405 -435 473 -27
11 -62 28 -79 37 -24 14 -56 17 -165 17 -120 0 -140 -3 -182 -23 -27 -12 -59
-27 -73 -32 -93 -35 -331 -244 -396 -348 -23 -36 -55 -97 -70 -135 -26 -63
-29 -81 -29 -188 0 -130 6 -151 71 -249 37 -55 112 -132 161 -164 33 -21 42
-45 29 -77 -5 -13 -53 -82 -106 -154 -127 -170 -165 -248 -165 -341 0 -59 5
-77 32 -124 31 -55 134 -164 217 -230 56 -45 53 -64 -29 -145 -76 -76 -152
-191 -185 -278 -23 -62 -25 -81 -25 -226 0 -118 -3 -160 -12 -164 -7 -2 -43 3
-80 11 -53 13 -68 20 -68 34 0 10 -7 18 -15 18 -9 0 -15 9 -15 23 0 52 -68
164 -149 247 -92 93 -148 123 -227 122 -74 -1 -125 -31 -224 -131 -85 -85
-150 -186 -150 -232 0 -12 -8 -23 -20 -26 -11 -3 -20 -13 -20 -23 0 -17 -19
-30 -43 -30 -36 0 -37 51 -37 1407 l0 1328 21 35 c12 19 32 44 44 55 12 11 25
28 28 37 8 22 70 61 133 83 75 26 229 34 707 34 419 1 439 0 444 -18 4 -17 21
-19 221 -23 119 -3 309 -3 421 0 182 4 204 7 208 22 5 17 97 18 1641 22 1772
4 2552 -3 2642 -22 65 -15 134 -48 180 -87 63 -52 140 -193 140 -255 0 -15 4
-29 9 -32 4 -3 11 -23 15 -45 5 -35 114 -263 136 -285 16 -16 22 83 18 277 -6
206 -12 236 -73 357 -36 71 -144 177 -221 217 -129 68 147 63 -3319 63 -3456
0 -3182 5 -3315 -62 -129 -65 -244 -214 -279 -361 -8 -35 -11 -882 -11 -3185
0 -2796 1 -3143 15 -3196 40 -152 154 -289 297 -356 46 -21 113 -44 148 -49
43 -7 454 -11 1196 -11 l1131 0 124 59 c294 141 639 221 948 221 l111 0 -46
-67 c-62 -94 -78 -153 -71 -272 7 -127 101 -513 218 -896 89 -289 130 -361
245 -433 50 -32 97 -41 109 -22 3 5 88 65 188 133 100 68 282 194 405 280 122
87 230 161 239 164 14 5 12 -1 -6 -31 -91 -147 -92 -238 -3 -285 22 -12 22
-14 22 -235 l0 -224 -54 -30 c-75 -43 -96 -82 -96 -182 0 -43 4 -81 9 -85 5
-3 12 -19 16 -35 4 -17 10 -30 15 -30 4 0 10 -8 12 -18 5 -16 -68 -17 -1446
-14 -934 1 -1452 6 -1454 12 -2 6 -24 10 -48 10 l-45 0 3 503 3 502 64 170
c34 94 67 178 72 187 5 10 9 36 9 58 0 44 8 55 153 209 49 52 98 108 108 125
22 36 26 96 5 96 -38 0 -254 -192 -364 -323 l-66 -79 -24 48 c-29 58 -58 92
-92 107 -18 8 -259 14 -815 18 -873 6 -852 5 -1021 73 -250 101 -454 323 -533
580 l-21 68 0 3252 c0 2946 2 3257 16 3307 25 86 101 230 158 302 154 194 372
309 636 337 125 13 6127 13 6260 0 126 -12 236 -42 332 -91 106 -52 150 -84
248 -175 98 -93 156 -173 198 -274 62 -152 71 -208 82 -515 10 -283 9 -276
116 -530 l59 -140 3 470 c3 526 -1 569 -62 740 -127 355 -429 621 -806 712
-71 17 -232 18 -3260 19 -1752 1 -3196 0 -3210 -2z m1754 -1145 c192 -59 316
-226 318 -427 1 -197 -91 -356 -426 -737 l-105 -120 242 -5 c265 -5 282 -9
317 -65 26 -42 27 -119 1 -161 -39 -63 -44 -64 -513 -64 -394 0 -426 2 -465
19 -25 12 -48 32 -57 50 -20 39 -20 104 0 142 8 17 93 119 187 227 232 265
262 302 344 412 126 170 157 265 113 354 -32 67 -71 91 -147 91 -99 0 -143
-45 -190 -194 -36 -114 -78 -161 -147 -161 -167 0 -216 176 -107 385 69 134
225 248 371 274 73 13 186 5 264 -20z m-1394 -2398 c45 -32 50 -54 50 -248 l0
-183 183 0 c165 0 185 -2 215 -20 61 -37 79 -133 37 -196 -30 -46 -68 -54
-260 -54 l-175 0 0 -180 c0 -200 -6 -227 -60 -255 -37 -19 -103 -19 -140 0
-57 29 -60 42 -60 247 l0 188 -177 0 c-203 0 -235 9 -265 70 -34 68 -15 144
45 180 29 18 51 20 215 20 l182 0 0 190 0 190 28 31 c43 49 127 58 182 20z
m400 -946 c0 -8 9 -15 20 -15 14 0 20 -7 20 -24 0 -13 7 -29 15 -36 8 -7 15
-19 15 -27 0 -7 9 -31 20 -53 42 -82 21 -100 -113 -100 -109 0 -127 6 -127 39
0 27 21 96 33 107 4 4 7 22 7 41 0 26 4 33 20 33 13 0 20 7 20 19 0 21 13 29
48 30 13 1 22 -5 22 -14z m-860 -67 c0 -16 7 -40 16 -53 9 -14 17 -48 18 -76
1 -49 -1 -53 -28 -62 -21 -7 -30 -6 -36 3 -7 12 -33 10 -74 -6 -14 -5 -16 9
-16 118 l0 125 60 -10 c57 -9 60 -11 60 -39z m5349 -3942 c53 -27 90 -66 124
-130 34 -64 31 -174 -8 -244 -126 -230 -462 -182 -515 74 -24 113 29 231 129
291 29 17 65 34 80 37 54 9 141 -4 190 -28z m-22 -822 c54 -19 119 -83 146
-142 16 -34 21 -66 21 -117 -2 -292 -392 -381 -520 -118 -111 226 110 463 353
377z m-432 -470 c6 0 18 -2 28 -2 13 -2 17 -11 17 -37 0 -19 -4 -35 -8 -35
-12 0 -72 67 -72 80 0 6 5 8 13 3 6 -4 17 -8 22 -9z M6150 9316 c-577 -74
-1125 -307 -1587 -674 -132 -105 -352 -324 -454 -452 -302 -380 -492 -774
-623 -1295 -88 -352 -111 -695 -103 -1560 6 -643 15 -884 47 -1234 66 -713
208 -1137 415 -1236 122 -58 375 -13 821 146 389 137 616 215 687 234 l67 18
0 66 -1 66 -55 34 c-161 97 -401 315 -545 494 -279 346 -477 765 -583 1230 -6
26 -9 27 -70 27 -154 0 -275 97 -366 294 -54 116 -80 228 -87 377 -12 266 61
506 199 654 77 83 142 117 232 123 103 6 172 -22 252 -102 l60 -61 91 75 c49
41 128 106 174 143 46 38 235 217 420 398 l337 329 88 -52 c271 -155 700 -337
999 -423 230 -65 388 -90 640 -100 88 -3 198 -10 245 -16 360 -42 664 -166
915 -373 l30 -25 42 54 c113 146 279 194 418 122 128 -67 236 -228 286 -428
26 -107 36 -316 20 -431 -53 -366 -274 -605 -511 -553 -25 6 -26 3 -54 -112
-49 -202 -147 -466 -243 -658 -193 -383 -498 -739 -820 -956 l-74 -50 3 -75 3
-76 110 -35 c101 -32 288 -97 690 -238 406 -143 653 -177 820 -114 126 47 217
172 269 369 84 316 107 748 109 2074 2 900 0 978 -39 1241 -90 620 -321 1173
-680 1625 -93 118 -369 389 -494 486 -421 327 -900 539 -1420 630 -180 32
-511 41 -680 20z m675 -275 c396 -71 841 -249 1086 -434 168 -127 405 -335
474 -414 127 -149 270 -339 348 -463 218 -347 387 -833 353 -1014 l-7 -36 -55
44 c-72 59 -164 104 -241 117 -88 15 -175 -2 -292 -57 -51 -24 -105 -44 -120
-44 -14 0 -105 40 -201 88 -310 156 -535 211 -938 232 -103 6 -234 17 -292 25
-309 44 -662 164 -1100 375 -251 121 -282 132 -349 132 -105 0 -195 -67 -521
-387 -346 -339 -449 -425 -514 -425 -17 0 -72 14 -121 32 -73 26 -105 32 -170
32 -138 -1 -238 -50 -387 -192 l-80 -77 4 165 c5 175 22 269 74 425 144 431
394 814 749 1145 406 380 1009 663 1585 744 161 23 557 16 715 -13z m-3062
-3880 c72 -85 160 -154 247 -195 50 -23 69 -58 144 -259 127 -337 279 -621
465 -867 76 -101 241 -289 305 -348 35 -32 46 -50 46 -72 0 -28 -7 -33 -102
-79 -174 -84 -494 -191 -687 -231 -109 -22 -205 -26 -248 -9 -123 46 -214 318
-285 859 -21 151 -22 206 -22 655 0 270 5 515 10 546 9 53 27 89 44 89 4 0 41
-40 83 -89z m5387 -1486 c-15 -146 -45 -306 -72 -380 -43 -123 -92 -155 -236
-155 -148 1 -284 24 -472 84 -96 30 -210 64 -252 76 -143 39 -238 92 -238 132
0 11 55 76 124 148 306 318 535 706 710 1200 45 126 63 151 131 180 95 40 148
75 232 154 l78 74 3 -702 c2 -475 -1 -737 -8 -811z M5427 6054 c-69 -21 -131
-86 -153 -159 -23 -81 -17 -344 10 -395 47 -89 119 -134 217 -135 56 0 73 4
114 30 27 17 63 50 80 74 l30 43 3 189 3 189 -28 51 c-33 61 -75 95 -139 115
-57 17 -75 17 -137 -2z M7325 6061 c-69 -17 -125 -62 -161 -131 -17 -30 -19
-59 -19 -215 0 -196 4 -214 64 -278 110 -119 309 -89 377 56 22 49 24 63 24
223 0 162 -1 172 -25 221 -49 98 -157 149 -260 124z M6124 4876 c-32 -32 -34
-38 -34 -101 0 -63 2 -69 34 -101 l34 -34 281 0 281 0 32 29 c32 28 33 32 33
106 0 74 -1 78 -33 106 l-32 29 -281 0 -281 0 -34 -34z M5765 4378 c-52 -19
-85 -48 -115 -101 -73 -128 -12 -280 153 -380 169 -103 405 -153 672 -144 173
6 290 25 412 67 229 79 343 194 343 345 0 106 -46 173 -145 210 -63 25 -172
17 -245 -18 -115 -53 -177 -75 -247 -86 -100 -15 -267 -14 -355 3 -75 15 -100
24 -216 78 -54 25 -83 32 -147 34 -44 2 -93 -1 -110 -8z m160 -28 c15 -6 46
-25 68 -44 58 -47 135 -84 225 -108 108 -29 306 -29 413 0 84 23 180 67 225
105 68 57 147 73 217 43 64 -26 117 -112 117 -186 -1 -84 -91 -174 -255 -255
-155 -78 -269 -105 -460 -112 -286 -10 -525 59 -708 202 -65 52 -93 91 -102
146 -13 77 39 174 110 205 36 16 114 18 150 4z M7273 3305 c-290 -138 -542
-195 -851 -195 -300 1 -555 58 -832 189 l-85 40 -8 -36 c-9 -44 -2 -52 107
-134 211 -160 488 -239 836 -239 237 0 435 36 616 111 87 36 235 132 287 187
34 35 37 42 27 61 -6 12 -8 31 -5 41 4 11 5 20 3 19 -2 0 -44 -20 -95 -44z"/>
</g>
</svg>
