<?xml version="1.0" standalone="no"?>
<!DOCTYPE svg PUBLIC "-//W3C//DTD SVG 20010904//EN"
 "http://www.w3.org/TR/2001/REC-SVG-20010904/DTD/svg10.dtd">
<svg version="1.0" xmlns="http://www.w3.org/2000/svg"
 width="2048.000000pt" height="2048.000000pt" viewBox="0 0 2048.000000 2048.000000"
 preserveAspectRatio="xMidYMid meet">
<metadata>
Created by potrace 1.13, written by Peter Selinger 2001-2015
</metadata>
<g transform="translate(0.000000,2048.000000) scale(0.192120,-0.192120)"
fill="#000000" stroke="none">
<path d="M6233 9600 c-500 -42 -1010 -222 -1454 -515 -832 -549 -1322 -1437
-1398 -2535 -10 -140 -16 -642 -12 -1076 l1 -211 42 -19 c24 -10 70 -46 104
-79 101 -99 144 -217 144 -390 0 -112 -16 -191 -57 -274 -26 -54 -100 -138
-156 -177 l-29 -20 21 -161 c43 -336 109 -601 191 -768 60 -122 121 -194 197
-232 50 -24 67 -27 142 -25 177 4 358 51 806 212 165 59 374 132 465 160 91
29 167 54 169 56 2 1 0 30 -4 64 -7 61 -7 61 -64 97 -199 127 -433 348 -593
559 -229 301 -427 727 -509 1089 l-22 101 -76 -1 c-61 0 -85 5 -121 24 -146
76 -257 249 -305 476 -21 97 -24 320 -6 415 32 172 98 315 187 410 100 105
203 144 311 116 l58 -15 23 30 c13 16 47 42 75 56 49 25 63 27 229 32 l176 6
347 339 c288 283 350 338 363 329 211 -130 671 -337 951 -427 277 -90 463
-124 741 -136 245 -11 381 -29 555 -75 l130 -34 300 -3 c281 -3 303 -4 346
-24 25 -12 61 -35 80 -52 33 -29 37 -30 84 -21 138 26 298 -83 388 -265 160
-324 127 -781 -76 -1037 -80 -100 -199 -158 -297 -145 l-48 6 -25 -42 c-13
-24 -32 -77 -42 -118 -62 -260 -205 -591 -364 -845 -177 -282 -451 -570 -688
-723 l-72 -47 -1 -75 0 -76 113 -33 c61 -18 274 -91 472 -161 481 -171 593
-203 766 -219 433 -40 572 178 629 984 28 401 42 2132 20 2426 -67 869 -366
1579 -898 2131 -476 493 -1150 835 -1820 923 -144 18 -364 25 -489 15z m457
-305 c711 -88 1416 -476 1860 -1025 242 -299 426 -667 521 -1040 12 -50 19
-110 19 -183 l0 -108 -27 21 c-16 11 -50 38 -77 60 -55 43 -144 89 -226 115
-30 10 -100 37 -155 61 -55 23 -129 47 -165 53 -36 5 -180 12 -320 15 -206 4
-284 10 -405 30 -205 34 -306 44 -540 56 -285 14 -426 38 -678 114 -201 62
-490 182 -757 316 -200 101 -275 113 -375 60 -83 -44 -116 -72 -361 -306 -145
-138 -237 -219 -269 -234 -29 -14 -79 -26 -133 -32 -183 -18 -221 -26 -304
-63 -45 -20 -128 -50 -183 -67 -162 -48 -229 -87 -355 -208 l-55 -53 -3 109
c-2 90 2 127 22 209 119 469 334 870 649 1210 445 478 1123 819 1777 894 127
14 406 12 540 -4z m-3005 -3793 c61 -84 248 -252 281 -252 4 0 22 -12 41 -26
31 -24 71 -89 88 -144 16 -52 95 -250 147 -366 89 -197 232 -438 374 -624 63
-83 229 -270 300 -338 50 -48 24 -78 -111 -130 -523 -200 -803 -262 -895 -199
-19 12 -48 47 -66 78 -71 120 -154 482 -154 667 0 86 2 97 28 135 46 67 80
137 107 216 23 69 25 89 25 258 0 159 -3 192 -21 245 -31 92 -71 165 -133 243
l-56 70 0 102 c0 110 6 119 45 65z m5492 -714 c-4 -703 -8 -789 -47 -1021 -34
-205 -82 -316 -154 -355 -41 -23 -223 -22 -321 2 -206 49 -712 225 -757 264
-33 28 -20 53 78 154 281 293 512 662 670 1071 30 78 67 168 82 200 28 61 83
120 123 132 48 15 156 95 229 169 41 42 81 76 88 76 11 0 13 -115 9 -692z
M2184 7538 c-54 -17 -126 -80 -153 -132 -29 -57 -39 -150 -22 -213 15 -57 66
-121 124 -157 99 -61 250 -44 331 38 56 56 79 108 84 189 4 61 1 75 -28 133
-33 68 -85 116 -153 141 -39 14 -141 15 -183 1z M5217 7144 c-55 -12 -181 -54
-407 -137 -8 -3 642 -5 1445 -5 803 0 1456 1 1450 3 -29 10 -280 27 -538 35
-308 10 -456 22 -837 70 -339 42 -459 50 -769 49 -201 0 -294 -5 -344 -15z
M8645 6836 c13 -30 15 -133 15 -668 0 -374 -4 -647 -10 -668 l-9 -35 44 50
c51 58 96 137 121 215 15 47 18 106 22 415 4 368 0 425 -36 520 -23 61 -79
141 -123 176 l-39 30 15 -35z M4179 6805 c-31 -31 -69 -81 -85 -113 l-29 -57
-3 -438 c-4 -533 -10 -500 133 -697 34 -47 82 -121 108 -165 86 -150 225 -293
326 -337 126 -55 424 -98 671 -98 178 0 285 14 434 56 118 33 151 51 238 129
95 86 138 111 234 136 60 15 112 20 219 21 226 2 307 -24 442 -142 91 -79 146
-107 289 -145 151 -42 255 -55 429 -55 258 0 536 42 637 97 65 35 193 155 257
241 28 37 48 68 47 70 -2 2 -36 -18 -77 -44 -180 -117 -472 -193 -804 -210
-230 -12 -371 18 -704 147 -224 88 -324 116 -447 125 -154 12 -277 -16 -585
-137 -317 -124 -470 -151 -726 -131 -280 22 -481 70 -661 158 -91 44 -126 67
-181 122 -37 37 -78 90 -92 117 l-24 50 -3 629 c-2 520 0 638 12 678 7 26 11
48 7 48 -4 0 -32 -25 -62 -55z M1750 6704 c-155 -42 -272 -170 -302 -333 -33
-175 72 -370 239 -449 52 -24 69 -27 168 -27 103 0 114 2 177 32 93 44 151
100 196 191 36 74 37 79 37 187 0 99 -3 116 -27 168 -86 183 -296 282 -488
231z m215 -287 l40 -23 3 -86 c3 -79 1 -88 -22 -115 -63 -75 -236 -63 -286 19
-30 49 -28 147 3 176 59 56 189 70 262 29z M4500 6258 c0 -504 4 -542 57 -640
97 -178 308 -266 678 -284 209 -11 366 19 632 117 372 137 483 166 615 156
109 -9 206 -36 453 -127 348 -129 485 -157 710 -146 437 21 648 135 718 386
13 45 16 142 19 528 l3 472 -1942 0 -1943 0 0 -462z m3338 303 c335 -1 342 -1
342 -21 0 -13 7 -20 20 -20 20 0 20 -7 20 -377 l0 -378 -30 -51 c-56 -98 -146
-148 -332 -183 -372 -71 -457 -78 -568 -52 -30 7 -122 44 -204 82 -323 151
-599 199 -846 149 -160 -33 -350 -94 -477 -155 -129 -62 -246 -95 -335 -95
-32 0 -111 11 -175 24 -65 13 -167 34 -228 46 -142 29 -199 51 -258 101 -89
77 -87 64 -87 504 l0 385 45 0 c38 0 45 3 45 20 0 27 -76 27 3068 21z M5400
6327 c-48 -15 -126 -95 -139 -143 -6 -22 -11 -113 -11 -204 0 -189 9 -220 77
-281 52 -47 99 -62 179 -57 78 5 134 40 179 112 29 48 30 53 33 200 3 90 -1
172 -7 202 -31 138 -171 215 -311 171z M7281 6326 c-49 -18 -106 -70 -130
-119 -19 -39 -21 -61 -21 -215 0 -192 7 -221 63 -281 97 -102 275 -93 357 20
42 58 53 122 48 289 -4 158 -14 193 -74 254 -60 60 -161 82 -243 52z M2715
6136 c-93 -43 -165 -153 -165 -251 0 -93 68 -202 154 -248 59 -31 193 -31 252
0 49 26 110 92 132 142 20 47 20 165 0 212 -61 141 -236 209 -373 145z M1621
5319 c-252 -50 -405 -198 -447 -431 -36 -198 19 -391 145 -511 86 -83 205
-135 346 -152 l55 -7 0 -694 0 -694 -581 -726 c-319 -399 -603 -758 -629 -798
-153 -227 -201 -388 -166 -556 42 -197 164 -326 374 -393 l67 -22 2232 -3
2232 -2 -239 356 -239 356 39 62 c171 273 437 728 427 731 -7 2 -124 38 -262
80 -137 42 -258 79 -267 81 -13 4 -18 15 -18 38 0 47 58 951 66 1014 l5 52
-70 0 c-99 0 -283 -26 -436 -61 -335 -76 -597 -193 -834 -372 -107 -81 -106
-84 20 -86 81 -1 162 24 284 89 50 26 128 68 175 92 47 25 132 70 190 101 151
80 197 90 378 88 50 -1 62 -4 62 -17 0 -9 9 -18 19 -21 19 -5 20 -20 23 -441
l3 -437 29 -50 c48 -82 108 -130 210 -170 50 -19 95 -35 99 -35 5 0 24 -7 43
-16 60 -29 48 -76 -73 -284 -27 -47 -70 -122 -96 -166 -26 -45 -59 -111 -73
-145 -48 -118 -24 -231 88 -404 71 -112 118 -202 118 -229 0 -39 -31 -48 -199
-57 -131 -7 -172 -13 -256 -39 -119 -37 -252 -70 -280 -70 -12 1 2 12 35 28
75 37 170 129 208 200 61 114 87 296 57 398 -45 155 -106 243 -609 872 -232
290 -453 568 -491 617 -38 50 -72 92 -76 95 -4 3 -50 59 -103 125 l-96 120 0
696 0 697 58 7 c72 9 182 44 189 61 2 7 -5 30 -16 53 -12 22 -21 49 -21 59 0
10 27 60 59 110 73 114 96 190 89 294 -6 95 -35 160 -115 260 -35 44 -66 90
-69 102 -3 12 2 42 10 67 9 24 16 47 16 51 0 4 -24 15 -52 25 -49 16 -115 18
-823 19 -424 1 -790 -2 -814 -7z m1593 -283 c69 -21 115 -60 144 -125 55 -117
25 -289 -60 -354 -64 -49 -105 -57 -294 -57 l-174 0 0 -884 0 -884 212 -264
c251 -312 280 -348 288 -348 3 0 22 16 43 36 51 50 77 42 171 -49 82 -81 614
-743 698 -870 134 -200 171 -327 134 -462 -29 -109 -88 -186 -184 -238 -108
-59 -60 -57 -1770 -57 -1363 0 -1575 2 -1631 15 -210 50 -338 233 -301 430 13
70 78 214 132 293 76 113 435 570 612 781 80 95 148 151 183 151 13 0 37 -7
53 -15 28 -15 29 -15 83 48 29 34 143 174 252 310 l198 248 -6 492 c-4 271 -7
664 -7 875 l0 382 -97 0 c-151 1 -275 15 -320 39 -83 42 -133 134 -133 246 0
122 58 217 153 254 50 19 78 20 813 20 628 1 769 -1 808 -13z M1125 1643
c-353 -442 -446 -572 -490 -680 -56 -140 -10 -269 115 -327 l45 -21 1600 -3
c1757 -2 1660 -6 1737 58 49 41 78 104 85 187 5 63 3 74 -25 128 -51 100 -126
202 -484 652 l-343 431 -950 1 -950 0 -340 -426z m2182 182 c13 -3 39 -20 60
-38 41 -36 532 -645 605 -751 46 -66 48 -73 48 -136 0 -118 193 -105 -1599
-108 -1504 -2 -1557 -2 -1591 17 -31 16 -35 24 -38 61 -2 24 -1 54 2 67 11 41
115 184 354 483 262 327 315 388 353 404 27 11 1759 12 1806 1z M6128 5174
c-38 -20 -58 -63 -58 -124 0 -63 19 -101 62 -124 30 -16 60 -17 306 -14 l274
3 28 32 c57 63 47 176 -19 220 -33 23 -39 23 -300 23 -216 -1 -271 -4 -293
-16z M5790 4628 c-113 -32 -170 -156 -121 -265 26 -55 111 -122 236 -183 305
-150 706 -150 1010 -1 189 94 264 178 252 283 -20 163 -197 223 -331 111 -168
-141 -536 -169 -758 -58 -29 15 -75 44 -103 65 -44 34 -111 62 -140 59 -5 0
-26 -5 -45 -11z M7225 3565 c-49 -24 -144 -62 -210 -84 -464 -155 -937 -131
-1393 71 l-113 50 -24 -25 -25 -25 59 -55 c100 -92 259 -179 415 -227 302 -94
741 -87 1026 15 108 39 223 101 313 168 92 70 108 92 78 114 -12 8 -21 21 -21
29 0 19 -2 18 -105 -31z M5410 3300 l0 -200 54 -178 c146 -477 540 -2027 651
-2560 l7 -32 301 0 302 0 33 148 c180 791 467 1915 618 2420 l64 212 0 196 0
195 -22 -6 c-57 -17 -105 -71 -127 -146 -7 -24 -17 -52 -22 -61 -5 -10 -9 -33
-9 -52 0 -19 -4 -38 -10 -41 -5 -3 -10 -21 -10 -39 0 -19 -7 -53 -16 -77 -25
-70 -44 -169 -44 -235 0 -47 7 -77 30 -127 17 -37 30 -68 30 -71 0 -11 -182
-91 -287 -126 -271 -91 -577 -110 -853 -54 -154 31 -379 120 -472 185 l-27 19
27 58 c37 82 38 137 7 272 -15 63 -31 147 -36 185 -23 176 -97 315 -169 315
-19 0 -20 -6 -20 -200z m640 -1045 c251 -57 528 -55 784 5 44 11 83 17 89 13
21 -13 -5 -157 -96 -523 -53 -212 -132 -531 -176 -710 -85 -348 -95 -380 -135
-423 -23 -25 -31 -27 -100 -27 -119 0 -124 10 -216 390 -29 118 -108 440 -176
714 -75 300 -124 519 -124 549 0 46 1 49 23 43 12 -4 69 -18 127 -31z M8094
3028 c4 -40 18 -248 31 -463 14 -214 28 -429 31 -476 6 -79 5 -87 -12 -92 -17
-5 -499 -152 -533 -163 -11 -3 -11 -8 1 -27 101 -155 458 -762 454 -772 -2 -7
-101 -156 -218 -331 -117 -175 -221 -331 -231 -346 l-19 -28 1222 0 1221 0 -4
692 c-5 761 -5 766 -68 944 -67 189 -162 342 -307 495 -217 229 -478 392 -802
504 -110 38 -150 47 -215 49 -64 2 -91 7 -133 29 -59 30 -228 57 -354 57 l-70
0 6 -72z m541 -122 c33 -18 103 -57 155 -87 52 -30 142 -79 200 -108 452 -231
710 -479 816 -785 l24 -70 0 -673 0 -674 -923 3 c-1007 3 -965 1 -954 58 3 14
41 82 83 150 104 166 134 242 134 332 0 62 -5 79 -48 171 -27 56 -87 167 -133
247 -109 187 -111 192 -107 225 3 26 10 31 83 55 44 15 100 37 125 49 59 28
129 97 160 157 l25 49 0 455 0 455 90 10 c165 19 203 17 270 -19z M5370 340
c-10 -6 67 -10 228 -10 160 0 241 3 237 10 -8 13 -445 13 -465 0z M6990 340
c-10 -6 72 -9 240 -9 143 1 244 5 230 9 -36 12 -452 12 -470 0z"/>
</g>
</svg>
