<?xml version="1.0" standalone="no"?>
<!DOCTYPE svg PUBLIC "-//W3C//DTD SVG 20010904//EN"
 "http://www.w3.org/TR/2001/REC-SVG-20010904/DTD/svg10.dtd">
<svg version="1.0" xmlns="http://www.w3.org/2000/svg"
 width="2048.000000pt" height="2048.000000pt" viewBox="0 0 2048.000000 2048.000000"
 preserveAspectRatio="xMidYMid meet">
<metadata>
Created by potrace 1.13, written by Peter Selinger 2001-2015
</metadata>
<g transform="translate(0.000000,2048.000000) scale(0.192120,-0.192120)"
fill="#000000" stroke="none">
<path d="M6233 9600 c-321 -27 -669 -118 -991 -261 -397 -176 -770 -446 -1049
-758 -375 -420 -626 -933 -742 -1516 -69 -345 -81 -524 -81 -1221 0 -316 -2
-574 -5 -574 -3 0 -21 6 -39 14 -19 8 -67 22 -108 31 -65 14 -161 15 -838 13
l-765 -3 -81 -27 c-205 -70 -323 -205 -360 -410 -36 -198 19 -391 145 -511 86
-83 205 -135 346 -152 l55 -7 0 -694 0 -694 -581 -726 c-319 -399 -603 -758
-629 -798 -153 -227 -201 -388 -166 -556 42 -197 164 -326 374 -393 l67 -22
2232 -3 2232 -2 -239 356 -239 356 39 62 c171 273 437 728 427 731 -7 2 -124
38 -262 80 -137 42 -258 79 -267 81 -13 4 -18 15 -18 38 0 45 58 947 66 1016
l5 55 -128 -7 c-291 -17 -659 -115 -915 -244 -91 -46 -228 -133 -311 -197 -73
-57 -78 -62 -56 -68 13 -4 54 -7 90 -8 83 -1 161 24 294 94 290 155 511 232
721 251 62 6 74 4 74 -8 0 -9 9 -18 19 -21 19 -5 20 -20 23 -433 l3 -429 29
-50 c48 -82 108 -130 210 -170 50 -19 95 -35 99 -35 5 0 24 -7 43 -16 60 -29
48 -76 -73 -284 -27 -47 -70 -122 -96 -166 -26 -45 -59 -111 -73 -145 -48
-118 -24 -231 88 -404 71 -112 118 -202 118 -229 0 -39 -31 -48 -199 -57 -131
-7 -172 -13 -256 -39 -119 -37 -252 -70 -280 -70 -12 1 2 12 35 28 75 37 170
129 208 200 61 114 87 296 57 398 -45 155 -106 243 -609 872 -232 290 -453
568 -491 617 -38 50 -72 92 -76 95 -4 3 -50 59 -103 125 l-96 120 0 698 0 697
23 0 c48 1 163 31 223 59 l63 30 5 -32 c2 -18 12 -92 20 -165 49 -408 156
-749 281 -889 27 -31 68 -63 101 -79 47 -23 66 -26 141 -25 184 2 322 39 848
226 160 57 359 125 443 151 151 48 152 49 152 78 0 29 0 29 63 -32 112 -110
227 -184 382 -245 283 -111 717 -125 1040 -32 183 52 391 176 499 296 l46 51
0 -38 0 -39 113 -34 c61 -18 269 -89 461 -158 382 -135 544 -186 675 -209 103
-18 272 -20 332 -4 252 68 353 315 399 975 28 404 42 2132 20 2426 -91 1196
-633 2107 -1583 2664 -492 287 -1128 446 -1624 405z m492 -266 c631 -86 1257
-405 1699 -865 305 -318 512 -666 645 -1084 71 -223 91 -326 91 -474 0 -72 -3
-131 -8 -131 -4 0 -27 25 -50 55 -80 102 -191 182 -314 229 -37 13 -109 45
-160 70 -150 73 -173 77 -528 86 -173 4 -342 13 -375 19 -142 25 -308 41 -521
51 -125 6 -272 17 -328 25 -315 47 -687 175 -1076 369 -189 95 -269 126 -322
126 -93 -1 -168 -56 -449 -326 -255 -247 -266 -253 -438 -265 -168 -12 -208
-22 -321 -75 -52 -26 -140 -61 -194 -80 -159 -54 -282 -149 -369 -285 -69
-108 -70 -107 -65 101 4 166 7 198 36 311 186 739 625 1335 1275 1733 388 238
846 390 1287 426 122 11 344 3 485 -16z m-1203 -1685 c105 -63 476 -241 626
-300 410 -162 672 -224 1022 -239 258 -11 369 -26 543 -72 43 -11 76 -22 75
-24 -2 -1 -66 4 -143 12 -77 8 -284 19 -461 24 -176 6 -415 19 -530 30 -543
52 -560 53 -1019 54 -499 1 -441 7 -702 -74 -70 -22 -132 -40 -138 -40 -11 1
655 659 667 660 4 0 31 -14 60 -31z m2979 -675 c26 -12 65 -38 87 -59 75 -68
73 -41 70 -765 l-3 -645 -25 -49 c-115 -227 -482 -377 -985 -402 -225 -11
-376 19 -675 136 -474 186 -586 185 -1085 -10 -295 -115 -467 -144 -735 -121
-448 39 -782 182 -891 383 l-34 63 -3 620 c-2 432 0 636 8 672 20 92 99 170
195 194 17 4 930 6 2030 6 l2000 -2 46 -21z m-4308 -73 c21 -5 41 -12 44 -15
3 -2 -12 -20 -33 -38 -46 -41 -94 -114 -94 -145 0 -13 -4 -23 -10 -23 -7 0
-10 -173 -10 -500 0 -563 -3 -540 79 -659 l41 -60 -36 -7 c-101 -19 -221 42
-308 155 -243 316 -227 898 32 1172 97 104 195 143 295 120z m4580 -6 c74 -19
120 -49 188 -122 64 -70 118 -173 153 -296 122 -424 -41 -927 -328 -1012 -51
-16 -108 -20 -119 -9 -3 4 10 27 29 52 19 25 49 75 67 111 l32 66 3 466 c3
400 1 475 -12 520 -21 68 -55 125 -105 174 -23 21 -41 42 -41 46 0 7 12 10 65
18 6 0 36 -6 68 -14z m-5119 -1227 c18 -29 45 -73 59 -98 65 -114 166 -208
297 -278 32 -17 66 -45 83 -68 15 -21 56 -115 90 -209 110 -293 210 -495 362
-726 126 -191 256 -344 433 -513 80 -76 79 -90 -8 -133 -76 -37 -525 -200
-656 -237 -181 -52 -328 -69 -391 -45 -80 30 -148 148 -207 359 -15 54 -57
281 -92 493 l-18 107 41 83 c76 151 83 185 83 374 -1 191 -12 242 -85 366 -82
141 -76 110 -73 338 2 157 6 210 17 222 21 26 28 21 65 -35z m5544 -920 c-3
-873 -4 -895 -26 -1003 -46 -232 -91 -326 -176 -370 -44 -22 -63 -25 -152 -25
-168 0 -287 31 -704 182 -299 108 -360 137 -360 169 0 13 46 66 123 142 131
129 197 208 313 370 139 194 295 494 395 759 86 228 109 260 222 318 135 69
235 165 326 313 12 20 27 37 32 37 6 0 9 -331 7 -892z m-4884 546 c68 -104
179 -207 268 -248 167 -77 375 -116 658 -123 225 -6 320 5 477 53 91 27 139
55 230 137 136 121 202 150 384 167 132 13 294 -1 373 -31 71 -26 192 -112
304 -216 16 -15 169 -64 277 -89 113 -27 504 -27 650 0 136 24 251 54 304 78
93 42 198 136 285 257 25 35 46 56 46 48 0 -33 -72 -262 -124 -389 -142 -355
-327 -645 -571 -897 -204 -210 -390 -349 -618 -460 -933 -455 -1983 -119
-2614 835 -195 294 -346 657 -417 999 -6 28 -5 28 18 -10 13 -22 45 -72 70
-111z m-863 -72 c137 -87 211 -244 211 -447 0 -174 -49 -304 -149 -396 -30
-27 -58 -49 -62 -49 -10 0 -51 87 -51 107 0 9 18 51 39 92 100 195 95 339 -18
506 -26 39 -50 81 -53 93 -7 25 18 122 30 122 5 0 28 -13 53 -28z m-237 -186
c69 -21 115 -60 144 -125 54 -118 25 -289 -60 -354 -64 -49 -105 -57 -294 -57
l-174 0 0 -884 0 -884 212 -264 c251 -312 280 -348 288 -348 3 0 22 16 43 36
51 50 77 42 171 -49 82 -81 614 -743 698 -870 134 -200 171 -327 134 -462 -29
-109 -88 -186 -184 -238 -108 -59 -60 -57 -1770 -57 -1363 0 -1575 2 -1631 15
-210 50 -338 233 -301 430 13 70 78 214 132 293 76 113 435 570 612 781 80 95
148 151 183 151 13 0 37 -7 53 -15 28 -15 29 -15 83 48 29 34 143 174 252 310
l198 248 -6 492 c-4 271 -7 664 -7 875 l0 382 -97 0 c-151 1 -275 15 -320 39
-83 42 -133 134 -133 246 0 122 58 217 153 254 50 19 78 20 813 20 628 1 769
-1 808 -13z M4500 6258 c0 -504 4 -542 57 -640 33 -61 124 -148 189 -181 137
-69 299 -99 544 -101 232 -1 323 19 672 150 275 102 337 118 478 118 142 0
204 -16 495 -123 345 -128 495 -159 715 -147 298 15 484 73 602 187 54 53 102
144 117 223 6 28 12 259 13 514 l3 462 -1942 0 -1943 0 0 -462z m3710 322 c0
-15 7 -20 25 -20 l26 0 -3 -412 -3 -413 -34 -50 c-85 -126 -180 -168 -481
-214 -36 -6 -110 -18 -165 -27 -120 -20 -244 -15 -331 15 -34 11 -108 42 -165
69 -142 67 -172 78 -333 120 -134 35 -149 36 -306 36 -161 0 -169 -1 -325 -41
-191 -50 -206 -55 -362 -127 -68 -31 -151 -63 -185 -71 -74 -17 -193 -19 -269
-5 -30 6 -119 22 -199 36 -80 14 -182 37 -227 50 -70 22 -89 34 -140 82 -97
94 -93 69 -93 541 l0 411 45 0 c38 0 45 3 45 20 0 20 7 20 1740 20 1733 0
1740 0 1740 -20z M5400 6327 c-48 -15 -126 -95 -139 -143 -6 -22 -11 -113 -11
-204 0 -189 9 -220 77 -281 52 -47 99 -62 179 -57 78 5 134 40 179 112 29 48
30 53 33 200 3 90 -1 172 -7 202 -31 138 -171 215 -311 171z M7281 6326 c-49
-18 -106 -70 -130 -119 -19 -39 -21 -61 -21 -215 0 -192 7 -221 63 -281 93
-98 263 -94 348 8 49 60 61 121 57 294 -4 167 -11 196 -71 257 -62 64 -162 87
-246 56z M6134 5174 c-16 -8 -38 -28 -47 -43 -21 -36 -22 -122 -2 -161 30 -58
47 -61 351 -58 l276 3 28 32 c57 63 47 176 -19 220 -33 23 -39 23 -295 23
-212 0 -267 -3 -292 -16z M5790 4628 c-114 -32 -170 -155 -121 -265 40 -86
244 -208 433 -258 183 -49 433 -49 616 0 116 31 275 107 353 169 94 75 121
163 78 254 -56 116 -203 137 -313 45 -168 -141 -536 -169 -758 -58 -29 15 -75
44 -103 65 -44 34 -111 62 -140 59 -5 0 -26 -5 -45 -11z M1125 1643 c-353
-442 -446 -572 -490 -680 -56 -140 -10 -269 115 -327 l45 -21 1600 -3 c1757
-2 1660 -6 1737 58 49 41 78 104 85 187 5 63 3 74 -25 128 -51 100 -126 202
-484 652 l-343 431 -950 1 -950 0 -340 -426z m2182 182 c13 -3 39 -20 60 -38
41 -36 532 -645 605 -751 46 -66 48 -73 48 -136 0 -118 193 -105 -1599 -108
-1504 -2 -1557 -2 -1591 17 -31 16 -35 24 -38 61 -2 24 -1 54 2 67 11 41 115
184 354 483 262 327 315 388 353 404 27 11 1759 12 1806 1z M2184 7538 c-54
-17 -126 -80 -153 -132 -29 -57 -39 -150 -22 -213 15 -57 66 -121 124 -157 99
-61 250 -44 331 38 56 56 79 108 84 189 4 61 1 75 -28 133 -33 68 -85 116
-153 141 -39 14 -141 15 -183 1z M1750 6704 c-155 -42 -272 -170 -302 -333
-33 -175 72 -370 239 -449 52 -24 69 -27 168 -27 103 0 114 2 177 32 93 44
151 100 196 191 36 74 37 79 37 187 0 99 -3 116 -27 168 -86 183 -296 282
-488 231z m215 -287 l40 -23 3 -86 c3 -79 1 -88 -22 -115 -63 -75 -236 -63
-286 19 -30 49 -28 147 3 176 59 56 189 70 262 29z M2715 6136 c-93 -43 -165
-153 -165 -251 0 -93 68 -202 154 -248 59 -31 193 -31 252 0 48 25 110 92 129
137 77 184 -56 386 -255 386 -47 0 -79 -7 -115 -24z M5410 3305 l0 -206 59
-192 c140 -459 536 -2018 646 -2545 l7 -32 301 0 302 0 33 148 c103 453 375
1549 472 1902 34 124 71 259 81 300 11 41 44 155 74 252 l55 178 0 201 0 200
-31 -18 c-56 -33 -104 -148 -129 -313 -6 -41 -21 -102 -32 -135 -13 -40 -21
-89 -22 -145 -1 -75 3 -94 31 -158 l31 -72 -81 -44 c-90 -48 -233 -104 -348
-135 -276 -75 -606 -73 -878 6 -138 39 -324 125 -400 182 l-24 18 26 67 c38
94 37 153 -5 326 -6 25 -15 77 -19 115 -12 120 -44 214 -93 273 -53 62 -56 53
-56 -173z m581 -1065 c216 -59 569 -67 803 -16 66 14 121 24 123 22 2 -2 4
-28 4 -57 1 -37 -30 -179 -95 -439 -52 -212 -131 -531 -175 -710 -85 -348 -95
-380 -135 -423 -23 -25 -31 -27 -100 -27 -119 0 -124 10 -216 390 -29 118
-102 413 -162 655 -129 522 -138 562 -131 598 3 15 7 27 9 27 2 0 36 -9 75
-20z M8094 3030 c4 -41 18 -250 31 -465 14 -214 28 -429 31 -476 6 -79 5 -87
-12 -92 -17 -5 -499 -152 -533 -163 -11 -3 -11 -8 1 -27 101 -155 458 -762
454 -772 -2 -7 -101 -156 -218 -331 -117 -175 -221 -331 -231 -346 l-19 -28
1222 0 1221 0 -4 692 c-5 761 -5 766 -68 944 -74 209 -166 352 -344 529 -140
141 -251 224 -425 321 -279 156 -652 262 -990 282 l-122 7 6 -75z m380 -145
c130 -20 211 -45 381 -117 513 -220 834 -503 951 -842 l24 -70 0 -673 0 -674
-923 3 c-1007 3 -965 1 -954 58 3 14 41 82 83 150 104 166 134 242 134 332 0
62 -5 79 -48 171 -27 56 -87 167 -133 247 -109 187 -111 192 -107 225 3 26 10
31 83 55 44 15 100 37 125 49 59 28 129 97 160 157 l25 49 -3 437 c-2 240 -1
442 3 447 9 15 82 14 199 -4z M5370 340 c-10 -6 67 -10 228 -10 160 0 241 3
237 10 -8 13 -445 13 -465 0z M6990 340 c-10 -6 72 -9 240 -9 143 1 244 5 230
9 -36 12 -452 12 -470 0z"/>
</g>
</svg>
