<?xml version="1.0" standalone="no"?>
<!DOCTYPE svg PUBLIC "-//W3C//DTD SVG 20010904//EN"
 "http://www.w3.org/TR/2001/REC-SVG-20010904/DTD/svg10.dtd">
<svg version="1.0" xmlns="http://www.w3.org/2000/svg"
 width="2048.000000pt" height="2048.000000pt" viewBox="0 0 2048.000000 2048.000000"
 preserveAspectRatio="xMidYMid meet">
<metadata>
Created by potrace 1.13, written by Peter Selinger 2001-2015
</metadata>
<g transform="translate(0.000000,2048.000000) scale(0.192120,-0.192120)"
fill="#000000" stroke="none">
<path d="M5170 9629 c-455 -26 -1000 -206 -1415 -468 -330 -209 -647 -506
-868 -814 -310 -433 -508 -961 -582 -1557 -31 -254 -38 -501 -32 -1155 8 -807
26 -1152 83 -1545 83 -582 225 -890 433 -940 60 -14 211 1 339 33 99 26 108
38 76 109 -26 59 -53 68 -194 68 -108 0 -126 3 -168 24 -26 13 -57 35 -69 48
-88 96 -164 334 -212 673 -47 326 -51 405 -51 1040 0 333 4 605 8 605 14 0 36
-30 91 -122 50 -84 135 -190 149 -186 4 2 27 -9 52 -24 25 -15 63 -34 86 -43
46 -18 104 -82 133 -146 10 -24 38 -98 61 -164 126 -359 312 -700 515 -945
140 -169 232 -246 347 -288 61 -23 218 -65 223 -60 2 2 -39 37 -92 78 -113 89
-312 291 -404 410 -240 308 -422 683 -527 1083 l-37 142 -75 0 c-96 1 -156 32
-242 124 -117 124 -185 315 -195 541 -7 153 8 274 48 395 92 276 280 429 469
381 74 -19 100 -35 171 -103 l55 -54 45 39 c24 21 103 85 174 142 82 65 253
226 463 434 l332 330 68 -37 c312 -174 688 -337 970 -421 267 -80 408 -104
680 -116 117 -5 260 -17 319 -25 317 -48 605 -164 807 -325 l83 -67 16 27 c33
55 143 147 199 166 229 78 442 -104 530 -454 19 -72 22 -115 23 -257 0 -146
-4 -183 -23 -260 -51 -195 -161 -362 -284 -431 -48 -26 -62 -29 -144 -29 l-92
0 -26 -107 c-98 -395 -283 -785 -523 -1101 -91 -119 -324 -357 -435 -442 -42
-33 -76 -61 -74 -62 5 -5 173 45 233 70 130 53 238 154 409 382 151 201 311
504 409 775 114 316 125 334 224 364 113 34 229 125 312 248 21 31 43 60 49
63 7 4 10 -275 10 -837 0 -782 -2 -855 -20 -1008 -29 -231 -34 -260 -68 -326
-34 -66 -82 -117 -127 -135 -16 -6 -96 -15 -176 -18 -113 -6 -153 -11 -173
-24 -34 -23 -56 -57 -63 -100 l-5 -35 69 -16 c122 -27 251 -38 333 -26 305 42
415 297 460 1070 24 409 38 1954 20 2255 -50 830 -292 1491 -750 2045 -99 120
-316 333 -440 432 -583 464 -1322 715 -1990 677z m315 -259 c566 -49 1125
-275 1585 -643 124 -99 348 -326 441 -447 246 -318 418 -677 514 -1074 21 -84
25 -126 25 -248 l0 -148 -76 80 c-140 146 -239 194 -390 188 -88 -4 -96 -6
-194 -56 -58 -30 -115 -52 -133 -52 -20 0 -74 24 -147 64 -318 176 -575 243
-1031 266 -301 15 -517 59 -824 168 -192 69 -307 118 -535 229 -290 141 -331
152 -419 113 -79 -36 -143 -91 -406 -350 -249 -245 -384 -366 -470 -423 -52
-35 -91 -34 -185 4 -99 41 -221 50 -305 23 -104 -32 -229 -130 -293 -229 -15
-22 -39 -55 -54 -73 -22 -26 -30 -30 -34 -18 -3 9 -4 89 -2 178 4 140 9 180
35 283 90 350 209 624 389 895 112 169 191 266 342 418 354 359 813 624 1318
761 315 86 579 114 849 91z M4311 6356 c-48 -17 -108 -71 -134 -119 -20 -39
-22 -55 -22 -222 0 -179 0 -180 28 -227 100 -171 336 -161 418 17 16 34 19 66
19 213 0 123 -4 182 -13 205 -48 112 -184 174 -296 133z M6190 6357 c-19 -6
-58 -34 -86 -62 -68 -67 -77 -109 -72 -310 3 -130 6 -155 25 -191 31 -58 84
-101 148 -119 85 -25 166 -2 232 67 56 58 63 89 63 275 0 156 -2 172 -24 219
-49 106 -170 157 -286 121z M5045 5206 c-83 -36 -97 -179 -24 -240 l31 -26
269 0 c298 0 314 3 345 62 22 42 15 139 -12 169 -40 45 -68 49 -331 49 -183
-1 -256 -4 -278 -14z M4665 4647 c-43 -20 -92 -80 -105 -128 -31 -114 51 -215
255 -314 305 -149 703 -147 1011 5 109 54 212 138 234 190 21 50 9 142 -24
184 -41 54 -97 79 -166 74 -47 -3 -66 -11 -120 -50 -142 -100 -243 -130 -435
-130 -192 0 -312 36 -443 135 -48 36 -62 42 -116 44 -37 2 -73 -2 -91 -10z
M4226 3659 c-168 -18 -324 -60 -463 -124 -176 -81 -379 -245 -523 -421 l-58
-70 -94 -23 c-292 -72 -622 -239 -858 -436 -218 -182 -386 -424 -459 -660 -48
-155 -51 -206 -51 -922 l0 -673 3610 0 3611 0 -4 718 c-3 693 -4 720 -25 805
-29 119 -84 254 -148 364 -217 370 -641 673 -1128 803 -61 17 -121 30 -133 30
-16 0 -38 22 -80 78 -123 164 -301 310 -486 397 -112 53 -188 78 -315 105 -96
20 -300 42 -314 33 -5 -2 -8 -127 -8 -277 l0 -273 110 -12 c217 -23 376 -96
512 -234 92 -93 92 -90 -4 -135 -92 -44 -151 -84 -225 -153 -296 -278 -460
-708 -518 -1358 -9 -96 -17 -176 -18 -177 -1 -1 -24 -9 -52 -18 -59 -20 -73
-30 -104 -74 -21 -29 -23 -42 -19 -115 3 -59 10 -95 26 -126 12 -25 22 -59 22
-77 0 -27 -5 -34 -31 -43 -35 -12 -2129 -14 -2183 -2 -51 11 -55 34 -18 99 66
114 131 259 156 346 24 80 26 105 26 265 0 207 -14 275 -84 425 -120 257 -275
391 -430 372 -28 -4 -65 -9 -83 -12 l-31 -6 9 44 c6 23 26 90 46 148 105 310
279 563 477 695 127 83 220 117 378 136 l98 12 -2 276 -3 276 -25 1 c-14 1
-61 -2 -104 -7z m-148 -333 c-2 -10 -35 -30 -84 -50 -116 -48 -252 -144 -375
-266 -121 -121 -198 -229 -300 -425 -93 -178 -109 -197 -163 -193 l-41 3 0 60
c1 107 76 228 295 482 151 175 227 243 333 301 100 56 205 97 273 108 21 3 41
8 43 10 9 8 23 -14 19 -30z m2612 13 c109 -23 280 -107 377 -186 23 -19 71
-69 105 -111 34 -42 65 -79 68 -82 16 -16 104 -125 152 -190 83 -113 178 -196
302 -265 113 -62 221 -146 271 -211 112 -143 187 -302 245 -516 26 -97 30
-131 30 -235 l0 -123 -28 0 c-54 0 -79 42 -118 196 -91 359 -175 526 -359 710
-121 121 -250 171 -420 161 -203 -11 -371 -122 -520 -342 -90 -135 -140 -258
-205 -514 -47 -182 -63 -210 -122 -211 l-28 0 0 123 c0 175 40 325 140 532 74
150 159 259 272 345 190 146 288 274 288 375 0 86 -105 251 -212 335 -29 23
-64 50 -78 61 -14 11 -63 38 -110 61 -47 22 -97 47 -112 54 -14 8 -33 14 -41
14 -8 0 -17 6 -20 14 -12 30 6 30 123 5z m868 -346 c80 -65 138 -101 280 -171
67 -34 153 -81 190 -105 188 -122 394 -333 519 -532 55 -87 121 -237 147 -333
36 -134 48 -285 44 -552 -3 -202 -5 -240 -21 -267 -21 -39 -30 -40 -119 -11
-78 25 -71 6 -88 218 -61 748 -309 1265 -712 1479 -40 22 -98 47 -128 56 l-55
17 -60 124 c-33 68 -59 124 -57 124 1 0 28 -21 60 -47z m-4410 5 c-129 -197
-242 -447 -323 -715 -19 -64 -37 -118 -39 -120 -2 -2 -34 11 -72 29 -54 26
-82 33 -129 33 -54 0 -68 -5 -140 -48 -167 -101 -259 -188 -355 -338 -84 -129
-79 -129 -80 -12 0 95 2 108 31 168 17 36 58 103 92 150 34 46 75 102 91 125
36 52 176 176 275 241 42 28 78 54 81 58 3 4 33 27 68 50 35 24 118 88 185
144 115 95 318 256 326 257 2 0 -3 -10 -11 -22z m4366 -761 c71 -33 156 -113
215 -202 119 -182 208 -525 227 -882 l7 -122 -29 -11 c-73 -26 -124 -62 -124
-87 0 -7 -4 -13 -10 -13 -6 0 -10 -31 -10 -72 0 -54 7 -90 26 -140 29 -78 28
-98 -6 -115 -31 -16 -894 -19 -935 -3 -38 15 -40 34 -11 118 36 106 36 192 0
240 -16 20 -50 45 -82 60 l-55 25 6 131 c14 294 85 602 182 796 90 179 225
292 369 308 84 10 164 -1 230 -31z m-4349 -127 c163 -38 286 -111 413 -244 65
-70 92 -107 132 -189 72 -147 85 -203 85 -377 -1 -170 -13 -229 -81 -366 -104
-213 -295 -370 -529 -436 -105 -29 -316 -32 -414 -5 -257 70 -446 226 -556
458 -104 220 -102 495 5 714 96 197 256 342 462 419 37 14 82 28 100 32 144
26 251 25 383 -6z m3390 -974 c172 -80 217 -300 88 -437 -63 -67 -127 -93
-219 -87 -152 10 -257 119 -257 268 0 161 116 280 273 280 47 0 79 -7 115 -24z
m1813 -2 c134 -67 193 -236 127 -370 -68 -140 -232 -194 -374 -123 -123 61
-177 189 -137 323 38 125 132 194 267 195 51 1 76 -5 117 -25z m-6320 -294
c16 -30 49 -86 71 -125 64 -108 55 -124 -69 -132 l-80 -6 0 175 c0 96 3 178 6
181 9 8 33 -24 72 -93z M2824 1911 c-183 -29 -337 -147 -424 -324 -92 -189
-92 -384 2 -576 173 -352 647 -452 969 -205 99 76 186 216 220 354 22 87 17
232 -10 320 -66 216 -208 355 -426 415 -69 19 -256 28 -331 16z m280 -71 c107
-27 169 -63 252 -145 114 -112 165 -235 165 -395 0 -153 -54 -284 -160 -391
-268 -268 -731 -188 -891 153 -123 263 -41 549 203 709 128 83 280 108 431 69z
M4532 3536 c5 -22 19 -49 31 -59 191 -152 446 -227 767 -227 277 1 501 56 675
166 102 64 112 74 117 122 2 23 0 42 -4 42 -4 0 -40 -13 -80 -29 -276 -108
-509 -148 -797 -138 -228 8 -431 52 -657 140 l-61 24 9 -41z M4342 3051 c-19
-81 -15 -144 12 -203 13 -29 84 -141 159 -248 75 -107 178 -256 230 -330 52
-75 105 -156 117 -180 108 -212 339 -465 445 -484 78 -15 205 80 327 244 139
186 650 927 675 978 23 47 28 69 26 122 -1 36 -8 85 -16 109 l-14 45 -47 -65
c-26 -35 -243 -346 -484 -691 -240 -345 -439 -627 -442 -627 -3 0 -212 297
-465 660 -253 363 -471 674 -485 691 l-26 31 -12 -52z"/>
</g>
</svg>
