<?xml version="1.0" standalone="no"?>
<!DOCTYPE svg PUBLIC "-//W3C//DTD SVG 20010904//EN"
 "http://www.w3.org/TR/2001/REC-SVG-20010904/DTD/svg10.dtd">
<svg version="1.0" xmlns="http://www.w3.org/2000/svg"
 width="2048.000000pt" height="2048.000000pt" viewBox="0 0 2048.000000 2048.000000"
 preserveAspectRatio="xMidYMid meet">
<metadata>
Created by potrace 1.13, written by Peter Selinger 2001-2015
</metadata>
<g transform="translate(0.000000,2048.000000) scale(0.192120,-0.192120)"
fill="#000000" stroke="none">
<path d="M5279 10186 c-3 -4 -3630 -782 -3816 -819 -40 -8 -84 -22 -98 -31
-74 -49 -86 -150 -24 -211 30 -30 59 -41 274 -102 l240 -69 3 -848 2 -848 -34
-39 c-38 -45 -69 -133 -88 -254 -20 -124 -17 -699 5 -895 52 -460 147 -740
253 -740 104 0 198 264 251 705 26 222 26 851 0 980 -21 104 -47 169 -83 206
l-25 26 -1 784 -1 784 74 6 c70 7 87 3 314 -59 132 -36 242 -67 244 -69 2 -1
-8 -51 -22 -110 -52 -218 -70 -465 -43 -592 18 -85 62 -186 106 -241 l30 -38
-20 -93 c-59 -285 -49 -693 25 -1021 52 -232 161 -418 243 -418 53 0 66 22
101 166 75 301 166 480 320 626 119 114 261 177 398 178 44 0 57 -5 95 -36
230 -194 523 -379 678 -429 75 -25 156 -25 197 0 51 30 68 76 67 177 l-1 87
131 -122 c276 -258 454 -386 537 -387 93 -1 75 166 -47 429 l-44 94 32 -26
c142 -114 337 -157 614 -136 209 16 531 88 761 171 l82 29 46 -20 c152 -67
313 -322 420 -664 52 -167 92 -217 157 -195 71 25 159 235 197 470 34 208 45
344 45 588 1 240 -8 319 -50 467 l-15 52 37 48 c51 66 91 156 110 244 29 132
0 462 -55 637 -14 45 -16 64 -8 67 7 2 322 91 702 199 659 187 691 197 724
230 62 62 50 163 -24 212 -14 9 -58 23 -98 31 -40 8 -921 197 -1960 419 -1038
222 -1902 404 -1921 404 -18 0 -35 -2 -37 -4z m146 -321 c96 -12 2567 -545
2596 -561 16 -8 27 -19 24 -23 -10 -17 -101 -54 -235 -97 -279 -89 -2385 -685
-2441 -691 -77 -8 -136 5 -413 88 -271 81 -356 114 -356 140 0 22 9 24 366 54
333 29 379 36 451 70 74 37 177 150 219 241 66 143 38 252 -101 392 -44 43
-92 81 -121 94 -91 40 -96 39 -931 -28 -238 -19 -498 -36 -578 -37 -80 -1
-145 -5 -145 -8 0 -8 -59 2 -65 12 -6 9 22 26 56 33 13 2 38 9 54 15 40 15
1366 298 1447 309 34 5 77 8 93 6 17 -2 53 -6 80 -9z m-35 -523 c75 -37 102
-127 57 -193 -46 -68 7 -61 -1187 -159 -602 -49 -1144 -95 -1205 -101 -60 -6
-220 -18 -355 -28 l-245 -18 -33 28 c-66 58 -223 75 -306 33 -42 -20 -103 -29
-119 -16 -7 6 -40 25 -74 41 -61 30 -61 31 -53 62 20 68 58 85 236 101 172 15
145 25 -96 34 -183 7 -265 21 -340 59 -55 28 -76 59 -66 99 8 32 -27 39 356
-72 162 -46 311 -89 330 -94 27 -8 380 19 1515 114 814 69 1496 126 1515 127
19 0 51 -7 70 -17z m3668 -71 c8 -79 -46 -101 -708 -291 -195 -56 -377 -114
-404 -128 -61 -33 -86 -66 -93 -121 -5 -34 -11 -45 -32 -53 -61 -24 -2468
-708 -2491 -708 -18 0 -2183 614 -2492 707 -24 7 -22 27 5 59 21 24 33 27 122
35 123 11 169 24 213 57 l33 25 177 -48 c97 -26 574 -161 1059 -300 l883 -252
1642 469 c1922 549 2060 588 2073 584 6 -1 11 -17 13 -35z m-4943 -1200 c578
-164 1077 -304 1109 -310 86 -16 160 -13 251 8 44 11 538 150 1097 310 559
160 1035 294 1058 297 l40 7 0 -206 c0 -239 -6 -264 -93 -393 -29 -43 -56 -84
-62 -93 -18 -28 -39 -42 -133 -87 -249 -120 -663 -211 -1167 -258 -310 -29
-844 -41 -1242 -28 -494 17 -674 34 -903 87 -59 14 -172 34 -250 45 -162 24
-232 39 -340 73 -164 52 -345 141 -358 175 -3 10 -20 37 -38 62 -18 25 -51 83
-73 130 l-41 84 0 196 c0 108 3 200 8 204 4 4 25 5 47 2 23 -3 513 -140 1090
-305z m-1085 -524 c255 -166 688 -295 1180 -352 323 -37 514 -47 979 -52 482
-6 760 3 1066 33 637 61 1088 184 1379 374 43 28 80 49 83 46 2 -2 -5 -35 -16
-73 -37 -125 -43 -157 -52 -268 -7 -102 -13 -163 -39 -382 -5 -46 -18 -98 -29
-119 l-20 -37 -29 31 c-16 16 -54 68 -85 115 -97 144 -176 215 -284 253 -96
33 -167 31 -353 -12 -443 -101 -691 -132 -905 -113 -274 23 -326 23 -375 0
-25 -12 -71 -44 -104 -71 -71 -61 -60 -62 -227 28 -158 85 -234 90 -351 22
-104 -60 -136 -66 -216 -40 -37 12 -137 53 -222 92 -432 195 -442 198 -600
198 -126 0 -209 -13 -304 -46 -132 -46 -204 -109 -311 -270 -55 -83 -81 -114
-96 -114 -42 0 -65 114 -78 375 -8 174 -11 190 -86 426 -8 25 -15 28 95 -44z
m-1011 -521 c8 -10 11 -155 9 -539 -3 -475 -5 -528 -20 -543 -15 -15 -17 -14
-32 14 -14 27 -16 95 -16 546 0 480 1 516 18 525 23 14 28 13 41 -3z M2769
6468 c-80 -101 -138 -253 -160 -414 -15 -117 -6 -305 21 -414 30 -122 106
-272 172 -341 51 -54 139 -109 172 -109 17 0 17 1 41 -150 62 -385 229 -813
449 -1150 143 -217 362 -458 558 -614 l98 -77 2 -318 3 -318 54 14 c30 7 62
23 72 35 11 11 19 17 20 12 0 -5 4 0 9 11 16 37 10 154 -11 241 -12 46 -19 87
-17 90 3 3 43 -23 89 -56 272 -197 652 -295 1079 -276 387 17 660 103 913 289
37 27 70 48 72 45 3 -2 -3 -36 -12 -74 -25 -106 -28 -226 -7 -259 20 -31 56
-51 113 -64 l41 -9 0 322 1 321 81 60 c108 79 325 294 425 421 216 273 368
558 483 904 55 164 111 390 125 505 10 81 15 95 31 95 19 0 90 36 131 67 48
37 111 126 153 217 125 268 118 648 -17 896 -38 70 -92 144 -100 136 -3 -2 3
-61 12 -130 13 -97 16 -174 12 -338 -7 -347 -43 -451 -217 -633 -74 -78 -142
-173 -164 -231 -8 -22 -27 -88 -41 -149 -46 -196 -244 -730 -335 -903 -99
-188 -233 -347 -503 -595 -105 -97 -181 -190 -207 -255 -8 -21 -11 -53 -7 -92
l7 -59 -58 -36 c-192 -121 -484 -222 -754 -260 -136 -19 -398 -19 -539 1 -268
37 -601 155 -774 274 -42 29 -42 29 -32 69 8 29 7 50 -1 80 -17 56 -102 179
-159 231 -205 186 -256 238 -338 345 -278 363 -435 712 -540 1199 -14 65 -37
141 -51 169 -31 63 -110 161 -168 210 -88 73 -142 175 -180 339 -26 109 -19
633 9 756 9 36 -12 25 -56 -30z M4120 6423 c-27 -10 -65 -37 -96 -68 -74 -74
-84 -114 -84 -330 0 -207 10 -251 75 -323 63 -70 127 -96 221 -90 111 7 189
61 236 163 22 47 23 62 23 250 0 199 0 200 -28 257 -64 131 -208 189 -347 141z
M6344 6424 c-60 -21 -119 -77 -151 -142 -28 -57 -28 -58 -28 -262 0 -203 0
-205 27 -256 50 -95 126 -145 233 -152 93 -6 158 21 220 90 65 72 75 116 75
323 0 216 -10 256 -83 330 -80 80 -190 106 -293 69z M5032 5239 c-148 -74
-159 -272 -19 -363 53 -33 103 -38 362 -34 239 3 250 6 309 64 43 44 60 84 60
144 1 70 -33 133 -92 175 l-44 30 -266 3 c-256 2 -269 2 -310 -19z M4384 4260
c-51 -11 -98 -46 -123 -90 -31 -55 -27 -140 9 -189 51 -73 210 -150 403 -196
160 -38 313 -55 557 -62 447 -12 786 39 1018 153 105 52 157 103 170 168 16
80 -8 142 -75 193 -31 24 -46 28 -98 28 -54 0 -67 -4 -116 -37 -110 -76 -305
-120 -616 -140 -139 -9 -227 -9 -365 0 -304 19 -490 60 -616 135 -63 38 -101
48 -148 37z M2865 2534 c-189 -29 -333 -76 -510 -164 -406 -204 -718 -578
-845 -1012 -57 -197 -62 -242 -67 -650 l-5 -378 3892 0 3892 0 -5 378 c-5 407
-10 455 -67 648 -79 272 -219 504 -430 714 -131 131 -258 222 -425 305 -148
73 -265 114 -421 147 -105 22 -129 23 -720 26 l-611 3 -7 -47 c-8 -62 -33
-100 -115 -176 -214 -198 -705 -358 -1094 -358 -526 1 -1170 285 -1203 530
l-7 50 -581 -1 c-443 -1 -602 -4 -671 -15z m1035 -121 c44 -24 101 -72 176
-147 184 -185 217 -211 359 -280 448 -221 728 -279 1110 -231 189 23 289 54
560 173 206 90 294 143 374 227 170 179 228 231 299 269 40 21 75 36 78 34 13
-14 -111 -320 -215 -528 -175 -350 -343 -605 -569 -863 -192 -219 -458 -431
-675 -538 l-66 -33 -62 30 c-76 36 -272 163 -354 229 -358 290 -667 700 -917
1215 -80 165 -198 456 -198 488 0 7 31 -7 100 -45z m-256 -173 c35 -13 76 -80
131 -214 146 -353 189 -438 350 -686 144 -222 251 -357 459 -578 100 -106 111
-130 66 -143 -14 -4 -228 -7 -476 -8 l-452 -1 -22 46 c-12 26 -33 106 -46 178
-36 187 -74 264 -166 337 -63 50 -107 52 -164 10 -51 -37 -105 -97 -132 -144
-25 -43 -65 -174 -83 -266 -7 -38 -24 -81 -43 -110 l-31 -46 -70 -3 -71 -3
-23 43 c-13 24 -34 100 -48 172 -37 196 -71 266 -170 349 -61 50 -104 51 -167
2 -111 -84 -149 -152 -199 -354 -25 -99 -44 -154 -62 -177 l-26 -34 -240 0
-239 0 0 274 c0 213 3 290 16 343 122 533 612 945 1204 1012 107 12 673 13
704 1z m4064 -1 c453 -49 847 -291 1065 -655 48 -80 90 -180 122 -289 24 -85
25 -96 25 -386 l0 -299 -240 0 -239 0 -25 43 c-13 23 -34 86 -45 141 -41 190
-75 267 -149 340 -105 103 -153 102 -262 -6 -63 -63 -97 -139 -126 -281 -27
-135 -38 -169 -68 -209 -18 -26 -25 -28 -88 -28 -68 0 -68 0 -92 38 -13 21
-32 74 -41 118 -53 244 -99 336 -209 416 -56 41 -96 38 -162 -12 -100 -75
-141 -153 -178 -341 -15 -77 -34 -144 -49 -170 l-25 -44 -445 -3 c-275 -1
-455 2 -471 8 -47 18 -33 45 97 178 304 316 563 713 722 1107 73 184 132 301
161 324 26 20 38 21 326 21 164 0 342 -5 396 -11z m-5110 -1193 c26 -57 57
-280 77 -558 l7 -88 -56 26 c-62 28 -91 27 -160 -8 l-38 -20 6 74 c39 424 113
685 164 574z m832 5 c25 -48 62 -310 76 -539 l7 -112 -54 25 c-66 31 -71 31
-136 0 l-53 -24 0 57 c0 150 68 532 105 588 19 29 41 31 55 5z m3860 -13 c35
-58 84 -319 105 -561 l7 -78 -39 19 c-68 35 -97 36 -159 8 l-56 -26 6 88 c29
379 64 582 102 582 8 0 23 -14 34 -32z m823 14 c24 -26 44 -90 67 -210 21
-115 50 -344 50 -404 l0 -37 -52 24 c-66 31 -70 31 -137 0 l-54 -26 7 133 c11
226 51 492 78 526 14 16 22 15 41 -6z M6328 1865 c-35 -12 -125 -49 -200 -83
-254 -114 -458 -161 -734 -169 -211 -6 -336 5 -514 48 -168 41 -247 70 -510
190 -24 12 -68 23 -96 26 -44 5 -55 2 -73 -16 -28 -28 -24 -33 87 -109 216
-147 432 -233 712 -284 154 -28 485 -30 635 -4 283 48 509 135 716 274 128 86
133 91 114 119 -21 30 -65 32 -137 8z"/>
</g>
</svg>
