<?xml version="1.0" standalone="no"?>
<!DOCTYPE svg PUBLIC "-//W3C//DTD SVG 20010904//EN"
 "http://www.w3.org/TR/2001/REC-SVG-20010904/DTD/svg10.dtd">
<svg version="1.0" xmlns="http://www.w3.org/2000/svg"
 width="2048.000000pt" height="2048.000000pt" viewBox="0 0 2048.000000 2048.000000"
 preserveAspectRatio="xMidYMid meet">
<metadata>
Created by potrace 1.13, written by Peter Selinger 2001-2015
</metadata>
<g transform="translate(0.000000,2048.000000) scale(0.192120,-0.192120)"
fill="#000000" stroke="none">
<path d="M5115 9914 c-322 -24 -587 -74 -833 -158 -843 -287 -1409 -967 -1493
-1796 -21 -206 1 -544 51 -782 55 -265 175 -466 265 -444 37 10 54 44 86 178
89 371 250 710 462 974 68 84 281 294 298 294 6 0 59 -38 117 -85 142 -114
365 -263 477 -319 119 -59 192 -79 268 -74 52 4 64 9 88 36 39 43 53 102 44
186 l-7 70 137 -132 c220 -212 411 -357 508 -383 31 -8 43 -7 63 6 52 34 20
198 -81 413 -24 50 -42 92 -39 92 2 0 29 -20 58 -44 226 -184 736 -312 1331
-334 l180 -7 210 -414 c231 -455 263 -505 328 -505 47 0 79 30 117 109 80 168
123 491 124 925 0 240 -1 263 -26 381 -153 712 -713 1330 -1478 1628 -212 83
-418 135 -661 166 -110 15 -491 27 -594 19z m565 -310 c397 -47 764 -177 1075
-382 151 -99 206 -142 329 -262 226 -218 371 -440 464 -710 l37 -105 3 -439
c3 -446 0 -496 -34 -496 -22 0 -58 57 -150 235 -77 149 -97 180 -163 248 -115
119 -150 133 -386 152 -485 39 -749 93 -1060 217 -202 81 -244 69 -400 -114
-8 -10 -15 -23 -15 -28 0 -7 -6 -7 -19 -1 -10 6 -21 8 -24 5 -3 -3 -54 31
-113 77 -155 117 -230 148 -287 118 -12 -7 -59 -43 -106 -80 -73 -60 -90 -69
-125 -69 -73 0 -180 61 -508 289 -105 74 -185 110 -243 111 -82 0 -206 -78
-339 -214 -164 -168 -282 -339 -417 -605 -44 -88 -86 -165 -93 -170 -9 -8 -18
-6 -32 3 -18 14 -19 33 -22 348 -4 370 0 408 55 583 169 530 606 944 1221
1156 402 138 896 187 1352 133z M2778 7031 c-108 -119 -178 -345 -178 -571 0
-320 129 -601 318 -692 37 -17 69 -33 71 -34 2 -2 12 -56 22 -120 92 -565 354
-1114 721 -1509 144 -155 330 -315 421 -364 26 -14 29 -13 57 14 37 35 37 55
3 124 -28 55 -92 124 -278 302 -139 131 -294 335 -389 509 -177 323 -247 514
-339 922 -31 137 -62 189 -197 332 -186 198 -205 262 -204 691 0 160 6 324 12
365 6 41 10 76 8 78 -2 1 -24 -20 -48 -47z M7860 7045 c0 -5 7 -60 15 -122 12
-90 13 -155 6 -332 -5 -121 -11 -224 -14 -228 -3 -5 -10 -37 -16 -70 -16 -98
-71 -198 -167 -304 -84 -92 -145 -173 -177 -235 -9 -18 -32 -94 -51 -170 -50
-205 -222 -673 -322 -877 -66 -136 -208 -328 -327 -443 -270 -261 -311 -303
-348 -358 -48 -72 -52 -115 -13 -151 15 -14 31 -25 37 -25 25 0 185 121 292
220 342 316 616 752 766 1218 37 117 93 349 109 452 6 41 13 84 15 96 3 13 22
28 59 43 308 128 438 739 242 1141 -34 70 -105 167 -106 145z M4148 6986 c-96
-26 -173 -104 -199 -200 -6 -23 -9 -117 -7 -230 3 -174 5 -195 25 -232 35 -66
70 -101 130 -131 141 -69 303 -10 375 136 22 43 23 58 23 251 0 193 -1 208
-23 251 -62 126 -197 191 -324 155z M6368 6987 c-77 -22 -143 -80 -181 -157
-20 -42 -22 -59 -22 -250 0 -188 2 -209 21 -250 68 -144 236 -205 377 -137 60
30 95 65 130 131 21 39 22 54 22 256 0 202 -1 217 -22 256 -35 65 -70 101
-126 128 -65 31 -138 40 -199 23z M5072 5811 c-74 -19 -140 -89 -157 -169 -4
-18 -1 -56 6 -84 14 -62 77 -131 136 -148 25 -8 124 -10 295 -8 l256 3 44 30
c59 42 93 105 92 175 0 60 -17 100 -60 144 -60 59 -67 61 -334 63 -135 1 -260
-2 -278 -6z M6187 4816 c-22 -8 -49 -23 -60 -34 -48 -45 -220 -97 -412 -124
-122 -18 -648 -18 -770 0 -195 28 -307 63 -445 138 -53 29 -107 31 -158 5 -69
-36 -102 -88 -102 -162 0 -110 84 -184 294 -258 200 -71 451 -103 796 -103
336 0 562 27 770 94 167 53 280 126 310 198 20 49 9 142 -23 183 -45 60 -133
87 -200 63z M4005 3649 c-312 -45 -579 -188 -817 -438 l-103 -108 -115 -6
c-307 -15 -641 -147 -905 -357 -94 -75 -228 -216 -305 -320 -127 -172 -241
-429 -284 -640 -31 -155 -36 -274 -36 -860 l0 -590 3890 0 3890 0 0 590 c0
721 -7 801 -90 1051 -191 575 -693 1008 -1287 1109 -63 11 -148 20 -188 20
l-73 0 -35 48 c-20 26 -78 89 -131 140 -231 223 -530 351 -863 369 l-113 6 0
-275 0 -275 103 -11 c138 -15 206 -34 313 -87 91 -44 214 -145 264 -216 l21
-28 -75 -35 c-370 -170 -624 -607 -720 -1236 -15 -95 -46 -397 -46 -441 0 -13
-10 -20 -35 -25 -44 -8 -125 -59 -125 -79 0 -8 -4 -15 -10 -15 -6 0 -10 -33
-10 -77 0 -59 6 -96 27 -154 29 -83 27 -104 -13 -119 -17 -7 -448 -9 -1249 -8
-1293 3 -1255 2 -1255 47 0 9 22 53 50 99 60 100 100 190 134 303 24 78 26 99
26 270 0 146 -4 198 -19 254 -46 177 -169 383 -279 471 -79 62 -143 80 -241
66 -42 -6 -78 -9 -80 -6 -17 16 71 269 144 416 180 362 427 559 755 599 l100
13 0 273 0 273 -77 -1 c-43 -1 -105 -5 -138 -10z m-278 -421 c-3 -8 -6 -5 -6
6 -1 11 2 17 5 13 3 -3 4 -12 1 -19z m-20 -10 c-3 -8 -6 -5 -6 6 -1 11 2 17 5
13 3 -3 4 -12 1 -19z m-17 -1 c0 -7 -17 -27 -37 -43 -76 -59 -175 -155 -258
-249 -51 -58 -154 -222 -224 -356 -84 -160 -103 -182 -157 -177 -39 3 -39 4
-42 48 -5 75 69 231 168 355 51 63 267 265 360 336 48 36 161 97 183 99 4 0 7
-6 7 -13z m3459 -64 c53 -36 197 -165 272 -241 19 -21 69 -82 111 -138 93
-124 177 -201 271 -250 294 -153 450 -372 552 -772 19 -76 25 -123 25 -214 l0
-118 -31 0 c-56 0 -76 36 -124 225 -83 328 -170 500 -344 674 -127 128 -250
177 -421 168 -201 -10 -347 -101 -512 -319 -84 -111 -160 -298 -224 -548 -40
-161 -63 -200 -117 -200 l-29 0 5 148 c4 128 9 160 36 252 92 300 197 465 401
625 125 98 188 166 230 248 43 84 39 140 -17 242 -41 75 -224 281 -237 267 -3
-3 -6 2 -6 11 0 15 5 15 52 -3 29 -11 77 -37 107 -57z m-4149 -174 c-104 -160
-212 -392 -286 -614 -36 -110 -67 -201 -68 -203 -2 -1 -34 12 -71 29 -95 45
-147 48 -216 14 -207 -105 -354 -253 -459 -463 -80 -161 -85 -188 -85 -442 l0
-225 31 -85 c35 -97 77 -182 134 -276 22 -35 40 -75 40 -89 0 -34 -47 -45
-202 -45 l-128 0 0 565 c0 372 4 582 11 617 30 146 112 340 185 439 19 26 34
50 34 54 0 15 62 95 129 167 91 97 188 176 293 238 46 27 89 54 96 60 13 11
188 100 197 100 2 0 57 35 122 77 127 83 296 183 301 178 2 -1 -25 -45 -58
-96z m4962 -88 c221 -93 374 -189 528 -329 213 -193 360 -414 445 -667 53
-156 55 -188 55 -731 0 -497 0 -504 -20 -504 -17 0 -20 -7 -20 -40 l0 -40 -52
1 c-115 2 -126 21 -84 139 25 69 37 210 18 210 -4 0 -13 14 -21 31 -13 29 -59
57 -132 82 -13 4 -17 28 -23 119 -53 860 -362 1450 -844 1612 -63 22 -64 22
-91 86 -15 36 -46 97 -69 137 -23 39 -42 74 -42 77 0 2 52 -26 115 -63 63 -38
170 -92 237 -120z m-298 -660 c74 -36 166 -128 218 -217 112 -192 194 -524
214 -865 l7 -116 -57 -23 c-35 -14 -68 -36 -86 -59 -27 -32 -30 -42 -30 -108
0 -55 6 -89 26 -137 14 -36 24 -73 22 -83 -8 -40 -34 -43 -489 -43 -240 0
-451 3 -468 6 -44 9 -48 39 -17 127 27 76 37 207 16 207 -5 0 -10 6 -10 13 0
21 -40 54 -94 78 l-49 21 6 137 c21 447 159 857 340 1005 130 107 305 129 451
57z m-4744 -102 c202 -25 366 -104 501 -241 157 -159 238 -359 239 -585 0
-235 -90 -446 -260 -606 -411 -388 -1082 -260 -1324 254 -59 125 -71 184 -71
359 1 148 2 159 33 250 63 184 181 337 337 439 118 77 246 120 405 135 19 1
40 4 45 4 6 1 49 -3 95 -9z m3775 -993 c167 -79 214 -294 93 -431 -113 -129
-303 -129 -416 0 -156 177 -28 455 208 455 48 0 78 -7 115 -24z m1813 -2 c173
-86 206 -334 60 -458 -150 -129 -396 -57 -449 132 -37 133 43 293 169 338 64
23 161 18 220 -12z M2680 1910 c-234 -37 -426 -235 -476 -489 -45 -229 52
-488 230 -620 237 -176 555 -176 792 0 179 132 275 392 230 619 -48 241 -197
404 -428 471 -83 23 -259 33 -348 19z m324 -79 c83 -29 142 -66 209 -130 113
-107 171 -241 170 -396 0 -157 -52 -284 -163 -395 -110 -110 -232 -160 -390
-160 -155 0 -282 52 -390 160 -112 112 -164 238 -163 400 0 160 56 285 177
397 75 70 141 107 238 133 92 25 224 21 312 -9z M4350 3606 c1 0 9 -26 19 -56
17 -49 27 -61 99 -116 146 -111 312 -183 508 -219 134 -26 477 -31 630 -11
252 33 450 116 623 260 32 27 50 52 62 89 10 29 18 53 19 54 0 1 -39 -17 -87
-39 -493 -228 -981 -267 -1483 -117 -57 16 -167 59 -246 93 -79 35 -144 63
-144 62z M4223 3053 c-14 -50 -8 -146 12 -183 24 -47 98 -143 363 -475 123
-154 231 -293 239 -310 32 -62 156 -216 252 -311 194 -195 275 -201 447 -29
76 75 747 905 846 1045 57 82 72 127 65 200 -10 118 24 154 -568 -586 -298
-373 -545 -679 -549 -679 -3 0 -250 305 -548 678 -298 372 -544 677 -547 677
-2 0 -8 -12 -12 -27z"/>
</g>
</svg>
