<?xml version="1.0" standalone="no"?>
<!DOCTYPE svg PUBLIC "-//W3C//DTD SVG 20010904//EN"
 "http://www.w3.org/TR/2001/REC-SVG-20010904/DTD/svg10.dtd">
<svg version="1.0" xmlns="http://www.w3.org/2000/svg"
 width="2048.000000pt" height="2048.000000pt" viewBox="0 0 2048.000000 2048.000000"
 preserveAspectRatio="xMidYMid meet">
<metadata>
Created by potrace 1.13, written by Peter Selinger 2001-2015
</metadata>
<g transform="translate(0.000000,2048.000000) scale(0.192120,-0.192120)"
fill="#000000" stroke="none">
<path d="M4945 10039 c-770 -58 -1456 -292 -1984 -677 -713 -520 -1156 -1291
-1232 -2142 -13 -148 -7 -534 11 -705 48 -455 145 -783 283 -957 47 -60 91
-88 138 -88 59 0 92 46 119 167 140 632 377 1138 728 1555 109 128 350 358
376 358 4 0 44 -31 89 -68 426 -354 801 -579 1036 -622 188 -34 293 75 278
290 -4 47 -10 96 -13 110 -5 17 49 -30 168 -146 355 -347 633 -556 768 -579
83 -13 119 49 100 175 -14 96 -74 275 -144 431 -31 67 -54 124 -52 126 1 2 23
-14 47 -35 323 -283 1062 -470 2002 -508 l168 -7 299 -597 c253 -506 307 -606
350 -653 61 -67 103 -84 152 -64 183 77 301 652 302 1477 1 352 -2 388 -51
610 -194 889 -871 1706 -1788 2159 -452 224 -899 345 -1440 391 -139 11 -550
11 -710 -1z m568 -269 c217 -11 308 -20 497 -51 1008 -167 1883 -742 2362
-1554 110 -186 203 -412 258 -629 l40 -157 0 -574 c0 -602 -3 -661 -49 -877
-20 -96 -42 -141 -66 -131 -29 10 -71 86 -286 513 l-214 425 -81 82 c-121 123
-142 131 -406 149 -754 51 -1196 143 -1618 337 -182 83 -238 102 -284 93 -43
-8 -119 -72 -156 -129 -29 -46 -30 -52 -30 -165 0 -82 -4 -124 -13 -136 -13
-17 -17 -15 -73 30 -32 26 -128 109 -212 183 -240 214 -326 262 -399 227 -54
-26 -141 -114 -178 -181 -34 -59 -79 -115 -93 -115 -23 1 -117 32 -181 60
-149 65 -357 201 -670 438 -182 138 -272 163 -383 109 -201 -98 -534 -467
-743 -822 -114 -195 -266 -519 -315 -675 -35 -110 -81 -225 -95 -239 -42 -42
-94 98 -135 367 -17 112 -20 179 -20 567 0 463 3 498 51 702 57 239 199 566
339 778 304 460 744 824 1279 1057 426 186 927 295 1451 317 96 5 186 8 200 9
14 1 114 -3 223 -8z M1748 5693 c-280 -301 -384 -890 -243 -1378 58 -200 144
-355 265 -476 82 -82 186 -143 269 -157 l44 -7 32 -150 c123 -570 352 -1104
662 -1542 173 -246 425 -516 638 -687 547 -438 1158 -666 1835 -683 507 -13
947 82 1395 302 327 160 584 344 846 605 527 525 891 1226 1062 2045 l23 110
45 7 c175 30 367 218 473 464 202 466 149 1109 -121 1472 -26 35 -49 59 -51
53 -10 -29 35 -242 78 -376 27 -82 53 -174 59 -203 6 -30 11 -164 11 -308 l0
-254 -49 -148 c-93 -284 -181 -408 -366 -519 -156 -92 -194 -144 -235 -323
-54 -236 -93 -355 -186 -575 -53 -126 -119 -284 -146 -350 -66 -162 -115 -260
-195 -388 -115 -182 -242 -345 -373 -477 -567 -572 -1153 -874 -1855 -955
-171 -20 -501 -19 -674 1 -665 77 -1239 359 -1769 868 -104 99 -314 364 -425
536 -234 363 -406 771 -527 1255 -24 94 -56 195 -71 226 -34 69 -94 123 -206
186 -47 26 -104 67 -128 90 -102 98 -183 244 -230 409 -26 91 -26 91 -23 435
l3 344 27 77 c15 42 47 121 71 175 24 54 51 130 60 168 17 74 30 175 24 175
-2 0 -24 -21 -49 -47z M3855 5593 c-68 -25 -107 -54 -144 -109 -48 -73 -53
-120 -49 -466 4 -349 4 -351 76 -430 108 -120 296 -118 409 5 71 77 74 103 71
484 l-3 328 -30 53 c-67 123 -206 179 -330 135z M6659 5604 c-82 -15 -184
-114 -209 -202 -6 -22 -10 -167 -10 -348 0 -358 4 -387 73 -461 113 -123 301
-125 409 -5 74 82 73 76 73 462 0 380 0 377 -65 460 -54 68 -176 110 -271 94z
M4944 3641 c-187 -85 -226 -334 -72 -465 73 -63 94 -66 458 -66 364 0 385 3
458 66 154 131 115 380 -72 465 -38 17 -70 19 -386 19 -316 0 -348 -2 -386
-19z M6649 2551 c-36 -11 -65 -28 -115 -66 -114 -88 -418 -163 -789 -195 -166
-15 -663 -15 -825 -1 -381 34 -662 104 -803 200 -77 53 -116 64 -196 59 -103
-8 -181 -59 -229 -152 -21 -41 -26 -65 -25 -121 0 -116 47 -188 171 -266 317
-200 889 -301 1617 -286 574 12 967 85 1274 234 189 93 271 192 271 329 0 173
-187 314 -351 265z m-2544 -331 c106 -50 225 -100 225 -95 0 2 17 -3 37 -12
21 -8 49 -17 63 -19 14 -2 36 -7 50 -11 14 -3 29 -5 33 -5 15 4 48 -19 42 -29
-8 -11 -45 -12 -45 0 0 4 -11 6 -25 3 -14 -2 -25 0 -25 7 0 5 -6 8 -14 5 -7
-3 -38 1 -67 9 -30 8 -62 13 -72 11 -9 -1 -17 2 -17 8 0 6 -7 8 -15 4 -8 -3
-15 -1 -15 4 0 5 -6 7 -13 4 -28 -10 -258 86 -286 120 -7 9 -10 23 -7 32 8 21
50 12 151 -36z m2602 42 c18 -11 -25 -55 -82 -85 -66 -34 -193 -78 -227 -79
-16 -1 -28 -4 -28 -9 0 -4 -8 -6 -17 -5 -10 2 -42 -3 -72 -11 -29 -8 -60 -12
-67 -9 -8 3 -14 1 -14 -5 0 -6 -10 -9 -22 -8 -13 1 -31 -2 -41 -6 -27 -11 -44
10 -19 24 10 6 22 8 25 5 3 -3 14 -1 24 4 10 5 34 12 53 15 56 9 175 54 310
118 122 57 153 66 177 51z m-2094 -217 c1 -6 -8 -11 -20 -13 -18 -3 -23 2 -23
17 0 16 4 19 21 13 11 -5 21 -12 22 -17z m1477 5 c0 -13 -7 -20 -19 -20 -41 0
-29 28 17 39 1 1 2 -8 2 -19z m-1406 -9 c3 -5 -1 -12 -10 -15 -25 -10 -34 -7
-34 9 0 16 35 21 44 6z m1336 -6 c0 -16 -9 -19 -34 -9 -20 8 -11 24 15 24 10
0 19 -7 19 -15z m-1265 -1 c13 -5 14 -8 3 -15 -20 -13 -38 -11 -38 6 0 16 9
19 35 9z m1185 -9 c0 -16 -9 -19 -34 -9 -20 8 -11 24 15 24 10 0 19 -7 19 -15z
m-1086 -4 c3 -5 -1 -12 -10 -15 -25 -10 -34 -7 -34 9 0 16 35 21 44 6z m996
-6 c0 -16 -9 -19 -34 -9 -20 8 -11 24 15 24 10 0 19 -7 19 -15z m-870 -5 c8
-5 11 -10 5 -10 -5 0 -20 -3 -32 -6 -17 -5 -23 -2 -23 10 0 18 27 21 50 6z
m750 -6 c0 -12 -6 -15 -22 -10 -13 3 -30 6 -38 7 -10 0 -8 3 5 9 32 14 55 11
55 -6z m-200 -9 c0 -6 -73 -10 -200 -10 -127 0 -200 4 -200 10 0 6 73 10 200
10 127 0 200 -4 200 -10z"/>
</g>
</svg>
