<?xml version="1.0" standalone="no"?>
<!DOCTYPE svg PUBLIC "-//W3C//DTD SVG 20010904//EN"
 "http://www.w3.org/TR/2001/REC-SVG-20010904/DTD/svg10.dtd">
<svg version="1.0" xmlns="http://www.w3.org/2000/svg"
 width="2048.000000pt" height="2048.000000pt" viewBox="0 0 2048.000000 2048.000000"
 preserveAspectRatio="xMidYMid meet">
<metadata>
Created by potrace 1.13, written by Peter Selinger 2001-2015
</metadata>
<g transform="translate(0.000000,2048.000000) scale(0.192120,-0.192120)"
fill="#000000" stroke="none">
<path d="M5085 10043 c-1110 -93 -2237 -669 -2993 -1528 -745 -847 -1146
-1912 -1202 -3195 -21 -473 -10 -1656 20 -2275 57 -1163 215 -1917 470 -2247
98 -126 195 -180 340 -186 241 -10 535 63 1175 295 589 214 1064 364 1088 345
17 -14 239 -124 317 -157 175 -75 431 -147 645 -182 159 -26 612 -26 770 0
334 56 655 165 910 309 l70 40 130 -37 c204 -58 530 -167 900 -300 726 -262
909 -309 1205 -310 142 0 186 3 235 18 201 62 337 215 419 472 146 451 186
1143 189 3235 2 1128 0 1197 -59 1599 -159 1105 -594 2017 -1309 2749 -735
754 -1780 1259 -2795 1351 -105 10 -429 12 -525 4z m695 -261 c778 -118 1505
-442 2130 -951 125 -102 447 -421 547 -542 172 -208 327 -429 446 -640 131
-232 235 -426 269 -504 128 -293 242 -692 308 -1080 64 -379 62 -300 57 -2155
-4 -1698 -5 -1735 -42 -2105 -38 -374 -75 -526 -176 -727 -77 -153 -182 -208
-401 -208 -225 0 -459 58 -1023 252 -287 100 -564 183 -675 204 -67 13 -118
15 -244 10 l-159 -7 119 87 c698 508 1215 1267 1499 2200 157 516 251 1193
200 1449 -63 317 -237 610 -490 825 -325 276 -773 457 -1300 525 -66 9 -237
20 -380 25 -286 11 -396 23 -623 70 -514 105 -1203 374 -1770 691 -67 38 -126
69 -130 69 -3 0 -227 -220 -497 -488 -329 -328 -538 -527 -635 -607 -387 -317
-480 -405 -579 -546 -165 -233 -243 -528 -221 -836 89 -1216 563 -2313 1316
-3043 134 -129 243 -221 396 -333 l117 -85 -177 4 c-149 3 -189 1 -252 -15
-131 -33 -318 -91 -555 -173 -126 -44 -252 -87 -280 -96 -27 -8 -104 -32 -170
-53 -254 -80 -489 -129 -621 -129 -167 0 -261 80 -354 302 -97 232 -174 590
-229 1058 -57 479 -54 405 -58 1985 -4 1614 -7 1515 57 1895 168 981 614 1844
1293 2496 681 654 1567 1077 2492 1189 167 21 620 13 795 -13z m-1568 -2828
c753 -374 1378 -583 1928 -643 52 -6 196 -15 320 -21 307 -14 502 -38 695 -86
450 -112 809 -314 1042 -587 143 -166 248 -343 288 -480 26 -89 17 -625 -13
-782 -11 -60 -25 -121 -30 -135 -9 -23 -30 -124 -69 -325 -34 -180 -93 -364
-177 -550 -35 -77 -72 -160 -82 -185 -45 -108 -189 -386 -261 -505 -231 -385
-581 -790 -862 -1001 -97 -73 -149 -98 -277 -135 -59 -17 -188 -66 -285 -110
-404 -179 -643 -236 -1027 -246 -430 -11 -730 51 -1159 240 -166 74 -260 108
-333 123 -179 35 -549 356 -838 728 -140 180 -332 486 -441 704 -169 338 -313
770 -395 1182 -62 318 -68 380 -64 735 l3 320 33 85 c64 168 164 312 318 461
44 41 187 165 319 274 194 161 319 278 651 607 226 224 422 412 435 417 53 21
86 12 281 -85z M3857 5316 c-99 -36 -166 -112 -187 -211 -7 -34 -10 -164 -8
-362 3 -300 4 -309 27 -361 43 -96 145 -162 251 -162 75 0 139 27 197 85 80
80 83 99 83 470 0 371 -3 390 -83 470 -79 78 -184 105 -280 71z m103 -546 c0
-273 0 -280 -20 -280 -20 0 -20 7 -20 280 0 273 0 280 20 280 20 0 20 -7 20
-280z M6620 5313 c-66 -24 -144 -107 -164 -173 -23 -76 -23 -651 -1 -726 30
-103 130 -183 239 -191 120 -10 220 46 273 155 l28 57 0 340 c0 324 -1 342
-21 385 -30 65 -70 107 -128 137 -65 33 -161 40 -226 16z m110 -543 c0 -242
-2 -280 -15 -280 -13 0 -15 38 -15 280 0 242 2 280 15 280 13 0 15 -38 15
-280z M4964 3928 c-17 -6 -53 -27 -80 -47 -163 -123 -135 -379 51 -467 50 -24
53 -24 395 -24 342 0 345 0 395 24 207 98 212 393 8 496 l-48 25 -345 2 c-214
1 -357 -3 -376 -9z m689 -212 c24 -12 23 -80 -2 -105 -29 -29 -79 -33 -363
-29 -243 3 -258 4 -285 24 -22 17 -28 29 -28 59 0 61 19 65 365 62 162 -2 303
-6 313 -11z M4405 2896 c-88 -28 -136 -68 -194 -160 -31 -49 -31 -52 -31 -182
0 -78 4 -135 10 -139 6 -3 10 -13 10 -22 0 -8 20 -44 45 -78 66 -92 200 -191
361 -264 153 -70 256 -102 419 -131 105 -19 147 -21 340 -18 235 5 327 19 500
74 129 41 351 154 433 219 39 32 72 61 72 64 0 3 11 18 25 33 14 15 38 53 55
86 28 56 30 67 30 171 0 98 -3 117 -24 159 -46 91 -81 128 -151 163 -120 59
-237 42 -396 -57 -114 -71 -201 -110 -307 -136 -74 -19 -116 -22 -277 -22
-167 0 -201 3 -280 23 -115 30 -193 65 -302 137 -132 87 -237 112 -338 80z
m186 -81 c25 -9 69 -36 99 -60 221 -182 599 -248 940 -164 100 24 268 103 325
152 126 109 277 115 390 15 71 -62 90 -106 90 -208 0 -74 -3 -91 -27 -131 -90
-153 -410 -326 -721 -390 -194 -39 -495 -41 -692 -4 -309 58 -652 239 -742
392 -20 34 -27 63 -31 119 -4 68 -2 80 27 138 63 129 206 187 342 141z"/>
</g>
</svg>
