<?xml version="1.0" standalone="no"?>
<!DOCTYPE svg PUBLIC "-//W3C//DTD SVG 20010904//EN"
 "http://www.w3.org/TR/2001/REC-SVG-20010904/DTD/svg10.dtd">
<svg version="1.0" xmlns="http://www.w3.org/2000/svg"
 width="2048.000000pt" height="2048.000000pt" viewBox="0 0 2048.000000 2048.000000"
 preserveAspectRatio="xMidYMid meet">
<metadata>
Created by potrace 1.13, written by Peter Selinger 2001-2015
</metadata>
<g transform="translate(0.000000,2048.000000) scale(0.192120,-0.192120)"
fill="#000000" stroke="none">
<path d="M6045 10319 c-1013 -61 -1620 -383 -2116 -1122 -164 -244 -237 -458
-274 -797 -45 -420 -66 -529 -127 -661 -72 -153 -220 -325 -375 -433 -95 -66
-123 -97 -123 -136 0 -74 142 -159 365 -219 44 -12 85 -24 91 -26 8 -2 5 -32
-11 -98 -24 -99 -58 -321 -76 -497 -27 -269 -20 -1517 11 -1983 57 -850 196
-1343 413 -1467 68 -39 120 -46 242 -31 149 17 327 68 703 200 276 97 483 167
637 215 20 6 20 2 17 -164 -2 -93 0 -176 5 -184 7 -13 17 -10 61 20 29 19 57
46 62 60 16 40 12 99 -11 159 -17 45 -31 64 -70 92 -40 29 -49 40 -49 65 l0
31 28 -35 c68 -86 215 -193 349 -254 162 -74 338 -112 563 -121 389 -15 701
70 947 258 75 59 146 137 139 155 -3 9 -6 22 -6 29 0 9 -48 -10 -138 -55 -166
-82 -332 -141 -502 -178 -116 -24 -143 -26 -370 -27 -275 0 -367 13 -585 82
-98 31 -411 172 -425 191 -3 4 -36 28 -75 52 -272 175 -548 469 -742 788 -157
260 -304 628 -367 918 -7 31 -8 32 -69 32 -149 1 -268 93 -362 281 -105 211
-124 538 -44 781 74 229 236 390 392 390 68 0 122 -14 157 -40 l24 -18 -60
-64 c-37 -40 -67 -83 -78 -114 -10 -27 -31 -83 -46 -124 -51 -137 -65 -221
-65 -385 1 -119 5 -168 22 -235 88 -349 345 -634 677 -746 203 -69 444 -74
643 -13 260 80 479 258 617 501 l42 73 352 3 353 2 17 -31 c225 -406 608 -622
1040 -588 274 22 540 164 717 381 157 193 235 411 235 658 0 133 -18 233 -71
387 -53 153 -67 179 -128 238 -28 27 -51 53 -51 58 0 4 24 19 53 32 76 36 162
34 242 -3 136 -65 240 -216 296 -431 26 -100 36 -318 19 -432 -47 -323 -230
-561 -434 -562 -33 0 -70 3 -81 6 -19 6 -23 -2 -44 -95 -70 -296 -215 -640
-382 -906 -189 -300 -466 -588 -715 -745 -41 -25 -41 -26 -46 -98 -5 -58 -10
-76 -24 -84 -39 -21 -90 -83 -102 -122 -31 -102 -9 -163 76 -211 l41 -22 7 57
c4 31 4 113 1 180 -4 92 -3 123 6 123 7 0 143 -45 302 -99 160 -55 403 -138
540 -185 314 -107 417 -129 590 -129 168 -1 222 18 310 107 87 87 128 177 169
374 54 255 74 557 86 1307 18 1102 12 1538 -26 1845 -12 101 -58 356 -75 419
-3 9 21 20 81 36 325 89 465 192 390 288 -12 15 -58 53 -103 86 -96 70 -235
209 -301 300 -88 124 -144 299 -171 542 -48 428 -63 520 -112 668 -121 366
-435 747 -836 1015 -572 382 -1317 542 -2262 485z m-104 -143 c19 -13 54 -30
77 -37 23 -7 42 -15 42 -18 0 -3 174 -5 388 -5 l387 1 76 36 77 35 6 -46 c3
-25 6 -712 6 -1525 0 -814 1 -1481 2 -1483 2 -1 143 2 313 7 583 16 1166 74
1861 184 155 25 288 45 296 45 10 0 19 -21 28 -71 18 -101 12 -108 -140 -181
-225 -108 -283 -123 -634 -169 -148 -19 -173 -20 -308 -8 -262 22 -408 -21
-438 -130 -13 -48 -3 -101 19 -101 8 0 91 7 183 16 147 14 170 14 188 1 40
-28 142 -173 190 -272 81 -165 95 -229 94 -435 0 -162 -2 -182 -28 -264 -102
-334 -361 -585 -691 -672 -83 -22 -124 -27 -235 -28 -183 -1 -298 25 -455 106
-199 101 -379 301 -457 504 l-31 84 -317 0 -317 0 -12 -39 c-23 -77 -101 -217
-166 -298 -127 -159 -310 -277 -510 -329 -181 -48 -414 -37 -580 28 -297 115
-506 342 -601 654 -25 81 -28 103 -28 254 0 138 4 178 21 242 46 165 124 309
230 427 l49 54 182 -18 c101 -9 186 -14 190 -10 16 16 6 115 -14 142 -48 64
-197 101 -359 87 -155 -12 -277 -8 -440 15 -318 46 -402 68 -545 144 -168 88
-168 88 -149 203 l12 75 46 -6 c25 -4 125 -20 221 -35 477 -79 977 -140 1435
-176 192 -15 762 -35 778 -27 4 2 7 692 7 1534 0 841 3 1529 8 1529 4 0 23
-11 43 -24z m-332 -1409 l1 -1358 -57 5 c-32 3 -112 8 -178 11 -220 10 -617
46 -905 81 -355 43 -764 103 -843 125 l-37 10 57 48 c145 122 167 179 213 563
42 352 68 470 137 615 99 212 239 406 428 595 246 247 489 397 825 509 85 28
157 55 158 60 2 5 12 9 23 9 10 0 19 4 19 9 0 5 11 12 25 15 14 4 25 11 25 16
0 5 21 25 47 45 43 32 48 34 54 18 4 -10 8 -629 8 -1376z m1749 1311 c48 -45
155 -97 322 -160 370 -138 675 -340 912 -602 299 -331 388 -546 443 -1071 19
-182 48 -337 75 -401 27 -61 70 -114 136 -169 l54 -43 -48 -11 c-334 -71
-1227 -175 -1687 -196 -71 -3 -167 -8 -212 -11 l-83 -6 0 1305 c0 717 3 1332
6 1365 8 69 7 69 82 0z m-3667 -3203 c179 -37 615 -109 758 -126 3 0 -25 -12
-64 -26 -59 -22 -91 -26 -205 -29 -74 -2 -157 -9 -185 -15 -109 -25 -194 -85
-275 -194 -33 -45 -45 -55 -48 -42 -4 17 -4 17 -16 1 -11 -14 -14 9 -18 132
-6 160 -21 218 -76 292 -30 40 -31 39 129 7z m5607 -2 c-9 -10 -31 -47 -49
-83 -28 -56 -33 -77 -36 -155 -5 -120 -10 -140 -28 -125 -8 6 -18 9 -23 6 -5
-3 -35 18 -67 47 -114 102 -185 125 -420 131 -86 3 -125 9 -180 28 l-70 25 40
6 c22 4 144 23 270 42 127 19 307 50 400 68 94 18 172 32 174 30 2 -1 -3 -11
-11 -20z m-5578 -1548 c65 -109 191 -239 265 -273 28 -13 58 -27 67 -33 10 -5
24 -9 32 -9 19 0 65 -98 122 -260 160 -454 390 -831 702 -1151 86 -89 142
-154 142 -166 0 -33 -27 -48 -223 -128 -440 -177 -640 -233 -810 -223 -68 4
-82 8 -115 35 -122 99 -208 414 -267 985 -12 114 -15 281 -15 746 0 329 3 602
6 605 9 9 31 -22 94 -128z m5487 -847 c-4 -961 -2 -931 -58 -1141 -37 -142
-72 -196 -148 -234 -48 -24 -64 -27 -160 -26 -121 0 -291 32 -441 83 -126 42
-561 220 -582 238 -36 30 -22 56 101 180 301 304 534 677 691 1107 84 229 110
292 123 303 7 5 44 20 82 32 131 43 241 140 355 312 14 21 29 38 33 38 4 0 6
-402 4 -892z M5710 6856 c-30 -6 -66 -18 -78 -25 -30 -16 -52 -68 -52 -124 l0
-44 53 -6 c28 -3 222 -11 429 -18 299 -10 458 -10 760 0 211 6 404 15 431 18
l47 6 0 52 c0 67 -29 113 -85 133 -46 16 -238 22 -325 9 -30 -5 -202 -11 -381
-14 -259 -4 -356 -2 -473 11 -170 19 -249 19 -326 2z M4918 6661 c-181 -77
-317 -225 -385 -416 -25 -73 -28 -92 -28 -220 0 -131 2 -145 31 -226 62 -175
186 -315 349 -394 283 -139 598 -80 813 150 124 133 185 287 184 470 0 122
-19 200 -75 315 -52 106 -167 228 -269 284 l-68 37 -197 15 c-268 19 -277 18
-355 -15z m391 -241 c82 -14 133 -40 196 -104 80 -81 85 -97 85 -291 l0 -168
-30 -52 c-153 -268 -626 -250 -765 29 -23 46 -25 60 -25 190 0 167 9 193 91
274 57 57 117 96 177 118 45 16 184 18 271 4z M7730 6684 c-14 -2 -92 -8 -173
-13 l-148 -9 -69 -41 c-144 -86 -248 -212 -304 -370 -29 -80 -31 -95 -31 -226
0 -131 2 -146 31 -226 133 -372 546 -564 904 -422 149 60 292 185 363 320 77
146 101 341 63 493 -50 192 -188 365 -360 451 -82 40 -96 44 -170 45 -45 1
-92 0 -106 -2z m160 -288 c61 -32 174 -139 190 -181 5 -14 10 -101 10 -192 l0
-166 -30 -52 c-153 -268 -626 -250 -765 29 -23 46 -25 60 -25 193 0 165 6 183
85 271 92 103 178 133 365 129 104 -3 120 -6 170 -31z M6001 6574 c2 -5 19
-37 37 -71 l32 -63 369 0 369 0 36 64 c20 35 36 67 36 70 0 3 -30 -7 -67 -22
-67 -26 -71 -27 -354 -30 -281 -3 -288 -3 -355 21 -38 13 -77 27 -88 32 -11 5
-17 4 -15 -1z M337 5678 c-22 -407 10 -851 83 -1131 102 -397 273 -587 528
-587 134 0 250 37 406 129 288 170 364 400 223 676 -114 224 -418 513 -822
783 -109 73 -400 252 -408 252 -2 0 -7 -55 -10 -122z m390 -409 c467 -284 679
-548 587 -730 -42 -84 -210 -186 -322 -196 -169 -15 -281 134 -328 437 -25
163 -31 530 -9 530 3 0 35 -19 72 -41z M6124 4876 c-32 -32 -34 -38 -34 -99 0
-67 18 -104 61 -127 12 -7 124 -11 290 -11 293 0 299 1 335 56 12 19 15 41 12
91 -4 60 -7 70 -36 95 l-32 29 -281 0 -281 0 -34 -34z M5774 4341 c-100 -45
-135 -163 -80 -269 35 -68 231 -186 382 -231 247 -73 546 -63 778 27 172 67
303 170 324 255 43 168 -147 300 -289 201 -129 -90 -206 -124 -334 -144 -184
-30 -398 10 -522 97 -126 87 -178 101 -259 64z M1655 4053 c-11 -3 -168 -86
-348 -186 -362 -199 -387 -218 -408 -311 -15 -69 -6 -99 81 -257 84 -152 110
-185 165 -210 66 -30 132 -25 210 17 37 19 68 34 70 32 1 -2 20 -50 42 -108
111 -289 180 -558 225 -874 20 -142 21 -200 25 -988 l4 -838 277 0 277 0 -2
787 c-2 446 -7 849 -13 928 -34 440 -144 865 -325 1251 -25 53 -45 98 -45 100
0 1 20 14 45 29 80 46 125 142 106 225 -13 57 -146 297 -189 343 -49 51 -131
76 -197 60z m85 -299 c48 -52 56 -70 65 -150 9 -78 29 -165 45 -193 10 -19 9
-25 -1 -33 -38 -24 -264 -150 -334 -186 l-80 -40 -33 53 c-25 41 -41 56 -70
66 -20 6 -39 15 -42 19 -3 3 -24 17 -48 30 -53 30 -102 103 -102 153 0 34 4
38 69 77 38 23 71 49 73 58 3 10 66 50 144 93 231 125 245 128 314 53z M4739
2945 c-94 -19 -210 -52 -301 -87 -59 -23 -78 -34 -78 -49 0 -12 -9 -21 -27
-25 -241 -55 -386 -104 -568 -193 -450 -220 -759 -548 -880 -931 -50 -161 -55
-229 -55 -802 l0 -528 3610 0 3610 0 0 538 c0 592 -4 647 -61 817 -170 508
-709 934 -1371 1084 -83 19 -97 25 -100 44 -6 42 -375 147 -515 147 -99 -1
-163 -41 -163 -104 0 -22 6 -26 58 -36 31 -6 75 -16 97 -22 22 -6 67 -14 100
-19 33 -4 103 -15 155 -24 58 -10 128 -15 178 -13 l84 4 -7 -35 c-59 -323
-492 -1001 -952 -1489 -225 -240 -595 -547 -901 -748 l-82 -55 -60 13 -60 12
0 61 c0 179 42 451 96 618 73 225 190 411 398 633 107 113 188 179 432 349
212 148 344 294 404 444 26 68 50 179 50 237 l0 44 -184 0 -183 0 -69 -46
c-135 -91 -312 -163 -484 -198 -239 -48 -701 -48 -940 0 -172 35 -391 127
-511 214 l-42 30 -183 0 -182 0 -7 33 c-19 89 -126 118 -306 82z m311 -149 c0
-56 27 -181 53 -246 78 -192 169 -281 571 -564 200 -140 429 -390 544 -594
125 -220 194 -485 208 -807 l7 -140 -59 -13 c-59 -12 -59 -12 -114 22 -161
100 -505 367 -710 550 -457 409 -983 1143 -1138 1589 -16 45 -32 97 -36 116
l-6 34 82 -6 c56 -4 111 -1 168 9 110 20 271 53 340 69 87 20 90 20 90 -19z
m-776 -327 c16 -13 57 -82 100 -168 107 -213 179 -334 324 -546 254 -369 523
-679 829 -952 97 -87 178 -163 180 -170 3 -6 -8 -20 -23 -30 -27 -17 -92 -18
-1316 -21 l-1289 -3 3 498 3 498 30 70 c78 187 195 336 375 479 177 141 444
277 685 350 66 19 68 19 99 -5z m4515 -21 c492 -174 856 -480 972 -817 18 -50
19 -93 19 -553 l0 -499 -1278 3 c-1206 3 -1279 4 -1305 21 -25 16 -26 20 -15
41 7 13 65 68 128 122 471 406 915 982 1205 1564 75 151 87 163 144 155 24 -4
83 -20 130 -37z m-3169 -31 c172 -80 360 -122 611 -138 394 -25 734 15 975
116 133 55 187 75 192 70 17 -17 -86 -111 -268 -247 -199 -147 -440 -396 -598
-616 -87 -122 -102 -121 -198 10 -204 279 -389 466 -650 655 -110 80 -214 172
-214 189 0 18 62 1 150 -39z"/>
</g>
</svg>
