<?xml version="1.0" standalone="no"?>
<!DOCTYPE svg PUBLIC "-//W3C//DTD SVG 20010904//EN"
 "http://www.w3.org/TR/2001/REC-SVG-20010904/DTD/svg10.dtd">
<svg version="1.0" xmlns="http://www.w3.org/2000/svg"
 width="2048.000000pt" height="2048.000000pt" viewBox="0 0 2048.000000 2048.000000"
 preserveAspectRatio="xMidYMid meet">
<metadata>
Created by potrace 1.13, written by Peter Selinger 2001-2015
</metadata>
<g transform="translate(0.000000,2048.000000) scale(0.192120,-0.192120)"
fill="#000000" stroke="none">
<path d="M6045 10319 c-1013 -61 -1620 -383 -2116 -1122 -164 -244 -237 -458
-274 -797 -45 -420 -66 -529 -127 -661 -72 -153 -220 -325 -375 -433 -46 -32
-92 -69 -103 -83 -59 -75 12 -152 205 -226 50 -19 123 -43 163 -53 39 -10 72
-23 72 -29 0 -6 -9 -51 -19 -100 -27 -123 -57 -332 -73 -500 -17 -180 -16
-1431 1 -1760 46 -899 161 -1422 355 -1619 77 -79 111 -91 236 -90 188 2 246
19 1065 302 143 49 284 95 313 103 l52 13 0 65 -1 66 -55 34 c-161 97 -401
315 -545 494 -279 346 -477 765 -583 1230 -6 26 -9 27 -70 27 -79 0 -134 19
-198 68 -229 174 -324 629 -207 992 57 175 177 325 294 369 78 29 169 26 238
-9 26 -13 47 -25 47 -28 0 -2 -32 -38 -71 -80 -81 -87 -91 -104 -119 -203 -11
-41 -30 -108 -42 -149 -32 -110 -32 -378 0 -498 48 -184 129 -326 271 -475
104 -108 178 -163 302 -222 167 -78 338 -108 536 -93 263 19 541 164 708 368
33 40 78 94 100 120 23 25 47 62 55 81 8 19 19 37 24 41 6 4 157 8 336 8 179
0 330 -4 336 -8 6 -4 20 -26 31 -49 45 -93 257 -314 376 -393 306 -203 705
-229 1032 -70 111 55 215 135 240 186 29 58 78 115 125 144 66 40 135 164 186
335 26 83 28 104 28 270 1 169 -1 186 -28 280 -15 55 -32 117 -37 138 -15 63
-45 112 -114 189 -36 39 -65 76 -65 80 0 5 25 21 56 35 102 46 239 20 329 -64
92 -87 168 -224 206 -374 26 -107 36 -316 20 -431 -34 -230 -146 -433 -287
-518 -56 -34 -62 -35 -155 -35 l-97 0 -17 -75 c-159 -686 -563 -1308 -1071
-1651 l-74 -50 0 -58 c0 -33 -3 -66 -6 -75 -4 -12 6 -18 43 -27 26 -7 158 -50
293 -96 135 -47 360 -124 500 -172 326 -112 432 -135 605 -135 168 0 222 19
311 108 156 157 217 452 245 1190 16 438 17 2019 1 2181 -15 152 -44 351 -67
456 -29 133 -29 139 -12 139 35 0 257 74 333 110 130 62 173 130 124 193 -12
15 -58 53 -103 86 -96 70 -235 209 -301 300 -88 124 -144 299 -171 542 -48
428 -63 520 -112 668 -121 366 -435 747 -836 1015 -572 382 -1317 542 -2262
485z m-104 -143 c19 -13 54 -30 77 -37 23 -7 42 -15 42 -18 0 -3 174 -5 388
-5 l387 1 76 36 77 35 6 -46 c3 -25 6 -712 6 -1525 0 -814 1 -1481 2 -1483 2
-1 143 2 313 7 583 16 1166 74 1861 184 155 25 288 45 296 45 11 0 19 -21 28
-75 15 -89 5 -112 -63 -146 -90 -45 -130 -104 -130 -190 l0 -56 -111 -26
c-162 -38 -660 -117 -734 -117 -10 0 -28 21 -46 55 -53 102 -109 127 -237 104
-76 -14 -147 -51 -174 -93 -21 -32 -31 -101 -16 -110 6 -4 89 0 185 10 l175
16 73 -60 c80 -65 128 -115 66 -69 l-37 27 36 -53 c52 -76 120 -223 145 -313
18 -66 22 -107 22 -249 1 -200 -13 -265 -94 -430 -123 -253 -351 -439 -625
-511 -83 -22 -123 -27 -235 -28 -179 -1 -289 24 -445 102 -207 102 -394 309
-471 518 l-27 74 -317 0 -317 0 -12 -39 c-23 -77 -101 -217 -166 -298 -127
-159 -310 -276 -510 -329 -137 -37 -336 -39 -469 -6 -369 92 -650 385 -727
757 -50 239 0 503 135 718 30 47 52 88 49 90 -2 3 21 26 52 52 l56 48 172 -17
c95 -9 178 -16 185 -16 17 0 16 64 -2 98 -32 60 -92 96 -193 114 -122 20 -177
-5 -227 -107 l-28 -57 -61 6 c-221 24 -688 105 -797 137 -36 11 -37 11 -37 68
0 72 -18 106 -92 170 -33 29 -63 61 -66 72 -4 10 -1 53 6 95 l12 75 46 -6 c25
-4 125 -20 221 -35 477 -79 977 -140 1435 -176 192 -15 762 -35 778 -27 4 2 7
692 7 1534 0 841 3 1529 8 1529 4 0 23 -11 43 -24z m-332 -1409 l1 -1358 -57
5 c-32 3 -112 8 -178 11 -220 10 -617 46 -905 81 -355 43 -764 103 -843 125
l-37 10 57 48 c145 122 167 179 213 563 42 352 68 470 137 615 99 212 239 406
428 595 246 247 489 397 825 509 85 28 157 55 158 60 2 5 12 9 23 9 10 0 19 4
19 9 0 5 11 12 25 15 14 4 25 11 25 16 0 5 21 25 47 45 43 32 48 34 54 18 4
-10 8 -629 8 -1376z m1749 1311 c48 -45 155 -97 322 -160 370 -138 675 -340
912 -602 299 -331 388 -546 443 -1071 19 -182 48 -337 75 -401 27 -61 70 -114
136 -169 l54 -43 -48 -11 c-334 -71 -1227 -175 -1687 -196 -71 -3 -167 -8
-212 -11 l-83 -6 0 1305 c0 717 3 1332 6 1365 8 69 7 69 82 0z m-2953 -3458
c-10 -11 -21 -17 -24 -14 -3 3 3 12 13 20 28 20 32 17 11 -6z m-686 -1414 c66
-84 159 -168 229 -209 35 -20 67 -37 72 -37 22 0 63 -78 121 -230 133 -354
253 -585 436 -840 97 -135 154 -202 274 -325 140 -143 139 -147 -16 -216 -64
-28 -274 -104 -396 -144 -251 -80 -421 -104 -496 -68 -36 17 -87 85 -116 154
-59 141 -107 384 -154 779 -22 188 -32 1190 -11 1190 7 0 33 -24 57 -54z
m5481 -560 c0 -569 -8 -801 -36 -1025 -36 -304 -91 -449 -183 -489 -53 -22
-203 -19 -330 7 -125 26 -336 95 -556 181 -157 62 -205 89 -205 117 0 8 44 61
99 117 210 219 392 478 531 758 78 157 118 250 214 505 36 95 52 114 122 142
86 35 149 80 237 169 43 43 85 79 93 79 12 0 14 -80 14 -561z M5691 6818 c-70
-20 -111 -68 -111 -132 0 -23 4 -24 83 -31 366 -30 1242 -30 1571 1 l68 7 -5
44 c-9 84 -61 115 -202 121 -78 3 -127 -1 -220 -19 -111 -22 -145 -24 -440
-23 -291 0 -330 2 -425 22 -111 23 -257 28 -319 10z M4918 6661 c-181 -77
-317 -225 -385 -416 -25 -73 -28 -92 -28 -220 0 -131 2 -145 31 -226 62 -175
186 -315 349 -394 283 -139 598 -80 813 150 124 133 185 287 184 470 0 122
-19 200 -75 315 -52 106 -167 228 -269 284 l-68 37 -197 15 c-268 19 -277 18
-355 -15z m397 -242 c80 -15 128 -41 190 -103 80 -81 85 -97 85 -291 l0 -168
-30 -52 c-153 -267 -626 -251 -764 26 -24 50 -26 62 -26 193 0 116 4 148 19
181 27 59 126 151 205 190 64 33 75 35 166 35 53 0 123 -5 155 -11z M7730
6684 c-14 -2 -92 -8 -173 -13 l-148 -9 -69 -41 c-144 -86 -248 -212 -304 -370
-29 -80 -31 -95 -31 -226 0 -131 2 -146 31 -226 133 -372 546 -564 904 -422
149 60 292 185 363 320 77 146 101 341 63 493 -50 192 -188 365 -360 451 -82
40 -96 44 -170 45 -45 1 -92 0 -106 -2z m145 -283 c70 -33 175 -126 199 -175
13 -27 16 -68 16 -201 l0 -168 -30 -52 c-153 -267 -626 -251 -764 26 -24 50
-26 62 -26 196 0 165 6 183 85 271 89 99 172 130 355 131 96 1 110 -2 165 -28z
M5994 6577 c18 -28 43 -71 55 -94 l21 -43 368 0 368 0 52 87 c29 47 50 88 49
90 -2 1 -44 -14 -93 -35 l-89 -37 -285 0 c-307 0 -284 -3 -422 59 l-57 25 33
-52z M337 5678 c-22 -407 10 -851 83 -1131 102 -397 273 -587 528 -587 134 0
250 37 406 129 288 170 364 400 223 676 -114 224 -418 513 -822 783 -109 73
-400 252 -408 252 -2 0 -7 -55 -10 -122z m390 -409 c467 -284 679 -548 587
-730 -42 -84 -210 -186 -322 -196 -169 -15 -281 134 -328 437 -25 163 -31 530
-9 530 3 0 35 -19 72 -41z M6124 4876 c-32 -32 -34 -38 -34 -101 0 -63 2 -69
34 -101 l34 -34 281 0 281 0 32 29 c32 28 33 32 33 106 0 74 -1 78 -33 106
l-32 29 -281 0 -281 0 -34 -34z M5774 4341 c-100 -45 -135 -163 -80 -269 35
-68 231 -186 382 -231 247 -73 546 -63 778 27 169 66 303 170 324 252 34 136
-84 262 -222 236 -19 -4 -59 -25 -88 -47 -111 -84 -232 -126 -393 -135 -170
-11 -334 28 -442 103 -126 87 -178 101 -259 64z M1655 4053 c-11 -3 -168 -86
-348 -186 -362 -199 -387 -218 -408 -311 -15 -69 -6 -99 81 -257 84 -152 110
-185 165 -210 66 -30 132 -25 210 17 37 19 68 34 70 32 1 -2 20 -50 42 -108
111 -289 180 -558 225 -874 20 -142 21 -200 25 -988 l4 -838 277 0 277 0 -2
787 c-2 446 -7 849 -13 928 -34 440 -144 865 -325 1251 -25 53 -45 98 -45 100
0 1 20 14 45 29 80 46 125 142 106 225 -13 57 -146 297 -189 343 -49 51 -131
76 -197 60z m85 -299 c48 -52 56 -70 65 -150 9 -78 29 -165 45 -193 10 -19 9
-25 -1 -33 -38 -24 -264 -150 -334 -186 l-80 -40 -33 53 c-25 41 -41 56 -70
66 -20 6 -39 15 -42 19 -3 3 -24 17 -48 30 -53 30 -102 103 -102 153 0 34 4
38 69 77 38 23 71 49 73 58 3 10 66 50 144 93 231 125 245 128 314 53z M7250
3293 c-134 -63 -303 -119 -450 -151 -117 -25 -141 -27 -375 -26 -221 0 -262 2
-355 22 -149 32 -282 75 -424 136 l-123 53 -23 -26 -22 -25 53 -50 c141 -129
336 -221 571 -268 152 -30 498 -32 653 -4 238 43 450 141 595 274 l45 42 -22
17 c-11 10 -23 25 -25 34 -2 13 -20 8 -98 -28z M5426 3214 c-3 -9 -6 -83 -6
-165 0 -176 3 -180 84 -126 66 44 82 80 66 153 -14 62 -45 111 -84 135 -38 23
-52 24 -60 3z M7405 3210 c-51 -21 -95 -101 -95 -172 0 -61 27 -98 101 -138
l37 -19 6 37 c8 48 8 216 0 265 -7 38 -14 42 -49 27z M4795 2954 c-11 -2 -45
-9 -75 -15 -72 -14 -175 -44 -277 -81 -64 -23 -83 -34 -83 -49 0 -12 -9 -21
-27 -25 -16 -3 -79 -19 -142 -35 -646 -168 -1148 -587 -1306 -1089 -50 -161
-55 -229 -55 -802 l0 -528 3610 0 3610 0 0 538 c0 592 -4 647 -61 817 -129
386 -477 735 -932 937 -153 67 -301 115 -509 162 -19 4 -28 13 -28 25 0 41
-375 151 -515 151 -95 0 -165 -42 -165 -100 0 -16 3 -30 8 -30 4 0 45 -7 92
-16 47 -8 141 -17 210 -20 69 -3 136 -7 150 -9 14 -3 67 -8 119 -11 l93 -7 -6
-44 c-22 -159 -190 -498 -404 -813 -298 -440 -608 -782 -997 -1101 -105 -86
-348 -267 -453 -335 l-82 -55 -60 13 -60 12 0 61 c0 179 42 451 96 618 73 225
190 411 398 633 107 113 188 179 432 349 212 148 344 294 404 444 26 68 50
179 50 237 l0 44 -184 0 -183 0 -69 -46 c-249 -167 -522 -234 -954 -234 -432
0 -705 67 -954 234 l-69 46 -183 0 -183 0 -7 34 c-11 63 -74 97 -173 95 -31
-1 -65 -3 -76 -5z m255 -158 c0 -56 27 -181 53 -246 78 -192 169 -281 571
-564 200 -140 429 -390 544 -594 125 -220 194 -485 208 -807 l7 -140 -59 -13
c-59 -12 -59 -12 -114 22 -161 100 -505 367 -710 550 -457 409 -981 1140
-1139 1589 -16 45 -32 101 -35 123 l-7 42 118 5 c122 6 305 22 359 32 18 3 63
12 100 19 104 21 104 21 104 -18z m-768 -333 c14 -16 57 -91 96 -168 102 -205
176 -329 320 -540 254 -369 523 -679 829 -952 97 -87 178 -163 180 -170 3 -6
-8 -20 -23 -30 -27 -17 -92 -18 -1316 -21 l-1289 -3 3 498 3 498 30 70 c121
288 347 506 715 691 137 68 198 95 305 130 92 31 116 30 147 -3z m1398 -64
c202 -80 359 -108 665 -116 425 -11 685 32 954 158 91 42 111 47 111 24 0 -20
-101 -117 -180 -173 -270 -191 -512 -430 -698 -690 -89 -124 -101 -122 -209
25 -191 259 -355 427 -602 611 -185 138 -283 229 -262 242 9 5 34 -1 70 -17
31 -14 99 -43 151 -64z m3087 60 c507 -179 877 -487 994 -828 18 -50 19 -93
19 -553 l0 -499 -1278 3 c-1206 3 -1279 4 -1305 21 -25 16 -26 20 -15 41 7 13
65 68 128 122 471 406 915 982 1205 1564 31 63 66 125 78 138 28 30 67 28 174
-9z"/>
</g>
</svg>
