<?xml version="1.0" standalone="no"?>
<!DOCTYPE svg PUBLIC "-//W3C//DTD SVG 20010904//EN"
 "http://www.w3.org/TR/2001/REC-SVG-20010904/DTD/svg10.dtd">
<svg version="1.0" xmlns="http://www.w3.org/2000/svg"
 width="2048.000000pt" height="2048.000000pt" viewBox="0 0 2048.000000 2048.000000"
 preserveAspectRatio="xMidYMid meet">
<metadata>
Created by potrace 1.13, written by Peter Selinger 2001-2015
</metadata>
<g transform="translate(0.000000,2048.000000) scale(0.192120,-0.192120)"
fill="#000000" stroke="none">
<path d="M5000 10320 c-561 -39 -1063 -152 -1520 -343 -804 -335 -1326 -862
-1457 -1470 -23 -103 -25 -397 -4 -502 76 -391 348 -793 721 -1067 l57 -42 12
-90 c7 -50 19 -125 28 -168 l15 -78 -56 -61 c-68 -73 -135 -206 -167 -334 -20
-78 -23 -114 -23 -265 0 -156 3 -185 27 -272 33 -125 103 -261 171 -331 49
-52 138 -107 170 -107 17 0 17 1 41 -150 59 -365 209 -764 414 -1095 143 -233
385 -505 594 -669 l97 -77 0 -175 0 -176 -60 50 c-42 36 -66 49 -80 45 -31 -8
-96 -78 -145 -157 -52 -84 -75 -144 -75 -197 l0 -39 -84 0 -83 0 -7 38 c-12
80 -77 128 -160 119 -28 -3 -417 -64 -864 -135 -546 -88 -820 -135 -837 -146
-34 -23 -58 -72 -56 -120 0 -23 12 -106 25 -186 24 -142 25 -145 61 -178 l37
-34 -31 -42 c-104 -139 -201 -336 -251 -510 -57 -193 -62 -241 -67 -649 l-5
-377 3891 0 3891 0 0 309 c0 404 -15 544 -81 756 -45 146 -147 347 -236 465
l-34 45 29 25 c44 37 49 52 77 229 22 132 24 168 15 196 -15 46 -59 81 -117
93 -26 6 -413 67 -858 138 -534 84 -820 125 -839 120 -42 -10 -84 -57 -97
-110 l-11 -46 -84 0 -83 0 5 32 c14 83 -119 307 -209 354 -33 18 -47 11 -102
-45 -21 -23 -43 -41 -47 -41 -4 0 -8 80 -8 178 l1 177 81 60 c109 80 326 296
426 421 217 276 366 556 482 904 55 164 110 390 125 505 10 81 15 95 31 95 33
0 121 55 172 109 67 69 143 220 172 341 72 300 6 662 -154 846 l-44 50 14 114
c7 63 16 145 19 181 l6 67 78 60 c344 267 587 616 677 976 36 140 44 378 19
527 -35 212 -133 442 -273 639 -94 134 -327 365 -484 481 -532 394 -1238 643
-2048 724 -185 18 -665 27 -840 15z m-650 -413 c-1 -18 -7 -43 -15 -57 -10
-18 -14 -59 -14 -140 l-1 -115 45 -84 c25 -45 45 -89 45 -96 0 -24 -46 -43
-171 -70 -267 -57 -542 -135 -769 -218 -368 -133 -606 -250 -681 -333 -43 -48
-79 -107 -79 -132 0 -12 -7 -25 -15 -28 -12 -5 -15 -28 -15 -120 0 -107 -1
-114 -20 -114 -17 0 -20 -7 -20 -45 0 -42 -2 -46 -40 -65 -21 -11 -68 -47
-103 -80 -129 -121 -161 -244 -95 -369 34 -65 78 -122 78 -102 0 7 19 -3 43
-22 23 -19 52 -39 64 -46 31 -16 111 -14 174 6 67 20 148 20 359 0 365 -36
582 -39 2365 -34 1504 4 1764 7 1920 21 299 27 421 30 490 12 70 -19 139 -20
178 -3 38 16 152 116 168 147 7 14 21 37 31 52 29 42 25 148 -7 198 -14 22
-25 44 -25 50 0 24 -146 156 -193 176 -45 18 -47 20 -47 60 0 28 -5 44 -15 48
-12 4 -15 27 -15 116 0 67 -4 110 -10 110 -5 0 -10 11 -10 25 0 14 -4 25 -10
25 -5 0 -10 8 -10 18 0 22 -63 99 -117 143 -115 92 -539 270 -902 379 -148 44
-245 69 -549 140 -87 20 -112 33 -112 56 0 8 19 54 42 102 39 79 43 95 46 177
3 73 0 101 -17 145 -12 30 -21 68 -21 83 0 27 2 28 38 21 97 -17 372 -91 507
-135 295 -99 571 -230 799 -379 164 -108 235 -165 360 -288 180 -178 285 -336
351 -531 24 -72 25 -82 25 -345 0 -283 -5 -326 -45 -410 -13 -28 -27 -64 -30
-81 -19 -87 -78 -202 -163 -316 -58 -78 -110 -162 -250 -399 -6 -9 -11 57 -15
170 -4 130 -12 218 -27 295 -12 60 -23 112 -26 116 -2 4 -32 -8 -66 -26 -284
-151 -955 -276 -1688 -316 l-215 -12 -47 33 c-70 49 -135 40 -151 -21 -5 -18
-1 -20 41 -18 34 2 72 -8 138 -34 104 -41 270 -87 424 -117 198 -39 585 -80
759 -80 l76 0 214 -422 c157 -309 225 -432 253 -460 92 -92 173 -18 241 221
l24 83 12 -60 c20 -103 22 -181 12 -397 -11 -239 -21 -305 -57 -383 -34 -75
-70 -125 -158 -221 -120 -130 -162 -206 -200 -363 -39 -159 -115 -381 -224
-654 -96 -241 -105 -259 -195 -394 -113 -169 -195 -261 -361 -403 -76 -65
-185 -183 -224 -242 -43 -64 -47 -75 -47 -130 0 -33 4 -71 8 -85 7 -22 3 -28
-35 -52 -70 -44 -216 -113 -323 -153 -225 -84 -454 -125 -705 -125 -331 0
-628 71 -920 221 -161 83 -154 75 -139 146 11 55 11 61 -15 115 -43 91 -109
171 -230 278 -185 165 -338 356 -458 575 -174 316 -257 543 -333 910 -9 44
-24 96 -32 115 -29 64 -96 154 -183 245 -48 50 -100 115 -117 145 -28 52 -36
75 -62 192 -16 70 -14 532 3 651 8 54 16 100 19 103 2 2 9 -15 16 -38 23 -76
101 -216 142 -253 57 -51 107 -46 138 13 5 9 16 53 25 97 58 283 192 606 348
839 73 110 177 238 187 231 15 -9 355 -54 501 -66 l145 -12 105 -58 c167 -92
285 -130 364 -115 46 9 92 53 105 102 l11 40 72 -4 c81 -5 64 5 225 -133 171
-147 302 -229 365 -229 69 0 77 82 23 250 l-36 109 -225 0 -226 -1 -32 38
c-29 33 -39 39 -76 39 -36 0 -47 -6 -70 -33 l-26 -32 -120 0 c-65 0 -171 5
-234 10 l-115 9 -33 41 c-59 70 -92 80 -364 110 -277 31 -318 27 -367 -36
l-20 -26 -107 17 c-240 38 -556 131 -693 206 -30 16 -58 26 -62 22 -17 -18
-41 -223 -46 -401 l-6 -193 -79 133 c-98 165 -94 158 -148 237 -61 88 -175
279 -194 326 -9 21 -16 46 -16 57 0 11 -9 37 -19 57 -10 20 -29 71 -41 113
-20 72 -21 95 -18 320 4 234 5 246 31 318 192 530 836 1008 1687 1249 168 48
352 90 363 84 4 -2 7 -19 7 -36z m433 -11 c18 -7 44 -25 59 -40 23 -23 38 -28
100 -33 99 -7 228 18 276 55 31 24 44 27 111 27 67 0 81 -3 117 -28 57 -38
168 -60 268 -53 67 5 82 9 105 32 36 37 81 54 141 54 115 0 200 -87 200 -205
0 -106 -67 -187 -170 -204 l-35 -6 -7 -133 c-26 -502 -237 -840 -563 -903
-138 -26 -335 65 -450 209 -132 166 -209 408 -222 695 -6 136 -6 137 -30 137
-32 0 -93 26 -121 53 -83 77 -83 229 0 303 58 53 151 70 221 40z m-116 -670
c-23 -58 -47 -154 -47 -184 0 -57 29 -160 70 -249 94 -203 211 -322 435 -443
52 -28 95 -55 95 -60 0 -32 -72 -34 -1145 -38 -588 -1 -1072 -6 -1075 -10 -12
-16 -151 -82 -160 -77 -6 4 -10 105 -10 253 l0 247 78 42 c379 205 1012 416
1492 497 234 40 275 44 267 22z m1472 -2 c500 -73 1058 -245 1519 -470 l172
-84 0 -260 c0 -143 -4 -260 -8 -260 -4 0 -12 4 -18 9 -15 16 -132 71 -148 71
-9 0 -16 5 -16 10 0 7 -344 10 -1012 10 -1040 0 -1188 5 -1188 41 0 5 33 25
73 45 92 47 219 129 279 183 89 79 185 236 230 376 30 96 29 180 -6 269 -14
37 -26 70 -26 72 0 7 42 4 149 -12z m1890 -1132 c99 -50 105 -177 12 -239
l-34 -23 -2677 0 -2677 0 -34 23 c-93 62 -87 189 12 239 32 17 182 18 2699 18
2517 0 2667 -1 2699 -18z m-4869 -771 l165 -48 -1 -34 c-1 -40 -190 -428 -213
-437 -21 -8 -43 11 -57 49 -6 19 -30 75 -53 123 l-41 87 0 155 c0 140 2 154
18 153 9 0 91 -22 182 -48z m4520 -121 l0 -170 -35 -87 c-19 -48 -35 -97 -35
-110 0 -58 -24 -171 -40 -193 l-19 -25 -25 25 c-25 26 -86 132 -179 315 -31
61 -79 137 -107 170 -57 67 -68 92 -49 110 8 7 67 24 132 40 66 15 169 42 230
60 62 19 115 34 120 34 4 1 7 -76 7 -169z m-3338 -4290 c279 -201 631 -292
1068 -277 387 14 663 100 921 289 37 26 69 48 73 48 3 0 6 -25 6 -56 0 -30 5
-75 11 -99 10 -39 14 -43 30 -35 15 9 26 3 58 -29 22 -22 57 -49 78 -60 37
-19 64 -43 128 -111 35 -38 86 -66 138 -75 33 -6 37 -11 37 -37 0 -152 -293
-1237 -380 -1408 -27 -52 -25 -60 9 -60 41 0 110 55 148 119 48 80 130 338
229 721 25 96 52 185 60 197 22 35 50 37 98 9 95 -55 195 -81 371 -96 66 -6
134 -12 150 -15 17 -3 248 -39 515 -81 267 -41 503 -82 526 -90 129 -48 248
-264 330 -599 22 -92 24 -120 24 -337 0 -231 -1 -238 -20 -238 -11 0 -20 -7
-20 -15 0 -13 -158 -15 -1357 -15 -1420 -1 -1418 -1 -1498 -43 -17 -8 -45 -27
-64 -41 -19 -14 -38 -26 -42 -26 -4 0 -24 51 -45 113 -50 152 -114 295 -177
397 l-52 84 77 130 c43 72 80 143 83 158 4 15 11 28 17 28 5 0 47 -26 91 -59
122 -87 374 -254 440 -291 140 -78 70 19 -215 302 -228 226 -475 429 -738 607
l-116 80 -120 -81 c-327 -222 -663 -513 -911 -786 -86 -96 -107 -132 -84 -146
9 -6 237 144 449 296 68 48 125 88 127 88 2 0 8 -15 15 -34 6 -18 44 -91 85
-161 41 -71 75 -131 75 -134 0 -3 -16 -21 -35 -41 -75 -77 -158 -256 -206
-447 -13 -48 -26 -92 -31 -97 -4 -5 -32 8 -65 31 -116 81 37 73 -1483 73
-1202 0 -1360 2 -1360 15 0 11 -11 15 -41 15 l-40 0 3 328 4 327 35 100 c74
207 174 366 253 405 48 23 941 169 1161 190 199 18 363 59 447 110 26 16 33
16 58 3 35 -17 44 -42 105 -273 111 -421 189 -648 246 -711 37 -41 99 -79 128
-79 26 0 69 20 44 20 -60 1 -342 983 -419 1458 -4 26 -2 32 14 32 10 0 42 7
72 16 43 13 67 30 127 90 40 41 78 74 83 74 6 0 34 25 63 56 47 50 56 55 74
46 26 -14 30 -1 40 111 3 42 7 77 9 77 1 0 40 -27 86 -60z m-974 -367 c73 -54
94 -147 49 -214 -70 -104 -197 -106 -271 -6 -32 44 -29 132 6 179 15 19 42 42
60 52 42 21 120 16 156 -11z m4056 -6 c42 -33 71 -102 63 -153 -8 -47 -51
-102 -93 -120 -70 -29 -154 -7 -198 53 -21 28 -32 98 -22 137 8 34 54 86 91
102 45 21 117 12 159 -19z m-3806 -151 c17 -89 15 -126 -8 -163 -27 -46 -60
-59 -190 -78 -63 -9 -164 -25 -225 -35 -128 -23 -1225 -195 -1303 -205 l-52
-7 19 44 c22 51 61 202 61 234 0 12 7 24 15 28 8 3 15 12 15 20 0 16 42 27
205 51 61 8 240 36 400 61 197 31 291 42 293 35 2 -6 11 -11 20 -11 10 0 40
-21 67 -47 69 -64 152 -116 219 -137 158 -50 343 27 392 163 33 90 43 111 52
111 5 0 14 -29 20 -64z m3500 -115 c31 -42 108 -89 170 -102 121 -25 239 20
367 140 47 45 92 81 100 81 8 0 115 -16 237 -35 123 -20 329 -51 458 -71 129
-19 242 -37 251 -39 9 -3 21 -17 27 -30 6 -14 16 -25 20 -25 5 0 12 -34 15
-76 4 -42 18 -107 31 -146 l25 -70 -52 7 c-69 9 -1107 173 -1414 224 -132 22
-250 45 -262 53 -11 7 -31 31 -43 54 -21 39 -21 45 -9 115 l14 73 23 -64 c12
-35 31 -75 42 -89z m-1670 -504 c151 -78 282 -212 282 -288 0 -44 -48 -197
-90 -284 -17 -35 -48 -79 -71 -100 l-42 -37 -106 6 c-59 4 -137 3 -176 -3
-129 -19 -180 28 -244 224 -55 167 -55 169 -26 232 35 77 167 208 254 251 86
43 135 42 219 -1z m62 -873 c75 -36 146 -95 200 -168 41 -56 100 -157 100
-172 0 -5 -166 -9 -407 -9 -225 0 -439 -4 -476 -9 l-68 -8 16 38 c20 50 95
163 140 213 48 52 133 110 197 133 84 29 213 22 298 -18z M4120 6423 c-27 -10
-65 -37 -96 -68 -74 -74 -84 -114 -84 -330 0 -203 10 -250 71 -319 53 -60 107
-87 185 -94 118 -9 227 54 275 160 23 50 24 64 24 253 0 199 0 200 -28 257
-64 131 -208 189 -347 141z m128 -241 c9 -7 12 -47 10 -168 l-3 -159 -31 -3
c-58 -6 -64 12 -64 174 0 141 1 145 23 154 28 11 49 12 65 2z M6344 6424 c-60
-21 -119 -77 -151 -142 -28 -57 -28 -58 -28 -257 0 -189 1 -203 24 -253 48
-106 157 -169 275 -160 78 7 132 34 185 94 61 69 71 116 71 319 0 216 -10 256
-83 330 -80 80 -190 106 -293 69z m124 -242 c9 -7 12 -47 10 -168 l-3 -159
-27 -3 c-15 -2 -36 2 -48 8 -19 10 -20 20 -20 161 0 146 1 150 23 159 28 11
49 12 65 2z M5050 5249 c-82 -33 -134 -111 -134 -199 0 -79 42 -146 119 -188
44 -25 480 -31 557 -8 93 27 151 101 152 196 1 70 -32 132 -92 175 l-44 30
-266 2 c-162 1 -277 -2 -292 -8z M6175 4255 c-16 -9 -45 -26 -63 -39 -127 -94
-572 -153 -970 -128 -298 18 -487 60 -610 136 -47 30 -67 36 -111 36 -141 0
-227 -144 -158 -265 62 -109 306 -206 632 -251 183 -25 685 -26 865 -1 313 44
558 136 630 237 25 35 38 117 26 164 -23 91 -156 152 -241 111z"/>
</g>
</svg>
