<?xml version="1.0" standalone="no"?>
<!DOCTYPE svg PUBLIC "-//W3C//DTD SVG 20010904//EN"
 "http://www.w3.org/TR/2001/REC-SVG-20010904/DTD/svg10.dtd">
<svg version="1.0" xmlns="http://www.w3.org/2000/svg"
 width="2048.000000pt" height="2048.000000pt" viewBox="0 0 2048.000000 2048.000000"
 preserveAspectRatio="xMidYMid meet">
<metadata>
Created by potrace 1.13, written by Peter Selinger 2001-2015
</metadata>
<g transform="translate(0.000000,2048.000000) scale(0.192120,-0.192120)"
fill="#000000" stroke="none">
<path d="M5085 10043 c-500 -34 -1109 -213 -1630 -478 -630 -321 -1196 -795
-1602 -1345 -526 -713 -839 -1557 -938 -2530 -45 -455 -48 -1740 -5 -2630 55
-1122 203 -1871 438 -2216 55 -82 151 -170 219 -202 54 -25 67 -27 193 -27
268 1 476 56 1175 307 361 130 649 227 870 295 l90 27 -45 9 c-25 5 -99 9
-165 9 -193 1 -232 -10 -1100 -313 -352 -123 -609 -182 -805 -183 -117 -1
-128 1 -182 27 -260 127 -442 708 -532 1697 -35 381 -37 505 -34 1890 4 1533
-2 1388 74 1805 111 602 349 1211 662 1690 552 846 1354 1478 2297 1808 656
230 1250 286 1870 176 894 -160 1800 -654 2427 -1324 364 -388 580 -707 864
-1275 174 -348 325 -902 394 -1442 21 -166 21 -183 17 -1915 -3 -1523 -6
-1771 -20 -1923 -34 -363 -63 -558 -102 -685 -31 -104 -104 -271 -145 -335
-102 -159 -280 -220 -558 -192 -233 23 -427 75 -867 230 -429 151 -680 230
-820 257 -42 8 -272 6 -319 -3 -36 -7 -27 -10 140 -61 183 -56 521 -172 949
-326 631 -227 955 -291 1221 -240 273 52 431 259 522 685 95 439 124 1042 138
2835 6 868 -1 1254 -31 1542 -146 1418 -746 2572 -1755 3375 -690 549 -1563
906 -2385 977 -111 10 -403 12 -520 4z M3490 6824 c-466 -466 -550 -544 -820
-764 -359 -292 -497 -462 -588 -722 -63 -178 -85 -345 -71 -544 83 -1219 571
-2336 1344 -3072 394 -376 870 -643 1358 -761 236 -57 317 -66 617 -66 219 0
297 4 385 18 518 86 950 282 1382 625 148 118 417 389 547 552 394 494 682
1084 851 1746 120 465 182 1010 141 1226 -136 715 -812 1226 -1791 1353 -66 9
-235 20 -375 25 -404 15 -613 49 -1010 167 -412 122 -1007 377 -1392 596 -65
37 -121 67 -125 67 -5 0 -208 -201 -453 -446z m758 125 c654 -321 1170 -505
1657 -593 191 -34 289 -44 575 -56 402 -18 639 -59 930 -162 191 -67 372 -159
523 -266 239 -168 476 -471 557 -713 21 -65 22 -76 17 -385 -5 -340 -10 -385
-70 -619 -14 -55 -29 -120 -32 -145 -29 -204 -103 -459 -182 -630 -19 -41 -43
-95 -53 -120 -10 -25 -54 -122 -99 -217 -45 -95 -81 -175 -81 -178 0 -2 -19
-44 -42 -92 -107 -225 -318 -531 -494 -715 -91 -96 -337 -320 -441 -401 -99
-78 -202 -147 -263 -175 -25 -11 -135 -62 -245 -113 -442 -203 -701 -268
-1112 -276 -250 -6 -356 2 -561 42 -215 42 -380 98 -642 217 -395 180 -434
204 -664 401 -232 199 -369 352 -585 657 -59 83 -151 226 -151 235 0 2 -26 48
-57 102 -251 434 -435 966 -540 1562 -27 151 -28 167 -28 516 0 350 1 362 23
430 79 237 217 407 552 683 257 212 299 250 730 678 223 221 421 411 440 423
64 38 92 31 338 -90z M3859 5318 c-60 -16 -130 -77 -164 -143 l-30 -59 0 -340
c0 -338 0 -341 24 -394 84 -186 331 -218 465 -60 61 71 66 103 66 453 0 371
-3 390 -83 470 -77 76 -172 102 -278 73z M6620 5313 c-26 -9 -66 -38 -96 -68
-81 -80 -84 -99 -84 -470 0 -356 4 -383 71 -459 53 -60 107 -87 185 -94 118
-9 218 48 271 156 l28 57 0 340 c0 325 -1 342 -21 386 -48 103 -130 159 -243
165 -44 3 -81 -2 -111 -13z M4956 3924 c-61 -22 -122 -78 -152 -141 -68 -137
-9 -303 131 -369 50 -24 53 -24 395 -24 342 0 345 0 395 24 220 104 205 433
-23 510 -64 22 -686 22 -746 0z m629 -244 c22 -18 18 -37 -7 -45 -36 -11 -337
-18 -421 -10 -86 8 -119 24 -98 48 17 21 82 25 319 22 132 -2 197 -7 207 -15z
M4396 2810 c-98 -38 -165 -130 -174 -236 -10 -129 48 -216 222 -329 157 -102
341 -175 549 -217 97 -20 142 -23 337 -23 249 0 356 15 541 75 249 82 488 238
544 355 61 129 4 295 -125 360 -110 56 -209 41 -330 -50 -175 -133 -365 -189
-635 -189 -281 1 -440 53 -668 219 -81 58 -170 70 -261 35z m181 -282 c15 -7
65 -34 111 -61 46 -27 122 -67 168 -89 76 -36 100 -45 127 -47 4 -1 7 -8 7
-16 0 -13 -7 -15 -37 -9 -21 4 -46 8 -55 8 -10 0 -18 4 -18 9 0 4 -4 6 -9 2
-12 -7 -189 57 -254 92 -65 36 -107 76 -107 102 0 24 24 28 67 9z m1571 -10
c4 -23 -50 -70 -122 -106 -81 -41 -195 -84 -223 -84 -13 0 -23 -3 -23 -7 0 -4
-18 -6 -40 -6 -22 0 -40 -3 -40 -7 0 -5 -7 -8 -15 -8 -16 0 -21 29 -5 31 38 5
167 65 290 136 58 33 112 63 120 66 25 9 55 1 58 -15z m-492 -226 c-4 -3 -12
0 -19 7 -9 9 -9 14 3 21 11 7 16 5 18 -6 2 -9 1 -18 -2 -22z m-628 16 c-6 -18
-28 -21 -28 -4 0 9 7 16 16 16 9 0 14 -5 12 -12z m47 -7 c3 -5 1 -12 -5 -16
-5 -3 -10 1 -10 9 0 18 6 21 15 7z m525 -7 c0 -8 -4 -12 -10 -9 -5 3 -10 10
-10 16 0 5 5 9 10 9 6 0 10 -7 10 -16z m-455 -4 c3 -5 1 -10 -4 -10 -6 0 -11
5 -11 10 0 6 2 10 4 10 3 0 8 -4 11 -10z m385 0 c0 -5 -5 -10 -11 -10 -5 0 -7
5 -4 10 3 6 8 10 11 10 2 0 4 -4 4 -10z"/>
</g>
</svg>
