<?xml version="1.0" standalone="no"?>
<!DOCTYPE svg PUBLIC "-//W3C//DTD SVG 20010904//EN"
 "http://www.w3.org/TR/2001/REC-SVG-20010904/DTD/svg10.dtd">
<svg version="1.0" xmlns="http://www.w3.org/2000/svg"
 width="2048.000000pt" height="2048.000000pt" viewBox="0 0 2048.000000 2048.000000"
 preserveAspectRatio="xMidYMid meet">
<metadata>
Created by potrace 1.13, written by Peter Selinger 2001-2015
</metadata>
<g transform="translate(0.000000,2048.000000) scale(0.192120,-0.192120)"
fill="#000000" stroke="none">
<path d="M5279 10186 c-3 -4 -3630 -782 -3816 -819 -40 -8 -84 -22 -98 -31
-74 -49 -86 -150 -24 -211 30 -30 59 -41 274 -102 l240 -69 3 -848 2 -848 -34
-39 c-38 -45 -69 -133 -88 -254 -20 -124 -17 -699 5 -895 52 -460 147 -740
253 -740 99 0 191 246 237 637 15 126 8 161 -28 141 -30 -17 -41 -34 -100
-154 -76 -156 -98 -168 -131 -72 -18 49 -19 93 -19 590 l0 537 22 22 c44 44
66 -6 112 -252 44 -236 82 -350 130 -393 18 -16 23 -17 37 -5 15 12 16 41 11
279 -7 352 -31 486 -103 561 l-25 26 -1 784 -1 784 74 6 c70 7 87 3 314 -59
132 -36 242 -67 244 -69 2 -1 -8 -51 -22 -110 -40 -165 -50 -253 -51 -428 -1
-151 1 -165 27 -240 44 -125 106 -210 225 -306 294 -238 783 -375 1582 -446
297 -26 1301 -26 1600 0 761 66 1258 202 1553 423 151 114 239 243 273 404 29
133 0 462 -55 638 -14 45 -16 64 -8 67 7 2 322 91 702 199 659 187 691 197
724 230 62 62 50 163 -24 212 -14 9 -58 23 -98 31 -40 8 -921 197 -1960 419
-1038 222 -1902 404 -1921 404 -18 0 -35 -2 -37 -4z m146 -321 c96 -12 2567
-545 2596 -561 16 -8 27 -19 24 -23 -10 -17 -101 -54 -235 -97 -279 -89 -2385
-685 -2441 -691 -77 -8 -136 5 -413 88 -271 81 -356 114 -356 140 0 22 9 24
366 54 333 29 379 36 451 70 74 37 177 150 219 241 66 143 38 252 -101 392
-44 43 -92 81 -121 94 -91 40 -96 39 -931 -28 -238 -19 -498 -36 -578 -37 -80
-1 -145 -5 -145 -8 0 -8 -59 2 -65 12 -6 9 22 26 56 33 13 2 38 9 54 15 40 15
1366 298 1447 309 34 5 77 8 93 6 17 -2 53 -6 80 -9z m-35 -523 c75 -37 102
-127 57 -193 -46 -68 7 -61 -1187 -159 -602 -49 -1144 -95 -1205 -101 -60 -6
-220 -18 -355 -28 l-245 -18 -33 28 c-66 58 -223 75 -306 33 -42 -20 -103 -29
-119 -16 -7 6 -40 25 -74 41 -61 30 -61 31 -53 62 20 68 58 85 236 101 172 15
145 25 -96 34 -183 7 -265 21 -340 59 -55 28 -76 59 -66 99 8 32 -27 39 356
-72 162 -46 311 -89 330 -94 27 -8 380 19 1515 114 814 69 1496 126 1515 127
19 0 51 -7 70 -17z m3668 -71 c8 -79 -46 -101 -708 -291 -195 -56 -377 -114
-404 -128 -61 -33 -86 -66 -93 -121 -5 -34 -11 -45 -32 -53 -61 -24 -2468
-708 -2491 -708 -18 0 -2183 614 -2492 707 -24 7 -22 27 5 59 21 24 33 27 122
35 123 11 169 24 213 57 l33 25 177 -48 c97 -26 574 -161 1059 -300 l883 -252
1642 469 c1922 549 2060 588 2073 584 6 -1 11 -17 13 -35z m-4943 -1200 c578
-164 1077 -304 1109 -310 86 -16 160 -13 251 8 44 11 538 150 1097 310 559
160 1036 294 1058 297 l41 7 -3 -219 c-3 -211 -4 -221 -28 -268 -38 -76 -104
-135 -216 -192 -289 -150 -701 -244 -1289 -293 -221 -19 -698 -33 -890 -27
-439 14 -1112 68 -1335 107 -317 55 -622 162 -790 278 -59 40 -121 121 -139
182 -12 41 -15 411 -3 423 4 4 25 5 47 2 23 -3 513 -140 1090 -305z M2703
7748 c-140 -232 -280 -617 -347 -958 -60 -303 -76 -515 -83 -1095 -17 -1478
86 -2357 314 -2690 50 -73 84 -106 143 -137 39 -20 58 -23 145 -22 179 3 347
47 834 220 163 58 364 127 446 153 l150 47 3 33 3 33 57 -59 c155 -158 387
-273 647 -319 142 -26 489 -26 630 0 235 43 449 143 602 281 72 64 92 94 86
127 l-5 27 -117 -59 c-155 -77 -217 -103 -352 -143 -202 -61 -286 -72 -549
-72 -206 0 -249 3 -350 23 -707 143 -1306 664 -1643 1429 -68 157 -141 368
-177 520 l-23 91 -69 0 c-55 0 -81 6 -126 28 -154 75 -280 293 -313 539 -16
121 -6 317 21 425 66 267 241 460 416 460 94 0 165 -30 238 -102 39 -38 65
-56 72 -51 7 4 81 64 165 133 135 109 525 478 516 487 -2 2 -35 -6 -73 -18
-129 -39 -227 -96 -372 -216 -149 -122 -226 -169 -264 -158 -13 4 -57 21 -98
38 -67 28 -86 31 -176 32 -96 0 -103 -1 -178 -38 -137 -68 -214 -154 -327
-365 l-34 -62 -3 160 c-2 143 0 170 23 262 36 144 107 371 166 535 60 163 67
225 47 411 l-13 123 -32 -53z m-162 -2311 c8 -12 38 -60 67 -107 28 -47 73
-112 101 -144 48 -57 179 -156 205 -156 24 0 77 -32 92 -55 8 -13 39 -90 68
-172 139 -388 288 -672 502 -955 43 -57 142 -169 221 -249 85 -86 143 -154
143 -165 0 -26 -24 -44 -90 -71 -172 -69 -587 -225 -659 -247 -147 -47 -302
-57 -365 -25 -118 61 -200 282 -265 709 -47 311 -51 401 -51 1046 0 338 3 614
8 614 4 0 14 -11 23 -23z M7890 7646 c-18 -150 -10 -229 38 -376 23 -69 59
-201 82 -295 38 -159 40 -179 40 -318 l0 -147 -95 94 c-74 75 -110 103 -169
131 -137 66 -252 59 -403 -21 -105 -56 -134 -56 -233 -3 -205 109 -376 176
-497 193 -21 3 -69 11 -108 16 -38 6 -203 13 -365 16 -339 5 -481 15 -739 50
-101 13 -186 23 -188 20 -8 -7 211 -75 342 -106 155 -37 312 -57 505 -65 85
-3 193 -10 240 -16 346 -41 664 -166 874 -342 l71 -59 15 24 c33 51 112 126
162 153 41 22 69 30 130 33 72 4 83 2 142 -27 132 -65 247 -234 298 -436 29
-119 32 -377 6 -498 -51 -227 -171 -404 -317 -470 -45 -20 -145 -27 -186 -14
-19 7 -23 -3 -57 -135 -112 -445 -337 -880 -614 -1193 -142 -161 -294 -297
-439 -395 l-72 -49 -7 -73 c-4 -54 -11 -76 -24 -83 -46 -27 -91 -86 -111 -149
-40 -125 -23 -211 49 -240 75 -30 77 -28 85 78 4 52 4 144 0 205 -4 61 -4 111
0 111 19 0 298 -92 550 -182 552 -197 686 -231 890 -231 111 -1 138 3 187 22
188 73 285 286 332 732 27 250 35 455 47 1164 12 733 8 1362 -11 1560 -38 418
-146 848 -294 1175 -60 134 -123 250 -135 250 -4 0 -14 -47 -21 -104z m210
-3118 c0 -780 -2 -853 -19 -974 -43 -290 -90 -401 -191 -451 -47 -24 -70 -28
-162 -32 -149 -5 -211 11 -558 143 -162 62 -329 125 -372 141 -148 56 -148 66
4 216 297 297 542 685 696 1109 92 250 103 279 120 299 10 10 49 29 87 42 130
41 241 139 355 311 14 21 28 38 33 38 4 0 7 -379 7 -842z M4335 6061 c-69 -17
-125 -62 -161 -131 -17 -30 -19 -59 -19 -215 0 -196 4 -214 64 -278 110 -119
309 -89 377 56 22 49 24 63 24 223 0 162 -1 172 -25 221 -49 98 -157 149 -260
124z M6215 6061 c-70 -18 -125 -63 -161 -131 -15 -28 -19 -63 -22 -185 -5
-182 5 -237 55 -294 51 -61 104 -85 184 -86 56 0 73 4 115 30 30 19 60 49 79
79 30 49 30 49 33 224 4 198 -4 234 -62 294 -58 60 -149 88 -221 69z M5021
4884 c-49 -41 -64 -146 -28 -195 36 -48 49 -50 336 -50 178 0 278 4 292 11 75
41 79 194 7 244 -19 14 -65 16 -299 16 l-277 0 -31 -26z M4670 4345 c-74 -34
-112 -91 -114 -170 -1 -73 27 -120 110 -183 357 -273 973 -265 1322 17 57 45
82 96 82 164 0 71 -40 135 -102 166 -82 39 -134 27 -261 -62 -124 -87 -338
-127 -522 -97 -128 20 -205 54 -334 144 -52 36 -128 45 -181 21z M4310 3059
l0 -212 45 6 c45 7 95 40 95 64 0 8 5 11 11 7 13 -8 7 112 -8 168 -20 69 -55
129 -91 153 -20 14 -40 25 -44 25 -5 0 -8 -95 -8 -211z M3490 2823 c-25 -2
-92 -10 -150 -19 -484 -72 -931 -291 -1236 -605 -182 -188 -285 -367 -350
-610 l-28 -104 -4 -577 -3 -578 3611 0 3611 0 -3 578 -4 577 -28 104 c-65 243
-167 419 -350 609 -154 160 -300 266 -507 372 -219 112 -426 181 -674 227
-133 24 -162 25 -587 30 l-448 5 0 -46 c0 -99 -68 -215 -173 -293 -326 -242
-1022 -290 -1490 -102 -102 41 -175 87 -243 154 -70 70 -101 128 -116 219
l-11 66 -386 -2 c-212 -1 -406 -3 -431 -5z m385 -57 c33 -14 69 -26 81 -26 15
0 29 -15 48 -49 170 -314 425 -568 699 -696 191 -89 335 -124 557 -132 557
-21 1017 246 1326 767 57 97 60 100 94 100 20 0 67 15 109 35 40 19 77 35 81
35 24 0 -117 -364 -230 -595 -320 -650 -749 -1135 -1232 -1395 l-77 -41 -43
22 c-383 192 -766 566 -1050 1023 -186 300 -367 681 -442 935 -18 61 -23 60
79 17z m-235 -276 c15 -16 58 -98 95 -182 166 -380 402 -769 630 -1043 183
-220 315 -346 540 -517 111 -84 130 -108 98 -124 -10 -5 -300 -10 -644 -12
l-627 -3 -21 35 c-13 20 -33 93 -51 185 -34 172 -60 233 -129 304 -99 104
-156 103 -266 -7 -62 -62 -102 -148 -139 -300 -22 -86 -42 -146 -61 -174 l-28
-42 -68 0 -68 0 -25 43 c-14 24 -31 79 -41 132 -42 240 -79 317 -189 397 -51
37 -95 37 -150 -1 -105 -72 -160 -168 -202 -350 -47 -206 -61 -221 -195 -221
l-99 0 0 465 c0 444 1 469 21 527 94 280 338 523 704 704 270 132 562 210 798
213 86 1 90 0 117 -29z m3669 14 c547 -80 1080 -402 1260 -761 75 -150 71
-114 71 -650 l0 -483 -95 0 -95 0 -24 38 c-16 23 -36 84 -55 168 -45 199 -95
293 -195 366 -57 41 -101 38 -163 -11 -112 -90 -141 -146 -182 -357 -11 -56
-31 -125 -45 -153 l-26 -51 -69 0 c-94 0 -114 25 -150 192 -46 211 -98 311
-198 377 -76 51 -115 42 -204 -44 -72 -70 -104 -140 -139 -306 -20 -99 -37
-153 -55 -180 l-25 -39 -603 0 c-386 0 -615 4 -639 11 -63 17 -52 38 62 119
118 84 234 187 371 327 316 325 578 728 810 1252 35 79 76 157 91 172 25 27
31 29 108 29 45 0 130 -7 189 -16z m-4704 -1468 c28 -65 75 -432 75 -576 l0
-59 -52 24 c-66 31 -71 31 -137 0 l-54 -25 6 97 c13 202 61 460 98 536 24 46
46 47 64 3z m839 -13 c26 -75 87 -606 71 -621 -1 -2 -26 8 -54 22 -62 32 -73
32 -138 1 l-53 -24 0 32 c0 56 29 288 51 401 31 165 59 236 95 236 6 0 19 -21
28 -47z m3850 20 c34 -67 66 -217 92 -438 7 -66 14 -139 14 -162 l0 -42 -52
24 c-66 31 -70 31 -137 0 l-54 -26 6 123 c12 220 53 504 78 535 18 21 37 15
53 -14z m830 5 c41 -67 80 -278 110 -595 3 -29 3 -53 2 -53 -2 0 -28 11 -58
25 -66 31 -70 31 -137 0 l-54 -25 7 102 c16 245 53 505 77 550 13 25 36 22 53
-4z"/>
</g>
</svg>
