<?xml version="1.0" standalone="no"?>
<!DOCTYPE svg PUBLIC "-//W3C//DTD SVG 20010904//EN"
 "http://www.w3.org/TR/2001/REC-SVG-20010904/DTD/svg10.dtd">
<svg version="1.0" xmlns="http://www.w3.org/2000/svg"
 width="2048.000000pt" height="2048.000000pt" viewBox="0 0 2048.000000 2048.000000"
 preserveAspectRatio="xMidYMid meet">
<metadata>
Created by potrace 1.13, written by Peter Selinger 2001-2015
</metadata>
<g transform="translate(0.000000,2048.000000) scale(0.192120,-0.192120)"
fill="#000000" stroke="none">
<path d="M5205 10279 c-266 -39 -513 -226 -626 -474 l-28 -63 -53 50 c-247
229 -619 282 -921 132 -211 -105 -361 -284 -430 -515 -5 -14 -14 -13 -79 9
-99 35 -299 43 -415 17 -290 -64 -517 -270 -614 -556 -27 -80 -33 -113 -37
-219 -4 -124 1 -164 43 -305 5 -18 -2 -22 -72 -38 -235 -52 -422 -225 -500
-462 -36 -109 -38 -285 -5 -385 l22 -65 -27 -20 c-16 -11 -62 -54 -105 -96
-128 -130 -192 -287 -192 -474 1 -185 65 -345 189 -471 38 -39 83 -80 98 -90
l28 -19 -18 -65 c-23 -88 -23 -288 0 -385 22 -87 94 -235 144 -295 54 -66 130
-125 207 -161 121 -57 277 -50 392 17 l42 24 37 -108 c42 -123 93 -223 138
-270 35 -36 57 -40 79 -14 35 39 40 87 49 402 8 317 17 432 45 570 21 100 74
264 123 375 44 101 35 97 151 69 116 -27 370 -25 519 4 249 50 529 167 744
311 60 40 109 71 111 70 1 -2 11 -26 20 -54 66 -182 232 -352 451 -460 129
-64 193 -86 335 -116 138 -29 398 -32 534 -5 211 41 400 124 542 238 47 38 87
68 88 66 1 -2 11 -23 22 -48 88 -203 304 -383 574 -478 388 -136 870 -86 1179
122 30 20 55 35 56 34 8 -8 45 -205 55 -288 6 -52 15 -243 20 -425 5 -181 14
-350 20 -375 33 -132 90 -118 170 41 38 75 110 275 110 305 0 11 6 14 18 11 9
-4 51 -18 92 -33 66 -23 86 -26 163 -21 78 4 98 9 170 45 85 42 170 117 223
196 40 58 89 172 110 251 25 95 25 295 1 385 l-18 65 23 14 c13 8 57 49 98 90
129 130 193 288 194 476 0 187 -64 344 -192 474 -43 43 -89 86 -104 97 l-28
19 22 65 c33 99 31 276 -5 385 -79 241 -281 423 -520 468 -52 10 -58 13 -52
31 42 144 47 182 42 306 -5 139 -25 216 -84 335 -111 222 -322 386 -566 440
-116 26 -316 18 -415 -17 -65 -22 -74 -23 -79 -9 -69 231 -219 410 -430 515
-305 152 -687 94 -928 -139 l-45 -44 -29 64 c-151 333 -510 527 -876 474z
m260 -314 c109 -23 223 -84 293 -158 32 -34 95 -100 140 -147 44 -47 106 -100
137 -119 87 -53 114 -49 304 47 193 98 266 117 415 110 115 -6 199 -30 287
-84 79 -47 127 -98 200 -205 76 -114 182 -219 256 -255 l55 -27 147 12 c105 9
166 9 216 2 192 -28 332 -116 417 -260 l28 -46 0 -210 c0 -160 3 -215 13 -230
8 -11 17 -36 21 -55 18 -93 176 -264 307 -334 95 -49 149 -90 185 -141 l29
-40 3 -184 c3 -140 7 -189 18 -205 8 -11 14 -31 14 -44 0 -30 67 -147 145
-252 98 -132 95 -124 95 -323 l0 -174 -30 -56 c-16 -31 -57 -95 -91 -141 -33
-47 -74 -111 -90 -143 -29 -56 -29 -59 -29 -220 0 -143 -3 -173 -25 -248 -39
-135 -88 -205 -170 -242 -32 -14 -68 -18 -185 -18 -80 0 -153 -4 -162 -9 -13
-6 -19 -2 -24 18 -3 14 -10 26 -14 26 -4 0 -11 28 -15 63 -16 152 -48 312 -73
366 -31 65 -158 204 -214 232 -64 33 -113 23 -322 -60 -356 -143 -797 -112
-1081 74 -33 22 -123 103 -200 180 -90 90 -159 150 -194 169 -82 44 -115 37
-329 -72 -252 -127 -385 -162 -617 -162 -334 0 -625 119 -780 320 -78 102
-215 234 -268 259 -72 35 -108 25 -348 -95 -224 -113 -365 -168 -524 -205 -92
-22 -121 -24 -370 -24 l-270 0 -50 -29 c-75 -44 -194 -171 -237 -252 -69 -134
-124 -334 -158 -577 -16 -115 -25 -152 -40 -167 -11 -11 -20 -26 -20 -32 0 -9
-21 -13 -67 -14 -38 -1 -111 -3 -163 -5 -107 -4 -142 7 -204 61 -44 39 -90
125 -106 201 -7 30 -15 137 -19 239 -7 213 -6 210 -119 365 -36 49 -81 118
-99 153 l-33 63 0 155 c0 180 -4 170 112 327 85 115 138 215 138 260 0 15 5
27 10 27 6 0 10 66 10 177 0 158 2 181 21 220 29 59 99 119 210 178 70 37 113
69 169 125 77 77 140 177 140 223 0 14 4 29 10 32 6 4 10 86 10 214 0 204 0
208 27 262 56 113 205 226 353 264 75 20 200 24 347 11 99 -8 104 -8 155 17
72 35 176 142 253 258 69 105 138 172 226 219 129 69 313 89 462 51 46 -12
135 -50 223 -95 127 -66 154 -76 199 -76 69 0 127 37 230 148 44 47 110 116
146 152 139 140 355 199 564 155z M3855 5593 c-68 -25 -107 -54 -144 -109 -48
-73 -53 -120 -49 -466 4 -349 4 -351 76 -430 108 -120 296 -118 409 5 71 77
74 103 71 484 l-3 328 -30 53 c-67 123 -206 179 -330 135z M6659 5604 c-82
-15 -184 -114 -209 -202 -6 -22 -10 -167 -10 -348 0 -358 4 -387 73 -461 113
-123 301 -125 409 -5 74 82 73 76 73 462 0 380 0 377 -65 460 -54 68 -176 110
-271 94z M1518 5274 c-114 -346 -98 -782 43 -1119 78 -189 223 -361 359 -429
41 -20 95 -40 119 -44 l44 -7 32 -150 c123 -570 352 -1104 662 -1542 173 -246
425 -516 638 -687 547 -438 1158 -666 1835 -683 507 -13 947 82 1395 302 327
160 584 344 846 605 527 525 891 1226 1062 2045 l23 110 45 7 c83 14 187 75
269 157 192 192 305 489 326 856 11 186 -28 468 -84 610 l-20 50 -22 -70 c-21
-67 -22 -85 -20 -411 l1 -341 -49 -149 c-94 -286 -182 -410 -367 -521 -156
-92 -194 -144 -235 -323 -54 -236 -93 -355 -186 -575 -53 -126 -119 -284 -146
-350 -66 -162 -115 -260 -195 -388 -115 -182 -242 -345 -373 -477 -567 -572
-1153 -874 -1855 -955 -171 -20 -501 -19 -674 1 -665 77 -1239 359 -1769 868
-104 99 -314 364 -425 536 -234 363 -406 771 -527 1255 -24 94 -56 195 -71
226 -34 69 -94 123 -206 186 -47 26 -104 67 -128 90 -101 98 -183 243 -230
407 -24 85 -25 102 -31 450 -6 360 -11 421 -47 507 l-13 33 -26 -80z M4944
3641 c-187 -85 -226 -334 -72 -465 73 -63 94 -66 458 -66 364 0 385 3 458 66
154 131 115 380 -72 465 -38 17 -70 19 -386 19 -316 0 -348 -2 -386 -19z
M6649 2551 c-36 -11 -65 -28 -115 -66 -114 -88 -418 -163 -789 -195 -166 -15
-663 -15 -825 -1 -381 34 -662 104 -803 200 -77 53 -116 64 -196 59 -103 -8
-181 -59 -229 -152 -21 -41 -26 -65 -25 -121 0 -116 47 -188 171 -266 317
-200 889 -301 1617 -286 574 12 967 85 1274 234 189 93 271 192 271 329 0 173
-187 314 -351 265z m-2544 -331 c106 -50 225 -100 225 -95 0 2 17 -3 37 -12
21 -8 49 -17 63 -19 14 -2 36 -7 50 -11 14 -3 29 -5 33 -5 15 4 48 -19 42 -29
-8 -11 -45 -12 -45 0 0 4 -11 6 -25 3 -14 -2 -25 0 -25 7 0 5 -6 8 -14 5 -7
-3 -38 1 -67 9 -30 8 -62 13 -72 11 -9 -1 -17 2 -17 8 0 6 -7 8 -15 4 -8 -3
-15 -1 -15 4 0 5 -6 7 -13 4 -28 -10 -258 86 -286 120 -7 9 -10 23 -7 32 8 21
50 12 151 -36z m2602 42 c18 -11 -25 -55 -82 -85 -66 -34 -193 -78 -227 -79
-16 -1 -28 -4 -28 -9 0 -4 -8 -6 -17 -5 -10 2 -42 -3 -72 -11 -29 -8 -60 -12
-67 -9 -8 3 -14 1 -14 -5 0 -6 -10 -9 -22 -8 -13 1 -31 -2 -41 -6 -27 -11 -44
10 -19 24 10 6 22 8 25 5 3 -3 14 -1 24 4 10 5 34 12 53 15 56 9 175 54 310
118 122 57 153 66 177 51z m-2094 -217 c1 -6 -8 -11 -20 -13 -18 -3 -23 2 -23
17 0 16 4 19 21 13 11 -5 21 -12 22 -17z m1477 5 c0 -13 -7 -20 -19 -20 -41 0
-29 28 17 39 1 1 2 -8 2 -19z m-1406 -9 c3 -5 -1 -12 -10 -15 -25 -10 -34 -7
-34 9 0 16 35 21 44 6z m1336 -6 c0 -16 -9 -19 -34 -9 -20 8 -11 24 15 24 10
0 19 -7 19 -15z m-1265 -1 c13 -5 14 -8 3 -15 -20 -13 -38 -11 -38 6 0 16 9
19 35 9z m1185 -9 c0 -16 -9 -19 -34 -9 -20 8 -11 24 15 24 10 0 19 -7 19 -15z
m-1086 -4 c3 -5 -1 -12 -10 -15 -25 -10 -34 -7 -34 9 0 16 35 21 44 6z m996
-6 c0 -16 -9 -19 -34 -9 -20 8 -11 24 15 24 10 0 19 -7 19 -15z m-870 -5 c8
-5 11 -10 5 -10 -5 0 -20 -3 -32 -6 -17 -5 -23 -2 -23 10 0 18 27 21 50 6z
m750 -6 c0 -12 -6 -15 -22 -10 -13 3 -30 6 -38 7 -10 0 -8 3 5 9 32 14 55 11
55 -6z m-200 -9 c0 -6 -73 -10 -200 -10 -127 0 -200 4 -200 10 0 6 73 10 200
10 127 0 200 -4 200 -10z"/>
</g>
</svg>
