<?xml version="1.0" standalone="no"?>
<!DOCTYPE svg PUBLIC "-//W3C//DTD SVG 20010904//EN"
 "http://www.w3.org/TR/2001/REC-SVG-20010904/DTD/svg10.dtd">
<svg version="1.0" xmlns="http://www.w3.org/2000/svg"
 width="2048.000000pt" height="2048.000000pt" viewBox="0 0 2048.000000 2048.000000"
 preserveAspectRatio="xMidYMid meet">
<metadata>
Created by potrace 1.13, written by Peter Selinger 2001-2015
</metadata>
<g transform="translate(0.000000,2048.000000) scale(0.192120,-0.192120)"
fill="#000000" stroke="none">
<path d="M4985 10319 c-1310 -83 -2440 -661 -2835 -1449 -101 -201 -139 -352
-147 -575 -6 -195 9 -305 68 -480 63 -191 165 -366 314 -544 l75 -89 -16 -43
c-26 -73 -81 -297 -103 -419 -56 -310 -71 -562 -71 -1160 0 -484 12 -965 30
-1230 56 -811 184 -1286 388 -1434 62 -46 123 -60 220 -51 199 18 340 57 817
227 154 55 348 121 430 147 l150 47 3 33 3 33 77 -75 c244 -237 567 -340 1017
-323 382 13 657 118 873 332 52 52 62 68 62 96 l0 34 -152 -76 c-169 -84 -347
-147 -514 -181 -154 -31 -465 -38 -620 -14 -229 35 -408 92 -619 198 -66 32
-122 63 -125 66 -3 4 -23 18 -45 31 -22 13 -80 54 -130 90 -604 447 -999 1215
-1086 2110 -33 350 34 579 230 783 25 27 125 112 221 190 115 93 259 225 420
384 l245 243 -90 -31 c-176 -61 -267 -118 -435 -270 -47 -43 -141 -123 -210
-179 -140 -113 -285 -252 -335 -320 -50 -69 -121 -207 -152 -295 l-28 -80 0
-300 c0 -266 3 -314 22 -421 69 -378 181 -710 349 -1033 150 -289 328 -527
574 -768 44 -42 80 -85 80 -95 0 -30 -36 -53 -143 -93 -56 -21 -181 -68 -277
-105 -254 -98 -511 -170 -602 -170 -200 0 -303 246 -395 945 -15 115 -17 265
-20 1295 -4 1289 -8 1191 63 1544 48 237 45 263 -27 307 -81 49 -77 37 -45
136 41 126 163 398 211 470 1 2 24 -19 52 -46 214 -206 954 -365 1961 -421
247 -14 976 -14 1222 0 995 56 1715 206 1950 407 22 19 42 34 44 32 11 -11
111 -221 141 -294 37 -88 98 -266 93 -270 -2 -2 -27 -14 -55 -29 -29 -14 -60
-37 -69 -51 -26 -39 -20 -124 22 -320 l39 -180 3 -1425 c3 -1502 3 -1514 -43
-1741 -51 -252 -110 -330 -267 -359 -122 -23 -326 33 -835 227 -128 48 -242
96 -253 105 -38 33 -25 56 81 157 377 356 688 921 835 1516 63 257 76 357 81
615 4 217 3 242 -17 320 -31 123 -123 307 -207 415 -182 234 -475 417 -808
504 -136 36 -251 51 -475 61 -432 19 -508 27 -785 76 -127 22 -501 97 -550
110 -43 10 66 -41 190 -91 399 -160 688 -227 1040 -240 273 -10 446 -38 646
-105 415 -138 704 -400 808 -730 48 -153 51 -248 16 -515 -72 -555 -275 -1073
-578 -1477 -153 -205 -340 -391 -511 -511 -130 -91 -123 -83 -130 -163 l-6
-71 123 -38 c67 -20 255 -85 417 -142 510 -182 669 -226 860 -239 267 -17 410
88 493 366 79 263 102 556 118 1550 13 790 7 1385 -15 1606 -27 263 -86 565
-144 734 l-19 54 79 91 c210 239 349 519 394 793 23 142 14 382 -20 517 -77
308 -234 566 -504 827 -486 469 -1259 797 -2142 907 -312 39 -677 50 -995 30z
m820 -298 c428 -58 843 -183 1260 -381 281 -133 620 -344 843 -523 l62 -50 0
-458 c0 -252 -3 -465 -6 -474 -6 -14 -9 -14 -28 3 -47 42 -143 102 -174 108
-17 4 -32 10 -32 15 0 5 -362 9 -829 9 -785 0 -919 4 -943 28 -15 15 2 36 62
81 135 101 222 216 261 343 26 85 28 424 3 509 -32 108 -110 200 -211 246 -44
21 -78 27 -177 33 -117 6 -126 9 -221 52 -157 72 -202 83 -345 83 -144 0 -188
-11 -345 -83 -96 -44 -105 -46 -221 -53 -144 -7 -202 -29 -277 -103 -99 -98
-117 -163 -117 -424 0 -230 9 -272 80 -392 49 -81 84 -120 183 -199 42 -34 77
-69 77 -76 0 -39 -14 -40 -922 -43 -483 -1 -878 -6 -878 -11 0 -5 -12 -12 -27
-16 -15 -3 -62 -33 -104 -65 -59 -44 -79 -55 -83 -43 -3 8 -6 221 -6 472 l0
458 103 80 c302 237 704 465 1087 616 402 159 720 234 1195 281 22 2 162 2
310 1 199 -3 309 -9 420 -24z m-294 -555 c72 -25 158 -78 202 -124 l28 -29 82
30 c104 37 192 42 234 12 38 -28 80 -116 93 -195 5 -36 10 -124 10 -195 0
-203 -34 -299 -144 -403 -126 -120 -342 -174 -686 -174 -344 0 -560 54 -686
174 -110 104 -144 200 -144 403 0 71 5 159 10 195 13 79 55 167 93 195 42 30
130 25 234 -12 l82 -30 28 29 c62 65 188 130 285 147 77 14 202 4 279 -23z
m2726 -645 c34 -45 79 -141 102 -215 19 -62 21 -92 21 -321 0 -212 -2 -255
-15 -265 -9 -8 -15 -8 -15 -2 0 15 -93 153 -119 176 -21 19 -21 25 -21 342 0
346 0 349 47 285z m-5816 -656 c-16 -18 -39 -51 -52 -74 -12 -23 -26 -41 -30
-41 -4 0 -9 -10 -13 -22 -5 -22 -6 -22 -23 -5 -16 16 -18 43 -21 247 -3 211
-1 235 19 302 24 82 66 171 113 238 l31 45 3 -329 2 -328 -29 -33z m5608 -73
c99 -50 105 -177 12 -239 l-34 -23 -2677 0 -2677 0 -34 23 c-93 62 -87 189 12
239 32 17 182 18 2699 18 2517 0 2667 -1 2699 -18z M4811 9226 c-84 -62 -105
-125 -99 -303 3 -121 5 -132 37 -196 37 -77 112 -158 182 -196 39 -21 42 -22
23 -3 -118 114 -178 254 -177 412 0 102 17 179 59 262 27 54 22 59 -25 24z
M5824 9202 c100 -197 75 -442 -62 -610 -19 -24 -44 -53 -56 -64 -19 -19 -16
-18 23 3 67 36 147 122 183 198 31 62 33 74 36 194 5 177 -18 246 -103 304
-19 13 -37 23 -40 23 -3 0 6 -22 19 -48z M4335 6061 c-69 -17 -125 -62 -161
-131 -17 -30 -19 -59 -19 -215 0 -196 4 -214 64 -278 110 -119 309 -89 377 56
22 49 24 63 24 223 0 162 -1 172 -25 221 -49 98 -157 149 -260 124z M6215
6061 c-70 -18 -125 -63 -161 -131 -15 -28 -19 -63 -22 -185 -5 -201 4 -243 72
-310 36 -36 65 -55 99 -64 100 -28 206 14 262 103 30 49 30 49 33 224 4 198
-4 234 -62 294 -58 60 -149 88 -221 69z M5021 4884 c-69 -58 -62 -192 12 -231
24 -12 79 -15 300 -14 250 0 273 2 297 19 14 10 31 30 37 43 17 33 16 114 -2
149 -31 60 -33 60 -336 60 l-277 0 -31 -26z M4665 4342 c-124 -58 -148 -209
-50 -307 159 -159 466 -257 760 -241 66 3 159 15 207 25 205 46 420 166 469
262 47 93 8 214 -83 258 -82 39 -134 27 -261 -62 -124 -87 -338 -127 -522 -97
-128 20 -205 54 -334 144 -55 38 -128 45 -186 18z M4310 3030 l0 -209 158
-108 c431 -295 708 -435 862 -434 157 0 426 137 870 441 l153 105 -5 198 c-3
109 -8 200 -11 203 -3 3 -16 -2 -30 -11 -30 -20 -79 -110 -102 -190 -9 -33
-21 -68 -26 -77 -5 -10 -9 -27 -9 -37 0 -11 -8 -26 -18 -33 -10 -7 -21 -20
-24 -28 -6 -15 -87 -67 -328 -214 -208 -125 -377 -196 -470 -196 -105 0 -255
65 -529 229 -201 121 -291 184 -291 207 0 6 -9 19 -20 29 -11 10 -20 29 -20
42 0 32 -37 147 -66 205 -22 43 -65 88 -85 88 -5 0 -9 -94 -9 -210z M3965
2930 c-9 -15 5 -32 21 -26 7 3 16 1 19 -3 6 -11 55 -20 55 -10 0 13 -52 49
-71 49 -10 0 -21 -4 -24 -10z M6629 2914 l-24 -26 34 14 c36 14 53 38 29 38
-8 0 -25 -12 -39 -26z M3737 2798 c18 -18 36 -44 41 -57 9 -24 9 -24 39 20 16
24 33 50 37 57 5 9 -11 12 -70 12 l-78 0 31 -32z M4150 2827 c0 -3 181 -131
263 -187 12 -8 -4 10 -36 39 -61 56 -87 96 -87 131 0 18 -6 20 -70 20 -38 0
-70 -1 -70 -3z M6365 2794 c-4 -22 -22 -53 -47 -80 -61 -66 -360 -273 -613
-425 -128 -76 -191 -124 -198 -149 -4 -16 -2 -20 9 -16 16 6 241 162 589 409
132 94 280 199 329 234 l89 63 -75 0 -76 0 -7 -36z M6838 2776 c36 -53 37 -54
47 -30 6 13 24 37 40 54 l29 30 -77 0 -76 0 37 -54z M3370 2796 c-41 -6 -69
-14 -62 -16 14 -6 30 -86 66 -327 36 -237 40 -216 -43 -208 -62 6 -73 4 -117
-19 -27 -14 -41 -26 -30 -26 46 0 382 62 408 76 39 20 68 70 68 119 0 74 -45
322 -64 349 -24 38 -75 66 -116 65 -19 -1 -69 -7 -110 -13z M7113 2790 c-52
-31 -65 -63 -90 -214 -28 -174 -28 -212 -3 -254 28 -46 63 -58 263 -92 179
-30 227 -35 197 -22 -8 4 -27 15 -43 26 -23 16 -38 17 -104 11 l-76 -7 7 64
c13 130 74 471 85 477 10 7 -138 31 -185 31 -11 0 -33 -9 -51 -20z M3150 2762
l-95 -15 62 -15 c70 -17 94 -13 142 23 33 24 33 25 10 24 -13 -1 -67 -8 -119
-17z M7410 2750 c50 -33 71 -35 144 -16 l48 13 -100 16 c-138 23 -145 22 -92
-13z M2770 2700 c-129 -20 -368 -58 -531 -84 -415 -65 -455 -73 -484 -92 -35
-23 -55 -64 -55 -113 0 -58 40 -300 55 -338 19 -46 68 -73 130 -72 54 0 215
26 178 28 -27 1 -26 0 -57 191 -37 226 -50 329 -43 336 3 4 27 -1 53 -10 68
-23 85 -20 145 19 29 20 56 32 60 28 4 -4 23 -107 42 -228 48 -304 47 -293 34
-299 -7 -4 2 -4 18 -2 17 3 85 13 153 23 114 16 123 19 118 38 -9 35 -55 316
-69 423 -13 94 -13 103 2 99 121 -35 136 -34 196 13 21 16 41 30 46 30 4 0 12
-24 19 -52 16 -76 70 -425 70 -454 0 -14 6 -27 13 -29 6 -2 76 6 154 18 101
16 138 25 128 32 -10 7 -26 86 -50 250 -47 311 -41 285 -68 284 -12 -1 -128
-18 -257 -39z M7606 2718 c-3 -13 -8 -45 -11 -73 -16 -129 -68 -431 -76 -440
-10 -10 268 -58 282 -50 3 3 9 30 12 61 10 101 69 451 78 465 6 10 13 11 22 4
96 -69 96 -69 145 -58 26 6 57 14 70 18 20 7 22 4 22 -26 0 -18 -16 -133 -35
-254 -20 -121 -37 -229 -38 -239 -2 -17 11 -21 108 -37 61 -10 124 -20 140
-23 30 -6 31 -5 33 31 1 21 18 137 38 258 19 121 36 229 37 239 2 18 -13 22
-143 43 -214 34 -663 103 -672 103 -4 0 -10 -10 -12 -22z M4440 2626 c0 -2 8
-10 18 -17 15 -13 16 -12 3 4 -13 16 -21 21 -21 13z M8480 2580 c68 -57 79
-58 203 -23 13 4 17 -1 17 -23 0 -31 -66 -457 -76 -486 -3 -10 -15 -18 -27
-19 -37 -2 125 -27 178 -28 61 -1 105 23 127 70 18 37 58 275 58 340 0 49 -20
90 -56 114 -23 15 -393 86 -444 85 -9 0 -2 -12 20 -30z M4480 2596 c0 -2 8
-10 18 -17 15 -13 16 -12 3 4 -13 16 -21 21 -21 13z M4524 2562 c4 -7 543
-385 604 -423 20 -13 32 -17 32 -9 0 24 -67 77 -180 145 -63 38 -193 119 -288
182 -95 62 -171 110 -168 105z M3790 2221 c-17 -71 -17 -222 -1 -291 35 -147
127 -478 161 -583 43 -130 76 -194 116 -226 26 -21 64 -28 64 -13 0 4 -21 68
-45 142 -63 189 -146 481 -219 775 l-63 250 -13 -54z M6798 2016 c-63 -257
-165 -616 -227 -799 -38 -114 -39 -118 -18 -111 77 24 112 96 202 406 133 463
149 548 125 672 -7 36 -15 66 -19 66 -3 0 -32 -105 -63 -234z M2716 2162 c-10
-2 -39 -15 -65 -29 l-46 -25 50 8 c28 3 81 12 119 18 l69 11 -55 10 c-29 6
-62 9 -72 7z M7865 2156 l-49 -12 84 -12 c47 -7 101 -15 120 -18 31 -5 28 -2
-25 25 -33 17 -64 30 -70 30 -5 -1 -32 -7 -60 -13z M2135 2064 c-71 -36 -52
-42 70 -20 l70 12 -34 12 c-45 16 -70 15 -106 -4z M8415 2066 c-28 -12 -26
-13 58 -25 49 -7 91 -11 94 -8 10 11 -62 47 -92 47 -16 -1 -43 -7 -60 -14z
M5198 1908 c-213 -145 -458 -339 -458 -364 0 -7 16 -62 36 -121 25 -75 60
-149 115 -242 43 -73 79 -135 79 -138 0 -3 -20 -27 -44 -54 -98 -109 -192
-355 -240 -626 l-5 -33 650 0 651 0 -7 38 c-13 72 -66 248 -106 347 -38 96
-122 255 -160 303 -18 23 -17 24 15 75 85 136 138 241 171 342 19 61 35 113
35 116 0 18 -372 300 -542 411 l-56 37 -134 -91z m202 -199 c19 -12 37 -24 40
-28 3 -3 55 -43 116 -88 60 -45 118 -91 128 -102 28 -31 16 -84 -38 -172 -52
-87 -76 -147 -76 -193 0 -54 -21 -59 -238 -62 -177 -2 -194 0 -217 18 -18 14
-25 29 -25 56 0 43 -26 104 -80 187 -47 73 -59 132 -35 172 15 26 120 103 139
103 5 0 38 23 74 51 110 87 147 97 212 58z m110 -816 c106 -52 160 -129 160
-227 0 -76 -1 -76 -357 -76 -351 0 -353 0 -353 70 0 60 81 158 178 217 69 41
119 53 217 50 79 -2 99 -6 155 -34z M1822 1783 c-17 -37 -40 -99 -52 -138 -45
-148 -50 -227 -50 -787 l0 -528 1428 0 1427 1 -29 22 c-15 12 -56 39 -89 60
l-61 37 -1218 0 c-1076 0 -1218 2 -1218 15 0 11 -12 15 -45 15 l-45 0 0 534
c0 452 2 546 16 612 19 90 15 150 -13 194 l-20 31 -31 -68z M8786 1825 c-9
-14 -22 -50 -28 -78 -10 -46 -7 -67 18 -172 l29 -120 3 -488 3 -487 -26 0
c-16 0 -25 -6 -25 -15 0 -13 -141 -15 -1205 -15 -859 0 -1218 -3 -1252 -11
-69 -17 -119 -38 -171 -76 l-47 -33 1428 0 1427 0 0 528 c0 408 -3 549 -15
623 -15 103 -62 258 -99 327 l-22 44 -18 -27z M4635 1462 c-152 -133 -425
-421 -425 -448 0 -15 6 -24 16 -24 20 0 299 186 447 298 55 41 57 44 42 65
-19 27 -19 92 0 146 8 22 13 41 12 41 -2 0 -43 -35 -92 -78z M5955 1489 c20
-55 19 -109 -2 -138 -16 -24 -16 -25 17 -52 42 -36 290 -201 399 -268 154 -93
149 -67 -22 119 -124 135 -381 380 -398 380 -5 0 -2 -19 6 -41z"/>
</g>
</svg>
