<?xml version="1.0" standalone="no"?>
<!DOCTYPE svg PUBLIC "-//W3C//DTD SVG 20010904//EN"
 "http://www.w3.org/TR/2001/REC-SVG-20010904/DTD/svg10.dtd">
<svg version="1.0" xmlns="http://www.w3.org/2000/svg"
 width="2048.000000pt" height="2048.000000pt" viewBox="0 0 2048.000000 2048.000000"
 preserveAspectRatio="xMidYMid meet">
<metadata>
Created by potrace 1.13, written by Peter Selinger 2001-2015
</metadata>
<g transform="translate(0.000000,2048.000000) scale(0.192120,-0.192120)"
fill="#000000" stroke="none">
<path d="M6105 9350 c-863 -86 -1521 -456 -1910 -1075 -228 -362 -326 -769
-297 -1233 11 -172 37 -367 60 -447 8 -27 4 -35 -44 -87 -125 -136 -190 -319
-201 -563 -12 -277 75 -532 230 -676 35 -33 118 -79 141 -79 17 0 18 -4 41
-145 45 -282 145 -587 285 -865 185 -370 463 -711 755 -928 l60 -44 5 -181 5
-181 190 -139 c179 -130 669 -474 908 -637 59 -40 107 -74 107 -75 0 -2 -34
-24 -76 -50 -178 -111 -516 -381 -699 -558 l-80 -77 33 -20 c18 -11 38 -31 44
-45 6 -14 14 -25 18 -25 8 0 149 96 168 114 10 10 10 18 -3 42 -18 34 -18 57
-1 104 l13 35 17 -60 c25 -84 63 -164 140 -294 36 -62 66 -115 66 -118 0 -3
-18 -26 -41 -51 -23 -26 -54 -73 -70 -105 l-30 -58 -48 41 c-65 55 -209 212
-313 341 -256 318 -524 817 -660 1227 -17 53 -35 102 -39 107 -5 7 -158 8
-446 4 -402 -5 -446 -8 -538 -28 -522 -115 -933 -429 -1163 -887 -54 -107
-111 -262 -132 -355 -11 -50 -16 -58 -43 -66 -29 -8 -30 -9 -12 -27 18 -17 19
-17 31 -1 8 10 15 22 16 27 5 13 80 27 143 27 80 1 181 -25 274 -70 111 -54
228 -167 284 -276 37 -70 162 -481 151 -492 -3 -3 -35 11 -72 32 -37 21 -101
55 -142 75 l-75 37 -544 3 c-531 2 -543 3 -548 22 -3 13 -14 20 -28 20 -53 0
-56 58 -6 127 15 21 47 74 71 117 46 85 55 137 36 218 l-8 36 109 36 c60 19
148 45 196 57 48 12 87 25 87 28 0 8 -173 469 -456 1215 -96 253 -171 463
-167 466 5 4 31 15 58 25 28 10 69 29 93 43 39 22 47 24 81 13 21 -6 67 -11
102 -11 140 0 252 92 310 256 30 85 37 270 14 384 -53 261 -217 500 -408 595
-176 87 -346 46 -443 -106 -19 -30 -29 -37 -66 -41 -51 -6 -674 -238 -737
-275 -41 -24 -46 -25 -102 -13 -120 26 -227 -8 -308 -95 -113 -123 -150 -362
-91 -590 29 -111 117 -286 184 -367 160 -193 374 -271 527 -193 42 22 104 80
130 121 11 19 27 34 36 34 8 0 55 13 105 30 49 17 91 30 93 30 2 0 9 -17 16
-37 9 -29 572 -1523 603 -1603 4 -11 -9 -23 -47 -43 -126 -65 -240 -206 -292
-357 -25 -74 -29 -100 -29 -205 -1 -66 2 -128 6 -137 7 -17 221 -18 4303 -18
l4295 0 0 323 c0 417 -14 537 -86 757 -173 527 -618 946 -1152 1086 -181 47
-267 54 -694 54 l-396 0 -27 -83 c-115 -349 -341 -799 -549 -1092 -137 -194
-334 -421 -445 -514 l-50 -42 -41 78 c-22 43 -49 94 -61 113 l-22 35 79 135
c49 83 93 174 114 235 l34 100 12 -40 c17 -54 17 -78 -1 -101 -8 -10 -15 -24
-15 -31 0 -6 39 -37 87 -70 66 -44 87 -55 91 -43 3 8 22 31 43 50 28 27 35 39
28 51 -10 19 -241 228 -354 320 -118 97 -226 177 -350 259 -60 40 -114 76
-118 80 -5 4 75 64 177 134 259 175 628 435 838 589 l178 130 2 181 3 180 85
65 c121 92 351 326 452 461 237 314 409 671 508 1051 21 85 48 206 58 270 11
64 22 121 25 126 4 6 19 14 34 18 45 11 120 63 161 113 89 107 142 225 174
386 26 131 21 346 -12 476 -27 111 -97 253 -155 318 -32 36 -45 57 -41 70 31
96 56 675 37 842 -50 437 -273 864 -637 1222 -121 118 -203 185 -355 287 -331
223 -681 355 -1129 426 -123 20 -609 29 -755 15z m728 -294 c537 -77 1007
-296 1360 -635 228 -219 383 -454 474 -718 l38 -108 3 -565 c2 -311 0 -584 -3
-607 -6 -40 -7 -41 -26 -25 -10 9 -19 21 -19 26 0 6 -17 35 -39 66 -21 30 -96
168 -166 305 -77 150 -142 265 -164 288 -70 75 -122 90 -366 107 -408 28 -705
88 -1016 205 -126 48 -200 59 -225 33 -15 -14 -11 -19 37 -56 169 -126 464
-220 866 -276 138 -19 460 -46 553 -46 l69 0 169 -338 c250 -497 267 -527 322
-565 66 -46 134 8 185 148 10 28 22 54 26 59 16 19 24 -102 24 -375 l0 -286
-43 -84 c-29 -59 -70 -114 -133 -184 -122 -134 -173 -219 -199 -326 -35 -145
-57 -220 -99 -339 -22 -63 -59 -174 -81 -247 -22 -72 -67 -185 -99 -250 -60
-122 -173 -298 -237 -368 -20 -22 -47 -53 -62 -70 -14 -16 -116 -122 -228
-235 -233 -237 -270 -293 -261 -384 3 -28 8 -60 12 -71 7 -24 -27 -47 -180
-123 -272 -134 -566 -202 -880 -202 -335 0 -635 72 -925 221 -160 83 -153 76
-138 138 25 111 -36 208 -278 438 -165 157 -218 219 -331 384 -207 304 -348
662 -433 1095 -6 28 -21 74 -35 101 -28 59 -121 177 -195 248 -57 56 -108 135
-133 209 -27 78 -24 522 3 666 11 58 20 107 20 110 1 3 19 -30 41 -72 48 -94
114 -168 151 -168 58 0 78 25 98 125 22 111 80 307 126 424 136 346 382 694
620 878 l32 24 113 -91 c240 -193 501 -349 644 -385 76 -19 101 -19 152 4 63
29 78 65 77 183 l-2 96 82 -81 c255 -253 502 -437 587 -437 15 0 35 7 43 16
38 37 7 192 -72 369 -43 97 -38 90 -57 75 -11 -9 -15 -34 -15 -102 0 -52 -4
-87 -9 -84 -5 4 -12 -7 -16 -24 -4 -16 -11 -30 -16 -30 -13 0 -84 54 -239 179
-139 113 -188 141 -244 141 -32 0 -45 -7 -75 -39 -137 -147 -119 -134 -178
-128 -109 11 -288 112 -558 313 -162 120 -233 130 -361 49 -190 -121 -470
-524 -605 -871 -53 -135 -85 -197 -99 -189 -4 3 -11 -15 -14 -40 -11 -71 -26
-52 -26 33 0 42 -7 112 -15 155 -12 61 -15 160 -15 440 0 350 1 365 25 462 33
138 57 201 125 340 187 383 551 706 1005 892 246 101 543 168 875 197 104 9
550 -3 653 -18z m-4759 -4984 c204 -96 344 -323 363 -586 10 -143 -41 -294
-128 -377 -35 -34 -145 -97 -154 -88 -2 2 17 29 42 59 53 63 106 168 128 255
49 190 -13 404 -159 549 -103 103 -260 175 -381 176 -49 1 -33 13 47 35 75 21
166 13 242 -23z m-118 -315 c59 -30 120 -86 134 -123 6 -14 10 -85 10 -157 0
-170 -6 -182 -126 -261 -100 -66 -213 -176 -275 -267 -22 -33 -47 -63 -54 -65
-8 -3 -29 2 -48 11 -41 19 -70 79 -93 195 -34 173 -54 233 -131 400 -19 41
-37 90 -40 107 -5 31 -3 34 43 54 27 11 128 48 224 80 158 55 181 60 240 56
44 -3 82 -13 116 -30z m-905 -145 c218 -203 330 -584 248 -840 -10 -30 -14
-33 -38 -28 -71 17 -152 18 -227 2 -95 -19 -123 -13 -194 39 -66 48 -122 121
-173 224 l-42 84 -4 159 c-3 174 1 193 58 222 16 9 31 23 33 34 3 10 21 23 44
30 48 14 85 48 130 119 l35 54 31 -18 c18 -10 62 -46 99 -81z m4587 -816 c140
-70 316 -122 497 -148 135 -19 504 -16 642 5 235 37 458 122 631 241 87 60 95
51 20 -20 -71 -68 -237 -175 -427 -276 -184 -98 -347 -191 -437 -249 -60 -39
-101 -59 -121 -59 -21 0 -61 20 -122 60 -50 33 -93 60 -95 60 -3 0 -37 19 -78
43 -40 24 -131 74 -203 112 -260 137 -470 275 -526 346 l-32 40 83 -56 c45
-31 121 -75 168 -99z m-944 -567 c30 -24 52 -63 112 -199 55 -127 169 -353
239 -476 100 -174 156 -258 289 -429 157 -202 223 -279 325 -379 50 -49 91
-92 91 -96 0 -4 -7 -14 -17 -21 -13 -11 -101 -15 -457 -17 l-442 -3 -21 44
c-11 24 -33 106 -48 183 -38 195 -88 287 -195 358 -37 25 -85 20 -134 -13
-105 -72 -160 -168 -202 -350 -44 -191 -66 -221 -158 -221 -89 0 -107 25 -136
188 -34 189 -62 261 -127 329 -112 116 -152 113 -306 -23 -20 -19 -46 -34 -58
-34 -13 0 -59 39 -125 105 -105 106 -203 179 -304 225 -30 14 -58 29 -62 35
-30 40 21 150 133 289 228 284 577 470 966 515 37 5 190 9 339 10 261 1 272 0
298 -20z m4124 11 c387 -42 742 -230 961 -508 104 -131 152 -220 214 -392 l31
-85 4 -322 3 -323 -240 0 -240 0 -25 43 c-13 23 -34 89 -46 147 -42 201 -101
316 -196 379 -77 51 -119 41 -215 -54 -65 -63 -94 -132 -128 -295 -21 -100
-38 -154 -56 -181 l-25 -39 -70 0 -69 0 -25 43 c-15 25 -38 97 -55 172 -43
193 -90 279 -195 356 -61 45 -98 40 -177 -24 -63 -53 -109 -120 -130 -190 -6
-18 -21 -85 -34 -150 -15 -74 -33 -135 -50 -163 l-26 -44 -417 1 c-229 1 -428
4 -442 8 -47 13 -36 38 67 144 132 137 329 379 440 542 105 153 283 479 356
651 65 152 119 254 144 274 24 19 40 20 285 20 142 0 302 -5 356 -10z m-2322
-566 c19 -9 34 -24 35 -33 0 -9 49 -52 110 -95 97 -71 109 -83 109 -110 0 -17
-29 -88 -67 -166 -66 -131 -68 -137 -68 -212 0 -68 3 -81 30 -120 38 -54 134
-105 220 -116 l60 -7 -70 -58 c-91 -76 -227 -166 -332 -220 l-83 -42 -77 40
c-97 49 -256 155 -348 232 l-70 58 61 7 c83 9 156 42 199 90 45 49 55 75 55
146 0 64 -19 121 -85 252 -25 49 -45 101 -45 115 0 20 20 40 103 101 56 42
103 84 105 94 3 20 75 60 105 60 11 0 34 -7 53 -16z m-2785 -631 c25 -65 57
-303 75 -546 l6 -99 -50 26 c-59 30 -92 32 -152 11 l-43 -15 6 97 c7 121 32
290 58 403 31 133 75 187 100 123z m834 -6 c27 -65 75 -434 75 -577 l0 -59
-52 24 c-29 14 -60 25 -68 25 -8 0 -39 -11 -67 -25 l-53 -24 0 54 c0 135 59
482 95 563 28 61 50 67 70 19z m3857 -3 c36 -62 84 -321 103 -552 l7 -84 -43
23 c-66 33 -104 30 -202 -19 -14 -7 22 390 49 536 25 136 48 162 86 96z m833
7 c37 -73 86 -338 102 -550 l6 -91 -54 25 c-66 31 -71 31 -136 0 l-53 -24 0
64 c0 160 55 559 81 591 18 22 37 17 54 -15z M5234 6424 c-58 -21 -120 -77
-152 -138 -27 -51 -27 -52 -27 -261 0 -178 3 -216 18 -247 24 -53 72 -104 126
-136 40 -24 56 -27 131 -27 62 0 94 5 117 18 55 29 103 78 131 131 27 51 27
52 27 261 0 209 0 210 -27 261 -66 126 -213 185 -344 138z m124 -242 c9 -7 12
-47 10 -168 l-3 -159 -27 -3 c-15 -2 -36 2 -48 8 -19 10 -20 20 -20 161 0 146
1 150 23 159 28 11 49 12 65 2z M7433 6410 c-69 -34 -106 -72 -137 -140 -19
-41 -21 -63 -21 -245 0 -199 0 -200 28 -257 50 -102 142 -158 256 -158 107 1
213 76 251 178 17 46 20 78 20 236 0 211 -8 249 -72 321 -55 62 -107 87 -193
92 -63 4 -76 2 -132 -27z m153 -230 c11 0 14 -28 14 -153 0 -164 -4 -177 -50
-177 -57 0 -61 11 -58 175 l3 149 25 7 c14 4 31 5 38 3 8 -2 20 -4 28 -4z
M6167 5250 c-141 -43 -186 -233 -81 -341 63 -64 103 -71 382 -67 l237 3 47 28
c50 29 91 86 103 145 17 81 -40 187 -119 223 -37 17 -68 18 -291 18 -137 0
-263 -5 -278 -9z M5580 4490 c-114 -10 -466 -87 -513 -113 -129 -71 -97 -261
50 -296 45 -11 57 -9 218 39 94 28 183 55 198 62 36 14 43 6 21 -28 -12 -17
-18 -46 -18 -79 0 -68 35 -124 96 -154 73 -35 100 -29 277 59 89 44 166 80
170 80 5 0 11 -14 15 -31 14 -70 89 -128 165 -129 55 0 119 37 153 89 17 25
28 37 24 27 -9 -27 35 -90 73 -106 79 -32 186 25 211 114 l12 43 163 -83 c179
-92 208 -98 281 -65 89 40 129 150 86 234 -11 20 -18 37 -15 37 2 0 93 -27
202 -60 206 -62 230 -65 293 -34 35 18 76 73 84 112 14 72 -22 144 -89 175
-50 24 -398 97 -512 107 -116 11 -1519 11 -1645 0z m1686 -166 c38 -18 39 -20
21 -38 -7 -8 -29 -33 -48 -56 -18 -24 -42 -51 -51 -62 -10 -10 -18 -24 -18
-31 0 -7 -11 -23 -25 -35 -14 -12 -25 -27 -25 -33 0 -21 -100 -3 -197 35 -125
49 -163 48 -273 -6 l-85 -41 -71 10 c-41 6 -92 7 -120 2 -105 -17 -140 -12
-220 32 -71 39 -79 41 -137 37 -38 -3 -92 -18 -137 -37 -111 -47 -210 -54
-210 -15 0 8 -7 17 -15 20 -8 4 -15 13 -15 21 0 16 -35 66 -88 126 -18 21 -31
44 -29 50 11 36 35 37 880 37 742 0 833 -2 863 -16z M7893 2834 c9 -17 24 -37
33 -45 16 -12 15 -10 -2 19 -26 46 -53 68 -31 26z M4965 2808 c-24 -37 -25
-40 -6 -23 25 22 45 54 38 61 -2 2 -17 -15 -32 -38z"/>
</g>
</svg>
