<?xml version="1.0" standalone="no"?>
<!DOCTYPE svg PUBLIC "-//W3C//DTD SVG 20010904//EN"
 "http://www.w3.org/TR/2001/REC-SVG-20010904/DTD/svg10.dtd">
<svg version="1.0" xmlns="http://www.w3.org/2000/svg"
 width="2048.000000pt" height="2048.000000pt" viewBox="0 0 2048.000000 2048.000000"
 preserveAspectRatio="xMidYMid meet">
<metadata>
Created by potrace 1.13, written by Peter Selinger 2001-2015
</metadata>
<g transform="translate(0.000000,2048.000000) scale(0.192120,-0.192120)"
fill="#000000" stroke="none">
<path d="M5619 10312 c-236 -96 -632 -542 -934 -1052 -138 -234 -298 -580
-355 -767 l-22 -73 -326 0 c-940 0 -1367 -82 -1423 -271 -23 -76 24 -238 110
-378 153 -248 463 -523 786 -697 39 -20 71 -38 72 -39 1 -1 -13 -62 -31 -136
-19 -74 -42 -182 -52 -242 -15 -89 -21 -106 -34 -101 -38 17 -100 26 -132 20
-47 -9 -109 -50 -138 -94 l-25 -36 -6 -1300 c-5 -1179 -7 -1308 -22 -1371 -74
-303 -228 -542 -460 -713 -122 -90 -324 -182 -457 -207 l-35 -6 0 1788 0 1788
-25 45 c-85 151 -300 142 -371 -15 -18 -38 -19 -120 -19 -1824 l0 -1783 -35 6
c-67 13 -190 57 -281 102 -321 157 -562 469 -633 821 -21 99 -21 128 -21 1353
0 869 -3 1264 -11 1294 -31 122 -170 189 -284 137 -50 -22 -101 -79 -115 -128
-8 -27 -10 -408 -7 -1333 3 -1274 4 -1297 24 -1392 69 -314 207 -578 416 -795
250 -260 567 -426 909 -478 l38 -6 0 -320 0 -320 -35 -30 c-19 -17 -49 -61
-67 -97 l-33 -67 -3 -632 -3 -633 348 0 348 0 -3 627 c-4 712 -1 685 -88 783
l-46 50 -1 320 -2 320 45 6 c71 10 229 51 305 79 108 41 276 130 372 198 115
82 282 249 367 367 121 170 264 497 227 520 -18 10 -87 20 -121 16 -14 -1 -30
3 -37 10 -15 15 -16 94 -1 179 6 37 13 528 17 1290 l6 1230 61 107 61 107 30
-32 c17 -17 36 -42 42 -54 15 -29 15 -2556 1 -2653 -22 -143 -22 -153 4 -283
55 -267 144 -483 240 -581 92 -94 162 -110 355 -82 150 22 315 71 686 203 310
111 588 203 612 203 9 0 13 19 13 68 l-1 67 -55 34 c-229 138 -507 417 -692
694 -198 295 -359 675 -436 1030 -6 26 -9 27 -70 27 -78 0 -134 19 -196 66
-270 206 -343 765 -148 1137 47 91 158 198 231 225 125 47 242 19 344 -83 52
-52 65 -60 74 -49 7 8 51 46 98 83 l87 69 95 -23 c247 -60 662 -115 1094 -147
258 -19 1000 -16 1265 6 353 27 827 91 952 127 76 21 128 -1 263 -114 l70 -59
20 28 c38 56 121 130 170 155 41 20 65 24 135 24 75 0 91 -3 138 -29 124 -69
235 -236 283 -426 26 -108 36 -316 20 -432 -35 -239 -161 -457 -306 -528 -42
-21 -65 -25 -142 -25 l-92 0 -17 -75 c-75 -341 -252 -744 -453 -1030 -172
-247 -397 -472 -618 -621 l-74 -50 3 -76 3 -75 155 -48 c86 -27 270 -90 410
-141 530 -191 726 -239 915 -226 119 8 187 38 261 111 123 123 180 315 218
736 27 292 38 726 39 1635 2 956 0 997 -53 1312 -18 104 -68 322 -84 363 -4
11 19 29 86 65 124 67 293 180 404 271 114 92 277 260 345 356 111 157 183
353 165 451 -20 108 -195 190 -491 232 -205 28 -359 36 -811 42 l-451 6 -22
71 c-186 586 -699 1377 -1104 1701 -156 125 -251 156 -372 120 -140 -40 -209
-89 -432 -307 -174 -171 -189 -181 -236 -157 -12 6 -96 85 -187 174 -227 224
-338 292 -490 301 -47 3 -77 -1 -111 -14z m203 -266 c60 -26 123 -74 218 -165
90 -87 214 -179 285 -213 144 -68 267 -17 504 208 147 139 215 182 306 191 46
5 60 1 116 -28 143 -76 415 -382 622 -698 144 -218 308 -522 387 -714 44 -107
98 -161 213 -211 84 -38 87 -40 70 -58 -47 -52 -245 -141 -442 -199 -842 -246
-2392 -253 -3264 -14 -219 60 -393 132 -486 203 l-34 25 89 42 c126 60 147 86
249 305 90 194 132 274 225 430 217 364 478 692 664 834 117 90 183 105 278
62z m3023 -1816 c32 -11 73 -20 91 -20 18 0 34 -5 36 -10 2 -7 113 -14 294
-20 471 -15 784 -59 784 -110 0 -10 5 -22 11 -26 18 -11 4 -88 -26 -146 -38
-75 -96 -149 -195 -252 -101 -105 -198 -183 -379 -301 -103 -68 -140 -98 -162
-133 -36 -57 -45 -114 -26 -169 l14 -42 -76 -40 c-176 -91 -542 -222 -827
-296 -173 -45 -177 -45 -199 4 -45 101 -95 108 -410 62 -389 -57 -683 -79
-1160 -87 -607 -11 -1166 26 -1664 111 -237 41 -283 33 -331 -59 -18 -32 -31
-46 -46 -46 -11 0 -76 15 -145 34 -282 78 -539 171 -747 273 -101 49 -113 58
-108 77 27 95 12 163 -52 229 -20 21 -88 75 -150 119 -297 210 -524 464 -548
616 -6 41 -6 42 30 57 20 8 36 22 36 30 0 20 27 30 140 49 157 26 289 36 620
47 173 6 317 14 320 18 3 5 21 11 40 15 20 3 87 36 148 72 62 37 115 65 117
62 2 -2 -7 -62 -20 -133 -14 -72 -28 -184 -31 -250 -6 -111 -5 -124 16 -173
26 -60 115 -148 204 -201 296 -176 921 -290 1707 -310 1393 -36 2355 167 2499
527 23 59 -2 350 -47 530 -5 20 5 17 89 -33 52 -30 121 -64 153 -75z m-4284
-245 c334 -125 817 -210 1386 -245 221 -13 780 -13 993 0 568 36 1022 115
1359 236 51 19 100 34 107 34 11 0 14 -18 14 -74 0 -65 -3 -78 -25 -104 -47
-56 -265 -147 -471 -196 -351 -83 -746 -123 -1324 -133 -634 -10 -1195 33
-1599 123 -226 51 -454 141 -525 208 -35 33 -36 35 -36 110 0 57 3 76 14 76 7
0 56 -16 107 -35z m4607 -3675 l-4 -665 -27 -147 c-57 -311 -104 -371 -290
-369 -154 1 -291 37 -655 172 -217 81 -252 99 -252 132 0 10 40 60 88 110 289
300 518 676 697 1143 73 192 82 206 153 239 76 36 165 101 232 170 l55 56 3
-88 c2 -48 1 -387 0 -753z m-5350 738 c36 -31 95 -74 130 -94 76 -45 92 -70
161 -249 192 -498 400 -837 713 -1161 137 -142 143 -133 -213 -264 -446 -163
-627 -188 -705 -99 -37 43 -64 100 -109 228 -23 69 -52 148 -64 174 -21 48
-21 59 -21 787 l0 739 21 -2 c11 -1 50 -27 87 -59z m-1812 -2310 c77 -74 81
-96 28 -160 -64 -78 -98 -93 -147 -66 -42 22 -107 106 -107 138 0 28 117 150
144 150 10 0 47 -28 82 -62z m-104 -1224 c51 -7 107 7 152 39 l28 20 -5 -39
c-14 -90 -20 -114 -28 -114 -5 0 -9 -162 -9 -375 0 -368 0 -375 -20 -375 -17
0 -20 -7 -20 -45 l0 -45 -80 0 -80 0 0 45 c0 38 -3 45 -20 45 -20 0 -20 7 -20
376 0 206 -4 383 -9 392 -5 9 -12 43 -16 75 l-7 59 44 -26 c25 -14 65 -29 90
-32z M5444 6060 c-48 -11 -103 -49 -134 -92 -42 -58 -53 -123 -48 -289 3 -123
7 -150 25 -185 46 -86 143 -141 232 -131 63 7 121 37 156 79 50 59 55 83 55
275 0 159 -2 181 -21 220 -27 55 -81 100 -143 118 -54 16 -74 17 -122 5z
M7325 6061 c-69 -17 -125 -62 -161 -131 -17 -30 -19 -59 -19 -215 0 -166 2
-183 22 -221 28 -53 79 -97 137 -119 114 -44 255 26 295 144 6 20 11 103 11
201 0 158 -1 169 -25 217 -49 98 -157 149 -260 124z M6124 4876 c-32 -32 -34
-38 -34 -101 0 -63 2 -69 34 -101 19 -19 45 -34 58 -35 12 0 137 0 276 0 274
-1 282 1 318 56 12 19 15 41 12 91 -4 60 -7 70 -36 95 l-32 29 -281 0 -281 0
-34 -34z M5774 4341 c-107 -49 -141 -192 -68 -288 31 -41 169 -132 259 -171
209 -91 490 -115 726 -63 242 54 458 189 487 304 43 169 -147 301 -289 201
-129 -90 -207 -124 -334 -144 -184 -30 -398 10 -522 97 -126 87 -178 101 -259
64z M5523 3317 c-1 -7 -4 -26 -8 -43 -6 -29 -3 -34 60 -84 135 -107 288 -178
475 -218 108 -24 112 -24 350 -16 96 3 195 1 220 -3 80 -16 291 27 434 88 92
39 209 112 268 167 45 42 47 46 33 65 -8 12 -15 30 -15 40 0 11 -5 17 -12 14
-7 -3 -66 -28 -131 -56 -250 -108 -440 -151 -711 -158 -333 -10 -571 40 -907
190 -35 16 -56 21 -56 14z M5425 3097 c-9 -35 -1 -130 11 -134 11 -4 54 66 54
90 0 17 -37 67 -51 67 -5 0 -11 -10 -14 -23z M7417 3093 c-27 -32 -26 -69 5
-109 l22 -28 8 35 c7 37 0 119 -12 119 -4 0 -14 -8 -23 -17z M4520 2815 c-789
-98 -1449 -565 -1635 -1155 -50 -161 -55 -229 -55 -802 l0 -528 3610 0 3610 0
0 538 c0 435 -3 555 -15 632 -104 636 -744 1161 -1595 1306 -98 17 -225 19
-1960 20 -1477 2 -1876 -1 -1960 -11z m345 -135 c56 -29 89 -40 121 -40 38 0
44 -3 44 -21 l0 -22 218 7 c119 3 403 9 630 13 356 5 412 8 412 21 0 13 99 14
828 11 l828 -4 74 38 c40 20 76 35 79 31 3 -3 7 -447 9 -987 l2 -982 -1670 0
-1670 0 0 926 c0 800 4 1049 15 1049 2 0 38 -18 80 -40z m-929 -2237 c-5 -5
-110 58 -114 69 -2 4 -19 10 -38 14 -19 3 -34 10 -34 15 0 5 -128 9 -290 9
-251 0 -290 2 -290 15 0 11 -12 15 -45 15 l-45 0 0 474 c0 454 1 477 21 542
40 129 143 307 246 423 64 73 202 187 312 258 50 32 91 61 91 64 0 4 21 30 48
57 26 28 67 74 92 103 l45 53 3 -1054 c1 -579 0 -1055 -2 -1057z m5145 1967
c86 -84 121 -114 194 -163 88 -59 203 -157 273 -231 103 -111 175 -230 238
-396 l29 -75 3 -482 c3 -481 3 -483 -18 -483 -11 0 -20 -7 -20 -15 0 -13 -39
-15 -290 -15 -159 0 -290 -4 -290 -9 0 -5 -25 -11 -56 -13 -31 -3 -59 -9 -62
-15 -4 -6 -18 -14 -32 -18 -14 -4 -41 -18 -61 -31 -20 -13 -40 -20 -43 -17 -8
9 -8 2088 1 2096 4 4 20 -10 37 -30 17 -21 60 -67 97 -103z m-4451 -730 c0
-758 2 -860 15 -860 11 0 15 -11 15 -39 0 -22 3 -41 8 -43 4 -2 18 -25 30 -53
l24 -49 -22 -18 c-20 -16 -49 -18 -306 -18 l-284 0 2 923 3 922 70 23 c106 34
290 67 398 70 l47 2 0 -860z m3895 831 c55 -11 127 -28 160 -38 l60 -19 3
-927 2 -927 -274 0 c-248 0 -276 2 -296 18 l-22 18 24 49 c12 28 26 51 31 53
4 2 7 21 7 43 0 21 5 39 10 39 7 0 10 294 10 862 l0 861 93 -6 c50 -3 137 -15
192 -26z"/>
</g>
</svg>
