<?xml version="1.0" standalone="no"?>
<!DOCTYPE svg PUBLIC "-//W3C//DTD SVG 20010904//EN"
 "http://www.w3.org/TR/2001/REC-SVG-20010904/DTD/svg10.dtd">
<svg version="1.0" xmlns="http://www.w3.org/2000/svg"
 width="2048.000000pt" height="2048.000000pt" viewBox="0 0 2048.000000 2048.000000"
 preserveAspectRatio="xMidYMid meet">
<metadata>
Created by potrace 1.13, written by Peter Selinger 2001-2015
</metadata>
<g transform="translate(0.000000,2048.000000) scale(0.192120,-0.192120)"
fill="#000000" stroke="none">
<path d="M6965 10252 c-111 -54 -203 -176 -242 -324 -20 -77 -23 -233 -4 -308
36 -149 132 -280 246 -335 47 -23 70 -28 130 -28 63 0 84 5 138 31 190 94 295
363 242 617 -31 149 -131 292 -240 345 -37 19 -70 26 -130 28 -71 3 -87 0
-140 -26z m168 -301 c53 -20 57 -32 57 -174 0 -114 -3 -136 -20 -165 -26 -42
-62 -56 -106 -42 -65 22 -74 46 -74 200 0 148 3 156 60 179 32 13 53 13 83 2z
M5634 10056 c-154 -35 -281 -139 -352 -287 -65 -134 -77 -191 -76 -364 0 -158
9 -211 60 -346 106 -284 360 -489 604 -489 129 1 228 40 326 132 147 138 213
325 201 572 -8 186 -71 368 -175 508 -52 71 -161 171 -225 208 -111 64 -255
90 -363 66z m223 -328 c74 -27 178 -128 216 -210 27 -56 27 -59 27 -275 l0
-219 -29 -46 c-76 -120 -210 -149 -358 -77 -66 32 -143 116 -188 205 l-40 79
-3 190 c-2 113 1 204 7 225 13 45 85 115 136 134 61 22 164 20 232 -6z M8030
10025 c-99 -31 -203 -145 -244 -265 -23 -69 -32 -227 -17 -301 41 -198 194
-342 362 -341 237 1 413 283 354 567 -53 255 -252 403 -455 340z m152 -332
c15 -13 18 -32 18 -110 0 -124 -14 -153 -78 -153 -22 0 -41 8 -57 25 -23 22
-25 31 -25 124 0 92 2 101 22 115 30 21 96 20 120 -1z M8940 9567 c-126 -35
-246 -172 -279 -318 -17 -74 -13 -200 9 -270 51 -166 192 -273 335 -255 109
14 223 99 279 209 98 194 66 445 -72 565 -75 65 -186 93 -272 69z m100 -402
c0 -88 -5 -104 -38 -116 -18 -7 -31 -5 -49 6 -22 15 -24 21 -21 88 3 70 4 72
36 88 18 9 42 15 52 12 18 -5 20 -14 20 -78z M7295 9013 c-351 -46 -605 -165
-802 -377 -342 -367 -471 -987 -362 -1741 53 -365 151 -700 312 -1060 145
-324 166 -609 68 -896 -59 -173 -130 -301 -320 -579 -228 -333 -287 -440 -338
-609 -23 -75 -26 -104 -26 -226 1 -597 327 -1009 858 -1085 91 -13 258 -13
326 0 400 76 1118 943 1675 2025 362 704 609 1446 680 2045 24 196 24 540 0
710 -59 436 -208 787 -460 1087 -294 351 -761 613 -1243 698 -81 14 -288 18
-368 8z m415 -322 c223 -47 493 -161 680 -286 348 -234 550 -519 667 -940 l28
-100 3 -474 c3 -473 3 -474 -23 -615 -145 -789 -563 -1748 -1120 -2568 -200
-294 -349 -481 -535 -672 -273 -279 -406 -343 -661 -316 -206 21 -342 80 -459
199 -80 81 -121 150 -161 266 -23 66 -24 83 -24 310 l0 240 43 88 c24 49 110
188 191 310 275 413 355 567 432 831 28 96 29 104 29 331 0 217 -2 239 -25
331 -14 54 -73 215 -130 358 -157 396 -204 557 -256 881 -16 103 -19 174 -19
511 0 356 2 401 21 495 100 498 397 775 901 839 106 13 308 4 418 -19z M9723
8625 c-209 -65 -372 -331 -333 -546 19 -106 62 -170 142 -215 46 -25 63 -29
133 -29 65 0 90 5 135 26 163 77 283 253 297 435 15 197 -107 346 -281 343
-28 0 -70 -6 -93 -14z m74 -331 c8 -22 -14 -91 -37 -114 -27 -27 -70 -37 -81
-19 -12 19 -11 66 1 90 11 19 75 58 98 59 7 0 15 -7 19 -16z M3393 8326 c-184
-60 -302 -251 -305 -491 -2 -172 50 -315 151 -415 80 -80 136 -105 236 -105
100 0 173 31 243 103 241 248 183 748 -104 888 -65 32 -159 40 -221 20z m151
-337 c26 -20 26 -22 26 -155 0 -176 -18 -214 -100 -214 -23 0 -42 10 -66 34
l-34 34 0 135 0 135 31 26 c39 33 104 36 143 5z M4721 8104 c-136 -36 -292
-153 -381 -283 -229 -338 -222 -789 17 -1041 274 -291 724 -155 926 280 53
114 73 184 87 310 38 339 -126 649 -386 730 -78 24 -184 25 -263 4z m254 -328
c28 -17 59 -47 76 -74 l30 -47 -3 -211 -3 -211 -39 -77 c-73 -143 -177 -224
-303 -234 -114 -9 -193 30 -249 125 l-29 48 0 200 0 200 34 69 c38 79 85 134
150 178 105 73 245 87 336 34z M2371 8085 c-70 -20 -107 -43 -164 -104 -211
-225 -150 -657 111 -779 82 -39 184 -38 264 1 218 107 302 434 175 683 -79
156 -241 239 -386 199z m127 -331 c20 -14 22 -23 22 -112 0 -108 -12 -142 -52
-156 -35 -12 -82 7 -97 40 -6 14 -11 65 -11 113 0 71 3 91 18 103 35 31 86 36
120 12z M1474 7620 c-52 -16 -126 -73 -160 -123 -154 -223 -79 -565 150 -685
44 -23 63 -27 136 -27 69 0 93 4 128 23 100 53 174 168 195 302 30 193 -70
407 -227 487 -57 29 -166 40 -222 23z m137 -330 c16 -9 19 -22 19 -85 0 -93
-5 -105 -41 -105 -51 0 -69 30 -69 114 0 50 4 76 13 79 21 9 58 7 78 -3z
M2940 7065 c-499 -81 -970 -343 -1278 -710 -421 -501 -564 -1201 -417 -2034
141 -791 557 -1763 1120 -2616 432 -654 858 -1100 1142 -1194 52 -17 88 -21
206 -21 167 0 280 17 399 60 384 139 612 489 635 971 13 285 -35 405 -355 882
-293 438 -371 617 -389 892 -10 159 30 367 103 537 209 483 290 761 349 1188
22 160 31 535 16 685 -78 777 -452 1239 -1093 1349 -131 23 -337 28 -438 11z
m375 -306 c277 -38 503 -156 646 -335 70 -89 132 -211 176 -349 l38 -120 3
-503 3 -502 -26 -138 c-34 -179 -57 -268 -110 -434 -41 -126 -63 -184 -170
-443 -46 -112 -91 -256 -106 -340 -7 -41 -9 -145 -6 -282 5 -244 10 -269 90
-469 75 -185 138 -296 352 -619 85 -126 173 -268 197 -315 l43 -85 3 -266 c3
-264 3 -268 -23 -340 -61 -175 -161 -293 -310 -364 -130 -62 -204 -78 -365
-79 -168 -1 -216 12 -338 94 -229 153 -529 499 -836 964 -484 733 -837 1504
-1014 2212 -88 350 -92 389 -92 872 0 471 4 511 76 728 135 410 436 737 869
945 250 120 472 177 692 178 72 1 166 -4 208 -10z M700 6691 c-84 -18 -148
-69 -192 -155 -30 -57 -37 -200 -13 -282 40 -139 140 -266 257 -325 79 -40
193 -51 261 -25 57 21 115 79 146 146 22 47 26 69 26 150 0 108 -17 171 -72
263 -94 156 -277 257 -413 228z m125 -335 c45 -19 67 -55 63 -103 -4 -53 -36
-57 -83 -10 -30 30 -35 42 -35 81 0 50 4 53 55 32z"/>
</g>
</svg>
