<?xml version="1.0" standalone="no"?>
<!DOCTYPE svg PUBLIC "-//W3C//DTD SVG 20010904//EN"
 "http://www.w3.org/TR/2001/REC-SVG-20010904/DTD/svg10.dtd">
<svg version="1.0" xmlns="http://www.w3.org/2000/svg"
 width="2048.000000pt" height="2048.000000pt" viewBox="0 0 2048.000000 2048.000000"
 preserveAspectRatio="xMidYMid meet">
<metadata>
Created by potrace 1.13, written by Peter Selinger 2001-2015
</metadata>
<g transform="translate(0.000000,2048.000000) scale(0.192120,-0.192120)"
fill="#000000" stroke="none">
<path d="M5619 10312 c-236 -96 -632 -542 -934 -1052 -138 -234 -298 -580
-355 -767 l-22 -73 -326 0 c-940 0 -1367 -82 -1423 -271 -23 -76 24 -238 110
-378 152 -246 453 -514 778 -693 40 -22 75 -44 78 -48 3 -5 -6 -48 -20 -97
-14 -48 -38 -153 -52 -233 -14 -80 -27 -146 -28 -148 -1 -1 -18 5 -38 13 -89
37 -195 -1 -255 -93 -16 -24 -17 -112 -23 -1327 -5 -1178 -7 -1307 -22 -1370
-74 -303 -228 -542 -460 -713 -122 -90 -324 -182 -457 -207 l-35 -6 0 1788 0
1788 -25 45 c-85 151 -300 142 -371 -15 -18 -38 -19 -120 -19 -1824 l0 -1783
-35 6 c-67 13 -190 57 -281 102 -321 157 -562 469 -633 821 -21 99 -21 128
-21 1353 0 869 -3 1264 -11 1294 -31 122 -170 189 -284 137 -50 -22 -101 -79
-115 -128 -8 -27 -10 -408 -7 -1333 3 -1274 4 -1297 24 -1392 69 -314 207
-578 416 -795 250 -260 567 -426 909 -478 l38 -6 0 -320 0 -320 -35 -30 c-19
-17 -49 -61 -67 -97 l-33 -67 -3 -632 -3 -633 348 0 348 0 -3 627 c-4 712 -1
685 -88 783 l-46 50 -1 320 -2 320 45 6 c71 10 229 51 305 79 108 41 276 130
372 198 115 81 282 249 366 365 145 205 253 473 286 715 7 53 11 496 11 1358
0 1402 4 1305 -57 1370 l-24 27 53 12 c114 27 155 73 157 179 1 48 -30 165
-60 224 -11 20 -17 37 -13 37 3 0 66 -27 140 -60 616 -276 1242 -418 2129
-482 220 -16 970 -16 1190 0 870 63 1499 202 2098 466 82 36 146 60 144 53
-57 -129 -60 -141 -68 -297 -9 -168 -12 -185 -31 -173 -7 4 -19 8 -27 10 -8 1
-35 22 -60 47 -58 57 -139 94 -227 105 -122 15 -231 -8 -414 -84 -60 -26 -71
-27 -154 -21 l-89 7 56 -43 c30 -24 73 -58 95 -75 l39 -33 28 40 c137 198 363
227 527 67 131 -127 205 -322 215 -568 12 -288 -59 -517 -209 -671 -88 -91
-193 -128 -298 -105 l-36 7 -28 -117 c-133 -549 -441 -1084 -817 -1420 -91
-81 -209 -174 -275 -216 -41 -25 -41 -26 -46 -98 -5 -58 -10 -76 -24 -84 -39
-21 -90 -83 -102 -122 -7 -22 -12 -65 -12 -95 0 -46 4 -60 26 -82 36 -35 93
-70 102 -61 4 4 7 87 7 186 0 113 4 179 10 179 5 0 136 -43 290 -96 933 -319
928 -317 1140 -317 113 -1 138 3 190 23 106 41 197 151 251 303 43 120 83 396
104 717 16 240 33 1457 27 1925 -7 585 -30 778 -142 1180 -4 17 9 28 87 70
123 67 292 180 404 271 114 92 277 260 345 356 111 157 183 353 165 451 -20
108 -195 190 -491 232 -205 28 -359 36 -811 42 l-451 6 -22 71 c-186 586 -699
1377 -1104 1701 -156 125 -251 156 -372 120 -140 -40 -209 -89 -432 -307 -174
-171 -189 -181 -236 -157 -12 6 -96 85 -187 174 -227 224 -338 292 -490 301
-47 3 -77 -1 -111 -14z m203 -266 c60 -26 123 -74 218 -165 90 -87 214 -179
285 -213 144 -68 267 -17 504 208 147 139 215 182 306 191 46 5 60 1 116 -28
143 -76 415 -382 622 -698 144 -218 308 -522 387 -714 44 -107 98 -161 213
-211 84 -38 87 -40 70 -58 -47 -52 -245 -141 -442 -199 -842 -246 -2392 -253
-3264 -14 -219 60 -393 132 -486 203 l-34 25 89 42 c126 60 147 86 249 305 90
194 132 274 225 430 217 364 478 692 664 834 117 90 183 105 278 62z m3023
-1816 c32 -11 73 -20 91 -20 18 0 34 -5 36 -10 2 -7 113 -14 294 -20 471 -15
784 -59 784 -110 0 -10 5 -22 11 -26 18 -11 4 -86 -27 -149 -40 -79 -134 -194
-246 -300 -107 -102 -203 -174 -370 -274 -63 -39 -155 -100 -203 -136 -173
-129 -251 -164 -594 -272 -256 -80 -298 -90 -441 -103 -63 -6 -191 -24 -285
-40 -964 -165 -2073 -158 -3015 19 -87 17 -205 35 -263 41 -125 13 -166 23
-412 101 -341 109 -384 131 -635 313 -36 26 -123 88 -195 138 -143 99 -223
166 -327 273 -123 127 -211 261 -224 343 -6 41 -6 42 30 57 20 8 36 22 36 30
0 20 27 30 140 49 157 26 289 36 620 47 173 6 317 14 320 18 3 5 21 11 40 15
20 3 87 36 148 72 62 37 115 65 117 62 2 -2 -7 -62 -20 -133 -14 -72 -28 -184
-31 -250 -6 -111 -5 -124 16 -173 26 -60 115 -148 204 -201 296 -176 921 -290
1707 -310 1393 -36 2355 167 2499 527 23 59 -2 350 -47 530 -5 20 5 17 89 -33
52 -30 121 -64 153 -75z m-4284 -245 c334 -125 817 -210 1386 -245 221 -13
780 -13 993 0 568 36 1022 115 1359 236 51 19 100 34 107 34 11 0 14 -18 14
-74 0 -65 -3 -78 -25 -104 -47 -56 -265 -147 -471 -196 -351 -83 -746 -123
-1324 -133 -634 -10 -1195 33 -1599 123 -226 51 -454 141 -525 208 -35 33 -36
35 -36 110 0 57 3 76 14 76 7 0 56 -16 107 -35z m4646 -3507 c-4 -961 -2 -931
-58 -1141 -37 -142 -72 -196 -149 -235 -51 -25 -64 -27 -175 -26 -152 0 -224
20 -585 156 -354 133 -391 148 -417 164 -44 28 -30 54 96 182 232 234 393 463
557 792 61 122 116 260 220 547 23 63 42 80 117 102 126 38 243 140 357 313
14 21 29 38 33 38 4 0 6 -402 4 -892z m-7201 -1740 c77 -74 81 -96 28 -160
-64 -78 -98 -93 -147 -66 -42 22 -107 106 -107 138 0 28 117 150 144 150 10 0
47 -28 82 -62z m-104 -1224 c51 -7 107 7 152 39 l28 20 -5 -39 c-14 -90 -20
-114 -28 -114 -5 0 -9 -162 -9 -375 0 -368 0 -375 -20 -375 -17 0 -20 -7 -20
-45 l0 -45 -80 0 -80 0 0 45 c0 38 -3 45 -20 45 -20 0 -20 7 -20 376 0 206 -4
383 -9 392 -5 9 -12 43 -16 75 l-7 59 44 -26 c25 -14 65 -29 90 -32z M3990
6669 c-69 -10 -136 -46 -181 -98 -50 -57 -71 -96 -97 -186 -48 -163 -57 -238
-56 -485 0 -206 3 -248 22 -339 56 -255 153 -396 330 -480 37 -17 74 -35 82
-40 24 -12 66 -97 106 -211 162 -465 335 -770 629 -1110 52 -61 95 -113 95
-117 0 -5 29 -39 65 -77 78 -83 85 -114 30 -140 -66 -32 -642 -245 -736 -273
-80 -23 -112 -27 -216 -28 -121 0 -121 0 -159 31 -49 39 -85 100 -142 239 -75
183 -122 235 -212 235 l-48 0 14 -77 c24 -132 82 -313 134 -419 55 -113 119
-188 190 -225 40 -21 57 -24 150 -23 145 2 290 37 595 141 536 183 830 283
835 283 3 0 4 -82 2 -181 -2 -113 0 -185 6 -191 13 -13 71 22 107 63 32 39 34
114 4 194 -17 45 -31 64 -70 92 -40 29 -49 40 -49 65 l0 31 28 -35 c68 -86
215 -193 349 -254 162 -74 338 -112 563 -121 389 -15 701 70 947 258 75 59
146 137 139 155 -3 9 -6 22 -6 29 0 9 -48 -10 -138 -55 -166 -82 -332 -141
-502 -178 -116 -24 -143 -26 -370 -27 -275 0 -367 13 -585 82 -98 31 -411 172
-425 191 -3 4 -36 28 -75 52 -207 134 -434 352 -605 583 -230 313 -418 734
-504 1129 -6 25 -9 27 -64 26 -79 -1 -129 15 -193 61 -103 74 -190 218 -237
390 -23 85 -26 116 -26 271 -1 152 2 187 22 265 53 204 166 370 294 435 51 25
73 30 132 30 91 0 156 -29 236 -106 l59 -56 66 57 c36 32 65 59 65 61 0 1 -35
3 -77 3 -65 0 -95 6 -174 35 -92 33 -225 59 -279 54 -14 -1 -45 -5 -70 -9z
M5444 6060 c-48 -11 -103 -49 -134 -92 -42 -58 -53 -123 -48 -289 4 -155 12
-184 67 -242 91 -99 261 -97 346 5 50 59 55 84 55 273 0 158 -2 180 -21 220
-27 57 -80 101 -143 120 -54 16 -74 17 -122 5z M7325 6061 c-69 -17 -125 -62
-161 -131 -17 -30 -19 -59 -19 -215 0 -165 2 -183 22 -220 95 -176 337 -177
419 -1 22 47 24 63 24 222 0 162 -1 172 -25 221 -49 98 -157 149 -260 124z
M6124 4876 c-32 -32 -34 -38 -34 -99 0 -67 18 -104 61 -127 12 -7 124 -11 290
-11 293 0 299 1 335 56 12 19 15 41 12 91 -4 60 -7 70 -36 95 l-32 29 -281 0
-281 0 -34 -34z M5774 4341 c-100 -45 -135 -163 -80 -269 35 -68 231 -186 382
-231 247 -73 546 -63 778 27 172 67 303 170 324 255 43 168 -147 300 -289 201
-129 -90 -206 -124 -334 -144 -184 -30 -398 10 -522 97 -126 87 -178 101 -259
64z M4541 2819 c-46 -5 -129 -18 -185 -29 -728 -146 -1299 -585 -1471 -1130
-50 -161 -55 -229 -55 -802 l0 -528 3610 0 3610 0 0 538 c0 435 -3 555 -15
632 -103 629 -727 1148 -1566 1301 -114 21 -161 23 -564 27 l-440 4 -70 -47
c-250 -168 -522 -235 -955 -235 -432 0 -705 67 -954 234 l-69 46 -396 -1
c-218 -1 -434 -6 -480 -10z m937 -251 c54 -91 291 -506 527 -921 237 -416 433
-756 436 -756 3 -1 19 23 34 51 91 169 1015 1780 1031 1797 2 2 32 -18 66 -45
l63 -49 155 0 155 0 75 37 c66 32 76 34 82 20 4 -9 7 -453 7 -987 l1 -970
-1670 0 -1670 0 1 940 c0 517 4 961 7 987 l7 47 79 -40 79 -39 134 0 c148 0
171 6 243 63 25 20 49 35 53 34 5 -2 52 -77 105 -169z m-1542 -2125 c-5 -5
-110 58 -114 69 -2 4 -19 10 -38 14 -19 3 -34 10 -34 15 0 5 -128 9 -290 9
-251 0 -290 2 -290 15 0 11 -12 15 -45 15 l-45 0 0 474 c0 454 1 477 21 542
40 129 143 307 246 423 64 73 202 187 312 258 50 32 91 61 91 64 0 4 21 29 48
57 26 27 67 73 92 103 l45 54 3 -1054 c1 -580 0 -1056 -2 -1058z m694 1237 c0
-758 2 -860 15 -860 11 0 15 -11 15 -39 0 -22 3 -41 8 -43 4 -2 18 -25 30 -53
l24 -49 -22 -18 c-20 -16 -49 -18 -306 -18 l-284 0 0 919 0 919 48 16 c122 39
340 81 445 85 l27 1 0 -860z m3868 830 c57 -10 136 -29 177 -41 l75 -22 0
-923 0 -924 -274 0 c-248 0 -276 2 -296 18 l-22 18 24 49 c12 28 26 51 31 53
4 2 7 21 7 43 0 21 5 39 10 39 7 0 10 294 10 861 l0 861 78 -7 c42 -4 123 -15
180 -25z m552 -67 c111 -113 142 -140 225 -196 88 -59 203 -157 273 -231 103
-111 175 -230 238 -396 l29 -75 3 -483 c3 -480 3 -482 -18 -482 -11 0 -20 -7
-20 -15 0 -13 -39 -15 -290 -15 -159 0 -290 -4 -290 -9 0 -5 -25 -11 -56 -13
-31 -3 -59 -9 -62 -15 -4 -6 -18 -14 -32 -18 -14 -4 -41 -18 -61 -31 -20 -13
-40 -20 -43 -17 -9 9 -8 2093 1 2093 4 0 51 -44 103 -97z m-3069 -128 c41 -8
160 -20 266 -26 225 -14 524 0 668 30 50 10 93 17 98 14 15 -9 6 -42 -37 -129
-66 -135 -464 -825 -494 -856 -35 -38 -54 -35 -94 12 -32 37 -485 822 -521
903 -26 59 -18 82 24 71 9 -3 50 -11 90 -19z"/>
</g>
</svg>
