<?xml version="1.0" standalone="no"?>
<!DOCTYPE svg PUBLIC "-//W3C//DTD SVG 20010904//EN"
 "http://www.w3.org/TR/2001/REC-SVG-20010904/DTD/svg10.dtd">
<svg version="1.0" xmlns="http://www.w3.org/2000/svg"
 width="2048.000000pt" height="2048.000000pt" viewBox="0 0 2048.000000 2048.000000"
 preserveAspectRatio="xMidYMid meet">
<metadata>
Created by potrace 1.13, written by Peter Selinger 2001-2015
</metadata>
<g transform="translate(0.000000,2048.000000) scale(0.192120,-0.192120)"
fill="#000000" stroke="none">
<path d="M6326 10319 c-63 -15 -155 -70 -192 -113 -31 -36 -72 -110 -87 -157
-4 -12 -26 -18 -94 -23 -120 -10 -347 -50 -484 -85 -646 -167 -1090 -528
-1323 -1075 -112 -260 -171 -535 -196 -906 l-11 -164 -101 -151 c-183 -273
-310 -580 -377 -910 -71 -351 -86 -613 -77 -1410 3 -330 10 -688 16 -795 52
-1006 196 -1544 446 -1666 52 -25 60 -27 162 -21 154 8 282 39 577 140 668
229 811 277 825 277 13 0 15 -30 12 -220 l-3 -220 32 -73 c83 -183 209 -357
373 -514 176 -170 370 -299 522 -349 77 -25 88 -26 141 -15 78 15 237 96 352
179 52 37 144 114 204 172 176 168 270 293 362 481 l55 112 0 172 c0 278 -8
302 -80 227 -54 -57 -82 -150 -91 -297 -3 -66 -11 -141 -17 -167 -10 -42 -95
-189 -133 -228 -8 -8 -41 -46 -74 -84 -117 -134 -310 -290 -486 -393 -136 -79
-188 -69 -404 78 -171 116 -287 220 -428 384 -38 44 -100 132 -119 170 -31 59
-40 105 -47 250 -10 188 -47 289 -117 325 -37 19 -44 29 -44 64 l0 29 27 -34
c109 -139 338 -271 574 -333 252 -65 628 -60 884 13 177 50 355 151 477 270
63 62 69 71 59 90 -7 12 -9 26 -6 31 3 5 -56 -22 -133 -60 -166 -82 -332 -141
-502 -178 -116 -24 -143 -26 -370 -27 -275 0 -367 13 -585 82 -98 31 -411 172
-425 191 -3 4 -36 28 -75 52 -207 134 -434 352 -605 583 -230 312 -419 734
-504 1129 -6 25 -9 27 -69 26 -149 0 -268 92 -362 281 -105 211 -124 538 -44
781 51 156 154 296 261 356 48 26 62 29 143 29 81 0 95 -3 143 -29 29 -16 74
-52 100 -80 l49 -51 164 133 c164 133 488 435 531 494 12 18 16 28 7 23 -31
-18 -208 -142 -284 -199 -138 -104 -318 -222 -368 -241 l-48 -18 -157 37
c-194 45 -281 48 -359 11 -61 -28 -164 -126 -212 -202 -60 -96 -61 -94 -61 80
0 157 4 183 55 372 29 107 74 241 100 299 25 54 88 136 105 136 4 0 11 -26 14
-57 26 -216 116 -372 254 -440 51 -25 67 -28 159 -28 l102 0 273 137 c440 221
628 286 1036 358 245 43 734 63 1022 41 311 -23 587 -75 834 -156 181 -58 291
-107 579 -254 l248 -126 102 0 c96 0 107 2 169 33 135 66 223 221 243 427 9
84 14 107 25 100 20 -12 75 -181 116 -360 42 -178 45 -202 51 -375 l6 -185
-74 76 c-129 133 -194 158 -351 139 -95 -11 -208 -37 -287 -65 -24 -8 -56 -15
-71 -15 -15 0 -91 31 -168 70 -344 171 -566 227 -993 250 -292 16 -481 51
-799 150 -182 56 -322 96 -427 120 -107 25 -256 50 -262 44 -6 -6 289 -145
421 -198 409 -164 692 -229 1072 -246 290 -13 414 -33 626 -102 185 -60 354
-151 479 -257 l64 -54 20 29 c45 64 137 142 192 163 228 85 446 -93 536 -438
26 -100 36 -318 19 -432 -27 -186 -97 -344 -202 -451 -88 -91 -193 -128 -298
-105 l-36 7 -28 -117 c-156 -643 -524 -1219 -1001 -1569 -55 -41 -107 -79
-117 -86 -11 -9 -18 -34 -21 -84 l-6 -71 282 -95 c155 -53 399 -136 542 -185
300 -103 425 -133 585 -140 430 -20 549 238 590 1272 17 437 24 1836 11 2050
-38 603 -163 1024 -429 1448 l-81 128 -11 102 c-36 324 -66 476 -135 682 -276
833 -932 1363 -1844 1489 -121 17 -131 20 -131 40 0 7 -14 40 -31 74 -38 76
-111 144 -187 173 -65 24 -221 35 -286 18z m557 -469 c34 -74 70 -94 237 -135
431 -105 697 -235 965 -472 166 -146 293 -317 400 -537 70 -144 93 -207 136
-365 25 -93 29 -123 29 -248 0 -130 -2 -143 -17 -143 -10 0 -81 -7 -158 -15
-299 -31 -832 -55 -1626 -75 -766 -20 -2261 35 -2618 96 l-33 5 5 172 c6 196
24 301 88 491 141 424 400 712 822 911 165 79 357 136 685 205 133 28 174 54
207 133 l15 37 418 0 418 0 27 -60z m-2693 -2065 c515 -64 1129 -88 2250 -88
978 0 1445 14 1960 58 172 15 389 40 442 51 l28 6 -15 -43 c-19 -52 -19 -112
-1 -147 8 -15 33 -40 55 -57 l42 -30 -7 -65 c-31 -310 -187 -481 -430 -468
-71 3 -80 7 -356 145 -414 207 -625 281 -968 342 -395 71 -939 81 -1345 25
-399 -55 -673 -143 -1075 -346 -140 -71 -281 -138 -312 -150 -111 -40 -264
-11 -357 68 -66 55 -125 172 -152 300 -22 109 -20 125 21 170 59 64 72 134 44
232 -6 22 -4 23 27 18 19 -4 86 -13 149 -21z m-473 -2454 c28 -47 76 -113 105
-147 52 -60 177 -153 208 -155 27 -1 74 -35 93 -67 10 -17 37 -86 61 -154 68
-194 104 -281 193 -459 144 -289 313 -527 536 -755 81 -83 147 -157 147 -164
0 -17 -25 -37 -77 -60 -103 -47 -646 -244 -732 -267 -113 -30 -270 -37 -311
-14 -133 72 -214 307 -286 831 -27 192 -27 205 -31 853 -3 363 -2 666 2 675 7
19 16 7 92 -117z m5491 -853 c-4 -881 -4 -895 -26 -1008 -13 -63 -35 -151 -51
-196 -53 -155 -108 -195 -280 -202 -171 -6 -210 5 -788 223 -128 49 -242 97
-253 107 -14 13 -19 26 -15 39 4 11 59 72 124 137 299 299 532 673 696 1117
36 99 73 199 81 222 23 63 42 80 117 102 126 38 243 140 357 313 14 21 29 38
33 38 4 0 6 -402 5 -892z M5444 6060 c-48 -11 -103 -49 -134 -92 -42 -58 -53
-123 -48 -289 4 -155 12 -184 67 -242 91 -99 261 -97 346 5 50 59 55 84 55
273 0 158 -2 180 -21 220 -27 57 -80 101 -143 120 -54 16 -74 17 -122 5z
M7325 6061 c-69 -17 -125 -62 -161 -131 -17 -30 -19 -59 -19 -215 0 -165 2
-183 22 -220 95 -176 337 -177 419 -1 22 47 24 63 24 222 0 162 -1 172 -25
221 -49 98 -157 149 -260 124z M2271 4287 l3 -635 -25 -37 c-68 -102 -253
-175 -493 -194 -228 -19 -433 15 -589 96 -78 41 -122 87 -137 142 -7 27 -10
240 -8 645 2 399 0 606 -7 606 -16 0 -165 -104 -225 -157 -231 -203 -374 -448
-436 -743 -25 -117 -25 -371 -1 -492 52 -257 163 -470 343 -658 137 -142 312
-259 487 -325 l47 -18 0 -1093 0 -1094 420 0 421 0 -1 1092 -1 1093 73 31
c189 80 323 170 456 308 179 185 293 403 349 666 24 115 24 361 0 482 -36 180
-115 367 -214 506 -100 141 -281 307 -426 392 l-39 23 3 -636z m321 -12 c15
-22 42 -74 60 -115 l33 -75 3 -298 c3 -254 1 -307 -13 -355 -60 -204 -214
-410 -400 -533 -39 -26 -104 -67 -146 -92 -84 -51 -244 -209 -255 -251 -3 -14
-10 -26 -15 -26 -5 0 -9 -11 -9 -25 0 -14 -4 -25 -10 -25 -7 0 -10 -308 -10
-905 0 -898 0 -905 -20 -905 -17 0 -20 -7 -20 -40 l0 -40 -150 0 -150 0 0 40
c0 29 -4 40 -15 40 -13 0 -15 107 -15 905 0 597 -3 905 -10 905 -5 0 -10 11
-10 24 0 13 -3 26 -7 28 -5 2 -17 21 -28 43 -27 56 -179 204 -245 239 -243
128 -397 284 -503 506 -61 129 -67 168 -67 449 0 245 1 254 26 332 34 102 101
204 134 204 17 0 26 -7 31 -25 4 -14 7 -152 8 -307 1 -176 5 -284 11 -288 6
-3 10 -16 10 -28 0 -69 95 -222 196 -316 149 -140 408 -212 709 -198 277 13
459 80 596 219 82 83 155 205 172 288 5 25 12 180 16 346 4 165 11 306 15 313
14 22 50 7 78 -34z M6124 4876 c-32 -32 -34 -38 -34 -99 0 -67 18 -104 61
-127 12 -7 124 -11 290 -11 293 0 299 1 335 56 12 19 15 41 12 91 -4 60 -7 70
-36 95 l-32 29 -281 0 -281 0 -34 -34z M5774 4341 c-100 -45 -135 -163 -80
-269 35 -68 231 -186 382 -231 247 -73 546 -63 778 27 172 67 303 170 324 255
43 168 -147 300 -289 201 -129 -90 -206 -124 -334 -144 -184 -30 -398 10 -522
97 -126 87 -178 101 -259 64z M4555 2819 c-164 -17 -380 -67 -555 -127 l-55
-19 -3 -1171 -2 -1172 2502 0 2503 0 -5 1172 -5 1173 -95 32 c-188 63 -421
108 -619 119 l-116 7 3 -557 3 -556 -1672 0 -1671 0 4 555 3 555 -70 -1 c-38
-1 -106 -5 -150 -10z m-5 -659 c0 -240 4 -370 10 -370 6 0 10 -16 10 -35 0
-19 4 -35 8 -35 4 0 13 -15 20 -32 16 -44 124 -162 175 -193 23 -13 71 -29
107 -34 43 -7 488 -11 1307 -11 683 0 1248 -3 1257 -6 24 -9 19 -25 -25 -74
-101 -114 -159 -190 -190 -250 -31 -60 -33 -72 -34 -161 l0 -97 57 -113 58
-114 -21 -18 c-20 -16 -109 -17 -1560 -17 l-1539 0 2 932 3 932 45 13 c60 18
237 51 278 52 l32 1 0 -370z m3970 346 c36 -8 84 -19 108 -25 l42 -12 0 -560
0 -560 -52 40 c-71 52 -143 87 -268 130 -124 42 -128 49 -81 143 17 34 31 76
31 95 0 18 5 33 10 33 6 0 10 128 10 363 0 200 3 367 8 371 9 10 104 1 192
-18z m-225 -1235 c112 -30 216 -82 276 -138 191 -178 67 -400 -276 -495 -68
-18 -106 -22 -255 -22 -152 -1 -186 2 -260 22 -181 49 -319 145 -354 248 -20
59 -20 79 0 138 40 118 204 220 419 262 106 20 348 12 450 -15z M4830 2826 c0
-8 126 -85 164 -101 32 -14 67 -16 176 -13 128 3 138 5 166 28 17 14 41 40 53
58 l21 32 -290 0 c-159 0 -290 -2 -290 -4z M7487 2800 c10 -17 31 -43 46 -58
28 -27 29 -27 175 -27 125 0 154 3 192 20 43 18 150 84 150 91 0 2 -131 4
-291 4 l-290 0 18 -30z M3729 2572 c-427 -216 -727 -541 -844 -912 -50 -161
-55 -229 -55 -802 l0 -528 530 0 c292 0 530 2 530 4 0 2 -19 16 -42 32 -24 16
-51 37 -62 46 -24 21 -79 48 -100 48 -9 0 -16 5 -16 10 0 6 -102 10 -285 10
-247 0 -285 2 -285 15 0 11 -11 15 -40 15 l-41 0 3 548 3 547 33 75 c59 134
162 294 257 399 48 53 190 174 265 226 58 40 104 85 161 157 58 72 121 168
111 168 -5 0 -61 -26 -123 -58z M9030 2624 c0 -3 24 -40 53 -82 66 -96 157
-187 272 -272 201 -148 344 -311 434 -495 93 -189 91 -169 91 -754 0 -504 0
-511 -20 -511 -11 0 -20 -7 -20 -15 0 -13 -38 -15 -285 -15 -183 0 -285 -4
-285 -10 0 -5 -17 -10 -38 -10 -43 0 -112 -32 -192 -90 l-55 -40 533 0 532 0
0 538 c0 590 -4 647 -60 814 -119 355 -428 686 -829 888 -94 47 -131 62 -131
54z"/>
</g>
</svg>
