<?xml version="1.0" standalone="no"?>
<!DOCTYPE svg PUBLIC "-//W3C//DTD SVG 20010904//EN"
 "http://www.w3.org/TR/2001/REC-SVG-20010904/DTD/svg10.dtd">
<svg version="1.0" xmlns="http://www.w3.org/2000/svg"
 width="2048.000000pt" height="2048.000000pt" viewBox="0 0 2048.000000 2048.000000"
 preserveAspectRatio="xMidYMid meet">
<metadata>
Created by potrace 1.13, written by Peter Selinger 2001-2015
</metadata>
<g transform="translate(0.000000,2048.000000) scale(0.192120,-0.192120)"
fill="#000000" stroke="none">
<path d="M1320 10324 c-274 -42 -463 -131 -640 -301 -169 -160 -265 -330 -328
-573 -15 -60 -16 -319 -20 -3225 -2 -2309 0 -3185 8 -3253 30 -245 139 -469
315 -647 160 -161 370 -271 594 -310 69 -12 228 -15 905 -15 l821 0 80 78
c197 191 437 331 705 412 110 33 102 36 -47 14 -217 -31 -496 -111 -608 -173
-27 -16 -81 -46 -120 -67 l-70 -39 -805 0 -805 0 -100 28 c-317 87 -545 299
-634 591 l-21 68 0 3252 c0 2946 2 3257 16 3307 25 86 101 230 158 302 154
194 372 309 636 337 125 13 6127 13 6260 0 126 -12 236 -42 332 -91 106 -52
150 -84 248 -175 98 -93 156 -173 198 -274 62 -150 71 -209 82 -495 8 -227 8
-231 44 -340 20 -60 58 -168 86 -240 l49 -130 1 481 c0 536 -4 579 -64 750
-127 354 -429 620 -806 711 -71 17 -232 18 -3260 19 -1752 1 -3196 0 -3210 -2z
M1296 9755 c-190 -52 -350 -217 -395 -408 -8 -35 -11 -882 -11 -3185 0 -2796
1 -3143 15 -3196 40 -152 154 -289 297 -356 46 -21 113 -44 148 -49 44 -7 630
-11 1783 -11 l1717 0 0 35 c0 96 127 306 212 351 15 8 29 14 32 14 3 0 28 -20
55 -44 99 -88 418 -320 891 -648 l225 -156 97 -7 c54 -4 127 -4 162 0 64 6 68
9 318 182 438 304 726 513 861 625 32 26 61 48 66 48 18 0 77 -54 116 -106 67
-89 115 -193 115 -247 l0 -47 259 0 258 0 42 91 c24 50 55 134 69 187 l27 97
2 850 3 850 44 175 c24 96 50 216 56 265 16 108 21 121 57 130 45 11 120 63
161 113 89 107 142 225 174 386 26 131 21 346 -12 476 -27 111 -97 253 -155
318 -32 36 -45 57 -41 70 31 96 56 675 37 842 -58 506 -358 1014 -816 1382
-398 321 -899 517 -1448 569 -163 15 -579 6 -737 -16 -507 -70 -918 -230
-1267 -491 -105 -79 -289 -259 -373 -364 -331 -416 -476 -887 -442 -1438 20
-317 64 -527 147 -698 64 -133 133 -187 194 -154 24 12 35 42 70 190 103 435
314 826 596 1105 44 44 99 94 121 112 l41 32 94 -75 c273 -219 520 -366 677
-404 152 -36 234 43 218 213 l-6 68 146 -136 c318 -295 494 -410 562 -367 52
34 22 191 -79 411 -22 46 -37 86 -35 88 2 2 19 -9 37 -25 145 -124 371 -212
716 -276 208 -39 562 -76 732 -76 l76 0 214 -420 c233 -459 260 -500 327 -500
65 0 117 78 165 250 l26 95 14 -75 c7 -41 13 -115 13 -165 1 -101 -20 -410
-28 -423 -3 -5 -10 -37 -15 -71 -14 -86 -63 -178 -141 -268 -179 -206 -210
-258 -250 -427 -17 -71 -48 -182 -69 -245 -21 -64 -44 -143 -50 -176 -26 -134
-44 -213 -63 -265 -39 -110 -149 -306 -239 -425 -123 -163 -153 -209 -189
-290 -74 -164 -91 -194 -154 -263 -88 -97 -125 -168 -73 -141 30 16 142 106
216 175 34 31 64 54 67 51 4 -3 -6 -57 -20 -119 -14 -62 -26 -125 -26 -140 0
-15 -4 -30 -10 -33 -6 -3 -10 -15 -10 -25 0 -15 -10 -20 -47 -25 -69 -9 -130
-33 -168 -66 -17 -16 -35 -26 -39 -22 -3 3 -6 42 -6 86 0 43 -3 77 -7 75 -5
-2 -48 -29 -96 -62 -236 -156 -537 -268 -839 -311 -121 -17 -377 -19 -498 -5
-311 39 -653 163 -890 325 -44 30 -83 55 -86 55 -3 0 -5 -24 -4 -52 1 -29 1
-73 1 -97 l-1 -44 -44 41 c-128 118 -190 102 -405 -103 -95 -90 -140 -127
-168 -134 -22 -6 -145 -11 -288 -11 -137 -1 -347 -8 -465 -16 -275 -20 -2210
-32 -2391 -16 -190 18 -286 69 -344 185 l-25 51 0 904 c0 857 1 904 18 897 9
-3 29 -9 45 -12 22 -4 27 -2 27 13 0 18 33 19 1168 19 l1167 0 56 27 c68 34
185 149 224 220 32 59 36 121 9 188 -21 55 -104 166 -179 240 -64 63 -69 87
-33 166 29 65 30 168 3 244 -15 42 -39 75 -102 140 -93 96 -112 119 -113 138
0 20 36 95 81 169 51 83 86 160 110 243 25 85 27 300 3 381 -24 80 -82 186
-138 249 -96 109 -101 134 -32 177 127 80 230 233 231 343 0 82 -32 138 -147
253 -54 53 -100 108 -103 120 -4 16 7 48 36 103 23 43 45 84 49 89 26 36 73
134 99 211 28 81 31 100 31 220 0 156 -16 215 -92 332 -64 98 -211 240 -308
298 -41 24 -78 44 -83 44 -4 0 -29 10 -55 22 -41 20 -63 23 -167 23 -103 -1
-127 -4 -167 -23 -27 -12 -60 -27 -74 -32 -49 -19 -159 -98 -254 -181 -107
-95 -174 -186 -220 -299 -28 -69 -30 -85 -30 -192 0 -129 6 -150 71 -248 37
-55 112 -132 161 -164 33 -21 42 -45 29 -77 -5 -13 -53 -82 -106 -154 -127
-170 -165 -248 -165 -341 0 -59 5 -77 32 -124 31 -55 134 -164 217 -230 56
-45 53 -64 -29 -145 -76 -76 -152 -191 -185 -278 -23 -62 -25 -81 -25 -226 0
-118 -3 -160 -12 -164 -7 -2 -43 3 -80 11 -53 13 -68 20 -68 34 0 10 -7 18
-15 18 -9 0 -15 9 -15 23 0 52 -68 164 -149 247 -92 93 -148 123 -227 122 -74
-1 -125 -31 -224 -131 -85 -85 -150 -186 -150 -232 0 -12 -8 -23 -20 -26 -11
-3 -20 -13 -20 -23 0 -17 -19 -30 -43 -30 -36 0 -37 51 -37 1407 l0 1328 21
35 c12 19 32 44 45 55 13 11 24 26 24 32 0 20 64 62 126 85 85 30 219 37 735
37 438 1 457 0 470 -18 13 -18 31 -19 239 -22 124 -2 292 -3 373 -1 137 2 149
4 154 21 5 20 300 23 3158 34 395 2 1093 -19 1166 -34 81 -17 164 -65 220
-128 51 -58 99 -144 99 -180 0 -11 4 -22 9 -26 5 -3 13 -19 16 -36 7 -31 118
-256 135 -273 16 -16 23 82 17 247 -5 173 -14 212 -72 327 -36 71 -144 177
-221 217 -129 68 148 63 -3324 62 -2611 -1 -3153 -3 -3194 -14z m1778 -576
c192 -59 316 -226 318 -427 1 -197 -91 -356 -426 -737 l-105 -120 242 -5 c265
-5 282 -9 317 -65 26 -42 27 -119 1 -161 -39 -63 -44 -64 -513 -64 -394 0
-426 2 -465 19 -25 12 -48 32 -57 50 -20 39 -20 104 0 142 8 17 93 119 187
227 232 265 262 302 344 412 126 170 157 265 113 354 -32 67 -71 91 -147 91
-99 0 -143 -45 -190 -194 -36 -114 -78 -161 -147 -161 -167 0 -216 176 -107
385 69 134 225 248 371 274 73 13 186 5 264 -20z m3729 -95 c399 -49 827 -204
1073 -389 88 -66 274 -235 379 -346 150 -157 305 -425 387 -667 l33 -97 3
-432 c2 -347 0 -438 -11 -458 l-13 -26 -25 19 c-13 11 -66 101 -118 200 -83
160 -102 190 -165 252 -111 112 -150 126 -381 145 -500 40 -704 84 -1120 239
-95 35 -148 34 -208 -4 -25 -16 -60 -48 -77 -72 -67 -93 -72 -98 -89 -89 -9 5
-20 7 -26 5 -5 -2 -53 30 -105 71 -102 82 -198 135 -239 135 -36 0 -70 -20
-154 -89 -97 -80 -114 -86 -184 -61 -81 28 -186 90 -357 212 -200 142 -262
173 -341 173 -48 0 -71 -6 -113 -30 -82 -47 -169 -120 -260 -219 -178 -196
-297 -381 -418 -646 -21 -47 -51 -104 -67 -128 -25 -38 -30 -41 -44 -27 -28
29 -33 88 -33 455 0 389 2 402 54 564 205 626 780 1094 1551 1261 329 71 738
90 1068 49z m-3764 -1839 c139 -33 254 -125 314 -252 27 -59 32 -81 35 -168 4
-88 1 -110 -23 -180 -47 -143 -137 -275 -365 -534 -77 -88 -140 -162 -140
-163 0 -2 107 -3 237 -3 265 0 284 -4 323 -68 42 -68 16 -167 -52 -204 -30
-17 -68 -18 -463 -18 -412 0 -431 1 -464 20 -19 11 -43 32 -53 46 -24 32 -27
103 -5 144 8 17 91 116 183 220 448 509 525 638 465 770 -36 81 -110 117 -193
94 -62 -16 -101 -63 -133 -161 -53 -158 -80 -190 -166 -190 -90 0 -149 55
-157 145 -17 212 159 439 391 502 69 18 187 18 266 0z m-1359 -464 c45 -32 50
-54 50 -248 l0 -183 183 0 c165 0 185 -2 215 -20 61 -37 79 -133 37 -196 -30
-46 -68 -54 -260 -54 l-175 0 0 -180 c0 -200 -6 -227 -60 -255 -37 -19 -103
-19 -140 0 -57 29 -60 42 -60 247 l0 188 -177 0 c-203 0 -235 9 -265 70 -34
68 -15 144 45 180 29 18 51 20 215 20 l182 0 0 190 0 190 28 31 c43 49 127 58
182 20z m400 -946 c0 -8 9 -15 20 -15 14 0 20 -7 20 -24 0 -13 7 -29 15 -36 8
-7 15 -19 15 -27 0 -7 9 -31 20 -53 42 -82 21 -100 -113 -100 -109 0 -127 6
-127 39 0 27 21 96 33 107 4 4 7 22 7 41 0 26 4 33 20 33 13 0 20 7 20 19 0
21 13 29 48 30 13 1 22 -5 22 -14z m-860 -67 c0 -16 7 -40 16 -53 9 -14 17
-48 18 -76 1 -49 -1 -53 -28 -62 -21 -7 -30 -6 -36 3 -7 12 -33 10 -74 -6 -14
-5 -16 9 -16 118 l0 125 60 -10 c57 -9 60 -11 60 -39z m2340 -446 c106 -53
105 -192 -2 -248 -23 -12 -214 -14 -1213 -14 -1315 0 -1232 -4 -1275 65 -24
40 -26 106 -3 145 9 15 32 37 52 49 36 21 38 21 1221 21 1108 0 1187 -1 1220
-18z m5066 -893 c-14 -79 -51 -259 -82 -399 l-57 -255 -7 -375 c-5 -229 -12
-389 -19 -410 -6 -19 -11 -47 -11 -61 0 -14 -13 -53 -30 -85 -40 -81 -78 -102
-198 -110 -89 -7 -206 8 -217 27 -3 4 10 36 29 71 66 121 69 140 74 482 l4
310 87 115 c48 64 113 159 146 211 82 131 202 372 255 512 25 64 46 115 48
113 2 -2 -8 -68 -22 -146z m-3180 -1516 c272 -201 646 -297 1084 -280 288 12
491 58 695 156 136 66 226 127 335 227 50 46 67 58 49 34 -61 -82 -328 -276
-549 -399 -367 -203 -520 -280 -585 -293 -99 -21 -146 -1 -660 284 -211 117
-442 283 -529 378 -67 75 -57 83 17 13 34 -33 99 -87 143 -120z M5234 6424
c-58 -21 -120 -77 -152 -138 -27 -51 -27 -52 -27 -261 0 -178 3 -216 18 -247
24 -53 72 -104 126 -136 40 -24 57 -27 131 -27 74 0 91 3 131 27 54 32 102 83
126 136 15 31 18 69 18 247 0 209 0 210 -27 261 -66 126 -213 185 -344 138z
m114 -406 c-3 -119 -5 -143 -18 -143 -13 0 -15 24 -18 143 -2 138 -2 142 18
142 20 0 20 -4 18 -142z M7464 6428 c-60 -20 -127 -80 -159 -143 l-30 -59 0
-200 c0 -200 0 -201 28 -258 50 -102 142 -158 256 -158 107 1 213 76 251 178
17 46 20 78 20 236 0 211 -8 249 -72 321 -56 63 -107 87 -193 91 -38 2 -84 -2
-101 -8z m106 -408 c0 -133 -1 -140 -20 -140 -19 0 -20 7 -20 140 0 133 1 140
20 140 19 0 20 -7 20 -140z M3790 6309 c-67 -156 -94 -386 -67 -564 30 -192
92 -335 193 -444 52 -56 138 -111 174 -111 13 0 19 -18 28 -83 14 -112 56
-297 99 -437 153 -508 441 -974 799 -1291 107 -95 183 -153 192 -145 2 3 -6
25 -18 51 -15 32 -61 80 -155 165 -74 66 -155 146 -182 178 -26 31 -56 63 -65
72 -34 30 -187 251 -251 362 -80 138 -173 340 -233 507 -39 111 -122 421 -140
526 -11 64 -40 110 -101 162 -133 112 -208 215 -243 334 -18 59 -20 96 -20
345 0 153 5 310 10 348 6 38 9 71 7 73 -3 2 -14 -20 -27 -48z M6167 5250 c-69
-21 -126 -90 -141 -170 -10 -59 17 -131 68 -178 63 -58 105 -65 381 -60 l230
3 47 28 c113 66 138 211 55 312 -57 70 -79 75 -362 74 -137 0 -263 -5 -278 -9z
M5570 4490 c-115 -11 -460 -88 -505 -113 -104 -57 -108 -206 -7 -271 67 -44
90 -43 298 20 104 31 195 59 201 61 9 3 6 -10 -7 -38 -24 -55 -25 -93 -1 -144
22 -48 44 -69 94 -90 70 -29 103 -21 270 65 85 44 160 80 166 80 6 0 11 -11
11 -24 0 -60 94 -136 169 -136 49 0 118 36 145 77 22 32 25 33 31 14 20 -65
86 -101 161 -87 47 9 111 68 126 117 6 21 13 39 14 39 2 0 76 -36 165 -80 119
-59 171 -80 200 -80 129 0 214 127 164 247 -8 20 -14 38 -12 40 2 1 28 -5 58
-15 30 -11 119 -38 199 -61 132 -39 150 -42 188 -32 146 40 179 213 56 296
-21 14 -110 39 -255 70 l-224 49 -815 2 c-448 1 -849 -2 -890 -6z m241 -250
c17 0 9 -39 -11 -50 -26 -14 -40 -5 -40 24 0 28 9 38 28 31 7 -3 18 -5 23 -5z
m791 -9 c11 -10 8 -16 -11 -32 -26 -21 -92 -26 -136 -9 -18 7 -44 5 -91 -6
-91 -21 -154 -6 -154 36 0 10 6 20 13 23 6 3 92 4 189 3 130 -1 181 -5 190
-15z m428 -17 c0 -20 -4 -25 -16 -20 -9 3 -18 6 -20 6 -2 0 -4 9 -4 20 0 13 7
20 20 20 15 0 20 -7 20 -26z M8620 2538 c0 -34 22 -75 49 -91 15 -9 95 -28
177 -42 334 -57 523 -137 759 -318 111 -85 286 -278 367 -403 77 -120 143
-279 188 -453 l30 -116 0 -317 c0 -311 0 -318 -20 -318 -11 0 -20 -7 -20 -15
0 -13 -165 -15 -1377 -18 -1007 -2 -1391 -6 -1425 -15 -40 -10 -178 -86 -178
-98 0 -2 711 -4 1581 -4 l1581 0 -5 377 c-5 409 -10 454 -67 651 -79 271 -218
502 -430 712 -131 131 -257 221 -425 304 -221 109 -420 162 -657 173 -110 5
-128 4 -128 -9z M7986 2430 c-3 -14 -22 -99 -41 -190 -66 -304 -244 -946 -301
-1090 -19 -47 -16 -54 18 -41 63 24 107 120 195 426 67 237 150 565 168 667
15 84 8 175 -18 224 l-15 29 -6 -25z M4850 2383 c-23 -50 -23 -151 -1 -260 12
-55 21 -112 21 -125 0 -32 120 -487 166 -628 38 -119 75 -202 102 -233 16 -17
82 -51 88 -44 1 1 -13 50 -32 107 -100 300 -193 639 -279 1011 -24 105 -46
193 -48 195 -2 2 -10 -8 -17 -23z M6300 1913 c-177 -121 -357 -261 -490 -379
-247 -221 -510 -489 -510 -521 0 -27 31 -25 82 8 98 62 413 281 437 304 22 22
23 23 6 49 -13 19 -16 37 -11 68 12 79 21 74 55 -24 28 -80 127 -270 181 -348
17 -25 17 -25 -26 -75 -89 -100 -178 -312 -223 -532 -12 -56 -21 -109 -21
-117 0 -14 68 -16 649 -16 l649 0 -15 68 c-42 187 -126 402 -218 553 l-55 92
77 131 c47 79 91 171 114 236 35 100 38 104 48 77 16 -41 13 -99 -5 -125 -9
-13 -14 -25 -13 -26 36 -30 190 -137 306 -213 226 -149 277 -171 243 -107 -21
39 -316 340 -457 466 -210 187 -435 361 -623 481 l-55 35 -125 -85z m193 -127
c18 -7 77 -48 131 -90 53 -42 101 -76 106 -76 12 0 48 -38 71 -75 27 -43 24
-90 -15 -208 -49 -149 -87 -220 -139 -256 -18 -13 -58 -16 -220 -17 -224 -2
-224 -2 -273 82 -28 48 -91 226 -100 286 -10 61 31 132 131 226 129 123 226
163 308 128z m107 -892 c81 -38 164 -114 220 -198 34 -53 41 -71 35 -95 -12
-57 -4 -56 -454 -62 -229 -3 -420 -2 -425 2 -22 20 86 191 166 265 99 91 185
125 308 121 70 -2 97 -8 150 -33z M2842 1819 c-109 -150 -209 -386 -251 -586
-32 -153 -41 -282 -41 -604 l0 -299 1568 0 1567 1 -30 25 c-16 14 -57 40 -91
59 l-61 35 -1356 0 c-1200 0 -1357 2 -1357 15 0 11 -12 15 -45 15 l-45 0 0
348 c0 439 5 464 150 772 79 166 91 222 59 267 -16 23 -16 22 -67 -48z"/>
</g>
</svg>
