<?xml version="1.0" standalone="no"?>
<!DOCTYPE svg PUBLIC "-//W3C//DTD SVG 20010904//EN"
 "http://www.w3.org/TR/2001/REC-SVG-20010904/DTD/svg10.dtd">
<svg version="1.0" xmlns="http://www.w3.org/2000/svg"
 width="2048.000000pt" height="2048.000000pt" viewBox="0 0 2048.000000 2048.000000"
 preserveAspectRatio="xMidYMid meet">
<metadata>
Created by potrace 1.13, written by Peter Selinger 2001-2015
</metadata>
<g transform="translate(0.000000,2048.000000) scale(0.192120,-0.192120)"
fill="#000000" stroke="none">
<path d="M6230 9630 c-610 -36 -1283 -313 -1778 -733 -219 -186 -460 -466
-610 -707 -229 -368 -408 -836 -481 -1255 -23 -133 -99 -318 -282 -683 -95
-190 -112 -231 -95 -226 46 14 175 87 254 144 l82 59 0 -332 c0 -353 -10 -594
-36 -904 -9 -106 -14 -198 -12 -205 2 -6 36 19 75 58 118 116 123 151 123 822
l0 483 -24 47 c-14 26 -41 65 -60 87 -30 34 -36 47 -36 88 0 26 7 62 16 79 69
132 137 334 174 512 55 271 86 370 192 626 173 416 367 710 657 1001 358 358
787 610 1282 753 256 73 445 100 704 100 281 0 507 -40 803 -139 523 -177 943
-460 1310 -884 69 -80 209 -228 310 -329 l184 -183 -6 -44 c-3 -25 -9 -65 -12
-89 -7 -54 9 -113 81 -296 55 -139 75 -217 94 -355 6 -44 20 -132 31 -195 45
-249 51 -363 60 -1000 5 -413 13 -676 24 -800 20 -237 53 -538 71 -662 12 -79
22 -399 13 -398 -2 1 -63 18 -137 38 -148 42 -172 58 -190 124 -20 69 -72 132
-136 163 -49 24 -64 27 -118 22 -35 -3 -139 -27 -232 -53 -163 -45 -172 -46
-276 -42 -119 5 -139 14 -139 60 0 28 -2 27 -47 -29 -57 -70 -63 -74 -121 -77
-54 -3 -95 -22 -170 -78 -102 -76 -139 -162 -94 -218 25 -30 37 -23 145 89
l87 91 153 -20 c83 -11 178 -25 210 -31 55 -10 65 -8 240 46 100 31 229 74
286 96 58 21 106 37 108 35 8 -7 -80 -126 -139 -189 l-64 -67 36 -9 c19 -5 89
-21 155 -36 158 -36 437 -115 601 -171 73 -24 134 -44 137 -44 2 0 -2 26 -9
58 -57 238 -119 620 -153 932 -46 421 -53 546 -61 1185 -5 347 -11 646 -14
665 -3 19 -10 80 -16 135 -37 335 -128 695 -246 972 -24 57 -44 104 -44 106 0
2 30 -2 68 -9 91 -18 272 -30 272 -18 0 6 -37 37 -82 71 -46 34 -135 106 -199
160 -258 219 -362 319 -442 423 -145 188 -370 407 -585 569 -440 333 -1059
573 -1562 606 -173 11 -208 12 -330 5z M5153 7451 c-23 -28 -110 -233 -314
-737 -155 -384 -301 -748 -325 -809 -24 -60 -97 -242 -163 -404 l-119 -293 20
-62 c12 -33 22 -62 23 -64 1 -1 121 47 265 108 145 60 267 110 271 110 4 0
-12 -48 -37 -107 -168 -401 -255 -625 -249 -641 9 -25 169 -262 176 -262 4 0
33 33 65 73 92 113 1185 1433 1513 1826 163 195 303 363 311 374 14 19 13 20
-2 15 -9 -4 -128 -32 -265 -63 -136 -31 -304 -69 -373 -85 -68 -16 -126 -28
-128 -26 -2 2 37 60 85 127 49 68 167 236 263 372 96 137 181 256 188 266 11
16 4 18 -95 30 -307 35 -765 155 -1002 262 -35 16 -67 29 -70 29 -3 0 -20 -18
-38 -39z m282 -280 c49 -16 116 -37 148 -46 43 -12 57 -20 57 -34 0 -20 10
-24 185 -65 94 -22 100 -25 103 -50 4 -29 -36 -107 -95 -188 -18 -25 -54 -86
-78 -134 -53 -103 -60 -174 -25 -231 26 -43 138 -153 155 -153 8 0 20 -6 27
-13 7 -7 31 -17 53 -22 50 -12 54 -30 18 -88 -15 -24 -77 -127 -138 -227 -127
-212 -190 -285 -370 -431 -142 -114 -162 -135 -335 -344 -143 -172 -199 -235
-212 -235 -15 0 -7 115 12 185 11 39 20 93 20 121 0 44 -6 61 -41 113 -76 114
-141 148 -261 136 l-68 -7 0 47 c0 54 48 180 458 1192 171 422 173 426 215
471 38 40 57 40 172 3z M5335 6346 c-58 -27 -107 -78 -126 -133 -10 -26 -14
-90 -14 -203 0 -158 1 -168 26 -215 48 -95 156 -147 257 -124 64 14 107 43
145 97 l32 47 3 180 c2 106 -1 194 -7 215 -25 85 -129 160 -221 160 -26 0 -66
-10 -95 -24z M7231 6356 c-48 -17 -108 -71 -134 -119 -20 -39 -22 -55 -22
-217 0 -169 1 -177 26 -225 87 -170 329 -172 413 -3 25 50 26 59 26 225 0 123
-4 183 -13 206 -48 112 -184 174 -296 133z M6082 5204 c-44 -23 -62 -61 -62
-135 0 -56 3 -64 34 -95 l34 -34 274 0 c255 0 275 1 306 20 40 24 52 54 52
126 0 48 -4 59 -34 92 l-34 37 -269 3 c-233 2 -272 0 -301 -14z M8196 5133
c-6 -14 -5 -15 5 -6 7 7 10 15 7 18 -3 3 -9 -2 -12 -12z M3075 4676 c-105 -24
-220 -75 -309 -136 -50 -35 -97 -60 -111 -60 -15 0 -38 -6 -53 -14 -41 -21
-198 -189 -204 -217 -6 -34 8 -82 31 -103 16 -15 18 -23 10 -44 -21 -53 -39
-175 -39 -258 0 -104 21 -209 60 -305 l30 -72 -55 52 c-66 62 -112 84 -182 83
-58 0 -112 -22 -152 -62 -98 -99 -1573 -1783 -1602 -1830 -56 -90 -74 -159
-74 -276 0 -96 2 -103 39 -178 52 -106 136 -190 242 -242 75 -37 82 -39 178
-39 178 0 265 44 473 240 70 66 129 118 131 115 2 -3 3 -229 2 -502 l-1 -498
251 0 250 0 0 733 1 732 232 211 c579 527 744 680 764 710 32 46 44 109 32
163 -13 60 -24 77 -86 143 l-55 56 78 -30 c89 -34 190 -58 252 -58 24 0 90
-17 155 -41 181 -67 175 -57 66 -119 -351 -200 -656 -414 -761 -533 -31 -35
-74 -73 -95 -83 -21 -11 -54 -32 -75 -48 l-36 -30 20 -50 c30 -79 138 -281
211 -398 l67 -106 0 -626 0 -626 3613 0 3612 0 -3 623 -2 623 53 84 c117 187
252 447 245 474 -3 14 -109 111 -213 196 -182 148 -466 338 -744 495 l-103 59
43 19 c92 39 278 100 372 121 54 12 97 26 96 32 -1 5 -50 45 -110 89 -502 371
-1143 611 -1896 710 l-113 14 -67 -51 c-38 -28 -98 -71 -135 -95 l-68 -43 0
-401 c0 -312 -3 -425 -16 -507 -48 -324 -230 -753 -542 -1277 -112 -187 -401
-635 -411 -635 -7 0 -255 378 -357 545 -260 425 -445 808 -538 1116 -66 219
-69 249 -73 721 l-5 427 -71 43 c-39 23 -102 66 -139 95 -80 62 -81 62 -273
33 -256 -39 -524 -100 -721 -164 -59 -19 -110 -33 -112 -31 -2 2 1 27 7 55 16
73 14 226 -4 312 -64 303 -279 542 -575 640 -84 27 -111 31 -235 34 -94 3
-160 -1 -200 -10z m409 -304 c178 -65 309 -198 338 -342 5 -25 12 -103 14
-175 3 -71 9 -139 14 -150 5 -11 11 -32 14 -47 3 -16 9 -39 12 -53 8 -32 -18
-59 -48 -50 -32 10 -734 711 -754 753 -15 32 -15 35 2 53 44 42 302 50 408 11z
m385 -1075 c17 -26 19 -26 34 -10 32 37 126 195 143 243 10 27 21 50 25 50 3
0 17 -15 30 -34 33 -48 74 -69 149 -77 56 -6 87 -2 225 32 198 47 416 88 515
96 84 6 150 -12 150 -43 0 -9 7 -22 16 -29 15 -10 17 -51 21 -336 4 -363 15
-471 68 -665 43 -156 105 -321 200 -530 51 -115 75 -180 75 -206 0 -21 -4 -38
-9 -38 -11 0 -100 67 -291 219 -510 406 -1002 737 -1432 964 -59 32 -119 57
-132 57 -66 0 -105 35 -593 521 -266 266 -489 492 -494 501 -7 14 -2 26 25 55
35 39 86 127 86 148 0 7 9 20 20 30 11 10 20 22 20 28 0 5 14 34 31 64 l32 55
534 -533 c294 -294 543 -546 552 -562z m-1141 339 c15 -8 89 -77 165 -154 169
-171 169 -172 46 -225 -49 -21 -156 -122 -181 -171 -16 -31 -22 -68 -27 -156
-5 -82 -12 -122 -23 -139 -21 -29 -173 -171 -403 -376 -327 -290 -433 -401
-509 -532 -20 -34 -36 -70 -36 -81 0 -11 -7 -25 -15 -32 -12 -10 -15 -45 -15
-192 0 -175 -1 -180 -20 -175 -17 4 -20 0 -20 -26 0 -30 -1 -29 -83 51 -85 82
-117 102 -165 102 -42 0 -138 -51 -252 -134 -129 -94 -191 -126 -264 -133 -76
-8 -139 12 -187 57 l-39 37 0 100 0 101 38 50 c50 67 1344 1534 1407 1596 71
69 120 89 205 83 84 -6 126 11 190 75 51 52 98 135 126 225 10 35 23 63 27 63
4 0 20 -6 35 -14z m5132 -91 c418 -69 770 -173 1116 -332 162 -74 180 -92 144
-141 -35 -47 -144 -124 -283 -202 -423 -233 -854 -530 -1362 -936 -110 -88
-214 -170 -231 -182 -66 -46 -59 10 22 189 84 185 132 304 183 459 89 272 102
369 108 785 5 373 2 354 68 374 46 14 70 13 235 -14z m-4108 -773 c229 -116
336 -180 603 -357 337 -224 723 -519 1090 -834 198 -170 495 -439 495 -448 0
-3 -8 1 -17 9 -47 40 -545 427 -668 519 -569 427 -984 694 -1515 972 -69 36
-135 77 -148 90 -19 20 -51 108 -52 140 0 15 24 5 212 -91z m5438 38 c-18 -94
-5 -83 -295 -237 -442 -234 -897 -529 -1400 -906 -138 -104 -636 -492 -687
-535 -10 -8 -18 -13 -18 -10 0 8 262 245 450 409 601 521 1203 953 1694 1214
110 59 258 127 263 121 2 -1 -1 -27 -7 -56z m-5713 -186 c558 -238 1312 -699
2153 -1318 226 -166 529 -401 657 -508 l83 -69 199 160 c692 554 1540 1132
2169 1476 276 151 665 327 682 308 4 -4 15 -32 25 -61 23 -72 59 -110 180
-193 57 -38 113 -79 126 -92 13 -12 68 -56 122 -97 132 -99 151 -122 144 -177
-2 -24 -33 -102 -68 -175 -57 -118 -64 -140 -64 -193 0 -50 5 -67 29 -103 26
-38 28 -46 17 -69 -31 -68 -245 -347 -419 -547 -122 -139 -447 -467 -541 -545
l-63 -52 -63 60 c-34 33 -75 64 -91 68 -16 4 -557 8 -1202 8 l-1172 0 -2 95
-2 95 -3 -95 -4 -95 -1163 3 c-866 3 -1175 0 -1207 -8 -31 -9 -60 -29 -102
-71 -70 -70 -47 -79 -236 94 -272 249 -616 642 -801 915 l-63 92 38 57 c56 85
50 124 -49 330 -48 100 -78 175 -79 197 -1 49 54 103 178 173 321 180 385 228
405 303 23 84 28 93 55 86 14 -4 73 -27 132 -52z m-334 -1910 c61 -68 43 -104
-52 -104 -35 0 -39 3 -45 31 -8 40 -8 107 0 136 l6 23 27 -23 c15 -12 43 -41
64 -63z m6537 -15 l0 -92 -50 5 c-58 6 -82 22 -72 48 6 17 109 130 118 130 2
0 4 -41 4 -91z M5705 4646 c-37 -17 -80 -62 -94 -99 -15 -40 -14 -123 3 -156
21 -40 92 -102 172 -149 361 -215 895 -193 1219 51 76 57 109 113 108 184 -1
98 -73 174 -172 181 -62 4 -100 -9 -155 -55 -45 -38 -141 -82 -225 -105 -59
-16 -105 -21 -206 -20 -189 0 -310 36 -429 127 -26 20 -59 40 -72 46 -36 13
-114 11 -149 -5z M4328 4244 c-27 -9 -61 -30 -83 -52 -37 -37 -80 -110 -72
-119 3 -2 90 9 194 26 103 17 244 37 312 46 l124 15 103 -105 c57 -58 108
-105 113 -105 11 0 41 62 41 87 -1 38 -40 103 -81 132 -56 41 -98 51 -216 52
-54 0 -143 9 -198 20 -116 22 -171 23 -237 3z M5526 3589 c3 -6 9 -31 12 -57
6 -41 13 -51 57 -84 187 -142 442 -212 775 -212 298 0 489 43 686 152 96 54
145 98 138 126 -3 12 0 35 6 50 6 16 8 31 6 33 -3 3 -49 -13 -103 -35 -279
-114 -529 -160 -813 -149 -239 9 -436 51 -660 141 -61 24 -108 40 -104 35z"/>
</g>
</svg>
