<?xml version="1.0" standalone="no"?>
<!DOCTYPE svg PUBLIC "-//W3C//DTD SVG 20010904//EN"
 "http://www.w3.org/TR/2001/REC-SVG-20010904/DTD/svg10.dtd">
<svg version="1.0" xmlns="http://www.w3.org/2000/svg"
 width="2048.000000pt" height="2048.000000pt" viewBox="0 0 2048.000000 2048.000000"
 preserveAspectRatio="xMidYMid meet">
<metadata>
Created by potrace 1.13, written by Peter Selinger 2001-2015
</metadata>
<g transform="translate(0.000000,2048.000000) scale(0.192120,-0.192120)"
fill="#000000" stroke="none">
<path d="M6230 9913 c-459 -32 -794 -115 -1135 -282 -690 -339 -1120 -944
-1196 -1682 -19 -187 1 -512 45 -729 l22 -109 -52 -50 c-133 -131 -212 -389
-200 -651 9 -197 53 -347 142 -481 56 -85 111 -134 189 -170 l61 -27 11 -84
c40 -295 173 -694 327 -982 68 -127 189 -312 276 -421 143 -180 385 -405 548
-510 l62 -40 0 -186 c0 -154 3 -188 15 -192 44 -17 128 -265 289 -852 114
-417 403 -1582 506 -2038 l22 -97 279 0 279 0 5 22 c57 253 234 984 325 1348
265 1056 427 1594 485 1617 12 4 15 37 15 188 l0 183 83 58 c585 407 1005
1109 1131 1893 9 52 17 95 18 95 2 1 33 17 70 34 350 169 432 907 140 1268
l-49 60 13 95 c40 285 42 717 5 901 -87 431 -354 867 -727 1189 -485 417
-1135 645 -1819 637 -77 -1 -160 -3 -185 -5z m600 -277 c494 -71 909 -248
1265 -541 306 -251 533 -585 621 -913 10 -39 14 -120 14 -312 0 -143 -3 -260
-6 -260 -4 0 -26 17 -49 38 -54 51 -117 87 -185 106 -82 23 -291 44 -547 56
-498 22 -706 57 -1016 170 -151 55 -219 64 -262 36 -14 -9 -23 -21 -20 -26 15
-25 132 -104 212 -144 237 -119 564 -189 1113 -240 78 -7 -277 5 -450 15 -91
5 -241 17 -335 26 -239 23 -301 23 -354 -5 -24 -13 -44 -22 -45 -20 -2 2 -15
39 -31 83 -40 116 -117 276 -129 272 -6 -2 -25 -32 -43 -67 -17 -35 -40 -72
-51 -82 -19 -19 -20 -19 -68 6 -27 14 -94 59 -149 100 -117 89 -168 116 -216
116 -46 -1 -65 -13 -147 -92 -59 -57 -75 -68 -104 -68 -99 0 -241 78 -591 324
-80 56 -149 86 -197 86 -46 0 -161 -66 -237 -135 -40 -36 -126 -130 -192 -208
-65 -78 -132 -149 -148 -158 -15 -9 -61 -28 -101 -44 -70 -26 -166 -89 -206
-133 -44 -50 -46 -39 -46 242 0 250 1 269 25 361 73 280 214 529 424 747 53
56 128 126 166 158 356 290 825 466 1385 520 137 13 574 4 700 -14z m-1705
-1498 c238 -198 529 -380 680 -423 84 -25 166 -17 204 19 40 38 55 99 47 188
l-7 73 103 -101 c57 -55 146 -138 198 -184 52 -45 101 -89 109 -96 8 -7 -45 2
-125 23 -149 37 -203 39 -344 13 -80 -15 -215 -8 -400 21 -104 16 -201 22
-426 26 -319 6 -340 3 -491 -57 -42 -17 -80 -29 -85 -28 -10 4 43 94 120 203
62 87 331 365 354 365 7 0 36 -19 63 -42z m3073 -545 c-10 -2 -26 -2 -35 0
-10 3 -2 5 17 5 19 0 27 -2 18 -5z m325 -77 c64 -31 110 -84 127 -147 7 -23
10 -269 10 -658 0 -590 -1 -622 -19 -671 -96 -252 -538 -430 -1069 -430 -208
0 -308 23 -607 137 -245 94 -350 123 -472 130 -170 10 -280 -15 -573 -129
-284 -111 -406 -138 -614 -138 -297 0 -603 65 -807 171 -102 53 -196 140 -240
221 l-34 63 -3 624 c-3 725 -5 702 81 786 29 28 68 56 87 62 25 8 592 11 2055
10 l2020 -2 58 -29z m-4490 -596 c19 -41 50 -96 70 -122 l36 -47 -30 -37 c-16
-20 -29 -45 -29 -55 0 -11 -4 -19 -10 -19 -6 0 -10 -73 -10 -200 0 -188 -14
-340 -32 -340 -4 0 -8 4 -8 8 0 5 -14 22 -30 39 -17 18 -35 46 -40 65 -6 18
-10 167 -10 331 0 228 4 323 17 405 15 102 17 105 29 77 7 -17 28 -64 47 -105z
m4927 -24 c23 -134 28 -438 9 -542 -19 -107 -48 -179 -89 -219 l-37 -36 -6 48
c-3 26 -9 128 -13 226 -4 97 -11 177 -15 177 -5 0 -9 8 -9 18 0 10 -13 39 -30
65 -21 33 -25 47 -16 47 28 0 79 55 106 112 15 32 38 96 51 143 13 46 25 83
26 81 2 -1 12 -55 23 -120z m-2290 -1062 c95 -21 166 -66 285 -182 58 -57 118
-108 133 -114 15 -7 37 -21 49 -31 41 -36 202 -68 378 -74 334 -12 658 49 900
168 55 27 101 45 103 39 2 -6 10 -6 23 0 18 10 19 6 19 -69 0 -69 -6 -98 -49
-223 -109 -317 -235 -627 -296 -726 -135 -218 -249 -345 -515 -573 -152 -130
-236 -217 -259 -269 -8 -19 -18 -64 -21 -100 l-5 -65 -115 -58 c-346 -173
-792 -236 -1192 -167 -209 35 -460 121 -603 204 -44 26 -45 28 -45 79 0 104
-71 202 -250 347 -261 211 -415 399 -603 735 -96 170 -172 361 -243 605 -25
89 -46 280 -30 280 4 0 24 -11 46 -25 30 -19 40 -22 40 -11 0 11 18 7 75 -19
105 -48 247 -90 410 -121 125 -24 165 -27 370 -28 189 -1 245 2 313 17 110 24
186 51 210 74 11 10 71 68 133 129 147 143 209 175 374 194 92 11 283 2 365
-16z m-1095 -2399 c145 -108 317 -182 513 -222 71 -15 138 -18 357 -17 241 0
281 2 372 22 199 43 357 115 513 234 49 38 90 62 90 55 0 -35 -38 -135 -102
-267 -90 -185 -118 -266 -125 -360 -5 -69 -3 -82 26 -147 17 -39 31 -76 31
-82 0 -17 -150 -88 -265 -127 -387 -129 -807 -118 -1156 31 -107 46 -211 106
-205 120 51 112 58 141 54 209 -6 88 -61 253 -127 385 -62 123 -109 268 -79
244 7 -6 54 -41 103 -78z m555 -1210 c114 -22 379 -31 505 -16 90 11 183 27
258 46 l27 7 0 -60 c0 -42 -33 -190 -114 -518 -63 -253 -142 -574 -177 -714
-68 -279 -76 -303 -115 -349 -23 -28 -32 -31 -79 -31 -58 0 -81 15 -111 72 -7
14 -43 147 -79 295 -37 147 -114 459 -171 693 -128 517 -135 552 -128 589 l6
29 47 -13 c25 -8 84 -21 131 -30z M4500 6810 c0 -513 2 -529 62 -642 97 -183
347 -278 735 -279 210 0 307 22 666 152 264 96 360 120 476 120 137 0 207 -18
511 -130 309 -115 432 -142 638 -142 461 2 729 141 781 404 6 29 11 253 13
517 l3 465 -1942 0 -1943 0 0 -465z m1052 340 c88 -19 136 -20 885 -20 771 0
794 1 895 21 139 29 306 29 442 0 77 -16 133 -21 257 -21 152 0 159 -1 159
-20 0 -13 7 -20 20 -20 20 0 20 -7 20 -392 l0 -393 -30 -51 c-53 -93 -114
-131 -325 -203 -144 -49 -206 -61 -312 -61 -118 0 -190 17 -353 85 -63 26
-151 58 -195 70 -44 13 -134 39 -200 58 -327 97 -453 91 -900 -41 -71 -22
-186 -62 -255 -90 -179 -74 -230 -85 -369 -80 -109 4 -126 7 -275 58 -190 65
-246 96 -306 174 l-45 58 -3 404 -3 404 31 0 c23 0 30 4 30 20 0 19 7 20 146
20 105 0 172 5 242 20 53 10 113 21 132 24 63 8 217 -4 312 -24z M5258 6986
c-99 -27 -176 -109 -198 -209 -8 -32 -11 -119 -8 -227 3 -153 6 -181 24 -221
82 -177 313 -220 449 -84 73 74 80 103 80 335 0 188 -2 209 -21 251 -57 123
-199 191 -326 155z m100 -407 c-3 -120 -6 -144 -20 -152 -12 -8 -21 -7 -32 2
-13 11 -16 38 -16 152 l0 139 35 0 36 0 -3 -141z M7479 6987 c-53 -15 -94 -43
-138 -92 -61 -70 -65 -89 -66 -315 0 -195 1 -207 23 -252 27 -53 97 -123 145
-143 131 -54 279 -2 351 125 l31 55 0 215 c0 202 -1 217 -22 256 -35 65 -70
101 -127 129 -64 31 -136 39 -197 22z m101 -411 c0 -136 -1 -145 -20 -151 -11
-3 -24 -3 -30 0 -6 4 -10 64 -10 151 l0 144 30 0 30 0 0 -144z M6165 5808
c-50 -18 -83 -47 -112 -95 -55 -94 -27 -213 65 -278 l44 -30 266 -3 c261 -3
268 -2 311 20 89 46 137 145 112 235 -15 58 -48 103 -98 135 -37 22 -44 23
-298 25 -168 1 -271 -2 -290 -9z M7309 4821 c-14 -5 -48 -24 -76 -43 -141 -97
-457 -145 -883 -135 -238 6 -366 20 -510 57 -94 24 -128 38 -204 84 -70 42
-125 47 -186 16 -80 -41 -119 -137 -91 -223 50 -152 414 -273 892 -296 524
-26 986 51 1192 199 117 84 123 235 12 312 -43 30 -105 42 -146 29z M2184
7538 c-54 -17 -126 -80 -153 -132 -29 -57 -39 -150 -22 -213 15 -57 66 -121
124 -157 99 -61 250 -44 331 38 56 56 79 108 84 189 4 61 1 75 -28 133 -33 68
-85 116 -153 141 -39 14 -141 15 -183 1z M1750 6704 c-155 -42 -272 -170 -302
-333 -33 -175 72 -370 239 -449 52 -24 69 -27 168 -27 103 0 114 2 177 32 93
44 151 100 196 191 36 74 37 79 37 187 0 99 -3 116 -27 168 -86 183 -296 282
-488 231z m215 -287 l40 -23 3 -86 c3 -79 1 -88 -22 -115 -63 -75 -236 -63
-286 19 -30 49 -28 147 3 176 59 56 189 70 262 29z M2715 6136 c-93 -43 -165
-153 -165 -251 0 -93 68 -202 154 -248 33 -17 58 -22 126 -22 102 0 146 19
209 91 93 106 93 253 -1 359 -57 64 -124 95 -208 95 -47 0 -79 -7 -115 -24z
M1621 5319 c-252 -50 -405 -198 -447 -431 -36 -198 19 -391 145 -511 86 -83
205 -135 346 -152 l55 -7 0 -694 0 -694 -581 -726 c-319 -399 -603 -758 -629
-798 -153 -227 -201 -388 -166 -556 42 -197 164 -326 374 -393 l67 -22 2252
-3 2251 -2 -238 356 -239 356 231 381 c126 210 234 387 240 394 7 8 -23 21
-109 48 -354 110 -438 137 -442 141 -3 3 -4 19 -3 37 1 18 16 241 32 497 16
256 32 489 35 518 l6 52 -314 0 c-173 0 -361 -5 -418 -10 -220 -23 -406 -76
-593 -170 -106 -53 -265 -156 -266 -172 0 -9 86 -22 141 -21 58 2 115 19 263
78 238 95 419 125 758 125 191 0 198 -1 198 -20 0 -15 7 -20 25 -20 l25 0 0
-435 c0 -494 -3 -472 85 -560 51 -51 90 -72 205 -110 99 -33 120 -48 120 -86
0 -32 -53 -138 -159 -316 -90 -153 -141 -264 -148 -325 -8 -66 22 -143 112
-293 40 -66 84 -142 99 -170 54 -103 34 -116 -198 -126 -151 -7 -183 -11 -271
-39 -118 -37 -252 -70 -280 -70 -12 1 2 12 35 28 75 37 170 129 208 200 61
114 87 296 57 398 -46 158 -103 238 -670 947 -264 331 -514 645 -555 697 -41
52 -80 101 -87 108 -7 8 -24 28 -38 46 l-25 33 0 695 0 696 58 7 c87 11 202
51 268 93 150 97 224 247 224 452 -1 271 -114 437 -360 524 l-85 31 -775 2
c-426 0 -795 -3 -819 -8z m1593 -283 c67 -20 110 -58 142 -123 57 -115 28
-291 -58 -356 -64 -49 -105 -57 -294 -57 l-174 0 0 -884 0 -884 212 -264 c251
-312 280 -348 288 -348 3 0 22 16 43 36 51 50 77 42 171 -49 82 -81 614 -743
698 -870 134 -200 171 -327 134 -462 -29 -109 -88 -186 -184 -238 -108 -59
-60 -57 -1770 -57 -1363 0 -1575 2 -1631 15 -210 50 -338 233 -301 430 13 70
78 214 132 293 76 113 435 570 612 781 80 95 148 151 183 151 13 0 37 -7 53
-15 28 -15 29 -15 83 48 29 34 143 174 252 310 l198 248 -6 492 c-4 271 -7
664 -7 875 l0 382 -97 0 c-151 1 -275 15 -320 39 -83 42 -133 134 -133 246 0
122 58 217 153 254 50 19 78 20 813 20 628 1 769 -1 808 -13z M1125 1643
c-353 -442 -446 -572 -490 -680 -56 -140 -10 -269 115 -327 l45 -21 1600 -3
c1757 -2 1660 -6 1737 58 49 41 78 104 85 187 5 63 3 74 -25 128 -51 100 -126
202 -484 652 l-343 431 -950 1 -950 0 -340 -426z m2182 182 c13 -3 39 -20 60
-38 41 -36 532 -645 605 -751 46 -66 48 -73 48 -136 0 -118 193 -105 -1599
-108 -1504 -2 -1557 -2 -1591 17 -31 16 -35 24 -38 61 -2 24 -1 54 2 67 11 41
115 184 354 483 262 327 315 388 353 404 27 11 1759 12 1806 1z M5025 3221
c-99 -49 -114 -60 -89 -60 49 -1 148 47 208 102 33 29 6 20 -119 -42z M7750
3258 c49 -46 199 -113 215 -96 5 5 -159 90 -210 108 l-30 11 25 -23z M8085
3078 c3 -18 19 -244 35 -503 16 -258 32 -493 35 -521 l6 -51 -53 -15 c-158
-46 -494 -152 -501 -159 -5 -4 40 -87 100 -185 60 -99 167 -274 237 -391 l127
-212 -192 -287 c-105 -158 -213 -318 -240 -355 l-49 -69 1371 0 1370 0 -4 657
c-5 689 -4 687 -52 873 -134 529 -543 973 -1062 1153 -225 79 -379 97 -821 97
l-313 0 6 -32z m905 -211 c246 -55 462 -157 644 -306 215 -176 370 -398 452
-648 l34 -104 0 -650 0 -650 -1076 3 c-1053 3 -1076 3 -1090 22 -19 27 -12 44
68 169 38 60 86 143 106 185 33 69 37 86 37 157 0 78 -2 83 -62 205 -34 69
-93 178 -132 243 -39 65 -78 134 -87 155 -26 63 -16 74 94 110 149 49 205 91
270 205 22 38 22 44 22 489 l0 450 303 -5 c277 -4 312 -7 417 -30z M5410 340
c-10 -6 67 -10 228 -10 160 0 241 3 237 10 -8 13 -445 13 -465 0z M6990 340
c-10 -6 72 -9 240 -9 143 1 244 5 230 9 -36 12 -452 12 -470 0z"/>
</g>
</svg>
