<?xml version="1.0" standalone="no"?>
<!DOCTYPE svg PUBLIC "-//W3C//DTD SVG 20010904//EN"
 "http://www.w3.org/TR/2001/REC-SVG-20010904/DTD/svg10.dtd">
<svg version="1.0" xmlns="http://www.w3.org/2000/svg"
 width="2048.000000pt" height="2048.000000pt" viewBox="0 0 2048.000000 2048.000000"
 preserveAspectRatio="xMidYMid meet">
<metadata>
Created by potrace 1.13, written by Peter Selinger 2001-2015
</metadata>
<g transform="translate(0.000000,2048.000000) scale(0.192120,-0.192120)"
fill="#000000" stroke="none">
<path d="M4550 10324 c-677 -65 -1261 -521 -1483 -1161 -65 -187 -104 -431
-94 -591 12 -195 149 -356 415 -486 49 -24 99 -45 111 -49 21 -5 21 -7 21
-314 0 -169 3 -386 7 -481 l6 -173 44 48 c50 55 73 99 73 142 0 16 5 33 10 36
6 4 10 95 10 239 0 187 3 239 15 263 15 31 34 40 153 78 28 9 52 20 52 23 0 4
-44 20 -98 35 -53 16 -132 42 -174 59 -73 28 -78 31 -78 59 0 73 -38 119 -172
203 -118 74 -169 117 -213 180 l-36 53 3 234 c4 222 5 239 32 324 55 180 178
411 299 562 161 201 396 374 652 478 214 87 271 100 540 120 110 8 243 19 295
25 52 5 124 10 160 10 l64 0 -120 -73 c-262 -159 -396 -290 -523 -512 -94
-164 -171 -393 -157 -467 8 -46 59 -96 105 -104 45 -9 108 13 133 46 10 14 30
66 44 115 30 107 105 267 165 356 62 93 171 197 279 269 103 67 279 159 375
195 54 21 61 21 82 8 39 -26 131 -17 252 22 391 128 868 125 1249 -6 149 -51
188 -56 251 -33 47 17 51 17 98 -1 26 -10 98 -43 158 -73 357 -181 521 -369
639 -732 36 -111 45 -127 75 -147 65 -44 161 -21 196 46 24 47 18 107 -24 232
-119 353 -292 567 -626 774 -60 37 -112 70 -115 73 -13 12 663 -29 786 -48 79
-12 216 -50 224 -62 4 -4 32 -17 64 -28 32 -11 107 -45 166 -76 309 -163 550
-410 692 -712 98 -207 108 -260 108 -594 l0 -246 -40 -51 c-43 -54 -79 -83
-230 -183 -101 -67 -119 -91 -128 -164 l-5 -43 -76 -29 c-42 -16 -120 -41
-174 -57 -54 -16 -94 -32 -90 -36 7 -6 109 -42 123 -44 28 -3 70 -31 70 -46 0
-11 5 -19 10 -19 6 0 10 -88 10 -245 0 -157 4 -245 10 -245 6 0 10 -16 10 -35
0 -19 13 -59 30 -89 31 -58 88 -142 92 -135 1 2 5 226 8 497 l5 493 79 34
c241 105 399 249 448 408 18 62 20 86 15 206 -34 808 -629 1480 -1442 1627
-152 27 -444 26 -591 -4 -153 -30 -338 -92 -470 -156 l-110 -55 -116 58 c-476
239 -1047 239 -1520 1 l-96 -48 -74 38 c-144 75 -300 127 -498 165 -83 16
-350 27 -440 19z M3940 7573 c0 -278 2 -330 16 -359 47 -98 201 -99 247 -1 15
30 17 75 17 331 l0 295 -37 7 c-21 3 -84 16 -140 29 l-103 22 0 -324z M8815
7873 c-60 -13 -120 -26 -132 -29 l-23 -4 0 -292 c0 -270 1 -295 20 -333 11
-22 33 -48 49 -58 60 -35 160 -12 193 45 16 29 29 699 13 697 -5 -1 -59 -13
-120 -26z M4300 7818 c0 -2 24 -22 53 -43 28 -22 54 -43 57 -46 12 -17 419
-66 429 -52 3 4 17 9 31 10 14 1 48 12 75 24 l50 23 -120 13 c-150 16 -504 61
-545 69 -16 4 -30 5 -30 2z M8415 7799 c-66 -10 -213 -28 -327 -40 l-206 -22
60 -29 c50 -23 73 -28 136 -28 104 0 365 35 370 49 2 6 12 11 23 11 10 0 19 5
19 10 0 6 6 10 13 10 6 1 28 14 47 30 33 29 33 30 10 29 -14 -1 -79 -10 -145
-20z M7678 7727 l-128 -10 0 -300 c0 -279 1 -304 20 -342 11 -22 33 -48 49
-58 39 -23 106 -22 146 3 63 39 65 53 65 404 0 247 -3 316 -12 314 -7 -1 -70
-6 -140 -11z M5050 7426 c0 -337 2 -351 59 -399 63 -52 169 -29 204 46 15 30
17 76 17 341 l0 306 -42 0 c-24 0 -87 3 -140 7 l-98 6 0 -307z M5450 7674 l55
-37 190 -9 c105 -5 242 -8 305 -6 104 3 121 6 180 34 l65 31 -360 6 c-199 4
-390 10 -425 13 l-65 6 55 -38z M7210 7700 c-91 -4 -257 -8 -370 -9 l-205 -2
70 -35 c68 -33 73 -34 190 -33 244 1 478 14 483 27 2 7 9 12 15 12 7 0 30 11
52 25 l40 24 -55 -1 c-30 -1 -129 -5 -220 -8z M6300 7370 c0 -346 2 -362 53
-409 38 -35 114 -40 160 -12 65 40 67 51 67 415 l0 326 -140 0 -140 0 0 -320z
M3500 6929 c-54 -230 -79 -381 -102 -614 -17 -169 -16 -1433 1 -1760 46 -899
161 -1422 355 -1619 78 -79 110 -91 241 -90 179 2 345 46 830 222 209 76 597
205 599 200 1 -2 0 -101 -2 -220 l-3 -218 -46 0 c-32 0 -44 -4 -40 -12 173
-385 1064 -2390 1080 -2430 12 -32 24 -58 28 -58 3 0 16 26 29 58 13 31 259
588 548 1237 288 649 526 1186 529 1193 4 8 -8 12 -40 12 l-45 0 -4 213 c-2
116 -3 214 -2 216 5 6 305 -93 632 -210 475 -170 672 -218 851 -206 125 8 192
36 266 111 157 158 218 453 246 1191 16 441 17 2030 1 2180 -27 244 -98 633
-120 657 -4 4 -38 -2 -77 -13 -350 -97 -1089 -189 -1850 -229 -332 -18 -1265
-24 -1630 -11 -533 19 -996 54 -1401 106 -412 53 -813 135 -841 171 -9 12 -15
-3 -33 -77z m1411 -308 c111 -41 1062 -77 1774 -68 699 10 1009 28 1092 62 17
8 52 32 76 55 l45 41 67 -26 c135 -51 267 -129 400 -239 l30 -25 42 54 c85
110 187 161 302 153 233 -17 414 -302 428 -675 7 -156 -7 -263 -48 -388 -93
-277 -272 -423 -469 -380 -25 6 -26 3 -54 -112 -49 -202 -147 -466 -243 -658
-193 -382 -499 -740 -819 -956 -73 -49 -74 -50 -74 -93 0 -71 -10 -105 -34
-112 -67 -21 -126 -112 -148 -231 -17 -90 -6 -124 58 -186 l56 -54 -49 -31
c-106 -68 -282 -136 -428 -166 -239 -49 -716 -49 -948 -1 -150 32 -325 99
-430 167 l-48 31 50 49 c64 62 79 107 62 193 -23 114 -73 200 -136 232 -40 21
-45 30 -45 88 -1 50 -1 50 -56 84 -161 97 -401 315 -545 494 -279 346 -477
764 -583 1230 -6 26 -9 27 -70 27 -154 0 -275 97 -366 294 -54 116 -80 228
-87 377 -12 266 61 506 199 654 77 83 142 117 232 123 103 6 172 -22 253 -104
35 -34 66 -58 69 -52 4 5 77 66 162 134 l156 124 51 -49 c27 -28 62 -54 76
-60z m-1173 -1409 c61 -84 148 -160 244 -212 98 -53 108 -68 174 -255 161
-457 401 -850 726 -1191 49 -50 88 -99 88 -108 0 -35 -21 -45 -295 -145 -442
-161 -662 -205 -745 -148 -102 68 -176 322 -242 832 -19 153 -22 227 -25 738
-4 549 -4 568 14 559 10 -6 38 -37 61 -70z m5429 -902 c-4 -765 -3 -758 -58
-964 -30 -115 -66 -173 -124 -204 -40 -22 -193 -21 -305 2 -94 19 -496 151
-660 216 -112 45 -140 63 -140 91 0 10 39 58 86 106 297 303 553 722 705 1152
53 148 81 212 103 230 9 8 50 29 92 47 91 39 167 96 242 182 l57 65 3 -104 c2
-57 1 -426 -1 -819z m-3217 -1906 c125 -29 125 -29 490 -28 365 0 365 0 490
28 69 16 132 29 140 30 25 2 15 -70 -23 -164 -66 -163 -550 -1245 -569 -1273
-22 -31 -48 -35 -71 -9 -26 29 -75 135 -325 697 -274 618 -302 685 -302 727 0
26 3 30 23 25 12 -3 78 -18 147 -33z M5427 6054 c-69 -21 -131 -86 -153 -159
-23 -81 -17 -344 10 -395 47 -89 119 -134 217 -135 56 0 73 4 114 30 27 17 63
50 80 74 l30 43 3 189 3 189 -28 51 c-33 61 -75 95 -139 115 -57 17 -75 17
-137 -2z M7302 6051 c-61 -21 -104 -58 -135 -116 -20 -37 -22 -55 -22 -220 0
-196 4 -214 64 -278 110 -119 309 -89 377 56 22 49 24 63 24 223 0 162 -1 172
-25 221 -30 60 -78 100 -143 119 -58 18 -76 17 -140 -5z M6124 4876 c-32 -32
-34 -38 -34 -101 0 -63 2 -69 34 -101 l34 -34 281 0 281 0 32 29 c32 28 33 32
33 106 0 74 -1 78 -33 106 l-32 29 -281 0 -281 0 -34 -34z M5791 4350 c-111
-47 -155 -174 -96 -276 58 -100 277 -214 495 -260 105 -22 341 -25 450 -5 225
41 475 173 524 276 40 85 7 198 -71 247 -58 36 -146 33 -202 -7 -136 -95 -184
-117 -309 -141 -141 -27 -314 -13 -442 35 -53 20 -82 37 -179 105 -46 32 -126
44 -170 26z m195 -246 c17 -13 34 -20 38 -17 3 4 6 -3 6 -15 0 -19 -3 -20 -24
-12 -13 5 -27 6 -30 3 -3 -4 -6 0 -6 7 0 7 -3 11 -6 7 -6 -6 -64 42 -64 53 0
14 55 -3 86 -26z m944 12 c0 -13 -24 -29 -74 -50 -34 -14 -36 -14 -36 5 0 11
5 17 10 14 6 -3 10 -1 10 5 0 6 5 8 10 5 6 -3 10 -2 10 2 0 9 38 28 58 29 6 0
12 -4 12 -10z m-883 -68 c-3 -8 -6 -5 -6 6 -1 11 2 17 5 13 3 -3 4 -12 1 -19z
m763 6 c0 -8 -5 -12 -10 -9 -6 4 -8 11 -5 16 9 14 15 11 15 -7z M7300 3320
c-295 -148 -556 -210 -878 -210 -315 1 -582 65 -876 212 -77 39 -101 47 -107
36 -14 -21 -11 -28 30 -77 83 -99 293 -226 464 -280 172 -55 257 -66 507 -65
256 0 346 12 520 70 170 57 333 156 434 264 36 39 45 54 38 67 -5 10 -11 23
-13 29 -3 8 -48 -10 -119 -46z M1744 5460 c-518 -93 -976 -771 -1111 -1640
-28 -180 -25 -564 5 -729 83 -458 312 -791 667 -969 76 -38 229 -92 261 -92
12 0 14 -115 14 -850 l0 -850 281 0 280 0 -2 847 -1 847 92 27 c402 116 703
449 819 907 41 160 54 288 54 507 0 163 -5 243 -22 355 -86 573 -314 1071
-633 1376 -133 127 -274 212 -413 249 -74 20 -222 27 -291 15z m296 -304 c332
-113 630 -549 760 -1114 l30 -127 0 -431 0 -432 -26 -88 c-14 -49 -38 -118
-53 -154 -40 -96 -138 -236 -219 -312 -78 -73 -136 -110 -292 -184 -74 -36
-123 -67 -167 -108 -76 -70 -131 -143 -139 -184 -4 -17 -12 -33 -20 -36 -12
-5 -14 -111 -14 -661 l0 -655 -45 0 -45 0 0 660 c0 433 -3 660 -10 660 -5 0
-10 9 -10 20 0 11 -4 20 -9 20 -5 0 -12 12 -15 26 -4 14 -46 66 -94 116 -82
85 -94 93 -220 154 -73 35 -158 81 -190 103 -148 101 -282 287 -346 482 -55
171 -58 205 -54 614 5 360 6 373 32 485 84 355 245 696 419 890 126 140 289
244 427 275 87 20 208 12 300 -19z M4675 2823 c-48 -5 -59 -14 -51 -41 14 -42
159 -72 349 -72 103 0 168 25 227 85 l34 35 -260 -2 c-142 -1 -277 -3 -299 -5z
M7680 2796 c25 -20 70 -43 100 -52 30 -9 72 -21 93 -27 48 -13 248 6 307 29
39 16 63 54 45 72 -3 4 -138 9 -298 10 l-292 4 45 -36z M3899 2650 c-98 -36
-251 -115 -364 -188 -356 -232 -591 -543 -677 -899 -20 -83 -21 -119 -25 -660
l-4 -573 1753 0 1753 1 -60 31 c-33 17 -87 43 -120 57 l-60 26 -1512 3 c-1329
2 -1513 4 -1513 17 0 11 -12 15 -45 15 l-45 0 0 530 c0 604 -1 597 80 754 114
222 237 367 444 524 77 58 124 88 304 193 117 68 182 127 182 163 0 14 -3 27
-7 29 -5 3 -42 -7 -84 -23z M8900 2651 c0 -53 48 -92 292 -235 329 -192 530
-402 652 -680 77 -177 76 -165 76 -743 l0 -513 -25 0 c-16 0 -25 -6 -25 -15 0
-13 -172 -15 -1487 -15 -1676 -1 -1574 4 -1743 -77 l-85 -41 1748 -1 1748 -1
-3 578 -4 577 -28 104 c-69 257 -183 447 -388 647 -149 146 -284 242 -478 339
-79 39 -232 105 -245 105 -3 0 -5 -13 -5 -29z"/>
</g>
</svg>
