<?xml version="1.0" standalone="no"?>
<!DOCTYPE svg PUBLIC "-//W3C//DTD SVG 20010904//EN"
 "http://www.w3.org/TR/2001/REC-SVG-20010904/DTD/svg10.dtd">
<svg version="1.0" xmlns="http://www.w3.org/2000/svg"
 width="2048.000000pt" height="2048.000000pt" viewBox="0 0 2048.000000 2048.000000"
 preserveAspectRatio="xMidYMid meet">
<metadata>
Created by potrace 1.13, written by Peter Selinger 2001-2015
</metadata>
<g transform="translate(0.000000,2048.000000) scale(0.192120,-0.192120)"
fill="#000000" stroke="none">
<path d="M4960 10220 c-965 -75 -1802 -385 -2499 -929 -603 -469 -1048 -1110
-1215 -1753 -76 -290 -92 -480 -77 -888 29 -769 126 -1225 294 -1388 84 -81
190 -47 287 93 21 31 464 851 660 1222 36 69 25 64 185 78 294 26 703 132 973
253 200 89 450 247 531 336 14 14 27 26 30 26 3 0 6 -55 6 -122 0 -121 0 -124
35 -187 148 -273 597 -251 1345 66 98 42 378 173 447 211 3 2 9 -23 13 -55 22
-198 95 -318 228 -379 56 -26 72 -28 167 -28 127 1 215 23 380 94 169 74 430
230 604 362 l59 45 49 -19 c158 -60 388 -200 543 -330 404 -341 678 -797 825
-1380 47 -185 64 -221 115 -245 138 -66 338 214 439 612 85 339 130 836 107
1178 -79 1159 -808 2161 -1964 2698 -471 219 -992 353 -1607 415 -183 18 -789
27 -960 14z m710 -300 c368 -21 682 -66 1005 -144 558 -136 1057 -370 1467
-686 147 -114 395 -357 503 -493 258 -328 429 -682 521 -1081 l25 -108 -4
-597 -3 -596 -27 -120 c-52 -237 -73 -295 -106 -295 -25 0 -48 41 -121 216
-99 239 -167 368 -281 540 -199 299 -464 568 -747 757 -122 82 -310 173 -396
192 -119 27 -169 8 -448 -167 -310 -195 -477 -267 -646 -275 l-102 -6 -33 35
c-18 19 -48 66 -67 103 -45 87 -168 216 -234 246 -78 34 -131 20 -460 -125
-482 -213 -870 -305 -1053 -251 l-51 15 -50 104 c-77 158 -197 276 -281 276
-46 0 -129 -40 -298 -141 -331 -199 -648 -309 -1099 -378 -255 -40 -275 -49
-414 -190 l-105 -107 -254 -477 c-140 -262 -267 -490 -283 -507 -58 -64 -93
-25 -127 146 -47 236 -52 351 -49 974 l3 585 32 117 c94 343 269 680 514 989
112 143 397 424 554 549 826 654 1908 967 3115 900z M9520 5840 c0 -35 73
-166 130 -235 102 -123 165 -239 221 -410 22 -66 23 -88 27 -394 3 -322 3
-324 -22 -415 -56 -197 -212 -441 -336 -524 -65 -43 -119 -54 -254 -53 -102 1
-126 -2 -162 -20 -79 -38 -117 -101 -178 -296 -19 -62 -41 -127 -49 -145 -8
-18 -63 -157 -123 -308 -115 -292 -157 -384 -236 -520 -171 -290 -372 -525
-693 -809 -385 -341 -795 -579 -1270 -739 -634 -213 -1351 -256 -2032 -122
-547 108 -1063 338 -1508 673 -496 374 -884 871 -1134 1452 -56 131 -145 382
-183 520 -37 135 -56 178 -102 232 -60 69 -103 84 -237 82 -156 -3 -182 6
-311 109 -133 104 -225 266 -279 487 -16 70 -19 118 -19 376 0 268 2 303 21
379 28 111 71 210 149 345 95 163 170 325 152 325 -4 0 -25 -12 -47 -27 -202
-136 -332 -361 -407 -704 -19 -89 -22 -135 -22 -319 -1 -184 2 -231 21 -325
44 -214 120 -397 223 -533 129 -172 273 -255 440 -254 83 0 181 24 216 53 10
8 14 5 18 -13 60 -313 197 -710 347 -1009 315 -630 817 -1174 1415 -1534 638
-385 1359 -571 2134 -552 432 11 782 71 1175 202 948 316 1730 994 2178 1890
139 279 278 675 327 930 17 89 20 97 33 87 36 -28 136 -54 212 -55 311 -3 574
314 672 808 14 70 18 138 17 305 0 235 -13 323 -74 514 -76 234 -226 443 -377
524 -66 35 -73 37 -73 22z M3579 5316 c-56 -20 -104 -53 -133 -91 -55 -72 -56
-76 -56 -454 l0 -349 28 -53 c33 -63 103 -121 169 -139 54 -16 148 -8 194 15
47 24 106 82 132 130 21 39 22 50 22 400 0 405 3 389 -78 473 -70 72 -187 101
-278 68z M6896 5310 c-58 -23 -119 -78 -149 -135 -21 -39 -22 -50 -22 -400 0
-350 1 -361 22 -400 26 -48 85 -106 132 -130 46 -23 140 -31 194 -15 66 18
136 76 169 139 l28 53 0 347 c-1 376 -2 388 -58 458 -70 89 -211 126 -316 83z
M4956 3924 c-61 -22 -122 -78 -152 -141 -68 -137 -9 -303 131 -369 50 -24 53
-24 395 -24 342 0 345 0 395 24 220 104 205 433 -23 510 -64 22 -686 22 -746
0z M3579 2816 c-121 -43 -189 -138 -189 -264 0 -79 29 -149 81 -199 110 -105
613 -248 1078 -307 288 -37 514 -48 876 -43 618 9 1079 79 1509 227 211 73
282 123 321 223 22 57 17 165 -9 219 -28 58 -91 115 -154 139 -76 28 -141 22
-257 -26 -187 -76 -518 -154 -800 -189 -797 -100 -1672 -23 -2223 194 -109 43
-168 50 -233 26z m306 -323 c55 -19 107 -37 115 -39 53 -15 208 -56 225 -60
11 -3 30 -7 42 -9 12 -2 27 -6 33 -10 18 -11 -6 -29 -27 -20 -10 4 -36 9 -58
11 -22 3 -41 9 -43 14 -2 5 -9 7 -16 4 -7 -3 -57 6 -112 20 -54 14 -101 23
-106 20 -4 -3 -8 0 -8 6 0 7 -6 10 -12 7 -16 -5 -108 21 -125 35 -7 6 -13 7
-13 3 0 -4 -7 -2 -15 5 -8 7 -15 9 -15 6 0 -4 -11 4 -23 16 -16 15 -20 26 -13
30 15 11 53 2 171 -39z m3059 41 c13 -5 13 -8 1 -20 -7 -8 -18 -14 -23 -14 -5
0 -15 -7 -22 -15 -6 -8 -15 -14 -18 -13 -4 1 -20 -5 -37 -12 -16 -7 -42 -13
-57 -14 -16 0 -28 -5 -28 -10 0 -4 -7 -6 -15 -2 -8 3 -15 1 -15 -4 0 -5 -7 -7
-15 -4 -8 4 -15 1 -15 -6 0 -6 -4 -9 -10 -5 -5 3 -46 -4 -91 -15 -45 -12 -88
-19 -95 -16 -8 3 -14 2 -14 -3 0 -11 -67 -24 -81 -15 -13 8 1 23 27 29 10 2
62 15 114 30 52 14 100 27 105 28 6 2 60 19 120 39 61 20 119 39 130 41 11 3
21 5 22 6 1 0 8 -2 17 -5z m-558 -181 c-3 -3 -13 -2 -23 1 -17 7 -17 8 2 22
18 13 20 13 23 -1 2 -9 1 -19 -2 -22z m-2031 -4 c-11 -17 -35 -9 -35 11 0 18
3 19 20 10 11 -6 18 -15 15 -21z m1981 -6 c-3 -3 -13 -2 -23 1 -17 7 -17 8 2
22 18 13 20 13 23 -1 2 -9 1 -19 -2 -22z m-1923 2 c1 -5 -6 -11 -15 -13 -11
-2 -18 3 -18 13 0 17 30 18 33 0z m1877 6 c0 -6 -5 -13 -10 -16 -15 -9 -43 3
-35 15 8 13 45 13 45 1z m-1817 -16 c1 -5 -6 -11 -15 -13 -11 -2 -18 3 -18 13
0 17 30 18 33 0z m1747 0 c0 -8 -6 -15 -14 -15 -17 0 -28 14 -19 24 12 12 33
6 33 -9z m-1676 -4 c3 -5 -1 -12 -10 -15 -22 -9 -24 -8 -24 9 0 16 25 21 34 6z
m1606 -7 c0 -11 -5 -14 -16 -10 -9 3 -18 6 -20 6 -3 0 -2 5 1 10 10 16 35 12
35 -6z m-1537 -9 c1 -5 -6 -11 -15 -13 -11 -2 -18 3 -18 13 0 17 30 18 33 0z
m1467 -1 c0 -11 -5 -14 -16 -10 -9 3 -18 6 -20 6 -3 0 -2 5 1 10 10 16 35 12
35 -6z m-1385 0 c13 -5 14 -8 3 -15 -19 -13 -28 -11 -28 6 0 17 2 18 25 9z
m1295 -9 c0 -17 -2 -18 -25 -9 -13 5 -14 8 -3 15 19 13 28 11 28 -6z m-1195
-1 c13 -5 14 -8 3 -15 -19 -13 -28 -11 -28 6 0 17 2 18 25 9z m1095 -9 c0 -17
-2 -18 -25 -9 -13 5 -14 8 -3 15 19 13 28 11 28 -6z m-962 -4 c10 -6 7 -10
-12 -13 -18 -4 -26 -1 -26 8 0 16 18 18 38 5z m842 -7 c0 -11 -5 -14 -16 -10
-9 3 -21 6 -27 6 -16 0 14 20 31 20 6 0 12 -7 12 -16z m-640 -4 c23 -7 23 -8
3 -9 -12 -1 -28 -4 -37 -7 -11 -4 -16 -1 -16 10 0 17 11 19 50 6z m450 -6 c0
-11 -5 -14 -16 -10 -9 3 -25 6 -37 7 -20 1 -20 2 3 9 39 13 50 11 50 -6z"/>
</g>
</svg>
