<?xml version="1.0" standalone="no"?>
<!DOCTYPE svg PUBLIC "-//W3C//DTD SVG 20010904//EN"
 "http://www.w3.org/TR/2001/REC-SVG-20010904/DTD/svg10.dtd">
<svg version="1.0" xmlns="http://www.w3.org/2000/svg"
 width="2048.000000pt" height="2048.000000pt" viewBox="0 0 2048.000000 2048.000000"
 preserveAspectRatio="xMidYMid meet">
<metadata>
Created by potrace 1.13, written by Peter Selinger 2001-2015
</metadata>
<g transform="translate(0.000000,2048.000000) scale(0.192120,-0.192120)"
fill="#000000" stroke="none">
<path d="M6075 9905 c-358 -40 -728 -151 -1090 -330 -479 -236 -845 -560 -955
-846 -79 -204 -78 -407 1 -642 l40 -119 -15 -72 c-30 -145 -39 -316 -27 -491
6 -90 14 -177 17 -194 5 -24 3 -32 -12 -36 -163 -49 -296 -221 -356 -462 -19
-74 -22 -115 -22 -258 1 -150 4 -181 27 -267 43 -162 130 -312 220 -378 22
-16 64 -39 93 -51 l52 -22 7 -56 c8 -67 54 -280 65 -300 10 -19 24 314 15 364
-13 67 -55 133 -164 255 -22 25 -58 78 -78 119 l-38 74 -3 249 c-3 205 -1 257
12 296 22 66 101 181 200 291 47 51 93 110 103 130 28 56 29 236 3 453 -12 98
-20 183 -18 189 2 6 24 -15 48 -47 116 -153 295 -311 433 -380 l70 -36 -7 27
c-32 128 -58 358 -63 563 -4 164 -9 220 -17 212 -7 -7 -12 -103 -14 -291 -3
-272 -4 -280 -23 -274 -15 5 -19 2 -19 -19 0 -36 -17 -33 -89 15 -133 89 -209
211 -231 374 -5 39 -21 111 -34 160 -24 83 -26 106 -26 297 0 237 6 263 85
373 138 193 475 451 769 591 49 23 76 42 76 53 0 32 355 165 605 227 273 67
534 93 765 74 671 -53 1295 -323 1772 -767 132 -122 225 -227 356 -400 34 -45
124 -148 200 -228 l137 -146 0 -112 c1 -110 1 -114 49 -231 26 -66 60 -162 74
-215 l26 -96 0 -450 1 -450 -29 -85 c-15 -47 -51 -148 -78 -225 -94 -264 -117
-330 -139 -405 -12 -41 -31 -92 -41 -112 -44 -90 -149 -49 -228 89 -23 40 -60
92 -82 115 -37 41 -39 41 -33 16 9 -45 64 -155 142 -285 40 -67 73 -123 73
-126 0 -3 -15 -10 -32 -17 -39 -16 -94 -65 -113 -101 -8 -14 -42 -111 -76
-214 -151 -461 -318 -758 -584 -1037 -100 -105 -135 -162 -135 -222 0 -39 24
-96 40 -96 29 0 264 246 367 385 159 212 319 512 408 760 50 137 118 393 130
485 l8 55 21 -29 c64 -88 195 -240 201 -234 2 2 11 48 20 103 39 247 100 462
229 813 46 125 95 270 110 322 32 117 56 285 56 405 0 287 -92 721 -216 1024
-19 46 -33 86 -30 88 2 3 37 0 76 -6 73 -12 218 -17 226 -8 3 3 -10 15 -28 28
-65 45 -265 209 -385 316 -95 85 -139 133 -203 223 -311 438 -762 797 -1270
1014 -473 201 -990 288 -1425 241z M4735 8143 c64 -60 238 -194 286 -219 25
-13 29 -13 29 0 0 58 -256 261 -344 272 -30 4 -30 3 29 -53z M4821 6947 c-195
-485 -426 -1057 -514 -1272 -88 -214 -160 -401 -160 -415 0 -24 12 -58 111
-310 57 -147 125 -281 130 -258 7 34 -17 256 -31 291 -9 21 -42 56 -87 92 -44
35 -68 61 -62 67 11 11 522 227 522 220 0 -3 -36 -91 -79 -196 -44 -105 -114
-274 -156 -376 l-77 -185 18 -30 c36 -63 142 -223 161 -241 10 -10 45 -55 78
-99 72 -95 291 -318 308 -313 7 2 21 21 31 42 18 37 18 41 2 91 -12 39 -34 72
-82 123 -74 81 -135 115 -234 132 -36 7 -71 15 -78 19 -9 5 14 40 76 117 125
156 1628 1969 1730 2087 46 54 83 100 81 101 -2 2 -101 -18 -219 -45 -118 -28
-291 -67 -385 -89 -93 -21 -171 -37 -173 -35 -2 2 16 30 40 62 25 32 157 218
293 413 137 195 266 379 287 408 l39 53 -53 23 c-110 48 -227 86 -347 111
-239 51 -493 137 -691 234 -63 30 -117 57 -120 58 -3 1 -164 -395 -359 -880z
m699 509 c102 -35 209 -69 238 -76 39 -9 56 -18 62 -34 6 -18 24 -26 89 -41
117 -26 117 -37 6 -220 -130 -215 -158 -269 -197 -385 -42 -124 -46 -186 -18
-247 13 -26 32 -59 42 -72 22 -29 103 -81 126 -81 10 0 27 -6 37 -14 16 -12
17 -17 6 -44 -7 -16 -40 -61 -72 -99 -33 -37 -261 -309 -506 -603 -246 -294
-457 -545 -469 -556 l-23 -22 -6 30 c-8 35 0 102 21 172 21 73 18 158 -7 203
-29 53 -96 121 -143 145 -35 18 -51 20 -123 14 l-83 -7 0 44 c0 33 29 118 115
333 114 288 142 376 230 719 58 225 87 295 203 473 51 78 117 193 147 255 50
104 102 177 129 177 6 0 94 -29 196 -64z M5198 6986 c-100 -28 -176 -107 -199
-210 -7 -31 -10 -119 -7 -226 3 -153 6 -181 24 -221 47 -102 142 -163 254
-163 111 0 200 58 252 163 22 43 23 58 23 251 0 188 -2 209 -21 251 -57 123
-199 191 -326 155z m100 -242 c22 -6 22 -9 22 -163 0 -171 -3 -181 -55 -181
-52 0 -55 10 -55 177 0 150 1 154 23 163 27 11 36 11 65 4z M6960 7460 c-19
-3 -43 -11 -53 -16 -13 -7 46 -14 210 -22 316 -17 442 -45 638 -142 237 -117
400 -291 516 -550 30 -66 34 -84 33 -155 -3 -192 -83 -473 -195 -683 -45 -85
-47 -93 -27 -87 48 15 165 82 222 127 64 52 134 128 117 128 -12 0 -87 -27
-112 -40 -9 -5 -20 -6 -23 -3 -14 15 -4 159 19 263 21 93 25 140 25 265 0 179
-10 218 -91 354 -115 191 -238 313 -420 414 -47 27 -222 85 -329 111 -121 29
-442 51 -530 36z M6846 7365 c-3 -9 -6 -34 -6 -56 0 -23 -5 -39 -12 -39 -6 0
-19 -6 -27 -14 -14 -12 -27 -9 -98 26 -57 27 -93 38 -115 36 l-33 -3 64 -39
c84 -51 200 -143 285 -225 l68 -66 -6 70 c-12 120 -102 355 -120 310z M7417
6986 c-91 -25 -178 -118 -197 -212 -7 -35 -11 -122 -8 -228 3 -154 5 -176 26
-218 26 -52 97 -123 145 -143 131 -54 279 -2 351 125 l31 55 0 215 c0 202 -1
217 -22 256 -35 65 -70 101 -127 129 -64 31 -136 39 -199 21z M6145 5815 c-5
-2 -22 -6 -38 -9 -34 -8 -103 -69 -124 -110 -43 -82 -8 -202 75 -261 l44 -30
261 -3 c298 -3 322 1 381 69 87 102 63 249 -52 316 l-47 28 -245 2 c-135 1
-249 1 -255 -2z M7237 4816 c-22 -8 -49 -23 -60 -34 -48 -45 -220 -97 -412
-124 -123 -18 -638 -17 -765 0 -203 29 -321 63 -424 126 -70 42 -125 47 -186
16 -80 -41 -119 -137 -91 -223 34 -101 224 -198 495 -252 177 -35 333 -47 586
-47 335 0 585 31 785 98 216 72 308 152 308 269 0 123 -124 212 -236 171z
M3006 4749 c-98 -24 -222 -82 -301 -141 -42 -31 -74 -47 -104 -51 -39 -5 -55
-16 -133 -94 -127 -125 -138 -151 -92 -218 l25 -37 -20 -88 c-39 -164 -25
-351 37 -499 17 -39 29 -71 28 -71 -1 0 -27 25 -58 55 -63 61 -142 92 -201 80
-91 -19 -84 -12 -908 -945 -479 -543 -807 -923 -827 -958 -139 -246 -73 -511
166 -663 101 -64 230 -84 346 -54 109 29 186 78 341 221 l145 135 0 -546 0
-545 250 0 251 0 -1 771 -1 772 493 451 c376 344 498 462 516 496 48 95 17
211 -78 292 -43 38 -53 55 -20 38 12 -6 67 -26 123 -45 56 -19 92 -34 80 -35
-56 -1 -21 -20 102 -53 74 -21 141 -40 150 -43 26 -10 7 20 -25 39 -16 10 -62
26 -101 36 l-72 18 124 6 c77 3 149 13 190 24 l66 19 27 -23 c19 -16 40 -23
68 -23 39 0 47 6 146 103 95 95 105 108 107 145 3 30 14 54 45 93 50 63 99
159 128 249 152 473 -129 975 -611 1090 -110 27 -291 26 -401 -1z m266 -806
c291 -291 528 -533 528 -538 0 -6 -28 -27 -62 -48 -35 -20 -81 -50 -103 -65
-22 -16 -73 -51 -113 -78 l-73 -48 -464 464 c-256 256 -465 469 -465 473 0 5
18 29 39 55 22 26 53 76 70 111 17 36 35 67 39 70 4 4 20 34 36 69 16 34 32
62 35 62 3 0 243 -237 533 -527z m104 507 c43 -11 108 -35 144 -53 78 -39 185
-142 220 -212 24 -47 25 -61 28 -239 2 -126 -1 -198 -8 -217 -11 -25 -14 -27
-43 -17 -35 12 -643 609 -678 665 -25 40 -17 71 19 79 15 3 32 7 37 9 36 12
210 3 281 -15z m-686 -736 c41 -28 280 -267 296 -297 19 -35 6 -50 -54 -66
-68 -19 -179 -118 -220 -196 -17 -32 -22 -62 -24 -152 l-3 -112 -40 -42 c-22
-23 -173 -161 -335 -307 -162 -146 -326 -297 -363 -335 -125 -127 -237 -288
-237 -340 0 -9 -4 -19 -10 -22 -6 -4 -10 -77 -10 -187 0 -175 -1 -180 -20
-175 -17 4 -20 0 -20 -25 0 -30 -1 -29 -85 51 -47 45 -97 86 -111 91 -69 27
-142 -3 -309 -125 -122 -89 -200 -127 -271 -133 -69 -6 -142 19 -185 64 -33
34 -34 39 -37 122 -4 87 -4 88 35 144 33 50 1100 1268 1361 1555 115 127 146
143 266 143 56 0 97 5 114 14 31 17 110 97 136 140 18 29 64 144 73 184 6 26
20 28 53 6z M4890 3835 c-169 -28 -356 -66 -490 -102 -166 -43 -341 -104 -347
-119 -8 -22 48 -96 88 -116 58 -30 156 -24 341 22 221 55 484 102 525 94 23
-4 33 -12 33 -24 0 -10 9 -22 20 -25 19 -6 20 -15 20 -253 0 -136 5 -265 11
-287 5 -22 19 -83 30 -135 59 -276 155 -532 315 -839 90 -171 169 -300 319
-521 138 -204 165 -250 165 -283 0 -54 -38 -33 -195 104 -748 656 -1397 1128
-1940 1410 -156 81 -397 189 -423 189 -19 0 -242 -140 -239 -150 1 -5 -25 -28
-59 -52 -103 -73 -114 -85 -130 -132 -20 -58 -8 -79 42 -73 81 11 128 69 142
177 5 33 11 63 14 66 11 10 216 -77 418 -177 438 -216 883 -480 1467 -871 516
-345 1158 -814 1291 -941 l72 -70 73 69 c112 108 650 505 1127 831 755 517
1468 930 1925 1117 l110 45 12 -74 c18 -118 29 -132 207 -280 89 -73 170 -143
182 -156 19 -23 35 -65 49 -134 7 -35 46 -115 55 -115 4 0 44 50 91 111 l84
112 -111 106 c-120 115 -325 282 -462 375 -48 32 -87 64 -87 69 0 6 -53 43
-118 83 l-118 72 -157 -70 c-615 -271 -1303 -750 -2186 -1520 -170 -149 -216
-176 -216 -128 0 40 44 112 262 425 239 345 439 770 519 1104 40 164 49 265
49 525 0 240 1 252 20 264 11 7 20 18 20 26 0 45 142 33 465 -40 214 -49 460
-126 660 -209 111 -46 472 -228 501 -252 12 -10 29 -40 39 -66 10 -26 21 -50
25 -52 4 -2 52 9 107 25 55 15 129 34 164 41 35 6 67 15 71 18 10 8 -191 156
-329 244 -144 90 -434 232 -613 301 -272 103 -569 182 -870 230 -222 36 -205
38 -280 -20 -36 -28 -86 -65 -112 -83 l-48 -32 0 -324 c0 -178 -5 -359 -11
-402 -51 -370 -290 -881 -726 -1553 -145 -224 -362 -545 -371 -548 -8 -2 -387
563 -504 753 -309 498 -506 924 -579 1246 -19 84 -22 133 -26 465 l-5 371 -31
18 c-17 10 -68 47 -114 82 -46 35 -84 63 -85 62 -2 0 -68 -11 -148 -24z M5351
3608 c19 -69 193 -210 354 -288 190 -93 382 -130 675 -130 293 0 484 37 676
130 162 78 343 226 358 293 4 16 3 27 -1 24 -118 -66 -361 -165 -493 -201
-486 -131 -973 -85 -1437 139 -75 36 -137 65 -139 65 -1 0 2 -14 7 -32z M2490
2260 c-12 -7 -7 -18 24 -65 21 -30 43 -58 48 -61 13 -9 36 25 44 65 6 28 3 38
-16 53 -24 19 -75 24 -100 8z M2547 2028 c-15 -40 -36 -109 -48 -152 -51 -189
-51 -201 -56 -893 l-4 -653 3891 0 3891 0 -4 653 c-3 527 -7 667 -19 732 -17
90 -64 270 -76 290 -5 10 -19 -3 -46 -43 -51 -73 -972 -1330 -1088 -1484 -48
-64 -92 -119 -98 -123 -6 -4 -44 25 -85 64 -52 49 -86 73 -115 81 -29 8 -366
10 -1166 8 -936 -2 -1126 -5 -1133 -17 -7 -11 -9 -11 -13 0 -7 21 -2230 21
-2301 0 -33 -10 -69 -33 -119 -78 -39 -35 -76 -62 -82 -60 -6 2 -46 50 -89
108 -97 127 -1096 1490 -1157 1577 -24 34 -47 62 -51 62 -3 0 -18 -33 -32 -72z
m500 -967 c151 -204 276 -385 279 -401 5 -22 2 -31 -14 -39 -14 -7 -119 -11
-306 -11 l-286 0 0 418 c0 230 3 422 7 425 16 16 62 -40 320 -392z m6873 -96
l0 -355 -231 0 c-237 0 -269 5 -269 39 0 27 475 671 495 671 3 0 5 -160 5
-355z"/>
</g>
</svg>
