<?xml version="1.0" standalone="no"?>
<!DOCTYPE svg PUBLIC "-//W3C//DTD SVG 20010904//EN"
 "http://www.w3.org/TR/2001/REC-SVG-20010904/DTD/svg10.dtd">
<svg version="1.0" xmlns="http://www.w3.org/2000/svg"
 width="2048.000000pt" height="2048.000000pt" viewBox="0 0 2048.000000 2048.000000"
 preserveAspectRatio="xMidYMid meet">
<metadata>
Created by potrace 1.13, written by Peter Selinger 2001-2015
</metadata>
<g transform="translate(0.000000,2048.000000) scale(0.192120,-0.192120)"
fill="#000000" stroke="none">
<path d="M1320 10324 c-274 -42 -463 -131 -640 -301 -169 -160 -265 -330 -328
-573 -15 -60 -16 -319 -20 -3225 -2 -2309 0 -3185 8 -3253 15 -125 42 -218 96
-331 148 -313 391 -515 742 -614 76 -21 91 -22 975 -27 l897 -5 -26 -39 c-45
-65 -110 -206 -139 -296 -50 -161 -55 -230 -55 -802 l0 -528 3610 0 3610 0 0
538 c0 435 -3 555 -15 632 -92 563 -614 1054 -1325 1245 -51 13 -95 26 -97 29
-4 3 16 84 23 94 1 2 51 -4 111 -14 134 -21 253 -15 338 17 105 39 196 149
251 302 43 120 83 396 104 717 29 440 36 2199 11 2450 -76 738 -307 1340 -704
1833 l-87 108 0 523 c0 582 -3 620 -64 792 -127 354 -429 620 -806 711 -71 17
-232 18 -3260 19 -1752 1 -3196 0 -3210 -2z m6300 -214 c126 -12 236 -42 332
-91 106 -52 150 -84 248 -175 98 -93 156 -173 197 -274 69 -166 73 -199 83
-620 8 -316 12 -375 29 -440 11 -41 19 -76 17 -77 -1 -2 -50 38 -107 88 -120
105 -220 182 -227 175 -9 -10 38 -73 103 -136 85 -83 118 -130 156 -226 44
-110 88 -188 182 -322 183 -260 214 -313 327 -557 28 -59 162 -486 184 -584
25 -109 36 -303 20 -344 -4 -11 -32 12 -98 78 -115 114 -202 162 -312 172 -93
7 -159 -8 -261 -63 -102 -55 -134 -56 -223 -9 -232 124 -307 157 -471 204
-161 47 -321 70 -584 86 -132 8 -280 21 -330 30 -236 41 -541 137 -860 272
-78 33 -192 81 -230 98 -222 97 -284 114 -352 96 -72 -20 -144 -79 -415 -342
-297 -289 -366 -352 -456 -416 -84 -61 -117 -64 -222 -23 -99 37 -194 48 -271
30 -227 -54 -391 -266 -450 -582 -30 -161 -40 -198 -60 -217 -17 -15 -25 -16
-100 -2 l-82 15 6 196 c9 277 56 597 133 890 102 390 320 824 571 1135 465
577 1131 973 1873 1114 245 46 584 53 815 16 438 -69 916 -254 1240 -479 33
-23 66 -46 73 -50 12 -7 13 39 10 270 -5 304 -6 313 -73 444 -36 71 -144 177
-221 217 -129 68 147 63 -3319 63 -3456 0 -3182 5 -3315 -62 -129 -65 -244
-214 -279 -361 -8 -35 -11 -882 -11 -3185 0 -2796 1 -3143 15 -3196 40 -152
154 -289 297 -356 46 -21 113 -44 148 -49 43 -7 454 -11 1196 -11 l1132 0 113
54 c279 133 591 210 908 223 131 5 153 4 146 -8 -5 -8 -26 -40 -46 -72 -93
-144 -79 -295 82 -877 146 -525 191 -625 325 -708 50 -32 97 -41 109 -22 3 5
88 65 188 133 100 68 282 194 405 280 122 87 230 161 239 164 14 5 12 -1 -6
-31 -91 -147 -92 -238 -3 -285 22 -12 22 -14 22 -235 l0 -224 -54 -30 c-75
-43 -96 -82 -96 -182 0 -43 4 -81 9 -85 5 -3 12 -19 16 -35 4 -17 10 -30 15
-30 4 0 10 -8 12 -17 5 -17 -68 -18 -1446 -15 -934 1 -1452 6 -1454 12 -2 6
-24 10 -48 10 l-45 0 3 503 3 502 64 170 c34 94 67 178 72 187 5 10 9 36 9 58
0 44 8 55 153 209 49 52 98 108 108 125 22 36 26 96 5 96 -38 0 -254 -192
-364 -323 l-66 -79 -24 48 c-29 58 -58 92 -92 107 -18 8 -259 14 -815 18 -873
6 -852 5 -1021 73 -250 101 -454 323 -533 580 l-21 68 0 3252 c0 2946 2 3257
16 3307 25 86 101 230 158 302 150 189 375 310 623 336 111 12 6155 13 6273 1z
m-1852 -576 c61 -6 72 -10 72 -25 0 -14 -7 -19 -25 -19 -14 0 -25 -4 -25 -8 0
-5 -19 -14 -42 -20 -41 -10 -96 -29 -278 -94 -314 -113 -639 -286 -908 -485
-295 -217 -586 -529 -806 -861 -69 -104 -95 -129 -120 -115 -33 19 -236 224
-236 239 0 9 29 66 64 128 35 61 81 156 102 211 l39 100 0 165 0 165 -36 81
c-44 98 -77 147 -160 238 -75 82 -151 139 -227 173 -32 13 -69 31 -84 39 -14
8 -54 17 -87 20 -34 4 -61 11 -61 15 0 5 -20 9 -45 9 -25 0 -45 -4 -45 -9 0
-4 -24 -11 -52 -14 -66 -6 -244 -88 -313 -144 -159 -128 -247 -246 -324 -436
-18 -46 -14 -259 6 -304 43 -94 137 -206 215 -257 33 -21 42 -45 29 -77 -5
-13 -53 -82 -106 -154 -54 -71 -113 -161 -131 -200 -30 -60 -34 -80 -34 -146
0 -53 6 -91 19 -121 27 -62 103 -160 172 -220 38 -32 59 -59 59 -72 0 -12 -32
-64 -72 -116 -75 -100 -136 -207 -156 -276 -7 -24 -12 -106 -12 -197 0 -115
-3 -156 -12 -160 -7 -2 -43 3 -80 11 -53 13 -68 20 -68 34 0 10 -7 18 -15 18
-9 0 -15 9 -15 23 0 52 -68 164 -149 247 -92 93 -148 123 -227 122 -74 -1
-125 -31 -224 -131 -85 -85 -150 -186 -150 -232 0 -12 -8 -23 -20 -26 -11 -3
-20 -13 -20 -23 0 -17 -19 -30 -43 -30 -36 0 -37 51 -37 1407 0 1325 0 1328
21 1362 54 89 162 147 299 161 85 9 4253 12 4348 4z m1787 -3 c125 -13 197
-42 262 -107 l53 -53 0 -105 c0 -58 -4 -106 -8 -106 -5 0 -69 28 -143 63 -223
103 -423 180 -619 238 -19 6 -39 15 -44 20 -6 5 -18 9 -28 9 -11 0 -18 7 -18
19 0 16 8 21 43 24 86 7 415 6 502 -2z m-4481 -352 c192 -59 316 -226 318
-427 1 -197 -91 -356 -426 -737 l-105 -120 242 -5 c265 -5 282 -9 317 -65 26
-42 27 -119 1 -161 -39 -63 -44 -64 -513 -64 -394 0 -426 2 -465 19 -25 12
-48 32 -57 50 -20 39 -20 104 0 142 8 17 93 119 187 227 232 265 262 302 344
412 126 170 157 265 113 354 -32 67 -71 91 -147 91 -99 0 -143 -45 -190 -194
-36 -114 -78 -161 -147 -161 -167 0 -216 176 -107 385 69 134 225 248 371 274
73 13 186 5 264 -20z m2512 -1830 c301 -170 707 -338 1020 -424 197 -54 329
-75 549 -85 251 -13 360 -25 504 -56 270 -60 510 -172 681 -318 l55 -47 19 28
c44 63 136 142 191 162 228 85 446 -93 536 -438 26 -100 36 -318 19 -432 -27
-186 -97 -344 -202 -451 -88 -91 -193 -128 -298 -105 l-35 7 -23 -97 c-90
-378 -276 -781 -499 -1080 -171 -229 -415 -463 -610 -584 -32 -20 -33 -23 -33
-88 l0 -67 48 45 c28 26 74 56 108 70 140 56 208 106 360 262 290 297 491 632
655 1089 33 91 66 180 75 199 23 51 76 111 100 111 11 0 57 18 102 40 91 44
202 144 256 233 17 26 34 47 38 47 12 0 10 -1674 -2 -1767 -37 -270 -74 -411
-126 -472 -54 -63 -86 -73 -259 -81 -138 -7 -155 -10 -215 -38 -83 -39 -138
-51 -209 -46 -65 5 -60 2 89 -49 l95 -32 -4 -45 c-1 -25 -5 -47 -7 -49 -2 -2
-63 4 -136 13 -73 9 -190 20 -260 24 l-126 7 24 60 c14 33 28 80 31 105 l5 45
-143 53 c-157 57 -489 165 -494 160 -4 -5 -11 -358 -7 -358 7 0 102 72 210
157 57 46 110 83 118 83 43 0 128 -98 191 -221 35 -68 38 -80 37 -154 -1 -48
-14 -141 -33 -233 -109 -520 -345 -1322 -390 -1322 -4 0 -67 64 -139 143 -192
209 -437 430 -677 611 -179 135 -303 216 -331 216 -45 0 -361 -228 -604 -436
-134 -115 -437 -416 -494 -491 -31 -41 -43 -50 -53 -41 -71 58 -369 1132 -422
1521 -11 78 -11 79 23 151 63 137 159 256 207 256 12 0 47 -22 78 -48 82 -70
228 -182 238 -182 4 0 7 81 5 181 -2 148 -5 180 -17 176 -7 -3 -94 -31 -192
-63 -98 -31 -261 -88 -363 -126 -505 -191 -825 -267 -962 -229 -274 77 -434
623 -488 1666 -5 105 -10 268 -10 363 0 162 1 172 19 172 10 0 42 7 70 16 38
13 54 24 63 45 7 15 16 25 20 23 4 -3 8 27 8 65 0 39 -4 71 -8 71 -5 0 -14 11
-20 24 -11 24 -83 56 -128 56 -12 0 -25 7 -28 16 -9 22 -7 257 2 270 4 7 33
15 65 19 31 4 60 11 63 16 9 16 60 9 78 -10 9 -10 35 -71 56 -135 47 -136 102
-252 139 -293 52 -57 138 -119 224 -162 108 -53 125 -76 187 -253 106 -305
217 -534 366 -758 114 -172 186 -262 323 -403 140 -144 224 -206 351 -262 66
-29 119 -60 143 -82 l37 -37 0 57 0 56 -82 55 c-281 187 -542 466 -735 784
-160 264 -301 620 -367 924 -6 25 -9 27 -69 26 -34 0 -82 7 -106 16 -138 50
-260 215 -319 435 -23 85 -26 115 -26 271 0 151 3 187 23 265 49 195 160 362
283 431 48 26 62 29 143 29 108 0 148 -17 236 -102 l57 -55 114 93 c225 185
278 233 588 538 173 171 315 310 316 310 0 1 50 -27 110 -60z m-2547 -104
c139 -33 254 -125 314 -252 27 -58 32 -82 35 -164 9 -206 -80 -369 -394 -725
-74 -84 -134 -154 -134 -156 0 -2 107 -3 238 -3 307 0 289 10 282 -151 l-5
-119 -40 -13 c-30 -10 -135 -12 -450 -10 -389 3 -412 4 -444 23 -19 11 -43 32
-53 46 -24 32 -27 103 -5 144 8 17 91 116 183 220 448 509 525 638 465 770
-36 81 -110 117 -193 94 -62 -16 -101 -63 -133 -161 -53 -158 -80 -190 -166
-190 -90 0 -149 55 -157 145 -17 212 159 439 391 502 69 18 187 18 266 0z
m-1359 -464 c45 -32 50 -54 50 -248 l0 -183 183 0 c165 0 185 -2 215 -20 61
-37 79 -133 37 -196 -30 -46 -68 -54 -260 -54 l-175 0 0 -180 c0 -200 -6 -227
-60 -255 -37 -19 -103 -19 -140 0 -57 29 -60 42 -60 247 l0 188 -177 0 c-203
0 -235 9 -265 70 -34 68 -15 144 45 180 29 18 51 20 215 20 l182 0 0 190 0
190 28 31 c43 49 127 58 182 20z m-455 -1067 c4 -46 5 -90 2 -97 -3 -8 -25
-19 -50 -25 -24 -7 -52 -14 -61 -18 -14 -5 -16 7 -16 118 l0 125 59 -10 59
-10 7 -83z m895 78 c0 -16 7 -37 15 -48 9 -11 14 -42 15 -76 l0 -58 -89 0
c-54 0 -93 4 -97 11 -3 6 -3 48 1 94 l7 83 56 10 c91 15 92 15 92 -16z m1260
-546 c0 -51 3 -114 6 -140 l7 -46 -1118 0 c-1238 0 -1162 -4 -1205 65 -24 40
-26 106 -3 145 9 15 32 37 52 49 36 20 39 21 1149 21 l1112 0 0 -94z m-2200
-457 c19 -5 481 -9 1027 -9 l991 0 6 -117 c4 -65 13 -221 21 -348 46 -706 147
-1143 330 -1425 19 -30 38 -63 41 -74 15 -48 44 -47 -1131 -44 l-1100 3 -56
23 c-77 31 -131 72 -171 129 l-33 48 -3 918 -2 918 22 -7 c13 -4 39 -11 58
-15z m7200 -2103 c58 -16 115 -41 180 -81 52 -32 147 -78 210 -102 153 -59
335 -148 445 -218 293 -186 499 -446 582 -735 l27 -95 4 -418 c3 -416 3 -417
-17 -417 -17 0 -21 -6 -21 -35 l0 -35 -1402 0 c-861 0 -1430 -4 -1473 -10 -66
-9 -145 -37 -145 -51 0 -4 -11 -14 -25 -23 l-25 -16 0 39 c0 36 3 40 38 54 49
20 76 51 96 111 39 119 2 218 -101 270 l-33 17 0 224 0 224 29 16 c81 41 81
137 1 267 -16 26 -26 48 -22 48 4 0 88 -57 187 -127 189 -133 493 -339 607
-411 90 -57 108 -56 197 16 89 72 132 169 236 532 59 202 157 596 195 780 43
211 60 224 230 176z m-1811 -860 c53 -27 90 -66 124 -130 34 -64 31 -174 -8
-244 -126 -230 -462 -182 -515 74 -24 113 29 231 129 291 29 17 65 34 80 37
54 9 141 -4 190 -28z m-22 -822 c54 -19 119 -83 146 -142 16 -34 21 -66 21
-117 -2 -292 -392 -381 -520 -118 -111 226 110 463 353 377z m-432 -470 c6 0
18 -2 28 -2 13 -2 17 -11 17 -37 0 -19 -4 -35 -8 -35 -12 0 -72 67 -72 80 0 6
5 8 13 3 6 -4 17 -8 22 -9z M5444 6060 c-83 -19 -155 -95 -175 -184 -18 -81
-8 -332 15 -376 46 -89 119 -134 217 -135 56 0 73 4 114 30 27 17 63 50 80 74
l30 43 3 189 3 189 -28 51 c-33 61 -75 95 -139 115 -51 15 -72 16 -120 4z
M7325 6061 c-69 -17 -125 -62 -161 -131 -17 -30 -19 -59 -19 -215 0 -196 4
-214 64 -278 110 -119 309 -89 377 56 22 49 24 63 24 223 0 162 -1 172 -25
221 -49 98 -157 149 -260 124z M6124 4876 c-32 -32 -34 -38 -34 -99 0 -67 18
-104 61 -127 12 -7 124 -11 290 -11 293 0 299 1 335 56 12 19 15 41 12 91 -4
60 -7 70 -36 95 l-32 29 -281 0 -281 0 -34 -34z M5774 4341 c-100 -45 -135
-163 -80 -269 35 -68 231 -186 382 -231 247 -73 546 -63 778 27 172 67 303
170 324 255 43 168 -147 300 -289 201 -129 -90 -206 -124 -334 -144 -184 -30
-398 10 -522 97 -126 87 -178 101 -259 64z M7261 3299 c-139 -66 -308 -124
-461 -157 -117 -25 -142 -27 -375 -27 -236 0 -257 2 -378 28 -146 32 -312 87
-439 146 -49 22 -88 38 -88 35 0 -2 11 -22 25 -44 14 -22 25 -48 25 -58 0 -54
197 -171 383 -226 135 -41 243 -57 417 -63 347 -12 630 54 840 195 75 51 86
61 94 97 5 22 22 59 38 83 16 23 28 42 26 41 -2 0 -50 -23 -107 -50z M5490
2860 c85 -67 785 -557 828 -579 21 -11 22 -10 22 20 0 67 -33 109 -158 200
-185 136 -411 285 -520 341 -62 32 -83 38 -135 38 l-62 0 25 -20z M7295 2871
c-22 -4 -59 -17 -82 -29 -87 -45 -373 -237 -551 -370 -96 -71 -137 -136 -116
-183 9 -19 27 -8 219 123 242 166 543 377 598 421 55 42 32 55 -68 38z"/>
</g>
</svg>
