<?xml version="1.0" standalone="no"?>
<!DOCTYPE svg PUBLIC "-//W3C//DTD SVG 20010904//EN"
 "http://www.w3.org/TR/2001/REC-SVG-20010904/DTD/svg10.dtd">
<svg version="1.0" xmlns="http://www.w3.org/2000/svg"
 width="2048.000000pt" height="2048.000000pt" viewBox="0 0 2048.000000 2048.000000"
 preserveAspectRatio="xMidYMid meet">
<metadata>
Created by potrace 1.13, written by Peter Selinger 2001-2015
</metadata>
<g transform="translate(0.000000,2048.000000) scale(0.192120,-0.192120)"
fill="#000000" stroke="none">
<path d="M5120 9914 c-383 -33 -587 -72 -855 -164 -145 -50 -407 -177 -530
-257 -540 -354 -883 -908 -946 -1533 -21 -206 1 -544 51 -782 55 -265 175
-466 265 -444 38 10 54 44 90 193 113 464 321 844 624 1136 67 64 127 117 133
117 6 0 41 -24 77 -53 261 -211 511 -367 660 -411 114 -34 201 -13 236 55 22
41 29 123 17 177 -5 23 -7 42 -3 42 4 0 38 -32 76 -71 149 -152 356 -325 470
-393 83 -51 129 -62 162 -40 25 16 26 19 20 93 -5 82 -50 217 -113 344 -19 37
-32 67 -29 67 3 0 33 -23 67 -50 220 -178 739 -306 1328 -328 l175 -7 211
-415 c231 -455 263 -504 327 -504 145 0 239 400 241 1029 1 224 -1 262 -22
364 -161 794 -828 1471 -1702 1725 -249 73 -481 106 -775 111 -115 1 -230 1
-255 -1z m625 -274 c422 -63 792 -208 1110 -435 332 -237 593 -565 718 -900
57 -155 57 -149 57 -729 l0 -536 -25 -6 c-47 -12 -57 3 -231 338 -128 247
-167 303 -245 353 -54 35 -99 44 -311 60 -454 35 -660 79 -1075 229 -75 27
-143 33 -186 17 -41 -16 -87 -92 -87 -143 0 -49 -12 -69 -52 -86 -26 -11 -33
-7 -129 71 -187 151 -244 187 -299 187 -44 0 -65 -13 -152 -96 -54 -51 -85
-74 -102 -74 -77 0 -250 94 -486 262 -173 122 -228 151 -290 152 -154 3 -420
-260 -622 -614 -72 -125 -141 -269 -179 -372 -32 -88 -67 -148 -85 -148 -15 0
-30 37 -49 120 -12 52 -15 143 -15 450 0 375 1 387 24 480 79 307 235 571 477
805 128 125 192 175 329 262 327 207 725 331 1205 373 167 15 540 4 700 -20z
M2805 7063 c-117 -113 -191 -317 -202 -554 -16 -340 114 -644 315 -741 37 -17
69 -33 71 -34 2 -2 12 -56 22 -120 76 -464 274 -936 544 -1297 140 -186 338
-388 494 -504 l64 -47 23 28 c54 62 16 133 -169 313 -75 73 -171 176 -214 230
-77 96 -213 291 -213 304 0 3 -22 45 -50 92 -133 232 -234 511 -305 842 -30
140 -34 152 -75 212 -21 32 -83 103 -137 158 -72 73 -108 119 -133 169 l-35
70 -3 300 c-3 281 -1 311 22 456 14 85 24 156 22 157 -2 2 -20 -13 -41 -34z
M7845 7035 c3 -22 12 -85 21 -140 12 -76 14 -166 12 -385 l-3 -285 -43 -82
c-32 -63 -68 -110 -150 -196 -119 -126 -161 -193 -185 -302 -8 -38 -21 -95
-28 -125 -16 -73 -124 -384 -188 -542 -28 -69 -51 -129 -51 -133 0 -3 -22 -53
-49 -109 -96 -202 -221 -366 -441 -576 -229 -218 -276 -297 -216 -367 l24 -27
73 55 c151 114 330 295 461 466 277 361 490 857 563 1309 9 54 18 108 20 120
3 13 22 28 59 43 146 60 271 252 317 486 9 44 14 130 13 230 -1 137 -5 174
-26 255 -32 121 -91 241 -146 299 l-43 46 6 -40z M4132 6982 c-71 -26 -118
-66 -156 -132 l-31 -55 0 -215 0 -215 31 -55 c114 -203 392 -192 496 19 22 43
23 58 23 251 0 188 -2 209 -21 250 -62 131 -212 198 -342 152z M6368 6987
c-77 -22 -143 -80 -181 -157 -20 -42 -22 -59 -22 -250 0 -232 7 -260 80 -332
135 -134 345 -104 439 62 l31 55 0 215 c0 202 -1 217 -22 256 -35 65 -70 101
-127 129 -64 31 -136 39 -198 22z M5074 5811 c-78 -20 -142 -88 -159 -169 -17
-81 37 -182 118 -221 40 -20 60 -21 297 -21 237 0 257 1 297 21 56 27 99 80
113 140 21 88 -18 179 -98 226 l-47 28 -245 2 c-135 1 -259 -2 -276 -6z M6187
4815 c-22 -7 -49 -22 -60 -33 -50 -46 -220 -96 -417 -124 -127 -17 -642 -18
-765 0 -198 28 -334 71 -440 138 -82 52 -201 15 -247 -77 -22 -41 -23 -120 -4
-158 51 -97 230 -183 491 -236 174 -35 330 -47 585 -47 255 0 411 12 585 47
206 41 357 101 436 172 52 47 70 83 71 143 0 85 -47 151 -131 179 -43 14 -57
13 -104 -4z M4005 3649 c-312 -45 -579 -188 -817 -438 l-103 -108 -115 -6
c-307 -15 -641 -147 -905 -357 -94 -75 -228 -216 -305 -320 -127 -172 -241
-429 -284 -640 -31 -155 -36 -274 -36 -860 l0 -590 3890 0 3890 0 0 590 c0
721 -7 801 -90 1051 -191 575 -693 1008 -1287 1109 -63 11 -148 20 -188 20
l-73 0 -35 48 c-93 126 -294 291 -452 370 -153 76 -358 129 -538 139 l-118 6
1 -283 1 -283 -29 -31 c-16 -17 -265 -326 -553 -686 -287 -360 -526 -655 -529
-655 -3 0 -242 295 -529 655 -288 360 -537 669 -553 686 l-29 31 1 282 1 281
-78 -1 c-43 -1 -105 -5 -138 -10z m-278 -421 c-3 -8 -6 -5 -6 6 -1 11 2 17 5
13 3 -3 4 -12 1 -19z m-20 -10 c-3 -8 -6 -5 -6 6 -1 11 2 17 5 13 3 -3 4 -12
1 -19z m-17 -1 c0 -7 -17 -27 -37 -43 -76 -59 -175 -155 -258 -249 -51 -58
-154 -222 -224 -356 -84 -160 -103 -182 -157 -177 -39 3 -39 4 -42 48 -5 75
69 231 168 355 51 63 267 265 360 336 48 36 161 97 183 99 4 0 7 -6 7 -13z
m3459 -64 c53 -36 197 -165 272 -241 19 -21 69 -82 111 -138 93 -124 177 -201
271 -250 294 -153 450 -372 552 -772 19 -76 25 -123 25 -214 l0 -118 -31 0
c-56 0 -76 36 -124 225 -83 328 -170 500 -344 674 -127 128 -250 177 -421 168
-201 -10 -347 -101 -512 -319 -84 -111 -160 -298 -224 -548 -40 -161 -63 -200
-117 -200 l-29 0 5 148 c4 128 9 160 36 252 92 300 197 465 401 625 125 98
188 166 230 248 43 84 39 140 -17 242 -41 75 -224 281 -237 267 -3 -3 -6 2 -6
11 0 15 5 15 52 -3 29 -11 77 -37 107 -57z m-2947 -48 c3 -3 -2 -35 -10 -71
-18 -83 -6 -148 42 -222 19 -28 139 -183 267 -344 252 -316 319 -403 319 -414
0 -8 90 -127 130 -174 95 -110 145 -160 207 -210 84 -68 147 -95 197 -86 52
10 146 78 227 164 116 124 838 1031 870 1094 33 65 37 122 15 205 -8 29 -10
55 -6 58 13 8 175 -12 245 -30 107 -27 235 -98 319 -176 42 -39 85 -84 96
-100 l21 -28 -75 -35 c-370 -170 -624 -607 -720 -1236 -15 -95 -46 -397 -46
-441 0 -13 -10 -20 -35 -25 -44 -8 -125 -59 -125 -79 0 -8 -4 -15 -10 -15 -6
0 -10 -33 -10 -77 0 -59 6 -96 27 -154 29 -83 27 -104 -13 -119 -17 -7 -448
-9 -1249 -8 -1293 3 -1255 2 -1255 47 0 9 22 53 50 99 60 100 100 190 134 303
24 78 26 99 26 270 0 146 -4 198 -19 254 -46 177 -169 383 -279 471 -79 62
-143 80 -241 66 -42 -6 -78 -9 -80 -6 -8 8 29 142 65 237 175 458 460 732 809
776 93 11 101 12 107 6z m-1202 -126 c-104 -160 -212 -392 -286 -614 -36 -110
-67 -201 -68 -203 -2 -1 -34 12 -71 29 -95 45 -147 48 -216 14 -207 -105 -354
-253 -459 -463 -80 -161 -85 -188 -85 -442 l0 -225 31 -85 c35 -97 77 -182
134 -276 22 -35 40 -75 40 -89 0 -34 -47 -45 -202 -45 l-128 0 0 565 c0 372 4
582 11 617 30 146 112 340 185 439 19 26 34 50 34 54 0 15 62 95 129 167 91
97 188 176 293 238 46 27 89 54 96 60 13 11 188 100 197 100 2 0 57 35 122 77
127 83 296 183 301 178 2 -1 -25 -45 -58 -96z m4962 -88 c221 -93 374 -189
528 -329 213 -193 360 -414 445 -667 53 -156 55 -188 55 -731 0 -497 0 -504
-20 -504 -17 0 -20 -7 -20 -40 l0 -40 -52 1 c-115 2 -126 21 -84 139 25 69 37
210 18 210 -4 0 -13 14 -21 31 -13 29 -59 57 -132 82 -13 4 -17 28 -23 119
-53 860 -362 1450 -844 1612 -63 22 -64 22 -91 86 -15 36 -46 97 -69 137 -23
39 -42 74 -42 77 0 2 52 -26 115 -63 63 -38 170 -92 237 -120z m-298 -660 c74
-36 166 -128 218 -217 112 -192 194 -524 214 -865 l7 -116 -57 -23 c-35 -14
-68 -36 -86 -59 -27 -32 -30 -42 -30 -108 0 -55 6 -89 26 -137 14 -36 24 -73
22 -83 -8 -40 -34 -43 -489 -43 -240 0 -451 3 -468 6 -44 9 -48 39 -17 127 27
76 37 207 16 207 -5 0 -10 6 -10 13 0 21 -40 54 -94 78 l-49 21 6 137 c21 447
159 857 340 1005 130 107 305 129 451 57z m-4744 -102 c202 -25 366 -104 501
-241 157 -159 238 -359 239 -585 0 -235 -90 -446 -260 -606 -411 -388 -1082
-260 -1324 254 -59 125 -71 184 -71 359 1 148 2 159 33 250 63 184 181 337
337 439 118 77 246 120 405 135 19 1 40 4 45 4 6 1 49 -3 95 -9z m3775 -993
c167 -79 214 -294 93 -431 -113 -129 -303 -129 -416 0 -156 177 -28 455 208
455 48 0 78 -7 115 -24z m1813 -2 c173 -86 206 -334 60 -458 -150 -129 -396
-57 -449 132 -37 133 43 293 169 338 64 23 161 18 220 -12z M2680 1910 c-234
-37 -426 -235 -476 -489 -45 -229 52 -488 230 -620 237 -176 555 -176 792 0
179 132 275 392 230 619 -48 241 -197 404 -428 471 -83 23 -259 33 -348 19z
m324 -79 c83 -29 142 -66 209 -130 113 -107 171 -241 170 -396 0 -157 -52
-284 -163 -395 -110 -110 -232 -160 -390 -160 -155 0 -282 52 -390 160 -112
112 -164 238 -163 400 0 160 56 285 177 397 75 70 141 107 238 133 92 25 224
21 312 -9z M4356 3592 c4 -9 9 -31 12 -49 10 -71 247 -226 438 -286 171 -54
237 -62 529 -61 241 0 281 2 372 22 215 47 382 126 534 254 33 28 48 49 51 71
3 18 8 40 12 49 6 14 -13 8 -81 -23 -203 -95 -428 -163 -623 -190 -120 -17
-417 -17 -535 -1 -194 27 -397 88 -598 178 -87 39 -117 49 -111 36z"/>
</g>
</svg>
