<?xml version="1.0" standalone="no"?>
<!DOCTYPE svg PUBLIC "-//W3C//DTD SVG 20010904//EN"
 "http://www.w3.org/TR/2001/REC-SVG-20010904/DTD/svg10.dtd">
<svg version="1.0" xmlns="http://www.w3.org/2000/svg"
 width="2048.000000pt" height="2048.000000pt" viewBox="0 0 2048.000000 2048.000000"
 preserveAspectRatio="xMidYMid meet">
<metadata>
Created by potrace 1.13, written by Peter Selinger 2001-2015
</metadata>
<g transform="translate(0.000000,2048.000000) scale(0.192120,-0.192120)"
fill="#000000" stroke="none">
<path d="M6230 9630 c-610 -36 -1283 -313 -1778 -733 -219 -186 -460 -466
-610 -707 -229 -368 -408 -836 -481 -1255 -23 -133 -99 -318 -282 -683 -95
-190 -112 -231 -95 -226 46 14 175 87 254 144 l82 59 0 -332 c0 -353 -10 -594
-36 -904 -9 -106 -14 -198 -12 -205 2 -6 36 19 75 58 80 79 97 118 113 255 15
128 12 591 -5 784 -20 230 -28 267 -76 360 -30 57 -42 92 -41 121 0 27 28 111
80 245 89 226 84 212 146 469 49 206 80 297 168 510 173 416 367 710 657 1001
358 358 787 610 1282 753 256 73 445 100 704 100 281 0 507 -40 803 -139 523
-177 943 -460 1310 -884 69 -80 209 -228 310 -329 l184 -183 -6 -44 c-3 -25
-9 -65 -12 -90 -7 -51 16 -136 73 -275 57 -136 81 -213 118 -379 74 -337 95
-590 95 -1172 0 -524 28 -978 86 -1398 14 -103 19 -415 8 -458 -7 -26 0 -27
-163 18 -58 16 -115 36 -127 44 -12 8 -34 39 -47 69 -34 73 -103 141 -159 156
-24 7 -68 10 -98 7 -53 -6 -225 -52 -374 -102 -39 -12 -98 -30 -131 -39 -66
-18 -238 -87 -232 -93 2 -2 75 -15 162 -28 l159 -25 180 56 c100 30 228 73
285 95 58 21 106 37 108 35 8 -7 -80 -126 -139 -189 l-64 -67 36 -9 c19 -5 89
-21 155 -36 158 -36 437 -115 601 -171 73 -24 134 -44 137 -44 2 0 -2 26 -9
58 -57 238 -119 620 -153 932 -46 421 -53 546 -61 1185 -5 347 -11 646 -14
665 -3 19 -10 80 -16 135 -37 335 -128 695 -246 972 -24 57 -44 104 -44 106 0
2 30 -2 68 -9 91 -18 272 -30 272 -18 0 6 -37 37 -82 71 -46 34 -135 106 -199
160 -258 219 -362 319 -442 423 -145 188 -370 407 -585 569 -440 333 -1059
573 -1562 606 -173 11 -208 12 -330 5z M4980 7284 c-113 -112 -250 -241 -305
-286 -54 -46 -141 -118 -192 -160 l-92 -77 -55 57 c-151 158 -338 154 -492
-10 -137 -146 -199 -341 -198 -613 1 -139 4 -173 27 -259 40 -148 97 -256 182
-342 85 -86 154 -118 248 -112 l58 3 9 -35 c4 -19 18 -73 30 -120 73 -294 234
-653 410 -915 117 -175 283 -362 439 -496 l63 -55 -133 -17 c-243 -29 -565
-100 -785 -171 -59 -19 -110 -33 -112 -31 -2 2 1 27 7 55 16 73 14 226 -4 312
-64 303 -279 543 -575 639 -78 26 -117 32 -216 37 -206 8 -359 -34 -522 -145
-53 -35 -104 -63 -118 -63 -14 0 -37 -6 -52 -14 -41 -21 -198 -189 -204 -217
-6 -34 8 -82 31 -103 16 -15 18 -23 10 -44 -21 -53 -39 -175 -39 -258 0 -104
21 -209 60 -305 l30 -72 -55 52 c-66 62 -112 84 -182 83 -58 0 -112 -22 -152
-62 -98 -99 -1573 -1783 -1602 -1830 -56 -90 -74 -159 -74 -276 0 -96 2 -103
39 -178 52 -106 136 -190 242 -242 75 -37 82 -39 178 -39 177 0 265 44 468
236 68 64 127 115 131 115 5 -1 8 -225 7 -498 l-1 -498 251 0 250 0 0 733 1
732 232 211 c579 527 744 680 764 710 32 46 44 109 32 163 -13 60 -24 77 -86
143 l-55 56 78 -30 c89 -34 190 -58 252 -58 24 0 90 -17 155 -41 181 -67 175
-57 66 -119 -351 -200 -656 -414 -761 -533 -31 -35 -74 -73 -95 -83 -21 -11
-54 -32 -75 -48 l-36 -30 20 -50 c30 -79 138 -281 211 -398 l67 -106 0 -626 0
-626 3613 0 3612 0 -3 623 -2 623 53 84 c117 187 252 447 245 474 -3 14 -109
111 -213 196 -182 148 -466 338 -744 495 l-103 59 43 19 c91 39 277 99 369
120 53 12 96 27 97 32 1 13 -189 153 -319 235 -449 282 -1104 501 -1685 562
-62 7 -113 15 -113 18 0 3 25 25 56 50 76 61 246 238 325 340 217 279 402 646
513 1019 l16 53 -48 -44 c-26 -24 -68 -58 -94 -76 -50 -34 -189 -104 -195 -98
-2 2 18 46 46 97 89 170 154 374 185 590 9 59 16 129 16 156 0 124 -61 371
-129 516 -79 172 -219 342 -360 437 -120 81 -295 156 -430 185 l-33 7 32 -47
c72 -104 140 -298 140 -399 l0 -39 -77 74 c-174 168 -403 311 -663 414 -91 36
-105 39 -310 56 -343 29 -600 71 -875 144 -146 38 -367 113 -464 156 -35 16
-67 28 -70 28 -3 -1 -98 -93 -211 -205z m465 -94 c243 -69 541 -131 635 -131
30 0 88 7 129 16 41 8 76 13 78 11 6 -6 -224 -343 -407 -596 -68 -94 -68 -90
2 -74 56 13 420 95 618 140 41 9 80 21 85 26 7 6 -1 19 -22 38 -44 40 -100 46
-247 28 -163 -21 -178 -8 -107 98 47 70 104 130 146 151 29 16 137 14 293 -4
44 -5 52 -3 52 11 0 21 24 20 106 -5 90 -28 207 -82 329 -154 198 -116 421
-235 457 -245 48 -14 75 0 170 85 95 86 113 86 190 8 98 -101 191 -258 234
-398 16 -50 19 -92 19 -250 l0 -190 -77 -224 c-70 -201 -78 -231 -78 -298 0
-79 9 -105 63 -180 41 -58 39 -101 -12 -201 -107 -215 -214 -369 -380 -547
-142 -151 -203 -229 -240 -302 -39 -79 -40 -118 -2 -168 16 -22 27 -44 24 -51
-6 -17 120 -119 183 -149 29 -14 136 -41 260 -65 400 -79 431 -89 844 -273
308 -137 326 -146 340 -172 10 -19 9 -27 -10 -53 -35 -47 -144 -124 -283 -202
-575 -317 -1131 -724 -1992 -1458 -234 -200 -287 -250 -279 -263 5 -9 -59 -65
-115 -101 -51 -32 -104 -37 -141 -11 -68 45 -130 97 -130 108 0 7 -7 15 -15
19 -8 3 -14 10 -13 15 3 10 -134 130 -512 446 -508 423 -821 663 -1187 908
-321 215 -743 457 -797 457 -66 0 -105 35 -593 521 -266 266 -489 492 -494
501 -7 14 -2 26 25 55 35 39 86 127 86 148 0 7 9 20 20 30 11 10 20 22 20 28
0 5 14 34 31 64 l32 55 534 -533 c294 -294 543 -546 552 -562 17 -26 19 -26
34 -10 32 37 126 195 143 243 10 27 21 50 25 50 3 0 17 -16 30 -34 58 -85 137
-95 315 -41 64 20 213 54 331 76 271 51 307 63 411 140 33 25 52 47 52 60 0
11 11 35 25 53 61 80 16 176 -192 415 -77 88 -92 118 -76 154 6 12 89 117 184
233 96 117 219 269 274 339 116 147 296 368 306 375 9 7 315 373 359 430 19
25 86 108 149 185 299 365 337 417 365 499 11 31 14 61 10 80 l-7 31 -46 -51
c-25 -28 -316 -376 -646 -775 -1102 -1331 -1137 -1372 -1145 -1358 -4 8 -15
48 -25 89 -22 93 -59 149 -124 187 l-50 29 98 244 c54 135 110 271 124 303 14
31 23 57 20 57 -3 0 -92 -36 -197 -79 -105 -44 -204 -83 -219 -87 -28 -6 -28
-6 -22 30 12 63 -3 124 -41 166 l-35 39 81 203 c45 112 101 253 125 313 70
181 351 876 438 1083 58 141 86 196 101 203 199 81 185 81 401 19z m-785 -552
c0 -32 -27 -104 -178 -483 -163 -411 -186 -460 -218 -481 -24 -16 -28 -15
-127 31 -128 59 -157 81 -195 148 -57 101 -64 144 -60 380 l3 213 33 66 c21
43 47 78 74 100 37 29 49 33 103 33 50 0 74 -7 150 -43 130 -63 169 -65 271
-13 45 23 87 48 94 56 19 23 50 19 50 -7z m-1176 -2266 c178 -65 309 -198 338
-342 5 -25 12 -103 14 -175 3 -71 9 -139 14 -150 8 -18 12 -35 26 -106 7 -32
-16 -53 -48 -44 -32 10 -734 711 -754 753 -15 32 -15 35 2 53 44 42 302 50
408 11z m-756 -736 c15 -8 89 -77 165 -154 169 -171 169 -172 46 -225 -49 -21
-156 -122 -181 -171 -16 -31 -22 -68 -27 -156 -5 -82 -12 -122 -23 -139 -21
-29 -173 -171 -403 -376 -327 -290 -433 -401 -509 -532 -20 -34 -36 -70 -36
-81 0 -11 -7 -25 -15 -32 -12 -10 -15 -45 -15 -192 0 -175 -1 -180 -20 -175
-17 4 -20 0 -20 -26 0 -30 -1 -29 -83 51 -85 82 -117 102 -165 102 -42 0 -138
-51 -252 -134 -129 -94 -191 -126 -264 -133 -76 -8 -139 12 -187 57 l-39 37 0
100 0 101 38 50 c50 67 1344 1534 1407 1596 71 69 120 89 205 83 84 -6 126 11
190 75 51 52 98 135 126 225 10 35 23 63 27 63 4 0 20 -6 35 -14z m1024 -864
c229 -117 335 -179 606 -359 498 -331 1221 -918 1657 -1346 53 -52 49 -50 -35
20 -163 137 -497 402 -685 544 -596 449 -1010 716 -1555 1002 -69 36 -135 77
-148 90 -19 20 -51 108 -52 140 0 15 24 5 212 -91z m5438 38 c-18 -94 -5 -83
-295 -237 -643 -340 -1391 -864 -2175 -1521 l-65 -54 67 64 c763 725 1580
1347 2212 1683 110 59 258 127 263 121 2 -1 -1 -27 -7 -56z m-5713 -186 c561
-239 1317 -702 2165 -1327 250 -184 575 -435 665 -514 l62 -54 178 144 c566
455 1338 994 1898 1324 413 244 949 505 975 476 4 -4 15 -32 25 -61 23 -72 59
-110 180 -193 57 -38 113 -79 126 -92 13 -12 68 -56 122 -97 132 -99 151 -122
144 -177 -2 -24 -33 -102 -68 -175 -57 -118 -64 -140 -64 -193 0 -50 5 -67 29
-103 26 -38 28 -46 17 -69 -31 -68 -245 -347 -419 -547 -122 -139 -447 -467
-541 -545 l-63 -52 -63 60 c-34 33 -75 64 -91 68 -16 4 -557 8 -1202 8 l-1172
0 -2 90 -2 90 -3 -90 -4 -90 -1163 3 c-866 3 -1175 0 -1207 -8 -31 -9 -60 -29
-102 -71 -70 -70 -47 -79 -236 94 -272 249 -616 642 -801 915 l-63 92 38 57
c56 85 50 124 -49 330 -48 100 -78 175 -79 197 -1 49 54 103 178 173 321 180
385 228 405 303 23 84 28 93 55 86 14 -4 73 -27 132 -52z m-334 -1910 c61 -68
43 -104 -52 -104 -35 0 -39 3 -45 31 -8 40 -8 107 0 136 l6 23 27 -23 c15 -12
43 -41 64 -63z m6537 -15 l0 -92 -50 5 c-58 6 -82 22 -72 48 6 17 109 130 118
130 2 0 4 -41 4 -91z M5351 6356 c-48 -17 -108 -71 -133 -119 -18 -36 -22 -64
-26 -182 -5 -170 7 -239 51 -297 111 -146 342 -111 409 62 16 42 10 365 -8
408 -45 108 -182 168 -293 128z M7231 6356 c-48 -17 -108 -71 -133 -119 -19
-37 -23 -62 -26 -193 -5 -190 8 -244 73 -309 113 -113 299 -84 369 57 25 50
26 59 26 225 0 123 -4 183 -13 206 -48 112 -184 174 -296 133z M6082 5204
c-44 -23 -62 -61 -62 -135 0 -56 3 -64 34 -95 l34 -34 271 0 c299 0 317 3 346
60 8 16 15 54 15 85 0 49 -4 59 -34 93 l-34 37 -269 3 c-233 2 -272 0 -301
-14z M5695 4711 c-50 -24 -86 -56 -114 -101 -18 -30 -21 -50 -21 -135 0 -92 2
-104 29 -151 74 -129 246 -226 488 -276 128 -26 386 -31 517 -9 233 38 453
157 526 285 27 47 30 59 30 149 0 86 -3 102 -24 136 -33 52 -92 99 -141 112
-78 22 -144 2 -330 -98 -92 -50 -277 -73 -420 -53 -85 12 -208 55 -245 86 -8
7 -44 26 -80 43 -78 37 -153 41 -215 12z m192 -77 c23 -13 45 -29 49 -35 13
-21 167 -88 241 -105 56 -12 107 -15 211 -12 164 6 264 34 361 101 94 65 122
77 173 77 84 0 144 -38 179 -115 62 -135 -51 -269 -316 -376 -129 -51 -248
-72 -420 -73 -214 -1 -359 30 -527 114 -78 39 -189 120 -212 154 -48 74 -42
166 16 232 68 77 153 90 245 38z M7316 3671 c-3 -4 -56 -33 -118 -64 -534
-262 -1148 -263 -1675 -1 l-123 60 0 -26 c0 -48 160 -184 314 -266 209 -111
518 -162 815 -135 320 30 539 120 737 304 68 64 84 84 84 108 0 28 -22 41 -34
20z M4345 4245 c-5 -2 -22 -6 -36 -9 -15 -3 -43 -23 -63 -43 -38 -38 -82 -111
-73 -120 3 -2 92 9 199 26 106 17 211 34 233 37 106 14 106 13 43 45 -98 50
-250 82 -303 64z"/>
</g>
</svg>
