<?xml version="1.0" standalone="no"?>
<!DOCTYPE svg PUBLIC "-//W3C//DTD SVG 20010904//EN"
 "http://www.w3.org/TR/2001/REC-SVG-20010904/DTD/svg10.dtd">
<svg version="1.0" xmlns="http://www.w3.org/2000/svg"
 width="2048.000000pt" height="2048.000000pt" viewBox="0 0 2048.000000 2048.000000"
 preserveAspectRatio="xMidYMid meet">
<metadata>
Created by potrace 1.13, written by Peter Selinger 2001-2015
</metadata>
<g transform="translate(0.000000,2048.000000) scale(0.192120,-0.192120)"
fill="#000000" stroke="none">
<path d="M4550 10324 c-677 -65 -1261 -521 -1483 -1161 -65 -187 -104 -431
-94 -591 9 -153 99 -288 266 -401 130 -88 362 -185 571 -239 l75 -19 5 -479
c6 -498 14 -610 59 -796 l17 -74 -57 -63 c-231 -250 -265 -780 -71 -1100 66
-109 154 -184 255 -215 11 -3 17 -15 17 -34 0 -47 38 -238 75 -380 163 -618
529 -1185 982 -1520 l63 -47 0 -319 c0 -299 1 -318 18 -311 9 4 31 11 48 16
17 5 45 25 63 45 33 36 33 36 28 122 -2 48 -11 116 -20 152 -8 36 -13 67 -12
68 2 2 36 -21 77 -51 303 -226 705 -324 1182 -288 335 25 584 109 815 273 52
37 96 66 98 64 2 -2 -3 -32 -12 -67 -20 -87 -20 -237 1 -267 16 -24 60 -49
106 -63 l28 -8 0 314 0 314 119 95 c501 403 867 1048 985 1738 13 75 27 141
30 146 3 6 19 13 35 17 47 10 135 80 184 145 60 79 104 173 135 290 23 84 26
115 26 270 1 150 -3 188 -22 265 -29 116 -98 257 -157 323 -33 36 -45 57 -41
70 4 10 13 79 22 153 12 100 17 269 21 669 l5 535 76 19 c114 28 295 92 399
141 238 112 377 243 425 398 18 62 20 86 15 206 -34 808 -629 1480 -1442 1627
-152 27 -444 26 -591 -4 -153 -30 -338 -92 -470 -156 l-110 -55 -116 58 c-476
239 -1047 239 -1520 1 l-96 -48 -74 38 c-144 75 -300 127 -498 165 -83 16
-350 27 -440 19z m493 -158 c-261 -158 -394 -289 -522 -511 -94 -164 -171
-393 -157 -467 8 -46 59 -96 105 -104 45 -9 108 13 133 46 10 14 30 66 44 115
30 107 105 267 165 356 62 93 171 197 279 269 103 67 279 159 375 195 54 21
61 21 82 8 39 -26 131 -17 252 22 391 128 868 125 1249 -6 149 -51 188 -56
251 -33 47 17 51 17 98 -1 26 -10 98 -43 158 -73 357 -181 521 -369 639 -732
36 -111 45 -127 75 -147 93 -62 211 4 211 117 0 56 -65 250 -120 361 -125 250
-272 404 -545 574 -60 37 -112 70 -115 73 -13 12 663 -29 786 -48 79 -12 216
-50 224 -62 4 -4 32 -17 64 -28 32 -11 107 -45 166 -76 309 -163 550 -410 692
-712 98 -207 108 -260 108 -594 l0 -246 -41 -52 c-79 -100 -257 -203 -489
-284 -173 -61 -213 -91 -226 -173 l-6 -41 -77 -21 c-70 -19 -231 -51 -406 -82
l-70 -12 65 -25 c55 -21 82 -25 178 -25 61 0 112 -4 112 -8 0 -5 9 -9 19 -9
11 0 23 -9 26 -20 3 -11 11 -20 16 -20 5 0 9 -94 9 -230 0 -126 4 -230 9 -230
5 0 11 -22 13 -49 3 -35 18 -71 46 -118 l40 -68 -39 -17 c-55 -24 -258 -73
-429 -103 -80 -14 -167 -30 -195 -35 -79 -15 -442 -58 -640 -75 -637 -54
-1576 -60 -2240 -14 -300 20 -841 82 -950 109 -22 5 -90 19 -151 30 -156 29
-384 90 -384 103 0 2 20 39 45 83 31 55 45 90 45 116 0 21 5 38 10 38 6 0 10
84 10 231 0 222 1 231 20 236 12 3 20 14 20 25 0 17 5 20 30 15 16 -4 32 -2
35 3 4 6 16 8 28 5 39 -10 147 -12 147 -3 0 4 8 8 18 8 9 0 39 11 65 24 l48
23 -78 13 c-131 21 -355 67 -414 84 -56 16 -57 18 -63 59 -12 78 -53 108 -232
172 -256 92 -426 194 -505 303 l-40 57 3 235 c4 223 5 240 32 325 55 181 178
411 299 562 161 201 396 374 652 478 214 88 270 100 545 121 113 8 239 19 280
23 41 5 111 9 155 10 l79 1 -121 -74z m-531 -3355 c106 -92 253 -119 703 -125
133 -2 245 -9 305 -20 186 -31 378 -40 915 -40 537 1 740 9 924 40 63 10 181
18 341 20 381 7 472 24 568 106 19 16 39 27 45 25 6 -2 81 -140 167 -307 168
-328 204 -380 262 -380 69 1 125 86 174 268 10 34 19 60 21 58 2 -2 13 -52 24
-112 15 -88 19 -153 19 -361 0 -230 -2 -259 -21 -315 -27 -82 -94 -184 -182
-277 -121 -128 -152 -185 -197 -363 -76 -304 -280 -829 -387 -997 -113 -177
-231 -310 -438 -493 -104 -92 -180 -182 -216 -256 -17 -35 -20 -55 -16 -98 5
-52 4 -55 -26 -78 -126 -94 -432 -215 -657 -260 -259 -52 -568 -49 -836 8
-196 42 -477 155 -612 248 l-43 29 7 50 c6 43 2 58 -26 116 -34 69 -141 186
-286 312 -40 34 -91 87 -115 117 -24 31 -66 83 -92 117 -251 316 -443 761
-538 1247 -19 96 -68 170 -200 306 -80 81 -106 116 -136 180 l-38 79 -3 265
c-4 263 -2 287 35 498 l17 93 22 -58 c58 -157 143 -273 198 -273 63 0 70 13
115 200 16 69 44 168 61 220 33 97 94 240 104 240 3 0 20 -13 38 -29z m4194
-338 c-3 -7 -10 -13 -16 -13 -15 0 -76 99 -91 148 -15 53 -5 66 61 79 l45 9 3
-105 c1 -58 0 -111 -2 -118z M8260 7783 c-63 -8 -124 -16 -135 -18 -20 -4 -20
-11 -17 -301 3 -327 5 -338 65 -374 20 -13 50 -20 80 -20 40 0 53 5 83 33 22
20 38 47 44 72 11 48 13 626 3 624 -5 -1 -60 -8 -123 -16z M4498 7478 c4 -343
6 -352 65 -388 20 -13 50 -20 81 -20 43 0 53 4 86 38 l37 37 5 305 c3 168 5
306 4 307 -2 3 -246 33 -266 33 -13 0 -15 -37 -12 -312z M4869 7730 c19 -12
40 -28 48 -36 8 -8 23 -14 33 -14 10 0 20 -6 22 -12 8 -23 164 -16 231 11 31
12 57 26 57 30 0 4 -73 13 -162 20 -90 6 -185 14 -213 17 l-50 6 34 -22z
M7825 7734 c-77 -7 -158 -13 -180 -14 l-40 -1 59 -30 c51 -27 71 -31 144 -32
61 -2 87 2 89 11 3 6 12 12 20 12 14 0 113 59 113 67 0 5 -49 2 -205 -13z
M5330 7391 c0 -290 2 -330 18 -361 50 -100 204 -94 246 10 13 34 16 89 16 349
l0 310 -52 5 c-29 3 -92 7 -140 9 l-88 3 0 -325z M7395 7711 l-120 -6 0 -327
c0 -314 1 -328 21 -354 36 -49 69 -67 120 -66 52 0 89 22 116 68 15 26 17 68
19 359 1 315 0 330 -17 331 -11 0 -73 -2 -139 -5z M5684 7688 c10 -7 35 -24
55 -38 35 -24 41 -25 206 -25 l170 0 65 32 65 31 -250 1 c-137 1 -268 4 -290
7 -35 4 -38 3 -21 -8z M6870 7690 l-235 -5 74 -34 73 -33 159 4 c108 2 163 8
167 16 4 6 24 18 44 26 56 24 56 36 1 34 -26 -1 -154 -5 -283 -8z M6300 7370
c0 -346 2 -362 53 -409 38 -35 114 -40 160 -12 65 40 67 51 67 415 l0 326
-140 0 -140 0 0 -320z M5234 6424 c-58 -21 -120 -77 -152 -138 -27 -51 -27
-52 -27 -261 0 -178 3 -216 18 -247 24 -53 72 -104 126 -136 40 -24 57 -27
131 -27 74 0 91 3 131 27 54 32 102 83 126 136 15 31 18 69 18 247 0 209 0
210 -27 261 -66 126 -213 185 -344 138z M7464 6428 c-60 -20 -127 -80 -159
-143 l-30 -59 0 -200 c0 -200 0 -201 28 -258 50 -102 142 -158 256 -158 107 1
213 76 251 178 17 46 20 78 20 236 0 211 -8 249 -72 321 -56 63 -107 87 -193
91 -38 2 -84 -2 -101 -8z M6160 5249 c-145 -58 -180 -242 -66 -347 25 -23 57
-45 73 -49 15 -4 143 -8 283 -8 l255 0 47 28 c113 66 138 211 55 312 -58 70
-79 75 -367 74 -143 0 -266 -5 -280 -10z M5515 4265 c-5 -2 -22 -6 -37 -9 -37
-8 -98 -63 -114 -103 -21 -49 -17 -112 9 -158 62 -110 308 -207 637 -251 168
-23 655 -26 820 -6 297 37 531 112 635 203 85 75 94 183 22 266 -71 81 -162
84 -266 8 -116 -85 -525 -145 -891 -131 -338 14 -547 56 -690 141 -51 31 -102
47 -125 40z M1719 5455 c-592 -118 -1109 -1050 -1109 -1997 0 -402 88 -718
271 -978 146 -208 386 -374 627 -436 l72 -18 0 -848 0 -848 280 0 280 0 0 848
0 847 83 22 c103 29 282 117 368 182 490 372 646 1134 408 1984 -145 518 -446
970 -765 1150 -171 96 -341 127 -515 92z m254 -280 c246 -52 476 -273 647
-620 77 -158 115 -260 168 -455 l37 -135 0 -480 0 -480 -27 -76 c-81 -230
-195 -392 -353 -505 -27 -19 -111 -65 -185 -101 -122 -60 -142 -73 -215 -147
-76 -76 -115 -134 -115 -169 0 -8 -7 -17 -15 -21 -13 -5 -15 -87 -15 -661 l0
-655 -45 0 -45 0 0 660 c0 433 -3 660 -10 660 -5 0 -10 9 -10 19 0 11 -3 21
-7 23 -5 2 -17 20 -27 41 -11 21 -57 74 -103 118 -65 62 -102 89 -161 115
-134 61 -162 75 -215 112 -203 139 -331 336 -397 612 -18 77 -20 119 -20 441
0 312 2 368 20 465 87 474 316 906 591 1112 163 121 330 164 502 127z M4020
2539 c-639 -82 -1165 -506 -1374 -1106 -77 -222 -96 -383 -96 -804 l0 -299
1873 1 1872 1 -92 44 c-162 79 -40 74 -1820 74 -1409 0 -1593 2 -1593 15 0 11
-12 15 -46 15 l-45 0 3 373 4 372 27 90 c140 451 485 832 902 994 238 93 363
111 795 111 384 0 396 2 503 84 l60 46 -454 -1 c-250 -1 -483 -5 -519 -10z
M5132 2423 c138 -217 1222 -1954 1264 -2025 21 -37 41 -68 44 -68 3 0 14 15
24 32 19 34 1308 2096 1347 2156 l21 32 -91 0 c-88 0 -91 -1 -91 -22 -1 -112
-172 -238 -410 -302 -239 -64 -470 -90 -805 -89 -677 0 -1163 151 -1199 373
l-6 40 -90 0 -90 0 82 -127z m764 -503 c350 -53 779 -51 1127 6 63 10 102 13
108 7 7 -7 4 -26 -7 -54 -21 -53 -606 -992 -642 -1031 -34 -37 -53 -35 -93 7
-28 28 -501 772 -580 910 -65 115 -75 138 -70 168 1 10 13 9 157 -13z M7920
2530 c47 -39 125 -80 153 -80 16 0 38 -6 50 -12 16 -10 124 -15 392 -19 328
-5 381 -8 468 -27 296 -65 549 -196 752 -390 196 -188 317 -381 412 -657 l38
-110 3 -377 c3 -376 3 -378 -17 -378 -12 0 -21 -7 -21 -15 0 -13 -184 -15
-1597 -15 -1062 0 -1620 -4 -1662 -11 -76 -12 -160 -39 -245 -79 l-61 -28
1873 -1 1874 -1 -5 378 c-5 408 -10 453 -67 650 -79 271 -218 502 -430 712
-131 131 -257 221 -425 304 -144 71 -271 116 -421 148 -91 19 -136 21 -594 25
l-495 4 25 -21z"/>
</g>
</svg>
