<?xml version="1.0" standalone="no"?>
<!DOCTYPE svg PUBLIC "-//W3C//DTD SVG 20010904//EN"
 "http://www.w3.org/TR/2001/REC-SVG-20010904/DTD/svg10.dtd">
<svg version="1.0" xmlns="http://www.w3.org/2000/svg"
 width="2048.000000pt" height="2048.000000pt" viewBox="0 0 2048.000000 2048.000000"
 preserveAspectRatio="xMidYMid meet">
<metadata>
Created by potrace 1.13, written by Peter Selinger 2001-2015
</metadata>
<g transform="translate(0.000000,2048.000000) scale(0.192120,-0.192120)"
fill="#000000" stroke="none">
<path d="M4985 10319 c-993 -63 -1907 -414 -2453 -944 -266 -256 -422 -514
-498 -819 -35 -137 -43 -376 -20 -521 44 -266 194 -571 381 -773 l64 -69 -28
-95 c-63 -209 -116 -489 -142 -753 -6 -60 -13 -345 -16 -632 -15 -1522 84
-2370 316 -2712 88 -130 166 -168 321 -157 171 12 334 56 725 196 127 46 329
116 450 155 l220 73 2 63 3 64 -73 45 c-106 66 -254 187 -363 297 -454 459
-737 1093 -819 1833 -28 250 -15 402 46 561 63 163 156 269 419 479 85 68 241
207 345 309 105 102 240 234 301 294 l111 109 142 -11 142 -11 107 -54 c233
-117 537 -238 755 -301 249 -73 416 -100 667 -110 377 -14 622 -70 880 -201
319 -163 512 -387 597 -696 33 -119 19 -377 -38 -668 -96 -497 -283 -923 -569
-1300 -126 -165 -333 -368 -483 -473 -131 -91 -125 -83 -132 -163 l-7 -70 139
-43 c76 -24 287 -97 468 -161 516 -184 635 -215 840 -214 158 0 215 18 299 94
163 149 228 461 256 1226 17 449 18 1975 2 2144 -26 269 -63 476 -128 718
l-36 132 77 88 c207 237 346 517 391 790 23 142 14 382 -20 517 -77 308 -234
566 -504 827 -486 469 -1259 797 -2142 907 -312 39 -677 50 -995 30z m820
-298 c428 -58 843 -183 1260 -381 281 -133 620 -344 843 -523 l62 -50 0 -458
c0 -252 -3 -464 -6 -472 -4 -12 -24 -2 -86 44 -45 32 -96 61 -115 65 -18 3
-33 10 -33 15 0 5 -352 9 -829 9 -785 0 -919 4 -943 28 -15 15 2 36 62 81 135
101 222 216 261 343 26 85 28 424 3 509 -32 108 -110 200 -211 246 -44 21 -78
27 -177 33 -117 6 -126 9 -221 52 -157 72 -202 83 -345 83 -144 0 -188 -11
-345 -83 -96 -44 -105 -46 -221 -53 -144 -7 -202 -29 -277 -103 -99 -98 -117
-163 -117 -424 0 -230 9 -272 80 -392 49 -81 84 -120 183 -199 42 -34 77 -69
77 -76 0 -39 -14 -40 -922 -43 -483 -1 -878 -6 -878 -11 0 -5 -12 -12 -27 -16
-14 -3 -38 -15 -52 -26 -127 -97 -129 -98 -135 -83 -3 9 -6 222 -6 473 l0 458
103 80 c302 237 704 465 1087 616 402 159 720 234 1195 281 22 2 162 2 310 1
199 -3 309 -9 420 -24z m-294 -555 c72 -25 158 -78 202 -124 l28 -29 82 30
c104 37 192 42 234 12 38 -28 80 -116 93 -195 5 -36 10 -124 10 -195 0 -203
-34 -299 -144 -403 -126 -120 -342 -174 -686 -174 -344 0 -560 54 -686 174
-110 104 -144 200 -144 403 0 71 5 159 10 195 13 79 55 167 93 195 42 30 130
25 234 -12 l82 -30 28 29 c62 65 188 130 285 147 77 14 202 4 279 -23z m2726
-645 c34 -45 79 -141 102 -215 19 -62 21 -92 21 -321 0 -212 -2 -255 -15 -265
-9 -8 -15 -8 -15 -2 0 15 -93 153 -119 176 -21 19 -21 25 -21 342 0 346 0 349
47 285z m-5816 -656 c-16 -18 -39 -51 -52 -74 -12 -23 -26 -41 -30 -41 -4 0
-9 -9 -12 -20 -7 -29 -33 -15 -41 22 -3 17 -6 125 -6 241 0 185 3 218 21 281
24 80 67 169 113 236 l31 45 3 -329 2 -328 -29 -33z m5608 -73 c99 -50 105
-177 12 -239 l-34 -23 -2677 0 -2677 0 -34 23 c-93 62 -87 189 12 239 32 17
182 18 2699 18 2517 0 2667 -1 2699 -18z m-5559 -343 c41 -17 75 -23 133 -23
48 -1 76 -5 73 -11 -2 -5 -40 -89 -83 -185 -44 -96 -84 -186 -90 -200 -9 -22
-14 -7 -43 115 -18 77 -46 176 -61 220 -16 44 -29 97 -29 118 l0 38 23 -24
c12 -13 47 -35 77 -48z m5820 32 c0 -16 -20 -84 -45 -150 -25 -66 -57 -170
-72 -231 -15 -60 -30 -110 -33 -110 -3 0 -18 33 -34 73 -16 39 -55 127 -87
195 -82 173 -82 158 7 154 84 -5 144 12 194 55 17 14 30 21 30 16 0 -4 5 0 11
10 15 26 29 20 29 -12z m-5367 -85 c338 -62 558 -68 2412 -67 1861 2 2044 7
2409 66 82 14 151 23 153 21 10 -9 -58 -59 -129 -96 -306 -160 -914 -274
-1738 -326 -281 -17 -1021 -21 -1221 -6 l-116 8 -55 56 c-59 61 -93 76 -193
85 -81 7 -136 -9 -173 -51 -16 -19 -32 -40 -34 -46 -10 -31 -611 55 -915 130
-252 62 -452 143 -543 220 -32 27 -33 29 -12 30 12 0 82 -11 155 -24z m-43
-291 c207 -83 447 -149 730 -200 80 -15 148 -32 151 -37 4 -6 4 -20 1 -31 -9
-36 -159 -183 -337 -332 -177 -147 -303 -269 -378 -367 -59 -76 -129 -213
-161 -316 -26 -82 -26 -88 -26 -382 0 -253 3 -316 20 -417 82 -477 256 -923
519 -1328 102 -157 207 -288 353 -441 80 -83 91 -109 61 -136 -34 -30 -467
-186 -647 -234 -212 -56 -313 -56 -363 -1 -71 77 -135 293 -183 612 -55 363
-53 334 -57 1510 -4 1169 -5 1161 43 1410 14 74 71 333 94 433 5 23 10 89 10
147 0 92 3 108 20 125 28 28 49 25 150 -15z m5011 -1 c9 -12 16 -59 20 -143 6
-117 27 -238 74 -425 9 -33 27 -124 40 -203 l25 -144 0 -1355 c0 -1388 -1
-1439 -41 -1661 -34 -195 -79 -291 -147 -320 -84 -37 -280 -11 -522 69 -123
40 -386 135 -427 153 -17 8 -34 15 -38 15 -4 0 -22 7 -41 16 -28 13 -34 22
-34 48 0 25 13 43 66 96 438 432 761 1100 879 1820 34 206 36 498 5 618 -93
360 -352 669 -718 855 -169 86 -471 187 -614 204 -21 3 -38 9 -38 14 0 5 -15
9 -32 9 -39 0 -71 16 -48 23 53 17 123 28 250 42 479 52 889 139 1175 249 100
39 146 44 166 20z M4811 9226 c-84 -62 -105 -125 -99 -303 3 -121 5 -132 37
-196 37 -77 112 -158 182 -196 39 -21 42 -22 23 -3 -118 114 -178 254 -177
412 0 102 17 179 59 262 27 54 22 59 -25 24z M5824 9202 c100 -197 75 -442
-62 -610 -19 -24 -44 -53 -56 -64 -19 -19 -16 -18 23 3 67 36 147 122 183 198
31 62 33 74 36 194 5 177 -18 246 -103 304 -19 13 -37 23 -40 23 -3 0 6 -22
19 -48z M4335 6061 c-69 -17 -125 -62 -161 -131 -17 -30 -19 -59 -19 -215 0
-196 4 -214 64 -278 110 -119 309 -89 377 56 22 49 24 63 24 223 0 163 -1 172
-26 222 -48 96 -157 147 -259 123z M6215 6061 c-70 -18 -125 -63 -161 -131
-17 -30 -19 -59 -19 -215 0 -156 2 -185 19 -215 48 -90 119 -134 217 -135 56
0 73 4 115 30 30 19 60 49 79 79 30 49 30 49 33 224 4 198 -4 234 -62 294 -58
60 -149 88 -221 69z M5021 4884 c-66 -56 -62 -186 8 -227 25 -15 64 -17 303
-17 299 0 302 1 333 60 32 61 13 159 -37 194 -19 14 -65 16 -299 16 l-277 0
-31 -26z M4630 4367 c-30 -15 -58 -42 -82 -78 -33 -48 -37 -61 -38 -117 0
-153 124 -275 360 -355 389 -132 963 -58 1162 148 66 69 87 118 88 198 0 149
-100 236 -262 225 -71 -5 -89 -12 -273 -93 -79 -35 -325 -46 -457 -21 -75 15
-100 24 -216 78 -55 25 -83 32 -152 35 -74 3 -91 1 -130 -20z m242 -54 c131
-99 251 -136 443 -136 191 0 312 37 443 136 69 52 143 62 210 28 82 -42 125
-136 101 -224 -26 -100 -239 -237 -454 -293 -200 -52 -482 -42 -674 22 -171
57 -335 167 -372 248 -40 89 -11 181 76 241 36 24 47 26 106 23 59 -3 72 -8
121 -45z M4342 3339 c-11 -17 -9 -25 7 -48 l20 -27 -30 4 -29 4 0 -225 0 -225
140 -97 c312 -216 594 -376 749 -424 92 -29 176 -29 262 -1 161 53 417 198
732 415 l157 109 0 141 c0 78 -3 177 -7 219 l-6 78 -30 -6 c-17 -4 -40 -14
-51 -24 -12 -9 -2 4 21 30 l43 47 -24 26 -24 26 -99 -49 c-275 -138 -545 -202
-858 -202 -299 0 -544 54 -805 177 -163 77 -154 74 -168 52z m1852 -196 c-18
-38 -47 -99 -65 -136 -42 -90 -64 -111 -194 -189 -233 -139 -359 -204 -462
-238 -114 -37 -167 -38 -275 -4 -92 29 -162 63 -348 167 -248 138 -291 176
-340 302 -13 33 -34 82 -47 108 l-24 48 73 -50 c143 -97 299 -159 493 -198 71
-14 140 -17 320 -17 261 0 350 12 524 70 119 39 191 75 299 151 43 29 77 53
78 53 1 0 -14 -30 -32 -67z M3749 2793 c17 -21 31 -43 31 -50 0 -21 16 -15 34
12 9 14 23 36 32 50 l16 25 -72 0 -71 0 30 -37z M4175 2810 c32 -21 41 -20 32
5 -4 8 -18 15 -34 15 l-28 0 30 -20z M6448 2805 c-5 -26 4 -24 47 9 19 15 19
15 -11 16 -26 0 -33 -5 -36 -25z M6810 2825 c0 -3 15 -28 34 -56 l34 -50 6 27
c4 15 16 40 27 56 l20 28 -60 0 c-34 0 -61 -2 -61 -5z M3380 2796 l-65 -11 12
-50 c13 -53 58 -339 69 -439 l7 -58 -70 7 c-64 6 -75 4 -119 -19 -27 -14 -41
-26 -30 -26 46 0 382 62 408 76 39 20 68 70 68 119 0 74 -45 322 -64 349 -40
62 -89 74 -216 52z M7113 2790 c-52 -31 -65 -63 -90 -214 -28 -174 -28 -212
-3 -254 28 -46 63 -58 263 -92 179 -30 227 -35 197 -22 -8 4 -27 15 -43 26
-23 16 -38 17 -102 11 l-75 -7 0 28 c0 37 70 472 80 499 8 20 4 22 -74 33
-108 16 -115 15 -153 -8z M3248 2773 c6 -2 18 -2 25 0 6 3 1 5 -13 5 -14 0
-19 -2 -12 -5z M7388 2773 c6 -2 18 -2 25 0 6 3 1 5 -13 5 -14 0 -19 -2 -12
-5z M3188 2763 c6 -2 18 -2 25 0 6 3 1 5 -13 5 -14 0 -19 -2 -12 -5z M7448
2763 c6 -2 18 -2 25 0 6 3 1 5 -13 5 -14 0 -19 -2 -12 -5z M3128 2753 c6 -2
18 -2 25 0 6 3 1 5 -13 5 -14 0 -19 -2 -12 -5z M7508 2753 c6 -2 18 -2 25 0 6
3 1 5 -13 5 -14 0 -19 -2 -12 -5z M2971 2730 c-19 -5 -80 -14 -135 -21 -56 -7
-93 -15 -84 -17 9 -2 19 -11 22 -20 7 -23 52 -304 67 -417 7 -49 15 -93 19
-97 3 -5 72 2 153 15 103 16 142 25 132 32 -9 7 -26 85 -50 240 -19 127 -38
245 -41 263 -5 35 -16 38 -83 22z M7605 2708 c-7 -43 -65 -411 -72 -461 -3
-21 -11 -41 -17 -44 -6 -4 54 -17 134 -29 79 -13 148 -20 152 -18 4 3 8 17 8
32 0 29 67 456 76 484 3 10 13 18 22 19 16 1 -259 48 -285 49 -7 0 -15 -15
-18 -32z M2450 2651 c-124 -21 -319 -53 -435 -71 -115 -18 -225 -39 -244 -48
-43 -20 -71 -66 -71 -119 0 -60 39 -301 55 -340 19 -46 68 -73 130 -72 54 0
215 26 178 28 -27 1 -26 0 -57 191 -37 226 -50 329 -43 336 3 4 27 -1 53 -10
68 -23 85 -20 145 19 29 20 56 32 60 28 4 -4 23 -107 42 -228 48 -304 47 -293
34 -299 -7 -4 2 -4 18 -2 17 3 85 13 153 23 114 16 123 19 118 38 -18 74 -86
525 -79 525 2 0 30 -7 63 -16 67 -19 100 -11 141 32 l22 24 -29 -1 c-16 -1
-130 -18 -254 -38z M7955 2665 c47 -38 74 -44 130 -29 28 7 53 13 58 14 13 0
7 -63 -28 -285 -20 -121 -37 -229 -38 -239 -2 -17 11 -21 108 -37 61 -10 124
-20 140 -23 30 -6 31 -5 33 31 1 21 18 137 38 258 45 284 44 259 14 263 -14 2
-120 19 -235 38 -258 42 -260 42 -220 9z M8480 2580 c68 -57 79 -58 203 -23
13 4 17 -1 17 -23 0 -31 -66 -457 -76 -486 -3 -10 -15 -18 -27 -19 -37 -2 125
-27 178 -28 61 -1 105 23 127 70 18 37 58 275 58 340 0 49 -20 90 -56 114 -23
15 -393 86 -444 85 -9 0 -2 -12 20 -30z M3790 2221 c-17 -71 -17 -222 -1 -291
35 -147 127 -478 161 -583 43 -130 76 -194 116 -226 26 -21 64 -28 64 -13 0 4
-21 68 -45 142 -63 189 -146 481 -219 775 l-63 250 -13 -54z M6798 2016 c-63
-257 -165 -616 -227 -799 -38 -114 -39 -118 -18 -111 77 24 112 96 202 406
133 463 149 548 125 672 -7 36 -15 66 -19 66 -3 0 -32 -105 -63 -234z M2716
2162 c-10 -2 -39 -15 -65 -29 l-46 -25 50 8 c28 3 81 12 119 18 l69 11 -55 10
c-29 6 -62 9 -72 7z M7865 2156 l-49 -12 84 -12 c47 -7 101 -15 120 -18 31 -5
28 -2 -25 25 -33 17 -64 30 -70 30 -5 -1 -32 -7 -60 -13z M2135 2064 c-71 -36
-52 -42 70 -20 l70 12 -34 12 c-45 16 -70 15 -106 -4z M8415 2066 c-28 -12
-26 -13 58 -25 49 -7 91 -11 94 -8 10 11 -62 47 -92 47 -16 -1 -43 -7 -60 -14z
M5198 1908 c-213 -145 -458 -339 -458 -364 0 -7 16 -62 36 -121 25 -75 60
-149 115 -242 43 -73 79 -135 79 -138 0 -3 -20 -27 -44 -54 -98 -109 -192
-355 -240 -626 l-5 -33 650 0 651 0 -7 38 c-13 72 -66 248 -106 347 -38 96
-122 255 -160 303 -18 23 -17 24 15 75 85 136 138 241 171 342 19 61 35 113
35 116 0 18 -372 300 -542 411 l-56 37 -134 -91z m202 -199 c19 -12 37 -24 40
-28 3 -3 55 -43 116 -88 60 -45 118 -91 128 -102 28 -31 16 -84 -38 -172 -52
-87 -76 -147 -76 -193 0 -54 -21 -59 -238 -62 -177 -2 -194 0 -217 18 -18 14
-25 29 -25 56 0 43 -26 104 -80 187 -47 73 -59 132 -35 172 15 26 120 103 139
103 5 0 38 23 74 51 110 87 147 97 212 58z m110 -816 c106 -52 160 -129 160
-227 0 -76 -1 -76 -357 -76 -351 0 -353 0 -353 70 0 60 81 158 178 217 69 41
119 53 217 50 79 -2 99 -6 155 -34z M1822 1783 c-17 -37 -40 -99 -52 -138 -45
-148 -50 -227 -50 -787 l0 -528 1428 0 1427 1 -29 22 c-15 12 -56 39 -89 60
l-61 37 -1218 0 c-1076 0 -1218 2 -1218 15 0 11 -12 15 -45 15 l-45 0 0 534
c0 452 2 546 16 612 19 90 15 150 -13 194 l-20 31 -31 -68z M8786 1825 c-9
-14 -22 -50 -28 -78 -10 -46 -7 -67 18 -172 l29 -120 3 -488 3 -487 -26 0
c-16 0 -25 -6 -25 -15 0 -13 -141 -15 -1205 -15 -859 0 -1218 -3 -1252 -11
-69 -17 -119 -38 -171 -76 l-47 -33 1428 0 1427 0 0 528 c0 408 -3 549 -15
623 -15 103 -62 258 -99 327 l-22 44 -18 -27z M4635 1462 c-152 -133 -425
-421 -425 -448 0 -15 6 -24 16 -24 20 0 299 186 447 298 55 41 57 44 42 65
-19 27 -19 92 0 146 8 22 13 41 12 41 -2 0 -43 -35 -92 -78z M5955 1489 c20
-55 19 -109 -2 -138 -16 -24 -16 -25 17 -52 42 -36 290 -201 399 -268 154 -93
149 -67 -22 119 -124 135 -381 380 -398 380 -5 0 -2 -19 6 -41z"/>
</g>
</svg>
