<?xml version="1.0" standalone="no"?>
<!DOCTYPE svg PUBLIC "-//W3C//DTD SVG 20010904//EN"
 "http://www.w3.org/TR/2001/REC-SVG-20010904/DTD/svg10.dtd">
<svg version="1.0" xmlns="http://www.w3.org/2000/svg"
 width="2048.000000pt" height="2048.000000pt" viewBox="0 0 2048.000000 2048.000000"
 preserveAspectRatio="xMidYMid meet">
<metadata>
Created by potrace 1.13, written by Peter Selinger 2001-2015
</metadata>
<g transform="translate(0.000000,2048.000000) scale(0.192120,-0.192120)"
fill="#000000" stroke="none">
<path d="M6075 9905 c-358 -40 -728 -151 -1090 -330 -479 -236 -845 -560 -955
-847 -82 -211 -76 -454 15 -682 26 -66 26 -67 11 -141 -30 -146 -40 -329 -27
-503 6 -89 14 -175 17 -192 5 -23 2 -31 -12 -36 -128 -40 -221 -131 -294 -286
-67 -143 -84 -234 -84 -433 1 -150 4 -181 27 -266 60 -225 184 -391 327 -438
l36 -11 18 -113 c61 -389 239 -856 444 -1167 129 -197 314 -411 466 -540 l76
-64 -153 -22 c-165 -24 -347 -61 -497 -101 -163 -43 -341 -104 -347 -119 -3
-8 7 -33 23 -55 62 -90 97 -94 329 -36 99 25 248 60 330 77 83 17 176 43 208
57 61 27 113 77 129 125 5 15 14 28 20 28 5 0 36 -18 68 -40 84 -57 93 -59 84
-24 -3 16 -13 42 -20 58 -8 16 -14 42 -14 57 0 15 -5 41 -12 56 -55 129 -334
437 -441 487 -31 15 -57 31 -57 35 0 12 23 41 350 436 64 77 302 365 530 640
228 275 524 632 659 794 136 161 252 301 259 311 12 16 5 16 -85 -5 -54 -13
-213 -49 -353 -80 -140 -31 -259 -61 -264 -66 -6 -6 -6 -9 0 -9 6 0 21 -10 34
-23 21 -19 34 -22 95 -20 38 2 101 8 138 15 59 10 70 9 84 -4 36 -36 -26 -131
-226 -343 -36 -39 -95 -106 -131 -149 -36 -43 -89 -106 -118 -140 -28 -34
-204 -243 -389 -466 -507 -609 -541 -649 -569 -656 -17 -4 -31 -1 -44 11 -17
16 -20 31 -20 114 0 90 4 106 55 259 57 169 68 240 41 275 -8 10 -16 14 -19
10 -3 -5 -50 -116 -105 -248 -130 -313 -133 -318 -137 -314 -1 2 -13 54 -25
114 -24 126 -53 194 -104 248 -20 21 -34 42 -31 47 5 8 98 50 293 131 56 24
101 48 99 53 -2 6 -20 20 -42 30 -38 19 -39 19 -150 -5 -62 -14 -117 -23 -124
-21 -7 2 -11 39 -11 109 0 126 3 135 172 562 108 274 158 416 243 695 34 110
63 175 154 340 39 72 96 191 128 265 58 135 110 211 146 211 9 0 71 -22 139
-49 136 -54 327 -117 460 -151 64 -17 89 -28 93 -41 4 -11 23 -23 48 -29 109
-28 122 -34 125 -60 3 -30 2 -34 -101 -205 -43 -71 -84 -139 -90 -150 -7 -11
-25 -39 -40 -62 -51 -78 -97 -188 -103 -244 l-6 -54 21 25 c12 14 134 185 271
381 138 196 259 364 268 372 16 14 21 11 68 -46 28 -34 75 -78 105 -98 405
-268 428 -276 519 -192 72 66 119 150 120 211 0 13 6 22 15 22 8 0 15 7 15 16
0 15 15 16 146 10 217 -10 298 -30 426 -106 119 -71 274 -236 320 -340 9 -19
25 -56 37 -82 17 -39 21 -67 21 -152 0 -129 -14 -197 -85 -415 -62 -192 -69
-255 -35 -319 64 -121 145 -147 293 -95 72 26 79 27 105 13 38 -22 81 -105 82
-157 0 -80 -69 -325 -150 -528 -53 -134 -168 -354 -242 -465 -95 -141 -132
-187 -252 -310 -177 -183 -276 -323 -276 -391 0 -18 -9 -51 -19 -73 -11 -23
-23 -54 -27 -70 -7 -28 -7 -28 70 23 103 70 101 69 124 24 24 -45 74 -94 120
-117 18 -9 134 -39 257 -67 417 -92 667 -178 1001 -344 246 -123 287 -153 304
-225 7 -28 15 -52 19 -55 4 -2 53 9 108 25 55 15 129 34 164 41 35 6 67 15 71
18 10 8 -191 156 -329 244 -144 90 -434 232 -613 301 -286 108 -616 193 -923
238 l-158 23 83 74 c235 208 446 484 600 786 137 270 234 553 285 835 8 44 7
47 -53 136 -66 100 -141 240 -169 319 -10 28 -20 51 -21 53 -1 2 -35 -30 -76
-71 -40 -40 -105 -92 -143 -115 -72 -42 -153 -78 -160 -70 -2 2 18 46 45 98
97 189 154 372 186 594 17 116 17 116 -6 179 -151 421 -513 686 -1005 736 -55
6 -179 13 -276 16 l-177 6 49 -98 c49 -97 80 -196 94 -302 l7 -55 -89 83
c-256 236 -583 408 -902 476 -499 106 -964 331 -1256 606 -47 45 -88 79 -91
77 -2 -3 -7 -66 -11 -139 -7 -161 9 -379 43 -583 14 -81 23 -150 20 -153 -3
-3 -36 11 -73 32 -194 106 -390 302 -488 486 l-35 66 21 19 c12 11 31 33 43
49 20 29 21 37 18 320 -4 274 -3 293 17 342 107 272 530 615 1006 818 437 186
900 275 1275 245 671 -53 1295 -323 1772 -767 132 -122 225 -227 357 -402 70
-92 164 -190 285 -297 88 -77 89 -81 71 -194 -8 -50 7 -117 76 -345 83 -278
92 -336 96 -666 4 -291 4 -299 -21 -402 -14 -58 -55 -188 -92 -289 -103 -285
-153 -444 -175 -558 -28 -146 -38 -175 -75 -219 l-33 -38 63 -79 c66 -83 116
-134 116 -118 0 5 7 52 15 104 40 245 104 471 229 807 125 338 166 518 166
731 -1 286 -93 720 -216 1021 -19 46 -33 86 -30 88 2 3 37 0 76 -6 73 -12 218
-17 226 -8 3 3 -10 15 -28 28 -65 45 -265 209 -385 316 -95 85 -139 133 -203
223 -311 438 -762 797 -1270 1014 -473 201 -990 288 -1425 241z m-1140 -2141
c22 -8 75 -18 118 -21 78 -6 78 -6 72 -32 -7 -28 -110 -287 -478 -1201 -225
-559 -321 -794 -382 -942 -16 -37 -32 -65 -37 -62 -4 3 -8 49 -8 103 0 58 -6
118 -15 149 -16 51 -89 157 -178 258 -24 27 -55 70 -71 97 -50 86 -56 125 -56
348 0 228 8 276 60 347 16 23 30 46 30 50 0 5 38 52 84 105 115 132 166 207
166 247 0 10 5 22 10 25 6 3 10 30 10 59 0 48 2 54 24 58 15 3 62 -14 132 -48
186 -91 243 -94 324 -18 77 72 92 119 98 309 2 88 9 166 14 173 13 16 33 15
83 -4z M5198 6986 c-99 -27 -176 -109 -198 -209 -8 -32 -11 -119 -8 -227 3
-153 6 -181 24 -221 47 -102 142 -163 254 -163 111 0 200 58 252 163 22 43 23
58 23 251 0 188 -2 209 -21 251 -57 123 -199 191 -326 155z m100 -242 c22 -6
22 -9 22 -163 0 -171 -3 -181 -55 -181 -52 0 -55 10 -55 177 0 150 1 154 23
163 27 11 36 11 65 4z M7419 6987 c-53 -15 -94 -43 -139 -94 -61 -69 -65 -87
-65 -313 0 -194 1 -208 23 -252 27 -54 97 -123 150 -145 61 -27 158 -22 225
10 60 30 95 65 130 131 21 39 22 54 22 256 0 202 -1 217 -22 256 -35 65 -70
101 -127 129 -64 31 -136 39 -197 22z m95 -263 c14 -5 16 -27 16 -143 0 -75
-4 -142 -9 -149 -5 -8 -21 -12 -37 -10 l-29 3 -3 140 c-1 76 0 145 2 152 6 14
34 17 60 7z M6109 5805 c-96 -31 -165 -149 -140 -241 16 -58 45 -100 92 -131
l42 -28 256 -3 c171 -2 269 0 294 8 22 6 58 30 82 54 97 97 76 253 -43 323
l-47 28 -245 2 c-192 2 -255 -1 -291 -12z M7255 4821 c-17 -4 -53 -23 -82 -43
-141 -97 -452 -145 -877 -135 -381 9 -543 42 -746 153 -53 29 -100 30 -156 5
-82 -37 -124 -136 -95 -224 43 -129 309 -236 703 -283 182 -22 576 -21 763 1
305 36 532 108 636 202 64 58 84 112 67 185 -21 97 -121 161 -213 139z M3006
4749 c-98 -24 -222 -82 -301 -141 -42 -31 -74 -47 -104 -51 -39 -5 -55 -16
-133 -94 -127 -125 -138 -151 -92 -218 l25 -37 -20 -88 c-39 -164 -25 -351 37
-499 17 -39 29 -71 28 -71 -1 0 -27 25 -58 55 -63 61 -142 92 -201 80 -91 -19
-84 -12 -908 -945 -479 -543 -807 -923 -827 -958 -139 -246 -73 -511 166 -663
101 -64 230 -84 346 -54 109 29 186 78 341 221 l145 135 0 -546 0 -545 250 0
251 0 -1 771 -1 772 493 451 c376 344 498 462 516 496 48 95 17 211 -78 292
-43 38 -53 55 -20 38 12 -6 67 -26 123 -45 56 -19 92 -34 80 -35 -56 -1 -21
-20 102 -53 74 -21 141 -40 150 -43 26 -10 7 20 -25 39 -16 10 -62 26 -101 36
l-72 18 124 6 c77 3 149 13 190 24 l66 19 27 -23 c19 -16 40 -23 68 -23 39 0
47 6 146 103 95 95 105 108 107 145 3 30 14 54 45 93 50 63 99 159 128 249
152 473 -129 975 -611 1090 -110 27 -291 26 -401 -1z m266 -806 c291 -291 528
-533 528 -539 0 -6 -22 -23 -49 -37 -26 -15 -74 -47 -106 -72 -32 -25 -62 -45
-66 -45 -4 0 -35 -19 -69 -42 l-61 -42 -464 464 c-256 256 -465 469 -465 473
0 5 18 29 39 55 22 26 53 76 70 111 17 36 35 67 39 70 4 4 20 34 36 69 16 34
32 62 35 62 3 0 243 -237 533 -527z m104 507 c43 -11 108 -35 144 -53 78 -39
185 -142 220 -212 24 -47 25 -61 28 -239 2 -126 -1 -198 -8 -217 -11 -25 -14
-27 -43 -17 -35 12 -643 609 -678 665 -25 40 -17 71 19 79 15 3 32 7 37 9 36
12 210 3 281 -15z m-686 -736 c41 -28 280 -267 296 -297 19 -35 6 -50 -54 -66
-68 -19 -179 -118 -220 -196 -17 -32 -22 -62 -24 -152 l-3 -112 -40 -42 c-22
-23 -173 -161 -335 -307 -162 -146 -326 -297 -363 -335 -125 -127 -237 -288
-237 -340 0 -9 -4 -19 -10 -22 -6 -4 -10 -77 -10 -187 0 -175 -1 -180 -20
-175 -17 4 -20 0 -20 -25 0 -30 -1 -29 -85 51 -47 45 -97 86 -111 91 -69 27
-142 -3 -309 -125 -122 -89 -200 -127 -271 -133 -69 -6 -142 19 -185 64 -33
34 -34 39 -37 122 -4 87 -4 88 35 144 33 50 1100 1268 1361 1555 115 127 146
143 266 143 56 0 97 5 114 14 31 17 110 97 136 140 18 29 64 144 73 184 6 26
20 28 53 6z M5270 3675 c0 -16 27 -48 88 -106 214 -203 399 -301 668 -356 129
-26 579 -26 708 0 269 55 462 158 672 359 46 45 84 89 84 99 0 11 -2 19 -5 19
-2 0 -31 -17 -62 -37 -89 -56 -286 -147 -408 -188 -147 -48 -320 -82 -489 -97
-388 -32 -827 71 -1163 274 -87 53 -93 55 -93 33z M5274 3255 c5 -317 15 -384
85 -596 127 -378 326 -749 761 -1414 97 -148 180 -276 185 -284 4 -8 -36 17
-91 55 -54 38 -146 94 -205 124 -92 47 -133 78 -291 216 -749 657 -1387 1122
-1933 1405 -156 81 -397 189 -423 189 -19 0 -242 -140 -239 -150 1 -5 -25 -28
-59 -52 -103 -73 -114 -85 -130 -132 -20 -58 -8 -79 42 -73 81 11 128 69 142
177 5 33 11 63 14 66 11 10 216 -77 418 -177 438 -216 883 -480 1467 -871 521
-349 1164 -818 1290 -941 l72 -71 73 70 c112 108 650 504 1128 831 755 517
1468 930 1925 1117 l110 45 12 -74 c18 -118 29 -132 207 -280 89 -73 170 -143
182 -156 19 -23 35 -65 49 -134 7 -35 46 -115 55 -115 4 0 44 50 91 111 l84
112 -111 106 c-120 115 -325 282 -462 375 -48 32 -87 64 -87 69 0 6 -53 43
-118 83 l-118 72 -157 -70 c-616 -272 -1265 -723 -2173 -1510 -181 -157 -227
-191 -318 -238 -58 -31 -144 -83 -191 -116 -47 -33 -91 -64 -98 -68 -15 -9 10
32 108 180 409 612 642 1025 789 1400 105 269 134 449 129 794 l-3 205 -17
-95 c-10 -52 -20 -140 -22 -195 -21 -458 -131 -762 -507 -1415 -213 -368 -368
-598 -467 -692 -66 -63 -96 -72 -143 -40 -179 120 -719 1029 -895 1507 -72
193 -104 357 -114 575 -7 156 -26 304 -45 345 -3 6 -3 -116 -1 -270z M2490
2260 c-12 -7 -7 -18 24 -65 21 -30 43 -58 48 -61 13 -9 36 25 44 65 6 28 3 38
-16 53 -24 19 -75 24 -100 8z M2547 2028 c-15 -40 -36 -109 -48 -152 -51 -189
-51 -201 -56 -893 l-4 -653 3891 0 3891 0 -4 653 c-3 527 -7 667 -19 732 -17
90 -64 270 -75 290 -6 9 -28 -15 -72 -78 -86 -122 -1050 -1435 -1110 -1511
-25 -33 -51 -61 -57 -63 -5 -2 -41 24 -80 57 -39 34 -85 65 -106 70 -24 7
-430 10 -1172 8 l-1135 -3 -4 60 -3 60 -2 -60 -2 -60 -1132 3 c-623 2 -1152 0
-1175 -3 -33 -5 -57 -20 -114 -71 -40 -35 -77 -63 -83 -61 -6 2 -46 50 -89
108 -97 127 -1096 1490 -1157 1577 -24 34 -47 62 -51 62 -3 0 -18 -33 -32 -72z
m500 -967 c151 -204 276 -385 279 -401 5 -22 2 -31 -14 -39 -14 -7 -119 -11
-306 -11 l-286 0 0 418 c0 230 3 422 7 425 16 16 62 -40 320 -392z m6873 -96
l0 -355 -231 0 c-237 0 -269 5 -269 39 0 27 475 671 495 671 3 0 5 -160 5
-355z"/>
</g>
</svg>
