<?xml version="1.0" standalone="no"?>
<!DOCTYPE svg PUBLIC "-//W3C//DTD SVG 20010904//EN"
 "http://www.w3.org/TR/2001/REC-SVG-20010904/DTD/svg10.dtd">
<svg version="1.0" xmlns="http://www.w3.org/2000/svg"
 width="2048.000000pt" height="2048.000000pt" viewBox="0 0 2048.000000 2048.000000"
 preserveAspectRatio="xMidYMid meet">
<metadata>
Created by potrace 1.13, written by Peter Selinger 2001-2015
</metadata>
<g transform="translate(0.000000,2048.000000) scale(0.192120,-0.192120)"
fill="#000000" stroke="none">
<path d="M6105 9350 c-863 -86 -1521 -456 -1910 -1075 -118 -187 -221 -446
-264 -660 -56 -282 -51 -640 15 -962 66 -322 190 -519 293 -463 24 12 35 42
70 190 103 435 314 826 596 1105 44 44 99 95 122 113 l41 32 59 -48 c170 -142
384 -288 520 -356 213 -107 332 -112 388 -16 16 29 20 52 20 127 l-1 92 81
-77 c295 -283 500 -432 593 -432 89 0 71 159 -49 419 -22 46 -38 85 -37 87 2
1 32 -20 68 -47 108 -83 294 -163 497 -214 232 -58 687 -115 922 -115 l76 0
213 -420 c227 -446 262 -500 321 -500 45 0 59 9 91 55 90 131 143 432 156 890
12 394 -37 626 -196 945 -279 557 -802 991 -1455 1205 -134 45 -293 81 -475
110 -123 20 -609 29 -755 15z m728 -294 c537 -77 1007 -296 1360 -635 228
-219 383 -454 474 -718 l38 -108 3 -451 c2 -287 -1 -460 -7 -477 -25 -65 -57
-26 -182 218 -96 187 -139 244 -242 326 -64 51 -119 66 -295 79 -440 33 -735
89 -1002 192 -172 66 -222 80 -267 75 -55 -6 -128 -60 -184 -137 -55 -74 -60
-73 -189 24 -116 88 -153 110 -207 126 -37 11 -46 10 -85 -8 -23 -12 -54 -32
-68 -44 -58 -54 -117 -96 -141 -101 -60 -15 -190 53 -434 223 -192 135 -270
174 -340 174 -90 -1 -208 -76 -350 -225 -164 -171 -266 -319 -395 -571 -95
-185 -119 -221 -139 -209 -25 16 -31 90 -31 411 0 312 1 329 25 425 33 138 57
201 125 340 187 383 551 706 1005 892 246 101 543 168 875 197 104 9 550 -3
653 -18z M3871 6453 c-83 -98 -148 -300 -158 -488 -20 -378 138 -703 380 -779
11 -3 17 -15 17 -34 0 -94 84 -440 156 -640 94 -263 298 -633 455 -824 140
-171 303 -330 446 -436 l63 -47 0 -177 0 -176 148 -110 c271 -201 976 -692
993 -692 12 0 39 55 39 80 0 36 -66 126 -127 172 -82 62 -189 129 -408 253
-371 212 -506 314 -538 410 l-16 46 62 -49 c153 -120 265 -181 443 -241 362
-120 873 -119 1237 3 161 54 315 139 441 244 28 23 52 40 54 38 10 -11 -43
-106 -81 -145 -54 -56 -202 -154 -397 -266 -254 -144 -291 -166 -379 -223 -46
-30 -102 -71 -124 -91 -50 -44 -97 -117 -97 -148 0 -24 26 -83 36 -83 20 0
786 534 1062 740 l72 54 0 181 1 180 82 60 c118 86 357 329 463 470 251 335
416 687 518 1108 19 78 40 178 46 222 15 105 23 122 59 130 47 10 135 79 184
145 60 79 104 173 135 290 23 84 26 115 26 270 1 152 -2 187 -22 265 -24 92
-101 263 -129 287 -14 11 -15 8 -9 -27 13 -79 19 -519 7 -585 -6 -36 -16 -92
-22 -125 -17 -102 -80 -203 -205 -335 -130 -137 -150 -174 -188 -345 -14 -66
-47 -178 -72 -250 -24 -71 -58 -177 -75 -234 -43 -146 -80 -237 -156 -378 -52
-96 -181 -287 -212 -313 -3 -3 -44 -48 -90 -100 -47 -52 -153 -162 -237 -243
-127 -124 -156 -158 -179 -209 -23 -51 -26 -70 -21 -112 5 -46 3 -53 -17 -66
-242 -153 -462 -239 -762 -297 -126 -24 -454 -29 -598 -9 -146 21 -311 62
-442 111 -112 42 -312 141 -371 183 -37 27 -39 30 -39 88 -1 101 -25 135 -255
364 -114 113 -231 239 -261 280 -275 375 -433 748 -530 1248 -18 91 -74 175
-197 293 -91 88 -145 176 -169 277 -22 87 -29 514 -13 691 6 68 9 125 7 128
-3 2 -19 -13 -36 -34z M5234 6424 c-58 -21 -120 -77 -152 -138 -27 -51 -27
-52 -27 -261 0 -232 3 -248 65 -319 18 -20 54 -49 79 -64 40 -24 57 -27 131
-27 74 0 91 3 131 27 54 32 102 83 126 136 15 31 18 69 18 247 0 209 0 210
-27 261 -66 126 -213 185 -344 138z M7456 6425 c-62 -24 -122 -79 -153 -143
-28 -57 -28 -58 -28 -257 0 -199 0 -200 28 -257 50 -102 142 -158 256 -158
107 1 213 76 251 178 17 46 20 78 20 236 0 211 -8 249 -72 321 -22 25 -59 55
-82 67 -53 27 -165 34 -220 13z M6160 5249 c-145 -58 -180 -242 -66 -347 25
-23 57 -45 73 -49 15 -4 143 -8 283 -8 l255 0 47 28 c113 66 139 211 56 311
-59 71 -79 76 -368 75 -143 0 -266 -5 -280 -10z M5570 4490 c-115 -11 -459
-88 -505 -113 -104 -57 -108 -206 -7 -271 67 -44 90 -43 298 20 104 31 195 59
201 61 9 3 6 -10 -7 -38 -24 -55 -25 -93 -1 -144 22 -48 44 -69 94 -90 71 -29
104 -21 271 65 85 44 159 80 165 80 6 0 11 -11 11 -24 0 -60 94 -136 169 -136
49 0 118 36 145 77 22 32 25 33 31 14 20 -65 86 -101 161 -87 47 9 111 68 126
117 6 21 13 39 14 39 2 0 76 -36 165 -80 119 -59 171 -80 200 -80 129 0 214
127 164 247 -19 45 -19 47 3 38 9 -3 98 -31 197 -61 196 -60 226 -62 286 -21
50 34 72 71 77 129 3 44 0 59 -20 88 -41 61 -72 73 -309 125 l-224 49 -815 2
c-448 1 -849 -2 -890 -6z m774 -256 c64 -9 60 -31 -8 -39 -63 -8 -116 1 -116
20 0 21 51 29 124 19z m-544 -19 c0 -8 -7 -15 -15 -15 -8 0 -15 7 -15 15 0 8
7 15 15 15 8 0 15 -7 15 -15z m780 0 c0 -12 -13 -15 -60 -15 -47 0 -60 3 -60
15 0 12 13 15 60 15 47 0 60 -3 60 -15z M1855 4220 c-54 -21 -114 -74 -151
-131 -19 -30 -29 -37 -66 -41 -51 -6 -674 -238 -737 -275 -41 -24 -46 -25
-102 -13 -120 26 -227 -8 -308 -95 -113 -123 -150 -362 -91 -590 29 -111 117
-286 184 -367 160 -193 374 -271 527 -193 42 22 104 80 130 121 11 19 27 34
36 34 8 0 56 14 105 30 50 17 92 29 93 28 3 -3 346 -913 517 -1373 56 -148
102 -271 104 -273 1 -2 48 12 105 31 57 19 152 47 211 63 60 16 108 32 108 35
0 6 -439 1172 -579 1538 -29 74 -48 137 -44 141 4 4 31 15 58 25 28 10 69 29
93 43 39 22 47 24 81 13 65 -19 160 -14 216 13 143 66 213 196 222 411 11 259
-81 501 -261 681 -111 110 -202 156 -319 161 -64 2 -93 -1 -132 -17z m219
-148 c204 -96 344 -323 363 -586 10 -143 -41 -294 -128 -377 -35 -34 -145 -97
-154 -88 -2 2 17 29 42 59 53 63 106 168 128 255 49 190 -13 404 -159 549
-103 103 -260 175 -381 176 -49 1 -33 13 47 35 75 21 166 13 242 -23z m-118
-315 c59 -30 120 -86 134 -123 6 -14 10 -85 10 -157 0 -170 -6 -182 -126 -261
-100 -66 -213 -176 -275 -267 -22 -33 -47 -63 -54 -65 -8 -3 -29 2 -48 11 -41
19 -70 79 -93 195 -34 173 -54 233 -131 400 -19 41 -37 90 -40 107 -5 31 -3
34 43 54 27 11 128 48 224 80 158 55 181 60 240 56 44 -3 82 -13 116 -30z
m-905 -145 c218 -203 330 -584 248 -840 -10 -30 -14 -33 -38 -28 -71 17 -152
18 -227 2 -95 -19 -123 -13 -194 39 -66 48 -122 121 -173 224 l-42 84 -4 159
c-3 174 1 193 58 222 16 9 31 23 33 34 3 10 21 23 44 30 48 14 85 48 130 119
l35 54 31 -18 c18 -10 62 -46 99 -81z M7816 2919 c48 -79 108 -148 119 -137 8
8 -72 114 -101 133 -17 11 -23 12 -18 4z M5020 2882 c-41 -44 -84 -112 -70
-112 16 0 74 64 98 108 29 52 20 53 -28 4z M4430 2549 c-399 -5 -443 -8 -535
-28 -524 -116 -933 -429 -1165 -890 -47 -95 -119 -290 -135 -368 l-6 -33 93 6
c189 12 354 -51 492 -189 112 -112 140 -170 226 -468 39 -133 70 -244 70 -246
0 -2 1544 -3 3430 -3 l3430 0 0 323 c0 417 -14 537 -86 757 -173 527 -618 946
-1152 1086 -181 47 -267 54 -694 54 l-396 0 -27 -82 c-115 -350 -341 -800
-549 -1093 -137 -194 -334 -421 -445 -514 l-50 -42 -41 78 c-22 43 -49 94 -61
113 l-22 35 79 135 c49 83 93 174 114 235 l34 100 12 -40 c17 -54 17 -78 -1
-101 -8 -10 -15 -24 -15 -31 0 -6 39 -37 87 -70 66 -44 87 -55 91 -43 3 8 22
31 43 50 28 27 35 39 28 51 -12 23 -255 240 -385 345 -115 92 -297 224 -395
286 l-56 36 -116 -78 c-222 -150 -483 -360 -662 -533 l-80 -77 33 -20 c18 -11
38 -31 44 -45 6 -14 14 -25 18 -25 8 0 149 96 168 114 10 10 10 18 -3 42 -18
34 -18 57 -1 104 l13 35 17 -60 c25 -84 63 -164 140 -294 36 -62 66 -115 66
-118 0 -3 -18 -26 -41 -51 -23 -26 -54 -73 -70 -105 l-30 -58 -48 41 c-178
150 -455 506 -626 804 -129 226 -276 549 -347 764 -17 53 -36 102 -42 107 -7
7 -161 8 -446 4z m264 -320 c30 -24 52 -63 112 -199 55 -127 169 -353 239
-476 100 -174 156 -258 289 -429 157 -202 223 -279 325 -379 50 -49 91 -92 91
-96 0 -4 -7 -14 -17 -21 -13 -11 -101 -15 -457 -17 l-442 -3 -21 44 c-11 24
-33 106 -48 183 -38 195 -88 287 -195 358 -37 25 -85 20 -134 -13 -105 -72
-160 -168 -202 -350 -44 -191 -66 -221 -158 -221 -89 0 -107 25 -136 188 -34
189 -62 261 -127 329 -60 62 -93 83 -130 83 -42 0 -61 -10 -130 -66 -80 -65
-87 -63 -223 70 -120 117 -187 167 -295 218 -69 32 -79 48 -64 103 29 104 252
353 409 457 209 137 432 219 677 247 37 5 190 9 339 10 261 1 272 0 298 -20z
m4124 11 c387 -42 742 -230 961 -508 104 -131 152 -220 214 -392 l31 -85 4
-322 3 -323 -240 0 -240 0 -25 43 c-13 23 -34 89 -46 147 -42 201 -101 316
-196 379 -77 51 -119 41 -215 -54 -65 -63 -94 -132 -128 -295 -21 -100 -38
-154 -56 -181 l-25 -39 -70 0 -69 0 -25 43 c-15 25 -38 97 -55 172 -43 193
-90 279 -195 356 -61 45 -98 40 -177 -24 -63 -53 -109 -120 -130 -190 -6 -18
-21 -85 -34 -150 -15 -74 -33 -135 -50 -163 l-26 -44 -417 1 c-229 1 -428 4
-442 8 -47 13 -36 38 67 144 132 137 329 379 440 542 105 153 283 479 356 651
65 152 119 254 144 274 24 19 40 20 285 20 142 0 302 -5 356 -10z m-2310 -576
c12 -8 22 -21 22 -28 0 -8 12 -22 28 -31 15 -10 64 -45 110 -78 71 -53 82 -65
82 -91 0 -17 -29 -89 -67 -166 -66 -131 -68 -137 -68 -212 0 -68 3 -81 30
-120 38 -54 134 -105 220 -116 l60 -7 -70 -58 c-91 -76 -227 -166 -332 -220
l-83 -42 -77 40 c-97 49 -256 155 -348 232 l-70 58 61 7 c83 9 156 42 199 90
45 49 55 75 55 146 0 64 -19 121 -85 252 -25 49 -45 101 -45 115 0 20 20 40
103 101 56 42 105 85 109 95 17 43 121 65 166 33z m-2797 -621 c25 -65 57
-303 75 -546 l6 -99 -63 32 c-62 32 -106 36 -162 14 -14 -5 -17 1 -17 39 0 67
38 340 61 437 31 134 75 187 100 123z m834 -6 c27 -65 75 -434 75 -577 l0 -59
-52 24 c-29 14 -60 25 -68 25 -8 0 -39 -11 -67 -25 l-53 -24 0 54 c0 135 59
482 95 563 28 61 50 67 70 19z m3857 -3 c36 -62 84 -321 103 -552 l7 -84 -43
23 c-66 33 -104 30 -202 -19 -14 -7 22 390 49 536 25 136 48 162 86 96z m833
7 c37 -73 86 -338 102 -550 l6 -91 -54 25 c-66 31 -71 31 -136 0 l-53 -24 0
64 c0 160 55 559 81 591 18 22 37 17 54 -15z M1987 1009 c-98 -64 -186 -188
-233 -324 -23 -67 -27 -98 -28 -190 -1 -60 2 -122 7 -138 l7 -27 830 0 c457 0
830 2 830 4 0 4 -152 97 -210 127 l-45 24 -563 5 c-522 5 -565 6 -576 23 -8
10 -26 17 -44 17 -26 0 -33 5 -38 26 -11 44 3 104 37 158 18 28 48 79 66 113
31 57 34 69 31 134 -2 40 -8 74 -14 76 -5 2 -31 -11 -57 -28z"/>
</g>
</svg>
