<?xml version="1.0" standalone="no"?>
<!DOCTYPE svg PUBLIC "-//W3C//DTD SVG 20010904//EN"
 "http://www.w3.org/TR/2001/REC-SVG-20010904/DTD/svg10.dtd">
<svg version="1.0" xmlns="http://www.w3.org/2000/svg"
 width="2048.000000pt" height="2048.000000pt" viewBox="0 0 2048.000000 2048.000000"
 preserveAspectRatio="xMidYMid meet">
<metadata>
Created by potrace 1.13, written by Peter Selinger 2001-2015
</metadata>
<g transform="translate(0.000000,2048.000000) scale(0.192120,-0.192120)"
fill="#000000" stroke="none">
<path d="M5115 9914 c-322 -24 -587 -74 -833 -158 -843 -287 -1409 -967 -1493
-1796 -20 -197 -2 -501 42 -736 l22 -110 -46 -48 c-234 -240 -277 -761 -90
-1095 50 -91 143 -181 216 -211 63 -26 60 -20 78 -145 16 -119 91 -403 144
-550 59 -162 162 -379 251 -527 196 -324 494 -641 766 -813 77 -48 66 -61 -54
-68 -358 -21 -633 -150 -904 -422 l-131 -132 -114 -6 c-306 -15 -641 -148
-904 -357 -94 -75 -228 -216 -305 -320 -127 -172 -241 -429 -284 -640 -31
-155 -36 -274 -36 -860 l0 -590 3890 0 3890 0 0 590 c0 721 -7 801 -90 1051
-191 575 -693 1008 -1287 1109 -63 11 -148 20 -188 20 l-73 0 -35 48 c-20 26
-78 89 -131 140 -232 224 -531 351 -868 369 -127 7 -138 19 -60 68 206 130
431 346 612 587 274 363 473 835 549 1302 10 64 20 118 22 120 2 1 34 17 71
34 201 97 331 401 315 741 -11 232 -84 436 -196 548 -32 32 -32 33 -22 90 22
126 35 330 35 573 0 240 -1 263 -26 381 -107 496 -410 949 -863 1289 -362 272
-792 442 -1276 505 -110 15 -491 27 -594 19z m543 -329 c868 -94 1608 -614
1857 -1305 54 -149 55 -159 55 -593 0 -438 -4 -476 -47 -449 -17 11 -72 105
-150 256 -55 107 -80 144 -138 202 -117 119 -137 125 -495 154 -362 30 -615
84 -899 190 -183 68 -217 76 -265 60 -44 -14 -113 -70 -145 -119 -14 -20 -31
-42 -38 -49 -7 -7 -13 -18 -13 -24 0 -7 -5 -6 -15 2 -8 6 -18 9 -23 6 -4 -2
-55 31 -113 76 -126 96 -184 128 -239 128 -51 0 -59 -4 -155 -84 -46 -38 -93
-68 -111 -72 -62 -11 -212 67 -434 227 -222 160 -295 191 -387 164 -196 -58
-488 -387 -683 -770 -74 -147 -99 -181 -123 -172 -23 9 -27 64 -27 375 0 326
5 370 67 552 164 487 586 890 1147 1095 392 144 909 200 1374 150z m-1629
-1458 c260 -211 513 -368 660 -411 75 -22 148 -21 188 4 53 32 68 72 67 177
l-1 92 134 -129 c218 -210 410 -355 506 -381 31 -8 43 -7 63 6 52 34 20 198
-81 413 -24 50 -42 92 -39 92 2 0 29 -20 58 -44 226 -184 736 -312 1331 -334
l180 -7 210 -414 c232 -459 263 -505 330 -505 32 0 44 6 71 38 36 42 84 156
105 249 7 31 13 56 15 54 1 -1 10 -54 20 -117 17 -119 16 -166 -16 -470 -24
-233 -49 -288 -210 -470 -134 -152 -162 -203 -200 -366 -34 -145 -94 -320
-218 -634 -102 -260 -111 -277 -214 -432 -90 -133 -246 -300 -433 -460 -56
-48 -121 -112 -145 -143 -25 -32 -49 -62 -55 -69 -20 -23 -45 -88 -45 -118 0
-22 10 -42 31 -64 l31 -32 -44 -25 c-305 -179 -724 -281 -1082 -263 -327 17
-650 110 -913 263 l-43 25 30 36 c38 46 38 70 -2 146 -35 65 -128 163 -325
344 -154 141 -307 337 -405 516 -179 329 -251 525 -334 901 -35 161 -64 212
-220 377 -82 87 -137 172 -154 238 -35 140 -39 181 -41 445 -1 180 3 293 11
339 l12 68 39 -93 c83 -202 189 -290 245 -204 8 13 31 86 49 162 88 363 248
698 458 959 70 86 281 294 299 294 6 0 41 -24 77 -53z m301 -4578 c205 -189
371 -276 622 -330 134 -29 487 -37 654 -15 294 39 510 143 735 354 42 40 81
72 86 72 15 0 25 -240 17 -388 l-7 -128 111 -12 c133 -15 220 -40 325 -94 76
-40 204 -147 247 -209 l21 -28 -75 -35 c-370 -170 -624 -607 -720 -1236 -15
-95 -46 -397 -46 -441 0 -13 -10 -20 -35 -25 -44 -8 -125 -59 -125 -79 0 -8
-4 -15 -10 -15 -6 0 -10 -33 -10 -77 0 -59 6 -96 27 -154 29 -83 27 -104 -13
-119 -17 -7 -448 -9 -1249 -8 -1293 3 -1255 2 -1255 47 0 9 22 53 50 99 60
100 100 190 134 303 24 78 26 100 26 271 0 169 -2 194 -25 273 -34 117 -84
215 -164 321 -127 168 -216 217 -356 195 -38 -5 -71 -8 -74 -5 -8 8 28 140 65
237 183 481 477 748 863 783 l74 7 -6 140 c-8 158 2 377 15 377 5 0 49 -36 98
-81z m-603 -321 c-3 -8 -6 -5 -6 6 -1 11 2 17 5 13 3 -3 4 -12 1 -19z m-20
-10 c-3 -8 -6 -5 -6 6 -1 11 2 17 5 13 3 -3 4 -12 1 -19z m-17 -1 c0 -7 -17
-27 -37 -43 -76 -59 -175 -155 -258 -249 -51 -58 -154 -222 -224 -356 -84
-160 -103 -182 -157 -177 -39 3 -39 4 -42 48 -5 75 69 231 168 355 51 63 267
265 360 336 48 36 161 97 183 99 4 0 7 -6 7 -13z m3459 -64 c53 -36 197 -165
272 -241 19 -21 69 -82 111 -138 93 -124 177 -201 271 -250 294 -153 450 -372
552 -772 19 -76 25 -123 25 -214 l0 -118 -31 0 c-56 0 -76 36 -124 225 -83
328 -170 500 -344 674 -127 128 -250 177 -421 168 -201 -10 -347 -101 -512
-319 -84 -111 -160 -298 -224 -548 -40 -161 -63 -200 -117 -200 l-29 0 5 148
c4 128 9 160 36 252 92 300 197 465 401 625 125 98 188 166 230 248 43 84 39
140 -17 242 -41 75 -224 281 -237 267 -3 -3 -6 2 -6 11 0 15 5 15 52 -3 29
-11 77 -37 107 -57z m-4149 -174 c-104 -160 -212 -392 -286 -614 -36 -110 -67
-201 -68 -203 -2 -1 -34 12 -71 29 -95 45 -147 48 -216 14 -207 -105 -354
-253 -459 -463 -80 -161 -85 -188 -85 -442 l0 -225 31 -85 c35 -97 77 -182
134 -276 22 -35 40 -75 40 -89 0 -34 -47 -45 -202 -45 l-128 0 0 565 c0 372 4
582 11 617 30 146 112 340 185 439 19 26 34 50 34 54 0 15 62 95 129 167 91
97 188 176 293 238 46 27 89 54 96 60 13 11 188 100 197 100 2 0 57 35 122 77
127 83 296 183 301 178 2 -1 -25 -45 -58 -96z m4962 -88 c221 -93 374 -189
528 -329 213 -193 360 -414 445 -667 53 -156 55 -188 55 -731 0 -497 0 -504
-20 -504 -17 0 -20 -7 -20 -40 l0 -40 -52 1 c-115 2 -126 21 -84 139 25 69 37
210 18 210 -4 0 -13 14 -21 31 -13 29 -59 57 -132 82 -13 4 -17 28 -23 119
-53 860 -362 1450 -844 1612 -63 22 -64 22 -91 86 -15 36 -46 97 -69 137 -23
39 -42 74 -42 77 0 2 52 -26 115 -63 63 -38 170 -92 237 -120z m-298 -660 c74
-36 166 -128 218 -217 112 -192 194 -524 214 -865 l7 -116 -57 -23 c-35 -14
-68 -36 -86 -59 -27 -32 -30 -42 -30 -108 0 -55 6 -89 26 -137 14 -36 24 -73
22 -83 -8 -40 -34 -43 -489 -43 -240 0 -451 3 -468 6 -44 9 -48 39 -17 127 27
76 37 207 16 207 -5 0 -10 6 -10 13 0 21 -40 54 -94 78 l-49 21 6 137 c21 447
159 857 340 1005 130 107 305 129 451 57z m-4744 -102 c202 -25 366 -104 501
-241 157 -159 238 -359 239 -585 0 -235 -90 -446 -260 -606 -411 -388 -1082
-260 -1324 254 -59 125 -71 184 -71 359 1 148 2 159 33 250 63 184 181 337
337 439 118 77 246 120 405 135 19 1 40 4 45 4 6 1 49 -3 95 -9z m3775 -993
c167 -79 214 -294 93 -431 -113 -129 -303 -129 -416 0 -156 177 -28 455 208
455 48 0 78 -7 115 -24z m1813 -2 c173 -86 206 -334 60 -458 -150 -129 -396
-57 -449 132 -37 133 43 293 169 338 64 23 161 18 220 -12z M4148 6986 c-96
-26 -173 -104 -199 -200 -6 -23 -9 -117 -7 -230 3 -174 5 -195 25 -232 35 -66
70 -101 130 -131 141 -69 303 -10 375 136 22 43 23 58 23 251 0 193 -1 208
-23 251 -62 126 -197 191 -324 155z m90 -408 c-3 -127 -5 -143 -20 -146 -17
-3 -18 9 -18 142 0 140 1 146 20 146 20 0 20 -5 18 -142z M6375 6989 c-95 -23
-185 -117 -206 -217 -6 -32 -10 -122 -7 -225 3 -154 5 -177 26 -218 71 -145
234 -204 375 -136 60 30 95 65 130 131 21 39 22 54 22 256 0 202 -1 217 -22
256 -35 65 -70 101 -126 128 -60 29 -135 39 -192 25z m85 -415 c0 -145 0 -145
-22 -142 -22 3 -23 7 -26 132 -1 72 0 136 2 143 3 7 15 13 26 13 19 0 20 -6
20 -146z M5072 5811 c-74 -19 -144 -95 -157 -171 -13 -75 27 -161 96 -207 l43
-28 277 0 277 0 44 30 c110 78 125 225 32 319 -60 59 -67 61 -334 63 -135 1
-260 -2 -278 -6z M6187 4816 c-22 -8 -49 -23 -60 -34 -48 -45 -220 -97 -412
-124 -122 -18 -648 -18 -770 0 -195 28 -307 63 -445 138 -53 29 -107 31 -158
5 -69 -36 -102 -88 -102 -162 0 -56 20 -98 68 -141 107 -97 370 -178 672 -208
147 -14 551 -15 700 0 221 22 449 79 583 147 61 30 131 94 147 133 20 49 9
142 -23 183 -45 60 -133 87 -200 63z M4230 3108 c0 -7 241 -314 536 -683 295
-368 543 -679 551 -690 14 -20 15 -20 29 1 8 12 256 323 549 690 294 368 535
675 535 683 0 19 -114 10 -163 -13 -47 -23 -137 -116 -259 -267 -51 -64 -211
-263 -356 -442 -237 -295 -295 -357 -331 -357 -26 0 -113 99 -398 455 -406
505 -474 583 -533 613 -44 23 -160 30 -160 10z M2680 1910 c-234 -37 -426
-235 -476 -489 -45 -229 52 -488 230 -620 237 -176 555 -176 792 0 179 132
275 392 230 619 -48 241 -197 404 -428 471 -83 23 -259 33 -348 19z m324 -79
c83 -29 142 -66 209 -130 113 -107 171 -241 170 -396 0 -157 -52 -284 -163
-395 -110 -110 -232 -160 -390 -160 -155 0 -282 52 -390 160 -112 112 -164
238 -163 400 0 160 56 285 177 397 75 70 141 107 238 133 92 25 224 21 312 -9z"/>
</g>
</svg>
