<?xml version="1.0" standalone="no"?>
<!DOCTYPE svg PUBLIC "-//W3C//DTD SVG 20010904//EN"
 "http://www.w3.org/TR/2001/REC-SVG-20010904/DTD/svg10.dtd">
<svg version="1.0" xmlns="http://www.w3.org/2000/svg"
 width="2048.000000pt" height="2048.000000pt" viewBox="0 0 2048.000000 2048.000000"
 preserveAspectRatio="xMidYMid meet">
<metadata>
Created by potrace 1.13, written by Peter Selinger 2001-2015
</metadata>
<g transform="translate(0.000000,2048.000000) scale(0.192120,-0.192120)"
fill="#000000" stroke="none">
<path d="M4020 10044 c-963 -119 -1776 -724 -2264 -1684 -464 -914 -580 -1903
-345 -2945 64 -285 218 -754 293 -892 l15 -28 1 31 c1 82 23 301 40 404 113
666 431 1295 835 1652 181 160 378 273 591 341 157 50 266 66 524 77 388 16
637 77 895 220 226 125 440 333 580 565 46 75 135 275 135 303 0 34 18 3 39
-71 31 -102 112 -267 183 -369 231 -333 580 -544 1033 -623 50 -9 191 -20 315
-25 290 -12 432 -37 618 -107 103 -38 267 -127 372 -201 120 -84 352 -314 451
-447 334 -447 558 -1043 601 -1599 13 -171 8 -173 88 29 253 638 377 1361 342
1989 -23 394 -81 708 -200 1071 -364 1111 -1076 1891 -2002 2195 -312 103
-674 145 -889 105 -269 -51 -576 -218 -864 -469 l-77 -68 -68 61 c-249 220
-544 391 -790 458 -82 22 -121 26 -257 28 -88 2 -176 1 -195 -1z m411 -318
c184 -47 334 -126 592 -309 293 -210 323 -210 615 1 243 176 403 260 589 309
85 23 118 26 253 26 644 0 1346 -356 1822 -923 375 -447 652 -1079 763 -1741
l26 -157 -4 -643 c-3 -630 -3 -646 -25 -729 -25 -94 -46 -127 -69 -108 -18 15
-58 94 -113 223 -72 169 -165 355 -239 473 -259 417 -592 734 -951 906 -209
100 -395 149 -635 166 -77 5 -205 14 -285 20 -240 17 -436 68 -620 160 -249
126 -382 261 -563 571 -86 147 -197 260 -256 259 -75 -2 -181 -105 -315 -310
-56 -85 -130 -188 -165 -228 -74 -86 -212 -195 -325 -256 -246 -135 -457 -187
-836 -206 -321 -16 -497 -53 -720 -149 -389 -168 -774 -541 -1020 -991 -79
-144 -169 -338 -225 -483 -42 -111 -62 -141 -87 -132 -20 8 -32 36 -60 140
-21 77 -22 103 -26 640 -2 377 0 593 8 660 77 673 353 1366 739 1850 219 275
495 512 790 679 305 172 646 280 981 310 100 9 268 -4 361 -28z M1201 6088
c-60 -29 -152 -117 -201 -191 -49 -76 -95 -191 -123 -311 -31 -135 -30 -416 2
-576 99 -499 373 -893 705 -1017 23 -9 86 -18 140 -22 l100 -6 18 -84 18 -84
-69 -86 c-403 -508 -669 -1181 -763 -1931 -20 -163 -17 -553 6 -665 21 -105
48 -174 82 -206 45 -42 148 -21 349 75 108 51 289 156 352 202 41 31 43 30 43
-7 0 -83 52 -239 91 -275 92 -83 569 159 1081 550 88 66 166 125 173 130 9 7
24 0 49 -22 57 -50 234 -166 368 -241 375 -209 778 -342 1239 -406 157 -22
598 -31 781 -16 629 53 1239 276 1710 623 l67 49 123 -94 c424 -323 889 -575
1099 -594 54 -5 56 -5 85 31 31 37 58 108 69 181 14 94 4 91 108 28 201 -123
455 -230 569 -240 52 -5 59 -3 82 22 80 86 119 368 97 690 -56 790 -355 1575
-808 2118 l-49 59 21 96 22 97 79 2 c175 6 335 89 489 255 177 191 308 461
372 767 23 110 27 150 27 311 0 151 -4 203 -21 280 -42 192 -114 332 -222 432
-56 52 -147 105 -159 94 -3 -3 16 -54 43 -113 70 -156 92 -216 125 -332 30
-103 30 -107 30 -360 0 -238 -2 -263 -24 -351 -88 -346 -275 -627 -492 -738
-22 -11 -78 -32 -125 -45 -116 -34 -144 -49 -214 -121 -60 -61 -105 -137 -105
-176 0 -43 29 -78 86 -105 65 -31 65 -16 10 -217 -114 -414 -344 -894 -594
-1237 -170 -235 -421 -504 -605 -649 -112 -89 -109 -88 -158 -52 -68 49 -105
43 -283 -41 -601 -285 -943 -390 -1426 -440 -150 -16 -532 -16 -685 0 -163 17
-378 54 -520 91 -295 76 -536 171 -923 362 -191 95 -217 99 -288 50 l-46 -33
-76 58 c-179 136 -440 415 -614 653 -259 356 -483 828 -602 1267 -54 199 -54
179 3 208 59 29 81 58 81 103 0 51 -28 100 -94 165 -68 67 -98 84 -216 121
-105 33 -170 73 -255 155 -162 158 -276 365 -341 619 -24 94 -25 106 -22 392
l4 295 37 106 c20 59 61 162 92 230 30 67 55 126 55 131 0 12 -10 9 -59 -14z
m614 -2901 c8 -13 32 -66 54 -118 199 -481 408 -825 703 -1160 32 -36 58 -70
58 -74 0 -5 38 -48 85 -96 49 -50 85 -95 85 -106 0 -11 -12 -34 -27 -51 -59
-65 -427 -292 -564 -348 -89 -36 -112 -30 -208 61 -85 79 -144 115 -188 115
-55 0 -161 -39 -322 -119 -89 -44 -169 -81 -177 -81 -30 0 -34 41 -34 342 0
278 2 315 25 443 65 375 164 684 317 992 100 202 154 259 193 200z m7100 -22
c39 -41 143 -241 212 -410 108 -262 179 -516 239 -860 21 -121 27 -194 31
-377 5 -220 5 -227 -16 -254 -11 -15 -21 -33 -21 -40 0 -7 -4 -15 -10 -19 -11
-7 -114 34 -280 111 -108 51 -135 59 -195 62 -78 4 -60 14 -241 -128 -52 -41
-62 -45 -111 -44 -47 0 -75 11 -237 93 -101 52 -202 105 -224 120 -242 157
-258 181 -177 261 25 24 45 51 45 58 0 8 24 38 53 66 162 157 356 417 528 706
60 99 227 436 244 490 27 86 94 200 118 200 5 0 24 -16 42 -35z M3607 5879
c-89 -22 -160 -79 -196 -159 -19 -42 -21 -65 -21 -390 0 -342 0 -345 24 -395
104 -220 433 -205 510 23 23 67 23 677 0 744 -41 123 -193 208 -317 177z
M6928 5876 c-92 -25 -162 -90 -193 -175 -22 -64 -22 -677 1 -743 77 -228 406
-243 510 -23 24 50 24 53 24 395 0 342 0 345 -24 395 -56 119 -196 185 -318
151z M4979 4487 c-76 -21 -152 -89 -185 -165 -23 -54 -22 -157 3 -213 26 -58
83 -115 142 -143 44 -20 60 -21 391 -21 331 0 347 1 391 21 170 79 216 296 92
434 -24 27 -65 59 -91 72 -46 22 -54 23 -372 25 -237 2 -337 -1 -371 -10z
m640 -213 c58 -12 66 -77 14 -111 -24 -16 -56 -18 -298 -18 -148 0 -282 3
-297 8 -38 10 -58 34 -58 68 0 53 29 58 336 59 149 0 286 -3 303 -6z M4163
3380 c-92 -19 -168 -85 -202 -174 -41 -110 -19 -209 63 -292 49 -48 63 -55
165 -88 636 -201 1314 -229 1983 -80 235 52 394 105 446 150 65 55 96 123 96
209 0 84 -23 144 -79 200 -87 87 -177 98 -356 43 -606 -188 -1263 -189 -1889
-3 -139 41 -172 46 -227 35z m229 -279 c190 -49 336 -79 498 -103 135 -20 193
-23 445 -22 262 0 307 3 465 27 96 15 267 49 380 77 208 51 244 56 268 41 41
-26 -22 -79 -131 -112 -84 -25 -312 -75 -382 -84 -27 -4 -66 -9 -85 -11 -19
-3 -48 -6 -65 -9 -228 -31 -730 -27 -980 9 -22 3 -58 8 -80 11 -115 15 -365
74 -438 102 -60 23 -97 51 -97 73 0 38 55 39 202 1z"/>
</g>
</svg>
