<?xml version="1.0" standalone="no"?>
<!DOCTYPE svg PUBLIC "-//W3C//DTD SVG 20010904//EN"
 "http://www.w3.org/TR/2001/REC-SVG-20010904/DTD/svg10.dtd">
<svg version="1.0" xmlns="http://www.w3.org/2000/svg"
 width="2048.000000pt" height="2048.000000pt" viewBox="0 0 2048.000000 2048.000000"
 preserveAspectRatio="xMidYMid meet">
<metadata>
Created by potrace 1.13, written by Peter Selinger 2001-2015
</metadata>
<g transform="translate(0.000000,2048.000000) scale(0.192120,-0.192120)"
fill="#000000" stroke="none">
<path d="M6332 10314 c-70 -18 -106 -38 -158 -86 -47 -43 -84 -101 -103 -160
-12 -35 -16 -38 -50 -38 -60 0 -268 -29 -394 -56 -681 -144 -1152 -475 -1411
-992 -154 -308 -222 -596 -256 -1092 -6 -85 -22 -220 -36 -300 -31 -184 -40
-373 -25 -575 21 -298 67 -507 146 -671 64 -133 133 -187 194 -154 24 12 34
40 71 192 50 208 157 498 184 498 6 0 139 64 296 143 280 140 455 212 632 258
l83 22 80 -46 c175 -100 322 -138 395 -100 51 26 80 89 80 175 0 42 4 68 11
68 6 0 68 -53 138 -118 267 -247 431 -362 519 -362 28 0 35 5 47 34 25 59 -1
169 -86 361 l-41 95 -219 0 c-120 0 -219 4 -219 8 0 37 178 67 320 53 78 -8
147 -37 143 -59 -2 -6 28 -31 66 -57 235 -156 648 -258 1201 -296 182 -13 228
-25 287 -75 12 -11 108 -190 215 -399 206 -406 238 -455 299 -455 43 0 65 15
95 62 57 91 101 267 129 518 25 222 32 800 11 955 -8 66 -23 188 -31 270 -103
993 -649 1702 -1523 1979 -165 52 -467 114 -559 116 -7 0 -13 6 -13 13 0 29
-62 139 -99 176 -96 96 -269 136 -419 95z m565 -461 c16 -34 41 -67 59 -79 17
-11 107 -40 200 -63 291 -75 479 -149 664 -261 417 -251 696 -634 821 -1129
24 -93 29 -134 29 -230 0 -64 -4 -121 -8 -127 -28 -44 -1344 -108 -2207 -108
-674 0 -1578 35 -2035 80 -225 22 -200 -1 -200 179 0 155 11 243 51 395 121
462 384 788 806 999 191 96 345 146 642 210 97 21 192 45 212 54 38 16 73 57
90 107 l11 30 419 0 418 0 28 -57z m-2692 -2068 c440 -51 779 -70 1555 -86
1190 -25 2387 13 3010 95 58 7 106 13 107 12 1 0 -13 -33 -30 -71 -26 -59 -31
-83 -31 -150 -1 -92 18 -142 78 -214 42 -51 42 -58 -3 -157 -38 -81 -87 -133
-163 -175 -60 -33 -67 -34 -169 -34 l-107 0 -228 117 c-364 185 -540 255 -814
323 -275 67 -498 94 -855 102 -549 12 -993 -55 -1410 -212 -66 -25 -248 -109
-404 -188 l-284 -142 -101 0 c-94 0 -106 2 -168 33 -107 52 -171 141 -209 290
-31 121 -28 139 32 191 85 73 92 112 44 234 l-24 57 22 -5 c12 -2 81 -11 152
-20z m1776 -365 c27 -15 23 -30 -8 -30 -16 -1 -92 -11 -170 -23 -79 -13 -143
-20 -143 -17 0 12 34 38 65 50 73 28 219 39 256 20z m1139 0 c246 -31 535
-115 654 -190 27 -17 46 -33 44 -35 -2 -3 -56 13 -120 35 -210 71 -478 130
-731 161 -93 11 -113 22 -57 32 47 8 125 7 210 -3z m-3001 -403 c24 -16 82
-45 130 -64 83 -33 149 -82 121 -91 -18 -6 -131 18 -165 35 -52 27 -95 65
-126 109 -45 65 -42 66 40 11z m4732 -26 c-6 -10 -25 -31 -43 -47 -93 -78
-242 -105 -351 -64 -79 30 -64 42 67 51 108 8 181 24 257 59 58 26 83 27 70 1z
M5234 6424 c-58 -21 -120 -77 -152 -138 -27 -51 -27 -52 -27 -261 0 -235 4
-250 72 -326 59 -65 104 -84 203 -84 75 0 91 3 131 27 54 32 102 83 126 136
15 31 18 69 18 247 0 209 0 210 -27 261 -66 126 -213 185 -344 138z M7464
6428 c-60 -20 -127 -80 -159 -143 l-30 -59 0 -200 c0 -200 0 -201 28 -258 50
-102 142 -158 256 -158 107 1 213 76 251 178 17 46 20 78 20 236 0 211 -8 249
-72 321 -56 63 -107 87 -193 91 -38 2 -84 -2 -101 -8z M3832 6396 c-37 -62
-71 -151 -94 -244 -18 -70 -22 -117 -22 -242 -1 -158 8 -219 46 -340 61 -194
186 -339 331 -384 11 -4 17 -16 17 -36 0 -46 46 -274 84 -411 51 -184 120
-363 212 -548 188 -379 463 -719 761 -939 l63 -47 0 -327 0 -328 -201 -2 -201
-3 53 -37 c48 -33 112 -65 177 -89 12 -5 32 -13 45 -18 12 -6 31 -12 42 -16
27 -8 55 -33 90 -80 15 -22 58 -69 95 -105 121 -118 296 -187 585 -230 162
-24 234 -25 105 0 -294 55 -509 146 -645 272 -84 78 -133 165 -137 242 -3 48
-2 50 35 70 21 11 40 30 43 43 4 13 10 23 15 23 5 0 9 36 9 80 0 75 -12 135
-56 284 -23 79 -18 81 49 23 253 -222 522 -332 897 -368 148 -14 410 -7 555
16 286 44 516 146 728 324 l100 84 -6 -39 c-4 -22 -16 -66 -28 -99 -15 -44
-22 -94 -26 -188 -5 -122 -4 -129 17 -152 12 -13 36 -29 52 -36 30 -12 30 -13
24 -68 -28 -248 -344 -448 -826 -524 -22 -4 -21 -4 6 -6 48 -2 301 36 389 59
106 27 268 108 325 162 25 24 76 78 114 121 65 74 127 117 168 117 10 0 18 4
18 9 0 5 12 11 28 14 15 4 65 31 112 61 l85 55 -207 1 -208 0 0 328 0 327 83
60 c187 136 462 444 608 680 201 324 354 726 413 1085 9 52 19 110 22 128 3
19 11 32 20 32 29 0 117 52 160 95 85 86 147 205 186 363 19 73 22 115 22 257
0 188 -9 243 -66 387 l-33 83 -6 -110 c-4 -60 -7 -175 -8 -255 -1 -80 -6 -165
-11 -190 -4 -25 -13 -71 -19 -103 -19 -109 -112 -270 -193 -338 -50 -41 -117
-125 -147 -185 -21 -41 -29 -69 -71 -243 -12 -52 -26 -102 -31 -110 -5 -9 -31
-81 -58 -161 -46 -135 -150 -401 -201 -514 -34 -76 -120 -214 -187 -302 -67
-88 -149 -173 -354 -369 -148 -142 -172 -179 -174 -265 l-1 -54 -69 -48 c-105
-71 -298 -163 -448 -213 -223 -74 -412 -105 -643 -105 -392 0 -777 112 -1091
316 l-83 54 0 55 c0 86 -41 146 -199 288 -194 174 -352 377 -492 630 -142 258
-236 511 -304 822 -47 214 -64 245 -201 380 -82 81 -120 126 -143 172 -62 125
-65 143 -71 543 l-5 365 -23 -39z M6160 5249 c-44 -18 -90 -59 -112 -102 -26
-51 -29 -137 -5 -183 21 -40 89 -101 124 -111 16 -5 143 -8 283 -8 l255 0 47
28 c113 66 139 211 56 311 -59 71 -79 76 -368 75 -143 0 -266 -5 -280 -10z
M2271 4287 l3 -635 -25 -36 c-79 -117 -315 -197 -589 -198 -212 -1 -357 28
-493 99 -76 40 -122 89 -137 145 -7 23 -9 262 -8 642 2 403 0 606 -7 606 -6 0
-46 -24 -90 -54 -300 -202 -497 -494 -572 -846 -25 -119 -24 -382 1 -499 95
-443 379 -793 781 -962 l90 -38 3 -1090 2 -1091 420 0 421 0 -3 1089 -3 1089
80 32 c167 67 306 160 440 295 186 186 319 441 366 705 19 107 17 354 -4 462
-36 179 -115 367 -214 506 -100 141 -281 307 -426 392 l-39 23 3 -636z m321
-12 c15 -22 42 -74 60 -115 l33 -75 0 -320 0 -320 -33 -81 c-93 -232 -234
-390 -470 -529 -94 -56 -135 -88 -209 -164 -56 -57 -95 -105 -98 -122 -4 -16
-11 -29 -16 -29 -5 0 -9 -9 -9 -19 0 -11 -4 -23 -10 -26 -7 -4 -10 -317 -10
-906 0 -892 0 -899 -20 -899 -17 0 -20 -7 -20 -40 l0 -40 -150 0 -150 0 0 40
c0 29 -4 40 -15 40 -13 0 -15 107 -15 899 0 589 -3 902 -10 906 -5 3 -10 15
-10 25 0 10 -3 20 -7 22 -5 2 -18 24 -31 49 -36 72 -154 183 -262 247 -141 83
-207 132 -291 219 -113 116 -199 262 -239 405 -18 64 -20 102 -20 326 0 246 1
255 26 332 35 105 100 205 134 205 17 0 26 -7 31 -25 4 -14 7 -152 8 -307 1
-176 5 -284 11 -288 6 -3 10 -16 10 -28 0 -68 95 -222 194 -315 109 -102 269
-166 476 -192 242 -29 521 12 695 104 127 66 282 265 308 396 5 25 12 180 16
346 4 165 11 306 15 313 14 22 50 7 78 -34z M5494 4260 c-84 -19 -136 -81
-141 -168 -3 -46 1 -65 19 -97 64 -109 310 -207 628 -250 166 -22 547 -31 723
-16 348 29 623 108 742 212 85 75 94 183 22 266 -71 81 -162 84 -266 8 -116
-85 -526 -145 -891 -130 -338 13 -546 56 -690 141 -61 35 -100 45 -146 34z
M3940 1440 l0 -1110 2503 0 2502 0 -3 1110 -2 1110 -418 0 -417 0 3 -415 3
-415 -1672 0 -1671 0 4 415 4 415 -418 0 -418 0 0 -1110z m610 590 c0 -153 4
-240 10 -240 6 0 10 -16 10 -35 0 -19 4 -35 8 -35 4 0 13 -15 20 -32 16 -44
124 -162 175 -193 23 -13 71 -29 107 -34 43 -7 488 -11 1307 -11 683 0 1248
-3 1257 -6 24 -9 19 -25 -25 -74 -101 -114 -159 -190 -190 -250 -31 -60 -33
-72 -34 -161 l0 -97 57 -113 58 -114 -21 -17 c-20 -17 -109 -18 -1560 -18
l-1539 0 0 835 0 835 180 0 180 0 0 -240z m4120 -220 l0 -461 -52 40 c-71 52
-143 87 -268 130 -124 42 -128 49 -81 143 17 34 31 76 31 95 0 18 5 33 10 33
6 0 10 87 10 240 l0 240 175 0 175 0 0 -460z m-375 -539 c112 -30 216 -82 276
-138 191 -178 67 -400 -276 -495 -68 -18 -106 -22 -255 -22 -152 -1 -186 2
-260 22 -181 49 -319 145 -354 248 -20 59 -20 79 0 138 40 118 204 220 419
262 106 20 348 12 450 -15z M3770 2489 c-512 -137 -945 -544 -1123 -1056 -78
-223 -97 -380 -97 -805 l0 -298 670 0 c369 0 670 2 670 4 0 2 -19 16 -42 32
-24 16 -51 37 -62 46 -24 21 -79 48 -100 48 -9 0 -16 5 -16 10 0 7 -148 10
-425 10 -371 0 -425 2 -425 15 0 11 -11 15 -40 15 l-41 0 3 368 3 367 38 110
c81 234 222 453 402 623 110 104 222 182 370 257 70 36 119 69 161 111 96 93
158 164 143 163 -8 0 -48 -9 -89 -20z M9100 2415 c52 -53 112 -105 133 -116
20 -11 37 -23 37 -27 0 -5 19 -16 43 -26 77 -34 222 -124 308 -191 210 -167
370 -386 464 -639 72 -196 75 -214 75 -578 0 -321 0 -328 -20 -328 -11 0 -20
-7 -20 -15 0 -13 -54 -15 -425 -15 -277 0 -425 -3 -425 -10 0 -5 -17 -10 -38
-10 -43 0 -112 -32 -192 -90 l-55 -40 674 0 673 0 -5 373 c-4 398 -11 463 -64
647 -53 185 -158 394 -278 551 -75 99 -250 267 -355 341 -166 118 -428 236
-585 263 l-40 7 95 -97z M6153 1943 c9 -2 25 -2 35 0 9 3 1 5 -18 5 -19 0 -27
-2 -17 -5z M6723 1943 c9 -2 25 -2 35 0 9 3 1 5 -18 5 -19 0 -27 -2 -17 -5z"/>
</g>
</svg>
