<?xml version="1.0" standalone="no"?>
<!DOCTYPE svg PUBLIC "-//W3C//DTD SVG 20010904//EN"
 "http://www.w3.org/TR/2001/REC-SVG-20010904/DTD/svg10.dtd">
<svg version="1.0" xmlns="http://www.w3.org/2000/svg"
 width="2048.000000pt" height="2048.000000pt" viewBox="0 0 2048.000000 2048.000000"
 preserveAspectRatio="xMidYMid meet">
<metadata>
Created by potrace 1.13, written by Peter Selinger 2001-2015
</metadata>
<g transform="translate(0.000000,2048.000000) scale(0.192120,-0.192120)"
fill="#000000" stroke="none">
<path d="M5000 10320 c-561 -39 -1063 -152 -1520 -343 -728 -303 -1237 -776
-1414 -1310 -50 -152 -61 -228 -61 -422 0 -196 12 -274 64 -428 70 -204 204
-428 343 -573 l40 -41 -36 -112 c-68 -214 -121 -506 -147 -806 -16 -181 -16
-1329 0 -1665 50 -1072 189 -1615 446 -1754 35 -18 55 -21 150 -20 184 2 365
53 945 262 107 39 260 91 340 115 143 45 145 45 148 76 l3 31 56 -61 c68 -73
231 -184 334 -227 242 -100 570 -137 869 -98 289 39 530 148 693 314 55 55 58
61 47 83 -7 13 -14 25 -15 27 -2 2 -58 -24 -126 -56 -297 -143 -548 -202 -858
-202 -327 0 -598 67 -914 227 -65 32 -70 33 -83 16 -12 -17 -13 -16 -14 12 0
27 -9 36 -67 72 -110 68 -270 202 -390 327 -327 340 -571 788 -698 1281 l-33
130 -79 5 c-99 7 -162 40 -242 125 -204 218 -260 664 -124 995 35 88 104 191
159 239 68 60 127 85 211 89 61 4 80 0 130 -22 34 -16 82 -50 114 -83 l57 -55
133 107 c211 170 248 204 531 483 l267 264 113 -7 c62 -4 129 -10 148 -15 19
-4 116 -46 215 -93 401 -189 768 -309 1070 -351 61 -8 187 -18 280 -21 94 -4
216 -13 273 -21 341 -46 649 -172 858 -351 l51 -43 41 54 c47 62 122 120 182
141 51 18 144 20 191 3 187 -63 335 -319 358 -618 15 -202 -16 -387 -93 -545
-101 -206 -258 -307 -422 -271 l-29 6 -23 -102 c-13 -57 -44 -163 -68 -235
-199 -601 -561 -1105 -1006 -1401 l-68 -45 0 -73 0 -72 118 -37 c127 -39 241
-79 597 -205 446 -159 663 -203 835 -170 297 56 399 334 440 1195 17 355 25
1979 11 2175 -23 307 -66 566 -134 804 l-35 119 85 96 c191 216 317 448 379
695 36 140 44 378 19 527 -35 212 -133 442 -273 639 -94 134 -327 365 -484
481 -532 394 -1238 643 -2048 724 -185 18 -665 27 -840 15z m-650 -413 c-1
-18 -7 -43 -15 -57 -10 -18 -14 -59 -14 -140 l-1 -115 45 -84 c25 -45 45 -89
45 -96 0 -24 -46 -43 -171 -70 -267 -57 -542 -135 -769 -218 -368 -133 -606
-250 -681 -333 -43 -48 -79 -107 -79 -132 0 -12 -7 -25 -15 -28 -12 -5 -15
-28 -15 -120 0 -107 -1 -114 -20 -114 -17 0 -20 -7 -20 -45 0 -42 -2 -46 -40
-65 -62 -32 -163 -133 -198 -199 -26 -48 -32 -70 -32 -123 0 -81 20 -125 80
-172 54 -43 94 -56 177 -56 l62 0 -83 -172 c-45 -95 -91 -193 -102 -217 l-20
-44 -33 134 c-18 74 -50 179 -72 235 -21 55 -39 111 -39 123 0 13 -9 40 -19
60 -10 20 -29 71 -41 113 -20 72 -21 95 -18 320 4 234 5 246 31 318 192 530
836 1008 1687 1249 168 48 352 90 363 84 4 -2 7 -19 7 -36z m2185 -9 c499
-123 983 -349 1305 -607 206 -164 391 -389 473 -571 67 -150 68 -161 65 -482
l-3 -293 -32 -90 c-18 -49 -33 -97 -33 -106 0 -9 -26 -71 -59 -138 -36 -75
-69 -162 -86 -229 -16 -59 -31 -110 -35 -114 -3 -5 -23 34 -45 85 -33 78 -160
345 -171 356 -2 2 -25 -12 -51 -32 -202 -147 -640 -262 -1283 -336 -450 -52
-1062 -76 -1555 -61 -365 12 -379 14 -405 51 -45 62 -196 104 -287 80 -26 -7
-53 -25 -72 -47 l-32 -36 -77 7 c-489 41 -1019 160 -1253 281 -88 46 -169 107
-157 119 3 3 68 -5 145 -19 221 -41 295 -45 943 -57 706 -13 3303 -5 3551 11
86 5 207 17 270 27 70 10 180 17 284 18 166 0 171 1 211 27 39 25 105 98 132
145 6 13 12 50 12 83 0 47 -5 69 -25 100 -14 22 -25 44 -25 50 0 24 -146 156
-193 176 -45 18 -47 20 -47 60 0 28 -5 44 -15 48 -12 4 -15 27 -15 116 0 67
-4 110 -10 110 -5 0 -10 11 -10 25 0 14 -4 25 -10 25 -5 0 -10 8 -10 18 0 22
-63 99 -117 143 -115 92 -539 270 -902 379 -148 44 -245 69 -549 140 -87 20
-112 33 -112 56 0 8 19 54 42 102 39 79 43 95 46 177 3 73 0 101 -17 145 -12
30 -21 68 -21 83 0 27 2 28 38 21 20 -3 109 -24 197 -46z m-1752 -2 c18 -7 44
-25 59 -40 23 -23 38 -28 100 -33 99 -7 228 18 276 55 31 24 44 27 111 27 67
0 81 -3 117 -28 57 -38 168 -60 268 -53 67 5 82 9 105 32 36 37 81 54 141 54
115 0 200 -87 200 -205 0 -106 -67 -187 -170 -204 l-35 -6 -7 -133 c-26 -502
-237 -840 -563 -903 -138 -26 -335 65 -450 209 -132 166 -209 408 -222 695 -6
136 -6 137 -30 137 -32 0 -93 26 -121 53 -83 77 -83 229 0 303 58 53 151 70
221 40z m-116 -670 c-23 -58 -47 -154 -47 -184 0 -57 29 -160 70 -249 94 -203
211 -322 435 -443 52 -28 95 -55 95 -60 0 -32 -72 -34 -1145 -38 -588 -1
-1072 -6 -1075 -10 -12 -16 -151 -82 -160 -77 -6 4 -10 105 -10 253 l0 247 78
42 c379 205 1012 416 1492 497 234 40 275 44 267 22z m1472 -2 c500 -73 1058
-245 1519 -470 l172 -84 0 -260 c0 -143 -4 -260 -8 -260 -4 0 -12 4 -18 9 -15
16 -132 71 -148 71 -9 0 -16 5 -16 10 0 7 -344 10 -1012 10 -1040 0 -1188 5
-1188 41 0 5 33 25 73 45 92 47 219 129 279 183 89 79 185 236 230 376 30 96
29 180 -6 269 -14 37 -26 70 -26 72 0 7 42 4 149 -12z m1890 -1132 c99 -50
105 -177 12 -239 l-34 -23 -2677 0 -2677 0 -34 23 c-93 62 -87 189 12 239 32
17 182 18 2699 18 2517 0 2667 -1 2699 -18z m-5100 -691 c148 -58 250 -90 422
-131 93 -22 394 -80 415 -80 11 0 10 -38 -1 -61 -40 -76 -348 -349 -412 -366
-29 -7 -65 2 -158 38 -49 19 -79 24 -161 24 -98 0 -103 -1 -185 -42 -59 -29
-109 -64 -166 -117 -44 -42 -84 -76 -88 -76 -18 0 3 247 28 345 50 192 67 289
67 376 0 79 2 90 25 117 33 39 51 37 214 -27z m4948 5 c27 -24 28 -27 35 -158
3 -73 11 -153 16 -178 6 -25 20 -85 31 -133 14 -60 21 -122 21 -194 l0 -106
-32 27 c-147 120 -217 155 -329 163 -84 7 -153 -9 -250 -58 -124 -62 -122 -62
-290 25 -157 81 -285 134 -418 173 -109 32 -310 73 -386 80 -33 3 -64 9 -70
13 -5 4 -25 11 -44 15 -69 15 34 38 264 60 521 50 891 121 1220 234 94 33 178
60 187 60 9 1 30 -10 45 -23z m-5259 -2200 c85 -104 154 -164 241 -210 37 -19
75 -44 84 -54 10 -11 38 -73 63 -138 24 -66 56 -150 71 -189 36 -94 163 -360
209 -437 154 -260 306 -460 482 -636 97 -97 101 -114 32 -148 -79 -39 -601
-221 -700 -244 -52 -12 -131 -23 -176 -24 -71 -1 -85 2 -120 25 -88 58 -161
274 -214 633 -50 339 -53 379 -57 954 -3 368 -1 552 5 552 6 0 42 -38 80 -84z
m5420 -803 c-4 -799 -4 -821 -26 -928 -28 -137 -46 -196 -83 -261 -39 -68 -78
-87 -190 -92 -115 -5 -230 17 -419 83 -553 190 -580 201 -580 234 0 10 14 30
31 47 17 16 74 76 126 133 289 318 502 680 653 1106 46 129 81 205 102 221 7
6 39 20 71 32 82 31 165 91 239 172 34 38 67 70 71 70 4 0 6 -368 5 -817z
M4304 6056 c-61 -19 -110 -61 -139 -119 -24 -49 -25 -58 -25 -226 1 -164 2
-179 24 -221 88 -173 328 -167 422 10 17 30 19 59 19 215 0 167 -2 183 -22
222 -29 54 -86 100 -147 118 -59 18 -78 18 -132 1z M6183 6056 c-61 -20 -100
-52 -133 -109 l-30 -52 0 -178 c0 -192 5 -216 55 -275 85 -102 253 -104 347
-5 49 51 61 96 66 244 5 164 -7 233 -51 291 -58 76 -168 112 -254 84z M5008
4890 c-37 -28 -51 -72 -46 -137 4 -48 10 -61 37 -85 l31 -28 281 0 281 0 34
34 c32 32 34 38 34 101 0 63 -2 69 -34 101 l-34 34 -280 0 c-263 0 -281 -1
-304 -20z M4655 4346 c-93 -41 -140 -156 -101 -249 35 -84 235 -209 416 -260
359 -102 796 -21 1016 188 59 56 80 110 69 176 -17 100 -120 173 -218 155 -18
-3 -70 -31 -115 -60 -146 -97 -282 -132 -467 -123 -164 9 -281 47 -381 123
-83 64 -152 79 -219 50z m188 -230 c20 -10 37 -23 37 -29 0 -6 3 -8 6 -4 8 8
34 -18 34 -35 0 -8 -3 -9 -8 -3 -4 6 -16 12 -27 13 -40 7 -115 54 -115 72 0
11 33 5 73 -14z m957 -1 c0 -9 -11 -20 -25 -25 -14 -5 -25 -15 -25 -21 0 -7
-3 -10 -6 -6 -3 3 -17 2 -30 -3 -37 -14 -31 12 9 35 17 11 35 20 39 20 3 0 10
3 14 8 12 12 24 8 24 -8z m-123 -67 c-3 -8 -6 -5 -6 6 -1 11 2 17 5 13 3 -3 4
-12 1 -19z m-730 -10 c-3 -8 -6 -5 -6 6 -1 11 2 17 5 13 3 -3 4 -12 1 -19z
M4297 3175 c-3 -51 -3 -138 0 -194 3 -55 3 -101 -1 -101 -7 0 -82 58 -217 167
-85 68 -102 68 -165 1 -50 -53 -116 -153 -129 -195 -6 -22 -11 -23 -118 -23
-62 0 -157 -5 -211 -10 -72 -7 -103 -7 -113 2 -31 25 -102 11 -398 -81 -165
-51 -444 -138 -619 -192 -176 -55 -330 -106 -344 -115 -13 -9 -33 -36 -44 -61
l-20 -45 38 -119 38 -119 -21 -22 c-95 -106 -198 -321 -245 -518 -20 -80 -21
-121 -25 -652 l-4 -568 3613 0 3614 0 -3 398 c-6 730 -7 765 -36 872 -43 157
-115 310 -208 436 l-38 52 35 96 c18 53 34 116 34 139 0 47 -27 99 -61 117
-20 11 -524 169 -1051 330 l-238 72 -48 -15 c-39 -13 -65 -14 -142 -7 -52 5
-137 10 -187 10 l-93 0 -15 36 c-23 56 -101 169 -141 203 -19 17 -45 31 -57
31 -14 0 -71 -39 -142 -95 -66 -52 -139 -109 -162 -126 l-43 -30 0 205 c0 137
-4 206 -10 206 -19 0 -64 -27 -87 -52 -33 -35 -74 -131 -86 -204 -13 -75 -2
-131 38 -194 25 -40 26 -40 54 -26 27 14 30 14 51 -9 52 -55 117 -55 235 -1
110 51 115 51 209 13 53 -22 99 -34 125 -33 l41 1 0 -55 c0 -206 -355 -1507
-416 -1527 -6 -2 -49 41 -97 96 -240 272 -641 619 -968 835 l-87 58 -113 -78
c-298 -203 -491 -364 -776 -650 -183 -182 -233 -238 -233 -258 0 -14 5 -26 12
-26 33 0 256 142 453 289 l120 89 21 -46 c11 -26 52 -99 89 -162 l68 -114 -22
-36 c-90 -147 -175 -358 -227 -561 -21 -79 -41 -148 -45 -153 -5 -5 -33 8 -66
31 -115 80 20 73 -1343 73 -1078 0 -1220 2 -1220 15 0 11 -11 15 -40 15 l-41
0 3 498 3 497 32 65 c48 99 76 120 165 130 101 12 184 34 539 144 167 52 356
108 419 124 226 58 342 116 450 226 30 31 59 56 65 56 22 0 48 -73 110 -309
98 -379 176 -634 215 -711 45 -87 152 -170 199 -155 19 6 18 7 -4 48 -93 168
-373 1207 -401 1490 l-7 67 31 -6 c39 -8 108 9 181 43 l55 27 91 -32 c114 -41
150 -41 195 -2 37 31 60 36 90 20 16 -9 22 -2 46 46 38 77 38 154 0 256 -29
80 -68 130 -115 146 l-28 10 -6 -93z m-1053 -489 c18 -8 46 -31 62 -52 24 -31
29 -47 29 -94 0 -47 -5 -63 -29 -94 -32 -43 -78 -66 -131 -66 -74 0 -144 62
-152 134 -7 58 1 87 34 127 47 56 119 73 187 45z m4304 -13 c51 -38 67 -70 67
-133 0 -44 -5 -66 -21 -87 -74 -100 -201 -98 -271 6 -52 77 -13 192 77 230 37
16 117 7 148 -16z m-4063 -156 c22 -69 24 -84 13 -119 -17 -56 -55 -83 -171
-119 -56 -17 -199 -61 -317 -99 -494 -157 -838 -260 -866 -260 -34 0 -88 31
-103 58 -9 17 -3 26 42 65 57 49 97 113 97 158 0 18 5 29 14 29 8 0 17 10 20
23 8 30 80 62 235 104 69 18 165 45 213 59 108 33 133 29 223 -37 107 -79 144
-92 250 -93 104 0 157 18 224 79 61 55 75 103 67 227 l-6 103 20 -50 c11 -27
32 -85 45 -128z m3729 79 c-4 -51 -4 -109 0 -128 9 -50 76 -122 144 -154 48
-24 70 -28 142 -29 100 0 156 22 254 99 80 62 112 70 183 45 30 -10 108 -33
172 -50 193 -52 285 -79 291 -88 3 -4 13 -10 23 -14 9 -3 17 -15 17 -26 0 -10
7 -21 15 -25 8 -3 15 -15 15 -27 0 -54 26 -106 77 -156 46 -46 52 -56 43 -73
-14 -26 -61 -50 -98 -50 -27 0 -352 98 -877 265 -110 35 -247 78 -305 95 -116
35 -154 62 -171 121 -10 33 -7 50 31 163 23 69 44 126 46 126 2 0 1 -42 -2
-94z m-126 -352 c94 -88 230 -149 452 -204 47 -12 236 -68 420 -125 184 -57
382 -113 439 -125 121 -24 128 -27 170 -76 38 -42 45 -59 79 -179 25 -89 25
-96 29 -517 4 -427 4 -428 -16 -428 -12 0 -21 -7 -21 -15 0 -13 -149 -15
-1227 -18 -812 -2 -1242 -7 -1270 -14 -22 -5 -69 -29 -102 -51 -33 -23 -64
-42 -69 -42 -4 0 -18 39 -31 88 -39 142 -129 397 -190 537 l-57 131 54 89 c67
110 107 185 114 213 6 20 20 12 165 -89 167 -117 374 -251 419 -271 22 -10 28
-10 32 0 2 6 17 12 34 12 71 0 148 82 198 211 40 104 128 405 191 649 52 206
64 244 85 264 22 22 44 14 102 -40z m-1613 -329 c138 -77 255 -202 255 -272 0
-74 -94 -319 -143 -371 -40 -43 -55 -46 -252 -48 -210 -2 -223 1 -264 61 -30
45 -64 129 -97 243 l-26 93 30 62 c56 114 221 254 327 277 43 9 101 -6 170
-45z m13 -856 c61 -29 158 -127 207 -208 39 -65 125 -264 125 -291 0 -13 -52
-15 -422 -12 -337 2 -437 0 -490 -11 -38 -8 -68 -13 -68 -11 0 2 10 32 21 66
31 91 102 230 154 303 129 181 308 243 473 164z"/>
</g>
</svg>
