<?xml version="1.0" standalone="no"?>
<!DOCTYPE svg PUBLIC "-//W3C//DTD SVG 20010904//EN"
 "http://www.w3.org/TR/2001/REC-SVG-20010904/DTD/svg10.dtd">
<svg version="1.0" xmlns="http://www.w3.org/2000/svg"
 width="2048.000000pt" height="2048.000000pt" viewBox="0 0 2048.000000 2048.000000"
 preserveAspectRatio="xMidYMid meet">
<metadata>
Created by potrace 1.13, written by Peter Selinger 2001-2015
</metadata>
<g transform="translate(0.000000,2048.000000) scale(0.192120,-0.192120)"
fill="#000000" stroke="none">
<path d="M6332 10314 c-70 -18 -106 -38 -158 -86 -47 -43 -84 -101 -103 -160
-12 -35 -16 -38 -50 -38 -60 0 -268 -29 -394 -56 -685 -144 -1153 -475 -1415
-999 -133 -268 -214 -585 -242 -950 -20 -264 -30 -360 -45 -430 -65 -303 -30
-846 74 -1149 50 -145 140 -266 197 -266 60 0 69 16 113 200 48 204 158 500
186 500 6 0 135 62 286 138 271 137 438 206 624 259 96 27 97 27 129 9 17 -10
74 -40 126 -67 263 -132 399 -93 400 114 0 40 4 67 11 67 5 0 69 -55 142 -121
308 -283 478 -393 545 -351 51 33 23 188 -74 400 -19 41 -34 76 -34 78 0 11
21 0 70 -37 97 -73 294 -155 487 -204 189 -47 536 -96 794 -111 110 -6 120 -9
179 -43 l63 -36 194 -382 c213 -419 243 -463 309 -463 86 0 161 160 198 420
31 212 37 312 43 650 4 281 2 367 -11 465 -8 66 -23 188 -31 270 -103 993
-649 1702 -1523 1979 -165 52 -467 114 -559 116 -7 0 -13 6 -13 13 0 29 -62
139 -99 176 -96 96 -269 136 -419 95z m565 -461 c16 -34 41 -67 59 -79 17 -11
107 -40 200 -63 291 -75 479 -149 664 -261 417 -251 696 -634 821 -1129 24
-93 29 -134 29 -230 0 -64 -4 -121 -8 -127 -28 -44 -1334 -107 -2202 -108
-678 0 -1580 35 -2040 80 -225 22 -200 -1 -200 179 0 155 11 243 51 395 121
462 384 788 806 999 191 96 345 146 642 210 97 21 192 45 212 54 38 16 73 57
90 107 l11 30 419 0 418 0 28 -57z m-2692 -2068 c440 -51 779 -70 1555 -86
1190 -25 2387 13 3010 95 58 7 106 13 107 12 1 0 -13 -33 -30 -71 -27 -61 -31
-81 -31 -155 0 -97 12 -132 74 -213 l41 -55 -21 -56 c-44 -117 -119 -196 -227
-236 -47 -18 -74 -21 -144 -18 l-87 3 -258 131 c-445 227 -706 314 -1119 373
-419 60 -958 53 -1365 -20 -345 -61 -550 -133 -959 -337 l-293 -147 -102 0
c-89 0 -108 3 -158 27 -110 51 -190 165 -224 318 l-17 72 51 51 c91 94 102
151 52 268 -29 68 -29 69 -7 64 12 -2 81 -11 152 -20z m2303 -362 c-32 -2 -84
-2 -115 0 -32 2 -6 3 57 3 63 0 89 -1 58 -3z m-2282 -509 c80 -30 108 -50 54
-39 -37 7 -118 44 -126 57 -7 12 -3 11 72 -18z m4519 -9 c-63 -39 -194 -58
-249 -36 -29 11 -10 18 75 25 41 4 100 13 130 21 80 19 88 17 44 -10z M3887
6478 c-104 -129 -162 -304 -174 -518 -15 -273 68 -530 219 -679 43 -43 124
-91 152 -91 17 0 18 -1 41 -145 120 -719 512 -1396 1038 -1790 l62 -47 5 -377
5 -376 32 -67 c39 -83 104 -154 196 -215 379 -252 1188 -310 1716 -124 219 77
361 183 428 319 l38 76 5 380 5 380 85 65 c47 35 148 128 225 205 296 297 506
635 662 1066 44 122 117 409 134 525 15 109 20 122 58 130 47 10 135 80 184
145 120 159 175 366 164 614 -4 81 -14 164 -27 216 -24 97 -95 248 -141 300
l-31 35 7 -45 c21 -153 24 -210 19 -378 -10 -373 -48 -490 -218 -672 -132
-140 -167 -205 -207 -375 -32 -138 -115 -381 -219 -640 -109 -272 -134 -318
-279 -515 -54 -73 -121 -143 -372 -385 -168 -161 -209 -240 -180 -341 9 -31 8
-31 -78 -81 -299 -174 -638 -263 -1001 -263 -327 0 -622 70 -910 216 -168 85
-165 82 -165 161 0 115 -57 200 -257 381 -181 163 -332 353 -450 567 -169 303
-256 541 -338 915 -33 149 -68 208 -204 345 -122 123 -148 171 -191 356 -24
104 -17 607 11 742 8 39 -9 34 -49 -15z m1576 -3574 c274 -196 640 -289 1074
-270 362 15 657 107 892 276 46 34 86 59 88 56 3 -3 -6 -54 -21 -113 -20 -85
-26 -133 -26 -225 0 -67 -4 -119 -10 -123 -5 -3 -10 -17 -10 -31 0 -89 -137
-193 -348 -264 -399 -133 -969 -124 -1367 22 -159 58 -296 157 -310 223 -3 17
-10 44 -15 61 -6 17 -10 89 -10 160 0 98 -5 149 -20 205 -21 81 -23 89 -15 89
4 0 47 -30 98 -66z M5234 6424 c-58 -21 -120 -77 -152 -138 -27 -51 -27 -52
-27 -261 0 -178 3 -216 18 -247 24 -53 72 -104 126 -136 40 -24 57 -27 131
-27 74 0 91 3 131 27 54 32 102 83 126 136 15 31 18 69 18 247 0 209 0 210
-27 261 -66 126 -213 185 -344 138z M7464 6428 c-60 -20 -127 -80 -159 -143
l-30 -59 0 -200 c0 -200 0 -201 28 -258 50 -102 142 -158 256 -158 107 1 213
76 251 178 17 46 20 78 20 236 0 211 -8 249 -72 321 -56 63 -107 87 -193 91
-38 2 -84 -2 -101 -8z M6160 5249 c-145 -58 -180 -242 -66 -347 63 -58 105
-65 381 -60 l230 3 47 28 c113 66 138 211 55 312 -58 70 -79 75 -367 74 -143
0 -266 -5 -280 -10z M2271 4287 l3 -635 -25 -36 c-79 -117 -315 -197 -589
-198 -212 -1 -357 28 -493 99 -76 40 -122 89 -137 145 -7 23 -9 262 -8 642 2
403 0 606 -7 606 -6 0 -46 -24 -90 -54 -300 -202 -497 -494 -572 -846 -25
-119 -24 -382 1 -499 95 -443 379 -793 781 -962 l90 -38 3 -1090 2 -1091 420
0 421 0 -3 1089 -3 1089 80 32 c167 67 306 160 440 295 186 186 319 441 366
705 19 107 17 354 -4 462 -36 179 -115 367 -214 506 -100 141 -281 307 -426
392 l-39 23 3 -636z m321 -12 c15 -22 42 -74 60 -115 l33 -75 0 -320 0 -320
-33 -81 c-93 -232 -234 -390 -470 -529 -94 -56 -135 -88 -209 -164 -56 -57
-95 -105 -98 -122 -4 -16 -11 -29 -16 -29 -5 0 -9 -9 -9 -19 0 -11 -4 -23 -10
-26 -7 -4 -10 -317 -10 -906 0 -892 0 -899 -20 -899 -17 0 -20 -7 -20 -40 l0
-40 -150 0 -150 0 0 40 c0 29 -4 40 -15 40 -13 0 -15 107 -15 899 0 589 -3
902 -10 906 -5 3 -10 15 -10 25 0 10 -3 20 -7 22 -5 2 -18 24 -31 49 -36 72
-154 183 -262 247 -141 83 -207 132 -291 219 -113 116 -199 262 -239 405 -18
64 -20 102 -20 326 0 246 1 255 26 332 35 105 100 205 134 205 17 0 26 -7 31
-25 4 -14 7 -152 8 -307 1 -176 5 -284 11 -288 6 -3 10 -16 10 -28 0 -68 95
-222 194 -315 109 -102 269 -166 476 -192 242 -29 521 12 695 104 127 66 282
265 308 396 5 25 12 180 16 346 4 165 11 306 15 313 14 22 50 7 78 -34z M5515
4265 c-5 -2 -22 -6 -37 -9 -37 -8 -98 -63 -114 -103 -21 -49 -17 -112 9 -158
62 -110 308 -207 637 -251 168 -23 655 -26 820 -6 297 37 531 112 635 203 85
75 94 183 22 266 -71 81 -162 84 -265 9 -127 -94 -572 -153 -964 -128 -305 19
-488 60 -618 137 -51 31 -102 47 -125 40z M3940 1440 l0 -1110 2503 0 2502 0
-3 1110 -2 1110 -418 0 -417 0 3 -415 3 -415 -1672 0 -1671 0 4 415 4 415
-418 0 -418 0 0 -1110z m610 590 c0 -153 4 -240 10 -240 6 0 10 -16 10 -35 0
-19 4 -35 8 -35 4 0 13 -15 20 -32 16 -44 124 -162 175 -193 23 -13 71 -29
107 -34 43 -7 488 -11 1307 -11 683 0 1248 -3 1257 -6 24 -9 19 -25 -25 -74
-101 -114 -159 -190 -190 -250 -31 -60 -33 -72 -34 -161 l0 -97 57 -113 58
-114 -21 -17 c-20 -17 -109 -18 -1560 -18 l-1539 0 0 835 0 835 180 0 180 0 0
-240z m4120 -220 l0 -461 -52 40 c-71 52 -143 87 -268 130 -124 42 -128 49
-81 143 17 34 31 76 31 95 0 18 5 33 10 33 6 0 10 87 10 240 l0 240 175 0 175
0 0 -460z m-375 -539 c112 -30 216 -82 276 -138 191 -178 67 -400 -276 -495
-68 -18 -106 -22 -255 -22 -152 -1 -186 2 -260 22 -181 49 -319 145 -354 248
-20 59 -20 79 0 138 40 118 204 220 419 262 106 20 348 12 450 -15z M4836
2541 c23 -22 139 -91 169 -101 28 -9 40 -8 79 11 25 12 60 39 77 60 l31 39
-183 0 c-109 0 -179 -4 -173 -9z M7700 2543 c2 -32 101 -106 140 -105 31 1
122 43 184 85 l39 27 -182 0 c-99 0 -181 -3 -181 -7z M3770 2489 c-512 -137
-945 -544 -1123 -1056 -78 -223 -97 -380 -97 -805 l0 -298 670 0 c369 0 670 2
670 4 0 2 -19 16 -42 32 -24 16 -51 37 -62 46 -24 21 -79 48 -100 48 -9 0 -16
5 -16 10 0 7 -148 10 -425 10 -371 0 -425 2 -425 15 0 11 -11 15 -40 15 l-41
0 3 368 3 367 38 110 c81 234 222 453 402 623 110 104 222 182 370 257 70 36
119 69 161 111 96 93 158 164 143 163 -8 0 -48 -9 -89 -20z M9100 2415 c52
-53 112 -105 133 -116 20 -11 37 -23 37 -27 0 -5 19 -16 43 -26 77 -34 222
-124 308 -191 210 -167 370 -386 464 -639 72 -196 75 -214 75 -578 0 -321 0
-328 -20 -328 -11 0 -20 -7 -20 -15 0 -13 -54 -15 -425 -15 -277 0 -425 -3
-425 -10 0 -5 -17 -10 -38 -10 -43 0 -112 -32 -192 -90 l-55 -40 674 0 673 0
-5 373 c-4 398 -11 463 -64 647 -53 185 -158 394 -278 551 -75 99 -250 267
-355 341 -166 118 -428 236 -585 263 l-40 7 95 -97z"/>
</g>
</svg>
