<?xml version="1.0" standalone="no"?>
<!DOCTYPE svg PUBLIC "-//W3C//DTD SVG 20010904//EN"
 "http://www.w3.org/TR/2001/REC-SVG-20010904/DTD/svg10.dtd">
<svg version="1.0" xmlns="http://www.w3.org/2000/svg"
 width="2048.000000pt" height="2048.000000pt" viewBox="0 0 2048.000000 2048.000000"
 preserveAspectRatio="xMidYMid meet">
<metadata>
Created by potrace 1.13, written by Peter Selinger 2001-2015
</metadata>
<g transform="translate(0.000000,2048.000000) scale(0.192120,-0.192120)"
fill="#000000" stroke="none">
<path d="M920 10319 c-164 -14 -380 -53 -547 -98 l-43 -12 0 -4939 0 -4940
2086 0 2085 0 -4 768 c-3 674 -5 775 -20 837 -59 245 -149 409 -316 576 -104
103 -201 172 -320 226 -80 37 -243 83 -292 83 -35 0 -36 10 -6 47 80 96 239
348 315 499 135 270 245 597 302 899 52 279 53 302 57 1390 2 561 1 1035 -2
1053 -6 31 -9 33 -33 27 -67 -16 -110 -44 -143 -91 l-34 -49 -6 -1005 c-4
-553 -10 -1021 -14 -1040 -3 -19 -17 -102 -31 -185 -64 -398 -197 -768 -390
-1087 -141 -232 -177 -335 -140 -409 9 -17 16 -34 16 -36 0 -2 -368 -2 -817
-1 l-818 3 3 30 c2 17 8 34 13 39 5 6 9 25 9 43 0 18 5 33 10 33 6 0 10 28 10
65 0 44 4 66 14 72 8 4 15 16 17 26 3 10 42 35 104 65 308 146 504 282 734
506 234 229 395 454 531 740 56 118 70 152 126 311 38 107 83 286 104 419 19
113 20 173 20 954 0 548 -3 832 -10 832 -5 0 -10 6 -10 14 0 22 -70 96 -111
117 -55 28 -105 36 -312 54 -692 58 -1257 199 -1762 439 -272 130 -564 326
-680 456 l-45 51 0 954 0 955 40 6 c30 5 40 11 40 25 0 22 6 23 150 46 175 27
587 25 770 -4 391 -62 734 -184 1086 -388 172 -100 194 -108 283 -103 42 3 94
12 115 22 39 16 39 16 20 38 -10 11 -59 51 -109 88 -575 428 -1329 642 -2045
579z m-432 -2362 c468 -395 1022 -656 1717 -811 328 -73 772 -129 1105 -139
l75 -2 3 -695 c2 -426 -1 -756 -8 -853 -24 -353 -98 -631 -249 -942 -201 -411
-494 -743 -878 -996 -140 -91 -326 -188 -455 -235 l-78 -29 0 -390 c0 -451 -8
-513 -80 -664 -119 -249 -337 -417 -604 -468 -97 -18 -270 -13 -361 12 -71 19
-208 84 -250 118 l-29 24 37 54 c20 30 37 60 37 67 0 6 5 12 10 12 14 0 14
1436 0 1445 -5 3 -10 14 -10 24 0 18 -26 72 -94 194 -21 37 -35 67 -31 67 3 0
56 -13 118 -29 163 -43 253 -54 432 -54 306 0 566 75 787 224 80 55 208 177
270 259 l50 65 -826 3 c-454 1 -826 5 -826 8 0 3 27 46 60 96 33 49 60 99 60
109 0 10 5 19 10 19 11 0 14 282 3 294 -4 3 -14 34 -24 69 -9 34 -24 87 -33
117 -26 89 -21 188 14 294 17 50 35 99 40 108 6 11 10 460 10 1203 0 1284 4
1181 -52 1350 -37 113 -46 145 -41 145 2 0 44 -33 91 -73z m517 -4017 c0 -12
-21 -16 -117 -18 -113 -3 -118 -2 -118 18 0 20 5 21 118 18 96 -2 117 -6 117
-18z m2311 -1195 c62 -14 124 -46 203 -103 23 -17 77 -45 119 -63 170 -70 263
-127 355 -216 101 -98 179 -215 222 -334 54 -152 55 -160 55 -835 0 -617 0
-624 -20 -624 -11 0 -20 -7 -20 -15 0 -13 -39 -15 -295 -15 -190 0 -295 -4
-295 -10 0 -5 -20 -10 -45 -10 -25 0 -45 -4 -45 -10 0 -5 -8 -10 -17 -10 -9 0
-44 -15 -79 -34 l-62 -35 -7 157 c-4 86 -6 313 -3 505 l5 347 -139 0 -138 0 0
-487 c0 -293 -4 -494 -10 -503 -8 -12 -13 -13 -27 -3 -10 7 -38 23 -63 35 -25
13 -46 26 -48 31 -2 4 -12 7 -23 7 -10 0 -19 5 -19 10 0 7 -383 10 -1130 10
-998 0 -1130 2 -1130 15 0 11 -12 15 -45 15 l-45 0 0 504 0 504 45 -14 c42
-12 45 -12 45 5 0 16 5 17 77 5 236 -39 470 13 691 153 72 45 215 189 267 268
106 162 174 405 175 628 0 69 3 89 15 93 8 4 15 15 15 25 0 18 19 19 678 19
556 0 688 -3 738 -15z M1910 6705 c-57 -18 -122 -73 -158 -133 -27 -47 -27
-49 -30 -255 -3 -201 -3 -209 21 -260 53 -114 132 -167 251 -167 87 0 154 29
207 87 65 72 71 101 67 338 -3 236 -7 252 -80 324 -71 71 -178 97 -278 66z
M543 5174 c-99 -49 -95 -195 7 -247 32 -16 64 -17 345 -15 280 3 314 5 338 21
91 59 87 196 -6 240 -30 15 -76 17 -344 17 -262 0 -313 -3 -340 -16z M4070
10315 c-544 -86 -968 -490 -1086 -1035 -14 -64 -19 -127 -18 -255 0 -146 4
-190 28 -310 75 -373 217 -703 456 -1060 379 -563 954 -1097 1525 -1414 115
-64 329 -161 355 -161 8 0 67 23 130 50 625 273 1340 902 1773 1560 218 332
355 654 428 1005 30 145 34 176 34 330 0 128 -5 191 -19 255 -101 464 -427
834 -864 980 -466 155 -967 43 -1321 -296 -43 -40 -95 -98 -116 -128 -22 -30
-42 -55 -45 -55 -3 0 -23 25 -45 55 -51 72 -173 188 -266 254 -271 191 -627
276 -949 225z m310 -275 c181 -19 357 -80 500 -173 35 -23 116 -86 180 -139
238 -201 295 -205 501 -31 190 162 282 221 435 279 378 142 850 58 1133 -200
103 -95 294 -322 325 -386 l31 -65 3 -297 c3 -290 2 -299 -23 -405 -95 -394
-316 -798 -674 -1228 -156 -188 -267 -291 -416 -389 -77 -51 -205 -142 -285
-202 -342 -260 -640 -427 -760 -427 -123 0 -389 148 -773 430 -81 60 -195 137
-254 172 -91 54 -130 86 -243 200 -458 460 -793 1026 -890 1502 -19 92 -21
131 -18 363 l3 261 32 67 c35 75 165 232 304 368 167 164 404 274 645 299 112
12 137 12 244 1z M9230 10319 c-538 -47 -1084 -250 -1515 -564 -55 -40 -111
-85 -124 -99 l-24 -26 37 -15 c58 -25 153 -30 206 -12 67 23 98 37 168 80 338
203 710 337 1107 399 204 32 607 31 812 0 165 -26 173 -28 173 -52 0 -10 9
-20 20 -23 20 -5 20 -14 20 -1247 0 -1237 0 -1242 -20 -1237 -17 4 -20 0 -20
-34 0 -21 -4 -39 -9 -39 -28 0 -267 92 -404 155 -402 186 -738 425 -997 707
-123 134 -223 225 -267 244 -121 52 -193 -29 -302 -341 -177 -507 -381 -796
-694 -982 -114 -68 -180 -130 -218 -208 -25 -52 -29 -71 -29 -147 0 -52 -4
-88 -10 -88 -7 0 -10 -167 -10 -481 0 -476 0 -481 -20 -476 -13 3 -20 0 -20
-9 0 -92 -197 259 -279 496 -22 63 -51 153 -64 200 -45 155 -68 195 -139 231
-20 10 -55 23 -77 28 -41 9 -41 9 -41 -20 0 -110 123 -525 219 -736 135 -299
337 -603 546 -823 63 -67 73 -82 80 -125 22 -147 125 -431 226 -625 201 -383
516 -723 886 -956 109 -69 342 -186 428 -214 l65 -22 0 -191 c0 -106 4 -198 9
-206 12 -19 121 30 128 59 3 11 9 17 14 14 5 -3 9 69 9 165 0 94 -3 171 -8
171 -4 0 -18 20 -31 45 -47 89 -118 141 -352 256 -162 80 -239 125 -319 185
-288 217 -546 533 -710 869 -32 66 -84 199 -116 295 -31 96 -63 188 -71 203
-26 53 -83 105 -137 127 -48 19 -54 25 -60 58 -21 126 -27 379 -24 1025 l3
708 67 23 c243 85 480 312 660 631 102 181 227 505 279 725 12 52 25 99 29
103 4 4 27 -23 52 -60 343 -515 966 -945 1740 -1199 161 -53 161 -52 118 -114
-39 -55 -40 -82 -40 -957 l0 -853 35 -104 c43 -128 47 -216 14 -322 -12 -38
-25 -74 -30 -79 -4 -6 -11 -30 -15 -53 -4 -23 -11 -45 -15 -48 -13 -8 -11
-304 1 -304 6 0 10 -9 10 -19 0 -11 6 -26 13 -33 7 -7 33 -44 59 -83 l46 -70
-820 -5 -820 -5 50 -65 c304 -400 858 -572 1430 -444 64 14 126 30 139 35 12
5 23 6 23 3 0 -4 -21 -45 -92 -178 -15 -28 -28 -59 -28 -68 0 -10 -4 -18 -10
-18 -7 0 -10 -170 -10 -489 0 -316 4 -492 10 -496 6 -3 10 -19 10 -35 0 -42
13 -70 54 -115 19 -22 36 -44 36 -48 0 -4 -20 -42 -44 -85 -58 -102 -445 -765
-449 -769 -2 -1 -190 310 -418 692 l-414 695 -920 -3 -920 -2 -96 -27 c-207
-57 -371 -150 -512 -290 -164 -163 -256 -331 -314 -573 -15 -62 -17 -163 -20
-837 l-4 -768 2085 0 2086 0 0 4943 0 4942 -124 28 c-342 79 -662 103 -976 76z
m808 -6335 c16 -5 22 -14 22 -35 0 -25 -4 -29 -37 -34 -21 -4 -54 -11 -73 -16
-82 -22 -222 -22 -350 0 -184 32 -245 69 -134 82 66 8 543 10 572 3z m-1209
-1407 c73 -40 76 -44 382 -554 219 -364 281 -462 328 -517 56 -65 128 -127
177 -153 l51 -27 47 18 c31 12 77 46 136 102 87 83 126 106 142 81 4 -6 8
-222 8 -479 0 -461 0 -468 -20 -468 -11 0 -20 -7 -20 -15 0 -13 -132 -15
-1125 -15 -743 0 -1125 -3 -1125 -10 0 -5 -20 -10 -45 -10 -25 0 -45 -4 -45
-10 0 -5 -6 -10 -13 -10 -7 0 -42 -17 -79 -39 l-66 -39 -6 30 c-3 17 -6 244
-6 504 l0 474 -140 0 -140 0 0 -504 0 -504 -72 41 c-40 23 -74 45 -76 49 -2 5
-12 8 -23 8 -10 0 -19 5 -19 10 0 6 -103 10 -290 10 -251 0 -290 2 -290 15 0
11 -12 15 -45 15 l-46 0 3 693 3 692 34 79 c134 310 396 506 732 545 41 5 421
8 844 7 727 -1 772 -2 804 -19z M8563 6699 c-60 -23 -120 -78 -148 -134 -18
-35 -20 -65 -23 -250 -4 -237 2 -266 67 -338 53 -58 120 -87 207 -87 118 0
198 52 250 165 22 47 24 62 24 241 0 231 -8 263 -85 341 -81 81 -185 103 -292
62z M9431 5173 c-51 -25 -73 -67 -68 -131 3 -38 10 -59 28 -78 47 -52 65 -54
386 -54 264 0 302 2 333 18 74 37 102 129 60 197 -39 63 -54 65 -397 65 -267
0 -313 -3 -342 -17z"/>
</g>
</svg>
