<?xml version="1.0" standalone="no"?>
<!DOCTYPE svg PUBLIC "-//W3C//DTD SVG 20010904//EN"
 "http://www.w3.org/TR/2001/REC-SVG-20010904/DTD/svg10.dtd">
<svg version="1.0" xmlns="http://www.w3.org/2000/svg"
 width="2048.000000pt" height="2048.000000pt" viewBox="0 0 2048.000000 2048.000000"
 preserveAspectRatio="xMidYMid meet">
<metadata>
Created by potrace 1.13, written by Peter Selinger 2001-2015
</metadata>
<g transform="translate(0.000000,2048.000000) scale(0.192120,-0.192120)"
fill="#000000" stroke="none">
<path d="M5090 10315 c-489 -64 -1007 -276 -1404 -575 -326 -244 -538 -502
-732 -890 -126 -252 -208 -468 -358 -953 -121 -387 -178 -522 -240 -562 -13
-9 -84 -31 -157 -49 -398 -99 -648 -275 -731 -513 -20 -59 -23 -87 -23 -213 0
-163 15 -239 72 -375 104 -250 360 -521 669 -709 l81 -49 7 -361 c14 -722 47
-1141 122 -1513 86 -429 214 -662 387 -704 l47 -11 0 -1254 0 -1254 2500 0
2500 0 0 1255 0 1255 23 4 c110 21 140 30 178 55 201 128 279 441 309 1245 5
153 10 379 10 501 0 122 3 344 7 493 l6 271 86 51 c318 189 582 463 691 718
60 141 75 216 75 382 -1 125 -4 154 -24 210 -86 242 -330 416 -727 516 -74 18
-143 38 -154 44 -57 31 -110 142 -201 425 -227 705 -273 832 -405 1094 -171
343 -366 594 -629 812 -285 236 -600 406 -992 535 -348 115 -700 158 -993 119z
m-99 -147 c60 -21 82 -22 334 -23 254 0 274 1 343 23 l72 23 49 -26 c141 -77
424 -335 575 -525 165 -208 298 -444 337 -598 19 -75 19 -106 17 -673 l-3
-594 -33 -67 c-37 -76 -92 -129 -151 -146 -55 -17 -2347 -17 -2402 0 -59 17
-114 70 -151 146 l-33 67 -3 594 c-2 570 -2 598 18 675 38 153 171 387 336
596 88 110 328 349 424 422 73 55 187 128 201 128 3 0 35 -10 70 -22z m1632
-509 c56 -29 242 -160 332 -234 272 -223 457 -483 625 -876 73 -171 135 -346
241 -679 102 -320 155 -460 198 -523 89 -129 208 -200 421 -247 171 -39 253
-63 337 -101 83 -37 187 -106 235 -156 l38 -38 -88 42 c-157 76 -375 124 -643
142 -175 12 -554 5 -798 -14 -193 -15 -257 -22 -835 -90 l-298 -34 -66 46
c-83 60 -104 61 -434 38 -234 -17 -630 -24 -867 -16 -143 4 -437 33 -741 71
-130 17 -258 30 -285 30 -66 0 -115 -26 -140 -72 -24 -46 -8 -45 -298 -14
-502 56 -892 75 -1173 57 -314 -20 -522 -64 -688 -146 l-89 -43 39 39 c116
120 287 196 589 264 311 69 404 173 540 600 195 613 256 779 376 1018 150 301
326 523 574 722 161 130 345 242 345 210 0 -12 -46 -104 -76 -150 -49 -77
-151 -293 -174 -365 -19 -62 -20 -92 -20 -738 l0 -673 34 -73 c45 -97 105
-177 169 -224 96 -72 116 -76 363 -80 191 -3 222 -2 233 12 12 14 55 16 342
16 286 0 329 -2 329 -15 0 -12 16 -15 85 -15 69 0 85 3 85 15 0 18 38 20 76 3
22 -10 28 -10 32 0 3 9 88 12 370 12 202 0 422 5 490 10 111 8 131 12 195 43
80 39 134 87 182 162 67 105 65 79 65 813 l0 665 -31 91 c-31 88 -108 252
-153 325 -42 68 -86 152 -86 167 0 17 14 18 43 3z m-2642 -2774 c845 -118
1532 -139 2147 -64 59 7 115 6 185 -1 660 -72 1123 -395 1253 -875 46 -169 3
-571 -100 -948 -178 -645 -563 -1213 -1043 -1538 -67 -46 -73 -52 -73 -84 0
-38 -19 -48 -27 -15 -3 11 -7 20 -9 20 -3 0 -57 -26 -122 -59 -210 -105 -394
-163 -622 -197 -169 -24 -459 -15 -628 20 -166 35 -311 85 -471 162 -74 35
-135 63 -136 62 -2 -2 -5 -12 -9 -24 -5 -16 7 -35 59 -87 144 -146 337 -243
595 -298 92 -20 135 -23 340 -23 185 -1 255 3 330 17 128 24 287 79 389 132
l83 45 -57 -62 c-115 -123 -175 -215 -175 -266 0 -23 41 -145 46 -139 3 2 18
51 34 108 49 171 107 296 159 343 11 10 18 23 15 27 -3 5 1 9 8 9 16 0 62 42
136 123 l52 59 0 -36 c0 -20 1 -36 3 -36 2 0 30 13 63 29 205 99 459 150 541
108 20 -11 37 -33 52 -68 20 -45 22 -66 20 -172 l-2 -121 26 -9 27 -9 -20 -28
c-52 -73 -50 -18 -50 -1366 0 -805 -3 -1254 -10 -1254 -5 0 -51 27 -102 61
-51 33 -105 63 -120 66 -15 3 -28 9 -28 14 0 5 -615 9 -1420 9 -781 0 -1420
-4 -1420 -8 0 -4 -15 -13 -32 -20 -18 -7 -71 -39 -118 -73 l-85 -61 -5 1274
c-5 1343 -3 1293 -50 1358 -25 35 -25 37 3 44 l23 5 -14 99 c-24 169 9 259 99
271 103 14 284 -26 452 -100 131 -58 131 -58 135 21 l2 65 -56 34 c-137 82
-322 241 -462 395 -359 397 -608 936 -707 1530 -62 377 -59 578 11 765 63 168
161 281 424 491 85 69 193 162 240 207 47 45 92 83 101 83 8 0 62 -7 120 -15z
m-1618 -76 c-6 -21 -5 -21 133 -14 217 10 793 -20 817 -44 14 -14 -15 -54
-133 -180 -142 -154 -219 -275 -277 -438 -27 -76 -27 -84 -31 -343 -4 -285 3
-376 45 -575 120 -576 345 -1055 701 -1494 23 -29 42 -63 42 -76 0 -15 -28
-50 -86 -106 -150 -148 -172 -221 -110 -368 l34 -80 -32 7 c-17 4 -119 7 -226
7 -193 0 -196 0 -252 -28 -31 -15 -72 -45 -92 -67 l-35 -39 -17 47 c-9 26 -43
103 -75 172 -82 177 -114 291 -158 560 -56 348 -91 881 -91 1402 0 140 -4 229
-10 233 -5 3 -10 17 -10 31 0 13 -4 24 -10 24 -5 0 -10 7 -10 15 0 9 -8 28
-17 43 -23 36 -144 182 -172 206 -19 17 -21 17 -21 3 0 -24 -183 128 -290 239
-103 108 -169 198 -218 301 -37 78 -37 79 -40 225 l-3 147 40 28 c22 15 40 35
41 44 0 35 161 90 327 113 60 9 119 17 133 19 14 3 44 5 67 6 37 1 41 -1 36
-20z m6109 5 c67 -8 165 -26 217 -40 124 -32 231 -86 231 -116 0 -6 9 -21 20
-35 17 -22 20 -41 20 -135 0 -89 -4 -121 -24 -177 -66 -190 -213 -367 -451
-545 -103 -77 -135 -95 -127 -71 8 24 -159 -155 -196 -211 -22 -32 -42 -78
-42 -95 0 -10 -4 -19 -10 -19 -6 0 -10 -94 -10 -262 0 -357 -17 -1058 -30
-1248 -18 -263 -55 -495 -98 -605 -8 -22 -36 -71 -61 -110 -25 -38 -60 -96
-76 -128 l-30 -57 -38 44 c-22 26 -60 56 -94 73 -56 27 -63 28 -238 31 -130 2
-194 -1 -232 -11 -29 -8 -53 -12 -53 -9 0 2 12 42 26 89 44 143 16 225 -123
362 -64 63 -86 92 -86 111 0 16 22 54 64 105 345 428 575 947 690 1555 17 92
22 166 26 365 5 276 1 309 -59 455 -75 184 -141 281 -309 455 -65 68 -119 130
-119 138 0 8 6 19 13 24 28 23 683 58 875 48 122 -7 124 -6 117 14 -6 19 -2
21 38 21 25 0 101 -7 169 -16z m-5099 -3884 l27 -25 0 -1147 0 -1148 -149 0
-148 0 -7 39 c-3 22 -12 41 -18 43 -10 4 -14 231 -16 1084 -2 648 -7 1083 -13
1089 -5 5 -9 24 -9 42 0 34 2 35 70 47 14 2 73 3 131 3 98 -2 108 -4 132 -27z
m4220 15 c12 -5 17 -18 17 -46 0 -21 -4 -39 -10 -39 -7 0 -10 -318 -10 -933 0
-1014 -5 -1237 -26 -1237 -8 0 -16 -17 -20 -40 l-7 -40 -148 0 -149 0 0 1137
0 1137 22 33 c13 18 32 34 43 37 30 7 267 0 288 -9z M4335 6061 c-69 -17 -125
-62 -161 -131 -17 -30 -19 -59 -19 -215 0 -196 4 -214 64 -278 110 -119 309
-89 377 56 22 49 24 63 24 223 0 162 -1 172 -25 221 -49 98 -157 149 -260 124z
M6215 6061 c-70 -18 -125 -63 -161 -131 -17 -30 -19 -59 -19 -215 0 -156 2
-185 19 -215 95 -179 333 -184 420 -8 25 50 26 59 26 222 0 190 -8 223 -68
282 -56 56 -147 83 -217 65z M5021 4884 c-66 -56 -62 -186 8 -227 25 -15 64
-17 303 -17 299 0 302 1 333 60 32 61 13 159 -37 194 -19 14 -65 16 -299 16
l-277 0 -31 -26z M4664 4341 c-104 -48 -138 -175 -75 -277 39 -64 211 -167
361 -217 220 -73 520 -71 745 5 153 51 319 158 355 227 44 88 14 202 -67 253
-29 17 -53 23 -100 23 -53 0 -67 -4 -105 -32 -132 -98 -251 -141 -413 -150
-206 -11 -340 28 -515 151 -54 38 -127 45 -186 17z m212 -237 c17 -13 34 -20
38 -17 3 4 6 -3 6 -15 0 -19 -3 -20 -24 -12 -13 5 -27 6 -30 3 -3 -4 -6 0 -6
7 0 7 -3 11 -6 7 -6 -6 -64 42 -64 53 0 14 55 -3 86 -26z m944 18 c0 -20 -74
-67 -89 -58 -5 4 -12 0 -14 -6 -3 -7 -6 -3 -6 10 -1 13 3 20 9 17 6 -3 10 -2
10 3 0 10 60 38 73 34 4 -1 7 3 7 8 0 6 2 10 5 10 3 0 5 -8 5 -18z m-883 -74
c-3 -8 -6 -5 -6 6 -1 11 2 17 5 13 3 -3 4 -12 1 -19z M4429 3173 c99 -76 155
-174 212 -371 18 -59 35 -111 39 -115 11 -12 40 79 40 122 0 20 -9 56 -20 80
-37 81 -185 246 -274 305 -65 43 -63 29 3 -21z M4726 2459 c58 -226 58 -227
114 -340 80 -161 191 -321 380 -547 l85 -103 44 48 c211 228 426 552 489 738
28 84 96 354 90 360 -3 3 -27 -2 -54 -10 -105 -32 -232 -47 -459 -52 -272 -7
-454 7 -593 43 -53 14 -107 28 -119 31 -22 5 -21 1 23 -168z m858 -165 c8 -20
-9 -83 -37 -137 -32 -65 -152 -239 -184 -268 -37 -35 -53 -39 -84 -23 -72 36
-259 332 -259 409 l0 35 279 0 c247 0 280 -2 285 -16z M2750 2635 c-63 -22
-223 -106 -310 -163 -125 -80 -194 -136 -294 -231 -203 -197 -323 -396 -392
-652 l-28 -104 -4 -578 -3 -577 538 0 538 0 -48 34 c-73 52 -134 112 -140 138
-4 15 1 38 13 60 l19 36 -37 6 c-20 3 -213 6 -429 6 l-391 0 14 47 c18 58 18
117 0 175 l-13 46 51 6 c28 3 219 6 424 6 204 0 372 4 372 8 0 5 -20 18 -44
30 -41 21 -56 22 -310 22 -146 0 -266 4 -266 9 0 5 -25 11 -55 13 -51 4 -58 8
-102 56 -27 29 -58 70 -71 92 l-23 40 438 1 c241 0 461 4 488 8 l50 7 -51 49
c-66 64 -80 75 -99 75 -8 0 -15 5 -15 10 0 6 -93 10 -260 10 -222 0 -261 2
-266 15 -4 8 -18 15 -33 15 -51 0 -54 8 -49 126 4 91 9 121 33 179 97 237 263
437 503 606 40 28 72 54 72 58 0 5 16 26 36 47 65 71 194 268 183 278 -2 2
-20 -2 -39 -9z M7870 2643 c0 -30 143 -235 202 -290 89 -83 131 -118 223 -191
204 -161 346 -368 407 -596 26 -101 23 -216 -7 -216 -7 0 -15 -7 -19 -15 -5
-13 -43 -15 -261 -15 -163 0 -255 -4 -255 -10 0 -5 -20 -10 -45 -10 -25 0 -45
-4 -45 -8 0 -4 -15 -14 -34 -20 -19 -7 -51 -32 -72 -55 l-39 -42 50 -7 c28 -3
247 -7 488 -7 l439 -1 -23 -37 c-21 -35 -38 -59 -86 -120 -10 -13 -33 -26 -50
-29 -18 -3 -33 -10 -33 -14 0 -4 -134 -10 -297 -12 -292 -5 -299 -5 -343 -29
l-45 -24 427 -5 c234 -3 429 -7 432 -10 3 -3 -2 -34 -11 -69 -14 -56 -14 -70
-1 -132 l15 -69 -381 0 c-210 0 -405 -3 -434 -7 l-53 -6 23 -24 c24 -26 29
-94 7 -102 -7 -2 -31 -20 -53 -40 -23 -21 -61 -51 -85 -69 l-45 -32 537 0 537
0 0 140 c0 118 2 140 15 140 21 0 22 265 1 273 -11 5 -15 60 -18 304 -5 328
-13 376 -87 569 -103 266 -357 551 -654 733 -123 75 -327 171 -327 154z"/>
</g>
</svg>
