<?xml version="1.0" standalone="no"?>
<!DOCTYPE svg PUBLIC "-//W3C//DTD SVG 20010904//EN"
 "http://www.w3.org/TR/2001/REC-SVG-20010904/DTD/svg10.dtd">
<svg version="1.0" xmlns="http://www.w3.org/2000/svg"
 width="2048.000000pt" height="2048.000000pt" viewBox="0 0 2048.000000 2048.000000"
 preserveAspectRatio="xMidYMid meet">
<metadata>
Created by potrace 1.13, written by Peter Selinger 2001-2015
</metadata>
<g transform="translate(0.000000,2048.000000) scale(0.192120,-0.192120)"
fill="#000000" stroke="none">
<path d="M5030 10323 c-36 -2 -139 -10 -230 -19 -867 -81 -1586 -354 -2183
-827 -132 -104 -390 -363 -496 -497 -336 -424 -552 -905 -641 -1425 -60 -350
-48 -867 31 -1302 81 -453 256 -783 415 -783 36 0 88 56 102 112 6 23 29 117
51 208 132 546 367 1033 695 1441 157 196 442 464 471 443 7 -5 74 -58 149
-117 484 -386 903 -617 1115 -617 104 0 184 51 218 138 20 51 24 179 10 266
l-9 50 158 -153 c345 -334 644 -567 798 -621 64 -23 85 -24 120 -9 88 41 50
271 -101 609 -36 80 -67 152 -71 160 -3 8 18 -6 47 -32 199 -178 566 -326
1054 -423 328 -65 895 -124 1202 -125 l90 -1 290 -576 c373 -741 390 -769 482
-814 43 -21 46 -21 88 -4 110 41 201 256 259 608 72 428 96 1104 51 1407 -68
458 -278 945 -584 1353 -344 459 -793 834 -1321 1101 -675 343 -1415 490
-2260 449z m743 -318 c764 -73 1455 -342 2037 -791 139 -108 447 -412 555
-549 263 -332 447 -705 530 -1073 l25 -111 0 -594 c0 -600 -1 -617 -39 -876
-12 -79 -41 -162 -60 -169 -30 -12 -85 81 -307 520 l-229 452 -95 97 c-147
151 -140 149 -600 179 -467 31 -935 111 -1260 215 -140 45 -193 67 -380 155
-166 79 -219 94 -273 79 -55 -15 -148 -97 -180 -158 -24 -48 -27 -63 -27 -160
0 -76 -4 -113 -14 -126 -13 -18 -17 -16 -82 37 -38 31 -121 102 -184 159 -282
251 -367 299 -457 259 -57 -25 -171 -143 -205 -211 -52 -104 -89 -117 -205
-74 -163 62 -401 207 -690 422 -296 221 -363 249 -482 204 -178 -67 -499 -389
-744 -746 -173 -253 -354 -614 -461 -922 -48 -141 -71 -193 -85 -193 -28 0
-66 85 -90 208 -49 245 -53 303 -48 820 l4 487 31 132 c126 526 356 941 735
1326 609 618 1504 969 2607 1021 138 7 519 -4 673 -19z M1393 5873 c-263 -377
-304 -1024 -93 -1480 101 -217 261 -379 425 -428 l39 -12 17 -116 c80 -549
278 -1126 554 -1612 281 -495 655 -925 1080 -1241 717 -533 1563 -748 2405
-613 1446 231 2644 1498 3006 3178 19 90 43 218 52 284 l18 120 47 14 c111 32
237 137 329 272 269 394 298 1065 67 1512 -22 42 -47 85 -55 95 -14 17 -14 13
-9 -51 8 -88 41 -306 61 -406 12 -60 14 -133 12 -345 l-4 -269 -36 -105 c-98
-291 -191 -436 -362 -564 -131 -98 -162 -146 -195 -301 -12 -55 -28 -120 -36
-145 -22 -69 -42 -155 -65 -275 -40 -210 -115 -431 -242 -715 -139 -312 -284
-559 -434 -740 -35 -41 -95 -115 -134 -165 -157 -198 -427 -462 -640 -625
-724 -553 -1619 -762 -2490 -581 -250 52 -466 128 -725 256 -286 141 -510 293
-760 517 -652 583 -1086 1380 -1285 2363 -23 110 -46 211 -52 225 -29 61 -89
129 -188 211 -191 157 -248 235 -324 442 l-41 112 -3 342 -3 342 40 163 c38
154 78 384 68 394 -2 2 -22 -22 -44 -53z M3890 5881 c-58 -12 -107 -41 -150
-88 -76 -82 -75 -76 -75 -463 0 -340 0 -346 23 -392 27 -54 98 -123 150 -145
49 -21 157 -21 205 0 61 26 111 71 143 129 l29 53 0 355 0 355 -29 53 c-60
107 -183 167 -296 143z M6648 5876 c-94 -26 -174 -105 -199 -199 -6 -23 -9
-165 -7 -370 l3 -332 29 -53 c32 -58 82 -103 143 -129 48 -21 156 -21 205 0
52 22 123 91 150 145 23 46 23 52 23 392 0 340 0 346 -23 392 -26 53 -98 123
-145 143 -51 21 -127 26 -179 11z M4969 4206 c-124 -45 -192 -139 -192 -266 0
-82 28 -143 89 -200 83 -76 76 -75 464 -75 388 0 381 -1 464 75 61 57 89 118
89 200 0 108 -50 193 -145 246 l-53 29 -340 2 c-261 2 -348 0 -376 -11z M4441
3379 c-125 -25 -232 -154 -219 -265 3 -24 0 -35 -12 -39 -8 -2 -222 -63 -474
-135 -252 -72 -471 -137 -485 -145 -43 -21 -106 -97 -126 -148 -13 -35 -16
-64 -13 -116 8 -110 64 -188 168 -234 77 -35 136 -27 405 51 132 39 253 75
268 81 46 18 49 13 23 -37 -94 -185 36 -392 246 -392 65 0 72 3 308 120 132
66 245 120 250 120 6 0 10 -10 10 -22 0 -38 45 -122 81 -152 55 -47 107 -66
179 -66 112 0 205 59 253 162 12 26 24 47 27 48 4 0 11 -15 18 -34 7 -18 31
-55 54 -81 130 -147 365 -121 444 50 13 27 24 60 24 73 0 12 4 22 10 22 5 0
118 -54 250 -120 236 -117 243 -120 308 -120 85 0 151 30 209 93 77 84 91 197
38 301 -22 42 -23 48 -8 43 10 -3 135 -40 278 -82 290 -85 347 -93 425 -58
104 46 160 124 168 234 3 52 0 81 -13 116 -23 59 -88 131 -140 154 -32 14
-743 221 -921 268 -37 10 -40 13 -36 40 6 46 -24 133 -63 178 -19 23 -61 54
-93 70 l-57 28 -870 2 c-478 0 -890 -3 -914 -8z m1705 -299 c16 -6 47 -32 69
-58 146 -174 226 -234 374 -281 55 -18 102 -38 102 -44 2 -23 -3 -42 -14 -49
-6 -3 -44 -39 -85 -80 -70 -69 -142 -172 -142 -203 0 -8 -6 -18 -13 -22 -8 -4
-17 -16 -20 -27 -11 -28 -52 -17 -217 58 -178 80 -258 103 -311 87 -21 -6 -81
-41 -135 -76 -53 -36 -115 -70 -137 -76 -38 -10 -46 -8 -144 40 -135 66 -152
66 -285 0 -128 -62 -138 -61 -274 30 -56 38 -118 74 -138 81 -60 20 -140 -4
-381 -114 -55 -25 -114 -46 -132 -46 -28 0 -34 5 -48 38 -48 110 -76 152 -158
236 -119 124 -119 124 14 167 116 37 193 84 265 161 45 49 121 139 134 159 3
4 17 12 30 18 35 14 1607 15 1646 1z"/>
</g>
</svg>
