<?xml version="1.0" standalone="no"?>
<!DOCTYPE svg PUBLIC "-//W3C//DTD SVG 20010904//EN"
 "http://www.w3.org/TR/2001/REC-SVG-20010904/DTD/svg10.dtd">
<svg version="1.0" xmlns="http://www.w3.org/2000/svg"
 width="2048.000000pt" height="2048.000000pt" viewBox="0 0 2048.000000 2048.000000"
 preserveAspectRatio="xMidYMid meet">
<metadata>
Created by potrace 1.13, written by Peter Selinger 2001-2015
</metadata>
<g transform="translate(0.000000,2048.000000) scale(0.192120,-0.192120)"
fill="#000000" stroke="none">
<path d="M5145 8969 c-894 -45 -1682 -443 -2227 -1126 -175 -218 -369 -554
-486 -840 -124 -301 -239 -724 -283 -1034 l-12 -86 -64 -6 c-190 -15 -401
-214 -513 -482 -39 -96 -77 -230 -97 -345 -23 -129 -23 -421 0 -550 74 -430
291 -744 562 -815 32 -8 59 -16 60 -17 1 -2 10 -43 19 -93 46 -243 151 -586
251 -825 203 -481 465 -880 800 -1216 539 -540 1177 -844 1920 -915 166 -16
514 -6 680 19 258 40 502 106 710 192 736 307 1317 866 1710 1645 174 343 288
667 370 1050 l32 150 44 7 c175 30 377 229 478 473 82 195 115 374 115 620 0
245 -33 425 -114 620 -112 268 -323 467 -513 482 l-65 6 -7 56 c-3 31 -24 144
-45 251 -230 1146 -819 1999 -1686 2442 -502 256 -1040 367 -1639 337z m615
-203 c560 -85 1001 -271 1405 -594 99 -79 349 -331 429 -432 87 -110 240 -340
316 -476 163 -295 312 -721 390 -1119 27 -142 48 -222 66 -257 30 -57 136
-148 224 -190 107 -52 196 -114 249 -174 51 -58 131 -220 167 -339 27 -87 28
-99 32 -362 3 -254 2 -276 -18 -345 -97 -330 -192 -479 -381 -589 -93 -54
-173 -133 -204 -201 -13 -29 -34 -94 -45 -143 -66 -286 -83 -336 -229 -680
-57 -132 -113 -267 -126 -300 -87 -231 -358 -631 -556 -820 -573 -548 -1091
-816 -1769 -915 -122 -18 -502 -24 -647 -11 -581 55 -1105 270 -1563 641 -237
192 -325 281 -496 501 -124 159 -231 326 -337 524 -176 332 -288 637 -392
1075 -10 41 -29 95 -41 120 -34 67 -122 151 -221 211 -174 105 -255 210 -336
437 l-31 87 -4 339 -3 338 26 92 c30 104 99 248 155 321 69 91 112 126 219
178 124 60 217 141 249 214 11 27 32 109 47 183 138 697 354 1192 723 1660
113 143 348 372 494 481 416 311 865 486 1423 554 151 19 640 13 785 -9z
M3855 5593 c-68 -25 -107 -54 -144 -109 -48 -73 -53 -120 -49 -466 4 -349 4
-351 76 -430 108 -120 296 -118 409 5 71 77 74 103 71 484 l-3 328 -30 53
c-67 123 -206 179 -330 135z M6659 5604 c-82 -15 -184 -114 -209 -202 -6 -22
-10 -167 -10 -348 0 -358 4 -387 73 -461 113 -123 301 -125 409 -5 74 82 73
76 73 462 0 380 0 377 -65 460 -54 68 -176 110 -271 94z M4944 3641 c-187 -85
-226 -334 -72 -465 73 -63 94 -66 458 -66 364 0 385 3 458 66 122 104 127 304
10 410 -82 74 -82 74 -468 74 -316 0 -348 -2 -386 -19z m639 -235 c21 -10 22
-23 3 -42 -12 -11 -61 -14 -263 -14 -234 0 -249 1 -260 19 -15 24 -2 37 42 44
47 8 458 1 478 -7z M6649 2551 c-36 -11 -65 -28 -115 -66 -84 -64 -291 -129
-530 -164 -214 -33 -385 -43 -674 -43 -581 0 -1013 75 -1213 211 -77 53 -116
64 -196 59 -103 -8 -181 -59 -229 -152 -21 -41 -26 -65 -25 -121 0 -116 47
-188 171 -266 317 -200 889 -301 1617 -286 574 12 967 85 1274 234 189 93 271
192 271 329 0 173 -187 314 -351 265z m-2522 -327 c136 -59 242 -93 395 -123
431 -86 1058 -92 1525 -15 206 34 343 74 494 145 122 57 180 71 194 48 14 -21
-6 -58 -47 -88 -44 -33 -220 -106 -278 -116 -19 -3 -69 -14 -110 -25 -92 -23
-114 -27 -320 -54 -391 -51 -1064 -45 -1399 13 -31 6 -76 13 -101 16 -25 4
-79 15 -121 25 -42 11 -87 22 -100 24 -13 3 -25 5 -26 5 -2 1 -6 2 -10 2 -21
3 -154 54 -198 76 -54 27 -115 80 -115 99 0 21 32 34 65 28 17 -3 85 -30 152
-60z"/>
</g>
</svg>
