<?xml version="1.0" standalone="no"?>
<!DOCTYPE svg PUBLIC "-//W3C//DTD SVG 20010904//EN"
 "http://www.w3.org/TR/2001/REC-SVG-20010904/DTD/svg10.dtd">
<svg version="1.0" xmlns="http://www.w3.org/2000/svg"
 width="2048.000000pt" height="2048.000000pt" viewBox="0 0 2048.000000 2048.000000"
 preserveAspectRatio="xMidYMid meet">
<metadata>
Created by potrace 1.13, written by Peter Selinger 2001-2015
</metadata>
<g transform="translate(0.000000,2048.000000) scale(0.192120,-0.192120)"
fill="#000000" stroke="none">
<path d="M2117 10230 c-95 -24 -174 -89 -212 -174 -13 -28 -80 -208 -151 -400
-70 -191 -133 -350 -138 -352 -6 -1 -177 -64 -380 -139 -375 -138 -424 -161
-472 -227 -45 -59 -57 -98 -58 -183 0 -67 4 -88 26 -130 59 -112 83 -125 513
-284 l380 -139 141 -381 c78 -210 149 -391 157 -404 116 -177 375 -188 502
-21 20 26 75 161 168 411 75 205 137 376 137 381 0 5 163 69 363 142 199 73
379 142 399 152 60 29 105 75 138 140 73 146 13 331 -130 402 -25 13 -202 81
-395 151 -192 71 -355 133 -362 139 -6 6 -71 173 -143 371 -73 198 -143 379
-156 401 -29 51 -85 101 -138 125 -51 22 -139 31 -189 19z m131 -285 c36 -26
66 -89 162 -345 97 -257 122 -312 164 -370 49 -65 136 -147 187 -175 28 -15
175 -74 326 -131 151 -56 286 -110 299 -119 16 -10 24 -25 24 -43 0 -66 -48
-93 -370 -212 -273 -101 -310 -121 -406 -215 -97 -95 -114 -126 -214 -395
-131 -355 -171 -418 -255 -407 -74 10 -101 57 -223 387 -44 118 -92 241 -107
273 -34 72 -144 191 -216 234 -30 18 -166 75 -304 126 -302 113 -348 135 -365
176 -15 36 -9 54 22 75 13 8 156 65 317 125 317 119 370 147 448 237 71 82 97
135 198 409 128 347 152 385 244 385 26 0 56 -7 69 -15z M6155 9354 c-446 -44
-753 -126 -1077 -286 -520 -257 -908 -695 -1083 -1222 -88 -264 -116 -495 -97
-802 21 -335 69 -555 158 -724 59 -112 127 -161 183 -130 24 12 35 42 70 190
103 435 314 826 596 1105 44 44 99 95 122 113 l41 32 59 -48 c233 -194 495
-360 658 -418 68 -24 172 -24 208 -1 47 31 62 72 62 173 l-1 91 144 -134 c316
-293 492 -408 560 -365 52 34 22 191 -79 411 -22 46 -38 85 -37 87 2 1 32 -20
68 -47 108 -83 294 -163 497 -214 232 -58 687 -115 922 -115 l76 0 213 -420
c233 -458 261 -500 328 -500 135 0 224 350 241 950 7 241 -3 364 -44 530 -67
281 -225 587 -425 825 -412 492 -973 796 -1662 901 -97 15 -601 28 -701 18z
m540 -294 c940 -87 1703 -619 1967 -1370 l33 -95 3 -446 c2 -286 -1 -455 -7
-472 -24 -63 -59 -20 -184 229 -108 212 -213 323 -342 359 -27 8 -120 19 -205
25 -306 22 -599 68 -798 126 -46 13 -143 47 -215 75 -184 71 -222 78 -278 51
-46 -23 -95 -63 -119 -98 -8 -11 -27 -35 -42 -52 -23 -28 -30 -30 -56 -23 -17
5 -72 41 -123 81 -176 136 -239 150 -331 78 -29 -23 -66 -55 -83 -70 -46 -44
-92 -54 -152 -34 -68 23 -220 114 -383 231 -221 158 -297 184 -404 137 -200
-89 -463 -399 -653 -772 -96 -188 -103 -200 -124 -200 -32 0 -39 76 -39 402 0
269 3 325 19 398 43 194 142 415 258 580 93 132 300 336 439 432 356 248 795
392 1314 431 106 8 404 6 505 -3z M1277 7268 c-46 -10 -81 -32 -108 -69 -11
-16 -58 -168 -108 -351 l-88 -322 -224 -83 c-123 -45 -235 -91 -249 -101 -112
-83 -96 -249 29 -311 20 -10 126 -51 236 -91 110 -40 202 -74 204 -76 1 -1 42
-159 90 -351 48 -191 93 -358 99 -369 17 -32 67 -71 108 -84 73 -25 176 16
210 82 10 18 56 188 104 377 l86 344 219 82 c256 95 256 94 292 142 25 32 28
45 28 108 0 63 -3 76 -28 108 -36 48 -46 52 -294 143 -114 41 -211 79 -216 83
-4 4 -27 83 -52 177 -111 413 -127 466 -158 501 -49 56 -109 76 -180 61z m67
-440 c8 -13 30 -75 49 -138 47 -154 51 -163 103 -241 53 -80 142 -165 207
-197 93 -46 94 -71 9 -123 -76 -46 -199 -165 -239 -231 -19 -31 -49 -112 -74
-198 -39 -138 -64 -200 -81 -200 -20 0 -54 85 -104 255 -10 33 -27 83 -40 110
-37 85 -159 211 -269 279 -64 39 -59 61 24 105 76 40 176 138 220 213 16 29
51 117 77 196 44 133 73 192 94 192 5 0 16 -10 24 -22z M3887 6478 c-104 -129
-162 -304 -174 -518 -15 -273 68 -530 219 -679 43 -43 124 -91 152 -91 17 0
18 -2 41 -145 83 -499 304 -995 619 -1385 81 -101 264 -282 279 -277 22 7 57
69 57 101 -1 50 -32 106 -127 228 -224 285 -264 349 -403 633 -100 205 -164
400 -230 705 -33 149 -68 208 -204 345 -122 123 -148 171 -191 356 -24 104
-17 607 11 742 8 39 -9 34 -49 -15z M8975 6460 c21 -153 24 -210 19 -378 -10
-373 -48 -490 -218 -672 -132 -140 -167 -205 -207 -375 -44 -188 -229 -693
-325 -887 -56 -115 -194 -309 -299 -420 -111 -119 -144 -174 -145 -239 0 -37
34 -99 58 -107 21 -7 238 220 337 353 188 249 320 495 432 805 44 122 117 409
134 525 15 109 20 122 58 130 47 10 135 80 184 145 120 159 175 366 164 614
-4 81 -14 164 -27 216 -24 97 -95 248 -141 300 l-31 35 7 -45z M5234 6424
c-58 -21 -120 -77 -152 -138 -27 -51 -27 -52 -27 -261 0 -178 3 -216 18 -247
24 -53 72 -104 126 -136 40 -24 57 -27 131 -27 74 0 91 3 131 27 54 32 102 83
126 136 15 31 18 69 18 247 0 209 0 210 -27 261 -66 126 -213 185 -344 138z
M7464 6428 c-60 -20 -127 -80 -159 -143 l-30 -59 0 -200 c0 -200 0 -201 28
-258 50 -102 142 -158 256 -158 107 1 213 76 251 178 17 46 20 78 20 236 0
211 -8 249 -72 321 -56 63 -107 87 -193 91 -38 2 -84 -2 -101 -8z M6160 5249
c-145 -58 -180 -242 -66 -347 63 -58 105 -65 381 -60 l230 3 47 28 c113 66
138 211 55 312 -58 70 -79 75 -367 74 -143 0 -266 -5 -280 -10z M5515 4265
c-5 -2 -22 -6 -37 -9 -37 -8 -98 -63 -114 -103 -21 -49 -17 -112 9 -158 62
-110 308 -207 637 -251 168 -23 655 -26 820 -6 297 37 531 112 635 203 85 75
94 183 22 266 -71 81 -162 84 -265 9 -127 -94 -572 -153 -964 -128 -305 19
-488 60 -618 137 -51 31 -102 47 -125 40z M7737 3267 l-87 -69 0 -317 0 -316
-108 -72 c-279 -186 -507 -281 -777 -325 -109 -17 -544 -17 -650 1 -266 44
-478 134 -772 327 l-113 74 0 317 0 318 -55 39 c-30 21 -64 50 -76 63 -29 30
-48 29 -192 -11 -384 -109 -668 -247 -846 -412 -34 -31 -61 -60 -61 -64 0 -4
40 -10 89 -14 111 -8 244 -29 391 -62 605 -133 1186 -443 1624 -864 170 -165
322 -343 432 -509 l49 -73 170 6 c1054 42 1750 230 2061 558 78 83 121 151
155 248 21 60 23 82 23 290 l1 226 -37 75 c-123 248 -485 463 -1028 608 l-105
28 -88 -70z m-2629 -147 c17 -11 32 -24 32 -28 0 -5 -30 -17 -67 -27 -173 -47
-372 -119 -493 -180 l-70 -35 -9 22 c-26 72 65 134 317 218 168 56 235 63 290
30z m2885 -5 c389 -113 653 -281 758 -485 34 -66 34 -196 0 -260 -131 -250
-555 -450 -1196 -565 -288 -52 -635 -85 -874 -85 -161 1 -190 8 -341 90 l-64
35 289 7 c160 3 367 14 460 22 952 90 1580 353 1579 661 0 137 -127 268 -369
381 -94 44 -300 116 -427 149 -38 10 -68 22 -68 27 0 4 15 17 33 28 44 27 115
26 220 -5z m21 -326 c167 -58 312 -133 366 -191 45 -49 17 -135 -62 -195 -159
-119 -722 -294 -768 -238 -13 16 -9 21 100 114 103 90 200 239 200 310 0 17 5
31 10 31 6 0 10 38 10 93 0 52 3 97 7 100 12 13 46 7 137 -24z m917 -531 c-32
-94 -74 -161 -159 -250 -269 -282 -802 -457 -1617 -533 -262 -24 -414 -29
-475 -16 -30 6 -92 33 -139 58 -101 55 -96 61 49 62 110 1 370 17 515 31 661
67 1238 236 1573 460 96 64 216 175 248 229 27 45 29 30 5 -41z M5395 3071 c8
-17 15 -52 15 -78 0 -46 2 -50 48 -84 123 -92 304 -177 467 -218 194 -50 463
-70 692 -52 322 26 541 94 755 237 l98 65 0 50 c0 28 6 62 14 77 14 27 9 25
-107 -33 -307 -154 -604 -225 -937 -225 -335 0 -618 69 -933 226 -126 63 -127
64 -112 35z M3495 2823 c-271 -22 -431 -46 -641 -98 -1052 -260 -1902 -978
-2297 -1940 -43 -107 -103 -283 -127 -375 -6 -25 -13 -53 -16 -62 -5 -17 6
-18 128 -18 l133 0 -46 43 c-64 58 -75 97 -53 184 32 127 105 301 200 477 392
721 1063 1276 1860 1541 353 118 645 163 1136 177 69 2 92 7 114 24 43 32 39
41 -18 47 -52 7 -296 7 -373 0z M3430 2478 c-869 -72 -1688 -521 -2190 -1201
-207 -279 -343 -557 -456 -929 -5 -17 139 -18 2920 -18 1609 0 2926 1 2926 3
0 12 -95 280 -124 350 -385 927 -1260 1600 -2297 1767 -242 38 -531 49 -779
28z m486 -258 c678 -54 1276 -320 1743 -775 252 -246 436 -507 569 -809 48
-109 105 -276 98 -284 -3 -2 -54 23 -113 56 -188 106 -186 105 -378 113 -209
9 -231 15 -229 57 1 17 11 44 23 60 11 16 34 63 51 105 78 195 13 397 -193
593 -305 294 -716 515 -1029 555 -206 26 -389 -68 -478 -246 l-35 -70 0 -150
c0 -147 1 -151 31 -215 40 -83 94 -155 153 -203 25 -21 118 -74 206 -119 172
-87 292 -162 368 -231 39 -37 47 -50 47 -79 0 -24 -6 -39 -17 -44 -10 -5 -760
-11 -1668 -14 -1141 -4 -1659 -9 -1680 -16 -47 -17 -103 -45 -203 -103 -51
-30 -95 -51 -98 -48 -12 12 76 243 147 387 133 266 282 472 497 685 565 563
1381 859 2188 795z m691 -435 c265 -89 512 -231 738 -425 134 -116 191 -179
223 -248 24 -50 27 -69 27 -162 0 -99 -2 -110 -33 -172 -80 -162 -273 -264
-450 -236 -87 14 -136 41 -225 125 -197 187 -366 299 -582 383 -118 46 -177
100 -229 210 -28 59 -31 74 -31 165 0 87 3 107 27 157 27 58 89 133 142 171
53 38 146 66 220 66 53 1 92 -7 173 -34z M9159 2451 c19 -35 82 -104 119 -130
20 -15 75 -48 122 -74 168 -94 324 -221 453 -367 68 -77 143 -194 220 -344 72
-137 95 -173 169 -255 l48 -53 -6 33 c-15 78 -57 205 -97 297 -85 193 -196
352 -357 512 -163 162 -341 280 -547 360 -116 46 -139 50 -124 21z M9500 1160
c0 -3 -1 -191 -2 -418 l-3 -412 418 0 419 0 -5 383 c-3 210 -9 397 -14 415
l-8 34 -403 1 c-221 1 -402 0 -402 -3z m656 -276 l52 -7 -19 -41 c-10 -22 -19
-51 -19 -63 0 -13 -4 -23 -10 -23 -6 0 -10 -28 -10 -65 0 -37 -4 -65 -10 -65
-5 0 -10 -16 -10 -35 0 -31 -3 -35 -25 -35 -16 0 -25 -6 -25 -15 0 -12 -14
-15 -65 -15 -37 0 -65 -4 -65 -10 0 -5 -16 -10 -35 -10 -19 0 -35 -4 -35 -9 0
-11 -89 -36 -98 -27 -4 4 -8 102 -10 217 l-4 209 168 0 c93 0 192 -3 220 -6z
M6854 411 c-22 -10 -60 -33 -84 -50 l-43 -31 1359 0 1359 0 -48 30 c-26 17
-67 36 -92 42 -25 7 -45 16 -45 20 0 4 -532 8 -1182 8 -1132 0 -1185 -1 -1224
-19z"/>
</g>
</svg>
