<?xml version="1.0" standalone="no"?>
<!DOCTYPE svg PUBLIC "-//W3C//DTD SVG 20010904//EN"
 "http://www.w3.org/TR/2001/REC-SVG-20010904/DTD/svg10.dtd">
<svg version="1.0" xmlns="http://www.w3.org/2000/svg"
 width="2048.000000pt" height="2048.000000pt" viewBox="0 0 2048.000000 2048.000000"
 preserveAspectRatio="xMidYMid meet">
<metadata>
Created by potrace 1.13, written by Peter Selinger 2001-2015
</metadata>
<g transform="translate(0.000000,2048.000000) scale(0.192120,-0.192120)"
fill="#000000" stroke="none">
<path d="M2117 10230 c-95 -24 -174 -89 -212 -174 -13 -28 -80 -208 -151 -400
-70 -191 -133 -350 -138 -352 -6 -1 -177 -64 -380 -139 -375 -138 -424 -161
-472 -227 -45 -59 -57 -98 -58 -183 0 -67 4 -88 26 -130 59 -112 83 -125 513
-284 l380 -139 141 -381 c78 -210 149 -391 157 -404 116 -177 375 -188 502
-21 20 26 75 161 168 411 75 205 137 376 137 381 0 5 163 69 363 142 199 73
379 142 399 152 60 29 105 75 138 140 73 146 13 331 -130 402 -25 13 -202 81
-395 151 -192 71 -355 133 -362 139 -6 6 -71 173 -143 371 -73 198 -143 379
-156 401 -29 51 -85 101 -138 125 -51 22 -139 31 -189 19z m131 -285 c36 -26
66 -89 162 -345 97 -257 122 -312 164 -370 49 -65 136 -147 187 -175 28 -15
175 -74 326 -131 151 -56 286 -110 299 -119 16 -10 24 -25 24 -43 0 -66 -48
-93 -370 -212 -273 -101 -310 -121 -406 -215 -97 -95 -114 -126 -214 -395
-131 -355 -171 -418 -255 -407 -74 10 -101 57 -223 387 -44 118 -92 241 -107
273 -34 72 -144 191 -216 234 -30 18 -166 75 -304 126 -302 113 -348 135 -365
176 -15 36 -9 54 22 75 13 8 156 65 317 125 317 119 370 147 448 237 71 82 97
135 198 409 128 347 152 385 244 385 26 0 56 -7 69 -15z M6150 9316 c-739 -94
-1442 -457 -1928 -995 -443 -490 -710 -1093 -801 -1811 -36 -279 -44 -532 -38
-1180 7 -646 16 -888 47 -1229 64 -696 198 -1111 395 -1222 30 -17 55 -37 55
-43 0 -9 31 -15 108 -20 883 -57 1772 -501 2338 -1170 l59 -69 290 6 c1313 27
2137 317 2297 807 17 54 22 97 26 263 l4 197 27 6 c140 29 242 136 307 317 43
120 83 396 104 717 29 438 36 2199 11 2450 -53 510 -168 919 -369 1315 -82
161 -228 387 -338 525 -95 119 -349 371 -473 469 -423 335 -913 555 -1441 647
-180 32 -511 41 -680 20z m630 -261 c490 -77 995 -299 1390 -611 120 -95 383
-363 476 -485 286 -377 466 -808 554 -1319 21 -124 21 -133 18 -1580 l-4
-1455 -26 -145 c-44 -246 -60 -291 -139 -390 -37 -45 -59 -110 -59 -170 0 -45
-2 -48 -31 -54 -90 -18 -265 6 -432 60 -62 20 -222 79 -357 131 -217 85 -674
243 -700 243 -6 0 -10 -85 -10 -229 l0 -229 -88 -56 c-524 -330 -1155 -364
-1702 -91 -41 20 -114 62 -162 92 l-88 55 -2 223 -3 224 -220 -73 c-121 -40
-326 -112 -455 -158 -268 -98 -446 -151 -574 -173 -98 -17 -105 -15 -133 39
-9 17 -49 72 -88 121 -123 153 -165 239 -219 447 -41 161 -84 442 -106 703 -8
88 -10 487 -8 1245 4 1106 4 1116 26 1235 133 712 406 1221 892 1667 433 397
1021 668 1617 743 142 18 489 13 633 -10z m1194 -6225 c277 -104 286 -108 293
-126 13 -35 -16 -62 -119 -112 -255 -124 -794 -240 -815 -176 -2 7 20 29 49
49 137 98 288 285 288 356 0 10 5 19 10 19 6 0 10 19 10 41 l0 42 34 -6 c19
-3 131 -42 250 -87z m-2834 30 c0 -16 -4 -30 -9 -30 -10 0 -22 40 -15 52 11
18 24 6 24 -22z m3576 -187 c9 -47 -3 -82 -44 -132 -125 -153 -490 -324 -872
-409 -422 -94 -962 -150 -1350 -140 -185 5 -208 11 -393 97 l-100 47 355 -4
c361 -5 586 4 848 34 829 94 1394 331 1446 609 l7 39 48 -54 c29 -31 51 -67
55 -87z m204 -165 c-67 -179 -246 -346 -501 -467 -361 -172 -922 -279 -1629
-312 -179 -8 -261 -8 -305 0 -57 10 -275 107 -275 121 0 4 161 10 358 13 472
7 800 43 1181 127 555 124 990 334 1156 558 37 50 43 34 15 -40z M5438 7526
c-99 -36 -130 -62 -528 -451 -118 -116 -286 -268 -372 -338 -276 -225 -399
-377 -471 -582 -41 -116 -47 -165 -47 -408 0 -198 4 -255 25 -387 109 -690
435 -1358 856 -1754 117 -111 179 -148 327 -197 70 -23 142 -52 160 -66 l32
-24 0 35 c0 33 -5 39 -72 83 -282 186 -551 472 -745 791 -273 451 -446 1055
-447 1557 0 145 3 182 22 250 54 193 149 325 360 498 74 62 167 138 206 170
39 33 220 205 402 383 l332 323 118 -66 c321 -180 740 -349 1069 -433 187 -47
332 -67 550 -75 94 -3 217 -13 275 -21 538 -77 946 -327 1119 -687 80 -165
102 -307 82 -513 -92 -900 -481 -1652 -1092 -2110 -41 -30 -89 -64 -106 -75
-27 -17 -33 -27 -33 -55 l0 -34 38 25 c21 14 83 40 137 59 55 18 125 46 155
62 77 40 304 268 411 414 241 325 429 734 533 1156 66 267 78 356 83 625 5
229 4 251 -17 327 -33 121 -135 321 -215 421 -190 234 -499 419 -842 506 -156
39 -271 54 -529 70 -350 21 -558 64 -879 180 -151 55 -416 171 -595 260 -118
59 -214 96 -249 95 -9 -1 -32 -7 -53 -14z M5444 6060 c-83 -19 -155 -95 -175
-184 -18 -81 -8 -332 15 -376 46 -89 119 -134 217 -135 56 0 73 4 114 30 27
17 63 50 80 74 l30 43 3 188 c3 185 3 189 -22 239 -30 59 -77 97 -142 117 -51
15 -72 16 -120 4z M7325 6061 c-69 -17 -125 -62 -161 -131 -17 -30 -19 -59
-19 -215 0 -196 4 -214 64 -278 110 -119 309 -89 377 56 22 49 24 63 24 223 0
162 -1 172 -25 221 -49 98 -157 149 -260 124z M6124 4876 c-32 -32 -34 -38
-34 -99 0 -68 18 -104 61 -128 13 -6 119 -10 290 -10 293 0 299 1 335 56 12
19 15 41 12 91 -4 60 -7 70 -36 95 l-32 29 -281 0 -281 0 -34 -34z M5774 4341
c-107 -49 -141 -192 -68 -288 31 -41 169 -132 259 -171 209 -91 490 -115 726
-63 242 54 458 189 487 304 43 168 -147 300 -289 201 -129 -90 -206 -124 -334
-144 -184 -30 -398 10 -522 97 -126 87 -178 101 -259 64z M7270 3302 c-188
-88 -379 -147 -577 -177 -114 -17 -380 -20 -503 -5 -184 23 -407 89 -605 180
-47 22 -83 34 -78 27 4 -6 20 -30 35 -51 15 -21 28 -47 28 -57 0 -45 178 -154
344 -211 178 -60 267 -72 526 -72 256 0 346 12 520 70 169 56 340 161 340 208
0 13 16 48 35 76 20 29 34 54 33 55 -2 1 -46 -18 -98 -43z M1277 7268 c-46
-10 -81 -32 -108 -69 -11 -16 -58 -168 -108 -351 l-88 -322 -224 -83 c-123
-45 -235 -91 -249 -101 -112 -83 -96 -249 29 -311 20 -10 126 -51 236 -91 110
-40 202 -74 204 -76 1 -1 42 -159 90 -351 48 -191 93 -358 99 -369 17 -32 67
-71 108 -84 73 -25 176 16 210 82 10 18 56 188 104 377 l86 344 219 82 c256
95 256 94 292 142 25 32 28 45 28 108 0 63 -3 76 -28 108 -36 48 -46 52 -294
143 -114 41 -211 79 -216 83 -4 4 -27 83 -52 177 -111 413 -127 466 -158 501
-49 56 -109 76 -180 61z m67 -440 c8 -13 30 -75 49 -138 47 -154 51 -163 103
-241 53 -80 142 -165 207 -197 93 -46 94 -71 9 -123 -76 -46 -199 -165 -239
-231 -19 -31 -49 -112 -74 -198 -39 -138 -64 -200 -81 -200 -20 0 -54 85 -104
255 -10 33 -27 83 -40 110 -37 85 -159 211 -269 279 -64 39 -59 61 24 105 76
40 176 138 220 213 16 29 51 117 77 196 44 133 73 192 94 192 5 0 16 -10 24
-22z M3500 2823 c-242 -17 -435 -46 -646 -98 -1052 -260 -1902 -978 -2297
-1940 -43 -107 -103 -283 -127 -375 -6 -25 -13 -53 -16 -62 -5 -17 6 -18 128
-18 l133 0 -46 43 c-64 58 -75 97 -53 184 32 127 105 301 200 477 392 721
1063 1276 1860 1541 278 93 491 135 834 165 174 15 207 25 229 68 l12 22 -83
-2 c-46 -1 -103 -3 -128 -5z M9154 2533 c41 -81 97 -141 201 -216 135 -97 307
-269 382 -383 76 -117 147 -277 182 -418 29 -115 64 -202 106 -264 l25 -37 0
96 c0 235 -75 471 -216 685 -110 166 -333 374 -526 492 -68 41 -163 92 -173
92 -3 0 6 -21 19 -47z M3430 2478 c-869 -72 -1688 -521 -2190 -1201 -207 -279
-343 -557 -456 -929 -5 -17 139 -18 2920 -18 1609 0 2926 1 2926 3 0 12 -95
280 -124 350 -385 927 -1260 1600 -2297 1767 -242 38 -531 49 -779 28z m486
-258 c678 -54 1276 -320 1743 -775 252 -246 436 -507 569 -809 48 -109 105
-276 98 -284 -3 -2 -54 23 -113 56 -188 106 -186 105 -378 113 -209 9 -231 15
-229 57 1 17 11 44 23 60 11 16 34 63 51 105 78 195 13 397 -193 593 -305 294
-716 515 -1029 555 -206 26 -389 -68 -478 -246 l-35 -70 0 -150 c0 -147 1
-151 31 -215 40 -83 94 -155 153 -203 25 -21 118 -74 206 -119 172 -87 292
-162 368 -231 39 -37 47 -50 47 -79 0 -24 -6 -39 -17 -44 -10 -5 -760 -11
-1668 -14 -1141 -4 -1659 -9 -1680 -16 -47 -17 -103 -45 -203 -103 -51 -30
-95 -51 -98 -48 -12 12 76 243 147 387 133 266 282 472 497 685 565 563 1381
859 2188 795z m691 -435 c265 -89 512 -231 738 -425 134 -116 191 -179 223
-248 24 -50 27 -69 27 -162 0 -99 -2 -110 -33 -172 -80 -162 -273 -264 -450
-236 -87 14 -136 41 -225 125 -197 187 -366 299 -582 383 -118 46 -177 100
-229 210 -28 59 -31 74 -31 165 0 87 3 107 27 157 27 58 89 133 142 171 53 38
146 66 220 66 53 1 92 -7 173 -34z M9220 748 l0 -418 421 0 422 0 -6 83 c-4
45 -7 233 -7 417 l0 335 -415 0 -415 0 0 -417z m664 136 c25 -4 46 -11 46 -16
0 -5 -9 -28 -20 -50 -11 -23 -20 -48 -20 -55 0 -7 -4 -13 -10 -13 -6 0 -10
-28 -10 -65 0 -37 -4 -65 -10 -65 -5 0 -10 -16 -10 -35 0 -28 -4 -35 -20 -35
-11 0 -20 -7 -20 -15 0 -12 -14 -15 -65 -15 -37 0 -65 -4 -65 -10 0 -5 -18
-10 -40 -10 -22 0 -40 -4 -40 -9 0 -9 -88 -37 -95 -29 -2 2 -7 99 -11 216 l-7
212 175 0 c96 0 196 -3 222 -6z M6854 411 c-22 -10 -60 -33 -84 -50 l-43 -31
1218 0 c735 0 1215 4 1209 9 -19 19 -132 71 -153 71 -11 0 -21 5 -21 10 0 7
-354 10 -1042 10 -995 0 -1045 -1 -1084 -19z"/>
</g>
</svg>
