<?xml version="1.0" standalone="no"?>
<!DOCTYPE svg PUBLIC "-//W3C//DTD SVG 20010904//EN"
 "http://www.w3.org/TR/2001/REC-SVG-20010904/DTD/svg10.dtd">
<svg version="1.0" xmlns="http://www.w3.org/2000/svg"
 width="2048.000000pt" height="2048.000000pt" viewBox="0 0 2048.000000 2048.000000"
 preserveAspectRatio="xMidYMid meet">
<metadata>
Created by potrace 1.13, written by Peter Selinger 2001-2015
</metadata>
<g transform="translate(0.000000,2048.000000) scale(0.192120,-0.192120)"
fill="#000000" stroke="none">
<path d="M5279 10186 c-3 -4 -3630 -782 -3816 -819 -40 -8 -84 -22 -98 -31
-74 -49 -86 -150 -24 -211 30 -30 59 -41 274 -102 l240 -69 3 -848 2 -848 -34
-39 c-38 -45 -69 -133 -88 -254 -20 -124 -17 -699 5 -895 52 -460 147 -740
253 -740 161 0 288 640 271 1365 -7 315 -34 454 -103 526 l-25 26 -1 784 -1
784 74 6 c70 7 87 3 314 -59 132 -36 242 -67 244 -69 2 -1 -8 -51 -22 -110
-40 -165 -50 -253 -51 -428 -1 -150 1 -165 27 -238 45 -127 107 -212 225 -308
294 -238 783 -375 1582 -446 297 -26 1301 -26 1600 0 760 66 1258 202 1552
422 151 114 240 245 274 405 29 133 0 462 -55 638 -14 45 -16 64 -8 67 7 2
322 91 702 199 659 187 691 197 724 230 62 62 50 163 -24 212 -14 9 -58 23
-98 31 -40 8 -921 197 -1960 419 -1038 222 -1902 404 -1921 404 -18 0 -35 -2
-37 -4z m146 -321 c96 -12 2567 -545 2596 -561 16 -8 27 -19 24 -23 -10 -17
-101 -54 -235 -97 -279 -89 -2385 -685 -2441 -691 -77 -8 -136 5 -413 88 -271
81 -356 114 -356 140 0 22 9 24 366 54 333 29 379 36 451 70 74 37 177 150
219 241 66 143 38 252 -101 392 -44 43 -92 81 -121 94 -91 40 -96 39 -931 -28
-238 -19 -498 -36 -578 -37 -80 -1 -145 -5 -145 -8 0 -8 -59 2 -65 12 -6 9 22
26 56 33 13 2 38 9 54 15 40 15 1366 298 1447 309 34 5 77 8 93 6 17 -2 53 -6
80 -9z m-35 -523 c75 -37 102 -127 57 -193 -46 -68 7 -61 -1187 -159 -602 -49
-1144 -95 -1205 -101 -60 -6 -220 -18 -355 -28 l-245 -18 -33 28 c-66 58 -223
75 -306 33 -42 -20 -103 -29 -119 -16 -7 6 -40 25 -74 41 -61 30 -61 31 -53
62 20 68 58 85 236 101 172 15 145 25 -96 34 -183 7 -265 21 -340 59 -55 28
-76 59 -66 99 8 32 -27 39 356 -72 162 -46 311 -89 330 -94 27 -8 380 19 1515
114 814 69 1496 126 1515 127 19 0 51 -7 70 -17z m3668 -71 c8 -79 -46 -101
-708 -291 -195 -56 -377 -114 -404 -128 -61 -33 -86 -66 -93 -121 -5 -34 -11
-45 -32 -53 -61 -24 -2468 -708 -2491 -708 -18 0 -2183 614 -2492 707 -24 7
-22 27 5 59 21 24 33 27 122 35 123 11 169 24 213 57 l33 25 177 -48 c97 -26
574 -161 1059 -300 l883 -252 1642 469 c1922 549 2060 588 2073 584 6 -1 11
-17 13 -35z m-4943 -1200 c578 -164 1077 -304 1109 -310 86 -16 160 -13 251 8
44 11 538 150 1097 310 559 160 1035 294 1058 297 l40 7 0 -209 c0 -229 -3
-242 -68 -331 -109 -148 -502 -294 -997 -372 -316 -49 -603 -70 -1060 -77
-313 -5 -421 -3 -700 15 -418 27 -818 65 -960 92 -397 74 -750 221 -847 352
-64 88 -68 103 -68 318 0 108 3 199 8 203 4 4 25 5 47 2 23 -3 513 -140 1090
-305z m-2082 -1065 c12 -22 35 -126 58 -264 36 -214 39 -239 39 -442 0 -228
-2 -242 -56 -376 -38 -95 -63 -114 -88 -66 -32 64 -37 159 -34 658 3 469 4
493 22 513 25 27 35 23 59 -23z M2698 7740 c-98 -164 -217 -458 -282 -695
-106 -386 -134 -658 -143 -1350 -17 -1472 86 -2356 314 -2690 50 -73 84 -106
143 -137 39 -20 58 -23 145 -22 179 3 347 47 834 220 163 58 364 127 446 153
l150 47 3 33 3 33 77 -75 c244 -237 567 -340 1017 -323 382 13 657 118 873
332 52 52 62 68 62 96 l0 34 -152 -76 c-287 -144 -508 -199 -818 -207 -280 -7
-480 24 -718 113 -92 35 -331 149 -342 163 -3 4 -23 18 -45 31 -22 13 -80 54
-130 90 -469 347 -830 915 -990 1557 l-28 112 -61 0 c-198 -1 -360 180 -433
483 -28 113 -25 383 5 503 51 202 166 371 298 436 59 29 70 31 142 27 95 -5
159 -37 229 -111 32 -34 50 -47 59 -41 6 5 81 65 165 134 139 113 525 478 515
487 -2 2 -42 -7 -87 -21 -145 -45 -233 -97 -404 -241 -102 -86 -154 -118 -194
-118 -20 -1 -74 14 -119 31 -187 73 -334 45 -489 -94 -81 -72 -121 -127 -193
-270 l-60 -119 0 170 c0 168 1 173 40 320 22 83 81 272 132 420 l91 270 -7
125 c-4 69 -10 145 -14 170 l-7 45 -27 -45z m-162 -2307 c13 -16 24 -31 24
-34 0 -16 94 -160 137 -211 66 -77 114 -114 211 -161 97 -47 96 -46 167 -247
183 -520 421 -900 785 -1257 44 -42 80 -85 80 -95 0 -27 -35 -53 -108 -81 -37
-14 -189 -73 -338 -131 -347 -135 -400 -150 -534 -150 -96 -1 -109 1 -151 26
-104 61 -183 264 -243 629 -58 349 -59 366 -63 1077 -3 364 -1 662 3 662 4 0
17 -12 30 -27z M7902 7661 c-23 -168 -17 -228 33 -378 25 -73 45 -141 45 -151
0 -9 18 -89 40 -177 37 -150 40 -169 40 -305 l0 -145 -73 78 c-125 135 -224
192 -351 204 -79 7 -169 -16 -263 -67 -95 -53 -129 -53 -225 0 -137 76 -255
129 -344 154 -167 48 -256 57 -659 66 -209 5 -423 14 -475 20 -124 13 -309 38
-384 50 -33 5 -61 8 -63 6 -7 -7 245 -86 367 -115 164 -40 309 -59 505 -66
186 -7 291 -18 430 -46 265 -53 548 -184 704 -325 l54 -48 16 24 c34 53 113
128 163 155 41 22 69 30 130 33 72 4 83 2 142 -27 132 -65 245 -230 298 -436
30 -118 33 -375 6 -498 -74 -329 -283 -534 -494 -483 l-32 7 -17 -78 c-88
-397 -278 -803 -538 -1148 -90 -120 -365 -389 -476 -465 -135 -94 -128 -85
-135 -165 l-5 -70 272 -91 c150 -50 371 -126 492 -168 968 -340 1158 -199
1225 904 15 260 33 1496 27 1920 -6 407 -19 582 -61 831 -49 285 -142 600
-251 840 -46 104 -122 249 -129 249 -1 0 -8 -40 -14 -89z m208 -3123 c0 -880
-2 -915 -49 -1138 -26 -125 -44 -174 -87 -236 -52 -77 -104 -97 -260 -102
-155 -5 -210 9 -507 127 -122 48 -280 110 -350 137 -114 43 -177 80 -177 105
0 4 60 68 133 141 315 317 542 685 712 1158 91 251 88 246 143 265 159 56 251
128 358 282 36 51 70 93 75 93 5 0 9 -329 9 -832z M4335 6061 c-69 -17 -125
-62 -161 -131 -17 -30 -19 -59 -19 -215 0 -196 4 -214 64 -278 110 -119 309
-89 377 56 22 49 24 63 24 223 0 162 -1 172 -25 221 -49 98 -157 149 -260 124z
M6215 6061 c-70 -18 -125 -63 -161 -131 -15 -28 -19 -63 -22 -185 -5 -201 4
-243 72 -310 36 -36 65 -55 99 -64 100 -28 206 14 262 103 30 49 30 49 33 224
4 198 -4 234 -62 294 -58 60 -149 88 -221 69z M5021 4884 c-69 -58 -62 -192
12 -231 24 -12 79 -15 300 -14 250 0 273 2 297 19 14 10 31 30 37 43 17 33 16
114 -2 149 -31 60 -33 60 -336 60 l-277 0 -31 -26z M4665 4342 c-124 -58 -148
-209 -50 -307 159 -159 466 -257 760 -241 66 3 159 15 207 25 205 46 420 166
469 262 47 93 8 214 -83 258 -82 39 -134 27 -261 -62 -124 -87 -338 -127 -522
-97 -128 20 -205 54 -334 144 -55 38 -128 45 -186 18z M4310 3055 c0 -141 3
-185 13 -185 25 1 95 39 111 61 9 13 16 39 16 59 -1 37 -28 127 -54 178 -15
30 -61 72 -77 72 -5 0 -9 -83 -9 -185z M6296 3205 c-61 -56 -109 -240 -75
-281 14 -18 85 -53 105 -54 17 0 27 152 19 265 -4 52 -11 95 -15 95 -4 0 -19
-11 -34 -25z M3485 2823 c-22 -2 -87 -10 -145 -19 -483 -72 -931 -291 -1236
-605 -182 -188 -285 -367 -350 -610 l-28 -104 -4 -577 -3 -578 3611 0 3611 0
-3 578 -4 577 -28 104 c-65 243 -167 419 -350 609 -154 160 -300 266 -507 372
-219 112 -426 181 -674 227 -133 24 -162 25 -587 30 l-448 5 0 -46 c0 -99 -68
-215 -173 -293 -326 -242 -1027 -289 -1496 -100 -96 39 -171 87 -237 152 -70
69 -101 129 -117 220 l-11 65 -391 -2 c-214 -1 -408 -3 -430 -5z m365 -48 c26
-13 66 -27 88 -31 35 -5 43 -12 66 -54 170 -313 426 -567 699 -695 191 -89
335 -124 557 -132 557 -21 1017 246 1326 767 57 97 60 100 94 100 20 0 67 15
109 35 40 19 77 35 81 35 24 0 -117 -364 -230 -595 -320 -650 -749 -1135
-1232 -1395 l-77 -41 -43 22 c-160 80 -384 241 -539 387 -303 286 -592 711
-797 1172 -106 238 -182 450 -161 450 5 0 32 -11 59 -25z m-210 -285 c15 -16
58 -98 95 -182 166 -380 402 -769 630 -1043 183 -220 315 -346 540 -517 111
-84 130 -108 98 -124 -10 -5 -300 -10 -644 -12 l-627 -3 -21 35 c-13 20 -33
93 -51 185 -34 172 -60 233 -129 304 -99 104 -156 103 -266 -7 -62 -62 -102
-148 -139 -300 -22 -86 -42 -146 -61 -174 l-28 -42 -68 0 -68 0 -25 43 c-14
24 -31 79 -41 132 -42 240 -79 317 -189 397 -51 37 -95 37 -150 -1 -105 -72
-160 -168 -202 -350 -47 -206 -61 -221 -195 -221 l-99 0 0 465 c0 444 1 469
21 527 95 283 339 525 714 708 166 82 337 140 507 174 148 30 168 32 281 34
87 2 90 1 117 -28z m3779 -5 c511 -106 984 -411 1150 -742 75 -150 71 -114 71
-650 l0 -483 -95 0 -95 0 -24 38 c-16 23 -36 84 -55 168 -45 199 -95 293 -195
366 -57 41 -101 38 -163 -11 -112 -90 -141 -146 -182 -357 -11 -56 -31 -125
-45 -153 l-26 -51 -69 0 c-94 0 -114 25 -150 192 -46 211 -98 311 -198 377
-76 51 -115 42 -204 -44 -72 -70 -104 -140 -139 -306 -20 -99 -37 -153 -55
-180 l-25 -39 -603 0 c-386 0 -615 4 -639 11 -63 17 -52 38 62 119 118 84 234
187 371 327 316 325 578 728 810 1252 35 79 77 157 92 174 l28 30 127 -6 c73
-4 179 -17 251 -32z m-4814 -1449 c28 -65 75 -432 75 -576 l0 -59 -52 24 c-66
31 -71 31 -137 0 l-54 -25 6 97 c13 202 61 460 98 536 24 46 46 47 64 3z m839
-13 c26 -75 87 -606 71 -621 -1 -2 -26 8 -54 22 -62 32 -73 32 -138 1 l-53
-24 0 32 c0 56 29 288 51 401 31 165 59 236 95 236 6 0 19 -21 28 -47z m3850
20 c34 -67 66 -217 92 -438 7 -66 14 -139 14 -162 l0 -42 -52 24 c-66 31 -70
31 -137 0 l-54 -26 6 123 c12 220 53 504 78 535 18 21 37 15 53 -14z m830 5
c41 -67 80 -278 110 -595 3 -29 3 -53 2 -53 -2 0 -28 11 -58 25 -66 31 -70 31
-137 0 l-54 -25 7 102 c16 245 53 505 77 550 13 25 36 22 53 -4z"/>
</g>
</svg>
