<?xml version="1.0" standalone="no"?>
<!DOCTYPE svg PUBLIC "-//W3C//DTD SVG 20010904//EN"
 "http://www.w3.org/TR/2001/REC-SVG-20010904/DTD/svg10.dtd">
<svg version="1.0" xmlns="http://www.w3.org/2000/svg"
 width="2048.000000pt" height="2048.000000pt" viewBox="0 0 2048.000000 2048.000000"
 preserveAspectRatio="xMidYMid meet">
<metadata>
Created by potrace 1.13, written by Peter Selinger 2001-2015
</metadata>
<g transform="translate(0.000000,2048.000000) scale(0.192120,-0.192120)"
fill="#000000" stroke="none">
<path d="M4945 10039 c-337 -25 -695 -92 -993 -185 -1161 -362 -1980 -1250
-2187 -2369 -57 -310 -60 -698 -9 -1100 65 -519 241 -915 404 -915 61 0 93 45
120 167 130 593 356 1090 677 1493 113 142 395 420 426 420 3 0 79 -59 169
-130 711 -568 1137 -711 1224 -413 17 57 15 189 -2 253 -5 17 49 -30 168 -146
355 -347 633 -556 768 -579 83 -13 119 49 100 175 -14 96 -74 275 -144 431
-31 67 -54 124 -52 126 1 2 23 -14 47 -35 323 -283 1060 -470 2002 -508 l168
-7 299 -597 c253 -506 307 -606 350 -653 29 -31 66 -61 85 -67 124 -41 237
168 305 562 70 414 91 1108 41 1391 -65 369 -197 709 -401 1034 -337 536 -823
970 -1415 1262 -452 224 -899 345 -1440 391 -139 11 -550 11 -710 -1z m568
-269 c217 -11 308 -20 497 -51 1008 -167 1883 -742 2362 -1554 110 -186 203
-412 259 -631 l40 -159 -4 -625 -4 -625 -27 -135 c-15 -74 -29 -152 -33 -172
-6 -43 -33 -71 -56 -62 -30 11 -77 97 -299 539 -204 407 -225 444 -282 503
-66 70 -119 105 -181 121 -22 5 -119 15 -215 21 -563 35 -1028 114 -1363 230
-65 22 -185 72 -268 111 -176 82 -232 97 -286 81 -45 -14 -95 -59 -114 -102
-8 -16 -18 -30 -23 -30 -5 0 -6 -70 -2 -170 6 -143 5 -170 -7 -170 -27 0 -152
102 -382 309 -159 145 -263 204 -329 187 -44 -11 -129 -100 -170 -177 -22 -41
-45 -78 -53 -82 -7 -4 -13 -14 -13 -21 0 -43 -132 -13 -287 64 -143 72 -300
175 -545 358 -186 139 -279 192 -339 192 -90 0 -186 -58 -340 -207 -365 -351
-640 -811 -844 -1408 -69 -203 -86 -221 -123 -137 -40 90 -66 199 -97 409 -22
151 -22 940 1 1068 42 240 112 454 223 680 287 583 786 1047 1430 1327 426
186 927 295 1451 317 96 5 186 8 200 9 14 1 114 -3 223 -8z M1760 5703 c-146
-147 -248 -372 -297 -653 -23 -131 -23 -431 1 -557 52 -286 154 -503 306 -654
83 -82 187 -143 269 -157 l45 -7 27 -130 c163 -791 531 -1498 1049 -2015 425
-426 933 -714 1490 -844 239 -56 373 -70 680 -70 313 0 445 14 695 74 702 167
1328 587 1789 1200 145 192 246 356 361 585 174 343 288 667 370 1050 l32 150
44 7 c83 14 187 75 269 157 315 315 418 936 244 1461 -55 166 -149 325 -243
414 -39 37 -39 37 -5 -153 17 -96 43 -198 77 -296 l52 -150 3 -294 3 -294 -42
-126 c-52 -159 -79 -218 -130 -295 -62 -92 -94 -122 -214 -201 -113 -75 -175
-137 -213 -212 -12 -23 -40 -117 -62 -210 -46 -190 -68 -263 -116 -378 -238
-573 -277 -664 -319 -740 -89 -160 -278 -421 -399 -552 -73 -77 -267 -251
-421 -375 -192 -154 -490 -325 -735 -421 -742 -292 -1603 -253 -2320 105 -371
185 -771 503 -985 784 -223 291 -275 373 -434 684 -127 250 -224 516 -312 855
-28 110 -62 220 -74 245 -32 62 -157 179 -235 221 -68 36 -166 126 -213 196
-38 55 -100 201 -123 288 -17 62 -19 108 -19 385 0 361 0 361 90 571 53 125
87 237 100 334 3 28 9 60 12 73 9 39 -17 24 -97 -55z M3855 5593 c-68 -25
-107 -54 -144 -109 -48 -73 -53 -120 -49 -466 4 -349 4 -351 76 -430 108 -120
296 -118 409 5 71 77 74 103 71 484 l-3 328 -30 53 c-67 123 -206 179 -330
135z M6659 5604 c-82 -15 -184 -114 -209 -202 -6 -22 -10 -167 -10 -348 0
-358 4 -387 73 -461 113 -123 301 -125 409 -5 74 82 73 76 73 462 0 380 0 377
-65 460 -54 68 -176 110 -271 94z M4944 3641 c-186 -85 -225 -334 -72 -465 73
-63 94 -66 458 -66 364 0 385 3 458 66 153 131 114 380 -72 465 -38 17 -70 19
-386 19 -316 0 -348 -2 -386 -19z m648 -217 c23 -4 40 -13 43 -24 19 -60 -43
-75 -310 -75 -226 0 -299 11 -310 46 -8 23 1 38 29 49 24 10 492 13 548 4z
M6636 2545 c-22 -8 -51 -23 -65 -34 -118 -95 -346 -164 -671 -205 -285 -36
-797 -39 -1090 -6 -326 37 -565 102 -694 190 -72 49 -123 64 -201 57 -236 -18
-336 -311 -163 -473 247 -233 901 -368 1703 -351 574 12 967 85 1274 234 186
91 271 193 271 327 0 146 -133 277 -279 276 -25 -1 -64 -7 -85 -15z m108 -241
c24 -9 19 -58 -8 -92 -75 -88 -408 -193 -751 -237 -212 -26 -372 -35 -655 -35
-284 0 -444 9 -655 36 -413 52 -785 187 -785 284 0 56 77 51 219 -14 194 -89
380 -137 671 -173 210 -26 890 -26 1100 0 281 35 501 91 645 164 120 61 184
81 219 67z"/>
</g>
</svg>
