<?xml version="1.0" standalone="no"?>
<!DOCTYPE svg PUBLIC "-//W3C//DTD SVG 20010904//EN"
 "http://www.w3.org/TR/2001/REC-SVG-20010904/DTD/svg10.dtd">
<svg version="1.0" xmlns="http://www.w3.org/2000/svg"
 width="2048.000000pt" height="2048.000000pt" viewBox="0 0 2048.000000 2048.000000"
 preserveAspectRatio="xMidYMid meet">
<metadata>
Created by potrace 1.13, written by Peter Selinger 2001-2015
</metadata>
<g transform="translate(0.000000,2048.000000) scale(0.192120,-0.192120)"
fill="#000000" stroke="none">
<path d="M6045 10319 c-1013 -61 -1620 -383 -2116 -1122 -164 -244 -237 -458
-274 -797 -45 -420 -66 -529 -127 -661 -72 -153 -220 -325 -375 -433 -46 -32
-92 -69 -103 -83 -60 -77 13 -154 221 -232 118 -44 342 -102 521 -135 l122
-22 18 -105 c9 -57 21 -117 26 -134 8 -27 4 -35 -44 -87 -125 -136 -190 -319
-201 -563 -12 -277 75 -532 230 -676 35 -33 118 -79 141 -79 17 0 18 -4 41
-145 78 -486 309 -1004 615 -1380 127 -155 336 -355 450 -431 l40 -27 0 -188
0 -189 -88 0 -88 0 -9 32 c-16 55 -50 58 -137 15 -88 -44 -176 -109 -313 -233
l-104 -94 -193 0 c-223 0 -329 -11 -484 -50 -299 -75 -553 -220 -774 -440
-181 -182 -319 -404 -400 -647 -75 -228 -90 -356 -90 -779 l0 -304 3890 0
3890 0 0 323 c0 177 -5 362 -10 412 -79 689 -566 1255 -1230 1431 -153 40
-277 54 -499 54 l-203 0 -77 72 c-42 39 -110 98 -151 131 -197 158 -306 194
-325 108 l-7 -31 -89 0 -89 0 2 187 3 187 85 65 c121 92 351 326 452 461 237
314 409 671 508 1051 21 85 48 206 58 270 11 64 22 121 25 126 4 6 19 14 34
18 111 27 238 182 303 369 55 161 64 428 20 606 -27 110 -96 253 -154 317 -46
51 -46 51 -37 99 5 27 12 85 16 129 10 129 4 121 92 135 338 53 687 170 762
255 59 67 41 108 -92 204 -96 70 -235 209 -301 300 -88 124 -144 299 -171 542
-48 428 -63 520 -112 668 -121 366 -435 747 -836 1015 -572 382 -1317 542
-2262 485z m-104 -143 c19 -13 54 -30 77 -37 23 -7 42 -15 42 -18 0 -3 174 -5
388 -5 l387 1 76 36 77 35 6 -46 c3 -25 6 -712 6 -1525 0 -814 1 -1481 2
-1483 2 -1 143 2 313 7 583 16 1166 74 1861 184 155 25 288 45 296 45 10 0 19
-21 28 -71 19 -111 2 -129 -171 -170 -257 -60 -295 -70 -323 -87 -43 -24 -76
-93 -76 -158 0 -41 -4 -54 -17 -58 -75 -23 -459 -73 -486 -63 -8 3 -18 21 -22
39 -12 53 -41 102 -70 118 -36 19 -156 18 -225 -3 -59 -17 -102 -53 -119 -100
-14 -36 -14 -94 -1 -102 5 -3 90 2 187 11 l177 17 49 -54 c102 -112 178 -248
224 -396 25 -81 27 -102 27 -263 1 -206 -13 -270 -94 -435 -123 -253 -351
-439 -625 -511 -83 -22 -123 -27 -235 -28 -179 -1 -289 24 -445 102 -207 102
-394 309 -471 518 l-27 74 -317 0 -318 0 -17 -52 c-43 -133 -165 -315 -271
-404 -194 -163 -393 -237 -639 -238 -133 0 -203 10 -310 46 -395 134 -664 506
-665 919 0 261 103 514 278 683 l41 39 163 -17 c217 -22 198 -24 198 30 0 96
-57 152 -174 173 -176 32 -241 2 -275 -126 -9 -31 -17 -43 -30 -43 -32 0 -313
39 -382 53 l-64 13 -8 63 c-17 138 -44 158 -300 215 -289 66 -297 71 -277 200
l13 77 46 -7 c25 -3 125 -19 221 -35 486 -79 978 -139 1435 -175 192 -15 762
-35 778 -27 4 2 7 692 7 1534 0 841 3 1529 8 1529 4 0 23 -11 43 -24z m-332
-1409 l1 -1358 -57 5 c-32 3 -112 8 -178 11 -220 10 -617 46 -905 81 -355 43
-764 103 -843 125 l-37 10 57 48 c145 122 167 179 213 563 42 352 68 470 137
615 99 212 239 406 428 595 246 247 489 397 825 509 85 28 157 55 158 60 2 5
12 9 23 9 10 0 19 4 19 9 0 5 11 12 25 15 14 4 25 11 25 16 0 5 21 25 47 45
43 32 48 34 54 18 4 -10 8 -629 8 -1376z m1749 1311 c48 -45 155 -97 322 -160
370 -138 675 -340 912 -602 299 -331 388 -546 443 -1071 19 -182 48 -337 75
-401 27 -61 70 -114 136 -169 l54 -43 -48 -11 c-334 -71 -1227 -175 -1687
-196 -71 -3 -167 -8 -212 -11 l-83 -6 0 1305 c0 717 3 1332 6 1365 8 69 7 69
82 0z m-3310 -3744 c17 -34 43 -75 57 -92 26 -31 26 -32 11 -79 -25 -79 -36
-161 -36 -269 0 -443 261 -822 676 -982 202 -78 419 -89 639 -32 115 30 285
116 380 194 100 81 280 272 321 340 l30 51 310 2 c170 2 314 0 319 -5 6 -4 20
-27 33 -52 30 -60 270 -304 363 -370 128 -90 263 -148 424 -181 88 -18 294
-15 390 5 421 91 733 406 819 828 20 95 21 301 2 380 l-13 56 28 21 c36 27 77
112 110 230 23 82 27 92 33 66 19 -94 25 -192 20 -375 -9 -404 -39 -509 -202
-707 -137 -168 -148 -189 -272 -528 -203 -553 -266 -699 -367 -844 -104 -150
-180 -237 -319 -362 -171 -155 -222 -210 -273 -297 -40 -67 -43 -76 -38 -125
3 -28 8 -61 12 -72 7 -24 -33 -51 -182 -124 -273 -134 -565 -201 -878 -201
-335 0 -635 72 -925 221 -162 84 -154 76 -140 142 27 118 -18 183 -326 477
-123 117 -283 325 -362 471 -153 284 -191 370 -274 629 -114 356 -142 415
-279 585 -89 110 -146 206 -175 291 l-27 79 7 325 c3 179 11 361 17 404 l12
79 22 -59 c12 -33 36 -87 53 -120z m4682 -79 c0 -5 -5 -3 -10 5 -5 8 -10 20
-10 25 0 6 5 3 10 -5 5 -8 10 -19 10 -25z m-3278 -3345 c276 -200 648 -295
1085 -276 366 15 652 104 891 276 46 33 85 60 88 60 2 0 4 -24 4 -54 0 -46 4
-58 25 -74 14 -11 43 -23 65 -27 l40 -7 0 -223 0 -222 -59 -7 c-75 -9 -129
-36 -222 -113 -41 -34 -155 -129 -254 -211 -236 -195 -339 -303 -361 -379 -11
-39 -14 -73 -10 -113 l7 -57 -83 -19 c-115 -26 -341 -26 -455 0 l-82 19 6 57
c9 88 -14 144 -100 238 -99 109 -408 377 -606 524 -41 31 -119 58 -168 58
l-33 0 0 224 0 224 36 7 c20 3 47 11 60 17 28 13 48 67 39 108 -4 17 -4 30 -1
30 2 0 42 -27 88 -60z m-398 -153 c16 -164 91 -329 215 -479 86 -104 188 -199
391 -363 167 -134 394 -360 484 -480 81 -108 176 -297 211 -420 37 -129 65
-301 72 -447 l6 -128 -23 0 c-12 0 -40 -5 -61 -11 -44 -14 -55 -9 -264 131
-490 328 -852 661 -1156 1066 -225 299 -394 630 -416 812 l-6 52 64 -1 c35 -1
78 2 94 6 62 16 147 90 228 199 43 58 123 126 148 126 3 0 9 -28 13 -63z
m2843 34 c22 -16 60 -56 84 -88 66 -88 160 -177 207 -195 27 -11 67 -16 117
-15 41 1 75 1 75 0 0 -32 -38 -173 -65 -244 -150 -391 -540 -904 -965 -1271
-191 -165 -506 -397 -703 -517 l-67 -41 -65 12 -65 13 0 60 c0 84 26 298 49
402 81 367 266 627 710 995 309 257 424 375 511 525 50 84 98 230 106 323 4
44 11 70 19 70 7 0 30 -13 52 -29z m-3514 -540 c13 -16 67 -116 120 -223 224
-454 576 -890 1024 -1266 68 -57 127 -111 133 -121 14 -28 -8 -41 -87 -52 -37
-4 -677 -8 -1420 -9 l-1353 0 0 284 c0 306 6 362 56 501 65 182 165 336 314
485 242 243 556 387 920 423 19 2 87 5 152 5 l116 2 25 -29z m4547 4 c114 -20
306 -83 402 -131 333 -168 574 -439 691 -777 l31 -92 4 -337 3 -338 -1343 1
c-739 0 -1373 3 -1411 8 -77 8 -106 27 -87 57 7 11 62 60 123 109 243 199 557
530 716 755 180 255 259 394 395 693 36 78 41 80 221 74 88 -3 203 -13 255
-22z M5674 6832 c-53 -25 -81 -63 -90 -118 -3 -25 -4 -47 -2 -49 2 -3 85 -10
184 -16 205 -13 184 -2 261 -131 l46 -78 373 0 373 0 7 23 c3 12 29 56 56 98
l50 77 112 6 c61 4 144 9 185 12 l73 7 -5 48 c-12 103 -64 134 -222 134 -129
0 -157 -11 -269 -100 -108 -86 -125 -90 -376 -90 -246 0 -244 0 -370 100 -101
81 -120 88 -240 92 -88 3 -112 1 -146 -15z M4918 6661 c-181 -77 -317 -225
-385 -416 -25 -73 -28 -92 -28 -220 0 -131 2 -145 31 -226 62 -175 186 -315
349 -394 283 -139 598 -80 813 150 124 133 185 287 184 470 0 122 -19 200 -75
315 -52 106 -167 228 -269 284 l-68 37 -197 15 c-268 19 -277 18 -355 -15z
m397 -242 c80 -15 128 -41 190 -103 80 -81 85 -97 85 -291 l0 -168 -30 -52
c-53 -93 -139 -151 -267 -181 -197 -46 -424 50 -499 210 -22 46 -24 64 -23
196 0 120 3 151 18 179 31 58 131 150 205 187 64 32 75 34 166 34 53 0 123 -5
155 -11z M7730 6684 c-14 -2 -92 -8 -173 -13 l-148 -9 -69 -41 c-144 -86 -248
-212 -304 -370 -29 -80 -31 -95 -31 -226 0 -131 2 -146 31 -226 133 -372 546
-564 904 -422 149 60 292 185 363 320 76 145 100 330 63 488 -45 192 -186 369
-360 456 -82 40 -96 44 -170 45 -45 1 -92 0 -106 -2z m145 -283 c70 -33 175
-126 199 -175 13 -27 16 -68 16 -201 l0 -168 -30 -52 c-53 -93 -139 -151 -267
-181 -197 -46 -424 50 -499 210 -22 46 -24 65 -24 194 0 164 6 182 85 270 89
99 172 130 355 131 96 1 110 -2 165 -28z M6167 5250 c-141 -43 -186 -233 -81
-341 63 -64 103 -71 382 -67 l237 3 47 28 c80 47 119 138 98 226 -14 60 -57
113 -113 140 -41 20 -59 21 -293 20 -137 0 -262 -5 -277 -9z M7290 4259 c-14
-6 -34 -19 -45 -29 -52 -49 -219 -99 -420 -127 -189 -26 -615 -23 -805 6 -165
25 -297 66 -379 116 -90 56 -177 48 -243 -22 -53 -56 -63 -140 -25 -208 62
-109 311 -208 632 -250 271 -36 711 -29 970 15 216 37 411 110 493 185 86 77
88 198 5 277 -48 46 -123 61 -183 37z M337 5678 c-22 -407 10 -851 83 -1131
102 -397 273 -587 528 -587 134 0 250 37 406 129 288 170 364 400 223 676
-114 224 -418 513 -822 783 -109 73 -400 252 -408 252 -2 0 -7 -55 -10 -122z
m390 -409 c467 -284 679 -548 587 -730 -42 -84 -210 -186 -322 -196 -169 -15
-281 134 -328 437 -25 163 -31 530 -9 530 3 0 35 -19 72 -41z M1655 4053 c-11
-3 -168 -86 -348 -186 -362 -199 -387 -218 -408 -311 -15 -69 -6 -99 81 -257
84 -152 110 -185 165 -210 66 -30 132 -25 210 17 37 19 68 34 70 32 1 -2 20
-50 42 -108 111 -289 180 -558 225 -874 20 -142 21 -200 25 -988 l4 -838 277
0 277 0 -2 787 c-2 446 -7 849 -13 928 -34 440 -144 865 -325 1251 -25 53 -45
98 -45 100 0 1 20 14 45 29 80 46 125 142 106 225 -13 57 -146 297 -189 343
-49 51 -131 76 -197 60z m85 -299 c48 -52 56 -70 65 -150 9 -78 29 -165 45
-193 10 -19 9 -25 -1 -33 -38 -24 -264 -150 -334 -186 l-80 -40 -33 53 c-25
41 -41 56 -70 66 -20 6 -39 15 -42 19 -3 3 -24 17 -48 30 -53 30 -102 103
-102 153 0 34 4 38 69 77 38 23 71 49 73 58 3 10 66 50 144 93 231 125 245
128 314 53z"/>
</g>
</svg>
