<?xml version="1.0" standalone="no"?>
<!DOCTYPE svg PUBLIC "-//W3C//DTD SVG 20010904//EN"
 "http://www.w3.org/TR/2001/REC-SVG-20010904/DTD/svg10.dtd">
<svg version="1.0" xmlns="http://www.w3.org/2000/svg"
 width="2048.000000pt" height="2048.000000pt" viewBox="0 0 2048.000000 2048.000000"
 preserveAspectRatio="xMidYMid meet">
<metadata>
Created by potrace 1.13, written by Peter Selinger 2001-2015
</metadata>
<g transform="translate(0.000000,2048.000000) scale(0.192120,-0.192120)"
fill="#000000" stroke="none">
<path d="M1330 10325 c-8 -2 -49 -9 -90 -15 -221 -36 -439 -156 -609 -336
-130 -137 -213 -289 -270 -493 l-26 -96 -3 -3165 c-2 -2189 1 -3190 8 -3247
17 -134 47 -232 110 -358 148 -297 391 -493 727 -587 77 -22 93 -22 871 -25
l793 -4 -7 28 c-3 15 -14 42 -23 58 -35 62 -10 59 -776 66 -385 3 -709 9 -720
12 -11 3 -54 14 -95 23 -246 57 -461 222 -608 468 -23 37 -53 103 -67 145
l-25 76 0 3295 0 3295 23 65 c38 105 103 207 191 296 130 130 275 215 456 265
l85 24 3210 0 c3035 0 3214 -1 3283 -18 328 -79 582 -295 670 -567 47 -144 54
-190 59 -417 3 -123 9 -223 13 -223 4 0 10 -35 13 -77 6 -101 26 -184 86 -368
l50 -150 -3 555 c-2 617 0 597 -76 786 -143 356 -478 622 -857 679 -85 13
-522 15 -3238 14 -1727 -1 -3147 -3 -3155 -4z M1383 9939 c-164 -19 -335 -107
-448 -231 -61 -68 -136 -196 -160 -274 -22 -73 -22 -6464 0 -6537 29 -96 87
-189 167 -269 127 -126 274 -199 441 -218 103 -12 1447 -13 1447 -1 0 4 57 11
128 13 107 5 160 13 337 56 116 28 230 55 255 60 30 7 -316 10 -1055 11 -927
1 -1111 4 -1170 16 -198 42 -358 194 -422 401 -17 57 -18 181 -18 3199 0 3020
1 3142 18 3200 59 191 200 332 392 391 58 18 166 19 3200 19 3018 0 3142 -1
3199 -18 106 -33 177 -76 251 -151 131 -133 165 -238 165 -513 0 -114 4 -173
10 -173 23 0 69 31 89 59 19 27 21 43 21 208 0 155 -3 188 -21 244 -37 115
-96 214 -173 292 -130 133 -258 196 -444 217 -108 12 -6103 11 -6209 -1z
M6100 9349 c-628 -58 -1177 -289 -1564 -659 -372 -356 -587 -794 -636 -1295
-27 -275 22 -741 101 -955 55 -148 139 -260 195 -260 58 0 70 20 104 165 121
530 380 969 751 1272 14 11 29 3 109 -61 343 -276 636 -432 773 -412 92 14
135 90 123 219 l-6 69 132 -124 c338 -314 522 -432 582 -372 42 41 6 205 -89
409 -24 52 -40 95 -36 95 4 0 18 -12 32 -26 37 -41 149 -111 241 -150 265
-113 684 -191 1139 -210 l157 -7 212 -418 c229 -452 260 -499 322 -499 54 1
96 47 136 150 28 71 61 194 66 245 2 22 12 110 21 195 13 108 18 237 19 425 1
244 -1 281 -22 383 -59 292 -200 596 -390 842 -80 103 -270 299 -372 385 -388
323 -887 529 -1431 590 -147 16 -509 18 -669 4z m757 -258 c265 -40 514 -114
733 -217 63 -30 211 -110 329 -177 191 -109 225 -132 312 -215 91 -87 181
-196 220 -267 10 -16 36 -64 59 -105 84 -152 169 -338 199 -435 l31 -99 0
-547 0 -547 -26 -6 c-18 -5 -32 -2 -45 10 -24 22 -114 184 -219 394 -88 177
-124 230 -188 274 -65 45 -112 56 -310 71 -446 36 -697 84 -971 187 -257 95
-310 95 -375 -2 -19 -29 -26 -53 -26 -89 0 -31 -5 -53 -15 -61 -8 -7 -15 -9
-15 -6 0 4 -7 0 -16 -8 -8 -9 -19 -16 -23 -16 -3 0 -61 44 -128 99 -159 128
-213 162 -268 169 -54 6 -85 -13 -183 -107 -35 -34 -69 -61 -76 -61 -27 0
-125 34 -187 66 -68 34 -221 134 -364 238 -179 131 -254 143 -379 62 -225
-145 -509 -553 -660 -948 -56 -146 -89 -176 -114 -105 -36 103 -42 184 -42
539 0 337 1 358 24 458 70 303 232 587 471 823 377 373 882 586 1530 646 165
16 569 5 722 -18z M3038 8376 c-95 -26 -173 -104 -198 -197 -7 -24 -9 -893 -8
-2455 l3 -2419 22 -40 c50 -93 147 -154 244 -155 114 0 206 56 256 158 l28 57
0 2415 c0 2345 -1 2416 -19 2464 -50 131 -197 208 -328 172z M1925 6987 c-66
-22 -101 -44 -139 -88 -71 -84 -67 56 -64 -1864 l3 -1730 22 -41 c109 -204
396 -205 497 -2 l26 52 0 1735 0 1736 -24 50 c-25 55 -90 119 -141 141 -50 21
-134 26 -180 11z m93 -1934 l-3 -1668 -25 0 -25 0 -3 1655 c-1 910 0 1661 3
1668 2 6 16 12 30 12 l25 0 -2 -1667z M3885 6473 c-61 -78 -110 -181 -142
-300 -22 -84 -26 -120 -27 -258 0 -99 4 -183 12 -220 35 -158 95 -293 169
-375 l43 -48 0 -959 c0 -1081 -4 -1023 75 -1111 62 -69 127 -96 220 -90 107 7
183 57 233 152 l27 51 3 343 c3 281 1 347 -11 370 -79 152 -153 307 -190 402
-81 204 -151 463 -179 659 l-14 93 -37 13 c-21 7 -56 26 -78 41 -34 24 -40 32
-34 53 3 14 8 58 11 96 5 62 1 82 -30 174 l-36 105 0 270 c0 149 5 298 10 331
15 86 40 247 40 257 0 21 -23 3 -65 -49z M8950 6509 c0 -9 9 -71 20 -137 18
-106 21 -155 18 -410 l-3 -289 -44 -88 c-33 -64 -67 -111 -131 -179 -83 -88
-170 -204 -170 -226 0 -5 -4 -18 -9 -28 -6 -9 -17 -48 -25 -87 -9 -38 -34
-149 -55 -245 -22 -96 -42 -200 -46 -230 -31 -267 -93 -451 -214 -645 -102
-162 -121 -181 -230 -231 -52 -25 -110 -56 -127 -69 -18 -14 -36 -25 -39 -25
-13 0 -224 -190 -254 -229 -17 -21 -42 -62 -57 -90 -21 -44 -25 -60 -19 -100
l6 -48 -53 -35 c-225 -147 -511 -250 -809 -293 -139 -20 -401 -19 -542 1 -279
40 -572 146 -794 286 l-63 40 0 57 c0 87 -35 149 -144 251 -49 47 -164 159
-254 249 -91 89 -180 169 -198 177 -42 18 -75 18 -99 0 -18 -13 -18 -17 -5
-40 24 -45 150 -207 229 -295 85 -94 232 -228 328 -299 l63 -47 0 -191 0 -192
43 -34 c100 -81 636 -462 948 -674 153 -103 162 -105 175 -37 17 92 -89 197
-366 361 -41 25 -138 82 -216 128 -371 217 -467 300 -498 426 -6 25 5 19 106
-57 244 -185 490 -271 851 -297 274 -20 557 9 770 77 162 53 325 143 471 261
59 48 59 48 52 19 -14 -57 -50 -120 -95 -164 -53 -51 -186 -142 -321 -219
-307 -175 -455 -267 -546 -339 -60 -48 -114 -125 -114 -163 0 -32 19 -90 29
-90 20 0 682 460 1004 698 l127 94 0 193 0 193 88 68 c48 37 150 131 227 209
213 213 370 436 528 745 50 97 77 142 73 120 -24 -141 -46 -396 -46 -552 0
-99 -4 -178 -9 -178 -5 0 -12 -135 -15 -307 -3 -170 -9 -355 -12 -413 -6 -115
2 -148 50 -205 31 -37 35 -33 72 78 53 158 53 169 54 1049 l0 817 40 153 c34
132 53 227 76 365 4 27 13 35 69 61 108 51 195 156 255 306 51 127 65 212 65
396 0 195 -20 289 -90 435 -43 90 -124 196 -125 164z M5234 6424 c-58 -21
-120 -77 -152 -138 -27 -51 -27 -52 -27 -261 0 -232 3 -248 65 -319 18 -20 54
-49 79 -64 40 -24 57 -27 131 -27 74 0 91 3 131 27 54 32 102 83 126 136 15
31 18 69 18 247 0 209 0 210 -27 261 -66 126 -213 185 -344 138z M7464 6428
c-60 -20 -127 -80 -159 -143 l-30 -59 0 -200 c0 -200 0 -201 28 -258 50 -102
142 -158 256 -158 107 1 213 76 251 178 17 46 20 78 20 236 0 211 -8 249 -72
321 -56 63 -107 87 -193 91 -38 2 -84 -2 -101 -8z M6160 5249 c-146 -58 -181
-241 -66 -347 63 -58 105 -65 381 -60 l230 3 47 28 c113 66 139 211 55 312
-58 70 -79 75 -367 74 -143 0 -266 -5 -280 -10z M5494 4260 c-84 -19 -136 -81
-141 -168 -3 -46 1 -65 19 -97 64 -109 307 -206 633 -251 184 -26 696 -26 870
0 287 42 491 110 590 197 85 75 94 183 22 266 -71 81 -162 84 -266 8 -116 -85
-525 -145 -891 -131 -338 14 -547 56 -690 141 -61 36 -100 46 -146 35z M8110
3326 c0 -348 -15 -419 -116 -551 l-37 -49 30 -59 29 -60 42 64 c24 35 62 92
86 126 81 115 86 138 86 429 0 185 -3 260 -12 277 -21 37 -50 67 -80 81 l-28
14 0 -272z M4395 2550 c-361 -6 -410 -8 -502 -28 -337 -73 -618 -226 -858
-467 -177 -179 -315 -403 -395 -642 -75 -228 -90 -356 -90 -779 l0 -304 3890
0 3890 0 0 323 c0 177 -5 362 -10 412 -72 623 -470 1143 -1056 1375 -78 31
-222 72 -323 91 -80 15 -914 28 -923 15 -4 -6 -8 -27 -8 -46 -1 -91 -118 -595
-225 -970 -84 -291 -179 -560 -199 -560 -2 0 -40 43 -85 95 -75 87 -101 109
-101 87 0 -5 -85 -181 -188 -392 l-188 -382 -81 233 c-44 129 -94 270 -111
315 l-30 80 79 135 c60 102 89 163 118 254 21 66 37 123 34 128 -19 32 -486
382 -565 423 -27 14 -31 11 -160 -75 -119 -80 -219 -156 -401 -301 -31 -25
-56 -52 -56 -61 -2 -50 75 -240 149 -365 l80 -136 -54 -152 c-30 -83 -73 -212
-96 -286 -23 -74 -46 -151 -52 -170 -11 -35 -12 -33 -209 362 l-197 397 -44
-47 c-24 -26 -61 -68 -82 -94 -21 -26 -42 -45 -48 -42 -48 30 -257 726 -367
1224 -24 108 -61 324 -61 354 0 3 -17 5 -37 4 -21 -1 -218 -5 -438 -8z m4024
-202 c29 -156 241 -1432 241 -1450 0 -11 -118 -54 -416 -152 -302 -100 -414
-141 -411 -150 17 -43 47 -150 43 -153 -2 -2 -51 20 -107 49 -102 52 -106 53
-214 59 -60 4 -122 10 -138 14 -52 14 -49 83 8 169 40 60 67 76 130 76 51 0
95 17 95 37 0 7 4 13 9 13 20 0 153 135 181 185 69 121 213 611 315 1075 38
176 67 250 97 250 10 0 18 4 18 9 0 11 100 80 116 81 7 0 20 -46 33 -112z
m-3857 52 c38 -27 71 -50 75 -50 14 0 44 -46 64 -99 11 -31 37 -121 56 -201
100 -420 231 -865 289 -985 33 -69 148 -190 207 -218 20 -10 37 -22 37 -27 0
-6 29 -10 64 -10 62 0 66 -2 89 -32 64 -85 96 -194 65 -215 -7 -4 -62 -11
-123 -15 -149 -8 -195 -20 -297 -72 -49 -25 -88 -41 -88 -37 0 4 11 41 25 81
14 41 24 78 23 82 -2 5 -183 68 -403 142 -220 73 -406 135 -414 137 -11 4 8
133 98 674 125 749 151 895 159 895 3 0 36 -22 74 -50z m-298 -176 c11 -86 6
-128 -80 -644 -75 -452 -85 -526 -81 -607 3 -77 8 -99 32 -138 37 -64 84 -114
144 -155 110 -75 115 -75 -727 -78 l-733 -3 3 318 3 318 33 95 c44 128 93 225
176 350 248 371 656 579 1152 589 l71 1 7 -46z m4661 16 c223 -38 444 -133
625 -268 216 -162 361 -358 454 -612 l31 -85 3 -338 3 -338 -723 3 c-727 3
-768 5 -768 37 0 5 23 23 50 41 61 39 121 106 151 167 37 77 25 217 -70 781
-55 326 -81 508 -81 563 l0 81 108 -7 c59 -4 157 -15 217 -25z m-2354 -516
c125 -66 246 -185 265 -261 8 -29 -39 -190 -82 -283 -62 -134 -112 -166 -232
-149 -46 7 -95 6 -158 -2 -85 -11 -94 -11 -125 7 -19 11 -48 41 -65 66 -38 56
-109 268 -107 320 2 100 193 295 331 339 43 13 100 1 173 -37z m-16 -849 c87
-42 183 -170 258 -346 39 -90 46 -115 25 -86 -7 10 -60 33 -118 53 -104 36
-106 36 -275 36 l-170 0 -97 -36 c-52 -20 -101 -36 -107 -36 -6 0 -11 -5 -11
-12 0 -6 -2 -9 -5 -6 -7 7 49 140 90 214 68 121 147 201 230 232 42 16 133 9
180 -13z M5626 1310 c-69 -68 -126 -127 -126 -131 0 -13 110 1 146 17 17 8 40
31 51 52 22 39 65 173 58 180 -2 2 -60 -51 -129 -118z M7130 1418 c0 -28 49
-162 68 -188 10 -14 34 -30 53 -37 38 -13 129 -17 129 -5 0 7 -165 171 -222
222 -22 18 -28 20 -28 8z"/>
</g>
</svg>
