<?xml version="1.0" standalone="no"?>
<!DOCTYPE svg PUBLIC "-//W3C//DTD SVG 20010904//EN"
 "http://www.w3.org/TR/2001/REC-SVG-20010904/DTD/svg10.dtd">
<svg version="1.0" xmlns="http://www.w3.org/2000/svg"
 width="2048.000000pt" height="2048.000000pt" viewBox="0 0 2048.000000 2048.000000"
 preserveAspectRatio="xMidYMid meet">
<metadata>
Created by potrace 1.13, written by Peter Selinger 2001-2015
</metadata>
<g transform="translate(0.000000,2048.000000) scale(0.192120,-0.192120)"
fill="#000000" stroke="none">
<path d="M1330 10325 c-8 -2 -49 -9 -90 -15 -221 -36 -439 -156 -609 -336
-130 -137 -213 -289 -270 -493 l-26 -96 -3 -3165 c-2 -2189 1 -3190 8 -3247
17 -134 47 -232 110 -358 148 -297 391 -493 727 -587 77 -22 93 -22 871 -25
l793 -4 -7 28 c-3 15 -14 42 -23 58 -35 62 -10 59 -776 66 -385 3 -709 9 -720
12 -11 3 -54 14 -95 23 -246 57 -461 222 -608 468 -23 37 -53 103 -67 145
l-25 76 0 3295 0 3295 23 65 c38 105 103 207 191 296 130 130 275 215 456 265
l85 24 3210 0 c3035 0 3214 -1 3283 -18 271 -66 480 -212 603 -423 88 -150
119 -279 126 -532 3 -106 10 -195 14 -198 5 -3 9 -26 9 -51 0 -53 2 -59 60
-238 85 -259 80 -277 77 270 -3 532 -3 526 -77 711 -143 356 -478 622 -857
679 -85 13 -522 15 -3238 14 -1727 -1 -3147 -3 -3155 -4z M1383 9939 c-164
-19 -335 -107 -448 -231 -61 -68 -136 -196 -160 -274 -22 -73 -22 -6464 0
-6537 29 -96 87 -189 167 -269 127 -126 274 -199 441 -218 103 -12 1447 -13
1447 -1 0 4 57 11 128 13 107 5 160 13 337 56 116 28 230 55 255 60 30 7 -316
10 -1055 11 -927 1 -1111 4 -1170 16 -198 42 -358 194 -422 401 -17 57 -18
181 -18 3199 0 3020 1 3142 18 3200 59 191 200 332 392 391 58 18 166 19 3200
19 3018 0 3142 -1 3199 -18 106 -33 177 -76 251 -151 125 -127 165 -241 165
-478 0 -82 4 -138 10 -138 22 0 80 35 86 52 3 10 10 18 15 18 5 0 9 65 9 153
0 129 -3 164 -21 218 -37 115 -96 214 -173 292 -130 133 -258 196 -444 217
-108 12 -6103 11 -6209 -1z M6105 9350 c-553 -55 -1013 -223 -1391 -506 -106
-79 -290 -259 -374 -364 -331 -416 -476 -887 -442 -1438 11 -172 37 -366 60
-447 8 -27 4 -35 -49 -93 -71 -78 -130 -195 -166 -328 -23 -86 -26 -120 -27
-259 0 -98 4 -183 12 -220 35 -158 95 -293 169 -375 l43 -48 0 -959 c0 -1081
-4 -1023 75 -1111 62 -69 127 -96 220 -90 107 7 183 57 233 152 l27 51 -1 355
-1 356 -47 82 c-146 252 -296 710 -332 1012 -3 30 -13 60 -21 67 -12 9 -12 16
-3 34 25 45 6 135 -54 266 -84 179 -89 210 -94 533 -2 171 1 309 8 365 17 135
19 138 46 66 60 -158 143 -271 200 -271 60 0 69 16 110 190 101 435 316 836
599 1115 44 44 99 94 121 112 l41 32 94 -75 c273 -219 520 -366 677 -404 152
-36 234 43 218 213 l-6 69 132 -124 c327 -304 507 -423 576 -380 53 34 22 193
-84 421 l-44 93 33 -26 c163 -134 363 -215 690 -281 236 -47 584 -85 776 -85
l76 0 214 -420 c233 -459 260 -500 327 -500 65 0 117 78 165 250 l27 95 13
-60 c19 -81 14 -524 -6 -645 -21 -123 -74 -221 -182 -340 -163 -180 -169 -192
-268 -600 -26 -107 -64 -247 -85 -310 -100 -307 -317 -656 -501 -810 -247
-204 -344 -307 -396 -417 -25 -53 -26 -61 -8 -149 7 -31 5 -33 -82 -81 -122
-68 -187 -97 -316 -142 -228 -78 -422 -111 -665 -111 -363 0 -699 89 -1008
267 l-61 35 1 87 1 86 -47 73 c-27 40 -87 109 -135 154 -49 45 -137 134 -198
197 -287 300 -358 361 -419 361 -17 0 -42 -9 -56 -19 l-25 -19 24 -44 c145
-262 402 -555 648 -736 l63 -47 0 -195 1 -195 37 -26 c20 -15 99 -72 175 -128
168 -123 719 -509 880 -616 64 -43 117 -81 117 -84 0 -4 -24 -21 -52 -38 -155
-93 -537 -387 -538 -414 -1 -50 77 -240 150 -365 l80 -136 -54 -152 c-30 -83
-73 -212 -96 -286 -23 -74 -46 -151 -52 -170 -11 -35 -12 -33 -209 362 l-197
397 -44 -47 c-24 -26 -61 -68 -82 -94 -21 -26 -42 -45 -48 -42 -63 39 -355
1078 -413 1469 -9 60 -17 110 -18 110 -1 0 -198 -2 -437 -5 -395 -6 -444 -9
-537 -29 -335 -71 -618 -225 -858 -466 -177 -179 -315 -403 -395 -642 -75
-228 -90 -356 -90 -779 l0 -304 3890 0 3890 0 0 323 c0 177 -5 362 -10 412
-72 623 -470 1143 -1056 1375 -78 31 -222 72 -323 91 -80 15 -914 28 -923 15
-4 -6 -8 -27 -8 -46 -1 -91 -118 -595 -225 -970 -84 -291 -179 -560 -199 -560
-2 0 -40 43 -85 95 -75 87 -101 109 -101 87 0 -5 -85 -181 -188 -392 l-188
-382 -81 233 c-44 129 -94 270 -111 315 l-30 80 79 135 c60 102 89 163 118
254 21 66 37 123 34 128 -18 31 -406 322 -535 403 -27 16 -48 32 -48 35 0 3
33 28 73 54 200 132 770 533 1000 703 l127 94 0 193 0 193 88 69 c523 409 898
1064 1022 1788 11 64 22 120 25 125 3 4 17 11 32 15 45 11 120 63 161 113 89
107 142 225 174 386 26 131 21 346 -12 476 -27 111 -97 253 -155 318 -32 36
-45 57 -41 70 31 96 56 675 37 842 -50 434 -270 858 -628 1212 -134 132 -212
196 -362 297 -336 224 -683 355 -1131 426 -123 20 -609 29 -755 15z m699 -305
c486 -65 929 -250 1286 -536 258 -207 457 -498 566 -827 l34 -103 0 -463 c0
-518 -1 -527 -57 -470 -16 16 -75 119 -132 228 -90 172 -113 209 -168 264
-105 105 -134 113 -493 142 -364 30 -639 91 -939 207 -145 56 -203 60 -265 16
-45 -32 -125 -138 -126 -166 0 -15 -3 -16 -20 -7 -14 8 -20 8 -20 0 0 -13 -35
11 -149 102 -133 107 -214 138 -274 107 -19 -10 -123 -93 -137 -109 -19 -22
-60 -40 -92 -40 -57 0 -230 94 -413 225 -190 135 -248 167 -321 173 -93 8
-192 -49 -332 -189 -170 -170 -289 -342 -424 -610 -48 -97 -95 -182 -104 -189
-12 -11 -18 -10 -32 4 -15 15 -17 54 -20 390 -3 353 -2 379 18 458 122 483
453 880 943 1132 312 159 649 245 1112 280 98 8 452 -4 559 -19z m-2530 -4835
c46 -86 56 -154 33 -231 -40 -134 -47 -187 -47 -336 0 -128 -2 -152 -16 -157
-45 -17 -44 -30 -44 392 0 219 3 401 6 405 13 13 32 -7 68 -73z m1252 -1352
c214 -138 489 -212 834 -225 448 -16 794 76 1088 289 56 42 60 41 38 0 -43
-81 -205 -195 -531 -372 -186 -101 -270 -151 -396 -235 -115 -77 -123 -76
-288 35 -82 54 -129 82 -456 265 -139 79 -308 188 -354 228 -28 26 -81 96 -81
109 0 5 24 -8 53 -29 28 -21 70 -50 93 -65z m2893 -510 c29 -156 241 -1432
241 -1450 0 -11 -118 -54 -416 -152 -302 -100 -414 -141 -411 -150 17 -43 47
-150 43 -153 -2 -2 -51 20 -107 49 -102 52 -106 53 -214 59 -60 4 -122 10
-138 14 -52 14 -49 83 8 169 40 60 67 76 130 76 51 0 95 17 95 37 0 7 4 13 9
13 20 0 153 135 181 185 69 121 213 611 315 1075 38 176 67 250 97 250 10 0
18 4 18 9 0 11 100 80 116 81 7 0 20 -46 33 -112z m-3857 52 c38 -27 71 -50
75 -50 14 0 44 -46 64 -99 11 -31 37 -121 56 -201 100 -420 231 -865 289 -985
33 -69 148 -190 207 -218 20 -10 37 -22 37 -27 0 -6 29 -10 64 -10 62 0 66 -2
89 -32 64 -85 96 -194 65 -215 -7 -4 -62 -11 -123 -15 -149 -8 -195 -20 -297
-72 -49 -25 -88 -41 -88 -37 0 4 11 41 25 81 14 41 24 78 23 82 -2 5 -183 68
-403 142 -220 73 -406 135 -414 137 -11 4 8 133 98 674 125 749 151 895 159
895 3 0 36 -22 74 -50z m-298 -176 c11 -86 6 -128 -80 -644 -75 -452 -85 -526
-81 -607 3 -77 8 -99 32 -138 37 -64 84 -114 144 -155 110 -75 115 -75 -727
-78 l-733 -3 3 318 3 318 33 95 c44 128 93 225 176 350 248 371 656 579 1152
589 l71 1 7 -46z m4661 16 c223 -38 444 -133 625 -268 216 -162 361 -358 454
-612 l31 -85 3 -338 3 -338 -723 3 c-727 3 -768 5 -768 37 0 5 23 23 50 41 61
39 121 106 151 167 37 77 25 217 -70 781 -55 326 -81 508 -81 563 l0 81 108
-7 c59 -4 157 -15 217 -25z m-2354 -516 c125 -66 246 -185 265 -261 8 -29 -39
-190 -82 -283 -62 -134 -112 -166 -232 -149 -46 7 -95 6 -158 -2 -85 -11 -94
-11 -125 7 -19 11 -48 41 -65 66 -38 56 -109 268 -107 320 2 100 193 295 331
339 43 13 100 1 173 -37z m-16 -849 c87 -42 183 -170 258 -346 39 -90 46 -115
25 -86 -7 10 -60 33 -118 53 -104 36 -106 36 -275 36 l-170 0 -97 -36 c-52
-20 -101 -36 -107 -36 -6 0 -11 -5 -11 -12 0 -6 -2 -9 -5 -6 -7 7 49 140 90
214 68 121 147 201 230 232 42 16 133 9 180 -13z M3038 8376 c-95 -26 -173
-104 -198 -197 -7 -24 -9 -893 -8 -2455 l3 -2419 22 -40 c50 -93 147 -154 244
-155 114 0 206 56 256 158 l28 57 0 2415 c0 2345 -1 2416 -19 2464 -50 131
-197 208 -328 172z M1925 6987 c-66 -22 -101 -44 -139 -88 -71 -84 -67 56 -64
-1864 l3 -1730 22 -41 c109 -204 396 -205 497 -2 l26 52 0 1735 0 1736 -24 50
c-25 55 -90 119 -141 141 -50 21 -134 26 -180 11z m93 -1934 l-3 -1668 -25 0
-25 0 -3 1655 c-1 910 0 1661 3 1668 2 6 16 12 30 12 l25 0 -2 -1667z M5234
6424 c-58 -21 -120 -77 -152 -138 -27 -51 -27 -52 -27 -261 0 -178 3 -216 18
-247 24 -53 72 -104 126 -136 40 -24 56 -27 131 -27 62 0 94 5 117 18 55 29
103 78 131 131 27 51 27 52 27 261 0 209 0 210 -27 261 -66 126 -213 185 -344
138z m126 -403 c0 -137 -2 -150 -19 -156 -10 -3 -26 -3 -35 1 -14 5 -16 26
-16 155 l0 149 35 0 35 0 0 -149z M7464 6428 c-60 -20 -127 -80 -159 -143
l-30 -59 0 -200 c0 -200 0 -201 28 -258 50 -102 142 -158 256 -158 107 1 213
76 251 178 17 46 20 78 20 236 0 211 -8 249 -72 321 -56 63 -107 87 -193 91
-38 2 -84 -2 -101 -8z m126 -402 c0 -157 -6 -174 -55 -162 l-25 6 0 150 0 150
40 0 40 0 0 -144z M6167 5250 c-69 -21 -126 -90 -141 -170 -10 -59 17 -131 68
-178 63 -58 105 -65 381 -60 l230 3 47 28 c113 66 138 211 55 312 -57 70 -79
75 -362 74 -137 0 -263 -5 -278 -9z M8602 4156 c-71 -339 -82 -406 -82 -511 0
-50 -4 -95 -9 -100 -5 -6 -12 -131 -15 -280 -4 -148 -9 -317 -12 -375 -6 -115
2 -148 50 -205 32 -37 35 -33 75 90 50 154 52 194 49 941 l-3 691 -53 -251z
M5515 4263 c-53 -9 -67 -16 -101 -45 -44 -39 -64 -82 -64 -140 1 -122 144
-221 420 -289 167 -41 326 -60 570 -66 431 -11 776 39 1005 146 122 57 173
109 189 190 14 75 -47 177 -121 202 -48 15 -119 6 -152 -20 -74 -60 -228 -109
-436 -138 -189 -26 -615 -23 -805 6 -162 25 -301 67 -373 113 -49 31 -98 46
-132 41z M8110 3257 c0 -271 -21 -358 -116 -482 l-37 -49 30 -59 29 -60 42 64
c24 35 62 92 86 126 79 111 86 144 86 378 0 175 -2 208 -17 234 -19 31 -50 51
-83 51 -19 0 -20 -8 -20 -203z M5626 1310 c-69 -68 -126 -127 -126 -131 0 -13
110 1 146 17 17 8 40 31 51 52 22 39 65 173 58 180 -2 2 -60 -51 -129 -118z
M7130 1418 c0 -28 49 -162 68 -188 10 -14 34 -30 53 -37 38 -13 129 -17 129
-5 0 7 -165 171 -222 222 -22 18 -28 20 -28 8z"/>
</g>
</svg>
