<?xml version="1.0" standalone="no"?>
<!DOCTYPE svg PUBLIC "-//W3C//DTD SVG 20010904//EN"
 "http://www.w3.org/TR/2001/REC-SVG-20010904/DTD/svg10.dtd">
<svg version="1.0" xmlns="http://www.w3.org/2000/svg"
 width="2048.000000pt" height="2048.000000pt" viewBox="0 0 2048.000000 2048.000000"
 preserveAspectRatio="xMidYMid meet">
<metadata>
Created by potrace 1.13, written by Peter Selinger 2001-2015
</metadata>
<g transform="translate(0.000000,2048.000000) scale(0.192120,-0.192120)"
fill="#000000" stroke="none">
<path d="M5020 10224 c-384 -27 -722 -84 -1063 -180 -1128 -317 -2070 -1063
-2522 -1999 -156 -324 -239 -624 -266 -962 -18 -234 12 -855 55 -1121 7 -46
10 -84 7 -86 -3 -2 -24 -7 -45 -10 -22 -4 -65 -20 -96 -36 -214 -108 -381
-378 -453 -735 -18 -93 -22 -143 -22 -320 0 -178 4 -227 23 -322 78 -390 262
-664 508 -760 92 -35 211 -37 299 -4 81 31 89 31 93 1 8 -66 77 -322 125 -465
451 -1342 1544 -2294 2927 -2549 272 -50 402 -61 740 -61 338 0 467 11 740 61
1260 231 2293 1051 2804 2226 97 224 211 587 252 804 l4 21 48 -23 c294 -141
631 88 786 534 64 184 81 297 81 537 0 177 -4 227 -22 320 -74 366 -242 633
-466 741 -38 18 -94 36 -124 40 -49 6 -54 9 -50 28 67 300 92 486 108 815 17
347 -9 625 -86 916 -246 941 -915 1709 -1878 2156 -470 218 -995 354 -1607
415 -147 14 -771 27 -900 18z m935 -278 c510 -56 921 -154 1330 -318 701 -282
1261 -740 1609 -1316 138 -228 231 -453 309 -747 l31 -120 4 -563 c3 -561 3
-563 -23 -725 -14 -90 -25 -200 -25 -245 0 -133 -37 -252 -103 -328 -48 -55
-79 -58 -107 -11 -11 17 -44 104 -72 192 -117 364 -284 687 -483 935 -291 363
-767 700 -988 700 -80 0 -135 -26 -338 -158 -327 -212 -576 -312 -748 -300
-121 9 -170 49 -230 188 -44 101 -73 144 -123 180 -76 55 -139 42 -448 -95
-418 -185 -680 -262 -925 -272 -159 -6 -229 7 -285 54 -29 24 -67 92 -85 153
-19 64 -67 141 -102 165 -63 42 -125 30 -253 -49 -404 -248 -710 -358 -1207
-436 -108 -17 -216 -39 -240 -50 -57 -25 -128 -83 -163 -135 -16 -23 -149
-267 -296 -541 -339 -635 -376 -691 -440 -668 -40 14 -82 72 -111 155 -24 70
-26 88 -34 359 -12 437 -11 1330 2 1392 88 441 299 858 625 1237 454 527 1084
937 1794 1165 338 109 661 175 1045 211 196 19 874 13 1080 -9z m-1820 -2789
c0 -122 1 -125 35 -193 43 -84 103 -133 204 -166 61 -20 90 -23 206 -22 221 2
481 67 831 209 171 70 440 192 506 231 23 13 45 24 50 24 5 0 10 -27 11 -60
11 -216 123 -362 307 -400 215 -45 608 118 1035 428 l95 69 50 -19 c87 -34
257 -125 350 -187 507 -340 859 -875 1025 -1556 35 -146 58 -191 107 -211 122
-51 283 140 395 468 18 54 35 98 38 98 3 0 13 -20 23 -44 29 -70 97 -159 164
-215 103 -84 169 -188 232 -359 58 -156 63 -204 59 -504 -4 -244 -7 -281 -27
-353 -54 -195 -209 -422 -340 -497 -54 -31 -60 -32 -201 -38 -162 -6 -176 -10
-249 -82 -63 -62 -85 -101 -121 -219 -36 -116 -256 -679 -326 -834 -119 -262
-327 -549 -572 -786 -349 -338 -629 -543 -990 -724 -1108 -554 -2505 -519
-3577 90 -288 163 -583 391 -832 642 -169 171 -407 509 -549 779 -130 250
-218 470 -305 769 -46 159 -69 204 -140 275 -79 79 -108 90 -244 90 -131 0
-151 6 -256 75 -111 73 -191 183 -253 347 -50 135 -56 186 -56 503 0 267 2
303 21 373 41 153 129 323 221 427 26 29 48 55 48 58 0 3 16 29 36 58 20 30
48 79 62 108 l25 55 28 -120 c56 -245 122 -404 198 -478 31 -30 49 -39 85 -43
62 -7 97 9 156 74 63 69 39 27 414 728 173 325 319 596 323 604 6 9 43 16 113
22 377 32 821 154 1135 312 145 73 356 217 424 291 14 14 25 26 25 26 1 0 1
-56 1 -123z M3579 5316 c-85 -30 -148 -90 -175 -165 -10 -27 -13 -127 -14
-382 l0 -345 26 -52 c30 -61 69 -96 143 -130 45 -21 64 -24 120 -20 36 3 82
13 101 23 48 24 107 82 133 130 21 39 22 50 22 400 0 405 3 389 -78 473 -70
72 -187 101 -278 68z M6896 5310 c-58 -23 -119 -78 -149 -135 -21 -39 -22 -50
-22 -400 0 -350 1 -361 22 -400 26 -48 85 -106 133 -130 19 -10 65 -20 101
-23 56 -4 75 -1 120 20 74 34 113 69 143 130 l26 52 0 345 c-1 376 -2 388 -58
458 -70 89 -211 126 -316 83z M4964 3928 c-17 -6 -53 -27 -80 -47 -163 -123
-135 -379 51 -467 50 -24 53 -24 395 -24 342 0 345 0 395 24 179 85 213 332
63 460 -74 63 -93 66 -462 65 -192 -1 -344 -5 -362 -11z m662 -239 c10 -10 14
-24 10 -37 -13 -40 -56 -47 -311 -47 -255 0 -298 7 -311 47 -15 49 31 57 338
55 223 -2 259 -4 274 -18z M3579 2816 c-87 -31 -149 -93 -177 -175 -32 -94 -2
-220 69 -288 110 -105 613 -248 1078 -307 288 -37 514 -48 876 -43 438 7 703
33 1050 103 235 48 513 133 634 194 112 56 166 147 159 267 -5 79 -25 126 -76
179 -87 90 -205 103 -357 40 -126 -52 -301 -101 -500 -141 -835 -165 -1876
-106 -2512 141 -121 47 -177 54 -244 30z m279 -280 c281 -92 508 -140 822
-176 557 -64 1148 -44 1665 56 154 29 271 60 459 120 145 47 201 52 220 22 15
-24 -8 -61 -53 -86 -20 -11 -87 -36 -149 -56 -831 -267 -2156 -267 -2982 -1
-137 45 -181 66 -209 101 -17 21 -18 29 -8 45 19 31 84 24 235 -25z"/>
</g>
</svg>
