<?xml version="1.0" standalone="no"?>
<!DOCTYPE svg PUBLIC "-//W3C//DTD SVG 20010904//EN"
 "http://www.w3.org/TR/2001/REC-SVG-20010904/DTD/svg10.dtd">
<svg version="1.0" xmlns="http://www.w3.org/2000/svg"
 width="2048.000000pt" height="2048.000000pt" viewBox="0 0 2048.000000 2048.000000"
 preserveAspectRatio="xMidYMid meet">
<metadata>
Created by potrace 1.13, written by Peter Selinger 2001-2015
</metadata>
<g transform="translate(0.000000,2048.000000) scale(0.192120,-0.192120)"
fill="#000000" stroke="none">
<path d="M5108 10315 c-333 -46 -625 -183 -838 -395 -121 -119 -212 -259 -254
-387 -16 -47 -21 -53 -46 -53 -51 0 -273 -41 -405 -75 -660 -171 -1280 -561
-1709 -1075 -433 -520 -731 -1223 -796 -1880 -16 -164 -14 -498 5 -673 25
-235 77 -498 141 -709 l27 -86 -22 -89 c-74 -308 -61 -632 38 -925 l28 -83
-28 -23 c-15 -12 -40 -48 -56 -80 -22 -46 -28 -70 -27 -122 1 -78 19 -123 71
-180 84 -94 215 -117 330 -60 l60 30 46 -20 c25 -11 69 -25 98 -30 29 -6 54
-12 56 -14 2 -2 19 -69 38 -149 316 -1355 1179 -2352 2368 -2736 228 -74 454
-122 722 -153 167 -19 617 -16 795 6 664 81 1247 322 1750 725 128 103 352
322 465 456 398 472 692 1079 838 1734 14 62 28 115 30 117 2 2 27 8 56 14 29
5 73 19 98 30 l46 20 60 -30 c145 -72 321 -9 385 139 39 91 10 228 -62 296
l-34 32 28 79 c98 278 113 630 38 932 l-21 82 31 108 c107 372 153 682 153
1043 0 397 -50 693 -182 1074 -188 544 -453 970 -841 1351 -357 351 -761 601
-1237 765 -193 67 -453 129 -642 154 l-46 6 -32 84 c-103 273 -373 523 -707
655 -237 95 -551 131 -816 95z m482 -291 c241 -40 486 -153 633 -292 40 -39
50 -85 21 -96 -10 -4 -95 -22 -190 -41 -185 -38 -372 -91 -543 -157 -166 -63
-181 -62 -411 16 -203 70 -349 110 -535 146 -137 27 -175 42 -175 70 0 27 66
89 165 156 283 188 659 260 1035 198z m-1204 -535 c248 -24 572 -109 832 -219
l114 -49 91 41 c355 157 777 253 1027 233 83 -7 90 -9 90 -29 0 -63 90 -181
158 -207 15 -6 86 -24 157 -40 274 -61 379 -93 571 -172 584 -239 1054 -617
1393 -1121 88 -130 272 -437 303 -506 66 -144 156 -403 197 -565 54 -216 61
-295 61 -725 0 -486 -1 -495 -115 -980 -23 -98 -26 -128 -21 -205 12 -169 18
-396 11 -413 -3 -9 -6 -18 -5 -20 0 -1 -6 -15 -14 -30 -9 -18 -14 -67 -15
-156 -2 -116 -4 -132 -26 -165 -18 -29 -36 -42 -82 -59 -68 -25 -122 -62 -116
-79 3 -7 -2 -13 -11 -13 -9 0 -16 -7 -16 -15 0 -9 -8 -19 -17 -22 -40 -15
-115 -133 -143 -226 -12 -40 -26 -82 -31 -95 -5 -13 -9 -30 -9 -38 0 -18 -30
-62 -87 -127 -83 -95 -105 -153 -153 -405 -33 -173 -99 -356 -201 -552 -33
-63 -77 -155 -99 -205 -60 -139 -105 -219 -204 -364 -112 -164 -271 -356 -362
-437 -377 -332 -580 -473 -905 -628 -727 -346 -1627 -409 -2419 -169 -389 117
-769 319 -1095 580 -345 276 -639 655 -856 1102 -120 247 -198 458 -280 760
-54 198 -80 257 -153 338 -51 56 -71 100 -86 186 -14 76 -67 188 -114 242 -20
22 -36 34 -36 28 0 -9 -6 -7 -19 5 -10 9 -18 20 -17 25 1 8 -107 79 -186 122
-27 14 -48 32 -48 39 0 8 -6 16 -12 18 -10 4 -14 50 -18 170 -3 97 -10 171
-16 179 -19 24 -16 132 6 266 28 162 24 264 -18 428 -34 132 -65 281 -81 392
-7 43 -11 253 -11 525 0 544 4 579 112 923 267 854 841 1531 1613 1905 249
120 473 197 744 255 183 39 213 50 264 94 37 33 87 124 87 160 0 16 8 21 43
24 84 7 115 7 223 -4z m-2820 -5577 c86 -44 154 -153 154 -247 0 -48 -23 -120
-49 -154 l-18 -24 -35 26 c-35 27 -139 77 -161 77 -38 1 -89 92 -102 180 -3
24 -15 64 -26 89 -10 24 -17 46 -15 48 3 3 22 11 43 19 53 20 157 13 209 -14z
m7724 18 c61 -17 63 -21 41 -71 -12 -24 -21 -55 -21 -69 0 -14 -7 -53 -16 -85
-16 -64 -58 -115 -95 -115 -10 0 -19 -4 -19 -10 0 -5 -9 -10 -20 -10 -20 0
-73 -27 -124 -63 l-29 -20 -18 24 c-72 94 -62 238 23 334 73 83 175 114 278
85z M3825 4747 c-56 -27 -115 -87 -142 -144 -16 -34 -18 -74 -18 -383 0 -330
1 -347 21 -390 68 -144 236 -205 377 -137 60 30 95 65 130 131 21 40 22 49 22
391 0 336 -1 352 -21 396 -46 100 -127 151 -244 157 -63 2 -83 -1 -125 -21z
m153 -533 l2 -302 -22 -5 c-12 -4 -33 -1 -48 6 l-25 12 -3 292 c-3 323 -7 303
63 300 l30 -2 3 -301z M6625 4758 c-42 -15 -102 -61 -131 -100 -51 -68 -55
-108 -52 -465 3 -316 4 -330 25 -369 35 -66 70 -101 130 -131 142 -69 309 -8
377 137 20 43 21 60 21 390 0 386 1 380 -73 462 -53 59 -121 88 -202 87 -36 0
-78 -5 -95 -11z m133 -544 l2 -302 -26 -6 c-17 -5 -35 -1 -50 9 l-24 15 0 289
c0 320 -4 301 65 298 l30 -2 3 -301z M4987 3099 c-81 -19 -150 -78 -187 -157
-30 -62 -30 -165 -1 -226 27 -56 82 -110 140 -138 45 -23 53 -23 391 -23 330
0 347 1 390 21 215 101 216 408 1 508 -44 20 -63 21 -371 23 -179 1 -342 -3
-363 -8z m663 -202 c32 -11 35 -16 38 -55 4 -56 -15 -85 -66 -100 -62 -19
-559 -16 -605 3 -44 18 -67 50 -67 92 0 33 15 47 69 64 44 13 591 10 631 -4z
M6076 2264 c-22 -8 -54 -25 -72 -39 -121 -92 -501 -151 -826 -127 -259 19
-401 53 -523 125 -61 37 -78 42 -141 45 -40 2 -88 -1 -107 -7 -57 -19 -120
-74 -152 -132 -26 -47 -30 -64 -30 -134 0 -63 5 -89 22 -121 75 -141 325 -253
688 -309 141 -22 480 -30 643 -16 440 39 760 167 838 336 27 58 32 156 10 217
-36 99 -150 179 -255 177 -31 0 -74 -7 -95 -15z m149 -188 c34 -15 35 -16 35
-71 0 -73 -19 -104 -87 -145 -335 -203 -1272 -211 -1664 -15 -89 45 -129 92
-129 150 0 54 26 76 98 83 55 5 84 -3 203 -52 175 -73 379 -106 649 -106 258
1 492 38 635 101 82 36 178 69 203 69 12 0 38 -7 57 -14z"/>
</g>
</svg>
