<?xml version="1.0" standalone="no"?>
<!DOCTYPE svg PUBLIC "-//W3C//DTD SVG 20010904//EN"
 "http://www.w3.org/TR/2001/REC-SVG-20010904/DTD/svg10.dtd">
<svg version="1.0" xmlns="http://www.w3.org/2000/svg"
 width="2048.000000pt" height="2048.000000pt" viewBox="0 0 2048.000000 2048.000000"
 preserveAspectRatio="xMidYMid meet">
<metadata>
Created by potrace 1.13, written by Peter Selinger 2001-2015
</metadata>
<g transform="translate(0.000000,2048.000000) scale(0.192120,-0.192120)"
fill="#000000" stroke="none">
<path d="M5020 10038 c-371 -34 -750 -138 -1109 -302 -108 -49 -127 -55 -270
-75 -653 -92 -1220 -282 -1600 -536 -457 -305 -697 -699 -776 -1275 -25 -180
-31 -535 -12 -645 19 -109 57 -225 104 -320 42 -84 132 -221 166 -253 l24 -23
13 30 c17 43 6 118 -36 237 -20 54 -49 136 -65 182 l-29 84 0 376 c0 335 2
388 20 472 44 214 117 386 244 578 220 330 611 584 1201 777 72 24 238 83 370
133 132 49 266 97 297 106 32 9 65 19 75 23 10 3 -56 -44 -147 -105 -684 -458
-1178 -1072 -1527 -1897 -110 -260 -233 -668 -294 -970 -12 -60 -22 -111 -23
-112 -1 -1 -36 11 -78 27 -210 82 -411 27 -597 -163 -389 -397 -480 -1252
-196 -1829 64 -130 110 -194 209 -294 72 -72 108 -99 172 -131 160 -79 312
-81 464 -5 l76 37 23 -105 c34 -156 122 -454 186 -630 358 -987 947 -1781
1690 -2277 463 -309 958 -487 1486 -534 180 -16 503 -6 679 20 1099 166 2070
926 2698 2111 204 386 412 955 487 1332 l17 84 77 -38 c153 -76 305 -75 465 5
64 32 100 59 172 131 99 100 142 160 208 293 222 446 222 1100 0 1546 -66 133
-109 193 -208 293 -185 184 -376 235 -582 155 -43 -17 -79 -29 -80 -28 -1 1
-12 52 -24 112 -147 744 -465 1459 -897 2012 -263 338 -561 614 -922 854 -89
60 -161 109 -159 109 12 0 276 -91 471 -161 122 -45 263 -94 313 -109 347
-108 693 -287 912 -473 269 -230 428 -501 513 -877 20 -85 22 -132 26 -442 5
-389 4 -398 -66 -563 -80 -187 -103 -286 -79 -345 l14 -35 50 63 c100 128 178
285 227 462 19 67 21 102 21 320 1 262 -9 378 -50 578 -173 852 -847 1360
-2114 1596 -74 14 -189 32 -255 41 -108 15 -135 23 -265 80 -393 173 -716 259
-1110 295 -135 12 -464 11 -600 -2z m621 -198 c144 -15 325 -46 444 -76 156
-39 195 -54 195 -72 0 -12 24 -25 88 -45 48 -15 157 -57 242 -93 85 -36 207
-84 270 -106 325 -113 579 -295 918 -657 406 -433 714 -964 916 -1578 60 -184
133 -458 142 -538 9 -76 52 -153 112 -202 61 -49 90 -59 238 -78 128 -16 173
-30 250 -76 150 -90 338 -394 385 -622 15 -76 19 -136 19 -340 0 -270 -3 -293
-70 -502 -85 -266 -209 -447 -354 -518 -89 -44 -159 -52 -272 -33 -179 30
-226 18 -321 -86 -62 -69 -88 -129 -116 -273 -41 -209 -98 -381 -194 -590
-199 -430 -250 -540 -298 -642 -95 -200 -368 -591 -527 -753 -221 -226 -488
-457 -687 -594 -1068 -737 -2380 -723 -3440 37 -198 143 -474 386 -607 537
-93 106 -266 333 -361 476 -77 115 -238 396 -317 552 -121 239 -253 592 -347
926 -72 252 -112 327 -216 395 -55 37 -96 39 -235 15 -117 -20 -182 -13 -275
32 -142 68 -270 237 -344 459 -57 171 -61 210 -57 580 4 296 6 337 24 400 71
242 194 440 333 534 74 51 135 71 251 82 166 17 213 34 283 102 43 43 77 117
77 168 0 12 20 104 45 206 86 349 210 679 379 1008 101 197 123 235 235 405
187 284 428 560 663 762 276 235 397 310 645 397 76 27 194 73 263 104 69 30
173 71 233 92 79 28 107 42 107 55 0 33 383 123 640 149 123 12 520 13 641 1z
M3033 7115 c-118 -32 -201 -98 -257 -204 -36 -68 -36 -70 -36 -191 0 -108 3
-127 25 -173 13 -29 41 -72 60 -95 46 -53 158 -109 247 -123 42 -6 228 -9 495
-6 455 4 462 4 559 56 50 26 62 37 101 87 57 72 73 130 73 259 0 107 -2 118
-30 178 -53 111 -156 190 -278 216 -84 17 -892 14 -959 -4z m1036 -150 c171
-95 203 -305 67 -441 -86 -85 -78 -84 -611 -84 -519 0 -518 0 -600 72 -59 52
-86 107 -93 184 -11 136 71 252 208 295 14 4 239 7 500 6 l475 -2 54 -30z
M6660 7119 c-112 -22 -211 -96 -270 -202 l-40 -72 0 -119 c0 -115 1 -121 35
-191 20 -42 50 -86 72 -105 50 -44 147 -88 219 -100 80 -13 832 -13 914 1 85
13 175 56 223 105 21 21 52 68 70 104 30 62 32 71 32 180 0 110 -1 118 -34
182 -58 116 -152 189 -279 217 -63 13 -873 14 -942 0z m1016 -151 c104 -55
161 -157 152 -272 -7 -77 -34 -132 -93 -184 -82 -72 -81 -72 -600 -72 -533 0
-525 -1 -611 84 -79 79 -102 173 -69 282 25 84 110 163 198 185 18 4 244 7
502 6 l470 -2 51 -27z M3631 5735 c-317 -158 -373 -190 -400 -224 -47 -59 -64
-108 -64 -181 -1 -157 116 -274 275 -275 66 0 67 0 428 180 324 161 367 185
406 228 69 77 88 165 58 266 -33 112 -143 191 -266 191 l-68 0 -369 -185z
M6475 5896 c-93 -43 -165 -153 -165 -251 0 -62 30 -136 75 -184 37 -40 93 -71
405 -226 360 -179 362 -180 428 -180 116 0 213 64 259 172 24 56 22 157 -4
214 -39 87 -71 108 -454 300 -359 179 -360 179 -427 179 -49 0 -80 -6 -117
-24z M4964 3928 c-17 -6 -53 -27 -80 -47 -163 -123 -135 -379 51 -467 50 -24
53 -24 395 -24 342 0 345 0 395 24 179 85 213 332 63 460 -74 63 -93 66 -462
65 -192 -1 -344 -5 -362 -11z m662 -239 c10 -10 14 -24 10 -37 -13 -40 -56
-47 -311 -47 -255 0 -298 7 -311 47 -15 49 31 57 338 55 223 -2 259 -4 274
-18z M3955 2747 c-57 -27 -117 -88 -141 -144 -42 -95 -11 -237 67 -307 97 -88
563 -258 904 -329 376 -80 712 -80 1089 -1 336 71 802 239 900 325 59 52 90
125 89 209 -1 78 -20 126 -74 185 -91 99 -214 111 -377 37 -358 -163 -767
-262 -1083 -262 -308 0 -730 102 -1084 263 -75 34 -103 42 -165 45 -63 2 -83
-1 -125 -21z m293 -268 c308 -119 517 -179 757 -220 184 -32 466 -32 650 0
234 39 458 104 758 220 83 32 119 41 155 39 42 -3 47 -6 50 -28 4 -41 -27 -68
-127 -111 -420 -181 -932 -279 -1309 -250 -283 22 -525 74 -823 177 -219 76
-339 139 -339 179 0 49 91 47 228 -6z"/>
</g>
</svg>
