<?xml version="1.0" standalone="no"?>
<!DOCTYPE svg PUBLIC "-//W3C//DTD SVG 20010904//EN"
 "http://www.w3.org/TR/2001/REC-SVG-20010904/DTD/svg10.dtd">
<svg version="1.0" xmlns="http://www.w3.org/2000/svg"
 width="2048.000000pt" height="2048.000000pt" viewBox="0 0 2048.000000 2048.000000"
 preserveAspectRatio="xMidYMid meet">
<metadata>
Created by potrace 1.13, written by Peter Selinger 2001-2015
</metadata>
<g transform="translate(0.000000,2048.000000) scale(0.192120,-0.192120)"
fill="#000000" stroke="none">
<path d="M5085 10043 c-1109 -93 -2237 -669 -2993 -1528 -271 -308 -474 -611
-662 -987 -291 -582 -462 -1219 -526 -1948 -33 -386 -30 -1832 6 -2540 73
-1426 286 -2214 649 -2393 56 -27 77 -32 161 -35 243 -10 534 63 1175 295 386
140 661 233 884 299 l185 55 135 -70 c784 -401 1644 -408 2426 -19 55 27 115
59 132 70 l33 20 132 -37 c197 -55 519 -162 918 -305 725 -261 894 -304 1190
-305 193 0 244 9 353 67 71 38 172 144 221 230 77 139 146 401 185 708 50 391
67 817 82 1995 13 1011 7 1684 -16 1965 -104 1250 -559 2299 -1350 3108 -735
754 -1780 1259 -2795 1351 -105 10 -429 12 -525 4z m645 -228 c928 -124 1818
-566 2496 -1240 200 -199 361 -396 554 -675 95 -139 375 -645 438 -795 125
-296 252 -769 308 -1150 30 -204 36 -486 41 -1945 4 -1416 -1 -1757 -27 -1837
-5 -15 -16 -111 -25 -213 -53 -626 -147 -952 -302 -1050 -87 -56 -133 -65
-303 -64 -127 1 -178 5 -282 27 -170 36 -400 106 -708 217 -140 51 -379 135
-530 187 -151 53 -280 103 -287 112 -23 30 -13 58 40 120 28 33 81 96 117 139
l65 77 -64 -55 c-159 -138 -363 -290 -449 -334 -63 -32 -42 -10 45 50 590 400
1060 990 1372 1721 216 509 346 1060 391 1660 13 169 7 235 -36 395 -68 256
-201 477 -401 669 -166 159 -302 252 -524 358 -328 157 -781 251 -1209 251
-570 0 -1318 221 -2119 625 -113 57 -244 126 -291 153 l-85 50 -495 -492
c-424 -421 -526 -517 -710 -666 -234 -191 -387 -336 -467 -445 -114 -153 -196
-350 -234 -563 -24 -132 -23 -269 6 -532 61 -561 192 -1058 405 -1535 312
-701 765 -1257 1345 -1651 85 -58 105 -80 43 -48 -87 45 -254 168 -448 331
-32 27 -39 31 -25 12 21 -26 95 -112 157 -182 39 -44 50 -94 26 -115 -7 -6
-110 -44 -228 -85 -118 -41 -354 -125 -524 -186 -462 -167 -659 -224 -886
-257 -144 -21 -234 -14 -301 22 -65 36 -99 74 -158 177 -160 278 -275 853
-336 1677 -12 168 -15 451 -15 1576 0 1527 -3 1436 71 1849 173 959 602 1787
1260 2432 265 260 487 433 802 627 517 318 1182 551 1732 605 61 6 124 13 140
15 66 9 507 -4 615 -19z m-1558 -2921 c426 -232 964 -449 1390 -563 291 -78
507 -109 833 -121 336 -13 491 -34 743 -101 364 -96 680 -272 891 -495 175
-185 285 -399 326 -637 15 -92 15 -106 -16 -557 -68 -1007 -449 -1950 -1055
-2611 -148 -161 -341 -332 -484 -429 l-58 -40 -39 16 c-57 24 -118 13 -288
-52 -410 -156 -869 -231 -1242 -205 -313 23 -640 94 -910 198 -208 80 -242 86
-309 58 -35 -14 -36 -14 -94 25 -142 96 -326 259 -479 424 -494 533 -850 1280
-995 2086 -45 251 -56 359 -87 841 -15 244 6 397 81 578 73 177 215 340 495
566 259 210 369 312 770 714 209 210 381 381 383 381 2 0 67 -34 144 -76z
M3857 5316 c-98 -35 -166 -111 -187 -210 -8 -33 -10 -157 -8 -361 l3 -310 28
-57 c87 -177 304 -212 444 -73 80 80 83 99 83 470 0 371 -3 390 -83 470 -79
78 -184 105 -280 71z M6620 5313 c-26 -9 -66 -38 -96 -68 -81 -80 -84 -99 -84
-470 0 -356 4 -383 71 -459 53 -60 107 -87 185 -94 118 -9 218 48 271 156 l28
57 0 340 c0 324 -1 342 -21 385 -30 65 -70 107 -128 137 -65 33 -161 40 -226
16z M4964 3928 c-17 -6 -53 -27 -80 -47 -163 -123 -135 -379 51 -467 50 -24
53 -24 395 -24 342 0 345 0 395 24 207 98 212 393 8 496 l-48 25 -345 2 c-214
1 -357 -3 -376 -9z m662 -239 c20 -20 12 -49 -18 -69 -19 -12 -71 -16 -265
-18 -225 -3 -246 -2 -288 17 -61 27 -61 68 0 84 11 3 140 5 287 4 233 -2 269
-4 284 -18z M4396 2810 c-57 -22 -119 -78 -149 -135 -32 -60 -31 -183 3 -249
58 -114 288 -261 538 -345 183 -61 292 -76 542 -76 249 0 356 15 541 75 249
82 488 238 544 355 60 128 3 295 -125 360 -110 56 -209 41 -330 -50 -175 -133
-365 -189 -635 -189 -281 1 -440 53 -668 219 -81 58 -170 70 -261 35z m164
-265 c14 -4 67 -32 119 -63 303 -179 660 -226 999 -131 101 28 194 69 308 136
73 42 107 57 138 57 148 3 -96 -181 -304 -229 -8 -2 -62 -15 -120 -29 -253
-61 -520 -56 -810 15 -205 50 -410 163 -410 227 0 31 16 34 80 17z"/>
</g>
</svg>
