<?xml version="1.0" standalone="no"?>
<!DOCTYPE svg PUBLIC "-//W3C//DTD SVG 20010904//EN"
 "http://www.w3.org/TR/2001/REC-SVG-20010904/DTD/svg10.dtd">
<svg version="1.0" xmlns="http://www.w3.org/2000/svg"
 width="2048.000000pt" height="2048.000000pt" viewBox="0 0 2048.000000 2048.000000"
 preserveAspectRatio="xMidYMid meet">
<metadata>
Created by potrace 1.13, written by Peter Selinger 2001-2015
</metadata>
<g transform="translate(0.000000,2048.000000) scale(0.192120,-0.192120)"
fill="#000000" stroke="none">
<path d="M5020 10038 c-485 -45 -1007 -216 -1418 -465 -728 -441 -1299 -1132
-1652 -1998 -124 -304 -252 -744 -295 -1013 -6 -35 -10 -42 -23 -37 -160 65
-237 76 -346 51 -391 -92 -676 -618 -676 -1246 0 -327 75 -626 217 -869 74
-126 216 -270 319 -324 165 -85 318 -88 478 -8 l72 37 23 -106 c84 -385 258
-866 451 -1245 656 -1289 1718 -2090 2911 -2196 180 -16 503 -6 679 20 1100
167 2069 925 2698 2111 205 387 412 954 487 1333 l17 84 73 -37 c222 -112 440
-66 641 134 99 100 145 164 209 294 221 449 221 1096 -1 1545 -114 233 -256
376 -446 455 -53 22 -78 26 -163 26 -98 0 -127 -7 -246 -58 -13 -6 -19 11 -38
106 -97 500 -291 1036 -530 1463 -591 1054 -1528 1744 -2597 1914 -71 11 -181
25 -244 31 -135 12 -464 11 -600 -2z m681 -243 c179 -22 283 -42 452 -86 25
-7 37 -15 37 -27 0 -13 27 -26 113 -54 221 -71 579 -227 746 -325 486 -285
942 -779 1268 -1372 79 -143 87 -160 170 -351 106 -243 189 -497 263 -805 23
-93 50 -189 60 -211 22 -52 124 -155 182 -186 36 -18 66 -23 183 -29 164 -8
193 -16 275 -71 140 -93 303 -361 350 -576 17 -73 20 -128 20 -345 0 -278 0
-274 -67 -497 -71 -234 -194 -417 -326 -484 -83 -42 -157 -51 -265 -32 -180
31 -215 21 -328 -96 -91 -93 -117 -147 -144 -289 -21 -113 -73 -302 -113 -409
-11 -30 -76 -176 -145 -325 -69 -148 -153 -332 -187 -407 -83 -180 -111 -231
-248 -432 -162 -237 -301 -400 -485 -569 -276 -254 -418 -366 -631 -499 -877
-551 -1928 -605 -2844 -147 -302 152 -550 328 -855 609 -238 219 -513 582
-702 925 -237 429 -362 732 -490 1185 -28 100 -62 205 -75 234 -27 62 -121
167 -184 208 -53 33 -101 36 -231 12 -106 -19 -179 -11 -259 26 -146 69 -267
239 -342 480 l-33 105 -4 345 c-3 236 0 362 8 400 45 216 166 448 282 542 106
85 178 108 343 108 95 0 117 3 160 24 63 30 156 123 183 184 11 26 40 128 63
227 78 335 214 715 365 1017 347 696 918 1301 1489 1578 204 99 412 186 557
233 98 32 128 46 128 59 0 20 42 34 213 72 328 73 713 92 1048 51z M3055 7208
c-139 -26 -296 -153 -368 -297 -36 -72 -37 -77 -37 -186 0 -113 8 -149 47
-220 34 -60 113 -140 185 -186 90 -58 139 -70 323 -81 230 -13 729 -3 814 18
133 31 270 142 332 269 32 65 34 77 37 185 3 110 2 118 -27 183 -36 80 -51
101 -132 184 -72 72 -156 117 -249 132 -81 13 -855 13 -925 -1z m963 -223
c149 -44 231 -198 188 -350 -14 -45 -29 -69 -70 -110 -85 -85 -82 -85 -611
-85 -528 0 -526 0 -610 83 -151 152 -95 388 108 458 47 17 96 18 498 19 371 0
454 -3 497 -15z M6671 7209 c-141 -24 -294 -146 -370 -297 -41 -81 -41 -83
-41 -192 0 -100 3 -116 29 -174 63 -139 209 -258 360 -293 66 -15 128 -18 486
-17 273 0 430 4 470 12 161 32 317 162 374 312 17 44 21 78 21 164 0 107 -1
111 -39 190 -76 157 -220 271 -371 295 -79 13 -841 13 -919 0z m1008 -244
c172 -95 203 -304 66 -442 -84 -83 -82 -83 -610 -83 -529 0 -526 0 -611 85
-41 41 -56 65 -70 110 -43 149 33 295 178 346 49 17 88 19 523 16 l470 -2 54
-30z M3990 5911 c-14 -5 -179 -85 -367 -179 -243 -122 -352 -182 -379 -208
-106 -107 -105 -283 2 -389 57 -55 116 -79 196 -80 66 0 67 0 428 180 324 161
367 185 406 228 96 107 97 254 2 362 -56 63 -124 95 -203 94 -33 0 -71 -4 -85
-8z m110 -256 c16 -20 5 -49 -33 -81 -44 -37 -504 -261 -565 -276 -44 -10 -54
-9 -77 6 -19 13 -25 24 -23 44 3 24 27 39 253 154 318 161 412 193 445 153z
M6475 5897 c-93 -44 -165 -154 -165 -252 0 -61 29 -132 74 -182 39 -43 82 -67
406 -228 361 -180 362 -180 428 -180 81 1 142 26 197 80 106 107 107 283 1
389 -27 26 -138 87 -389 213 -349 175 -353 176 -427 180 -64 3 -83 0 -125 -20z
m201 -242 c55 -16 499 -233 546 -266 36 -26 39 -70 4 -89 -41 -21 -111 4 -375
135 -287 142 -351 191 -293 224 24 15 60 13 118 -4z M4964 3928 c-17 -6 -53
-27 -80 -47 -163 -123 -135 -379 51 -467 50 -24 53 -24 395 -24 342 0 345 0
395 24 186 88 214 344 51 467 -26 20 -65 41 -86 48 -48 14 -681 13 -726 -1z
m694 -201 c28 -16 32 -22 32 -60 -1 -95 -43 -107 -365 -107 -319 0 -375 16
-375 107 0 71 58 82 405 80 236 -2 274 -5 303 -20z M3955 2746 c-56 -26 -116
-87 -141 -143 -40 -91 -12 -232 59 -301 79 -76 474 -229 802 -311 397 -99 791
-109 1171 -31 383 79 864 256 944 347 71 81 95 207 56 296 -44 100 -145 167
-255 167 -55 0 -81 -8 -215 -64 -257 -110 -497 -182 -743 -223 -162 -27 -467
-25 -630 5 -247 45 -462 110 -720 218 -179 75 -238 82 -328 40z m167 -186 c31
-6 112 -33 180 -59 456 -179 847 -252 1183 -222 261 24 553 98 854 215 170 66
235 81 290 66 41 -11 41 -11 41 -60 0 -85 -34 -111 -262 -200 -387 -151 -817
-231 -1163 -216 -337 14 -682 92 -1050 237 -182 72 -231 113 -223 190 3 29 8
35 43 45 51 16 43 16 107 4z M3370 9616 c-891 -168 -1502 -493 -1822 -971
-202 -301 -291 -633 -305 -1130 -6 -248 4 -335 56 -488 50 -149 183 -375 202
-345 29 46 16 157 -42 352 l-29 99 0 381 c0 339 2 391 20 476 44 214 117 386
244 578 197 296 551 542 1049 728 128 48 254 100 412 172 55 24 177 76 270
113 94 38 159 69 145 68 -14 0 -104 -15 -200 -33z M7260 9571 c107 -43 278
-114 380 -158 102 -44 210 -88 240 -98 96 -31 330 -134 446 -195 222 -116 400
-251 544 -414 179 -199 288 -425 352 -724 22 -100 23 -129 23 -467 l0 -360
-43 -133 c-54 -168 -71 -273 -50 -322 l14 -35 51 75 c99 147 171 328 194 490
15 106 6 458 -16 620 -55 399 -184 701 -411 963 -300 347 -828 614 -1514 766
-137 31 -359 71 -389 71 -9 0 72 -36 179 -79z"/>
</g>
</svg>
