<?xml version="1.0" standalone="no"?>
<!DOCTYPE svg PUBLIC "-//W3C//DTD SVG 20010904//EN"
 "http://www.w3.org/TR/2001/REC-SVG-20010904/DTD/svg10.dtd">
<svg version="1.0" xmlns="http://www.w3.org/2000/svg"
 width="2048.000000pt" height="2048.000000pt" viewBox="0 0 2048.000000 2048.000000"
 preserveAspectRatio="xMidYMid meet">
<metadata>
Created by potrace 1.13, written by Peter Selinger 2001-2015
</metadata>
<g transform="translate(0.000000,2048.000000) scale(0.192120,-0.192120)"
fill="#000000" stroke="none">
<path d="M4920 9213 c-506 -19 -994 -187 -1372 -474 -85 -65 -282 -249 -274
-256 2 -3 33 18 68 45 245 192 602 379 948 496 209 70 653 174 758 177 24 0
25 1 7 9 -11 5 -29 8 -40 7 -11 0 -54 -2 -95 -4z M5005 9166 c-71 -29 -276
-108 -455 -176 -606 -228 -968 -378 -1230 -508 l-115 -57 -72 -100 c-40 -55
-95 -140 -122 -190 -56 -100 -120 -260 -123 -302 -1 -16 -9 -64 -20 -108 -33
-144 -43 -333 -30 -543 12 -191 47 -497 61 -535 8 -21 9 -20 41 11 31 31 32
35 28 100 -3 56 -9 75 -36 116 -32 47 -32 49 -15 69 24 26 350 241 538 354
487 292 1027 555 1520 740 757 285 1520 450 2218 479 150 6 167 5 167 -9 0
-35 34 -113 71 -163 21 -29 77 -85 125 -126 l86 -73 -119 -7 c-491 -30 -738
-65 -1108 -159 -293 -75 -672 -208 -905 -317 -105 -50 -85 -52 175 -16 52 7
232 50 268 63 21 8 27 8 27 -3 0 -10 42 0 153 36 366 119 832 208 1182 225
147 7 205 -4 205 -38 0 -10 -4 -19 -8 -19 -29 0 -184 -22 -217 -31 -106 -29
-166 -61 -206 -111 -21 -28 -39 -61 -39 -74 0 -27 59 -126 94 -159 30 -29 150
-113 231 -164 39 -24 107 -71 153 -104 l82 -61 0 -53 c0 -39 -4 -53 -14 -53
-8 0 -110 63 -227 141 -225 148 -542 315 -744 393 -55 21 -111 44 -124 50 -13
6 -63 11 -110 11 -147 -1 -316 -74 -366 -159 -26 -45 -32 -76 -15 -76 6 0 98
27 204 60 l194 61 144 -56 c361 -141 768 -380 1061 -626 130 -109 133 -112
119 -153 -16 -44 -15 -60 6 -86 18 -22 18 -21 35 76 43 249 66 642 47 819 -26
249 -71 408 -180 630 -117 238 -272 418 -526 611 -166 127 -423 248 -671 318
-51 14 -99 26 -108 26 -9 0 -14 4 -10 9 6 10 -96 35 -215 52 -41 6 -277 13
-525 15 l-450 4 -130 -54z m1255 -71 c29 -35 113 -64 310 -109 236 -53 372
-87 367 -93 -2 -2 -64 -10 -138 -19 -1263 -145 -2491 -594 -3732 -1366 -115
-72 -211 -128 -213 -125 -3 3 17 59 44 125 65 156 76 207 61 285 -14 69 -23
58 111 141 325 201 879 474 1350 664 555 223 1203 420 1665 505 130 24 149 23
175 -8z m562 -411 c49 -15 -1 -39 -112 -53 -227 -28 -745 -124 -764 -141 -5
-5 -15 -6 -22 -3 -8 3 -14 0 -14 -7 0 -7 -7 -10 -16 -6 -9 4 -22 2 -28 -2 -6
-5 -42 -17 -81 -26 -102 -25 -437 -127 -608 -186 -539 -183 -1204 -493 -1703
-792 -194 -117 -178 -107 -247 -151 -83 -55 -163 -97 -181 -97 -12 0 -16 11
-16 48 0 55 -4 51 215 185 474 288 1114 602 1595 784 548 208 1142 367 1610
432 204 29 315 33 372 15z m-3155 -246 c-3 -8 -6 -5 -6 6 -1 11 2 17 5 13 3
-3 4 -12 1 -19z m-20 -10 c-3 -8 -6 -5 -6 6 -1 11 2 17 5 13 3 -3 4 -12 1 -19z
m-60 -30 c-3 -8 -6 -5 -6 6 -1 11 2 17 5 13 3 -3 4 -12 1 -19z m-20 -10 c-3
-8 -6 -5 -6 6 -1 11 2 17 5 13 3 -3 4 -12 1 -19z m-20 -10 c-3 -8 -6 -5 -6 6
-1 11 2 17 5 13 3 -3 4 -12 1 -19z m4196 -649 c-10 -33 -17 -87 -17 -139 1
-72 7 -104 41 -210 23 -69 40 -127 38 -129 -2 -2 -41 24 -87 57 -187 134 -369
249 -552 347 -61 32 -106 60 -100 61 31 8 277 27 439 33 145 5 197 11 220 23
17 9 31 15 32 14 2 -2 -5 -27 -14 -57z M5220 7536 c-485 -153 -969 -367 -1346
-593 -402 -242 -710 -546 -802 -790 -15 -40 -30 -73 -34 -73 -18 0 -94 279
-118 433 -7 42 -16 77 -19 77 -18 0 -93 -66 -128 -112 -82 -108 -130 -220
-159 -375 -25 -133 -15 -367 20 -488 64 -217 180 -373 314 -419 41 -14 40 -12
67 -160 9 -49 18 -93 21 -98 7 -11 58 68 92 140 46 101 20 163 -133 322 -149
155 -175 226 -175 476 0 95 3 179 6 188 8 22 37 20 59 -4 12 -13 21 -17 25
-10 4 7 27 -3 61 -25 62 -42 86 -42 152 4 51 35 75 61 199 216 104 130 225
250 334 332 236 174 487 321 789 460 354 164 822 333 921 333 77 0 316 -76
489 -155 44 -20 139 -61 210 -92 206 -88 499 -233 636 -315 295 -176 540 -374
664 -538 127 -168 197 -230 259 -230 21 0 51 15 90 45 33 25 65 45 72 45 7 0
24 -14 39 -32 l26 -31 -3 -191 c-3 -190 -3 -191 -34 -257 -32 -67 -86 -139
-180 -241 -126 -138 -147 -227 -82 -353 62 -119 62 -119 81 -31 9 41 20 101
23 132 5 39 12 57 23 60 105 30 214 134 279 265 175 356 112 863 -135 1089
-30 28 -60 49 -67 47 -6 -2 -16 -35 -22 -74 -25 -144 -96 -383 -115 -383 -5 0
-9 5 -9 11 0 7 -20 53 -43 103 -200 419 -827 841 -1728 1161 -153 55 -499 166
-510 164 -2 0 -51 -15 -109 -33z M4140 6431 c-75 -23 -146 -87 -179 -161 -18
-40 -21 -66 -21 -245 0 -189 2 -203 24 -250 47 -103 143 -165 251 -164 33 0
74 6 92 12 56 21 120 74 150 124 28 48 28 48 31 252 4 229 -1 261 -53 332 -62
86 -195 130 -295 100z M6360 6431 c-50 -16 -89 -41 -129 -87 -61 -70 -71 -115
-71 -325 0 -153 3 -186 20 -231 38 -102 144 -177 251 -178 114 0 206 56 256
158 28 57 28 58 28 257 0 199 0 200 -28 257 -33 67 -91 121 -155 142 -48 17
-129 20 -172 7z M5035 5242 c-80 -37 -132 -124 -122 -208 10 -90 75 -164 163
-184 54 -13 442 -12 502 0 59 13 115 57 143 113 31 60 24 152 -16 208 -56 80
-74 84 -370 87 -235 2 -264 0 -300 -16z M3031 4892 c-54 -56 -65 -112 -58
-271 11 -240 69 -459 186 -696 38 -77 99 -182 136 -233 38 -54 81 -128 100
-176 105 -261 237 -469 404 -637 203 -204 424 -325 658 -361 56 -9 89 -20 118
-40 131 -92 512 -146 900 -127 272 13 501 62 591 127 26 19 58 31 94 36 234
30 476 159 675 360 172 173 300 373 403 627 21 53 60 127 88 165 184 255 299
549 335 863 23 203 1 327 -68 381 -65 51 -233 6 -387 -104 -34 -24 -123 -109
-200 -190 -261 -277 -449 -397 -645 -413 -100 -8 -156 8 -355 107 -303 149
-418 179 -686 179 -271 -1 -380 -29 -687 -180 -200 -98 -255 -114 -353 -106
-200 17 -387 137 -651 417 -144 153 -211 207 -329 264 -70 34 -97 41 -158 45
l-73 3 -38 -40z m294 -303 c27 -17 126 -106 220 -198 93 -91 211 -197 260
-234 143 -107 347 -197 448 -197 16 0 27 -6 27 -13 0 -7 21 -54 46 -105 59
-119 157 -223 257 -271 158 -76 435 -121 747 -121 396 0 695 65 842 183 47 38
125 137 145 187 8 19 24 54 34 77 10 23 19 46 19 50 0 5 28 14 63 20 184 32
364 142 596 367 85 83 174 168 196 189 37 36 130 97 148 97 4 0 7 -53 7 -118
0 -200 -63 -385 -221 -644 -51 -84 -126 -221 -166 -305 -132 -274 -241 -427
-400 -564 -184 -158 -234 -187 -416 -239 -59 -17 -149 -47 -200 -67 -190 -73
-298 -92 -573 -100 -333 -10 -537 18 -746 100 -62 25 -151 55 -198 67 -47 13
-114 36 -149 52 -149 66 -411 300 -514 458 -30 47 -85 146 -122 220 -101 206
-107 217 -182 340 -182 300 -253 497 -253 703 0 112 5 116 85 66z m2355 -519
c251 -18 420 -55 474 -105 34 -31 33 -47 -4 -89 -51 -58 -209 -113 -430 -152
-149 -25 -520 -30 -695 -9 -253 31 -461 97 -519 166 -33 39 -33 54 1 85 50 46
228 87 448 103 173 12 556 12 725 1z M2860 2534 c-620 -94 -1146 -538 -1339
-1131 -67 -205 -74 -269 -79 -690 l-4 -383 3891 0 3891 0 0 268 c0 527 -35
732 -174 1017 -243 496 -706 835 -1256 920 -132 21 -1250 22 -1250 2 0 -33
-446 -326 -635 -417 -207 -100 -372 -140 -574 -140 -303 0 -542 88 -916 335
-195 129 -295 204 -295 221 0 21 -1120 19 -1260 -2z m4750 -154 c61 -28 180
-71 265 -95 192 -56 261 -82 377 -142 237 -122 472 -355 587 -581 41 -80 92
-217 117 -311 23 -88 24 -108 24 -382 0 -282 0 -289 -20 -289 -11 0 -20 -7
-20 -15 0 -13 -266 -15 -2202 -18 -2446 -4 -2216 3 -2488 -72 -73 -20 -134
-34 -136 -32 -12 11 340 312 611 522 765 594 1540 1044 2275 1322 159 60 430
142 472 143 14 0 76 -23 138 -50z m-3496 -74 c18 -7 108 -63 199 -124 194
-129 343 -207 482 -253 95 -32 107 -34 240 -33 115 0 159 5 250 27 60 14 110
25 112 24 1 -2 -82 -59 -185 -127 -582 -389 -1019 -732 -1570 -1233 -84 -75
-155 -137 -160 -137 -4 0 -29 18 -55 40 -27 22 -65 44 -85 50 -24 6 -312 10
-799 10 -672 0 -763 2 -763 15 0 11 -12 15 -46 15 l-45 0 3 323 3 322 37 106
c154 444 464 757 897 904 220 75 299 82 944 84 412 1 514 -2 541 -13z m1336
-598 c0 -19 -11 -31 -55 -63 -22 -17 -42 -32 -45 -35 -3 -3 -48 -34 -100 -69
-108 -73 -472 -335 -492 -354 -7 -7 -74 -60 -148 -118 -74 -59 -202 -162 -285
-229 -179 -146 -237 -187 -299 -205 -50 -15 -62 -9 -52 29 14 57 762 644 1125
883 206 136 351 203 351 161z"/>
</g>
</svg>
