<?xml version="1.0" standalone="no"?>
<!DOCTYPE svg PUBLIC "-//W3C//DTD SVG 20010904//EN"
 "http://www.w3.org/TR/2001/REC-SVG-20010904/DTD/svg10.dtd">
<svg version="1.0" xmlns="http://www.w3.org/2000/svg"
 width="2048.000000pt" height="2048.000000pt" viewBox="0 0 2048.000000 2048.000000"
 preserveAspectRatio="xMidYMid meet">
<metadata>
Created by potrace 1.13, written by Peter Selinger 2001-2015
</metadata>
<g transform="translate(0.000000,2048.000000) scale(0.192120,-0.192120)"
fill="#000000" stroke="none">
<path d="M4930 10319 c-634 -41 -1114 -186 -1480 -449 -196 -141 -357 -302
-543 -548 -251 -330 -324 -535 -377 -1047 -31 -303 -61 -439 -126 -568 -66
-130 -224 -304 -363 -402 -44 -31 -90 -68 -101 -82 -43 -55 -13 -117 83 -172
118 -66 381 -144 662 -196 112 -20 120 -23 123 -46 12 -95 55 -297 76 -353 83
-219 189 -326 254 -256 12 13 34 82 59 183 23 89 58 209 80 267 l40 105 -101
13 c-56 7 -159 23 -230 35 l-130 22 -10 55 c-22 109 -63 136 -288 186 -210 46
-291 72 -323 102 -25 22 -27 29 -21 71 4 25 9 67 13 94 3 26 9 50 14 52 4 3
131 -15 281 -39 780 -129 1479 -199 2056 -208 l192 -3 3 1552 c1 853 5 1554 9
1558 4 4 33 -8 65 -26 32 -19 61 -33 66 -31 4 1 7 -3 7 -9 0 -6 9 -9 20 -6 11
3 20 2 20 -1 0 -13 743 -6 773 6 16 7 53 23 84 37 30 14 58 23 62 20 3 -4 7
-702 8 -1552 2 -851 4 -1547 5 -1548 6 -5 676 15 856 25 417 23 982 68 1452
115 135 14 262 25 283 25 37 0 37 0 37 -42 -1 -108 -48 -132 -398 -203 -95
-20 -191 -44 -213 -56 -47 -23 -76 -67 -85 -126 -4 -26 -12 -44 -23 -47 -35
-12 -253 -45 -396 -62 -82 -10 -151 -18 -153 -19 -1 -1 59 -123 135 -271 151
-294 186 -344 247 -344 63 0 114 75 161 237 23 76 59 306 67 427 l3 39 165 33
c461 92 710 199 710 307 0 34 -34 70 -151 159 -162 124 -261 236 -329 373 -64
130 -95 253 -120 483 -11 103 -28 241 -36 307 -53 396 -202 688 -519 1014
-440 453 -1006 706 -1783 796 -166 20 -665 28 -872 14z m-431 -1547 l1 -1363
-52 5 c-29 3 -111 8 -183 11 -466 21 -1569 153 -1808 216 l-37 10 74 58 c141
113 165 177 206 551 38 352 68 475 158 654 99 201 245 398 427 581 264 266
514 416 895 537 52 17 102 36 111 44 8 8 20 14 25 14 5 0 45 29 89 65 l80 66
7 -43 c3 -24 7 -656 7 -1406z m1791 1333 c65 -52 131 -87 220 -116 345 -114
667 -311 926 -565 290 -287 427 -526 484 -849 11 -60 29 -204 40 -320 36 -370
59 -453 149 -544 31 -31 82 -74 114 -94 51 -34 71 -57 50 -57 -5 0 -91 -9
-193 -20 -407 -43 -1060 -92 -1465 -110 -126 -5 -281 -12 -342 -15 l-113 -5 0
1342 c0 739 3 1366 6 1395 l7 52 31 -25 c17 -14 56 -45 86 -69z m1304 -3511
c3 -9 6 -38 6 -65 0 -62 -21 -66 -50 -9 -25 48 -25 59 -2 76 23 18 39 17 46
-2z M3635 6725 c143 -17 339 -28 250 -14 -93 14 -254 28 -310 27 -33 0 -12 -5
60 -13z M6830 6715 c-114 -17 -44 -17 100 -1 95 11 104 13 50 13 -36 0 -103
-6 -150 -12z M5108 6685 c-5 -5 -317 -13 -582 -15 -33 0 -57 -2 -55 -4 9 -8
168 -17 506 -26 412 -13 1179 4 1202 26 2 2 -88 4 -200 5 -112 0 -251 2 -309
5 -244 10 -555 15 -562 9z M2785 6488 c-58 -65 -126 -206 -156 -323 -20 -76
-23 -116 -23 -260 -1 -203 18 -296 89 -442 68 -139 156 -226 275 -271 24 -9
27 -19 43 -123 76 -485 285 -973 582 -1357 110 -143 308 -343 433 -437 l92
-70 0 -153 0 -153 23 6 c35 11 48 29 54 73 l5 40 108 -82 c180 -136 364 -218
593 -266 279 -57 673 -49 942 21 190 49 381 145 535 268 l75 61 7 -43 c8 -42
37 -77 64 -77 11 0 14 29 14 153 l0 153 69 51 c523 392 912 1067 1035 1797
l22 128 52 20 c103 39 209 161 272 315 125 308 74 754 -110 963 -47 54 -49 45
-22 -76 14 -67 17 -131 17 -409 l0 -330 -38 -70 c-50 -91 -69 -115 -161 -205
-79 -77 -144 -168 -164 -230 -7 -19 -21 -79 -32 -132 -19 -95 -27 -121 -108
-358 -49 -142 -151 -398 -203 -508 -101 -216 -278 -429 -544 -660 -129 -112
-192 -218 -181 -303 7 -48 6 -49 -35 -79 -61 -44 -259 -142 -374 -185 -578
-216 -1233 -152 -1763 173 l-63 38 -2 70 c-3 99 -40 157 -187 293 -158 146
-184 173 -271 281 -101 127 -181 248 -266 405 -143 266 -229 511 -308 887 -23
106 -69 179 -191 300 -80 79 -111 118 -141 176 l-38 75 -3 295 c-2 258 0 312
18 431 11 75 23 146 26 159 7 35 -10 26 -61 -30z M4120 6423 c-27 -10 -65 -37
-96 -68 -74 -74 -84 -114 -84 -330 0 -207 10 -251 75 -323 62 -69 127 -96 220
-90 107 7 183 57 233 152 27 51 27 53 27 256 0 204 0 205 -28 262 -64 131
-208 189 -347 141z M6344 6424 c-60 -21 -119 -77 -151 -142 -28 -57 -28 -58
-28 -262 0 -203 0 -205 27 -256 50 -95 126 -145 233 -152 93 -6 158 21 220 90
65 72 75 116 75 323 0 216 -10 256 -83 330 -80 80 -190 106 -293 69z M5034
5241 c-84 -38 -139 -149 -116 -235 25 -87 97 -150 186 -161 28 -4 150 -5 271
-3 220 3 220 3 267 31 50 29 91 86 103 145 17 81 -40 187 -119 223 -36 17 -69
19 -296 19 -227 0 -260 -2 -296 -19z M4384 4260 c-51 -11 -98 -46 -123 -90
-32 -57 -27 -142 12 -193 77 -101 318 -192 617 -232 171 -23 528 -31 715 -16
283 23 479 68 641 146 107 52 158 102 172 171 16 74 -4 130 -62 182 -62 55
-148 55 -222 2 -133 -95 -404 -144 -804 -144 -396 0 -636 42 -800 139 -61 37
-100 46 -146 35z M3835 2898 c-75 -27 -260 -164 -398 -297 l-47 -45 -277 -3
c-155 -1 -279 -6 -282 -11 -3 -5 -46 -20 -96 -32 -212 -53 -430 -151 -595
-268 -296 -211 -529 -538 -630 -886 -57 -194 -62 -241 -67 -648 l-5 -378 3891
0 3891 0 0 309 c0 328 -9 461 -41 606 -93 417 -347 788 -703 1027 -163 109
-335 184 -532 233 -60 15 -112 32 -115 37 -3 5 -128 10 -281 11 l-275 3 -85
77 c-171 156 -294 243 -376 268 -49 14 -78 1 -87 -41 l-7 -30 -89 0 -89 0 0
-261 0 -260 -127 -128 c-71 -70 -201 -186 -290 -259 -198 -162 -263 -222 -366
-337 -75 -83 -85 -91 -141 -108 -107 -30 -271 -42 -398 -29 -172 18 -226 36
-267 85 -89 106 -204 214 -416 392 -127 105 -272 236 -323 290 l-92 97 0 259
0 259 -89 0 -89 0 -7 30 c-10 47 -42 58 -100 38z m154 -337 c17 -46 51 -118
76 -161 45 -76 45 -77 30 -113 -53 -128 28 -249 305 -453 142 -104 180 -135
274 -222 128 -117 161 -136 248 -137 79 -1 89 -8 158 -110 144 -213 220 -473
237 -808 l6 -127 -31 0 c-17 0 -43 -5 -57 -10 -31 -12 -29 -13 -235 123 -189
125 -452 324 -600 454 -262 231 -521 523 -664 746 -35 54 -35 56 -21 91 29 68
20 140 -31 251 -26 55 -62 143 -80 195 -38 105 -37 136 2 183 13 16 24 33 24
39 0 6 20 28 45 50 25 22 45 44 45 50 0 11 83 123 115 155 13 12 40 31 61 42
l39 21 12 -88 c6 -48 25 -125 42 -171z m2810 219 c15 -10 60 -63 101 -117 41
-54 96 -118 122 -141 27 -24 48 -52 48 -62 0 -11 5 -22 11 -26 7 -4 9 -23 7
-48 -5 -40 -26 -92 -122 -301 -53 -116 -60 -179 -26 -245 l20 -40 -36 -57
c-168 -263 -500 -620 -804 -864 -172 -139 -402 -304 -556 -400 -100 -62 -114
-68 -138 -59 -15 5 -41 10 -57 10 l-29 0 0 73 c0 173 48 452 103 598 48 126
127 266 193 339 34 37 36 38 88 33 95 -10 134 12 311 175 44 41 155 134 247
208 238 192 288 254 288 358 0 30 -5 67 -10 82 -9 23 -5 36 35 104 60 103 102
221 117 329 12 88 12 89 36 80 14 -5 37 -18 51 -29z m-3395 -363 c41 -161 129
-361 227 -515 l29 -46 0 -753 c0 -414 -2 -753 -6 -753 -3 0 -39 22 -81 50 -42
27 -84 50 -94 50 -9 0 -19 6 -21 13 -7 18 -429 18 -435 0 -3 -7 -11 -13 -18
-13 -7 0 -47 -23 -89 -52 -42 -28 -78 -49 -81 -46 -3 2 -4 490 -3 1082 l3
1078 105 -53 c58 -30 108 -57 111 -62 3 -4 42 -3 87 2 66 7 94 16 138 42 30
19 65 44 76 56 12 13 23 21 25 20 1 -2 14 -47 27 -100z m4016 5 c45 -21 170
-35 170 -20 0 4 7 8 15 8 9 0 52 18 96 41 45 22 92 44 105 49 l24 10 0 -1080
c0 -594 -4 -1080 -8 -1080 -4 0 -42 22 -83 50 -40 27 -81 50 -91 50 -9 0 -18
6 -20 13 -7 18 -429 18 -435 0 -3 -7 -11 -13 -18 -13 -7 0 -48 -22 -89 -50
-42 -27 -78 -50 -81 -50 -3 0 -5 338 -5 751 l0 751 70 122 c99 172 167 344
205 519 l6 28 47 -40 c26 -21 67 -48 92 -59z m778 -293 c161 -76 263 -148 392
-278 129 -129 206 -238 268 -376 80 -180 82 -191 82 -564 l0 -331 -445 0 -445
0 0 804 0 804 23 -5 c12 -3 68 -27 125 -54z m-5608 -749 l0 -800 -446 0 -445
0 3 333 3 332 33 94 c118 338 362 612 687 773 113 56 137 66 153 67 9 1 12
-165 12 -799z m1490 -317 c96 -97 204 -201 240 -231 36 -30 97 -81 137 -114
74 -61 94 -91 74 -111 -15 -15 -189 -26 -438 -26 l-213 -1 0 323 c0 298 2 337
19 337 4 0 85 -79 181 -177z m2680 -154 l0 -332 -292 6 c-170 3 -305 10 -320
16 -52 20 -36 42 140 194 92 80 234 213 317 296 82 83 151 151 152 151 2 0 3
-149 3 -331z"/>
</g>
</svg>
