<?xml version="1.0" standalone="no"?>
<!DOCTYPE svg PUBLIC "-//W3C//DTD SVG 20010904//EN"
 "http://www.w3.org/TR/2001/REC-SVG-20010904/DTD/svg10.dtd">
<svg version="1.0" xmlns="http://www.w3.org/2000/svg"
 width="2048.000000pt" height="2048.000000pt" viewBox="0 0 2048.000000 2048.000000"
 preserveAspectRatio="xMidYMid meet">
<metadata>
Created by potrace 1.13, written by Peter Selinger 2001-2015
</metadata>
<g transform="translate(0.000000,2048.000000) scale(0.192120,-0.192120)"
fill="#000000" stroke="none">
<path d="M4930 10319 c-634 -41 -1114 -186 -1480 -449 -196 -141 -357 -302
-543 -548 -251 -330 -324 -535 -377 -1047 -31 -303 -61 -439 -126 -568 -66
-130 -224 -304 -363 -402 -44 -31 -90 -68 -101 -82 -83 -105 93 -216 493 -313
195 -47 337 -74 345 -65 12 12 0 101 -19 131 -24 40 -66 57 -224 94 -197 46
-270 70 -300 98 -25 22 -27 29 -21 71 4 25 9 67 13 94 3 26 9 50 14 52 4 3
131 -15 281 -39 780 -129 1479 -199 2056 -208 l192 -3 3 1552 c1 853 5 1554 9
1558 4 4 33 -8 65 -26 32 -19 61 -33 66 -31 4 1 7 -3 7 -9 0 -6 9 -9 20 -6 11
3 20 2 20 -1 0 -13 743 -6 773 6 16 7 53 23 84 37 30 14 58 23 62 20 3 -4 7
-702 8 -1552 2 -851 4 -1547 5 -1548 6 -5 676 15 856 25 417 23 982 68 1452
115 135 14 262 25 283 25 37 0 37 0 37 -42 -1 -106 -50 -132 -374 -198 -81
-17 -166 -40 -188 -51 -45 -23 -68 -66 -68 -128 0 -47 -19 -46 185 -6 335 68
580 160 645 243 46 58 23 97 -131 214 -162 124 -261 236 -329 373 -64 130 -95
253 -120 483 -11 103 -28 241 -36 307 -53 396 -202 688 -519 1014 -440 453
-1006 706 -1783 796 -166 20 -665 28 -872 14z m-431 -1547 l1 -1363 -52 5
c-29 3 -111 8 -183 11 -466 21 -1569 153 -1808 216 l-37 10 74 58 c141 113
165 177 206 551 38 352 68 475 158 654 99 201 245 398 427 581 264 266 514
416 895 537 52 17 102 36 111 44 8 8 20 14 25 14 5 0 45 29 89 65 l80 66 7
-43 c3 -24 7 -656 7 -1406z m1791 1333 c65 -52 131 -87 220 -116 345 -114 667
-311 926 -565 290 -287 427 -526 484 -849 11 -60 29 -204 40 -320 36 -370 59
-453 149 -544 31 -31 82 -74 114 -94 51 -34 71 -57 50 -57 -5 0 -91 -9 -193
-20 -407 -43 -1060 -92 -1465 -110 -126 -5 -281 -12 -342 -15 l-113 -5 0 1342
c0 739 3 1366 6 1395 l7 52 31 -25 c17 -14 56 -45 86 -69z M2807 6800 c14 -99
58 -292 79 -348 91 -241 212 -340 273 -224 5 9 16 52 25 95 22 110 70 269 106
356 16 41 29 75 28 76 -2 1 -79 12 -173 24 -93 13 -209 31 -257 40 l-86 17 5
-36z M7800 6824 c-95 -19 -484 -74 -519 -74 -17 0 -31 -2 -31 -5 0 -3 62 -125
137 -272 151 -293 187 -343 247 -343 104 0 177 193 221 585 7 66 13 120 12
121 -1 0 -31 -5 -67 -12z M3420 6702 c60 -55 112 -79 190 -90 72 -11 340 -9
520 2 117 8 197 -2 400 -49 36 -8 100 -15 142 -15 50 0 78 -4 80 -12 6 -17
1119 -18 1139 -1 8 6 61 13 119 16 58 3 141 14 185 26 149 38 248 46 422 31
88 -7 217 -11 290 -8 130 5 131 6 185 41 29 20 64 47 78 62 l23 25 -34 0 c-19
0 -72 -4 -119 -10 -47 -5 -193 -18 -325 -29 -1004 -84 -1929 -79 -2935 15
-146 14 -296 27 -335 31 l-70 6 45 -41z M2769 6468 c-55 -69 -111 -191 -140
-303 -20 -77 -23 -115 -23 -260 -1 -203 18 -296 89 -442 67 -136 146 -217 259
-264 l39 -16 23 -130 c87 -512 295 -984 604 -1373 106 -133 289 -314 408 -405
l92 -70 0 -172 c0 -192 -2 -187 68 -162 29 10 43 34 54 91 2 14 21 5 93 -47
282 -204 653 -300 1085 -281 389 17 660 103 917 293 40 29 75 53 78 53 3 0 5
-11 5 -25 0 -56 42 -95 101 -95 18 0 19 11 19 173 l0 173 69 51 c523 392 912
1067 1035 1797 l22 128 54 21 c41 15 74 39 126 91 127 127 200 316 211 551 10
204 -30 395 -111 537 -38 67 -86 130 -86 113 0 -5 7 -61 15 -123 12 -93 13
-153 5 -335 -16 -348 -43 -430 -200 -605 -159 -177 -178 -211 -226 -401 -70
-278 -268 -796 -369 -966 -54 -92 -173 -249 -242 -320 -38 -38 -131 -128 -206
-199 -195 -182 -245 -260 -233 -365 l7 -58 -39 -26 c-64 -42 -230 -122 -337
-162 -425 -159 -904 -168 -1345 -24 -108 36 -308 128 -391 181 l-56 36 5 55
c6 75 1 91 -56 179 -36 54 -88 109 -190 202 -194 176 -331 352 -471 606 -102
185 -138 264 -194 425 -53 152 -88 279 -117 425 -35 173 -64 223 -225 390
-100 104 -144 179 -172 291 -29 120 -27 699 3 802 10 32 -16 17 -57 -35z
M4120 6423 c-27 -10 -65 -37 -96 -68 -74 -74 -84 -114 -84 -330 0 -207 10
-251 75 -323 63 -70 127 -96 221 -90 111 7 189 61 236 163 22 47 23 62 23 250
0 199 0 200 -28 257 -64 131 -208 189 -347 141z M6344 6424 c-60 -21 -119 -77
-151 -142 -28 -57 -28 -58 -28 -262 0 -203 0 -205 27 -256 50 -95 126 -145
233 -152 93 -6 158 21 220 90 65 72 75 116 75 323 0 216 -10 256 -83 330 -80
80 -190 106 -293 69z M5032 5239 c-144 -72 -159 -267 -26 -358 51 -35 93 -41
324 -41 231 0 273 6 324 41 133 91 118 288 -27 358 -40 20 -60 21 -298 21
-238 0 -257 -1 -297 -21z M4384 4260 c-51 -11 -98 -46 -123 -90 -31 -55 -27
-140 9 -189 51 -73 210 -150 403 -196 160 -38 313 -55 557 -62 447 -12 786 39
1018 153 107 53 156 102 170 170 17 78 -7 140 -75 191 -31 24 -46 28 -98 28
-54 0 -67 -4 -116 -37 -110 -76 -305 -120 -616 -140 -139 -9 -227 -9 -365 0
-304 19 -490 60 -616 135 -63 38 -101 48 -148 37z M3835 2898 c-75 -27 -260
-164 -398 -297 l-47 -45 -277 -3 c-155 -1 -279 -6 -282 -11 -3 -5 -46 -20 -96
-32 -212 -53 -430 -151 -595 -268 -296 -211 -529 -538 -630 -886 -57 -194 -62
-241 -67 -648 l-5 -378 3891 0 3891 0 0 309 c0 328 -9 461 -41 606 -93 417
-347 788 -703 1027 -163 109 -335 184 -532 233 -60 15 -112 32 -115 37 -3 5
-128 10 -281 11 l-275 3 -85 77 c-171 156 -294 243 -376 268 -49 14 -78 1 -87
-41 l-7 -30 -89 0 -89 0 0 -257 1 -258 44 70 c73 114 135 301 135 406 0 36 5
36 62 0 38 -24 118 -116 178 -205 8 -12 36 -41 63 -65 26 -24 47 -52 47 -62 0
-10 5 -21 11 -25 22 -13 1 -100 -51 -210 -119 -250 -131 -303 -90 -384 l20
-40 -36 -57 c-168 -263 -500 -620 -804 -864 -172 -139 -402 -304 -556 -400
-100 -62 -114 -68 -138 -59 -15 5 -41 10 -57 10 l-29 0 0 73 c0 175 48 452
104 601 39 102 111 234 171 312 30 38 53 70 51 71 -1 1 -26 -4 -56 -12 -174
-46 -439 -41 -604 11 -19 6 -18 4 6 -27 189 -235 286 -523 305 -902 l6 -127
-31 0 c-17 0 -43 -5 -57 -10 -31 -12 -29 -13 -235 123 -189 125 -452 324 -600
454 -262 231 -521 523 -664 746 -35 54 -35 56 -21 91 29 68 20 140 -31 251
-26 55 -62 143 -80 195 -38 105 -37 136 2 183 13 16 24 33 24 39 0 6 20 28 45
50 25 22 45 44 45 49 0 24 124 170 164 194 54 31 56 31 56 -4 0 -105 62 -292
135 -406 l44 -70 1 258 0 257 -89 0 -89 0 -7 30 c-10 47 -42 58 -100 38z
m-431 -481 c41 -161 129 -361 227 -515 l29 -46 0 -753 c0 -414 -2 -753 -6
-753 -3 0 -39 22 -81 50 -42 27 -84 50 -94 50 -9 0 -19 6 -21 13 -7 18 -429
18 -435 0 -3 -7 -11 -13 -18 -13 -7 0 -47 -23 -89 -52 -42 -28 -78 -49 -81
-46 -3 2 -4 490 -3 1082 l3 1078 105 -53 c58 -30 108 -57 111 -62 3 -4 42 -3
87 2 66 7 94 16 138 42 30 19 65 44 76 56 12 13 23 21 25 20 1 -2 14 -47 27
-100z m4016 5 c45 -21 170 -35 170 -20 0 4 7 8 15 8 9 0 52 18 96 41 45 22 92
44 105 49 l24 10 0 -1080 c0 -594 -4 -1080 -8 -1080 -4 0 -42 22 -83 50 -40
27 -81 50 -91 50 -9 0 -18 6 -20 13 -7 18 -429 18 -435 0 -3 -7 -11 -13 -18
-13 -7 0 -48 -22 -89 -50 -42 -27 -78 -50 -81 -50 -3 0 -5 338 -5 751 l0 751
70 122 c99 172 167 344 205 519 l6 28 47 -40 c26 -21 67 -48 92 -59z m778
-293 c161 -76 263 -148 392 -278 129 -129 206 -238 268 -376 80 -180 82 -191
82 -564 l0 -331 -445 0 -445 0 0 804 0 804 23 -5 c12 -3 68 -27 125 -54z
m-5608 -749 l0 -800 -446 0 -445 0 3 333 3 332 33 94 c118 338 362 612 687
773 113 56 137 66 153 67 9 1 12 -165 12 -799z m1490 -317 c96 -97 204 -201
240 -231 36 -30 97 -81 137 -114 74 -61 94 -91 74 -111 -15 -15 -189 -26 -438
-26 l-213 -1 0 323 c0 298 2 337 19 337 4 0 85 -79 181 -177z m2680 -154 l0
-332 -292 6 c-170 3 -305 10 -320 16 -52 20 -36 42 140 194 92 80 234 213 317
296 82 83 151 151 152 151 2 0 3 -149 3 -331z M4195 2211 c4 -13 13 -39 21
-56 14 -35 127 -145 215 -210 30 -23 89 -67 132 -100 44 -32 128 -102 188
-156 120 -106 187 -144 103 -58 -109 113 -186 183 -334 303 -85 70 -195 166
-244 214 -61 60 -86 80 -81 63z M6390 2153 c-36 -36 -141 -128 -235 -205 -181
-149 -403 -360 -385 -366 16 -6 57 24 130 93 82 78 222 194 325 271 107 79
188 160 215 212 11 24 20 47 18 51 -2 5 -32 -21 -68 -56z"/>
</g>
</svg>
