<?xml version="1.0" standalone="no"?>
<!DOCTYPE svg PUBLIC "-//W3C//DTD SVG 20010904//EN"
 "http://www.w3.org/TR/2001/REC-SVG-20010904/DTD/svg10.dtd">
<svg version="1.0" xmlns="http://www.w3.org/2000/svg"
 width="2048.000000pt" height="2048.000000pt" viewBox="0 0 2048.000000 2048.000000"
 preserveAspectRatio="xMidYMid meet">
<metadata>
Created by potrace 1.13, written by Peter Selinger 2001-2015
</metadata>
<g transform="translate(0.000000,2048.000000) scale(0.192120,-0.192120)"
fill="#000000" stroke="none">
<path d="M4920 9213 c-506 -19 -994 -187 -1372 -474 -85 -65 -282 -249 -274
-256 2 -3 33 18 68 45 245 192 602 379 948 496 209 70 653 174 758 177 24 0
25 1 7 9 -11 5 -29 8 -40 7 -11 0 -54 -2 -95 -4z M5005 9166 c-71 -29 -276
-108 -455 -176 -606 -228 -968 -378 -1230 -508 l-115 -57 -72 -100 c-127 -175
-236 -399 -247 -506 -2 -24 -11 -73 -20 -109 -50 -212 -43 -559 20 -999 l16
-114 -43 -36 c-62 -51 -87 -78 -126 -138 -143 -222 -175 -582 -78 -874 57
-171 189 -328 298 -355 34 -8 43 -24 51 -96 4 -32 11 -58 15 -58 15 0 51 98
51 136 0 53 -35 107 -128 195 -85 82 -139 165 -166 258 -20 68 -23 487 -4 542
16 49 74 136 98 149 29 16 58 4 76 -32 8 -16 17 -28 19 -26 2 2 -5 39 -15 83
-10 44 -21 104 -25 133 -6 47 -5 55 13 68 35 25 55 95 50 176 -5 72 -23 118
-69 177 -18 23 -19 25 -2 44 24 26 351 242 538 354 487 292 1027 555 1520 740
757 285 1520 450 2218 479 150 6 167 5 167 -9 0 -35 34 -113 71 -163 21 -29
77 -85 125 -126 l86 -73 -119 -7 c-255 -15 -412 -29 -552 -49 -498 -69 -1012
-222 -1528 -455 -133 -59 -212 -102 -141 -75 32 12 183 -27 420 -108 l148 -51
119 44 c66 25 188 65 270 90 l150 46 143 -55 c280 -109 590 -278 852 -465 117
-83 284 -219 320 -259 19 -20 18 -21 -7 -60 -47 -70 -44 -148 6 -189 13 -11
12 -25 -4 -110 -10 -53 -21 -108 -25 -122 -7 -24 -7 -24 13 -8 60 53 121 -2
179 -161 22 -61 24 -81 24 -252 0 -213 -8 -254 -73 -364 -22 -38 -79 -110
-125 -159 -52 -55 -94 -109 -109 -143 -23 -49 -24 -58 -13 -101 6 -26 19 -63
29 -81 l19 -35 11 75 c16 94 17 99 36 99 58 0 186 109 246 210 221 372 139
980 -159 1180 l-22 15 19 115 c47 272 70 664 51 845 -26 249 -71 408 -180 630
-117 238 -272 418 -526 611 -166 127 -423 248 -671 318 -51 14 -99 26 -108 26
-9 0 -14 4 -10 9 6 10 -96 35 -215 52 -41 6 -277 13 -525 15 l-450 4 -130 -54z
m1255 -71 c29 -35 113 -64 310 -109 236 -53 372 -87 367 -93 -2 -2 -64 -10
-138 -19 -1263 -145 -2491 -594 -3732 -1366 -115 -72 -211 -128 -213 -125 -3
3 17 59 44 125 65 156 76 207 61 285 -14 69 -23 58 111 141 325 201 879 474
1350 664 555 223 1203 420 1665 505 130 24 149 23 175 -8z m562 -411 c49 -15
-1 -39 -112 -53 -227 -28 -745 -124 -764 -141 -5 -5 -15 -6 -22 -3 -8 3 -14 0
-14 -7 0 -7 -7 -10 -16 -6 -9 4 -22 2 -28 -2 -6 -5 -42 -17 -81 -26 -102 -25
-437 -127 -608 -186 -539 -183 -1204 -493 -1703 -792 -194 -117 -178 -107
-247 -151 -83 -55 -163 -97 -181 -97 -12 0 -16 11 -16 48 0 55 -4 51 215 185
474 288 1114 602 1595 784 548 208 1142 367 1610 432 204 29 315 33 372 15z
m-3155 -246 c-3 -8 -6 -5 -6 6 -1 11 2 17 5 13 3 -3 4 -12 1 -19z m-20 -10
c-3 -8 -6 -5 -6 6 -1 11 2 17 5 13 3 -3 4 -12 1 -19z m-60 -30 c-3 -8 -6 -5
-6 6 -1 11 2 17 5 13 3 -3 4 -12 1 -19z m-20 -10 c-3 -8 -6 -5 -6 6 -1 11 2
17 5 13 3 -3 4 -12 1 -19z m-20 -10 c-3 -8 -6 -5 -6 6 -1 11 2 17 5 13 3 -3 4
-12 1 -19z m3942 -419 c20 -7 31 -18 31 -30 0 -10 -4 -19 -8 -19 -29 0 -184
-22 -217 -31 -106 -29 -166 -61 -206 -111 -21 -28 -39 -61 -39 -74 0 -27 59
-126 94 -159 30 -29 150 -113 231 -164 39 -24 107 -71 153 -104 l82 -61 0 -53
c0 -39 -4 -53 -14 -53 -8 0 -110 63 -227 141 -226 148 -543 316 -744 393 -55
21 -107 42 -116 47 -34 17 -139 21 -206 9 -37 -7 -146 -39 -240 -71 -95 -33
-184 -59 -198 -59 -29 0 -85 26 -85 40 0 28 401 166 682 235 201 49 472 97
643 114 61 6 124 13 140 15 71 8 215 5 244 -5z m254 -230 c-10 -33 -17 -87
-17 -139 1 -72 7 -104 41 -210 23 -69 40 -127 38 -129 -2 -2 -41 24 -87 57
-187 134 -369 249 -552 347 -61 32 -106 60 -100 61 31 8 277 27 439 33 145 5
197 11 220 23 17 9 31 15 32 14 2 -2 -5 -27 -14 -57z M5085 7490 c-11 -5 -69
-27 -130 -49 -914 -330 -1562 -744 -1817 -1161 -29 -46 -22 -39 49 51 72 91
248 268 300 304 63 42 137 98 167 127 83 79 364 245 646 381 152 74 527 231
600 252 14 4 66 26 115 50 50 23 97 45 105 48 13 5 13 5 0 6 -8 0 -24 -4 -35
-9z M6180 7259 c19 -12 47 -26 63 -31 15 -6 27 -14 27 -19 0 -5 5 -9 11 -9 23
0 380 -180 504 -255 162 -98 372 -246 447 -317 142 -133 173 -166 225 -230 30
-37 58 -68 60 -68 6 0 9 -4 -79 110 -211 274 -643 567 -1166 791 -125 54 -145
60 -92 28z M4140 6431 c-75 -23 -146 -87 -179 -161 -18 -40 -21 -66 -21 -245
0 -189 2 -203 24 -250 47 -103 143 -165 251 -164 33 0 74 6 92 12 56 21 120
74 150 124 28 48 28 48 31 252 4 229 -1 261 -53 332 -62 86 -195 130 -295 100z
M6360 6431 c-50 -16 -89 -41 -129 -87 -61 -70 -71 -115 -71 -325 0 -215 12
-260 88 -331 65 -61 123 -82 211 -76 109 8 186 63 235 168 19 41 21 63 21 245
0 199 0 200 -28 257 -33 67 -91 121 -155 142 -48 17 -129 20 -172 7z M5035
5242 c-84 -39 -132 -125 -122 -215 8 -65 44 -119 104 -154 l48 -28 237 -3
c282 -4 323 3 382 68 46 51 56 77 56 144 0 68 -33 131 -89 171 l-43 30 -266 3
c-242 2 -271 0 -307 -16z M3051 4908 c-64 -44 -76 -83 -75 -253 0 -172 23
-309 80 -483 46 -144 157 -367 239 -480 38 -54 81 -128 100 -176 105 -262 237
-470 404 -637 203 -203 426 -325 658 -361 56 -9 89 -20 118 -40 248 -174 1242
-174 1490 0 28 20 62 31 115 39 233 37 458 159 655 357 172 173 300 373 403
628 21 53 61 126 88 164 221 302 360 731 342 1054 -6 100 -31 160 -81 191 -74
46 -229 3 -381 -105 -34 -24 -123 -109 -200 -190 -261 -277 -449 -397 -645
-413 -100 -8 -156 8 -355 107 -305 150 -416 179 -686 179 -271 -1 -380 -29
-687 -180 -201 -98 -255 -114 -354 -106 -196 17 -389 140 -649 416 -145 154
-212 208 -330 265 -109 52 -196 61 -249 24z m469 -543 c96 -94 216 -201 265
-238 108 -81 283 -170 382 -193 46 -10 73 -22 77 -33 6 -17 7 -19 77 -126 64
-96 178 -204 259 -243 89 -44 270 -88 442 -108 176 -20 547 -15 703 10 141 23
279 61 354 97 116 57 226 179 316 352 13 24 29 40 45 43 212 46 382 156 662
425 94 90 189 177 212 192 l41 28 7 -43 c26 -168 -43 -387 -210 -663 -47 -77
-124 -219 -171 -315 -116 -234 -201 -362 -320 -481 -152 -151 -255 -212 -455
-269 -60 -18 -161 -51 -225 -75 -229 -85 -325 -100 -661 -100 -337 0 -437 15
-662 101 -65 24 -168 58 -228 74 -139 38 -240 88 -356 178 -172 133 -268 260
-402 532 -47 96 -121 232 -164 302 -103 170 -169 302 -209 423 -28 86 -33 118
-37 224 l-4 123 43 -23 c24 -13 122 -101 219 -194z m2160 -295 c312 -22 500
-77 500 -146 0 -32 -76 -91 -157 -122 -360 -137 -1026 -137 -1386 0 -81 31
-157 90 -157 122 0 66 191 124 475 145 173 12 556 12 725 1z M2860 2534 c-620
-94 -1146 -538 -1339 -1131 -67 -205 -74 -269 -79 -690 l-4 -383 3891 0 3891
0 0 268 c0 527 -35 732 -174 1017 -243 496 -706 835 -1256 920 -136 21 -1250
22 -1250 1 0 -7 -71 -63 -157 -124 -486 -340 -749 -443 -1102 -429 -321 12
-562 115 -1024 439 -70 50 -133 99 -140 109 -11 18 -32 19 -587 18 -446 -1
-596 -4 -670 -15z m4750 -154 c61 -28 180 -71 265 -95 192 -56 261 -82 377
-142 237 -122 472 -355 587 -581 41 -80 92 -217 117 -311 23 -88 24 -108 24
-382 0 -282 0 -289 -20 -289 -11 0 -20 -7 -20 -15 0 -13 -266 -15 -2202 -18
-2446 -4 -2216 3 -2488 -72 -73 -20 -134 -34 -136 -32 -12 11 340 312 611 522
765 594 1540 1044 2275 1322 159 60 430 142 472 143 14 0 76 -23 138 -50z
m-3545 -83 c21 -10 75 -44 120 -76 267 -193 469 -299 672 -352 92 -24 215 -21
371 10 51 10 89 15 85 11 -4 -4 -100 -70 -213 -146 -540 -368 -932 -679 -1458
-1157 -84 -75 -155 -137 -160 -137 -4 0 -29 18 -55 40 -27 22 -65 44 -85 50
-24 6 -312 10 -799 10 -672 0 -763 2 -763 15 0 11 -12 15 -46 15 l-45 0 3 323
3 322 37 106 c154 444 464 757 897 904 221 75 309 83 916 81 438 -1 483 -3
520 -19z m1325 -633 c0 -20 -11 -28 -318 -248 -159 -114 -298 -215 -308 -224
-11 -10 -80 -65 -154 -123 -74 -59 -202 -162 -285 -229 -179 -146 -237 -187
-299 -205 -50 -15 -62 -9 -52 29 13 54 740 627 1088 858 182 121 328 185 328
142z"/>
</g>
</svg>
