<?xml version="1.0" standalone="no"?>
<!DOCTYPE svg PUBLIC "-//W3C//DTD SVG 20010904//EN"
 "http://www.w3.org/TR/2001/REC-SVG-20010904/DTD/svg10.dtd">
<svg version="1.0" xmlns="http://www.w3.org/2000/svg"
 width="2048.000000pt" height="2048.000000pt" viewBox="0 0 2048.000000 2048.000000"
 preserveAspectRatio="xMidYMid meet">
<metadata>
Created by potrace 1.13, written by Peter Selinger 2001-2015
</metadata>
<g transform="translate(0.000000,2048.000000) scale(0.192120,-0.192120)"
fill="#000000" stroke="none">
<path d="M5153 10316 c-239 -46 -375 -142 -375 -265 l1 -48 -46 -7 c-102 -14
-287 -61 -440 -111 -516 -172 -953 -444 -1348 -840 -290 -289 -502 -587 -670
-938 -118 -247 -212 -538 -246 -764 -8 -57 -16 -80 -25 -76 -14 5 -62 -113
-93 -232 -49 -184 -48 -331 0 -460 64 -172 413 -418 819 -578 660 -259 1518
-387 2599 -387 898 0 1625 86 2246 265 473 137 895 360 1092 577 125 138 151
321 82 583 -32 122 -79 237 -94 231 -10 -3 -15 10 -20 47 -22 166 -90 414
-168 608 -415 1033 -1386 1848 -2449 2057 l-137 27 1 47 c0 109 -107 196 -308
249 -102 27 -318 35 -421 15z m-206 -465 c155 -78 448 -96 649 -41 90 24 141
49 212 102 l53 40 12 -34 c28 -79 74 -154 105 -175 18 -12 65 -32 105 -44 95
-29 315 -110 452 -166 171 -70 375 -178 539 -287 83 -55 159 -101 168 -102 46
-4 367 -309 505 -480 286 -354 469 -688 573 -1046 81 -281 84 -286 197 -362
l63 -43 -23 -20 c-36 -34 -184 -126 -297 -186 -514 -272 -1257 -461 -2090
-532 -543 -45 -1218 -44 -1735 5 -816 77 -1491 250 -2012 516 -122 62 -278
158 -320 197 l-23 20 63 44 c95 67 118 104 152 247 26 110 94 305 151 429 207
453 499 834 884 1155 47 40 87 66 91 61 4 -6 42 15 90 49 263 187 524 313 973
468 222 77 241 89 274 177 11 28 25 65 31 80 l11 28 52 -39 c29 -22 72 -49 95
-61z m-2630 -3022 c295 -155 649 -286 1033 -384 52 -13 124 -34 160 -45 208
-67 729 -139 1235 -171 243 -16 937 -16 1170 0 486 32 978 98 1185 158 47 13
166 47 266 74 385 104 625 193 917 340 98 49 185 89 193 89 11 0 14 -26 14
-142 l0 -143 -40 -89 c-49 -110 -70 -133 -185 -200 -626 -368 -1618 -556
-2935 -556 -1332 0 -2339 194 -2965 570 -101 61 -122 85 -170 190 -38 82 -39
89 -43 218 -2 73 -1 139 2 148 8 21 29 14 163 -57z M4874 9715 c-34 -7 -79
-22 -101 -34 -71 -36 -400 -402 -591 -656 -370 -494 -547 -851 -645 -1305 -54
-246 -58 -294 -55 -610 3 -295 3 -295 28 -335 l25 -40 7 210 c16 535 116 992
294 1346 198 396 509 810 926 1235 104 105 188 194 188 197 0 9 -1 8 -76 -8z
M5710 9723 c0 -4 78 -86 173 -182 337 -342 574 -635 782 -966 93 -148 212
-385 263 -525 109 -296 174 -682 189 -1107 3 -106 10 -190 15 -187 4 3 17 24
28 47 18 37 20 62 20 277 0 245 -7 330 -41 515 -58 307 -105 458 -231 735 -91
200 -346 595 -517 800 -207 248 -446 509 -494 538 -47 29 -187 70 -187 55z
M5072 7988 c-73 -11 -207 -56 -287 -96 -203 -102 -346 -248 -416 -426 -25 -63
-28 -84 -29 -187 0 -89 4 -129 19 -172 53 -155 181 -302 331 -385 68 -37 187
-76 305 -99 128 -25 521 -25 650 0 128 26 237 61 335 110 123 61 240 178 301
302 l44 90 3 131 c3 111 1 139 -17 189 -96 273 -410 487 -786 534 -108 14
-383 19 -453 9z m441 -173 c124 -19 260 -64 357 -118 105 -59 211 -165 252
-253 30 -64 33 -77 33 -169 0 -92 -3 -106 -32 -168 -117 -246 -462 -402 -853
-384 -340 16 -630 168 -733 384 -29 62 -32 76 -32 168 0 92 3 105 33 169 41
88 147 194 252 253 199 112 470 156 723 118z M1743 6425 c-209 -59 -387 -261
-491 -556 -200 -570 -43 -1306 334 -1559 130 -87 258 -110 385 -70 35 10 64
18 65 17 1 -1 10 -56 18 -122 198 -1458 1000 -2708 2081 -3240 179 -88 290
-132 452 -179 279 -81 530 -112 827 -103 276 8 497 48 755 133 1092 364 1978
1440 2326 2826 50 198 84 376 110 563 9 66 18 121 19 122 1 1 30 -7 65 -17
240 -75 495 79 653 395 333 662 93 1656 -432 1791 -76 19 -173 15 -238 -11
-48 -20 -50 -28 -21 -90 33 -71 93 -119 174 -139 148 -37 244 -122 319 -279
82 -173 92 -231 103 -586 6 -226 -1 -288 -48 -433 -68 -210 -189 -365 -312
-403 -27 -8 -90 -17 -140 -21 -60 -4 -106 -14 -131 -26 -57 -29 -189 -166
-222 -229 -34 -68 -68 -220 -114 -524 -39 -253 -86 -388 -290 -835 -201 -441
-204 -448 -311 -608 -187 -279 -308 -419 -527 -611 -481 -420 -927 -642 -1457
-726 -156 -25 -472 -31 -639 -11 -538 62 -1034 291 -1511 698 -171 147 -409
429 -569 677 -73 111 -239 413 -292 527 -162 354 -281 739 -363 1174 -46 245
-56 267 -168 378 -88 88 -130 108 -243 117 -103 9 -147 24 -212 71 -95 70
-175 199 -234 376 -28 82 -28 85 -32 395 -4 365 2 403 89 581 97 197 172 262
356 311 23 6 56 24 74 38 32 27 79 113 79 144 0 44 -188 72 -287 44z M3857
5316 c-99 -36 -166 -112 -187 -211 -7 -34 -10 -164 -8 -362 l3 -308 28 -57
c87 -177 304 -212 444 -73 80 80 83 99 83 470 0 371 -3 390 -83 470 -79 78
-184 105 -280 71z m103 -547 l0 -280 -22 3 -23 3 -3 278 -2 277 25 0 25 0 0
-281z M6620 5313 c-66 -24 -144 -107 -164 -173 -23 -76 -23 -651 -1 -726 30
-103 130 -183 239 -191 120 -10 220 46 273 155 l28 57 0 340 c0 324 -1 342
-21 385 -30 65 -70 107 -128 137 -65 33 -161 40 -226 16z m118 -540 c-3 -255
-4 -278 -20 -281 -17 -3 -18 15 -18 277 0 275 0 281 20 281 20 0 20 -5 18
-277z M4959 3646 c-112 -40 -181 -141 -181 -263 0 -114 74 -221 180 -257 38
-13 103 -16 372 -16 364 0 385 3 458 66 89 76 120 213 73 320 -27 59 -61 97
-121 132 l-45 27 -350 2 c-269 2 -358 0 -386 -11z m674 -201 c35 -9 50 -37 42
-76 -14 -61 -28 -64 -351 -64 -282 0 -294 1 -321 21 -20 15 -29 31 -31 57 -4
42 14 55 92 68 59 9 528 4 569 -6z M4140 2541 c-113 -36 -200 -152 -200 -266
0 -99 70 -204 169 -254 224 -114 612 -233 901 -278 159 -24 481 -24 640 0 128
20 321 64 450 103 114 35 360 129 441 170 185 92 234 294 108 438 -54 61 -108
88 -189 93 -71 5 -78 4 -253 -71 -349 -148 -718 -221 -996 -196 -241 20 -546
102 -806 216 -114 49 -205 65 -265 45z m337 -286 c196 -74 427 -137 588 -161
145 -21 389 -21 530 1 194 29 387 83 630 177 137 53 225 69 263 49 31 -16 29
-71 -3 -109 -62 -74 -434 -206 -725 -257 -329 -57 -495 -57 -875 0 -141 21
-477 127 -620 195 -110 53 -127 68 -129 115 -3 88 91 86 341 -10z"/>
</g>
</svg>
