<?xml version="1.0" standalone="no"?>
<!DOCTYPE svg PUBLIC "-//W3C//DTD SVG 20010904//EN"
 "http://www.w3.org/TR/2001/REC-SVG-20010904/DTD/svg10.dtd">
<svg version="1.0" xmlns="http://www.w3.org/2000/svg"
 width="2048.000000pt" height="2048.000000pt" viewBox="0 0 2048.000000 2048.000000"
 preserveAspectRatio="xMidYMid meet">
<metadata>
Created by potrace 1.13, written by Peter Selinger 2001-2015
</metadata>
<g transform="translate(0.000000,2048.000000) scale(0.192120,-0.192120)"
fill="#000000" stroke="none">
<path d="M5108 10315 c-333 -46 -625 -183 -838 -395 -121 -119 -212 -259 -254
-387 -16 -47 -21 -53 -46 -53 -51 0 -273 -41 -405 -75 -660 -171 -1280 -561
-1709 -1075 -433 -520 -731 -1223 -796 -1880 -16 -164 -14 -498 5 -673 62
-588 251 -1148 579 -1716 l71 -123 12 157 c20 263 70 511 154 765 252 768 715
1312 1275 1499 156 52 280 72 514 81 229 10 322 20 465 51 297 64 574 206 783
404 170 160 328 403 389 597 10 32 20 58 23 58 3 0 13 -31 23 -68 25 -98 95
-245 169 -358 237 -362 610 -588 1088 -659 56 -9 199 -20 318 -25 246 -10 375
-31 534 -86 455 -159 845 -531 1120 -1069 203 -398 319 -792 351 -1199 l12
-148 71 123 c327 568 517 1131 579 1716 18 174 21 510 5 674 -55 560 -287
1173 -627 1656 -218 310 -518 606 -833 819 -425 288 -936 484 -1431 549 l-46
6 -32 84 c-103 273 -373 523 -707 655 -237 95 -551 131 -816 95z m482 -291
c241 -40 486 -153 633 -292 40 -39 50 -85 21 -96 -10 -4 -95 -22 -191 -42
-167 -33 -401 -99 -515 -145 -89 -36 -171 -59 -211 -59 -22 0 -124 29 -230 66
-201 68 -347 108 -532 144 -137 27 -175 42 -175 70 0 27 66 89 165 156 283
188 659 260 1035 198z m-1204 -535 c248 -24 572 -109 832 -219 l114 -49 91 41
c355 157 777 253 1027 233 83 -7 90 -9 90 -29 0 -62 91 -181 157 -207 14 -5
82 -23 152 -40 259 -63 753 -266 1006 -412 446 -258 815 -619 1071 -1049 166
-280 281 -563 376 -928 l32 -125 4 -535 c2 -369 0 -557 -8 -605 -36 -224 -157
-679 -210 -792 -21 -47 -34 -63 -49 -63 -28 0 -45 29 -95 166 -150 414 -326
743 -543 1014 -92 116 -300 323 -398 397 -189 143 -355 233 -546 296 -159 54
-295 76 -558 92 -264 16 -342 26 -484 61 -234 59 -439 169 -600 323 -85 81
-145 163 -227 306 -97 169 -173 260 -252 301 -26 14 -38 14 -71 4 -52 -15
-187 -150 -241 -240 -128 -213 -238 -342 -380 -449 -158 -118 -323 -196 -523
-245 -142 -36 -221 -45 -483 -61 -264 -15 -383 -35 -561 -95 -620 -206 -1133
-795 -1421 -1630 -76 -221 -80 -230 -98 -230 -51 0 -107 143 -199 507 -88 347
-91 375 -91 903 0 547 4 581 112 925 160 509 402 911 772 1281 292 291 655
527 1041 678 66 26 150 61 186 77 115 51 280 106 403 133 141 32 171 43 219
85 37 33 87 124 87 160 0 16 8 21 43 24 84 7 115 7 223 -4z M3308 5596 c-49
-13 -63 -21 -116 -70 -59 -54 -77 -100 -77 -196 0 -100 19 -144 85 -204 82
-74 59 -71 600 -71 473 0 486 1 531 21 177 82 220 313 84 449 -21 21 -59 47
-84 59 -45 20 -60 21 -511 23 -353 2 -476 -1 -512 -11z m852 -271 c0 -13 -44
-15 -362 -13 -278 2 -362 6 -366 16 -3 9 74 12 362 12 320 0 366 -2 366 -15z
M6355 5592 c-68 -24 -107 -53 -144 -108 -107 -163 -18 -383 172 -424 36 -8
195 -10 507 -8 506 3 489 1 570 74 66 60 85 104 85 204 0 100 -19 144 -85 204
-81 73 -62 71 -585 73 -427 3 -475 1 -520 -15z m863 -264 c-4 -10 -88 -14
-366 -16 -318 -2 -362 0 -362 13 0 13 46 15 366 15 288 0 365 -3 362 -12z
M3825 4747 c-27 -13 -67 -43 -88 -67 -72 -78 -72 -79 -75 -428 -2 -203 1 -331
8 -366 23 -110 113 -197 226 -218 114 -21 228 35 288 142 l31 55 0 350 c0 336
-1 352 -21 396 -46 100 -127 151 -244 157 -63 2 -83 -1 -125 -21z M6625 4757
c-92 -35 -155 -108 -175 -200 -8 -35 -10 -160 -8 -372 l3 -320 31 -55 c114
-202 401 -191 498 19 20 44 21 60 21 391 0 385 1 380 -72 460 -54 60 -121 90
-203 89 -36 0 -79 -6 -95 -12z M9460 4723 c0 -47 -45 -303 -79 -452 -17 -73
-31 -143 -31 -156 0 -33 39 -155 50 -155 25 0 77 242 89 413 9 128 -2 354 -19
371 -7 7 -10 0 -10 -21z M1179 4728 c0 -7 -4 -65 -9 -128 -9 -130 2 -316 26
-435 21 -102 52 -205 63 -205 12 0 43 86 48 134 3 26 -7 91 -26 174 -33 137
-81 405 -81 448 0 24 -19 35 -21 12z M1336 3920 c-102 -40 -172 -146 -170
-260 1 -78 19 -123 71 -180 84 -95 215 -117 332 -59 72 36 113 85 136 162 31
106 9 194 -68 272 -83 83 -194 107 -301 65z M9120 3923 c-68 -25 -145 -106
-166 -178 -41 -143 32 -291 169 -342 18 -6 61 -12 97 -12 82 -1 149 29 203 89
52 57 70 102 71 180 3 194 -188 328 -374 263z M1738 3448 c-49 -13 -48 -25 5
-38 97 -26 88 -17 108 -113 86 -416 276 -904 492 -1267 167 -279 318 -472 557
-710 277 -278 529 -459 875 -630 362 -179 681 -275 1105 -332 135 -18 215 -22
440 -22 280 -1 383 7 615 45 566 94 1114 337 1560 694 223 177 515 495 688
746 284 411 516 958 621 1459 20 94 25 106 47 112 13 3 47 13 74 21 l50 14
-30 13 c-16 7 -55 13 -85 14 -46 1 -62 -4 -96 -29 -74 -52 -96 -105 -139 -319
-37 -181 -112 -389 -222 -616 -52 -107 -117 -240 -143 -295 -112 -231 -323
-518 -510 -692 -36 -33 -87 -82 -115 -107 -426 -398 -903 -661 -1445 -796
-249 -63 -408 -86 -682 -100 -979 -49 -1870 285 -2558 961 -151 148 -389 458
-479 624 -18 33 -39 67 -46 75 -18 21 -156 299 -206 415 -54 128 -139 371
-179 515 -69 251 -75 266 -119 313 -51 55 -99 67 -183 45z M4972 3095 c-136
-43 -218 -179 -192 -317 12 -61 56 -131 108 -171 70 -54 108 -58 464 -55 304
3 326 4 369 24 177 82 218 314 81 451 -19 20 -56 45 -81 57 -44 20 -63 21
-376 23 -257 2 -340 -1 -373 -12z m416 -272 c-32 -2 -86 -2 -120 0 -35 2 -9 3
57 3 66 0 94 -1 63 -3z M4447 2269 c-93 -15 -163 -73 -208 -174 -27 -61 -23
-159 9 -221 74 -144 343 -262 727 -316 139 -20 601 -17 748 5 285 43 527 133
634 236 86 83 110 227 55 332 -33 63 -103 121 -169 139 -66 19 -154 8 -209
-27 -174 -108 -354 -146 -704 -146 -286 0 -493 33 -620 97 -25 13 -67 35 -95
49 -59 30 -102 36 -168 26z"/>
</g>
</svg>
