<?xml version="1.0" standalone="no"?>
<!DOCTYPE svg PUBLIC "-//W3C//DTD SVG 20010904//EN"
 "http://www.w3.org/TR/2001/REC-SVG-20010904/DTD/svg10.dtd">
<svg version="1.0" xmlns="http://www.w3.org/2000/svg"
 width="2048.000000pt" height="2048.000000pt" viewBox="0 0 2048.000000 2048.000000"
 preserveAspectRatio="xMidYMid meet">
<metadata>
Created by potrace 1.13, written by Peter Selinger 2001-2015
</metadata>
<g transform="translate(0.000000,2048.000000) scale(0.192120,-0.192120)"
fill="#000000" stroke="none">
<path d="M3867 10200 c-628 -56 -1207 -297 -1719 -712 -62 -51 -176 -155 -253
-232 -844 -847 -1284 -2188 -1285 -3916 0 -620 -38 -1609 -101 -2625 -38 -625
-126 -1817 -164 -2218 -8 -86 -15 -159 -15 -162 0 -3 250 -5 555 -5 l555 0 0
183 c0 264 20 413 82 607 79 248 215 469 407 660 149 148 268 235 446 326 72
36 121 64 110 61 -45 -12 -126 -27 -225 -42 -149 -23 -216 -57 -359 -187 -170
-155 -264 -279 -383 -505 -118 -225 -183 -471 -204 -770 -6 -87 -9 -102 -25
-106 -14 -4 -19 -14 -19 -41 l0 -36 -384 0 -384 0 -6 22 c-14 54 -4 366 24
716 120 1528 181 2678 200 3767 11 703 17 862 36 1090 49 593 162 1154 321
1600 202 566 484 1049 826 1411 212 224 358 348 591 503 240 160 588 326 776
372 149 37 428 86 556 99 268 26 636 51 834 57 118 3 216 7 218 8 5 4 -216 45
-328 60 -136 19 -542 27 -683 15z M6235 10199 c-107 -10 -380 -53 -430 -68
-21 -7 10 -10 110 -10 189 -2 831 -47 1015 -72 250 -34 550 -105 699 -165 262
-105 603 -313 842 -513 108 -90 261 -247 334 -341 28 -36 74 -92 104 -125 30
-33 68 -76 85 -95 46 -51 105 -133 166 -230 428 -681 675 -1519 760 -2580 6
-69 17 -462 25 -875 17 -897 41 -1500 90 -2288 8 -131 15 -307 15 -391 0 -133
50 -906 80 -1231 5 -60 10 -251 10 -422 l0 -313 -385 0 -385 0 0 35 c0 22 -6
38 -15 41 -10 4 -15 21 -15 53 0 130 -40 376 -87 531 -44 151 -180 424 -269
544 -84 114 -231 265 -313 324 -34 25 -93 56 -129 69 -55 20 -322 83 -352 83
-6 0 43 -27 107 -60 402 -207 709 -564 841 -980 62 -194 82 -343 82 -607 l0
-183 555 0 c305 0 555 3 555 8 0 4 -7 77 -15 162 -80 853 -191 2515 -229 3460
-24 570 -27 674 -36 1295 -11 696 -25 913 -86 1330 -213 1452 -810 2514 -1759
3127 -392 253 -784 400 -1255 469 -157 23 -555 33 -715 18z M5030 9975 c-425
-53 -815 -174 -1220 -381 -252 -128 -446 -255 -693 -451 -98 -78 -136 -103
-158 -103 -84 0 -169 -83 -169 -166 0 -16 -33 -63 -98 -142 -172 -206 -272
-345 -384 -532 -302 -502 -489 -1074 -564 -1720 -33 -289 -39 -1223 -13 -1965
44 -1278 222 -2000 531 -2154 55 -28 71 -31 152 -31 218 0 428 56 1021 270
315 114 504 176 675 223 l122 33 -73 44 c-583 346 -1078 1018 -1332 1807 -146
451 -228 1031 -183 1278 59 317 171 479 546 785 231 190 362 312 705 663 165
169 303 307 306 307 3 0 60 -30 125 -67 159 -90 491 -246 694 -326 463 -182
790 -260 1170 -277 279 -13 346 -18 480 -41 563 -95 1003 -359 1214 -729 130
-229 164 -408 132 -708 -67 -625 -250 -1194 -541 -1677 -264 -440 -608 -798
-974 -1015 l-74 -44 107 -28 c171 -44 350 -103 676 -220 642 -232 818 -278
1050 -278 185 0 290 39 386 143 149 161 226 482 263 1103 21 329 33 1173 29
1954 -4 675 -7 828 -22 949 -71 605 -238 1147 -495 1606 -130 232 -252 408
-446 640 -55 66 -98 126 -97 133 6 24 -20 83 -51 118 -37 43 -76 64 -119 64
-28 0 -56 18 -151 94 -612 489 -1265 769 -1969 845 -129 14 -427 12 -558 -4z
m571 -295 c327 -32 715 -142 1052 -299 83 -38 88 -42 85 -68 -3 -27 -6 -28
-83 -39 -274 -39 -1144 -61 -1779 -45 -414 10 -757 28 -903 47 -49 6 -53 9
-53 34 0 32 24 47 206 123 299 126 644 218 914 246 122 12 440 13 561 1z
m-2383 -609 c1014 -170 3172 -172 4190 -5 84 14 160 28 168 31 10 4 81 -61
220 -200 112 -113 204 -210 204 -216 0 -20 -285 -93 -531 -136 -570 -100
-1133 -144 -1959 -152 -933 -9 -1611 34 -2265 143 -205 34 -563 119 -582 138
-16 16 401 430 424 422 8 -3 66 -14 131 -25z m-315 -770 c718 -159 1730 -235
2795 -211 815 20 1394 76 1964 191 310 62 299 65 416 -111 251 -378 427 -828
527 -1345 47 -246 47 -211 43 -1890 -4 -1725 -1 -1631 -59 -1930 -45 -233
-110 -350 -211 -380 -161 -48 -426 3 -902 172 -398 141 -406 145 -406 185 0
24 18 48 94 126 559 577 936 1383 1071 2287 10 68 15 180 15 348 0 282 -7 325
-81 503 -81 195 -177 334 -353 509 -231 230 -492 378 -846 480 -218 63 -396
88 -740 105 -113 5 -249 17 -303 25 -392 59 -827 211 -1363 476 -121 59 -247
115 -280 124 -139 36 -210 -11 -594 -389 -359 -355 -425 -416 -610 -571 -408
-341 -570 -559 -660 -885 -18 -67 -20 -103 -20 -355 0 -249 3 -298 25 -438
133 -852 509 -1637 1064 -2219 61 -65 111 -123 111 -129 0 -29 -58 -57 -315
-149 -520 -185 -772 -244 -897 -210 -161 45 -275 383 -352 1043 -46 391 -48
453 -44 1712 l3 1190 28 155 c53 299 142 619 229 828 153 369 379 742 468 775
27 10 49 7 183 -22z M4105 6136 c-68 -31 -130 -101 -149 -167 -23 -75 -22
-374 0 -449 21 -72 98 -150 173 -175 101 -33 232 1 296 77 64 76 70 103 70
328 0 203 0 206 -27 255 -54 102 -138 154 -248 155 -47 0 -79 -7 -115 -24z
M6325 6136 c-56 -26 -116 -87 -142 -143 -25 -56 -31 -379 -9 -457 45 -154 207
-240 357 -191 75 25 152 103 173 175 22 75 23 374 0 449 -45 153 -233 236
-379 167z M5163 4769 c-43 -9 -80 -36 -97 -74 -22 -45 -20 -80 5 -125 37 -65
54 -70 259 -70 205 0 222 5 259 70 25 45 27 80 5 126 -31 65 -63 75 -243 77
-88 1 -173 -1 -188 -4z M4516 3966 c-145 -54 -145 -198 2 -309 319 -242 796
-316 1237 -191 100 28 248 95 322 144 61 42 140 117 159 152 52 99 -35 214
-162 212 -46 0 -64 -8 -162 -67 -190 -116 -302 -157 -483 -177 -237 -26 -453
31 -700 186 -97 61 -150 73 -213 50z m811 -459 c-2 -23 -3 -1 -3 48 0 50 1 68
3 42 2 -26 2 -67 0 -90z M3400 2333 c-63 -7 -164 -22 -225 -32 l-110 -19 307
-1 c262 -1 307 1 302 13 -8 21 -62 44 -114 48 -25 3 -97 -1 -160 -9z M7075
2343 c-36 -9 -83 -34 -89 -49 -5 -12 41 -14 306 -14 171 0 309 2 307 4 -2 2
-85 16 -184 30 -185 26 -305 37 -340 29z M3665 2228 c-3 -24 -5 -334 -3 -691
l3 -647 1665 -1 1665 0 3 648 c2 356 0 667 -3 691 l-6 42 -402 -1 c-221 -1
-392 -4 -379 -6 12 -2 22 -10 22 -17 0 -19 97 -26 358 -26 l222 0 0 -585 0
-585 -1490 0 -1490 0 0 584 0 585 295 3 c260 3 296 5 307 20 7 9 22 18 33 21
11 3 -163 5 -387 6 l-407 1 -6 -42z"/>
</g>
</svg>
