<?xml version="1.0" standalone="no"?>
<!DOCTYPE svg PUBLIC "-//W3C//DTD SVG 20010904//EN"
 "http://www.w3.org/TR/2001/REC-SVG-20010904/DTD/svg10.dtd">
<svg version="1.0" xmlns="http://www.w3.org/2000/svg"
 width="2048.000000pt" height="2048.000000pt" viewBox="0 0 2048.000000 2048.000000"
 preserveAspectRatio="xMidYMid meet">
<metadata>
Created by potrace 1.13, written by Peter Selinger 2001-2015
</metadata>
<g transform="translate(0.000000,2048.000000) scale(0.192120,-0.192120)"
fill="#000000" stroke="none">
<path d="M5020 10038 c-485 -45 -1007 -216 -1418 -465 -734 -445 -1306 -1140
-1659 -2018 -123 -305 -236 -690 -284 -968 -9 -57 -14 -67 -28 -61 -143 61
-238 75 -345 50 -391 -92 -676 -618 -676 -1246 0 -545 217 -1024 540 -1194
160 -84 315 -86 476 -6 66 33 74 36 74 19 0 -10 20 -97 44 -193 451 -1772
1652 -3058 3087 -3305 281 -48 655 -53 929 -12 1313 199 2433 1243 2996 2793
64 175 152 474 185 628 l23 106 72 -37 c215 -107 434 -65 630 124 244 233 384
625 384 1077 0 439 -136 832 -368 1065 -75 76 -145 122 -244 163 -53 22 -78
26 -163 26 -98 0 -127 -7 -246 -58 -14 -6 -20 11 -39 111 -94 491 -291 1034
-529 1458 -638 1137 -1661 1838 -2841 1945 -135 12 -464 11 -600 -2z m716
-262 c109 -16 321 -56 396 -76 27 -8 38 -16 38 -30 0 -14 11 -22 43 -30 222
-58 658 -249 869 -381 353 -220 733 -594 1000 -984 296 -432 504 -918 647
-1512 21 -87 48 -179 61 -205 27 -57 148 -176 211 -206 39 -19 62 -22 166 -22
142 0 224 -21 290 -73 135 -108 269 -329 319 -526 24 -93 25 -105 22 -391 l-4
-295 -41 -130 c-76 -242 -137 -359 -238 -454 -105 -99 -214 -127 -376 -97
-157 29 -185 21 -301 -91 -105 -102 -131 -155 -168 -337 -55 -265 -90 -359
-332 -881 -197 -424 -203 -435 -324 -616 -155 -233 -268 -375 -413 -518 -622
-613 -1200 -921 -1921 -1023 -145 -20 -583 -17 -735 5 -505 75 -986 278 -1399
589 -458 346 -772 713 -1070 1252 -218 391 -364 752 -481 1186 -53 195 -80
247 -174 341 -112 113 -144 123 -294 94 -101 -19 -160 -19 -228 1 -178 52
-322 247 -395 533 -23 90 -24 108 -24 435 0 367 4 398 57 541 75 204 190 352
323 418 62 31 70 32 221 37 l157 5 56 39 c70 48 143 128 167 182 10 22 39 126
64 230 88 366 195 665 360 999 83 168 223 413 265 462 8 10 44 59 80 108 280
390 650 734 1023 949 183 105 574 274 745 322 47 12 66 23 72 39 7 18 28 26
117 48 126 31 315 62 453 76 135 14 562 5 696 -13z M3135 7240 c-162 -13 -233
-48 -356 -173 -58 -59 -90 -102 -117 -157 -36 -73 -37 -78 -37 -190 0 -111 1
-118 34 -185 63 -128 212 -256 346 -298 68 -21 83 -22 525 -22 450 0 456 0
519 23 158 57 297 191 351 338 18 52 21 78 18 160 -3 90 -6 106 -41 178 -30
63 -55 97 -125 166 -89 89 -152 128 -243 150 -55 14 -736 22 -874 10z m883
-255 c149 -44 231 -198 188 -350 -14 -45 -29 -69 -70 -110 -85 -85 -82 -85
-611 -85 -528 0 -526 0 -610 83 -151 152 -95 388 108 458 47 17 96 18 498 19
371 0 454 -3 497 -15z M6745 7240 c-153 -12 -238 -53 -352 -168 -64 -66 -102
-118 -132 -186 -20 -43 -22 -61 -19 -175 3 -114 6 -131 31 -183 57 -116 197
-238 330 -287 l72 -26 450 0 c409 0 456 2 518 19 78 21 161 72 232 142 112
109 155 205 155 345 0 144 -49 247 -177 370 -149 143 -175 150 -643 154 -201
2 -410 0 -465 -5z m927 -273 c177 -87 212 -304 73 -444 -84 -83 -82 -83 -610
-83 -529 0 -526 0 -611 85 -41 41 -56 65 -70 110 -43 149 33 296 178 346 49
17 88 19 518 16 l465 -2 57 -28z M3990 5911 c-14 -5 -179 -85 -367 -179 -243
-122 -352 -182 -379 -208 -106 -106 -105 -282 1 -389 55 -54 116 -79 197 -80
66 0 67 0 428 180 324 161 367 185 406 228 96 107 97 254 2 362 -56 63 -124
95 -203 94 -33 0 -71 -4 -85 -8z m78 -276 c10 -10 -24 -47 -74 -80 -58 -39
-410 -214 -441 -219 -89 -17 -100 -17 -113 0 -13 14 -11 19 10 36 31 25 422
222 505 254 51 20 99 24 113 9z M6475 5897 c-93 -44 -165 -154 -165 -252 0
-61 29 -132 74 -182 39 -43 82 -67 406 -228 361 -180 362 -180 428 -180 81 1
142 26 197 80 106 107 107 283 1 389 -27 26 -138 87 -389 213 -349 175 -353
176 -427 180 -64 3 -83 0 -125 -20z m227 -271 c89 -33 469 -224 496 -249 42
-38 22 -60 -45 -50 -21 3 -50 12 -65 20 -16 7 -28 11 -28 8 0 -7 -310 148
-390 196 -72 43 -101 76 -78 90 21 14 43 11 110 -15z M4964 3928 c-17 -6 -53
-27 -80 -47 -163 -123 -135 -379 51 -467 50 -24 53 -24 395 -24 342 0 345 0
395 24 206 98 211 393 8 496 l-48 25 -345 2 c-214 1 -357 -3 -376 -9z m674
-209 c49 -17 54 -76 10 -116 -18 -16 -45 -18 -287 -21 -146 -2 -284 -1 -307 3
-55 8 -84 36 -84 81 0 59 21 63 351 64 181 0 297 -4 317 -11z M3955 2746 c-56
-26 -116 -87 -141 -143 -40 -91 -12 -232 59 -301 94 -90 580 -268 923 -337
374 -76 713 -76 1075 1 333 70 800 237 898 321 60 50 95 131 94 212 0 78 -19
125 -71 183 -52 58 -121 88 -202 88 -55 0 -81 -7 -170 -46 -482 -209 -902
-293 -1280 -254 -265 27 -555 108 -881 246 -151 64 -218 71 -304 30z m310
-245 c278 -109 536 -184 748 -218 154 -24 479 -24 630 0 212 34 415 91 687
194 241 91 330 97 330 20 0 -66 -44 -99 -220 -169 -190 -76 -482 -162 -615
-183 -22 -3 -87 -13 -145 -23 -78 -12 -167 -17 -350 -17 -235 0 -282 4 -496
41 -146 25 -445 113 -624 184 -158 63 -214 101 -226 153 -5 25 -2 34 17 50 38
31 131 20 264 -32z M3470 9633 c-581 -97 -1082 -276 -1429 -508 -457 -305
-697 -699 -776 -1275 -25 -180 -31 -535 -12 -645 29 -161 92 -319 180 -449 37
-55 41 -58 53 -41 24 32 15 123 -27 298 l-40 169 4 356 c4 392 8 428 78 645
82 255 268 526 478 696 181 148 468 307 720 401 82 30 246 102 461 200 74 34
185 82 245 107 135 55 139 59 65 46z M7250 9591 c63 -27 219 -94 345 -151 127
-56 289 -125 360 -152 176 -67 448 -202 569 -283 190 -127 368 -300 473 -459
96 -146 176 -345 224 -556 20 -85 23 -132 26 -445 l5 -351 -42 -149 c-47 -170
-61 -298 -37 -329 13 -18 16 -16 54 40 88 130 162 319 184 474 15 106 6 458
-16 620 -55 399 -184 701 -411 963 -293 338 -824 611 -1474 757 -107 24 -347
70 -364 70 -6 -1 41 -22 104 -49z"/>
</g>
</svg>
