<?xml version="1.0" standalone="no"?>
<!DOCTYPE svg PUBLIC "-//W3C//DTD SVG 20010904//EN"
 "http://www.w3.org/TR/2001/REC-SVG-20010904/DTD/svg10.dtd">
<svg version="1.0" xmlns="http://www.w3.org/2000/svg"
 width="2048.000000pt" height="2048.000000pt" viewBox="0 0 2048.000000 2048.000000"
 preserveAspectRatio="xMidYMid meet">
<metadata>
Created by potrace 1.13, written by Peter Selinger 2001-2015
</metadata>
<g transform="translate(0.000000,2048.000000) scale(0.192120,-0.192120)"
fill="#000000" stroke="none">
<path d="M5108 10315 c-333 -46 -625 -183 -838 -395 -121 -119 -212 -259 -254
-387 -16 -47 -21 -53 -46 -53 -51 0 -273 -41 -405 -75 -660 -171 -1280 -561
-1709 -1075 -433 -520 -731 -1223 -796 -1880 -16 -164 -14 -498 5 -673 25
-236 88 -548 146 -726 l22 -64 -21 -86 c-75 -312 -61 -646 38 -937 l28 -82
-28 -21 c-16 -11 -41 -46 -57 -78 -22 -47 -28 -71 -27 -123 1 -78 19 -123 71
-180 84 -94 215 -117 330 -60 l60 30 46 -20 c25 -11 69 -25 98 -30 29 -6 54
-12 56 -14 2 -2 16 -55 30 -117 165 -742 514 -1409 993 -1903 569 -587 1257
-919 2105 -1018 167 -19 617 -16 795 6 664 81 1247 322 1750 725 128 103 352
322 465 456 398 472 692 1079 838 1734 14 62 28 115 30 117 2 2 27 8 56 14 29
5 73 19 98 30 l46 20 60 -30 c115 -57 246 -34 330 60 52 57 70 102 71 180 1
52 -5 76 -27 123 -16 32 -41 67 -57 79 l-28 20 29 85 c99 294 112 670 32 955
-15 57 -15 59 15 165 107 373 153 683 153 1044 0 397 -50 693 -182 1074 -188
544 -453 970 -841 1351 -357 351 -761 601 -1237 765 -193 67 -453 129 -642
154 l-46 6 -32 84 c-103 273 -373 523 -707 655 -237 95 -551 131 -816 95z
m482 -291 c241 -40 486 -153 633 -292 40 -39 50 -85 21 -96 -10 -4 -95 -22
-190 -41 -185 -38 -372 -91 -543 -157 -166 -63 -181 -62 -411 16 -203 70 -349
110 -535 146 -137 27 -175 42 -175 70 0 27 66 89 165 156 283 188 659 260
1035 198z m-1204 -535 c248 -24 572 -109 832 -219 l114 -49 91 41 c355 157
777 253 1027 233 83 -7 90 -9 90 -29 0 -63 90 -181 158 -207 15 -6 86 -24 157
-40 274 -61 379 -93 571 -172 582 -239 1055 -619 1391 -1118 57 -85 225 -357
271 -439 61 -108 182 -442 231 -635 54 -216 61 -295 61 -726 0 -431 -4 -478
-56 -724 -13 -66 -34 -156 -46 -200 -11 -44 -22 -116 -25 -161 -6 -92 3 -119
70 -191 l41 -45 -28 -82 c-69 -194 -239 -541 -363 -739 l-30 -48 -11 148 c-56
725 -421 1508 -897 1926 -209 183 -452 315 -690 376 -132 33 -200 41 -427 51
-119 5 -263 17 -320 25 -471 74 -834 294 -1072 650 -85 127 -135 239 -193 425
-2 8 -15 -19 -29 -60 -111 -329 -398 -657 -725 -830 -264 -138 -497 -193 -898
-210 -236 -10 -300 -18 -436 -55 -175 -48 -347 -130 -505 -243 -105 -75 -297
-259 -382 -367 -253 -323 -445 -735 -553 -1189 -44 -184 -63 -307 -78 -494
l-12 -153 -67 113 c-126 212 -263 498 -329 690 l-23 66 52 56 c29 30 57 67 62
81 17 44 11 135 -16 250 -93 400 -94 410 -94 935 0 547 4 580 112 925 267 854
841 1531 1613 1905 249 120 473 197 744 255 183 39 213 50 264 94 37 33 87
124 87 160 0 16 8 21 43 24 84 7 115 7 223 -4z m955 -2420 c11 -5 44 -43 73
-83 135 -182 320 -352 488 -448 32 -18 58 -40 58 -49 0 -10 35 -32 98 -62 140
-66 191 -84 342 -121 173 -44 250 -54 495 -66 275 -14 392 -34 556 -93 99 -36
176 -72 242 -114 21 -13 42 -21 47 -18 25 16 255 -185 374 -327 82 -97 210
-280 289 -413 80 -135 256 -545 298 -693 16 -59 46 -190 65 -292 20 -102 45
-214 56 -249 24 -79 21 -110 -25 -231 -19 -52 -43 -124 -53 -160 -23 -84 -36
-110 -94 -184 -76 -98 -84 -121 -130 -354 -28 -144 -85 -321 -148 -464 -34
-74 -244 -468 -272 -507 -10 -14 -48 -73 -86 -131 -393 -610 -993 -1056 -1704
-1269 -827 -248 -1766 -165 -2507 219 -549 286 -959 683 -1300 1260 -38 64
-140 274 -188 385 -62 147 -145 395 -195 585 -47 178 -62 213 -128 295 -49 62
-71 117 -92 232 -6 35 -24 95 -40 135 -34 83 -37 117 -15 179 9 24 29 118 45
209 49 276 85 423 140 585 142 409 341 746 590 996 106 107 272 238 278 221 2
-6 51 14 110 43 204 101 374 139 694 155 246 12 367 28 528 71 202 54 450 162
450 198 0 9 25 30 58 49 139 80 325 247 472 426 54 65 82 90 108 95 2 1 12 -4
23 -10z m-3775 -3157 c87 -44 154 -154 154 -252 0 -51 -26 -120 -59 -160 l-28
-34 -51 36 c-27 20 -68 46 -90 57 -58 29 -106 79 -131 133 -11 26 -21 52 -21
58 0 6 -12 38 -26 72 -22 53 -24 63 -11 75 46 46 186 54 263 15z m7766 1 c18
-11 32 -26 31 -34 -2 -14 -45 -148 -65 -201 -15 -39 -54 -78 -107 -106 -25
-14 -72 -43 -105 -66 l-58 -41 -29 34 c-119 143 -44 372 141 432 43 14 155 4
192 -18z M3350 5780 c-145 -26 -269 -121 -344 -263 -35 -67 -36 -71 -36 -183
0 -106 2 -120 30 -180 20 -45 49 -84 90 -125 101 -99 180 -129 360 -136 109
-5 142 -2 251 21 148 31 309 35 432 11 125 -24 183 -20 256 16 88 44 163 119
203 204 31 67 33 76 33 185 0 112 -1 117 -36 190 -68 141 -198 238 -345 260
-81 11 -828 11 -894 0z m986 -197 c92 -49 147 -126 160 -224 14 -102 -48 -217
-146 -273 l-55 -31 -468 -3 c-534 -3 -539 -3 -622 70 -129 113 -129 303 0 416
81 72 80 71 615 69 468 -2 476 -2 516 -24z M6400 5779 c-132 -22 -278 -134
-338 -262 -30 -63 -32 -74 -32 -181 0 -154 19 -206 111 -298 119 -121 204
-146 384 -113 129 23 284 19 437 -11 114 -23 150 -26 253 -21 160 7 235 33
327 116 106 95 138 171 138 327 0 105 -2 113 -35 183 -67 139 -196 237 -345
260 -79 13 -822 12 -900 0z m957 -184 c30 -9 69 -32 98 -57 128 -113 128 -303
0 -416 -81 -71 -89 -72 -589 -72 -243 0 -458 3 -479 6 -59 10 -138 63 -174
117 -105 157 -36 358 144 423 59 20 929 20 1000 -1z M3825 4747 c-27 -13 -67
-43 -88 -67 -73 -80 -72 -75 -72 -460 0 -330 1 -347 21 -391 66 -143 237 -204
377 -136 60 30 95 65 130 131 21 40 22 49 22 391 0 336 -1 352 -21 396 -46
100 -127 151 -244 157 -63 2 -83 -1 -125 -21z m133 -536 l2 -282 -22 3 -23 3
-3 274 c-2 277 0 298 33 288 6 -2 11 -109 13 -286z M6625 4757 c-92 -35 -155
-108 -175 -200 -8 -35 -10 -160 -8 -372 3 -307 4 -322 25 -361 35 -66 70 -101
130 -131 141 -69 310 -8 377 136 20 44 21 60 21 391 0 385 1 380 -72 460 -54
60 -121 90 -203 89 -36 0 -79 -6 -95 -12z m110 -543 c0 -257 -1 -279 -17 -282
-17 -3 -18 15 -18 276 0 153 3 282 7 286 24 24 28 -14 28 -280z M4962 3091
c-114 -39 -184 -139 -184 -261 0 -110 62 -207 162 -254 43 -20 60 -21 390 -21
330 0 347 1 391 21 214 99 214 409 0 508 -44 20 -64 21 -376 23 -299 3 -335 1
-383 -16z m661 -202 c64 -18 72 -89 14 -125 -29 -17 -54 -19 -292 -19 -143 0
-277 4 -298 8 -51 11 -77 39 -77 82 0 19 1 35 3 35 1 0 20 7 42 15 49 17 547
21 608 4z M4412 2344 c-87 -23 -152 -75 -211 -168 -30 -49 -31 -52 -31 -174 0
-121 1 -126 33 -186 98 -185 300 -288 706 -358 172 -30 632 -33 811 -5 239 37
465 110 578 184 64 43 134 126 167 200 22 47 25 67 25 169 0 111 -1 119 -32
176 -35 66 -88 116 -157 150 -38 19 -62 23 -141 23 -91 -1 -99 -2 -185 -44
-180 -87 -339 -115 -645 -115 -300 1 -460 26 -619 100 -78 36 -176 64 -221 63
-14 0 -49 -7 -78 -15z m196 -93 c21 -10 57 -30 82 -44 119 -68 352 -107 640
-107 286 0 526 40 635 105 101 61 139 75 205 75 207 -1 338 -216 246 -403 -77
-159 -394 -289 -801 -328 -180 -17 -578 -6 -730 20 -352 62 -601 187 -649 327
-22 64 -20 158 3 210 36 80 111 143 196 165 43 12 131 2 173 -20z"/>
</g>
</svg>
