<?xml version="1.0" standalone="no"?>
<!DOCTYPE svg PUBLIC "-//W3C//DTD SVG 20010904//EN"
 "http://www.w3.org/TR/2001/REC-SVG-20010904/DTD/svg10.dtd">
<svg version="1.0" xmlns="http://www.w3.org/2000/svg"
 width="2048.000000pt" height="2048.000000pt" viewBox="0 0 2048.000000 2048.000000"
 preserveAspectRatio="xMidYMid meet">
<metadata>
Created by potrace 1.13, written by Peter Selinger 2001-2015
</metadata>
<g transform="translate(0.000000,2048.000000) scale(0.192120,-0.192120)"
fill="#000000" stroke="none">
<path d="M5025 10039 c-367 -32 -828 -160 -1134 -313 -52 -26 -93 -38 -181
-51 -711 -103 -1283 -292 -1669 -550 -457 -305 -697 -699 -776 -1275 -25 -180
-31 -535 -12 -645 38 -213 130 -405 287 -599 43 -53 95 -95 105 -84 2 2 15 66
30 143 114 593 362 1207 690 1705 317 482 756 915 1183 1167 l92 54 108 3
c100 3 118 6 272 58 536 181 891 248 1315 248 416 0 722 -58 1285 -242 175
-58 191 -61 292 -63 107 -2 107 -2 180 -45 239 -141 442 -302 678 -539 255
-255 438 -489 620 -791 281 -468 499 -1040 601 -1580 11 -63 22 -116 24 -118
10 -11 62 31 105 84 119 147 191 275 245 437 50 150 59 236 52 482 -10 314
-45 534 -122 754 -260 743 -992 1187 -2285 1387 -153 23 -185 31 -250 64 -316
158 -751 276 -1145 310 -140 12 -446 11 -590 -1z m-2045 -749 c0 -21 -84 -123
-175 -210 -31 -30 -96 -100 -144 -155 -440 -503 -778 -1129 -971 -1800 -56
-194 -70 -229 -97 -240 -28 -10 -87 64 -125 158 l-33 82 -3 382 c-2 351 -1
390 18 481 62 308 192 548 406 752 191 183 423 324 724 443 121 47 318 113
360 120 14 2 28 5 33 6 4 0 7 -8 7 -19z m4825 -11 c725 -223 1173 -584 1339
-1079 63 -188 66 -223 66 -670 0 -407 0 -410 -24 -473 -59 -156 -99 -203 -140
-162 -8 9 -48 116 -87 238 -144 450 -266 738 -449 1057 -214 375 -416 639
-742 973 -42 43 -80 87 -83 98 -4 11 -11 17 -16 14 -5 -4 -9 2 -9 12 0 28 33
26 145 -8z M3055 6988 c-75 -11 -152 -69 -190 -142 -25 -50 -30 -71 -30 -130
0 -111 52 -192 159 -249 41 -22 45 -22 531 -22 l490 0 55 31 c201 113 193 395
-15 493 -46 22 -54 22 -499 24 -249 1 -475 -1 -501 -5z m945 -137 c68 -26 80
-46 80 -129 0 -70 -2 -76 -33 -107 -53 -53 -92 -56 -559 -53 -399 3 -415 4
-460 25 -58 27 -78 62 -78 142 0 64 9 79 62 107 56 29 118 32 538 30 319 -1
423 -5 450 -15z M6666 6988 c-143 -20 -249 -180 -216 -325 25 -113 123 -205
234 -218 28 -4 251 -5 496 -3 l445 3 51 27 c56 29 93 68 127 132 30 57 30 173
-1 232 -33 65 -69 101 -126 129 l-53 26 -455 2 c-250 1 -476 -1 -502 -5z m944
-137 c68 -27 80 -45 80 -131 0 -70 -3 -80 -26 -103 -50 -50 -66 -52 -539 -52
-430 0 -441 0 -487 22 -58 27 -78 62 -78 142 0 64 9 79 62 107 56 29 118 32
538 30 319 -1 423 -5 450 -15z M1283 6575 c-186 -42 -371 -209 -492 -443 -310
-606 -214 -1482 208 -1885 197 -188 443 -226 654 -103 l44 26 17 -86 c41 -203
151 -563 251 -815 521 -1313 1467 -2249 2583 -2555 285 -78 457 -99 792 -98
231 0 298 4 415 22 651 101 1238 392 1770 878 548 501 1003 1228 1273 2039 54
163 121 402 148 532 l17 83 44 -26 c359 -210 768 49 953 605 67 199 84 320 84
581 0 261 -17 382 -84 581 -157 472 -482 742 -797 663 -31 -8 -29 -24 9 -67
29 -32 46 -40 141 -65 118 -32 175 -68 280 -179 118 -125 241 -346 283 -510
23 -90 24 -112 24 -384 0 -320 -3 -344 -68 -544 -110 -337 -290 -541 -508
-577 -52 -9 -85 -8 -167 5 -127 21 -160 21 -203 1 -45 -21 -108 -91 -134 -149
-18 -40 -28 -78 -57 -225 -26 -132 -116 -393 -187 -542 -31 -65 -56 -120 -56
-123 0 -3 -42 -94 -93 -203 -52 -108 -100 -213 -108 -232 -49 -123 -217 -398
-356 -583 -142 -189 -195 -247 -438 -477 -299 -283 -576 -481 -890 -635 -343
-169 -617 -250 -1000 -296 -148 -18 -503 -15 -660 5 -697 92 -1306 402 -1883
960 -206 198 -521 610 -652 851 -18 33 -50 89 -70 125 -181 313 -358 753 -481
1195 -43 157 -81 246 -120 281 -72 66 -126 76 -249 49 -185 -41 -331 5 -463
145 -113 120 -183 245 -244 437 l-37 118 -4 347 c-3 341 -3 348 22 450 56 235
166 431 316 563 55 49 186 117 250 129 71 15 115 37 138 70 12 18 22 37 22 43
0 26 -151 38 -237 18z M3631 5735 c-395 -197 -406 -205 -448 -302 -21 -50 -21
-156 0 -206 47 -108 143 -172 259 -172 66 0 68 1 428 180 324 161 367 185 406
228 69 77 88 165 58 266 -33 112 -143 191 -266 191 l-68 0 -369 -185z M6475
5896 c-93 -43 -165 -153 -165 -251 0 -62 30 -136 75 -184 37 -40 93 -71 405
-226 360 -179 362 -180 428 -180 126 0 231 78 267 198 8 28 15 62 15 77 0 48
-29 126 -65 174 -34 43 -60 58 -406 231 l-369 185 -68 0 c-49 0 -80 -6 -117
-24z M4956 3924 c-61 -22 -122 -78 -152 -141 -68 -137 -9 -303 131 -369 50
-24 53 -24 395 -24 342 0 345 0 395 24 220 104 205 433 -23 510 -64 22 -686
22 -746 0z M3955 2746 c-56 -26 -116 -87 -141 -143 -27 -62 -23 -167 8 -229
48 -92 97 -123 368 -229 342 -134 680 -213 1008 -235 402 -27 902 74 1390 282
164 70 217 110 253 190 28 64 30 163 5 221 -63 144 -230 206 -381 141 -280
-120 -442 -176 -654 -224 -522 -120 -951 -61 -1621 226 -75 32 -167 32 -235 0z
m378 -330 c89 -35 180 -69 202 -76 22 -6 47 -14 55 -16 8 -3 16 -5 17 -5 2 0
18 -6 38 -15 19 -8 35 -12 35 -9 0 3 10 0 23 -6 12 -7 32 -14 44 -15 41 -5 63
-15 63 -30 0 -8 -9 -14 -20 -14 -11 0 -20 5 -20 11 0 5 -5 7 -11 4 -5 -4 -42
1 -82 11 -40 10 -80 18 -89 18 -10 -1 -18 3 -18 8 0 6 -7 8 -15 4 -8 -3 -15
-1 -15 5 0 6 -4 7 -10 4 -17 -10 -380 118 -380 135 0 4 -11 11 -25 14 -14 4
-25 13 -25 21 0 30 71 15 233 -49z m2217 52 c-1 -22 -45 -47 -162 -92 -142
-55 -247 -88 -259 -80 -5 3 -9 1 -9 -5 0 -6 -7 -8 -15 -5 -8 4 -15 2 -15 -4 0
-6 -8 -9 -17 -8 -9 2 -38 -3 -63 -11 -25 -8 -53 -12 -62 -9 -10 2 -18 0 -18
-6 0 -6 -9 -8 -20 -5 -11 3 -20 1 -20 -5 0 -5 -8 -8 -17 -6 -10 1 -24 -1 -31
-6 -7 -4 -20 -5 -29 -2 -30 12 2 30 72 41 11 2 22 4 25 6 3 1 10 3 15 4 6 1
17 5 25 8 18 7 93 31 100 32 14 2 149 49 175 61 17 7 82 34 145 58 115 45 180
57 180 34z m-1695 -239 c-11 -17 -35 -9 -35 11 0 18 3 19 20 10 11 -6 18 -15
15 -21z m50 -10 c-11 -17 -35 -9 -35 11 0 18 3 19 20 10 11 -6 18 -15 15 -21z
m882 -5 c-2 -2 -12 -1 -22 2 -17 7 -17 8 1 21 17 12 19 12 22 -2 2 -9 2 -19
-1 -21z m-832 -5 c-11 -17 -35 -9 -35 11 0 18 3 19 20 10 11 -6 18 -15 15 -21z
m781 -6 c-3 -3 -13 -2 -23 1 -17 7 -17 8 2 22 18 13 20 13 23 -1 2 -9 1 -19
-2 -22z m-712 8 c3 -5 -1 -12 -10 -15 -22 -9 -24 -8 -24 9 0 16 25 21 34 6z
m646 -7 c0 -11 -5 -14 -16 -10 -9 3 -18 6 -20 6 -3 0 -2 5 1 10 10 16 35 12
35 -6z m-576 -3 c3 -5 -1 -12 -10 -15 -22 -9 -24 -8 -24 9 0 16 25 21 34 6z
m506 -7 c0 -11 -5 -14 -16 -10 -9 3 -18 6 -20 6 -3 0 -2 5 1 10 10 16 35 12
35 -6z m-395 -3 c17 -7 17 -8 -8 -13 -19 -4 -27 -1 -27 8 0 15 6 16 35 5z
m285 -7 c0 -11 -5 -14 -16 -10 -9 3 -21 6 -27 7 -7 0 -3 4 8 9 29 13 35 12 35
-6z"/>
</g>
</svg>
