<?xml version="1.0" standalone="no"?>
<!DOCTYPE svg PUBLIC "-//W3C//DTD SVG 20010904//EN"
 "http://www.w3.org/TR/2001/REC-SVG-20010904/DTD/svg10.dtd">
<svg version="1.0" xmlns="http://www.w3.org/2000/svg"
 width="2048.000000pt" height="2048.000000pt" viewBox="0 0 2048.000000 2048.000000"
 preserveAspectRatio="xMidYMid meet">
<metadata>
Created by potrace 1.13, written by Peter Selinger 2001-2015
</metadata>
<g transform="translate(0.000000,2048.000000) scale(0.192120,-0.192120)"
fill="#000000" stroke="none">
<path d="M5108 10315 c-333 -46 -625 -183 -838 -395 -121 -119 -212 -259 -254
-387 -16 -47 -21 -53 -46 -53 -51 0 -273 -41 -405 -75 -660 -171 -1280 -561
-1709 -1075 -433 -520 -731 -1223 -796 -1880 -16 -164 -14 -498 5 -673 25
-236 88 -548 146 -725 22 -67 22 -68 -9 -207 -63 -272 -44 -620 48 -879 l28
-79 -28 -24 c-16 -13 -42 -50 -57 -81 -22 -46 -28 -70 -27 -122 1 -78 19 -123
71 -180 84 -94 215 -117 330 -60 l61 30 44 -19 c25 -10 70 -24 101 -31 45 -9
58 -16 62 -33 65 -295 130 -512 221 -747 287 -732 750 -1320 1359 -1727 378
-252 823 -428 1286 -507 245 -43 349 -51 639 -50 286 0 427 12 655 55 977 182
1790 755 2318 1634 152 252 306 601 397 895 33 109 83 300 115 447 4 17 17 24
63 33 31 7 77 21 101 31 l44 19 60 -30 c115 -57 246 -34 330 60 52 57 70 102
71 180 1 52 -5 76 -27 122 -15 31 -41 68 -57 81 l-28 24 28 79 c92 259 111
606 48 879 -11 50 -22 102 -25 116 -3 14 7 63 21 110 105 350 157 698 157
1060 0 397 -50 693 -182 1074 -188 544 -453 970 -841 1351 -357 351 -761 601
-1237 765 -193 67 -453 129 -642 154 l-46 6 -32 84 c-103 273 -373 523 -707
655 -237 95 -551 131 -816 95z m482 -291 c241 -40 486 -153 633 -292 40 -39
50 -85 21 -96 -10 -4 -95 -22 -191 -42 -167 -33 -401 -99 -515 -145 -89 -36
-171 -59 -211 -59 -22 0 -124 29 -230 66 -201 68 -347 108 -532 144 -137 27
-175 42 -175 70 0 27 66 89 165 156 283 188 659 260 1035 198z m-1204 -535
c248 -24 572 -109 832 -219 l114 -49 91 41 c355 157 777 253 1027 233 83 -7
90 -9 90 -29 0 -62 91 -181 157 -207 14 -5 82 -23 152 -40 259 -63 753 -266
1006 -412 446 -258 815 -619 1071 -1049 166 -280 281 -563 376 -928 l32 -125
4 -535 c3 -373 0 -556 -8 -605 -17 -102 -44 -228 -90 -417 -22 -92 -40 -180
-40 -196 0 -51 -59 -262 -87 -315 -59 -108 -83 -89 -150 122 -87 274 -225 591
-345 789 -297 493 -692 837 -1130 983 -165 56 -284 77 -493 89 -249 14 -374
27 -485 50 -345 73 -634 246 -812 488 -46 62 -130 198 -160 257 -54 108 -154
205 -210 205 -65 0 -137 -69 -245 -235 -122 -186 -179 -259 -275 -351 -233
-224 -554 -360 -923 -394 -60 -5 -189 -14 -285 -20 -253 -15 -418 -52 -621
-139 -351 -152 -712 -487 -936 -871 -166 -284 -277 -541 -363 -844 -63 -221
-87 -236 -153 -96 -29 61 -77 238 -77 283 0 16 -4 46 -10 66 -16 62 -80 330
-96 405 -40 185 -44 241 -44 706 0 547 4 581 112 925 160 509 402 911 772
1281 292 291 655 527 1041 678 66 26 150 61 186 77 115 51 280 106 403 133
141 32 171 43 219 85 37 33 87 124 87 160 0 16 8 21 43 24 84 7 115 7 223 -4z
m959 -1976 c4 -21 24 -84 46 -140 151 -386 490 -699 904 -835 195 -63 335 -85
636 -98 145 -6 249 -15 322 -30 549 -108 1019 -511 1340 -1148 198 -392 308
-775 340 -1178 l12 -146 71 123 c139 242 203 373 321 659 l64 155 -6 -108
c-10 -214 -55 -450 -130 -683 -25 -76 -45 -139 -45 -141 0 -2 7 -3 15 -3 11 0
15 -12 15 -48 0 -27 7 -71 15 -98 23 -77 20 -126 -13 -163 l-27 -31 -100 2
c-55 1 -117 -1 -138 -6 -34 -8 -39 -7 -44 13 -3 11 -8 21 -10 21 -24 0 -147
-72 -186 -109 -107 -99 -139 -173 -187 -421 -12 -58 -30 -136 -41 -175 -32
-108 -116 -307 -176 -419 -30 -55 -68 -134 -84 -174 -77 -192 -228 -429 -417
-654 -71 -85 -264 -263 -440 -406 -493 -400 -1101 -643 -1762 -702 -148 -13
-472 -13 -620 0 -493 44 -976 195 -1377 431 -264 156 -557 389 -731 582 -378
419 -668 974 -828 1582 -24 93 -56 195 -71 225 -45 92 -175 206 -269 234 -17
5 -23 2 -27 -15 -5 -18 -10 -20 -34 -14 -15 5 -67 9 -115 9 -55 1 -91 6 -99
14 -7 6 -21 12 -30 12 -49 0 -63 71 -33 170 9 29 14 73 12 97 -2 35 0 43 14
43 14 0 11 13 -18 95 -87 245 -155 591 -154 785 l1 55 63 -155 c113 -279 212
-479 344 -704 l47 -78 12 163 c60 812 463 1635 989 2026 274 203 598 313 924
313 546 1 985 163 1306 484 163 164 303 384 360 569 10 31 21 57 25 57 4 0 10
-17 14 -37z M3325 5600 c-83 -21 -139 -64 -183 -139 -24 -40 -27 -57 -27 -131
0 -74 3 -91 27 -131 32 -54 83 -102 136 -127 34 -15 81 -17 522 -17 473 0 486
1 531 21 177 82 220 313 84 449 -21 21 -59 47 -84 59 -45 20 -60 21 -511 23
-256 1 -478 -2 -495 -7z m916 -210 c40 -11 52 -34 42 -82 -4 -19 -17 -35 -37
-46 -28 -15 -73 -17 -431 -17 -220 0 -416 3 -436 8 -47 10 -79 41 -79 76 0 32
15 48 57 61 41 12 840 12 884 0z M6368 5596 c-100 -27 -177 -110 -198 -212
-31 -146 67 -293 215 -324 35 -7 204 -10 506 -8 l454 3 51 27 c53 28 102 76
131 131 13 23 18 55 18 117 0 75 -3 91 -27 131 -32 54 -83 102 -136 126 -33
16 -84 18 -502 20 -354 2 -476 -1 -512 -11z m937 -210 c31 -14 35 -19 35 -54
0 -88 -38 -94 -522 -90 -365 3 -385 4 -418 24 -31 18 -35 24 -35 64 0 68 2 68
488 69 343 1 424 -2 452 -13z M3825 4747 c-27 -13 -67 -43 -88 -67 -73 -80
-72 -75 -72 -460 0 -330 1 -347 21 -391 66 -143 237 -204 377 -136 60 30 95
65 130 131 21 40 22 49 22 391 0 336 -1 352 -21 396 -46 100 -127 151 -244
157 -63 2 -83 -1 -125 -21z M6625 4757 c-92 -35 -155 -108 -175 -200 -8 -35
-10 -160 -8 -372 l3 -320 31 -55 c114 -202 401 -191 498 19 20 44 21 60 21
391 0 385 1 380 -72 460 -54 60 -121 90 -203 89 -36 0 -79 -6 -95 -12z M4962
3091 c-113 -39 -185 -141 -185 -261 0 -109 63 -207 163 -254 43 -20 60 -21
390 -21 330 0 347 1 391 21 25 12 62 38 81 58 136 140 95 368 -81 450 -44 20
-64 21 -376 23 -299 3 -335 1 -383 -16z m660 -212 c45 -12 59 -46 34 -83 -24
-37 -91 -46 -337 -46 -287 0 -345 15 -337 87 2 22 11 31 38 40 45 15 549 17
602 2z M6076 2264 c-22 -8 -54 -25 -72 -39 -122 -93 -501 -151 -830 -127 -252
19 -408 58 -528 131 -53 32 -69 36 -138 40 -69 3 -85 0 -133 -23 -63 -31 -98
-70 -133 -145 -21 -45 -24 -64 -20 -120 3 -39 14 -83 26 -107 74 -144 344
-262 727 -316 122 -17 590 -17 715 0 388 55 655 175 726 327 34 72 33 172 -2
243 -60 121 -212 182 -338 136z m130 -258 c16 -67 -83 -131 -286 -185 -255
-69 -704 -85 -1008 -36 -281 45 -491 141 -467 214 11 36 95 29 212 -18 226
-89 326 -105 668 -106 355 0 484 23 730 129 33 14 79 26 102 26 37 0 43 -3 49
-24z"/>
</g>
</svg>
