<?xml version="1.0" standalone="no"?>
<!DOCTYPE svg PUBLIC "-//W3C//DTD SVG 20010904//EN"
 "http://www.w3.org/TR/2001/REC-SVG-20010904/DTD/svg10.dtd">
<svg version="1.0" xmlns="http://www.w3.org/2000/svg"
 width="2048.000000pt" height="2048.000000pt" viewBox="0 0 2048.000000 2048.000000"
 preserveAspectRatio="xMidYMid meet">
<metadata>
Created by potrace 1.13, written by Peter Selinger 2001-2015
</metadata>
<g transform="translate(0.000000,2048.000000) scale(0.192120,-0.192120)"
fill="#000000" stroke="none">
<path d="M5153 10316 c-239 -46 -375 -142 -375 -265 l1 -48 -46 -7 c-102 -14
-287 -61 -440 -111 -516 -172 -953 -444 -1348 -840 -290 -289 -502 -587 -670
-938 -118 -247 -212 -538 -246 -764 -8 -57 -16 -80 -25 -76 -14 5 -62 -113
-93 -231 -60 -228 -45 -417 43 -540 79 -112 288 -265 521 -383 524 -264 1202
-419 2115 -483 399 -28 1211 -23 1625 11 965 78 1724 286 2200 604 131 87 244
184 291 251 65 91 93 231 75 375 -20 158 -99 406 -126 395 -10 -3 -15 10 -20
47 -22 166 -90 414 -168 608 -415 1033 -1386 1848 -2449 2057 l-137 27 1 47
c0 109 -107 196 -308 249 -102 27 -318 35 -421 15z m-206 -465 c155 -78 448
-96 649 -41 90 24 141 49 212 102 l53 40 12 -34 c28 -79 74 -154 105 -175 18
-12 65 -32 105 -44 95 -29 315 -110 452 -166 171 -70 375 -178 539 -287 83
-55 159 -101 168 -102 46 -4 367 -309 505 -480 286 -354 469 -688 573 -1046
81 -281 84 -286 197 -362 l63 -43 -23 -20 c-36 -34 -184 -126 -297 -186 -514
-272 -1257 -461 -2090 -532 -543 -45 -1218 -44 -1735 5 -816 77 -1491 250
-2012 516 -122 62 -278 158 -320 197 l-23 20 63 44 c95 67 118 104 152 247 26
110 94 305 151 429 207 453 499 834 884 1155 47 40 87 66 91 61 4 -6 42 15 90
49 263 187 524 313 973 468 222 77 241 89 274 177 11 28 25 65 31 80 l11 28
52 -39 c29 -22 72 -49 95 -61z m-2630 -3022 c295 -155 649 -286 1033 -384 52
-13 124 -34 160 -45 208 -67 729 -139 1235 -171 243 -16 937 -16 1170 0 486
32 978 98 1185 158 47 13 166 47 266 74 385 104 625 193 917 340 98 49 185 89
193 89 24 0 20 -219 -5 -268 -66 -130 -402 -319 -801 -452 -405 -135 -910
-227 -1530 -277 -273 -22 -1289 -25 -1550 -5 -642 50 -1091 125 -1525 257
-401 122 -798 334 -886 474 -27 42 -29 51 -29 156 0 62 3 115 7 118 10 11 40
-1 160 -64z M4874 9715 c-34 -7 -79 -22 -101 -34 -71 -36 -400 -402 -591 -656
-370 -494 -547 -851 -645 -1305 -54 -246 -58 -294 -55 -610 3 -295 3 -295 28
-335 l25 -40 7 210 c16 535 116 992 294 1346 198 396 509 810 926 1235 104
105 188 194 188 197 0 9 -1 8 -76 -8z M5710 9723 c0 -4 78 -86 173 -182 337
-342 574 -635 782 -966 93 -148 212 -385 263 -525 109 -296 174 -682 189
-1107 3 -106 10 -190 15 -187 4 3 17 24 28 47 18 37 20 62 20 277 0 245 -7
330 -41 515 -58 307 -105 458 -231 735 -91 200 -346 595 -517 800 -207 248
-446 509 -494 538 -47 29 -187 70 -187 55z M5072 7988 c-73 -11 -207 -56 -287
-96 -203 -102 -346 -248 -416 -426 -25 -63 -28 -84 -29 -187 0 -89 4 -129 19
-172 53 -155 181 -302 331 -385 68 -37 187 -76 305 -99 128 -25 521 -25 650 0
128 26 237 61 335 110 123 61 240 178 301 302 l44 90 3 131 c3 111 1 139 -17
189 -96 273 -410 487 -786 534 -108 14 -383 19 -453 9z m441 -173 c124 -19
260 -64 357 -118 105 -59 211 -165 252 -253 30 -64 33 -77 33 -169 0 -92 -3
-106 -32 -168 -117 -246 -462 -402 -853 -384 -340 16 -630 168 -733 384 -29
62 -32 76 -32 168 0 92 3 105 33 169 41 88 147 194 252 253 199 112 470 156
723 118z M1763 6429 c-169 -33 -335 -184 -446 -404 -283 -564 -155 -1417 257
-1706 131 -92 270 -120 396 -80 35 11 65 19 67 17 1 -1 10 -55 18 -120 23
-177 59 -362 110 -564 348 -1388 1236 -2465 2330 -2827 258 -85 478 -123 755
-132 199 -6 348 3 517 32 955 163 1805 849 2339 1890 250 487 427 1056 499
1601 8 65 17 119 19 121 2 2 32 -6 67 -18 78 -26 184 -22 270 10 245 93 440
393 510 787 30 167 30 421 0 588 -57 323 -199 587 -385 717 -83 58 -153 86
-241 95 l-66 7 6 -29 c4 -16 18 -53 32 -82 23 -49 31 -56 106 -94 117 -58 207
-151 270 -278 76 -155 81 -191 85 -603 3 -400 1 -420 -72 -588 -58 -133 -135
-227 -246 -301 -97 -65 -108 -69 -218 -79 -109 -9 -157 -32 -219 -103 -64 -73
-81 -118 -128 -347 -115 -564 -198 -806 -493 -1444 -112 -243 -377 -605 -583
-795 -385 -356 -612 -517 -930 -661 -349 -158 -677 -229 -1059 -229 -531 0
-999 145 -1465 455 -251 166 -513 401 -688 617 -119 147 -288 387 -349 498
-14 25 -48 87 -77 138 -224 396 -391 872 -497 1417 -50 259 -71 313 -143 376
-67 60 -94 70 -198 79 -55 5 -102 14 -111 22 -9 8 -51 31 -94 51 -128 62 -233
202 -306 410 l-36 102 -4 329 c-4 369 0 398 67 556 45 103 136 244 190 293 22
20 76 57 119 82 65 38 84 55 104 93 14 26 28 62 31 80 6 32 6 32 -31 31 -20
-1 -56 -5 -79 -10z M3857 5316 c-98 -35 -166 -111 -187 -210 -8 -33 -10 -157
-8 -361 3 -302 4 -311 27 -363 84 -186 331 -218 465 -60 61 71 66 103 66 453
0 371 -3 390 -83 470 -79 78 -184 105 -280 71z M6620 5313 c-26 -9 -66 -38
-96 -68 -81 -80 -84 -99 -84 -470 0 -356 4 -383 71 -459 53 -60 107 -87 185
-94 118 -9 218 48 271 156 l28 57 3 318 c3 356 -1 390 -61 469 -68 90 -210
130 -317 91z M4944 3641 c-187 -85 -226 -334 -72 -465 73 -63 94 -66 458 -66
364 0 385 3 458 66 153 131 115 380 -72 465 -38 17 -70 19 -386 19 -316 0
-348 -2 -386 -19z m578 -229 c37 -5 70 -11 73 -14 4 -3 0 -15 -7 -27 -12 -20
-20 -21 -258 -21 -232 0 -247 1 -262 20 -21 24 -11 32 52 41 64 9 322 9 402 1z
M4105 2526 c-93 -43 -165 -153 -165 -251 0 -102 68 -203 170 -255 224 -113
610 -232 900 -277 159 -24 481 -24 640 0 292 46 674 163 899 276 178 90 224
294 99 436 -56 63 -124 95 -203 94 -63 0 -79 -5 -215 -64 -174 -75 -433 -154
-606 -185 -343 -60 -730 -4 -1144 166 -203 84 -201 83 -265 83 -43 1 -75 -6
-110 -23z m330 -298 c670 -255 1119 -257 1766 -7 184 70 249 82 249 43 0 -34
-80 -85 -200 -129 -41 -15 -82 -28 -90 -30 -8 -2 -16 -4 -17 -5 -2 -2 -7 -4
-13 -5 -5 -1 -11 -3 -12 -5 -2 -1 -10 -3 -18 -5 -8 -1 -67 -17 -130 -34 -63
-16 -131 -33 -150 -36 -19 -3 -71 -12 -115 -20 -249 -45 -500 -45 -750 0 -44
8 -93 17 -110 19 -59 11 -91 18 -179 43 -48 14 -96 27 -105 28 -9 2 -17 4 -18
5 -2 2 -7 4 -13 5 -5 1 -11 3 -12 5 -2 1 -11 3 -20 5 -37 7 -165 59 -217 87
-63 35 -81 51 -81 71 0 39 67 29 235 -35z"/>
</g>
</svg>
