<?xml version="1.0" standalone="no"?>
<!DOCTYPE svg PUBLIC "-//W3C//DTD SVG 20010904//EN"
 "http://www.w3.org/TR/2001/REC-SVG-20010904/DTD/svg10.dtd">
<svg version="1.0" xmlns="http://www.w3.org/2000/svg"
 width="2048.000000pt" height="2048.000000pt" viewBox="0 0 2048.000000 2048.000000"
 preserveAspectRatio="xMidYMid meet">
<metadata>
Created by potrace 1.13, written by Peter Selinger 2001-2015
</metadata>
<g transform="translate(0.000000,2048.000000) scale(0.192120,-0.192120)"
fill="#000000" stroke="none">
<path d="M4760 10224 c-377 -47 -717 -198 -996 -442 -113 -99 -144 -153 -144
-251 0 -92 14 -132 65 -189 64 -71 126 -96 226 -90 89 5 118 20 219 112 341
310 848 398 1278 220 225 -93 423 -257 536 -443 142 -232 169 -537 71 -797
-95 -252 -277 -429 -510 -496 -114 -32 -282 -32 -380 0 -107 36 -193 88 -271
166 -108 108 -154 217 -154 366 0 93 -19 154 -67 209 -115 135 -328 128 -431
-14 -43 -59 -53 -102 -53 -222 3 -341 167 -645 462 -855 309 -220 724 -281
1103 -161 433 136 781 545 888 1046 31 147 31 428 0 573 -81 374 -265 664
-577 906 -221 172 -493 292 -775 343 -92 16 -410 29 -490 19z m319 -264 c285
-25 561 -122 774 -270 92 -63 279 -219 336 -279 86 -91 152 -210 196 -354 l26
-87 -3 -313 c-4 -294 -5 -316 -27 -382 -87 -265 -288 -523 -500 -645 -104 -59
-262 -114 -379 -130 -117 -17 -355 -8 -457 18 -326 83 -580 298 -670 567 -21
63 -25 92 -25 202 0 87 4 133 12 141 7 7 33 12 59 12 40 0 51 -4 73 -31 18
-21 26 -42 26 -67 0 -96 83 -302 164 -409 111 -147 277 -261 442 -304 195 -51
426 -14 618 99 140 83 312 291 394 477 77 176 92 251 92 466 0 157 -3 188 -25
274 -95 364 -392 690 -767 840 -51 20 -100 39 -108 41 -128 33 -184 45 -230
51 -67 10 -249 10 -310 1 -220 -32 -436 -117 -610 -238 -219 -152 -221 -153
-264 -154 -40 -1 -41 0 -44 37 -3 33 2 42 35 72 57 53 218 158 309 203 167 83
384 144 574 161 137 12 162 12 289 1z M6450 9558 c177 -116 285 -175 385 -213
38 -14 76 -32 85 -40 9 -8 60 -33 114 -55 394 -164 817 -434 1161 -740 135
-120 205 -193 205 -213 0 -7 26 -42 58 -78 215 -243 337 -398 454 -579 271
-419 429 -783 559 -1287 75 -290 120 -359 329 -493 128 -82 201 -161 267 -291
l38 -74 0 -300 0 -300 -35 -74 c-45 -97 -136 -215 -206 -268 -31 -24 -95 -63
-143 -88 -101 -52 -190 -128 -237 -200 -18 -29 -62 -140 -102 -256 -104 -305
-194 -514 -314 -729 -616 -1102 -1651 -1862 -2873 -2110 -1020 -208 -2117 -34
-2995 473 -659 381 -1161 874 -1549 1522 -174 292 -276 517 -397 880 -31 94
-65 188 -77 210 -32 64 -124 146 -218 194 -173 90 -267 173 -345 307 -80 135
-85 163 -82 459 l3 260 44 89 c58 116 176 239 302 314 100 60 181 142 221 223
14 30 49 144 76 254 151 600 413 1129 796 1605 88 110 287 327 331 361 14 11
25 28 25 38 0 29 215 225 381 349 196 144 391 267 630 397 164 89 202 126 235
229 13 43 23 80 21 82 -7 7 -239 -100 -367 -170 -898 -488 -1589 -1247 -1989
-2183 -107 -251 -205 -564 -256 -817 -13 -64 -28 -113 -36 -118 -8 -4 -41 -18
-74 -30 -166 -65 -336 -231 -432 -423 -126 -251 -146 -570 -52 -846 52 -155
173 -332 291 -428 75 -62 215 -134 292 -152 l55 -12 12 -51 c45 -191 181 -558
294 -791 334 -687 835 -1274 1460 -1712 628 -439 1355 -705 2129 -778 295 -28
754 -16 1040 26 901 133 1741 536 2386 1146 399 378 697 772 934 1237 129 252
262 594 326 837 l22 86 55 13 c81 18 219 91 299 158 159 135 280 348 325 577
17 87 18 329 1 410 -19 90 -61 212 -95 280 -96 192 -261 354 -430 422 -34 14
-68 28 -76 32 -8 4 -23 53 -37 121 -197 959 -737 1855 -1507 2499 -424 354
-938 638 -1470 810 -125 41 -357 101 -387 101 -8 0 55 -46 140 -102z M3988
5879 c-278 -36 -511 -246 -583 -524 -22 -85 -20 -244 5 -339 62 -244 265 -443
510 -500 93 -22 240 -20 334 4 481 123 676 703 370 1101 -108 141 -277 235
-465 259 -46 5 -88 9 -94 9 -5 -1 -40 -5 -77 -10z m297 -327 c86 -41 147 -90
181 -147 25 -43 25 -46 22 -222 l-3 -178 -39 -59 c-171 -255 -643 -225 -772
49 -22 46 -24 63 -24 198 0 127 3 153 19 185 24 45 53 78 106 118 95 74 171
95 325 91 106 -3 121 -6 185 -35z M6488 5879 c-278 -36 -511 -246 -583 -524
-22 -85 -20 -244 5 -339 62 -244 265 -443 510 -500 93 -22 240 -20 334 4 481
123 676 703 370 1101 -108 141 -277 235 -465 259 -46 5 -88 9 -94 9 -5 -1 -40
-5 -77 -10z m297 -327 c86 -41 147 -90 181 -147 25 -43 25 -46 22 -222 l-3
-178 -39 -59 c-171 -255 -643 -225 -772 49 -22 46 -24 63 -24 198 0 127 3 153
19 185 24 45 53 78 106 118 95 74 171 95 325 91 106 -3 121 -6 185 -35z M4397
3449 c-137 -21 -186 -129 -174 -379 12 -253 120 -487 321 -698 116 -121 222
-200 360 -267 172 -84 240 -100 426 -100 186 0 254 16 426 100 387 188 662
578 681 965 10 209 -22 315 -110 359 -61 30 -154 31 -388 2 -301 -37 -422 -44
-698 -38 -194 4 -321 12 -471 30 -255 31 -313 35 -373 26z m393 -309 c107 -12
214 -23 237 -26 l42 -5 4 -142 c7 -209 23 -283 83 -382 53 -89 106 -154 173
-213 34 -29 61 -59 61 -67 0 -23 -75 -37 -154 -30 -302 29 -622 287 -732 591
-20 54 -24 84 -24 179 l0 115 58 0 c31 0 145 -9 252 -20z m1370 -21 c0 -27 -2
-30 -15 -19 -24 20 -19 39 13 49 1 1 2 -13 2 -30z m-270 -149 c0 -207 -21
-283 -99 -353 -109 -99 -310 -83 -398 32 -51 66 -63 123 -63 303 l0 158 280 0
280 0 0 -140z"/>
</g>
</svg>
