<?xml version="1.0" standalone="no"?>
<!DOCTYPE svg PUBLIC "-//W3C//DTD SVG 20010904//EN"
 "http://www.w3.org/TR/2001/REC-SVG-20010904/DTD/svg10.dtd">
<svg version="1.0" xmlns="http://www.w3.org/2000/svg"
 width="2048.000000pt" height="2048.000000pt" viewBox="0 0 2048.000000 2048.000000"
 preserveAspectRatio="xMidYMid meet">
<metadata>
Created by potrace 1.13, written by Peter Selinger 2001-2015
</metadata>
<g transform="translate(0.000000,2048.000000) scale(0.192120,-0.192120)"
fill="#000000" stroke="none">
<path d="M4930 10319 c-634 -41 -1114 -186 -1480 -449 -196 -141 -357 -302
-543 -548 -251 -330 -324 -535 -377 -1047 -31 -303 -61 -439 -126 -568 -66
-130 -224 -304 -363 -402 -93 -65 -121 -96 -121 -136 0 -71 137 -155 348 -214
78 -22 87 -16 77 57 -6 49 -12 58 -72 114 l-66 62 7 48 c4 27 9 70 13 97 3 26
9 50 14 52 4 3 131 -15 281 -39 780 -129 1479 -199 2056 -208 l192 -3 3 1552
c1 853 5 1554 9 1558 4 4 33 -8 65 -26 32 -19 61 -33 66 -31 4 1 7 -3 7 -9 0
-6 9 -9 20 -6 11 3 20 2 20 -1 0 -13 743 -6 773 6 16 7 53 23 84 37 30 14 58
23 62 20 3 -4 7 -702 8 -1552 2 -851 4 -1547 5 -1548 6 -5 676 15 856 25 417
23 982 68 1452 115 135 14 262 25 284 25 l38 0 -4 -57 c-4 -48 -10 -61 -36
-83 -17 -14 -48 -32 -69 -39 -93 -32 -133 -81 -133 -165 0 -27 1 -28 37 -21
133 25 322 106 383 164 74 70 57 105 -111 233 -162 124 -261 236 -329 373 -64
130 -95 253 -120 483 -11 103 -28 241 -36 307 -53 396 -202 688 -519 1014
-440 453 -1006 706 -1783 796 -166 20 -665 28 -872 14z m-431 -1547 l1 -1363
-52 5 c-29 3 -111 8 -183 11 -466 21 -1569 153 -1808 216 l-37 10 74 58 c141
113 165 177 206 551 38 352 68 475 158 654 99 201 245 398 427 581 264 266
514 416 895 537 52 17 102 36 111 44 8 8 20 14 25 14 5 0 45 29 89 65 l80 66
7 -43 c3 -24 7 -656 7 -1406z m1791 1333 c65 -52 131 -87 220 -116 345 -114
667 -311 926 -565 290 -287 427 -526 484 -849 11 -60 29 -204 40 -320 36 -370
59 -453 149 -544 31 -31 82 -74 114 -94 51 -34 71 -57 50 -57 -5 0 -91 -9
-193 -20 -407 -43 -1060 -92 -1465 -110 -126 -5 -281 -12 -342 -15 l-113 -5 0
1342 c0 739 3 1366 6 1395 l7 52 31 -25 c17 -14 56 -45 86 -69z M2365 6848
c-26 -114 -62 -360 -77 -518 -17 -190 -17 -1489 1 -1805 23 -428 54 -708 106
-970 85 -429 215 -664 389 -706 89 -21 294 8 501 72 55 17 240 80 410 141 313
111 578 198 602 198 9 0 13 18 13 68 l-1 67 -70 44 c-216 134 -472 387 -650
641 -195 277 -359 643 -444 988 l-27 112 -63 0 c-34 0 -82 7 -105 15 -139 49
-258 212 -318 435 -23 84 -26 115 -26 270 -1 150 3 188 22 265 48 192 160 362
284 431 47 26 63 29 138 29 105 0 159 -23 241 -105 l56 -56 49 44 c27 24 97
80 156 125 59 45 106 82 105 84 -1 1 -72 9 -157 18 -341 35 -901 126 -1047
170 -26 8 -53 15 -60 15 -6 0 -19 -33 -28 -72z m245 -1644 c72 -90 172 -178
254 -223 90 -50 88 -47 176 -281 175 -462 396 -821 706 -1143 113 -118 120
-142 52 -175 -147 -68 -514 -197 -693 -243 -56 -14 -120 -23 -171 -24 -73 0
-84 3 -117 28 -119 90 -208 437 -262 1016 -20 218 -22 1101 -2 1101 7 0 32
-25 57 -56z M8120 6884 c-205 -50 -710 -126 -1100 -165 -1089 -107 -2083 -115
-3135 -24 -231 20 -216 23 -170 -25 70 -72 112 -79 675 -112 341 -21 1620 -17
1975 5 316 20 362 29 430 89 l44 39 63 -27 c129 -53 257 -133 341 -213 l38
-36 21 30 c47 67 138 143 195 165 81 31 179 25 252 -15 122 -67 233 -235 282
-430 20 -78 23 -114 23 -265 0 -156 -3 -185 -27 -272 -51 -193 -165 -361 -283
-419 -41 -20 -64 -24 -140 -24 l-92 0 -27 -110 c-97 -398 -290 -800 -533
-1115 -136 -175 -365 -392 -538 -508 l-61 -41 -7 -72 c-3 -39 -5 -73 -3 -75 1
-2 69 -24 149 -49 80 -24 258 -85 394 -134 557 -199 691 -234 894 -234 163 -1
219 17 303 93 145 133 213 401 247 980 12 207 29 1182 30 1701 0 577 -25 884
-101 1238 -12 59 -6 58 -139 25z m-30 -2226 c0 -685 -13 -929 -61 -1193 -46
-255 -97 -333 -232 -355 -126 -21 -403 50 -792 203 -175 68 -225 96 -225 124
0 8 44 61 99 118 319 335 551 723 720 1200 54 152 62 163 176 219 84 41 114
64 195 142 52 52 101 94 108 94 9 0 12 -117 12 -552z M4335 6061 c-69 -17
-125 -62 -161 -131 -17 -30 -19 -59 -19 -215 0 -165 2 -183 22 -220 95 -176
337 -177 419 -1 22 47 24 63 24 222 0 162 -1 172 -25 221 -49 98 -157 149
-260 124z M6215 6061 c-70 -18 -125 -63 -161 -131 -15 -28 -19 -63 -22 -185
-5 -186 5 -238 58 -298 109 -123 290 -110 375 27 30 49 30 49 33 224 4 198 -4
234 -62 294 -58 60 -149 88 -221 69z M5021 4884 c-49 -41 -64 -147 -28 -195
37 -48 45 -49 337 -49 301 0 304 0 335 60 32 61 13 159 -37 194 -19 14 -65 16
-299 16 l-277 0 -31 -26z M4660 4338 c-94 -49 -131 -160 -84 -253 40 -79 227
-196 390 -244 301 -89 674 -52 909 91 150 91 195 146 195 239 0 101 -70 176
-172 185 -58 6 -85 -5 -191 -79 -124 -87 -338 -127 -522 -97 -128 20 -205 54
-334 144 -58 41 -129 46 -191 14z M6150 3298 c-199 -92 -379 -146 -577 -174
-173 -24 -475 -15 -633 19 -152 33 -286 77 -420 138 -61 27 -112 49 -115 49
-3 0 -5 -7 -5 -15 0 -7 -8 -18 -17 -24 -16 -9 -14 -14 22 -51 44 -45 171 -133
250 -173 83 -41 218 -85 337 -109 151 -30 497 -32 653 -4 237 43 452 143 594
275 44 41 45 42 24 56 -12 8 -23 24 -25 34 -3 17 -10 15 -88 -21z M4310 3056
l0 -176 28 12 c57 25 110 68 121 99 13 37 1 100 -29 160 -22 42 -49 64 -92 74
l-28 7 0 -176z M6294 3210 c-34 -14 -73 -68 -90 -127 -15 -51 -15 -58 1 -93
17 -38 45 -64 101 -93 l31 -16 7 80 c9 99 -2 259 -18 258 -6 0 -20 -4 -32 -9z
M3680 2953 c-105 -17 -380 -97 -419 -122 -32 -20 10 -184 96 -375 52 -116 161
-314 244 -442 l59 -91 0 -786 c0 -433 -2 -787 -6 -787 -3 0 -39 23 -81 50 -42
28 -84 50 -94 50 -9 0 -19 6 -21 13 -4 9 -56 12 -218 12 -162 0 -214 -3 -217
-12 -3 -7 -11 -13 -18 -13 -7 0 -46 -23 -86 -50 -40 -28 -76 -50 -81 -50 -4 0
-8 522 -8 1160 0 638 -3 1160 -6 1160 -4 0 -71 -31 -150 -69 -235 -114 -411
-238 -569 -402 -185 -191 -286 -367 -351 -610 l-28 -104 -4 -577 -3 -578 3611
0 3611 0 -3 578 -4 577 -28 104 c-70 260 -190 457 -403 661 -138 133 -331 267
-494 343 -73 34 -171 77 -175 77 -2 0 -4 -522 -4 -1160 0 -638 -4 -1160 -8
-1160 -4 0 -42 22 -83 50 -40 27 -81 50 -91 50 -9 0 -18 6 -20 13 -4 9 -56 12
-218 12 -162 0 -214 -3 -217 -12 -3 -7 -11 -13 -18 -13 -7 0 -48 -22 -89 -50
-42 -27 -78 -50 -81 -50 -3 0 -5 354 -5 786 l0 786 73 117 c188 296 318 582
334 732 l6 56 -89 33 c-135 49 -309 91 -404 96 -75 5 -90 3 -130 -18 -36 -18
-48 -31 -60 -65 l-14 -43 -181 0 -181 0 -83 -54 c-144 -95 -338 -168 -536
-202 -124 -21 -506 -30 -670 -15 -278 25 -499 97 -696 227 l-67 44 -179 0
-180 0 -11 38 c-14 45 -34 65 -81 81 -32 10 -118 13 -171 4z m267 -215 c24
-202 111 -359 280 -503 43 -37 156 -122 252 -189 191 -132 296 -225 431 -382
205 -237 305 -441 365 -738 27 -138 45 -303 45 -418 0 -76 -1 -78 -24 -78 -14
0 -37 -5 -52 -10 -26 -10 -38 -4 -143 67 -329 221 -684 518 -904 757 -179 194
-408 481 -474 593 -23 40 -24 43 -7 74 11 23 15 49 12 90 -5 62 -22 102 -152
338 -118 215 -157 361 -98 369 13 2 22 10 22 22 0 24 19 30 100 30 38 0 70 4
72 10 2 5 17 11 33 14 17 2 37 6 45 9 18 7 148 34 170 36 12 1 18 -19 27 -91z
m2873 78 c42 -8 107 -18 145 -22 39 -3 72 -10 75 -14 3 -4 36 -8 74 -9 38 -1
73 -4 77 -7 12 -7 39 -65 39 -83 0 -67 -72 -233 -207 -476 -92 -166 -107 -222
-78 -292 14 -34 14 -38 -9 -77 -35 -59 -189 -263 -295 -391 -270 -323 -575
-599 -971 -882 -195 -139 -225 -156 -249 -144 -11 6 -33 11 -50 11 l-31 0 0
78 c0 116 18 281 46 422 59 293 160 497 364 734 134 155 240 250 421 375 90
63 200 144 243 180 182 151 283 331 302 536 4 44 11 75 18 75 6 0 45 -6 86
-14z m-2351 -375 c288 -129 527 -169 956 -158 324 8 510 45 738 147 122 54
137 58 137 34 0 -23 -88 -104 -210 -192 -115 -84 -114 -83 -215 -169 -151
-129 -312 -304 -426 -464 -119 -166 -122 -166 -237 -12 -199 267 -359 431
-587 600 -77 57 -168 129 -203 160 -115 103 -100 120 47 54z m3767 -287 c169
-128 289 -264 363 -413 72 -143 71 -129 71 -673 l0 -488 -310 0 -310 0 0 846
0 846 58 -32 c31 -18 89 -56 128 -86z m-5646 -734 l0 -840 -310 0 -310 0 0
474 c0 454 1 477 21 542 44 143 120 264 248 397 89 92 186 170 287 231 32 20
60 36 62 36 1 0 2 -378 2 -840z m1457 -262 c120 -133 358 -365 465 -453 59
-49 78 -79 59 -98 -15 -15 -191 -26 -458 -26 l-233 -1 0 358 c0 197 3 362 6
365 13 13 43 -15 161 -145z m2713 -219 l0 -362 -318 5 c-330 6 -362 10 -362
48 0 11 53 66 138 142 75 67 152 136 171 153 18 16 105 108 193 203 88 94 164
172 169 172 5 0 9 -153 9 -361z M2832 2720 c0 -14 2 -19 5 -12 2 6 2 18 0 25
-3 6 -5 1 -5 -13z"/>
</g>
</svg>
