<?xml version="1.0" standalone="no"?>
<!DOCTYPE svg PUBLIC "-//W3C//DTD SVG 20010904//EN"
 "http://www.w3.org/TR/2001/REC-SVG-20010904/DTD/svg10.dtd">
<svg version="1.0" xmlns="http://www.w3.org/2000/svg"
 width="2048.000000pt" height="2048.000000pt" viewBox="0 0 2048.000000 2048.000000"
 preserveAspectRatio="xMidYMid meet">
<metadata>
Created by potrace 1.13, written by Peter Selinger 2001-2015
</metadata>
<g transform="translate(0.000000,2048.000000) scale(0.192120,-0.192120)"
fill="#000000" stroke="none">
<path d="M5010 10043 c-436 -25 -912 -125 -1290 -270 -1122 -432 -1885 -1406
-1990 -2538 -37 -398 20 -999 124 -1321 l34 -104 -33 -20 c-55 -34 -171 -165
-219 -247 -211 -359 -254 -860 -111 -1290 101 -303 284 -511 500 -568 32 -8
59 -16 60 -17 1 -2 10 -43 19 -93 9 -49 35 -157 56 -240 183 -711 527 -1333
1000 -1805 492 -493 1071 -789 1740 -891 136 -21 190 -24 435 -23 307 0 442
14 690 74 1104 263 1985 1135 2395 2370 47 141 110 380 136 515 9 50 18 91 19
93 1 1 28 9 60 17 93 25 173 73 256 155 152 151 253 367 306 653 23 128 23
436 0 564 -52 279 -149 492 -293 643 l-75 78 16 61 c23 91 52 295 71 501 25
275 25 836 1 983 -85 501 -293 954 -636 1385 -109 136 -376 404 -509 510 -222
178 -427 308 -677 431 -455 225 -912 349 -1449 391 -117 9 -498 11 -636 3z
m631 -213 c1052 -82 1957 -560 2550 -1347 101 -134 185 -268 265 -423 75 -144
108 -223 183 -430 93 -258 91 -243 91 -812 0 -464 -2 -505 -25 -693 -38 -308
-35 -331 55 -386 57 -35 57 -35 12 -149 -43 -111 -100 -182 -158 -196 -36 -9
-107 30 -149 84 -20 26 -171 315 -335 643 l-299 596 -178 7 c-489 18 -1020 95
-1356 196 -290 88 -465 171 -621 297 -38 31 -67 50 -64 42 4 -8 31 -68 61
-134 96 -211 158 -430 143 -510 -9 -45 -46 -85 -80 -85 -121 0 -418 217 -777
568 -97 94 -179 172 -181 172 -3 0 -2 -19 3 -42 13 -69 10 -170 -6 -226 -64
-214 -312 -195 -720 56 -162 99 -407 277 -582 424 -45 37 -85 68 -88 68 -15 0
-166 -134 -255 -226 -398 -411 -687 -973 -835 -1623 -45 -197 -65 -231 -136
-231 -69 0 -145 74 -209 203 -46 91 -48 103 -19 112 11 4 36 20 55 37 34 30
34 31 34 112 0 51 -12 142 -32 246 l-33 165 0 555 0 555 28 120 c54 229 125
417 238 635 201 384 485 713 840 972 525 383 1154 592 1959 651 111 8 498 6
621 -3z m-2199 -2550 c21 -11 75 -49 121 -84 198 -153 456 -318 611 -392 184
-87 360 -122 475 -94 50 12 130 58 181 106 14 13 41 30 61 38 33 14 39 13 67
-2 18 -9 76 -56 129 -103 109 -95 272 -220 348 -266 121 -72 244 -104 322 -83
51 15 152 101 177 151 8 16 20 84 27 149 8 84 16 120 25 120 7 0 14 5 16 11 2
7 47 -4 118 -29 351 -121 879 -212 1380 -237 69 -4 139 -11 156 -16 18 -6 55
-34 82 -63 42 -44 80 -112 217 -387 224 -447 350 -656 454 -751 122 -111 213
-116 357 -18 45 30 78 37 101 22 20 -13 71 -125 96 -210 20 -71 22 -97 22
-347 l0 -270 -43 -124 c-88 -255 -154 -350 -309 -453 -110 -72 -210 -173 -248
-249 -14 -27 -43 -125 -65 -217 -55 -234 -69 -272 -282 -777 -133 -315 -144
-337 -286 -545 -85 -125 -202 -274 -284 -362 -99 -106 -431 -375 -597 -483
-939 -608 -2167 -603 -3101 13 -375 247 -564 433 -855 837 -96 134 -276 471
-358 670 -70 170 -141 391 -197 608 -28 109 -62 221 -75 248 -29 56 -136 173
-192 211 -21 14 -70 46 -110 72 -109 71 -181 171 -243 337 -43 117 -50 180
-50 470 0 260 1 282 24 372 41 160 121 297 173 297 14 0 59 -22 100 -50 111
-74 167 -83 254 -39 45 23 123 108 155 170 13 26 44 127 70 224 74 285 160
518 277 745 192 375 533 800 641 800 12 0 38 -9 58 -20z M3862 5596 c-99 -32
-172 -113 -192 -212 -7 -35 -10 -163 -8 -366 l3 -313 27 -50 c54 -102 138
-154 248 -155 83 0 149 30 207 93 71 77 74 103 71 484 l-3 328 -30 53 c-49 89
-125 139 -222 147 -36 3 -75 -1 -101 -9z m116 -548 l-3 -303 -33 -3 c-63 -6
-62 -9 -62 308 0 221 3 290 13 293 6 3 29 6 50 6 l37 1 -2 -302z M6659 5604
c-82 -15 -184 -114 -209 -202 -6 -22 -10 -167 -10 -348 0 -358 4 -387 73 -461
58 -63 124 -93 207 -93 110 1 194 53 248 155 l27 50 0 345 c0 331 -1 347 -21
391 -54 116 -187 185 -315 163z m99 -556 l-3 -303 -35 -3 c-59 -6 -60 -1 -60
314 0 217 3 284 13 287 6 3 29 6 50 6 l37 1 -2 -302z M4957 3646 c-151 -55
-224 -235 -153 -381 15 -30 45 -70 68 -89 73 -63 94 -66 458 -66 364 0 385 3
458 66 89 76 120 213 73 320 -27 59 -61 97 -121 132 l-45 27 -350 2 c-275 2
-358 0 -388 -11z m701 -195 c32 -13 33 -15 30 -64 -6 -95 -64 -111 -403 -105
-239 4 -275 10 -318 52 -22 23 -22 78 1 99 33 30 95 36 377 33 203 -1 289 -6
313 -15z M6636 2545 c-21 -7 -55 -27 -75 -43 -197 -158 -802 -251 -1453 -222
-508 23 -821 93 -1030 231 -93 62 -230 48 -321 -31 -120 -106 -122 -296 -5
-406 247 -233 906 -369 1703 -351 525 12 859 66 1170 187 241 95 357 202 372
345 20 195 -178 355 -361 290z m154 -215 c20 -20 24 -54 12 -97 -41 -140 -476
-276 -1037 -324 -182 -15 -679 -15 -870 0 -370 30 -687 100 -891 197 -116 55
-164 104 -164 168 0 42 2 45 36 56 64 21 130 8 259 -52 180 -83 354 -128 640
-165 178 -23 883 -26 1060 -5 328 39 529 90 690 173 141 72 226 88 265 49z"/>
</g>
</svg>
