<?xml version="1.0" standalone="no"?>
<!DOCTYPE svg PUBLIC "-//W3C//DTD SVG 20010904//EN"
 "http://www.w3.org/TR/2001/REC-SVG-20010904/DTD/svg10.dtd">
<svg version="1.0" xmlns="http://www.w3.org/2000/svg"
 width="2048.000000pt" height="2048.000000pt" viewBox="0 0 2048.000000 2048.000000"
 preserveAspectRatio="xMidYMid meet">
<metadata>
Created by potrace 1.13, written by Peter Selinger 2001-2015
</metadata>
<g transform="translate(0.000000,2048.000000) scale(0.192120,-0.192120)"
fill="#000000" stroke="none">
<path d="M5052 10050 l-273 -279 -420 141 c-231 77 -421 139 -422 137 -1 -2
-118 -178 -259 -391 l-257 -386 -108 -58 c-84 -45 -177 -81 -433 -165 l-325
-107 -5 -129 -5 -130 -105 -95 c-800 -724 -1306 -1700 -1484 -2858 -67 -436
-80 -757 -73 -1755 7 -899 22 -1282 68 -1790 103 -1129 324 -1739 668 -1839
68 -20 148 -20 298 -1 242 32 453 94 1058 313 395 142 660 231 861 286 l131
37 114 -60 c539 -283 1159 -377 1743 -265 261 51 451 116 713 245 l163 81 147
-42 c197 -55 521 -163 893 -298 703 -253 904 -305 1190 -306 237 -1 342 35
466 158 149 150 239 409 293 851 61 492 82 1157 84 2720 2 914 0 1052 -16
1225 -89 985 -359 1788 -840 2498 -185 273 -466 595 -707 810 l-95 85 -5 130
-5 130 -337 113 c-249 83 -362 126 -433 164 l-96 52 -257 387 c-141 212 -258
388 -259 390 -1 2 -190 -59 -421 -136 l-418 -140 -273 278 c-150 154 -276 279
-279 278 -4 0 -130 -126 -280 -279z m356 -291 c12 -5 44 -29 71 -54 195 -183
160 -627 -58 -737 -69 -36 -115 -35 -182 0 -223 116 -253 558 -52 742 71 65
137 79 221 49z m-1324 -31 c12 -20 -2 -35 -108 -105 -39 -27 -74 -52 -78 -58
-5 -6 -8 -3 -8 7 0 37 78 154 114 168 31 13 67 8 80 -12z m2564 8 c15 -8 34
-22 43 -32 27 -31 63 -103 56 -111 -7 -6 -149 84 -155 99 -2 5 -10 8 -18 8
-22 0 -16 24 9 36 31 16 34 16 65 0z m-817 -156 c53 -24 124 -25 202 -5 32 8
60 15 62 15 13 0 3 -55 -14 -78 -10 -15 -35 -61 -55 -103 -35 -73 -36 -80 -36
-185 0 -125 11 -165 76 -264 67 -105 136 -167 243 -218 82 -39 99 -44 145 -40
63 6 188 66 243 116 54 49 108 122 144 194 36 71 69 209 69 289 0 39 4 58 10
54 6 -4 42 -49 80 -100 39 -51 105 -126 149 -167 103 -97 220 -156 499 -249
l212 -71 0 -48 0 -48 44 -6 c41 -7 45 -10 66 -59 41 -94 87 -154 236 -304 288
-290 488 -539 662 -823 315 -513 505 -1040 624 -1735 l33 -190 0 -1905 c0
-1753 -1 -1919 -18 -2075 -48 -462 -114 -727 -217 -867 -40 -54 -61 -72 -112
-97 -198 -96 -497 -58 -1061 134 -309 105 -851 299 -884 317 -27 13 -38 41
-25 64 5 9 59 62 120 118 226 206 453 474 640 753 53 79 231 391 290 508 155
309 309 738 392 1095 97 416 120 598 120 955 0 259 -1 278 -25 369 -138 533
-553 959 -1172 1205 -302 120 -629 183 -1043 201 -287 12 -415 24 -590 56
-472 87 -939 255 -1573 566 -286 141 -336 162 -386 166 -71 5 -124 -16 -209
-82 -31 -24 -210 -198 -397 -386 -375 -376 -516 -508 -770 -715 -194 -158
-422 -381 -483 -472 -59 -87 -146 -255 -176 -338 -60 -168 -66 -214 -66 -547
0 -331 7 -409 60 -699 57 -314 178 -734 291 -1011 63 -155 193 -427 271 -568
91 -163 294 -467 401 -600 124 -155 315 -359 438 -468 59 -52 110 -101 113
-108 8 -21 -5 -51 -27 -62 -63 -31 -804 -298 -1016 -367 -261 -83 -471 -127
-626 -129 -91 -1 -105 2 -157 27 -238 117 -398 681 -495 1737 -16 177 -18 334
-18 1670 l0 1475 27 177 c94 603 228 1038 463 1510 202 403 440 729 811 1108
180 183 254 278 276 352 10 34 16 39 49 44 37 6 38 8 41 52 l3 45 225 77 c313
106 393 146 502 248 48 45 189 213 215 257 10 17 12 10 13 -49 0 -104 46 -251
107 -344 87 -132 240 -239 360 -250 47 -4 62 1 146 41 105 51 179 121 240 225
59 101 67 132 67 256 0 126 -7 151 -74 260 -58 96 -49 115 43 91 75 -19 142
-19 188 0 19 8 37 15 38 15 11 0 18 -72 24 -240 7 -189 8 -197 39 -268 69
-160 174 -278 298 -337 94 -45 133 -45 227 -1 127 61 241 199 301 366 24 67
26 82 26 258 0 162 5 232 15 232 2 0 22 -9 46 -20z m-1498 -108 c123 -54 190
-197 153 -325 -45 -153 -197 -237 -351 -193 -81 24 -157 100 -181 181 -67 231
161 433 379 337z m2185 13 c149 -44 231 -198 188 -350 -32 -110 -148 -195
-265 -195 -171 0 -309 170 -272 334 22 101 96 181 193 211 57 18 94 18 156 0z
m-2453 -2557 c117 -66 425 -219 593 -294 455 -204 897 -349 1272 -418 184 -33
292 -44 515 -51 363 -12 614 -47 877 -124 752 -221 1230 -694 1323 -1311 12
-76 13 -122 5 -230 -91 -1190 -544 -2254 -1270 -2981 -207 -208 -455 -406
-596 -477 l-42 -21 -18 20 c-27 30 -68 49 -104 49 -17 0 -79 -19 -138 -41
-464 -180 -769 -244 -1157 -243 -376 1 -662 59 -1095 221 -170 64 -219 68
-283 19 l-37 -28 -76 48 c-276 171 -582 450 -821 749 -500 622 -841 1440 -962
2306 -30 217 -53 506 -46 579 31 319 120 538 307 757 79 92 142 149 378 343
286 235 365 308 820 764 405 406 436 435 455 422 11 -7 56 -33 100 -58z M3847
5036 c-64 -23 -119 -73 -155 -141 l-27 -50 0 -345 0 -345 28 -57 c50 -102 132
-153 247 -153 116 1 196 50 251 155 24 44 24 51 27 373 3 379 0 402 -70 482
-75 86 -196 118 -301 81z M6605 5027 c-27 -13 -69 -44 -92 -70 -69 -74 -73
-102 -73 -463 0 -369 3 -388 85 -469 136 -137 357 -101 442 73 l28 57 0 345 0
345 -27 51 c-51 97 -127 146 -238 151 -64 3 -83 0 -125 -20z M4944 3641 c-187
-85 -226 -334 -72 -465 73 -63 94 -66 458 -66 364 0 385 3 458 66 153 131 115
380 -72 465 -38 17 -70 19 -386 19 -316 0 -348 -2 -386 -19z m578 -229 c37 -5
70 -11 73 -14 4 -3 0 -15 -7 -27 -12 -20 -20 -21 -258 -21 -232 0 -247 1 -262
20 -21 24 -11 32 52 41 64 9 322 9 402 1z M4385 2526 c-100 -46 -155 -127
-163 -239 -4 -60 -2 -74 26 -130 80 -162 406 -339 754 -409 97 -19 144 -23
328 -23 233 0 347 16 523 72 246 77 489 229 551 343 61 112 42 235 -48 326
-64 63 -131 89 -216 81 -66 -6 -102 -22 -185 -85 -80 -60 -220 -125 -326 -151
-185 -46 -412 -46 -598 -1 -107 27 -268 104 -341 164 -95 79 -207 98 -305 52z
m260 -312 c118 -68 237 -130 278 -143 37 -12 46 -24 28 -36 -22 -13 -174 33
-296 90 -98 46 -145 83 -145 115 0 34 48 25 135 -26z m1493 23 c3 -15 -16 -38
-62 -75 -47 -38 -236 -109 -301 -114 -22 -2 -43 -7 -46 -12 -8 -10 -29 1 -29
14 0 5 17 14 38 21 42 14 159 74 246 127 63 37 124 63 141 58 6 -1 11 -10 13
-19z m-451 -214 c-3 -3 -11 -2 -17 2 -8 5 -7 11 2 22 12 15 13 14 16 -1 2 -10
1 -20 -1 -23z m-695 12 c0 -5 -5 -11 -11 -13 -6 -2 -11 4 -11 13 0 9 5 15 11
13 6 -2 11 -8 11 -13z m43 -4 c3 -5 1 -12 -5 -16 -5 -3 -10 1 -10 9 0 18 6 21
15 7z m605 -7 c0 -8 -5 -12 -10 -9 -6 4 -8 11 -5 16 9 14 15 11 15 -7z m-555
-3 c3 -5 1 -12 -5 -16 -5 -3 -10 1 -10 9 0 18 6 21 15 7z"/>
</g>
</svg>
