<?xml version="1.0" standalone="no"?>
<!DOCTYPE svg PUBLIC "-//W3C//DTD SVG 20010904//EN"
 "http://www.w3.org/TR/2001/REC-SVG-20010904/DTD/svg10.dtd">
<svg version="1.0" xmlns="http://www.w3.org/2000/svg"
 width="2048.000000pt" height="2048.000000pt" viewBox="0 0 2048.000000 2048.000000"
 preserveAspectRatio="xMidYMid meet">
<metadata>
Created by potrace 1.13, written by Peter Selinger 2001-2015
</metadata>
<g transform="translate(0.000000,2048.000000) scale(0.192120,-0.192120)"
fill="#000000" stroke="none">
<path d="M5010 10043 c-436 -25 -912 -125 -1290 -270 -1122 -432 -1885 -1406
-1990 -2538 -13 -144 -13 -668 1 -832 17 -216 59 -445 103 -571 l15 -42 -83
-83 c-152 -150 -253 -370 -303 -657 -23 -131 -23 -431 1 -557 52 -286 154
-503 306 -654 83 -82 187 -143 269 -157 l45 -7 27 -130 c163 -791 531 -1498
1049 -2015 425 -426 933 -714 1490 -844 239 -56 373 -70 680 -70 313 0 445 14
695 74 702 167 1328 587 1789 1200 145 192 246 356 361 585 174 343 288 667
370 1050 l32 150 44 7 c175 30 377 229 478 473 212 509 132 1188 -181 1531
l-50 54 21 142 c39 278 46 408 46 878 0 394 -2 469 -18 563 -85 501 -293 954
-636 1385 -109 136 -376 404 -509 510 -222 178 -427 308 -677 431 -455 225
-912 349 -1449 391 -117 9 -498 11 -636 3z m631 -213 c1052 -82 1957 -560
2550 -1347 101 -134 185 -268 265 -423 75 -144 108 -223 183 -430 97 -270 93
-225 87 -1006 -3 -374 -8 -725 -12 -780 -5 -91 -3 -111 21 -188 l26 -86 -32
-61 c-39 -73 -85 -111 -133 -111 -45 0 -65 12 -121 74 -37 42 -106 171 -345
648 l-299 597 -175 7 c-750 29 -1412 164 -1786 363 -91 49 -124 72 -207 141
-29 24 -53 42 -53 39 0 -2 24 -55 54 -118 98 -205 167 -451 151 -536 -8 -43
-46 -83 -79 -83 -77 0 -255 106 -451 270 -126 105 -339 303 -433 403 -36 37
-68 67 -72 67 -4 0 -3 -19 2 -42 16 -71 5 -216 -20 -265 -116 -224 -488 -99
-1102 370 -58 44 -142 111 -188 150 l-83 69 -41 -29 c-65 -44 -252 -228 -340
-333 -353 -421 -587 -920 -728 -1555 -19 -84 -28 -105 -55 -132 -52 -52 -105
-42 -176 34 -60 63 -62 71 -54 217 6 116 4 147 -20 278 l-26 147 4 643 3 643
28 115 c55 229 125 416 237 630 201 384 485 713 840 972 525 383 1154 592
1959 651 111 8 498 6 621 -3z m-2136 -2568 c398 -295 729 -474 968 -527 102
-23 225 -17 282 12 75 39 135 123 135 188 0 14 3 25 6 25 4 0 36 -28 73 -62
232 -219 523 -429 689 -499 98 -41 194 -46 239 -13 59 44 68 75 67 224 -1 105
-6 153 -22 214 -12 44 -21 81 -19 83 2 1 44 -14 93 -36 241 -104 621 -201 989
-250 208 -29 478 -51 615 -51 l115 0 143 -273 c289 -552 481 -907 518 -958 64
-88 144 -131 210 -115 75 19 154 141 217 335 l33 104 38 -144 c21 -79 56 -202
79 -274 l41 -130 4 -294 3 -294 -42 -126 c-52 -159 -79 -218 -130 -295 -62
-92 -94 -122 -214 -201 -113 -75 -175 -137 -213 -212 -12 -23 -40 -117 -62
-210 -46 -190 -68 -263 -116 -378 -238 -573 -277 -664 -319 -740 -89 -160
-278 -421 -399 -552 -73 -77 -267 -251 -421 -375 -192 -154 -490 -325 -735
-421 -742 -292 -1603 -253 -2320 105 -371 185 -771 503 -985 784 -223 291
-275 373 -434 684 -127 250 -224 516 -312 855 -28 110 -62 220 -74 245 -32 62
-157 179 -235 221 -72 38 -169 128 -217 202 -38 59 -89 177 -116 272 -18 61
-21 107 -25 355 -3 196 0 307 8 355 12 69 60 211 106 311 23 51 60 170 84 272
l12 52 37 -72 c73 -146 153 -244 236 -287 60 -32 99 -36 151 -16 63 24 99 76
119 173 136 631 360 1145 661 1519 80 98 288 303 308 303 6 0 66 -40 131 -88z
M3855 5593 c-68 -25 -107 -54 -144 -109 -48 -73 -53 -120 -49 -466 4 -349 4
-351 76 -430 108 -120 296 -118 409 5 71 77 74 103 71 484 l-3 328 -30 53
c-67 123 -206 179 -330 135z M6659 5604 c-82 -15 -184 -114 -209 -202 -6 -22
-10 -167 -10 -348 0 -358 4 -387 73 -461 113 -123 301 -125 409 -5 74 82 73
76 73 462 0 380 0 377 -65 460 -54 68 -176 110 -271 94z M4944 3641 c-186 -85
-225 -334 -72 -465 73 -63 94 -66 458 -66 364 0 385 3 458 66 153 131 114 380
-72 465 -38 17 -70 19 -386 19 -316 0 -348 -2 -386 -19z m648 -217 c23 -4 40
-13 43 -24 19 -60 -43 -75 -310 -75 -226 0 -299 11 -310 46 -8 23 1 38 29 49
24 10 492 13 548 4z M6636 2545 c-22 -8 -51 -23 -65 -34 -118 -95 -346 -164
-671 -205 -285 -36 -797 -39 -1090 -6 -326 37 -565 102 -694 190 -72 49 -123
64 -201 57 -236 -18 -336 -311 -163 -473 247 -233 901 -368 1703 -351 574 12
967 85 1274 234 186 91 271 193 271 327 0 146 -133 277 -279 276 -25 -1 -64
-7 -85 -15z m108 -241 c24 -9 19 -58 -8 -92 -75 -88 -408 -193 -751 -237 -212
-26 -372 -35 -655 -35 -284 0 -444 9 -655 36 -413 52 -785 187 -785 284 0 56
77 51 219 -14 194 -89 380 -137 671 -173 210 -26 890 -26 1100 0 281 35 501
91 645 164 120 61 184 81 219 67z"/>
</g>
</svg>
