<?xml version="1.0" standalone="no"?>
<!DOCTYPE svg PUBLIC "-//W3C//DTD SVG 20010904//EN"
 "http://www.w3.org/TR/2001/REC-SVG-20010904/DTD/svg10.dtd">
<svg version="1.0" xmlns="http://www.w3.org/2000/svg"
 width="2048.000000pt" height="2048.000000pt" viewBox="0 0 2048.000000 2048.000000"
 preserveAspectRatio="xMidYMid meet">
<metadata>
Created by potrace 1.13, written by Peter Selinger 2001-2015
</metadata>
<g transform="translate(0.000000,2048.000000) scale(0.192120,-0.192120)"
fill="#000000" stroke="none">
<path d="M5070 10043 c-386 -30 -793 -138 -1157 -307 -67 -31 -132 -56 -144
-56 -12 0 -20 -3 -16 -6 3 -3 -51 -41 -121 -83 -433 -260 -806 -597 -1114
-1006 -405 -538 -707 -1231 -849 -1950 -12 -60 -22 -111 -23 -112 -1 -1 -36
11 -78 27 -140 55 -274 48 -406 -19 -83 -43 -109 -63 -185 -138 -230 -228
-367 -624 -367 -1063 0 -452 140 -844 384 -1077 196 -189 415 -231 630 -124
l72 37 23 -106 c34 -156 122 -454 186 -630 515 -1421 1512 -2430 2695 -2730
276 -70 519 -96 820 -87 461 13 870 119 1301 338 928 470 1686 1422 2079 2608
58 178 122 406 145 524 l17 84 73 -37 c161 -81 314 -78 479 7 82 43 228 182
289 275 160 245 247 568 247 918 0 594 -248 1087 -619 1232 -44 17 -78 21
-156 22 -101 0 -102 0 -247 -59 -13 -5 -18 1 -23 32 -75 446 -277 1042 -488
1433 -384 716 -869 1234 -1509 1615 -54 31 -98 59 -98 61 0 2 64 -19 143 -46
138 -47 250 -89 547 -205 80 -31 186 -70 235 -87 346 -114 661 -281 873 -461
272 -233 434 -510 514 -885 22 -101 23 -129 23 -472 l0 -365 -33 -85 c-90
-230 -115 -339 -90 -399 l14 -34 52 70 c109 148 198 359 223 533 15 106 6 458
-16 620 -78 571 -317 968 -765 1269 -393 264 -953 451 -1639 546 -106 15 -138
24 -220 62 -369 173 -751 276 -1151 313 -106 9 -444 11 -550 3z m583 -218
c157 -16 308 -42 438 -75 132 -33 149 -40 149 -59 0 -13 16 -22 63 -35 113
-32 627 -244 766 -317 336 -176 784 -606 1067 -1024 151 -223 259 -415 362
-645 132 -295 217 -546 292 -860 59 -244 66 -264 124 -324 70 -71 124 -96 227
-102 216 -13 287 -41 399 -154 82 -82 188 -247 234 -361 60 -151 66 -197 66
-510 l0 -287 -41 -141 c-49 -172 -93 -277 -155 -373 -68 -103 -141 -173 -221
-211 -87 -40 -162 -46 -309 -22 -111 18 -111 18 -155 -3 -55 -27 -151 -119
-186 -179 -23 -41 -40 -100 -73 -268 -28 -138 -102 -351 -188 -535 -16 -36
-85 -184 -152 -330 -164 -356 -198 -421 -313 -590 -237 -351 -337 -462 -701
-785 -424 -375 -936 -638 -1441 -740 -224 -45 -375 -58 -640 -52 -334 7 -539
42 -840 142 -444 148 -801 365 -1212 737 -554 501 -1026 1326 -1258 2198 -50
188 -87 261 -168 337 -89 83 -116 90 -241 68 -140 -25 -235 -18 -323 25 -157
77 -287 272 -364 546 -21 73 -23 104 -27 409 -3 310 -2 335 18 423 27 117 77
243 138 347 55 95 176 220 244 253 61 29 166 52 248 52 128 1 203 33 274 120
41 49 51 76 81 215 146 669 450 1329 832 1805 245 306 502 548 773 730 115 77
185 114 315 167 61 25 183 76 272 114 89 38 209 85 265 104 78 26 104 39 106
53 2 15 24 25 105 46 183 48 380 82 572 99 113 10 450 6 578 -8z M3029 7152
c-119 -32 -228 -122 -293 -243 -35 -65 -36 -69 -36 -180 0 -116 9 -154 52
-235 24 -45 119 -126 183 -158 100 -48 129 -51 595 -51 394 0 441 2 495 18 93
29 152 66 215 134 80 87 100 146 100 289 0 101 -2 114 -31 174 -40 84 -87 141
-158 189 -113 77 -102 75 -606 78 -400 2 -457 1 -516 -15z m1027 -179 c132
-71 189 -200 150 -338 -23 -79 -100 -156 -176 -179 -80 -24 -930 -24 -1010 0
-105 31 -190 149 -190 264 0 124 92 241 213 271 18 4 244 7 502 6 464 -2 471
-2 511 -24z M6660 7156 c-130 -28 -248 -122 -313 -248 -36 -72 -37 -75 -37
-186 0 -103 2 -118 30 -178 51 -113 172 -211 301 -245 63 -16 734 -24 879 -10
167 15 254 55 340 156 69 82 90 146 90 282 0 111 -1 115 -36 186 -66 131 -183
221 -318 246 -84 16 -863 13 -936 -3z m1016 -188 c172 -91 206 -307 70 -444
-86 -85 -79 -84 -606 -84 -534 0 -531 0 -616 85 -41 41 -56 65 -70 110 -43
149 33 295 178 346 49 17 88 19 523 16 l470 -2 51 -27z M3641 5741 c-259 -130
-370 -190 -396 -217 -107 -106 -106 -282 0 -389 55 -54 116 -79 197 -80 66 0
67 0 428 180 324 161 367 185 406 228 45 50 74 121 74 182 0 149 -129 275
-282 275 -67 0 -68 0 -427 -179z m326 -163 c-3 -8 -6 -5 -6 6 -1 11 2 17 5 13
3 -3 4 -12 1 -19z m-17 -5 c0 -8 -4 -12 -9 -9 -5 4 -11 2 -13 -3 -3 -8 -264
-142 -314 -162 -18 -6 -24 -5 -24 6 0 14 319 182 346 182 8 0 14 -7 14 -14z
m-373 -185 c-3 -8 -6 -5 -6 6 -1 11 2 17 5 13 3 -3 4 -12 1 -19z m-20 -10 c-3
-8 -6 -5 -6 6 -1 11 2 17 5 13 3 -3 4 -12 1 -19z M6475 5897 c-93 -44 -165
-154 -165 -252 0 -62 30 -136 75 -184 37 -40 93 -71 405 -226 360 -179 362
-180 428 -180 116 0 213 64 259 172 24 56 22 157 -4 214 -39 87 -71 108 -446
296 -349 175 -353 176 -427 180 -64 3 -83 0 -125 -20z m242 -329 c-3 -8 -6 -5
-6 6 -1 11 2 17 5 13 3 -3 4 -12 1 -19z m212 -78 c94 -47 161 -87 161 -95 0
-11 -6 -12 -24 -6 -50 20 -291 144 -294 152 -2 5 -8 7 -13 3 -5 -3 -9 0 -9 6
0 6 -4 8 -10 5 -5 -3 -10 1 -10 9 0 23 26 14 199 -74z m178 -112 c-3 -8 -6 -5
-6 6 -1 11 2 17 5 13 3 -3 4 -12 1 -19z M4964 3928 c-17 -6 -53 -27 -80 -47
-163 -123 -135 -379 51 -467 50 -24 53 -24 395 -24 342 0 345 0 395 24 207 98
212 393 8 496 l-48 25 -345 2 c-214 1 -357 -3 -376 -9z m669 -216 c35 -15 43
-35 27 -71 -21 -52 -48 -56 -340 -56 -249 0 -267 1 -300 20 -26 16 -36 29 -38
51 -4 40 15 55 86 65 84 11 531 4 565 -9z M3955 2746 c-56 -26 -116 -87 -141
-143 -40 -91 -12 -232 59 -301 97 -93 571 -266 941 -342 565 -116 1138 -39
1797 242 138 59 187 97 226 176 23 46 28 69 27 122 -2 77 -21 125 -72 182 -52
58 -121 88 -202 88 -55 0 -81 -7 -170 -46 -317 -138 -621 -224 -892 -253 -372
-41 -779 38 -1269 245 -151 64 -218 71 -304 30z m315 -256 c257 -103 491 -171
726 -212 171 -29 474 -31 639 -4 237 38 460 101 720 203 149 59 250 78 280 53
20 -16 19 -60 -1 -88 -45 -65 -433 -205 -764 -276 -274 -59 -587 -74 -840 -41
-396 52 -964 235 -1021 330 -23 37 -24 49 -2 70 29 30 139 15 263 -35z M3535
9645 c-981 -159 -1648 -495 -1987 -1000 -202 -301 -291 -633 -305 -1130 -6
-244 4 -332 53 -480 47 -142 191 -390 226 -390 6 0 16 13 21 30 15 43 -4 133
-63 312 l-50 151 0 379 c0 336 2 389 20 473 44 214 117 386 244 578 213 320
584 566 1149 761 62 21 216 80 342 132 127 51 304 118 395 150 186 65 178 71
-45 34z"/>
</g>
</svg>
