<?xml version="1.0" standalone="no"?>
<!DOCTYPE svg PUBLIC "-//W3C//DTD SVG 20010904//EN"
 "http://www.w3.org/TR/2001/REC-SVG-20010904/DTD/svg10.dtd">
<svg version="1.0" xmlns="http://www.w3.org/2000/svg"
 width="2048.000000pt" height="2048.000000pt" viewBox="0 0 2048.000000 2048.000000"
 preserveAspectRatio="xMidYMid meet">
<metadata>
Created by potrace 1.13, written by Peter Selinger 2001-2015
</metadata>
<g transform="translate(0.000000,2048.000000) scale(0.192120,-0.192120)"
fill="#000000" stroke="none">
<path d="M4730 10220 c-368 -51 -692 -198 -966 -439 -121 -105 -148 -156 -143
-269 l4 -79 -100 -43 c-55 -23 -161 -74 -235 -113 -838 -435 -1510 -1119
-1935 -1967 -164 -327 -301 -721 -370 -1064 -13 -64 -28 -113 -36 -118 -8 -4
-41 -18 -74 -30 -85 -33 -168 -91 -251 -173 -473 -470 -355 -1347 219 -1626
44 -21 103 -43 132 -50 l53 -12 22 -86 c13 -47 49 -163 81 -258 339 -994 1020
-1835 1924 -2378 566 -340 1197 -546 1864 -609 300 -29 756 -18 1045 25 1682
248 3066 1419 3589 3035 30 93 60 192 66 220 l12 51 55 12 c82 19 219 92 300
160 121 102 235 274 289 435 87 265 65 586 -58 831 -96 192 -261 354 -430 422
-34 14 -68 28 -76 32 -8 4 -23 53 -37 121 -158 767 -531 1489 -1085 2098 -417
457 -991 857 -1577 1096 -210 86 -483 172 -667 211 -44 9 -89 19 -100 22 -10
3 -53 38 -95 78 -241 230 -560 389 -900 450 -110 20 -421 28 -520 15z m474
-286 c203 -32 437 -120 603 -227 115 -74 415 -320 454 -373 45 -61 99 -167
130 -259 23 -68 24 -78 24 -400 0 -322 -1 -332 -24 -400 -64 -189 -172 -366
-302 -496 -131 -132 -282 -217 -467 -266 -146 -38 -387 -44 -538 -13 -288 58
-516 212 -654 440 -71 118 -84 165 -88 336 -4 174 -3 177 79 178 45 1 54 -3
80 -32 22 -25 29 -42 29 -74 0 -23 10 -76 21 -117 22 -79 85 -223 100 -229 5
-2 9 -8 9 -14 0 -20 98 -133 165 -190 82 -70 218 -138 323 -163 56 -13 101
-16 195 -12 145 6 211 22 332 81 224 111 401 334 501 631 l34 103 0 226 c0
259 -9 310 -85 472 -55 119 -108 195 -208 302 -114 121 -175 172 -297 244
-296 176 -626 234 -946 164 -199 -43 -393 -137 -596 -289 -90 -67 -128 -87
-167 -87 -21 0 -32 6 -36 21 -13 40 5 69 81 129 196 156 440 263 709 311 133
23 400 25 539 3z m-9 -285 c350 -71 672 -314 802 -607 112 -252 99 -571 -33
-811 -109 -199 -262 -326 -459 -383 -114 -32 -282 -32 -380 0 -112 38 -185 82
-266 162 -113 111 -159 218 -159 370 0 93 -19 154 -67 209 -79 92 -220 124
-325 72 -59 -28 -130 -106 -146 -159 -18 -60 -15 -243 7 -347 89 -432 461
-776 931 -861 114 -20 340 -20 449 1 249 48 458 155 635 324 116 111 212 244
291 401 105 208 150 410 150 660 -1 334 -94 609 -302 893 -19 26 -32 47 -28
47 7 0 190 -113 275 -170 66 -44 169 -97 265 -135 38 -15 74 -33 80 -40 5 -7
51 -30 100 -50 114 -46 357 -168 483 -242 576 -337 1089 -832 1437 -1388 94
-150 136 -235 253 -512 136 -319 189 -476 259 -756 41 -169 52 -197 101 -256
63 -78 113 -120 227 -195 174 -114 262 -227 324 -413 19 -55 21 -87 21 -267 0
-179 -3 -212 -21 -272 -34 -110 -91 -213 -160 -288 -71 -77 -131 -118 -230
-160 -82 -34 -164 -98 -225 -174 -55 -69 -71 -104 -130 -286 -60 -183 -242
-635 -303 -751 -52 -99 -188 -311 -289 -450 -162 -224 -439 -525 -632 -688
-173 -146 -600 -419 -870 -556 -1191 -606 -2637 -610 -3837 -11 -721 360
-1211 792 -1648 1453 -202 305 -357 633 -490 1035 -84 253 -144 332 -315 415
-151 72 -261 176 -339 320 -68 125 -71 144 -71 413 0 276 1 280 87 428 64 108
138 185 259 267 107 73 186 150 229 223 14 24 44 120 69 221 54 215 126 437
197 606 53 128 198 425 228 469 10 14 35 57 56 95 48 87 156 250 248 374 106
144 208 262 361 418 293 300 604 538 967 737 85 46 181 99 213 118 79 44 98
75 152 247 3 9 14 0 33 -26 66 -91 141 -128 248 -121 87 5 124 24 223 112 240
214 545 324 860 310 58 -3 150 -14 205 -25z M3990 5879 c-280 -36 -513 -244
-585 -524 -22 -85 -20 -244 5 -339 62 -244 265 -443 510 -500 93 -22 240 -20
334 4 481 123 676 703 370 1101 -108 141 -278 235 -466 259 -45 5 -87 9 -93 9
-5 -1 -39 -5 -75 -10z m203 -284 c119 -25 221 -88 276 -172 l31 -46 0 -180 c0
-166 -2 -183 -22 -225 -74 -147 -284 -242 -471 -212 -126 20 -206 59 -280 139
-79 84 -87 111 -87 294 0 182 6 201 87 278 64 62 124 95 214 119 89 23 161 25
252 5z M6488 5879 c-278 -36 -511 -246 -583 -524 -22 -85 -20 -244 5 -339 62
-244 265 -443 510 -500 93 -22 240 -20 334 4 481 123 676 703 370 1101 -108
141 -278 235 -466 259 -45 5 -87 9 -93 9 -5 -1 -40 -5 -77 -10z m205 -284
c119 -25 221 -88 276 -172 l31 -46 0 -180 c0 -166 -2 -183 -22 -225 -74 -147
-284 -242 -471 -212 -126 20 -206 59 -280 139 -79 84 -87 111 -87 294 0 182 6
201 87 278 64 62 124 95 214 119 89 23 161 25 252 5z M4330 3428 c-84 -43
-117 -153 -107 -358 12 -253 120 -487 321 -698 116 -121 222 -200 360 -267
172 -84 240 -100 426 -100 186 0 254 16 426 100 387 188 662 578 681 965 10
205 -23 315 -107 358 -57 29 -175 30 -390 3 -415 -52 -797 -54 -1170 -7 -264
33 -379 34 -440 4z m440 -273 c124 -14 242 -25 263 -25 l37 0 0 -64 c0 -36 5
-68 10 -71 6 -4 10 -59 10 -133 0 -101 4 -138 19 -180 40 -108 132 -236 221
-309 101 -81 93 -106 -35 -112 -193 -8 -414 95 -596 278 -91 92 -152 184 -200
302 -27 66 -29 81 -29 198 0 70 3 131 7 134 10 11 54 8 293 -18z m1399 -57
c-1 -55 -3 -66 -9 -43 -4 17 -8 26 -9 20 -3 -20 -30 40 -31 68 0 22 4 27 25
27 24 0 25 -2 24 -72z m-279 -128 c0 -207 -21 -283 -99 -353 -109 -99 -310
-83 -398 32 -51 66 -63 123 -63 303 l0 158 280 0 280 0 0 -140z"/>
</g>
</svg>
