<?xml version="1.0" standalone="no"?>
<!DOCTYPE svg PUBLIC "-//W3C//DTD SVG 20010904//EN"
 "http://www.w3.org/TR/2001/REC-SVG-20010904/DTD/svg10.dtd">
<svg version="1.0" xmlns="http://www.w3.org/2000/svg"
 width="2048.000000pt" height="2048.000000pt" viewBox="0 0 2048.000000 2048.000000"
 preserveAspectRatio="xMidYMid meet">
<metadata>
Created by potrace 1.13, written by Peter Selinger 2001-2015
</metadata>
<g transform="translate(0.000000,2048.000000) scale(0.192120,-0.192120)"
fill="#000000" stroke="none">
<path d="M4930 10319 c-634 -41 -1114 -186 -1480 -449 -196 -141 -357 -302
-543 -548 -251 -330 -324 -535 -377 -1047 -31 -303 -61 -439 -126 -568 -66
-130 -224 -304 -363 -402 -44 -31 -90 -68 -101 -82 -43 -55 -13 -117 83 -172
115 -65 380 -144 635 -190 l102 -18 -1 41 c0 62 -20 108 -56 132 -18 12 -93
36 -170 54 -200 47 -267 69 -298 98 -25 22 -27 29 -21 71 4 25 9 67 13 94 3
26 9 50 14 52 4 3 131 -15 281 -39 780 -129 1479 -199 2056 -208 l192 -3 3
1552 c1 853 5 1554 9 1558 4 4 33 -8 65 -26 32 -19 61 -33 66 -31 4 1 7 -3 7
-9 0 -6 9 -9 20 -6 11 3 20 2 20 -1 0 -13 743 -6 773 6 16 7 53 23 84 37 30
14 58 23 62 20 3 -4 7 -702 8 -1552 2 -851 4 -1547 5 -1548 6 -5 676 15 856
25 417 23 982 68 1452 115 135 14 262 25 283 25 37 0 37 0 37 -42 -1 -107 -41
-127 -415 -209 -155 -33 -178 -51 -191 -146 -6 -52 -6 -53 20 -53 38 0 243 45
390 85 276 76 416 156 416 238 0 34 -34 70 -151 159 -162 124 -261 236 -329
373 -64 130 -95 253 -120 483 -11 103 -28 241 -36 307 -53 396 -202 688 -519
1014 -440 453 -1006 706 -1783 796 -166 20 -665 28 -872 14z m-431 -1547 l1
-1363 -52 5 c-29 3 -111 8 -183 11 -466 21 -1569 153 -1808 216 l-37 10 74 58
c141 113 165 177 206 551 38 352 68 475 158 654 99 201 245 398 427 581 264
266 514 416 895 537 52 17 102 36 111 44 8 8 20 14 25 14 5 0 45 29 89 65 l80
66 7 -43 c3 -24 7 -656 7 -1406z m1791 1333 c65 -52 131 -87 220 -116 345
-114 667 -311 926 -565 290 -287 427 -526 484 -849 11 -60 29 -204 40 -320 36
-370 59 -453 149 -544 31 -31 82 -74 114 -94 51 -34 71 -57 50 -57 -5 0 -91
-9 -193 -20 -407 -43 -1060 -92 -1465 -110 -126 -5 -281 -12 -342 -15 l-113
-5 0 1342 c0 739 3 1366 6 1395 l7 52 31 -25 c17 -14 56 -45 86 -69z M2804
6808 c3 -13 15 -74 26 -136 l22 -112 -56 -61 c-68 -74 -135 -206 -167 -334
-20 -76 -23 -116 -23 -260 -1 -203 18 -296 89 -442 68 -140 156 -226 276 -272
23 -8 27 -17 33 -68 11 -94 54 -294 92 -420 110 -376 299 -744 530 -1033 94
-117 291 -311 402 -395 l92 -70 0 -187 0 -188 -90 0 -90 0 0 -34 c0 -60 28
-182 60 -263 72 -180 231 -361 530 -603 190 -153 418 -378 505 -498 178 -245
264 -510 282 -874 l6 -128 -31 0 c-17 0 -43 -5 -57 -10 -31 -12 -29 -13 -235
123 -189 125 -452 324 -600 454 -262 231 -521 523 -664 746 -35 54 -35 56 -21
91 29 68 20 140 -31 251 -26 55 -62 143 -80 195 -38 105 -37 136 2 183 13 16
24 34 24 40 0 7 20 29 45 50 25 21 45 43 45 48 0 6 25 44 55 85 48 65 90 104
150 139 22 13 11 61 -18 76 -57 31 -259 -97 -470 -300 l-47 -45 -277 -3 c-155
-1 -279 -6 -282 -11 -3 -5 -46 -20 -96 -32 -212 -53 -430 -151 -595 -268 -296
-211 -529 -538 -630 -886 -57 -194 -62 -241 -67 -648 l-5 -378 3891 0 3891 0
0 309 c0 328 -9 461 -41 606 -93 417 -347 788 -703 1027 -163 109 -335 184
-532 233 -60 15 -112 32 -115 37 -3 5 -128 10 -281 11 l-275 3 -85 77 c-223
203 -378 299 -435 268 -29 -15 -40 -63 -17 -76 55 -32 105 -80 166 -159 37
-49 68 -92 68 -95 0 -3 22 -24 50 -46 27 -22 49 -47 50 -56 0 -9 7 -29 15 -46
13 -26 13 -36 0 -89 -9 -32 -45 -126 -82 -208 -74 -168 -86 -224 -58 -285 l17
-39 -37 -57 c-169 -265 -500 -621 -805 -866 -172 -139 -402 -304 -556 -400
-100 -62 -114 -68 -138 -59 -15 5 -41 10 -57 10 l-29 0 0 73 c0 113 28 328 59
451 90 354 262 585 726 971 331 276 461 423 535 608 32 81 60 203 60 263 l0
34 -90 0 -90 0 0 188 0 187 63 46 c524 389 916 1067 1041 1802 l23 130 54 20
c85 32 184 136 242 257 73 149 92 241 91 445 0 144 -3 184 -23 260 -29 116
-98 258 -155 321 l-45 50 14 100 c7 54 15 121 18 148 l5 48 -37 -5 c-20 -3
-110 -17 -201 -31 -800 -122 -1847 -183 -2698 -158 -530 17 -830 36 -1302 83
-225 22 -600 71 -724 94 -104 20 -107 20 -102 -7z m574 -171 c88 -83 124 -103
200 -112 110 -12 322 -8 416 9 174 31 334 19 518 -39 45 -14 112 -29 148 -32
36 -3 68 -11 72 -17 10 -15 1166 -15 1176 0 4 6 41 14 82 17 41 3 129 22 195
42 160 49 307 57 500 27 90 -13 166 -19 247 -16 141 3 173 16 270 111 l66 66
21 -33 c11 -18 68 -128 127 -244 71 -138 121 -223 146 -248 92 -92 173 -18
241 220 l24 84 14 -79 c34 -197 -8 -665 -71 -779 -30 -53 -53 -83 -155 -199
-127 -145 -160 -206 -200 -372 -39 -159 -111 -367 -221 -644 -93 -235 -108
-266 -196 -397 -99 -147 -167 -227 -283 -332 -225 -203 -330 -326 -354 -416
-9 -32 -8 -52 5 -94 19 -66 28 -57 -151 -146 -556 -274 -1218 -273 -1770 1
-181 89 -170 79 -155 156 12 61 11 67 -12 119 -39 85 -105 167 -219 270 -118
106 -156 145 -238 245 -132 162 -197 264 -321 508 -105 205 -178 424 -250 758
-27 125 -67 192 -193 325 -142 151 -160 184 -201 364 -20 89 -25 575 -6 675
12 62 14 67 23 45 75 -190 155 -300 216 -300 52 0 72 31 96 150 17 82 88 317
106 353 6 9 12 17 15 17 3 0 36 -28 72 -63z m1152 -3842 c368 -185 985 -217
1415 -74 123 41 232 95 347 173 l98 65 -1 -47 c-2 -52 7 -90 25 -107 14 -14
75 -42 101 -47 19 -3 20 -12 23 -146 2 -129 1 -143 -15 -148 -57 -19 -184 -89
-217 -120 -22 -20 -132 -113 -245 -206 -229 -190 -423 -378 -466 -452 -23 -39
-29 -65 -34 -134 l-6 -86 -40 -10 c-52 -12 -318 -12 -370 0 l-40 10 -6 79 c-4
51 -13 95 -26 120 -47 90 -262 300 -512 499 -40 32 -122 101 -182 152 -108 92
-137 111 -214 137 l-40 14 0 143 0 143 40 12 c88 26 122 74 108 157 l-6 38 94
-64 c52 -35 128 -80 169 -101z m-1126 -378 c41 -161 129 -361 227 -515 l29
-46 0 -753 c0 -414 -2 -753 -6 -753 -3 0 -39 22 -81 50 -42 27 -84 50 -94 50
-9 0 -19 6 -21 13 -7 18 -429 18 -435 0 -3 -7 -11 -13 -18 -13 -7 0 -47 -23
-89 -52 -42 -28 -78 -49 -81 -46 -3 2 -4 490 -3 1082 l3 1078 105 -53 c58 -30
108 -57 111 -62 3 -4 42 -3 87 2 66 7 94 16 138 42 30 19 65 44 76 56 12 13
23 21 25 20 1 -2 14 -47 27 -100z m4016 5 c45 -21 170 -35 170 -20 0 4 7 8 15
8 9 0 52 18 96 41 45 22 92 44 105 49 l24 10 0 -1080 c0 -594 -4 -1080 -8
-1080 -4 0 -42 22 -83 50 -40 27 -81 50 -91 50 -9 0 -18 6 -20 13 -7 18 -429
18 -435 0 -3 -7 -11 -13 -18 -13 -7 0 -48 -22 -89 -50 -42 -27 -78 -50 -81
-50 -3 0 -5 338 -5 751 l0 751 70 122 c99 172 167 344 205 519 l6 28 47 -40
c26 -21 67 -48 92 -59z m778 -293 c161 -76 263 -148 392 -278 129 -129 206
-238 268 -376 80 -180 82 -191 82 -564 l0 -331 -445 0 -445 0 0 804 0 804 23
-5 c12 -3 68 -27 125 -54z m-5608 -749 l0 -800 -446 0 -445 0 3 333 3 332 33
94 c118 338 362 612 687 773 113 56 137 66 153 67 9 1 12 -165 12 -799z m1490
-317 c96 -97 204 -201 240 -231 36 -30 97 -81 137 -114 74 -61 94 -91 74 -111
-15 -15 -189 -26 -438 -26 l-213 -1 0 323 c0 298 2 337 19 337 4 0 85 -79 181
-177z m2680 -154 l0 -332 -292 6 c-170 3 -305 10 -320 16 -52 20 -36 42 140
194 92 80 234 213 317 296 82 83 151 151 152 151 2 0 3 -149 3 -331z M4120
6423 c-27 -10 -65 -37 -96 -68 -74 -74 -84 -114 -84 -330 0 -203 10 -250 71
-319 63 -72 107 -91 209 -91 74 0 91 3 130 27 60 35 94 72 122 133 22 47 23
62 23 250 0 199 0 200 -28 257 -64 131 -208 189 -347 141z m120 -395 c0 -131
-7 -167 -29 -154 -7 5 -11 55 -11 147 0 132 1 139 20 139 19 0 20 -7 20 -132z
M6344 6424 c-60 -21 -119 -77 -151 -142 -28 -57 -28 -58 -28 -257 0 -189 1
-203 24 -253 48 -106 157 -169 275 -160 78 7 132 34 185 94 61 69 71 116 71
319 0 216 -10 256 -83 330 -80 80 -190 106 -293 69z m116 -403 c0 -141 -6
-165 -35 -141 -12 10 -15 41 -15 146 l0 134 25 0 25 0 0 -139z M5050 5249
c-82 -34 -134 -111 -134 -199 1 -61 18 -101 60 -144 61 -60 65 -61 354 -61
289 0 293 1 354 61 93 94 78 241 -32 319 l-44 30 -266 2 c-162 1 -277 -2 -292
-8z M4384 4260 c-51 -11 -98 -46 -123 -90 -31 -55 -27 -140 9 -189 51 -73 210
-150 403 -196 314 -75 836 -86 1192 -25 313 54 528 163 552 281 17 83 -6 144
-74 196 -31 24 -46 28 -99 28 -54 0 -67 -4 -108 -33 -152 -109 -574 -171 -988
-144 -304 19 -490 60 -616 135 -63 38 -101 48 -148 37z"/>
</g>
</svg>
