<?xml version="1.0" standalone="no"?>
<!DOCTYPE svg PUBLIC "-//W3C//DTD SVG 20010904//EN"
 "http://www.w3.org/TR/2001/REC-SVG-20010904/DTD/svg10.dtd">
<svg version="1.0" xmlns="http://www.w3.org/2000/svg"
 width="2048.000000pt" height="2048.000000pt" viewBox="0 0 2048.000000 2048.000000"
 preserveAspectRatio="xMidYMid meet">
<metadata>
Created by potrace 1.13, written by Peter Selinger 2001-2015
</metadata>
<g transform="translate(0.000000,2048.000000) scale(0.192120,-0.192120)"
fill="#000000" stroke="none">
<path d="M5153 10316 c-239 -46 -375 -142 -375 -265 l1 -48 -46 -7 c-102 -14
-287 -61 -440 -111 -516 -172 -953 -444 -1348 -840 -290 -289 -502 -587 -670
-938 -118 -247 -212 -538 -246 -764 -8 -57 -16 -80 -25 -76 -14 5 -62 -113
-93 -231 -61 -232 -44 -424 47 -544 166 -219 609 -463 1107 -611 438 -130 913
-208 1550 -253 278 -20 1219 -17 1505 5 765 59 1334 173 1820 366 326 130 640
333 762 493 68 89 97 231 79 379 -20 158 -99 406 -126 395 -10 -3 -15 10 -20
47 -22 166 -90 414 -168 608 -415 1033 -1386 1848 -2449 2057 l-137 27 1 47
c0 109 -107 196 -308 249 -102 27 -318 35 -421 15z m-206 -465 c155 -78 448
-96 649 -41 90 24 141 49 212 102 l53 40 12 -34 c28 -79 74 -154 105 -175 18
-12 65 -32 105 -44 95 -29 315 -110 452 -166 171 -70 375 -178 539 -287 83
-55 159 -101 168 -102 46 -4 367 -309 505 -480 286 -354 469 -688 573 -1046
81 -281 84 -286 197 -362 l63 -43 -23 -20 c-36 -34 -184 -126 -297 -186 -514
-272 -1257 -461 -2090 -532 -543 -45 -1218 -44 -1735 5 -816 77 -1491 250
-2012 516 -122 62 -278 158 -320 197 l-23 20 63 44 c95 67 118 104 152 247 26
110 94 305 151 429 207 453 499 834 884 1155 47 40 87 66 91 61 4 -6 42 15 90
49 263 187 524 313 973 468 222 77 241 89 274 177 11 28 25 65 31 80 l11 28
52 -39 c29 -22 72 -49 95 -61z m-2630 -3022 c295 -155 649 -286 1033 -384 52
-13 124 -34 160 -45 208 -67 729 -139 1235 -171 243 -16 937 -16 1170 0 486
32 978 98 1185 158 47 13 166 47 266 74 385 104 625 193 917 340 98 49 185 89
193 89 11 0 14 -23 14 -120 0 -99 -3 -128 -19 -158 -78 -154 -453 -355 -926
-497 -674 -203 -1649 -296 -2670 -255 -761 31 -1375 126 -1875 291 -335 110
-655 274 -767 391 -77 82 -83 99 -83 231 0 62 3 117 7 120 10 11 40 -1 160
-64z M4874 9715 c-34 -7 -79 -22 -101 -34 -71 -36 -400 -402 -591 -656 -370
-494 -547 -851 -645 -1305 -54 -246 -58 -294 -55 -610 3 -295 3 -295 28 -335
l25 -40 7 210 c16 535 116 992 294 1346 198 396 509 810 926 1235 104 105 188
194 188 197 0 9 -1 8 -76 -8z M5710 9723 c0 -4 78 -86 173 -182 337 -342 574
-635 782 -966 93 -148 212 -385 263 -525 109 -296 174 -682 189 -1107 3 -106
10 -190 15 -187 4 3 17 24 28 47 18 37 20 62 20 277 0 245 -7 330 -41 515 -58
307 -105 458 -231 735 -91 200 -346 595 -517 800 -207 248 -446 509 -494 538
-47 29 -187 70 -187 55z M5072 7988 c-73 -11 -207 -56 -287 -96 -203 -102
-346 -248 -416 -426 -25 -63 -28 -84 -29 -187 0 -89 4 -129 19 -172 53 -155
181 -302 331 -385 68 -37 187 -76 305 -99 128 -25 521 -25 650 0 128 26 237
61 335 110 123 61 240 178 301 302 l44 90 3 131 c3 111 1 139 -17 189 -96 273
-410 487 -786 534 -108 14 -383 19 -453 9z m441 -173 c124 -19 260 -64 357
-118 105 -59 211 -165 252 -253 30 -64 33 -77 33 -169 0 -92 -3 -106 -32 -168
-117 -246 -462 -402 -853 -384 -340 16 -630 168 -733 384 -29 62 -32 76 -32
168 0 92 3 105 33 169 41 88 147 194 252 253 199 112 470 156 723 118z M1742
6424 c-249 -67 -457 -350 -541 -735 -116 -536 49 -1143 373 -1370 148 -104
291 -124 450 -63 11 4 16 -7 21 -48 104 -829 404 -1620 849 -2233 146 -202
341 -423 494 -562 491 -444 977 -684 1577 -780 156 -25 574 -25 730 0 269 43
507 113 732 214 984 443 1755 1464 2072 2743 46 185 98 460 116 613 5 45 10
57 21 53 159 -61 302 -41 450 63 186 130 328 394 385 717 16 91 21 160 21 294
0 134 -5 203 -21 294 -81 458 -329 782 -621 813 -32 3 -70 3 -85 -1 -25 -6
-27 -10 -20 -43 16 -84 63 -145 136 -173 131 -52 220 -138 292 -283 91 -183
104 -253 114 -611 6 -244 0 -303 -49 -451 -57 -173 -173 -342 -275 -402 -57
-33 -139 -53 -223 -53 -85 -1 -135 -24 -214 -100 -94 -90 -117 -145 -159 -380
-19 -107 -40 -229 -47 -270 -28 -183 -96 -398 -192 -610 -38 -85 -101 -225
-140 -310 -162 -361 -224 -468 -425 -738 -189 -253 -550 -575 -869 -775 -303
-190 -601 -304 -961 -369 -113 -20 -160 -23 -403 -23 -296 0 -386 10 -624 71
-430 108 -840 339 -1240 698 -217 195 -485 545 -658 861 -281 513 -422 916
-538 1535 -34 178 -52 222 -123 298 -81 85 -122 104 -240 113 -81 6 -112 14
-161 38 -153 75 -287 277 -341 515 -13 57 -15 124 -13 390 l3 321 28 80 c56
159 149 312 231 379 23 20 77 51 118 70 84 40 119 79 139 160 10 40 10 50 -2
57 -21 13 -107 10 -167 -7z M3857 5316 c-98 -35 -166 -111 -187 -210 -8 -33
-10 -157 -8 -361 3 -302 4 -311 27 -363 43 -96 145 -162 251 -162 75 0 139 27
197 85 80 80 83 99 83 470 0 371 -3 390 -83 470 -79 78 -184 105 -280 71z
M6620 5313 c-26 -9 -66 -38 -96 -68 -81 -80 -84 -99 -84 -470 0 -361 4 -383
76 -463 131 -147 363 -113 451 66 l28 57 0 340 c0 324 -1 342 -21 385 -30 65
-70 107 -128 137 -65 33 -161 40 -226 16z M4959 3646 c-112 -40 -181 -141
-181 -263 0 -114 74 -221 180 -257 38 -13 103 -16 372 -16 364 0 385 3 458 66
153 131 114 380 -72 465 -38 17 -69 19 -381 18 -252 0 -349 -3 -376 -13z m642
-206 c75 -14 89 -45 45 -97 l-24 -28 -295 0 -295 0 -26 24 c-47 44 -32 87 35
100 62 12 496 13 560 1z M4140 2541 c-113 -36 -200 -152 -200 -266 0 -99 70
-204 169 -254 225 -114 612 -233 901 -278 159 -24 481 -24 640 0 291 45 674
163 899 277 176 89 223 294 100 434 -53 59 -107 87 -184 93 -69 6 -97 -1 -220
-55 -270 -118 -550 -193 -798 -212 -294 -22 -651 50 -1020 207 -107 46 -144
57 -197 59 -36 2 -76 0 -90 -5z m215 -250 c44 -16 139 -50 210 -76 272 -98
520 -145 765 -145 253 0 503 49 792 156 84 31 179 65 211 75 67 22 137 25 155
7 19 -19 14 -63 -9 -93 -56 -71 -477 -210 -805 -267 -154 -26 -479 -31 -629
-10 -349 50 -826 208 -888 294 -23 31 -17 74 11 81 47 12 113 5 187 -22z"/>
</g>
</svg>
