<?xml version="1.0" standalone="no"?>
<!DOCTYPE svg PUBLIC "-//W3C//DTD SVG 20010904//EN"
 "http://www.w3.org/TR/2001/REC-SVG-20010904/DTD/svg10.dtd">
<svg version="1.0" xmlns="http://www.w3.org/2000/svg"
 width="2048.000000pt" height="2048.000000pt" viewBox="0 0 2048.000000 2048.000000"
 preserveAspectRatio="xMidYMid meet">
<metadata>
Created by potrace 1.13, written by Peter Selinger 2001-2015
</metadata>
<g transform="translate(0.000000,2048.000000) scale(0.192120,-0.192120)"
fill="#000000" stroke="none">
<path d="M3940 9217 l0 -558 -415 3 -415 3 0 -277 0 -278 -280 0 -280 0 0
-280 0 -280 -277 0 -278 0 3 -970 2 -970 -555 0 -555 0 -2 1526 -3 1525 -278
2 -277 2 0 -1527 0 -1528 281 0 282 0 -5 -280 -4 -280 558 0 558 0 -2 -970 -3
-970 558 0 557 0 0 -695 0 -695 -557 0 -558 0 0 -555 0 -555 558 0 557 0 0
555 0 555 695 0 696 0 -3 695 -3 695 835 0 835 0 -3 -695 -3 -695 696 0 695 0
0 -555 0 -555 558 0 557 0 0 555 0 555 -557 0 -558 0 0 695 0 695 558 0 557 0
-3 970 -2 970 558 0 559 0 -5 280 -5 280 282 0 281 0 0 1528 0 1527 -277 -2
-278 -2 -3 -1525 -2 -1526 -555 0 -555 0 2 970 3 970 -277 0 -278 0 0 280 0
280 -280 0 -280 0 0 278 0 277 -415 -3 -415 -3 0 558 0 558 -280 0 -281 0 1
-555 1 -555 -831 0 -831 0 1 555 1 555 -281 0 -280 0 0 -558z m290 -102 c0
-368 0 -375 20 -375 17 0 20 -7 20 -40 0 -22 4 -40 8 -40 4 0 14 -16 21 -35
17 -49 159 -191 218 -218 l48 -22 765 0 c761 0 765 0 811 21 54 25 168 133
194 184 10 19 21 37 24 40 16 13 31 53 31 80 0 20 5 30 15 30 13 0 15 48 15
375 0 368 0 375 20 375 20 0 20 -7 20 -375 0 -327 2 -375 15 -375 10 0 15 -10
15 -30 0 -27 15 -67 31 -80 3 -3 14 -19 22 -37 24 -46 144 -160 197 -186 42
-21 60 -22 303 -25 l257 -3 0 -100 c0 -81 3 -99 15 -99 10 0 15 -11 15 -35 0
-19 3 -35 8 -35 4 0 16 -21 27 -48 23 -56 141 -179 198 -205 48 -23 133 -37
225 -37 l72 0 0 -95 c0 -57 4 -95 10 -95 6 0 10 -18 10 -40 0 -22 5 -40 10
-40 6 0 10 -6 10 -13 0 -7 7 -22 15 -32 8 -11 28 -39 45 -62 45 -64 142 -140
202 -158 28 -8 84 -15 124 -15 39 0 86 -3 103 -6 l31 -6 0 -789 c0 -519 3
-789 10 -789 6 0 10 -16 10 -35 0 -19 4 -35 8 -35 4 0 14 -16 21 -35 18 -51
80 -124 155 -184 36 -29 66 -57 66 -61 0 -5 -49 -58 -110 -119 -60 -60 -112
-121 -116 -135 -3 -14 -10 -26 -15 -26 -5 0 -9 -9 -9 -20 0 -11 -4 -20 -10
-20 -7 0 -10 -265 -10 -775 0 -768 0 -775 -20 -775 -17 0 -20 -7 -20 -44 l0
-45 -382 -3 c-334 -3 -388 -5 -420 -20 -47 -21 -216 -183 -224 -215 -4 -12
-10 -23 -15 -23 -5 0 -9 -9 -9 -20 0 -11 -7 -23 -15 -26 -13 -5 -15 -70 -15
-500 0 -487 0 -494 -20 -494 -17 0 -20 -7 -20 -40 l0 -40 -415 0 -415 0 0 40
c0 29 -4 40 -15 40 -13 0 -15 62 -15 495 0 323 -3 495 -10 495 -5 0 -10 11
-10 25 0 14 -4 25 -9 25 -5 0 -12 12 -15 26 -10 39 -155 180 -212 206 l-49 23
-765 0 c-763 0 -765 0 -812 -22 -55 -25 -216 -176 -224 -210 -4 -12 -10 -23
-15 -23 -5 0 -9 -9 -9 -19 0 -11 -4 -23 -10 -26 -6 -4 -10 -182 -10 -501 0
-487 0 -494 -20 -494 -17 0 -20 -7 -20 -40 l0 -40 -415 0 -415 0 0 40 c0 33
-3 40 -20 40 -20 0 -20 7 -20 493 0 271 -4 497 -8 502 -5 6 -14 29 -20 51 -10
33 -33 62 -107 132 -132 127 -110 122 -572 122 l-373 0 0 45 c0 33 -4 45 -15
45 -13 0 -15 93 -15 775 0 445 -4 775 -9 775 -5 0 -12 16 -15 35 -4 19 -11 35
-16 35 -5 0 -11 9 -15 20 -3 10 -51 65 -106 120 -54 56 -99 105 -99 109 0 5
21 26 48 47 42 34 70 62 133 130 10 12 19 29 19 37 0 9 7 23 16 32 9 9 19 36
22 61 2 24 9 44 13 44 5 0 9 349 9 790 0 435 1 790 3 791 1 1 58 4 127 8 94 6
137 13 172 28 59 27 165 133 198 198 14 28 28 52 33 53 4 2 7 21 7 43 0 21 5
39 10 39 6 0 10 38 10 95 l0 95 78 0 c96 0 180 14 229 37 21 10 69 48 106 85
73 73 117 150 117 206 0 17 5 32 10 32 6 0 10 40 10 99 l0 100 268 3 c253 3
269 4 312 25 52 26 151 119 189 178 14 22 28 42 31 45 16 15 30 54 30 80 0 20
5 30 15 30 13 0 15 48 15 375 0 327 2 375 15 375 13 0 15 -48 15 -375z m-1410
-7960 l0 -275 -280 0 -280 0 0 275 0 275 280 0 280 0 0 -275z m5560 0 l0 -275
-280 0 -280 0 0 275 0 275 280 0 280 0 0 -275z M3815 6980 c-49 -4 -107 -14
-127 -23 -46 -19 -216 -182 -224 -214 -4 -12 -10 -23 -15 -23 -11 0 -12 -2217
-1 -2222 4 -1 17 -23 28 -48 29 -60 81 -119 154 -173 87 -66 115 -69 631 -65
l434 3 55 26 c70 34 160 125 197 198 15 31 31 58 36 59 10 5 9 2222 -2 2222
-5 0 -12 11 -15 24 -9 37 -138 169 -196 200 -45 25 -70 30 -164 37 -133 9
-664 9 -791 -1z m958 -1371 l-2 -1110 -553 0 -553 0 -3 1111 -2 1110 557 0
558 0 -2 -1111z M6035 6981 c-71 -6 -102 -13 -142 -36 -58 -31 -213 -183 -213
-209 0 -9 -4 -16 -10 -16 -7 0 -10 -377 -10 -1110 0 -610 4 -1110 8 -1110 4 0
14 -16 21 -35 24 -67 141 -185 221 -224 l55 -26 434 -3 c514 -4 544 -1 629 63
32 24 69 58 83 76 13 18 32 40 42 48 9 9 17 23 17 33 0 9 8 24 18 34 16 17 17
85 17 1144 0 985 -2 1128 -15 1145 -8 10 -54 58 -102 106 -123 125 -103 120
-578 124 -212 2 -426 0 -475 -4z m963 -1371 l-3 -1111 -553 0 -553 0 -2 1110
-2 1111 558 0 557 0 -2 -1110z"/>
</g>
</svg>
