<?xml version="1.0" standalone="no"?>
<!DOCTYPE svg PUBLIC "-//W3C//DTD SVG 20010904//EN"
 "http://www.w3.org/TR/2001/REC-SVG-20010904/DTD/svg10.dtd">
<svg version="1.0" xmlns="http://www.w3.org/2000/svg"
 width="2048.000000pt" height="2048.000000pt" viewBox="0 0 2048.000000 2048.000000"
 preserveAspectRatio="xMidYMid meet">
<metadata>
Created by potrace 1.13, written by Peter Selinger 2001-2015
</metadata>
<g transform="translate(0.000000,2048.000000) scale(0.192120,-0.192120)"
fill="#000000" stroke="none">
<path d="M3867 10200 c-628 -56 -1207 -297 -1719 -712 -62 -51 -176 -155 -253
-232 -844 -847 -1284 -2188 -1285 -3916 0 -620 -38 -1609 -101 -2625 -38 -625
-126 -1817 -164 -2218 -8 -86 -15 -159 -15 -162 0 -3 250 -5 555 -5 l555 0 0
183 c0 264 20 413 82 607 79 248 216 469 407 660 228 227 471 368 762 444 160
41 231 48 589 53 190 3 346 6 348 8 8 7 -13 34 -41 50 -43 26 -181 25 -416 -5
-204 -25 -833 -152 -981 -197 -154 -47 -422 -291 -568 -518 -188 -291 -283
-584 -308 -952 -6 -87 -9 -102 -25 -106 -14 -4 -19 -14 -19 -41 l0 -36 -384 0
-384 0 -6 22 c-14 54 -4 366 24 716 120 1528 181 2678 200 3767 11 703 17 862
36 1090 89 1070 357 1917 822 2605 111 163 254 331 457 535 301 303 704 559
1115 707 103 37 115 40 305 78 234 46 327 59 515 70 230 13 856 20 990 10 58
-4 106 -6 108 -5 13 11 -335 86 -513 110 -141 19 -544 28 -688 15z M6245
10200 c-206 -18 -475 -67 -604 -110 -45 -15 -48 -18 -16 -12 63 11 839 6 1050
-7 248 -15 464 -49 740 -117 134 -32 398 -138 416 -166 3 -5 9 -9 12 -9 4 0
19 -7 34 -15 213 -116 377 -221 522 -334 115 -89 299 -265 349 -334 20 -28 91
-116 157 -196 235 -282 258 -314 368 -510 282 -503 483 -1132 582 -1815 64
-448 73 -581 90 -1450 17 -897 41 -1500 90 -2288 8 -131 15 -307 15 -391 0
-133 50 -906 80 -1231 5 -60 10 -251 10 -422 l0 -313 -385 0 -385 0 0 35 c0
22 -6 38 -15 41 -10 4 -15 21 -15 53 0 130 -41 377 -87 531 -42 143 -168 403
-255 525 -34 50 -121 149 -193 221 -203 203 -263 232 -690 328 -313 69 -480
100 -665 122 -201 23 -336 24 -376 2 -27 -15 -51 -45 -42 -53 2 -2 158 -5 348
-8 295 -4 362 -7 464 -26 600 -108 1110 -554 1294 -1131 62 -194 82 -343 82
-607 l0 -183 555 0 c305 0 555 3 555 8 0 4 -7 77 -15 162 -80 853 -191 2515
-229 3460 -24 570 -27 674 -36 1295 -11 696 -25 913 -86 1330 -213 1452 -810
2514 -1759 3127 -392 253 -784 400 -1255 469 -152 22 -551 33 -705 19z M5030
9975 c-492 -63 -951 -220 -1400 -478 -162 -93 -294 -183 -487 -333 l-92 -71
-64 0 c-56 0 -71 -5 -108 -31 -112 -77 -176 -173 -165 -249 6 -43 4 -45 -100
-176 -304 -381 -517 -773 -668 -1229 -98 -297 -166 -608 -201 -929 -37 -330
-39 -1571 -5 -2209 61 -1118 231 -1752 511 -1905 45 -24 69 -30 141 -33 208
-10 416 43 1028 263 410 148 746 255 797 255 10 0 72 -27 138 -60 66 -33 125
-60 132 -60 10 0 13 -52 13 -230 l0 -231 -417 1 -418 1 -3 -693 -2 -693 1670
0 1670 0 -2 693 -3 693 -417 -1 -418 -1 0 228 0 228 58 24 c33 12 94 42 137
66 l78 43 91 -25 c161 -43 374 -113 701 -230 630 -227 805 -273 1037 -273 183
0 288 39 384 143 150 162 228 493 264 1122 28 496 42 2403 20 2710 -34 454
-121 862 -271 1263 -152 406 -354 752 -653 1121 -58 72 -60 76 -61 135 0 68
-15 96 -89 174 -56 60 -122 92 -187 92 -51 0 -56 3 -188 103 -180 137 -352
252 -491 329 -36 19 -87 47 -113 62 -27 14 -99 49 -160 78 -339 154 -641 246
-1007 303 -143 23 -538 29 -680 10z m765 -254 c339 -60 659 -167 980 -328 131
-65 175 -95 175 -120 0 -8 -8 -16 -17 -19 -10 -3 -27 -10 -38 -14 -26 -11
-336 -37 -625 -52 -300 -16 -1571 -16 -1880 0 -291 15 -598 41 -625 52 -11 4
-28 11 -37 14 -46 14 -9 53 112 118 304 163 717 301 1050 352 157 24 162 24
485 21 254 -2 318 -6 420 -24z m-2605 -645 c502 -89 1178 -130 2140 -130 738
0 1210 19 1690 69 218 23 492 63 552 81 20 6 166 -129 330 -306 l107 -115 -37
-13 c-89 -31 -376 -95 -564 -127 -582 -97 -1081 -134 -1904 -142 -921 -9
-1530 28 -2194 133 -310 49 -650 130 -650 155 0 5 92 102 204 215 154 156 209
205 223 201 10 -3 56 -13 103 -21z m-286 -721 c456 -106 1082 -176 1841 -206
331 -13 1142 -7 1440 10 667 40 1222 110 1620 207 55 13 113 24 129 24 61 0
118 -62 248 -270 251 -403 424 -878 508 -1390 20 -122 20 -163 20 -1738 0
-1657 -1 -1693 -41 -1922 -54 -308 -116 -437 -236 -497 -55 -26 -65 -28 -188
-27 -208 0 -384 44 -846 208 -447 159 -489 177 -489 214 0 8 63 78 139 156
145 146 217 229 319 364 361 480 632 1125 741 1762 38 226 43 289 39 540 -5
273 -9 294 -94 480 -76 170 -153 281 -283 408 -256 251 -593 420 -998 502
-175 34 -286 46 -563 60 -113 5 -261 19 -329 30 -406 67 -884 238 -1404 503
-82 42 -173 81 -202 88 -132 29 -172 1 -620 -442 -242 -239 -431 -416 -547
-512 -182 -151 -318 -283 -388 -376 -87 -116 -172 -299 -205 -442 -18 -82 -21
-514 -4 -649 64 -516 251 -1086 502 -1534 64 -115 217 -348 293 -447 86 -112
244 -287 346 -384 76 -71 89 -89 86 -112 -4 -39 -31 -52 -344 -164 -479 -171
-637 -218 -836 -246 -138 -19 -201 -10 -267 37 -143 104 -265 517 -331 1120
-38 342 -40 417 -40 1600 0 1122 1 1170 21 1304 90 619 284 1146 583 1586 39
58 89 124 112 147 51 54 69 55 268 8z m1365 -649 c346 -207 954 -457 1336
-551 234 -57 361 -75 605 -85 336 -15 512 -39 730 -101 593 -170 978 -534
1076 -1019 20 -102 16 -250 -15 -490 -132 -1022 -623 -1929 -1326 -2446 -44
-32 -113 -77 -153 -101 l-74 -41 -33 19 c-52 31 -120 26 -200 -13 -44 -22
-135 -112 -135 -134 0 -8 -4 -14 -10 -14 -6 0 -10 -83 -10 -230 0 -128 4 -230
9 -230 5 0 12 -11 15 -24 8 -34 78 -103 123 -124 32 -14 81 -17 306 -20 l267
-4 0 -509 0 -509 -1460 0 -1460 0 0 509 0 509 278 4 c265 3 279 4 324 26 25
13 53 33 61 45 8 12 24 33 36 46 11 13 21 30 21 38 0 7 5 13 10 13 6 0 10 80
10 219 0 246 0 244 -75 322 -85 87 -201 117 -286 73 -29 -15 -32 -14 -106 31
-166 101 -360 261 -514 424 -539 568 -880 1355 -975 2243 -37 346 6 573 152
795 70 108 192 230 399 399 228 187 350 302 693 653 167 171 308 311 314 311
6 0 36 -15 67 -34z M4105 6136 c-68 -31 -130 -101 -149 -167 -23 -75 -22 -374
0 -449 21 -72 98 -150 173 -175 101 -33 232 1 296 77 64 76 70 103 70 328 0
203 0 206 -27 255 -54 102 -138 154 -248 155 -47 0 -79 -7 -115 -24z M6325
6136 c-56 -25 -115 -86 -142 -143 -15 -32 -18 -69 -18 -243 0 -204 0 -205 28
-262 62 -126 205 -187 338 -143 75 25 152 103 173 175 22 75 23 374 0 449 -45
153 -233 236 -379 167z M5163 4769 c-43 -9 -80 -36 -97 -74 -22 -45 -20 -80 5
-125 37 -65 54 -70 259 -70 205 0 222 5 259 70 25 45 27 80 5 126 -31 65 -63
75 -243 77 -88 1 -173 -1 -188 -4z M4516 3966 c-145 -54 -145 -198 2 -309 319
-242 796 -316 1237 -191 100 28 248 95 322 144 61 42 140 117 159 152 52 99
-35 214 -163 212 -44 0 -63 -7 -130 -49 -256 -162 -473 -221 -714 -195 -181
20 -314 69 -500 186 -97 61 -150 73 -213 50z m811 -448 c-2 -24 -4 -5 -4 42 0
47 2 66 4 43 2 -24 2 -62 0 -85z"/>
</g>
</svg>
