<?xml version="1.0" standalone="no"?>
<!DOCTYPE svg PUBLIC "-//W3C//DTD SVG 20010904//EN"
 "http://www.w3.org/TR/2001/REC-SVG-20010904/DTD/svg10.dtd">
<svg version="1.0" xmlns="http://www.w3.org/2000/svg"
 width="2048.000000pt" height="2048.000000pt" viewBox="0 0 2048.000000 2048.000000"
 preserveAspectRatio="xMidYMid meet">
<metadata>
Created by potrace 1.13, written by Peter Selinger 2001-2015
</metadata>
<g transform="translate(0.000000,2048.000000) scale(0.192120,-0.192120)"
fill="#000000" stroke="none">
<path d="M5010 10043 c-339 -19 -748 -92 -1058 -189 -1169 -365 -1994 -1267
-2191 -2394 -82 -463 -38 -1140 100 -1569 84 -260 198 -421 299 -421 57 0 94
47 115 147 127 593 359 1108 682 1513 116 146 395 420 427 420 4 0 53 -37 109
-83 527 -431 933 -648 1132 -607 118 24 173 124 162 290 -4 47 -10 96 -13 110
-5 17 52 -32 174 -152 262 -255 517 -464 653 -533 162 -83 233 -38 209 134
-13 97 -75 279 -149 442 -32 71 -56 129 -52 129 3 -1 24 -19 46 -41 127 -126
408 -257 740 -344 345 -91 801 -152 1268 -171 l168 -7 299 -597 c253 -506 307
-606 350 -653 61 -67 103 -84 152 -64 183 77 301 652 302 1477 1 280 -2 353
-17 443 -85 501 -293 954 -636 1385 -109 136 -376 404 -509 510 -222 178 -427
308 -677 431 -455 225 -912 349 -1449 391 -117 9 -498 11 -636 3z m706 -258
c778 -74 1476 -361 2031 -837 215 -184 481 -493 610 -708 151 -252 240 -461
303 -712 l30 -117 0 -628 0 -628 -26 -145 c-14 -80 -28 -163 -31 -185 -6 -43
-27 -90 -50 -113 -33 -33 -81 47 -337 557 -232 462 -249 492 -299 536 -112 99
-142 108 -422 125 -677 41 -1179 147 -1586 335 -170 79 -220 94 -272 83 -54
-11 -78 -30 -116 -92 -32 -53 -33 -59 -28 -133 2 -43 10 -107 16 -143 7 -36
10 -80 6 -98 -6 -32 -6 -32 -35 -17 -43 22 -169 125 -343 279 -184 163 -234
200 -301 221 -44 13 -52 13 -84 -2 -53 -25 -110 -90 -148 -170 -20 -40 -39
-73 -43 -73 -4 0 -13 -11 -19 -25 -14 -30 -41 -32 -127 -10 -147 38 -403 191
-718 429 -168 126 -252 177 -314 191 -100 21 -260 -85 -460 -305 -202 -221
-344 -430 -490 -716 -121 -236 -208 -452 -270 -664 -30 -102 -58 -160 -78
-160 -37 0 -88 137 -133 359 l-27 136 0 550 0 550 28 120 c85 361 239 691 460
983 549 728 1428 1154 2547 1235 142 11 583 5 726 -8z M1740 5683 c-134 -146
-231 -368 -277 -633 -24 -135 -23 -422 1 -555 52 -287 152 -501 306 -656 82
-82 186 -143 269 -157 l44 -7 32 -150 c83 -384 193 -698 367 -1045 474 -949
1283 -1608 2213 -1804 246 -51 341 -60 635 -60 293 0 389 9 632 60 1106 233
2022 1107 2437 2328 65 191 114 366 149 536 l27 135 45 7 c176 30 368 218 474
464 173 397 161 945 -26 1319 -37 73 -119 193 -154 226 l-27 24 7 -40 c19
-116 53 -242 93 -345 77 -198 83 -238 83 -539 0 -146 -4 -278 -10 -295 -118
-382 -211 -528 -405 -636 -144 -80 -195 -151 -236 -330 -57 -250 -94 -362
-209 -630 -34 -80 -86 -205 -116 -279 -91 -225 -195 -406 -356 -621 -123 -164
-202 -248 -383 -410 -285 -253 -469 -381 -750 -520 -450 -223 -944 -322 -1448
-290 -680 42 -1240 276 -1792 750 -144 123 -157 136 -290 295 -394 472 -637
960 -805 1620 -71 278 -95 315 -268 414 -106 60 -151 99 -215 183 -66 88 -94
143 -138 268 l-34 95 0 370 c0 426 -4 401 106 637 74 159 122 338 90 338 -5 0
-37 -30 -71 -67z M3855 5593 c-68 -25 -107 -54 -144 -109 -48 -73 -53 -120
-49 -466 4 -349 4 -351 76 -430 50 -56 121 -88 196 -88 90 0 134 17 198 80 87
85 90 99 86 497 l-3 328 -30 53 c-67 123 -206 179 -330 135z M6659 5604 c-82
-15 -184 -114 -209 -202 -6 -22 -10 -167 -10 -348 0 -358 4 -387 73 -461 113
-123 301 -125 409 -5 74 82 73 76 73 462 0 380 0 377 -65 460 -54 68 -176 110
-271 94z M4944 3641 c-187 -85 -226 -334 -72 -465 73 -63 94 -66 458 -66 364
0 385 3 458 66 154 131 115 380 -72 465 -38 17 -70 19 -386 19 -316 0 -348 -2
-386 -19z M6649 2551 c-36 -11 -65 -28 -115 -66 -114 -87 -417 -162 -789 -195
-167 -15 -661 -15 -830 0 -376 33 -657 103 -798 199 -77 53 -116 64 -196 59
-103 -8 -181 -59 -229 -152 -21 -41 -26 -65 -25 -121 0 -116 47 -188 171 -266
317 -200 889 -301 1617 -286 574 12 967 85 1274 234 189 93 271 192 271 329 0
173 -187 314 -351 265z m-2509 -349 c120 -57 259 -107 327 -117 36 -5 48 -16
29 -27 -9 -5 -22 -6 -29 -1 -6 4 -20 6 -29 5 -10 -2 -18 0 -18 5 0 4 -12 9
-27 9 -68 4 -103 10 -103 18 0 4 -7 6 -15 2 -8 -3 -15 -1 -15 5 0 6 -4 7 -10
4 -12 -8 -146 37 -219 74 -64 33 -86 54 -78 75 8 21 68 5 187 -52z m2565 58
c12 -20 -22 -52 -90 -85 -86 -41 -193 -78 -206 -70 -5 4 -9 2 -9 -4 0 -6 -7
-8 -15 -5 -8 4 -15 2 -15 -2 0 -8 -35 -14 -102 -18 -16 0 -28 -5 -28 -9 0 -5
-8 -7 -17 -6 -10 1 -26 -1 -36 -6 -21 -9 -46 9 -27 20 6 4 21 8 33 10 33 5 59
12 92 25 17 6 37 13 45 15 30 6 124 47 222 95 98 49 141 60 153 40z m-2150
-211 c-11 -17 -35 -9 -35 11 0 18 3 19 20 10 11 -6 18 -15 15 -21z m1581 -6
c-3 -3 -13 -2 -23 1 -17 7 -17 8 2 22 18 13 20 13 23 -1 2 -9 1 -19 -2 -22z
m-1526 2 c0 -8 -7 -15 -15 -15 -8 0 -15 7 -15 15 0 8 7 15 15 15 8 0 15 -7 15
-15z m1470 0 c0 -8 -6 -15 -14 -15 -17 0 -28 14 -19 24 12 12 33 6 33 -9z
m-1407 -10 c1 -5 -6 -11 -15 -13 -11 -2 -18 3 -18 13 0 17 30 18 33 0z m1337
-1 c0 -17 -22 -14 -28 4 -2 7 3 12 12 12 9 0 16 -7 16 -16z m-1256 -3 c3 -5
-1 -12 -10 -15 -22 -9 -24 -8 -24 9 0 16 25 21 34 6z m1186 -7 c0 -11 -5 -14
-16 -10 -9 3 -18 6 -20 6 -3 0 -2 5 1 10 10 16 35 12 35 -6z m-1096 -3 c3 -5
-1 -11 -9 -15 -9 -3 -15 0 -15 9 0 16 16 20 24 6z m996 -5 c0 -9 -7 -12 -21
-9 -16 4 -17 8 -7 14 19 13 28 11 28 -5z m-862 -5 c10 -6 7 -10 -12 -13 -18
-4 -26 -1 -26 8 0 16 18 18 38 5z m742 -5 c0 -9 -8 -12 -26 -8 -19 3 -22 7
-12 13 20 13 38 11 38 -5z m-505 -5 l40 -9 -35 -1 c-19 -1 -45 -4 -57 -7 -17
-5 -23 -2 -23 10 0 18 15 19 75 7z m295 -7 c0 -11 -5 -14 -16 -10 -9 3 -34 7
-57 7 l-42 2 35 7 c60 13 80 11 80 -6z"/>
</g>
</svg>
