<?xml version="1.0" standalone="no"?>
<!DOCTYPE svg PUBLIC "-//W3C//DTD SVG 20010904//EN"
 "http://www.w3.org/TR/2001/REC-SVG-20010904/DTD/svg10.dtd">
<svg version="1.0" xmlns="http://www.w3.org/2000/svg"
 width="2048.000000pt" height="2048.000000pt" viewBox="0 0 2048.000000 2048.000000"
 preserveAspectRatio="xMidYMid meet">
<metadata>
Created by potrace 1.13, written by Peter Selinger 2001-2015
</metadata>
<g transform="translate(0.000000,2048.000000) scale(0.192120,-0.192120)"
fill="#000000" stroke="none">
<path d="M5153 10316 c-239 -46 -375 -142 -375 -265 l1 -48 -46 -7 c-102 -14
-287 -61 -440 -111 -516 -172 -953 -444 -1348 -840 -290 -289 -502 -587 -670
-938 -118 -247 -212 -538 -246 -764 -8 -57 -16 -80 -25 -76 -14 5 -62 -113
-93 -231 -60 -228 -45 -417 43 -540 79 -112 288 -265 521 -383 524 -264 1202
-419 2115 -483 399 -28 1211 -23 1625 11 687 55 1264 175 1725 358 325 129
659 345 765 496 66 92 94 231 76 376 -20 158 -99 406 -126 395 -10 -3 -15 10
-20 47 -22 166 -90 414 -168 608 -415 1033 -1386 1848 -2449 2057 l-137 27 1
47 c0 109 -107 196 -308 249 -102 27 -318 35 -421 15z m-206 -465 c155 -78
448 -96 649 -41 90 24 141 49 212 102 l53 40 12 -34 c28 -79 74 -154 105 -175
18 -12 65 -32 105 -44 95 -29 315 -110 452 -166 171 -70 375 -178 539 -287 83
-55 159 -101 168 -102 46 -4 367 -309 505 -480 286 -354 469 -688 573 -1046
81 -281 84 -286 197 -362 l63 -43 -23 -20 c-36 -34 -184 -126 -297 -186 -514
-272 -1257 -461 -2090 -532 -543 -45 -1218 -44 -1735 5 -816 77 -1491 250
-2012 516 -122 62 -278 158 -320 197 l-23 20 63 44 c95 67 118 104 152 247 26
110 94 305 151 429 207 453 499 834 884 1155 47 40 87 66 91 61 4 -6 42 15 90
49 263 187 524 313 973 468 222 77 241 89 274 177 11 28 25 65 31 80 l11 28
52 -39 c29 -22 72 -49 95 -61z m-2630 -3022 c295 -155 649 -286 1033 -384 52
-13 124 -34 160 -45 208 -67 729 -139 1235 -171 243 -16 937 -16 1170 0 486
32 978 98 1185 158 47 13 166 47 266 74 385 104 625 193 917 340 98 49 185 89
193 89 21 0 20 -209 -2 -256 -48 -101 -315 -269 -614 -387 -574 -225 -1270
-340 -2215 -367 -1031 -28 -1963 73 -2618 286 -422 137 -810 353 -864 481 -14
34 -19 234 -6 246 10 11 40 -1 160 -64z M4874 9715 c-34 -7 -79 -22 -101 -34
-71 -36 -400 -402 -591 -656 -370 -494 -547 -851 -645 -1305 -54 -246 -58
-294 -55 -610 3 -295 3 -295 28 -335 l25 -40 7 210 c16 535 116 992 294 1346
198 396 509 810 926 1235 104 105 188 194 188 197 0 9 -1 8 -76 -8z M5710
9723 c0 -4 78 -86 173 -182 337 -342 574 -635 782 -966 93 -148 212 -385 263
-525 109 -296 174 -682 189 -1107 3 -106 10 -190 15 -187 4 3 17 24 28 47 18
37 20 62 20 277 0 245 -7 330 -41 515 -58 307 -105 458 -231 735 -91 200 -346
595 -517 800 -207 248 -446 509 -494 538 -47 29 -187 70 -187 55z M5072 7988
c-73 -11 -207 -56 -287 -96 -203 -102 -346 -248 -416 -426 -25 -63 -28 -84
-29 -187 0 -89 4 -129 19 -172 53 -155 181 -302 331 -385 68 -37 187 -76 305
-99 128 -25 521 -25 650 0 128 26 237 61 335 110 123 61 240 178 301 302 l44
90 3 131 c3 111 1 139 -17 189 -96 273 -410 487 -786 534 -108 14 -383 19
-453 9z m441 -173 c124 -19 260 -64 357 -118 105 -59 211 -165 252 -253 30
-64 33 -77 33 -169 0 -92 -3 -106 -32 -168 -117 -246 -462 -402 -853 -384
-340 16 -630 168 -733 384 -29 62 -32 76 -32 168 0 92 3 105 33 169 41 88 147
194 252 253 199 112 470 156 723 118z M1754 6425 c-266 -58 -489 -374 -565
-801 -30 -167 -30 -421 0 -588 59 -332 207 -600 402 -730 123 -81 262 -106
378 -67 35 12 65 20 67 18 2 -2 11 -56 19 -121 139 -1059 645 -2094 1330
-2719 588 -537 1239 -807 1945 -807 978 0 1888 539 2524 1495 401 602 665
1333 761 2108 6 45 8 48 28 42 126 -40 179 -44 272 -20 264 69 482 383 556
801 29 166 29 422 0 588 -81 455 -311 760 -613 810 l-36 7 7 -34 c16 -68 35
-90 119 -142 158 -96 234 -189 316 -383 64 -153 86 -309 86 -618 0 -163 -4
-214 -20 -281 -68 -283 -209 -502 -376 -584 -55 -27 -79 -33 -177 -39 -127 -9
-170 -25 -224 -82 -73 -77 -93 -150 -178 -648 -26 -150 -107 -411 -169 -541
-19 -41 -51 -112 -72 -159 -20 -47 -49 -111 -65 -142 -15 -31 -47 -101 -70
-155 -108 -256 -225 -447 -428 -703 -101 -128 -188 -217 -366 -375 -197 -174
-254 -220 -410 -324 -457 -306 -929 -453 -1455 -454 -427 -1 -771 79 -1155
268 -290 142 -537 318 -814 580 -173 164 -462 542 -581 760 -18 33 -50 89 -70
125 -144 250 -294 622 -395 980 -47 166 -78 300 -120 530 -28 152 -45 197 -97
255 -50 57 -98 76 -217 86 -87 7 -116 14 -168 39 -151 75 -271 233 -354 470
l-34 95 -3 339 c-3 294 -1 349 14 410 37 154 144 353 242 449 27 27 85 72 128
100 79 52 99 77 114 144 9 38 11 37 -76 18z M3859 5318 c-60 -16 -130 -77
-164 -143 l-30 -59 0 -340 c0 -338 0 -341 24 -394 84 -186 331 -218 465 -60
61 71 66 103 66 453 0 371 -3 390 -83 470 -77 76 -172 102 -278 73z M6620
5313 c-26 -9 -66 -38 -96 -68 -81 -80 -84 -99 -84 -470 0 -356 4 -383 71 -459
53 -60 107 -87 185 -94 118 -9 218 48 271 156 l28 57 0 340 c0 325 -1 342 -21
386 -48 103 -130 159 -243 165 -44 3 -81 -2 -111 -13z M4944 3641 c-187 -85
-226 -334 -72 -465 73 -63 94 -66 458 -66 364 0 385 3 458 66 154 131 115 380
-72 465 -38 17 -70 19 -386 19 -316 0 -348 -2 -386 -19z M4105 2526 c-93 -43
-165 -153 -165 -251 0 -102 68 -203 170 -255 224 -113 610 -232 900 -277 159
-24 481 -24 640 0 292 46 674 163 899 276 178 90 224 294 99 436 -56 63 -124
95 -203 94 -63 0 -79 -5 -215 -64 -174 -75 -433 -154 -606 -185 -343 -60 -730
-4 -1144 166 -203 84 -201 83 -265 83 -43 1 -75 -6 -110 -23z m306 -304 c41
-16 83 -33 94 -37 11 -5 22 -9 25 -10 3 -1 17 -7 31 -13 15 -6 46 -16 70 -22
24 -7 49 -15 54 -18 6 -4 12 -7 15 -7 3 -1 21 -6 40 -12 19 -7 54 -17 78 -23
25 -6 42 -17 42 -25 0 -19 -10 -19 -95 4 -39 10 -78 17 -88 15 -9 -1 -19 2
-23 7 -3 5 -10 7 -15 4 -5 -4 -9 -1 -9 5 0 6 -4 9 -9 6 -17 -11 -313 94 -339
121 -7 7 -18 13 -23 13 -5 0 -9 7 -9 16 0 23 66 13 161 -24z m1989 24 c0 -8
-15 -24 -34 -36 -48 -29 -277 -112 -293 -106 -7 3 -13 1 -13 -4 0 -5 -7 -7
-15 -4 -8 4 -15 1 -15 -5 0 -6 -3 -10 -7 -10 -5 1 -10 0 -13 -1 -3 -1 -18 -3
-35 -5 -16 -2 -59 -11 -94 -20 -35 -9 -69 -14 -77 -11 -7 3 -14 0 -16 -6 -3
-7 -12 -9 -23 -4 -21 8 -10 24 21 31 10 2 51 13 89 25 91 27 86 25 118 38 16
7 32 12 37 12 10 0 118 41 180 68 54 24 142 51 168 51 13 1 22 -5 22 -13z
m-1495 -207 c-11 -17 -35 -9 -35 11 0 18 3 19 20 10 11 -6 18 -15 15 -21z m50
-10 c-11 -17 -35 -9 -35 11 0 18 3 19 20 10 11 -6 18 -15 15 -21z m781 -6 c-3
-3 -13 -2 -23 1 -17 7 -17 8 2 22 18 13 20 13 23 -1 2 -9 1 -19 -2 -22z m-50
-10 c-3 -3 -13 -2 -23 1 -17 7 -17 8 2 22 18 13 20 13 23 -1 2 -9 1 -19 -2
-22z m-676 18 c0 -14 -18 -23 -30 -16 -6 4 -8 11 -5 16 8 12 35 12 35 0z m64
-10 c3 -5 -1 -12 -10 -15 -22 -9 -24 -8 -24 9 0 16 25 21 34 6z m546 -7 c0
-11 -5 -14 -16 -10 -9 3 -18 6 -20 6 -3 0 -2 5 1 10 10 16 35 12 35 -6z m-466
-3 c3 -5 -1 -12 -10 -15 -22 -9 -24 -8 -24 9 0 16 25 21 34 6z m386 -7 c0 -11
-5 -14 -16 -10 -9 3 -18 6 -20 6 -3 0 -2 5 1 10 10 16 35 12 35 -6z m-150 -9
c0 -12 -13 -15 -60 -15 -47 0 -60 3 -60 15 0 12 13 15 60 15 47 0 60 -3 60
-15z"/>
</g>
</svg>
