<?xml version="1.0" standalone="no"?>
<!DOCTYPE svg PUBLIC "-//W3C//DTD SVG 20010904//EN"
 "http://www.w3.org/TR/2001/REC-SVG-20010904/DTD/svg10.dtd">
<svg version="1.0" xmlns="http://www.w3.org/2000/svg"
 width="2048.000000pt" height="2048.000000pt" viewBox="0 0 2048.000000 2048.000000"
 preserveAspectRatio="xMidYMid meet">
<metadata>
Created by potrace 1.13, written by Peter Selinger 2001-2015
</metadata>
<g transform="translate(0.000000,2048.000000) scale(0.192120,-0.192120)"
fill="#000000" stroke="none">
<path d="M2215 10321 c-88 -23 -160 -84 -196 -166 -20 -45 -22 -66 -22 -200 2
-216 39 -453 109 -683 24 -80 25 -82 52 -76 49 12 89 31 111 55 28 30 28 116
1 257 -16 82 -20 144 -20 307 l0 205 24 0 c53 0 82 -43 240 -359 279 -554 413
-712 577 -681 29 6 53 9 54 8 27 -43 281 -375 328 -430 l66 -77 93 56 c216
131 527 262 748 317 295 73 516 90 1053 83 406 -6 507 -14 726 -58 298 -60
628 -195 923 -377 l36 -22 78 92 c43 51 132 165 197 253 81 108 125 159 136
157 110 -21 147 -12 224 51 84 69 194 251 401 665 127 253 174 322 216 322 19
0 20 -8 20 -222 0 -157 -4 -246 -15 -301 -20 -106 -20 -233 0 -254 18 -18 107
-53 134 -53 15 0 25 21 51 111 67 229 100 451 100 667 0 148 -13 198 -66 260
-76 90 -226 125 -319 75 -86 -46 -116 -91 -259 -391 -129 -271 -246 -494 -366
-698 -46 -76 -85 -142 -89 -146 -3 -4 -92 -25 -196 -47 -105 -22 -230 -49
-278 -60 -48 -12 -90 -21 -92 -21 -3 0 -5 46 -5 103 0 272 -67 685 -143 888
-79 210 -185 341 -310 383 -178 60 -428 -57 -670 -315 -172 -182 -407 -520
-508 -731 -13 -27 -26 -48 -29 -48 -4 0 -15 19 -26 43 -27 60 -170 296 -244
402 -216 310 -416 509 -605 600 -202 98 -347 84 -475 -46 -169 -171 -289 -604
-307 -1107 l-6 -173 -26 6 c-60 15 -373 85 -454 101 l-87 17 -79 131 c-139
232 -225 398 -454 872 -65 134 -119 204 -179 235 -45 23 -127 32 -173 20z
m2121 -329 c179 -62 393 -284 637 -660 79 -123 90 -154 59 -171 -10 -5 -83
-15 -163 -21 -321 -25 -629 -93 -856 -191 -25 -10 -56 -19 -70 -19 l-26 0 6
163 c8 176 33 386 67 539 71 325 164 422 346 360z m2154 0 c19 -11 49 -40 67
-67 84 -127 163 -525 166 -839 2 -176 6 -172 -116 -125 -277 106 -499 152
-892 184 -127 11 -137 24 -83 109 194 310 369 526 518 641 134 103 260 139
340 97z M1815 9169 c-440 -56 -582 -276 -404 -631 67 -136 156 -263 258 -371
30 -31 52 -59 50 -61 -2 -1 -42 -27 -89 -57 -240 -152 -490 -343 -654 -499
-451 -432 -533 -817 -238 -1118 88 -91 216 -178 335 -229 45 -20 84 -37 86
-39 2 -1 -31 -49 -72 -106 -532 -733 -710 -1300 -524 -1678 48 -98 154 -212
251 -269 142 -84 357 -149 529 -158 53 -3 97 -9 97 -12 0 -3 -29 -21 -64 -39
-86 -44 -253 -154 -356 -234 -474 -367 -711 -771 -687 -1172 18 -304 144 -458
425 -519 82 -17 130 -21 307 -20 116 0 311 7 435 16 124 9 288 19 364 23 136
7 139 7 125 -12 -8 -11 -46 -62 -85 -114 -151 -202 -274 -426 -315 -577 -31
-113 -24 -233 17 -299 136 -221 598 -243 1367 -64 99 23 180 40 180 38 46 -93
68 -126 110 -164 93 -83 238 -137 467 -172 92 -14 280 -16 1505 -20 945 -2
1444 0 1535 8 415 33 621 120 706 298 13 28 28 52 32 52 4 0 95 -20 202 -45
650 -149 1087 -153 1273 -11 23 17 55 54 72 81 28 46 30 54 30 154 0 85 -5
121 -24 180 -49 148 -173 366 -321 562 l-78 104 34 3 c19 2 148 -4 286 -13
139 -8 344 -20 456 -27 396 -21 614 24 746 157 90 89 132 203 143 381 23 394
-202 787 -666 1157 -92 73 -289 203 -376 249 -36 18 -65 36 -65 39 0 3 46 9
103 12 220 13 469 104 613 225 88 74 164 186 201 294 25 77 27 94 27 243 0
147 -3 169 -32 276 -84 315 -280 686 -570 1082 -35 48 -63 89 -61 91 2 2 41
19 86 39 171 73 327 196 412 322 143 215 126 455 -52 720 -167 248 -520 557
-927 811 l-82 52 63 68 c175 193 296 408 318 567 32 229 -124 371 -459 416
-107 14 -313 23 -326 14 -6 -4 -32 -71 -58 -148 -133 -398 -339 -773 -590
-1073 l-94 -113 39 -59 c56 -85 140 -246 197 -380 41 -94 152 -392 152 -405 0
-2 -32 -4 -71 -4 -79 0 -85 -2 -265 -104 -456 -260 -1037 -423 -1579 -443
-135 -5 -168 -10 -210 -28 -112 -50 -165 -131 -165 -250 1 -109 41 -183 135
-245 38 -25 48 -26 190 -29 404 -9 943 98 1410 280 168 65 465 210 579 282 49
31 91 55 93 53 7 -8 63 -415 70 -517 l8 -105 35 -6 c63 -10 114 -42 185 -114
289 -295 418 -936 301 -1490 -69 -325 -207 -588 -416 -796 l-107 -106 -6 -134
c-10 -231 -75 -518 -174 -769 -134 -339 -370 -722 -598 -970 l-52 -57 -6 -174
c-3 -96 -10 -191 -16 -211 -11 -36 -14 -38 -52 -38 -46 0 -80 -15 -167 -77
-74 -53 -165 -96 -247 -119 -101 -27 -338 -29 -557 -5 -177 20 -237 21 -1170
21 -789 0 -1013 -3 -1133 -15 -219 -22 -418 -20 -540 4 -118 23 -185 51 -308
128 -84 53 -95 58 -149 58 l-57 0 -12 50 c-6 28 -14 125 -18 216 l-6 165 -68
75 c-161 175 -331 432 -465 699 -178 353 -275 695 -289 1019 l-6 134 -107 106
c-166 165 -283 357 -364 601 -166 497 -112 1125 131 1533 85 143 227 267 306
267 15 0 29 6 31 13 2 6 9 72 15 144 9 109 58 472 66 480 1 2 39 -21 84 -51
188 -124 548 -286 851 -384 370 -120 798 -192 1135 -192 135 0 149 2 194 24
96 49 150 139 151 249 0 110 -47 190 -141 242 -50 27 -63 29 -214 36 -278 14
-470 41 -720 103 -282 70 -644 210 -871 338 -181 103 -195 109 -256 109 -31 1
-66 -2 -78 -6 -26 -8 -28 -16 37 165 86 239 195 473 288 616 24 38 45 72 45
76 0 3 -30 42 -67 85 -91 105 -188 236 -268 363 -133 210 -316 616 -371 823
l-18 67 -126 -1 c-69 -1 -156 -5 -195 -10z m175 -309 c24 -13 49 -57 111 -197
72 -164 137 -293 210 -414 64 -108 215 -333 256 -382 13 -16 23 -42 23 -59 0
-17 -35 -107 -79 -202 -179 -389 -215 -543 -154 -651 14 -26 51 -73 82 -104
44 -45 75 -65 146 -95 50 -21 139 -65 200 -98 183 -100 361 -176 618 -264 215
-73 384 -114 656 -155 141 -22 172 -25 311 -34 99 -6 120 -12 120 -29 0 -11
-30 -13 -142 -10 -79 2 -143 4 -143 5 0 0 -45 2 -100 4 -181 7 -447 66 -825
185 -124 39 -232 72 -241 74 -87 21 -300 101 -409 153 -211 100 -254 101 -356
9 -86 -78 -119 -148 -151 -322 -35 -194 -60 -248 -151 -331 -98 -88 -167 -182
-245 -333 -73 -139 -135 -321 -167 -486 -17 -92 -20 -145 -20 -423 0 -274 3
-332 20 -426 16 -89 28 -265 17 -265 -1 0 -39 35 -83 79 -92 91 -141 118 -285
161 -253 74 -379 155 -423 272 -15 38 -17 74 -14 244 4 194 5 201 36 291 67
190 164 375 345 657 145 224 207 353 207 428 0 84 -138 256 -287 358 -119 82
-164 121 -195 169 -27 43 -28 49 -28 175 0 127 1 131 31 185 99 174 334 399
664 631 239 169 393 368 371 483 -10 52 -60 150 -147 283 -122 189 -149 246
-149 321 l0 61 43 16 c102 39 284 59 327 36z m6910 -16 c120 -27 120 -26 120
-104 0 -93 -12 -120 -149 -330 -139 -213 -158 -289 -100 -397 68 -127 158
-221 329 -343 276 -198 508 -404 607 -540 79 -109 83 -122 83 -285 0 -136 -2
-148 -24 -183 -29 -46 -67 -80 -171 -154 -100 -70 -245 -219 -279 -287 -53
-103 -30 -166 184 -506 193 -306 282 -479 339 -658 31 -96 31 -99 31 -313 0
-213 0 -216 -25 -259 -60 -101 -152 -158 -365 -225 -173 -54 -220 -79 -298
-154 -66 -63 -132 -152 -132 -177 1 -8 9 -32 20 -54 11 -22 19 -44 20 -49 0
-19 104 -148 160 -200 33 -30 110 -92 173 -139 311 -231 498 -438 582 -643 23
-56 25 -71 25 -257 0 -208 -2 -220 -48 -270 -71 -75 -294 -92 -812 -62 -410
24 -439 19 -571 -103 -77 -72 -129 -150 -129 -197 0 -64 38 -146 166 -357 137
-225 149 -255 149 -368 0 -92 -1 -95 -26 -107 -41 -20 -206 -35 -314 -28 -191
12 -447 49 -627 92 l-68 16 0 88 0 88 113 149 c371 495 596 1012 668 1541 12
86 23 165 25 176 4 20 15 35 145 195 71 87 139 197 230 369 32 61 64 110 77
116 18 8 21 20 24 85 2 41 17 134 34 205 l29 130 0 365 0 365 -32 127 c-40
159 -90 293 -159 429 -68 132 -127 211 -235 313 -111 104 -111 106 -165 391
-22 119 -58 188 -133 258 -94 87 -134 88 -317 7 -97 -43 -340 -135 -384 -145
-8 -2 -16 -4 -17 -5 -2 -2 -6 -3 -10 -4 -5 -1 -33 -10 -63 -21 -30 -11 -57
-20 -60 -20 -3 -1 -12 -4 -20 -8 -54 -22 -347 -106 -515 -148 -216 -54 -401
-82 -479 -74 -28 2 -52 1 -55 -3 -4 -4 -54 -5 -114 -2 -59 3 -107 2 -107 -2 0
-5 -9 -8 -20 -8 -14 0 -20 7 -20 21 0 16 5 20 18 17 10 -3 45 -2 78 3 32 4 95
11 138 14 44 3 82 8 85 10 3 1 31 6 61 9 263 28 647 132 958 260 182 74 642
312 684 353 20 20 50 62 67 93 58 109 38 236 -78 507 -32 76 -78 178 -101 226
-53 113 -54 140 -7 203 69 93 205 299 256 389 62 108 186 360 231 467 17 43
45 92 61 109 l30 32 82 -7 c45 -4 111 -13 147 -22z m-7233 -4961 c16 -21 43
-68 60 -104 38 -81 133 -237 182 -299 20 -25 66 -81 103 -125 60 -72 67 -87
73 -135 29 -252 66 -430 132 -635 119 -369 314 -731 588 -1091 l75 -98 0 -98
c0 -54 -4 -100 -10 -103 -6 -4 -77 -19 -158 -35 -385 -74 -709 -87 -822 -32
-34 17 -35 19 -38 83 -4 89 16 140 134 335 147 243 194 343 194 414 0 51 -49
128 -125 198 -124 114 -166 121 -540 98 -623 -38 -833 -11 -887 112 -17 39
-19 64 -16 230 l3 187 39 80 c21 44 64 116 94 160 74 106 259 288 405 400 225
171 275 214 338 294 35 43 78 106 94 140 17 33 35 60 42 61 6 0 24 -17 40 -37z
M3661 8364 c90 -92 236 -200 357 -263 107 -56 147 -93 179 -168 21 -50 21
-156 0 -206 -15 -35 -15 -41 -1 -69 46 -88 22 -211 -56 -288 -79 -80 -188
-108 -294 -76 -41 13 -52 13 -81 0 -19 -8 -65 -14 -102 -14 -164 1 -355 115
-615 369 -71 68 -128 120 -128 115 0 -5 7 -38 15 -72 28 -117 107 -207 299
-336 190 -129 283 -156 542 -155 117 0 201 5 242 14 129 30 222 99 269 203
l25 53 -7 242 c-8 235 -9 244 -35 298 -40 84 -119 159 -245 234 -155 92 -257
141 -349 164 l-79 20 64 -65z M6965 8404 c-97 -26 -171 -61 -335 -157 -122
-73 -208 -153 -248 -234 -29 -58 -29 -59 -37 -301 l-7 -243 27 -54 c30 -61
109 -139 171 -166 86 -38 146 -47 335 -48 206 -1 294 14 414 68 162 74 349
225 398 323 14 29 33 81 41 116 l15 63 -112 -108 c-190 -184 -337 -293 -477
-353 -73 -31 -199 -39 -254 -16 -35 14 -42 14 -88 0 -62 -21 -149 -14 -206 15
-137 70 -194 206 -143 339 17 46 17 51 2 78 -10 19 -16 55 -16 104 0 126 57
205 193 270 100 48 233 143 335 241 51 48 90 88 87 88 -3 0 -45 -11 -95 -25z
M7977 6183 c91 -86 151 -167 199 -268 66 -137 79 -196 79 -365 0 -173 -13
-230 -84 -375 -80 -162 -197 -284 -351 -368 -103 -55 -161 -72 -565 -159 -359
-77 -387 -81 -500 -81 -238 1 -444 90 -611 265 -156 162 -228 345 -227 578 0
147 21 238 83 368 22 46 40 86 40 89 0 6 -54 -5 -113 -24 -86 -27 -127 -77
-161 -195 -12 -43 -16 -101 -16 -252 0 -182 2 -201 26 -278 32 -105 102 -244
159 -319 86 -111 189 -195 320 -260 207 -102 426 -139 661 -110 54 7 113 15
130 17 50 6 471 94 569 119 125 32 239 77 332 133 107 64 151 102 231 197 88
106 153 217 193 335 29 83 33 111 37 224 5 149 -4 187 -78 336 -26 52 -67 144
-90 203 -23 59 -56 127 -74 150 -40 54 -104 85 -186 93 l-65 5 62 -58z M2720
6210 c-175 -19 -191 -34 -325 -304 -58 -118 -112 -233 -120 -256 -24 -69 -21
-335 6 -430 58 -211 192 -407 366 -537 141 -104 288 -163 525 -208 73 -14 147
-29 163 -34 59 -19 221 -49 256 -49 20 0 63 -6 95 -13 37 -9 119 -13 219 -13
139 1 173 4 256 26 255 69 443 193 582 385 48 66 98 174 132 286 26 85 26 93
23 300 -4 232 -11 268 -72 370 -36 60 -78 87 -184 116 l-73 20 21 -32 c45 -68
101 -190 126 -274 23 -75 27 -107 27 -218 0 -156 -20 -244 -87 -380 -99 -201
-266 -346 -489 -424 -100 -35 -105 -36 -257 -36 l-155 0 -380 83 c-209 46
-405 93 -436 106 -103 41 -192 98 -272 175 -130 124 -208 258 -248 428 -41
170 -14 404 63 558 60 117 180 256 279 322 35 23 52 45 32 42 -5 -1 -37 -5
-73 -9z M2944 5969 c-72 -21 -162 -138 -204 -265 -20 -58 -21 -82 -18 -251 3
-185 4 -189 34 -259 82 -188 209 -304 413 -377 90 -32 506 -125 516 -115 3 2
-96 25 -218 52 -289 61 -369 97 -491 219 -132 133 -202 282 -213 457 -12 180
62 385 185 513 20 20 34 37 32 36 -3 0 -19 -5 -36 -10z M7713 5941 c127 -141
196 -332 184 -506 -8 -108 -29 -183 -79 -285 -33 -68 -59 -102 -129 -173 -79
-79 -84 -85 -46 -65 23 13 79 59 125 104 68 67 90 97 125 170 l42 89 3 188 c3
183 3 191 -23 266 -47 134 -121 219 -215 247 -23 6 -22 3 13 -35z M3780 5816
c-167 -37 -289 -166 -321 -339 -40 -219 121 -440 346 -475 132 -21 259 21 356
117 94 95 136 218 117 353 -23 171 -163 315 -337 348 -66 12 -91 12 -161 -4z
m153 -280 c71 -26 79 -40 75 -132 -3 -73 -6 -84 -28 -102 -61 -51 -185 -46
-240 10 -28 27 -30 35 -30 98 0 66 1 70 33 94 55 42 128 54 190 32z M6710
5819 c-166 -32 -305 -180 -328 -347 -19 -136 22 -257 117 -353 67 -67 143
-105 231 -118 224 -31 430 118 471 342 40 217 -113 435 -336 476 -67 12 -91
12 -155 0z m183 -302 l37 -21 0 -77 c0 -94 -3 -103 -46 -130 -72 -44 -214 -17
-243 48 -6 13 -11 50 -11 83 0 53 3 61 31 84 17 14 43 29 57 32 15 3 32 7 37
9 22 9 102 -8 138 -28z M3718 4693 c7 -3 16 -2 19 1 4 3 -2 6 -13 5 -11 0 -14
-3 -6 -6z M3768 4683 c7 -3 16 -2 19 1 4 3 -2 6 -13 5 -11 0 -14 -3 -6 -6z
M3869 4057 c-19 -12 -43 -40 -53 -62 -18 -35 -19 -47 -9 -124 26 -199 116
-322 281 -384 48 -18 79 -21 192 -22 74 0 160 4 191 8 l56 9 21 -59 c53 -145
182 -283 334 -357 155 -77 220 -90 448 -90 228 0 293 13 448 90 152 74 281
212 334 358 l21 58 51 -8 c28 -5 114 -9 191 -9 118 0 149 4 197 22 165 62 255
185 281 384 10 77 9 89 -9 124 -37 77 -123 107 -191 65 -49 -29 -67 -65 -74
-147 -9 -88 -31 -132 -82 -156 -77 -38 -239 -28 -387 24 -69 24 -117 24 -157
-1 -42 -25 -58 -59 -71 -149 -27 -189 -162 -322 -368 -366 -89 -19 -279 -19
-368 0 -206 44 -341 177 -368 366 -13 90 -29 124 -71 149 -41 25 -88 25 -160
0 -101 -36 -243 -55 -315 -42 -109 18 -139 54 -151 177 -7 80 -26 116 -74 145
-43 26 -96 25 -138 -3z M3361 3311 c-16 -17 -32 -45 -36 -61 -9 -39 -16 -43
-56 -26 -170 71 -340 -32 -395 -238 -33 -122 -7 -356 72 -646 72 -265 187
-496 318 -637 172 -186 402 -238 628 -143 l69 28 24 -49 c45 -88 78 -83 364
55 404 196 664 256 1055 243 327 -11 525 -62 848 -219 268 -130 319 -137 354
-47 9 21 17 39 19 39 1 0 40 -18 86 -39 178 -83 361 -76 509 19 54 35 152 134
197 200 46 67 127 234 161 330 107 303 174 702 143 850 -25 118 -85 210 -166
253 -54 29 -151 28 -218 -2 -27 -11 -52 -21 -56 -21 -5 0 -16 20 -25 45 -24
61 -57 85 -116 85 -42 0 -182 -35 -410 -104 -47 -14 -184 -46 -305 -70 -121
-25 -260 -59 -310 -76 -244 -85 -294 -101 -378 -119 -352 -76 -723 -50 -1072
74 -170 60 -210 71 -395 106 -202 37 -268 54 -535 131 -121 35 -238 63 -277
66 -66 5 -68 4 -97 -27z m62 -155 c236 -98 773 -230 1177 -290 299 -45 391
-51 730 -51 352 0 452 9 790 66 380 64 834 180 1051 269 41 16 76 26 79 22 4
-4 57 -196 118 -427 121 -453 129 -502 93 -581 -27 -59 -75 -109 -133 -138
-132 -66 -311 -4 -369 129 -10 22 -56 186 -103 364 -47 178 -86 325 -88 327
-2 2 -39 -8 -82 -22 -165 -52 -474 -103 -821 -136 -217 -20 -933 -17 -1155 5
-340 34 -653 88 -796 137 -32 11 -59 18 -61 16 -2 -2 -54 -158 -114 -347 -60
-189 -121 -361 -135 -382 -53 -81 -148 -123 -257 -115 -73 6 -114 25 -165 76
-51 51 -75 105 -80 177 -3 52 11 117 112 492 64 237 116 434 116 437 0 9 5 8
93 -28z m1152 -746 c131 -15 205 -32 205 -47 0 -7 -11 -13 -25 -13 -14 0 -25
-4 -25 -9 0 -5 -18 -12 -40 -16 -22 -4 -42 -10 -45 -15 -10 -17 -93 -21 -128
-7 -44 19 -87 65 -87 94 0 27 10 28 145 13z m1573 4 c28 -8 28 -22 -3 -57 -27
-30 -81 -57 -116 -57 -26 0 -123 32 -127 43 -2 4 -15 7 -28 7 -14 0 -24 6 -24
14 0 15 30 22 170 41 52 7 97 13 100 14 3 0 15 -2 28 -5z m-1950 -166 c61 -29
89 -72 127 -199 19 -61 35 -112 37 -114 2 -2 30 8 63 21 83 35 297 89 440 113
343 57 629 54 959 -9 124 -24 318 -78 388 -109 l47 -20 7 37 c29 167 44 211
86 248 133 122 348 33 348 -143 0 -35 -75 -433 -85 -450 -1 -2 -53 26 -116 62
-235 134 -514 233 -787 280 -290 50 -681 32 -981 -45 -194 -49 -459 -157 -655
-265 -55 -30 -100 -54 -101 -52 -4 6 -95 454 -95 467 0 63 53 146 114 177 69
36 128 36 204 1z m2752 -473 c0 -8 -4 -15 -10 -15 -5 0 -10 7 -10 15 0 8 5 15
10 15 6 0 10 -7 10 -15z M5185 1769 c-353 -22 -637 -142 -986 -415 -196 -153
-277 -189 -418 -182 -99 5 -170 32 -286 112 -74 51 -121 59 -176 31 -64 -34
-89 -128 -50 -191 39 -63 203 -162 341 -206 107 -33 285 -33 384 0 138 46 196
81 439 267 304 232 533 310 902 309 395 -1 605 -82 988 -381 221 -173 370
-241 547 -250 115 -6 199 11 298 61 124 63 242 191 242 264 0 77 -61 142 -134
142 -50 0 -70 -12 -141 -85 -87 -89 -167 -119 -280 -104 -115 15 -202 65 -467
268 -68 51 -165 118 -216 148 -283 167 -606 236 -987 212z"/>
</g>
</svg>
