<?xml version="1.0" standalone="no"?>
<!DOCTYPE svg PUBLIC "-//W3C//DTD SVG 20010904//EN"
 "http://www.w3.org/TR/2001/REC-SVG-20010904/DTD/svg10.dtd">
<svg version="1.0" xmlns="http://www.w3.org/2000/svg"
 width="2048.000000pt" height="2048.000000pt" viewBox="0 0 2048.000000 2048.000000"
 preserveAspectRatio="xMidYMid meet">
<metadata>
Created by potrace 1.13, written by Peter Selinger 2001-2015
</metadata>
<g transform="translate(0.000000,2048.000000) scale(0.192120,-0.192120)"
fill="#000000" stroke="none">
<path d="M5010 10043 c-436 -25 -912 -125 -1290 -270 -1122 -432 -1885 -1406
-1990 -2538 -37 -399 21 -1014 125 -1320 l34 -100 -22 -14 c-57 -38 -187 -182
-230 -256 -212 -362 -255 -861 -112 -1292 101 -303 284 -511 500 -568 32 -8
59 -16 60 -17 1 -2 10 -43 19 -93 9 -49 35 -157 56 -240 183 -711 527 -1333
1000 -1805 492 -493 1071 -789 1740 -891 136 -21 190 -24 435 -23 307 0 442
14 690 74 1105 263 1983 1133 2395 2370 45 137 120 423 140 538 12 65 16 73
39 78 108 24 193 69 279 148 223 207 358 618 338 1026 -17 356 -128 657 -312
850 l-75 78 16 61 c23 91 52 295 71 501 25 275 25 836 1 983 -85 501 -293 954
-636 1385 -109 136 -376 404 -509 510 -222 178 -427 308 -677 431 -455 225
-912 349 -1449 391 -117 9 -498 11 -636 3z m631 -213 c1052 -82 1957 -560
2550 -1347 136 -181 272 -414 357 -613 58 -138 150 -404 166 -482 23 -110 23
-1005 0 -1183 -8 -66 -18 -175 -21 -243 l-6 -123 29 -30 c16 -17 46 -38 66
-46 42 -17 42 -17 11 -118 -55 -174 -148 -275 -228 -245 -40 15 -75 46 -113
98 -19 26 -166 311 -327 633 l-293 586 -175 7 c-565 22 -1101 107 -1477 234
-217 73 -363 148 -489 248 -42 34 -77 61 -79 59 -2 -2 10 -29 26 -61 79 -157
163 -403 177 -518 12 -90 -23 -156 -82 -156 -118 0 -424 225 -779 573 -96 93
-176 168 -179 166 -2 -3 0 -22 5 -44 14 -61 12 -166 -5 -223 -64 -214 -312
-195 -720 56 -162 99 -407 277 -582 424 -45 37 -85 68 -88 68 -15 0 -166 -134
-256 -226 -399 -412 -685 -970 -834 -1624 -44 -194 -65 -229 -135 -230 -47 0
-90 28 -141 92 -41 52 -102 169 -114 218 -5 21 0 28 29 44 71 38 76 48 76 144
0 50 -13 163 -30 268 l-31 181 4 524 3 524 28 115 c55 229 125 415 237 630
201 384 485 713 840 972 525 383 1154 592 1959 651 111 8 498 6 621 -3z
m-2038 -2707 c248 -183 361 -255 522 -335 295 -147 498 -167 642 -63 98 71
128 88 155 88 29 0 59 -22 230 -164 231 -192 427 -299 552 -299 54 0 116 32
184 95 60 56 102 121 102 160 0 13 5 27 10 30 6 3 10 33 10 66 0 46 3 59 15
59 8 0 15 6 15 14 0 10 34 3 133 -29 332 -107 775 -183 1252 -215 97 -6 188
-18 212 -26 79 -29 117 -86 309 -467 97 -194 197 -383 222 -422 162 -253 213
-311 314 -365 53 -29 67 -32 123 -28 50 3 74 11 117 38 83 52 118 69 134 63
24 -9 73 -117 95 -209 18 -77 20 -112 17 -342 l-4 -257 -36 -108 c-50 -145
-106 -261 -157 -324 -25 -31 -81 -78 -141 -118 -166 -111 -269 -238 -299 -370
-69 -300 -92 -373 -211 -655 -45 -107 -104 -248 -131 -312 -26 -64 -65 -152
-86 -195 -71 -143 -269 -426 -426 -606 -57 -65 -318 -288 -451 -385 -438 -320
-903 -500 -1425 -552 -134 -13 -409 -13 -547 1 -148 14 -343 51 -498 94 -587
161 -1169 561 -1528 1050 -154 209 -235 345 -370 616 -111 224 -209 501 -282
796 -26 105 -58 206 -75 240 -44 87 -147 193 -260 267 -161 106 -231 198 -297
396 l-29 85 0 340 0 340 29 88 c16 48 46 115 67 148 49 75 68 76 162 13 76
-50 134 -74 181 -74 73 1 164 67 241 174 54 76 65 104 114 296 136 525 381
1004 690 1344 169 186 175 187 404 19z M3855 5593 c-68 -25 -107 -54 -144
-109 -48 -72 -53 -120 -49 -466 l3 -313 27 -50 c54 -102 138 -154 248 -155 83
0 149 30 207 93 71 77 74 103 71 484 l-3 328 -30 53 c-67 123 -206 179 -330
135z m105 -543 c0 -248 -2 -281 -16 -287 -9 -3 -20 0 -25 8 -5 8 -9 137 -9
287 l0 272 25 0 25 0 0 -280z M6659 5604 c-82 -15 -184 -114 -209 -202 -6 -22
-10 -167 -10 -348 0 -358 4 -387 73 -461 58 -63 124 -93 207 -93 110 1 194 53
248 155 l27 50 0 345 c0 380 0 377 -65 460 -54 68 -176 110 -271 94z m79 -556
c-3 -244 -5 -283 -18 -283 -13 0 -15 39 -18 283 -2 278 -2 282 18 282 20 0 20
-4 18 -282z M4959 3646 c-112 -40 -181 -141 -181 -263 0 -114 74 -221 180
-257 38 -13 103 -16 372 -16 364 0 385 3 458 66 89 76 120 213 73 320 -27 59
-61 97 -121 132 l-45 27 -350 2 c-269 2 -358 0 -386 -11z m674 -201 c35 -9 50
-37 42 -76 -14 -61 -28 -64 -351 -64 -282 0 -294 1 -321 21 -20 15 -29 31 -31
57 -4 42 14 55 92 68 59 9 528 4 569 -6z M6638 2546 c-21 -8 -48 -21 -60 -30
-13 -9 -38 -28 -56 -41 -77 -56 -294 -120 -518 -155 -213 -32 -374 -42 -674
-42 -398 0 -645 24 -895 87 -167 42 -228 66 -311 121 -76 50 -117 64 -185 64
-246 0 -367 -307 -187 -476 152 -144 513 -267 937 -319 424 -52 1044 -43 1426
21 391 64 701 187 817 324 95 110 88 271 -15 375 -79 78 -184 105 -279 71z
m145 -223 c4 -2 7 -24 7 -48 0 -81 -81 -143 -280 -213 -82 -29 -257 -75 -330
-86 -517 -83 -1160 -87 -1625 -10 -49 8 -103 17 -120 20 -121 20 -321 82 -428
133 -120 57 -181 136 -143 186 12 16 26 20 78 20 55 0 77 -7 173 -52 224 -104
416 -150 780 -185 168 -16 702 -16 870 1 369 35 643 104 812 203 64 38 167 54
206 31z"/>
</g>
</svg>
