<?xml version="1.0" standalone="no"?>
<!DOCTYPE svg PUBLIC "-//W3C//DTD SVG 20010904//EN"
 "http://www.w3.org/TR/2001/REC-SVG-20010904/DTD/svg10.dtd">
<svg version="1.0" xmlns="http://www.w3.org/2000/svg"
 width="2048.000000pt" height="2048.000000pt" viewBox="0 0 2048.000000 2048.000000"
 preserveAspectRatio="xMidYMid meet">
<metadata>
Created by potrace 1.13, written by Peter Selinger 2001-2015
</metadata>
<g transform="translate(0.000000,2048.000000) scale(0.192120,-0.192120)"
fill="#000000" stroke="none">
<path d="M4730 10220 c-368 -51 -692 -198 -966 -439 -121 -105 -148 -156 -143
-270 l4 -79 -123 -53 c-147 -63 -362 -178 -524 -280 -699 -440 -1254 -1052
-1623 -1789 -164 -327 -296 -708 -369 -1060 -13 -66 -29 -117 -37 -122 -8 -4
-41 -18 -74 -30 -166 -65 -336 -231 -432 -423 -126 -251 -146 -570 -52 -846
52 -155 173 -332 291 -428 75 -62 215 -134 292 -152 l55 -12 12 -51 c6 -28 34
-121 61 -206 185 -576 480 -1104 871 -1555 113 -131 356 -373 482 -480 696
-593 1549 -953 2464 -1039 300 -29 756 -18 1045 25 746 110 1438 399 2035 849
369 279 719 644 983 1026 274 397 513 909 628 1345 l22 86 55 13 c81 18 219
91 299 158 159 135 280 348 325 577 17 87 18 329 1 410 -19 90 -61 212 -95
280 -96 192 -261 354 -430 422 -34 14 -68 28 -76 32 -8 4 -23 53 -37 121 -197
960 -737 1854 -1507 2499 -519 434 -1212 778 -1822 906 -44 9 -89 19 -100 22
-10 3 -53 38 -95 78 -241 230 -560 389 -900 450 -110 20 -421 28 -520 15z
m485 -274 c287 -49 524 -157 760 -347 44 -35 119 -94 166 -131 121 -94 192
-192 246 -338 43 -116 43 -119 43 -447 0 -312 -1 -323 -25 -407 -29 -99 -84
-216 -146 -308 -182 -270 -386 -415 -684 -484 -64 -15 -118 -19 -265 -18 -166
0 -195 3 -282 27 -113 30 -241 88 -336 151 -143 94 -283 268 -336 414 -24 68
-26 86 -26 233 l0 159 26 10 c30 12 114 13 129 2 26 -18 55 -67 55 -93 0 -31
32 -167 49 -214 122 -315 411 -526 723 -525 145 0 326 58 457 144 157 105 321
338 390 554 39 121 43 162 39 377 -4 185 -7 218 -27 280 -33 100 -113 260
-166 330 -57 76 -183 204 -255 258 -30 23 -63 49 -73 58 -31 28 -210 116 -299
148 -48 17 -138 40 -200 52 -98 18 -136 21 -283 16 -148 -4 -184 -9 -280 -35
-192 -53 -318 -113 -460 -221 -163 -124 -183 -135 -239 -136 l-51 0 -3 52 -3
52 83 66 c111 88 240 164 374 219 160 65 282 95 494 120 67 8 316 -3 405 -18z
m-23 -297 c297 -60 570 -237 729 -470 184 -272 204 -646 48 -937 -138 -260
-350 -402 -624 -419 -183 -11 -351 53 -485 185 -114 114 -160 219 -160 372 0
93 -19 154 -67 209 -79 92 -220 124 -325 72 -59 -28 -130 -106 -146 -159 -18
-60 -15 -243 7 -347 86 -420 445 -761 896 -854 100 -20 132 -23 262 -23 500 1
919 275 1153 753 103 210 144 396 144 644 0 318 -78 567 -260 836 -41 61 -68
109 -60 106 7 -3 85 -50 172 -104 148 -92 251 -145 367 -188 26 -10 47 -21 47
-25 0 -4 30 -20 68 -35 748 -313 1372 -802 1838 -1442 109 -149 257 -394 308
-508 197 -446 277 -668 360 -1005 25 -99 47 -162 69 -198 42 -72 141 -161 247
-224 159 -96 254 -214 326 -406 23 -59 24 -75 24 -288 0 -201 -2 -231 -21
-287 -40 -118 -99 -217 -179 -298 -65 -67 -90 -84 -191 -132 -121 -58 -187
-107 -251 -187 -46 -58 -65 -102 -124 -284 -25 -78 -81 -226 -123 -331 -43
-104 -85 -211 -95 -238 -74 -200 -333 -599 -565 -870 -118 -139 -371 -392
-471 -473 -91 -74 -423 -296 -578 -388 -719 -424 -1489 -625 -2312 -603 -787
22 -1484 229 -2165 645 -170 104 -355 232 -457 318 -109 90 -357 332 -463 449
-178 198 -407 528 -544 784 -153 283 -185 361 -358 858 -52 150 -137 239 -297
312 -135 61 -256 183 -329 332 -60 121 -67 166 -67 404 0 197 2 214 25 279 58
166 181 319 335 419 95 62 138 100 191 167 47 60 51 72 104 282 100 400 230
722 453 1113 189 333 392 597 691 895 292 291 621 532 1020 744 164 87 187
103 211 148 15 29 43 103 56 147 3 8 15 -1 33 -27 58 -80 137 -122 227 -122
103 0 126 12 288 150 166 142 404 244 632 270 109 12 266 4 386 -21z M3988
5879 c-278 -36 -511 -246 -583 -524 -22 -85 -20 -244 5 -339 62 -244 265 -443
510 -500 93 -22 240 -20 334 4 481 123 676 703 370 1101 -108 141 -278 235
-466 259 -45 5 -87 9 -93 9 -5 -1 -40 -5 -77 -10z m204 -290 c128 -27 273
-132 298 -216 7 -24 10 -99 8 -198 l-3 -160 -37 -60 c-167 -273 -644 -250
-788 38 -29 58 -30 64 -30 200 0 166 10 196 94 275 116 110 291 156 458 121z
M6488 5879 c-278 -36 -511 -246 -583 -524 -22 -85 -20 -244 5 -339 62 -244
265 -443 510 -500 93 -22 240 -20 334 4 481 123 676 703 370 1101 -108 141
-278 235 -466 259 -45 5 -87 9 -93 9 -5 -1 -40 -5 -77 -10z m204 -290 c128
-27 273 -132 298 -216 7 -24 10 -99 8 -198 l-3 -160 -37 -60 c-167 -273 -644
-250 -788 38 -29 58 -30 64 -30 200 0 166 10 196 94 275 116 110 291 156 458
121z M4397 3448 c-136 -19 -186 -128 -174 -378 12 -253 120 -487 321 -698 116
-121 222 -200 360 -267 172 -84 240 -100 426 -100 186 0 254 16 426 100 387
188 662 578 681 965 10 208 -23 315 -110 359 -60 29 -162 30 -387 2 -288 -36
-429 -44 -703 -38 -182 3 -313 12 -427 27 -211 27 -353 37 -413 28z m343 -297
c96 -11 210 -23 253 -26 l77 -7 0 -94 c0 -51 4 -96 10 -99 6 -3 10 -48 10 -98
0 -160 65 -287 223 -438 85 -82 91 -100 41 -120 -37 -13 -182 3 -265 31 -235
79 -434 248 -547 465 -55 105 -62 137 -62 276 l0 129 43 0 c23 0 121 -9 217
-19z m1418 -28 c-3 -42 -21 -51 -26 -15 -4 29 4 52 18 52 7 0 10 -15 8 -37z
m-268 -153 c0 -207 -21 -283 -99 -353 -109 -99 -310 -83 -398 32 -51 66 -63
123 -63 303 l0 158 280 0 280 0 0 -140z"/>
</g>
</svg>
