<?xml version="1.0" standalone="no"?>
<!DOCTYPE svg PUBLIC "-//W3C//DTD SVG 20010904//EN"
 "http://www.w3.org/TR/2001/REC-SVG-20010904/DTD/svg10.dtd">
<svg version="1.0" xmlns="http://www.w3.org/2000/svg"
 width="2048.000000pt" height="2048.000000pt" viewBox="0 0 2048.000000 2048.000000"
 preserveAspectRatio="xMidYMid meet">
<metadata>
Created by potrace 1.13, written by Peter Selinger 2001-2015
</metadata>
<g transform="translate(0.000000,2048.000000) scale(0.192120,-0.192120)"
fill="#000000" stroke="none">
<path d="M5035 10324 c-432 -29 -661 -57 -970 -120 -1029 -212 -1787 -671
-2004 -1215 -102 -258 -76 -550 72 -796 95 -159 248 -324 399 -431 37 -26 67
-50 68 -54 0 -4 -34 -45 -76 -90 -370 -406 -678 -982 -824 -1543 -83 -320
-114 -583 -114 -945 0 -350 28 -587 105 -895 65 -258 197 -616 246 -667 29
-31 90 -52 119 -42 87 28 107 58 129 192 34 209 158 504 304 722 175 263 424
527 891 949 162 146 351 319 419 386 378 366 556 666 578 968 3 48 9 87 14 87
15 0 245 -51 364 -81 1262 -316 2498 -1060 3174 -1909 296 -372 496 -789 552
-1150 16 -107 39 -137 123 -164 29 -10 90 11 118 41 50 53 182 409 248 672 74
293 105 561 105 896 0 263 -11 395 -50 632 -111 658 -420 1314 -851 1806 -93
106 -118 137 -113 140 135 92 296 240 380 352 298 393 294 826 -13 1211 -428
540 -1373 924 -2528 1029 -160 15 -738 27 -865 19z m695 -234 c903 -56 1711
-293 2230 -655 41 -28 80 -50 85 -48 18 6 197 -179 264 -273 35 -49 78 -118
95 -154 l31 -65 3 -212 3 -212 -30 -85 c-46 -134 -111 -233 -243 -372 -151
-160 -185 -226 -148 -293 15 -29 7 -38 -88 -99 -515 -330 -1306 -553 -2176
-613 -223 -15 -850 -6 -1046 15 -582 63 -1019 164 -1450 333 -209 82 -517 242
-601 313 -28 23 -30 29 -20 47 6 12 11 41 11 64 0 56 -39 118 -149 239 -116
126 -150 170 -210 267 -85 137 -93 174 -89 397 l3 191 36 75 c20 41 59 105 87
142 28 37 55 75 60 84 19 34 196 204 208 200 7 -3 23 3 36 13 430 333 1197
591 2003 676 327 34 776 44 1095 25z m-2831 -2741 c401 -197 740 -311 1180
-398 186 -37 186 -37 189 -65 2 -15 -5 -51 -16 -79 -11 -29 -23 -69 -27 -89
-19 -120 -98 -307 -176 -416 -149 -212 -278 -346 -699 -727 -472 -428 -745
-709 -917 -945 -106 -146 -255 -425 -313 -587 -43 -118 -60 -141 -92 -126 -52
24 -148 321 -197 613 -19 115 -21 163 -21 610 0 440 2 496 20 605 77 454 245
886 497 1274 93 142 242 340 289 380 57 50 89 45 283 -50z m5158 29 c72 -75
205 -255 294 -400 227 -368 363 -714 448 -1138 l31 -153 0 -548 c0 -547 0
-548 -25 -676 -33 -165 -67 -296 -105 -407 -37 -109 -53 -136 -84 -136 -26 0
-40 27 -117 225 -258 668 -821 1302 -1644 1852 -244 162 -595 359 -867 484
-150 69 -473 209 -483 209 -3 0 -33 13 -67 29 -35 16 -80 36 -100 45 -26 10
-38 21 -38 35 0 26 17 29 255 36 224 6 373 18 585 46 653 84 1112 217 1619
468 207 103 224 104 298 29z M4880 9970 c-535 -43 -1002 -140 -1372 -285 -389
-154 -657 -364 -781 -614 l-52 -104 -3 -149 c-4 -158 -4 -157 49 -274 67 -149
261 -335 403 -385 75 -26 113 -20 160 26 l35 34 124 -54 c470 -203 1056 -313
1752 -331 770 -20 1542 111 2069 351 l79 36 32 -31 c51 -49 94 -50 200 -4 166
73 323 249 386 433 15 43 19 83 19 190 0 132 -1 138 -35 221 -47 113 -91 176
-205 291 -325 327 -940 544 -1800 635 -177 19 -884 28 -1060 14z m720 -204
c610 -16 1249 -150 1666 -350 672 -323 749 -768 195 -1124 -48 -31 -57 -33
-75 -21 -504 320 -1006 505 -1586 585 -157 21 -608 30 -781 15 -626 -55 -1193
-250 -1745 -601 -20 -12 -28 -9 -85 30 -168 113 -263 213 -320 334 -142 303
113 624 668 845 349 138 760 227 1283 277 84 8 486 21 540 17 19 -1 127 -5
240 -7z m105 -1151 c378 -40 745 -136 1065 -279 144 -64 161 -80 128 -112 -85
-80 -604 -185 -1108 -225 -195 -15 -729 -15 -920 0 -490 39 -1014 144 -1109
222 -44 36 -20 54 189 142 292 123 651 214 993 251 171 19 588 19 762 1z
M4385 5026 c-59 -27 -107 -72 -138 -130 -22 -40 -22 -49 -22 -401 0 -352 0
-361 22 -401 47 -89 155 -154 254 -154 92 0 202 71 245 158 17 34 19 69 22
391 l3 354 -26 53 c-65 133 -228 192 -360 130z M6064 5034 c-59 -21 -119 -76
-149 -138 l-26 -53 3 -354 c3 -327 4 -357 22 -393 61 -122 198 -180 331 -142
45 14 69 29 110 69 85 86 87 95 83 494 -3 327 -4 339 -25 379 -68 127 -215
185 -349 138z M2140 3541 c0 -26 83 -257 135 -378 316 -726 913 -1341 1627
-1677 351 -165 731 -271 1107 -307 152 -15 493 -15 651 0 777 75 1522 438
2069 1006 167 174 369 437 461 600 101 178 136 247 189 366 55 125 141 363
141 390 0 17 -93 2 -134 -22 -42 -25 -73 -71 -115 -174 -40 -96 -61 -142 -151
-333 -37 -81 -72 -160 -75 -177 -14 -57 -79 -180 -138 -260 -75 -100 -389
-413 -522 -520 -392 -315 -800 -523 -1245 -635 -228 -57 -261 -59 -805 -59
-275 1 -535 5 -577 10 -177 22 -480 112 -712 211 -329 140 -625 332 -921 598
-184 165 -383 408 -472 575 -42 79 -221 462 -267 570 -73 175 -103 208 -201
222 -31 4 -45 2 -45 -6z M4220 2824 c0 -18 111 -152 173 -210 214 -199 486
-310 815 -333 426 -30 800 89 1062 336 62 58 170 190 170 207 0 3 -499 6
-1110 6 -610 0 -1110 -3 -1110 -6z M990 2795 c-147 -33 -273 -101 -383 -204
-279 -263 -347 -649 -184 -1043 72 -173 173 -322 317 -467 386 -390 959 -641
1660 -727 169 -21 613 -24 780 -6 583 65 1091 247 1467 526 112 83 292 250
282 261 -9 9 -179 -58 -263 -104 -39 -21 -125 -71 -191 -111 -517 -311 -1108
-457 -1770 -437 -435 13 -819 92 -1180 242 -287 118 -584 316 -741 493 -140
156 -220 288 -274 451 l-31 92 3 213 3 212 37 75 c74 147 207 282 343 345 101
47 179 64 287 64 260 0 445 -115 636 -397 70 -104 151 -193 176 -193 22 0 -35
195 -85 290 -103 196 -279 342 -494 410 -91 29 -298 37 -395 15z M9341 2800
c-337 -71 -600 -343 -656 -677 -15 -91 51 -33 171 152 106 163 210 266 324
322 109 53 194 73 307 73 185 0 335 -62 469 -195 103 -101 146 -167 189 -289
34 -95 35 -100 35 -256 0 -144 -3 -167 -26 -242 -28 -88 -95 -229 -150 -315
-77 -120 -279 -301 -498 -445 -119 -79 -378 -205 -536 -261 -373 -133 -797
-196 -1235 -184 -602 17 -1097 156 -1580 447 -193 116 -435 227 -435 200 0
-15 182 -181 276 -252 715 -531 1881 -695 2854 -401 433 131 784 329 1045 590
131 132 213 244 290 398 209 418 164 818 -124 1106 -100 100 -189 155 -322
200 -83 28 -109 32 -224 35 -71 2 -150 -1 -174 -6z M2342 2710 c-118 -79 -229
-219 -288 -364 -30 -73 -71 -253 -60 -264 11 -10 95 91 140 168 54 94 137 221
191 290 19 25 44 63 54 85 23 46 42 125 31 125 -4 0 -35 -18 -68 -40z M8245
2713 c10 -57 39 -116 77 -159 36 -41 138 -178 138 -187 0 -2 25 -48 55 -102
58 -103 110 -175 126 -175 32 0 -14 191 -75 315 -67 136 -192 274 -300 331
l-29 16 8 -39z"/>
</g>
</svg>
