<?xml version="1.0" standalone="no"?>
<!DOCTYPE svg PUBLIC "-//W3C//DTD SVG 20010904//EN"
 "http://www.w3.org/TR/2001/REC-SVG-20010904/DTD/svg10.dtd">
<svg version="1.0" xmlns="http://www.w3.org/2000/svg"
 width="2048.000000pt" height="2048.000000pt" viewBox="0 0 2048.000000 2048.000000"
 preserveAspectRatio="xMidYMid meet">
<metadata>
Created by potrace 1.13, written by Peter Selinger 2001-2015
</metadata>
<g transform="translate(0.000000,2048.000000) scale(0.192120,-0.192120)"
fill="#000000" stroke="none">
<path d="M5153 10316 c-239 -46 -375 -142 -375 -265 l1 -48 -46 -7 c-102 -14
-287 -61 -440 -111 -516 -172 -953 -444 -1348 -840 -290 -289 -502 -587 -670
-938 -118 -247 -212 -538 -246 -764 -8 -57 -16 -80 -25 -76 -14 5 -62 -113
-93 -231 -59 -227 -45 -417 41 -538 81 -113 289 -267 523 -385 526 -266 1194
-418 2140 -485 278 -20 1219 -17 1505 5 765 59 1334 173 1820 366 326 130 658
345 766 497 65 91 93 231 75 375 -20 158 -99 406 -126 395 -10 -3 -15 10 -20
47 -22 166 -90 414 -168 608 -415 1033 -1386 1848 -2449 2057 l-137 27 1 47
c0 109 -107 196 -308 249 -102 27 -318 35 -421 15z m-206 -465 c155 -78 448
-96 649 -41 90 24 141 49 212 102 l53 40 12 -34 c28 -79 74 -154 105 -175 18
-12 65 -32 105 -44 95 -29 315 -110 452 -166 171 -70 375 -178 539 -287 83
-55 159 -101 168 -102 46 -4 367 -309 505 -480 286 -354 469 -688 573 -1046
81 -281 84 -286 197 -362 l63 -43 -23 -20 c-36 -34 -184 -126 -297 -186 -514
-272 -1257 -461 -2090 -532 -543 -45 -1218 -44 -1735 5 -816 77 -1491 250
-2012 516 -122 62 -278 158 -320 197 l-23 20 63 44 c95 67 118 104 152 247 26
110 94 305 151 429 207 453 499 834 884 1155 47 40 87 66 91 61 4 -6 42 15 90
49 263 187 524 313 973 468 222 77 241 89 274 177 11 28 25 65 31 80 l11 28
52 -39 c29 -22 72 -49 95 -61z m-2630 -3022 c295 -155 649 -286 1033 -384 52
-13 124 -34 160 -45 208 -67 729 -139 1235 -171 243 -16 937 -16 1170 0 486
32 978 98 1185 158 47 13 166 47 266 74 385 104 625 193 917 340 98 49 185 89
193 89 11 0 14 -22 14 -116 0 -101 -3 -123 -22 -162 -68 -135 -443 -340 -863
-471 -572 -178 -1224 -264 -2100 -278 -1011 -15 -1840 82 -2491 292 -331 106
-660 273 -783 396 -70 71 -81 101 -81 227 0 60 3 112 7 115 10 11 40 -1 160
-64z M4874 9715 c-34 -7 -79 -22 -101 -34 -71 -36 -400 -402 -591 -656 -370
-494 -547 -851 -645 -1305 -54 -246 -58 -294 -55 -610 3 -295 3 -295 28 -335
l25 -40 7 210 c16 535 116 992 294 1346 198 396 509 810 926 1235 104 105 188
194 188 197 0 9 -1 8 -76 -8z M5710 9723 c0 -4 78 -86 173 -182 337 -342 574
-635 782 -966 93 -148 212 -385 263 -525 109 -296 174 -682 189 -1107 3 -106
10 -190 15 -187 4 3 17 24 28 47 18 37 20 62 20 277 0 245 -7 330 -41 515 -58
307 -105 458 -231 735 -91 200 -346 595 -517 800 -207 248 -446 509 -494 538
-47 29 -187 70 -187 55z M5072 7988 c-73 -11 -207 -56 -287 -96 -203 -102
-346 -248 -416 -426 -25 -63 -28 -84 -29 -187 0 -89 4 -129 19 -172 53 -155
181 -302 331 -385 68 -37 187 -76 305 -99 128 -25 521 -25 650 0 128 26 237
61 335 110 123 61 240 178 301 302 l44 90 3 131 c3 111 1 139 -17 189 -96 273
-410 487 -786 534 -108 14 -383 19 -453 9z m441 -173 c124 -19 260 -64 357
-118 105 -59 211 -165 252 -253 30 -64 33 -77 33 -169 0 -92 -3 -106 -32 -168
-117 -246 -462 -402 -853 -384 -340 16 -630 168 -733 384 -29 62 -32 76 -32
168 0 92 3 105 33 169 41 88 147 194 252 253 199 112 470 156 723 118z M1742
6425 c-208 -57 -385 -258 -490 -556 -198 -561 -46 -1292 322 -1550 131 -92
270 -120 396 -80 35 11 65 19 66 18 1 -1 12 -69 23 -152 189 -1317 862 -2461
1798 -3054 351 -222 694 -352 1108 -418 156 -25 574 -25 730 0 366 59 678 168
987 344 863 495 1530 1454 1817 2613 46 185 98 460 116 613 5 45 10 57 21 53
159 -61 302 -41 450 63 186 130 328 394 385 717 30 167 30 421 0 588 -70 393
-266 695 -510 787 -66 24 -185 37 -195 21 -11 -18 13 -93 42 -135 19 -28 46
-48 106 -77 147 -70 232 -170 314 -372 54 -134 62 -194 69 -540 4 -229 3 -252
-17 -335 -45 -182 -120 -330 -221 -434 -90 -93 -147 -119 -288 -129 -128 -10
-160 -22 -227 -86 -100 -94 -115 -131 -162 -379 -22 -121 -46 -254 -53 -295
-28 -184 -94 -382 -215 -652 -53 -117 -127 -280 -164 -363 -37 -82 -80 -175
-95 -205 -67 -133 -283 -439 -415 -589 -127 -143 -467 -435 -652 -559 -460
-308 -929 -455 -1453 -455 -433 -1 -800 89 -1193 293 -220 114 -386 230 -627
436 -241 206 -521 559 -701 882 -279 501 -433 927 -545 1507 -23 121 -51 239
-62 263 -25 54 -127 159 -174 179 -20 8 -80 18 -134 22 -113 9 -179 36 -257
106 -101 91 -173 209 -229 375 l-28 85 0 360 0 360 29 80 c47 132 92 216 170
313 51 64 99 100 198 148 48 23 60 35 83 80 15 29 28 68 28 86 2 33 2 33 -48
35 -27 1 -74 -4 -103 -12z M3857 5316 c-98 -35 -166 -111 -187 -210 -8 -33
-10 -157 -8 -361 3 -302 4 -311 27 -363 43 -96 145 -162 251 -162 75 0 139 27
197 85 80 80 83 99 83 470 0 371 -3 390 -83 470 -79 78 -184 105 -280 71z
M6620 5313 c-26 -9 -66 -38 -96 -68 -81 -80 -84 -99 -84 -470 0 -356 4 -383
71 -459 53 -60 107 -87 185 -94 118 -9 218 48 271 156 l28 57 0 340 c0 324 -1
342 -21 385 -30 65 -70 107 -128 137 -65 33 -161 40 -226 16z M4944 3641
c-186 -85 -225 -334 -72 -465 73 -63 94 -66 458 -66 364 0 385 3 458 66 153
131 114 380 -72 465 -38 17 -70 19 -386 19 -316 0 -348 -2 -386 -19z m648
-217 c23 -4 40 -13 43 -24 19 -60 -43 -75 -310 -75 -226 0 -299 11 -310 46 -8
23 1 38 29 49 24 10 492 13 548 4z M4140 2541 c-113 -37 -200 -152 -200 -266
0 -102 68 -203 170 -255 224 -113 611 -232 900 -277 159 -24 481 -24 640 0
291 45 674 163 899 276 103 53 171 154 171 256 0 93 -69 204 -153 247 -49 24
-148 35 -197 20 -19 -6 -77 -29 -128 -51 -178 -78 -441 -160 -617 -190 -365
-64 -792 4 -1219 196 -82 36 -114 46 -171 49 -38 2 -81 0 -95 -5z m330 -310
c309 -118 541 -169 796 -178 299 -10 566 41 924 179 105 41 175 62 218 65 l62
6 0 -36 c0 -31 -6 -40 -42 -65 -136 -92 -595 -222 -897 -253 -313 -32 -695 22
-1066 151 -228 80 -306 128 -290 181 12 38 103 22 295 -50z"/>
</g>
</svg>
