<?xml version="1.0" standalone="no"?>
<!DOCTYPE svg PUBLIC "-//W3C//DTD SVG 20010904//EN"
 "http://www.w3.org/TR/2001/REC-SVG-20010904/DTD/svg10.dtd">
<svg version="1.0" xmlns="http://www.w3.org/2000/svg"
 width="2048.000000pt" height="2048.000000pt" viewBox="0 0 2048.000000 2048.000000"
 preserveAspectRatio="xMidYMid meet">
<metadata>
Created by potrace 1.13, written by Peter Selinger 2001-2015
</metadata>
<g transform="translate(0.000000,2048.000000) scale(0.192120,-0.192120)"
fill="#000000" stroke="none">
<path d="M4875 9210 c-515 -30 -1040 -253 -1378 -584 -229 -225 -339 -383
-436 -628 -72 -183 -103 -479 -82 -778 13 -187 57 -510 72 -524 5 -6 20 1 39
19 28 27 30 33 30 107 0 45 -4 78 -10 78 -5 0 -10 7 -10 16 0 9 -15 36 -32 61
l-33 45 30 25 c53 43 335 227 500 325 994 595 2024 972 3012 1103 190 25 429
45 554 45 l117 0 7 -37 c14 -78 69 -149 203 -267 24 -21 41 -40 38 -43 -3 -3
-78 -9 -168 -14 -522 -27 -975 -120 -1481 -304 -182 -65 -494 -201 -486 -210
5 -4 267 35 369 55 30 6 84 20 119 31 47 15 66 17 71 9 5 -9 47 1 147 34 377
123 907 222 1143 214 56 -2 75 -7 75 -17 0 -8 -27 -21 -75 -33 -159 -41 -272
-132 -256 -209 5 -28 43 -88 83 -134 27 -31 133 -108 225 -166 45 -28 111 -73
145 -101 56 -44 63 -54 63 -85 0 -33 -2 -35 -26 -29 -15 4 -58 28 -97 54 -38
26 -86 58 -106 71 -204 138 -662 364 -823 407 -74 19 -145 17 -224 -7 -131
-40 -224 -109 -246 -181 -6 -21 -9 -40 -7 -42 2 -3 94 24 204 58 l200 63 80
-29 c377 -137 811 -395 1123 -667 l61 -53 -24 -43 c-31 -52 -32 -103 -4 -134
12 -12 23 -21 25 -18 10 10 45 217 58 347 45 430 27 703 -64 966 -46 132 -139
317 -211 419 -66 91 -275 309 -289 300 -5 -3 -17 6 -28 20 -11 14 -24 25 -29
25 -5 0 -23 14 -41 30 -18 17 -37 30 -42 30 -4 0 -10 4 -12 9 -6 17 -153 105
-262 156 -137 65 -252 106 -421 150 -225 58 -310 66 -727 72 l-378 5 -242 -95
c-134 -53 -358 -141 -498 -196 -446 -174 -731 -296 -944 -403 -54 -27 -100
-47 -102 -45 -6 6 98 88 201 159 376 260 785 425 1303 528 84 16 165 30 180
31 24 0 25 1 7 9 -11 5 -29 8 -40 8 -11 -1 -78 -4 -150 -8z m1382 -155 c25
-15 136 -49 280 -85 291 -74 323 -82 323 -90 0 -4 -51 -12 -112 -19 -1194
-127 -2383 -561 -3581 -1309 -92 -57 -170 -102 -173 -99 -3 3 15 56 40 119 63
161 71 197 57 266 -14 68 -27 55 184 181 799 475 1883 898 2733 1065 163 32
166 33 186 14 12 -10 40 -30 63 -43z m343 -400 c0 -9 -6 -12 -15 -9 -8 4 -15
10 -15 15 0 5 7 9 15 9 8 0 15 -7 15 -15z m-70 -10 c0 -10 -10 -15 -27 -15
-51 0 -193 -27 -448 -84 -11 -3 -31 -7 -45 -10 -14 -2 -36 -7 -50 -11 -14 -4
-34 -8 -45 -10 -11 -2 -22 -4 -25 -6 -3 -1 -9 -3 -15 -4 -5 -1 -17 -5 -25 -8
-8 -3 -44 -13 -80 -22 -247 -61 -904 -281 -947 -317 -7 -6 -13 -7 -13 -3 0 4
-11 0 -25 -9 -14 -9 -25 -14 -25 -11 0 4 -12 0 -27 -8 -16 -8 -39 -19 -53 -25
-14 -6 -45 -19 -70 -30 -25 -11 -112 -50 -193 -86 -181 -81 -291 -136 -295
-147 -2 -5 -8 -7 -13 -3 -5 3 -9 0 -9 -6 0 -6 -4 -9 -9 -5 -5 3 -12 1 -16 -4
-3 -6 -51 -31 -105 -57 -55 -26 -100 -50 -100 -55 0 -4 -20 -15 -45 -25 -25
-9 -45 -21 -45 -26 0 -5 -4 -6 -10 -3 -5 3 -10 2 -10 -4 0 -5 -16 -15 -35 -22
-19 -7 -35 -17 -35 -22 0 -4 -5 -5 -10 -2 -5 3 -10 2 -10 -4 0 -5 -10 -13 -22
-17 -13 -4 -34 -15 -48 -24 -59 -42 -356 -222 -370 -225 -8 -2 -19 -4 -25 -5
-44 -10 -47 24 -5 67 88 90 794 475 1210 660 293 131 950 377 950 356 0 -3 7
0 15 7 8 7 15 10 15 6 0 -3 12 -1 28 5 15 6 41 15 57 19 17 5 79 22 139 39 60
17 113 28 117 25 4 -2 10 0 14 5 3 5 13 10 23 9 9 0 27 3 40 6 12 3 31 8 43
11 11 2 28 6 37 9 16 5 44 11 97 21 11 2 31 6 45 10 36 9 70 15 115 20 22 3
54 7 70 11 17 3 44 8 60 10 17 3 41 7 55 9 14 3 42 6 63 9 22 2 40 6 42 8 2 2
24 4 49 6 35 1 46 -2 46 -13z m1074 -886 c-23 -89 -14 -187 30 -319 19 -58 33
-107 30 -109 -2 -2 -27 13 -56 34 -185 132 -482 316 -600 371 -21 10 -38 21
-38 24 0 9 230 30 437 39 92 4 177 12 188 18 11 6 21 10 23 8 2 -1 -4 -31 -14
-66z M5132 7565 c-727 -243 -1313 -554 -1644 -874 -157 -151 -256 -290 -307
-431 l-13 -35 -19 43 c-22 48 -74 243 -85 316 l-7 48 -49 -5 c-158 -19 -315
-210 -379 -462 -20 -77 -23 -115 -23 -260 0 -206 19 -297 94 -451 87 -180 195
-265 343 -272 74 -4 77 -5 83 -31 94 -417 270 -811 504 -1128 171 -231 409
-460 607 -583 l72 -45 1 -236 c0 -130 3 -257 6 -282 l6 -45 -448 -5 c-473 -4
-500 -6 -739 -61 -130 -30 -339 -106 -473 -171 -226 -110 -402 -235 -557 -396
-185 -191 -286 -367 -351 -610 l-28 -104 -4 -578 -3 -577 3611 0 3611 0 -3
577 -4 578 -28 104 c-69 258 -189 456 -398 657 -287 277 -672 465 -1133 551
-135 25 -156 26 -589 30 l-448 5 6 45 c3 25 6 157 6 292 l0 246 38 22 c195
112 491 407 661 658 206 305 378 702 451 1040 l11 50 92 0 c114 0 163 22 250
109 70 71 144 216 177 346 59 238 27 536 -82 742 -47 92 -157 199 -231 226
-82 31 -115 29 -122 -5 -18 -88 -67 -265 -84 -303 -18 -41 -20 -43 -27 -22
-13 46 -74 163 -116 224 -65 97 -241 271 -375 372 -296 222 -716 434 -1188
598 -137 48 -386 130 -465 153 -8 2 -102 -25 -208 -60z m479 -165 c67 -23 183
-72 258 -110 75 -37 170 -82 211 -100 160 -68 480 -232 590 -300 161 -101 322
-225 410 -315 93 -96 81 -82 172 -196 97 -123 181 -189 239 -189 27 0 82 33
136 81 51 47 85 57 118 35 29 -19 88 -137 109 -221 19 -71 22 -317 5 -397 -18
-83 -74 -191 -126 -242 -40 -40 -61 -51 -142 -76 -111 -35 -190 -91 -245 -175
-39 -59 -55 -105 -100 -287 -25 -100 -47 -161 -84 -234 -28 -54 -90 -175 -137
-269 -137 -273 -312 -487 -538 -658 -196 -148 -275 -254 -265 -358 l5 -50
-111 -54 c-129 -62 -293 -116 -450 -148 -97 -19 -142 -22 -351 -22 -211 0
-254 3 -355 23 -144 29 -329 90 -440 145 l-85 42 0 50 c-1 101 -77 209 -228
319 -116 85 -286 252 -377 371 -215 280 -343 529 -464 898 -36 110 -75 214
-86 232 -36 58 -116 123 -202 164 -102 49 -156 94 -201 169 -60 98 -67 140
-67 377 0 158 4 224 15 261 18 61 82 143 112 144 13 0 46 -23 85 -61 100 -97
155 -111 229 -57 56 40 50 34 153 163 182 227 335 359 608 528 334 206 957
474 1303 561 57 14 178 -4 296 -44z m-928 -4345 c96 -44 211 -79 332 -101 142
-26 489 -26 630 0 187 34 366 106 503 202 36 25 66 43 69 41 2 -3 -1 -29 -7
-58 -19 -88 -24 -227 -9 -272 15 -45 100 -126 168 -159 49 -24 168 -35 244
-24 26 4 84 29 138 61 l94 53 7 -26 c11 -38 -8 -153 -36 -222 -94 -231 -354
-439 -706 -564 l-95 -34 -7 -58 c-29 -227 -166 -483 -322 -601 -105 -79 -249
-133 -356 -133 -113 0 -272 63 -372 147 -153 128 -278 368 -306 586 l-7 59
-119 44 c-343 127 -590 327 -682 555 -27 66 -46 185 -36 224 l7 25 94 -58 95
-57 120 0 c106 0 127 3 168 23 58 29 153 117 167 155 16 41 13 182 -4 252 -8
33 -14 66 -15 72 0 7 38 -12 85 -43 47 -30 118 -70 158 -89z m-1289 -418 c9
-78 51 -217 91 -300 124 -259 363 -484 677 -635 l117 -57 31 -90 c137 -393
435 -685 795 -781 108 -29 351 -27 465 4 348 94 644 389 780 778 l31 89 77 35
c331 149 617 418 732 690 35 80 80 246 80 291 0 54 11 49 152 -66 9 -8 33 -17
52 -21 20 -3 36 -12 36 -18 0 -7 42 -24 93 -39 219 -61 467 -183 641 -314 225
-169 370 -364 446 -601 l30 -92 0 -445 c0 -438 0 -445 -20 -445 -14 0 -20 -7
-20 -24 l0 -24 -1477 -5 c-813 -3 -1567 -10 -1675 -15 -129 -7 -267 -7 -395 0
-109 5 -867 12 -1685 15 l-1488 5 0 483 c0 553 -2 538 92 715 142 266 355 460
673 615 118 58 346 142 435 160 19 4 37 11 40 15 12 18 173 139 180 135 4 -2
10 -29 14 -58z m312 -234 c85 -146 161 -242 289 -364 32 -32 57 -61 53 -64
-15 -15 -183 102 -260 181 -118 122 -148 177 -148 274 0 38 2 70 4 70 3 0 31
-44 62 -97z m3314 39 c-1 -119 -85 -241 -255 -371 -44 -34 -85 -65 -90 -69
-19 -15 -75 -31 -75 -21 0 5 4 9 10 9 19 0 186 183 251 275 20 28 59 89 88
138 29 48 57 85 62 82 5 -4 9 -23 9 -43z m-2633 -633 c81 -35 83 -38 83 -158
l-1 -106 -27 55 c-32 65 -53 98 -104 163 -21 27 -38 53 -38 58 0 15 35 10 87
-12z m1963 2 c0 -10 -7 -24 -15 -31 -23 -19 -74 -95 -117 -175 l-38 -70 3 115
2 115 64 33 c74 37 101 41 101 13z m-245 -426 c-46 -95 -229 -285 -273 -285
-7 0 -12 -5 -12 -11 0 -6 -7 -9 -15 -5 -8 3 -15 0 -16 -7 0 -9 -2 -9 -6 0 -2
7 32 53 76 103 93 105 153 194 219 322 l47 91 3 -78 c2 -67 -1 -85 -23 -130z
m-1522 108 c67 -134 170 -276 275 -378 17 -18 32 -39 32 -46 0 -10 -3 -10 -8
-3 -4 6 -18 15 -32 19 -43 13 -170 116 -217 174 -87 110 -103 146 -103 239 0
45 2 82 4 82 3 0 25 -39 49 -87z M4335 6061 c-69 -17 -125 -62 -161 -131 -17
-30 -19 -59 -19 -215 0 -196 4 -214 64 -278 110 -119 309 -89 377 56 22 49 24
63 24 223 0 162 -1 172 -25 221 -49 98 -157 149 -260 124z M6215 6061 c-70
-18 -125 -63 -161 -131 -15 -28 -19 -63 -22 -185 -5 -201 4 -243 72 -310 36
-36 65 -55 99 -64 100 -28 206 14 262 103 30 49 30 49 33 224 4 198 -4 234
-62 294 -58 60 -149 88 -221 69z M5021 4884 c-36 -30 -54 -87 -45 -141 7 -44
19 -63 56 -87 24 -15 57 -17 297 -17 181 0 277 3 291 11 76 40 81 193 8 244
-19 14 -65 16 -299 16 l-277 0 -31 -26z M4670 4345 c-128 -58 -155 -210 -55
-311 159 -158 466 -256 760 -240 196 10 369 59 510 143 141 85 185 141 185
236 0 71 -40 135 -102 166 -82 39 -134 27 -261 -62 -124 -87 -338 -127 -522
-97 -128 20 -205 54 -334 144 -52 36 -128 45 -181 21z"/>
</g>
</svg>
