<?xml version="1.0" standalone="no"?>
<!DOCTYPE svg PUBLIC "-//W3C//DTD SVG 20010904//EN"
 "http://www.w3.org/TR/2001/REC-SVG-20010904/DTD/svg10.dtd">
<svg version="1.0" xmlns="http://www.w3.org/2000/svg"
 width="2048.000000pt" height="2048.000000pt" viewBox="0 0 2048.000000 2048.000000"
 preserveAspectRatio="xMidYMid meet">
<metadata>
Created by potrace 1.13, written by Peter Selinger 2001-2015
</metadata>
<g transform="translate(0.000000,2048.000000) scale(0.192120,-0.192120)"
fill="#000000" stroke="none">
<path d="M4875 9210 c-515 -30 -1040 -253 -1378 -584 -229 -225 -339 -383
-436 -628 -72 -183 -104 -479 -82 -778 13 -181 48 -450 60 -463 5 -4 22 8 40
28 23 27 31 45 31 75 0 21 -4 41 -9 44 -5 3 -12 18 -15 32 -4 14 -17 39 -29
56 l-22 30 30 24 c53 44 335 227 500 326 994 595 2024 972 3012 1103 190 25
429 45 554 45 l117 0 7 -37 c14 -78 69 -149 203 -267 24 -21 41 -40 38 -43 -3
-3 -78 -9 -168 -14 -515 -27 -963 -117 -1464 -297 -132 -47 -337 -133 -331
-138 12 -12 371 28 436 48 25 8 35 7 41 -2 5 -9 32 -4 105 19 345 111 874 207
1095 199 56 -2 75 -7 75 -17 0 -8 -27 -21 -75 -33 -159 -41 -272 -132 -256
-209 5 -28 43 -88 83 -134 27 -31 133 -108 225 -166 45 -28 111 -73 145 -101
56 -44 63 -54 63 -85 0 -33 -2 -35 -26 -29 -15 4 -58 28 -97 54 -38 26 -86 58
-106 71 -144 97 -434 250 -626 331 -55 23 -113 47 -130 54 -132 58 -295 37
-388 -52 -30 -29 -56 -97 -41 -111 5 -6 68 8 151 33 l142 43 98 -37 c330 -125
700 -335 978 -557 172 -137 190 -155 176 -180 -15 -29 -14 -65 3 -89 16 -21
14 -27 36 76 35 165 58 618 41 783 -31 284 -138 573 -292 792 -66 91 -275 309
-289 300 -5 -3 -17 6 -28 20 -11 14 -24 25 -29 25 -5 0 -23 14 -41 30 -18 17
-37 30 -42 30 -4 0 -10 4 -12 9 -6 17 -153 105 -262 156 -137 65 -252 106
-421 150 -225 58 -310 66 -727 72 l-378 5 -242 -95 c-134 -53 -358 -141 -498
-196 -446 -174 -731 -296 -944 -403 -54 -27 -100 -47 -102 -45 -6 6 98 88 201
159 376 260 785 425 1303 528 84 16 165 30 180 31 24 0 25 1 7 9 -11 5 -29 8
-40 8 -11 -1 -78 -4 -150 -8z m1382 -155 c25 -15 136 -49 280 -85 291 -74 323
-82 323 -90 0 -4 -51 -12 -112 -19 -1194 -127 -2383 -561 -3581 -1309 -92 -57
-170 -102 -173 -99 -3 3 15 56 40 119 63 161 71 197 57 266 -14 68 -27 55 184
181 799 475 1883 898 2733 1065 163 32 166 33 186 14 12 -10 40 -30 63 -43z
m343 -400 c0 -9 -6 -12 -15 -9 -8 4 -15 10 -15 15 0 5 7 9 15 9 8 0 15 -7 15
-15z m-70 -10 c0 -10 -10 -15 -27 -15 -51 0 -193 -27 -448 -84 -11 -3 -31 -7
-45 -10 -14 -2 -36 -7 -50 -11 -14 -4 -34 -8 -45 -10 -11 -2 -22 -4 -25 -6 -3
-1 -9 -3 -15 -4 -5 -1 -17 -5 -25 -8 -8 -3 -44 -13 -80 -22 -247 -61 -904
-281 -947 -317 -7 -6 -13 -7 -13 -3 0 4 -11 0 -25 -9 -14 -9 -25 -14 -25 -11
0 4 -12 0 -27 -8 -16 -8 -39 -19 -53 -25 -14 -6 -45 -19 -70 -30 -25 -11 -112
-50 -193 -86 -181 -81 -291 -136 -295 -147 -2 -5 -8 -7 -13 -3 -5 3 -9 0 -9
-6 0 -6 -4 -9 -9 -5 -5 3 -12 1 -16 -4 -3 -6 -51 -31 -105 -57 -55 -26 -100
-50 -100 -55 0 -4 -20 -15 -45 -25 -25 -9 -45 -21 -45 -26 0 -5 -4 -6 -10 -3
-5 3 -10 2 -10 -4 0 -5 -16 -15 -35 -22 -19 -7 -35 -17 -35 -22 0 -4 -4 -6 -9
-3 -5 4 -11 3 -13 -2 -1 -4 -37 -27 -78 -51 -41 -25 -136 -82 -210 -129 -74
-46 -141 -85 -150 -87 -8 -2 -19 -4 -25 -5 -44 -10 -47 24 -5 67 88 90 794
475 1210 660 293 131 950 377 950 356 0 -3 7 0 15 7 8 7 15 10 15 6 0 -3 12
-1 28 5 15 6 41 15 57 19 17 5 79 22 139 39 60 17 113 28 117 25 4 -2 10 0 14
5 3 5 13 10 23 9 9 0 27 3 40 6 12 3 31 8 43 11 11 2 28 6 37 9 16 5 44 11 97
21 11 2 31 6 45 10 36 9 70 15 115 20 22 3 54 7 70 11 17 3 44 8 60 10 17 3
41 7 55 9 14 3 42 6 63 9 22 2 40 6 42 8 2 2 24 4 49 6 35 1 46 -2 46 -13z
m1074 -886 c-23 -89 -14 -187 30 -319 19 -58 33 -107 30 -109 -2 -2 -27 13
-56 34 -185 132 -482 316 -600 371 -21 10 -38 21 -38 24 0 9 230 30 437 39 92
4 177 12 188 18 11 6 21 10 23 8 2 -1 -4 -31 -14 -66z M5135 7566 c-622 -210
-1111 -449 -1470 -720 -111 -84 -277 -246 -346 -339 -55 -73 -126 -202 -143
-257 -7 -24 -8 -23 -28 20 -23 50 -88 298 -88 337 0 25 -1 26 -50 20 -160 -19
-317 -209 -381 -462 -20 -76 -23 -116 -23 -260 -1 -206 18 -296 94 -451 87
-180 195 -265 343 -272 74 -4 77 -5 83 -31 65 -302 207 -659 367 -923 199
-328 493 -637 761 -799 l55 -34 1 -245 c0 -135 3 -262 6 -282 l6 -36 -448 -5
c-473 -4 -500 -6 -739 -61 -130 -30 -339 -106 -473 -171 -226 -110 -402 -235
-557 -396 -185 -191 -286 -367 -351 -610 l-28 -104 -4 -578 -3 -577 3611 0
3611 0 -3 577 -4 578 -28 104 c-69 258 -189 456 -398 657 -287 277 -672 465
-1133 551 -135 25 -156 26 -589 30 l-448 5 6 30 c3 17 6 148 6 292 l1 261 56
34 c159 96 423 349 568 543 236 315 414 693 511 1085 l26 108 92 0 c113 0 163
22 248 108 72 73 147 220 178 347 43 180 37 413 -17 585 -69 222 -216 384
-362 402 -49 6 -50 5 -56 -23 -24 -111 -67 -266 -84 -304 -19 -43 -20 -44 -27
-20 -15 50 -101 207 -145 265 -259 336 -811 672 -1512 921 -231 82 -465 154
-502 154 -17 0 -102 -24 -190 -54z m440 -256 c146 -48 428 -160 615 -245 457
-206 792 -442 974 -685 63 -85 178 -195 241 -231 77 -44 112 -40 206 26 43 30
84 55 92 55 23 0 56 -43 82 -108 23 -58 25 -72 25 -242 0 -166 -2 -184 -25
-245 -47 -127 -104 -185 -215 -220 -102 -33 -222 -125 -280 -216 -35 -53 -60
-126 -90 -259 -31 -138 -59 -206 -158 -385 -122 -219 -157 -274 -260 -411 -84
-110 -259 -295 -342 -360 -107 -84 -227 -222 -256 -292 -16 -42 -16 -114 1
-154 5 -13 -10 -24 -77 -56 -246 -117 -499 -172 -793 -172 -289 0 -563 59
-776 166 l-66 33 9 53 c8 45 6 62 -10 102 -31 81 -118 180 -257 296 -274 227
-469 470 -619 768 -73 146 -106 228 -177 446 -32 98 -70 197 -83 220 -36 61
-130 146 -225 202 -118 69 -165 113 -203 192 l-33 66 -3 235 c-3 263 1 285 55
307 33 14 34 14 100 -37 98 -75 123 -85 173 -70 72 21 167 109 305 281 171
213 405 390 762 578 281 147 664 307 928 388 119 36 211 30 380 -26z m583
-4237 c-32 -112 -47 -223 -30 -223 5 0 12 -14 16 -31 12 -60 142 -206 218
-245 16 -9 73 -20 125 -26 58 -7 97 -16 100 -24 8 -21 -33 -88 -85 -137 -72
-67 -156 -118 -329 -202 -98 -48 -168 -88 -198 -116 -55 -51 -110 -140 -120
-194 -4 -22 -10 -44 -15 -50 -4 -5 -13 -30 -20 -55 -30 -111 -119 -254 -203
-322 -168 -138 -395 -142 -570 -9 -98 73 -176 199 -232 372 -51 160 -63 186
-112 239 -45 50 -77 70 -237 145 -152 71 -255 135 -316 196 -54 55 -94 115
-87 132 3 9 38 17 105 24 55 6 113 18 131 27 63 33 156 132 195 208 35 69 38
78 33 143 -2 39 -14 104 -25 145 -12 41 -22 81 -22 87 0 7 24 -3 55 -23 135
-86 289 -145 470 -181 128 -25 509 -25 645 1 182 33 390 118 510 207 14 10 26
19 27 19 1 0 -12 -48 -29 -107z m-2344 -430 c23 -89 83 -203 150 -283 126
-152 361 -299 599 -376 81 -27 87 -30 87 -56 0 -39 26 -156 51 -229 134 -391
467 -609 784 -511 258 79 462 350 518 687 l13 80 91 31 c396 138 669 380 739
657 9 37 19 67 23 67 7 0 124 -74 185 -116 l38 -27 -4 -62 c-10 -155 -194
-402 -419 -561 -35 -25 -113 -73 -173 -107 -164 -93 -207 -141 -300 -329 -113
-231 -189 -323 -357 -438 -189 -130 -409 -188 -606 -160 -218 30 -372 104
-529 256 -88 86 -150 178 -243 361 -61 121 -81 150 -134 200 -34 32 -115 89
-180 127 -255 151 -445 342 -538 541 -17 35 -33 79 -36 99 -6 36 12 96 29 96
5 0 14 4 21 10 24 19 162 110 168 110 4 0 14 -30 23 -67z m-418 -21 c65 -387
336 -713 766 -920 l117 -57 31 -90 c137 -390 437 -686 790 -779 89 -24 280
-32 377 -16 388 62 723 368 873 796 l31 89 77 35 c331 149 617 418 732 690 35
80 80 246 80 291 0 54 11 49 152 -66 9 -8 33 -17 52 -21 20 -3 36 -12 36 -18
0 -7 42 -24 93 -39 219 -61 467 -183 641 -314 225 -169 370 -364 446 -601 l30
-92 0 -445 c0 -438 0 -445 -20 -445 -14 0 -20 -7 -20 -24 l0 -24 -1477 -5
c-813 -3 -1567 -10 -1675 -15 -129 -7 -267 -7 -395 0 -109 5 -867 12 -1685 15
l-1488 5 0 483 c0 553 -2 538 92 715 142 266 355 460 673 615 116 57 345 141
432 160 18 3 45 17 60 30 116 98 149 123 157 121 6 -1 15 -35 22 -74z M4335
6061 c-69 -17 -125 -62 -161 -131 -17 -30 -19 -59 -19 -215 0 -196 4 -214 64
-278 110 -119 309 -89 377 56 22 49 24 63 24 223 0 162 -1 172 -25 221 -49 98
-157 149 -260 124z M6215 6061 c-70 -18 -125 -63 -161 -131 -17 -30 -19 -59
-19 -215 0 -156 2 -185 19 -215 48 -90 119 -134 217 -135 56 0 73 4 115 30 30
19 60 49 79 79 30 49 30 49 33 224 4 198 -4 234 -62 294 -58 60 -149 88 -221
69z M5021 4884 c-67 -56 -62 -186 9 -227 25 -15 62 -18 299 -18 181 0 277 3
291 11 76 41 81 193 8 244 -19 14 -65 16 -299 16 l-277 0 -31 -26z M4695 4431
c-49 -12 -90 -38 -121 -74 -68 -80 -67 -77 -72 -167 -4 -79 -2 -91 23 -145 40
-83 115 -152 228 -208 104 -52 145 -67 272 -98 76 -19 120 -22 280 -23 166 -1
203 2 295 23 168 38 318 108 413 191 76 67 107 138 107 248 0 85 -22 137 -79
191 -49 46 -89 61 -165 61 -58 0 -74 -5 -182 -61 -153 -78 -233 -99 -381 -99
-138 0 -226 18 -313 65 -174 93 -238 113 -305 96z m176 -118 c128 -98 253
-136 444 -136 191 0 312 37 443 136 45 34 63 41 110 45 73 4 135 -25 176 -85
37 -54 42 -139 10 -193 -49 -84 -258 -208 -419 -249 -357 -91 -740 -25 -981
167 -118 95 -136 210 -46 306 41 43 79 57 148 53 54 -2 68 -8 115 -44z"/>
</g>
</svg>
