<?xml version="1.0" standalone="no"?>
<!DOCTYPE svg PUBLIC "-//W3C//DTD SVG 20010904//EN"
 "http://www.w3.org/TR/2001/REC-SVG-20010904/DTD/svg10.dtd">
<svg version="1.0" xmlns="http://www.w3.org/2000/svg"
 width="2048.000000pt" height="2048.000000pt" viewBox="0 0 2048.000000 2048.000000"
 preserveAspectRatio="xMidYMid meet">
<metadata>
Created by potrace 1.13, written by Peter Selinger 2001-2015
</metadata>
<g transform="translate(0.000000,2048.000000) scale(0.192120,-0.192120)"
fill="#000000" stroke="none">
<path d="M5035 10324 c-432 -29 -661 -57 -970 -120 -1029 -212 -1787 -671
-2004 -1215 -102 -258 -76 -550 72 -796 95 -159 248 -324 399 -431 37 -26 67
-50 68 -53 0 -4 -30 -40 -67 -80 -254 -282 -489 -650 -643 -1007 -194 -449
-292 -891 -307 -1387 -13 -443 55 -885 202 -1315 103 -298 142 -370 213 -390
33 -9 57 -4 124 25 13 5 18 2 18 -11 0 -31 79 -253 141 -393 249 -569 688
-1089 1209 -1432 606 -399 1309 -590 2022 -549 473 28 886 137 1304 344 692
344 1261 942 1569 1649 55 128 135 353 135 382 0 19 -2 19 54 -5 56 -25 107
-16 148 27 50 53 182 409 248 672 75 299 105 556 104 906 0 279 -11 414 -55
660 -115 640 -424 1287 -845 1768 -93 106 -118 137 -113 140 135 92 296 240
380 352 298 393 294 826 -13 1211 -428 540 -1373 924 -2528 1029 -160 15 -738
27 -865 19z m695 -234 c903 -56 1711 -293 2230 -655 41 -28 80 -50 85 -48 18
6 197 -179 264 -273 35 -49 78 -118 95 -154 l31 -65 3 -212 c3 -207 2 -213
-23 -290 -49 -143 -129 -265 -250 -383 -71 -69 -131 -156 -140 -202 -4 -22 -1
-48 8 -71 l15 -36 -71 -49 c-417 -284 -1095 -510 -1802 -601 -331 -42 -402
-46 -845 -46 -442 0 -506 4 -840 46 -499 63 -989 195 -1390 374 -132 59 -358
183 -431 237 l-56 42 13 33 c8 18 14 43 14 56 0 44 -60 141 -136 222 -141 149
-247 304 -284 416 -19 57 -21 81 -18 253 l3 191 36 75 c20 41 59 106 87 143
29 37 52 71 52 75 0 17 200 207 219 208 11 1 37 14 58 30 129 100 350 221 568
314 465 198 1061 328 1685 369 185 12 631 12 820 1z m-2833 -2770 c375 -186
727 -305 1173 -394 96 -20 180 -42 187 -49 12 -11 12 -21 -1 -58 -8 -24 -17
-64 -21 -89 -13 -78 -71 -246 -113 -324 -23 -42 -67 -110 -99 -152 -32 -42
-68 -90 -80 -106 -58 -79 -280 -301 -502 -501 -451 -406 -645 -594 -832 -807
-204 -232 -383 -532 -493 -825 -32 -85 -35 -91 -63 -99 -18 -6 -26 0 -46 31
-51 81 -127 343 -166 572 -19 114 -21 162 -21 621 0 457 2 507 21 616 92 534
305 1023 638 1468 103 139 156 186 206 186 18 0 103 -36 212 -90z m5153 54
c50 -45 204 -254 295 -399 220 -351 370 -738 455 -1175 19 -98 20 -143 20
-662 l0 -557 -29 -148 c-48 -241 -116 -459 -158 -505 -12 -13 -20 -15 -35 -7
-21 12 -38 45 -104 214 -173 439 -400 774 -793 1165 -378 377 -800 686 -1337
981 -231 127 -473 241 -805 379 -122 51 -219 102 -219 116 0 18 35 23 290 34
822 38 1514 203 2128 509 213 106 232 109 292 55z m-3533 -570 c935 -201 1825
-604 2573 -1165 786 -589 1264 -1256 1390 -1939 9 -52 21 -103 25 -112 5 -14
2 -18 -12 -18 -42 0 -118 -35 -152 -69 -24 -24 -51 -72 -80 -141 -25 -58 -76
-170 -114 -250 -38 -80 -90 -194 -117 -255 -63 -145 -93 -195 -204 -334 -131
-163 -239 -266 -496 -472 -321 -256 -676 -443 -1075 -564 -307 -93 -508 -112
-1097 -101 -359 7 -418 13 -628 66 -372 95 -717 252 -1035 473 -164 114 -377
290 -470 389 -100 106 -262 312 -322 409 -48 77 -239 458 -273 544 -50 127
-101 224 -135 254 -33 29 -89 51 -129 51 -13 0 -16 4 -11 18 4 9 16 64 27 121
27 151 88 326 167 486 182 368 423 644 1081 1240 355 323 486 450 607 592 209
245 323 486 340 716 3 48 9 87 14 87 4 0 61 -11 126 -26z M4880 9970 c-535
-43 -1002 -140 -1372 -285 -389 -154 -657 -364 -781 -614 l-52 -104 -3 -149
c-4 -158 -4 -157 49 -274 66 -147 249 -324 387 -374 55 -20 68 -21 102 -11 21
6 50 25 63 41 l25 29 136 -59 c1049 -460 2817 -451 3840 20 l88 40 41 -36 c37
-34 43 -36 86 -31 136 17 346 190 431 357 50 99 60 145 60 289 0 132 -1 138
-35 221 -47 113 -91 176 -205 291 -325 327 -940 544 -1800 635 -177 19 -884
28 -1060 14z m720 -204 c610 -16 1249 -150 1666 -350 672 -323 749 -768 195
-1124 -48 -31 -57 -33 -75 -21 -504 320 -1014 508 -1586 585 -165 22 -604 30
-781 15 -626 -55 -1193 -250 -1745 -601 -20 -12 -28 -9 -85 30 -168 113 -263
213 -320 334 -142 303 113 624 668 845 349 138 760 227 1283 277 84 8 486 21
540 17 19 -1 127 -5 240 -7z m130 -1162 c289 -30 630 -112 893 -215 298 -117
312 -140 122 -202 -537 -177 -1539 -228 -2290 -116 -285 42 -576 113 -641 156
-30 19 -31 46 -1 65 36 24 244 108 367 149 307 102 576 152 985 183 93 7 418
-4 565 -20z M4385 5026 c-59 -27 -107 -72 -138 -130 -22 -40 -22 -49 -22 -401
l0 -360 27 -47 c97 -164 312 -195 440 -64 74 76 73 70 76 465 l3 354 -26 53
c-65 133 -228 192 -360 130z M6064 5034 c-59 -21 -119 -76 -149 -138 l-26 -53
3 -354 c3 -328 4 -357 23 -394 28 -57 89 -111 151 -135 107 -40 208 -18 289
64 85 85 87 94 83 493 -3 327 -4 339 -25 379 -68 127 -215 185 -349 138z
M4220 2824 c0 -18 111 -152 173 -210 214 -199 486 -310 815 -333 497 -35 924
134 1176 463 31 40 56 75 56 79 0 4 -499 7 -1110 7 -610 0 -1110 -3 -1110 -6z
M990 2795 c-147 -33 -273 -101 -383 -204 -279 -263 -347 -649 -184 -1043 72
-173 173 -322 317 -467 386 -390 959 -641 1660 -727 169 -21 613 -24 780 -6
582 65 1091 247 1465 524 116 86 273 230 256 236 -32 11 -258 -91 -460 -208
-187 -107 -333 -176 -501 -234 -765 -267 -1684 -245 -2415 59 -287 118 -584
316 -741 493 -140 156 -220 288 -274 451 l-31 92 3 213 3 212 37 75 c74 147
207 282 343 345 101 47 179 64 287 64 260 0 445 -115 636 -397 70 -104 151
-193 176 -193 22 0 -35 195 -85 290 -103 196 -279 342 -494 410 -91 29 -298
37 -395 15z M9341 2800 c-337 -71 -600 -343 -656 -677 -15 -91 51 -33 171 152
106 163 210 266 324 322 109 53 194 73 307 73 185 0 335 -62 469 -195 103
-101 146 -167 189 -289 34 -95 35 -100 35 -256 0 -144 -3 -167 -26 -242 -28
-88 -95 -229 -150 -315 -77 -120 -279 -301 -498 -445 -119 -79 -378 -205 -536
-261 -613 -219 -1357 -246 -2019 -76 -247 64 -558 191 -724 296 -130 82 -451
230 -479 221 -15 -5 141 -150 249 -231 714 -530 1881 -694 2853 -400 433 131
784 329 1045 590 131 132 213 244 290 398 209 418 164 818 -124 1106 -100 100
-189 155 -322 200 -83 28 -109 32 -224 35 -71 2 -150 -1 -174 -6z M2324 2697
c-165 -121 -283 -314 -319 -521 -8 -49 -13 -91 -11 -94 11 -10 95 91 140 168
43 75 100 164 189 294 16 23 35 56 43 74 18 41 34 122 24 122 -4 0 -34 -19
-66 -43z M8264 2693 c10 -55 44 -116 124 -223 40 -52 72 -98 72 -101 0 -13
112 -203 141 -241 38 -47 49 -48 49 -5 0 113 -91 327 -187 442 -56 66 -172
165 -195 165 -6 0 -8 -14 -4 -37z"/>
</g>
</svg>
