<?xml version="1.0" standalone="no"?>
<!DOCTYPE svg PUBLIC "-//W3C//DTD SVG 20010904//EN"
 "http://www.w3.org/TR/2001/REC-SVG-20010904/DTD/svg10.dtd">
<svg version="1.0" xmlns="http://www.w3.org/2000/svg"
 width="2048.000000pt" height="2048.000000pt" viewBox="0 0 2048.000000 2048.000000"
 preserveAspectRatio="xMidYMid meet">
<metadata>
Created by potrace 1.13, written by Peter Selinger 2001-2015
</metadata>
<g transform="translate(0.000000,2048.000000) scale(0.192120,-0.192120)"
fill="#000000" stroke="none">
<path d="M5108 10315 c-333 -46 -625 -183 -838 -395 -121 -119 -212 -259 -254
-387 -16 -47 -21 -53 -46 -53 -51 0 -273 -41 -405 -75 -660 -171 -1280 -561
-1709 -1075 -433 -520 -731 -1223 -796 -1880 -16 -163 -14 -498 5 -671 62
-588 256 -1163 578 -1718 l72 -123 12 157 c56 730 372 1455 820 1886 315 302
693 459 1108 459 141 0 310 17 450 45 317 64 595 204 813 410 169 159 332 410
388 596 10 32 20 59 24 59 3 0 13 -31 23 -68 46 -180 181 -405 339 -568 240
-247 536 -392 918 -449 56 -9 199 -20 318 -25 246 -10 375 -31 534 -86 459
-160 851 -537 1126 -1082 201 -398 313 -781 345 -1187 l12 -147 72 123 c316
542 517 1138 578 1716 18 174 21 510 5 674 -55 560 -287 1173 -627 1656 -218
310 -518 606 -833 819 -425 288 -936 484 -1431 549 l-46 6 -32 84 c-103 273
-373 523 -707 655 -237 95 -551 131 -816 95z m482 -291 c241 -40 486 -153 633
-292 40 -39 50 -85 21 -96 -10 -4 -95 -22 -191 -42 -167 -33 -401 -99 -515
-145 -89 -36 -171 -59 -211 -59 -22 0 -124 29 -230 66 -201 68 -347 108 -532
144 -137 27 -175 42 -175 70 0 27 66 89 165 156 283 188 659 260 1035 198z
m-1204 -535 c248 -24 572 -109 832 -219 l114 -49 91 41 c355 157 777 253 1027
233 83 -7 90 -9 90 -29 0 -62 91 -181 157 -207 14 -5 82 -23 152 -40 259 -63
753 -266 1006 -412 446 -258 815 -619 1071 -1049 166 -280 281 -563 376 -928
l32 -125 4 -535 c4 -553 3 -567 -39 -770 -25 -120 -123 -499 -155 -602 -27
-86 -61 -135 -87 -125 -21 8 -51 67 -81 160 -72 220 -249 605 -353 767 -286
448 -652 780 -1024 928 -222 88 -371 118 -660 132 -107 6 -243 17 -304 25
-315 43 -585 165 -790 356 -84 80 -155 174 -246 332 -104 180 -205 287 -270
287 -59 0 -173 -99 -247 -214 -129 -203 -184 -278 -267 -361 -138 -139 -312
-248 -498 -314 -199 -70 -345 -95 -652 -110 -350 -18 -554 -70 -804 -202 -527
-281 -929 -818 -1181 -1579 -72 -216 -88 -235 -133 -163 -34 54 -60 135 -127
397 -120 469 -120 463 -120 1016 0 547 4 581 112 925 160 509 402 911 772
1281 292 291 655 527 1041 678 66 26 150 61 186 77 115 51 280 106 403 133
141 32 171 43 219 85 37 33 87 124 87 160 0 16 8 21 43 24 84 7 115 7 223 -4z
M3308 5596 c-49 -13 -63 -21 -116 -70 -59 -54 -77 -100 -77 -196 0 -99 19
-144 84 -203 83 -75 59 -72 601 -72 473 0 486 1 531 21 177 82 220 313 84 449
-21 21 -59 47 -84 59 -45 20 -60 21 -511 23 -353 2 -476 -1 -512 -11z m890
-240 c30 -11 28 -44 -4 -56 -15 -6 -180 -10 -399 -10 -219 0 -384 4 -399 10
-41 15 -34 48 12 55 20 4 42 8 47 10 19 8 720 -2 743 -9z M6355 5592 c-68 -24
-107 -53 -144 -108 -107 -163 -18 -383 172 -424 36 -8 195 -10 507 -8 407 3
459 5 492 21 53 24 104 72 136 126 24 40 27 56 27 131 0 100 -19 144 -85 204
-81 73 -62 71 -585 73 -427 3 -475 1 -520 -15z m875 -233 c38 -8 50 -15 50
-29 0 -11 -9 -24 -19 -30 -13 -6 -158 -10 -405 -10 -387 0 -436 4 -436 36 0
17 12 23 62 33 65 13 688 13 748 0z M1191 4794 c-7 -37 -17 -119 -22 -182 -18
-204 20 -490 86 -656 l26 -66 -30 -26 c-16 -13 -43 -51 -58 -82 -22 -46 -28
-70 -27 -122 1 -78 19 -123 71 -180 84 -94 215 -117 331 -59 l62 30 62 -24
c35 -14 80 -28 101 -31 21 -4 40 -12 41 -19 2 -7 16 -68 31 -137 133 -610 435
-1232 821 -1694 434 -518 1015 -895 1668 -1082 580 -166 1258 -176 1851 -28
461 116 917 342 1290 638 127 101 417 391 519 519 246 309 437 641 589 1027
92 231 156 449 222 747 4 17 17 24 62 33 31 7 76 21 99 33 l42 20 62 -32 c118
-58 249 -36 333 59 52 57 70 103 71 180 1 76 -23 137 -77 197 l-36 39 25 63
c67 165 103 450 84 662 -12 135 -34 253 -43 229 -3 -8 -8 -49 -11 -90 -11
-130 -36 -279 -77 -457 -45 -199 -48 -255 -15 -335 13 -32 21 -58 17 -58 -3 0
-24 7 -46 15 -101 36 -212 9 -292 -70 -90 -91 -107 -215 -45 -330 32 -58 30
-62 -15 -44 -93 36 -161 27 -226 -27 -70 -59 -99 -121 -147 -314 -51 -205
-165 -511 -283 -760 -160 -339 -209 -424 -360 -613 -135 -171 -411 -432 -632
-600 -285 -215 -675 -408 -1025 -507 -326 -92 -606 -130 -968 -130 -912 0
-1705 323 -2356 958 -159 155 -351 410 -489 647 -193 333 -315 629 -422 1020
-64 237 -85 274 -180 324 -47 25 -94 27 -161 6 -27 -8 -52 -15 -56 -15 -3 0 7
24 23 53 16 30 31 77 35 109 23 200 -181 361 -371 293 -22 -8 -43 -15 -47 -15
-4 0 4 25 18 55 33 75 31 144 -6 297 -37 150 -76 373 -86 488 -9 113 -18 125
-33 44z m329 -1084 c12 -23 0 -54 -26 -64 -20 -8 -84 3 -84 14 0 5 -3 15 -6
23 -16 42 94 68 116 27z m7718 -21 c3 -32 0 -37 -24 -43 -43 -11 -84 11 -84
44 0 33 11 40 65 37 38 -2 40 -4 43 -38z M3825 4747 c-27 -13 -67 -43 -88 -67
-72 -78 -72 -79 -75 -428 -2 -203 1 -331 8 -366 23 -110 113 -197 226 -218
114 -21 228 35 288 142 l31 55 0 350 c0 336 -1 352 -21 396 -46 100 -127 151
-244 157 -63 2 -83 -1 -125 -21z M6601 4748 c-54 -27 -104 -75 -133 -131 -23
-41 -23 -48 -23 -397 l0 -355 31 -55 c114 -202 401 -191 498 19 20 44 21 60
21 391 0 385 1 380 -72 460 -55 62 -121 90 -208 89 -50 0 -82 -6 -114 -21z
M4964 3092 c-119 -42 -187 -137 -187 -263 0 -109 62 -206 163 -253 43 -20 60
-21 390 -21 330 0 347 1 391 21 177 82 218 314 81 451 -19 20 -56 45 -81 57
-44 20 -64 21 -376 23 -296 3 -335 1 -381 -15z m601 -241 c45 -9 44 -37 -2
-50 -51 -15 -412 -14 -469 0 -55 14 -57 41 -4 50 46 8 437 8 475 0z M4447
2269 c-93 -15 -163 -73 -208 -174 -27 -61 -23 -159 9 -221 74 -144 343 -262
727 -316 139 -20 601 -17 748 5 288 43 525 132 634 237 86 84 110 226 55 331
-33 63 -103 121 -169 139 -66 19 -154 8 -209 -27 -174 -108 -354 -146 -704
-146 -286 0 -493 33 -620 97 -25 13 -67 35 -95 49 -59 30 -102 36 -168 26z
m1679 -316 c-7 -23 -123 -72 -185 -78 -52 -5 -57 18 -8 38 17 8 52 23 77 35
98 44 129 45 116 5z m-1531 16 c78 -29 165 -74 165 -85 0 -11 -41 -13 -77 -5
-2 1 -6 2 -10 2 -46 7 -153 71 -153 91 0 9 48 7 75 -3z m199 -100 c-10 -16
-24 -9 -24 12 0 18 2 19 15 9 8 -7 12 -16 9 -21z m1093 -6 c-3 -3 -11 -2 -17
2 -8 5 -7 11 2 22 12 15 13 14 16 -1 2 -10 1 -20 -1 -23z m-1057 2 c0 -8 -4
-15 -10 -15 -5 0 -10 7 -10 15 0 8 5 15 10 15 6 0 10 -7 10 -15z m1020 0 c0
-8 -4 -15 -9 -15 -13 0 -22 16 -14 24 11 11 23 6 23 -9z m-975 -5 c3 -5 1 -10
-4 -10 -6 0 -11 5 -11 10 0 6 2 10 4 10 3 0 8 -4 11 -10z m925 -6 c0 -8 -5
-12 -10 -9 -6 4 -8 11 -5 16 9 14 15 11 15 -7z m-875 -3 c3 -5 1 -12 -5 -16
-5 -3 -10 1 -10 9 0 18 6 21 15 7z"/>
</g>
</svg>
