<?xml version="1.0" standalone="no"?>
<!DOCTYPE svg PUBLIC "-//W3C//DTD SVG 20010904//EN"
 "http://www.w3.org/TR/2001/REC-SVG-20010904/DTD/svg10.dtd">
<svg version="1.0" xmlns="http://www.w3.org/2000/svg"
 width="2048.000000pt" height="2048.000000pt" viewBox="0 0 2048.000000 2048.000000"
 preserveAspectRatio="xMidYMid meet">
<metadata>
Created by potrace 1.13, written by Peter Selinger 2001-2015
</metadata>
<g transform="translate(0.000000,2048.000000) scale(0.192120,-0.192120)"
fill="#000000" stroke="none">
<path d="M5108 10315 c-333 -46 -625 -183 -838 -395 -121 -119 -212 -259 -254
-387 -16 -47 -21 -53 -46 -53 -51 0 -273 -41 -405 -75 -660 -171 -1280 -561
-1709 -1075 -433 -520 -731 -1223 -796 -1880 -27 -274 -8 -664 46 -958 25
-138 83 -383 104 -436 6 -16 15 -49 21 -75 14 -63 108 -306 186 -481 71 -159
119 -252 227 -438 l71 -124 12 164 c33 427 158 860 362 1253 363 700 919 1085
1566 1085 141 0 310 17 450 45 317 64 595 204 813 410 169 159 332 410 388
596 10 32 20 59 24 59 3 0 13 -31 23 -68 46 -180 181 -405 339 -568 240 -247
536 -392 918 -449 56 -9 199 -20 318 -25 246 -10 375 -31 534 -86 297 -104
566 -296 790 -565 286 -345 516 -827 622 -1305 34 -155 46 -232 59 -399 l12
-147 71 123 c102 177 144 257 208 398 77 168 180 430 205 521 141 508 182 766
182 1151 0 397 -50 693 -182 1074 -188 544 -453 970 -841 1351 -357 351 -761
601 -1237 765 -193 67 -453 129 -642 154 l-46 6 -32 84 c-103 273 -373 523
-707 655 -237 95 -551 131 -816 95z m482 -291 c241 -40 486 -153 633 -292 40
-39 50 -85 21 -96 -10 -4 -95 -22 -191 -42 -167 -33 -401 -99 -515 -145 -89
-36 -171 -59 -211 -59 -22 0 -124 29 -230 66 -201 68 -347 108 -532 144 -137
27 -175 42 -175 70 0 27 66 89 165 156 283 188 659 260 1035 198z m-1204 -535
c248 -24 572 -109 832 -219 l114 -49 91 41 c355 157 777 253 1027 233 83 -7
90 -9 90 -29 0 -62 91 -181 157 -207 14 -5 82 -23 152 -40 259 -63 753 -266
1006 -412 446 -258 815 -619 1071 -1049 166 -280 281 -563 376 -928 l32 -125
4 -535 c3 -373 0 -556 -8 -605 -19 -114 -48 -250 -89 -410 -21 -82 -42 -170
-46 -195 -18 -121 -83 -299 -120 -330 -28 -23 -53 17 -104 171 -125 375 -292
713 -474 964 -182 250 -440 494 -664 628 -93 56 -257 132 -359 166 -135 44
-288 71 -474 81 -451 26 -630 63 -853 176 -263 133 -393 264 -588 596 -66 113
-139 196 -195 223 -32 15 -37 15 -78 -3 -60 -27 -142 -114 -211 -224 -130
-207 -227 -326 -343 -419 -140 -113 -277 -188 -447 -245 -188 -63 -318 -82
-685 -104 -277 -16 -457 -60 -675 -165 -293 -141 -573 -386 -793 -694 -181
-253 -365 -644 -462 -981 -12 -41 -31 -96 -42 -122 -18 -43 -22 -46 -43 -36
-13 6 -34 31 -48 57 -26 48 -71 188 -82 256 -4 22 -27 120 -51 218 -104 416
-104 416 -104 957 0 547 4 581 112 925 160 509 402 911 772 1281 292 291 655
527 1041 678 66 26 150 61 186 77 115 51 280 106 403 133 141 32 171 43 219
85 37 33 87 124 87 160 0 16 8 21 43 24 84 7 115 7 223 -4z M3325 5600 c-56
-14 -84 -29 -125 -66 -66 -60 -85 -104 -85 -204 0 -75 3 -91 27 -131 32 -54
83 -102 136 -127 34 -15 81 -17 522 -17 473 0 486 1 531 21 177 82 220 313 84
449 -21 21 -59 47 -84 59 -45 20 -60 21 -511 23 -256 1 -478 -2 -495 -7z m904
-231 c39 -14 41 -46 5 -80 l-26 -24 -396 0 c-218 0 -409 3 -424 8 -38 10 -63
49 -49 76 6 11 21 22 33 24 54 10 826 7 857 -4z M6362 5595 c-98 -31 -172
-111 -192 -211 -30 -146 66 -292 213 -324 36 -8 195 -10 507 -8 407 3 459 5
492 21 53 24 104 72 136 126 24 40 27 57 27 131 0 74 -3 91 -27 131 -32 54
-83 102 -136 126 -33 16 -84 18 -507 20 -376 2 -479 -1 -513 -12z m918 -224
c38 -10 41 -64 4 -88 -26 -17 -59 -18 -434 -18 -379 0 -407 1 -432 19 -20 13
-28 27 -28 47 0 23 6 30 33 38 37 11 819 13 857 2z M1217 4915 c-29 -130 -38
-188 -47 -296 -19 -208 13 -463 80 -653 l28 -79 -28 -24 c-16 -13 -42 -50 -57
-81 -22 -46 -28 -70 -27 -122 1 -78 19 -123 71 -180 84 -94 215 -117 332 -59
l62 31 42 -20 c23 -11 68 -25 99 -32 46 -9 59 -16 63 -33 65 -295 130 -512
221 -747 401 -1023 1150 -1765 2119 -2100 630 -217 1375 -248 2030 -84 461
116 922 344 1290 639 131 105 350 319 467 456 384 453 675 1041 824 1669 19
80 37 155 39 167 4 17 17 24 62 33 31 7 76 21 101 31 l44 19 61 -30 c115 -57
246 -34 330 60 52 57 70 102 71 180 1 52 -5 76 -27 122 -15 31 -41 68 -57 82
l-29 24 28 79 c88 241 111 583 56 846 -29 137 -31 141 -39 52 -24 -271 -49
-427 -102 -640 -35 -137 -41 -227 -20 -276 6 -13 -1 -15 -51 -11 -201 14 -349
-160 -300 -354 8 -32 15 -60 14 -60 -1 -1 -23 1 -48 5 -61 10 -107 -6 -165
-54 -100 -84 -123 -123 -155 -261 -85 -372 -116 -461 -249 -721 -44 -87 -80
-162 -80 -166 0 -21 -100 -213 -158 -302 -165 -255 -306 -419 -527 -614 -450
-397 -852 -617 -1380 -756 -456 -121 -993 -142 -1485 -59 -407 69 -842 237
-1195 462 -260 166 -597 464 -737 652 -31 41 -76 100 -99 130 -23 30 -74 105
-113 165 -94 147 -87 135 -155 260 -143 263 -245 521 -342 865 -63 224 -86
269 -172 341 -74 62 -111 75 -177 60 -36 -8 -41 -7 -35 7 51 132 10 277 -98
349 -62 42 -117 56 -190 51 -50 -4 -57 -2 -51 11 4 9 9 43 12 77 3 47 -4 91
-31 200 -46 176 -72 326 -87 484 -7 69 -15 150 -19 180 -6 49 -8 52 -14 25z
m327 -1137 c29 -15 36 -28 36 -65 0 -44 -27 -69 -84 -77 -65 -10 -96 10 -96
62 0 27 7 45 23 59 32 30 86 39 121 21z m7682 -19 c17 -16 24 -33 24 -58 0
-57 -12 -66 -74 -64 -87 3 -122 32 -110 93 13 60 108 78 160 29z M3825 4747
c-27 -13 -67 -43 -88 -67 -73 -80 -72 -75 -72 -460 0 -330 1 -347 21 -391 66
-143 237 -204 377 -136 60 30 95 65 130 131 21 40 22 49 22 391 0 336 -1 352
-21 396 -46 100 -127 151 -244 157 -63 2 -83 -1 -125 -21z M6625 4757 c-92
-35 -155 -108 -175 -200 -8 -35 -10 -160 -8 -372 l3 -320 31 -55 c114 -202
401 -191 498 19 20 44 21 60 21 391 0 385 1 380 -72 460 -54 60 -121 90 -203
89 -36 0 -79 -6 -95 -12z M4964 3092 c-211 -74 -254 -347 -76 -485 70 -54 108
-58 464 -55 304 3 326 4 369 24 100 46 162 144 162 254 0 110 -62 208 -162
254 -44 20 -64 21 -376 23 -295 3 -335 1 -381 -15z m648 -227 c22 -9 30 -32
18 -55 -18 -33 -98 -42 -335 -38 -232 3 -276 11 -283 52 -6 28 11 38 80 47 73
9 495 4 520 -6z M4447 2269 c-93 -14 -163 -73 -208 -174 -27 -61 -23 -159 9
-221 74 -144 344 -262 727 -316 122 -17 590 -17 715 0 388 55 655 175 726 327
35 75 34 175 -4 246 -78 150 -274 196 -407 95 -123 -94 -497 -151 -831 -127
-248 18 -408 57 -525 128 -62 38 -131 52 -202 42z m225 -315 c151 -57 216 -76
313 -90 314 -44 675 -25 890 48 33 12 97 36 142 54 117 48 175 44 139 -11 -48
-73 -377 -153 -661 -162 -166 -5 -363 -2 -465 7 -225 21 -519 109 -536 162
-16 51 24 49 178 -8z"/>
</g>
</svg>
