<?xml version="1.0" standalone="no"?>
<!DOCTYPE svg PUBLIC "-//W3C//DTD SVG 20010904//EN"
 "http://www.w3.org/TR/2001/REC-SVG-20010904/DTD/svg10.dtd">
<svg version="1.0" xmlns="http://www.w3.org/2000/svg"
 width="2048.000000pt" height="2048.000000pt" viewBox="0 0 2048.000000 2048.000000"
 preserveAspectRatio="xMidYMid meet">
<metadata>
Created by potrace 1.13, written by Peter Selinger 2001-2015
</metadata>
<g transform="translate(0.000000,2048.000000) scale(0.192120,-0.192120)"
fill="#000000" stroke="none">
<path d="M3867 10199 c-372 -31 -756 -139 -1100 -310 -330 -165 -602 -362
-872 -633 -844 -847 -1284 -2188 -1285 -3916 0 -620 -38 -1609 -101 -2625 -38
-625 -126 -1817 -164 -2218 -8 -86 -15 -159 -15 -162 0 -3 250 -5 555 -5 l555
0 0 183 c0 264 20 413 82 607 79 248 215 469 407 660 169 168 322 274 531 368
41 18 64 31 50 28 -14 -2 -77 -14 -140 -25 -63 -12 -142 -26 -175 -32 -84 -16
-173 -71 -299 -186 -165 -150 -261 -276 -378 -500 -118 -225 -183 -471 -204
-770 -6 -87 -9 -102 -25 -106 -14 -4 -19 -14 -19 -41 l0 -36 -384 0 -384 0 -6
22 c-14 54 -4 366 24 716 120 1528 181 2678 200 3767 11 703 17 862 36 1090
90 1079 358 1921 833 2620 92 135 167 226 348 420 194 209 326 320 557 474
240 159 585 325 776 372 65 17 335 68 430 83 180 28 760 65 1030 67 l195 1
-75 19 c-258 66 -668 94 -983 68z M6235 10199 c-112 -10 -374 -53 -450 -73
-46 -12 -26 -13 235 -19 276 -5 756 -36 910 -58 258 -36 550 -105 700 -165
110 -44 270 -120 280 -133 3 -3 43 -28 90 -55 124 -70 291 -182 399 -266 114
-89 312 -278 354 -339 16 -24 87 -112 156 -195 69 -84 144 -174 166 -201 21
-28 42 -52 45 -55 3 -3 31 -45 62 -95 413 -668 655 -1501 738 -2545 6 -69 17
-462 25 -875 17 -897 41 -1500 90 -2288 8 -131 15 -307 15 -391 0 -133 50
-906 80 -1231 5 -60 10 -251 10 -422 l0 -313 -385 0 -385 0 0 35 c0 22 -6 38
-15 41 -10 4 -15 21 -15 53 0 130 -41 377 -87 531 -42 143 -169 403 -255 525
-35 50 -119 147 -188 216 -176 177 -227 203 -512 264 -66 14 -125 25 -130 25
-6 0 47 -29 118 -65 521 -264 858 -746 924 -1320 5 -50 10 -172 10 -272 l0
-183 555 0 c305 0 555 3 555 8 0 4 -7 77 -15 162 -80 853 -191 2515 -229 3460
-24 570 -27 674 -36 1295 -11 696 -25 913 -86 1330 -213 1452 -810 2514 -1759
3127 -392 253 -784 400 -1255 469 -157 23 -555 33 -715 18z M5026 9975 c-414
-50 -813 -175 -1216 -381 -248 -126 -441 -252 -687 -446 -106 -85 -128 -98
-161 -98 -93 0 -191 -99 -192 -194 -1 -17 -11 -42 -23 -57 -583 -678 -897
-1404 -1003 -2319 -33 -289 -39 -1222 -13 -1965 44 -1278 222 -2000 531 -2154
55 -28 71 -31 152 -31 218 0 429 56 1021 270 307 111 568 197 701 231 l90 23
137 -68 137 -68 0 -224 0 -225 -417 2 -418 1 -3 -693 -2 -694 1670 0 1670 0
-2 694 -3 693 -417 -1 -418 -2 0 225 0 226 93 43 c50 24 111 55 134 70 l42 26
108 -30 c199 -55 366 -110 673 -221 642 -232 818 -278 1050 -278 185 0 290 39
386 143 149 161 226 482 263 1103 21 329 33 1173 29 1954 -4 675 -7 828 -22
949 -84 710 -296 1321 -640 1846 -84 128 -173 247 -298 396 -67 82 -88 114
-88 137 0 44 -24 93 -67 134 -43 41 -79 58 -127 58 -26 0 -56 18 -147 90 -486
385 -961 625 -1504 759 -345 85 -714 113 -1019 76z m631 -290 c308 -38 632
-130 940 -266 142 -64 196 -96 190 -114 -9 -26 -78 -43 -222 -54 -341 -26
-632 -34 -1215 -34 -800 -1 -1393 26 -1454 66 -47 31 -20 53 165 135 303 134
671 238 959 271 130 15 504 12 637 -4z m-2439 -614 c1014 -170 3172 -172 4190
-5 84 14 160 28 168 31 11 4 79 -58 220 -200 112 -113 204 -210 204 -216 0
-20 -286 -93 -531 -136 -569 -100 -1133 -144 -1955 -152 -927 -9 -1569 30
-2234 137 -224 36 -596 123 -617 144 -16 16 401 430 424 422 8 -3 66 -14 131
-25z m-290 -765 c646 -140 1410 -206 2392 -207 991 0 1742 64 2394 203 233 49
241 48 313 -45 113 -144 268 -423 358 -643 171 -419 270 -857 306 -1359 14
-191 6 -1976 -11 -2395 -18 -465 -51 -763 -105 -965 -29 -111 -45 -148 -84
-202 -50 -69 -95 -87 -236 -91 -100 -3 -142 1 -250 23 -190 38 -914 284 -965
328 -37 31 -24 54 108 191 373 388 668 888 860 1462 75 222 122 409 169 671
23 131 27 179 31 429 3 267 2 286 -19 365 -46 172 -141 363 -247 497 -346 438
-877 683 -1566 722 -293 17 -434 30 -546 51 -389 75 -794 222 -1305 476 -100
50 -198 96 -219 103 -89 29 -164 10 -278 -72 -26 -19 -182 -167 -345 -329
-326 -321 -412 -402 -639 -592 -323 -270 -472 -466 -565 -742 l-34 -100 0
-335 c1 -321 2 -341 28 -485 103 -568 299 -1085 585 -1544 135 -218 284 -408
477 -610 58 -61 105 -117 105 -126 0 -37 -40 -55 -390 -179 -403 -144 -583
-193 -742 -203 -156 -10 -210 22 -282 165 -102 204 -181 602 -231 1167 -12
139 -15 387 -15 1375 l0 1205 25 159 c59 379 157 712 302 1031 126 279 329
598 397 625 35 14 61 11 224 -24z m1398 -633 c272 -153 704 -340 1016 -442
319 -104 550 -148 848 -161 279 -13 346 -18 480 -41 624 -105 1089 -415 1275
-849 65 -153 80 -228 79 -400 -1 -165 -18 -323 -60 -547 -125 -680 -406 -1293
-814 -1774 -191 -224 -455 -451 -653 -560 l-49 -26 -51 34 c-45 30 -57 34 -92
29 -67 -11 -160 -63 -225 -126 -33 -33 -60 -67 -60 -75 0 -8 -4 -15 -10 -15
-6 0 -10 -78 -10 -215 0 -209 2 -226 32 -269 77 -109 137 -158 218 -175 28 -6
152 -11 275 -11 l225 0 0 -470 0 -470 -1430 0 -1430 0 0 469 0 470 263 3 c243
3 265 5 309 25 59 27 132 101 164 166 23 49 24 58 24 264 0 118 -4 213 -9 213
-5 0 -12 10 -15 23 -8 27 -37 61 -96 108 -70 56 -128 82 -186 83 -44 1 -58 -4
-93 -32 l-41 -33 -38 22 c-727 440 -1262 1274 -1466 2281 -49 241 -69 429 -70
628 0 159 3 196 22 262 77 281 190 431 537 713 225 183 357 308 700 658 165
169 303 307 306 307 3 0 59 -30 125 -67z M4105 6136 c-68 -31 -130 -101 -149
-167 -23 -75 -22 -374 0 -449 21 -72 98 -150 173 -175 101 -33 232 1 296 77
64 76 70 103 70 328 0 203 0 206 -27 255 -54 102 -138 154 -248 155 -47 0 -79
-7 -115 -24z M6325 6136 c-56 -25 -115 -86 -142 -143 -15 -32 -18 -69 -18
-243 0 -204 0 -205 28 -262 62 -126 205 -187 338 -143 75 25 152 103 173 175
22 75 23 374 0 449 -45 153 -233 236 -379 167z M5116 4750 c-83 -54 -85 -157
-6 -224 l32 -26 190 0 190 0 38 38 c51 51 61 101 31 157 -37 70 -53 75 -263
75 -164 0 -186 -2 -212 -20z M4516 3966 c-50 -19 -94 -61 -105 -103 -28 -101
74 -211 294 -319 312 -152 690 -180 1050 -78 216 61 447 208 484 307 39 104
-41 201 -165 201 -45 0 -62 -6 -130 -49 -257 -162 -474 -221 -715 -195 -181
20 -314 69 -500 186 -97 61 -150 73 -213 50z m811 -459 c-2 -23 -3 -1 -3 48 0
50 1 68 3 42 2 -26 2 -67 0 -90z M3216 2315 c-87 -13 -166 -26 -175 -28 -9 -3
111 -5 267 -6 155 0 282 2 282 7 -1 57 -116 65 -374 27z M7090 2320 c-11 -11
-20 -24 -20 -30 0 -6 101 -10 282 -10 155 0 279 2 277 4 -11 11 -364 56 -437
56 -69 0 -85 -3 -102 -20z M7668 2273 c7 -3 16 -2 19 1 4 3 -2 6 -13 5 -11 0
-14 -3 -6 -6z"/>
</g>
</svg>
