<?xml version="1.0" standalone="no"?>
<!DOCTYPE svg PUBLIC "-//W3C//DTD SVG 20010904//EN"
 "http://www.w3.org/TR/2001/REC-SVG-20010904/DTD/svg10.dtd">
<svg version="1.0" xmlns="http://www.w3.org/2000/svg"
 width="2048.000000pt" height="2048.000000pt" viewBox="0 0 2048.000000 2048.000000"
 preserveAspectRatio="xMidYMid meet">
<metadata>
Created by potrace 1.13, written by Peter Selinger 2001-2015
</metadata>
<g transform="translate(0.000000,2048.000000) scale(0.192120,-0.192120)"
fill="#000000" stroke="none">
<path d="M4930 10319 c-634 -41 -1114 -186 -1480 -449 -196 -141 -357 -302
-543 -548 -251 -330 -324 -535 -377 -1047 -31 -303 -61 -439 -126 -568 -66
-130 -224 -304 -363 -402 -44 -31 -90 -68 -101 -82 -83 -105 93 -216 493 -313
89 -21 191 -44 227 -50 36 -6 75 -13 88 -15 20 -5 22 -2 22 41 0 55 -23 107
-56 129 -14 9 -111 38 -217 64 -217 55 -233 60 -266 91 -20 20 -22 29 -17 69
4 25 9 67 13 94 3 26 9 50 14 52 4 3 131 -15 281 -39 780 -129 1479 -199 2056
-208 l192 -3 3 1552 c1 853 5 1554 9 1558 4 4 33 -8 65 -26 32 -19 61 -33 66
-31 4 1 7 -3 7 -9 0 -6 9 -9 20 -6 11 3 20 2 20 -1 0 -13 743 -6 773 6 16 7
53 23 84 37 30 14 58 23 62 20 3 -4 7 -702 8 -1552 2 -851 4 -1547 5 -1548 6
-5 676 15 856 25 417 23 982 68 1452 115 135 14 262 25 283 25 37 0 37 0 37
-42 -1 -105 -50 -132 -367 -197 -215 -44 -239 -60 -250 -164 l-6 -54 59 9 c93
14 279 57 407 94 250 72 377 148 377 227 0 34 -35 71 -151 159 -162 124 -261
236 -329 373 -64 130 -95 253 -120 483 -11 103 -28 241 -36 307 -53 396 -202
688 -519 1014 -440 453 -1006 706 -1783 796 -166 20 -665 28 -872 14z m-431
-1547 l1 -1363 -52 5 c-29 3 -111 8 -183 11 -466 21 -1569 153 -1808 216 l-37
10 74 58 c141 113 165 177 206 551 38 352 68 475 158 654 99 201 245 398 427
581 264 266 514 416 895 537 52 17 102 36 111 44 8 8 20 14 25 14 5 0 45 29
89 65 l80 66 7 -43 c3 -24 7 -656 7 -1406z m1791 1333 c65 -52 131 -87 220
-116 345 -114 667 -311 926 -565 290 -287 427 -526 484 -849 11 -60 29 -204
40 -320 36 -370 59 -453 149 -544 31 -31 82 -74 114 -94 51 -34 71 -57 50 -57
-5 0 -91 -9 -193 -20 -407 -43 -1060 -92 -1465 -110 -126 -5 -281 -12 -342
-15 l-113 -5 0 1342 c0 739 3 1366 6 1395 l7 52 31 -25 c17 -14 56 -45 86 -69z
M3504 6853 c-25 -5 -69 -50 -78 -80 -9 -27 -5 -28 169 -47 294 -32 578 -53
1025 -77 290 -16 1130 -16 1420 0 421 22 750 47 1038 77 37 4 66 12 69 20 10
27 -26 72 -73 90 -46 18 -53 17 -323 -10 -392 -40 -562 -45 -1396 -45 -854 0
-1071 7 -1470 49 -279 29 -335 32 -381 23z M2806 6798 c23 -131 48 -240 70
-311 54 -173 147 -307 212 -307 55 0 65 19 116 221 24 96 60 215 79 264 l34
90 -186 26 c-102 15 -213 32 -245 38 -86 16 -86 16 -80 -21z M7770 6819 c-67
-14 -365 -57 -447 -65 -40 -3 -73 -8 -73 -10 0 -2 62 -124 137 -271 151 -293
187 -343 247 -343 60 0 111 70 155 215 24 76 56 258 66 370 3 39 8 80 11 93 4
19 0 22 -23 21 -16 -1 -48 -5 -73 -10z M4120 6423 c-27 -10 -65 -37 -96 -68
-74 -74 -84 -114 -84 -330 0 -207 10 -251 75 -323 63 -70 127 -96 221 -90 111
7 189 61 236 163 22 47 23 62 23 250 0 199 0 200 -28 257 -64 131 -208 189
-347 141z M6344 6424 c-60 -21 -119 -77 -151 -142 -28 -57 -28 -58 -28 -262 0
-203 0 -205 27 -256 50 -95 126 -145 233 -152 93 -6 158 21 220 90 65 72 75
116 75 323 0 216 -10 256 -83 330 -80 80 -190 106 -293 69z M2712 6380 c-76
-128 -119 -339 -109 -533 16 -330 153 -574 367 -655 24 -9 27 -19 43 -123 112
-715 498 -1394 1022 -1799 39 -30 73 -59 77 -65 4 -5 8 -66 8 -135 0 -93 3
-121 11 -113 7 7 14 34 17 62 l4 49 82 -70 c154 -134 314 -225 491 -282 358
-115 865 -113 1220 5 185 61 307 132 472 272 l93 78 0 -44 c0 -24 7 -52 15
-63 13 -17 14 -5 15 111 l0 130 92 70 c112 85 279 248 380 371 339 412 559
920 646 1488 7 48 8 49 62 69 74 28 182 136 232 232 45 88 83 208 97 309 29
206 -4 445 -82 593 l-22 42 -3 -247 c-2 -136 -7 -272 -12 -302 -5 -30 -14 -82
-19 -115 -18 -104 -82 -215 -196 -334 -134 -142 -159 -183 -191 -317 -56 -235
-209 -666 -325 -912 -98 -208 -233 -376 -527 -650 -152 -142 -188 -199 -179
-278 l5 -46 -84 -54 c-181 -118 -449 -228 -669 -272 -355 -73 -726 -50 -1065
64 -128 43 -338 144 -442 213 l-78 51 0 50 c0 92 -45 154 -233 325 -93 84
-201 210 -304 353 -64 89 -205 331 -241 412 -98 220 -158 401 -212 640 -24
102 -52 205 -63 230 -13 29 -57 82 -128 151 -116 113 -167 186 -202 289 -20
61 -22 89 -27 435 l-5 370 -33 -55z M5034 5241 c-79 -36 -133 -137 -119 -222
9 -54 57 -121 107 -149 43 -25 45 -25 308 -25 l265 0 47 28 c50 29 91 86 103
145 17 81 -40 187 -119 223 -36 17 -69 19 -296 19 -227 0 -260 -2 -296 -19z
M4384 4260 c-51 -11 -98 -46 -123 -90 -32 -57 -27 -142 12 -193 75 -99 293
-183 589 -228 171 -26 548 -36 745 -20 275 22 479 68 638 146 108 52 153 95
170 163 21 78 2 136 -59 190 -62 55 -148 55 -222 2 -133 -95 -404 -144 -804
-144 -397 1 -636 42 -800 139 -61 37 -100 46 -146 35z M3835 2898 c-75 -27
-260 -164 -398 -297 l-47 -45 -277 -3 c-155 -1 -279 -6 -282 -11 -3 -5 -46
-20 -96 -32 -212 -53 -430 -151 -595 -268 -296 -211 -529 -538 -630 -886 -57
-194 -62 -241 -67 -648 l-5 -378 3891 0 3891 0 0 309 c0 328 -9 461 -41 606
-93 417 -347 788 -703 1027 -163 109 -335 184 -532 233 -60 15 -112 32 -115
37 -3 5 -128 10 -281 11 l-275 3 -85 77 c-171 156 -294 243 -376 268 -49 14
-78 1 -87 -41 l-7 -30 -89 0 -89 0 0 -261 0 -260 -127 -128 c-71 -70 -202
-187 -293 -261 -177 -144 -314 -272 -395 -368 -45 -55 -56 -62 -114 -77 -117
-29 -268 -40 -393 -27 -172 18 -226 36 -267 85 -89 106 -204 214 -416 392
-127 105 -272 236 -323 290 l-92 97 0 259 0 259 -89 0 -89 0 -7 30 c-10 47
-42 58 -100 38z m145 -314 c12 -38 42 -107 67 -153 l45 -84 -27 -58 c-23 -53
-25 -63 -14 -101 31 -116 113 -204 361 -389 67 -51 141 -109 164 -128 22 -20
73 -65 112 -100 101 -89 111 -96 162 -112 32 -11 60 -13 95 -7 28 4 55 6 62 3
18 -6 110 -141 149 -218 93 -183 148 -414 161 -680 l6 -127 -31 0 c-17 0 -43
-5 -57 -10 -31 -12 -29 -13 -235 123 -189 125 -452 324 -600 454 -262 231
-521 523 -664 746 -35 54 -35 56 -21 91 29 68 20 140 -31 251 -26 55 -62 143
-80 195 -38 106 -38 141 2 177 13 12 24 30 24 39 0 9 20 34 45 56 25 22 45 44
45 50 0 12 86 125 120 157 14 12 41 31 60 41 l35 18 11 -82 c6 -45 21 -113 34
-152z m2812 197 c20 -14 68 -66 105 -115 37 -49 91 -111 118 -137 63 -59 82
-114 65 -180 -7 -24 -44 -111 -83 -194 -83 -177 -95 -241 -58 -313 l21 -42
-36 -57 c-168 -263 -500 -620 -804 -864 -172 -139 -402 -304 -556 -400 -100
-62 -114 -68 -138 -59 -15 5 -41 10 -57 10 l-29 0 0 73 c0 105 27 317 54 432
43 179 111 329 206 458 l50 67 43 -7 c117 -21 158 -1 337 159 74 66 198 171
275 232 272 218 349 343 282 461 l-22 40 41 72 c52 92 101 237 109 330 8 80
10 81 77 34z m-3388 -364 c41 -161 129 -361 227 -515 l29 -46 0 -753 c0 -414
-2 -753 -6 -753 -3 0 -39 22 -81 50 -42 27 -84 50 -94 50 -9 0 -19 6 -21 13
-7 18 -429 18 -435 0 -3 -7 -11 -13 -18 -13 -7 0 -47 -23 -89 -52 -42 -28 -78
-49 -81 -46 -3 2 -4 490 -3 1082 l3 1078 105 -53 c58 -30 108 -57 111 -62 3
-4 42 -3 87 2 66 7 94 16 138 42 30 19 65 44 76 56 12 13 23 21 25 20 1 -2 14
-47 27 -100z m4016 5 c45 -21 170 -35 170 -20 0 4 7 8 15 8 9 0 52 18 96 41
45 22 92 44 105 49 l24 10 0 -1080 c0 -594 -4 -1080 -8 -1080 -4 0 -42 22 -83
50 -40 27 -81 50 -91 50 -9 0 -18 6 -20 13 -7 18 -429 18 -435 0 -3 -7 -11
-13 -18 -13 -7 0 -48 -22 -89 -50 -42 -27 -78 -50 -81 -50 -3 0 -5 338 -5 751
l0 751 70 122 c99 172 167 344 205 519 l6 28 47 -40 c26 -21 67 -48 92 -59z
m778 -293 c161 -76 263 -148 392 -278 129 -129 206 -238 268 -376 80 -180 82
-191 82 -564 l0 -331 -445 0 -445 0 0 804 0 804 23 -5 c12 -3 68 -27 125 -54z
m-5608 -749 l0 -800 -446 0 -445 0 3 333 3 332 33 94 c118 338 362 612 687
773 113 56 137 66 153 67 9 1 12 -165 12 -799z m1490 -317 c96 -97 204 -201
240 -231 36 -30 97 -81 137 -114 74 -61 94 -91 74 -111 -15 -15 -189 -26 -438
-26 l-213 -1 0 323 c0 298 2 337 19 337 4 0 85 -79 181 -177z m2680 -154 l0
-332 -292 6 c-170 3 -305 10 -320 16 -52 20 -36 42 140 194 92 80 234 213 317
296 82 83 151 151 152 151 2 0 3 -149 3 -331z"/>
</g>
</svg>
