<?xml version="1.0" standalone="no"?>
<!DOCTYPE svg PUBLIC "-//W3C//DTD SVG 20010904//EN"
 "http://www.w3.org/TR/2001/REC-SVG-20010904/DTD/svg10.dtd">
<svg version="1.0" xmlns="http://www.w3.org/2000/svg"
 width="2048.000000pt" height="2048.000000pt" viewBox="0 0 2048.000000 2048.000000"
 preserveAspectRatio="xMidYMid meet">
<metadata>
Created by potrace 1.13, written by Peter Selinger 2001-2015
</metadata>
<g transform="translate(0.000000,2048.000000) scale(0.192120,-0.192120)"
fill="#000000" stroke="none">
<path d="M4930 10319 c-634 -41 -1114 -186 -1480 -449 -196 -141 -357 -302
-543 -548 -251 -330 -324 -535 -377 -1047 -31 -303 -61 -439 -126 -568 -66
-130 -224 -304 -363 -402 -93 -65 -121 -96 -121 -136 0 -112 318 -237 824
-324 l39 -6 -6 56 c-6 62 -24 96 -62 121 -14 9 -111 38 -217 64 -217 54 -234
59 -267 90 -20 20 -22 29 -17 69 4 25 9 67 13 94 3 26 9 50 14 52 4 3 131 -15
281 -39 780 -129 1479 -199 2056 -208 l192 -3 3 1552 c1 853 5 1554 9 1558 4
4 33 -8 65 -26 32 -19 61 -33 66 -31 4 1 7 -3 7 -9 0 -6 9 -9 20 -6 11 3 20 2
20 -1 0 -13 743 -6 773 6 16 7 53 23 84 37 30 14 58 23 62 20 3 -4 7 -702 8
-1552 2 -851 4 -1547 5 -1548 6 -5 676 15 856 25 417 23 982 68 1452 115 135
14 262 25 283 25 37 0 37 0 37 -42 -1 -104 -55 -134 -350 -193 -230 -46 -261
-65 -268 -164 l-4 -58 58 9 c93 14 279 57 407 94 250 72 377 148 377 227 0 34
-35 71 -151 159 -162 124 -261 236 -329 373 -64 130 -95 253 -120 483 -11 103
-28 241 -36 307 -53 396 -202 688 -519 1014 -440 453 -1006 706 -1783 796
-166 20 -665 28 -872 14z m-431 -1547 l1 -1363 -52 5 c-29 3 -111 8 -183 11
-466 21 -1569 153 -1808 216 l-37 10 74 58 c141 113 165 177 206 551 38 352
68 475 158 654 99 201 245 398 427 581 264 266 514 416 895 537 52 17 102 36
111 44 8 8 20 14 25 14 5 0 45 29 89 65 l80 66 7 -43 c3 -24 7 -656 7 -1406z
m1791 1333 c65 -52 131 -87 220 -116 345 -114 667 -311 926 -565 290 -287 427
-526 484 -849 11 -60 29 -204 40 -320 36 -370 59 -453 149 -544 31 -31 82 -74
114 -94 51 -34 71 -57 50 -57 -5 0 -91 -9 -193 -20 -407 -43 -1060 -92 -1465
-110 -126 -5 -281 -12 -342 -15 l-113 -5 0 1342 c0 739 3 1366 6 1395 l7 52
31 -25 c17 -14 56 -45 86 -69z M2804 6811 c3 -14 14 -77 26 -139 l22 -112 -56
-61 c-68 -73 -135 -206 -168 -334 -19 -77 -23 -114 -23 -260 1 -203 20 -296
90 -442 68 -140 156 -226 276 -272 23 -8 27 -17 33 -68 11 -94 54 -294 92
-420 110 -376 299 -744 530 -1033 94 -117 291 -311 402 -395 l92 -70 0 -187 0
-188 -89 0 -89 0 -7 30 c-9 43 -38 55 -89 40 -79 -24 -258 -155 -409 -299
l-47 -45 -277 -3 c-155 -1 -279 -6 -282 -11 -3 -5 -46 -20 -96 -32 -212 -53
-430 -151 -595 -268 -296 -211 -529 -538 -630 -886 -57 -194 -62 -241 -67
-649 l-5 -377 3891 0 3891 0 0 309 c0 328 -9 461 -41 606 -93 417 -347 788
-703 1027 -163 109 -335 184 -532 233 -60 15 -112 32 -115 37 -3 5 -128 10
-281 11 l-275 3 -85 77 c-171 156 -294 243 -376 268 -49 14 -78 1 -87 -41 l-7
-30 -89 0 -89 0 0 188 0 187 93 70 c123 93 321 293 432 437 296 383 494 842
579 1341 l23 130 54 20 c85 32 184 136 242 257 73 149 92 241 91 445 0 144 -3
184 -23 260 -29 116 -98 258 -155 321 l-45 50 14 100 c24 181 24 194 6 194 -9
0 -68 -9 -130 -20 -266 -47 -791 -105 -1211 -134 -455 -32 -682 -40 -1180 -40
-622 0 -1043 20 -1650 80 -260 25 -705 84 -818 108 l-63 13 5 -26z m576 -161
c39 -33 82 -66 98 -74 46 -24 205 -36 392 -29 387 13 462 10 600 -25 68 -18
150 -32 181 -32 37 0 59 -4 61 -12 4 -10 134 -13 608 -13 474 0 604 3 607 13
3 8 27 12 72 12 42 0 112 12 191 32 138 35 119 34 650 27 259 -4 251 -6 363
99 33 31 62 51 67 46 5 -5 64 -117 132 -249 82 -160 135 -252 160 -277 92 -92
173 -18 241 221 27 94 28 92 47 -49 13 -95 0 -488 -20 -594 -18 -97 -71 -190
-170 -301 -101 -112 -174 -216 -196 -278 -8 -23 -24 -82 -34 -131 -35 -160
-231 -697 -321 -879 -81 -165 -220 -343 -387 -497 -228 -210 -290 -281 -330
-373 -15 -34 -16 -96 -2 -133 15 -39 -3 -54 -164 -134 -290 -144 -573 -210
-898 -210 -324 0 -608 68 -903 215 -177 89 -169 80 -154 152 12 56 11 62 -13
114 -39 84 -106 167 -217 267 -238 217 -362 381 -543 722 -103 193 -202 486
-258 765 -29 143 -71 215 -210 360 -178 186 -200 258 -200 650 0 219 16 434
33 451 2 2 9 -15 16 -38 23 -76 101 -216 142 -253 57 -51 107 -46 138 13 5 9
16 52 25 95 27 134 107 387 122 387 3 0 36 -27 74 -60z m962 -3740 c304 -219
722 -313 1198 -269 326 29 562 113 791 281 37 26 68 48 71 48 2 0 4 -23 4 -51
-1 -43 3 -54 26 -74 15 -13 45 -26 67 -30 l41 -7 0 -223 0 -222 -57 -7 c-73
-8 -144 -43 -215 -103 -30 -27 -139 -117 -241 -201 -102 -85 -226 -195 -275
-246 -106 -109 -128 -159 -119 -261 l6 -62 -82 -19 c-113 -25 -340 -25 -453 0
l-81 18 1 77 c1 101 -19 141 -132 256 -80 82 -293 267 -450 390 -34 28 -84 67
-110 87 -54 43 -118 68 -174 68 l-38 0 0 224 0 224 41 7 c22 4 52 17 66 29 23
20 26 31 25 74 0 29 1 52 3 52 2 0 41 -27 87 -60z m-394 -180 c22 -166 87
-306 211 -454 86 -103 174 -185 376 -349 360 -293 581 -558 675 -809 59 -157
97 -357 107 -560 l6 -128 -31 0 c-17 0 -43 -5 -57 -10 -31 -12 -29 -13 -235
123 -189 125 -452 324 -600 454 -262 231 -521 523 -664 746 -35 54 -35 56 -21
91 29 68 20 140 -31 251 -26 55 -62 143 -80 195 -38 105 -37 136 2 183 13 16
24 33 24 39 0 6 20 28 45 50 25 22 45 44 45 49 0 25 115 162 157 190 26 16 50
29 53 29 3 0 11 -40 18 -90z m2838 58 c40 -27 184 -197 184 -217 0 -3 22 -24
50 -46 27 -22 49 -47 50 -56 0 -9 7 -29 15 -46 13 -26 13 -36 0 -89 -9 -32
-45 -126 -82 -208 -74 -168 -86 -224 -58 -285 l17 -39 -37 -57 c-169 -265
-500 -621 -805 -866 -172 -139 -402 -304 -556 -400 -100 -62 -114 -68 -138
-59 -15 5 -41 10 -57 10 l-29 0 0 73 c0 174 48 452 104 600 100 266 313 524
681 824 202 165 290 246 376 349 124 148 189 288 211 454 7 50 15 90 19 90 4
0 28 -15 55 -32z m-3382 -371 c41 -161 129 -361 227 -515 l29 -46 0 -753 c0
-414 -2 -753 -6 -753 -3 0 -39 22 -81 50 -42 27 -84 50 -94 50 -9 0 -19 6 -21
13 -7 18 -429 18 -435 0 -3 -7 -11 -13 -18 -13 -7 0 -47 -23 -89 -52 -42 -28
-78 -49 -81 -46 -3 2 -4 490 -3 1082 l3 1078 105 -53 c58 -30 108 -57 111 -62
3 -4 42 -3 87 2 66 7 94 16 138 42 30 19 65 44 76 56 12 13 23 21 25 20 1 -2
14 -47 27 -100z m4016 5 c45 -21 170 -35 170 -20 0 4 7 8 15 8 9 0 52 18 96
41 45 22 92 44 105 49 l24 10 0 -1080 c0 -594 -4 -1080 -8 -1080 -4 0 -42 22
-83 50 -40 27 -81 50 -91 50 -9 0 -18 6 -20 13 -7 18 -429 18 -435 0 -3 -7
-11 -13 -18 -13 -7 0 -48 -22 -89 -50 -42 -27 -78 -50 -81 -50 -3 0 -5 338 -5
751 l0 751 70 122 c99 172 167 344 205 519 l6 28 47 -40 c26 -21 67 -48 92
-59z m778 -293 c161 -76 263 -148 392 -278 129 -129 206 -238 268 -376 80
-180 82 -191 82 -564 l0 -331 -445 0 -445 0 0 804 0 804 23 -5 c12 -3 68 -27
125 -54z m-5608 -749 l0 -800 -446 0 -445 0 3 333 3 332 33 94 c118 338 362
612 687 773 113 56 137 66 153 67 9 1 12 -165 12 -799z m1490 -317 c96 -97
204 -201 240 -231 36 -30 97 -81 137 -114 74 -61 94 -91 74 -111 -15 -15 -189
-26 -438 -26 l-213 -1 0 323 c0 298 2 337 19 337 4 0 85 -79 181 -177z m2680
-154 l0 -332 -292 6 c-170 3 -305 10 -320 16 -52 20 -36 42 140 194 92 80 234
213 317 296 82 83 151 151 152 151 2 0 3 -149 3 -331z M4120 6423 c-27 -10
-65 -37 -96 -68 -74 -74 -84 -114 -84 -330 0 -203 10 -250 71 -319 53 -60 107
-87 185 -94 118 -9 227 54 275 160 23 50 24 64 24 253 0 199 0 200 -28 257
-64 131 -208 189 -347 141z m131 -243 c6 0 8 -65 7 -162 l-3 -163 -31 -3 c-59
-6 -65 11 -62 176 l3 146 25 7 c14 4 31 5 38 3 8 -2 18 -4 23 -4z M6344 6424
c-60 -21 -119 -77 -151 -142 -28 -57 -28 -58 -28 -257 0 -189 1 -203 24 -253
48 -106 157 -169 275 -160 78 7 132 34 185 94 61 69 71 116 71 319 0 216 -10
256 -83 330 -80 80 -190 106 -293 69z m127 -244 c6 0 8 -65 7 -162 l-3 -163
-27 -3 c-15 -2 -36 2 -48 8 -20 10 -20 18 -18 163 l3 151 25 7 c14 4 31 5 38
3 8 -2 18 -4 23 -4z M5050 5249 c-82 -33 -134 -111 -134 -199 0 -62 17 -101
66 -148 57 -56 106 -64 376 -60 257 3 266 5 326 64 93 94 78 241 -32 319 l-44
30 -266 2 c-162 1 -277 -2 -292 -8z M6175 4255 c-16 -9 -45 -26 -63 -39 -127
-94 -572 -153 -970 -128 -298 18 -487 60 -610 136 -47 30 -67 36 -111 36 -141
0 -227 -144 -158 -265 62 -109 306 -206 632 -251 183 -25 685 -26 865 -1 313
44 558 136 630 237 25 35 38 117 26 164 -23 91 -156 152 -241 111z"/>
</g>
</svg>
