<?xml version="1.0" standalone="no"?>
<!DOCTYPE svg PUBLIC "-//W3C//DTD SVG 20010904//EN"
 "http://www.w3.org/TR/2001/REC-SVG-20010904/DTD/svg10.dtd">
<svg version="1.0" xmlns="http://www.w3.org/2000/svg"
 width="2048.000000pt" height="2048.000000pt" viewBox="0 0 2048.000000 2048.000000"
 preserveAspectRatio="xMidYMid meet">
<metadata>
Created by potrace 1.13, written by Peter Selinger 2001-2015
</metadata>
<g transform="translate(0.000000,2048.000000) scale(0.192120,-0.192120)"
fill="#000000" stroke="none">
<path d="M5085 10043 c-1109 -93 -2237 -669 -2993 -1528 -271 -308 -474 -611
-662 -987 -291 -582 -462 -1219 -526 -1948 -33 -386 -30 -1832 6 -2540 73
-1426 286 -2214 649 -2393 56 -27 77 -32 161 -35 243 -10 535 63 1175 295 362
131 673 237 896 304 142 42 176 49 192 40 34 -22 250 -128 317 -156 175 -75
431 -147 645 -182 159 -26 612 -26 770 0 334 56 658 166 910 309 l70 40 115
-32 c199 -57 562 -178 930 -310 725 -261 894 -304 1190 -305 193 0 244 9 353
67 71 38 172 144 221 230 77 139 146 401 185 708 50 391 67 817 82 1995 13
1011 7 1684 -16 1965 -104 1250 -559 2299 -1350 3108 -735 754 -1780 1259
-2795 1351 -105 10 -429 12 -525 4z m645 -228 c928 -124 1818 -566 2496 -1240
200 -199 361 -396 554 -675 95 -139 365 -627 432 -783 165 -383 298 -936 348
-1457 16 -161 8 -3324 -9 -3535 -34 -440 -72 -699 -122 -850 -46 -136 -125
-289 -172 -331 -87 -79 -209 -110 -392 -101 -232 13 -478 79 -1118 301 -201
70 -381 124 -517 157 -64 15 -250 14 -376 -1 -48 -6 -88 -9 -90 -8 -1 2 47 38
109 80 783 536 1365 1425 1630 2493 116 465 173 984 133 1198 -135 715 -812
1226 -1791 1352 -66 9 -235 20 -375 25 -283 10 -404 24 -627 69 -513 105
-1205 376 -1771 692 -67 38 -126 69 -130 69 -3 0 -227 -220 -497 -488 -423
-422 -521 -514 -715 -673 -267 -218 -389 -334 -476 -449 -183 -243 -267 -543
-243 -868 72 -1001 400 -1909 950 -2632 227 -299 505 -565 817 -781 66 -46
119 -85 117 -87 -2 -2 -43 1 -92 7 -132 17 -251 20 -318 10 -91 -14 -348 -90
-576 -170 -801 -280 -1134 -347 -1292 -262 -214 117 -370 626 -462 1503 -43
416 -45 498 -45 1926 0 1527 -3 1436 71 1849 173 959 602 1787 1260 2432 265
260 487 433 802 627 517 318 1182 551 1732 605 61 6 124 13 140 15 66 9 507
-4 615 -19z m-1488 -2891 c681 -339 1281 -546 1798 -618 132 -18 202 -24 470
-36 392 -18 638 -63 934 -172 283 -104 543 -272 718 -465 156 -171 268 -358
309 -514 20 -76 21 -100 16 -343 -5 -283 -18 -382 -76 -609 -16 -65 -33 -139
-36 -165 -26 -194 -111 -481 -188 -637 -19 -38 -51 -110 -71 -158 -20 -49 -55
-124 -77 -168 -22 -44 -48 -101 -58 -127 -77 -195 -221 -433 -407 -673 -121
-156 -312 -344 -525 -517 -163 -132 -208 -159 -357 -216 -48 -19 -143 -59
-212 -90 -463 -212 -812 -288 -1240 -273 -350 13 -628 80 -985 239 -99 44
-227 98 -284 120 -123 46 -147 58 -224 110 -150 102 -463 388 -553 505 -246
322 -317 423 -375 529 -17 33 -51 94 -76 137 -238 419 -423 954 -512 1472 -38
226 -41 264 -41 582 0 358 3 380 71 522 89 188 208 325 462 534 293 240 398
336 777 712 206 205 391 384 410 398 62 47 91 41 332 -79z M3857 5316 c-99
-36 -166 -112 -187 -212 -7 -35 -10 -162 -8 -361 l3 -308 28 -57 c87 -177 304
-212 444 -73 80 80 83 99 83 470 0 371 -3 390 -83 470 -79 78 -184 105 -280
71z m121 -548 l-3 -303 -27 -3 c-15 -2 -36 2 -48 8 -19 10 -20 19 -20 299 0
158 3 291 7 294 3 4 26 7 50 7 l43 0 -2 -302z M6620 5313 c-26 -9 -66 -38 -96
-68 -81 -80 -84 -99 -84 -470 0 -371 3 -390 83 -470 140 -139 357 -104 444 73
l28 57 0 340 c0 324 -1 342 -21 385 -30 65 -70 107 -128 137 -65 33 -161 40
-226 16z m138 -545 l-3 -303 -31 -3 c-63 -6 -64 -2 -64 312 0 155 3 286 7 289
3 4 26 7 50 7 l43 0 -2 -302z M4964 3928 c-17 -6 -53 -27 -80 -47 -163 -123
-135 -379 51 -467 50 -24 53 -24 395 -24 342 0 345 0 395 24 186 88 214 344
51 467 -26 20 -65 41 -86 48 -48 14 -681 13 -726 -1z m694 -201 c28 -16 32
-22 32 -60 -1 -95 -43 -107 -365 -107 -319 0 -375 16 -375 107 0 71 58 82 405
80 236 -2 274 -5 303 -20z M4403 2813 c-23 -8 -65 -35 -92 -59 -129 -116 -118
-309 24 -429 168 -143 401 -246 680 -302 70 -14 139 -18 315 -18 249 0 357 15
541 75 243 80 470 225 534 341 26 47 30 64 30 129 0 62 -5 84 -27 126 -31 58
-74 99 -135 126 -106 47 -197 31 -313 -58 -268 -204 -703 -251 -1057 -115 -76
30 -132 63 -246 146 -78 56 -166 70 -254 38z m198 -206 c24 -13 90 -49 145
-80 56 -32 122 -64 145 -73 238 -84 522 -97 765 -33 118 31 174 57 379 175 42
24 61 29 121 29 90 0 104 -11 104 -78 0 -62 -25 -104 -88 -150 -376 -270
-1038 -315 -1508 -102 -99 45 -225 128 -254 167 -15 21 -25 50 -28 83 -3 46
-2 51 25 67 43 27 139 24 194 -5z"/>
</g>
</svg>
