<?xml version="1.0" standalone="no"?>
<!DOCTYPE svg PUBLIC "-//W3C//DTD SVG 20010904//EN"
 "http://www.w3.org/TR/2001/REC-SVG-20010904/DTD/svg10.dtd">
<svg version="1.0" xmlns="http://www.w3.org/2000/svg"
 width="2048.000000pt" height="2048.000000pt" viewBox="0 0 2048.000000 2048.000000"
 preserveAspectRatio="xMidYMid meet">
<metadata>
Created by potrace 1.13, written by Peter Selinger 2001-2015
</metadata>
<g transform="translate(0.000000,2048.000000) scale(0.192120,-0.192120)"
fill="#000000" stroke="none">
<path d="M5010 10043 c-339 -19 -748 -92 -1058 -189 -1169 -365 -1994 -1267
-2191 -2394 -53 -299 -55 -686 -5 -1075 65 -519 241 -915 404 -915 57 0 94 47
115 147 150 700 436 1273 846 1698 108 111 246 235 263 235 3 0 63 -46 134
-103 377 -304 661 -483 885 -558 213 -72 344 -24 378 139 11 55 7 176 -7 232
-5 17 44 -24 157 -135 467 -456 781 -664 860 -569 39 47 28 169 -30 345 -41
120 -148 369 -160 369 -4 0 -14 -13 -24 -29 -20 -35 -24 -199 -5 -234 6 -12
13 -66 16 -119 5 -110 2 -113 -57 -77 -59 36 -220 168 -359 293 -260 235 -328
269 -413 210 -35 -24 -109 -131 -109 -157 0 -7 -16 -36 -36 -66 l-36 -54 -62
5 c-161 14 -405 149 -789 437 -221 166 -272 195 -342 195 -121 0 -313 -157
-546 -446 -255 -317 -489 -777 -615 -1208 -64 -216 -88 -262 -120 -228 -26 29
-101 309 -133 500 -21 120 -22 152 -18 650 l3 523 28 115 c87 363 240 688 459
978 409 542 1013 925 1758 1113 336 85 616 119 1029 126 337 6 534 -7 795 -52
890 -154 1677 -618 2179 -1285 226 -300 372 -598 456 -932 l30 -117 0 -628 c0
-620 0 -630 -25 -783 -14 -85 -25 -181 -25 -212 0 -31 -5 -60 -11 -64 -6 -3
-17 -21 -25 -39 -11 -26 -18 -32 -34 -28 -46 12 -98 101 -340 583 -234 468
-251 498 -304 548 -96 91 -109 94 -516 122 -521 36 -990 126 -1298 249 -53 22
-153 65 -222 96 -143 65 -213 79 -256 50 l-26 -17 28 -30 c125 -132 411 -271
739 -359 343 -91 820 -156 1288 -175 l168 -7 299 -597 c253 -506 307 -606 350
-653 61 -67 103 -84 152 -64 89 37 167 201 218 456 61 308 84 585 84 1021 1
280 -2 353 -17 443 -85 501 -293 954 -636 1385 -109 136 -376 404 -509 510
-222 178 -427 308 -677 431 -455 225 -912 349 -1449 391 -117 9 -498 11 -636
3z M1765 5708 c-151 -153 -253 -373 -302 -658 -23 -131 -23 -431 1 -557 79
-433 291 -737 561 -808 32 -8 59 -16 60 -17 1 -2 10 -43 19 -93 104 -546 357
-1146 673 -1592 270 -383 620 -712 999 -941 344 -208 710 -339 1124 -403 125
-20 184 -23 430 -23 313 0 445 14 695 74 799 190 1486 700 1970 1460 99 155
265 483 332 655 94 240 166 477 217 718 l33 152 44 7 c175 30 377 229 478 473
82 195 115 374 115 620 0 306 -59 545 -188 765 -44 76 -169 220 -180 209 -15
-14 62 -323 125 -509 22 -62 23 -83 26 -433 4 -347 3 -371 -17 -443 -29 -106
-65 -188 -117 -267 -63 -93 -117 -144 -220 -207 -104 -63 -191 -146 -226 -216
-13 -27 -46 -132 -72 -234 -72 -285 -180 -587 -338 -945 -62 -142 -209 -372
-352 -555 -183 -232 -561 -556 -855 -731 -360 -214 -760 -346 -1183 -389 -157
-16 -565 -8 -707 15 -492 77 -928 259 -1313 548 -208 156 -443 376 -530 494
-12 16 -57 76 -100 132 -309 408 -521 869 -671 1459 -26 101 -56 200 -67 220
-36 64 -130 151 -225 207 -174 103 -277 253 -349 507 -14 49 -16 107 -13 400
l4 343 27 75 c15 41 54 131 87 200 77 163 132 370 99 370 -6 0 -49 -37 -94
-82z M3852 5592 c-73 -27 -122 -69 -157 -137 l-30 -59 0 -345 c0 -387 -1 -381
73 -463 108 -120 296 -118 409 5 71 77 74 103 71 484 l-3 328 -30 53 c-68 124
-206 179 -333 134z M6659 5604 c-82 -15 -184 -114 -209 -202 -6 -22 -10 -167
-10 -348 0 -358 4 -387 73 -461 113 -123 301 -125 409 -5 74 82 73 76 73 462
0 380 0 377 -65 460 -54 68 -176 110 -271 94z M4944 3641 c-187 -85 -226 -334
-72 -465 73 -63 94 -66 458 -66 364 0 385 3 458 66 153 131 115 380 -72 465
-38 17 -70 19 -386 19 -316 0 -348 -2 -386 -19z m578 -229 c37 -5 70 -11 73
-14 4 -3 0 -15 -7 -27 -12 -20 -20 -21 -258 -21 -232 0 -247 1 -262 20 -21 24
-11 32 52 41 64 9 322 9 402 1z M6649 2551 c-36 -11 -65 -28 -115 -66 -114
-88 -418 -163 -789 -195 -166 -15 -663 -15 -825 -1 -381 34 -662 104 -803 200
-32 22 -74 45 -94 52 -46 15 -159 7 -200 -15 -176 -91 -212 -320 -71 -452 247
-233 901 -368 1703 -351 574 12 967 85 1274 234 189 93 271 192 271 329 0 173
-187 314 -351 265z m-2521 -327 c67 -30 166 -67 220 -83 498 -147 1486 -145
1980 4 48 15 141 52 206 83 133 62 199 74 204 37 6 -43 -77 -102 -213 -152
-49 -18 -207 -60 -255 -68 -19 -3 -69 -12 -110 -20 -440 -86 -1243 -86 -1660
0 -36 7 -83 16 -106 19 -22 4 -71 15 -107 26 -37 10 -67 16 -67 14 0 -3 -6 -2
-12 3 -7 4 -21 9 -30 10 -35 6 -201 83 -224 104 -49 46 -38 93 19 82 18 -3 87
-30 155 -59z"/>
</g>
</svg>
