<?xml version="1.0" standalone="no"?>
<!DOCTYPE svg PUBLIC "-//W3C//DTD SVG 20010904//EN"
 "http://www.w3.org/TR/2001/REC-SVG-20010904/DTD/svg10.dtd">
<svg version="1.0" xmlns="http://www.w3.org/2000/svg"
 width="2048.000000pt" height="2048.000000pt" viewBox="0 0 2048.000000 2048.000000"
 preserveAspectRatio="xMidYMid meet">
<metadata>
Created by potrace 1.13, written by Peter Selinger 2001-2015
</metadata>
<g transform="translate(0.000000,2048.000000) scale(0.192120,-0.192120)"
fill="#000000" stroke="none">
<path d="M4920 9213 c-506 -19 -994 -187 -1372 -474 -85 -65 -282 -249 -274
-256 2 -3 33 18 68 45 245 192 602 379 948 496 209 70 653 174 758 177 24 0
25 1 7 9 -11 5 -29 8 -40 7 -11 0 -54 -2 -95 -4z M5005 9166 c-71 -29 -276
-108 -455 -176 -606 -228 -968 -378 -1230 -508 l-115 -57 -72 -100 c-40 -55
-95 -140 -122 -190 -56 -100 -120 -260 -123 -302 -1 -16 -9 -64 -20 -108 -33
-144 -43 -333 -30 -543 11 -174 40 -437 60 -542 9 -45 8 -46 -31 -70 -107 -67
-207 -248 -248 -445 -23 -112 -25 -311 -4 -422 49 -258 178 -454 333 -507 41
-14 36 -2 71 -184 l20 -102 -24 -37 c-40 -58 -48 -105 -42 -248 11 -245 69
-461 186 -700 38 -77 99 -182 136 -233 38 -54 81 -128 100 -176 170 -421 437
-739 752 -895 85 -42 223 -88 313 -102 48 -8 88 -22 115 -39 128 -86 382 -130
745 -130 364 0 638 49 753 133 21 16 58 28 107 36 442 70 841 440 1056 979 22
54 61 128 90 167 138 191 233 396 292 631 59 236 68 471 20 557 l-25 43 24
115 c12 63 23 127 23 142 0 18 6 29 18 33 107 32 215 134 280 265 147 299 131
702 -40 975 -36 58 -112 138 -151 160 -17 10 -17 15 2 125 46 262 70 662 51
844 -26 249 -71 408 -180 630 -117 238 -272 418 -526 611 -166 127 -423 248
-671 318 -51 14 -99 26 -108 26 -9 0 -14 4 -10 9 6 10 -96 35 -215 52 -41 6
-277 13 -525 15 l-450 4 -130 -54z m1255 -71 c29 -35 113 -64 310 -109 236
-53 372 -87 367 -93 -2 -2 -64 -10 -138 -19 -1263 -145 -2491 -594 -3732
-1366 -115 -72 -211 -128 -213 -125 -3 3 17 59 44 125 65 156 76 207 61 285
-14 69 -23 58 111 141 325 201 879 474 1350 664 555 223 1203 420 1665 505
130 24 149 23 175 -8z m562 -411 c49 -15 -1 -39 -112 -53 -227 -28 -745 -124
-764 -141 -5 -5 -15 -6 -22 -3 -8 3 -14 0 -14 -7 0 -7 -7 -10 -16 -6 -9 4 -22
2 -28 -2 -6 -5 -42 -17 -81 -26 -102 -25 -437 -127 -608 -186 -539 -183 -1204
-493 -1703 -792 -194 -117 -178 -107 -247 -151 -83 -55 -163 -97 -181 -97 -12
0 -16 11 -16 48 0 55 -4 51 215 185 474 288 1114 602 1595 784 548 208 1142
367 1610 432 204 29 315 33 372 15z m538 -179 c0 -33 35 -112 71 -161 21 -29
77 -85 125 -126 l86 -73 -119 -7 c-374 -23 -582 -46 -823 -94 -417 -83 -916
-248 -1309 -435 -58 -28 -182 -77 -276 -108 -478 -163 -885 -345 -1232 -553
-410 -247 -718 -548 -811 -795 -15 -40 -30 -73 -34 -73 -18 0 -92 268 -118
428 l-12 73 36 36 c35 36 36 38 36 115 0 45 -4 78 -10 78 -5 0 -10 9 -10 19 0
11 -4 21 -8 23 -4 2 -18 19 -30 40 l-23 36 43 35 c24 19 115 82 203 139 773
504 1627 903 2435 1138 577 167 1189 269 1683 278 79 2 97 -1 97 -13z m-3693
-67 c-3 -8 -6 -5 -6 6 -1 11 2 17 5 13 3 -3 4 -12 1 -19z m-20 -10 c-3 -8 -6
-5 -6 6 -1 11 2 17 5 13 3 -3 4 -12 1 -19z m-60 -30 c-3 -8 -6 -5 -6 6 -1 11
2 17 5 13 3 -3 4 -12 1 -19z m-20 -10 c-3 -8 -6 -5 -6 6 -1 11 2 17 5 13 3 -3
4 -12 1 -19z m-20 -10 c-3 -8 -6 -5 -6 6 -1 11 2 17 5 13 3 -3 4 -12 1 -19z
m3942 -419 c20 -7 31 -18 31 -30 0 -10 -4 -19 -8 -19 -29 0 -184 -22 -217 -31
-106 -29 -166 -61 -206 -111 -21 -28 -39 -61 -39 -74 0 -27 59 -126 94 -159
30 -29 150 -113 231 -164 39 -24 107 -71 153 -104 l82 -61 0 -53 c0 -39 -4
-53 -14 -53 -8 0 -110 63 -227 141 -226 148 -543 316 -744 393 -55 21 -108 42
-117 47 -37 19 -152 21 -220 5 -164 -38 -301 -112 -354 -189 -29 -44 -33 -83
-6 -72 43 18 170 60 319 106 l162 49 143 -55 c280 -109 590 -278 852 -465 117
-84 284 -219 320 -259 19 -21 19 -22 -2 -60 -28 -49 -28 -80 1 -122 22 -33 22
-37 10 -109 -17 -101 -56 -251 -87 -330 l-25 -65 -12 35 c-130 362 -557 724
-1215 1029 -234 108 -412 178 -721 281 -241 80 -261 89 -226 95 55 9 296 78
378 108 46 17 72 22 76 15 4 -7 74 12 195 51 315 105 707 190 1009 220 61 6
124 13 140 15 71 8 215 5 244 -5z m254 -230 c-10 -33 -17 -87 -17 -139 1 -72
7 -104 41 -210 23 -69 40 -127 38 -129 -2 -2 -41 24 -87 57 -187 134 -369 249
-552 347 -61 32 -106 60 -100 61 31 8 277 27 439 33 145 5 197 11 220 23 17 9
31 15 32 14 2 -2 -5 -27 -14 -57z m-2121 -291 c29 -6 60 -16 68 -23 8 -6 29
-17 45 -25 17 -8 32 -18 35 -21 3 -3 42 -33 86 -67 83 -63 178 -114 359 -193
238 -103 549 -274 724 -398 229 -163 353 -273 465 -416 138 -175 173 -204 238
-191 18 4 53 24 78 46 56 50 76 57 102 33 48 -42 58 -92 58 -284 0 -153 -3
-188 -20 -238 -31 -93 -83 -172 -173 -262 -86 -87 -134 -151 -156 -207 -20
-47 -9 -128 25 -203 l31 -64 -81 0 c-74 0 -88 -3 -166 -41 -118 -57 -185 -111
-329 -264 -264 -280 -451 -400 -651 -417 -98 -8 -167 11 -314 87 -153 80 -300
140 -418 171 -69 19 -115 23 -278 26 -290 5 -399 -22 -716 -177 -99 -49 -201
-94 -225 -99 -109 -25 -222 -6 -354 59 -122 60 -204 126 -395 320 -196 198
-249 242 -365 297 -71 34 -89 38 -156 38 l-76 0 35 67 c74 145 50 222 -123
393 -94 92 -139 159 -166 246 -16 51 -19 93 -19 267 0 191 2 210 21 241 13 22
26 32 37 28 9 -2 24 -6 31 -8 8 -2 26 -16 39 -32 41 -47 107 -80 144 -71 39 8
136 102 220 214 136 180 269 298 543 480 300 200 725 404 1195 573 150 54 300
103 355 116 58 13 185 13 247 -1z m-2330 -2757 c65 -29 98 -57 283 -239 94
-93 211 -199 260 -235 160 -119 327 -186 461 -187 l61 0 11 -81 c14 -94 54
-171 126 -237 124 -115 376 -178 756 -189 349 -10 660 38 833 130 99 52 195
186 198 274 1 21 4 52 8 68 6 29 8 30 83 37 140 13 280 74 435 189 42 32 159
138 258 236 178 175 257 236 323 249 l32 7 0 -165 c0 -188 -12 -250 -80 -420
-42 -104 -70 -157 -175 -328 -32 -52 -94 -169 -138 -260 -140 -291 -247 -431
-495 -653 -161 -144 -193 -161 -373 -201 -37 -8 -111 -33 -166 -55 -197 -78
-354 -102 -673 -102 -319 0 -494 26 -674 102 -51 21 -140 49 -199 63 -119 28
-170 51 -237 105 -97 77 -281 244 -330 299 -79 88 -184 253 -257 402 -86 179
-111 227 -143 275 -63 94 -171 297 -204 380 -63 165 -76 232 -76 402 l0 153
24 0 c13 0 44 -9 68 -19z m2393 -611 c248 -18 416 -56 469 -105 33 -30 33 -46
0 -85 -51 -60 -192 -111 -419 -153 -105 -19 -155 -22 -405 -22 -250 0 -300 3
-405 22 -224 41 -360 91 -421 154 -89 93 99 163 516 192 113 8 539 6 665 -3z
M4140 6431 c-75 -23 -146 -87 -179 -161 -18 -40 -21 -66 -21 -245 0 -189 2
-203 24 -250 47 -103 143 -165 251 -164 33 0 74 6 92 12 56 21 120 74 150 124
28 48 28 48 31 252 4 229 -1 261 -53 332 -62 86 -195 130 -295 100z M6360
6431 c-50 -16 -89 -41 -129 -87 -61 -70 -71 -115 -71 -325 0 -215 12 -260 88
-331 65 -61 123 -82 211 -76 109 8 186 63 235 168 19 41 21 63 21 245 0 199 0
200 -28 257 -33 67 -91 121 -155 142 -48 17 -129 20 -172 7z M5035 5242 c-84
-39 -132 -125 -122 -215 8 -65 44 -119 104 -154 l48 -28 238 -3 c282 -4 322 3
381 68 46 51 56 77 56 144 0 68 -33 131 -89 171 l-43 30 -266 3 c-242 2 -271
0 -307 -16z M2860 2534 c-620 -94 -1146 -538 -1339 -1131 -67 -205 -74 -269
-79 -690 l-4 -383 3891 0 3891 0 0 268 c0 527 -35 732 -174 1017 -243 496
-706 835 -1256 920 -131 20 -1250 22 -1250 2 0 -7 -65 -59 -143 -114 -376
-267 -609 -382 -871 -428 -128 -23 -350 -16 -476 14 -170 42 -372 135 -576
266 -164 106 -354 246 -354 260 0 22 -1118 20 -1260 -1z m4750 -154 c61 -28
180 -71 265 -95 192 -56 261 -82 377 -142 237 -122 472 -355 587 -581 41 -80
92 -217 117 -311 23 -88 24 -108 24 -382 0 -282 0 -289 -20 -289 -11 0 -20 -7
-20 -15 0 -13 -266 -15 -2202 -18 -2446 -4 -2216 3 -2488 -72 -73 -20 -134
-34 -136 -32 -12 11 340 312 611 522 765 594 1540 1044 2275 1322 159 60 430
142 472 143 14 0 76 -23 138 -50z m-3604 -71 c65 -12 98 -29 259 -134 232
-153 334 -207 501 -267 114 -40 124 -42 234 -42 100 0 193 12 320 41 14 3 -76
-64 -200 -149 -573 -392 -949 -690 -1478 -1171 -84 -75 -155 -137 -160 -137
-4 0 -29 18 -55 40 -27 22 -65 44 -85 50 -24 6 -312 10 -799 10 -672 0 -763 2
-763 15 0 11 -12 15 -46 15 l-45 0 3 323 3 322 37 106 c76 219 196 417 343
565 227 229 565 383 904 414 138 12 959 12 1027 -1z m1404 -633 c0 -12 -26
-36 -95 -88 -5 -5 -127 -91 -271 -193 -143 -102 -269 -193 -280 -203 -10 -9
-80 -65 -154 -123 -74 -59 -202 -162 -285 -229 -179 -146 -237 -187 -299 -205
-50 -15 -62 -9 -52 29 9 36 444 393 781 641 305 224 469 330 566 365 65 23 89
25 89 6z"/>
</g>
</svg>
