<?xml version="1.0" standalone="no"?>
<!DOCTYPE svg PUBLIC "-//W3C//DTD SVG 20010904//EN"
 "http://www.w3.org/TR/2001/REC-SVG-20010904/DTD/svg10.dtd">
<svg version="1.0" xmlns="http://www.w3.org/2000/svg"
 width="2048.000000pt" height="2048.000000pt" viewBox="0 0 2048.000000 2048.000000"
 preserveAspectRatio="xMidYMid meet">
<metadata>
Created by potrace 1.13, written by Peter Selinger 2001-2015
</metadata>
<g transform="translate(0.000000,2048.000000) scale(0.192120,-0.192120)"
fill="#000000" stroke="none">
<path d="M4730 10220 c-368 -51 -692 -198 -966 -439 -122 -106 -149 -157 -142
-270 l5 -78 -81 -33 c-45 -19 -148 -68 -231 -110 -681 -347 -1260 -865 -1686
-1505 -307 -462 -536 -1010 -644 -1540 -13 -63 -28 -112 -36 -117 -8 -4 -41
-18 -74 -30 -85 -33 -168 -91 -251 -173 -473 -470 -355 -1347 219 -1626 44
-21 103 -43 132 -50 l53 -12 22 -86 c33 -125 132 -410 192 -553 429 -1022
1270 -1879 2283 -2329 580 -257 1162 -379 1805 -379 592 0 1111 98 1645 312
1199 479 2137 1468 2554 2691 32 95 68 211 81 258 l22 86 55 13 c76 17 216 89
291 151 118 96 239 273 291 428 94 277 75 595 -52 846 -96 192 -261 354 -430
422 -34 14 -68 28 -76 32 -8 4 -23 51 -36 117 -50 247 -147 558 -252 808 -239
567 -620 1113 -1063 1524 -339 313 -717 572 -1115 763 -297 141 -640 260 -940
325 -77 16 -82 19 -155 89 -241 230 -560 389 -900 450 -110 20 -421 28 -520
15z m524 -310 c263 -52 516 -171 711 -334 28 -23 102 -81 166 -129 64 -48 128
-100 143 -117 44 -53 94 -151 126 -250 l31 -95 -3 -330 c-4 -325 -4 -331 -30
-400 -44 -122 -83 -199 -149 -296 -204 -300 -471 -461 -811 -489 -320 -26
-590 49 -809 225 -118 96 -231 249 -275 375 -21 62 -24 87 -24 219 0 175 1
176 92 176 55 0 62 -3 89 -33 21 -24 29 -42 29 -70 0 -21 11 -78 23 -128 39
-148 118 -283 225 -388 221 -215 524 -273 824 -158 241 93 442 329 556 651 26
75 27 80 27 331 0 254 0 255 -28 334 -98 276 -282 503 -532 656 -61 38 -102
58 -251 126 -28 12 -161 48 -224 60 -214 41 -452 16 -676 -70 -153 -58 -253
-116 -411 -237 -77 -59 -108 -76 -148 -80 -29 -4 -30 -3 -33 41 -3 53 7 65
130 153 193 138 445 236 698 273 137 19 394 12 534 -16z m-61 -261 c348 -70
669 -309 798 -594 164 -363 80 -789 -208 -1056 -111 -102 -268 -165 -438 -176
-183 -11 -351 53 -485 185 -114 114 -160 219 -160 372 0 93 -19 154 -67 209
-54 64 -123 95 -208 95 -41 0 -85 -7 -106 -16 -55 -24 -119 -87 -145 -143 -48
-102 -26 -362 45 -539 142 -354 482 -621 880 -691 112 -20 345 -19 452 1 407
77 734 336 929 735 103 210 144 396 144 644 0 302 -70 540 -232 799 l-62 98
48 -28 c26 -15 91 -56 146 -91 108 -70 241 -139 324 -168 28 -11 52 -24 52
-29 0 -6 33 -24 73 -40 136 -54 412 -194 569 -289 172 -104 321 -208 470 -329
456 -368 877 -890 1071 -1328 17 -37 48 -113 129 -305 88 -210 146 -390 213
-654 20 -79 45 -161 56 -183 34 -67 166 -195 274 -266 140 -92 210 -166 268
-283 68 -138 77 -183 77 -387 0 -200 -10 -252 -71 -377 -45 -92 -108 -176
-171 -228 -24 -20 -95 -61 -158 -92 -92 -46 -126 -69 -180 -123 -96 -97 -120
-142 -185 -334 -95 -280 -267 -699 -341 -828 -247 -429 -654 -903 -986 -1149
-447 -331 -961 -596 -1439 -740 -1100 -331 -2329 -202 -3304 348 -71 41 -149
84 -172 97 -113 62 -400 262 -501 349 -146 126 -369 351 -486 490 -212 252
-369 491 -526 799 -126 246 -175 362 -260 616 -33 101 -73 207 -88 235 -46 85
-147 176 -259 231 -176 88 -323 261 -377 443 -12 43 -16 102 -16 266 0 242 6
274 84 409 63 111 115 167 230 249 119 84 185 143 236 212 45 61 61 105 99
265 130 547 421 1154 767 1595 378 483 823 851 1389 1150 61 32 126 69 146 82
41 27 82 95 99 166 7 26 15 47 19 47 4 0 23 -16 42 -36 49 -53 121 -84 193
-84 105 0 127 12 290 150 166 142 404 244 632 270 109 12 266 4 387 -21z
M3998 5880 c-348 -41 -608 -335 -608 -686 0 -273 144 -507 385 -624 104 -51
187 -70 306 -70 386 0 689 303 689 690 0 419 -358 739 -772 690z m217 -262
c114 -24 251 -122 296 -210 17 -32 19 -60 19 -214 0 -160 -2 -182 -21 -221
-49 -101 -161 -190 -288 -227 -70 -20 -209 -21 -286 -1 -122 32 -240 124 -295
229 -30 58 -30 60 -30 218 0 178 6 201 77 279 124 137 322 192 528 147z M6498
5880 c-348 -41 -608 -335 -608 -686 0 -273 144 -507 385 -624 104 -51 187 -70
306 -70 386 0 689 303 689 690 0 419 -358 739 -772 690z m217 -262 c114 -24
251 -122 296 -210 17 -32 19 -60 19 -214 0 -160 -2 -182 -21 -221 -49 -101
-161 -190 -288 -227 -70 -20 -209 -21 -286 -1 -125 33 -239 120 -293 225 l-32
63 0 159 c0 178 6 201 77 279 124 137 322 192 528 147z M4330 3428 c-84 -43
-117 -153 -107 -358 12 -253 124 -493 326 -703 114 -118 220 -196 355 -262
172 -84 240 -100 426 -100 186 0 254 16 426 100 387 188 662 578 681 965 10
205 -23 315 -107 358 -42 22 -54 23 -175 19 -71 -3 -211 -15 -310 -28 -158
-20 -222 -23 -520 -23 -311 0 -358 2 -553 27 -270 34 -381 35 -442 5z m456
-248 c98 -11 197 -20 220 -20 26 0 49 -7 62 -19 21 -18 22 -26 22 -212 0 -167
3 -202 19 -247 40 -109 132 -237 222 -309 117 -92 115 -90 103 -109 -16 -28
-70 -37 -174 -31 -287 16 -585 220 -744 508 -65 118 -76 165 -76 321 l0 138
83 0 c46 0 164 -9 263 -20z m1414 -114 c0 -107 -3 -136 -15 -146 -23 -19 -29
-6 -33 76 -3 55 -8 74 -18 74 -9 0 -14 11 -14 30 0 17 -4 30 -10 30 -5 0 -10
16 -10 35 l0 35 50 0 50 0 0 -134z m-310 -96 c0 -207 -21 -283 -99 -353 -109
-99 -310 -83 -398 32 -51 66 -63 123 -63 303 l0 158 280 0 280 0 0 -140z"/>
</g>
</svg>
