<?xml version="1.0" standalone="no"?>
<!DOCTYPE svg PUBLIC "-//W3C//DTD SVG 20010904//EN"
 "http://www.w3.org/TR/2001/REC-SVG-20010904/DTD/svg10.dtd">
<svg version="1.0" xmlns="http://www.w3.org/2000/svg"
 width="2048.000000pt" height="2048.000000pt" viewBox="0 0 2048.000000 2048.000000"
 preserveAspectRatio="xMidYMid meet">
<metadata>
Created by potrace 1.13, written by Peter Selinger 2001-2015
</metadata>
<g transform="translate(0.000000,2048.000000) scale(0.192120,-0.192120)"
fill="#000000" stroke="none">
<path d="M3955 10319 c-322 -30 -668 -120 -959 -249 -108 -48 -114 -50 -161
-40 -97 20 -390 24 -525 6 -885 -117 -1571 -800 -1685 -1679 -13 -102 -15
-353 -15 -1850 0 -1061 4 -1784 10 -1867 47 -633 259 -1220 624 -1723 70 -98
71 -99 106 -93 19 3 423 6 898 6 l862 0 -2 212 -3 211 -55 19 c-85 29 -327
149 -433 216 -312 196 -597 481 -801 802 -128 202 -264 534 -316 775 -55 255
-53 229 -57 1265 l-4 965 88 12 c192 27 424 115 596 229 133 88 298 253 389
389 168 252 288 603 304 893 3 53 8 104 10 112 3 8 22 -29 43 -82 169 -428
572 -873 1073 -1185 608 -378 1454 -614 2333 -651 l160 -7 3 -750 c3 -818 0
-907 -49 -1148 -148 -743 -650 -1397 -1333 -1736 -66 -33 -157 -74 -201 -90
l-80 -29 -3 -211 -2 -211 869 0 c477 0 882 -3 899 -6 24 -5 32 -2 41 14 6 12
38 489 76 1129 53 906 65 1162 65 1399 0 164 5 316 11 350 27 150 150 314 288
383 67 34 199 68 212 54 4 -4 10 -42 14 -84 7 -73 6 -77 -19 -96 -14 -11 -72
-33 -128 -49 l-103 -29 707 -3 707 -2 238 39 c131 22 259 42 286 46 l48 6 23
-53 c36 -80 84 -124 150 -138 62 -13 95 -9 436 45 267 43 350 49 350 25 0 -31
-116 -77 -645 -258 -209 -71 -465 -157 -570 -192 -104 -34 -253 -88 -330 -119
l-140 -56 -605 -5 c-536 -5 -612 -8 -664 -23 -64 -19 -131 -63 -184 -121 l-32
-36 800 0 800 0 -59 -57 c-32 -32 -67 -74 -76 -93 -10 -19 -23 -38 -29 -42 -8
-5 -12 -582 -14 -2108 -2 -1853 -4 -2100 -17 -2100 -11 0 -15 -11 -15 -40 0
-33 -3 -40 -20 -40 -11 0 -20 -7 -20 -15 0 -13 -86 -15 -715 -15 -470 0 -715
-3 -715 -10 0 -5 -20 -10 -44 -10 -24 0 -46 -3 -48 -7 -4 -10 -130 -73 -146
-73 -9 0 -12 115 -12 500 l0 500 -140 0 -140 0 0 -504 0 -505 -57 30 c-32 16
-73 32 -90 35 -18 3 -33 10 -33 15 0 5 -861 9 -2050 9 -1360 0 -2050 -3 -2050
-10 0 -5 -5 -10 -11 -10 -6 0 -42 -16 -80 -35 l-69 -34 0 504 0 505 -140 0
-140 0 0 -505 0 -506 -73 38 c-39 21 -73 41 -75 46 -2 4 -12 7 -23 7 -10 0
-19 5 -19 10 0 6 -105 10 -295 10 -256 0 -295 2 -295 15 0 11 -12 15 -45 15
l-46 0 3 703 3 702 27 62 c41 98 118 221 175 283 78 85 151 137 302 215 161
83 181 106 181 213 l0 64 -42 -7 c-184 -31 -386 -136 -538 -282 -170 -161
-267 -332 -327 -573 -14 -57 -17 -166 -20 -842 l-4 -778 4031 0 4031 0 -1
2362 -2 2363 845 281 c910 303 919 307 1023 411 60 59 79 106 71 174 -15 126
-119 227 -242 236 -32 3 -209 -23 -495 -71 -245 -41 -456 -77 -469 -78 -20 -3
-25 3 -37 50 -19 73 -39 108 -93 161 -66 66 -128 93 -226 98 -71 4 -124 -5
-465 -76 l-384 -81 -323 0 -323 0 0 654 c0 380 -4 697 -10 757 -108 1072 -759
1998 -1731 2463 -290 138 -584 225 -919 271 -139 19 -517 27 -655 14z m430
-309 c322 -21 596 -79 870 -185 487 -189 893 -492 1209 -903 224 -291 389
-657 471 -1042 l25 -120 0 -734 0 -733 -57 -36 c-32 -20 -89 -65 -128 -102
-91 -85 -105 -94 -105 -61 0 13 -7 26 -15 30 -13 5 -15 61 -15 421 0 270 -3
415 -10 415 -5 0 -10 9 -10 20 0 11 -4 20 -9 20 -5 0 -12 11 -15 25 -9 36
-108 137 -165 168 -54 30 -109 39 -376 62 -1043 90 -1884 410 -2465 937 -173
157 -273 277 -439 528 -120 182 -199 273 -264 304 -37 17 -39 17 -82 -4 -95
-46 -156 -148 -211 -352 -105 -393 -210 -604 -394 -789 -157 -159 -321 -249
-590 -325 -149 -42 -201 -76 -315 -205 l-30 -34 0 -1070 c0 -1184 -5 -1076 66
-1343 98 -366 302 -756 557 -1062 77 -92 253 -270 347 -350 98 -83 268 -203
384 -270 150 -88 159 -101 75 -121 -57 -13 -1160 -11 -1207 2 -57 16 -106 66
-174 181 -74 124 -180 335 -221 438 -73 184 -138 420 -172 625 -19 117 -20
165 -20 2097 0 1730 2 1986 15 2050 146 703 825 1231 1595 1241 74 1 196 0
271 -2 l137 -3 118 42 c482 172 669 217 991 239 173 12 183 12 358 1z m1995
-6615 c-10 -155 -15 -187 -36 -231 -13 -28 -24 -56 -24 -63 0 -9 -134 -11
-572 -9 -593 3 -626 5 -612 43 4 8 50 40 103 71 224 132 420 284 591 460 188
194 287 325 452 601 l103 172 3 -432 c2 -248 -2 -508 -8 -612z M2754 6710
c-91 -28 -183 -129 -198 -217 -3 -21 -6 -110 -6 -199 0 -192 11 -240 72 -309
111 -126 301 -128 411 -5 69 75 72 90 72 325 l0 210 -30 53 c-32 59 -67 92
-129 124 -46 23 -144 33 -192 18z m94 -412 c-3 -127 -5 -143 -20 -146 -17 -3
-18 9 -18 142 0 140 1 146 20 146 20 0 20 -5 18 -142z M4969 6706 c-84 -30
-140 -82 -177 -164 -14 -31 -17 -70 -17 -237 0 -188 1 -203 23 -250 48 -104
139 -165 248 -165 114 0 197 48 250 142 29 53 29 54 32 245 4 242 -4 281 -82
358 -77 77 -184 105 -277 71z m101 -411 c0 -138 -1 -145 -20 -145 -19 0 -20 7
-20 145 0 138 1 145 20 145 19 0 20 -7 20 -145z M3593 5170 c-45 -27 -66 -64
-66 -114 0 -56 28 -102 78 -126 38 -19 63 -20 333 -20 245 0 298 3 332 16 105
42 117 177 21 241 -34 23 -38 23 -350 23 -296 0 -318 -1 -348 -20z M3005 4260
c-33 -4 -76 -14 -95 -23 -32 -14 56 -15 1029 -16 719 -1 1062 2 1055 9 -6 6
-41 17 -80 25 -58 12 -211 14 -959 13 -490 0 -917 -4 -950 -8z M2850 4144 c0
-96 159 -259 361 -371 83 -46 281 -109 421 -134 161 -28 421 -30 586 -5 235
36 470 126 613 234 117 89 209 210 209 276 0 35 -10 33 -39 -9 -38 -56 -149
-164 -234 -226 -144 -108 -328 -184 -542 -226 -140 -27 -455 -24 -595 6 -316
67 -543 199 -731 424 -46 54 -49 56 -49 31z M3112 2601 c4 -191 7 -212 32
-291 47 -145 133 -281 233 -370 464 -413 1170 -219 1364 375 20 62 23 96 27
283 l4 213 -28 -6 c-83 -19 -134 -47 -134 -74 0 -6 -4 -11 -9 -11 -5 0 -11
-51 -13 -112 -9 -199 -69 -364 -177 -482 -124 -137 -362 -216 -562 -186 -156
22 -278 81 -383 185 -66 65 -130 175 -145 247 -5 24 -16 75 -25 113 -9 39 -16
107 -16 153 0 45 -4 82 -9 82 -5 0 -12 12 -15 26 -4 15 -10 24 -13 20 -4 -3
-14 1 -23 9 -9 8 -38 19 -64 24 l-48 9 4 -207z"/>
</g>
</svg>
