<?xml version="1.0" standalone="no"?>
<!DOCTYPE svg PUBLIC "-//W3C//DTD SVG 20010904//EN"
 "http://www.w3.org/TR/2001/REC-SVG-20010904/DTD/svg10.dtd">
<svg version="1.0" xmlns="http://www.w3.org/2000/svg"
 width="2048.000000pt" height="2048.000000pt" viewBox="0 0 2048.000000 2048.000000"
 preserveAspectRatio="xMidYMid meet">
<metadata>
Created by potrace 1.13, written by Peter Selinger 2001-2015
</metadata>
<g transform="translate(0.000000,2048.000000) scale(0.192120,-0.192120)"
fill="#000000" stroke="none">
<path d="M3665 10094 c-782 -62 -1402 -321 -1860 -779 -359 -358 -592 -822
-660 -1315 -21 -149 -21 -483 0 -690 35 -354 128 -635 246 -745 55 -51 85 -57
124 -22 21 18 33 53 74 217 55 219 97 340 180 515 140 294 335 541 561 711 47
35 87 64 90 64 3 0 52 -39 110 -86 270 -219 533 -385 700 -439 77 -26 166 -25
209 0 58 34 76 83 75 202 l-1 103 141 -138 c283 -275 512 -442 607 -442 9 0
27 12 39 28 19 24 22 35 17 94 -7 77 -46 200 -111 347 -25 57 -46 105 -46 108
0 2 28 -19 62 -46 260 -210 806 -346 1528 -379 l144 -7 50 -80 c86 -140 236
-404 328 -581 49 -94 103 -188 120 -209 121 -147 231 -20 303 348 47 240 76
763 56 982 -40 414 -216 831 -507 1195 -94 117 -299 321 -421 418 -415 329
-901 531 -1463 608 -110 15 -578 27 -695 18z m511 -294 c312 -25 577 -83 838
-185 725 -280 1271 -848 1436 -1495 19 -74 20 -111 20 -613 0 -294 -3 -549 -6
-566 -15 -72 -49 -34 -184 203 -160 282 -248 389 -365 447 -65 32 -97 36 -395
59 -395 30 -740 103 -1005 212 -247 102 -281 107 -357 59 -25 -16 -57 -44 -71
-62 -36 -49 -77 -125 -77 -145 0 -12 -3 -14 -13 -5 -9 7 -17 7 -24 0 -7 -7
-51 23 -139 96 -137 112 -226 165 -280 165 -38 0 -94 -39 -197 -138 -65 -62
-69 -64 -108 -59 -87 12 -262 114 -514 300 -217 161 -297 190 -405 147 -171
-68 -405 -294 -585 -565 -66 -100 -175 -307 -248 -471 -34 -78 -52 -94 -75
-70 -15 15 -17 60 -20 484 -3 445 -2 471 18 561 77 346 258 670 521 932 325
323 762 546 1279 649 303 61 663 83 956 60z M1102 7067 c-160 -266 -186 -663
-63 -971 79 -196 221 -340 359 -362 l42 -7 0 -106 c1 -845 416 -1624 1115
-2092 130 -87 331 -193 461 -243 l89 -34 3 -211 2 -210 -917 -4 c-996 -4 -946
-1 -1118 -60 -147 -50 -278 -131 -395 -244 -170 -161 -267 -332 -327 -573 -14
-57 -17 -166 -20 -842 l-4 -778 4031 0 4030 0 -2 2358 -3 2357 -802 5 -802 5
35 55 c19 30 40 69 46 87 7 18 16 33 20 33 4 0 8 20 8 45 0 25 4 45 9 45 5 0
10 120 12 269 2 148 8 273 12 277 18 18 187 23 824 23 l661 1 270 45 c288 48
342 53 342 32 0 -31 62 -106 104 -126 56 -28 120 -27 276 3 283 54 592 98 624
89 74 -21 28 -94 -80 -129 -27 -9 -58 -19 -69 -24 -11 -5 -321 -109 -690 -231
-368 -122 -688 -231 -710 -241 -82 -41 -122 -101 -127 -189 -3 -53 -3 -54 27
-57 19 -1 349 104 868 277 818 273 840 281 922 336 92 61 151 127 161 182 19
103 -50 229 -154 279 -69 33 -118 28 -582 -50 -245 -42 -456 -77 -469 -78 -20
-3 -25 4 -37 50 -19 73 -39 108 -93 161 -66 66 -128 93 -226 98 -71 4 -125 -5
-465 -76 l-385 -81 -360 0 c-398 0 -426 -3 -539 -62 -83 -44 -192 -155 -233
-238 -58 -117 -63 -152 -63 -485 0 -250 -11 -486 -66 -1425 -36 -619 -66
-1125 -67 -1125 -1 0 -410 1 -910 3 l-907 3 2 211 3 211 52 18 c81 27 208 86
318 147 516 285 918 747 1130 1297 104 270 152 516 162 828 l6 187 23 0 c53 0
136 42 199 102 104 96 174 225 222 406 24 87 26 115 27 277 0 192 -9 255 -58
395 -25 72 -84 185 -93 177 -2 -3 3 -58 13 -123 21 -155 15 -385 -14 -494 -55
-204 -65 -240 -88 -305 -43 -119 -87 -171 -203 -240 -100 -60 -211 -181 -211
-231 0 -7 -4 -14 -9 -16 -5 -1 -14 -97 -20 -213 -18 -330 -32 -405 -118 -615
-78 -189 -154 -339 -273 -530 -145 -234 -232 -334 -430 -496 -109 -89 -170
-125 -414 -247 -198 -99 -225 -115 -280 -172 -77 -79 -106 -115 -106 -132 0
-7 -4 -13 -10 -13 -6 0 -10 -68 -10 -185 0 -108 4 -185 9 -185 5 0 13 -9 16
-20 3 -11 12 -20 20 -20 7 0 15 -5 17 -10 3 -10 29 -18 86 -27 l32 -5 2 -107
c4 -258 -12 -361 -77 -500 -91 -191 -246 -340 -438 -419 -227 -95 -506 -79
-719 41 -147 83 -272 215 -343 362 -69 143 -77 182 -82 418 l-5 207 26 0 c38
0 114 38 121 61 4 10 11 19 16 19 5 0 9 76 9 181 l0 181 -46 69 c-75 112 -113
140 -347 255 -254 125 -370 206 -557 394 -136 136 -165 170 -262 305 -270 378
-408 782 -425 1243 -3 89 -10 162 -14 162 -5 0 -9 7 -9 15 0 31 -55 102 -139
180 -155 143 -209 201 -234 251 -32 64 -75 205 -87 285 -4 35 -16 98 -24 139
-25 119 -30 277 -12 430 8 74 14 135 13 137 -2 1 -17 -21 -35 -50z m7008
-2207 c0 -13 7 -20 20 -20 20 0 20 -7 20 -2130 0 -2123 0 -2130 -20 -2130 -11
0 -20 -7 -20 -15 0 -13 -85 -15 -705 -15 -463 0 -705 -3 -705 -10 0 -5 -20
-10 -44 -10 -24 0 -46 -3 -48 -7 -4 -10 -144 -83 -158 -83 -7 0 -10 162 -10
500 l0 500 -140 0 -140 0 0 -504 0 -504 -76 39 c-42 22 -85 39 -95 39 -10 0
-19 5 -19 10 0 12 -4076 14 -4082 3 -2 -5 -40 -27 -85 -51 l-83 -43 0 506 0
505 -140 0 -140 0 -2 -504 -3 -504 -65 39 c-36 21 -70 43 -77 49 -7 5 -21 10
-33 10 -11 0 -20 5 -20 10 0 6 -103 10 -290 10 -251 0 -290 2 -290 15 0 11
-11 15 -40 15 l-40 0 0 685 0 685 25 66 c98 261 313 461 578 538 144 42 234
46 997 46 713 0 720 0 720 -20 0 -14 7 -20 24 -20 22 0 23 -4 29 -82 12 -181
107 -421 219 -553 185 -219 435 -346 711 -362 346 -19 675 143 867 427 79 117
139 283 166 453 12 80 22 117 31 117 7 0 13 9 13 20 0 19 11 19 783 22 769 3
783 3 827 24 87 40 201 162 227 244 16 50 18 80 73 1015 53 905 56 935 74 950
7 6 15 18 19 28 6 16 43 17 577 17 563 0 570 0 570 -20z M2754 6710 c-91 -28
-183 -129 -198 -217 -3 -21 -6 -110 -6 -199 0 -194 12 -245 73 -311 116 -127
303 -125 415 2 65 74 75 120 70 343 -3 186 -3 187 -33 240 -32 59 -67 92 -129
124 -46 23 -144 33 -192 18z M4969 6706 c-84 -30 -140 -82 -177 -164 -14 -31
-17 -70 -17 -237 0 -188 1 -203 23 -250 49 -106 139 -165 253 -165 110 0 192
47 245 142 29 53 29 53 32 251 4 241 -4 274 -83 353 -76 76 -183 103 -276 70z
M3593 5170 c-45 -27 -66 -64 -66 -114 0 -56 28 -102 80 -127 39 -19 57 -20
350 -17 300 3 309 4 339 25 85 61 80 179 -9 233 -30 19 -52 20 -347 20 -295 0
-317 -1 -347 -20z M2844 4193 c24 -47 119 -155 187 -214 180 -157 380 -248
644 -294 132 -23 393 -24 525 -2 295 50 545 176 721 364 61 64 129 153 129
167 0 3 -500 6 -1110 6 l-1111 0 15 -27z m1560 -199 c54 -21 -21 -65 -169
-100 -188 -44 -526 -33 -670 22 -100 39 -131 66 -87 77 26 7 908 8 926 1z"/>
</g>
</svg>
