<?xml version="1.0" standalone="no"?>
<!DOCTYPE svg PUBLIC "-//W3C//DTD SVG 20010904//EN"
 "http://www.w3.org/TR/2001/REC-SVG-20010904/DTD/svg10.dtd">
<svg version="1.0" xmlns="http://www.w3.org/2000/svg"
 width="2048.000000pt" height="2048.000000pt" viewBox="0 0 2048.000000 2048.000000"
 preserveAspectRatio="xMidYMid meet">
<metadata>
Created by potrace 1.13, written by Peter Selinger 2001-2015
</metadata>
<g transform="translate(0.000000,2048.000000) scale(0.192120,-0.192120)"
fill="#000000" stroke="none">
<path d="M2827 9636 l-556 -695 97 -78 c53 -43 430 -350 837 -683 407 -333
755 -616 774 -629 l34 -25 -64 -21 c-252 -86 -445 -285 -529 -550 -17 -53 -24
-103 -27 -205 -5 -119 -3 -147 17 -220 12 -47 24 -94 26 -105 3 -16 -14 -33
-79 -77 -118 -82 -294 -236 -427 -374 -464 -482 -772 -1089 -885 -1741 -43
-254 -58 -620 -34 -873 141 -1521 1296 -2752 2804 -2989 453 -71 911 -48 1362
69 1244 322 2209 1365 2433 2630 64 363 67 770 9 1130 -81 498 -283 991 -573
1395 -202 282 -500 583 -751 760 -38 27 -72 50 -74 52 -2 1 7 38 20 80 21 68
24 98 24 233 0 135 -3 165 -23 230 -46 145 -121 268 -223 366 -104 98 -178
143 -329 198 l-85 31 -637 3 -638 3 0 694 0 695 1452 0 c1668 0 1508 13 1289
-105 -139 -74 -206 -116 -301 -190 -124 -95 -934 -759 -992 -814 -109 -100
-144 -177 -118 -255 l12 -37 41 34 c23 18 410 333 859 701 l817 667 -555 695
-556 694 -1948 0 -1948 0 -555 -694z m2503 -31 l0 -665 -1432 0 c-803 0 -1439
4 -1447 9 -20 13 -2 34 109 128 132 112 141 122 485 553 341 427 355 443 405
474 88 56 91 56 923 56 441 0 767 4 767 9 0 5 16 12 35 15 19 4 35 11 35 16 0
6 6 10 13 10 6 0 32 14 57 30 25 16 46 29 48 29 1 1 2 -298 2 -664z m1857 453
c17 -10 46 -32 65 -50 64 -61 678 -838 678 -858 0 -46 25 -45 -1242 -48
l-1198 -2 0 490 0 490 833 -2 c766 -3 835 -4 864 -20z m-2027 -1903 l0 -605
44 0 c39 0 45 -3 50 -26 4 -14 25 -45 47 -69 72 -78 62 -77 674 -84 l540 -7
55 -25 c96 -45 287 -178 345 -241 30 -33 67 -82 80 -109 25 -47 25 -53 25
-287 0 -194 3 -242 15 -258 8 -10 15 -30 15 -42 1 -71 127 -229 295 -370 533
-448 869 -992 1028 -1662 l32 -135 0 -570 0 -570 -38 -155 c-102 -424 -262
-769 -520 -1123 -283 -388 -668 -709 -1112 -927 -191 -94 -300 -137 -485 -193
-825 -250 -1731 -150 -2480 271 -409 230 -774 562 -1029 937 -247 363 -418
774 -491 1184 -18 104 -20 156 -20 576 0 495 2 519 56 745 103 437 313 851
618 1220 69 83 290 301 401 395 130 110 179 160 230 235 43 64 65 113 65 146
0 12 5 26 10 29 6 4 10 97 10 247 l0 240 33 62 c40 75 125 162 237 240 134 94
210 186 225 271 4 22 14 45 21 51 12 10 9 21 -18 74 -72 137 -143 202 -778
720 -151 124 -313 262 -359 308 -80 78 -83 83 -65 97 16 12 175 14 1132 15
l1112 0 0 -605z M5047 6095 c-364 -44 -724 -178 -1030 -382 -273 -182 -526
-434 -703 -700 -131 -197 -276 -513 -329 -718 -60 -231 -58 -218 -63 -590 -4
-390 0 -430 64 -668 63 -237 186 -507 328 -724 398 -610 1010 -1002 1711
-1099 160 -22 450 -22 610 0 427 59 824 228 1160 494 100 79 294 272 380 377
277 341 478 789 545 1215 8 51 10 181 7 410 -5 367 -13 428 -85 660 -273 873
-1004 1538 -1870 1700 -224 41 -506 51 -725 25z m703 -249 c918 -185 1610
-893 1771 -1811 26 -153 36 -430 20 -586 -78 -772 -537 -1435 -1232 -1778
-771 -382 -1699 -278 -2374 264 -117 94 -291 275 -381 395 -496 663 -585 1547
-230 2285 328 682 943 1134 1701 1250 63 10 164 13 340 11 225 -3 263 -6 385
-30z"/>
</g>
</svg>
