<?xml version="1.0" standalone="no"?>
<!DOCTYPE svg PUBLIC "-//W3C//DTD SVG 20010904//EN"
 "http://www.w3.org/TR/2001/REC-SVG-20010904/DTD/svg10.dtd">
<svg version="1.0" xmlns="http://www.w3.org/2000/svg"
 width="2048.000000pt" height="2048.000000pt" viewBox="0 0 2048.000000 2048.000000"
 preserveAspectRatio="xMidYMid meet">
<metadata>
Created by potrace 1.13, written by Peter Selinger 2001-2015
</metadata>
<g transform="translate(0.000000,2048.000000) scale(0.192120,-0.192120)"
fill="#000000" stroke="none">
<path d="M4130 10323 c-227 -39 -481 -203 -611 -394 -85 -126 -123 -248 -134
-436 -7 -132 -24 -204 -66 -288 -41 -79 -70 -115 -216 -268 -68 -70 -137 -148
-153 -173 -93 -135 -126 -263 -116 -449 7 -135 20 -209 68 -372 l33 -113 598
0 597 0 -5 23 c-5 25 -35 288 -35 311 0 9 -26 32 -57 52 -118 75 -238 221
-297 361 -32 77 -32 89 0 199 48 168 148 321 248 379 86 50 121 57 331 65 110
5 225 13 255 20 158 33 286 94 367 172 l41 41 46 -94 c61 -126 87 -227 93
-371 9 -188 -20 -320 -108 -490 -56 -106 -191 -247 -293 -303 l-68 -38 5 -41
c4 -23 12 -96 19 -163 l12 -123 44 0 c50 0 51 5 -5 -124 -47 -111 -97 -191
-163 -260 -72 -76 -131 -106 -207 -106 -140 0 -260 108 -414 372 -34 57 -57
92 -53 78 77 -264 99 -395 91 -542 -11 -177 -59 -306 -153 -408 -31 -33 -80
-73 -109 -90 l-54 -31 47 -58 c104 -129 193 -365 222 -584 13 -102 13 -450 -1
-597 -13 -142 -50 -314 -95 -440 -96 -266 -375 -744 -595 -1021 -178 -224
-341 -373 -675 -615 -252 -183 -332 -250 -414 -346 -135 -160 -250 -398 -258
-539 -4 -73 -3 -77 26 -110 30 -34 32 -34 114 -34 102 0 211 35 433 137 175
81 229 92 292 60 84 -44 130 -127 233 -427 111 -325 185 -464 300 -568 143
-128 366 -168 603 -107 209 53 318 161 461 453 132 271 225 348 421 348 104 0
160 -13 260 -62 117 -57 196 -121 429 -347 115 -112 246 -230 290 -263 184
-138 349 -182 531 -144 251 53 405 255 405 531 0 194 -67 357 -222 537 -96
111 -105 160 -51 273 52 107 172 215 331 298 113 58 215 86 313 86 101 0 156
-20 228 -85 78 -70 132 -101 209 -120 67 -18 133 -11 190 19 45 24 99 87 129
151 26 56 28 69 28 185 0 105 -4 136 -24 195 -51 152 -128 266 -301 450 -194
206 -260 321 -260 453 0 53 6 80 26 120 33 66 119 145 221 201 125 70 179 109
243 177 156 168 255 390 267 605 11 181 -33 303 -131 364 -46 28 -56 30 -140
29 -76 0 -104 -5 -171 -31 -44 -17 -190 -74 -325 -126 -135 -52 -333 -125
-440 -161 -930 -317 -1390 -268 -1471 158 -5 27 -9 315 -9 640 l0 591 -67 13
c-197 38 -358 194 -433 422 -27 82 -50 234 -50 328 l0 73 123 -6 c345 -17 494
-27 616 -41 73 -8 134 -14 135 -12 2 2 11 26 21 53 10 28 42 98 72 157 104
211 134 354 134 653 0 187 -8 274 -41 411 -37 157 -119 334 -210 456 -61 80
-195 209 -258 245 l-45 27 24 15 c13 8 54 44 90 80 101 100 113 163 44 240
-66 73 -262 141 -405 141 -130 0 -203 -38 -269 -140 l-37 -57 -39 35 c-204
178 -429 265 -605 235z m213 -273 c35 -11 124 -53 197 -94 72 -41 152 -79 177
-85 58 -15 91 -5 203 63 79 47 90 51 160 54 41 2 91 0 110 -5 33 -9 35 -12 33
-51 -1 -22 -9 -54 -17 -71 -21 -39 -20 -108 0 -157 22 -54 91 -149 187 -257
92 -105 151 -194 190 -285 54 -127 57 -153 57 -517 0 -206 -4 -354 -11 -383
-21 -93 -73 -203 -116 -250 l-42 -45 -133 6 c-73 4 -209 10 -303 13 -93 4
-176 11 -182 17 -7 5 -13 22 -13 37 0 20 21 48 88 116 48 49 107 118 131 153
58 85 125 230 156 337 23 80 25 102 25 292 0 230 -9 286 -65 409 -36 79 -107
162 -160 187 -46 22 -90 20 -155 -8 -30 -13 -91 -39 -135 -59 -116 -50 -208
-68 -405 -78 -96 -5 -202 -16 -234 -24 -125 -33 -263 -128 -339 -233 -140
-193 -199 -426 -147 -579 51 -151 144 -297 264 -413 42 -40 46 -48 46 -92 l0
-48 -385 0 -386 0 -25 25 c-49 49 -54 78 -54 305 0 261 -5 248 183 449 223
237 317 439 341 728 14 165 83 301 204 398 67 54 214 129 292 149 81 21 186
20 263 -4z m378 -2886 c134 -181 195 -244 307 -316 l62 -41 0 -482 c0 -446 2
-491 20 -585 12 -56 25 -109 30 -118 5 -9 23 -45 40 -80 39 -81 94 -156 168
-227 308 -303 828 -252 1977 192 265 103 328 123 380 123 67 0 68 -3 63 -141
-3 -122 -4 -125 -43 -198 -55 -102 -148 -199 -285 -294 -163 -114 -293 -248
-354 -365 l-46 -90 0 -120 c0 -110 2 -125 30 -193 61 -147 137 -263 286 -432
200 -227 214 -255 214 -416 0 -96 -3 -120 -15 -125 -26 -10 -98 19 -203 81
-134 79 -199 97 -334 91 -177 -9 -367 -88 -536 -224 -129 -104 -248 -259 -296
-386 -14 -35 -17 -68 -14 -140 4 -108 26 -163 124 -309 31 -46 69 -109 85
-140 28 -55 29 -60 29 -218 0 -120 -4 -169 -14 -189 -61 -118 -258 -146 -431
-60 -92 45 -185 120 -368 296 -327 314 -469 405 -680 434 -180 24 -326 -7
-448 -94 -118 -84 -204 -187 -343 -410 -37 -59 -86 -129 -110 -155 -80 -89
-203 -130 -369 -121 -213 11 -295 102 -432 476 -123 338 -147 384 -269 506
-91 91 -165 129 -258 134 -78 5 -151 -15 -319 -83 -120 -50 -145 -51 -142 -10
5 70 134 203 358 369 356 265 445 338 586 483 169 174 283 318 432 546 294
447 470 833 528 1152 17 101 19 148 17 476 l-3 364 -98 248 c-53 136 -97 259
-97 274 0 15 16 48 38 77 58 77 100 157 148 284 24 63 45 116 47 118 1 2 27
-3 57 -11 117 -31 222 -13 338 59 78 49 101 47 143 -10z M1079 8094 c-61 -18
-136 -86 -165 -149 -33 -69 -33 -161 0 -230 26 -57 101 -128 149 -144 35 -12
1706 -291 1739 -291 18 0 19 4 13 38 -22 119 -73 139 -540 212 -111 18 -144
27 -158 43 -15 17 -86 32 -481 98 -255 43 -478 85 -495 93 -64 34 -67 100 -5
112 57 11 151 -1 569 -71 215 -36 393 -65 398 -65 4 0 7 7 7 15 0 8 8 15 18
15 10 0 144 -20 298 -45 153 -25 304 -45 335 -45 50 0 59 3 96 38 32 29 63 83
63 108 0 2 -16 4 -36 4 -20 0 -413 63 -874 140 -462 77 -849 140 -862 139 -13
0 -44 -7 -69 -15z M5665 7743 c2 -10 6 -30 9 -45 8 -37 52 -86 94 -103 19 -9
101 -29 181 -45 230 -46 404 -101 495 -154 41 -24 86 -86 86 -120 0 -19 -46
-121 -64 -143 -15 -18 -93 -120 -378 -498 -83 -110 -167 -225 -186 -255 -162
-257 -196 -289 -367 -339 -84 -24 -127 -60 -104 -87 8 -10 37 -28 64 -40 102
-48 237 -23 311 57 17 19 222 288 455 599 432 576 458 616 459 701 2 224 -270
374 -851 469 -159 26 -208 26 -204 3z M5655 7331 c-17 -10 -39 -37 -49 -60
-18 -39 -21 -41 -61 -41 -24 0 -89 5 -145 10 -56 6 -104 10 -106 8 -1 -2 5
-43 14 -90 l16 -87 47 -21 c64 -27 128 -26 164 2 33 26 64 91 65 136 0 21 5
32 14 32 22 0 380 -61 385 -66 5 -4 29 29 -286 -389 -144 -192 -267 -359 -274
-371 -18 -35 3 -54 60 -54 70 0 145 60 258 208 24 31 50 62 56 67 19 15 97
120 164 220 88 132 117 198 117 270 1 54 -3 65 -33 103 -70 89 -186 142 -309
142 -48 0 -76 -5 -97 -19z M2809 7220 c-72 -191 -62 -459 25 -691 51 -136 111
-233 201 -324 129 -130 244 -180 415 -179 91 1 117 5 200 33 98 33 220 95 220
111 0 18 -89 61 -156 75 -61 13 -79 13 -154 -1 -167 -32 -265 -1 -384 118 -80
81 -134 171 -166 275 -18 60 -20 90 -18 253 l3 185 43 3 c34 3 42 7 42 23 0
18 8 19 156 19 l155 0 41 -32 c22 -18 52 -55 65 -83 35 -69 71 -113 105 -131
28 -15 93 -22 103 -12 3 3 -14 59 -38 124 -42 112 -64 194 -70 257 l-2 28
-383 2 -382 2 -21 -55z M9715 6296 c-60 -28 -70 -39 -257 -271 -338 -420 -368
-459 -384 -509 -58 -174 76 -358 261 -358 70 0 143 27 188 70 47 45 541 661
561 700 11 21 21 66 24 103 4 56 1 75 -20 120 -34 74 -69 113 -130 143 -71 35
-171 36 -243 2z m81 -327 c-3 -17 -16 -45 -28 -62 -38 -54 -260 -330 -302
-375 -67 -73 -128 -91 -134 -40 -3 29 9 46 143 193 93 101 107 118 188 213 49
58 103 102 125 102 11 0 13 -8 8 -31z M9140 5874 c-8 -2 -139 -26 -290 -54
-517 -95 -750 -142 -750 -151 0 -13 78 -68 128 -91 l42 -19 258 46 c141 25
291 56 333 70 62 19 339 165 374 196 9 9 -63 11 -95 3z M8516 5344 c-132 -24
-255 -49 -274 -55 -38 -12 -185 -109 -247 -162 l-40 -35 60 9 c115 18 963 179
986 187 22 9 22 10 -21 37 -114 72 -164 75 -464 19z M4902 2105 c-52 -46 -69
-100 -52 -160 6 -22 47 -93 90 -157 63 -93 78 -110 74 -85 -30 222 -57 403
-63 419 -7 20 -10 19 -49 -17z M4444 1814 c12 -107 29 -205 33 -200 11 10 43
155 43 193 0 45 -17 63 -61 63 -21 0 -21 -3 -15 -56z M4684 1702 c-63 -22
-102 -53 -145 -116 l-34 -49 -3 -494 -3 -495 24 -52 c28 -60 73 -108 131 -139
32 -17 58 -22 121 -22 95 0 139 19 201 87 76 83 75 72 72 618 -3 541 0 518
-76 596 -71 73 -191 101 -288 66z"/>
</g>
</svg>
