<?xml version="1.0" standalone="no"?>
<!DOCTYPE svg PUBLIC "-//W3C//DTD SVG 20010904//EN"
 "http://www.w3.org/TR/2001/REC-SVG-20010904/DTD/svg10.dtd">
<svg version="1.0" xmlns="http://www.w3.org/2000/svg"
 width="2048.000000pt" height="2048.000000pt" viewBox="0 0 2048.000000 2048.000000"
 preserveAspectRatio="xMidYMid meet">
<metadata>
Created by potrace 1.13, written by Peter Selinger 2001-2015
</metadata>
<g transform="translate(0.000000,2048.000000) scale(0.192120,-0.192120)"
fill="#000000" stroke="none">
<path d="M8064 10008 c-339 -342 -385 -398 -438 -538 -87 -232 -36 -494 140
-726 l62 -81 -1146 -1145 c-1107 -1105 -1151 -1148 -1262 -1221 -63 -42 -180
-107 -260 -146 -339 -164 -674 -243 -1111 -261 -167 -7 -219 -13 -270 -30
-327 -109 -530 -524 -623 -1272 -32 -254 -49 -590 -44 -863 l4 -220 35 -102
c41 -117 81 -188 159 -281 101 -121 254 -217 417 -264 111 -32 314 -32 425 0
290 83 495 280 589 567 20 64 23 93 27 320 6 363 -25 831 -68 1029 -9 42 -6
56 13 56 24 0 235 98 332 155 125 72 319 204 450 305 266 206 427 360 1645
1576 l1245 1243 40 -35 c63 -54 173 -120 258 -154 241 -96 459 -73 677 73 25
16 253 237 508 491 l462 461 0 692 0 693 -973 0 -973 0 -320 -322z m2006 -476
l0 -538 -377 -375 c-217 -216 -402 -391 -435 -413 -140 -91 -275 -116 -428
-81 -36 9 -137 50 -225 93 -134 65 -167 77 -210 77 -47 0 -135 -29 -135 -45 0
-4 9 -15 21 -26 12 -10 35 -37 52 -59 25 -33 19 -29 -31 19 l-60 59 -54 -38
c-58 -42 -1452 -1427 -1656 -1646 -158 -168 -318 -349 -354 -397 -15 -20 -38
-75 -52 -122 -22 -77 -23 -87 -8 -102 8 -10 13 -18 11 -18 -2 0 -117 114 -254
252 -138 139 -240 243 -227 232 22 -20 27 -20 75 -8 93 22 141 40 185 68 24
15 130 112 236 216 106 105 195 188 197 185 7 -6 1485 1477 1535 1540 22 28
51 65 63 83 l24 34 -59 61 c-55 58 -40 50 33 -17 l32 -29 12 29 c35 89 23 142
-74 334 -84 166 -89 187 -85 356 3 139 3 140 38 199 38 65 473 515 547 566 23
16 59 33 80 38 21 5 386 9 811 10 l772 1 0 -538z m-4358 -3459 c52 -35 118
-109 118 -130 0 -44 -49 -100 -212 -240 -273 -235 -507 -401 -763 -538 -129
-69 -160 -91 -231 -162 -45 -45 -95 -107 -113 -139 -27 -51 -31 -67 -31 -139
0 -45 8 -133 18 -196 14 -97 17 -187 17 -599 0 -483 0 -485 -23 -530 -33 -66
-98 -150 -151 -193 -98 -81 -262 -137 -401 -137 -211 0 -426 111 -527 273 -73
116 -73 112 -73 568 0 236 4 428 10 456 6 26 24 139 40 251 92 629 223 904
462 968 29 8 130 19 223 24 557 33 963 152 1377 403 70 43 137 81 150 87 31
12 65 4 110 -27z M1316 5039 c-126 -30 -263 -133 -353 -265 -228 -335 -353
-982 -353 -1822 0 -238 11 -318 62 -439 103 -249 318 -430 585 -494 74 -18
109 -20 218 -16 151 5 221 24 360 95 73 37 108 64 186 142 127 125 194 245
234 411 31 132 16 735 -26 1084 -49 403 -118 674 -231 900 -111 224 -249 354
-423 400 -64 16 -197 18 -259 4z m249 -300 c185 -69 316 -338 394 -809 55
-332 55 -321 58 -823 l4 -478 -30 -62 c-67 -137 -177 -235 -331 -293 -69 -25
-87 -28 -215 -28 -121 -1 -150 2 -210 22 -155 51 -286 161 -355 297 l-35 70
-3 420 c-2 344 0 435 12 505 9 47 23 137 32 200 68 495 180 812 329 925 96 74
238 96 350 54z M6316 5039 c-126 -30 -263 -133 -353 -265 -228 -335 -353 -982
-353 -1822 0 -238 11 -318 62 -439 103 -249 318 -430 585 -494 74 -18 109 -20
218 -16 151 5 221 24 360 95 73 37 108 64 186 142 127 125 194 245 234 411 31
132 16 735 -26 1084 -49 403 -118 674 -231 900 -111 224 -249 354 -423 400
-64 16 -197 18 -259 4z m249 -300 c185 -69 316 -338 394 -809 55 -332 55 -321
58 -823 l4 -478 -30 -62 c-67 -137 -177 -235 -331 -293 -69 -25 -87 -28 -215
-28 -156 -1 -226 15 -335 77 -81 45 -188 158 -230 242 l-35 70 -3 420 c-2 344
0 435 12 505 9 47 23 137 32 200 68 495 180 812 329 925 96 74 238 96 350 54z
M4820 4354 c0 -5 12 -45 25 -89 14 -44 39 -145 56 -225 28 -128 32 -170 36
-360 4 -169 1 -244 -12 -350 -10 -74 -20 -217 -22 -317 -3 -101 -9 -183 -14
-183 -5 0 -9 -455 -9 -1110 0 -1103 0 -1110 -20 -1110 -17 0 -20 -7 -20 -40
l0 -40 -905 0 -905 0 0 40 c0 33 -3 40 -20 40 -20 0 -20 7 -20 1223 0 1172 -1
1228 -21 1377 -26 199 -36 504 -20 635 15 124 44 270 82 399 16 55 27 102 24
104 -5 5 -64 -86 -92 -143 -32 -63 -73 -181 -101 -295 l-26 -105 -3 -1737 -3
-1738 1110 0 1110 0 0 1703 c0 1521 -2 1714 -16 1798 -24 140 -59 252 -114
364 -45 93 -100 181 -100 159z M8803 3645 c-395 -107 -630 -692 -684 -1700
-15 -289 -8 -638 15 -720 45 -158 156 -326 286 -432 76 -61 217 -134 310 -160
101 -27 330 -25 433 5 275 79 485 286 578 567 20 64 23 93 27 320 8 495 -37
965 -128 1326 -136 537 -370 810 -695 808 -49 0 -114 -7 -142 -14z m295 -310
c200 -109 295 -354 399 -1030 25 -163 31 -1025 8 -1096 -23 -68 -106 -182
-168 -228 -335 -253 -853 -119 -980 253 -15 43 -17 102 -17 453 0 354 2 417
20 520 10 65 31 194 45 286 69 445 177 711 328 816 71 48 122 62 222 58 77 -2
98 -7 143 -32z M522 3473 c-48 -75 -108 -210 -136 -305 -56 -195 -56 -185 -56
-1567 l0 -1271 1110 0 1110 0 0 1289 c0 1112 -2 1301 -15 1377 -21 123 -51
224 -94 324 -36 83 -108 206 -116 198 -3 -2 5 -33 15 -69 30 -96 69 -269 85
-377 20 -129 19 -432 -1 -582 -9 -63 -18 -202 -21 -307 -3 -106 -9 -193 -14
-193 -5 0 -9 -291 -9 -690 0 -683 0 -690 -20 -690 -17 0 -20 -7 -20 -38 l0
-39 -287 -6 c-157 -4 -565 -7 -905 -7 l-618 0 0 45 c0 38 -3 45 -20 45 -20 0
-20 7 -20 805 0 772 -1 811 -22 967 -27 199 -32 594 -9 718 19 109 49 233 77
329 14 45 23 85 21 87 -2 3 -18 -17 -35 -43z M5522 3473 c-48 -75 -108 -210
-136 -305 -56 -195 -56 -185 -56 -1567 l0 -1271 1110 0 1110 0 0 1289 c0 1112
-2 1301 -15 1377 -21 123 -51 224 -94 324 -36 83 -108 206 -116 198 -3 -2 5
-33 15 -69 30 -96 69 -269 85 -377 20 -129 19 -432 -1 -582 -9 -63 -18 -202
-21 -307 -3 -106 -9 -193 -14 -193 -5 0 -9 -291 -9 -690 0 -683 0 -690 -20
-690 -17 0 -20 -7 -20 -40 l0 -40 -905 0 -905 0 0 40 c0 33 -3 40 -20 40 -20
0 -20 7 -20 805 0 775 -1 811 -22 967 -18 132 -22 210 -22 413 0 234 2 259 27
380 15 72 41 177 58 233 17 57 28 106 26 108 -2 3 -18 -17 -35 -43z M9831
2090 c33 -106 56 -198 80 -315 31 -156 38 -476 14 -665 -10 -74 -20 -206 -22
-293 -3 -86 -9 -157 -13 -157 -5 0 -11 -22 -15 -50 -6 -40 -11 -50 -26 -50
-12 0 -19 -7 -19 -18 0 -17 -13 -20 -132 -26 -72 -3 -204 -17 -292 -31 -386
-59 -546 -59 -926 0 -85 13 -195 26 -245 30 -204 13 -205 14 -205 45 0 17 -8
34 -19 42 -16 12 -19 31 -24 158 -2 80 -15 226 -27 325 -18 151 -21 212 -17
380 6 212 28 354 91 569 14 49 24 91 22 94 -7 6 -55 -74 -97 -158 -42 -87 -70
-168 -101 -295 -21 -87 -22 -114 -25 -718 l-4 -627 1111 0 1111 0 -4 633 -3
632 -26 106 c-40 161 -115 333 -188 429 -18 24 -18 22 1 -40z"/>
</g>
</svg>
