<?xml version="1.0" standalone="no"?>
<!DOCTYPE svg PUBLIC "-//W3C//DTD SVG 20010904//EN"
 "http://www.w3.org/TR/2001/REC-SVG-20010904/DTD/svg10.dtd">
<svg version="1.0" xmlns="http://www.w3.org/2000/svg"
 width="2048.000000pt" height="2048.000000pt" viewBox="0 0 2048.000000 2048.000000"
 preserveAspectRatio="xMidYMid meet">
<metadata>
Created by potrace 1.13, written by Peter Selinger 2001-2015
</metadata>
<g transform="translate(0.000000,2048.000000) scale(0.192120,-0.192120)"
fill="#000000" stroke="none">
<path d="M4278 10315 c-667 -91 -1225 -585 -1393 -1232 -57 -218 -56 -168 -52
-2158 2 -1670 4 -1838 19 -1920 28 -146 65 -263 118 -372 l50 -102 10 -213
c26 -546 84 -897 185 -1103 51 -107 118 -177 186 -195 81 -22 247 9 493 92
l179 60 50 -58 c67 -78 182 -189 234 -225 l42 -29 35 37 35 38 56 -29 c31 -16
68 -44 81 -62 22 -28 24 -39 19 -78 l-7 -46 73 -34 c389 -177 891 -177 1280 1
62 28 78 40 74 52 -28 70 -16 99 60 151 64 43 83 44 123 4 l34 -34 37 27 c79
59 151 127 215 202 l67 79 97 -35 c240 -87 364 -115 497 -116 122 -1 183 22
246 90 123 134 165 395 184 1148 l6 240 29 45 c72 113 133 282 168 465 15 82
17 252 19 1919 3 1591 2 1845 -12 1947 -98 755 -687 1345 -1442 1444 -157 21
-1943 20 -2095 0z m2002 -295 c372 -33 684 -179 930 -436 139 -146 242 -322
295 -508 l25 -88 0 -1707 0 -1706 -142 2 c-79 2 -269 7 -423 12 -490 17 -3707
5 -3828 -14 l-27 -5 2 1713 3 1712 34 100 c99 295 278 522 549 699 188 122
431 204 669 225 134 12 1779 13 1913 1z m1329 -5032 c0 -189 -4 -363 -7 -387
-7 -43 -8 -45 -64 -63 -31 -11 -67 -29 -80 -42 -58 -57 -54 -31 -67 -487 -13
-492 -22 -573 -74 -677 -29 -60 -75 -98 -129 -106 -51 -8 -158 6 -268 34 -42
11 -110 24 -150 30 -41 6 -76 12 -78 15 -3 2 13 35 36 72 103 174 214 415 288
623 97 276 197 714 220 971 l7 69 -28 0 c-28 0 -60 27 -70 61 -4 11 -12 19
-18 20 -7 0 -25 19 -42 41 -16 23 -35 43 -41 45 -7 3 -14 -29 -18 -94 -51
-729 -244 -1335 -550 -1728 -81 -103 -242 -257 -331 -316 -221 -148 -466 -225
-750 -236 -640 -26 -1126 280 -1431 902 -176 358 -287 810 -326 1322 l-12 161
-50 -45 c-70 -63 -86 -69 -133 -50 l-39 15 8 -81 c13 -139 48 -354 84 -527 92
-427 236 -815 414 -1110 80 -133 77 -128 52 -106 -19 16 -26 17 -74 6 -29 -7
-81 -23 -115 -36 -72 -27 -183 -54 -223 -54 -47 0 -123 45 -152 90 -90 137
-167 631 -168 1078 0 54 -4 92 -10 92 -5 0 -10 5 -10 11 0 26 -127 109 -166
109 -7 0 -15 7 -18 16 -3 9 -6 171 -6 360 l0 344 2295 0 2295 0 -1 -342z
M4422 5149 c-85 -43 -106 -106 -100 -306 4 -146 12 -176 60 -220 95 -89 263
-62 326 52 14 25 17 60 17 195 0 162 -1 166 -27 212 -50 85 -177 116 -276 67z
M6040 5159 c-32 -13 -78 -56 -96 -91 -20 -38 -20 -357 0 -396 60 -116 242
-139 329 -42 50 55 59 100 55 264 -4 168 -16 203 -87 247 -38 25 -55 29 -110
28 -37 0 -77 -5 -91 -10z M3342 5060 c-12 -19 -25 -49 -28 -65 -3 -17 -4 -163
-2 -325 l4 -295 37 -124 c21 -68 48 -152 59 -185 26 -78 139 -314 180 -380 69
-109 168 -216 207 -223 59 -12 59 -13 4 71 -68 103 -179 320 -233 455 -113
285 -183 621 -199 959 l-6 147 -23 -35z M7250 4828 c0 -67 -27 -252 -56 -390
-44 -210 -114 -416 -212 -630 -31 -66 -37 -85 -24 -81 77 27 195 238 275 493
30 94 30 99 34 357 3 171 1 268 -6 280 -8 14 -10 8 -11 -29z M5073 4170 c-55
-33 -66 -131 -21 -180 34 -36 62 -40 275 -40 231 0 260 6 287 65 20 41 20 66
2 110 -25 60 -48 65 -293 65 -199 0 -221 -2 -250 -20z M4770 3709 c-61 -25
-100 -85 -100 -156 0 -64 24 -101 102 -156 159 -113 322 -161 543 -161 134 0
202 10 315 46 139 44 283 138 314 203 23 47 17 125 -11 163 -23 32 -97 72
-133 72 -30 0 -87 -28 -153 -74 -27 -19 -81 -45 -120 -58 -62 -20 -92 -23
-212 -23 -120 0 -150 3 -213 24 -39 13 -93 38 -118 55 -111 75 -155 88 -214
65z M4394 2821 c-46 -28 -74 -95 -87 -210 -13 -123 -3 -178 60 -302 34 -68 64
-111 129 -179 170 -178 350 -281 597 -342 l87 -21 -58 -38 c-65 -42 -142 -120
-142 -143 0 -10 -6 -13 -15 -10 -13 5 -15 -49 -15 -450 0 -449 0 -456 -20
-456 -17 0 -20 -7 -20 -40 l0 -40 -1050 0 -1050 0 0 395 0 395 35 154 c19 85
35 170 35 189 0 46 -23 108 -59 161 l-30 43 122 21 c67 12 367 60 667 108 590
93 593 94 625 161 17 35 17 43 1 157 -9 67 -18 130 -20 142 -2 19 0 20 25 11
21 -8 35 -7 56 3 28 14 28 15 -30 20 -58 5 -59 5 -73 45 -15 46 -56 83 -99 90
-16 3 -268 -32 -560 -79 -291 -46 -595 -95 -674 -107 -129 -20 -148 -26 -178
-52 -50 -44 -54 -73 -28 -238 12 -79 25 -158 29 -176 8 -34 66 -93 91 -93 20
0 20 0 -26 -91 -81 -161 -140 -396 -159 -633 -5 -71 -10 -299 -10 -507 l0
-379 1320 0 1320 0 0 718 0 718 140 0 140 0 0 -718 0 -718 1320 0 1320 0 0
373 c0 204 -5 433 -10 507 -19 240 -78 476 -161 642 -22 43 -39 80 -39 83 0 3
9 5 19 5 29 0 78 46 90 83 13 42 51 288 51 330 0 41 -31 92 -69 111 -17 9
-281 55 -603 106 -315 50 -613 97 -663 106 -49 8 -104 13 -122 9 -46 -8 -91
-50 -103 -95 l-11 -39 -62 -3 -62 -3 26 -18 c21 -14 32 -15 54 -7 15 6 30 8
33 5 3 -3 -2 -56 -11 -118 -9 -62 -17 -126 -17 -142 0 -39 32 -90 68 -109 16
-8 303 -58 638 -111 335 -53 632 -102 661 -108 l52 -12 -33 -50 c-18 -27 -38
-65 -45 -84 -18 -53 -13 -147 14 -261 24 -103 25 -114 25 -522 l0 -418 -1050
0 -1050 0 0 40 c0 33 -3 40 -20 40 -20 0 -20 7 -20 450 0 250 -4 450 -9 450
-5 0 -11 14 -15 30 -7 36 -47 77 -129 130 l-57 38 52 12 c257 60 475 182 635
354 74 80 121 151 162 248 23 55 26 76 25 168 -1 165 -43 267 -118 286 -34 8
-36 6 -42 -52 -2 -27 -18 -77 -34 -112 -101 -217 -423 -376 -790 -389 -129 -5
-158 -2 -266 20 -299 63 -518 194 -599 361 -19 39 -36 91 -39 116 -2 25 -5 48
-5 53 -2 13 -35 7 -67 -12z"/>
</g>
</svg>
