<?xml version="1.0" standalone="no"?>
<!DOCTYPE svg PUBLIC "-//W3C//DTD SVG 20010904//EN"
 "http://www.w3.org/TR/2001/REC-SVG-20010904/DTD/svg10.dtd">
<svg version="1.0" xmlns="http://www.w3.org/2000/svg"
 width="2048.000000pt" height="2048.000000pt" viewBox="0 0 2048.000000 2048.000000"
 preserveAspectRatio="xMidYMid meet">
<metadata>
Created by potrace 1.13, written by Peter Selinger 2001-2015
</metadata>
<g transform="translate(0.000000,2048.000000) scale(0.192120,-0.192120)"
fill="#000000" stroke="none">
<path d="M4278 10315 c-667 -91 -1225 -585 -1393 -1232 -57 -218 -56 -168 -52
-2159 3 -2008 -1 -1880 62 -2099 55 -190 167 -374 298 -489 75 -65 214 -154
290 -185 l54 -22 13 -77 c39 -248 178 -599 327 -830 121 -189 290 -378 441
-492 67 -51 72 -57 72 -92 0 -32 -3 -38 -20 -38 -81 0 -150 -131 -150 -287 l0
-43 -159 0 -159 0 -11 44 c-12 47 -54 91 -98 102 -34 9 -1372 -204 -1401 -222
-35 -23 -62 -74 -62 -119 0 -22 9 -89 19 -150 17 -97 18 -112 5 -130 -121
-167 -202 -325 -258 -505 -70 -228 -95 -411 -99 -753 l-2 -207 1598 0 1597 0
0 555 c0 305 -4 555 -8 555 -5 0 -35 -17 -68 -39 -67 -43 -134 -112 -134 -137
0 -10 -5 -14 -15 -10 -13 5 -15 -31 -15 -289 0 -288 0 -295 -20 -295 -17 0
-20 -7 -20 -40 l0 -40 -1325 0 -1325 0 0 205 c0 230 11 302 76 487 64 184 67
202 60 327 l-7 114 30 -26 c17 -14 43 -28 58 -31 16 -4 156 14 313 39 157 25
458 73 670 106 211 33 397 67 413 75 60 32 77 92 58 205 -5 30 -12 76 -16 103
l-7 49 52 -46 c95 -86 155 -83 222 9 l33 46 7 -38 c22 -128 103 -268 228 -394
170 -171 361 -280 606 -346 88 -24 117 -27 269 -27 154 0 180 2 275 27 410
106 750 395 829 706 l18 71 28 -41 c34 -49 75 -80 105 -80 33 0 84 27 133 70
l43 38 -8 -56 c-4 -32 -10 -93 -13 -137 -6 -70 -4 -84 14 -113 12 -18 36 -39
53 -47 45 -21 1355 -227 1391 -219 15 3 41 17 58 31 l30 26 -7 -29 c-4 -16 -7
-78 -7 -139 0 -92 4 -125 28 -200 83 -267 85 -279 85 -532 l0 -233 -1325 0
-1325 0 0 40 c0 33 -3 40 -20 40 -20 0 -20 7 -20 290 0 187 -4 290 -10 290 -5
0 -10 10 -10 22 0 12 -19 40 -46 66 -45 43 -130 102 -146 102 -4 0 -8 -250 -8
-555 l0 -555 1598 0 1599 0 -4 77 c-1 43 -5 168 -7 278 -7 327 -61 576 -176
821 -48 102 -124 230 -163 271 l-20 22 23 141 c19 117 21 147 11 180 -13 45
-48 76 -100 89 -20 5 -330 56 -689 112 l-654 103 -36 -19 c-42 -23 -82 -77
-82 -111 l0 -24 -165 0 -165 0 0 43 c0 156 -69 287 -150 287 -15 0 -20 -6 -20
-27 0 -37 -40 -149 -73 -205 -37 -64 -141 -156 -238 -211 -101 -56 -288 -119
-428 -142 -154 -26 -357 -17 -511 23 -227 58 -371 131 -486 246 -78 78 -117
148 -118 210 -1 59 18 56 105 -12 148 -118 294 -185 489 -223 151 -31 461 -33
610 -5 201 37 335 96 498 218 79 60 95 68 108 57 24 -19 34 5 34 82 l0 66 57
39 c84 57 277 253 366 371 195 262 346 598 410 918 l23 115 100 50 c362 181
557 487 604 949 6 67 10 716 10 1872 0 1514 -2 1784 -15 1882 -99 754 -688
1343 -1442 1442 -157 21 -1943 20 -2095 0z m2002 -295 c372 -33 684 -179 930
-436 139 -146 242 -322 295 -508 l25 -88 0 -1882 c0 -1218 -4 -1876 -10 -1866
-5 8 -10 25 -10 38 0 12 -6 22 -13 22 -7 0 -19 16 -27 35 -7 19 -53 72 -101
119 -72 69 -98 88 -140 100 -69 21 -119 20 -210 -3 -41 -11 -94 -22 -118 -26
-58 -10 -3084 -10 -3142 0 -24 4 -77 15 -118 26 -91 23 -141 24 -210 3 -43
-13 -69 -31 -142 -101 -49 -47 -89 -92 -89 -99 0 -8 -4 -14 -10 -14 -5 0 -10
-7 -10 -15 0 -8 -9 -19 -19 -25 -11 -5 -21 -22 -23 -37 -2 -14 -9 -28 -16 -31
-10 -3 -12 366 -10 1880 l3 1883 34 100 c99 295 278 522 549 699 188 122 431
204 669 225 134 12 1779 13 1913 1z m740 -4699 c0 -5 -11 -16 -23 -24 -36 -23
-106 -97 -112 -118 -4 -11 -10 -19 -14 -19 -11 0 -28 -87 -46 -240 -23 -195
-39 -284 -80 -427 -20 -69 -43 -160 -52 -202 -27 -137 -32 -155 -53 -211 -23
-57 -74 -163 -114 -234 -113 -199 -161 -283 -171 -296 -7 -8 -22 -42 -35 -75
-36 -94 -64 -145 -114 -212 -291 -386 -1391 -403 -1736 -26 -45 49 -78 107
-144 255 -9 21 -34 64 -55 95 -147 222 -249 465 -331 786 -45 178 -62 273 -90
497 -30 249 -31 250 -41 250 -5 0 -9 9 -9 20 0 11 -4 20 -9 20 -5 0 -12 8 -16
19 -7 22 -73 91 -117 122 l-31 23 7 -155 c24 -560 158 -1116 361 -1496 245
-462 590 -731 1045 -819 131 -25 436 -25 570 0 478 88 848 394 1091 901 180
377 292 850 321 1368 l12 207 122 0 122 0 -5 -67 c-9 -137 -53 -464 -83 -619
-94 -480 -261 -939 -458 -1257 -285 -462 -653 -728 -1127 -814 -123 -23 -416
-23 -545 0 -473 82 -845 349 -1132 814 -284 459 -489 1171 -542 1881 l-4 62
1819 0 c1048 0 1819 -4 1819 -9z m-3681 -233 c-16 -98 -14 -318 5 -452 20
-138 20 -200 1 -216 -27 -23 -49 -7 -74 55 -73 184 -62 444 25 618 51 100 61
99 43 -5z m4037 -38 c71 -176 72 -411 2 -585 -28 -70 -59 -85 -80 -40 -10 21
-8 52 8 158 20 139 26 381 11 512 l-7 70 20 -25 c11 -14 31 -54 46 -90z
m-2979 -2482 c-3 -8 -6 -5 -6 6 -1 11 2 17 5 13 3 -3 4 -12 1 -19z m245 -4
c322 -114 404 -129 688 -129 263 0 343 13 594 96 82 28 156 48 165 46 25 -5
-161 -92 -281 -131 -181 -60 -258 -71 -483 -71 -216 1 -306 14 -481 70 -79 26
-304 129 -304 139 0 11 29 6 102 -20z m63 -624 c380 -178 800 -188 1176 -29
168 71 175 36 15 -74 -168 -115 -326 -160 -431 -122 -53 19 -217 19 -270 0
-85 -31 -205 -8 -342 65 -113 61 -223 146 -223 173 0 17 19 14 75 -13z M4420
5161 c-70 -23 -114 -59 -144 -119 -15 -28 -17 -60 -14 -207 l3 -173 30 -44
c87 -123 263 -123 350 0 l30 44 3 173 c3 156 1 177 -16 212 -23 44 -53 74 -99
97 -40 20 -109 28 -143 17z M6117 5156 c-56 -20 -103 -60 -126 -109 -19 -38
-21 -61 -21 -199 0 -103 4 -165 13 -184 23 -53 50 -85 95 -111 117 -69 278 0
311 133 14 56 14 263 0 319 -17 66 -78 131 -142 150 -61 18 -81 18 -130 1z
M5114 4249 c-41 -12 -90 -68 -103 -117 -18 -64 12 -136 72 -172 29 -18 51 -20
240 -20 230 0 246 3 291 62 31 41 40 78 32 124 -9 47 -68 111 -114 124 -45 12
-375 12 -418 -1z M4560 3472 c-23 -12 -43 -35 -58 -64 -70 -139 79 -249 420
-310 169 -31 612 -33 783 -5 361 61 519 175 449 323 -37 77 -135 97 -213 44
-53 -36 -165 -72 -281 -91 -130 -21 -567 -19 -690 4 -122 22 -180 41 -256 83
-69 38 -104 42 -154 16z"/>
</g>
</svg>
