<?xml version="1.0" standalone="no"?>
<!DOCTYPE svg PUBLIC "-//W3C//DTD SVG 20010904//EN"
 "http://www.w3.org/TR/2001/REC-SVG-20010904/DTD/svg10.dtd">
<svg version="1.0" xmlns="http://www.w3.org/2000/svg"
 width="2048.000000pt" height="2048.000000pt" viewBox="0 0 2048.000000 2048.000000"
 preserveAspectRatio="xMidYMid meet">
<metadata>
Created by potrace 1.13, written by Peter Selinger 2001-2015
</metadata>
<g transform="translate(0.000000,2048.000000) scale(0.192120,-0.192120)"
fill="#000000" stroke="none">
<path d="M2565 10319 c-320 -30 -669 -121 -960 -250 -107 -47 -113 -49 -160
-39 -28 6 -129 13 -225 16 -278 10 -513 -31 -769 -132 l-121 -48 0 -4768 0
-4768 2918 0 2917 0 -2 737 c-2 491 -6 763 -14 812 -11 77 -53 219 -69 235
-17 17 -98 -23 -120 -58 -20 -33 -20 -46 -20 -760 0 -719 0 -726 -20 -726 -11
0 -20 -7 -20 -15 0 -13 -40 -15 -300 -15 -193 0 -300 -4 -300 -10 0 -5 -20
-10 -44 -10 -24 0 -46 -3 -48 -7 -1 -5 -34 -23 -71 -42 -57 -28 -70 -32 -78
-20 -5 8 -9 233 -9 502 l0 487 -138 0 -139 0 5 -347 c3 -192 1 -419 -3 -505
l-7 -157 -67 37 c-36 20 -67 40 -69 44 -2 4 -12 8 -23 8 -10 0 -19 5 -19 10 0
7 -662 10 -1965 10 -1740 0 -1965 2 -1965 15 0 11 -12 15 -45 15 l-45 0 0 40
c0 29 -4 40 -15 40 -13 0 -15 114 -15 965 0 637 -3 965 -10 965 -5 0 -10 9
-10 20 0 11 -4 20 -10 20 -5 0 -10 5 -10 11 0 7 -30 53 -66 103 l-65 91 675 3
676 2 0 213 -1 212 -124 49 c-436 170 -864 523 -1124 926 -34 52 -61 97 -61
100 0 3 17 24 38 45 20 22 47 54 60 72 l22 31 0 1357 c0 901 -3 1354 -10 1350
-5 -3 -10 2 -10 11 0 21 -45 100 -77 134 -13 14 -23 28 -23 31 0 4 65 39 144
77 422 207 691 557 821 1067 29 117 41 187 61 380 l6 60 39 -100 c47 -118 136
-276 224 -400 425 -595 1111 -1029 1983 -1255 362 -94 819 -162 1197 -178
l160 -7 0 -830 c0 -819 0 -832 -23 -959 -67 -380 -191 -694 -393 -996 -272
-408 -685 -744 -1137 -925 l-104 -42 -2 -212 -1 -211 875 0 c737 0 890 -2 969
-15 165 -27 314 -88 459 -188 104 -71 245 -224 311 -336 l55 -92 100 -56 c484
-269 930 -586 1396 -993 199 -174 535 -497 685 -658 82 -89 153 -158 156 -154
25 27 1940 2494 1937 2496 -2 1 -48 19 -103 41 -262 101 -745 329 -1059 500
-565 307 -1184 737 -1556 1082 l-60 55 0 1196 0 1195 100 103 c55 56 100 107
100 113 0 29 -80 33 -111 5 -12 -10 -34 -46 -49 -79 -27 -59 -28 -60 -34 -30
-26 115 -61 171 -141 220 -41 25 -61 31 -125 33 -100 5 -162 -20 -227 -92 -26
-29 -43 -42 -40 -31 26 88 28 106 15 132 -27 55 -38 40 -38 -50 l0 -86 -380
-379 c-209 -208 -380 -383 -380 -389 0 -15 71 -33 131 -33 71 0 132 33 227
121 41 38 78 67 82 64 12 -7 190 194 190 214 0 9 22 75 49 146 50 134 94 235
87 200 -3 -11 -7 -34 -11 -52 -9 -47 20 -149 58 -201 19 -26 55 -58 87 -76 49
-28 64 -31 135 -31 88 0 133 17 200 76 l36 32 -20 -49 c-11 -27 -36 -82 -55
-122 -20 -40 -36 -77 -36 -81 0 -5 -6 -11 -12 -14 -17 -5 -19 -1994 -3 -2005
6 -4 18 -19 28 -34 13 -20 34 -33 78 -45 l60 -18 -3 -475 c-4 -525 -4 -521
-73 -667 -68 -146 -177 -277 -320 -388 -72 -55 -146 -105 -156 -105 -2 0 -3
504 -1 1120 l3 1120 -84 103 c-395 481 -698 1005 -882 1522 -103 290 -142 472
-155 715 -39 785 -345 1478 -894 2025 -486 485 -1078 776 -1766 870 -139 19
-517 27 -655 14z m531 -300 c974 -94 1809 -647 2233 -1478 174 -341 266 -685
292 -1090 17 -279 52 -460 136 -716 76 -235 119 -330 243 -546 39 -68 114
-212 167 -319 105 -213 174 -336 254 -457 71 -105 190 -264 256 -340 29 -33
53 -65 53 -70 0 -5 11 -20 25 -33 l25 -23 3 -1001 c2 -551 6 -1014 11 -1031
15 -58 62 -138 111 -190 66 -68 95 -85 148 -85 179 0 496 321 617 625 71 179
81 234 89 480 6 183 7 190 27 193 14 2 65 -30 150 -95 517 -394 1115 -750
1749 -1042 88 -41 166 -79 173 -84 23 -18 13 -63 -30 -123 -72 -100 -1363
-1758 -1400 -1797 -37 -39 -66 -46 -105 -24 -12 7 -133 118 -270 248 -249 237
-347 326 -523 475 -425 359 -898 689 -1246 868 -94 48 -135 85 -279 246 -201
225 -424 357 -713 421 -93 21 -125 22 -852 28 -588 5 -760 9 -777 19 -13 7
-23 15 -23 18 0 12 29 32 105 73 273 148 442 270 649 471 361 349 642 847 761
1345 57 240 56 220 53 1160 -3 756 -5 873 -18 889 -8 10 -39 44 -68 76 -87 95
-96 97 -512 135 -1179 109 -2127 535 -2671 1201 -33 41 -113 154 -178 251
-134 202 -191 269 -254 303 -40 21 -47 22 -76 10 -50 -20 -114 -90 -149 -160
-17 -36 -51 -139 -76 -230 -25 -91 -54 -190 -64 -220 -73 -205 -193 -401 -326
-534 -80 -80 -167 -146 -193 -146 -11 0 -13 171 -13 973 l0 974 78 21 c195 53
231 56 547 57 336 1 301 -5 546 88 288 109 512 160 829 190 85 9 386 6 486 -4z
m4194 -3007 c0 -5 -6 -16 -12 -25 -16 -20 -44 -7 -35 17 6 16 47 23 47 8z
m-6582 -3375 c181 -171 360 -305 535 -403 227 -127 245 -142 195 -160 -13 -4
-204 -9 -425 -11 l-403 -4 0 325 c0 213 4 326 10 326 6 0 45 -33 88 -73z
M6586 10035 c-337 -93 -608 -521 -681 -1078 -31 -237 -15 -568 37 -792 93
-402 295 -712 544 -833 217 -107 456 -58 650 133 154 152 260 346 350 640 16
52 23 66 19 40 -42 -349 -41 -420 6 -487 29 -40 56 -49 99 -31 53 21 98 70
247 266 74 97 136 177 137 177 1 0 -28 -60 -65 -134 -117 -235 -162 -399 -163
-606 -1 -123 2 -142 27 -217 88 -256 282 -386 577 -385 66 0 149 7 195 17 672
139 1346 822 1471 1490 24 129 15 303 -19 404 -63 182 -201 307 -392 356 -79
21 -266 21 -373 0 -240 -46 -520 -186 -760 -379 -44 -36 -275 -260 -511 -497
l-431 -431 0 556 c0 315 -5 599 -10 654 -72 670 -419 1156 -823 1151 -45 0
-104 -7 -131 -14z m-19 -337 c-3 -8 -6 -5 -6 6 -1 11 2 17 5 13 3 -3 4 -12 1
-19z m-17 0 c0 -7 -29 -44 -65 -81 -35 -38 -88 -104 -117 -149 -48 -73 -53
-77 -56 -52 -7 52 9 92 59 158 66 85 179 164 179 124z m413 -26 c37 -25 96
-90 130 -144 10 -16 17 -47 17 -74 l0 -47 -20 26 c-11 14 -20 28 -20 32 0 11
-58 84 -117 147 -29 31 -53 62 -53 68 0 6 -4 9 -9 6 -5 -3 -12 1 -15 9 -8 22
39 10 87 -23z m-198 -188 c149 -70 252 -505 225 -952 -25 -428 -133 -702 -277
-702 -101 0 -204 207 -250 502 -27 174 -24 520 6 693 40 233 114 407 193 455
40 24 60 25 103 4z m2888 -794 c51 -25 66 -36 95 -74 21 -28 22 -36 21 -235 0
-113 -4 -215 -9 -226 -5 -12 -9 36 -9 129 -1 134 -3 152 -23 185 -20 34 -125
170 -138 181 -13 10 -29 48 -23 54 12 11 43 6 86 -14z m-829 -185 c-4 -8 -8
-15 -10 -15 -2 0 -4 7 -4 15 0 8 4 15 10 15 5 0 7 -7 4 -15z m-24 -9 c0 -3
-78 -83 -173 -179 -234 -235 -366 -407 -467 -606 -68 -134 -90 -214 -90 -320
0 -78 3 -89 36 -150 20 -36 59 -92 86 -123 54 -62 59 -93 18 -93 -55 -1 -135
54 -201 138 l-39 49 0 174 c0 168 1 177 30 261 17 47 42 107 57 132 129 223
492 590 698 708 21 11 45 16 45 9z m691 -34 c85 -76 19 -281 -173 -542 -86
-117 -354 -384 -466 -465 -177 -129 -314 -194 -422 -202 -114 -8 -159 45 -140
162 28 170 182 407 420 646 261 262 531 428 697 429 44 0 58 -5 84 -28z
m-2273 -387 c-3 -155 -4 -162 -34 -225 -57 -120 -123 -204 -185 -236 -54 -27
-143 -42 -153 -25 -4 6 30 48 77 93 89 89 157 198 205 328 26 71 81 280 84
320 5 63 9 -111 6 -255z m2426 -209 c-69 -129 -210 -308 -333 -424 -90 -84
-259 -203 -294 -206 -4 -1 -12 -8 -17 -16 -6 -10 -10 -11 -10 -3 0 7 70 81
156 165 223 218 373 405 485 603 l34 60 3 -64 c3 -55 -1 -73 -24 -115z m-3230
-71 c16 -22 54 -67 83 -101 29 -34 53 -67 53 -75 0 -11 -2 -11 -10 1 -5 8 -10
11 -10 6 0 -5 -6 -3 -13 3 -8 6 -16 9 -19 6 -8 -9 -116 94 -147 142 -26 39
-31 56 -31 107 l0 61 32 -55 c17 -30 45 -73 62 -95z M1357 6706 c-101 -37
-167 -112 -188 -213 -17 -85 -7 -387 15 -436 26 -58 90 -122 148 -147 62 -27
171 -25 229 4 51 24 108 83 133 136 19 41 21 62 21 255 0 208 0 210 -27 260
-31 60 -67 95 -128 125 -56 28 -151 36 -203 16z m123 -411 l0 -165 -38 0 c-21
0 -43 5 -50 12 -13 13 -18 299 -5 311 3 4 26 7 50 7 l43 0 0 -165z M3574 6702
c-58 -20 -100 -52 -136 -102 -43 -61 -48 -91 -48 -305 0 -196 1 -202 26 -253
49 -98 135 -151 247 -152 115 0 195 49 246 152 l31 61 0 192 c0 232 -8 264
-85 342 -80 79 -175 101 -281 65z m131 -407 l0 -160 -38 -3 c-64 -5 -67 2 -67
168 0 163 -1 160 65 157 l40 -2 0 -160z M6900 6476 c-20 -7 -56 -26 -80 -43
-54 -37 -205 -190 -249 -252 -38 -53 -67 -150 -77 -250 l-7 -74 29 21 c16 11
130 122 253 246 124 124 226 226 228 226 2 0 3 -264 3 -586 l0 -586 55 4 c65
5 100 32 115 87 6 22 10 227 10 511 l0 475 -24 50 c-43 92 -146 186 -203 185
-10 -1 -34 -7 -53 -14z M2203 5171 c-85 -53 -85 -185 1 -237 28 -17 58 -19
316 -22 157 -2 304 -1 327 3 80 12 138 95 119 170 -4 14 -22 43 -41 63 l-33
37 -329 3 c-312 2 -330 1 -360 -17z M1451 4478 c40 -76 168 -210 276 -290 410
-301 1099 -329 1555 -62 93 55 132 85 222 172 67 65 156 175 156 193 0 5 -468
9 -1110 9 l-1111 0 12 -22z m1723 -164 c19 -7 21 -31 4 -48 -53 -50 -232 -121
-378 -148 -105 -19 -419 -16 -520 5 -206 44 -370 120 -370 170 0 9 6 18 13 20
18 8 1232 8 1251 1z M1723 2578 c6 -201 22 -271 92 -408 86 -165 202 -278 370
-360 122 -60 191 -78 317 -87 383 -25 726 215 848 592 19 59 24 98 28 253 4
174 3 182 -15 182 -10 0 -24 -5 -31 -12 -7 -7 -12 -9 -12 -4 0 4 -7 1 -15 -8
-8 -8 -15 -20 -15 -26 0 -6 -4 -9 -9 -6 -4 3 -11 -43 -14 -102 -3 -67 -13
-131 -26 -172 -11 -36 -21 -73 -21 -82 0 -10 -16 -52 -37 -94 -29 -62 -55 -96
-127 -169 -150 -150 -286 -205 -506 -205 -143 0 -236 22 -353 82 -140 72 -282
237 -322 373 -33 115 -45 187 -45 279 0 86 -2 97 -15 86 -13 -10 -15 -9 -15 9
0 20 -43 51 -71 51 -9 0 -10 -44 -6 -172z"/>
</g>
</svg>
