<?xml version="1.0" standalone="no"?>
<!DOCTYPE svg PUBLIC "-//W3C//DTD SVG 20010904//EN"
 "http://www.w3.org/TR/2001/REC-SVG-20010904/DTD/svg10.dtd">
<svg version="1.0" xmlns="http://www.w3.org/2000/svg"
 width="2048.000000pt" height="2048.000000pt" viewBox="0 0 2048.000000 2048.000000"
 preserveAspectRatio="xMidYMid meet">
<metadata>
Created by potrace 1.13, written by Peter Selinger 2001-2015
</metadata>
<g transform="translate(0.000000,2048.000000) scale(0.192120,-0.192120)"
fill="#000000" stroke="none">
<path d="M2902 10037 l-73 -294 -271 -269 -271 -269 -143 -293 -144 -293 2
-997 c3 -1125 -3 -1044 82 -1120 23 -20 52 -51 64 -69 34 -48 85 -75 160 -83
160 -17 251 58 272 225 8 65 7 81 -5 95 -19 21 -40 82 -50 145 -9 62 -11 58
-29 -88 -18 -136 -48 -205 -106 -243 -42 -28 -117 -44 -170 -37 l-38 5 -12 97
c-8 69 -11 376 -8 1101 l3 1005 92 184 c51 101 114 215 140 255 28 43 127 153
248 276 264 268 307 330 350 502 42 165 66 229 102 268 l35 40 314 0 c307 0
314 0 314 -20 0 -13 7 -20 20 -20 17 0 20 -7 20 -50 0 -36 4 -52 15 -56 8 -4
15 -15 15 -26 0 -10 5 -16 10 -13 6 3 10 0 10 -8 0 -15 29 -27 66 -27 19 0 22
8 28 61 3 34 6 118 6 185 l0 124 -488 0 -487 0 -73 -293z M6710 10193 c0 -76
3 -168 7 -205 5 -62 8 -68 28 -68 30 0 75 37 75 61 0 11 7 27 15 35 10 10 15
35 15 70 0 41 4 54 15 54 8 0 15 9 15 20 0 20 7 20 313 20 l312 0 41 -37 c35
-33 46 -52 74 -143 51 -162 95 -265 147 -343 29 -44 134 -160 268 -297 246
-250 259 -268 407 -576 l68 -143 0 -1003 c0 -917 -1 -1011 -17 -1095 -18 -92
-18 -93 -48 -95 -154 -9 -240 54 -270 198 -16 79 -25 91 -25 38 -1 -46 -21
-108 -45 -134 -22 -24 -13 -66 26 -120 42 -58 103 -84 194 -81 89 2 147 29
187 86 17 24 40 48 52 54 12 7 32 28 45 47 51 75 51 67 51 1111 l0 973 -144
292 -143 293 -271 269 -271 269 -73 294 -73 293 -487 0 -488 0 0 -137z M5065
10094 c-22 -2 -89 -9 -149 -14 -295 -29 -606 -103 -881 -211 -81 -32 -85 -35
-85 -64 l1 -30 13 30 c11 25 50 55 71 55 3 0 6 -89 7 -197 l3 -197 336 -77
c185 -42 352 -85 370 -95 58 -29 207 -186 235 -248 73 -160 -8 -354 -173 -416
-30 -11 -77 -20 -106 -20 -30 1 -269 52 -557 119 l-505 118 -275 -272 c-151
-149 -295 -285 -320 -302 -59 -40 -162 -92 -225 -113 -48 -16 -50 -19 -57 -61
-4 -24 -40 -309 -79 -634 -71 -589 -71 -590 -54 -645 25 -82 92 -204 136 -250
43 -44 79 -58 114 -42 34 16 51 54 80 183 125 560 408 1029 779 1294 l66 47
117 -95 c335 -268 589 -418 761 -448 157 -28 241 70 216 252 -5 38 -8 69 -5
69 2 0 70 -64 150 -142 236 -231 424 -378 534 -420 64 -24 82 -23 107 10 19
24 22 35 17 94 -7 77 -47 203 -111 346 -25 56 -46 104 -46 107 0 3 24 -15 54
-39 263 -214 809 -351 1525 -384 l154 -7 40 -65 c103 -169 219 -372 323 -569
118 -223 147 -264 201 -287 72 -31 141 44 191 206 l20 66 -33 269 c-19 149
-57 461 -85 695 -28 233 -53 426 -55 428 -2 3 -40 19 -83 36 -165 67 -207 99
-507 396 l-280 276 -505 -117 c-288 -68 -527 -118 -557 -119 -115 -1 -220 67
-273 174 -42 84 -44 179 -6 262 29 64 191 231 244 253 19 8 183 49 365 91
l332 76 0 185 0 184 -133 53 c-223 88 -461 150 -732 187 -109 16 -586 29 -685
19z m480 -314 c165 -12 336 -36 445 -64 77 -19 85 -23 85 -45 0 -20 -11 -28
-75 -53 -173 -66 -241 -110 -362 -234 -91 -94 -132 -150 -180 -246 l-40 -81 4
-146 4 -146 37 -70 c83 -152 194 -266 316 -323 66 -32 87 -37 169 -40 109 -5
116 -4 547 95 377 86 434 94 490 68 20 -10 125 -103 232 -207 172 -167 248
-232 392 -329 36 -26 39 -32 56 -115 17 -85 32 -460 23 -569 l-3 -40 -72 106
c-87 127 -224 263 -304 302 -60 30 -96 35 -424 63 -439 37 -712 98 -1042 235
-78 33 -162 62 -187 65 -64 9 -115 -19 -211 -115 -80 -81 -112 -99 -143 -82
-9 5 -57 41 -107 80 -156 123 -240 155 -311 118 -16 -8 -65 -47 -109 -86 -100
-89 -131 -100 -204 -72 -74 28 -210 112 -366 226 -254 185 -359 236 -441 214
-197 -55 -455 -293 -685 -634 -35 -52 -70 -94 -76 -95 -16 0 -18 302 -3 346 6
18 29 41 58 59 114 73 216 158 390 329 103 101 202 191 221 201 53 27 125 17
496 -68 431 -99 438 -100 547 -95 82 3 103 8 168 39 129 62 239 181 317 345
38 79 38 79 38 209 0 129 0 131 -36 205 -72 150 -232 329 -365 410 -32 19 -92
47 -134 61 -130 45 -160 60 -160 79 0 23 33 34 180 59 265 45 568 60 825 41z
M6688 9783 c5 -10 12 -25 15 -33 3 -8 6 0 6 18 1 22 -4 32 -14 32 -12 0 -13
-5 -7 -17z M3951 9518 c-1 -16 4 -28 9 -28 12 0 12 8 0 35 -8 18 -9 17 -9 -7z
M6698 9520 c-7 -24 -3 -38 8 -28 3 4 4 17 2 30 l-3 23 -7 -25z M3295 8688
c-231 -233 -235 -237 -50 -57 205 199 267 250 333 273 l37 14 -28 11 c-16 6
-31 11 -35 11 -4 0 -120 -113 -257 -252z M7090 8933 c-8 -2 -22 -7 -30 -10
-10 -3 -2 -10 22 -19 66 -23 128 -74 328 -268 179 -175 175 -170 -50 57 -135
136 -247 247 -250 246 -3 0 -12 -3 -20 -6z M2748 8261 c-72 -28 -78 -36 -78
-106 l0 -40 21 42 c20 41 56 78 109 115 32 22 28 21 -52 -11z M7860 8272 c53
-36 89 -74 109 -115 l21 -42 0 40 c0 71 -6 78 -83 107 -46 17 -63 20 -47 10z
M2386 6236 c54 -258 227 -475 400 -502 l41 -6 6 -182 c14 -387 91 -703 252
-1031 83 -171 134 -253 252 -411 261 -352 658 -656 1063 -815 l95 -38 3 -170
c1 -94 7 -171 12 -171 18 0 57 19 73 35 26 25 25 296 -1 343 -40 76 -109 128
-279 213 -90 45 -205 109 -256 142 -342 221 -549 432 -750 769 -107 177 -152
276 -215 463 -60 179 -108 445 -118 657 -4 76 -11 138 -16 138 -4 0 -8 7 -8
15 0 20 -46 94 -79 125 -14 14 -55 49 -91 77 -95 75 -141 127 -203 229 -44 71
-69 100 -117 135 -33 24 -64 45 -69 47 -5 2 -3 -26 5 -62z M8215 6256 c-41
-30 -71 -62 -94 -102 -19 -33 -50 -85 -68 -116 -36 -61 -95 -118 -181 -175
-63 -42 -131 -118 -139 -155 -3 -16 -9 -28 -14 -28 -5 0 -9 -22 -9 -48 0 -26
-5 -53 -10 -58 -6 -6 -17 -98 -25 -205 -16 -209 -27 -286 -51 -364 -16 -50
-80 -214 -114 -290 -10 -22 -32 -74 -50 -115 -146 -340 -330 -574 -625 -796
-208 -157 -277 -200 -503 -314 -104 -53 -157 -86 -196 -123 -81 -80 -86 -95
-86 -269 0 -97 4 -147 10 -143 6 3 10 1 10 -5 0 -11 58 -40 79 -40 7 0 12 64
13 171 l3 171 87 33 c476 184 911 548 1202 1005 80 125 192 367 245 525 84
255 118 448 128 731 l6 182 41 6 c172 28 341 239 399 499 8 37 12 67 9 67 -4
0 -34 -20 -67 -44z M3698 6154 c-45 -24 -46 -59 -7 -132 48 -90 146 -211 219
-270 118 -95 243 -142 380 -142 94 0 172 20 264 67 138 71 359 329 359 419 0
30 -31 64 -59 66 -11 1 -58 -17 -105 -40 -156 -76 -354 -108 -566 -91 -142 11
-247 39 -360 94 -50 25 -93 45 -95 45 -2 -1 -15 -7 -30 -16z M5795 6160 c-29
-11 -47 -36 -47 -65 0 -89 221 -347 358 -418 310 -160 643 -32 854 329 45 78
49 101 20 132 -29 31 -61 28 -153 -18 -250 -122 -649 -126 -896 -7 -36 17 -77
37 -91 43 -14 7 -34 8 -45 4z M4983 5170 c-89 -54 -94 -172 -9 -233 30 -21 39
-22 336 -25 262 -3 310 -1 347 13 108 41 122 177 24 242 -34 23 -38 23 -350
23 -296 0 -318 -1 -348 -20z M5200 4489 c-203 -23 -374 -116 -415 -223 -72
-189 280 -359 657 -318 315 36 504 187 424 341 -52 100 -217 178 -421 201
-102 11 -139 11 -245 -1z M2645 2814 c-117 -21 -199 -48 -300 -98 -118 -58
-201 -117 -297 -212 -140 -139 -242 -316 -296 -511 l-27 -98 -3 -782 -3 -783
3611 0 3611 0 -3 783 -3 782 -27 98 c-32 115 -106 275 -171 366 -176 248 -454
417 -762 461 -42 6 -418 10 -942 10 l-873 0 0 -192 c0 -158 -4 -208 -20 -276
-69 -287 -274 -509 -560 -604 -90 -30 -103 -32 -250 -32 -147 0 -160 2 -250
32 -228 76 -404 231 -504 443 -62 129 -69 171 -74 412 l-4 217 -886 -1 c-726
-1 -901 -3 -967 -15z m1595 -234 c0 -13 7 -20 20 -20 16 0 20 -7 20 -33 0 -50
38 -222 65 -299 59 -164 134 -284 249 -400 148 -150 321 -248 521 -294 117
-28 329 -25 450 4 183 45 389 170 517 313 113 126 173 228 226 385 24 69 62
252 62 295 0 19 5 29 15 29 8 0 15 9 15 21 l0 20 768 -4 c843 -4 823 -3 992
-68 245 -94 445 -322 522 -594 22 -79 22 -90 26 -718 3 -636 3 -637 -18 -637
-11 0 -20 -7 -20 -15 0 -13 -39 -15 -290 -15 -187 0 -290 -4 -290 -10 0 -5
-20 -10 -44 -10 -24 0 -46 -3 -48 -7 -1 -5 -40 -27 -85 -51 l-83 -43 0 506 0
505 -140 0 -140 0 0 -504 0 -505 -76 40 c-42 21 -85 39 -95 39 -11 0 -19 5
-19 10 0 7 -687 10 -2040 10 -1122 0 -2040 -3 -2040 -7 0 -5 -21 -17 -48 -28
-26 -10 -63 -30 -82 -43 l-35 -24 -3 506 -2 506 -140 0 -140 0 0 -506 0 -506
-32 20 c-18 12 -53 31 -78 44 -25 13 -46 26 -48 31 -2 4 -12 7 -23 7 -10 0
-19 5 -19 10 0 6 -103 10 -290 10 -251 0 -290 2 -290 15 0 11 -11 15 -40 15
l-40 0 0 685 0 684 24 65 c114 314 395 531 746 575 36 5 388 9 783 10 711 1
717 1 717 -19z"/>
</g>
</svg>
