<?xml version="1.0" standalone="no"?>
<!DOCTYPE svg PUBLIC "-//W3C//DTD SVG 20010904//EN"
 "http://www.w3.org/TR/2001/REC-SVG-20010904/DTD/svg10.dtd">
<svg version="1.0" xmlns="http://www.w3.org/2000/svg"
 width="2048.000000pt" height="2048.000000pt" viewBox="0 0 2048.000000 2048.000000"
 preserveAspectRatio="xMidYMid meet">
<metadata>
Created by potrace 1.13, written by Peter Selinger 2001-2015
</metadata>
<g transform="translate(0.000000,2048.000000) scale(0.192120,-0.192120)"
fill="#000000" stroke="none">
<path d="M2901 10037 l-72 -293 -271 -270 -270 -269 -144 -291 -144 -292 2
-998 3 -999 29 -58 c17 -36 41 -67 61 -80 19 -12 40 -33 49 -48 27 -46 90 -81
158 -88 l62 -6 13 -69 c52 -283 230 -519 411 -543 l39 -5 6 -187 c4 -102 13
-233 22 -291 63 -418 230 -815 488 -1159 93 -124 345 -376 470 -470 186 -139
403 -261 593 -335 l89 -34 0 -211 1 -211 -877 0 c-934 0 -953 -1 -1119 -50
-85 -25 -229 -96 -309 -153 -88 -62 -211 -186 -272 -274 -68 -99 -134 -242
-167 -360 l-27 -98 -3 -782 -3 -783 3611 0 3611 0 -3 783 -3 782 -27 98 c-32
115 -106 275 -171 366 -176 248 -454 417 -762 461 -42 6 -418 10 -941 10
l-870 0 1 211 0 211 85 32 c113 44 304 141 412 209 388 245 703 595 908 1012
166 336 244 652 257 1041 l6 182 39 5 c178 24 350 246 408 527 l17 85 61 6
c69 7 130 40 157 86 9 16 31 38 50 50 20 13 44 44 61 80 l29 58 3 999 2 998
-144 292 -144 291 -270 269 -271 270 -72 293 -73 293 -489 0 -489 0 4 -265 c2
-146 0 -265 -4 -265 -4 0 -85 31 -181 70 -266 106 -488 165 -787 207 -157 22
-655 25 -825 5 -359 -43 -698 -130 -961 -248 -7 -3 -9 70 -6 246 l5 250 -490
0 -489 0 -73 -293z m759 23 c0 -13 7 -20 20 -20 17 0 20 -7 20 -49 0 -28 5
-53 10 -56 6 -3 10 -13 10 -22 0 -16 59 -89 69 -86 3 0 21 -5 40 -13 18 -8 50
-14 71 -14 48 0 50 -6 50 -177 l0 -133 25 -6 c34 -9 40 -1 20 29 -37 57 -28
175 18 233 l22 29 5 -155 5 -154 320 -73 c176 -40 340 -80 365 -89 63 -24 222
-184 256 -258 73 -160 -8 -354 -173 -416 -30 -11 -75 -20 -101 -20 -38 0 -498
102 -1008 223 l-62 15 -253 -255 c-140 -140 -281 -275 -314 -300 -66 -50 -172
-106 -250 -133 -48 -16 -50 -19 -57 -61 -4 -24 -40 -309 -79 -634 -79 -663
-79 -605 -4 -761 66 -138 141 -203 200 -176 34 16 50 53 80 188 56 253 180
566 302 764 124 201 304 401 461 513 l82 59 117 -95 c290 -231 523 -377 693
-433 76 -24 166 -24 208 1 64 38 95 143 74 253 -5 28 -7 52 -4 52 3 0 71 -64
151 -142 236 -231 425 -378 535 -420 58 -22 89 -17 112 18 35 53 -9 239 -106
442 -27 56 -46 102 -44 102 3 0 30 -20 61 -45 263 -215 802 -349 1532 -383
l145 -7 69 -115 c114 -189 180 -306 297 -526 115 -217 143 -257 197 -280 42
-18 71 -7 112 43 40 48 94 186 94 238 -1 39 -146 1257 -161 1343 -7 43 -7 43
-88 76 -167 67 -208 99 -509 396 l-280 276 -505 -117 c-286 -67 -528 -118
-557 -118 -114 -2 -220 66 -273 173 -42 84 -44 179 -6 261 28 61 177 220 235
249 18 10 185 52 370 95 l336 77 5 134 5 135 22 -29 c12 -15 25 -44 29 -63 8
-42 -2 -121 -17 -140 -16 -18 -5 -27 25 -19 24 6 24 7 28 135 2 71 5 132 8
134 3 3 23 7 45 10 22 3 52 10 67 16 28 11 78 56 78 71 0 6 5 10 10 10 6 0 10
13 10 29 0 17 5 33 10 36 6 3 10 31 10 61 0 41 4 54 15 54 8 0 15 9 15 20 0
19 7 20 223 20 l223 0 41 -42 c31 -32 49 -65 71 -129 75 -215 158 -334 411
-593 97 -100 195 -206 218 -236 51 -69 130 -212 194 -354 l49 -110 0 -972 0
-972 -26 -58 c-44 -100 -67 -144 -77 -144 -5 0 -24 9 -42 20 -45 28 -83 103
-95 190 -24 172 -180 1472 -180 1504 0 36 -21 66 -46 66 -21 0 -135 53 -207
96 -43 26 -148 123 -343 316 l-281 279 -68 -17 c-52 -13 -64 -19 -49 -25 10
-4 30 -8 45 -8 63 -2 129 -52 352 -270 250 -244 264 -256 399 -335 139 -81
167 -119 192 -257 13 -71 96 -740 137 -1098 16 -148 9 -265 -20 -317 -22 -39
-23 -46 -11 -93 13 -55 57 -123 91 -141 21 -12 20 -13 -22 -37 -68 -40 -108
-82 -143 -155 -53 -106 -77 -140 -130 -187 -178 -156 -286 -298 -286 -377 0
-19 -4 -42 -9 -52 -6 -9 -14 -98 -20 -197 -5 -99 -14 -200 -20 -225 -5 -25
-16 -74 -24 -110 -16 -68 -167 -430 -244 -585 -70 -140 -209 -323 -334 -440
-51 -48 -230 -185 -329 -251 -52 -35 -273 -156 -375 -205 -53 -26 -93 -57
-165 -129 -139 -138 -140 -141 -140 -393 0 -131 4 -207 10 -207 6 0 10 -83 10
-230 0 -260 -7 -296 -78 -400 -95 -140 -209 -221 -372 -266 -88 -24 -272 -25
-360 -1 -186 49 -338 169 -420 331 l-45 89 -3 220 c-3 174 -1 222 10 228 17
11 19 476 2 487 -6 4 -19 22 -28 40 -9 18 -51 67 -94 110 -63 64 -96 88 -182
131 -203 104 -326 175 -445 260 -337 240 -614 625 -755 1052 -74 219 -120 486
-120 684 0 52 -4 97 -10 100 -5 3 -10 13 -10 21 0 34 -81 137 -207 265 -138
140 -160 167 -209 259 -31 59 -63 90 -130 130 l-43 26 34 27 c46 37 73 91 85
174 14 97 12 150 -5 177 -28 42 -37 140 -25 260 19 198 110 939 126 1026 16
91 47 155 91 190 15 12 77 51 137 87 98 59 136 92 348 299 267 260 304 287
408 288 32 0 58 2 57 3 -1 1 -40 11 -86 23 l-84 21 -281 -279 c-303 -301 -352
-339 -514 -400 -52 -19 -74 -33 -76 -47 -2 -11 -18 -146 -36 -300 -18 -154
-61 -511 -96 -793 -60 -489 -64 -516 -92 -564 -26 -48 -92 -101 -107 -87 -3 4
-26 51 -50 105 l-45 99 0 948 c0 1087 -11 963 107 1195 111 220 165 293 363
496 262 269 325 361 381 551 33 116 46 143 87 188 l26 27 223 0 c216 0 223 -1
223 -20z m1885 -280 c170 -13 312 -33 465 -67 128 -28 185 -51 185 -73 0 -18
-71 -53 -145 -70 -219 -52 -401 -197 -521 -415 l-44 -80 -3 -123 c-3 -81 0
-134 8 -155 87 -228 230 -366 415 -398 94 -16 164 -5 611 97 204 46 390 84
413 84 24 0 59 -8 78 -17 20 -9 133 -112 252 -228 161 -157 240 -226 311 -273
52 -34 105 -69 117 -77 28 -19 37 -62 73 -355 25 -196 30 -272 30 -454 0 -186
-2 -217 -14 -207 -8 7 -40 55 -71 109 -191 323 -201 338 -271 409 -119 118
-164 133 -459 153 -483 33 -810 105 -1160 253 -179 76 -228 72 -325 -26 -23
-23 -70 -108 -84 -151 -4 -10 -12 -16 -20 -13 -7 3 -18 1 -23 -4 -5 -5 -52 27
-118 83 -126 105 -213 164 -261 177 -56 15 -94 -3 -190 -90 -122 -112 -123
-113 -176 -99 -93 26 -241 113 -468 279 -200 146 -271 184 -346 183 -105 -1
-238 -86 -409 -263 -176 -182 -270 -314 -394 -554 -40 -77 -79 -147 -87 -155
-12 -12 -14 19 -14 229 0 232 14 398 40 467 5 12 37 38 72 57 114 64 189 126
398 332 113 111 220 210 239 220 53 27 125 17 516 -73 193 -45 389 -86 436
-93 237 -32 423 82 535 331 26 59 29 77 32 191 l4 125 -40 85 c-48 102 -111
188 -201 271 -87 80 -179 129 -306 163 -136 36 -205 65 -205 85 0 23 31 35
167 64 309 65 647 88 958 66z m-1046 -7183 c1 -82 7 -169 17 -215 44 -213 169
-397 354 -521 135 -91 253 -129 420 -138 242 -13 456 71 631 247 166 167 239
354 239 617 0 70 3 144 6 164 l6 36 62 -61 c34 -34 69 -66 77 -72 21 -15 78
-34 105 -34 13 0 24 -4 24 -9 0 -6 293 -11 758 -14 679 -3 765 -5 832 -21 309
-73 523 -253 642 -541 l33 -80 3 -687 c3 -685 2 -688 -18 -688 -11 0 -20 -7
-20 -15 0 -13 -39 -15 -290 -15 -187 0 -290 -4 -290 -10 0 -5 -20 -10 -44 -10
-24 0 -46 -3 -48 -7 -1 -5 -40 -27 -85 -51 l-83 -43 0 506 0 505 -140 0 -140
0 0 -504 0 -505 -76 40 c-42 21 -85 39 -95 39 -11 0 -19 5 -19 10 0 7 -687 10
-2040 10 -1122 0 -2040 -3 -2040 -7 0 -5 -21 -17 -48 -28 -26 -10 -63 -30 -82
-43 l-35 -24 -3 506 -2 506 -140 0 -140 0 0 -506 0 -506 -32 20 c-18 12 -53
31 -78 44 -25 13 -47 26 -48 31 -2 4 -12 7 -23 7 -10 0 -19 5 -19 10 0 6 -103
10 -290 10 -251 0 -290 2 -290 15 0 11 -11 15 -40 15 l-40 0 0 685 0 684 24
65 c117 322 392 537 739 575 60 7 370 11 821 11 634 0 725 2 730 15 3 8 12 15
20 15 26 0 100 59 142 111 l39 50 6 -28 c4 -15 7 -90 8 -166z M6948 8893 c7
-3 16 -2 19 1 4 3 -2 6 -13 5 -11 0 -14 -3 -6 -6z M4851 8819 c-19 -23 -55
-54 -80 -70 -51 -33 -44 -40 9 -8 48 29 79 59 96 92 19 36 15 34 -25 -14z
M5783 8835 c19 -37 61 -77 104 -99 50 -25 51 -19 2 12 -25 16 -62 49 -83 73
-31 36 -35 38 -23 14z M3702 6155 c-49 -21 -52 -56 -11 -133 78 -146 216 -287
343 -351 120 -60 268 -78 390 -46 168 44 348 197 455 386 35 63 40 108 13 132
-28 26 -59 21 -147 -22 -257 -127 -652 -128 -905 -4 -41 20 -82 40 -90 44 -9
4 -30 1 -48 -6z M5795 6160 c-56 -21 -60 -66 -15 -147 50 -88 100 -151 181
-228 320 -303 748 -208 999 221 45 78 49 101 20 132 -29 31 -61 28 -153 -18
-252 -124 -646 -127 -896 -7 -36 17 -77 37 -91 43 -14 7 -34 8 -45 4z M4983
5170 c-66 -40 -86 -103 -54 -174 16 -37 29 -51 63 -66 40 -18 67 -20 338 -20
271 0 298 2 338 20 77 35 103 138 51 204 -43 55 -52 56 -391 56 -293 0 -315
-1 -345 -20z M5209 4490 c-270 -32 -460 -166 -429 -304 11 -50 42 -89 104
-130 117 -77 252 -111 451 -110 199 0 345 39 455 119 112 83 124 179 34 275
-107 115 -369 178 -615 150z m311 -221 c134 -26 114 -87 -39 -119 -33 -7 -109
-11 -190 -8 -125 3 -141 6 -193 32 -32 16 -58 34 -58 41 0 29 74 55 200 69 51
6 216 -3 280 -15z"/>
</g>
</svg>
