<?xml version="1.0" standalone="no"?>
<!DOCTYPE svg PUBLIC "-//W3C//DTD SVG 20010904//EN"
 "http://www.w3.org/TR/2001/REC-SVG-20010904/DTD/svg10.dtd">
<svg version="1.0" xmlns="http://www.w3.org/2000/svg"
 width="2048.000000pt" height="2048.000000pt" viewBox="0 0 2048.000000 2048.000000"
 preserveAspectRatio="xMidYMid meet">
<metadata>
Created by potrace 1.13, written by Peter Selinger 2001-2015
</metadata>
<g transform="translate(0.000000,2048.000000) scale(0.192120,-0.192120)"
fill="#000000" stroke="none">
<path d="M2547 10313 c-3 -10 -40 -160 -82 -333 l-77 -315 -314 -315 -313
-315 -161 -329 -160 -329 2 -1141 3 -1141 23 -50 c15 -33 55 -82 121 -146 78
-76 106 -98 144 -108 66 -19 172 -11 225 17 l43 22 -1 -577 c-2 -477 1 -604
14 -728 64 -581 280 -1146 613 -1603 72 -99 77 -104 106 -98 16 3 421 6 898 6
l869 0 -2 211 -3 211 -75 28 c-173 62 -420 202 -607 341 -125 94 -377 346
-470 470 -262 351 -415 714 -489 1159 -16 94 -18 210 -21 1078 l-4 972 33 0
c50 0 208 36 309 70 436 146 754 471 927 945 48 132 48 132 4 140 -20 3 -207
45 -415 92 l-378 86 -327 -324 c-357 -354 -386 -377 -579 -451 -82 -31 -82
-31 -88 -72 -3 -23 -50 -414 -105 -871 -113 -943 -113 -941 -135 -988 -23 -50
-55 -81 -68 -68 -18 18 -20 123 -3 205 9 44 57 410 106 815 49 405 94 768 100
806 24 160 63 217 205 294 148 81 189 115 450 371 144 140 283 270 310 288 64
42 116 55 195 49 62 -5 60 -4 -50 24 l-115 30 -265 -267 c-146 -146 -297 -294
-336 -328 -86 -73 -210 -146 -315 -183 l-77 -27 -11 -106 c-7 -58 -57 -473
-111 -922 -105 -871 -106 -877 -168 -941 -15 -16 -40 -35 -56 -44 -26 -14 -30
-13 -51 7 -13 12 -44 63 -69 114 l-46 91 2 1130 3 1130 102 203 c145 289 176
331 435 598 304 312 361 392 412 579 56 202 67 232 110 278 l25 27 291 0 c187
0 290 -4 290 -10 0 -5 9 -10 20 -10 11 0 20 -4 20 -9 0 -5 12 -12 28 -16 15
-3 35 -14 46 -23 10 -9 19 -16 20 -14 0 2 14 -1 29 -7 16 -6 50 -11 76 -11
l48 0 7 -86 c4 -48 6 -186 5 -308 l-2 -221 37 -6 c20 -3 35 -3 33 0 -44 81
-47 100 -47 285 0 175 1 184 25 233 14 28 32 54 40 57 13 5 15 -36 15 -294 0
-165 2 -300 5 -300 28 0 761 -176 794 -191 28 -12 82 -57 148 -123 134 -135
158 -182 158 -311 0 -78 -4 -97 -28 -147 -52 -106 -153 -183 -258 -195 -27 -3
-49 -4 -49 -1 0 30 34 77 93 130 77 69 121 138 131 203 7 39 6 39 -14 -12 -46
-115 -170 -207 -295 -219 -48 -5 -97 2 -249 35 -104 23 -191 39 -193 37 -2 -2
9 -7 24 -10 40 -10 100 -52 108 -75 5 -16 34 -26 155 -55 82 -20 168 -36 192
-36 42 -1 45 -3 123 -96 366 -438 912 -787 1565 -1001 436 -143 997 -241 1490
-262 l155 -6 0 -815 c0 -914 0 -908 -75 -1205 -167 -657 -601 -1220 -1205
-1563 -104 -58 -198 -103 -305 -142 l-75 -28 -3 -211 -2 -211 869 0 c477 0
882 -3 898 -6 29 -6 34 -1 94 80 99 133 192 286 278 456 160 315 258 612 316
954 44 260 48 356 46 954 l-3 563 44 -23 c53 -28 159 -36 226 -17 38 10 65 31
144 109 64 63 105 113 120 146 l23 49 3 1142 2 1141 -160 329 -161 328 -313
315 -314 315 -77 315 c-42 173 -79 323 -82 333 -4 16 -39 17 -559 17 l-554 0
0 -166 c0 -129 -3 -165 -12 -161 -7 3 -67 30 -133 60 -772 351 -1681 355
-2472 10 l-112 -49 -93 12 c-103 14 -384 17 -466 5 l-54 -8 4 149 3 148 -557
0 c-522 0 -557 -1 -561 -17z m5321 -247 c64 -33 94 -89 141 -264 58 -213 115
-295 425 -611 137 -140 251 -266 279 -308 26 -39 93 -164 149 -279 l103 -209
3 -1126 2 -1127 -35 -66 c-45 -85 -78 -138 -97 -153 -17 -14 -57 3 -100 44
-60 58 -62 67 -173 986 -57 474 -106 890 -110 923 l-7 61 -41 12 c-83 25 -243
111 -322 175 -44 35 -203 188 -354 341 l-274 277 -116 -29 -115 -29 89 0 c139
0 140 0 510 -364 221 -218 273 -260 420 -340 140 -77 180 -134 204 -290 6 -36
49 -382 96 -770 47 -388 93 -745 102 -795 31 -176 27 -283 -12 -269 -8 3 -28
34 -44 68 -25 49 -33 87 -45 196 -17 149 -192 1600 -201 1666 -6 41 -8 42 -68
64 -196 71 -253 115 -609 469 l-317 315 -598 -138 c-666 -154 -651 -152 -770
-97 -76 36 -132 91 -169 167 -26 53 -29 69 -29 154 0 85 3 101 29 150 38 72
217 253 277 279 35 15 288 76 777 186 l22 5 0 306 c0 278 1 305 16 293 8 -7
25 -31 37 -53 20 -37 22 -58 25 -233 3 -187 3 -195 -21 -246 l-24 -53 36 6 36
6 -4 136 c-2 75 0 211 4 301 l7 165 42 0 c44 0 88 17 141 52 17 11 42 26 58
32 15 7 27 16 27 20 0 4 128 8 285 8 226 0 292 -3 313 -14z m-2093 -56 c275
-18 524 -66 770 -149 l110 -37 3 -152 c2 -150 2 -152 -20 -157 -13 -3 -126
-30 -253 -59 -126 -30 -255 -64 -286 -75 -83 -31 -171 -92 -253 -174 -95 -94
-125 -135 -180 -241 l-46 -88 0 -154 c0 -84 4 -155 9 -158 5 -3 12 -18 16 -33
12 -52 87 -166 155 -234 50 -51 87 -78 146 -106 l79 -38 135 0 c133 1 139 2
490 83 617 144 624 146 683 115 18 -9 138 -121 268 -248 240 -237 347 -326
476 -397 40 -22 77 -48 82 -57 16 -29 29 -124 111 -801 85 -701 106 -856 117
-874 11 -17 4 -1235 -8 -1361 -46 -497 -195 -958 -433 -1341 -78 -125 -113
-160 -178 -174 -38 -8 -221 -10 -628 -8 -588 3 -629 6 -617 41 2 7 63 48 137
92 351 213 648 493 872 820 234 344 390 730 458 1132 19 111 20 165 20 971 0
492 -4 852 -9 852 -5 0 -12 11 -15 25 -9 36 -108 137 -165 168 -54 30 -109 39
-376 62 -947 82 -1756 363 -2306 801 -232 185 -272 244 -215 318 31 41 68 117
96 195 19 55 22 78 18 180 -4 114 -4 117 -50 211 -83 171 -232 327 -382 400
-58 29 -124 47 -526 143 l-95 23 -3 105 -3 104 178 0 178 0 193 73 c371 140
655 197 1047 211 22 0 112 -4 200 -9z m-2145 -1683 l185 -42 3 -33 c4 -41 -30
-116 -96 -214 -162 -239 -385 -389 -722 -484 -52 -15 -113 -35 -135 -45 -40
-19 -123 -92 -180 -159 l-30 -35 0 -1085 0 -1085 47 -177 c89 -333 205 -595
393 -882 118 -181 295 -384 478 -551 100 -90 291 -230 412 -301 157 -92 171
-104 132 -126 -31 -18 -1182 -25 -1244 -7 -57 16 -107 69 -181 193 -172 289
-308 639 -367 941 -55 282 -58 320 -66 940 -5 325 -10 622 -11 660 -1 43 7
109 20 170 12 55 58 399 102 765 87 723 97 797 111 852 8 31 19 42 77 73 147
81 210 133 467 385 143 140 276 263 295 272 51 26 105 21 310 -25z M5896 8705
c8 -57 51 -131 96 -167 42 -33 125 -68 161 -68 16 1 12 4 -15 14 -103 37 -191
118 -228 210 -20 51 -21 51 -14 11z M5795 6160 c-29 -11 -47 -36 -47 -65 0
-56 110 -214 221 -317 318 -295 746 -196 991 229 45 79 49 100 20 131 -29 31
-61 28 -153 -18 -252 -124 -646 -127 -896 -7 -36 17 -77 37 -91 43 -14 7 -34
8 -45 4z M3680 6140 c-29 -29 -25 -54 20 -133 115 -199 278 -336 456 -382 75
-19 194 -19 268 0 168 44 348 197 455 386 35 63 40 108 13 132 -28 26 -59 21
-147 -23 -257 -127 -653 -127 -912 0 -91 45 -124 49 -153 20z M4983 5170 c-65
-39 -85 -105 -54 -175 16 -36 29 -50 63 -65 40 -18 67 -20 338 -20 271 0 298
2 338 20 77 35 103 138 51 204 -43 55 -52 56 -391 56 -293 0 -315 -1 -345 -20z
M5155 4530 c-146 -20 -263 -64 -332 -124 -50 -43 -93 -129 -93 -185 0 -48 32
-127 68 -164 111 -116 388 -185 640 -159 316 33 492 147 492 318 0 145 -111
246 -325 294 -102 24 -350 35 -450 20z m420 -60 c112 -29 196 -71 249 -123
113 -113 73 -237 -105 -326 -117 -59 -205 -76 -389 -76 -179 0 -266 16 -378
69 -214 103 -239 261 -59 377 65 42 183 83 282 99 96 15 308 4 400 -20z M2575
2799 c-198 -46 -364 -138 -518 -288 -147 -143 -247 -313 -304 -516 l-28 -100
-3 -782 -3 -783 3611 0 3611 0 -3 783 -3 782 -27 98 c-110 401 -426 713 -812
802 -37 9 -71 13 -75 10 -12 -13 -4 -121 12 -150 24 -48 55 -70 169 -123 129
-61 181 -95 272 -182 85 -81 151 -180 202 -302 l39 -93 3 -692 c3 -691 3 -693
-18 -693 -11 0 -20 -7 -20 -15 0 -13 -40 -15 -300 -15 -193 0 -300 -4 -300
-10 0 -5 -20 -10 -45 -10 -25 0 -45 -3 -45 -7 0 -5 -21 -17 -48 -27 -26 -10
-54 -24 -62 -31 -8 -7 -23 -15 -32 -18 -17 -6 -18 22 -18 498 l0 505 -140 0
-140 0 0 -505 c0 -476 -1 -504 -17 -498 -10 4 -20 9 -23 13 -8 10 -107 50
-124 50 -9 0 -16 5 -16 10 0 7 -690 10 -2050 10 -1360 0 -2050 -3 -2050 -10 0
-5 -5 -10 -11 -10 -6 0 -42 -15 -80 -34 l-69 -34 0 504 0 504 -140 0 -140 0 0
-505 0 -504 -72 37 c-40 20 -74 40 -76 45 -2 4 -12 7 -23 7 -10 0 -19 5 -19
10 0 6 -107 10 -300 10 -260 0 -300 2 -300 15 0 11 -11 15 -40 15 l-40 0 0
688 c0 777 -5 721 81 879 101 187 207 287 418 393 64 32 128 70 143 85 33 32
50 89 46 148 -3 47 -11 50 -73 36z M4503 2601 c5 -234 13 -274 82 -416 136
-281 430 -465 744 -465 393 0 736 279 815 662 11 53 16 132 16 252 0 160 -1
174 -17 171 -10 -2 -34 -6 -53 -9 -36 -6 -90 -45 -90 -65 0 -6 -4 -11 -8 -11
-5 0 -12 -53 -15 -117 -4 -73 -13 -141 -25 -178 -11 -33 -25 -79 -31 -101 -6
-23 -33 -75 -59 -116 -116 -177 -300 -271 -532 -272 -127 0 -203 18 -318 76
-140 69 -264 212 -294 337 -6 25 -17 66 -25 91 -8 25 -17 98 -20 163 -3 64 -9
117 -13 117 -4 0 -10 10 -14 23 -6 24 -43 43 -109 57 l-39 8 5 -207z"/>
</g>
</svg>
