<?xml version="1.0" standalone="no"?>
<!DOCTYPE svg PUBLIC "-//W3C//DTD SVG 20010904//EN"
 "http://www.w3.org/TR/2001/REC-SVG-20010904/DTD/svg10.dtd">
<svg version="1.0" xmlns="http://www.w3.org/2000/svg"
 width="2048.000000pt" height="2048.000000pt" viewBox="0 0 2048.000000 2048.000000"
 preserveAspectRatio="xMidYMid meet">
<metadata>
Created by potrace 1.13, written by Peter Selinger 2001-2015
</metadata>
<g transform="translate(0.000000,2048.000000) scale(0.192120,-0.192120)"
fill="#000000" stroke="none">
<path d="M3950 10319 c-326 -32 -665 -121 -954 -249 -108 -48 -114 -50 -161
-40 -97 20 -390 24 -525 6 -659 -87 -1220 -489 -1505 -1080 -101 -209 -150
-374 -180 -601 -13 -100 -15 -355 -15 -1848 0 -1061 4 -1784 10 -1867 47 -633
259 -1220 624 -1723 70 -98 71 -99 106 -93 19 3 423 6 898 6 l862 0 -2 212 -3
211 -55 19 c-85 29 -327 149 -433 216 -218 137 -438 329 -598 523 -245 296
-433 674 -514 1033 -60 269 -58 238 -62 1286 l-4 965 88 12 c192 27 424 115
596 229 133 88 298 253 389 389 168 252 288 603 304 893 3 53 8 104 10 112 3
8 22 -29 43 -82 173 -439 592 -895 1113 -1209 601 -363 1429 -590 2294 -627
l159 -7 3 -750 c3 -818 0 -907 -49 -1148 -78 -390 -249 -753 -508 -1074 -95
-118 -296 -315 -408 -401 -193 -146 -436 -285 -618 -351 l-80 -29 -3 -211 -2
-211 869 0 c477 0 882 -3 899 -6 24 -5 32 -2 41 14 6 11 37 461 72 1043 47
793 63 1116 68 1434 7 406 8 411 33 477 69 184 220 316 401 354 38 8 71 13 73
12 1 -2 8 -34 14 -72 13 -84 1 -109 -62 -127 -24 -6 -81 -23 -128 -38 l-85
-26 720 -3 720 -2 240 40 c132 22 265 42 297 46 l56 7 27 -56 c34 -73 81 -114
141 -123 60 -9 113 -3 444 51 310 49 365 56 385 48 20 -7 19 -37 -2 -55 -50
-44 -139 -76 -1042 -379 -400 -134 -520 -178 -582 -214 -161 -95 -116 -90
-767 -93 -489 -3 -574 -5 -579 -18 -3 -9 -19 -14 -44 -14 -38 0 -72 -15 -114
-51 -11 -9 -29 -19 -40 -22 -11 -3 318 -5 732 -4 l752 2 -22 -25 c-12 -14 -25
-27 -28 -30 -3 -3 -14 -21 -25 -40 -10 -19 -23 -38 -29 -42 -7 -5 -11 -732
-13 -2138 -2 -1880 -4 -2130 -17 -2130 -11 0 -15 -11 -15 -40 0 -33 -3 -40
-20 -40 -11 0 -20 -7 -20 -15 0 -13 -86 -15 -715 -15 -470 0 -715 -3 -715 -10
0 -5 -20 -10 -44 -10 -24 0 -46 -3 -48 -7 -4 -10 -130 -73 -146 -73 -9 0 -12
115 -12 500 l0 500 -140 0 -140 0 0 -504 0 -505 -57 30 c-32 16 -73 32 -90 35
-18 3 -33 10 -33 15 0 5 -861 9 -2050 9 -1360 0 -2050 -3 -2050 -10 0 -5 -5
-10 -11 -10 -6 0 -42 -16 -80 -35 l-69 -34 0 504 0 505 -140 0 -140 0 0 -505
0 -506 -72 38 c-40 21 -74 41 -76 46 -2 4 -12 7 -23 7 -10 0 -19 5 -19 10 0 6
-105 10 -295 10 -256 0 -295 2 -295 15 0 11 -12 15 -45 15 l-46 0 3 702 3 703
27 62 c42 98 118 221 176 285 80 86 162 144 309 215 81 40 142 76 157 94 29
35 48 97 44 142 -3 32 -4 32 -53 30 -28 -1 -89 -14 -135 -29 -159 -50 -295
-131 -420 -251 -170 -161 -267 -332 -327 -573 -14 -57 -17 -166 -20 -842 l-4
-778 4031 0 4031 0 -1 2362 -1 2363 845 281 c909 303 918 307 1022 411 60 59
79 106 71 174 -15 126 -119 227 -242 236 -32 3 -209 -23 -495 -71 -245 -41
-456 -77 -469 -78 -20 -3 -25 3 -37 50 -19 73 -39 108 -93 161 -66 66 -128 93
-226 98 -71 4 -124 -5 -465 -76 l-384 -81 -323 0 -323 0 0 654 c0 380 -4 697
-10 757 -108 1072 -759 1998 -1731 2463 -290 138 -584 225 -919 271 -139 19
-528 27 -660 14z m685 -317 c400 -62 739 -182 1060 -375 442 -265 797 -641
1020 -1082 119 -233 183 -418 240 -687 l25 -118 0 -729 0 -730 -54 -31 c-30
-17 -100 -73 -156 -125 -56 -52 -103 -95 -105 -95 -1 0 -12 18 -24 40 -20 39
-21 53 -21 465 0 277 -3 425 -10 425 -5 0 -10 9 -10 20 0 11 -4 20 -8 20 -4 0
-13 15 -20 34 -16 43 -109 132 -166 157 -26 11 -87 23 -148 29 -56 5 -177 17
-268 25 -1000 95 -1826 413 -2400 927 -172 153 -288 293 -454 546 -110 168
-197 268 -255 291 -28 12 -37 12 -66 -2 -98 -47 -153 -143 -219 -387 -76 -278
-128 -404 -234 -562 -177 -263 -383 -409 -717 -509 -77 -23 -157 -50 -178 -61
-45 -23 -177 -152 -177 -173 0 -8 -4 -15 -10 -15 -7 0 -10 -345 -10 -1014 0
-972 1 -1019 20 -1133 107 -625 457 -1231 950 -1647 161 -135 287 -221 474
-323 101 -55 139 -84 125 -98 -21 -21 -167 -25 -735 -23 -604 3 -620 3 -654
24 -64 37 -156 179 -285 439 -126 255 -220 554 -264 847 -21 135 -21 161 -21
2082 0 1942 0 1947 21 2044 73 336 265 642 544 867 199 160 405 263 655 330
171 45 297 57 579 53 l256 -3 110 42 c259 97 318 117 462 154 133 34 348 71
483 83 123 11 519 -3 645 -22z m1785 -6452 c-16 -298 -25 -378 -49 -425 -12
-21 -21 -45 -21 -52 0 -10 -117 -13 -602 -12 -558 0 -687 4 -705 23 -14 13 14
41 68 70 273 144 480 296 689 505 216 216 350 398 505 681 37 69 79 145 94
170 l26 45 3 -395 c2 -217 -2 -492 -8 -610z M2754 6710 c-91 -28 -183 -129
-198 -217 -12 -78 -7 -357 9 -410 19 -65 85 -139 150 -169 137 -64 310 3 373
145 24 55 30 379 8 455 -34 115 -132 195 -249 202 -34 2 -76 -1 -93 -6z m104
-412 l-3 -153 -30 0 -30 0 -3 153 -3 152 36 0 36 0 -3 -152z M4969 6706 c-84
-30 -140 -82 -177 -164 -14 -31 -17 -70 -17 -237 0 -188 1 -203 23 -250 48
-104 139 -165 248 -165 114 0 197 48 250 142 29 53 29 54 32 245 4 242 -4 281
-82 358 -77 77 -184 105 -277 71z m116 -411 l0 -150 -35 0 -35 0 -3 140 c-1
76 0 145 3 153 3 8 17 12 37 10 l33 -3 0 -150z M3595 5171 c-90 -54 -90 -183
-1 -237 28 -17 58 -19 331 -22 258 -3 305 -1 342 13 108 41 122 177 24 242
-34 23 -38 23 -350 23 -290 0 -318 -2 -346 -19z M2841 4198 c23 -44 111 -148
172 -204 265 -240 645 -356 1057 -323 357 29 644 156 851 376 61 64 129 153
129 167 0 3 -500 6 -1110 6 l-1111 0 12 -22z m1733 -164 c23 -9 20 -21 -11
-51 -104 -96 -437 -173 -688 -158 -152 8 -224 20 -340 56 -114 36 -178 66
-217 102 -31 28 -35 43 -15 50 18 8 1252 8 1271 1z M3110 2611 c0 -217 34
-351 128 -501 208 -335 627 -474 1001 -334 206 77 383 250 469 455 46 112 62
207 62 374 0 133 -1 145 -18 145 -10 0 -23 -5 -30 -12 -7 -7 -12 -9 -12 -4 0
4 -7 1 -15 -8 -8 -8 -15 -19 -15 -25 0 -6 -7 -8 -15 -5 -13 5 -15 -10 -15
-104 0 -82 -5 -126 -20 -174 -11 -34 -20 -70 -20 -79 0 -8 -18 -52 -39 -96
-57 -118 -182 -243 -301 -302 -118 -58 -204 -74 -365 -69 -110 4 -143 9 -215
33 -289 98 -470 366 -470 695 0 86 -2 101 -14 91 -11 -9 -15 -5 -20 20 -3 16
-10 28 -15 24 -5 -3 -12 -1 -16 5 -3 5 -15 10 -26 10 -18 0 -19 -8 -19 -139z"/>
</g>
</svg>
