<?xml version="1.0" standalone="no"?>
<!DOCTYPE svg PUBLIC "-//W3C//DTD SVG 20010904//EN"
 "http://www.w3.org/TR/2001/REC-SVG-20010904/DTD/svg10.dtd">
<svg version="1.0" xmlns="http://www.w3.org/2000/svg"
 width="2048.000000pt" height="2048.000000pt" viewBox="0 0 2048.000000 2048.000000"
 preserveAspectRatio="xMidYMid meet">
<metadata>
Created by potrace 1.13, written by Peter Selinger 2001-2015
</metadata>
<g transform="translate(0.000000,2048.000000) scale(0.192120,-0.192120)"
fill="#000000" stroke="none">
<path d="M4278 10315 c-667 -91 -1225 -585 -1393 -1232 -57 -218 -56 -168 -52
-2159 3 -2008 -1 -1880 62 -2099 55 -190 167 -374 298 -489 74 -65 214 -154
289 -185 l53 -21 23 -117 c48 -245 169 -549 305 -770 120 -192 298 -394 455
-513 67 -51 72 -58 72 -92 0 -30 7 -44 38 -72 193 -179 358 -264 607 -312 127
-25 453 -25 580 0 240 46 373 111 568 274 73 62 77 67 77 106 0 39 3 44 62 86
94 68 274 252 364 373 194 258 343 595 408 919 l23 110 71 33 c290 135 492
369 576 670 64 225 59 81 63 2094 3 1597 2 1850 -12 1951 -98 756 -687 1346
-1442 1445 -157 21 -1943 20 -2095 0z m2002 -295 c372 -33 684 -179 930 -436
139 -146 242 -322 295 -508 l25 -88 -1 -1867 c0 -1427 -3 -1860 -12 -1841 -6
14 -16 30 -22 35 -6 6 -31 36 -55 68 -49 66 -105 117 -167 153 l-42 25 -1900
0 c-1875 0 -1900 0 -1939 -20 -48 -24 -182 -149 -202 -187 -8 -16 -23 -35 -32
-42 -10 -7 -18 -19 -18 -26 0 -8 -7 -19 -15 -26 -14 -11 -15 189 -13 1861 l3
1874 34 100 c99 295 278 522 549 699 188 122 431 204 669 225 134 12 1779 13
1913 1z m741 -4702 c0 -10 2 -10 6 0 3 9 39 12 128 12 l124 0 -6 -48 c-5 -45
-2 -53 40 -114 86 -126 123 -273 114 -453 -6 -128 -24 -203 -71 -300 -44 -89
-85 -130 -120 -121 -23 6 -26 12 -26 49 0 23 14 103 31 177 22 101 32 171 36
276 9 222 -13 353 -31 189 -35 -300 -157 -827 -213 -911 -7 -12 -25 -62 -38
-111 -45 -167 -176 -445 -299 -633 -179 -273 -420 -496 -670 -622 -104 -52
-285 -111 -411 -134 -136 -24 -432 -25 -562 -1 -332 62 -582 192 -821 429
-266 263 -441 572 -613 1075 -92 270 -156 553 -204 897 -8 60 -17 111 -19 113
-4 4 -13 -61 -22 -162 -8 -87 9 -254 42 -403 37 -175 31 -229 -28 -220 -51 7
-135 182 -158 328 -32 208 22 440 132 566 28 32 30 39 25 84 l-6 50 1819 0
c1449 0 1820 -3 1821 -12z m-2364 -2724 c285 -104 407 -128 663 -128 256 -1
388 22 627 109 129 47 229 62 203 30 -19 -23 -244 -129 -335 -159 -162 -52
-250 -67 -440 -73 -212 -6 -356 13 -534 72 -158 53 -359 154 -346 175 11 19
64 10 162 -26z M3630 5228 c1 -78 24 -344 40 -461 118 -853 434 -1457 910
-1741 414 -246 999 -260 1431 -35 484 254 818 827 958 1649 36 213 69 590 50
590 -17 0 -88 -79 -109 -122 -13 -28 -29 -103 -45 -223 -32 -232 -35 -248 -89
-440 -14 -49 -35 -137 -47 -195 -11 -58 -36 -143 -55 -190 -37 -95 -137 -286
-225 -430 -32 -52 -78 -134 -103 -182 -113 -220 -198 -306 -383 -389 -177 -79
-366 -113 -633 -113 -303 -1 -490 37 -694 142 -145 74 -216 150 -318 342 -26
47 -71 121 -101 166 -118 176 -246 480 -315 749 -44 172 -72 331 -112 633 -11
82 -28 125 -75 186 -31 40 -85 81 -85 64z M4420 5161 c-70 -23 -114 -59 -144
-119 -15 -28 -17 -60 -14 -207 l3 -173 30 -44 c88 -124 269 -122 353 4 26 41
27 45 30 214 3 155 1 176 -16 211 -23 44 -53 74 -99 97 -40 20 -109 28 -143
17z M6117 5156 c-56 -20 -103 -60 -126 -109 -19 -38 -21 -61 -21 -199 0 -151
1 -157 28 -209 82 -157 293 -151 378 11 23 44 32 267 15 347 -17 73 -75 138
-144 158 -61 18 -81 18 -130 1z M5112 4247 c-40 -13 -88 -65 -101 -111 -17
-65 13 -141 72 -176 29 -18 51 -20 240 -20 230 0 246 3 291 62 31 41 40 78 32
124 -9 47 -68 111 -114 124 -48 13 -377 11 -420 -3z M4560 3472 c-47 -25 -83
-94 -75 -142 9 -48 27 -74 78 -109 139 -96 417 -151 758 -151 581 0 938 150
831 349 -40 74 -138 91 -216 38 -48 -33 -163 -70 -276 -88 -131 -22 -578 -19
-695 4 -120 24 -178 43 -251 83 -69 38 -104 42 -154 16z M4318 2584 c-52 -27
-98 -156 -98 -271 l0 -43 -159 0 -159 0 -11 44 c-12 47 -54 91 -98 102 -34 9
-1372 -204 -1401 -222 -35 -23 -62 -74 -62 -119 0 -22 9 -89 19 -150 17 -97
18 -112 5 -130 -121 -167 -202 -325 -258 -505 -70 -228 -95 -411 -99 -753 l-2
-207 1598 0 1597 0 0 555 c0 305 -4 555 -8 555 -5 0 -35 -17 -68 -39 -67 -43
-134 -112 -134 -137 0 -10 -5 -14 -15 -10 -13 5 -15 -31 -15 -289 0 -288 0
-295 -20 -295 -17 0 -20 -7 -20 -40 l0 -40 -1325 0 -1325 0 0 205 c0 230 11
302 76 487 64 184 67 202 60 327 l-7 114 30 -26 c17 -14 43 -28 58 -31 16 -4
156 14 313 39 157 25 458 73 670 106 211 33 397 67 413 75 60 32 77 92 58 205
-5 30 -12 76 -16 103 l-7 49 52 -46 c95 -86 155 -83 222 9 l33 46 7 -38 c22
-128 103 -268 228 -394 170 -171 361 -280 606 -346 88 -24 117 -27 269 -27
154 0 180 2 275 27 411 106 750 395 829 706 l18 72 22 -35 c30 -49 77 -87 108
-87 35 0 85 26 136 70 l43 38 -8 -56 c-4 -32 -10 -93 -13 -137 -6 -70 -4 -84
14 -113 12 -18 36 -39 53 -47 45 -21 1355 -227 1391 -219 15 3 41 17 58 31
l30 26 -7 -29 c-4 -16 -7 -78 -7 -139 0 -92 4 -125 28 -200 83 -267 85 -279
85 -532 l0 -233 -1325 0 -1325 0 0 40 c0 33 -3 40 -20 40 -20 0 -20 7 -20 290
0 187 -4 290 -10 290 -5 0 -10 10 -10 22 0 12 -19 40 -46 66 -45 43 -130 102
-146 102 -4 0 -8 -250 -8 -555 l0 -555 1598 0 1599 0 -4 78 c-1 42 -5 167 -7
277 -7 327 -61 576 -176 821 -48 102 -124 230 -163 271 l-20 22 23 141 c19
117 21 147 11 180 -13 45 -48 76 -100 89 -20 5 -330 56 -689 112 l-654 103
-36 -19 c-42 -23 -82 -77 -82 -111 l0 -24 -165 0 -165 0 0 43 c0 117 -47 244
-100 272 -44 23 -70 20 -70 -9 0 -13 -9 -55 -21 -92 -65 -211 -265 -357 -609
-446 -148 -39 -364 -49 -505 -25 -270 48 -492 150 -618 287 -66 70 -102 142
-117 233 -13 74 -26 82 -82 51z m820 -821 c22 -4 32 -11 32 -24 0 -31 -80 -36
-169 -10 -42 13 -83 28 -91 35 -8 6 -27 18 -42 26 -16 7 -28 19 -28 25 0 7 43
2 133 -17 72 -16 147 -31 165 -35z m679 45 c-3 -8 -6 -5 -6 6 -1 11 2 17 5 13
3 -3 4 -12 1 -19z m-17 -4 c0 -8 -4 -12 -10 -9 -5 3 -10 2 -10 -3 0 -13 -70
-49 -133 -67 -73 -21 -157 -13 -157 15 0 14 19 21 108 39 59 13 118 26 132 31
41 14 70 12 70 -6z"/>
</g>
</svg>
