<?xml version="1.0" standalone="no"?>
<!DOCTYPE svg PUBLIC "-//W3C//DTD SVG 20010904//EN"
 "http://www.w3.org/TR/2001/REC-SVG-20010904/DTD/svg10.dtd">
<svg version="1.0" xmlns="http://www.w3.org/2000/svg"
 width="2048.000000pt" height="2048.000000pt" viewBox="0 0 2048.000000 2048.000000"
 preserveAspectRatio="xMidYMid meet">
<metadata>
Created by potrace 1.13, written by Peter Selinger 2001-2015
</metadata>
<g transform="translate(0.000000,2048.000000) scale(0.192120,-0.192120)"
fill="#000000" stroke="none">
<path d="M4130 10323 c-189 -33 -432 -172 -553 -318 -126 -152 -173 -274 -188
-485 -12 -158 -27 -226 -70 -312 -41 -82 -69 -118 -218 -273 -132 -138 -201
-234 -231 -319 -60 -171 -49 -416 30 -667 16 -51 30 -100 30 -106 0 -8 -14
-13 -37 -13 -21 0 -423 63 -893 142 l-855 141 -59 -17 c-47 -14 -70 -29 -115
-74 -64 -64 -81 -106 -81 -198 0 -41 7 -75 24 -109 27 -58 98 -127 147 -144
39 -12 1708 -291 1746 -291 20 0 24 -4 18 -17 -49 -118 -59 -168 -59 -323 -1
-115 4 -177 17 -240 62 -289 219 -521 417 -618 134 -66 259 -76 415 -35 64 17
194 75 261 117 l41 25 11 -94 c15 -117 15 -462 1 -615 -13 -142 -50 -314 -95
-440 -96 -266 -375 -744 -595 -1021 -178 -224 -341 -373 -675 -615 -252 -183
-332 -250 -414 -346 -135 -160 -250 -398 -258 -539 -4 -73 -3 -77 26 -110 30
-34 32 -34 114 -34 102 0 211 35 433 137 175 81 229 92 292 60 84 -44 130
-127 233 -427 111 -325 185 -464 300 -568 142 -128 367 -168 602 -108 205 53
313 155 445 423 37 76 71 138 75 138 5 0 8 -13 8 -29 0 -16 17 -141 37 -278
l36 -248 6 -475 c6 -465 6 -476 28 -516 28 -53 74 -99 127 -127 58 -31 184
-31 241 0 54 29 109 88 134 143 20 43 21 64 21 511 l0 465 -50 345 c-28 189
-53 364 -57 388 -6 42 -5 43 18 36 47 -14 155 -76 224 -128 38 -28 164 -143
279 -255 115 -112 246 -230 290 -263 184 -138 349 -182 531 -144 251 53 405
255 405 531 0 194 -67 357 -222 537 -96 111 -105 160 -51 273 52 107 172 215
331 298 113 58 215 86 313 86 101 0 156 -20 228 -85 78 -70 132 -101 209 -120
67 -18 133 -11 190 19 45 24 99 87 129 151 26 56 28 69 28 185 0 105 -4 136
-24 195 -51 152 -128 266 -301 450 -194 206 -260 321 -260 453 0 88 31 153
107 222 50 46 90 72 236 154 63 36 162 130 218 206 24 33 53 63 64 65 23 5
1134 214 1183 222 18 3 32 1 32 -4 0 -21 83 -96 128 -115 92 -41 223 -19 295
50 47 45 541 661 561 700 11 21 21 66 24 103 4 56 1 75 -20 120 -34 74 -69
113 -130 143 -94 47 -235 30 -306 -37 -13 -12 -91 -106 -174 -209 -145 -182
-150 -187 -176 -177 -53 20 -138 9 -693 -96 -310 -59 -570 -108 -578 -108 -8
-1 -18 18 -27 53 -21 79 -61 139 -119 175 -45 28 -55 30 -139 29 -76 0 -104
-5 -171 -31 -44 -17 -190 -74 -325 -126 -614 -238 -1016 -349 -1316 -364 -214
-10 -368 27 -464 114 -57 51 -82 89 -112 169 -22 58 -22 71 -28 719 -3 363 -5
661 -4 663 1 1 21 -7 45 -18 60 -27 128 -26 164 2 33 26 64 91 65 136 0 21 5
32 14 32 20 0 380 -61 384 -65 2 -2 -134 -187 -302 -412 -169 -224 -318 -430
-331 -457 -34 -68 -35 -170 -1 -241 28 -60 99 -127 154 -143 103 -31 222 -2
288 69 17 19 222 288 455 599 432 576 458 616 459 701 2 225 -268 374 -852
469 -68 11 -143 20 -167 20 l-43 0 6 32 c3 17 39 101 80 187 105 222 122 286
135 527 22 395 -49 704 -222 959 -58 85 -191 220 -265 268 -63 42 -63 42 -40
56 13 8 53 44 89 80 101 100 113 163 44 240 -66 73 -262 141 -405 141 -130 0
-203 -38 -269 -140 l-37 -57 -39 35 c-204 178 -429 265 -605 235z m207 -321
c33 -11 118 -51 189 -91 209 -116 243 -120 376 -42 94 55 146 73 204 69 l49
-3 -2 -35 c-2 -19 -6 -61 -9 -93 -10 -97 25 -161 210 -382 87 -104 128 -163
161 -230 73 -149 75 -166 75 -558 0 -343 0 -345 -26 -423 -29 -90 -49 -126
-94 -169 l-32 -30 -116 2 c-157 4 -349 21 -373 33 -10 6 -19 17 -19 24 0 8 32
51 71 97 123 146 212 311 259 482 28 102 29 466 1 572 -29 111 -76 201 -138
267 -115 120 -162 126 -353 40 -169 -75 -292 -102 -480 -102 -130 -1 -233 -23
-325 -70 -139 -70 -255 -191 -334 -347 -62 -123 -82 -194 -88 -314 -5 -93 -3
-114 17 -165 46 -123 125 -253 228 -373 94 -112 89 -114 -293 -118 -331 -5
-334 -4 -366 57 -17 30 -19 59 -19 233 0 157 3 206 15 230 8 18 67 91 131 162
178 201 259 322 315 476 34 93 44 141 59 277 21 200 78 310 209 406 161 118
352 163 498 118z m690 -653 c70 -140 88 -226 87 -414 0 -145 -3 -168 -28 -250
-46 -151 -108 -256 -211 -361 -59 -60 -114 -104 -159 -129 l-68 -38 5 -41 c3
-23 11 -96 18 -163 l12 -121 146 -6 c427 -18 651 -33 774 -52 34 -5 37 -8 37
-38 0 -60 28 -132 64 -164 42 -37 62 -43 256 -83 184 -37 328 -79 413 -119 55
-26 63 -34 75 -70 22 -71 3 -103 -256 -443 -274 -359 -399 -527 -430 -578 -29
-48 -104 -117 -137 -125 -34 -8 -75 10 -75 34 0 24 50 94 84 119 50 35 368
459 445 592 46 80 81 171 81 212 0 91 -156 248 -281 284 -82 23 -184 23 -227
1 -35 -18 -66 -71 -77 -129 -8 -43 -5 -43 -169 -26 -59 6 -110 8 -113 5 -3 -3
-1 -27 5 -53 23 -107 23 -123 -3 -133 -14 -5 -30 -18 -36 -29 -12 -18 -15 -18
-63 -4 -171 50 -316 217 -376 434 -11 41 -27 123 -35 183 -15 103 -20 125 -29
115 -2 -2 -27 -51 -56 -108 -29 -57 -75 -131 -102 -164 -202 -252 -412 -190
-643 191 -21 34 -40 60 -42 58 -3 -2 3 -33 11 -68 84 -339 72 -568 -39 -753
-19 -32 -35 -59 -35 -61 0 -2 13 -4 30 -4 21 0 42 12 73 43 58 56 88 134 119
315 7 40 16 62 25 62 7 0 13 7 13 16 0 11 5 14 18 9 142 -58 229 -67 333 -35
41 12 76 25 79 29 3 4 34 26 69 49 95 63 102 60 175 -71 74 -131 96 -159 189
-238 39 -35 74 -69 76 -78 2 -9 12 -22 22 -29 15 -10 19 -26 19 -67 0 -30 5
-57 10 -60 6 -4 10 -56 10 -123 0 -149 15 -272 46 -391 28 -104 27 -120 -20
-244 -23 -60 -26 -83 -26 -190 0 -122 8 -171 37 -237 54 -124 110 -207 201
-295 308 -303 828 -252 1977 192 387 150 397 151 503 66 41 -34 42 -35 42 -97
0 -103 -28 -146 -187 -284 -74 -64 -185 -153 -246 -196 -161 -114 -291 -250
-351 -364 l-46 -90 0 -120 c0 -110 2 -125 30 -193 61 -147 137 -263 286 -432
200 -227 214 -255 214 -416 0 -96 -3 -120 -15 -125 -26 -10 -98 19 -203 81
-134 79 -199 97 -334 91 -177 -9 -367 -88 -536 -224 -129 -104 -248 -259 -296
-386 -14 -35 -17 -68 -14 -140 4 -108 26 -163 124 -309 31 -46 69 -109 85
-140 28 -55 29 -60 29 -218 0 -172 -5 -194 -52 -238 -55 -52 -171 -74 -273
-53 -132 27 -246 105 -471 322 -246 237 -354 322 -478 378 -90 41 -138 45
-216 20 -36 -11 -110 -29 -165 -40 -136 -25 -188 -47 -303 -123 -133 -90 -234
-186 -340 -325 -106 -138 -130 -162 -197 -195 -71 -36 -160 -51 -268 -45 -213
11 -295 102 -432 476 -123 338 -147 384 -269 506 -91 91 -165 129 -258 134
-78 5 -151 -15 -319 -83 -120 -50 -145 -51 -142 -10 5 70 134 203 358 369 356
265 445 338 586 483 169 174 283 318 432 546 293 446 470 832 527 1150 17 96
20 155 20 443 0 305 -2 336 -19 377 -29 68 -98 111 -194 119 -26 3 -30 10 -63
107 -42 126 -114 267 -171 338 l-43 53 39 20 c22 11 42 24 45 28 3 5 -15 60
-40 122 -65 167 -96 265 -103 329 l-6 56 -245 -4 c-135 -2 -304 0 -376 4
l-132 7 -6 55 c-11 97 -53 148 -151 181 -33 12 -332 66 -665 122 -675 112
-692 115 -737 138 -39 19 -42 35 -10 49 44 20 71 17 737 -93 661 -108 622
-102 712 -110 84 -7 128 -1 128 20 0 7 11 18 23 23 28 13 53 62 63 121 l7 42
594 0 595 0 -5 23 c-3 12 -13 93 -23 179 -16 139 -20 157 -38 166 -50 23 -149
106 -201 169 -63 76 -155 250 -155 293 0 49 50 201 92 283 50 95 128 183 195
220 81 43 153 57 304 57 76 0 173 5 216 11 162 22 332 94 413 175 19 19 39 33
45 31 5 -2 29 -41 52 -88z m-1596 -2330 c41 -41 82 -148 89 -234 8 -87 14
-107 71 -235 46 -104 53 -131 45 -174 -5 -28 -13 -35 -49 -47 -24 -8 -82 -14
-137 -14 -82 0 -103 4 -151 26 -77 36 -132 89 -181 173 -67 115 -78 163 -78
350 0 90 3 166 7 169 3 4 87 7 185 7 168 0 179 -1 199 -21z m6365 -1050 c-3
-17 -16 -45 -28 -62 -42 -59 -262 -332 -308 -381 -72 -78 -148 -98 -204 -53
-48 39 -32 67 72 128 127 75 192 130 288 243 124 146 194 195 180 125z m-573
-231 c-141 -186 -163 -226 -163 -294 0 -36 0 -36 -25 -20 -13 9 -50 23 -80 31
-61 16 -15 22 -590 -81 -218 -38 -221 -39 -379 -134 -37 -22 -39 -23 -34 -4 3
10 17 58 31 106 14 47 29 115 33 150 4 34 8 66 11 70 2 4 27 -9 56 -30 70 -50
88 -49 507 28 l345 63 140 63 c147 66 163 72 148 52z m-4366 -3473 l42 -7 -41
-31 c-69 -53 -83 -92 -83 -232 0 -130 1 -133 89 -267 l18 -27 -39 11 c-50 14
-130 5 -189 -21 -26 -12 -49 -19 -51 -17 -2 2 3 31 11 64 9 33 16 82 16 108 0
87 -64 160 -160 185 l-49 12 21 40 c28 56 110 135 166 159 49 22 139 38 182
32 14 -1 44 -6 67 -9z"/>
</g>
</svg>
