<?xml version="1.0" standalone="no"?>
<!DOCTYPE svg PUBLIC "-//W3C//DTD SVG 20010904//EN"
 "http://www.w3.org/TR/2001/REC-SVG-20010904/DTD/svg10.dtd">
<svg version="1.0" xmlns="http://www.w3.org/2000/svg"
 width="2048.000000pt" height="2048.000000pt" viewBox="0 0 2048.000000 2048.000000"
 preserveAspectRatio="xMidYMid meet">
<metadata>
Created by potrace 1.13, written by Peter Selinger 2001-2015
</metadata>
<g transform="translate(0.000000,2048.000000) scale(0.192120,-0.192120)"
fill="#000000" stroke="none">
<path d="M4820 10259 c-168 -15 -357 -90 -501 -198 -392 -296 -715 -959 -863
-1771 -65 -355 -60 -138 -63 -2780 l-3 -2405 -158 3 c-183 4 -271 -10 -372
-60 -88 -43 -205 -160 -248 -248 -59 -119 -62 -155 -62 -680 l1 -474 -43 -32
c-102 -74 -174 -179 -215 -310 -15 -49 -18 -94 -18 -274 0 -235 7 -281 57
-388 34 -73 126 -176 199 -223 28 -17 80 -44 117 -58 l67 -26 2863 -3 c2548
-2 2870 -1 2929 13 186 43 333 173 402 355 23 61 25 80 29 290 3 182 1 238
-12 294 -32 137 -111 256 -215 327 l-50 34 -1 487 c0 313 -4 506 -11 540 -33
158 -148 303 -299 376 -107 52 -185 65 -376 60 l-144 -3 -2 2375 -3 2375 -28
100 c-106 376 -349 726 -903 1294 -300 308 -551 507 -871 689 -399 228 -865
352 -1203 321z m395 -234 c278 -45 584 -174 883 -373 460 -304 970 -863 1177
-1287 98 -201 135 -339 135 -497 0 -228 -103 -391 -310 -491 -129 -63 -233
-87 -405 -94 -416 -17 -877 129 -1290 408 -246 167 -531 448 -715 705 -248
347 -380 694 -380 993 0 131 19 220 65 316 78 164 229 276 430 320 81 18 300
18 410 0z m-1100 -622 c3 -10 11 -56 16 -103 24 -207 69 -369 164 -579 219
-487 647 -963 1133 -1260 158 -97 491 -224 726 -277 290 -66 599 -80 829 -39
77 15 236 89 302 143 67 53 159 150 189 197 18 27 45 70 60 94 19 29 31 40 36
32 4 -7 11 -11 16 -9 5 2 10 -905 12 -2159 2 -2158 2 -2163 -18 -2163 -11 0
-20 -7 -20 -15 0 -13 -39 -15 -290 -15 -187 0 -290 -4 -290 -10 0 -5 -17 -10
-38 -10 -25 0 -67 -15 -125 -45 -48 -25 -90 -45 -92 -45 -3 0 -5 848 -5 1885
l0 1885 -49 0 c-75 0 -360 38 -501 66 -149 31 -356 97 -474 153 l-86 40 0
-1983 c0 -1091 -3 -1998 -6 -2015 l-7 -31 -56 32 c-31 17 -57 35 -59 40 -2 4
-19 10 -38 14 -19 3 -34 10 -34 15 0 5 -359 9 -845 9 -744 0 -845 2 -845 15 0
11 -11 15 -40 15 l-40 0 0 2413 0 2413 24 135 c68 382 182 751 307 1000 44 88
81 146 107 165 23 18 29 17 37 -3z m1829 -2558 c175 -50 323 -80 478 -98 l103
-12 3 -1708 2 -1707 -375 0 -375 0 0 1785 c0 982 1 1785 3 1785 2 0 74 -20
161 -45z m1834 -3741 c16 -5 22 -14 22 -33 1 -43 36 -109 71 -130 36 -22 60
-27 201 -41 138 -14 200 -40 274 -115 48 -49 66 -76 87 -134 l27 -72 0 -320
c0 -275 2 -320 15 -325 10 -4 15 -20 15 -48 0 -41 4 -50 53 -139 15 -26 27
-49 27 -51 0 -2 -32 3 -72 11 -101 19 -5764 15 -5817 -4 -19 -7 -36 -11 -38
-9 -2 2 13 32 33 67 25 44 38 81 42 117 2 28 8 52 13 52 5 0 9 134 9 299 0
320 5 371 46 457 67 141 180 203 399 219 50 4 107 11 128 18 45 12 93 66 102
111 11 56 16 65 33 69 26 7 4304 8 4330 1z m688 -1574 c58 -33 163 -136 199
-196 24 -38 24 -43 25 -297 0 -283 -2 -294 -60 -361 -39 -44 -105 -79 -178
-95 -75 -16 -5615 -16 -5695 0 -87 18 -166 66 -209 130 l-37 54 -1 261 0 262
44 58 c59 80 163 179 206 197 31 14 375 15 2845 16 l2810 1 51 -30z"/>
</g>
</svg>
