<?xml version="1.0" standalone="no"?>
<!DOCTYPE svg PUBLIC "-//W3C//DTD SVG 20010904//EN"
 "http://www.w3.org/TR/2001/REC-SVG-20010904/DTD/svg10.dtd">
<svg version="1.0" xmlns="http://www.w3.org/2000/svg"
 width="2048.000000pt" height="2048.000000pt" viewBox="0 0 2048.000000 2048.000000"
 preserveAspectRatio="xMidYMid meet">
<metadata>
Created by potrace 1.13, written by Peter Selinger 2001-2015
</metadata>
<g transform="translate(0.000000,2048.000000) scale(0.192120,-0.192120)"
fill="#000000" stroke="none">
<path d="M4094 10315 c-185 -40 -413 -179 -524 -318 -122 -154 -166 -270 -181
-477 -12 -158 -27 -226 -70 -312 -41 -82 -69 -118 -218 -273 -227 -237 -282
-364 -268 -620 8 -139 19 -199 65 -357 l37 -128 599 0 598 0 -5 23 c-3 12 -13
92 -22 177 -10 85 -21 157 -26 158 -38 15 -164 120 -212 177 -64 77 -157 251
-157 295 0 49 50 201 92 283 50 95 128 183 195 220 81 43 153 57 304 57 76 0
173 5 216 11 164 23 329 93 416 177 38 36 39 37 54 17 28 -36 83 -166 106
-248 19 -70 22 -106 21 -242 -1 -144 -3 -169 -28 -250 -46 -151 -107 -256
-211 -361 -59 -60 -114 -104 -159 -129 l-68 -38 5 -41 c3 -23 11 -96 18 -163
l12 -121 146 -6 c337 -14 573 -28 686 -41 66 -8 125 -15 131 -15 6 0 16 17 22
38 7 21 37 90 68 153 106 214 129 304 143 544 23 391 -49 705 -222 960 -58 85
-191 220 -265 268 -63 42 -63 42 -40 56 13 8 53 44 89 80 101 100 113 163 44
240 -66 73 -262 141 -405 141 -130 0 -203 -38 -269 -140 l-37 -57 -39 35 c-22
19 -71 57 -110 84 -189 135 -359 180 -531 143z m214 -300 c39 -9 105 -36 157
-65 271 -151 297 -155 440 -74 107 60 144 74 200 74 57 0 72 -18 56 -69 -6
-21 -11 -65 -11 -98 0 -88 31 -143 185 -328 130 -156 146 -178 183 -250 71
-142 72 -148 72 -562 0 -349 -1 -378 -20 -434 -33 -97 -78 -158 -128 -174 -12
-3 -111 -1 -220 6 -263 16 -283 29 -196 131 95 111 182 265 236 418 l33 95 3
234 c3 198 1 244 -14 300 -42 157 -123 283 -228 356 -81 56 -114 53 -291 -23
-168 -73 -240 -89 -461 -101 -93 -6 -196 -17 -228 -26 -181 -48 -363 -209
-465 -412 -62 -123 -82 -194 -88 -314 -5 -92 -3 -114 16 -163 45 -120 116
-242 203 -349 50 -61 61 -100 31 -112 -30 -13 -575 -18 -605 -6 -16 6 -36 27
-48 50 -18 36 -20 59 -20 222 0 223 -3 215 162 400 244 273 341 470 364 740 8
95 29 180 60 241 50 100 197 216 336 268 112 41 185 48 286 25z M1076 8094
c-64 -20 -156 -110 -174 -170 -20 -67 -15 -152 12 -209 27 -58 98 -128 147
-144 26 -8 1507 -257 1697 -285 l42 -6 0 32 c0 87 -49 155 -127 178 -21 6
-328 60 -683 120 -355 60 -669 114 -699 121 -38 8 -64 21 -87 45 -34 34 -44
64 -21 64 7 0 18 9 25 20 8 14 23 20 46 20 18 0 336 -50 707 -111 371 -60 710
-113 754 -116 l81 -6 41 40 c24 24 46 55 52 79 16 56 14 64 -15 64 -14 0 -403
63 -864 140 -462 77 -849 140 -862 139 -13 0 -45 -7 -72 -15z M4731 7720 c-68
-165 -177 -306 -273 -356 -65 -33 -144 -33 -216 1 -94 44 -197 162 -310 355
-24 41 -42 66 -39 55 3 -11 17 -63 31 -115 102 -375 60 -664 -123 -847 l-42
-42 25 -17 c35 -22 84 -25 121 -7 99 50 162 138 216 299 19 57 42 108 55 121
22 20 26 21 76 7 102 -27 180 -15 300 47 43 21 86 39 96 39 30 0 67 -35 116
-109 54 -80 151 -175 230 -222 40 -24 56 -40 56 -56 0 -13 8 -24 20 -28 16 -5
20 -15 20 -51 0 -24 5 -44 10 -44 6 0 10 -42 10 -107 0 -60 7 -187 17 -284 16
-166 16 -182 0 -262 -19 -98 -23 -348 -6 -412 20 -77 75 -187 130 -261 312
-423 818 -403 2074 83 328 127 378 140 440 111 25 -11 25 -13 25 -124 0 -110
-1 -113 -37 -185 -49 -95 -157 -203 -312 -312 -164 -114 -294 -248 -355 -365
l-46 -90 0 -120 c0 -110 2 -125 30 -193 61 -147 137 -263 286 -432 200 -227
214 -255 214 -416 0 -96 -3 -120 -15 -125 -26 -10 -98 19 -203 81 -134 79
-199 97 -334 91 -177 -9 -367 -88 -536 -224 -129 -104 -248 -259 -296 -386
-14 -35 -17 -68 -14 -140 4 -108 26 -163 124 -309 31 -46 69 -109 85 -140 28
-55 29 -60 29 -218 0 -172 -5 -194 -52 -238 -55 -52 -171 -74 -273 -53 -132
27 -249 107 -472 323 -245 236 -347 317 -488 383 -159 76 -420 72 -582 -9
-126 -64 -279 -230 -470 -512 -52 -77 -96 -117 -158 -148 -71 -36 -160 -51
-268 -45 -213 11 -295 102 -432 476 -123 338 -147 384 -269 506 -91 91 -165
129 -258 134 -78 5 -151 -15 -319 -83 -120 -50 -145 -51 -142 -10 5 70 134
203 358 369 356 265 445 338 586 483 169 174 283 318 432 546 293 446 470 832
527 1150 17 96 20 155 20 451 l0 341 -30 52 c-37 64 -112 113 -175 113 l-41 0
-28 86 c-37 114 -117 272 -172 339 l-44 55 43 21 c23 12 43 23 45 24 1 1 -23
69 -54 151 -69 184 -85 234 -93 303 l-6 53 -382 2 -382 1 -15 -35 c-41 -94
-51 -154 -51 -305 0 -108 5 -174 18 -235 62 -289 219 -521 417 -618 134 -66
259 -76 415 -35 64 17 194 75 261 117 l41 25 11 -94 c15 -117 15 -462 1 -615
-13 -142 -50 -314 -95 -440 -96 -266 -375 -744 -595 -1021 -178 -224 -341
-373 -675 -615 -252 -183 -332 -250 -414 -346 -135 -160 -250 -398 -258 -539
-4 -73 -3 -77 26 -110 30 -34 32 -34 114 -34 102 0 211 35 433 137 175 81 229
92 292 60 84 -44 130 -127 233 -427 81 -237 139 -368 204 -460 126 -176 295
-254 521 -241 237 13 397 92 510 250 25 35 79 131 120 214 117 233 180 306
299 346 58 20 190 23 262 5 73 -17 200 -81 279 -141 38 -29 164 -144 279 -256
115 -112 246 -230 290 -263 184 -138 349 -182 531 -144 251 53 405 255 405
531 0 194 -67 357 -222 537 -96 111 -105 160 -51 273 52 107 172 215 331 298
113 58 215 86 313 86 101 0 156 -20 228 -85 78 -70 132 -101 209 -120 67 -18
133 -11 190 19 45 24 99 87 129 151 26 56 28 69 28 185 0 105 -4 136 -24 195
-51 152 -128 266 -301 450 -194 206 -260 321 -260 453 0 88 31 153 107 222 50
45 91 72 235 154 64 36 158 125 219 207 49 65 53 68 102 74 73 10 1107 204
1135 213 23 7 22 9 -20 38 -62 45 -106 66 -166 80 -50 12 -72 9 -326 -36 -150
-27 -286 -52 -301 -56 -45 -11 -135 -66 -242 -146 -54 -41 -103 -78 -110 -81
-7 -4 6 30 27 75 59 127 91 246 97 368 9 177 -35 295 -132 355 -45 28 -55 30
-139 29 -76 0 -104 -5 -171 -31 -44 -17 -190 -74 -325 -126 -135 -52 -333
-125 -440 -161 -930 -317 -1390 -268 -1471 158 -5 27 -9 315 -9 640 l0 591
-67 13 c-196 37 -356 193 -432 419 -24 72 -51 227 -51 298 0 84 -13 82 -49 -5z
m-1317 -722 c33 -30 124 -214 132 -270 4 -24 15 -59 25 -78 87 -173 111 -249
91 -287 -7 -12 -34 -27 -64 -36 -215 -66 -397 10 -500 208 -58 112 -68 160
-68 325 0 81 3 150 7 153 3 4 84 7 179 7 165 0 174 -1 198 -22z M5684 7708
c17 -125 45 -143 306 -198 263 -55 480 -137 480 -181 0 -10 5 -21 10 -24 6 -3
10 -21 10 -40 0 -19 -4 -37 -10 -40 -5 -3 -10 -15 -10 -25 0 -10 -17 -40 -38
-67 -112 -142 -594 -791 -635 -856 -82 -129 -145 -173 -262 -183 -52 -5 -118
-30 -140 -54 -21 -23 -11 -45 45 -93 101 -86 275 -75 366 24 17 19 222 288
455 599 432 576 458 616 459 701 1 163 -134 281 -430 373 -170 53 -488 116
-585 116 -27 0 -28 0 -21 -52z M5679 7366 c-28 -16 -52 -60 -64 -113 -6 -31
-8 -32 -48 -28 -102 12 -270 26 -273 23 -5 -6 26 -172 34 -179 19 -17 97 -39
137 -39 35 0 51 6 78 30 32 28 57 84 57 129 0 12 6 24 14 27 12 5 376 -53 385
-62 2 -2 -91 -128 -206 -281 -255 -338 -402 -538 -409 -557 -4 -9 6 -21 27
-31 43 -23 102 -15 159 20 79 49 276 284 427 510 73 109 101 162 124 238 21
70 14 100 -40 167 -52 65 -78 86 -149 122 -53 26 -78 32 -145 35 -59 3 -89 -1
-108 -11z M9715 6296 c-60 -28 -71 -40 -256 -270 -338 -419 -369 -461 -385
-509 -20 -59 -15 -146 10 -199 26 -54 90 -117 144 -140 92 -41 223 -19 295 50
47 45 541 661 561 700 11 21 21 66 24 103 4 56 1 75 -20 120 -34 74 -69 113
-130 143 -71 35 -171 36 -243 2z m81 -327 c-3 -17 -16 -45 -28 -62 -38 -54
-260 -330 -302 -375 -53 -58 -106 -85 -140 -72 -52 19 -23 70 108 192 44 40
122 123 174 183 134 156 202 205 188 134z M8680 5790 c-577 -110 -630 -121
-630 -130 0 -17 103 -98 141 -110 21 -7 39 -16 39 -20 0 -9 56 0 360 56 276
51 312 62 461 143 58 32 140 75 182 97 57 29 72 41 59 46 -46 18 -174 1 -612
-82z M4871 2142 c-40 -40 -51 -59 -61 -105 -16 -78 -4 -113 89 -253 98 -148
103 -163 49 -124 -45 33 -124 60 -173 60 -87 0 -186 -54 -236 -129 l-31 -46 7
40 c4 22 18 79 31 127 31 114 32 167 0 197 -30 28 -94 47 -109 32 -8 -8 -1
-79 24 -243 l34 -233 5 -470 c5 -461 5 -471 27 -511 28 -53 74 -99 127 -127
32 -17 58 -22 121 -22 95 0 139 19 201 87 76 83 75 71 72 618 l-4 485 -32 220
c-54 370 -66 438 -79 442 -7 3 -35 -18 -62 -45z"/>
</g>
</svg>
