<?xml version="1.0" standalone="no"?>
<!DOCTYPE svg PUBLIC "-//W3C//DTD SVG 20010904//EN"
 "http://www.w3.org/TR/2001/REC-SVG-20010904/DTD/svg10.dtd">
<svg version="1.0" xmlns="http://www.w3.org/2000/svg"
 width="2048.000000pt" height="2048.000000pt" viewBox="0 0 2048.000000 2048.000000"
 preserveAspectRatio="xMidYMid meet">
<metadata>
Created by potrace 1.13, written by Peter Selinger 2001-2015
</metadata>
<g transform="translate(0.000000,2048.000000) scale(0.192120,-0.192120)"
fill="#000000" stroke="none">
<path d="M8064 10008 c-339 -342 -385 -398 -438 -538 -87 -232 -36 -494 140
-726 l62 -81 -1146 -1145 c-1107 -1105 -1151 -1148 -1262 -1221 -63 -42 -180
-107 -260 -146 -339 -164 -674 -243 -1111 -261 -235 -10 -290 -23 -396 -91
-131 -85 -228 -220 -318 -439 -78 -191 -137 -436 -175 -732 l-20 -158 -47 -59
c-128 -158 -213 -363 -248 -596 -13 -86 -15 -338 -15 -1792 l0 -1693 1110 0
1110 0 -3 1748 -2 1747 -23 85 c-37 140 -62 210 -109 305 -50 100 -68 128
-128 200 -42 50 -43 51 -59 185 -10 74 -21 153 -26 174 -9 42 -6 56 13 56 24
0 235 98 332 155 125 72 319 204 450 305 266 206 427 360 1645 1576 l1245
1243 40 -35 c63 -54 173 -120 258 -154 241 -96 459 -73 677 73 25 16 253 237
508 491 l462 461 0 692 0 693 -973 0 -973 0 -320 -322z m2006 -476 l0 -538
-377 -375 c-217 -216 -402 -391 -435 -413 -140 -91 -275 -116 -428 -81 -36 9
-137 50 -225 93 -134 65 -167 77 -210 77 -47 0 -135 -29 -135 -45 0 -4 9 -15
21 -26 12 -10 35 -37 52 -59 25 -33 19 -29 -31 19 l-60 59 -54 -38 c-58 -42
-1452 -1427 -1656 -1646 -158 -168 -318 -349 -354 -397 -15 -20 -38 -75 -52
-122 -22 -77 -23 -87 -8 -102 8 -10 13 -18 11 -18 -2 0 -117 114 -254 252
-138 139 -240 243 -227 232 22 -20 27 -20 75 -8 93 22 141 40 185 68 24 15
130 112 236 216 106 105 195 188 197 185 7 -6 1485 1477 1535 1540 22 28 51
65 63 83 l24 34 -59 61 c-55 58 -40 50 33 -17 l32 -29 12 29 c35 89 23 142
-74 334 -84 166 -89 187 -85 356 3 139 3 140 38 199 38 65 473 515 547 566 23
16 59 33 80 38 21 5 386 9 811 10 l772 1 0 -538z m-4358 -3459 c52 -35 118
-109 118 -130 0 -44 -49 -100 -212 -240 -273 -235 -507 -401 -763 -538 -129
-69 -160 -91 -231 -162 -45 -45 -95 -107 -113 -139 -27 -51 -31 -67 -31 -138
0 -88 14 -190 33 -246 24 -72 106 -167 208 -242 l36 -27 7 -103 c3 -57 7 -206
7 -333 0 -202 -2 -240 -20 -310 -66 -252 -233 -454 -464 -560 -100 -46 -175
-64 -294 -72 -409 -25 -768 243 -864 645 -20 81 -21 107 -16 397 2 171 8 317
12 325 3 8 33 35 65 60 128 98 170 180 205 400 64 408 137 632 261 806 49 70
102 115 167 144 46 20 109 28 397 50 80 6 155 14 168 17 17 4 22 1 22 -16 0
-12 2 -21 5 -21 3 0 63 11 134 25 330 65 618 175 903 348 70 43 137 81 150 87
31 12 65 4 110 -27z m-2579 -2935 c7 -7 38 -45 69 -83 146 -181 297 -287 494
-346 106 -32 320 -37 441 -10 217 48 372 153 576 391 l47 55 0 -1272 0 -1273
-830 0 -830 0 0 1275 c0 900 3 1275 11 1275 6 0 16 -6 22 -12z M1316 5039
c-22 -5 -73 -25 -112 -44 -275 -132 -467 -565 -549 -1233 -10 -85 -20 -131
-32 -147 -149 -190 -202 -300 -261 -535 l-26 -105 -3 -1323 -4 -1322 1111 0
1110 0 0 1288 c0 1140 -2 1299 -16 1383 -41 237 -125 432 -255 589 -34 42 -38
53 -49 145 -30 260 -92 547 -155 725 -40 111 -119 265 -177 342 -89 121 -200
200 -323 233 -64 16 -197 18 -259 4z m254 -274 c189 -96 315 -380 400 -900 17
-104 35 -198 40 -207 6 -10 10 -23 10 -29 0 -13 55 -94 93 -136 16 -17 55 -50
87 -74 l57 -42 7 -101 c3 -55 7 -202 7 -326 1 -246 -11 -331 -65 -454 -82
-185 -247 -350 -433 -432 -150 -67 -370 -85 -528 -44 -250 64 -450 230 -561
463 -66 141 -69 164 -68 541 l0 340 40 30 c77 59 151 145 182 208 24 50 37
107 66 279 70 420 154 650 293 799 58 63 89 84 158 107 58 19 153 9 215 -22z
m-873 -2541 c158 -195 314 -300 528 -355 113 -28 299 -31 415 -5 194 43 383
166 531 345 24 30 54 66 66 80 l22 26 1 -857 0 -858 -830 0 -830 0 0 861 c0
684 3 860 13 857 6 -3 44 -45 84 -94z M6316 5039 c-22 -5 -73 -25 -112 -44
-275 -132 -467 -565 -549 -1233 -10 -85 -20 -131 -32 -147 -149 -190 -202
-300 -261 -535 l-26 -105 -3 -1323 -4 -1322 1111 0 1110 0 0 1288 c0 1140 -2
1299 -16 1383 -41 237 -125 432 -255 589 -34 42 -38 53 -49 145 -30 260 -92
547 -155 725 -40 111 -119 265 -177 342 -89 121 -200 200 -323 233 -64 16
-197 18 -259 4z m254 -274 c189 -96 315 -380 400 -900 17 -104 35 -198 40
-207 6 -10 10 -23 10 -29 0 -13 55 -94 93 -136 16 -17 55 -50 87 -74 l57 -42
7 -101 c3 -55 7 -202 7 -326 1 -246 -11 -331 -65 -454 -82 -185 -247 -350
-433 -432 -150 -67 -370 -85 -528 -44 -248 63 -451 230 -559 461 -68 143 -71
165 -70 543 l0 340 40 30 c77 59 151 145 182 208 24 50 37 107 66 279 70 420
154 650 293 799 58 63 89 84 158 107 58 19 153 9 215 -22z m-867 -2548 c160
-194 309 -293 522 -348 113 -28 299 -31 415 -5 194 43 383 166 531 345 24 30
54 66 66 80 l22 26 1 -857 0 -858 -830 0 -830 0 0 860 c0 517 4 860 9 860 5 0
47 -46 94 -103z M8803 3645 c-334 -90 -557 -528 -647 -1271 l-15 -121 -63 -84
c-106 -140 -164 -270 -216 -479 l-26 -105 -3 -627 -4 -628 1110 0 1111 0 0
593 c0 641 -2 679 -57 867 -42 146 -136 324 -223 423 -24 28 -30 46 -40 132
-101 865 -371 1316 -785 1314 -49 0 -114 -7 -142 -14z m220 -249 c25 -7 66
-29 92 -47 53 -38 140 -149 180 -227 67 -136 128 -360 175 -647 17 -104 35
-198 40 -207 6 -10 10 -23 10 -30 0 -27 104 -149 169 -199 l68 -52 7 -101 c3
-56 7 -202 7 -326 1 -195 -1 -236 -19 -310 -40 -165 -113 -290 -240 -412 -160
-153 -345 -227 -565 -228 -380 -1 -704 242 -809 607 -22 74 -23 95 -23 403 0
179 4 336 8 350 4 14 34 44 68 69 64 46 122 117 156 191 12 27 36 132 57 260
57 342 110 517 203 677 74 125 131 182 219 218 67 28 130 31 197 11z m-875
-2498 c15 -17 39 -48 54 -69 15 -21 57 -70 93 -108 99 -104 88 -118 -92 -120
l-103 -1 0 165 c0 110 4 165 11 165 6 0 22 -14 37 -32z m1612 -139 l0 -161
-110 4 c-84 2 -113 7 -126 20 -15 15 -14 18 7 47 12 17 26 31 31 31 4 0 49 50
99 110 51 61 94 110 96 110 1 0 3 -72 3 -161z"/>
</g>
</svg>
