<?xml version="1.0" standalone="no"?>
<!DOCTYPE svg PUBLIC "-//W3C//DTD SVG 20010904//EN"
 "http://www.w3.org/TR/2001/REC-SVG-20010904/DTD/svg10.dtd">
<svg version="1.0" xmlns="http://www.w3.org/2000/svg"
 width="2048.000000pt" height="2048.000000pt" viewBox="0 0 2048.000000 2048.000000"
 preserveAspectRatio="xMidYMid meet">
<metadata>
Created by potrace 1.13, written by Peter Selinger 2001-2015
</metadata>
<g transform="translate(0.000000,2048.000000) scale(0.192120,-0.192120)"
fill="#000000" stroke="none">
<path d="M2547 10313 c-3 -10 -40 -160 -82 -333 l-77 -315 -314 -315 -313
-315 -161 -329 -160 -329 2 -1141 3 -1141 23 -50 c15 -33 55 -82 121 -146 78
-76 106 -98 144 -108 66 -19 172 -11 225 17 l43 22 -1 -577 c-2 -478 1 -604
14 -728 64 -582 280 -1146 613 -1604 l76 -103 36 6 c20 3 424 6 899 6 l862 0
-2 211 -3 211 -75 28 c-173 62 -420 202 -607 341 -125 94 -377 346 -470 470
-262 351 -415 714 -489 1159 -16 94 -18 210 -21 1078 l-4 972 33 0 c50 0 208
36 309 70 443 148 766 482 934 966 19 53 36 98 39 101 2 3 72 -11 155 -31 82
-20 169 -36 193 -36 42 0 47 -3 95 -62 425 -531 1151 -951 1973 -1142 364 -85
757 -140 1105 -154 l160 -7 0 -815 c0 -914 0 -908 -75 -1205 -167 -657 -601
-1220 -1205 -1563 -104 -58 -198 -103 -305 -142 l-75 -28 -3 -211 -2 -211 862
0 c475 0 879 -3 899 -6 36 -6 37 -5 100 80 99 133 192 286 278 456 160 315
258 612 316 954 44 260 48 356 46 954 l-3 563 44 -23 c53 -28 159 -36 226 -17
38 10 65 31 144 109 64 63 105 113 120 146 l23 49 3 1142 2 1141 -160 329
-161 328 -313 315 -314 315 -77 315 c-42 173 -79 323 -82 333 -4 16 -39 17
-559 17 l-554 0 0 -166 c0 -129 -3 -165 -12 -161 -7 3 -67 30 -133 60 -768
350 -1673 355 -2463 14 l-122 -53 -98 13 c-102 14 -370 16 -460 4 l-54 -8 4
149 3 148 -557 0 c-522 0 -557 -1 -561 -17z m843 -228 c0 -8 9 -15 20 -15 11
0 20 -4 20 -10 0 -5 8 -10 17 -10 9 0 24 -6 32 -13 26 -23 99 -47 140 -47 l39
0 7 -147 c4 -82 6 -222 4 -312 l-4 -164 55 -12 c272 -59 814 -190 849 -206 28
-12 83 -58 148 -123 134 -135 158 -182 158 -311 0 -79 -4 -97 -29 -149 -48
-98 -142 -173 -239 -191 -35 -7 -37 -6 -37 20 0 22 18 45 79 104 56 53 88 93
105 131 29 62 46 170 27 170 -6 0 -11 -11 -11 -25 0 -89 -91 -215 -193 -265
-100 -49 -150 -49 -372 0 -231 50 -612 137 -836 191 l-166 40 -284 -286 c-156
-158 -319 -314 -363 -346 -78 -60 -224 -136 -303 -160 -28 -8 -43 -18 -43 -28
0 -15 -44 -386 -169 -1419 -54 -444 -63 -481 -124 -540 -18 -17 -50 -38 -71
-47 -49 -21 -49 -20 -112 113 l-44 93 0 1141 0 1141 108 211 c59 116 130 245
157 286 32 47 131 158 270 300 347 354 365 382 456 729 18 70 29 91 64 127
l42 44 301 0 c262 0 302 -2 302 -15z m4474 5 c29 -11 82 -64 102 -102 8 -15
32 -91 55 -169 70 -245 100 -289 425 -621 189 -192 253 -265 293 -330 50 -81
189 -353 231 -453 21 -50 21 -51 18 -1170 l-3 -1120 -61 -110 c-69 -124 -76
-128 -149 -77 -50 35 -82 82 -99 146 -7 28 -35 231 -61 451 -26 220 -71 598
-100 840 -29 242 -56 467 -60 500 l-7 60 -86 34 c-113 43 -227 111 -316 187
-39 33 -187 179 -328 323 l-258 263 -167 -41 c-93 -22 -357 -83 -588 -136
-484 -112 -503 -113 -618 -57 -105 52 -197 177 -197 267 0 14 -5 25 -11 25
-18 0 -2 -107 25 -166 63 -137 198 -199 382 -175 49 7 265 52 479 101 498 113
484 110 563 110 116 0 140 -17 425 -298 285 -281 318 -309 460 -388 155 -87
185 -120 211 -236 8 -35 56 -400 106 -813 49 -412 101 -805 114 -872 19 -98
22 -131 14 -168 l-10 -47 -23 22 c-36 34 -62 106 -74 205 -34 291 -203 1695
-207 1721 -4 28 -11 34 -67 54 -196 71 -253 114 -609 469 l-317 315 -600 -138
c-668 -154 -651 -152 -769 -96 -76 36 -136 96 -171 169 -22 48 -26 69 -26 151
0 85 3 101 29 150 38 72 217 253 277 279 35 15 591 150 849 205 l55 12 3 307
2 307 39 0 c45 0 143 47 186 89 l30 29 292 1 c164 1 303 -3 317 -9z m-1839
-88 c218 -34 416 -84 603 -154 l52 -19 0 -159 0 -159 -37 -10 c-21 -5 -128
-31 -238 -56 -110 -25 -235 -57 -277 -71 -177 -58 -339 -207 -439 -404 l-44
-85 -3 -143 -4 -143 53 -107 c113 -227 286 -335 510 -319 85 7 70 4 618 129
226 51 417 89 447 89 29 0 66 -7 83 -16 17 -8 147 -129 289 -268 254 -249 314
-298 485 -398 63 -37 67 -44 86 -169 6 -36 47 -364 91 -730 74 -611 105 -843
114 -859 2 -3 0 -301 -4 -661 -9 -684 -12 -728 -61 -995 -68 -368 -190 -696
-370 -996 -80 -133 -116 -181 -158 -210 l-35 -24 -595 -3 c-584 -3 -722 0
-751 18 -23 15 -1 41 61 74 581 307 1010 764 1275 1361 73 163 137 361 182
562 l26 118 3 903 c2 496 0 902 -5 902 -4 0 -13 15 -20 34 -16 43 -109 132
-167 157 -34 15 -99 25 -263 40 -654 58 -1103 157 -1592 350 -128 50 -421 200
-542 276 -283 179 -528 393 -528 463 0 9 12 32 26 51 34 45 72 121 95 188 15
41 19 83 19 179 0 120 -1 127 -35 204 -57 133 -188 290 -303 365 -91 59 -176
85 -589 179 l-123 28 0 119 0 120 143 -6 c176 -8 213 -1 451 88 268 100 550
165 816 189 122 11 529 -3 655 -22z m907 -127 c20 -36 22 -55 22 -215 1 -198
-4 -233 -39 -275 l-24 -30 0 295 c-1 204 2 290 10 280 5 -8 19 -33 31 -55z
m-3162 -231 c0 -190 -3 -283 -10 -279 -6 4 -20 25 -32 48 -18 36 -22 64 -26
182 -5 162 7 262 38 305 12 17 23 30 26 30 2 0 4 -129 4 -286z m-135 -1024
c384 -87 436 -103 476 -146 l24 -26 -35 7 c-19 3 -201 44 -403 91 -202 46
-373 84 -379 84 -7 0 -159 -145 -338 -323 -355 -352 -384 -375 -577 -449 -82
-31 -82 -31 -88 -72 -3 -23 -53 -435 -110 -916 -58 -481 -111 -891 -117 -910
-13 -42 -48 -98 -65 -104 -7 -3 -15 12 -21 40 -8 36 -5 69 13 162 13 64 65
455 115 867 50 413 97 781 105 818 24 114 58 154 192 228 146 80 198 123 463
384 319 314 327 319 470 312 59 -4 163 -21 275 -47z m20 -275 c106 -24 175
-44 183 -54 25 -31 -8 -115 -99 -251 -163 -244 -378 -394 -704 -491 -77 -23
-157 -50 -178 -61 -46 -23 -177 -151 -177 -172 0 -9 -4 -16 -10 -16 -7 0 -10
-346 -10 -1017 0 -868 2 -1032 15 -1113 89 -547 384 -1113 789 -1513 188 -186
375 -325 616 -460 125 -70 162 -98 149 -111 -20 -21 -169 -26 -723 -26 -689 0
-658 -3 -727 78 -39 46 -133 202 -206 342 -149 286 -248 606 -297 955 -29 200
-36 375 -36 847 0 300 -4 469 -10 473 -15 9 -12 131 5 200 19 77 52 319 120
890 70 588 93 762 106 802 8 25 24 39 87 71 140 73 223 142 477 392 138 136
261 253 274 260 64 34 106 31 356 -25z M5795 6160 c-56 -21 -60 -66 -15 -147
77 -137 212 -276 327 -336 307 -161 645 -30 853 330 45 79 49 100 20 131 -29
31 -61 28 -153 -18 -252 -123 -645 -127 -893 -9 -38 19 -80 39 -94 45 -14 7
-34 8 -45 4z M3680 6140 c-28 -28 -25 -53 17 -127 82 -147 224 -289 347 -347
220 -104 464 -61 650 114 116 109 216 256 216 317 0 35 -27 63 -60 63 -14 0
-60 -18 -105 -40 -257 -127 -653 -127 -912 0 -91 45 -124 49 -153 20z M4983
5170 c-64 -39 -85 -105 -55 -174 36 -79 42 -81 389 -84 285 -3 305 -2 348 17
80 35 107 138 54 205 -43 55 -52 56 -391 56 -293 0 -315 -1 -345 -20z M5217
4489 c-156 -16 -291 -66 -368 -136 -160 -145 -44 -315 266 -390 106 -25 334
-23 445 4 289 72 401 225 269 368 -75 81 -215 135 -399 155 -105 11 -103 11
-213 -1z m254 -184 c52 -8 118 -23 145 -33 45 -18 49 -22 49 -53 0 -28 -6 -37
-40 -56 -69 -39 -168 -58 -300 -57 -175 0 -302 36 -339 97 -26 41 45 79 194
102 114 18 177 18 291 0z M2575 2799 c-197 -45 -364 -138 -518 -288 -147 -143
-247 -313 -304 -516 l-28 -100 -3 -782 -3 -783 3611 0 3611 0 -3 783 -3 782
-27 98 c-110 399 -425 712 -808 802 -108 25 -110 24 -110 -38 0 -35 8 -68 23
-97 21 -42 30 -49 163 -115 173 -86 230 -124 316 -212 82 -84 134 -165 184
-285 l39 -93 3 -692 c3 -691 3 -693 -18 -693 -11 0 -20 -7 -20 -15 0 -13 -40
-15 -300 -15 -193 0 -300 -4 -300 -10 0 -5 -20 -10 -45 -10 -25 0 -45 -3 -45
-7 0 -5 -21 -17 -48 -27 -26 -10 -54 -24 -62 -31 -8 -7 -23 -15 -32 -18 -17
-6 -18 22 -18 498 l0 505 -140 0 -140 0 0 -505 c0 -476 -1 -504 -17 -498 -10
4 -20 9 -23 13 -8 10 -107 50 -124 50 -9 0 -16 5 -16 10 0 7 -690 10 -2050 10
-1360 0 -2050 -3 -2050 -10 0 -5 -5 -10 -11 -10 -6 0 -42 -15 -80 -34 l-69
-34 0 504 0 504 -140 0 -140 0 0 -505 0 -504 -72 37 c-40 20 -74 40 -76 45 -2
4 -12 7 -23 7 -10 0 -19 5 -19 10 0 6 -107 10 -300 10 -260 0 -300 2 -300 15
0 11 -11 15 -40 15 l-40 0 0 688 c0 777 -5 721 81 879 55 102 104 168 174 231
81 75 131 107 260 168 62 30 127 65 144 79 39 34 56 88 52 173 -1 25 -24 27
-96 11z M4502 2573 c5 -158 8 -187 33 -263 79 -248 253 -436 491 -531 416
-167 892 34 1070 451 48 110 64 206 64 375 0 133 -1 145 -18 145 -10 0 -23 -5
-30 -12 -7 -7 -12 -9 -12 -4 0 4 -7 1 -15 -8 -8 -8 -15 -19 -15 -25 0 -6 -7
-8 -15 -5 -13 5 -15 -10 -15 -104 0 -82 -5 -126 -20 -174 -11 -34 -20 -70 -20
-79 0 -9 -19 -54 -41 -99 -60 -119 -181 -240 -300 -298 -119 -59 -203 -75
-364 -70 -109 4 -143 9 -214 33 -145 49 -264 141 -353 273 -78 116 -118 259
-118 424 0 84 -2 99 -14 89 -11 -9 -15 -5 -20 20 -3 16 -10 28 -15 24 -5 -3
-12 -1 -16 5 -3 5 -15 10 -27 10 -20 0 -20 -3 -16 -177z"/>
</g>
</svg>
