<?xml version="1.0" standalone="no"?>
<!DOCTYPE svg PUBLIC "-//W3C//DTD SVG 20010904//EN"
 "http://www.w3.org/TR/2001/REC-SVG-20010904/DTD/svg10.dtd">
<svg version="1.0" xmlns="http://www.w3.org/2000/svg"
 width="2048.000000pt" height="2048.000000pt" viewBox="0 0 2048.000000 2048.000000"
 preserveAspectRatio="xMidYMid meet">
<metadata>
Created by potrace 1.13, written by Peter Selinger 2001-2015
</metadata>
<g transform="translate(0.000000,2048.000000) scale(0.192120,-0.192120)"
fill="#000000" stroke="none">
<path d="M4278 10315 c-667 -91 -1225 -585 -1393 -1232 -57 -218 -56 -168 -52
-2159 2 -1667 4 -1837 19 -1919 67 -357 210 -591 464 -763 65 -44 212 -118
219 -110 3 3 2 18 -1 34 -4 24 -16 35 -57 53 -104 48 -194 178 -234 336 -24
99 -24 306 1 400 26 96 59 169 108 233 36 49 40 59 35 98 l-5 44 1948 0 1947
0 -5 -50 c-4 -44 -1 -53 27 -89 39 -49 85 -147 106 -226 26 -95 31 -275 11
-376 -36 -176 -139 -332 -247 -373 -41 -16 -47 -22 -53 -54 -3 -20 -4 -37 -3
-38 6 -6 172 78 228 116 256 172 393 396 466 760 15 78 17 240 20 1919 3 1597
2 1850 -12 1951 -98 756 -687 1346 -1442 1445 -157 21 -1943 20 -2095 0z
m2002 -295 c372 -33 684 -179 930 -436 139 -146 242 -322 295 -508 l25 -88 -1
-1857 c0 -1135 -4 -1847 -9 -1833 -12 29 -170 192 -221 228 -100 69 -233 73
-2114 70 -1655 -4 -1694 -5 -1794 -53 -59 -28 -251 -209 -251 -236 0 -8 -7
-17 -15 -21 -14 -5 -15 197 -13 1852 l3 1857 34 100 c99 295 278 522 549 699
188 122 431 204 669 225 134 12 1779 13 1913 1z M3590 5171 c-70 -88 -94 -108
-137 -115 -40 -7 -41 -9 -37 -39 2 -18 11 -86 20 -152 31 -244 134 -672 214
-900 274 -772 738 -1250 1333 -1375 366 -77 733 -33 1052 125 423 211 767 654
978 1262 95 272 204 753 223 982 l7 78 -37 7 c-39 7 -55 22 -128 116 l-43 55
-16 -185 c-33 -366 -92 -670 -185 -946 -284 -854 -821 -1280 -1574 -1251 -237
9 -426 57 -620 158 -565 294 -918 1025 -1003 2074 l-12 150 -35 -44z M4420
5161 c-70 -22 -114 -59 -144 -118 -13 -26 -16 -65 -16 -198 0 -133 3 -172 16
-198 75 -148 274 -164 369 -29 l30 44 3 173 c3 156 1 177 -16 212 -23 44 -53
74 -99 97 -40 20 -109 28 -143 17z M6117 5156 c-56 -21 -103 -61 -127 -110
-20 -42 -21 -57 -18 -214 3 -164 4 -170 30 -210 102 -153 343 -113 387 64 14
56 14 263 0 319 -17 66 -78 131 -142 150 -61 18 -81 18 -130 1z M5114 4249
c-41 -12 -90 -68 -103 -117 -18 -66 17 -145 79 -177 42 -22 426 -23 468 -1 42
22 80 70 88 112 14 76 -41 163 -114 184 -45 12 -375 12 -418 -1z M3555 4040
c13 -80 64 -268 100 -367 82 -224 225 -477 364 -646 116 -142 340 -345 349
-317 11 31 -20 73 -149 206 -281 291 -416 515 -570 948 -69 194 -108 267 -94
176z M7071 4033 c-11 -22 -39 -96 -62 -164 -138 -410 -330 -722 -610 -994 -45
-44 -90 -93 -101 -110 -19 -31 -24 -65 -10 -65 5 0 51 36 104 79 275 230 500
574 628 961 40 123 86 317 77 327 -3 3 -15 -13 -26 -34z M4560 3472 c-47 -25
-83 -94 -75 -142 9 -48 27 -74 77 -108 144 -97 418 -152 759 -152 578 0 928
145 833 346 -35 73 -138 98 -204 49 -92 -68 -264 -103 -540 -112 -321 -9 -570
26 -685 98 -63 40 -118 47 -165 21z M4392 2653 c2 -10 14 -19 27 -21 27 -4 21
12 -10 29 -18 9 -20 8 -17 -8z M6215 2639 c-39 -30 -39 -30 -10 -23 16 4 35 7
42 7 7 0 13 11 13 24 0 13 -1 23 -2 23 -2 0 -21 -14 -43 -31z M4352 2603 c-66
-13 -118 -116 -129 -255 l-6 -78 -157 0 -158 0 -11 44 c-12 47 -54 91 -98 102
-34 9 -1372 -204 -1401 -222 -35 -23 -62 -74 -62 -119 0 -22 9 -89 19 -150 17
-97 18 -112 5 -130 -121 -167 -202 -325 -258 -505 -70 -228 -95 -411 -99 -753
l-2 -207 1598 0 1597 0 0 555 c0 305 -4 555 -8 555 -5 0 -35 -17 -68 -39 -67
-43 -134 -112 -134 -137 0 -10 -5 -14 -15 -10 -13 5 -15 -31 -15 -289 0 -288
0 -295 -20 -295 -17 0 -20 -7 -20 -40 l0 -40 -1325 0 -1325 0 0 205 c0 230 11
302 76 487 64 184 67 202 60 327 l-7 114 30 -26 c17 -14 43 -28 58 -31 16 -4
156 14 313 39 157 25 458 73 670 106 211 33 397 67 413 75 60 32 77 92 58 205
-5 30 -12 76 -16 103 l-7 49 52 -46 c95 -86 155 -83 222 9 l33 46 7 -38 c22
-128 103 -268 228 -394 170 -171 361 -280 606 -346 88 -24 117 -27 269 -27
154 0 180 2 275 27 411 106 750 395 829 706 l18 72 22 -35 c30 -49 77 -87 108
-87 35 0 85 26 136 70 l43 38 -8 -56 c-4 -32 -10 -93 -13 -137 -6 -70 -4 -84
14 -113 12 -18 36 -39 53 -47 45 -21 1355 -227 1391 -219 15 3 41 17 58 31
l30 26 -7 -29 c-4 -16 -7 -78 -7 -139 0 -92 4 -125 28 -200 83 -267 85 -279
85 -532 l0 -233 -1325 0 -1325 0 0 40 c0 33 -3 40 -20 40 -20 0 -20 7 -20 290
0 187 -4 290 -10 290 -5 0 -10 10 -10 22 0 12 -19 40 -46 66 -45 43 -130 102
-146 102 -4 0 -8 -250 -8 -555 l0 -555 1598 0 1599 0 -4 78 c-1 42 -5 167 -7
277 -7 327 -61 576 -176 821 -48 102 -124 230 -163 271 l-20 22 23 141 c19
117 21 147 11 180 -13 45 -48 76 -100 89 -20 5 -330 56 -689 112 l-654 103
-36 -19 c-42 -23 -82 -77 -82 -111 l0 -24 -165 0 -165 0 0 43 c0 63 -19 155
-42 204 -21 46 -56 76 -99 86 -24 6 -25 4 -37 -64 -16 -95 -53 -168 -119 -239
-126 -137 -343 -238 -610 -285 -358 -62 -813 65 -1016 285 -67 72 -103 144
-118 239 -7 39 -15 70 -18 70 -3 -1 -16 -4 -29 -6z M6025 2529 c-259 -125
-546 -181 -817 -159 -196 16 -348 56 -547 144 l-101 44 59 -72 c119 -145 171
-177 353 -217 358 -78 861 -17 986 119 35 38 154 183 150 181 -2 0 -39 -18
-83 -40z"/>
</g>
</svg>
