<?xml version="1.0" standalone="no"?>
<!DOCTYPE svg PUBLIC "-//W3C//DTD SVG 20010904//EN"
 "http://www.w3.org/TR/2001/REC-SVG-20010904/DTD/svg10.dtd">
<svg version="1.0" xmlns="http://www.w3.org/2000/svg"
 width="2048.000000pt" height="2048.000000pt" viewBox="0 0 2048.000000 2048.000000"
 preserveAspectRatio="xMidYMid meet">
<metadata>
Created by potrace 1.13, written by Peter Selinger 2001-2015
</metadata>
<g transform="translate(0.000000,2048.000000) scale(0.192120,-0.192120)"
fill="#000000" stroke="none">
<path d="M3665 10094 c-782 -62 -1402 -321 -1860 -779 -366 -366 -595 -830
-665 -1350 -13 -98 -13 -478 0 -600 25 -233 26 -209 -8 -251 -73 -91 -132
-249 -157 -419 -41 -277 17 -570 154 -768 67 -98 180 -179 267 -193 l41 -6 6
-172 c7 -196 18 -292 53 -463 164 -803 742 -1494 1510 -1802 l99 -40 3 -210 2
-210 -917 -4 c-996 -4 -946 -1 -1118 -60 -147 -50 -278 -131 -395 -244 -170
-161 -267 -332 -327 -573 -14 -57 -17 -166 -20 -842 l-4 -778 4031 0 4030 0 0
2360 0 2360 -815 0 c-448 0 -815 4 -815 8 0 4 20 39 45 77 25 38 48 79 51 92
4 13 10 23 14 23 12 0 20 99 28 362 4 136 11 250 14 254 18 18 211 23 821 24
l668 0 237 40 c130 21 269 43 309 48 l72 8 17 -37 c20 -45 58 -84 97 -98 52
-20 146 -11 485 44 438 71 462 71 462 -2 0 -29 -6 -38 -44 -62 -28 -17 -314
-117 -763 -265 -395 -131 -746 -251 -781 -268 -81 -38 -110 -80 -119 -171 -5
-61 -4 -67 13 -67 11 0 396 126 857 279 819 273 840 281 922 336 92 61 151
127 161 182 19 103 -50 229 -154 279 -69 33 -118 28 -582 -50 -245 -42 -456
-77 -469 -78 -20 -3 -25 4 -37 50 -19 73 -39 108 -93 161 -66 66 -128 93 -226
98 -71 4 -124 -5 -464 -76 l-384 -81 -361 0 c-399 0 -427 -3 -540 -62 -83 -44
-192 -155 -233 -238 -58 -117 -63 -152 -63 -485 0 -250 -11 -486 -66 -1425
-36 -619 -66 -1125 -67 -1125 -1 0 -410 1 -910 3 l-907 3 2 210 3 211 75 28
c41 15 111 45 155 66 681 325 1182 936 1359 1654 49 202 66 325 73 543 l6 187
23 0 c53 0 136 42 199 102 104 96 174 225 222 406 23 86 26 117 27 272 1 185
-6 235 -51 375 -29 90 -51 137 -98 210 l-33 50 8 100 c16 206 22 500 11 610
-41 416 -217 832 -507 1195 -92 116 -297 319 -421 417 -412 328 -902 532
-1463 609 -110 15 -578 27 -695 18z m615 -269 c568 -60 1073 -268 1485 -611
368 -307 616 -683 721 -1094 l24 -95 0 -623 c0 -411 -4 -630 -10 -643 -32 -59
-82 -1 -225 258 -203 369 -254 441 -350 498 -55 33 -103 42 -295 55 -340 23
-667 74 -895 139 -59 18 -176 59 -259 92 -107 44 -169 63 -213 66 -59 5 -63 4
-90 -24 -62 -65 -63 -68 -63 -164 0 -76 -3 -96 -21 -120 l-21 -29 -31 22 c-18
12 -72 56 -122 99 -241 205 -291 239 -354 239 -46 0 -95 -33 -133 -88 -18 -26
-49 -64 -70 -85 -35 -34 -42 -37 -76 -31 -68 12 -164 54 -266 115 -95 57 -150
94 -376 259 -52 39 -120 79 -150 91 -48 19 -62 20 -109 10 -92 -18 -183 -81
-326 -225 -141 -142 -208 -230 -310 -406 -89 -153 -144 -270 -200 -425 -93
-257 -97 -265 -133 -246 -12 6 -25 34 -36 73 -15 57 -17 120 -14 618 l3 555
29 105 c134 493 449 916 896 1202 361 230 794 370 1295 417 151 14 548 12 695
-4z m-1780 -1836 c415 -340 752 -519 901 -479 23 7 55 25 70 41 43 46 61 152
40 242 -5 20 -7 37 -4 37 3 0 69 -62 147 -137 230 -225 434 -384 544 -427 56
-21 68 -20 97 9 19 18 25 35 25 68 0 83 -53 250 -129 407 -17 35 -31 67 -31
72 0 5 28 -14 63 -42 265 -215 830 -349 1617 -383 l54 -2 48 -77 c93 -150 232
-396 319 -564 50 -95 103 -190 119 -213 98 -135 195 -84 269 139 22 69 71 296
71 333 0 12 4 17 9 11 16 -17 32 -138 38 -284 6 -158 -8 -289 -52 -476 -45
-191 -91 -261 -220 -337 -107 -63 -225 -184 -225 -231 0 -9 -4 -16 -10 -16 -6
0 -10 -31 -10 -72 0 -162 -26 -447 -52 -558 -16 -71 -116 -313 -185 -450 -65
-130 -201 -358 -277 -464 -62 -87 -253 -273 -371 -362 -74 -56 -157 -104 -323
-186 -242 -120 -296 -155 -357 -230 -22 -27 -47 -57 -55 -66 -12 -12 -16 -52
-18 -190 -3 -175 1 -228 17 -217 5 2 11 -2 15 -10 3 -8 32 -22 66 -31 l60 -17
0 -197 c0 -164 -3 -210 -20 -276 -63 -247 -234 -453 -462 -558 -126 -59 -185
-70 -353 -70 -140 0 -156 2 -242 31 -224 75 -401 226 -498 428 -70 144 -77
181 -82 425 l-5 215 64 20 c43 14 66 27 74 42 6 13 14 20 17 16 4 -3 7 73 7
171 0 195 2 186 -75 281 -68 84 -93 101 -320 213 -241 119 -357 200 -538 372
-166 157 -370 436 -482 660 -136 272 -234 691 -235 1008 0 41 -4 72 -10 72 -5
0 -10 11 -10 25 0 14 -3 25 -8 25 -4 0 -13 14 -20 30 -8 17 -53 65 -100 108
-218 195 -251 242 -297 430 -47 190 -56 497 -21 690 12 68 26 105 26 69 0 -8
16 -71 35 -139 77 -267 199 -434 284 -388 30 16 48 56 71 162 125 561 396
1022 760 1294 47 35 87 64 90 64 3 0 39 -28 80 -61z m5610 -3149 c0 -13 7 -20
20 -20 20 0 20 -7 20 -2120 0 -2113 0 -2120 -20 -2120 -11 0 -20 -7 -20 -15 0
-13 -85 -15 -705 -15 -463 0 -705 -3 -705 -10 0 -5 -20 -10 -44 -10 -24 0 -46
-3 -48 -7 -4 -10 -144 -83 -158 -83 -7 0 -10 162 -10 500 l0 500 -140 0 -140
0 0 -504 0 -504 -76 39 c-42 22 -85 39 -95 39 -10 0 -19 5 -19 10 0 12 -4076
14 -4082 3 -2 -5 -40 -27 -85 -51 l-83 -43 0 506 0 505 -140 0 -140 0 -2 -504
-3 -504 -65 39 c-36 21 -70 43 -77 49 -7 5 -21 10 -33 10 -11 0 -20 5 -20 10
0 6 -103 10 -290 10 -251 0 -290 2 -290 15 0 11 -11 15 -40 15 l-40 0 0 685 0
685 25 66 c98 261 313 461 578 538 144 42 235 46 987 46 703 0 710 0 710 -20
0 -13 7 -20 20 -20 16 0 20 -7 20 -35 0 -43 33 -197 61 -285 26 -80 108 -241
151 -295 59 -74 186 -192 260 -241 86 -56 199 -106 312 -137 109 -29 354 -31
461 -3 299 79 551 282 670 539 61 131 115 335 115 432 0 16 6 25 15 25 8 0 15
9 15 20 0 19 11 19 773 22 759 3 773 3 817 24 87 40 201 162 227 244 16 50 18
80 73 1015 28 468 53 869 56 893 4 26 11 42 20 42 8 0 14 9 14 20 0 20 7 20
575 20 568 0 575 0 575 -20z M2754 6710 c-91 -28 -183 -129 -198 -217 -3 -21
-6 -110 -6 -199 0 -194 12 -245 73 -311 116 -127 303 -125 415 2 65 74 75 120
70 343 -3 186 -3 187 -33 240 -32 59 -67 92 -129 124 -46 23 -144 33 -192 18z
M4969 6706 c-84 -30 -140 -82 -177 -164 -14 -31 -17 -70 -17 -237 0 -188 1
-203 23 -251 47 -103 143 -165 256 -165 107 0 190 49 242 143 29 53 29 53 32
251 4 241 -4 274 -83 353 -76 76 -183 103 -276 70z M3593 5170 c-96 -58 -90
-191 12 -240 42 -20 55 -21 352 -18 300 3 309 4 339 25 85 61 80 179 -9 233
-30 19 -52 20 -347 20 -295 0 -317 -1 -347 -20z M2844 4193 c24 -47 119 -155
187 -214 180 -157 380 -248 644 -294 132 -23 393 -24 525 -2 295 50 545 176
721 364 61 64 129 153 129 167 0 3 -500 6 -1110 6 l-1111 0 15 -27z m1379
-209 c66 -6 77 -10 77 -25 0 -12 -7 -19 -19 -19 -11 0 -21 -4 -23 -9 -5 -14
-245 -51 -323 -50 -38 0 -92 4 -120 9 -27 5 -83 14 -122 21 -40 6 -73 15 -73
20 0 5 -9 9 -20 9 -13 0 -20 7 -20 19 0 16 8 21 48 24 86 6 518 7 595 1z"/>
</g>
</svg>
