<?xml version="1.0" standalone="no"?>
<!DOCTYPE svg PUBLIC "-//W3C//DTD SVG 20010904//EN"
 "http://www.w3.org/TR/2001/REC-SVG-20010904/DTD/svg10.dtd">
<svg version="1.0" xmlns="http://www.w3.org/2000/svg"
 width="2048.000000pt" height="2048.000000pt" viewBox="0 0 2048.000000 2048.000000"
 preserveAspectRatio="xMidYMid meet">
<metadata>
Created by potrace 1.13, written by Peter Selinger 2001-2015
</metadata>
<g transform="translate(0.000000,2048.000000) scale(0.192120,-0.192120)"
fill="#000000" stroke="none">
<path d="M2547 10313 c-3 -10 -40 -160 -82 -333 l-77 -315 -314 -315 -313
-315 -161 -329 -160 -330 2 -1140 3 -1141 23 -50 c34 -73 206 -240 264 -256
65 -17 188 -7 232 19 l37 22 -1 -578 c-2 -472 1 -604 14 -727 44 -398 158
-790 334 -1140 100 -200 173 -318 340 -545 12 -16 7 -19 -55 -29 -222 -38
-429 -149 -594 -318 -142 -145 -231 -301 -286 -498 l-28 -100 -3 -782 -3 -783
3611 0 3611 0 -3 783 -3 782 -27 98 c-86 313 -298 575 -578 717 -94 47 -204
84 -297 100 -52 8 -71 15 -65 24 4 6 33 45 64 86 281 371 507 915 588 1420 39
246 43 336 41 923 l-3 568 44 -23 c53 -28 159 -36 226 -17 38 10 65 31 144
109 64 63 105 113 120 146 l23 49 3 1141 2 1142 -160 328 -161 329 -313 315
-314 315 -77 315 c-42 173 -79 323 -82 333 -4 16 -39 17 -559 17 l-554 0 0
-155 0 -155 30 0 c31 0 95 26 118 48 7 6 18 12 23 12 5 0 9 7 9 16 0 8 5 12
10 9 6 -3 13 1 16 9 5 14 47 16 349 16 l343 0 31 -26 c43 -36 95 -149 131
-284 36 -135 80 -230 149 -322 27 -36 157 -175 289 -309 131 -134 250 -262
264 -284 44 -70 95 -170 178 -345 l80 -171 0 -1139 c0 -1091 -1 -1141 -19
-1187 -10 -26 -22 -71 -25 -98 -11 -75 -15 -79 -81 -72 -112 11 -193 87 -219
207 -8 36 -61 448 -116 915 -56 468 -104 866 -107 886 -5 35 -8 37 -87 67
-192 74 -221 97 -578 451 l-327 324 -573 -134 c-651 -151 -685 -156 -790 -107
-72 34 -142 103 -176 176 -23 49 -27 70 -27 152 0 87 3 100 32 155 36 69 105
138 166 165 36 16 646 161 845 201 l62 13 -2 319 -3 319 -132 58 c-796 353
-1677 360 -2471 17 l-122 -53 -103 14 c-113 15 -482 11 -498 -5 -5 -5 -8 -143
-7 -338 l3 -329 55 -13 c560 -127 813 -188 847 -203 61 -27 130 -96 166 -165
29 -55 32 -68 32 -156 0 -90 -2 -100 -35 -164 -46 -90 -113 -146 -211 -176
-51 -15 -86 -20 -123 -16 -28 3 -309 65 -625 138 l-573 132 -312 -312 c-171
-171 -331 -325 -356 -342 -56 -38 -232 -126 -281 -141 -35 -10 -38 -14 -43
-57 -4 -25 -51 -419 -106 -876 -55 -456 -103 -852 -106 -880 -17 -141 -104
-231 -235 -242 l-57 -6 -12 59 c-6 33 -18 80 -26 105 -12 39 -14 213 -12 1200
l3 1154 106 215 c59 118 131 251 160 295 35 52 135 163 289 320 230 234 312
334 353 430 9 22 37 116 62 209 46 172 49 179 94 229 l25 27 343 0 c305 0 343
-2 343 -16 0 -11 6 -14 20 -9 15 5 20 2 20 -10 0 -11 5 -15 14 -12 9 4 18 -2
22 -15 5 -16 8 -18 15 -7 5 8 9 9 9 3 0 -11 116 -41 124 -33 3 2 6 70 8 152
l3 147 -557 0 c-522 0 -557 -1 -561 -17z m3488 -232 c264 -36 423 -73 627
-144 79 -27 140 -43 170 -42 43 0 47 -2 52 -29 8 -37 7 -384 0 -413 -4 -15
-15 -22 -42 -25 -21 -3 -38 -2 -40 2 -1 4 -103 -13 -225 -37 -122 -24 -278
-54 -346 -68 -262 -50 -394 -163 -398 -340 -1 -50 -8 -84 -25 -120 -19 -41
-23 -66 -23 -145 0 -84 3 -102 28 -152 38 -77 96 -134 175 -171 116 -55 138
-52 796 101 l570 132 315 -313 c355 -352 404 -390 608 -468 61 -23 62 -24 68
-69 3 -25 36 -304 75 -620 154 -1282 142 -1200 182 -1269 10 -18 18 -34 16
-35 -2 -1 -27 -13 -55 -26 -29 -14 -53 -27 -53 -30 0 -4 -8 -15 -17 -26 -43
-49 -43 -45 -43 -521 0 -503 -8 -653 -46 -878 -72 -430 -197 -775 -411 -1128
-128 -212 -162 -311 -129 -375 9 -17 16 -33 16 -37 0 -3 -369 -5 -820 -5 -843
0 -846 0 -810 36 5 5 13 32 16 59 4 28 13 54 21 58 8 5 13 28 13 68 0 44 4 61
15 65 8 4 15 15 15 25 0 12 12 24 33 33 583 250 1057 703 1326 1266 118 248
185 453 231 709 19 110 20 152 20 968 0 493 -4 853 -9 853 -5 0 -12 12 -15 26
-10 37 -83 101 -136 118 -61 20 -85 23 -300 41 -1111 93 -1958 427 -2591 1023
-84 79 -119 106 -189 142 -88 46 -87 44 -27 73 70 35 139 104 174 175 25 50
28 68 28 152 0 79 -4 103 -24 145 -16 35 -24 70 -25 115 -2 82 -32 147 -98
213 -61 61 -148 102 -269 127 -329 67 -581 113 -624 114 -43 1 -50 4 -56 26
-9 32 -11 337 -3 379 l7 32 67 -7 c37 -3 161 -7 276 -8 l209 -1 166 62 c279
103 478 145 894 187 105 11 497 -4 640 -23z m-2380 -1531 c427 -98 395 -89
387 -109 -3 -9 -22 -41 -42 -73 -20 -31 -43 -71 -50 -90 -25 -60 -132 -252
-171 -304 -185 -251 -415 -410 -719 -499 -193 -57 -224 -71 -274 -126 -27 -30
-48 -63 -52 -84 -3 -19 -10 -35 -15 -35 -6 0 -8 -406 -7 -1017 l3 -1018 24
-105 c156 -697 506 -1239 1057 -1638 104 -76 285 -181 407 -237 81 -37 107
-54 107 -68 0 -10 9 -21 20 -24 17 -5 20 -14 20 -69 0 -48 4 -66 15 -70 9 -4
15 -19 15 -40 0 -19 4 -34 8 -34 4 0 13 -18 19 -40 l10 -40 -824 0 -824 0 15
22 c42 59 6 181 -109 368 -69 114 -205 373 -235 450 -110 277 -163 479 -211
795 -20 127 -22 192 -26 698 -3 332 -8 555 -14 551 -5 -3 -9 4 -9 15 0 12 -4
21 -10 21 -5 0 -10 6 -10 13 0 21 -47 58 -118 94 -2 1 3 12 12 25 34 52 48
128 96 526 28 230 64 525 80 657 41 333 90 746 90 757 0 4 6 8 13 8 20 0 198
83 268 125 46 28 154 127 386 358 242 240 326 317 340 313 10 -2 158 -37 328
-76z m685 -154 c85 -20 167 -36 182 -36 20 0 37 -14 76 -64 280 -356 759 -697
1283 -912 509 -209 1179 -349 1787 -371 l162 -6 0 -761 c0 -752 -4 -883 -36
-1063 -67 -389 -230 -764 -475 -1089 -89 -119 -264 -302 -389 -406 -192 -161
-483 -334 -685 -407 l-80 -29 -2 -348 c-1 -192 -4 -387 -7 -434 -17 -290 -224
-570 -509 -688 -115 -48 -222 -66 -357 -59 -130 7 -203 24 -308 73 -215 99
-374 281 -453 519 -23 68 -23 84 -29 504 l-5 433 -75 28 c-152 55 -358 165
-514 274 -498 347 -857 867 -1000 1446 -72 294 -70 249 -73 1326 l-4 971 61 6
c127 14 314 71 466 143 343 163 635 517 756 918 22 73 24 77 48 72 14 -3 95
-21 180 -40z m-40 -5666 c0 -13 7 -20 20 -20 19 0 20 -7 20 -114 0 -504 310
-905 784 -1013 48 -11 117 -16 211 -16 119 0 154 4 235 26 121 33 210 73 302
136 187 128 315 300 381 515 43 138 57 226 57 361 0 98 1 105 20 105 13 0 20
7 20 20 0 20 7 20 693 20 791 0 746 5 880 -87 45 -31 127 -75 182 -98 138 -58
173 -77 252 -136 140 -106 254 -258 306 -410 56 -163 57 -177 57 -839 0 -603
0 -610 -20 -610 -11 0 -20 -7 -20 -15 0 -13 -40 -15 -300 -15 -193 0 -300 -4
-300 -10 0 -5 -20 -10 -45 -10 -25 0 -45 -3 -45 -7 0 -5 -21 -17 -48 -27 -26
-10 -54 -24 -62 -31 -8 -7 -23 -15 -32 -18 -17 -6 -18 22 -18 498 l0 505 -140
0 -140 0 0 -505 c0 -476 -1 -504 -17 -498 -10 4 -20 9 -23 13 -8 10 -107 50
-124 50 -9 0 -16 5 -16 10 0 7 -690 10 -2050 10 -1360 0 -2050 -3 -2050 -10 0
-5 -5 -10 -11 -10 -6 0 -42 -15 -80 -34 l-69 -34 0 504 0 504 -140 0 -140 0 0
-505 0 -504 -72 37 c-40 20 -74 40 -76 45 -2 4 -12 7 -23 7 -10 0 -19 5 -19
10 0 6 -107 10 -300 10 -260 0 -300 2 -300 15 0 11 -11 15 -40 15 l-40 0 0
688 c0 658 1 691 20 746 70 203 239 399 430 496 24 12 90 42 146 65 56 23 137
67 180 97 135 94 66 87 862 87 696 1 702 1 702 -19z M3702 6155 c-49 -21 -52
-56 -11 -133 48 -90 146 -211 219 -270 250 -202 554 -189 789 33 81 77 131
140 181 228 37 66 41 99 15 127 -26 29 -60 25 -150 -20 -263 -129 -672 -127
-925 6 -81 43 -83 43 -118 29z M5795 6160 c-56 -21 -60 -66 -15 -147 50 -88
100 -151 181 -228 320 -303 748 -208 999 221 45 78 49 101 20 132 -28 30 -66
28 -132 -8 -244 -132 -660 -140 -916 -18 -37 18 -78 38 -92 44 -14 7 -34 8
-45 4z M4983 5170 c-66 -40 -86 -103 -54 -174 16 -37 29 -51 63 -66 39 -18 67
-20 335 -20 246 0 299 3 333 16 105 42 117 177 21 241 -34 23 -38 23 -350 23
-296 0 -318 -1 -348 -20z M5209 4490 c-270 -32 -460 -166 -429 -304 4 -19 17
-48 29 -64 46 -65 190 -137 326 -163 96 -19 320 -16 412 4 362 82 452 311 178
450 -138 69 -332 98 -516 77z m199 -269 c18 -11 -18 -21 -78 -21 -25 0 -56 3
-68 7 -40 10 -3 23 68 23 36 0 71 -4 78 -9z"/>
</g>
</svg>
