<?xml version="1.0" standalone="no"?>
<!DOCTYPE svg PUBLIC "-//W3C//DTD SVG 20010904//EN"
 "http://www.w3.org/TR/2001/REC-SVG-20010904/DTD/svg10.dtd">
<svg version="1.0" xmlns="http://www.w3.org/2000/svg"
 width="2048.000000pt" height="2048.000000pt" viewBox="0 0 2048.000000 2048.000000"
 preserveAspectRatio="xMidYMid meet">
<metadata>
Created by potrace 1.13, written by Peter Selinger 2001-2015
</metadata>
<g transform="translate(0.000000,2048.000000) scale(0.192120,-0.192120)"
fill="#000000" stroke="none">
<path d="M8064 10008 c-339 -342 -385 -398 -438 -538 -87 -232 -36 -494 140
-726 l62 -81 -1146 -1145 c-1107 -1105 -1151 -1148 -1262 -1221 -63 -42 -180
-107 -260 -146 -339 -164 -674 -243 -1111 -261 -235 -10 -290 -23 -396 -91
-246 -160 -411 -551 -493 -1169 -35 -260 -43 -410 -44 -775 l-1 -350 36 -102
c42 -118 82 -189 159 -281 101 -121 254 -217 417 -264 111 -32 314 -32 425 0
250 71 436 226 542 453 63 133 69 168 74 439 4 242 -10 629 -28 745 -5 33 -16
113 -25 178 -9 65 -19 125 -22 133 -3 8 3 17 13 20 209 72 512 250 789 464
266 206 427 360 1645 1576 l1245 1243 40 -35 c63 -54 173 -120 258 -154 241
-96 459 -73 677 73 25 16 253 237 508 491 l462 461 0 692 0 693 -973 0 -973 0
-320 -322z m2006 -476 l0 -538 -377 -375 c-217 -216 -402 -391 -435 -413 -140
-91 -275 -116 -428 -81 -36 9 -137 50 -225 93 -134 65 -167 77 -210 77 -47 0
-135 -29 -135 -45 0 -4 9 -15 21 -26 12 -10 35 -37 52 -59 25 -33 19 -29 -31
19 l-60 59 -54 -38 c-58 -42 -1452 -1427 -1656 -1646 -158 -168 -318 -349
-354 -397 -15 -20 -38 -75 -52 -122 -22 -77 -23 -87 -8 -102 8 -10 13 -18 11
-18 -2 0 -117 114 -254 252 -138 139 -240 243 -227 232 22 -20 27 -20 75 -8
93 22 141 40 185 68 24 15 130 112 236 216 106 105 195 188 197 185 7 -6 1485
1477 1535 1540 22 28 51 65 63 83 l24 34 -59 61 c-55 58 -40 50 33 -17 l32
-29 12 29 c35 89 23 142 -74 334 -84 166 -89 187 -85 356 3 139 3 140 38 199
38 65 473 515 547 566 23 16 59 33 80 38 21 5 386 9 811 10 l772 1 0 -538z
m-4358 -3459 c52 -35 118 -109 118 -130 0 -44 -49 -100 -212 -240 -273 -235
-507 -401 -763 -538 -129 -69 -160 -91 -231 -162 -45 -45 -95 -107 -113 -139
-27 -51 -31 -67 -31 -139 0 -80 21 -251 40 -330 5 -23 10 -234 10 -490 l0
-450 -25 -53 c-103 -222 -334 -352 -600 -339 -220 11 -410 118 -509 287 -68
115 -66 102 -66 544 0 385 1 406 24 526 14 69 34 188 46 265 72 478 190 764
356 861 67 40 134 53 319 64 557 33 963 152 1377 403 70 43 137 81 150 87 31
12 65 4 110 -27z M1316 5039 c-126 -30 -263 -133 -353 -265 -228 -335 -353
-980 -353 -1817 0 -243 11 -322 62 -444 103 -249 318 -430 585 -494 74 -18
109 -20 218 -16 151 5 221 24 360 95 74 38 108 63 191 146 83 83 108 117 146
191 85 167 91 196 96 480 8 507 -38 979 -133 1340 -44 168 -76 257 -137 380
-111 224 -249 354 -423 400 -64 16 -197 18 -259 4z m249 -300 c191 -71 321
-347 399 -849 15 -91 35 -213 46 -271 18 -95 20 -148 20 -547 0 -492 2 -474
-71 -583 -112 -167 -297 -259 -519 -259 -251 0 -466 124 -566 325 l-39 79 -3
415 c-2 384 -1 422 17 506 11 49 28 142 36 205 71 502 181 812 330 925 96 74
238 96 350 54z M6316 5039 c-126 -30 -263 -133 -353 -265 -228 -335 -353 -980
-353 -1817 0 -243 11 -322 62 -444 103 -249 318 -430 585 -494 74 -18 109 -20
218 -16 151 5 221 24 360 95 74 38 108 63 191 146 83 83 108 117 146 191 85
167 91 196 96 480 8 507 -38 979 -133 1340 -44 168 -76 257 -137 380 -111 224
-249 354 -423 400 -64 16 -197 18 -259 4z m249 -300 c191 -71 321 -347 399
-849 15 -91 35 -213 46 -271 18 -95 20 -148 20 -547 0 -492 2 -474 -71 -583
-112 -167 -297 -259 -519 -259 -251 0 -466 124 -566 325 l-39 79 -3 415 c-2
384 -1 422 17 506 11 49 28 142 36 205 71 502 181 812 330 925 96 74 238 96
350 54z M3056 4359 c-85 -114 -156 -281 -199 -469 l-22 -95 -3 -1732 -2 -1733
1110 0 1110 0 0 1703 c0 1848 2 1774 -55 1972 -33 113 -101 258 -161 342 -25
35 -48 63 -49 61 -2 -2 13 -58 35 -124 106 -333 131 -594 89 -944 -12 -96 -23
-250 -26 -342 -3 -93 -9 -168 -14 -168 -5 0 -9 -456 -9 -1100 0 -1093 0 -1100
-20 -1100 -17 0 -20 -7 -20 -45 l0 -45 -890 0 -890 0 0 45 c0 33 -4 45 -15 45
-13 0 -15 140 -15 1200 l0 1200 -27 208 c-54 422 -32 696 82 1056 20 60 34
111 32 112 -2 2 -20 -19 -41 -47z M8803 3645 c-341 -92 -555 -521 -652 -1310
-44 -355 -53 -979 -17 -1110 45 -158 156 -326 286 -432 76 -61 217 -134 310
-160 101 -27 330 -25 433 5 275 79 485 286 578 567 20 64 23 93 27 320 8 497
-37 964 -128 1326 -136 537 -370 810 -695 808 -49 0 -114 -7 -142 -14z m295
-310 c111 -60 188 -167 251 -346 45 -127 87 -305 115 -489 15 -91 35 -213 46
-271 18 -95 20 -148 20 -547 0 -493 2 -474 -73 -584 -108 -160 -270 -245 -482
-255 -132 -6 -220 10 -327 60 -101 47 -186 120 -242 209 -78 126 -76 110 -76
567 0 363 2 414 19 486 10 44 22 105 26 135 14 117 66 404 90 499 66 261 157
433 268 510 71 48 122 62 222 58 77 -2 98 -7 143 -32z M2285 3565 c69 -210
116 -410 136 -579 14 -120 6 -367 -17 -536 -8 -63 -18 -193 -21 -287 -3 -95
-9 -173 -14 -173 -5 0 -9 -291 -9 -680 0 -673 0 -680 -20 -680 -17 0 -20 -7
-20 -45 l0 -45 -890 0 -890 0 0 45 c0 33 -4 45 -15 45 -13 0 -15 94 -15 783 0
774 -1 784 -25 982 -46 366 -44 531 10 800 13 66 42 176 64 245 22 68 38 126
36 128 -8 8 -88 -111 -128 -193 -51 -103 -80 -186 -110 -317 -21 -92 -21 -106
-24 -1411 l-4 -1317 1111 0 1110 0 -3 1328 c-3 1312 -3 1328 -24 1412 -52 210
-128 376 -224 490 -17 21 -20 22 -14 5z M7285 3565 c71 -214 118 -416 136
-585 14 -125 6 -355 -17 -525 -9 -66 -18 -198 -21 -292 -3 -95 -9 -173 -14
-173 -5 0 -9 -283 -9 -680 0 -673 0 -680 -20 -680 -17 0 -20 -7 -20 -45 l0
-45 -890 0 -890 0 0 45 c0 33 -4 45 -15 45 -13 0 -15 94 -15 783 0 774 -1 784
-25 982 -46 366 -44 531 10 800 13 66 42 176 64 245 22 68 38 126 36 128 -8 8
-88 -111 -128 -193 -51 -103 -80 -186 -110 -317 -21 -92 -21 -106 -24 -1411
l-4 -1317 1111 0 1110 0 -3 1328 c-3 1312 -3 1328 -24 1412 -52 210 -128 376
-224 490 -17 21 -20 22 -14 5z M8059 2140 c-90 -122 -153 -270 -201 -465 -21
-87 -22 -114 -25 -718 l-4 -627 1110 0 1111 0 0 593 c0 641 -2 678 -57 867
-29 105 -107 266 -164 342 -23 32 -44 57 -45 55 -2 -2 10 -45 27 -96 38 -118
73 -258 96 -381 26 -143 24 -464 -5 -678 -12 -89 -22 -207 -22 -262 0 -60 -4
-100 -10 -100 -5 0 -10 -22 -10 -50 0 -43 -3 -50 -20 -50 -13 0 -20 -7 -20
-19 0 -17 -13 -19 -147 -24 -82 -3 -188 -13 -238 -22 -352 -60 -636 -61 -981
-1 -73 13 -320 35 -396 36 -14 0 -18 9 -18 40 0 27 -5 43 -15 46 -12 5 -15 25
-15 93 0 47 -11 176 -25 286 -14 110 -28 259 -31 330 -11 220 27 473 109 728
25 75 44 137 42 137 -1 0 -22 -27 -46 -60z"/>
</g>
</svg>
