<?xml version="1.0" standalone="no"?>
<!DOCTYPE svg PUBLIC "-//W3C//DTD SVG 20010904//EN"
 "http://www.w3.org/TR/2001/REC-SVG-20010904/DTD/svg10.dtd">
<svg version="1.0" xmlns="http://www.w3.org/2000/svg"
 width="2048.000000pt" height="2048.000000pt" viewBox="0 0 2048.000000 2048.000000"
 preserveAspectRatio="xMidYMid meet">
<metadata>
Created by potrace 1.13, written by Peter Selinger 2001-2015
</metadata>
<g transform="translate(0.000000,2048.000000) scale(0.192120,-0.192120)"
fill="#000000" stroke="none">
<path d="M2625 10229 c-307 -18 -636 -95 -925 -217 -73 -31 -122 -44 -214 -57
-403 -55 -780 -215 -1088 -462 l-68 -54 0 -2487 0 -2488 51 -89 c118 -206 250
-374 425 -545 241 -235 518 -417 807 -530 l107 -43 0 -198 0 -199 25 0 c31 0
85 26 85 41 0 6 4 8 9 5 17 -11 21 26 21 193 l0 167 -51 70 c-62 84 -101 113
-244 182 -298 143 -384 199 -594 385 -165 146 -441 509 -441 580 0 17 -9 47
-20 65 -20 32 -20 51 -20 1367 0 883 -3 1335 -10 1335 -5 0 -10 9 -10 19 0 11
-6 26 -13 33 -18 17 -69 99 -65 103 2 1 41 21 88 45 138 68 248 148 361 260
162 161 290 343 412 587 59 116 155 353 182 445 l16 57 137 -141 c342 -352
722 -624 1184 -848 634 -306 1290 -459 2098 -489 190 -7 233 -12 278 -29 111
-43 207 -141 281 -289 31 -62 74 -200 66 -213 -2 -3 -22 -15 -44 -24 -59 -27
-70 -58 -74 -216 -3 -74 -10 -160 -17 -190 -54 -251 -115 -353 -270 -454 -69
-45 -170 -142 -170 -163 0 -7 -4 -13 -10 -13 -5 0 -10 -11 -10 -25 0 -14 -4
-25 -10 -25 -5 0 -10 -26 -10 -57 0 -103 -20 -295 -45 -433 -40 -218 -35 -202
-110 -410 -32 -90 -145 -308 -224 -432 -45 -70 -81 -130 -81 -133 0 -13 -89
-125 -159 -200 -195 -209 -318 -297 -630 -453 -121 -61 -237 -123 -257 -138
-20 -16 -59 -57 -85 -93 l-49 -64 0 -168 c0 -167 4 -204 21 -193 5 3 9 0 9 -6
0 -13 60 -40 89 -40 20 0 21 7 23 196 l3 197 116 47 c152 61 285 133 439 235
692 460 1110 1238 1110 2065 l0 127 41 7 c153 25 308 192 383 417 50 150 70
376 46 527 -7 40 -7 76 -1 100 5 20 12 50 16 66 6 29 20 16 476 -440 l469
-469 0 -142 c0 -86 4 -144 10 -148 6 -4 25 2 43 12 43 25 47 70 13 154 -15 34
-26 64 -26 66 0 1 20 -12 45 -31 145 -111 346 -63 427 103 18 36 23 63 23 123
l0 77 22 -43 c25 -49 66 -86 94 -86 31 0 22 18 -37 81 l-57 59 2 746 c0 411 3
749 5 752 3 2 51 25 108 51 191 88 545 302 532 322 -3 5 -19 9 -36 9 -58 0
-497 85 -598 115 -13 4 -15 83 -15 627 -1 614 -1 624 -23 703 -58 206 -181
386 -366 529 -81 64 -145 106 -158 106 -5 0 -8 -403 -8 -895 0 -578 -3 -895
-10 -895 -15 0 -352 131 -515 200 -186 79 -470 219 -653 322 l-142 80 -60 87
c-32 47 -89 124 -126 171 -93 116 -329 350 -444 440 -559 432 -1215 639 -1905
599z m585 -239 c382 -66 685 -184 1000 -388 63 -41 135 -90 160 -110 89 -72
246 -211 279 -249 100 -111 163 -186 218 -258 78 -103 210 -229 299 -287 198
-129 727 -376 1034 -483 108 -37 220 -56 220 -37 0 5 13 15 30 21 29 10 30 9
30 -20 0 -16 4 -29 9 -29 5 0 33 24 61 52 54 54 110 154 110 194 0 13 5 26 10
29 6 4 10 192 11 528 0 469 5 606 21 622 14 14 42 -13 70 -68 53 -106 57 -158
58 -744 0 -343 4 -534 10 -538 6 -3 10 -22 10 -41 0 -19 4 -34 8 -34 4 0 14
-17 22 -37 7 -21 42 -68 77 -104 42 -44 63 -74 63 -90 0 -15 -28 -60 -75 -119
-41 -52 -75 -103 -75 -112 0 -10 -4 -18 -10 -18 -7 0 -10 -200 -10 -580 0
-380 3 -580 10 -580 6 0 10 -7 10 -16 0 -9 20 -56 45 -105 46 -91 98 -219 91
-226 -2 -2 -9 10 -16 27 -18 44 -102 115 -157 134 -173 59 -351 -57 -370 -242
-6 -51 -7 -53 -18 -31 -7 13 -32 80 -56 149 -23 69 -55 143 -70 165 -38 55
-550 560 -627 618 -78 59 -92 89 -93 204 l-2 88 -8 -85 c-5 -47 -12 -103 -17
-125 l-8 -40 -15 25 c-9 14 -38 63 -65 109 -80 137 -182 227 -317 280 -40 16
-180 29 -377 36 -536 18 -961 91 -1424 245 -377 126 -786 326 -1023 502 -250
185 -390 299 -568 461 -153 140 -208 181 -268 199 -35 11 -44 9 -83 -11 -88
-47 -140 -123 -234 -346 -84 -198 -157 -327 -273 -485 -126 -171 -313 -346
-347 -325 -6 4 -10 306 -10 815 l0 808 87 57 c110 70 320 174 437 214 117 41
254 75 404 101 127 21 156 30 422 123 85 30 199 65 253 78 76 18 97 27 97 40
0 20 53 33 220 55 165 21 570 12 730 -16z m3900 -2064 c0 -12 -15 -37 -34 -55
l-34 -33 -7 46 c-4 25 -4 62 -1 81 l7 35 34 -26 c21 -16 35 -35 35 -48z m-350
-1851 c10 -12 10 -18 0 -30 -10 -12 -14 -12 -26 0 -18 18 -18 45 0 45 7 0 19
-7 26 -15z M6480 7616 c0 -23 -2 -24 -30 -15 -16 6 -30 16 -30 21 0 32 -416
-38 -514 -86 -64 -31 -123 -90 -151 -148 -17 -37 -25 -43 -55 -46 -69 -5 -100
-13 -100 -27 0 -8 7 -11 20 -8 31 8 62 -18 116 -98 85 -127 159 -214 321 -377
133 -133 273 -252 297 -252 3 0 6 7 6 15 0 11 5 12 26 5 43 -17 78 -11 126 19
53 33 118 108 135 154 15 41 18 687 3 687 -5 0 -10 7 -10 16 0 17 -112 139
-142 155 -15 8 -18 5 -18 -15z m0 -523 l0 -378 -320 320 c-345 345 -335 331
-241 334 55 2 328 49 431 75 52 13 103 24 113 25 16 1 17 -23 17 -376z M1357
6706 c-101 -37 -167 -112 -188 -213 -17 -83 -8 -387 13 -435 25 -57 93 -123
150 -148 41 -18 65 -21 122 -18 113 6 195 59 240 157 19 42 21 63 21 256 0
208 0 210 -27 260 -31 60 -67 95 -128 125 -56 28 -151 36 -203 16z M3577 6706
c-81 -29 -149 -97 -175 -175 -8 -21 -12 -109 -12 -235 0 -191 1 -204 24 -251
47 -99 138 -156 251 -156 113 0 193 50 244 153 l31 61 0 192 c0 232 -8 264
-85 342 -76 76 -183 102 -278 69z M7640 6413 c-14 -2 -54 -13 -90 -24 -162
-51 -278 -162 -343 -328 -25 -66 -30 -94 -34 -206 -4 -98 -1 -152 11 -219 31
-162 98 -342 185 -496 22 -38 39 -70 37 -70 -2 0 -49 58 -105 130 -110 138
-198 226 -237 236 -32 8 -83 -23 -108 -65 -26 -45 -24 -130 8 -358 32 -225 32
-252 0 -143 -129 436 -367 729 -646 795 -177 42 -361 -15 -514 -158 -99 -92
-162 -179 -233 -317 -229 -447 -265 -1078 -91 -1584 290 -842 986 -947 1360
-205 87 173 151 392 181 619 9 67 12 283 12 729 l0 633 401 -401 c425 -425
479 -474 646 -583 269 -176 522 -262 770 -262 203 0 338 51 449 170 108 115
155 246 155 434 -1 766 -929 1689 -1689 1679 -55 -1 -111 -4 -125 -6z m10
-312 c0 -11 -6 -26 -13 -33 -38 -38 -127 -154 -127 -164 0 -6 -7 -17 -15 -24
-21 -18 -21 -221 1 -287 27 -84 110 -245 178 -346 101 -151 175 -238 368 -429
98 -97 178 -183 178 -190 -1 -8 -6 -6 -15 6 -8 11 -15 16 -15 12 0 -5 -6 -3
-13 3 -8 6 -16 9 -18 6 -3 -2 -62 38 -131 90 -126 95 -320 285 -434 425 -69
86 -158 237 -174 297 -7 26 -21 74 -31 105 -15 45 -19 88 -19 202 l0 144 39
49 c53 67 116 119 165 137 58 20 76 20 76 -3z m916 -277 c167 -123 364 -338
459 -501 43 -75 46 -84 43 -143 l-3 -63 -58 92 c-129 206 -246 345 -473 567
-68 67 -124 127 -124 133 0 17 72 -23 156 -85z m-678 65 c163 -39 409 -206
623 -420 255 -257 419 -527 419 -691 0 -52 -4 -63 -29 -89 -63 -63 -222 -29
-406 86 -136 86 -249 178 -385 315 -149 149 -268 304 -338 438 -99 191 -109
304 -30 352 37 23 78 25 146 9z m-1453 -538 c29 -10 70 -32 90 -47 47 -36 122
-140 151 -212 l24 -57 -2 -665 -2 -665 -6 505 -6 505 -26 90 c-66 228 -113
314 -247 455 -100 106 -94 132 24 91z m-395 -22 c0 -7 -27 -39 -59 -73 -66
-67 -131 -146 -131 -159 0 -4 -11 -25 -25 -45 l-25 -37 0 57 c0 50 4 62 44
115 46 63 115 125 157 142 32 13 39 13 39 0z m206 -215 c88 -42 160 -199 206
-454 18 -98 21 -153 21 -370 0 -218 -3 -272 -21 -373 -41 -223 -116 -396 -190
-439 -98 -58 -187 23 -256 234 -53 158 -68 264 -73 514 -7 293 12 462 73 649
44 136 96 214 159 241 39 17 41 17 81 -2z m2924 -464 c0 -79 -3 -95 -24 -129
-31 -48 -86 -83 -137 -86 -54 -3 -51 17 10 86 60 67 131 176 131 201 0 10 5
18 10 18 6 0 10 -37 10 -90z m-3288 -1203 c26 -40 70 -96 98 -126 27 -29 50
-59 50 -66 0 -40 -139 67 -194 149 -21 31 -26 50 -25 95 0 47 2 53 12 38 7
-11 33 -51 59 -90z m684 -31 c-25 -43 -127 -148 -143 -148 -4 0 -14 -4 -20
-10 -28 -23 -12 29 17 57 17 16 61 75 98 130 l67 99 3 -42 c2 -32 -3 -54 -22
-86z m-189 -168 c-3 -8 -6 -5 -6 6 -1 11 2 17 5 13 3 -3 4 -12 1 -19z M2205
5172 c-44 -27 -67 -67 -67 -117 0 -58 27 -101 77 -125 38 -19 63 -20 331 -20
166 0 305 4 326 10 65 18 111 99 94 165 -4 14 -22 43 -41 63 l-33 37 -329 3
c-306 2 -330 1 -358 -16z M1457 4189 c102 -175 350 -362 587 -443 435 -150
960 -91 1309 146 106 72 307 281 307 319 0 5 -458 9 -1111 9 l-1110 0 18 -31z
m1282 -225 c41 -5 61 -11 61 -20 0 -9 -12 -14 -34 -14 -19 0 -38 -4 -41 -10
-4 -6 -73 -10 -175 -10 -102 0 -171 4 -175 10 -3 6 -22 10 -41 10 -52 0 -45
28 9 33 76 7 333 7 396 1z M330 1580 l0 -1250 2918 0 2917 0 -3 747 c-2 827
-3 842 -66 1018 -108 302 -337 537 -642 658 -185 74 -135 71 -1155 74 l-916 4
1 -193 c0 -166 -3 -205 -21 -278 -40 -157 -102 -269 -212 -384 -151 -157 -333
-241 -548 -253 -422 -24 -789 261 -869 675 -9 47 -14 140 -14 253 l0 179 -695
0 -695 0 0 -1250z m1150 1000 c0 -13 7 -20 20 -20 17 0 20 -7 20 -45 0 -57 33
-209 65 -297 137 -381 479 -651 870 -687 359 -33 677 112 911 414 106 138 204
409 204 567 0 41 3 48 20 48 13 0 20 7 20 20 0 20 7 20 704 20 415 0 745 -4
805 -10 231 -24 418 -111 560 -259 101 -107 184 -250 223 -386 22 -79 22 -87
26 -723 3 -641 3 -642 -18 -642 -11 0 -20 -7 -20 -15 0 -13 -39 -15 -290 -15
-187 0 -290 -4 -290 -10 0 -5 -20 -10 -45 -10 -25 0 -45 -4 -45 -10 0 -5 -6
-10 -13 -10 -7 0 -42 -17 -79 -39 l-66 -39 -6 30 c-3 17 -6 244 -6 504 l0 474
-140 0 -140 0 0 -504 0 -504 -72 41 c-40 23 -74 45 -76 49 -2 5 -12 8 -23 8
-10 0 -19 5 -19 10 0 7 -660 10 -1960 10 -1736 0 -1960 2 -1960 15 0 11 -11
15 -40 15 l-40 0 0 990 0 990 40 0 c33 0 40 3 40 20 0 20 7 20 410 20 403 0
410 0 410 -20z"/>
</g>
</svg>
