<?xml version="1.0" standalone="no"?>
<!DOCTYPE svg PUBLIC "-//W3C//DTD SVG 20010904//EN"
 "http://www.w3.org/TR/2001/REC-SVG-20010904/DTD/svg10.dtd">
<svg version="1.0" xmlns="http://www.w3.org/2000/svg"
 width="2048.000000pt" height="2048.000000pt" viewBox="0 0 2048.000000 2048.000000"
 preserveAspectRatio="xMidYMid meet">
<metadata>
Created by potrace 1.13, written by Peter Selinger 2001-2015
</metadata>
<g transform="translate(0.000000,2048.000000) scale(0.192120,-0.192120)"
fill="#000000" stroke="none">
<path d="M4278 10315 c-667 -91 -1225 -585 -1393 -1232 -57 -218 -56 -168 -52
-2159 2 -1667 4 -1837 19 -1919 27 -144 65 -262 118 -370 l49 -100 11 -220
c26 -545 85 -897 184 -1100 53 -107 119 -177 187 -195 86 -23 308 22 563 114
54 20 103 36 110 36 6 0 22 -17 36 -37 34 -50 185 -200 243 -241 l46 -33 12
40 c10 35 9 45 -10 84 -24 49 -141 166 -192 193 -23 11 -48 15 -86 12 l-54 -5
-117 156 c-143 191 -206 291 -284 445 -130 258 -216 534 -263 843 -23 153 -39
454 -30 586 l7 117 1950 0 1951 0 -6 -29 c-3 -15 -11 -116 -17 -222 -23 -402
-55 -622 -127 -859 -40 -136 -110 -313 -165 -425 -68 -136 -260 -456 -326
-544 -34 -46 -61 -85 -60 -86 2 -1 77 -27 168 -58 208 -69 310 -91 430 -90
116 0 179 23 239 88 122 133 161 354 182 1034 l11 354 48 85 c85 148 137 325
159 541 7 68 11 701 11 1872 0 1514 -2 1784 -15 1882 -99 754 -688 1343 -1442
1442 -157 21 -1943 20 -2095 0z m2002 -295 c372 -33 684 -179 930 -436 139
-146 242 -322 295 -508 l25 -88 0 -1769 c0 -973 -3 -1769 -6 -1769 -31 0 -143
39 -208 73 l-81 42 -120 0 c-217 -1 -3447 -1 -3570 0 l-120 0 -100 -47 c-55
-25 -118 -49 -140 -53 -22 -3 -48 -8 -58 -11 -16 -5 -17 78 -15 1768 l3 1773
34 100 c99 295 278 522 549 699 188 122 431 204 669 225 134 12 1779 13 1913
1z m-3020 -4742 c-23 -28 -44 -64 -47 -80 -3 -15 -9 -28 -14 -28 -4 0 -10 -53
-12 -117 -4 -118 -21 -213 -37 -213 -19 0 -78 70 -104 121 -25 51 -26 60 -26
211 l0 158 140 0 140 0 -40 -52z m4350 -155 c0 -115 -5 -225 -10 -245 -7 -24
-28 -53 -61 -82 -57 -51 -69 -56 -69 -26 0 11 -4 20 -9 20 -5 0 -11 88 -13
198 -4 216 -9 238 -68 305 l-32 37 131 0 131 0 0 -207z m-337 -1703 c-26 -82
-58 -112 -124 -117 -30 -2 -76 2 -104 9 -80 21 -77 42 42 278 55 107 121 242
148 300 l50 105 3 -260 c2 -223 0 -268 -15 -315z m-3848 410 c69 -155 94 -204
155 -314 94 -168 91 -194 -23 -203 -81 -7 -102 5 -136 72 -49 98 -61 173 -61
374 0 211 1 212 65 71z M3635 5138 c60 -996 378 -1738 889 -2076 424 -280
1031 -309 1487 -71 484 254 818 827 958 1649 35 203 69 590 52 590 -22 0 -111
-106 -111 -131 0 -10 -4 -19 -9 -21 -5 -1 -21 -88 -35 -193 -26 -189 -35 -231
-75 -375 -22 -79 -44 -168 -85 -341 -19 -82 -45 -147 -111 -283 -47 -97 -85
-180 -85 -183 0 -17 -89 -156 -143 -223 -123 -152 -238 -246 -411 -334 -203
-104 -382 -146 -626 -146 -236 0 -400 34 -585 120 -126 58 -187 99 -284 188
-175 161 -326 385 -426 631 -119 294 -181 545 -235 961 -11 85 -26 166 -32
180 -22 45 -76 115 -108 138 l-31 23 6 -103z M4422 5149 c-29 -15 -51 -36 -70
-68 -26 -45 -27 -49 -27 -211 0 -135 3 -170 17 -195 76 -139 293 -140 365 -1
11 22 15 68 15 196 1 164 0 170 -25 213 -49 84 -177 114 -275 66z M6040 5159
c-32 -13 -78 -57 -96 -91 -20 -38 -20 -357 0 -396 62 -119 251 -137 339 -33
40 48 49 98 45 255 -4 164 -17 202 -81 244 -33 22 -54 27 -111 29 -39 2 -82
-2 -96 -8z M5082 4177 c-37 -21 -56 -57 -56 -109 0 -42 5 -54 32 -81 l32 -32
208 -3 c114 -2 221 -1 238 3 70 13 110 97 80 168 -26 62 -47 67 -293 67 -156
-1 -224 -4 -241 -13z M4765 3706 c-37 -16 -82 -68 -91 -102 -10 -41 2 -110 25
-143 53 -75 242 -171 406 -207 107 -23 311 -23 420 0 164 36 352 132 406 208
50 69 30 177 -40 225 -71 49 -130 39 -246 -42 -90 -63 -159 -80 -330 -80 -169
0 -239 17 -330 78 -116 78 -158 90 -220 63z M6442 3167 c-63 -33 -169 -142
-188 -193 -13 -35 -14 -49 -4 -79 l12 -36 36 28 c110 82 272 249 272 279 0 12
-31 24 -65 24 -11 0 -40 -10 -63 -23z M4394 2821 c-46 -28 -74 -95 -87 -210
-13 -123 -3 -178 60 -302 34 -68 64 -111 129 -179 170 -178 350 -281 597 -342
l87 -21 -58 -38 c-65 -42 -142 -120 -142 -143 0 -10 -6 -13 -15 -10 -13 5 -15
-49 -15 -450 0 -449 0 -456 -20 -456 -17 0 -20 -7 -20 -40 l0 -40 -1050 0
-1050 0 0 395 0 395 35 154 c19 85 35 170 35 189 0 46 -23 108 -59 161 l-30
43 122 21 c67 12 367 60 667 108 590 93 593 94 625 161 17 35 17 43 1 157 -9
67 -18 130 -20 142 -2 19 0 20 25 11 21 -8 35 -7 56 3 28 14 28 15 -30 20 -58
5 -59 5 -73 45 -15 46 -56 83 -99 90 -16 3 -268 -32 -560 -79 -291 -46 -595
-95 -674 -107 -129 -20 -148 -26 -178 -52 -50 -44 -54 -73 -28 -238 12 -79 25
-158 29 -176 8 -34 66 -93 91 -93 20 0 20 0 -26 -91 -81 -161 -140 -396 -159
-633 -5 -71 -10 -299 -10 -507 l0 -379 1320 0 1320 0 0 718 0 718 140 0 140 0
0 -718 0 -718 1320 0 1320 0 0 373 c0 204 -5 433 -10 507 -19 240 -78 476
-161 642 -22 43 -39 80 -39 83 0 3 9 5 19 5 29 0 78 46 90 83 13 42 51 288 51
330 0 41 -31 92 -69 111 -17 9 -281 55 -603 106 -315 50 -613 97 -663 106 -49
8 -104 13 -122 9 -46 -8 -91 -50 -103 -96 l-11 -39 -62 0 c-55 0 -60 -2 -46
-15 18 -18 44 -22 77 -11 27 9 28 -2 7 -129 -8 -49 -15 -106 -15 -125 0 -44
30 -94 68 -114 16 -8 303 -58 638 -111 335 -53 632 -102 661 -108 l52 -12 -33
-50 c-18 -27 -38 -65 -45 -84 -18 -53 -13 -147 14 -261 24 -103 25 -114 25
-522 l0 -418 -1050 0 -1050 0 0 40 c0 33 -3 40 -20 40 -20 0 -20 7 -20 450 0
250 -4 450 -9 450 -5 0 -11 14 -15 30 -7 36 -47 77 -129 130 l-57 38 52 12
c257 60 475 182 635 354 109 117 180 255 190 365 7 76 -13 206 -39 259 -21 44
-68 82 -100 82 -13 0 -18 -8 -18 -30 0 -21 -4 -28 -14 -24 -8 3 -17 1 -21 -5
-4 -7 0 -8 11 -4 14 5 15 1 9 -28 -51 -250 -397 -449 -806 -466 -106 -4 -159
-2 -235 12 -365 65 -625 241 -669 453 -4 21 -3 32 5 32 7 0 5 6 -4 16 -9 8
-16 22 -16 30 0 20 -29 17 -66 -5z M4565 2725 c125 -109 268 -180 449 -223
100 -23 131 -26 311 -26 257 -1 400 27 566 110 59 29 221 142 234 163 2 5 -30
-9 -73 -30 -200 -101 -402 -152 -645 -165 -269 -14 -553 44 -792 161 l-90 44
40 -34z"/>
</g>
</svg>
