<?xml version="1.0" standalone="no"?>
<!DOCTYPE svg PUBLIC "-//W3C//DTD SVG 20010904//EN"
 "http://www.w3.org/TR/2001/REC-SVG-20010904/DTD/svg10.dtd">
<svg version="1.0" xmlns="http://www.w3.org/2000/svg"
 width="2048.000000pt" height="2048.000000pt" viewBox="0 0 2048.000000 2048.000000"
 preserveAspectRatio="xMidYMid meet">
<metadata>
Created by potrace 1.13, written by Peter Selinger 2001-2015
</metadata>
<g transform="translate(0.000000,2048.000000) scale(0.192120,-0.192120)"
fill="#000000" stroke="none">
<path d="M4995 10320 c-378 -29 -682 -80 -1010 -170 -1022 -282 -1878 -903
-2416 -1755 -360 -569 -573 -1205 -656 -1955 -16 -142 -18 -254 -18 -815 0
-438 4 -702 13 -810 47 -593 135 -966 308 -1315 175 -351 400 -603 740 -827
133 -87 338 -194 487 -254 l107 -43 0 -622 c0 -389 4 -652 11 -701 26 -188 99
-333 239 -473 124 -124 223 -181 391 -227 90 -24 299 -24 394 1 237 62 438
224 548 443 15 28 39 91 54 140 l27 88 4 509 3 508 92 -6 c51 -4 113 -9 140
-12 l47 -6 0 -474 c0 -526 3 -564 64 -704 64 -151 168 -277 300 -364 137 -91
257 -132 416 -142 349 -23 677 180 816 506 61 140 64 178 64 704 l0 475 53 5
c28 3 91 8 139 12 l87 6 3 -509 4 -508 27 -88 c47 -152 111 -259 219 -365 274
-269 680 -317 1016 -121 85 51 238 209 289 299 52 93 88 201 102 303 7 49 11
312 11 701 l0 622 108 43 c59 24 167 74 241 112 731 376 1111 944 1246 1857
51 344 59 514 60 1227 0 724 -4 797 -66 1164 -329 1965 -1812 3320 -3859 3526
-180 18 -685 27 -845 15z m660 -170 c1094 -73 2041 -476 2747 -1170 304 -299
521 -599 781 -1075 189 -347 309 -734 394 -1265 27 -164 27 -170 31 -825 5
-809 -9 -1054 -94 -1640 -39 -263 -171 -600 -324 -824 -108 -160 -204 -255
-416 -417 -116 -89 -272 -183 -453 -273 -167 -83 -203 -105 -257 -157 -35 -34
-66 -74 -70 -88 -3 -14 -10 -26 -15 -26 -5 0 -9 -11 -9 -24 0 -13 -7 -26 -15
-30 -13 -5 -15 -83 -15 -618 0 -592 -1 -616 -21 -688 -34 -120 -48 -155 -89
-217 -72 -108 -149 -175 -261 -227 -207 -96 -468 -83 -657 31 -124 76 -246
226 -273 338 -6 28 -19 70 -27 95 -13 38 -17 119 -20 493 -2 246 -7 447 -11
447 -5 0 -11 14 -15 30 -7 36 -15 48 -79 111 -59 59 -98 72 -190 67 -85 -5
-126 -23 -187 -82 -62 -61 -70 -71 -76 -106 -4 -16 -13 -30 -20 -30 -12 0 -14
-71 -14 -422 0 -338 -3 -435 -15 -481 -8 -31 -21 -81 -28 -110 -47 -182 -208
-345 -408 -411 -175 -58 -363 -44 -534 39 -193 93 -288 222 -349 467 -13 56
-16 132 -16 492 0 277 -3 426 -10 426 -5 0 -10 9 -10 19 0 11 -3 21 -7 23 -5
2 -15 17 -23 34 -20 42 -115 122 -159 134 -52 14 -156 12 -195 -4 -64 -27
-166 -138 -166 -181 0 -8 -4 -15 -9 -15 -6 0 -11 -185 -13 -447 -4 -490 1
-438 -65 -630 -21 -62 -84 -153 -149 -217 -155 -153 -442 -215 -669 -145 -219
67 -394 251 -441 464 -31 135 -33 175 -33 748 -1 377 -4 577 -11 577 -5 0 -10
9 -10 21 0 33 -46 102 -104 157 -39 37 -97 72 -227 137 -240 120 -351 187
-509 309 -248 190 -467 505 -588 846 -68 193 -104 341 -149 613 l-27 162 -3
945 c-4 917 -3 949 17 1090 75 522 217 970 440 1389 104 196 164 292 295 476
134 187 227 296 395 465 568 568 1290 945 2135 1115 409 82 881 113 1300 85z
M3210 7820 c-165 -23 -339 -80 -487 -160 -244 -131 -471 -369 -589 -617 -87
-185 -123 -336 -130 -553 -9 -261 28 -438 141 -665 77 -155 162 -271 284 -387
264 -252 589 -382 956 -382 292 0 521 69 768 230 120 78 294 248 373 364 111
161 197 374 228 559 20 120 21 337 1 459 -92 566 -540 1026 -1106 1137 -99 19
-346 28 -439 15z m315 -291 c144 -18 270 -54 391 -114 237 -116 401 -278 504
-499 65 -138 70 -171 70 -468 0 -228 -3 -275 -19 -339 -53 -204 -196 -416
-369 -546 -209 -158 -448 -235 -722 -235 -319 1 -594 109 -813 321 -44 42 -94
97 -113 123 -57 77 -124 205 -155 298 l-29 88 0 284 c0 261 2 290 21 349 118
365 457 650 859 723 153 28 242 31 375 15z M7101 7820 c-594 -83 -1056 -509
-1186 -1093 -26 -114 -31 -382 -11 -509 57 -344 245 -658 521 -873 336 -260
764 -352 1175 -253 543 130 954 577 1046 1138 24 143 14 391 -21 530 -64 258
-175 459 -358 647 -119 123 -235 207 -382 278 -127 62 -230 97 -347 120 -98
19 -346 28 -437 15z m426 -309 c384 -79 696 -336 815 -674 l28 -78 0 -313 c0
-304 -1 -314 -24 -382 -38 -109 -62 -160 -117 -242 -78 -116 -133 -177 -229
-251 -214 -165 -446 -242 -730 -242 -506 -1 -936 297 -1086 751 -27 82 -28 93
-32 337 -3 230 -2 260 17 335 43 170 140 328 287 468 276 262 677 371 1071
291z M5185 4204 c-149 -31 -325 -148 -364 -242 -11 -26 -28 -39 -77 -62 -86
-39 -166 -116 -207 -199 -30 -62 -32 -72 -32 -176 0 -105 2 -114 33 -178 42
-85 116 -158 201 -199 126 -60 291 -47 407 33 55 38 110 102 137 162 18 38 27
47 47 47 20 0 29 -9 47 -47 27 -60 82 -124 137 -162 117 -81 285 -94 410 -32
85 42 156 112 198 198 31 64 33 73 33 178 0 104 -2 114 -32 176 -41 83 -121
160 -207 199 -49 23 -66 36 -76 61 -25 59 -118 142 -210 187 -141 68 -292 87
-445 56z m280 -299 c77 -20 111 -43 273 -183 l132 -115 0 -78 c0 -92 -12 -111
-81 -129 -78 -21 -123 -4 -252 94 -195 149 -211 149 -433 -11 -115 -83 -171
-103 -240 -84 -23 6 -53 23 -68 37 -22 23 -26 35 -26 88 0 71 1 73 90 147 36
30 93 80 127 111 76 70 131 103 203 122 73 19 201 20 275 1z"/>
</g>
</svg>
