<?xml version="1.0" standalone="no"?>
<!DOCTYPE svg PUBLIC "-//W3C//DTD SVG 20010904//EN"
 "http://www.w3.org/TR/2001/REC-SVG-20010904/DTD/svg10.dtd">
<svg version="1.0" xmlns="http://www.w3.org/2000/svg"
 width="2048.000000pt" height="2048.000000pt" viewBox="0 0 2048.000000 2048.000000"
 preserveAspectRatio="xMidYMid meet">
<metadata>
Created by potrace 1.13, written by Peter Selinger 2001-2015
</metadata>
<g transform="translate(0.000000,2048.000000) scale(0.192120,-0.192120)"
fill="#000000" stroke="none">
<path d="M2565 10319 c-320 -30 -669 -121 -960 -250 -107 -47 -113 -49 -160
-39 -85 18 -370 24 -485 11 -192 -22 -410 -80 -587 -158 l-43 -18 0 -4767 0
-4768 2918 0 2917 0 -2 742 c-2 463 -7 767 -13 808 -15 88 -50 201 -66 207 -7
2 -33 -4 -58 -15 -86 -38 -81 9 -84 -794 -3 -691 -4 -708 -23 -708 -10 0 -19
-7 -19 -15 0 -13 -40 -15 -300 -15 -193 0 -300 -4 -300 -10 0 -5 -20 -10 -44
-10 -24 0 -46 -3 -48 -7 -1 -5 -34 -23 -71 -42 -57 -28 -70 -32 -78 -20 -5 8
-9 233 -9 502 l0 487 -138 0 -139 0 5 -347 c3 -192 1 -419 -3 -505 l-7 -157
-67 37 c-36 20 -67 40 -69 44 -2 4 -12 8 -23 8 -10 0 -19 5 -19 10 0 7 -662
10 -1965 10 -1740 0 -1965 2 -1965 15 0 11 -12 15 -45 15 l-45 0 0 40 c0 29
-4 40 -15 40 -13 0 -15 112 -15 950 0 627 -3 950 -10 950 -5 0 -10 9 -10 20 0
11 -4 20 -9 20 -5 0 -12 9 -16 19 -3 11 -37 61 -75 113 -39 51 -70 96 -70 101
0 4 308 7 685 7 l685 0 0 213 -1 212 -124 49 c-200 78 -424 210 -615 363 -202
162 -419 408 -539 612 l-32 53 58 58 c32 31 64 64 71 73 9 13 12 302 12 1367
0 773 -4 1349 -9 1346 -5 -3 -11 7 -14 22 -5 25 -30 62 -92 138 l-26 32 144
70 c423 207 692 556 822 1067 29 117 41 188 61 379 l6 59 39 -99 c103 -257
330 -573 573 -799 411 -382 904 -647 1551 -834 342 -99 879 -183 1255 -197 80
-3 155 -7 168 -10 l23 -5 -3 -832 c-4 -923 -3 -901 -77 -1188 -196 -756 -745
-1384 -1470 -1680 l-114 -47 -2 -211 -2 -211 876 0 c738 0 891 -2 970 -15 342
-56 633 -269 812 -593 11 -20 49 -46 125 -87 418 -222 922 -581 1384 -985 195
-171 534 -497 685 -659 82 -88 153 -157 156 -153 25 27 1940 2494 1937 2496
-2 1 -48 19 -103 41 -262 101 -745 329 -1059 500 -565 307 -1184 737 -1556
1082 l-60 55 0 1196 0 1195 100 103 c55 56 100 107 100 113 0 29 -80 33 -111
5 -12 -10 -34 -46 -49 -79 -27 -59 -28 -60 -34 -30 -26 115 -61 171 -141 220
-41 25 -61 31 -125 33 -100 5 -162 -20 -227 -92 -26 -29 -43 -42 -40 -31 26
88 28 106 15 132 -27 55 -38 40 -38 -51 l0 -85 -370 -369 c-203 -203 -370
-374 -370 -380 0 -6 25 -19 55 -28 102 -29 171 -4 291 106 42 38 80 67 85 65
11 -7 179 185 179 205 0 8 22 74 49 145 50 134 94 235 87 200 -3 -11 -7 -34
-11 -52 -9 -47 20 -149 58 -201 19 -26 55 -58 87 -76 49 -28 64 -31 135 -31
88 0 133 17 200 76 l36 32 -20 -49 c-11 -27 -36 -82 -55 -122 -20 -40 -36 -77
-36 -81 0 -5 -6 -11 -12 -14 -19 -6 -19 -1966 0 -1987 7 -8 20 -25 30 -37 10
-11 44 -29 75 -38 l58 -17 -3 -486 c-4 -539 -3 -532 -73 -679 -68 -146 -177
-277 -320 -388 -72 -55 -146 -105 -156 -105 -2 0 -3 504 -1 1120 l3 1120 -84
103 c-410 499 -721 1044 -901 1577 -90 268 -136 487 -136 655 0 241 -66 588
-166 875 -153 442 -392 820 -728 1155 -486 485 -1078 776 -1766 870 -139 19
-517 27 -655 14z m610 -325 c809 -90 1552 -539 1993 -1204 88 -133 200 -348
260 -502 99 -253 166 -579 178 -863 11 -246 74 -532 184 -832 56 -151 64 -169
295 -613 225 -435 331 -604 536 -860 49 -61 89 -115 89 -119 0 -4 9 -16 20
-26 19 -18 20 -34 22 -1019 3 -874 5 -1007 19 -1052 44 -146 187 -294 283
-294 113 0 332 165 471 355 189 258 265 487 265 800 0 135 0 135 23 135 15 0
80 -42 168 -108 485 -365 1102 -730 1702 -1007 191 -89 191 -89 134 -178 -45
-70 -1363 -1765 -1400 -1799 -54 -51 -70 -43 -232 110 -314 297 -417 391 -586
536 -409 352 -851 670 -1209 869 -162 90 -211 128 -309 241 -252 291 -477 432
-801 502 -64 14 -183 18 -790 23 -393 4 -723 10 -732 15 -39 18 -18 45 77 97
33 18 119 72 190 120 595 400 1006 1019 1173 1766 l26 118 3 898 c2 493 0 897
-5 897 -4 0 -14 16 -20 34 -8 21 -43 62 -84 100 -88 82 -118 92 -348 111 -228
20 -400 40 -585 71 -865 143 -1577 470 -2055 944 -138 136 -221 240 -361 450
-128 193 -213 290 -274 315 -44 19 -81 6 -141 -51 -63 -60 -108 -152 -149
-304 -79 -296 -145 -456 -255 -620 -99 -148 -274 -312 -315 -296 -13 5 -15
110 -13 953 l3 948 84 22 c193 51 259 57 545 55 169 -1 285 2 310 9 23 6 118
40 212 75 483 179 907 233 1399 178z m4115 -2982 c0 -5 -6 -16 -12 -25 -16
-20 -44 -7 -35 17 6 16 47 23 47 8z m-6532 -3441 c170 -153 332 -272 487 -356
108 -59 137 -92 98 -111 -10 -5 -177 -10 -370 -12 l-353 -3 0 295 c0 163 4
296 9 296 4 0 63 -49 129 -109z M6586 10035 c-337 -93 -608 -521 -681 -1078
-31 -237 -15 -568 37 -792 93 -401 296 -712 544 -833 217 -107 456 -58 650
133 154 152 260 346 350 640 16 52 23 66 19 40 -42 -349 -41 -420 6 -487 29
-40 56 -49 99 -31 53 21 98 70 247 266 74 97 136 177 137 177 1 0 -28 -60 -65
-134 -117 -235 -162 -399 -163 -606 -1 -123 2 -142 27 -217 88 -256 282 -386
577 -385 66 0 149 7 195 17 672 139 1346 822 1471 1490 24 129 15 303 -19 404
-63 182 -201 307 -392 356 -79 21 -266 21 -373 0 -240 -46 -520 -186 -760
-379 -44 -36 -275 -260 -511 -497 l-431 -431 0 556 c0 315 -5 599 -10 654 -72
670 -419 1156 -823 1151 -45 0 -104 -7 -131 -14z m-19 -337 c-3 -8 -6 -5 -6 6
-1 11 2 17 5 13 3 -3 4 -12 1 -19z m-17 0 c0 -7 -29 -44 -65 -81 -35 -38 -88
-104 -117 -149 -48 -73 -53 -77 -56 -52 -7 52 9 92 59 158 66 85 179 164 179
124z m413 -26 c37 -25 96 -90 130 -144 10 -16 17 -47 17 -74 l0 -47 -20 26
c-11 14 -20 28 -20 32 0 11 -58 84 -117 147 -29 31 -53 62 -53 68 0 6 -4 9 -9
6 -5 -3 -12 1 -15 9 -8 22 39 10 87 -23z m-198 -188 c149 -70 252 -505 225
-952 -25 -428 -133 -702 -277 -702 -101 0 -204 207 -250 502 -27 174 -24 520
6 693 40 233 114 407 193 455 40 24 60 25 103 4z m2888 -794 c51 -25 66 -36
95 -74 21 -28 22 -36 21 -235 0 -113 -4 -215 -9 -226 -5 -12 -9 36 -9 129 -1
134 -3 152 -23 185 -20 34 -125 170 -138 181 -13 10 -29 48 -23 54 12 11 43 6
86 -14z m-829 -185 c-4 -8 -8 -15 -10 -15 -2 0 -4 7 -4 15 0 8 4 15 10 15 5 0
7 -7 4 -15z m-24 -9 c0 -3 -78 -83 -173 -179 -234 -235 -366 -407 -467 -606
-68 -134 -90 -214 -90 -320 0 -78 3 -89 36 -150 20 -36 59 -92 86 -123 54 -62
59 -93 18 -93 -55 -1 -135 54 -201 138 l-39 49 0 174 c0 168 1 177 30 261 17
47 42 107 57 132 129 223 492 590 698 708 21 11 45 16 45 9z m691 -34 c85 -76
19 -281 -173 -542 -86 -117 -354 -384 -466 -465 -177 -129 -314 -194 -422
-202 -114 -8 -159 45 -140 162 28 170 182 407 420 646 261 262 531 428 697
429 44 0 58 -5 84 -28z m-2273 -387 c-3 -155 -4 -162 -34 -225 -57 -120 -123
-204 -185 -236 -54 -27 -143 -42 -153 -25 -4 6 30 48 77 93 89 89 157 198 205
328 26 71 81 280 84 320 5 63 9 -111 6 -255z m2426 -209 c-69 -129 -210 -308
-333 -424 -90 -84 -259 -203 -294 -206 -4 -1 -12 -8 -17 -16 -6 -10 -10 -11
-10 -3 0 7 70 81 156 165 223 218 373 405 485 603 l34 60 3 -64 c3 -55 -1 -73
-24 -115z m-3230 -71 c16 -22 54 -67 83 -101 29 -34 53 -67 53 -75 0 -11 -2
-11 -10 1 -5 8 -10 11 -10 6 0 -5 -6 -3 -13 3 -8 6 -16 9 -19 6 -8 -9 -116 94
-147 142 -26 39 -31 56 -31 107 l0 61 32 -55 c17 -30 45 -73 62 -95z M1357
6706 c-101 -37 -167 -112 -188 -213 -17 -85 -7 -387 15 -436 26 -58 90 -122
148 -147 62 -27 171 -25 230 4 52 25 107 82 132 135 19 42 21 63 21 256 0 208
0 210 -27 260 -31 60 -67 95 -128 125 -56 28 -151 36 -203 16z m103 -406 c0
-120 -2 -142 -16 -147 -28 -10 -34 18 -34 155 l0 132 25 0 25 0 0 -140z M3563
6699 c-58 -22 -121 -80 -149 -137 -16 -32 -19 -66 -22 -247 -4 -237 2 -266 67
-338 52 -58 120 -87 204 -87 115 0 195 50 246 152 l31 61 0 192 c0 232 -8 264
-85 342 -81 81 -185 103 -292 62z m117 -404 c0 -138 -1 -145 -20 -145 -19 0
-20 7 -20 145 0 138 1 145 20 145 19 0 20 -7 20 -145z M6897 6476 c-20 -8 -61
-32 -90 -53 -68 -52 -205 -201 -239 -261 -30 -53 -61 -190 -56 -248 l3 -39
240 238 c132 130 241 237 242 237 2 0 3 -256 3 -570 l0 -570 46 0 c25 0 59 8
75 17 58 34 59 47 59 561 l0 467 -24 50 c-43 92 -146 186 -203 185 -10 -1 -35
-7 -56 -14z M2203 5171 c-85 -53 -85 -185 1 -237 28 -17 58 -19 316 -22 157
-2 304 -1 327 3 80 12 138 95 119 170 -4 14 -22 43 -41 63 l-33 37 -329 3
c-312 2 -330 1 -360 -17z M1630 4559 c-68 -7 -124 -25 -140 -45 -11 -12 125
-14 1066 -14 1066 0 1079 1 1054 20 -56 43 -72 43 -1020 44 -498 1 -930 -2
-960 -5z M3652 4464 c-4 -26 -157 -187 -234 -247 -261 -202 -544 -286 -923
-274 -249 8 -426 51 -615 149 -148 76 -266 173 -383 313 l-50 60 5 -42 c7 -52
60 -132 135 -204 166 -159 375 -254 673 -305 152 -26 453 -24 610 4 229 42
429 120 561 221 138 104 235 235 226 304 -2 18 -5 27 -5 21z M1720 2640 c0
-117 5 -195 16 -247 85 -412 443 -691 859 -670 312 16 575 193 711 480 64 136
80 242 76 495 l-2 102 -31 0 c-50 0 -129 -43 -129 -69 0 -6 -4 -11 -10 -11 -6
0 -10 -38 -10 -94 0 -68 -7 -121 -25 -192 -33 -128 -48 -164 -95 -233 -219
-323 -730 -360 -1009 -72 -61 63 -130 186 -141 253 -5 29 -14 69 -20 88 -5 19
-10 83 -10 142 0 65 -4 108 -10 108 -5 0 -10 5 -10 11 0 20 -54 59 -90 65 -19
3 -43 8 -52 11 -17 4 -18 -9 -18 -167z"/>
</g>
</svg>
