<?xml version="1.0" standalone="no"?>
<!DOCTYPE svg PUBLIC "-//W3C//DTD SVG 20010904//EN"
 "http://www.w3.org/TR/2001/REC-SVG-20010904/DTD/svg10.dtd">
<svg version="1.0" xmlns="http://www.w3.org/2000/svg"
 width="2048.000000pt" height="2048.000000pt" viewBox="0 0 2048.000000 2048.000000"
 preserveAspectRatio="xMidYMid meet">
<metadata>
Created by potrace 1.13, written by Peter Selinger 2001-2015
</metadata>
<g transform="translate(0.000000,2048.000000) scale(0.192120,-0.192120)"
fill="#000000" stroke="none">
<path d="M4278 10315 c-667 -91 -1225 -585 -1393 -1232 -57 -219 -56 -168 -52
-2164 3 -1679 5 -1841 20 -1919 30 -149 66 -262 117 -365 l49 -100 11 -220
c26 -545 85 -897 184 -1100 52 -107 119 -177 186 -195 83 -22 242 7 496 92
l182 60 -58 76 c-31 43 -90 121 -129 174 -357 485 -542 1121 -514 1766 l6 142
1949 0 1948 0 -4 -22 c-5 -21 -16 -193 -31 -453 -22 -374 -142 -813 -307
-1115 -104 -191 -238 -413 -296 -489 -34 -46 -61 -85 -60 -86 2 -2 77 -28 168
-58 208 -69 309 -91 430 -90 117 0 179 23 241 90 123 134 165 392 184 1146 l7
249 29 44 c69 101 127 262 166 454 15 78 17 240 20 1919 3 1597 2 1850 -12
1951 -98 756 -687 1346 -1442 1445 -157 21 -1943 20 -2095 0z m2002 -295 c372
-33 683 -179 930 -436 173 -181 264 -359 332 -654 l22 -95 3 -1625 c2 -1033 7
-1628 13 -1634 6 -6 10 -29 10 -51 0 -23 3 -44 6 -48 16 -15 64 -177 70 -231
8 -74 -10 -279 -35 -401 l-19 -90 -1 288 -1 287 -144 0 -144 0 -7 53 c-21 159
-115 214 -291 169 -44 -11 -99 -23 -124 -27 -25 -4 -738 -7 -1585 -7 -1349 1
-1548 3 -1605 17 -157 37 -177 39 -234 26 -86 -19 -136 -90 -136 -193 l0 -38
-162 0 -163 0 3 -102 c2 -57 0 -155 -4 -218 -6 -96 -9 -109 -15 -75 -5 22 -11
106 -15 187 l-7 146 34 109 c18 59 37 110 41 111 4 2 8 24 8 48 0 24 4 44 10
44 6 0 11 587 13 1628 l3 1627 22 99 c82 375 264 643 577 850 197 131 436 214
682 235 134 12 1779 13 1913 1z m988 -6415 c-3 -190 -9 -216 -59 -266 -22 -22
-105 -26 -158 -8 -52 18 -43 49 92 314 l122 240 3 -50 c2 -27 2 -131 0 -230z
m-3809 98 c29 -60 75 -147 103 -195 54 -97 68 -147 46 -166 -8 -6 -38 -13 -66
-14 -62 -3 -84 14 -120 92 -24 50 -26 69 -30 223 -2 97 0 167 5 167 5 0 33
-48 62 -107z M3630 5253 c0 -324 81 -822 187 -1148 123 -377 277 -648 493
-865 205 -207 443 -331 735 -386 135 -25 428 -26 565 0 521 95 913 450 1154
1044 106 258 179 544 226 877 22 156 47 521 37 531 -9 9 -44 -15 -91 -62 -65
-65 -82 -117 -112 -339 -14 -110 -39 -249 -55 -310 -16 -60 -41 -153 -55 -205
-13 -52 -34 -138 -45 -190 -24 -112 -29 -128 -85 -241 -198 -405 -383 -623
-636 -752 -99 -50 -276 -104 -368 -112 -153 -14 -370 -17 -383 -7 -8 7 -29 9
-50 5 -20 -3 -37 -2 -37 3 0 5 -25 9 -55 9 -30 0 -55 3 -55 7 0 4 -6 5 -13 2
-13 -5 -132 31 -227 69 -236 94 -471 330 -616 619 -148 295 -238 628 -300
1111 -14 111 -30 204 -35 205 -5 2 -9 12 -9 23 0 10 -4 19 -9 19 -5 0 -12 8
-15 18 -7 20 -77 94 -118 123 l-28 20 0 -68z M4415 5146 c-23 -14 -51 -43 -65
-68 -24 -41 -25 -51 -25 -198 0 -174 4 -195 42 -241 71 -84 220 -92 301 -16
52 48 57 70 57 247 0 162 -1 166 -27 212 -37 61 -91 88 -179 88 -50 0 -73 -6
-104 -24z M6040 5159 c-32 -13 -78 -56 -96 -91 -20 -38 -20 -357 0 -396 60
-116 242 -139 329 -42 50 55 59 100 55 264 -4 168 -16 203 -87 247 -38 25 -55
29 -110 28 -37 0 -77 -5 -91 -10z M3403 5005 c0 -22 2 -30 4 -17 2 12 2 30 0
40 -3 9 -5 -1 -4 -23z M3411 4925 c-1 -46 30 -273 54 -390 26 -131 81 -332
125 -460 41 -119 159 -399 166 -392 2 1 -16 51 -41 109 -126 305 -231 705
-293 1113 -8 52 -10 55 -11 20z M7191 4634 c0 -11 3 -14 6 -6 3 7 2 16 -1 19
-3 4 -6 -2 -5 -13z M7181 4584 c0 -11 3 -14 6 -6 3 7 2 16 -1 19 -3 4 -6 -2
-5 -13z M7172 4530 c0 -14 2 -19 5 -12 2 6 2 18 0 25 -3 6 -5 1 -5 -13z M7161
4484 c0 -11 3 -14 6 -6 3 7 2 16 -1 19 -3 4 -6 -2 -5 -13z M7146 4424 c-4 -20
-5 -38 -3 -40 3 -3 8 11 11 32 4 20 5 38 3 40 -3 3 -8 -11 -11 -32z M7131
4354 c0 -11 3 -14 6 -6 3 7 2 16 -1 19 -3 4 -6 -2 -5 -13z M7111 4284 c-7 -25
-10 -48 -8 -51 3 -2 10 17 16 43 7 25 10 48 8 51 -3 2 -10 -17 -16 -43z M5073
4170 c-60 -36 -66 -134 -11 -187 l29 -28 219 -3 c248 -3 275 2 304 63 20 41
20 66 2 110 -25 60 -48 65 -293 65 -199 0 -221 -2 -250 -20z M7076 4164 c-4
-14 -5 -28 -3 -31 3 -2 8 8 11 23 4 14 5 28 3 31 -3 2 -8 -8 -11 -23z M4740
3767 c-26 -14 -61 -44 -82 -73 -37 -48 -38 -51 -38 -136 0 -70 4 -94 23 -130
37 -72 132 -160 217 -201 65 -31 123 -57 140 -62 48 -15 101 -28 125 -32 17
-3 37 -8 45 -12 14 -6 208 -5 270 3 78 9 140 26 261 74 138 55 226 128 277
232 39 78 44 167 13 229 -43 84 -142 141 -220 126 -20 -4 -87 -31 -150 -61
-131 -63 -177 -74 -306 -74 -135 0 -186 13 -320 80 -137 69 -179 75 -255 37z
m178 -76 c53 -42 128 -82 197 -104 58 -18 93 -22 200 -22 107 0 142 4 200 22
69 22 143 62 198 105 39 32 133 32 174 2 69 -51 94 -144 58 -213 -38 -74 -212
-175 -373 -218 -82 -22 -120 -26 -247 -27 -157 -1 -245 12 -365 56 -79 29
-207 107 -246 150 -67 74 -65 175 6 236 53 46 149 53 198 13z M4102 3163 c-15
-6 26 -61 113 -148 63 -64 161 -145 175 -145 17 0 21 59 6 95 -19 46 -131 157
-185 185 -38 19 -81 24 -109 13z M6425 3134 c-124 -82 -200 -199 -165 -254 10
-16 31 -3 128 79 55 47 172 178 172 193 0 4 -21 8 -48 8 -34 0 -58 -7 -87 -26z
M4394 2821 c-46 -28 -74 -95 -87 -210 -13 -123 -3 -178 60 -302 34 -68 64
-111 129 -179 170 -178 350 -281 597 -342 l87 -21 -58 -38 c-65 -42 -142 -120
-142 -143 0 -10 -6 -13 -15 -10 -13 5 -15 -49 -15 -450 0 -449 0 -456 -20
-456 -17 0 -20 -7 -20 -40 l0 -40 -1050 0 -1050 0 0 395 0 395 35 154 c19 85
35 170 35 189 0 46 -23 108 -59 161 l-30 43 122 21 c67 12 367 60 667 108 590
93 593 94 625 161 17 35 17 43 1 157 -9 67 -18 130 -20 142 -2 19 0 20 25 11
21 -8 35 -7 56 3 28 14 28 15 -30 20 -58 5 -59 5 -73 45 -15 46 -56 83 -99 90
-16 3 -268 -32 -560 -79 -291 -46 -595 -95 -674 -107 -129 -20 -148 -26 -178
-52 -50 -44 -54 -73 -28 -238 12 -79 25 -158 29 -176 8 -34 66 -93 91 -93 20
0 20 0 -26 -91 -81 -161 -140 -396 -159 -633 -5 -71 -10 -299 -10 -507 l0
-379 1320 0 1320 0 0 718 0 718 140 0 140 0 0 -718 0 -718 1320 0 1320 0 0
373 c0 204 -5 433 -10 507 -19 240 -78 476 -161 642 -22 43 -39 80 -39 83 0 3
9 5 19 5 29 0 78 46 90 83 13 42 51 288 51 330 0 41 -31 92 -69 111 -17 9
-281 55 -603 106 -315 50 -613 97 -663 106 -49 8 -104 13 -122 9 -46 -8 -91
-50 -103 -96 l-11 -39 -62 0 c-55 0 -60 -2 -46 -15 18 -18 44 -22 77 -11 27 9
28 -2 7 -129 -8 -49 -15 -106 -15 -125 0 -44 30 -94 68 -114 16 -8 303 -58
638 -111 335 -53 632 -102 661 -108 l52 -12 -33 -50 c-18 -27 -38 -65 -45 -84
-18 -53 -13 -147 14 -261 24 -103 25 -114 25 -522 l0 -418 -1050 0 -1050 0 0
40 c0 33 -3 40 -20 40 -20 0 -20 7 -20 450 0 250 -4 450 -9 450 -5 0 -11 14
-15 30 -7 36 -47 77 -129 130 l-57 38 52 12 c257 60 475 182 635 354 109 117
180 255 190 365 7 76 -13 206 -39 259 -21 44 -68 82 -100 82 -14 0 -18 -8 -18
-32 0 -20 -3 -28 -8 -21 -6 9 -15 7 -37 -8 -51 -35 -197 -105 -275 -133 -335
-121 -724 -125 -1067 -11 -157 52 -353 158 -353 190 0 21 -29 19 -66 -4z m221
-202 c190 -127 434 -193 720 -192 292 0 507 60 735 207 47 30 86 51 88 46 12
-33 -102 -163 -199 -226 -213 -139 -555 -206 -815 -159 -290 51 -512 170 -618
330 -51 77 -33 76 89 -6z m278 -477 c4 0 68 -15 142 -32 112 -26 135 -35 135
-50 0 -38 -116 -34 -208 7 -21 9 -39 17 -42 17 -10 3 -65 41 -72 50 -11 16 2
27 20 17 9 -5 20 -9 25 -9z m887 -19 c0 -8 -4 -11 -10 -8 -5 3 -10 2 -10 -4 0
-5 -16 -15 -35 -22 -19 -7 -35 -16 -35 -20 0 -4 -29 -14 -64 -23 -75 -18 -126
-13 -126 15 0 18 30 30 110 43 19 3 60 12 90 19 70 17 80 17 80 0z"/>
</g>
</svg>
