<?xml version="1.0" standalone="no"?>
<!DOCTYPE svg PUBLIC "-//W3C//DTD SVG 20010904//EN"
 "http://www.w3.org/TR/2001/REC-SVG-20010904/DTD/svg10.dtd">
<svg version="1.0" xmlns="http://www.w3.org/2000/svg"
 width="2048.000000pt" height="2048.000000pt" viewBox="0 0 2048.000000 2048.000000"
 preserveAspectRatio="xMidYMid meet">
<metadata>
Created by potrace 1.13, written by Peter Selinger 2001-2015
</metadata>
<g transform="translate(0.000000,2048.000000) scale(0.192120,-0.192120)"
fill="#000000" stroke="none">
<path d="M2565 10319 c-320 -30 -669 -121 -960 -250 -107 -47 -113 -49 -160
-39 -28 6 -129 13 -225 16 -278 10 -513 -31 -769 -132 l-121 -48 0 -4768 0
-4768 2918 0 2917 0 -2 312 c-2 172 -4 525 -6 783 -3 452 -4 473 -25 548 -12
43 -30 96 -39 118 -15 39 -18 41 -51 35 -19 -3 -52 -17 -73 -30 -45 -30 -54
-64 -44 -153 3 -32 9 -354 11 -715 l5 -658 -20 0 c-12 0 -21 -7 -21 -15 0 -13
-40 -15 -300 -15 -193 0 -300 -4 -300 -10 0 -5 -20 -10 -44 -10 -24 0 -46 -3
-48 -7 -1 -5 -34 -23 -71 -42 -57 -28 -70 -32 -78 -20 -5 8 -9 233 -9 502 l0
487 -138 0 -139 0 5 -347 c3 -192 1 -419 -3 -505 l-7 -157 -67 37 c-36 20 -67
40 -69 44 -2 4 -12 8 -23 8 -10 0 -19 5 -19 10 0 7 -662 10 -1965 10 -1740 0
-1965 2 -1965 15 0 11 -12 15 -45 15 l-45 0 0 40 c0 29 -4 40 -15 40 -13 0
-15 114 -15 970 0 640 -3 970 -10 970 -5 0 -10 9 -10 20 0 11 -4 20 -10 20 -5
0 -10 6 -10 12 0 7 -27 52 -61 100 l-60 88 670 0 671 0 0 215 c0 165 -3 215
-12 215 -7 0 -69 24 -138 53 -475 199 -912 582 -1163 1019 -32 56 -29 68 31
113 23 17 46 40 51 53 8 16 11 433 11 1336 0 1285 -2 1364 -30 1386 -11 9
-100 126 -100 132 0 3 26 16 57 28 490 194 806 570 948 1125 29 117 41 188 61
379 l6 59 39 -99 c103 -257 330 -573 573 -799 411 -382 905 -647 1551 -834
342 -99 879 -183 1255 -197 80 -3 155 -7 168 -10 l23 -5 -4 -832 c-3 -809 -4
-835 -25 -957 -40 -222 -93 -401 -173 -588 -254 -593 -748 -1078 -1348 -1323
l-114 -47 -1 -211 -1 -211 875 0 c737 0 890 -2 969 -15 225 -37 419 -135 584
-294 85 -82 156 -172 207 -263 29 -53 40 -62 133 -114 486 -270 931 -587 1397
-994 197 -173 535 -497 685 -658 82 -89 153 -158 156 -154 25 27 1940 2494
1937 2496 -2 1 -48 19 -103 41 -262 101 -745 329 -1059 500 -565 307 -1184
737 -1556 1082 l-60 55 0 1196 0 1195 100 103 c55 56 100 107 100 113 0 29
-80 33 -111 5 -12 -10 -34 -46 -49 -79 -27 -59 -28 -60 -34 -30 -26 115 -61
171 -141 220 -41 25 -61 31 -125 33 -100 5 -162 -20 -227 -92 -26 -29 -43 -42
-40 -31 26 88 28 106 15 132 -27 55 -38 40 -38 -52 l0 -87 -297 -293 c-164
-161 -338 -336 -386 -389 l-89 -96 29 -11 c15 -6 53 -13 84 -16 76 -7 152 27
235 107 34 33 73 64 87 69 30 12 207 208 207 230 0 9 22 75 49 146 50 134 94
235 87 200 -3 -11 -7 -34 -11 -52 -9 -47 20 -149 58 -201 19 -26 55 -58 87
-76 49 -28 64 -31 135 -31 88 0 133 17 200 76 l36 32 -20 -49 c-11 -27 -36
-82 -55 -122 -20 -40 -36 -77 -36 -81 0 -5 -6 -11 -12 -14 -10 -3 -13 -212
-13 -1002 0 -790 3 -999 13 -1003 6 -2 12 -9 12 -15 0 -26 51 -65 100 -78 l51
-13 -3 -471 c-4 -520 -4 -516 -73 -662 -68 -146 -177 -277 -320 -388 -72 -55
-146 -105 -156 -105 -2 0 -3 504 -1 1120 l3 1120 -84 103 c-454 553 -793 1175
-956 1752 -55 196 -71 291 -81 485 -39 785 -345 1478 -894 2025 -486 485
-1078 776 -1766 870 -139 19 -517 27 -655 14z m624 -304 c223 -28 445 -82 658
-160 129 -48 395 -179 507 -250 559 -354 960 -868 1150 -1475 69 -221 126
-556 126 -744 0 -152 53 -405 142 -676 63 -192 101 -283 168 -402 150 -264
223 -397 239 -433 10 -22 35 -78 56 -125 70 -158 228 -402 386 -599 46 -57
103 -128 126 -157 l43 -54 2 -992 c3 -1084 1 -1040 61 -1139 59 -98 137 -159
202 -159 98 0 282 132 411 296 205 259 284 489 284 826 0 86 3 163 6 171 10
27 46 7 219 -123 474 -355 953 -644 1523 -921 158 -77 307 -150 332 -162 63
-31 64 -56 5 -141 -28 -41 -1306 -1687 -1368 -1761 -60 -73 -85 -90 -121 -81
-16 4 -97 74 -194 168 -676 653 -1334 1160 -1844 1420 -114 58 -130 70 -213
157 -248 261 -317 319 -487 405 -118 60 -226 97 -363 122 -76 14 -203 17 -815
23 -779 6 -794 8 -753 53 10 11 44 33 76 50 667 336 1188 986 1401 1746 74
262 69 189 73 1182 4 882 2 970 -27 970 -6 0 -10 4 -10 10 0 11 -79 90 -126
126 -44 34 -126 51 -339 69 -1009 84 -1797 356 -2380 819 -229 183 -387 359
-583 652 -84 125 -142 200 -187 242 -98 92 -129 94 -219 11 -72 -66 -115 -152
-162 -329 -52 -197 -81 -283 -134 -395 -89 -192 -228 -371 -364 -472 -107 -79
-96 -182 -96 921 l0 965 57 16 c208 61 377 79 640 70 231 -8 244 -6 433 65
322 123 591 187 884 210 142 11 422 4 575 -15z m4101 -3003 c0 -5 -6 -16 -12
-25 -16 -20 -44 -7 -35 17 6 16 47 23 47 8z m-6569 -3414 c190 -175 334 -280
551 -403 75 -43 144 -86 153 -95 16 -17 15 -19 -7 -32 -18 -10 -113 -14 -420
-16 l-398 -3 0 326 c0 275 2 325 14 318 7 -4 56 -47 107 -95z M6586 10035
c-337 -93 -608 -521 -681 -1078 -31 -237 -15 -568 37 -792 93 -402 295 -712
544 -833 217 -107 456 -58 650 133 154 152 260 346 350 640 16 52 23 66 19 40
-42 -349 -41 -420 6 -487 29 -40 56 -49 99 -31 53 21 98 70 247 266 74 97 136
177 137 177 1 0 -28 -60 -65 -134 -117 -235 -162 -399 -163 -606 -1 -123 2
-142 27 -217 88 -256 282 -386 577 -385 66 0 149 7 195 17 672 139 1346 822
1471 1490 24 129 15 303 -19 404 -63 182 -201 307 -392 356 -79 21 -266 21
-373 0 -240 -46 -520 -186 -760 -379 -44 -36 -275 -260 -511 -497 l-431 -431
0 556 c0 315 -5 599 -10 654 -72 670 -419 1156 -823 1151 -45 0 -104 -7 -131
-14z m-19 -337 c-3 -8 -6 -5 -6 6 -1 11 2 17 5 13 3 -3 4 -12 1 -19z m-17 0
c0 -7 -29 -44 -65 -81 -35 -38 -88 -104 -117 -149 -48 -73 -53 -77 -56 -52 -7
52 9 92 59 158 66 85 179 164 179 124z m413 -26 c37 -25 96 -90 130 -144 10
-16 17 -47 17 -74 l0 -47 -20 26 c-11 14 -20 28 -20 32 0 11 -58 84 -117 147
-29 31 -53 62 -53 68 0 6 -4 9 -9 6 -5 -3 -12 1 -15 9 -8 22 39 10 87 -23z
m-198 -188 c149 -70 252 -505 225 -952 -25 -428 -133 -702 -277 -702 -101 0
-204 207 -250 502 -27 174 -24 520 6 693 40 233 114 407 193 455 40 24 60 25
103 4z m2888 -794 c51 -25 66 -36 95 -74 21 -28 22 -36 21 -235 0 -113 -4
-215 -9 -226 -5 -12 -9 36 -9 129 -1 134 -3 152 -23 185 -20 34 -125 170 -138
181 -13 10 -29 48 -23 54 12 11 43 6 86 -14z m-829 -185 c-4 -8 -8 -15 -10
-15 -2 0 -4 7 -4 15 0 8 4 15 10 15 5 0 7 -7 4 -15z m-24 -9 c0 -3 -78 -83
-173 -179 -234 -235 -366 -407 -467 -606 -68 -134 -90 -214 -90 -320 0 -78 3
-89 36 -150 20 -36 59 -92 86 -123 54 -62 59 -93 18 -93 -55 -1 -135 54 -201
138 l-39 49 0 174 c0 168 1 177 30 261 17 47 42 107 57 132 129 223 492 590
698 708 21 11 45 16 45 9z m691 -34 c85 -76 19 -281 -173 -542 -86 -117 -354
-384 -466 -465 -177 -129 -314 -194 -422 -202 -114 -8 -159 45 -140 162 28
170 182 407 420 646 261 262 531 428 697 429 44 0 58 -5 84 -28z m-2273 -387
c-3 -155 -4 -162 -34 -225 -57 -120 -123 -204 -185 -236 -54 -27 -143 -42
-153 -25 -4 6 30 48 77 93 89 89 157 198 205 328 26 71 81 280 84 320 5 63 9
-111 6 -255z m2426 -209 c-69 -129 -210 -308 -333 -424 -90 -84 -259 -203
-294 -206 -4 -1 -12 -8 -17 -16 -6 -10 -10 -11 -10 -3 0 7 70 81 156 165 223
218 373 405 485 603 l34 60 3 -64 c3 -55 -1 -73 -24 -115z m-3230 -71 c16 -22
54 -67 83 -101 29 -34 53 -67 53 -75 0 -11 -2 -11 -10 1 -5 8 -10 11 -10 6 0
-5 -6 -3 -13 3 -8 6 -16 9 -19 6 -8 -9 -116 94 -147 142 -26 39 -31 56 -31
107 l0 61 32 -55 c17 -30 45 -73 62 -95z M1357 6706 c-101 -37 -167 -112 -188
-213 -17 -83 -8 -387 13 -435 25 -57 93 -123 150 -148 41 -18 65 -21 122 -18
113 6 195 59 240 157 19 42 21 63 21 256 0 208 0 210 -27 260 -31 60 -67 95
-128 125 -56 28 -151 36 -203 16z M3563 6699 c-58 -22 -121 -80 -149 -137 -16
-32 -19 -66 -22 -247 -4 -237 2 -266 67 -338 53 -58 120 -87 207 -87 118 0
198 52 250 165 22 47 24 62 24 241 0 231 -8 263 -85 341 -81 81 -185 103 -292
62z M6864 6460 c-41 -20 -90 -60 -157 -127 -125 -126 -172 -190 -193 -261 -22
-75 -35 -194 -23 -207 6 -6 100 82 256 238 136 136 249 247 250 247 2 0 4
-267 5 -592 l3 -593 43 2 c50 2 84 21 109 60 17 25 18 69 21 526 l3 499 -24
51 c-45 98 -146 187 -210 187 -13 0 -51 -13 -83 -30z M2203 5171 c-41 -25 -65
-73 -65 -125 1 -43 21 -77 66 -110 26 -20 43 -21 314 -24 158 -2 306 0 329 3
80 12 138 95 119 170 -4 14 -22 43 -41 63 l-33 37 -329 3 c-312 2 -330 1 -360
-17z M1440 4494 c0 -16 105 -145 162 -200 175 -168 386 -273 653 -326 142 -28
430 -31 570 -5 278 51 501 159 672 325 68 67 163 184 163 203 0 5 -468 9
-1110 9 -610 0 -1110 -3 -1110 -6z m1405 -249 c28 -7 40 -13 28 -14 -13 0 -23
-5 -23 -9 0 -23 -172 -52 -302 -52 -120 0 -298 30 -298 51 0 4 -10 9 -22 11
-15 3 -3 8 32 15 80 16 522 14 585 -2z M3390 2650 c-1 -321 -65 -495 -255
-686 -83 -83 -115 -108 -191 -147 -144 -74 -222 -92 -394 -92 -170 1 -230 14
-365 81 -167 82 -299 214 -379 378 -65 131 -78 193 -85 388 -3 91 -9 169 -12
172 -3 4 -17 -15 -30 -41 -13 -27 -27 -49 -31 -51 -5 -2 -8 -11 -8 -21 0 -9
-5 -22 -11 -28 -8 -8 -10 -57 -7 -155 4 -131 8 -150 37 -227 96 -254 272 -444
499 -541 159 -67 197 -75 392 -75 152 0 185 3 253 23 340 98 573 341 661 688
17 67 22 279 7 288 -5 3 -12 21 -15 40 -4 19 -10 36 -15 38 -5 2 -18 21 -29
43 l-21 40 -1 -115z"/>
</g>
</svg>
