<?xml version="1.0" standalone="no"?>
<!DOCTYPE svg PUBLIC "-//W3C//DTD SVG 20010904//EN"
 "http://www.w3.org/TR/2001/REC-SVG-20010904/DTD/svg10.dtd">
<svg version="1.0" xmlns="http://www.w3.org/2000/svg"
 width="2048.000000pt" height="2048.000000pt" viewBox="0 0 2048.000000 2048.000000"
 preserveAspectRatio="xMidYMid meet">
<metadata>
Created by potrace 1.13, written by Peter Selinger 2001-2015
</metadata>
<g transform="translate(0.000000,2048.000000) scale(0.192120,-0.192120)"
fill="#000000" stroke="none">
<path d="M4094 10316 c-188 -43 -414 -180 -524 -319 -122 -154 -166 -270 -181
-477 -12 -158 -27 -226 -70 -312 -41 -82 -69 -118 -218 -273 -227 -237 -282
-364 -268 -620 8 -137 19 -197 64 -357 l37 -128 599 0 599 0 -5 23 c-3 12 -13
92 -22 177 -10 85 -21 157 -26 158 -38 15 -164 120 -212 177 -63 76 -157 251
-157 294 0 48 40 174 85 267 49 101 122 190 189 229 87 51 120 57 341 66 162
6 229 12 295 29 113 29 235 88 299 146 l53 48 19 -25 c26 -33 82 -170 105
-254 15 -56 19 -102 18 -230 -1 -143 -3 -169 -27 -248 -67 -217 -203 -398
-372 -493 l-67 -37 5 -41 c3 -23 11 -96 18 -163 l12 -121 146 -6 c331 -14 569
-28 689 -41 70 -8 130 -15 134 -15 3 0 14 24 24 53 9 28 39 97 67 152 97 195
122 293 136 530 23 391 -49 705 -222 960 -58 85 -191 220 -265 268 -56 38 -61
43 -45 54 129 90 197 187 179 257 -25 101 -253 206 -446 206 -130 0 -203 -38
-269 -140 l-37 -57 -39 35 c-106 92 -244 175 -355 214 -72 25 -207 32 -286 14z
m263 -326 c30 -10 90 -40 135 -65 137 -80 219 -115 265 -115 30 0 64 12 120
41 43 23 95 51 116 62 24 12 60 20 95 21 l57 1 -2 -40 c-7 -167 -7 -170 16
-213 33 -64 84 -135 176 -242 139 -163 178 -224 221 -356 24 -73 24 -80 24
-444 0 -354 -1 -372 -22 -427 -11 -32 -32 -72 -45 -89 -41 -54 -63 -58 -249
-45 -167 12 -214 21 -214 41 0 18 20 50 73 120 63 84 159 281 192 394 23 82
25 103 25 303 0 245 -13 320 -78 453 -45 93 -151 203 -234 244 -72 35 -107 30
-247 -33 -186 -85 -237 -96 -479 -111 -92 -5 -194 -16 -227 -25 -235 -62 -470
-305 -565 -585 -16 -45 -24 -99 -27 -176 -5 -97 -3 -119 16 -168 33 -89 89
-195 147 -278 62 -88 72 -119 49 -138 -22 -18 -486 -28 -528 -11 -47 18 -57
60 -57 246 0 196 2 203 113 326 220 247 305 372 360 531 28 82 57 235 57 303
0 53 33 166 64 219 42 72 146 160 248 211 155 76 277 90 405 45z M1079 8094
c-61 -18 -136 -86 -165 -149 -33 -69 -33 -161 0 -230 26 -57 101 -128 149
-144 38 -12 1587 -271 1623 -271 48 0 16 88 -43 118 -51 26 -101 36 -808 153
-410 67 -623 107 -650 120 -77 37 -124 78 -131 113 -10 54 -2 70 43 91 23 11
42 25 43 31 0 15 23 24 60 24 32 0 213 -28 690 -106 787 -129 805 -131 851
-90 27 23 49 57 49 74 0 5 -12 12 -27 15 -361 62 -1598 267 -1615 266 -13 0
-44 -7 -69 -15z M4731 7720 c-70 -168 -180 -310 -276 -356 -67 -32 -143 -32
-210 0 -97 46 -185 144 -301 336 -31 52 -53 84 -50 70 4 -14 20 -75 36 -137
93 -354 50 -639 -124 -813 -51 -51 -49 -60 18 -85 116 -44 242 66 330 287 21
54 43 95 48 92 5 -3 12 3 15 15 3 11 9 18 14 15 5 -3 34 -9 64 -14 76 -12 155
2 241 45 109 54 119 51 208 -53 92 -109 169 -180 246 -228 36 -22 60 -44 60
-54 0 -10 10 -24 23 -32 l22 -15 6 -534 c6 -543 7 -560 46 -649 54 -124 110
-207 201 -295 154 -151 363 -211 649 -185 330 29 695 133 1348 384 276 106
316 119 370 114 l40 -3 0 -126 0 -126 -42 -84 c-56 -112 -131 -193 -272 -291
-164 -115 -294 -249 -355 -366 l-46 -90 0 -120 c0 -110 2 -125 30 -193 61
-147 137 -263 286 -432 200 -227 214 -255 214 -416 0 -96 -3 -120 -15 -125
-26 -10 -98 19 -203 81 -134 79 -199 97 -334 91 -177 -9 -367 -88 -536 -224
-129 -104 -248 -259 -296 -386 -14 -35 -17 -68 -14 -140 4 -108 26 -163 124
-309 31 -46 69 -109 85 -140 28 -55 29 -60 29 -218 0 -120 -4 -169 -14 -189
-61 -118 -258 -146 -431 -60 -92 45 -185 120 -369 297 -353 339 -518 436 -766
448 -192 10 -302 -33 -451 -175 -89 -84 -140 -154 -270 -366 -30 -48 -73 -109
-96 -135 -77 -87 -201 -127 -366 -119 -213 11 -295 102 -432 476 -123 338
-147 384 -269 506 -91 91 -165 129 -258 134 -78 5 -151 -15 -319 -83 -120 -50
-145 -51 -142 -10 5 70 134 203 358 369 356 265 445 338 586 483 169 174 283
318 432 546 293 446 470 832 527 1150 17 96 20 154 20 446 -1 376 -1 377 -73
435 -31 25 -49 31 -101 34 l-62 4 -29 96 c-35 116 -119 291 -174 360 -23 28
-41 55 -41 60 0 5 18 17 40 27 22 10 40 19 40 21 0 2 -25 70 -56 151 -70 183
-85 233 -93 302 l-6 54 -385 0 -385 0 -22 -65 c-33 -97 -46 -199 -40 -323 17
-364 190 -682 437 -803 134 -66 259 -76 415 -35 64 17 194 75 261 117 l42 26
6 -38 c4 -20 9 -146 12 -278 12 -485 -33 -719 -211 -1079 -120 -245 -331 -581
-486 -776 -178 -224 -341 -373 -675 -615 -252 -183 -332 -250 -414 -346 -135
-160 -250 -398 -258 -539 -4 -73 -3 -77 26 -110 30 -34 32 -34 114 -34 102 0
211 35 433 137 175 81 229 92 292 60 84 -44 130 -127 233 -427 111 -325 185
-464 300 -568 143 -128 366 -168 603 -107 209 53 319 162 462 455 132 270 224
346 420 346 104 0 160 -13 260 -62 117 -57 196 -121 429 -347 115 -112 246
-230 290 -263 184 -138 349 -182 531 -144 251 53 405 255 405 531 0 194 -67
357 -222 537 -96 111 -105 160 -51 273 52 107 172 215 331 298 113 58 215 86
313 86 101 0 156 -20 228 -85 78 -70 132 -101 209 -120 67 -18 133 -11 190 19
45 24 99 87 129 151 26 56 28 69 28 185 0 105 -4 136 -24 195 -51 152 -128
266 -301 450 -194 206 -260 321 -260 453 0 53 6 80 26 120 33 66 119 145 221
201 125 70 179 109 243 177 156 168 255 390 267 605 11 181 -33 303 -131 364
-46 28 -56 30 -140 29 -76 0 -104 -5 -171 -31 -44 -17 -190 -74 -325 -126
-135 -52 -333 -125 -440 -161 -930 -317 -1390 -268 -1471 158 -5 27 -9 316 -9
642 l0 594 -32 0 c-18 0 -63 11 -99 24 -216 76 -357 272 -404 561 -8 50 -15
113 -15 140 0 84 -13 82 -49 -5z m-1333 -775 c39 -43 91 -156 102 -215 8 -46
20 -78 84 -213 29 -61 36 -87 34 -124 -3 -44 -5 -47 -43 -61 -22 -8 -77 -14
-125 -15 -73 0 -95 4 -145 27 -107 48 -191 154 -241 300 -21 60 -24 89 -24
203 l0 133 164 0 164 0 30 -35z M5780 7723 c0 -41 35 -92 75 -109 20 -8 95
-28 168 -45 239 -55 376 -102 465 -161 23 -16 42 -35 42 -42 0 -7 9 -23 20
-36 25 -29 26 -74 1 -108 -10 -15 -22 -38 -26 -52 -4 -14 -16 -34 -26 -45 -10
-11 -64 -81 -121 -156 -57 -75 -165 -218 -241 -318 -76 -100 -177 -243 -225
-319 -54 -85 -113 -164 -157 -208 -61 -62 -81 -75 -154 -103 -85 -32 -141 -65
-141 -82 0 -21 85 -49 150 -49 77 0 148 29 196 81 58 62 876 1162 891 1197 24
58 27 123 8 187 -34 119 -166 211 -414 289 -109 34 -349 87 -458 101 l-53 7 0
-29z M5773 7290 c-30 -13 -67 -72 -50 -81 6 -3 72 -16 145 -29 94 -17 131 -27
128 -36 -2 -6 -49 -70 -104 -141 -55 -71 -174 -230 -266 -353 -148 -201 -164
-226 -149 -237 63 -47 164 29 339 256 152 199 203 279 235 374 24 70 18 103
-29 165 -48 64 -187 109 -249 82z M5291 7238 c0 -7 8 -49 17 -93 l17 -79 45
-18 c25 -9 66 -17 93 -17 68 -1 113 41 132 124 8 32 13 61 11 63 -4 3 -269 31
-303 32 -7 0 -13 -6 -12 -12z M9715 6296 c-27 -12 -66 -41 -85 -62 -96 -107
-518 -641 -540 -682 -20 -38 -25 -61 -25 -122 0 -64 4 -83 30 -128 51 -93 137
-144 241 -144 69 -1 142 27 187 70 47 45 541 661 561 700 11 21 21 66 24 103
4 56 1 75 -20 120 -34 74 -69 113 -130 143 -71 35 -171 36 -243 2z m81 -327
c-3 -17 -16 -45 -28 -62 -55 -79 -300 -377 -333 -405 -59 -53 -113 -35 -81 26
8 15 54 72 101 127 48 55 123 143 167 195 116 139 188 188 174 119z M9060
5859 c-135 -25 -472 -88 -715 -134 -104 -20 -193 -40 -198 -44 -11 -11 42 -46
99 -67 l51 -18 263 48 c145 26 295 59 333 73 70 25 315 163 287 162 -8 -1 -62
-10 -120 -20z M8750 5353 c-396 -68 -479 -85 -535 -112 -79 -37 -196 -124
-173 -129 9 -2 70 6 135 18 251 45 797 151 802 155 2 3 -25 18 -60 34 -65 30
-124 41 -169 34z M4916 2060 c-54 -64 -43 -121 48 -256 38 -57 46 -64 42 -39
-3 17 -10 68 -16 115 -18 139 -32 210 -40 210 -5 0 -20 -14 -34 -30z M4451
1768 c1 -13 5 -36 9 -53 7 -27 8 -25 9 17 0 26 -3 50 -9 53 -6 3 -9 -4 -9 -17z
M4675 1700 c-57 -22 -124 -84 -152 -138 -17 -34 -18 -76 -21 -525 l-3 -489 24
-52 c28 -60 73 -108 131 -139 58 -31 184 -31 241 0 54 29 109 88 134 143 20
43 21 64 21 525 l0 480 -24 50 c-62 134 -216 197 -351 145z"/>
</g>
</svg>
