<?xml version="1.0" standalone="no"?>
<!DOCTYPE svg PUBLIC "-//W3C//DTD SVG 20010904//EN"
 "http://www.w3.org/TR/2001/REC-SVG-20010904/DTD/svg10.dtd">
<svg version="1.0" xmlns="http://www.w3.org/2000/svg"
 width="2048.000000pt" height="2048.000000pt" viewBox="0 0 2048.000000 2048.000000"
 preserveAspectRatio="xMidYMid meet">
<metadata>
Created by potrace 1.13, written by Peter Selinger 2001-2015
</metadata>
<g transform="translate(0.000000,2048.000000) scale(0.192120,-0.192120)"
fill="#000000" stroke="none">
<path d="M2565 10319 c-320 -30 -669 -121 -960 -250 -107 -47 -113 -49 -160
-39 -85 18 -370 24 -485 11 -192 -22 -410 -80 -587 -158 l-43 -18 0 -1257 c0
-692 2 -1258 4 -1258 20 0 171 63 259 107 390 199 655 554 782 1048 30 117 40
178 61 378 l6 59 43 -105 c99 -244 277 -499 510 -732 547 -548 1341 -903 2325
-1040 185 -26 391 -45 540 -51 80 -3 155 -7 168 -10 l23 -5 -4 -832 c-3 -923
-2 -902 -76 -1188 -196 -755 -752 -1391 -1470 -1680 l-114 -45 -2 -410 c-1
-381 -3 -414 -23 -489 -40 -154 -103 -266 -211 -379 -151 -157 -333 -241 -548
-253 -233 -13 -444 62 -620 222 -121 109 -226 303 -253 467 -6 35 -10 235 -10
456 0 305 -3 392 -13 392 -6 0 -68 24 -137 53 -496 208 -950 616 -1192 1072
l-48 90 0 -2072 0 -2073 2918 0 2917 0 -2 742 c-2 459 -7 768 -13 808 -6 36
-22 103 -37 148 -26 83 -26 84 -55 78 -48 -10 -98 -37 -116 -64 -11 -17 -16
-44 -14 -86 1 -34 4 -359 7 -723 l6 -663 -20 0 c-12 0 -21 -7 -21 -15 0 -13
-40 -15 -300 -15 -193 0 -300 -4 -300 -10 0 -5 -20 -10 -44 -10 -24 0 -46 -3
-48 -7 -1 -5 -34 -23 -71 -42 -57 -28 -70 -32 -78 -20 -5 8 -9 233 -9 502 l0
487 -138 0 -139 0 5 -347 c3 -192 1 -419 -3 -505 l-7 -157 -67 37 c-36 20 -67
40 -69 44 -2 4 -12 8 -23 8 -10 0 -19 5 -19 10 0 7 -662 10 -1965 10 -1740 0
-1965 2 -1965 15 0 11 -12 15 -45 15 l-45 0 0 40 c0 29 -4 40 -15 40 -13 0
-15 113 -15 960 0 633 -3 960 -10 960 -5 0 -10 7 -10 15 0 9 -5 21 -10 28 -6
7 -23 31 -38 54 -15 22 -46 69 -70 102 l-43 61 671 0 c368 0 670 -2 670 -5 0
-8 -114 -180 -122 -183 -4 -2 -10 -19 -14 -38 -3 -19 -10 -34 -15 -34 -5 0 -9
-47 -9 -104 0 -130 29 -236 102 -379 87 -169 204 -297 366 -402 398 -256 899
-205 1242 127 124 120 207 253 267 426 21 61 28 101 31 194 5 147 -6 185 -87
303 l-62 90 863 3 c938 3 972 1 1134 -53 270 -91 498 -286 645 -553 11 -20 49
-46 125 -87 418 -222 922 -581 1384 -985 195 -171 534 -497 685 -659 82 -88
153 -157 156 -153 25 27 1940 2494 1937 2496 -2 1 -48 19 -103 41 -262 101
-745 329 -1059 500 -565 307 -1184 737 -1556 1082 l-60 55 0 1196 0 1195 100
103 c55 56 100 107 100 113 0 29 -80 33 -111 5 -12 -10 -34 -46 -49 -79 -27
-59 -28 -60 -34 -30 -26 115 -61 171 -141 220 -41 25 -61 31 -125 33 -100 5
-162 -20 -227 -92 -26 -29 -43 -42 -40 -31 26 88 28 106 15 132 -27 55 -38 40
-38 -50 l0 -86 -382 -382 -383 -382 35 -15 c19 -8 64 -15 100 -16 83 -1 129
23 228 115 41 38 78 67 82 64 12 -7 190 194 190 214 0 9 22 75 49 146 50 134
94 235 87 200 -3 -11 -7 -34 -11 -52 -9 -47 20 -149 58 -201 19 -26 55 -58 87
-76 49 -28 64 -31 135 -31 88 0 133 17 200 76 l36 32 -20 -49 c-11 -27 -36
-82 -55 -122 -20 -40 -36 -77 -36 -81 0 -5 -6 -11 -12 -14 -10 -3 -13 -211
-13 -997 0 -786 3 -994 13 -998 6 -2 12 -9 12 -16 0 -21 37 -48 92 -67 l53
-18 0 -473 c0 -422 -2 -480 -18 -538 -52 -193 -186 -381 -372 -525 -72 -55
-146 -105 -156 -105 -2 0 -3 504 -1 1120 l3 1120 -84 103 c-107 130 -250 322
-340 457 -402 598 -697 1349 -697 1775 0 241 -66 588 -166 875 -153 442 -392
820 -728 1155 -486 485 -1078 776 -1766 870 -139 19 -517 27 -655 14z m450
-300 c584 -39 1085 -225 1550 -573 139 -104 368 -328 477 -466 240 -304 415
-663 501 -1030 42 -176 77 -440 77 -573 0 -160 56 -415 156 -709 59 -174 111
-292 195 -441 29 -50 111 -207 182 -347 149 -291 239 -440 377 -625 95 -128
195 -255 225 -286 13 -14 15 -135 15 -1017 0 -656 3 -1003 10 -1007 6 -3 10
-18 10 -32 0 -59 80 -179 163 -244 53 -43 100 -50 168 -28 64 22 194 117 280
206 135 139 216 264 287 441 37 92 45 121 72 260 5 29 10 120 10 202 0 157 3
180 26 180 8 0 83 -51 167 -114 401 -299 802 -552 1254 -789 175 -92 522 -261
603 -293 47 -19 57 -42 34 -86 -25 -49 -8 -26 -708 -927 -718 -926 -729 -939
-763 -952 -39 -15 -72 10 -276 208 -625 606 -1302 1124 -1807 1384 -90 46
-163 112 -304 272 -166 189 -406 336 -648 396 -145 36 -247 41 -863 41 -549 1
-673 5 -693 24 -14 14 19 43 114 101 530 320 924 780 1173 1367 78 184 141
400 176 602 22 132 23 1808 0 1863 -18 44 -134 164 -195 203 -54 34 -113 46
-290 60 -768 61 -1377 220 -1910 497 -159 82 -378 224 -510 329 -105 84 -307
285 -381 379 -31 39 -105 145 -166 236 -189 282 -290 376 -375 347 -15 -5 -56
-36 -92 -69 -84 -77 -124 -152 -171 -322 -106 -378 -151 -484 -292 -674 -78
-104 -211 -223 -250 -223 -10 0 -13 194 -13 935 l0 934 67 21 c170 52 269 63
588 64 l300 1 180 68 c383 146 669 204 1060 215 33 1 127 -3 210 -9z m4275
-3007 c0 -5 -6 -16 -12 -25 -16 -20 -44 -7 -35 17 6 16 47 23 47 8z m-6551
-3477 c145 -130 280 -231 435 -327 113 -69 148 -99 134 -113 -18 -19 -112 -25
-390 -25 l-308 0 0 285 c0 157 3 285 6 285 3 0 59 -47 123 -105z M6586 10035
c-337 -93 -608 -521 -681 -1078 -31 -237 -15 -568 37 -792 93 -402 295 -712
544 -833 217 -107 456 -58 650 133 154 152 260 346 350 640 16 52 23 66 19 40
-42 -349 -41 -420 6 -487 29 -40 56 -49 99 -31 53 21 98 70 247 266 74 97 136
177 137 177 1 0 -28 -60 -65 -134 -117 -235 -162 -399 -163 -606 -1 -123 2
-142 27 -217 88 -256 282 -386 577 -385 66 0 149 7 195 17 672 139 1346 822
1471 1490 24 129 15 303 -19 404 -63 182 -201 307 -392 356 -79 21 -266 21
-373 0 -240 -46 -520 -186 -760 -379 -44 -36 -275 -260 -511 -497 l-431 -431
0 556 c0 315 -5 599 -10 654 -72 670 -419 1156 -823 1151 -45 0 -104 -7 -131
-14z m-19 -337 c-3 -8 -6 -5 -6 6 -1 11 2 17 5 13 3 -3 4 -12 1 -19z m-17 0
c0 -7 -29 -44 -65 -81 -35 -38 -88 -104 -117 -149 -48 -73 -53 -77 -56 -52 -7
52 9 92 59 158 66 85 179 164 179 124z m413 -26 c37 -25 96 -90 130 -144 10
-16 17 -47 17 -74 l0 -47 -20 26 c-11 14 -20 28 -20 32 0 11 -58 84 -117 147
-29 31 -53 62 -53 68 0 6 -4 9 -9 6 -5 -3 -12 1 -15 9 -8 22 39 10 87 -23z
m-198 -188 c149 -70 252 -505 225 -952 -25 -428 -133 -702 -277 -702 -101 0
-204 207 -250 502 -27 174 -24 520 6 693 40 233 114 407 193 455 40 24 60 25
103 4z m2888 -794 c51 -25 66 -36 95 -74 21 -28 22 -36 21 -235 0 -113 -4
-215 -9 -226 -5 -12 -9 36 -9 129 -1 134 -3 152 -23 185 -20 34 -125 170 -138
181 -13 10 -29 48 -23 54 12 11 43 6 86 -14z m-829 -185 c-4 -8 -8 -15 -10
-15 -2 0 -4 7 -4 15 0 8 4 15 10 15 5 0 7 -7 4 -15z m-24 -9 c0 -3 -78 -83
-173 -179 -234 -235 -366 -407 -467 -606 -68 -134 -90 -214 -90 -320 0 -78 3
-89 36 -150 20 -36 59 -92 86 -123 54 -62 59 -93 18 -93 -55 -1 -135 54 -201
138 l-39 49 0 174 c0 168 1 177 30 261 17 47 42 107 57 132 129 223 492 590
698 708 21 11 45 16 45 9z m691 -34 c85 -76 19 -281 -173 -542 -86 -117 -354
-384 -466 -465 -177 -129 -314 -194 -422 -202 -114 -8 -159 45 -140 162 28
170 182 407 420 646 261 262 531 428 697 429 44 0 58 -5 84 -28z m-2273 -387
c-3 -155 -4 -162 -34 -225 -57 -120 -123 -204 -185 -236 -54 -27 -143 -42
-153 -25 -4 6 30 48 77 93 89 89 157 198 205 328 26 71 81 280 84 320 5 63 9
-111 6 -255z m2426 -209 c-69 -129 -210 -308 -333 -424 -90 -84 -259 -203
-294 -206 -4 -1 -12 -8 -17 -16 -6 -10 -10 -11 -10 -3 0 7 70 81 156 165 223
218 373 405 485 603 l34 60 3 -64 c3 -55 -1 -73 -24 -115z m-3230 -71 c16 -22
54 -67 83 -101 29 -34 53 -67 53 -75 0 -11 -2 -11 -10 1 -5 8 -10 11 -10 6 0
-5 -6 -3 -13 3 -8 6 -16 9 -19 6 -8 -9 -116 94 -147 142 -26 39 -31 56 -31
107 l0 61 32 -55 c17 -30 45 -73 62 -95z M330 5873 l0 -1387 45 44 c25 24 45
50 45 57 0 7 5 13 10 13 7 0 10 423 10 1250 0 708 -4 1250 -9 1250 -5 0 -11
14 -15 31 -5 27 -70 129 -82 129 -2 0 -4 -624 -4 -1387z M1357 6706 c-101 -37
-167 -112 -188 -213 -17 -83 -8 -387 13 -435 25 -57 93 -123 150 -148 41 -18
65 -21 122 -18 113 6 195 59 240 157 19 42 21 63 21 256 0 208 0 210 -27 260
-31 60 -67 95 -128 125 -56 28 -151 36 -203 16z M3577 6706 c-81 -29 -149 -97
-175 -175 -8 -21 -12 -109 -12 -235 0 -191 1 -204 24 -251 47 -99 138 -156
251 -156 113 0 193 50 244 153 l31 61 0 192 c0 232 -8 264 -85 342 -76 76
-183 102 -278 69z M6900 6476 c-60 -21 -121 -69 -222 -176 -66 -69 -108 -122
-128 -164 -32 -66 -53 -169 -48 -232 l3 -39 245 243 c134 133 246 242 247 242
2 0 3 -261 3 -580 l0 -580 49 0 c34 0 56 6 76 22 55 43 55 47 55 565 l0 478
-24 50 c-43 92 -146 186 -203 185 -10 -1 -34 -7 -53 -14z M2205 5172 c-43 -27
-67 -67 -67 -116 -1 -56 27 -102 77 -126 38 -19 63 -20 331 -20 166 0 305 4
326 10 65 18 111 99 94 165 -4 14 -22 43 -41 63 l-33 37 -329 3 c-306 2 -330
1 -358 -16z M1440 4494 c0 -18 111 -152 176 -213 174 -162 395 -269 655 -317
128 -24 428 -24 554 -1 278 51 501 159 672 325 68 67 163 184 163 203 0 5
-468 9 -1110 9 -610 0 -1110 -3 -1110 -6z"/>
</g>
</svg>
