<?xml version="1.0" standalone="no"?>
<!DOCTYPE svg PUBLIC "-//W3C//DTD SVG 20010904//EN"
 "http://www.w3.org/TR/2001/REC-SVG-20010904/DTD/svg10.dtd">
<svg version="1.0" xmlns="http://www.w3.org/2000/svg"
 width="2048.000000pt" height="2048.000000pt" viewBox="0 0 2048.000000 2048.000000"
 preserveAspectRatio="xMidYMid meet">
<metadata>
Created by potrace 1.13, written by Peter Selinger 2001-2015
</metadata>
<g transform="translate(0.000000,2048.000000) scale(0.192120,-0.192120)"
fill="#000000" stroke="none">
<path d="M2547 10313 c-3 -10 -40 -160 -82 -333 l-77 -315 -314 -315 -313
-315 -161 -329 -160 -330 2 -1140 3 -1141 23 -50 c32 -70 202 -236 258 -253
51 -15 159 -14 199 1 65 26 68 30 55 74 -11 35 -9 53 13 139 33 130 32 125
132 944 47 388 90 732 96 765 23 127 72 196 181 251 144 72 221 135 488 398
298 294 328 316 436 316 34 0 99 -7 144 -16 45 -8 84 -14 86 -12 1 2 -77 23
-175 46 l-178 43 -284 -287 c-156 -157 -319 -313 -363 -345 -78 -59 -224 -136
-302 -159 -41 -12 -42 -13 -48 -69 -46 -421 -211 -1751 -222 -1798 -26 -102
-107 -177 -199 -185 -43 -3 -36 -14 -100 157 l-26 70 3 1140 3 1140 107 210
c154 304 175 332 436 598 125 128 246 257 269 287 65 86 108 177 138 285 57
215 69 247 102 291 l34 44 334 0 c302 0 335 -2 335 -16 0 -11 6 -15 20 -11 13
3 20 0 20 -10 0 -8 5 -11 10 -8 6 3 10 1 10 -6 0 -7 3 -9 7 -6 3 4 11 0 17 -8
6 -8 41 -19 80 -24 37 -5 71 -13 75 -16 3 -4 7 -151 8 -327 1 -176 3 -321 5
-323 2 -1 20 -5 41 -8 l38 -6 -20 32 c-32 53 -44 155 -38 321 6 169 16 212 52
246 l25 23 0 -316 c0 -174 2 -317 5 -317 28 0 761 -176 794 -191 28 -12 82
-57 148 -123 134 -135 158 -182 158 -311 0 -78 -4 -97 -28 -147 -51 -104 -151
-181 -254 -195 l-46 -6 7 29 c4 18 39 60 90 109 94 91 125 146 132 232 l4 58
-15 -55 c-31 -109 -100 -191 -200 -236 -82 -38 -151 -40 -290 -10 -66 15 -182
41 -258 57 -76 17 -140 29 -143 27 -2 -3 22 -11 53 -18 96 -21 162 -50 197
-86 29 -30 48 -37 178 -69 81 -19 166 -35 190 -35 42 -1 45 -3 123 -96 366
-438 911 -786 1565 -1001 427 -140 1000 -242 1460 -259 80 -3 155 -7 168 -10
l23 -5 -4 -822 c-4 -911 -2 -888 -73 -1177 -165 -669 -615 -1251 -1229 -1587
-115 -63 -226 -114 -310 -143 l-50 -17 -3 -211 -2 -212 862 0 c475 0 879 -3
899 -6 35 -6 36 -5 102 83 98 133 188 280 276 453 160 315 258 612 316 954 44
260 48 356 46 954 l-3 563 -24 25 c-42 41 -72 121 -83 219 -14 128 -201 1684
-207 1721 -4 28 -11 34 -67 54 -196 71 -253 114 -609 469 l-317 315 -600 -138
c-668 -154 -650 -152 -769 -96 -74 35 -132 93 -169 168 -24 50 -28 69 -28 147
0 129 24 176 158 311 66 66 120 111 148 123 35 15 288 76 777 186 l22 5 0 323
1 322 24 -30 c42 -51 49 -96 50 -305 0 -193 0 -197 -27 -248 l-27 -51 32 5
c18 3 37 7 42 9 6 1 10 117 10 319 l0 317 -105 48 c-625 287 -1328 356 -2005
194 -139 -33 -357 -107 -502 -170 l-112 -49 -93 12 c-103 14 -384 17 -466 5
l-54 -8 4 149 3 148 -557 0 c-522 0 -557 -1 -561 -17z m3256 -283 c261 -19
480 -62 712 -138 l140 -47 3 -160 2 -161 -102 -23 c-263 -58 -439 -105 -503
-135 -154 -71 -313 -237 -398 -413 l-42 -88 0 -140 0 -140 49 -99 c35 -71 68
-119 113 -167 118 -125 219 -171 373 -172 109 0 142 6 670 129 417 97 474 104
530 65 19 -14 141 -129 270 -256 240 -235 317 -300 450 -374 41 -24 78 -46 82
-49 15 -16 42 -198 108 -752 92 -764 108 -882 131 -961 18 -62 19 -104 19
-660 0 -680 -4 -742 -71 -1074 -64 -317 -193 -649 -362 -930 -84 -139 -125
-191 -173 -215 -39 -19 -57 -20 -645 -20 -583 1 -678 5 -702 29 -16 16 2 31
123 96 225 122 439 282 621 465 367 368 631 838 755 1345 54 219 54 229 54
1155 0 473 -4 860 -8 860 -4 0 -13 15 -20 34 -16 44 -129 151 -187 177 -35 15
-105 26 -306 45 -301 28 -482 52 -694 95 -630 125 -1153 342 -1580 654 -202
147 -315 258 -315 309 0 12 12 39 26 59 34 50 79 143 100 203 12 37 15 75 12
173 -4 116 -7 132 -36 193 -96 208 -286 391 -469 452 -43 14 -177 49 -298 76
-121 28 -228 53 -237 56 -16 5 -18 19 -18 119 l0 114 158 -5 157 -6 130 47
c271 97 354 124 471 154 298 75 605 103 907 81z M7002 10173 l3 -158 44 4 c53
3 100 28 162 84 17 15 49 17 349 17 l330 0 38 -38 c50 -50 78 -112 119 -262
63 -232 102 -289 428 -620 136 -137 249 -261 273 -298 38 -58 192 -363 241
-475 21 -47 21 -54 21 -1172 l0 -1124 -33 -83 c-19 -46 -39 -100 -46 -120 -7
-21 -18 -38 -25 -38 -38 0 -122 36 -155 66 -66 59 -78 103 -116 422 -19 158
-63 528 -99 822 -36 294 -70 580 -76 635 -7 55 -13 100 -13 100 -30 6 -193 80
-251 114 -111 65 -186 133 -479 430 l-258 262 -199 -47 c-110 -27 -198 -50
-196 -52 2 -1 50 7 107 18 138 29 228 24 295 -15 26 -15 163 -141 303 -279
264 -259 326 -311 471 -391 134 -73 168 -115 195 -243 8 -37 56 -404 106 -817
88 -729 102 -829 135 -943 14 -49 14 -95 -2 -136 -3 -8 14 -21 45 -35 60 -25
158 -28 221 -6 58 20 221 183 253 251 l22 49 3 1141 2 1142 -160 328 -161 329
-313 315 -314 315 -77 315 c-42 173 -79 323 -82 333 -4 16 -39 17 -559 17
l-555 0 3 -157z M5884 8737 c12 -158 137 -268 311 -273 78 -3 78 -2 20 5 -157
20 -278 122 -320 271 l-15 55 4 -58z M3578 8643 c7 -3 16 -2 19 1 4 3 -2 6
-13 5 -11 0 -14 -3 -6 -6z M3618 8633 c6 -2 18 -2 25 0 6 3 1 5 -13 5 -14 0
-19 -2 -12 -5z M6990 8630 c-20 -6 -21 -8 -5 -8 11 0 31 4 45 8 20 6 21 8 5 8
-11 0 -31 -4 -45 -8z M2980 8307 c-354 -351 -376 -368 -569 -445 -47 -19 -87
-36 -89 -37 -2 -2 -54 -424 -178 -1455 -24 -206 -51 -396 -60 -421 -8 -25 -30
-62 -49 -83 l-34 -37 -1 -577 c-2 -476 1 -603 14 -727 64 -581 280 -1145 613
-1604 l76 -103 36 6 c20 3 424 6 899 6 l862 0 -2 211 -3 211 -75 28 c-173 62
-420 202 -607 341 -125 94 -377 346 -470 470 -213 284 -369 614 -446 944 -62
263 -61 232 -64 1293 l-4 972 33 0 c50 0 208 36 309 70 436 146 754 471 927
945 50 139 52 131 -21 145 -34 6 -216 47 -405 91 -189 43 -349 79 -355 79 -7
0 -158 -145 -337 -323z m655 16 c88 -19 166 -40 173 -46 42 -33 -64 -229 -203
-376 -135 -143 -324 -258 -520 -316 -233 -69 -242 -74 -332 -159 -46 -43 -86
-89 -89 -102 -3 -13 -10 -24 -15 -24 -5 0 -9 -431 -9 -1023 0 -1127 -3 -1071
64 -1332 163 -640 583 -1244 1126 -1617 52 -36 151 -98 220 -137 155 -89 167
-98 153 -112 -24 -24 -120 -28 -713 -29 l-616 0 -41 27 c-47 30 -127 145 -224
323 -195 358 -302 706 -353 1152 -18 154 -25 1333 -8 1365 25 46 73 396 198
1453 20 176 34 252 49 276 8 12 49 41 92 64 130 72 217 144 470 393 133 130
256 244 275 252 43 20 99 14 303 -32z M3668 8623 c7 -3 16 -2 19 1 4 3 -2 6
-13 5 -11 0 -14 -3 -6 -6z M3708 8613 c7 -3 16 -2 19 1 4 3 -2 6 -13 5 -11 0
-14 -3 -6 -6z M6900 8610 c-20 -6 -21 -8 -5 -8 11 0 31 4 45 8 20 6 21 8 5 8
-11 0 -31 -4 -45 -8z M3748 8603 c6 -2 18 -2 25 0 6 3 1 5 -13 5 -14 0 -19 -2
-12 -5z M3798 8593 c7 -3 16 -2 19 1 4 3 -2 6 -13 5 -11 0 -14 -3 -6 -6z
M6848 8593 c7 -3 16 -2 19 1 4 3 -2 6 -13 5 -11 0 -14 -3 -6 -6z M3838 8583
c7 -3 16 -2 19 1 4 3 -2 6 -13 5 -11 0 -14 -3 -6 -6z M6808 8583 c7 -3 16 -2
19 1 4 3 -2 6 -13 5 -11 0 -14 -3 -6 -6z M6758 8573 c6 -2 18 -2 25 0 6 3 1 5
-13 5 -14 0 -19 -2 -12 -5z M6718 8563 c7 -3 16 -2 19 1 4 3 -2 6 -13 5 -11 0
-14 -3 -6 -6z M6678 8553 c7 -3 16 -2 19 1 4 3 -2 6 -13 5 -11 0 -14 -3 -6 -6z
M6628 8543 c6 -2 18 -2 25 0 6 3 1 5 -13 5 -14 0 -19 -2 -12 -5z M6588 8533
c7 -3 16 -2 19 1 4 3 -2 6 -13 5 -11 0 -14 -3 -6 -6z M6548 8523 c7 -3 16 -2
19 1 4 3 -2 6 -13 5 -11 0 -14 -3 -6 -6z M6498 8513 c6 -2 18 -2 25 0 6 3 1 5
-13 5 -14 0 -19 -2 -12 -5z M6458 8503 c7 -3 16 -2 19 1 4 3 -2 6 -13 5 -11 0
-14 -3 -6 -6z M6418 8493 c7 -3 16 -2 19 1 4 3 -2 6 -13 5 -11 0 -14 -3 -6 -6z
M6368 8483 c7 -3 16 -2 19 1 4 3 -2 6 -13 5 -11 0 -14 -3 -6 -6z M3702 6155
c-49 -21 -52 -56 -11 -133 48 -90 146 -211 219 -270 250 -202 554 -189 789 33
81 77 131 140 181 228 37 66 41 99 15 127 -26 29 -60 25 -150 -19 -257 -127
-652 -128 -905 -4 -41 20 -82 40 -90 44 -9 4 -30 1 -48 -6z M5795 6160 c-56
-21 -60 -66 -15 -147 50 -88 100 -151 181 -228 320 -303 748 -208 999 221 45
78 49 101 20 132 -29 31 -61 28 -153 -18 -252 -123 -645 -127 -893 -9 -38 19
-80 39 -94 45 -14 7 -34 8 -45 4z M4983 5170 c-66 -40 -86 -103 -54 -174 16
-37 29 -51 63 -66 39 -18 67 -20 335 -20 246 0 299 3 333 16 105 42 117 177
21 241 -34 23 -38 23 -350 23 -296 0 -318 -1 -348 -20z M5209 4490 c-269 -32
-460 -166 -430 -303 16 -68 63 -114 171 -168 259 -128 710 -89 876 76 162 163
-24 353 -386 395 -95 11 -135 11 -231 0z m276 -259 l30 -13 -25 -10 c-14 -6
-33 -14 -42 -19 -25 -13 -238 -12 -238 1 0 6 -8 10 -17 10 -10 0 -24 4 -32 9
-11 7 -7 13 20 25 43 19 258 17 304 -3z M2575 2799 c-200 -47 -364 -138 -518
-288 -147 -143 -247 -313 -304 -516 l-28 -100 -3 -782 -3 -783 3611 0 3611 0
-3 783 -3 782 -27 98 c-33 118 -99 261 -167 359 -159 230 -426 406 -682 450
-60 11 -72 10 -79 -2 -22 -35 -3 -123 37 -170 16 -19 70 -52 142 -87 177 -84
272 -158 373 -289 66 -86 102 -150 131 -235 56 -163 57 -177 57 -839 0 -603 0
-610 -20 -610 -11 0 -20 -7 -20 -15 0 -13 -40 -15 -300 -15 -193 0 -300 -4
-300 -10 0 -5 -20 -10 -45 -10 -25 0 -45 -3 -45 -7 0 -5 -21 -17 -48 -27 -26
-10 -54 -24 -62 -31 -8 -7 -23 -15 -32 -18 -17 -6 -18 22 -18 498 l0 505 -140
0 -140 0 0 -505 c0 -476 -1 -504 -17 -498 -10 4 -20 9 -23 13 -8 10 -107 50
-124 50 -9 0 -16 5 -16 10 0 7 -690 10 -2050 10 -1360 0 -2050 -3 -2050 -10 0
-5 -5 -10 -11 -10 -6 0 -42 -15 -80 -34 l-69 -34 0 504 0 504 -140 0 -140 0 0
-505 0 -504 -72 37 c-40 20 -74 40 -76 45 -2 4 -12 7 -23 7 -10 0 -19 5 -19
10 0 6 -107 10 -300 10 -260 0 -300 2 -300 15 0 11 -11 15 -40 15 l-40 0 0
688 c0 658 1 691 20 746 40 118 112 231 213 335 80 82 149 128 302 202 76 37
134 72 149 90 29 35 49 97 44 142 -3 29 -6 32 -38 34 -19 1 -53 -3 -75 -8z
M4465 2718 c-11 -21 -22 -38 -26 -38 -5 0 -11 -16 -15 -35 -3 -19 -10 -38 -15
-41 -5 -3 -9 -65 -9 -138 0 -145 11 -193 74 -332 92 -198 235 -345 429 -439
159 -77 224 -90 432 -90 177 1 182 2 280 34 252 84 430 233 545 456 68 134 92
221 97 368 4 88 2 132 -6 140 -6 6 -11 19 -11 28 0 10 -3 19 -7 21 -5 2 -19
26 -33 53 l-24 50 -8 -160 c-12 -239 -55 -379 -162 -529 -329 -460 -1025 -460
-1351 -1 -109 154 -143 261 -156 495 -5 96 -11 180 -13 185 -2 6 -11 -7 -21
-27z"/>
</g>
</svg>
