<?xml version="1.0" standalone="no"?>
<!DOCTYPE svg PUBLIC "-//W3C//DTD SVG 20010904//EN"
 "http://www.w3.org/TR/2001/REC-SVG-20010904/DTD/svg10.dtd">
<svg version="1.0" xmlns="http://www.w3.org/2000/svg"
 width="2048.000000pt" height="2048.000000pt" viewBox="0 0 2048.000000 2048.000000"
 preserveAspectRatio="xMidYMid meet">
<metadata>
Created by potrace 1.13, written by Peter Selinger 2001-2015
</metadata>
<g transform="translate(0.000000,2048.000000) scale(0.192120,-0.192120)"
fill="#000000" stroke="none">
<path d="M3665 10094 c-783 -62 -1402 -321 -1860 -779 -360 -359 -591 -820
-660 -1315 -21 -151 -21 -480 1 -689 l16 -159 -35 -45 c-211 -277 -220 -830
-17 -1151 78 -124 216 -226 305 -226 l25 0 0 -107 c1 -848 415 -1626 1115
-2094 130 -87 331 -193 461 -243 l89 -34 3 -211 2 -210 -917 -4 c-996 -4 -946
-1 -1118 -60 -147 -50 -278 -131 -395 -244 -170 -161 -267 -332 -327 -573 -14
-57 -17 -166 -20 -842 l-4 -778 4031 0 4031 0 -1 2362 -1 2363 844 281 c910
303 919 307 1023 411 60 59 79 106 71 174 -15 126 -119 227 -242 236 -32 3
-209 -23 -495 -71 -245 -41 -456 -77 -469 -78 -20 -3 -25 3 -37 50 -19 73 -39
108 -93 161 -66 66 -128 93 -226 98 -70 4 -123 -5 -420 -66 -187 -39 -359 -76
-382 -81 -24 -6 -198 -10 -405 -10 -401 0 -429 -3 -542 -62 -83 -44 -192 -155
-233 -238 -59 -117 -63 -152 -63 -490 0 -256 -11 -485 -66 -1425 -36 -616 -66
-1120 -67 -1120 -1 0 -410 1 -910 3 l-907 3 2 211 3 211 52 18 c212 72 505
243 713 417 569 475 900 1181 900 1918 l0 124 25 0 c89 0 227 102 305 226 201
319 200 827 -3 1136 l-35 53 8 95 c17 198 22 495 11 615 -40 414 -216 831
-507 1195 -94 117 -299 321 -421 418 -416 329 -900 531 -1463 608 -110 15
-578 27 -695 18z m655 -329 c682 -85 1269 -382 1677 -850 212 -242 356 -505
427 -780 l26 -99 0 -568 c0 -477 -2 -568 -14 -568 -15 0 -68 78 -141 210 -159
284 -234 384 -338 453 -72 48 -105 55 -327 72 -513 40 -817 102 -1147 235
-205 82 -229 88 -286 66 -71 -27 -177 -157 -177 -218 0 -15 -5 -19 -20 -15
-11 3 -20 1 -20 -4 0 -19 -19 -6 -148 101 -174 144 -239 178 -306 159 -22 -6
-69 -42 -129 -98 -52 -49 -103 -92 -114 -95 -59 -19 -281 101 -523 284 -191
144 -265 183 -346 182 -105 -1 -245 -92 -416 -270 -111 -117 -220 -255 -288
-367 -24 -38 -87 -160 -141 -271 -99 -204 -120 -236 -136 -212 -4 7 -10 221
-11 475 -4 517 -3 527 68 743 92 281 246 528 464 745 414 412 998 652 1716
704 165 13 494 5 650 -14z m-1790 -1801 c270 -219 533 -385 700 -439 77 -26
166 -25 209 0 58 34 76 83 75 202 l-1 102 155 -150 c246 -238 450 -393 556
-421 48 -13 48 -12 73 17 23 27 25 35 20 96 -7 78 -46 201 -111 348 -25 57
-46 105 -46 108 0 2 28 -19 62 -46 260 -210 806 -346 1528 -379 l144 -7 48
-77 c92 -149 232 -395 325 -574 51 -99 108 -198 125 -219 38 -45 87 -69 120
-56 79 31 151 198 194 453 10 60 21 105 25 100 29 -32 39 -385 13 -492 -23
-100 -92 -313 -123 -383 -37 -82 -66 -115 -175 -196 -120 -89 -211 -184 -222
-231 -4 -14 -12 -29 -19 -35 -8 -7 -14 -73 -19 -215 -11 -336 -27 -410 -143
-680 -85 -197 -105 -236 -227 -435 -139 -225 -196 -296 -348 -432 -161 -145
-314 -238 -585 -358 -110 -49 -220 -143 -288 -244 l-45 -69 0 -211 c0 -134 4
-211 10 -211 6 0 10 -86 10 -237 0 -228 -1 -240 -24 -296 -108 -262 -404 -422
-701 -379 -220 32 -391 145 -495 328 l-45 79 0 249 c0 191 3 250 13 253 15 6
18 433 2 433 -5 0 -10 6 -10 13 0 25 -101 146 -166 200 -49 41 -110 75 -237
134 -116 53 -204 101 -273 150 -116 82 -327 272 -382 344 -20 26 -67 85 -103
131 -284 357 -446 810 -466 1301 -3 81 -10 147 -14 147 -5 0 -9 7 -9 15 0 18
-58 110 -88 140 -11 11 -75 74 -142 140 -162 160 -166 167 -255 534 -32 134
-42 294 -25 431 7 58 16 111 19 118 4 7 15 -22 25 -65 46 -193 120 -356 197
-428 55 -51 85 -57 124 -22 21 18 33 53 74 217 55 219 97 340 180 515 107 224
238 412 397 568 77 75 239 207 254 207 3 0 52 -39 110 -86z m6475 -2041 c33
-72 68 -119 109 -144 35 -21 139 -26 223 -10 26 5 77 15 113 21 36 6 85 16
110 21 79 15 180 19 180 6 0 -12 -72 -49 -140 -72 -3 -1 -18 -7 -35 -14 -48
-20 -430 -152 -795 -275 -185 -63 -369 -130 -409 -151 -127 -64 -140 -65 -788
-65 l-583 0 0 40 c0 30 -4 40 -16 40 -13 0 -15 31 -12 274 2 151 7 278 11 283
5 4 331 9 725 11 l717 3 235 39 c232 38 279 46 312 49 11 1 25 -18 43 -56z
m-713 -869 l38 -7 -54 -58 c-30 -32 -58 -69 -62 -81 -4 -13 -12 -26 -18 -30
-8 -5 -12 -578 -14 -2113 -2 -1857 -4 -2105 -17 -2105 -11 0 -15 -11 -15 -40
0 -33 -3 -40 -20 -40 -11 0 -20 -7 -20 -15 0 -13 -85 -15 -705 -15 -463 0
-705 -3 -705 -10 0 -5 -20 -10 -44 -10 -24 0 -46 -3 -48 -7 -4 -10 -144 -83
-158 -83 -7 0 -10 162 -10 500 l0 500 -140 0 -140 0 0 -504 0 -504 -76 39
c-42 22 -85 39 -95 39 -10 0 -19 5 -19 10 0 12 -4076 14 -4082 3 -1 -5 -40
-27 -85 -51 l-83 -43 0 506 0 505 -140 0 -140 0 -2 -504 -3 -504 -65 39 c-36
21 -70 43 -77 49 -7 5 -21 10 -33 10 -11 0 -20 5 -20 10 0 6 -103 10 -290 10
-251 0 -290 2 -290 15 0 11 -11 15 -40 15 l-40 0 0 685 c0 777 -7 711 89 884
126 227 305 360 581 428 56 14 171 17 858 20 682 4 792 6 792 19 0 7 9 14 19
14 11 0 26 6 33 13 7 7 25 20 39 29 14 9 43 39 64 67 50 66 53 59 54 -124 1
-169 12 -238 53 -352 116 -320 435 -543 777 -543 373 0 710 256 807 615 13 49
30 263 33 427 1 26 4 24 64 -35 35 -34 70 -67 78 -73 21 -15 78 -34 105 -34
13 0 24 -5 24 -10 0 -8 231 -10 738 -8 l737 3 45 22 c55 27 138 108 183 177
36 55 52 102 61 181 14 112 96 1585 96 1713 0 150 -11 192 -78 301 l-32 51
693 3 c380 1 708 3 727 4 19 2 52 0 72 -3z M2754 6710 c-91 -28 -183 -129
-198 -217 -3 -21 -6 -110 -6 -199 0 -192 11 -240 72 -309 113 -129 303 -128
416 0 65 74 75 120 70 343 -3 186 -3 187 -33 240 -32 59 -67 92 -129 124 -46
23 -144 33 -192 18z m94 -412 c-3 -127 -5 -143 -20 -146 -17 -3 -18 9 -18 142
0 140 1 146 20 146 20 0 20 -5 18 -142z M4969 6706 c-84 -30 -140 -82 -177
-164 -14 -31 -17 -70 -17 -237 0 -188 1 -203 23 -250 48 -104 139 -165 248
-165 114 0 197 48 250 142 29 53 29 54 32 245 4 242 -4 281 -82 358 -77 77
-184 105 -277 71z m101 -411 c0 -138 -1 -145 -20 -145 -19 0 -20 7 -20 145 0
138 1 145 20 145 19 0 20 -7 20 -145z M3593 5170 c-45 -27 -66 -64 -66 -114 0
-56 28 -102 78 -126 38 -19 63 -20 333 -20 245 0 298 3 332 16 105 42 117 177
21 241 -34 23 -38 23 -350 23 -296 0 -318 -1 -348 -20z M2841 4198 c43 -82
173 -215 294 -300 336 -237 864 -302 1297 -158 188 63 363 172 489 307 61 64
129 153 129 167 0 3 -500 6 -1110 6 l-1111 0 12 -22z m1613 -194 c30 -12 16
-31 -46 -61 -134 -66 -276 -88 -528 -80 -144 4 -192 10 -273 30 -144 38 -237
95 -179 110 26 7 1008 8 1026 1z"/>
</g>
</svg>
