<?xml version="1.0" standalone="no"?>
<!DOCTYPE svg PUBLIC "-//W3C//DTD SVG 20010904//EN"
 "http://www.w3.org/TR/2001/REC-SVG-20010904/DTD/svg10.dtd">
<svg version="1.0" xmlns="http://www.w3.org/2000/svg"
 width="2048.000000pt" height="2048.000000pt" viewBox="0 0 2048.000000 2048.000000"
 preserveAspectRatio="xMidYMid meet">
<metadata>
Created by potrace 1.13, written by Peter Selinger 2001-2015
</metadata>
<g transform="translate(0.000000,2048.000000) scale(0.192120,-0.192120)"
fill="#000000" stroke="none">
<path d="M4130 10323 c-227 -39 -481 -203 -611 -394 -85 -126 -123 -248 -134
-436 -7 -132 -23 -200 -66 -286 -41 -81 -70 -117 -218 -272 -132 -138 -201
-234 -231 -319 -61 -171 -50 -407 29 -664 17 -55 31 -104 31 -111 0 -6 -16
-11 -37 -11 -21 0 -423 63 -893 142 l-855 142 -59 -18 c-47 -14 -70 -29 -115
-74 -64 -64 -81 -106 -81 -198 0 -41 7 -75 24 -109 27 -58 98 -128 147 -144
39 -12 1708 -291 1746 -291 20 0 24 -4 18 -17 -49 -118 -59 -168 -59 -323 -1
-115 4 -177 17 -240 72 -333 257 -572 507 -656 40 -13 84 -18 160 -18 91 1
118 5 200 33 52 18 128 51 167 73 68 39 72 43 57 59 -24 27 -101 60 -163 70
-41 6 -78 5 -141 -7 -109 -21 -201 -15 -266 17 -69 34 -183 150 -227 232 -72
131 -78 163 -75 385 l3 197 43 3 c34 3 42 7 42 23 0 18 8 19 158 19 l158 0 39
-40 c22 -23 56 -71 76 -107 42 -80 91 -122 148 -130 26 -4 41 -2 41 5 0 6 -20
64 -44 129 -42 113 -63 193 -69 257 l-2 30 -280 -3 c-155 -1 -324 1 -377 5
l-96 7 -7 44 c-9 62 -70 124 -145 146 -30 9 -354 66 -720 127 -365 61 -683
116 -706 121 -23 6 -55 23 -72 37 -17 15 -41 35 -54 44 -19 13 -21 20 -12 35
6 10 23 19 38 21 19 2 26 9 26 24 0 19 4 20 63 14 34 -4 361 -56 727 -116 366
-60 697 -112 736 -116 75 -7 144 1 144 16 0 5 13 22 29 38 16 16 35 47 42 70
l12 42 594 0 593 0 -5 23 c-5 25 -35 288 -35 311 0 9 -26 32 -57 52 -118 75
-238 221 -297 361 -32 77 -32 89 -1 198 64 221 176 362 335 421 33 12 99 19
245 24 110 5 225 13 255 20 158 33 286 94 367 172 l41 41 46 -94 c73 -150 89
-226 90 -414 1 -126 -3 -175 -18 -228 -24 -91 -57 -170 -102 -248 -50 -87
-201 -235 -283 -278 l-63 -33 5 -42 c4 -22 12 -96 19 -163 l12 -123 44 0 c50
0 51 5 -5 -124 -47 -111 -97 -191 -163 -260 -72 -76 -131 -106 -207 -106 -141
0 -267 115 -423 385 -28 50 -48 79 -44 65 97 -327 116 -519 69 -702 -38 -145
-130 -275 -240 -338 l-54 -31 48 -59 c76 -95 161 -283 192 -428 5 -26 15 -65
20 -87 6 -22 13 -146 16 -276 11 -481 -35 -716 -212 -1074 -120 -245 -331
-581 -486 -776 -178 -224 -341 -373 -675 -615 -252 -183 -332 -250 -414 -346
-135 -160 -250 -398 -258 -539 -4 -73 -3 -77 26 -110 30 -34 32 -34 114 -34
102 0 211 35 433 137 175 81 229 92 292 60 84 -44 130 -127 233 -427 111 -325
185 -464 300 -568 143 -128 366 -168 603 -107 209 53 318 161 461 453 132 271
225 348 421 348 103 0 159 -13 260 -62 115 -55 193 -118 429 -347 115 -112
246 -230 290 -263 184 -138 349 -182 531 -144 251 53 405 255 405 531 0 194
-67 357 -222 537 -96 111 -105 160 -51 273 52 107 172 215 331 298 113 58 215
86 313 86 101 0 156 -20 228 -85 78 -70 132 -101 209 -120 67 -18 133 -11 190
19 45 24 99 87 129 151 26 56 28 69 28 185 0 105 -4 136 -24 195 -51 152 -128
266 -301 450 -194 206 -260 321 -260 453 0 88 31 153 107 222 50 45 91 72 235
154 111 62 250 224 318 369 145 309 130 620 -34 722 -46 28 -56 30 -140 29
-76 0 -104 -5 -171 -31 -44 -17 -190 -74 -325 -126 -135 -52 -333 -125 -440
-161 -930 -317 -1390 -268 -1471 158 -5 27 -9 315 -9 640 l0 591 -67 13 c-196
37 -356 193 -432 420 -27 80 -51 235 -51 331 l0 73 98 -6 c53 -3 160 -8 237
-11 142 -6 434 -30 492 -41 28 -5 32 -11 38 -47 9 -49 20 -73 49 -105 35 -39
70 -52 243 -88 253 -52 333 -75 453 -131 69 -31 78 -38 99 -84 23 -47 23 -51
8 -87 -8 -20 -18 -44 -20 -52 -3 -8 -62 -89 -132 -180 -307 -402 -428 -564
-507 -685 -46 -72 -105 -148 -130 -171 -45 -39 -69 -50 -173 -75 -57 -14 -116
-41 -133 -62 -9 -11 -5 -20 21 -45 103 -100 286 -96 383 9 17 19 222 288 455
599 432 576 458 616 459 701 1 120 -81 226 -230 297 -163 77 -465 156 -704
183 -55 6 -107 13 -115 15 -20 6 -8 41 75 215 111 234 135 351 135 659 0 182
-9 270 -41 406 -37 157 -119 334 -210 456 -61 80 -195 209 -258 245 l-45 27
24 15 c13 8 54 44 90 80 101 100 113 163 44 240 -66 73 -262 141 -405 141
-130 0 -203 -38 -269 -140 l-37 -57 -39 35 c-204 178 -429 265 -605 235z m232
-287 c37 -13 114 -51 170 -84 194 -113 225 -117 344 -52 156 86 153 85 236 84
115 -2 126 -18 86 -127 -19 -53 -20 -66 -10 -114 13 -65 73 -157 172 -269 141
-159 202 -257 244 -392 26 -83 26 -83 26 -441 0 -355 0 -359 -25 -435 -33
-102 -65 -163 -109 -208 -43 -44 -45 -44 -266 -28 -74 5 -190 10 -258 11 -106
2 -124 5 -133 20 -23 44 -11 67 84 162 130 127 203 247 273 442 27 78 28 87
32 312 3 211 1 240 -17 308 -39 139 -103 240 -191 299 -34 23 -95 20 -160 -8
-268 -115 -298 -123 -549 -136 -97 -5 -201 -16 -231 -25 -157 -42 -299 -162
-388 -326 -67 -125 -92 -204 -99 -316 -7 -112 4 -158 63 -278 51 -101 125
-203 208 -285 54 -52 56 -56 56 -107 l0 -53 -374 0 c-206 0 -386 4 -399 9 -13
5 -35 27 -48 48 -23 37 -24 46 -27 265 -4 271 -9 255 135 413 126 139 176 201
234 295 80 130 149 345 149 470 0 55 31 183 55 230 28 54 91 131 148 178 59
49 208 126 282 147 83 22 209 18 287 -9z m336 -2824 c11 -11 34 -41 52 -68 86
-126 165 -208 272 -281 l68 -47 0 -487 c0 -450 2 -494 20 -589 12 -56 25 -109
30 -118 5 -9 23 -45 40 -80 39 -81 94 -156 168 -227 308 -303 828 -252 1977
192 265 103 327 123 381 123 72 0 77 -9 73 -146 l-4 -119 -44 -77 c-57 -99
-148 -190 -291 -291 -163 -114 -293 -249 -354 -365 l-46 -90 0 -120 c0 -110 2
-125 30 -193 61 -147 137 -263 286 -432 200 -227 214 -255 214 -416 0 -96 -3
-120 -15 -125 -26 -10 -98 19 -203 81 -134 79 -199 97 -334 91 -177 -9 -367
-88 -536 -224 -129 -104 -248 -259 -296 -386 -14 -35 -17 -68 -14 -140 4 -108
26 -163 124 -309 31 -46 69 -109 85 -140 28 -55 29 -60 29 -218 0 -120 -4
-169 -14 -189 -61 -118 -258 -146 -431 -60 -92 45 -185 120 -367 295 -356 342
-486 418 -735 429 -147 7 -225 -6 -322 -56 -131 -66 -227 -167 -401 -425 -60
-88 -123 -174 -142 -192 -77 -74 -199 -109 -351 -101 -213 11 -295 102 -432
476 -123 338 -147 384 -269 506 -91 91 -165 129 -258 134 -78 5 -151 -15 -319
-83 -120 -50 -145 -51 -142 -10 5 70 134 203 358 369 356 265 445 338 586 483
169 174 283 318 432 546 293 446 470 832 527 1150 18 97 20 155 20 468 l0 357
-41 89 c-74 160 -169 412 -169 447 0 26 12 51 48 98 63 83 90 139 142 284 l43
121 61 -19 c47 -15 79 -19 138 -15 78 5 113 19 238 91 54 31 64 32 88 8z
M5645 7352 c-35 -22 -61 -57 -71 -96 -7 -30 -10 -31 -168 -16 -60 6 -110 9
-112 7 -2 -2 4 -42 12 -89 l16 -87 49 -20 c64 -28 128 -27 164 1 33 26 64 91
65 136 0 21 5 32 14 32 8 0 95 -13 193 -30 98 -16 182 -30 186 -30 17 0 -1
-27 -116 -176 -161 -210 -477 -638 -477 -646 0 -12 57 -38 84 -38 62 0 128 49
240 179 226 262 381 505 393 615 9 80 -65 174 -184 233 -67 33 -85 38 -167 41
-76 3 -96 0 -121 -16z M9715 6296 c-60 -28 -69 -39 -261 -276 -322 -399 -364
-454 -380 -504 -20 -58 -15 -146 11 -200 25 -52 90 -115 143 -138 92 -41 223
-19 295 50 47 45 541 661 561 700 11 21 21 66 24 103 4 56 1 75 -20 120 -34
74 -69 113 -130 143 -71 35 -171 36 -243 2z m81 -327 c-7 -38 -19 -55 -187
-265 -144 -179 -193 -230 -233 -240 -73 -18 -80 32 -15 104 23 26 83 90 133
142 50 52 118 127 150 165 95 115 165 158 152 94z M8865 5825 c-653 -125 -771
-148 -783 -153 -18 -6 40 -65 98 -99 32 -19 58 -26 90 -26 57 2 528 88 595
109 45 15 415 210 415 220 0 16 -178 -6 -415 -51z M8510 5360 c-186 -34 -280
-56 -316 -73 -50 -25 -247 -167 -260 -189 -5 -7 8 -9 42 -4 95 14 1056 196
1066 202 5 4 -16 24 -49 45 -55 36 -153 70 -198 68 -11 0 -139 -23 -285 -49z
M4915 2151 c-40 -24 -61 -49 -80 -94 -31 -75 -13 -137 77 -261 29 -39 67 -100
85 -136 28 -55 32 -59 28 -30 -50 353 -76 534 -78 537 -2 1 -16 -6 -32 -16z
M4434 1878 c3 -18 15 -103 27 -188 20 -147 29 -189 29 -142 0 11 14 73 30 137
17 64 30 130 30 146 0 43 -39 79 -85 79 -35 0 -36 -1 -31 -32z M4684 1702
c-78 -28 -139 -85 -170 -158 -14 -32 -16 -103 -14 -518 1 -479 1 -481 24 -531
27 -59 72 -107 130 -138 32 -17 58 -22 121 -22 95 0 139 19 201 87 76 83 75
71 72 623 -3 546 0 516 -75 591 -73 74 -192 101 -289 66z"/>
</g>
</svg>
