<?xml version="1.0" standalone="no"?>
<!DOCTYPE svg PUBLIC "-//W3C//DTD SVG 20010904//EN"
 "http://www.w3.org/TR/2001/REC-SVG-20010904/DTD/svg10.dtd">
<svg version="1.0" xmlns="http://www.w3.org/2000/svg"
 width="2048.000000pt" height="2048.000000pt" viewBox="0 0 2048.000000 2048.000000"
 preserveAspectRatio="xMidYMid meet">
<metadata>
Created by potrace 1.13, written by Peter Selinger 2001-2015
</metadata>
<g transform="translate(0.000000,2048.000000) scale(0.192120,-0.192120)"
fill="#000000" stroke="none">
<path d="M3665 10094 c-783 -62 -1402 -321 -1860 -779 -359 -358 -591 -821
-660 -1315 -21 -152 -21 -482 1 -692 16 -157 16 -160 -4 -181 -59 -66 -121
-205 -154 -350 -31 -131 -31 -383 0 -514 43 -187 117 -329 227 -431 64 -60
146 -102 200 -102 l25 0 0 -107 c1 -848 415 -1626 1115 -2094 130 -87 331
-193 461 -243 l89 -34 3 -211 2 -210 -917 -4 c-996 -4 -946 -1 -1118 -60 -147
-50 -278 -131 -395 -244 -170 -161 -267 -332 -327 -573 -14 -57 -17 -166 -20
-842 l-4 -778 4031 0 4031 0 -1 2362 -1 2363 845 281 c909 303 918 307 1022
411 60 59 79 106 71 174 -15 126 -119 227 -242 236 -32 3 -209 -23 -495 -71
-245 -41 -456 -77 -469 -78 -20 -3 -25 3 -37 50 -19 73 -39 108 -93 161 -66
66 -128 93 -226 98 -71 4 -124 -5 -465 -76 l-384 -81 -361 0 c-398 0 -426 -3
-539 -62 -83 -44 -192 -155 -233 -238 -59 -117 -63 -152 -63 -490 0 -256 -11
-485 -66 -1425 -36 -616 -66 -1120 -67 -1120 -1 0 -410 1 -910 3 l-907 3 2
211 3 211 52 18 c212 72 505 243 713 417 569 475 900 1181 900 1918 l0 124 25
0 c89 0 227 102 305 226 201 319 200 827 -3 1136 l-35 53 8 100 c17 215 22
491 11 610 -40 414 -216 831 -507 1195 -94 117 -299 321 -421 418 -415 329
-901 531 -1463 608 -110 15 -578 27 -695 18z m566 -304 c843 -82 1557 -487
1968 -1115 64 -97 170 -313 204 -415 68 -199 67 -192 67 -824 0 -430 -3 -577
-12 -582 -16 -10 -60 44 -120 151 -169 301 -233 401 -304 473 -116 117 -126
120 -519 152 -440 36 -765 109 -1075 241 -103 44 -136 53 -185 53 -51 1 -66
-3 -102 -29 -48 -35 -89 -98 -98 -152 -11 -61 -16 -74 -28 -70 -7 2 -19 -1
-27 -9 -13 -11 -31 1 -125 82 -135 116 -244 191 -290 200 -53 10 -89 -11 -198
-114 -115 -109 -106 -107 -252 -38 -112 53 -198 108 -389 249 -197 144 -251
172 -330 171 -104 -1 -203 -61 -374 -228 -215 -210 -368 -442 -512 -781 -72
-169 -82 -182 -114 -149 -14 14 -16 73 -16 502 0 477 1 489 24 592 202 891
1011 1521 2091 1629 61 6 124 13 140 15 71 8 482 5 576 -4z m-1731 -1801 c286
-235 560 -409 730 -464 77 -26 166 -25 209 0 58 34 76 83 75 202 l-1 102 141
-137 c283 -275 512 -442 607 -442 9 0 27 12 39 28 19 24 22 35 17 94 -7 77
-46 200 -111 347 -25 57 -46 105 -46 108 0 2 27 -18 60 -45 262 -211 806 -347
1530 -380 l144 -7 48 -77 c92 -149 232 -395 325 -574 51 -99 108 -198 125
-219 38 -45 87 -69 120 -56 80 31 151 199 197 466 20 117 23 118 40 15 33
-204 24 -348 -35 -565 -82 -301 -106 -342 -253 -439 -112 -75 -231 -204 -231
-251 0 -8 -4 -15 -10 -15 -6 0 -10 -31 -10 -72 0 -193 -23 -427 -56 -568 -32
-140 -182 -460 -317 -679 -135 -218 -168 -263 -284 -378 -156 -155 -315 -268
-488 -348 -253 -117 -287 -137 -367 -215 -43 -42 -78 -81 -78 -87 0 -5 -10
-20 -22 -33 -22 -24 -23 -30 -23 -258 0 -145 4 -235 10 -240 6 -4 23 -27 39
-52 27 -42 123 -140 137 -140 4 0 10 11 13 24 6 24 6 24 53 10 26 -8 50 -20
55 -27 6 -9 186 -12 825 -12 l818 0 45 22 c90 45 206 183 228 273 19 75 20 97
72 985 33 551 50 915 48 1012 l-3 153 28 6 c24 5 27 10 27 49 0 29 -5 47 -15
52 -13 8 -15 56 -13 363 l3 355 130 6 c72 4 401 7 733 8 l604 1 236 40 c130
22 262 42 293 46 l56 6 25 -53 c48 -105 104 -149 191 -149 23 0 117 14 207 31
268 49 503 86 528 81 34 -7 26 -35 -16 -54 -41 -18 -551 -194 -1097 -377 -375
-126 -425 -147 -507 -214 -132 -105 -189 -147 -203 -147 -8 0 -15 -6 -15 -14
0 -8 -8 -17 -17 -19 -10 -3 43 -6 117 -8 86 -2 110 -4 66 -6 -51 -3 -73 -9
-82 -21 -11 -14 -13 -430 -14 -2194 0 -1929 -2 -2178 -15 -2178 -11 0 -15 -11
-15 -40 0 -33 -3 -40 -20 -40 -11 0 -20 -7 -20 -15 0 -13 -85 -15 -705 -15
-463 0 -705 -3 -705 -10 0 -5 -20 -10 -44 -10 -24 0 -46 -3 -48 -7 -4 -10
-144 -83 -158 -83 -7 0 -10 162 -10 500 l0 500 -140 0 -140 0 0 -504 0 -504
-76 39 c-42 22 -85 39 -95 39 -10 0 -19 5 -19 10 0 12 -4076 14 -4082 3 -1 -5
-40 -27 -85 -51 l-83 -43 0 506 0 505 -140 0 -140 0 -2 -504 -3 -504 -65 39
c-36 21 -70 43 -77 49 -7 5 -21 10 -33 10 -11 0 -20 5 -20 10 0 6 -103 10
-290 10 -251 0 -290 2 -290 15 0 11 -11 15 -40 15 l-40 0 0 685 c0 777 -7 711
89 884 126 227 306 360 581 428 56 14 186 17 925 23 473 3 861 7 863 8 1 1 2
8 2 16 0 8 13 19 30 24 27 10 30 9 36 -14 3 -13 10 -24 15 -24 19 0 125 118
149 165 14 28 28 52 33 53 11 6 9 432 -3 432 -5 0 -10 6 -10 13 0 16 -52 90
-99 140 -61 65 -120 102 -301 187 -96 45 -211 107 -255 138 -427 301 -759 774
-890 1266 -48 179 -85 447 -85 609 0 38 -4 67 -10 67 -5 0 -10 6 -10 14 0 36
-53 108 -145 195 -168 161 -199 196 -227 253 -64 131 -128 447 -128 634 0 113
16 273 29 287 4 4 15 -28 25 -70 46 -193 120 -356 197 -428 55 -51 85 -57 123
-22 22 18 34 53 72 207 53 214 103 356 183 525 141 295 335 542 561 711 47 35
87 64 90 64 3 0 39 -28 80 -61z M2754 6710 c-91 -28 -183 -129 -198 -217 -12
-78 -7 -357 9 -410 19 -65 85 -139 150 -169 137 -64 310 3 373 145 24 55 30
379 8 455 -34 115 -132 195 -249 202 -34 2 -76 -1 -93 -6z m114 -412 l-3 -163
-33 -3 c-58 -6 -62 4 -62 168 0 80 3 150 7 153 3 4 26 7 50 7 l43 0 -2 -162z
M4969 6706 c-84 -30 -140 -82 -177 -164 -14 -31 -17 -71 -17 -237 0 -188 1
-203 23 -250 48 -104 139 -165 248 -165 114 0 197 48 250 142 29 53 29 54 32
245 4 242 -4 281 -82 358 -77 77 -184 105 -277 71z m129 -391 c4 -179 2 -185
-46 -185 -21 0 -43 5 -50 12 -13 13 -18 299 -5 312 4 4 28 6 53 4 l45 -3 3
-140z M3593 5170 c-44 -27 -65 -62 -65 -113 -1 -57 26 -102 77 -127 38 -19 63
-20 333 -20 245 0 298 3 332 16 105 42 117 177 21 241 -34 23 -38 23 -350 23
-296 0 -318 -1 -348 -20z M2841 4198 c43 -82 173 -215 294 -300 336 -237 864
-302 1297 -158 188 63 363 172 489 307 61 64 129 153 129 167 0 3 -500 6
-1110 6 l-1111 0 12 -22z m1664 -184 c49 -19 -36 -80 -165 -117 -252 -73 -547
-74 -797 -1 -106 30 -193 76 -193 101 0 7 1 14 3 15 23 15 1112 17 1152 2z"/>
</g>
</svg>
