<?xml version="1.0" standalone="no"?>
<!DOCTYPE svg PUBLIC "-//W3C//DTD SVG 20010904//EN"
 "http://www.w3.org/TR/2001/REC-SVG-20010904/DTD/svg10.dtd">
<svg version="1.0" xmlns="http://www.w3.org/2000/svg"
 width="2048.000000pt" height="2048.000000pt" viewBox="0 0 2048.000000 2048.000000"
 preserveAspectRatio="xMidYMid meet">
<metadata>
Created by potrace 1.13, written by Peter Selinger 2001-2015
</metadata>
<g transform="translate(0.000000,2048.000000) scale(0.192120,-0.192120)"
fill="#000000" stroke="none">
<path d="M2625 10229 c-308 -18 -640 -96 -925 -217 -57 -25 -119 -43 -155 -47
-90 -9 -302 -52 -391 -79 -268 -80 -550 -226 -756 -393 l-68 -54 0 -2487 0
-2488 51 -89 c119 -208 252 -378 430 -550 238 -231 515 -413 802 -525 l107
-43 0 -213 0 -214 -695 0 -695 0 0 -1250 0 -1250 2918 0 2917 0 -3 747 c-2
827 -3 842 -66 1018 -108 302 -337 537 -642 658 -185 74 -135 71 -1157 74
l-917 4 2 211 3 211 116 47 c929 377 1549 1297 1549 2300 l0 127 41 7 c181 29
353 247 414 526 22 101 30 316 16 408 -7 48 -8 86 -2 110 5 20 12 50 16 66 6
29 20 16 476 -440 l469 -469 0 -142 c0 -86 4 -144 10 -148 6 -4 25 2 43 12 43
25 47 70 13 154 -15 34 -26 64 -26 66 0 1 20 -12 45 -31 145 -111 346 -63 427
103 18 36 23 63 23 123 l0 77 22 -43 c25 -49 66 -86 94 -86 31 0 22 18 -37 80
l-56 59 1 747 c0 411 3 749 5 751 2 3 55 28 118 57 62 29 151 74 198 100 135
77 330 207 324 217 -3 5 -20 9 -38 9 -55 0 -416 69 -576 110 l-35 9 0 623 c-1
614 -1 624 -23 703 -58 207 -181 386 -366 529 -81 64 -145 106 -158 106 -5 0
-8 -403 -8 -895 0 -578 -3 -895 -10 -895 -15 0 -352 131 -515 200 -186 79
-470 219 -653 322 l-142 80 -60 87 c-32 47 -89 124 -126 171 -93 116 -329 350
-444 440 -559 432 -1215 639 -1905 599z m506 -274 c713 -93 1311 -438 1758
-1013 170 -220 259 -288 591 -456 287 -146 659 -304 817 -348 l83 -23 0 -220
0 -221 -87 -11 c-240 -33 -371 -69 -455 -126 -35 -23 -97 -63 -138 -89 -73
-45 -140 -106 -140 -128 0 -6 -7 -13 -15 -16 -8 -4 -15 -17 -15 -31 0 -16 -7
-27 -20 -30 -11 -3 -20 -10 -20 -15 0 -10 -41 17 -75 49 -53 50 -141 116 -183
137 -90 46 -149 57 -352 66 -369 18 -635 48 -910 101 -639 124 -1200 352
-1690 687 -207 142 -317 231 -555 450 -141 131 -211 171 -274 157 -42 -9 -116
-78 -154 -143 -18 -32 -66 -131 -106 -222 -89 -199 -125 -266 -209 -390 -87
-128 -155 -211 -244 -298 -82 -80 -133 -116 -154 -108 -12 5 -14 136 -14 813
l0 808 88 56 c240 155 486 247 817 308 152 28 194 40 430 126 190 70 446 125
665 144 137 13 415 6 561 -14z m3594 -381 c26 -10 76 -122 91 -204 10 -55 13
-196 14 -542 0 -305 3 -468 10 -468 6 0 10 -28 10 -65 0 -36 4 -65 8 -65 4 0
13 -20 20 -45 10 -36 23 -53 69 -90 32 -25 63 -45 69 -45 20 0 31 -143 18
-220 -5 -28 -18 -43 -65 -77 -55 -40 -99 -101 -99 -138 0 -8 -4 -15 -10 -15
-7 0 -10 -188 -10 -545 0 -357 3 -545 10 -545 6 0 10 -7 10 -16 0 -9 20 -56
45 -105 46 -91 98 -219 91 -226 -2 -2 -9 10 -16 27 -18 44 -102 115 -157 134
-173 59 -351 -57 -370 -242 -6 -51 -7 -53 -18 -31 -7 13 -32 80 -56 149 -23
69 -55 143 -70 165 -39 58 -475 483 -540 528 -59 39 -152 77 -192 77 l-23 0
12 128 c7 70 13 153 13 185 l1 57 58 1 c31 0 77 3 100 6 42 5 43 4 33 -15 -20
-37 -13 -97 20 -158 31 -60 76 -116 192 -241 37 -40 67 -79 67 -86 0 -28 264
-267 294 -267 3 0 6 7 6 15 0 11 5 12 26 5 43 -17 78 -11 126 19 53 33 118
108 135 154 8 22 12 130 12 335 l1 303 -32 43 c-32 42 -64 67 -120 93 l-28 12
0 338 c0 308 4 367 24 363 17 -3 79 36 102 64 14 17 32 39 40 49 8 9 14 31 14
47 0 17 4 30 9 30 6 0 11 213 13 548 3 473 7 582 23 582 2 0 11 -3 20 -6z
m-4891 -1150 c505 -435 1113 -751 1790 -929 390 -102 782 -157 1246 -174 257
-10 294 -19 391 -95 88 -69 198 -253 224 -373 6 -30 4 -33 -38 -51 -74 -33
-84 -60 -90 -247 -6 -190 -29 -311 -80 -417 -46 -94 -92 -147 -186 -213 -122
-86 -211 -182 -211 -230 0 -8 -4 -15 -10 -15 -6 0 -10 -34 -10 -82 0 -157 -30
-481 -52 -558 -21 -73 -124 -320 -185 -440 -70 -139 -209 -371 -283 -470 -77
-104 -294 -308 -412 -387 -58 -39 -202 -118 -322 -177 -196 -96 -223 -113
-280 -170 -34 -34 -69 -77 -77 -94 -8 -18 -17 -32 -21 -32 -5 0 -8 -84 -8
-186 0 -121 3 -183 10 -179 6 3 10 1 10 -5 0 -22 53 -60 84 -60 59 0 59 -1 60
-207 0 -206 -14 -294 -69 -416 -98 -223 -303 -401 -537 -467 -95 -28 -254 -37
-355 -20 -289 46 -541 248 -644 514 -47 121 -59 205 -59 406 l0 178 38 7 c49
8 102 40 102 60 0 9 5 13 10 10 7 -4 10 58 10 179 0 102 -3 186 -8 186 -4 0
-13 13 -20 29 -7 16 -40 58 -73 94 -57 63 -71 71 -282 175 -251 124 -363 202
-545 377 -191 184 -412 482 -412 558 0 17 -7 41 -15 51 -13 17 -15 197 -15
1363 0 889 -3 1343 -10 1343 -5 0 -10 9 -10 19 0 11 -3 21 -8 23 -4 2 -23 27
-42 57 -27 43 -31 56 -20 59 36 12 150 77 229 129 103 69 274 236 361 352 81
108 175 261 243 398 59 116 155 353 182 445 l16 57 137 -141 c75 -77 186 -183
246 -234z m4646 -1331 l0 -378 -318 315 c-176 173 -320 318 -320 322 -1 4 24
9 56 13 111 12 358 55 452 79 52 13 103 24 113 25 16 1 17 -23 17 -376z m280
-1018 c10 -12 10 -18 0 -30 -10 -12 -14 -12 -26 0 -18 18 -18 45 0 45 7 0 19
-7 26 -15z m-5270 -3495 c0 -13 7 -20 19 -20 15 0 19 -10 25 -57 8 -74 22
-138 53 -237 111 -367 399 -630 771 -706 486 -99 963 177 1135 657 29 80 67
256 67 309 0 24 5 34 15 34 8 0 15 9 15 20 0 20 7 20 714 20 422 0 755 -4 815
-10 231 -24 418 -111 560 -259 101 -107 184 -250 223 -386 22 -79 22 -87 26
-723 3 -641 3 -642 -18 -642 -11 0 -20 -7 -20 -15 0 -13 -39 -15 -290 -15
-187 0 -290 -4 -290 -10 0 -5 -20 -10 -45 -10 -25 0 -45 -4 -45 -10 0 -5 -6
-10 -13 -10 -7 0 -42 -17 -79 -39 l-66 -39 -6 30 c-3 17 -6 244 -6 504 l0 474
-140 0 -140 0 0 -504 0 -504 -72 41 c-40 23 -74 45 -76 49 -2 5 -12 8 -23 8
-10 0 -19 5 -19 10 0 7 -660 10 -1960 10 -1736 0 -1960 2 -1960 15 0 11 -11
15 -40 15 l-40 0 0 990 0 990 40 0 c33 0 40 3 40 20 0 20 7 20 415 20 408 0
415 0 415 -20z M1357 6706 c-101 -37 -167 -112 -188 -213 -17 -83 -8 -387 13
-435 25 -57 93 -123 150 -148 41 -18 65 -21 122 -18 113 6 195 59 240 157 19
42 21 63 21 256 0 208 0 210 -27 260 -31 60 -67 95 -128 125 -56 28 -151 36
-203 16z M3577 6706 c-81 -29 -149 -97 -175 -175 -8 -21 -12 -109 -12 -235 0
-191 1 -204 24 -251 47 -99 138 -156 251 -156 113 0 193 50 244 153 l31 61 0
192 c0 232 -8 264 -85 342 -76 76 -183 102 -278 69z M2203 5171 c-62 -38 -84
-128 -46 -191 10 -17 36 -39 58 -50 38 -19 63 -20 331 -20 166 0 305 4 326 10
65 18 111 99 94 165 -4 14 -22 43 -41 63 l-33 37 -329 3 c-312 2 -330 1 -360
-17z M1457 4189 c78 -133 266 -296 448 -386 305 -153 753 -182 1110 -72 183
57 340 147 473 273 71 67 172 189 172 207 0 5 -500 9 -1111 9 l-1110 0 18 -31z
m1386 -206 c56 -5 67 -9 67 -24 0 -12 -7 -19 -19 -19 -11 0 -21 -4 -23 -9 -5
-13 -244 -51 -318 -50 -36 0 -87 4 -115 9 -27 4 -85 13 -127 20 -43 7 -78 16
-78 21 0 5 -9 9 -20 9 -13 0 -20 7 -20 19 0 16 8 21 48 24 85 6 535 7 605 0z
M7640 6413 c-14 -2 -54 -13 -90 -24 -162 -51 -278 -162 -343 -328 -25 -66 -30
-94 -34 -206 -4 -98 -1 -152 11 -219 31 -162 98 -342 185 -496 22 -38 39 -70
37 -70 -2 0 -49 58 -105 130 -110 138 -198 226 -237 236 -32 8 -83 -23 -108
-65 -26 -45 -24 -130 8 -358 32 -225 32 -252 0 -143 -129 436 -367 729 -646
795 -177 42 -361 -15 -514 -158 -99 -92 -162 -179 -233 -317 -229 -447 -265
-1078 -91 -1584 290 -842 986 -947 1360 -205 87 173 151 392 181 619 9 67 12
283 12 729 l0 633 401 -401 c425 -425 479 -474 646 -583 269 -176 522 -262
770 -262 203 0 338 51 449 170 108 115 155 246 155 434 -1 766 -929 1689
-1689 1679 -55 -1 -111 -4 -125 -6z m10 -312 c0 -11 -6 -26 -13 -33 -38 -38
-127 -154 -127 -164 0 -6 -7 -17 -15 -24 -21 -18 -21 -221 1 -287 27 -84 110
-245 178 -346 101 -151 175 -238 368 -429 98 -97 178 -183 178 -190 -1 -8 -6
-6 -15 6 -8 11 -15 16 -15 12 0 -5 -6 -3 -13 3 -8 6 -16 9 -18 6 -3 -2 -62 38
-131 90 -126 95 -320 285 -434 425 -69 86 -158 237 -174 297 -7 26 -21 74 -31
105 -15 45 -19 88 -19 202 l0 144 39 49 c53 67 116 119 165 137 58 20 76 20
76 -3z m916 -277 c167 -123 364 -338 459 -501 43 -75 46 -84 43 -143 l-3 -63
-58 92 c-129 206 -246 345 -473 567 -68 67 -124 127 -124 133 0 17 72 -23 156
-85z m-678 65 c163 -39 409 -206 623 -420 255 -257 419 -527 419 -691 0 -52
-4 -63 -29 -89 -63 -63 -222 -29 -406 86 -136 86 -249 178 -385 315 -149 149
-268 304 -338 438 -99 191 -109 304 -30 352 37 23 78 25 146 9z m-1453 -538
c29 -10 70 -32 90 -47 47 -36 122 -140 151 -212 l24 -57 -2 -665 -2 -665 -6
505 -6 505 -26 90 c-66 228 -113 314 -247 455 -100 106 -94 132 24 91z m-395
-22 c0 -7 -27 -39 -59 -73 -66 -67 -131 -146 -131 -159 0 -4 -11 -25 -25 -45
l-25 -37 0 57 c0 50 4 62 44 115 46 63 115 125 157 142 32 13 39 13 39 0z
m206 -215 c88 -42 160 -199 206 -454 18 -98 21 -153 21 -370 0 -218 -3 -272
-21 -373 -41 -223 -116 -396 -190 -439 -98 -58 -187 23 -256 234 -53 158 -68
264 -73 514 -7 293 12 462 73 649 44 136 96 214 159 241 39 17 41 17 81 -2z
m2924 -464 c0 -79 -3 -95 -24 -129 -31 -48 -86 -83 -137 -86 -54 -3 -51 17 10
86 60 67 131 176 131 201 0 10 5 18 10 18 6 0 10 -37 10 -90z m-3288 -1203
c26 -40 70 -96 98 -126 27 -29 50 -59 50 -66 0 -40 -139 67 -194 149 -21 31
-26 50 -25 95 0 47 2 53 12 38 7 -11 33 -51 59 -90z m684 -31 c-25 -43 -127
-148 -143 -148 -4 0 -14 -4 -20 -10 -28 -23 -12 29 17 57 17 16 61 75 98 130
l67 99 3 -42 c2 -32 -3 -54 -22 -86z m-189 -168 c-3 -8 -6 -5 -6 6 -1 11 2 17
5 13 3 -3 4 -12 1 -19z"/>
</g>
</svg>
