<?xml version="1.0" standalone="no"?>
<!DOCTYPE svg PUBLIC "-//W3C//DTD SVG 20010904//EN"
 "http://www.w3.org/TR/2001/REC-SVG-20010904/DTD/svg10.dtd">
<svg version="1.0" xmlns="http://www.w3.org/2000/svg"
 width="2048.000000pt" height="2048.000000pt" viewBox="0 0 2048.000000 2048.000000"
 preserveAspectRatio="xMidYMid meet">
<metadata>
Created by potrace 1.13, written by Peter Selinger 2001-2015
</metadata>
<g transform="translate(0.000000,2048.000000) scale(0.192120,-0.192120)"
fill="#000000" stroke="none">
<path d="M2624 10229 c-308 -17 -632 -94 -927 -219 -54 -23 -117 -41 -152 -45
-90 -9 -302 -52 -391 -79 -268 -80 -550 -226 -756 -393 l-68 -54 0 -1024 c0
-629 4 -1025 9 -1025 14 0 128 50 191 84 208 111 415 312 575 559 113 174 247
458 319 675 15 45 28 82 30 82 1 0 82 -80 181 -178 99 -98 240 -226 313 -284
600 -478 1306 -788 2112 -927 285 -49 616 -81 846 -81 144 0 210 -11 283 -47
129 -62 257 -252 300 -443 23 -98 24 -99 38 -35 24 105 52 306 60 425 l8 115
130 11 c222 20 456 56 668 105 l87 21 0 427 0 427 -157 58 c-346 128 -750 314
-1046 481 -111 63 -121 71 -166 139 -145 213 -391 479 -581 626 -560 433
-1214 639 -1906 599z m544 -323 c566 -85 1053 -327 1443 -716 74 -74 186 -199
248 -277 120 -152 198 -229 301 -298 162 -108 578 -311 888 -435 l162 -65 -2
-210 -3 -209 -145 -27 c-80 -15 -209 -43 -288 -62 -146 -36 -166 -45 -286
-137 -22 -17 -51 -30 -67 -30 -16 0 -68 22 -116 50 -142 82 -192 91 -558 110
-695 34 -1322 186 -1883 456 -202 97 -303 154 -507 290 -197 131 -295 208
-513 402 -220 197 -288 243 -361 244 -53 1 -91 -22 -181 -108 -81 -77 -128
-153 -194 -312 -71 -170 -116 -253 -233 -434 -80 -123 -220 -274 -246 -265 -9
3 -13 161 -15 720 l-2 715 62 41 c91 60 278 153 391 195 128 48 249 79 427
111 80 14 190 42 245 61 404 144 513 171 835 208 81 9 500 -3 598 -18z M6482
9253 l3 -868 24 -3 c73 -11 151 39 151 97 0 17 5 31 10 31 7 0 10 168 11 483
0 433 5 566 21 582 14 14 42 -13 70 -68 52 -104 57 -164 58 -669 0 -299 3
-458 10 -458 6 0 10 -22 10 -50 0 -27 4 -50 8 -50 4 0 12 -14 17 -32 12 -38
59 -69 115 -75 l38 -5 7 114 c4 62 5 340 3 618 -4 482 -5 509 -26 585 -57 205
-181 385 -366 529 -82 64 -145 106 -159 106 -4 0 -6 -390 -5 -867z M7035 8045
c4 -63 4 -175 0 -249 l-7 -134 -42 -6 c-55 -9 -104 -39 -112 -71 -3 -14 -10
-25 -15 -25 -5 0 -9 -224 -9 -525 0 -343 3 -525 10 -525 6 0 10 -7 10 -16 0
-9 20 -56 45 -105 46 -91 98 -219 91 -226 -2 -2 -9 10 -16 27 -18 44 -102 115
-157 134 -173 59 -351 -57 -370 -242 -6 -51 -7 -53 -18 -31 -7 13 -32 80 -56
149 -23 69 -55 143 -70 165 -44 64 -418 429 -484 471 -51 32 -70 39 -125 42
-36 2 -85 -1 -109 -8 l-44 -12 461 -461 462 -462 0 -142 c0 -86 4 -144 10
-148 6 -4 25 2 43 12 43 25 47 70 13 154 -15 34 -26 64 -26 66 0 1 20 -12 45
-31 145 -111 346 -63 427 103 18 36 23 63 23 123 l0 77 22 -43 c25 -49 66 -86
94 -86 31 0 22 18 -37 80 l-56 59 -1 749 -2 749 79 34 c172 73 589 322 569
339 -4 4 -50 12 -101 19 -109 14 -307 52 -444 87 -53 13 -100 24 -103 24 -4 0
-4 -52 0 -115z m-275 -1970 c10 -12 10 -18 0 -30 -10 -12 -14 -12 -26 0 -18
18 -18 45 0 45 7 0 19 -7 26 -15z M6488 7424 c-5 -4 -8 -165 -8 -358 l0 -350
-290 289 -290 289 -17 -24 c-9 -13 -19 -50 -21 -81 -4 -49 0 -65 27 -115 17
-33 70 -101 116 -152 47 -51 85 -98 85 -106 0 -26 235 -236 264 -236 3 0 6 7
6 15 0 11 5 12 26 5 43 -17 78 -11 126 19 53 33 118 108 135 154 14 39 18 577
4 577 -5 0 -11 10 -15 23 -3 12 -15 28 -26 35 -26 16 -112 27 -122 16z M330
5888 l0 -1424 51 -89 c118 -206 250 -374 425 -545 241 -235 518 -417 807 -530
l107 -43 0 -179 0 -178 28 6 c15 3 37 17 48 29 12 13 25 21 28 18 3 -4 6 66 6
155 0 89 -3 162 -8 162 -4 0 -13 12 -19 28 -7 15 -34 49 -60 75 -38 39 -87 68
-258 151 -235 115 -301 157 -461 292 -134 112 -212 195 -322 337 -128 166
-212 300 -212 340 0 18 -7 42 -15 53 -12 16 -14 191 -15 1312 0 854 -3 1292
-10 1292 -5 0 -10 9 -10 21 0 11 -4 17 -10 14 -5 -3 -10 0 -10 8 0 7 -20 37
-45 66 l-45 53 0 -1424z M1357 6706 c-101 -37 -167 -112 -188 -213 -17 -83 -8
-387 13 -435 25 -57 93 -123 150 -148 41 -18 65 -21 122 -18 113 6 195 59 240
157 19 42 21 63 21 256 0 208 0 210 -27 260 -31 60 -67 95 -128 125 -56 28
-151 36 -203 16z M3577 6706 c-81 -29 -149 -97 -175 -175 -8 -21 -12 -109 -12
-235 0 -191 1 -204 24 -251 47 -99 138 -156 251 -156 113 0 193 50 244 153
l31 61 0 192 c0 232 -8 264 -85 342 -76 76 -183 102 -278 69z M5468 6653 c-21
-14 -38 -32 -38 -39 0 -8 -4 -14 -10 -14 -6 0 -10 -29 -10 -67 0 -120 -43
-317 -91 -417 -47 -98 -97 -156 -184 -212 -110 -71 -183 -141 -191 -182 -3
-18 -12 -36 -19 -40 -8 -5 -14 -53 -19 -147 -20 -410 -31 -470 -130 -715 -75
-184 -146 -325 -243 -481 -137 -219 -176 -271 -292 -388 -198 -200 -312 -277
-640 -437 -175 -86 -199 -101 -252 -157 -33 -34 -59 -67 -59 -74 0 -7 -4 -13
-10 -13 -6 0 -10 -60 -10 -161 0 -96 4 -158 9 -154 5 3 12 -3 15 -13 4 -10 12
-19 19 -20 6 -1 24 -4 39 -8 l28 -6 2 172 3 173 116 47 c691 280 1240 887
1448 1601 65 222 90 388 98 636 l6 192 41 6 c156 26 319 209 385 433 32 106
51 236 51 341 0 100 -8 171 -19 170 -3 0 -23 -12 -43 -26z M7640 6413 c-14 -2
-54 -13 -90 -24 -162 -51 -278 -162 -343 -328 -25 -66 -30 -94 -34 -206 -4
-98 -1 -152 11 -219 31 -162 98 -342 185 -496 22 -38 39 -70 37 -70 -2 0 -49
58 -105 130 -110 138 -198 226 -237 236 -32 8 -83 -23 -108 -65 -26 -45 -24
-130 8 -358 32 -225 32 -252 0 -143 -129 436 -367 729 -646 795 -177 42 -361
-15 -514 -158 -99 -92 -162 -179 -233 -317 -229 -447 -265 -1078 -91 -1584
290 -842 986 -947 1360 -205 87 173 151 392 181 619 9 67 12 283 12 729 l0
633 401 -401 c425 -425 479 -474 646 -583 269 -176 522 -262 770 -262 203 0
338 51 449 170 108 115 155 246 155 434 -1 766 -929 1689 -1689 1679 -55 -1
-111 -4 -125 -6z m10 -312 c0 -11 -6 -26 -13 -33 -38 -38 -127 -154 -127 -164
0 -6 -7 -17 -15 -24 -21 -18 -21 -221 1 -287 27 -84 110 -245 178 -346 101
-151 175 -238 368 -429 98 -97 178 -183 178 -190 -1 -8 -6 -6 -15 6 -8 11 -15
16 -15 12 0 -5 -6 -3 -13 3 -8 6 -16 9 -18 6 -3 -2 -62 38 -131 90 -126 95
-320 285 -434 425 -69 86 -158 237 -174 297 -7 26 -21 74 -31 105 -15 45 -19
88 -19 202 l0 144 39 49 c53 67 116 119 165 137 58 20 76 20 76 -3z m916 -277
c167 -123 364 -338 459 -501 43 -75 46 -84 43 -143 l-3 -63 -58 92 c-129 206
-246 345 -473 567 -68 67 -124 127 -124 133 0 17 72 -23 156 -85z m-678 65
c163 -39 409 -206 623 -420 255 -257 419 -527 419 -691 0 -52 -4 -63 -29 -89
-63 -63 -222 -29 -406 86 -136 86 -249 178 -385 315 -149 149 -268 304 -338
438 -99 191 -109 304 -30 352 37 23 78 25 146 9z m-1453 -538 c29 -10 70 -32
90 -47 47 -36 122 -140 151 -212 l24 -57 -2 -665 -2 -665 -6 505 -6 505 -26
90 c-66 228 -113 314 -247 455 -100 106 -94 132 24 91z m-395 -22 c0 -7 -27
-39 -59 -73 -66 -67 -131 -146 -131 -159 0 -4 -11 -25 -25 -45 l-25 -37 0 57
c0 50 4 62 44 115 46 63 115 125 157 142 32 13 39 13 39 0z m206 -215 c88 -42
160 -199 206 -454 18 -98 21 -153 21 -370 0 -218 -3 -272 -21 -373 -41 -223
-116 -396 -190 -439 -98 -58 -187 23 -256 234 -53 158 -68 264 -73 514 -7 293
12 462 73 649 44 136 96 214 159 241 39 17 41 17 81 -2z m2924 -464 c0 -79 -3
-95 -24 -129 -31 -48 -86 -83 -137 -86 -54 -3 -51 17 10 86 60 67 131 176 131
201 0 10 5 18 10 18 6 0 10 -37 10 -90z m-3288 -1203 c26 -40 70 -96 98 -126
27 -29 50 -59 50 -66 0 -40 -139 67 -194 149 -21 31 -26 50 -25 95 0 47 2 53
12 38 7 -11 33 -51 59 -90z m684 -31 c-25 -43 -127 -148 -143 -148 -4 0 -14
-4 -20 -10 -28 -23 -12 29 17 57 17 16 61 75 98 130 l67 99 3 -42 c2 -32 -3
-54 -22 -86z m-189 -168 c-3 -8 -6 -5 -6 6 -1 11 2 17 5 13 3 -3 4 -12 1 -19z
M2205 5172 c-43 -27 -67 -67 -67 -116 -1 -56 27 -102 77 -126 38 -19 63 -20
331 -20 166 0 305 4 326 10 65 18 111 99 94 165 -4 14 -22 43 -41 63 l-33 37
-329 3 c-306 2 -330 1 -358 -16z M1455 4193 c124 -195 347 -364 589 -447 434
-149 960 -91 1306 144 109 74 310 282 310 321 0 5 -459 9 -1111 9 l-1111 0 17
-27z M330 1580 l0 -1250 2918 0 2917 0 -3 747 c-2 827 -3 842 -66 1018 -108
302 -337 537 -642 658 -185 74 -135 71 -1155 74 l-915 4 0 -193 c0 -164 -3
-206 -21 -278 -40 -156 -102 -269 -212 -384 -151 -156 -331 -240 -548 -253
-421 -25 -789 261 -869 675 -9 47 -14 140 -14 253 l0 179 -695 0 -695 0 0
-1250z m1130 1000 c0 -15 7 -20 25 -20 24 0 25 -3 25 -53 0 -68 31 -212 65
-302 99 -264 281 -463 540 -590 158 -78 252 -99 440 -99 132 0 162 3 249 27
333 92 600 342 719 674 29 80 67 256 67 309 0 24 5 34 15 34 8 0 15 9 15 20 0
20 7 20 699 20 412 0 740 -4 800 -10 231 -24 418 -111 560 -259 101 -107 184
-250 223 -386 22 -79 22 -87 26 -723 3 -641 3 -642 -18 -642 -11 0 -20 -7 -20
-15 0 -13 -39 -15 -290 -15 -187 0 -290 -4 -290 -10 0 -5 -20 -10 -45 -10 -25
0 -45 -4 -45 -10 0 -5 -6 -10 -13 -10 -7 0 -42 -17 -79 -39 l-66 -39 -6 30
c-3 17 -6 244 -6 504 l0 474 -140 0 -140 0 0 -504 0 -504 -72 41 c-40 23 -74
45 -76 49 -2 5 -12 8 -23 8 -10 0 -19 5 -19 10 0 7 -660 10 -1960 10 -1736 0
-1960 2 -1960 15 0 11 -11 15 -40 15 l-40 0 0 990 0 990 40 0 c33 0 40 3 40
20 0 20 7 20 400 20 393 0 400 0 400 -20z"/>
</g>
</svg>
