<?xml version="1.0" standalone="no"?>
<!DOCTYPE svg PUBLIC "-//W3C//DTD SVG 20010904//EN"
 "http://www.w3.org/TR/2001/REC-SVG-20010904/DTD/svg10.dtd">
<svg version="1.0" xmlns="http://www.w3.org/2000/svg"
 width="2048.000000pt" height="2048.000000pt" viewBox="0 0 2048.000000 2048.000000"
 preserveAspectRatio="xMidYMid meet">
<metadata>
Created by potrace 1.13, written by Peter Selinger 2001-2015
</metadata>
<g transform="translate(0.000000,2048.000000) scale(0.192120,-0.192120)"
fill="#000000" stroke="none">
<path d="M3955 10319 c-312 -27 -667 -119 -959 -249 -108 -48 -114 -50 -161
-40 -97 20 -390 24 -525 6 -886 -117 -1571 -801 -1685 -1682 -14 -108 -15
-332 -12 -1940 3 -1329 7 -1842 15 -1904 26 -181 54 -334 87 -462 105 -411
294 -814 530 -1129 l72 -97 -68 -11 c-212 -35 -409 -135 -569 -288 -170 -161
-267 -332 -327 -573 -14 -57 -17 -166 -20 -842 l-4 -778 4031 0 4030 0 0 2360
0 2360 -833 0 c-459 0 -836 2 -838 4 -2 2 -1 154 2 338 5 310 7 337 27 392 43
117 121 219 217 285 53 37 160 78 213 83 l43 3 24 -70 c42 -122 39 -126 -101
-149 -49 -8 -109 -22 -134 -30 -40 -12 31 -14 673 -15 l718 -1 237 40 c130 21
270 43 310 48 l73 9 24 -46 c12 -25 38 -57 56 -71 53 -39 161 -34 540 28 174
29 342 52 373 52 50 0 58 -3 67 -24 15 -31 5 -70 -24 -96 -45 -43 -163 -86
-845 -314 -384 -129 -715 -242 -737 -254 -74 -38 -115 -97 -115 -168 0 -29 4
-34 23 -34 12 0 399 126 860 279 819 273 840 281 922 336 92 61 151 127 161
182 19 103 -50 229 -154 279 -69 33 -118 28 -582 -50 -245 -42 -456 -77 -469
-78 -20 -3 -25 4 -37 50 -19 73 -39 108 -93 161 -66 66 -128 93 -226 98 -71 4
-124 -5 -464 -76 l-384 -81 -323 0 -323 0 -4 718 c-4 767 -3 754 -59 1027 -74
366 -228 732 -443 1055 -621 936 -1696 1455 -2810 1359z m535 -260 c568 -52
1096 -264 1540 -617 118 -94 334 -309 424 -422 264 -331 444 -711 536 -1129
l30 -140 0 -758 0 -759 -47 -23 c-98 -47 -199 -140 -266 -242 -38 -59 -85
-116 -89 -109 -45 71 -43 42 -46 588 -2 303 -7 512 -13 512 -5 0 -9 9 -9 20 0
11 -4 20 -9 20 -5 0 -12 12 -15 26 -10 38 -82 101 -135 118 -46 16 -115 24
-366 46 -739 64 -1437 269 -1951 571 -241 142 -406 269 -600 463 -168 169
-217 229 -372 463 -115 172 -185 253 -231 268 -31 10 -76 -11 -104 -49 -47
-61 -77 -133 -122 -296 -97 -345 -173 -505 -336 -703 -154 -186 -353 -315
-609 -393 -63 -20 -137 -42 -164 -51 -59 -18 -118 -57 -166 -109 l-35 -39 0
-1090 0 -1090 23 -90 c95 -373 209 -639 393 -915 267 -399 639 -720 1062 -915
81 -37 107 -54 107 -68 0 -10 9 -21 20 -24 17 -5 20 -14 20 -69 0 -48 4 -66
15 -70 9 -4 15 -19 15 -40 0 -19 4 -34 8 -34 4 0 13 -18 19 -40 l10 -40 -819
0 c-777 0 -820 1 -813 18 20 50 24 78 14 120 -12 57 -48 135 -98 215 -234 374
-378 746 -446 1152 l-25 150 0 1965 c0 1888 1 1968 19 2050 89 399 340 756
702 999 214 143 467 237 739 277 93 13 160 16 347 11 271 -7 277 -6 506 82
259 99 521 163 777 190 123 12 427 13 560 0z m-1631 -1186 c13 -38 46 -109 72
-160 297 -574 875 -1057 1615 -1351 489 -194 1150 -328 1732 -349 l162 -6 0
-776 c0 -620 -3 -801 -15 -902 -57 -486 -237 -916 -544 -1296 -88 -110 -280
-300 -386 -384 -175 -139 -396 -269 -595 -350 l-127 -52 4 -329 c5 -385 -4
-500 -47 -631 -75 -223 -253 -414 -471 -505 -228 -94 -508 -79 -721 41 -147
83 -272 215 -343 362 -78 162 -78 158 -84 639 l-6 428 -75 28 c-100 36 -302
138 -417 210 -215 136 -433 326 -595 521 -243 293 -432 674 -513 1033 -60 269
-58 238 -62 1287 l-4 966 63 7 c91 9 273 59 382 104 334 140 586 386 751 736
102 215 169 467 182 684 3 61 9 112 12 112 3 0 17 -30 30 -67z m5906 -2785
c33 -15 32 -34 -2 -52 -65 -33 -458 -78 -493 -56 -35 21 34 48 230 90 146 31
225 37 265 18z m-2164 -998 c19 -17 51 -38 71 -48 l37 -17 1 -95 c0 -87 -102
-1907 -115 -2045 l-6 -60 -867 3 c-476 2 -869 5 -871 8 -3 3 0 14 7 25 7 11
15 40 19 64 3 25 12 50 19 56 9 7 14 33 14 71 0 43 4 60 15 64 8 4 15 15 15
25 0 12 13 24 37 34 21 9 44 22 53 29 8 8 69 42 135 76 454 233 858 634 1099
1090 75 142 157 351 202 511 41 148 56 190 81 219 10 11 18 20 19 20 1 0 17
-14 35 -30z m1519 -220 c0 -13 7 -20 20 -20 20 0 20 -7 20 -2140 0 -2133 0
-2140 -20 -2140 -11 0 -20 -7 -20 -15 0 -13 -86 -15 -715 -15 -470 0 -715 -3
-715 -10 0 -5 -20 -10 -44 -10 -24 0 -46 -3 -48 -7 -4 -10 -130 -73 -146 -73
-9 0 -12 115 -12 500 l0 500 -140 0 -140 0 0 -504 0 -505 -57 30 c-32 16 -73
32 -90 35 -18 3 -33 10 -33 15 0 5 -861 9 -2050 9 -1360 0 -2050 -3 -2050 -10
0 -5 -5 -10 -11 -10 -6 0 -42 -16 -80 -35 l-69 -34 0 504 0 505 -140 0 -140 0
0 -505 0 -506 -72 38 c-40 21 -74 41 -76 46 -2 4 -12 7 -23 7 -10 0 -19 5 -19
10 0 6 -105 10 -295 10 -256 0 -295 2 -295 15 0 11 -12 15 -45 15 l-45 0 0
688 0 687 25 69 c41 116 110 221 215 326 108 108 158 140 336 216 69 30 160
78 202 107 136 94 69 87 862 87 693 0 700 0 700 -20 0 -13 7 -20 20 -20 19 0
20 -7 20 -114 0 -395 198 -742 522 -915 152 -82 292 -116 473 -115 259 1 479
88 660 262 211 203 315 458 315 772 0 103 1 110 20 110 13 0 20 7 20 19 0 15
10 19 53 25 28 3 383 6 787 6 848 0 785 -7 833 94 l28 60 9 320 c8 289 70
1414 86 1560 5 44 11 60 25 63 9 3 19 12 21 21 4 16 57 17 661 14 648 -2 657
-3 657 -22z M2754 6710 c-91 -28 -183 -129 -198 -217 -3 -21 -6 -110 -6 -199
0 -194 12 -245 73 -311 116 -127 303 -125 415 2 65 74 75 120 70 343 -3 186
-3 187 -33 240 -32 59 -67 92 -129 124 -46 23 -144 33 -192 18z M4969 6706
c-84 -30 -140 -82 -177 -164 -14 -31 -17 -70 -17 -237 0 -188 1 -203 23 -250
49 -106 139 -165 252 -164 114 0 193 45 246 141 29 53 29 53 32 251 4 241 -4
274 -83 353 -76 76 -183 103 -276 70z M3593 5170 c-45 -27 -66 -64 -66 -114 0
-56 28 -102 80 -127 39 -19 57 -20 350 -17 300 3 309 4 339 25 85 61 80 179
-9 233 -30 19 -52 20 -347 20 -295 0 -317 -1 -347 -20z M2830 4213 c0 -17 119
-159 179 -214 179 -165 394 -267 666 -314 132 -23 393 -24 525 -2 295 50 545
176 721 364 61 64 129 153 129 167 0 3 -499 6 -1110 6 -610 0 -1110 -3 -1110
-7z m1275 -263 l60 -7 -47 -2 c-27 0 -48 -5 -48 -11 0 -6 -50 -10 -130 -10
-80 0 -130 4 -130 10 0 6 -19 11 -42 12 l-43 1 50 7 c68 9 256 10 330 0z"/>
</g>
</svg>
