<?xml version="1.0" standalone="no"?>
<!DOCTYPE svg PUBLIC "-//W3C//DTD SVG 20010904//EN"
 "http://www.w3.org/TR/2001/REC-SVG-20010904/DTD/svg10.dtd">
<svg version="1.0" xmlns="http://www.w3.org/2000/svg"
 width="2048.000000pt" height="2048.000000pt" viewBox="0 0 2048.000000 2048.000000"
 preserveAspectRatio="xMidYMid meet">
<metadata>
Created by potrace 1.13, written by Peter Selinger 2001-2015
</metadata>
<g transform="translate(0.000000,2048.000000) scale(0.192120,-0.192120)"
fill="#000000" stroke="none">
<path d="M4278 10315 c-667 -91 -1225 -585 -1393 -1232 -57 -218 -56 -168 -52
-2159 2 -1667 4 -1837 19 -1919 27 -144 65 -262 118 -370 l49 -100 11 -220
c26 -545 85 -897 184 -1100 53 -107 119 -177 187 -195 86 -23 308 22 563 114
54 20 103 36 110 36 6 0 22 -17 36 -37 35 -52 189 -205 245 -243 l47 -32 28
27 c26 25 32 27 58 16 52 -22 86 -66 86 -114 l1 -42 80 -42 c148 -77 324 -124
547 -144 272 -25 589 32 803 144 l80 42 2 44 c2 47 26 82 76 107 29 16 38 13
74 -19 l22 -20 38 28 c78 59 160 135 213 200 30 36 56 70 58 74 2 5 -11 22
-28 39 -16 17 -30 36 -30 44 0 24 56 131 154 293 259 428 370 746 421 1205 17
157 19 358 4 412 -5 21 -20 50 -32 64 l-23 26 -12 -169 c-48 -645 -210 -1191
-470 -1583 -92 -138 -288 -341 -402 -417 -159 -106 -341 -181 -535 -219 -127
-25 -444 -26 -570 -1 -235 47 -420 127 -589 256 -461 350 -751 1044 -818 1955
-7 91 -15 166 -19 166 -21 0 -59 -67 -73 -129 -19 -81 -20 -174 -6 -396 12
-182 42 -344 95 -502 56 -169 206 -461 341 -663 172 -258 190 -306 128 -347
-31 -20 -19 -32 -189 192 -311 412 -482 872 -534 1445 -12 128 -14 382 -5 454
l7 46 1949 0 1950 0 -6 -24 c-3 -13 -10 -126 -16 -252 -22 -513 -98 -849 -275
-1229 -54 -118 -269 -475 -346 -577 -33 -44 -59 -82 -57 -83 2 -2 77 -28 168
-58 208 -69 309 -91 430 -90 117 0 179 23 241 90 123 134 165 391 184 1142 l7
244 48 85 c85 148 137 325 159 541 7 68 11 701 11 1872 0 1514 -2 1784 -15
1882 -99 754 -688 1343 -1442 1442 -157 21 -1943 20 -2095 0z m2002 -295 c372
-33 684 -179 930 -436 139 -146 242 -322 295 -508 l25 -88 0 -1969 c0 -1204
-4 -1970 -9 -1974 -17 -10 -21 12 -29 137 -8 118 -10 125 -43 178 -44 68 -150
167 -204 191 -22 10 -94 25 -160 33 -104 14 -328 16 -1754 16 -2004 0 -1891 7
-2043 -130 -37 -34 -84 -88 -104 -121 -24 -38 -43 -59 -56 -59 -18 0 -18 48
-16 1853 l3 1852 34 100 c99 295 278 522 549 699 188 122 431 204 669 225 134
12 1779 13 1913 1z m985 -6605 c-8 -29 -27 -64 -42 -80 -27 -26 -31 -27 -110
-23 -135 7 -142 30 -51 186 82 143 88 155 133 242 21 41 48 91 59 110 l21 35
3 -209 c2 -163 -1 -221 -13 -261z m-3826 289 c55 -106 111 -204 148 -259 20
-30 33 -62 33 -82 0 -30 -3 -32 -54 -44 -77 -17 -102 -2 -146 86 -35 69 -35
70 -38 223 -4 178 1 185 57 76z M4422 5149 c-85 -43 -106 -106 -100 -306 4
-146 12 -176 60 -220 95 -89 263 -62 326 52 14 25 17 60 17 195 0 162 -1 166
-27 212 -50 85 -177 116 -276 67z M6040 5159 c-32 -13 -78 -56 -96 -91 -20
-38 -20 -357 0 -396 60 -116 242 -139 329 -42 50 55 59 100 55 264 -4 168 -16
203 -87 247 -38 25 -55 29 -110 28 -37 0 -77 -5 -91 -10z M5073 4170 c-55 -33
-66 -131 -21 -180 34 -36 62 -40 275 -40 231 0 260 6 287 65 20 41 20 66 2
110 -25 60 -48 65 -293 65 -199 0 -221 -2 -250 -20z M4770 3709 c-61 -25 -100
-85 -100 -156 0 -64 24 -101 102 -156 159 -113 322 -161 543 -161 134 0 202
10 315 46 139 44 283 138 314 203 23 47 17 125 -11 163 -23 32 -97 72 -133 72
-30 0 -87 -28 -153 -74 -27 -19 -81 -45 -120 -58 -62 -20 -92 -23 -212 -23
-120 0 -150 3 -213 24 -39 13 -93 38 -118 55 -111 75 -155 88 -214 65z M4394
2821 c-46 -28 -74 -95 -87 -210 -13 -123 -3 -178 60 -302 34 -68 64 -111 129
-179 170 -178 350 -281 597 -342 l87 -21 -58 -38 c-65 -42 -142 -120 -142
-143 0 -10 -6 -13 -15 -10 -13 5 -15 -49 -15 -450 0 -449 0 -456 -20 -456 -17
0 -20 -7 -20 -40 l0 -40 -1050 0 -1050 0 0 395 0 395 35 154 c19 85 35 170 35
189 0 46 -23 108 -59 161 l-30 43 122 21 c67 12 367 60 667 108 590 93 593 94
625 161 17 35 17 43 1 157 -9 67 -18 130 -20 142 -2 19 0 20 25 11 21 -8 35
-7 56 3 28 14 28 15 -30 20 -58 5 -59 5 -73 45 -15 46 -56 83 -99 90 -16 3
-268 -32 -560 -79 -291 -46 -595 -95 -674 -107 -129 -20 -148 -26 -178 -52
-50 -44 -54 -73 -28 -238 12 -79 25 -158 29 -176 8 -34 66 -93 91 -93 20 0 20
0 -26 -91 -81 -161 -140 -396 -159 -633 -5 -71 -10 -299 -10 -507 l0 -379
1320 0 1320 0 0 718 0 718 140 0 140 0 0 -718 0 -718 1320 0 1320 0 0 373 c0
204 -5 433 -10 507 -19 240 -78 476 -161 642 -22 43 -39 80 -39 83 0 3 9 5 19
5 29 0 78 46 90 83 13 42 51 288 51 330 0 41 -31 92 -69 111 -17 9 -281 55
-603 106 -315 50 -613 97 -663 106 -49 8 -104 13 -122 9 -46 -8 -91 -50 -103
-95 l-11 -39 -62 -3 -62 -3 26 -18 c21 -14 32 -15 54 -7 15 6 30 8 33 5 3 -3
-2 -56 -11 -118 -9 -62 -17 -126 -17 -142 0 -39 32 -90 68 -109 16 -8 303 -58
638 -111 335 -53 632 -102 661 -108 l52 -12 -33 -50 c-18 -27 -38 -65 -45 -84
-18 -53 -13 -147 14 -261 24 -103 25 -114 25 -522 l0 -418 -1050 0 -1050 0 0
40 c0 33 -3 40 -20 40 -20 0 -20 7 -20 450 0 250 -4 450 -9 450 -5 0 -11 14
-15 30 -7 36 -47 77 -129 130 l-57 38 52 12 c257 60 475 182 635 354 109 117
180 255 190 365 7 76 -13 206 -39 259 -22 47 -70 84 -102 80 -16 -2 -20 -12
-22 -52 -2 -28 -16 -75 -33 -112 -103 -219 -423 -378 -791 -391 -129 -5 -158
-2 -266 20 -299 62 -517 194 -599 361 -29 59 -39 96 -44 169 -1 13 -36 7 -67
-12z"/>
</g>
</svg>
