<?xml version="1.0" standalone="no"?>
<!DOCTYPE svg PUBLIC "-//W3C//DTD SVG 20010904//EN"
 "http://www.w3.org/TR/2001/REC-SVG-20010904/DTD/svg10.dtd">
<svg version="1.0" xmlns="http://www.w3.org/2000/svg"
 width="2048.000000pt" height="2048.000000pt" viewBox="0 0 2048.000000 2048.000000"
 preserveAspectRatio="xMidYMid meet">
<metadata>
Created by potrace 1.13, written by Peter Selinger 2001-2015
</metadata>
<g transform="translate(0.000000,2048.000000) scale(0.192120,-0.192120)"
fill="#000000" stroke="none">
<path d="M4278 10315 c-667 -91 -1225 -585 -1393 -1232 -57 -218 -56 -168 -52
-2158 2 -1670 4 -1838 19 -1920 28 -146 65 -263 118 -372 l50 -101 10 -214
c26 -546 85 -897 185 -1103 51 -107 118 -177 186 -195 80 -22 246 9 493 92
l180 60 50 -59 c65 -77 181 -188 233 -224 l42 -29 28 42 c37 56 66 60 141 17
31 -17 73 -44 92 -59 20 -16 52 -36 72 -46 51 -24 55 -42 13 -60 -30 -12 -55
-39 -55 -59 0 -24 234 -98 385 -122 121 -19 378 -21 490 -4 175 27 405 101
405 132 0 19 -31 49 -51 49 -8 0 -22 7 -31 14 -16 12 -16 14 5 34 13 12 27 22
33 22 5 0 35 18 66 40 76 53 152 90 183 90 18 0 32 -11 52 -42 15 -24 28 -45
30 -47 9 -14 179 137 257 228 l67 79 97 -35 c232 -85 364 -115 497 -116 121
-1 183 22 244 88 122 133 161 355 182 1035 l10 355 29 45 c73 113 133 282 168
465 15 82 17 252 19 1919 3 1591 2 1845 -12 1947 -98 755 -687 1345 -1442
1444 -157 21 -1943 20 -2095 0z m2002 -295 c372 -33 684 -179 930 -436 139
-146 242 -322 295 -508 l25 -88 0 -1712 0 -1712 -102 10 c-124 12 -3832 15
-4121 3 l-197 -7 2 1712 3 1713 34 100 c99 295 278 522 549 699 188 122 431
204 669 225 134 12 1779 13 1913 1z m1330 -5017 c0 -181 -3 -351 -6 -379 l-6
-51 -58 -17 c-58 -18 -130 -74 -130 -103 0 -8 -4 -12 -8 -9 -5 3 -12 -119 -15
-272 -13 -540 -47 -778 -126 -872 -26 -32 -33 -34 -97 -38 -123 -7 -319 43
-335 85 -13 34 10 90 63 159 167 217 314 529 393 833 20 78 22 691 3 734 -7
15 -16 27 -20 27 -5 0 -8 -42 -8 -92 0 -105 -22 -323 -45 -461 -56 -324 -180
-663 -338 -929 -116 -194 -181 -295 -203 -318 l-25 -25 -25 29 c-42 48 -38 60
128 342 75 127 188 351 237 469 19 44 46 107 61 140 50 110 51 126 48 490 l-3
340 -30 45 -30 45 -8 -80 c-64 -635 -158 -1010 -348 -1385 -245 -484 -599
-769 -1064 -856 -138 -26 -451 -26 -580 0 -472 94 -819 376 -1064 864 -133
264 -230 585 -291 962 -18 114 -50 406 -50 469 l-1 26 -25 -30 c-13 -16 -29
-35 -34 -42 -6 -7 -10 -19 -10 -28 0 -8 -6 -15 -14 -15 -17 0 -22 -14 -32 -83
-5 -39 -11 -50 -31 -58 -13 -5 -29 -8 -36 -6 -37 7 69 -517 164 -809 60 -184
119 -334 133 -334 31 0 225 -247 282 -360 27 -54 26 -76 -6 -105 -19 -17 -21
-17 -41 1 -12 10 -52 60 -89 109 -315 419 -497 967 -517 1554 l-6 185 -23 -30
c-13 -16 -24 -37 -24 -46 0 -9 -4 -20 -10 -23 -6 -4 -10 -121 -10 -317 l0
-311 47 -156 c104 -350 229 -614 389 -823 45 -58 55 -98 32 -122 -20 -19 -100
-44 -187 -57 -71 -11 -82 -10 -117 7 -21 10 -51 37 -66 60 -77 116 -142 509
-155 936 -3 125 -10 228 -15 228 -4 0 -8 5 -8 12 0 28 -97 92 -182 121 -17 6
-18 32 -18 352 l0 345 2295 0 2295 0 0 -327z M4422 5149 c-29 -15 -51 -36 -70
-68 -26 -45 -27 -50 -27 -201 0 -174 4 -195 42 -241 71 -84 220 -92 301 -16
52 48 57 70 57 247 0 162 -1 166 -27 212 -50 85 -177 116 -276 67z M6040 5159
c-32 -13 -78 -57 -96 -91 -10 -20 -14 -70 -14 -198 0 -187 5 -207 59 -253 70
-58 193 -63 260 -9 70 57 76 77 76 262 0 190 -10 223 -78 268 -33 22 -54 27
-111 29 -39 2 -82 -2 -96 -8z M5073 4170 c-60 -36 -66 -134 -11 -187 l29 -28
219 -3 c248 -3 275 2 304 63 20 41 20 66 2 110 -25 60 -48 65 -293 65 -199 0
-221 -2 -250 -20z M4770 3709 c-61 -25 -100 -85 -100 -156 0 -64 24 -101 102
-156 159 -113 322 -161 543 -161 134 0 202 10 315 46 139 44 283 138 314 203
23 47 17 125 -11 163 -23 32 -97 72 -133 72 -30 0 -87 -28 -153 -74 -27 -19
-81 -45 -120 -58 -62 -20 -92 -23 -212 -23 -120 0 -150 3 -213 24 -39 13 -93
38 -118 55 -111 75 -155 88 -214 65z M4394 2821 c-46 -28 -74 -95 -87 -210
-13 -123 -3 -178 60 -302 34 -68 64 -111 129 -179 170 -178 350 -281 597 -342
l87 -21 -58 -38 c-65 -42 -142 -120 -142 -143 0 -10 -6 -13 -15 -10 -13 5 -15
-49 -15 -450 0 -449 0 -456 -20 -456 -17 0 -20 -7 -20 -40 l0 -40 -1050 0
-1050 0 0 395 0 395 35 154 c19 85 35 170 35 189 0 46 -23 108 -59 161 l-30
43 122 21 c67 12 367 60 667 108 590 93 593 94 625 161 17 35 17 43 1 157 -9
67 -18 130 -20 142 -2 19 0 20 25 11 21 -8 35 -7 56 3 28 14 28 15 -30 20 -58
5 -59 5 -73 45 -15 46 -56 83 -99 90 -16 3 -268 -32 -560 -79 -291 -46 -595
-95 -674 -107 -129 -20 -148 -26 -178 -52 -50 -44 -54 -73 -28 -238 12 -79 25
-158 29 -176 8 -34 66 -93 91 -93 20 0 20 0 -26 -91 -81 -161 -140 -396 -159
-633 -5 -71 -10 -299 -10 -507 l0 -379 1320 0 1320 0 0 718 0 718 140 0 140 0
0 -718 0 -718 1320 0 1320 0 0 373 c0 204 -5 433 -10 507 -19 240 -78 476
-161 642 -22 43 -39 80 -39 83 0 3 9 5 19 5 29 0 78 46 90 83 13 42 51 288 51
330 0 41 -31 92 -69 111 -17 9 -281 55 -603 106 -315 50 -613 97 -663 106 -49
8 -104 13 -122 9 -46 -8 -91 -50 -103 -95 l-11 -39 -62 -3 -62 -3 26 -18 c21
-14 32 -15 54 -7 15 6 30 8 33 5 3 -3 -2 -56 -11 -118 -9 -62 -17 -126 -17
-142 0 -39 32 -90 68 -109 16 -8 303 -58 638 -111 335 -53 632 -102 661 -108
l52 -12 -33 -50 c-18 -27 -38 -65 -45 -84 -18 -53 -13 -147 14 -261 24 -103
25 -114 25 -522 l0 -418 -1050 0 -1050 0 0 40 c0 33 -3 40 -20 40 -20 0 -20 7
-20 450 0 250 -4 450 -9 450 -5 0 -11 14 -15 30 -7 36 -47 77 -129 130 l-57
38 52 12 c257 60 475 182 635 354 109 117 180 255 190 365 7 76 -13 206 -39
259 -20 43 -67 82 -99 82 -13 0 -18 -13 -23 -54 -15 -119 -107 -247 -237 -332
-213 -139 -555 -206 -815 -159 -387 69 -650 258 -679 490 -7 62 -19 68 -71 36z"/>
</g>
</svg>
