<?xml version="1.0" standalone="no"?>
<!DOCTYPE svg PUBLIC "-//W3C//DTD SVG 20010904//EN"
 "http://www.w3.org/TR/2001/REC-SVG-20010904/DTD/svg10.dtd">
<svg version="1.0" xmlns="http://www.w3.org/2000/svg"
 width="2048.000000pt" height="2048.000000pt" viewBox="0 0 2048.000000 2048.000000"
 preserveAspectRatio="xMidYMid meet">
<metadata>
Created by potrace 1.13, written by Peter Selinger 2001-2015
</metadata>
<g transform="translate(0.000000,2048.000000) scale(0.192120,-0.192120)"
fill="#000000" stroke="none">
<path d="M4278 10315 c-667 -91 -1225 -585 -1393 -1232 -57 -218 -56 -168 -52
-2159 2 -1667 4 -1837 19 -1919 27 -143 65 -262 118 -371 l49 -100 11 -220
c27 -546 86 -896 184 -1099 53 -108 119 -177 187 -195 86 -23 281 15 542 107
l131 46 50 -59 c65 -77 180 -188 233 -225 l42 -30 20 39 c11 22 23 63 26 93
10 84 14 100 28 94 7 -3 -4 6 -23 22 -19 15 -70 61 -112 102 -48 46 -78 68
-78 58 0 -15 -52 -36 -90 -37 -8 0 -35 -10 -59 -21 l-45 -20 -25 32 c-115 145
-235 313 -292 410 -250 422 -379 930 -379 1483 0 78 3 158 6 179 l7 37 1950 0
1950 0 -7 -37 c-3 -21 -11 -130 -16 -243 -6 -113 -15 -250 -21 -305 -36 -337
-131 -673 -273 -955 -67 -135 -250 -439 -321 -535 l-54 -74 -44 19 c-24 11
-67 24 -95 30 -28 7 -53 18 -56 27 -5 11 -20 2 -67 -41 -33 -31 -77 -70 -99
-87 -35 -28 -38 -34 -33 -68 9 -66 34 -153 50 -177 l15 -24 44 31 c55 41 168
149 226 219 l46 55 174 -58 c220 -73 299 -89 423 -90 121 -1 183 22 244 88
122 133 161 354 182 1035 l10 355 29 45 c71 112 129 270 167 460 15 78 17 240
20 1919 3 1597 2 1850 -12 1951 -98 756 -687 1346 -1442 1445 -157 21 -1943
20 -2095 0z m2002 -295 c372 -33 684 -179 930 -436 140 -146 243 -324 295
-509 l25 -90 -2 -1746 -3 -1745 -80 13 c-44 7 -116 26 -160 41 l-80 27 -1885
0 -1885 0 -79 -27 c-74 -27 -174 -48 -224 -48 l-22 0 2 1748 3 1747 34 100
c99 295 278 522 549 699 188 122 431 204 669 225 134 12 1779 13 1913 1z
m-2956 -4719 c-39 -29 -84 -82 -84 -100 0 -5 -6 -16 -13 -23 -23 -23 -37 -104
-37 -218 0 -128 -14 -200 -39 -200 -20 0 -55 22 -98 63 l-33 31 0 238 0 238
172 0 172 0 -40 -29z m4286 -223 c0 -139 -3 -270 -6 -291 -6 -32 -15 -42 -63
-72 -30 -19 -61 -35 -69 -35 -31 0 -42 65 -42 251 0 228 -10 270 -87 347 l-52
52 160 0 159 0 0 -252z m-321 -1621 c-17 -82 -58 -143 -106 -156 -45 -13 -154
2 -192 26 -33 21 -25 50 63 206 68 122 216 421 216 436 0 4 6 13 13 20 17 17
23 -450 6 -532z m-3839 301 c43 -90 106 -208 139 -264 74 -126 81 -147 49
-167 -30 -20 -107 -31 -148 -22 -39 9 -73 58 -106 155 -22 66 -24 87 -24 266
0 107 2 194 5 194 3 0 41 -73 85 -162z M4422 5149 c-29 -15 -51 -36 -70 -68
-26 -45 -27 -50 -27 -201 0 -174 4 -195 42 -241 71 -84 220 -92 301 -16 51 48
56 70 57 247 0 162 0 166 -27 212 -50 85 -177 116 -276 67z M6040 5159 c-32
-13 -78 -56 -96 -91 -20 -38 -20 -357 0 -396 60 -116 242 -139 329 -42 50 55
59 100 55 264 -4 168 -16 203 -87 247 -38 25 -55 29 -110 28 -37 0 -77 -5 -91
-10z M5082 4177 c-37 -21 -56 -57 -56 -109 0 -42 5 -54 32 -81 l32 -32 208 -3
c114 -2 221 -1 238 3 70 13 110 97 80 168 -26 62 -47 67 -293 67 -156 -1 -224
-4 -241 -13z M4770 3709 c-61 -25 -100 -85 -100 -156 0 -64 24 -101 102 -156
159 -113 322 -161 543 -161 134 0 202 10 315 46 139 44 283 138 314 203 23 47
17 125 -11 163 -23 32 -97 72 -133 72 -30 0 -87 -28 -153 -74 -27 -19 -81 -45
-120 -58 -62 -20 -92 -23 -212 -23 -120 0 -150 3 -213 24 -39 13 -93 38 -118
55 -111 75 -155 88 -214 65z M4394 2821 c-46 -28 -74 -95 -87 -210 -13 -123
-3 -178 60 -302 34 -68 64 -111 129 -179 170 -178 350 -281 597 -342 l87 -21
-58 -38 c-65 -42 -142 -120 -142 -143 0 -10 -6 -13 -15 -10 -13 5 -15 -49 -15
-450 0 -449 0 -456 -20 -456 -17 0 -20 -7 -20 -40 l0 -40 -1050 0 -1050 0 0
395 0 395 35 154 c19 85 35 170 35 189 0 46 -23 108 -59 161 l-30 43 122 21
c67 12 367 60 667 108 590 93 593 94 625 161 17 35 17 43 1 157 -9 67 -18 130
-20 142 -2 19 0 20 25 11 21 -8 35 -7 56 3 28 14 28 15 -30 20 -58 5 -59 5
-73 45 -15 46 -56 83 -99 90 -16 3 -268 -32 -560 -79 -291 -46 -595 -95 -674
-107 -129 -20 -148 -26 -178 -52 -50 -44 -54 -73 -28 -238 12 -79 25 -158 29
-176 8 -34 66 -93 91 -93 20 0 20 0 -26 -91 -81 -161 -140 -396 -159 -633 -5
-71 -10 -299 -10 -507 l0 -379 1320 0 1320 0 0 718 0 718 140 0 140 0 0 -718
0 -718 1320 0 1320 0 0 373 c0 204 -5 433 -10 507 -19 240 -78 476 -161 642
-22 43 -39 80 -39 83 0 3 9 5 19 5 29 0 78 46 90 83 13 42 51 288 51 330 0 41
-31 92 -69 111 -17 9 -281 55 -603 106 -315 50 -613 97 -663 106 -49 8 -104
13 -122 9 -46 -8 -91 -50 -103 -96 l-11 -39 -62 0 c-55 0 -60 -2 -46 -15 18
-18 44 -22 77 -11 27 9 28 -2 7 -129 -8 -49 -15 -106 -15 -125 0 -44 30 -94
68 -114 16 -8 303 -58 638 -111 335 -53 632 -102 661 -108 l52 -12 -33 -50
c-18 -27 -38 -65 -45 -84 -18 -53 -13 -147 14 -261 24 -103 25 -114 25 -522
l0 -418 -1050 0 -1050 0 0 40 c0 33 -3 40 -20 40 -20 0 -20 7 -20 450 0 250
-4 450 -9 450 -5 0 -11 14 -15 30 -7 36 -47 77 -129 130 l-57 38 52 12 c257
60 475 182 635 354 109 117 180 255 190 365 7 76 -13 206 -39 259 -20 43 -67
82 -98 82 -11 0 -19 -19 -28 -66 -41 -216 -242 -377 -574 -460 -77 -19 -139
-27 -248 -31 -129 -5 -158 -2 -266 20 -291 61 -517 195 -598 354 -14 28 -30
80 -36 117 -13 74 -23 80 -76 47z"/>
</g>
</svg>
