<?xml version="1.0" standalone="no"?>
<!DOCTYPE svg PUBLIC "-//W3C//DTD SVG 20010904//EN"
 "http://www.w3.org/TR/2001/REC-SVG-20010904/DTD/svg10.dtd">
<svg version="1.0" xmlns="http://www.w3.org/2000/svg"
 width="2048.000000pt" height="2048.000000pt" viewBox="0 0 2048.000000 2048.000000"
 preserveAspectRatio="xMidYMid meet">
<metadata>
Created by potrace 1.13, written by Peter Selinger 2001-2015
</metadata>
<g transform="translate(0.000000,2048.000000) scale(0.192120,-0.192120)"
fill="#000000" stroke="none">
<path d="M6720 10050 c-229 -28 -453 -117 -640 -253 -71 -52 -215 -196 -267
-268 -105 -143 -182 -311 -224 -486 -108 -455 70 -1092 469 -1678 456 -670
1155 -1264 1803 -1535 l66 -28 89 38 c566 238 1218 773 1664 1365 308 411 488
789 577 1214 33 159 36 191 36 331 0 121 -5 178 -22 257 -56 265 -168 472
-360 664 -192 192 -400 305 -664 360 -143 31 -372 31 -509 1 -188 -41 -321
-96 -475 -198 -96 -64 -226 -183 -291 -267 l-46 -60 -25 34 c-49 66 -187 201
-262 258 -85 64 -238 146 -347 185 -162 58 -406 86 -572 66z m433 -313 c111
-29 253 -94 342 -155 33 -22 103 -77 155 -122 161 -138 235 -178 305 -164 47
8 129 63 245 164 52 45 121 100 154 122 86 60 232 125 343 155 90 25 114 27
293 27 181 0 202 -2 292 -27 351 -97 612 -331 717 -644 19 -58 21 -85 21 -350
0 -320 -6 -363 -83 -588 -132 -384 -402 -802 -766 -1187 -324 -342 -843 -726
-1133 -838 -97 -38 -129 -37 -227 0 -255 98 -692 408 -1010 716 -325 314 -552
609 -741 959 -117 218 -194 429 -235 640 -21 113 -21 507 0 589 80 306 328
560 660 676 141 49 218 60 405 56 138 -3 181 -7 263 -29z M2055 6733 c-497
-61 -936 -292 -1239 -653 -268 -320 -412 -670 -447 -1089 -19 -225 15 -498
106 -846 190 -727 686 -1518 1399 -2230 592 -591 1234 -1039 1831 -1281 l80
-32 55 21 c264 98 666 321 972 539 1138 811 2029 1977 2288 2993 118 462 136
758 68 1090 -131 640 -610 1182 -1234 1394 -233 79 -423 107 -684 98 -481 -16
-914 -204 -1258 -546 -53 -53 -122 -129 -152 -170 l-54 -73 -16 23 c-28 44
-157 194 -206 240 -308 291 -679 467 -1094 519 -78 9 -347 12 -415 3z m385
-283 c206 -25 371 -72 547 -155 194 -92 303 -171 523 -379 144 -137 218 -181
290 -174 68 7 128 48 291 204 175 166 287 246 464 334 485 240 1058 240 1539
-2 391 -196 662 -507 798 -917 l32 -96 4 -380 c3 -414 3 -418 -59 -666 -133
-537 -459 -1128 -937 -1703 -522 -628 -1279 -1239 -1896 -1532 -241 -113 -271
-112 -531 16 -900 444 -1876 1361 -2398 2252 -245 417 -390 790 -463 1181 -22
119 -24 156 -24 424 0 327 5 369 66 546 171 494 625 887 1169 1013 178 41 415
54 585 34z"/>
</g>
</svg>
