<?xml version="1.0" standalone="no"?>
<!DOCTYPE svg PUBLIC "-//W3C//DTD SVG 20010904//EN"
 "http://www.w3.org/TR/2001/REC-SVG-20010904/DTD/svg10.dtd">
<svg version="1.0" xmlns="http://www.w3.org/2000/svg"
 width="2048.000000pt" height="2048.000000pt" viewBox="0 0 2048.000000 2048.000000"
 preserveAspectRatio="xMidYMid meet">
<metadata>
Created by potrace 1.13, written by Peter Selinger 2001-2015
</metadata>
<g transform="translate(0.000000,2048.000000) scale(0.192120,-0.192120)"
fill="#000000" stroke="none">
<path d="M2778 9765 c-501 -61 -980 -261 -1381 -577 -56 -44 -165 -144 -242
-222 -434 -438 -698 -984 -776 -1611 -16 -129 -16 -482 0 -610 7 -55 23 -154
36 -220 13 -66 31 -160 40 -210 76 -421 263 -943 501 -1403 487 -939 1240
-1863 2184 -2678 628 -542 1345 -1004 1978 -1273 224 -96 199 -95 387 -16 730
304 1528 837 2270 1515 192 176 602 593 766 780 793 905 1339 1845 1579 2718
48 174 134 591 155 747 73 570 -42 1170 -321 1667 -131 233 -265 409 -459 604
-228 230 -437 380 -730 524 -261 129 -509 207 -812 256 -152 25 -526 30 -697
10 -451 -52 -872 -208 -1236 -457 -217 -148 -479 -393 -619 -579 -35 -47 -67
-85 -71 -85 -4 0 -36 38 -71 84 -82 110 -278 312 -404 418 -407 342 -903 555
-1440 618 -158 18 -485 18 -637 0z m667 -250 c392 -51 762 -190 1100 -414 136
-89 272 -207 465 -400 202 -203 253 -241 321 -241 65 0 135 54 319 243 96 99
220 216 275 260 383 308 829 496 1330 558 132 17 473 17 605 0 589 -74 1104
-320 1508 -722 341 -338 554 -721 658 -1183 l25 -109 -4 -486 -3 -486 -46
-210 c-59 -269 -68 -304 -135 -509 -189 -582 -479 -1131 -931 -1760 -796
-1109 -1996 -2161 -3102 -2720 -351 -178 -461 -217 -552 -196 -102 24 -375
149 -622 285 -1244 683 -2511 1892 -3261 3110 -404 656 -616 1177 -762 1870
l-38 180 0 465 c0 509 -2 488 67 725 268 913 1117 1618 2098 1739 69 9 150 18
180 20 102 7 385 -3 505 -19z"/>
</g>
</svg>
