<?xml version="1.0" standalone="no"?>
<!DOCTYPE svg PUBLIC "-//W3C//DTD SVG 20010904//EN"
 "http://www.w3.org/TR/2001/REC-SVG-20010904/DTD/svg10.dtd">
<svg version="1.0" xmlns="http://www.w3.org/2000/svg"
 width="2048.000000pt" height="2048.000000pt" viewBox="0 0 2048.000000 2048.000000"
 preserveAspectRatio="xMidYMid meet">
<metadata>
Created by potrace 1.13, written by Peter Selinger 2001-2015
</metadata>
<g transform="translate(0.000000,2048.000000) scale(0.192120,-0.192120)"
fill="#000000" stroke="none">
<path d="M2774 9765 c-504 -64 -987 -267 -1384 -581 -134 -106 -365 -345 -471
-486 -175 -234 -323 -510 -409 -765 -33 -98 -35 -101 -71 -112 -45 -14 -85
-58 -99 -110 -7 -26 -9 -715 -8 -2142 l3 -2104 23 -43 c24 -45 82 -81 129 -82
60 0 122 38 878 532 302 198 913 594 1013 657 28 18 52 34 52 36 0 2 -42 23
-92 48 -286 139 -501 404 -584 716 -32 118 -43 321 -25 438 44 285 179 519
411 712 l61 51 -46 0 c-26 0 -72 -7 -103 -16 -48 -14 -69 -29 -127 -88 -113
-113 -197 -256 -258 -436 l-32 -95 -3 -261 c-4 -286 0 -310 59 -469 35 -93
120 -247 182 -331 45 -60 115 -135 200 -212 27 -25 47 -53 47 -64 0 -34 -63
-85 -275 -223 -296 -192 -349 -222 -413 -235 -117 -24 -208 -73 -567 -307
-297 -193 -315 -201 -315 -138 0 24 -5 35 -15 35 -13 0 -15 219 -15 1913 0
1628 -3 1926 -15 2007 -8 52 -15 121 -15 153 0 51 2 57 20 57 11 0 36 -6 55
-14 30 -13 1611 -1113 1707 -1188 l37 -29 38 19 c21 11 72 32 113 46 256 92
528 86 787 -18 l82 -33 28 22 c70 56 1652 1160 1688 1179 28 14 58 21 98 21
54 0 61 -3 92 -36 22 -24 36 -54 44 -89 8 -36 11 -281 11 -794 l-1 -741 2443
0 2442 0 43 215 c24 118 50 265 57 325 86 651 -73 1316 -445 1869 -101 151
-189 257 -334 402 -229 230 -438 380 -730 524 -200 99 -354 155 -555 205 -246
60 -342 70 -660 70 -250 -1 -301 -4 -420 -24 -605 -103 -1115 -370 -1535 -802
-71 -74 -159 -172 -194 -219 -35 -47 -67 -85 -71 -85 -4 0 -36 38 -71 84 -35
47 -117 141 -184 209 -426 443 -930 707 -1545 813 -164 28 -585 36 -756 14z
m736 -294 c350 -60 626 -161 915 -334 201 -120 351 -243 544 -443 143 -149
233 -227 296 -255 99 -45 150 -16 385 221 211 212 320 306 482 413 322 215
674 347 1083 409 139 20 570 18 715 -5 657 -102 1214 -420 1615 -922 222 -278
365 -583 449 -957 26 -114 26 -120 26 -542 0 -347 -3 -440 -15 -494 -19 -81
-52 -142 -85 -159 -20 -10 -481 -13 -2222 -13 l-2198 0 0 45 c0 33 -4 45 -15
45 -13 0 -15 72 -15 585 0 618 -1 627 -48 736 -27 63 -122 162 -184 193 -99
49 -208 32 -354 -56 -38 -23 -377 -258 -754 -521 -377 -264 -709 -493 -739
-509 -66 -35 -108 -36 -243 -3 -224 54 -429 53 -654 -5 -146 -38 -194 -38
-259 -2 -58 32 -1398 969 -1433 1001 -40 39 -31 89 47 247 210 424 556 783
988 1028 265 150 591 260 888 300 66 9 134 18 150 20 17 2 138 3 270 1 187 -2
267 -8 365 -24z M3440 6546 c0 -2 24 -21 53 -43 203 -154 352 -378 418 -630
29 -111 36 -329 16 -448 -66 -373 -306 -684 -644 -830 -40 -18 -74 -36 -74
-40 0 -4 37 -30 83 -59 46 -29 256 -165 468 -303 212 -137 395 -255 408 -262
21 -11 22 -10 22 26 0 21 -9 57 -19 80 -22 48 -56 73 -369 275 -236 153 -298
205 -287 239 4 12 21 34 39 48 220 180 368 411 450 703 13 44 16 108 16 306 0
238 -1 254 -26 338 -66 229 -215 463 -349 549 -50 32 -205 71 -205 51z M10200
6113 c-6 -27 -30 -88 -52 -138 -22 -49 -72 -182 -110 -295 -141 -412 -312
-767 -524 -1092 -100 -154 -237 -336 -328 -437 -48 -53 -70 -87 -81 -124 -8
-28 -15 -56 -15 -63 0 -6 -14 -14 -31 -18 -17 -3 -874 -6 -1903 -6 l-1871 0 3
-201 c4 -231 -5 -294 -49 -344 -52 -59 -125 -68 -209 -25 -36 18 -465 296
-682 441 -65 44 -120 79 -123 79 -3 0 -5 -553 -5 -1228 l0 -1229 152 -91 c301
-178 690 -370 899 -443 l66 -23 119 49 c641 261 1302 673 1964 1226 257 214
367 315 643 588 362 358 623 653 907 1025 l135 176 57 0 57 0 60 68 c99 110
226 277 335 442 342 513 561 1033 710 1683 l6 27 -59 0 -59 0 -12 -47z m-1650
-2438 c18 -21 4 -48 -87 -162 -240 -303 -799 -853 -1208 -1188 -591 -485
-1194 -868 -1725 -1096 -115 -50 -131 -54 -200 -53 -61 0 -90 6 -155 33 -130
53 -337 155 -537 264 l-188 102 0 948 c0 521 3 947 8 947 4 0 68 -39 142 -86
365 -233 389 -246 500 -252 67 -4 82 -1 126 21 27 14 72 49 100 79 57 60 124
188 124 236 0 17 5 34 10 37 6 3 10 46 10 96 l0 89 1534 0 c1366 0 1535 -2
1546 -15z M5255 6060 c-4 -6 -10 -8 -15 -5 -5 3 -12 -6 -16 -20 -3 -13 -10
-22 -15 -19 -5 3 -9 -398 -9 -966 0 -957 0 -971 20 -992 11 -12 20 -18 20 -14
0 5 7 3 15 -4 9 -7 19 -10 23 -6 9 10 16 1865 7 1964 -6 67 -15 86 -30 62z
M1446 3868 c-3 -13 -6 -815 -6 -1783 l0 -1760 695 696 695 696 695 -696 695
-696 0 497 c0 273 -3 503 -6 512 -15 39 -114 8 -151 -47 -22 -32 -23 -43 -23
-221 0 -183 -1 -188 -20 -183 -16 4 -20 0 -20 -19 0 -15 -6 -24 -15 -24 -8 0
-208 188 -444 418 -520 507 -600 571 -712 572 -56 0 -134 -37 -234 -112 -38
-29 -254 -235 -480 -459 -225 -223 -420 -411 -433 -418 -12 -7 -27 -9 -32 -6
-6 4 -10 244 -10 659 0 565 -2 655 -15 666 -13 11 -15 119 -17 805 l-3 793
-30 43 c-31 44 -87 89 -110 89 -7 0 -15 -10 -19 -22z"/>
</g>
</svg>
