<?xml version="1.0" standalone="no"?>
<!DOCTYPE svg PUBLIC "-//W3C//DTD SVG 20010904//EN"
 "http://www.w3.org/TR/2001/REC-SVG-20010904/DTD/svg10.dtd">
<svg version="1.0" xmlns="http://www.w3.org/2000/svg"
 width="2048.000000pt" height="2048.000000pt" viewBox="0 0 2048.000000 2048.000000"
 preserveAspectRatio="xMidYMid meet">
<metadata>
Created by potrace 1.13, written by Peter Selinger 2001-2015
</metadata>
<g transform="translate(0.000000,2048.000000) scale(0.192120,-0.192120)"
fill="#000000" stroke="none">
<path d="M6720 10050 c-229 -28 -453 -117 -640 -253 -71 -52 -215 -196 -267
-268 -187 -255 -277 -567 -252 -875 16 -205 86 -485 175 -702 351 -852 1263
-1762 2125 -2122 l66 -28 89 38 c566 238 1218 773 1664 1365 308 411 488 789
577 1214 33 159 36 191 36 331 0 121 -5 178 -22 257 -56 265 -168 472 -360
664 -192 192 -400 305 -664 360 -143 31 -372 31 -509 1 -188 -41 -321 -96
-475 -198 -96 -64 -226 -183 -291 -267 l-46 -60 -25 34 c-49 66 -187 201 -262
258 -85 64 -238 146 -347 185 -162 58 -406 86 -572 66z m433 -313 c111 -29
253 -94 342 -155 33 -22 103 -77 155 -122 161 -138 235 -178 305 -164 47 8
129 63 245 164 52 45 121 100 154 122 86 60 232 125 343 155 90 25 114 27 293
27 181 0 202 -2 292 -27 351 -97 612 -331 717 -644 19 -58 21 -85 21 -350 0
-320 -6 -363 -83 -588 -132 -384 -402 -802 -766 -1187 -324 -342 -843 -726
-1133 -838 -97 -38 -129 -37 -227 0 -255 98 -692 408 -1010 716 -394 381 -650
738 -861 1204 -144 315 -150 342 -150 649 l0 236 41 120 c47 140 88 217 168
317 128 160 281 266 486 338 141 49 218 60 405 56 138 -3 181 -7 263 -29z
M5130 8943 c-577 -17 -1168 -102 -1686 -244 -626 -171 -1247 -452 -1711 -776
-377 -262 -731 -609 -943 -923 -177 -263 -296 -510 -370 -769 -32 -111 -34
-142 -5 -64 174 466 638 894 1327 1228 610 295 1340 504 2163 620 441 62 760
85 1273 92 l423 6 -23 24 c-32 35 -124 96 -182 122 -42 18 -67 21 -195 21
-505 0 -1207 -65 -1831 -170 -446 -75 -946 -213 -1345 -372 -225 -89 -248 -98
-273 -103 -12 -2 -27 -7 -32 -10 -22 -14 -8 28 18 51 49 44 274 190 432 280
85 49 170 103 188 120 52 50 301 167 577 271 645 243 1407 390 2133 410 184 5
232 9 232 20 0 7 9 13 20 13 11 0 20 3 20 8 0 4 12 13 28 19 15 7 52 37 82 68
l54 55 -69 1 c-39 0 -101 1 -140 3 -38 1 -113 1 -165 -1z M2055 6733 c-497
-61 -936 -292 -1239 -653 -268 -320 -412 -670 -447 -1089 -19 -225 15 -498
106 -846 190 -727 686 -1518 1399 -2230 592 -591 1234 -1039 1831 -1281 l80
-32 55 21 c343 127 796 395 1210 716 377 292 834 739 1126 1101 461 572 787
1176 924 1715 118 462 136 758 68 1090 -131 640 -610 1182 -1234 1394 -233 79
-423 107 -684 98 -481 -16 -914 -204 -1258 -546 -53 -53 -122 -129 -152 -170
l-54 -73 -16 23 c-28 44 -157 194 -206 240 -308 291 -679 467 -1094 519 -78 9
-347 12 -415 3z m385 -283 c206 -25 371 -72 547 -155 194 -92 303 -171 523
-379 144 -137 218 -181 290 -174 68 7 128 48 291 204 175 166 287 246 464 334
485 240 1058 240 1539 -2 391 -196 662 -507 798 -917 l32 -96 4 -380 c3 -409
3 -418 -54 -650 -33 -132 -73 -254 -152 -460 -35 -93 -69 -186 -74 -205 -26
-93 -178 -359 -346 -605 -145 -213 -241 -333 -401 -499 -80 -83 -192 -202
-249 -263 -189 -204 -531 -508 -800 -711 -322 -244 -766 -506 -975 -576 -98
-33 -167 -17 -372 84 -900 444 -1876 1361 -2398 2252 -245 417 -390 790 -463
1181 -22 119 -24 156 -24 424 0 327 5 369 66 546 171 494 625 887 1169 1013
178 41 415 54 585 34z M10307 5592 c-47 -299 -197 -572 -457 -832 -537 -539
-1464 -952 -2650 -1181 -118 -23 -219 -45 -224 -50 -15 -13 34 -78 73 -98 69
-35 152 -36 322 -1 189 38 610 145 779 198 179 56 411 142 588 216 103 43 152
60 152 51 0 -16 24 -6 217 93 143 74 362 209 483 298 123 92 148 92 90 1 -16
-26 -30 -50 -30 -52 0 -7 -74 -98 -175 -215 -134 -155 -575 -546 -730 -645
-553 -356 -1163 -603 -1875 -760 -202 -45 -292 -72 -401 -122 -100 -45 -301
-155 -295 -160 8 -8 323 37 511 72 1914 360 3332 1447 3599 2758 34 167 48
301 44 432 l-3 110 -18 -113z"/>
</g>
</svg>
