<?xml version="1.0" standalone="no"?>
<!DOCTYPE svg PUBLIC "-//W3C//DTD SVG 20010904//EN"
 "http://www.w3.org/TR/2001/REC-SVG-20010904/DTD/svg10.dtd">
<svg version="1.0" xmlns="http://www.w3.org/2000/svg"
 width="2048.000000pt" height="2048.000000pt" viewBox="0 0 2048.000000 2048.000000"
 preserveAspectRatio="xMidYMid meet">
<metadata>
Created by potrace 1.13, written by Peter Selinger 2001-2015
</metadata>
<g transform="translate(0.000000,2048.000000) scale(0.192120,-0.192120)"
fill="#000000" stroke="none">
<path d="M2778 9765 c-501 -61 -980 -261 -1381 -577 -56 -44 -165 -144 -242
-222 -434 -438 -698 -984 -776 -1611 -16 -129 -16 -482 0 -610 7 -55 23 -154
36 -220 13 -66 31 -160 40 -210 129 -712 508 -1540 1062 -2316 309 -434 590
-766 1002 -1182 693 -701 1408 -1246 2156 -1645 174 -93 477 -232 596 -273
l66 -23 119 48 c751 306 1558 840 2319 1536 192 176 602 593 766 780 809 923
1360 1881 1593 2770 45 170 122 550 140 695 75 569 -41 1170 -320 1667 -131
233 -265 409 -459 604 -228 230 -437 380 -730 524 -261 129 -509 207 -812 256
-152 25 -526 30 -697 10 -451 -52 -872 -208 -1236 -457 -217 -148 -479 -393
-619 -579 -35 -47 -67 -85 -71 -85 -4 0 -36 38 -71 84 -82 110 -278 312 -404
418 -407 342 -903 555 -1440 618 -158 18 -485 18 -637 0z m705 -250 c479 -76
880 -251 1243 -543 101 -81 173 -150 346 -329 107 -111 163 -155 225 -173 37
-11 46 -10 99 14 49 23 93 61 264 235 149 152 239 233 331 302 363 270 756
430 1224 500 141 22 569 18 720 -5 458 -71 860 -243 1225 -524 109 -84 335
-311 423 -424 224 -289 370 -602 451 -969 26 -115 26 -121 26 -547 l0 -430
-40 -204 c-74 -374 -150 -631 -274 -935 -162 -398 -312 -681 -580 -1093 -513
-791 -1206 -1547 -1996 -2181 -465 -373 -929 -674 -1390 -903 -261 -129 -382
-176 -454 -176 -113 0 -529 197 -935 442 -928 561 -1885 1431 -2567 2333 -556
736 -944 1486 -1119 2165 -20 80 -55 233 -78 340 l-40 195 -4 405 c-4 348 -2
418 12 500 108 603 438 1133 945 1514 379 285 817 456 1295 505 131 14 530 5
648 -14z"/>
</g>
</svg>
