<?xml version="1.0" standalone="no"?>
<!DOCTYPE svg PUBLIC "-//W3C//DTD SVG 20010904//EN"
 "http://www.w3.org/TR/2001/REC-SVG-20010904/DTD/svg10.dtd">
<svg version="1.0" xmlns="http://www.w3.org/2000/svg"
 width="2048.000000pt" height="2048.000000pt" viewBox="0 0 2048.000000 2048.000000"
 preserveAspectRatio="xMidYMid meet">
<metadata>
Created by potrace 1.13, written by Peter Selinger 2001-2015
</metadata>
<g transform="translate(0.000000,2048.000000) scale(0.192120,-0.192120)"
fill="#000000" stroke="none">
<path d="M7455 10314 c-16 -2 -80 -11 -142 -20 -140 -19 -318 -62 -465 -112
-62 -21 -939 -384 -1948 -807 -1009 -422 -1954 -817 -2100 -877 -146 -61 -268
-113 -272 -117 -5 -4 15 -24 43 -45 83 -62 3443 -2671 3506 -2722 202 -165
513 -331 793 -425 300 -99 509 -133 830 -133 237 -1 333 9 535 51 819 171
1506 719 1853 1479 415 908 282 1966 -345 2754 -91 115 -287 310 -403 402
-372 295 -783 475 -1266 554 -94 15 -544 28 -619 18z m595 -268 c698 -106
1314 -492 1682 -1056 157 -240 262 -493 323 -775 l26 -120 -4 -445 -3 -445
-31 -115 c-82 -305 -174 -511 -341 -760 -234 -348 -535 -609 -917 -796 -244
-119 -515 -199 -795 -236 -140 -18 -459 -15 -615 6 -153 21 -391 79 -531 131
-148 55 -364 164 -499 253 -112 73 -3120 2402 -3248 2513 -72 63 -92 92 -79
115 5 9 49 34 98 54 49 21 737 308 1529 640 1980 828 2135 892 2260 933 179
59 332 91 575 121 78 9 470 -3 570 -18z M896 7458 c-2 -7 -9 -53 -16 -103 -11
-88 -512 -3561 -531 -3680 -5 -33 -12 -127 -15 -210 -15 -361 63 -731 226
-1062 495 -1010 1666 -1486 2735 -1113 196 68 455 211 625 343 96 75 282 260
359 357 276 347 434 731 481 1168 16 141 8 439 -15 572 -65 384 -222 741 -455
1035 -126 159 -254 279 -496 467 -61 47 -711 550 -1445 1118 -734 568 -1354
1050 -1379 1070 -60 49 -69 54 -74 38z m1233 -1223 c548 -424 1138 -881 1311
-1015 173 -134 366 -286 428 -338 318 -267 531 -607 632 -1009 18 -75 20 -112
20 -485 0 -369 -2 -410 -20 -488 -55 -229 -136 -416 -269 -615 -374 -564 -984
-886 -1676 -887 -334 -1 -640 69 -926 211 -523 260 -882 701 -1036 1274 l-28
102 0 405 0 405 213 1460 c279 1912 252 1744 278 1770 14 14 19 13 47 -2 17
-10 479 -365 1026 -788z M5905 3063 l0 -1428 23 -90 c53 -215 124 -381 226
-534 361 -541 1014 -792 1641 -631 268 70 493 199 695 400 201 199 339 447
405 723 122 513 -21 1041 -384 1420 -112 116 -210 192 -369 285 -105 62 -1004
580 -1732 997 -151 87 -323 186 -383 221 -59 35 -111 64 -115 64 -4 0 -7 -642
-7 -1427z m278 1001 c78 -40 1852 -1062 1937 -1117 271 -172 432 -367 534
-647 l31 -85 3 -315 c4 -353 2 -368 -61 -535 -63 -166 -198 -360 -331 -475
-427 -371 -1060 -431 -1553 -148 -276 159 -468 389 -570 684 l-38 109 -3 1273
c-2 894 1 1272 8 1272 6 0 25 -7 43 -16z"/>
</g>
</svg>
