<?xml version="1.0" standalone="no"?>
<!DOCTYPE svg PUBLIC "-//W3C//DTD SVG 20010904//EN"
 "http://www.w3.org/TR/2001/REC-SVG-20010904/DTD/svg10.dtd">
<svg version="1.0" xmlns="http://www.w3.org/2000/svg"
 width="2048.000000pt" height="2048.000000pt" viewBox="0 0 2048.000000 2048.000000"
 preserveAspectRatio="xMidYMid meet">
<metadata>
Created by potrace 1.13, written by Peter Selinger 2001-2015
</metadata>
<g transform="translate(0.000000,2048.000000) scale(0.192120,-0.192120)"
fill="#000000" stroke="none">
<path d="M4919 10279 c-122 -84 -190 -142 -295 -252 -280 -290 -423 -661 -424
-1098 l0 -126 -102 -17 c-239 -41 -631 -136 -858 -208 -357 -114 -612 -379
-707 -733 -23 -88 -26 -119 -26 -255 0 -135 3 -167 25 -251 31 -116 90 -243
152 -327 25 -34 46 -64 46 -66 0 -3 -24 -12 -52 -22 -497 -162 -866 -459
-1071 -861 -229 -450 -230 -947 -3 -1388 28 -55 51 -103 51 -107 0 -4 -48 -31
-106 -61 -265 -135 -518 -336 -711 -567 -784 -937 -642 -2321 317 -3093 265
-214 591 -374 918 -452 212 -50 312 -60 612 -59 154 0 348 6 430 13 626 51
1265 174 1905 368 118 36 223 67 232 70 9 3 77 -20 150 -50 380 -157 872 -270
1473 -337 600 -66 1476 -89 1735 -45 441 75 812 265 1121 574 312 314 498 676
575 1126 25 140 25 482 1 620 -54 309 -163 586 -323 822 -84 125 -126 175
-243 295 l-94 97 16 83 c26 130 37 251 37 403 0 756 -388 1477 -1010 1881 -41
26 -76 49 -77 49 -2 1 7 44 19 96 30 127 32 436 5 574 -107 538 -435 962 -932
1205 -118 57 -304 122 -405 140 -36 6 -70 13 -77 15 -8 3 -3 26 15 77 25 68
27 84 26 233 0 145 -3 168 -28 250 -85 277 -241 431 -541 533 -49 17 -198 58
-330 92 -491 125 -716 221 -975 414 -107 80 -273 243 -340 334 -25 34 -48 61
-51 62 -3 0 -39 -23 -80 -51z m107 -347 c21 -16 46 -37 54 -47 34 -41 229
-202 314 -257 257 -169 467 -254 909 -369 383 -99 506 -149 597 -240 89 -89
94 -109 100 -384 5 -222 8 -245 29 -300 29 -73 57 -112 132 -187 67 -66 116
-93 254 -138 468 -153 803 -466 941 -880 l29 -85 3 -335 c1 -184 7 -344 12
-355 5 -11 14 -38 19 -60 25 -98 126 -223 286 -355 146 -121 203 -174 294
-279 183 -207 318 -465 399 -761 26 -94 27 -101 33 -535 3 -242 10 -458 16
-480 19 -78 67 -148 226 -329 79 -91 217 -288 217 -312 0 -7 9 -28 19 -46 26
-45 98 -261 127 -378 23 -91 24 -111 24 -442 0 -370 -3 -403 -55 -574 -14 -45
-32 -94 -40 -110 -8 -16 -15 -33 -15 -37 0 -20 -95 -196 -151 -279 -210 -316
-481 -532 -847 -673 -275 -106 -507 -131 -1067 -115 -1067 30 -1718 132 -2405
375 -150 53 -234 65 -321 45 -30 -7 -146 -38 -259 -70 -761 -217 -1389 -324
-2031 -349 -261 -10 -472 0 -631 28 -813 146 -1429 699 -1625 1457 l-28 109 0
370 0 370 28 108 c30 113 92 278 145 383 44 88 159 256 236 346 36 43 66 81
66 85 0 14 170 176 246 236 39 30 131 95 205 143 143 93 262 201 298 273 36
70 29 144 -29 302 -93 256 -92 248 -88 592 l3 302 32 88 c83 228 229 426 428
581 115 90 199 139 384 228 149 71 170 85 230 146 75 76 131 178 131 237 0 22
-24 93 -60 179 -85 205 -90 228 -90 447 0 236 15 287 123 432 153 203 368 294
1041 442 122 27 230 57 258 71 96 49 228 216 228 289 0 13 4 26 8 29 5 3 12
60 15 127 8 134 46 340 82 434 58 155 133 273 249 394 138 143 197 167 272
113z M3955 7509 c-90 -13 -220 -56 -309 -102 -304 -157 -573 -497 -686 -866
-58 -189 -62 -231 -57 -553 4 -277 5 -298 30 -388 141 -518 467 -885 902
-1016 81 -25 105 -28 245 -28 140 0 164 3 245 28 231 69 428 206 594 411 114
140 198 298 260 486 63 193 71 247 71 543 0 253 -2 275 -26 384 -114 510 -464
938 -869 1065 -138 43 -268 55 -400 36z m311 -259 c163 -42 297 -123 427 -259
166 -174 278 -400 334 -676 28 -137 25 -463 -5 -601 -59 -273 -168 -490 -331
-658 -127 -131 -269 -218 -420 -257 -100 -27 -268 -29 -366 -4 -320 79 -591
358 -719 739 -56 168 -70 263 -70 486 -1 226 10 304 66 480 101 316 306 572
553 691 117 57 209 78 341 78 80 1 133 -5 190 -19z M4113 6706 c-181 -46 -339
-209 -408 -420 -71 -219 -45 -484 66 -674 43 -73 159 -189 225 -224 273 -147
585 -3 721 332 42 106 55 191 50 335 -5 150 -21 217 -77 330 -74 150 -182 254
-318 305 -71 27 -188 34 -259 16z m226 -329 c54 -27 119 -99 126 -141 4 -17 5
-123 3 -236 l-3 -205 -33 -47 c-46 -65 -85 -95 -148 -114 -121 -35 -247 26
-312 150 -25 48 -27 60 -30 221 -4 187 1 219 48 283 79 110 230 148 349 89z
M6738 7509 c-150 -22 -343 -102 -459 -191 -283 -216 -464 -494 -570 -873 -20
-73 -22 -108 -26 -383 -5 -330 0 -382 53 -547 84 -261 193 -445 363 -616 168
-169 330 -266 535 -321 114 -31 336 -31 448 0 237 65 447 208 617 419 148 183
258 424 311 682 17 78 20 134 20 340 0 253 -5 306 -41 446 -64 245 -169 447
-333 643 -250 298 -595 449 -918 401z m308 -259 c472 -119 807 -670 781 -1289
-23 -577 -349 -1056 -792 -1166 -91 -23 -257 -23 -348 -1 -372 89 -662 431
-769 907 -20 92 -23 130 -23 324 0 194 3 232 23 324 105 467 395 813 756 902
102 25 270 25 372 -1z M6613 6706 c-181 -46 -339 -209 -408 -420 -71 -219 -45
-484 66 -674 43 -73 159 -189 225 -224 273 -147 585 -3 721 332 42 106 55 191
50 335 -5 150 -21 217 -77 330 -74 150 -182 254 -318 305 -71 27 -188 34 -259
16z m222 -327 c53 -27 92 -65 116 -112 18 -35 20 -56 17 -255 l-3 -217 -33
-47 c-46 -65 -85 -95 -148 -114 -121 -35 -247 26 -312 150 -25 48 -27 60 -30
221 -4 187 1 219 48 283 78 109 231 149 345 91z M3015 3646 c-50 -22 -77 -60
-83 -115 -6 -67 7 -100 89 -227 184 -282 409 -514 723 -746 77 -56 129 -102
127 -110 -11 -41 -12 -100 -2 -131 30 -90 189 -187 493 -301 53 -19 146 -56
207 -81 574 -235 1563 -228 2116 15 28 12 104 42 170 67 229 87 441 202 459
248 3 9 10 14 15 11 18 -11 32 90 20 145 -10 48 -12 50 -32 36 -66 -42 -258
-142 -367 -190 -386 -169 -775 -252 -1250 -264 -648 -17 -1246 128 -1746 422
l-98 58 85 81 c284 271 726 450 1284 522 179 23 580 24 764 1 427 -54 795
-175 1071 -355 101 -65 227 -168 268 -219 l29 -36 74 51 c218 150 449 364 608
562 108 134 216 299 237 363 28 85 5 151 -66 187 -39 20 -53 20 -2602 20
-2114 -1 -2568 -3 -2593 -14z m2178 -233 c53 -5 67 -9 65 -21 -3 -15 -34 -24
-188 -56 -277 -56 -424 -97 -599 -167 -218 -88 -348 -159 -531 -292 -91 -66
-97 -69 -142 -64 -36 3 -61 14 -104 47 -240 181 -507 504 -457 553 8 9 1866 9
1956 0z m2781 -9 c20 -53 -148 -270 -357 -459 -184 -167 -200 -170 -356 -59
-322 230 -619 351 -1106 449 -38 8 -89 19 -113 25 -23 5 -51 10 -62 10 -13 0
-20 7 -20 19 0 16 8 21 48 24 26 2 477 4 1003 5 868 2 957 1 963 -14z"/>
</g>
</svg>
