<?xml version="1.0" standalone="no"?>
<!DOCTYPE svg PUBLIC "-//W3C//DTD SVG 20010904//EN"
 "http://www.w3.org/TR/2001/REC-SVG-20010904/DTD/svg10.dtd">
<svg version="1.0" xmlns="http://www.w3.org/2000/svg"
 width="2048.000000pt" height="2048.000000pt" viewBox="0 0 2048.000000 2048.000000"
 preserveAspectRatio="xMidYMid meet">
<metadata>
Created by potrace 1.13, written by Peter Selinger 2001-2015
</metadata>
<g transform="translate(0.000000,2048.000000) scale(0.192120,-0.192120)"
fill="#000000" stroke="none">
<path d="M4845 10324 c-481 -39 -934 -204 -1323 -482 -210 -150 -442 -373
-618 -592 -166 -207 -369 -539 -465 -760 -23 -52 -101 -214 -174 -360 -822
-1646 -1364 -3317 -1499 -4620 -24 -236 -27 -274 -36 -515 -6 -183 -15 -278
-43 -465 -50 -329 -67 -502 -74 -745 -8 -309 16 -476 85 -586 106 -167 531
-276 1207 -309 l220 -11 125 -46 c1232 -455 2966 -558 4509 -267 1181 223
2128 645 2686 1199 267 265 421 504 524 814 64 193 76 287 75 576 0 214 -4
285 -22 400 -66 425 -200 763 -423 1069 -93 127 -293 328 -424 426 -443 332
-1023 528 -1717 581 -200 15 -703 6 -888 -15 -781 -91 -1470 -310 -2013 -639
-334 -202 -628 -481 -739 -701 -21 -43 -32 -56 -38 -45 -6 12 -20 134 -45 400
-28 292 -23 999 10 1469 23 331 107 1123 120 1138 2 2 79 -21 172 -51 338
-111 594 -177 713 -184 215 -13 700 143 939 302 94 62 175 151 189 207 33 128
-57 344 -226 545 l-44 52 284 143 283 143 27 50 c103 193 68 649 -78 1023
-174 447 -462 738 -824 832 -67 17 -119 23 -245 25 -88 1 -182 1 -210 -1z
m417 -298 c298 -76 528 -309 658 -666 64 -176 70 -220 70 -501 0 -305 10 -282
-148 -365 -59 -31 -138 -77 -175 -101 -112 -75 -237 -232 -237 -298 0 -37 35
-126 86 -215 88 -158 94 -173 94 -254 0 -71 -1 -75 -32 -102 -44 -37 -250
-135 -374 -178 -56 -19 -153 -46 -216 -60 -201 -45 -306 -34 -648 65 -364 107
-401 113 -471 82 -61 -27 -163 -124 -204 -194 -47 -81 -67 -203 -122 -759
l-28 -275 0 -860 c0 -802 1 -865 19 -940 26 -112 68 -188 138 -246 32 -27 68
-54 79 -60 65 -34 157 11 277 136 287 299 358 361 571 500 305 199 708 371
1151 490 814 220 1666 243 2365 65 469 -119 858 -330 1131 -611 109 -113 142
-154 229 -284 119 -177 189 -337 276 -630 66 -225 69 -250 69 -598 0 -339 -6
-390 -66 -563 -43 -128 -147 -320 -236 -439 -92 -124 -291 -328 -418 -429
-216 -172 -420 -289 -730 -422 -330 -141 -423 -176 -755 -280 -1151 -364
-2624 -474 -3925 -293 -463 64 -969 182 -1309 305 -196 71 -258 82 -559 99
-453 25 -769 84 -882 166 -79 57 -80 62 -80 491 l0 377 44 328 c33 246 46 375
50 518 41 1367 614 3246 1557 5115 52 102 123 245 158 319 108 224 253 456
406 646 119 149 365 402 365 376 0 -7 37 17 83 52 344 269 751 443 1157 496
47 6 96 13 110 15 14 2 104 4 201 5 156 1 187 -2 271 -23z M7995 3637 c-78
-38 -118 -88 -173 -217 -351 -821 -875 -1297 -1591 -1446 -174 -36 -336 -48
-570 -41 -423 12 -824 103 -1261 287 -101 42 -130 50 -182 50 -254 0 -371
-318 -178 -483 96 -82 549 -244 899 -322 965 -213 1817 -55 2466 456 108 85
290 263 387 379 211 252 390 550 538 900 46 106 54 134 53 186 -1 104 -50 187
-142 242 -65 38 -177 42 -246 9z m189 -190 c16 -11 18 -26 14 -113 l-3 -99
-86 -175 c-166 -340 -363 -616 -611 -856 -389 -377 -855 -588 -1433 -650 -202
-22 -600 -14 -795 15 -370 55 -697 143 -992 267 -131 55 -168 91 -168 159 0
61 29 80 120 79 55 0 92 -11 243 -67 522 -197 1005 -280 1446 -249 719 51
1255 362 1683 977 80 115 152 243 268 473 119 237 133 252 235 252 35 0 69 -6
79 -13z"/>
</g>
</svg>
