<?xml version="1.0" standalone="no"?>
<!DOCTYPE svg PUBLIC "-//W3C//DTD SVG 20010904//EN"
 "http://www.w3.org/TR/2001/REC-SVG-20010904/DTD/svg10.dtd">
<svg version="1.0" xmlns="http://www.w3.org/2000/svg"
 width="2048.000000pt" height="2048.000000pt" viewBox="0 0 2048.000000 2048.000000"
 preserveAspectRatio="xMidYMid meet">
<metadata>
Created by potrace 1.13, written by Peter Selinger 2001-2015
</metadata>
<g transform="translate(0.000000,2048.000000) scale(0.192120,-0.192120)"
fill="#000000" stroke="none">
<path d="M4810 10319 c-641 -55 -1238 -350 -1706 -842 -260 -274 -518 -654
-659 -974 -26 -60 -105 -223 -175 -363 -612 -1221 -1090 -2519 -1338 -3635
-123 -550 -201 -1162 -202 -1568 0 -79 -10 -179 -30 -310 -69 -450 -96 -756
-87 -1012 9 -263 50 -404 136 -473 173 -139 554 -221 1166 -252 l210 -11 140
-51 c1495 -545 3654 -568 5340 -56 877 265 1568 663 1972 1133 269 313 422
647 464 1015 15 129 6 446 -16 610 -94 689 -424 1239 -960 1597 -385 258 -860
420 -1435 489 -181 22 -669 30 -870 15 -1072 -81 -2079 -456 -2649 -987 -104
-97 -227 -250 -283 -351 -28 -51 -43 -71 -49 -62 -19 35 -54 493 -64 849 -9
331 18 957 61 1405 18 189 84 748 89 753 2 2 72 -19 157 -47 361 -118 653
-191 764 -191 209 0 685 160 895 300 77 51 155 124 176 164 29 56 33 86 19
165 -25 145 -85 254 -242 448 l-26 32 281 141 c311 155 303 149 342 270 27 83
36 295 20 435 -59 503 -297 962 -616 1187 -228 162 -450 209 -825 177z m505
-213 c316 -95 561 -360 700 -757 61 -176 66 -216 63 -514 l-3 -273 -31 -39
c-23 -29 -71 -59 -194 -123 -173 -90 -243 -142 -291 -219 -21 -33 -29 -59 -29
-92 0 -53 14 -88 105 -254 l65 -120 0 -98 c0 -98 0 -99 -32 -131 -99 -98 -443
-244 -695 -295 -208 -43 -315 -28 -763 106 -139 41 -202 55 -256 56 -67 2 -72
0 -120 -36 -117 -89 -130 -142 -201 -817 -26 -251 -26 -270 -30 -1100 -4 -745
-2 -855 12 -939 22 -127 61 -210 122 -256 52 -39 79 -40 138 -5 30 19 49 38
246 245 307 323 723 570 1294 766 324 111 755 209 1100 250 255 30 771 38
1010 15 445 -43 800 -135 1139 -295 318 -151 553 -330 760 -581 201 -243 305
-453 419 -845 56 -191 57 -200 57 -583 0 -318 -2 -366 -19 -437 -110 -458
-439 -880 -953 -1221 -235 -156 -739 -382 -1183 -529 -691 -230 -1429 -361
-2280 -406 -281 -15 -990 -6 -1255 15 -395 32 -786 89 -1140 167 -208 46 -545
140 -695 194 -203 74 -253 84 -453 95 -474 26 -824 84 -996 166 -31 15 -72 45
-91 67 -63 73 -65 88 -65 511 0 401 2 430 70 886 6 36 14 164 20 285 31 723
144 1386 371 2185 268 943 648 1899 1190 2995 74 149 154 313 179 365 111 233
315 539 504 755 129 148 408 406 423 392 3 -3 52 25 109 63 219 148 425 245
675 319 262 78 434 101 714 97 183 -3 207 -5 290 -30z M7995 3636 c-79 -36
-119 -86 -171 -211 -290 -690 -724 -1153 -1277 -1359 -280 -105 -531 -143
-882 -133 -427 12 -827 102 -1265 287 -101 42 -130 50 -182 50 -80 0 -148 -31
-205 -93 -100 -109 -96 -266 10 -372 43 -42 73 -60 172 -102 573 -241 1201
-360 1728 -325 569 37 1026 200 1445 514 211 158 470 439 634 689 126 190 266
457 349 664 69 174 18 327 -135 396 -60 27 -157 25 -221 -5z m173 -298 c3 -86
2 -88 -50 -200 -235 -505 -570 -916 -953 -1170 -297 -197 -620 -315 -1020
-375 -150 -22 -645 -25 -795 -5 -334 46 -650 121 -912 217 -231 85 -298 128
-298 189 0 41 5 45 68 53 38 4 66 -1 133 -25 46 -16 149 -53 229 -82 810 -289
1579 -290 2175 0 491 238 856 641 1164 1285 59 123 99 180 135 196 12 4 44 7
71 6 l50 -2 3 -87z"/>
</g>
</svg>
