<?xml version="1.0" standalone="no"?>
<!DOCTYPE svg PUBLIC "-//W3C//DTD SVG 20010904//EN"
 "http://www.w3.org/TR/2001/REC-SVG-20010904/DTD/svg10.dtd">
<svg version="1.0" xmlns="http://www.w3.org/2000/svg"
 width="2048.000000pt" height="2048.000000pt" viewBox="0 0 2048.000000 2048.000000"
 preserveAspectRatio="xMidYMid meet">
<metadata>
Created by potrace 1.13, written by Peter Selinger 2001-2015
</metadata>
<g transform="translate(0.000000,2048.000000) scale(0.192120,-0.192120)"
fill="#000000" stroke="none">
<path d="M4557 10019 c-175 -174 -306 -356 -427 -594 l-47 -92 -89 45 c-177
89 -404 165 -589 197 -123 22 -385 32 -385 16 0 -7 -29 -198 -64 -424 -36
-227 -66 -423 -68 -437 -2 -21 -8 -25 -33 -23 -16 1 -214 31 -439 67 -225 36
-414 66 -421 66 -29 0 -94 -250 -116 -440 -18 -162 -5 -490 26 -626 4 -20 -1
-23 -78 -34 -191 -27 -439 -96 -602 -168 -90 -39 -251 -128 -260 -143 -6 -9
75 -137 410 -649 66 -102 124 -191 129 -198 5 -8 -2 -16 -21 -22 -15 -6 -229
-88 -476 -182 -415 -159 -447 -173 -441 -192 3 -12 30 -70 59 -131 93 -192
239 -395 417 -577 l93 -96 -90 -95 c-206 -216 -363 -467 -450 -720 -21 -59
-36 -109 -34 -111 2 -2 184 -95 404 -207 220 -111 402 -204 404 -205 2 -2 -6
-18 -17 -36 -34 -57 -392 -746 -392 -755 0 -12 132 -103 215 -149 202 -113
436 -191 686 -231 l111 -17 -6 -41 c-3 -22 -12 -85 -21 -140 -22 -139 -30
-426 -16 -555 11 -104 45 -288 55 -297 4 -5 544 136 855 223 68 19 125 33 127
32 2 -2 15 -231 30 -508 14 -278 27 -506 29 -508 8 -8 263 32 366 58 152 38
283 87 449 168 74 36 137 67 140 69 3 2 26 -39 53 -91 136 -268 341 -513 575
-688 l77 -58 322 322 323 323 323 -323 322 -322 80 60 c231 173 433 415 570
683 26 50 48 93 49 94 1 1 45 -20 98 -47 182 -94 396 -171 581 -210 87 -18
277 -44 282 -38 1 2 15 230 30 508 14 278 28 506 30 508 2 2 68 -14 147 -37
316 -88 829 -223 834 -218 10 10 43 193 55 305 14 141 7 401 -16 552 -9 58
-17 114 -18 124 -2 16 11 21 98 36 246 42 477 123 675 235 104 59 218 139 225
158 3 7 -87 192 -200 411 -113 220 -204 400 -202 401 1 1 180 91 397 199 217
109 399 202 404 207 5 4 -7 54 -28 116 -88 254 -244 503 -453 723 l-94 99 26
17 c37 24 206 212 286 319 37 50 95 134 128 189 58 96 147 283 138 292 -4 4
-853 331 -912 351 -16 6 -29 15 -28 20 1 6 58 95 126 199 333 510 418 644 413
653 -10 16 -160 99 -253 140 -170 75 -415 143 -611 172 -69 9 -82 14 -78 28
35 120 43 577 13 741 -18 96 -72 295 -87 320 -6 10 -88 0 -431 -55 -233 -38
-435 -69 -449 -69 -19 -1 -26 5 -28 24 -2 14 -32 210 -68 436 -35 226 -64 416
-64 424 0 10 -29 12 -147 7 -279 -12 -532 -78 -807 -210 l-110 -53 -46 92
c-135 264 -332 525 -510 674 l-48 40 -143 -177 c-79 -98 -222 -274 -318 -393
-95 -118 -177 -215 -181 -215 -4 0 -38 38 -76 85 -185 230 -539 667 -555 684
-17 18 -21 15 -142 -105z m136 -270 c24 -11 62 -54 296 -336 261 -314 368
-336 574 -119 26 28 96 110 154 181 228 278 249 297 304 275 52 -22 140 -137
298 -389 25 -39 74 -100 110 -136 l65 -64 7 -108 c5 -76 18 -145 43 -233 104
-361 153 -605 195 -960 11 -91 27 -184 35 -208 34 -95 147 -227 221 -258 53
-22 114 -17 337 26 328 63 675 100 938 100 121 0 182 16 263 69 73 47 79 47
147 -9 92 -75 123 -90 271 -126 151 -36 355 -100 377 -117 17 -14 15 -51 -7
-89 -10 -18 -63 -104 -119 -191 -55 -87 -126 -208 -158 -270 -50 -98 -57 -119
-58 -172 -1 -84 29 -142 128 -241 93 -93 107 -100 404 -215 114 -44 213 -86
221 -94 32 -31 -24 -130 -196 -345 -55 -69 -123 -159 -151 -202 -59 -87 -76
-101 -187 -152 -44 -20 -161 -90 -260 -155 -240 -158 -347 -218 -651 -368
-251 -123 -259 -128 -333 -202 -95 -96 -136 -171 -127 -233 9 -57 59 -170 144
-325 158 -288 275 -544 362 -798 63 -180 89 -232 157 -305 37 -40 42 -76 18
-133 -12 -30 -15 -92 -15 -336 0 -172 -4 -302 -9 -306 -5 -3 -12 -19 -16 -36
-4 -17 -13 -33 -20 -36 -8 -2 -116 23 -242 56 -386 102 -453 112 -521 77 -65
-33 -167 -142 -198 -208 -27 -60 -29 -76 -46 -343 -13 -212 -21 -282 -31 -290
-8 -6 -18 -25 -21 -43 -6 -24 -13 -32 -30 -32 -39 0 -226 57 -346 105 -203 82
-248 95 -323 95 -79 0 -75 -3 -215 158 -35 40 -113 111 -174 160 -220 172
-327 268 -558 502 -232 235 -293 288 -359 316 -106 45 -199 -14 -476 -302
-196 -205 -324 -323 -520 -479 -77 -62 -190 -164 -250 -228 l-110 -115 -70 -7
c-70 -6 -164 -36 -365 -115 -120 -47 -330 -104 -340 -93 -30 35 -43 118 -59
382 -17 267 -19 280 -46 337 -31 63 -132 171 -187 200 -60 31 -179 15 -480
-65 -232 -62 -312 -79 -320 -68 -1 1 -5 166 -9 367 -4 201 -10 386 -14 412 -6
42 -4 50 20 75 45 48 91 143 143 295 84 243 211 522 369 810 179 324 180 387
15 552 -66 66 -92 85 -192 133 -311 150 -384 187 -500 254 -69 39 -201 122
-295 184 -182 120 -247 157 -311 174 -47 13 -73 39 -146 146 -30 44 -105 143
-167 220 -112 139 -122 154 -160 230 -25 50 -26 72 -3 84 10 5 110 45 222 89
291 112 314 124 397 207 81 81 133 174 133 238 0 78 -65 209 -227 461 -101
157 -137 228 -129 254 9 26 134 71 342 123 197 48 218 56 286 112 110 89 108
89 205 24 68 -46 115 -54 343 -61 307 -10 525 -35 864 -101 208 -41 263 -43
323 -14 60 29 140 121 179 205 29 62 36 94 54 245 41 346 103 667 172 889 52
167 68 243 68 323 l0 77 73 78 c40 43 94 114 121 157 124 203 222 331 280 366
36 22 38 22 69 8z m-1275 -460 c156 -31 441 -138 532 -199 l23 -16 -42 -119
c-128 -363 -219 -822 -247 -1242 -5 -73 -11 -103 -20 -103 -7 0 -54 11 -106
25 -345 91 -779 145 -1164 145 l-212 0 -12 73 c-28 175 -21 653 11 673 5 3
107 -11 226 -30 345 -56 666 -107 688 -109 10 -1 20 5 22 13 1 8 32 209 68
445 36 237 68 440 71 452 5 25 -4 26 162 -8z m3986 9 c11 -53 136 -866 136
-886 0 -29 8 -31 65 -21 182 33 869 138 875 134 31 -19 38 -501 10 -672 l-12
-73 -212 0 c-386 0 -786 -50 -1168 -146 -53 -13 -101 -24 -105 -24 -5 0 -15
69 -21 153 -32 400 -118 831 -233 1162 -27 78 -49 145 -49 149 0 9 165 89 265
129 123 48 305 96 437 116 4 1 10 -9 12 -21z m-5940 -4188 c181 -139 463 -313
687 -425 117 -59 358 -167 437 -195 34 -13 62 -26 62 -30 0 -4 -27 -50 -59
-102 -150 -238 -291 -515 -399 -783 -59 -147 -152 -423 -152 -451 0 -8 -6 -17
-13 -20 -23 -9 -277 46 -399 86 -119 39 -321 128 -316 139 2 3 21 40 42 81
146 283 386 751 386 754 0 1 -186 96 -412 211 -227 114 -417 211 -422 216 -12
10 78 170 161 287 85 119 271 325 286 315 6 -3 56 -41 111 -83z m8055 -135
c32 -38 80 -104 108 -145 48 -72 133 -220 133 -233 0 -3 -188 -101 -417 -218
-230 -116 -420 -213 -421 -215 -2 -1 43 -94 101 -206 57 -112 155 -301 216
-421 l112 -218 -103 -49 c-159 -76 -366 -138 -580 -174 l-37 -7 -16 58 c-107
383 -330 877 -552 1221 -29 45 -53 86 -53 90 0 4 55 29 123 56 158 63 430 194
582 281 156 89 408 255 515 340 l85 67 74 -79 c40 -43 99 -109 130 -148z
m-4088 -2577 c130 -156 437 -461 597 -593 112 -92 273 -213 382 -287 l25 -16
-45 -88 c-87 -169 -249 -395 -359 -499 l-32 -29 -334 334 -335 335 -335 -335
-334 -334 -32 29 c-59 57 -183 210 -245 306 -66 101 -154 257 -154 275 0 6 44
40 98 76 289 197 641 519 900 826 53 61 99 112 102 112 4 0 49 -51 101 -112z
M4702 8902 c-51 -27 -158 -139 -193 -200 -65 -116 -132 -373 -178 -687 -29
-200 -39 -305 -56 -610 -24 -440 -26 -453 -46 -477 -11 -11 -19 -30 -19 -40 0
-10 -6 -21 -14 -24 -8 -3 -185 40 -393 95 -658 174 -935 223 -1273 225 -197 1
-218 -6 -324 -104 -131 -123 -137 -182 -38 -378 22 -42 63 -115 92 -162 121
-193 121 -194 118 -230 -3 -41 -6 -42 -217 -126 -73 -30 -158 -69 -190 -88
-107 -66 -231 -217 -231 -282 0 -35 51 -135 103 -203 91 -119 289 -257 592
-412 226 -116 278 -139 704 -305 232 -89 370 -148 378 -160 18 -28 -2 -67
-205 -381 -257 -398 -350 -563 -487 -862 -144 -314 -184 -490 -135 -595 31
-65 120 -159 176 -187 66 -31 141 -23 424 49 212 55 236 59 241 43 4 -9 10
-66 13 -126 24 -388 43 -453 171 -581 68 -68 114 -83 183 -60 127 41 313 186
578 451 180 180 294 310 623 715 140 173 198 230 232 230 32 0 80 -51 302
-325 374 -458 552 -649 798 -855 202 -170 328 -240 403 -226 50 10 109 57 158
128 76 107 91 172 108 443 11 174 17 225 27 225 2 0 111 -27 241 -61 284 -73
360 -82 426 -50 57 28 131 109 164 180 48 104 19 249 -107 543 -128 299 -214
453 -474 858 -104 162 -203 321 -220 352 -50 97 -62 87 290 223 488 187 701
283 953 428 272 156 393 263 475 418 21 40 35 81 35 103 0 71 -93 194 -206
272 -28 19 -129 67 -225 105 -96 39 -182 78 -191 86 -33 29 -21 64 68 203 104
164 178 310 194 382 11 49 10 59 -10 106 -15 35 -44 72 -86 112 -79 73 -102
86 -189 101 -147 25 -556 -18 -915 -97 -87 -19 -788 -200 -891 -230 -12 -3
-21 10 -37 53 -24 67 -27 102 -47 478 -22 413 -47 620 -105 895 -39 185 -76
312 -114 395 -54 115 -189 245 -256 245 -80 0 -214 -113 -402 -338 -66 -78
-129 -147 -140 -153 -45 -24 -76 2 -282 245 -136 160 -248 247 -318 246 -13
-1 -38 -9 -56 -18z m94 -214 c138 -176 528 -653 534 -653 4 0 136 159 293 353
157 195 288 354 293 355 9 3 26 -46 79 -228 70 -242 120 -513 145 -790 13
-150 60 -1011 60 -1111 0 -81 1 -81 60 -64 168 50 1085 288 1195 311 168 35
383 65 559 79 137 11 386 14 386 5 0 -3 -26 -45 -58 -93 -33 -48 -104 -157
-159 -242 -55 -85 -143 -221 -195 -301 l-96 -146 272 -103 c149 -57 344 -131
433 -165 90 -34 165 -63 167 -66 6 -6 -179 -137 -305 -217 -141 -89 -374 -213
-531 -281 -101 -45 -1010 -400 -1161 -454 -18 -7 -18 -8 0 -35 221 -338 614
-951 658 -1027 84 -145 205 -391 263 -535 61 -151 134 -361 128 -368 -3 -2
-105 23 -228 56 -523 142 -671 182 -673 180 -2 -4 -46 -885 -45 -910 0 -10 -4
-18 -9 -18 -13 0 -206 147 -316 239 -251 211 -390 363 -851 931 -197 242 -360
440 -364 440 -4 0 -148 -174 -321 -387 -485 -599 -595 -721 -837 -934 -125
-109 -356 -289 -373 -289 -5 0 -9 10 -9 23 1 12 -9 221 -22 465 -19 387 -24
443 -38 439 -8 -3 -193 -53 -410 -112 -217 -58 -412 -111 -433 -117 -20 -6
-39 -9 -42 -6 -6 6 59 199 115 339 84 211 212 466 335 663 50 82 530 825 599
928 18 27 18 28 -6 37 -12 6 -248 96 -523 202 -675 259 -826 327 -1115 502
-123 75 -361 239 -355 245 2 2 120 48 262 102 142 53 337 128 434 165 l176 67
-160 247 c-88 135 -202 310 -253 389 -52 79 -94 146 -94 149 0 11 420 -6 545
-21 314 -38 431 -64 1094 -241 299 -79 548 -142 552 -139 5 3 9 38 9 77 0 123
49 983 66 1151 28 285 85 572 160 815 40 127 52 161 57 161 2 0 26 -28 53 -62z"/>
</g>
</svg>
