<?xml version="1.0" standalone="no"?>
<!DOCTYPE svg PUBLIC "-//W3C//DTD SVG 20010904//EN"
 "http://www.w3.org/TR/2001/REC-SVG-20010904/DTD/svg10.dtd">
<svg version="1.0" xmlns="http://www.w3.org/2000/svg"
 width="2048.000000pt" height="2048.000000pt" viewBox="0 0 2048.000000 2048.000000"
 preserveAspectRatio="xMidYMid meet">
<metadata>
Created by potrace 1.13, written by Peter Selinger 2001-2015
</metadata>
<g transform="translate(0.000000,2048.000000) scale(0.192120,-0.192120)"
fill="#000000" stroke="none">
<path d="M4802 10319 c-840 -75 -1571 -545 -2098 -1349 -104 -159 -194 -322
-264 -478 -27 -61 -121 -255 -208 -429 -724 -1456 -1238 -2976 -1421 -4203
-48 -319 -69 -546 -81 -870 -6 -177 -15 -275 -43 -460 -59 -384 -71 -526 -72
-815 0 -212 3 -275 18 -340 25 -113 68 -197 124 -240 177 -135 555 -215 1155
-245 l213 -11 130 -48 c1594 -589 3983 -567 5684 51 1081 393 1781 970 2020
1667 35 101 69 253 82 364 15 126 6 455 -16 617 -73 537 -281 976 -625 1320
-292 292 -658 501 -1112 634 -367 108 -730 156 -1183 156 -1041 0 -2110 -318
-2793 -830 -217 -162 -414 -375 -494 -534 -21 -42 -32 -56 -38 -45 -10 18 -36
274 -51 489 -15 215 -15 857 0 1125 13 239 45 638 66 830 24 214 67 560 70
563 2 2 72 -19 157 -46 358 -117 609 -182 728 -189 113 -7 266 22 476 91 279
93 481 201 587 315 66 72 81 118 66 210 -20 129 -80 250 -196 398 l-72 93 282
142 282 143 27 50 c104 196 67 660 -84 1038 -189 473 -501 763 -897 832 -90
16 -266 18 -419 4z m402 -254 c174 -30 310 -101 443 -228 162 -156 281 -373
348 -637 25 -99 26 -111 23 -354 -4 -309 7 -287 -176 -380 -151 -76 -231 -133
-294 -207 -113 -133 -113 -177 -5 -378 98 -181 100 -188 95 -272 -4 -67 -6
-74 -38 -100 -100 -84 -439 -217 -660 -260 -184 -35 -257 -24 -706 106 -271
78 -324 83 -397 34 -59 -39 -132 -120 -162 -179 -36 -72 -87 -474 -130 -1025
-22 -292 -22 -1525 1 -1687 26 -186 64 -267 160 -339 114 -86 144 -72 419 207
133 134 245 238 306 282 571 419 1427 705 2311 773 230 17 729 7 923 -20 879
-120 1477 -451 1849 -1023 62 -96 167 -305 191 -383 9 -27 41 -131 72 -230
l57 -180 4 -375 c4 -408 4 -411 -54 -590 -112 -347 -369 -676 -750 -961 -227
-170 -355 -238 -782 -420 -159 -68 -195 -82 -478 -180 -612 -212 -1348 -351
-2169 -411 -236 -17 -1052 -17 -1275 0 -772 59 -1332 166 -1947 371 -223 74
-287 87 -483 96 -202 10 -537 44 -645 66 -240 48 -354 100 -398 183 -21 40
-22 51 -25 408 -3 387 0 432 69 893 5 33 15 186 23 341 8 155 20 330 26 390
109 1105 457 2332 1058 3724 138 320 210 474 484 1035 267 546 353 694 553
950 61 78 205 240 249 279 11 11 54 51 94 88 40 38 77 66 82 63 4 -3 46 23 92
58 264 199 573 345 893 420 258 61 572 83 749 52z M7995 3636 c-80 -38 -118
-86 -178 -226 -333 -771 -814 -1234 -1460 -1405 -231 -61 -409 -80 -692 -72
-432 12 -842 106 -1287 296 -79 34 -108 41 -160 41 -81 0 -148 -31 -205 -93
-100 -108 -95 -265 12 -373 41 -41 72 -59 170 -101 573 -241 1202 -360 1730
-325 401 26 705 104 1030 262 249 121 432 250 639 450 305 295 548 661 736
1109 43 103 53 136 53 185 1 201 -209 337 -388 252z m183 -198 c7 -7 12 -44
12 -94 0 -71 -5 -93 -34 -161 -166 -388 -431 -765 -724 -1030 -341 -307 -748
-495 -1250 -575 -119 -19 -177 -22 -442 -22 -325 0 -409 7 -684 60 -362 69
-839 232 -912 311 -32 35 -34 107 -4 123 50 27 113 23 206 -10 448 -161 626
-212 884 -254 226 -37 409 -50 605 -43 350 13 622 77 899 211 357 174 634 422
902 811 46 67 186 319 253 457 72 150 108 203 145 218 32 13 130 12 144 -2z"/>
</g>
</svg>
