<?xml version="1.0" standalone="no"?>
<!DOCTYPE svg PUBLIC "-//W3C//DTD SVG 20010904//EN"
 "http://www.w3.org/TR/2001/REC-SVG-20010904/DTD/svg10.dtd">
<svg version="1.0" xmlns="http://www.w3.org/2000/svg"
 width="2048.000000pt" height="2048.000000pt" viewBox="0 0 2048.000000 2048.000000"
 preserveAspectRatio="xMidYMid meet">
<metadata>
Created by potrace 1.13, written by Peter Selinger 2001-2015
</metadata>
<g transform="translate(0.000000,2048.000000) scale(0.192120,-0.192120)"
fill="#000000" stroke="none">
<path d="M9040 10316 c-116 -21 -211 -52 -317 -106 -319 -159 -538 -453 -598
-804 -112 -656 373 -1262 1036 -1293 267 -12 507 58 713 210 540 400 610 1175
149 1657 -163 172 -350 277 -577 326 -98 22 -312 27 -406 10z m335 -271 c197
-32 363 -115 494 -248 75 -76 112 -128 155 -217 l31 -65 3 -275 3 -275 -27
-73 c-94 -259 -328 -447 -639 -514 -83 -17 -293 -14 -385 6 -238 53 -335 99
-451 215 -95 95 -125 146 -170 285 -29 88 -29 92 -29 331 0 216 2 248 20 300
78 226 291 420 550 499 151 47 291 56 445 31z M9140 9949 c-217 -24 -423 -172
-544 -390 -59 -107 -66 -143 -66 -340 0 -195 5 -219 71 -347 69 -134 179 -251
301 -320 130 -74 306 -100 452 -68 229 51 420 229 517 482 l30 79 -3 190 c-3
187 -4 191 -34 261 -44 100 -97 178 -184 264 -145 145 -335 212 -540 189z
m230 -196 c179 -49 332 -202 385 -386 24 -83 22 -224 -4 -307 -57 -182 -197
-319 -385 -378 -84 -26 -235 -21 -325 11 -186 66 -326 224 -366 415 -27 125
-12 240 48 359 120 238 389 357 647 286z M6621 8196 l-554 -555 -136 68 c-393
197 -838 326 -1303 378 -210 23 -619 23 -823 -1 -709 -82 -1351 -333 -1906
-747 -682 -509 -1191 -1245 -1419 -2050 -164 -582 -193 -1186 -84 -1779 222
-1204 1010 -2244 2109 -2780 417 -204 805 -318 1285 -377 203 -25 657 -25 860
0 668 82 1234 294 1775 665 331 226 667 550 914 881 873 1171 1014 2749 361
4051 l-59 117 557 556 557 557 -785 785 c-432 432 -787 785 -790 785 -3 0
-255 -249 -559 -554z m624 109 c72 -55 614 -586 848 -830 282 -293 282 -293
230 -357 -15 -18 -180 -188 -368 -378 -188 -190 -372 -384 -409 -432 -77 -100
-126 -200 -126 -257 0 -48 35 -151 133 -386 116 -279 184 -510 237 -798 20
-113 21 -140 17 -685 l-4 -567 -31 -145 c-97 -442 -241 -803 -461 -1157 -154
-248 -278 -408 -471 -607 -589 -608 -1360 -978 -2240 -1077 -151 -17 -611 -17
-760 0 -890 101 -1666 474 -2260 1087 -491 507 -821 1157 -940 1852 l-30 173
0 482 c0 467 1 486 25 627 137 801 519 1489 1132 2035 486 434 1114 739 1767
860 232 42 412 58 676 58 556 1 986 -88 1527 -317 227 -95 297 -114 358 -97
104 28 158 74 585 497 228 227 431 421 450 433 40 25 70 21 115 -14z M7947
8542 c-103 -103 -185 -191 -181 -195 13 -13 120 -7 167 9 94 32 174 141 198
268 23 125 22 125 -184 -82z M8605 8124 c-32 -8 -77 -25 -100 -38 -52 -31
-132 -116 -151 -161 -15 -37 -19 -132 -6 -152 5 -8 70 50 197 177 186 186 189
190 155 189 -19 0 -62 -7 -95 -15z"/>
</g>
</svg>
