<?xml version="1.0" standalone="no"?>
<!DOCTYPE svg PUBLIC "-//W3C//DTD SVG 20010904//EN"
 "http://www.w3.org/TR/2001/REC-SVG-20010904/DTD/svg10.dtd">
<svg version="1.0" xmlns="http://www.w3.org/2000/svg"
 width="2048.000000pt" height="2048.000000pt" viewBox="0 0 2048.000000 2048.000000"
 preserveAspectRatio="xMidYMid meet">
<metadata>
Created by potrace 1.13, written by Peter Selinger 2001-2015
</metadata>
<g transform="translate(0.000000,2048.000000) scale(0.192120,-0.192120)"
fill="#000000" stroke="none">
<path d="M4925 10039 c-925 -60 -1789 -310 -2545 -736 -179 -101 -470 -299
-641 -436 -1267 -1017 -1723 -2493 -1188 -3846 173 -437 428 -823 784 -1189
234 -241 477 -444 737 -617 50 -33 88 -65 88 -74 0 -9 -18 -83 -39 -166 -135
-513 -364 -1059 -646 -1535 -143 -241 -371 -568 -524 -750 -34 -41 -58 -76
-52 -78 15 -5 281 50 476 99 1092 272 1994 813 2729 1638 l38 43 82 -15 c317
-62 599 -88 1007 -94 466 -7 726 11 1136 77 1365 222 2559 891 3275 1837 366
483 584 1003 664 1588 25 178 25 578 1 755 -53 383 -142 672 -317 1025 -188
380 -434 714 -761 1030 -811 786 -1976 1296 -3254 1425 -296 29 -762 38 -1050
19z m770 -159 c1786 -105 3333 -953 4078 -2235 135 -234 233 -478 327 -820 12
-44 28 -98 35 -120 28 -84 35 -191 35 -552 -1 -411 -1 -411 -79 -683 -98 -343
-221 -634 -364 -865 -253 -409 -600 -787 -997 -1087 -685 -516 -1573 -872
-2505 -1002 -618 -86 -1202 -85 -1813 5 -171 25 -254 24 -310 -1 -66 -30 -147
-97 -261 -216 -470 -492 -1013 -866 -1658 -1143 -288 -123 -712 -260 -805
-261 -50 0 -37 43 55 186 219 341 413 707 553 1045 162 392 294 827 294 967 0
116 -72 212 -260 349 -421 307 -772 664 -1012 1028 -248 377 -398 733 -474
1121 l-25 132 4 478 c2 321 7 492 15 519 6 22 23 88 37 146 181 760 743 1521
1516 2056 509 352 1070 605 1704 768 404 104 737 155 1225 188 112 8 531 6
685 -3z M3020 6713 c-59 -10 -153 -47 -208 -82 -167 -109 -257 -274 -256 -471
0 -153 54 -280 164 -390 214 -214 563 -213 778 2 172 173 212 436 99 653 -43
83 -154 191 -239 233 -103 50 -236 72 -338 55z m185 -287 c68 -18 108 -40 150
-82 l35 -35 0 -135 c0 -116 -3 -140 -20 -175 -76 -148 -364 -174 -498 -46 -60
57 -72 93 -72 213 0 89 3 112 20 139 65 105 240 160 385 121z M5192 6700 c-95
-25 -162 -62 -236 -130 -119 -110 -178 -246 -178 -410 1 -122 26 -204 93 -304
111 -167 286 -254 489 -243 483 24 703 619 351 949 -81 76 -145 112 -247 138
-96 25 -177 25 -272 0z m226 -271 c65 -13 150 -65 179 -108 21 -31 23 -46 23
-150 0 -136 -15 -179 -76 -229 -65 -54 -135 -75 -234 -70 -132 7 -224 59 -270
153 -19 39 -21 59 -18 152 3 121 9 134 85 192 79 61 199 84 311 60z M7433
6706 c-198 -46 -367 -208 -417 -402 -50 -194 10 -401 155 -539 306 -288 780
-161 915 245 27 81 25 224 -3 315 -39 123 -138 251 -242 313 -119 70 -280 97
-408 68z m244 -288 c50 -16 80 -34 115 -68 l48 -46 0 -128 c0 -146 -9 -175
-70 -230 -137 -123 -423 -88 -500 63 -17 34 -20 59 -20 161 l0 120 40 44 c90
97 244 131 387 84z"/>
</g>
</svg>
