<?xml version="1.0" standalone="no"?>
<!DOCTYPE svg PUBLIC "-//W3C//DTD SVG 20010904//EN"
 "http://www.w3.org/TR/2001/REC-SVG-20010904/DTD/svg10.dtd">
<svg version="1.0" xmlns="http://www.w3.org/2000/svg"
 width="2048.000000pt" height="2048.000000pt" viewBox="0 0 2048.000000 2048.000000"
 preserveAspectRatio="xMidYMid meet">
<metadata>
Created by potrace 1.13, written by Peter Selinger 2001-2015
</metadata>
<g transform="translate(0.000000,2048.000000) scale(0.192120,-0.192120)"
fill="#000000" stroke="none">
<path d="M5085 10279 c-709 -68 -1393 -396 -1915 -919 -502 -502 -806 -1127
-880 -1810 -17 -152 -14 -480 5 -645 38 -329 113 -587 259 -890 92 -191 186
-346 401 -665 201 -299 272 -410 354 -557 163 -292 271 -615 311 -928 15 -127
33 -433 34 -610 l1 -149 -40 -7 c-62 -11 -90 -25 -136 -66 -146 -132 -108
-371 71 -452 25 -11 57 -21 73 -21 25 0 27 3 27 39 0 46 -15 93 -46 142 -12
20 -26 53 -29 73 -7 32 -3 44 33 95 31 44 44 73 51 121 6 35 8 66 6 71 -6 9
19 14 1064 188 l876 146 3 1310 2 1310 539 540 c519 520 540 542 555 594 20
68 20 104 1 168 -18 60 -81 135 -138 165 -58 29 -151 35 -218 13 -51 -16 -84
-47 -536 -498 l-483 -482 -482 482 c-453 451 -486 482 -537 498 -67 22 -160
16 -218 -13 -57 -30 -120 -105 -138 -165 -19 -64 -19 -100 1 -168 15 -52 36
-74 555 -594 l539 -540 0 -1333 0 -1332 -669 0 -670 0 30 68 c17 37 35 77 41
88 15 32 4 361 -16 469 -63 341 -180 642 -379 979 -38 65 -163 259 -277 430
-240 362 -278 423 -370 600 -113 217 -193 443 -240 671 -18 91 -20 139 -20
551 0 413 2 460 20 550 142 697 589 1357 1210 1785 623 430 1366 604 2080 488
589 -96 1123 -372 1555 -804 172 -172 268 -288 394 -477 218 -328 327 -597
428 -1059 26 -119 27 -137 31 -488 3 -302 1 -381 -13 -460 -49 -292 -154 -576
-328 -886 -28 -49 -156 -247 -286 -440 -385 -574 -487 -759 -590 -1061 -51
-153 -74 -241 -110 -441 -16 -89 -35 -172 -42 -185 -33 -62 -28 -61 -521 -143
-278 -47 -468 -83 -476 -92 -7 -7 -20 -13 -27 -13 -17 0 -95 -39 -113 -57 -11
-10 -8 -12 15 -8 212 37 1188 195 1216 197 38 3 38 3 56 -50 10 -29 32 -68 50
-86 17 -17 31 -39 31 -47 0 -9 9 -24 20 -34 33 -30 26 -68 -25 -150 -40 -62
-55 -101 -55 -139 0 -24 -5 -36 -17 -40 -61 -18 -3236 -546 -3285 -546 l-38 0
0 -285 0 -285 -32 0 c-82 0 -188 -83 -223 -173 -21 -57 -17 -165 9 -218 46
-97 141 -154 251 -153 l70 1 25 -40 c36 -57 133 -143 199 -176 139 -70 45 -66
1366 -66 1300 0 1236 -3 1365 59 85 40 196 149 238 231 55 110 64 155 69 356
l6 186 58 12 c72 14 132 58 174 126 25 41 31 61 34 127 3 69 0 85 -24 133 -32
67 -93 121 -159 140 -76 23 -79 22 -74 -29 3 -25 15 -63 27 -86 11 -22 21 -45
21 -51 0 -6 9 -22 20 -36 23 -30 25 -68 5 -103 -8 -14 -19 -35 -24 -48 -6 -12
-20 -35 -31 -50 -11 -15 -23 -51 -27 -80 -5 -50 -7 -52 -42 -62 -41 -10 -3065
-515 -3152 -525 l-56 -7 -16 44 c-17 42 -75 111 -131 154 -42 33 -40 86 6 146
29 38 39 62 48 122 l12 74 102 19 c55 11 804 136 1663 279 l1563 259 0 276 0
276 41 7 c92 15 171 75 210 161 23 50 25 161 4 212 -37 89 -122 158 -207 169
-46 6 -48 8 -48 39 0 62 31 280 57 395 60 277 179 554 364 853 28 45 144 219
259 387 224 330 329 498 408 656 205 409 293 787 293 1264 0 386 -54 687 -188
1050 -48 131 -188 414 -268 540 -309 490 -741 879 -1260 1135 -358 177 -684
270 -1070 305 -128 12 -381 11 -510 -1z m-764 -2936 c43 -22 138 -111 454
-425 415 -411 482 -468 552 -468 79 0 106 22 568 480 262 260 414 403 440 415
55 26 132 31 178 12 l37 -16 0 -66 c0 -42 -6 -78 -16 -98 -9 -18 -229 -246
-488 -507 -400 -403 -476 -485 -503 -538 -18 -35 -33 -69 -33 -76 0 -8 -7 -19
-15 -26 -13 -11 -15 -155 -15 -1186 0 -1167 0 -1174 -20 -1174 -17 0 -20 -7
-20 -44 l0 -44 -112 -21 c-62 -12 -116 -21 -120 -21 -5 0 -8 18 -8 41 0 32 -3
40 -15 35 -13 -5 -15 132 -15 1193 0 1053 -2 1200 -15 1211 -8 7 -15 22 -15
34 0 28 -43 109 -88 166 -20 25 -237 248 -482 495 -246 248 -454 461 -463 475
-11 15 -17 45 -17 81 0 48 3 59 23 72 55 35 136 36 208 0z m2429 -4562 c0 -68
-1 -70 -27 -75 -71 -15 -2795 -466 -2813 -466 -18 0 -20 7 -20 68 l0 67 1413
237 c776 130 1420 236 1430 237 15 1 17 -9 17 -68z m0 -1097 c0 -79 -17 -128
-62 -179 -52 -59 -121 -90 -269 -119 -174 -34 -294 -38 -959 -27 -562 8 -640
13 -640 40 0 5 28 16 63 26 50 13 1810 312 1855 314 8 1 12 -17 12 -55z M4279
1101 c38 -53 154 -152 261 -223 257 -171 546 -268 796 -268 240 0 528 99 789
271 102 67 286 231 274 244 -4 3 -89 -29 -190 -71 -532 -222 -745 -278 -966
-255 -212 23 -360 71 -806 260 -92 39 -170 71 -173 71 -3 0 4 -13 15 -29z"/>
</g>
</svg>
