<?xml version="1.0" standalone="no"?>
<!DOCTYPE svg PUBLIC "-//W3C//DTD SVG 20010904//EN"
 "http://www.w3.org/TR/2001/REC-SVG-20010904/DTD/svg10.dtd">
<svg version="1.0" xmlns="http://www.w3.org/2000/svg"
 width="2048.000000pt" height="2048.000000pt" viewBox="0 0 2048.000000 2048.000000"
 preserveAspectRatio="xMidYMid meet">
<metadata>
Created by potrace 1.13, written by Peter Selinger 2001-2015
</metadata>
<g transform="translate(0.000000,2048.000000) scale(0.192120,-0.192120)"
fill="#000000" stroke="none">
<path d="M5635 10319 c-595 -55 -1139 -297 -1546 -687 -390 -373 -634 -875
-690 -1420 -17 -168 -7 -496 21 -652 48 -269 126 -467 235 -597 22 -26 40 -50
40 -53 0 -10 -570 -29 -1100 -36 -836 -10 -1547 23 -2080 97 -201 28 -202 27
-125 -24 214 -143 602 -342 901 -461 734 -293 1587 -484 2514 -561 237 -20
532 -35 676 -35 l116 0 -17 -64 c-17 -60 -43 -226 -58 -366 l-7 -65 -635 1
c-651 1 -1095 15 -1755 55 -633 37 -1311 96 -1678 144 -61 8 -112 13 -114 11
-7 -7 95 -85 205 -157 337 -220 886 -437 1518 -599 598 -154 1195 -253 2048
-340 80 -8 472 -40 498 -40 4 0 -4 -12 -18 -27 -44 -47 -71 -172 -81 -375 l-6
-128 -171 0 c-1076 1 -2836 120 -3845 261 -79 11 -145 18 -147 16 -4 -4 194
-159 334 -260 439 -320 929 -586 1427 -777 236 -91 434 -153 707 -221 l37 -10
-6 -97 c-3 -63 0 -139 11 -218 39 -300 152 -533 355 -734 234 -233 545 -374
961 -436 216 -33 543 -22 707 22 18 5 29 -6 71 -68 122 -180 330 -405 497
-538 361 -286 788 -467 1255 -531 144 -20 507 -17 655 5 509 77 958 289 1332
628 558 505 863 1253 813 1995 -27 406 -144 791 -335 1108 -26 44 -50 83 -51
87 -2 3 31 25 73 48 260 140 522 366 705 610 614 817 592 1940 -53 2737 -345
426 -885 729 -1413 794 l-95 12 -12 55 c-19 92 -78 269 -131 392 -185 432
-514 827 -906 1088 -306 204 -653 338 -1015 393 -154 23 -470 33 -622 18z
m605 -214 c524 -76 986 -314 1360 -701 238 -246 392 -503 512 -854 57 -169 90
-230 156 -294 62 -61 84 -70 248 -107 515 -115 909 -351 1219 -729 171 -209
306 -482 375 -757 18 -75 20 -112 20 -490 0 -460 -3 -483 -78 -695 -62 -173
-129 -307 -231 -453 -172 -251 -309 -383 -628 -609 -127 -91 -193 -182 -193
-270 0 -58 13 -95 118 -326 76 -170 130 -327 162 -478 20 -92 21 -122 18 -542
l-4 -445 -31 -115 c-88 -322 -228 -600 -431 -855 -446 -559 -1109 -875 -1837
-875 -756 0 -1439 340 -1895 943 -48 64 -125 134 -180 163 -31 17 -51 18 -165
14 -463 -17 -703 8 -960 99 -323 116 -537 285 -683 542 -72 127 -113 284 -136
524 -15 156 -27 189 -98 262 -58 59 -113 85 -293 138 -198 58 -466 154 -645
229 -466 198 -950 487 -832 498 32 2 87 -1 237 -16 885 -90 2252 -164 2860
-154 258 3 265 5 337 80 53 56 88 135 100 226 5 43 18 132 29 198 25 161 24
192 -7 247 -43 77 -120 130 -217 147 -29 5 -151 19 -272 30 -708 66 -1300 157
-1865 286 -293 67 -728 195 -833 245 -87 42 -112 57 -112 70 0 21 49 21 355 0
809 -58 1999 -100 2500 -89 187 4 210 7 258 28 61 27 116 84 154 162 32 65 69
286 69 407 -1 98 -22 145 -93 205 -64 55 -112 65 -413 81 -672 37 -1175 105
-1756 236 -495 111 -1049 301 -1049 359 0 24 -33 24 520 9 307 -8 539 -8 894
0 721 18 791 25 874 97 111 94 117 169 33 354 -66 142 -113 286 -136 410 -14
81 -16 150 -13 470 l4 375 32 124 c124 479 402 876 821 1174 336 240 755 392
1206 437 126 12 489 4 615 -15z"/>
</g>
</svg>
