<?xml version="1.0" standalone="no"?>
<!DOCTYPE svg PUBLIC "-//W3C//DTD SVG 20010904//EN"
 "http://www.w3.org/TR/2001/REC-SVG-20010904/DTD/svg10.dtd">
<svg version="1.0" xmlns="http://www.w3.org/2000/svg"
 width="2048.000000pt" height="2048.000000pt" viewBox="0 0 2048.000000 2048.000000"
 preserveAspectRatio="xMidYMid meet">
<metadata>
Created by potrace 1.13, written by Peter Selinger 2001-2015
</metadata>
<g transform="translate(0.000000,2048.000000) scale(0.192120,-0.192120)"
fill="#000000" stroke="none">
<path d="M5210 10164 c-30 -8 -78 -29 -107 -46 -34 -21 -365 -345 -966 -947
-843 -845 -916 -921 -940 -976 -57 -133 -56 -258 4 -387 27 -57 90 -123 673
-707 l644 -644 88 56 c429 272 1019 272 1448 0 l88 -56 644 644 c593 594 645
649 673 709 58 126 60 256 4 385 -24 55 -99 133 -940 976 -603 604 -932 926
-966 947 -98 59 -232 77 -347 46z m215 -238 c28 -13 75 -43 105 -66 68 -54
1120 -1100 1120 -1114 0 -5 135 -146 300 -311 l300 -302 0 -117 c0 -89 -4
-125 -16 -149 -9 -18 -121 -138 -248 -267 -127 -129 -284 -298 -349 -374 -101
-120 -120 -149 -137 -204 -11 -35 -20 -72 -20 -82 0 -11 -4 -21 -8 -24 -4 -2
-44 18 -87 46 -236 151 -514 254 -788 293 -131 19 -403 19 -534 0 -268 -38
-533 -136 -774 -285 -45 -28 -87 -52 -92 -53 -5 -1 -16 25 -23 58 -19 79 -31
111 -67 165 -17 25 -173 189 -347 365 -175 176 -329 338 -344 360 -24 36 -26
48 -26 144 l0 105 325 326 c179 179 325 330 325 336 0 5 249 257 553 560 490
489 559 555 616 583 80 39 144 41 216 7z m65 -2856 c222 -20 434 -75 618 -162
51 -24 62 -34 62 -54 0 -14 -11 -36 -25 -49 -36 -37 -81 -32 -225 25 -403 158
-798 157 -1190 -5 -63 -26 -132 -48 -152 -48 -50 -2 -90 35 -86 78 3 27 10 33
88 67 287 125 596 176 910 148z M2581 7499 c-30 -5 -82 -21 -115 -36 -56 -24
-129 -94 -977 -940 -604 -603 -926 -932 -947 -966 -81 -135 -81 -319 0 -454
21 -34 343 -363 947 -966 843 -841 921 -916 976 -940 129 -56 259 -54 385 4
60 28 115 80 709 673 l644 644 -56 88 c-129 204 -207 476 -207 724 0 248 78
520 207 724 l56 88 -644 643 c-666 664 -678 676 -784 703 -65 17 -136 21 -194
11z m136 -234 c81 -24 150 -83 485 -413 173 -170 329 -317 347 -327 18 -9 70
-25 114 -34 45 -10 81 -23 80 -28 -1 -5 -25 -47 -54 -94 -149 -240 -246 -504
-284 -772 -19 -131 -19 -403 0 -534 42 -294 151 -573 332 -850 18 -27 22 -24
-88 -48 -49 -10 -94 -27 -125 -48 -27 -17 -190 -171 -364 -342 -365 -359 -380
-370 -505 -370 -92 0 -137 18 -220 85 -85 70 -1572 1547 -1636 1626 -77 94
-89 125 -89 222 0 71 3 83 29 120 16 22 35 43 40 47 6 3 17 21 25 38 14 35
1599 1613 1673 1668 44 32 133 68 169 69 11 0 43 -7 71 -15z m1106 -1096 c41
-21 77 -62 77 -88 0 -15 -12 -58 -26 -96 -112 -302 -114 -314 -114 -654 0
-326 5 -355 92 -587 39 -107 49 -143 44 -172 -6 -38 -46 -86 -82 -96 -61 -18
-158 155 -219 389 -25 96 -25 103 -25 475 0 375 0 378 26 466 53 185 126 337
174 361 30 15 27 15 53 2z M7930 7499 c-30 -5 -84 -23 -120 -40 -60 -28 -116
-81 -709 -673 l-644 -644 56 -88 c276 -436 272 -1024 -9 -1463 l-47 -73 644
-644 c594 -593 649 -645 709 -673 126 -58 256 -60 385 -4 55 24 133 99 976
940 604 603 926 932 947 966 79 131 81 314 5 447 -15 28 -376 396 -936 957
-950 951 -953 954 -1062 981 -66 17 -137 21 -195 11z m185 -254 c28 -13 89
-59 137 -102 112 -101 599 -577 1184 -1157 414 -411 467 -467 500 -530 34 -66
36 -74 32 -141 -4 -54 -12 -83 -33 -120 -32 -57 -868 -904 -1030 -1043 -55
-48 -237 -222 -405 -387 -335 -330 -367 -354 -475 -363 -74 -5 -132 11 -202
59 -26 18 -181 164 -343 324 -162 160 -315 305 -340 322 -44 30 -163 73 -200
73 -11 0 -21 3 -24 8 -2 4 21 47 51 96 113 183 199 382 246 571 46 183 52 240
52 475 0 235 -6 292 -52 475 -46 187 -133 388 -243 566 -28 45 -52 87 -53 92
-1 5 34 18 78 28 50 12 99 32 131 53 27 19 192 173 365 343 173 170 329 319
347 332 91 64 183 72 277 26z m-1194 -1111 c36 -60 75 -146 102 -229 57 -175
57 -176 57 -570 0 -337 -2 -373 -21 -448 -43 -173 -115 -341 -166 -390 -36
-33 -60 -28 -111 24 -44 45 -42 77 14 215 25 62 57 158 71 211 25 91 27 116
31 347 5 326 0 352 -117 676 -17 47 -31 95 -31 107 0 41 90 106 131 96 10 -3
28 -21 40 -39z M4407 6365 c-32 -25 -81 -74 -109 -108 l-51 -61 33 -14 c67
-27 155 12 190 84 23 46 24 76 7 118 l-12 28 -58 -47z M6181 6384 c-49 -109
68 -237 188 -204 38 10 40 12 30 32 -15 28 -158 172 -186 186 -17 10 -22 8
-32 -14z M4276 4477 l-28 -12 47 -58 c53 -66 162 -160 175 -152 5 3 12 25 15
49 18 115 -107 219 -209 173z M6285 4477 c-16 -7 -42 -20 -57 -30 -51 -35 -73
-123 -44 -175 l13 -24 61 51 c81 67 158 162 140 172 -26 15 -84 18 -113 6z
M3869 3553 c-588 -591 -648 -653 -672 -708 -54 -125 -54 -255 0 -380 24 -55
99 -133 940 -976 603 -604 932 -926 966 -947 135 -81 319 -81 454 0 34 21 363
343 966 947 841 843 916 921 940 976 56 129 54 259 -4 385 -28 60 -80 115
-673 709 l-644 644 -73 -47 c-140 -90 -292 -151 -462 -187 -135 -29 -398 -32
-530 -6 -175 35 -338 99 -478 189 -42 26 -78 48 -80 48 -3 0 -295 -291 -650
-647z m844 273 c272 -106 347 -121 617 -121 270 0 345 15 617 121 125 49 159
53 197 23 34 -26 32 -64 -4 -90 -66 -49 -314 -132 -491 -165 -117 -22 -413
-30 -536 -14 -193 24 -378 74 -526 144 -91 42 -115 66 -99 101 26 57 83 57
225 1z m-408 -146 c237 -146 527 -248 790 -279 127 -15 381 -13 502 4 270 38
531 134 772 284 47 29 89 53 94 54 5 1 18 -32 29 -73 25 -94 43 -125 140 -228
43 -45 78 -89 78 -98 0 -8 107 -124 238 -257 333 -339 302 -295 302 -430 0
-108 -1 -115 -29 -158 -16 -24 -406 -420 -867 -880 -935 -930 -891 -892 -1025
-893 -55 0 -78 6 -135 33 -64 32 -125 90 -897 860 -456 454 -845 848 -865 876
-37 49 -37 51 -40 158 l-4 109 316 317 c174 174 316 323 316 330 0 7 23 38 51
69 63 70 73 89 94 177 25 105 22 99 48 82 12 -8 54 -33 92 -57z"/>
</g>
</svg>
