<?xml version="1.0" standalone="no"?>
<!DOCTYPE svg PUBLIC "-//W3C//DTD SVG 20010904//EN"
 "http://www.w3.org/TR/2001/REC-SVG-20010904/DTD/svg10.dtd">
<svg version="1.0" xmlns="http://www.w3.org/2000/svg"
 width="2048.000000pt" height="2048.000000pt" viewBox="0 0 2048.000000 2048.000000"
 preserveAspectRatio="xMidYMid meet">
<metadata>
Created by potrace 1.13, written by Peter Selinger 2001-2015
</metadata>
<g transform="translate(0.000000,2048.000000) scale(0.192120,-0.192120)"
fill="#000000" stroke="none">
<path d="M4295 9966 c-148 -78 -343 -180 -432 -227 l-161 -85 160 -304 c336
-642 511 -926 751 -1224 108 -135 318 -349 443 -452 446 -368 972 -536 1510
-483 645 63 1283 385 2069 1044 110 93 233 195 272 228 72 59 73 60 55 82 -9
12 -127 152 -262 311 -135 159 -269 317 -297 351 l-52 62 -148 -127 c-82 -70
-198 -168 -258 -218 -574 -474 -1050 -721 -1471 -763 -541 -54 -984 285 -1473
1127 -70 121 -308 565 -392 734 l-44 87 -270 -143z m204 -283 c17 -21 47 -69
68 -108 146 -280 339 -607 471 -800 207 -303 450 -555 675 -701 401 -261 841
-269 1377 -25 309 140 633 358 1045 700 115 95 166 125 198 115 12 -3 39 -23
61 -43 58 -55 185 -207 195 -233 19 -52 -5 -79 -258 -281 -503 -404 -1003
-677 -1438 -786 -199 -50 -319 -65 -518 -65 -332 0 -615 72 -885 224 -482 273
-842 699 -1282 1520 -124 232 -140 269 -136 311 3 33 6 35 176 122 95 48 184
87 197 87 15 0 35 -13 54 -37z M2138 8946 c-26 -24 -188 -162 -360 -306 -172
-145 -317 -267 -321 -271 -5 -4 69 -98 165 -210 203 -240 268 -319 369 -454
282 -374 459 -717 540 -1045 20 -83 23 -119 23 -280 0 -173 -2 -191 -28 -275
-89 -290 -282 -531 -641 -797 -227 -169 -449 -301 -945 -561 -179 -94 -326
-171 -327 -172 -2 -1 45 -91 103 -201 58 -109 160 -304 226 -432 l120 -232 71
39 c40 21 164 87 277 146 113 59 257 136 320 170 559 304 951 594 1237 914
720 806 757 1777 109 2856 -155 257 -332 499 -602 820 -92 110 -192 230 -223
268 -30 37 -58 67 -61 67 -3 -1 -26 -20 -52 -44z m61 -370 c31 -16 88 -81 242
-271 419 -517 671 -976 780 -1420 l29 -119 0 -366 c0 -330 -2 -373 -20 -448
-56 -235 -152 -430 -323 -662 -171 -230 -476 -498 -818 -718 -218 -140 -738
-428 -856 -475 -73 -29 -102 -4 -185 153 -64 122 -82 173 -69 198 6 11 52 41
103 67 938 483 1400 880 1612 1387 83 198 88 230 84 514 -4 233 -6 255 -31
346 -114 409 -348 821 -752 1318 -140 173 -165 209 -165 241 0 24 19 44 125
131 123 101 177 138 203 138 7 0 25 -6 41 -14z M9320 6846 c-417 -220 -515
-274 -697 -386 -305 -188 -525 -355 -736 -560 -177 -171 -301 -321 -406 -488
-469 -751 -404 -1637 191 -2584 175 -279 326 -478 662 -876 l178 -212 23 18
c68 51 715 605 715 611 0 4 -69 88 -153 187 -398 465 -595 743 -752 1059 -137
276 -197 497 -198 725 -1 189 27 309 111 474 65 128 147 234 286 371 272 270
664 516 1497 941 l57 29 -70 130 c-38 72 -140 265 -227 431 l-157 301 -324
-171z m260 -253 c34 -41 134 -232 144 -275 13 -55 -2 -68 -215 -182 -387 -208
-620 -352 -849 -527 -363 -276 -623 -615 -714 -933 -25 -84 -26 -100 -26 -335
0 -243 1 -249 31 -366 104 -409 382 -889 821 -1419 106 -128 115 -151 77 -199
-24 -31 -177 -163 -233 -201 -44 -29 -91 -33 -124 -11 -51 36 -324 372 -458
565 -291 418 -454 746 -556 1120 l-32 115 -4 360 c-4 395 -2 411 55 590 156
485 590 937 1303 1360 273 161 686 375 726 375 14 0 34 -14 54 -37z M4135
3540 c-321 -33 -647 -135 -990 -310 -265 -134 -454 -254 -735 -466 -137 -103
-597 -481 -668 -549 -12 -10 20 -53 185 -246 109 -129 247 -292 307 -364 60
-71 112 -133 115 -137 4 -5 79 53 166 128 335 286 535 442 726 567 346 227
637 353 913 397 100 16 298 14 381 -4 352 -74 664 -333 982 -811 148 -223 263
-425 498 -877 l129 -247 101 53 c55 30 244 129 420 221 176 92 324 171 329
176 6 5 2 23 -11 46 -11 21 -92 173 -179 338 -354 674 -578 1016 -875 1337
-207 224 -466 425 -702 544 -165 84 -405 160 -592 189 -126 19 -382 27 -500
15z m348 -290 c564 -47 1041 -331 1477 -880 172 -216 357 -512 562 -900 93
-177 108 -211 108 -252 0 -47 -1 -48 -52 -78 -88 -50 -271 -139 -301 -146 -39
-9 -78 36 -156 182 -340 630 -541 925 -821 1204 -248 248 -460 374 -733 437
-113 26 -372 23 -506 -6 -426 -91 -880 -343 -1428 -794 -178 -147 -208 -167
-247 -167 -36 0 -76 33 -158 130 -86 101 -118 151 -118 181 0 31 84 108 325
295 677 527 1293 791 1870 802 33 1 113 -3 178 -8z"/>
</g>
</svg>
