<?xml version="1.0" standalone="no"?>
<!DOCTYPE svg PUBLIC "-//W3C//DTD SVG 20010904//EN"
 "http://www.w3.org/TR/2001/REC-SVG-20010904/DTD/svg10.dtd">
<svg version="1.0" xmlns="http://www.w3.org/2000/svg"
 width="2048.000000pt" height="2048.000000pt" viewBox="0 0 2048.000000 2048.000000"
 preserveAspectRatio="xMidYMid meet">
<metadata>
Created by potrace 1.13, written by Peter Selinger 2001-2015
</metadata>
<g transform="translate(0.000000,2048.000000) scale(0.192120,-0.192120)"
fill="#000000" stroke="none">
<path d="M5065 10323 c-468 -28 -900 -111 -1325 -253 -1591 -534 -2816 -1841
-3245 -3464 -133 -503 -187 -1061 -155 -1581 80 -1278 633 -2456 1567 -3337
1085 -1023 2568 -1504 4057 -1317 1239 156 2388 784 3198 1749 1112 1324 1459
3145 913 4785 -425 1275 -1335 2319 -2540 2910 -602 296 -1216 460 -1890 505
-137 9 -457 11 -580 3z m535 -263 c668 -38 1282 -198 1865 -485 601 -296 1132
-711 1556 -1217 534 -638 875 -1381 1019 -2221 l30 -178 0 -627 0 -627 -30
-174 c-117 -675 -345 -1263 -700 -1801 -312 -474 -652 -838 -1100 -1180 -122
-93 -388 -271 -455 -305 -22 -11 -42 -23 -45 -26 -3 -3 -18 -12 -35 -21 -16
-8 -79 -40 -140 -70 -158 -80 -379 -178 -535 -236 -180 -67 -368 -125 -380
-117 -6 3 -10 1 -10 -5 0 -6 -4 -9 -9 -5 -5 3 -12 1 -16 -4 -3 -5 -14 -8 -25
-6 -11 2 -20 1 -20 -3 0 -4 -10 -7 -22 -8 -13 0 -87 -15 -166 -33 -78 -18
-149 -30 -157 -27 -8 3 -15 0 -15 -5 0 -7 -11 -9 -25 -7 -14 3 -25 1 -25 -3 0
-12 -47 -11 -55 0 -9 15 4 20 100 37 19 3 171 39 208 49 9 3 27 8 40 11 12 3
27 6 32 8 68 19 117 33 210 64 61 20 112 37 115 37 3 1 12 5 20 8 8 3 62 24
120 45 105 39 129 50 335 145 401 185 859 495 1154 782 120 117 406 449 553
642 432 568 728 1231 878 1963 12 58 24 160 27 228 5 115 4 127 -17 170 -30
59 -121 149 -174 173 -23 9 -68 22 -101 29 -113 21 -2759 310 -2839 310 -60 0
-90 -5 -122 -21 -43 -20 -174 -149 -174 -171 0 -6 -6 -19 -14 -27 -7 -9 -21
-42 -30 -73 -9 -31 -30 -85 -46 -120 l-30 -63 0 315 c0 372 -2 384 -98 590
-25 54 -89 147 -159 232 -180 214 -430 343 -703 363 -99 8 -150 21 -150 40 0
7 18 35 39 63 22 27 51 72 65 100 46 92 42 158 -114 1633 -76 728 -144 1354
-149 1391 -5 36 -18 87 -30 113 -39 87 -175 222 -241 238 -14 3 -42 10 -62 15
-22 6 -38 6 -38 1 0 -12 -67 -12 -75 0 -8 14 12 23 54 27 20 1 70 10 111 18
142 31 510 42 800 26z m-990 -70 c0 -13 -7 -20 -19 -20 -41 0 -29 28 17 39 1
1 2 -8 2 -19z m-60 -10 c0 -13 -7 -20 -19 -20 -41 0 -29 28 17 39 1 1 2 -8 2
-19z m-60 -11 c0 -14 -5 -19 -17 -17 -23 4 -28 25 -6 31 10 3 19 5 21 6 1 0 2
-8 2 -20z m-50 -10 c0 -17 -5 -20 -25 -17 -14 3 -25 1 -25 -5 0 -5 -11 -7 -25
-5 -13 3 -26 1 -27 -3 -2 -5 -21 -10 -43 -12 -22 -1 -42 -5 -45 -8 -5 -6 -186
-59 -207 -61 -7 -1 -13 -5 -13 -9 0 -5 -7 -6 -15 -3 -8 4 -15 2 -15 -3 0 -9
-6 -11 -50 -15 -11 -1 -20 -6 -20 -10 0 -4 -3 -7 -7 -7 -5 1 -11 0 -15 -1 -5
-1 -11 -3 -15 -5 -5 -1 -15 -5 -23 -8 -8 -4 -58 -22 -110 -41 -226 -81 -526
-222 -695 -326 -44 -27 -90 -54 -103 -59 -12 -6 -28 -15 -35 -21 -6 -6 -70
-50 -142 -97 -323 -214 -585 -439 -782 -673 -39 -47 -120 -141 -178 -210 -464
-543 -785 -1152 -969 -1840 -77 -284 -91 -371 -91 -550 l0 -165 40 -55 c56
-79 112 -127 174 -150 74 -28 2789 -332 2926 -328 84 3 93 5 138 37 52 36 123
124 155 193 11 24 33 86 50 138 l30 95 1 -240 c1 -253 12 -349 51 -466 162
-479 562 -789 1021 -789 61 0 69 -2 69 -19 0 -10 -19 -45 -43 -77 -23 -33 -53
-76 -65 -97 -44 -75 -36 -171 123 -1595 162 -1449 159 -1430 182 -1492 37
-102 144 -224 229 -262 48 -21 167 -30 217 -17 23 7 27 5 27 -13 0 -17 -5 -20
-30 -16 -16 3 -30 1 -30 -4 0 -4 -18 -8 -40 -8 -22 0 -40 -4 -40 -9 0 -5 -21
-11 -47 -14 -27 -3 -90 -13 -142 -21 -223 -36 -691 -30 -1045 15 -1468 184
-2781 1041 -3515 2294 -333 568 -521 1113 -621 1802 -6 43 -10 291 -10 620 0
585 2 608 56 893 126 671 365 1245 750 1800 345 499 825 960 1342 1289 313
200 678 376 992 481 101 34 310 98 342 104 13 3 34 8 48 11 14 3 36 8 50 11
14 3 40 9 59 14 19 5 37 7 39 5 3 -2 13 0 22 5 10 5 35 12 56 15 22 4 50 8 62
10 13 2 26 6 30 9 12 12 22 5 22 -15z m589 -1760 c134 -1275 161 -1553 149
-1560 -7 -5 -26 -9 -43 -9 -16 0 -66 -9 -110 -19 -380 -92 -687 -327 -858
-658 -60 -116 -114 -279 -131 -390 -12 -84 -14 -88 -37 -85 -235 24 -3083 343
-3085 345 -6 6 45 318 72 442 264 1214 998 2237 2064 2880 422 254 941 454
1420 546 128 24 331 56 370 58 l25 1 164 -1551z m472 -2053 c249 -53 459 -217
577 -451 62 -125 77 -194 77 -365 0 -135 -3 -165 -23 -230 -88 -279 -293 -484
-572 -572 -65 -20 -95 -23 -230 -23 -135 0 -165 3 -230 23 -278 88 -485 295
-572 572 -20 65 -23 96 -23 230 0 135 3 165 23 230 95 302 344 530 643 589 70
14 258 12 330 -3z m-897 -28 c-4 -7 -28 -42 -53 -78 -117 -165 -150 -223 -219
-380 -9 -20 -11 -7 -11 75 -1 90 2 105 27 155 44 89 202 237 255 240 5 0 5 -6
1 -12z m3571 -1102 c831 -92 1525 -169 1543 -172 37 -6 38 20 -9 -259 -262
-1561 -1341 -2865 -2829 -3420 -284 -106 -628 -193 -925 -235 -44 -6 -92 -13
-106 -16 -26 -5 -27 -4 -34 63 -13 133 -325 2919 -333 2981 -10 71 -21 62 102
82 302 48 615 242 803 496 110 150 206 372 233 539 17 108 20 117 33 112 7 -3
692 -80 1522 -171z m-1855 -204 c-18 -73 -116 -193 -212 -259 -47 -33 -68 -41
-68 -24 0 5 33 54 73 108 41 54 83 113 93 132 52 94 73 133 84 163 27 67 35
66 38 -8 2 -38 -2 -89 -8 -112z M2243 8385 c-10 -28 8 -119 33 -166 17 -31
320 -340 932 -951 701 -700 918 -910 954 -927 36 -17 61 -21 110 -19 l63 3
-1035 1038 c-569 570 -1038 1037 -1043 1037 -4 0 -10 -7 -14 -15z M6339 4323
c5 -10 471 -479 1034 -1042 686 -685 1029 -1021 1037 -1016 18 11 7 112 -19
171 -18 41 -177 204 -929 956 -616 615 -921 913 -949 927 -31 15 -61 21 -113
21 -64 0 -70 -2 -61 -17z"/>
</g>
</svg>
