<?xml version="1.0" standalone="no"?>
<!DOCTYPE svg PUBLIC "-//W3C//DTD SVG 20010904//EN"
 "http://www.w3.org/TR/2001/REC-SVG-20010904/DTD/svg10.dtd">
<svg version="1.0" xmlns="http://www.w3.org/2000/svg"
 width="2048.000000pt" height="2048.000000pt" viewBox="0 0 2048.000000 2048.000000"
 preserveAspectRatio="xMidYMid meet">
<metadata>
Created by potrace 1.13, written by Peter Selinger 2001-2015
</metadata>
<g transform="translate(0.000000,2048.000000) scale(0.192120,-0.192120)"
fill="#000000" stroke="none">
<path d="M1830 10254 c-286 -32 -470 -101 -653 -242 -200 -156 -316 -445 -278
-692 46 -292 239 -511 522 -590 95 -26 256 -28 355 -4 74 18 196 70 242 103
51 36 172 352 172 446 l0 33 -67 -45 c-247 -166 -534 -193 -796 -75 -131 60
-254 158 -334 266 l-43 59 25 31 c14 17 60 83 102 146 139 211 281 316 518
385 374 108 886 13 1350 -252 88 -50 140 -83 333 -212 247 -165 577 -509 697
-726 170 -310 250 -418 318 -430 21 -4 40 -5 43 -2 7 7 -69 174 -129 282 -416
758 -1221 1367 -1977 1494 -113 19 -331 33 -400 25z m-530 -1212 c0 4 29 -4
65 -17 36 -14 65 -23 65 -21 0 2 24 -2 53 -10 28 -7 81 -14 117 -14 88 -1 145
-12 145 -29 0 -37 -159 -53 -273 -26 -119 28 -239 102 -202 125 9 6 17 5 22
-3 4 -7 8 -9 8 -5z m486 -100 c-4 -3 -12 0 -19 7 -9 9 -9 14 3 21 11 7 16 5
18 -6 2 -9 1 -18 -2 -22z M6635 9481 c-176 -37 -463 -130 -739 -241 -423 -169
-870 -407 -1221 -648 -138 -94 -295 -214 -295 -223 0 -5 14 -50 31 -101 93
-276 122 -616 74 -853 -49 -242 -172 -474 -315 -592 -143 -118 -284 -173 -461
-181 -147 -6 -236 12 -360 75 -95 47 -209 142 -250 209 l-21 34 -176 -169
c-401 -385 -844 -710 -1384 -1019 -268 -153 -724 -376 -860 -421 -49 -16 -123
-98 -161 -179 -35 -76 -46 -173 -27 -253 30 -129 16 -112 1550 -1928 806 -954
1478 -1743 1495 -1753 88 -54 284 -73 465 -44 118 19 200 49 465 173 617 287
1225 677 1725 1107 139 119 417 393 541 532 94 106 101 112 147 119 75 11 185
49 256 89 63 35 67 40 106 122 50 104 98 248 106 320 4 30 4 54 1 54 -3 0 -29
-16 -58 -36 -74 -51 -200 -108 -284 -130 -104 -27 -286 -25 -388 4 -137 39
-248 102 -379 214 -37 32 -68 55 -68 51 1 -17 59 -106 104 -158 51 -59 127
-113 216 -153 60 -26 206 -61 258 -62 17 0 32 -5 32 -11 0 -16 134 -6 247 18
92 19 109 14 97 -31 -8 -35 -69 -80 -137 -102 -115 -37 -180 -91 -193 -159
l-6 -35 -66 0 c-89 0 -180 24 -282 73 -68 33 -102 59 -171 127 -95 94 -146
175 -187 298 -23 68 -26 93 -26 217 0 132 2 146 32 234 72 210 201 357 412
470 199 106 469 155 725 132 251 -24 514 -97 744 -207 l113 -54 157 104 c512
340 1195 659 1716 801 94 25 103 30 148 79 129 138 151 304 63 485 -24 50
-346 437 -1479 1780 -797 944 -1465 1732 -1486 1752 -65 63 -133 82 -306 85
-116 3 -170 -1 -240 -15z m361 -221 c70 -33 145 -114 539 -581 402 -477 515
-608 671 -774 62 -66 473 -547 914 -1070 872 -1033 870 -1030 870 -1145 0 -73
-8 -95 -53 -141 -24 -25 -59 -44 -109 -62 -40 -14 -147 -51 -238 -83 -422
-146 -792 -322 -1258 -596 -112 -66 -219 -126 -237 -134 -59 -24 -116 -17
-282 37 -240 77 -341 99 -460 99 l-101 0 -71 78 c-62 67 -71 74 -71 52 0 -45
-11 -50 -131 -60 -63 -6 -141 -15 -174 -21 -251 -43 -489 -164 -660 -333 -90
-90 -123 -134 -183 -250 -82 -155 -84 -168 -80 -424 4 -220 5 -229 32 -302 81
-214 224 -403 383 -505 88 -56 86 -71 -18 -180 -81 -84 -155 -133 -185 -121
-33 13 -33 -7 -2 -46 30 -38 31 -42 14 -52 -40 -24 -223 -147 -259 -173 -489
-365 -871 -603 -1337 -832 -385 -190 -534 -237 -725 -228 -121 5 -173 26 -249
101 -28 28 -219 249 -423 491 -204 242 -388 458 -409 480 -74 80 -1871 2212
-1925 2285 -83 111 -89 126 -89 224 0 82 1 85 31 110 17 14 35 26 40 26 5 0 9
9 9 20 0 23 3 25 260 145 531 249 1071 582 1547 955 145 114 217 186 269 269
2 1 18 -9 37 -23 42 -32 47 -32 47 -2 0 26 66 93 120 121 40 21 71 14 147 -32
94 -57 164 -90 243 -115 66 -20 95 -23 235 -23 140 0 169 3 235 23 220 70 397
210 546 433 132 197 203 408 229 674 12 127 38 177 83 160 10 -4 4 8 -14 27
-17 18 -54 63 -82 100 l-52 68 0 174 0 175 30 21 c17 12 30 28 30 35 0 29 367
265 644 412 453 243 1027 465 1361 527 114 22 249 16 311 -14z M2444 5095
c-72 -36 -107 -89 -112 -170 -5 -79 7 -106 99 -213 l72 -83 -30 -42 c-75 -105
-130 -253 -140 -378 -8 -104 10 -198 58 -296 106 -220 290 -314 555 -283 117
14 250 47 512 129 251 78 332 94 448 89 81 -3 98 -7 140 -34 30 -18 60 -48 79
-78 28 -46 30 -57 30 -141 0 -85 -2 -96 -38 -169 -29 -57 -58 -97 -112 -149
-140 -138 -291 -204 -530 -232 -175 -20 -207 -28 -250 -66 -60 -53 -67 -122
-20 -204 81 -141 369 -134 673 16 103 51 126 59 136 48 7 -8 43 -51 81 -96 84
-102 129 -127 216 -121 109 8 190 93 191 201 1 72 -18 109 -106 209 -42 48
-76 90 -76 94 0 3 24 43 54 87 98 148 139 275 139 432 0 124 -33 232 -103 339
-117 177 -247 249 -454 248 -143 -1 -264 -28 -579 -133 -292 -96 -411 -124
-492 -113 -175 23 -254 197 -169 373 32 66 165 204 238 246 89 52 172 76 301
86 142 12 175 21 221 62 87 75 86 169 0 245 -102 89 -335 68 -577 -53 l-85
-43 -72 88 c-80 97 -118 121 -197 127 -39 4 -61 -1 -101 -22z m239 -306 c79
-58 83 -75 31 -127 l-36 -36 -24 29 c-25 31 -74 144 -74 170 0 27 34 15 103
-36z m1478 -1692 c10 -3 19 -13 19 -22 0 -10 14 -44 30 -77 17 -32 30 -67 30
-78 0 -16 -4 -17 -30 -10 -54 15 -160 100 -160 128 0 21 84 96 88 78 2 -8 12
-16 23 -19z M1987 8717 c-23 -36 -63 -135 -78 -197 -19 -77 -17 -259 4 -340
25 -93 88 -215 149 -288 198 -233 531 -314 822 -201 80 32 190 105 238 158 44
49 166 245 175 282 5 18 -2 15 -42 -16 -328 -250 -888 -114 -1190 289 -20 27
-49 75 -65 106 l-28 56 29 34 c33 41 45 89 30 119 -15 27 -25 27 -44 -2z m273
-666 c76 -51 215 -130 240 -136 25 -7 40 -20 40 -35 0 -23 -24 -29 -75 -17
-22 5 -51 11 -65 13 -91 18 -260 166 -260 228 0 22 18 14 120 -53z M3012 7628
c-73 -175 -70 -394 6 -559 16 -35 36 -73 45 -84 15 -19 15 -19 35 5 29 35 56
93 66 143 9 37 49 36 102 -2 192 -141 536 -224 746 -180 52 11 183 67 175 75
-2 2 -51 -3 -108 -12 -241 -37 -473 21 -704 174 -111 74 -250 206 -308 294
l-38 58 26 37 c14 21 25 48 25 61 0 27 -17 62 -29 62 -5 0 -23 -33 -39 -72z
M8150 4326 c0 -71 31 -106 210 -239 362 -268 637 -563 795 -852 21 -38 67
-118 102 -178 85 -141 136 -251 182 -395 69 -208 73 -247 69 -576 -4 -261 -7
-298 -25 -356 -27 -84 -43 -161 -43 -209 l0 -38 -78 -26 c-260 -86 -551 -46
-808 112 -139 86 -280 219 -361 343 l-26 38 24 44 c19 36 21 50 14 72 -16 45
-32 39 -55 -23 -51 -136 -64 -300 -34 -436 9 -40 36 -115 61 -167 38 -79 59
-108 132 -180 142 -142 304 -210 506 -210 228 0 451 109 595 290 89 112 182
331 214 505 89 482 -98 1110 -484 1630 -213 288 -504 570 -779 754 -88 59
-192 121 -204 121 -4 0 -7 -11 -7 -24z m276 -2824 c99 -70 197 -125 289 -163
138 -57 137 -83 -3 -76 -67 4 -95 11 -155 39 -83 40 -169 114 -197 169 -21 40
-26 79 -12 79 5 0 40 -22 78 -48z M7102 3083 c-130 -284 -75 -607 140 -824
200 -201 510 -264 781 -158 77 30 189 103 234 152 60 65 193 281 180 293 -3 3
-26 -11 -52 -30 -190 -146 -504 -157 -778 -28 -204 96 -381 261 -471 440 l-27
53 26 30 c31 37 41 74 29 107 -15 43 -30 35 -62 -35z m280 -612 c46 -33 132
-85 191 -116 59 -32 106 -62 104 -68 -11 -34 -129 -14 -223 37 -90 49 -189
164 -169 196 9 14 7 15 97 -49z"/>
</g>
</svg>
