<?xml version="1.0" standalone="no"?>
<!DOCTYPE svg PUBLIC "-//W3C//DTD SVG 20010904//EN"
 "http://www.w3.org/TR/2001/REC-SVG-20010904/DTD/svg10.dtd">
<svg version="1.0" xmlns="http://www.w3.org/2000/svg"
 width="2048.000000pt" height="2048.000000pt" viewBox="0 0 2048.000000 2048.000000"
 preserveAspectRatio="xMidYMid meet">
<metadata>
Created by potrace 1.13, written by Peter Selinger 2001-2015
</metadata>
<g transform="translate(0.000000,2048.000000) scale(0.192120,-0.192120)"
fill="#000000" stroke="none">
<path d="M3793 10315 c-90 -20 -195 -78 -251 -140 -126 -138 -181 -356 -136
-545 41 -179 244 -491 395 -611 l39 -31 15 36 c31 73 15 146 -51 238 -86 121
-139 204 -176 276 l-38 73 0 153 c0 151 0 152 29 199 47 73 129 118 245 132
39 5 56 12 56 22 0 27 62 -1 190 -87 203 -137 336 -173 495 -135 70 16 140 48
280 128 172 97 282 123 492 115 162 -7 241 -31 417 -129 214 -119 337 -149
479 -115 85 20 146 51 273 138 111 76 177 106 182 83 2 -8 27 -15 68 -20 87
-9 178 -56 221 -113 l33 -44 0 -169 c0 -167 0 -170 -30 -236 -17 -36 -66 -116
-109 -178 -43 -61 -88 -130 -100 -153 -25 -50 -28 -139 -6 -183 l16 -30 29 21
c42 30 155 158 224 253 72 100 160 279 180 367 45 190 -9 407 -137 547 -119
129 -371 192 -507 125 -25 -12 -79 -51 -120 -88 -104 -92 -153 -124 -222 -146
-125 -38 -209 -17 -383 98 -139 92 -229 129 -365 149 -187 29 -406 12 -550
-41 -42 -16 -127 -63 -195 -108 -174 -115 -258 -136 -383 -98 -69 22 -118 54
-222 146 -100 89 -146 110 -240 113 -41 1 -103 -4 -137 -12z M3850 8925 c-106
-33 -186 -147 -184 -265 0 -36 8 -82 17 -102 23 -55 91 -123 147 -147 l50 -21
1450 0 1450 -1 50 22 c56 24 124 92 147 147 9 20 17 66 17 102 2 120 -78 233
-188 265 -72 22 -2886 21 -2956 0z m2781 -237 c40 -12 54 -38 20 -38 -11 0
-21 -6 -23 -12 -7 -19 -2599 -19 -2605 0 -3 6 -13 12 -24 12 -31 0 -22 26 14
38 48 15 2567 16 2618 0z M3939 8283 c-15 -15 -338 -442 -718 -948 -380 -506
-725 -960 -767 -1010 -193 -230 -430 -633 -575 -980 l-37 -89 -91 -37 c-447
-182 -769 -584 -847 -1057 -26 -162 -16 -400 24 -552 64 -243 179 -452 346
-624 l57 -59 -34 -76 c-94 -206 -129 -360 -130 -571 0 -170 18 -287 68 -437
83 -249 229 -461 432 -629 69 -57 210 -152 261 -176 4 -2 41 -48 82 -103 253
-335 596 -547 963 -595 57 -7 806 -10 2412 -8 l2330 4 89 22 c421 107 769 391
1011 826 22 40 47 71 58 74 11 3 65 27 120 54 405 198 685 570 762 1017 20
111 19 333 -1 452 -31 185 -118 399 -227 558 -52 76 -213 246 -295 312 l-43
34 -15 135 c-79 713 -293 1400 -613 1975 -95 171 -261 418 -356 530 -41 50
-392 511 -779 1025 -386 514 -710 941 -718 948 -14 11 -19 9 -36 -13 -49 -62
-35 -168 36 -275 81 -120 403 -544 522 -685 70 -82 256 -323 415 -535 158
-212 318 -421 354 -465 280 -336 454 -623 634 -1045 180 -421 298 -858 372
-1373 14 -98 33 -197 42 -220 27 -70 82 -145 191 -261 168 -178 247 -306 318
-511 28 -78 28 -86 32 -339 3 -253 3 -260 -23 -350 -57 -201 -182 -406 -339
-554 -90 -85 -167 -137 -322 -216 -136 -69 -210 -137 -305 -281 -192 -289
-436 -490 -705 -581 -187 -62 1 -58 -2504 -61 -1643 -3 -2313 -1 -2384 7 -124
14 -245 49 -362 104 -183 87 -310 186 -471 369 -143 163 -177 193 -333 298
-52 35 -120 88 -151 119 -122 121 -232 298 -295 475 -28 79 -28 84 -32 340 -3
283 -3 283 69 510 12 39 24 99 26 135 4 60 1 71 -35 140 -21 41 -74 125 -117
185 -92 131 -143 230 -185 355 l-30 93 0 282 c0 259 2 289 21 351 48 156 161
343 288 476 94 99 175 159 330 243 204 112 253 169 399 462 174 350 289 530
527 828 61 77 275 358 476 624 200 266 464 617 587 780 234 310 273 369 291
439 13 48 2 106 -27 142 l-17 21 -26 -28z M5225 7257 c-114 -38 -200 -113
-249 -217 l-31 -65 -5 -224 -5 -224 -85 -23 c-132 -35 -225 -71 -351 -135
-416 -215 -649 -570 -649 -991 0 -167 42 -316 127 -446 20 -31 84 -104 142
-162 213 -212 431 -329 1166 -625 618 -249 848 -407 925 -636 49 -142 5 -307
-114 -437 -111 -119 -268 -201 -467 -243 -134 -29 -384 -31 -529 -5 -266 47
-420 114 -745 327 -82 54 -186 115 -230 136 -70 33 -89 38 -155 38 -62 0 -85
-5 -132 -28 -150 -74 -217 -266 -146 -420 127 -273 570 -529 1088 -627 63 -12
125 -23 138 -26 22 -4 22 -4 22 -217 0 -238 10 -299 61 -379 42 -65 100 -115
178 -152 60 -28 75 -31 167 -31 96 0 103 2 176 38 93 45 166 121 200 205 21
52 23 77 28 301 l5 244 85 17 c123 25 289 83 416 146 405 198 656 541 704 959
35 315 -36 543 -239 757 -214 226 -469 364 -1146 618 -555 209 -734 297 -867
430 -84 85 -120 164 -120 269 0 100 20 170 70 247 52 80 119 136 227 189 166
82 381 116 601 96 263 -24 416 -84 669 -261 236 -166 307 -191 457 -159 70 15
115 39 159 86 61 64 74 97 74 194 0 78 -3 91 -38 162 -120 243 -501 447 -1034
553 -21 4 -21 8 -25 221 l-3 218 -32 67 c-40 86 -106 151 -191 191 -58 27 -80
32 -162 34 -59 2 -110 -2 -135 -10z m222 -266 c28 -13 49 -33 67 -63 25 -42
26 -52 26 -181 0 -85 4 -137 10 -137 6 0 10 -14 10 -30 0 -26 14 -65 30 -80 3
-3 18 -25 33 -48 59 -91 136 -150 237 -180 257 -79 315 -99 400 -137 129 -58
235 -123 293 -180 43 -43 47 -51 47 -95 0 -70 -17 -83 -99 -78 -82 4 -115 20
-301 144 -316 209 -478 259 -830 258 -213 0 -329 -17 -468 -70 -190 -71 -367
-237 -459 -429 l-38 -80 -3 -149 c-2 -82 0 -158 6 -170 79 -178 127 -250 229
-347 164 -155 310 -226 993 -487 392 -150 579 -238 760 -357 134 -88 254 -208
299 -299 l32 -66 -3 -268 -3 -267 -31 -77 c-41 -101 -127 -227 -211 -309 -131
-128 -289 -216 -530 -294 -157 -52 -207 -79 -279 -158 -70 -76 -80 -90 -94
-131 -6 -20 -15 -36 -20 -36 -5 0 -10 -76 -12 -169 -3 -144 -6 -172 -20 -188
-10 -11 -18 -31 -18 -44 0 -74 -101 -121 -211 -98 -69 15 -119 61 -119 111 0
18 -7 42 -15 52 -12 16 -15 54 -15 173 0 95 -4 153 -10 153 -5 0 -10 6 -10 13
0 26 -40 90 -92 146 -92 99 -101 103 -418 187 -182 48 -356 122 -495 212 -149
95 -210 164 -221 246 -6 40 -4 46 20 61 39 26 126 16 204 -24 33 -17 132 -76
219 -131 364 -232 614 -317 965 -327 182 -6 277 3 424 42 313 82 556 299 658
589 27 74 28 86 24 215 -4 131 -5 139 -40 212 -78 166 -204 309 -374 422 -129
85 -371 205 -609 302 -605 245 -785 329 -970 453 -163 110 -282 242 -323 361
-8 22 -12 109 -12 248 0 199 2 218 22 266 43 101 93 173 177 257 127 126 276
217 476 290 50 18 113 44 140 58 65 33 166 136 191 195 10 26 22 47 27 47 4 0
7 18 7 40 0 22 5 40 10 40 6 0 10 52 10 136 0 122 2 142 23 182 17 36 32 50
72 68 63 30 152 32 212 5z"/>
</g>
</svg>
