<?xml version="1.0" standalone="no"?>
<!DOCTYPE svg PUBLIC "-//W3C//DTD SVG 20010904//EN"
 "http://www.w3.org/TR/2001/REC-SVG-20010904/DTD/svg10.dtd">
<svg version="1.0" xmlns="http://www.w3.org/2000/svg"
 width="2048.000000pt" height="2048.000000pt" viewBox="0 0 2048.000000 2048.000000"
 preserveAspectRatio="xMidYMid meet">
<metadata>
Created by potrace 1.13, written by Peter Selinger 2001-2015
</metadata>
<g transform="translate(0.000000,2048.000000) scale(0.192120,-0.192120)"
fill="#000000" stroke="none">
<path d="M2340 8661 l-1605 -6 -59 -23 c-157 -59 -250 -160 -313 -338 l-28
-79 0 -2885 0 -2885 28 -79 c63 -178 156 -279 313 -338 l59 -23 1603 -3 c1040
-1 1602 -6 1602 -12 0 -7 487 -10 1390 -10 920 0 1390 3 1390 10 0 7 530 10
1569 10 929 0 1588 4 1617 9 190 36 325 161 390 359 l29 87 0 2880 0 2880 -28
79 c-33 93 -64 148 -117 209 -72 81 -187 139 -302 151 -79 8 -5687 13 -7538 7z
m1600 -3336 c0 -2110 -3 -3175 -10 -3175 -5 0 -10 5 -10 10 0 6 -13 10 -30 10
-16 0 -30 5 -30 10 0 7 -491 10 -1452 10 -866 0 -1487 4 -1537 10 -46 5 -103
19 -126 30 -59 29 -128 91 -159 144 l-26 45 0 2913 c0 2818 1 2914 19 2943 10
17 42 55 72 86 47 48 63 58 119 72 36 9 110 18 165 21 57 3 101 9 103 15 3 8
431 11 1438 11 949 0 1434 3 1434 10 0 6 7 10 15 10 13 0 15 -359 15 -3175z
m2810 3165 c0 -5 23 -10 50 -10 28 0 50 -4 50 -10 0 -7 471 -10 1393 -10 765
-1 1448 -5 1517 -10 69 -5 146 -16 172 -25 62 -22 120 -76 158 -148 l30 -57 0
-2889 0 -2888 -30 -61 c-35 -68 -92 -125 -155 -153 -24 -10 -85 -23 -136 -29
-57 -6 -654 -10 -1521 -10 -945 0 -1428 -3 -1428 -10 0 -5 -22 -10 -50 -10
-27 0 -50 -4 -50 -10 0 -5 -7 -10 -15 -10 -13 0 -15 359 -15 3175 0 2816 2
3175 15 3175 8 0 15 -4 15 -10z m-60 -3174 c0 -2812 -1 -3094 -16 -3100 -20
-8 -2668 -8 -2688 0 -15 6 -16 288 -16 3100 l0 3094 1360 0 1360 0 0 -3094z
M2233 7240 c-34 -17 -73 -46 -88 -65 -49 -65 -55 -93 -55 -253 l0 -149 -67
-18 c-38 -9 -110 -37 -162 -61 -221 -103 -368 -258 -437 -459 -33 -97 -44
-263 -24 -354 27 -125 107 -245 226 -341 140 -112 272 -180 719 -370 204 -87
247 -108 346 -172 199 -127 267 -288 188 -446 -55 -111 -181 -201 -335 -238
-90 -23 -291 -23 -390 -1 -150 34 -242 78 -437 209 -144 97 -188 117 -249 118
-84 0 -143 -38 -179 -115 -87 -189 130 -421 513 -550 57 -19 145 -42 196 -52
l92 -17 0 -161 c0 -147 2 -164 24 -210 45 -95 126 -144 235 -145 79 0 134 24
186 82 60 66 67 93 69 276 l1 164 90 23 c397 100 650 373 683 736 16 175 -12
300 -93 420 -123 181 -298 288 -790 484 -308 123 -414 173 -502 239 -105 79
-144 163 -129 274 15 110 84 197 201 251 93 44 157 56 300 56 203 0 315 -40
506 -178 115 -84 167 -107 238 -107 96 1 184 70 196 155 14 93 -16 167 -104
253 -103 101 -271 183 -478 235 l-123 31 0 146 c0 137 -2 149 -26 198 -64 129
-211 177 -341 112z m164 -242 c20 -18 23 -31 23 -89 0 -46 4 -71 13 -76 8 -4
17 -26 20 -48 4 -22 11 -41 17 -43 5 -2 10 -8 10 -12 0 -5 14 -31 30 -57 24
-38 28 -50 18 -60 -9 -8 -68 -14 -184 -17 -204 -7 -210 -4 -164 67 16 26 32
58 36 72 3 14 10 25 15 25 5 0 9 14 9 30 0 17 4 30 9 30 5 0 11 36 13 81 3 72
6 82 28 99 33 26 78 25 107 -2z m-604 -638 c-95 -178 -87 -154 -91 -292 l-4
-128 36 -72 c19 -40 58 -104 85 -142 28 -38 51 -74 51 -81 0 -39 -161 61 -217
133 l-33 44 0 198 c0 229 3 239 90 325 42 41 98 78 108 70 1 -1 -10 -26 -25
-55z m1054 -1172 c51 -22 187 -115 227 -154 87 -87 88 -89 84 -295 -3 -172 -4
-186 -25 -216 -13 -17 -23 -44 -23 -60 0 -48 -125 -180 -172 -183 -18 0 -6 39
26 86 19 27 51 85 71 128 l37 78 -4 117 c-4 110 -6 120 -41 190 -40 81 -84
143 -171 239 -31 35 -54 67 -51 73 8 11 8 11 42 -3z m-1250 -870 c-3 -8 -6 -5
-6 6 -1 11 2 17 5 13 3 -3 4 -12 1 -19z m33 -16 c0 -15 -2 -15 -10 -2 -13 20
-13 33 0 25 6 -3 10 -14 10 -23z m17 -14 c-3 -8 -6 -5 -6 6 -1 11 2 17 5 13 3
-3 4 -12 1 -19z m668 -212 c17 -2 66 0 110 4 44 3 86 5 93 2 19 -7 14 -35 -13
-72 -14 -19 -25 -38 -25 -43 0 -4 -7 -15 -15 -23 -8 -9 -15 -24 -15 -33 0 -10
-7 -24 -15 -31 -11 -9 -15 -33 -15 -91 0 -65 -3 -80 -19 -91 -11 -8 -21 -27
-23 -43 -3 -26 -7 -30 -33 -30 -26 0 -30 4 -33 32 -2 20 -12 37 -28 47 -22 15
-24 23 -24 91 0 43 -4 75 -10 75 -5 0 -10 11 -10 25 0 14 -4 25 -10 25 -5 0
-10 4 -10 10 0 5 -16 34 -35 64 -34 54 -41 76 -29 89 6 6 71 3 159 -7z"/>
</g>
</svg>
