<?xml version="1.0" standalone="no"?>
<!DOCTYPE svg PUBLIC "-//W3C//DTD SVG 20010904//EN"
 "http://www.w3.org/TR/2001/REC-SVG-20010904/DTD/svg10.dtd">
<svg version="1.0" xmlns="http://www.w3.org/2000/svg"
 width="2048.000000pt" height="2048.000000pt" viewBox="0 0 2048.000000 2048.000000"
 preserveAspectRatio="xMidYMid meet">
<metadata>
Created by potrace 1.13, written by Peter Selinger 2001-2015
</metadata>
<g transform="translate(0.000000,2048.000000) scale(0.192120,-0.192120)"
fill="#000000" stroke="none">
<path d="M4040 10315 c-222 -37 -435 -145 -596 -301 -122 -119 -231 -293 -282
-454 -50 -155 -52 -192 -52 -841 l0 -608 -922 -3 -923 -3 -100 -28 c-406 -114
-698 -409 -808 -820 l-22 -82 0 -2935 c0 -2371 3 -2948 13 -3000 44 -218 140
-404 289 -560 167 -175 365 -284 603 -332 100 -20 8084 -19 8185 1 398 79 725
367 848 746 55 170 52 -14 52 3145 l0 2935 -22 82 c-110 411 -406 710 -810
821 l-98 27 -922 3 -923 3 0 603 c0 642 -3 684 -51 841 -118 388 -472 693
-880 760 -81 13 -263 15 -1299 14 -926 -1 -1222 -4 -1280 -14z m2633 -307
c261 -72 444 -215 545 -425 l37 -78 3 -647 2 -648 30 0 c28 0 30 -2 30 -40 0
-22 5 -40 10 -40 6 0 10 -4 10 -10 0 -6 -28 -10 -65 -10 -37 0 -65 4 -65 10 0
6 5 10 10 10 6 0 10 120 10 341 l0 340 -30 72 c-54 125 -93 194 -160 278 -86
108 -185 190 -295 245 -169 84 -88 79 -1415 79 -1327 0 -1246 5 -1415 -79
-107 -53 -201 -128 -287 -230 -80 -94 -123 -165 -164 -274 l-33 -87 -1 -342
c0 -222 4 -343 10 -343 6 0 10 -4 10 -10 0 -6 -28 -10 -65 -10 -37 0 -65 4
-65 10 0 6 5 10 10 10 6 0 10 18 10 40 0 33 3 40 20 40 20 0 20 7 20 625 0
614 0 625 21 682 58 152 197 310 349 396 100 56 237 102 341 115 43 6 571 9
1279 8 l1205 -1 98 -27z m-56 -816 c167 -63 302 -200 355 -361 20 -61 22 -90
26 -393 l4 -328 -1672 0 -1672 0 4 328 c5 369 10 401 86 518 89 135 232 231
382 257 14 3 565 4 1225 3 l1200 -1 62 -23z m-3128 -1127 c39 -57 141 -146
198 -172 40 -19 77 -25 158 -30 93 -5 105 -8 105 -25 0 -17 44 -18 1370 -18
1327 0 1370 1 1370 19 0 16 12 19 115 24 92 4 125 10 167 30 58 26 146 102
193 166 l30 41 83 0 c45 0 82 -4 82 -9 0 -17 120 -139 172 -174 38 -26 71 -39
118 -47 40 -6 352 -10 825 -10 470 0 792 -4 844 -10 240 -31 456 -154 588
-338 83 -114 95 -141 159 -342 4 -14 11 -486 14 -1050 6 -990 6 -1027 26
-1090 11 -36 39 -94 62 -129 l41 -63 -28 -57 c-124 -244 -386 -445 -689 -529
l-97 -27 -4065 0 -4065 0 -100 28 c-121 33 -296 117 -385 185 -128 97 -242
227 -301 343 l-28 57 34 57 c44 73 61 121 74 219 7 51 11 401 11 1024 0 893 1
952 19 1037 23 107 42 157 93 245 119 205 301 344 536 408 l97 26 855 6 c602
4 865 9 888 17 18 7 55 28 82 48 50 37 160 151 160 167 0 4 37 8 83 8 l82 0
24 -35z m-2739 -3815 c100 -67 209 -121 311 -156 207 -70 -119 -65 4319 -62
3804 3 4009 4 4078 21 164 40 314 105 447 194 78 52 92 43 54 -37 -25 -51 -94
-127 -160 -176 -137 -101 -293 -162 -464 -183 -123 -15 -7892 -16 -8015 -1
-153 19 -280 65 -407 146 -84 54 -173 135 -212 192 -25 36 -43 90 -35 104 6 9
8 8 84 -42z m-241 -81 c186 -280 491 -465 822 -499 141 -14 7857 -14 7998 0
333 35 636 220 824 503 29 43 53 72 55 65 1 -7 -22 -113 -53 -235 -38 -152
-55 -242 -55 -286 0 -34 -4 -67 -10 -73 -6 -6 -11 -426 -12 -1159 l-3 -1150
-27 -101 c-35 -127 -53 -171 -112 -263 -128 -199 -354 -331 -619 -361 -63 -8
-1330 -10 -4052 -8 l-3960 3 -84 23 c-232 62 -426 201 -530 380 -56 96 -68
127 -94 236 -21 90 -22 103 -27 1316 l-5 1225 -58 218 c-52 198 -65 258 -53
246 2 -2 27 -38 55 -80z M4722 6129 c-187 -20 -326 -91 -477 -243 -108 -109
-169 -203 -212 -324 -20 -60 -23 -85 -23 -228 0 -179 10 -223 74 -338 37 -65
148 -184 231 -247 75 -56 203 -116 302 -142 86 -22 99 -22 703 -22 658 0 685
2 819 51 87 33 206 105 279 171 78 69 166 200 197 295 22 65 25 91 25 231 0
133 -3 167 -21 219 -84 250 -289 465 -519 542 -41 13 -122 30 -179 35 -123 13
-1077 12 -1199 0z m1337 -271 c140 -51 251 -145 315 -267 162 -309 9 -682
-326 -792 l-73 -24 -645 0 -645 0 -73 24 c-335 110 -488 483 -326 792 80 152
241 266 408 289 34 4 338 7 676 7 l615 -2 74 -27z"/>
</g>
</svg>
