<?xml version="1.0" standalone="no"?>
<!DOCTYPE svg PUBLIC "-//W3C//DTD SVG 20010904//EN"
 "http://www.w3.org/TR/2001/REC-SVG-20010904/DTD/svg10.dtd">
<svg version="1.0" xmlns="http://www.w3.org/2000/svg"
 width="2048.000000pt" height="2048.000000pt" viewBox="0 0 2048.000000 2048.000000"
 preserveAspectRatio="xMidYMid meet">
<metadata>
Created by potrace 1.13, written by Peter Selinger 2001-2015
</metadata>
<g transform="translate(0.000000,2048.000000) scale(0.192120,-0.192120)"
fill="#000000" stroke="none">
<path d="M1255 10314 c-222 -40 -415 -137 -575 -291 -176 -167 -284 -364 -332
-603 -19 -96 -19 -8084 0 -8180 92 -457 435 -800 892 -892 100 -20 8084 -19
8185 1 390 77 716 358 842 726 61 178 57 49 59 1810 1 886 -2 1583 -6 1550
-23 -190 -125 -343 -285 -427 -101 -53 -142 -61 -323 -67 l-162 -6 -36 -105
c-78 -227 -218 -525 -351 -750 -655 -1100 -1710 -1854 -2947 -2105 -334 -68
-465 -79 -886 -79 -414 0 -549 11 -865 75 -1793 358 -3181 1769 -3509 3569
-52 285 -61 399 -61 790 0 391 9 503 61 790 213 1178 903 2234 1894 2897 587
393 1228 633 1930 724 209 27 677 37 897 20 830 -67 1618 -359 2278 -845 355
-261 689 -594 947 -942 257 -348 484 -772 612 -1144 l36 -105 162 -6 c181 -6
222 -14 323 -67 160 -84 262 -236 285 -427 4 -33 7 665 6 1550 -2 1459 -4
1616 -19 1675 -57 227 -142 383 -293 540 -131 135 -276 227 -449 284 -185 60
114 56 -4244 55 -3407 -1 -3998 -3 -4066 -15z m3235 -298 c36 -8 53 -14 38
-15 -16 0 -28 -5 -28 -9 0 -4 -21 -14 -47 -21 -27 -7 -75 -21 -108 -31 -33
-10 -107 -30 -165 -45 -335 -84 -814 -280 -1135 -464 -749 -430 -1402 -1091
-1806 -1828 -300 -545 -456 -1010 -554 -1639 -26 -170 -26 -171 -23 -675 l4
-504 37 -205 c142 -792 461 -1523 927 -2125 462 -597 1016 -1054 1665 -1375
344 -170 636 -273 1065 -374 172 -41 207 -53 193 -67 -25 -25 -335 -30 -1758
-26 -1370 3 -1475 4 -1545 21 -305 72 -527 262 -617 526 l-22 65 -1 4106 0
4105 22 64 c58 174 206 334 395 429 79 39 216 79 313 90 41 5 752 9 1580 9
1218 1 1517 -1 1570 -12z m4920 -10 c153 -36 298 -108 408 -202 57 -48 130
-148 169 -230 l38 -79 3 -1276 2 -1277 -60 19 c-33 10 -96 23 -140 28 -45 6
-90 17 -101 25 -29 20 -77 99 -125 208 -111 248 -210 431 -362 662 -405 620
-933 1130 -1557 1504 -347 208 -840 415 -1205 507 -58 15 -132 35 -165 45 -33
10 -81 24 -107 31 -27 7 -48 17 -48 21 0 4 -12 9 -27 9 -17 1 -5 7 32 14 48
10 384 13 1615 11 1455 -2 1560 -3 1630 -20z m596 -8867 c-101 -291 -362 -483
-706 -519 -125 -13 -2891 -13 -3059 0 -200 16 -189 28 79 91 207 48 339 85
508 143 803 277 1543 796 2089 1466 252 309 449 621 619 977 118 247 149 305
176 326 15 11 55 21 109 27 47 5 112 18 145 28 l59 18 3 -1244 2 -1244 -24
-69z M4715 9323 c-89 -11 -328 -58 -451 -88 -235 -58 -522 -163 -735 -270
-313 -158 -677 -402 -852 -574 -91 -88 -109 -118 -105 -177 l3 -46 111 99
c621 551 1369 891 2175 988 l57 7 6 -58 c4 -33 67 -637 141 -1344 74 -707 138
-1303 141 -1326 l6 -40 -82 -13 c-161 -24 -334 -95 -476 -193 -92 -63 -114
-86 -94 -98 38 -24 94 -10 261 68 47 22 149 61 227 87 139 47 164 62 220 128
43 52 34 190 -88 1354 -132 1255 -136 1295 -162 1355 -48 113 -151 161 -303
141z M2433 8016 c-524 -577 -853 -1239 -988 -1981 -37 -205 -44 -266 -31 -270
6 -1 610 -69 1341 -149 732 -81 1348 -150 1371 -153 l40 -5 12 75 c32 206 142
437 279 584 l39 42 -981 981 c-539 539 -982 980 -985 979 -3 0 -47 -46 -97
-103z m124 -216 c16 -6 388 -371 846 -828 732 -732 817 -820 817 -848 0 -42
-174 -402 -209 -431 -17 -15 -39 -22 -66 -22 -22 0 -553 57 -1180 127 l-1140
127 -3 103 c-2 88 2 123 29 235 96 397 287 819 527 1167 135 195 256 340 305
364 38 19 38 19 74 6z M6695 6869 c-262 -20 -499 -166 -608 -374 -54 -101 -67
-158 -66 -289 0 -142 5 -170 53 -336 38 -130 75 -290 78 -344 1 -17 5 142 8
354 6 361 7 389 28 451 54 163 186 297 358 362 l59 22 1430 3 1430 2 -63 41
c-35 22 -96 56 -135 77 l-72 37 -1200 1 c-660 1 -1245 -2 -1300 -7z M5176
6053 c-138 -29 -253 -91 -359 -191 -252 -241 -300 -634 -112 -927 260 -407
831 -463 1162 -113 312 331 259 848 -115 1115 -159 114 -380 158 -576 116z
m282 -288 c91 -22 164 -59 228 -117 91 -83 94 -95 94 -321 l0 -194 -38 -59
c-42 -64 -102 -123 -153 -150 -259 -133 -593 -43 -705 191 -34 69 -34 70 -34
219 0 134 2 155 22 195 28 59 118 148 185 184 114 61 274 82 401 52z M10325
5320 c0 -415 1 -585 2 -378 2 208 2 548 0 756 -1 207 -2 37 -2 -378z M6152
5132 c-4 -57 -50 -253 -93 -392 -22 -74 -43 -145 -46 -158 -3 -12 -9 -25 -14
-28 -5 -3 -9 -13 -9 -23 0 -55 -204 -178 -400 -240 -162 -52 -210 -111 -210
-257 0 -74 37 -423 210 -1961 66 -587 72 -615 139 -676 55 -49 98 -61 201 -54
184 13 542 93 769 172 439 151 897 408 1221 684 148 126 198 206 171 274 -6
16 -22 4 -110 -73 -511 -452 -1072 -750 -1704 -905 -146 -36 -494 -98 -507
-90 -4 2 -10 41 -14 85 -5 67 -272 2461 -292 2626 l-6 51 78 13 c197 31 404
127 567 262 26 22 47 34 47 27 0 -7 -7 -50 -16 -96 -12 -67 -13 -94 -4 -138
28 -135 191 -292 352 -340 72 -21 114 -19 176 10 30 14 59 25 65 25 5 0 324
-314 709 -697 403 -402 701 -693 706 -688 5 6 49 55 99 110 312 344 539 699
745 1163 l37 82 62 -40 c99 -64 160 -56 324 43 l60 37 -1430 2 -1430 3 -59 22
c-171 65 -296 190 -357 356 -22 59 -23 79 -29 452 -3 215 -7 375 -8 357z
m2546 -1486 c-3 -24 -24 -81 -47 -127 -86 -169 -377 -582 -462 -653 -37 -31
-63 -33 -109 -5 -46 27 -719 702 -755 756 -51 78 -99 73 681 73 l697 0 -5 -44z"/>
</g>
</svg>
