<?xml version="1.0" standalone="no"?>
<!DOCTYPE svg PUBLIC "-//W3C//DTD SVG 20010904//EN"
 "http://www.w3.org/TR/2001/REC-SVG-20010904/DTD/svg10.dtd">
<svg version="1.0" xmlns="http://www.w3.org/2000/svg"
 width="2048.000000pt" height="2048.000000pt" viewBox="0 0 2048.000000 2048.000000"
 preserveAspectRatio="xMidYMid meet">
<metadata>
Created by potrace 1.13, written by Peter Selinger 2001-2015
</metadata>
<g transform="translate(0.000000,2048.000000) scale(0.192120,-0.192120)"
fill="#000000" stroke="none">
<path d="M5198 10320 c-116 -20 -244 -72 -347 -142 -65 -45 -170 -153 -216
-223 -78 -119 -135 -292 -135 -412 l0 -48 -602 0 -603 0 -73 -24 c-203 -67
-359 -247 -379 -440 l-6 -53 34 7 c70 14 103 38 150 110 73 110 149 175 249
216 l85 33 525 7 c350 4 536 10 559 17 74 25 113 88 155 252 46 178 112 295
228 406 82 79 161 129 258 165 261 95 542 37 747 -154 124 -117 189 -229 238
-412 44 -166 79 -223 153 -251 42 -15 109 -18 582 -24 572 -7 552 -5 657 -59
66 -33 140 -108 184 -186 43 -76 80 -106 147 -120 31 -6 32 -6 32 28 0 89 -72
238 -155 322 -57 56 -145 109 -227 136 l-73 24 -603 0 -602 0 0 48 c0 73 -28
193 -64 277 -150 351 -529 562 -898 500z M5185 10031 c-89 -27 -125 -45 -191
-94 -142 -107 -216 -258 -216 -441 0 -107 30 -213 86 -299 41 -65 136 -153
203 -190 66 -35 190 -67 263 -67 72 0 197 32 263 67 29 15 84 59 123 98 114
112 166 238 166 396 0 102 -20 179 -64 259 -68 121 -167 207 -294 256 -93 36
-250 43 -339 15z m257 -295 c56 -16 115 -56 139 -93 16 -23 19 -48 19 -141 0
-155 -26 -204 -135 -254 -68 -31 -207 -32 -275 -1 -63 28 -110 70 -131 118
-23 51 -26 212 -5 253 17 32 61 74 96 93 76 39 208 51 292 25z M1852 8920
c-147 -39 -275 -141 -345 -277 -72 -139 -67 196 -67 -4004 0 -2650 3 -3813 11
-3855 37 -209 218 -395 426 -439 102 -22 6804 -22 6906 0 208 44 389 230 426
439 8 42 11 1205 11 3855 0 4189 5 3867 -65 3999 -67 129 -163 214 -302 270
l-68 27 -477 3 -478 3 0 -415 0 -414 173 -4 c150 -3 178 -6 218 -24 58 -27
116 -85 143 -143 l21 -46 0 -3260 0 -3260 -23 -46 c-29 -60 -86 -116 -142
-143 l-45 -21 -2845 0 -2845 0 -46 23 c-59 29 -112 82 -141 141 l-23 46 0
3260 0 3260 21 46 c27 58 85 116 143 143 40 18 68 21 219 24 l172 4 0 414 0
414 -452 -1 c-414 0 -459 -2 -526 -19z m728 -405 c0 -85 -3 -155 -7 -155 -41
-1 -156 -36 -206 -62 -86 -45 -212 -174 -263 -269 l-39 -74 -5 -820 c-4 -571
-9 -831 -17 -855 -7 -19 -18 -53 -27 -75 -13 -35 -15 -223 -15 -1570 0 -1412
1 -1533 17 -1570 15 -36 17 -121 22 -850 4 -543 9 -822 17 -845 81 -262 260
-440 468 -470 99 -14 5528 -13 5615 1 92 14 180 58 252 126 68 65 137 164 167
242 50 126 51 143 51 976 0 654 3 786 15 820 21 60 22 3068 1 3141 -8 27 -19
68 -25 90 -8 28 -11 298 -11 837 l0 797 -27 65 c-32 78 -134 209 -202 259 -70
52 -145 84 -228 97 l-73 12 0 153 0 154 263 0 c325 0 420 -10 504 -50 34 -17
73 -44 87 -61 l26 -31 0 -3890 0 -3890 -22 -31 c-29 -40 -54 -63 -98 -86 -92
-48 80 -46 -3500 -46 l-3355 0 -71 22 c-76 24 -152 81 -179 134 -13 24 -15
517 -15 3898 l0 3870 32 37 c93 105 165 121 576 123 l272 1 0 -155z M2830
7805 l0 -255 2500 0 2500 0 0 255 c0 282 3 269 -65 241 -18 -8 -36 -12 -39 -9
-3 3 -8 -2 -12 -11 -3 -9 -10 -13 -15 -10 -5 3 -9 -4 -9 -16 0 -12 -4 -18 -10
-15 -6 4 -10 -27 -10 -84 0 -90 0 -91 -25 -91 -22 0 -25 -4 -25 -35 l0 -35
-2300 0 -2300 0 0 35 c0 28 -4 35 -20 35 -18 0 -20 7 -20 85 0 47 -4 85 -9 85
-5 0 -12 11 -15 25 -4 14 -10 24 -14 23 -4 -1 -24 6 -46 15 -70 31 -66 44 -66
-238z M3016 6704 c-68 -21 -147 -101 -171 -173 -44 -133 17 -276 143 -338 l57
-28 1310 0 c1058 0 1317 3 1347 13 53 19 132 93 158 149 16 35 23 66 23 113 0
108 -50 193 -145 246 l-53 29 -1310 2 c-1143 2 -1316 0 -1359 -13z m2551 -259
c3 -9 2 -19 -2 -23 -9 -9 -2288 -15 -2372 -7 -43 5 -63 11 -63 20 0 7 6 16 13
18 6 3 553 6 1215 6 1075 1 1203 -1 1209 -14z M3043 5600 c-88 -21 -173 -100
-198 -184 -41 -136 12 -262 136 -331 l54 -30 2295 0 2295 0 51 27 c203 107
203 389 0 496 l-51 27 -2275 2 c-1251 0 -2289 -2 -2307 -7z m4461 -256 c33
-13 15 -31 -36 -38 -70 -8 -4207 -8 -4287 0 -62 7 -85 28 -38 37 35 7 4343 8
4361 1z M3047 4489 c-120 -28 -203 -125 -214 -249 -8 -85 18 -152 82 -216 92
-92 -141 -84 2415 -84 2556 0 2323 -8 2415 84 138 138 102 357 -73 443 l-57
28 -2265 2 c-1306 0 -2281 -3 -2303 -8z m4446 -255 c22 -4 37 -12 37 -20 0
-10 -18 -14 -67 -15 -264 -4 -4212 -3 -4267 1 -71 5 -101 25 -49 33 45 7 4304
7 4346 1z M3051 3379 c-159 -31 -258 -203 -206 -360 13 -37 33 -69 69 -104 93
-94 -152 -85 2416 -85 2568 0 2323 -9 2416 85 137 136 100 357 -74 442 l-57
28 -2260 1 c-1243 1 -2280 -2 -2304 -7z m4470 -266 c9 -9 5 -13 -17 -18 -16
-4 -39 -11 -52 -16 -31 -12 -4252 -12 -4252 0 0 6 -17 11 -37 13 -48 4 -45 21
4 29 21 4 1006 6 2190 5 1654 -1 2155 -4 2164 -13z M4935 2246 c-185 -87 -215
-339 -55 -465 26 -21 67 -43 91 -50 33 -9 359 -11 1354 -9 l1310 3 40 22 c60
31 119 101 140 163 46 137 -30 299 -163 346 -30 11 -293 13 -1352 13 l-1315 1
-50 -24z m2575 -242 c9 -9 3 -16 -21 -28 -29 -14 -144 -16 -1196 -16 -639 0
-1163 4 -1163 9 0 4 -15 13 -32 18 l-33 10 35 11 c51 15 2395 11 2410 -4z"/>
</g>
</svg>
