<?xml version="1.0" standalone="no"?>
<!DOCTYPE svg PUBLIC "-//W3C//DTD SVG 20010904//EN"
 "http://www.w3.org/TR/2001/REC-SVG-20010904/DTD/svg10.dtd">
<svg version="1.0" xmlns="http://www.w3.org/2000/svg"
 width="2048.000000pt" height="2048.000000pt" viewBox="0 0 2048.000000 2048.000000"
 preserveAspectRatio="xMidYMid meet">
<metadata>
Created by potrace 1.13, written by Peter Selinger 2001-2015
</metadata>
<g transform="translate(0.000000,2048.000000) scale(0.192120,-0.192120)"
fill="#000000" stroke="none">
<path d="M1330 10325 c-8 -2 -49 -9 -90 -15 -221 -36 -439 -156 -609 -336
-130 -137 -213 -289 -270 -493 l-26 -96 0 -3620 c0 -3915 -2 -3721 50 -4082
104 -711 345 -1140 727 -1292 150 -60 -133 -56 4098 -56 3760 0 3898 1 3980
19 309 67 542 231 731 514 241 360 383 896 406 1529 9 261 -15 404 -98 589
-112 250 -367 497 -618 598 -185 73 -214 76 -890 76 -521 0 -601 -2 -601 -15
0 -26 58 -81 98 -93 28 -8 173 -12 483 -12 639 -1 748 -13 937 -106 210 -104
369 -262 470 -465 84 -170 82 -156 82 -574 0 -204 -4 -396 -9 -426 -5 -30 -14
-88 -21 -129 -17 -109 -84 -371 -120 -475 -39 -110 -116 -276 -173 -370 -138
-231 -346 -410 -567 -487 -162 -56 127 -52 -3675 -58 l-3490 -6 -95 -22 c-141
-34 -318 -69 -380 -76 l-55 -6 57 19 c323 105 571 443 723 986 89 318 148 717
160 1089 8 224 22 336 57 446 119 373 410 650 792 753 l81 22 2318 2 2317 3 0
2798 c0 1751 -4 2829 -10 2882 -58 507 -450 909 -954 979 -54 8 -951 11 -2939
10 -1574 -1 -2869 -3 -2877 -4z m5806 -180 c266 -46 459 -166 626 -389 69 -92
118 -191 150 -301 l23 -80 2 -2747 c3 -2747 3 -2748 -17 -2748 -17 0 -20 -7
-20 -45 l0 -45 -2197 -3 c-2077 -3 -2202 -4 -2273 -21 -248 -59 -462 -176
-626 -340 -53 -53 -144 -167 -144 -180 0 -2 -20 -37 -45 -77 -25 -40 -61 -114
-80 -164 -65 -170 -82 -269 -95 -558 -40 -867 -249 -1543 -561 -1809 -100 -85
-211 -118 -407 -118 -158 0 -252 19 -371 76 -252 122 -429 424 -526 903 -65
318 -59 -71 -62 4121 -2 2674 0 3810 7 3847 25 120 159 336 272 439 137 123
335 217 513 243 33 5 1339 9 2901 10 2506 1 2852 -1 2930 -14z M1605 8636
c-95 -44 -165 -151 -165 -251 0 -93 68 -202 154 -248 l41 -22 2585 0 2585 0
45 27 c60 35 94 73 122 133 61 136 -3 301 -142 364 -45 21 -52 21 -2610 21
l-2565 0 -50 -24z m5137 -198 c38 -11 39 -13 36 -51 -2 -30 -10 -45 -31 -61
l-28 -21 -2497 0 c-2042 0 -2503 2 -2528 13 -67 29 -71 103 -7 120 58 15 5004
16 5055 0z M1640 7541 c-111 -34 -200 -152 -200 -266 0 -100 70 -207 165 -251
l50 -24 2565 0 c2558 0 2565 0 2610 21 139 63 203 228 142 364 -28 60 -62 98
-122 133 l-45 27 -2570 2 c-1413 1 -2581 -2 -2595 -6z m5100 -214 c32 -11 35
-15 35 -51 0 -31 -6 -43 -28 -60 l-28 -21 -2502 0 c-2374 0 -2504 1 -2534 18
-35 19 -52 60 -36 86 5 9 25 21 44 28 49 17 4998 17 5049 0z M1620 6423 c-68
-25 -145 -106 -166 -178 -38 -131 24 -272 145 -332 34 -17 146 -18 2609 -21
l2573 -2 49 21 c56 24 121 89 146 146 9 21 17 67 18 103 2 117 -74 228 -182
264 -41 14 -314 16 -2596 15 -2297 -1 -2555 -2 -2596 -16z m5138 -211 c22 -13
31 -63 14 -88 -27 -40 59 -39 -2527 -42 -1744 -2 -2485 1 -2522 9 -56 11 -83
36 -83 75 0 27 20 44 63 54 17 5 1157 7 2532 7 2016 -2 2504 -4 2523 -15z
M1620 5313 c-68 -25 -145 -106 -166 -178 -39 -137 26 -281 152 -336 42 -19
114 -19 2613 -19 l2570 -1 45 22 c53 24 121 94 143 147 9 21 16 65 16 102 1
109 -52 198 -147 248 l-51 27 -2565 2 c-2317 1 -2569 0 -2610 -14z m5138 -211
c16 -9 22 -22 22 -47 0 -49 -27 -72 -92 -80 -29 -3 -1163 -5 -2520 -3 l-2467
3 -28 21 c-33 25 -43 74 -18 94 9 7 33 17 53 21 20 4 1160 6 2532 5 2012 -1
2499 -3 2518 -14z"/>
</g>
</svg>
