<?xml version="1.0" standalone="no"?>
<!DOCTYPE svg PUBLIC "-//W3C//DTD SVG 20010904//EN"
 "http://www.w3.org/TR/2001/REC-SVG-20010904/DTD/svg10.dtd">
<svg version="1.0" xmlns="http://www.w3.org/2000/svg"
 width="2048.000000pt" height="2048.000000pt" viewBox="0 0 2048.000000 2048.000000"
 preserveAspectRatio="xMidYMid meet">
<metadata>
Created by potrace 1.13, written by Peter Selinger 2001-2015
</metadata>
<g transform="translate(0.000000,2048.000000) scale(0.192120,-0.192120)"
fill="#000000" stroke="none">
<path d="M2577 10154 c-149 -27 -283 -81 -422 -172 -89 -57 -1356 -1315 -1448
-1437 -76 -102 -150 -255 -183 -382 -31 -116 -43 -326 -25 -439 24 -158 88
-323 178 -463 53 -82 6474 -6505 6570 -6571 99 -69 239 -135 358 -167 92 -26
114 -28 280 -27 163 0 189 3 280 27 126 34 278 108 381 185 120 90 1378 1358
1436 1447 139 214 195 414 185 665 -7 173 -37 295 -112 445 -75 151 -126 216
-378 472 l-218 221 -515 -516 c-462 -465 -516 -522 -534 -570 -40 -105 -17
-206 63 -287 82 -81 183 -105 293 -69 44 15 100 67 561 527 282 281 516 508
519 504 4 -4 10 -67 15 -141 8 -124 12 -146 59 -284 l50 -149 0 -185 c0 -135
-4 -198 -15 -234 -24 -78 -107 -234 -170 -320 -72 -96 -1195 -1224 -1309
-1313 -85 -67 -246 -149 -341 -175 -280 -74 -598 -14 -820 153 -72 55 -1039
1008 -2307 2276 -402 402 -735 735 -741 740 -5 6 -751 750 -1657 1655 -905
905 -1675 1682 -1711 1727 -79 100 -133 194 -165 290 -23 67 -24 85 -24 302 0
221 1 233 25 296 32 86 87 184 151 270 28 39 330 347 670 686 672 668 692 686
866 753 211 82 449 89 651 20 99 -34 221 -54 336 -55 177 -2 214 52 -365 -530
-460 -463 -513 -519 -528 -563 -36 -110 -12 -211 69 -293 86 -85 196 -104 312
-53 38 17 151 123 550 522 276 276 505 500 507 497 3 -3 13 -57 22 -120 20
-145 42 -187 154 -291 104 -98 154 -123 290 -143 57 -9 106 -18 109 -20 2 -3
-88 -99 -201 -213 -127 -127 -214 -224 -228 -251 -67 -133 -10 -305 124 -373
58 -29 150 -35 217 -13 49 16 76 40 273 234 247 244 225 237 245 81 7 -52 20
-113 30 -135 26 -60 173 -218 231 -249 36 -20 79 -31 157 -41 59 -8 114 -15
121 -15 6 0 12 -5 12 -12 0 -6 -227 -239 -504 -517 -357 -358 -509 -518 -522
-546 -27 -64 -24 -168 8 -230 53 -102 138 -155 248 -155 44 0 79 7 110 21 34
15 171 146 553 527 376 374 511 502 517 491 4 -7 11 -41 14 -74 12 -106 27
-169 52 -212 31 -53 186 -197 242 -225 24 -11 89 -27 145 -35 56 -8 106 -19
112 -24 6 -6 -69 -87 -197 -217 -234 -234 -252 -261 -252 -372 1 -81 28 -143
89 -199 58 -54 107 -73 185 -74 111 -1 138 17 372 251 132 131 211 203 217
197 6 -6 15 -50 21 -100 17 -144 30 -172 132 -284 113 -126 151 -146 298 -162
58 -6 112 -15 120 -19 11 -6 -114 -137 -492 -517 -382 -382 -512 -519 -527
-553 -29 -64 -28 -159 3 -225 26 -56 87 -116 143 -141 58 -26 167 -23 223 5
31 16 203 180 546 522 275 274 506 499 512 499 7 0 12 -6 12 -12 0 -7 7 -60
15 -116 19 -135 45 -182 155 -284 107 -100 156 -124 289 -142 57 -8 106 -17
109 -20 3 -3 -92 -104 -210 -223 -193 -196 -217 -223 -233 -272 -22 -67 -16
-159 13 -217 68 -134 240 -191 373 -124 27 14 124 101 251 228 114 113 210
203 213 200 3 -2 12 -55 20 -116 18 -138 34 -171 137 -283 107 -116 148 -138
296 -155 64 -7 117 -12 119 -10 5 4 -5854 5865 -5927 5930 -154 136 -334 223
-539 261 -102 19 -288 18 -394 -1z m973 -732 c0 -34 -54 -93 -357 -394 -199
-198 -311 -302 -336 -313 -41 -17 -57 -13 -57 13 0 17 609 635 674 683 45 34
76 38 76 11z m976 -977 c13 -34 -73 -123 -126 -130 -56 -7 -30 48 54 114 43
34 64 39 72 16z m990 -980 c11 -28 -44 -90 -360 -403 -235 -234 -322 -313
-347 -320 -19 -5 -37 -7 -41 -5 -31 17 8 63 310 364 365 364 421 410 438 364z
m972 -996 c4 -30 -56 -94 -107 -115 -28 -12 -33 -11 -38 3 -10 25 17 63 72
105 56 42 69 43 73 7z m992 -979 c0 -32 -57 -95 -358 -393 -284 -281 -354
-340 -382 -322 -32 20 1 59 308 366 174 174 336 330 360 347 45 32 72 33 72 2z
m978 -982 c4 -22 -62 -94 -105 -115 -76 -36 -56 42 26 105 46 35 74 38 79 10z
m982 -990 c0 -28 -34 -65 -317 -348 -175 -174 -330 -325 -344 -334 -15 -9 -41
-18 -58 -21 -69 -8 -38 31 257 328 407 409 462 454 462 375z"/>
</g>
</svg>
