<?xml version="1.0" standalone="no"?>
<!DOCTYPE svg PUBLIC "-//W3C//DTD SVG 20010904//EN"
 "http://www.w3.org/TR/2001/REC-SVG-20010904/DTD/svg10.dtd">
<svg version="1.0" xmlns="http://www.w3.org/2000/svg"
 width="2048.000000pt" height="2048.000000pt" viewBox="0 0 2048.000000 2048.000000"
 preserveAspectRatio="xMidYMid meet">
<metadata>
Created by potrace 1.13, written by Peter Selinger 2001-2015
</metadata>
<g transform="translate(0.000000,2048.000000) scale(0.192120,-0.192120)"
fill="#000000" stroke="none">
<path d="M758 10315 c-204 -50 -365 -212 -413 -418 -13 -53 -15 -283 -15
-1619 l0 -1558 5000 0 5000 0 0 1558 c0 1713 3 1614 -62 1749 -44 91 -149 197
-239 240 -123 61 -144 63 -680 63 l-486 0 23 -47 c101 -208 58 -451 -110 -619
-112 -112 -235 -164 -389 -164 -145 0 -272 49 -378 148 -178 164 -229 425
-124 632 l25 50 -2580 0 -2580 0 25 -50 c42 -83 58 -164 52 -260 -10 -150 -68
-273 -179 -375 -105 -97 -228 -145 -373 -145 -156 0 -279 51 -391 164 -168
168 -211 411 -110 619 l23 47 -491 -1 c-381 0 -504 -4 -548 -14z m722 -298 c0
-49 42 -192 82 -278 137 -295 418 -509 669 -509 124 0 124 -1 -41 -270 -137
-223 -157 -250 -187 -250 -36 0 -88 72 -253 343 -109 179 -257 318 -379 353
-83 25 -202 16 -277 -21 -80 -38 -221 -180 -263 -264 l-31 -61 2 -893 3 -892
27 -57 c16 -31 53 -87 83 -125 30 -37 55 -76 55 -86 0 -29 -44 -37 -216 -37
l-164 0 0 1456 c0 1423 0 1457 19 1488 35 56 109 100 205 121 43 9 151 14 364
14 l302 1 0 -33z m6110 1 c1 -50 43 -195 79 -273 96 -204 252 -369 424 -450
103 -49 176 -65 292 -65 142 0 254 32 372 107 142 90 288 275 353 449 29 79
60 198 60 234 l0 30 293 0 c160 0 321 -5 356 -11 80 -12 163 -52 202 -96 l29
-34 0 -1471 0 -1471 -247 8 c-137 4 -295 6 -353 4 -58 -2 -224 -4 -370 -3
-380 1 -520 1 -830 0 -151 0 -320 1 -375 3 -55 1 -257 0 -448 -4 -354 -7 -407
-3 -407 30 0 7 23 43 51 81 84 113 103 162 107 279 4 96 2 103 -31 175 -18 42
-64 119 -100 173 -85 124 -86 140 -15 234 53 70 122 206 155 303 15 46 18 88
18 260 0 185 -2 211 -22 266 -42 116 -83 192 -152 281 -139 180 -305 286 -531
339 -63 14 -142 18 -490 21 -457 5 -496 2 -594 -50 -78 -41 -202 -166 -244
-245 -59 -110 -62 -137 -62 -521 0 -298 -2 -350 -15 -361 -8 -7 -15 -9 -15 -4
0 5 -4 3 -9 -4 -18 -29 -62 57 -269 521 -88 196 -177 382 -198 413 -52 75
-144 168 -207 208 -83 53 -145 69 -247 64 -127 -6 -210 -48 -328 -167 -108
-109 -129 -147 -319 -576 -146 -331 -220 -485 -232 -485 -3 0 -15 7 -26 16
-19 14 -20 30 -26 392 -3 207 -10 393 -16 412 -40 138 -166 290 -297 359 -110
58 -114 68 -57 134 57 65 126 192 163 297 23 68 48 173 48 206 l0 24 2265 0
2265 0 0 -32z m-3281 -856 c41 -20 64 -41 91 -82 35 -52 731 -1615 745 -1672
11 -42 -13 -120 -47 -163 -83 -100 -233 -99 -319 3 -20 24 -63 109 -105 209
l-71 168 -438 0 -438 0 -73 -173 c-40 -95 -83 -186 -96 -202 -13 -16 -47 -41
-76 -56 -45 -23 -61 -26 -108 -21 -67 7 -117 36 -152 90 -22 32 -27 52 -27
101 0 58 15 94 349 846 191 432 357 803 368 825 24 48 82 111 121 131 77 41
192 39 276 -4z m-2922 -13 c24 -11 54 -35 67 -53 22 -29 400 -641 496 -804 23
-40 46 -75 50 -77 5 -3 25 23 46 57 165 276 501 818 518 836 71 80 241 92 338
25 22 -15 48 -46 63 -76 l25 -51 0 -836 0 -837 -23 -44 c-82 -154 -301 -156
-381 -3 -20 38 -21 58 -26 562 l-5 524 -125 -197 c-233 -366 -291 -448 -335
-472 -47 -26 -128 -31 -178 -9 -52 22 -85 66 -283 376 l-189 294 -5 -524 c-6
-583 -2 -555 -74 -618 -98 -85 -263 -56 -323 57 l-23 44 0 852 0 853 33 48
c33 50 76 81 130 95 50 13 155 2 204 -22z m5143 -18 c259 -78 413 -244 456
-491 54 -314 -69 -578 -331 -708 l-55 -28 37 -44 c135 -157 298 -361 315 -395
26 -49 28 -137 5 -181 -22 -42 -77 -89 -123 -104 -48 -16 -130 -8 -181 19 -51
26 -86 66 -323 369 l-195 251 -177 0 -178 1 0 -245 c0 -224 -2 -249 -19 -284
-78 -151 -284 -162 -378 -19 l-28 42 -3 835 c-3 924 -5 885 61 949 68 65 43
63 567 59 459 -3 477 -4 550 -26z m-4765 -1619 c90 -68 153 -93 228 -94 79 0
133 20 216 79 117 85 111 85 111 -12 0 -83 17 -172 47 -242 14 -34 88 -151
103 -163 13 -11 50 -69 50 -79 0 -28 -82 -32 -542 -29 -542 3 -524 0 -464 84
84 117 108 166 147 300 5 17 9 72 9 122 0 107 -1 106 95 34z m4343 -60 c20
-20 82 -93 137 -162 55 -69 130 -158 167 -198 38 -40 68 -79 68 -87 0 -30 -71
-36 -351 -33 -343 4 -342 4 -253 114 74 92 119 204 139 344 10 71 37 78 93 22z
m-1666 -121 c24 -19 39 -39 111 -151 20 -30 44 -64 54 -75 46 -51 73 -88 73
-100 0 -31 -62 -35 -515 -35 -451 0 -515 4 -515 35 0 7 22 40 49 74 27 34 70
97 96 141 26 44 60 91 77 105 l30 25 257 0 c240 0 260 -1 283 -19z m829 -301
c34 -19 23 -40 -21 -40 -41 0 -52 14 -28 38 15 15 24 15 49 2z m-2152 -13 c14
-18 4 -27 -30 -27 -29 0 -44 13 -34 30 9 15 51 12 64 -3z M7732 8864 c-77 -20
-137 -59 -218 -139 -49 -49 -81 -93 -108 -146 l-38 -75 4 -126 c3 -122 4 -127
41 -199 21 -41 60 -103 88 -137 62 -75 61 -83 -16 -177 -30 -37 -68 -96 -85
-131 -28 -60 -30 -71 -30 -182 0 -102 3 -123 24 -169 88 -187 221 -308 381
-344 113 -25 240 28 364 153 103 103 109 104 204 9 83 -82 126 -113 194 -140
79 -31 133 -35 199 -16 97 28 153 63 243 151 47 46 91 84 98 84 8 0 56 -40
108 -89 97 -92 143 -119 244 -147 71 -20 136 -11 228 32 102 48 223 190 276
322 12 31 17 72 17 156 0 102 -3 120 -27 172 -14 33 -52 94 -85 137 -61 82
-72 123 -42 148 27 22 92 124 124 193 28 60 30 72 30 182 0 112 -1 120 -34
188 -48 103 -156 215 -249 261 -165 81 -313 51 -470 -94 -41 -38 -84 -74 -96
-80 -28 -16 -50 -3 -131 74 -114 108 -220 153 -339 141 -78 -7 -186 -56 -242
-110 -72 -69 -131 -116 -145 -116 -7 0 -50 34 -95 75 -95 88 -146 119 -225
140 -71 18 -122 18 -192 -1z m213 -228 c93 -43 165 -153 165 -251 0 -98 -72
-208 -165 -251 -69 -33 -161 -33 -230 0 -93 43 -165 153 -165 251 0 59 29 131
72 180 57 64 124 95 208 95 47 0 79 -7 115 -24z m815 9 c146 -52 222 -230 156
-371 -46 -99 -126 -155 -233 -162 -302 -21 -412 387 -141 522 61 30 150 35
218 11z m858 -11 c137 -68 194 -233 128 -369 -69 -141 -233 -195 -375 -124
-215 108 -195 422 32 506 59 22 157 16 215 -13z m-1299 -576 c60 -62 69 -84
46 -127 -22 -44 -91 -111 -113 -111 -43 0 -142 107 -142 153 0 27 108 137 135
137 13 0 43 -21 74 -52z m837 -5 c58 -63 66 -91 37 -133 -31 -46 -91 -100
-112 -100 -43 0 -148 121 -137 158 12 35 110 132 136 132 15 0 41 -19 76 -57z
m-1234 -239 c61 -20 123 -75 156 -138 35 -67 37 -168 6 -237 -82 -178 -313
-219 -451 -81 -108 108 -107 278 2 388 78 79 183 104 287 68z m863 -12 c47
-24 106 -83 130 -132 10 -19 20 -62 23 -96 9 -118 -48 -218 -155 -270 -184
-90 -396 45 -395 251 1 124 68 216 191 262 50 19 156 11 206 -15z m844 -8 c92
-50 142 -134 143 -239 1 -206 -211 -341 -395 -251 -107 52 -164 152 -155 270
6 72 26 116 77 169 62 67 117 88 212 83 49 -2 79 -10 118 -32z M4105 8528
c-32 -79 -92 -222 -133 -318 -41 -96 -76 -181 -79 -187 -4 -10 54 -13 271 -13
152 0 276 2 276 5 0 2 -18 46 -41 97 -22 51 -83 196 -135 323 -52 126 -96 231
-98 232 -2 2 -29 -61 -61 -139z M5780 8484 l0 -286 268 4 c319 6 345 11 427
91 43 42 57 64 70 111 38 132 -15 269 -125 326 -65 33 -135 40 -390 40 l-250
0 0 -286z M10295 6583 c-16 -29 -33 -53 -37 -53 -4 0 -10 -16 -14 -35 -3 -19
-10 -35 -15 -35 -5 0 -9 -1054 -9 -2514 0 -2212 -2 -2518 -15 -2549 -8 -20
-15 -56 -15 -79 -1 -24 -8 -61 -16 -83 -8 -22 -22 -64 -30 -94 -39 -141 -173
-333 -314 -448 -79 -64 -238 -145 -340 -172 -41 -11 -115 -25 -165 -31 -59 -6
-1423 -10 -4015 -10 -4289 0 -4019 -4 -4201 58 -212 71 -391 214 -516 414 -61
97 -92 181 -122 325 l-21 102 0 2535 c0 1679 -3 2537 -10 2541 -5 3 -10 15
-10 26 0 10 -4 19 -10 19 -5 0 -10 6 -10 14 0 8 -3 16 -7 18 -5 2 -21 23 -38
47 l-30 44 -3 -2609 c-2 -1920 0 -2634 9 -2704 61 -510 458 -907 969 -969 71
-9 1115 -11 4085 -9 l3990 3 96 26 c202 56 354 139 490 267 198 185 320 425
349 686 7 61 10 950 8 2706 l-3 2615 -30 -52z M6702 5879 c-155 -20 -283 -121
-331 -262 -73 -212 11 -440 192 -522 64 -29 156 -45 265 -45 l82 0 0 -1629 c0
-1773 -2 -1719 56 -1833 51 -101 110 -153 214 -188 94 -32 250 -26 332 12 114
53 194 159 223 295 22 104 22 3782 0 3866 -21 81 -49 132 -106 193 -60 63
-140 101 -241 114 -88 11 -597 11 -686 -1z m697 -277 c18 -6 44 -18 57 -27
l24 -15 0 -1923 c0 -1726 -2 -1925 -16 -1945 -25 -36 -68 -52 -139 -52 -101 0
-165 42 -165 109 0 10 -7 35 -15 54 -13 32 -15 235 -15 1622 0 1050 -3 1585
-10 1585 -5 0 -10 9 -10 20 0 11 -4 20 -9 20 -5 0 -11 10 -15 23 -7 31 -145
170 -189 190 -19 10 -79 26 -132 37 -96 20 -146 44 -165 80 -6 10 -10 50 -10
88 0 58 3 72 23 90 28 26 68 42 132 52 73 12 613 5 654 -8z M4046 5868 c-390
-34 -736 -181 -1011 -431 -211 -191 -293 -307 -318 -451 -27 -160 51 -340 187
-432 131 -89 320 -99 465 -24 25 12 104 80 177 150 252 242 412 320 659 320
311 0 518 -148 581 -416 25 -106 15 -294 -20 -399 -52 -155 -141 -282 -320
-460 -156 -155 -193 -187 -991 -840 -368 -301 -688 -564 -710 -584 -305 -271
-298 -707 15 -859 134 -65 54 -62 1475 -62 1401 0 1344 -2 1435 53 305 186
269 625 -63 761 -51 21 -62 21 -875 26 l-823 5 73 54 c168 125 804 618 935
725 561 460 782 769 859 1201 25 140 25 433 0 570 -136 749 -810 1175 -1730
1093z m534 -282 c483 -81 810 -322 929 -686 20 -59 21 -85 21 -404 0 -368 -1
-373 -59 -521 -33 -86 -128 -237 -219 -348 -124 -152 -365 -361 -887 -767
-388 -302 -503 -409 -559 -521 -20 -39 -36 -80 -36 -89 0 -34 40 -106 91 -163
56 -63 121 -102 202 -119 33 -7 299 -13 747 -17 l696 -6 49 -26 50 -25 3 -93
c3 -91 3 -93 -28 -121 -60 -56 -28 -55 -1360 -55 -1142 0 -1229 1 -1289 18
-35 9 -79 27 -98 38 -52 33 -63 63 -63 184 0 101 2 109 29 148 43 64 76 92
785 672 363 297 714 588 781 646 299 263 486 500 576 734 51 130 58 175 59
363 0 159 -2 180 -25 248 -37 109 -76 182 -146 269 -110 137 -245 228 -399
271 -91 26 -357 27 -448 2 -160 -45 -314 -132 -466 -264 -223 -195 -247 -209
-361 -209 -149 0 -195 44 -195 186 0 99 9 116 116 223 257 258 575 405 962
446 117 12 437 4 542 -14z"/>
</g>
</svg>
