<?xml version="1.0" standalone="no"?>
<!DOCTYPE svg PUBLIC "-//W3C//DTD SVG 20010904//EN"
 "http://www.w3.org/TR/2001/REC-SVG-20010904/DTD/svg10.dtd">
<svg version="1.0" xmlns="http://www.w3.org/2000/svg"
 width="2048.000000pt" height="2048.000000pt" viewBox="0 0 2048.000000 2048.000000"
 preserveAspectRatio="xMidYMid meet">
<metadata>
Created by potrace 1.13, written by Peter Selinger 2001-2015
</metadata>
<g transform="translate(0.000000,2048.000000) scale(0.192120,-0.192120)"
fill="#000000" stroke="none">
<path d="M1310 9489 c-159 -18 -361 -95 -502 -190 -98 -66 -228 -202 -297
-309 -70 -109 -112 -204 -150 -339 l-26 -96 0 -3230 0 -3230 27 -98 c52 -188
143 -350 276 -489 129 -135 278 -231 449 -288 194 -65 -80 -61 4005 -57 l3713
2 90 22 c482 113 848 465 961 923 35 143 457 3744 456 3900 -1 274 -96 506
-286 696 -189 189 -421 284 -691 286 l-111 1 -12 112 c-28 265 -135 490 -321
676 -154 155 -326 249 -559 306 -60 15 -212 17 -1477 23 -1274 5 -1415 7
-1465 22 -252 75 -371 175 -676 564 -198 253 -370 434 -501 527 -219 156 -471
241 -788 267 -147 12 -2009 11 -2115 -1z m2255 -302 c304 -56 540 -179 735
-383 41 -44 157 -181 258 -305 100 -125 225 -270 277 -322 220 -218 432 -323
699 -347 65 -6 628 -10 1371 -10 1393 0 1363 1 1535 -64 191 -71 346 -201 430
-357 24 -45 30 -69 30 -117 0 -61 0 -61 -32 -67 -18 -3 -391 -7 -828 -9 -679
-3 -809 -6 -889 -20 -295 -51 -542 -151 -765 -311 -184 -131 -313 -255 -610
-589 -296 -332 -452 -430 -723 -456 -67 -6 -586 -10 -1367 -10 -1410 0 -1372
2 -1591 -71 -206 -68 -373 -171 -539 -329 -164 -158 -245 -268 -340 -465 -50
-102 -87 -213 -110 -330 -9 -44 -50 -345 -91 -670 -41 -324 -100 -786 -131
-1025 -60 -474 -70 -530 -110 -613 -22 -48 -32 -58 -71 -73 -33 -13 -52 -15
-71 -8 l-27 9 0 3205 0 3205 37 78 c94 196 268 347 489 423 154 52 160 53
1294 50 933 -2 1060 -4 1140 -19z m5582 -2193 l61 -7 6 -44 c15 -109 54 -139
216 -168 335 -58 544 -220 644 -503 25 -71 26 -80 26 -313 l0 -239 -185 -1583
c-102 -870 -194 -1650 -205 -1733 -34 -268 -64 -353 -186 -535 -162 -242 -396
-397 -692 -456 -69 -14 -460 -17 -3722 -20 -2584 -3 -3676 -1 -3751 6 -137 14
-233 41 -344 97 -112 55 -217 140 -415 336 -116 114 -164 168 -188 214 -17 34
-32 64 -32 66 0 3 19 -12 41 -33 95 -88 253 -104 382 -41 79 39 148 112 175
185 14 37 62 381 167 1207 80 635 155 1191 166 1234 59 233 179 431 368 608
167 157 354 256 596 315 64 15 201 17 1485 23 l1415 6 75 22 c41 13 111 41
154 63 166 83 278 182 533 472 197 224 333 363 438 448 282 228 593 347 970
372 95 6 1742 7 1802 1z"/>
</g>
</svg>
