<?xml version="1.0" standalone="no"?>
<!DOCTYPE svg PUBLIC "-//W3C//DTD SVG 20010904//EN"
 "http://www.w3.org/TR/2001/REC-SVG-20010904/DTD/svg10.dtd">
<svg version="1.0" xmlns="http://www.w3.org/2000/svg"
 width="2048.000000pt" height="2048.000000pt" viewBox="0 0 2048.000000 2048.000000"
 preserveAspectRatio="xMidYMid meet">
<metadata>
Created by potrace 1.13, written by Peter Selinger 2001-2015
</metadata>
<g transform="translate(0.000000,2048.000000) scale(0.192120,-0.192120)"
fill="#000000" stroke="none">
<path d="M2448 9759 c-629 -55 -1239 -428 -1601 -979 -257 -392 -387 -893
-336 -1300 24 -200 63 -329 148 -505 117 -239 -48 -67 2755 -2874 1414 -1415
2623 -2620 2686 -2678 236 -214 492 -358 795 -445 682 -196 1494 -44 2134 400
834 579 1279 1652 1085 2620 -63 316 -205 620 -402 862 -33 41 -1106 1120
-2384 2397 -2281 2280 -2324 2322 -2377 2337 -68 20 -104 20 -168 1 -65 -19
-139 -85 -169 -150 -31 -65 -32 -161 -3 -225 16 -35 514 -540 2342 -2370 1778
-1780 2336 -2344 2380 -2407 180 -255 268 -550 268 -898 0 -190 -16 -323 -61
-501 -77 -306 -233 -613 -433 -850 -570 -679 -1574 -937 -2296 -592 -215 104
-37 -68 -2894 2787 -1446 1444 -2649 2653 -2674 2686 -198 261 -241 635 -117
1020 38 119 145 327 221 434 411 574 1144 833 1681 595 145 -64 115 -35 2305
-2223 1210 -1209 2123 -2129 2144 -2160 122 -183 87 -444 -95 -713 -230 -339
-622 -566 -894 -520 -152 26 -26 -91 -1803 1683 -1145 1143 -1633 1624 -1665
1640 -35 18 -61 24 -120 24 -66 0 -82 -4 -130 -31 -132 -75 -180 -222 -119
-364 28 -65 3227 -3261 3341 -3339 95 -64 176 -102 293 -137 83 -25 104 -28
265 -28 160 -1 184 1 280 26 188 49 327 111 485 215 333 220 576 519 708 873
101 272 104 579 8 811 -75 180 32 69 -2295 2395 -1725 1725 -2178 2173 -2245
2219 -301 209 -656 299 -1043 264z m397 -265 c233 -33 447 -128 640 -285 39
-32 1015 -1004 2170 -2161 1984 -1985 2103 -2107 2145 -2183 l45 -80 3 -275
c2 -173 -1 -291 -8 -318 -42 -168 -220 -454 -377 -603 -102 -98 -273 -216
-396 -275 -84 -39 -243 -87 -351 -104 -70 -12 -302 -9 -352 3 -12 3 -37 8 -57
11 -54 9 -141 50 -236 113 -74 48 -306 277 -1627 1597 -872 873 -1548 1557
-1559 1577 -10 20 -15 44 -12 53 8 21 58 21 105 -1 24 -10 583 -561 1602
-1578 1651 -1647 1633 -1631 1777 -1685 164 -62 308 -55 503 23 178 73 331
179 484 337 161 167 302 398 360 591 23 75 26 102 26 237 0 138 -2 158 -25
218 -33 88 -71 149 -161 259 -106 131 -4183 4201 -4265 4259 -56 38 -254 156
-262 155 -1 0 -14 4 -30 10 -41 16 -175 48 -232 56 -138 19 -345 5 -507 -36
-260 -65 -583 -247 -799 -451 -69 -64 -186 -198 -256 -293 -136 -185 -259
-454 -308 -676 -14 -64 -16 -121 -13 -340 3 -258 4 -266 31 -344 42 -122 130
-290 204 -390 49 -67 724 -748 2637 -2663 1414 -1416 2612 -2608 2661 -2650
178 -150 338 -240 558 -314 515 -172 1148 -85 1679 231 568 338 967 908 1118
1596 18 79 20 127 20 415 0 283 -3 336 -20 412 -58 264 -176 506 -353 728 -33
41 -1069 1085 -2302 2320 -1348 1350 -2248 2259 -2257 2279 -9 19 -14 40 -11
48 9 24 76 15 129 -18 59 -37 4477 -4453 4581 -4579 164 -199 263 -386 327
-620 l26 -95 0 -468 c0 -464 0 -468 -25 -571 -94 -391 -312 -795 -584 -1081
-190 -199 -436 -377 -696 -501 -96 -46 -228 -98 -275 -109 -8 -2 -16 -4 -17
-5 -2 -2 -7 -4 -13 -5 -5 -1 -12 -4 -15 -5 -3 -1 -9 -4 -15 -5 -5 -1 -12 -4
-15 -5 -3 -1 -8 -3 -12 -4 -5 -1 -66 -16 -138 -34 -189 -46 -308 -62 -510 -69
-208 -6 -395 11 -565 53 -58 14 -114 27 -124 29 -11 3 -42 12 -70 22 -28 9
-54 16 -57 16 -11 -3 -245 114 -305 152 -192 122 -207 137 -2777 2704 -1391
1389 -2571 2572 -2623 2629 -158 174 -252 336 -299 516 -24 95 -25 107 -25
425 0 314 1 329 24 417 52 193 103 315 200 473 194 318 456 556 807 730 220
109 427 170 639 187 41 4 77 8 80 11 9 9 265 -1 355 -13z"/>
</g>
</svg>
