<?xml version="1.0" standalone="no"?>
<!DOCTYPE svg PUBLIC "-//W3C//DTD SVG 20010904//EN"
 "http://www.w3.org/TR/2001/REC-SVG-20010904/DTD/svg10.dtd">
<svg version="1.0" xmlns="http://www.w3.org/2000/svg"
 width="2048.000000pt" height="2048.000000pt" viewBox="0 0 2048.000000 2048.000000"
 preserveAspectRatio="xMidYMid meet">
<metadata>
Created by potrace 1.13, written by Peter Selinger 2001-2015
</metadata>
<g transform="translate(0.000000,2048.000000) scale(0.192120,-0.192120)"
fill="#000000" stroke="none">
<path d="M2913 10315 c-463 -84 -819 -444 -904 -915 -12 -62 -14 -644 -14
-3462 l0 -3387 -375 -4 c-371 -3 -376 -4 -469 -30 -358 -103 -634 -360 -757
-703 -231 -647 173 -1343 855 -1469 74 -13 462 -15 3506 -15 2382 0 3447 3
3501 11 500 69 892 466 953 964 8 64 11 1062 11 3448 l0 3357 39 0 c195 0 450
89 621 217 531 398 602 1166 152 1644 -164 175 -338 275 -582 337 -60 15 -335
16 -3265 18 -2598 2 -3213 0 -3272 -11z m635 -80 c119 -48 219 -114 317 -207
187 -177 297 -382 340 -632 78 -460 -158 -936 -579 -1162 -33 -19 -59 -34 -56
-34 28 -1 212 59 275 90 110 53 154 89 230 183 78 97 142 218 184 344 49 149
53 188 49 438 -4 216 -6 235 -32 319 -33 109 -117 284 -189 392 -96 145 -97
144 114 144 152 0 159 1 159 20 0 20 7 20 2399 20 1319 0 2413 -3 2430 -6 17
-4 31 -12 31 -20 0 -8 18 -15 48 -19 254 -31 375 -74 529 -187 122 -89 233
-228 285 -356 22 -55 23 -68 23 -342 l0 -285 -33 -75 c-86 -195 -236 -353
-427 -448 -73 -37 -111 -50 -277 -96 -94 -27 -125 -63 -143 -168 l-6 -38
-3103 0 c-3377 0 -3175 -3 -3346 55 -41 14 -105 41 -143 60 -38 19 -70 35 -73
35 -2 0 -4 -160 -4 -355 l0 -355 3318 -2 3319 -3 -49 -75 c-27 -41 -52 -87
-55 -102 -3 -16 -9 -28 -14 -28 -5 0 -9 -350 -9 -800 0 -704 -2 -800 -15 -800
-13 0 -15 -252 -15 -2206 l0 -2205 -25 -100 c-35 -137 -58 -191 -121 -285
-157 -234 -380 -368 -674 -404 -122 -15 -5785 -14 -5829 1 -45 16 -40 41 29
140 78 113 140 239 184 369 65 194 66 216 66 1037 0 662 2 745 17 808 16 64
17 190 20 1456 l4 1386 -31 6 -30 7 0 794 c0 519 -3 797 -10 801 -5 3 -10 17
-10 29 0 13 -12 45 -27 72 l-28 49 -6 -30 c-4 -16 -7 -1407 -8 -3090 -1 -2957
-2 -3063 -20 -3150 -80 -383 -338 -688 -688 -815 l-63 -23 -59 26 c-64 28
-151 42 -311 52 -243 16 -449 104 -629 271 -120 111 -231 287 -275 434 -23 77
-23 478 0 547 68 206 219 408 389 523 187 126 344 174 640 195 56 4 118 16
164 32 85 29 105 26 223 -33 37 -19 70 -34 73 -34 3 0 5 33 5 74 0 72 1 74 28
81 32 8 62 33 62 52 0 7 5 13 10 13 6 0 10 16 10 35 0 19 4 35 10 35 6 0 11
1136 12 3333 l3 3332 23 85 c49 181 183 400 312 509 78 66 213 147 303 182
108 41 185 57 347 69 145 11 260 32 300 55 34 19 34 19 128 -20z m-661 -2342
c66 -12 134 -16 273 -15 102 0 1448 4 2993 7 l2807 6 0 -66 0 -65 -3095 0
-3095 0 0 81 c0 68 2 80 15 75 8 -3 54 -13 102 -23z M2955 9752 c-94 -28 -164
-71 -240 -147 -220 -221 -219 -554 4 -775 115 -114 230 -163 386 -163 157 0
284 52 395 163 243 243 204 652 -81 845 -102 69 -160 87 -294 91 -84 3 -124
-1 -170 -14z m246 -256 c76 -17 143 -58 179 -108 29 -40 30 -44 30 -161 0
-104 -3 -126 -22 -165 -32 -62 -90 -109 -166 -132 -125 -39 -260 -15 -346 61
-73 65 -86 98 -86 229 0 131 8 152 80 209 90 71 212 96 331 67z M3310 6431
c-241 -74 -271 -404 -48 -515 l52 -26 2570 0 c2466 0 2573 1 2611 19 97 44
154 124 163 226 9 119 -40 215 -139 270 l-54 30 -2565 2 c-1411 1 -2576 -2
-2590 -6z m5025 -239 c31 -6 41 -12 43 -29 3 -18 -4 -24 -35 -32 -53 -15
-4873 -15 -4926 0 -31 8 -38 14 -35 32 2 16 12 24 38 28 49 9 4866 9 4915 1z
M3310 5321 c-114 -35 -199 -147 -200 -262 0 -114 56 -206 158 -256 l57 -28
2560 0 2560 0 52 24 c101 45 162 140 163 251 0 108 -56 201 -154 253 l-41 22
-2565 2 c-1411 1 -2576 -2 -2590 -6z m5035 -240 c44 -9 47 -45 4 -60 -45 -16
-4892 -16 -4938 0 -42 15 -42 45 2 58 36 10 4883 13 4932 2z M3299 4204 c-64
-19 -141 -90 -169 -156 -18 -43 -22 -65 -18 -124 7 -111 61 -189 163 -236 l50
-23 2565 0 2565 0 50 27 c102 54 154 138 155 248 0 83 -30 149 -93 207 -86 80
153 73 -2686 72 -2168 0 -2543 -2 -2582 -15z m5069 -238 c33 -12 28 -42 -9
-55 -36 -12 -4905 -14 -4949 -2 -15 4 -26 15 -28 29 -3 22 3 25 68 35 50 8
4896 1 4918 -7z M3308 3096 c-49 -13 -63 -21 -116 -70 -59 -54 -77 -100 -77
-196 0 -100 19 -144 85 -204 87 -78 -185 -71 2685 -71 2872 0 2598 -7 2685 72
123 110 121 300 -5 411 -89 78 146 72 -2679 71 -2006 0 -2541 -3 -2578 -13z
m5055 -240 c34 -10 35 -39 2 -54 -37 -17 -4933 -17 -4970 0 -26 12 -33 32 -14
44 7 4 37 10 68 14 77 10 4879 6 4914 -4z M1353 1990 c-215 -38 -394 -200
-448 -405 -19 -75 -19 -213 0 -285 50 -190 205 -345 395 -395 72 -19 210 -19
285 0 237 62 405 280 408 530 3 295 -220 537 -513 558 -41 3 -98 2 -127 -3z
m208 -280 c69 -22 132 -64 161 -108 27 -41 26 -267 -1 -320 -82 -159 -345
-198 -505 -76 -27 21 -57 55 -71 84 -22 43 -25 62 -25 155 0 115 8 142 57 186
100 92 248 122 384 79z"/>
</g>
</svg>
