<?xml version="1.0" standalone="no"?>
<!DOCTYPE svg PUBLIC "-//W3C//DTD SVG 20010904//EN"
 "http://www.w3.org/TR/2001/REC-SVG-20010904/DTD/svg10.dtd">
<svg version="1.0" xmlns="http://www.w3.org/2000/svg"
 width="2048.000000pt" height="2048.000000pt" viewBox="0 0 2048.000000 2048.000000"
 preserveAspectRatio="xMidYMid meet">
<metadata>
Created by potrace 1.13, written by Peter Selinger 2001-2015
</metadata>
<g transform="translate(0.000000,2048.000000) scale(0.192120,-0.192120)"
fill="#000000" stroke="none">
<path d="M2435 10323 c-27 -2 -113 -13 -190 -24 -758 -112 -1392 -562 -1579
-1121 -60 -177 -56 100 -56 -4048 0 -4120 -3 -3848 51 -4028 122 -397 489
-703 914 -762 57 -8 981 -10 3250 -8 2919 4 3175 5 3236 21 229 57 396 149
551 303 140 139 243 316 296 509 l27 100 0 3230 0 3230 -27 97 c-112 406 -404
699 -808 809 -81 22 -104 23 -475 26 -214 2 -1591 4 -3060 6 l-2670 2 -58 23
c-162 65 -241 192 -241 387 0 154 50 276 157 385 169 173 417 266 797 300 76
6 1113 10 3038 10 2917 0 2924 0 3025 -21 426 -86 755 -413 860 -853 l22 -91
0 -3332 0 -3332 25 16 c249 157 423 398 504 698 l21 80 0 3055 c0 2898 -1
3059 -18 3140 -98 465 -342 803 -737 1023 -146 81 -362 146 -552 167 -66 7
-1087 9 -3175 8 -1693 -1 -3100 -3 -3128 -5z m6430 -342 c3 -5 1 -12 -5 -16
-5 -3 -10 1 -10 9 0 18 6 21 15 7z m145 -22 c312 -98 571 -331 688 -618 20
-49 22 -70 21 -245 l0 -191 -40 116 c-78 233 -198 431 -365 608 -93 99 -226
201 -393 301 -51 30 -56 60 -8 54 17 -3 61 -14 97 -25z m-7100 -67 c0 -9 -3
-13 -6 -9 -6 5 -11 2 -47 -28 -7 -6 -28 -21 -47 -35 -125 -86 -288 -265 -357
-391 -73 -133 -83 -178 -83 -358 0 -153 1 -162 29 -231 41 -101 86 -171 163
-255 127 -138 243 -192 429 -202 l109 -6 0 -3843 c0 -3837 0 -3844 -20 -3844
-17 0 -20 -7 -20 -41 l0 -41 -247 5 c-217 3 -258 7 -328 26 -276 77 -483 258
-578 508 l-22 58 -3 3918 -2 3917 21 63 c94 281 384 555 767 727 98 44 195 76
230 77 6 0 12 -7 12 -15z m429 -1389 c25 -14 49 -30 52 -35 3 -5 31 -12 62
-15 38 -4 57 -10 57 -19 0 -12 450 -14 2738 -17 2568 -2 2741 -3 2801 -20 153
-42 291 -114 391 -205 33 -29 62 -62 66 -74 3 -12 22 -43 40 -68 19 -26 53
-88 77 -136 l42 -89 3 -3305 c2 -3275 2 -3306 -18 -3364 -46 -138 -256 -398
-282 -351 -12 20 -3 62 34 155 16 41 40 115 54 165 l24 90 0 3055 0 3055 -25
98 c-63 254 -221 489 -411 612 -108 70 -222 114 -419 162 -65 16 -253 18
-2592 20 -1706 2 -2523 0 -2523 -7 0 -5 -18 -10 -40 -10 -22 0 -40 -4 -40 -10
0 -5 -5 -10 -12 -10 -15 0 -78 -49 -78 -60 0 -6 1002 -11 2603 -13 l2602 -3
86 -21 c327 -81 548 -263 672 -551 38 -89 64 -199 76 -321 15 -145 15 -5755 0
-5888 -33 -299 -190 -580 -422 -756 -40 -31 -93 -67 -120 -81 l-47 -25 -43 19
c-24 11 -70 27 -103 37 -56 17 -201 18 -2616 21 -1741 2 -2558 -1 -2558 -8 0
-5 -7 -10 -15 -10 -17 0 -61 -23 -123 -64 -23 -16 -46 -26 -50 -22 -9 9 -15
7875 -7 8004 4 50 9 92 13 92 3 0 26 -12 51 -27z M1971 9280 c-30 -5 -77 -19
-104 -32 l-50 -23 3219 -5 3219 -5 75 -23 c278 -86 484 -285 571 -552 29 -87
32 -111 38 -277 4 -101 10 -185 13 -188 3 -3 17 4 31 16 l27 20 0 199 c0 187
-1 202 -26 276 -46 138 -97 224 -196 329 -97 104 -220 180 -363 224 -174 54 9
51 -3319 50 -1694 -1 -3105 -5 -3135 -9z M9440 2092 c-39 -19 -70 -47 -70 -62
0 -5 -4 -10 -10 -10 -5 0 -10 -22 -10 -49 0 -181 -120 -495 -305 -797 -35 -57
-60 -104 -55 -104 15 0 103 71 173 139 191 185 301 416 326 682 9 94 4 219 -8
219 -3 0 -22 -8 -41 -18z"/>
</g>
</svg>
