<?xml version="1.0" standalone="no"?>
<!DOCTYPE svg PUBLIC "-//W3C//DTD SVG 20010904//EN"
 "http://www.w3.org/TR/2001/REC-SVG-20010904/DTD/svg10.dtd">
<svg version="1.0" xmlns="http://www.w3.org/2000/svg"
 width="2048.000000pt" height="2048.000000pt" viewBox="0 0 2048.000000 2048.000000"
 preserveAspectRatio="xMidYMid meet">
<metadata>
Created by potrace 1.13, written by Peter Selinger 2001-2015
</metadata>
<g transform="translate(0.000000,2048.000000) scale(0.192120,-0.192120)"
fill="#000000" stroke="none">
<path d="M1247 8924 c-399 -72 -737 -366 -862 -751 -58 -176 -55 -35 -55
-2838 0 -1657 4 -2605 10 -2650 25 -177 91 -345 189 -488 61 -88 184 -212 272
-274 91 -65 251 -139 366 -171 l98 -27 4065 0 4065 0 98 27 c422 117 734 449
818 873 21 105 21 5305 0 5410 -71 355 -298 646 -626 801 -52 25 -138 57 -192
72 l-98 27 -4035 2 c-3449 1 -4046 -1 -4113 -13z m-307 -455 c0 -7 -24 -42
-53 -78 -68 -83 -129 -174 -167 -248 l-30 -57 0 77 c0 71 3 83 31 123 41 59
93 114 152 158 51 38 67 44 67 25z m8884 -60 c27 -24 69 -70 93 -103 41 -56
43 -61 43 -130 0 -62 -2 -68 -13 -49 -27 51 -121 193 -172 262 -30 41 -55 78
-55 83 0 14 52 -17 104 -63z m-454 -42 c192 -65 338 -214 385 -392 13 -52 15
-271 15 -1815 0 -1939 5 -1792 -63 -1925 -36 -73 -150 -189 -224 -228 -28 -15
-86 -36 -129 -47 -76 -20 -124 -20 -4024 -20 -3904 0 -3948 0 -4024 20 -190
48 -343 197 -400 389 -14 49 -16 224 -16 1811 0 1931 -4 1809 61 1930 82 155
243 267 414 290 33 4 1835 7 4005 6 3806 -1 3947 -2 4000 -19z m-8728 -3952
c8 -22 25 -71 38 -110 57 -171 141 -306 270 -428 110 -105 224 -166 370 -199
l95 -22 2875 -2 c1581 -1 3357 2 3945 6 1048 7 1072 7 1148 28 267 73 496 313
598 627 51 159 49 202 46 -800 -2 -1047 2 -983 -79 -1119 -53 -88 -124 -165
-203 -222 -77 -54 -224 -115 -285 -117 -25 -1 -48 -6 -51 -11 -4 -4 -15 -4
-25 2 -17 10 -15 13 21 27 22 8 48 20 59 26 10 6 35 20 55 31 152 86 269 214
346 381 61 132 65 150 65 313 0 165 -7 196 -71 331 -120 252 -392 432 -655
433 -230 0 -490 -172 -623 -414 -65 -119 -71 -147 -71 -347 0 -191 3 -209 62
-329 66 -133 167 -251 280 -327 86 -56 269 -123 341 -123 61 0 61 -16 0 -23
-190 -25 -318 -28 -878 -24 -570 4 -679 9 -677 32 0 5 43 25 94 45 252 94 402
249 503 516 23 61 25 79 25 236 0 163 -1 171 -30 246 -106 274 -325 461 -615
524 -47 10 -295 13 -1175 13 -1233 0 -1183 2 -1337 -66 -24 -11 -46 -19 -51
-19 -24 0 -148 -94 -223 -169 -90 -90 -137 -160 -185 -276 -27 -66 -29 -80
-32 -239 -4 -187 1 -212 75 -360 102 -204 248 -331 473 -410 41 -15 82 -29 90
-32 30 -11 -14 -23 -126 -34 -128 -14 -1275 -8 -1339 6 -22 5 -40 13 -40 18 0
5 41 24 90 42 108 40 124 48 195 95 100 66 201 181 263 299 10 19 32 71 48
115 30 80 30 80 27 265 l-3 185 -57 115 c-101 207 -267 354 -481 424 -123 41
-122 41 -1232 41 -588 0 -1104 -4 -1145 -9 -84 -9 -224 -48 -285 -79 -200
-100 -370 -297 -429 -496 -25 -86 -22 -333 5 -413 74 -220 224 -399 428 -510
43 -24 42 -50 -3 -44 -209 26 -468 255 -516 458 -7 29 -19 67 -27 85 -10 26
-13 205 -13 950 0 504 4 913 8 908 5 -6 15 -28 24 -50z m3167 -1047 c103 -32
164 -69 241 -147 42 -42 88 -99 103 -128 35 -66 67 -191 67 -263 0 -72 -32
-197 -67 -263 -41 -78 -165 -196 -243 -234 -128 -61 -67 -58 -1365 -58 -1127
0 -1193 1 -1250 18 -190 59 -337 205 -390 390 -24 82 -22 224 4 307 66 208
245 361 456 390 33 4 584 7 1225 6 1052 -2 1170 -3 1219 -18z m3890 0 c99 -31
164 -71 242 -148 109 -108 169 -246 169 -390 0 -248 -185 -481 -430 -541 -45
-11 -273 -14 -1245 -14 l-1190 0 -70 22 c-244 78 -397 283 -397 533 0 112 22
193 77 285 85 142 232 240 395 265 30 4 582 7 1225 6 1057 -2 1175 -3 1224
-18z m1686 -9 c175 -53 323 -207 370 -385 9 -32 16 -97 16 -144 0 -150 -48
-271 -150 -380 -105 -113 -239 -171 -396 -172 -160 -2 -287 51 -400 166 -112
114 -158 227 -158 386 0 159 46 272 158 386 150 153 356 206 560 143z m-8151
-1300 c-10 -16 -24 -9 -24 12 0 18 2 19 15 9 8 -7 12 -16 9 -21z m31 2 c3 -5
1 -12 -5 -16 -5 -3 -10 1 -10 9 0 18 6 21 15 7z m8085 -16 c0 -9 -6 -12 -15
-9 -8 4 -12 10 -9 15 8 14 24 10 24 -6z M5325 6781 c-16 -10 -37 -27 -46 -37
-31 -37 -419 -752 -419 -772 0 -35 22 -73 51 -88 22 -11 77 -14 249 -14 l220
0 0 -106 c0 -103 1 -106 29 -135 26 -25 37 -29 86 -29 49 0 60 4 86 29 28 29
29 32 29 135 l0 106 40 0 c30 0 48 7 72 29 28 25 33 36 33 76 0 40 -5 51 -33
76 -24 22 -42 29 -72 29 l-40 0 0 285 c0 235 -3 292 -15 323 -19 43 -50 79
-87 98 -40 21 -146 18 -183 -5z m55 -466 l0 -235 -115 0 c-63 0 -115 2 -115 4
0 2 34 75 76 162 42 88 91 192 110 232 18 39 35 72 38 72 3 0 6 -106 6 -235z
M6273 6782 c-152 -54 -249 -195 -288 -417 -63 -361 81 -702 319 -756 83 -18
200 -8 267 24 113 54 208 192 245 357 26 112 23 340 -5 443 -43 161 -132 286
-241 336 -74 34 -219 41 -297 13z m205 -222 c39 -24 77 -99 93 -186 16 -84 6
-344 -16 -413 -24 -77 -78 -132 -135 -138 -65 -6 -108 20 -143 88 -36 72 -47
137 -47 287 0 205 30 312 100 360 42 28 103 29 148 2z M3135 6761 c-16 -10
-37 -27 -46 -37 -32 -37 -419 -751 -419 -772 0 -35 22 -73 51 -88 22 -11 77
-14 250 -14 l221 0 -2 -72 c-4 -125 -2 -137 29 -169 25 -25 37 -29 85 -29 44
0 61 5 83 24 27 23 28 28 31 135 l4 111 37 0 c44 0 75 20 97 62 35 67 -18 148
-97 148 l-39 0 0 285 c0 235 -3 292 -15 323 -19 43 -50 79 -87 98 -40 21 -146
18 -183 -5z m51 -688 c-4 -10 -36 -13 -116 -13 -60 0 -110 2 -110 4 0 5 86
188 166 351 l59 120 3 -225 c1 -123 0 -230 -2 -237z M4068 6757 c-31 -13 -75
-38 -97 -56 -124 -99 -200 -327 -188 -566 14 -260 107 -444 264 -522 53 -26
67 -28 168 -28 100 0 115 3 166 28 168 82 264 292 263 572 -1 159 -20 251 -74
362 -48 97 -107 160 -187 200 -50 24 -72 28 -158 31 -87 2 -107 0 -157 -21z
m218 -216 c74 -45 109 -186 101 -405 -6 -168 -22 -231 -76 -288 -30 -33 -45
-41 -83 -45 -64 -7 -109 21 -142 90 -36 73 -47 142 -47 294 0 200 32 310 105
354 40 24 102 24 142 0z M7513 6760 c-18 -10 -43 -36 -57 -57 -49 -77 -395
-711 -402 -737 -3 -14 -1 -40 6 -57 23 -54 46 -59 290 -59 l220 0 0 -106 c0
-103 1 -106 29 -135 26 -25 37 -29 86 -29 49 0 60 4 86 29 28 29 29 32 29 135
l0 106 40 0 c30 0 48 7 72 29 28 25 33 36 33 75 0 59 -35 97 -97 105 l-43 6
-5 300 c-3 201 -9 307 -17 320 -14 26 -62 69 -90 84 -37 19 -143 14 -180 -9z
m57 -465 l0 -235 -115 0 c-63 0 -115 2 -115 4 0 2 39 84 86 182 47 99 97 203
109 232 13 28 26 52 29 52 4 0 6 -106 6 -235z"/>
</g>
</svg>
