<?xml version="1.0" standalone="no"?>
<!DOCTYPE svg PUBLIC "-//W3C//DTD SVG 20010904//EN"
 "http://www.w3.org/TR/2001/REC-SVG-20010904/DTD/svg10.dtd">
<svg version="1.0" xmlns="http://www.w3.org/2000/svg"
 width="2048.000000pt" height="2048.000000pt" viewBox="0 0 2048.000000 2048.000000"
 preserveAspectRatio="xMidYMid meet">
<metadata>
Created by potrace 1.13, written by Peter Selinger 2001-2015
</metadata>
<g transform="translate(0.000000,2048.000000) scale(0.192120,-0.192120)"
fill="#000000" stroke="none">
<path d="M1300 10034 c-337 -89 -574 -484 -667 -1109 -25 -171 -25 -629 0
-800 69 -462 218 -803 429 -983 35 -29 90 -66 123 -83 117 -57 131 -59 590
-58 384 1 415 2 361 15 -269 65 -490 352 -605 785 -174 655 -88 1477 200 1919
56 86 181 208 247 244 l53 28 47 -41 c65 -57 136 -89 223 -101 46 -6 1321 -10
3334 -11 1793 -1 3274 -4 3290 -8 21 -4 31 -13 33 -29 2 -12 8 -22 13 -22 17
0 9 -51 -16 -103 -34 -71 -102 -140 -165 -169 -33 -15 188 -8 241 8 104 31
189 148 189 259 0 98 -72 208 -165 251 l-50 24 -3825 -1 c-3309 0 -3832 -2
-3880 -15z m193 -287 c5 -14 -12 -66 -83 -252 -51 -133 -103 -334 -125 -483
-14 -92 -16 -182 -13 -534 4 -415 4 -425 31 -549 38 -176 78 -308 143 -464 34
-82 54 -145 52 -162 -3 -28 -4 -28 -73 -27 -170 3 -290 98 -400 319 -61 122
-103 259 -135 438 -20 110 -21 146 -17 535 3 387 5 424 26 517 66 296 175 506
311 600 85 59 269 99 283 62z M8890 9462 c0 -16 14 -71 30 -122 38 -117 40
-187 7 -218 l-23 -22 -3130 0 c-2068 0 -3158 -3 -3214 -10 -120 -15 -210 -60
-287 -144 -78 -85 -116 -156 -125 -231 -5 -44 -6 -34 -3 35 3 52 7 111 11 130
l6 35 -17 -30 c-28 -50 -72 -193 -100 -328 -25 -121 -27 -140 -22 -320 4 -169
8 -203 31 -287 95 -335 251 -507 489 -539 54 -8 1036 -11 3170 -11 2723 0
3095 -2 3121 -15 15 -8 36 -15 46 -15 35 0 80 -22 80 -39 0 -10 9 -26 21 -37
17 -16 20 -25 14 -64 -4 -25 -12 -54 -17 -65 -24 -43 -37 -116 -26 -140 9 -20
16 -23 42 -18 123 22 226 144 226 268 0 96 -76 214 -162 251 -42 18 -152 19
-3308 24 l-3265 5 -47 27 c-115 69 -204 234 -256 479 -33 156 -34 176 -12 303
50 291 162 505 296 561 33 13 389 15 3370 15 l3334 0 -9 -22 c-5 -13 -23 -52
-41 -88 l-33 -65 -12 -290 c-13 -281 -29 -445 -60 -608 -22 -113 -19 -182 8
-241 l23 -50 23 32 c158 223 202 1169 76 1649 -27 104 -55 165 -93 206 -23 24
-32 27 -94 27 l-68 0 0 -28z m-6753 -979 c-2 -32 -3 -6 -3 57 0 63 1 89 3 58
2 -32 2 -84 0 -115z M6850 6991 c-2110 -4 -2311 -5 -2170 -18 126 -12 530 -16
2155 -22 1890 -6 2002 -8 2045 -25 25 -10 49 -21 55 -26 5 -4 40 -23 76 -43
131 -70 128 -70 604 -76 237 -3 436 -10 443 -14 6 -5 12 -16 12 -26 0 -9 5
-22 11 -28 18 -18 -12 -94 -53 -135 -22 -22 -58 -44 -90 -55 -50 -17 -189 -18
-2623 -23 -2399 -5 -2574 -7 -2628 -23 -84 -25 -115 -43 -177 -106 -93 -93
-161 -251 -199 -461 -7 -36 -17 -85 -22 -109 -59 -261 -51 -418 26 -571 105
-208 249 -308 475 -330 56 -6 1095 -10 2518 -10 1406 0 2422 -4 2422 -9 0 -5
64 -11 143 -13 91 -3 152 -9 170 -18 26 -13 28 -17 25 -69 l-3 -56 -87 -45
c-120 -62 -168 -107 -168 -157 0 -23 0 -23 153 -23 138 0 157 2 202 24 60 27
107 72 138 130 29 55 31 184 3 236 -25 49 -83 108 -131 133 l-40 22 -2720 5
-2720 5 -50 25 c-104 51 -189 168 -239 328 -28 89 -31 106 -17 98 4 -3 14 14
21 37 21 74 88 191 137 241 27 27 73 61 103 75 l55 26 2787 0 c1532 0 2790 -3
2794 -8 4 -4 -2 -24 -15 -45 -12 -20 -30 -53 -39 -72 -9 -19 -20 -37 -24 -41
-4 -3 -17 -68 -29 -145 -11 -76 -27 -173 -35 -214 -8 -41 -14 -101 -14 -132 0
-57 24 -138 41 -138 20 0 71 88 94 163 46 144 59 252 59 497 0 298 -28 463
-102 594 -36 66 -70 90 -129 90 l-48 1 -3 -54 c-2 -35 5 -79 19 -125 31 -99
31 -157 0 -190 l-24 -26 -2631 0 c-2800 0 -2707 1 -2798 -46 -18 -9 -61 -42
-95 -72 -83 -73 -142 -188 -144 -277 l-2 -60 -9 80 c-5 50 -5 121 2 191 26
285 130 488 285 561 l60 28 2720 5 2720 5 41 22 c195 104 187 391 -14 490
l-57 28 -470 0 c-258 0 -1516 -1 -2795 -4z m-2473 -1453 c-3 -7 -5 -2 -5 12 0
14 2 19 5 13 2 -7 2 -19 0 -25z M2040 6980 c0 -27 78 -91 135 -112 56 -19 85
-21 428 -26 350 -4 367 -6 367 -23 0 -18 17 -19 410 -19 l410 0 0 -27 c0 -14
-26 -81 -58 -147 -70 -144 -101 -226 -139 -361 -27 -100 -27 -101 -31 -484 -3
-362 -2 -391 18 -484 38 -176 82 -288 221 -555 37 -73 34 -91 -22 -105 -19 -5
-180 -12 -359 -16 -360 -8 -376 -11 -424 -73 -14 -19 -26 -38 -26 -41 0 -4
325 -7 723 -6 624 0 714 2 662 14 -143 31 -264 101 -365 211 -358 391 -436
1231 -165 1789 121 250 305 414 515 459 57 13 -80 15 -1117 15 -812 1 -1183
-2 -1183 -9z M1763 6951 c-96 -35 -158 -76 -244 -161 -229 -227 -352 -590
-352 -1040 0 -414 103 -756 298 -992 72 -88 141 -142 240 -189 112 -53 127
-54 144 -4 24 70 5 111 -107 228 -54 56 -111 120 -128 142 -85 111 -154 269
-189 434 -22 104 -22 658 0 763 47 222 116 347 284 517 154 156 196 235 161
302 -13 24 -40 24 -107 0z M1575 4472 c-160 -55 -297 -196 -410 -422 -114
-228 -205 -573 -250 -955 -22 -187 -31 -701 -16 -906 66 -873 333 -1466 705
-1565 43 -12 715 -14 4142 -14 l4091 0 62 31 c121 60 179 198 140 329 -18 58
-78 130 -134 159 l-50 26 -3260 5 -3260 5 -37 23 c-72 44 -157 176 -163 251
-24 296 -27 392 -22 655 8 403 40 660 114 905 64 215 157 355 251 380 43 12
6485 12 6496 0 4 -3 -11 -41 -31 -85 l-38 -79 -6 -625 c-6 -640 -11 -725 -55
-1001 -28 -177 -28 -255 -2 -318 13 -30 28 -56 34 -58 19 -6 64 112 90 235 89
419 111 1263 49 1887 -41 405 -108 605 -203 605 -17 0 -28 -10 -42 -42 -17
-38 -19 -58 -14 -178 6 -134 6 -135 -18 -157 l-24 -23 -3110 -2 -3109 -3 -56
-22 c-71 -29 -104 -54 -168 -128 -107 -123 -174 -329 -216 -667 -31 -242 -30
-737 0 -1023 10 -89 -25 73 -45 210 -31 218 -40 359 -40 650 0 387 28 665 92
919 72 286 167 439 290 465 34 8 1039 11 3265 11 2436 0 3225 3 3255 12 50 15
122 78 151 132 17 33 22 58 22 126 0 75 -3 91 -27 132 -16 25 -45 60 -65 77
-80 66 149 61 -2868 59 -2598 -3 -2738 -4 -2709 -20 77 -42 13 -41 2704 -47
2355 -5 2588 -7 2620 -22 62 -29 120 -113 120 -174 0 -46 -53 -121 -102 -146
-36 -19 -68 -23 -203 -30 -88 -4 -1497 -8 -3132 -8 -2161 -1 -2986 -4 -3025
-12 -80 -17 -140 -52 -195 -113 -130 -147 -218 -442 -274 -919 -6 -55 -9 -283
-6 -590 4 -532 6 -567 61 -867 36 -196 93 -316 203 -428 83 -84 161 -120 285
-132 53 -6 1429 -10 3176 -10 2216 0 3095 -3 3127 -11 36 -9 45 -16 50 -40 9
-38 -1 -66 -28 -82 -17 -9 -715 -13 -3352 -17 -3148 -5 -3332 -6 -3374 -23
-24 -9 -71 -39 -104 -66 l-59 -49 -34 20 c-85 50 -203 197 -279 347 -268 532
-357 1527 -209 2331 112 607 327 990 612 1087 l67 22 -700 0 c-638 0 -704 -1
-750 -17z m855 -223 c0 -18 -27 -91 -59 -163 -122 -271 -195 -545 -241 -909
-17 -138 -20 -216 -20 -625 0 -355 4 -497 15 -589 44 -351 111 -620 225 -898
29 -72 40 -111 38 -140 l-3 -40 -225 -5 c-124 -3 -286 -3 -361 1 -128 5 -141
7 -202 37 -87 43 -150 114 -220 250 -92 179 -164 433 -207 730 -18 129 -20
192 -20 659 0 468 2 528 21 657 75 516 221 850 416 953 66 36 161 66 289 93
72 15 135 19 322 19 l232 1 0 -31z m637 -2621 c-3 -8 -6 -5 -6 6 -1 11 2 17 5
13 3 -3 4 -12 1 -19z m10 -40 c-3 -8 -6 -5 -6 6 -1 11 2 17 5 13 3 -3 4 -12 1
-19z"/>
</g>
</svg>
