<?xml version="1.0" standalone="no"?>
<!DOCTYPE svg PUBLIC "-//W3C//DTD SVG 20010904//EN"
 "http://www.w3.org/TR/2001/REC-SVG-20010904/DTD/svg10.dtd">
<svg version="1.0" xmlns="http://www.w3.org/2000/svg"
 width="2048.000000pt" height="2048.000000pt" viewBox="0 0 2048.000000 2048.000000"
 preserveAspectRatio="xMidYMid meet">
<metadata>
Created by potrace 1.13, written by Peter Selinger 2001-2015
</metadata>
<g transform="translate(0.000000,2048.000000) scale(0.192120,-0.192120)"
fill="#000000" stroke="none">
<path d="M4065 9205 c-162 -26 -335 -80 -770 -243 -287 -107 -454 -162 -631
-208 -263 -67 -324 -74 -734 -84 -637 -16 -606 -14 -685 -44 -141 -54 -271
-182 -319 -316 -20 -54 -27 -62 -101 -111 -221 -147 -387 -383 -463 -657 l-27
-97 -3 -2205 c-2 -1948 -1 -2216 13 -2304 63 -401 338 -735 719 -872 190 -67
96 -64 1903 -64 l1635 0 50 -45 c108 -97 242 -164 417 -208 125 -31 398 -31
523 1 179 45 305 107 416 207 l49 45 1674 2 1674 3 85 24 c442 123 757 470
826 911 13 82 14 386 12 2300 l-3 2205 -27 97 c-75 274 -242 510 -463 657 -75
50 -81 56 -105 117 -54 139 -177 259 -319 312 -65 25 -74 25 -446 33 -494 10
-566 14 -710 39 -263 45 -473 108 -961 289 -583 216 -733 249 -1011 222 -478
-47 -798 -270 -925 -646 l-23 -70 -3 -2560 c-2 -2235 0 -2558 12 -2545 21 22
56 116 56 153 1 18 7 43 15 57 12 21 14 360 15 2397 0 2144 2 2376 16 2410
102 243 207 384 359 478 144 90 288 135 493 155 244 24 412 -14 972 -220 419
-154 582 -200 915 -256 179 -30 488 -44 547 -25 20 7 57 27 81 46 l45 34 64
-31 c84 -42 192 -151 235 -238 68 -136 64 53 61 -2491 l-3 -2304 -23 -60 c-53
-140 -166 -266 -295 -328 -108 -52 -158 -61 -326 -54 -328 13 -611 86 -1296
334 -522 190 -657 221 -919 210 -376 -16 -676 -134 -878 -345 -42 -44 -91
-107 -109 -141 -19 -33 -36 -61 -39 -61 -3 1 -21 28 -40 63 -19 34 -69 97
-109 140 -201 211 -502 329 -882 344 -242 9 -403 -25 -826 -178 -783 -283
-1048 -353 -1384 -366 -168 -7 -218 2 -326 54 -129 63 -238 182 -293 323 l-25
65 -3 2304 c-3 2541 -7 2354 60 2490 58 119 205 243 333 281 39 11 44 10 107
-24 l66 -37 129 0 c141 0 220 9 423 47 289 54 402 86 755 214 484 176 589 208
755 236 200 32 459 3 646 -74 146 -61 249 -138 393 -295 83 -92 116 -119 159
-132 33 -10 29 22 -16 119 -140 295 -451 485 -861 526 -131 13 -225 11 -326
-5z m5317 -836 c15 -8 22 -8 27 0 5 7 37 -19 86 -68 84 -86 122 -107 210 -117
31 -4 58 -10 60 -14 3 -5 5 -1167 5 -2583 0 -2538 0 -2575 -20 -2638 -59 -192
-223 -343 -417 -384 -58 -12 -330 -15 -1784 -15 -1676 0 -1718 0 -1793 20
-105 27 -188 73 -260 146 -93 92 -156 227 -156 335 l0 46 58 7 c72 8 112 29
213 111 184 150 366 224 644 261 145 19 258 14 424 -21 154 -33 231 -58 676
-217 472 -169 1123 -286 1380 -249 180 27 314 90 426 201 87 86 138 167 174
278 l25 76 -1 2351 c0 1292 -3 2370 -7 2395 -7 45 -5 90 4 90 3 0 15 -5 26
-11z m-8092 -2442 l5 -2422 31 -76 c87 -207 233 -348 439 -422 204 -73 445
-61 935 45 208 45 482 121 610 168 587 218 810 269 1060 241 273 -31 441 -95
638 -243 122 -91 180 -118 255 -118 l57 0 0 -48 c0 -109 -62 -243 -156 -336
-72 -73 -155 -119 -260 -146 -75 -20 -117 -20 -1793 -20 -1883 0 -1784 -3
-1915 61 -169 83 -301 276 -306 450 -1 30 -1 1193 -1 2585 l1 2531 58 7 c80 9
129 36 203 111 35 36 65 61 67 55 2 -6 12 -4 25 5 15 10 24 12 32 4 7 -7 12
-774 15 -2432z m-607 1550 c4 -45 7 -1058 7 -2250 0 -1493 3 -2183 11 -2215
26 -118 35 -143 77 -231 36 -76 59 -108 111 -159 140 -135 275 -215 420 -249
71 -17 174 -18 1721 -18 1880 0 1699 -9 1789 92 l50 56 66 -61 c124 -116 237
-163 395 -163 159 0 285 53 403 169 l58 57 42 -47 c55 -61 105 -84 208 -98 59
-8 553 -10 1669 -8 1784 4 1630 -3 1805 83 198 96 354 274 408 465 9 30 21 73
29 95 10 32 14 477 18 2290 3 1250 9 2258 14 2268 5 10 14 16 20 14 16 -5 22
-4735 6 -4792 -18 -63 -107 -214 -167 -282 -89 -101 -225 -174 -392 -210 -81
-18 -49 -18 -2491 -26 -998 -3 -882 9 -1104 -117 -155 -89 -223 -117 -340
-141 -120 -25 -252 -24 -378 1 -126 26 -183 50 -344 145 -71 41 -133 75 -139
75 -5 0 -23 8 -40 18 -28 16 -135 17 -1690 22 l-1660 5 -96 27 c-157 43 -230
89 -364 229 -73 76 -130 163 -162 244 -16 42 -18 4776 -2 4792 24 24 36 1 42
-80z"/>
</g>
</svg>
