<?xml version="1.0" standalone="no"?>
<!DOCTYPE svg PUBLIC "-//W3C//DTD SVG 20010904//EN"
 "http://www.w3.org/TR/2001/REC-SVG-20010904/DTD/svg10.dtd">
<svg version="1.0" xmlns="http://www.w3.org/2000/svg"
 width="2048.000000pt" height="2048.000000pt" viewBox="0 0 2048.000000 2048.000000"
 preserveAspectRatio="xMidYMid meet">
<metadata>
Created by potrace 1.13, written by Peter Selinger 2001-2015
</metadata>
<g transform="translate(0.000000,2048.000000) scale(0.192120,-0.192120)"
fill="#000000" stroke="none">
<path d="M4628 10315 c-204 -50 -370 -220 -413 -422 -12 -56 -15 -220 -15
-925 l0 -858 -687 0 c-422 0 -713 -4 -753 -10 -79 -13 -162 -52 -185 -87 -32
-49 -31 -96 5 -171 30 -63 109 -143 1199 -1233 1163 -1163 1166 -1167 1248
-1207 203 -100 424 -93 608 19 37 22 427 406 1218 1198 978 980 1168 1175
1191 1220 67 139 2 230 -184 260 -41 7 -323 11 -752 11 l-688 0 0 865 c0 588
-4 881 -11 917 -20 98 -75 196 -153 273 -83 82 -145 118 -252 145 -73 19 -111
20 -698 19 -492 0 -633 -4 -678 -14z m1241 -265 c157 -17 244 -69 293 -175
l23 -50 3 -822 c1 -528 6 -823 12 -823 6 0 10 -16 10 -35 0 -19 4 -35 9 -35 5
0 12 -11 15 -25 4 -14 11 -25 16 -25 6 0 10 -8 10 -18 0 -23 134 -152 185
-177 38 -19 68 -20 627 -25 455 -4 590 -8 600 -18 10 -10 9 -20 -7 -50 -20
-40 -1857 -1889 -2010 -2024 -49 -43 -117 -92 -150 -109 -129 -63 -265 -61
-405 7 -73 35 -108 69 -1112 1073 -725 724 -1039 1044 -1044 1064 -4 17 -2 33
5 40 9 9 168 13 599 17 584 5 587 5 633 28 61 30 160 135 185 194 10 27 22 48
27 48 4 0 7 16 7 35 0 19 4 35 10 35 6 0 10 297 12 818 3 780 4 819 22 862 50
115 138 172 296 189 109 12 1018 12 1129 1z M2145 4771 c-1351 -7 -1277 -4
-1438 -65 -174 -65 -293 -207 -341 -406 -35 -144 -37 -245 -34 -1650 l3 -1385
28 -100 c33 -121 117 -296 185 -385 154 -202 372 -350 619 -418 l98 -27 4065
0 4065 0 100 28 c121 33 296 117 386 185 201 153 349 372 417 619 l27 98 3
1385 c2 915 -1 1418 -8 1483 -41 386 -205 569 -556 622 -80 12 -589 15 -3237
18 -1728 2 -3700 1 -4382 -2z m1239 -78 c27 -262 60 -425 123 -593 328 -878
1233 -1399 2153 -1241 604 104 1123 488 1402 1036 119 235 181 454 208 739 5
60 12 111 14 113 4 4 165 -105 205 -138 7 -7 34 -14 60 -17 25 -3 51 -11 56
-18 8 -11 205 -14 1065 -17 961 -3 1061 -4 1120 -20 150 -40 221 -86 268 -174
66 -125 62 -39 62 -1410 0 -822 3 -1243 10 -1243 6 0 10 -18 10 -40 0 -22 5
-40 10 -40 6 0 10 -9 10 -19 0 -11 4 -21 8 -23 15 -6 83 -128 77 -138 -4 -7
-1618 -10 -4916 -10 -4156 0 -4910 2 -4915 14 -3 7 13 42 35 76 23 35 41 71
41 82 0 10 5 18 10 18 6 0 10 18 10 40 0 22 4 40 10 40 6 0 10 437 12 1218 l3
1217 23 79 c51 181 135 265 314 313 57 16 162 17 1156 20 951 3 1092 6 1092
18 0 8 8 15 19 15 10 0 65 36 122 80 57 44 107 80 111 80 4 0 9 -26 12 -57z
m3600 -244 c11 -56 6 -95 -23 -195 -56 -190 -135 -343 -272 -524 -148 -196
-359 -365 -600 -479 -822 -389 -1828 -87 -2261 679 -109 192 -186 418 -173
508 l6 42 1658 0 1659 0 6 -31z m3051 -3242 c24 -94 -115 -325 -262 -436 -143
-108 -300 -164 -503 -181 -158 -13 -7747 -13 -7896 0 -217 19 -387 89 -541
222 -113 97 -212 261 -221 363 l-4 55 4711 0 4711 0 5 -23z"/>
</g>
</svg>
