<?xml version="1.0" standalone="no"?>
<!DOCTYPE svg PUBLIC "-//W3C//DTD SVG 20010904//EN"
 "http://www.w3.org/TR/2001/REC-SVG-20010904/DTD/svg10.dtd">
<svg version="1.0" xmlns="http://www.w3.org/2000/svg"
 width="2048.000000pt" height="2048.000000pt" viewBox="0 0 2048.000000 2048.000000"
 preserveAspectRatio="xMidYMid meet">
<metadata>
Created by potrace 1.13, written by Peter Selinger 2001-2015
</metadata>
<g transform="translate(0.000000,2048.000000) scale(0.192120,-0.192120)"
fill="#000000" stroke="none">
<path d="M6665 10114 c-132 -14 -246 -37 -292 -60 -120 -58 -179 -198 -138
-328 43 -138 191 -221 332 -187 80 19 241 28 369 20 476 -30 957 -270 1369
-684 367 -368 584 -771 636 -1182 16 -133 7 -344 -22 -452 -37 -146 -13 -243
81 -324 43 -36 122 -67 174 -67 103 0 214 74 255 170 31 73 61 228 70 372 36
551 -154 1097 -559 1608 -109 138 -397 423 -534 530 -400 311 -812 496 -1261
565 -98 15 -402 27 -480 19z m15 -284 c0 -22 -33 -27 -60 -10 -16 10 -11 13
35 23 11 3 21 5 23 6 1 0 2 -8 2 -19z m220 9 c14 -1 3 -5 -25 -8 -27 -3 -72
-4 -100 -2 l-50 5 40 7 c22 4 56 5 75 3 19 -2 46 -5 60 -5z m135 -5 c13 -5 14
-8 3 -15 -22 -14 -58 -10 -58 6 0 16 26 20 55 9z m100 -9 c530 -62 1024 -327
1470 -786 259 -267 430 -521 547 -814 76 -188 78 -205 78 -655 l0 -401 -26
-26 c-53 -53 -63 1 -64 352 0 260 -2 288 -24 387 -65 286 -233 628 -424 867
-294 367 -538 582 -915 805 -84 49 -187 96 -307 140 -41 15 -82 30 -90 33 -8
4 -18 5 -22 5 -5 -1 -8 2 -8 6 0 5 -6 9 -12 10 -27 2 -143 36 -146 42 -1 4
-16 4 -32 2 -18 -2 -30 0 -30 7 0 6 -11 8 -30 5 -26 -6 -30 -3 -30 14 0 13 5
19 13 16 7 -2 31 -7 52 -9z m-565 -10 c0 -9 -6 -12 -15 -9 -8 4 -12 10 -9 15
8 14 24 10 24 -6z M2575 9165 c-374 -60 -642 -265 -761 -583 -347 -927 479
-2669 1975 -4162 1159 -1157 2469 -1927 3471 -2041 132 -15 408 -6 510 16 321
70 540 235 670 506 182 381 133 963 -140 1644 -257 641 -695 1335 -1274 2015
-49 58 -91 107 -92 109 -2 2 -21 -12 -44 -32 -127 -108 -349 -163 -509 -126
l-45 10 -945 -944 c-767 -765 -955 -948 -996 -967 -72 -34 -190 -34 -260 0
-148 72 -218 232 -168 391 15 52 55 92 969 1009 l953 955 -9 40 c-17 71 -12
214 10 294 25 89 45 130 103 206 l44 59 -116 99 c-960 819 -1972 1364 -2776
1492 -141 23 -455 28 -570 10z m578 -294 c559 -99 1171 -372 1842 -822 329
-220 705 -510 716 -553 4 -13 -6 -73 -22 -137 -16 -63 -32 -148 -35 -189 -4
-41 -12 -82 -19 -90 -7 -8 -16 -31 -20 -50 -6 -29 -138 -167 -839 -870 -458
-459 -855 -864 -883 -900 -73 -94 -131 -214 -138 -286 -12 -117 -14 -123 -36
-117 -12 3 -24 1 -28 -6 -18 -29 -428 441 -662 759 -254 345 -395 563 -580
896 -201 363 -348 723 -436 1068 l-36 141 -4 310 c-5 346 -1 381 53 485 108
208 296 330 578 376 118 19 399 12 549 -15z m3776 -2583 c75 -59 394 -478 586
-768 349 -529 586 -1026 713 -1498 l36 -137 4 -371 c3 -358 2 -374 -18 -435
-68 -202 -217 -346 -430 -416 -137 -45 -234 -57 -429 -50 -394 13 -843 149
-1366 412 -363 183 -707 397 -1055 655 -292 218 -614 487 -688 577 -44 55 -37
75 31 85 73 10 141 36 209 80 45 28 317 294 933 908 570 569 884 875 911 888
26 13 71 23 120 27 111 8 194 24 277 51 83 28 124 25 166 -8z M6312 9021 c-73
-25 -122 -67 -157 -135 -72 -141 -10 -315 134 -379 34 -15 80 -22 181 -28 267
-15 534 -99 753 -235 399 -250 654 -703 686 -1218 9 -147 23 -188 87 -250 58
-57 98 -71 194 -71 75 0 91 3 131 27 56 33 95 77 122 137 39 89 18 371 -48
627 -127 495 -435 928 -855 1203 -269 176 -604 294 -942 330 -140 16 -225 13
-286 -8z m328 -266 c230 -22 426 -79 638 -186 451 -227 780 -626 897 -1088 22
-87 25 -121 25 -268 0 -92 -3 -178 -6 -190 -7 -25 -34 -32 -34 -8 0 8 -9 20
-20 27 -11 7 -20 22 -20 34 0 55 -55 309 -91 417 -116 355 -339 673 -622 887
-91 68 -232 156 -312 194 -79 38 -231 91 -287 101 -21 4 -38 11 -38 16 0 4 -9
6 -20 4 -11 -2 -20 0 -20 5 0 4 -27 11 -60 15 -33 4 -60 10 -60 14 0 3 -17 5
-39 3 -38 -4 -58 8 -46 28 3 6 16 8 28 6 12 -3 51 -8 87 -11z M1652 8418
c-197 -313 -360 -748 -437 -1164 -73 -395 -75 -868 -5 -1279 98 -572 351
-1173 728 -1725 98 -144 247 -341 317 -418 53 -59 63 -58 85 7 22 68 -4 122
-164 346 -216 303 -318 469 -450 733 -181 361 -301 721 -365 1098 -19 111 -21
162 -21 590 0 575 -8 509 146 1134 104 420 138 544 183 663 16 42 28 77 26 77
-2 0 -21 -28 -43 -62z M6361 7745 c-80 -18 -182 -65 -239 -112 l-44 -36 33
-18 c45 -23 98 -29 156 -17 85 16 166 23 248 22 194 -3 334 -92 416 -263 28
-60 29 -69 29 -194 0 -88 -5 -148 -15 -181 -20 -67 -19 -163 3 -204 l18 -33
30 38 c49 62 71 103 100 188 23 68 27 97 28 190 0 125 -14 186 -71 299 -50
100 -171 219 -274 269 -131 64 -277 82 -418 52z M2194 3648 c-202 -206 -341
-377 -487 -599 -283 -431 -429 -857 -453 -1314 -14 -275 63 -465 268 -661 110
-105 209 -172 382 -255 359 -172 786 -262 1306 -276 1036 -27 1895 307 2109
820 48 117 65 222 57 356 -4 64 -8 117 -10 118 -1 2 -43 10 -92 18 -222 39
-535 135 -793 242 -466 194 -933 487 -1373 864 -263 224 -621 582 -754 752
-20 26 -40 47 -43 47 -3 0 -56 -51 -117 -112z m360 -406 c434 -427 787 -710
1206 -967 182 -111 527 -286 685 -348 276 -107 376 -132 607 -148 124 -9 161
-15 198 -33 25 -12 45 -29 45 -37 0 -37 -499 -217 -785 -283 -397 -91 -721
-126 -1154 -126 -519 0 -945 61 -1416 201 -159 48 -432 154 -543 211 l-78 41
23 26 c13 14 34 37 46 51 48 50 75 114 117 277 42 162 74 263 110 348 135 318
362 667 584 898 124 129 107 134 355 -111z m-776 -1911 c928 -312 2037 -334
2976 -59 147 43 216 56 216 41 0 -35 -92 -121 -197 -184 -114 -69 -214 -114
-378 -170 -620 -210 -1511 -212 -2155 -4 -236 77 -485 215 -581 325 -45 51
-64 100 -38 100 6 0 77 -22 157 -49z M7820 2321 c-76 -44 -963 -276 -1241
-325 -271 -48 -504 -59 -924 -46 -144 4 -164 3 -189 -13 -30 -20 -63 -84 -49
-98 4 -4 64 -16 133 -26 159 -22 648 -25 815 -5 513 63 998 223 1386 458 52
31 96 58 98 60 8 7 -14 3 -29 -5z"/>
</g>
</svg>
