<?xml version="1.0" standalone="no"?>
<!DOCTYPE svg PUBLIC "-//W3C//DTD SVG 20010904//EN"
 "http://www.w3.org/TR/2001/REC-SVG-20010904/DTD/svg10.dtd">
<svg version="1.0" xmlns="http://www.w3.org/2000/svg"
 width="2048.000000pt" height="2048.000000pt" viewBox="0 0 2048.000000 2048.000000"
 preserveAspectRatio="xMidYMid meet">
<metadata>
Created by potrace 1.13, written by Peter Selinger 2001-2015
</metadata>
<g transform="translate(0.000000,2048.000000) scale(0.192120,-0.192120)"
fill="#000000" stroke="none">
<path d="M3196 10319 c-169 -22 -352 -92 -480 -183 -80 -57 -186 -170 -244
-260 -98 -152 -172 -376 -192 -584 -14 -146 -14 -7776 0 -7958 40 -524 333
-851 875 -977 90 -21 98 -21 2140 -25 1422 -2 2079 0 2145 8 186 21 370 88
504 184 239 171 399 480 436 845 14 142 14 7787 0 7964 -23 278 -106 478 -273
653 -161 171 -403 287 -682 329 -87 13 -372 15 -2130 14 -1116 -1 -2061 -5
-2099 -10z m4199 -304 c346 -52 590 -213 671 -443 l24 -67 0 -4140 c0 -4068 0
-4142 -19 -4210 -24 -86 -53 -149 -110 -237 -91 -144 -235 -234 -456 -286 -63
-14 -265 -16 -2100 -19 -2222 -4 -2140 -6 -2329 54 -222 70 -371 182 -456 344
-76 146 -70 -257 -70 4304 l0 4100 21 75 c36 132 84 215 179 310 68 69 102 94
170 128 97 47 203 78 311 91 41 5 972 9 2069 10 1728 1 2008 -1 2095 -14z
M2877 9164 c-37 -12 -69 -34 -133 -96 -46 -45 -87 -92 -90 -105 -4 -12 -10
-23 -15 -23 -5 0 -9 -1503 -9 -3610 0 -1986 4 -3610 8 -3610 4 0 14 -16 21
-37 8 -20 47 -70 90 -113 63 -65 85 -81 130 -94 50 -15 278 -16 2451 -16 2123
0 2402 2 2448 15 62 19 157 102 193 170 13 25 27 45 31 45 5 0 8 7 8 15 0 8 5
15 10 15 7 0 10 1210 10 3610 0 2400 -3 3610 -10 3610 -5 0 -10 4 -10 10 0 15
-27 47 -106 127 -57 58 -81 74 -124 87 -48 14 -290 16 -2454 15 -2093 0 -2407
-2 -2449 -15z m4953 -3834 l0 -3610 -2500 0 -2500 0 0 3610 0 3610 2500 0
2500 0 0 -3610z"/>
</g>
</svg>
