<?xml version="1.0" standalone="no"?>
<!DOCTYPE svg PUBLIC "-//W3C//DTD SVG 20010904//EN"
 "http://www.w3.org/TR/2001/REC-SVG-20010904/DTD/svg10.dtd">
<svg version="1.0" xmlns="http://www.w3.org/2000/svg"
 width="2048.000000pt" height="2048.000000pt" viewBox="0 0 2048.000000 2048.000000"
 preserveAspectRatio="xMidYMid meet">
<metadata>
Created by potrace 1.13, written by Peter Selinger 2001-2015
</metadata>
<g transform="translate(0.000000,2048.000000) scale(0.192120,-0.192120)"
fill="#000000" stroke="none">
<path d="M1303 10319 c-33 -5 -104 -20 -155 -33 -436 -110 -711 -388 -795
-802 -17 -85 -18 -274 -18 -4129 0 -3899 1 -4043 19 -4125 46 -211 115 -370
223 -514 136 -181 328 -301 578 -360 l90 -21 4005 -3 c2822 -2 4029 0 4088 8
277 36 524 147 691 310 165 160 259 360 290 615 16 128 16 8002 0 8130 -31
255 -125 455 -290 615 -165 161 -407 271 -683 309 -96 14 -7949 13 -8043 0z
m7992 -269 c365 -38 646 -215 740 -465 l25 -65 0 -4181 0 -4180 -26 -77 c-80
-239 -286 -397 -619 -475 l-90 -22 -3960 -3 c-2870 -2 -3987 0 -4059 8 -359
41 -583 213 -692 532 l-29 83 0 4161 0 4161 47 95 c57 114 137 201 251 272
125 78 297 136 457 155 105 12 7841 13 7955 1z M3635 9743 c-226 -12 -408 -70
-560 -178 -62 -44 -174 -154 -244 -239 -48 -59 -132 -219 -161 -308 -53 -163
-50 91 -50 -3697 0 -2450 3 -3525 11 -3567 34 -190 148 -395 309 -554 183
-182 395 -274 690 -300 157 -14 3284 -13 3443 1 180 15 322 57 443 130 226
137 407 396 489 699 l25 95 0 3518 c0 3931 7 3569 -72 3756 -56 133 -117 221
-233 336 -152 152 -305 233 -540 286 l-100 23 -1695 1 c-932 1 -1722 0 -1755
-2z m3539 -266 c190 -47 323 -116 431 -222 118 -116 190 -264 214 -438 15
-108 15 -6844 1 -6937 -55 -346 -248 -588 -541 -678 -136 -42 -186 -43 -1994
-40 l-1730 3 -85 23 c-190 50 -315 116 -420 222 -114 114 -186 262 -209 433
-15 108 -15 6844 -1 6937 26 161 97 330 185 442 111 142 298 241 500 267 39 5
852 8 1825 7 1620 -2 1760 -3 1824 -19z M3385 5330 l0 -2780 1945 0 1945 0 0
2780 0 2780 -1945 0 -1945 0 0 -2780z m3615 -10 l0 -2520 -1680 0 -1680 0 0
2520 0 2520 1680 0 1680 0 0 -2520z M1164 7716 c-48 -21 -153 -125 -180 -178
l-25 -49 3 -402 3 -402 25 -38 c55 -84 142 -177 207 -220 37 -25 138 -80 223
-122 198 -99 290 -153 290 -172 0 -11 -5 -13 -17 -8 -10 4 -27 9 -38 10 -11 2
-45 13 -75 25 -73 30 -211 81 -230 85 -8 2 -68 24 -132 48 -170 65 -260 81
-324 57 -37 -14 -172 -147 -195 -192 -18 -35 -19 -68 -19 -692 l0 -655 34 -58
c38 -64 101 -132 158 -171 34 -22 45 -24 110 -20 75 5 98 13 472 158 87 34
166 63 175 65 9 2 31 8 49 14 27 8 32 7 32 -6 0 -9 -3 -14 -6 -10 -3 3 -11 2
-18 -4 -28 -23 -91 -60 -210 -122 -71 -37 -166 -89 -210 -115 -81 -47 -195
-150 -252 -227 -16 -22 -33 -43 -39 -47 -6 -5 -11 -156 -13 -412 l-3 -406 27
-54 c34 -69 104 -149 158 -181 104 -61 151 -35 711 384 393 294 449 342 529
451 96 130 96 129 96 412 0 246 0 248 -26 302 -29 61 -143 177 -207 211 -20
11 -37 25 -37 31 0 7 24 31 52 55 94 76 198 204 198 243 0 9 5 16 10 16 6 0
10 57 10 150 0 83 -4 150 -8 150 -4 0 -13 15 -20 33 -7 20 -61 84 -127 151
-63 64 -115 120 -115 124 0 5 25 21 55 37 69 35 145 117 185 199 l30 64 0 249
0 250 -26 49 c-37 69 -153 203 -232 267 -117 94 -713 538 -800 595 -80 52
-172 92 -209 92 -10 -1 -32 -7 -49 -14z m557 -581 l553 -416 2 -280 c1 -154
-1 -279 -5 -277 -3 2 -255 128 -558 281 l-553 277 0 415 c0 228 2 415 4 415 2
0 253 -187 557 -415z m-133 -1252 l693 -277 -3 -138 -3 -138 -675 -271 c-371
-149 -684 -274 -695 -278 -20 -9 -20 -5 -20 685 0 382 2 694 5 694 3 0 317
-125 698 -277z m139 235 c-3 -8 -6 -5 -6 6 -1 11 2 17 5 13 3 -3 4 -12 1 -19z
m20 -10 c-3 -8 -6 -5 -6 6 -1 11 2 17 5 13 3 -3 4 -12 1 -19z m-20 -1310 c-3
-8 -6 -5 -6 6 -1 11 2 17 5 13 3 -3 4 -12 1 -19z m549 -304 l-3 -276 -556
-418 -557 -418 0 416 0 417 548 276 c301 152 552 277 558 278 9 1 11 -73 10
-275z M9382 7714 c-95 -33 -163 -80 -627 -427 -356 -267 -487 -386 -543 -497
l-32 -62 0 -258 0 -258 28 -53 c38 -75 122 -161 187 -194 30 -16 55 -32 55
-35 0 -4 -51 -60 -114 -124 -69 -70 -120 -130 -127 -151 -7 -19 -17 -35 -21
-35 -4 0 -8 -64 -8 -143 0 -126 3 -149 21 -188 35 -71 105 -155 180 -215 38
-30 69 -61 69 -68 0 -7 -16 -20 -35 -29 -49 -23 -180 -151 -210 -204 l-25 -46
0 -268 c0 -173 4 -269 10 -269 6 0 10 -7 10 -16 0 -28 91 -156 160 -225 61
-62 702 -550 868 -661 87 -59 173 -97 218 -98 67 0 169 95 222 207 l27 58 3
388 c2 227 -1 387 -6 387 -5 0 -12 12 -15 28 -9 42 -144 191 -214 237 -116 75
-138 88 -273 158 -74 39 -140 76 -147 82 -6 7 -25 18 -42 25 -17 7 -31 17 -31
22 0 5 -4 6 -10 3 -5 -3 -10 1 -10 9 0 24 30 15 360 -114 267 -104 320 -120
393 -120 43 0 62 5 93 28 59 43 130 127 159 187 l25 54 0 641 c0 738 8 673
-104 788 -122 127 -182 132 -434 35 -64 -24 -124 -46 -132 -48 -19 -4 -157
-55 -230 -85 -30 -12 -64 -23 -75 -25 -11 -1 -28 -6 -37 -10 -13 -5 -18 -3
-18 8 0 18 86 69 309 182 95 49 201 109 234 134 71 53 137 134 178 215 l29 60
0 376 0 376 -26 54 c-30 62 -128 164 -178 185 -43 18 -59 18 -114 -1z m118
-579 l0 -415 -552 -277 c-304 -153 -556 -279 -559 -281 -4 -2 -6 123 -5 277
l2 280 550 415 c302 227 552 414 557 415 4 1 7 -186 7 -414z m275 -1669 c0
-690 0 -694 -20 -685 -11 4 -324 130 -695 278 l-675 271 -3 138 -3 138 688
276 c379 152 693 277 698 277 7 1 10 -236 10 -693z m-838 652 c-3 -8 -6 -5 -6
6 -1 11 2 17 5 13 3 -3 4 -12 1 -19z m-20 -10 c-3 -8 -6 -5 -6 6 -1 11 2 17 5
13 3 -3 4 -12 1 -19z m20 -1310 c-3 -8 -6 -5 -6 6 -1 11 2 17 5 13 3 -3 4 -12
1 -19z m13 -303 l550 -275 0 -419 0 -419 -557 418 -556 418 -3 276 c-1 157 2
276 7 276 5 0 257 -124 559 -275z"/>
</g>
</svg>
