<?xml version="1.0" standalone="no"?>
<!DOCTYPE svg PUBLIC "-//W3C//DTD SVG 20010904//EN"
 "http://www.w3.org/TR/2001/REC-SVG-20010904/DTD/svg10.dtd">
<svg version="1.0" xmlns="http://www.w3.org/2000/svg"
 width="2048.000000pt" height="2048.000000pt" viewBox="0 0 2048.000000 2048.000000"
 preserveAspectRatio="xMidYMid meet">
<metadata>
Created by potrace 1.13, written by Peter Selinger 2001-2015
</metadata>
<g transform="translate(0.000000,2048.000000) scale(0.192120,-0.192120)"
fill="#000000" stroke="none">
<path d="M3406 10064 c-68 -22 -147 -102 -171 -173 -23 -71 -16 -153 20 -219
19 -35 247 -269 786 -808 417 -417 759 -758 759 -759 0 0 -714 0 -1587 0
-1509 0 -1593 -1 -1688 -19 -258 -48 -482 -160 -637 -317 -124 -127 -204 -280
-254 -489 -18 -71 -19 -211 -22 -2850 -3 -3027 -6 -2851 53 -3055 15 -49 46
-132 70 -182 144 -304 374 -487 707 -560 80 -17 235 -18 3893 -18 l3810 0 92
22 c438 104 712 419 797 912 14 85 16 360 16 2835 0 2988 3 2820 -56 3008
-125 395 -469 651 -954 708 -67 8 -544 10 -1638 8 -848 -2 -1542 -3 -1542 -3
0 1 342 342 759 759 539 539 767 773 786 808 105 193 -52 428 -272 405 -29 -3
-74 -17 -101 -32 -35 -19 -291 -269 -875 -854 l-827 -827 -827 827 c-592 593
-840 835 -876 855 -62 33 -150 41 -221 18z m1519 -1674 c207 -198 318 -272
404 -272 88 0 181 62 371 247 115 112 180 165 180 147 0 -5 -7 -15 -15 -22 -8
-7 -15 -16 -15 -21 0 -5 -20 -35 -44 -67 -70 -91 -126 -206 -126 -255 0 -57
47 -136 125 -213 72 -71 125 -99 215 -113 41 -7 363 -11 877 -11 l812 0 11 21
12 21 646 -5 c622 -4 651 -5 746 -26 191 -42 335 -113 438 -214 70 -68 149
-186 175 -260 17 -50 18 -170 18 -2958 l0 -2906 -47 -96 c-27 -52 -48 -106
-48 -120 0 -64 -162 -227 -247 -249 -36 -10 -27 12 33 77 68 75 124 154 169
242 l35 68 0 167 0 166 -51 101 c-84 169 -229 295 -384 335 -125 33 -271 15
-389 -47 -88 -46 -222 -183 -267 -272 -54 -107 -61 -144 -57 -296 3 -127 5
-138 37 -209 85 -188 205 -308 375 -375 53 -21 96 -44 96 -50 0 -34 -139 -35
-3691 -34 -3543 0 -3665 1 -3676 34 -2 6 21 19 49 29 205 71 341 200 424 401
28 67 29 77 29 230 l0 160 -48 97 c-80 164 -227 292 -382 332 -125 33 -271 15
-389 -47 -92 -48 -222 -183 -268 -277 -55 -112 -60 -139 -56 -295 3 -138 4
-141 40 -217 49 -102 84 -152 168 -239 71 -73 92 -112 48 -88 -13 7 -24 12
-26 11 -1 -1 -27 12 -57 29 -88 49 -185 170 -185 228 0 12 -18 56 -39 99 -22
43 -44 105 -51 137 -8 44 -10 821 -8 2925 l3 2865 24 55 c13 30 39 76 58 103
18 26 33 50 33 53 0 14 69 88 119 127 145 112 320 175 546 197 61 5 363 10
680 10 563 0 570 0 583 -20 13 -21 17 -21 865 -18 964 4 904 -1 1012 85 91 74
155 177 155 250 0 19 -14 65 -32 102 -31 67 -145 237 -173 261 -8 7 -15 20
-15 28 0 17 8 11 175 -148z m-3250 -6405 c166 -44 285 -173 317 -345 49 -259
-210 -518 -473 -471 -180 31 -317 168 -351 349 -37 199 105 410 313 466 71 19
122 19 194 1z m7500 0 c166 -44 285 -173 317 -345 49 -259 -210 -518 -473
-471 -180 31 -317 168 -351 349 -37 199 105 410 313 466 71 19 122 19 194 1z
m-7878 -987 c-3 -8 -6 -5 -6 6 -1 11 2 17 5 13 3 -3 4 -12 1 -19z M4757 7509
c-825 -21 -1537 -104 -1917 -225 -109 -34 -329 -126 -405 -168 -205 -115 -458
-376 -563 -580 -172 -337 -255 -611 -316 -1046 -35 -246 -37 -331 -33 -1065 4
-776 2 -752 57 -1080 61 -360 177 -698 325 -945 106 -178 272 -362 423 -470
391 -279 1058 -416 2244 -461 353 -13 1508 -7 1793 10 701 42 1200 120 1550
241 127 44 337 150 420 212 433 327 679 869 775 1710 18 156 20 241 20 851 0
701 -4 782 -46 1067 -66 443 -199 830 -373 1087 -118 175 -258 316 -416 423
-88 59 -127 79 -256 130 -57 23 -118 48 -134 55 -51 23 -240 73 -394 105 -612
124 -1600 178 -2754 149z m1383 -249 c975 -40 1599 -148 1967 -340 486 -254
732 -800 815 -1815 17 -212 17 -1017 0 -1215 -67 -764 -205 -1221 -464 -1534
-110 -133 -231 -225 -402 -307 -469 -224 -1337 -329 -2726 -329 -1558 0 -2466
132 -2892 421 -405 275 -623 812 -698 1724 -18 214 -24 825 -11 1065 62 1132
315 1736 836 1997 368 185 1001 294 1915 332 288 12 1377 12 1660 1z"/>
</g>
</svg>
