<?xml version="1.0" standalone="no"?>
<!DOCTYPE svg PUBLIC "-//W3C//DTD SVG 20010904//EN"
 "http://www.w3.org/TR/2001/REC-SVG-20010904/DTD/svg10.dtd">
<svg version="1.0" xmlns="http://www.w3.org/2000/svg"
 width="2048.000000pt" height="2048.000000pt" viewBox="0 0 2048.000000 2048.000000"
 preserveAspectRatio="xMidYMid meet">
<metadata>
Created by potrace 1.13, written by Peter Selinger 2001-2015
</metadata>
<g transform="translate(0.000000,2048.000000) scale(0.192120,-0.192120)"
fill="#000000" stroke="none">
<path d="M5065 10323 c-563 -33 -1103 -153 -1603 -354 -183 -74 -524 -243
-692 -344 -1125 -676 -1942 -1760 -2275 -3019 -270 -1020 -205 -2120 182
-3106 82 -210 246 -544 358 -730 1034 -1716 2947 -2648 4930 -2399 909 114
1773 483 2499 1066 1265 1017 1957 2585 1856 4203 -92 1460 -811 2797 -1980
3682 -257 194 -504 345 -805 493 -603 297 -1215 460 -1890 505 -137 9 -457 11
-580 3z m575 -243 c382 -26 702 -83 1070 -190 305 -89 543 -176 729 -266 745
-360 1395 -927 1868 -1629 407 -604 673 -1320 767 -2063 19 -149 23 -1000 5
-1160 -110 -1010 -583 -2022 -1279 -2736 -322 -331 -643 -589 -1005 -805 -284
-170 -543 -288 -848 -385 -620 -198 -1045 -268 -1617 -268 -583 0 -1054 81
-1675 287 -877 291 -1742 975 -2313 1830 -182 274 -370 640 -486 951 -131 351
-219 708 -266 1088 -20 156 -21 206 -18 650 4 520 9 571 74 896 129 641 402
1274 777 1800 468 655 1077 1181 1772 1528 483 240 1200 428 1800 471 173 12
477 12 645 1z M4905 9754 c-921 -91 -1764 -454 -2480 -1068 l-127 -108 376
-378 c207 -207 376 -381 376 -386 0 -5 -12 -27 -25 -49 -68 -109 12 -252 260
-466 152 -131 232 -158 300 -98 19 17 35 36 35 41 0 6 -115 126 -255 267
l-255 257 0 206 c0 142 5 231 15 285 65 344 259 569 564 656 l76 22 1495 3
c1069 2 1517 0 1574 -8 100 -15 243 -61 326 -107 182 -99 304 -254 363 -460
l22 -78 3 -2480 2 -2480 514 -514 513 -513 103 118 c595 689 951 1492 1065
2404 22 175 31 650 15 848 -60 777 -308 1492 -743 2142 -683 1021 -1788 1725
-2997 1910 -328 51 -801 65 -1115 34z m697 -254 c304 -21 595 -69 870 -144
177 -49 220 -73 176 -98 -59 -32 -2556 -36 -2630 -3 -57 24 12 59 223 114 442
115 916 161 1361 131z m2098 -703 c678 -453 1203 -1079 1513 -1807 124 -291
218 -610 272 -925 25 -145 25 -152 25 -729 0 -649 0 -648 -76 -981 -127 -557
-404 -1140 -756 -1589 -70 -89 -95 -104 -146 -91 -17 4 -142 121 -357 336
-312 310 -332 333 -350 387 -19 56 -20 113 -25 2502 l-5 2445 -23 75 c-29 92
-91 225 -166 349 -31 52 -56 98 -56 102 0 17 52 -9 150 -74z m-4600 60 c0 -7
-13 -34 -30 -60 -16 -26 -30 -50 -30 -52 0 -3 -15 -28 -33 -57 -19 -29 -54
-102 -79 -162 -71 -168 -82 -174 -169 -97 -65 58 -95 108 -85 142 6 25 116
109 291 226 112 75 135 85 135 60z M1743 7948 c-177 -249 -278 -417 -402 -668
-240 -486 -384 -997 -436 -1544 -17 -185 -20 -576 -4 -763 104 -1274 739
-2425 1764 -3200 578 -436 1285 -731 2010 -838 259 -38 444 -48 757 -42 381 8
606 36 957 123 590 145 1138 408 1647 791 l29 22 -247 248 c-137 137 -248 251
-248 255 0 4 14 29 30 55 38 60 39 104 2 171 -66 124 -286 332 -410 390 -64
29 -98 25 -158 -18 l-40 -29 -1638 1638 -1638 1638 31 55 c17 30 31 69 31 87
0 62 -66 165 -169 268 -155 152 -284 243 -346 243 -36 0 -89 -31 -105 -61 -11
-20 6 -40 244 -278 l256 -256 0 -1703 0 -1702 1669 0 1670 0 3 30 c3 29 15 18
266 -233 l263 -263 -31 -94 c-89 -273 -267 -449 -527 -523 l-78 -22 -1495 -3
c-1071 -2 -1517 0 -1574 8 -348 50 -601 257 -688 565 l-23 80 -3 2205 -2 2205
-638 638 c-350 350 -640 637 -643 637 -3 0 -42 -51 -86 -112z m183 -317 c21
-16 234 -224 472 -463 l432 -434 6 -2139 c6 -2324 4 -2232 61 -2403 27 -80 99
-225 137 -277 33 -43 76 -120 76 -134 0 -30 -161 63 -340 198 -188 142 -290
230 -456 395 -318 319 -539 624 -760 1051 -205 397 -336 810 -409 1296 -14 89
-16 189 -13 655 4 547 4 550 31 692 99 525 262 962 515 1385 127 212 165 240
248 178z m3251 -3244 c1256 -1255 1233 -1230 1171 -1253 -13 -4 -555 -9 -1205
-11 l-1183 -4 0 1231 c0 970 3 1230 12 1230 7 0 549 -537 1205 -1193z m2470
-2523 c7 -19 -30 -60 -68 -73 -40 -14 -39 7 2 54 33 38 56 44 66 19z m-1032
-462 c136 -24 -107 -121 -480 -191 -60 -12 -132 -26 -160 -31 -94 -18 -350
-41 -535 -47 -374 -12 -751 30 -1140 127 -204 51 -300 89 -300 121 0 13 9 19
33 22 58 7 2541 6 2582 -1z M3660 7523 l0 -308 1641 -1641 1641 -1641 -26 -51
c-63 -125 -9 -230 228 -444 173 -156 260 -189 331 -127 19 17 35 35 35 41 0 5
-115 125 -255 267 l-255 258 0 1976 0 1977 -1670 0 -1670 0 0 -307z m3020
-1498 c0 -1184 -3 -1495 -12 -1495 -7 0 -623 610 -1368 1355 l-1355 1355 -3
140 -4 140 1371 0 1371 0 0 -1495z"/>
</g>
</svg>
