<?xml version="1.0" standalone="no"?>
<!DOCTYPE svg PUBLIC "-//W3C//DTD SVG 20010904//EN"
 "http://www.w3.org/TR/2001/REC-SVG-20010904/DTD/svg10.dtd">
<svg version="1.0" xmlns="http://www.w3.org/2000/svg"
 width="2048.000000pt" height="2048.000000pt" viewBox="0 0 2048.000000 2048.000000"
 preserveAspectRatio="xMidYMid meet">
<metadata>
Created by potrace 1.13, written by Peter Selinger 2001-2015
</metadata>
<g transform="translate(0.000000,2048.000000) scale(0.192120,-0.192120)"
fill="#000000" stroke="none">
<path d="M5145 10319 c-284 -36 -521 -166 -678 -371 -112 -147 -192 -340 -228
-546 -19 -112 -19 -198 -19 -4095 0 -4374 -4 -4077 60 -4269 77 -230 206 -393
412 -522 135 -84 327 -149 512 -175 110 -16 4066 -15 4191 0 481 59 778 342
907 864 l22 90 4 3995 c2 2888 0 4022 -8 4094 -6 54 -20 131 -30 171 -107 417
-451 696 -944 764 -96 14 -4095 13 -4201 0z m4165 -299 c353 -44 628 -221 704
-455 15 -46 16 -389 14 -4225 l-3 -4175 -34 -85 c-111 -276 -309 -420 -631
-460 -117 -14 -4003 -14 -4120 0 -179 22 -352 83 -477 168 -116 79 -206 203
-247 341 -15 50 -16 414 -16 4185 0 4114 0 4131 20 4195 92 294 316 467 660
510 100 13 4028 13 4130 1z M4845 9171 c-53 -13 -97 -42 -159 -105 -69 -69
-96 -102 -96 -116 0 -6 -4 -10 -10 -10 -7 0 -10 -1210 -10 -3610 0 -2400 3
-3610 10 -3610 6 0 10 -7 10 -15 0 -8 4 -15 9 -15 5 0 14 -14 21 -30 18 -43
117 -143 170 -171 l45 -24 2440 0 2440 0 40 22 c22 12 58 39 81 60 46 42 114
138 114 159 0 8 5 14 10 14 7 0 10 1210 10 3610 0 2107 -4 3610 -9 3610 -5 0
-12 11 -15 25 -9 36 -141 164 -195 189 l-46 21 -2415 2 c-1328 0 -2428 -2
-2445 -6z m4930 -3841 l0 -3610 -2502 0 -2503 0 0 3610 0 3610 2503 0 2502 0
0 -3610z M2030 7447 c-161 -37 -268 -152 -299 -322 -7 -37 -11 -231 -11 -512
l0 -453 -452 0 c-503 0 -523 -2 -656 -66 -146 -70 -248 -209 -272 -371 -8 -48
-10 -201 -7 -440 4 -397 4 -399 62 -514 39 -76 129 -161 217 -203 133 -64 153
-66 656 -66 l452 0 0 -453 c0 -281 4 -475 11 -512 56 -305 356 -420 674 -257
64 32 135 100 818 781 412 410 772 778 802 816 29 39 70 101 91 139 l37 69
-22 18 c-13 11 -31 19 -40 20 -9 0 -24 2 -33 4 -56 11 -104 -34 -853 -785
-407 -408 -766 -762 -797 -786 -87 -68 -158 -97 -250 -102 -131 -8 -208 38
-208 123 0 17 -6 37 -12 43 -10 10 -14 111 -16 422 -2 253 -7 410 -12 410 -6
0 -10 6 -10 13 0 44 -104 173 -177 218 -62 39 -92 42 -503 48 -387 7 -408 8
-470 30 -83 29 -143 75 -169 129 -20 41 -21 57 -21 453 l0 410 45 48 c25 26
45 52 45 58 0 13 65 48 130 69 47 15 115 18 455 24 288 5 411 11 438 20 89 31
227 175 227 238 0 17 5 32 10 32 6 0 10 136 10 388 0 416 3 449 52 523 75 112
250 101 421 -27 34 -26 401 -386 816 -802 531 -530 766 -760 794 -772 22 -10
51 -16 65 -14 31 6 82 32 82 42 0 18 -92 166 -138 224 -28 35 -385 396 -794
804 -679 677 -749 744 -813 776 -129 66 -266 90 -375 65z"/>
</g>
</svg>
