<?xml version="1.0" standalone="no"?>
<!DOCTYPE svg PUBLIC "-//W3C//DTD SVG 20010904//EN"
 "http://www.w3.org/TR/2001/REC-SVG-20010904/DTD/svg10.dtd">
<svg version="1.0" xmlns="http://www.w3.org/2000/svg"
 width="2048.000000pt" height="2048.000000pt" viewBox="0 0 2048.000000 2048.000000"
 preserveAspectRatio="xMidYMid meet">
<metadata>
Created by potrace 1.13, written by Peter Selinger 2001-2015
</metadata>
<g transform="translate(0.000000,2048.000000) scale(0.192120,-0.192120)"
fill="#000000" stroke="none">
<path d="M1303 10319 c-33 -5 -104 -20 -155 -33 -436 -110 -711 -388 -795
-802 -17 -85 -18 -274 -18 -4129 0 -3899 1 -4043 19 -4125 46 -211 115 -370
223 -514 136 -181 328 -301 578 -360 l90 -21 4005 -3 c2822 -2 4029 0 4088 8
277 36 524 147 691 310 165 160 259 360 290 615 16 128 16 8002 0 8130 -31
255 -125 455 -290 615 -165 161 -407 271 -683 309 -96 14 -7949 13 -8043 0z
m7992 -269 c365 -38 646 -215 740 -465 l25 -65 0 -4181 0 -4180 -26 -77 c-80
-239 -286 -397 -619 -475 l-90 -22 -3960 -3 c-2870 -2 -3987 0 -4059 8 -359
41 -583 213 -692 532 l-29 83 0 4161 0 4161 47 95 c57 114 137 201 251 272
125 78 297 136 457 155 105 12 7841 13 7955 1z M1920 9739 c-124 -9 -211 -28
-319 -69 -264 -102 -495 -359 -608 -675 l-28 -80 -3 -3580 -2 -3580 26 -85
c61 -200 202 -410 357 -535 103 -83 268 -166 400 -199 176 -46 255 -47 2037
-44 l1675 4 100 23 c192 43 335 120 466 250 142 141 249 326 309 535 l30 103
0 926 c0 509 -3 927 -7 929 -5 1 -16 20 -27 40 -22 44 -105 131 -159 166 -24
16 -71 33 -121 42 -69 14 -81 19 -84 37 -2 12 5 29 15 37 10 8 42 33 71 56
101 79 184 215 222 365 18 71 20 113 20 388 l0 307 183 0 c100 0 214 5 252 10
178 26 336 164 417 363 25 61 28 82 28 178 0 105 -1 111 -37 186 -30 61 -57
97 -128 169 -88 88 -147 127 -240 160 -22 7 -48 14 -57 14 -11 0 -18 8 -18 18
0 14 18 20 106 34 73 11 125 25 168 47 110 54 218 180 279 324 28 66 29 76 25
181 -4 95 -9 119 -33 171 -61 130 -194 260 -313 306 -53 20 -80 23 -363 29
-384 9 -391 11 -300 115 27 31 58 76 68 101 10 24 21 44 26 44 4 0 7 303 7
673 -1 617 -2 677 -19 737 -52 189 -149 347 -299 491 -185 177 -397 267 -685
289 -145 11 -3282 11 -3437 -1z m3590 -263 c186 -44 320 -116 435 -231 90 -90
148 -188 186 -315 24 -81 23 -24 32 -1083 l2 -297 -277 0 -278 0 0 280 0 280
-1945 0 -1945 0 0 -2780 0 -2780 1945 0 1945 0 0 558 0 557 276 -2 275 -1 -1
-874 c-1 -809 -2 -880 -19 -963 -79 -384 -323 -613 -696 -655 -71 -8 -596 -10
-1830 -8 l-1730 4 -84 22 c-342 92 -536 274 -613 577 l-23 90 0 3455 0 3455
23 88 c97 383 323 594 682 637 36 4 853 7 1815 6 1648 -2 1754 -3 1825 -20z
m-130 -1740 c0 -59 4 -108 10 -111 6 -3 10 -22 10 -41 0 -19 4 -34 8 -34 4 0
14 -16 21 -37 8 -22 48 -70 102 -124 49 -48 89 -94 89 -102 0 -9 -14 -26 -30
-39 -155 -119 -230 -200 -280 -298 -49 -97 -60 -169 -60 -393 0 -220 -5 -273
-26 -281 -27 -10 -41 6 -99 117 -297 570 -735 887 -1293 938 -329 30 -674 -55
-950 -234 -165 -107 -360 -298 -467 -458 -60 -89 -177 -325 -203 -409 -69
-223 -67 -203 -67 -590 0 -340 1 -359 24 -450 79 -320 248 -618 481 -850 310
-309 731 -463 1171 -430 557 43 991 346 1272 889 38 75 81 151 94 169 23 30
25 31 41 15 15 -14 17 -47 20 -257 2 -217 10 -311 31 -371 54 -151 176 -302
300 -369 42 -24 71 -46 71 -55 0 -9 -19 -32 -42 -51 -74 -62 -179 -174 -184
-197 -4 -13 -10 -23 -15 -23 -5 0 -9 -9 -9 -20 0 -11 -4 -20 -10 -20 -6 0 -10
-128 -10 -365 0 -358 0 -365 -20 -365 -17 0 -20 -7 -20 -45 l0 -45 -1685 0
-1685 0 0 2520 0 2520 1705 0 1705 0 0 -104z m-1470 -661 c504 -76 912 -428
1079 -930 61 -183 75 -279 75 -510 0 -226 -10 -307 -59 -479 -126 -433 -429
-764 -828 -905 -161 -57 -271 -74 -467 -75 -255 0 -429 40 -631 145 -381 200
-639 573 -714 1033 -100 614 130 1206 589 1515 267 180 623 257 956 206z
m3005 -54 c47 -21 110 -88 133 -140 19 -45 21 -163 3 -215 -18 -51 -85 -124
-136 -147 -37 -17 -74 -19 -442 -19 l-403 0 0 -290 0 -290 320 0 c192 0 339
-4 370 -11 160 -34 248 -198 195 -360 -12 -36 -33 -68 -65 -100 -76 -76 -95
-79 -486 -79 l-333 0 -3 -482 c-3 -466 -4 -485 -24 -528 -47 -101 -144 -161
-264 -161 -129 -1 -210 43 -265 142 l-30 54 -3 1209 -2 1209 23 51 c35 75 73
115 142 147 l60 29 585 0 c544 0 588 -2 625 -19z M3523 6521 c-330 -90 -534
-388 -559 -821 -12 -201 26 -410 105 -575 89 -187 220 -307 406 -371 73 -26
93 -28 225 -29 124 0 156 3 220 23 257 80 421 275 502 600 19 75 22 114 22
282 0 168 -3 207 -22 283 -47 187 -119 323 -227 432 -81 80 -152 125 -257 162
-102 36 -307 43 -415 14z m360 -281 c122 -38 221 -132 274 -260 22 -53 23 -67
23 -342 0 -279 -1 -290 -24 -351 -80 -214 -221 -310 -454 -309 -241 1 -401
120 -472 348 -18 59 -20 92 -20 308 0 258 4 286 54 385 64 125 188 214 339
241 73 13 203 4 280 -20z M7856 7274 c-148 -36 -314 -175 -387 -327 l-39 -81
0 -1245 c0 -1150 1 -1249 17 -1291 54 -142 180 -288 302 -348 73 -36 78 -37
186 -37 103 0 114 2 175 32 115 57 241 199 290 330 43 116 50 183 50 496 l0
297 188 0 c299 1 386 26 509 145 72 70 125 151 159 241 19 52 24 83 24 163 0
151 -39 232 -174 366 -55 55 -101 90 -146 112 -86 41 -117 53 -140 53 -12 0
-20 7 -20 18 0 14 18 20 106 34 144 22 210 55 302 153 53 55 83 98 117 168
l45 93 0 124 c0 123 0 124 -39 205 -74 152 -227 278 -370 305 -32 6 -264 10
-575 9 -414 0 -533 -4 -580 -15z m1195 -244 c96 -27 172 -143 172 -260 0 -117
-76 -233 -169 -259 -25 -7 -183 -11 -431 -11 l-393 0 0 -289 0 -290 348 -3
347 -3 57 -28 c104 -51 155 -144 146 -262 -10 -118 -87 -214 -196 -245 -22 -6
-174 -10 -369 -10 l-332 0 -3 -482 c-3 -541 0 -518 -79 -603 -53 -58 -121 -86
-208 -86 -38 0 -87 4 -108 10 -53 14 -117 62 -147 108 -53 83 -51 30 -51 1298
0 1351 -7 1244 89 1341 86 85 60 82 716 83 357 1 589 -3 611 -9z"/>
</g>
</svg>
