<?xml version="1.0" standalone="no"?>
<!DOCTYPE svg PUBLIC "-//W3C//DTD SVG 20010904//EN"
 "http://www.w3.org/TR/2001/REC-SVG-20010904/DTD/svg10.dtd">
<svg version="1.0" xmlns="http://www.w3.org/2000/svg"
 width="2048.000000pt" height="2048.000000pt" viewBox="0 0 2048.000000 2048.000000"
 preserveAspectRatio="xMidYMid meet">
<metadata>
Created by potrace 1.13, written by Peter Selinger 2001-2015
</metadata>
<g transform="translate(0.000000,2048.000000) scale(0.192120,-0.192120)"
fill="#000000" stroke="none">
<path d="M5105 8639 c-566 -100 -963 -422 -1100 -894 -55 -192 -60 -244 -60
-710 0 -418 1 -432 23 -518 85 -320 259 -512 542 -599 l75 -23 1940 -3 c2149
-3 2003 -7 2187 62 124 47 191 90 283 181 58 58 92 102 121 157 l40 78 139
-93 c273 -182 525 -324 654 -368 70 -25 173 -25 226 0 46 21 107 84 132 138
17 36 18 110 18 1228 l0 1190 -24 48 c-29 58 -96 119 -149 135 -63 19 -145 15
-214 -12 -140 -52 -409 -205 -657 -372 -68 -46 -126 -84 -130 -84 -3 0 -26 39
-51 88 -34 68 -63 106 -130 173 -94 95 -186 149 -320 191 l-75 23 -1680 2
c-1622 2 -1684 1 -1790 -18z m3488 -282 c125 -37 165 -64 302 -203 151 -152
184 -178 246 -195 67 -18 135 8 319 120 347 211 487 281 560 281 l30 0 0
-1095 0 -1095 -31 0 c-67 0 -224 77 -490 241 -209 129 -263 154 -339 154 -59
0 -71 -4 -122 -38 -31 -21 -111 -89 -177 -152 -170 -161 -272 -206 -506 -225
-161 -13 -3502 -13 -3657 0 -256 21 -394 102 -484 285 l-39 79 0 555 0 556 24
70 c69 203 171 335 357 460 162 110 380 186 619 218 17 2 773 4 1680 3 1542
-1 1654 -2 1708 -19z M2670 7270 c-565 -6 -587 -7 -657 -28 -144 -44 -223 -89
-319 -182 -125 -122 -220 -318 -239 -497 -3 -32 -8 -72 -11 -90 l-5 -31 -138
63 c-293 134 -530 207 -681 209 -84 1 -101 -2 -145 -25 -28 -14 -64 -44 -82
-67 -67 -88 -63 2 -63 -1573 0 -1600 -5 -1486 74 -1576 56 -64 102 -83 206
-83 157 0 416 80 726 225 53 25 99 45 100 45 2 0 4 -453 4 -1007 0 -618 4
-1043 10 -1098 56 -490 358 -807 881 -921 81 -18 190 -19 2754 -19 l2670 0 91
22 c134 32 240 76 340 142 224 148 370 376 451 706 16 64 17 220 22 1970 4
1045 6 1901 5 1902 0 2 -46 -4 -102 -12 -89 -14 -346 -15 -2050 -12 -2156 3
-1990 -2 -2209 68 -190 60 -346 153 -489 292 -157 151 -277 344 -349 561 -66
197 -69 224 -75 641 l-5 380 -65 1 c-36 0 -328 -3 -650 -6z m429 -296 l31 -6
0 -179 c0 -110 6 -219 15 -282 75 -500 363 -965 758 -1226 160 -105 355 -182
571 -223 111 -22 116 -22 1999 -25 l1887 -4 0 -1784 0 -1784 -30 -83 c-114
-312 -345 -468 -722 -485 l-128 -6 0 41 c0 30 -4 42 -15 42 -13 0 -15 145 -18
1143 l-3 1142 -22 98 c-86 376 -355 655 -725 751 -54 14 -156 30 -230 36 -192
16 -2959 8 -3042 -9 -287 -58 -513 -234 -648 -506 -51 -103 -79 -184 -109
-317 -21 -91 -22 -114 -25 -1215 -4 -1108 -4 -1123 -23 -1123 -17 0 -20 -7
-20 -40 l0 -40 -42 0 c-78 0 -238 29 -328 60 -218 72 -358 178 -439 329 -37
70 -44 91 -74 211 -20 83 -21 111 -24 1075 -2 545 -7 999 -12 1010 -4 11 -19
45 -32 75 -31 71 -148 192 -214 221 -43 19 -53 20 -109 9 -33 -7 -136 -41
-228 -76 -226 -86 -328 -115 -413 -117 l-70 -2 0 1360 0 1360 59 -3 c84 -4
198 -35 366 -99 275 -106 335 -120 405 -93 40 15 152 127 190 190 19 31 53
112 75 181 23 68 55 145 72 171 84 133 232 204 453 218 152 9 822 12 864 4z
m3488 -3049 c292 -55 504 -205 609 -430 44 -96 65 -182 73 -301 3 -55 4 -642
1 -1302 l-5 -1202 -92 56 c-80 49 -101 57 -156 61 -80 7 -123 -7 -205 -64 -35
-24 -70 -47 -78 -50 -12 -4 -14 180 -16 1238 l-3 1244 -23 51 c-13 28 -40 67
-60 87 -75 73 49 68 -1569 68 -1606 -1 -1507 3 -1587 -63 -21 -17 -49 -54 -62
-82 l-24 -51 -1 -1185 c-1 -652 -4 -1213 -8 -1248 l-6 -63 -80 51 c-44 28 -96
55 -115 60 -46 13 -122 13 -157 -1 -26 -9 -42 -19 -141 -84 -21 -14 -41 -25
-45 -25 -4 0 -6 575 -4 1278 l3 1277 22 84 c91 342 271 533 559 595 104 22
3053 23 3170 1z m-114 -779 c16 -8 17 -72 17 -1132 l0 -1124 -1450 0 -1450 0
0 1119 0 1119 28 10 c15 6 41 13 57 15 61 8 2781 2 2798 -7z"/>
</g>
</svg>
