<?xml version="1.0" standalone="no"?>
<!DOCTYPE svg PUBLIC "-//W3C//DTD SVG 20010904//EN"
 "http://www.w3.org/TR/2001/REC-SVG-20010904/DTD/svg10.dtd">
<svg version="1.0" xmlns="http://www.w3.org/2000/svg"
 width="2048.000000pt" height="2048.000000pt" viewBox="0 0 2048.000000 2048.000000"
 preserveAspectRatio="xMidYMid meet">
<metadata>
Created by potrace 1.13, written by Peter Selinger 2001-2015
</metadata>
<g transform="translate(0.000000,2048.000000) scale(0.192120,-0.192120)"
fill="#000000" stroke="none">
<path d="M4160 10133 c-106 -38 -190 -172 -177 -284 11 -90 39 -134 175 -270
150 -149 199 -179 297 -178 71 1 108 13 168 56 68 48 99 109 105 204 7 116
-14 152 -185 320 -113 111 -147 139 -187 152 -61 21 -136 21 -196 0z M3720
9499 c-35 -16 -264 -239 -1010 -983 l-965 -964 -260 -5 c-325 -6 -416 -25
-605 -124 -261 -136 -427 -371 -518 -733 l-27 -105 -3 -2605 c-2 -1870 0
-2633 8 -2704 56 -494 357 -806 890 -922 82 -18 226 -19 4100 -19 3874 0 4018
1 4100 19 190 41 326 96 458 183 250 166 395 413 432 740 8 70 10 843 8 2703
l-3 2605 -27 105 c-54 217 -123 365 -233 501 -150 186 -383 311 -650 349 -45
6 -1257 10 -3434 10 l-3363 0 4 -55 c8 -95 49 -131 167 -146 36 -4 1505 -8
3264 -9 2201 0 3228 -3 3294 -11 221 -24 362 -88 498 -224 101 -102 148 -175
221 -345 l49 -115 3 -2700 c2 -2696 2 -2700 -18 -2768 -30 -100 -114 -256
-171 -321 -132 -147 -364 -254 -619 -286 -57 -7 -1349 -10 -3988 -10 -4272 0
-4004 -4 -4196 57 -167 52 -331 151 -414 251 -52 62 -105 161 -131 246 l-21
68 0 2735 c0 3052 -7 2778 72 2943 123 258 316 407 595 460 32 6 140 15 240
20 119 6 194 14 217 24 43 18 71 62 87 133 l12 53 371 0 371 0 767 768 c540
540 773 780 789 812 49 98 22 236 -63 317 -75 73 -204 95 -298 52z M7770 6705
c-451 -62 -837 -307 -1084 -688 -346 -531 -320 -1237 63 -1744 55 -73 197
-219 266 -276 61 -49 182 -126 270 -170 366 -184 778 -212 1171 -82 375 124
700 408 881 768 212 423 210 933 -4 1362 -290 580 -925 917 -1563 830z m396
-279 c16 -3 49 -8 74 -11 139 -19 336 -97 477 -191 52 -34 131 -100 193 -163
146 -147 227 -274 284 -448 l27 -82 -3 -353 -3 -353 -37 -99 c-82 -218 -232
-415 -424 -554 -71 -51 -244 -149 -244 -138 0 4 -13 0 -28 -8 -52 -27 -265
-77 -334 -79 -38 -1 -68 -4 -68 -7 0 -3 -52 -5 -115 -5 -63 0 -115 3 -115 7 0
4 -15 5 -32 3 -39 -6 -160 17 -272 52 -44 13 -88 26 -97 28 -9 2 -56 23 -105
48 -100 50 -232 144 -312 221 -122 117 -233 293 -287 456 l-36 108 3 353 3
354 27 74 c115 309 370 566 697 702 96 40 238 76 332 84 40 3 75 7 76 9 5 5
290 -2 319 -8z M7886 6392 c-3 -5 -22 -8 -43 -7 -21 1 -42 -1 -48 -4 -5 -3
-50 -16 -99 -28 -160 -41 -292 -113 -456 -249 -80 -66 -86 -72 -171 -179 -96
-120 -172 -266 -219 -421 -20 -67 -21 -89 -18 -330 3 -256 3 -260 32 -339 32
-91 114 -253 169 -336 53 -80 186 -219 270 -282 253 -190 574 -272 855 -218
132 26 328 111 443 194 215 153 372 375 470 662 l34 100 0 240 0 240 -33 94
c-64 184 -109 267 -229 418 -78 98 -181 193 -278 254 -33 21 -64 42 -70 46
-32 25 -171 85 -235 101 -138 35 -179 44 -189 38 -5 -4 -12 -2 -16 4 -7 12
-162 14 -169 2z m349 -266 c274 -82 482 -257 606 -510 76 -157 92 -230 93
-421 0 -192 -17 -273 -94 -430 -123 -252 -357 -444 -630 -517 -124 -33 -358
-33 -480 0 -341 93 -592 337 -696 677 -26 83 -28 104 -28 260 -1 147 2 181 22
253 85 312 327 573 622 672 123 41 187 49 345 46 127 -3 164 -7 240 -30z
M1756 6429 c-199 -47 -343 -264 -309 -464 21 -120 83 -220 178 -285 117 -80
284 -93 411 -30 88 43 157 112 197 197 39 85 49 207 23 295 -60 208 -285 337
-500 287z m209 -298 c29 -16 30 -21 33 -91 4 -97 -2 -117 -40 -140 -73 -44
-177 -33 -235 25 -30 30 -33 38 -33 97 0 56 3 68 25 88 52 49 183 60 250 21z
M3146 6429 c-113 -27 -224 -121 -279 -237 -29 -61 -32 -75 -32 -167 0 -92 3
-106 32 -167 79 -168 228 -257 411 -245 67 4 96 11 148 37 83 41 154 112 196
197 31 64 33 73 33 178 0 98 -3 116 -26 165 -89 188 -286 285 -483 239z m202
-296 c36 -18 37 -19 40 -83 5 -97 -4 -128 -41 -150 -72 -44 -176 -33 -234 25
-30 30 -33 38 -33 97 0 55 4 68 24 87 54 51 167 62 244 24z M4505 6419 c-250
-86 -361 -379 -229 -604 27 -47 104 -123 154 -153 132 -77 327 -65 450 27 168
127 220 366 118 541 -30 50 -106 127 -153 154 -98 58 -233 71 -340 35z m235
-288 l35 -18 0 -90 c0 -67 -4 -93 -15 -105 -63 -62 -191 -59 -257 7 -30 30
-33 38 -33 97 0 55 4 68 24 87 54 51 170 61 246 22z M1726 5030 c-288 -102
-376 -451 -172 -677 175 -194 500 -169 645 48 57 85 74 151 69 258 -7 157 -89
281 -232 351 -60 30 -80 35 -160 37 -73 3 -103 -1 -150 -17z m236 -287 c32
-18 33 -21 36 -93 4 -98 -1 -114 -45 -141 -28 -17 -51 -23 -98 -22 -112 1
-165 49 -165 150 0 50 4 63 24 82 56 53 179 64 248 24z M3119 5032 c-110 -37
-199 -118 -253 -231 -28 -60 -31 -75 -31 -166 0 -92 3 -106 32 -167 92 -194
301 -290 501 -229 114 34 206 116 261 231 23 49 26 67 26 165 0 105 -2 114
-33 178 -42 86 -113 156 -198 198 -58 29 -79 34 -158 36 -68 2 -105 -2 -147
-15z m233 -289 c32 -19 33 -20 36 -100 3 -74 1 -83 -23 -111 -30 -36 -99 -54
-160 -43 -91 17 -125 57 -125 146 0 52 4 65 24 84 56 53 179 64 248 24z M4510
5031 c-173 -55 -290 -216 -290 -398 0 -313 355 -516 625 -357 47 27 123 104
153 154 53 92 66 222 32 333 -66 213 -307 337 -520 268z m225 -287 l40 -19 3
-83 c3 -80 2 -84 -26 -111 -67 -68 -202 -60 -261 15 -16 21 -21 41 -21 88 0
33 4 66 8 71 45 62 172 81 257 39z M1723 3641 c-237 -88 -347 -354 -239 -576
52 -105 141 -180 257 -216 193 -60 399 33 492 220 30 62 32 72 32 176 0 103
-2 114 -32 177 -41 88 -113 160 -201 201 -58 27 -80 32 -162 34 -75 3 -106 -1
-147 -16z m227 -283 l45 -23 3 -87 c3 -79 1 -88 -20 -108 -32 -31 -61 -40
-124 -40 -112 0 -164 47 -164 147 0 50 4 63 24 82 56 53 163 66 236 29z M3112
3641 c-71 -27 -108 -51 -164 -108 -126 -129 -153 -317 -69 -481 82 -160 282
-252 459 -212 117 27 231 119 285 229 30 62 32 72 32 176 0 103 -2 114 -32
177 -41 88 -113 160 -201 201 -58 27 -80 32 -162 34 -75 3 -106 -1 -148 -16z
m240 -288 c32 -19 33 -21 36 -96 2 -43 -2 -86 -8 -97 -20 -37 -70 -60 -133
-60 -114 0 -167 46 -167 147 0 60 3 69 32 92 56 44 177 51 240 14z M4515 3647
c-242 -80 -362 -347 -257 -572 121 -256 450 -324 656 -135 99 91 142 200 133
336 -9 150 -95 277 -233 345 -60 30 -78 34 -163 36 -60 2 -111 -2 -136 -10z
m227 -294 c32 -19 33 -21 36 -96 2 -43 -2 -86 -8 -97 -20 -37 -70 -60 -133
-60 -69 0 -116 18 -146 56 -19 24 -21 38 -19 98 l3 71 55 28 c48 25 63 28 117
24 35 -3 76 -13 95 -24z M7842 3100 c-321 -45 -602 -247 -743 -535 -78 -159
-93 -229 -93 -430 0 -143 4 -182 22 -247 168 -608 850 -904 1399 -608 428 230
619 734 453 1193 -60 165 -200 349 -346 453 -86 62 -234 130 -334 154 -98 23
-267 33 -358 20z m315 -289 c186 -37 393 -188 471 -343 l32 -64 0 -262 0 -262
-29 -63 c-103 -219 -277 -337 -556 -377 -86 -12 -165 -13 -165 -2 0 5 -13 7
-29 4 -16 -2 -64 4 -107 14 -44 9 -80 16 -81 16 -2 -1 -27 9 -55 22 -131 58
-249 158 -311 263 -61 105 -67 140 -67 389 0 257 5 279 90 394 103 139 300
255 474 280 68 9 268 4 333 -9z M7875 2765 c-5 -2 -35 -11 -65 -20 -56 -17
-160 -82 -215 -133 -82 -76 -148 -173 -189 -275 -26 -66 -27 -75 -24 -216 l3
-146 53 -107 c155 -311 449 -450 716 -338 143 60 258 172 333 323 60 119 65
146 61 306 -4 145 -4 147 -41 222 -85 176 -239 321 -391 368 -61 19 -203 28
-241 16z m278 -258 c312 -154 306 -600 -11 -750 -62 -30 -75 -32 -172 -32 -97
0 -110 2 -173 32 -169 80 -272 269 -239 443 30 162 128 276 287 333 38 13 73
17 141 14 82 -2 99 -7 167 -40z M1733 2255 c-64 -20 -124 -58 -175 -113 -228
-244 -99 -633 231 -694 175 -33 370 72 449 239 24 52 27 69 27 168 0 102 -2
115 -31 175 -53 112 -130 183 -241 221 -66 22 -195 25 -260 4z m217 -287 l45
-23 3 -75 c4 -99 0 -112 -47 -138 -79 -45 -211 -19 -246 48 -15 29 -20 114 -9
145 7 16 50 42 94 56 50 15 115 9 160 -13z M3123 2256 c-61 -20 -123 -58 -171
-106 -201 -201 -143 -540 113 -666 208 -101 456 -11 562 204 26 52 28 67 28
167 0 103 -2 114 -32 177 -41 88 -113 160 -201 201 -59 28 -79 32 -162 34 -59
2 -111 -3 -137 -11z m217 -288 l45 -23 3 -77 c2 -44 -2 -87 -8 -98 -45 -85
-239 -78 -285 10 -15 30 -20 114 -8 145 3 10 29 28 57 41 67 31 137 32 196 2z
M4515 2257 c-249 -83 -365 -352 -250 -583 155 -314 597 -306 748 14 30 62 32
75 32 172 0 100 -2 109 -34 175 -44 89 -113 157 -199 198 -58 27 -79 32 -162
34 -59 2 -110 -2 -135 -10z m215 -289 l45 -23 3 -77 c2 -44 -2 -87 -8 -98 -20
-37 -70 -60 -133 -60 -71 0 -117 18 -146 59 -18 25 -21 41 -19 98 l3 68 54 28
c70 35 138 36 201 5z"/>
</g>
</svg>
