<?xml version="1.0" standalone="no"?>
<!DOCTYPE svg PUBLIC "-//W3C//DTD SVG 20010904//EN"
 "http://www.w3.org/TR/2001/REC-SVG-20010904/DTD/svg10.dtd">
<svg version="1.0" xmlns="http://www.w3.org/2000/svg"
 width="2048.000000pt" height="2048.000000pt" viewBox="0 0 2048.000000 2048.000000"
 preserveAspectRatio="xMidYMid meet">
<metadata>
Created by potrace 1.13, written by Peter Selinger 2001-2015
</metadata>
<g transform="translate(0.000000,2048.000000) scale(0.192120,-0.192120)"
fill="#000000" stroke="none">
<path d="M1255 8644 c-297 -54 -560 -200 -711 -395 -86 -113 -143 -237 -187
-409 l-21 -85 -4 -2220 c-2 -1553 0 -2248 8 -2315 22 -190 87 -367 185 -505
169 -238 481 -398 844 -435 140 -14 7773 -14 7958 0 523 40 850 333 976 875
21 90 21 95 25 2290 2 1963 1 2212 -13 2309 -62 427 -313 716 -735 846 -209
65 123 60 -4259 59 -3416 -1 -3997 -3 -4066 -15z m7355 -263 c0 -19 13 -20
373 -24 333 -4 381 -6 458 -25 294 -71 500 -226 570 -429 18 -54 19 -100 19
-1300 0 -1034 2 -1243 13 -1243 22 0 27 -221 27 -1225 0 -900 0 -923 -21
-1006 -11 -46 -41 -126 -66 -178 -38 -80 -59 -108 -137 -186 -76 -77 -105 -99
-178 -134 -48 -24 -129 -52 -180 -64 l-93 -22 -3990 -3 c-4331 -3 -4079 -6
-4283 49 -230 61 -412 223 -491 433 l-26 71 3 2360 c3 1926 6 2369 17 2406 58
202 223 352 483 439 153 51 241 60 610 60 325 0 332 0 332 20 0 20 7 20 3280
20 3231 0 3280 0 3280 -19z M1410 7250 c-150 -27 -309 -142 -438 -315 -104
-140 -205 -387 -261 -640 -52 -231 -53 -248 -48 -730 3 -415 5 -458 25 -548
31 -138 70 -292 87 -335 54 -144 72 -187 112 -261 61 -114 106 -173 195 -256
88 -82 197 -147 288 -172 92 -25 439 -25 520 0 87 26 130 83 130 171 0 42 -1
44 -37 50 -21 3 -162 6 -313 6 -269 0 -276 1 -326 24 -71 33 -125 85 -189 180
-117 176 -198 428 -247 771 -21 145 -17 709 5 860 65 432 191 733 367 878 75
62 105 67 441 67 335 0 315 -5 303 79 -11 75 -40 118 -103 149 -55 26 -60 27
-261 29 -113 1 -225 -2 -250 -7z M8805 7250 c-115 -25 -162 -77 -167 -187 l-3
-58 320 -5 c314 -5 321 -5 367 -29 197 -101 353 -439 425 -916 26 -173 26
-717 0 -890 -49 -329 -128 -569 -242 -741 -64 -95 -118 -147 -189 -180 -50
-23 -57 -24 -326 -24 -151 0 -292 -3 -312 -6 -37 -6 -38 -8 -38 -50 0 -86 43
-145 124 -169 70 -21 309 -30 430 -16 156 18 268 74 391 196 177 174 285 418
385 865 28 130 31 189 27 610 l-4 435 -35 150 c-70 294 -155 517 -253 665 -64
96 -182 219 -258 269 -116 75 -153 83 -392 87 -115 2 -228 -1 -250 -6z M1954
6917 c-79 -83 -163 -192 -223 -290 -450 -736 -368 -1663 204 -2310 l87 -98
581 3 c658 3 632 0 705 84 60 67 72 120 72 303 l0 157 -92 13 c-293 38 -542
220 -662 483 -162 353 -56 776 253 1010 127 96 319 168 449 168 l54 0 -4 188
c-3 185 -3 188 -31 235 -31 52 -95 100 -157 117 -21 6 -262 10 -601 10 l-566
0 -69 -73z m1134 -156 c55 -8 72 -21 72 -57 0 -29 -25 -48 -90 -69 -138 -45
-265 -129 -406 -269 -60 -61 -124 -131 -141 -156 -53 -78 -121 -216 -148 -300
-24 -77 -25 -93 -25 -304 0 -218 1 -224 29 -307 117 -347 393 -637 704 -739
65 -21 67 -23 67 -54 0 -61 -21 -69 -198 -79 -86 -4 -287 -7 -447 -5 -332 4
-332 4 -411 91 -157 175 -312 494 -358 736 -23 118 -23 618 0 729 21 105 78
270 126 367 77 153 232 365 292 397 11 7 37 15 56 19 48 9 812 9 878 0z M7457
6976 c-63 -23 -114 -63 -144 -113 -28 -47 -28 -51 -31 -235 l-4 -188 54 0 c78
0 212 -35 303 -80 446 -216 607 -756 354 -1188 -51 -85 -209 -238 -299 -289
-97 -54 -203 -89 -318 -104 l-92 -13 0 -157 c0 -183 12 -236 72 -303 73 -84
47 -81 704 -84 l582 -3 57 63 c310 340 479 726 517 1181 38 457 -99 926 -381
1307 -31 41 -87 107 -125 147 l-69 73 -571 0 c-454 -1 -579 -4 -609 -14z
m1031 -229 c120 -65 313 -378 394 -637 l32 -105 4 -358 c3 -382 2 -402 -49
-570 -49 -162 -167 -382 -284 -531 -64 -82 -102 -106 -189 -118 -94 -14 -809
-3 -852 12 -34 12 -58 47 -52 75 2 12 32 28 95 50 162 58 289 141 404 262 145
155 253 349 303 549 22 87 22 369 0 467 -21 93 -97 264 -160 358 -115 173
-333 353 -506 419 -137 51 -148 57 -148 84 0 32 23 49 79 57 25 4 237 6 471 5
390 -1 428 -2 458 -19z M4170 6919 c-144 -24 -323 -167 -398 -319 l-37 -75 0
-920 0 -920 34 -70 c44 -92 189 -239 273 -278 113 -53 81 -52 1293 -52 1203 0
1183 -1 1280 48 88 43 227 177 269 257 47 93 47 81 44 1045 l-3 910 -29 60
c-33 68 -140 181 -226 239 -30 20 -84 47 -120 59 l-65 22 -1130 1 c-630 1
-1154 -2 -1185 -7z m2358 -214 c69 -21 131 -70 161 -130 l26 -49 0 -911 0
-910 -24 -53 c-28 -62 -93 -124 -149 -140 -29 -9 -342 -12 -1210 -12 -1146 0
-1172 0 -1225 20 -56 21 -113 72 -143 130 -18 33 -19 77 -19 950 l0 915 28 57
c16 32 45 71 65 88 74 61 20 59 1283 59 1008 1 1162 -1 1207 -14z M3390 5607
l0 -834 47 8 c54 10 93 33 93 54 0 8 5 15 10 15 7 0 10 257 10 750 0 433 -4
750 -9 750 -5 0 -12 11 -15 25 -7 28 -43 50 -99 60 l-37 7 0 -835z M7203 6433
c-17 -2 -45 -17 -62 -34 l-31 -29 0 -766 0 -765 26 -24 c15 -14 30 -25 33 -26
8 -1 41 -7 74 -13 l27 -5 0 834 c0 789 -1 835 -17 833 -10 0 -32 -3 -50 -5z
M1113 3380 c-94 -19 -175 -86 -208 -173 -13 -36 -16 -65 -13 -122 5 -68 9 -82
44 -132 27 -39 56 -66 94 -87 l55 -31 4245 0 4245 0 54 30 c56 31 106 88 128
148 6 18 12 61 12 97 1 113 -58 203 -164 252 l-50 23 -4200 1 c-2310 1 -4219
-2 -4242 -6z m8397 -229 c21 -6 25 -13 25 -41 0 -30 -5 -38 -35 -53 -33 -16
-249 -17 -4187 -15 l-4152 3 -28 21 c-15 12 -29 31 -31 43 -8 53 -280 50 4223
50 2288 -1 4171 -4 4185 -8z"/>
</g>
</svg>
