<?xml version="1.0" standalone="no"?>
<!DOCTYPE svg PUBLIC "-//W3C//DTD SVG 20010904//EN"
 "http://www.w3.org/TR/2001/REC-SVG-20010904/DTD/svg10.dtd">
<svg version="1.0" xmlns="http://www.w3.org/2000/svg"
 width="2048.000000pt" height="2048.000000pt" viewBox="0 0 2048.000000 2048.000000"
 preserveAspectRatio="xMidYMid meet">
<metadata>
Created by potrace 1.13, written by Peter Selinger 2001-2015
</metadata>
<g transform="translate(0.000000,2048.000000) scale(0.192120,-0.192120)"
fill="#000000" stroke="none">
<path d="M6648 10050 c-103 -16 -239 -80 -368 -173 -30 -22 -570 -554 -1200
-1183 l-1145 -1144 -890 -2 -890 -3 -78 -29 c-188 -68 -305 -196 -343 -375
-21 -99 -21 -3523 0 -3622 38 -179 155 -307 343 -375 l78 -29 890 -3 890 -3
1155 -1152 c1202 -1200 1197 -1195 1366 -1280 129 -65 166 -72 389 -72 166 0
209 3 251 18 66 23 126 75 156 135 l23 47 0 4520 0 4520 -21 46 c-31 66 -77
113 -136 140 -48 21 -69 23 -233 25 -99 2 -206 -1 -237 -6z m359 -180 c17 -6
48 -32 67 -57 l36 -46 0 -4417 c0 -4363 0 -4417 -19 -4435 -11 -9 -21 -33 -23
-53 -5 -59 -32 -67 -233 -67 -136 0 -182 4 -229 18 -77 24 -165 68 -246 125
-40 28 -451 430 -1060 1037 -547 545 -1025 1017 -1062 1048 -36 32 -83 64
-103 73 -36 15 -155 21 -174 10 -5 -3 -12 1 -15 10 -8 20 -8 4408 0 4428 3 9
10 13 15 10 19 -11 136 -6 170 8 20 9 69 44 110 78 41 35 526 514 1079 1065
629 627 1027 1017 1065 1042 169 113 286 146 490 138 55 -2 114 -9 132 -15z
m-3297 -4550 l0 -1970 -712 0 c-447 0 -737 4 -778 11 -68 10 -161 48 -194 77
-10 9 -29 34 -42 54 l-24 38 0 1805 0 1806 43 43 c47 46 121 80 210 95 29 5
377 9 775 10 l722 1 0 -1970z M8201 7541 c-65 -23 -97 -46 -138 -100 -38 -50
-53 -97 -53 -171 0 -95 30 -142 170 -266 488 -433 760 -1032 760 -1674 0 -638
-272 -1242 -751 -1665 -131 -116 -159 -164 -158 -264 1 -77 12 -113 55 -173
58 -82 189 -127 290 -99 68 18 133 69 299 236 286 285 476 570 620 929 137
343 199 670 198 1046 -2 645 -213 1241 -617 1740 -136 169 -384 404 -473 449
-61 31 -137 36 -202 12z m189 -305 c95 -62 273 -242 386 -391 178 -232 325
-531 398 -806 l26 -97 0 -612 0 -612 -36 -124 c-91 -320 -253 -624 -471 -888
-88 -106 -259 -267 -309 -291 -46 -22 -78 -17 -82 13 -3 18 24 51 120 151 333
343 557 753 676 1236 l27 110 0 410 0 410 -36 141 c-90 347 -235 649 -443 924
-92 122 -106 138 -228 265 -119 123 -151 171 -126 187 18 11 56 1 98 -26z"/>
</g>
</svg>
