<?xml version="1.0" standalone="no"?>
<!DOCTYPE svg PUBLIC "-//W3C//DTD SVG 20010904//EN"
 "http://www.w3.org/TR/2001/REC-SVG-20010904/DTD/svg10.dtd">
<svg version="1.0" xmlns="http://www.w3.org/2000/svg"
 width="2048.000000pt" height="2048.000000pt" viewBox="0 0 2048.000000 2048.000000"
 preserveAspectRatio="xMidYMid meet">
<metadata>
Created by potrace 1.13, written by Peter Selinger 2001-2015
</metadata>
<g transform="translate(0.000000,2048.000000) scale(0.192120,-0.192120)"
fill="#000000" stroke="none">
<path d="M1320 10324 c-273 -42 -463 -131 -640 -301 -176 -167 -284 -364 -332
-603 -19 -96 -19 -8084 0 -8180 80 -398 361 -723 733 -849 180 -60 -136 -56
4249 -56 3399 0 4036 2 4095 14 398 79 726 367 848 746 55 171 52 -100 52
4235 0 4335 3 4064 -52 4235 -51 157 -132 292 -250 415 -160 169 -333 267
-572 328 -61 15 -367 16 -4086 18 -2211 1 -4031 0 -4045 -2z m8089 -287 c294
-72 494 -221 609 -457 l37 -75 0 -4165 0 -4165 -28 -69 c-120 -296 -384 -481
-736 -516 -74 -8 -1306 -10 -4041 -8 -3625 4 -3940 5 -4000 20 -334 86 -563
284 -649 562 l-21 68 0 4104 0 4105 21 62 c63 189 239 375 443 467 83 38 192
68 287 79 41 5 1846 8 4039 7 3772 -1 3969 -2 4039 -19z M5077 9180 c-289 -28
-605 -103 -760 -181 -115 -59 -267 -233 -267 -306 0 -65 69 -198 174 -337 105
-139 496 -604 559 -666 66 -64 165 -127 214 -136 19 -4 103 -4 186 -2 435 14
743 -71 1034 -286 224 -165 381 -379 469 -639 l34 -99 0 -1169 0 -1169 -318 0
c-411 0 -441 -5 -550 -98 -78 -66 -122 -135 -122 -193 0 -66 67 -195 174 -336
143 -188 1327 -1603 1415 -1690 88 -88 179 -143 236 -143 53 0 131 48 219 134
70 68 1101 1297 1365 1626 142 177 215 303 227 394 5 33 1 53 -19 92 -32 64
-122 148 -194 182 l-58 27 -367 3 -368 3 0 45 c0 32 -4 44 -15 44 -13 0 -15
117 -15 993 0 1054 -4 1158 -50 1413 -146 813 -634 1550 -1330 2013 -368 244
-764 396 -1205 461 -158 24 -520 34 -668 20z m667 -270 c160 -24 356 -73 504
-125 913 -319 1606 -1108 1800 -2050 57 -273 55 -231 59 -1562 l4 -1233 554 0
554 0 -831 -997 c-457 -549 -832 -999 -833 -1001 -1 -1 -334 397 -741 885
-406 488 -781 936 -831 995 -51 59 -93 110 -93 113 0 3 250 5 555 5 l555 0 0
1123 c0 674 -4 1168 -10 1236 -36 405 -200 758 -486 1045 -216 217 -534 390
-829 450 -190 39 -452 45 -617 12 l-68 -13 -287 346 c-159 190 -330 395 -380
454 -51 60 -93 112 -93 117 0 4 55 28 123 53 217 80 438 134 637 156 52 6 109
13 125 15 17 2 134 3 260 1 170 -3 266 -9 369 -25z M3035 8891 c-51 -23 -134
-88 -208 -164 -71 -72 -1283 -1524 -1385 -1660 -41 -54 -91 -131 -113 -172
-69 -133 -50 -220 74 -341 102 -98 97 -97 539 -102 l377 -3 4 -1107 c3 -1067
4 -1112 25 -1242 78 -502 242 -916 530 -1339 149 -220 383 -472 601 -649 694
-565 1586 -781 2462 -596 145 30 325 87 404 126 123 63 255 234 255 332 0 50
-67 182 -144 286 -91 122 -514 628 -572 684 -58 57 -151 120 -201 137 -25 8
-89 10 -207 7 -198 -6 -337 4 -473 33 -495 107 -887 454 -1044 924 l-34 100
-3 1152 -2 1152 367 3 368 3 55 26 c60 28 137 99 177 163 18 27 27 59 31 101
4 56 1 68 -33 136 -65 129 -49 110 -894 1124 -316 380 -609 724 -652 766 -83
82 -179 139 -233 139 -17 0 -49 -9 -71 -19z m902 -1166 c440 -528 807 -966
816 -974 9 -7 17 -17 17 -22 0 -5 -243 -9 -555 -9 l-555 0 0 -1122 c0 -675 4
-1169 10 -1237 26 -286 113 -541 263 -769 83 -125 110 -158 215 -266 251 -256
553 -410 932 -478 103 -18 422 -16 517 4 l73 15 367 -440 c404 -483 398 -475
391 -483 -15 -15 -294 -108 -415 -139 -246 -63 -383 -79 -678 -79 -279 -1
-385 10 -615 61 -1102 243 -1961 1160 -2134 2278 -32 210 -36 360 -36 1506 l0
1149 -554 0 -555 0 832 999 c770 925 833 998 848 982 9 -9 376 -448 816 -976z"/>
</g>
</svg>
