<?xml version="1.0" standalone="no"?>
<!DOCTYPE svg PUBLIC "-//W3C//DTD SVG 20010904//EN"
 "http://www.w3.org/TR/2001/REC-SVG-20010904/DTD/svg10.dtd">
<svg version="1.0" xmlns="http://www.w3.org/2000/svg"
 width="2048.000000pt" height="2048.000000pt" viewBox="0 0 2048.000000 2048.000000"
 preserveAspectRatio="xMidYMid meet">
<metadata>
Created by potrace 1.13, written by Peter Selinger 2001-2015
</metadata>
<g transform="translate(0.000000,2048.000000) scale(0.192120,-0.192120)"
fill="#000000" stroke="none">
<path d="M2986 10209 c-94 -15 -192 -101 -217 -192 -15 -55 -7 -152 15 -202
13 -28 341 -362 1094 -1115 1024 -1025 1075 -1074 1084 -1050 16 41 3 188 -22
245 -18 42 -169 198 -959 990 -516 517 -946 955 -955 973 -38 73 4 103 86 62
30 -15 314 -293 931 -909 488 -487 890 -884 893 -882 3 2 29 -17 57 -41 29
-24 70 -52 92 -63 47 -22 174 -32 225 -17 l35 9 -1065 1067 c-586 587 -1084
1078 -1107 1092 -50 30 -121 42 -187 33z M5835 8311 c-156 -44 -68 37 -1611
-1505 -847 -847 -1436 -1443 -1458 -1476 -55 -84 -86 -192 -86 -304 0 -160 50
-279 164 -391 139 -137 314 -189 501 -150 84 18 175 61 232 109 22 20 43 36
45 36 2 0 329 -326 728 -723 604 -603 739 -733 811 -780 207 -136 422 -195
668 -184 69 3 151 12 183 20 l56 14 174 -174 c95 -96 208 -201 252 -234 100
-77 255 -152 381 -186 91 -25 116 -27 280 -27 163 0 189 3 278 27 54 14 141
47 195 72 l97 47 63 -69 c524 -565 839 -1275 869 -1955 l6 -148 558 0 557 0
-4 98 c-20 434 -75 750 -191 1107 -197 605 -520 1146 -997 1669 l-79 86 31 58
c154 292 160 674 17 977 -65 137 -132 223 -332 425 l-192 195 17 65 c22 90 22
348 -1 447 -37 161 -104 308 -197 433 -27 36 -371 386 -764 779 l-714 714 37
46 c52 64 76 105 101 181 29 84 31 228 6 315 -57 192 -209 341 -401 390 -77
20 -205 18 -280 -4z m301 -324 c28 -14 64 -41 79 -58 l27 -33 -4 -145 c-4
-137 -6 -151 -36 -221 -61 -144 -40 -235 99 -421 39 -52 302 -324 694 -719
407 -409 647 -658 675 -700 24 -35 58 -96 74 -135 l31 -70 3 -240 c2 -185 6
-247 17 -272 8 -17 15 -41 15 -52 0 -34 63 -149 125 -231 32 -41 106 -127 165
-190 146 -159 173 -194 217 -285 l38 -80 3 -269 c3 -290 6 -271 -59 -470 -5
-16 -9 -55 -9 -87 0 -106 58 -205 295 -499 156 -193 259 -334 347 -475 257
-412 425 -838 514 -1295 9 -48 14 -139 14 -253 l0 -177 -262 2 -262 3 -18 30
c-9 17 -34 109 -53 205 -64 311 -119 485 -237 750 -114 257 -222 437 -417 700
-131 176 -296 348 -386 400 -84 49 -152 48 -332 -8 -220 -69 -389 -78 -568
-32 -178 46 -303 125 -518 328 -136 130 -223 195 -298 223 -40 16 -76 18 -256
16 -186 -2 -217 1 -295 20 -48 12 -117 36 -153 52 -150 68 -185 100 -860 771
-357 355 -679 668 -715 694 -36 27 -89 60 -119 74 -71 33 -144 27 -261 -21
-47 -19 -112 -40 -145 -47 -135 -28 -281 26 -331 122 -19 37 -19 239 0 276 8
15 99 124 203 242 144 164 224 245 343 347 167 144 1421 1389 1568 1557 48 55
120 138 161 184 72 82 423 394 509 454 76 53 136 69 237 65 73 -3 99 -8 141
-30z M974 8234 c-58 -21 -120 -78 -151 -138 -36 -68 -38 -169 -5 -236 16 -33
306 -329 1101 -1124 l1078 -1078 7 63 c8 78 -6 165 -35 228 -17 35 -243 268
-969 996 -670 672 -949 958 -954 978 -14 57 30 69 109 30 17 -8 432 -416 923
-906 490 -491 892 -888 892 -883 0 5 24 -12 53 -36 83 -72 109 -81 225 -86 70
-3 107 -1 115 7 17 17 -2109 2142 -2173 2173 -57 28 -158 34 -216 12z"/>
</g>
</svg>
