<?xml version="1.0" standalone="no"?>
<!DOCTYPE svg PUBLIC "-//W3C//DTD SVG 20010904//EN"
 "http://www.w3.org/TR/2001/REC-SVG-20010904/DTD/svg10.dtd">
<svg version="1.0" xmlns="http://www.w3.org/2000/svg"
 width="2048.000000pt" height="2048.000000pt" viewBox="0 0 2048.000000 2048.000000"
 preserveAspectRatio="xMidYMid meet">
<metadata>
Created by potrace 1.13, written by Peter Selinger 2001-2015
</metadata>
<g transform="translate(0.000000,2048.000000) scale(0.192120,-0.192120)"
fill="#000000" stroke="none">
<path d="M1320 10324 c-273 -42 -463 -131 -640 -301 -176 -167 -284 -364 -332
-603 -19 -96 -19 -8084 0 -8180 80 -398 361 -723 733 -849 180 -60 -136 -56
4249 -56 3399 0 4036 2 4095 14 398 79 726 367 848 746 55 171 52 -100 52
4235 0 4335 3 4064 -52 4235 -51 157 -132 292 -250 415 -160 169 -333 267
-572 328 -61 15 -367 16 -4086 18 -2211 1 -4031 0 -4045 -2z m8089 -287 c294
-72 494 -221 609 -457 l37 -75 0 -4165 0 -4165 -28 -69 c-120 -296 -384 -481
-736 -516 -74 -8 -1306 -10 -4041 -8 -3625 4 -3940 5 -4000 20 -334 86 -563
284 -649 562 l-21 68 0 4104 0 4105 21 62 c63 189 239 375 443 467 83 38 192
68 287 79 41 5 1846 8 4039 7 3772 -1 3969 -2 4039 -19z M6689 9362 c-88 -57
-153 -144 -188 -251 -7 -22 -11 -148 -11 -352 0 -312 0 -319 -20 -319 -17 0
-20 -7 -20 -39 l0 -40 -1097 -4 c-1192 -4 -1173 -3 -1454 -63 -622 -131 -1159
-442 -1614 -935 -341 -369 -598 -851 -715 -1345 -46 -192 -60 -308 -60 -508
l0 -179 31 -60 c40 -80 72 -119 132 -167 42 -34 57 -40 96 -40 61 1 98 18 276
134 212 138 429 242 654 316 101 33 203 71 226 84 23 14 71 56 107 94 52 56
80 99 138 213 40 79 100 182 134 229 202 281 542 495 900 567 70 14 223 17
1161 22 594 3 1090 4 1102 2 l23 -3 3 -347 c2 -190 8 -364 13 -387 25 -99 136
-244 214 -279 35 -16 46 -16 83 -6 53 16 142 69 232 140 213 169 1629 1357
1676 1407 107 114 169 226 169 304 0 107 -103 245 -323 433 -135 115 -1316
1099 -1464 1219 -100 81 -191 143 -246 168 -60 28 -105 25 -158 -8z m2029
-1807 c1 -1 -408 -344 -910 -762 -502 -418 -950 -793 -995 -832 -46 -39 -85
-71 -88 -71 -3 0 -5 250 -5 555 l0 555 -1127 0 c-1155 0 -1263 -3 -1441 -40
-488 -102 -916 -432 -1143 -883 -23 -45 -54 -116 -69 -157 -15 -41 -34 -78
-41 -81 -8 -4 -66 -19 -129 -34 -312 -73 -707 -270 -944 -472 -122 -104 -110
-115 -103 92 10 288 60 562 152 823 336 962 1186 1670 2190 1826 210 32 360
36 1506 36 l1149 0 0 554 0 555 998 -831 c548 -457 998 -832 1000 -833z M8581
6589 c-87 -40 -159 -95 -471 -355 -323 -269 -428 -374 -488 -488 l-27 -51 -6
-290 c-5 -272 -7 -297 -32 -399 -15 -60 -34 -128 -41 -150 -116 -335 -354
-611 -666 -770 -219 -112 -375 -150 -699 -170 -186 -11 -223 -16 -259 -35 -64
-33 -175 -143 -210 -208 l-30 -58 -5 -240 c-5 -245 -11 -299 -67 -562 -28
-130 -27 -248 3 -304 26 -52 139 -170 183 -192 72 -37 302 -47 589 -27 523 38
995 199 1425 485 700 466 1185 1212 1336 2054 22 127 24 158 24 500 0 379 -3
418 -49 631 -29 137 -83 313 -123 400 -39 84 -125 186 -197 232 -59 37 -108
37 -190 -3z m182 -281 c129 -354 171 -594 171 -978 0 -351 -32 -560 -134 -870
-349 -1066 -1304 -1811 -2434 -1900 -118 -9 -626 -15 -626 -7 0 2 9 30 21 63
43 125 87 324 110 503 11 90 14 377 4 477 l-7 70 138 -4 c164 -5 372 11 502
38 705 149 1235 740 1313 1465 13 123 6 331 -15 437 l-13 68 346 287 c190 159
394 330 454 381 60 50 112 92 117 92 4 0 28 -55 53 -122z M3180 5289 c-628
-72 -1204 -490 -1493 -1082 -82 -169 -115 -259 -152 -422 -23 -103 -25 -128
-25 -393 0 -313 9 -389 70 -571 284 -847 1050 -1406 1875 -1368 563 27 1060
293 1408 755 171 229 313 539 367 803 17 83 20 138 20 379 0 268 -1 289 -26
399 -59 262 -174 512 -336 730 -94 127 -329 359 -448 444 -112 79 -357 203
-486 245 -242 80 -526 109 -774 81z m535 -269 c586 -124 1062 -545 1249 -1102
57 -170 76 -282 83 -473 8 -244 -27 -458 -108 -662 -214 -539 -671 -920 -1241
-1035 -96 -19 -143 -23 -318 -22 -174 0 -221 4 -310 23 -601 128 -1066 532
-1258 1093 -69 199 -87 313 -87 543 0 168 4 218 23 313 145 720 721 1254 1452
1346 19 2 121 3 225 1 145 -3 213 -9 290 -25z M2883 4353 c-54 -19 -116 -88
-133 -148 -34 -120 32 -255 138 -285 20 -5 91 -10 157 -10 l120 0 0 -722 0
-723 26 -56 c42 -89 116 -133 224 -133 113 0 207 66 235 165 14 46 13 1732 0
1780 -15 54 -72 115 -127 133 -66 23 -576 22 -640 -1z m485 -259 c21 -6 22
-10 21 -118 -1 -61 -4 -101 -6 -88 -2 12 -9 22 -14 22 -5 0 -9 6 -9 14 0 8 -4
16 -8 18 -18 6 -82 106 -82 126 0 29 43 40 98 26z"/>
</g>
</svg>
