<?xml version="1.0" standalone="no"?>
<!DOCTYPE svg PUBLIC "-//W3C//DTD SVG 20010904//EN"
 "http://www.w3.org/TR/2001/REC-SVG-20010904/DTD/svg10.dtd">
<svg version="1.0" xmlns="http://www.w3.org/2000/svg"
 width="2048.000000pt" height="2048.000000pt" viewBox="0 0 2048.000000 2048.000000"
 preserveAspectRatio="xMidYMid meet">
<metadata>
Created by potrace 1.13, written by Peter Selinger 2001-2015
</metadata>
<g transform="translate(0.000000,2048.000000) scale(0.192120,-0.192120)"
fill="#000000" stroke="none">
<path d="M3775 10269 c-679 -68 -1282 -288 -1820 -663 -736 -514 -1270 -1290
-1489 -2161 -119 -473 -142 -1006 -65 -1495 196 -1257 1018 -2327 2186 -2846
889 -395 1908 -425 2830 -84 264 98 656 306 856 455 l61 45 208 -207 c166
-166 208 -203 214 -189 4 9 4 57 2 105 -6 107 -32 165 -98 223 -59 52 -110 78
-192 97 l-68 16 107 90 c142 120 357 334 473 472 l94 113 14 -67 c17 -87 39
-126 102 -192 73 -74 122 -94 244 -99 l100 -4 -31 38 c-17 22 -110 117 -207
213 l-176 174 50 71 c350 497 572 1072 657 1701 25 190 25 726 0 915 -114 843
-468 1577 -1040 2159 -607 616 -1341 985 -2197 1103 -166 22 -659 33 -815 17z
m804 -279 c1095 -146 2044 -772 2594 -1711 186 -318 327 -705 398 -1088 17
-95 19 -156 19 -657 0 -552 0 -553 -25 -681 -87 -434 -219 -776 -450 -1163
-110 -185 -195 -352 -195 -385 0 -68 -132 -237 -325 -416 -110 -103 -161 -135
-241 -155 -97 -24 -165 -56 -354 -169 -459 -274 -873 -426 -1370 -502 -163
-25 -198 -27 -515 -28 -227 0 -371 4 -435 13 -696 96 -1263 329 -1780 731
-312 243 -610 573 -807 896 -250 409 -400 807 -477 1263 -25 149 -26 167 -26
597 0 427 1 449 25 592 90 531 278 986 583 1414 585 819 1504 1352 2517 1459
171 18 184 18 450 14 189 -2 302 -9 414 -24z M3820 9369 c-773 -80 -1484 -488
-1976 -1135 -213 -279 -391 -649 -479 -994 -62 -246 -60 -218 -60 -710 l0
-455 27 -115 c90 -388 206 -664 424 -1007 204 -320 548 -659 884 -868 344
-214 714 -345 1130 -401 150 -20 477 -23 630 -5 349 40 712 154 1015 319 703
382 1230 1071 1426 1867 53 217 59 282 59 679 0 345 -1 372 -25 498 -81 440
-262 851 -535 1213 -435 577 -1086 976 -1780 1089 -219 36 -531 46 -740 25z
m581 -214 c488 -57 940 -242 1329 -543 117 -91 326 -297 423 -417 172 -214
341 -510 432 -759 48 -130 108 -370 131 -521 24 -151 27 -589 6 -730 -109
-726 -467 -1335 -1040 -1767 -366 -276 -804 -449 -1287 -509 -145 -18 -464
-15 -615 5 -501 67 -946 255 -1330 562 -109 87 -317 295 -404 404 -313 392
-510 869 -567 1370 -16 150 -14 450 5 605 121 963 750 1774 1657 2136 193 76
436 137 659 164 147 18 449 18 601 0z M7825 4028 c-78 -14 -183 -70 -265 -141
-41 -35 -251 -242 -465 -458 -345 -348 -395 -402 -428 -465 -89 -171 -90 -348
-5 -524 29 -59 110 -144 897 -933 494 -496 899 -894 943 -927 220 -167 445
-237 723 -227 151 6 232 22 370 76 360 140 628 487 685 886 38 272 -41 578
-208 801 -37 48 -401 419 -938 955 -673 669 -891 882 -931 902 -108 57 -255
79 -378 55z m275 -315 c38 -17 100 -61 150 -105 161 -143 1596 -1591 1643
-1659 26 -36 61 -97 79 -135 l33 -69 3 -260 c3 -278 0 -305 -48 -405 -161
-338 -547 -524 -943 -455 -148 26 -271 78 -397 168 -87 63 -1714 1694 -1739
1744 -18 36 -21 60 -21 174 l0 133 69 110 c63 101 93 135 328 367 256 253 307
296 433 359 111 57 165 70 260 67 70 -2 97 -8 150 -34z"/>
</g>
</svg>
