<?xml version="1.0" standalone="no"?>
<!DOCTYPE svg PUBLIC "-//W3C//DTD SVG 20010904//EN"
 "http://www.w3.org/TR/2001/REC-SVG-20010904/DTD/svg10.dtd">
<svg version="1.0" xmlns="http://www.w3.org/2000/svg"
 width="2048.000000pt" height="2048.000000pt" viewBox="0 0 2048.000000 2048.000000"
 preserveAspectRatio="xMidYMid meet">
<metadata>
Created by potrace 1.13, written by Peter Selinger 2001-2015
</metadata>
<g transform="translate(0.000000,2048.000000) scale(0.192120,-0.192120)"
fill="#000000" stroke="none">
<path d="M3463 10315 c-23 -7 -66 -26 -95 -43 -29 -16 -690 -431 -1468 -921
-904 -570 -1432 -909 -1462 -938 -25 -25 -59 -68 -75 -97 -24 -44 -28 -62 -28
-131 0 -96 26 -155 100 -227 63 -62 2941 -2015 3014 -2044 116 -48 225 -27
286 56 52 70 57 108 55 442 l-1 308 3053 2 3053 3 65 25 c183 72 311 217 355
401 12 55 15 193 15 950 0 585 -4 905 -11 945 -15 85 -78 209 -138 272 -65 67
-157 126 -240 155 l-66 22 -3040 2 -3040 3 0 302 c-1 343 -6 376 -73 450 -66
73 -157 95 -259 63z m57 -325 c12 -8 16 -45 18 -215 2 -119 7 -205 13 -205 5
0 9 -16 9 -35 0 -19 3 -35 8 -35 4 0 16 -21 26 -48 26 -61 158 -195 223 -225
l48 -22 2975 -5 c2863 -5 2977 -6 3030 -24 62 -20 135 -67 150 -96 7 -12 10
-346 10 -972 0 -921 -1 -954 -19 -984 -24 -40 -75 -79 -132 -101 -42 -17 -203
-18 -3019 -23 -2371 -4 -2983 -8 -3012 -18 -21 -7 -59 -29 -85 -49 -65 -49
-171 -163 -179 -190 -3 -13 -10 -23 -15 -23 -5 0 -9 -9 -9 -20 0 -11 -4 -20
-10 -20 -6 0 -10 -68 -10 -184 0 -192 -3 -216 -26 -216 -9 0 -14 -11 -14 -29
0 -41 -12 -45 -66 -19 -49 23 -2667 1794 -2742 1856 -24 19 -51 50 -59 68 -15
30 -15 35 -1 56 9 13 74 60 146 105 72 46 361 228 644 406 282 178 799 504
1149 724 810 510 813 513 868 534 54 21 61 22 81 9z M3841 3401 c-148 -55
-249 -165 -319 -346 -125 -329 -854 -2315 -863 -2352 -20 -92 5 -176 76 -252
139 -148 398 -128 493 39 16 27 59 145 97 262 l68 213 584 -1 c321 -1 586 -3
588 -5 2 -3 31 -91 64 -198 73 -231 88 -266 135 -319 95 -105 292 -121 414
-32 82 59 126 180 103 282 -16 71 -859 2404 -892 2470 -45 88 -128 172 -217
215 -70 35 -83 38 -176 40 -81 3 -112 -1 -155 -16z m214 -302 c86 -24 165
-151 165 -265 0 -30 -3 -54 -6 -54 -4 0 -43 35 -88 78 -45 43 -96 84 -114 91
-50 21 -100 -7 -210 -119 l-94 -95 4 70 c5 88 60 210 113 251 67 51 147 66
230 43z m-36 -436 c18 -60 104 -331 192 -604 87 -273 159 -501 159 -505 0 -10
-783 -10 -788 0 -1 3 69 226 157 494 88 268 176 540 197 605 20 64 40 117 43
117 4 0 22 -48 40 -107z m-666 -1068 c9 -16 17 -35 17 -42 0 -30 58 -114 127
-184 95 -96 94 -112 -6 -129 -91 -15 -152 -52 -251 -152 -85 -87 -108 -123
-165 -264 -41 -101 -69 -144 -96 -144 -17 0 -19 7 -19 65 0 53 10 95 54 223
83 242 180 498 248 660 l63 147 6 -75 c3 -42 12 -88 22 -105z m1395 -155 c148
-407 142 -386 141 -518 l-1 -117 -23 50 c-13 28 -34 72 -46 99 -28 59 -151
193 -219 236 -51 33 -84 44 -162 55 -75 10 -74 33 5 114 68 68 137 171 137
203 0 9 9 32 20 50 13 22 20 52 21 88 l0 55 26 -55 c14 -30 60 -147 101 -260z
M6473 3401 c-525 -96 -935 -461 -1101 -981 -62 -195 -77 -301 -77 -550 1 -205
3 -236 28 -351 131 -616 535 -1038 1117 -1165 119 -26 481 -27 620 -1 390 72
604 226 618 443 4 62 1 79 -22 130 -63 137 -187 206 -313 175 -26 -7 -104 -37
-174 -67 -188 -81 -256 -96 -424 -98 -163 -1 -247 18 -374 84 -291 152 -461
538 -421 957 53 568 405 893 902 833 115 -13 184 -32 333 -91 97 -38 120 -43
190 -43 117 -1 181 39 236 144 33 63 34 193 2 263 -67 144 -273 257 -570 313
-139 25 -443 28 -570 5z m-133 -369 c0 -9 -3 -13 -6 -9 -6 5 -12 1 -47 -28 -7
-6 -34 -26 -60 -44 -72 -49 -234 -215 -297 -303 -71 -101 -132 -221 -169 -333
-50 -153 -53 -179 -49 -480 l3 -280 38 -110 c95 -276 241 -482 454 -642 122
-92 106 -117 -37 -58 -241 101 -450 342 -549 635 l-36 105 0 395 0 395 34 98
c66 192 189 368 342 491 90 71 212 140 297 166 66 21 82 21 82 2z m936 -2309
c-11 -11 -19 6 -11 24 8 17 8 17 12 0 3 -10 2 -21 -1 -24z m21 15 c-3 -8 -6
-5 -6 6 -1 11 2 17 5 13 3 -3 4 -12 1 -19z m-47 -13 c0 -8 -4 -15 -10 -15 -5
0 -10 7 -10 15 0 8 5 15 10 15 6 0 10 -7 10 -15z m-943 -17 c-3 -8 -6 -5 -6 6
-1 11 2 17 5 13 3 -3 4 -12 1 -19z m913 4 c0 -9 -3 -12 -7 -9 -3 4 -12 2 -20
-4 -10 -9 -13 -8 -13 3 0 19 6 25 25 25 8 0 15 -7 15 -15z M8209 3387 c-105
-30 -173 -90 -210 -187 -18 -49 -19 -91 -19 -1330 0 -1253 0 -1280 20 -1332
24 -65 85 -128 155 -160 72 -33 209 -32 280 2 62 31 121 89 149 149 21 45 21
59 26 622 l5 576 54 -61 c161 -182 1117 -1209 1148 -1234 77 -60 121 -77 208
-77 101 0 168 23 230 77 68 60 75 79 75 211 l0 114 -39 59 c-21 34 -248 279
-522 564 -266 277 -503 525 -526 551 l-43 47 434 426 c429 421 493 490 537
575 71 137 3 314 -149 388 -46 22 -70 28 -132 28 -139 0 -128 10 -643 -538
-248 -266 -492 -526 -542 -580 l-90 -98 -5 498 -5 498 -28 57 c-33 68 -91 121
-156 143 -64 22 -157 27 -212 12z m125 -333 c14 -13 16 -59 16 -347 0 -298 2
-340 20 -411 31 -122 97 -219 206 -302 19 -15 34 -34 34 -42 0 -9 -40 -57 -90
-107 -87 -88 -126 -144 -151 -222 -9 -27 -14 -160 -18 -458 l-6 -420 -42 -3
-43 -3 0 1165 0 1166 29 0 c16 0 37 -7 45 -16z m1536 -10 c0 -28 -89 -146
-139 -185 -79 -62 -552 -546 -619 -634 -154 -204 -158 -273 -29 -467 79 -119
142 -189 548 -612 200 -208 372 -391 381 -405 40 -59 6 -93 -58 -60 -55 29
-125 99 -472 474 -469 507 -581 618 -764 756 -42 32 -35 52 31 93 104 64 176
133 531 511 396 422 494 519 541 540 46 19 49 19 49 -11z M555 3356 c-99 -31
-163 -88 -195 -173 -20 -54 -20 -68 -18 -1321 l3 -1267 27 -51 c31 -59 84
-108 147 -138 45 -21 57 -21 631 -21 529 0 593 2 670 18 279 60 487 213 603
444 68 133 108 373 88 522 -23 171 -88 300 -216 427 -97 96 -217 163 -345 190
-43 10 -77 21 -75 25 3 4 28 19 57 34 161 83 267 214 314 386 28 102 24 310
-7 414 -80 263 -294 450 -581 509 -65 13 -157 16 -570 15 -368 0 -503 -4 -533
-13z m351 -301 c8 -19 -9 -43 -81 -120 -31 -33 -61 -72 -67 -87 -5 -16 -14
-28 -19 -28 -5 0 -9 -134 -9 -315 0 -173 3 -315 8 -315 4 0 15 -21 26 -46 12
-30 50 -77 112 -139 70 -71 92 -99 87 -112 -4 -9 -51 -62 -105 -118 -54 -55
-101 -110 -104 -122 -4 -13 -10 -23 -15 -23 -5 0 -9 -152 -9 -350 0 -192 4
-350 8 -350 4 0 13 -15 20 -33 6 -18 43 -68 82 -111 38 -43 70 -81 70 -85 0
-3 -4 -13 -10 -21 -12 -19 -193 -27 -244 -10 l-36 12 0 1188 0 1189 23 4 c12
2 75 5 140 6 96 1 119 -2 123 -14z m857 -47 c85 -41 139 -85 179 -147 28 -45
28 -45 28 -219 l0 -175 -50 -49 -50 -49 0 128 c-1 117 -3 133 -28 193 -33 77
-96 165 -181 255 -33 36 -61 70 -61 76 0 5 -4 7 -10 4 -5 -3 -10 1 -10 9 0 27
100 13 183 -26z m-388 -199 c115 -21 198 -80 239 -168 27 -59 28 -196 2 -256
-42 -98 -115 -163 -206 -184 -25 -5 -134 -12 -242 -14 l-198 -4 0 318 0 319
173 0 c95 0 200 -5 232 -11z m300 -794 c14 -14 25 -29 25 -34 0 -4 11 -30 25
-57 14 -27 25 -52 25 -56 0 -30 -178 20 -200 55 -11 19 -8 25 41 69 30 26 55
48 56 48 1 0 14 -11 28 -25z m380 -381 c60 -40 124 -104 146 -146 17 -33 19
-60 19 -233 0 -222 -9 -263 -77 -359 -47 -66 -97 -107 -177 -146 -63 -29 -152
-45 -162 -29 -3 5 31 49 76 97 92 97 152 191 187 290 19 55 23 87 23 183 0
127 -11 174 -69 284 -48 91 -39 107 34 59z m-490 -19 c202 -43 306 -168 292
-352 -13 -170 -123 -290 -297 -323 -29 -5 -174 -10 -321 -10 l-269 0 0 350 0
350 263 0 c192 0 280 -4 332 -15z"/>
</g>
</svg>
