<?xml version="1.0" standalone="no"?>
<!DOCTYPE svg PUBLIC "-//W3C//DTD SVG 20010904//EN"
 "http://www.w3.org/TR/2001/REC-SVG-20010904/DTD/svg10.dtd">
<svg version="1.0" xmlns="http://www.w3.org/2000/svg"
 width="2048.000000pt" height="2048.000000pt" viewBox="0 0 2048.000000 2048.000000"
 preserveAspectRatio="xMidYMid meet">
<metadata>
Created by potrace 1.13, written by Peter Selinger 2001-2015
</metadata>
<g transform="translate(0.000000,2048.000000) scale(0.192120,-0.192120)"
fill="#000000" stroke="none">
<path d="M5085 10320 c-559 -57 -1059 -258 -1485 -596 -110 -87 -347 -325
-434 -434 -207 -261 -353 -530 -466 -857 -51 -147 -52 -162 -13 -163 7 0 243
-63 524 -140 282 -77 513 -139 514 -137 0 1 9 29 19 62 145 483 548 900 1032
1068 443 154 899 123 1316 -90 439 -225 768 -655 868 -1135 36 -177 40 -281
40 -1157 l0 -856 -2142 0 c-2022 0 -2148 -1 -2231 -18 -297 -60 -553 -228
-715 -470 -63 -92 -92 -151 -130 -258 -66 -187 -63 -95 -60 -2079 l3 -1795 27
-98 c32 -115 106 -275 171 -366 133 -188 344 -343 562 -414 169 -55 10 -52
2845 -52 2211 0 2646 2 2705 14 154 30 301 93 431 182 85 59 225 201 284 288
62 92 127 236 158 348 l27 98 3 1795 c3 1985 6 1892 -60 2079 -37 106 -56 144
-123 247 -132 204 -357 375 -581 443 l-69 21 0 948 c0 1011 -1 1044 -51 1292
-51 253 -116 445 -234 685 -91 186 -159 297 -275 450 -442 584 -1086 966
-1811 1075 -160 24 -504 34 -649 20z m451 -240 c613 -49 1126 -274 1591 -697
158 -143 222 -219 357 -421 212 -317 327 -617 398 -1037 21 -125 22 -162 25
-967 3 -513 8 -838 14 -838 5 0 9 -20 9 -45 0 -25 5 -45 10 -45 6 0 10 -5 10
-12 0 -14 44 -82 76 -118 l23 -25 -382 2 c-210 2 -438 5 -506 9 l-123 6 28 27
c44 41 74 80 84 107 6 15 10 380 10 923 0 1006 3 952 -76 1191 -187 561 -647
1025 -1196 1204 -203 67 -304 81 -563 81 -211 -1 -240 -3 -357 -28 -539 -115
-1002 -465 -1275 -965 -32 -57 -73 -117 -92 -134 -30 -26 -40 -30 -75 -24 -44
6 -368 91 -503 132 l-83 25 0 57 c0 49 8 74 59 178 274 565 798 1034 1403
1257 362 133 753 187 1134 157z m2411 -4387 c29 -11 81 -39 116 -61 35 -22
106 -61 158 -87 198 -100 332 -222 409 -374 65 -129 60 26 60 -2055 0 -1254
-4 -1906 -11 -1935 -14 -62 -60 -159 -111 -234 -115 -170 -283 -287 -505 -350
l-78 -22 -2620 -3 c-2334 -2 -2629 -1 -2703 13 -324 61 -566 257 -681 553
l-26 67 -3 1880 c-2 1288 1 1896 8 1930 16 75 84 205 148 282 130 154 298 254
522 310 59 15 266 17 2190 22 l2125 6 80 33 c45 18 108 36 140 41 33 5 211 8
395 7 315 -2 338 -3 387 -23z"/>
</g>
</svg>
