<?xml version="1.0" standalone="no"?>
<!DOCTYPE svg PUBLIC "-//W3C//DTD SVG 20010904//EN"
 "http://www.w3.org/TR/2001/REC-SVG-20010904/DTD/svg10.dtd">
<svg version="1.0" xmlns="http://www.w3.org/2000/svg"
 width="2048.000000pt" height="2048.000000pt" viewBox="0 0 2048.000000 2048.000000"
 preserveAspectRatio="xMidYMid meet">
<metadata>
Created by potrace 1.13, written by Peter Selinger 2001-2015
</metadata>
<g transform="translate(0.000000,2048.000000) scale(0.192120,-0.192120)"
fill="#000000" stroke="none">
<path d="M5215 10323 c-288 -40 -548 -244 -659 -519 -40 -97 -58 -210 -54
-329 l3 -105 -94 -31 c-256 -85 -516 -226 -766 -413 -146 -110 -401 -362 -506
-501 -277 -365 -448 -739 -534 -1170 -37 -187 -45 -283 -55 -670 -10 -393 -20
-553 -51 -805 -78 -628 -225 -1095 -483 -1528 -80 -134 -180 -275 -367 -518
-245 -317 -340 -474 -403 -664 -45 -135 -63 -229 -77 -384 -25 -296 70 -518
267 -623 127 -68 -193 -63 3894 -63 4087 0 3767 -5 3894 63 119 63 205 179
245 327 30 112 33 163 22 298 -14 153 -33 248 -76 379 -68 203 -161 355 -424
693 -380 488 -553 814 -691 1303 -119 418 -190 994 -190 1536 0 323 -26 556
-90 806 -120 471 -359 898 -699 1248 -300 309 -696 563 -1071 687 l-95 31 3
104 c8 236 -73 441 -243 611 -180 181 -448 272 -700 237z m295 -278 c103 -27
198 -83 275 -159 99 -98 155 -229 155 -362 0 -116 66 -250 174 -352 54 -51
102 -80 216 -127 330 -136 633 -344 879 -601 316 -332 517 -704 615 -1146 48
-213 57 -301 66 -638 18 -670 57 -1036 152 -1445 137 -588 355 -1036 767
-1575 36 -47 93 -121 127 -165 148 -192 245 -367 285 -512 18 -65 20 -98 17
-320 l-3 -248 -30 -42 c-43 -61 -125 -100 -235 -113 -113 -13 -7174 -13 -7287
0 -45 5 -105 19 -133 31 -59 25 -125 95 -141 148 -7 23 -9 119 -7 266 4 223 5
232 32 305 69 183 118 262 389 622 255 340 355 495 472 728 261 520 400 1100
445 1845 6 99 15 322 20 495 9 324 22 444 71 650 80 341 252 688 479 965 87
105 264 283 360 360 179 143 425 291 625 375 153 65 194 88 251 142 103 97
150 202 164 363 9 105 39 200 83 264 94 137 257 235 442 265 52 8 218 -3 275
-19z M4223 1352 c13 -181 92 -398 200 -551 133 -188 344 -344 562 -414 132
-42 193 -51 345 -51 193 0 336 32 495 111 157 79 329 229 425 372 102 153 174
357 187 533 l6 88 -1113 0 -1113 0 6 -88z m1921 -214 c0 -54 -23 -110 -78
-193 -145 -218 -396 -355 -682 -372 -263 -15 -524 80 -704 257 -113 112 -200
273 -183 339 l5 21 822 -2 821 -3 -1 -47z"/>
</g>
</svg>
