<?xml version="1.0" standalone="no"?>
<!DOCTYPE svg PUBLIC "-//W3C//DTD SVG 20010904//EN"
 "http://www.w3.org/TR/2001/REC-SVG-20010904/DTD/svg10.dtd">
<svg version="1.0" xmlns="http://www.w3.org/2000/svg"
 width="2048.000000pt" height="2048.000000pt" viewBox="0 0 2048.000000 2048.000000"
 preserveAspectRatio="xMidYMid meet">
<metadata>
Created by potrace 1.13, written by Peter Selinger 2001-2015
</metadata>
<g transform="translate(0.000000,2048.000000) scale(0.192120,-0.192120)"
fill="#000000" stroke="none">
<path d="M7015 10312 c-55 -26 -110 -91 -132 -154 -15 -46 -17 -93 -18 -356
l0 -302 -3040 -3 -3040 -2 -66 -22 c-189 -65 -345 -240 -378 -427 -7 -40 -11
-360 -11 -945 0 -976 -1 -950 63 -1080 39 -80 138 -184 218 -229 32 -18 92
-41 135 -52 76 -20 117 -20 3099 -20 l3023 0 -1 -307 c-1 -262 1 -315 15 -356
23 -66 54 -110 103 -142 36 -24 48 -26 115 -23 60 2 88 9 136 33 89 45 2940
1982 2990 2032 67 68 99 142 99 233 0 64 -4 83 -30 128 -16 30 -55 77 -86 105
-33 30 -292 200 -620 406 -310 195 -953 600 -1428 899 -475 299 -888 556 -919
570 -74 34 -172 40 -227 14z m202 -330 c54 -21 33 -8 1603 -996 635 -401 1165
-737 1177 -749 55 -50 34 -99 -80 -183 -142 -106 -2609 -1776 -2677 -1813 -75
-40 -100 -38 -100 8 0 16 -6 31 -15 35 -13 4 -15 36 -15 201 0 107 -4 195 -9
195 -5 0 -11 14 -15 30 -7 36 -10 40 -106 142 -98 104 -136 126 -241 138 -52
6 -1187 10 -2965 10 -2037 0 -2898 3 -2939 11 -69 13 -128 40 -168 78 -60 55
-57 -3 -57 1024 l0 944 38 37 c41 42 89 69 154 88 33 10 697 13 3018 18 l2975
5 48 22 c56 26 207 174 207 202 0 11 7 27 16 36 9 9 19 36 22 61 2 24 8 44 13
44 4 0 9 92 11 205 4 246 4 246 105 207z M1158 3125 c-217 -34 -407 -131 -549
-282 -149 -158 -219 -343 -219 -576 0 -181 47 -310 153 -424 125 -134 248
-194 631 -309 399 -120 485 -179 486 -330 0 -89 -25 -151 -88 -214 -69 -68
-139 -98 -253 -107 -111 -8 -207 10 -414 79 -159 53 -190 60 -265 62 -70 1
-92 -3 -126 -21 -48 -26 -90 -72 -115 -128 -26 -56 -25 -175 1 -233 79 -173
385 -289 815 -309 227 -10 395 22 570 107 191 92 319 217 405 395 69 143 85
219 84 390 -1 108 -6 157 -22 216 -41 151 -118 271 -235 364 -132 105 -241
154 -591 261 -236 73 -321 109 -371 160 -100 100 -41 277 113 334 123 46 232
37 452 -37 163 -55 237 -61 313 -24 112 54 173 206 135 334 -41 137 -264 253
-565 292 -136 18 -228 18 -345 0z m-229 -407 c0 -7 -10 -27 -22 -44 -117 -167
-137 -213 -137 -324 0 -66 5 -90 29 -142 33 -73 85 -145 164 -227 61 -63 72
-90 35 -86 -58 7 -84 17 -156 55 -157 85 -171 113 -172 342 0 166 0 167 31
232 34 71 124 166 181 191 41 18 48 18 47 3z m708 -1060 c-3 -8 -6 -5 -6 6 -1
11 2 17 5 13 3 -3 4 -12 1 -19z m133 -28 c76 -40 151 -101 183 -150 15 -21 17
-56 17 -240 0 -240 -8 -290 -59 -363 -46 -67 -141 -141 -193 -151 -42 -7 -36
14 34 106 33 46 78 120 100 164 37 80 38 85 38 194 0 111 0 112 -40 188 -22
43 -76 119 -120 171 -44 52 -80 101 -80 108 0 23 40 14 120 -27z M3560 3129
c-495 -57 -900 -397 -1064 -893 -93 -281 -101 -654 -19 -936 179 -623 697
-1000 1328 -966 610 32 1071 442 1205 1073 30 142 38 402 16 551 -61 412 -269
757 -585 967 -256 171 -559 241 -881 204z m-553 -611 c-51 -77 -127 -211 -153
-268 -6 -14 -18 -38 -25 -55 l-14 -30 -3 38 c-6 70 14 163 46 209 62 90 184
207 201 192 2 -2 -21 -40 -52 -86z m897 72 c314 -80 511 -366 542 -784 7 -106
-8 -271 -37 -383 -24 -98 -105 -262 -161 -330 -131 -156 -301 -233 -518 -233
-217 0 -387 77 -518 233 -56 68 -136 232 -161 329 -98 384 -1 812 230 1021
161 146 404 203 623 147z m597 -72 c18 -18 52 -60 76 -92 42 -58 43 -62 43
-136 l-1 -75 -48 95 c-26 52 -69 128 -94 168 -26 40 -47 77 -47 82 0 16 32 -4
71 -42z m-1617 -1359 c21 -43 59 -109 83 -145 50 -75 66 -111 57 -126 -8 -13
-105 82 -150 148 -31 44 -36 61 -41 128 -3 42 -2 76 3 76 5 -1 26 -37 48 -81z
m1734 -14 c-3 -54 -9 -69 -50 -126 -26 -35 -60 -76 -75 -90 -31 -29 -72 -53
-79 -46 -3 3 26 54 64 113 37 60 84 139 103 177 37 74 43 69 37 -28z M6326
3130 c-288 -36 -530 -149 -728 -338 -298 -285 -445 -699 -417 -1174 44 -723
553 -1251 1239 -1285 523 -26 979 235 1212 694 97 189 139 343 160 575 37 430
-102 847 -379 1138 -184 193 -402 316 -658 371 -104 22 -327 32 -429 19z m315
-534 c327 -70 540 -378 556 -804 13 -320 -63 -563 -229 -738 -67 -71 -141
-119 -241 -156 -108 -40 -281 -50 -401 -24 -327 73 -533 370 -553 797 -23 468
193 835 539 920 89 22 239 24 329 5z m-846 -25 c-3 -10 -31 -57 -62 -103 -31
-45 -78 -129 -105 -185 -27 -57 -51 -103 -55 -103 -3 0 -3 37 -1 83 6 98 23
136 99 222 76 87 138 130 124 86z m1467 -58 c24 -27 59 -70 78 -98 30 -43 35
-60 38 -120 5 -83 0 -81 -58 29 -23 44 -61 111 -86 148 -24 38 -44 73 -44 78
0 23 30 7 72 -37z m-1517 -1534 c36 -56 64 -104 61 -107 -10 -9 -102 69 -143
121 -63 82 -73 107 -73 189 l1 73 44 -88 c25 -48 74 -133 110 -188z m1611 87
c-14 -24 -41 -63 -61 -86 -41 -49 -122 -116 -131 -108 -3 3 26 55 64 114 38
60 87 145 108 189 l39 80 3 -73 c3 -64 0 -80 -22 -116z M8231 3109 c-91 -18
-162 -79 -198 -170 -17 -41 -18 -117 -18 -1199 0 -908 3 -1164 13 -1197 20
-67 70 -124 137 -158 50 -25 71 -30 135 -30 64 0 85 5 135 30 67 34 117 91
137 158 10 32 13 212 13 790 0 411 2 747 5 747 3 0 25 -29 50 -63 116 -162
1165 -1540 1193 -1567 18 -18 59 -46 92 -63 143 -75 313 -16 382 130 17 36 18
109 18 1208 0 1124 -1 1172 -19 1219 -40 104 -134 167 -251 169 -87 2 -148
-19 -204 -69 -91 -82 -85 -24 -91 -904 l-5 -775 -130 175 c-71 96 -351 470
-621 830 -531 710 -521 698 -643 734 -60 18 -66 18 -130 5z m151 -360 c42 -30
319 -387 368 -474 22 -39 15 -68 -12 -49 -7 6 -36 18 -64 28 -47 15 -55 16
-87 3 -19 -9 -68 -47 -108 -85 -71 -68 -92 -99 -148 -225 -12 -26 -26 -45 -31
-42 -12 7 -14 858 -3 869 11 10 52 -2 85 -25z m1643 -2067 c-12 -12 -70 26
-119 79 -108 116 -306 393 -306 428 0 26 1 26 50 1 76 -39 125 -24 206 62 62
65 93 114 123 193 13 33 27 68 32 77 5 10 10 26 11 35 2 10 4 -182 5 -426 2
-244 1 -446 -2 -449z"/>
</g>
</svg>
