<?xml version="1.0" standalone="no"?>
<!DOCTYPE svg PUBLIC "-//W3C//DTD SVG 20010904//EN"
 "http://www.w3.org/TR/2001/REC-SVG-20010904/DTD/svg10.dtd">
<svg version="1.0" xmlns="http://www.w3.org/2000/svg"
 width="2048.000000pt" height="2048.000000pt" viewBox="0 0 2048.000000 2048.000000"
 preserveAspectRatio="xMidYMid meet">
<metadata>
Created by potrace 1.13, written by Peter Selinger 2001-2015
</metadata>
<g transform="translate(0.000000,2048.000000) scale(0.192120,-0.192120)"
fill="#000000" stroke="none">
<path d="M5065 10323 c-563 -33 -1103 -153 -1603 -354 -190 -76 -527 -245
-704 -352 -594 -358 -1109 -835 -1506 -1395 -282 -396 -539 -909 -681 -1356
-353 -1110 -316 -2292 106 -3366 400 -1020 1146 -1898 2093 -2464 1146 -685
2540 -882 3835 -541 569 150 1143 418 1619 759 1239 886 2000 2254 2096 3766
116 1844 -798 3600 -2381 4576 -299 184 -742 388 -1074 494 -389 124 -806 202
-1220 230 -137 9 -457 11 -580 3z m575 -243 c382 -26 702 -83 1070 -190 309
-90 544 -176 735 -269 742 -360 1391 -926 1862 -1626 407 -604 673 -1320 767
-2063 19 -149 23 -1000 5 -1160 -79 -726 -340 -1444 -757 -2082 -544 -834
-1441 -1541 -2322 -1828 -628 -205 -1091 -284 -1670 -284 -583 0 -1054 81
-1675 287 -877 291 -1742 975 -2313 1830 -182 274 -370 640 -486 951 -131 351
-219 708 -266 1088 -20 156 -21 206 -18 650 4 520 9 571 74 896 121 604 371
1200 717 1715 285 424 651 809 1101 1159 273 212 688 451 986 569 481 189
1055 321 1545 356 173 12 477 12 645 1z M4995 9763 c-95 -7 -374 -44 -477 -64
-745 -144 -1355 -425 -1973 -909 l-102 -80 351 -350 351 -350 285 0 c313 0
351 -5 458 -59 104 -52 203 -177 242 -306 8 -26 15 -150 20 -345 l6 -305 555
-555 c305 -305 655 -657 778 -781 l223 -227 -29 -43 c-72 -109 -7 -221 323
-555 113 -114 205 -174 268 -174 31 0 81 23 113 53 l22 20 88 -81 c48 -44 287
-280 531 -526 l442 -446 -30 -41 c-54 -75 -37 -177 50 -304 37 -54 198 -225
212 -225 5 0 67 -55 136 -121 178 -170 290 -249 355 -249 32 0 82 23 114 52
l22 21 92 -84 c50 -46 135 -130 188 -187 l97 -104 104 133 c519 660 829 1406
935 2249 22 172 31 656 16 846 -45 569 -184 1088 -426 1589 -342 711 -877
1329 -1530 1766 -627 419 -1308 661 -2069 734 -145 14 -587 19 -741 8z m607
-263 c1190 -80 2250 -615 2999 -1512 459 -551 760 -1205 884 -1923 25 -145 25
-152 25 -730 0 -538 -2 -592 -20 -702 -39 -230 -77 -390 -141 -588 -69 -219
-182 -490 -199 -480 -5 3 -11 -1 -13 -7 -3 -7 -6 175 -6 404 -1 247 -5 439
-11 470 -75 375 -223 654 -514 966 -58 62 -86 100 -86 116 0 13 29 66 64 117
128 190 208 357 268 562 l33 112 0 305 c0 303 0 306 -28 409 -32 119 -113 313
-177 425 -103 180 -292 396 -465 531 -268 210 -591 345 -960 401 -151 23 -471
23 -620 0 -513 -79 -913 -292 -1222 -651 -197 -228 -315 -450 -383 -715 -26
-104 -50 -274 -50 -358 0 -59 -3 -70 -17 -68 -10 0 -19 -9 -23 -24 -6 -24 -6
-24 -55 20 -28 24 -139 132 -247 239 -166 164 -199 202 -204 231 -3 19 -9 44
-14 55 -5 11 -13 137 -18 280 -10 283 -16 312 -85 449 -82 164 -249 332 -398
401 -114 52 -156 58 -455 64 l-281 6 -42 28 c-55 37 -286 268 -306 308 -9 16
-13 38 -10 49 7 21 158 126 321 223 740 437 1607 644 2456 587z m1652 -1415
c716 -109 1231 -557 1368 -1188 33 -152 33 -429 0 -576 -73 -324 -247 -603
-487 -781 -62 -46 -83 -67 -74 -72 205 -118 288 -179 403 -294 196 -196 325
-432 386 -709 78 -354 30 -771 -126 -1103 -83 -177 -176 -313 -311 -453 l-83
-87 -423 422 -422 421 34 50 c45 67 86 157 113 252 20 68 23 100 22 243 -1
135 -5 180 -22 245 -69 257 -241 436 -482 501 -90 25 -310 25 -400 0 -103 -28
-204 -83 -277 -150 l-66 -62 -334 335 c-184 185 -331 337 -326 338 24 9 87 49
89 58 2 6 -22 28 -53 50 -80 57 -216 196 -284 289 -107 146 -185 320 -225 506
-26 120 -26 437 -1 565 39 192 114 372 222 535 73 111 269 302 391 383 242
161 542 264 859 297 119 12 385 4 509 -15z m-111 -3455 c71 -27 132 -72 172
-129 30 -43 30 -43 33 -202 2 -110 0 -159 -8 -159 -38 0 -470 444 -470 483 0
13 3 27 8 31 15 16 205 -1 265 -24z M6800 7054 c-199 -43 -350 -195 -401 -404
-20 -80 -18 -289 4 -370 54 -201 186 -335 382 -385 76 -19 241 -19 324 0 194
46 341 198 392 405 20 80 17 279 -5 360 -40 146 -138 276 -257 339 -122 66
-292 87 -439 55z m315 -339 c91 -44 96 -59 93 -251 -3 -159 -3 -161 -31 -197
-51 -67 -94 -82 -232 -82 -116 0 -122 1 -175 31 -87 49 -100 84 -100 258 0
160 8 185 76 227 60 37 120 49 221 45 76 -3 102 -8 148 -31z M1864 8107 c-209
-263 -366 -509 -513 -804 -233 -467 -364 -906 -437 -1463 -22 -171 -30 -645
-14 -848 99 -1282 734 -2439 1765 -3219 659 -497 1464 -802 2310 -873 182 -15
578 -12 766 6 873 82 1683 412 2374 964 50 39 91 75 93 79 1 3 -110 119 -247
257 l-249 250 -84 -28 c-205 -70 -557 -117 -778 -104 -556 33 -1007 223 -1350
568 -395 397 -571 978 -465 1537 27 142 121 380 186 472 l19 27 -426 423
c-234 233 -466 468 -515 521 l-90 97 26 50 c34 68 32 114 -7 192 -27 52 -95
127 -377 419 -502 517 -1197 1208 -1274 1266 -105 78 -173 116 -220 121 -37 5
-49 1 -89 -31 l-47 -35 -133 129 c-72 72 -134 130 -137 130 -3 0 -43 -46 -87
-103z m1324 -1129 l962 -963 0 -1571 c0 -1520 -1 -1573 -19 -1646 -29 -114
-74 -193 -150 -268 -105 -103 -252 -160 -414 -160 -291 0 -504 161 -574 436
-17 65 -18 189 -18 2097 l0 2027 -275 0 c-210 0 -290 4 -339 15 -181 43 -318
182 -366 370 -19 76 -19 224 0 299 26 101 65 166 146 249 42 42 79 77 81 77 2
0 437 -433 966 -962z m-1481 391 c6 -19 21 -67 33 -107 76 -255 276 -493 489
-583 90 -38 218 -59 357 -59 l114 0 2 -1872 c3 -1318 7 -1883 14 -1908 6 -19
17 -60 24 -90 42 -181 207 -423 364 -534 148 -106 276 -147 457 -147 170 -1
315 42 443 130 137 94 319 342 352 476 4 17 10 35 14 40 9 11 27 114 40 225 5
41 9 602 9 1246 l1 1172 23 6 c19 5 55 -27 235 -207 118 -116 218 -222 223
-235 7 -18 3 -42 -17 -95 -128 -351 -126 -337 -122 -752 4 -328 5 -343 30
-435 281 -1036 1217 -1693 2306 -1620 152 10 371 45 467 75 66 20 134 19 165
-1 54 -36 100 -88 100 -113 0 -37 -67 -94 -220 -190 -623 -389 -1279 -602
-2004 -650 -1019 -68 -2045 237 -2851 849 -178 135 -281 225 -441 384 -318
319 -539 624 -760 1051 -205 397 -336 810 -409 1296 -14 89 -16 189 -13 655 4
548 4 549 31 694 78 412 186 744 355 1089 69 141 145 255 165 248 6 -2 17 -19
24 -38z M3126 7930 c-31 -34 -36 -47 -36 -88 1 -93 59 -178 275 -400 81 -83
150 -150 154 -147 4 2 36 -25 72 -61 96 -98 286 -257 312 -261 12 -2 26 -8 31
-13 6 -6 30 -10 53 -10 37 0 50 6 85 39 l42 39 -129 137 c-154 163 -804 805
-815 805 -4 0 -24 -18 -44 -40z M5315 4981 c-16 -10 -38 -28 -49 -39 -18 -21
-17 -23 496 -539 l514 -518 47 -96 c77 -158 195 -270 353 -334 51 -21 100 -66
488 -452 237 -235 454 -450 483 -477 52 -50 52 -50 74 -30 89 81 54 200 -116
388 -94 104 -489 489 -582 568 -28 24 -87 64 -130 88 l-78 45 -110 -2 -110 -3
-84 84 -84 84 7 100 c7 95 6 103 -19 156 -43 91 -83 136 -460 519 -269 273
-378 376 -430 409 -111 71 -158 82 -210 49z"/>
</g>
</svg>
