<?xml version="1.0" standalone="no"?>
<!DOCTYPE svg PUBLIC "-//W3C//DTD SVG 20010904//EN"
 "http://www.w3.org/TR/2001/REC-SVG-20010904/DTD/svg10.dtd">
<svg version="1.0" xmlns="http://www.w3.org/2000/svg"
 width="2048.000000pt" height="2048.000000pt" viewBox="0 0 2048.000000 2048.000000"
 preserveAspectRatio="xMidYMid meet">
<metadata>
Created by potrace 1.13, written by Peter Selinger 2001-2015
</metadata>
<g transform="translate(0.000000,2048.000000) scale(0.192120,-0.192120)"
fill="#000000" stroke="none">
<path d="M5130 9489 c-647 -46 -1253 -317 -1725 -771 -231 -222 -424 -486
-564 -772 -96 -194 -150 -340 -201 -541 -77 -301 -92 -495 -88 -1107 l3 -448
-65 -19 c-100 -31 -236 -101 -326 -169 -231 -175 -382 -423 -429 -708 -14 -89
-16 -271 -13 -1894 l3 -1795 27 -98 c32 -115 106 -275 171 -366 133 -188 344
-343 562 -414 169 -55 10 -52 2845 -52 2211 0 2646 2 2705 14 154 30 301 93
431 182 85 59 225 201 284 288 62 92 127 236 158 348 l27 98 3 1795 c3 1985 6
1892 -60 2079 -37 106 -56 144 -123 247 -132 204 -357 375 -581 443 l-69 21 3
443 c4 470 -5 673 -38 878 -90 553 -353 1074 -749 1482 -484 499 -1108 787
-1811 837 -161 11 -213 11 -380 -1z m635 -268 c456 -81 860 -260 1201 -533
116 -93 285 -254 355 -338 271 -325 456 -712 534 -1115 43 -223 47 -275 52
-697 3 -235 9 -418 14 -418 5 0 9 -20 9 -45 0 -25 5 -45 10 -45 6 0 10 -5 10
-12 0 -14 44 -82 76 -118 l23 -25 -382 2 c-210 2 -438 5 -506 9 l-123 6 28 27
c50 46 84 94 89 125 4 17 5 254 3 526 l-4 495 -31 115 c-94 342 -246 609 -492
863 -157 163 -318 278 -524 377 -418 201 -866 235 -1311 99 -630 -193 -1142
-753 -1286 -1407 -18 -79 -20 -130 -20 -579 0 -282 4 -493 9 -493 5 0 11 -10
15 -23 3 -12 28 -45 55 -74 l51 -51 -133 -6 c-72 -4 -299 -7 -504 -9 l-372 -2
23 25 c27 28 66 98 66 117 0 7 5 13 10 13 6 0 10 20 10 45 0 25 5 45 10 45 6
0 10 126 10 359 0 197 5 405 10 462 52 518 217 939 531 1349 78 103 106 132
244 257 398 360 815 570 1313 663 184 34 253 39 537 35 221 -2 292 -6 390 -24z
m-149 -862 c629 -105 1148 -575 1320 -1197 54 -193 57 -232 61 -772 l5 -505
-1672 0 -1672 0 5 510 c5 535 7 562 56 751 136 528 545 967 1070 1148 264 92
540 113 827 65z m-2076 -2657 c19 -6 69 -23 110 -39 l75 -28 1610 0 1610 0 79
32 c117 48 200 55 558 51 351 -4 352 -4 481 -86 35 -22 106 -61 158 -87 198
-100 332 -222 409 -374 65 -129 60 26 60 -2055 0 -1254 -4 -1906 -11 -1935
-14 -62 -60 -159 -111 -234 -115 -170 -283 -287 -505 -350 l-78 -22 -2620 -3
c-2334 -2 -2629 -1 -2703 13 -324 61 -566 257 -681 553 l-26 67 0 1910 0 1910
31 70 c86 199 222 335 444 446 58 29 124 65 148 81 61 42 150 81 202 89 67 11
719 3 760 -9z"/>
</g>
</svg>
