<?xml version="1.0" standalone="no"?>
<!DOCTYPE svg PUBLIC "-//W3C//DTD SVG 20010904//EN"
 "http://www.w3.org/TR/2001/REC-SVG-20010904/DTD/svg10.dtd">
<svg version="1.0" xmlns="http://www.w3.org/2000/svg"
 width="2048.000000pt" height="2048.000000pt" viewBox="0 0 2048.000000 2048.000000"
 preserveAspectRatio="xMidYMid meet">
<metadata>
Created by potrace 1.13, written by Peter Selinger 2001-2015
</metadata>
<g transform="translate(0.000000,2048.000000) scale(0.192120,-0.192120)"
fill="#000000" stroke="none">
<path d="M7370 10324 c-19 -2 -78 -9 -130 -15 -1022 -116 -1899 -911 -2124
-1923 -49 -217 -60 -327 -60 -551 1 -308 34 -514 127 -794 81 -247 229 -528
378 -718 l49 -63 0 -187 0 -188 -1671 0 -1671 0 5 505 c6 571 11 626 86 850
317 948 1373 1406 2285 991 90 -41 216 -118 318 -193 77 -57 80 -59 74 -31
-13 53 -84 188 -131 248 -67 87 -171 145 -388 219 -435 149 -885 123 -1372
-79 -258 -107 -496 -300 -696 -565 -141 -187 -270 -467 -324 -706 -25 -108
-25 -114 -25 -596 0 -279 4 -488 9 -488 5 0 11 -11 15 -23 3 -13 30 -47 60
-75 30 -29 54 -53 53 -53 -2 -1 -1011 -15 -1014 -14 -1 1 9 13 22 27 27 29 65
96 65 115 0 7 5 13 10 13 6 0 10 20 10 45 0 25 5 45 10 45 6 0 10 123 10 348
0 191 5 399 11 462 52 569 253 1042 634 1488 292 341 665 590 1103 735 315
105 581 143 924 134 319 -8 510 -46 873 -172 200 -70 225 -76 275 -71 61 6
180 43 180 56 0 13 -108 76 -232 134 -630 298 -1372 343 -2038 125 -317 -105
-620 -268 -880 -475 -109 -87 -337 -315 -424 -424 -305 -383 -502 -829 -580
-1320 -28 -168 -38 -433 -34 -868 l3 -422 -55 -16 c-153 -44 -322 -146 -450
-274 -145 -144 -241 -309 -298 -518 l-27 -97 0 -1820 c0 -1956 -2 -1862 52
-2030 51 -157 132 -292 249 -415 160 -167 333 -266 574 -328 60 -15 284 -16
2683 -19 2262 -3 2631 -1 2715 11 112 17 196 43 303 93 l77 35 68 -41 c38 -23
105 -54 149 -68 70 -24 96 -27 210 -27 116 0 139 3 210 28 44 15 103 40 130
56 153 88 276 244 321 408 l17 62 41 0 c52 0 132 38 173 81 18 19 42 57 55 84
22 47 23 62 23 250 0 167 -3 206 -17 237 -42 93 -109 148 -206 168 l-52 12 0
137 0 138 47 7 c87 12 164 73 205 161 22 48 23 61 26 351 2 186 -1 323 -7 359
-20 107 -109 205 -200 221 -78 13 -71 -21 -71 332 l1 317 40 25 c85 52 169
168 212 290 22 65 22 69 23 740 l2 675 48 19 c506 201 910 524 1201 959 643
964 525 2265 -280 3103 -388 404 -891 664 -1447 749 -100 15 -464 28 -540 19z
m-57 -293 c22 -3 1 -29 -43 -54 -27 -15 -55 -33 -62 -40 -7 -7 -33 -25 -58
-42 -51 -35 -164 -147 -220 -220 -44 -57 -113 -190 -129 -250 -16 -59 -14
-360 3 -415 51 -168 180 -351 328 -466 180 -140 421 -181 637 -109 229 77 425
290 515 559 23 70 26 93 26 225 0 166 -9 209 -69 332 -72 146 -195 283 -349
387 -51 34 -97 62 -102 62 -6 0 -10 6 -10 14 0 34 143 20 356 -34 573 -146
1060 -499 1360 -987 112 -181 182 -345 246 -573 l32 -115 3 -436 4 -437 -26
-118 c-25 -112 -71 -262 -100 -329 -88 -202 -125 -271 -218 -410 -223 -334
-482 -556 -889 -765 -150 -78 -169 -91 -245 -167 -45 -46 -84 -92 -88 -103 -3
-11 -10 -20 -16 -20 -5 0 -12 -18 -15 -40 -4 -24 -12 -40 -20 -40 -12 0 -14
-100 -14 -612 0 -589 -1 -615 -20 -657 -11 -24 -20 -52 -20 -62 0 -30 -32 -86
-99 -177 -34 -45 -72 -105 -86 -134 l-25 -52 0 -322 c0 -177 3 -324 8 -326 4
-1 18 -25 32 -53 14 -27 58 -84 98 -126 l72 -76 0 -299 -1 -299 -84 -90 c-47
-49 -90 -105 -97 -123 -7 -17 -16 -32 -20 -32 -4 0 -8 -60 -8 -133 0 -116 3
-139 21 -178 28 -57 61 -101 131 -174 l58 -60 0 -153 0 -153 -115 -111 c-87
-83 -127 -130 -162 -191 -27 -45 -69 -103 -95 -130 -87 -88 -238 -137 -377
-123 -129 14 -353 106 -409 170 -67 76 -62 -39 -62 1556 0 1278 -2 1449 -15
1454 -13 5 -15 107 -15 836 0 547 -3 830 -10 830 -5 0 -10 6 -10 14 0 8 -12
37 -26 65 -38 73 -115 131 -284 215 -351 174 -518 316 -732 628 -380 551 -494
867 -518 1428 -16 379 -13 481 15 599 63 260 149 445 269 580 23 26 83 101
133 167 118 155 228 271 354 375 284 235 606 397 957 480 95 23 247 46 277 43
11 -1 23 -3 28 -3z m408 -284 c191 -65 334 -223 375 -416 37 -176 -13 -353
-137 -486 -115 -122 -239 -178 -399 -179 -161 0 -287 51 -401 165 -107 106
-159 233 -159 391 0 248 167 467 407 533 81 22 237 18 314 -8z m-1741 -3855
c206 -166 462 -314 678 -392 l62 -23 0 -2259 c0 -2021 2 -2267 16 -2335 25
-120 89 -247 167 -330 l31 -33 -26 0 c-14 0 -63 7 -109 16 -55 11 -118 15
-184 13 -55 -2 -1270 -4 -2700 -4 -2477 0 -2604 1 -2677 18 -254 60 -475 232
-595 465 -80 154 -74 -50 -71 2102 l3 1925 24 50 c108 228 237 365 447 476 55
29 137 74 184 101 47 27 103 54 125 61 28 8 145 12 405 12 l365 0 110 -40 110
-40 1600 0 1600 0 95 39 c52 21 110 45 128 53 34 16 64 52 76 91 7 20 4 22
-37 22 -24 0 -72 3 -106 6 l-62 7 23 24 c40 43 30 123 -37 298 -4 11 55 -42
131 -117 76 -75 177 -168 224 -206z"/>
</g>
</svg>
