<?xml version="1.0" standalone="no"?>
<!DOCTYPE svg PUBLIC "-//W3C//DTD SVG 20010904//EN"
 "http://www.w3.org/TR/2001/REC-SVG-20010904/DTD/svg10.dtd">
<svg version="1.0" xmlns="http://www.w3.org/2000/svg"
 width="2048.000000pt" height="2048.000000pt" viewBox="0 0 2048.000000 2048.000000"
 preserveAspectRatio="xMidYMid meet">
<metadata>
Created by potrace 1.13, written by Peter Selinger 2001-2015
</metadata>
<g transform="translate(0.000000,2048.000000) scale(0.192120,-0.192120)"
fill="#000000" stroke="none">
<path d="M1320 10324 c-273 -42 -463 -131 -640 -301 -176 -167 -284 -364 -332
-603 -19 -96 -19 -8084 0 -8180 80 -398 361 -723 733 -849 180 -60 -136 -56
4249 -56 3399 0 4036 2 4095 14 398 79 726 367 848 746 55 171 52 -100 52
4235 0 4335 3 4064 -52 4235 -51 157 -132 292 -250 415 -160 169 -333 267
-572 328 -61 15 -367 16 -4086 18 -2211 1 -4031 0 -4045 -2z m8089 -287 c294
-72 494 -221 609 -457 l37 -75 0 -4165 0 -4165 -28 -69 c-120 -296 -384 -481
-736 -516 -74 -8 -1306 -10 -4041 -8 -3625 4 -3940 5 -4000 20 -334 86 -563
284 -649 562 l-21 68 0 4104 0 4105 21 62 c63 189 239 375 443 467 83 38 192
68 287 79 41 5 1846 8 4039 7 3772 -1 3969 -2 4039 -19z M6755 8899 c-624 -59
-1142 -327 -1554 -804 -183 -211 -298 -389 -435 -670 -194 -396 -320 -842
-403 -1415 -21 -149 -31 -1161 -13 -1335 74 -722 273 -1353 585 -1863 436
-713 1038 -1108 1801 -1183 150 -15 504 -6 639 15 874 139 1531 719 1925 1702
145 360 241 745 306 1224 26 188 32 1089 9 1309 -90 863 -356 1596 -775 2133
-93 120 -339 363 -450 445 -311 231 -638 366 -1025 424 -153 23 -464 32 -610
18z m645 -269 c668 -118 1179 -502 1538 -1155 490 -891 629 -2308 343 -3488
-255 -1049 -808 -1751 -1575 -1996 -241 -77 -426 -105 -711 -105 -300 0 -489
28 -735 110 -941 313 -1529 1259 -1687 2714 -26 238 -26 895 0 1130 109 984
412 1735 892 2215 352 352 743 534 1285 599 19 2 145 3 280 1 200 -2 268 -7
370 -25z M6830 7395 c-297 -61 -508 -276 -655 -670 -108 -288 -167 -668 -185
-1185 -15 -426 5 -837 56 -1170 107 -698 363 -1111 750 -1210 95 -25 279 -27
371 -5 426 100 695 573 787 1385 49 432 49 1044 0 1483 -101 914 -436 1392
-971 1386 -48 0 -117 -7 -153 -14z m330 -281 c283 -85 437 -340 536 -893 l24
-135 0 -795 c0 -753 -1 -803 -20 -921 -12 -69 -25 -141 -30 -160 -5 -19 -17
-66 -26 -105 -80 -332 -226 -569 -406 -661 -177 -90 -429 -67 -589 53 -76 57
-130 125 -191 240 -100 188 -154 381 -204 713 -24 162 -24 177 -24 833 0 618
2 678 20 815 91 649 284 971 621 1031 72 13 221 5 289 -15z M1730 8793 c-134
-14 -301 -75 -398 -147 -61 -44 -183 -169 -227 -231 -45 -62 -103 -182 -126
-259 -29 -94 -27 -401 2 -500 56 -188 199 -389 352 -497 148 -104 271 -135
570 -145 l207 -7 0 -2221 c0 -2418 -3 -2280 55 -2458 65 -198 212 -397 372
-506 79 -53 123 -75 223 -108 81 -27 95 -28 265 -29 178 0 181 1 275 33 136
47 220 101 326 206 130 130 221 288 270 471 21 76 21 5669 0 5748 -25 97 -89
230 -148 308 -153 203 -331 310 -563 338 -83 10 -1363 14 -1455 4z m1544 -263
c255 -65 410 -265 437 -565 6 -70 9 -1079 7 -2775 -3 -2432 -5 -2671 -20
-2731 -62 -250 -215 -418 -448 -491 -64 -20 -96 -23 -225 -23 -129 0 -160 3
-225 23 -116 37 -187 79 -270 162 -87 86 -137 176 -173 311 l-22 84 0 2377 0
2378 -305 0 c-359 1 -424 9 -547 70 -199 99 -316 305 -317 560 0 123 18 201
71 310 49 101 169 222 266 268 128 61 111 60 938 61 721 1 759 0 833 -19z"/>
</g>
</svg>
