<?xml version="1.0" standalone="no"?>
<!DOCTYPE svg PUBLIC "-//W3C//DTD SVG 20010904//EN"
 "http://www.w3.org/TR/2001/REC-SVG-20010904/DTD/svg10.dtd">
<svg version="1.0" xmlns="http://www.w3.org/2000/svg"
 width="2048.000000pt" height="2048.000000pt" viewBox="0 0 2048.000000 2048.000000"
 preserveAspectRatio="xMidYMid meet">
<metadata>
Created by potrace 1.13, written by Peter Selinger 2001-2015
</metadata>
<g transform="translate(0.000000,2048.000000) scale(0.192120,-0.192120)"
fill="#000000" stroke="none">
<path d="M5215 10323 c-288 -40 -548 -244 -659 -519 -40 -97 -58 -210 -54
-329 l3 -105 -94 -31 c-256 -86 -517 -226 -766 -413 -143 -108 -392 -352 -495
-486 -74 -96 -140 -193 -140 -206 0 -3 37 -4 83 -2 112 6 159 32 272 149 356
371 565 519 1026 727 102 46 175 102 240 185 48 60 69 125 79 242 4 50 17 119
29 153 64 188 237 347 431 397 93 24 271 17 360 -14 124 -43 236 -130 311
-241 59 -88 99 -212 99 -305 0 -134 81 -266 224 -364 24 -17 106 -58 183 -91
405 -178 700 -407 1042 -810 169 -199 302 -447 395 -736 101 -316 120 -463
136 -1019 20 -713 92 -1196 249 -1665 140 -421 314 -729 670 -1195 80 -104
174 -232 209 -285 77 -114 160 -284 198 -400 25 -78 27 -101 31 -293 l5 -209
-43 -106 c-37 -93 -43 -119 -47 -205 -5 -110 -7 -108 71 -60 95 59 170 171
206 303 30 112 33 163 22 298 -14 153 -33 248 -76 379 -68 203 -160 354 -424
693 -323 415 -479 684 -613 1055 -170 471 -268 1125 -268 1784 0 323 -26 556
-90 806 -120 471 -359 898 -699 1248 -300 309 -696 563 -1071 687 l-95 31 3
104 c8 236 -73 441 -243 611 -180 181 -448 272 -700 237z M1579 9307 c-102
-43 -173 -110 -218 -206 -23 -49 -26 -68 -26 -161 0 -179 -41 -128 686 -856
l631 -631 -26 -104 c-55 -228 -65 -330 -76 -764 -10 -392 -20 -553 -51 -805
-78 -628 -225 -1095 -483 -1528 -80 -134 -180 -275 -367 -518 -245 -317 -340
-474 -403 -664 -45 -135 -63 -229 -77 -384 -25 -296 70 -518 267 -623 127 -68
-144 -63 3429 -63 l3239 0 446 -444 c505 -503 496 -496 645 -504 99 -5 183 19
257 73 163 119 208 361 98 525 -16 24 -1732 1747 -3812 3828 -3466 3466 -3788
3785 -3847 3815 -57 28 -76 32 -160 35 -83 2 -104 -1 -152 -21z m247 -297 c37
-18 150 -124 474 -445 419 -416 510 -498 659 -597 61 -40 672 -646 3009 -2982
2429 -2427 2945 -2947 3001 -3026 94 -131 131 -177 254 -313 l107 -118 0 -68
c0 -38 -3 -77 -6 -86 -10 -25 -59 -45 -114 -45 -97 0 -123 21 -525 420 -327
324 -389 380 -530 484 -160 118 -166 125 -2672 2629 -1382 1381 -2525 2528
-2540 2549 -188 259 -236 312 -802 883 -289 292 -532 540 -539 552 -6 13 -12
52 -12 88 0 56 3 66 22 76 65 35 139 35 214 -1z m3537 -4267 c1468 -1468 2672
-2675 2677 -2684 7 -12 -28 -3 -122 33 -73 27 -173 61 -223 76 l-90 27 -2970
5 c-2886 5 -2971 6 -3022 24 -66 24 -164 110 -193 171 -21 43 -21 55 -18 282
4 232 5 240 32 313 72 191 175 362 391 645 386 508 520 747 675 1200 87 256
161 589 199 903 41 328 46 437 46 937 l0 490 -27 105 c-14 58 -30 113 -33 123
-4 9 -3 17 1 17 5 0 1210 -1200 2677 -2667z M4223 1352 c13 -181 92 -398 200
-551 133 -188 344 -344 562 -414 132 -42 193 -51 345 -51 193 0 336 32 495
111 157 79 329 229 425 372 102 153 174 357 187 533 l6 88 -1113 0 -1113 0 6
-88z m1921 -214 c0 -54 -23 -110 -78 -193 -145 -218 -396 -355 -682 -372 -263
-15 -524 80 -704 257 -113 112 -200 273 -183 339 l5 21 822 -2 821 -3 -1 -47z"/>
</g>
</svg>
