<?xml version="1.0" standalone="no"?>
<!DOCTYPE svg PUBLIC "-//W3C//DTD SVG 20010904//EN"
 "http://www.w3.org/TR/2001/REC-SVG-20010904/DTD/svg10.dtd">
<svg version="1.0" xmlns="http://www.w3.org/2000/svg"
 width="2048.000000pt" height="2048.000000pt" viewBox="0 0 2048.000000 2048.000000"
 preserveAspectRatio="xMidYMid meet">
<metadata>
Created by potrace 1.13, written by Peter Selinger 2001-2015
</metadata>
<g transform="translate(0.000000,2048.000000) scale(0.192120,-0.192120)"
fill="#000000" stroke="none">
<path d="M2447 10315 c-121 -33 -237 -117 -278 -202 -15 -31 -22 -64 -22 -102
0 -108 11 -122 500 -612 436 -437 444 -447 463 -506 70 -225 46 -482 -65 -708
-119 -240 -388 -498 -622 -595 -213 -89 -452 -103 -656 -40 -59 19 -69 27
-506 463 -461 460 -489 484 -584 501 -131 24 -281 -113 -332 -304 -40 -150 6
-520 99 -804 110 -333 285 -616 541 -871 343 -344 751 -551 1240 -632 170 -27
508 -25 679 6 70 12 133 24 140 27 6 2 660 -645 1453 -1438 l1442 -1443 -14
-65 c-41 -185 -55 -447 -35 -651 87 -874 684 -1620 1515 -1894 254 -84 610
-134 767 -107 193 33 341 168 341 311 0 108 -12 122 -499 611 -487 489 -459
454 -490 618 -35 186 -3 402 86 587 113 234 372 490 603 595 216 98 467 116
680 50 59 -19 69 -28 511 -468 465 -462 484 -479 579 -496 131 -24 282 114
332 305 18 64 19 153 4 309 -22 247 -97 522 -201 741 -321 674 -941 1138
-1678 1254 -229 36 -520 30 -742 -15 l-93 -20 -1442 1443 c-950 949 -1441
1447 -1438 1457 19 61 47 281 52 405 45 1172 -839 2180 -2011 2294 -142 14
-259 13 -319 -4z m408 -270 c257 -38 479 -111 690 -228 477 -263 802 -668 942
-1174 l27 -98 6 -475 5 -475 27 -58 c71 -151 73 -153 1472 -1555 743 -744
1378 -1374 1411 -1399 33 -25 84 -57 114 -71 49 -23 61 -24 160 -19 58 3 170
11 249 18 173 15 381 2 567 -36 691 -141 1260 -628 1475 -1264 63 -186 70
-239 70 -500 0 -226 -1 -240 -21 -265 -13 -16 -30 -26 -47 -26 -60 0 -130 60
-502 430 -264 261 -397 386 -450 421 -235 156 -614 152 -934 -8 -316 -159
-629 -501 -745 -813 -54 -146 -61 -194 -61 -403 0 -215 8 -266 57 -373 69
-151 121 -212 537 -631 292 -295 339 -347 339 -372 0 -17 -5 -37 -12 -45 -56
-67 -360 -60 -647 14 -573 148 -1033 519 -1291 1040 -72 146 -124 294 -152
437 -19 93 -21 137 -21 527 l0 426 -29 65 c-16 36 -51 93 -77 127 -65 87
-2724 2749 -2800 2804 -34 24 -83 54 -109 65 -54 24 -111 23 -403 -2 -504 -43
-1039 123 -1442 448 -111 89 -277 266 -353 374 -111 159 -201 337 -256 504
-71 216 -81 280 -81 521 0 191 1 205 20 224 25 25 88 27 133 4 18 -9 199 -182
402 -384 381 -377 490 -472 592 -510 192 -72 445 -72 668 1 408 134 799 560
929 1013 24 82 26 103 26 290 -1 220 -8 268 -57 376 -51 109 -159 236 -512
592 -186 189 -343 353 -349 365 -28 52 -11 83 57 104 44 13 272 10 376 -6z"/>
</g>
</svg>
