<?xml version="1.0" standalone="no"?>
<!DOCTYPE svg PUBLIC "-//W3C//DTD SVG 20010904//EN"
 "http://www.w3.org/TR/2001/REC-SVG-20010904/DTD/svg10.dtd">
<svg version="1.0" xmlns="http://www.w3.org/2000/svg"
 width="2048.000000pt" height="2048.000000pt" viewBox="0 0 2048.000000 2048.000000"
 preserveAspectRatio="xMidYMid meet">
<metadata>
Created by potrace 1.13, written by Peter Selinger 2001-2015
</metadata>
<g transform="translate(0.000000,2048.000000) scale(0.192120,-0.192120)"
fill="#000000" stroke="none">
<path d="M1320 10324 c-273 -42 -463 -131 -640 -301 -176 -167 -284 -364 -332
-603 -19 -96 -19 -8084 0 -8180 80 -398 361 -723 733 -849 180 -60 -136 -56
4249 -56 3399 0 4036 2 4095 14 398 79 726 367 848 746 55 171 52 -100 52
4235 0 4335 3 4064 -52 4235 -51 157 -132 292 -250 415 -160 169 -333 267
-572 328 -61 15 -367 16 -4086 18 -2211 1 -4031 0 -4045 -2z m8089 -287 c294
-72 494 -221 609 -457 l37 -75 0 -4165 0 -4165 -28 -69 c-120 -296 -384 -481
-736 -516 -74 -8 -1306 -10 -4041 -8 -3625 4 -3940 5 -4000 20 -334 86 -563
284 -649 562 l-21 68 0 4104 0 4105 21 62 c63 189 239 375 443 467 83 38 192
68 287 79 41 5 1846 8 4039 7 3772 -1 3969 -2 4039 -19z M4630 7964 c-14 -3
-53 -14 -88 -25 -181 -59 -384 -289 -423 -479 -6 -30 -15 -73 -20 -95 -4 -22
-8 -235 -9 -474 0 -428 0 -433 -20 -428 -15 4 -20 0 -20 -16 0 -19 -5 -17 -36
18 -194 219 -290 275 -473 275 -133 -1 -202 -23 -340 -110 -36 -22 -77 -40
-91 -40 -15 0 -81 27 -146 59 -204 102 -374 139 -589 127 -329 -16 -612 -146
-874 -401 -241 -235 -387 -485 -489 -840 -24 -87 -25 -100 -29 -440 -5 -370
-3 -397 43 -560 150 -530 512 -954 954 -1118 155 -58 281 -80 450 -80 214 0
332 31 544 142 83 44 124 60 139 55 12 -3 59 -31 105 -61 103 -68 174 -94 278
-100 240 -16 402 94 557 377 41 76 64 86 96 42 12 -17 21 -33 21 -36 0 -21
103 -160 163 -220 81 -80 163 -128 258 -151 157 -37 289 -6 462 107 26 17 61
31 77 31 17 0 85 -27 153 -61 211 -106 405 -145 616 -123 319 33 590 165 818
397 130 133 211 246 337 471 82 148 94 148 177 -5 255 -466 636 -758 1109
-847 129 -25 378 -25 515 -1 191 34 368 95 500 172 94 55 232 190 284 277 73
124 86 169 89 317 l3 135 -46 93 c-64 128 -175 242 -290 298 -77 38 -82 39
-185 38 -101 0 -112 -2 -280 -59 -170 -57 -178 -59 -285 -59 -99 -1 -116 2
-166 25 -75 35 -132 88 -169 157 -55 102 -62 142 -58 350 3 182 4 189 32 250
36 79 114 152 194 183 47 19 76 23 167 23 105 -1 117 -3 267 -52 87 -28 185
-56 218 -63 146 -28 284 18 398 133 71 73 90 98 134 183 58 113 68 156 68 296
l0 129 -40 82 c-44 92 -129 198 -217 270 -117 97 -314 177 -538 220 -161 30
-474 33 -605 4 -210 -45 -412 -134 -579 -253 -188 -135 -387 -357 -497 -556
-59 -106 -89 -147 -109 -147 -22 0 -53 45 -114 166 -75 149 -165 274 -287 403
-149 156 -287 252 -471 325 -160 64 -252 80 -458 80 -187 1 -231 -5 -381 -50
-45 -13 -85 -24 -88 -24 -3 0 -6 18 -6 40 0 30 -3 38 -14 34 -12 -5 -15 40
-19 288 -4 321 -12 380 -67 511 -70 164 -225 316 -375 367 -59 21 -186 33
-235 24z m152 -245 c29 -6 74 -22 99 -35 62 -31 142 -121 171 -192 23 -57 23
-59 28 -640 l5 -582 74 55 c96 72 233 139 357 172 91 25 114 27 294 27 183 1
201 -1 294 -27 201 -56 357 -149 503 -300 285 -295 438 -744 420 -1227 -7
-176 -29 -299 -81 -454 -187 -558 -639 -915 -1162 -916 -164 0 -359 56 -487
140 -72 47 -172 144 -197 190 -13 25 -13 24 -30 -25 -59 -174 -157 -255 -328
-271 -124 -12 -259 43 -327 132 -43 56 -75 137 -85 215 -13 100 -13 3301 0
3391 15 102 45 171 102 234 93 101 216 141 350 113z m-2067 -1223 c165 -50
324 -152 405 -259 19 -25 37 -47 40 -47 3 0 11 24 18 53 25 105 126 209 237
242 63 20 178 19 245 -1 104 -31 170 -97 208 -209 15 -46 17 -142 20 -1172 3
-1212 3 -1203 -50 -1310 -30 -59 -97 -117 -161 -140 -78 -27 -236 -24 -300 5
-94 42 -151 110 -188 221 -12 36 -23 67 -24 69 -1 1 -40 -35 -86 -81 -223
-220 -491 -302 -822 -252 -516 78 -918 497 -1036 1080 -160 788 217 1562 866
1781 130 44 203 54 378 50 139 -3 172 -7 250 -30z m6216 5 c145 -29 234 -58
334 -107 118 -57 194 -125 236 -209 30 -61 31 -70 27 -152 -3 -73 -10 -99 -36
-154 -34 -72 -91 -137 -144 -166 -25 -14 -54 -18 -118 -17 -75 1 -100 6 -215
48 -226 83 -249 88 -370 89 -166 2 -288 -42 -400 -145 -154 -140 -237 -355
-238 -618 -2 -374 194 -678 489 -755 138 -36 253 -17 531 86 171 63 223 66
319 19 69 -34 121 -86 156 -159 19 -38 23 -62 23 -141 0 -84 -3 -101 -28 -147
-94 -180 -382 -319 -751 -364 -181 -22 -427 6 -598 67 -304 109 -565 339 -722
635 -200 375 -238 851 -101 1255 170 499 570 861 1050 949 115 21 426 13 556
-14z M5583 5829 c-324 -54 -524 -395 -491 -838 26 -348 201 -610 453 -677 76
-21 211 -18 287 6 192 59 339 237 410 497 17 63 21 108 22 238 1 195 -18 286
-96 445 -42 88 -63 117 -127 181 -86 85 -150 121 -256 144 -77 16 -124 17
-202 4z m235 -305 c61 -27 121 -87 154 -153 22 -44 23 -56 23 -302 l0 -256
-35 -68 c-63 -121 -159 -185 -280 -185 -155 0 -265 84 -321 247 -17 49 -19 85
-19 283 l0 227 30 61 c17 33 47 75 67 93 99 87 257 109 381 53z M2430 5824
c-265 -57 -445 -307 -479 -667 -30 -314 87 -627 286 -763 94 -64 161 -86 279
-92 243 -10 411 99 525 343 64 137 83 233 84 420 0 194 -20 285 -96 443 -122
252 -347 371 -599 316z m176 -275 c106 -19 183 -81 231 -186 24 -52 24 -56 21
-305 -3 -252 -3 -253 -30 -308 -39 -78 -82 -127 -142 -158 -45 -24 -62 -27
-146 -27 -76 0 -104 4 -141 21 -72 33 -115 79 -159 166 l-40 80 0 228 c0 209
2 233 21 284 40 104 128 179 239 202 71 16 76 16 146 3z"/>
</g>
</svg>
