<?xml version="1.0" standalone="no"?>
<!DOCTYPE svg PUBLIC "-//W3C//DTD SVG 20010904//EN"
 "http://www.w3.org/TR/2001/REC-SVG-20010904/DTD/svg10.dtd">
<svg version="1.0" xmlns="http://www.w3.org/2000/svg"
 width="2048.000000pt" height="2048.000000pt" viewBox="0 0 2048.000000 2048.000000"
 preserveAspectRatio="xMidYMid meet">
<metadata>
Created by potrace 1.13, written by Peter Selinger 2001-2015
</metadata>
<g transform="translate(0.000000,2048.000000) scale(0.192120,-0.192120)"
fill="#000000" stroke="none">
<path d="M1320 10324 c-273 -42 -463 -131 -640 -301 -176 -167 -284 -364 -332
-603 -19 -96 -19 -8084 0 -8180 80 -398 361 -723 733 -849 180 -60 -136 -56
4249 -56 3399 0 4036 2 4095 14 398 79 726 367 848 746 55 171 52 -100 52
4235 0 4335 3 4064 -52 4235 -51 157 -132 292 -250 415 -160 169 -333 267
-572 328 -61 15 -367 16 -4086 18 -2211 1 -4031 0 -4045 -2z m8089 -287 c294
-72 494 -221 609 -457 l37 -75 0 -4165 0 -4165 -28 -69 c-120 -296 -384 -481
-736 -516 -74 -8 -1306 -10 -4041 -8 -3625 4 -3940 5 -4000 20 -334 86 -563
284 -649 562 l-21 68 0 4104 0 4105 21 62 c63 189 239 375 443 467 83 38 192
68 287 79 41 5 1846 8 4039 7 3772 -1 3969 -2 4039 -19z M2970 9655 c-178 -40
-369 -181 -512 -375 -71 -97 -153 -305 -648 -1644 -285 -770 -527 -1433 -539
-1472 -17 -58 -21 -98 -21 -213 0 -78 4 -149 9 -159 4 -9 23 -48 40 -85 57
-123 156 -238 265 -309 169 -109 404 -109 572 1 140 92 238 234 319 461 50
140 82 199 114 208 14 4 265 7 557 7 446 0 534 -2 548 -14 24 -20 51 -76 88
-179 101 -288 270 -487 463 -544 291 -85 577 76 705 397 28 67 30 84 30 195 0
179 63 -12 -673 2030 -409 1133 -393 1090 -446 1201 -104 219 -303 406 -506
475 -99 34 -262 42 -365 19z m321 -254 c141 -44 269 -157 346 -306 36 -69
1098 -3018 1113 -3091 15 -71 7 -160 -19 -220 -28 -62 -101 -136 -168 -170
-55 -27 -65 -29 -178 -29 -110 0 -125 3 -176 28 -69 33 -139 103 -169 167 -12
26 -59 164 -105 306 l-82 259 -735 3 -734 2 -83 -262 c-46 -145 -94 -285 -108
-311 -37 -73 -95 -131 -166 -163 -57 -27 -71 -29 -177 -29 -110 0 -118 1 -182
33 -135 66 -209 185 -209 332 0 91 -70 -107 606 1720 273 740 515 1381 538
1425 55 106 173 226 270 273 131 65 278 76 418 33z M3055 8433 c-59 -183 -431
-1321 -441 -1348 -5 -13 53 -15 496 -15 l502 0 -5 23 c-2 12 -99 317 -215 677
-116 360 -223 697 -239 748 -15 50 -31 92 -35 92 -3 0 -32 -80 -63 -177z m93
-681 c11 -15 39 -90 62 -166 31 -106 40 -151 38 -194 l-3 -57 -140 0 -140 0
-3 48 c-2 36 8 81 39 175 72 219 102 258 147 194z M6410 9609 c-69 -4 -142
-16 -182 -28 -155 -49 -323 -203 -401 -368 l-32 -68 -3 -1639 c-2 -1633 -2
-1640 18 -1694 61 -162 198 -327 330 -396 140 -73 103 -70 820 -74 754 -4 840
2 1065 74 201 64 371 168 515 313 149 151 258 328 329 536 53 158 61 215 61
460 0 272 -12 328 -111 530 -56 115 -125 203 -266 341 -95 94 -123 128 -123
148 0 14 23 65 50 113 57 99 103 212 125 305 23 100 21 449 -4 553 -44 179
-146 364 -286 513 -230 247 -483 360 -855 382 -189 11 -879 11 -1050 -1z m830
-252 c366 -4 400 -5 470 -25 424 -120 682 -426 706 -837 23 -371 -129 -651
-435 -804 -34 -18 -61 -35 -58 -37 3 -3 38 -12 78 -20 169 -36 310 -109 437
-228 215 -204 304 -427 289 -730 -13 -268 -90 -487 -236 -669 -150 -185 -361
-304 -654 -369 -101 -23 -111 -23 -822 -23 l-720 0 -67 32 c-89 42 -151 101
-191 182 l-32 66 0 1595 0 1595 29 63 c54 117 168 194 311 210 32 4 158 6 280
5 121 -2 398 -4 615 -6z M6790 8273 l0 -398 237 2 c263 3 321 11 406 56 102
54 164 145 187 277 41 231 -91 411 -330 451 -30 5 -155 9 -277 9 l-223 0 0
-397z m495 105 c22 -5 46 -15 53 -20 13 -11 17 -133 6 -163 -14 -35 -83 -57
-196 -63 l-108 -5 0 138 0 138 103 -7 c56 -4 120 -12 142 -18z M6790 6740 l0
-442 363 5 c295 3 373 7 420 20 178 51 286 165 324 341 40 188 -34 355 -194
439 -128 67 -148 69 -550 74 l-363 5 0 -442z m640 159 c46 -5 109 -20 140 -32
l55 -22 3 -92 c2 -55 -2 -101 -8 -114 -7 -11 -37 -33 -68 -47 -56 -26 -63 -27
-284 -30 l-228 -4 0 176 0 176 153 0 c84 0 190 -5 237 -11z M3130 5216 c-584
-84 -1079 -402 -1410 -906 -116 -177 -232 -441 -285 -650 -53 -209 -55 -232
-55 -615 0 -319 2 -372 20 -463 104 -534 400 -1030 803 -1343 220 -171 431
-274 702 -344 188 -48 293 -60 515 -59 388 1 728 81 970 226 164 99 308 278
376 467 24 66 26 83 22 199 l-3 127 -49 99 c-41 85 -61 113 -140 191 -95 96
-157 136 -251 161 -118 32 -227 12 -476 -84 -234 -91 -264 -97 -469 -97 -163
1 -181 3 -255 28 -218 73 -371 232 -453 472 l-27 80 0 335 0 335 33 87 c47
125 95 203 177 284 128 127 282 190 490 200 155 8 282 -13 480 -81 261 -88
348 -101 468 -70 86 22 130 49 212 126 155 148 222 307 213 507 -8 157 -52
255 -184 408 -159 183 -410 301 -779 365 -147 26 -509 34 -645 15z m546 -251
c383 -51 655 -168 779 -336 127 -173 95 -421 -68 -533 -111 -75 -215 -74 -415
3 -266 103 -385 126 -610 118 -153 -5 -212 -16 -330 -64 -106 -42 -180 -91
-270 -177 -242 -233 -365 -587 -349 -1011 8 -228 52 -414 137 -579 167 -326
437 -503 795 -523 201 -11 355 22 600 127 188 80 221 90 297 90 130 0 247 -82
311 -217 28 -59 32 -78 31 -148 -2 -302 -301 -510 -848 -590 -557 -81 -1072
47 -1461 365 -102 84 -251 242 -325 348 -188 267 -304 577 -350 937 -14 108
-14 417 0 535 106 889 701 1535 1523 1654 129 19 411 19 553 1z M6143 5150
c-193 -51 -354 -187 -447 -380 l-41 -85 -3 -1634 -2 -1634 21 -56 c59 -160
208 -334 340 -398 137 -68 141 -68 779 -68 598 0 652 3 870 46 607 121 1098
519 1359 1104 60 136 113 296 148 446 24 108 26 132 30 461 5 389 -1 465 -61
702 -101 399 -289 727 -572 996 -234 223 -493 362 -839 450 -247 63 -342 70
-965 69 -501 0 -551 -2 -617 -19z m1227 -241 c904 -82 1486 -652 1604 -1569
66 -517 -15 -996 -233 -1368 -220 -377 -610 -655 -1061 -756 -201 -45 -254
-49 -850 -53 -621 -5 -663 -2 -769 49 -70 33 -134 100 -167 171 l-29 62 0
1595 0 1595 27 57 c50 106 142 183 258 214 58 16 1053 19 1220 3z M6650 3039
l0 -1151 353 5 c375 5 408 9 553 61 130 47 202 94 309 201 146 146 226 300
275 530 28 128 38 415 21 565 -61 524 -347 849 -812 925 -69 11 -173 15 -396
15 l-303 0 0 -1151z m620 871 c195 -24 352 -91 456 -195 70 -70 111 -139 148
-247 l26 -76 0 -344 c0 -370 -4 -403 -56 -518 -92 -202 -241 -317 -468 -365
-48 -9 -157 -18 -278 -22 l-198 -6 0 891 0 892 143 0 c78 0 181 -5 227 -10z"/>
</g>
</svg>
