<?xml version="1.0" standalone="no"?>
<!DOCTYPE svg PUBLIC "-//W3C//DTD SVG 20010904//EN"
 "http://www.w3.org/TR/2001/REC-SVG-20010904/DTD/svg10.dtd">
<svg version="1.0" xmlns="http://www.w3.org/2000/svg"
 width="2048.000000pt" height="2048.000000pt" viewBox="0 0 2048.000000 2048.000000"
 preserveAspectRatio="xMidYMid meet">
<metadata>
Created by potrace 1.13, written by Peter Selinger 2001-2015
</metadata>
<g transform="translate(0.000000,2048.000000) scale(0.192120,-0.192120)"
fill="#000000" stroke="none">
<path d="M1320 10324 c-273 -42 -463 -131 -640 -301 -176 -167 -284 -364 -332
-603 -19 -96 -19 -8084 0 -8180 80 -398 361 -723 733 -849 180 -60 -136 -56
4249 -56 3399 0 4036 2 4095 14 398 79 726 367 848 746 55 171 52 -100 52
4235 0 4335 3 4064 -52 4235 -51 157 -132 292 -250 415 -160 169 -333 267
-572 328 -61 15 -367 16 -4086 18 -2211 1 -4031 0 -4045 -2z m8089 -287 c294
-72 494 -221 609 -457 l37 -75 0 -4165 0 -4165 -28 -69 c-120 -296 -384 -481
-736 -516 -74 -8 -1306 -10 -4041 -8 -3625 4 -3940 5 -4000 20 -334 86 -563
284 -649 562 l-21 68 0 4104 0 4105 21 62 c63 189 239 375 443 467 83 38 192
68 287 79 41 5 1846 8 4039 7 3772 -1 3969 -2 4039 -19z M7150 9670 c-242 -23
-471 -108 -685 -254 -116 -79 -288 -245 -379 -367 -76 -100 -182 -297 -211
-389 -52 -168 -55 -189 -55 -382 0 -180 1 -191 27 -255 77 -195 239 -362 402
-414 91 -29 224 -29 304 -1 80 29 165 92 232 171 65 76 152 247 210 414 42
122 77 176 128 200 45 22 148 22 187 2 l30 -16 0 -132 c0 -156 -7 -175 -122
-346 -149 -223 -357 -480 -743 -920 -509 -582 -556 -640 -633 -786 l-47 -90
-3 -137 c-3 -115 -1 -145 14 -185 60 -157 188 -309 312 -372 139 -70 64 -65
1129 -69 1058 -3 1044 -4 1169 58 103 51 203 154 271 280 53 99 63 143 63 280
0 113 -3 133 -26 191 -54 132 -190 282 -307 338 -96 46 -182 60 -414 67 -114
4 -218 11 -230 15 -13 5 -23 17 -23 28 0 11 59 91 131 178 446 536 648 885
745 1283 9 37 13 127 14 278 0 208 -2 231 -26 325 -32 127 -114 309 -185 413
-75 109 -232 269 -336 343 -110 79 -280 162 -398 196 -170 49 -385 70 -545 55z
m377 -265 c549 -105 913 -530 913 -1065 0 -265 -106 -556 -319 -877 -122 -185
-244 -341 -470 -602 -97 -112 -245 -283 -329 -380 l-152 -176 557 -5 c554 -5
558 -5 615 -28 76 -31 149 -98 179 -164 33 -74 35 -230 2 -300 -32 -70 -94
-131 -166 -164 l-62 -29 -975 -3 c-699 -2 -992 0 -1035 8 -117 23 -204 83
-253 175 -24 45 -27 61 -27 150 0 95 2 103 34 163 38 71 154 210 492 592 407
460 583 670 768 920 180 241 248 357 289 491 75 244 -7 464 -206 557 -50 24
-69 27 -157 26 -133 -1 -198 -25 -275 -103 -68 -69 -104 -142 -171 -348 -62
-192 -96 -262 -155 -318 -54 -53 -120 -77 -214 -77 -233 0 -380 154 -380 397
0 573 478 1090 1086 1174 92 13 309 6 411 -14z M2700 9610 c-128 -9 -212 -38
-303 -103 -88 -63 -184 -175 -232 -272 l-40 -80 0 -155 0 -155 37 -77 c102
-214 249 -346 427 -384 36 -7 92 -14 124 -14 l57 0 0 -1207 c0 -1047 2 -1218
15 -1282 31 -145 97 -270 203 -383 73 -77 148 -126 242 -158 89 -31 237 -31
331 -1 168 53 316 207 399 413 l30 77 -2 1668 -3 1668 -44 89 c-36 74 -59 105
-135 181 -97 98 -152 131 -261 160 -48 13 -130 17 -400 20 -187 2 -387 0 -445
-5z m817 -254 c99 -13 191 -87 240 -191 l28 -60 3 -1594 c3 -1739 5 -1656 -54
-1756 -34 -58 -94 -111 -163 -144 -51 -24 -67 -26 -176 -26 -109 0 -125 2
-176 26 -107 50 -172 131 -204 254 -13 52 -15 229 -15 1417 l0 1358 -193 0
c-218 0 -268 9 -339 63 -51 38 -103 112 -120 170 -7 23 -13 83 -13 132 0 78 4
98 28 150 52 112 152 189 265 203 65 8 826 7 889 -2z M3185 5230 c-482 -50
-960 -359 -1159 -749 -79 -155 -89 -199 -84 -372 4 -137 6 -148 37 -219 132
-298 383 -459 617 -396 118 31 227 117 365 287 95 117 134 151 201 173 56 18
163 21 202 6 24 -9 26 -14 26 -69 0 -84 -12 -95 -185 -151 -165 -54 -229 -91
-326 -189 -66 -67 -95 -105 -127 -170 l-42 -83 0 -152 c0 -124 3 -161 19 -203
31 -85 90 -174 167 -250 109 -108 189 -143 449 -193 61 -12 129 -31 153 -42
l42 -20 0 -112 c0 -101 -2 -117 -22 -146 -13 -19 -45 -45 -73 -59 -43 -23 -62
-26 -150 -26 -89 0 -106 3 -155 27 -71 35 -116 80 -203 203 -101 142 -234 273
-321 315 -61 30 -81 35 -165 38 -84 4 -106 1 -176 -23 -157 -52 -313 -190
-397 -349 l-43 -81 -3 -143 c-4 -133 -2 -150 23 -230 35 -114 132 -300 213
-407 221 -293 538 -498 891 -575 357 -79 757 -28 1076 136 380 195 647 522
776 951 17 56 22 104 26 271 5 186 3 212 -17 300 -12 53 -39 136 -60 184 -71
165 -120 238 -309 459 -65 76 -64 89 5 203 56 94 116 228 145 329 27 90 38
385 19 494 -63 364 -358 737 -715 904 -234 110 -481 154 -720 129z m342 -265
c447 -72 785 -372 878 -777 21 -91 21 -265 1 -368 -44 -229 -174 -438 -348
-560 l-70 -49 64 -32 c216 -109 414 -317 503 -527 68 -162 94 -333 75 -492
-33 -268 -148 -491 -353 -688 -181 -172 -401 -284 -677 -343 -150 -33 -437
-33 -587 -1 -400 86 -728 322 -884 637 -93 187 -113 350 -57 460 88 171 344
270 497 191 46 -25 124 -118 196 -236 153 -250 307 -349 540 -350 150 0 274
50 369 149 102 108 142 223 134 388 -7 118 -32 192 -89 256 -73 84 -144 112
-380 152 -220 37 -267 54 -342 124 -54 51 -78 123 -78 236 0 111 23 182 78
238 51 53 125 88 283 132 169 47 227 73 283 124 76 71 113 200 95 332 -15 113
-93 216 -195 260 -95 41 -255 42 -363 4 -105 -37 -170 -96 -287 -260 -122
-171 -181 -215 -299 -223 -127 -8 -236 49 -301 159 -132 223 -47 514 220 747
196 172 441 285 707 325 66 11 304 5 387 -8z M7440 5214 c-170 -37 -345 -165
-487 -354 -46 -61 -1102 -1968 -1218 -2200 -40 -80 -78 -163 -85 -185 -7 -25
-10 -90 -8 -175 3 -119 6 -141 28 -185 67 -138 181 -266 286 -322 125 -67 121
-66 735 -70 l556 -4 6 -127 c9 -203 39 -312 125 -447 84 -131 207 -226 337
-260 76 -19 224 -19 300 0 180 47 334 204 407 415 27 79 48 228 48 348 0 75 3
102 13 102 37 0 142 65 211 130 84 80 139 161 179 262 25 60 27 79 27 203 l0
137 -39 82 c-65 136 -201 275 -315 322 -44 18 -46 21 -46 60 0 27 -5 44 -14
47 -13 5 -15 109 -19 719 -3 693 -4 716 -26 811 -78 346 -322 615 -624 687
-98 24 -277 26 -377 4z m359 -250 c165 -41 299 -148 370 -296 78 -164 76 -133
76 -1111 l0 -867 62 0 c260 0 424 -169 392 -405 -24 -180 -177 -295 -392 -295
l-62 0 0 -273 c0 -303 -6 -352 -58 -438 -35 -59 -102 -111 -170 -131 -23 -7
-94 -12 -157 -12 -96 0 -125 4 -174 24 -76 29 -136 89 -167 166 -23 57 -24 70
-27 362 l-3 302 -659 0 c-450 0 -676 4 -712 11 -148 32 -250 131 -272 265 -10
57 8 148 42 214 112 214 1251 2265 1280 2303 66 86 172 155 280 181 81 20 270
20 351 0z M7441 4098 c-70 -153 -519 -1086 -625 -1297 l-56 -111 365 0 365 0
0 735 c0 503 -3 735 -10 735 -6 0 -24 -28 -39 -62z"/>
</g>
</svg>
