<?xml version="1.0" standalone="no"?>
<!DOCTYPE svg PUBLIC "-//W3C//DTD SVG 20010904//EN"
 "http://www.w3.org/TR/2001/REC-SVG-20010904/DTD/svg10.dtd">
<svg version="1.0" xmlns="http://www.w3.org/2000/svg"
 width="2048.000000pt" height="2048.000000pt" viewBox="0 0 2048.000000 2048.000000"
 preserveAspectRatio="xMidYMid meet">
<metadata>
Created by potrace 1.13, written by Peter Selinger 2001-2015
</metadata>
<g transform="translate(0.000000,2048.000000) scale(0.192120,-0.192120)"
fill="#000000" stroke="none">
<path d="M5230 8254 c-39 -14 -232 -203 -1418 -1388 -1018 -1017 -1378 -1383
-1394 -1416 -30 -60 -35 -144 -13 -212 16 -51 78 -114 1389 -1426 1017 -1018
1383 -1378 1416 -1394 60 -30 144 -35 212 -13 51 16 114 78 1426 1389 1018
1017 1378 1383 1394 1416 30 60 35 144 13 212 -16 51 -78 114 -1389 1426 -993
995 -1383 1378 -1415 1394 -57 28 -160 33 -221 12z m183 -285 c29 -14 444
-423 1325 -1303 l1282 -1281 0 -44 c0 -23 -7 -57 -15 -75 -23 -48 -2551 -2569
-2602 -2595 -54 -27 -103 -27 -156 0 -29 14 -441 419 -1301 1278 -692 691
-1271 1274 -1287 1295 -22 30 -29 50 -29 85 l0 46 1288 1287 c791 791 1302
1294 1327 1307 51 27 114 27 168 0z"/>
</g>
</svg>
