<?xml version="1.0" standalone="no"?>
<!DOCTYPE svg PUBLIC "-//W3C//DTD SVG 20010904//EN"
 "http://www.w3.org/TR/2001/REC-SVG-20010904/DTD/svg10.dtd">
<svg version="1.0" xmlns="http://www.w3.org/2000/svg"
 width="2048.000000pt" height="2048.000000pt" viewBox="0 0 2048.000000 2048.000000"
 preserveAspectRatio="xMidYMid meet">
<metadata>
Created by potrace 1.13, written by Peter Selinger 2001-2015
</metadata>
<g transform="translate(0.000000,2048.000000) scale(0.192120,-0.192120)"
fill="#000000" stroke="none">
<path d="M1320 10324 c-272 -41 -463 -131 -640 -301 -176 -167 -284 -364 -332
-603 -19 -96 -19 -8084 0 -8180 44 -218 140 -404 289 -560 167 -175 365 -284
603 -332 100 -20 8084 -19 8185 1 451 90 796 436 887 891 19 96 19 8084 0
8180 -45 223 -141 407 -298 570 -131 135 -276 227 -449 284 -185 60 113 56
-4239 55 -2189 -1 -3992 -3 -4006 -5z m8132 -326 c265 -73 477 -250 558 -464
20 -55 20 -57 20 -4195 l0 -4140 -21 -62 c-44 -132 -153 -276 -274 -363 -119
-85 -252 -134 -417 -154 -68 -8 -1164 -10 -4053 -8 l-3960 3 -85 23 c-176 47
-365 162 -458 281 -55 70 -117 186 -136 256 -15 55 -16 378 -14 4185 l3 4125
38 77 c124 253 376 421 692 461 17 2 1825 4 4020 3 l3990 -1 97 -27z M2448
8920 c-73 -13 -145 -38 -232 -83 -91 -47 -238 -180 -310 -281 -45 -63 -105
-181 -125 -247 -8 -25 -11 -853 -11 -2973 0 -3257 -6 -2969 66 -3117 117 -239
304 -408 534 -481 l75 -23 2885 0 2885 0 75 23 c260 82 461 286 564 572 l26
75 -2 2960 -3 2960 -39 90 c-51 117 -109 200 -216 306 -96 96 -186 152 -315
197 l-80 27 -2865 1 c-1576 1 -2886 -2 -2912 -6z m5797 -275 c82 -22 130 -45
199 -96 73 -55 147 -154 183 -244 l28 -70 3 -2879 c2 -3139 6 -2926 -53 -3049
-55 -116 -174 -224 -300 -274 l-70 -28 -2879 -3 c-2487 -2 -2888 0 -2936 12
-179 46 -325 176 -387 346 l-28 75 0 2895 0 2895 28 75 c48 132 151 245 277
306 116 56 -79 53 3015 53 2542 1 2867 -1 2920 -14z"/>
</g>
</svg>
