<?xml version="1.0" standalone="no"?>
<!DOCTYPE svg PUBLIC "-//W3C//DTD SVG 20010904//EN"
 "http://www.w3.org/TR/2001/REC-SVG-20010904/DTD/svg10.dtd">
<svg version="1.0" xmlns="http://www.w3.org/2000/svg"
 width="2048.000000pt" height="2048.000000pt" viewBox="0 0 2048.000000 2048.000000"
 preserveAspectRatio="xMidYMid meet">
<metadata>
Created by potrace 1.13, written by Peter Selinger 2001-2015
</metadata>
<g transform="translate(0.000000,2048.000000) scale(0.192120,-0.192120)"
fill="#000000" stroke="none">
<path d="M1982 10152 c-8 -54 -25 -104 -56 -167 -51 -104 -102 -175 -271 -375
-284 -338 -387 -522 -430 -768 -22 -127 -17 -325 11 -438 6 -24 5 -24 -67 -24
-175 0 -286 -119 -277 -294 3 -68 7 -80 43 -132 28 -40 57 -67 95 -88 l55 -31
910 0 910 0 51 27 c96 50 147 135 148 243 1 83 -23 143 -77 197 -57 57 -111
78 -201 78 l-78 0 7 38 c58 303 14 556 -140 818 -63 106 -123 186 -289 384
-220 263 -294 386 -319 534 l-13 76 -12 -78z m50 -552 c38 -29 286 -333 348
-424 29 -44 69 -113 89 -155 l36 -76 3 -188 c3 -136 0 -192 -8 -203 -11 -12
-89 -14 -514 -14 -377 0 -505 3 -514 12 -8 8 -12 61 -12 173 0 181 9 223 77
344 68 123 361 493 421 533 34 23 44 22 74 -2z m585 -1217 l82 -6 7 -46 c10
-78 27 -114 77 -163 26 -26 47 -53 47 -61 0 -24 -33 -52 -80 -70 -41 -15 -112
-17 -755 -17 -615 0 -716 2 -755 16 -41 14 -90 52 -90 70 0 5 24 31 53 58 53
52 77 101 77 162 0 43 11 52 65 57 88 6 1187 7 1272 0z M6711 9073 c-6 -238
-149 -500 -425 -777 -169 -171 -340 -313 -826 -691 -501 -390 -788 -653 -1003
-920 -224 -278 -374 -580 -437 -885 -28 -131 -38 -410 -21 -556 27 -228 97
-471 185 -645 l51 -100 2480 0 2480 0 56 109 c67 130 120 290 154 456 140 697
-74 1294 -681 1901 -207 207 -401 370 -925 779 -455 356 -707 587 -853 785
-130 175 -185 307 -224 541 l-9 55 -2 -52z m36 -678 c12 -8 69 -70 126 -138
207 -242 388 -403 957 -847 521 -407 752 -617 981 -890 137 -164 263 -385 319
-555 12 -38 27 -81 34 -95 16 -37 21 -695 6 -785 -32 -186 -104 -339 -171
-362 -26 -9 -569 -12 -2292 -12 -1945 -1 -2262 1 -2292 13 -61 26 -115 136
-160 331 -22 97 -22 700 1 789 103 405 396 788 956 1254 60 49 240 192 400
318 545 426 770 626 971 867 111 134 122 141 164 112z M2774 7758 c-28 -30
-55 -64 -58 -76 -4 -12 -12 -22 -17 -22 -5 0 -9 -9 -9 -20 0 -11 -4 -20 -10
-20 -6 0 -10 -32 -10 -75 0 -43 4 -75 10 -75 6 0 10 -7 10 -15 0 -18 19 -42
85 -109 l50 -51 3 133 c1 73 1 190 0 259 l-3 125 -51 -54z M1166 7732 c-7 -83
-6 -309 2 -381 l7 -55 53 60 c29 32 56 71 59 87 3 15 9 27 14 27 5 0 9 34 9
75 0 43 -4 75 -10 75 -5 0 -10 7 -10 15 0 37 -65 136 -101 156 -14 7 -17 -1
-23 -59z M1118 7269 c-93 -14 -179 -82 -213 -172 -27 -72 -18 -180 20 -243 33
-53 104 -107 163 -124 24 -6 351 -10 912 -10 973 0 927 -3 1009 67 82 70 117
184 87 285 -21 73 -87 147 -157 177 l-51 22 -862 2 c-475 1 -883 -1 -908 -4z
m1642 -217 c86 -29 92 -70 18 -112 l-43 -25 -709 -3 c-491 -2 -726 1 -762 8
-66 14 -120 60 -104 90 9 17 73 43 130 53 14 3 342 4 730 3 517 -1 714 -5 740
-14z M2773 6646 c-29 -32 -53 -62 -53 -67 0 -5 -7 -9 -15 -9 -10 0 -15 -10
-15 -30 0 -16 -4 -30 -10 -30 -7 0 -10 -272 -10 -795 l0 -795 -30 -6 -30 -6 0
-744 c0 -737 0 -744 20 -744 20 0 20 -7 20 -800 0 -527 3 -800 10 -800 6 0 10
-16 10 -35 0 -19 5 -35 10 -35 6 0 10 -5 10 -11 0 -16 80 -97 127 -129 62 -40
154 -54 338 -48 136 4 156 7 205 30 91 43 160 120 168 185 2 24 9 43 13 43 5
0 9 355 9 805 0 798 0 805 20 805 20 0 20 7 20 368 l0 369 29 40 c48 67 107
85 372 112 129 13 175 44 186 128 l5 40 -93 7 c-111 8 -320 -7 -402 -29 -118
-31 -205 -93 -247 -175 -50 -99 -50 -78 -50 -1367 l0 -1203 -280 0 -280 0 -2
2492 -3 2491 -52 -57z M1165 6597 c-3 -51 -5 -1168 -3 -2483 l3 -2392 -78 -11
c-222 -31 -406 -196 -462 -416 -18 -72 -21 -444 -4 -527 19 -94 74 -193 147
-267 81 -82 155 -125 259 -151 76 -20 112 -20 1611 -18 l1533 3 -86 60 c-47
33 -92 66 -100 73 -7 6 -21 12 -29 12 -9 0 -16 5 -16 10 0 7 -468 10 -1384 10
-842 0 -1403 4 -1434 10 -28 5 -72 19 -98 31 -59 28 -155 116 -188 174 l-26
44 0 266 c0 286 1 295 54 344 14 14 26 30 26 37 0 23 64 67 168 116 85 39 114
59 163 110 33 34 62 73 65 85 4 13 10 23 15 23 5 0 9 18 9 40 0 22 5 40 10 40
7 0 10 273 10 800 0 704 2 800 15 800 13 0 15 89 15 744 l0 744 -25 6 -25 6 0
795 c0 523 -3 795 -10 795 -5 0 -10 14 -10 30 0 17 -3 30 -7 30 -5 0 -21 20
-36 44 -15 24 -38 51 -51 60 l-24 15 -7 -92z M9308 4493 c-37 -3 -58 -8 -58
-16 1 -36 21 -92 41 -113 29 -31 67 -40 214 -54 215 -19 286 -55 339 -169 l21
-46 3 -1670 c3 -1840 7 -1703 -58 -1794 -40 -55 -92 -87 -170 -106 -36 -9 -74
-20 -85 -25 -11 -5 -38 -14 -60 -21 -22 -7 -51 -19 -65 -28 -48 -30 -160 -113
-160 -118 0 -13 357 6 415 21 190 52 287 143 341 322 17 56 19 153 22 1729 2
1154 -1 1692 -8 1740 -35 226 -166 321 -473 345 -73 5 -148 9 -167 8 -19 -1
-61 -3 -92 -5z M6601 3640 c-297 -109 -585 -534 -682 -1006 -25 -122 -26 -169
-31 -1602 l-3 -702 835 0 835 0 -2 1027 c-2 662 -6 1064 -13 1128 -55 499
-323 964 -649 1128 -74 37 -94 42 -160 45 -56 2 -90 -3 -130 -18z m251 -318
c151 -87 289 -284 381 -547 l32 -90 3 -1038 3 -1037 -561 0 -560 0 0 998 c0
1083 -2 1034 57 1202 81 234 243 447 394 521 56 27 72 30 130 26 51 -3 79 -11
121 -35z M4663 2520 c-183 -92 -345 -333 -416 -620 -20 -81 -21 -119 -26 -828
l-6 -742 558 0 557 0 0 689 c0 711 -3 777 -42 926 -84 322 -324 605 -513 605
-38 0 -68 -8 -112 -30z m171 -295 c72 -34 161 -158 196 -274 19 -60 20 -95 20
-702 l0 -639 -285 0 -285 0 0 628 c0 697 -2 672 67 804 45 86 101 150 155 177
51 25 88 27 132 6z M8554 2521 c-71 -34 -178 -130 -239 -216 -95 -132 -173
-336 -195 -507 -6 -49 -11 -364 -13 -776 l-2 -692 558 0 557 0 0 686 c0 768
-3 814 -66 1004 -76 229 -223 423 -378 500 -79 40 -140 40 -222 1z m175 -300
c49 -25 100 -83 144 -162 69 -124 67 -103 67 -811 l0 -638 -285 0 -285 0 0
628 c0 657 1 664 45 766 25 58 89 149 127 181 67 57 124 68 187 36z M5545 442
c-22 -9 -69 -37 -103 -62 l-64 -45 116 -3 c64 -1 168 -1 231 0 l114 3 -67 45
c-120 81 -160 92 -227 62z M7772 445 c-18 -8 -65 -36 -104 -62 l-72 -48 117
-3 c64 -1 170 -1 234 0 l117 3 -81 53 c-110 72 -150 83 -211 57z"/>
</g>
</svg>
