<?xml version="1.0" standalone="no"?>
<!DOCTYPE svg PUBLIC "-//W3C//DTD SVG 20010904//EN"
 "http://www.w3.org/TR/2001/REC-SVG-20010904/DTD/svg10.dtd">
<svg version="1.0" xmlns="http://www.w3.org/2000/svg"
 width="2048.000000pt" height="2048.000000pt" viewBox="0 0 2048.000000 2048.000000"
 preserveAspectRatio="xMidYMid meet">
<metadata>
Created by potrace 1.13, written by Peter Selinger 2001-2015
</metadata>
<g transform="translate(0.000000,2048.000000) scale(0.192120,-0.192120)"
fill="#000000" stroke="none">
<path d="M1320 10324 c-273 -42 -463 -131 -640 -301 -176 -167 -284 -364 -332
-603 -19 -96 -19 -8084 0 -8180 80 -398 361 -723 733 -849 180 -60 -136 -56
4249 -56 3399 0 4036 2 4095 14 398 79 726 367 848 746 55 171 52 -100 52
4235 0 4335 3 4064 -52 4235 -51 157 -132 292 -250 415 -160 169 -333 267
-572 328 -61 15 -367 16 -4086 18 -2211 1 -4031 0 -4045 -2z m7980 -264 c326
-32 589 -200 717 -459 l48 -96 0 -4170 0 -4170 -32 -72 c-110 -249 -307 -413
-588 -490 l-100 -28 -3950 -3 c-2817 -2 -3978 0 -4047 8 -236 27 -410 109
-568 269 -82 84 -152 198 -189 311 l-21 65 2 4125 3 4125 31 71 c121 279 399
475 725 513 103 12 7848 13 7969 1z M5263 9379 c-24 -11 -74 -50 -112 -85
-135 -125 -209 -327 -276 -749 -26 -167 -43 -242 -55 -250 -9 -6 -31 54 -65
180 -90 335 -133 432 -233 535 -141 142 -214 144 -360 6 -127 -120 -184 -262
-262 -651 -12 -60 -29 -126 -38 -145 l-15 -34 -16 24 c-9 13 -21 47 -27 74
-73 332 -120 492 -177 600 -60 114 -203 236 -274 236 -84 -1 -226 -123 -293
-251 -62 -119 -86 -200 -150 -502 -51 -240 -60 -236 -125 48 -81 352 -135 484
-241 592 -143 146 -215 147 -362 9 -126 -120 -179 -250 -261 -647 -50 -239
-62 -236 -121 26 -85 372 -132 492 -237 605 -64 70 -143 120 -188 120 -53 -1
-116 -38 -191 -115 -101 -102 -153 -209 -208 -430 -57 -232 -76 -387 -76 -636
0 -241 6 -267 91 -394 64 -95 136 -159 228 -204 97 -46 165 -51 254 -22 126
42 215 123 315 287 67 110 84 117 122 53 116 -192 180 -261 300 -318 95 -45
169 -52 254 -22 126 45 215 126 314 287 41 68 62 94 77 94 20 0 55 -43 74 -90
18 -46 115 -164 175 -211 68 -56 176 -99 245 -99 152 0 303 111 421 310 47 79
57 91 78 88 18 -2 32 -17 53 -58 78 -149 201 -270 321 -314 83 -31 145 -33
223 -6 202 69 344 273 380 544 6 43 23 76 39 76 3 0 32 -40 66 -89 104 -152
197 -226 334 -266 68 -20 102 -16 202 26 89 37 165 104 247 217 41 58 69 88
85 90 19 3 22 -1 22 -33 0 -39 33 -176 57 -233 38 -93 150 -229 231 -281 128
-82 235 -90 366 -28 100 47 182 130 261 262 45 75 61 95 79 95 15 0 27 -10 36
-27 63 -127 180 -264 270 -315 123 -70 219 -74 345 -15 99 47 181 130 260 262
31 52 60 97 65 100 15 9 37 -5 51 -33 34 -69 122 -192 171 -238 141 -133 284
-165 431 -96 117 54 194 133 288 293 22 38 43 70 48 74 18 11 38 -7 65 -57 47
-87 72 -123 131 -186 70 -75 128 -115 212 -143 90 -30 157 -24 256 23 110 53
189 136 256 270 l51 103 0 215 c0 163 -5 247 -20 348 -37 245 -94 459 -161
598 -54 115 -206 244 -285 244 -44 0 -122 -50 -195 -127 -117 -120 -163 -242
-245 -643 -15 -74 -33 -140 -40 -147 -25 -25 -33 0 -114 347 -33 142 -94 309
-136 373 -39 59 -142 157 -187 178 -23 10 -55 19 -72 19 -72 0 -225 -131 -285
-245 -59 -112 -93 -223 -150 -499 -33 -159 -48 -197 -69 -172 -6 7 -34 110
-62 227 -84 356 -128 463 -237 577 -140 146 -213 147 -365 3 -124 -118 -177
-248 -257 -635 -17 -82 -36 -158 -42 -169 -20 -38 -37 6 -88 223 -85 357 -129
464 -238 578 -140 146 -213 147 -365 3 -107 -102 -155 -205 -223 -475 -51
-209 -53 -213 -71 -220 -9 -4 -17 -5 -19 -4 -1 2 -21 102 -44 223 -95 508
-162 675 -320 802 -84 66 -129 76 -197 42z m81 -175 c43 -16 113 -176 161
-363 51 -203 95 -531 95 -714 0 -80 -4 -100 -26 -145 -99 -200 -389 -200 -488
0 -22 45 -26 65 -26 145 0 260 70 674 150 895 30 82 82 173 103 182 7 2 13 5
14 5 1 1 8 -2 17 -5z m-3937 -296 c63 -69 136 -289 182 -543 40 -227 65 -525
50 -597 -24 -108 -124 -200 -234 -213 -117 -15 -237 56 -285 168 -21 48 -22
62 -17 187 18 407 129 883 232 994 29 32 45 33 72 4z m996 -10 c103 -137 196
-530 226 -950 9 -126 3 -197 -20 -241 -27 -50 -71 -95 -121 -122 -131 -72
-308 -14 -374 124 -24 49 -29 146 -14 315 30 355 115 713 201 848 44 68 66 74
102 26z m997 -9 c104 -145 216 -666 222 -1033 1 -136 -40 -215 -144 -271 -131
-72 -307 -14 -375 124 -64 131 25 792 148 1086 32 78 76 135 103 135 9 0 29
-18 46 -41z m990 0 c105 -146 220 -685 220 -1034 0 -115 -16 -160 -74 -218
-58 -59 -110 -81 -191 -81 -84 -1 -144 23 -197 78 -66 68 -73 93 -72 256 2
435 158 1040 268 1040 9 0 29 -18 46 -41z m1970 11 c105 -112 223 -643 224
-1010 1 -163 -6 -188 -72 -256 -82 -84 -218 -105 -320 -49 -104 57 -142 130
-142 272 0 358 118 898 226 1040 31 41 48 41 84 3z m976 15 c60 -42 147 -302
194 -580 53 -314 63 -551 26 -627 -66 -137 -242 -195 -374 -123 -58 31 -103
81 -129 142 -20 47 -19 177 2 371 42 378 121 679 212 800 27 36 39 39 69 17z
m999 -11 c104 -112 213 -583 232 -994 5 -125 4 -139 -17 -187 -13 -31 -42 -71
-70 -97 -155 -145 -410 -61 -449 148 -11 57 2 246 30 451 42 312 116 567 196
673 29 39 46 40 78 6z m989 1 c88 -95 180 -439 221 -829 22 -213 20 -300 -9
-361 -90 -194 -356 -218 -473 -43 -56 84 -59 161 -22 488 43 378 168 770 246
770 8 0 25 -11 37 -25z M5245 7533 c-22 -2 -44 -9 -49 -14 -6 -5 -24 -9 -40
-9 -54 -1 -115 -37 -189 -113 -90 -92 -96 -100 -103 -137 -4 -16 -13 -30 -20
-30 -11 0 -14 -19 -14 -82 0 -64 -3 -79 -12 -70 -19 19 -28 14 -28 -15 0 -25
-6 -21 -77 49 -88 85 -111 99 -203 123 -108 28 -202 30 -315 6 -117 -25 -169
-56 -264 -157 -38 -40 -69 -64 -82 -64 -13 0 -54 31 -102 76 -102 96 -140 121
-202 134 -28 5 -75 15 -105 21 -87 18 -237 0 -335 -40 -24 -9 -80 -55 -139
-113 -55 -54 -103 -98 -107 -98 -4 0 -47 39 -95 86 -108 106 -145 131 -209
144 -28 5 -75 15 -105 21 -57 12 -175 6 -239 -11 -20 -5 -47 -11 -62 -14 -39
-8 -100 -54 -192 -143 -46 -46 -87 -83 -90 -83 -3 0 -43 37 -89 83 -102 103
-148 133 -218 148 -30 6 -73 15 -95 20 -22 4 -62 8 -90 8 -65 0 -221 -31 -263
-53 -45 -24 -168 -142 -184 -177 -7 -16 -17 -29 -21 -29 -5 0 -7 -132 -4 -292
4 -259 8 -310 31 -438 198 -1093 779 -2080 1636 -2777 498 -405 1103 -709
1707 -857 238 -58 281 -74 254 -91 -6 -3 -92 -12 -193 -20 -222 -18 -265 -26
-361 -63 -150 -58 -298 -185 -420 -359 -72 -102 -102 -131 -141 -137 -17 -3
-103 -7 -191 -9 -181 -5 -248 -22 -341 -83 -76 -51 -169 -154 -212 -237 -37
-72 -37 -73 -37 -193 l0 -120 42 -85 c29 -58 64 -109 116 -164 79 -85 135
-122 232 -152 57 -17 154 -18 2305 -18 2152 0 2247 1 2305 18 87 27 126 50
193 112 72 66 132 156 167 248 21 56 25 84 25 165 -1 84 -4 106 -30 165 -31
73 -115 184 -177 233 -115 90 -170 105 -414 113 -148 4 -200 9 -213 20 -10 8
-50 62 -89 120 -123 182 -255 298 -408 361 -90 37 -142 47 -368 65 -102 8
-189 19 -195 25 -13 13 18 24 254 85 627 164 1142 417 1645 809 213 166 468
411 656 631 538 630 907 1422 1038 2230 33 204 41 297 41 488 0 168 -1 180
-24 225 -29 58 -142 166 -200 192 -112 49 -253 60 -391 31 -119 -25 -150 -44
-263 -158 -79 -79 -102 -95 -102 -73 0 6 -4 10 -9 10 -5 0 -39 31 -76 69 -88
91 -130 120 -212 142 -114 31 -213 34 -328 10 -118 -25 -149 -44 -263 -158
-79 -79 -102 -95 -102 -73 0 6 -4 10 -9 10 -5 0 -40 32 -77 70 -37 39 -87 83
-111 99 -94 63 -300 84 -456 47 -87 -20 -135 -51 -242 -155 -35 -34 -72 -61
-83 -61 -12 0 -46 27 -82 65 -98 102 -149 131 -265 156 -115 24 -216 21 -327
-9 -85 -24 -109 -40 -208 -136 -73 -72 -80 -76 -80 -52 0 16 -5 26 -15 26 -12
0 -15 16 -15 80 0 47 -4 80 -10 80 -5 0 -10 9 -10 20 0 11 -4 20 -9 20 -5 0
-12 12 -16 27 -9 37 -144 169 -197 193 -24 11 -57 20 -73 20 -17 0 -35 4 -40
9 -12 11 -162 21 -220 14z m365 -727 c0 -374 2 -470 12 -468 30 7 124 71 179
121 74 66 139 157 183 253 37 82 51 134 62 226 l7 62 279 0 280 0 -7 -72 c-30
-316 -153 -581 -377 -813 -159 -165 -351 -286 -535 -337 l-83 -23 0 -217 c0
-148 3 -218 11 -218 24 0 214 52 288 80 630 232 1077 827 1117 1488 l7 112
280 0 280 0 -7 -102 c-22 -328 -94 -599 -236 -883 -267 -540 -743 -961 -1302
-1153 -111 -39 -290 -83 -390 -97 l-48 -6 0 -221 0 -221 53 7 c365 47 797 203
1107 401 621 396 1054 1029 1200 1754 25 123 50 347 50 449 l0 72 281 0 281 0
-7 -122 c-8 -160 -30 -347 -56 -478 -232 -1203 -1133 -2187 -2313 -2526 -157
-45 -333 -81 -478 -96 l-118 -12 0 -218 c0 -208 1 -218 19 -218 115 0 521 76
726 135 605 176 1126 485 1576 934 631 632 999 1432 1069 2325 5 71 10 162 10
202 l0 74 281 0 281 0 -7 -132 c-31 -639 -165 -1177 -423 -1703 -106 -215
-154 -300 -287 -500 -585 -882 -1482 -1518 -2505 -1774 -224 -56 -563 -111
-692 -111 l-48 0 0 -255 0 -255 463 0 c437 1 466 0 527 -19 81 -25 171 -79
230 -137 89 -86 159 -238 160 -341 l0 -53 298 0 c357 0 377 -4 457 -83 139
-140 104 -357 -73 -444 l-57 -28 -2285 0 -2285 0 -57 28 c-177 87 -212 304
-73 444 80 79 100 83 457 83 l298 0 0 48 c0 159 128 356 285 439 123 64 123
64 633 63 l462 -1 0 256 0 255 -47 0 c-218 0 -707 100 -1025 209 -364 125
-652 268 -983 487 -616 408 -1120 975 -1447 1627 -227 454 -362 895 -423 1382
-13 109 -35 403 -35 483 l0 32 278 0 279 0 6 -153 c35 -803 311 -1533 821
-2171 111 -139 396 -422 541 -538 484 -385 1009 -630 1600 -747 136 -27 368
-61 416 -61 18 0 19 10 19 218 l0 218 -117 12 c-334 35 -698 146 -1033 313
-206 104 -334 182 -513 318 -593 447 -1014 1076 -1202 1796 -55 210 -86 419
-101 673 l-7 122 282 0 281 0 0 -67 c0 -89 17 -265 36 -378 181 -1067 982
-1924 2034 -2177 89 -21 293 -58 323 -58 16 0 17 17 17 219 l0 220 -47 6
c-101 14 -280 58 -391 97 -312 107 -589 279 -833 515 -429 417 -665 926 -705
1521 l-7 102 280 0 280 0 7 -112 c44 -730 573 -1360 1296 -1543 54 -14 103
-25 109 -25 8 0 11 70 11 218 l0 217 -80 22 c-175 49 -342 149 -497 296 -246
235 -387 524 -418 855 l-7 72 280 0 279 0 7 -62 c11 -92 25 -144 62 -226 44
-96 109 -187 183 -253 55 -50 149 -114 179 -121 10 -2 12 94 12 468 l0 472
280 0 280 0 0 -472z"/>
</g>
</svg>
