<?xml version="1.0" standalone="no"?>
<!DOCTYPE svg PUBLIC "-//W3C//DTD SVG 20010904//EN"
 "http://www.w3.org/TR/2001/REC-SVG-20010904/DTD/svg10.dtd">
<svg version="1.0" xmlns="http://www.w3.org/2000/svg"
 width="2048.000000pt" height="2048.000000pt" viewBox="0 0 2048.000000 2048.000000"
 preserveAspectRatio="xMidYMid meet">
<metadata>
Created by potrace 1.13, written by Peter Selinger 2001-2015
</metadata>
<g transform="translate(0.000000,2048.000000) scale(0.192120,-0.192120)"
fill="#000000" stroke="none">
<path d="M5265 10313 c-27 -8 -1148 -320 -2490 -693 l-2440 -678 -2 -2059 c-2
-1730 0 -2053 11 -2027 29 67 36 140 36 397 0 210 -3 275 -16 322 -24 89 -25
87 36 101 30 7 61 13 68 14 9 0 12 -92 12 -430 l0 -429 -33 -5 c-17 -3 -50 -7
-72 -8 l-40 -3 -2 -1965 -3 -1965 2513 -278 2512 -278 2475 275 c1361 152
2480 276 2487 276 11 0 13 384 13 1964 0 1782 -1 1964 -16 1970 -9 3 -28 6
-44 6 -15 0 -42 3 -59 6 l-31 7 0 428 c0 337 3 429 13 429 13 -1 90 -17 120
-26 16 -5 17 14 17 298 l0 304 -103 17 c-56 9 -1180 212 -2499 451 l-2396 435
-1898 -344 c-2169 -394 -2979 -540 -3046 -550 -30 -5 -48 -4 -48 3 0 5 28 52
62 103 111 167 108 154 108 384 0 181 -9 270 -29 285 -3 3 -10 12 -16 21 -5 9
-32 44 -60 79 -27 34 -50 67 -50 73 0 6 16 15 35 20 19 5 1140 226 2490 491
1912 376 2463 481 2490 475 19 -5 1115 -220 2435 -479 1320 -259 2416 -475
2435 -479 19 -5 47 -12 63 -15 l27 -6 0 857 0 858 -2486 690 c-1367 380 -2496
691 -2508 692 -11 1 -43 -5 -71 -14z m145 -179 c36 -30 77 -66 93 -79 15 -13
41 -26 58 -30 16 -4 38 -15 47 -24 11 -12 741 -219 2187 -620 1194 -331 2185
-607 2203 -612 21 -7 32 -17 32 -29 0 -10 9 -22 20 -25 20 -6 20 -15 20 -541
0 -527 0 -534 -20 -534 -17 0 -20 -7 -20 -40 0 -37 -2 -40 -22 -35 -51 11
-2209 429 -2553 494 -359 68 -444 84 -947 171 -130 23 -386 69 -567 104 -182
34 -331 58 -331 53 0 -5 -17 -6 -38 -2 -44 7 -115 -17 -194 -66 l-48 -29 0
950 c0 523 3 950 8 950 4 0 36 -25 72 -56z m-290 -939 c0 -415 -2 -755 -4
-755 -5 0 -4412 -864 -4469 -876 l-27 -6 2 574 3 573 2235 621 c1229 342 2241
623 2248 623 9 1 12 -156 12 -754z m264 -2169 c38 -31 74 -61 103 -86 7 -5 17
-10 23 -10 5 0 10 -4 10 -9 0 -6 20 -13 45 -17 28 -4 45 -11 45 -20 0 -8 4
-14 8 -14 22 0 1680 -305 1821 -335 91 -20 245 -51 341 -70 96 -19 198 -42
225 -49 28 -8 172 -39 320 -70 149 -30 308 -64 354 -76 46 -12 94 -23 106 -24
29 -4 47 -15 40 -27 -8 -11 -45 -12 -45 -1 0 5 -43 8 -95 6 -101 -2 -161 -22
-234 -78 -51 -38 -87 -34 -141 16 -130 121 -188 135 -286 68 -86 -59 -98 -56
-210 50 -91 86 -130 101 -371 139 -298 48 -696 101 -756 101 -62 0 -126 -20
-171 -53 -60 -44 -82 -51 -115 -37 -17 7 -36 19 -42 26 -7 8 -40 30 -74 49
-76 43 -125 45 -193 10 -88 -46 -93 -44 -225 66 -37 32 -83 64 -101 73 -47 22
-156 46 -156 35 0 -6 -18 -8 -42 -4 -35 5 -55 0 -107 -25 -35 -16 -76 -39 -91
-50 -16 -11 -31 -20 -34 -20 -3 0 -6 106 -6 235 0 129 3 235 6 235 4 0 25 -15
48 -34z m-264 -234 c0 -38 -3 -48 -17 -49 -10 -1 -31 -5 -48 -8 -16 -3 -37 -7
-45 -9 -84 -14 -159 -56 -248 -140 -90 -83 -110 -94 -150 -73 -15 8 -45 25
-67 37 -60 32 -111 23 -181 -31 -31 -24 -68 -53 -81 -63 -39 -30 -77 -22 -145
28 -71 53 -134 70 -229 61 -81 -8 -816 -131 -885 -149 -60 -16 -118 -53 -192
-125 -89 -87 -115 -95 -172 -53 -40 30 -83 50 -121 56 -42 6 -88 -19 -183
-102 -33 -29 -69 -52 -81 -52 -12 0 -55 23 -96 50 -53 36 -84 50 -109 51 -54
0 -111 13 -110 24 0 6 24 18 53 27 48 16 463 94 892 168 219 38 160 27 525 95
828 153 1657 304 1673 304 14 1 17 -8 17 -47z m423 -317 c117 -20 222 -38 235
-41 l22 -4 0 -485 0 -485 -22 5 c-36 8 -263 42 -368 55 -89 12 -108 10 -305
-19 -115 -18 -218 -35 -227 -37 -17 -5 -18 23 -18 480 0 267 1 486 3 486 1 1
103 18 227 39 124 21 229 39 233 40 4 0 103 -15 220 -34z m-1030 -143 c25 -28
44 -81 52 -147 4 -35 16 -74 29 -95 54 -84 78 -211 65 -341 -10 -93 -33 -160
-74 -213 -18 -24 -36 -52 -39 -63 -19 -58 -82 -82 -111 -40 -120 171 -138 223
-138 387 0 136 18 210 66 274 17 22 26 50 30 98 6 61 23 112 49 146 15 18 52
15 71 -6z m1725 -34 c14 -27 26 -75 29 -110 4 -44 13 -72 30 -94 48 -64 66
-138 66 -274 0 -164 -18 -216 -138 -387 -29 -42 -92 -18 -111 40 -3 11 -21 39
-39 63 -100 130 -104 407 -9 554 13 21 25 60 29 95 19 158 92 216 143 113z
m-2146 -470 c-1 -260 -4 -473 -5 -474 -1 -1 -164 -26 -362 -54 -432 -61 -752
-109 -782 -115 l-23 -5 0 462 0 463 393 64 c215 36 471 79 567 97 96 17 184
32 195 33 20 1 20 -4 17 -471z m3009 383 c288 -49 550 -92 582 -96 l57 -7 0
-465 c0 -438 -1 -464 -17 -459 -16 5 -962 143 -1100 161 l-53 7 0 451 c0 249
-3 462 -6 475 -4 12 -2 22 4 22 5 0 245 -40 533 -89z m-5161 28 c0 -14 -5 -19
-17 -17 -23 4 -28 25 -6 31 10 3 19 5 21 6 1 0 2 -8 2 -20z m-70 -14 c0 -8 -4
-15 -9 -15 -13 0 -22 16 -14 24 11 11 23 6 23 -9z m-60 -11 c0 -8 -4 -12 -10
-9 -5 3 -10 10 -10 16 0 5 5 9 10 9 6 0 10 -7 10 -16z m7068 4 c-6 -18 -28
-21 -28 -4 0 9 7 16 16 16 9 0 14 -5 12 -12z m-7128 -14 c0 -8 -5 -12 -10 -9
-6 4 -8 11 -5 16 9 14 15 11 15 -7z m7182 1 c0 -5 -5 -11 -11 -13 -6 -2 -11 4
-11 13 0 9 5 15 11 13 6 -2 11 -8 11 -13z m-7245 -17 c-3 -8 -6 -5 -6 6 -1 11
2 17 5 13 3 -3 4 -12 1 -19z m7303 13 c0 -6 -4 -13 -10 -16 -5 -3 -10 1 -10 9
0 9 5 16 10 16 6 0 10 -4 10 -9z m55 -10 c3 -5 1 -12 -5 -16 -5 -3 -10 1 -10
9 0 18 6 21 15 7z m275 -56 c0 -8 -4 -15 -10 -15 -5 0 -10 7 -10 15 0 8 5 15
10 15 6 0 10 -7 10 -15z m380 -44 c124 -23 249 -46 278 -52 l52 -10 0 -95 c0
-52 -3 -94 -8 -94 -4 0 -32 21 -62 46 -30 25 -75 56 -100 68 -53 27 -83 22
-159 -24 -71 -44 -90 -40 -163 33 -100 99 -144 136 -172 143 -15 3 -26 13 -26
23 0 15 8 16 68 10 37 -4 168 -26 292 -48z m-8420 29 c0 -8 -12 -24 -27 -35
-15 -11 -61 -51 -101 -90 -111 -105 -125 -110 -199 -59 -47 31 -110 49 -127
35 -7 -6 -15 -9 -17 -6 -3 2 -42 -25 -88 -61 -46 -35 -88 -64 -92 -64 -5 0 -9
42 -9 93 l0 94 303 55 c322 59 357 62 357 38z m30 4 c0 -8 -5 -12 -10 -9 -6 4
-8 11 -5 16 9 14 15 11 15 -7z m1253 -85 c30 -23 57 -100 57 -163 0 -29 9 -54
30 -85 50 -73 65 -140 64 -276 -1 -133 -20 -207 -71 -274 -15 -19 -36 -53 -48
-75 -37 -75 -91 -71 -134 10 -9 18 -29 53 -45 79 -47 76 -59 122 -64 241 -5
130 12 212 59 288 21 34 32 69 38 115 12 90 45 155 82 160 4 1 18 -8 32 -20z
m5582 15 c25 -10 54 -77 65 -153 6 -47 19 -85 40 -118 41 -67 60 -150 60 -263
0 -136 -19 -199 -96 -315 -64 -96 -68 -101 -100 -90 -19 6 -36 25 -49 51 -12
22 -33 56 -48 75 -51 67 -70 141 -71 274 -1 136 14 203 64 276 21 31 30 56 30
85 0 63 27 140 57 163 29 24 26 23 48 15z m-5995 -533 l0 -450 -42 -6 c-24 -3
-228 -32 -454 -65 -226 -33 -414 -60 -418 -60 -3 0 -6 198 -6 439 l0 439 68
11 c37 7 234 40 437 75 204 35 380 64 393 65 l22 1 0 -449z m6825 375 c215
-36 405 -69 423 -72 l32 -5 0 -441 0 -441 -37 7 c-63 10 -864 126 -874 126 -5
0 -9 178 -9 451 l0 452 38 -6 c20 -3 213 -35 427 -71z m-8073 -177 c11 -14 24
-57 29 -95 6 -38 17 -80 25 -94 59 -107 79 -194 71 -313 -6 -93 -21 -144 -63
-212 -16 -26 -37 -62 -46 -81 -37 -69 -85 -68 -124 4 -13 26 -36 62 -50 81
-40 57 -58 134 -59 251 0 113 16 180 59 243 14 20 26 58 31 93 7 60 26 116 47
141 17 21 58 11 80 -18z m8955 -17 c11 -23 24 -70 28 -103 5 -38 16 -74 30
-96 43 -62 59 -130 59 -243 1 -117 -17 -194 -58 -251 -14 -19 -37 -55 -50 -81
-39 -72 -87 -73 -124 -4 -9 19 -30 55 -46 81 -43 69 -58 120 -63 216 -7 107
15 217 57 283 17 26 30 58 30 71 0 13 5 47 11 74 23 107 85 134 126 53z
m-4450 -327 c37 -30 73 -59 80 -65 7 -5 17 -10 23 -10 5 0 10 -4 10 -10 0 -5
18 -10 40 -10 27 0 43 -5 46 -15 5 -11 23 -15 78 -15 67 0 77 3 146 45 41 24
85 45 96 45 12 0 52 -23 90 -51 123 -92 170 -99 274 -44 35 19 74 35 86 35 22
0 86 -42 119 -80 40 -45 106 -81 183 -100 128 -32 837 -130 938 -130 88 0 92
1 157 40 36 22 77 40 90 40 13 0 56 -24 98 -56 129 -99 160 -103 277 -43 97
51 109 49 194 -27 108 -97 132 -104 505 -158 406 -60 425 -59 541 10 68 42 83
40 161 -20 121 -93 166 -100 278 -42 78 41 106 43 111 9 2 -11 12 -29 23 -39
19 -17 19 -47 19 -1781 0 -1756 0 -1765 -20 -1770 -11 -3 -20 -12 -20 -19 0
-8 -8 -14 -17 -14 -72 -1 -4397 -490 -4402 -497 -3 -6 -24 -13 -46 -16 -22 -4
-41 -11 -43 -17 -2 -5 -9 -10 -17 -10 -7 0 -49 -25 -94 -55 l-81 -56 0 2491
c0 1369 2 2490 4 2490 2 0 35 -25 73 -55z m-590 -115 c69 -47 120 -58 231 -50
l72 5 0 -2282 c0 -1795 -3 -2283 -12 -2283 -22 0 -4442 491 -4465 496 l-23 4
0 1770 0 1770 26 10 c21 8 37 4 92 -24 37 -19 78 -37 91 -41 37 -11 103 13
167 61 111 85 110 84 207 26 86 -52 140 -53 485 -3 427 62 421 60 557 176 36
30 74 55 86 55 11 0 53 -18 93 -40 110 -60 152 -54 277 45 39 30 81 55 93 55
12 0 49 -16 81 -36 113 -68 107 -68 690 17 506 73 485 67 614 178 96 83 112
86 192 35 53 -33 121 -42 169 -21 19 8 66 38 104 66 38 28 79 51 91 51 12 0
49 -18 82 -40z M5288 6341 c-70 -82 -73 -93 -76 -326 -2 -128 1 -224 7 -245
11 -37 95 -139 105 -129 4 3 5 172 4 374 l-3 369 -37 -43z M5278 8032 c-26
-35 -50 -79 -54 -98 -3 -19 -10 -34 -15 -34 -5 0 -9 -109 -9 -245 0 -137 4
-245 9 -245 5 0 11 -10 15 -23 3 -12 27 -44 53 -70 l48 -48 3 205 c1 113 1
299 0 414 l-3 207 -47 -63z M10279 7137 c-26 -35 -50 -74 -54 -87 -4 -14 -13
-28 -19 -32 -7 -5 -12 -81 -14 -232 l-3 -224 26 -54 c14 -29 46 -84 71 -123
l44 -69 0 442 c0 243 -1 442 -2 442 -2 -1 -24 -29 -49 -63z M10310 5534 c-15
-72 -9 -578 7 -614 9 -19 12 55 12 323 1 191 -1 347 -3 347 -3 0 -10 -25 -16
-56z"/>
</g>
</svg>
