<?xml version="1.0" standalone="no"?>
<!DOCTYPE svg PUBLIC "-//W3C//DTD SVG 20010904//EN"
 "http://www.w3.org/TR/2001/REC-SVG-20010904/DTD/svg10.dtd">
<svg version="1.0" xmlns="http://www.w3.org/2000/svg"
 width="2048.000000pt" height="2048.000000pt" viewBox="0 0 2048.000000 2048.000000"
 preserveAspectRatio="xMidYMid meet">
<metadata>
Created by potrace 1.13, written by Peter Selinger 2001-2015
</metadata>
<g transform="translate(0.000000,2048.000000) scale(0.192120,-0.192120)"
fill="#000000" stroke="none">
<path d="M5230 10312 c-39 -14 -210 -181 -1198 -1166 -853 -852 -1158 -1163
-1174 -1196 -108 -221 115 -465 347 -380 58 21 92 54 1095 1057 l1035 1035
1030 -1035 c1002 -1008 1032 -1036 1090 -1057 233 -85 455 159 347 380 -16 33
-322 345 -1174 1196 -1059 1057 -1157 1153 -1202 1168 -62 20 -137 19 -196 -2z
m188 -346 c58 -40 2052 -2039 2052 -2057 0 -9 -8 -16 -17 -16 -11 0 -399 379
-928 907 -539 537 -939 928 -981 958 -87 63 -168 102 -214 102 -42 0 -118 -34
-202 -91 -40 -27 -399 -378 -979 -956 -504 -502 -920 -914 -925 -914 -56 -8
-55 -9 -23 35 16 23 476 488 1022 1032 724 723 1004 997 1037 1013 56 27 107
23 158 -13z M5190 8363 c-50 -8 -146 -46 -198 -79 -104 -67 -147 -125 -324
-434 l-54 -95 -260 -1 c-288 0 -336 -7 -448 -67 -170 -90 -279 -290 -263 -482
10 -117 40 -189 171 -418 l123 -215 -94 -164 c-169 -291 -189 -339 -199 -468
-20 -247 151 -477 397 -535 48 -11 127 -15 319 -15 l255 0 89 -158 c49 -86
106 -182 127 -213 167 -248 489 -316 733 -154 84 55 136 120 266 331 l117 189
319 6 c345 6 353 7 466 66 176 92 286 305 258 501 -19 135 -29 156 -192 420
l-120 193 48 77 c181 292 218 358 241 430 93 287 -62 576 -353 658 -50 14
-106 16 -360 15 l-302 -2 -118 193 c-136 222 -216 314 -321 367 -101 50 -220
71 -323 54z m164 -285 c72 -22 130 -93 290 -355 l148 -242 377 -3 376 -3 52
-29 c107 -59 147 -170 105 -291 -10 -27 -91 -168 -180 -312 -89 -144 -162
-266 -162 -272 0 -6 68 -120 151 -253 83 -134 162 -265 176 -291 49 -97 40
-202 -23 -275 -65 -77 -62 -76 -489 -82 l-380 -5 -151 -245 c-84 -135 -166
-261 -183 -281 -61 -74 -170 -104 -262 -74 -86 29 -127 80 -284 357 l-140 247
-335 1 c-331 0 -336 1 -386 24 -112 52 -160 170 -120 297 7 24 83 165 168 313
l155 269 -143 248 c-185 322 -186 322 -192 396 -8 108 40 192 138 237 42 20
64 21 382 24 l336 3 138 242 c76 133 155 261 177 284 71 77 160 101 261 71z
M5186 7640 c-47 -83 -86 -154 -86 -158 0 -4 83 -7 185 -7 102 0 185 1 185 3 0
1 -26 44 -58 95 -32 51 -75 120 -96 155 -21 34 -39 62 -40 62 -2 0 -42 -68
-90 -150z M4220 7195 c0 -4 189 -336 195 -343 2 -2 22 32 46 75 24 43 69 122
101 176 l57 97 -199 0 c-110 0 -200 -2 -200 -5z M4760 6894 c-96 -168 -176
-311 -178 -318 -1 -6 77 -151 175 -321 l178 -310 351 -3 351 -2 190 307 c104
170 192 313 195 318 3 6 -81 150 -187 320 l-192 310 -354 3 -354 2 -175 -306z
m763 62 c45 -19 84 -65 163 -191 106 -172 110 -198 46 -310 -54 -92 -148 -227
-179 -257 -15 -14 -46 -31 -68 -37 -50 -14 -357 -14 -405 -1 -52 14 -89 58
-181 215 -113 193 -113 194 -19 361 138 244 121 234 398 234 159 0 221 -4 245
-14z M5970 7195 c0 -3 37 -64 83 -137 46 -73 94 -152 107 -175 13 -24 27 -43
31 -43 4 0 21 24 38 54 17 30 66 111 110 180 l80 126 -225 0 c-123 0 -224 -2
-224 -5z M6177 6289 c-167 -272 -207 -338 -207 -343 0 -3 101 -6 225 -6 l226
0 -37 58 c-21 31 -72 115 -115 186 -75 125 -78 128 -92 105z M4315 6120 c-53
-94 -95 -173 -92 -176 2 -2 92 -3 199 -2 l195 3 -96 167 c-53 92 -99 169 -102
173 -3 3 -50 -71 -104 -165z M5111 5634 c12 -20 53 -91 91 -158 37 -66 70
-121 73 -121 4 0 51 75 177 283 l20 32 -192 0 -192 0 23 -36z M3110 6669 l0
-831 32 6 c54 11 102 41 123 77 19 33 20 55 23 718 1 377 -1 687 -5 690 -5 3
-15 20 -23 37 -14 30 -124 134 -142 134 -4 0 -8 -374 -8 -831z M7470 7441
c-38 -38 -62 -70 -66 -90 -4 -17 -10 -28 -15 -25 -5 3 -9 -291 -9 -684 l0
-689 23 -33 c30 -45 65 -69 110 -77 l37 -6 0 832 c0 533 -3 831 -10 831 -5 0
-37 -27 -70 -59z M2016 6495 c-32 -8 -89 -29 -125 -47 -60 -29 -117 -82 -609
-572 -318 -317 -560 -565 -583 -600 -62 -93 -81 -167 -87 -338 -5 -183 7 -229
79 -299 88 -85 -26 -80 1465 -77 l1321 3 48 30 c92 57 135 137 137 254 1 71
-35 145 -95 197 -80 68 8 64 -1433 64 -1404 0 -1341 2 -1416 -51 l-30 -22 17
33 c30 58 108 125 261 226 145 96 159 108 530 475 245 243 403 392 444 418
128 83 227 90 356 26 62 -30 105 -67 291 -246 120 -115 276 -256 347 -312 71
-56 160 -129 198 -162 96 -83 138 -115 254 -195 166 -115 233 -192 271 -315
l18 -60 3 46 c4 65 -23 183 -59 259 -29 58 -87 120 -573 608 -297 299 -564
559 -592 578 -116 80 -301 113 -438 79z M8386 6495 c-32 -8 -89 -29 -125 -47
-60 -29 -115 -80 -622 -587 -506 -506 -559 -562 -591 -626 -48 -94 -80 -245
-60 -280 7 -14 10 -11 15 17 17 105 117 224 284 339 59 41 146 108 194 149 47
41 144 120 214 175 71 55 225 194 343 308 117 115 241 226 275 248 140 91 270
90 407 -4 25 -17 216 -199 425 -405 375 -370 382 -376 540 -481 164 -109 240
-173 270 -231 l17 -33 -30 22 c-75 53 -12 51 -1417 51 -1439 0 -1346 4 -1429
-64 -23 -19 -54 -57 -70 -86 -26 -48 -28 -59 -24 -134 3 -67 9 -92 31 -128 31
-53 76 -94 132 -119 38 -18 104 -19 1351 -19 1485 0 1370 -6 1455 81 66 68 79
113 79 273 0 81 -6 155 -15 195 -34 141 -34 141 -624 734 -300 301 -568 562
-594 579 -118 76 -298 106 -431 73z M3388 2700 c-1 -962 -2 -1764 -2 -1780
l-1 -30 1945 0 1945 0 -1 30 c0 16 -1 818 -2 1780 -1 963 -6 1750 -10 1750
-17 0 -112 -102 -112 -120 0 -6 -4 -10 -10 -10 -7 0 -10 -535 -10 -1585 0
-1050 -3 -1585 -10 -1585 -5 0 -10 -18 -10 -40 0 -33 -3 -40 -20 -40 -11 0
-20 -7 -20 -15 0 -13 -41 -15 -310 -15 -200 0 -310 -4 -310 -10 0 -5 -20 -10
-45 -10 -25 0 -45 -4 -45 -8 0 -4 -17 -14 -37 -22 -21 -7 -60 -28 -87 -47 -43
-30 -62 -38 -68 -30 -1 1 -5 432 -8 957 l-5 955 -27 67 c-15 37 -43 92 -63
123 -251 394 -871 490 -1280 200 -159 -113 -270 -295 -281 -460 -3 -38 -6
-467 -7 -952 -1 -485 -5 -884 -8 -888 -4 -3 -40 14 -80 39 -40 25 -79 46 -86
46 -7 0 -13 5 -13 10 0 6 -9 10 -20 10 -11 0 -20 5 -20 10 0 6 -108 10 -305
10 -264 0 -305 2 -305 15 0 11 -12 15 -45 15 l-45 0 0 40 c0 29 -4 40 -15 40
-13 0 -15 183 -15 1585 0 1050 -3 1585 -10 1585 -5 0 -10 9 -10 21 0 11 -4 18
-9 14 -5 -3 -12 3 -15 13 -5 15 -87 82 -101 82 -3 0 -6 -787 -7 -1750z m2170
430 c150 -42 286 -129 350 -224 l32 -48 0 -869 0 -869 -620 0 -620 0 0 855 c0
975 -8 884 91 983 92 92 240 164 391 191 85 16 291 5 376 -19z M890 2622 c0
-1999 -4 -1865 61 -1995 38 -75 151 -190 226 -230 28 -15 86 -36 129 -47 76
-20 124 -20 4024 -20 3900 0 3948 0 4024 20 107 27 169 63 253 146 79 77 133
173 153 268 7 35 9 622 8 1865 l-3 1814 -39 -39 c-46 -46 -76 -92 -76 -116 0
-10 -4 -18 -10 -18 -7 0 -10 -561 -10 -1662 -1 -1446 -3 -1666 -15 -1682 -8
-11 -15 -40 -15 -65 0 -27 -8 -59 -18 -76 -10 -16 -22 -42 -25 -56 -10 -40
-94 -127 -150 -155 -116 -60 164 -56 -4082 -56 -4213 0 -3968 -3 -4074 51 -87
45 -158 130 -172 206 -4 22 -14 58 -23 80 -13 35 -15 231 -16 1728 0 1118 -3
1687 -10 1687 -5 0 -10 9 -10 19 0 11 -6 26 -13 33 -7 7 -25 30 -40 50 -16 20
-39 44 -53 52 l-24 16 0 -1818z M2036 3989 c-113 -27 -224 -121 -279 -237
l-32 -67 0 -704 c0 -525 3 -705 12 -708 6 -2 54 49 106 115 136 170 206 222
299 222 84 0 165 -64 301 -240 40 -52 80 -95 88 -95 12 0 14 95 17 685 2 744
3 739 -54 835 -53 90 -162 171 -264 194 -54 13 -140 12 -194 0z m201 -278 c23
-11 46 -28 52 -39 7 -14 11 -162 11 -451 0 -237 -1 -431 -2 -431 -2 0 -32 9
-66 20 -35 11 -79 20 -97 20 -29 0 -116 -23 -167 -45 -17 -7 -18 18 -18 429 0
429 0 436 21 457 58 58 184 77 266 40z M8420 3987 c-72 -21 -118 -47 -175 -99
-62 -57 -97 -111 -119 -188 -14 -49 -16 -136 -14 -740 3 -590 5 -685 17 -685
8 0 48 43 88 95 128 166 221 240 303 240 92 0 162 -53 297 -222 52 -66 100
-117 106 -115 9 3 12 174 12 708 l0 704 -32 67 c-44 93 -110 160 -199 204 -61
31 -85 37 -156 40 -50 2 -101 -1 -128 -9z m207 -276 c23 -11 46 -28 52 -39 7
-14 11 -162 11 -451 0 -237 -1 -431 -2 -431 -2 0 -32 9 -66 20 -35 11 -79 20
-97 20 -29 0 -116 -23 -167 -45 -17 -7 -18 18 -18 433 l0 441 33 24 c17 14 46
29 62 35 50 17 145 14 192 -7z"/>
</g>
</svg>
