<?xml version="1.0" standalone="no"?>
<!DOCTYPE svg PUBLIC "-//W3C//DTD SVG 20010904//EN"
 "http://www.w3.org/TR/2001/REC-SVG-20010904/DTD/svg10.dtd">
<svg version="1.0" xmlns="http://www.w3.org/2000/svg"
 width="2048.000000pt" height="2048.000000pt" viewBox="0 0 2048.000000 2048.000000"
 preserveAspectRatio="xMidYMid meet">
<metadata>
Created by potrace 1.13, written by Peter Selinger 2001-2015
</metadata>
<g transform="translate(0.000000,2048.000000) scale(0.192120,-0.192120)"
fill="#000000" stroke="none">
<path d="M5070 10324 c-871 -58 -1612 -286 -2318 -711 -1114 -672 -1924 -1751
-2257 -3007 -269 -1017 -205 -2122 182 -3106 398 -1015 1140 -1892 2079 -2456
1330 -798 2959 -935 4404 -367 1268 497 2300 1521 2810 2787 438 1089 476
2326 105 3441 -425 1276 -1335 2318 -2540 2910 -602 296 -1216 460 -1890 505
-136 9 -464 11 -575 4z m550 -254 c1045 -64 2013 -446 2810 -1108 886 -736
1463 -1763 1635 -2909 12 -84 15 -217 15 -723 0 -677 0 -669 -65 -990 -221
-1085 -842 -2082 -1722 -2766 -881 -686 -1966 -1041 -3083 -1010 -1091 30
-2082 393 -2930 1075 -178 143 -521 481 -663 654 -558 678 -906 1466 -1037
2346 -18 121 -20 185 -20 692 0 506 2 571 20 696 97 669 325 1285 678 1837
585 914 1458 1598 2496 1955 578 199 1245 289 1866 251z M5090 9419 c-776 -45
-1539 -324 -2170 -795 -310 -231 -618 -536 -847 -839 -322 -427 -576 -965
-703 -1488 -84 -347 -83 -331 -87 -914 -5 -576 -2 -622 59 -898 193 -888 672
-1695 1354 -2285 635 -548 1387 -874 2227 -966 184 -21 596 -23 772 -5 1137
116 2127 664 2826 1566 395 509 680 1137 803 1770 48 249 51 290 51 765 0 503
-3 534 -71 856 -134 628 -425 1235 -830 1729 -678 828 -1608 1349 -2639 1479
-250 32 -489 40 -745 25z m505 -209 c1002 -73 1891 -498 2583 -1234 498 -529
843 -1215 976 -1939 46 -248 60 -411 60 -707 0 -296 -14 -459 -60 -707 -266
-1443 -1332 -2620 -2743 -3029 -740 -214 -1559 -201 -2281 37 -504 166 -948
416 -1344 760 -1481 1280 -1779 3466 -694 5092 160 238 260 360 482 585 431
437 952 761 1537 956 261 86 581 153 839 175 69 6 141 13 160 15 82 7 356 5
485 -4z M5215 8636 c-65 -30 -131 -104 -150 -169 -13 -44 -15 -255 -15 -1607
0 -1366 2 -1563 15 -1608 36 -119 141 -197 264 -197 87 1 208 51 265 109 46
48 1300 2214 1323 2286 30 93 -8 215 -88 284 -111 94 -281 85 -381 -21 -23
-25 -516 -870 -751 -1288 -49 -88 -90 -161 -91 -162 0 -1 -1 492 -1 1095 0
1225 6 1127 -72 1212 -79 89 -211 116 -318 66z m145 -286 c13 -8 16 -127 20
-937 l5 -928 23 -80 c35 -121 99 -215 177 -261 40 -23 48 -24 80 -14 46 15
131 94 198 183 59 79 188 293 432 717 196 340 258 436 295 455 47 24 60 20 60
-21 0 -48 -8 -62 -542 -989 -615 -1065 -614 -1064 -675 -1114 -32 -27 -45 -31
-83 -29 l-45 3 -3 1500 c-1 825 0 1506 3 1513 5 14 34 16 55 2z"/>
</g>
</svg>
