<?xml version="1.0" standalone="no"?>
<!DOCTYPE svg PUBLIC "-//W3C//DTD SVG 20010904//EN"
 "http://www.w3.org/TR/2001/REC-SVG-20010904/DTD/svg10.dtd">
<svg version="1.0" xmlns="http://www.w3.org/2000/svg"
 width="2048.000000pt" height="2048.000000pt" viewBox="0 0 2048.000000 2048.000000"
 preserveAspectRatio="xMidYMid meet">
<metadata>
Created by potrace 1.13, written by Peter Selinger 2001-2015
</metadata>
<g transform="translate(0.000000,2048.000000) scale(0.192120,-0.192120)"
fill="#000000" stroke="none">
<path d="M5070 10324 c-871 -58 -1612 -286 -2318 -711 -1114 -672 -1924 -1751
-2257 -3007 -269 -1017 -205 -2122 182 -3106 398 -1015 1140 -1892 2079 -2456
1330 -798 2959 -935 4404 -367 1268 497 2300 1521 2810 2787 438 1089 476
2326 105 3441 -425 1276 -1335 2318 -2540 2910 -602 296 -1216 460 -1890 505
-136 9 -464 11 -575 4z m550 -254 c1045 -64 2013 -446 2810 -1108 886 -736
1463 -1763 1635 -2909 12 -84 15 -217 15 -723 0 -677 0 -669 -65 -990 -221
-1085 -842 -2082 -1722 -2766 -881 -686 -1966 -1041 -3083 -1010 -1091 30
-2082 393 -2930 1075 -178 143 -521 481 -663 654 -558 678 -906 1466 -1037
2346 -18 121 -20 185 -20 692 0 506 2 571 20 696 97 669 325 1285 678 1837
585 914 1458 1598 2496 1955 578 199 1245 289 1866 251z M5087 9419 c-778 -46
-1537 -325 -2167 -795 -310 -231 -618 -536 -847 -839 -322 -427 -576 -965
-703 -1488 -84 -347 -83 -331 -87 -914 -5 -576 -2 -622 59 -898 193 -888 672
-1695 1354 -2285 635 -548 1390 -875 2227 -966 183 -20 596 -23 772 -5 1133
114 2127 664 2826 1566 395 509 680 1137 803 1770 48 249 51 290 51 765 0 503
-3 534 -71 856 -115 540 -351 1076 -672 1523 -826 1153 -2155 1794 -3545 1710z
m508 -209 c1002 -73 1891 -498 2583 -1234 498 -529 843 -1215 976 -1939 46
-248 60 -411 60 -707 0 -296 -14 -459 -60 -707 -266 -1443 -1332 -2620 -2743
-3029 -740 -214 -1559 -201 -2281 37 -504 166 -948 416 -1344 760 -1481 1280
-1779 3466 -694 5092 160 238 260 360 482 585 431 437 952 761 1537 956 261
86 581 153 839 175 69 6 141 13 160 15 82 7 356 5 485 -4z M6359 7816 c-55
-19 -107 -54 -133 -89 -13 -18 -282 -547 -597 -1177 l-574 -1145 0 -1740 0
-1740 27 -51 c108 -204 388 -204 496 0 l27 51 5 1680 5 1680 548 1094 c601
1199 576 1141 543 1256 -42 141 -211 230 -347 181z m84 -338 c-2 -40 -72 -186
-449 -940 -514 -1028 -563 -1130 -597 -1253 -8 -28 -13 -509 -17 -1620 l-5
-1580 -32 -3 -33 -3 0 1675 0 1676 504 1008 c529 1058 552 1098 609 1090 20
-3 22 -8 20 -50z"/>
</g>
</svg>
