<?xml version="1.0" standalone="no"?>
<!DOCTYPE svg PUBLIC "-//W3C//DTD SVG 20010904//EN"
 "http://www.w3.org/TR/2001/REC-SVG-20010904/DTD/svg10.dtd">
<svg version="1.0" xmlns="http://www.w3.org/2000/svg"
 width="2048.000000pt" height="2048.000000pt" viewBox="0 0 2048.000000 2048.000000"
 preserveAspectRatio="xMidYMid meet">
<metadata>
Created by potrace 1.13, written by Peter Selinger 2001-2015
</metadata>
<g transform="translate(0.000000,2048.000000) scale(0.192120,-0.192120)"
fill="#000000" stroke="none">
<path d="M5070 10324 c-871 -58 -1612 -286 -2318 -711 -1114 -672 -1924 -1751
-2257 -3007 -269 -1017 -205 -2122 182 -3106 398 -1015 1140 -1892 2079 -2456
1330 -798 2959 -935 4404 -367 1268 497 2300 1521 2810 2787 438 1089 476
2326 105 3441 -425 1276 -1335 2318 -2540 2910 -602 296 -1216 460 -1890 505
-136 9 -464 11 -575 4z m550 -254 c1045 -64 2013 -446 2810 -1108 886 -736
1463 -1763 1635 -2909 12 -84 15 -217 15 -723 0 -677 0 -669 -65 -990 -221
-1085 -842 -2082 -1722 -2766 -881 -686 -1966 -1041 -3083 -1010 -1091 30
-2082 393 -2930 1075 -178 143 -521 481 -663 654 -558 678 -906 1466 -1037
2346 -18 121 -20 185 -20 692 0 506 2 571 20 696 97 669 325 1285 678 1837
585 914 1458 1598 2496 1955 578 199 1245 289 1866 251z M5087 9419 c-778 -46
-1537 -325 -2167 -795 -310 -231 -618 -536 -847 -839 -322 -427 -576 -965
-703 -1488 -84 -347 -83 -331 -87 -914 -5 -576 -2 -622 59 -898 193 -888 672
-1695 1354 -2285 635 -548 1387 -874 2227 -966 184 -21 596 -23 772 -5 1137
116 2127 664 2826 1566 395 509 680 1137 803 1770 48 249 51 290 51 765 0 503
-3 534 -71 856 -115 540 -351 1076 -672 1523 -826 1153 -2155 1794 -3545 1710z
m508 -209 c1002 -73 1891 -498 2583 -1234 498 -529 843 -1215 976 -1939 46
-248 60 -411 60 -707 0 -296 -14 -459 -60 -707 -266 -1443 -1332 -2620 -2743
-3029 -740 -214 -1559 -201 -2281 37 -504 166 -948 416 -1344 760 -1481 1280
-1779 3466 -694 5092 160 238 260 360 482 585 431 437 952 761 1537 956 261
86 581 153 839 175 69 6 141 13 160 15 82 7 356 5 485 -4z M2742 5591 c-70
-24 -118 -65 -156 -131 -27 -48 -31 -65 -31 -130 0 -65 4 -82 31 -130 17 -30
50 -70 73 -87 85 -66 29 -63 1268 -63 l1123 0 0 -1403 c0 -1570 -5 -1465 72
-1552 111 -126 301 -128 411 -5 78 86 72 -69 75 1695 3 1801 10 1648 -84 1742
-89 89 21 83 -1443 83 -1219 -1 -1289 -2 -1339 -19z m2576 -257 l22 -6 0
-1490 0 -1489 -22 7 c-13 3 -29 11 -35 16 -10 8 -13 285 -13 1324 0 869 -3
1314 -10 1314 -5 0 -10 9 -10 20 0 11 -4 20 -10 20 -5 0 -10 6 -10 14 0 20
-69 105 -131 163 -29 26 -58 54 -65 61 -7 6 -17 12 -23 12 -18 0 -12 28 7 33
26 7 274 8 300 1z"/>
</g>
</svg>
