<?xml version="1.0" standalone="no"?>
<!DOCTYPE svg PUBLIC "-//W3C//DTD SVG 20010904//EN"
 "http://www.w3.org/TR/2001/REC-SVG-20010904/DTD/svg10.dtd">
<svg version="1.0" xmlns="http://www.w3.org/2000/svg"
 width="2048.000000pt" height="2048.000000pt" viewBox="0 0 2048.000000 2048.000000"
 preserveAspectRatio="xMidYMid meet">
<metadata>
Created by potrace 1.13, written by Peter Selinger 2001-2015
</metadata>
<g transform="translate(0.000000,2048.000000) scale(0.192120,-0.192120)"
fill="#000000" stroke="none">
<path d="M5070 10324 c-871 -58 -1612 -286 -2318 -711 -1114 -672 -1924 -1751
-2257 -3007 -269 -1017 -205 -2122 182 -3106 398 -1015 1140 -1892 2079 -2456
1330 -798 2959 -935 4404 -367 1268 497 2300 1521 2810 2787 438 1089 476
2326 105 3441 -425 1276 -1335 2318 -2540 2910 -602 296 -1216 460 -1890 505
-136 9 -464 11 -575 4z m550 -254 c1045 -64 2013 -446 2810 -1108 886 -736
1463 -1763 1635 -2909 12 -84 15 -217 15 -723 0 -677 0 -669 -65 -990 -221
-1085 -842 -2082 -1722 -2766 -881 -686 -1966 -1041 -3083 -1010 -1091 30
-2082 393 -2930 1075 -178 143 -521 481 -663 654 -558 678 -906 1466 -1037
2346 -18 121 -20 185 -20 692 0 506 2 571 20 696 97 669 325 1285 678 1837
585 914 1458 1598 2496 1955 578 199 1245 289 1866 251z M5087 9419 c-778 -46
-1537 -325 -2167 -795 -310 -231 -618 -536 -847 -839 -322 -427 -576 -965
-703 -1488 -84 -347 -83 -331 -87 -914 -5 -576 -2 -622 59 -898 193 -888 672
-1695 1354 -2285 635 -548 1387 -874 2227 -966 184 -21 596 -23 772 -5 1137
116 2127 664 2826 1566 395 509 680 1137 803 1770 48 249 51 290 51 765 0 503
-3 534 -71 856 -115 540 -351 1076 -672 1523 -826 1153 -2155 1794 -3545 1710z
m508 -209 c1002 -73 1891 -498 2583 -1234 498 -529 843 -1215 976 -1939 46
-248 60 -411 60 -707 0 -296 -14 -459 -60 -707 -266 -1443 -1332 -2620 -2743
-3029 -740 -214 -1559 -201 -2281 37 -504 166 -948 416 -1344 760 -1481 1280
-1779 3466 -694 5092 160 238 260 360 482 585 431 437 952 761 1537 956 261
86 581 153 839 175 69 6 141 13 160 15 82 7 356 5 485 -4z M5260 5601 c-84
-28 -138 -72 -183 -151 -14 -25 -295 -513 -625 -1085 -330 -572 -609 -1059
-621 -1083 -90 -178 45 -392 249 -392 77 0 148 29 197 81 26 28 574 964 732
1252 23 42 43 77 44 77 1 0 1 -461 -1 -1026 -4 -1153 -7 -1091 70 -1179 111
-126 301 -129 411 -5 79 86 72 -72 72 1715 l0 1600 -27 50 c-31 60 -67 95
-128 125 -48 24 -147 35 -190 21z m80 -1772 l0 -1480 -22 7 c-13 3 -28 11 -35
16 -10 8 -13 210 -15 876 -3 865 -3 867 -25 932 -30 89 -72 151 -133 199 -83
65 -136 54 -248 -53 -95 -90 -146 -169 -427 -656 -254 -441 -300 -505 -349
-487 -21 8 -21 69 1 110 9 18 132 232 273 477 141 245 272 472 290 505 134
243 530 917 570 970 25 34 71 65 96 65 l24 0 0 -1481z"/>
</g>
</svg>
