<?xml version="1.0" standalone="no"?>
<!DOCTYPE svg PUBLIC "-//W3C//DTD SVG 20010904//EN"
 "http://www.w3.org/TR/2001/REC-SVG-20010904/DTD/svg10.dtd">
<svg version="1.0" xmlns="http://www.w3.org/2000/svg"
 width="2048.000000pt" height="2048.000000pt" viewBox="0 0 2048.000000 2048.000000"
 preserveAspectRatio="xMidYMid meet">
<metadata>
Created by potrace 1.13, written by Peter Selinger 2001-2015
</metadata>
<g transform="translate(0.000000,2048.000000) scale(0.192120,-0.192120)"
fill="#000000" stroke="none">
<path d="M5136 10274 c-253 -46 -502 -180 -696 -374 -234 -234 -361 -511 -401
-882 -25 -223 1 -950 41 -1158 33 -172 90 -285 159 -311 45 -18 166 11 418 97
136 46 255 84 265 84 37 0 68 -22 68 -50 0 -41 11 -90 21 -90 18 0 79 63 79
82 0 28 -32 70 -79 102 -40 28 -67 31 -127 11 -29 -9 -130 69 -211 164 -158
185 -266 436 -308 716 -11 79 -19 104 -36 118 -50 40 -49 47 -50 -390 -1 -291
-4 -398 -11 -373 -6 20 -12 248 -15 540 -6 558 -5 558 60 751 111 328 402 589
764 686 85 23 118 26 248 26 130 0 163 -3 248 -26 189 -50 405 -175 534 -307
94 -96 183 -258 238 -435 21 -66 42 -128 46 -137 11 -21 10 -978 -1 -1088 -4
-43 -7 103 -8 342 -1 229 -5 419 -10 422 -4 2 -22 -2 -39 -9 -25 -11 -33 -21
-37 -47 -34 -239 -76 -387 -155 -542 -84 -165 -199 -308 -306 -381 -49 -34
-58 -37 -80 -27 -42 19 -79 14 -122 -17 -77 -56 -93 -104 -47 -144 44 -38 61
-40 68 -5 3 17 6 43 6 58 0 28 31 50 69 50 10 0 92 -25 182 -56 294 -100 336
-113 403 -124 88 -14 140 -4 184 34 70 62 97 178 112 486 13 259 12 852 0 965
-23 195 -71 363 -147 515 -73 145 -138 235 -253 350 -296 298 -706 440 -1074
374z m-806 -2034 c0 -11 141 -273 161 -298 22 -28 25 -84 6 -100 -7 -6 -40
-18 -73 -27 -55 -14 -60 -14 -84 3 -41 31 -49 72 -49 276 -1 188 -1 189 19
171 11 -10 20 -21 20 -25z m2030 -162 c0 -278 -14 -304 -143 -262 -59 19 -87
39 -87 63 0 9 18 48 41 86 53 91 99 175 138 253 17 34 36 62 41 62 6 0 10 -76
10 -202z M4877 9594 c-130 -47 -307 -239 -307 -332 0 -41 16 -72 37 -72 8 0
82 66 164 146 l148 147 133 -66 c242 -118 393 -161 623 -176 83 -6 177 -17
209 -26 33 -9 66 -13 73 -11 18 7 16 42 -4 78 -36 60 -108 86 -335 123 -167
26 -296 65 -472 140 -155 66 -201 75 -269 49z M4520 9083 c-54 -28 -72 -70
-78 -176 -11 -228 87 -477 206 -519 24 -8 87 -13 182 -13 131 0 149 2 192 23
66 33 121 98 174 204 49 101 96 158 129 158 33 0 80 -57 129 -158 53 -107 108
-171 174 -203 37 -18 70 -23 157 -27 134 -5 216 9 263 44 96 74 171 301 160
488 -10 162 -45 196 -206 196 -220 0 -432 -63 -558 -166 -94 -77 -139 -77
-241 2 -130 101 -295 153 -513 161 -117 4 -140 2 -170 -14z m1528 -65 c67 -32
86 -82 80 -212 -9 -183 -70 -305 -176 -354 -49 -23 -70 -27 -153 -27 -90 0
-100 2 -164 35 -80 41 -123 96 -176 224 -42 101 -42 134 -3 183 115 143 439
226 592 151z m-1103 -2 c93 -26 165 -65 221 -121 71 -70 74 -92 29 -201 -47
-112 -95 -185 -145 -218 -122 -81 -336 -69 -423 22 -63 67 -107 201 -107 328
0 116 24 168 95 200 40 19 248 12 330 -10z M5785 9000 c-142 -17 -234 -59
-283 -130 -22 -31 -23 -43 -19 -109 5 -58 14 -90 42 -147 46 -93 97 -139 174
-155 67 -14 183 -7 233 14 72 30 128 184 128 353 0 104 -9 136 -42 158 -30 20
-134 27 -233 16z M4677 9001 c-69 -14 -82 -37 -85 -156 -6 -178 49 -340 126
-372 51 -21 166 -28 236 -13 49 10 67 20 105 59 69 69 110 168 111 269 0 73
-36 121 -125 165 -77 39 -282 65 -368 48z M5150 8470 c0 -15 46 -74 73 -94 23
-17 43 -21 102 -21 59 0 79 4 102 21 27 20 73 79 73 94 0 4 -26 1 -57 -6 -32
-8 -85 -14 -118 -14 -33 0 -86 6 -117 14 -32 7 -58 10 -58 6z M4964 8125 c-9
-24 44 -92 105 -136 183 -131 477 -91 595 80 51 73 61 71 -339 71 -310 0 -356
-2 -361 -15z M4860 7505 c-771 -173 -1213 -776 -1265 -1727 l-7 -128 321 0
321 0 0 54 c0 202 57 480 131 646 34 74 90 170 100 170 3 0 9 -26 12 -57 4
-32 30 -238 58 -458 l51 -400 -54 -95 c-30 -52 -71 -119 -91 -147 -43 -64 -72
-138 -100 -258 -29 -123 -31 -480 -4 -655 44 -282 107 -531 215 -855 l67 -200
38 -3 37 -3 0 -587 0 -588 -45 -38 c-71 -58 -98 -121 -103 -237 -7 -149 36
-278 145 -442 61 -91 186 -217 240 -241 41 -18 44 -18 89 -1 88 34 223 189
282 326 l25 59 41 -83 c72 -145 183 -269 274 -303 40 -16 45 -16 85 2 54 24
178 149 240 242 107 160 151 295 145 442 -6 129 -43 200 -135 262 l-23 15 -2
586 -3 586 39 3 39 3 39 100 c196 506 288 945 275 1315 -10 288 -58 439 -238
741 l-32 54 52 400 c28 220 54 426 58 458 3 31 9 57 12 57 10 0 66 -96 99
-170 68 -149 107 -323 124 -542 l12 -158 319 0 319 0 -7 128 c-19 361 -92 659
-226 927 -215 431 -577 706 -1063 805 -54 11 -100 20 -101 20 -2 0 -5 -15 -7
-32 -3 -30 -10 -36 -88 -76 -164 -82 -327 -82 -490 0 -78 40 -85 46 -88 76 -4
37 3 37 -132 7z m173 -351 c219 -86 366 -85 587 1 86 34 102 37 165 33 124 -9
310 -85 463 -191 85 -59 222 -199 281 -289 129 -195 201 -417 201 -619 0 -139
-6 -158 -39 -137 -25 15 -40 55 -75 191 -53 204 -139 366 -250 471 -57 54
-125 96 -156 96 -37 0 -109 -50 -175 -121 -93 -101 -117 -165 -154 -409 -37
-243 -51 -373 -51 -473 0 -72 -4 -107 -16 -130 -9 -18 -20 -39 -24 -47 -19
-41 -519 -65 -761 -37 -150 18 -187 28 -195 54 -3 10 -10 27 -14 38 -5 11 -11
85 -14 165 -5 142 -48 476 -80 613 -9 37 -28 91 -42 120 -53 104 -183 227
-241 227 -44 0 -108 -42 -189 -125 -119 -121 -168 -224 -248 -515 -25 -89 -49
-130 -78 -130 -6 0 -8 67 -6 178 3 169 5 181 36 271 138 398 404 658 792 777
111 34 172 31 283 -12z m-477 -1804 c441 -153 1096 -153 1537 -1 l57 20 0 -24
c0 -13 -10 -61 -22 -107 -19 -75 -22 -119 -28 -463 -4 -248 -11 -399 -19 -435
-7 -30 -26 -116 -43 -190 -33 -146 -96 -352 -133 -437 -33 -72 -70 -119 -107
-132 -47 -16 -262 -13 -343 5 -117 26 -146 27 -252 5 -110 -23 -330 -29 -377
-11 -59 22 -127 190 -205 507 -69 281 -79 369 -86 738 -6 262 -11 351 -26 430
-20 104 -21 115 -16 115 2 0 30 -9 63 -20z m1351 -1968 c9 -5 0 -21 -28 -52
-54 -59 -79 -100 -79 -127 0 -13 -4 -23 -10 -23 -16 0 -13 -897 3 -916 6 -8
18 -21 25 -29 7 -8 37 -22 67 -31 50 -16 55 -20 57 -48 6 -105 -23 -186 -84
-242 -64 -57 -118 -77 -202 -72 -85 5 -136 27 -193 85 -51 53 -73 115 -73 205
0 61 2 68 20 68 34 0 99 31 105 51 4 10 11 19 16 19 5 0 9 180 9 455 0 259 -4
455 -9 455 -5 0 -12 16 -15 36 -5 25 -24 52 -64 92 l-57 57 -3 -580 -2 -579
-32 -33 -31 -32 -40 36 -40 36 1 516 c1 284 -2 543 -6 576 l-7 60 -46 -42
c-25 -23 -52 -55 -59 -70 -8 -15 -19 -31 -25 -35 -11 -8 -20 -879 -10 -936 3
-18 10 -30 16 -27 5 4 9 1 9 -4 0 -12 64 -41 91 -41 26 0 31 -13 31 -90 0
-155 -101 -267 -251 -278 -172 -12 -301 106 -301 274 l0 53 61 22 c41 15 64
30 72 46 5 13 14 23 19 23 4 0 8 207 8 460 0 300 -3 460 -10 460 -5 0 -10 9
-10 21 0 29 -16 56 -71 121 -41 47 -46 57 -32 61 31 8 1167 7 1180 -1z M3642
5320 c3 -308 5 -317 80 -392 54 -54 93 -71 178 -76 95 -5 160 20 219 83 73 79
75 88 79 383 2 172 0 262 -7 262 -13 0 -118 -124 -126 -150 -3 -11 -11 -20
-16 -20 -5 0 -9 -9 -9 -20 0 -11 -7 -20 -15 -20 -12 0 -15 -17 -15 -94 0 -84
-2 -94 -19 -99 -14 -3 -21 -15 -23 -43 -2 -30 -8 -39 -29 -46 -16 -5 -37 -5
-52 1 -23 9 -27 17 -27 50 0 30 -4 40 -20 44 -18 5 -20 14 -20 96 0 54 -4 91
-10 91 -5 0 -10 9 -10 20 0 11 -3 20 -8 20 -4 0 -15 15 -25 33 -10 17 -43 59
-73 92 l-54 60 2 -275z M6967 5549 c-21 -23 -51 -58 -65 -78 -15 -20 -33 -42
-39 -49 -7 -7 -13 -22 -13 -33 0 -10 -7 -19 -15 -19 -12 0 -15 -17 -15 -90 0
-78 -2 -91 -19 -100 -13 -6 -21 -23 -23 -47 -2 -30 -8 -38 -30 -45 -43 -15
-82 9 -86 52 -2 19 -10 39 -18 43 -10 6 -14 31 -14 97 0 53 -4 90 -10 90 -5 0
-10 9 -10 20 0 11 -4 20 -9 20 -5 0 -13 9 -16 20 -8 26 -113 150 -126 150 -7
0 -9 -90 -7 -262 4 -295 5 -303 77 -381 61 -66 126 -90 222 -85 94 6 153 37
204 106 52 72 56 100 53 380 l-3 254 -38 -43z M4910 923 c-313 -16 -569 -41
-765 -74 -450 -75 -602 -186 -392 -284 150 -71 408 -120 847 -161 229 -21 936
-30 1210 -15 674 37 1148 137 1176 247 11 44 -10 70 -88 108 -177 84 -569 147
-1098 176 -164 9 -745 11 -890 3z m664 -263 c27 -25 -15 -30 -247 -30 -224 0
-284 6 -263 27 20 20 488 22 510 3z"/>
</g>
</svg>
