<?xml version="1.0" standalone="no"?>
<!DOCTYPE svg PUBLIC "-//W3C//DTD SVG 20010904//EN"
 "http://www.w3.org/TR/2001/REC-SVG-20010904/DTD/svg10.dtd">
<svg version="1.0" xmlns="http://www.w3.org/2000/svg"
 width="2048.000000pt" height="2048.000000pt" viewBox="0 0 2048.000000 2048.000000"
 preserveAspectRatio="xMidYMid meet">
<metadata>
Created by potrace 1.13, written by Peter Selinger 2001-2015
</metadata>
<g transform="translate(0.000000,2048.000000) scale(0.192120,-0.192120)"
fill="#000000" stroke="none">
<path d="M4803 10032 c-107 -38 -197 -132 -278 -295 -61 -121 -89 -205 -171
-518 -3 -11 -29 -19 -97 -28 -106 -15 -226 -45 -271 -68 -51 -25 -95 -74 -102
-111 -17 -89 82 -165 311 -242 108 -37 110 -38 113 -70 2 -20 0 -30 -7 -26
-15 10 -57 -61 -77 -128 -47 -166 29 -381 143 -402 28 -5 34 -12 43 -48 20
-80 82 -227 130 -307 102 -169 240 -304 392 -384 37 -20 68 -41 68 -48 1 -13
312 -237 330 -237 18 0 329 224 330 237 0 7 24 25 53 39 164 83 298 213 407
393 48 81 110 227 130 308 8 34 16 43 39 48 38 8 95 69 122 129 48 109 32 287
-33 377 -47 65 -39 77 77 114 136 43 228 88 281 139 37 36 44 48 44 82 0 21
-9 53 -20 71 -35 59 -171 110 -352 134 l-93 12 -47 172 c-79 293 -141 419
-267 546 -119 120 -197 139 -391 99 -130 -27 -281 -25 -515 5 -225 29 -225 29
-292 7z m362 -317 c165 -19 280 -19 430 0 176 22 222 8 293 -84 29 -38 33 -50
30 -95 l-3 -51 -47 -12 c-187 -46 -988 -41 -1115 8 -20 7 -23 16 -23 58 0 39
7 59 33 97 50 72 94 94 192 94 44 0 139 -7 210 -15z m-594 -424 c439 -91 1052
-93 1499 -5 69 13 128 24 133 24 4 0 7 -22 7 -49 0 -41 4 -53 25 -70 14 -11
39 -23 55 -26 26 -6 30 -11 30 -41 0 -68 -74 -107 -280 -150 -203 -42 -389
-57 -705 -57 -387 0 -648 28 -861 94 -81 25 -134 71 -134 116 0 26 5 31 39 42
56 16 84 54 76 103 -8 45 -11 45 116 19z m71 -620 c235 -35 397 -45 693 -45
299 0 462 11 694 45 110 17 135 18 142 7 15 -22 11 -26 -54 -47 -56 -19 -93
-22 -318 -26 -140 -2 -274 -8 -299 -14 -58 -13 -272 -13 -330 0 -25 6 -159 12
-299 15 -217 3 -264 7 -318 24 -79 24 -84 27 -76 45 7 19 5 19 165 -4z m-286
-102 c8 -16 26 -36 40 -46 25 -16 27 -16 40 1 7 11 15 23 17 29 5 16 129 -30
166 -61 29 -24 35 -38 56 -138 44 -210 65 -229 260 -229 147 0 192 11 230 57
35 42 53 87 76 193 12 53 27 95 36 103 26 19 97 15 116 -6 9 -10 23 -50 31
-88 34 -160 82 -234 163 -251 21 -4 92 -8 158 -8 103 0 125 3 155 20 43 25 71
90 96 221 22 113 48 142 153 174 68 21 73 21 91 5 26 -23 51 -16 75 22 46 74
43 20 -4 -82 -27 -57 -238 -387 -424 -663 -120 -179 -235 -278 -446 -388 -91
-48 -127 -49 -212 -7 -76 38 -227 137 -287 189 -72 63 -198 234 -350 479 -35
55 -102 157 -151 227 -80 117 -131 223 -131 270 0 25 28 11 46 -23z m624 -158
c0 -24 -7 -29 -35 -23 -32 6 -34 39 -2 44 29 5 37 1 37 -21z m760 -1 c0 -16
-7 -20 -30 -20 -23 0 -30 4 -30 20 0 16 7 20 30 20 23 0 30 -4 30 -20z M5172
8120 c17 -49 70 -83 138 -88 74 -5 121 10 160 54 39 45 40 67 3 57 -36 -10
-250 -10 -285 0 -26 7 -27 7 -16 -23z M4974 7811 c-27 -27 70 -137 160 -181
183 -90 434 -34 541 120 21 31 25 44 17 52 -8 8 -113 12 -363 12 -193 1 -353
-1 -355 -3z M4375 7270 c-304 -7 -329 -11 -431 -69 -121 -70 -213 -187 -257
-326 l-22 -70 0 -1325 0 -1325 28 -57 c50 -102 132 -153 247 -153 62 1 84 5
126 27 86 45 148 140 142 216 l-3 37 -55 3 c-30 2 -75 -2 -100 -9 -61 -16
-110 -19 -110 -8 0 5 -5 9 -11 9 -15 0 -65 52 -73 77 -4 12 -13 24 -21 27 -8
3 -15 11 -15 19 0 7 -8 22 -18 33 -10 10 -32 40 -49 65 l-32 46 46 7 c25 3
137 6 249 6 l204 0 0 -140 0 -140 39 0 39 0 7 -87 c14 -188 185 -2060 190
-2093 5 -28 -3 -54 -39 -130 -117 -248 -162 -503 -111 -627 64 -152 282 -177
490 -56 240 140 458 445 482 674 3 33 9 59 13 59 4 0 10 -26 13 -59 24 -226
241 -533 476 -670 210 -124 432 -102 495 49 52 126 8 381 -110 630 -36 76 -44
102 -39 130 5 33 176 1905 190 2093 l7 87 39 0 39 0 0 140 0 140 204 0 c112 0
224 -3 249 -6 l46 -7 -62 -91 c-34 -50 -67 -97 -74 -104 -7 -7 -13 -18 -13
-23 0 -13 -32 -42 -60 -55 -28 -12 -54 -11 -157 6 -40 7 -84 9 -98 6 -21 -5
-25 -12 -25 -44 1 -78 61 -167 144 -210 42 -22 64 -26 126 -27 115 0 197 51
247 153 l28 57 0 1325 0 1325 -22 70 c-54 172 -175 301 -342 366 -52 21 -78
23 -396 30 -187 3 -343 4 -348 0 -14 -14 -502 -1739 -493 -1748 11 -12 123
171 205 334 72 145 98 218 122 351 19 100 31 135 85 242 34 69 67 143 73 165
6 22 16 132 21 245 11 226 18 291 30 269 24 -44 232 -681 224 -688 -5 -5 -80
-27 -168 -49 -87 -23 -161 -43 -164 -46 -2 -3 38 -74 91 -158 l95 -153 -81
-85 c-243 -255 -593 -615 -597 -615 -3 0 -124 124 -269 275 -146 151 -297 309
-337 350 l-73 75 96 153 c53 84 93 155 90 158 -3 3 -78 25 -168 48 -90 23
-164 47 -166 53 -3 9 211 652 227 682 11 21 19 -50 30 -272 5 -109 12 -210 16
-225 3 -15 37 -92 75 -172 59 -124 72 -161 89 -258 11 -62 31 -140 44 -175 49
-130 202 -414 261 -482 l25 -30 -6 30 c-19 82 -469 1677 -484 1713 -9 20 -16
22 -67 20 -32 -1 -184 -5 -338 -8z m59 -333 c4 -23 -2 -63 -20 -123 -55 -186
-64 -228 -64 -308 0 -70 4 -87 28 -129 15 -26 51 -71 80 -101 58 -59 59 -64
47 -186 -7 -67 -5 -82 16 -130 54 -130 155 -252 465 -567 280 -283 324 -302
473 -202 59 40 461 454 565 582 27 34 67 100 89 146 l40 84 -7 105 -7 104 58
61 c126 132 136 210 59 472 -26 88 -46 174 -44 190 l3 30 110 3 c169 5 282
-26 345 -93 l25 -27 3 -1062 2 -1063 -98 -5 c-76 -4 -109 -10 -144 -28 -47
-23 -228 -190 -228 -209 0 -6 -9 -11 -20 -11 -11 0 -20 -7 -20 -15 0 -12 -20
-15 -118 -15 -149 0 -178 8 -412 120 -194 93 -269 120 -331 120 -60 0 -155
-35 -343 -125 -97 -46 -200 -91 -228 -100 -57 -17 -308 -22 -308 -6 0 28 -192
215 -249 243 -35 17 -69 23 -153 26 l-108 5 0 1041 c0 1174 -7 1078 78 1139
61 45 155 66 293 66 l117 1 6 -33z m1173 -2577 l274 -140 219 0 c120 0 225 -3
234 -6 12 -5 6 -13 -26 -37 -24 -17 -65 -54 -93 -82 -46 -47 -60 -69 -84 -127
-5 -13 -37 -333 -71 -713 -49 -548 -61 -719 -58 -830 l3 -140 52 -109 c38 -78
48 -106 35 -100 -111 48 -207 64 -392 64 -222 0 -321 -25 -350 -87 -8 -18 -17
-33 -20 -33 -3 0 -12 15 -20 33 -29 62 -128 87 -350 87 -185 0 -281 -16 -393
-65 -12 -5 -1 25 40 111 l58 118 3 145 c3 116 -8 271 -53 761 -63 694 -65 709
-96 775 -25 52 -113 153 -172 196 -29 21 -34 28 -21 33 9 3 115 6 237 6 l222
1 270 138 c149 76 272 139 274 140 2 0 128 -62 278 -139z m-564 -2464 c19 -50
-91 -228 -206 -332 -63 -58 -149 -104 -195 -104 l-32 0 0 73 c0 84 18 155 63
246 48 96 77 113 200 121 165 11 165 11 170 -4z m829 -7 c49 -13 91 -65 128
-161 26 -66 30 -91 30 -173 0 -93 -1 -95 -23 -95 -46 0 -147 61 -220 133 -101
99 -199 261 -184 301 6 14 20 16 119 10 62 -3 130 -10 150 -15z M5289 3895
c-44 -100 -97 -403 -143 -830 -31 -285 -66 -686 -66 -757 l1 -53 34 37 c56 60
59 76 120 644 43 410 87 546 128 397 26 -97 37 -186 86 -683 25 -246 38 -298
93 -354 l40 -41 -6 121 c-8 144 -48 575 -76 817 -43 365 -95 639 -134 716 -24
46 -53 41 -77 -14z M5230 7008 l-94 -98 78 -79 c58 -58 77 -84 73 -98 -3 -10
-44 -112 -91 -228 -76 -186 -84 -211 -68 -217 34 -13 80 -7 126 17 57 30 101
32 141 5 35 -23 101 -35 132 -23 23 8 22 11 -63 218 -47 116 -88 218 -91 228
-4 14 15 40 73 98 l78 79 -94 98 c-52 55 -97 99 -100 99 -3 0 -48 -44 -100
-99z M5020 879 c-805 -24 -1390 -147 -1356 -284 27 -106 433 -200 1061 -247
227 -17 979 -17 1205 0 607 45 1002 133 1059 234 14 25 14 29 -5 55 -95 128
-615 219 -1391 243 -169 5 -312 9 -318 8 -5 -1 -120 -5 -255 -9z m618 -265
c30 -3 52 -8 49 -10 -7 -7 -273 -27 -357 -27 -41 0 -133 5 -205 11 -71 6 -134
11 -139 12 -5 0 -6 3 -2 8 18 17 496 22 654 6z"/>
</g>
</svg>
