<?xml version="1.0" standalone="no"?>
<!DOCTYPE svg PUBLIC "-//W3C//DTD SVG 20010904//EN"
 "http://www.w3.org/TR/2001/REC-SVG-20010904/DTD/svg10.dtd">
<svg version="1.0" xmlns="http://www.w3.org/2000/svg"
 width="2048.000000pt" height="2048.000000pt" viewBox="0 0 2048.000000 2048.000000"
 preserveAspectRatio="xMidYMid meet">
<metadata>
Created by potrace 1.13, written by Peter Selinger 2001-2015
</metadata>
<g transform="translate(0.000000,2048.000000) scale(0.192120,-0.192120)"
fill="#000000" stroke="none">
<path d="M4803 10032 c-107 -38 -197 -132 -278 -295 -61 -121 -89 -205 -171
-518 -3 -11 -29 -19 -97 -28 -106 -15 -226 -45 -271 -68 -123 -62 -137 -166
-32 -241 225 -161 747 -257 1391 -256 426 1 773 41 1047 120 261 75 388 155
388 243 0 102 -124 169 -372 202 l-93 12 -47 172 c-79 293 -141 419 -267 546
-119 120 -197 139 -391 99 -130 -27 -281 -25 -515 5 -225 29 -225 29 -292 7z
m362 -317 c165 -19 280 -19 430 0 176 22 222 8 293 -84 29 -38 33 -50 30 -95
l-3 -51 -47 -12 c-187 -46 -988 -41 -1115 8 -20 7 -23 16 -23 58 0 39 7 59 33
97 50 72 94 94 192 94 44 0 139 -7 210 -15z m-594 -424 c439 -91 1052 -93
1499 -5 69 13 128 24 133 24 4 0 7 -22 7 -49 0 -41 4 -53 25 -70 14 -11 39
-23 55 -26 26 -6 30 -11 30 -41 0 -68 -74 -107 -280 -150 -203 -42 -389 -57
-705 -57 -387 0 -648 28 -861 94 -81 25 -134 71 -134 116 0 26 5 31 39 42 56
16 84 54 76 103 -8 45 -11 45 116 19z M6186 8653 l-130 -43 -255 -4 c-141 -3
-276 -9 -301 -15 -25 -6 -99 -10 -165 -10 -66 0 -140 4 -165 10 -25 6 -160 12
-301 15 l-255 4 -119 40 c-137 46 -169 49 -186 19 -23 -44 -1 -62 127 -102
131 -41 175 -61 200 -88 9 -10 25 -62 36 -116 25 -128 56 -196 100 -220 27
-15 56 -18 168 -18 225 0 254 28 314 307 9 41 32 58 80 58 57 0 72 -19 92
-116 31 -149 81 -224 162 -241 20 -4 91 -8 157 -8 103 0 125 3 155 20 43 25
71 90 96 220 25 123 38 136 189 185 66 22 125 40 132 40 6 0 21 12 32 26 16
21 18 30 9 49 -6 13 -18 25 -27 28 -9 2 -74 -16 -145 -40z M4221 8530 c-20
-94 -8 -208 29 -280 23 -45 83 -100 117 -106 29 -6 34 -11 48 -63 83 -294 280
-552 517 -676 37 -20 68 -41 68 -48 1 -15 309 -231 330 -231 22 0 330 216 330
231 0 7 31 28 68 48 232 121 418 359 507 647 24 77 30 88 54 93 31 7 91 65
114 110 27 55 40 135 34 211 -9 118 -18 121 -64 23 -22 -46 -82 -147 -135
-224 -52 -77 -139 -210 -193 -295 -54 -85 -117 -184 -140 -220 -55 -86 -187
-209 -311 -292 -145 -96 -225 -138 -265 -138 -66 0 -317 160 -451 288 -79 75
-176 213 -307 433 -35 58 -94 147 -132 198 -87 116 -140 204 -169 281 -12 33
-26 60 -30 60 -5 0 -13 -23 -19 -50z M5160 8142 c0 -22 48 -78 80 -94 43 -22
140 -24 179 -3 34 17 81 70 81 91 0 11 -7 13 -27 7 -37 -11 -240 -10 -280 0
-20 5 -33 5 -33 -1z M4974 7811 c-27 -27 70 -137 160 -181 185 -90 433 -35
541 120 22 31 26 43 16 53 -8 8 -106 11 -362 12 -193 0 -353 -2 -355 -4z
M4375 7270 c-304 -7 -329 -11 -431 -69 -118 -68 -209 -183 -257 -321 l-22 -65
-3 -1160 -3 -1160 281 4 280 3 0 -141 0 -141 38 0 37 0 79 -867 c43 -478 89
-977 102 -1110 l23 -243 -44 -93 c-116 -245 -161 -501 -110 -624 64 -152 282
-177 490 -56 240 140 458 445 482 674 3 33 9 59 13 59 4 0 10 -26 13 -59 24
-226 241 -533 476 -670 210 -124 432 -102 495 49 52 126 8 381 -109 627 l-44
93 23 243 c13 133 59 632 102 1110 l79 867 37 0 38 0 0 141 0 141 280 -3 281
-4 -3 1160 -3 1160 -22 65 c-44 130 -121 232 -227 301 -122 80 -130 82 -511
90 -187 3 -343 4 -348 0 -14 -14 -502 -1739 -493 -1748 11 -12 123 171 205
334 72 145 98 218 122 351 19 100 31 135 85 242 34 69 67 143 73 165 6 22 16
135 22 250 16 320 12 317 96 75 128 -372 165 -492 157 -500 -5 -4 -80 -26
-168 -48 -87 -23 -161 -43 -164 -46 -2 -3 38 -74 91 -158 l95 -153 -81 -85
c-243 -255 -593 -615 -597 -615 -3 0 -124 124 -269 275 -146 151 -297 309
-337 350 l-73 75 96 153 c53 84 93 155 90 158 -3 3 -78 25 -168 48 -90 23
-164 47 -166 53 -3 9 211 652 227 682 11 21 19 -50 30 -272 5 -109 12 -210 16
-225 3 -15 37 -92 75 -172 59 -124 72 -161 89 -258 11 -62 31 -140 44 -175 49
-130 202 -414 261 -482 l25 -30 -6 30 c-19 82 -469 1677 -484 1713 -9 20 -16
22 -67 20 -32 -1 -184 -5 -338 -8z m59 -333 c4 -23 -2 -63 -20 -123 -55 -186
-64 -228 -64 -308 0 -70 4 -87 28 -129 15 -26 51 -71 80 -101 58 -59 59 -64
47 -186 -7 -67 -5 -82 16 -130 54 -130 155 -252 465 -567 280 -283 324 -302
473 -202 59 40 461 454 565 582 27 34 67 100 89 146 l40 84 -7 105 -7 104 58
61 c126 132 136 210 59 472 -26 88 -46 174 -44 190 l3 30 110 3 c169 5 282
-26 345 -93 l25 -27 3 -1042 2 -1043 -94 -5 c-126 -7 -173 -30 -293 -146 -51
-49 -93 -94 -93 -101 0 -6 -4 -11 -10 -11 -5 0 -10 -7 -10 -15 0 -9 -9 -15
-25 -15 -16 0 -25 -6 -25 -15 0 -12 -18 -15 -98 -15 -127 0 -165 12 -392 120
-194 93 -269 120 -331 120 -60 0 -155 -35 -343 -125 -224 -107 -251 -115 -393
-115 -94 0 -113 3 -113 15 0 8 -7 15 -15 15 -8 0 -15 7 -15 15 0 8 -4 15 -10
15 -5 0 -10 5 -10 11 0 28 -166 185 -229 216 -44 22 -71 27 -157 31 l-104 5 0
1021 c0 1151 -7 1058 78 1119 61 45 155 66 293 66 l117 1 6 -33z m1173 -2577
l274 -140 209 0 c114 0 214 -2 222 -5 9 -4 -15 -34 -68 -88 -47 -48 -91 -102
-102 -128 -29 -65 -145 -1370 -140 -1574 l3 -140 52 -109 c38 -78 48 -106 35
-100 -111 48 -207 64 -392 64 -222 0 -321 -25 -350 -87 -8 -18 -17 -33 -20
-33 -3 0 -12 15 -20 33 -29 62 -128 87 -350 87 -185 0 -281 -16 -393 -65 -12
-5 -1 25 40 111 l58 118 3 145 c3 116 -8 272 -53 761 -31 338 -60 642 -65 675
-14 87 -55 160 -140 247 -50 51 -71 79 -62 83 8 3 109 5 225 5 l212 1 270 138
c149 76 272 139 274 140 2 0 128 -62 278 -139z m-564 -2464 c19 -50 -91 -228
-206 -332 -63 -58 -149 -104 -195 -104 l-32 0 0 73 c0 84 18 155 63 246 48 96
77 113 200 121 165 11 165 11 170 -4z m829 -7 c49 -13 91 -65 128 -161 26 -66
30 -91 30 -173 0 -93 -1 -95 -23 -95 -46 0 -147 61 -220 133 -101 99 -199 261
-184 301 6 14 20 16 119 10 62 -3 130 -10 150 -15z M5289 3895 c-44 -100 -97
-403 -143 -830 -31 -285 -66 -686 -66 -757 l1 -53 34 37 c56 60 59 76 120 644
43 410 87 546 128 397 26 -97 37 -186 86 -683 25 -246 38 -298 93 -354 l40
-41 -6 121 c-8 144 -48 575 -76 817 -43 365 -95 639 -134 716 -24 46 -53 41
-77 -14z M5231 7009 l-94 -101 78 -78 c57 -57 76 -83 72 -97 -3 -10 -44 -112
-91 -228 -76 -186 -84 -211 -68 -217 34 -13 80 -7 126 17 57 30 101 32 141 5
35 -23 101 -35 132 -23 23 8 22 11 -63 218 -47 116 -88 218 -91 228 -4 14 15
40 72 97 l78 79 -92 98 c-51 54 -96 99 -100 100 -3 1 -48 -43 -100 -98z M3665
4366 c-17 -159 15 -291 87 -351 62 -53 108 -70 188 -70 66 0 82 4 130 31 54
31 120 102 120 130 0 23 -48 35 -135 34 -156 -3 -150 -4 -198 43 -25 23 -54
61 -65 83 -11 22 -36 58 -54 80 -18 22 -40 51 -49 65 -16 24 -17 23 -24 -45z
M6950 4383 c-19 -26 -48 -68 -64 -93 -17 -25 -34 -46 -38 -48 -5 -2 -8 -8 -8
-14 0 -12 -40 -51 -77 -75 -20 -13 -51 -17 -149 -17 -145 -1 -159 -7 -129 -62
22 -41 61 -76 119 -107 32 -17 58 -22 116 -22 114 0 197 51 246 151 22 46 28
73 31 152 2 53 1 116 -4 140 l-8 44 -35 -49z M5020 879 c-805 -24 -1390 -147
-1356 -284 27 -106 433 -200 1061 -247 227 -17 979 -17 1205 0 607 45 1002
133 1059 234 14 25 14 29 -5 55 -95 128 -615 219 -1391 243 -169 5 -312 9
-318 8 -5 -1 -120 -5 -255 -9z m618 -265 c30 -3 52 -8 49 -10 -7 -7 -273 -27
-357 -27 -41 0 -133 5 -205 11 -71 6 -134 11 -139 12 -5 0 -6 3 -2 8 18 17
496 22 654 6z"/>
</g>
</svg>
