<?xml version="1.0" standalone="no"?>
<!DOCTYPE svg PUBLIC "-//W3C//DTD SVG 20010904//EN"
 "http://www.w3.org/TR/2001/REC-SVG-20010904/DTD/svg10.dtd">
<svg version="1.0" xmlns="http://www.w3.org/2000/svg"
 width="2048.000000pt" height="2048.000000pt" viewBox="0 0 2048.000000 2048.000000"
 preserveAspectRatio="xMidYMid meet">
<metadata>
Created by potrace 1.13, written by Peter Selinger 2001-2015
</metadata>
<g transform="translate(0.000000,2048.000000) scale(0.192120,-0.192120)"
fill="#000000" stroke="none">
<path d="M3917 10320 c-131 -22 -278 -85 -397 -169 -84 -59 -240 -215 -314
-315 -285 -382 -517 -973 -672 -1713 l-27 -133 -53 0 c-29 0 -122 -9 -206 -20
-581 -75 -959 -230 -1058 -435 -32 -65 -33 -168 -3 -235 50 -111 163 -224 341
-342 93 -62 351 -197 467 -243 39 -16 74 -32 79 -37 6 -4 16 -32 23 -60 34
-137 132 -272 236 -324 26 -14 47 -28 47 -32 0 -4 -18 -62 -40 -127 -23 -66
-69 -214 -105 -330 -401 -1317 -475 -2226 -204 -2520 90 -98 278 -194 469
-241 41 -10 79 -21 83 -25 5 -4 62 -166 127 -360 64 -195 121 -361 124 -370 6
-14 -8 -17 -116 -22 -574 -28 -1111 -384 -1376 -913 -131 -261 -182 -506 -182
-876 l0 -148 4172 0 4171 0 -6 223 c-4 157 -12 257 -26 341 -64 367 -262 720
-538 962 -284 248 -639 394 -995 411 -71 3 -128 8 -128 11 0 3 55 170 121 372
l122 367 91 23 c206 50 397 147 487 248 223 250 210 918 -35 1900 -67 268
-164 603 -250 868 -36 111 -66 204 -66 208 0 3 21 17 48 30 26 13 70 48 99 76
74 76 116 161 147 302 5 22 23 35 108 76 460 219 696 518 624 788 -67 251
-348 399 -803 422 -76 4 -183 5 -238 2 -55 -3 -101 -5 -102 -4 -2 0 -12 45
-23 100 -43 207 -213 753 -320 1023 -259 658 -659 1102 -1095 1217 -50 13
-106 18 -195 18 -109 0 -145 -4 -285 -37 -268 -62 -401 -78 -675 -84 -288 -6
-384 2 -1028 83 -422 53 -527 60 -625 44z m661 -289 c582 -73 620 -76 917 -76
305 0 407 10 740 76 233 45 331 50 449 19 243 -62 477 -263 681 -586 110 -176
182 -327 315 -670 57 -147 80 -180 193 -269 42 -32 74 -62 71 -66 -13 -22
-595 -186 -894 -253 -459 -102 -1213 -160 -2070 -160 -710 0 -1142 29 -1555
105 -140 26 -655 144 -719 165 l-48 16 85 82 c100 96 116 125 187 341 214 651
498 1090 805 1248 183 94 283 97 843 28z m3254 -1888 c9 -10 26 -47 38 -83 12
-36 31 -84 41 -107 11 -24 19 -63 19 -88 0 -41 -3 -47 -37 -69 -112 -73 -671
-210 -1129 -275 -508 -73 -978 -107 -1614 -117 -844 -14 -1595 45 -2045 161
-209 53 -346 105 -392 148 -20 17 -23 31 -23 89 0 74 8 95 68 185 28 42 40 53
62 53 15 0 125 -22 246 -49 651 -146 982 -176 1914 -176 593 0 740 5 1195 41
599 46 807 85 1525 280 104 28 113 29 132 7z m-5347 -253 c-8 -41 -14 -102
-14 -136 -2 -181 158 -288 595 -398 397 -100 827 -146 1536 -166 309 -9 944
-1 1138 15 36 3 137 10 225 15 559 37 1073 113 1521 224 445 111 598 177 662
286 24 40 27 55 25 124 l-2 79 57 -57 c67 -67 161 -126 202 -126 16 0 35 -6
42 -13 7 -8 47 -17 88 -21 112 -11 263 -43 336 -72 79 -32 144 -78 144 -103 0
-10 9 -26 20 -36 15 -14 20 -31 20 -72 0 -126 -95 -233 -331 -373 -79 -47
-162 -103 -185 -126 -57 -57 -88 -139 -80 -216 l7 -56 -103 -40 c-654 -252
-1684 -411 -2858 -442 -464 -12 -898 -12 -1085 0 -594 39 -1129 126 -1672 271
-188 50 -467 139 -555 178 l-48 20 6 44 c9 65 -17 144 -67 200 -34 40 -76 65
-272 164 -222 112 -235 121 -310 196 -80 80 -97 107 -97 158 0 23 9 35 40 57
21 15 39 35 40 44 1 46 274 138 573 193 76 14 143 29 150 35 7 6 41 32 77 59
36 26 92 75 125 108 33 33 61 59 62 59 0 -1 -5 -35 -12 -76z m5301 -1704 c3
-8 -14 -50 -37 -93 -24 -43 -48 -89 -55 -103 -13 -25 -32 -100 -98 -375 -64
-271 -123 -409 -201 -477 -11 -10 -42 -26 -70 -37 -98 -37 -188 -46 -460 -46
-524 0 -685 52 -806 258 -52 87 -81 169 -125 342 -41 161 -55 292 -33 299 8 3
93 10 189 16 530 33 1138 112 1535 199 157 35 154 35 161 17z m-4806 -26 c60
-18 427 -90 612 -120 305 -50 740 -92 1065 -102 45 -2 85 -6 89 -10 50 -50
-46 -448 -149 -623 -73 -122 -134 -168 -269 -204 -132 -35 -252 -46 -528 -46
-426 0 -526 31 -613 188 -45 80 -96 243 -146 465 -47 208 -68 277 -109 358
-47 94 -48 104 -15 104 15 0 44 -5 63 -10z m-313 -113 c32 -35 64 -77 71 -93
6 -16 30 -117 52 -224 112 -534 222 -776 389 -859 151 -75 437 -108 773 -91
428 23 587 69 730 212 154 154 233 341 328 775 47 218 62 248 142 287 115 56
251 56 365 0 80 -39 96 -70 138 -267 94 -439 178 -640 333 -795 143 -143 303
-190 730 -212 332 -17 628 17 772 90 164 83 274 320 380 816 28 131 56 252 62
268 13 33 129 161 161 178 20 10 20 8 14 -193 -14 -438 -75 -815 -196 -1199
-45 -144 -154 -417 -173 -436 -16 -15 -255 -74 -463 -113 -376 -72 -698 -106
-1129 -121 -160 -6 -419 -15 -576 -21 -157 -5 -303 -8 -325 -5 -22 3 -220 10
-440 16 -539 14 -752 29 -1109 81 -337 48 -759 143 -783 174 -18 25 -126 303
-162 418 -129 408 -201 874 -201 1298 l0 120 28 -20 c16 -11 56 -49 89 -84z
m-293 -900 c27 -40 56 -187 56 -280 0 -99 11 -86 -107 -124 -35 -11 -65 -18
-68 -15 -3 3 -5 42 -5 87 0 87 30 222 68 308 23 53 35 58 56 24z m5960 -11
c34 -71 57 -202 54 -303 -3 -81 -6 -97 -18 -94 -8 2 -42 10 -75 19 -33 8 -66
22 -72 30 -40 50 37 382 87 382 4 0 15 -15 24 -34z m-5580 -522 c4 -9 5 -19 2
-21 -2 -2 -76 -17 -164 -33 -195 -34 -263 -53 -287 -80 -23 -25 -15 -44 34
-77 66 -45 351 -134 650 -203 95 -22 207 -51 250 -64 353 -114 636 -183 906
-220 130 -18 202 -11 320 29 119 40 200 55 300 54 l90 0 -91 -23 c-207 -51
-279 -120 -228 -219 10 -18 152 -169 318 -337 427 -433 566 -606 566 -704 0
-53 -119 -124 -540 -325 -523 -248 -651 -326 -666 -406 -16 -89 66 -510 242
-1240 41 -170 76 -318 78 -327 4 -16 2 -16 -28 -1 -17 9 -47 26 -68 39 -20 13
-69 40 -110 61 l-73 38 -1372 3 c-1206 2 -1373 4 -1373 17 0 11 -12 15 -46 15
l-46 0 4 178 c4 168 6 182 37 277 124 373 390 682 724 840 133 63 253 101 417
130 80 15 164 35 188 45 52 23 151 115 192 180 26 41 30 55 30 121 0 84 -17
152 -92 374 -103 304 -140 351 -287 364 l-64 6 -24 70 c-71 210 -269 959 -293
1110 -6 39 -16 89 -22 112 -13 53 3 105 42 133 65 46 221 80 456 98 12 1 25
-5 28 -14z m5426 -15 c134 -22 212 -56 241 -103 25 -40 24 -61 -6 -154 -13
-42 -58 -214 -99 -382 -71 -287 -181 -687 -224 -810 -17 -49 -22 -55 -45 -52
-38 5 -107 -16 -149 -45 -57 -39 -84 -90 -149 -281 -129 -381 -136 -449 -61
-560 49 -71 122 -133 184 -156 24 -9 98 -25 165 -36 544 -91 936 -388 1130
-858 72 -174 85 -236 90 -415 5 -154 5 -157 -16 -157 -12 0 -21 -6 -21 -15 0
-13 -236 -15 -2060 -15 -1475 0 -2073 -3 -2107 -11 -69 -16 -127 -44 -187 -89
-29 -22 -58 -40 -63 -40 -18 0 -105 338 -223 870 -72 325 -110 540 -113 642
-2 69 0 79 23 103 64 69 181 135 600 335 481 230 580 290 580 351 0 58 -73
172 -212 331 -40 46 -206 218 -369 383 -323 327 -337 346 -309 415 17 41 93
84 185 106 l70 16 76 -30 c158 -63 182 -67 439 -65 129 1 237 -2 240 -7 6 -10
486 5 635 20 539 54 1092 191 1255 311 14 11 86 35 160 55 182 48 369 109 458
149 55 26 72 38 72 54 0 38 -69 60 -320 106 -79 14 -146 28 -148 29 -1 2 0 11
4 20 5 14 17 16 83 10 42 -3 128 -15 191 -25z M5163 4769 c-43 -9 -80 -36 -97
-74 -22 -45 -20 -80 5 -125 37 -65 54 -70 259 -70 205 0 222 5 259 70 25 45
27 80 5 126 -31 65 -63 75 -243 77 -88 1 -173 -1 -188 -4z"/>
</g>
</svg>
