<?xml version="1.0" standalone="no"?>
<!DOCTYPE svg PUBLIC "-//W3C//DTD SVG 20010904//EN"
 "http://www.w3.org/TR/2001/REC-SVG-20010904/DTD/svg10.dtd">
<svg version="1.0" xmlns="http://www.w3.org/2000/svg"
 width="2048.000000pt" height="2048.000000pt" viewBox="0 0 2048.000000 2048.000000"
 preserveAspectRatio="xMidYMid meet">
<metadata>
Created by potrace 1.13, written by Peter Selinger 2001-2015
</metadata>
<g transform="translate(0.000000,2048.000000) scale(0.192120,-0.192120)"
fill="#000000" stroke="none">
<path d="M3917 10320 c-131 -22 -278 -85 -397 -169 -84 -59 -240 -215 -314
-315 -285 -382 -517 -973 -672 -1713 l-27 -133 -53 0 c-29 0 -122 -9 -206 -20
-581 -75 -959 -230 -1058 -435 -32 -65 -33 -168 -3 -235 50 -111 163 -224 341
-342 93 -62 351 -197 467 -243 39 -16 74 -32 79 -37 6 -4 16 -32 23 -60 34
-137 132 -272 236 -324 26 -14 47 -28 47 -32 0 -4 -18 -62 -40 -127 -23 -66
-69 -214 -105 -330 -401 -1317 -475 -2226 -204 -2520 90 -98 278 -194 469
-241 41 -10 79 -21 83 -25 5 -4 62 -166 127 -360 64 -195 121 -361 124 -370 6
-14 -8 -17 -116 -22 -574 -28 -1111 -384 -1376 -913 -131 -261 -182 -506 -182
-876 l0 -148 4172 0 4171 0 -6 223 c-4 157 -12 257 -26 341 -64 367 -262 720
-538 962 -284 248 -639 394 -995 411 -71 3 -128 8 -128 11 0 3 55 170 121 372
l122 367 91 23 c206 50 397 147 487 248 223 250 210 918 -35 1900 -67 268
-164 603 -250 868 -36 111 -66 204 -66 208 0 3 21 17 48 30 26 13 70 48 99 76
74 76 116 161 147 302 5 22 23 35 108 76 460 219 696 518 624 788 -67 251
-348 399 -803 422 -76 4 -183 5 -238 2 -55 -3 -101 -5 -102 -4 -2 0 -12 45
-23 100 -43 207 -213 753 -320 1023 -259 658 -659 1102 -1095 1217 -50 13
-106 18 -195 18 -109 0 -145 -4 -285 -37 -268 -62 -401 -78 -675 -84 -288 -6
-384 2 -1028 83 -422 53 -527 60 -625 44z m661 -289 c582 -73 620 -76 917 -76
305 0 407 10 740 76 233 45 331 50 449 19 243 -62 477 -263 681 -586 110 -176
182 -327 315 -670 57 -147 80 -180 193 -269 42 -32 74 -62 71 -66 -13 -22
-595 -186 -894 -253 -459 -102 -1213 -160 -2070 -160 -710 0 -1142 29 -1555
105 -140 26 -655 144 -719 165 l-48 16 85 82 c100 96 116 125 187 341 214 651
498 1090 805 1248 183 94 283 97 843 28z m3254 -1888 c9 -10 26 -47 38 -83 12
-36 31 -84 41 -107 11 -24 19 -63 19 -88 0 -41 -3 -47 -37 -69 -112 -73 -671
-210 -1129 -275 -508 -73 -978 -107 -1614 -117 -844 -14 -1595 45 -2045 161
-209 53 -346 105 -392 148 -20 17 -23 31 -23 89 0 74 8 95 68 185 28 42 40 53
62 53 15 0 125 -22 246 -49 651 -146 982 -176 1914 -176 593 0 740 5 1195 41
599 46 807 85 1525 280 104 28 113 29 132 7z m-5347 -253 c-8 -41 -14 -102
-14 -136 -2 -181 158 -288 595 -398 397 -100 827 -146 1536 -166 309 -9 944
-1 1138 15 36 3 137 10 225 15 559 37 1073 113 1521 224 445 111 598 177 662
286 24 40 27 55 25 124 l-2 79 57 -57 c67 -67 161 -126 202 -126 16 0 35 -6
42 -13 7 -8 47 -17 88 -21 112 -11 263 -43 336 -72 79 -32 144 -78 144 -103 0
-10 9 -26 20 -36 15 -14 20 -31 20 -72 0 -126 -95 -233 -329 -372 -170 -101
-221 -144 -256 -215 -22 -45 -26 -66 -24 -121 l2 -67 -41 -18 c-72 -32 -302
-110 -417 -141 -831 -223 -1810 -329 -3060 -329 -462 0 -739 18 -1160 75 -476
65 -1037 193 -1403 320 -219 76 -202 65 -202 139 0 50 -6 75 -31 124 -16 34
-44 72 -60 86 -16 14 -134 78 -262 143 -222 113 -235 121 -310 196 -80 80 -97
107 -97 158 0 23 9 35 40 57 21 15 39 35 40 44 1 46 274 138 573 193 76 14
143 29 150 35 7 6 41 32 77 59 36 26 92 75 125 108 33 33 61 59 62 59 0 -1 -5
-35 -12 -76z m5360 -1690 c4 -6 -8 -36 -26 -68 -80 -142 -97 -184 -128 -318
-112 -472 -159 -603 -251 -695 -84 -84 -230 -113 -570 -113 -428 1 -645 47
-759 163 -57 58 -118 161 -158 266 -58 153 -120 430 -109 487 l6 34 209 12
c545 32 1168 112 1586 206 168 37 191 40 200 26z m-4605 -96 c413 -82 820
-135 1190 -154 113 -6 242 -13 287 -16 l82 -6 7 -44 c12 -80 -72 -407 -139
-539 -112 -224 -221 -291 -527 -324 -360 -39 -726 -15 -868 58 -116 59 -197
250 -293 691 -33 155 -51 207 -105 312 -36 72 -41 94 -22 100 7 3 58 -6 113
-19 55 -13 179 -40 275 -59z m-568 -61 c64 -69 71 -87 108 -263 73 -356 128
-539 207 -693 79 -152 147 -211 298 -256 207 -61 618 -73 955 -26 231 33 329
74 442 187 150 150 232 342 323 753 53 242 66 269 147 309 115 56 251 56 365
0 79 -38 96 -70 138 -264 44 -203 59 -263 91 -365 103 -324 277 -528 498 -585
306 -78 854 -85 1130 -14 260 67 374 272 506 909 27 130 50 214 65 241 13 22
55 69 92 104 l68 64 3 -94 c4 -118 -14 -412 -34 -568 -33 -255 -91 -518 -164
-745 -16 -52 -30 -97 -30 -101 0 -3 20 -6 44 -6 25 0 98 -7 163 -15 206 -27
298 -60 333 -118 26 -42 25 -67 -5 -157 -14 -41 -54 -195 -90 -342 -71 -296
-145 -567 -206 -760 l-40 -128 -46 0 c-77 0 -171 -59 -208 -130 -9 -16 -42
-110 -76 -207 -129 -382 -136 -450 -61 -561 49 -71 122 -133 184 -156 24 -9
98 -25 165 -36 544 -91 936 -388 1130 -858 72 -174 85 -236 90 -414 5 -155 5
-158 -16 -158 -12 0 -21 -6 -21 -15 0 -13 -236 -15 -2060 -15 -1475 0 -2073
-3 -2107 -11 -69 -16 -127 -44 -187 -89 -29 -22 -58 -40 -63 -40 -18 0 -105
338 -223 870 -72 325 -110 540 -113 642 -2 69 0 79 23 103 64 69 181 135 600
335 481 230 580 290 580 351 0 58 -73 172 -212 331 -40 46 -206 218 -369 383
-249 252 -299 308 -310 343 -10 36 -10 48 3 75 29 62 158 111 369 142 174 25
501 46 704 45 105 0 260 4 345 10 85 5 247 15 360 20 571 29 1175 135 1594
280 223 77 262 111 172 151 -66 29 -448 100 -462 86 -3 -3 -30 -65 -59 -138
-30 -73 -60 -138 -67 -145 -25 -23 -434 -113 -702 -154 -356 -54 -636 -74
-1236 -91 -223 -6 -408 -13 -411 -15 -4 -2 -128 1 -275 6 -148 5 -402 14 -564
20 -501 17 -866 60 -1295 151 -188 39 -325 75 -338 88 -5 5 -34 70 -63 143
-29 73 -58 134 -63 136 -15 5 -260 -35 -359 -58 -99 -24 -142 -44 -142 -69 0
-43 80 -85 286 -150 420 -131 939 -219 1479 -250 145 -9 858 -31 979 -31 53 0
23 -8 -94 -24 -217 -31 -365 -82 -405 -138 -20 -29 -19 -71 1 -111 10 -18 152
-169 318 -337 427 -433 566 -606 566 -704 0 -53 -119 -124 -540 -325 -523
-248 -651 -326 -666 -406 -16 -89 66 -510 242 -1240 41 -170 76 -318 78 -327
4 -16 2 -16 -28 -1 -17 9 -47 26 -68 39 -20 13 -69 40 -110 61 l-73 38 -1372
3 c-1206 2 -1373 4 -1373 17 0 11 -12 15 -46 15 l-46 0 4 177 c4 169 6 183 37
278 124 373 390 682 724 840 133 63 253 101 417 130 80 15 164 35 188 45 52
23 151 115 192 180 26 41 30 55 30 121 0 84 -16 151 -92 374 -72 216 -109 289
-164 328 -57 40 -98 55 -151 56 l-42 1 -40 126 c-83 258 -250 908 -287 1116
-16 94 -16 97 3 130 39 67 160 106 408 129 72 7 131 14 133 15 2 1 -15 60 -37
130 -124 396 -190 837 -191 1262 l0 124 38 -30 c21 -17 58 -52 84 -79z m-245
-818 c63 -236 88 -419 63 -466 -7 -12 -21 -19 -39 -19 -27 0 -156 -30 -195
-46 -18 -7 -19 -2 -13 112 7 147 65 388 118 486 21 39 43 16 66 -67z m5876 53
c46 -102 97 -348 97 -474 0 -57 -2 -104 -4 -104 -3 0 -17 5 -31 10 -15 6 -68
17 -118 25 -50 8 -94 20 -99 27 -14 23 -8 98 17 211 40 176 76 311 87 325 17
21 35 14 51 -20z M5118 4753 c-15 -10 -37 -36 -49 -58 -29 -54 -20 -103 26
-153 l33 -37 197 -3 196 -3 39 38 c51 52 61 101 31 158 -37 70 -53 75 -263 75
-154 0 -187 -3 -210 -17z"/>
</g>
</svg>
