<?xml version="1.0" standalone="no"?>
<!DOCTYPE svg PUBLIC "-//W3C//DTD SVG 20010904//EN"
 "http://www.w3.org/TR/2001/REC-SVG-20010904/DTD/svg10.dtd">
<svg version="1.0" xmlns="http://www.w3.org/2000/svg"
 width="2048.000000pt" height="2048.000000pt" viewBox="0 0 2048.000000 2048.000000"
 preserveAspectRatio="xMidYMid meet">
<metadata>
Created by potrace 1.13, written by Peter Selinger 2001-2015
</metadata>
<g transform="translate(0.000000,2048.000000) scale(0.192120,-0.192120)"
fill="#000000" stroke="none">
<path d="M3917 10320 c-131 -22 -278 -85 -397 -169 -84 -59 -240 -215 -314
-315 -285 -382 -517 -973 -672 -1713 l-27 -133 -53 0 c-29 0 -122 -9 -206 -20
-581 -75 -959 -230 -1058 -435 -32 -65 -33 -168 -3 -235 86 -190 377 -402 798
-581 l110 -46 7 -54 c14 -112 60 -202 138 -272 28 -25 67 -51 88 -58 20 -6 41
-15 46 -19 4 -5 -1 -37 -13 -72 -34 -102 -51 -212 -51 -326 0 -173 40 -281
138 -374 53 -50 138 -105 148 -95 2 2 -3 47 -11 100 -18 125 -37 446 -33 562
l3 89 73 -69 c40 -38 84 -87 97 -109 14 -26 36 -106 60 -221 114 -551 225
-800 394 -884 151 -75 437 -108 773 -91 428 23 587 69 730 212 154 154 233
341 328 775 48 219 62 248 143 287 114 56 250 56 365 0 79 -39 95 -70 137
-267 94 -439 178 -640 333 -795 143 -143 303 -190 730 -212 332 -17 628 17
772 90 164 83 275 321 379 816 28 131 60 258 72 281 12 23 53 72 93 110 l71
68 3 -85 c5 -111 -15 -433 -33 -557 -8 -53 -13 -98 -11 -100 10 -10 95 44 147
94 63 59 110 145 128 231 25 121 8 332 -39 468 -11 31 -20 60 -20 64 0 4 22
17 49 28 60 25 133 90 168 149 32 55 63 154 63 201 0 21 4 42 8 48 4 6 54 33
112 61 461 219 698 518 626 789 -67 251 -348 399 -803 422 -76 4 -183 5 -238
2 -55 -3 -101 -5 -102 -4 -2 0 -12 44 -23 97 -42 208 -213 756 -320 1026 -259
658 -659 1102 -1095 1217 -50 13 -106 18 -195 18 -109 0 -145 -4 -285 -37
-268 -62 -401 -78 -675 -84 -288 -6 -384 2 -1028 83 -422 53 -527 60 -625 44z
m661 -289 c582 -73 620 -76 917 -76 305 0 407 10 740 76 233 45 331 50 449 19
243 -62 477 -263 681 -586 110 -176 182 -327 315 -670 57 -147 80 -180 193
-269 42 -32 74 -62 71 -66 -15 -25 -687 -211 -973 -270 -451 -93 -1466 -160
-2202 -145 -610 12 -990 42 -1344 107 -140 26 -655 144 -719 165 l-48 16 85
82 c100 96 116 125 187 341 214 651 498 1090 805 1248 183 94 283 97 843 28z
m3254 -1888 c9 -10 26 -47 38 -83 12 -36 31 -84 41 -107 11 -24 19 -63 19 -87
0 -38 -4 -48 -30 -66 -49 -35 -173 -75 -429 -139 -656 -165 -1355 -242 -2321
-257 -844 -14 -1595 45 -2045 161 -209 53 -346 105 -392 148 -20 17 -23 31
-23 89 0 74 8 95 68 185 27 42 40 53 61 53 15 0 137 -25 272 -55 408 -91 644
-124 1104 -157 242 -17 1319 -17 1590 0 480 31 809 63 1055 102 208 34 375 74
860 206 104 28 113 29 132 7z m-5347 -253 c-8 -41 -14 -102 -14 -136 -2 -181
158 -288 595 -398 397 -100 827 -146 1536 -166 309 -9 944 -1 1138 15 36 3
137 10 225 15 559 37 1073 113 1521 224 445 111 598 177 662 286 24 40 27 55
25 124 l-2 79 57 -57 c67 -67 161 -126 202 -126 16 0 35 -6 42 -13 7 -8 47
-17 88 -21 112 -11 263 -43 336 -72 79 -32 144 -78 144 -103 0 -10 9 -26 20
-36 15 -14 20 -31 20 -72 0 -126 -95 -233 -329 -372 -177 -105 -222 -143 -251
-216 -18 -45 -22 -68 -18 -120 l6 -64 -102 -40 c-652 -251 -1683 -410 -2856
-441 -464 -12 -898 -12 -1085 0 -594 39 -1129 126 -1672 271 -184 49 -465 139
-552 176 l-43 19 -2 74 c-1 51 -8 86 -20 110 -45 85 -60 95 -309 222 -232 118
-245 126 -320 201 -80 80 -97 107 -97 158 0 23 9 35 40 57 21 15 39 35 40 44
1 46 274 138 573 193 76 14 143 29 150 35 7 6 41 32 77 59 36 26 92 75 125
108 33 33 61 59 62 59 0 -1 -5 -35 -12 -76z m5301 -1704 c3 -8 -14 -50 -37
-93 -24 -43 -48 -89 -55 -103 -13 -25 -32 -100 -98 -375 -64 -271 -123 -409
-201 -477 -11 -10 -42 -26 -70 -37 -98 -37 -188 -46 -460 -46 -524 0 -685 52
-806 258 -52 87 -81 169 -125 342 -41 161 -55 292 -33 299 8 3 93 10 189 16
530 33 1138 112 1535 199 157 35 154 35 161 17z m-4806 -26 c60 -18 427 -90
612 -120 305 -50 740 -92 1065 -102 45 -2 85 -6 89 -10 50 -50 -46 -448 -149
-623 -73 -122 -134 -168 -269 -204 -131 -35 -252 -46 -528 -46 -426 0 -526 31
-613 188 -45 80 -96 243 -146 465 -47 208 -68 277 -109 358 -47 94 -48 104
-15 104 15 0 44 -5 63 -10z M2616 5298 c37 -220 119 -538 139 -538 27 0 50 42
49 89 -1 47 -97 358 -130 422 -31 61 -66 77 -58 27z M8007 5298 c-20 -27 -128
-335 -151 -430 -6 -29 4 -61 29 -93 15 -19 17 -19 29 -2 16 21 69 217 101 372
41 198 40 217 -8 153z M5163 4769 c-43 -9 -80 -36 -97 -74 -22 -45 -20 -80 5
-125 37 -65 54 -70 259 -70 205 0 222 5 259 70 25 45 27 80 5 126 -31 65 -63
75 -243 77 -88 1 -173 -1 -188 -4z M7868 4611 c-49 -131 -115 -287 -127 -301
-29 -33 -447 -124 -801 -174 -262 -38 -470 -55 -794 -66 -160 -6 -419 -15
-576 -21 -157 -5 -303 -8 -325 -5 -22 3 -218 10 -435 16 -547 14 -758 30
-1114 81 -343 49 -759 143 -783 175 -8 10 -39 85 -71 166 -67 172 -37 158
-260 128 -252 -34 -351 -79 -355 -160 -3 -88 109 -565 248 -1050 55 -193 330
-1043 361 -1116 3 -8 -34 -13 -118 -17 -574 -28 -1111 -384 -1376 -913 -131
-261 -182 -506 -182 -876 l0 -148 4172 0 4171 0 -6 223 c-4 157 -12 257 -26
341 -64 367 -262 720 -538 962 -284 248 -639 394 -995 411 -71 3 -128 9 -128
12 0 4 47 148 105 321 192 574 300 944 415 1417 33 137 71 284 85 329 29 95
30 96 9 139 -31 66 -131 99 -402 133 l-144 18 -10 -25z m437 -233 c-4 -13 -38
-72 -75 -133 -99 -159 -99 -159 -190 -505 -59 -224 -142 -501 -275 -915 -119
-371 -128 -405 -123 -485 3 -57 9 -73 46 -128 49 -71 122 -133 184 -156 24 -9
98 -25 165 -36 544 -91 936 -388 1130 -858 72 -174 85 -236 90 -415 5 -154 5
-157 -16 -157 -12 0 -21 -6 -21 -15 0 -13 -236 -15 -2060 -15 -1475 0 -2073
-3 -2107 -11 -69 -16 -127 -44 -187 -89 -29 -22 -58 -40 -63 -40 -18 0 -105
338 -223 870 -72 325 -110 540 -113 642 -2 69 0 79 23 103 64 69 181 135 600
335 481 230 580 290 580 351 0 58 -73 172 -212 331 -40 46 -206 218 -369 383
-323 327 -337 346 -309 415 17 41 93 84 186 106 l71 17 99 -46 c55 -25 126
-51 159 -57 39 -7 170 -10 368 -8 240 2 307 0 307 -9 0 -16 -10 -16 225 -2
336 19 728 77 970 145 50 14 100 27 112 30 98 20 337 122 401 171 20 15 76 36
145 54 147 39 326 93 407 123 81 31 83 31 75 4z m-5818 -38 c134 -46 320 -98
498 -139 72 -17 240 -66 375 -111 306 -101 605 -179 612 -160 2 5 62 0 133
-11 200 -29 234 -28 345 16 123 48 204 65 315 64 l90 0 -91 -23 c-207 -51
-279 -120 -228 -219 10 -18 152 -169 318 -337 427 -433 566 -606 566 -704 0
-53 -119 -124 -540 -325 -523 -248 -651 -326 -666 -406 -16 -89 66 -510 242
-1240 41 -170 76 -318 78 -327 4 -16 2 -16 -28 -1 -17 9 -47 26 -68 39 -20 13
-69 40 -110 61 l-73 38 -1372 3 c-1206 2 -1373 4 -1373 17 0 11 -12 15 -46 15
l-46 0 4 178 c4 168 6 182 37 277 124 373 390 682 724 840 133 63 253 101 417
130 80 15 164 35 188 45 52 23 151 115 192 180 26 41 30 55 30 121 0 89 -11
129 -140 529 -140 433 -170 532 -249 827 -81 300 -101 355 -175 473 -75 121
-93 152 -101 179 -6 21 -5 23 11 17 11 -4 69 -25 131 -46z"/>
</g>
</svg>
