<?xml version="1.0" standalone="no"?>
<!DOCTYPE svg PUBLIC "-//W3C//DTD SVG 20010904//EN"
 "http://www.w3.org/TR/2001/REC-SVG-20010904/DTD/svg10.dtd">
<svg version="1.0" xmlns="http://www.w3.org/2000/svg"
 width="2048.000000pt" height="2048.000000pt" viewBox="0 0 2048.000000 2048.000000"
 preserveAspectRatio="xMidYMid meet">
<metadata>
Created by potrace 1.13, written by Peter Selinger 2001-2015
</metadata>
<g transform="translate(0.000000,2048.000000) scale(0.192120,-0.192120)"
fill="#000000" stroke="none">
<path d="M3917 10320 c-131 -22 -278 -85 -397 -169 -84 -59 -240 -215 -314
-315 -285 -382 -517 -973 -672 -1713 l-27 -133 -53 0 c-29 0 -122 -9 -206 -20
-581 -75 -959 -230 -1058 -435 -32 -65 -33 -168 -3 -235 86 -190 377 -402 798
-581 l110 -46 7 -54 c14 -112 60 -202 138 -272 28 -25 67 -51 88 -58 20 -6 41
-15 46 -19 4 -5 -1 -37 -13 -72 -34 -102 -51 -212 -51 -326 0 -173 40 -281
138 -374 32 -31 78 -66 102 -78 25 -12 46 -23 47 -24 1 -1 9 -46 18 -101 34
-214 144 -625 167 -625 13 0 71 30 91 48 28 25 20 81 -33 225 -27 74 -66 190
-86 258 -48 164 -66 197 -115 218 -21 9 -41 23 -44 31 -14 43 -36 300 -42 483
-4 147 -10 207 -18 207 -6 0 -22 11 -35 25 -33 35 -19 31 43 -11 71 -49 154
-131 182 -179 15 -26 36 -105 60 -220 114 -551 225 -800 394 -884 151 -75 437
-108 773 -91 427 22 587 69 730 212 154 154 233 341 328 775 48 219 62 248
143 287 114 56 250 56 365 0 80 -39 95 -69 142 -287 95 -434 174 -621 328
-775 143 -143 303 -190 730 -212 332 -17 628 17 772 90 164 83 275 320 379
816 28 131 58 254 66 272 21 47 107 135 182 187 35 25 63 41 63 36 0 -11 -44
-51 -57 -51 -6 0 -12 -75 -16 -202 -6 -183 -28 -435 -43 -480 -3 -10 -11 -18
-18 -18 -21 0 -65 -39 -83 -73 -9 -18 -35 -95 -58 -172 -24 -77 -59 -185 -80
-240 -69 -182 -68 -215 10 -256 24 -13 46 -21 48 -19 10 11 77 233 106 350 16
69 40 181 52 250 11 69 22 125 22 126 214 118 287 240 287 479 0 116 -11 185
-46 304 -14 46 -22 87 -17 91 4 4 25 13 46 20 49 16 136 96 170 157 31 58 57
151 57 205 l0 37 113 54 c468 223 706 521 633 793 -67 251 -348 399 -803 422
-76 4 -183 5 -238 2 -55 -3 -101 -5 -102 -4 -2 0 -12 44 -23 97 -42 208 -213
756 -320 1026 -259 658 -659 1102 -1095 1217 -50 13 -106 18 -195 18 -109 0
-145 -4 -285 -37 -268 -62 -401 -78 -675 -84 -288 -6 -384 2 -1028 83 -422 53
-527 60 -625 44z m661 -289 c582 -73 620 -76 917 -76 305 0 407 10 740 76 233
45 331 50 449 19 243 -62 477 -263 681 -586 110 -176 186 -337 315 -673 54
-139 76 -170 177 -251 43 -35 82 -67 87 -71 14 -13 -39 -32 -285 -103 -437
-127 -707 -188 -999 -226 -1000 -130 -2426 -129 -3178 1 -167 29 -682 146
-776 176 l-48 15 85 82 c100 96 116 125 187 341 214 651 498 1090 805 1248
183 94 283 97 843 28z m3254 -1888 c9 -10 26 -47 38 -83 12 -36 31 -84 41
-107 11 -24 19 -63 19 -88 0 -41 -3 -47 -37 -69 -103 -68 -662 -206 -1093
-270 -567 -85 -1099 -120 -1845 -120 -986 -1 -1629 69 -2070 224 -178 63 -195
78 -195 172 0 74 8 95 67 186 43 64 41 64 251 16 535 -122 819 -159 1412 -185
296 -13 1095 -7 1380 10 818 51 1157 102 1760 270 118 33 224 60 236 60 11 1
28 -7 36 -16z m-5347 -253 c-32 -177 -9 -266 89 -340 150 -114 518 -222 961
-284 623 -88 1673 -105 2505 -40 586 45 1021 112 1492 230 338 85 495 145 573
221 58 56 70 88 68 177 l-2 79 57 -57 c67 -67 161 -126 202 -126 16 0 35 -6
42 -13 7 -8 47 -17 88 -21 112 -11 263 -43 336 -72 79 -32 144 -78 144 -103 0
-10 9 -26 20 -36 31 -28 27 -111 -7 -182 -41 -84 -134 -162 -327 -277 -179
-106 -223 -145 -263 -233 -19 -42 -24 -66 -21 -110 l3 -56 -65 -27 c-36 -15
-110 -42 -165 -60 l-99 -34 59 -12 c82 -17 111 -56 86 -118 -9 -23 -16 -14
-26 32 -8 38 -32 56 -99 76 -44 14 -54 13 -139 -10 -686 -183 -1485 -286
-2432 -314 -416 -12 -931 -12 -1120 0 -604 40 -1162 131 -1705 280 -111 30
-195 48 -210 45 -14 -3 -20 -2 -13 3 8 5 -18 18 -70 36 -45 16 -116 42 -157
58 l-75 28 -1 62 c0 48 -7 75 -26 113 -47 89 -94 124 -348 251 -226 114 -238
121 -313 196 -80 81 -97 108 -97 159 0 23 9 35 40 57 21 15 39 35 40 44 1 46
274 138 573 193 76 14 143 29 150 35 7 6 41 32 77 59 36 26 92 75 125 108 33
33 61 59 62 59 0 -1 -5 -35 -12 -76z m-11 -1409 c-25 -15 -34 -31 -44 -72 -10
-43 -15 -50 -21 -34 -4 11 -8 34 -8 52 -1 37 37 73 78 73 l26 0 -31 -19z
m5331 -291 c4 -6 -6 -34 -20 -63 -15 -28 -40 -78 -56 -111 -29 -57 -42 -105
-109 -386 -77 -330 -154 -487 -263 -538 -151 -71 -680 -83 -978 -22 -183 38
-278 111 -361 280 -73 147 -167 510 -149 576 l7 29 185 12 c572 37 1163 114
1564 202 146 32 171 35 180 21z m-4825 -31 c476 -114 1249 -218 1630 -219 117
0 158 -8 166 -32 13 -41 4 -118 -29 -248 -48 -186 -91 -298 -147 -383 -85
-129 -156 -176 -313 -207 -259 -52 -706 -54 -901 -4 -196 50 -254 156 -376
682 -45 197 -58 239 -100 322 -28 56 -39 110 -22 110 4 0 45 -9 92 -21z M5116
4750 c-83 -54 -85 -157 -6 -224 l32 -26 190 0 190 0 38 38 c51 51 61 101 31
157 -37 70 -53 75 -263 75 -164 0 -186 -2 -212 -20z M2577 4610 c-244 -32
-346 -79 -350 -160 -3 -88 109 -565 248 -1050 55 -193 330 -1043 361 -1116 3
-8 -34 -13 -118 -17 -574 -28 -1111 -384 -1376 -913 -131 -261 -182 -506 -182
-876 l0 -148 4172 0 4171 0 -6 223 c-4 157 -12 257 -26 341 -64 367 -262 720
-538 962 -284 248 -639 394 -995 411 -71 3 -128 9 -128 12 0 4 47 148 105 321
192 574 300 944 415 1417 33 137 71 284 85 329 29 95 30 96 9 139 -30 63 -132
99 -377 130 -187 24 -163 38 -231 -136 -32 -82 -66 -158 -75 -169 -25 -29
-385 -111 -698 -159 -347 -54 -621 -75 -1223 -93 -497 -16 -469 -16 -995 0
-557 17 -791 34 -1130 83 -343 50 -759 143 -783 176 -7 10 -38 84 -70 165
l-57 148 -35 -1 c-19 -1 -97 -9 -173 -19z m5728 -232 c-4 -13 -38 -72 -75
-133 -99 -159 -99 -159 -190 -505 -59 -224 -142 -501 -275 -915 -119 -371
-128 -405 -123 -485 3 -57 9 -73 46 -128 49 -71 122 -133 184 -156 24 -9 98
-25 165 -36 544 -91 936 -388 1130 -858 72 -174 85 -236 90 -415 5 -154 5
-157 -16 -157 -12 0 -21 -6 -21 -15 0 -13 -236 -15 -2060 -15 -1475 0 -2073
-3 -2107 -11 -69 -16 -127 -44 -187 -89 -29 -22 -58 -40 -63 -40 -18 0 -105
338 -223 870 -72 325 -110 540 -113 642 -2 69 0 79 23 103 64 69 181 135 600
335 481 230 580 290 580 351 0 58 -73 172 -212 331 -40 46 -206 218 -369 383
-246 249 -299 308 -309 342 -31 102 53 160 293 203 l110 20 51 -30 c95 -54
141 -60 453 -60 182 0 283 -4 283 -10 0 -25 377 0 590 39 172 32 439 100 515
131 64 27 286 83 450 115 214 42 493 116 659 174 61 22 115 40 119 40 5 1 5
-9 2 -21z m-5800 -44 c273 -94 706 -187 1092 -235 107 -13 230 -36 338 -64
201 -52 389 -87 430 -79 17 3 78 18 136 35 59 17 142 33 185 38 101 9 342 2
323 -10 -8 -5 -27 -9 -44 -9 -16 0 -82 -11 -145 -24 -256 -53 -340 -120 -284
-229 10 -18 152 -169 318 -337 427 -433 566 -606 566 -704 0 -53 -119 -124
-540 -325 -523 -248 -651 -326 -666 -406 -16 -89 66 -510 242 -1240 41 -170
76 -318 78 -327 4 -16 2 -16 -28 -1 -17 9 -47 26 -68 39 -20 13 -69 40 -110
61 l-73 38 -1372 3 c-1206 2 -1373 4 -1373 17 0 11 -12 15 -46 15 l-46 0 4
178 c4 168 6 182 37 277 124 373 390 682 724 840 133 63 253 101 417 130 80
15 164 35 188 45 52 23 151 115 192 180 26 41 30 55 30 121 0 89 -11 129 -140
529 -140 433 -170 532 -249 827 -81 300 -101 355 -175 473 -75 121 -93 152
-101 179 -6 21 -5 23 11 17 11 -4 78 -28 149 -52z"/>
</g>
</svg>
