<?xml version="1.0" standalone="no"?>
<!DOCTYPE svg PUBLIC "-//W3C//DTD SVG 20010904//EN"
 "http://www.w3.org/TR/2001/REC-SVG-20010904/DTD/svg10.dtd">
<svg version="1.0" xmlns="http://www.w3.org/2000/svg"
 width="2048.000000pt" height="2048.000000pt" viewBox="0 0 2048.000000 2048.000000"
 preserveAspectRatio="xMidYMid meet">
<metadata>
Created by potrace 1.13, written by Peter Selinger 2001-2015
</metadata>
<g transform="translate(0.000000,2048.000000) scale(0.192120,-0.192120)"
fill="#000000" stroke="none">
<path d="M4899 9995 c-219 -36 -422 -150 -549 -308 -67 -84 -135 -223 -162
-332 -19 -74 -22 -115 -21 -235 3 -318 88 -598 234 -764 44 -49 167 -146 187
-146 35 0 -12 117 -107 264 -76 119 -88 211 -39 313 24 51 61 83 96 83 37 0
109 -80 157 -174 l40 -79 8 34 c27 109 66 210 130 333 l72 140 80 21 c177 48
335 133 511 276 l71 58 95 -74 c52 -40 111 -93 132 -116 49 -57 100 -161 122
-248 10 -39 22 -71 26 -71 4 0 20 28 37 63 55 113 59 292 10 453 -83 273 -269
417 -638 494 -128 27 -373 35 -492 15z m301 -295 c135 -12 180 -24 180 -49 0
-40 -150 -138 -340 -221 -134 -59 -154 -73 -293 -209 l-107 -105 -78 -7 c-42
-4 -84 -10 -93 -14 -22 -8 -29 20 -29 126 0 137 37 218 143 315 100 91 239
147 410 163 45 5 84 9 87 10 3 0 57 -4 120 -9z M5919 8878 c-49 -33 -48 -30
-80 -178 -45 -209 -105 -326 -239 -465 -112 -117 -144 -182 -105 -215 38 -32
230 130 322 272 53 81 93 171 124 278 26 89 45 269 33 308 l-9 30 -46 -30z
M8810 8731 c-14 -4 -41 -16 -60 -26 -33 -17 -227 -155 -283 -201 l-28 -23 28
-8 c15 -4 55 -8 89 -8 52 0 74 7 160 49 158 79 239 74 299 -15 33 -51 33 -106
0 -164 -24 -39 -49 -62 -169 -149 -42 -32 -89 -122 -84 -163 3 -23 9 -21 148
61 80 46 164 100 187 120 126 109 133 317 15 439 -57 59 -124 90 -207 93 -38
2 -81 0 -95 -5z M8205 8427 c-44 -30 -296 -191 -560 -360 l-481 -306 -484 -41
c-267 -22 -495 -42 -508 -44 -13 -2 -26 2 -28 9 -4 9 -51 15 -172 19 -92 4
-188 9 -213 12 l-46 5 -16 91 c-9 50 -19 93 -21 96 -6 5 -276 -95 -288 -106
-4 -4 -15 -114 -24 -244 -10 -131 -21 -238 -24 -238 -3 0 -33 102 -65 228 -32
125 -59 228 -59 229 -1 1 -84 9 -186 17 -102 9 -199 19 -217 21 l-31 6 -17
-119 -18 -118 -446 -112 c-245 -61 -475 -116 -511 -122 -230 -38 -548 -112
-672 -156 -278 -99 -460 -264 -522 -474 -19 -64 -22 -221 -6 -295 17 -78 50
-175 81 -235 25 -51 710 -1162 741 -1203 12 -16 26 -1 144 155 73 95 155 203
183 239 l51 66 -211 449 c-268 569 -271 576 -267 579 2 2 118 24 258 50 140
26 297 55 349 66 52 11 97 17 100 14 6 -7 8 -1029 2 -1180 l-4 -100 159 -87
c238 -130 279 -181 279 -343 0 -81 -3 -95 -29 -143 -33 -60 -76 -101 -139
-134 -35 -19 -58 -23 -133 -23 -87 0 -93 1 -150 37 l-59 37 -7 -37 c-5 -20
-22 -129 -39 -242 -56 -375 -150 -840 -209 -1041 -30 -102 -142 -402 -197
-529 -178 -411 -637 -1231 -1059 -1891 -118 -184 -137 -227 -138 -304 -1 -113
50 -208 143 -266 l45 -29 556 0 556 0 45 28 c98 63 149 154 149 267 0 124 -63
223 -175 276 -56 27 -69 29 -180 29 l-119 0 60 62 c81 85 175 191 403 458 321
374 577 698 714 905 172 260 455 934 633 1508 l36 117 27 -19 c55 -40 588
-570 714 -711 71 -80 169 -197 217 -261 87 -115 88 -118 113 -225 80 -338 116
-933 101 -1669 -5 -231 -8 -449 -7 -485 2 -107 51 -194 142 -252 l45 -28 556
0 556 0 45 28 c138 88 189 254 120 397 -35 73 -78 115 -151 149 -52 25 -63 26
-234 26 l-178 0 6 33 c44 215 96 574 123 852 22 227 25 796 5 955 -31 249 -90
467 -167 620 -132 262 -519 844 -997 1499 l-149 204 44 96 c99 210 158 386
211 622 59 265 95 528 103 757 6 164 7 174 27 182 12 5 203 57 426 116 223 58
484 127 580 153 l175 47 498 353 c274 193 516 364 538 378 21 14 39 29 39 34
0 5 -51 88 -113 186 -62 98 -153 242 -201 321 -48 78 -89 142 -90 142 0 0 -37
-24 -81 -53z m36 -370 c32 -25 79 -101 79 -128 0 -17 -11 -38 -28 -56 -46 -45
-655 -470 -735 -513 -91 -48 -87 -46 -607 -185 -239 -64 -459 -127 -488 -140
-78 -36 -230 -189 -276 -279 -31 -59 -36 -78 -36 -137 0 -168 -76 -609 -102
-593 -4 3 -8 141 -8 307 0 302 -2 333 -50 768 -12 108 -17 200 -14 237 l7 61
171 -6 c142 -4 234 0 541 26 204 18 402 39 440 46 103 22 201 76 595 327 458
292 469 297 511 265z m-2512 -434 c27 -102 82 -498 107 -768 30 -330 16 -766
-40 -1233 -12 -100 -12 -104 8 -118 27 -19 136 -51 201 -59 28 -3 63 -9 80
-12 l29 -5 -24 -20 c-104 -84 -140 -129 -140 -173 0 -35 29 -103 54 -128 16
-16 -25 -17 -757 -17 l-774 0 -7 41 c-9 59 -48 91 -148 123 -46 14 -89 26 -96
26 -7 0 -11 4 -8 9 3 4 36 11 74 14 198 19 517 87 736 157 l99 32 -6 306 c-8
399 -24 522 -118 912 -60 248 -92 364 -171 623 -37 118 -58 201 -52 207 13 12
174 27 213 19 49 -10 81 -37 128 -109 79 -119 184 -206 234 -193 10 3 44 28
74 57 53 50 85 106 100 176 12 59 44 125 68 139 24 16 69 28 104 30 18 1 24
-7 32 -36z m-1080 -409 c28 -35 70 -171 136 -433 103 -413 105 -427 105 -807
0 -183 -4 -335 -9 -338 -37 -23 -360 -89 -493 -101 l-78 -7 0 35 c0 20 -7 42
-15 51 -13 12 -15 71 -16 398 0 450 -5 513 -45 593 -32 63 -136 177 -201 220
-76 49 -177 45 -498 -22 -163 -34 -204 -55 -309 -160 -86 -88 -136 -167 -136
-218 0 -38 57 -197 119 -334 249 -545 246 -538 242 -603 -3 -47 -50 -6 -124
107 -123 188 -373 601 -415 684 l-47 94 -3 145 c-2 79 -1 154 2 167 10 38 98
114 186 159 144 74 293 115 727 201 125 25 359 79 518 120 160 40 300 74 312
74 12 1 31 -11 42 -25z m1242 -2385 c20 -10 53 -37 72 -59 64 -75 430 -592
623 -880 287 -430 388 -607 438 -770 56 -186 56 -183 56 -838 0 -643 -1 -664
-55 -999 -8 -51 -15 -151 -15 -222 0 -162 8 -178 143 -315 135 -136 144 -130
-202 -134 -147 -2 -283 1 -302 5 -29 8 -35 14 -40 47 -3 20 -11 42 -18 49 -8
8 -11 173 -11 612 0 330 -5 674 -10 765 -23 378 -68 669 -125 808 -86 211
-292 470 -700 877 -390 390 -518 468 -637 390 -66 -43 -181 -168 -216 -233
-18 -33 -59 -140 -93 -238 -112 -328 -283 -751 -387 -959 -136 -273 -382 -606
-860 -1162 -244 -285 -325 -389 -373 -485 -47 -94 -49 -129 -10 -206 28 -55
119 -157 168 -189 13 -9 23 -25 23 -39 0 -42 -44 -46 -413 -42 -369 3 -357 1
-357 62 0 20 62 129 204 360 491 800 869 1510 1010 1901 20 55 45 123 56 150
69 177 133 428 205 800 65 338 74 380 89 400 8 11 39 24 77 32 166 33 317 170
412 373 47 100 67 146 67 157 0 5 234 7 573 5 531 -4 575 -6 608 -23z M4625
8171 c-4 -7 10 -27 32 -48 43 -41 182 -133 200 -133 6 0 18 -9 26 -21 15 -20
15 -20 27 16 10 32 9 41 -12 83 -34 69 -98 106 -193 110 -47 3 -75 0 -80 -7z
M3537 4922 c-13 -6 16 -27 120 -89 76 -44 157 -90 181 -102 l42 -21 0 47 c0
74 -45 128 -131 158 -43 15 -179 19 -212 7z"/>
</g>
</svg>
