<?xml version="1.0" standalone="no"?>
<!DOCTYPE svg PUBLIC "-//W3C//DTD SVG 20010904//EN"
 "http://www.w3.org/TR/2001/REC-SVG-20010904/DTD/svg10.dtd">
<svg version="1.0" xmlns="http://www.w3.org/2000/svg"
 width="2048.000000pt" height="2048.000000pt" viewBox="0 0 2048.000000 2048.000000"
 preserveAspectRatio="xMidYMid meet">
<metadata>
Created by potrace 1.13, written by Peter Selinger 2001-2015
</metadata>
<g transform="translate(0.000000,2048.000000) scale(0.192120,-0.192120)"
fill="#000000" stroke="none">
<path d="M2456 10034 c-86 -31 -147 -99 -170 -188 -29 -111 5 -599 65 -936
106 -600 349 -1239 679 -1790 289 -481 695 -961 1085 -1283 115 -95 112 -90
107 -130 -2 -21 -9 -37 -16 -37 -24 0 -357 90 -461 125 -656 219 -1203 596
-1598 1100 -155 198 -329 488 -419 698 -54 125 -115 194 -197 222 -197 65
-400 -108 -363 -310 15 -79 191 -431 310 -621 418 -667 1007 -1165 1754 -1485
266 -114 612 -219 888 -269 169 -31 160 -28 160 -54 0 -22 -3 -23 -122 -30
-511 -29 -1028 -175 -1440 -407 -246 -138 -433 -283 -653 -503 -347 -348 -592
-734 -798 -1256 -91 -230 -111 -300 -102 -358 10 -67 28 -105 75 -156 95 -103
239 -121 356 -43 56 37 95 96 125 186 108 328 293 688 485 944 420 559 972
886 1708 1012 l40 7 -85 -90 c-752 -790 -1387 -2130 -1555 -3282 -28 -195 -45
-479 -33 -546 30 -162 202 -261 360 -209 72 24 150 101 172 170 9 29 18 107
21 186 24 574 252 1350 602 2051 101 203 225 431 231 425 2 -3 8 -47 14 -98
32 -293 134 -590 287 -837 73 -117 132 -192 242 -306 245 -254 524 -406 865
-472 136 -27 386 -25 532 4 132 26 285 78 393 132 191 96 413 276 553 448 232
284 385 655 426 1031 6 51 12 96 15 98 14 14 323 -603 420 -839 253 -614 416
-1283 416 -1705 0 -98 23 -157 85 -219 136 -137 357 -100 442 73 26 55 27 62
25 192 -12 694 -308 1684 -748 2505 -247 461 -544 883 -844 1199 l-84 89 40
-7 c21 -4 101 -20 177 -37 950 -204 1617 -823 1991 -1848 65 -179 87 -215 151
-258 116 -77 260 -59 355 44 47 51 65 89 75 156 9 58 -11 127 -102 358 -516
1314 -1502 2061 -2850 2162 -159 12 -163 13 -163 35 0 25 -9 22 160 53 178 33
378 85 571 150 612 205 1108 508 1540 939 317 318 547 645 751 1068 90 187
105 240 89 313 -28 132 -121 216 -251 227 -137 13 -234 -61 -308 -234 -24 -55
-75 -159 -114 -229 -414 -761 -1067 -1296 -1923 -1576 -107 -35 -419 -118
-443 -118 -6 0 -12 16 -14 37 -5 41 -15 29 142 159 128 106 391 370 522 524
322 377 602 813 798 1240 310 675 473 1362 482 2030 2 158 0 179 -18 220 -48
104 -126 160 -235 168 -86 6 -145 -14 -207 -72 -79 -72 -85 -93 -94 -326 -20
-517 -108 -967 -281 -1430 -132 -352 -276 -639 -475 -945 -188 -290 -354 -496
-596 -743 l-160 -162 -26 72 c-15 40 -41 101 -58 135 -18 34 -32 66 -32 71 0
5 23 43 50 85 134 200 198 462 188 773 -4 149 -16 182 -90 251 -139 127 -371
76 -442 -99 -8 -20 -16 -96 -20 -188 -4 -85 -11 -182 -17 -215 -10 -61 -37
-155 -45 -155 -2 0 -26 16 -53 35 -250 180 -616 181 -880 1 -29 -20 -54 -36
-56 -36 -7 0 -34 98 -44 155 -5 33 -13 125 -16 205 -8 174 -15 204 -59 261
-96 127 -287 143 -404 36 -74 -69 -86 -102 -90 -251 -10 -310 52 -567 184
-767 29 -45 54 -86 54 -91 0 -5 -14 -37 -32 -71 -17 -34 -43 -95 -58 -135
l-26 -72 -165 167 c-234 239 -374 411 -557 685 -361 540 -618 1176 -726 1793
-37 210 -56 398 -65 631 -8 234 -14 255 -88 326 -75 73 -190 98 -287 62z m899
-2873 c33 -51 94 -139 135 -197 41 -59 80 -113 85 -122 6 -8 15 -23 22 -31 18
-23 112 -144 121 -156 4 -5 19 -26 32 -45 14 -19 32 -40 40 -46 8 -7 31 -34
50 -60 l34 -49 -34 26 c-19 14 -44 40 -55 57 -11 17 -24 31 -29 32 -10 0 -65
61 -127 141 -24 30 -45 56 -49 59 -27 22 -233 321 -283 413 -15 26 -27 62 -27
80 0 30 1 31 13 11 6 -12 39 -63 72 -113z m4028 70 c-4 -3 -17 -24 -28 -46
-47 -98 -291 -439 -367 -515 -15 -16 -28 -32 -28 -36 0 -7 -52 -65 -79 -87 -7
-7 -26 -25 -42 -41 -16 -15 -29 -25 -29 -22 0 7 69 99 80 106 4 3 18 21 31 40
14 19 32 44 41 55 10 11 49 63 87 115 39 52 74 100 79 105 4 6 64 94 133 198
105 158 125 183 127 161 2 -15 0 -30 -5 -33z m-5673 -151 c154 -234 313 -457
349 -490 17 -16 72 -86 86 -108 6 -11 3 -12 -11 -4 -29 16 -155 153 -244 265
-45 56 -88 110 -96 120 -8 9 -14 19 -14 22 0 2 -22 40 -50 83 -27 43 -50 84
-50 90 0 7 -4 12 -10 12 -5 0 -10 21 -9 48 0 26 3 40 6 32 4 -8 23 -40 43 -70z
m2953 -48 c157 -151 179 -156 383 -88 248 82 325 82 565 0 143 -48 195 -53
248 -25 44 24 192 157 217 196 l19 30 3 -75 c3 -79 -5 -106 -82 -270 -77 -165
-29 -348 132 -502 87 -83 126 -108 187 -119 22 -4 49 -10 60 -13 13 -5 46 8
99 39 44 25 81 45 83 45 11 0 -24 -44 -97 -125 -162 -179 -260 -324 -260 -384
0 -55 64 -145 193 -271 31 -32 57 -61 57 -66 0 -5 -14 -20 -32 -34 -146 -116
-248 -235 -248 -291 0 -48 142 -199 226 -240 24 -11 86 -29 139 -40 103 -21
205 -63 205 -85 0 -7 -32 -44 -71 -81 -97 -94 -153 -178 -145 -221 11 -68 117
-251 202 -347 23 -26 69 -88 235 -310 171 -231 405 -624 415 -699 9 -66 -10
-66 -53 1 -84 132 -211 259 -289 289 -42 16 -47 16 -80 0 -45 -21 -137 -107
-175 -164 -48 -71 -65 -111 -94 -222 -67 -261 -123 -400 -228 -573 -211 -348
-538 -576 -921 -644 -119 -21 -333 -21 -452 0 -278 50 -510 173 -725 386 -219
217 -322 416 -443 860 -30 108 -68 182 -134 260 -47 55 -123 111 -152 111 -31
0 -116 -50 -178 -106 -53 -48 -182 -215 -204 -263 -4 -9 -7 9 -7 40 -1 63 21
115 114 269 181 299 299 470 525 755 143 180 210 300 210 373 0 38 -45 105
-127 189 -46 47 -83 90 -83 98 0 21 105 64 205 85 50 10 105 24 121 31 50 22
135 91 186 152 57 69 62 105 23 171 -23 40 -144 163 -213 216 -18 14 -32 30
-32 37 0 6 18 26 39 45 39 33 165 184 189 226 19 35 14 88 -14 145 -33 63
-145 213 -213 285 -28 29 -51 58 -51 63 0 6 -5 7 -10 4 -6 -3 -13 2 -17 12 -4
10 -31 42 -60 72 -29 29 -53 58 -53 63 0 6 12 -1 26 -16 15 -14 31 -26 35 -26
5 0 9 -6 9 -14 0 -8 9 -17 20 -21 10 -3 51 -24 89 -46 57 -34 73 -39 89 -30
12 6 33 11 48 11 45 0 106 36 187 111 63 58 85 86 117 153 60 123 75 233 40
293 -5 10 -19 41 -29 68 -11 28 -36 86 -55 130 -31 69 -36 90 -35 155 l0 75
27 -34 c15 -19 58 -64 95 -99z m4334 76 c-3 -7 -5 -2 -5 12 0 14 2 19 5 13 2
-7 2 -19 0 -25z m-20 -28 c-4 -28 -28 -75 -80 -153 -70 -104 -206 -280 -247
-319 -10 -10 -24 -25 -32 -36 -7 -10 -31 -31 -53 -47 -43 -32 -42 -30 35 67
25 32 59 76 75 98 17 22 35 46 40 53 19 22 149 210 204 295 29 45 56 82 59 82
2 0 2 -18 -1 -40z m-2177 -613 c0 -7 -9 -18 -21 -25 -17 -11 -20 -11 -13 0 20
36 34 46 34 25z m-2847 -91 l21 -29 -32 23 c-31 23 -62 61 -62 76 0 11 49 -36
73 -70z m-1739 -2493 c-25 -32 -58 -74 -75 -93 -82 -99 -147 -187 -245 -336
-96 -145 -109 -161 -112 -136 -7 69 176 330 368 525 53 53 99 97 103 97 4 0
-13 -26 -39 -57z m6381 -137 c76 -87 211 -270 227 -307 7 -16 16 -29 20 -29 5
0 8 -19 7 -42 0 -24 -3 -36 -6 -28 -3 8 -9 17 -13 20 -4 3 -32 43 -63 90 -70
107 -199 282 -269 365 -16 18 -28 38 -28 45 0 17 55 -33 125 -114z"/>
</g>
</svg>
