<?xml version="1.0" standalone="no"?>
<!DOCTYPE svg PUBLIC "-//W3C//DTD SVG 20010904//EN"
 "http://www.w3.org/TR/2001/REC-SVG-20010904/DTD/svg10.dtd">
<svg version="1.0" xmlns="http://www.w3.org/2000/svg"
 width="2048.000000pt" height="2048.000000pt" viewBox="0 0 2048.000000 2048.000000"
 preserveAspectRatio="xMidYMid meet">
<metadata>
Created by potrace 1.13, written by Peter Selinger 2001-2015
</metadata>
<g transform="translate(0.000000,2048.000000) scale(0.192120,-0.192120)"
fill="#000000" stroke="none">
<path d="M5136 10274 c-253 -46 -502 -180 -696 -374 -235 -234 -361 -511 -401
-882 -16 -140 -5 -787 15 -968 31 -275 70 -404 146 -475 29 -28 36 -30 98 -28
78 3 192 36 616 182 15 6 6 14 -44 45 -34 21 -94 70 -134 110 -215 213 -359
546 -373 866 -4 101 -2 122 16 171 30 80 67 127 158 199 43 35 146 130 230
213 l151 150 134 -66 c228 -113 454 -177 627 -177 144 -1 305 -47 414 -120 79
-53 120 -98 163 -180 27 -52 29 -62 29 -175 0 -233 -82 -492 -226 -709 -64
-96 -192 -228 -275 -281 l-61 -39 261 -87 c359 -121 439 -131 514 -65 70 61
97 176 112 476 13 259 13 856 -1 978 -53 493 -315 891 -728 1106 -248 129
-504 173 -745 130z m379 -310 c285 -55 578 -264 696 -498 29 -59 39 -90 39
-127 0 -27 -3 -49 -8 -49 -4 0 -42 24 -84 53 -148 104 -270 145 -508 171 -157
18 -261 46 -455 123 -240 95 -266 98 -369 47 -73 -37 -142 -93 -287 -231 -70
-68 -130 -123 -133 -123 -3 0 -6 17 -6 38 0 111 165 314 358 440 237 154 490
206 757 156z m771 -2092 c-4 -3 -12 0 -18 6 -9 9 -8 18 2 39 l14 28 4 -33 c2
-19 1 -37 -2 -40z M4580 9093 c0 -29 42 -44 161 -58 68 -9 147 -22 174 -30
l50 -14 -65 7 c-100 11 -232 7 -258 -7 -37 -20 -52 -70 -52 -169 0 -104 27
-224 66 -290 33 -56 72 -73 189 -83 l90 -7 -100 2 c-80 2 -108 7 -141 24 -89
46 -140 135 -180 314 -24 105 -43 148 -67 148 -15 0 -1 -173 22 -263 38 -146
104 -249 180 -279 14 -6 83 -13 152 -16 162 -6 216 8 291 77 41 38 65 72 102
148 51 106 97 163 131 163 33 0 80 -57 127 -155 30 -64 59 -107 99 -147 77
-78 127 -92 298 -86 69 3 138 10 152 16 103 41 187 220 205 433 6 69 5 79 -9
79 -23 0 -35 -28 -68 -151 -31 -120 -54 -172 -101 -224 -53 -61 -99 -78 -213
-81 l-100 -2 90 7 c117 10 156 27 189 83 39 66 66 186 66 290 0 99 -15 149
-52 169 -30 18 -220 15 -308 -5 -36 -7 -67 -12 -68 -11 -7 7 124 43 233 65
114 23 145 34 145 50 0 24 -223 -3 -345 -41 -90 -28 -146 -57 -218 -112 -105
-83 -142 -82 -255 7 -115 90 -286 144 -489 153 -79 4 -123 2 -123 -4z m946
-193 c-43 -47 -50 -74 -43 -148 7 -80 41 -162 89 -218 l42 -49 -38 35 c-38 35
-118 185 -130 246 -9 43 7 77 60 129 57 56 69 59 20 5z m-345 -44 c16 -21 24
-44 23 -71 -1 -56 -82 -220 -130 -265 l-38 -35 42 49 c48 56 82 138 89 218 7
73 0 99 -40 145 l-32 37 31 -23 c18 -13 42 -37 55 -55z m-214 -402 c-3 -3 -12
-4 -19 -1 -8 3 -5 6 6 6 11 1 17 -2 13 -5z m740 0 c-3 -3 -12 -4 -19 -1 -8 3
-5 6 6 6 11 1 17 -2 13 -5z M5150 8472 c0 -16 44 -75 73 -96 23 -17 43 -21
102 -21 59 0 79 4 102 21 27 20 73 79 73 94 0 4 -28 1 -62 -6 -97 -21 -180
-17 -265 10 -13 4 -23 3 -23 -2z M4964 8125 c-9 -24 44 -92 105 -136 183 -131
477 -91 595 80 51 73 61 71 -339 71 -310 0 -356 -2 -361 -15z M4940 7523
c-151 -27 -361 -97 -489 -164 -518 -271 -815 -819 -856 -1581 l-7 -128 321 0
321 0 0 54 c0 202 57 480 131 646 34 74 90 170 100 170 3 0 9 -26 12 -57 4
-32 30 -238 58 -458 l51 -400 -55 -98 c-31 -53 -67 -112 -80 -130 -99 -131
-144 -358 -134 -662 12 -328 82 -663 235 -1120 l67 -200 703 -3 702 -2 15 37
c121 289 237 692 282 983 25 160 25 509 0 631 -31 155 -93 300 -218 510 l-32
54 52 400 c28 220 54 426 58 458 3 31 9 57 12 57 10 0 66 -96 99 -170 68 -149
107 -323 124 -542 l12 -158 319 0 319 0 -7 128 c-19 360 -92 659 -226 927
-151 303 -376 531 -664 670 -141 69 -308 122 -467 149 -36 6 -37 6 -40 -26 -3
-30 -10 -36 -88 -76 -164 -82 -327 -82 -490 0 -78 40 -85 46 -88 76 -2 17 -9
31 -15 31 -7 -1 -23 -4 -37 -6z m75 -373 c104 -47 204 -70 309 -70 112 0 188
18 314 71 90 38 102 41 162 36 119 -11 299 -87 446 -189 87 -60 224 -200 283
-290 79 -119 145 -274 186 -434 23 -96 19 -324 -7 -324 -28 0 -57 57 -83 160
-33 134 -103 307 -152 378 -78 114 -206 222 -263 222 -37 0 -109 -50 -175
-121 -93 -101 -117 -165 -154 -409 -37 -243 -51 -373 -51 -473 0 -72 -4 -107
-16 -130 -9 -18 -20 -39 -24 -47 -19 -41 -519 -65 -761 -37 -150 18 -187 28
-195 54 -3 10 -10 27 -14 38 -5 11 -11 85 -14 165 -5 142 -48 476 -80 613 -9
37 -28 91 -42 120 -53 104 -183 227 -241 227 -44 0 -108 -42 -191 -127 -71
-72 -90 -99 -136 -196 -30 -62 -66 -157 -81 -212 -46 -175 -69 -225 -102 -225
-12 0 -14 28 -11 173 3 164 5 177 36 266 123 355 352 605 673 736 185 75 263
80 384 25z m-459 -1800 c441 -153 1096 -153 1537 -1 l57 20 0 -27 c0 -15 -10
-61 -22 -102 -19 -68 -21 -110 -28 -460 -4 -252 -11 -404 -19 -440 -7 -30 -24
-107 -38 -170 -14 -63 -41 -166 -60 -229 -62 -206 -109 -299 -161 -320 -33
-12 -985 -13 -1018 -1 -48 19 -101 148 -169 412 -82 318 -87 355 -95 758 -7
315 -11 379 -29 464 -21 99 -24 116 -18 116 2 0 30 -9 63 -20z M3642 5285 c3
-268 7 -284 78 -355 51 -51 104 -73 183 -78 120 -7 220 53 268 161 21 48 24
68 27 265 2 118 0 218 -5 223 -10 10 -73 -66 -73 -88 0 -7 -4 -13 -10 -13 -5
0 -10 -9 -10 -20 0 -11 -4 -20 -10 -20 -6 0 -10 -38 -10 -93 0 -87 -2 -95 -25
-115 -16 -14 -25 -32 -25 -50 0 -43 -31 -65 -98 -69 -77 -5 -122 21 -122 70 0
21 -8 41 -20 52 -17 16 -20 31 -20 112 0 55 -4 93 -10 93 -5 0 -10 9 -10 20 0
11 -4 20 -9 20 -5 0 -14 13 -20 29 -7 15 -28 44 -47 62 l-35 34 3 -240z M6970
5483 c-55 -64 -70 -86 -70 -105 0 -10 -7 -18 -15 -18 -12 0 -15 -17 -15 -93 0
-81 -3 -96 -20 -112 -11 -10 -20 -30 -20 -45 0 -71 -92 -102 -184 -62 -43 20
-46 23 -46 60 0 23 -6 45 -15 52 -11 9 -15 35 -15 106 0 74 -3 94 -14 94 -8 0
-17 15 -20 33 -8 40 -66 121 -79 108 -5 -5 -7 -105 -5 -222 3 -198 5 -218 26
-264 48 -104 139 -165 248 -165 104 0 185 41 237 119 44 66 48 101 45 335 l-3
219 -35 -40z M4690 2771 c0 -292 2 -531 5 -531 18 0 76 37 81 52 3 10 10 16
15 13 5 -4 9 160 9 419 0 277 -3 426 -10 426 -5 0 -10 8 -10 18 0 21 -48 100
-73 121 -16 13 -17 -23 -17 -518z M5918 3278 c-10 -10 -18 -21 -18 -25 0 -5
-11 -21 -25 -37 -14 -16 -25 -37 -25 -48 0 -10 -4 -18 -10 -18 -7 0 -10 -145
-10 -415 0 -250 4 -415 9 -415 5 0 13 -9 16 -21 4 -11 9 -18 12 -15 3 3 19 -2
34 -11 16 -9 32 -13 36 -9 11 10 16 967 6 1003 -8 27 -9 28 -25 11z M5200
3240 c-14 -17 -32 -38 -40 -47 -13 -14 -15 -81 -18 -444 -3 -426 -3 -428 19
-447 23 -22 67 -37 78 -27 3 4 8 187 9 408 4 388 -2 587 -17 587 -4 0 -18 -14
-31 -30z M5390 2770 l0 -500 23 0 c14 0 35 13 50 30 l27 30 0 410 c0 228 -4
410 -9 410 -5 0 -11 13 -14 29 -6 29 -52 91 -68 91 -5 0 -9 -206 -9 -500z
M5944 2132 c0 -74 -4 -95 -27 -138 -30 -59 -83 -109 -145 -136 -35 -16 -60
-19 -116 -16 -83 5 -134 26 -189 81 -52 52 -70 97 -76 196 l-6 85 -31 -32 -31
-31 -34 35 c-18 19 -36 34 -40 34 -3 0 -6 -35 -6 -77 1 -61 -4 -89 -22 -128
-43 -97 -123 -154 -226 -163 -83 -6 -145 11 -205 59 -67 53 -93 112 -100 224
l-5 90 -55 -55 c-69 -68 -90 -126 -90 -244 0 -136 46 -267 147 -419 61 -91
186 -217 240 -241 40 -18 45 -18 85 -2 91 34 202 158 274 304 l41 83 17 -43
c55 -138 198 -308 289 -343 46 -17 49 -17 90 1 54 24 178 149 240 242 60 89
110 196 132 282 25 97 17 238 -17 305 -26 50 -61 89 -108 118 l-26 16 0 -87z
M4910 923 c-313 -16 -569 -41 -765 -74 -450 -75 -602 -186 -392 -284 150 -71
408 -120 847 -161 229 -21 936 -30 1210 -15 674 37 1148 137 1176 247 11 44
-10 70 -88 108 -177 84 -569 147 -1098 176 -164 9 -745 11 -890 3z m664 -263
c27 -25 -15 -30 -247 -30 -224 0 -284 6 -263 27 20 20 488 22 510 3z"/>
</g>
</svg>
