<?xml version="1.0" standalone="no"?>
<!DOCTYPE svg PUBLIC "-//W3C//DTD SVG 20010904//EN"
 "http://www.w3.org/TR/2001/REC-SVG-20010904/DTD/svg10.dtd">
<svg version="1.0" xmlns="http://www.w3.org/2000/svg"
 width="2048.000000pt" height="2048.000000pt" viewBox="0 0 2048.000000 2048.000000"
 preserveAspectRatio="xMidYMid meet">
<metadata>
Created by potrace 1.13, written by Peter Selinger 2001-2015
</metadata>
<g transform="translate(0.000000,2048.000000) scale(0.192120,-0.192120)"
fill="#000000" stroke="none">
<path d="M5136 10274 c-253 -46 -502 -180 -696 -374 -235 -234 -361 -511 -401
-882 -16 -140 -5 -787 15 -968 31 -275 70 -403 146 -475 29 -27 37 -30 95 -28
75 1 122 14 360 97 246 86 268 91 305 76 l30 -12 0 -89 c0 -84 -1 -89 -22 -93
-229 -46 -378 -94 -517 -167 -518 -271 -815 -819 -856 -1581 l-7 -128 26 0 26
0 0 -288 c0 -333 4 -357 77 -430 59 -59 117 -83 198 -83 86 0 153 29 210 93
70 78 75 106 75 430 0 240 2 278 15 278 11 0 15 13 15 54 0 202 57 480 131
646 34 74 90 170 100 170 3 0 9 -26 12 -57 4 -32 30 -238 58 -458 l51 -400
-54 -95 c-30 -52 -71 -119 -91 -147 -44 -66 -73 -141 -100 -263 -29 -129 -31
-477 -4 -650 44 -282 107 -531 215 -855 l67 -200 38 -3 37 -3 0 -588 0 -589
-45 -37 c-70 -57 -98 -120 -103 -236 -7 -149 36 -278 145 -442 61 -91 186
-217 240 -241 41 -18 44 -18 89 -1 88 34 223 189 282 326 l25 59 41 -83 c72
-145 183 -269 274 -303 40 -16 45 -16 85 2 54 24 178 149 240 242 107 160 151
294 145 442 -3 82 -8 102 -33 150 -19 34 -48 68 -77 90 l-48 35 0 587 0 587
36 3 c37 3 37 3 76 103 301 776 360 1422 164 1820 -24 50 -70 135 -101 190
l-57 100 51 400 c28 220 54 426 58 458 3 31 9 57 12 57 10 0 66 -96 100 -170
74 -166 131 -444 131 -646 0 -41 4 -54 15 -54 13 0 15 -38 15 -278 0 -324 5
-352 75 -430 114 -127 315 -126 420 2 62 76 65 96 65 417 l0 289 26 0 26 0 -7
128 c-19 361 -92 659 -226 927 -215 432 -591 716 -1064 805 -117 21 -105 9
-105 109 0 84 1 88 25 99 14 7 34 12 43 12 9 0 129 -38 267 -85 346 -116 428
-127 503 -61 70 61 97 176 112 476 13 259 13 856 -1 978 -53 493 -315 891
-728 1106 -248 129 -504 173 -745 130z m371 -319 c311 -66 594 -273 708 -516
22 -49 36 -149 19 -149 -3 0 -36 18 -73 40 -132 78 -279 120 -501 140 -165 16
-273 44 -476 125 -200 81 -263 91 -335 55 -70 -36 -127 -78 -229 -170 -123
-110 -206 -180 -215 -180 -4 0 -5 24 -3 54 6 77 79 196 183 301 158 158 339
252 590 308 49 11 268 6 332 -8z m-453 -539 c236 -116 394 -161 616 -176 87
-6 174 -18 218 -30 242 -67 388 -216 400 -406 12 -191 -73 -492 -197 -697 -65
-108 -168 -227 -243 -283 l-61 -44 -49 46 c-40 37 -54 45 -81 42 -18 -1 -37
-7 -43 -13 -7 -5 -35 -30 -64 -55 -73 -62 -118 -159 -90 -193 6 -7 19 -24 30
-38 11 -15 51 -42 89 -60 81 -39 80 -44 -11 -90 -153 -77 -333 -77 -486 0 -90
45 -91 52 -23 84 143 66 168 148 77 259 -53 65 -113 108 -149 108 -19 0 -43
-14 -76 -45 l-48 -45 -62 46 c-233 175 -419 566 -438 919 -10 179 24 245 203
399 60 52 163 148 229 215 66 67 122 121 124 121 3 0 64 -29 135 -64z m1236
-1470 c0 -68 -7 -81 -40 -71 -33 10 -25 77 14 121 21 24 26 14 26 -50z m-1880
5 c15 -37 10 -65 -13 -69 -14 -3 -17 4 -17 47 0 57 12 66 30 22z m660 -746
c188 -53 296 -55 472 -9 95 25 109 26 178 16 247 -35 512 -171 682 -351 156
-163 251 -341 313 -587 20 -83 22 -394 2 -394 -25 0 -46 35 -63 106 -50 204
-67 263 -106 357 -61 146 -158 269 -267 339 -25 15 -57 28 -71 28 -37 0 -109
-50 -175 -121 -93 -101 -117 -165 -154 -409 -37 -243 -51 -373 -51 -473 0 -72
-4 -107 -16 -130 -9 -18 -20 -39 -24 -47 -19 -41 -519 -65 -761 -37 -150 18
-187 28 -195 54 -3 10 -10 27 -14 38 -5 11 -11 85 -14 165 -5 142 -48 476 -80
613 -9 37 -28 91 -42 120 -53 104 -183 227 -241 227 -44 0 -108 -42 -191 -127
-71 -72 -89 -99 -136 -196 -50 -103 -70 -167 -126 -396 -18 -74 -38 -110 -61
-111 -14 0 -19 50 -19 190 0 122 4 159 24 235 128 476 463 795 947 900 85 18
124 18 189 0z m-975 -1565 c5 -8 -62 -105 -102 -148 -7 -7 -13 -23 -13 -34 0
-11 -8 -22 -20 -25 -18 -5 -20 -14 -20 -105 0 -97 0 -99 -22 -96 -22 3 -23 8
-26 101 -2 77 -6 97 -17 97 -8 0 -15 7 -15 15 0 18 -34 72 -89 140 -22 27 -37
53 -35 57 7 12 352 10 359 -2z m2819 2 c4 -7 -54 -88 -114 -159 -5 -7 -10 -21
-10 -33 0 -13 -7 -20 -20 -20 -19 0 -20 -7 -20 -100 0 -93 -1 -100 -20 -100
-19 0 -20 7 -20 100 0 93 -1 100 -20 100 -15 0 -20 7 -20 24 0 14 -6 31 -13
38 -39 40 -107 139 -102 148 7 12 351 14 359 2z m-2358 -292 c441 -153 1096
-153 1538 0 33 11 60 20 61 20 4 0 -12 -81 -31 -156 -14 -56 -18 -142 -24
-444 -4 -239 -11 -395 -19 -430 -7 -30 -26 -116 -43 -190 -17 -74 -55 -211
-86 -305 -52 -157 -56 -177 -57 -265 0 -52 4 -116 9 -142 l8 -48 -261 0 -261
0 0 -592 0 -592 -31 -32 -32 -33 -38 32 -39 32 0 593 0 592 70 0 70 0 0 40 c0
22 -6 55 -13 73 -42 98 -119 62 -134 -64 l-6 -49 -258 0 c-143 0 -259 2 -259
4 0 2 7 39 16 82 22 103 15 153 -44 354 -58 194 -103 378 -133 545 -19 101
-23 176 -29 475 -6 268 -12 371 -24 420 -15 63 -20 100 -13 100 2 0 30 -9 63
-20z m434 -2633 c0 -431 0 -442 20 -455 13 -8 20 -23 20 -42 0 -16 9 -45 20
-65 20 -36 25 -79 14 -110 -17 -43 -120 -59 -163 -26 -22 17 -24 23 -18 81 3
34 10 67 16 73 6 6 11 28 11 48 0 24 5 39 15 43 13 5 15 64 15 451 l0 445 25
0 25 0 0 -443z m700 2 c0 -378 2 -443 15 -455 8 -9 15 -26 15 -38 0 -13 7 -40
15 -59 8 -20 15 -57 15 -81 0 -61 -27 -86 -90 -86 -88 0 -128 73 -80 145 11
17 20 47 20 68 0 24 5 40 15 43 13 5 15 65 15 455 l0 449 30 0 30 0 0 -441z
m-398 -645 c29 -15 32 -15 58 5 l28 20 17 -52 c26 -82 74 -140 146 -176 135
-68 287 -23 370 108 l29 45 0 -55 c0 -33 -9 -76 -23 -110 -28 -67 -106 -186
-163 -245 -35 -38 -47 -44 -80 -44 -34 0 -51 9 -119 66 -113 94 -177 135 -222
141 -47 6 -105 -28 -236 -135 -117 -95 -137 -97 -218 -14 -96 99 -186 275
-177 347 3 24 5 23 38 -22 71 -96 206 -137 322 -97 87 29 166 123 184 219 4
22 9 34 12 27 2 -7 17 -19 34 -28z M4642 8990 c-41 -17 -55 -72 -50 -190 7
-151 47 -267 109 -312 58 -44 258 -42 324 3 103 69 174 270 130 364 -42 88
-161 135 -360 141 -74 2 -140 0 -153 -6z m256 -239 c23 -14 10 -46 -21 -49
-33 -4 -57 13 -57 39 0 15 7 19 33 19 17 0 38 -4 45 -9z M5201 8981 c-15 -27
-9 -36 47 -72 58 -37 96 -37 155 1 84 53 60 78 -85 86 -101 7 -106 6 -117 -15z
M5738 8990 c-123 -21 -212 -71 -243 -135 -44 -94 27 -295 130 -364 66 -45 266
-47 324 -3 61 45 102 160 109 308 8 180 -13 205 -175 203 -54 -1 -119 -5 -145
-9z m82 -247 c0 -31 -16 -45 -46 -41 -32 3 -46 34 -22 49 25 16 68 11 68 -8z
M5302 8746 c-34 -18 -56 -54 -43 -70 18 -22 69 -27 107 -11 39 16 40 21 16 51
-27 34 -54 44 -80 30z M5150 8464 c0 -9 19 -36 43 -59 31 -32 53 -44 85 -50
72 -12 129 2 172 42 36 32 58 68 47 79 -2 2 -30 -2 -63 -11 -74 -19 -144 -19
-217 0 -71 18 -67 18 -67 -1z M5041 8153 c-21 -9 38 -11 284 -12 233 0 305 2
291 11 -28 16 -539 17 -575 1z M5645 8042 c-78 -92 -196 -136 -344 -130 -82 3
-106 8 -163 35 -37 17 -87 50 -112 73 -54 50 -63 34 -20 -34 25 -39 96 -86
141 -92 10 -2 53 -8 97 -15 73 -12 162 -6 262 15 73 15 156 89 168 149 3 16 5
31 4 32 -2 1 -16 -14 -33 -33z M4910 923 c-313 -16 -569 -41 -765 -74 -450
-75 -602 -186 -392 -284 150 -71 408 -120 847 -161 229 -21 936 -30 1210 -15
674 37 1148 137 1176 247 11 44 -10 70 -88 108 -177 84 -569 147 -1098 176
-164 9 -745 11 -890 3z m664 -263 c27 -25 -15 -30 -247 -30 -224 0 -284 6
-263 27 20 20 488 22 510 3z"/>
</g>
</svg>
