<?xml version="1.0" standalone="no"?>
<!DOCTYPE svg PUBLIC "-//W3C//DTD SVG 20010904//EN"
 "http://www.w3.org/TR/2001/REC-SVG-20010904/DTD/svg10.dtd">
<svg version="1.0" xmlns="http://www.w3.org/2000/svg"
 width="2048.000000pt" height="2048.000000pt" viewBox="0 0 2048.000000 2048.000000"
 preserveAspectRatio="xMidYMid meet">
<metadata>
Created by potrace 1.13, written by Peter Selinger 2001-2015
</metadata>
<g transform="translate(0.000000,2048.000000) scale(0.192120,-0.192120)"
fill="#000000" stroke="none">
<path d="M4803 10032 c-107 -38 -197 -132 -278 -295 -61 -121 -89 -205 -171
-518 -3 -11 -29 -19 -97 -28 -106 -15 -226 -45 -271 -68 -51 -25 -95 -74 -102
-111 -17 -89 82 -165 311 -243 92 -31 111 -40 116 -60 3 -13 1 -34 -4 -45 -9
-22 5 -64 23 -64 4 0 18 -16 30 -35 28 -46 54 -60 73 -40 9 8 17 20 19 26 6
18 127 -25 167 -59 29 -24 35 -38 52 -127 26 -130 57 -198 101 -222 27 -15 56
-18 168 -18 225 0 254 28 314 307 9 41 32 58 80 58 57 0 72 -19 92 -116 31
-149 81 -224 162 -241 20 -4 91 -8 157 -8 103 0 125 3 155 20 43 25 71 90 96
221 22 113 47 141 153 173 66 20 75 21 90 7 28 -25 49 -19 75 23 14 21 30 41
37 43 6 2 11 15 10 28 -1 14 -3 40 -4 59 l-2 33 100 32 c136 44 228 89 281
140 37 36 44 48 44 82 0 21 -9 53 -20 71 -35 59 -171 110 -352 134 l-93 12
-47 172 c-79 293 -141 419 -267 546 -119 120 -197 139 -391 99 -130 -27 -281
-25 -515 5 -225 29 -225 29 -292 7z m362 -317 c165 -19 280 -19 430 0 176 22
222 8 293 -84 29 -38 33 -50 30 -95 l-3 -51 -47 -12 c-187 -46 -988 -41 -1115
8 -20 7 -23 16 -23 58 0 39 7 59 33 97 50 72 94 94 192 94 44 0 139 -7 210
-15z m-594 -424 c439 -91 1052 -93 1499 -5 69 13 128 24 133 24 4 0 7 -22 7
-49 0 -41 4 -53 25 -70 14 -11 39 -23 55 -26 26 -6 30 -11 30 -41 0 -68 -74
-107 -280 -150 -203 -42 -389 -57 -705 -57 -387 0 -648 28 -861 94 -81 25
-134 71 -134 116 0 26 5 31 39 42 56 16 84 54 76 103 -8 45 -11 45 116 19z
m29 -615 c96 -14 236 -30 310 -37 175 -17 677 -17 850 0 137 13 459 57 494 67
38 12 4 -17 -48 -40 -120 -53 -137 -56 -406 -60 -140 -3 -275 -9 -300 -15 -58
-13 -272 -13 -330 0 -25 6 -159 12 -299 15 -269 4 -303 10 -423 63 -48 22 -77
48 -42 38 11 -3 98 -17 194 -31z M4233 8573 c-28 -73 -25 -231 5 -298 30 -65
87 -123 129 -131 29 -6 34 -11 48 -63 83 -295 279 -551 517 -676 37 -20 68
-41 68 -48 1 -12 302 -229 327 -235 16 -4 332 219 333 235 0 7 24 25 53 39
248 126 446 381 532 686 14 48 20 58 44 63 38 8 95 69 123 130 30 68 33 225 4
299 l-19 49 -17 -54 c-25 -80 -63 -151 -152 -279 -44 -63 -147 -218 -230 -345
-91 -139 -174 -255 -212 -293 -66 -69 -193 -162 -324 -238 -135 -77 -167 -70
-399 85 -126 84 -219 173 -289 276 -107 160 -165 247 -215 328 -30 48 -87 131
-128 185 -76 100 -144 229 -156 295 -4 20 -11 37 -15 37 -5 0 -17 -21 -27 -47z
M5170 8133 c0 -25 38 -70 74 -87 42 -20 125 -21 169 -2 18 7 45 28 60 45 31
38 37 67 10 55 -29 -12 -236 -17 -276 -6 -31 9 -37 8 -37 -5z M4974 7811 c-27
-27 70 -137 160 -181 183 -90 434 -34 541 120 21 31 25 44 17 52 -8 8 -113 12
-363 12 -193 1 -353 -1 -355 -3z M4375 7270 c-304 -7 -329 -11 -431 -69 -121
-70 -213 -187 -257 -326 l-22 -70 0 -1325 0 -1325 28 -57 c50 -102 132 -153
247 -153 62 1 84 5 126 27 70 37 121 99 138 170 5 20 2 28 -11 32 -30 9 -105
10 -185 2 -73 -8 -78 -7 -111 18 -19 15 -52 52 -74 84 -22 31 -63 90 -93 130
-29 40 -50 76 -46 80 4 4 127 9 272 10 l264 4 0 -141 0 -141 39 0 39 0 7 -87
c14 -188 185 -2060 190 -2093 5 -28 -3 -54 -39 -130 -117 -248 -162 -503 -111
-627 64 -152 282 -177 490 -56 240 140 458 445 482 674 3 33 9 59 13 59 4 0
10 -26 13 -59 24 -226 241 -533 476 -670 210 -124 432 -102 495 49 52 126 8
381 -110 630 -36 76 -44 102 -39 130 5 33 176 1905 190 2093 l7 87 39 0 39 0
0 141 0 141 264 -4 c145 -1 268 -6 271 -10 4 -4 -15 -37 -41 -74 -27 -36 -54
-75 -61 -86 -6 -12 -15 -23 -20 -27 -5 -3 -22 -27 -38 -53 -16 -26 -36 -49
-45 -53 -8 -3 -25 -11 -37 -19 -16 -9 -37 -11 -70 -5 -63 10 -185 11 -200 1
-19 -12 1 -73 40 -123 18 -23 57 -56 87 -73 48 -27 64 -31 130 -31 115 1 197
51 247 153 l28 57 0 1325 0 1325 -22 70 c-54 172 -175 301 -342 366 -52 21
-78 23 -396 30 -187 3 -343 4 -348 0 -14 -14 -502 -1739 -493 -1748 11 -12
123 171 205 334 72 145 98 218 122 351 19 100 31 135 85 242 34 69 67 143 73
165 6 22 16 132 21 245 11 226 18 291 30 269 24 -44 232 -681 224 -688 -5 -5
-80 -27 -168 -49 -87 -23 -161 -43 -164 -46 -2 -3 38 -74 91 -158 l95 -153
-81 -85 c-243 -255 -593 -615 -597 -615 -3 0 -124 124 -269 275 -146 151 -297
309 -337 350 l-73 75 96 153 c53 84 93 155 90 158 -3 3 -78 25 -168 48 -90 23
-164 47 -166 53 -3 9 211 652 227 682 11 21 19 -50 30 -272 5 -109 12 -210 16
-225 3 -15 37 -92 75 -172 59 -124 72 -161 89 -258 11 -62 31 -140 44 -175 49
-130 202 -414 261 -482 l25 -30 -6 30 c-19 82 -469 1677 -484 1713 -9 20 -16
22 -67 20 -32 -1 -184 -5 -338 -8z m59 -333 c4 -23 -2 -63 -20 -123 -55 -186
-64 -228 -64 -308 0 -70 4 -87 28 -129 15 -26 51 -71 80 -101 58 -59 59 -64
47 -186 -7 -67 -5 -82 16 -130 54 -130 155 -252 465 -567 280 -283 324 -302
473 -202 59 40 461 454 565 582 27 34 67 100 89 146 l40 84 -7 105 -7 104 58
61 c126 132 136 210 59 472 -26 88 -46 174 -44 190 l3 30 110 3 c169 5 282
-26 345 -93 l25 -27 3 -1047 2 -1048 -88 -6 c-101 -7 -142 -19 -195 -57 -53
-39 -187 -167 -187 -180 0 -5 -4 -10 -10 -10 -5 0 -10 -7 -10 -15 0 -8 -9 -15
-20 -15 -11 0 -20 -7 -20 -15 0 -12 -19 -15 -108 -15 -138 0 -171 10 -402 120
-194 93 -269 120 -331 120 -60 0 -155 -35 -343 -125 -225 -108 -251 -115 -398
-115 -98 0 -118 3 -118 15 0 8 -7 15 -15 15 -8 0 -15 7 -15 15 0 8 -4 15 -10
15 -5 0 -10 5 -10 12 0 19 -172 182 -213 201 -45 22 -131 37 -209 37 l-58 0 0
1028 c0 1158 -7 1064 78 1125 61 45 155 66 293 66 l117 1 6 -33z m1173 -2577
l274 -140 218 0 c120 0 220 -3 224 -6 3 -3 -31 -43 -77 -87 -46 -47 -91 -101
-103 -127 -18 -39 -29 -139 -83 -740 -49 -551 -61 -724 -58 -835 l3 -140 52
-109 c38 -78 48 -106 35 -100 -111 48 -207 64 -392 64 -222 0 -321 -25 -350
-87 -8 -18 -17 -33 -20 -33 -3 0 -12 15 -20 33 -29 62 -128 87 -350 87 -185 0
-281 -16 -393 -65 -12 -5 -1 25 40 111 l58 118 3 145 c3 116 -8 271 -53 761
-31 338 -60 641 -65 672 -14 91 -56 164 -142 249 -42 42 -74 79 -71 83 4 3
106 6 227 6 l221 1 270 138 c149 76 272 139 274 140 2 0 128 -62 278 -139z
m-564 -2464 c19 -50 -91 -228 -206 -332 -63 -58 -149 -104 -195 -104 l-32 0 0
73 c0 84 18 155 63 246 48 96 77 113 200 121 165 11 165 11 170 -4z m829 -7
c49 -13 91 -65 128 -161 26 -66 30 -91 30 -173 0 -93 -1 -95 -23 -95 -46 0
-147 61 -220 133 -101 99 -199 261 -184 301 6 14 20 16 119 10 62 -3 130 -10
150 -15z M5289 3895 c-44 -100 -97 -403 -143 -830 -31 -285 -66 -686 -66 -757
l1 -53 34 37 c56 60 59 76 120 644 43 410 87 546 128 397 26 -97 37 -186 86
-683 25 -246 38 -298 93 -354 l40 -41 -6 121 c-8 144 -48 575 -76 817 -43 365
-95 639 -134 716 -24 46 -53 41 -77 -14z M5231 7009 l-94 -100 78 -79 c57 -57
76 -83 72 -97 -3 -10 -44 -112 -91 -228 -76 -186 -84 -211 -68 -217 34 -13 80
-7 126 17 57 30 101 32 141 5 35 -23 101 -35 132 -23 23 8 22 11 -63 218 -47
116 -88 218 -91 228 -4 14 15 40 72 97 l78 79 -93 98 c-51 54 -96 99 -99 100
-3 1 -48 -43 -100 -98z M5020 879 c-805 -24 -1390 -147 -1356 -284 27 -106
433 -200 1061 -247 227 -17 979 -17 1205 0 607 45 1002 133 1059 234 14 25 14
29 -5 55 -95 128 -615 219 -1391 243 -169 5 -312 9 -318 8 -5 -1 -120 -5 -255
-9z m618 -265 c30 -3 52 -8 49 -10 -7 -7 -273 -27 -357 -27 -41 0 -133 5 -205
11 -71 6 -134 11 -139 12 -5 0 -6 3 -2 8 18 17 496 22 654 6z"/>
</g>
</svg>
