<?xml version="1.0" standalone="no"?>
<!DOCTYPE svg PUBLIC "-//W3C//DTD SVG 20010904//EN"
 "http://www.w3.org/TR/2001/REC-SVG-20010904/DTD/svg10.dtd">
<svg version="1.0" xmlns="http://www.w3.org/2000/svg"
 width="2048.000000pt" height="2048.000000pt" viewBox="0 0 2048.000000 2048.000000"
 preserveAspectRatio="xMidYMid meet">
<metadata>
Created by potrace 1.13, written by Peter Selinger 2001-2015
</metadata>
<g transform="translate(0.000000,2048.000000) scale(0.192120,-0.192120)"
fill="#000000" stroke="none">
<path d="M4803 10032 c-107 -38 -197 -132 -278 -295 -61 -121 -89 -205 -171
-518 -3 -11 -29 -19 -97 -28 -106 -15 -226 -45 -271 -68 -51 -25 -95 -74 -102
-111 -17 -89 82 -165 311 -243 92 -31 111 -40 116 -60 3 -13 2 -34 -2 -45 -6
-17 2 -35 36 -79 53 -71 73 -85 91 -60 7 10 15 22 17 28 5 16 129 -30 166 -61
29 -24 35 -38 52 -127 26 -130 57 -198 101 -222 27 -15 56 -18 168 -18 225 0
254 28 314 307 9 41 32 58 80 58 57 0 72 -19 92 -116 31 -149 81 -224 162
-241 20 -4 91 -8 157 -8 103 0 125 3 155 20 43 25 71 90 96 221 22 113 48 142
153 174 66 21 73 21 90 6 10 -9 24 -16 33 -16 16 0 48 31 48 47 0 5 9 18 20
28 16 14 19 29 17 73 l-2 54 100 32 c136 44 228 90 281 140 37 36 44 48 44 82
0 21 -9 53 -20 71 -35 59 -171 110 -352 134 l-93 12 -47 172 c-79 293 -141
419 -267 546 -119 120 -197 139 -391 99 -130 -27 -281 -25 -515 5 -225 29
-225 29 -292 7z m362 -317 c165 -19 280 -19 430 0 176 22 222 8 293 -84 29
-38 33 -50 30 -95 l-3 -51 -47 -12 c-187 -46 -988 -41 -1115 8 -20 7 -23 16
-23 58 0 39 7 59 33 97 50 72 94 94 192 94 44 0 139 -7 210 -15z m-594 -424
c439 -91 1052 -93 1499 -5 69 13 128 24 133 24 4 0 7 -22 7 -49 0 -41 4 -53
25 -70 14 -11 39 -23 55 -26 26 -6 30 -11 30 -41 0 -68 -74 -107 -280 -150
-203 -42 -389 -57 -705 -57 -387 0 -648 28 -861 94 -81 25 -134 71 -134 116 0
26 5 31 39 42 56 16 84 54 76 103 -8 45 -11 45 116 19z m38 -616 c189 -33 423
-49 721 -49 303 0 466 10 699 45 110 17 135 18 142 7 15 -22 11 -26 -53 -47
-55 -18 -94 -21 -318 -25 -140 -3 -275 -9 -300 -15 -25 -6 -99 -10 -165 -10
-66 0 -140 4 -165 10 -25 6 -159 12 -299 15 -220 4 -262 7 -322 25 -54 16 -69
25 -69 40 0 23 17 24 129 4z M4215 8487 c-23 -150 55 -324 155 -343 26 -6 31
-14 55 -93 89 -287 265 -513 501 -642 41 -22 74 -46 74 -52 1 -7 64 -56 142
-110 141 -97 142 -98 155 -75 15 28 17 58 3 58 -5 0 -10 6 -10 14 0 17 -58 65
-165 136 -277 185 -349 266 -575 647 -43 73 -114 175 -157 226 -50 60 -95 128
-124 188 l-47 94 -7 -48z M6417 8499 c-10 -38 -99 -181 -150 -241 -45 -53
-183 -268 -295 -457 -71 -122 -204 -257 -357 -363 -171 -119 -245 -178 -245
-194 0 -7 -4 -14 -10 -14 -14 0 -12 -23 4 -54 l13 -26 141 98 c78 53 142 103
142 109 0 7 26 26 58 42 233 118 427 363 517 653 23 72 31 87 51 92 44 11 102
74 124 134 25 65 37 185 23 221 l-10 25 -6 -25z M5160 8142 c0 -22 48 -78 80
-94 43 -22 140 -24 179 -3 33 17 81 70 81 91 0 10 -8 12 -32 6 -45 -10 -235
-9 -275 1 -20 5 -33 5 -33 -1z M4974 7811 c-27 -27 69 -137 160 -181 185 -90
434 -35 541 120 22 32 26 43 16 53 -9 9 -102 12 -362 12 -193 0 -352 -2 -355
-4z M4375 7270 c-304 -7 -329 -11 -431 -69 -118 -68 -209 -183 -257 -321 l-22
-65 -3 -1160 -3 -1160 281 3 280 4 0 -141 0 -141 38 0 37 0 79 -867 c43 -478
89 -977 102 -1110 l23 -243 -44 -93 c-116 -245 -161 -501 -110 -624 64 -152
282 -177 490 -56 240 140 458 445 482 674 3 33 9 59 13 59 4 0 10 -26 13 -59
24 -226 241 -533 476 -670 210 -124 432 -102 495 49 52 126 8 381 -109 627
l-44 93 23 243 c13 133 59 632 102 1110 l79 867 37 0 38 0 0 141 0 141 280 -4
281 -3 -3 1160 -3 1160 -22 65 c-44 130 -121 232 -227 301 -122 80 -130 82
-511 90 -187 3 -343 4 -348 0 -14 -14 -502 -1739 -493 -1748 11 -12 123 171
205 334 72 145 98 218 122 351 19 100 31 135 85 242 34 69 67 143 73 165 6 22
16 135 22 250 16 320 12 317 96 75 128 -372 165 -492 157 -500 -5 -4 -80 -26
-168 -48 -87 -23 -161 -43 -164 -46 -2 -3 38 -74 91 -158 l95 -153 -81 -85
c-243 -255 -593 -615 -597 -615 -3 0 -124 124 -269 275 -146 151 -297 309
-337 350 l-73 75 96 153 c53 84 93 155 90 158 -3 3 -78 25 -168 48 -90 23
-164 47 -166 53 -3 9 211 652 227 682 11 21 19 -50 30 -272 5 -109 12 -210 16
-225 3 -15 37 -92 75 -172 59 -124 72 -161 89 -258 11 -62 31 -140 44 -175 49
-130 202 -414 261 -482 l25 -30 -6 30 c-9 39 -285 1026 -400 1428 l-88 307
-61 -2 c-33 -1 -186 -5 -340 -8z m59 -333 c4 -23 -2 -63 -20 -123 -55 -186
-64 -228 -64 -308 0 -70 4 -87 28 -129 15 -26 51 -71 80 -101 58 -59 59 -64
47 -186 -7 -67 -5 -82 16 -130 54 -130 155 -252 465 -567 280 -283 324 -302
473 -202 59 40 461 454 565 582 27 34 67 100 89 146 l40 84 -7 105 -7 104 58
61 c126 132 136 210 59 472 -26 88 -46 174 -44 190 l3 30 110 3 c166 5 269
-21 338 -86 l27 -26 0 -1041 0 -1042 -83 -6 c-93 -8 -136 -20 -185 -52 -45
-30 -212 -191 -212 -204 0 -6 -4 -11 -10 -11 -5 0 -10 -7 -10 -15 0 -8 -9 -15
-20 -15 -11 0 -20 -7 -20 -15 0 -12 -18 -15 -98 -15 -127 0 -165 12 -392 120
-194 93 -269 120 -331 120 -60 0 -155 -35 -343 -125 -222 -106 -252 -115 -388
-115 -89 0 -108 3 -108 15 0 8 -7 15 -15 15 -8 0 -15 7 -15 15 0 8 -4 15 -10
15 -5 0 -10 5 -10 12 0 19 -193 203 -233 222 -46 21 -132 36 -209 36 l-58 0 0
1018 c0 1147 -7 1054 78 1115 61 45 155 66 293 66 l117 1 6 -33z m1173 -2577
l274 -140 214 0 c118 0 216 -4 219 -8 3 -5 -17 -30 -45 -57 -67 -64 -113 -122
-131 -165 -25 -58 -141 -1388 -136 -1565 l3 -140 52 -109 c38 -78 48 -106 35
-100 -111 48 -207 64 -392 64 -222 0 -321 -25 -350 -87 -8 -18 -17 -33 -20
-33 -3 0 -12 15 -20 33 -29 62 -128 87 -350 87 -185 0 -281 -16 -393 -65 -12
-5 -1 25 40 111 l58 118 3 145 c3 116 -8 272 -53 761 -31 338 -60 644 -66 680
-13 86 -49 149 -136 241 -40 42 -70 79 -66 82 3 4 103 7 222 7 l216 1 270 138
c149 76 272 139 274 140 2 0 128 -62 278 -139z m-564 -2464 c19 -50 -91 -228
-206 -332 -63 -58 -149 -104 -195 -104 l-32 0 0 73 c0 84 18 155 63 246 48 96
77 113 200 121 165 11 165 11 170 -4z m829 -7 c49 -13 91 -65 128 -161 26 -66
30 -91 30 -173 0 -93 -1 -95 -23 -95 -46 0 -147 61 -220 133 -101 99 -199 261
-184 301 6 14 20 16 119 10 62 -3 130 -10 150 -15z M5289 3895 c-44 -100 -97
-403 -143 -830 -31 -285 -66 -686 -66 -757 l1 -53 34 37 c56 60 59 76 120 644
43 410 87 546 128 397 26 -97 37 -186 86 -683 25 -246 38 -298 93 -354 l40
-41 -6 121 c-8 144 -48 575 -76 817 -43 365 -95 639 -134 716 -24 46 -53 41
-77 -14z M5231 7009 l-94 -101 78 -78 c57 -57 76 -83 72 -97 -3 -10 -44 -112
-91 -228 -76 -186 -84 -211 -68 -217 34 -13 80 -7 126 17 57 30 101 32 141 5
35 -23 101 -35 132 -23 23 8 22 11 -63 218 -47 116 -88 218 -91 228 -4 14 15
40 72 97 l78 78 -94 101 c-52 56 -96 101 -99 101 -3 0 -47 -46 -99 -101z
M3665 4304 c-21 -216 88 -357 275 -358 65 -1 82 3 129 29 45 25 101 79 101 97
0 15 -72 28 -152 28 -112 0 -163 21 -213 90 -19 26 -35 52 -35 58 0 6 -6 17
-13 24 -7 7 -28 34 -47 61 -18 26 -34 47 -36 47 -1 0 -5 -34 -9 -76z M6945
4324 c-22 -32 -43 -60 -47 -62 -5 -2 -8 -10 -8 -18 0 -8 -3 -14 -8 -14 -4 0
-13 -14 -21 -31 -7 -17 -24 -35 -37 -41 -13 -6 -24 -15 -24 -19 0 -22 -63 -39
-142 -39 -78 0 -152 -11 -165 -24 -12 -12 47 -73 98 -101 47 -26 64 -30 129
-29 80 0 127 17 188 69 68 57 104 190 85 314 l-8 55 -40 -60z M5020 879 c-805
-24 -1390 -147 -1356 -284 27 -106 433 -200 1061 -247 227 -17 979 -17 1205 0
607 45 1002 133 1059 234 14 25 14 29 -5 55 -95 128 -615 219 -1391 243 -169
5 -312 9 -318 8 -5 -1 -120 -5 -255 -9z m618 -265 c30 -3 52 -8 49 -10 -7 -7
-273 -27 -357 -27 -41 0 -133 5 -205 11 -71 6 -134 11 -139 12 -5 0 -6 3 -2 8
18 17 496 22 654 6z"/>
</g>
</svg>
