<?xml version="1.0" standalone="no"?>
<!DOCTYPE svg PUBLIC "-//W3C//DTD SVG 20010904//EN"
 "http://www.w3.org/TR/2001/REC-SVG-20010904/DTD/svg10.dtd">
<svg version="1.0" xmlns="http://www.w3.org/2000/svg"
 width="2048.000000pt" height="2048.000000pt" viewBox="0 0 2048.000000 2048.000000"
 preserveAspectRatio="xMidYMid meet">
<metadata>
Created by potrace 1.13, written by Peter Selinger 2001-2015
</metadata>
<g transform="translate(0.000000,2048.000000) scale(0.192120,-0.192120)"
fill="#000000" stroke="none">
<path d="M4899 9995 c-163 -26 -306 -90 -432 -192 -132 -106 -235 -273 -279
-448 -18 -74 -22 -116 -21 -235 2 -244 53 -472 140 -625 62 -109 101 -155 192
-226 43 -33 87 -73 99 -89 32 -42 149 -134 217 -170 63 -33 73 -46 74 -94 l1
-29 25 23 c36 34 51 90 37 139 -27 88 -171 199 -302 232 -65 16 -65 17 -101
80 -19 35 -54 92 -77 127 -66 103 -77 201 -30 299 24 51 61 83 96 83 37 0 109
-80 157 -173 l39 -78 22 83 c25 94 81 226 146 342 l44 79 80 22 c167 46 319
127 487 259 l94 73 90 -67 c111 -84 165 -145 208 -235 54 -113 54 -119 4 -164
-64 -56 -89 -109 -89 -187 0 -67 -37 -241 -65 -309 -38 -90 -99 -175 -192
-270 -91 -93 -143 -169 -143 -210 0 -16 57 -85 71 -85 5 0 9 11 9 24 0 19 13
33 62 62 125 76 254 227 324 379 64 138 102 337 90 474 -5 68 -4 75 19 103 65
78 87 291 46 453 -77 299 -265 454 -650 535 -128 27 -373 35 -492 15z m361
-245 c109 -14 268 -55 300 -79 42 -31 37 -39 -65 -95 -11 -6 -48 -31 -83 -55
-110 -75 -233 -142 -347 -188 -159 -65 -241 -132 -314 -253 -18 -31 -46 -65
-63 -76 -25 -19 -35 -20 -71 -12 -66 15 -121 11 -165 -11 -41 -21 -41 -21 -52
-2 -6 12 -10 93 -10 194 l0 174 37 74 c42 84 129 175 217 228 155 92 381 129
616 101z m707 -752 c-3 -8 -6 -5 -6 6 -1 11 2 17 5 13 3 -3 4 -12 1 -19z
M8810 8731 c-14 -4 -43 -17 -65 -29 -54 -28 -318 -224 -322 -239 -3 -8 17 -14
59 -20 110 -13 155 -4 271 54 85 42 142 51 185 29 18 -9 32 -23 32 -30 0 -7 7
-19 15 -26 24 -20 19 -85 -10 -131 -14 -22 -47 -54 -72 -72 -78 -54 -123 -98
-143 -142 -22 -48 -43 -135 -36 -143 6 -5 231 124 326 187 207 137 194 426
-25 538 -53 28 -166 40 -215 24z M8205 8427 c-44 -30 -296 -191 -560 -360
l-481 -306 -484 -41 c-267 -22 -495 -42 -508 -44 -13 -2 -26 2 -28 9 -4 9 -51
15 -172 19 -92 4 -188 9 -213 12 l-46 5 -17 95 c-10 52 -22 94 -27 94 -5 0
-26 -7 -47 -16 -20 -9 -80 -31 -132 -50 -52 -19 -98 -38 -102 -42 -4 -4 -15
-114 -24 -244 -10 -131 -21 -238 -24 -238 -3 0 -33 102 -65 228 -32 125 -59
228 -59 229 -1 1 -84 9 -186 17 -102 9 -199 19 -217 21 l-31 6 -17 -119 -18
-118 -446 -112 c-245 -61 -475 -116 -511 -122 -230 -38 -548 -112 -672 -156
-278 -99 -460 -264 -522 -474 -19 -64 -22 -221 -6 -295 17 -78 50 -175 81
-235 26 -51 711 -1163 741 -1203 12 -16 26 0 144 155 72 95 155 203 183 239
l51 66 -211 449 c-268 569 -271 576 -267 579 2 2 118 24 258 50 140 26 297 55
349 66 52 11 97 17 100 14 6 -7 8 -1042 2 -1185 l-4 -95 159 -87 c175 -95 218
-130 255 -204 20 -41 24 -64 24 -139 0 -81 -3 -95 -29 -143 -33 -60 -76 -101
-139 -134 -35 -19 -58 -23 -133 -23 -87 0 -93 1 -150 37 l-59 37 -7 -37 c-5
-20 -22 -129 -39 -242 -56 -375 -150 -840 -209 -1041 -30 -102 -142 -402 -197
-529 -178 -411 -637 -1231 -1059 -1891 -118 -184 -137 -227 -138 -304 -1 -113
50 -208 143 -266 l45 -29 556 0 556 0 45 28 c98 63 149 154 149 267 0 124 -63
223 -175 276 -56 27 -69 29 -180 29 l-119 0 60 62 c81 85 175 191 403 458 321
374 577 698 714 905 172 260 455 934 633 1508 l36 117 27 -19 c55 -40 588
-570 714 -711 71 -80 169 -197 217 -261 87 -115 88 -118 113 -225 80 -338 116
-933 101 -1669 -5 -231 -8 -449 -7 -485 2 -107 51 -194 142 -252 l45 -28 556
0 556 0 45 28 c138 88 189 254 120 397 -35 73 -78 115 -151 149 -52 25 -63 26
-234 26 l-178 0 6 33 c44 215 96 574 123 852 22 227 25 796 5 955 -31 249 -90
467 -167 620 -132 262 -519 844 -997 1499 l-149 204 44 96 c99 210 158 386
211 622 59 265 95 528 103 757 6 164 7 174 27 182 12 5 203 57 426 116 223 58
484 127 580 153 l175 47 498 353 c274 193 516 364 538 378 21 14 39 29 39 34
0 5 -37 66 -82 136 -45 71 -133 211 -196 313 -62 102 -117 188 -121 192 -4 4
-43 -16 -86 -45z m57 -384 c68 -74 77 -127 29 -171 -51 -49 -660 -473 -734
-512 -91 -48 -87 -46 -607 -185 -239 -64 -459 -127 -488 -140 -78 -36 -230
-189 -276 -279 -31 -59 -36 -78 -36 -137 0 -168 -76 -609 -102 -593 -4 3 -8
141 -8 307 0 302 -2 333 -50 768 -12 108 -17 200 -14 237 l7 61 171 -6 c142
-4 234 0 541 26 204 18 402 39 440 46 102 22 202 76 560 305 176 112 356 225
399 252 94 57 130 61 168 21z m-2533 -420 c27 -102 82 -498 107 -768 30 -330
16 -766 -40 -1233 -12 -100 -12 -104 8 -118 27 -19 136 -51 201 -59 28 -3 63
-9 80 -12 l29 -5 -24 -20 c-104 -84 -140 -129 -140 -173 0 -35 29 -103 54
-128 16 -16 -25 -17 -762 -17 l-780 0 -7 39 c-10 61 -48 89 -172 127 -59 18
-105 33 -102 34 47 3 337 45 418 61 123 23 295 67 429 111 l95 30 -6 306 c-8
399 -24 523 -118 912 -58 240 -110 429 -180 652 -28 88 -48 166 -46 173 6 15
195 40 232 31 47 -12 73 -36 129 -119 64 -96 116 -149 168 -170 35 -15 38 -14
80 12 71 45 106 104 148 247 21 76 43 100 105 115 69 16 83 12 94 -28z m-1080
-409 c28 -35 70 -171 136 -433 103 -413 105 -427 105 -807 0 -183 -4 -335 -9
-338 -36 -23 -362 -90 -494 -102 l-77 -7 0 37 c0 23 -5 39 -15 42 -13 5 -15
59 -16 398 0 458 -5 521 -45 601 -32 63 -136 177 -201 220 -76 49 -177 45
-498 -22 -163 -34 -204 -55 -309 -160 -86 -88 -136 -167 -136 -218 0 -13 14
-65 31 -116 30 -89 47 -130 242 -555 93 -202 108 -251 87 -284 -7 -12 -13 -11
-36 10 -37 35 -65 77 -272 410 -101 162 -204 337 -230 389 l-47 94 -3 145 c-2
79 -1 154 2 167 10 38 98 114 186 159 144 74 293 115 727 201 125 25 359 79
518 120 160 40 300 74 312 74 12 1 31 -11 42 -25z m1242 -2385 c20 -10 53 -37
72 -59 64 -75 430 -592 623 -880 287 -430 388 -607 438 -770 56 -186 56 -183
56 -838 0 -643 -1 -664 -55 -999 -8 -51 -15 -151 -15 -222 0 -162 8 -178 143
-315 135 -136 144 -130 -202 -134 -147 -2 -283 1 -302 5 -29 8 -35 14 -40 47
-3 20 -11 42 -18 49 -8 8 -11 173 -11 612 0 330 -5 674 -10 765 -23 378 -68
669 -125 808 -86 211 -292 470 -700 877 -390 390 -518 468 -637 390 -66 -43
-181 -168 -216 -233 -18 -33 -59 -140 -93 -238 -112 -328 -283 -751 -387 -959
-136 -273 -382 -606 -860 -1162 -244 -285 -325 -389 -373 -485 -47 -94 -49
-129 -10 -206 28 -55 119 -157 168 -189 13 -9 23 -25 23 -39 0 -42 -44 -46
-413 -42 -369 3 -357 1 -357 62 0 20 62 129 204 360 491 800 869 1510 1010
1901 20 55 45 123 56 150 69 176 133 426 204 795 70 364 78 398 90 415 6 8 36
19 66 25 181 34 346 193 446 430 19 45 34 87 34 94 0 10 123 11 578 8 536 -4
580 -6 613 -23z M3516 4953 l-49 -4 24 -17 c13 -9 112 -68 219 -130 211 -122
208 -121 209 -44 2 74 -58 147 -150 182 -46 17 -144 22 -253 13z"/>
</g>
</svg>
