<?xml version="1.0" standalone="no"?>
<!DOCTYPE svg PUBLIC "-//W3C//DTD SVG 20010904//EN"
 "http://www.w3.org/TR/2001/REC-SVG-20010904/DTD/svg10.dtd">
<svg version="1.0" xmlns="http://www.w3.org/2000/svg"
 width="2048.000000pt" height="2048.000000pt" viewBox="0 0 2048.000000 2048.000000"
 preserveAspectRatio="xMidYMid meet">
<metadata>
Created by potrace 1.13, written by Peter Selinger 2001-2015
</metadata>
<g transform="translate(0.000000,2048.000000) scale(0.192120,-0.192120)"
fill="#000000" stroke="none">
<path d="M4803 10032 c-107 -38 -197 -132 -278 -295 -61 -121 -89 -205 -171
-518 -3 -11 -29 -19 -97 -28 -106 -15 -226 -45 -271 -68 -123 -62 -137 -166
-32 -241 225 -161 747 -257 1391 -256 426 1 773 41 1047 120 261 75 388 155
388 243 0 102 -124 169 -372 202 l-93 12 -47 172 c-79 293 -141 419 -267 546
-119 120 -197 139 -391 99 -130 -27 -281 -25 -515 5 -225 29 -225 29 -292 7z
m362 -317 c165 -19 280 -19 430 0 176 22 222 8 293 -84 29 -38 33 -50 30 -95
l-3 -51 -47 -12 c-187 -46 -988 -41 -1115 8 -20 7 -23 16 -23 58 0 39 7 59 33
97 50 72 94 94 192 94 44 0 139 -7 210 -15z m-594 -424 c439 -91 1052 -93
1499 -5 69 13 128 24 133 24 4 0 7 -22 7 -49 0 -41 4 -53 25 -70 14 -11 39
-23 55 -26 26 -6 30 -11 30 -41 0 -68 -74 -107 -280 -150 -203 -42 -389 -57
-705 -57 -387 0 -648 28 -861 94 -81 25 -134 71 -134 116 0 26 5 31 39 42 56
16 84 54 76 103 -8 45 -11 45 116 19z M4333 8689 c-12 -4 -24 -17 -28 -28 -13
-41 10 -58 132 -95 129 -40 174 -59 199 -87 9 -10 25 -62 36 -116 25 -128 56
-196 100 -220 27 -15 56 -18 168 -18 225 0 254 28 314 307 9 41 32 58 80 58
57 0 72 -19 92 -116 31 -149 81 -224 162 -241 20 -4 91 -8 157 -8 103 0 125 3
155 20 42 25 70 89 95 215 27 134 35 142 205 195 134 41 158 52 163 74 5 23
-13 60 -32 64 -9 1 -74 -16 -145 -40 l-130 -43 -255 -4 c-141 -3 -276 -9 -301
-15 -25 -6 -99 -10 -165 -10 -66 0 -140 4 -165 10 -25 6 -160 12 -301 15
l-255 4 -130 44 c-90 30 -136 41 -151 35z M4234 8575 c-15 -31 -19 -64 -19
-145 0 -92 3 -112 26 -160 32 -68 82 -118 125 -126 30 -6 35 -11 49 -63 83
-294 280 -552 517 -676 37 -20 68 -41 68 -48 1 -15 308 -231 329 -231 21 -1
331 216 331 231 0 7 24 25 53 39 248 125 446 382 532 686 14 48 20 58 44 63
31 7 91 65 114 110 40 82 47 235 15 314 l-13 33 -35 -83 c-20 -48 -80 -153
-141 -244 -133 -201 -284 -433 -329 -505 -48 -77 -139 -170 -240 -245 -102
-75 -295 -185 -327 -185 -32 0 -101 34 -213 104 -230 143 -299 219 -514 566
-42 69 -116 179 -163 245 -87 123 -142 222 -173 310 l-18 50 -18 -40z M5160
8141 c0 -20 48 -76 80 -92 43 -23 139 -25 179 -4 34 17 81 70 81 91 0 11 -7
13 -27 7 -35 -10 -237 -10 -280 -1 -18 4 -33 4 -33 -1z M4974 7811 c-27 -27
70 -137 160 -181 185 -90 434 -35 541 120 22 31 26 43 16 53 -8 8 -106 11
-362 12 -193 0 -353 -2 -355 -4z M4375 7270 c-304 -7 -329 -11 -431 -69 -118
-68 -209 -183 -257 -321 l-22 -65 -3 -1160 -3 -1160 281 3 280 4 0 -141 0
-141 39 0 39 0 7 -87 c14 -188 185 -2060 190 -2093 5 -28 -3 -54 -39 -130
-117 -248 -162 -503 -111 -627 64 -152 282 -177 490 -56 240 140 458 445 482
674 3 33 9 59 13 59 4 0 10 -26 13 -59 24 -226 241 -533 476 -670 210 -124
432 -102 495 49 52 126 8 381 -110 630 -36 76 -44 102 -39 130 5 33 176 1905
190 2093 l7 87 39 0 39 0 0 141 0 141 280 -4 281 -3 -3 1160 -3 1160 -22 65
c-44 130 -121 232 -227 301 -122 80 -130 82 -511 90 -187 3 -343 4 -348 0 -14
-14 -502 -1739 -493 -1748 11 -12 123 171 205 334 72 145 98 218 122 351 19
100 31 135 85 242 34 69 67 143 73 165 6 22 16 132 21 245 11 226 18 291 30
269 24 -44 232 -681 224 -688 -5 -5 -80 -27 -168 -49 -87 -23 -161 -43 -164
-46 -2 -3 38 -74 91 -158 l95 -153 -81 -85 c-243 -255 -593 -615 -597 -615 -3
0 -124 124 -269 275 -146 151 -297 309 -337 350 l-73 75 96 153 c53 84 93 155
90 158 -3 3 -78 25 -168 48 -90 23 -164 47 -166 53 -3 9 211 652 227 682 11
21 19 -50 30 -272 5 -109 12 -210 16 -225 3 -15 37 -92 75 -172 59 -124 72
-161 89 -258 11 -62 31 -140 44 -175 49 -130 202 -414 261 -482 l25 -30 -6 30
c-19 82 -469 1677 -484 1713 -9 20 -16 22 -67 20 -32 -1 -184 -5 -338 -8z m59
-333 c4 -23 -2 -63 -20 -123 -55 -186 -64 -228 -64 -308 0 -70 4 -87 28 -129
15 -26 51 -71 80 -101 58 -59 59 -64 47 -186 -7 -67 -5 -82 16 -130 54 -130
155 -252 465 -567 280 -283 324 -302 473 -202 59 40 461 454 565 582 27 34 67
100 89 146 l40 84 -7 105 -7 104 58 61 c126 132 136 210 59 472 -26 88 -46
174 -44 190 l3 30 110 3 c169 5 282 -26 345 -93 l25 -27 3 -1044 c1 -574 1
-1044 0 -1044 -2 -1 -49 -5 -105 -9 -85 -7 -111 -14 -150 -37 -54 -31 -213
-182 -213 -201 0 -7 -7 -13 -15 -13 -8 0 -15 -7 -15 -15 0 -8 -9 -15 -20 -15
-11 0 -20 -7 -20 -15 0 -12 -18 -15 -103 -15 -132 0 -168 11 -397 120 -194 93
-269 120 -331 120 -60 0 -155 -35 -343 -125 -224 -107 -251 -115 -393 -115
-94 0 -113 3 -113 15 0 8 -7 15 -15 15 -8 0 -15 4 -15 10 0 27 -169 197 -233
234 -39 23 -65 30 -150 37 -56 4 -108 8 -114 9 -10 0 -13 211 -13 1023 0 1152
-7 1059 78 1120 61 45 155 66 293 66 l117 1 6 -33z m1173 -2577 l274 -140 218
0 c120 0 220 -2 223 -5 3 -3 -32 -42 -76 -88 -45 -45 -91 -102 -103 -127 -18
-39 -29 -136 -83 -740 -49 -551 -61 -724 -58 -835 l3 -140 52 -109 c38 -78 48
-106 35 -100 -111 48 -207 64 -392 64 -222 0 -321 -25 -350 -87 -8 -18 -17
-33 -20 -33 -3 0 -12 15 -20 33 -29 62 -128 87 -350 87 -185 0 -281 -16 -393
-65 -12 -5 -1 25 40 111 l58 118 3 145 c3 116 -8 272 -53 761 -31 338 -60 641
-65 672 -14 91 -55 164 -141 250 -42 42 -74 79 -71 82 3 3 105 6 226 6 l221 1
270 138 c149 76 272 139 274 140 2 0 128 -62 278 -139z m-564 -2464 c19 -50
-91 -228 -206 -332 -63 -58 -149 -104 -195 -104 l-32 0 0 73 c0 84 18 155 63
246 48 96 77 113 200 121 165 11 165 11 170 -4z m829 -7 c49 -13 91 -65 128
-161 26 -66 30 -91 30 -173 0 -93 -1 -95 -23 -95 -46 0 -147 61 -220 133 -101
99 -199 261 -184 301 6 14 20 16 119 10 62 -3 130 -10 150 -15z M5289 3895
c-44 -100 -97 -403 -143 -830 -31 -285 -66 -686 -66 -757 l1 -53 34 37 c56 60
59 76 120 644 43 410 87 546 128 397 26 -97 37 -186 86 -683 25 -246 38 -298
93 -354 l40 -41 -6 121 c-8 144 -48 575 -76 817 -43 365 -95 639 -134 716 -24
46 -53 41 -77 -14z M5231 7009 l-94 -100 78 -79 c57 -57 76 -83 72 -97 -3 -10
-44 -112 -91 -228 -76 -186 -84 -211 -68 -217 34 -13 80 -7 126 17 57 30 101
32 141 5 35 -23 101 -35 132 -23 23 8 22 11 -63 218 -47 116 -88 218 -91 228
-4 14 15 40 72 97 l78 79 -93 98 c-51 54 -96 99 -99 100 -3 1 -48 -43 -100
-98z M3665 4384 c-22 -227 23 -345 159 -417 62 -33 174 -31 241 5 54 28 82 54
114 108 42 71 24 85 -104 80 -156 -6 -164 -5 -196 26 -17 16 -40 45 -52 64
-12 19 -27 42 -34 50 -7 8 -35 47 -63 85 -29 39 -53 71 -55 73 -2 2 -6 -31
-10 -74z M6925 4375 c-33 -47 -67 -96 -75 -107 -27 -38 -93 -100 -115 -108
-12 -5 -74 -6 -136 -4 -65 3 -120 1 -128 -4 -35 -25 35 -128 119 -176 48 -27
64 -31 130 -31 114 1 197 51 246 151 22 46 28 73 31 152 2 53 1 123 -4 155
l-8 58 -60 -86z M5020 879 c-805 -24 -1390 -147 -1356 -284 27 -106 433 -200
1061 -247 227 -17 979 -17 1205 0 607 45 1002 133 1059 234 14 25 14 29 -5 55
-95 128 -615 219 -1391 243 -169 5 -312 9 -318 8 -5 -1 -120 -5 -255 -9z m618
-265 c30 -3 52 -8 49 -10 -7 -7 -273 -27 -357 -27 -41 0 -133 5 -205 11 -71 6
-134 11 -139 12 -5 0 -6 3 -2 8 18 17 496 22 654 6z"/>
</g>
</svg>
