<?xml version="1.0" standalone="no"?>
<!DOCTYPE svg PUBLIC "-//W3C//DTD SVG 20010904//EN"
 "http://www.w3.org/TR/2001/REC-SVG-20010904/DTD/svg10.dtd">
<svg version="1.0" xmlns="http://www.w3.org/2000/svg"
 width="2048.000000pt" height="2048.000000pt" viewBox="0 0 2048.000000 2048.000000"
 preserveAspectRatio="xMidYMid meet">
<metadata>
Created by potrace 1.13, written by Peter Selinger 2001-2015
</metadata>
<g transform="translate(0.000000,2048.000000) scale(0.192120,-0.192120)"
fill="#000000" stroke="none">
<path d="M3917 10320 c-131 -22 -278 -85 -397 -169 -84 -59 -240 -215 -314
-315 -285 -382 -517 -973 -672 -1713 l-27 -133 -53 0 c-29 0 -122 -9 -206 -20
-581 -75 -959 -230 -1058 -435 -32 -65 -33 -168 -3 -235 86 -190 377 -402 797
-580 l110 -47 12 -71 c23 -135 97 -248 196 -298 78 -40 81 -35 38 66 -42 99
-62 130 -133 208 -27 30 -47 56 -45 58 2 2 65 -17 138 -41 167 -55 180 -56
180 -12 0 92 -33 134 -170 214 -52 31 -115 70 -139 86 -24 17 -161 89 -305
160 -255 128 -262 132 -339 209 -80 81 -97 108 -97 159 0 23 9 35 40 57 21 15
39 35 40 44 1 46 274 138 573 193 76 14 143 29 150 35 7 6 41 32 77 59 36 26
94 76 128 110 47 46 61 56 57 39 -15 -71 -25 -148 -25 -198 0 -177 164 -285
596 -394 397 -100 827 -146 1536 -166 309 -9 944 -1 1138 15 36 3 137 10 225
15 559 37 1073 113 1521 224 445 111 598 177 662 286 24 40 27 55 25 124 l-2
79 57 -57 c67 -67 161 -126 202 -126 16 0 35 -6 42 -13 7 -8 47 -17 88 -21
112 -11 263 -43 336 -72 79 -32 144 -78 144 -103 0 -10 9 -26 20 -36 15 -14
20 -31 20 -72 0 -145 -119 -261 -455 -444 -33 -18 -94 -56 -135 -84 -41 -28
-113 -75 -160 -103 -93 -55 -133 -92 -149 -135 -16 -43 -14 -97 5 -104 9 -3
77 15 152 41 75 26 146 50 157 53 12 4 -1 -17 -39 -62 -31 -37 -64 -77 -72
-89 -21 -32 -95 -218 -89 -224 12 -12 110 46 151 90 65 69 114 194 114 288 0
26 8 32 113 82 471 228 706 522 633 794 -67 251 -348 399 -803 422 -76 4 -183
5 -238 2 -55 -3 -101 -5 -102 -4 -2 0 -12 44 -23 97 -42 208 -213 756 -320
1026 -259 658 -659 1102 -1095 1217 -50 13 -106 18 -195 18 -109 0 -145 -4
-285 -37 -268 -62 -401 -78 -675 -84 -288 -6 -384 2 -1028 83 -422 53 -527 60
-625 44z m661 -289 c582 -73 620 -76 917 -76 305 0 407 10 740 76 233 45 331
50 449 19 243 -62 477 -263 681 -586 110 -176 182 -327 315 -670 57 -147 80
-180 193 -269 42 -32 74 -62 71 -66 -15 -25 -687 -211 -973 -270 -451 -93
-1466 -160 -2202 -145 -610 12 -990 42 -1344 107 -140 26 -655 144 -719 165
l-48 16 85 82 c100 96 116 125 187 341 214 651 498 1090 805 1248 183 94 283
97 843 28z m3254 -1888 c9 -10 26 -47 38 -83 12 -36 31 -84 41 -107 11 -24 19
-63 19 -87 0 -38 -4 -48 -30 -66 -49 -35 -173 -75 -429 -139 -656 -165 -1355
-242 -2321 -257 -844 -14 -1595 45 -2045 161 -209 53 -346 105 -392 148 -20
17 -23 31 -23 89 0 74 8 95 68 185 27 42 40 53 61 53 15 0 137 -25 272 -55
408 -91 644 -124 1104 -157 242 -17 1319 -17 1590 0 480 31 809 63 1055 102
208 34 375 74 860 206 104 28 113 29 132 7z M2550 6503 c-75 -23 -98 -36 -109
-60 -16 -35 -15 -166 1 -197 7 -13 51 -54 98 -89 97 -73 173 -151 195 -199 8
-18 33 -121 56 -228 111 -533 221 -776 388 -859 151 -75 437 -108 773 -91 427
22 587 69 730 212 154 154 233 341 328 775 48 219 62 248 143 287 114 56 250
56 365 0 79 -39 95 -70 137 -267 94 -439 178 -640 333 -795 143 -143 303 -190
730 -212 332 -17 628 17 772 90 164 83 275 320 379 816 28 131 58 254 66 272
22 48 88 116 190 195 50 38 95 79 102 91 16 27 17 167 2 200 -15 33 -88 61
-154 61 -27 -1 -131 -22 -230 -47 -605 -157 -1406 -253 -2300 -278 -442 -12
-912 -12 -1100 0 -623 41 -1231 143 -1760 295 -120 34 -118 34 -135 28z m5238
-325 c2 -10 -19 -62 -47 -117 -50 -100 -59 -130 -131 -441 -83 -360 -159 -495
-301 -538 -112 -35 -251 -45 -518 -39 -488 11 -627 60 -745 266 -47 81 -77
160 -115 303 -41 156 -61 269 -54 310 l5 35 122 7 c533 29 1113 101 1541 190
116 24 217 43 225 42 8 -1 16 -9 18 -18z m-4577 -68 c471 -96 1075 -169 1399
-170 47 0 101 -3 122 -6 35 -6 36 -8 40 -53 11 -119 -94 -481 -173 -599 -128
-190 -251 -229 -739 -239 -276 -5 -393 4 -518 42 -153 46 -220 194 -348 770
-18 82 -26 106 -71 203 -32 69 -40 102 -27 114 3 3 31 0 62 -8 31 -7 145 -32
253 -54z M2357 6179 c-36 -116 -47 -186 -47 -300 0 -245 70 -363 287 -483 0
-1 11 -57 23 -126 36 -211 124 -546 150 -574 5 -5 28 3 54 18 44 25 46 29 46
71 0 28 -17 89 -45 164 -24 66 -63 184 -85 262 -49 173 -62 201 -110 242 -48
40 -55 78 -72 339 -9 149 -15 188 -26 188 -8 0 -29 15 -47 33 -25 25 -41 59
-67 142 l-35 108 -26 -84z M8256 6179 c-35 -124 -74 -191 -122 -209 -19 -8
-22 -19 -28 -137 -4 -70 -14 -177 -21 -237 -14 -103 -16 -111 -48 -140 -48
-43 -69 -91 -117 -256 -23 -79 -56 -184 -75 -234 -48 -131 -58 -171 -51 -200
7 -30 82 -84 95 -70 31 32 132 436 166 661 6 38 11 44 52 64 65 31 155 119
186 181 47 95 60 168 54 313 -5 127 -38 290 -64 316 -7 7 -16 -11 -27 -52z
M5163 4769 c-43 -9 -80 -36 -97 -74 -22 -45 -20 -80 5 -125 37 -66 54 -70 262
-70 l185 0 32 26 c61 52 74 107 41 172 -33 64 -59 72 -240 75 -88 1 -173 -1
-188 -4z M2571 4609 c-240 -33 -340 -79 -344 -159 -3 -88 109 -565 248 -1050
55 -193 330 -1043 361 -1116 3 -8 -34 -13 -118 -17 -574 -28 -1111 -384 -1376
-913 -131 -261 -182 -506 -182 -876 l0 -148 4172 0 4171 0 -6 223 c-4 157 -12
257 -26 341 -64 367 -262 720 -538 962 -284 248 -639 394 -995 411 -71 3 -128
9 -128 12 0 4 47 148 105 321 192 574 300 944 415 1417 33 137 71 284 85 329
29 95 30 96 9 139 -30 63 -132 99 -377 130 -187 24 -163 38 -231 -136 -32 -82
-66 -158 -75 -169 -29 -33 -448 -125 -801 -174 -265 -37 -484 -55 -820 -66
-168 -6 -414 -15 -546 -20 -148 -5 -341 -5 -495 0 -140 5 -387 14 -549 20
-386 14 -594 33 -925 85 -336 54 -670 131 -693 162 -7 10 -38 84 -70 165 l-57
148 -40 -1 c-22 -1 -100 -9 -174 -20z m5734 -231 c-4 -13 -38 -72 -75 -133
-99 -159 -99 -159 -190 -505 -59 -224 -142 -501 -275 -915 -119 -371 -128
-405 -123 -485 3 -57 9 -73 46 -128 49 -71 122 -133 184 -156 24 -9 98 -25
165 -36 544 -91 936 -388 1130 -858 72 -174 85 -236 90 -415 5 -154 5 -157
-16 -157 -12 0 -21 -6 -21 -15 0 -13 -236 -15 -2060 -15 -1475 0 -2073 -3
-2107 -11 -69 -16 -127 -44 -187 -89 -29 -22 -58 -40 -63 -40 -18 0 -105 338
-223 870 -72 325 -110 540 -113 642 -2 69 0 79 23 103 64 69 181 135 600 335
481 230 580 290 580 351 0 58 -73 172 -212 331 -40 46 -206 218 -369 383 -249
252 -299 308 -310 343 -11 37 -10 48 4 76 22 46 114 91 241 117 l98 20 82 -40
c44 -21 99 -44 121 -50 25 -7 155 -11 343 -11 222 0 302 -3 302 -12 0 -24 381
4 654 48 247 40 452 96 790 214 66 23 183 57 261 75 177 41 434 115 540 154
97 36 98 37 90 9z m-5785 -48 c250 -84 542 -152 851 -200 125 -19 280 -57 477
-117 46 -14 98 -26 115 -28 18 -2 99 -15 180 -29 82 -14 163 -26 180 -26 18 0
91 19 162 41 128 41 133 42 305 47 96 2 173 2 170 -1 -3 -3 -47 -13 -97 -22
-170 -29 -292 -77 -328 -127 -20 -29 -19 -71 1 -111 10 -18 152 -169 318 -337
427 -433 566 -606 566 -704 0 -53 -119 -124 -540 -325 -523 -248 -651 -326
-666 -406 -16 -89 66 -510 242 -1240 41 -170 76 -318 78 -327 4 -16 2 -16 -28
-1 -17 9 -47 26 -68 39 -20 13 -69 40 -110 61 l-73 38 -1372 3 c-1206 2 -1373
4 -1373 17 0 11 -12 15 -46 15 l-46 0 4 178 c4 168 6 182 37 277 124 373 390
682 724 840 133 63 253 101 417 130 80 15 164 35 188 45 52 23 151 115 192
180 26 41 30 55 30 121 0 89 -11 129 -140 529 -140 433 -170 532 -249 827 -81
300 -101 355 -175 473 -75 121 -93 152 -101 179 -6 21 -5 23 11 17 11 -5 84
-30 164 -56z"/>
</g>
</svg>
