<?xml version="1.0" standalone="no"?>
<!DOCTYPE svg PUBLIC "-//W3C//DTD SVG 20010904//EN"
 "http://www.w3.org/TR/2001/REC-SVG-20010904/DTD/svg10.dtd">
<svg version="1.0" xmlns="http://www.w3.org/2000/svg"
 width="2048.000000pt" height="2048.000000pt" viewBox="0 0 2048.000000 2048.000000"
 preserveAspectRatio="xMidYMid meet">
<metadata>
Created by potrace 1.13, written by Peter Selinger 2001-2015
</metadata>
<g transform="translate(0.000000,2048.000000) scale(0.192120,-0.192120)"
fill="#000000" stroke="none">
<path d="M4690 7254 c-1828 -115 -3309 -667 -3865 -1439 -73 -101 -157 -274
-187 -385 -20 -73 -23 -108 -22 -245 0 -143 3 -169 27 -250 173 -579 837
-1077 1897 -1423 854 -279 1860 -415 2945 -399 515 8 865 34 1310 98 1462 211
2598 722 3053 1372 61 87 137 246 169 352 23 80 26 107 27 250 1 193 -16 270
-98 440 -72 149 -158 267 -296 405 -674 676 -2085 1136 -3769 1230 -249 14
-938 10 -1191 -6z m955 -264 c1428 -54 2764 -399 3520 -911 324 -219 524 -461
587 -712 17 -68 20 -101 15 -207 -3 -69 -10 -139 -17 -156 l-11 -32 -110 79
c-751 537 -1949 928 -3244 1058 -404 41 -522 46 -1050 46 -545 0 -681 -6
-1100 -51 -1288 -136 -2461 -522 -3202 -1052 l-112 -80 -11 32 c-7 17 -14 87
-17 156 -5 106 -2 139 15 208 118 467 711 898 1662 1210 733 240 1659 393
2515 415 244 6 315 6 560 -3z m75 -1120 c390 -16 678 -42 1025 -91 690 -98
1248 -243 1856 -482 118 -46 254 -97 304 -112 112 -34 223 -89 445 -223 96
-57 201 -118 233 -134 61 -31 65 -40 43 -93 -83 -198 -505 -515 -966 -725
-707 -323 -1580 -522 -2645 -602 -231 -17 -1132 -17 -1365 0 -1441 108 -2591
449 -3289 975 -181 137 -339 312 -344 382 -2 25 5 33 43 53 25 14 126 73 225
132 222 133 357 201 455 230 41 13 177 62 301 111 260 101 403 151 609 214
910 277 2015 408 3070 365z M1672 6103 c-24 -39 -57 -104 -74 -145 -29 -66
-32 -85 -36 -198 -4 -118 -3 -127 20 -160 21 -32 123 -98 134 -88 2 3 3 153 2
334 l-3 329 -43 -72z M8940 5843 c0 -183 2 -333 4 -333 35 0 146 80 146 106 0
8 5 14 10 14 12 0 14 207 1 214 -4 3 -11 22 -14 43 -7 40 -94 222 -127 263
l-20 25 0 -332z"/>
</g>
</svg>
