<?xml version="1.0" standalone="no"?>
<!DOCTYPE svg PUBLIC "-//W3C//DTD SVG 20010904//EN"
 "http://www.w3.org/TR/2001/REC-SVG-20010904/DTD/svg10.dtd">
<svg version="1.0" xmlns="http://www.w3.org/2000/svg"
 width="2048.000000pt" height="2048.000000pt" viewBox="0 0 2048.000000 2048.000000"
 preserveAspectRatio="xMidYMid meet">
<metadata>
Created by potrace 1.13, written by Peter Selinger 2001-2015
</metadata>
<g transform="translate(0.000000,2048.000000) scale(0.192120,-0.192120)"
fill="#000000" stroke="none">
<path d="M4899 9995 c-219 -36 -422 -150 -549 -308 -67 -84 -135 -223 -162
-332 -19 -74 -22 -115 -21 -235 2 -244 53 -472 140 -625 62 -109 101 -155 192
-226 43 -33 88 -73 100 -90 31 -41 155 -138 223 -174 63 -33 56 -17 74 -162
l5 -43 -30 5 c-17 3 -44 7 -60 10 l-29 4 -18 -117 -17 -118 -446 -112 c-245
-61 -475 -116 -511 -122 -230 -38 -548 -112 -672 -156 -278 -99 -460 -264
-522 -474 -19 -64 -22 -221 -6 -295 16 -74 50 -174 77 -228 40 -81 743 -1211
763 -1228 11 -10 130 -81 265 -159 137 -79 245 -148 245 -156 0 -28 -81 -523
-116 -709 -75 -399 -122 -580 -220 -845 -90 -241 -136 -345 -285 -640 -215
-425 -558 -1020 -885 -1531 -118 -184 -137 -227 -138 -304 -1 -113 50 -208
143 -266 l45 -29 556 0 556 0 45 28 c98 63 149 154 149 267 0 124 -63 223
-175 276 -56 27 -69 29 -180 29 l-119 0 60 63 c81 84 175 190 403 457 321 374
577 698 714 905 172 260 455 934 633 1508 l36 117 27 -19 c55 -40 588 -570
714 -711 71 -80 169 -197 217 -261 87 -115 88 -118 113 -225 80 -338 116 -933
101 -1669 -5 -231 -8 -449 -7 -485 2 -107 51 -194 142 -252 l45 -28 556 0 556
0 45 28 c138 88 189 254 120 397 -35 73 -78 115 -151 149 -52 25 -63 26 -234
26 l-178 0 6 33 c44 215 96 574 123 852 22 227 25 796 5 955 -31 249 -90 467
-167 620 -132 262 -519 844 -997 1499 l-149 204 44 96 c99 210 158 386 211
622 59 265 95 528 103 757 6 164 7 174 27 182 12 5 203 57 426 116 223 58 484
127 580 153 l175 47 498 353 c274 193 516 364 538 378 21 14 39 30 39 35 0 4
-12 26 -26 48 -15 22 -25 42 -23 43 2 2 103 62 225 135 230 136 270 169 308
251 32 69 29 189 -6 256 -31 60 -86 114 -148 146 -37 20 -60 24 -130 24 -106
0 -116 -5 -354 -179 -99 -72 -186 -135 -193 -139 -9 -6 -20 3 -34 27 l-20 35
-82 -53 c-45 -29 -298 -190 -562 -359 l-481 -306 -484 -41 c-267 -22 -495 -42
-508 -44 -13 -2 -26 2 -28 9 -4 9 -51 15 -172 19 -92 4 -188 9 -213 12 l-46 5
-17 95 c-10 52 -22 94 -26 94 -4 0 -40 -14 -80 -31 -40 -17 -73 -29 -75 -27
-1 2 -6 35 -10 73 l-6 70 76 50 c177 115 311 312 372 544 20 77 26 124 28 238
2 127 4 144 24 168 62 80 82 292 42 450 -77 300 -265 454 -650 535 -128 27
-373 35 -492 15z m401 -315 c161 -26 160 -54 -10 -167 -88 -59 -131 -82 -236
-123 -42 -17 -98 -43 -123 -58 -49 -28 -174 -148 -234 -222 l-36 -45 -97 -5
c-96 -5 -97 -5 -106 20 -5 14 -8 79 -6 145 4 109 7 125 32 171 40 75 79 118
149 168 75 53 159 89 253 109 81 18 319 22 414 7z m406 -278 c45 -33 100 -82
123 -109 42 -47 111 -176 111 -206 0 -9 -19 -26 -42 -38 -106 -53 -148 -114
-148 -214 0 -97 -36 -240 -86 -343 -41 -85 -60 -110 -173 -226 -70 -72 -136
-144 -148 -161 -36 -52 -83 -145 -83 -164 0 -12 -11 -23 -32 -30 -30 -11 -35
-10 -53 14 -12 14 -25 25 -30 25 -6 1 -34 34 -64 75 -52 73 -152 178 -200 211
-82 58 -186 94 -270 94 -38 0 -39 1 -109 114 -43 67 -76 133 -82 162 -27 118
39 264 118 264 37 0 109 -80 157 -174 l40 -79 8 34 c24 99 63 203 113 302 87
175 85 172 151 186 145 32 335 131 501 262 53 42 102 73 107 69 6 -4 47 -34
91 -68z m3177 -962 c39 -46 12 -92 -98 -167 -79 -55 -114 -104 -155 -219 l-27
-76 -70 108 c-78 122 -153 247 -153 256 0 3 38 3 84 1 95 -6 200 19 270 64 37
24 99 51 121 52 6 1 18 -8 28 -19z m-554 -370 c40 -41 49 -88 25 -137 -16 -31
-80 -80 -364 -281 -349 -246 -433 -300 -518 -332 -26 -10 -252 -73 -502 -139
-250 -67 -479 -133 -508 -146 -78 -36 -230 -189 -276 -279 -31 -59 -36 -78
-36 -137 0 -168 -76 -609 -102 -593 -4 3 -8 141 -8 307 0 302 -2 333 -50 768
-12 108 -17 200 -14 237 l7 61 171 -6 c142 -4 234 0 541 26 204 18 402 39 440
46 105 22 202 76 630 349 215 137 408 257 430 267 60 28 98 24 134 -11z
m-2787 -384 c19 -13 49 -20 102 -24 l76 -5 9 -36 c27 -101 82 -498 107 -766
30 -330 16 -766 -40 -1233 -12 -100 -12 -104 8 -118 27 -19 136 -51 201 -59
117 -15 114 -9 37 -81 -89 -82 -101 -108 -79 -178 9 -28 26 -62 37 -74 l21
-22 -817 0 c-781 0 -816 -1 -801 -18 35 -39 57 -106 57 -178 0 -164 -120 -291
-285 -302 -91 -6 -151 16 -140 50 19 63 17 115 -5 159 -34 66 -135 160 -213
197 -98 47 -110 51 -209 62 -88 10 -92 10 -116 -12 -29 -27 20 42 161 225 54
70 101 127 104 127 3 0 1 -6 -5 -12 -7 -9 -4 -29 13 -67 42 -101 102 -151 179
-151 45 0 80 32 95 86 l11 39 102 3 c245 6 579 68 876 164 l95 30 -6 306 c-8
399 -24 523 -118 912 -58 240 -110 429 -180 652 -28 88 -48 166 -46 172 3 7
33 17 67 24 95 17 124 53 136 166 l7 66 72 0 c40 0 92 -3 117 -6 l44 -6 59
-224 c32 -124 62 -221 65 -217 4 5 13 91 20 193 19 273 18 271 60 285 l35 12
30 -61 c16 -33 42 -69 57 -80z m-893 -472 c28 -35 70 -171 136 -433 103 -413
105 -427 105 -807 0 -183 -4 -335 -9 -338 -32 -20 -494 -116 -557 -116 -9 0
-14 11 -14 29 0 16 -7 36 -15 45 -13 12 -15 72 -16 408 0 216 -4 427 -8 469
-11 99 -47 171 -131 259 -92 95 -135 121 -213 127 -101 8 -470 -59 -563 -103
-69 -33 -216 -182 -249 -252 -31 -67 -31 -81 0 -177 33 -101 55 -151 224 -516
108 -236 141 -315 141 -347 0 -106 -26 -73 -338 428 -101 162 -204 337 -230
389 l-47 94 -3 145 c-2 79 -1 154 2 167 10 38 98 114 186 159 144 74 293 115
727 201 125 25 359 79 518 120 160 40 300 74 312 74 12 1 31 -11 42 -25z
m-624 -811 c8 -205 2 -1069 -7 -1078 -2 -3 -54 23 -116 58 l-111 62 -157 335
c-86 184 -195 415 -241 513 -47 98 -83 180 -81 182 1 1 140 28 308 59 168 32
321 61 340 66 19 4 40 8 46 9 8 1 14 -61 19 -206z m1861 -1570 c23 -12 58 -41
77 -63 64 -75 430 -592 623 -880 287 -430 388 -607 438 -770 56 -186 56 -183
56 -838 0 -643 -1 -664 -55 -999 -8 -51 -15 -151 -15 -222 0 -162 8 -178 143
-315 135 -136 144 -130 -202 -134 -147 -2 -283 1 -302 5 -29 8 -35 14 -40 47
-3 20 -11 42 -18 49 -8 8 -11 173 -11 612 0 330 -5 674 -10 765 -23 378 -68
669 -125 808 -86 211 -292 470 -700 877 -390 390 -518 468 -637 390 -66 -43
-181 -168 -216 -233 -18 -33 -59 -140 -93 -238 -112 -328 -283 -751 -387 -959
-136 -273 -382 -606 -860 -1162 -244 -285 -325 -389 -373 -485 -47 -94 -49
-129 -10 -206 28 -55 119 -157 168 -189 13 -9 23 -25 23 -39 0 -42 -44 -46
-413 -42 -369 3 -357 1 -357 62 0 20 62 129 204 360 491 800 869 1510 1010
1901 20 55 45 123 56 150 82 211 156 517 254 1056 18 102 40 199 47 214 11 22
30 33 96 55 102 34 163 78 232 167 37 49 103 178 123 241 l13 43 610 -3 c608
-3 610 -3 651 -25z M4230 5180 c0 -45 46 -80 106 -80 48 0 40 17 -26 58 -55
32 -80 40 -80 22z"/>
</g>
</svg>
