<?xml version="1.0" standalone="no"?>
<!DOCTYPE svg PUBLIC "-//W3C//DTD SVG 20010904//EN"
 "http://www.w3.org/TR/2001/REC-SVG-20010904/DTD/svg10.dtd">
<svg version="1.0" xmlns="http://www.w3.org/2000/svg"
 width="2048.000000pt" height="2048.000000pt" viewBox="0 0 2048.000000 2048.000000"
 preserveAspectRatio="xMidYMid meet">
<metadata>
Created by potrace 1.13, written by Peter Selinger 2001-2015
</metadata>
<g transform="translate(0.000000,2048.000000) scale(0.192120,-0.192120)"
fill="#000000" stroke="none">
<path d="M3917 10320 c-131 -22 -278 -85 -397 -169 -84 -59 -240 -215 -314
-315 -285 -382 -517 -973 -672 -1713 l-27 -133 -53 0 c-29 0 -122 -9 -206 -20
-581 -75 -959 -230 -1058 -435 -32 -65 -33 -168 -3 -235 50 -111 163 -224 341
-342 97 -65 354 -198 479 -248 l81 -33 11 -58 c25 -123 116 -256 219 -316 24
-14 45 -24 46 -22 2 2 -12 45 -32 94 -33 82 -45 99 -131 189 -53 55 -87 96
-76 92 74 -27 345 -116 353 -116 18 0 24 55 11 103 -15 61 -71 113 -180 168
-46 22 -101 53 -123 67 -23 14 -162 86 -311 161 -265 132 -271 136 -348 213
-80 81 -97 108 -97 159 0 23 9 35 40 57 21 15 39 35 40 44 1 46 274 138 573
193 76 14 143 29 150 35 7 6 41 32 77 59 36 26 94 76 128 110 47 46 61 56 57
39 -15 -71 -25 -148 -25 -198 0 -177 164 -285 596 -394 397 -100 827 -146
1536 -166 309 -9 944 -1 1138 15 36 3 137 10 225 15 559 37 1073 113 1521 224
445 111 598 177 662 286 24 40 27 55 25 124 l-2 79 57 -57 c67 -67 161 -126
202 -126 16 0 35 -6 42 -13 7 -8 47 -17 88 -21 112 -11 263 -43 336 -72 79
-32 144 -78 144 -103 0 -10 9 -26 20 -36 31 -28 27 -111 -7 -182 -49 -99 -141
-172 -408 -323 -55 -31 -140 -82 -190 -112 -49 -30 -114 -67 -143 -82 -77 -39
-140 -100 -153 -149 -11 -42 -5 -107 11 -107 14 0 274 88 325 110 26 11 49 20
51 20 3 0 -35 -44 -83 -98 -77 -87 -93 -110 -126 -193 -20 -52 -37 -98 -37
-102 0 -19 86 42 135 95 63 67 102 144 125 241 l17 70 129 66 c349 178 544
366 599 576 65 250 -101 471 -420 564 -167 48 -409 72 -620 61 -55 -3 -101 -5
-102 -4 -2 0 -12 45 -23 100 -43 207 -213 753 -320 1023 -259 658 -659 1102
-1095 1217 -50 13 -106 18 -195 18 -109 0 -145 -4 -285 -37 -268 -62 -401 -78
-675 -84 -288 -6 -384 2 -1028 83 -422 53 -527 60 -625 44z m661 -289 c582
-73 620 -76 917 -76 305 0 407 10 740 76 233 45 331 50 449 19 243 -62 477
-263 681 -586 110 -176 182 -327 315 -670 57 -147 80 -180 193 -269 42 -32 74
-62 71 -66 -13 -22 -595 -186 -894 -253 -459 -102 -1213 -160 -2070 -160 -710
0 -1142 29 -1555 105 -140 26 -655 144 -719 165 l-48 16 85 82 c100 96 116
125 187 341 214 651 498 1090 805 1248 183 94 283 97 843 28z m3254 -1888 c9
-10 26 -47 38 -83 12 -36 31 -84 41 -107 11 -24 19 -63 19 -88 0 -41 -3 -47
-37 -69 -112 -73 -671 -210 -1129 -275 -508 -73 -978 -107 -1614 -117 -844
-14 -1595 45 -2045 161 -209 53 -346 105 -392 148 -20 17 -23 31 -23 89 0 74
8 95 68 185 28 42 40 53 62 53 15 0 125 -22 246 -49 651 -146 982 -176 1914
-176 593 0 740 5 1195 41 599 46 807 85 1525 280 104 28 113 29 132 7z M2550
6503 c-74 -23 -98 -36 -109 -59 -15 -33 -14 -173 2 -201 7 -12 50 -50 97 -86
97 -73 173 -151 195 -199 8 -18 33 -121 56 -228 111 -533 220 -775 388 -859
128 -65 320 -93 626 -93 307 1 601 39 712 93 64 31 152 100 199 156 137 162
205 333 294 740 48 219 62 248 143 287 114 56 250 56 365 0 79 -39 95 -70 137
-267 94 -439 178 -640 333 -795 143 -143 303 -190 730 -212 332 -17 628 17
772 90 164 83 275 320 379 816 28 131 58 254 66 272 22 48 88 116 190 195 50
38 95 79 102 91 16 27 17 167 2 200 -13 28 -68 53 -134 62 -29 5 -68 -1 -131
-19 -571 -163 -1505 -284 -2374 -306 -456 -12 -965 -12 -1140 -1 -625 41
-1233 142 -1765 295 -120 34 -118 34 -135 28z m5229 -312 c16 -10 9 -37 -28
-100 -15 -25 -33 -62 -41 -81 -7 -19 -17 -39 -21 -45 -4 -5 -17 -53 -29 -105
-105 -455 -147 -585 -217 -675 -55 -69 -72 -81 -166 -104 -218 -56 -711 -49
-951 14 -199 52 -311 205 -395 542 -38 152 -56 262 -48 295 7 25 9 25 124 32
629 36 1212 114 1753 235 3 0 11 -3 19 -8z m-4568 -81 c488 -99 956 -155 1446
-173 51 -2 96 -7 100 -11 16 -16 5 -154 -21 -260 -75 -303 -174 -476 -309
-540 -220 -103 -935 -114 -1126 -17 -73 38 -137 135 -185 283 -21 68 -38 133
-115 453 -16 70 -46 158 -70 209 -24 50 -39 96 -36 106 5 17 10 17 63 4 31 -7
145 -32 253 -54z M2310 6043 c-34 -103 -95 -302 -135 -443 -316 -1097 -388
-1868 -208 -2223 72 -144 270 -268 525 -328 l95 -23 122 -365 c67 -202 125
-371 127 -377 3 -8 -35 -13 -118 -17 -574 -28 -1111 -384 -1376 -913 -131
-261 -182 -506 -182 -876 l0 -148 4172 0 4171 0 -6 223 c-4 157 -12 257 -26
341 -64 367 -262 720 -538 962 -284 248 -639 394 -995 411 -71 3 -128 9 -128
12 0 3 57 175 125 381 147 439 285 911 385 1316 39 159 82 328 96 376 28 93
26 117 -10 156 -45 50 -117 72 -340 102 -83 12 -159 22 -169 23 -14 2 -31 -31
-81 -157 -36 -87 -70 -164 -78 -171 -16 -16 -254 -74 -463 -114 -375 -72 -700
-106 -1140 -121 -159 -5 -418 -15 -576 -21 -157 -6 -296 -8 -310 -5 -13 3
-206 10 -429 16 -652 17 -933 42 -1400 126 -177 32 -488 108 -502 122 -6 6
-40 82 -74 169 -51 127 -67 158 -81 156 -286 -36 -406 -58 -463 -88 -42 -22
-70 -63 -70 -102 0 -108 107 -560 256 -1083 47 -162 87 -301 89 -308 3 -7 -57
44 -132 115 -258 242 -271 256 -308 335 -60 131 -67 185 -72 562 -6 381 -5
391 62 591 23 72 71 244 105 384 66 271 109 416 142 469 38 61 51 38 79 -135
24 -155 65 -351 86 -417 9 -26 30 -69 47 -94 30 -45 153 -158 162 -149 3 3
-13 72 -36 153 -85 308 -139 645 -156 965 l-7 137 -39 11 c-33 10 -43 20 -63
62 -12 28 -31 82 -41 120 -10 38 -21 69 -25 69 -4 0 -35 -84 -69 -187z m384
-1452 c12 -5 -9 -11 -65 -20 -113 -17 -226 -40 -274 -56 -37 -13 -38 -13 -20
2 70 54 292 100 359 74z m5438 -6 c85 -15 170 -44 182 -63 3 -6 -13 -4 -37 3
-23 7 -104 23 -179 36 -75 13 -132 27 -125 31 18 12 65 10 159 -7z m-5602
-259 c183 -60 366 -107 605 -155 110 -23 236 -52 280 -65 44 -13 132 -40 195
-60 63 -19 133 -39 155 -45 22 -5 67 -17 100 -27 33 -9 80 -18 105 -19 25 -1
116 -12 203 -25 l157 -24 123 42 c154 52 214 62 351 61 l111 -1 -87 -18 c-159
-33 -259 -75 -293 -122 -20 -29 -19 -71 1 -111 10 -18 152 -169 318 -337 427
-433 566 -606 566 -704 0 -53 -119 -124 -540 -325 -523 -248 -651 -326 -666
-406 -16 -89 66 -510 242 -1240 41 -170 76 -318 78 -327 4 -16 2 -16 -28 -1
-17 9 -47 26 -68 39 -20 13 -69 40 -110 61 l-73 38 -1372 3 c-1206 2 -1373 4
-1373 17 0 11 -12 15 -46 15 l-46 0 4 178 c4 168 6 182 37 277 124 373 390
682 724 840 133 63 253 101 417 130 80 15 164 35 188 45 52 23 151 115 192
180 26 41 30 55 30 121 0 44 -8 105 -20 149 -33 120 -160 492 -180 525 -37 61
-90 175 -120 255 -25 68 -110 364 -167 580 -40 155 -95 288 -154 371 -27 38
-79 151 -79 171 0 14 9 12 53 -13 28 -16 113 -49 187 -73z m5826 73 c-3 -17
-38 -85 -77 -151 -86 -144 -96 -174 -189 -521 -94 -355 -127 -453 -215 -637
-45 -94 -98 -227 -134 -340 -91 -279 -104 -333 -99 -409 3 -58 9 -74 46 -129
49 -71 122 -133 184 -156 24 -9 98 -25 165 -36 544 -91 936 -388 1130 -858 72
-174 85 -236 90 -415 5 -154 5 -157 -16 -157 -12 0 -21 -6 -21 -15 0 -13 -236
-15 -2060 -15 -1475 0 -2073 -3 -2107 -11 -69 -16 -127 -44 -187 -89 -29 -22
-58 -40 -63 -40 -18 0 -105 338 -223 870 -72 325 -110 540 -113 642 -2 69 0
79 23 103 64 69 181 135 600 335 481 230 580 290 580 351 0 58 -73 172 -212
331 -40 46 -206 218 -369 383 -323 327 -337 346 -309 415 18 43 94 84 206 111
l92 22 84 -41 c136 -67 138 -67 491 -66 177 1 317 -2 317 -7 0 -23 333 -6 605
32 383 52 738 149 1014 275 40 19 119 46 175 60 218 54 529 154 576 184 22 14
23 13 16 -21z M8255 6144 c-44 -143 -71 -184 -122 -184 -17 0 -20 -16 -31
-187 -21 -319 -69 -601 -152 -907 -23 -81 -39 -150 -38 -152 2 -2 32 19 66 47
108 87 133 149 203 504 31 154 55 255 65 265 36 36 63 -42 174 -487 38 -155
86 -324 106 -375 71 -184 67 -153 71 -525 7 -576 -16 -650 -267 -863 -163
-138 -268 -241 -252 -247 19 -7 199 42 289 80 103 44 210 114 264 175 252 283
200 1116 -145 2307 -62 216 -156 516 -184 589 l-20 50 -27 -90z M5163 4769
c-43 -9 -80 -36 -97 -74 -22 -45 -20 -80 5 -125 37 -65 54 -70 259 -70 205 0
222 5 259 70 26 47 27 80 2 128 -33 64 -59 72 -240 75 -88 1 -173 -1 -188 -4z"/>
</g>
</svg>
