<?xml version="1.0" standalone="no"?>
<!DOCTYPE svg PUBLIC "-//W3C//DTD SVG 20010904//EN"
 "http://www.w3.org/TR/2001/REC-SVG-20010904/DTD/svg10.dtd">
<svg version="1.0" xmlns="http://www.w3.org/2000/svg"
 width="2048.000000pt" height="2048.000000pt" viewBox="0 0 2048.000000 2048.000000"
 preserveAspectRatio="xMidYMid meet">
<metadata>
Created by potrace 1.13, written by Peter Selinger 2001-2015
</metadata>
<g transform="translate(0.000000,2048.000000) scale(0.192120,-0.192120)"
fill="#000000" stroke="none">
<path d="M4899 9995 c-219 -36 -422 -150 -549 -308 -67 -84 -135 -223 -162
-332 -19 -74 -22 -115 -21 -235 2 -244 53 -472 140 -625 62 -109 101 -155 192
-226 43 -33 88 -73 100 -90 31 -41 155 -138 223 -174 55 -28 58 -32 63 -75 3
-25 9 -62 12 -84 l5 -39 -60 5 -61 4 -17 -116 -17 -116 -446 -112 c-245 -61
-475 -116 -511 -122 -230 -38 -548 -112 -672 -156 -278 -99 -460 -264 -522
-474 -19 -64 -22 -221 -6 -295 17 -78 50 -175 81 -235 25 -49 706 -1156 742
-1205 8 -11 130 -87 271 -169 141 -81 256 -153 256 -160 0 -28 -83 -539 -116
-710 -75 -401 -122 -581 -220 -846 -90 -241 -136 -345 -285 -640 -215 -425
-558 -1020 -885 -1531 -118 -184 -137 -227 -138 -304 -1 -113 50 -208 143
-266 l45 -29 556 0 556 0 45 28 c98 63 149 154 149 267 0 124 -63 223 -175
276 -56 27 -69 29 -180 29 l-119 0 60 63 c81 84 175 190 403 457 321 374 577
698 714 905 172 260 455 934 633 1508 l36 117 27 -19 c55 -40 588 -570 714
-711 71 -80 169 -197 217 -261 87 -115 88 -118 113 -225 80 -338 116 -933 101
-1669 -5 -231 -8 -449 -7 -485 2 -107 51 -194 142 -252 l45 -28 556 0 556 0
45 28 c138 88 189 254 120 397 -35 73 -78 115 -151 149 -52 25 -63 26 -234 26
l-178 0 6 33 c44 215 96 574 123 852 22 227 25 796 5 955 -31 249 -90 467
-167 620 -132 262 -519 844 -997 1499 l-149 204 44 96 c99 210 158 386 211
622 59 265 95 528 103 757 6 164 7 174 27 182 12 5 203 57 426 116 223 58 484
127 580 153 l175 47 498 353 c274 193 516 364 538 378 21 14 39 29 39 34 0 9
-70 123 -152 249 -71 108 -188 301 -188 310 0 3 42 0 93 -8 116 -18 179 -8
295 48 46 22 101 43 121 46 34 5 38 3 53 -28 14 -30 14 -39 2 -74 -7 -21 -23
-47 -36 -56 -13 -9 -50 -37 -83 -61 -69 -50 -105 -110 -136 -229 -26 -102 -26
-102 24 -77 123 63 408 242 437 275 55 64 75 118 74 209 0 66 -5 89 -26 130
-31 60 -86 114 -148 146 -65 34 -196 34 -259 0 -44 -23 -356 -246 -398 -283
-25 -23 -37 -18 -58 23 l-15 29 -83 -53 c-45 -29 -298 -191 -562 -360 l-481
-306 -484 -41 c-267 -22 -495 -42 -508 -44 -13 -2 -26 2 -28 9 -4 9 -51 15
-172 19 -92 4 -188 9 -213 12 l-46 5 -17 95 c-10 52 -22 94 -26 94 -4 0 -40
-14 -80 -30 -40 -17 -74 -29 -75 -28 -2 2 -6 35 -10 73 l-6 70 76 50 c167 109
306 304 364 513 28 100 45 252 38 335 -6 64 -4 73 18 99 66 78 87 291 46 453
-77 299 -265 454 -650 535 -128 27 -373 35 -492 15z m456 -310 c146 -31 142
-54 -30 -169 -92 -62 -173 -103 -281 -146 -131 -52 -204 -112 -343 -279 l-44
-53 -66 6 c-36 4 -82 2 -100 -4 -26 -7 -37 -7 -43 3 -4 6 -8 75 -8 152 0 135
1 142 30 204 55 115 183 219 328 266 147 47 387 56 557 20z m351 -283 c45 -33
100 -82 123 -109 46 -52 114 -183 109 -210 -2 -9 -25 -30 -53 -46 -27 -16 -55
-36 -62 -45 -31 -39 -53 -99 -53 -141 0 -94 -46 -277 -92 -369 -37 -73 -63
-107 -175 -223 -193 -201 -227 -273 -164 -350 16 -19 48 -44 71 -54 l42 -19
-36 -18 c-30 -15 -36 -24 -37 -51 0 -17 -6 -106 -13 -197 -8 -91 -12 -167 -11
-168 8 -9 56 80 76 141 12 37 26 67 30 67 5 0 9 7 9 15 0 14 27 25 60 23 8 0
54 3 102 7 l87 7 10 -38 c27 -103 82 -498 107 -769 30 -330 16 -766 -40 -1233
-12 -100 -12 -104 8 -118 27 -19 136 -51 201 -59 28 -3 63 -9 80 -12 l29 -5
-24 -20 c-104 -84 -140 -129 -140 -173 0 -35 29 -103 54 -128 16 -16 -27 -17
-793 -17 l-810 0 31 -66 c28 -59 30 -72 26 -142 -5 -83 -26 -136 -77 -195 -89
-101 -270 -128 -373 -55 -24 16 -26 22 -17 51 33 117 -31 222 -185 297 -62 31
-78 34 -199 41 -73 4 -133 8 -135 8 -8 2 287 381 296 381 4 0 18 -27 31 -61
56 -145 141 -172 188 -60 17 39 28 28 -105 104 -71 40 -87 45 -101 35 -14 -11
-14 -11 -4 3 11 13 -22 89 -198 465 -270 574 -271 576 -267 579 2 2 118 24
258 50 140 26 297 55 349 66 52 11 97 17 100 13 3 -3 6 -295 6 -650 l0 -644
28 -11 c22 -9 62 -9 170 0 264 23 550 81 801 161 l99 32 -6 306 c-8 399 -24
523 -118 912 -58 240 -110 429 -180 652 -27 88 -48 165 -46 171 2 6 34 17 71
24 47 8 87 24 131 52 39 25 77 41 95 41 39 0 96 -51 134 -121 33 -62 83 -129
97 -129 11 0 7 19 -45 215 l-43 160 -49 7 c-27 3 -80 9 -118 13 l-68 7 25 26
c38 39 70 118 62 150 -13 55 -67 132 -140 201 -41 39 -80 71 -85 71 -6 0 -27
10 -48 23 -43 27 -107 47 -148 47 -16 0 -39 3 -51 6 -30 8 -159 217 -173 280
-27 118 39 264 118 264 37 0 109 -80 157 -174 l40 -79 8 34 c24 99 64 205 113
304 87 172 85 170 151 184 145 32 335 131 501 262 53 42 102 73 107 69 6 -4
47 -34 91 -68z m2571 -1327 c49 -34 81 -134 55 -170 -22 -33 -679 -494 -775
-544 -91 -49 -86 -47 -607 -186 -239 -64 -459 -127 -488 -140 -78 -36 -230
-189 -276 -279 -31 -59 -36 -78 -36 -137 0 -168 -76 -609 -102 -593 -4 3 -8
141 -8 307 0 302 -2 333 -50 768 -12 108 -17 200 -14 237 l7 61 171 -6 c142
-4 234 0 541 26 204 18 402 39 440 46 104 22 202 76 610 336 481 307 483 308
532 274z m-3628 -861 c28 -35 70 -171 136 -433 103 -413 105 -427 105 -807 0
-183 -4 -335 -9 -338 -34 -21 -380 -93 -528 -109 l-43 -5 0 34 c0 22 -6 37
-15 40 -13 5 -15 60 -16 403 0 218 -4 430 -8 472 -11 99 -47 171 -131 259 -92
95 -135 121 -213 127 -101 8 -470 -59 -563 -103 -69 -33 -216 -182 -249 -252
-32 -69 -31 -82 5 -191 31 -93 59 -157 244 -557 81 -176 106 -241 106 -273 0
-27 -4 -41 -13 -41 -17 0 -54 40 -98 105 -94 140 -406 652 -447 734 l-47 94
-3 145 c-2 79 -1 154 2 167 10 38 98 114 186 159 144 74 293 115 727 201 125
25 359 79 518 120 160 40 300 74 312 74 12 1 31 -11 42 -25z m1242 -2385 c20
-10 53 -37 72 -59 64 -75 430 -592 623 -880 287 -430 388 -607 438 -770 56
-186 56 -183 56 -838 0 -643 -1 -664 -55 -999 -8 -51 -15 -151 -15 -222 0
-162 8 -178 143 -315 135 -136 144 -130 -202 -134 -147 -2 -283 1 -302 5 -29
8 -35 14 -40 47 -3 20 -11 42 -18 49 -8 8 -11 173 -11 612 0 330 -5 674 -10
765 -23 378 -68 669 -125 808 -86 211 -292 470 -700 877 -390 390 -518 468
-637 390 -66 -43 -181 -168 -216 -233 -18 -33 -59 -140 -93 -238 -112 -328
-283 -751 -387 -959 -136 -273 -382 -606 -860 -1162 -244 -285 -325 -389 -373
-485 -47 -94 -49 -129 -10 -206 28 -55 119 -157 168 -189 13 -9 23 -25 23 -39
0 -42 -44 -46 -413 -42 -369 3 -357 1 -357 62 0 20 62 129 204 360 491 800
869 1510 1010 1901 20 55 45 123 56 150 69 177 133 428 205 800 25 132 53 276
61 320 25 128 32 139 97 154 134 30 253 121 335 257 41 68 102 205 102 229 0
9 132 11 598 7 554 -4 600 -6 633 -23z"/>
</g>
</svg>
