<?xml version="1.0" standalone="no"?>
<!DOCTYPE svg PUBLIC "-//W3C//DTD SVG 20010904//EN"
 "http://www.w3.org/TR/2001/REC-SVG-20010904/DTD/svg10.dtd">
<svg version="1.0" xmlns="http://www.w3.org/2000/svg"
 width="2048.000000pt" height="2048.000000pt" viewBox="0 0 2048.000000 2048.000000"
 preserveAspectRatio="xMidYMid meet">
<metadata>
Created by potrace 1.13, written by Peter Selinger 2001-2015
</metadata>
<g transform="translate(0.000000,2048.000000) scale(0.192120,-0.192120)"
fill="#000000" stroke="none">
<path d="M4899 9995 c-219 -36 -422 -150 -549 -308 -67 -84 -135 -223 -162
-332 -19 -74 -22 -115 -21 -235 2 -249 56 -483 147 -639 59 -101 108 -156 196
-221 38 -29 80 -65 91 -82 29 -41 152 -136 221 -173 59 -31 68 -44 68 -105 0
-19 5 -42 10 -50 9 -12 17 -8 50 29 55 60 68 107 46 165 -48 124 -209 226
-360 226 -42 0 -43 1 -67 52 -13 29 -50 92 -81 141 -83 130 -96 219 -46 324
24 51 61 83 96 83 37 0 109 -80 157 -174 l40 -79 8 34 c24 98 63 201 113 302
87 174 85 172 151 187 159 35 353 138 528 281 l71 57 79 -60 c44 -32 95 -73
114 -91 64 -60 132 -183 157 -281 5 -21 0 -27 -38 -46 -54 -28 -108 -78 -108
-102 0 -10 -4 -18 -10 -18 -5 0 -10 -24 -10 -52 0 -107 -37 -252 -92 -363 -38
-75 -79 -127 -190 -237 -127 -127 -166 -202 -132 -253 14 -22 106 -85 125 -85
3 0 4 24 1 53 l-4 52 77 50 c168 109 308 307 364 516 29 107 44 243 37 327 -5
64 -3 76 14 94 76 82 95 322 39 504 -83 273 -269 417 -638 494 -128 27 -373
35 -492 15z m411 -296 c76 -11 140 -34 140 -50 0 -17 -54 -63 -140 -120 -100
-66 -154 -94 -272 -142 -131 -53 -145 -64 -365 -295 -31 -32 -35 -33 -86 -27
-31 4 -71 2 -96 -5 -35 -9 -46 -9 -53 2 -5 7 -7 74 -6 148 3 127 5 138 33 195
44 88 135 174 236 224 172 84 357 105 609 70z M8810 8731 c-14 -4 -41 -16 -60
-26 -38 -20 -356 -250 -365 -265 -7 -12 89 -31 162 -32 64 -1 145 21 208 58
91 52 167 51 193 -3 32 -70 5 -125 -96 -196 -93 -65 -124 -111 -153 -228 -12
-44 -19 -82 -17 -85 10 -9 407 237 438 272 54 62 75 118 75 204 0 124 -60 221
-170 277 -53 28 -166 40 -215 24z M8205 8426 c-44 -29 -296 -190 -560 -359
l-481 -306 -484 -41 c-267 -22 -495 -42 -508 -44 -13 -2 -26 2 -28 9 -4 9 -51
15 -172 19 -92 4 -188 9 -213 12 l-46 5 -17 95 c-10 52 -22 94 -26 94 -4 0
-25 -7 -46 -16 -22 -9 -82 -32 -134 -51 -52 -19 -98 -37 -102 -41 -4 -4 -15
-116 -25 -249 -9 -134 -21 -239 -24 -235 -4 4 -33 108 -65 232 -31 124 -58
226 -58 227 -1 1 -82 8 -181 17 -99 9 -196 18 -217 21 l-36 5 -18 -118 -17
-118 -446 -112 c-245 -61 -475 -116 -511 -122 -230 -38 -548 -112 -672 -156
-278 -99 -460 -264 -522 -474 -19 -64 -22 -221 -6 -295 16 -74 50 -174 77
-228 18 -36 517 -848 738 -1203 13 -20 200 -135 423 -260 74 -41 106 -54 114
-46 6 6 11 35 11 64 1 69 -28 121 -95 171 -74 55 -133 68 -276 65 -66 -2 -124
0 -128 4 -6 7 143 210 296 404 l40 51 -211 449 c-268 569 -271 576 -267 579 2
2 118 24 258 50 140 26 297 55 349 66 52 11 97 17 100 13 3 -3 6 -293 7 -645
l1 -640 149 -81 c185 -101 213 -122 249 -195 27 -51 30 -68 30 -148 0 -81 -3
-95 -29 -143 -33 -60 -76 -101 -139 -134 -35 -19 -58 -23 -132 -23 -86 0 -93
2 -150 37 -33 20 -60 36 -61 35 -1 -1 -18 -110 -39 -242 -64 -419 -155 -871
-215 -1076 -30 -102 -142 -402 -197 -529 -178 -411 -637 -1231 -1059 -1891
-118 -184 -137 -227 -138 -304 -1 -113 50 -208 143 -266 l45 -29 556 0 556 0
45 28 c98 63 149 154 149 267 0 124 -63 223 -175 276 -56 27 -69 29 -180 29
l-119 0 60 62 c81 85 175 191 403 458 321 374 577 698 714 905 172 260 455
934 633 1508 l36 117 27 -19 c55 -40 588 -570 714 -711 71 -80 169 -197 217
-261 87 -115 88 -118 113 -225 80 -338 116 -933 101 -1669 -5 -231 -8 -449 -7
-485 2 -107 51 -194 142 -252 l45 -28 556 0 556 0 45 28 c138 88 189 254 120
397 -35 73 -78 115 -151 149 -52 25 -63 26 -234 26 l-178 0 6 33 c44 215 96
574 123 852 22 227 25 796 5 955 -31 249 -90 467 -167 620 -132 262 -519 844
-997 1499 l-149 204 44 96 c99 210 158 386 211 622 59 265 95 528 103 757 6
164 7 174 27 182 12 5 203 57 426 116 223 58 484 127 580 153 l175 47 498 353
c274 193 516 364 538 378 21 14 39 29 39 34 0 5 -37 66 -82 136 -45 71 -133
211 -196 313 -62 102 -117 188 -120 191 -4 4 -43 -17 -87 -45z m46 -357 c36
-19 79 -89 79 -130 0 -32 -6 -43 -42 -72 -94 -76 -663 -470 -731 -506 -91 -49
-86 -47 -607 -186 -239 -64 -459 -127 -488 -140 -78 -36 -230 -189 -276 -279
-31 -59 -36 -78 -36 -137 0 -168 -76 -609 -102 -593 -4 3 -8 141 -8 307 0 302
-2 333 -50 768 -12 108 -17 200 -14 237 l7 61 171 -6 c142 -4 234 0 541 26
204 18 402 39 440 46 103 22 201 76 610 336 467 297 459 294 506 268z m-2522
-446 c27 -102 82 -498 107 -768 30 -330 16 -766 -40 -1233 -12 -100 -12 -104
8 -118 27 -19 136 -51 201 -59 28 -3 63 -9 80 -12 l29 -5 -24 -20 c-104 -84
-140 -129 -140 -173 0 -35 29 -103 54 -128 16 -16 -26 -17 -778 -17 l-796 0 0
34 c0 48 -36 79 -123 106 -138 42 -182 58 -162 59 11 1 81 8 155 17 254 29
494 80 728 156 l95 30 -6 306 c-8 399 -24 523 -118 912 -58 240 -110 429 -180
652 -28 88 -48 166 -45 173 2 7 31 16 63 20 32 4 83 13 114 21 51 13 61 13 97
-1 33 -14 52 -34 105 -113 74 -110 98 -135 148 -156 32 -13 39 -13 65 0 60 31
104 101 140 224 10 36 25 72 34 81 25 25 85 44 152 48 23 1 29 -4 37 -36z
m-1080 -409 c28 -35 70 -171 136 -433 103 -413 105 -427 105 -807 0 -183 -4
-335 -9 -338 -36 -23 -373 -92 -498 -103 l-73 -6 0 31 c0 17 -7 37 -15 46 -13
12 -15 72 -16 403 0 455 -5 518 -45 598 -32 63 -136 177 -201 220 -76 49 -177
45 -498 -22 -163 -34 -204 -55 -309 -160 -86 -88 -136 -167 -136 -218 0 -13
14 -65 31 -116 30 -89 47 -130 242 -555 73 -158 97 -221 97 -252 0 -22 -4 -43
-9 -47 -12 -7 -50 33 -94 95 -75 107 -402 643 -445 729 l-47 94 -3 145 c-2 79
-1 154 2 167 10 38 98 114 186 159 144 74 293 115 727 201 125 25 359 79 518
120 160 40 300 74 312 74 12 1 31 -11 42 -25z m1242 -2385 c20 -10 53 -37 72
-59 64 -75 430 -592 623 -880 287 -430 388 -607 438 -770 56 -186 56 -183 56
-838 0 -643 -1 -664 -55 -999 -8 -51 -15 -151 -15 -222 0 -162 8 -178 143
-315 135 -136 144 -130 -202 -134 -147 -2 -283 1 -302 5 -29 8 -35 14 -40 47
-3 20 -11 42 -18 49 -8 8 -11 173 -11 612 0 330 -5 674 -10 765 -23 378 -68
669 -125 808 -86 211 -292 470 -700 877 -390 390 -518 468 -637 390 -66 -43
-181 -168 -216 -233 -18 -33 -59 -140 -93 -238 -112 -328 -283 -751 -387 -959
-136 -273 -382 -606 -860 -1162 -244 -285 -325 -389 -373 -485 -47 -94 -49
-129 -10 -206 28 -55 119 -157 168 -189 13 -9 23 -25 23 -39 0 -42 -44 -46
-413 -42 -369 3 -357 1 -357 62 0 20 62 129 204 360 491 800 869 1510 1010
1901 20 55 45 123 56 150 81 209 132 419 254 1052 30 155 41 182 75 189 120
27 180 54 254 117 67 56 130 142 178 247 22 47 45 93 50 102 5 10 9 28 9 41
l0 24 588 -5 c545 -4 590 -6 623 -23z M3820 5415 c0 -4 7 -20 16 -38 35 -69
66 -84 99 -47 21 24 25 19 -46 59 -55 31 -69 36 -69 26z"/>
</g>
</svg>
