<?xml version="1.0" standalone="no"?>
<!DOCTYPE svg PUBLIC "-//W3C//DTD SVG 20010904//EN"
 "http://www.w3.org/TR/2001/REC-SVG-20010904/DTD/svg10.dtd">
<svg version="1.0" xmlns="http://www.w3.org/2000/svg"
 width="2048.000000pt" height="2048.000000pt" viewBox="0 0 2048.000000 2048.000000"
 preserveAspectRatio="xMidYMid meet">
<metadata>
Created by potrace 1.13, written by Peter Selinger 2001-2015
</metadata>
<g transform="translate(0.000000,2048.000000) scale(0.192120,-0.192120)"
fill="#000000" stroke="none">
<path d="M5136 10274 c-253 -46 -502 -180 -696 -374 -235 -234 -361 -511 -401
-882 -16 -140 -5 -787 15 -968 31 -275 70 -404 146 -475 29 -28 36 -30 101
-28 58 2 114 17 338 92 148 50 276 91 285 91 8 0 27 -5 41 -12 21 -10 25 -18
25 -57 0 -67 9 -93 29 -86 31 12 81 50 86 67 24 73 -102 157 -176 118 -16 -9
-30 -4 -77 27 -209 138 -390 433 -463 752 -24 107 -36 301 -20 356 20 75 72
146 156 215 44 35 151 134 237 219 l157 154 133 -66 c239 -117 397 -163 618
-177 149 -9 277 -37 358 -79 121 -62 212 -161 247 -270 32 -97 9 -310 -56
-504 -83 -251 -249 -489 -420 -601 -53 -35 -57 -36 -90 -23 -45 18 -83 7 -131
-37 -43 -40 -49 -75 -19 -105 25 -25 81 -54 89 -46 3 3 8 34 10 69 4 56 7 65
29 75 13 6 32 11 41 11 9 0 129 -38 267 -85 346 -116 428 -127 503 -61 70 61
97 176 112 476 13 259 13 856 -1 978 -53 493 -315 891 -728 1106 -248 129
-504 173 -745 130z m400 -304 c274 -64 509 -224 655 -448 64 -98 89 -167 89
-247 0 -36 -4 -65 -10 -65 -5 0 -24 13 -42 29 -78 68 -194 142 -266 169 -92
36 -146 47 -317 67 -168 19 -254 42 -452 121 -89 35 -182 68 -207 73 -121 22
-207 -31 -462 -287 -77 -78 -146 -142 -153 -142 -10 0 -12 16 -9 63 9 147 176
371 373 502 254 169 534 227 801 165z m760 -2119 c-14 -13 -19 -13 -51 2 -47
22 -45 42 13 130 l47 72 3 -94 c2 -74 0 -98 -12 -110z m-1903 127 c46 -71 47
-118 3 -126 -34 -7 -46 17 -46 94 0 41 3 74 8 74 4 0 20 -19 35 -42z M4603
9085 c11 -7 49 -17 85 -20 275 -27 398 -70 494 -173 74 -79 73 -97 -8 -268
-55 -116 -107 -165 -207 -196 -55 -16 -85 -20 -149 -15 -184 12 -269 104 -325
350 -13 61 -31 123 -39 137 -14 23 -15 18 -10 -65 14 -229 112 -428 223 -452
21 -4 99 -8 173 -8 121 0 140 3 182 24 66 32 124 99 170 198 46 97 99 163 133
163 34 0 87 -66 133 -163 46 -99 104 -166 170 -198 42 -21 61 -24 182 -24 74
0 152 4 173 8 107 23 205 214 222 434 6 69 5 76 -8 60 -8 -10 -27 -66 -41
-124 -30 -120 -61 -191 -106 -245 -101 -122 -355 -131 -484 -17 -48 42 -118
170 -146 266 -17 56 -3 87 64 151 84 80 184 121 381 158 116 22 143 37 50 29
-198 -18 -339 -65 -455 -150 -101 -74 -127 -82 -182 -56 -24 12 -78 45 -120
75 -116 83 -314 136 -498 136 -66 -1 -73 -2 -57 -15z M4682 8999 c-23 -4 -47
-11 -53 -15 -63 -38 -46 -327 26 -449 37 -64 78 -79 205 -79 120 0 160 13 211
72 67 76 114 229 95 306 -17 68 -127 138 -243 156 -98 14 -196 18 -241 9z
M5792 8998 c-142 -13 -242 -57 -290 -128 -22 -31 -23 -43 -19 -108 9 -122 80
-247 165 -288 53 -26 231 -26 285 0 73 36 127 183 127 348 0 100 -17 154 -52
167 -41 15 -121 18 -216 9z M5150 8473 c0 -13 31 -61 52 -79 63 -57 183 -57
246 0 21 18 52 66 52 79 0 2 -26 -2 -57 -9 -32 -8 -85 -14 -118 -14 -33 0 -86
6 -117 14 -32 7 -58 11 -58 9z M4964 8125 c-9 -24 44 -92 105 -136 183 -131
477 -91 595 80 51 73 61 71 -339 71 -310 0 -356 -2 -361 -15z M4880 7509
c-687 -144 -1120 -633 -1254 -1419 -17 -100 -43 -427 -34 -435 4 -4 373 -7
616 -5 20 0 22 5 22 54 0 202 57 480 131 646 34 74 90 170 100 170 3 0 9 -26
12 -57 4 -32 30 -238 58 -458 l51 -400 -54 -95 c-30 -52 -71 -119 -91 -147
-43 -64 -72 -138 -100 -258 -29 -123 -31 -480 -4 -655 44 -282 107 -531 215
-855 l67 -200 38 -3 37 -3 0 -587 0 -588 -45 -38 c-71 -58 -98 -121 -103 -237
-7 -149 36 -278 145 -442 61 -91 186 -217 240 -241 41 -18 44 -18 89 -1 88 34
223 189 282 326 l25 59 41 -83 c72 -145 183 -269 274 -303 40 -16 45 -16 85 2
54 24 178 149 240 242 107 160 151 295 145 442 -3 78 -9 104 -31 146 -24 47
-98 124 -119 124 -4 0 -8 265 -8 589 l0 590 36 3 c37 3 37 3 76 103 98 253
194 575 233 785 62 336 58 671 -12 894 -23 76 -108 250 -183 376 l-33 55 52
400 c28 220 54 426 58 458 3 31 9 57 12 57 10 0 66 -96 100 -170 74 -166 131
-444 131 -646 0 -47 2 -54 20 -54 11 0 144 0 295 0 151 0 287 0 301 0 l26 0
-7 128 c-48 892 -458 1502 -1140 1695 -71 20 -234 57 -250 57 -2 0 -5 -14 -7
-32 -3 -28 -11 -36 -75 -70 -165 -89 -353 -89 -518 0 -62 34 -70 42 -73 70 -2
18 -6 32 -10 31 -4 0 -50 -9 -102 -20z m159 -351 c107 -42 184 -58 286 -58
104 0 180 16 291 61 101 41 173 42 294 4 187 -59 363 -168 494 -305 154 -162
249 -341 311 -586 16 -66 21 -309 7 -332 -7 -10 -13 -9 -29 5 -30 27 -38 47
-71 175 -59 225 -142 384 -256 492 -57 54 -125 96 -156 96 -37 0 -109 -50
-175 -121 -93 -101 -117 -165 -154 -409 -37 -243 -51 -373 -51 -473 0 -72 -4
-107 -16 -130 -9 -18 -20 -39 -24 -47 -19 -41 -519 -65 -761 -37 -150 18 -187
28 -195 54 -3 10 -10 27 -14 38 -5 11 -11 85 -14 165 -5 142 -48 476 -80 613
-9 37 -28 91 -42 120 -53 104 -183 227 -241 227 -44 0 -108 -42 -189 -125
-118 -121 -182 -252 -245 -508 -21 -84 -55 -147 -81 -147 -6 0 -8 66 -6 183 3
175 5 186 36 276 66 191 161 349 287 476 129 132 290 232 466 290 153 51 205
52 328 3z m-483 -1808 c441 -153 1096 -153 1537 -1 l57 20 0 -24 c0 -13 -10
-61 -21 -107 -20 -75 -22 -121 -29 -463 -4 -247 -11 -399 -19 -435 -7 -30 -24
-107 -38 -170 -51 -233 -139 -487 -196 -567 -16 -23 -41 -46 -56 -52 -79 -30
-238 -20 -362 24 -40 14 -91 25 -114 25 -23 0 -74 -11 -114 -25 -128 -45 -321
-55 -377 -19 -53 32 -124 217 -198 512 -74 297 -84 382 -91 757 -6 262 -11
351 -26 430 -20 104 -21 115 -16 115 2 0 30 -9 63 -20z m628 -1966 c12 -5 8
-14 -22 -44 -54 -55 -62 -66 -68 -100 -4 -16 -10 -30 -15 -30 -5 0 -9 -210 -9
-475 0 -287 4 -475 9 -475 5 0 13 -9 16 -20 4 -11 10 -18 15 -15 4 3 13 -2 19
-9 7 -8 34 -20 62 -27 l49 -13 0 -65 c0 -108 -55 -197 -153 -247 -48 -26 -154
-30 -216 -9 -103 34 -188 152 -179 251 3 33 7 38 52 55 52 19 96 54 96 76 0 7
5 13 10 13 13 0 14 943 1 968 -5 9 -16 33 -24 53 -9 20 -29 53 -47 72 -21 24
-27 37 -18 40 18 8 403 8 422 1z m206 -586 l0 -592 -32 -33 -31 -32 -39 35
-39 35 -2 589 -2 590 73 0 72 0 0 -592z m474 586 c14 -5 -10 -45 -77 -124 -9
-11 -12 -131 -12 -516 l0 -502 25 -21 c14 -11 51 -30 83 -42 l57 -22 0 -56 c0
-143 -120 -260 -266 -261 -87 0 -147 24 -204 80 -55 56 -80 117 -80 196 l0 53
43 12 c53 14 107 46 107 65 0 8 5 14 10 14 7 0 10 165 10 475 0 265 -4 475 -9
475 -5 0 -11 14 -15 30 -6 33 -13 44 -67 101 -20 21 -31 40 -25 43 17 7 402 7
420 0z M3640 5343 c0 -311 4 -335 76 -409 60 -62 112 -84 199 -84 87 0 154 29
208 90 70 77 71 84 75 384 2 150 0 272 -5 277 -6 6 -37 -26 -77 -76 -37 -47
-74 -92 -82 -99 -8 -8 -14 -21 -14 -30 0 -8 -4 -18 -10 -21 -5 -3 -10 -46 -10
-95 0 -80 -2 -89 -20 -95 -15 -5 -20 -15 -20 -40 0 -29 -4 -36 -25 -41 -40
-10 -55 1 -55 41 0 24 -5 35 -15 35 -24 0 -35 35 -35 114 0 44 -4 76 -10 76
-5 0 -10 11 -10 24 0 14 -6 31 -13 38 -7 7 -35 42 -64 78 -28 36 -60 74 -72
84 l-21 19 0 -270z M6454 5596 c-3 -8 -4 -133 -2 -278 4 -293 5 -302 75 -378
55 -62 121 -90 209 -90 59 0 81 5 125 28 60 31 120 101 138 162 7 24 11 134
11 306 l-1 269 -65 -70 c-72 -77 -114 -136 -114 -160 0 -8 -4 -15 -10 -15 -6
0 -10 -35 -10 -85 0 -74 -3 -86 -20 -97 -12 -8 -20 -24 -20 -39 0 -34 -23 -53
-55 -45 -20 5 -25 13 -25 39 0 24 -6 35 -22 42 -21 9 -23 18 -26 95 -2 47 -7
89 -12 94 -6 6 -10 16 -10 23 0 8 -5 19 -10 26 -6 7 -40 51 -76 100 -36 48
-68 87 -70 87 -3 0 -7 -6 -10 -14z M4910 923 c-313 -16 -569 -41 -765 -74
-450 -75 -602 -186 -392 -284 150 -71 408 -120 847 -161 229 -21 936 -30 1210
-15 674 37 1148 137 1176 247 11 44 -10 70 -88 108 -177 84 -569 147 -1098
176 -164 9 -745 11 -890 3z m664 -263 c27 -25 -15 -30 -247 -30 -224 0 -284 6
-263 27 20 20 488 22 510 3z"/>
</g>
</svg>
