<?xml version="1.0" standalone="no"?>
<!DOCTYPE svg PUBLIC "-//W3C//DTD SVG 20010904//EN"
 "http://www.w3.org/TR/2001/REC-SVG-20010904/DTD/svg10.dtd">
<svg version="1.0" xmlns="http://www.w3.org/2000/svg"
 width="2048.000000pt" height="2048.000000pt" viewBox="0 0 2048.000000 2048.000000"
 preserveAspectRatio="xMidYMid meet">
<metadata>
Created by potrace 1.13, written by Peter Selinger 2001-2015
</metadata>
<g transform="translate(0.000000,2048.000000) scale(0.192120,-0.192120)"
fill="#000000" stroke="none">
<path d="M3917 10320 c-131 -22 -278 -85 -397 -169 -84 -59 -240 -215 -314
-315 -285 -382 -517 -973 -672 -1713 l-27 -133 -53 0 c-29 0 -122 -9 -206 -20
-581 -75 -959 -230 -1058 -435 -32 -65 -33 -168 -3 -235 86 -190 377 -402 798
-581 l110 -46 12 -72 c15 -92 50 -167 104 -226 40 -44 130 -100 149 -93 5 2
-13 49 -40 105 -40 84 -62 116 -131 189 -46 48 -75 84 -64 80 70 -26 345 -116
353 -116 18 0 24 55 11 103 -14 59 -70 112 -168 162 -39 19 -116 62 -171 95
-55 33 -105 60 -111 60 -6 0 -106 48 -223 107 -199 102 -215 112 -289 186 -80
80 -97 107 -97 158 0 23 9 35 40 57 21 15 39 35 40 44 1 46 274 138 573 193
76 14 143 29 150 35 7 6 41 32 77 59 36 26 94 76 128 110 47 46 61 56 57 39
-47 -218 -28 -318 79 -398 150 -114 518 -222 961 -284 623 -88 1673 -105 2505
-40 586 45 1021 112 1492 230 338 85 495 145 573 221 58 56 70 88 68 177 l-2
79 57 -57 c67 -67 161 -126 202 -126 16 0 35 -6 42 -13 7 -8 47 -17 88 -21
112 -11 263 -43 336 -72 79 -32 144 -78 144 -103 0 -10 9 -26 20 -36 15 -14
20 -31 20 -72 0 -146 -124 -266 -465 -449 -38 -21 -95 -54 -125 -74 -30 -20
-95 -59 -145 -86 -113 -61 -171 -113 -186 -167 -11 -42 -5 -107 11 -107 14 0
274 88 325 110 26 11 49 20 51 20 3 0 -31 -40 -74 -90 -66 -75 -88 -108 -126
-196 -26 -59 -45 -108 -42 -111 10 -11 106 49 145 92 62 68 111 192 111 285 0
26 8 32 113 82 471 228 706 522 633 794 -67 251 -348 399 -803 422 -76 4 -183
5 -238 2 -55 -3 -101 -5 -102 -4 -2 0 -12 44 -23 97 -42 208 -213 756 -320
1026 -259 658 -659 1102 -1095 1217 -50 13 -106 18 -195 18 -109 0 -145 -4
-285 -37 -268 -62 -401 -78 -675 -84 -288 -6 -384 2 -1028 83 -422 53 -527 60
-625 44z m661 -289 c582 -73 620 -76 917 -76 305 0 407 10 740 76 233 45 331
50 449 19 243 -62 477 -263 681 -586 110 -176 186 -337 315 -673 54 -139 76
-170 177 -251 43 -35 82 -67 87 -71 14 -13 -39 -32 -285 -103 -437 -127 -707
-188 -999 -226 -1000 -130 -2426 -129 -3178 1 -167 29 -682 146 -776 176 l-48
15 85 82 c100 96 116 125 187 341 214 651 498 1090 805 1248 183 94 283 97
843 28z m3254 -1888 c9 -10 26 -47 38 -83 12 -36 31 -84 41 -107 11 -24 19
-63 19 -88 0 -41 -3 -47 -37 -69 -103 -68 -662 -206 -1093 -270 -567 -85
-1099 -120 -1845 -120 -986 -1 -1629 69 -2070 224 -178 63 -195 78 -195 172 0
74 8 95 67 186 43 64 41 64 251 16 535 -122 819 -159 1412 -185 296 -13 1095
-7 1380 10 818 51 1157 102 1760 270 118 33 224 60 236 60 11 1 28 -7 36 -16z
M2550 6503 c-74 -23 -98 -36 -109 -59 -15 -33 -14 -173 2 -201 7 -12 50 -50
97 -86 97 -73 173 -151 195 -199 8 -18 33 -121 56 -228 111 -533 220 -775 388
-859 128 -65 320 -93 626 -93 307 1 601 39 712 93 64 31 152 100 199 156 137
162 205 333 294 740 48 219 62 248 143 287 114 56 250 56 365 0 79 -39 95 -70
137 -267 94 -439 178 -640 333 -795 143 -143 303 -190 730 -212 332 -17 628
17 772 90 164 83 275 320 379 816 28 131 58 254 66 272 22 48 88 116 190 195
50 38 95 79 102 91 16 27 17 167 2 200 -13 28 -68 53 -134 62 -29 5 -68 -1
-131 -19 -571 -163 -1505 -284 -2374 -306 -456 -12 -965 -12 -1140 -1 -625 41
-1233 142 -1765 295 -120 34 -118 34 -135 28z m5229 -312 c16 -10 9 -37 -28
-100 -15 -25 -33 -62 -41 -81 -7 -19 -17 -39 -21 -45 -4 -5 -17 -53 -29 -105
-92 -401 -111 -467 -165 -585 -48 -104 -102 -160 -178 -184 -117 -36 -213 -45
-452 -45 -225 0 -359 11 -500 40 -228 47 -345 196 -434 551 -38 152 -56 262
-48 295 7 25 9 25 124 32 629 36 1212 114 1753 235 3 0 11 -3 19 -8z m-4568
-81 c488 -99 956 -155 1446 -173 51 -2 96 -7 100 -11 16 -16 5 -154 -21 -260
-75 -303 -174 -476 -309 -540 -220 -103 -935 -114 -1126 -17 -100 51 -169 191
-240 486 -17 72 -44 184 -60 251 -16 69 -46 159 -70 209 -23 49 -39 96 -36
106 5 16 10 16 63 3 31 -7 145 -32 253 -54z M2351 6163 c-31 -106 -41 -178
-41 -292 0 -164 34 -265 121 -356 29 -31 77 -70 108 -87 31 -17 57 -32 58 -32
1 -1 11 -58 23 -126 25 -149 70 -339 112 -468 l29 -93 32 19 c65 37 68 83 15
227 -16 44 -49 150 -74 235 -53 177 -63 201 -109 244 -41 38 -49 83 -67 358
l-12 187 -28 6 c-41 9 -74 59 -105 157 -16 49 -31 88 -35 88 -4 0 -16 -30 -27
-67z M8255 6150 c-35 -106 -71 -162 -111 -174 l-30 -9 -13 -186 c-17 -254 -29
-324 -64 -351 -38 -30 -59 -76 -101 -222 -20 -70 -54 -178 -77 -240 -59 -164
-56 -208 12 -244 l28 -14 26 82 c50 157 95 352 125 533 11 70 11 71 58 95 67
35 154 121 185 182 47 95 60 168 54 313 -5 120 -22 212 -54 295 -9 22 -13 16
-38 -60z M5163 4769 c-43 -9 -80 -36 -97 -74 -22 -45 -20 -80 5 -125 37 -65
54 -70 259 -70 205 0 222 5 259 70 26 47 27 80 2 128 -33 64 -59 72 -240 75
-88 1 -173 -1 -188 -4z M2571 4609 c-240 -33 -340 -79 -344 -159 -3 -88 109
-565 248 -1050 55 -193 330 -1043 361 -1116 3 -8 -34 -13 -118 -17 -574 -28
-1111 -384 -1376 -913 -131 -261 -182 -506 -182 -876 l0 -148 4172 0 4171 0
-6 223 c-4 157 -12 257 -26 341 -64 367 -262 720 -538 962 -284 248 -639 394
-995 411 -71 3 -128 9 -128 12 0 4 47 148 105 321 192 574 300 944 415 1417
33 137 71 284 85 329 29 95 30 96 9 139 -30 63 -132 99 -377 130 -187 24 -163
38 -231 -136 -32 -82 -66 -158 -75 -169 -29 -33 -445 -124 -801 -174 -256 -37
-478 -55 -805 -66 -159 -5 -418 -15 -576 -21 -157 -6 -296 -8 -310 -5 -13 3
-206 10 -429 16 -555 14 -769 30 -1120 80 -352 51 -763 143 -787 176 -8 10
-39 85 -71 166 l-57 148 -40 -1 c-22 -1 -100 -9 -174 -20z m5734 -231 c-4 -13
-38 -72 -75 -133 -99 -159 -99 -159 -190 -505 -59 -224 -142 -501 -275 -915
-119 -371 -128 -405 -123 -485 3 -57 9 -73 46 -128 49 -71 122 -133 184 -156
24 -9 98 -25 165 -36 544 -91 936 -388 1130 -858 72 -174 85 -236 90 -415 5
-154 5 -157 -16 -157 -12 0 -21 -6 -21 -15 0 -13 -236 -15 -2060 -15 -1475 0
-2073 -3 -2107 -11 -69 -16 -127 -44 -187 -89 -29 -22 -58 -40 -63 -40 -18 0
-105 338 -223 870 -72 325 -110 540 -113 642 -2 69 0 79 23 103 64 69 181 135
600 335 481 230 580 290 580 351 0 58 -73 172 -212 331 -40 46 -206 218 -369
383 -323 327 -337 346 -309 415 18 43 94 84 206 111 l92 22 84 -41 c136 -67
138 -67 491 -66 177 1 317 -2 317 -7 0 -23 333 -6 605 32 383 52 738 149 1014
275 40 19 119 46 175 60 137 34 386 108 466 138 81 31 83 31 75 4z m-5785 -48
c187 -63 366 -109 615 -159 110 -23 236 -52 280 -65 44 -13 132 -40 195 -60
63 -19 133 -39 155 -45 22 -5 67 -17 100 -27 33 -9 80 -18 105 -19 25 -1 116
-12 203 -25 l157 -24 123 42 c154 52 214 62 351 61 l111 -1 -87 -18 c-159 -33
-259 -75 -293 -122 -20 -29 -19 -71 1 -111 10 -18 152 -169 318 -337 427 -433
566 -606 566 -704 0 -53 -119 -124 -540 -325 -523 -248 -651 -326 -666 -406
-16 -89 66 -510 242 -1240 41 -170 76 -318 78 -327 4 -16 2 -16 -28 -1 -17 9
-47 26 -68 39 -20 13 -69 40 -110 61 l-73 38 -1372 3 c-1206 2 -1373 4 -1373
17 0 11 -12 15 -46 15 l-46 0 4 178 c4 168 6 182 37 277 124 373 390 682 724
840 133 63 253 101 417 130 80 15 164 35 188 45 52 23 151 115 192 180 26 41
30 55 30 121 0 89 -11 129 -140 529 -140 433 -170 532 -249 827 -81 300 -101
355 -175 473 -75 121 -93 152 -101 179 -6 21 -5 23 11 17 11 -5 84 -30 164
-56z"/>
</g>
</svg>
