<?xml version="1.0" standalone="no"?>
<!DOCTYPE svg PUBLIC "-//W3C//DTD SVG 20010904//EN"
 "http://www.w3.org/TR/2001/REC-SVG-20010904/DTD/svg10.dtd">
<svg version="1.0" xmlns="http://www.w3.org/2000/svg"
 width="2048.000000pt" height="2048.000000pt" viewBox="0 0 2048.000000 2048.000000"
 preserveAspectRatio="xMidYMid meet">
<metadata>
Created by potrace 1.13, written by Peter Selinger 2001-2015
</metadata>
<g transform="translate(0.000000,2048.000000) scale(0.192120,-0.192120)"
fill="#000000" stroke="none">
<path d="M9940 9763 c-321 -52 -870 -293 -1485 -651 -1358 -790 -2915 -2053
-3752 -3042 -247 -293 -535 -686 -800 -1094 l-123 -189 48 -33 c49 -34 1464
-1448 1499 -1498 l20 -29 174 113 c645 418 1110 784 1563 1230 1100 1082 2244
2617 2859 3837 221 438 331 727 372 973 37 220 -1 337 -124 378 -32 11 -195
14 -251 5z m117 -390 c-4 -96 -11 -135 -36 -211 -119 -354 -303 -733 -594
-1222 -423 -709 -929 -1423 -1478 -2085 -591 -712 -1096 -1227 -1608 -1639
-247 -199 -784 -581 -898 -640 -52 -26 -99 -21 -152 18 -76 57 -1179 1168
-1191 1201 -6 16 -8 40 -5 54 12 49 403 603 579 821 321 399 576 670 986 1050
1081 1000 2381 1926 3432 2445 410 202 744 321 912 324 l58 1 -5 -117z M3615
4781 c-22 -10 -54 -34 -72 -52 -54 -58 -365 -541 -386 -599 -29 -83 -21 -185
22 -267 18 -34 40 -68 49 -75 15 -11 15 -11 5 3 -10 12 -8 22 13 52 29 44 54
118 54 165 0 75 121 284 330 572 22 30 58 89 80 132 33 64 37 77 24 82 -29 11
-79 6 -119 -13z M3245 3735 c-5 -2 -75 -24 -155 -50 -391 -127 -674 -271 -852
-435 -282 -258 -621 -894 -808 -1515 -89 -296 -188 -464 -391 -660 -159 -154
-332 -273 -511 -355 -43 -19 -77 -38 -78 -41 0 -8 135 -25 315 -40 181 -15
676 -6 845 16 881 111 1579 427 2139 970 270 262 456 580 552 944 l32 121
-524 525 c-288 288 -531 524 -539 524 -8 0 -19 -2 -25 -4z m18 -291 c18 -9
154 -137 302 -283 149 -147 320 -313 382 -370 123 -113 140 -141 128 -219 -10
-64 -48 -168 -110 -298 -115 -239 -271 -428 -566 -682 -120 -103 -153 -146
-190 -241 l-25 -66 -45 1 c-57 0 -105 32 -130 88 -23 51 -24 95 -3 183 42 178
-30 336 -170 374 -23 6 -70 8 -111 5 -210 -18 -262 -19 -316 -1 -73 24 -142
91 -169 161 -25 68 -27 209 -4 304 32 131 15 258 -44 323 -33 37 -94 60 -156
60 l-60 -1 25 19 c13 11 73 47 134 81 79 45 137 87 205 151 177 165 384 280
710 393 106 37 165 42 213 18z m-1233 -1114 c0 -213 53 -358 180 -489 109
-114 189 -141 416 -141 109 0 154 -3 161 -12 13 -16 26 -388 15 -405 -11 -17
-151 -81 -298 -136 -318 -119 -714 -205 -1048 -226 -178 -12 -197 2 -128 94
21 28 57 79 81 115 25 36 52 77 62 91 58 86 140 284 222 535 69 212 140 391
213 535 42 84 96 159 115 159 5 0 9 -54 9 -120z M5285 3153 c-33 -20 -84 -56
-112 -80 -59 -49 -325 -226 -418 -278 -33 -19 -102 -45 -154 -60 -105 -29
-157 -53 -185 -83 -18 -21 -18 -21 15 -41 82 -50 220 -49 318 2 25 13 160 99
299 192 261 173 290 198 312 276 11 34 4 109 -9 109 -4 0 -33 -17 -66 -37z"/>
</g>
</svg>
