<?xml version="1.0" standalone="no"?>
<!DOCTYPE svg PUBLIC "-//W3C//DTD SVG 20010904//EN"
 "http://www.w3.org/TR/2001/REC-SVG-20010904/DTD/svg10.dtd">
<svg version="1.0" xmlns="http://www.w3.org/2000/svg"
 width="2048.000000pt" height="2048.000000pt" viewBox="0 0 2048.000000 2048.000000"
 preserveAspectRatio="xMidYMid meet">
<metadata>
Created by potrace 1.13, written by Peter Selinger 2001-2015
</metadata>
<g transform="translate(0.000000,2048.000000) scale(0.192120,-0.192120)"
fill="#000000" stroke="none">
<path d="M5315 10276 c-182 -44 -327 -177 -371 -340 -10 -36 -42 -604 -109
-1941 -51 -1039 -99 -1940 -104 -2001 -19 -198 -64 -327 -118 -340 -76 -19
-143 83 -199 306 -13 52 -125 801 -249 1670 -123 866 -229 1595 -235 1619 -41
168 -196 319 -377 366 -73 19 -210 19 -292 0 -244 -58 -421 -268 -421 -500 0
-42 90 -667 220 -1528 121 -800 226 -1521 235 -1601 18 -177 19 -448 2 -532
-37 -175 -121 -149 -236 74 -119 232 -161 368 -427 1372 -158 597 -244 905
-265 947 -78 161 -253 263 -450 263 -280 0 -539 -185 -590 -421 -24 -111 -13
-160 220 -1006 239 -864 238 -861 305 -1378 68 -525 85 -787 96 -1490 9 -561
15 -658 55 -890 101 -585 310 -1095 615 -1503 418 -559 1017 -912 1761 -1036
246 -41 361 -50 659 -50 289 -1 394 7 620 45 847 141 1552 600 2064 1346 319
465 577 1082 666 1598 27 154 43 218 87 335 71 191 131 295 303 525 213 285
475 609 713 884 108 124 133 168 148 264 31 190 -77 370 -282 471 -52 26 -125
53 -164 61 -342 71 -764 -128 -1083 -510 -109 -130 -184 -249 -269 -425 -41
-85 -97 -200 -124 -255 -50 -104 -122 -219 -168 -269 -74 -82 -215 -138 -290
-116 -143 41 -197 228 -171 590 6 85 20 220 31 300 12 83 188 894 411 1895
381 1711 389 1752 385 1837 -8 150 -77 266 -213 357 -161 108 -400 144 -572
87 -121 -40 -240 -152 -282 -263 -11 -29 -177 -773 -370 -1655 -193 -882 -360
-1636 -371 -1677 -74 -276 -188 -372 -254 -214 -26 61 -45 198 -45 322 -1 64
45 979 102 2034 111 2091 109 1985 52 2103 -35 72 -138 178 -211 217 -114 61
-310 84 -438 53z m205 -264 c0 -15 13 -22 54 -31 29 -6 74 -25 100 -41 l46
-30 0 -473 c0 -456 -3 -523 -70 -1777 -61 -1136 -70 -1349 -70 -1660 0 -354 0
-357 25 -430 31 -92 41 -106 121 -183 101 -96 147 -122 214 -122 49 0 65 5
114 38 85 57 182 160 215 231 68 143 50 66 441 1852 171 780 320 1453 331
1494 27 101 56 142 121 174 98 48 249 44 368 -10 101 -46 100 -43 100 -229 l0
-162 -350 -1574 c-397 -1782 -373 -1671 -400 -1844 -22 -143 -29 -505 -10
-505 6 0 10 -6 10 -13 0 -7 18 -38 40 -67 22 -30 37 -57 33 -60 -5 -4 -71 -19
-148 -34 -841 -163 -1363 -469 -1807 -1061 -327 -435 -497 -921 -515 -1470 -8
-253 22 -411 91 -480 33 -33 56 -32 90 4 45 47 73 144 106 368 44 304 95 502
192 743 306 759 861 1280 1606 1509 151 46 370 91 460 94 l63 2 24 -59 c43
-104 103 -147 208 -148 126 0 258 72 396 217 106 113 149 180 284 450 163 323
257 459 419 610 77 71 108 93 108 75 0 -5 26 7 57 27 228 145 493 187 668 104
96 -46 105 -58 105 -149 0 -55 -5 -88 -18 -112 -10 -19 -112 -148 -227 -286
-185 -220 -301 -366 -450 -564 -66 -87 -249 -388 -309 -507 -98 -193 -141
-324 -196 -598 -69 -341 -170 -637 -333 -978 -114 -237 -258 -470 -407 -657
-123 -155 -422 -430 -615 -566 -381 -270 -820 -435 -1325 -499 -283 -36 -695
-30 -1000 15 -881 129 -1551 588 -1915 1310 -138 274 -246 596 -305 905 -55
292 -61 372 -70 925 -9 552 -12 641 -36 940 -26 339 -90 848 -140 1117 -13 72
-114 458 -224 859 l-200 727 0 126 c0 144 4 155 76 197 118 69 286 87 387 41
68 -31 98 -70 132 -170 14 -43 113 -409 221 -815 326 -1233 406 -1428 655
-1605 139 -98 200 -88 344 57 125 126 125 125 125 490 0 344 13 239 -235 1880
l-185 1228 0 178 c0 207 1 210 103 259 105 52 262 61 338 21 16 -9 23 -9 29 0
5 8 17 -1 37 -27 50 -65 63 -91 78 -156 8 -34 111 -738 229 -1562 119 -825
220 -1520 225 -1545 57 -270 114 -375 275 -502 145 -115 221 -105 376 51 77
77 89 94 112 161 45 127 60 239 78 605 6 116 46 932 90 1815 44 883 82 1623
86 1645 9 59 54 144 91 174 48 38 119 60 196 61 59 0 67 -2 67 -18z m180
-6080 c0 -4 -43 -48 -96 -97 -296 -278 -529 -597 -715 -980 l-44 -90 -3 94 -3
94 51 104 c93 191 242 394 430 586 126 130 213 204 305 260 62 37 75 43 75 29z"/>
</g>
</svg>
