<?xml version="1.0" standalone="no"?>
<!DOCTYPE svg PUBLIC "-//W3C//DTD SVG 20010904//EN"
 "http://www.w3.org/TR/2001/REC-SVG-20010904/DTD/svg10.dtd">
<svg version="1.0" xmlns="http://www.w3.org/2000/svg"
 width="2048.000000pt" height="2048.000000pt" viewBox="0 0 2048.000000 2048.000000"
 preserveAspectRatio="xMidYMid meet">
<metadata>
Created by potrace 1.13, written by Peter Selinger 2001-2015
</metadata>
<g transform="translate(0.000000,2048.000000) scale(0.192120,-0.192120)"
fill="#000000" stroke="none">
<path d="M2912 10134 c-119 -35 -177 -68 -257 -144 -38 -36 -92 -79 -120 -95
-105 -60 -189 -175 -235 -320 -28 -88 -38 -282 -21 -408 18 -134 146 -592 181
-647 16 -25 38 -65 49 -90 11 -25 182 -652 381 -1395 198 -742 370 -1379 382
-1415 26 -81 109 -261 138 -297 77 -99 115 -49 112 148 -1 129 -29 332 -68
508 -23 104 -379 1438 -796 2986 -144 535 -151 564 -151 655 0 56 6 111 14
135 14 39 16 40 69 47 72 9 94 14 127 31 132 67 208 99 268 113 163 38 323
-24 401 -155 18 -30 47 -98 63 -150 17 -53 224 -820 461 -1706 526 -1966 506
-1898 597 -2084 74 -154 218 -283 332 -298 106 -14 274 130 334 287 28 70 113
411 146 580 11 58 142 796 291 1640 149 844 277 1562 285 1594 33 129 126 241
225 270 109 32 239 15 402 -53 92 -39 94 -39 180 -40 l67 -1 22 -57 c47 -123
52 -93 -259 -1843 -402 -2271 -382 -2145 -363 -2298 20 -160 69 -216 133 -156
59 57 99 163 142 379 14 72 156 872 316 1780 238 1350 295 1660 317 1707 l26
59 -21 87 c-49 199 -171 364 -332 447 -41 21 -95 56 -119 77 -132 115 -393
166 -561 108 -162 -55 -298 -194 -339 -346 -6 -22 -146 -807 -311 -1745 -165
-937 -311 -1742 -325 -1789 -14 -47 -34 -129 -45 -183 -27 -134 -48 -202 -81
-268 -34 -69 -70 -99 -116 -99 -68 0 -161 127 -241 330 -42 105 -57 163 -572
2083 -280 1049 -470 1740 -487 1775 -34 70 -147 186 -219 224 -118 63 -276 75
-422 32z M7455 9633 c-104 -14 -241 -89 -299 -166 -33 -44 -33 -53 5 -73 39
-20 103 -20 150 0 20 8 39 13 42 10 3 -3 31 2 63 12 83 24 235 15 327 -19 86
-31 145 -70 160 -105 6 -15 19 -38 29 -51 15 -20 18 -44 18 -151 0 -123 -12
-194 -315 -1914 -173 -983 -327 -1833 -342 -1889 -23 -93 -26 -124 -30 -343
l-5 -242 25 -38 c13 -22 45 -62 71 -90 l46 -52 -63 -11 c-436 -77 -570 -108
-793 -185 -409 -140 -717 -334 -1004 -632 -414 -430 -660 -932 -736 -1504 -23
-174 -24 -472 -1 -563 39 -157 108 -226 164 -164 51 55 73 134 109 384 40 280
86 455 181 693 255 636 715 1123 1323 1401 274 125 656 230 931 255 l76 6 13
-33 c53 -132 164 -161 318 -84 79 40 179 120 243 196 81 95 157 220 514 839
192 333 368 634 391 670 84 131 166 190 290 210 136 22 306 -41 381 -142 22
-30 23 -41 23 -172 0 -115 -4 -148 -19 -181 -10 -22 -161 -287 -336 -590 -175
-302 -355 -625 -400 -717 -46 -91 -175 -325 -288 -520 -350 -606 -344 -596
-462 -908 -218 -576 -391 -932 -579 -1183 -126 -170 -395 -426 -591 -564 -338
-237 -755 -388 -1235 -448 -574 -71 -1158 -19 -1650 145 -486 163 -958 493
-1260 880 -305 391 -525 844 -653 1345 -77 298 -77 304 -77 924 0 453 4 606
20 826 25 342 28 1023 6 1150 -20 112 -35 172 -322 1241 l-254 950 0 140 c0
146 7 173 54 207 9 7 22 24 29 37 15 31 94 74 172 95 66 17 179 19 240 5 22
-5 65 -7 95 -3 46 5 61 12 94 45 l40 39 -30 25 c-40 33 -130 79 -184 94 -73
20 -194 13 -300 -15 -126 -34 -189 -66 -260 -131 -113 -105 -163 -219 -163
-369 0 -86 13 -135 302 -1210 166 -616 309 -1160 318 -1210 13 -69 16 -150 16
-345 0 -242 -7 -365 -54 -1025 -26 -369 -35 -825 -20 -970 73 -666 341 -1364
723 -1877 292 -392 645 -692 1061 -898 169 -85 208 -101 387 -162 646 -220
1517 -237 2200 -41 623 178 1124 545 1485 1088 201 303 327 568 544 1141 60
161 117 307 127 325 9 19 329 575 710 1235 381 661 703 1226 715 1255 31 76
38 234 14 315 -44 153 -140 268 -292 347 -186 97 -349 99 -524 6 -122 -65
-142 -96 -609 -906 -236 -409 -453 -781 -484 -827 -88 -132 -203 -219 -305
-233 -87 -12 -197 62 -252 169 -57 111 -71 181 -76 383 -4 174 -2 208 26 400
17 116 177 1040 356 2054 227 1290 325 1866 325 1916 0 146 -71 288 -187 377
-78 58 -142 82 -291 108 -116 19 -145 21 -207 13z m-1434 -5801 c-16 -15 -67
-61 -112 -102 -236 -213 -441 -460 -605 -730 -44 -74 -64 -86 -64 -39 0 60 23
114 98 228 168 256 454 543 652 653 55 31 71 26 31 -10z"/>
</g>
</svg>
