<?xml version="1.0" standalone="no"?>
<!DOCTYPE svg PUBLIC "-//W3C//DTD SVG 20010904//EN"
 "http://www.w3.org/TR/2001/REC-SVG-20010904/DTD/svg10.dtd">
<svg version="1.0" xmlns="http://www.w3.org/2000/svg"
 width="2048.000000pt" height="2048.000000pt" viewBox="0 0 2048.000000 2048.000000"
 preserveAspectRatio="xMidYMid meet">
<metadata>
Created by potrace 1.13, written by Peter Selinger 2001-2015
</metadata>
<g transform="translate(0.000000,2048.000000) scale(0.192120,-0.192120)"
fill="#000000" stroke="none">
<path d="M5325 10315 c-138 -30 -258 -99 -359 -206 -80 -85 -133 -176 -168
-289 l-22 -75 -3 -1260 c-2 -693 0 -1440 5 -1660 l7 -400 57 56 c76 76 120
167 150 310 8 38 13 483 17 1484 6 1416 6 1431 27 1487 72 195 232 308 435
308 178 0 323 -98 406 -275 l28 -60 5 -1820 c4 -1430 8 -1825 18 -1842 6 -12
12 -31 12 -43 0 -53 100 -182 188 -240 66 -44 105 -39 267 38 154 72 223 92
325 92 100 0 188 -22 289 -72 130 -64 184 -123 265 -289 50 -104 80 -151 126
-202 116 -126 147 -132 313 -55 101 46 120 52 198 56 196 10 358 -84 439 -252
74 -157 70 -95 69 -1030 0 -463 -4 -861 -8 -886 -14 -79 -102 -483 -117 -540
-34 -123 -99 -312 -145 -423 -126 -301 -336 -614 -552 -824 -438 -424 -961
-665 -1685 -775 -113 -17 -201 -21 -496 -25 -385 -5 -459 -1 -670 44 -382 79
-730 262 -1004 527 -149 144 -463 506 -618 713 -295 394 -575 913 -720 1333
-98 284 -97 280 -101 605 -4 280 -4 294 21 405 14 63 59 223 101 355 42 132
94 308 116 390 78 288 117 392 193 514 38 62 109 121 145 121 8 0 21 7 30 15
28 27 195 134 201 129 3 -3 3 -576 1 -1273 -3 -1144 -2 -1271 13 -1298 26 -51
62 -73 118 -73 58 0 98 18 124 57 18 27 19 70 22 1334 l2 1307 37 7 c21 4 50
13 65 21 15 8 28 12 28 10 0 -15 60 55 73 84 27 62 30 90 36 355 6 229 10 268
29 325 64 194 199 289 408 290 199 0 305 -63 476 -286 47 -61 143 -150 185
-173 43 -22 46 -16 40 72 -25 318 -214 553 -505 624 -99 24 -294 21 -395 -6
-229 -61 -377 -217 -453 -476 -14 -50 -18 -113 -21 -390 -2 -181 -6 -340 -8
-352 -5 -22 -10 -23 -113 -23 -59 0 -174 -5 -257 -10 -225 -14 -314 -47 -417
-158 -101 -110 -171 -276 -274 -651 -36 -130 -98 -342 -139 -471 -123 -386
-151 -549 -143 -822 6 -175 30 -299 105 -532 203 -633 588 -1297 1065 -1842
68 -77 141 -162 163 -190 126 -157 307 -330 465 -445 284 -208 606 -343 975
-410 123 -23 152 -24 525 -24 404 0 458 3 715 46 1446 240 2389 1236 2579
2724 29 226 38 550 33 1170 -4 641 -5 653 -58 815 -107 326 -371 530 -686 530
-151 0 -271 -56 -356 -165 l-42 -55 -6 74 c-24 288 -217 536 -503 646 -290
112 -573 62 -788 -139 l-68 -63 -2 1928 -3 1929 -31 86 c-118 330 -465 527
-799 454z"/>
</g>
</svg>
