<?xml version="1.0" standalone="no"?>
<!DOCTYPE svg PUBLIC "-//W3C//DTD SVG 20010904//EN"
 "http://www.w3.org/TR/2001/REC-SVG-20010904/DTD/svg10.dtd">
<svg version="1.0" xmlns="http://www.w3.org/2000/svg"
 width="2048.000000pt" height="2048.000000pt" viewBox="0 0 2048.000000 2048.000000"
 preserveAspectRatio="xMidYMid meet">
<metadata>
Created by potrace 1.13, written by Peter Selinger 2001-2015
</metadata>
<g transform="translate(0.000000,2048.000000) scale(0.192120,-0.192120)"
fill="#000000" stroke="none">
<path d="M5365 10323 c-61 -8 -142 -36 -220 -76 -60 -31 -101 -62 -165 -126
-96 -97 -145 -179 -182 -306 l-23 -80 0 -1617 c0 -889 4 -1620 8 -1624 9 -9
62 40 88 83 34 54 69 171 84 276 12 85 15 330 15 1458 0 1287 1 1359 19 1426
46 178 178 314 346 358 121 31 268 13 369 -45 119 -68 224 -220 246 -355 6
-37 10 -732 10 -1822 0 -1815 0 -1796 36 -1888 19 -47 123 -151 171 -171 47
-20 73 -13 223 56 163 76 219 91 329 91 142 0 281 -47 408 -137 81 -58 110
-97 188 -262 54 -112 74 -143 128 -197 46 -45 74 -65 99 -70 36 -7 36 -7 220
71 152 65 308 46 465 -55 96 -62 156 -150 207 -303 l26 -77 -1 -853 c0 -469
-4 -873 -8 -898 -63 -352 -155 -695 -251 -935 -84 -211 -258 -502 -405 -680
-437 -529 -1045 -848 -1860 -976 -121 -19 -193 -23 -525 -26 -433 -5 -518 2
-755 62 -331 85 -604 227 -865 452 -140 120 -501 528 -681 768 -387 517 -691
1116 -820 1613 -29 112 -29 116 -29 393 0 260 2 287 25 394 14 64 45 177 69
253 69 210 124 394 152 506 31 124 107 354 135 408 26 51 81 135 111 170 22
25 92 68 112 68 5 0 16 7 25 15 33 32 214 155 220 149 3 -3 6 -597 6 -1321 l0
-1315 37 -34 c33 -30 44 -34 91 -34 67 0 117 30 134 80 9 26 12 360 12 1358
l1 1322 25 0 c37 0 87 23 118 54 20 20 27 37 27 66 0 22 4 40 9 40 5 0 11 111
14 248 4 211 7 257 25 314 71 234 223 348 462 348 92 0 163 -15 237 -49 77
-37 134 -88 237 -217 87 -108 132 -151 184 -178 30 -15 33 -15 39 -1 9 24 -23
176 -53 251 -54 133 -146 245 -257 312 -211 127 -546 130 -752 7 -137 -82
-232 -213 -286 -396 -21 -68 -23 -102 -28 -424 l-6 -350 -90 -2 c-245 -7 -432
-23 -492 -41 -213 -67 -332 -247 -453 -689 -83 -300 -101 -363 -170 -578 -117
-366 -146 -535 -138 -803 6 -183 30 -303 110 -551 132 -409 353 -852 633
-1271 144 -215 248 -351 418 -545 67 -77 145 -167 172 -200 110 -134 175 -202
295 -307 362 -320 785 -507 1281 -568 138 -17 787 -8 933 14 554 81 959 216
1341 446 783 473 1275 1273 1405 2287 33 253 42 545 37 1188 -4 641 -5 653
-58 815 -53 160 -158 313 -271 393 -86 61 -132 83 -239 113 -80 23 -104 26
-198 22 -94 -4 -114 -8 -175 -37 -66 -32 -140 -94 -184 -156 l-21 -30 -1 56
c0 67 -31 191 -64 266 -83 180 -238 323 -437 402 -289 114 -576 64 -791 -138
l-68 -63 -2 1928 -3 1929 -31 86 c-113 316 -426 506 -759 462z"/>
</g>
</svg>
