<?xml version="1.0" standalone="no"?>
<!DOCTYPE svg PUBLIC "-//W3C//DTD SVG 20010904//EN"
 "http://www.w3.org/TR/2001/REC-SVG-20010904/DTD/svg10.dtd">
<svg version="1.0" xmlns="http://www.w3.org/2000/svg"
 width="2048.000000pt" height="2048.000000pt" viewBox="0 0 2048.000000 2048.000000"
 preserveAspectRatio="xMidYMid meet">
<metadata>
Created by potrace 1.13, written by Peter Selinger 2001-2015
</metadata>
<g transform="translate(0.000000,2048.000000) scale(0.192120,-0.192120)"
fill="#000000" stroke="none">
<path d="M2912 10134 c-119 -35 -177 -68 -257 -144 -38 -36 -92 -79 -118 -94
-66 -38 -147 -123 -184 -193 -54 -101 -75 -185 -80 -323 -7 -172 6 -259 88
-556 57 -210 77 -268 110 -323 22 -36 51 -102 64 -146 13 -44 180 -663 370
-1375 190 -712 357 -1329 371 -1370 52 -151 132 -302 173 -327 51 -31 73 24
73 176 -1 119 -12 224 -43 393 -28 156 -31 168 -354 1373 -557 2079 -614 2294
-620 2352 -4 32 -3 76 2 98 9 39 10 40 78 58 39 10 129 49 200 87 186 98 274
117 386 84 122 -36 184 -104 238 -262 12 -35 215 -787 452 -1670 545 -2038
517 -1938 605 -2120 42 -85 61 -110 148 -198 84 -84 111 -105 161 -123 108
-41 170 -17 301 113 116 117 136 159 207 446 71 287 43 138 357 1919 149 844
277 1564 286 1600 30 130 88 221 168 264 35 19 56 22 151 21 118 0 183 -18
319 -86 66 -33 76 -36 164 -45 79 -8 85 -19 85 -153 0 -80 -44 -348 -292
-1745 -354 -2004 -348 -1971 -356 -2070 -13 -163 27 -328 83 -342 38 -9 91 53
131 155 42 111 57 190 386 2055 265 1509 304 1707 330 1707 4 0 20 -10 37 -21
33 -24 120 -29 157 -9 12 6 34 13 50 15 15 2 49 10 75 19 94 32 269 15 370
-36 45 -22 86 -56 86 -71 0 -5 9 -22 21 -39 20 -27 21 -39 16 -176 -4 -138
-23 -254 -310 -1878 -169 -952 -322 -1803 -342 -1891 -34 -157 -35 -168 -35
-376 0 -243 1 -246 85 -342 l45 -50 -98 -18 c-350 -64 -501 -100 -710 -172
-262 -90 -508 -218 -714 -372 -117 -88 -361 -327 -462 -453 -382 -479 -577
-1024 -579 -1620 -1 -148 3 -199 17 -255 51 -196 133 -241 199 -110 26 51 46
146 72 332 145 1040 772 1838 1712 2179 223 81 578 164 698 164 44 0 45 -1 66
-50 25 -58 81 -112 134 -130 111 -37 285 34 426 173 144 142 160 167 509 772
513 890 533 921 630 970 136 69 318 42 428 -62 l42 -40 0 -136 c0 -84 -5 -147
-12 -164 -7 -15 -147 -262 -312 -548 -164 -286 -356 -630 -426 -765 -70 -135
-174 -326 -232 -425 -148 -253 -350 -609 -386 -680 -16 -33 -53 -121 -82 -195
-244 -627 -291 -735 -410 -960 -77 -145 -197 -331 -271 -420 -68 -80 -270
-277 -374 -363 -261 -216 -605 -386 -963 -477 -525 -132 -1171 -142 -1702 -26
-434 94 -808 268 -1160 539 -488 376 -876 1012 -1063 1742 -76 297 -77 304
-77 924 0 454 4 606 20 826 25 342 28 1022 6 1150 -19 109 -30 150 -317 1215
l-252 935 -5 158 -4 157 38 38 c21 20 43 46 49 56 5 11 27 28 47 38 93 48 230
61 342 32 89 -23 149 -15 191 26 47 46 52 66 24 96 -39 42 -122 91 -189 114
-123 41 -326 17 -480 -57 -72 -35 -188 -151 -223 -223 -38 -77 -60 -191 -52
-262 3 -32 128 -511 276 -1065 373 -1391 347 -1283 360 -1477 12 -187 4 -414
-36 -991 -64 -931 -62 -1133 15 -1520 186 -925 676 -1736 1335 -2207 431 -308
903 -483 1495 -555 202 -24 694 -24 903 0 1105 130 1816 629 2314 1622 82 163
174 382 296 707 63 168 123 321 132 339 10 19 331 576 713 1239 383 663 705
1228 715 1255 29 73 35 233 12 311 -45 158 -140 269 -301 350 -179 92 -325 96
-490 14 -147 -72 -150 -77 -636 -920 -236 -410 -454 -782 -484 -827 -87 -131
-198 -215 -305 -229 -90 -12 -195 60 -252 173 -54 107 -69 184 -74 383 -4 167
-2 205 26 395 17 116 177 1039 356 2053 229 1302 325 1865 325 1917 0 192
-127 378 -304 444 -84 31 -290 64 -358 56 -148 -16 -272 -90 -351 -208 l-26
-38 -6 38 c-12 75 -47 179 -83 248 -51 97 -164 209 -262 260 -41 21 -95 56
-119 77 -96 83 -244 131 -406 131 -98 0 -171 -19 -260 -69 -100 -57 -205 -190
-234 -300 -6 -22 -146 -807 -311 -1745 -165 -937 -311 -1742 -325 -1789 -13
-47 -34 -130 -46 -185 -29 -141 -47 -202 -80 -266 -94 -189 -225 -104 -358
233 -40 103 -58 166 -570 2080 -293 1093 -470 1739 -488 1775 -57 116 -184
224 -311 263 -92 29 -222 26 -330 -6z m3478 -6079 c0 -3 -19 -17 -42 -31 -24
-15 -45 -30 -48 -33 -3 -3 -45 -33 -95 -65 -49 -32 -91 -63 -93 -68 -2 -4 -10
-8 -18 -8 -8 0 -14 -4 -14 -8 0 -5 -21 -24 -47 -42 -128 -90 -349 -306 -474
-462 -137 -173 -229 -319 -353 -563 l-76 -150 2 121 3 121 59 114 c182 355
508 709 851 924 103 65 244 135 274 138 12 1 21 4 21 7 0 3 11 7 25 8 14 1 25
0 25 -3z"/>
</g>
</svg>
