<?xml version="1.0" standalone="no"?>
<!DOCTYPE svg PUBLIC "-//W3C//DTD SVG 20010904//EN"
 "http://www.w3.org/TR/2001/REC-SVG-20010904/DTD/svg10.dtd">
<svg version="1.0" xmlns="http://www.w3.org/2000/svg"
 width="2048.000000pt" height="2048.000000pt" viewBox="0 0 2048.000000 2048.000000"
 preserveAspectRatio="xMidYMid meet">
<metadata>
Created by potrace 1.13, written by Peter Selinger 2001-2015
</metadata>
<g transform="translate(0.000000,2048.000000) scale(0.192120,-0.192120)"
fill="#000000" stroke="none">
<path d="M5326 10278 c-126 -24 -274 -124 -333 -226 -64 -109 -56 -5 -158
-2057 -51 -1039 -98 -1940 -104 -2001 -20 -199 -64 -327 -119 -341 -62 -15
-124 64 -177 229 -33 102 -54 238 -265 1713 -126 881 -234 1624 -241 1651 -43
174 -193 321 -376 369 -31 8 -95 15 -142 15 -167 0 -311 -58 -422 -169 -100
-100 -149 -213 -149 -345 0 -40 89 -662 211 -1465 116 -768 219 -1459 230
-1536 26 -179 37 -549 20 -644 -35 -194 -122 -172 -241 59 -121 237 -165 378
-435 1400 -164 624 -234 872 -257 919 -105 208 -349 305 -604 241 -228 -58
-389 -205 -434 -398 -26 -111 -16 -157 219 -1007 213 -771 222 -808 256 -1030
107 -713 133 -1037 145 -1835 6 -390 14 -601 24 -682 104 -824 396 -1489 866
-1972 463 -476 1042 -738 1810 -818 186 -19 641 -16 820 5 293 36 564 102 810
198 867 338 1537 1076 1929 2122 87 234 144 445 196 732 34 189 137 440 248
605 135 201 528 699 810 1025 138 159 162 199 178 298 31 190 -77 370 -282
471 -122 60 -213 80 -344 73 -310 -17 -642 -208 -902 -520 -132 -159 -200
-272 -328 -547 -180 -387 -302 -521 -475 -524 -134 -2 -208 111 -226 344 -8
107 11 369 41 570 13 87 192 912 406 1870 369 1650 383 1719 384 1820 0 98 -2
110 -32 173 -43 91 -82 138 -158 193 -159 113 -404 158 -576 105 -133 -42
-254 -150 -298 -267 -11 -28 -177 -773 -371 -1655 -193 -882 -360 -1637 -371
-1678 -62 -228 -151 -339 -220 -270 -48 48 -79 195 -79 378 -1 64 45 979 101
2034 112 2091 109 1985 53 2103 -35 72 -138 178 -211 217 -111 59 -288 82
-427 55z m299 -234 c58 -20 127 -65 150 -96 13 -20 15 -89 15 -530 0 -495 -2
-540 -65 -1725 -65 -1194 -66 -1225 -63 -1662 l3 -446 27 -57 c45 -94 173
-198 244 -198 81 0 212 104 259 206 69 150 58 103 440 1846 179 816 335 1516
347 1556 26 90 75 149 156 189 54 27 64 28 187 27 144 -1 205 -16 296 -75 78
-50 79 -53 79 -259 l0 -181 -325 -1457 c-368 -1653 -409 -1841 -425 -1967 -14
-106 -10 -472 5 -483 6 -4 29 -35 53 -69 l42 -62 -52 -10 c-29 -5 -126 -24
-216 -41 -794 -151 -1313 -450 -1747 -1005 -316 -404 -497 -859 -544 -1365
-31 -331 11 -599 101 -649 76 -43 139 85 173 353 108 855 529 1572 1165 1988
310 203 689 341 1080 394 169 22 172 22 194 -31 10 -26 34 -57 54 -73 29 -22
44 -26 91 -25 123 3 232 71 367 228 71 82 89 113 229 394 155 309 263 466 425
617 80 75 204 167 208 156 2 -6 45 10 96 34 162 77 336 108 472 85 89 -15 226
-82 260 -127 25 -32 26 -38 22 -141 -4 -126 7 -107 -178 -323 -392 -458 -739
-928 -852 -1155 -95 -188 -120 -271 -214 -694 -75 -339 -231 -747 -406 -1061
-83 -148 -247 -392 -354 -528 -118 -148 -379 -403 -526 -513 -408 -306 -844
-479 -1398 -556 -177 -25 -735 -25 -930 0 -572 73 -1056 267 -1432 575 -378
308 -667 754 -841 1297 -78 242 -133 508 -168 807 -5 46 -14 340 -19 653 -10
690 -29 957 -106 1535 -61 459 -62 464 -313 1376 l-171 620 0 149 0 149 48 46
c92 88 240 137 385 126 91 -6 148 -29 207 -82 73 -66 67 -47 310 -969 252
-954 291 -1080 420 -1341 79 -160 161 -261 244 -303 71 -35 124 -13 227 95 93
99 99 124 99 439 0 327 12 233 -235 1872 -193 1277 -195 1294 -195 1456 l0
164 29 41 c37 50 104 97 179 124 77 29 243 31 319 5 113 -39 180 -117 208
-238 8 -38 78 -507 155 -1042 331 -2311 313 -2200 389 -2362 76 -163 227 -263
337 -223 21 7 68 42 105 78 60 59 69 73 92 145 23 73 37 139 51 251 3 23 46
853 95 1845 103 2061 97 1957 119 2028 27 91 121 165 244 191 62 13 214 4 273
-16z"/>
</g>
</svg>
