<?xml version="1.0" standalone="no"?>
<!DOCTYPE svg PUBLIC "-//W3C//DTD SVG 20010904//EN"
 "http://www.w3.org/TR/2001/REC-SVG-20010904/DTD/svg10.dtd">
<svg version="1.0" xmlns="http://www.w3.org/2000/svg"
 width="2048.000000pt" height="2048.000000pt" viewBox="0 0 2048.000000 2048.000000"
 preserveAspectRatio="xMidYMid meet">
<metadata>
Created by potrace 1.13, written by Peter Selinger 2001-2015
</metadata>
<g transform="translate(0.000000,2048.000000) scale(0.192120,-0.192120)"
fill="#000000" stroke="none">
<path d="M5326 10278 c-126 -24 -274 -124 -333 -226 -64 -109 -56 -5 -158
-2057 -52 -1039 -99 -1940 -104 -2001 -20 -199 -64 -327 -119 -341 -63 -15
-125 65 -177 231 -33 101 -56 253 -265 1712 -126 881 -234 1623 -241 1650 -43
174 -193 321 -376 369 -79 21 -214 19 -300 -3 -108 -29 -180 -69 -259 -147
-105 -103 -154 -214 -154 -349 0 -41 88 -655 211 -1466 115 -767 219 -1458
230 -1535 26 -179 37 -549 20 -644 -35 -194 -122 -172 -241 59 -121 237 -165
378 -435 1400 -152 576 -235 875 -256 917 -78 161 -253 263 -450 263 -280 0
-539 -185 -590 -421 -24 -111 -13 -160 220 -1004 212 -768 222 -809 256 -1030
106 -701 132 -1038 145 -1840 6 -387 14 -596 24 -677 105 -823 398 -1490 866
-1972 461 -474 1025 -730 1800 -817 68 -8 233 -13 405 -13 319 0 453 12 715
64 921 184 1657 744 2161 1645 222 397 400 884 469 1280 27 154 43 218 87 335
46 122 112 255 176 350 119 178 525 692 781 990 87 102 168 204 178 228 96
216 -9 456 -253 576 -123 61 -213 80 -344 72 -276 -15 -540 -150 -795 -405
-184 -184 -276 -322 -425 -640 -160 -340 -242 -454 -368 -516 -84 -41 -160
-41 -218 0 -104 74 -139 228 -120 535 6 102 22 257 35 345 14 93 186 883 407
1875 369 1650 383 1719 384 1820 0 98 -2 110 -32 173 -43 91 -82 138 -158 193
-159 113 -404 158 -576 105 -133 -42 -254 -150 -298 -267 -11 -28 -178 -773
-371 -1655 -193 -882 -360 -1637 -371 -1678 -74 -276 -188 -372 -254 -214 -26
61 -45 198 -45 322 -1 64 45 979 102 2034 111 2091 108 1985 52 2103 -35 72
-138 178 -211 217 -111 59 -288 82 -427 55z m231 -228 c3 -11 17 -23 32 -27
53 -13 108 -41 139 -73 l32 -32 0 -501 c0 -486 -2 -537 -65 -1720 -65 -1197
-66 -1229 -63 -1666 l3 -446 33 -67 c50 -103 194 -218 271 -218 87 0 239 129
293 247 65 144 49 77 447 1893 171 778 321 1449 333 1490 30 100 78 150 173
179 145 45 343 11 443 -75 l42 -36 0 -176 0 -177 -349 -1570 c-385 -1732 -385
-1732 -406 -1894 -17 -131 -21 -431 -5 -431 6 0 10 -6 10 -13 0 -7 21 -41 46
-76 26 -34 45 -63 43 -65 -2 -2 -80 -17 -174 -35 -523 -98 -888 -237 -1222
-463 -365 -248 -711 -663 -904 -1088 -141 -309 -214 -627 -226 -985 -6 -209 9
-332 55 -424 50 -102 109 -105 157 -7 34 72 51 144 75 324 48 362 160 717 321
1022 121 227 326 500 502 667 357 339 821 563 1342 647 50 8 116 16 148 18
l59 3 19 -49 c36 -95 97 -133 200 -123 132 12 301 136 427 313 36 51 108 179
167 299 153 309 230 429 374 579 90 93 233 210 241 196 3 -5 44 10 91 35 131
68 242 97 374 98 150 1 257 -33 333 -106 32 -31 32 -32 32 -126 0 -77 -4 -102
-19 -127 -10 -17 -90 -116 -177 -220 -370 -440 -507 -622 -675 -894 -167 -270
-248 -463 -304 -721 -14 -68 -36 -167 -47 -219 -57 -265 -191 -629 -342 -930
-210 -417 -413 -682 -759 -987 -469 -413 -970 -634 -1627 -715 -141 -17 -689
-17 -830 0 -712 88 -1220 316 -1641 735 -205 203 -365 435 -495 713 -149 320
-239 630 -300 1029 -22 141 -26 213 -34 615 -19 915 -35 1153 -121 1790 -59
438 -43 371 -295 1286 l-184 671 0 143 0 143 39 37 c135 128 405 155 538 54
73 -56 76 -66 294 -888 212 -805 245 -922 303 -1086 61 -172 79 -217 138 -339
43 -87 65 -119 123 -176 87 -87 162 -129 227 -129 90 0 219 114 257 227 19 56
21 84 21 329 0 330 12 233 -235 1873 -189 1255 -195 1297 -195 1447 0 145 1
157 22 184 54 70 131 114 236 134 60 12 167 9 205 -5 12 -5 17 -2 17 9 0 14 3
15 23 5 80 -43 146 -132 171 -234 9 -33 112 -736 231 -1563 118 -827 224
-1547 236 -1600 22 -103 77 -254 114 -312 38 -58 145 -149 209 -175 72 -30
133 -13 225 65 95 80 135 168 166 362 10 61 50 799 110 1991 102 2044 94 1944
156 2034 59 85 145 122 282 123 81 0 89 -2 94 -20z m-78 -6307 c-8 -10 -55
-65 -104 -123 -115 -133 -195 -235 -195 -248 0 -5 -7 -12 -15 -16 -8 -3 -15
-12 -15 -21 0 -8 -4 -15 -10 -15 -5 0 -10 -4 -10 -10 0 -5 -19 -39 -42 -74
-24 -36 -59 -90 -77 -120 -19 -31 -39 -56 -44 -56 -6 0 -7 25 -4 60 4 49 13
73 49 128 23 37 46 72 51 77 4 6 30 39 56 75 85 114 276 315 332 349 37 23 49
20 28 -6z"/>
</g>
</svg>
