<?xml version="1.0" standalone="no"?>
<!DOCTYPE svg PUBLIC "-//W3C//DTD SVG 20010904//EN"
 "http://www.w3.org/TR/2001/REC-SVG-20010904/DTD/svg10.dtd">
<svg version="1.0" xmlns="http://www.w3.org/2000/svg"
 width="2048.000000pt" height="2048.000000pt" viewBox="0 0 2048.000000 2048.000000"
 preserveAspectRatio="xMidYMid meet">
<metadata>
Created by potrace 1.13, written by Peter Selinger 2001-2015
</metadata>
<g transform="translate(0.000000,2048.000000) scale(0.192120,-0.192120)"
fill="#000000" stroke="none">
<path d="M5325 10315 c-138 -30 -258 -99 -359 -206 -80 -85 -133 -176 -168
-289 l-22 -75 -3 -1260 c-2 -693 0 -1435 5 -1650 l7 -389 38 38 c86 86 120
156 154 322 14 70 17 240 22 1499 7 1554 2 1443 67 1555 93 160 286 251 468
221 182 -30 315 -147 371 -324 l25 -78 0 -1787 c0 -1566 2 -1791 15 -1816 8
-15 15 -40 15 -55 0 -48 85 -155 168 -213 63 -44 114 -37 263 36 250 121 407
125 626 16 139 -70 183 -118 270 -295 75 -155 160 -260 233 -289 46 -18 62
-14 235 60 84 36 96 39 185 38 83 0 105 -4 178 -33 144 -57 230 -156 292 -337
19 -55 20 -88 20 -933 -1 -482 -5 -894 -10 -916 -4 -22 -17 -83 -28 -135 -74
-351 -86 -400 -142 -569 -164 -495 -463 -936 -835 -1231 -210 -167 -525 -341
-788 -435 -226 -80 -504 -145 -777 -181 -166 -21 -672 -30 -840 -15 -434 40
-852 210 -1170 476 -134 113 -319 313 -621 675 -328 393 -691 1048 -848 1530
-80 249 -81 254 -81 585 0 342 5 373 104 685 31 96 79 256 107 355 105 375
136 463 201 576 44 77 102 132 157 150 20 7 40 18 44 25 4 8 15 14 22 14 8 0
15 5 15 10 0 6 5 10 11 10 6 0 17 7 26 15 8 9 42 34 74 56 l59 40 1 -43 c1
-24 1 -604 -1 -1289 -3 -1368 -7 -1279 56 -1328 54 -43 171 -20 206 41 10 19
14 278 18 1343 l5 1320 25 3 c52 6 96 26 120 53 46 51 50 58 50 88 0 16 5 33
10 36 6 4 10 94 10 238 0 199 3 244 20 317 56 231 198 343 435 343 108 0 162
-11 239 -49 77 -39 120 -78 216 -198 105 -133 198 -216 241 -216 16 0 7 112
-16 201 -65 252 -238 426 -483 486 -99 24 -294 21 -395 -6 -224 -59 -374 -214
-448 -462 -21 -69 -23 -98 -26 -404 -2 -181 -6 -340 -8 -352 -5 -22 -10 -23
-113 -23 -193 -1 -403 -18 -469 -38 -214 -67 -332 -246 -453 -689 -83 -300
-101 -363 -170 -578 -117 -366 -146 -535 -138 -803 6 -180 29 -301 105 -536
205 -637 595 -1309 1077 -1856 56 -63 122 -140 146 -170 137 -168 310 -335
470 -451 284 -208 606 -343 975 -410 123 -23 152 -24 525 -24 404 0 458 3 715
46 1446 240 2389 1236 2579 2724 29 226 38 550 33 1170 -4 641 -5 653 -58 815
-107 326 -371 530 -686 530 -151 0 -271 -56 -356 -165 l-42 -55 -7 78 c-25
288 -223 539 -511 646 -287 107 -567 56 -779 -143 l-68 -63 -2 1928 -3 1929
-31 86 c-118 330 -465 527 -799 454z"/>
</g>
</svg>
