<?xml version="1.0" standalone="no"?>
<!DOCTYPE svg PUBLIC "-//W3C//DTD SVG 20010904//EN"
 "http://www.w3.org/TR/2001/REC-SVG-20010904/DTD/svg10.dtd">
<svg version="1.0" xmlns="http://www.w3.org/2000/svg"
 width="2048.000000pt" height="2048.000000pt" viewBox="0 0 2048.000000 2048.000000"
 preserveAspectRatio="xMidYMid meet">
<metadata>
Created by potrace 1.13, written by Peter Selinger 2001-2015
</metadata>
<g transform="translate(0.000000,2048.000000) scale(0.192120,-0.192120)"
fill="#000000" stroke="none">
<path d="M5326 10278 c-178 -34 -337 -176 -382 -342 -10 -36 -42 -607 -109
-1941 -51 -1039 -99 -1940 -104 -2001 -20 -199 -64 -327 -119 -341 -63 -15
-126 66 -177 231 -42 137 -23 10 -284 1844 l-219 1533 -36 75 c-64 135 -193
240 -343 279 -73 19 -210 19 -292 0 -94 -22 -185 -72 -261 -142 -135 -125
-184 -288 -150 -498 58 -361 433 -2880 445 -2989 19 -182 20 -460 1 -538 -39
-169 -121 -140 -236 82 -121 237 -165 377 -435 1400 -152 579 -235 875 -256
917 -78 161 -253 263 -450 263 -280 0 -539 -185 -590 -421 -24 -111 -13 -160
220 -1004 212 -768 222 -809 256 -1030 106 -702 132 -1039 145 -1840 9 -561
15 -658 55 -890 101 -585 310 -1095 615 -1503 418 -559 1017 -912 1761 -1036
246 -41 361 -50 659 -50 289 -1 394 7 620 45 963 160 1741 733 2261 1664 222
399 400 884 469 1280 27 154 43 218 87 335 71 191 131 295 303 525 213 285
475 609 713 884 108 124 133 168 148 264 31 190 -77 370 -282 471 -122 60
-213 80 -344 73 -338 -18 -697 -242 -967 -602 -91 -121 -148 -220 -250 -438
-50 -106 -110 -226 -134 -267 -100 -173 -196 -257 -319 -280 -62 -12 -68 -11
-113 12 -52 26 -105 95 -122 157 -37 139 -33 412 11 721 12 82 191 906 411
1895 381 1710 389 1752 385 1837 -5 96 -38 184 -98 259 -36 46 -137 121 -203
149 -140 63 -341 80 -468 40 -144 -45 -266 -162 -308 -297 -11 -37 -178 -788
-370 -1668 -193 -880 -359 -1631 -371 -1670 -76 -251 -181 -328 -244 -178 -26
61 -45 198 -45 322 -1 64 45 979 102 2034 111 2091 109 1985 52 2103 -35 72
-138 178 -211 217 -111 59 -288 82 -427 55z m200 -236 c6 -4 13 -13 15 -21 3
-7 33 -22 66 -33 38 -11 76 -31 98 -52 l35 -33 0 -434 c0 -407 -4 -518 -70
-1739 -63 -1183 -70 -1342 -70 -1701 0 -374 1 -399 21 -460 27 -83 40 -103
108 -168 90 -85 138 -114 197 -119 65 -5 126 25 220 111 51 46 73 77 105 143
73 150 51 57 494 2084 146 668 276 1251 290 1295 41 136 117 185 288 185 129
0 234 -33 300 -93 l27 -26 0 -156 0 -156 -345 -1547 c-189 -851 -356 -1601
-370 -1668 -43 -205 -55 -317 -55 -525 l0 -195 51 -72 c28 -40 48 -72 46 -72
-22 0 -421 -87 -505 -110 -648 -177 -1090 -472 -1474 -985 -327 -435 -497
-921 -515 -1470 -8 -253 22 -411 91 -480 34 -34 58 -31 94 9 50 57 72 143 112
429 50 363 193 768 380 1077 297 492 693 832 1208 1039 192 78 497 155 663
168 l76 6 23 -58 c61 -151 191 -183 370 -94 95 48 216 156 301 271 32 44 105
172 169 300 130 258 183 351 258 451 100 132 309 330 319 300 3 -8 22 0 56 21
79 51 162 86 267 113 173 45 358 20 466 -62 l34 -26 0 -95 c0 -65 -5 -104 -15
-124 -8 -16 -83 -109 -165 -206 -166 -196 -483 -596 -547 -689 -70 -103 -231
-372 -279 -467 -82 -163 -141 -342 -179 -543 -93 -496 -317 -1048 -592 -1459
-139 -206 -206 -288 -365 -442 -350 -338 -664 -546 -1033 -683 -584 -217
-1296 -258 -1956 -113 -683 151 -1221 518 -1576 1078 -151 237 -294 586 -377
919 -88 352 -116 626 -116 1128 0 648 -36 1141 -131 1787 -46 313 -56 356
-224 966 -260 943 -245 880 -245 1016 0 117 0 117 31 152 109 125 400 155 515
54 68 -60 62 -42 304 -958 100 -377 194 -728 210 -780 90 -302 207 -583 287
-688 34 -46 148 -139 205 -168 96 -49 163 -27 284 93 46 45 68 77 84 119 21
57 21 68 17 409 -3 320 -6 365 -31 525 -15 96 -108 710 -207 1365 -178 1185
-179 1190 -179 1359 l0 169 44 43 c25 24 69 51 103 64 76 30 210 38 281 17 37
-10 52 -11 56 -3 6 14 83 -68 107 -116 10 -20 23 -57 29 -83 15 -67 94 -609
280 -1910 189 -1325 184 -1297 256 -1468 29 -70 49 -101 98 -151 74 -76 164
-137 214 -146 73 -12 142 22 242 122 86 86 124 188 150 405 6 48 51 903 100
1898 49 996 92 1839 95 1875 11 109 67 209 140 248 66 34 210 55 241 34z m174
-6110 c0 -4 -43 -48 -96 -97 -298 -281 -529 -597 -715 -980 l-44 -90 -3 95 -3
94 56 113 c97 194 232 377 420 572 133 136 242 228 331 278 42 24 54 27 54 15z"/>
</g>
</svg>
