<?xml version="1.0" standalone="no"?>
<!DOCTYPE svg PUBLIC "-//W3C//DTD SVG 20010904//EN"
 "http://www.w3.org/TR/2001/REC-SVG-20010904/DTD/svg10.dtd">
<svg version="1.0" xmlns="http://www.w3.org/2000/svg"
 width="2048.000000pt" height="2048.000000pt" viewBox="0 0 2048.000000 2048.000000"
 preserveAspectRatio="xMidYMid meet">
<metadata>
Created by potrace 1.13, written by Peter Selinger 2001-2015
</metadata>
<g transform="translate(0.000000,2048.000000) scale(0.192120,-0.192120)"
fill="#000000" stroke="none">
<path d="M5326 10278 c-126 -24 -274 -124 -333 -226 -64 -109 -56 -5 -158
-2057 -51 -1039 -98 -1940 -104 -2001 -20 -199 -64 -327 -119 -341 -62 -15
-124 64 -177 229 -33 102 -54 238 -265 1713 -126 881 -234 1624 -241 1651 -43
174 -193 321 -376 369 -31 8 -95 15 -142 15 -167 0 -311 -58 -422 -169 -100
-100 -149 -213 -149 -345 0 -40 89 -660 211 -1465 115 -768 219 -1459 230
-1536 26 -179 37 -549 20 -644 -35 -194 -122 -172 -241 59 -121 237 -165 378
-435 1400 -164 624 -234 872 -257 919 -105 208 -349 305 -604 241 -227 -57
-389 -206 -434 -399 -25 -108 -15 -158 219 -1006 212 -768 222 -809 256 -1030
106 -703 133 -1040 145 -1840 6 -388 14 -596 24 -677 105 -824 398 -1490 866
-1972 462 -474 1026 -731 1800 -817 67 -8 235 -13 400 -13 316 0 466 13 720
64 922 185 1657 744 2161 1645 222 397 400 884 469 1280 27 154 43 218 87 335
46 122 112 255 176 350 119 178 525 692 781 990 87 102 168 204 178 228 96
216 -9 456 -253 576 -122 60 -213 80 -344 73 -274 -15 -541 -151 -795 -406
-184 -184 -276 -322 -425 -640 -118 -249 -183 -361 -256 -434 -108 -107 -240
-142 -327 -85 -109 72 -146 244 -122 568 6 90 22 234 35 320 13 87 192 912
406 1870 369 1650 383 1719 384 1820 0 98 -2 110 -32 173 -43 91 -82 138 -158
193 -159 113 -404 158 -576 105 -153 -48 -272 -166 -313 -311 -8 -30 -171
-766 -361 -1635 -190 -869 -355 -1613 -366 -1654 -30 -111 -77 -218 -114 -256
-67 -72 -126 -33 -160 105 -37 146 -33 255 76 2283 112 2102 109 1995 53 2113
-35 72 -138 178 -211 217 -111 59 -288 82 -427 55z m198 -194 c35 -5 46 -11
46 -24 0 -11 10 -20 26 -24 51 -13 117 -50 150 -84 l34 -35 0 -441 c0 -415 -4
-518 -70 -1741 -64 -1187 -70 -1335 -70 -1700 0 -414 1 -427 44 -526 18 -43
82 -108 154 -157 92 -62 178 -43 287 66 86 84 139 208 199 467 14 61 167 758
340 1550 174 792 325 1470 337 1507 27 84 64 129 136 165 48 23 73 28 157 31
57 3 123 -1 155 -8 78 -17 176 -67 211 -107 l30 -34 0 -157 0 -156 -360 -1626
c-199 -894 -365 -1645 -370 -1670 -28 -128 -40 -263 -40 -439 l0 -189 54 -76
c45 -61 51 -76 38 -80 -9 -3 -91 -19 -182 -36 -521 -98 -880 -234 -1216 -462
-398 -269 -763 -726 -949 -1188 -182 -450 -242 -1077 -127 -1309 50 -102 109
-104 157 -7 34 72 51 144 75 324 34 258 88 473 175 696 301 780 868 1325 1613
1552 213 65 581 130 602 107 4 -4 13 -25 20 -46 56 -177 297 -140 503 77 92
97 137 168 255 404 168 336 238 444 392 606 85 90 251 220 261 205 4 -7 31 2
70 22 268 135 566 129 717 -14 l32 -31 0 -103 c0 -127 4 -120 -194 -353 -230
-269 -490 -599 -558 -705 -282 -442 -362 -620 -428 -947 -129 -635 -365 -1181
-721 -1666 -78 -106 -333 -364 -493 -498 -584 -491 -1316 -719 -2162 -674
-671 35 -1182 201 -1622 527 -133 99 -336 293 -432 413 -287 361 -496 844
-600 1385 -54 284 -61 378 -70 970 -11 732 -27 952 -111 1590 -52 402 -76 505
-285 1260 l-197 710 -4 137 c-5 129 -4 140 18 174 46 75 189 142 324 151 192
13 299 -51 356 -212 11 -33 108 -388 214 -790 251 -946 273 -1020 376 -1265
77 -184 135 -269 234 -344 131 -99 220 -88 337 43 79 87 80 98 75 498 -4 339
-5 354 -40 583 -20 129 -113 743 -207 1364 -169 1126 -170 1130 -170 1300 0
185 2 192 59 244 84 74 191 107 329 100 75 -4 92 -3 92 9 0 24 77 -26 127 -81
59 -66 77 -105 97 -201 9 -44 113 -754 231 -1579 118 -824 224 -1537 236
-1584 27 -115 81 -245 122 -298 73 -93 174 -157 247 -157 56 -1 92 18 164 83
90 83 129 182 155 401 6 46 51 903 100 1904 50 1001 95 1855 100 1897 12 93
42 159 94 211 43 43 86 65 167 83 66 15 92 16 154 8z m-224 -6530 c-27 -38
-57 -78 -65 -89 -58 -75 -165 -232 -176 -256 -16 -41 -34 -31 -31 17 4 42 48
113 136 219 58 71 176 188 183 182 2 -3 -19 -36 -47 -73z"/>
</g>
</svg>
