<?xml version="1.0" standalone="no"?>
<!DOCTYPE svg PUBLIC "-//W3C//DTD SVG 20010904//EN"
 "http://www.w3.org/TR/2001/REC-SVG-20010904/DTD/svg10.dtd">
<svg version="1.0" xmlns="http://www.w3.org/2000/svg"
 width="2048.000000pt" height="2048.000000pt" viewBox="0 0 2048.000000 2048.000000"
 preserveAspectRatio="xMidYMid meet">
<metadata>
Created by potrace 1.13, written by Peter Selinger 2001-2015
</metadata>
<g transform="translate(0.000000,2048.000000) scale(0.192120,-0.192120)"
fill="#000000" stroke="none">
<path d="M5120 10324 c-677 -61 -1278 -337 -1744 -801 -104 -103 -230 -250
-309 -359 -34 -47 -50 -58 -179 -121 -527 -257 -887 -608 -1147 -1117 -37 -72
-95 -183 -129 -246 -235 -442 -376 -971 -434 -1625 -25 -288 -11 -1045 27
-1525 89 -1092 343 -1970 758 -2620 399 -624 975 -1077 1682 -1323 903 -313
2196 -343 3140 -72 451 129 796 298 1145 558 159 119 435 388 560 546 600 761
921 1836 989 3306 39 832 12 1307 -101 1830 -62 286 -175 615 -291 845 -139
275 -245 474 -301 562 -241 384 -634 717 -1082 915 -59 26 -78 41 -110 85
-447 620 -1108 1024 -1860 1138 -134 20 -496 34 -614 24z m595 -299 c398 -63
737 -193 1050 -400 215 -142 389 -299 569 -514 68 -80 153 -179 189 -219 135
-150 224 -324 301 -590 l36 -124 0 -509 0 -510 -26 -115 c-70 -314 -210 -572
-432 -797 -297 -302 -754 -518 -1302 -617 -743 -133 -1573 -64 -2171 181 -632
258 -1013 697 -1129 1296 -18 95 -20 144 -20 566 0 524 -1 514 86 754 81 225
136 320 269 468 44 50 127 145 183 212 236 282 490 488 802 652 297 155 586
239 980 285 85 10 519 -3 615 -19z m-2849 -1197 c-149 -297 -222 -514 -270
-794 -51 -306 -56 -569 -15 -855 125 -878 737 -1488 1739 -1734 548 -134 1243
-151 1815 -44 1042 194 1708 749 1910 1594 78 323 79 747 4 1120 -50 246 -120
444 -255 712 l-101 203 60 -53 c34 -28 199 -185 367 -348 370 -359 476 -487
565 -684 112 -247 192 -367 350 -520 91 -88 92 -91 130 -305 74 -415 69 -1179
-11 -1840 -115 -945 -409 -1687 -877 -2211 -531 -595 -1266 -929 -2291 -1041
-178 -20 -254 -22 -656 -22 -476 0 -582 6 -907 54 -613 91 -1147 290 -1561
582 -681 481 -1101 1209 -1296 2248 -132 701 -163 1698 -71 2231 38 218 38
217 131 313 132 136 207 242 314 441 150 279 218 365 563 710 235 236 451 443
463 445 1 0 -44 -91 -100 -202z m-1258 -4775 c469 -1274 1409 -2009 2827
-2213 258 -37 448 -51 765 -57 1138 -21 2010 202 2695 689 303 215 602 540
817 888 61 100 188 345 233 449 20 47 42 99 50 115 8 17 32 76 53 131 74 192
73 195 69 -90 -4 -275 -7 -289 -98 -665 -158 -646 -427 -1201 -785 -1619 -616
-720 -1603 -1091 -2904 -1091 -1078 0 -1926 249 -2555 751 -339 270 -594 598
-828 1065 -147 294 -276 688 -378 1155 -30 137 -32 157 -36 409 l-4 265 19
-35 c11 -19 38 -85 60 -147z M2392 7867 c-43 -32 -63 -59 -106 -144 -51 -103
-60 -134 -100 -346 l-36 -189 0 -326 c0 -338 4 -392 45 -552 81 -324 216 -594
432 -865 134 -169 253 -283 438 -420 570 -420 1267 -632 2150 -652 768 -17
1480 128 2005 410 270 144 431 260 624 447 338 328 532 668 643 1125 25 106
27 123 30 455 3 220 1 372 -6 420 -29 199 -113 455 -185 562 -44 67 -110 107
-145 88 -20 -10 -20 -12 -5 -48 317 -732 271 -1515 -123 -2112 -98 -147 -173
-237 -309 -370 -140 -136 -247 -221 -407 -324 -401 -256 -878 -419 -1457 -496
-200 -27 -668 -38 -885 -21 -732 58 -1365 277 -1852 642 -116 87 -320 283
-406 389 -239 297 -385 630 -443 1015 -20 135 -23 440 -5 575 29 220 99 477
180 665 27 64 29 71 14 83 -25 18 -56 15 -91 -11z M2519 4691 c-71 -23 -119
-91 -138 -195 -16 -88 -14 -310 5 -406 70 -370 344 -709 809 -999 472 -294
1201 -531 1645 -535 119 -1 139 1 170 20 l35 20 3 681 c2 757 7 702 -66 723
-20 6 -138 26 -262 45 -476 73 -699 125 -1040 240 -210 72 -368 136 -617 251
-111 52 -242 107 -291 124 -93 31 -209 45 -253 31z m259 -315 c37 -13 148 -61
247 -106 582 -265 1081 -413 1663 -490 l92 -13 0 -478 0 -479 -32 0 c-112 0
-433 70 -658 142 -763 246 -1308 642 -1450 1053 -17 50 -20 84 -20 233 l0 174
45 -6 c25 -4 76 -18 113 -30z M7974 4686 c-78 -18 -216 -74 -420 -170 -522
-244 -1014 -388 -1614 -471 -217 -30 -304 -51 -322 -79 -4 -6 -8 -315 -8 -687
0 -775 -10 -702 101 -720 283 -47 986 135 1484 384 624 311 996 707 1079 1147
19 96 21 318 5 406 -14 76 -54 149 -96 175 -43 27 -129 33 -209 15z m46 -467
l0 -191 -33 -77 c-125 -288 -407 -543 -848 -766 -383 -194 -873 -346 -1201
-372 l-78 -6 0 476 0 477 23 5 c12 3 85 14 162 26 576 85 1018 219 1610 489
94 42 199 87 235 98 36 11 72 23 80 26 51 16 50 20 50 -185z"/>
</g>
</svg>
