<?xml version="1.0" standalone="no"?>
<!DOCTYPE svg PUBLIC "-//W3C//DTD SVG 20010904//EN"
 "http://www.w3.org/TR/2001/REC-SVG-20010904/DTD/svg10.dtd">
<svg version="1.0" xmlns="http://www.w3.org/2000/svg"
 width="2048.000000pt" height="2048.000000pt" viewBox="0 0 2048.000000 2048.000000"
 preserveAspectRatio="xMidYMid meet">
<metadata>
Created by potrace 1.13, written by Peter Selinger 2001-2015
</metadata>
<g transform="translate(0.000000,2048.000000) scale(0.192120,-0.192120)"
fill="#000000" stroke="none">
<path d="M1055 9210 c-156 -31 -306 -144 -382 -287 -68 -127 -63 177 -63
-3591 0 -3083 2 -3420 16 -3476 50 -195 223 -359 423 -402 100 -21 8463 -21
8563 1 204 43 371 205 423 410 13 52 15 453 15 3465 0 3758 5 3454 -63 3590
-60 120 -168 216 -305 269 l-67 26 -4260 1 c-2343 1 -4278 -2 -4300 -6z m8395
-269 c72 -6 75 -7 78 -32 4 -33 -59 -90 -333 -305 -274 -215 -305 -239 -352
-263 l-42 -21 -3409 0 c-3723 0 -3455 4 -3575 -56 -70 -36 -193 -162 -234
-242 l-33 -62 1 -1743 c0 -958 4 -2158 8 -2667 4 -509 6 -930 3 -937 -3 -11
-541 -437 -633 -503 -26 -18 -52 -29 -58 -26 -8 5 -11 927 -11 3347 0 2953 2
3343 15 3369 21 40 96 95 157 116 27 9 82 20 121 24 86 9 8189 10 8297 1z
m439 -88 c0 -38 -5 -90 -11 -118 -9 -36 -13 -976 -18 -3405 -4 -2195 -10
-3371 -16 -3400 -33 -144 -145 -236 -317 -259 -55 -8 -1330 -11 -4235 -11
-3629 0 -4169 2 -4252 15 -94 15 -255 57 -268 70 -4 4 9 21 28 38 30 28 899
713 1002 791 l37 28 -30 25 c-16 14 -42 46 -57 72 l-27 46 0 2585 0 2585 27
47 c16 25 47 63 70 83 83 71 -219 65 3528 63 3191 -3 3387 -4 3417 -20 l31
-18 44 37 c37 31 801 632 973 765 33 26 63 47 68 48 4 0 7 -30 6 -67z M8871
8019 c14 -19 35 -50 45 -69 18 -34 19 -84 24 -1437 3 -771 8 -1404 12 -1408 3
-4 17 1 30 9 14 9 28 13 32 9 4 -4 9 3 13 15 3 12 9 19 14 16 5 -3 9 577 9
1378 l-1 1383 -27 39 c-27 40 -89 79 -147 92 l-30 7 26 -34z M3880 7684 c-62
-13 -149 -52 -296 -133 -63 -35 -80 -39 -165 -45 -150 -10 -219 -25 -304 -66
-97 -47 -180 -115 -258 -209 -77 -94 -112 -119 -183 -132 -136 -25 -193 -41
-269 -78 -166 -80 -294 -227 -356 -410 -15 -43 -19 -84 -19 -200 0 -80 5 -164
11 -186 42 -158 187 -330 339 -403 169 -81 96 -77 1260 -77 960 0 1040 1 1104
18 143 36 247 94 343 188 77 76 125 154 159 257 20 62 24 94 24 196 0 71 -6
143 -14 173 -49 183 -191 355 -368 444 -32 16 -58 34 -58 40 0 5 -17 17 -37
25 -55 23 -65 37 -131 185 -76 170 -189 283 -365 364 -132 61 -282 79 -417 49z
m269 -149 c165 -44 297 -164 361 -330 20 -50 24 -80 24 -173 l1 -114 38 6
c115 19 284 -48 387 -153 103 -106 150 -218 150 -367 0 -234 -149 -428 -385
-501 -57 -17 -118 -18 -1085 -18 -967 0 -1028 1 -1085 18 -98 31 -171 75 -239
147 -156 166 -189 379 -90 587 105 220 386 344 607 268 47 -16 52 -13 61 47 4
22 20 68 37 103 60 121 166 215 298 261 81 29 219 33 301 8 50 -15 54 -15 63
3 19 35 133 138 183 165 28 15 75 34 105 42 70 19 200 20 268 1z M7185 7538
c-16 -6 -48 -23 -70 -39 -22 -15 -297 -285 -612 -601 -629 -630 -614 -612
-614 -733 0 -158 116 -275 275 -277 117 -2 112 -6 636 517 l475 475 470 -470
c524 -524 524 -524 642 -522 113 1 209 65 255 170 25 56 22 167 -6 227 -13 27
-209 230 -600 623 -646 648 -640 643 -760 641 -34 0 -74 -5 -91 -11z m181
-329 c27 -17 262 -244 522 -503 396 -396 473 -477 470 -497 -4 -29 -40 -34
-78 -11 -14 9 -182 172 -375 362 -192 191 -378 370 -413 399 -115 93 -197 123
-270 98 -103 -36 -155 -80 -542 -462 -385 -381 -443 -431 -479 -407 -9 5 -15
18 -13 28 4 27 969 987 1012 1007 55 26 109 22 166 -14z M6720 5473 l0 -418
275 0 275 0 2 377 c1 208 2 395 3 416 l0 37 -277 3 -278 2 0 -417z m330 -38
l0 -225 -60 0 -60 0 0 225 0 225 60 0 60 0 0 -225z M6167 5743 c-9 -85 -7
-538 2 -618 l6 -60 47 44 c26 23 53 58 60 77 6 19 16 34 20 34 4 0 8 102 8
226 0 127 -4 223 -9 220 -5 -3 -11 7 -14 22 -5 24 -91 122 -107 122 -4 0 -10
-30 -13 -67z M8317 5763 c-27 -26 -51 -62 -57 -82 -5 -20 -10 -130 -10 -244 0
-230 5 -255 63 -315 71 -75 67 -96 67 318 0 203 -4 370 -8 370 -5 0 -29 -21
-55 -47z M5814 5031 c-53 -32 -102 -107 -191 -291 -101 -209 -171 -318 -254
-394 -93 -86 -188 -126 -303 -126 -136 0 -251 -47 -345 -140 -78 -77 -129
-157 -228 -360 -143 -293 -169 -322 -311 -339 -140 -18 -252 -73 -395 -196
-96 -83 -219 -227 -315 -369 -70 -103 -162 -251 -162 -261 0 -3 1221 -4 2713
-3 l2712 3 51 27 c29 15 68 46 87 69 71 82 67 8 67 1266 l0 1133 -830 0 -830
0 6 -27 c11 -48 34 -74 82 -95 44 -20 73 -22 492 -28 410 -7 451 -9 519 -29
59 -17 102 -21 208 -21 126 0 133 -1 133 -20 0 -13 7 -20 20 -20 19 0 20 -7
20 -100 0 -82 3 -100 15 -100 11 0 15 -11 15 -35 0 -39 14 -69 90 -195 28 -47
47 -86 42 -88 -5 -1 -49 7 -98 19 -237 56 -460 30 -691 -81 -73 -36 -92 -51
-185 -152 -133 -146 -181 -191 -248 -237 -174 -120 -345 -163 -715 -181 -282
-13 -420 -43 -590 -128 -264 -132 -454 -347 -686 -779 l-92 -173 -41 35 c-23
19 -61 50 -86 68 l-45 32 -855 5 c-808 5 -857 6 -884 23 -23 15 -27 23 -21 45
4 15 15 36 25 47 9 11 24 32 31 47 19 37 131 151 202 205 69 53 160 96 253
119 185 46 297 153 438 422 94 180 154 270 214 322 60 54 95 68 219 91 142 26
197 43 279 89 142 78 331 291 434 487 58 111 116 185 160 208 16 8 68 19 117
25 48 5 111 17 138 26 29 9 122 19 225 25 202 12 245 25 273 84 33 70 63 65
-415 65 -409 0 -435 -1 -464 -19z m2856 -1565 c0 -577 -1 -635 -17 -647 -13
-12 -228 -14 -1307 -14 -710 0 -1303 3 -1318 8 -54 15 -36 69 66 196 143 179
292 287 481 350 125 42 237 59 461 71 289 15 441 48 609 132 114 56 211 132
361 284 111 112 142 137 205 167 126 60 228 84 372 86 l87 1 0 -634z M1837
4493 l-49 -4 30 -27 c51 -45 58 -50 98 -63 62 -19 422 -21 1729 -9 1440 12
1527 16 1671 72 l59 23 -70 6 c-73 7 -3385 8 -3468 2z"/>
</g>
</svg>
