<?xml version="1.0" standalone="no"?>
<!DOCTYPE svg PUBLIC "-//W3C//DTD SVG 20010904//EN"
 "http://www.w3.org/TR/2001/REC-SVG-20010904/DTD/svg10.dtd">
<svg version="1.0" xmlns="http://www.w3.org/2000/svg"
 width="2048.000000pt" height="2048.000000pt" viewBox="0 0 2048.000000 2048.000000"
 preserveAspectRatio="xMidYMid meet">
<metadata>
Created by potrace 1.13, written by Peter Selinger 2001-2015
</metadata>
<g transform="translate(0.000000,2048.000000) scale(0.192120,-0.192120)"
fill="#000000" stroke="none">
<path d="M4918 10035 c-147 -36 -289 -150 -357 -286 -52 -104 -61 -153 -64
-357 l-2 -172 586 0 c552 0 590 -1 663 -20 103 -26 177 -69 256 -149 98 -98
160 -235 160 -351 l0 -43 188 6 c136 3 202 10 242 22 192 60 326 196 387 391
26 86 26 480 -1 569 -53 175 -176 308 -345 374 l-66 26 -795 2 c-652 1 -805
-1 -852 -12z m1632 -259 c87 -29 147 -73 188 -141 l37 -60 0 -255 0 -256 -35
-49 c-66 -93 -164 -140 -312 -152 l-78 -6 -34 36 c-18 20 -54 71 -79 114 -107
184 -250 306 -432 370 l-80 28 -510 6 c-280 3 -512 6 -514 7 -2 1 -1 33 1 70
12 170 125 277 318 303 30 4 375 6 765 5 656 -2 714 -3 765 -20z M3030 9490
c-108 -15 -214 -66 -297 -144 -32 -30 -66 -68 -76 -84 l-18 -31 36 -7 c64 -12
129 1 206 41 167 85 110 79 787 83 368 2 602 7 602 13 0 5 9 9 21 9 31 0 59
18 107 69 l44 46 -54 7 c-75 9 -1291 7 -1358 -2z M7108 9493 c-27 -2 -48 -8
-48 -13 0 -12 102 -100 116 -100 7 0 14 -5 16 -11 2 -6 81 -13 213 -19 116 -5
228 -14 250 -20 22 -7 77 -32 122 -55 87 -46 150 -61 208 -51 l36 7 -18 30
c-28 49 -133 141 -195 172 -106 53 -143 59 -408 62 -135 1 -266 1 -292 -2z
M2135 9209 c-86 -12 -218 -55 -305 -99 -330 -167 -595 -528 -651 -889 -91
-586 -516 -3098 -537 -3170 l-27 -96 -3 -1671 c-2 -1617 -2 -1674 17 -1770 79
-407 360 -725 751 -852 170 -55 -86 -52 3951 -52 3620 0 3721 1 3816 19 464
91 812 447 888 908 14 88 16 271 13 1758 l-3 1660 -27 96 c-16 57 -133 733
-283 1630 -140 844 -267 1575 -280 1624 -33 117 -126 306 -206 419 -149 210
-354 371 -560 441 -125 43 -223 55 -450 55 l-208 0 29 -63 c44 -97 50 -155 50
-479 l0 -298 48 0 c160 0 360 -132 440 -290 59 -117 62 -142 62 -497 l0 -323
43 0 c117 0 252 -63 352 -164 82 -83 118 -145 145 -252 19 -71 20 -112 20
-544 l0 -467 38 -7 c62 -10 196 -71 284 -128 131 -86 259 -214 323 -325 l19
-33 -37 -72 c-35 -68 -37 -79 -37 -162 0 -49 7 -130 15 -180 14 -80 15 -293
13 -1716 l-3 -1625 -29 -100 c-48 -169 -99 -263 -203 -375 -106 -115 -264
-206 -434 -252 l-84 -23 -3705 -3 c-2622 -2 -3730 0 -3790 8 -113 15 -262 66
-362 126 -166 99 -312 279 -368 454 -21 65 -21 72 -20 1920 1 1337 -2 1863
-10 1885 -6 17 -21 49 -33 72 -21 42 -22 43 -3 75 87 149 276 316 446 395 71
33 158 63 182 63 17 0 18 20 18 468 0 434 1 474 20 546 27 107 63 169 145 252
100 101 235 164 352 164 l43 0 0 323 c0 355 3 380 62 497 80 158 281 290 440
290 l48 0 0 298 c0 324 6 382 50 479 l29 63 -217 -1 c-119 -1 -244 -5 -277
-10z m159 -454 c-1 -115 -5 -180 -12 -183 -22 -7 -135 -79 -183 -117 -79 -62
-185 -191 -233 -285 -71 -136 -88 -214 -93 -427 -5 -167 -7 -182 -24 -186 -15
-4 -19 -14 -19 -50 0 -38 -3 -46 -22 -51 -47 -11 -176 -107 -249 -183 -41 -43
-99 -115 -128 -161 -38 -58 -57 -79 -62 -70 -5 7 -9 70 -9 139 0 108 9 181 65
520 36 217 68 412 71 434 42 291 217 553 461 689 118 66 301 117 403 112 l35
-1 -1 -180z m6183 174 c169 -23 323 -96 453 -216 141 -131 242 -294 294 -476
14 -48 55 -264 91 -480 64 -386 65 -396 63 -555 l-3 -163 -34 53 c-100 154
-252 300 -371 355 -59 28 -60 29 -60 69 0 28 -5 44 -15 48 -12 4 -15 30 -15
148 0 198 -26 321 -97 462 -77 156 -247 325 -387 387 l-43 19 -6 67 c-4 38 -7
119 -7 181 l0 112 29 0 c16 0 65 -5 108 -11z m1024 -2386 c5 -15 25 -103 44
-197 29 -144 35 -192 35 -303 0 -73 -3 -133 -7 -133 -5 0 -26 11 -48 23 l-40
23 -3 307 c-1 169 0 307 3 307 3 0 10 -12 16 -27z m-8331 -288 l0 -305 -40
-20 c-67 -34 -70 -32 -70 68 0 93 16 199 55 377 29 130 44 185 50 185 3 0 5
-137 5 -305z M3813 8926 c-142 -35 -291 -149 -356 -274 -55 -105 -65 -156 -70
-359 l-4 -183 581 0 c649 0 663 -2 789 -67 167 -86 297 -286 297 -456 l0 -39
193 5 c204 5 234 10 342 63 80 39 193 150 233 229 57 115 64 153 66 360 3 212
-5 289 -34 372 -58 165 -217 307 -391 348 -54 12 -180 15 -829 14 -581 -1
-778 -4 -817 -13z m1586 -207 c85 -14 169 -59 226 -120 l45 -48 0 -260 c0
-162 -4 -262 -10 -266 -5 -3 -10 -19 -10 -34 0 -41 -57 -121 -113 -158 -57
-38 -106 -53 -200 -62 -107 -11 -106 -12 -234 187 -53 81 -187 212 -262 256
-88 51 -192 84 -303 96 -51 5 -282 10 -513 10 l-420 0 -12 27 c-18 39 -16 158
3 199 33 70 140 141 252 168 75 19 1447 22 1551 5z M2755 8441 c-22 -10 -49
-26 -60 -35 -18 -14 5 -15 280 -15 l300 0 -29 23 c-46 38 -92 46 -277 46 -149
0 -180 -3 -214 -19z M6747 8454 c-4 -4 -162 -8 -352 -8 l-345 -2 -27 -27 -28
-27 993 0 c546 0 991 4 988 8 -2 4 -26 19 -53 32 l-48 25 -561 3 c-308 1 -563
0 -567 -4z M2740 7823 c-214 -37 -400 -211 -451 -423 -9 -37 -13 -126 -13
-270 -1 -236 6 -275 66 -394 41 -82 153 -192 238 -234 123 -61 129 -62 945
-62 815 0 820 1 945 62 127 61 248 212 285 353 22 87 22 489 -1 566 -26 86
-69 163 -129 227 -65 71 -131 115 -223 151 l-67 26 -785 1 c-432 1 -796 0
-810 -3z m1530 -254 c36 -5 88 -20 115 -33 58 -27 122 -86 131 -121 3 -13 4
-142 2 -287 l-3 -263 -30 -45 c-36 -53 -90 -91 -165 -116 -51 -17 -108 -19
-755 -22 -470 -2 -722 1 -770 8 -128 20 -216 75 -263 164 -26 50 -26 56 -30
269 -2 120 -1 234 3 254 14 77 126 161 249 188 78 17 1414 21 1516 4z M5627
7334 c-4 -4 -150 -8 -326 -9 -309 -2 -320 -3 -346 -24 l-28 -21 1794 0 1794 0
-30 20 c-16 11 -46 25 -65 30 -39 11 -2782 15 -2793 4z M1521 5865 c-35 -8
-66 -17 -69 -20 -13 -13 35 -100 65 -117 30 -18 167 -19 3812 -19 2874 0 3787
3 3803 12 12 7 30 21 39 32 18 24 43 86 36 93 -2 2 -35 11 -73 19 -101 21
-7514 21 -7613 0z M3860 4490 c-170 -26 -328 -138 -409 -289 -62 -118 -61
-102 -61 -959 l0 -781 25 -78 c51 -161 163 -280 330 -349 l70 -29 1515 0 1515
0 68 27 c164 66 281 190 332 351 l25 78 0 781 c0 679 -2 788 -16 842 -46 178
-187 325 -374 389 l-65 22 -1450 1 c-797 1 -1475 -2 -1505 -6z m2855 -220
c117 -10 171 -27 242 -76 102 -70 93 18 93 -943 0 -608 -3 -848 -11 -864 -41
-78 -134 -150 -224 -171 -16 -4 -689 -8 -1495 -8 l-1465 0 -58 22 c-75 28
-134 74 -174 135 l-33 50 0 828 c0 909 -4 852 62 913 77 72 149 103 265 114
114 11 2680 11 2798 0z M4215 4195 c-5 -1 -43 -13 -82 -25 -40 -12 -100 -39
-133 -61 -84 -57 -184 -169 -225 -256 l-35 -72 0 -530 0 -530 27 -63 c78 -181
234 -324 391 -357 75 -16 2269 -16 2344 0 162 35 315 180 391 372 l27 67 0
509 c0 500 0 509 -22 562 -31 77 -77 145 -145 215 -72 74 -117 105 -208 141
l-70 28 -1125 2 c-619 1 -1129 0 -1135 -2z m2351 -282 c23 -12 60 -43 83 -69
71 -81 72 -88 69 -620 l-3 -469 -24 -45 c-32 -61 -67 -97 -126 -128 l-50 -27
-1185 0 -1185 0 -41 22 c-64 34 -103 71 -132 127 l-27 51 -3 469 c-3 532 -2
539 69 620 40 46 78 71 129 87 14 4 556 7 1205 6 l1180 -2 41 -22z"/>
</g>
</svg>
