<?xml version="1.0" standalone="no"?>
<!DOCTYPE svg PUBLIC "-//W3C//DTD SVG 20010904//EN"
 "http://www.w3.org/TR/2001/REC-SVG-20010904/DTD/svg10.dtd">
<svg version="1.0" xmlns="http://www.w3.org/2000/svg"
 width="2048.000000pt" height="2048.000000pt" viewBox="0 0 2048.000000 2048.000000"
 preserveAspectRatio="xMidYMid meet">
<metadata>
Created by potrace 1.13, written by Peter Selinger 2001-2015
</metadata>
<g transform="translate(0.000000,2048.000000) scale(0.192120,-0.192120)"
fill="#000000" stroke="none">
<path d="M2460 10323 c-207 -35 -392 -205 -445 -408 -13 -53 -15 -553 -15
-4585 0 -4032 2 -4532 15 -4585 45 -172 177 -315 353 -384 l67 -26 2860 -3
c3163 -3 2930 -7 3067 60 80 40 192 151 235 233 69 132 63 -297 63 4705 0
4094 -1 4528 -16 4584 -45 174 -175 316 -352 385 l-67 26 -2870 1 c-1578 1
-2881 -1 -2895 -3z m260 -308 c19 -7 28 -14 18 -14 -9 -1 -18 -5 -20 -9 -1 -5
-25 -23 -53 -42 -110 -74 -206 -178 -253 -273 l-32 -67 0 -1912 c0 -2163 -9
-1938 87 -2085 78 -119 158 -183 278 -220 58 -17 158 -18 2580 -18 2367 0
2524 1 2583 17 82 23 137 56 201 121 65 66 98 115 133 197 l27 65 1 1923 0
1923 -31 62 c-29 57 -105 156 -154 200 -11 10 -47 36 -80 59 -33 23 -62 45
-65 48 -3 4 -12 9 -19 12 -8 2 7 10 33 18 38 10 68 11 146 2 110 -12 178 -37
228 -84 l32 -32 0 -4571 0 -4572 -23 -34 c-52 -78 -175 -118 -319 -105 -119
12 -125 27 -30 75 104 53 174 129 248 271 l29 55 3 1932 2 1931 -34 76 c-27
58 -52 92 -108 148 -40 40 -96 85 -124 100 -114 61 56 58 -2670 58 -1628 0
-2510 -3 -2545 -10 -140 -26 -301 -154 -373 -297 l-36 -73 0 -1912 c0 -1778 1
-1916 17 -1958 49 -129 169 -270 278 -325 32 -16 60 -35 63 -42 6 -19 -44 -28
-164 -28 -103 0 -114 2 -169 30 -37 19 -72 46 -92 73 l-33 44 0 4558 0 4558
26 31 c14 17 53 44 88 61 91 45 255 62 326 35z m5142 -245 c32 -5 73 -16 92
-25 48 -23 105 -82 130 -135 l21 -45 3 -1855 c2 -1619 0 -1861 -13 -1905 -19
-67 -84 -141 -150 -171 l-50 -24 -2565 0 -2565 0 -50 24 c-66 30 -131 104
-150 171 -13 44 -15 286 -13 1905 l3 1855 21 45 c40 85 123 147 214 161 72 10
5007 10 5072 -1z m83 -4744 c66 -30 131 -104 150 -171 13 -44 15 -286 13
-1905 l-3 -1855 -21 -45 c-25 -53 -82 -112 -130 -135 -19 -9 -60 -20 -92 -25
-77 -13 -4987 -13 -5064 0 -32 5 -73 16 -92 25 -48 23 -105 82 -130 135 l-21
45 -3 1855 c-2 1619 0 1861 13 1905 19 67 84 141 150 171 l50 24 2565 0 2565
0 50 -24z M4406 9204 c-34 -11 -64 -31 -101 -68 -88 -87 -86 -77 -83 -632 3
-472 3 -480 25 -520 12 -23 43 -60 68 -82 86 -76 34 -72 1015 -72 981 0 929
-4 1015 72 25 22 56 59 68 82 22 40 22 48 25 520 3 555 5 545 -83 632 -88 89
-31 84 -1029 83 -744 0 -878 -3 -920 -15z m1759 -679 l0 -415 -835 0 -835 0 0
415 0 415 835 0 835 0 0 -415z M3870 7176 c-77 -17 -116 -36 -185 -89 -69 -52
-128 -120 -171 -192 -26 -46 -29 -60 -33 -162 -3 -108 -2 -115 27 -178 60
-127 222 -254 367 -286 89 -21 2822 -20 2910 0 146 33 310 157 374 283 29 55
31 67 31 164 0 90 -3 111 -26 161 -48 104 -200 240 -321 286 l-58 22 -1430 2
c-1112 1 -1442 -1 -1485 -11z m2963 -199 c55 -26 112 -81 138 -135 28 -58 32
-176 7 -234 -27 -61 -94 -125 -154 -148 -54 -20 -71 -20 -1494 -20 -1428 0
-1440 0 -1494 21 -96 35 -176 149 -176 250 0 128 84 244 198 275 37 10 351 12
1492 11 1360 -2 1447 -3 1483 -20z M4428 4486 c-95 -26 -173 -100 -197 -188
-9 -31 -11 -173 -9 -518 3 -468 3 -476 25 -516 31 -58 79 -103 138 -130 l50
-24 895 0 895 0 50 24 c59 27 107 72 138 130 22 40 22 48 25 520 3 533 3 536
-64 614 -19 22 -60 53 -92 69 l-57 28 -875 2 c-684 1 -885 -1 -922 -11z m1735
-682 l-2 -416 -831 0 -831 0 -2 416 -2 416 835 0 835 0 -2 -416z M3890 2459
c-99 -17 -174 -61 -270 -157 -116 -117 -134 -155 -138 -295 -4 -102 -2 -110
27 -172 56 -121 190 -235 325 -278 l71 -22 1425 0 1425 0 70 22 c133 42 271
154 333 271 30 56 32 66 32 167 0 94 -3 112 -26 160 -50 101 -175 219 -286
270 -29 13 -82 29 -118 34 -82 14 -2790 13 -2870 0z m2956 -214 c97 -48 148
-131 148 -245 1 -122 -52 -206 -159 -256 l-50 -24 -1455 0 -1455 0 -50 24
c-62 28 -111 77 -139 136 -27 59 -28 178 -2 230 48 92 117 146 202 158 26 4
691 6 1477 5 l1430 -2 53 -26z"/>
</g>
</svg>
