<?xml version="1.0" standalone="no"?>
<!DOCTYPE svg PUBLIC "-//W3C//DTD SVG 20010904//EN"
 "http://www.w3.org/TR/2001/REC-SVG-20010904/DTD/svg10.dtd">
<svg version="1.0" xmlns="http://www.w3.org/2000/svg"
 width="2048.000000pt" height="2048.000000pt" viewBox="0 0 2048.000000 2048.000000"
 preserveAspectRatio="xMidYMid meet">
<metadata>
Created by potrace 1.13, written by Peter Selinger 2001-2015
</metadata>
<g transform="translate(0.000000,2048.000000) scale(0.192120,-0.192120)"
fill="#000000" stroke="none">
<path d="M8514 10320 c-368 -39 -714 -210 -961 -473 -153 -164 -250 -324 -333
-550 l-10 -29 -81 76 c-336 316 -836 456 -1308 365 -827 -159 -1369 -960
-1210 -1788 102 -529 474 -963 988 -1150 294 -107 662 -115 951 -21 47 15 86
27 88 25 2 -2 -8 -39 -21 -82 -44 -137 -58 -224 -64 -380 -11 -295 41 -529
173 -783 99 -190 277 -394 459 -525 166 -120 396 -218 610 -262 127 -25 433
-25 560 0 442 90 812 352 1040 738 99 167 172 389 196 594 14 122 7 338 -16
455 -53 274 -190 547 -370 738 l-75 80 78 27 c347 123 653 402 823 750 66 135
99 232 131 379 32 146 32 446 0 591 -105 485 -404 870 -837 1081 -246 119
-545 172 -811 144z m341 -569 c306 -63 561 -265 691 -545 240 -520 -26 -1141
-568 -1326 -121 -41 -218 -54 -360 -47 -152 6 -250 31 -383 96 -527 259 -705
918 -380 1406 61 93 172 206 260 266 105 73 265 137 392 159 90 15 253 11 348
-9z m-1085 -91 c0 -5 -23 -40 -51 -77 -27 -37 -69 -98 -92 -135 -23 -37 -45
-67 -49 -68 -5 0 -8 15 -8 33 0 42 45 114 123 194 58 61 77 74 77 53z m1862
-57 c70 -74 108 -134 108 -173 0 -17 -4 -29 -9 -26 -4 3 -34 44 -66 91 -32 48
-63 92 -69 98 -6 7 -19 24 -29 40 -31 48 5 31 65 -30z m-2139 -442 c-28 -86
-28 -87 -28 -361 l0 -275 28 -79 c31 -88 111 -255 148 -307 189 -272 488 -477
792 -546 106 -24 338 -23 447 1 47 10 101 20 121 21 20 2 50 6 68 10 50 11 50
-16 0 -77 -24 -29 -47 -55 -50 -58 -4 -3 -23 -33 -43 -67 -27 -45 -36 -73 -36
-106 0 -24 3 -47 7 -51 4 -4 16 -28 28 -54 11 -26 45 -87 75 -135 92 -146 110
-181 110 -209 0 -16 -4 -28 -8 -28 -5 0 -31 33 -59 73 -188 268 -459 468 -738
543 -86 23 -120 26 -245 27 -223 0 -368 -33 -560 -127 -119 -59 -202 -121
-312 -233 -170 -173 -277 -345 -342 -551 -25 -81 -26 -90 -27 -375 -1 -194 -4
-274 -10 -237 -4 30 -26 92 -48 138 l-41 83 0 275 c0 303 1 298 -67 381 -19
24 -55 55 -80 69 -40 24 -56 27 -146 28 -56 1 -132 -2 -169 -6 -101 -12 -97
21 5 36 99 15 234 70 296 120 25 20 89 65 141 98 86 56 226 183 326 298 74 85
175 298 214 450 30 116 29 450 -1 568 -44 177 -155 382 -307 573 -13 16 -22
35 -20 44 2 11 20 6 83 -25 96 -47 135 -56 183 -41 46 13 132 86 132 111 0 9
7 23 15 30 12 10 15 10 15 -1 0 -18 51 43 92 109 l33 54 3 -52 c2 -37 -5 -78
-25 -139z m-1138 -10 c44 -11 130 -45 190 -76 194 -96 332 -234 430 -430 83
-164 99 -235 99 -435 0 -139 -4 -178 -22 -245 -39 -142 -123 -296 -223 -409
-108 -123 -310 -244 -474 -287 -103 -27 -289 -36 -392 -19 -380 61 -675 321
-789 695 -26 84 -28 103 -28 265 0 162 2 181 28 265 111 365 405 629 773 695
85 15 319 5 408 -19z m-1178 -138 c-15 -21 -53 -77 -84 -125 -32 -49 -62 -88
-67 -88 -5 0 -6 18 -3 39 4 36 38 94 84 146 25 28 86 75 92 70 2 -3 -8 -22
-22 -42z m4527 -925 c-38 -54 -133 -152 -141 -144 -3 3 1 14 10 24 10 10 17
21 17 24 0 6 89 141 108 163 4 6 12 19 17 30 8 17 10 14 13 -19 2 -29 -3 -47
-24 -78z m-4517 -686 c30 -40 53 -77 51 -82 -5 -14 -109 88 -161 157 -41 53
-47 68 -47 109 l0 47 51 -79 c28 -43 76 -111 106 -152z m3033 -196 c400 -61
720 -363 806 -761 22 -106 22 -294 0 -399 -130 -597 -770 -933 -1329 -696
-163 70 -331 207 -424 345 -325 484 -168 1131 340 1405 190 103 392 138 607
106z m-2369 -249 c-1 -12 -15 -9 -19 4 -3 6 1 10 8 8 6 -3 11 -8 11 -12z m79
-2 c52 -7 65 -14 52 -27 -6 -6 -22 -7 -39 -3 -15 4 -37 8 -48 9 -11 1 -21 9
-23 20 -2 10 0 16 6 12 5 -3 29 -8 52 -11z m290 -21 c0 -13 -125 -28 -143 -17
-6 4 -26 6 -44 5 -21 -2 -33 2 -33 10 0 10 27 13 110 13 74 0 110 -4 110 -11z
m940 -1509 c23 -31 40 -60 38 -65 -2 -5 -28 14 -58 43 -116 112 -150 163 -150
227 l0 45 65 -97 c35 -54 83 -123 105 -153z m1987 178 c-8 -47 -128 -203 -157
-203 -11 0 23 74 38 84 5 3 31 41 58 85 50 82 70 94 61 34z M5279 6394 l-347
-347 -48 40 c-214 178 -535 162 -735 -38 -184 -183 -218 -473 -81 -685 22 -32
49 -68 61 -78 l22 -20 -1804 -1805 c-1732 -1735 -1805 -1809 -1836 -1876 -20
-40 -40 -106 -48 -155 -48 -277 131 -554 403 -624 77 -20 212 -20 284 -1 131
35 169 64 425 317 l239 238 436 -432 c491 -489 505 -500 628 -507 68 -3 79 -1
148 33 90 45 210 158 242 228 49 107 47 221 -11 467 -26 113 -31 157 -32 261
0 169 8 186 171 351 165 167 200 184 359 183 90 -1 140 -8 275 -39 136 -32
184 -39 275 -39 99 -1 116 2 168 26 106 50 241 211 267 319 16 68 7 128 -32
202 -26 52 -106 137 -468 500 l-435 438 564 564 565 564 34 -30 c97 -86 216
-129 354 -129 58 0 116 6 149 16 277 83 448 351 400 630 -15 82 -65 192 -117
252 l-37 43 407 408 c223 224 406 413 406 419 0 31 -170 86 -186 60 -3 -4 -12
-8 -21 -8 -35 0 -179 -125 -404 -349 -248 -248 -306 -316 -358 -418 -41 -82
-40 -126 4 -250 34 -94 35 -103 35 -238 0 -124 -2 -144 -21 -174 -40 -66 -105
-105 -198 -120 -82 -13 -158 0 -281 49 -55 22 -117 42 -137 46 -51 8 -135 -24
-215 -83 -71 -51 -871 -843 -952 -943 -68 -83 -106 -158 -106 -210 0 -34 7
-48 42 -86 l42 -45 -940 -940 c-516 -517 -952 -950 -967 -961 l-29 -20 -31 30
c-91 87 -159 59 -427 -174 -191 -167 -245 -196 -370 -196 -88 0 -165 25 -224
74 -59 49 -76 95 -76 216 0 109 4 123 54 187 17 22 38 53 46 69 17 33 2766
2772 2779 2769 16 -4 548 543 611 627 134 181 149 258 80 430 -39 97 -40 104
-40 218 0 135 10 160 82 210 73 50 134 65 241 59 79 -4 108 -11 209 -51 65
-25 131 -46 146 -46 45 0 108 26 168 68 82 58 204 172 204 189 0 9 58 75 129
147 225 228 261 281 261 377 0 52 -30 139 -47 139 -4 0 -164 -156 -354 -346z
m-1486 -3414 c14 0 590 -572 628 -624 44 -59 41 -108 -11 -157 -64 -61 -130
-63 -381 -12 -183 37 -352 39 -453 4 -187 -64 -453 -319 -555 -531 l-36 -75
-3 -174 c-3 -129 1 -197 13 -265 12 -65 16 -133 13 -230 -3 -130 -4 -139 -26
-157 -58 -47 -130 -42 -212 14 -63 43 -575 555 -595 596 -9 18 -14 43 -11 55
8 32 1514 1532 1556 1550 19 8 41 13 48 11 8 -3 19 -5 25 -5z"/>
</g>
</svg>
