<?xml version="1.0" standalone="no"?>
<!DOCTYPE svg PUBLIC "-//W3C//DTD SVG 20010904//EN"
 "http://www.w3.org/TR/2001/REC-SVG-20010904/DTD/svg10.dtd">
<svg version="1.0" xmlns="http://www.w3.org/2000/svg"
 width="2048.000000pt" height="2048.000000pt" viewBox="0 0 2048.000000 2048.000000"
 preserveAspectRatio="xMidYMid meet">
<metadata>
Created by potrace 1.13, written by Peter Selinger 2001-2015
</metadata>
<g transform="translate(0.000000,2048.000000) scale(0.192120,-0.192120)"
fill="#000000" stroke="none">
<path d="M2115 10319 c-231 -33 -455 -147 -625 -317 -158 -159 -247 -324 -307
-567 -16 -65 -18 -259 -21 -2780 -2 -1902 0 -2742 8 -2817 48 -473 369 -847
838 -976 l97 -27 1475 -5 1475 -5 6 -70 c20 -210 179 -392 405 -462 56 -17
119 -18 1114 -18 1173 0 1092 -4 1234 67 83 42 191 153 234 240 61 126 62 128
62 933 0 450 -4 755 -10 795 -33 204 -203 391 -406 445 -52 14 -187 16 -1110
16 -944 0 -1058 -1 -1115 -16 -217 -56 -389 -250 -408 -460 l-6 -70 -610 0
c-683 0 -660 -2 -786 74 -119 72 -196 167 -241 295 l-28 81 0 1905 0 1905 28
81 c50 141 146 251 279 318 110 55 130 56 770 54 l588 -3 6 -70 c19 -209 191
-404 405 -459 55 -14 187 -16 1116 -16 914 0 1062 2 1113 15 150 40 286 153
355 296 22 48 44 112 50 149 13 82 13 401 0 500 -66 505 -454 900 -954 969
-95 13 -4940 13 -5031 0z m5018 -284 c299 -45 531 -206 653 -452 l39 -78 3
-337 c3 -318 2 -339 -17 -375 -26 -51 -55 -77 -126 -110 l-60 -28 -1010 -3
c-729 -2 -1027 0 -1070 8 -122 24 -188 76 -236 187 -44 103 -72 147 -137 215
-75 79 -134 114 -212 128 -45 8 -228 10 -585 8 -493 -4 -524 -5 -596 -25 -162
-45 -295 -132 -417 -274 -75 -87 -159 -234 -181 -319 -9 -34 -11 -526 -9
-2020 l3 -1975 29 -70 c92 -221 247 -399 428 -490 158 -79 166 -80 798 -80
505 0 558 2 593 17 53 24 114 74 123 100 3 12 34 54 68 94 38 45 68 92 80 125
38 110 113 191 207 225 24 8 105 20 179 25 74 5 176 20 225 32 88 21 105 22
675 22 570 0 587 -1 675 -22 50 -12 149 -27 220 -32 72 -5 151 -17 177 -26 69
-24 141 -93 180 -173 l33 -67 3 -720 3 -720 -33 -84 c-57 -146 -140 -194 -360
-206 -62 -4 -168 -18 -236 -31 l-123 -25 -572 3 c-545 3 -576 4 -662 25 -49
12 -151 26 -227 31 -114 8 -146 15 -198 38 -76 34 -126 89 -163 180 -57 142
-184 276 -301 317 -22 8 -453 13 -1446 17 l-1415 6 -84 22 c-261 69 -455 222
-569 448 -67 133 -62 -113 -62 3026 0 2757 1 2847 19 2899 72 211 240 386 459
479 37 15 87 34 112 40 138 38 136 38 2615 39 2073 1 2424 -1 2508 -14z M2136
9084 c-194 -43 -369 -178 -465 -358 -26 -50 -53 -111 -60 -136 -9 -34 -11
-535 -9 -2030 l3 -1985 32 -72 c99 -224 262 -377 469 -439 71 -22 255 -25 324
-5 232 66 404 242 494 503 l26 76 0 1939 c0 2109 4 1971 -57 2104 -85 187
-227 318 -412 382 -105 36 -240 45 -345 21z m256 -155 c178 -37 336 -176 408
-359 l25 -65 0 -1925 0 -1925 -25 -65 c-152 -389 -626 -496 -916 -206 -78 78
-133 177 -153 274 -8 37 -11 605 -11 1922 0 1317 3 1885 11 1922 41 197 214
376 412 424 66 16 180 17 249 3z M5550 6430 c-142 -24 -207 -94 -217 -235 -12
-154 45 -303 161 -421 78 -78 175 -133 275 -153 38 -8 289 -12 813 -12 836 0
831 0 952 63 75 40 181 144 224 220 48 83 76 204 69 299 -8 119 -50 182 -146
221 l-56 23 -1015 1 c-558 1 -1035 -2 -1060 -6z m1978 -276 c19 -6 22 -13 22
-58 0 -61 -28 -116 -81 -158 -43 -35 -223 -103 -311 -118 -42 -7 -250 -10
-623 -8 l-560 4 -100 35 c-122 44 -193 79 -221 111 -43 46 -64 92 -64 140 0
40 3 47 23 51 35 7 1889 7 1915 1z M5890 5195 c0 -238 4 -395 9 -395 13 0 121
105 121 118 0 6 8 18 18 28 15 16 17 42 17 241 0 154 -3 226 -11 231 -6 4 -15
18 -19 32 -8 25 -112 140 -127 140 -4 0 -8 -178 -8 -395z M7191 5528 c-45 -45
-65 -74 -74 -105 -6 -24 -15 -43 -19 -43 -4 0 -8 -90 -8 -200 0 -110 4 -200 8
-200 4 0 14 -16 21 -35 11 -31 123 -145 143 -145 4 0 8 178 8 395 0 217 -4
395 -8 395 -5 0 -36 -28 -71 -62z M5890 1845 l0 -405 -583 0 -583 0 -18 50
c-22 60 -81 155 -144 228 -93 110 -261 212 -417 253 -95 25 -276 30 -370 10
-255 -55 -470 -223 -581 -456 -67 -139 -79 -195 -78 -370 0 -141 2 -156 32
-245 110 -331 399 -555 742 -577 342 -21 662 169 806 481 l35 76 583 0 584 0
26 -83 c85 -274 364 -477 656 -477 162 0 344 71 465 182 108 99 168 202 211
365 3 10 129 13 588 13 l585 0 35 -76 c105 -227 293 -384 544 -456 111 -32
314 -32 427 0 211 60 391 198 504 386 19 31 50 103 70 159 35 99 36 106 36
252 0 173 -12 231 -76 365 -113 237 -326 405 -584 461 -93 20 -275 15 -370
-10 -159 -42 -323 -142 -419 -255 -61 -71 -121 -167 -142 -226 l-18 -50 -583
0 -583 0 0 405 c0 223 -3 405 -6 405 -3 0 -25 -16 -50 -36 -48 -40 -104 -118
-104 -146 0 -10 -4 -18 -10 -18 -6 0 -10 -99 -10 -276 0 -157 4 -273 9 -270 5
3 11 -3 14 -14 6 -22 60 -49 117 -59 l35 -6 3 -230 c1 -127 0 -240 -3 -253 -4
-17 -13 -22 -36 -22 -16 0 -51 -5 -77 -12 -49 -12 -100 -57 -208 -184 -168
-195 -522 -208 -717 -25 -22 20 -58 63 -82 96 -65 90 -118 123 -201 124 -28 1
-44 6 -48 17 -3 9 -6 121 -6 249 0 258 -6 235 67 250 28 6 43 15 91 56 17 14
13 586 -4 597 -6 4 -19 23 -29 42 -17 33 -102 120 -117 120 -5 0 -8 -182 -8
-405z m-1730 -169 c84 -29 192 -98 242 -155 18 -21 52 -65 76 -98 55 -77 142
-164 208 -208 69 -46 72 -58 22 -97 -81 -64 -231 -214 -274 -274 -85 -119
-181 -187 -319 -225 -283 -78 -591 44 -708 280 l-37 74 0 191 c0 183 1 193 25
245 34 73 150 186 235 228 112 56 197 74 335 69 96 -3 135 -9 195 -30z m5224
14 c153 -39 288 -134 354 -250 l32 -55 0 -217 0 -217 -32 -63 c-67 -130 -201
-232 -359 -274 -83 -22 -234 -22 -319 0 -145 37 -285 132 -351 238 -33 54
-168 195 -251 261 -32 25 -45 42 -41 53 3 8 31 32 62 54 66 44 154 136 206
214 81 123 213 216 362 256 94 26 237 26 337 0z"/>
</g>
</svg>
