<?xml version="1.0" standalone="no"?>
<!DOCTYPE svg PUBLIC "-//W3C//DTD SVG 20010904//EN"
 "http://www.w3.org/TR/2001/REC-SVG-20010904/DTD/svg10.dtd">
<svg version="1.0" xmlns="http://www.w3.org/2000/svg"
 width="2048.000000pt" height="2048.000000pt" viewBox="0 0 2048.000000 2048.000000"
 preserveAspectRatio="xMidYMid meet">
<metadata>
Created by potrace 1.13, written by Peter Selinger 2001-2015
</metadata>
<g transform="translate(0.000000,2048.000000) scale(0.192120,-0.192120)"
fill="#000000" stroke="none">
<path d="M4055 10054 c-22 -2 -92 -9 -155 -15 -691 -65 -1452 -391 -2050 -877
-149 -121 -399 -375 -518 -524 -358 -451 -578 -948 -663 -1498 -30 -194 -37
-571 -15 -780 38 -351 133 -705 281 -1047 109 -249 212 -433 424 -758 173
-264 219 -341 308 -520 114 -226 197 -469 240 -699 25 -131 25 -468 0 -589
-37 -184 -112 -366 -214 -519 -26 -40 -94 -120 -150 -178 -57 -57 -103 -112
-103 -121 0 -31 88 -195 150 -279 126 -172 379 -400 630 -567 303 -203 613
-293 1006 -293 231 0 472 33 656 90 l66 20 18 58 c10 31 51 122 91 202 189
378 457 615 803 711 74 20 108 23 260 24 96 0 229 -6 295 -14 169 -21 622 -19
830 3 507 53 889 167 1025 308 90 92 106 175 84 438 -24 275 -11 448 53 706 4
19 -2 21 -94 33 -424 55 -744 247 -879 527 -36 75 -74 207 -74 256 0 26 2 28
28 21 55 -15 412 -8 512 10 268 49 434 134 612 314 l88 88 -15 290 c-8 160
-16 314 -18 344 l-2 53 65 22 c157 54 298 142 415 260 141 141 205 262 213
403 4 70 1 88 -18 128 -29 60 -67 88 -175 125 -263 92 -515 256 -712 464 -94
100 -140 168 -180 267 -32 79 -33 186 -4 389 34 235 44 441 31 662 -12 222
-20 282 -55 404 -34 117 -139 326 -220 440 -454 632 -1305 1086 -2250 1199
-123 15 -534 28 -620 19z m645 -308 c422 -57 807 -175 1160 -357 528 -272 926
-667 1039 -1033 20 -66 21 -84 21 -730 0 -635 1 -665 20 -721 119 -346 488
-709 920 -907 103 -46 105 -48 108 -83 5 -51 -32 -120 -97 -183 -50 -49 -102
-84 -254 -173 -73 -42 -209 -177 -248 -244 l-29 -50 0 -263 c0 -224 -2 -263
-15 -268 -10 -4 -15 -20 -15 -48 0 -38 -4 -45 -47 -78 -150 -113 -380 -178
-633 -178 -208 0 -261 -19 -376 -134 -73 -74 -114 -148 -114 -209 0 -124 100
-356 219 -507 153 -193 365 -338 619 -421 l100 -33 7 -225 c4 -124 5 -290 3
-369 -6 -159 -11 -173 -88 -212 -101 -52 -395 -124 -630 -154 -298 -39 -759
-46 -995 -16 -49 7 -155 12 -235 12 -223 0 -404 -44 -596 -146 -248 -132 -505
-397 -675 -696 -70 -123 -117 -183 -158 -205 -40 -20 -185 -43 -343 -54 -300
-22 -598 27 -840 137 -244 111 -640 428 -748 600 -44 69 -40 99 23 185 164
222 276 467 327 719 26 126 29 524 5 664 -33 189 -84 363 -167 559 -114 272
-208 444 -413 755 -260 396 -403 677 -513 1010 -68 206 -94 308 -127 510 -22
126 -21 863 0 986 122 699 498 1302 1118 1792 340 269 818 518 1237 645 213
64 463 114 685 136 141 15 600 6 745 -13z M9525 5573 c-11 -3 -243 -111 -515
-240 -272 -130 -562 -267 -645 -306 -181 -85 -215 -107 -250 -157 -98 -142
-58 -319 93 -408 41 -23 58 -27 127 -27 l80 0 665 315 c709 336 719 342 765
435 27 54 28 185 1 235 -26 49 -84 108 -131 132 -40 21 -148 33 -190 21z m-5
-316 c0 -13 -37 -34 -98 -57 -19 -7 -39 -19 -46 -25 -16 -16 -113 -66 -123
-63 -15 4 -53 -13 -53 -23 0 -6 -4 -8 -9 -5 -5 4 -11 2 -13 -3 -5 -13 -105
-61 -127 -61 -11 0 -27 -7 -35 -16 -9 -8 -16 -12 -16 -7 0 4 -4 3 -8 -3 -14
-22 -117 -68 -164 -73 -4 -1 -13 -7 -21 -15 -21 -21 -134 -76 -156 -76 -11 0
-26 -7 -34 -15 -8 -8 -17 -11 -21 -8 -3 4 -6 2 -6 -4 0 -10 -44 -30 -115 -53
-22 -7 -46 -15 -52 -17 -22 -9 -14 24 10 39 12 8 101 52 197 98 96 45 303 143
460 218 268 127 388 180 418 181 6 1 12 -5 12 -12z M8520 4153 c-68 -25 -145
-106 -166 -178 -41 -142 27 -285 163 -341 34 -15 118 -16 788 -15 830 2 805 0
883 67 150 128 117 375 -63 460 l-50 24 -755 -1 c-661 0 -761 -3 -800 -16z
M8293 3349 c-218 -42 -302 -310 -146 -465 29 -30 104 -70 313 -168 151 -71
452 -212 667 -313 431 -202 452 -209 554 -180 136 40 222 189 189 326 -15 64
-60 132 -108 163 -30 20 -1172 560 -1307 618 -52 23 -110 30 -162 19z m241
-342 c12 -6 26 -12 31 -13 12 -3 358 -165 418 -196 23 -12 47 -23 52 -24 6 -1
75 -33 155 -71 80 -38 150 -71 155 -72 37 -11 185 -97 185 -108 0 -7 -4 -13
-10 -13 -5 0 -10 4 -10 8 0 4 -8 8 -17 9 -46 5 -77 12 -82 22 -7 11 -81 44
-81 36 0 -8 -81 35 -98 51 -7 8 -20 15 -28 15 -25 2 -29 4 -72 23 -23 10 -42
23 -42 28 0 5 -4 6 -10 3 -5 -3 -10 -2 -10 4 0 5 -15 13 -32 16 -38 9 -106 41
-126 61 -11 12 -35 18 -44 13 -6 -4 -92 44 -106 57 -12 13 -34 18 -54 15 -5 0
-8 4 -8 9 0 5 -3 9 -7 8 -13 -4 -73 24 -73 34 0 5 -4 6 -10 3 -5 -3 -10 -2
-10 4 0 9 -27 20 -60 26 -21 4 -50 18 -50 24 0 5 -13 14 -30 21 -17 7 -30 20
-30 30 0 16 3 17 42 3 22 -8 51 -19 62 -26z"/>
</g>
</svg>
