<?xml version="1.0" standalone="no"?>
<!DOCTYPE svg PUBLIC "-//W3C//DTD SVG 20010904//EN"
 "http://www.w3.org/TR/2001/REC-SVG-20010904/DTD/svg10.dtd">
<svg version="1.0" xmlns="http://www.w3.org/2000/svg"
 width="2048.000000pt" height="2048.000000pt" viewBox="0 0 2048.000000 2048.000000"
 preserveAspectRatio="xMidYMid meet">
<metadata>
Created by potrace 1.13, written by Peter Selinger 2001-2015
</metadata>
<g transform="translate(0.000000,2048.000000) scale(0.192120,-0.192120)"
fill="#000000" stroke="none">
<path d="M9975 10289 c-418 -127 -681 -217 -980 -336 -1802 -716 -3350 -1903
-4567 -3503 -169 -222 -487 -680 -505 -726 -4 -11 4 -14 32 -14 109 0 161 38
272 198 346 499 719 963 1098 1362 484 511 981 944 1555 1356 325 233 750 499
1070 669 91 48 183 98 205 110 76 44 480 233 660 310 165 70 413 170 574 231
36 14 139 64 230 112 234 123 300 154 346 160 l40 5 -92 -99 c-50 -54 -1244
-1251 -2652 -2658 -1408 -1408 -2558 -2563 -2555 -2568 3 -4 35 -8 72 -8 54 0
80 6 132 31 59 28 117 83 663 627 328 328 597 592 597 587 0 -6 773 763 1718
1708 944 944 1723 1717 1730 1717 34 0 -4 -131 -126 -427 -261 -631 -547
-1165 -942 -1758 -570 -856 -1240 -1592 -2090 -2296 -96 -80 -211 -178 -255
-218 -95 -86 -281 -228 -495 -376 -180 -125 -205 -146 -233 -200 -20 -40 -38
-195 -22 -195 10 0 294 190 475 318 1922 1358 3317 3222 4028 5382 57 174 162
517 162 531 0 12 3 13 -145 -32z M2950 6217 c-210 -60 -345 -263 -310 -466 23
-137 28 -142 433 -549 l372 -372 -1015 -1015 -1014 -1014 -56 -6 c-240 -27
-487 -145 -662 -318 -133 -131 -245 -326 -295 -512 -24 -90 -26 -117 -26 -275
0 -157 2 -185 26 -273 31 -118 97 -260 167 -361 57 -82 175 -203 260 -267 82
-61 262 -145 375 -176 90 -24 117 -27 275 -27 157 0 185 3 271 26 331 89 577
291 730 598 45 91 75 187 97 315 l17 95 1015 1015 1015 1015 320 -319 c336
-335 360 -354 474 -381 161 -38 346 41 440 188 73 115 81 275 22 399 -32 64
-108 143 -1285 1321 -688 689 -1271 1268 -1296 1287 -96 71 -246 102 -350 72z
m211 -332 c55 -28 317 -276 874 -826 182 -179 404 -393 495 -476 205 -188 573
-560 705 -714 55 -64 164 -184 243 -267 l142 -151 0 -80 c0 -67 -3 -84 -20
-101 -26 -26 -59 -33 -125 -28 -81 7 -138 50 -389 297 -127 125 -265 250 -323
294 -112 82 -272 177 -343 202 -25 9 -177 43 -339 76 -162 33 -367 77 -455 99
-89 21 -177 42 -196 45 -19 4 -46 15 -60 25 l-25 19 30 11 c21 8 68 10 150 5
140 -8 195 3 249 47 50 41 96 123 96 171 0 46 -46 140 -106 219 -24 31 -44 59
-44 63 0 3 -15 29 -33 58 -75 117 -215 276 -473 537 -292 296 -307 316 -302
404 3 45 7 53 37 73 49 33 144 32 212 -2z m481 -1251 c81 -81 147 -148 145
-150 -2 -2 -157 31 -369 78 -54 11 -98 24 -98 27 0 3 21 17 46 31 61 32 84 70
84 138 0 53 0 53 22 38 12 -8 88 -81 170 -162z m58 -655 l744 -149 59 -57 c32
-32 68 -71 79 -87 l21 -29 -35 7 c-52 10 -172 -11 -226 -38 -99 -51 -155 -133
-167 -242 -6 -59 -7 -61 -33 -57 -48 8 -1584 314 -1659 330 -40 9 -73 19 -73
22 0 3 33 19 73 35 255 103 366 194 382 318 16 115 12 107 53 101 20 -3 372
-73 782 -154z m-575 -678 c502 -100 595 -122 595 -143 0 -16 -51 -58 -78 -65
-42 -10 -136 5 -651 107 -492 98 -611 128 -611 155 0 8 12 23 28 35 45 37 148
24 717 -89z m-261 -287 c450 -90 820 -164 822 -164 2 0 4 -4 4 -8 0 -5 -30
-22 -67 -37 -273 -114 -374 -207 -391 -357 l-7 -63 -40 3 c-22 2 -267 48 -545
103 l-505 101 -72 43 c-144 88 -317 146 -480 162 l-76 8 84 34 c211 86 282
129 315 193 8 16 18 58 21 94 l6 66 56 -7 c31 -4 424 -81 875 -171z m-1157
-440 c45 -9 143 -45 242 -89 165 -74 250 -101 389 -126 58 -10 76 -17 82 -33
6 -17 33 -26 181 -56 157 -32 174 -37 177 -57 5 -32 -47 -83 -129 -128 -84
-47 -202 -155 -224 -207 -8 -20 -19 -39 -25 -43 -5 -3 -10 -19 -10 -35 0 -16
-9 -49 -19 -72 -10 -24 -27 -77 -36 -118 -64 -284 -151 -444 -308 -564 -238
-182 -560 -232 -850 -132 -196 68 -357 199 -449 366 -75 138 -80 163 -76 437
4 236 4 238 32 298 43 92 150 248 203 296 124 110 238 164 475 223 249 63 239
62 345 40z m977 -715 l38 -11 -36 -24 c-20 -14 -49 -44 -63 -67 l-27 -42 -8
65 c-4 36 -9 73 -12 84 -4 16 0 18 32 12 20 -3 54 -11 76 -17z"/>
</g>
</svg>
