<?xml version="1.0" standalone="no"?>
<!DOCTYPE svg PUBLIC "-//W3C//DTD SVG 20010904//EN"
 "http://www.w3.org/TR/2001/REC-SVG-20010904/DTD/svg10.dtd">
<svg version="1.0" xmlns="http://www.w3.org/2000/svg"
 width="2048.000000pt" height="2048.000000pt" viewBox="0 0 2048.000000 2048.000000"
 preserveAspectRatio="xMidYMid meet">
<metadata>
Created by potrace 1.13, written by Peter Selinger 2001-2015
</metadata>
<g transform="translate(0.000000,2048.000000) scale(0.192120,-0.192120)"
fill="#000000" stroke="none">
<path d="M3393 10036 c-198 -48 -371 -227 -412 -424 -13 -61 -16 -3392 -3
-3392 4 0 26 6 49 13 53 16 83 47 83 87 0 16 5 30 10 30 7 0 10 246 10 719 0
442 4 721 9 723 26 9 31 163 31 931 0 772 1 799 20 854 43 123 109 192 225
234 55 21 82 23 343 27 281 4 282 4 282 -17 l0 -21 1280 0 c1273 0 1280 0
1280 20 0 19 7 20 243 20 365 0 434 -16 531 -120 38 -42 60 -77 79 -129 l27
-72 0 -845 c0 -709 2 -844 14 -844 7 0 16 -14 20 -31 3 -17 6 -353 6 -745 0
-630 2 -713 15 -708 11 5 15 -2 16 -27 0 -35 11 -72 19 -69 3 1 12 -1 20 -3 8
-3 30 -10 49 -16 19 -6 38 -11 42 -11 14 0 11 3313 -2 3386 -36 198 -212 382
-410 429 -56 13 -301 15 -1944 14 -1481 -1 -1891 -3 -1932 -13z M4375 9068
c-74 -27 -192 -136 -239 -222 -22 -42 -26 -60 -26 -135 0 -80 3 -92 36 -156
59 -115 96 -158 366 -431 226 -230 258 -266 258 -293 0 -38 -76 -125 -315
-361 -259 -256 -343 -374 -353 -495 -5 -70 14 -142 51 -192 36 -49 139 -134
192 -159 59 -28 132 -31 195 -9 98 35 166 90 444 363 160 158 294 280 313 288
29 13 37 12 66 -2 17 -9 149 -132 292 -273 252 -249 309 -297 425 -357 45 -23
68 -28 125 -29 87 0 137 22 223 101 125 113 153 237 87 380 -48 105 -108 177
-355 429 -119 121 -228 235 -243 253 -53 66 -53 65 226 349 291 297 327 342
387 486 51 124 8 262 -121 381 -105 97 -190 118 -299 73 -95 -39 -147 -83
-431 -363 -152 -150 -291 -280 -308 -289 -61 -31 -81 -17 -396 294 -286 281
-348 333 -442 367 -45 16 -116 17 -158 2z m138 -209 c12 -6 201 -189 419 -407
l398 -397 402 402 c273 272 412 404 431 409 44 10 112 -1 145 -24 54 -39 80
-138 51 -195 -6 -12 -189 -201 -407 -419 l-397 -398 397 -397 c218 -219 401
-408 407 -420 6 -12 11 -40 11 -63 0 -115 -121 -193 -224 -145 -18 9 -209 192
-424 408 l-391 393 -393 -393 c-216 -216 -408 -400 -427 -409 -44 -21 -119
-14 -158 14 -57 41 -81 139 -49 200 8 15 192 204 408 420 l394 393 -393 391
c-216 215 -399 406 -408 424 -34 72 -3 169 65 205 39 21 110 25 143 8z M1701
7819 c-184 -31 -301 -159 -366 -400 -16 -61 -114 -718 -280 -1884 -140 -984
-257 -1810 -260 -1835 l-5 -45 20 55 c11 30 54 123 95 205 45 90 83 183 95
230 11 44 117 756 235 1583 118 826 222 1533 230 1570 41 177 112 289 213 334
46 21 204 38 355 38 51 0 87 4 87 10 0 6 111 10 314 10 182 0 317 4 321 9 3 5
18 12 33 16 15 3 52 31 82 60 l55 55 -585 -1 c-322 -1 -609 -5 -639 -10z
M7781 7788 c72 -66 74 -67 141 -83 48 -11 134 -15 371 -15 169 0 307 -4 307
-8 0 -5 69 -12 154 -16 250 -11 320 -39 383 -154 19 -35 43 -98 54 -140 26
-106 279 -1881 279 -1962 0 -101 58 -502 95 -655 8 -33 31 -168 50 -300 51
-337 56 -359 141 -535 40 -86 83 -180 94 -210 l20 -55 -5 45 c-22 203 -530
3712 -545 3769 -51 184 -136 284 -285 335 -58 20 -85 21 -680 23 l-620 3 46
-42z M2696 6139 c-190 -65 -309 -259 -277 -451 21 -125 93 -235 192 -295 114
-68 -92 -63 2719 -63 2269 0 2552 2 2605 16 161 41 278 173 306 342 26 156
-52 323 -191 412 -69 43 -140 60 -257 60 l-103 0 0 -275 0 -275 -2360 0 -2360
0 0 275 0 275 -107 0 c-82 -1 -122 -6 -167 -21z M4480 4751 c-98 -31 -163 -72
-235 -145 -129 -130 -165 -237 -165 -483 0 -84 3 -153 8 -153 11 1 82 91 106
136 22 39 34 76 55 169 26 110 105 217 200 268 100 55 124 57 876 57 751 0
776 -2 876 -56 27 -15 70 -49 95 -76 52 -56 114 -180 114 -230 0 -18 7 -42 15
-52 8 -11 15 -27 15 -35 0 -24 117 -181 135 -181 3 0 5 69 5 153 0 172 -18
268 -67 360 -39 74 -155 188 -228 224 -129 66 -89 63 -959 62 -730 0 -795 -1
-846 -18z M1173 3926 c-133 -33 -281 -142 -353 -262 -72 -120 -69 -51 -69
-1384 -1 -1326 -5 -1248 65 -1381 44 -84 148 -186 234 -229 128 -65 -216 -60
4280 -60 4537 0 4154 -6 4291 66 84 44 186 148 229 234 63 125 60 59 59 1370
0 1096 -2 1200 -17 1261 -47 180 -230 349 -420 388 -37 8 -479 11 -1463 11
l-1411 0 59 -48 c82 -68 128 -92 174 -92 28 0 39 -4 39 -15 0 -13 146 -15
1253 -15 1361 0 1336 1 1432 -56 53 -31 84 -68 119 -144 l26 -55 0 -1183 c0
-1163 0 -1183 -20 -1222 -11 -22 -20 -50 -20 -62 0 -13 -16 -46 -35 -75 -40
-59 -121 -106 -215 -123 -37 -7 -1424 -9 -4115 -8 -3838 3 -4063 4 -4111 21
-67 22 -145 80 -178 133 l-26 41 0 1255 0 1255 32 49 c52 78 107 127 168 149
54 19 88 20 1368 23 1151 2 1312 4 1312 17 0 8 7 15 14 15 19 0 88 48 145 100
l44 40 -1419 -1 c-1109 -1 -1430 -3 -1471 -13z M4080 3078 c0 -950 -1 -924 62
-1055 40 -82 138 -185 220 -231 31 -18 92 -42 136 -53 76 -19 106 -20 863 -17
l784 3 65 25 c138 54 249 154 309 277 61 125 61 114 61 1056 l0 857 -1250 0
-1250 0 0 -862z m2278 -162 l-3 -804 -41 -48 c-48 -57 -99 -94 -169 -120 -47
-18 -94 -19 -775 -22 -501 -2 -746 1 -792 8 -126 21 -226 88 -277 185 -21 39
-21 47 -21 822 l0 783 1040 0 1040 0 -2 -804z M5230 3569 c-166 -32 -339 -175
-424 -350 l-46 -95 0 -291 0 -292 34 -75 c91 -200 228 -331 395 -380 77 -23
213 -21 292 4 161 49 298 188 378 383 l32 78 -3 292 -3 292 -31 69 c-67 145
-175 259 -309 323 -107 50 -206 63 -315 42z m165 -189 c171 -28 312 -167 345
-340 5 -29 10 -124 10 -210 0 -86 -5 -181 -10 -210 -42 -222 -255 -375 -472
-340 -174 28 -315 165 -348 340 -16 85 -13 376 5 445 48 183 202 309 395 324
8 0 42 -4 75 -9z"/>
</g>
</svg>
