<?xml version="1.0" standalone="no"?>
<!DOCTYPE svg PUBLIC "-//W3C//DTD SVG 20010904//EN"
 "http://www.w3.org/TR/2001/REC-SVG-20010904/DTD/svg10.dtd">
<svg version="1.0" xmlns="http://www.w3.org/2000/svg"
 width="2048.000000pt" height="2048.000000pt" viewBox="0 0 2048.000000 2048.000000"
 preserveAspectRatio="xMidYMid meet">
<metadata>
Created by potrace 1.13, written by Peter Selinger 2001-2015
</metadata>
<g transform="translate(0.000000,2048.000000) scale(0.192120,-0.192120)"
fill="#000000" stroke="none">
<path d="M4860 10319 c-746 -37 -1342 -158 -1756 -358 -187 -90 -300 -167
-409 -276 -107 -107 -137 -158 -170 -296 -45 -190 -128 -750 -112 -765 11 -11
68 8 98 33 37 31 53 70 68 159 82 496 99 571 155 658 173 270 705 501 1396
605 332 50 602 70 1040 78 1154 19 2031 -141 2509 -459 95 -63 203 -167 241
-233 32 -56 70 -205 100 -395 57 -362 55 -354 102 -397 13 -13 38 -26 56 -29
l32 -6 0 44 c0 51 -38 367 -76 633 -31 219 -42 244 -169 370 -111 111 -219
184 -406 274 -436 209 -1004 324 -1789 361 -237 11 -671 11 -910 -1z M4975
9209 c-878 -49 -1640 -292 -2111 -672 -194 -157 -332 -355 -309 -445 32 -128
497 -281 1325 -436 102 -19 237 -42 300 -52 63 -10 118 -20 122 -24 10 -8 52
-214 77 -380 61 -403 111 -1139 111 -1650 0 -138 4 -209 10 -199 16 27 58 255
79 424 66 535 46 1277 -49 1850 -9 57 -8 63 21 123 83 169 266 289 516 339
121 24 403 24 527 -1 287 -56 481 -203 546 -414 24 -76 25 -121 5 -267 -41
-319 -49 -464 -50 -915 0 -454 4 -531 45 -815 21 -148 64 -350 67 -320 1 11 7
194 13 407 15 564 43 962 96 1355 23 178 75 457 86 468 3 3 95 21 204 40 617
107 1107 230 1328 334 104 48 150 82 167 122 28 70 -59 227 -205 367 -560 537
-1684 831 -2921 761z m870 -269 c503 -47 905 -139 1276 -291 256 -104 515
-263 647 -395 38 -39 43 -82 12 -102 -94 -59 -482 -158 -1003 -258 -161 -30
-319 -66 -353 -80 -33 -13 -67 -24 -76 -24 -19 0 -42 27 -109 124 -146 215
-336 340 -601 398 -89 19 -132 22 -313 22 -191 0 -220 -2 -320 -26 -132 -31
-248 -79 -335 -138 -80 -54 -202 -175 -257 -255 -22 -33 -52 -71 -67 -84 l-26
-24 -97 21 c-54 12 -197 40 -318 62 -578 107 -1024 227 -1044 283 -13 35 -2
55 63 113 125 114 372 262 586 352 374 158 856 268 1320 302 80 6 168 12 195
14 93 7 709 -3 820 -14z M8223 8579 c15 -99 57 -541 76 -789 98 -1277 112
-2510 41 -3765 -15 -260 -49 -717 -60 -809 -5 -44 -9 -81 -7 -82 1 -1 25 2 52
8 444 90 626 326 697 908 17 137 17 727 0 960 -31 426 -143 1482 -227 2147
-121 961 -233 1292 -481 1424 -27 15 -60 30 -73 34 -23 7 -24 6 -18 -36z m416
-2287 c14 -52 46 -274 70 -487 50 -444 51 -457 51 -1183 0 -744 0 -748 -53
-896 -40 -112 -127 -223 -143 -181 -9 22 2 948 15 1320 6 171 15 564 19 875 8
585 14 655 41 552z M2334 8574 c-79 -47 -127 -95 -179 -179 -128 -206 -202
-530 -299 -1310 -84 -674 -187 -1659 -218 -2075 -17 -233 -17 -823 0 -960 60
-492 200 -733 494 -849 73 -29 215 -67 222 -60 2 2 0 42 -4 89 -71 714 -97
2726 -50 3875 27 669 72 1294 106 1478 3 15 2 27 -3 27 -5 0 -36 -16 -69 -36z
m-280 -2566 c4 -150 6 -761 4 -1358 l-3 -1085 -36 37 c-45 47 -81 120 -110
228 -23 84 -23 91 -27 717 -2 509 0 665 12 795 22 226 44 432 56 503 5 33 16
112 25 175 29 219 37 260 56 260 15 0 17 -26 23 -272z M5245 5604 c-290 -40
-544 -173 -776 -404 -164 -164 -249 -309 -249 -427 0 -172 103 -236 420 -263
150 -13 1231 -13 1380 0 235 20 352 63 394 145 30 57 28 181 -3 249 -130 288
-520 594 -862 676 -81 19 -246 32 -304 24z m265 -280 c318 -71 731 -402 662
-531 -7 -12 -31 -24 -64 -32 -95 -22 -487 -33 -953 -28 -445 6 -587 15 -652
42 -29 12 -33 19 -33 50 0 46 36 98 132 191 191 186 436 307 663 327 60 6 172
-3 245 -19z M5125 4213 c-262 -15 -599 -88 -844 -183 -194 -76 -429 -208 -569
-319 -56 -45 -63 -63 -15 -38 39 21 221 83 323 112 590 164 1457 201 2169 94
257 -38 533 -108 709 -179 53 -22 98 -37 100 -35 6 5 -95 83 -190 146 -445
293 -1047 437 -1683 402z M4915 3650 c-711 -57 -1178 -242 -1246 -493 -12 -45
-5 -117 16 -157 45 -86 163 -126 445 -152 207 -19 2193 -19 2400 0 361 33 463
88 464 252 1 54 -4 74 -29 118 -112 204 -488 351 -1065 418 -159 18 -813 27
-985 14z m675 -250 c445 -22 808 -90 1005 -188 94 -46 105 -69 49 -96 -78 -37
-219 -41 -1314 -41 -1082 0 -1232 5 -1316 40 -75 31 -23 77 161 141 334 117
870 171 1415 144z M2360 3082 c0 -24 29 -332 45 -487 6 -57 4 -66 -55 -205
-238 -563 -360 -1001 -348 -1246 7 -139 63 -235 198 -339 408 -314 1471 -475
3130 -475 1371 0 2373 115 2869 329 217 93 368 212 426 336 97 205 -14 685
-334 1438 l-71 167 14 128 c8 70 17 161 21 202 3 41 8 96 11 123 6 44 5 47
-18 47 -31 0 -83 -33 -104 -66 -23 -35 -54 -209 -54 -308 0 -75 1 -80 31 -108
17 -16 44 -34 60 -40 24 -8 29 -16 29 -41 0 -47 -37 -361 -70 -607 l-30 -215
-64 -60 c-143 -136 -464 -262 -876 -345 -493 -100 -1062 -144 -1850 -143 -591
0 -985 21 -1400 74 -657 83 -1147 243 -1332 436 -32 33 -40 52 -62 143 -37
158 -106 602 -106 682 0 4 9 10 21 13 11 4 36 20 55 37 l34 30 0 149 c0 151
-15 299 -31 299 -5 0 -9 6 -9 13 0 17 -58 53 -97 61 -31 5 -33 4 -33 -22z m30
-1484 c15 -18 52 -62 81 -97 184 -220 574 -377 1194 -480 298 -50 658 -84
1090 -102 312 -13 1137 -7 1400 10 647 43 1141 126 1500 252 297 104 424 186
571 370 31 39 62 73 70 76 24 9 43 -16 64 -84 17 -56 20 -93 20 -264 0 -229 2
-224 -88 -287 -80 -56 -142 -85 -277 -131 -530 -183 -1399 -271 -2685 -271
-1575 0 -2595 141 -2981 411 -87 61 -89 68 -89 265 0 170 12 249 47 319 28 54
44 57 83 13z"/>
</g>
</svg>
