<?xml version="1.0" standalone="no"?>
<!DOCTYPE svg PUBLIC "-//W3C//DTD SVG 20010904//EN"
 "http://www.w3.org/TR/2001/REC-SVG-20010904/DTD/svg10.dtd">
<svg version="1.0" xmlns="http://www.w3.org/2000/svg"
 width="2048.000000pt" height="2048.000000pt" viewBox="0 0 2048.000000 2048.000000"
 preserveAspectRatio="xMidYMid meet">
<metadata>
Created by potrace 1.13, written by Peter Selinger 2001-2015
</metadata>
<g transform="translate(0.000000,2048.000000) scale(0.192120,-0.192120)"
fill="#000000" stroke="none">
<path d="M5670 8755 c-1825 -491 -2000 -538 -2000 -545 0 -10 69 -37 109 -44
71 -12 331 52 2046 510 840 224 1008 271 1013 285 2 5 8 9 12 9 19 0 139 83
143 98 3 9 5 -86 6 -213 l1 -230 30 34 c17 18 30 40 30 47 0 8 5 14 10 14 6 0
10 11 10 24 0 14 5 28 10 31 6 3 10 24 10 46 0 28 4 39 15 39 8 0 15 7 15 15
0 8 8 15 18 15 9 0 260 -65 557 -144 634 -168 639 -170 950 -240 270 -62 725
-182 836 -222 196 -70 390 -217 517 -392 40 -55 116 -209 137 -279 13 -42 15
-428 15 -2965 0 -2841 0 -2919 -19 -2960 -10 -24 -29 -67 -42 -96 -44 -102
-155 -179 -293 -203 -140 -24 -249 -3 -941 181 -255 68 -689 177 -910 230 -99
23 -302 73 -452 111 -150 38 -275 69 -278 69 -3 0 -5 7 -5 15 0 9 -17 19 -45
26 -40 10 -45 15 -45 39 0 16 -7 30 -15 34 -9 3 -15 19 -15 41 0 19 -4 43 -9
53 -5 9 -16 33 -26 52 -9 19 -28 49 -41 65 l-24 30 2 -225 3 -224 180 -48
c164 -44 738 -198 1765 -473 212 -57 437 -117 500 -135 269 -74 493 -42 659
95 107 87 178 212 207 363 22 113 21 5720 -1 5843 -26 153 -86 297 -183 443
-61 92 -227 258 -320 319 -155 103 -157 104 -1487 461 -687 184 -1266 340
-1285 346 -19 5 -39 10 -45 9 -5 -1 -602 -160 -1325 -354z M860 8910 c-201
-27 -371 -144 -454 -311 -78 -158 -70 151 -74 -3054 -2 -2073 0 -2892 8 -2950
46 -326 277 -654 586 -830 130 -75 -16 -33 1769 -510 198 -53 492 -132 653
-176 161 -43 302 -79 313 -79 12 0 660 172 1442 381 782 210 1505 403 1607
431 225 60 280 77 280 89 0 11 -107 42 -125 35 -7 -2 -15 -1 -17 3 -3 8 -170
-31 -628 -144 -148 -37 -402 -104 -1619 -430 -575 -153 -710 -192 -780 -227
-107 -53 -149 -79 -154 -98 -3 -8 -5 89 -6 215 l-1 230 -30 -35 c-16 -19 -34
-40 -40 -47 -5 -7 -10 -19 -10 -28 0 -8 -7 -15 -15 -15 -11 0 -15 -12 -15 -44
0 -39 -2 -44 -20 -39 -16 4 -20 0 -20 -21 0 -17 -5 -26 -16 -26 -9 0 -136 31
-283 69 -435 114 -660 171 -766 196 -661 152 -1236 308 -1375 373 -48 22 -175
107 -233 156 -112 96 -229 258 -290 403 l-32 78 -3 2965 -2 2965 30 62 c95
192 300 277 552 229 41 -8 389 -99 774 -202 384 -102 803 -211 929 -240 493
-115 690 -166 708 -185 10 -11 22 -19 27 -19 6 0 10 -9 10 -19 0 -10 7 -21 15
-25 10 -4 15 -20 15 -51 0 -25 4 -45 9 -45 4 0 11 -17 14 -38 2 -21 18 -59 33
-83 l29 -44 3 219 c1 120 1 220 0 222 -11 10 -2562 686 -2620 694 -82 11 -99
11 -178 0z M6905 8529 c-55 -15 -649 -175 -1320 -354 -1717 -459 -1919 -514
-1913 -520 19 -18 133 -65 159 -65 37 0 403 83 599 135 69 19 348 93 620 165
1562 414 1746 465 1768 486 7 8 16 14 20 14 4 0 19 10 34 23 14 12 47 38 72
57 24 19 47 44 49 55 2 11 5 -155 6 -370 l1 -389 40 39 c23 22 43 50 47 62 3
13 9 23 14 23 5 0 9 18 9 40 0 22 4 40 10 40 6 0 11 64 12 158 3 142 5 157 21
156 10 -1 17 5 17 17 0 11 5 19 11 19 9 0 527 -137 1244 -330 105 -28 285 -76
400 -106 116 -31 248 -67 295 -81 216 -65 356 -168 428 -316 78 -160 72 42 72
-2331 0 -1411 -3 -2126 -10 -2126 -6 0 -10 -136 -10 -387 0 -370 -1 -390 -20
-421 -11 -18 -20 -44 -20 -58 0 -35 -37 -82 -85 -107 -51 -27 -189 -29 -285
-3 -36 9 -505 134 -1042 278 l-978 261 0 43 c0 33 -4 43 -20 47 -19 5 -20 19
-23 1279 l-3 1273 -26 180 c-32 220 -43 263 -73 301 l-24 29 -1 -1651 0 -1652
78 -20 c323 -86 1331 -356 1712 -460 463 -126 465 -127 575 -127 99 0 116 3
168 27 116 55 181 128 217 246 20 63 20 103 20 2651 0 2584 0 2586 -21 2661
-61 223 -246 429 -459 514 -25 10 -506 141 -1070 292 -564 151 -1068 287
-1120 302 l-95 28 -100 -27z M1218 8270 c-144 -25 -259 -125 -307 -268 l-21
-62 2 -2612 3 -2613 32 -82 c74 -193 213 -348 393 -438 69 -35 -21 -9 935
-266 1004 -270 1320 -355 1365 -368 40 -13 -51 -35 1240 310 492 132 1086 291
1320 354 375 100 715 193 790 214 l25 8 -25 13 c-14 7 -40 22 -59 32 -18 10
-35 17 -38 14 -2 -2 -19 0 -36 5 -26 7 -75 -2 -252 -45 -121 -30 -278 -69
-350 -86 -147 -35 -282 -71 -1465 -387 -465 -124 -852 -231 -860 -238 -8 -7
-32 -18 -52 -25 -21 -6 -38 -16 -38 -21 0 -5 -6 -9 -14 -9 -8 0 -16 -3 -18 -8
-1 -4 -28 -27 -58 -50 -30 -24 -58 -53 -62 -65 -3 -12 -7 185 -8 438 l-1 460
-61 -125 c-33 -69 -64 -133 -69 -142 -5 -10 -9 -88 -9 -173 l0 -155 -24 0
c-22 0 -25 -5 -28 -39 l-3 -39 -95 24 c-52 14 -286 76 -520 139 -234 63 -515
137 -625 165 -110 28 -338 87 -507 130 -168 43 -317 84 -330 91 -44 24 -127
89 -170 134 -54 57 -126 178 -134 225 -3 19 -12 55 -20 79 -21 67 -21 5058 0
5119 37 103 107 165 202 178 93 12 75 16 1649 -406 588 -157 555 -147 555
-170 0 -11 10 -20 25 -24 l25 -6 0 -170 c0 -94 4 -170 9 -170 4 0 11 -66 14
-147 4 -100 13 -169 25 -213 11 -36 25 -99 32 -140 11 -66 42 -150 55 -150 3
0 5 265 5 588 l0 588 -87 21 c-49 12 -549 145 -1113 296 -564 152 -1052 280
-1084 286 -66 12 -89 12 -158 1z M6877 7686 c-31 -13 -69 -32 -84 -41 -19 -13
-49 -18 -102 -19 -99 -1 -132 -21 -278 -165 -61 -60 -131 -120 -154 -132 -41
-20 -50 -21 -154 -13 -60 5 -166 9 -235 9 -119 0 -128 -2 -191 -31 -37 -18
-84 -48 -106 -68 -50 -44 -121 -150 -168 -247 -63 -132 -41 -199 60 -186 84
12 160 61 291 188 68 67 139 126 160 135 35 15 39 14 63 -4 36 -27 71 -80 71
-110 0 -53 -63 -118 -167 -170 -86 -44 -533 -225 -663 -269 -153 -51 -201 -78
-220 -122 -17 -42 -7 -74 40 -125 22 -24 40 -52 40 -63 0 -23 -49 -70 -155
-148 -155 -114 -196 -174 -142 -209 30 -20 239 -76 283 -76 90 0 153 63 235
236 32 69 78 150 103 182 99 128 244 253 318 272 52 15 106 -2 114 -35 12 -47
-5 -184 -35 -281 -53 -175 -71 -260 -71 -338 l0 -76 -38 0 c-20 0 -69 7 -107
15 -84 18 -282 20 -338 3 -29 -9 -62 -36 -126 -101 -47 -49 -122 -117 -166
-150 -177 -135 -335 -310 -392 -433 -26 -55 -28 -69 -31 -227 -4 -189 8 -290
42 -339 20 -30 27 -33 72 -33 55 1 158 44 304 129 126 73 205 131 301 222 96
91 154 121 215 111 76 -13 123 -97 110 -200 -3 -28 -19 -107 -36 -175 -31
-128 -37 -202 -20 -262 5 -19 41 -91 80 -160 131 -233 152 -278 162 -359 10
-84 19 -104 53 -127 73 -48 191 65 319 306 31 59 87 142 127 190 39 47 84 108
100 135 27 47 29 57 29 156 0 83 4 116 19 150 11 24 38 106 61 183 47 155 87
226 190 340 69 76 81 100 85 171 2 28 7 62 10 76 6 23 3 27 -25 32 -23 5 -46
-1 -90 -23 -64 -32 -85 -35 -142 -20 -47 13 -89 55 -107 106 -7 21 -40 85 -73
142 -103 179 -121 245 -76 276 12 9 26 16 29 16 9 0 29 -90 29 -128 0 -42 22
-74 65 -96 30 -16 41 -29 46 -54 9 -45 52 -87 124 -122 54 -26 62 -28 82 -15
12 8 29 12 37 9 38 -15 105 48 242 226 86 111 89 117 89 168 l1 54 -51 -5
c-75 -6 -97 -19 -187 -105 -88 -84 -114 -102 -148 -102 -33 0 -100 39 -112 65
-6 14 -14 25 -18 25 -4 0 -19 18 -33 39 -34 51 -73 88 -119 112 -63 33 -105
21 -168 -48 -70 -75 -83 -122 -55 -190 8 -19 15 -43 15 -51 0 -29 102 -265
142 -329 22 -34 66 -87 99 -117 74 -69 75 -82 10 -213 -65 -132 -147 -392
-161 -508 -3 -33 -14 -76 -23 -95 -8 -19 -18 -46 -21 -60 -6 -25 -134 -209
-196 -283 -18 -20 -40 -37 -50 -37 -25 0 -60 44 -127 163 l-58 102 1 130 c1
72 5 198 9 281 l7 150 -30 60 c-41 81 -151 186 -215 204 -106 29 -216 -17
-405 -168 -117 -95 -233 -169 -301 -195 -27 -10 -33 -9 -41 3 -13 20 -12 212
1 246 20 54 124 164 279 294 41 35 108 95 149 133 110 103 119 105 387 98 96
-2 117 0 151 18 87 44 186 192 199 298 4 26 24 120 46 208 36 148 39 169 36
275 -3 115 -3 115 -42 172 -50 74 -45 91 38 153 128 94 200 206 211 328 8 89
12 95 97 137 73 36 100 55 203 140 113 94 150 116 228 137 42 11 73 25 78 35
5 10 15 18 22 18 6 0 21 10 32 23 11 12 43 42 70 66 28 23 53 52 57 64 3 12 6
-361 7 -830 l1 -851 52 -7 c39 -6 59 -15 78 -35 39 -42 87 -148 94 -210 9 -69
50 -233 78 -308 17 -47 40 -77 131 -169 89 -91 116 -113 139 -113 33 0 33 -4
12 150 -8 63 -12 136 -9 162 7 47 60 148 81 155 16 5 124 -129 157 -192 14
-27 43 -81 66 -120 22 -38 48 -92 56 -120 25 -88 85 -155 169 -190 57 -24 67
-6 64 118 -3 90 0 107 20 145 26 49 68 72 132 72 23 0 54 7 69 15 43 22 168
163 197 222 23 47 25 56 15 107 -6 31 -22 94 -36 142 -32 104 -28 120 51 182
31 24 63 59 71 78 15 31 43 47 43 24 0 -18 78 -34 117 -24 30 7 39 15 44 39 4
17 13 49 19 72 16 55 5 148 -20 173 -16 16 -29 17 -97 13 -112 -8 -118 1 -70
112 21 46 37 95 37 108 0 29 29 57 59 57 44 0 146 -32 168 -52 12 -11 34 -49
49 -84 15 -35 33 -64 39 -64 7 0 48 18 91 39 89 45 191 123 214 163 14 26 13
29 -11 55 -15 15 -25 33 -23 39 8 21 -34 43 -236 124 -239 96 -307 128 -375
180 -98 73 -218 103 -422 104 -136 1 -142 2 -168 26 -15 14 -34 39 -42 55 -27
54 -55 74 -149 111 -51 19 -98 42 -105 50 -17 21 -35 17 -82 -15 -82 -55 -138
-49 -212 25 -30 30 -35 41 -35 82 0 80 -43 110 -231 157 -57 15 -145 42 -195
61 -108 40 -139 42 -217 10z m407 -310 c18 -7 79 -61 137 -118 141 -143 161
-152 319 -153 144 -1 146 -1 281 -101 123 -91 152 -102 310 -114 74 -5 157
-16 186 -24 81 -22 160 -62 168 -84 7 -23 -11 -64 -48 -108 -39 -48 -67 -104
-82 -163 -22 -81 -19 -138 10 -199 38 -82 35 -98 -42 -181 -38 -40 -85 -105
-105 -144 l-38 -71 0 -127 c0 -69 -3 -148 -7 -174 -6 -45 -9 -50 -65 -84 -32
-20 -86 -54 -120 -76 -131 -85 -116 -79 -143 -61 -13 9 -45 49 -71 89 -58 88
-188 222 -237 242 -20 8 -53 15 -74 15 -38 0 -56 -9 -146 -74 -26 -19 -53 -33
-60 -30 -15 6 -40 60 -67 148 -35 114 -77 185 -151 259 l-69 67 0 649 0 649
41 -9 c22 -5 55 -16 73 -23z M1639 7129 c-109 -15 -207 -68 -268 -142 -13 -16
-35 -57 -49 -90 -21 -51 -26 -79 -26 -162 -1 -108 12 -147 53 -160 20 -6 80
17 132 51 37 24 71 12 130 -43 36 -34 53 -59 64 -96 20 -67 20 -226 0 -297
-24 -85 -28 -134 -15 -176 22 -70 204 -425 239 -466 22 -25 61 -53 109 -75 49
-24 98 -58 144 -101 76 -72 108 -123 108 -175 0 -61 47 -133 179 -271 69 -73
159 -170 200 -215 45 -51 95 -94 129 -114 70 -39 111 -80 196 -193 37 -49 114
-137 172 -195 l106 -106 -64 -84 c-113 -150 -125 -202 -73 -330 48 -120 116
-218 195 -286 151 -129 171 -179 150 -371 -19 -183 -51 -278 -124 -369 -33
-40 -78 -156 -91 -235 -6 -29 -3 -40 14 -57 48 -48 114 -19 308 131 59 45 110
83 113 83 14 1 307 315 387 415 119 148 155 217 183 350 24 115 50 187 83 234
11 17 69 81 127 141 158 164 182 215 103 215 -61 0 -166 20 -190 36 -13 8 -45
62 -73 121 -89 189 -115 209 -254 199 -50 -3 -117 -9 -148 -12 l-57 -6 -28 40
c-30 45 -59 53 -108 30 -19 -8 -25 -19 -25 -42 0 -26 13 -42 82 -103 60 -53
91 -73 120 -78 21 -4 38 -10 38 -15 0 -4 34 -10 76 -12 74 -3 77 -5 112 -44
52 -56 133 -160 156 -199 l20 -32 -25 -49 c-14 -27 -46 -83 -72 -124 -30 -49
-63 -127 -95 -222 -47 -140 -102 -250 -156 -315 -94 -112 -246 -384 -256 -458
-4 -27 -8 345 -9 828 0 482 -3 877 -6 877 -31 0 -265 -54 -281 -65 -12 -8 -30
-35 -39 -60 -10 -25 -22 -45 -27 -45 -20 0 -136 87 -195 147 -93 94 -88 125
28 184 33 16 59 36 59 43 0 8 -25 24 -57 36 -32 12 -72 30 -89 41 -21 13 -50
19 -87 19 -46 0 -61 5 -88 27 -57 48 -69 90 -69 250 0 136 1 143 24 170 24 28
26 28 134 28 96 0 114 -3 139 -21 39 -29 53 -61 62 -149 9 -81 32 -128 59
-123 15 3 17 19 17 123 l0 120 133 205 c74 113 145 215 158 228 29 25 58 28
97 8 l27 -15 2 417 c1 229 3 390 5 357 4 -51 9 -65 37 -95 18 -19 52 -60 77
-90 24 -30 49 -58 55 -62 6 -4 18 -24 28 -46 16 -36 16 -41 1 -83 -9 -24 -29
-80 -45 -124 -39 -114 -46 -125 -101 -170 -45 -37 -49 -44 -49 -84 l0 -44 53
6 c49 5 204 49 237 67 9 5 14 20 13 41 -7 159 -6 187 13 220 35 59 76 79 165
79 44 0 81 5 84 11 4 5 -30 46 -74 91 -45 44 -89 94 -97 109 -13 27 -19 29
-70 29 -78 0 -103 17 -149 101 -44 80 -113 156 -152 165 -13 4 -29 17 -34 30
-11 30 -55 52 -71 36 -8 -8 -8 -34 1 -100 6 -48 11 -105 11 -126 0 -52 -35
-112 -79 -132 -34 -16 -41 -16 -115 -1 -159 33 -234 93 -244 197 -3 37 1 60
18 95 27 56 71 87 165 116 117 35 167 89 132 142 -17 27 -117 81 -229 126 -43
17 -122 53 -175 80 -54 28 -120 55 -146 62 -69 17 -151 6 -228 -30 -81 -39
-174 -51 -386 -51 l-151 0 -26 30 c-24 29 -32 50 -56 147 -19 77 -73 98 -275
106 -60 2 -135 1 -166 -4z m216 -239 c31 -7 58 -28 135 -108 130 -136 166
-154 326 -160 143 -5 285 9 380 40 103 33 218 31 307 -6 47 -20 69 -35 73 -50
3 -14 -11 -53 -40 -111 -43 -83 -46 -94 -46 -166 0 -88 16 -135 78 -227 85
-125 201 -198 331 -209 l71 -6 0 -99 0 -100 -79 -74 c-43 -41 -106 -114 -139
-162 -33 -49 -68 -95 -78 -103 -13 -11 -50 -14 -153 -14 -121 0 -141 -2 -176
-22 -47 -25 -140 -112 -181 -168 -58 -79 -53 -76 -94 -55 -53 27 -81 65 -145
193 -73 147 -146 233 -282 336 -95 72 -115 92 -160 164 -29 45 -69 118 -90
162 l-38 80 -5 250 c-5 249 -5 250 -33 306 -34 68 -104 153 -174 210 -56 45
-62 59 -39 79 31 25 179 37 251 20z m1615 -3090 c0 -148 -4 -270 -8 -270 -19
0 -113 106 -141 160 -44 83 -43 146 4 220 19 30 38 60 42 65 5 6 19 24 31 40
19 24 55 53 70 55 1 0 2 -121 2 -270z M8742 5910 c-16 -94 -15 -153 3 -197 26
-61 20 -87 -27 -127 -53 -45 -44 -57 49 -63 58 -5 72 -2 93 15 24 20 24 20 7
53 -9 19 -33 55 -53 81 l-36 48 26 52 c38 77 33 142 -15 187 -13 12 -26 21
-29 21 -3 0 -11 -32 -18 -70z M3625 5376 c-16 -28 -39 -88 -52 -135 -21 -81
-23 -105 -23 -388 0 -171 4 -303 9 -303 5 0 11 -10 15 -22 3 -13 23 -41 43
-62 l38 -40 3 253 c1 139 1 363 0 499 l-3 247 -30 -49z M7922 4790 c-7 -39
-12 -93 -12 -121 0 -124 127 -250 255 -253 44 -1 50 2 53 20 5 33 -72 121
-144 166 -35 22 -64 45 -65 52 0 6 -1 41 -2 78 -2 59 -5 70 -31 97 -17 17 -32
31 -36 31 -3 0 -11 -32 -18 -70z M8272 4716 c-33 -18 -62 -66 -62 -104 0 -29
7 -36 70 -77 41 -26 84 -65 107 -95 20 -27 42 -50 48 -50 7 0 22 11 34 24 13
13 35 27 49 31 36 9 43 24 27 54 -19 36 -205 218 -230 225 -11 3 -30 -1 -43
-8z M8635 4478 c-7 -18 50 -234 69 -263 11 -17 39 -31 95 -48 53 -16 94 -37
125 -62 41 -33 56 -39 114 -44 81 -8 97 -17 177 -91 35 -32 76 -65 93 -74 36
-18 72 -21 72 -5 0 6 -45 59 -101 118 -101 108 -140 136 -228 162 -28 8 -52
24 -70 47 -63 83 -80 98 -124 109 -34 10 -66 31 -126 88 -44 41 -83 75 -86 75
-3 0 -8 -6 -10 -12z M8353 4215 c-124 -23 -246 -56 -301 -82 -56 -27 -202
-137 -202 -153 0 -5 9 -14 20 -20 28 -15 50 -62 50 -108 0 -21 -16 -102 -35
-181 -37 -150 -43 -209 -23 -229 19 -19 70 -14 155 13 43 14 90 25 105 25 21
0 34 10 54 39 30 47 84 76 122 66 14 -3 40 -22 58 -40 66 -70 154 -197 165
-238 22 -81 32 -98 97 -157 64 -60 168 -120 205 -120 10 0 35 8 54 17 49 23
213 181 230 220 7 18 18 86 23 152 5 65 12 125 15 133 8 21 -11 66 -46 106
-17 19 -39 53 -49 76 -24 55 -92 146 -176 233 -73 76 -108 93 -189 93 -54 0
-77 18 -108 84 -15 30 -34 59 -44 64 -33 17 -108 20 -180 7z m77 -248 c19 -7
63 -32 98 -56 34 -23 93 -56 129 -72 88 -40 143 -86 203 -172 l50 -70 0 -97
c0 -128 -18 -185 -66 -200 -65 -22 -86 -4 -205 171 -87 128 -197 240 -270 277
-58 28 -122 28 -190 2 -28 -12 -52 -19 -53 -18 -22 37 -25 65 -15 123 l11 63
71 20 c69 21 155 39 187 40 8 1 31 -5 50 -11z"/>
</g>
</svg>
