<?xml version="1.0" standalone="no"?>
<!DOCTYPE svg PUBLIC "-//W3C//DTD SVG 20010904//EN"
 "http://www.w3.org/TR/2001/REC-SVG-20010904/DTD/svg10.dtd">
<svg version="1.0" xmlns="http://www.w3.org/2000/svg"
 width="2048.000000pt" height="2048.000000pt" viewBox="0 0 2048.000000 2048.000000"
 preserveAspectRatio="xMidYMid meet">
<metadata>
Created by potrace 1.13, written by Peter Selinger 2001-2015
</metadata>
<g transform="translate(0.000000,2048.000000) scale(0.192120,-0.192120)"
fill="#000000" stroke="none">
<path d="M5030 10324 c-25 -2 -144 -13 -265 -24 -121 -10 -335 -24 -475 -30
-569 -25 -1232 -92 -1731 -175 -1177 -197 -1897 -522 -2114 -953 -83 -167 -88
-373 -11 -547 85 -191 300 -401 561 -547 52 -29 95 -56 95 -59 0 -4 -29 -56
-65 -115 -86 -142 -247 -464 -315 -629 -460 -1121 -503 -2362 -120 -3505 519
-1548 1776 -2756 3340 -3210 1064 -308 2202 -257 3230 147 1274 499 2315 1536
2815 2803 479 1210 471 2556 -21 3755 -67 163 -257 542 -332 663 -52 83 -60
102 -43 102 16 0 216 125 291 182 210 158 352 349 394 528 20 83 20 217 1 298
-129 547 -1051 955 -2605 1151 -425 54 -888 94 -1300 111 -146 7 -355 21 -465
32 -188 19 -734 33 -865 22z m-782 -169 c170 -44 306 -51 568 -29 308 26 729
26 1029 0 258 -22 390 -15 568 30 l108 27 127 -33 c300 -77 631 -203 942 -360
155 -78 195 -94 346 -134 293 -78 539 -172 706 -270 248 -145 334 -329 230
-493 -14 -23 -16 -21 -136 94 -206 197 -535 448 -782 596 -72 43 -87 45 -108
15 -24 -35 -20 -80 13 -124 56 -76 98 -110 626 -516 77 -60 201 -117 270 -126
l60 -8 -65 -48 c-318 -236 -1072 -394 -2225 -466 -651 -40 -1738 -40 -2395 0
-1135 70 -1910 233 -2220 466 l-65 49 58 6 c80 9 183 62 308 159 57 45 140
109 184 142 338 260 415 336 415 410 0 37 -24 78 -45 78 -8 0 -84 -48 -171
-106 -284 -191 -493 -356 -686 -542 l-107 -104 -28 54 c-57 110 -29 231 80
340 148 148 476 293 917 407 92 24 160 52 340 139 237 116 435 199 635 264
140 45 361 106 390 107 11 0 62 -10 113 -24z m-969 -59 c-2 -2 -65 -31 -140
-64 -170 -76 -406 -193 -569 -284 l-125 -70 -112 1 c-96 2 -123 -2 -188 -24
-267 -89 -476 -259 -564 -459 -30 -69 -30 -217 0 -281 30 -64 172 -197 235
-220 27 -10 96 -38 154 -63 280 -120 546 -198 850 -252 192 -33 622 -88 860
-109 1161 -104 2659 -87 3665 40 610 77 1012 171 1280 298 55 26 132 58 170
71 78 25 111 47 196 130 80 78 99 126 99 245 0 78 -4 102 -26 151 -62 140
-177 260 -331 348 -166 93 -289 127 -431 120 l-73 -4 -122 69 c-152 86 -466
242 -614 306 -62 27 -112 50 -110 51 3 3 126 -24 287 -62 58 -14 193 -50 300
-80 107 -31 235 -65 285 -76 49 -10 92 -24 96 -29 3 -6 64 -23 135 -39 519
-114 928 -253 1074 -365 25 -19 95 -68 156 -108 126 -85 238 -186 283 -256
l31 -48 0 -167 c0 -188 -2 -195 -74 -298 -56 -80 -115 -135 -267 -250 -193
-145 -266 -257 -230 -351 9 -23 5 -26 -87 -70 -574 -273 -1552 -488 -2637
-582 -429 -37 -656 -47 -1225 -52 -711 -7 -1127 9 -1700 63 -1030 96 -1976
311 -2523 571 -76 37 -96 50 -91 63 43 98 -36 215 -256 378 -148 109 -246 210
-293 302 l-37 72 0 153 0 153 40 60 c67 100 186 199 360 298 47 27 98 62 113
77 49 51 254 137 527 222 119 37 506 135 620 156 36 7 68 18 72 24 4 7 29 16
55 20 27 4 141 33 254 66 114 32 280 76 370 98 90 22 182 44 204 49 47 12 60
13 54 8z m-1914 -2328 c15 2 25 0 25 -7 0 -7 4 -10 10 -6 5 3 26 -1 46 -10 20
-8 40 -12 45 -9 5 3 9 1 9 -4 0 -9 37 -24 70 -27 8 -1 47 -14 87 -28 398 -144
1147 -305 1758 -377 696 -82 1181 -110 1917 -110 827 0 1535 48 2218 151 502
75 1184 234 1474 343 38 14 72 23 77 20 5 -3 9 0 9 5 0 6 8 11 18 11 10 0 23
5 30 12 7 7 12 9 12 5 0 -4 24 3 52 14 29 11 63 19 75 16 13 -2 23 1 23 6 0 7
5 6 13 -2 10 -10 7 -16 -13 -31 -14 -11 -31 -20 -37 -20 -7 0 -13 -5 -13 -11
0 -5 -4 -8 -9 -5 -5 4 -11 3 -13 -2 -3 -9 -177 -78 -206 -83 -4 0 -11 -4 -17
-9 -14 -11 -268 -92 -421 -134 -636 -174 -1343 -281 -2279 -343 -332 -22
-1567 -25 -1905 -5 -741 45 -1361 122 -1905 238 -240 51 -609 148 -695 181 -8
4 -18 7 -22 8 -5 2 -10 4 -13 5 -3 1 -8 3 -12 5 -5 1 -15 4 -23 8 -8 3 -80 29
-160 57 -80 28 -156 59 -170 69 -14 10 -35 21 -48 25 -30 10 -54 35 -45 49 4
7 8 8 10 0 2 -5 15 -8 28 -5z m-45 -186 c789 -343 1947 -555 3344 -613 365
-15 1336 -6 1656 15 1387 93 2401 303 3143 653 76 35 141 62 144 59 3 -3 9
-41 14 -85 6 -63 18 -105 55 -188 107 -246 157 -372 174 -438 38 -147 93 -335
145 -494 54 -169 89 -343 120 -591 21 -172 21 -744 0 -948 -22 -205 -50 -397
-90 -602 -18 -96 -43 -227 -55 -290 -43 -228 -182 -594 -356 -936 -170 -335
-338 -583 -555 -819 -20 -22 -74 -83 -119 -135 -315 -362 -764 -727 -1205
-980 -143 -83 -459 -235 -609 -294 -1075 -425 -2266 -455 -3360 -85 -809 274
-1526 755 -2093 1406 -558 640 -940 1453 -1082 2303 -41 248 -43 277 -39 865
l4 570 32 183 c73 408 176 748 343 1134 94 219 101 238 111 334 l12 102 75
-38 c42 -20 128 -60 191 -88z M3780 6425 c-299 -64 -549 -270 -756 -622 -104
-176 -194 -394 -194 -470 0 -178 170 -314 339 -273 101 24 166 87 209 202 66
176 191 379 301 489 97 96 168 133 261 133 92 0 162 -34 257 -126 120 -116
217 -276 318 -521 77 -188 292 -245 439 -116 60 53 87 107 94 186 6 78 -15
145 -102 328 -175 365 -388 603 -650 725 -44 21 -108 46 -141 55 -83 22 -292
28 -375 10z m-51 -336 c-21 -13 -66 -49 -133 -107 -128 -112 -243 -264 -348
-462 -56 -107 -97 -160 -122 -160 -13 0 -16 13 -16 65 0 36 4 73 9 83 5 9 23
46 41 81 124 250 358 483 529 527 39 10 47 9 49 -4 2 -8 -2 -18 -9 -23z m28
19 c-3 -8 -6 -5 -6 6 -1 11 2 17 5 13 3 -3 4 -12 1 -19z m474 -7 c169 -65 378
-291 498 -540 32 -67 41 -96 41 -138 0 -61 -17 -77 -48 -46 -19 18 -92 127
-92 137 0 3 -30 56 -67 118 -101 172 -231 321 -372 428 -18 14 -39 30 -46 37
-7 7 -15 9 -19 6 -3 -4 -6 1 -6 9 0 20 41 15 111 -11z M6539 6420 c-264 -55
-516 -258 -710 -570 -64 -104 -170 -322 -200 -413 -41 -125 -14 -235 77 -316
109 -95 257 -93 364 7 43 40 58 64 96 157 86 210 183 363 299 473 95 91 167
126 254 126 96 -1 165 -36 266 -138 118 -118 221 -286 291 -469 36 -95 67
-141 121 -176 195 -129 454 24 430 254 -12 113 -160 420 -293 606 -72 101
-207 240 -294 304 -208 152 -457 207 -701 155z m1 -308 c0 -9 -3 -13 -6 -9 -4
3 -12 1 -19 -6 -7 -7 -28 -23 -46 -37 -185 -140 -292 -268 -429 -515 -92 -166
-136 -215 -154 -169 -13 33 -5 87 20 147 116 276 369 541 564 592 59 15 70 15
70 -3z m367 -4 c-3 -8 -6 -5 -6 6 -1 11 2 17 5 13 3 -3 4 -12 1 -19z m134 -22
c150 -76 300 -231 417 -433 66 -114 82 -157 82 -229 0 -108 -42 -77 -139 103
-97 181 -167 279 -286 398 -110 110 -172 165 -187 165 -4 0 -8 9 -8 19 0 16 5
18 33 11 18 -4 58 -19 88 -34z M2762 4060 c-49 -30 -74 -76 -69 -129 12 -113
361 -530 641 -765 503 -423 1018 -652 1641 -732 180 -23 524 -23 710 0 618 77
1167 322 1650 738 286 246 620 648 632 759 5 53 -20 99 -69 129 -59 36 -95 27
-210 -48 -559 -369 -1221 -632 -1815 -722 -411 -62 -850 -52 -1253 30 -543
109 -1122 350 -1624 676 -142 92 -173 101 -234 64z m805 -666 c484 -217 913
-340 1388 -396 144 -17 606 -17 750 0 476 57 958 195 1401 402 59 28 113 50
120 50 72 0 -118 -176 -359 -333 -418 -272 -873 -419 -1379 -446 -681 -36
-1322 156 -1853 555 -160 120 -269 234 -225 234 5 0 76 -30 157 -66z"/>
</g>
</svg>
