<?xml version="1.0" standalone="no"?>
<!DOCTYPE svg PUBLIC "-//W3C//DTD SVG 20010904//EN"
 "http://www.w3.org/TR/2001/REC-SVG-20010904/DTD/svg10.dtd">
<svg version="1.0" xmlns="http://www.w3.org/2000/svg"
 width="2048.000000pt" height="2048.000000pt" viewBox="0 0 2048.000000 2048.000000"
 preserveAspectRatio="xMidYMid meet">
<metadata>
Created by potrace 1.13, written by Peter Selinger 2001-2015
</metadata>
<g transform="translate(0.000000,2048.000000) scale(0.192120,-0.192120)"
fill="#000000" stroke="none">
<path d="M5070 10324 c-297 -20 -550 -54 -801 -108 -1789 -385 -3239 -1742
-3745 -3506 -278 -968 -255 -2013 66 -2970 519 -1548 1776 -2756 3340 -3210
864 -250 1783 -264 2655 -40 996 256 1908 833 2577 1630 1112 1324 1459 3145
913 4785 -425 1275 -1335 2319 -2540 2910 -602 296 -1216 460 -1890 505 -136
9 -464 11 -575 4z m790 -228 c977 -117 1823 -480 2562 -1099 338 -282 682
-671 919 -1037 154 -237 315 -503 352 -581 216 -458 359 -960 422 -1479 24
-198 18 -1021 -7 -1125 -10 -38 -36 -169 -58 -290 -55 -296 -179 -779 -237
-925 -138 -344 -328 -703 -457 -865 -18 -22 -84 -107 -146 -190 -400 -526
-800 -896 -1333 -1231 -171 -107 -552 -300 -737 -373 -1091 -431 -2274 -462
-3374 -90 -914 309 -1705 880 -2298 1659 -438 575 -754 1315 -877 2050 -41
248 -43 277 -39 865 l4 570 32 183 c180 1007 634 1878 1350 2589 393 389 792
673 1287 914 492 239 988 384 1535 448 246 29 237 29 620 26 239 -2 387 -8
480 -19z M3450 7534 c-729 -111 -1388 -501 -1877 -1109 -80 -100 -107 -142
-120 -184 -28 -97 0 -204 71 -273 53 -52 101 -72 182 -76 127 -7 167 20 334
227 160 198 419 422 645 558 293 176 607 285 905 313 148 14 185 24 242 65 34
25 55 52 78 99 30 60 32 72 28 133 -8 112 -63 193 -163 239 -41 20 -65 24
-140 23 -49 -1 -133 -7 -185 -15z m-583 -466 c-3 -8 -6 -5 -6 6 -1 11 2 17 5
13 3 -3 4 -12 1 -19z m-20 -10 c-3 -8 -6 -5 -6 6 -1 11 2 17 5 13 3 -3 4 -12
1 -19z m-50 -20 c-3 -8 -6 -5 -6 6 -1 11 2 17 5 13 3 -3 4 -12 1 -19z m-20
-10 c-3 -8 -6 -5 -6 6 -1 11 2 17 5 13 3 -3 4 -12 1 -19z m-17 -4 c0 -8 -4
-12 -10 -9 -5 3 -10 1 -10 -4 0 -6 -24 -23 -52 -37 -29 -15 -55 -30 -58 -34
-3 -5 -48 -36 -100 -70 -135 -89 -364 -277 -459 -379 -19 -20 -86 -91 -149
-159 -116 -124 -158 -157 -186 -146 -25 10 -19 47 15 95 46 64 320 334 419
413 171 136 413 283 535 326 28 10 51 18 53 19 1 0 2 -6 2 -15z M6885 7526
c-60 -27 -107 -72 -138 -130 -17 -32 -22 -58 -22 -121 0 -63 5 -89 22 -121 53
-99 137 -148 273 -158 321 -25 646 -133 955 -319 227 -136 467 -343 636 -548
136 -166 166 -195 221 -219 62 -27 171 -25 230 4 119 58 182 199 145 327 -13
43 -40 85 -123 188 -483 603 -1166 1004 -1886 1106 -157 22 -252 20 -313 -9z
m932 -468 c-3 -8 -6 -5 -6 6 -1 11 2 17 5 13 3 -3 4 -12 1 -19z m128 -35 c33
-16 76 -36 95 -43 45 -18 180 -96 262 -151 269 -181 628 -529 628 -609 0 -24
-4 -30 -20 -30 -41 0 -77 30 -196 161 -205 225 -388 387 -579 513 -55 36 -109
73 -120 82 -11 8 -47 29 -80 46 -33 17 -62 34 -63 39 -2 5 -8 7 -13 3 -5 -3
-9 0 -9 6 0 6 -4 8 -10 5 -5 -3 -10 1 -10 9 0 19 32 10 115 -31z M3658 5949
c-445 -23 -835 -134 -1174 -335 -157 -93 -207 -161 -207 -283 0 -159 118 -276
278 -275 75 0 103 11 213 81 201 129 544 231 858 255 l42 3 0 -78 c2 -237 159
-445 392 -518 83 -26 224 -28 307 -4 149 43 283 154 346 286 49 103 61 167 53
280 -9 109 -8 139 0 233 4 52 2 79 -12 114 -21 56 -75 117 -127 143 -83 43
-339 83 -628 99 -96 5 -178 9 -184 8 -5 0 -76 -4 -157 -9z m540 -284 c81 -9
182 -24 223 -33 l74 -17 3 -200 c1 -110 0 -210 -3 -223 -9 -35 -68 -95 -120
-121 -90 -45 -228 -45 -319 0 -70 36 -113 86 -146 171 -17 42 -30 83 -30 91 0
45 -110 191 -199 262 -52 41 -64 70 -33 78 43 11 414 6 550 -8z m-1341 -187
c-3 -8 -6 -5 -6 6 -1 11 2 17 5 13 3 -3 4 -12 1 -19z m-17 -5 c0 -8 -4 -12 -9
-9 -5 4 -11 2 -13 -3 -5 -14 -168 -92 -178 -86 -6 4 -10 0 -11 -7 0 -11 -2
-11 -6 0 -7 18 44 60 87 72 19 6 50 19 69 29 40 21 61 23 61 4z M6890 5943
c-362 -36 -656 -116 -930 -253 -201 -100 -283 -159 -323 -235 -31 -57 -31
-193 0 -251 59 -111 198 -175 313 -144 25 7 77 31 115 55 227 141 513 235 815
268 l115 13 7 -96 c10 -152 56 -257 157 -360 105 -106 238 -161 390 -162 158
0 284 52 396 166 81 82 128 169 151 278 17 77 13 182 -7 235 -8 21 -6 40 7 81
38 123 -26 263 -147 319 -55 25 -231 59 -414 78 -126 13 -542 19 -645 8z m643
-279 c136 -15 188 -23 270 -45 l37 -10 0 -195 c0 -218 -4 -238 -65 -297 -109
-105 -339 -106 -456 0 -40 36 -99 159 -99 207 0 14 -4 28 -10 31 -5 3 -10 15
-10 26 0 10 -4 19 -9 19 -5 0 -13 10 -17 22 -3 12 -54 69 -112 126 -97 97
-104 106 -87 119 27 19 375 17 558 -3z m-1366 -196 c-3 -8 -6 -5 -6 6 -1 11 2
17 5 13 3 -3 4 -12 1 -19z m-17 -5 c0 -8 -4 -12 -9 -9 -5 4 -11 2 -13 -3 -3
-8 -161 -91 -173 -91 -3 0 -5 7 -5 15 0 9 36 33 86 58 92 46 114 52 114 30z
M6385 3514 c-313 -158 -600 -299 -636 -314 -293 -122 -884 -205 -1607 -226
-253 -8 -276 -13 -316 -67 -29 -39 -29 -115 0 -154 11 -15 36 -36 55 -46 32
-16 96 -17 1104 -14 1158 4 1110 2 1285 58 105 34 259 115 351 183 216 163
422 437 499 665 25 75 17 121 -30 166 -23 22 -41 29 -82 32 -52 3 -65 -3 -623
-283z m305 -164 c0 -24 -78 -114 -150 -172 -97 -79 -221 -145 -340 -183 -94
-29 -210 -41 -242 -24 -19 10 -19 11 -1 31 24 26 704 367 720 361 7 -3 13 -9
13 -13z"/>
</g>
</svg>
