<?xml version="1.0" standalone="no"?>
<!DOCTYPE svg PUBLIC "-//W3C//DTD SVG 20010904//EN"
 "http://www.w3.org/TR/2001/REC-SVG-20010904/DTD/svg10.dtd">
<svg version="1.0" xmlns="http://www.w3.org/2000/svg"
 width="2048.000000pt" height="2048.000000pt" viewBox="0 0 2048.000000 2048.000000"
 preserveAspectRatio="xMidYMid meet">
<metadata>
Created by potrace 1.13, written by Peter Selinger 2001-2015
</metadata>
<g transform="translate(0.000000,2048.000000) scale(0.192120,-0.192120)"
fill="#000000" stroke="none">
<path d="M5070 10324 c-297 -20 -550 -54 -801 -108 -1107 -238 -2113 -860
-2828 -1746 -169 -210 -353 -477 -420 -608 l-22 -43 33 17 c81 41 247 164 322
238 45 45 154 169 241 276 458 558 992 980 1630 1291 491 238 964 377 1540
451 159 20 223 23 550 23 387 0 479 -6 767 -50 867 -133 1691 -513 2368 -1091
237 -203 396 -369 660 -689 67 -82 153 -178 189 -213 62 -60 257 -199 329
-236 l33 -17 -12 23 c-38 74 -151 253 -230 364 -495 698 -1127 1237 -1884
1609 -602 296 -1216 460 -1890 505 -136 9 -464 11 -575 4z M1880 7823 c-585
-21 -1027 -71 -1163 -131 -55 -25 -73 -56 -87 -151 -12 -84 1 -200 28 -245 10
-17 74 -74 143 -126 167 -127 278 -240 317 -321 23 -48 45 -132 87 -332 114
-555 194 -825 317 -1071 63 -127 111 -196 184 -269 185 -184 636 -267 1324
-245 417 13 810 71 966 142 219 101 423 323 558 607 100 213 169 443 261 879
56 268 58 275 95 333 63 99 250 177 426 177 136 0 316 -63 389 -135 54 -55 70
-99 121 -337 25 -117 58 -269 75 -338 144 -609 371 -980 710 -1163 108 -59
239 -91 513 -127 231 -30 417 -41 696 -41 595 0 954 79 1123 248 204 203 343
576 502 1343 67 325 81 358 204 480 47 47 140 126 206 175 153 116 159 127
163 275 3 155 -14 205 -79 238 -209 104 -1198 165 -2125 132 -604 -22 -1218
-72 -1449 -120 -311 -64 -522 -87 -890 -96 -280 -7 -641 7 -835 32 -63 8 -196
30 -295 48 -221 42 -283 51 -555 76 -614 56 -1407 82 -1930 63z m1405 -297
c531 -35 751 -59 1073 -116 228 -41 467 -70 567 -70 72 0 145 -18 145 -36 0
-8 -7 -14 -15 -14 -8 0 -15 -4 -15 -9 0 -5 -9 -13 -20 -16 -11 -3 -26 -12 -32
-18 -7 -7 -31 -24 -53 -38 -22 -14 -77 -64 -123 -110 -130 -132 -180 -250
-242 -564 -129 -653 -321 -1035 -599 -1190 -180 -102 -584 -159 -1126 -159
-554 -1 -861 59 -1002 194 -148 141 -275 490 -407 1120 -60 282 -70 320 -115
415 -50 105 -109 182 -264 342 -109 113 -128 137 -125 160 3 24 11 30 58 44
119 36 325 61 660 79 254 14 1359 4 1635 -14z m5900 4 c312 -25 529 -64 542
-96 12 -32 -13 -68 -124 -181 -145 -145 -211 -231 -267 -348 -46 -95 -58 -135
-106 -372 -133 -645 -263 -1005 -417 -1160 -45 -44 -153 -96 -255 -122 -314
-80 -867 -92 -1368 -30 -327 40 -462 85 -603 199 -179 144 -314 394 -419 775
-16 61 -56 227 -87 370 -36 160 -71 289 -90 334 -49 116 -171 254 -296 336
-33 22 -61 43 -63 47 -2 5 -10 8 -18 8 -8 0 -14 6 -14 14 0 19 72 34 209 41
146 7 288 26 526 69 326 59 730 97 1325 126 240 11 1353 4 1525 -10z M642
7068 c-273 -707 -372 -1572 -271 -2372 190 -1509 1075 -2865 2385 -3652 1330
-798 2959 -935 4404 -367 210 82 544 246 730 358 1805 1087 2734 3143 2355
5210 -50 274 -138 593 -226 821 l-42 109 -19 -54 c-31 -92 -50 -203 -44 -252
4 -26 15 -78 25 -115 85 -318 109 -420 140 -604 47 -278 52 -362 48 -805 -4
-456 -4 -455 -83 -895 -43 -242 -178 -759 -234 -897 -157 -388 -329 -703 -563
-1028 -140 -194 -209 -275 -403 -466 -374 -369 -610 -560 -967 -785 -171 -107
-552 -300 -737 -373 -887 -350 -1823 -437 -2755 -255 -696 135 -1393 443
-1950 863 -242 182 -568 478 -729 661 -180 204 -423 547 -560 788 -268 473
-466 1029 -555 1562 -41 248 -43 277 -39 865 l4 570 33 185 c18 102 62 302 98
445 62 245 65 265 60 340 -6 76 -34 193 -55 231 -7 13 -18 -5 -50 -88z M2760
3784 c-45 -29 -65 -65 -65 -120 0 -47 6 -60 59 -138 245 -356 595 -691 972
-927 357 -223 740 -366 1152 -430 173 -27 563 -37 739 -20 651 65 1231 320
1743 768 270 236 593 624 607 730 11 83 -52 153 -138 153 -37 0 -59 -11 -153
-74 -516 -343 -1179 -610 -1751 -705 -233 -39 -328 -46 -595 -46 -276 0 -364
7 -620 51 -567 98 -1222 364 -1726 700 -96 65 -116 74 -155 74 -24 0 -55 -8
-69 -16z m780 -657 c377 -174 801 -308 1170 -371 236 -40 361 -50 620 -50 258
0 383 10 620 50 373 63 784 194 1183 378 43 20 87 36 98 36 18 0 18 -2 5 -27
-8 -16 -27 -39 -42 -53 -306 -271 -664 -471 -1043 -585 -245 -73 -452 -105
-738 -112 -475 -12 -864 65 -1273 252 -228 105 -506 286 -657 429 -124 117
-110 131 57 53z"/>
</g>
</svg>
