<?xml version="1.0" standalone="no"?>
<!DOCTYPE svg PUBLIC "-//W3C//DTD SVG 20010904//EN"
 "http://www.w3.org/TR/2001/REC-SVG-20010904/DTD/svg10.dtd">
<svg version="1.0" xmlns="http://www.w3.org/2000/svg"
 width="2048.000000pt" height="2048.000000pt" viewBox="0 0 2048.000000 2048.000000"
 preserveAspectRatio="xMidYMid meet">
<metadata>
Created by potrace 1.13, written by Peter Selinger 2001-2015
</metadata>
<g transform="translate(0.000000,2048.000000) scale(0.192120,-0.192120)"
fill="#000000" stroke="none">
<path d="M5070 10324 c-297 -20 -550 -54 -801 -108 -1789 -385 -3239 -1742
-3745 -3506 -278 -968 -255 -2013 66 -2970 519 -1548 1776 -2756 3340 -3210
968 -281 2020 -263 2960 50 203 67 341 122 544 215 l145 67 58 -50 c172 -149
442 -266 697 -301 113 -16 313 -13 430 5 559 89 1003 521 1122 1094 22 105 25
350 5 460 -37 208 -135 423 -263 581 l-45 55 64 105 c86 138 257 488 329 669
434 1103 469 2313 99 3425 -425 1275 -1335 2319 -2540 2910 -602 296 -1216
460 -1890 505 -136 9 -464 11 -575 4z m790 -228 c579 -69 1084 -216 1575 -456
906 -444 1616 -1126 2120 -2035 135 -243 252 -520 406 -960 56 -159 106 -393
143 -663 22 -156 22 -904 1 -1107 -8 -77 -19 -197 -25 -268 -33 -406 -177
-883 -429 -1412 -94 -199 -110 -264 -94 -388 l9 -79 -191 194 c-105 106 -324
330 -487 498 l-295 305 8 -65 c13 -94 36 -154 78 -208 21 -26 175 -189 342
-362 202 -210 319 -339 348 -385 24 -39 54 -86 67 -105 115 -178 178 -303 218
-428 24 -77 26 -97 26 -262 0 -172 -1 -185 -35 -315 -41 -160 -81 -252 -165
-374 -209 -306 -542 -472 -945 -472 -267 0 -467 56 -695 195 -116 71 -198 113
-269 137 -30 11 -74 31 -98 45 -25 14 -169 148 -322 297 -285 280 -337 321
-441 351 l-54 16 39 -42 c22 -24 211 -215 420 -425 l380 -383 -90 0 c-50 0
-121 -7 -160 -15 -38 -8 -88 -15 -109 -15 -79 0 -118 31 -416 325 -157 155
-304 296 -328 314 -47 37 -185 101 -217 101 -13 0 125 -145 428 -448 246 -246
447 -450 447 -453 0 -2 -62 -5 -137 -5 -114 -1 -157 -5 -243 -26 -256 -63
-564 -116 -875 -150 -161 -18 -769 -18 -930 0 -338 37 -747 111 -975 177 -571
164 -1166 491 -1670 919 -135 114 -395 371 -514 506 -179 203 -423 546 -560
788 -269 474 -466 1028 -555 1562 -41 248 -43 277 -39 865 l4 570 32 183 c180
1007 634 1878 1350 2589 393 389 792 673 1287 914 492 239 988 384 1535 448
246 29 237 29 620 26 239 -2 387 -8 480 -19z M3181 6709 c-276 -29 -522 -116
-741 -260 -166 -110 -384 -349 -426 -468 -7 -20 -13 -61 -14 -92 -1 -157 106
-269 265 -277 64 -3 76 -1 134 30 56 28 71 43 115 108 125 190 317 318 567
381 120 30 397 38 529 15 273 -48 504 -183 627 -369 59 -89 84 -113 148 -143
131 -62 294 -4 359 128 35 71 36 171 2 243 -83 178 -346 424 -575 540 -276
138 -647 199 -990 164z m-361 -384 c0 -8 -3 -14 -7 -13 -8 3 -82 -39 -93 -52
-3 -3 -30 -23 -60 -45 -66 -46 -120 -95 -214 -193 -77 -80 -122 -112 -155
-112 -17 0 -21 6 -21 29 0 94 364 373 500 383 17 1 34 6 36 10 8 13 14 9 14
-7z m1145 6 c3 -5 1 -12 -5 -16 -5 -3 -10 1 -10 9 0 18 6 21 15 7z m160 -57
c98 -49 229 -149 304 -230 49 -54 61 -73 61 -100 0 -30 -3 -34 -27 -34 -20 0
-55 28 -152 123 -152 149 -167 163 -208 188 -18 12 -33 25 -33 30 0 6 -4 7
-10 4 -5 -3 -10 -2 -10 2 0 5 -16 17 -35 27 -19 11 -35 25 -35 32 0 19 61 1
145 -42z M7115 6713 c-385 -33 -718 -175 -967 -411 -100 -95 -198 -219 -234
-297 -34 -72 -33 -172 2 -243 65 -132 228 -190 359 -128 64 30 89 54 148 143
112 169 303 292 554 355 78 21 111 23 303 22 200 0 222 -2 315 -27 127 -34
258 -96 356 -168 81 -60 132 -115 201 -219 36 -54 54 -70 108 -98 59 -31 71
-33 135 -30 84 5 135 27 192 85 68 70 92 186 59 281 -44 123 -257 359 -425
471 -305 202 -708 299 -1106 264z m-388 -385 c-3 -8 -6 -5 -6 6 -1 11 2 17 5
13 3 -3 4 -12 1 -19z m1120 -10 c-3 -8 -6 -5 -6 6 -1 11 2 17 5 13 3 -3 4 -12
1 -19z m-1170 -10 c-3 -8 -6 -5 -6 6 -1 11 2 17 5 13 3 -3 4 -12 1 -19z m1260
0 c142 -53 314 -177 404 -291 55 -69 50 -122 -9 -100 -12 5 -72 58 -134 119
-62 61 -140 132 -173 158 -33 25 -67 53 -75 60 -8 8 -32 22 -52 32 -21 10 -38
24 -38 31 0 18 10 17 77 -9z m-1277 -5 c0 -8 -4 -12 -9 -9 -5 3 -11 -1 -14 -8
-3 -8 -39 -37 -79 -64 -40 -28 -133 -109 -206 -181 -110 -109 -137 -131 -162
-131 -26 0 -30 4 -30 28 0 38 42 92 136 174 90 79 200 150 279 183 63 25 85
27 85 8z M2205 4486 c-131 -43 -204 -136 -205 -261 0 -184 263 -752 504 -1089
183 -255 415 -506 626 -678 502 -408 1083 -642 1785 -720 182 -20 683 -17 865
5 970 118 1751 564 2321 1324 206 274 407 651 513 962 68 197 62 279 -28 379
-102 113 -299 113 -401 0 -42 -46 -53 -70 -95 -203 -69 -216 -190 -465 -330
-679 -569 -866 -1472 -1297 -2609 -1245 -710 33 -1305 266 -1791 702 -345 310
-650 782 -790 1222 -42 133 -53 157 -95 203 -62 70 -187 106 -270 78z m122
-330 c15 -19 46 -79 67 -133 264 -664 678 -1183 1241 -1557 72 -47 136 -90
142 -96 7 -6 15 -10 18 -10 14 2 65 -36 65 -47 0 -16 -34 -4 -106 38 -28 16
-57 29 -64 29 -14 0 -165 89 -231 137 -26 18 -50 33 -53 33 -4 0 -12 5 -19 10
-7 6 -46 36 -87 66 -327 242 -638 621 -857 1041 -113 216 -154 329 -160 436
-6 98 0 106 44 53z m6014 -205 c-55 -157 -61 -171 -105 -267 -53 -111 -88
-172 -209 -354 -139 -209 -210 -295 -411 -493 -120 -119 -386 -337 -411 -337
-4 0 -26 -13 -50 -30 -24 -16 -48 -30 -53 -30 -6 0 -12 -3 -14 -7 -8 -19 -353
-193 -391 -198 -12 -1 -46 -12 -75 -24 -30 -12 -58 -19 -63 -16 -5 4 -9 1 -9
-4 0 -6 -4 -11 -10 -11 -5 0 -10 6 -10 13 0 11 46 38 67 39 4 0 20 9 35 19 14
10 30 19 36 19 19 0 272 145 392 225 512 341 916 846 1175 1470 55 131 92 202
112 214 16 9 18 3 21 -66 2 -64 -2 -90 -27 -162z m-4464 -1653 c-3 -8 -6 -5
-6 6 -1 11 2 17 5 13 3 -3 4 -12 1 -19z m20 -10 c-3 -8 -6 -5 -6 6 -1 11 2 17
5 13 3 -3 4 -12 1 -19z m20 -10 c-3 -8 -6 -5 -6 6 -1 11 2 17 5 13 3 -3 4 -12
1 -19z m20 -10 c-3 -8 -6 -5 -6 6 -1 11 2 17 5 13 3 -3 4 -12 1 -19z m2583
-84 c0 -8 -5 -12 -10 -9 -6 4 -8 11 -5 16 9 14 15 11 15 -7z m-30 -10 c0 -8
-5 -12 -10 -9 -6 4 -8 11 -5 16 9 14 15 11 15 -7z"/>
</g>
</svg>
