<?xml version="1.0" standalone="no"?>
<!DOCTYPE svg PUBLIC "-//W3C//DTD SVG 20010904//EN"
 "http://www.w3.org/TR/2001/REC-SVG-20010904/DTD/svg10.dtd">
<svg version="1.0" xmlns="http://www.w3.org/2000/svg"
 width="2048.000000pt" height="2048.000000pt" viewBox="0 0 2048.000000 2048.000000"
 preserveAspectRatio="xMidYMid meet">
<metadata>
Created by potrace 1.13, written by Peter Selinger 2001-2015
</metadata>
<g transform="translate(0.000000,2048.000000) scale(0.192120,-0.192120)"
fill="#000000" stroke="none">
<path d="M5070 10324 c-169 -12 -337 -29 -476 -49 -1166 -172 -2240 -758
-3023 -1651 -1174 -1338 -1547 -3196 -981 -4884 376 -1123 1149 -2085 2166
-2696 1149 -690 2526 -889 3829 -554 653 168 1306 491 1830 906 1045 827 1707
1995 1875 3309 194 1518 -328 3053 -1411 4145 -387 390 -807 695 -1304 945
-610 307 -1242 479 -1930 525 -136 9 -464 11 -575 4z m790 -228 c579 -69 1084
-216 1575 -456 903 -443 1619 -1130 2119 -2033 136 -246 253 -522 407 -962 61
-175 118 -451 154 -750 15 -118 17 -199 12 -510 -4 -236 -12 -422 -22 -515 -9
-80 -20 -199 -25 -265 -10 -130 -20 -198 -44 -315 -81 -379 -225 -780 -422
-1166 -110 -217 -205 -372 -366 -596 -318 -444 -785 -905 -1118 -1103 -30 -18
-109 -66 -175 -106 -253 -157 -590 -329 -829 -423 -1068 -423 -2261 -455
-3346 -90 -320 108 -576 224 -920 417 -104 58 -360 219 -420 264 -213 158
-533 456 -729 678 -187 211 -437 563 -573 808 -273 491 -458 1014 -547 1547
-42 249 -43 276 -38 870 l4 575 31 172 c159 880 500 1608 1075 2296 125 149
397 421 549 549 735 619 1602 996 2548 1107 246 29 237 29 620 26 239 -2 387
-8 480 -19z M3795 6705 c-330 -61 -616 -312 -829 -728 -162 -316 -173 -441
-52 -563 91 -91 214 -109 326 -48 67 37 104 82 137 169 71 189 187 379 298
490 135 136 259 169 393 105 149 -70 304 -274 421 -553 56 -135 90 -180 164
-219 59 -32 184 -32 242 -1 94 50 154 147 155 246 0 144 -187 515 -372 735
-246 292 -567 426 -883 367z m-25 -312 c0 -8 -4 -12 -9 -9 -5 4 -11 2 -13 -3
-1 -5 -30 -27 -63 -50 -132 -92 -281 -261 -379 -431 -125 -219 -142 -245 -166
-257 l-25 -12 -3 65 c-3 61 1 73 42 158 134 273 355 492 545 541 60 15 71 15
71 -2z m355 8 c3 -5 1 -12 -5 -16 -5 -3 -10 1 -10 9 0 18 6 21 15 7z m145 -41
c167 -84 354 -296 460 -522 32 -68 40 -97 40 -142 0 -49 -3 -56 -19 -56 -28 0
-71 56 -134 175 -30 56 -80 141 -111 188 -65 98 -246 293 -300 322 -20 11 -39
28 -42 37 -3 10 -10 16 -15 13 -5 -4 -9 1 -9 11 0 23 55 12 130 -26z M6568
6704 c-89 -16 -190 -52 -268 -96 -261 -147 -514 -476 -654 -850 -57 -154 -46
-250 42 -341 61 -64 105 -82 197 -82 145 0 207 52 286 241 117 279 274 484
424 556 164 77 331 0 493 -227 66 -93 154 -259 196 -370 32 -87 69 -132 136
-169 112 -61 235 -43 325 48 84 84 105 179 64 298 -88 258 -258 536 -435 714
-231 231 -518 330 -806 278z m-18 -310 c0 -8 -5 -12 -10 -9 -6 4 -8 11 -5 16
9 14 15 11 15 -7z m460 -18 c152 -61 313 -219 440 -433 78 -130 91 -169 88
-248 l-3 -68 -32 27 c-17 15 -60 77 -94 139 -34 62 -92 157 -128 212 -68 103
-221 270 -288 315 -41 27 -56 38 -77 57 -8 7 -16 9 -20 6 -3 -4 -6 1 -6 9 0
21 44 15 120 -16z m-490 14 c0 -14 -27 -40 -75 -72 -56 -37 -171 -150 -237
-233 -60 -75 -103 -143 -188 -298 -30 -54 -70 -112 -89 -129 l-35 -31 -8 28
c-34 129 172 469 383 631 104 80 249 141 249 104z M2640 4500 c-267 -51 -389
-279 -359 -673 37 -498 325 -1046 780 -1482 758 -726 1848 -1045 2894 -845
796 152 1518 601 1982 1230 103 139 168 248 244 405 116 240 180 461 198 689
28 355 -70 580 -286 657 -100 36 -197 30 -503 -29 -912 -176 -1414 -227 -2255
-227 -873 0 -1383 54 -2420 256 -124 24 -217 30 -275 19z m168 -276 c17 -3 33
-13 36 -21 4 -9 -31 -52 -92 -117 -115 -122 -142 -167 -142 -241 0 -105 121
-421 214 -560 54 -81 149 -175 216 -213 31 -18 95 -41 150 -53 179 -41 170
-38 170 -62 -1 -12 -12 -40 -25 -62 -66 -106 -68 -144 -15 -248 105 -203 373
-427 712 -595 222 -109 305 -140 527 -196 575 -145 1272 -114 1803 78 464 168
884 488 995 756 27 67 28 104 3 150 -44 80 -60 119 -54 133 3 10 38 21 97 32
192 37 269 81 384 220 109 130 253 486 253 623 0 78 -20 113 -138 242 -57 63
-89 105 -86 114 8 22 89 31 161 19 69 -12 119 -42 134 -80 5 -13 9 -128 9
-255 0 -244 0 -241 -62 -453 -64 -222 -261 -541 -492 -799 -139 -155 -437
-390 -624 -493 -173 -96 -483 -239 -534 -247 -7 -1 -19 -5 -25 -9 -7 -5 -17
-5 -23 -2 -5 3 -10 2 -10 -4 0 -12 -69 -33 -82 -25 -4 3 -8 0 -8 -6 0 -6 -4
-9 -9 -5 -5 3 -12 1 -16 -4 -3 -5 -14 -8 -25 -6 -11 2 -20 -1 -20 -6 0 -6 -4
-8 -9 -4 -5 3 -12 1 -16 -4 -3 -5 -14 -8 -25 -6 -11 2 -20 0 -20 -5 0 -5 -9
-7 -20 -5 -11 2 -20 0 -20 -5 0 -5 -9 -7 -20 -5 -11 2 -20 0 -20 -6 0 -5 -11
-7 -25 -5 -14 3 -25 0 -25 -5 0 -5 -11 -7 -25 -5 -14 3 -25 1 -25 -4 0 -5 -8
-9 -17 -9 -10 -1 -33 -3 -50 -6 -18 -3 -45 -8 -60 -10 -16 -2 -55 -9 -88 -15
-91 -16 -564 -24 -675 -11 -156 18 -170 20 -263 36 -17 3 -40 5 -49 6 -10 0
-18 4 -18 9 0 5 -11 7 -25 4 -14 -2 -25 -1 -25 4 0 4 -12 9 -27 10 -51 3 -63
5 -63 13 0 4 -9 6 -20 4 -11 -2 -20 0 -20 5 0 5 -7 7 -15 4 -8 -4 -21 -1 -29
5 -7 6 -16 8 -19 4 -4 -3 -13 0 -22 7 -8 7 -15 9 -15 5 0 -4 -6 -2 -13 4 -8 6
-17 8 -20 4 -4 -3 -7 -1 -7 5 0 6 -6 9 -13 6 -38 -14 -462 168 -685 296 -76
43 -299 195 -322 220 -3 3 -37 31 -77 63 -102 83 -296 287 -384 404 -196 259
-298 470 -374 769 -23 91 -25 120 -25 298 0 217 7 248 58 282 57 37 154 53
230 38z m137 -314 c179 -50 501 -110 795 -149 1355 -179 3097 -104 4069 175
22 7 23 5 16 -27 -17 -79 -102 -304 -162 -430 l-65 -136 -161 -32 c-585 -113
-1245 -165 -2112 -164 -730 0 -1269 33 -1820 114 -134 19 -436 75 -440 81 -48
74 -145 298 -194 450 -40 125 -46 148 -36 148 3 0 52 -13 110 -30z m4230
-1141 c-278 -285 -693 -515 -1120 -620 -250 -61 -367 -73 -720 -74 -257 0
-343 4 -440 18 -553 83 -1008 295 -1371 639 -41 39 -73 73 -71 75 2 2 73 -8
158 -22 288 -47 680 -85 1098 -106 312 -15 1224 -6 1491 15 375 30 663 63 875
101 72 12 134 23 140 24 5 1 -13 -22 -40 -50z"/>
</g>
</svg>
