<?xml version="1.0" standalone="no"?>
<!DOCTYPE svg PUBLIC "-//W3C//DTD SVG 20010904//EN"
 "http://www.w3.org/TR/2001/REC-SVG-20010904/DTD/svg10.dtd">
<svg version="1.0" xmlns="http://www.w3.org/2000/svg"
 width="2048.000000pt" height="2048.000000pt" viewBox="0 0 2048.000000 2048.000000"
 preserveAspectRatio="xMidYMid meet">
<metadata>
Created by potrace 1.13, written by Peter Selinger 2001-2015
</metadata>
<g transform="translate(0.000000,2048.000000) scale(0.192120,-0.192120)"
fill="#000000" stroke="none">
<path d="M5070 10324 c-297 -20 -550 -54 -801 -108 -1789 -385 -3239 -1742
-3745 -3506 -278 -968 -255 -2013 66 -2970 519 -1548 1776 -2756 3340 -3210
864 -250 1783 -264 2655 -40 996 256 1908 833 2577 1630 1112 1324 1459 3145
913 4785 -425 1275 -1335 2319 -2540 2910 -602 296 -1216 460 -1890 505 -136
9 -464 11 -575 4z m790 -228 c977 -117 1823 -480 2562 -1099 338 -282 682
-671 919 -1037 154 -237 315 -503 352 -581 171 -363 307 -788 377 -1179 48
-266 50 -305 50 -868 0 -520 -1 -542 -25 -709 -111 -761 -399 -1473 -848
-2098 -181 -252 -460 -568 -631 -715 -162 -139 -510 -391 -743 -538 -165 -104
-565 -306 -747 -377 -1084 -424 -2266 -454 -3360 -84 -790 267 -1533 757
-2061 1359 -180 205 -422 547 -559 788 -269 474 -466 1028 -555 1562 -41 248
-43 277 -39 865 l4 570 32 183 c180 1007 634 1878 1350 2589 393 389 792 673
1287 914 492 239 988 384 1535 448 246 29 237 29 620 26 239 -2 387 -8 480
-19z M3533 7535 c-256 -69 -461 -333 -539 -695 -26 -120 -26 -400 0 -520 121
-558 527 -845 914 -648 117 59 248 200 320 343 44 88 89 222 108 322 21 108
24 355 5 463 -65 373 -283 664 -551 735 -69 18 -189 18 -257 0z m289 -303
c113 -56 197 -161 247 -309 19 -57 21 -85 21 -340 l0 -278 -29 -83 c-92 -263
-290 -397 -496 -337 -144 41 -269 185 -324 371 -19 64 -21 96 -21 325 0 183 4
268 14 305 34 128 137 274 232 330 72 42 121 54 211 51 67 -3 92 -9 145 -35z
M6866 7535 c-173 -48 -338 -198 -439 -400 -42 -85 -90 -234 -108 -335 -17 -98
-17 -345 0 -440 78 -440 357 -749 676 -750 312 0 579 282 671 710 26 121 26
401 0 520 -79 364 -285 628 -543 695 -69 18 -190 18 -257 0z m288 -299 c108
-53 198 -164 246 -302 20 -59 21 -78 18 -365 l-3 -304 -29 -70 c-38 -90 -114
-204 -165 -244 -73 -58 -126 -76 -226 -76 -82 0 -97 3 -156 32 -118 58 -224
201 -268 363 -19 66 -21 102 -21 315 0 267 6 302 64 420 62 124 168 222 275
252 76 21 198 12 265 -21z M2583 4765 c-98 -30 -197 -115 -242 -208 -95 -196
-85 -538 25 -872 70 -209 143 -358 280 -565 262 -398 634 -738 1076 -984 899
-502 2002 -552 2945 -136 903 399 1586 1203 1703 2005 18 118 15 326 -5 415
-35 157 -120 271 -242 328 -48 22 -76 27 -158 30 -88 3 -133 -3 -370 -48 -890
-169 -1343 -217 -2105 -227 -890 -11 -1431 40 -2423 227 -285 53 -400 62 -484
35z m275 -277 c12 -6 22 -15 22 -19 0 -5 -21 -28 -47 -51 -134 -121 -187 -197
-186 -269 2 -134 220 -432 469 -640 401 -335 935 -560 1538 -649 251 -37 359
-44 676 -44 317 0 425 7 676 44 595 88 1100 298 1516 633 259 208 488 523 488
672 0 57 -66 148 -183 253 -26 23 -47 46 -47 50 0 21 49 34 130 34 71 1 96 -3
134 -21 77 -38 78 -44 74 -345 -5 -293 -7 -303 -102 -536 -55 -136 -94 -206
-207 -375 -111 -166 -229 -306 -360 -428 -485 -449 -1044 -710 -1724 -803
-162 -22 -587 -26 -745 -6 -707 87 -1315 368 -1788 826 -166 161 -257 269
-365 434 -154 234 -243 432 -286 637 -27 128 -31 476 -6 528 31 64 125 100
240 91 33 -3 70 -10 83 -16z m77 -296 c648 -183 1836 -283 2885 -242 765 30
1486 121 1899 240 58 16 107 28 109 25 15 -15 -196 -276 -302 -373 -434 -395
-968 -618 -1696 -709 -208 -25 -792 -25 -1000 0 -264 33 -504 83 -710 149
-518 165 -964 469 -1226 834 -68 95 -74 108 -46 100 9 -2 49 -14 87 -24z"/>
</g>
</svg>
