<?xml version="1.0" standalone="no"?>
<!DOCTYPE svg PUBLIC "-//W3C//DTD SVG 20010904//EN"
 "http://www.w3.org/TR/2001/REC-SVG-20010904/DTD/svg10.dtd">
<svg version="1.0" xmlns="http://www.w3.org/2000/svg"
 width="2048.000000pt" height="2048.000000pt" viewBox="0 0 2048.000000 2048.000000"
 preserveAspectRatio="xMidYMid meet">
<metadata>
Created by potrace 1.13, written by Peter Selinger 2001-2015
</metadata>
<g transform="translate(0.000000,2048.000000) scale(0.192120,-0.192120)"
fill="#000000" stroke="none">
<path d="M5070 10324 c-297 -20 -550 -54 -801 -108 -1789 -385 -3239 -1742
-3745 -3506 -278 -968 -255 -2013 66 -2970 519 -1548 1776 -2756 3340 -3210
1064 -308 2202 -257 3230 147 210 82 544 246 730 358 1046 630 1817 1595 2195
2750 328 1001 325 2115 -10 3120 -425 1275 -1335 2319 -2540 2910 -602 296
-1216 460 -1890 505 -136 9 -464 11 -575 4z m790 -228 c977 -117 1823 -480
2562 -1099 338 -282 682 -671 919 -1037 154 -237 315 -503 352 -581 178 -377
317 -820 386 -1229 49 -288 53 -360 48 -877 -3 -443 -6 -501 -26 -628 -91
-577 -235 -1025 -487 -1522 -339 -665 -893 -1303 -1486 -1710 -200 -137 -705
-398 -994 -514 -1069 -427 -2271 -459 -3366 -89 -298 101 -583 229 -906 406
-254 140 -393 237 -642 448 -135 114 -395 371 -514 506 -123 139 -311 392
-423 565 -351 546 -588 1153 -688 1760 -46 280 -47 293 -43 890 l4 570 32 183
c180 1007 634 1878 1350 2589 393 389 792 673 1287 914 492 239 988 384 1535
448 246 29 237 29 620 26 239 -2 387 -8 480 -19z M3450 7534 c-729 -111 -1388
-501 -1877 -1109 -80 -100 -107 -142 -120 -184 -28 -97 0 -204 71 -273 53 -52
101 -72 182 -76 127 -7 167 20 334 227 160 198 419 422 645 558 293 176 607
285 905 313 148 14 185 24 242 65 34 25 55 52 78 99 30 60 32 72 28 133 -8
112 -63 193 -163 239 -41 20 -65 24 -140 23 -49 -1 -133 -7 -185 -15z m-583
-466 c-3 -8 -6 -5 -6 6 -1 11 2 17 5 13 3 -3 4 -12 1 -19z m-20 -10 c-3 -8 -6
-5 -6 6 -1 11 2 17 5 13 3 -3 4 -12 1 -19z m-50 -20 c-3 -8 -6 -5 -6 6 -1 11
2 17 5 13 3 -3 4 -12 1 -19z m-20 -10 c-3 -8 -6 -5 -6 6 -1 11 2 17 5 13 3 -3
4 -12 1 -19z m-17 -4 c0 -8 -4 -12 -10 -9 -5 3 -10 1 -10 -4 0 -6 -24 -23 -52
-37 -29 -15 -55 -30 -58 -34 -3 -5 -48 -36 -100 -70 -135 -89 -364 -277 -459
-379 -19 -20 -86 -91 -149 -159 -116 -124 -158 -157 -186 -146 -25 10 -19 47
15 95 46 64 320 334 419 413 171 136 413 283 535 326 28 10 51 18 53 19 1 0 2
-6 2 -15z M6885 7526 c-60 -27 -107 -72 -138 -130 -17 -32 -22 -58 -22 -121 0
-63 5 -89 22 -121 53 -99 137 -148 273 -158 321 -25 646 -133 955 -319 227
-136 467 -343 636 -548 136 -166 166 -195 221 -219 62 -27 171 -25 230 4 119
58 182 199 145 327 -13 43 -40 85 -123 188 -483 603 -1166 1004 -1886 1106
-157 22 -252 20 -313 -9z m932 -468 c-3 -8 -6 -5 -6 6 -1 11 2 17 5 13 3 -3 4
-12 1 -19z m128 -35 c33 -16 76 -36 95 -43 92 -37 270 -151 431 -276 216 -169
459 -425 459 -484 0 -73 -68 -32 -216 131 -205 225 -388 387 -579 513 -55 36
-109 73 -120 82 -11 8 -47 29 -80 46 -33 17 -62 34 -63 39 -2 5 -8 7 -13 3 -5
-3 -9 0 -9 6 0 6 -4 8 -10 5 -5 -3 -10 1 -10 9 0 19 32 10 115 -31z M3390
6000 c-338 -60 -658 -244 -888 -511 -76 -88 -98 -137 -87 -189 13 -61 77 -110
142 -110 16 0 60 19 98 41 183 108 411 180 700 221 116 16 493 16 615 0 293
-39 508 -109 740 -242 92 -53 200 12 200 120 -1 56 -8 68 -95 170 -223 262
-569 453 -915 505 -134 21 -378 18 -510 -5z M6750 6005 c-366 -58 -748 -285
-956 -567 -37 -50 -44 -68 -44 -105 0 -110 108 -176 200 -123 102 59 268 133
370 164 553 166 1247 110 1672 -136 78 -45 93 -50 130 -45 52 7 88 33 111 80
27 55 16 106 -40 175 -233 291 -569 491 -931 553 -135 23 -379 25 -512 4z
M921 4788 c-41 -228 -40 -434 4 -593 12 -45 13 -13 14 303 1 193 -1 352 -3
352 -2 0 -9 -28 -15 -62z M3612 4495 c0 -318 1 -345 14 -295 7 30 19 110 26
178 13 132 2 299 -26 412 -13 50 -14 23 -14 -295z M9722 4495 c0 -318 1 -345
14 -295 28 113 39 281 26 418 -7 70 -18 150 -26 177 -13 45 -14 18 -14 -300z
M7013 4683 c-11 -89 -7 -350 6 -388 6 -21 10 40 10 213 1 133 -1 242 -3 242
-3 0 -8 -30 -13 -67z M5545 4344 c-90 -45 -100 -177 -19 -237 17 -13 70 -25
166 -38 262 -37 500 -110 652 -201 185 -109 268 -271 222 -430 -65 -225 -371
-384 -881 -459 -149 -21 -170 -31 -201 -91 -29 -57 -7 -136 49 -173 13 -8 83
-24 155 -35 591 -86 914 -294 889 -571 -23 -254 -339 -438 -889 -518 -91 -13
-146 -26 -163 -38 -62 -45 -72 -149 -19 -204 43 -45 76 -51 200 -39 285 28
534 77 744 147 452 150 683 379 683 678 0 149 -55 277 -168 390 -114 114 -263
201 -456 266 -55 19 -99 36 -99 39 0 4 33 17 73 29 270 87 500 247 584 406
116 221 80 463 -97 645 -215 222 -641 374 -1215 435 -172 18 -173 18 -210 -1z
m1271 -639 c3 -12 4 -92 2 -177 -2 -119 -6 -159 -18 -173 -13 -16 -16 1 -20
166 -3 101 -3 192 -2 201 5 23 31 11 38 -17z m4 -1549 c0 -138 -3 -165 -17
-186 -17 -24 -18 -20 -23 160 -3 102 -3 193 -1 203 3 17 5 17 22 1 17 -15 19
-33 19 -178z M1150 3690 c12 -16 24 -30 26 -30 3 0 -4 14 -16 30 -12 17 -24
30 -26 30 -3 0 4 -13 16 -30z M1275 3541 c191 -202 469 -352 755 -406 181 -34
461 -21 620 29 59 19 33 19 -55 0 -100 -21 -404 -30 -518 -14 -302 41 -543
157 -782 379 -61 57 -64 59 -20 12z M9239 3413 c-13 -16 -12 -17 4 -4 16 13
21 21 13 21 -2 0 -10 -8 -17 -17z M8988 3265 c-46 -25 -189 -75 -278 -98 -75
-18 -114 -21 -325 -21 -212 0 -251 3 -334 22 -52 12 -96 20 -98 18 -5 -5 134
-41 217 -57 36 -7 135 -13 220 -12 168 0 281 18 435 69 74 24 222 93 200 93
-5 0 -22 -6 -37 -14z"/>
</g>
</svg>
