<?xml version="1.0" standalone="no"?>
<!DOCTYPE svg PUBLIC "-//W3C//DTD SVG 20010904//EN"
 "http://www.w3.org/TR/2001/REC-SVG-20010904/DTD/svg10.dtd">
<svg version="1.0" xmlns="http://www.w3.org/2000/svg"
 width="2048.000000pt" height="2048.000000pt" viewBox="0 0 2048.000000 2048.000000"
 preserveAspectRatio="xMidYMid meet">
<metadata>
Created by potrace 1.13, written by Peter Selinger 2001-2015
</metadata>
<g transform="translate(0.000000,2048.000000) scale(0.192120,-0.192120)"
fill="#000000" stroke="none">
<path d="M5070 10324 c-169 -12 -337 -29 -476 -49 -1166 -172 -2240 -758
-3023 -1651 -1174 -1338 -1547 -3196 -981 -4884 448 -1335 1444 -2423 2740
-2993 912 -400 1954 -516 2945 -326 449 86 841 218 1260 424 1812 890 2911
2784 2785 4795 -96 1514 -860 2886 -2103 3772 -387 276 -903 534 -1352 678
-389 124 -806 202 -1220 230 -136 9 -464 11 -575 4z m790 -228 c978 -117 1813
-475 2565 -1100 128 -107 466 -440 628 -620 215 -238 419 -550 597 -911 135
-275 271 -629 286 -745 8 -55 44 -189 78 -287 30 -85 69 -288 97 -507 19 -145
20 -200 16 -650 -3 -447 -5 -503 -26 -631 -33 -209 -59 -327 -101 -460 -21
-66 -48 -167 -60 -225 -59 -284 -284 -802 -495 -1141 -191 -306 -473 -663
-651 -825 -534 -483 -822 -690 -1289 -924 -249 -125 -411 -193 -660 -275
-1102 -365 -2340 -313 -3413 142 -546 232 -1024 549 -1482 983 -359 339 -682
783 -928 1275 -205 411 -355 873 -431 1325 -42 249 -43 276 -38 870 l4 575 31
172 c107 592 285 1084 578 1594 139 244 290 461 463 669 118 142 431 454 583
582 735 619 1602 996 2548 1107 246 29 237 29 620 26 239 -2 387 -8 480 -19z
M3890 8380 c-87 -19 -121 -45 -233 -183 -431 -533 -1012 -864 -1607 -918 -188
-16 -250 -53 -308 -178 -46 -99 -19 -223 65 -302 69 -66 94 -74 228 -73 253 2
582 84 901 224 449 197 854 516 1184 935 49 63 75 107 87 144 38 130 -22 269
-140 325 -59 27 -125 38 -177 26z m40 -323 c0 -70 -272 -360 -495 -526 -49
-37 -101 -74 -115 -82 -14 -8 -27 -17 -30 -20 -11 -13 -224 -134 -232 -132 -4
2 -8 -1 -8 -6 0 -8 -40 -27 -48 -22 -1 1 -16 -6 -32 -14 -98 -51 -111 -30 -17
29 333 207 560 397 802 670 79 89 125 126 158 126 11 0 17 -8 17 -23z m-1053
-839 c-3 -8 -6 -5 -6 6 -1 11 2 17 5 13 3 -3 4 -12 1 -19z m-20 -10 c-3 -8 -6
-5 -6 6 -1 11 2 17 5 13 3 -3 4 -12 1 -19z m-20 -10 c-3 -8 -6 -5 -6 6 -1 11
2 17 5 13 3 -3 4 -12 1 -19z M6647 8376 c-67 -18 -126 -64 -164 -126 -59 -96
-54 -210 12 -305 150 -215 466 -528 707 -697 443 -313 1002 -518 1423 -522
139 -1 172 10 242 86 79 87 94 213 37 318 -51 93 -122 133 -260 145 -586 49
-1161 358 -1576 845 -168 197 -187 217 -230 237 -59 28 -133 35 -191 19z m148
-316 c18 -11 74 -68 125 -125 119 -136 294 -304 407 -391 113 -88 345 -245
412 -278 28 -15 51 -33 51 -41 0 -20 -1 -20 -68 14 -31 15 -68 31 -82 34 -14
4 -74 36 -134 72 -61 36 -114 65 -118 65 -4 0 -8 5 -8 10 0 6 -5 10 -11 10
-32 0 -261 182 -402 319 -201 196 -293 331 -226 331 12 0 36 -9 54 -20z m1012
-852 c-3 -8 -6 -5 -6 6 -1 11 2 17 5 13 3 -3 4 -12 1 -19z m20 -10 c-3 -8 -6
-5 -6 6 -1 11 2 17 5 13 3 -3 4 -12 1 -19z m20 -10 c-3 -8 -6 -5 -6 6 -1 11 2
17 5 13 3 -3 4 -12 1 -19z M2189 6427 c-131 -50 -196 -150 -187 -288 6 -77 36
-139 90 -185 62 -51 102 -62 278 -74 246 -16 600 -73 803 -130 l37 -11 -31
-46 c-49 -70 -71 -153 -67 -247 l3 -78 -90 -32 c-405 -146 -840 -368 -1151
-587 -119 -85 -161 -159 -152 -273 6 -72 26 -116 77 -169 49 -53 104 -79 177
-85 81 -6 114 6 241 90 509 335 1078 571 1633 677 173 33 345 52 535 60 210 8
245 19 318 101 50 55 67 103 67 186 0 91 -30 143 -143 250 -454 429 -1146 722
-1947 824 -219 28 -443 35 -491 17z m1141 -423 c390 -111 762 -296 1040 -516
118 -94 138 -124 104 -159 -20 -19 -43 -22 -329 -49 -271 -26 -542 -85 -900
-196 -54 -17 -74 -22 -120 -28 -16 -2 -37 -6 -45 -8 -29 -6 -14 18 42 69 139
126 207 242 208 353 1 25 7 63 15 85 8 22 17 72 21 110 5 60 3 77 -16 118 -22
46 -125 169 -174 208 -14 11 -26 26 -26 33 0 22 54 16 180 -20z m-303 -976
c-3 -8 -6 -5 -6 6 -1 11 2 17 5 13 3 -3 4 -12 1 -19z m-170 -70 c-3 -8 -6 -5
-6 6 -1 11 2 17 5 13 3 -3 4 -12 1 -19z m-20 -10 c-3 -8 -6 -5 -6 6 -1 11 2
17 5 13 3 -3 4 -12 1 -19z m-50 -20 c-3 -8 -6 -5 -6 6 -1 11 2 17 5 13 3 -3 4
-12 1 -19z m-20 -10 c-3 -8 -6 -5 -6 6 -1 11 2 17 5 13 3 -3 4 -12 1 -19z
m-17 -5 c0 -8 -4 -11 -10 -8 -5 3 -10 2 -10 -2 0 -13 -89 -55 -101 -48 -5 4
-9 1 -9 -5 0 -6 -4 -8 -10 -5 -5 3 -10 1 -10 -4 0 -6 -31 -26 -69 -45 -38 -19
-75 -41 -83 -49 -8 -8 -30 -22 -48 -32 -19 -10 -93 -54 -164 -98 -125 -77
-186 -102 -186 -74 0 34 105 100 422 266 65 33 125 61 133 61 9 0 38 13 65 28
55 32 80 36 80 15z M8145 6429 c-885 -88 -1632 -387 -2115 -846 -110 -104
-140 -157 -141 -246 -1 -77 19 -133 68 -187 73 -82 108 -93 318 -101 282 -12
508 -46 790 -119 461 -120 937 -331 1350 -601 157 -102 183 -113 265 -107 77
6 130 31 181 85 52 54 71 98 77 175 4 62 2 74 -27 133 -35 71 -74 106 -235
209 -294 190 -665 373 -1001 497 l-130 48 3 78 c4 93 -19 176 -67 246 l-31 46
37 10 c259 68 539 114 807 132 172 11 213 22 274 73 52 45 84 108 90 181 9
120 -40 216 -139 270 -50 28 -62 30 -169 31 -63 1 -155 -2 -205 -7z m-635
-402 c0 -6 -36 -46 -80 -89 -107 -107 -150 -178 -150 -251 0 -30 7 -74 15 -98
9 -24 18 -71 21 -104 3 -33 9 -69 14 -80 5 -11 17 -40 28 -65 37 -87 157 -221
248 -276 15 -10 17 -14 7 -25 -8 -8 -13 -9 -13 -2 0 5 -10 9 -22 9 -13 -1 -33
1 -46 6 -12 4 -33 10 -45 12 -12 2 -92 25 -177 51 -357 106 -627 157 -965 180
-148 10 -194 30 -180 75 20 62 346 290 585 409 306 152 760 300 760 248z m127
-999 c-3 -8 -6 -5 -6 6 -1 11 2 17 5 13 3 -3 4 -12 1 -19z m70 -30 c-3 -8 -6
-5 -6 6 -1 11 2 17 5 13 3 -3 4 -12 1 -19z m50 -20 c-3 -8 -6 -5 -6 6 -1 11 2
17 5 13 3 -3 4 -12 1 -19z m28 3 c3 -5 1 -12 -5 -16 -5 -3 -10 1 -10 9 0 18 6
21 15 7z m42 -33 c-3 -8 -6 -5 -6 6 -1 11 2 17 5 13 3 -3 4 -12 1 -19z m50 -3
c3 -9 2 -19 -2 -23 -4 -4 -10 -1 -12 6 -3 6 -9 10 -14 6 -5 -3 -9 2 -9 10 0
21 29 21 37 1z m20 -27 c-3 -8 -6 -5 -6 6 -1 11 2 17 5 13 3 -3 4 -12 1 -19z
m129 -36 c34 -17 64 -28 68 -25 3 4 6 0 6 -7 0 -7 2 -11 5 -8 5 5 91 -37 268
-131 100 -52 232 -144 232 -161 0 -30 -42 -20 -125 31 -47 29 -134 81 -194
115 -60 35 -116 70 -125 78 -9 7 -63 37 -121 66 -58 29 -107 56 -108 61 -2 5
-8 7 -13 3 -5 -3 -9 2 -9 10 0 19 33 10 116 -32z M4140 3931 c-50 -16 -88 -41
-126 -85 -22 -24 -176 -229 -344 -454 -168 -226 -309 -411 -314 -411 -5 -1
-33 21 -61 48 -212 200 -542 -17 -448 -295 14 -41 44 -77 192 -227 201 -203
240 -229 344 -230 64 0 140 25 181 61 10 9 161 206 334 437 173 231 318 423
321 428 4 4 200 -235 437 -530 236 -296 447 -558 469 -582 55 -61 123 -91 205
-91 82 0 150 30 205 91 22 24 233 286 469 582 237 295 433 534 437 530 3 -5
148 -197 322 -429 173 -232 328 -431 345 -443 52 -37 104 -53 169 -53 104 -1
143 25 344 229 148 150 178 186 192 227 46 136 -10 279 -135 342 -109 55 -223
38 -313 -47 -28 -27 -56 -49 -61 -48 -5 0 -146 185 -314 411 -168 225 -320
427 -338 449 -92 108 -244 130 -365 52 -25 -15 -194 -219 -475 -571 -240 -301
-447 -561 -459 -577 l-23 -30 -22 30 c-128 170 -902 1127 -926 1143 -64 46
-170 65 -242 43z m138 -305 c45 -23 113 -102 448 -521 177 -220 355 -432 396
-471 77 -73 163 -124 208 -124 42 0 127 48 192 109 34 31 205 236 381 456 450
562 453 565 531 565 80 0 98 -19 377 -390 271 -361 359 -451 471 -481 39 -11
52 -9 123 14 44 15 90 27 101 27 51 0 32 -55 -49 -139 -70 -72 -132 -111 -178
-111 -40 0 -98 33 -137 78 -25 29 -138 176 -162 212 -8 12 -22 30 -30 40 -8
10 -22 28 -30 40 -8 12 -22 30 -30 40 -8 10 -22 28 -30 40 -8 12 -22 30 -30
40 -8 10 -22 28 -30 40 -101 145 -265 289 -346 304 -54 11 -142 -35 -240 -125
-101 -92 -91 -80 -392 -459 -368 -462 -383 -481 -424 -506 -43 -27 -87 -31
-126 -10 -39 21 -128 116 -215 231 -100 132 -525 657 -570 704 -123 127 -222
181 -295 161 -80 -22 -204 -130 -321 -280 -36 -47 -70 -90 -76 -96 -5 -6 -17
-22 -25 -34 -8 -12 -22 -30 -30 -40 -8 -10 -22 -28 -30 -40 -8 -12 -22 -30
-30 -40 -8 -10 -22 -28 -30 -41 -49 -73 -176 -223 -203 -239 -36 -22 -89 -25
-129 -7 -44 19 -156 124 -184 172 -42 73 -17 82 117 38 74 -23 87 -25 127 -14
105 28 184 109 458 471 256 340 258 342 303 375 40 29 96 33 139 11z"/>
</g>
</svg>
