<?xml version="1.0" standalone="no"?>
<!DOCTYPE svg PUBLIC "-//W3C//DTD SVG 20010904//EN"
 "http://www.w3.org/TR/2001/REC-SVG-20010904/DTD/svg10.dtd">
<svg version="1.0" xmlns="http://www.w3.org/2000/svg"
 width="2048.000000pt" height="2048.000000pt" viewBox="0 0 2048.000000 2048.000000"
 preserveAspectRatio="xMidYMid meet">
<metadata>
Created by potrace 1.13, written by Peter Selinger 2001-2015
</metadata>
<g transform="translate(0.000000,2048.000000) scale(0.192120,-0.192120)"
fill="#000000" stroke="none">
<path d="M5070 10324 c-169 -12 -337 -29 -476 -49 -1166 -172 -2240 -758
-3023 -1651 -1174 -1338 -1547 -3196 -981 -4884 376 -1123 1149 -2085 2166
-2696 1149 -690 2526 -889 3829 -554 653 168 1306 491 1830 906 1045 827 1707
1995 1875 3309 194 1518 -328 3053 -1411 4145 -387 390 -807 695 -1304 945
-610 307 -1242 479 -1930 525 -136 9 -464 11 -575 4z m790 -228 c579 -69 1084
-216 1575 -456 904 -443 1619 -1130 2119 -2033 83 -151 108 -203 196 -407 73
-170 115 -288 184 -515 30 -99 67 -214 81 -255 30 -88 68 -285 95 -498 16
-126 20 -213 20 -493 0 -430 -23 -664 -105 -1089 -18 -96 -43 -227 -55 -290
-59 -314 -302 -885 -536 -1257 -401 -640 -922 -1162 -1554 -1559 -416 -260
-1160 -528 -1735 -623 -921 -152 -1807 -50 -2725 314 -309 123 -322 129 -496
231 -373 218 -650 431 -962 738 -199 195 -320 333 -469 531 -514 685 -822
1441 -933 2290 -8 63 -10 260 -7 665 l4 575 31 172 c159 880 500 1608 1075
2296 125 149 397 421 549 549 735 619 1602 996 2548 1107 246 29 237 29 620
26 239 -2 387 -8 480 -19z M3780 6425 c-299 -64 -549 -270 -756 -622 -104
-176 -194 -394 -194 -470 0 -178 170 -314 339 -273 101 24 166 87 209 202 66
176 191 379 301 489 97 96 168 133 261 133 92 0 162 -34 257 -126 120 -116
217 -276 318 -521 77 -188 292 -245 439 -116 60 53 87 107 94 186 6 78 -15
145 -102 328 -175 365 -388 603 -650 725 -44 21 -108 46 -141 55 -83 22 -292
28 -375 10z m-51 -336 c-21 -13 -66 -49 -133 -107 -128 -112 -243 -264 -348
-462 -56 -107 -97 -160 -122 -160 -13 0 -16 13 -16 65 0 36 4 73 9 83 5 9 23
46 41 81 124 250 358 483 529 527 39 10 47 9 49 -4 2 -8 -2 -18 -9 -23z m28
19 c-3 -8 -6 -5 -6 6 -1 11 2 17 5 13 3 -3 4 -12 1 -19z m474 -7 c169 -65 378
-291 498 -540 32 -67 41 -96 41 -138 0 -61 -17 -77 -48 -46 -19 18 -92 127
-92 137 0 3 -30 56 -67 118 -101 172 -231 321 -372 428 -18 14 -39 30 -46 37
-7 7 -15 9 -19 6 -3 -4 -6 1 -6 9 0 20 41 15 111 -11z M6539 6420 c-264 -55
-516 -258 -710 -570 -64 -104 -170 -322 -200 -413 -41 -125 -14 -235 77 -316
109 -95 257 -93 364 7 43 40 58 64 96 157 86 210 183 363 299 473 95 91 167
126 254 126 96 -1 165 -36 266 -138 118 -118 221 -286 291 -469 36 -95 67
-141 121 -176 195 -129 454 24 430 254 -12 113 -160 420 -293 606 -72 101
-207 240 -294 304 -208 152 -457 207 -701 155z m1 -308 c0 -9 -3 -13 -6 -9 -4
3 -12 1 -19 -6 -7 -7 -28 -23 -46 -37 -185 -140 -292 -268 -429 -515 -92 -166
-136 -215 -154 -169 -13 33 -5 87 20 147 116 276 369 541 564 592 59 15 70 15
70 -3z m367 -4 c-3 -8 -6 -5 -6 6 -1 11 2 17 5 13 3 -3 4 -12 1 -19z m134 -22
c150 -76 300 -231 417 -433 66 -114 82 -157 82 -229 0 -108 -42 -77 -139 103
-97 181 -167 279 -286 398 -110 110 -172 165 -187 165 -4 0 -8 9 -8 19 0 16 5
18 33 11 18 -4 58 -19 88 -34z M5274 4071 c-27 -12 -72 -66 -80 -97 -14 -54
19 -129 68 -155 11 -6 70 -17 131 -25 360 -47 648 -155 793 -299 92 -90 118
-153 112 -265 -16 -265 -324 -446 -902 -530 -113 -17 -132 -22 -157 -46 -88
-84 -42 -223 78 -239 452 -58 741 -165 890 -328 71 -78 96 -148 91 -247 -6
-94 -39 -163 -114 -237 -137 -133 -431 -243 -769 -288 -145 -20 -184 -37 -211
-94 -19 -40 -14 -99 11 -137 9 -14 36 -34 59 -44 37 -17 53 -18 146 -9 618 57
1103 233 1301 471 161 194 181 444 50 645 -43 66 -150 170 -225 218 -80 51
-203 110 -301 144 -49 17 -97 34 -105 37 -8 3 31 22 90 43 377 136 585 333
622 587 23 159 -31 320 -148 444 -174 184 -473 318 -894 399 -221 43 -496 69
-536 52z m1255 -635 c9 -11 11 -63 9 -180 -3 -141 -6 -168 -20 -183 -17 -16
-18 -9 -18 149 0 91 -3 180 -6 197 -5 24 -3 31 9 31 8 0 20 -6 26 -14z m0
-1380 c19 -23 11 -347 -9 -371 -13 -16 -16 2 -20 176 -3 107 -4 197 -2 202 5
11 18 8 31 -7z"/>
</g>
</svg>
