<?xml version="1.0" standalone="no"?>
<!DOCTYPE svg PUBLIC "-//W3C//DTD SVG 20010904//EN"
 "http://www.w3.org/TR/2001/REC-SVG-20010904/DTD/svg10.dtd">
<svg version="1.0" xmlns="http://www.w3.org/2000/svg"
 width="2048.000000pt" height="2048.000000pt" viewBox="0 0 2048.000000 2048.000000"
 preserveAspectRatio="xMidYMid meet">
<metadata>
Created by potrace 1.13, written by Peter Selinger 2001-2015
</metadata>
<g transform="translate(0.000000,2048.000000) scale(0.192120,-0.192120)"
fill="#000000" stroke="none">
<path d="M5070 10324 c-415 -28 -770 -88 -1120 -188 -468 -135 -921 -340
-1318 -599 -67 -44 -124 -78 -126 -76 -2 2 -41 63 -88 134 -106 163 -189 271
-276 358 -109 111 -149 122 -229 59 -329 -260 -978 -1459 -1212 -2239 -79
-262 -107 -482 -83 -660 11 -79 10 -84 -19 -164 -77 -210 -167 -575 -208 -844
-123 -797 -55 -1607 199 -2365 376 -1123 1149 -2085 2166 -2696 1149 -690
2526 -889 3829 -554 996 256 1908 833 2577 1630 1417 1687 1557 4121 343 5960
-677 1025 -1719 1774 -2900 2085 -293 77 -644 134 -960 155 -136 9 -464 11
-575 4z m790 -228 c593 -71 1089 -216 1605 -472 417 -206 543 -280 765 -448
417 -315 823 -743 1110 -1171 227 -337 440 -776 572 -1180 100 -306 155 -553
198 -889 23 -178 27 -585 10 -872 -23 -379 -101 -816 -206 -1154 -20 -63 -51
-169 -69 -235 -41 -148 -111 -315 -231 -551 -84 -165 -208 -376 -273 -464 -32
-44 -140 -178 -165 -205 -10 -11 -30 -36 -45 -55 -154 -204 -427 -491 -656
-687 -212 -183 -492 -381 -740 -523 -143 -83 -459 -235 -609 -294 -1188 -470
-2526 -454 -3694 41 -881 374 -1646 1016 -2153 1804 -346 539 -583 1153 -688
1779 -42 249 -43 276 -38 870 l4 575 31 170 c54 295 61 337 72 450 6 61 13
135 16 165 l6 55 58 -116 c67 -136 134 -238 215 -329 206 -231 466 -381 775
-447 120 -26 420 -25 539 1 431 93 778 362 974 751 41 82 89 222 112 326 22
102 31 335 16 440 -58 399 -343 1109 -710 1764 -55 99 -101 183 -101 186 0 4
28 7 63 7 89 0 146 22 467 184 401 203 680 310 1050 403 262 66 580 118 845
139 131 10 746 -3 875 -18z m-3804 -384 c39 -28 53 -46 192 -233 74 -100 139
-162 233 -222 31 -20 72 -54 91 -76 48 -56 169 -279 298 -551 143 -299 226
-500 300 -720 102 -303 100 -290 100 -640 0 -328 -1 -338 -57 -479 -112 -286
-348 -536 -637 -676 -132 -64 -173 -78 -303 -104 -388 -78 -776 9 -1085 242
-127 95 -273 261 -334 377 l-29 55 3 395 c3 377 5 400 28 505 113 504 575
1468 949 1980 130 177 173 203 251 147z M3752 6285 c-357 -65 -673 -296 -922
-675 -83 -127 -140 -242 -140 -283 0 -72 79 -142 151 -134 20 3 68 23 105 46
157 92 403 171 649 207 147 22 513 25 655 6 285 -38 507 -110 729 -237 69 -39
125 -30 181 30 21 22 25 37 25 84 0 51 -6 67 -63 167 -253 442 -613 727 -996
789 -110 18 -275 18 -374 0z m431 -289 c173 -44 344 -144 480 -279 42 -42 57
-64 55 -80 -4 -26 -23 -26 -143 5 -376 95 -893 94 -1274 -2 -119 -29 -135 -29
-139 -1 -7 50 216 230 371 301 200 91 434 111 650 56z M6803 6286 c-242 -46
-467 -170 -664 -366 -194 -192 -389 -489 -389 -591 0 -106 109 -171 200 -119
176 100 363 172 546 209 535 107 1120 36 1496 -181 78 -45 93 -50 130 -45 80
11 134 78 123 152 -11 71 -142 290 -264 439 -81 99 -232 241 -324 304 -106 73
-266 148 -384 178 -122 32 -354 42 -470 20z m427 -286 c165 -41 373 -163 492
-286 86 -90 62 -112 -85 -74 -225 57 -551 86 -793 70 -172 -11 -372 -40 -489
-71 -129 -34 -152 -31 -135 17 20 51 209 203 329 263 215 108 458 136 681 81z
M5095 3646 c-440 -73 -791 -337 -1021 -770 -49 -92 -134 -291 -134 -314 0 -8
12 -4 33 11 207 157 739 257 1357 257 619 0 1149 -100 1358 -257 20 -15 32
-19 32 -11 0 23 -85 222 -134 314 -189 355 -462 600 -791 712 -49 17 -124 38
-165 47 -102 22 -426 29 -535 11z m435 -270 c222 -34 444 -133 574 -258 80
-78 56 -98 -97 -79 -51 6 -110 13 -132 16 -22 2 -154 10 -292 17 -199 9 -307
9 -505 0 -257 -13 -287 -15 -416 -32 -40 -6 -91 -10 -113 -10 -35 0 -39 2 -39
26 0 68 260 231 455 285 177 49 386 61 565 35z"/>
</g>
</svg>
