<?xml version="1.0" standalone="no"?>
<!DOCTYPE svg PUBLIC "-//W3C//DTD SVG 20010904//EN"
 "http://www.w3.org/TR/2001/REC-SVG-20010904/DTD/svg10.dtd">
<svg version="1.0" xmlns="http://www.w3.org/2000/svg"
 width="2048.000000pt" height="2048.000000pt" viewBox="0 0 2048.000000 2048.000000"
 preserveAspectRatio="xMidYMid meet">
<metadata>
Created by potrace 1.13, written by Peter Selinger 2001-2015
</metadata>
<g transform="translate(0.000000,2048.000000) scale(0.192120,-0.192120)"
fill="#000000" stroke="none">
<path d="M5070 10324 c-297 -20 -550 -54 -801 -108 -1789 -385 -3239 -1742
-3745 -3506 -278 -968 -255 -2013 66 -2970 519 -1548 1776 -2756 3340 -3210
864 -250 1783 -264 2655 -40 816 210 1588 640 2185 1217 l127 123 147 50 c491
170 846 407 1084 725 83 111 130 202 164 321 19 66 22 102 22 219 -1 122 -4
151 -28 228 -73 241 -224 422 -442 528 -124 60 -217 81 -364 83 -140 1 -227
-16 -343 -67 -37 -16 -69 -28 -70 -26 -1 2 -10 36 -20 74 -74 297 -317 533
-625 606 -73 18 -109 20 -222 17 -119 -4 -147 -9 -232 -38 -164 -55 -311 -158
-410 -289 -154 -204 -231 -542 -207 -911 25 -370 148 -794 335 -1150 72 -136
207 -338 279 -417 l57 -63 136 0 c150 0 330 18 492 49 57 12 105 19 107 17 6
-6 -215 -105 -292 -130 -190 -61 -362 -81 -525 -60 -58 8 -149 18 -202 24
-114 11 -141 23 -197 86 -161 183 -346 562 -445 909 -66 233 -69 254 -73 615
-5 379 -3 399 68 575 55 136 151 278 273 401 103 104 103 110 -5 52 -137 -72
-258 -201 -333 -353 -183 -370 -173 -918 29 -1504 110 -321 308 -679 477 -861
l32 -35 109 -4 c227 -7 545 44 853 139 53 17 99 30 103 30 7 0 -27 -20 -289
-167 -113 -64 -259 -144 -325 -178 -622 -324 -826 -416 -1169 -530 -988 -327
-2082 -321 -3078 15 -287 97 -543 211 -873 387 -258 138 -418 249 -675 467
-135 114 -395 371 -514 506 -179 203 -423 546 -560 788 -269 474 -466 1028
-555 1562 -41 248 -43 277 -39 865 l4 570 32 183 c122 683 360 1282 737 1852
191 288 376 512 629 761 185 181 243 230 456 390 287 215 511 352 815 500 491
238 964 377 1540 451 159 20 223 23 550 23 387 0 479 -6 767 -50 777 -119
1509 -431 2158 -921 248 -187 284 -216 385 -303 152 -133 392 -398 562 -621
303 -399 562 -897 725 -1395 100 -306 155 -553 198 -889 29 -224 29 -756 0
-1031 -11 -104 -20 -216 -20 -249 0 -67 -8 -120 -57 -375 -42 -218 -41 -258 9
-411 l35 -105 37 115 c104 326 181 751 206 1140 104 1656 -625 3259 -1945
4275 -521 401 -1137 704 -1770 870 -293 77 -644 134 -960 155 -136 9 -464 11
-575 4z m3344 -5994 c108 -27 209 -83 291 -162 59 -56 81 -86 135 -190 76
-145 168 -249 240 -268 42 -11 47 -11 225 22 187 35 368 11 492 -64 67 -41
156 -144 206 -240 l37 -73 0 -202 c0 -160 -3 -212 -16 -250 -28 -81 -116 -202
-226 -309 -179 -174 -419 -316 -750 -444 -84 -32 -211 -84 -281 -115 -192 -83
-375 -120 -565 -113 -117 4 -142 16 -214 112 -166 218 -311 538 -405 891 l-37
140 -4 367 c-3 353 -2 370 19 445 41 148 85 215 196 304 91 72 190 124 287
149 100 26 268 26 370 0z M3710 8919 c-716 -108 -1381 -506 -1871 -1119 -95
-118 -110 -148 -117 -226 -16 -208 194 -360 383 -275 64 28 68 33 190 181 422
516 999 844 1585 900 63 6 131 16 150 22 84 27 149 94 176 184 30 102 7 192
-69 269 -90 89 -177 102 -427 64z m-583 -471 c-3 -8 -6 -5 -6 6 -1 11 2 17 5
13 3 -3 4 -12 1 -19z m-17 -4 c0 -8 -5 -12 -10 -9 -6 4 -8 11 -5 16 9 14 15
11 15 -7z m-33 -16 c-3 -8 -6 -5 -6 6 -1 11 2 17 5 13 3 -3 4 -12 1 -19z m-20
-10 c-3 -8 -6 -5 -6 6 -1 11 2 17 5 13 3 -3 4 -12 1 -19z m-17 -4 c0 -8 -4
-12 -10 -9 -5 3 -10 1 -10 -4 0 -6 -24 -23 -52 -37 -29 -15 -55 -30 -58 -34
-3 -4 -61 -45 -130 -92 -69 -46 -140 -97 -159 -114 -228 -197 -254 -221 -420
-402 -114 -123 -156 -157 -185 -146 -34 13 -18 59 47 135 177 206 436 428 651
559 72 44 230 129 243 131 13 2 37 10 58 19 11 5 21 9 23 9 1 1 2 -6 2 -15z
M6320 7853 c-143 -13 -245 -34 -292 -60 -90 -49 -139 -134 -139 -239 0 -137
86 -243 222 -273 31 -7 73 -6 149 5 129 19 428 21 565 5 532 -65 964 -289
1278 -664 107 -128 137 -153 204 -173 94 -28 189 -7 260 59 88 81 119 213 73
314 -26 57 -113 166 -235 292 -383 397 -847 627 -1449 717 -99 15 -539 27
-636 17z m1137 -445 c-3 -8 -6 -5 -6 6 -1 11 2 17 5 13 3 -3 4 -12 1 -19z m50
-20 c-3 -8 -6 -5 -6 6 -1 11 2 17 5 13 3 -3 4 -12 1 -19z m57 -3 c10 -8 22
-12 26 -10 12 8 189 -78 289 -140 220 -136 506 -402 499 -463 -4 -30 -30 -37
-67 -17 -14 7 -75 64 -136 126 -95 96 -187 182 -287 265 -39 33 -137 98 -203
135 -33 18 -66 39 -72 45 -7 7 -26 18 -43 26 -16 7 -30 17 -30 21 0 5 -4 5
-10 2 -5 -3 -10 1 -10 9 0 20 19 20 44 1z M3420 6985 c-272 -62 -484 -325
-566 -705 -28 -132 -26 -392 5 -530 47 -215 131 -379 261 -511 70 -71 100 -93
170 -127 143 -69 269 -78 404 -28 93 33 150 70 226 145 106 105 172 212 228
373 169 478 22 1066 -324 1297 -125 84 -273 116 -404 86z m255 -304 c114 -53
195 -149 250 -295 25 -65 25 -72 25 -354 l0 -287 -29 -82 c-63 -181 -175 -300
-316 -338 -83 -22 -158 -12 -245 32 -87 43 -151 113 -208 225 -66 131 -72 167
-72 448 0 274 5 308 66 427 111 220 335 315 529 224z M6803 6286 c-242 -46
-467 -170 -664 -366 -194 -192 -389 -489 -389 -591 0 -106 109 -171 200 -119
176 100 363 172 546 209 535 107 1120 36 1496 -181 78 -45 93 -50 130 -45 80
11 134 78 123 152 -11 71 -142 290 -264 439 -81 99 -232 241 -324 304 -106 73
-266 148 -384 178 -122 32 -354 42 -470 20z m427 -286 c165 -41 373 -163 492
-286 86 -90 62 -112 -85 -74 -225 57 -551 86 -793 70 -172 -11 -372 -40 -489
-71 -129 -34 -152 -31 -135 17 20 51 209 203 329 263 215 108 458 136 681 81z
M5054 4336 c-58 -26 -95 -100 -80 -161 4 -14 21 -42 39 -61 32 -35 36 -36 165
-55 391 -56 685 -170 808 -312 90 -105 118 -234 74 -350 -76 -202 -391 -359
-861 -427 -157 -23 -185 -36 -214 -96 -28 -60 -7 -133 50 -170 14 -9 83 -24
157 -35 365 -54 639 -159 778 -298 73 -73 102 -135 108 -231 6 -112 -20 -175
-112 -265 -146 -144 -433 -252 -795 -299 -126 -16 -154 -30 -183 -87 -35 -68
-11 -141 61 -183 32 -18 40 -19 170 -7 592 55 1048 218 1267 454 144 156 187
354 120 548 -70 200 -276 367 -594 479 -59 21 -100 41 -92 44 8 3 58 21 110
39 424 152 646 418 602 721 -60 415 -572 676 -1497 761 -30 3 -62 -1 -81 -9z
m1254 -628 c8 -8 12 -62 12 -175 0 -139 -3 -168 -17 -190 -18 -27 -18 -23 -23
162 -6 224 -4 235 28 203z m0 -1390 c8 -8 12 -61 12 -172 0 -143 -2 -164 -20
-191 l-19 -29 -3 192 c-2 106 -1 197 0 202 5 13 15 13 30 -2z"/>
</g>
</svg>
