<?xml version="1.0" standalone="no"?>
<!DOCTYPE svg PUBLIC "-//W3C//DTD SVG 20010904//EN"
 "http://www.w3.org/TR/2001/REC-SVG-20010904/DTD/svg10.dtd">
<svg version="1.0" xmlns="http://www.w3.org/2000/svg"
 width="2048.000000pt" height="2048.000000pt" viewBox="0 0 2048.000000 2048.000000"
 preserveAspectRatio="xMidYMid meet">
<metadata>
Created by potrace 1.13, written by Peter Selinger 2001-2015
</metadata>
<g transform="translate(0.000000,2048.000000) scale(0.192120,-0.192120)"
fill="#000000" stroke="none">
<path d="M5070 10324 c-297 -20 -550 -54 -801 -108 -1789 -385 -3239 -1742
-3745 -3506 -278 -968 -255 -2013 66 -2970 519 -1548 1776 -2756 3340 -3210
864 -250 1783 -264 2655 -40 996 256 1908 833 2577 1630 1112 1324 1459 3145
913 4785 -425 1275 -1335 2319 -2540 2910 -602 296 -1216 460 -1890 505 -136
9 -464 11 -575 4z m790 -228 c579 -69 1084 -216 1575 -456 906 -444 1616
-1126 2120 -2035 82 -149 107 -201 195 -405 125 -292 214 -582 285 -930 13
-63 35 -162 49 -220 44 -185 48 -260 43 -775 -3 -382 -7 -494 -20 -550 -8 -38
-37 -173 -65 -300 -69 -315 -92 -403 -173 -653 -117 -362 -137 -414 -243 -624
-149 -295 -360 -620 -547 -843 -70 -84 -338 -352 -499 -500 -196 -180 -451
-373 -703 -531 -171 -107 -552 -300 -737 -373 -887 -350 -1823 -437 -2755
-255 -696 135 -1393 443 -1950 863 -242 182 -568 478 -729 661 -180 204 -423
547 -560 788 -268 473 -466 1029 -555 1562 -41 248 -43 277 -39 865 l4 570 32
183 c180 1007 634 1878 1350 2589 393 389 792 673 1287 914 492 239 988 384
1535 448 246 29 237 29 620 26 239 -2 387 -8 480 -19z M3286 6009 c-406 -59
-752 -351 -953 -803 -64 -146 -133 -369 -133 -433 0 -63 73 -133 138 -133 45
0 66 12 147 89 210 198 536 360 907 451 223 55 313 65 563 65 242 0 339 -12
465 -56 69 -24 107 -24 148 1 50 31 74 76 69 132 -4 43 -12 56 -82 134 -375
412 -841 616 -1269 553z m279 -270 c119 -15 239 -50 355 -105 126 -60 168
-101 123 -119 -10 -4 -85 -11 -168 -16 -450 -26 -888 -155 -1236 -365 -31 -19
-62 -34 -68 -34 -6 0 -11 17 -11 38 0 41 52 134 133 240 175 224 450 362 742
371 22 0 81 -4 130 -10z M7075 6014 c-274 -41 -525 -161 -781 -375 -85 -70
-254 -247 -266 -277 -13 -33 -8 -87 12 -120 40 -66 113 -88 187 -57 126 53
482 81 704 56 491 -57 964 -250 1236 -504 90 -85 109 -97 155 -97 66 0 138 70
138 135 0 84 -91 349 -182 527 -182 358 -456 594 -793 683 -80 21 -129 27
-240 30 -77 2 -153 1 -170 -1z m250 -275 c155 -19 310 -78 432 -165 104 -74
237 -226 297 -338 26 -49 34 -110 17 -121 -5 -3 -33 9 -62 26 -354 208 -780
333 -1224 358 -156 9 -185 15 -185 35 0 56 302 184 485 205 102 12 140 12 240
0z M5125 3514 c-556 -81 -978 -414 -1231 -975 -66 -144 -100 -255 -90 -294 4
-16 24 -46 45 -67 34 -34 44 -38 88 -38 42 0 60 7 109 40 138 93 399 167 734
206 184 22 712 30 922 15 423 -31 747 -109 904 -217 28 -19 65 -39 83 -44 68
-19 153 35 167 105 8 42 -12 112 -77 264 -187 443 -524 783 -919 926 -168 61
-267 77 -495 80 -115 2 -223 1 -240 -1z m425 -279 c328 -49 602 -205 806 -458
101 -124 155 -233 125 -252 -7 -3 -76 9 -154 29 -314 78 -536 101 -997 101
-512 0 -748 -29 -1147 -141 -20 -6 -23 -3 -23 25 0 90 192 328 375 464 152
113 367 202 560 231 120 19 338 19 455 1z"/>
</g>
</svg>
