<?xml version="1.0" standalone="no"?>
<!DOCTYPE svg PUBLIC "-//W3C//DTD SVG 20010904//EN"
 "http://www.w3.org/TR/2001/REC-SVG-20010904/DTD/svg10.dtd">
<svg version="1.0" xmlns="http://www.w3.org/2000/svg"
 width="2048.000000pt" height="2048.000000pt" viewBox="0 0 2048.000000 2048.000000"
 preserveAspectRatio="xMidYMid meet">
<metadata>
Created by potrace 1.13, written by Peter Selinger 2001-2015
</metadata>
<g transform="translate(0.000000,2048.000000) scale(0.192120,-0.192120)"
fill="#000000" stroke="none">
<path d="M5070 10324 c-744 -50 -1347 -210 -1980 -525 -654 -326 -1254 -818
-1706 -1400 -1029 -1323 -1326 -3070 -794 -4659 376 -1123 1149 -2085 2166
-2696 1009 -606 2186 -833 3367 -649 1443 225 2728 1094 3493 2361 245 406
450 898 563 1354 499 2015 -271 4095 -1962 5302 -387 276 -903 534 -1352 678
-389 124 -806 202 -1220 230 -136 9 -464 11 -575 4z m790 -228 c581 -70 1084
-216 1575 -456 907 -445 1616 -1125 2121 -2036 61 -111 224 -452 224 -469 0
-2 20 -46 43 -97 132 -281 230 -660 287 -1101 17 -137 20 -215 20 -598 0 -398
-2 -450 -20 -537 -25 -125 -39 -215 -50 -322 -22 -209 -66 -398 -160 -680
-234 -704 -626 -1335 -1165 -1875 -379 -380 -793 -676 -1280 -914 -147 -72
-270 -124 -615 -256 -69 -27 -162 -65 -207 -86 -137 -63 -352 -146 -473 -182
-180 -54 -198 -54 -83 2 541 262 864 754 913 1391 12 155 13 284 4 393 -6 67
-9 77 -26 77 -11 0 -32 -13 -48 -29 -16 -16 -32 -26 -35 -23 -3 3 -5 -5 -5
-17 0 -12 -4 -19 -10 -16 -7 4 -10 -61 -10 -187 0 -218 -22 -397 -65 -523 -28
-84 -126 -291 -177 -375 -63 -103 -191 -251 -279 -324 -234 -192 -542 -276
-1009 -276 -535 0 -859 106 -1109 363 -280 288 -401 616 -418 1134 -3 111 -9
200 -14 198 -4 -3 -9 5 -13 18 -5 23 -92 74 -105 62 -3 -4 -6 -118 -6 -253 1
-341 32 -527 125 -765 147 -370 409 -655 765 -832 72 -35 125 -65 118 -65 -6
0 -66 16 -133 35 -139 40 -292 98 -465 178 -135 62 -182 81 -410 165 -536 199
-962 446 -1415 821 -138 114 -417 386 -544 531 -179 203 -427 552 -560 788
-272 481 -465 1026 -555 1562 -42 249 -43 276 -38 870 l4 575 31 172 c159 881
500 1608 1075 2296 125 149 397 421 549 549 735 619 1602 996 2548 1107 245
29 237 29 620 26 241 -2 386 -8 480 -19z M2215 6991 c-57 -16 -84 -30 -126
-68 -121 -109 -120 -297 4 -410 58 -53 115 -69 275 -77 213 -11 453 -48 707
-108 72 -17 131 -32 133 -33 1 -1 -13 -26 -33 -55 -50 -75 -69 -147 -62 -242
l5 -77 -66 -22 c-331 -108 -791 -336 -1117 -552 -160 -106 -204 -162 -213
-273 -13 -162 109 -296 271 -297 76 0 115 16 227 92 291 198 699 399 1069 525
379 130 722 195 1111 212 172 8 213 18 276 69 62 51 94 122 94 209 -1 118 -34
169 -204 315 -434 371 -1019 626 -1701 740 -233 39 -591 68 -650 52z m1045
-406 c317 -82 683 -242 937 -411 124 -82 277 -205 293 -234 10 -19 0 -63 -17
-73 -4 -3 -62 -10 -128 -16 -258 -25 -325 -33 -465 -57 -149 -25 -377 -81
-555 -134 -160 -48 -238 -70 -267 -75 -15 -2 -37 -9 -48 -15 -11 -6 -25 -8
-30 -5 -6 3 -10 2 -10 -3 0 -7 -99 -57 -130 -66 -33 -10 -50 -19 -50 -25 0 -7
-53 -34 -70 -36 -23 -3 -325 -171 -507 -282 -124 -75 -193 -101 -193 -70 0 30
50 67 245 179 110 63 511 258 531 258 3 0 20 6 37 14 18 8 68 28 112 46 106
43 168 84 241 161 83 88 144 211 144 294 0 22 9 74 20 115 26 99 25 131 -5
190 -22 44 -131 173 -163 193 -7 4 -23 19 -36 32 -13 13 -27 21 -30 18 -3 -4
-6 1 -6 9 0 20 59 17 150 -7z M8270 6994 c-875 -60 -1623 -331 -2165 -786
-175 -147 -216 -209 -216 -325 0 -88 36 -162 105 -214 59 -45 104 -59 187 -59
189 0 515 -39 728 -86 516 -114 1066 -348 1509 -641 140 -93 172 -106 248
-106 105 1 197 57 244 150 21 39 25 62 25 128 -1 131 -37 179 -235 308 -317
207 -734 412 -1090 537 l-65 23 0 101 c0 90 -3 108 -28 161 -16 33 -38 70 -49
82 -12 13 -20 25 -17 27 6 6 302 73 399 90 139 25 312 45 442 52 160 8 217 24
275 77 151 138 111 384 -74 462 -40 17 -132 25 -223 19z m-680 -390 c0 -8 -5
-12 -10 -9 -6 4 -8 11 -5 16 9 14 15 11 15 -7z m-30 -11 c0 -8 -5 -13 -12 -11
-7 3 -22 -5 -34 -16 -12 -12 -45 -43 -73 -70 -102 -96 -161 -186 -161 -244 0
-21 9 -70 20 -110 11 -39 20 -89 20 -111 0 -152 197 -381 390 -450 39 -15 34
-12 190 -76 221 -91 599 -292 698 -372 50 -40 54 -60 12 -61 -20 0 -80 30
-197 100 -165 99 -531 295 -565 303 -9 2 -30 13 -47 26 -16 12 -34 18 -40 15
-6 -4 -11 -3 -11 2 0 9 -139 69 -152 65 -4 -2 -20 2 -35 8 -15 6 -37 13 -48
14 -11 2 -87 24 -170 50 -283 88 -581 152 -815 174 -58 6 -158 15 -223 21
-214 21 -211 54 18 228 276 211 618 375 1020 491 139 40 215 49 215 24z M2275
4348 c40 -436 192 -800 505 -1208 110 -144 400 -427 560 -546 109 -82 242
-173 315 -216 7 -4 9 257 7 778 -2 431 -1 784 3 784 3 0 60 -11 128 -24 266
-53 681 -104 1032 -126 220 -13 917 -14 1110 0 340 24 697 68 932 115 67 14
125 25 128 25 4 0 5 -351 3 -779 -3 -776 -3 -779 17 -769 55 29 283 188 380
265 138 110 355 326 465 463 123 154 232 325 315 495 86 177 134 308 168 465
26 118 53 337 43 347 -3 3 -54 -6 -113 -20 -348 -84 -880 -171 -1378 -226
-1036 -115 -2145 -115 -3155 -1 -445 51 -1067 156 -1362 231 -116 29 -111 31
-103 -53z m475 -292 c143 -28 363 -65 673 -112 l37 -6 0 -525 c0 -516 0 -525
-19 -520 -17 4 -20 -1 -23 -30 l-3 -35 -65 47 c-84 61 -327 306 -412 415 -202
261 -378 610 -378 752 0 26 3 48 8 48 4 0 86 -16 182 -34z m5328 -82 c-19
-109 -124 -333 -242 -514 -140 -215 -373 -473 -540 -596 -61 -46 -76 -48 -76
-8 0 15 -6 24 -15 24 -13 0 -15 65 -15 529 l0 529 28 6 c15 3 112 17 215 32
104 15 291 45 415 68 l227 41 5 -35 c3 -19 2 -54 -2 -76z M5180 2653 l0 -1060
23 -33 c36 -54 71 -74 127 -74 56 0 91 20 128 74 l22 33 0 1061 0 1060 -42
-39 c-23 -22 -50 -48 -59 -57 -30 -32 -76 -23 -123 25 -24 23 -50 48 -59 56
-16 13 -17 -59 -17 -1046z"/>
</g>
</svg>
