<?xml version="1.0" standalone="no"?>
<!DOCTYPE svg PUBLIC "-//W3C//DTD SVG 20010904//EN"
 "http://www.w3.org/TR/2001/REC-SVG-20010904/DTD/svg10.dtd">
<svg version="1.0" xmlns="http://www.w3.org/2000/svg"
 width="2048.000000pt" height="2048.000000pt" viewBox="0 0 2048.000000 2048.000000"
 preserveAspectRatio="xMidYMid meet">
<metadata>
Created by potrace 1.13, written by Peter Selinger 2001-2015
</metadata>
<g transform="translate(0.000000,2048.000000) scale(0.192120,-0.192120)"
fill="#000000" stroke="none">
<path d="M4945 10319 c-2150 -170 -3954 -1697 -4470 -3783 -93 -374 -134 -694
-142 -1102 -7 -361 16 -685 70 -964 l13 -65 7 130 c4 72 16 225 27 340 12 134
20 290 20 431 0 780 168 1495 509 2174 360 716 800 1242 1436 1719 1169 876
2642 1177 4075 833 669 -161 1323 -486 1875 -931 153 -123 505 -441 589 -531
337 -365 639 -835 846 -1320 274 -640 389 -1205 390 -1915 0 -168 7 -324 20
-475 11 -124 24 -277 28 -340 l7 -115 22 135 c53 321 67 538 60 900 -6 300
-20 458 -67 738 -252 1506 -1212 2834 -2575 3565 -614 329 -1280 522 -1994
577 -158 12 -587 11 -746 -1z M3785 8653 c-92 -12 -312 -56 -390 -78 -369
-105 -753 -304 -1057 -547 -200 -160 -527 -511 -590 -633 -13 -24 -23 -67 -26
-108 -4 -61 -2 -73 28 -133 53 -109 146 -160 273 -152 96 6 137 35 260 186
446 545 1009 859 1648 921 115 11 160 31 218 97 42 48 71 121 71 179 0 100
-70 207 -165 251 -42 20 -64 24 -145 22 -52 0 -108 -3 -125 -5z m-1205 -804
c-7 -11 -14 -18 -17 -15 -8 8 5 36 17 36 7 0 7 -6 0 -21z m-30 -14 c0 -3 -69
-74 -152 -159 -84 -84 -191 -194 -238 -244 -80 -87 -120 -112 -120 -76 0 27
56 98 152 194 98 98 271 248 297 258 9 3 22 12 29 19 14 13 32 18 32 8z M6605
8637 c-96 -46 -165 -152 -165 -252 0 -58 29 -131 71 -179 62 -70 100 -85 253
-101 283 -30 518 -100 779 -232 316 -160 592 -388 845 -698 119 -146 165 -175
271 -174 120 1 200 50 251 153 30 60 32 72 28 133 -3 41 -13 84 -26 108 -63
122 -392 475 -590 633 -459 366 -1056 610 -1542 628 -117 5 -128 4 -175 -19z
m1589 -849 c63 -44 157 -128 248 -220 147 -147 189 -201 170 -220 -18 -18 -65
18 -156 119 -124 137 -336 353 -346 353 -5 0 -14 9 -20 20 -6 11 -8 20 -4 20
4 0 52 -32 108 -72z M4865 7259 c-430 -32 -855 -100 -1230 -199 -937 -246
-1726 -671 -2319 -1250 -418 -409 -676 -809 -862 -1341 l-33 -96 33 -149 c296
-1318 1136 -2479 2302 -3180 1055 -634 2306 -855 3519 -623 449 86 841 218
1260 424 1355 665 2342 1915 2671 3380 l34 149 -36 101 c-194 544 -445 931
-870 1345 -812 790 -1991 1288 -3374 1426 -192 19 -901 28 -1095 13z m918
-164 c321 -23 610 -63 914 -126 51 -10 155 -23 231 -29 322 -25 413 -55 877
-287 193 -96 352 -179 355 -183 3 -4 38 -24 78 -44 109 -55 351 -202 487 -296
400 -277 750 -624 984 -975 125 -186 183 -302 242 -477 l39 -116 0 -187 0
-187 -66 -256 c-82 -321 -164 -533 -337 -862 -158 -301 -325 -544 -528 -765
-20 -22 -74 -83 -119 -135 -315 -362 -764 -727 -1205 -980 -143 -83 -459 -235
-609 -294 -1075 -425 -2266 -455 -3360 -85 -809 274 -1526 755 -2093 1406
-457 524 -794 1160 -983 1853 l-42 151 4 177 c4 177 4 177 40 262 170 402 456
794 815 1121 336 307 664 521 1238 810 99 50 184 94 190 99 5 4 69 38 142 74
226 113 389 157 654 176 72 5 210 25 307 45 280 55 542 89 887 114 191 14 634
12 858 -4z M3406 6704 c-349 -84 -599 -533 -572 -1029 22 -424 231 -769 529
-873 96 -33 222 -34 317 -2 489 164 699 967 399 1528 -156 292 -417 438 -673
376z m209 -279 c140 -37 259 -161 315 -331 20 -60 21 -80 18 -361 l-3 -298
-28 -70 c-55 -137 -142 -242 -247 -296 -66 -33 -195 -38 -270 -10 -85 32 -165
103 -221 196 -90 148 -92 161 -97 473 -3 257 -2 277 18 340 71 223 232 366
415 371 23 1 68 -6 100 -14z M7016 6704 c-424 -103 -681 -731 -530 -1294 144
-541 586 -787 956 -534 372 254 502 919 274 1400 -57 120 -116 203 -198 280
-145 135 -330 190 -502 148z m257 -294 c110 -41 216 -166 267 -315 18 -53 20
-84 20 -346 l0 -288 -30 -81 c-53 -147 -138 -252 -250 -311 -39 -20 -59 -24
-145 -24 -90 0 -106 3 -158 29 -114 55 -210 184 -262 348 -24 75 -25 90 -25
326 0 271 6 308 61 420 63 128 172 226 287 259 62 17 163 10 235 -17z M5089
3785 c-171 -28 -287 -64 -435 -136 -347 -169 -636 -505 -804 -934 -22 -57 -43
-123 -46 -147 -10 -80 54 -151 136 -151 28 0 60 13 117 47 178 106 415 167
803 208 167 17 784 17 945 0 392 -42 653 -112 808 -216 50 -33 71 -41 108 -41
85 0 150 78 134 162 -10 56 -81 231 -135 337 -238 464 -603 757 -1065 856
-130 28 -437 36 -566 15z m416 -265 c386 -44 704 -239 926 -568 38 -57 49 -83
49 -113 0 -48 -2 -48 -127 -14 -314 84 -721 123 -1153 111 -364 -10 -608 -39
-855 -102 -192 -49 -185 -49 -185 -11 0 87 214 343 395 472 259 185 597 264
950 225z"/>
</g>
</svg>
