<?xml version="1.0" standalone="no"?>
<!DOCTYPE svg PUBLIC "-//W3C//DTD SVG 20010904//EN"
 "http://www.w3.org/TR/2001/REC-SVG-20010904/DTD/svg10.dtd">
<svg version="1.0" xmlns="http://www.w3.org/2000/svg"
 width="2048.000000pt" height="2048.000000pt" viewBox="0 0 2048.000000 2048.000000"
 preserveAspectRatio="xMidYMid meet">
<metadata>
Created by potrace 1.13, written by Peter Selinger 2001-2015
</metadata>
<g transform="translate(0.000000,2048.000000) scale(0.192120,-0.192120)"
fill="#000000" stroke="none">
<path d="M5070 10324 c-297 -20 -550 -54 -801 -108 -1789 -385 -3239 -1742
-3745 -3506 -278 -968 -255 -2013 66 -2970 519 -1548 1776 -2756 3340 -3210
864 -250 1783 -264 2655 -40 996 256 1908 833 2577 1630 1112 1324 1459 3145
913 4785 -425 1275 -1335 2319 -2540 2910 -602 296 -1216 460 -1890 505 -136
9 -464 11 -575 4z m790 -228 c578 -69 1077 -214 1573 -455 348 -170 558 -305
1015 -655 177 -135 317 -267 499 -471 581 -652 985 -1497 1132 -2365 48 -285
54 -373 48 -765 -6 -387 -17 -530 -63 -815 -13 -85 -34 -216 -45 -290 -25
-169 -56 -291 -124 -495 -196 -588 -544 -1189 -910 -1575 -390 -411 -658 -643
-1011 -873 -250 -164 -584 -337 -848 -441 -1075 -425 -2266 -455 -3360 -85
-478 162 -941 404 -1331 698 -204 153 -336 270 -565 500 -196 196 -257 265
-366 411 -207 277 -340 491 -478 768 -242 485 -395 989 -466 1537 -8 63 -10
262 -8 660 l4 570 32 183 c90 501 215 880 459 1382 131 269 256 468 462 735
457 589 1031 1053 1716 1386 492 239 988 384 1535 448 246 29 237 29 620 26
239 -2 387 -8 480 -19z M3465 8925 c-647 -91 -1274 -428 -1741 -935 -153 -166
-253 -299 -271 -359 -50 -173 74 -348 251 -354 68 -2 136 18 180 55 20 16 73
76 118 131 433 538 1040 877 1648 922 143 11 214 57 268 174 46 99 19 223 -65
302 -61 59 -97 72 -198 75 -49 2 -135 -3 -190 -11z m-618 -477 c-3 -8 -6 -5
-6 6 -1 11 2 17 5 13 3 -3 4 -12 1 -19z m-17 -4 c0 -8 -4 -12 -10 -9 -5 3 -10
1 -10 -5 0 -6 -4 -9 -9 -6 -5 4 -11 2 -13 -3 -1 -5 -31 -23 -65 -40 -35 -17
-63 -35 -63 -40 0 -6 -9 -12 -20 -16 -20 -6 -228 -143 -254 -167 -8 -7 -32
-26 -53 -43 -88 -69 -240 -214 -379 -360 -149 -157 -189 -190 -218 -179 -50
19 24 124 230 324 173 168 397 335 589 438 66 36 250 118 273 122 1 0 2 -7 2
-16z M6920 8931 c-46 -14 -85 -39 -121 -78 -60 -62 -74 -98 -74 -188 0 -70 4
-87 30 -134 34 -61 99 -114 160 -130 22 -6 90 -16 150 -21 586 -56 1166 -390
1592 -917 127 -156 171 -185 283 -186 187 -1 319 174 267 354 -12 40 -38 82
-100 159 -454 571 -1047 951 -1713 1099 -186 42 -410 61 -474 42z m897 -483
c-3 -8 -6 -5 -6 6 -1 11 2 17 5 13 3 -3 4 -12 1 -19z m20 -10 c-3 -8 -6 -5 -6
6 -1 11 2 17 5 13 3 -3 4 -12 1 -19z m113 -26 c36 -17 81 -38 100 -46 99 -45
293 -170 425 -275 218 -174 455 -424 455 -480 0 -75 -69 -33 -222 136 -69 76
-150 161 -179 188 -69 64 -175 157 -214 186 -16 13 -32 26 -35 30 -9 11 -173
124 -225 153 -27 16 -53 34 -57 40 -3 7 -34 25 -67 41 -34 16 -61 33 -61 37 0
5 -4 6 -10 3 -5 -3 -10 1 -10 9 0 19 19 15 100 -22z M3550 7263 c-89 -17 -232
-104 -306 -186 -169 -188 -259 -427 -271 -722 -15 -349 97 -661 306 -857 284
-267 656 -208 889 141 142 211 211 510 183 784 -42 422 -256 743 -550 831 -52
15 -190 20 -251 9z m272 -306 c110 -54 211 -186 253 -329 14 -49 16 -100 13
-345 -3 -287 -4 -288 -31 -357 -57 -144 -150 -255 -256 -305 -47 -22 -70 -26
-141 -26 -76 0 -93 4 -151 32 -114 57 -212 183 -264 341 -24 74 -25 86 -25
338 0 250 1 265 24 333 55 162 162 285 289 332 80 30 213 23 289 -14z M6839
7248 c-284 -100 -486 -410 -530 -815 -47 -435 142 -880 441 -1037 217 -114
439 -78 631 102 489 460 374 1505 -193 1739 -52 21 -83 27 -173 30 -95 3 -119
1 -176 -19z m311 -289 c110 -52 202 -164 250 -303 18 -54 20 -84 20 -351 0
-259 -2 -298 -19 -346 -93 -270 -293 -413 -497 -354 -146 42 -252 158 -325
355 -22 61 -24 81 -27 315 -4 284 1 320 59 441 60 127 144 210 257 255 71 29
208 23 282 -12z M5211 4209 c-161 -28 -299 -104 -426 -234 -189 -193 -285
-438 -285 -730 0 -401 199 -747 516 -896 109 -52 197 -71 319 -71 372 2 684
277 797 703 20 73 23 108 22 269 0 156 -4 197 -22 262 -97 354 -323 603 -617
682 -75 20 -233 28 -304 15z m259 -285 c182 -43 342 -189 405 -373 12 -34 15
-98 15 -308 l0 -264 -29 -69 c-62 -145 -168 -264 -287 -320 -321 -153 -685 13
-805 368 -19 55 -20 81 -17 314 l3 253 44 85 c80 153 233 277 387 314 79 19
204 19 284 0z"/>
</g>
</svg>
