<?xml version="1.0" standalone="no"?>
<!DOCTYPE svg PUBLIC "-//W3C//DTD SVG 20010904//EN"
 "http://www.w3.org/TR/2001/REC-SVG-20010904/DTD/svg10.dtd">
<svg version="1.0" xmlns="http://www.w3.org/2000/svg"
 width="2048.000000pt" height="2048.000000pt" viewBox="0 0 2048.000000 2048.000000"
 preserveAspectRatio="xMidYMid meet">
<metadata>
Created by potrace 1.13, written by Peter Selinger 2001-2015
</metadata>
<g transform="translate(0.000000,2048.000000) scale(0.192120,-0.192120)"
fill="#000000" stroke="none">
<path d="M5070 10324 c-169 -12 -337 -29 -476 -49 -1166 -172 -2240 -758
-3023 -1651 -1174 -1338 -1547 -3196 -981 -4884 448 -1335 1444 -2423 2740
-2993 912 -400 1954 -516 2945 -326 449 86 841 218 1260 424 1812 890 2911
2784 2785 4795 -96 1514 -860 2886 -2103 3772 -387 276 -903 534 -1352 678
-389 124 -806 202 -1220 230 -136 9 -464 11 -575 4z m790 -228 c683 -82 1290
-279 1860 -606 633 -363 1197 -891 1597 -1495 148 -223 335 -530 376 -616 171
-363 307 -788 377 -1179 48 -266 50 -305 50 -866 0 -521 -1 -540 -25 -711 -78
-532 -228 -1002 -481 -1499 -51 -100 -127 -237 -169 -305 -191 -306 -473 -663
-651 -825 -534 -483 -822 -690 -1289 -924 -249 -125 -411 -193 -660 -275
-1102 -365 -2340 -313 -3413 142 -546 232 -1024 549 -1482 983 -171 161 -303
310 -457 515 -514 685 -822 1441 -933 2290 -8 63 -10 260 -7 665 l4 575 31
172 c159 880 500 1608 1075 2296 125 149 397 421 549 549 735 619 1602 996
2548 1107 246 29 237 29 620 26 239 -2 387 -8 480 -19z M3533 7535 c-256 -69
-461 -333 -539 -695 -26 -120 -26 -400 0 -520 121 -558 527 -845 914 -648 117
59 248 200 320 343 44 88 89 222 108 322 21 108 24 355 5 463 -65 373 -283
664 -551 735 -69 18 -189 18 -257 0z m289 -303 c113 -56 197 -161 247 -309 19
-57 21 -85 21 -340 l0 -278 -29 -83 c-92 -263 -290 -397 -496 -337 -144 41
-269 185 -324 371 -19 64 -21 96 -21 325 0 183 4 268 14 305 34 128 137 274
232 330 72 42 121 54 211 51 67 -3 92 -9 145 -35z M6866 7535 c-173 -48 -338
-198 -439 -400 -42 -85 -90 -234 -108 -335 -17 -98 -17 -345 0 -440 78 -440
357 -749 676 -750 312 0 579 282 671 710 26 121 26 401 0 520 -79 364 -285
628 -543 695 -69 18 -190 18 -257 0z m288 -299 c108 -53 198 -164 246 -302 20
-59 21 -78 18 -365 l-3 -304 -29 -70 c-38 -90 -114 -204 -165 -244 -73 -58
-126 -76 -226 -76 -82 0 -97 3 -156 32 -118 58 -224 201 -268 363 -19 66 -21
102 -21 315 0 267 6 302 64 420 62 124 168 222 275 252 76 21 198 12 265 -21z
M3176 4759 c-90 -13 -232 -54 -323 -92 -427 -181 -731 -551 -830 -1010 -23
-104 -25 -416 -4 -522 100 -510 464 -920 951 -1073 194 -61 46 -57 2365 -57
2038 0 2134 1 2214 19 500 109 888 456 1044 931 44 134 58 213 64 381 4 127 2
183 -12 265 -99 598 -557 1058 -1150 1154 -77 13 -388 15 -2175 14 -1147 -1
-2111 -5 -2144 -10z m588 -265 c25 -9 19 -23 -24 -65 -54 -53 -94 -53 -150 -3
-41 37 -50 58 -27 67 18 8 182 8 201 1z m1110 0 c22 -9 20 -20 -11 -55 -58
-66 -114 -67 -172 -4 -34 37 -38 51 -18 58 18 8 182 8 201 1z m1110 0 c22 -9
20 -20 -11 -55 -58 -66 -114 -67 -172 -4 -34 37 -38 51 -18 58 18 8 182 8 201
1z m1110 0 c24 -9 19 -27 -16 -61 -63 -61 -105 -60 -165 2 -35 36 -40 50 -20
58 18 8 182 8 201 1z m-4317 -186 c-3 -8 -6 -5 -6 6 -1 11 2 17 5 13 3 -3 4
-12 1 -19z m-38 -32 c-47 -41 -193 -212 -242 -285 -27 -41 -71 -117 -96 -170
-45 -93 -46 -99 -49 -203 -3 -73 0 -108 7 -108 6 0 11 -5 11 -10 0 -6 11 -28
25 -50 37 -59 36 -68 -28 -182 -25 -45 -27 -57 -29 -190 l-3 -143 -31 65 c-53
112 -56 132 -52 415 4 245 5 264 29 330 l24 70 5 -102 c3 -62 10 -107 18 -115
9 -10 12 18 12 140 0 174 3 183 95 307 78 104 190 207 280 254 47 25 62 10 24
-23z m5240 0 c105 -65 245 -215 305 -330 23 -44 26 -59 25 -155 -1 -78 -3 -98
-10 -76 -37 130 -199 377 -336 513 -46 47 -67 82 -47 82 4 0 32 -16 63 -34z
m-4455 -403 l-1 -348 -476 -3 -477 -2 0 23 c0 31 40 149 75 217 96 191 268
342 468 411 107 37 167 46 302 48 l110 1 -1 -347z m1116 -3 l0 -350 -420 0
-420 0 0 350 0 350 420 0 420 0 0 -350z m1110 0 l0 -350 -420 0 -420 0 0 350
0 350 420 0 420 0 0 -350z m1110 0 l0 -350 -420 0 -420 0 0 350 0 350 420 0
420 0 0 -350z m540 339 c263 -42 496 -213 615 -449 35 -68 75 -186 75 -217 l0
-23 -477 2 -476 3 -1 348 -1 347 100 0 c55 0 129 -5 165 -11z m974 -468 c13
-41 16 -101 16 -356 l0 -305 -32 -67 -33 -67 -5 139 c-6 139 -6 141 -43 207
-20 36 -37 77 -37 90 0 13 16 54 35 91 19 37 35 76 35 86 0 11 8 27 18 37 13
13 18 38 20 106 2 48 5 88 7 88 1 0 10 -22 19 -49z m-4849 -841 l0 -350 -96 0
c-398 0 -711 218 -835 582 -13 39 -24 82 -24 95 l0 23 478 0 477 0 0 -350z
m1115 0 l0 -350 -420 0 -420 0 0 350 0 350 420 0 420 0 0 -350z m1110 0 l0
-350 -420 0 -420 0 0 350 0 350 420 0 420 0 0 -350z m1110 0 l0 -350 -420 0
-420 0 0 350 0 350 420 0 420 0 0 -350z m1230 331 c0 -33 -41 -153 -75 -221
-68 -136 -174 -251 -308 -334 -136 -85 -291 -126 -476 -126 l-96 0 0 350 0
350 478 0 c461 0 477 -1 477 -19z m210 -365 c-15 -49 -91 -164 -160 -239 -44
-49 -171 -149 -192 -153 -5 -1 -10 -2 -13 -3 -3 0 -8 -1 -11 0 -4 0 -11 -5
-15 -13 -7 -11 -9 -11 -9 0 0 8 24 39 53 70 170 180 252 303 338 510 14 32 14
30 17 -50 2 -46 -2 -101 -8 -122z m-5904 99 c63 -145 155 -277 300 -427 41
-43 74 -83 74 -90 0 -9 -3 -9 -10 2 -5 8 -10 11 -10 6 0 -5 -7 -3 -15 4 -8 7
-15 10 -15 6 0 -12 -126 80 -176 129 -64 63 -112 124 -158 200 -35 58 -36 63
-36 159 0 55 3 96 7 93 3 -4 21 -41 39 -82z m1307 -606 c31 -16 77 -61 77 -75
0 -16 -22 -23 -89 -30 -62 -7 -141 10 -141 29 0 20 21 43 60 66 40 24 62 26
93 10z m1110 0 c31 -16 77 -61 77 -75 0 -16 -22 -23 -89 -30 -62 -7 -141 10
-141 30 0 7 12 24 28 38 52 48 84 58 125 37z m1110 0 c32 -17 77 -61 77 -75 0
-20 -79 -37 -141 -30 -97 10 -110 23 -61 68 52 48 84 58 125 37z m1127 -10
c39 -23 60 -46 60 -66 0 -19 -79 -36 -141 -29 -97 10 -110 23 -61 68 57 53 88
59 142 27z"/>
</g>
</svg>
