<?xml version="1.0" standalone="no"?>
<!DOCTYPE svg PUBLIC "-//W3C//DTD SVG 20010904//EN"
 "http://www.w3.org/TR/2001/REC-SVG-20010904/DTD/svg10.dtd">
<svg version="1.0" xmlns="http://www.w3.org/2000/svg"
 width="2048.000000pt" height="2048.000000pt" viewBox="0 0 2048.000000 2048.000000"
 preserveAspectRatio="xMidYMid meet">
<metadata>
Created by potrace 1.13, written by Peter Selinger 2001-2015
</metadata>
<g transform="translate(0.000000,2048.000000) scale(0.192120,-0.192120)"
fill="#000000" stroke="none">
<path d="M5070 10324 c-297 -20 -550 -54 -801 -108 -1789 -385 -3239 -1742
-3745 -3506 -278 -968 -255 -2013 66 -2970 519 -1548 1776 -2756 3340 -3210
957 -277 1987 -263 2935 40 436 140 965 402 1304 646 57 41 105 73 107 71 2
-2 10 -37 19 -78 106 -511 358 -767 834 -849 150 -26 377 -36 456 -21 433 87
685 404 736 925 51 526 -144 1025 -579 1478 l-84 87 51 90 c76 132 201 395
266 561 435 1098 470 2313 100 3425 -425 1275 -1335 2319 -2540 2910 -602 296
-1216 460 -1890 505 -136 9 -464 11 -575 4z m790 -228 c977 -117 1823 -480
2562 -1099 338 -282 682 -671 919 -1037 154 -237 315 -503 352 -581 224 -475
384 -1045 407 -1449 5 -91 14 -253 20 -360 7 -111 10 -321 7 -490 -4 -250 -8
-309 -25 -385 -25 -109 -98 -439 -147 -665 -19 -91 -45 -196 -56 -235 -30 -99
-124 -333 -212 -526 -89 -197 -88 -194 -96 -291 l-6 -77 -120 95 c-440 349
-956 607 -1559 778 -296 84 -711 150 -1026 162 l-155 6 150 -75 c588 -296 965
-713 1158 -1282 80 -237 125 -455 191 -938 42 -303 42 -302 19 -292 -10 5 -43
13 -73 18 -54 10 -57 9 -150 -38 -52 -26 -163 -85 -247 -131 -930 -514 -1883
-721 -2895 -628 -584 53 -1118 201 -1673 463 -188 90 -476 245 -580 314 -283
189 -664 527 -919 817 -179 203 -423 546 -560 788 -268 473 -466 1029 -555
1562 -41 248 -43 277 -39 865 l4 570 32 183 c180 1007 634 1878 1350 2589 393
389 792 673 1287 914 492 239 988 384 1535 448 246 29 237 29 620 26 239 -2
387 -8 480 -19z m1726 -6356 c569 -104 1123 -333 1635 -675 137 -92 225 -173
234 -217 4 -15 11 -30 16 -33 5 -4 9 -12 9 -20 0 -31 107 -188 251 -366 131
-163 204 -281 271 -439 75 -175 78 -196 78 -565 l0 -330 -34 -97 c-75 -218
-212 -351 -421 -409 -158 -44 -472 -20 -669 52 -102 37 -219 111 -271 172 -55
64 -109 164 -148 273 -55 154 -85 216 -127 259 -74 76 -100 161 -150 505 -34
233 -59 363 -101 535 -122 496 -372 915 -722 1212 -137 116 -180 166 -154 177
21 10 130 -2 303 -34z M3450 7534 c-729 -111 -1388 -501 -1877 -1109 -80 -100
-107 -142 -120 -184 -28 -97 0 -204 71 -273 53 -52 101 -72 182 -76 127 -7
167 20 334 227 160 198 419 422 645 558 293 176 607 285 905 313 148 14 185
24 242 65 34 25 55 52 78 99 30 60 32 72 28 133 -8 112 -63 193 -163 239 -41
20 -65 24 -140 23 -49 -1 -133 -7 -185 -15z m-583 -466 c-3 -8 -6 -5 -6 6 -1
11 2 17 5 13 3 -3 4 -12 1 -19z m-20 -10 c-3 -8 -6 -5 -6 6 -1 11 2 17 5 13 3
-3 4 -12 1 -19z m-50 -20 c-3 -8 -6 -5 -6 6 -1 11 2 17 5 13 3 -3 4 -12 1 -19z
m-20 -10 c-3 -8 -6 -5 -6 6 -1 11 2 17 5 13 3 -3 4 -12 1 -19z m-17 -4 c0 -8
-4 -12 -10 -9 -5 3 -10 1 -10 -4 0 -6 -24 -23 -52 -37 -29 -15 -55 -30 -58
-34 -3 -5 -48 -36 -100 -70 -135 -89 -364 -277 -459 -379 -19 -20 -86 -91
-149 -159 -116 -124 -158 -157 -186 -146 -25 10 -19 47 15 95 46 64 320 334
419 413 171 136 413 283 535 326 28 10 51 18 53 19 1 0 2 -6 2 -15z M6885
7526 c-60 -27 -107 -72 -138 -130 -17 -32 -22 -58 -22 -121 0 -63 5 -89 22
-121 53 -99 137 -148 273 -158 321 -25 646 -133 955 -319 227 -136 467 -343
636 -548 136 -166 166 -195 221 -219 62 -27 171 -25 230 4 119 58 182 199 145
327 -13 43 -40 85 -123 188 -483 603 -1166 1004 -1886 1106 -157 22 -252 20
-313 -9z m932 -468 c-3 -8 -6 -5 -6 6 -1 11 2 17 5 13 3 -3 4 -12 1 -19z m128
-35 c33 -16 76 -36 95 -43 45 -18 180 -96 262 -151 269 -181 628 -529 628
-609 0 -24 -4 -30 -20 -30 -41 0 -77 30 -196 161 -205 225 -388 387 -579 513
-55 36 -109 73 -120 82 -11 8 -47 29 -80 46 -33 17 -62 34 -63 39 -2 5 -8 7
-13 3 -5 -3 -9 0 -9 6 0 6 -4 8 -10 5 -5 -3 -10 1 -10 9 0 19 32 10 115 -31z
M2494 5456 c-63 -28 -96 -103 -75 -168 15 -45 137 -185 236 -272 224 -194 485
-316 777 -362 129 -21 422 -14 538 11 362 80 698 289 897 559 36 48 43 66 43
103 0 110 -108 176 -200 123 -230 -131 -449 -203 -740 -242 -122 -16 -499 -16
-615 0 -289 41 -517 113 -700 221 -74 44 -109 49 -161 27z M5821 5453 c-44
-22 -71 -67 -71 -121 0 -55 8 -69 91 -167 182 -216 451 -388 734 -470 132 -38
261 -55 427 -55 372 0 691 116 980 357 82 68 191 182 236 247 67 97 1 226
-115 226 -16 0 -60 -19 -98 -41 -371 -219 -952 -294 -1479 -193 -214 42 -369
99 -566 209 -52 29 -91 31 -139 8z M5125 3514 c-556 -81 -978 -414 -1231 -975
-66 -144 -100 -255 -90 -294 4 -16 24 -46 45 -67 34 -34 44 -38 88 -38 42 0
60 7 109 40 138 93 399 167 734 206 184 22 712 30 922 15 423 -31 747 -109
904 -217 28 -19 65 -39 83 -44 68 -19 153 35 167 105 8 42 -12 112 -77 264
-187 443 -524 783 -919 926 -168 61 -267 77 -495 80 -115 2 -223 1 -240 -1z
m430 -279 c321 -48 598 -207 801 -458 101 -124 155 -233 125 -252 -7 -3 -76 9
-154 29 -314 78 -536 101 -997 101 -512 0 -748 -29 -1147 -141 -20 -6 -23 -3
-23 25 0 61 89 193 218 325 211 217 449 332 782 380 69 10 306 4 395 -9z"/>
</g>
</svg>
