<?xml version="1.0" standalone="no"?>
<!DOCTYPE svg PUBLIC "-//W3C//DTD SVG 20010904//EN"
 "http://www.w3.org/TR/2001/REC-SVG-20010904/DTD/svg10.dtd">
<svg version="1.0" xmlns="http://www.w3.org/2000/svg"
 width="2048.000000pt" height="2048.000000pt" viewBox="0 0 2048.000000 2048.000000"
 preserveAspectRatio="xMidYMid meet">
<metadata>
Created by potrace 1.13, written by Peter Selinger 2001-2015
</metadata>
<g transform="translate(0.000000,2048.000000) scale(0.192120,-0.192120)"
fill="#000000" stroke="none">
<path d="M5070 10324 c-297 -20 -550 -54 -801 -108 -1789 -385 -3239 -1742
-3745 -3506 -278 -968 -255 -2013 66 -2970 519 -1548 1776 -2756 3340 -3210
864 -250 1783 -264 2655 -40 996 256 1908 833 2577 1630 1112 1324 1459 3145
913 4785 -425 1275 -1335 2319 -2540 2910 -602 296 -1216 460 -1890 505 -136
9 -464 11 -575 4z m790 -228 c977 -117 1823 -480 2562 -1099 338 -282 682
-671 919 -1037 154 -237 315 -503 352 -581 171 -363 307 -788 377 -1179 48
-266 50 -305 50 -866 0 -521 -1 -540 -25 -711 -78 -532 -228 -1002 -481 -1499
-51 -100 -127 -237 -169 -305 -191 -306 -473 -663 -651 -825 -534 -483 -822
-690 -1289 -924 -249 -125 -411 -193 -660 -275 -1102 -365 -2340 -313 -3413
142 -548 233 -1024 549 -1485 985 -236 224 -466 505 -664 813 -389 606 -629
1266 -723 1990 -8 63 -10 262 -8 660 l4 570 32 183 c180 1007 634 1878 1350
2589 393 389 792 673 1287 914 492 239 988 384 1535 448 246 29 237 29 620 26
239 -2 387 -8 480 -19z M3533 7535 c-256 -69 -461 -333 -539 -695 -26 -120
-26 -400 0 -520 121 -558 527 -845 914 -648 117 59 248 200 320 343 44 88 89
222 108 322 21 108 24 355 5 463 -65 373 -283 664 -551 735 -69 18 -189 18
-257 0z m289 -303 c113 -56 197 -161 247 -309 19 -57 21 -85 21 -340 l0 -278
-29 -83 c-92 -263 -290 -397 -496 -337 -144 41 -269 185 -324 371 -19 64 -21
96 -21 325 0 183 4 268 14 305 34 128 137 274 232 330 72 42 121 54 211 51 67
-3 92 -9 145 -35z M6866 7535 c-173 -48 -338 -198 -439 -400 -42 -85 -90 -234
-108 -335 -17 -98 -17 -345 0 -440 78 -440 357 -749 676 -750 312 0 579 282
671 710 26 121 26 401 0 520 -79 364 -285 628 -543 695 -69 18 -190 18 -257 0z
m288 -299 c108 -53 198 -164 246 -302 20 -59 21 -78 18 -365 l-3 -304 -29 -70
c-38 -90 -114 -204 -165 -244 -73 -58 -126 -76 -226 -76 -82 0 -97 3 -156 32
-118 58 -224 201 -268 363 -19 66 -21 102 -21 315 0 267 6 302 64 420 62 124
168 222 275 252 76 21 198 12 265 -21z M5161 4760 c-545 -114 -941 -693 -941
-1375 0 -267 59 -517 176 -747 160 -311 404 -524 700 -610 68 -20 101 -23 239
-22 144 0 169 3 248 27 287 88 524 299 681 605 187 366 227 815 110 1219 -107
369 -340 671 -629 814 -153 76 -214 91 -390 95 -82 1 -170 -1 -194 -6z m364
-286 c277 -75 492 -292 609 -614 l30 -85 4 -350 c4 -379 2 -400 -50 -545 -39
-107 -57 -144 -126 -248 -218 -331 -596 -463 -936 -327 -116 46 -187 95 -286
194 -138 139 -226 300 -280 508 -20 78 -21 102 -18 410 l4 328 32 94 c98 280
268 481 495 586 67 31 152 57 222 69 55 8 239 -3 300 -20z"/>
</g>
</svg>
