<?xml version="1.0" standalone="no"?>
<!DOCTYPE svg PUBLIC "-//W3C//DTD SVG 20010904//EN"
 "http://www.w3.org/TR/2001/REC-SVG-20010904/DTD/svg10.dtd">
<svg version="1.0" xmlns="http://www.w3.org/2000/svg"
 width="2048.000000pt" height="2048.000000pt" viewBox="0 0 2048.000000 2048.000000"
 preserveAspectRatio="xMidYMid meet">
<metadata>
Created by potrace 1.13, written by Peter Selinger 2001-2015
</metadata>
<g transform="translate(0.000000,2048.000000) scale(0.192120,-0.192120)"
fill="#000000" stroke="none">
<path d="M5070 10324 c-297 -20 -550 -54 -801 -108 -1789 -385 -3239 -1742
-3745 -3506 -278 -968 -255 -2013 66 -2970 519 -1548 1776 -2756 3340 -3210
1064 -308 2202 -257 3230 147 210 82 544 246 730 358 1330 801 2204 2137 2400
3670 164 1278 -183 2588 -958 3620 -470 626 -1058 1118 -1757 1470 -610 308
-1242 479 -1930 525 -136 9 -464 11 -575 4z m790 -228 c815 -97 1447 -331
2192 -810 292 -188 434 -302 684 -551 372 -371 691 -809 862 -1185 218 -480
301 -713 414 -1160 118 -469 120 -489 115 -1117 -3 -443 -6 -501 -26 -628 -51
-321 -106 -552 -176 -730 -26 -66 -78 -214 -116 -330 -185 -558 -580 -1168
-1078 -1665 -218 -218 -276 -263 -646 -511 -244 -163 -380 -241 -620 -359
-244 -120 -379 -176 -619 -255 -1103 -365 -2340 -313 -3414 142 -415 177 -922
481 -1217 732 -131 111 -392 368 -509 501 -179 203 -423 546 -560 788 -269
474 -466 1028 -555 1562 -41 248 -43 277 -39 865 l4 570 32 183 c123 686 371
1306 751 1874 328 490 791 958 1251 1265 681 454 1394 721 2170 812 246 29
237 29 620 26 239 -2 387 -8 480 -19z M4133 9202 c-97 -35 -150 -94 -189 -207
-23 -71 -75 -169 -126 -242 -276 -393 -771 -618 -1408 -639 -199 -7 -250 -19
-315 -76 -129 -113 -129 -303 0 -416 74 -65 125 -76 314 -67 672 30 1178 207
1574 552 204 178 391 447 482 693 51 138 34 250 -50 335 -75 74 -187 101 -282
67z m77 -348 c0 -70 -25 -130 -106 -256 -104 -161 -316 -364 -464 -444 -19
-10 -37 -21 -40 -24 -10 -10 -136 -69 -185 -87 -27 -10 -53 -19 -57 -21 -5 -2
-8 3 -8 12 0 8 13 22 29 30 43 23 219 143 276 189 178 144 284 274 440 537 43
74 83 120 102 120 9 0 13 -16 13 -56z m-870 -830 c0 -8 -4 -12 -10 -9 -5 3
-10 1 -10 -5 0 -6 -5 -8 -12 -4 -7 5 -5 11 7 21 24 17 25 16 25 -3z m-73 -36
c-3 -8 -6 -5 -6 6 -1 11 2 17 5 13 3 -3 4 -12 1 -19z M6357 9206 c-136 -49
-216 -183 -188 -317 31 -144 304 -506 533 -706 446 -390 925 -586 1528 -625
211 -14 257 -5 335 64 128 113 129 303 0 416 -60 52 -123 72 -232 72 -338 0
-715 110 -1007 294 -248 157 -485 400 -623 638 -25 43 -62 93 -84 111 -69 60
-180 82 -262 53z m126 -297 c31 -17 48 -35 122 -134 167 -220 318 -376 494
-510 107 -80 243 -170 309 -204 23 -12 42 -29 42 -37 0 -9 -6 -14 -12 -11 -7
3 -30 12 -50 21 -21 9 -38 13 -38 9 0 -5 -4 -3 -8 3 -4 5 -41 26 -82 46 -90
44 -154 80 -158 91 -2 4 -8 7 -13 7 -6 0 -40 21 -77 46 -182 127 -384 327
-503 499 -88 127 -100 172 -51 184 2 1 13 -4 25 -10z m984 -901 c-3 -8 -6 -5
-6 6 -1 11 2 17 5 13 3 -3 4 -12 1 -19z m20 -10 c-3 -8 -6 -5 -6 6 -1 11 2 17
5 13 3 -3 4 -12 1 -19z M2176 6146 c-54 -20 -106 -65 -140 -119 -22 -36 -30
-63 -34 -116 -9 -126 42 -218 151 -270 54 -26 77 -30 182 -36 305 -16 647 -76
940 -166 114 -35 350 -126 416 -160 52 -26 59 -23 -131 -64 -526 -113 -1189
-403 -1660 -725 -105 -72 -143 -115 -166 -184 -48 -143 37 -309 180 -351 109
-33 159 -18 335 99 396 263 890 482 1351 600 277 71 489 103 766 115 162 7
198 12 240 30 102 46 164 138 164 247 0 99 -23 148 -109 232 -456 444 -1154
746 -1966 853 -213 27 -466 35 -519 15z m1361 -518 c-3 -8 -6 -5 -6 6 -1 11 2
17 5 13 3 -3 4 -12 1 -19z m104 -12 c195 -63 473 -212 669 -359 131 -99 180
-145 180 -172 0 -45 -25 -53 -215 -70 -99 -9 -227 -23 -285 -31 -58 -8 -121
-17 -140 -20 -19 -2 -46 -7 -60 -10 -45 -10 -159 -13 -165 -5 -3 5 16 26 43
47 107 88 167 162 188 234 12 39 5 64 -34 137 -26 49 -160 188 -191 198 -12 3
-21 10 -21 14 0 5 -13 14 -30 21 -16 7 -30 19 -30 26 0 19 5 18 91 -10z m-34
-678 c-3 -8 -6 -5 -6 6 -1 11 2 17 5 13 3 -3 4 -12 1 -19z m-660 -220 c-3 -8
-6 -5 -6 6 -1 11 2 17 5 13 3 -3 4 -12 1 -19z m-70 -30 c-3 -8 -6 -5 -6 6 -1
11 2 17 5 13 3 -3 4 -12 1 -19z m-50 -20 c-3 -8 -6 -5 -6 6 -1 11 2 17 5 13 3
-3 4 -12 1 -19z m-17 -4 c0 -8 -4 -12 -10 -9 -5 3 -10 1 -10 -4 0 -6 -3 -10
-7 -9 -5 1 -18 -3 -30 -10 -19 -11 -23 -10 -23 3 0 8 5 15 10 15 19 0 25 2 45
16 24 17 25 17 25 -2z m-93 -46 c-3 -8 -6 -5 -6 6 -1 11 2 17 5 13 3 -3 4 -12
1 -19z m-17 -4 c0 -8 -4 -12 -10 -9 -5 3 -10 1 -10 -5 0 -6 -4 -9 -9 -6 -5 4
-11 2 -13 -3 -1 -5 -34 -24 -73 -44 -38 -19 -81 -44 -94 -56 -23 -20 -35 -25
-53 -22 -5 0 -8 -4 -8 -10 0 -5 -4 -8 -9 -5 -5 4 -11 2 -13 -3 -3 -9 -157
-106 -273 -172 -52 -30 -80 -36 -90 -19 -10 16 38 53 163 128 111 66 409 216
462 233 14 4 26 8 28 8 1 1 2 -6 2 -15z M8165 6153 c-902 -91 -1603 -365
-2117 -830 -102 -92 -123 -118 -143 -174 -36 -100 -8 -226 66 -296 67 -63 112
-75 323 -84 262 -11 473 -42 731 -105 458 -113 989 -347 1388 -611 171 -114
227 -130 337 -97 70 21 149 98 173 168 32 94 15 197 -43 268 -67 81 -419 296
-744 454 -371 180 -749 312 -1104 385 -53 10 -98 21 -100 24 -15 15 309 140
517 201 268 78 538 125 841 147 194 15 228 25 290 87 49 49 73 104 78 177 8
111 -41 205 -136 261 -45 26 -54 27 -182 28 -74 1 -153 0 -175 -3z m-1038
-525 c-3 -8 -6 -5 -6 6 -1 11 2 17 5 13 3 -3 4 -12 1 -19z m-17 -3 c0 -8 -6
-15 -12 -15 -7 0 -26 -11 -42 -25 -16 -14 -33 -25 -38 -25 -4 0 -43 -35 -87
-79 -83 -83 -141 -172 -141 -215 0 -75 133 -235 239 -291 29 -15 43 -45 21
-45 -5 0 -10 5 -10 10 0 7 -6 7 -19 1 -10 -6 -21 -8 -23 -5 -3 2 -25 6 -49 8
-24 2 -120 15 -214 29 -93 14 -253 33 -353 42 -286 26 -291 48 -52 229 212
160 536 333 712 380 68 19 68 19 68 1z m627 -917 c-3 -8 -6 -5 -6 6 -1 11 2
17 5 13 3 -3 4 -12 1 -19z m50 -20 c-3 -8 -6 -5 -6 6 -1 11 2 17 5 13 3 -3 4
-12 1 -19z m46 -1 c4 3 7 -2 7 -12 0 -13 -3 -15 -13 -6 -8 6 -17 8 -20 4 -4
-3 -7 2 -7 12 0 13 3 15 13 6 8 -6 17 -8 20 -4z m24 -29 c-3 -8 -6 -5 -6 6 -1
11 2 17 5 13 3 -3 4 -12 1 -19z m123 -29 c173 -73 509 -255 592 -320 65 -52
38 -76 -40 -36 -53 28 -297 176 -319 194 -12 10 -26 18 -30 18 -18 0 -93 38
-93 47 0 5 -4 6 -10 3 -5 -3 -10 -2 -10 2 0 5 -36 27 -80 48 -44 21 -80 43
-80 48 0 4 -4 5 -10 2 -5 -3 -10 -1 -10 5 0 6 -4 8 -10 5 -5 -3 -10 1 -10 9 0
17 20 12 110 -25z M5165 3503 c-176 -31 -411 -128 -598 -245 -428 -268 -879
-763 -1239 -1362 -67 -112 -78 -136 -78 -175 0 -57 26 -102 73 -124 71 -34 90
-27 274 99 370 253 815 447 1240 540 509 110 978 74 1483 -113 267 -99 606
-293 808 -463 40 -33 84 -65 98 -70 64 -25 139 2 169 59 30 59 20 104 -51 240
-213 409 -464 760 -744 1041 -334 334 -644 515 -989 575 -105 19 -338 18 -446
-2z m475 -278 c186 -45 331 -110 501 -223 234 -158 522 -455 710 -735 61 -91
78 -132 62 -148 -5 -5 -88 31 -213 94 -238 118 -432 193 -644 247 -544 138
-1069 108 -1657 -96 -135 -46 -398 -159 -514 -219 -160 -84 -165 -46 -20 135
455 568 909 888 1364 960 81 13 334 4 411 -15z"/>
</g>
</svg>
