<?xml version="1.0" standalone="no"?>
<!DOCTYPE svg PUBLIC "-//W3C//DTD SVG 20010904//EN"
 "http://www.w3.org/TR/2001/REC-SVG-20010904/DTD/svg10.dtd">
<svg version="1.0" xmlns="http://www.w3.org/2000/svg"
 width="2048.000000pt" height="2048.000000pt" viewBox="0 0 2048.000000 2048.000000"
 preserveAspectRatio="xMidYMid meet">
<metadata>
Created by potrace 1.13, written by Peter Selinger 2001-2015
</metadata>
<g transform="translate(0.000000,2048.000000) scale(0.192120,-0.192120)"
fill="#000000" stroke="none">
<path d="M5070 10324 c-169 -12 -337 -29 -476 -49 -1166 -172 -2240 -758
-3023 -1651 -1174 -1338 -1547 -3196 -981 -4884 376 -1123 1149 -2085 2166
-2696 1149 -690 2526 -889 3829 -554 996 256 1908 833 2577 1630 1417 1687
1557 4121 343 5960 -677 1025 -1719 1774 -2900 2085 -293 77 -644 134 -960
155 -136 9 -464 11 -575 4z m790 -228 c470 -56 851 -153 1285 -325 72 -29 270
-121 440 -206 235 -117 340 -175 437 -242 607 -422 1096 -935 1435 -1503 85
-142 280 -536 345 -695 145 -357 278 -854 278 -1040 0 -38 7 -122 16 -185 13
-88 17 -231 21 -607 5 -463 4 -500 -16 -640 -79 -548 -232 -1028 -487 -1529
-51 -100 -127 -237 -169 -305 -191 -306 -472 -663 -651 -825 -526 -477 -823
-690 -1289 -924 -249 -125 -411 -193 -660 -275 -1102 -365 -2340 -313 -3413
142 -546 232 -1024 549 -1482 983 -171 161 -303 310 -457 515 -514 685 -822
1441 -933 2290 -8 63 -10 260 -7 665 l4 575 31 172 c126 694 366 1295 747
1868 279 420 666 833 1060 1132 282 214 417 298 715 446 577 288 1060 437
1650 506 246 29 237 29 620 26 239 -2 387 -8 480 -19z M4715 9491 c-98 -25
-144 -69 -225 -214 -201 -362 -457 -637 -810 -872 -143 -95 -417 -231 -572
-284 -147 -50 -168 -61 -211 -112 -143 -167 -41 -425 180 -455 61 -8 156 17
333 86 400 158 745 384 1051 689 91 92 196 204 233 251 139 176 323 475 347
565 26 95 -6 209 -78 277 -58 55 -176 88 -248 69z m55 -338 c0 -104 -239 -435
-481 -668 -85 -82 -221 -196 -279 -235 -12 -8 -32 -22 -44 -31 -67 -51 -396
-237 -396 -224 0 3 -23 -6 -50 -20 -28 -14 -55 -23 -60 -20 -6 4 -10 1 -10 -5
0 -6 -4 -8 -10 -5 -5 3 -10 2 -10 -2 0 -5 -9 -9 -20 -10 -11 -1 -20 3 -20 8 0
6 4 8 9 5 5 -3 12 1 15 10 3 8 10 13 14 10 7 -4 25 5 93 49 9 5 38 22 65 38
214 121 454 307 635 494 149 154 222 246 357 449 101 152 139 194 173 194 15
0 19 -8 19 -37z m-1393 -1235 c-3 -8 -6 -5 -6 6 -1 11 2 17 5 13 3 -3 4 -12 1
-19z m-20 -10 c-3 -8 -6 -5 -6 6 -1 11 2 17 5 13 3 -3 4 -12 1 -19z M5825
9491 c-80 -21 -153 -79 -192 -154 -9 -18 -18 -64 -21 -107 -4 -75 -4 -76 50
-180 140 -272 293 -476 532 -715 264 -263 510 -439 831 -595 262 -127 473
-197 560 -185 217 28 320 289 179 453 -39 47 -89 76 -168 99 -167 50 -438 181
-616 298 -349 231 -609 511 -810 872 -67 120 -104 163 -166 193 -49 22 -135
33 -179 21z m126 -324 c15 -12 62 -76 106 -143 143 -216 246 -346 392 -493
145 -146 399 -348 536 -425 17 -9 82 -48 145 -86 63 -39 121 -70 128 -70 14 0
16 -16 2 -25 -5 -3 -10 -1 -10 5 0 6 -4 8 -10 5 -5 -3 -10 -1 -10 5 0 6 -4 9
-10 5 -5 -3 -41 10 -80 30 -38 19 -70 33 -70 29 0 -9 -182 90 -300 164 -224
140 -410 301 -608 527 -129 147 -282 394 -282 455 0 20 3 39 6 42 9 9 37 -2
65 -25z m1356 -1259 c-3 -8 -6 -5 -6 6 -1 11 2 17 5 13 3 -3 4 -12 1 -19z
M4850 7403 c-8 -3 -56 -45 -107 -94 -440 -419 -1303 -650 -1882 -503 -53 13
-105 24 -116 24 -31 0 -83 -36 -105 -72 -45 -74 -15 -143 113 -264 341 -324
685 -484 1040 -484 475 0 855 264 1087 754 86 182 160 417 160 511 0 49 -29
99 -69 120 -29 15 -92 19 -121 8z m-180 -504 c0 -17 -18 -68 -40 -112 -145
-290 -392 -473 -701 -518 -106 -15 -271 -6 -372 21 -97 26 -249 86 -276 109
-11 9 -31 26 -45 36 -14 11 -26 25 -26 32 0 17 20 20 187 33 307 23 607 98
894 224 97 43 289 149 338 187 33 26 41 24 41 -12z M5672 7370 c-40 -25 -72
-75 -72 -115 0 -84 91 -349 182 -527 181 -357 460 -598 793 -684 139 -36 325
-43 461 -19 318 57 617 231 888 516 112 118 128 154 101 225 -18 47 -56 81
-102 90 -16 3 -65 -5 -118 -21 -250 -73 -599 -75 -927 -6 -392 82 -765 258
-987 466 -42 40 -86 77 -98 83 -33 18 -84 14 -121 -8z m399 -507 c357 -215
852 -353 1270 -353 84 0 101 -3 106 -17 15 -39 -117 -120 -291 -178 -198 -67
-396 -69 -587 -9 -164 52 -278 123 -400 251 -109 114 -226 317 -204 353 8 13
1 17 106 -47z M5080 5053 c-649 -48 -1287 -297 -1800 -703 -136 -107 -415
-388 -511 -515 -329 -433 -491 -852 -491 -1270 1 -221 41 -344 147 -451 77
-78 143 -105 270 -111 77 -4 125 2 330 40 1035 196 1541 244 2449 234 780 -9
1206 -54 2106 -223 257 -48 307 -55 385 -51 115 5 187 32 258 97 124 114 176
305 156 576 -41 553 -380 1144 -921 1609 -507 435 -1156 704 -1848 765 -106 9
-423 11 -530 3z m455 -563 c304 -19 608 -79 841 -165 128 -47 356 -157 463
-224 258 -160 503 -392 661 -626 58 -86 62 -99 23 -84 -98 37 -421 110 -683
154 -687 115 -1565 147 -2325 85 -498 -42 -1034 -133 -1343 -229 -34 -10 -62
-15 -62 -9 0 16 98 155 174 245 197 237 462 440 760 584 183 87 305 132 491
179 318 81 656 112 1000 90z m-2477 -722 c-28 -46 -70 -121 -92 -168 -35 -72
-41 -95 -41 -148 0 -34 5 -66 10 -70 6 -4 19 -25 30 -47 24 -48 118 -145 165
-171 54 -30 172 -24 370 19 319 69 671 119 1080 154 296 26 1203 25 1505 0
398 -34 776 -88 1095 -158 175 -38 297 -44 348 -16 54 29 145 129 176 192 24
51 28 67 23 117 -6 70 -50 166 -140 306 -83 128 47 13 171 -151 168 -224 283
-454 342 -684 19 -76 21 -104 18 -331 l-3 -249 -29 -37 c-64 -85 -141 -86
-557 -11 -579 105 -944 155 -1409 192 -285 22 -1233 26 -1510 5 -519 -39 -855
-84 -1508 -202 -390 -71 -478 -67 -548 26 l-29 37 0 241 c0 204 3 253 19 316
60 237 212 524 399 756 51 63 151 164 164 164 1 0 -21 -37 -49 -82z"/>
</g>
</svg>
