<?xml version="1.0" standalone="no"?>
<!DOCTYPE svg PUBLIC "-//W3C//DTD SVG 20010904//EN"
 "http://www.w3.org/TR/2001/REC-SVG-20010904/DTD/svg10.dtd">
<svg version="1.0" xmlns="http://www.w3.org/2000/svg"
 width="2048.000000pt" height="2048.000000pt" viewBox="0 0 2048.000000 2048.000000"
 preserveAspectRatio="xMidYMid meet">
<metadata>
Created by potrace 1.13, written by Peter Selinger 2001-2015
</metadata>
<g transform="translate(0.000000,2048.000000) scale(0.192120,-0.192120)"
fill="#000000" stroke="none">
<path d="M5070 10324 c-297 -20 -550 -54 -801 -108 -1789 -385 -3239 -1742
-3745 -3506 -217 -756 -251 -1579 -98 -2350 203 -1025 712 -1944 1474 -2666
120 -113 265 -237 362 -308 37 -27 65 -53 62 -58 -3 -4 -29 -8 -57 -8 -113 0
-598 -53 -927 -101 -651 -95 -1010 -214 -1010 -334 0 -186 870 -363 2280 -464
2670 -192 6235 -64 7385 265 208 60 335 135 335 199 0 94 -233 192 -650 274
-272 54 -757 118 -1095 146 -286 23 -274 17 -171 93 117 87 307 255 450 398
788 788 1284 1799 1426 2909 94 732 19 1497 -215 2200 -425 1275 -1335 2319
-2540 2910 -602 296 -1216 460 -1890 505 -136 9 -464 11 -575 4z m790 -228
c683 -82 1290 -279 1860 -606 429 -246 865 -599 1169 -945 309 -351 464 -551
581 -747 277 -465 491 -1021 586 -1528 70 -367 69 -356 69 -940 0 -509 -1
-542 -23 -680 -92 -581 -235 -1029 -488 -1527 -255 -500 -597 -944 -1059
-1373 -107 -99 -202 -196 -223 -228 -33 -49 -37 -62 -37 -119 l0 -64 -95 3
-95 3 -5 1925 c-3 1059 -6 1917 -8 1908 -1 -10 -9 -18 -17 -18 -13 0 -15 -218
-15 -1905 0 -1637 2 -1907 14 -1922 8 -10 26 -32 40 -49 14 -17 83 -66 154
-108 160 -95 198 -105 562 -146 473 -53 816 -107 831 -132 28 -46 -58 -70
-476 -133 -1262 -189 -3846 -257 -5910 -155 -980 49 -1882 143 -2227 232 -46
12 -64 33 -49 57 15 23 366 79 826 131 424 48 403 41 662 207 29 18 64 51 78
73 l25 40 0 1900 c0 1260 -3 1900 -10 1900 -5 0 -11 10 -12 23 -2 12 -5 -844
-8 -1903 l-5 -1925 -98 -3 -98 -3 8 28 c26 99 -6 146 -309 443 -143 140 -302
302 -353 360 -180 205 -422 547 -559 788 -269 474 -466 1028 -555 1562 -41
248 -43 277 -39 865 l4 570 32 183 c103 577 276 1059 565 1572 145 258 282
454 486 695 450 531 972 937 1586 1236 492 239 988 384 1535 448 246 29 237
29 620 26 239 -2 387 -8 480 -19z M3854 8092 c-68 -24 -98 -50 -192 -167 -232
-291 -615 -612 -1024 -858 -203 -122 -544 -291 -731 -362 -60 -23 -132 -85
-159 -138 -11 -23 -23 -69 -26 -103 -17 -213 189 -356 393 -275 551 220 1077
535 1505 901 218 186 497 488 567 614 24 43 28 62 28 126 0 65 -4 82 -31 130
-37 66 -97 114 -166 135 -66 19 -101 19 -164 -3z m76 -315 c0 -39 -58 -114
-195 -256 -127 -131 -309 -293 -430 -382 -33 -24 -62 -46 -65 -49 -7 -9 -253
-170 -345 -227 -115 -71 -300 -173 -322 -178 -10 -2 -59 -24 -108 -48 -50 -25
-97 -47 -105 -49 -8 -2 -17 -6 -20 -10 -3 -4 -22 -14 -43 -23 -32 -13 -37 -13
-37 -1 0 9 57 44 138 86 75 39 162 86 192 105 30 18 65 40 77 47 198 118 396
256 585 406 84 66 225 198 380 354 195 196 252 248 272 248 21 0 26 -5 26 -23z
m-1683 -1239 c-3 -8 -6 -5 -6 6 -1 11 2 17 5 13 3 -3 4 -12 1 -19z m-17 -4 c0
-8 -4 -12 -10 -9 -5 3 -10 1 -10 -5 0 -6 -5 -8 -12 -4 -7 5 -5 11 7 21 24 17
25 16 25 -3z m-73 -36 c-3 -8 -6 -5 -6 6 -1 11 2 17 5 13 3 -3 4 -12 1 -19z
M6650 8101 c-81 -26 -142 -76 -178 -145 -22 -42 -27 -64 -27 -126 0 -64 4 -83
28 -126 42 -75 155 -212 292 -353 437 -451 1008 -831 1685 -1122 127 -54 153
-62 210 -63 260 -2 379 317 181 486 -22 19 -77 49 -123 68 -706 289 -1348 741
-1730 1217 -74 92 -100 118 -144 139 -56 27 -150 40 -194 25z m130 -311 c23
-12 90 -76 164 -157 170 -188 349 -352 556 -510 110 -84 367 -258 460 -312 30
-18 80 -47 110 -66 30 -18 115 -64 189 -102 120 -61 153 -85 139 -99 -3 -2
-49 16 -104 42 -54 25 -107 48 -118 50 -10 2 -26 10 -35 18 -9 7 -54 32 -101
54 -116 56 -418 237 -558 335 -270 191 -536 428 -700 625 -52 63 -69 99 -58
127 7 19 9 19 56 -5z m1637 -1252 c-3 -8 -6 -5 -6 6 -1 11 2 17 5 13 3 -3 4
-12 1 -19z m20 -10 c-3 -8 -6 -5 -6 6 -1 11 2 17 5 13 3 -3 4 -12 1 -19z m28
3 c3 -5 1 -12 -5 -16 -5 -3 -10 1 -10 9 0 18 6 21 15 7z m42 -33 c-3 -8 -6 -5
-6 6 -1 11 2 17 5 13 3 -3 4 -12 1 -19z M3130 6119 c-220 -23 -476 -79 -695
-152 -266 -90 -345 -133 -400 -222 -27 -44 -30 -56 -30 -134 0 -97 14 -137 71
-195 58 -60 108 -80 194 -81 66 0 86 5 171 42 295 128 636 196 979 196 339 0
594 -52 878 -181 118 -53 132 -57 202 -57 100 0 167 35 225 119 36 52 40 64
43 132 8 148 -43 219 -213 300 -256 121 -516 193 -821 229 -140 16 -461 18
-604 4z M7020 6119 c-302 -31 -698 -134 -930 -241 -99 -46 -143 -84 -176 -153
-28 -59 -33 -165 -9 -221 40 -97 133 -163 239 -171 56 -5 73 -1 152 32 476
197 963 258 1419 175 181 -32 293 -69 565 -186 102 -44 218 -21 297 57 57 56
76 101 81 185 8 137 -47 211 -213 290 -262 123 -556 203 -864 234 -121 12
-439 11 -561 -1z M3640 5320 c0 -11 -4 -20 -10 -20 -7 0 -10 -655 -10 -1945 0
-1290 3 -1945 10 -1945 6 0 10 -5 10 -10 0 -19 49 -61 88 -74 31 -11 90 -12
328 -3 365 13 2212 13 2559 0 287 -11 332 -7 379 40 14 14 26 31 26 37 0 5 5
10 10 10 7 0 10 653 10 1940 0 1287 -3 1940 -10 1940 -5 0 -10 9 -10 20 0 11
-4 20 -10 20 -7 0 -10 -661 -10 -1962 l0 -1961 -172 6 c-487 19 -1319 29
-1857 23 -587 -6 -1230 -22 -1283 -31 l-28 -4 0 1969 c0 1307 -3 1970 -10
1970 -5 0 -10 -9 -10 -20z M5239 4490 c-474 -74 -907 -689 -1004 -1424 -48
-369 14 -669 172 -833 103 -106 257 -176 465 -210 150 -25 766 -25 916 0 439
72 631 293 649 743 20 501 -184 1075 -507 1426 -204 222 -463 334 -691 298z
m209 -285 c242 -57 491 -323 618 -663 24 -62 32 -156 15 -166 -4 -3 -47 19
-94 49 -214 136 -444 194 -717 181 -256 -11 -474 -83 -649 -215 -30 -23 -58
-41 -63 -41 -18 0 -7 107 18 172 74 195 193 377 328 505 169 160 357 222 544
178z m127 -847 c255 -50 458 -181 545 -353 33 -66 35 -74 35 -174 0 -101 -2
-109 -35 -175 -190 -380 -901 -504 -1352 -235 -96 56 -188 152 -230 236 -31
64 -33 74 -33 173 0 93 3 112 26 160 141 297 594 457 1044 368z"/>
</g>
</svg>
