<?xml version="1.0" standalone="no"?>
<!DOCTYPE svg PUBLIC "-//W3C//DTD SVG 20010904//EN"
 "http://www.w3.org/TR/2001/REC-SVG-20010904/DTD/svg10.dtd">
<svg version="1.0" xmlns="http://www.w3.org/2000/svg"
 width="2048.000000pt" height="2048.000000pt" viewBox="0 0 2048.000000 2048.000000"
 preserveAspectRatio="xMidYMid meet">
<metadata>
Created by potrace 1.13, written by Peter Selinger 2001-2015
</metadata>
<g transform="translate(0.000000,2048.000000) scale(0.192120,-0.192120)"
fill="#000000" stroke="none">
<path d="M5070 10324 c-169 -12 -337 -29 -476 -49 -1166 -172 -2240 -758
-3023 -1651 -946 -1079 -1380 -2499 -1200 -3928 110 -880 464 -1730 1013
-2434 152 -197 314 -374 525 -575 l92 -89 14 -91 c45 -292 168 -537 377 -753
158 -163 333 -275 543 -347 166 -57 257 -71 450 -71 235 0 386 32 581 124 l82
38 137 -34 c543 -133 1194 -167 1775 -94 1103 141 2121 641 2907 1428 786 788
1281 1799 1423 2907 194 1518 -328 3053 -1411 4145 -387 390 -807 695 -1304
945 -610 307 -1242 479 -1930 525 -136 9 -464 11 -575 4z m790 -228 c1093
-131 2028 -571 2814 -1327 66 -63 151 -150 190 -195 39 -44 123 -138 186 -210
214 -239 270 -315 428 -579 337 -565 556 -1214 637 -1887 23 -190 16 -1070 -9
-1188 -8 -41 -20 -111 -26 -155 -73 -553 -322 -1232 -635 -1736 -810 -1301
-2128 -2124 -3635 -2269 -186 -18 -607 -24 -795 -11 -93 6 -251 21 -350 32
-135 16 -216 20 -326 16 l-147 -5 67 58 c170 147 282 289 372 475 160 331 180
645 64 1051 -14 49 -31 102 -37 118 l-12 30 -13 -30 c-17 -41 -16 -86 7 -184
17 -74 20 -124 20 -381 0 -363 -4 -384 -112 -596 -64 -127 -127 -211 -215
-291 -96 -86 -121 -98 -240 -118 -54 -8 -159 -35 -233 -59 -187 -61 -239 -73
-365 -85 -353 -33 -705 89 -956 332 -80 77 -131 145 -197 262 -55 96 -78 158
-122 332 -15 62 -47 151 -69 199 l-41 88 0 124 c0 99 5 144 25 221 83 327 356
962 592 1382 246 434 419 685 587 849 42 40 76 79 76 85 0 6 -7 19 -14 29 -14
18 -16 17 -53 -6 -97 -61 -271 -282 -441 -557 -441 -716 -807 -1576 -873
-2046 -7 -46 -15 -81 -19 -79 -4 3 -27 37 -50 77 -52 88 -113 168 -235 308
-187 215 -434 564 -567 803 -273 491 -458 1014 -547 1547 -42 249 -43 276 -38
870 l4 575 31 172 c107 592 285 1084 578 1594 219 383 445 674 789 1012 763
753 1737 1220 2805 1346 246 29 237 29 620 26 239 -2 387 -8 480 -19z M3810
8239 c-504 -54 -1026 -276 -1461 -620 -227 -179 -579 -565 -615 -673 -21 -62
-14 -156 14 -212 50 -99 163 -161 273 -151 96 8 146 43 252 176 178 226 424
446 662 596 287 181 660 309 972 334 156 12 226 51 281 156 36 67 38 179 5
241 -71 134 -175 176 -383 153z m-673 -481 c-3 -8 -6 -5 -6 6 -1 11 2 17 5 13
3 -3 4 -12 1 -19z m-50 -20 c-3 -8 -6 -5 -6 6 -1 11 2 17 5 13 3 -3 4 -12 1
-19z m-20 -10 c-3 -8 -6 -5 -6 6 -1 11 2 17 5 13 3 -3 4 -12 1 -19z m-17 -4
c0 -8 -4 -12 -10 -9 -5 3 -10 1 -10 -5 0 -6 -4 -8 -10 -5 -5 3 -10 1 -10 -4 0
-6 -21 -22 -47 -36 -58 -32 -244 -157 -304 -205 -174 -141 -263 -225 -517
-493 -71 -75 -105 -96 -138 -83 -25 10 -9 53 44 115 206 242 481 473 727 613
54 31 209 106 240 116 17 5 31 10 33 11 1 1 2 -6 2 -15z M6647 8236 c-139 -38
-230 -186 -199 -323 13 -57 55 -127 95 -156 63 -48 98 -59 210 -68 413 -33
871 -226 1233 -519 116 -94 296 -279 401 -411 106 -133 156 -168 252 -176 110
-10 221 52 274 152 31 59 31 183 -1 244 -60 115 -357 438 -545 594 -458 379
-994 612 -1536 667 -124 12 -123 12 -184 -4z m880 -478 c-3 -8 -6 -5 -6 6 -1
11 2 17 5 13 3 -3 4 -12 1 -19z m82 -17 c7 -5 12 -14 9 -21 -2 -8 -11 -5 -28
9 -17 14 -20 20 -10 21 8 0 21 -4 29 -9z m191 -86 c211 -106 445 -281 650
-485 175 -175 239 -269 194 -287 -31 -12 -82 27 -185 139 -213 232 -380 384
-553 503 -154 106 -181 124 -228 150 -27 14 -48 32 -48 39 0 17 66 -6 170 -59z
M3400 6565 c-331 -92 -570 -495 -570 -963 0 -327 136 -661 337 -827 113 -93
223 -135 359 -135 308 0 564 265 661 684 22 93 26 137 27 271 1 178 -10 260
-56 405 -87 274 -252 470 -463 550 -78 29 -217 36 -295 15z m283 -303 c111
-55 203 -172 251 -319 15 -46 17 -89 13 -350 -4 -316 -4 -318 -58 -426 -33
-66 -104 -161 -141 -189 -81 -61 -116 -73 -223 -73 -90 0 -106 3 -158 28 -106
53 -204 177 -259 327 -22 62 -23 76 -23 355 l0 290 33 77 c44 102 95 173 165
229 119 95 270 115 400 51z M7045 6573 c-260 -55 -480 -307 -564 -644 -93
-376 -17 -784 194 -1046 96 -119 199 -190 329 -228 73 -21 227 -16 299 9 188
67 355 251 445 489 219 582 -29 1294 -493 1412 -55 14 -163 18 -210 8z m247
-311 c112 -55 198 -162 248 -308 18 -52 20 -85 20 -343 l0 -286 -29 -83 c-50
-143 -139 -254 -251 -313 -39 -21 -59 -24 -145 -24 -90 0 -106 3 -158 28 -112
56 -211 186 -262 348 -24 77 -25 90 -25 327 0 275 5 308 66 430 41 84 127 178
194 212 78 40 121 50 202 47 62 -3 89 -10 140 -35z M3440 4436 c0 -15 35 -80
58 -106 110 -127 299 -405 432 -635 153 -264 166 -281 229 -300 22 -7 17 6
-49 131 -131 249 -353 604 -463 739 -111 137 -207 216 -207 171z M5075 3645
c-199 -32 -400 -109 -565 -217 -92 -60 -240 -182 -240 -198 0 -6 24 -59 54
-118 70 -141 185 -403 227 -520 l34 -93 45 6 c290 41 758 57 1055 36 444 -31
793 -117 947 -235 50 -37 94 -41 147 -14 58 30 86 81 77 141 -10 66 -107 296
-176 417 -241 420 -591 688 -1022 782 -125 27 -451 34 -583 13z m578 -289
c203 -47 364 -127 522 -257 105 -88 166 -155 247 -275 47 -69 58 -93 58 -126
0 -47 9 -47 -155 -5 -347 89 -819 124 -1317 97 -131 -7 -248 -10 -261 -6 -13
3 -37 27 -57 57 -48 74 -120 248 -120 290 0 31 6 40 38 62 114 75 279 140 437
171 126 24 130 25 320 21 148 -3 199 -8 288 -29z"/>
</g>
</svg>
