<?xml version="1.0" standalone="no"?>
<!DOCTYPE svg PUBLIC "-//W3C//DTD SVG 20010904//EN"
 "http://www.w3.org/TR/2001/REC-SVG-20010904/DTD/svg10.dtd">
<svg version="1.0" xmlns="http://www.w3.org/2000/svg"
 width="2048.000000pt" height="2048.000000pt" viewBox="0 0 2048.000000 2048.000000"
 preserveAspectRatio="xMidYMid meet">
<metadata>
Created by potrace 1.13, written by Peter Selinger 2001-2015
</metadata>
<g transform="translate(0.000000,2048.000000) scale(0.192120,-0.192120)"
fill="#000000" stroke="none">
<path d="M4925 10319 c-769 -43 -1455 -204 -2014 -470 l-129 -61 -194 51
c-1039 272 -1778 359 -1961 229 -63 -45 -105 -198 -128 -463 -23 -280 -12
-943 26 -1560 30 -464 72 -980 84 -1017 6 -19 0 -58 -25 -150 -97 -352 -178
-827 -218 -1283 -38 -418 -44 -953 -16 -1205 90 -789 411 -1498 974 -2150 932
-1079 2529 -1860 3901 -1907 1027 -35 2322 419 3310 1162 241 181 337 265 570
499 294 294 490 539 673 843 288 476 461 975 529 1523 22 175 24 764 5 1030
-43 583 -126 1101 -242 1517 -20 72 -20 72 0 290 114 1265 135 2294 54 2677
-45 214 -109 251 -429 250 -200 0 -353 -17 -654 -70 -316 -56 -727 -148 -1025
-230 l-129 -36 -100 48 c-614 288 -1257 438 -2077 484 -200 11 -580 11 -785
-1z m1065 -223 c614 -63 1024 -161 1545 -371 127 -50 254 -98 284 -105 84 -20
176 -8 471 64 603 148 1015 221 1305 233 229 9 259 1 316 -92 18 -29 19 -74
19 -1090 0 -971 -2 -1080 -20 -1295 -21 -251 -26 -509 -10 -575 68 -280 119
-541 170 -855 12 -74 33 -166 46 -204 13 -38 24 -73 24 -76 0 -4 -20 -1 -44 7
l-45 15 -1283 -428 c-1450 -483 -1348 -441 -1348 -548 0 -50 4 -61 33 -92 64
-71 -23 -94 1392 376 699 232 1279 428 1290 435 20 12 20 10 20 -244 0 -210 3
-269 18 -328 22 -92 21 -104 -5 -69 -23 30 -73 56 -110 56 -13 0 -657 -127
-1433 -282 -1398 -280 -1410 -282 -1444 -313 -28 -26 -34 -40 -38 -82 -7 -66
19 -112 77 -138 l40 -18 1412 282 c777 155 1426 287 1441 293 15 6 39 25 52
42 31 39 31 28 1 -92 -14 -53 -34 -171 -46 -262 -23 -174 -76 -435 -110 -538
-11 -33 -47 -125 -81 -204 -33 -79 -79 -188 -100 -243 -110 -277 -186 -416
-367 -669 -178 -247 -391 -490 -588 -670 -185 -169 -632 -488 -949 -678 -475
-284 -1040 -517 -1566 -647 -667 -165 -1191 -179 -1829 -51 -727 147 -1468
463 -2105 898 -259 177 -407 288 -537 404 -404 358 -739 785 -969 1232 -211
411 -321 770 -379 1236 -7 52 -23 129 -36 169 -13 41 -27 91 -30 110 l-7 36
26 -31 c15 -17 39 -36 54 -42 16 -6 664 -138 1441 -293 l1412 -282 40 18 c58
26 84 72 77 138 -4 42 -10 56 -38 82 -34 31 -46 33 -1444 313 -776 155 -1423
282 -1438 282 -37 0 -80 -23 -107 -57 l-22 -28 7 45 c4 25 11 52 15 60 28 56
38 394 15 538 l-7 44 23 -15 c13 -8 595 -205 1293 -437 1416 -472 1328 -448
1393 -376 28 30 33 43 33 83 0 56 -26 106 -67 126 -30 15 -2512 842 -2553 850
-14 3 -42 0 -63 -8 -35 -12 -38 -12 -34 3 3 10 19 55 36 102 18 53 43 168 66
305 37 227 88 477 131 647 31 124 32 317 4 655 -48 578 -50 635 -50 1493 l0
826 23 44 c18 37 30 47 63 58 28 9 44 21 47 34 6 20 10 21 189 15 321 -10 761
-88 1423 -253 114 -29 213 -47 270 -51 106 -6 137 3 414 117 217 89 363 139
550 190 337 91 683 151 1046 180 72 6 150 12 175 14 125 10 934 -3 1080 -18z
m4018 -4509 c-2 -12 -18 -31 -36 -43 -18 -13 -320 -118 -670 -235 -350 -117
-653 -219 -672 -228 -19 -8 -38 -16 -42 -17 -5 -1 -10 -3 -13 -4 -3 -1 -9 -4
-15 -5 -5 -1 -12 -4 -15 -5 -3 -1 -9 -4 -15 -5 -5 -1 -12 -4 -15 -5 -3 -1 -9
-4 -15 -5 -5 -1 -11 -3 -12 -5 -2 -1 -12 -3 -23 -5 -51 -10 -105 -28 -105 -37
0 -5 -3 -7 -7 -5 -5 3 -19 0 -33 -6 -14 -5 -34 -12 -44 -14 -11 -2 -25 -8 -33
-14 -7 -6 -13 -9 -13 -6 0 5 -88 -22 -130 -40 -8 -3 -22 -7 -31 -9 -9 -2 -29
-9 -45 -15 -16 -7 -36 -13 -45 -15 -9 -2 -29 -9 -45 -15 -16 -7 -32 -13 -36
-14 -5 -2 -10 -4 -13 -5 -3 -1 -9 -4 -15 -5 -5 -1 -12 -4 -15 -5 -3 -1 -9 -4
-15 -5 -5 -1 -12 -4 -15 -5 -3 -1 -9 -4 -15 -5 -5 -1 -12 -4 -15 -5 -3 -1 -9
-4 -15 -5 -5 -1 -11 -3 -12 -4 -2 -2 -13 -4 -24 -6 -12 -3 -34 -10 -50 -16
-16 -7 -32 -12 -35 -11 -4 1 -21 -3 -38 -8 -44 -12 -91 5 -91 34 0 15 12 29
38 43 33 18 1813 614 2172 727 221 70 274 76 268 33z m-9081 -37 c569 -184
2151 -715 2170 -729 30 -21 30 -57 1 -67 -34 -11 -61 -6 -188 33 -63 19 -122
37 -130 38 -8 2 -16 4 -17 5 -2 2 -6 3 -10 5 -5 1 -15 5 -23 8 -8 4 -154 54
-325 111 -1164 391 -1723 584 -1742 601 -39 33 -30 52 26 54 37 1 99 -15 238
-59z m-91 -779 c129 -22 383 -72 1544 -303 991 -196 988 -196 1001 -219 12
-22 2 -49 -20 -51 -29 -2 -113 6 -161 17 -14 3 -36 7 -50 10 -14 3 -36 7 -50
10 -14 3 -36 7 -50 10 -14 3 -36 7 -50 10 -14 3 -36 7 -50 10 -14 3 -36 7 -50
10 -14 3 -36 7 -50 10 -14 3 -36 7 -50 10 -14 3 -36 7 -50 10 -14 3 -36 7 -50
10 -14 3 -36 7 -50 10 -14 3 -36 7 -50 10 -14 3 -36 7 -50 10 -14 3 -36 7 -50
10 -14 3 -36 7 -50 10 -14 3 -36 7 -50 10 -14 3 -36 7 -50 10 -14 3 -36 7 -50
10 -14 3 -36 7 -50 10 -14 3 -36 7 -50 10 -14 3 -36 7 -50 10 -14 3 -36 7 -50
10 -14 3 -36 7 -50 10 -14 3 -36 7 -50 10 -14 3 -36 7 -50 10 -14 3 -36 7 -50
10 -14 3 -36 7 -50 10 -14 3 -36 7 -50 10 -14 3 -36 7 -50 10 -14 3 -36 7 -50
10 -14 3 -36 7 -50 10 -14 3 -34 7 -45 9 -11 3 -222 46 -470 95 -247 50 -457
93 -467 96 -19 7 -33 39 -23 55 9 15 67 12 191 -9z m9181 -1 c2 -8 -1 -22 -6
-30 -7 -10 -164 -46 -493 -113 -266 -54 -493 -100 -505 -103 -13 -2 -34 -7
-48 -9 -14 -3 -36 -8 -50 -10 -14 -3 -36 -8 -50 -10 -14 -3 -36 -8 -50 -10
-14 -3 -35 -8 -47 -10 -13 -3 -36 -7 -53 -10 -16 -4 -39 -8 -50 -10 -84 -19
-516 -106 -540 -110 -16 -2 -48 -9 -71 -14 -23 -6 -59 -13 -80 -16 -57 -9
-107 -19 -170 -34 -23 -6 -56 -13 -75 -16 -19 -2 -74 -13 -124 -24 -91 -19
-133 -26 -215 -37 -25 -3 -50 -7 -57 -9 -21 -7 -73 16 -73 32 0 8 7 21 15 29
16 16 1333 282 2590 523 74 14 149 9 152 -9z M2206 7870 c-275 -22 -350 -43
-416 -117 -73 -83 -91 -214 -42 -310 31 -60 105 -120 171 -140 49 -14 67 -15
151 -3 52 7 190 15 305 17 325 8 556 -25 860 -124 77 -25 141 -47 143 -48 2
-1 -20 -34 -49 -71 -133 -175 -205 -414 -216 -714 -16 -469 148 -871 403 -992
60 -29 79 -33 149 -33 62 0 91 5 129 23 153 70 274 230 350 462 53 164 70 278
70 480 0 163 -7 226 -40 383 -6 25 -4 27 27 27 49 0 113 36 162 90 66 73 85
164 57 266 -18 62 -94 144 -234 248 -388 291 -863 477 -1376 541 -153 19 -457
27 -604 15z m1359 -496 c188 -80 426 -218 547 -318 32 -27 38 -37 38 -73 0
-36 -8 -51 -62 -118 -35 -43 -75 -98 -90 -123 l-28 -47 0 -294 c0 -278 -1
-299 -25 -400 -40 -168 -92 -278 -161 -342 -43 -40 -67 -49 -126 -49 -89 0
-155 56 -219 185 -74 150 -81 202 -76 542 l4 298 30 85 c17 47 50 126 73 175
50 108 80 190 80 222 0 46 -59 148 -135 231 -41 46 -73 87 -70 91 9 15 85 -8
220 -65z M8045 7874 c-376 -29 -678 -99 -990 -229 -283 -117 -614 -328 -752
-478 -72 -79 -92 -167 -63 -272 25 -89 139 -185 219 -185 31 0 33 -2 27 -27
-33 -157 -40 -220 -40 -383 0 -202 17 -316 70 -480 76 -232 197 -392 350 -462
75 -34 189 -32 268 5 172 80 300 271 370 553 38 152 50 277 43 453 -11 290
-86 534 -216 705 -29 37 -51 70 -49 71 2 1 66 23 143 48 304 99 535 132 860
124 116 -2 253 -10 305 -17 83 -12 102 -11 150 3 191 56 263 295 134 445 -54
64 -118 89 -269 107 -129 15 -464 26 -560 19z m-732 -447 c-4 -7 -29 -36 -57
-65 -77 -81 -134 -162 -145 -207 -13 -53 0 -103 72 -265 99 -224 98 -220 95
-603 -3 -290 -5 -338 -21 -382 -49 -135 -113 -236 -172 -270 -44 -26 -113 -33
-158 -16 -75 29 -159 151 -203 297 -27 87 -28 97 -34 434 -8 395 -1 367 -109
495 -76 91 -96 131 -83 160 32 70 373 279 622 381 145 60 213 74 193 41z
M4950 4899 c-185 -19 -322 -59 -378 -112 -52 -48 -66 -93 -70 -223 -5 -139 7
-192 65 -308 60 -119 132 -216 237 -322 157 -158 297 -238 462 -265 184 -30
404 71 601 274 102 105 179 215 234 331 54 116 62 158 57 294 -5 125 -20 172
-70 219 -58 55 -192 93 -397 113 -122 12 -619 11 -741 -1z m820 -238 c36 -6
86 -19 113 -27 l47 -16 0 -124 c0 -140 -3 -151 -90 -279 -153 -224 -376 -353
-567 -325 -200 28 -419 211 -539 450 -21 42 -24 61 -24 159 l0 112 36 15 c42
17 112 31 221 44 108 12 723 5 803 -9z M5170 3244 c-601 -40 -1000 -168 -1355
-435 -88 -66 -242 -214 -306 -294 -129 -162 -259 -422 -259 -518 0 -109 122
-177 208 -114 17 12 66 48 109 79 171 125 469 256 746 328 311 81 536 109 918
117 480 10 829 -32 1209 -143 273 -79 556 -217 710 -344 60 -49 82 -60 125
-60 77 0 135 59 135 137 0 78 -82 260 -191 423 -68 101 -235 281 -334 359
-313 249 -729 405 -1200 450 -122 12 -429 21 -515 15z m430 -284 c559 -48 988
-219 1279 -510 48 -47 67 -92 39 -86 -44 9 -82 21 -148 48 -458 187 -1057 276
-1650 248 -330 -16 -566 -50 -865 -127 -124 -31 -191 -54 -443 -149 -78 -30
-82 -30 -82 -1 0 40 156 178 310 274 261 162 608 268 995 302 141 12 429 13
565 1z"/>
</g>
</svg>
