<?xml version="1.0" standalone="no"?>
<!DOCTYPE svg PUBLIC "-//W3C//DTD SVG 20010904//EN"
 "http://www.w3.org/TR/2001/REC-SVG-20010904/DTD/svg10.dtd">
<svg version="1.0" xmlns="http://www.w3.org/2000/svg"
 width="2048.000000pt" height="2048.000000pt" viewBox="0 0 2048.000000 2048.000000"
 preserveAspectRatio="xMidYMid meet">
<metadata>
Created by potrace 1.13, written by Peter Selinger 2001-2015
</metadata>
<g transform="translate(0.000000,2048.000000) scale(0.192120,-0.192120)"
fill="#000000" stroke="none">
<path d="M5070 10324 c-169 -12 -337 -29 -476 -49 -1166 -172 -2240 -758
-3023 -1651 -562 -641 -949 -1408 -1127 -2234 -36 -168 -87 -483 -82 -507 2
-9 1729 -804 2456 -1130 9 -4 12 35 12 178 0 213 11 276 68 383 65 125 183
221 332 272 53 18 128 19 2100 19 1972 0 2047 -1 2100 -19 151 -51 266 -146
332 -272 57 -107 68 -170 68 -383 0 -143 3 -182 13 -178 6 3 534 244 1172 534
638 291 1188 541 1223 555 41 18 62 33 62 45 0 40 -54 361 -85 508 -196 916
-665 1779 -1336 2455 -387 390 -807 695 -1304 945 -610 307 -1242 479 -1930
525 -136 9 -464 11 -575 4z m790 -228 c579 -69 1084 -216 1575 -456 903 -443
1619 -1130 2118 -2032 42 -75 84 -154 95 -175 10 -21 44 -85 74 -143 118 -221
253 -618 317 -937 23 -111 27 -259 10 -328 -9 -36 -18 -47 -52 -64 -94 -47
-1896 -860 -1918 -866 -18 -4 -30 0 -44 15 -19 21 -45 83 -45 109 0 23 -71
183 -105 236 -106 168 -271 292 -455 342 -61 17 -181 18 -2100 18 -2283 0
-2080 7 -2245 -74 -199 -98 -353 -287 -425 -521 -13 -41 -34 -87 -48 -102
l-25 -27 -46 19 c-116 46 -1927 874 -1933 884 -16 23 -8 209 13 309 228 1129
888 2163 1824 2864 678 507 1469 822 2315 922 246 29 237 29 620 26 239 -2
387 -8 480 -19z M3930 7263 c-621 -59 -1226 -247 -1716 -534 -160 -93 -214
-166 -214 -289 1 -140 100 -254 240 -275 69 -10 120 7 254 84 481 277 1059
445 1611 466 94 4 179 13 206 21 107 34 185 146 183 264 0 36 -8 81 -16 101
-24 55 -87 119 -143 145 -46 22 -62 24 -210 22 -88 -1 -176 -3 -195 -5z
m-1213 -605 c-3 -8 -6 -5 -6 6 -1 11 2 17 5 13 3 -3 4 -12 1 -19z m-17 -4 c0
-8 -5 -12 -10 -9 -6 4 -8 11 -5 16 9 14 15 11 15 -7z m-30 -8 c0 -2 -7 -9 -15
-16 -12 -10 -15 -10 -15 4 0 9 7 16 15 16 8 0 15 -2 15 -4z m-43 -28 c-3 -8
-6 -5 -6 6 -1 11 2 17 5 13 3 -3 4 -12 1 -19z m-17 -4 c0 -8 -4 -12 -10 -9 -5
3 -10 1 -10 -5 0 -6 -4 -8 -10 -5 -5 3 -10 1 -10 -5 0 -6 -4 -8 -10 -5 -5 3
-10 2 -10 -3 0 -12 -180 -106 -188 -98 -15 16 20 44 108 87 52 26 97 45 100
44 3 -2 12 0 20 6 20 12 20 12 20 -7z m-263 -136 c-3 -8 -6 -5 -6 6 -1 11 2
17 5 13 3 -3 4 -12 1 -19z M6325 7247 c-56 -27 -119 -91 -143 -146 -8 -20 -16
-65 -16 -101 -2 -118 76 -230 183 -264 27 -8 112 -17 206 -21 548 -21 1122
-187 1609 -465 70 -40 145 -76 169 -82 81 -18 170 8 239 70 117 106 118 294 2
403 -108 101 -506 294 -849 412 -391 134 -763 203 -1140 213 -207 5 -211 5
-260 -19z m1522 -549 c-3 -8 -6 -5 -6 6 -1 11 2 17 5 13 3 -3 4 -12 1 -19z
m50 -20 c-3 -8 -6 -5 -6 6 -1 11 2 17 5 13 3 -3 4 -12 1 -19z m28 3 c3 -5 1
-12 -5 -16 -5 -3 -10 1 -10 9 0 18 6 21 15 7z m22 -23 c-3 -8 -6 -5 -6 6 -1
11 2 17 5 13 3 -3 4 -12 1 -19z m20 -10 c-3 -8 -6 -5 -6 6 -1 11 2 17 5 13 3
-3 4 -12 1 -19z m91 -17 c23 -12 48 -21 57 -21 8 0 15 -4 15 -10 0 -5 4 -9 8
-7 5 1 41 -16 81 -38 68 -37 91 -58 78 -71 -6 -7 -271 125 -275 137 -2 5 -8 7
-13 3 -5 -3 -9 0 -9 6 0 6 -4 8 -10 5 -5 -3 -10 1 -10 9 0 19 24 15 78 -13z
m259 -153 c-3 -8 -6 -5 -6 6 -1 11 2 17 5 13 3 -3 4 -12 1 -19z M353 5810 c0
-25 2 -35 4 -22 2 12 2 32 0 45 -2 12 -4 2 -4 -23z M10303 5815 c0 -22 2 -30
4 -17 2 12 2 30 0 40 -3 9 -5 -1 -4 -23z M337 5665 c-4 -55 -6 -140 -5 -190 1
-64 3 -40 10 85 9 193 6 262 -5 105z M10318 5580 c3 -102 6 -187 8 -189 7 -7
2 220 -6 299 -4 42 -5 -6 -2 -110z M330 5249 c1 -339 69 -828 166 -1199 106
-402 294 -865 489 -1201 428 -738 1048 -1370 1771 -1805 1330 -798 2959 -935
4404 -367 1029 403 1909 1156 2491 2130 70 117 239 449 239 468 0 5 -45 -75
-99 -180 -54 -104 -126 -237 -159 -295 l-62 -105 -108 -22 c-59 -12 -450 -84
-869 -160 l-763 -138 0 -220 c0 -289 -17 -361 -114 -493 -75 -101 -200 -181
-325 -208 -99 -21 -4023 -21 -4122 0 -125 27 -250 107 -325 208 -97 132 -114
204 -114 493 l0 221 -707 128 c-390 71 -781 142 -871 159 l-162 31 -89 155
c-107 189 -234 441 -226 449 5 5 1964 -346 2033 -364 l22 -6 0 633 -1 634
-947 430 c-521 236 -1077 489 -1237 563 -159 73 -296 136 -302 139 -10 4 -13
-15 -13 -78z m1263 -740 l997 -453 0 -432 0 -431 -52 9 c-723 128 -1598 292
-1616 304 -42 28 -90 119 -141 267 -130 380 -210 759 -218 1036 -5 157 -5 164
13 159 11 -3 468 -209 1017 -459z m517 -2239 c245 -44 462 -84 483 -90 l37
-11 0 -84 c0 -140 51 -351 108 -445 108 -178 217 -287 355 -355 167 -81 -1
-76 2272 -73 2265 4 2046 -4 2214 79 64 31 103 60 161 118 185 183 270 389
270 652 l0 105 48 12 c72 18 930 172 958 172 31 0 32 -29 2 -73 -149 -211
-471 -522 -784 -757 -962 -723 -2144 -1055 -3356 -944 -980 89 -1892 468
-2658 1103 -248 206 -610 590 -610 648 0 26 9 34 34 28 12 -3 221 -41 466 -85z
M10230 5287 c-47 -23 -606 -278 -1242 -567 l-1157 -525 -1 -634 0 -633 23 5
c20 5 1437 264 1845 337 96 17 180 29 187 26 9 -3 29 32 63 117 191 465 306
924 356 1417 19 187 32 500 20 499 -5 0 -47 -19 -94 -42z m-155 -382 c27 -213
-52 -665 -189 -1077 -86 -262 -129 -327 -228 -347 -71 -14 -1595 -291 -1602
-291 -3 0 -6 193 -6 429 l0 429 1003 456 c551 250 1005 456 1009 456 4 0 10
-25 13 -55z"/>
</g>
</svg>
