<?xml version="1.0" standalone="no"?>
<!DOCTYPE svg PUBLIC "-//W3C//DTD SVG 20010904//EN"
 "http://www.w3.org/TR/2001/REC-SVG-20010904/DTD/svg10.dtd">
<svg version="1.0" xmlns="http://www.w3.org/2000/svg"
 width="2048.000000pt" height="2048.000000pt" viewBox="0 0 2048.000000 2048.000000"
 preserveAspectRatio="xMidYMid meet">
<metadata>
Created by potrace 1.13, written by Peter Selinger 2001-2015
</metadata>
<g transform="translate(0.000000,2048.000000) scale(0.192120,-0.192120)"
fill="#000000" stroke="none">
<path d="M4945 10319 c-2150 -170 -3954 -1697 -4470 -3783 -93 -374 -134 -694
-142 -1102 -7 -361 16 -685 70 -964 l13 -65 7 130 c4 72 16 225 27 340 12 134
20 290 20 431 0 780 168 1495 509 2174 360 716 800 1242 1436 1719 1169 876
2642 1177 4075 833 669 -161 1323 -486 1875 -931 153 -123 505 -441 589 -531
337 -365 639 -835 846 -1320 274 -640 389 -1205 390 -1915 0 -168 7 -324 20
-475 11 -124 24 -277 28 -340 l7 -115 22 135 c53 321 67 538 60 900 -6 300
-20 458 -67 738 -252 1506 -1212 2834 -2575 3565 -614 329 -1280 522 -1994
577 -158 12 -587 11 -746 -1z M3841 8644 c-70 -26 -133 -96 -166 -184 -155
-416 -511 -704 -1035 -835 -170 -42 -444 -75 -635 -75 -158 0 -272 -105 -283
-263 -4 -61 -2 -73 28 -133 36 -73 95 -124 168 -145 56 -15 381 -6 541 16 541
74 969 263 1289 570 166 159 279 309 371 493 51 101 101 248 101 294 0 96 -68
206 -154 250 -54 28 -164 34 -225 12z m18 -516 c-72 -141 -260 -346 -396 -432
-41 -25 -43 -25 -43 -6 0 10 8 24 18 29 27 15 200 213 265 304 33 45 77 114
99 152 23 39 48 78 57 89 15 17 16 15 19 -37 2 -42 -2 -67 -19 -99z m-455
-463 c-4 -8 -8 -15 -10 -15 -2 0 -4 7 -4 15 0 8 4 15 10 15 5 0 7 -7 4 -15z
M6605 8636 c-66 -30 -121 -89 -145 -154 -39 -103 -22 -177 77 -334 98 -156
215 -297 366 -444 205 -200 380 -325 627 -448 277 -137 540 -212 860 -246 127
-13 327 -11 367 3 68 25 120 73 153 141 30 60 32 72 28 133 -8 112 -65 195
-163 239 -40 17 -77 23 -185 28 -478 22 -863 168 -1208 459 -151 127 -319 326
-404 478 -67 118 -143 168 -258 169 -47 0 -79 -7 -115 -24z m186 -330 c15 -13
58 -66 97 -118 92 -122 149 -187 294 -336 114 -117 155 -177 75 -111 -20 17
-37 27 -37 24 0 -11 -98 73 -203 175 -147 141 -288 336 -273 375 8 21 17 19
47 -9z M4865 7259 c-430 -32 -855 -100 -1230 -199 -937 -246 -1727 -672 -2319
-1250 -418 -409 -676 -809 -862 -1341 l-33 -96 33 -149 c61 -270 162 -588 256
-806 l39 -89 -66 -147 c-185 -413 -311 -802 -344 -1057 -22 -181 5 -400 73
-594 161 -456 548 -791 1038 -897 120 -26 419 -27 539 0 162 35 336 103 456
178 72 46 203 149 250 197 21 23 42 41 46 41 4 0 53 -27 108 -60 123 -73 299
-162 475 -239 1102 -487 2381 -552 3541 -181 438 141 917 377 1305 646 1031
712 1764 1796 2036 3009 l34 149 -36 101 c-194 544 -445 931 -870 1345 -812
790 -1992 1288 -3374 1426 -192 19 -901 28 -1095 13z m918 -164 c321 -23 610
-63 914 -126 51 -10 155 -23 231 -29 325 -26 417 -55 877 -287 193 -96 352
-179 355 -183 3 -4 38 -24 78 -44 109 -55 351 -202 487 -296 534 -370 953
-838 1186 -1325 32 -67 72 -162 89 -212 27 -82 30 -103 30 -214 0 -110 -4
-140 -36 -264 -300 -1171 -1063 -2210 -2104 -2865 -113 -71 -333 -183 -460
-235 -346 -141 -448 -179 -595 -225 -669 -209 -1284 -276 -1957 -214 -370 33
-701 102 -1083 224 -190 60 -241 80 -530 200 -243 102 -281 115 -384 125 l-69
7 53 83 c159 246 236 495 237 770 1 171 -34 350 -122 614 -194 592 -609 1410
-954 1881 -143 197 -244 290 -312 290 -126 0 -448 -448 -799 -1110 -48 -91
-90 -168 -94 -173 -4 -4 -14 48 -23 116 -10 77 -42 218 -83 371 l-67 248 4
177 c4 176 4 176 40 261 104 245 304 570 472 765 273 319 538 548 921 799 196
129 313 195 600 340 138 70 309 157 381 195 222 115 394 162 662 181 73 5 213
25 310 45 280 55 542 89 887 114 191 14 634 12 858 -4z m-3995 -2479 c139 -72
478 -599 773 -1201 190 -389 280 -609 381 -927 l42 -133 4 -341 3 -340 -26
-80 c-35 -104 -99 -231 -139 -272 -17 -19 -75 -56 -128 -83 -54 -28 -148 -86
-210 -130 -198 -140 -346 -208 -535 -246 -122 -24 -358 -24 -473 1 -420 88
-739 356 -881 741 l-33 90 -4 264 c-3 218 -1 276 13 340 24 111 130 426 192
575 145 343 162 399 173 561 3 55 13 121 22 147 32 96 277 526 409 718 94 136
201 262 253 298 54 36 116 43 164 18z M3406 6704 c-349 -84 -599 -533 -572
-1029 22 -424 232 -769 528 -872 96 -33 224 -34 318 -3 489 164 699 967 399
1528 -156 292 -417 438 -673 376z m209 -279 c140 -37 259 -161 315 -331 20
-60 21 -80 18 -361 l-3 -298 -28 -70 c-54 -136 -141 -241 -247 -296 -39 -20
-59 -24 -145 -24 -89 0 -106 3 -156 28 -82 40 -138 94 -192 185 -88 150 -90
159 -95 470 -3 258 -2 277 18 340 72 224 231 366 415 371 23 1 68 -6 100 -14z
M7016 6704 c-169 -41 -331 -180 -435 -376 -300 -561 -90 -1364 399 -1528 95
-32 222 -30 321 4 262 91 458 378 513 748 58 387 -59 782 -296 1004 -145 135
-330 190 -502 148z m257 -294 c110 -41 216 -166 267 -315 18 -53 20 -84 20
-346 l0 -288 -30 -81 c-59 -163 -170 -288 -287 -325 -81 -26 -192 -18 -266 19
-114 55 -210 184 -262 348 -24 75 -25 90 -25 326 0 271 6 308 61 420 63 128
172 226 287 259 62 17 163 10 235 -17z M5089 3785 c-171 -28 -287 -64 -435
-136 -348 -170 -639 -508 -804 -935 -53 -139 -58 -170 -31 -222 45 -88 122
-97 238 -28 178 106 415 167 803 208 167 17 784 17 945 0 392 -42 653 -112
808 -216 50 -33 71 -41 108 -41 85 0 150 78 134 162 -20 106 -141 368 -242
520 -239 363 -558 587 -962 674 -126 27 -435 35 -562 14z m421 -265 c390 -49
700 -240 921 -568 38 -57 49 -83 49 -113 0 -47 -3 -48 -125 -15 -307 84 -723
124 -1155 112 -364 -10 -608 -39 -855 -102 -194 -49 -185 -49 -185 -9 0 47 99
193 211 309 213 223 485 355 799 389 77 8 260 6 340 -3z"/>
</g>
</svg>
