<?xml version="1.0" standalone="no"?>
<!DOCTYPE svg PUBLIC "-//W3C//DTD SVG 20010904//EN"
 "http://www.w3.org/TR/2001/REC-SVG-20010904/DTD/svg10.dtd">
<svg version="1.0" xmlns="http://www.w3.org/2000/svg"
 width="2048.000000pt" height="2048.000000pt" viewBox="0 0 2048.000000 2048.000000"
 preserveAspectRatio="xMidYMid meet">
<metadata>
Created by potrace 1.13, written by Peter Selinger 2001-2015
</metadata>
<g transform="translate(0.000000,2048.000000) scale(0.192120,-0.192120)"
fill="#000000" stroke="none">
<path d="M5070 10324 c-169 -12 -337 -29 -476 -49 -1166 -172 -2240 -758
-3023 -1651 -1174 -1338 -1547 -3196 -981 -4884 376 -1123 1149 -2085 2166
-2696 1149 -690 2526 -889 3829 -554 653 168 1306 491 1830 906 1045 827 1707
1995 1875 3309 194 1518 -328 3053 -1411 4145 -387 390 -807 695 -1304 945
-610 307 -1242 479 -1930 525 -136 9 -464 11 -575 4z m790 -228 c579 -69 1084
-216 1575 -456 354 -173 588 -326 1040 -674 168 -130 351 -312 555 -551 316
-372 602 -847 721 -1198 17 -48 49 -129 73 -180 135 -290 237 -687 291 -1141
22 -183 16 -852 -9 -1041 -9 -66 -21 -177 -26 -248 -34 -426 -204 -968 -466
-1484 -293 -574 -747 -1132 -1250 -1534 -161 -128 -366 -273 -484 -342 -87
-50 -620 -307 -638 -307 -4 0 -53 -18 -107 -41 -355 -145 -802 -259 -1209
-309 -888 -109 -1763 24 -2613 396 -550 240 -914 488 -1351 918 -199 195 -320
333 -469 531 -514 685 -822 1441 -933 2290 -8 63 -10 260 -7 665 l4 575 31
172 c160 887 525 1662 1095 2327 118 138 389 409 506 506 101 83 356 273 466
347 627 418 1350 683 2105 772 246 29 237 29 620 26 239 -2 387 -8 480 -19z
M3710 8919 c-716 -108 -1381 -506 -1871 -1119 -95 -118 -110 -148 -117 -226
-16 -208 194 -360 383 -275 64 28 68 33 190 181 422 516 999 844 1585 900 135
13 172 23 223 60 51 38 85 84 102 144 31 105 9 194 -68 271 -90 89 -177 102
-427 64z m-583 -471 c-3 -8 -6 -5 -6 6 -1 11 2 17 5 13 3 -3 4 -12 1 -19z
m-17 -4 c0 -8 -5 -12 -10 -9 -6 4 -8 11 -5 16 9 14 15 11 15 -7z m-33 -16 c-3
-8 -6 -5 -6 6 -1 11 2 17 5 13 3 -3 4 -12 1 -19z m-20 -10 c-3 -8 -6 -5 -6 6
-1 11 2 17 5 13 3 -3 4 -12 1 -19z m-17 -4 c0 -8 -4 -12 -10 -9 -5 3 -10 1
-10 -4 0 -6 -24 -23 -52 -37 -29 -15 -55 -30 -58 -34 -3 -4 -61 -45 -130 -92
-69 -46 -140 -97 -159 -114 -228 -197 -254 -221 -420 -402 -114 -123 -156
-157 -185 -146 -34 13 -18 59 47 135 177 206 436 428 651 559 72 44 230 129
243 131 13 2 37 10 58 19 11 5 21 9 23 9 1 1 2 -6 2 -15z M6627 8926 c-20 -8
-53 -26 -72 -40 -134 -103 -152 -285 -39 -406 61 -65 114 -86 259 -99 591 -57
1164 -381 1590 -901 122 -148 126 -153 190 -181 189 -85 399 67 383 275 -6 74
-23 109 -96 201 -390 491 -854 829 -1407 1025 -290 103 -695 166 -808 126z
m910 -478 c-3 -8 -6 -5 -6 6 -1 11 2 17 5 13 3 -3 4 -12 1 -19z m164 -50 c304
-139 625 -383 860 -652 85 -97 105 -134 85 -161 -20 -27 -62 -2 -145 88 -251
272 -498 492 -676 602 -44 27 -82 53 -83 58 -2 4 -36 24 -75 44 -40 19 -74 39
-75 44 -2 5 -8 7 -13 3 -5 -3 -9 0 -9 6 0 6 -4 8 -10 5 -5 -3 -10 1 -10 9 0
19 25 11 151 -46z M3022 6982 c-147 -53 -224 -207 -177 -353 16 -49 41 -77
291 -329 l274 -275 -265 -265 c-285 -285 -306 -312 -313 -411 -8 -111 47 -208
149 -264 45 -24 66 -29 124 -29 121 -1 136 10 434 310 l263 267 267 -266 c162
-161 282 -273 307 -286 182 -90 394 44 394 249 0 112 -16 133 -313 429 l-265
264 268 266 c174 173 274 280 286 306 29 63 31 170 4 233 -25 58 -92 125 -148
150 -57 24 -167 21 -222 -7 -29 -15 -140 -117 -313 -289 l-267 -267 -273 272
c-177 177 -285 277 -309 287 -62 26 -136 29 -196 8z m378 -497 c246 -240 352
-306 447 -277 74 22 166 94 344 267 176 173 227 215 262 215 24 0 22 -41 -5
-76 -12 -16 -77 -86 -143 -155 -196 -203 -284 -338 -285 -433 0 -105 95 -248
318 -478 138 -142 163 -180 128 -194 -32 -12 -93 33 -255 190 -249 239 -352
302 -451 277 -76 -20 -205 -116 -376 -282 -165 -161 -190 -180 -236 -186 -24
-2 -28 1 -28 23 0 20 33 60 143 173 166 170 223 241 277 348 51 100 53 142 6
238 -47 98 -110 178 -267 340 -75 77 -143 154 -152 172 -16 30 -16 33 0 42 32
18 93 -28 273 -204z M6089 6987 c-81 -23 -153 -90 -184 -170 -22 -58 -17 -165
10 -222 12 -26 116 -135 287 -304 l269 -264 -279 -281 c-302 -305 -302 -305
-302 -416 0 -84 19 -129 80 -192 45 -46 66 -60 114 -73 69 -20 138 -14 200 16
25 13 145 125 308 287 l267 266 263 -267 c298 -302 312 -312 433 -311 55 0 81
6 121 27 135 69 191 235 125 370 -13 27 -115 136 -286 307 l-265 265 274 275
c250 252 275 280 291 329 74 227 -154 437 -375 345 -22 -9 -139 -118 -308
-287 l-272 -272 -268 267 c-284 284 -310 304 -410 313 -26 3 -68 -1 -93 -8z
m169 -321 c20 -13 117 -101 215 -196 246 -236 328 -287 425 -261 76 20 169 91
359 275 173 166 222 206 258 206 21 0 19 -29 -4 -65 -10 -16 -82 -96 -159
-178 -77 -81 -156 -169 -175 -195 -55 -75 -107 -185 -107 -229 0 -92 106 -249
311 -459 130 -134 171 -185 156 -200 -2 -3 -15 -7 -28 -9 -31 -6 -92 41 -269
211 -218 210 -316 272 -406 259 -84 -12 -212 -107 -440 -326 -79 -76 -156
-142 -169 -145 -25 -6 -55 9 -55 28 0 5 59 70 131 146 299 311 369 446 308
589 -35 83 -110 183 -234 313 -165 172 -215 237 -198 254 13 12 45 5 81 -18z
M5235 4494 c-292 -31 -545 -150 -762 -358 -204 -195 -338 -410 -432 -692 -155
-465 -125 -995 80 -1433 145 -309 401 -582 674 -719 276 -138 606 -164 896
-71 104 33 278 124 369 193 708 533 872 1675 353 2454 -213 321 -529 543 -861
606 -84 16 -253 26 -317 20z m276 -289 c393 -68 733 -374 877 -790 62 -177 62
-180 62 -575 0 -352 -1 -368 -24 -462 -53 -209 -169 -436 -303 -589 -176 -200
-392 -321 -643 -360 -102 -16 -304 -6 -402 20 -413 108 -729 453 -861 940 -19
68 -21 111 -24 421 l-4 345 30 117 c124 490 472 844 917 932 93 19 273 19 375
1z"/>
</g>
</svg>
