<?xml version="1.0" standalone="no"?>
<!DOCTYPE svg PUBLIC "-//W3C//DTD SVG 20010904//EN"
 "http://www.w3.org/TR/2001/REC-SVG-20010904/DTD/svg10.dtd">
<svg version="1.0" xmlns="http://www.w3.org/2000/svg"
 width="2048.000000pt" height="2048.000000pt" viewBox="0 0 2048.000000 2048.000000"
 preserveAspectRatio="xMidYMid meet">
<metadata>
Created by potrace 1.13, written by Peter Selinger 2001-2015
</metadata>
<g transform="translate(0.000000,2048.000000) scale(0.192120,-0.192120)"
fill="#000000" stroke="none">
<path d="M4925 10319 c-769 -43 -1455 -204 -2014 -470 l-129 -61 -194 51
c-1039 272 -1778 359 -1961 229 -63 -45 -105 -198 -128 -463 -23 -280 -12
-943 26 -1560 30 -464 72 -980 84 -1017 6 -19 0 -58 -25 -150 -97 -352 -178
-827 -218 -1283 -38 -418 -44 -953 -16 -1205 102 -900 506 -1697 1218 -2407
l152 -153 4 -152 c10 -357 136 -660 386 -922 445 -467 1195 -562 1728 -217
l63 41 92 -30 c135 -45 471 -126 637 -154 339 -58 658 -77 945 -57 995 73
2085 498 2960 1156 241 181 337 265 570 499 294 294 490 539 673 843 288 476
461 975 529 1523 22 175 24 764 5 1030 -43 583 -126 1101 -242 1517 -20 72
-20 72 0 290 114 1265 135 2294 54 2677 -45 214 -109 251 -429 250 -200 0
-353 -17 -654 -70 -316 -56 -727 -148 -1025 -230 l-129 -36 -100 48 c-614 288
-1257 438 -2077 484 -200 11 -580 11 -785 -1z m1065 -223 c614 -63 1024 -161
1545 -371 127 -50 254 -98 284 -105 84 -20 176 -8 471 64 603 148 1015 221
1305 233 229 9 259 1 316 -92 18 -29 19 -74 19 -1090 0 -971 -2 -1080 -20
-1295 -21 -251 -26 -509 -10 -575 68 -280 119 -541 170 -855 12 -74 33 -166
46 -204 13 -38 24 -73 24 -76 0 -4 -20 -1 -44 7 l-45 15 -1283 -428 c-1450
-483 -1348 -441 -1348 -548 0 -50 4 -61 33 -92 64 -71 -23 -94 1392 376 699
232 1279 428 1290 435 20 12 20 10 20 -244 0 -210 3 -269 18 -328 22 -92 21
-104 -5 -69 -23 30 -73 56 -110 56 -13 0 -657 -127 -1433 -282 -1398 -280
-1410 -282 -1444 -313 -28 -26 -34 -40 -38 -82 -7 -66 19 -112 77 -138 l40
-18 1412 282 c777 155 1426 287 1441 293 15 6 39 25 52 42 31 39 31 28 1 -92
-14 -53 -34 -171 -46 -262 -110 -837 -487 -1568 -1150 -2230 -779 -778 -1937
-1367 -2985 -1519 -236 -34 -379 -44 -645 -44 -347 -1 -597 24 -925 89 -98 20
-162 27 -262 27 l-132 1 61 65 c146 156 239 297 309 466 71 174 99 323 99 519
0 105 -2 126 -15 126 -8 0 -15 -7 -15 -15 0 -8 -6 -15 -13 -15 -9 0 -16 -39
-25 -142 -27 -330 -147 -618 -326 -786 -53 -49 -77 -65 -124 -77 -132 -35
-172 -50 -272 -95 -239 -109 -383 -143 -595 -143 -208 1 -365 37 -542 124
-267 131 -472 356 -567 619 -40 109 -76 306 -76 410 0 49 -4 91 -9 94 -5 3
-11 18 -14 33 -3 16 -13 48 -22 73 -14 37 -16 70 -12 190 5 136 8 156 56 330
58 208 54 197 150 490 88 273 209 615 296 840 114 293 145 388 145 441 0 87
-5 78 -111 -181 -264 -644 -529 -1461 -634 -1955 -10 -44 -20 -83 -24 -87 -3
-4 -22 23 -40 60 -43 84 -113 180 -220 302 -111 127 -275 344 -376 499 -311
478 -492 977 -565 1561 -7 52 -23 129 -36 169 -13 41 -27 91 -30 110 l-7 36
26 -31 c15 -17 39 -36 54 -42 16 -7 435 -93 933 -192 498 -99 920 -183 939
-186 76 -16 -7 53 -94 77 -22 6 -98 24 -170 40 -71 15 -148 33 -170 39 -22 5
-92 22 -155 35 -63 14 -124 27 -135 30 -11 3 -29 7 -40 9 -11 3 -63 16 -115
31 -52 14 -102 27 -110 28 -8 1 -31 8 -50 14 -19 7 -187 42 -373 79 -203 40
-345 73 -353 82 -23 22 -13 47 21 50 41 5 127 -9 510 -84 182 -35 422 -82 535
-104 113 -22 217 -38 231 -35 25 5 126 -10 344 -51 50 -9 136 -17 192 -18 55
0 99 -4 96 -8 -2 -5 6 -8 17 -8 28 0 71 46 101 107 24 51 40 183 21 183 -5 0
-9 -6 -9 -12 1 -7 -24 -65 -55 -128 l-55 -116 -984 198 c-541 108 -999 197
-1017 198 -41 0 -84 -21 -112 -57 l-22 -28 7 45 c4 25 11 52 15 60 28 56 37
393 14 540 -6 40 -5 43 9 31 19 -15 2169 -732 2176 -725 12 12 -79 76 -143
100 -39 15 -75 30 -81 34 -5 3 -32 15 -60 25 -108 39 -230 87 -240 95 -10 8
-484 171 -1123 386 -199 66 -364 127 -378 139 -40 34 -31 52 25 54 54 1 306
-78 1264 -398 262 -88 477 -156 477 -151 0 8 3 8 185 -40 85 -22 135 -30 172
-27 43 3 51 1 41 -10 -18 -22 -5 -23 38 -4 23 10 56 38 75 61 113 141 145 163
200 134 68 -34 142 -150 294 -459 193 -393 380 -847 581 -1407 73 -205 84
-229 120 -257 61 -48 61 -46 -53 273 -206 582 -420 1100 -609 1478 -181 363
-310 541 -378 524 -36 -9 -117 -102 -185 -213 -35 -57 -66 -103 -71 -103 -4 0
-486 160 -1071 355 -585 196 -1088 362 -1117 370 -46 12 -59 12 -94 1 -36 -13
-39 -13 -35 2 3 10 19 55 36 102 18 53 43 168 66 305 37 227 88 477 131 647
31 124 32 317 4 655 -48 578 -50 635 -50 1493 l0 826 23 44 c16 34 31 48 57
56 19 6 36 19 38 28 5 25 43 29 221 23 306 -11 763 -93 1406 -253 114 -29 213
-47 270 -51 106 -6 137 3 414 117 217 89 363 139 550 190 337 91 683 151 1046
180 72 6 150 12 175 14 125 10 934 -3 1080 -18z m4018 -4509 c-2 -12 -18 -31
-36 -43 -18 -13 -320 -118 -670 -235 -350 -117 -653 -219 -672 -228 -19 -8
-38 -16 -42 -17 -5 -1 -10 -3 -13 -4 -3 -1 -9 -4 -15 -5 -5 -1 -12 -4 -15 -5
-3 -1 -9 -4 -15 -5 -5 -1 -12 -4 -15 -5 -3 -1 -9 -4 -15 -5 -5 -1 -11 -3 -12
-5 -2 -1 -12 -3 -23 -5 -51 -10 -105 -28 -105 -37 0 -5 -3 -7 -7 -5 -5 3 -19
0 -33 -6 -14 -5 -34 -12 -44 -14 -11 -2 -25 -8 -33 -14 -7 -6 -13 -9 -13 -6 0
5 -88 -22 -130 -40 -8 -3 -22 -7 -31 -9 -9 -2 -29 -9 -45 -15 -16 -7 -36 -13
-45 -15 -9 -2 -29 -9 -45 -15 -16 -7 -32 -13 -36 -14 -5 -2 -10 -4 -13 -5 -3
-1 -9 -4 -15 -5 -5 -1 -12 -4 -15 -5 -3 -1 -9 -4 -15 -5 -5 -1 -12 -4 -15 -5
-3 -1 -9 -4 -15 -5 -5 -1 -12 -4 -15 -5 -3 -1 -9 -4 -15 -5 -5 -1 -11 -3 -12
-4 -2 -2 -13 -4 -24 -6 -12 -3 -34 -10 -50 -16 -16 -7 -32 -12 -35 -11 -4 1
-21 -3 -38 -8 -44 -12 -91 5 -91 34 0 15 12 29 38 43 33 18 1813 614 2172 727
221 70 274 76 268 33z m9 -817 c2 -8 -1 -22 -6 -30 -7 -10 -164 -46 -493 -113
-266 -54 -493 -100 -505 -103 -13 -2 -34 -7 -48 -9 -14 -3 -36 -8 -50 -10 -14
-3 -36 -8 -50 -10 -14 -3 -36 -8 -50 -10 -14 -3 -35 -8 -47 -10 -13 -3 -36 -7
-53 -10 -16 -4 -39 -8 -50 -10 -84 -19 -516 -106 -540 -110 -16 -2 -48 -9 -71
-14 -23 -6 -59 -13 -80 -16 -57 -9 -107 -19 -170 -34 -23 -6 -56 -13 -75 -16
-19 -2 -74 -13 -124 -24 -91 -19 -133 -26 -215 -37 -25 -3 -50 -7 -57 -9 -21
-7 -73 16 -73 32 0 8 7 21 15 29 16 16 1333 282 2590 523 74 14 149 9 152 -9z
M3515 8099 c-353 -43 -756 -180 -1072 -364 -326 -192 -638 -461 -871 -755
-115 -143 -127 -168 -127 -260 0 -114 49 -195 150 -248 41 -22 64 -27 125 -27
113 0 155 27 278 179 435 539 1030 877 1633 926 126 10 186 35 242 101 117
136 74 344 -86 425 -59 30 -149 38 -272 23z m-891 -593 c-3 -9 -10 -13 -15
-10 -5 3 -9 0 -9 -6 0 -6 -4 -8 -10 -5 -5 3 -10 2 -10 -4 0 -5 -17 -20 -37
-32 -21 -13 -40 -26 -43 -29 -3 -3 -51 -41 -108 -84 -151 -113 -258 -215 -519
-489 -69 -73 -98 -97 -117 -97 -21 0 -26 5 -26 23 0 37 51 99 204 253 225 225
396 352 639 475 29 15 53 26 55 24 1 -1 0 -10 -4 -19z M6935 8101 c-202 -50
-282 -294 -148 -450 56 -66 115 -91 246 -101 420 -35 856 -218 1227 -517 122
-98 290 -269 402 -408 121 -152 164 -180 278 -180 116 1 197 50 251 155 32 62
33 177 2 235 -62 117 -395 478 -573 622 -440 354 -942 573 -1460 638 -133 16
-177 17 -225 6z m1099 -577 c9 -3 16 -14 15 -23 0 -10 -2 -11 -6 -3 -2 6 -8
10 -13 7 -4 -3 -10 2 -14 10 -6 17 -4 18 18 9z m80 -36 c249 -133 495 -328
693 -548 102 -113 126 -150 117 -174 -17 -44 -66 -9 -226 164 -157 171 -277
284 -394 375 -54 42 -108 84 -119 93 -11 9 -23 16 -27 14 -5 -1 -8 2 -8 8 0 5
-20 21 -45 36 -25 14 -45 32 -45 40 0 19 5 18 54 -8z M3513 7235 c-174 -87
-309 -308 -373 -610 -30 -144 -38 -393 -16 -548 49 -350 197 -617 392 -709 60
-29 79 -33 149 -33 62 0 91 5 129 23 362 166 533 865 350 1427 -70 214 -192
382 -329 453 -40 20 -68 26 -140 30 -87 4 -92 3 -162 -33z m235 -276 c56 -28
111 -97 153 -196 l34 -78 3 -350 c2 -228 -1 -366 -8 -395 -34 -142 -118 -279
-197 -319 -35 -18 -124 -14 -158 7 -82 51 -158 179 -196 329 -19 76 -20 105
-16 380 4 324 5 330 73 468 73 150 195 210 312 154z M6900 7261 c-203 -66
-362 -311 -432 -664 -29 -148 -31 -422 -4 -572 60 -333 208 -578 402 -667 75
-34 189 -32 268 5 167 78 295 264 366 532 98 372 49 826 -121 1111 -52 87
-149 186 -221 224 -55 30 -74 34 -148 37 -47 1 -96 -1 -110 -6z m179 -300 c73
-38 134 -127 176 -257 l26 -81 -3 -334 c-3 -292 -5 -340 -21 -384 -49 -135
-113 -236 -172 -270 -44 -26 -113 -33 -158 -16 -76 29 -160 153 -202 296 -24
85 -25 96 -25 387 0 241 3 312 16 361 37 142 115 260 199 298 52 24 116 24
164 0z M4950 4899 c-185 -19 -322 -59 -378 -112 -52 -48 -66 -93 -70 -223 -5
-139 7 -192 65 -308 60 -119 132 -216 237 -322 157 -158 297 -238 462 -265
184 -30 404 71 601 274 102 105 179 215 234 331 54 116 62 158 57 294 -5 125
-20 172 -70 219 -58 55 -192 93 -397 113 -122 12 -619 11 -741 -1z m820 -238
c36 -6 86 -19 113 -27 l47 -16 0 -124 c0 -140 -3 -151 -90 -279 -117 -171
-288 -297 -445 -326 -224 -41 -513 156 -661 451 -21 42 -24 61 -24 159 l0 112
36 15 c42 17 112 31 221 44 108 12 723 5 803 -9z M5185 3240 c-278 -32 -557
-135 -833 -311 -62 -39 -111 -76 -109 -83 54 -141 179 -607 211 -789 5 -26 11
-37 20 -34 36 14 258 59 378 77 261 39 647 43 891 10 493 -68 1010 -243 1403
-476 100 -59 135 -66 194 -36 64 32 94 103 71 165 -5 13 -50 82 -100 153 -525
749 -1137 1211 -1734 1309 -118 19 -294 26 -392 15z m423 -300 c358 -76 695
-272 1041 -606 245 -235 266 -297 76 -223 -44 17 -161 57 -261 89 -572 183
-1091 230 -1653 148 l-154 -22 -23 29 c-41 52 -114 315 -101 367 5 18 30 36
110 75 171 85 353 142 523 163 105 13 335 3 442 -20z"/>
</g>
</svg>
