<?xml version="1.0" standalone="no"?>
<!DOCTYPE svg PUBLIC "-//W3C//DTD SVG 20010904//EN"
 "http://www.w3.org/TR/2001/REC-SVG-20010904/DTD/svg10.dtd">
<svg version="1.0" xmlns="http://www.w3.org/2000/svg"
 width="2048.000000pt" height="2048.000000pt" viewBox="0 0 2048.000000 2048.000000"
 preserveAspectRatio="xMidYMid meet">
<metadata>
Created by potrace 1.13, written by Peter Selinger 2001-2015
</metadata>
<g transform="translate(0.000000,2048.000000) scale(0.192120,-0.192120)"
fill="#000000" stroke="none">
<path d="M4925 10319 c-769 -43 -1455 -204 -2014 -470 l-129 -61 -194 51
c-1039 272 -1778 359 -1961 229 -63 -45 -105 -198 -128 -463 -23 -280 -12
-943 26 -1560 30 -464 72 -980 84 -1017 6 -19 0 -58 -25 -150 -97 -352 -178
-827 -218 -1283 -38 -418 -44 -953 -16 -1205 90 -789 411 -1498 974 -2150 932
-1079 2529 -1860 3901 -1907 1027 -35 2322 419 3310 1162 241 181 337 265 570
499 294 294 490 539 673 843 288 476 461 975 529 1523 22 175 24 764 5 1030
-43 583 -126 1101 -242 1517 -20 72 -20 72 0 290 114 1265 135 2294 54 2677
-45 214 -109 251 -429 250 -200 0 -353 -17 -654 -70 -316 -56 -727 -148 -1025
-230 l-129 -36 -100 48 c-614 288 -1257 438 -2077 484 -200 11 -580 11 -785
-1z m1065 -223 c614 -63 1024 -161 1545 -371 127 -50 254 -98 284 -105 84 -20
176 -8 471 64 619 151 1021 222 1320 233 196 7 232 0 274 -53 75 -95 78 -138
73 -1099 -4 -795 -4 -829 -31 -1130 -36 -408 -44 -691 -23 -783 71 -296 115
-519 167 -842 12 -74 33 -166 46 -204 13 -38 24 -73 24 -76 0 -4 -20 -1 -44 7
l-45 15 -1283 -428 c-1450 -483 -1348 -441 -1348 -548 0 -50 4 -61 33 -92 64
-71 -23 -94 1392 376 699 232 1279 428 1290 435 20 12 20 10 20 -244 0 -210 3
-269 18 -328 22 -92 21 -104 -5 -69 -23 30 -73 56 -110 56 -13 0 -657 -127
-1433 -282 -1398 -280 -1410 -282 -1444 -313 -28 -26 -34 -40 -38 -82 -7 -66
19 -112 77 -138 l40 -18 1412 282 c777 155 1426 287 1441 293 15 6 39 25 52
42 31 39 31 28 1 -92 -14 -53 -34 -171 -46 -262 -23 -174 -76 -435 -110 -538
-11 -33 -47 -125 -81 -204 -33 -79 -79 -188 -100 -243 -110 -276 -186 -416
-367 -669 -238 -331 -353 -450 -784 -814 -652 -550 -1489 -977 -2319 -1181
-667 -165 -1191 -179 -1829 -51 -901 182 -1803 616 -2525 1215 -332 276 -508
457 -724 743 -144 192 -255 369 -362 576 -211 411 -321 770 -379 1236 -7 52
-23 129 -36 169 -13 41 -27 91 -30 110 l-7 36 26 -31 c15 -17 39 -36 54 -42
16 -6 664 -138 1441 -293 l1412 -282 40 18 c58 26 84 72 77 138 -4 42 -10 56
-38 82 -34 31 -46 33 -1444 313 -776 155 -1423 282 -1438 282 -37 0 -80 -23
-107 -57 l-22 -28 7 45 c4 25 11 52 15 60 28 56 38 394 15 538 l-7 44 23 -15
c13 -8 595 -205 1293 -437 1416 -472 1328 -448 1393 -376 28 30 33 43 33 83 0
56 -26 106 -67 126 -30 15 -2512 842 -2553 850 -14 3 -42 0 -63 -8 -35 -12
-38 -12 -34 3 3 10 19 55 36 102 18 53 43 168 66 305 37 227 88 477 131 647
31 124 32 317 4 655 -48 578 -50 634 -50 1493 0 793 1 827 20 867 10 24 30 48
44 54 13 6 26 20 29 29 7 27 75 34 256 27 299 -12 764 -96 1396 -253 114 -29
213 -47 270 -51 106 -6 137 3 414 117 217 89 363 139 550 190 337 91 683 151
1046 180 72 6 150 12 175 14 125 10 934 -3 1080 -18z m4018 -4509 c-2 -12 -18
-31 -36 -43 -18 -13 -320 -118 -670 -235 -350 -117 -653 -219 -672 -228 -19
-8 -38 -16 -42 -17 -5 -1 -10 -3 -13 -4 -3 -1 -9 -4 -15 -5 -5 -1 -12 -4 -15
-5 -3 -1 -9 -4 -15 -5 -5 -1 -12 -4 -15 -5 -3 -1 -9 -4 -15 -5 -5 -1 -11 -3
-12 -5 -2 -1 -12 -3 -23 -5 -51 -10 -105 -28 -105 -37 0 -5 -3 -7 -7 -5 -5 3
-19 0 -33 -6 -14 -5 -34 -12 -44 -14 -11 -2 -25 -8 -33 -14 -7 -6 -13 -9 -13
-6 0 5 -88 -22 -130 -40 -8 -3 -22 -7 -31 -9 -9 -2 -29 -9 -45 -15 -16 -7 -36
-13 -45 -15 -9 -2 -29 -9 -45 -15 -16 -7 -32 -13 -36 -14 -5 -2 -10 -4 -13 -5
-3 -1 -9 -4 -15 -5 -5 -1 -12 -4 -15 -5 -3 -1 -9 -4 -15 -5 -5 -1 -12 -4 -15
-5 -3 -1 -9 -4 -15 -5 -5 -1 -12 -4 -15 -5 -3 -1 -9 -4 -15 -5 -5 -1 -11 -3
-12 -4 -2 -2 -13 -4 -24 -6 -12 -3 -34 -10 -50 -16 -16 -7 -32 -12 -35 -11 -4
1 -21 -3 -38 -8 -44 -12 -91 5 -91 34 0 15 12 29 38 43 33 18 1813 614 2172
727 221 70 274 76 268 33z m-9081 -37 c569 -184 2151 -715 2170 -729 30 -21
30 -57 1 -67 -34 -11 -61 -6 -188 33 -63 19 -122 37 -130 38 -8 2 -16 4 -17 5
-2 2 -6 3 -10 5 -5 1 -15 5 -23 8 -8 4 -154 54 -325 111 -1164 391 -1723 584
-1742 601 -39 33 -30 52 26 54 37 1 99 -15 238 -59z m-91 -779 c129 -22 383
-72 1544 -303 991 -196 988 -196 1001 -219 12 -22 2 -49 -20 -51 -29 -2 -113
6 -161 17 -14 3 -36 7 -50 10 -14 3 -36 7 -50 10 -14 3 -36 7 -50 10 -14 3
-36 7 -50 10 -14 3 -36 7 -50 10 -14 3 -36 7 -50 10 -14 3 -36 7 -50 10 -14 3
-36 7 -50 10 -14 3 -36 7 -50 10 -14 3 -36 7 -50 10 -14 3 -36 7 -50 10 -14 3
-36 7 -50 10 -14 3 -36 7 -50 10 -14 3 -36 7 -50 10 -14 3 -36 7 -50 10 -14 3
-36 7 -50 10 -14 3 -36 7 -50 10 -14 3 -36 7 -50 10 -14 3 -36 7 -50 10 -14 3
-36 7 -50 10 -14 3 -36 7 -50 10 -14 3 -36 7 -50 10 -14 3 -36 7 -50 10 -14 3
-36 7 -50 10 -14 3 -36 7 -50 10 -14 3 -36 7 -50 10 -14 3 -36 7 -50 10 -14 3
-36 7 -50 10 -14 3 -36 7 -50 10 -14 3 -36 7 -50 10 -14 3 -36 7 -50 10 -14 3
-34 7 -45 9 -11 3 -222 46 -470 95 -247 50 -457 93 -467 96 -19 7 -33 39 -23
55 9 15 67 12 191 -9z m9181 -1 c2 -8 -1 -22 -6 -30 -7 -10 -164 -46 -493
-113 -266 -54 -493 -100 -505 -103 -13 -2 -34 -7 -48 -9 -14 -3 -36 -8 -50
-10 -14 -3 -36 -8 -50 -10 -14 -3 -36 -8 -50 -10 -14 -3 -35 -8 -47 -10 -13
-3 -36 -7 -53 -10 -16 -4 -39 -8 -50 -10 -84 -19 -516 -106 -540 -110 -16 -2
-48 -9 -71 -14 -23 -6 -59 -13 -80 -16 -57 -9 -107 -19 -170 -34 -23 -6 -56
-13 -75 -16 -19 -2 -74 -13 -124 -24 -91 -19 -133 -26 -215 -37 -25 -3 -50 -7
-57 -9 -21 -7 -73 16 -73 32 0 8 7 21 15 29 16 16 1333 282 2590 523 74 14
149 9 152 -9z M2177 8646 c-109 -39 -178 -143 -176 -265 2 -160 112 -262 299
-275 299 -22 659 -130 1000 -301 343 -171 632 -376 930 -660 133 -126 159
-140 270 -140 75 0 91 3 131 27 92 54 140 138 140 244 0 103 -29 152 -169 283
-480 450 -975 755 -1531 945 -349 120 -769 186 -894 142z m1320 -638 c-3 -8
-6 -5 -6 6 -1 11 2 17 5 13 3 -3 4 -12 1 -19z m33 3 c0 -5 9 -13 20 -16 11 -3
20 -14 19 -23 0 -11 -2 -12 -6 -4 -2 6 -9 10 -14 6 -5 -3 -9 0 -9 5 0 6 -5 10
-12 9 -6 -2 -14 5 -16 15 -2 9 1 17 7 17 6 0 11 -4 11 -9z m114 -58 c168 -89
380 -229 541 -358 152 -122 285 -247 285 -269 0 -19 -28 -21 -62 -3 -26 13
-107 73 -123 92 -5 6 -46 42 -90 80 -44 38 -82 72 -85 75 -17 22 -343 265
-408 305 -10 6 -19 13 -22 16 -3 3 -26 18 -52 33 -27 15 -48 34 -48 42 0 19 5
18 64 -13z M8130 8639 c-469 -72 -966 -270 -1425 -567 -309 -200 -736 -565
-790 -676 -64 -131 -15 -288 114 -364 40 -24 56 -27 131 -27 110 0 139 14 260
130 579 555 1264 901 1920 969 145 15 186 31 247 93 111 115 94 311 -35 410
-23 18 -59 37 -80 43 -55 15 -201 11 -342 -11z m-923 -611 c-3 -8 -6 -5 -6 6
-1 11 2 17 5 13 3 -3 4 -12 1 -19z m-20 -10 c-3 -8 -6 -5 -6 6 -1 11 2 17 5
13 3 -3 4 -12 1 -19z m-20 -10 c-3 -8 -6 -5 -6 6 -1 11 2 17 5 13 3 -3 4 -12
1 -19z m-17 -1 c0 -15 -74 -60 -84 -50 -3 3 -6 2 -6 -4 0 -6 -20 -23 -45 -37
-25 -15 -45 -31 -45 -36 0 -6 -9 -10 -19 -10 -10 0 -21 -7 -25 -15 -3 -8 -12
-15 -21 -15 -8 0 -15 -4 -15 -8 0 -4 -13 -16 -30 -25 -45 -27 -230 -166 -295
-222 -32 -27 -95 -82 -139 -121 -45 -39 -93 -81 -109 -95 -39 -34 -110 -69
-120 -59 -18 17 7 52 91 129 225 206 493 393 776 540 90 47 86 45 86 28z
M3512 7235 c-173 -87 -308 -308 -372 -610 -30 -144 -38 -393 -16 -548 49 -350
197 -617 392 -709 60 -29 79 -33 149 -33 62 0 91 5 129 23 362 166 533 864
350 1427 -55 169 -157 330 -259 407 -71 54 -141 78 -229 78 -64 0 -82 -5 -144
-35z m236 -276 c56 -28 111 -97 153 -196 l34 -78 3 -350 c2 -228 -1 -366 -8
-395 -34 -142 -118 -279 -197 -319 -35 -18 -124 -14 -158 7 -82 51 -158 179
-196 329 -19 76 -20 105 -16 380 3 275 5 303 25 357 39 106 76 170 125 218 71
70 153 86 235 47z M6875 7250 c-188 -73 -340 -318 -407 -653 -29 -148 -31
-422 -4 -572 60 -333 208 -578 402 -667 75 -34 189 -32 268 5 105 49 190 135
263 267 181 326 204 852 53 1227 -75 186 -179 316 -302 378 -63 31 -79 35
-147 34 -50 0 -93 -7 -126 -19z m200 -289 c74 -33 137 -124 180 -257 l26 -81
-3 -334 c-3 -292 -5 -340 -21 -384 -49 -135 -113 -236 -172 -270 -44 -26 -113
-33 -158 -16 -76 29 -160 153 -202 296 -24 85 -25 96 -25 387 0 333 4 367 65
493 74 154 195 219 310 166z M4950 4899 c-185 -19 -322 -59 -378 -112 -52 -48
-66 -93 -70 -223 -5 -139 7 -192 65 -308 60 -119 132 -216 237 -322 157 -158
297 -238 462 -265 184 -30 404 71 601 274 102 105 179 215 234 331 54 116 62
158 57 294 -5 125 -20 172 -70 219 -58 55 -192 93 -397 113 -122 12 -619 11
-741 -1z m820 -238 c36 -6 86 -19 113 -27 l47 -16 0 -124 c0 -140 -3 -151 -90
-279 -153 -224 -376 -353 -567 -325 -200 28 -419 211 -539 450 -21 42 -24 61
-24 159 l0 112 36 15 c42 17 112 31 221 44 108 12 723 5 803 -9z M6653 2951
c-329 -164 -631 -310 -672 -325 -308 -111 -816 -180 -1521 -206 -316 -12 -330
-15 -362 -80 -23 -46 -23 -97 2 -137 41 -68 -32 -64 1138 -63 1144 0 1138 0
1307 55 344 113 638 385 813 753 60 127 67 192 26 241 -29 35 -78 61 -113 61
-11 0 -289 -134 -618 -299z m287 -180 c0 -45 -153 -181 -281 -250 -144 -78
-344 -126 -402 -98 -18 8 -18 9 0 29 21 23 639 337 666 337 10 1 17 -6 17 -18z"/>
</g>
</svg>
