<?xml version="1.0" standalone="no"?>
<!DOCTYPE svg PUBLIC "-//W3C//DTD SVG 20010904//EN"
 "http://www.w3.org/TR/2001/REC-SVG-20010904/DTD/svg10.dtd">
<svg version="1.0" xmlns="http://www.w3.org/2000/svg"
 width="2048.000000pt" height="2048.000000pt" viewBox="0 0 2048.000000 2048.000000"
 preserveAspectRatio="xMidYMid meet">
<metadata>
Created by potrace 1.13, written by Peter Selinger 2001-2015
</metadata>
<g transform="translate(0.000000,2048.000000) scale(0.192120,-0.192120)"
fill="#000000" stroke="none">
<path d="M4945 10319 c-1483 -118 -2828 -880 -3695 -2095 -492 -690 -799
-1501 -895 -2365 -30 -270 -32 -980 -2 -882 5 17 23 47 39 65 27 31 29 31 23
8 -4 -15 6 -4 23 25 97 164 297 251 577 250 198 -1 331 -43 511 -160 101 -65
260 -216 349 -330 428 -548 714 -1434 822 -2545 18 -191 25 -884 10 -1096 l-7
-112 106 -62 c651 -380 1318 -594 2094 -672 190 -19 707 -16 915 6 727 75
1412 299 2038 665 l109 64 -6 46 c-13 111 -18 773 -7 951 63 993 297 1887 654
2492 235 398 524 650 842 734 96 25 299 25 415 1 128 -26 234 -82 309 -162 33
-36 61 -70 61 -75 0 -6 6 -10 14 -10 17 0 49 -43 63 -85 30 -88 29 612 -1 880
-97 869 -402 1675 -899 2372 -816 1146 -2071 1895 -3462 2068 -285 35 -724 45
-1000 24z m813 -165 c31 -5 42 -11 42 -24 0 -14 12 -19 73 -24 406 -39 921
-169 1315 -333 465 -193 897 -452 1256 -752 43 -36 83 -65 87 -64 16 5 332
-312 457 -457 457 -533 773 -1094 966 -1712 25 -79 63 -197 85 -263 87 -261
123 -512 128 -883 l4 -283 -20 11 c-17 8 -21 8 -21 -4 0 -11 -16 -8 -67 16
-92 43 -193 45 -269 6 l-50 -26 -101 122 c-304 366 -626 644 -1075 927 -79 50
-147 94 -151 98 -5 5 5 36 22 69 28 55 31 71 31 150 0 76 -26 241 -46 292 -3
8 -17 52 -30 97 -50 172 -184 453 -292 613 -184 272 -421 488 -667 609 -213
105 -350 137 -550 128 -250 -12 -456 -103 -649 -286 -136 -131 -261 -329 -325
-517 -44 -129 -44 -235 -1 -336 17 -39 29 -72 28 -74 -2 -1 -73 1 -158 6 -85
5 -288 9 -450 9 -162 0 -365 -4 -450 -9 -85 -5 -156 -8 -157 -6 -1 1 11 36 27
77 55 139 35 258 -84 504 -120 247 -316 447 -539 550 -218 101 -490 111 -736
29 -328 -110 -656 -385 -869 -730 -195 -315 -328 -676 -339 -920 l-5 -112 36
-68 c20 -37 33 -71 28 -75 -4 -4 -65 -44 -137 -89 -462 -291 -804 -588 -1111
-964 l-76 -95 -67 36 c-58 31 -72 34 -114 28 -27 -3 -71 -15 -98 -26 -28 -10
-55 -16 -61 -13 -5 4 -21 1 -34 -7 -13 -7 -27 -9 -31 -5 -5 4 -8 137 -8 294 0
310 5 352 75 682 164 771 530 1503 1064 2130 100 117 452 471 466 467 5 -1 41
25 82 59 369 307 795 564 1251 756 401 168 897 296 1335 343 51 6 62 10 62 25
0 16 12 19 98 25 53 3 106 8 117 10 29 5 653 -4 703 -11z m-1885 -1849 c174
-30 320 -103 452 -227 526 -493 534 -1576 17 -2342 -276 -410 -646 -656 -1025
-682 -239 -16 -480 78 -662 261 -270 269 -402 690 -375 1190 41 730 448 1424
995 1695 215 107 401 139 598 105z m3292 -20 c128 -32 310 -122 428 -211 399
-301 689 -826 772 -1399 21 -147 21 -436 0 -579 -51 -341 -190 -632 -388 -814
-171 -156 -413 -243 -634 -228 -567 39 -1105 576 -1318 1315 -184 639 -84
1284 258 1656 231 253 546 345 882 260z m-1622 -1182 c140 -5 157 -8 157 -23
0 -10 8 -20 19 -23 16 -4 19 -19 23 -143 18 -471 192 -983 459 -1345 105 -142
322 -343 504 -466 72 -49 187 -107 274 -140 36 -13 69 -30 75 -38 26 -34 274
-71 401 -60 270 22 507 141 718 360 165 172 296 454 363 784 24 112 31 135 52
149 21 14 26 14 58 -1 19 -9 34 -23 34 -30 0 -7 14 -21 30 -31 155 -91 640
-511 640 -553 0 -19 -47 -51 -140 -98 -267 -133 -435 -294 -669 -642 -309
-461 -534 -1081 -670 -1848 -78 -437 -101 -719 -101 -1247 0 -267 -4 -419 -10
-423 -5 -3 -10 -21 -10 -40 0 -20 -8 -42 -18 -52 -11 -10 -21 -25 -25 -35 -6
-18 -270 -155 -407 -211 -194 -80 -647 -221 -870 -270 -415 -92 -736 -130
-1100 -130 -320 0 -509 19 -915 92 -253 45 -543 125 -896 247 -161 55 -499
218 -506 244 -3 9 -22 27 -44 39 -35 20 -39 26 -39 60 0 22 -6 44 -15 51 -13
11 -15 72 -15 434 0 630 -46 1052 -176 1616 -138 598 -379 1185 -620 1510 -27
36 -64 88 -84 117 -53 79 -183 217 -280 298 -98 81 -199 146 -315 202 -92 44
-115 61 -115 84 0 53 389 393 622 544 43 28 78 55 78 61 0 15 32 27 39 16 3
-5 13 -11 21 -14 10 -4 22 -38 34 -99 72 -365 189 -622 376 -823 50 -54 160
-146 234 -194 195 -130 441 -190 671 -162 113 13 265 54 281 75 6 8 35 23 65
35 318 125 672 458 862 812 188 351 297 740 314 1123 4 94 10 132 19 138 8 4
14 17 14 27 0 18 9 20 118 23 259 7 334 7 485 0z M5155 5319 c-641 -86 -1140
-598 -1205 -1236 -8 -74 -10 -407 -8 -1048 4 -926 5 -941 26 -1037 62 -275
176 -488 365 -684 162 -169 352 -288 572 -359 150 -48 262 -65 425 -65 385 0
706 134 980 409 202 203 317 413 382 699 21 96 22 111 26 1042 3 1004 1 1063
-44 1243 -127 508 -544 908 -1062 1017 -113 24 -350 34 -457 19z m427 -290
c403 -80 741 -369 847 -725 21 -71 21 -80 21 -1192 l0 -1121 -26 -83 c-160
-509 -687 -829 -1250 -758 -314 39 -608 205 -784 441 -75 101 -143 235 -174
343 l-26 88 0 1087 c0 1060 0 1088 20 1159 88 316 358 594 695 715 212 76 448
92 677 46z M510 5034 c-36 -8 -75 -16 -86 -17 -60 -5 -98 -303 -75 -577 17
-197 52 -431 132 -867 161 -891 207 -1237 229 -1744 21 -475 -24 -985 -121
-1369 -16 -63 -29 -118 -29 -123 0 -4 404 -6 897 -5 l898 3 17 125 c119 869
67 1806 -147 2660 -182 725 -447 1267 -784 1600 -157 156 -308 250 -486 302
-95 28 -349 35 -445 12z m400 -265 c244 -62 472 -257 667 -573 132 -214 262
-512 357 -821 88 -287 144 -533 213 -945 l27 -165 3 -786 4 -786 -26 -59 c-14
-32 -31 -62 -38 -66 -7 -4 -290 -8 -629 -8 -600 0 -618 1 -628 19 -16 30 -12
119 15 335 24 188 25 227 25 691 0 701 -26 938 -220 2000 -100 545 -100 548
-100 884 l0 300 43 4 c72 7 208 -5 287 -24z M9756 5034 c-368 -82 -697 -395
-960 -914 -94 -185 -160 -343 -231 -550 -316 -931 -418 -2076 -277 -3110 l17
-125 899 -3 898 -2 -5 22 c-117 498 -149 769 -149 1253 0 502 46 941 172 1640
188 1045 194 1089 193 1385 0 197 -2 222 -24 295 l-24 80 -65 18 c-90 26 -347
33 -444 11z m258 -240 l46 -7 0 -324 c0 -368 5 -329 -110 -958 -104 -573 -142
-829 -180 -1190 -17 -168 -20 -264 -20 -698 0 -437 3 -523 20 -667 19 -163 25
-324 14 -368 l-6 -22 -622 0 c-341 0 -627 4 -634 8 -7 5 -23 33 -35 63 -22 54
-22 58 -25 744 -4 726 -3 747 44 1070 124 843 380 1547 713 1955 187 229 409
366 635 390 102 11 108 11 160 4z"/>
</g>
</svg>
