<?xml version="1.0" standalone="no"?>
<!DOCTYPE svg PUBLIC "-//W3C//DTD SVG 20010904//EN"
 "http://www.w3.org/TR/2001/REC-SVG-20010904/DTD/svg10.dtd">
<svg version="1.0" xmlns="http://www.w3.org/2000/svg"
 width="2048.000000pt" height="2048.000000pt" viewBox="0 0 2048.000000 2048.000000"
 preserveAspectRatio="xMidYMid meet">
<metadata>
Created by potrace 1.13, written by Peter Selinger 2001-2015
</metadata>
<g transform="translate(0.000000,2048.000000) scale(0.192120,-0.192120)"
fill="#000000" stroke="none">
<path d="M4925 10319 c-769 -43 -1455 -204 -2014 -470 l-129 -61 -194 51
c-1039 272 -1778 359 -1961 229 -63 -45 -105 -198 -128 -463 -23 -280 -12
-943 26 -1560 30 -464 72 -980 84 -1017 6 -19 0 -58 -25 -150 -97 -352 -178
-827 -218 -1283 -38 -418 -44 -953 -16 -1205 71 -620 279 -1179 643 -1718 814
-1209 2378 -2132 3927 -2319 200 -24 610 -24 810 0 649 79 1232 254 1845 557
376 185 652 354 960 585 241 181 337 265 570 499 294 294 490 539 673 843 288
476 461 975 529 1523 22 175 24 764 5 1030 -43 583 -126 1101 -242 1517 -20
72 -20 72 0 290 114 1265 135 2294 54 2677 -45 214 -109 251 -429 250 -200 0
-353 -17 -654 -70 -316 -56 -727 -148 -1025 -230 l-129 -36 -100 48 c-614 288
-1257 438 -2077 484 -200 11 -580 11 -785 -1z m1065 -223 c614 -63 1024 -161
1545 -371 127 -50 254 -98 284 -105 84 -20 176 -8 471 64 603 148 1015 221
1305 233 176 7 245 0 252 -27 3 -9 15 -22 28 -28 13 -6 32 -26 41 -44 15 -29
16 -118 11 -1157 -5 -901 -9 -1157 -21 -1281 -17 -175 -20 -455 -6 -515 68
-280 119 -541 170 -855 12 -74 33 -166 46 -204 13 -38 24 -73 24 -76 0 -4 -20
-1 -44 7 l-45 15 -773 -257 c-425 -142 -797 -266 -825 -277 -55 -20 -65 -36
-35 -54 46 -27 88 -16 619 160 813 269 902 296 951 288 33 -5 25 -41 -16 -68
-18 -13 -320 -118 -670 -235 -350 -117 -653 -219 -672 -228 -19 -8 -37 -15
-40 -16 -3 -1 -16 -6 -30 -12 -14 -5 -64 -23 -112 -38 -49 -16 -88 -32 -88
-37 0 -4 -5 -8 -11 -8 -6 0 -41 -13 -79 -30 -65 -28 -218 -74 -287 -86 -18 -3
-71 -18 -118 -34 -47 -16 -85 -27 -85 -24 0 3 -6 2 -12 -3 -7 -4 -20 -9 -29
-10 -9 -1 -29 -8 -45 -14 -16 -7 -32 -12 -35 -11 -4 1 -21 -3 -38 -8 -44 -12
-91 5 -91 34 0 27 46 54 145 86 72 23 179 71 205 93 15 12 44 67 38 72 -2 2
-100 -28 -218 -67 -180 -59 -220 -76 -247 -103 -29 -29 -33 -39 -33 -89 0 -50
4 -61 33 -92 64 -71 -23 -94 1392 376 699 232 1279 428 1290 435 20 12 20 10
20 -244 0 -210 3 -269 18 -328 22 -92 21 -104 -5 -69 -23 30 -73 56 -110 56
-13 0 -657 -127 -1433 -282 -1398 -280 -1410 -282 -1444 -313 -28 -26 -34 -40
-38 -82 -7 -66 19 -112 77 -138 l40 -18 1412 282 c777 155 1426 287 1441 293
15 6 39 25 52 42 31 39 31 28 1 -92 -14 -53 -34 -171 -46 -262 -26 -196 -80
-450 -120 -564 -16 -44 -50 -139 -75 -211 -65 -185 -89 -241 -176 -411 -329
-643 -885 -1235 -1603 -1708 -199 -132 -309 -196 -574 -335 -184 -96 -232
-125 -467 -285 -321 -218 -838 -382 -1353 -428 -170 -15 -219 -7 -393 67 -134
57 -134 57 -294 71 -297 26 -490 58 -755 124 -1196 298 -2342 1029 -3018 1924
-435 576 -666 1136 -752 1826 -7 52 -23 129 -36 169 -13 41 -27 91 -30 110
l-7 36 26 -31 c15 -17 39 -36 54 -42 16 -6 664 -138 1441 -293 l1412 -282 40
18 c58 26 84 72 77 138 -4 42 -10 56 -38 82 -34 31 -46 33 -1444 313 -776 155
-1423 282 -1438 282 -37 0 -80 -23 -107 -57 l-22 -28 7 45 c4 25 11 52 15 60
28 56 38 394 15 538 l-7 44 23 -15 c13 -8 595 -205 1293 -437 1416 -472 1328
-448 1393 -376 28 30 33 43 33 83 0 56 -26 105 -67 126 -15 8 -100 38 -188 66
-88 29 -180 58 -204 66 l-43 14 7 -27 c3 -15 13 -34 21 -44 21 -23 123 -70
224 -103 47 -15 95 -35 107 -44 30 -21 30 -57 1 -67 -34 -11 -58 -7 -227 43
-85 24 -208 58 -273 74 -64 17 -179 56 -255 88 -76 32 -156 64 -178 71 -22 7
-54 19 -71 27 -18 8 -342 119 -720 247 -379 127 -699 240 -712 251 -38 33 -29
52 27 54 55 2 99 -12 921 -284 272 -90 514 -167 536 -171 73 -11 150 30 97 51
-46 18 -1545 518 -1591 530 -46 12 -59 12 -94 1 -36 -13 -39 -13 -35 2 3 10
19 55 36 102 18 53 43 168 66 305 37 227 88 477 131 647 31 124 32 317 4 655
-48 578 -50 635 -50 1493 l0 826 23 44 c18 37 30 47 63 58 28 9 44 21 47 34 6
20 10 21 189 15 321 -10 761 -88 1423 -253 114 -29 213 -47 270 -51 106 -6
137 3 414 117 217 89 363 139 550 190 337 91 683 151 1046 180 72 6 150 12
175 14 125 10 934 -3 1080 -18z m-5154 -5325 c129 -22 383 -72 1544 -303 991
-196 988 -196 1001 -219 12 -22 2 -49 -20 -51 -29 -2 -113 6 -161 17 -14 3
-36 7 -50 10 -14 3 -36 7 -50 10 -14 3 -36 7 -50 10 -14 3 -36 7 -50 10 -14 3
-36 7 -50 10 -14 3 -36 7 -50 10 -14 3 -36 7 -50 10 -14 3 -36 7 -50 10 -14 3
-36 7 -50 10 -14 3 -36 7 -50 10 -14 3 -36 7 -50 10 -14 3 -36 7 -50 10 -14 3
-36 7 -50 10 -14 3 -36 7 -50 10 -14 3 -36 7 -50 10 -14 3 -36 7 -50 10 -14 3
-36 7 -50 10 -14 3 -36 7 -50 10 -14 3 -36 7 -50 10 -14 3 -36 7 -50 10 -14 3
-36 7 -50 10 -14 3 -36 7 -50 10 -14 3 -36 7 -50 10 -14 3 -36 7 -50 10 -14 3
-36 7 -50 10 -14 3 -36 7 -50 10 -14 3 -36 7 -50 10 -14 3 -36 7 -50 10 -14 3
-36 7 -50 10 -14 3 -36 7 -50 10 -14 3 -36 7 -50 10 -14 3 -34 7 -45 9 -11 3
-222 46 -470 95 -247 50 -457 93 -467 96 -19 7 -33 39 -23 55 9 15 67 12 191
-9z m9181 -1 c2 -8 -1 -22 -6 -30 -7 -10 -164 -46 -493 -113 -266 -54 -493
-100 -505 -103 -13 -2 -34 -7 -48 -9 -14 -3 -36 -8 -50 -10 -14 -3 -36 -8 -50
-10 -14 -3 -36 -8 -50 -10 -14 -3 -35 -8 -47 -10 -13 -3 -36 -7 -53 -10 -16
-4 -39 -8 -50 -10 -84 -19 -516 -106 -540 -110 -16 -2 -48 -9 -71 -14 -23 -6
-59 -13 -80 -16 -57 -9 -107 -19 -170 -34 -23 -6 -56 -13 -75 -16 -19 -2 -74
-13 -124 -24 -91 -19 -133 -26 -215 -37 -25 -3 -50 -7 -57 -9 -21 -7 -73 16
-73 32 0 8 7 21 15 29 16 16 1333 282 2590 523 74 14 149 9 152 -9z M3450
7534 c-729 -111 -1388 -501 -1877 -1109 -80 -100 -107 -142 -120 -184 -28 -97
0 -204 71 -273 53 -52 101 -72 182 -76 127 -7 167 20 334 227 160 198 419 422
645 558 293 176 607 285 905 313 148 14 185 24 242 65 34 25 55 52 78 99 30
60 32 72 28 133 -8 112 -63 193 -163 239 -41 20 -65 24 -140 23 -49 -1 -133
-7 -185 -15z m-816 -578 c-3 -9 -10 -13 -15 -10 -5 3 -9 0 -9 -6 0 -6 -4 -8
-10 -5 -5 3 -10 3 -10 -2 0 -4 -20 -21 -45 -36 -25 -16 -45 -33 -45 -39 0 -5
-4 -7 -9 -4 -5 4 -11 2 -13 -3 -1 -4 -48 -42 -103 -83 -111 -84 -327 -287
-440 -414 -41 -46 -91 -98 -112 -117 -45 -41 -88 -54 -97 -31 -9 22 14 61 81
134 33 36 70 78 84 93 69 81 337 307 454 382 86 56 285 164 293 159 1 0 0 -9
-4 -18z M6885 7526 c-60 -27 -107 -72 -138 -130 -17 -32 -22 -58 -22 -121 0
-63 5 -89 22 -121 53 -99 137 -148 273 -158 321 -25 646 -133 955 -319 227
-136 467 -343 636 -548 136 -166 166 -195 221 -219 62 -27 171 -25 230 4 119
58 182 199 145 327 -13 43 -40 85 -123 188 -483 603 -1166 1004 -1886 1106
-157 22 -252 20 -313 -9z m1135 -561 c0 -8 -2 -15 -4 -15 -2 0 -6 7 -10 15 -3
8 -1 15 4 15 6 0 10 -7 10 -15z m17 -17 c-3 -8 -6 -5 -6 6 -1 11 2 17 5 13 3
-3 4 -12 1 -19z m123 -41 c168 -90 348 -226 532 -406 155 -150 228 -239 228
-278 0 -55 -44 -32 -145 75 -228 243 -384 390 -510 482 -38 28 -82 61 -97 74
-16 13 -48 37 -73 53 -25 15 -45 33 -45 40 0 16 15 10 110 -40z M3390 6000
c-267 -47 -522 -171 -735 -356 -94 -83 -212 -216 -232 -263 -28 -66 6 -149 73
-177 53 -22 85 -17 159 27 183 108 411 180 700 221 116 16 493 16 615 0 293
-39 508 -109 740 -242 92 -53 200 12 200 120 -1 56 -8 68 -95 170 -223 262
-569 453 -915 505 -134 21 -378 18 -510 -5z M6750 6005 c-366 -58 -748 -285
-956 -567 -37 -50 -44 -68 -44 -105 0 -110 108 -176 200 -123 111 63 227 116
329 150 546 182 1276 130 1711 -121 90 -52 120 -58 174 -35 67 28 101 111 73
177 -20 47 -138 180 -232 263 -217 188 -471 310 -743 357 -135 23 -379 25
-512 4z M4950 4899 c-185 -19 -322 -59 -378 -112 -52 -48 -66 -93 -70 -223 -5
-139 7 -192 65 -308 60 -119 132 -216 237 -322 157 -158 297 -238 462 -265
184 -30 404 71 601 274 102 105 179 215 234 331 54 116 62 158 57 294 -5 125
-20 172 -70 219 -58 55 -192 93 -397 113 -122 12 -619 11 -741 -1z m820 -238
c36 -6 86 -19 113 -27 l47 -16 0 -124 c0 -140 -3 -151 -90 -279 -92 -135 -243
-263 -365 -307 -86 -30 -207 -29 -296 4 -170 63 -347 233 -445 428 -21 42 -24
61 -24 159 l0 112 36 15 c43 18 121 33 224 44 109 12 723 5 800 -9z M5549
3512 c-73 -37 -101 -131 -59 -199 27 -44 63 -60 166 -73 351 -43 650 -151 794
-286 97 -92 125 -151 125 -264 0 -74 -4 -92 -29 -143 -97 -190 -403 -335 -844
-398 -81 -11 -157 -27 -169 -35 -78 -49 -81 -180 -6 -230 15 -9 81 -25 157
-36 598 -88 919 -296 893 -577 -6 -67 -42 -144 -94 -201 -133 -148 -427 -262
-813 -315 -63 -8 -125 -22 -138 -31 -58 -38 -80 -132 -43 -188 46 -70 85 -77
306 -51 755 88 1229 333 1325 685 20 72 15 214 -9 291 -37 116 -119 224 -243
317 -76 58 -246 143 -363 182 -53 18 -93 36 -88 40 4 4 50 21 102 39 188 65
356 166 459 276 111 118 155 225 154 375 0 159 -48 270 -168 392 -232 236
-654 376 -1330 442 -36 3 -61 0 -85 -12z m1248 -909 c-2 -38 -3 -7 -3 67 0 74
1 105 3 68 2 -38 2 -98 0 -135z m0 -1385 c-1 -40 -3 -10 -3 67 0 77 1 110 3
73 2 -37 2 -100 0 -140z"/>
</g>
</svg>
