<?xml version="1.0" standalone="no"?>
<!DOCTYPE svg PUBLIC "-//W3C//DTD SVG 20010904//EN"
 "http://www.w3.org/TR/2001/REC-SVG-20010904/DTD/svg10.dtd">
<svg version="1.0" xmlns="http://www.w3.org/2000/svg"
 width="2048.000000pt" height="2048.000000pt" viewBox="0 0 2048.000000 2048.000000"
 preserveAspectRatio="xMidYMid meet">
<metadata>
Created by potrace 1.13, written by Peter Selinger 2001-2015
</metadata>
<g transform="translate(0.000000,2048.000000) scale(0.192120,-0.192120)"
fill="#000000" stroke="none">
<path d="M4925 10319 c-748 -41 -1425 -197 -1980 -457 -77 -36 -153 -65 -170
-65 -16 0 -154 32 -305 71 -406 105 -808 187 -1145 233 -217 30 -521 33 -610
6 -33 -11 -73 -28 -89 -40 -62 -44 -104 -199 -127 -462 -23 -280 -12 -943 26
-1560 30 -473 72 -980 84 -1018 7 -19 5 -43 -4 -75 -108 -370 -196 -868 -239
-1357 -38 -423 -45 -953 -16 -1205 37 -322 120 -664 225 -924 l34 -84 -39 -74
c-94 -180 -179 -450 -216 -688 -22 -142 -25 -494 -6 -615 71 -435 281 -703
639 -812 77 -23 105 -26 218 -26 347 2 602 122 754 356 24 37 45 67 48 67 2 0
34 -24 71 -54 81 -65 244 -181 366 -260 871 -567 1889 -912 2781 -943 1023
-35 2341 427 3307 1159 l126 96 42 -64 c151 -233 409 -355 755 -357 113 0 141
3 218 26 358 109 573 383 638 812 20 131 17 469 -5 615 -37 239 -119 502 -217
689 -35 68 -37 76 -25 100 21 40 111 305 139 411 39 142 84 378 102 530 35
300 29 815 -16 1295 -40 439 -110 844 -205 1205 -20 74 -36 140 -36 145 1 6 6
48 11 95 40 344 98 1248 110 1720 16 634 -12 1030 -83 1186 -28 60 -60 86
-141 111 -80 24 -393 24 -575 0 -407 -56 -890 -158 -1412 -299 l-78 -21 -130
62 c-756 360 -1766 528 -2825 470z m1063 -223 c626 -65 1037 -165 1562 -379
102 -41 212 -83 244 -92 93 -27 194 -16 451 48 625 157 1144 247 1421 247 133
0 175 -7 181 -30 3 -10 15 -22 28 -28 13 -6 32 -26 41 -44 15 -29 16 -118 11
-1157 -5 -901 -9 -1157 -21 -1281 -8 -85 -15 -225 -16 -310 0 -153 1 -158 59
-425 33 -148 79 -382 101 -520 23 -137 52 -282 66 -321 13 -39 24 -73 24 -76
0 -3 -20 1 -44 9 l-45 15 -773 -257 c-425 -142 -797 -266 -825 -277 -55 -20
-65 -36 -35 -54 46 -27 88 -16 619 160 813 269 902 296 951 288 33 -5 25 -41
-16 -68 -18 -13 -320 -118 -670 -234 -350 -117 -647 -219 -659 -226 -13 -8
-23 -12 -23 -10 0 3 -44 -17 -97 -44 -96 -47 -184 -111 -171 -125 7 -7 1750
569 1783 590 20 12 20 10 20 -244 0 -210 3 -269 18 -328 23 -97 22 -100 -16
-60 -40 43 -89 54 -166 39 -31 -6 -334 -67 -674 -135 l-619 -125 -204 105
c-112 57 -204 101 -204 98 0 -3 9 -21 19 -41 20 -37 61 -77 101 -98 14 -7 64
-34 112 -60 80 -43 94 -48 185 -55 54 -5 100 -7 102 -5 2 2 -3 4 -11 4 -9 0
-21 6 -27 13 -9 11 -2 14 36 16 42 1 223 29 431 66 48 9 90 11 99 7 15 -9 32
-7 243 34 316 60 399 71 434 58 43 -16 -8 -58 -96 -78 -40 -10 -82 -22 -93
-26 -24 -11 -218 -60 -440 -111 -55 -12 -102 -26 -105 -29 -3 -4 -26 -13 -51
-20 -26 -8 -62 -26 -80 -42 -32 -27 -32 -28 -9 -23 14 2 232 45 485 95 253 50
473 95 488 102 15 6 39 25 52 42 31 39 31 28 1 -92 -14 -53 -34 -171 -46 -262
-23 -169 -52 -319 -96 -495 -14 -55 -29 -148 -33 -207 -4 -59 -9 -110 -12
-112 -3 -3 -44 48 -93 114 -112 152 -258 314 -389 432 -168 151 -428 347 -435
328 -6 -18 49 -98 101 -146 29 -27 111 -99 183 -161 180 -155 432 -414 472
-485 33 -59 42 -92 63 -213 6 -38 44 -155 84 -260 122 -317 115 -273 115 -772
0 -410 -1 -434 -21 -499 -97 -314 -329 -476 -659 -461 -208 10 -347 62 -478
179 -43 37 -109 93 -149 124 -73 57 -107 94 -137 151 -23 46 -61 213 -85 383
-29 200 -38 234 -68 261 l-26 24 7 -87 c20 -271 83 -589 156 -783 0 -1 -16 1
-35 3 -80 9 -120 -11 -502 -255 -359 -228 -552 -320 -1102 -524 -398 -148
-875 -262 -1273 -305 -183 -20 -540 -22 -713 -5 -282 28 -585 87 -860 167 -88
25 -190 55 -227 65 -61 17 -165 55 -518 189 -258 98 -534 244 -860 455 -140
91 -297 184 -340 203 -19 8 -61 15 -93 14 -42 -1 -57 2 -53 11 42 102 98 329
122 497 14 98 43 374 44 412 0 25 -21 13 -47 -25 -16 -24 -25 -64 -37 -162
-39 -311 -81 -489 -135 -574 -18 -27 -64 -75 -103 -107 -39 -31 -105 -88 -147
-126 -148 -134 -291 -183 -526 -183 -125 1 -149 4 -221 28 -195 65 -326 200
-402 417 l-27 75 -3 356 c-3 326 -1 364 17 456 24 115 72 265 128 403 22 52
48 122 57 155 10 33 22 73 27 89 5 16 9 50 10 75 0 63 24 118 89 208 92 128
311 344 520 513 87 71 146 132 169 177 11 23 21 45 21 48 0 8 -44 -21 -165
-110 -273 -201 -495 -424 -690 -693 -33 -46 -61 -79 -62 -75 -1 4 -7 63 -12
129 -6 67 -26 191 -45 275 -39 175 -60 290 -86 469 -10 69 -29 163 -44 209
-32 105 -33 120 -1 83 13 -16 37 -34 52 -41 33 -13 986 -201 992 -195 8 8 -46
44 -94 62 -113 43 -187 64 -350 96 -11 3 -31 7 -45 10 -14 4 -34 8 -45 10 -52
11 -161 42 -165 47 -3 3 -43 14 -89 24 -86 19 -114 36 -109 64 5 24 104 19
278 -13 283 -54 345 -63 375 -59 17 2 125 -12 240 -31 116 -20 247 -38 293
-42 45 -4 82 -11 82 -16 0 -5 -4 -7 -9 -3 -5 3 -13 0 -17 -6 -5 -9 14 -11 77
-7 85 6 114 17 234 89 17 9 34 17 38 17 9 0 45 25 76 52 16 14 61 85 61 96 0
3 -92 -42 -204 -99 l-204 -105 -663 134 c-365 73 -679 133 -697 134 -41 0 -84
-21 -112 -57 l-22 -28 7 45 c4 25 11 52 15 60 28 56 38 394 15 538 l-7 44 23
-15 c20 -13 1765 -597 1783 -597 20 0 -1 30 -42 61 -91 67 -221 118 -829 322
-708 239 -748 253 -774 275 -35 30 -24 49 30 51 55 2 99 -12 921 -284 272 -90
514 -167 536 -171 73 -11 150 30 97 51 -46 18 -1545 518 -1591 530 -46 12 -60
12 -94 1 -28 -10 -38 -11 -35 -3 43 112 71 227 102 412 39 230 73 404 124 618
28 115 31 145 31 287 0 87 -9 266 -20 397 -48 578 -50 635 -50 1493 l0 826 23
44 c18 37 30 47 63 58 28 9 44 21 47 34 6 20 10 21 189 15 284 -9 668 -73
1193 -198 597 -143 546 -143 882 -3 504 210 1039 336 1628 384 72 5 150 12
175 14 25 2 243 2 485 1 313 -2 484 -8 593 -19z M3450 7534 c-729 -111 -1388
-501 -1877 -1109 -80 -100 -107 -142 -120 -184 -37 -128 26 -269 145 -327 59
-29 168 -31 230 -4 55 24 80 48 210 207 169 207 419 423 647 560 293 176 607
285 905 313 148 14 185 24 242 65 34 25 55 52 78 99 30 60 32 72 28 133 -8
112 -63 193 -163 239 -41 20 -65 24 -140 23 -49 -1 -133 -7 -185 -15z m-816
-578 c-3 -9 -10 -13 -15 -10 -5 3 -9 0 -9 -6 0 -6 -4 -8 -10 -5 -5 3 -10 3
-10 -2 0 -4 -20 -21 -45 -36 -25 -16 -45 -33 -45 -39 0 -5 -4 -7 -9 -4 -5 4
-11 2 -13 -3 -1 -4 -48 -42 -103 -83 -111 -84 -327 -287 -440 -414 -41 -46
-91 -98 -112 -117 -45 -41 -88 -54 -97 -31 -9 22 14 61 81 134 33 36 70 78 84
93 69 81 337 307 454 382 86 56 285 164 293 159 1 0 0 -9 -4 -18z M6885 7526
c-60 -27 -107 -72 -138 -130 -17 -32 -22 -58 -22 -121 0 -63 5 -89 22 -121 53
-99 137 -148 273 -158 321 -25 646 -133 955 -319 227 -136 467 -343 636 -548
136 -166 166 -195 221 -219 62 -27 171 -25 230 4 119 58 182 199 145 327 -13
43 -40 85 -123 188 -483 603 -1166 1004 -1886 1106 -157 22 -252 20 -313 -9z
m1135 -561 c0 -8 -2 -15 -4 -15 -2 0 -6 7 -10 15 -3 8 -1 15 4 15 6 0 10 -7
10 -15z m17 -17 c-3 -8 -6 -5 -6 6 -1 11 2 17 5 13 3 -3 4 -12 1 -19z m123
-41 c168 -90 348 -226 532 -406 155 -150 228 -239 228 -278 0 -55 -44 -32
-145 75 -228 243 -384 390 -510 482 -38 28 -82 61 -97 74 -16 13 -48 37 -73
53 -25 15 -45 33 -45 40 0 16 15 10 110 -40z M3390 6000 c-270 -49 -522 -172
-735 -356 -94 -83 -212 -216 -232 -263 -28 -66 6 -149 73 -177 53 -22 85 -17
159 27 183 108 411 180 700 221 116 16 493 16 615 0 293 -39 508 -109 740
-242 92 -53 200 13 200 123 0 37 -7 55 -43 104 -167 225 -455 426 -742 516
-157 49 -221 58 -430 63 -166 3 -218 0 -305 -16z M6750 6005 c-366 -58 -748
-285 -956 -567 -37 -50 -44 -68 -44 -105 0 -110 108 -176 200 -123 111 63 227
116 329 150 546 182 1276 130 1711 -121 90 -52 120 -58 174 -35 67 28 101 111
73 177 -20 47 -138 180 -232 263 -217 189 -470 310 -743 357 -135 23 -379 25
-512 4z M2770 5027 c-39 -13 -47 -42 -17 -61 14 -9 21 -7 32 8 13 18 15 18 43
-2 16 -12 53 -30 83 -42 30 -11 68 -27 84 -34 17 -7 44 -18 61 -25 33 -13 74
-60 74 -86 0 -25 -38 -55 -71 -55 -17 0 -57 7 -88 14 -31 8 -67 17 -81 20 -14
2 -46 10 -72 16 -26 7 -67 10 -92 8 -47 -3 -57 6 -33 31 10 10 7 10 -15 2 -34
-13 -97 -81 -120 -129 -12 -25 -17 -62 -18 -112 l0 -75 24 55 c26 62 96 213
100 218 2 1 95 -29 207 -68 173 -60 212 -71 253 -67 42 4 55 10 83 41 28 30
33 43 33 83 0 64 -29 109 -83 133 -23 10 -111 40 -195 66 -109 34 -151 51
-148 61 6 16 2 16 -44 0z M7845 5029 c3 -10 -44 -30 -178 -73 -222 -72 -247
-90 -247 -180 0 -50 4 -61 33 -92 54 -60 82 -58 321 22 112 37 202 72 199 77
-9 15 -138 1 -248 -27 -96 -25 -102 -25 -147 -10 -63 21 -66 50 -8 83 22 12
43 28 47 35 9 13 58 37 114 55 20 6 58 25 84 42 46 29 50 30 62 13 12 -17 14
-17 33 1 28 25 25 41 -7 48 -16 3 -36 9 -46 12 -12 5 -16 3 -12 -6z M4950
4899 c-185 -19 -322 -59 -378 -112 -52 -48 -66 -93 -70 -223 -5 -139 7 -192
65 -308 60 -119 132 -216 237 -322 156 -157 277 -227 448 -262 72 -14 85 -14
164 2 47 9 115 30 150 46 204 92 426 323 535 554 54 116 62 158 57 294 -5 125
-20 172 -70 219 -58 55 -192 93 -397 113 -122 12 -619 11 -741 -1z m820 -238
c36 -6 86 -19 113 -27 l47 -16 0 -124 c0 -140 -3 -151 -90 -279 -118 -173
-290 -298 -448 -326 -224 -40 -510 156 -658 451 -21 42 -24 61 -24 159 l0 112
36 15 c43 18 121 33 224 44 109 12 723 5 800 -9z M7974 4808 c18 -26 99 -189
127 -258 l18 -45 0 70 c1 53 -5 82 -23 120 -24 51 -85 117 -120 129 -18 6 -18
5 -2 -16z M2595 4500 c33 -36 107 -60 325 -105 359 -74 419 -90 451 -121 36
-34 37 -66 5 -84 -33 -17 -108 -10 -431 45 -313 53 -420 63 -455 45 -21 -11
-22 -11 -17 9 6 24 3 25 -23 11 -30 -16 -77 -95 -100 -167 -34 -107 -38 -324
-5 -291 3 3 21 72 41 154 42 183 68 269 80 268 5 -1 217 -43 471 -94 l463 -93
40 18 c58 26 84 72 77 138 -4 42 -10 56 -38 82 -33 30 -50 34 -396 103 -545
109 -507 103 -488 82z M7642 4431 c-422 -84 -433 -87 -463 -118 -25 -24 -33
-42 -37 -81 -6 -64 21 -111 78 -137 l40 -18 465 93 c297 59 462 97 456 103
-26 26 -132 19 -446 -34 -66 -11 -138 -22 -160 -25 -22 -3 -68 -12 -103 -19
-104 -21 -222 -9 -222 24 0 21 32 49 67 57 16 4 33 13 38 20 15 19 279 83 490
119 106 17 194 53 225 90 7 8 11 14 9 14 -2 -1 -199 -40 -437 -88z M8180 4305
c0 -3 7 -16 15 -28 12 -18 80 -272 109 -409 10 -43 23 -33 31 20 11 83 -28
283 -65 334 -11 15 -20 32 -20 37 0 5 -12 19 -26 30 -26 20 -44 27 -44 16z
M2315 3626 c-15 -89 -46 -363 -62 -553 l-18 -216 221 -216 c633 -622 1194
-1045 1739 -1311 485 -237 854 -323 1280 -299 867 50 1800 566 2706 1498 100
102 197 205 216 228 l34 41 -16 189 c-16 185 -60 593 -71 644 l-5 26 -114 -28
c-159 -39 -564 -122 -790 -163 -1241 -225 -2128 -268 -3160 -155 -524 57
-1370 203 -1837 317 l-118 29 -5 -31z m545 -348 c488 -165 1090 -311 1560
-377 673 -95 1185 -94 1855 5 553 81 1333 284 1784 463 l54 22 -7 -113 c-22
-353 -89 -606 -181 -687 -44 -38 -87 -46 -171 -31 -126 21 -263 91 -405 206
l-80 64 -57 -29 c-294 -148 -814 -336 -1177 -426 -499 -123 -830 -129 -1310
-24 -355 78 -802 233 -1188 410 l-148 68 -83 -67 c-163 -131 -323 -204 -452
-206 -66 -1 -75 1 -110 30 -100 79 -167 325 -190 692 l-7 113 54 -22 c30 -12
146 -53 259 -91z m750 -864 c724 -298 1264 -434 1720 -434 434 0 944 124 1612
391 295 119 299 119 413 53 44 -25 106 -59 138 -75 60 -31 67 -45 44 -87 -28
-49 -268 -239 -492 -389 -552 -369 -1078 -561 -1616 -589 -579 -31 -1242 237
-1992 804 -168 127 -257 210 -257 239 0 26 8 32 116 93 119 67 139 66 314 -6z"/>
</g>
</svg>
