<?xml version="1.0" standalone="no"?>
<!DOCTYPE svg PUBLIC "-//W3C//DTD SVG 20010904//EN"
 "http://www.w3.org/TR/2001/REC-SVG-20010904/DTD/svg10.dtd">
<svg version="1.0" xmlns="http://www.w3.org/2000/svg"
 width="2048.000000pt" height="2048.000000pt" viewBox="0 0 2048.000000 2048.000000"
 preserveAspectRatio="xMidYMid meet">
<metadata>
Created by potrace 1.13, written by Peter Selinger 2001-2015
</metadata>
<g transform="translate(0.000000,2048.000000) scale(0.192120,-0.192120)"
fill="#000000" stroke="none">
<path d="M4925 10319 c-769 -43 -1455 -204 -2014 -470 l-129 -61 -194 51
c-1039 272 -1778 359 -1961 229 -63 -45 -105 -198 -128 -463 -23 -280 -12
-943 26 -1560 30 -464 72 -980 84 -1017 6 -19 0 -58 -25 -150 -97 -352 -178
-827 -218 -1283 -38 -418 -44 -953 -16 -1205 90 -789 411 -1498 974 -2150 932
-1079 2529 -1860 3901 -1907 1027 -35 2322 420 3310 1162 241 181 337 265 570
499 294 294 490 539 673 843 288 476 461 975 529 1523 22 175 24 764 5 1030
-43 583 -126 1101 -242 1517 -20 72 -20 72 0 290 114 1265 135 2294 54 2677
-45 214 -109 251 -429 250 -200 0 -353 -17 -654 -70 -316 -56 -727 -148 -1025
-230 l-129 -36 -100 48 c-614 288 -1257 438 -2077 484 -200 11 -580 11 -785
-1z m1065 -223 c614 -63 1024 -161 1545 -371 127 -50 254 -98 284 -105 84 -20
176 -8 471 64 608 149 1016 221 1311 233 178 7 229 1 229 -26 0 -13 10 -20 30
-24 19 -4 37 -18 50 -39 20 -32 20 -51 20 -943 0 -691 -4 -957 -14 -1105 -8
-107 -18 -346 -22 -530 -5 -289 -4 -344 10 -400 62 -254 114 -517 166 -840 12
-74 33 -166 46 -204 13 -38 24 -73 24 -76 0 -4 -20 -1 -44 7 l-45 15 -1283
-428 c-1450 -483 -1348 -441 -1348 -548 0 -50 4 -61 33 -92 64 -71 -23 -94
1392 376 699 232 1279 428 1290 435 20 12 20 10 20 -244 0 -210 3 -269 18
-328 22 -92 21 -104 -5 -69 -23 30 -73 56 -110 56 -13 0 -657 -127 -1433 -282
-1398 -280 -1410 -282 -1444 -313 -28 -26 -34 -40 -38 -82 -7 -66 19 -112 77
-138 l40 -18 1412 282 c777 155 1426 287 1441 293 15 6 39 25 52 42 31 39 31
28 1 -92 -14 -53 -34 -171 -46 -262 -110 -837 -487 -1568 -1150 -2230 -377
-377 -867 -729 -1351 -971 -200 -100 -654 -274 -938 -360 -727 -219 -1307
-273 -1933 -179 -180 27 -427 82 -613 136 -88 25 -190 55 -227 65 -61 17 -155
51 -518 189 -280 106 -582 269 -929 503 -445 301 -874 700 -1169 1091 -435
576 -666 1136 -752 1826 -7 52 -23 129 -36 169 -13 41 -27 91 -30 110 l-7 36
26 -31 c15 -17 39 -36 54 -42 16 -6 664 -138 1441 -293 l1412 -282 40 18 c58
26 84 72 77 138 -4 42 -10 56 -38 82 -34 31 -46 33 -1444 313 -776 155 -1423
282 -1438 282 -37 0 -80 -23 -107 -57 l-22 -28 7 45 c4 25 11 52 15 60 28 56
38 394 15 538 l-7 44 23 -15 c13 -8 595 -205 1293 -437 1416 -472 1328 -448
1393 -376 28 30 33 43 33 83 0 56 -26 106 -67 126 -30 15 -2512 842 -2553 850
-14 3 -42 0 -63 -8 -35 -12 -38 -12 -34 3 3 10 19 55 36 102 18 53 43 168 66
305 37 227 88 477 131 647 31 124 32 317 4 655 -48 578 -50 635 -50 1493 l0
826 23 44 c18 37 30 47 63 58 28 9 44 21 47 34 6 20 10 21 189 15 321 -10 761
-88 1423 -253 114 -29 213 -47 270 -51 106 -6 137 3 414 117 217 89 363 139
550 190 337 91 683 151 1046 180 72 6 150 12 175 14 125 10 934 -3 1080 -18z
m4018 -4509 c-2 -12 -18 -31 -36 -43 -18 -13 -320 -118 -670 -235 -350 -117
-653 -219 -672 -228 -19 -8 -38 -16 -42 -17 -5 -1 -10 -3 -13 -4 -3 -1 -9 -4
-15 -5 -5 -1 -12 -4 -15 -5 -3 -1 -9 -4 -15 -5 -5 -1 -12 -4 -15 -5 -3 -1 -9
-4 -15 -5 -5 -1 -11 -3 -12 -5 -2 -1 -12 -3 -23 -5 -51 -10 -105 -28 -105 -37
0 -5 -3 -7 -7 -5 -5 3 -19 0 -33 -6 -14 -5 -34 -12 -44 -14 -11 -2 -25 -8 -33
-14 -7 -6 -13 -9 -13 -6 0 5 -88 -22 -130 -40 -8 -3 -22 -7 -31 -9 -9 -2 -29
-9 -45 -15 -16 -7 -36 -13 -45 -15 -9 -2 -29 -9 -45 -15 -16 -7 -32 -13 -36
-14 -5 -2 -10 -4 -13 -5 -3 -1 -9 -4 -15 -5 -5 -1 -12 -4 -15 -5 -3 -1 -9 -4
-15 -5 -5 -1 -12 -4 -15 -5 -3 -1 -9 -4 -15 -5 -5 -1 -12 -4 -15 -5 -3 -1 -9
-4 -15 -5 -5 -1 -11 -3 -12 -4 -2 -2 -13 -4 -24 -6 -12 -3 -34 -10 -50 -16
-16 -7 -32 -12 -35 -11 -4 1 -21 -3 -38 -8 -44 -12 -91 5 -91 34 0 15 12 29
38 43 33 18 1813 614 2172 727 221 70 274 76 268 33z m-9081 -37 c569 -184
2151 -715 2170 -729 30 -21 30 -57 1 -67 -34 -11 -61 -6 -188 33 -63 19 -122
37 -130 38 -8 2 -16 4 -17 5 -2 2 -6 3 -10 5 -5 1 -15 5 -23 8 -8 4 -154 54
-325 111 -1164 391 -1723 584 -1742 601 -39 33 -30 52 26 54 37 1 99 -15 238
-59z m-91 -779 c129 -22 383 -72 1544 -303 991 -196 988 -196 1001 -219 12
-22 2 -49 -20 -51 -29 -2 -113 6 -161 17 -14 3 -36 7 -50 10 -14 3 -36 7 -50
10 -14 3 -36 7 -50 10 -14 3 -36 7 -50 10 -14 3 -36 7 -50 10 -14 3 -36 7 -50
10 -14 3 -36 7 -50 10 -14 3 -36 7 -50 10 -14 3 -36 7 -50 10 -14 3 -36 7 -50
10 -14 3 -36 7 -50 10 -14 3 -36 7 -50 10 -14 3 -36 7 -50 10 -14 3 -36 7 -50
10 -14 3 -36 7 -50 10 -14 3 -36 7 -50 10 -14 3 -36 7 -50 10 -14 3 -36 7 -50
10 -14 3 -36 7 -50 10 -14 3 -36 7 -50 10 -14 3 -36 7 -50 10 -14 3 -36 7 -50
10 -14 3 -36 7 -50 10 -14 3 -36 7 -50 10 -14 3 -36 7 -50 10 -14 3 -36 7 -50
10 -14 3 -36 7 -50 10 -14 3 -36 7 -50 10 -14 3 -36 7 -50 10 -14 3 -36 7 -50
10 -14 3 -36 7 -50 10 -14 3 -34 7 -45 9 -11 3 -222 46 -470 95 -247 50 -457
93 -467 96 -19 7 -33 39 -23 55 9 15 67 12 191 -9z m9181 -1 c2 -8 -1 -22 -6
-30 -7 -10 -164 -46 -493 -113 -266 -54 -493 -100 -505 -103 -13 -2 -34 -7
-48 -9 -14 -3 -36 -8 -50 -10 -14 -3 -36 -8 -50 -10 -14 -3 -36 -8 -50 -10
-14 -3 -35 -8 -47 -10 -13 -3 -36 -7 -53 -10 -16 -4 -39 -8 -50 -10 -84 -19
-516 -106 -540 -110 -16 -2 -48 -9 -71 -14 -23 -6 -59 -13 -80 -16 -57 -9
-107 -19 -170 -34 -23 -6 -56 -13 -75 -16 -19 -2 -74 -13 -124 -24 -91 -19
-133 -26 -215 -37 -25 -3 -50 -7 -57 -9 -21 -7 -73 16 -73 32 0 8 7 21 15 29
16 16 1333 282 2590 523 74 14 149 9 152 -9z M3513 7235 c-174 -87 -309 -308
-373 -610 -30 -144 -38 -393 -16 -548 49 -350 197 -617 392 -709 60 -29 79
-33 149 -33 62 0 91 5 129 23 362 166 533 865 350 1427 -70 214 -192 382 -329
453 -40 20 -68 26 -140 30 -87 4 -92 3 -162 -33z m234 -276 c55 -27 113 -100
155 -197 l33 -77 3 -350 c2 -228 -1 -366 -8 -395 -34 -142 -118 -279 -197
-319 -35 -18 -124 -14 -158 7 -82 51 -158 179 -196 329 -19 76 -20 105 -16
380 4 325 5 329 74 472 32 66 111 147 156 160 54 15 109 12 154 -10z M6900
7261 c-199 -61 -362 -311 -432 -664 -29 -148 -31 -422 -4 -572 60 -333 208
-578 402 -667 75 -34 189 -32 268 5 105 49 190 135 263 267 181 326 204 852
53 1227 -75 186 -179 316 -302 378 -63 31 -79 35 -147 34 -42 0 -87 -4 -101
-8z m175 -300 c74 -33 137 -124 180 -257 l26 -81 -3 -334 c-3 -292 -5 -340
-21 -384 -49 -135 -113 -236 -172 -270 -44 -26 -113 -33 -158 -16 -76 29 -160
153 -202 296 -24 85 -25 96 -25 387 0 241 3 312 16 361 62 239 213 365 359
298z M4950 4899 c-185 -19 -322 -59 -378 -112 -52 -48 -66 -93 -70 -223 -5
-139 7 -192 65 -308 60 -119 132 -216 237 -322 156 -157 277 -227 448 -262 72
-14 85 -14 164 2 47 9 115 30 150 46 204 92 426 323 535 554 54 116 62 158 57
294 -5 125 -20 172 -70 219 -58 55 -192 93 -397 113 -122 12 -619 11 -741 -1z
m820 -238 c36 -6 86 -19 113 -27 l47 -16 0 -124 c0 -140 -3 -151 -90 -279
-118 -173 -290 -298 -448 -326 -224 -40 -510 156 -658 451 -21 42 -24 61 -24
159 l0 112 36 15 c42 17 112 31 221 44 108 12 723 5 803 -9z M1644 3782 c-59
-38 -81 -129 -45 -187 28 -45 215 -268 390 -465 183 -205 630 -656 816 -821
504 -449 957 -767 1390 -979 244 -119 421 -187 630 -239 844 -214 1837 114
2809 928 434 363 878 834 1241 1316 173 230 205 281 205 322 0 48 -27 102 -64
125 -45 28 -96 21 -366 -50 -737 -193 -1666 -362 -2360 -431 -423 -42 -501
-46 -965 -46 -477 1 -621 8 -1050 55 -682 76 -1577 242 -2265 422 -270 71
-321 78 -366 50z m6972 -356 c8 -21 -23 -74 -106 -180 -80 -101 -115 -130
-130 -107 -4 8 -13 10 -19 7 -8 -5 -11 27 -11 113 l0 121 28 6 c15 3 68 17
117 29 110 28 114 29 121 11z m-6452 -12 c33 -8 78 -20 99 -25 l37 -10 0 -78
c0 -82 -5 -98 -27 -80 -10 9 -13 8 -13 -5 0 -27 -18 -18 -65 32 -65 67 -119
148 -112 166 8 19 5 19 81 0z m696 -136 c488 -165 1090 -311 1560 -377 673
-95 1185 -94 1855 5 553 81 1333 284 1784 463 l54 22 -7 -113 c-22 -353 -89
-606 -181 -687 -44 -38 -87 -46 -171 -31 -126 21 -263 91 -405 206 l-80 64
-57 -29 c-294 -148 -814 -336 -1177 -426 -499 -123 -830 -129 -1310 -24 -355
78 -802 233 -1188 410 l-148 68 -83 -67 c-163 -131 -323 -204 -452 -206 -66
-1 -75 1 -110 30 -100 79 -167 325 -190 692 l-7 113 54 -22 c30 -12 146 -53
259 -91z m750 -864 c724 -298 1264 -434 1720 -434 434 0 944 124 1612 391 295
119 299 119 413 53 44 -25 106 -59 138 -75 60 -31 67 -45 44 -87 -42 -75 -447
-373 -737 -541 -628 -366 -1272 -510 -1817 -405 -470 90 -971 340 -1545 771
-165 124 -258 211 -258 240 0 26 8 32 116 93 119 67 139 66 314 -6z"/>
</g>
</svg>
