<?xml version="1.0" standalone="no"?>
<!DOCTYPE svg PUBLIC "-//W3C//DTD SVG 20010904//EN"
 "http://www.w3.org/TR/2001/REC-SVG-20010904/DTD/svg10.dtd">
<svg version="1.0" xmlns="http://www.w3.org/2000/svg"
 width="2048.000000pt" height="2048.000000pt" viewBox="0 0 2048.000000 2048.000000"
 preserveAspectRatio="xMidYMid meet">
<metadata>
Created by potrace 1.13, written by Peter Selinger 2001-2015
</metadata>
<g transform="translate(0.000000,2048.000000) scale(0.192120,-0.192120)"
fill="#000000" stroke="none">
<path d="M2060 10321 c-75 -23 -146 -87 -179 -161 -24 -53 -27 -140 -7 -198 8
-22 150 -243 315 -491 266 -398 307 -455 349 -482 26 -16 65 -34 87 -40 84
-23 206 12 266 78 64 68 92 177 69 261 -17 65 -617 960 -664 991 -70 46 -166
63 -236 42z m180 -328 c30 -32 148 -195 260 -363 204 -304 204 -305 205 -360
0 -51 -2 -55 -25 -59 -64 -8 -93 27 -353 418 -180 269 -227 349 -227 385 0 31
7 36 49 36 30 0 44 -9 91 -57z M8437 10316 c-88 -33 -99 -46 -417 -523 -198
-296 -313 -477 -320 -505 -23 -84 5 -193 69 -261 60 -66 182 -101 266 -78 104
28 111 36 435 521 166 249 308 470 316 492 20 58 17 144 -7 198 -25 55 -81
115 -134 142 -51 27 -156 34 -208 14z m111 -294 c6 -39 -40 -119 -218 -387
-254 -382 -289 -425 -347 -425 -40 0 -57 31 -44 78 9 30 359 561 439 665 52
69 95 99 137 95 22 -2 31 -9 33 -26z M687 9490 c-198 -50 -283 -277 -162 -436
32 -42 1169 -898 1229 -925 51 -23 136 -24 198 -3 145 49 222 227 159 369 -12
27 -29 58 -39 69 -27 30 -1173 888 -1213 907 -45 23 -123 31 -172 19z m187
-310 c28 -18 261 -190 519 -382 465 -349 500 -379 470 -409 -19 -19 -69 -12
-119 15 -65 35 -963 709 -991 744 -23 28 -29 53 -15 66 14 15 85 -3 136 -34z
M9847 9490 c-20 -6 -50 -18 -65 -27 -54 -35 -1177 -881 -1194 -899 -35 -40
-61 -117 -62 -180 0 -113 77 -223 182 -258 62 -21 147 -20 198 3 59 27 1197
883 1228 923 77 102 73 249 -10 346 -63 74 -185 115 -277 92z m71 -296 c2 -11
-7 -33 -19 -48 -24 -31 -907 -696 -981 -740 -51 -30 -94 -39 -120 -24 -26 13
-22 41 10 70 64 60 961 723 1007 745 60 28 99 27 103 -3z M5361 9209 c-332
-29 -677 -118 -976 -250 l-110 -49 -110 15 c-289 38 -621 -2 -910 -110 -587
-220 -1038 -722 -1195 -1330 -61 -237 -60 -200 -60 -1864 l0 -1518 -58 -12
c-93 -21 -368 -116 -487 -168 -676 -300 -1054 -796 -1116 -1463 -39 -428 88
-811 446 -1340 159 -236 359 -482 554 -682 l104 -108 3887 0 3887 0 91 93
c344 352 659 788 838 1162 151 314 203 575 175 875 -49 511 -269 905 -678
1211 -223 168 -548 318 -878 407 l-100 27 -5 1185 c-6 1158 -6 1188 -28 1320
-110 678 -404 1255 -878 1726 -476 473 -1091 771 -1769 859 -147 20 -483 27
-624 14z m509 -259 c790 -71 1508 -456 1995 -1070 333 -420 531 -944 575
-1520 6 -78 10 -530 10 -1072 0 -614 3 -939 10 -943 6 -3 10 -24 10 -45 0 -21
4 -41 9 -44 5 -3 12 -18 16 -33 3 -15 15 -39 26 -55 11 -15 16 -28 11 -28 -6
0 -81 11 -169 25 -87 13 -228 31 -313 40 -85 9 -156 17 -157 19 -2 2 8 27 22
57 l25 54 0 503 c0 287 -4 502 -9 502 -5 0 -12 11 -15 25 -9 35 -97 102 -159
120 -28 8 -114 20 -192 25 -931 69 -1681 297 -2275 693 -161 108 -282 208
-430 356 -154 154 -220 237 -378 471 -116 172 -138 200 -186 238 -93 72 -178
-26 -252 -292 -84 -302 -154 -470 -261 -623 -194 -278 -438 -445 -784 -533
-45 -12 -100 -30 -123 -41 -55 -26 -146 -113 -146 -139 0 -6 -5 -10 -10 -10
-7 0 -10 -211 -8 -652 l3 -653 28 -52 c15 -29 24 -53 21 -53 -38 0 -343 -36
-467 -55 -88 -14 -163 -25 -167 -25 -5 0 -3 12 5 28 34 65 45 97 45 128 0 18
5 36 10 39 7 4 10 470 10 1366 0 888 4 1393 11 1457 40 368 159 651 398 949
19 23 37 40 41 38 4 -2 27 16 51 41 212 217 538 388 878 462 121 25 139 27
431 27 336 1 304 -4 515 77 297 115 529 169 865 201 82 8 374 6 480 -3z
m-1606 -1782 c182 -445 595 -888 1121 -1204 598 -359 1421 -581 2302 -621
l143 -6 0 -491 c0 -380 -4 -521 -16 -626 -56 -487 -235 -915 -543 -1297 -100
-124 -308 -326 -434 -421 -209 -157 -477 -299 -706 -373 -99 -32 -106 -36
-141 -84 -253 -340 -750 -427 -1111 -193 -73 46 -167 134 -214 198 -29 40 -43
48 -107 69 -592 188 -1121 627 -1422 1181 -162 298 -251 581 -291 925 -12 102
-15 264 -15 766 l0 637 80 11 c477 70 874 359 1094 796 120 239 206 565 206
780 0 38 3 66 6 62 3 -3 25 -52 48 -109z m-1601 -3070 c29 -14 34 -28 82 -218
67 -266 188 -564 309 -760 136 -219 238 -352 395 -514 281 -288 594 -495 966
-639 125 -49 178 -79 241 -137 377 -346 878 -375 1253 -72 179 144 199 157
303 196 595 223 1086 641 1396 1187 137 241 223 454 293 729 53 208 56 215 84
228 43 20 339 -12 420 -46 44 -18 94 -53 170 -120 69 -61 134 -97 245 -133
676 -223 1059 -544 1216 -1019 l28 -85 4 -333 c3 -313 2 -337 -18 -415 -60
-233 -262 -597 -509 -917 -188 -245 -341 -408 -408 -437 -56 -24 -304 -31
-337 -10 -40 27 -66 102 -156 457 -49 193 -99 368 -113 396 -30 60 -102 128
-165 157 -45 21 -59 22 -417 22 -442 0 -407 7 -723 -148 -115 -57 -241 -113
-278 -125 -38 -12 -339 -76 -669 -142 -330 -66 -629 -130 -665 -141 -36 -12
-106 -43 -156 -70 -56 -30 -104 -49 -124 -49 -20 0 -66 18 -117 46 -46 25
-109 54 -141 65 -31 11 -334 76 -672 144 -338 68 -644 133 -680 144 -36 11
-161 68 -278 126 -319 157 -284 150 -727 150 -358 0 -372 -1 -417 -22 -55 -25
-131 -93 -165 -146 -31 -49 -45 -96 -138 -462 -48 -189 -85 -316 -101 -343
-41 -70 -55 -75 -207 -70 -172 5 -196 16 -316 146 -340 370 -647 845 -758
1175 l-38 112 -3 289 c-4 326 3 379 65 546 158 424 531 728 1160 943 180 62
204 76 327 185 27 24 68 54 90 67 46 26 175 53 311 65 50 4 95 8 101 9 5 0 22
-5 37 -11z m725 -2796 l277 -139 695 -138 c678 -134 697 -138 761 -176 89 -52
163 -120 190 -176 l23 -47 8 30 c15 60 139 171 248 222 14 6 336 73 715 148
l690 137 277 138 278 139 419 0 419 0 126 -507 c117 -470 133 -543 122 -543
-2 0 -48 21 -102 47 l-99 48 -1410 3 c-979 2 -1423 -1 -1453 -8 -24 -6 -67
-27 -95 -46 l-52 -35 -31 35 c-29 34 -54 93 -54 130 0 9 -4 16 -10 16 -5 0
-10 -7 -10 -16 0 -37 -25 -97 -54 -129 l-31 -34 -64 39 c-35 21 -82 42 -105
45 -22 3 -673 5 -1446 3 l-1405 -3 -92 -47 c-51 -27 -95 -48 -98 -48 -12 0 1
59 121 542 l126 508 419 0 419 0 278 -138z M4105 5027 c-66 -31 -131 -105
-150 -170 -11 -36 -15 -99 -15 -222 0 -216 10 -256 83 -330 140 -139 357 -104
444 73 28 57 28 58 28 262 0 203 0 205 -27 256 -51 97 -127 146 -238 151 -64
3 -83 0 -125 -20z M6347 5036 c-64 -23 -119 -73 -155 -141 -27 -49 -27 -52
-27 -255 0 -195 1 -208 24 -258 59 -130 208 -193 347 -145 70 24 147 103 168
173 22 74 23 374 1 447 -19 65 -85 139 -150 169 -58 27 -147 31 -208 10z
M4995 3231 c-101 -46 -110 -176 -16 -238 34 -23 38 -23 348 -23 340 0 349 1
392 56 52 66 26 169 -51 204 -40 18 -67 20 -338 20 -265 0 -299 -2 -335 -19z
M4925 2015 c148 -58 588 -61 794 -6 69 19 44 21 -69 4 -182 -27 -512 -21 -732
12 -32 5 -32 5 7 -10z"/>
</g>
</svg>
