<?xml version="1.0" standalone="no"?>
<!DOCTYPE svg PUBLIC "-//W3C//DTD SVG 20010904//EN"
 "http://www.w3.org/TR/2001/REC-SVG-20010904/DTD/svg10.dtd">
<svg version="1.0" xmlns="http://www.w3.org/2000/svg"
 width="2048.000000pt" height="2048.000000pt" viewBox="0 0 2048.000000 2048.000000"
 preserveAspectRatio="xMidYMid meet">
<metadata>
Created by potrace 1.13, written by Peter Selinger 2001-2015
</metadata>
<g transform="translate(0.000000,2048.000000) scale(0.192120,-0.192120)"
fill="#000000" stroke="none">
<path d="M5070 10324 c-297 -20 -550 -54 -801 -108 -1789 -385 -3239 -1742
-3745 -3506 -278 -968 -255 -2013 66 -2970 519 -1548 1776 -2756 3340 -3210
864 -250 1783 -264 2655 -40 996 256 1908 833 2577 1630 1112 1324 1459 3145
913 4785 -425 1275 -1335 2319 -2540 2910 -602 296 -1216 460 -1890 505 -136
9 -464 11 -575 4z m790 -228 c977 -117 1823 -480 2562 -1099 338 -282 682
-671 919 -1037 154 -237 315 -503 352 -581 204 -433 344 -907 411 -1397 22
-158 23 -899 1 -1110 -18 -174 -65 -463 -100 -617 -14 -60 -39 -175 -56 -255
-53 -250 -162 -536 -335 -876 -84 -165 -208 -376 -273 -464 -32 -44 -140 -178
-165 -205 -10 -11 -30 -36 -45 -55 -154 -204 -427 -491 -656 -687 -212 -183
-492 -381 -740 -523 -143 -83 -459 -235 -609 -294 -1188 -470 -2526 -454
-3694 41 -880 374 -1646 1016 -2151 1802 -348 541 -585 1153 -690 1781 -41
248 -43 277 -39 865 l4 570 32 183 c180 1007 634 1878 1350 2589 393 389 792
673 1287 914 492 239 988 384 1535 448 246 29 237 29 620 26 239 -2 387 -8
480 -19z M3533 7535 c-256 -69 -461 -333 -539 -695 -26 -120 -26 -400 0 -520
121 -558 527 -845 914 -648 117 59 248 200 320 343 44 88 89 222 108 322 21
108 24 355 5 463 -65 373 -283 664 -551 735 -69 18 -189 18 -257 0z m289 -303
c113 -56 197 -161 247 -309 19 -57 21 -85 21 -340 l0 -278 -29 -83 c-92 -263
-290 -397 -496 -337 -144 41 -269 185 -324 371 -19 64 -21 96 -21 325 0 183 4
268 14 305 34 128 137 274 232 330 72 42 121 54 211 51 67 -3 92 -9 145 -35z
M6866 7535 c-173 -48 -338 -198 -439 -400 -42 -85 -90 -234 -108 -335 -17 -98
-17 -345 0 -440 78 -440 357 -749 676 -750 312 0 579 282 671 710 26 121 26
401 0 520 -79 364 -285 628 -543 695 -69 18 -190 18 -257 0z m288 -299 c108
-53 198 -164 246 -302 20 -59 21 -78 18 -365 l-3 -304 -29 -70 c-38 -90 -114
-204 -165 -244 -73 -58 -126 -76 -226 -76 -82 0 -97 3 -156 32 -118 58 -224
201 -268 363 -19 66 -21 102 -21 315 0 267 6 302 64 420 62 124 168 222 275
252 76 21 198 12 265 -21z M5090 3934 c-19 -2 -84 -9 -145 -15 -468 -45 -908
-222 -1220 -488 -157 -134 -310 -329 -395 -505 -79 -164 -97 -249 -63 -307 18
-29 84 -69 116 -69 30 0 91 30 122 60 88 83 370 233 575 304 373 131 757 189
1250 189 410 0 687 -32 1015 -118 335 -87 556 -192 849 -400 55 -40 90 -44
144 -16 83 42 91 122 29 274 -128 313 -395 608 -717 790 -258 146 -548 238
-891 283 -117 15 -584 28 -669 18z m500 -274 c508 -39 909 -183 1213 -438 87
-74 147 -142 147 -168 0 -20 -42 -8 -210 59 -441 177 -1041 264 -1625 236
-459 -22 -858 -102 -1215 -244 -159 -63 -176 -68 -190 -60 -31 19 128 179 275
277 398 265 972 386 1605 338z"/>
</g>
</svg>
