<?xml version="1.0" standalone="no"?>
<!DOCTYPE svg PUBLIC "-//W3C//DTD SVG 20010904//EN"
 "http://www.w3.org/TR/2001/REC-SVG-20010904/DTD/svg10.dtd">
<svg version="1.0" xmlns="http://www.w3.org/2000/svg"
 width="2048.000000pt" height="2048.000000pt" viewBox="0 0 2048.000000 2048.000000"
 preserveAspectRatio="xMidYMid meet">
<metadata>
Created by potrace 1.13, written by Peter Selinger 2001-2015
</metadata>
<g transform="translate(0.000000,2048.000000) scale(0.192120,-0.192120)"
fill="#000000" stroke="none">
<path d="M5340 10319 c-348 -34 -754 -145 -1012 -275 -46 -24 -47 -24 -150 -9
-353 50 -746 -15 -1085 -180 -516 -252 -891 -710 -1033 -1261 -63 -243 -61
-168 -57 -2180 2 -1346 7 -1851 15 -1914 90 -638 282 -1128 626 -1598 60 -82
62 -84 96 -78 19 3 423 6 898 6 l862 0 -2 211 -3 211 -77 28 c-147 54 -358
167 -517 278 -488 339 -845 854 -991 1427 -77 302 -75 273 -75 1350 l0 960 30
3 c202 19 475 120 665 247 110 73 293 259 373 381 112 170 202 378 256 596 28
111 51 273 51 353 0 36 4 65 8 65 5 0 14 -19 21 -42 37 -125 158 -340 292
-518 470 -624 1250 -1063 2234 -1259 276 -55 739 -111 925 -111 36 0 82 -3
103 -7 l38 -6 -4 -821 c-3 -879 -4 -883 -58 -1116 -105 -455 -317 -848 -634
-1178 -261 -272 -575 -483 -895 -602 l-75 -28 -3 -211 -2 -211 862 0 c475 0
879 -3 898 -6 34 -6 36 -4 96 78 283 384 480 829 574 1298 68 337 65 250 65
1885 0 1625 3 1539 -61 1834 -196 910 -805 1689 -1639 2096 -316 154 -607 242
-955 290 -139 19 -528 27 -660 14z m530 -300 c635 -59 1213 -312 1666 -730
426 -394 694 -869 808 -1433 l26 -127 0 -1652 c0 -1812 4 -1684 -61 -1956 -83
-348 -273 -776 -437 -980 -68 -84 -36 -81 -727 -80 -565 0 -694 4 -712 23 -14
13 14 41 68 70 466 246 834 589 1102 1026 40 66 161 301 192 375 58 139 126
358 162 524 l28 126 3 898 c2 543 -1 897 -7 897 -5 0 -12 12 -15 26 -9 34 -89
119 -141 150 -52 30 -102 39 -290 54 -495 38 -931 122 -1330 255 -331 110
-625 251 -880 420 -190 126 -286 205 -440 359 -147 148 -206 222 -367 463
-147 220 -233 304 -297 288 -44 -11 -109 -73 -145 -138 -20 -35 -51 -119 -71
-192 -93 -337 -146 -468 -254 -629 -186 -276 -394 -419 -760 -521 -52 -14
-111 -35 -131 -45 -46 -23 -165 -138 -174 -167 -4 -13 -12 -23 -17 -23 -5 0
-9 -397 -9 -1022 0 -881 2 -1035 16 -1113 126 -729 564 -1413 1169 -1825 56
-37 161 -102 235 -143 125 -70 162 -98 149 -111 -20 -21 -169 -26 -721 -26
-657 0 -649 -1 -706 53 -55 51 -226 350 -306 534 -88 202 -161 453 -200 691
l-26 154 0 1961 c0 1932 0 1963 20 2047 34 140 69 239 131 360 206 405 607
718 1068 835 184 46 291 56 576 53 l260 -3 110 42 c245 93 316 116 462 154
131 33 351 71 478 82 95 8 389 6 495 -4z M4120 6423 c-27 -10 -65 -37 -96 -68
-74 -74 -84 -114 -84 -330 0 -203 10 -250 71 -319 63 -72 107 -91 209 -91 74
0 91 3 130 27 60 35 94 72 122 133 22 47 23 62 23 250 0 199 0 200 -28 257
-64 131 -208 189 -347 141z m128 -241 c9 -7 12 -47 10 -168 l-3 -159 -35 -3
c-54 -5 -60 11 -60 175 0 140 1 144 23 153 28 11 49 12 65 2z M6344 6424 c-60
-21 -119 -77 -151 -142 -28 -57 -28 -58 -28 -257 0 -188 1 -203 23 -250 28
-61 62 -98 122 -133 39 -24 56 -27 130 -27 102 0 146 19 209 91 61 69 71 116
71 319 0 216 -10 256 -83 330 -80 80 -190 106 -293 69z m124 -242 c9 -7 12
-47 10 -168 l-3 -159 -33 -3 c-58 -6 -62 4 -62 170 0 145 1 149 23 158 28 11
49 12 65 2z M4994 4901 c-30 -13 -71 -65 -79 -101 -9 -43 11 -94 51 -130 l35
-30 329 0 329 0 35 30 c68 60 70 144 6 205 l-31 30 -327 2 c-180 1 -336 -2
-348 -6z M5215 4211 c-178 -29 -345 -115 -494 -255 -77 -73 -221 -261 -221
-288 0 -5 374 -8 830 -8 477 0 830 4 830 9 0 5 -16 33 -37 62 -167 247 -358
396 -583 459 -84 23 -247 33 -325 21z m240 -185 c97 -18 131 -29 215 -74 70
-37 100 -64 100 -92 0 -10 -8 -22 -17 -26 -28 -13 -741 -17 -808 -5 -32 6 -61
13 -64 17 -13 13 29 61 79 92 147 88 321 119 495 88z M2575 2799 c-198 -46
-376 -146 -527 -295 -140 -139 -242 -316 -296 -511 l-27 -98 -3 -782 -3 -783
3611 0 3611 0 -3 782 -4 783 -26 98 c-55 200 -158 375 -305 518 -122 118 -240
195 -385 249 -61 22 -173 50 -205 50 -30 0 -37 -31 -23 -94 18 -83 40 -102
188 -173 75 -35 158 -80 186 -100 133 -95 246 -233 301 -370 56 -139 55 -116
55 -835 0 -661 0 -668 -20 -668 -11 0 -20 -7 -20 -15 0 -13 -40 -15 -300 -15
-193 0 -300 -4 -300 -10 0 -5 -20 -10 -45 -10 -25 0 -45 -3 -45 -7 0 -5 -21
-17 -48 -27 -26 -10 -54 -24 -62 -31 -8 -7 -23 -15 -32 -18 -17 -6 -18 22 -18
498 l0 505 -140 0 -140 0 -2 -504 -3 -505 -69 35 c-38 19 -78 34 -88 34 -10 0
-18 5 -18 10 0 7 -690 10 -2050 10 -1360 0 -2050 -3 -2050 -10 0 -5 -5 -10
-11 -10 -6 0 -42 -15 -80 -34 l-69 -34 0 504 0 504 -140 0 -140 0 0 -505 0
-504 -72 37 c-40 20 -74 40 -76 45 -2 4 -12 7 -23 7 -10 0 -19 5 -19 10 0 6
-107 10 -300 10 -260 0 -300 2 -300 15 0 11 -11 15 -40 15 l-40 0 0 688 c0
777 -5 721 81 879 55 102 104 168 174 231 81 74 132 107 253 164 162 76 191
104 207 195 13 81 -4 94 -100 72z M4502 2573 c4 -159 8 -187 32 -263 32 -99
80 -191 140 -269 187 -243 517 -366 814 -305 308 63 541 273 637 574 25 76 28
105 33 263 4 170 4 177 -15 177 -10 0 -24 -5 -31 -12 -7 -7 -12 -9 -12 -4 0 4
-7 1 -15 -8 -8 -8 -15 -19 -15 -25 0 -6 -7 -8 -15 -5 -13 5 -15 -10 -15 -102
0 -116 -17 -197 -68 -323 -73 -182 -272 -345 -473 -387 -118 -25 -310 -15
-418 21 -145 49 -264 141 -353 273 -78 116 -118 259 -118 424 0 88 -2 99 -15
88 -13 -10 -15 -9 -15 10 0 13 -3 20 -7 17 -3 -4 -12 2 -20 13 -8 11 -23 20
-35 20 -20 0 -20 -4 -16 -177z"/>
</g>
</svg>
