<?xml version="1.0" standalone="no"?>
<!DOCTYPE svg PUBLIC "-//W3C//DTD SVG 20010904//EN"
 "http://www.w3.org/TR/2001/REC-SVG-20010904/DTD/svg10.dtd">
<svg version="1.0" xmlns="http://www.w3.org/2000/svg"
 width="2048.000000pt" height="2048.000000pt" viewBox="0 0 2048.000000 2048.000000"
 preserveAspectRatio="xMidYMid meet">
<metadata>
Created by potrace 1.13, written by Peter Selinger 2001-2015
</metadata>
<g transform="translate(0.000000,2048.000000) scale(0.192120,-0.192120)"
fill="#000000" stroke="none">
<path d="M5340 10319 c-348 -34 -754 -145 -1011 -275 -47 -23 -48 -23 -155 -9
-518 69 -1065 -92 -1479 -436 -54 -45 -134 -98 -200 -133 -243 -127 -465 -297
-681 -517 -269 -276 -363 -418 -624 -939 -568 -1135 -885 -2123 -857 -2670 34
-676 563 -2301 1495 -4597 l167 -413 3335 0 3335 0 74 183 c928 2285 1429
3758 1566 4607 50 310 17 638 -112 1100 -158 570 -493 1365 -882 2098 -138
259 -248 408 -470 636 -274 279 -586 494 -871 599 -75 28 -324 95 -455 122
-11 3 -67 39 -125 81 -399 290 -879 479 -1390 549 -139 19 -528 27 -660 14z
m150 -229 c0 -19 7 -20 138 -20 145 0 212 -11 212 -35 0 -8 -6 -15 -13 -15 -7
0 -22 -9 -34 -19 -11 -10 -33 -26 -49 -34 -42 -22 -108 -93 -148 -161 -33 -55
-36 -66 -36 -141 0 -101 21 -149 96 -222 92 -90 157 -114 494 -182 578 -117
899 -211 1047 -307 60 -40 226 -201 400 -389 92 -99 107 -112 157 -127 30 -9
64 -14 76 -11 22 6 25 0 112 -217 121 -301 303 -829 418 -1215 167 -555 261
-996 297 -1388 15 -164 15 -209 4 -352 -45 -600 -278 -1326 -698 -2172 l-125
-253 -799 0 c-821 0 -825 0 -789 36 5 5 13 32 16 59 4 28 13 54 21 58 9 5 13
29 13 72 0 51 3 65 15 65 8 0 15 9 15 20 0 13 14 27 43 41 23 12 44 25 47 29
3 4 59 34 125 68 651 331 1143 947 1330 1667 66 256 65 233 65 1172 0 493 -4
853 -9 853 -5 0 -12 12 -15 26 -10 37 -83 101 -136 118 -61 20 -85 23 -300 41
-842 70 -1546 285 -2098 639 -388 249 -604 463 -877 871 -158 235 -213 295
-272 295 -30 0 -87 -51 -108 -98 -10 -20 -21 -39 -25 -42 -10 -7 -35 -91 -60
-200 -13 -52 -33 -140 -46 -195 -29 -120 -135 -344 -215 -451 -199 -266 -424
-419 -751 -509 -51 -14 -116 -35 -145 -46 -54 -22 -126 -88 -143 -134 -6 -17
-10 -389 -10 -1033 l0 -1007 30 -145 c101 -489 302 -891 630 -1256 221 -246
460 -427 770 -581 69 -35 136 -72 148 -83 13 -11 28 -20 33 -20 5 0 9 -9 9
-19 0 -11 5 -23 10 -26 6 -3 10 -35 10 -70 0 -35 5 -67 10 -70 6 -3 10 -19 10
-34 0 -15 4 -31 9 -37 5 -5 12 -24 16 -41 l7 -33 -800 0 -800 0 -125 253
c-227 457 -390 856 -516 1262 -129 417 -201 847 -187 1131 26 561 223 1352
601 2409 55 155 185 488 205 524 6 12 26 20 61 24 40 5 64 16 106 48 29 23 65
56 79 73 70 84 285 304 343 351 108 87 245 147 479 209 75 20 92 22 92 10 0
-18 -13 -19 131 16 68 16 225 49 349 74 124 25 235 48 246 51 12 3 24 13 26
23 4 12 22 22 57 30 78 18 178 71 232 124 67 63 89 119 89 220 0 90 -20 142
-91 234 -39 51 -51 97 -26 107 8 3 49 11 91 18 64 11 80 17 86 35 8 19 20 23
122 33 62 6 127 13 143 15 70 7 75 7 75 -14z m-673 -245 c176 -52 229 -225 97
-317 -61 -43 -127 -62 -449 -127 -515 -103 -877 -204 -1035 -287 -77 -40 -210
-153 -301 -255 -99 -112 -210 -248 -254 -312 l-40 -57 -662 0 c-365 0 -663 2
-663 4 0 2 56 40 123 84 146 96 167 113 345 281 201 189 292 259 552 421 158
99 225 161 270 252 22 44 40 68 54 71 12 3 75 18 141 35 304 78 751 145 1280
192 127 11 246 21 265 23 96 10 230 6 277 -8z m1583 -15 c352 -33 892 -105
904 -121 1 -2 17 -28 35 -56 59 -95 127 -135 306 -183 423 -113 694 -271 1050
-612 162 -155 212 -197 335 -280 58 -39 109 -75 115 -79 5 -5 -289 -9 -655 -9
l-665 0 -21 33 c-12 17 -54 73 -93 122 -197 247 -360 406 -481 469 -157 83
-517 183 -1030 286 -351 71 -383 80 -446 122 -62 41 -87 88 -80 146 11 84 60
139 159 174 45 16 72 18 202 14 83 -3 247 -15 365 -26z m-2156 -946 c42 -133
187 -382 321 -549 597 -748 1592 -1198 2895 -1310 96 -8 219 -15 273 -15 l98
0 -4 -827 c-4 -916 -2 -896 -72 -1179 -189 -767 -752 -1414 -1485 -1710 l-105
-43 -5 -433 c-6 -419 -6 -435 -29 -503 -121 -364 -432 -595 -801 -595 -369 0
-680 231 -801 595 -23 68 -23 84 -29 504 l-5 434 -115 46 c-723 290 -1287 942
-1475 1705 -71 289 -69 246 -72 1324 l-4 972 32 0 c17 0 84 12 147 26 582 130
979 536 1142 1168 34 130 60 298 60 385 0 33 4 61 8 61 5 0 16 -25 26 -56z
m-1600 -610 c14 -37 2 -86 -78 -306 -308 -852 -498 -1533 -588 -2108 -20 -128
-23 -182 -23 -455 0 -297 1 -317 29 -470 100 -564 346 -1253 692 -1937 82
-161 135 -223 212 -246 29 -9 224 -12 726 -12 603 0 686 -2 686 -15 0 -8 9
-15 20 -15 19 0 20 -7 20 -114 0 -189 36 -339 121 -506 135 -263 339 -442 599
-525 116 -36 325 -46 450 -21 465 95 800 539 800 1061 0 84 3 105 14 105 8 0
16 6 18 13 4 9 160 13 719 17 653 5 717 6 744 22 75 44 97 77 233 358 342 704
552 1318 644 1880 19 114 22 175 22 400 1 227 -3 288 -22 420 -84 564 -271
1248 -559 2050 -106 295 -125 355 -121 388 l3 27 455 3 c250 2 484 0 520 -3
61 -6 68 -10 110 -54 53 -55 156 -247 323 -601 328 -698 556 -1329 642 -1777
22 -114 21 -756 0 -874 -132 -712 -612 -2128 -1317 -3884 -159 -395 -183 -448
-228 -490 l-31 -30 -3132 -3 c-2252 -2 -3143 0 -3170 8 -30 9 -45 23 -72 64
-103 161 -785 1943 -1078 2816 -206 612 -362 1156 -427 1487 -29 150 -30 158
-30 467 0 276 3 328 21 423 102 539 386 1282 805 2114 129 255 170 313 237
327 23 6 259 10 523 11 431 1 483 -1 488 -15z M4150 6711 c-86 -28 -141 -74
-181 -151 -23 -43 -24 -54 -24 -255 0 -237 7 -267 79 -337 53 -52 101 -72 182
-76 90 -5 156 21 215 85 71 77 74 91 74 323 0 204 0 205 -28 262 -46 93 -128
148 -232 154 -33 2 -71 0 -85 -5z M6357 6706 c-101 -37 -167 -112 -188 -213
-17 -83 -8 -387 13 -435 25 -57 93 -123 150 -148 41 -18 65 -21 122 -18 113 6
195 59 240 157 19 42 21 63 21 256 0 208 0 210 -27 260 -31 60 -67 95 -128
125 -56 28 -151 36 -203 16z M4983 5170 c-66 -40 -86 -103 -54 -174 16 -37 29
-51 63 -66 40 -18 67 -20 338 -20 271 0 298 2 338 20 77 35 103 138 51 204
-43 55 -52 56 -391 56 -293 0 -315 -1 -345 -20z M4220 4494 c0 -19 98 -139
169 -207 208 -198 474 -311 801 -339 424 -36 821 87 1079 336 71 68 171 190
171 207 0 5 -499 9 -1110 9 -610 0 -1110 -3 -1110 -6z m1260 -274 c0 -19 -7
-20 -149 -20 -89 0 -152 4 -156 10 -15 25 13 30 156 30 142 0 149 -1 149 -20z"/>
</g>
</svg>
