<?xml version="1.0" standalone="no"?>
<!DOCTYPE svg PUBLIC "-//W3C//DTD SVG 20010904//EN"
 "http://www.w3.org/TR/2001/REC-SVG-20010904/DTD/svg10.dtd">
<svg version="1.0" xmlns="http://www.w3.org/2000/svg"
 width="2048.000000pt" height="2048.000000pt" viewBox="0 0 2048.000000 2048.000000"
 preserveAspectRatio="xMidYMid meet">
<metadata>
Created by potrace 1.13, written by Peter Selinger 2001-2015
</metadata>
<g transform="translate(0.000000,2048.000000) scale(0.192120,-0.192120)"
fill="#000000" stroke="none">
<path d="M4599 10315 c-171 -42 -315 -155 -392 -310 -50 -100 -59 -149 -64
-345 l-5 -185 -44 -90 c-51 -103 -52 -110 -90 -510 -70 -748 -175 -1583 -264
-2111 -34 -204 -44 -244 -83 -335 -84 -197 -167 -473 -223 -739 -54 -259 -75
-442 -81 -685 l-6 -230 -91 -94 c-90 -92 -335 -316 -571 -520 -66 -58 -132
-115 -146 -128 l-27 -24 -68 46 c-263 180 -486 207 -787 93 -97 -37 -242 -112
-350 -180 -259 -163 -605 -459 -863 -735 l-114 -123 0 -1390 0 -1390 1538 0
c1690 0 1586 -4 1715 61 80 41 201 162 250 249 81 146 117 320 117 561 0 174
-18 335 -53 477 l-23 93 106 88 c101 84 110 89 174 100 423 74 850 416 1067
856 54 108 109 278 96 292 -12 11 -115 -46 -153 -84 -49 -50 -52 -55 -94 -128
-80 -141 -221 -326 -314 -412 -146 -135 -322 -240 -499 -297 -43 -14 -90 -34
-103 -45 -14 -11 -62 -38 -107 -60 -159 -77 -232 -183 -204 -297 8 -29 4 -33
-140 -155 -81 -69 -248 -208 -370 -309 -123 -101 -223 -187 -223 -190 0 -12
161 -104 213 -121 92 -32 148 -21 200 40 40 48 51 116 44 274 l-6 140 64 -6
c124 -12 139 -34 143 -219 4 -125 1 -146 -23 -230 -14 -51 -48 -139 -76 -194
-58 -120 -114 -179 -205 -215 l-59 -24 -1417 -3 -1418 -2 0 1238 0 1238 40 39
c22 21 40 44 40 50 0 10 121 131 300 300 73 70 191 166 295 242 157 115 484
294 594 327 103 30 249 15 311 -33 23 -19 25 -26 25 -110 0 -49 -3 -92 -6 -95
-3 -4 -41 10 -85 31 -146 69 -236 55 -285 -44 -22 -43 -24 -62 -25 -196 l-2
-148 -40 -20 c-62 -31 -75 -59 -69 -143 16 -238 301 -900 577 -1341 186 -299
296 -443 480 -627 134 -135 185 -171 257 -184 24 -5 113 31 113 44 0 4 -53 56
-117 117 -365 343 -712 872 -971 1480 -102 239 -219 604 -210 655 2 10 89 89
193 176 105 88 204 171 220 186 17 14 90 76 164 137 l133 110 39 -19 c21 -11
53 -20 70 -20 92 0 284 141 601 442 82 77 148 144 148 149 0 5 19 35 43 66 49
68 83 134 92 183 4 19 10 109 15 200 24 472 106 844 310 1410 45 125 66 218
110 500 81 518 159 1162 240 1970 20 199 39 338 55 400 36 142 37 150 20 215
l-16 60 30 26 c75 62 186 99 302 99 226 0 428 -153 500 -380 18 -55 24 -122
40 -445 17 -348 18 -594 19 -2941 0 -2858 -6 -2629 71 -2698 49 -45 76 -56
140 -56 57 0 99 18 147 63 67 64 62 -132 62 2691 1 2351 2 2593 19 2946 15
299 23 396 36 435 64 186 199 318 379 370 45 13 83 16 155 13 106 -6 175 -29
255 -85 l44 -31 -14 -51 c-17 -56 -14 -82 29 -241 20 -71 36 -196 67 -495 81
-792 154 -1383 231 -1874 45 -284 71 -398 125 -539 184 -488 275 -928 298
-1447 6 -146 22 -189 129 -345 74 -108 221 -248 523 -497 64 -52 168 -110 214
-118 27 -5 46 0 81 18 l47 25 38 -31 c65 -52 269 -222 274 -228 3 -3 93 -79
200 -169 107 -89 196 -170 198 -180 9 -51 -108 -416 -210 -655 -259 -607 -605
-1133 -975 -1484 l-113 -108 21 -19 c15 -14 35 -19 73 -19 76 1 147 46 272
173 380 385 775 1075 995 1734 62 186 75 296 41 339 -12 14 -35 33 -53 41
l-31 16 -2 148 c-1 134 -3 154 -24 196 -49 100 -141 114 -287 45 -43 -21 -81
-35 -84 -31 -13 12 -6 181 7 197 43 51 214 73 322 41 63 -19 311 -140 385
-188 28 -18 82 -53 120 -77 183 -114 306 -218 542 -458 111 -113 203 -213 203
-222 0 -9 9 -24 20 -34 20 -18 20 -31 20 -1197 0 -1171 0 -1178 -20 -1178 -17
0 -20 -7 -20 -40 l0 -40 -1388 0 c-1512 0 -1448 -2 -1548 56 -62 37 -110 96
-156 192 -62 131 -88 250 -87 401 0 193 22 229 142 238 l65 5 -5 -144 c-7
-172 6 -234 60 -286 66 -64 157 -52 310 39 48 29 87 56 87 59 0 4 -35 36 -77
71 -95 78 -585 486 -632 526 -33 28 -33 29 -20 71 20 68 -6 137 -76 200 -30
26 -76 59 -102 73 -27 14 -66 37 -88 51 -22 15 -88 43 -147 62 -349 114 -604
332 -825 704 -30 52 -70 111 -88 131 -33 37 -140 99 -151 88 -15 -15 41 -183
100 -302 221 -441 659 -784 1086 -851 37 -5 64 -22 152 -96 101 -84 107 -90
97 -114 -5 -14 -21 -81 -35 -147 -35 -166 -45 -480 -20 -636 20 -124 55 -233
103 -321 49 -87 170 -208 250 -249 129 -65 25 -61 1715 -61 l1538 0 0 1390 0
1390 -124 133 c-379 405 -837 755 -1159 887 -155 63 -245 83 -372 84 -161 1
-281 -40 -453 -156 l-74 -50 -26 25 c-15 13 -137 120 -272 238 -135 118 -311
279 -392 359 l-146 145 -5 230 c-6 240 -22 387 -73 640 -55 281 -143 577 -231
784 -40 95 -49 130 -88 365 -91 541 -201 1434 -275 2235 -23 250 -28 270 -84
376 l-43 80 -7 165 c-9 202 -17 242 -68 349 -31 65 -57 100 -112 155 -234 233
-596 233 -832 1 -87 -86 -137 -180 -163 -310 l-18 -90 -7 50 c-51 352 -380
589 -707 510z m284 -255 c77 -29 142 -83 211 -174 64 -85 128 -154 166 -179
63 -43 128 -4 237 141 83 110 135 159 206 193 157 73 338 59 467 -36 69 -50
90 -89 90 -162 l0 -59 -111 4 c-253 10 -449 -95 -567 -301 -92 -160 -106 -242
-127 -737 -13 -306 -15 -768 -15 -2842 0 -2238 -2 -2478 -16 -2492 -8 -9 -20
-16 -25 -16 -5 0 -9 -15 -9 -34 0 -42 -10 -49 -66 -49 -53 0 -74 16 -74 58 0
20 -6 35 -15 39 -13 5 -15 280 -15 2393 -1 1343 -5 2495 -10 2633 -21 521 -38
771 -59 853 -22 82 -72 190 -122 263 -64 94 -227 198 -347 223 -62 13 -192 14
-242 2 -58 -13 -80 1 -80 50 0 22 7 56 16 75 35 72 151 152 256 174 67 14 186
5 251 -20z"/>
</g>
</svg>
