<?xml version="1.0" standalone="no"?>
<!DOCTYPE svg PUBLIC "-//W3C//DTD SVG 20010904//EN"
 "http://www.w3.org/TR/2001/REC-SVG-20010904/DTD/svg10.dtd">
<svg version="1.0" xmlns="http://www.w3.org/2000/svg"
 width="2048.000000pt" height="2048.000000pt" viewBox="0 0 2048.000000 2048.000000"
 preserveAspectRatio="xMidYMid meet">
<metadata>
Created by potrace 1.13, written by Peter Selinger 2001-2015
</metadata>
<g transform="translate(0.000000,2048.000000) scale(0.192120,-0.192120)"
fill="#000000" stroke="none">
<path d="M2060 10321 c-75 -23 -146 -87 -179 -161 -24 -53 -27 -140 -7 -198 8
-22 150 -243 315 -491 266 -398 307 -455 349 -482 26 -16 65 -34 87 -40 84
-23 206 12 266 78 64 68 92 177 69 261 -17 65 -617 960 -664 991 -70 46 -166
63 -236 42z m180 -328 c30 -32 148 -195 260 -363 204 -304 204 -305 205 -360
0 -51 -2 -55 -25 -59 -64 -8 -93 27 -353 418 -180 269 -227 349 -227 385 0 31
7 36 49 36 30 0 44 -9 91 -57z M8437 10316 c-88 -33 -99 -46 -417 -523 -198
-296 -313 -477 -320 -505 -23 -84 5 -193 69 -261 60 -66 182 -101 266 -78 104
28 111 36 435 521 166 249 308 470 316 492 20 58 17 144 -7 198 -25 55 -81
115 -134 142 -51 27 -156 34 -208 14z m111 -294 c6 -39 -40 -119 -218 -387
-254 -382 -289 -425 -347 -425 -40 0 -57 31 -44 78 9 30 359 561 439 665 52
69 95 99 137 95 22 -2 31 -9 33 -26z M687 9490 c-198 -50 -283 -277 -162 -436
32 -42 1169 -898 1229 -925 51 -23 136 -24 198 -3 145 49 222 227 159 369 -12
27 -29 58 -39 69 -27 30 -1173 888 -1213 907 -45 23 -123 31 -172 19z m187
-310 c28 -18 261 -190 519 -382 465 -349 500 -379 470 -409 -19 -19 -69 -12
-119 15 -65 35 -963 709 -991 744 -23 28 -29 53 -15 66 14 15 85 -3 136 -34z
M9847 9490 c-20 -6 -50 -18 -65 -27 -54 -35 -1177 -881 -1194 -899 -35 -40
-61 -117 -62 -180 0 -113 77 -223 182 -258 62 -21 147 -20 198 3 59 27 1197
883 1228 923 77 102 73 249 -10 346 -63 74 -185 115 -277 92z m71 -296 c2 -11
-7 -33 -19 -48 -24 -31 -907 -696 -981 -740 -51 -30 -94 -39 -120 -24 -26 13
-22 41 10 70 64 60 961 723 1007 745 60 28 99 27 103 -3z M5361 9209 c-332
-29 -677 -118 -976 -250 l-110 -49 -110 15 c-275 37 -595 2 -870 -95 -608
-215 -1075 -723 -1235 -1345 -61 -237 -60 -200 -60 -1864 l0 -1518 -58 -12
c-93 -21 -368 -116 -487 -168 -676 -300 -1054 -796 -1116 -1463 -39 -428 88
-811 446 -1340 159 -236 359 -482 554 -682 l104 -108 3887 0 3887 0 91 93
c344 352 659 788 838 1162 151 314 203 575 175 875 -49 511 -269 905 -678
1211 -223 168 -548 318 -878 407 l-100 27 -5 1185 c-6 1158 -6 1188 -28 1320
-109 674 -403 1252 -872 1720 -478 477 -1094 777 -1775 865 -147 20 -483 27
-624 14z m664 -269 c857 -128 1581 -598 2023 -1312 240 -388 374 -831 402
-1323 5 -88 9 -555 10 -1037 0 -579 3 -878 10 -878 6 0 10 -17 10 -38 0 -44
27 -105 76 -175 19 -26 32 -47 29 -47 -2 0 -86 13 -185 30 -98 16 -260 37
-360 46 l-180 17 19 31 c11 17 31 51 45 76 l26 45 0 483 c0 275 -4 482 -9 482
-5 0 -12 11 -15 24 -6 26 -81 93 -132 119 -33 17 -122 29 -344 47 -1063 87
-1959 435 -2539 986 -149 142 -247 261 -402 489 -135 198 -153 222 -207 268
-93 76 -186 -19 -255 -258 -79 -272 -111 -364 -167 -480 -95 -195 -248 -383
-400 -489 -150 -105 -251 -152 -455 -211 -71 -20 -144 -44 -164 -55 -50 -25
-141 -116 -141 -140 0 -6 -4 -10 -10 -10 -14 0 -14 -1202 0 -1251 6 -20 28
-63 49 -96 l39 -61 -86 -6 c-143 -11 -328 -35 -480 -61 -79 -14 -147 -25 -152
-25 -5 0 7 23 26 52 20 29 38 65 41 80 3 15 9 28 14 28 5 0 9 20 9 45 0 25 4
45 10 45 6 0 10 511 13 1393 3 1511 0 1430 58 1662 40 164 126 354 234 515 68
103 142 197 151 192 3 -2 45 34 93 80 196 187 463 333 743 407 196 52 321 64
583 57 259 -7 268 -6 460 71 258 105 551 175 845 203 153 14 504 4 665 -20z
m-1760 -1774 c179 -441 595 -887 1120 -1202 599 -359 1421 -581 2303 -621
l143 -6 -4 -546 c-4 -603 -6 -628 -73 -900 -47 -192 -93 -315 -185 -501 -132
-267 -283 -474 -495 -680 -133 -130 -217 -198 -349 -287 -191 -128 -397 -230
-594 -294 -100 -33 -105 -36 -146 -89 -329 -427 -981 -427 -1310 0 -40 52 -47
57 -131 84 -766 248 -1390 895 -1613 1670 -92 318 -101 425 -101 1197 l0 636
98 16 c536 89 937 421 1146 947 77 196 136 466 136 625 0 38 3 66 6 62 3 -3
25 -53 49 -111z m-1581 -3160 c8 -19 24 -74 36 -123 71 -284 192 -570 347
-818 319 -514 768 -892 1318 -1110 162 -64 161 -64 283 -163 233 -189 373
-248 613 -259 282 -12 480 61 709 262 80 71 141 106 260 150 115 42 344 156
455 226 317 199 609 482 818 792 72 107 191 325 244 447 53 122 116 305 153
447 16 61 36 127 44 147 l15 36 73 0 c110 0 340 -36 407 -63 32 -13 100 -50
149 -81 67 -42 129 -70 234 -106 670 -227 1038 -538 1194 -1010 l28 -85 4
-333 c3 -313 2 -337 -18 -415 -60 -233 -262 -597 -509 -917 -105 -137 -254
-311 -315 -368 -80 -75 -107 -85 -263 -90 l-133 -4 -28 30 c-36 38 -52 90
-151 478 -43 170 -88 331 -100 357 -27 60 -120 153 -180 181 -44 20 -63 21
-404 24 -445 4 -425 8 -755 -152 -130 -63 -262 -121 -292 -130 -30 -9 -325
-70 -655 -136 -330 -66 -634 -132 -675 -146 -41 -14 -111 -46 -155 -70 -45
-24 -92 -44 -104 -44 -12 0 -70 24 -129 54 -59 29 -129 61 -157 70 -27 9 -329
72 -670 140 -350 70 -649 135 -685 149 -36 14 -153 68 -260 121 -298 148 -263
141 -715 141 -435 0 -420 3 -527 -94 -85 -77 -106 -129 -203 -507 -46 -181
-91 -347 -100 -367 -8 -20 -29 -50 -46 -68 l-31 -31 -126 4 c-166 5 -192 17
-311 146 -340 370 -647 845 -758 1175 l-38 112 -3 289 c-4 326 3 379 65 546
138 370 457 662 945 864 47 19 152 58 234 86 111 38 172 65 238 107 118 75
179 98 306 117 148 22 157 23 237 25 l73 1 14 -34z m704 -2704 l277 -139 695
-138 c688 -137 696 -139 765 -178 86 -50 183 -144 191 -186 8 -40 20 -39 28 0
8 43 115 145 196 189 60 31 122 45 759 173 l694 139 279 139 278 139 419 0
419 0 126 -512 c69 -282 129 -528 133 -547 l6 -34 -49 28 c-27 16 -87 48 -134
72 l-84 43 -1361 0 c-1355 0 -1360 0 -1415 -21 -30 -11 -74 -36 -97 -55 -23
-19 -48 -34 -57 -34 -40 0 -116 119 -116 182 0 10 -4 18 -10 18 -5 0 -10 -8
-10 -18 0 -62 -76 -182 -115 -182 -8 0 -32 16 -53 35 -22 19 -59 44 -83 55
-43 19 -67 20 -1381 20 -1521 0 -1402 7 -1577 -87 l-104 -56 7 34 c3 19 63
265 132 547 l127 512 418 0 419 0 278 -138z M4105 5027 c-68 -33 -130 -102
-149 -168 -22 -72 -22 -374 -1 -445 30 -103 130 -183 239 -191 120 -10 220 46
273 155 28 57 28 58 28 262 0 203 0 205 -27 256 -51 97 -127 146 -238 151 -64
3 -83 0 -125 -20z M6347 5036 c-64 -23 -119 -73 -155 -141 -27 -49 -27 -52
-27 -255 0 -195 1 -208 24 -258 84 -186 331 -218 465 -60 55 64 66 115 66 313
0 204 -10 250 -72 320 -75 85 -196 118 -301 81z M4995 3231 c-102 -46 -110
-175 -16 -238 34 -23 38 -23 351 -23 313 0 317 0 351 23 96 64 84 199 -21 241
-34 13 -87 16 -333 16 -262 0 -296 -2 -332 -19z M4880 2020 c214 -100 688
-100 900 -1 26 12 34 19 20 17 -261 -50 -679 -50 -940 0 -14 2 -5 -5 20 -16z"/>
</g>
</svg>
