<?xml version="1.0" standalone="no"?>
<!DOCTYPE svg PUBLIC "-//W3C//DTD SVG 20010904//EN"
 "http://www.w3.org/TR/2001/REC-SVG-20010904/DTD/svg10.dtd">
<svg version="1.0" xmlns="http://www.w3.org/2000/svg"
 width="2048.000000pt" height="2048.000000pt" viewBox="0 0 2048.000000 2048.000000"
 preserveAspectRatio="xMidYMid meet">
<metadata>
Created by potrace 1.13, written by Peter Selinger 2001-2015
</metadata>
<g transform="translate(0.000000,2048.000000) scale(0.192120,-0.192120)"
fill="#000000" stroke="none">
<path d="M5340 10319 c-348 -34 -754 -145 -1012 -275 -46 -24 -47 -24 -150 -9
-279 40 -633 0 -908 -102 -594 -220 -1052 -726 -1210 -1337 -63 -247 -61 -157
-57 -2177 2 -1350 7 -1856 15 -1919 90 -635 285 -1136 626 -1598 60 -82 62
-84 96 -78 19 3 423 6 898 6 l862 0 -2 211 -3 211 -75 28 c-173 62 -420 202
-607 341 -126 94 -378 346 -472 472 -232 311 -387 653 -461 1017 -45 222 -45
231 -45 1230 l0 955 30 3 c202 19 475 120 665 247 110 73 293 259 373 381 113
170 209 393 257 599 27 113 50 274 50 350 0 36 4 65 8 65 5 0 14 -19 21 -42
37 -125 158 -340 292 -518 511 -679 1376 -1132 2490 -1304 187 -29 556 -66
663 -66 39 0 88 -3 109 -7 l38 -6 -4 -821 c-4 -890 -3 -886 -63 -1136 -146
-613 -513 -1149 -1029 -1499 -160 -109 -380 -223 -520 -271 l-50 -17 -3 -211
-2 -212 862 0 c475 0 879 -3 898 -6 34 -6 36 -4 96 78 283 384 480 829 574
1298 68 337 65 250 65 1885 0 1625 3 1539 -61 1834 -196 910 -805 1689 -1639
2096 -316 154 -607 242 -955 290 -139 19 -528 27 -660 14z m463 -289 c591 -43
1118 -243 1577 -599 113 -88 303 -272 407 -396 276 -327 477 -747 563 -1179
19 -95 20 -145 20 -1786 l0 -1689 -26 -128 c-70 -352 -191 -669 -364 -957 -97
-161 -148 -222 -198 -236 -57 -17 -1279 -9 -1309 8 -42 24 -42 24 152 133 209
118 403 266 576 439 418 420 702 972 794 1545 12 73 15 250 15 953 0 474 -4
862 -8 862 -4 0 -13 15 -20 34 -16 44 -129 151 -185 176 -34 15 -109 26 -313
45 -613 57 -1055 155 -1504 332 -453 179 -814 413 -1115 724 -129 132 -195
217 -330 424 -115 175 -220 289 -277 300 -45 9 -79 -9 -139 -72 -74 -76 -107
-155 -163 -378 -34 -135 -73 -244 -134 -375 -51 -110 -188 -293 -280 -374
-140 -124 -286 -200 -507 -267 -176 -52 -199 -64 -286 -146 -120 -114 -109 7
-109 -1158 0 -958 1 -1017 19 -1116 49 -259 105 -436 225 -701 67 -150 241
-427 362 -578 83 -104 312 -335 414 -416 111 -90 249 -182 392 -263 69 -40
134 -81 143 -91 39 -43 13 -45 -655 -48 -344 -2 -640 0 -658 3 -62 11 -111 68
-225 265 -192 331 -322 698 -376 1067 -8 49 -11 708 -11 2065 0 1934 1 1995
19 2073 109 455 426 837 874 1055 288 139 542 188 913 175 236 -9 243 -7 459
76 428 164 843 230 1268 199z M4127 6426 c-79 -29 -149 -102 -173 -182 -20
-67 -19 -372 1 -441 20 -68 88 -143 157 -173 43 -18 65 -22 123 -18 107 7 183
57 233 152 27 51 27 53 27 256 0 204 0 205 -28 262 -63 128 -210 190 -340 144z
M6343 6424 c-60 -22 -126 -85 -154 -146 -23 -50 -24 -63 -24 -258 0 -203 0
-205 27 -256 50 -95 126 -145 233 -152 58 -4 80 0 123 18 69 30 137 105 157
173 21 70 21 373 0 443 -18 60 -71 125 -132 161 -57 33 -165 41 -230 17z
M4960 4872 c-50 -50 -60 -96 -31 -154 37 -78 36 -78 405 -78 l325 0 35 30 c70
61 70 148 1 209 l-36 31 -331 0 -330 0 -38 -38z M5185 4205 c-211 -38 -421
-176 -579 -379 -64 -81 -106 -145 -106 -158 0 -5 374 -8 830 -8 457 0 830 3
830 8 0 13 -42 76 -105 157 -234 300 -551 439 -870 380z m275 -246 c51 -13 77
-36 61 -52 -8 -8 -59 -12 -179 -12 -220 0 -265 12 -183 50 72 32 208 38 301
14z M2575 2799 c-198 -46 -376 -146 -527 -295 -140 -139 -242 -316 -296 -511
l-27 -98 -3 -782 -3 -783 3611 0 3611 0 -3 782 -4 783 -26 98 c-55 200 -158
375 -305 518 -122 118 -240 195 -385 249 -68 25 -174 50 -215 50 -32 0 -33 -1
-33 -43 0 -111 34 -150 195 -227 122 -58 232 -133 294 -199 89 -95 166 -214
199 -306 58 -162 56 -128 59 -822 4 -642 4 -643 -17 -643 -11 0 -20 -7 -20
-15 0 -13 -40 -15 -300 -15 -193 0 -300 -4 -300 -10 0 -5 -20 -10 -45 -10 -25
0 -45 -3 -45 -7 0 -5 -21 -17 -48 -27 -26 -10 -54 -24 -62 -31 -8 -7 -23 -15
-32 -18 -17 -6 -18 22 -18 498 l0 505 -140 0 -140 0 -2 -504 -3 -505 -69 35
c-38 19 -78 34 -88 34 -10 0 -18 5 -18 10 0 7 -690 10 -2050 10 -1360 0 -2050
-3 -2050 -10 0 -5 -5 -10 -11 -10 -6 0 -42 -15 -80 -34 l-69 -34 0 504 0 504
-140 0 -140 0 0 -505 0 -504 -72 37 c-40 20 -74 40 -76 45 -2 4 -12 7 -23 7
-10 0 -19 5 -19 10 0 6 -107 10 -300 10 -260 0 -300 2 -300 15 0 11 -11 15
-40 15 l-40 0 0 688 c0 772 -4 722 75 870 102 188 252 322 469 418 144 64 186
114 186 223 0 41 0 41 -37 40 -21 -1 -56 -5 -78 -10z M4465 2718 c-10 -21 -22
-38 -26 -38 -5 0 -11 -16 -15 -35 -3 -19 -10 -38 -15 -41 -5 -3 -9 -65 -9
-138 0 -146 11 -193 76 -334 115 -250 321 -423 600 -504 70 -20 100 -23 259
-23 177 1 182 2 280 34 257 86 432 235 550 469 65 131 95 251 95 384 0 60 -4
110 -10 113 -5 3 -10 15 -10 25 0 10 -3 20 -7 22 -5 2 -19 26 -33 53 l-25 50
-2 -70 c-11 -311 -50 -454 -168 -620 -326 -459 -1022 -459 -1351 1 -107 150
-150 290 -162 529 l-8 160 -19 -37z"/>
</g>
</svg>
