<?xml version="1.0" standalone="no"?>
<!DOCTYPE svg PUBLIC "-//W3C//DTD SVG 20010904//EN"
 "http://www.w3.org/TR/2001/REC-SVG-20010904/DTD/svg10.dtd">
<svg version="1.0" xmlns="http://www.w3.org/2000/svg"
 width="2048.000000pt" height="2048.000000pt" viewBox="0 0 2048.000000 2048.000000"
 preserveAspectRatio="xMidYMid meet">
<metadata>
Created by potrace 1.13, written by Peter Selinger 2001-2015
</metadata>
<g transform="translate(0.000000,2048.000000) scale(0.192120,-0.192120)"
fill="#000000" stroke="none">
<path d="M5340 10319 c-348 -34 -754 -145 -1012 -275 -46 -24 -47 -24 -150 -9
-120 17 -325 19 -453 5 -498 -57 -953 -302 -1273 -685 -236 -282 -386 -621
-437 -987 -14 -102 -15 -316 -12 -1949 2 -1350 7 -1856 15 -1919 90 -637 285
-1136 626 -1598 56 -77 63 -83 90 -78 16 3 420 6 897 6 l869 0 -2 211 -3 211
-77 28 c-147 54 -358 167 -517 278 -488 339 -845 854 -991 1427 -77 302 -75
273 -75 1350 l0 960 30 3 c202 19 475 120 665 247 110 73 293 259 373 381 112
169 215 411 261 614 24 104 46 264 46 335 0 36 4 65 8 65 5 0 14 -19 21 -42
37 -125 158 -340 292 -518 508 -675 1364 -1126 2466 -1300 205 -32 573 -70
687 -70 39 0 88 -3 109 -7 l38 -6 -4 -821 c-3 -720 -5 -834 -21 -926 -60 -367
-177 -680 -361 -974 -281 -446 -734 -821 -1205 -996 l-75 -28 -3 -211 -2 -211
869 0 c477 0 881 -3 897 -6 27 -5 34 1 90 78 300 407 510 901 594 1398 46 273
45 250 45 1795 0 1614 3 1529 -61 1824 -196 910 -805 1689 -1639 2096 -316
154 -607 242 -955 290 -139 19 -528 27 -660 14z m434 -309 c87 -6 204 -17 260
-25 646 -97 1268 -427 1670 -885 176 -201 285 -358 386 -555 98 -191 158 -358
229 -630 l25 -100 3 -1709 3 -1710 -24 -125 c-61 -308 -136 -529 -271 -796
-80 -158 -171 -301 -216 -339 -16 -14 -48 -30 -69 -36 -27 -7 -233 -10 -622
-8 -596 3 -637 6 -625 41 2 7 59 46 128 87 422 255 715 548 984 985 7 11 37
67 68 125 140 267 239 560 287 851 19 118 20 168 20 972 0 489 -4 847 -9 847
-5 0 -12 12 -15 27 -9 32 -124 147 -174 172 -52 26 -66 28 -272 46 -102 8
-255 24 -340 35 -851 108 -1565 380 -2078 789 -237 190 -386 356 -588 658
-119 179 -197 268 -259 297 -30 15 -38 15 -67 3 -99 -42 -167 -151 -223 -357
-82 -302 -141 -448 -242 -602 -169 -256 -389 -413 -713 -506 -74 -21 -149 -46
-166 -55 -49 -25 -133 -101 -176 -158 l-39 -52 3 -1071 c4 -1196 -4 -1062 73
-1343 78 -291 250 -639 449 -913 124 -169 369 -421 534 -550 85 -65 235 -164
322 -213 80 -44 115 -76 102 -89 -6 -6 -30 -14 -54 -19 -67 -13 -1155 -11
-1203 2 -52 14 -116 81 -179 188 -196 334 -323 681 -385 1050 -21 122 -21 146
-21 2110 0 1963 0 1987 21 2071 124 520 525 945 1060 1124 205 68 456 103 649
91 230 -14 278 -10 391 30 500 178 683 222 1006 244 173 12 184 12 357 1z
M4150 6711 c-86 -28 -141 -74 -181 -151 -23 -43 -24 -54 -24 -255 0 -237 7
-267 79 -337 53 -52 101 -72 182 -76 89 -5 156 21 213 83 72 78 76 94 76 325
0 204 0 205 -28 262 -46 93 -128 148 -232 154 -33 2 -71 0 -85 -5z m88 -413
c-3 -127 -5 -143 -20 -146 -17 -3 -18 9 -18 142 0 140 1 146 20 146 20 0 20
-5 18 -142z M6357 6706 c-101 -37 -167 -112 -188 -213 -17 -83 -8 -387 13
-435 25 -57 93 -123 150 -148 62 -27 171 -25 230 4 52 25 107 82 132 135 19
42 21 63 21 256 0 208 0 210 -27 260 -31 60 -67 95 -128 125 -56 28 -151 36
-203 16z m101 -408 c-3 -135 -4 -143 -23 -143 -19 0 -20 8 -23 143 l-3 142 26
0 26 0 -3 -142z M4983 5170 c-66 -40 -86 -103 -54 -174 16 -37 29 -51 63 -66
40 -18 67 -20 338 -20 271 0 298 2 338 20 77 35 103 138 51 204 -43 55 -52 56
-391 56 -293 0 -315 -1 -345 -20z M5211 4239 c-78 -24 -151 -93 -187 -178 -8
-20 -14 -68 -14 -123 0 -76 4 -97 27 -144 30 -61 88 -114 160 -146 67 -30 187
-30 264 0 70 28 130 78 163 138 24 42 26 57 26 156 0 79 -4 117 -16 139 -26
51 -85 109 -138 137 -43 22 -66 26 -151 29 -55 1 -115 -2 -134 -8z m234 -43
c168 -78 216 -297 97 -437 -55 -64 -122 -93 -212 -93 -116 0 -198 50 -251 153
-92 179 47 401 251 401 47 0 79 -7 115 -24z M2575 2799 c-199 -46 -376 -146
-527 -295 -140 -139 -242 -316 -296 -511 l-27 -98 -3 -782 -3 -783 3611 0
3611 0 -3 782 -4 783 -26 98 c-55 200 -158 375 -305 518 -122 118 -240 195
-385 249 -70 26 -186 52 -198 45 -13 -8 -13 -81 0 -124 16 -55 58 -90 179
-147 62 -30 136 -70 165 -91 133 -95 246 -233 301 -370 56 -139 55 -116 55
-835 0 -661 0 -668 -20 -668 -11 0 -20 -7 -20 -15 0 -13 -40 -15 -300 -15
-193 0 -300 -4 -300 -10 0 -5 -20 -10 -45 -10 -25 0 -45 -3 -45 -7 0 -5 -21
-17 -48 -27 -26 -10 -54 -24 -62 -31 -8 -7 -23 -15 -32 -18 -17 -6 -18 22 -18
498 l0 505 -140 0 -140 0 -2 -504 -3 -505 -69 35 c-38 19 -78 34 -88 34 -10 0
-18 5 -18 10 0 7 -690 10 -2050 10 -1360 0 -2050 -3 -2050 -10 0 -5 -5 -10
-11 -10 -6 0 -42 -15 -80 -34 l-69 -34 0 504 0 504 -140 0 -140 0 0 -505 0
-504 -72 37 c-40 20 -74 40 -76 45 -2 4 -12 7 -23 7 -10 0 -19 5 -19 10 0 6
-107 10 -300 10 -260 0 -300 2 -300 15 0 11 -11 15 -40 15 l-40 0 0 688 c0
777 -5 721 81 879 103 191 196 278 427 397 127 66 139 74 160 116 17 34 22 59
20 100 -3 61 -8 64 -73 49z M4500 2633 c0 -196 14 -285 62 -400 225 -543 931
-687 1348 -274 88 87 145 169 188 274 48 116 62 204 62 401 l0 174 -37 -9
c-21 -4 -39 -8 -40 -9 -2 0 -9 0 -15 0 -17 0 -68 -44 -68 -59 0 -6 -4 -11 -8
-11 -5 0 -12 -53 -15 -117 -4 -72 -14 -142 -26 -178 -10 -33 -24 -78 -30 -101
-13 -49 -79 -155 -129 -207 -126 -131 -355 -205 -548 -178 -154 22 -284 82
-383 179 -66 65 -127 163 -143 231 -6 25 -17 66 -25 91 -8 25 -17 98 -20 163
-3 64 -9 117 -13 117 -4 0 -10 10 -14 23 -6 24 -43 43 -108 57 l-38 7 0 -174z"/>
</g>
</svg>
