<?xml version="1.0" standalone="no"?>
<!DOCTYPE svg PUBLIC "-//W3C//DTD SVG 20010904//EN"
 "http://www.w3.org/TR/2001/REC-SVG-20010904/DTD/svg10.dtd">
<svg version="1.0" xmlns="http://www.w3.org/2000/svg"
 width="2048.000000pt" height="2048.000000pt" viewBox="0 0 2048.000000 2048.000000"
 preserveAspectRatio="xMidYMid meet">
<metadata>
Created by potrace 1.13, written by Peter Selinger 2001-2015
</metadata>
<g transform="translate(0.000000,2048.000000) scale(0.192120,-0.192120)"
fill="#000000" stroke="none">
<path d="M2060 10321 c-75 -23 -146 -87 -179 -161 -24 -53 -27 -140 -7 -198 8
-22 150 -243 315 -491 266 -398 307 -455 349 -482 26 -16 65 -34 87 -40 84
-23 206 12 266 78 64 68 92 177 69 261 -17 65 -617 960 -664 991 -70 46 -166
63 -236 42z m180 -328 c30 -32 148 -195 260 -363 204 -304 204 -305 205 -360
0 -51 -2 -55 -25 -59 -64 -8 -93 27 -353 418 -180 269 -227 349 -227 385 0 31
7 36 49 36 30 0 44 -9 91 -57z M8437 10316 c-88 -33 -99 -46 -417 -523 -198
-296 -313 -477 -320 -505 -23 -84 5 -193 69 -261 60 -66 182 -101 266 -78 22
6 61 24 87 40 42 27 83 84 349 482 165 248 307 469 315 491 20 58 17 145 -7
198 -25 55 -81 115 -134 142 -51 27 -156 34 -208 14z m111 -294 c6 -39 -40
-120 -225 -397 -254 -381 -282 -414 -346 -415 -34 0 -50 34 -38 78 9 30 359
561 439 665 52 69 95 99 137 95 22 -2 31 -9 33 -26z M687 9490 c-198 -50 -283
-277 -162 -436 32 -42 1169 -898 1229 -925 51 -23 136 -24 198 -3 145 49 222
227 159 369 -12 27 -29 58 -39 69 -27 30 -1173 888 -1213 907 -45 23 -123 31
-172 19z m187 -310 c28 -18 261 -190 519 -382 465 -349 500 -379 470 -409 -19
-19 -69 -12 -119 15 -65 35 -963 709 -991 744 -23 28 -29 53 -15 66 14 15 85
-3 136 -34z M9847 9490 c-20 -6 -50 -18 -65 -27 -54 -35 -1177 -881 -1194
-899 -35 -40 -61 -117 -62 -180 0 -113 77 -223 182 -258 62 -21 147 -20 198 3
59 27 1197 883 1228 923 77 102 73 249 -10 346 -63 74 -185 115 -277 92z m71
-296 c2 -11 -7 -33 -19 -48 -24 -31 -907 -696 -981 -740 -51 -30 -94 -39 -120
-24 -26 13 -22 41 10 70 64 60 961 723 1007 745 60 28 99 27 103 -3z M5070
8984 c-775 -56 -1407 -316 -1863 -767 -371 -367 -594 -805 -673 -1322 -23
-152 -23 -488 1 -697 l17 -157 -25 -30 c-136 -162 -205 -497 -163 -781 45
-298 184 -522 366 -591 28 -10 61 -19 74 -19 l23 0 6 -182 c3 -101 8 -190 12
-199 5 -15 -8 -18 -107 -24 -555 -33 -1095 -175 -1482 -391 -556 -310 -862
-765 -917 -1364 -29 -310 22 -556 181 -888 80 -165 138 -265 265 -452 159
-236 359 -482 554 -683 l104 -107 3887 0 3887 0 91 93 c195 199 409 462 567
697 126 186 185 286 265 452 158 326 209 581 181 888 -53 579 -339 1021 -859
1331 -397 236 -952 389 -1540 424 -99 6 -112 9 -107 24 4 9 9 98 12 197 l6
182 39 5 c106 14 224 109 303 244 184 314 176 823 -18 1111 l-36 52 10 118
c17 210 15 604 -4 717 -81 474 -316 913 -687 1285 -447 448 -1019 722 -1700
815 -111 15 -548 27 -670 19z m675 -319 c520 -72 982 -265 1354 -565 381 -309
647 -710 740 -1120 21 -92 22 -111 19 -662 -2 -311 -7 -570 -11 -575 -12 -11
-58 43 -104 124 -235 410 -247 428 -319 501 -116 117 -128 120 -534 153 -291
23 -598 77 -800 141 -52 17 -161 57 -241 89 -171 69 -220 79 -273 54 -72 -34
-125 -112 -141 -207 -4 -27 -11 -38 -23 -38 -10 0 -22 -4 -28 -10 -6 -6 -39
15 -94 63 -47 40 -112 94 -145 121 -62 50 -166 106 -198 106 -34 0 -81 -33
-174 -121 -51 -49 -98 -89 -103 -89 -26 0 -141 45 -200 77 -87 48 -219 137
-364 245 -65 49 -146 103 -180 121 -143 73 -264 26 -485 -188 -221 -213 -374
-445 -521 -790 -72 -169 -82 -182 -114 -149 -14 14 -16 73 -16 501 l0 486 26
115 c98 437 347 818 724 1109 377 290 876 470 1455 522 155 14 609 6 750 -14z
m-1742 -1878 c354 -279 655 -428 788 -388 90 27 131 118 113 252 -5 38 -8 69
-6 69 3 0 75 -69 162 -153 255 -249 473 -411 568 -424 34 -5 42 -2 61 23 21
26 23 36 17 94 -7 79 -59 236 -120 365 -24 52 -43 95 -40 95 2 0 29 -20 59
-44 264 -216 812 -354 1526 -384 l152 -7 40 -65 c102 -167 214 -364 321 -566
131 -246 171 -298 231 -298 91 0 163 147 218 449 26 136 28 137 46 20 36 -225
23 -340 -66 -609 -78 -234 -108 -287 -216 -374 -105 -86 -183 -177 -207 -240
-17 -45 -20 -77 -20 -216 0 -160 0 -164 30 -222 16 -32 49 -79 74 -103 l45
-44 7 26 c7 30 16 34 34 12 6 -8 22 -17 33 -21 12 -3 31 -14 42 -24 15 -14 62
-23 205 -40 737 -85 1279 -304 1625 -654 179 -182 298 -404 356 -666 15 -70
19 -127 19 -326 0 -224 -2 -249 -24 -335 -29 -110 -67 -202 -132 -319 -25 -47
-73 -138 -105 -204 -74 -151 -179 -306 -350 -521 -177 -221 -286 -337 -347
-367 -42 -20 -67 -23 -232 -29 -102 -4 -209 -11 -238 -16 l-52 -9 -12 33 c-8
22 -17 32 -26 28 -7 -3 -740 -5 -1628 -5 l-1614 0 0 -35 c0 -19 -4 -35 -10
-35 -5 0 -10 16 -10 35 l0 35 -1614 0 c-888 0 -1620 2 -1628 5 -8 3 -19 -8
-28 -29 l-15 -35 -40 14 c-28 10 -86 15 -191 15 -190 0 -244 10 -313 58 -77
52 -263 267 -427 492 -220 302 -364 562 -445 805 l-34 100 -3 297 c-3 332 2
377 72 555 70 181 171 337 306 474 321 325 863 548 1530 629 279 33 280 34
325 74 21 20 42 36 46 36 4 0 10 -12 14 -27 l7 -28 54 58 c30 33 66 82 79 110
23 47 25 61 25 212 0 161 0 162 -32 226 -25 51 -61 94 -179 211 -190 189 -192
193 -269 538 -32 144 -40 337 -20 487 15 113 20 116 41 33 67 -264 169 -455
254 -476 36 -9 71 9 89 45 9 16 25 73 37 128 120 558 428 1068 793 1314 l58
39 40 -33 c22 -17 90 -72 151 -120z M4105 5027 c-66 -31 -131 -105 -150 -170
-11 -36 -15 -99 -15 -222 0 -216 10 -256 83 -330 140 -139 357 -104 444 73 28
57 28 58 28 257 0 188 -1 203 -23 250 -48 104 -126 157 -241 162 -65 3 -84 0
-126 -20z m143 -235 c9 -7 12 -47 10 -168 l-3 -159 -31 -3 c-58 -6 -64 12 -64
174 0 141 1 145 23 154 28 11 49 12 65 2z M6347 5036 c-64 -23 -119 -73 -155
-141 -27 -49 -27 -52 -27 -255 0 -204 0 -205 28 -262 87 -177 304 -212 444
-73 73 74 83 114 83 330 0 204 -10 250 -72 320 -75 85 -196 118 -301 81z m121
-244 c9 -7 12 -47 10 -168 l-3 -159 -27 -3 c-15 -2 -36 2 -48 8 -19 10 -20 20
-20 161 0 146 1 150 23 159 28 11 49 12 65 2z M4992 3230 c-77 -35 -103 -138
-51 -204 43 -55 52 -56 391 -56 293 0 315 1 345 20 65 39 85 105 54 175 -16
36 -29 50 -63 65 -40 18 -67 20 -338 20 -271 0 -298 -2 -338 -20z M4660 2057
c111 -155 318 -285 516 -322 203 -39 431 5 604 117 65 41 217 186 239 225 11
21 10 21 -75 -3 -204 -56 -319 -69 -609 -69 -213 0 -292 4 -375 18 -102 17
-275 57 -314 73 -16 6 -13 -3 14 -39z"/>
</g>
</svg>
