<?xml version="1.0" standalone="no"?>
<!DOCTYPE svg PUBLIC "-//W3C//DTD SVG 20010904//EN"
 "http://www.w3.org/TR/2001/REC-SVG-20010904/DTD/svg10.dtd">
<svg version="1.0" xmlns="http://www.w3.org/2000/svg"
 width="2048.000000pt" height="2048.000000pt" viewBox="0 0 2048.000000 2048.000000"
 preserveAspectRatio="xMidYMid meet">
<metadata>
Created by potrace 1.13, written by Peter Selinger 2001-2015
</metadata>
<g transform="translate(0.000000,2048.000000) scale(0.192120,-0.192120)"
fill="#000000" stroke="none">
<path d="M5340 10319 c-348 -34 -754 -145 -1012 -275 -46 -24 -47 -24 -150 -9
-120 17 -325 19 -453 5 -498 -57 -953 -302 -1273 -685 -236 -282 -386 -621
-437 -986 -13 -100 -15 -279 -13 -1412 l3 -1298 115 -51 c99 -45 501 -273 681
-387 l57 -36 -54 -60 c-31 -35 -59 -76 -65 -98 -6 -24 -9 -145 -7 -325 l3
-287 36 -92 c20 -51 34 -93 31 -93 -7 0 -153 118 -587 474 -387 318 -391 321
-584 429 -161 90 -264 150 -279 162 -1 1 5 19 13 40 32 75 -9 149 -170 311
-130 130 -135 143 -34 104 36 -15 55 -18 64 -10 9 7 50 -7 146 -51 74 -34 143
-63 154 -64 11 -2 73 -24 138 -49 144 -57 216 -72 255 -54 28 14 57 62 68 114
7 35 94 -10 -691 356 -530 247 -558 257 -692 245 -114 -11 -175 -51 -214 -141
-41 -94 -25 -213 38 -278 15 -16 203 -126 418 -245 l392 -218 -24 -46 c-74
-142 -41 -318 77 -410 19 -15 177 -98 350 -184 173 -87 329 -168 346 -181 29
-21 33 -31 43 -106 70 -498 239 -955 510 -1376 29 -45 56 -82 61 -82 4 0 194
83 422 184 228 101 470 208 537 236 67 29 120 55 117 57 -7 7 -261 180 -533
363 -138 93 -254 174 -258 180 -12 19 -8 1176 4 1198 24 44 49 37 323 -84 294
-130 1846 -814 1978 -872 l85 -37 -45 -3 c-25 -2 -61 2 -80 8 -31 10 -48 7
-146 -24 -218 -68 -1439 -468 -1452 -475 -8 -5 20 -16 67 -29 134 -36 150 -56
116 -152 -8 -24 -14 -45 -11 -47 5 -5 113 42 871 377 363 161 694 307 735 325
97 41 2185 964 2286 1010 42 19 83 35 91 35 8 0 25 -11 38 -25 l25 -24 0 -575
c0 -389 -3 -582 -11 -598 -6 -14 -171 -131 -406 -287 l-395 -264 54 -22 c29
-12 73 -31 98 -43 25 -11 224 -99 442 -196 218 -96 419 -186 447 -200 28 -15
53 -26 56 -26 3 0 34 44 69 98 267 413 439 878 507 1372 6 47 16 91 22 98 6 8
163 90 350 184 378 189 407 210 447 316 31 80 25 197 -13 273 -19 39 -23 55
-14 61 7 4 185 103 396 220 413 229 427 239 452 332 27 98 -18 234 -92 283
-55 36 -143 49 -247 36 -83 -11 -110 -22 -614 -257 -693 -323 -651 -301 -643
-334 12 -50 40 -97 67 -112 22 -12 36 -12 85 -2 72 15 320 106 472 174 82 37
119 48 129 41 11 -6 33 -2 71 13 84 33 112 38 104 19 -3 -9 -7 -14 -10 -12
-10 11 -224 -199 -269 -265 -43 -61 -56 -113 -42 -160 15 -50 28 -40 -245
-192 l-212 -119 -349 -286 c-460 -378 -628 -513 -631 -509 -2 2 15 55 36 118
l39 115 -2 288 c-2 196 -7 290 -14 295 -6 4 -17 19 -25 34 -8 16 -48 62 -89
104 -159 163 -175 164 -490 37 -124 -50 -283 -116 -355 -148 -71 -31 -204 -86
-295 -122 -363 -142 -459 -182 -807 -333 -129 -57 -223 -90 -254 -90 -12 0
-54 10 -93 22 -97 30 -235 29 -326 0 -114 -38 -138 -34 -370 68 -268 117 -548
233 -689 287 -80 30 -237 95 -350 145 -208 91 -299 129 -535 219 -165 63 -194
60 -300 -26 -37 -29 -58 -41 -61 -33 -26 78 -29 197 -32 1119 l-4 966 63 7
c91 9 273 59 382 104 336 141 587 389 757 747 93 199 164 467 175 673 4 61 10
112 14 112 4 0 12 -19 19 -42 37 -125 158 -340 292 -518 370 -490 942 -874
1649 -1107 433 -142 996 -241 1490 -262 l155 -6 -1 -820 c0 -702 -2 -832 -16
-905 -9 -47 -14 -87 -13 -88 2 -2 23 9 47 26 181 124 763 442 809 442 7 0 9
330 6 963 -3 925 -4 967 -24 1092 -43 259 -93 449 -179 667 -341 876 -1066
1546 -1966 1818 -152 46 -321 82 -488 105 -139 19 -528 27 -660 14z m434 -309
c87 -6 204 -17 260 -25 646 -97 1268 -427 1670 -885 176 -201 285 -358 386
-555 98 -191 159 -359 228 -630 l26 -100 3 -1025 3 -1025 -138 -77 c-76 -43
-141 -78 -145 -78 -4 0 -7 16 -7 35 0 24 -5 35 -15 35 -13 0 -15 78 -15 640 0
420 -3 640 -10 640 -5 0 -10 9 -10 20 0 11 -4 20 -9 20 -5 0 -12 12 -16 27 -8
34 -119 145 -173 172 -47 24 -114 34 -367 56 -1213 105 -2172 529 -2721 1205
-33 41 -116 158 -184 259 -125 187 -202 275 -265 305 -34 17 -38 17 -80 -4
-94 -45 -155 -147 -211 -348 -90 -328 -143 -457 -252 -619 -173 -257 -387
-401 -747 -503 -119 -34 -156 -54 -225 -121 -72 -70 -100 -107 -107 -140 -3
-17 -12 -33 -19 -36 -12 -4 -14 -139 -14 -794 0 -779 0 -790 -19 -779 -18 9
-20 6 -23 -30 l-3 -40 -142 78 -142 77 -1 1335 c0 1309 1 1337 21 1420 124
520 525 945 1060 1124 205 68 456 103 649 91 230 -14 278 -10 391 30 500 178
683 222 1006 244 173 12 184 12 357 1z m-4697 -4252 c-3 -8 -6 -5 -6 6 -1 11
2 17 5 13 3 -3 4 -12 1 -19z m7385 -1190 c20 -16 68 -103 68 -123 0 -15 -272
-247 -359 -308 -72 -50 -163 -77 -261 -77 -47 0 -91 4 -98 9 -21 13 106 135
293 282 201 157 299 224 336 228 3 1 12 -5 21 -11z m-6138 -55 c179 -115 527
-417 511 -443 -9 -15 -161 -12 -221 4 -29 7 -74 26 -100 40 -55 30 -372 289
-380 310 -6 15 36 105 60 129 21 21 48 12 130 -40z m3136 -49 c44 -24 100 -79
89 -88 -7 -5 -173 -28 -240 -33 -60 -5 -194 9 -206 21 -10 9 37 65 74 87 93
58 192 63 283 13z m-2853 -619 c122 -42 145 -55 257 -148 32 -26 98 -75 147
-108 79 -53 89 -63 89 -89 0 -19 -5 -30 -14 -30 -8 0 -16 -4 -18 -9 -3 -9
-125 -68 -232 -112 -87 -36 -129 -37 -160 -4 -34 37 -140 238 -179 340 -62
165 -71 228 -29 209 9 -4 72 -26 139 -49z m5597 38 c20 -65 -154 -461 -240
-547 -33 -34 -114 -13 -295 74 -94 45 -114 60 -122 85 -9 27 -3 34 83 93 41
28 118 86 170 128 100 80 144 104 239 129 32 8 78 24 102 35 54 24 56 24 63 3z
M4150 6711 c-86 -28 -141 -74 -181 -151 -23 -43 -24 -54 -24 -255 0 -237 7
-267 79 -337 53 -52 101 -72 182 -76 89 -5 156 21 213 83 72 78 76 94 76 325
0 204 0 205 -28 262 -46 93 -128 148 -232 154 -33 2 -71 0 -85 -5z m88 -413
c-3 -127 -5 -143 -20 -146 -17 -3 -18 9 -18 142 0 140 1 146 20 146 20 0 20
-5 18 -142z M6357 6706 c-101 -37 -167 -112 -188 -213 -17 -83 -8 -387 13
-435 25 -57 93 -123 150 -148 62 -27 171 -25 230 4 52 25 107 82 132 135 19
42 21 63 21 256 0 208 0 210 -27 260 -31 60 -67 95 -128 125 -56 28 -151 36
-203 16z m101 -408 c-3 -135 -4 -143 -23 -143 -19 0 -20 8 -23 143 l-3 142 26
0 26 0 -3 -142z M4983 5170 c-66 -40 -86 -103 -54 -174 16 -37 29 -51 63 -66
40 -18 67 -20 338 -20 271 0 298 2 338 20 77 35 103 138 51 204 -43 55 -52 56
-391 56 -293 0 -315 -1 -345 -20z M6780 3324 c-206 -138 -1076 -721 -1325
-889 -115 -78 -383 -258 -595 -400 -485 -326 -931 -625 -1337 -899 -689 -463
-1024 -685 -1044 -691 -14 -5 -35 5 -73 34 -36 28 -69 44 -106 51 -29 5 -190
10 -359 10 -253 1 -309 3 -325 15 -11 8 -32 15 -47 15 -27 0 -31 5 -58 88 -28
82 -61 586 -61 933 0 320 2 336 56 421 15 23 43 66 61 95 65 101 246 249 427
349 37 20 139 69 228 110 89 40 164 77 167 82 3 5 26 20 51 32 67 34 106 67
124 105 16 33 21 101 10 142 l-6 22 -47 -19 c-127 -50 -498 -218 -590 -266
-242 -128 -471 -320 -579 -486 -86 -132 -142 -301 -142 -424 0 -41 79 -1156
95 -1329 4 -45 10 -64 26 -77 20 -17 225 -18 3993 -18 l3973 0 20 22 c19 21
24 70 68 668 27 355 48 683 47 730 -5 327 -232 635 -646 875 -115 66 -636 303
-678 307 -22 3 -23 -1 -26 -62 -3 -59 0 -70 26 -106 18 -24 53 -52 90 -72 34
-18 68 -39 76 -47 8 -8 91 -50 186 -94 264 -122 420 -221 546 -346 86 -85 126
-143 170 -245 l34 -78 0 -264 c0 -231 -19 -590 -46 -863 -8 -86 -34 -176 -53
-183 -9 -3 -20 -11 -24 -19 -6 -10 -75 -13 -341 -13 -183 0 -356 -4 -384 -10
-30 -5 -79 -27 -117 -51 -38 -24 -72 -39 -81 -35 -14 5 -1246 828 -1544 1031
-58 39 -289 195 -515 345 -225 150 -413 276 -417 279 -4 4 38 47 95 96 56 49
360 319 676 599 l574 509 -35 14 c-33 13 -43 26 -64 81 -9 22 -14 20 -154 -74z
m-990 -884 c0 -13 -35 -64 -76 -110 -57 -64 -106 -161 -107 -210 -2 -63 42
-144 117 -218 65 -64 132 -110 1153 -796 359 -241 660 -447 668 -459 13 -19
13 -23 0 -37 -14 -13 -253 -15 -2196 -18 -1499 -1 -2193 1 -2220 8 -49 14 -52
40 -6 73 52 39 2597 1746 2626 1762 32 17 41 18 41 5z"/>
</g>
</svg>
