<?xml version="1.0" standalone="no"?>
<!DOCTYPE svg PUBLIC "-//W3C//DTD SVG 20010904//EN"
 "http://www.w3.org/TR/2001/REC-SVG-20010904/DTD/svg10.dtd">
<svg version="1.0" xmlns="http://www.w3.org/2000/svg"
 width="2048.000000pt" height="2048.000000pt" viewBox="0 0 2048.000000 2048.000000"
 preserveAspectRatio="xMidYMid meet">
<metadata>
Created by potrace 1.13, written by Peter Selinger 2001-2015
</metadata>
<g transform="translate(0.000000,2048.000000) scale(0.192120,-0.192120)"
fill="#000000" stroke="none">
<path d="M5065 10094 c-478 -38 -835 -130 -1200 -309 -717 -350 -1203 -995
-1320 -1751 -34 -214 -29 -569 10 -849 44 -311 151 -580 258 -645 79 -49 115
-14 152 148 90 388 218 681 416 949 112 152 265 300 400 390 l37 24 128 -103
c387 -310 685 -468 837 -443 48 9 102 55 117 100 13 39 16 146 5 194 -3 17 -5
31 -3 31 2 0 62 -57 133 -126 279 -270 525 -453 610 -454 33 0 62 27 69 63 12
66 -32 226 -114 409 -27 59 -45 108 -41 108 4 0 18 -12 32 -26 105 -112 403
-237 723 -303 255 -53 677 -101 891 -101 l82 0 101 -167 c108 -182 225 -393
316 -570 113 -221 198 -255 284 -113 43 72 76 180 107 348 51 273 72 842 39
1060 -87 591 -447 1159 -989 1565 -394 294 -858 479 -1385 552 -111 16 -578
28 -695 19z m510 -295 c882 -66 1643 -501 2057 -1174 101 -165 188 -378 218
-530 13 -69 10 -1168 -3 -1181 -4 -5 -16 -4 -25 2 -17 10 -41 49 -215 346 -96
162 -171 251 -260 309 -70 45 -115 55 -312 69 -532 38 -844 103 -1199 252
-145 61 -217 72 -268 39 -18 -11 -45 -32 -61 -46 -34 -30 -97 -133 -97 -159 0
-13 -5 -17 -20 -13 -11 3 -20 1 -20 -4 0 -19 -19 -6 -133 89 -190 158 -265
194 -334 158 -17 -8 -70 -52 -118 -96 -90 -83 -116 -97 -162 -85 -84 21 -262
128 -478 288 -178 133 -253 171 -330 172 -108 0 -235 -78 -402 -247 -205 -208
-300 -346 -445 -648 -49 -102 -95 -196 -103 -210 -19 -34 -46 -32 -58 5 -6 17
-12 221 -14 465 l-5 435 27 119 c146 649 618 1169 1312 1445 409 162 955 238
1448 200z M2513 7092 c-154 -208 -199 -627 -101 -932 72 -225 217 -390 368
-422 l60 -12 0 -142 c0 -121 22 -370 34 -382 7 -7 101 100 124 141 23 40 23
48 20 202 -4 138 -7 165 -25 200 -20 39 -131 154 -203 211 -67 53 -121 119
-155 189 -45 93 -64 170 -110 435 -18 103 -19 299 -2 438 7 56 13 102 12 102
-1 0 -11 -13 -22 -28z M8172 6958 c28 -222 22 -337 -28 -533 -49 -192 -98
-314 -156 -386 -18 -22 -69 -67 -113 -99 -122 -89 -193 -163 -213 -219 -7 -20
-12 -95 -12 -183 0 -173 4 -186 93 -283 l54 -60 12 68 c18 102 33 344 26 408
l-6 57 43 6 c190 29 357 245 420 546 43 202 22 472 -50 652 -26 65 -76 158
-85 158 -1 0 5 -60 15 -132z M4132 6701 c-66 -23 -126 -79 -158 -146 -23 -47
-24 -61 -24 -246 0 -221 8 -259 66 -327 19 -23 59 -53 89 -67 48 -24 64 -27
133 -24 66 3 86 9 127 34 57 35 110 100 125 153 5 20 10 125 10 232 0 183 -2
198 -24 245 -31 68 -101 130 -167 149 -68 21 -111 20 -177 -3z M6356 6704
c-67 -21 -147 -102 -170 -172 -15 -44 -17 -83 -14 -249 l3 -198 31 -55 c21
-38 48 -67 88 -95 52 -36 64 -40 132 -43 128 -7 226 50 275 161 23 49 24 63
24 252 0 183 -2 204 -21 246 -61 131 -211 197 -348 153z M547 6229 c-81 -19
-123 -55 -158 -133 -41 -93 -24 -213 38 -278 15 -16 203 -126 419 -245 l392
-218 -19 -31 c-31 -50 -52 -151 -45 -212 9 -74 49 -155 99 -198 24 -20 186
-109 372 -203 l330 -166 230 -190 c276 -227 307 -249 397 -276 60 -18 87 -21
174 -16 l103 5 3 -42 3 -41 251 -170 c438 -296 543 -370 536 -376 -4 -3 -25
-13 -48 -22 -121 -47 -1605 -707 -1693 -753 -242 -128 -471 -320 -579 -486
-86 -132 -142 -301 -142 -424 0 -41 79 -1156 95 -1329 4 -45 10 -64 26 -77 20
-17 225 -18 3993 -18 l3973 0 20 22 c19 21 24 70 68 668 27 355 48 683 47 730
-3 231 -131 476 -345 661 -211 182 -309 234 -1177 617 -410 181 -765 338 -790
350 -25 11 -72 32 -105 47 -54 24 -58 27 -40 37 67 37 745 495 768 519 16 18
27 40 27 58 l0 28 93 -5 c105 -5 174 7 251 43 29 14 166 118 307 234 l256 209
333 167 c370 186 401 207 440 313 30 80 25 194 -13 272 -21 42 -24 57 -15 63
7 4 186 103 397 220 414 228 427 238 452 331 27 98 -18 234 -92 283 -55 36
-143 49 -247 36 -84 -11 -110 -22 -812 -349 -677 -315 -743 -348 -996 -498
-149 -89 -282 -169 -295 -178 l-24 -18 34 -30 c46 -39 103 -51 156 -32 22 8
159 73 304 144 145 72 391 189 545 260 413 191 383 179 390 163 3 -10 74 19
273 112 292 136 406 179 447 169 67 -17 12 -59 -302 -237 -153 -86 -193 -113
-243 -166 -89 -96 -116 -162 -95 -234 10 -34 11 -33 -269 -189 -211 -118 -230
-131 -465 -324 -596 -488 -751 -619 -764 -645 -8 -15 -22 -33 -30 -40 -15 -12
-16 35 -16 503 0 346 -4 524 -11 537 -29 54 -12 60 -782 -280 -397 -176 -906
-401 -1131 -500 l-409 -181 -113 0 c-105 0 -117 2 -191 34 -89 38 -1726 762
-2000 885 -192 86 -221 92 -244 49 -7 -13 -11 -181 -10 -506 0 -268 -3 -503
-7 -522 l-8 -35 -24 41 c-29 48 -72 85 -618 532 -381 313 -411 335 -560 418
-298 165 -344 194 -336 212 33 77 -7 166 -124 277 -20 19 -125 85 -233 146
-205 116 -309 186 -309 206 0 20 47 26 98 12 61 -16 150 -54 416 -178 159 -74
221 -99 227 -90 8 14 412 -170 919 -419 162 -79 306 -149 320 -154 60 -23 151
-5 203 40 21 19 48 0 -328 223 -239 141 -319 181 -985 492 -552 257 -739 340
-785 347 -71 12 -146 11 -198 -1z m7039 -1289 l24 0 0 -370 c0 -355 -1 -371
-21 -410 -25 -48 -78 -93 -224 -190 -295 -196 -393 -276 -441 -358 -34 -58
-38 -120 -9 -152 l20 -22 -30 -24 c-17 -13 -912 -617 -1990 -1341 -2316 -1557
-2347 -1577 -2402 -1610 l-43 -25 -57 43 c-87 65 -113 69 -466 69 -261 0 -311
2 -323 15 -9 8 -29 15 -45 15 -16 0 -29 1 -29 3 0 1 -9 26 -20 56 -25 68 -27
85 -50 391 -14 176 -20 350 -20 563 l0 308 31 62 c126 250 333 416 744 598 77
34 145 68 150 75 6 7 242 114 525 239 283 125 552 245 596 267 103 50 187 123
209 183 16 41 16 59 0 111 -6 18 3 25 67 53 309 139 1151 510 1317 581 l204
88 40 -26 c34 -23 51 -27 106 -26 36 0 89 5 116 11 58 12 439 174 1285 548
678 300 703 311 708 289 2 -8 14 -14 28 -14z m-4306 -48 c63 -27 369 -162 680
-299 311 -138 592 -260 625 -271 75 -26 286 -67 425 -82 58 -7 106 -13 108
-15 6 -6 -95 -40 -598 -205 -703 -230 -947 -309 -985 -316 -31 -6 -35 -4 -41
22 -21 89 -75 154 -199 239 -38 26 -74 53 -80 59 -5 7 -27 22 -47 35 -21 12
-38 26 -38 31 0 5 -19 27 -42 49 l-43 40 -3 379 c-3 414 -5 404 53 382 20 -7
25 -6 25 5 0 17 -5 18 160 -53z m3801 -1652 c34 -64 65 -93 144 -132 28 -14
273 -123 545 -243 272 -120 500 -224 506 -231 5 -7 87 -48 181 -92 266 -123
417 -219 549 -349 76 -74 115 -132 160 -229 l34 -75 0 -273 c0 -351 -35 -860
-67 -973 -26 -94 -14 -91 -424 -95 -393 -3 -382 -2 -481 -74 -46 -34 -51 -36
-75 -23 -15 8 -360 238 -767 511 -408 273 -958 642 -1223 820 l-483 323 57 50
c32 28 276 244 543 480 690 612 751 665 760 665 5 0 23 -27 41 -60z m-1351
-854 c0 -3 -6 -11 -12 -18 -7 -8 -21 -27 -30 -43 -9 -17 -33 -59 -53 -94 -52
-89 -55 -126 -17 -201 43 -83 84 -130 172 -198 41 -32 440 -303 885 -601 446
-299 820 -555 832 -569 38 -44 14 -55 -135 -63 -178 -10 -3938 -10 -4100 0
-143 9 -163 16 -143 53 12 24 2524 1718 2564 1730 29 8 37 9 37 4z M5005 5180
c-72 -30 -106 -133 -66 -197 42 -68 43 -68 372 -71 190 -2 312 1 337 8 59 15
102 68 102 126 0 56 -22 99 -63 124 -30 19 -52 20 -347 19 -173 0 -324 -4
-335 -9z"/>
</g>
</svg>
