<?xml version="1.0" standalone="no"?>
<!DOCTYPE svg PUBLIC "-//W3C//DTD SVG 20010904//EN"
 "http://www.w3.org/TR/2001/REC-SVG-20010904/DTD/svg10.dtd">
<svg version="1.0" xmlns="http://www.w3.org/2000/svg"
 width="2048.000000pt" height="2048.000000pt" viewBox="0 0 2048.000000 2048.000000"
 preserveAspectRatio="xMidYMid meet">
<metadata>
Created by potrace 1.13, written by Peter Selinger 2001-2015
</metadata>
<g transform="translate(0.000000,2048.000000) scale(0.192120,-0.192120)"
fill="#000000" stroke="none">
<path d="M5234 10314 c-58 -21 -120 -77 -152 -138 l-27 -51 0 -625 c0 -616 0
-626 21 -671 82 -177 313 -220 449 -84 21 21 47 59 59 84 21 45 21 55 21 671
l0 625 -27 51 c-66 125 -213 184 -344 138z m116 -825 l0 -560 -22 3 -23 3 -3
558 -2 557 25 0 25 0 0 -561z M2887 10146 c-65 -24 -120 -73 -155 -141 -21
-40 -26 -64 -25 -120 0 -41 7 -85 16 -106 25 -57 880 -1157 923 -1188 53 -38
96 -51 168 -51 150 0 269 122 269 275 0 39 -7 76 -20 105 -19 42 -816 1083
-886 1159 -68 72 -193 101 -290 67z m148 -275 c22 -10 56 -36 76 -57 32 -35
660 -843 702 -904 18 -26 22 -76 8 -98 -16 -26 -79 -3 -131 47 -46 43 -620
780 -702 901 -50 73 -51 126 -3 129 6 0 28 -8 50 -18z M7585 10136 c-27 -13
-60 -33 -71 -43 -33 -27 -876 -1123 -897 -1164 -46 -93 -27 -217 46 -296 112
-122 298 -125 408 -7 66 71 854 1098 876 1143 18 34 23 61 23 115 -1 109 -46
189 -137 243 -68 39 -179 44 -248 9z m129 -293 c-1 -18 -13 -52 -27 -75 -28
-47 -608 -799 -684 -887 -45 -52 -92 -81 -131 -81 -26 0 -44 43 -32 76 9 24
595 790 699 913 57 68 96 92 141 89 33 -3 35 -5 34 -35z M2393 8390 c-80 -17
-140 -57 -189 -126 -66 -93 -64 -43 -72 -1384 l-7 -1215 -83 -5 -83 -5 1 1062
c2 986 1 1066 -16 1115 -33 100 -85 161 -174 202 -36 16 -65 21 -145 21 -89 0
-106 -3 -157 -28 -67 -33 -111 -80 -147 -157 -25 -53 -26 -63 -32 -315 -4
-143 -8 -659 -8 -1147 -1 -703 -4 -888 -13 -888 -7 0 -44 -13 -83 -29 l-70
-28 -5 836 -5 836 -28 61 c-55 118 -142 174 -284 182 -117 6 -181 -16 -254
-88 -40 -38 -64 -73 -80 -115 l-24 -60 -3 -1470 c-2 -1013 0 -1500 8 -1565 54
-471 293 -945 635 -1256 l85 -77 0 -1209 0 -1208 1115 0 1115 0 0 1082 c0 947
2 1084 15 1093 8 6 49 29 92 53 121 66 287 194 409 316 309 309 504 693 574
1127 68 424 115 618 342 1407 166 581 170 597 166 671 -8 131 -65 213 -189
271 -134 62 -263 49 -357 -35 -28 -25 -61 -62 -73 -81 -12 -19 -138 -306 -280
-637 -142 -331 -262 -603 -266 -604 -5 -1 -43 -3 -87 -6 l-78 -4 3 1486 2
1486 -22 57 c-54 138 -142 200 -293 206 -162 7 -264 -49 -324 -180 l-29 -63
-6 -535 c-4 -294 -7 -818 -8 -1164 l-1 -629 -37 7 c-21 3 -60 6 -87 6 l-49 0
5 1203 c4 760 2 1222 -4 1257 -21 120 -99 221 -196 254 -58 20 -164 28 -219
16z m120 -262 c9 -7 28 -28 42 -47 l25 -35 0 -1153 c0 -688 4 -1153 9 -1153 5
0 12 -19 16 -42 6 -35 21 -55 90 -125 119 -120 191 -146 281 -103 49 24 184
152 184 174 0 9 5 16 10 16 6 0 10 16 10 35 0 19 4 35 9 35 6 0 11 415 13
1063 l3 1062 24 40 c32 54 48 65 91 65 31 0 43 -7 73 -42 l37 -42 0 -1238 c0
-814 3 -1239 10 -1243 6 -3 10 -24 10 -46 0 -21 5 -39 10 -39 6 0 10 -6 10
-13 0 -8 18 -41 39 -74 l39 -60 -65 -7 c-732 -75 -1334 -619 -1493 -1351 -25
-118 -44 -314 -35 -371 9 -60 54 -110 116 -129 l47 -13 7 106 c24 386 128 695
323 962 73 101 228 251 337 329 206 145 506 258 736 277 l77 7 16 -56 c21 -71
56 -114 108 -127 80 -22 149 12 259 127 94 99 105 120 339 663 161 374 191
437 231 477 35 36 97 51 142 34 27 -10 27 -11 27 -106 0 -92 -5 -112 -109
-479 -61 -211 -121 -442 -135 -513 -14 -70 -41 -189 -60 -263 -43 -169 -87
-374 -126 -600 -17 -96 -39 -211 -50 -255 -47 -200 -150 -424 -261 -572 -109
-145 -304 -336 -460 -451 -130 -97 -191 -159 -231 -237 -26 -50 -37 -102 -28
-139 l8 -35 -72 -30 c-158 -66 -368 -113 -584 -131 -226 -19 -496 10 -731 80
-187 56 -407 160 -541 256 l-49 35 15 41 c39 112 0 195 -201 423 -170 193
-281 382 -355 604 -75 223 -70 91 -70 1801 l0 1539 22 15 c12 9 30 16 40 16
10 0 18 7 18 15 0 9 9 15 25 15 17 0 34 -13 60 -46 l35 -47 0 -728 c0 -474 3
-730 10 -734 6 -3 10 -18 10 -33 0 -15 9 -41 20 -59 31 -52 131 -142 188 -170
48 -23 56 -24 98 -14 26 7 63 23 83 36 53 37 149 134 163 167 7 15 16 28 20
28 5 0 8 15 8 34 0 19 4 37 9 40 4 3 10 475 13 1049 l5 1044 28 47 c31 52 50
66 94 66 24 0 37 -9 66 -46 l35 -47 0 -984 c0 -865 2 -984 15 -989 9 -4 15
-19 15 -39 0 -33 10 -47 85 -126 146 -152 240 -152 394 0 39 39 71 77 71 86 0
8 5 15 10 15 6 0 10 16 10 35 0 19 4 35 9 35 5 0 10 475 12 1143 l4 1142 30
47 c40 64 89 85 128 56z m-1107 -5898 c284 -118 600 -192 944 -221 172 -15
554 -5 753 19 81 10 147 16 147 14 0 -1 -16 -33 -35 -71 -19 -37 -35 -75 -35
-84 0 -10 -7 -20 -15 -23 -13 -5 -15 -81 -15 -600 0 -587 0 -594 -20 -594 -17
0 -20 -7 -20 -45 l0 -45 -845 0 -845 0 0 40 c0 33 -3 40 -20 40 -20 0 -20 7
-20 698 0 384 -3 701 -6 704 -4 5 -73 195 -74 206 0 5 15 0 106 -38z M8090
8386 c-30 -6 -66 -18 -78 -25 -45 -24 -104 -85 -126 -130 -50 -100 -49 -71
-42 -1363 l8 -1208 -45 0 c-24 0 -66 -3 -92 -7 l-48 -6 6 44 c3 24 2 546 -2
1159 l-7 1115 -22 56 c-29 73 -82 133 -146 167 -47 25 -60 27 -166 27 -106 0
-119 -2 -166 -27 -64 -34 -117 -94 -146 -167 l-23 -56 3 -1492 4 -1491 -84 5
c-45 3 -86 8 -89 12 -4 3 -123 276 -264 606 -142 330 -271 619 -286 641 -34
49 -76 87 -133 117 -58 31 -187 30 -268 -2 -82 -32 -161 -107 -187 -177 -43
-114 -39 -138 140 -759 226 -789 279 -1003 334 -1356 44 -281 102 -467 211
-681 177 -345 445 -630 784 -831 52 -31 98 -58 102 -59 5 -2 8 -490 8 -1086
l0 -1082 1115 0 1115 0 0 1210 0 1210 48 42 c293 261 512 616 611 990 68 253
65 194 68 1388 2 597 0 1283 -5 1525 l-8 440 -28 62 c-55 120 -159 183 -300
183 -108 0 -169 -23 -237 -90 -40 -39 -63 -73 -80 -115 l-24 -60 4 -827 c2
-456 0 -828 -3 -828 -4 0 -23 8 -44 19 -20 10 -55 24 -78 31 l-41 12 -6 637
c-4 350 -7 855 -7 1122 0 534 -1 546 -62 642 -60 93 -174 144 -304 134 -137
-10 -236 -81 -285 -203 l-24 -59 3 -1070 3 -1070 -78 3 c-43 2 -82 7 -86 12
-5 4 -11 549 -13 1211 -4 800 -9 1221 -16 1254 -14 67 -43 122 -87 168 -46 49
-91 72 -166 86 -71 13 -94 13 -165 -3z m147 -283 c19 -21 38 -47 43 -58 4 -11
11 -534 15 -1162 4 -638 11 -1143 16 -1143 5 0 9 -16 9 -35 0 -19 5 -35 10
-35 6 0 10 -6 10 -13 0 -16 125 -137 179 -173 56 -37 134 -38 188 -2 103 68
193 172 193 222 0 14 5 28 10 31 7 4 10 345 10 990 0 967 0 984 20 1018 21 36
56 57 94 57 26 0 81 -55 96 -96 5 -13 13 -489 16 -1069 4 -575 11 -1045 16
-1045 4 0 8 -15 8 -33 0 -70 173 -239 274 -267 61 -17 112 2 189 71 71 63 112
122 122 174 5 22 10 367 12 767 l3 727 26 38 c32 47 41 53 86 53 32 0 42 -6
71 -45 l35 -45 7 -1162 c4 -640 5 -1327 3 -1528 l-4 -365 -32 -118 c-59 -219
-145 -405 -253 -548 -32 -42 -64 -83 -71 -90 -55 -58 -164 -186 -207 -243
-101 -132 -120 -199 -81 -283 l19 -43 -85 -56 c-165 -110 -394 -209 -596 -258
-178 -44 -299 -58 -488 -59 -250 -1 -424 27 -655 104 -140 47 -140 46 -140
121 -1 113 -70 209 -232 324 -226 159 -376 307 -495 483 -164 245 -239 458
-308 871 -53 312 -104 519 -296 1185 -136 472 -147 517 -151 612 l-5 102 42
11 c90 24 142 -11 205 -137 19 -40 114 -255 210 -478 96 -223 189 -427 206
-453 83 -122 237 -242 312 -242 74 0 129 51 150 140 l12 50 48 0 c116 0 378
-72 543 -150 517 -242 851 -768 882 -1390 l7 -135 25 3 c38 5 92 35 113 64 28
38 34 89 25 216 -34 485 -292 955 -687 1253 -121 91 -335 202 -478 248 -96 31
-254 65 -360 77 l-63 7 38 71 c20 39 40 73 45 74 4 2 7 24 7 48 0 24 5 44 10
44 7 0 10 419 10 1236 l0 1237 21 34 c26 41 70 66 104 57 14 -4 41 -26 59 -50
l33 -43 7 -1068 c5 -629 11 -1069 17 -1071 5 -2 9 -19 9 -38 0 -19 5 -34 10
-34 6 0 10 -6 10 -14 0 -24 156 -163 204 -181 85 -33 156 -5 266 104 64 64 90
104 90 140 0 17 5 31 10 31 7 0 10 390 10 1151 l0 1150 23 39 c38 68 94 77
144 23z m1123 -5842 c0 -10 -38 -109 -53 -136 -5 -11 -12 -53 -15 -92 -3 -53
-8 -73 -18 -73 -12 0 -14 -106 -14 -645 0 -638 0 -645 -20 -645 -17 0 -20 -7
-20 -45 l0 -45 -845 0 -845 0 0 45 c0 33 -4 45 -15 45 -13 0 -15 73 -15 600 0
393 -3 600 -10 600 -5 0 -10 6 -10 14 0 8 -16 45 -35 83 -19 37 -35 70 -35 74
0 3 71 -4 158 -15 217 -27 717 -29 902 -3 304 43 601 124 833 227 49 22 57 23
57 11z"/>
</g>
</svg>
