<?xml version="1.0" standalone="no"?>
<!DOCTYPE svg PUBLIC "-//W3C//DTD SVG 20010904//EN"
 "http://www.w3.org/TR/2001/REC-SVG-20010904/DTD/svg10.dtd">
<svg version="1.0" xmlns="http://www.w3.org/2000/svg"
 width="2048.000000pt" height="2048.000000pt" viewBox="0 0 2048.000000 2048.000000"
 preserveAspectRatio="xMidYMid meet">
<metadata>
Created by potrace 1.13, written by Peter Selinger 2001-2015
</metadata>
<g transform="translate(0.000000,2048.000000) scale(0.192120,-0.192120)"
fill="#000000" stroke="none">
<path d="M5060 10093 c-397 -28 -780 -117 -1090 -253 -111 -49 -122 -52 -350
-85 -551 -80 -858 -158 -1098 -276 -243 -120 -482 -299 -708 -530 -282 -290
-383 -445 -680 -1054 -517 -1061 -803 -1943 -804 -2486 -1 -602 398 -2118
1155 -4384 l230 -690 3615 0 3614 0 159 470 c764 2268 1190 3845 1224 4525 27
560 -285 1537 -857 2680 -262 523 -354 662 -630 944 -266 272 -568 483 -847
591 -226 87 -633 171 -1141 235 -141 18 -174 26 -250 59 -308 135 -649 221
-995 250 -116 10 -434 12 -547 4z m430 -233 c0 -15 7 -20 28 -20 46 0 49 -11
44 -138 -4 -107 -3 -122 18 -162 29 -58 116 -142 179 -175 65 -33 154 -56 391
-104 580 -117 901 -211 1047 -307 72 -48 206 -174 342 -322 115 -125 171 -162
247 -164 43 -1 46 -2 68 -47 27 -53 179 -449 241 -626 23 -67 44 -125 47 -130
10 -17 134 -402 202 -626 258 -854 356 -1468 302 -1879 -33 -243 -131 -577
-256 -870 -171 -402 -450 -900 -744 -1327 l-91 -133 -697 0 -698 0 0 213 0
212 79 28 c43 15 139 58 212 95 542 273 964 729 1192 1287 118 286 173 554
184 887 l6 176 36 7 c284 51 490 496 430 932 -23 168 -86 348 -153 436 l-26
34 10 134 c5 74 10 173 10 222 0 86 0 87 -25 87 -42 0 -91 -26 -120 -63 -51
-68 -57 -109 -64 -404 -4 -197 -9 -275 -18 -285 -7 -6 -13 -22 -13 -34 0 -12
-8 -32 -18 -44 l-18 -23 -38 33 c-38 34 -64 74 -190 305 -43 77 -102 181 -133
230 -137 224 -178 245 -493 265 -96 6 -256 20 -355 31 -351 39 -522 78 -768
178 -193 78 -228 87 -277 72 -22 -6 -40 -16 -40 -20 0 -13 96 -85 165 -123
289 -163 775 -265 1410 -296 l139 -7 58 -95 c99 -161 231 -397 328 -583 65
-124 105 -188 132 -212 75 -68 138 -43 199 80 33 67 80 245 100 378 7 48 16
87 19 87 4 0 15 -44 26 -97 49 -251 6 -620 -98 -827 -42 -85 -83 -131 -176
-198 -88 -63 -192 -164 -192 -185 0 -7 -4 -13 -10 -13 -5 0 -10 -11 -10 -25 0
-14 -4 -25 -10 -25 -6 0 -10 -27 -10 -62 0 -202 -36 -521 -70 -626 -29 -88
-144 -354 -190 -438 -65 -122 -230 -386 -281 -450 -72 -91 -263 -270 -364
-342 -50 -35 -192 -115 -320 -179 -126 -63 -249 -131 -273 -150 -24 -19 -65
-65 -92 -101 l-50 -65 0 -174 c0 -124 4 -178 13 -189 31 -40 57 -60 79 -61 12
-1 34 -5 46 -8 l24 -6 -4 -217 c-5 -239 -13 -282 -73 -409 -43 -92 -84 -153
-154 -227 -100 -104 -209 -171 -361 -222 -77 -25 -98 -28 -235 -28 -168 0
-227 11 -353 70 -215 99 -375 283 -453 519 -20 62 -23 95 -27 292 l-4 222 29
6 c60 13 98 32 109 53 6 12 14 19 17 15 4 -3 7 73 7 171 l0 177 -36 56 c-70
110 -119 146 -343 255 -215 104 -279 145 -421 262 -213 175 -363 353 -529 624
-191 313 -299 685 -318 1095 -3 76 -10 140 -15 143 -4 3 -8 14 -8 25 0 10 -4
19 -9 19 -5 0 -12 11 -15 24 -3 14 -47 62 -98 108 -231 208 -259 249 -310 448
-28 108 -30 130 -34 350 -4 199 -2 251 14 340 l18 105 18 -75 c53 -218 125
-386 197 -460 43 -44 79 -58 114 -42 34 16 50 53 80 188 63 282 203 619 344
829 127 191 290 362 444 467 67 45 42 54 198 -73 128 -104 284 -214 404 -286
227 -137 385 -178 477 -125 58 34 90 145 70 250 -5 28 -7 52 -4 52 3 0 71 -64
151 -142 292 -285 528 -453 608 -433 40 10 57 48 50 114 -8 77 -58 233 -113
349 -39 84 -45 92 -59 79 -8 -9 -15 -20 -15 -26 0 -6 -4 -11 -10 -11 -6 0 -10
-36 -10 -89 0 -66 -4 -92 -15 -101 -8 -7 -15 -19 -15 -26 0 -30 -18 -18 -191
123 -148 119 -216 165 -283 187 -65 22 -98 10 -167 -60 -101 -104 -113 -114
-141 -114 -83 0 -299 105 -496 241 -246 171 -357 218 -448 189 -86 -27 -198
-104 -299 -205 -92 -92 -241 -276 -323 -400 -54 -81 -137 -260 -192 -410 -28
-77 -58 -159 -66 -183 -9 -23 -25 -47 -37 -53 -17 -10 -24 -8 -39 11 -10 12
-21 34 -24 49 -3 14 -12 46 -20 70 -9 30 -14 91 -14 182 0 262 -55 391 -172
407 l-41 5 6 -114 c4 -63 12 -160 18 -216 l12 -102 -27 -32 c-95 -113 -176
-386 -176 -596 0 -398 193 -743 441 -788 l36 -7 6 -181 c10 -284 44 -477 129
-732 173 -521 529 -985 989 -1287 170 -112 418 -237 521 -263 l26 -7 1 -214 0
-214 -697 0 -697 0 -91 133 c-218 316 -416 649 -580 977 -233 465 -373 873
-420 1220 -60 454 62 1132 388 2155 112 353 349 998 409 1116 17 34 22 37 64
37 25 1 61 8 79 17 19 9 110 95 202 192 191 199 268 265 369 316 157 80 526
178 1040 277 232 45 355 93 435 170 72 69 92 123 91 238 -1 52 -4 98 -7 104
-3 5 -3 20 0 34 5 19 13 24 36 24 23 0 30 4 30 20 0 19 7 20 170 20 163 0 170
-1 170 -20z m-691 -11 c185 -39 252 -225 115 -321 -61 -43 -127 -62 -449 -127
-515 -103 -877 -204 -1035 -287 -77 -40 -210 -153 -301 -255 -105 -119 -218
-257 -256 -315 l-36 -54 -681 0 -681 0 65 42 c164 105 288 190 321 220 20 18
88 80 150 138 341 316 646 489 1019 579 205 49 280 63 678 126 176 28 263 67
364 163 l58 55 182 18 c321 31 410 35 487 18z m1406 -6 l199 -17 57 -51 c122
-113 189 -137 494 -181 407 -58 699 -118 896 -185 292 -99 549 -268 869 -573
114 -109 175 -157 295 -234 61 -39 123 -80 140 -92 l30 -20 -680 0 -680 0 -25
37 c-14 20 -56 75 -93 122 -190 240 -357 402 -477 465 -157 83 -517 183 -1030
286 -351 71 -383 80 -446 122 -142 95 -90 275 94 324 65 17 126 17 357 -3z
m-3651 -1589 c12 -30 6 -64 -30 -171 -56 -165 -111 -288 -177 -393 -116 -187
-181 -350 -292 -740 -125 -437 -202 -770 -245 -1052 -17 -116 -20 -185 -20
-466 0 -351 3 -384 56 -597 52 -207 124 -410 260 -730 85 -201 306 -616 484
-905 211 -345 326 -496 432 -569 101 -68 73 -65 711 -69 l577 -3 0 -33 c0 -18
9 -75 20 -127 105 -504 480 -863 933 -895 520 -37 973 364 1063 939 l18 117
547 0 c560 0 618 3 695 40 137 67 307 297 609 824 349 609 556 1117 646 1582
19 101 20 134 16 474 -4 395 -5 399 -82 770 -56 266 -240 924 -309 1105 -48
125 -111 259 -140 298 -91 120 -241 489 -234 574 l3 38 415 3 c235 1 443 -2
480 -7 59 -9 69 -14 105 -54 111 -121 512 -985 720 -1552 80 -220 184 -574
220 -752 l26 -132 -4 -418 -3 -418 -52 -245 c-171 -818 -495 -1941 -999 -3465
-171 -517 -189 -563 -234 -609 l-30 -31 -3405 -3 c-2932 -2 -3409 0 -3432 12
-45 23 -76 96 -203 473 -565 1686 -957 3061 -1094 3848 -23 129 -25 163 -25
475 0 373 3 403 71 673 62 248 160 543 284 852 213 530 533 1196 621 1293 39
44 43 46 115 52 41 4 255 8 475 9 358 1 403 -1 408 -15z M4150 6711 c-86 -28
-141 -74 -181 -151 -23 -43 -24 -54 -24 -255 0 -237 7 -267 79 -337 53 -52
101 -72 182 -76 90 -5 156 21 215 85 71 77 74 91 74 323 0 204 0 205 -28 262
-46 93 -128 148 -232 154 -33 2 -71 0 -85 -5z M6357 6706 c-101 -37 -167 -112
-188 -213 -17 -83 -8 -387 13 -435 25 -57 93 -123 150 -148 41 -18 65 -21 122
-18 113 6 195 59 240 157 19 42 21 63 21 256 0 208 0 210 -27 260 -31 60 -67
95 -128 125 -56 28 -151 36 -203 16z M4983 5170 c-66 -40 -86 -103 -54 -174
16 -37 29 -51 63 -66 40 -18 67 -20 338 -20 271 0 298 2 338 20 77 35 103 138
51 204 -43 55 -52 56 -391 56 -293 0 -315 -1 -345 -20z M4220 4214 c0 -14 68
-103 128 -166 178 -189 419 -311 717 -364 131 -23 392 -23 525 -1 294 50 544
176 722 365 60 63 128 152 128 166 0 3 -499 6 -1110 6 -610 0 -1110 -3 -1110
-6z m1393 -230 c66 -6 77 -10 77 -25 0 -12 -7 -19 -19 -19 -11 0 -21 -4 -23
-9 -5 -13 -242 -51 -318 -51 -71 0 -312 38 -320 50 -3 4 -14 9 -25 11 -11 3
-20 11 -20 19 0 11 15 17 50 21 71 8 507 10 598 3z"/>
</g>
</svg>
