<?xml version="1.0" standalone="no"?>
<!DOCTYPE svg PUBLIC "-//W3C//DTD SVG 20010904//EN"
 "http://www.w3.org/TR/2001/REC-SVG-20010904/DTD/svg10.dtd">
<svg version="1.0" xmlns="http://www.w3.org/2000/svg"
 width="2048.000000pt" height="2048.000000pt" viewBox="0 0 2048.000000 2048.000000"
 preserveAspectRatio="xMidYMid meet">
<metadata>
Created by potrace 1.13, written by Peter Selinger 2001-2015
</metadata>
<g transform="translate(0.000000,2048.000000) scale(0.192120,-0.192120)"
fill="#000000" stroke="none">
<path d="M5065 10094 c-476 -38 -836 -131 -1200 -309 -835 -408 -1345 -1204
-1345 -2099 0 -544 128 -1046 293 -1146 79 -49 115 -14 153 148 107 468 288
831 553 1114 71 76 187 175 263 226 l38 24 57 -49 c362 -310 744 -522 900
-498 44 6 95 41 114 77 18 34 27 121 18 183 -4 32 -7 60 -6 61 1 2 52 -45 112
-103 244 -236 418 -378 539 -438 76 -39 101 -42 133 -20 57 40 26 204 -86 456
-27 60 -46 109 -42 109 4 0 18 -12 32 -26 70 -75 233 -160 432 -226 293 -96
834 -178 1183 -178 l81 0 101 -167 c110 -184 235 -409 308 -554 60 -122 105
-183 150 -204 34 -16 39 -16 71 -1 111 53 191 349 223 824 15 232 13 536 -6
660 -88 592 -444 1155 -989 1564 -391 294 -858 480 -1385 553 -111 16 -578 28
-695 19z m500 -304 c860 -64 1605 -474 2024 -1115 60 -91 168 -309 201 -404
59 -171 60 -175 60 -707 0 -497 -3 -544 -37 -544 -15 0 -63 70 -169 248 -92
156 -158 239 -240 303 -108 84 -135 92 -364 109 -469 33 -827 102 -1096 211
-282 113 -320 121 -386 81 -35 -22 -147 -134 -164 -164 -5 -10 -23 -20 -40
-24 -26 -5 -43 5 -139 80 -126 99 -211 146 -265 146 -29 0 -52 -11 -98 -44
-33 -24 -63 -49 -67 -56 -4 -6 -29 -29 -57 -50 -38 -30 -59 -40 -87 -40 -69 0
-246 104 -540 319 -142 104 -211 136 -291 136 -51 -1 -77 -7 -120 -29 -132
-69 -264 -182 -410 -351 -123 -143 -217 -285 -313 -471 -91 -177 -113 -209
-135 -195 -26 16 -32 92 -32 444 0 402 5 450 75 660 135 409 407 756 795 1016
492 329 1193 492 1895 441z M2423 6905 c-40 -106 -54 -187 -60 -336 -10 -269
43 -473 173 -655 69 -99 202 -184 285 -184 15 0 17 -21 22 -192 3 -106 10
-209 14 -228 l9 -34 30 49 c16 28 35 63 42 78 15 35 17 317 2 317 -5 0 -10 8
-10 18 0 21 -72 93 -150 149 -108 79 -177 164 -221 276 -27 67 -57 189 -68
272 -6 39 -15 97 -21 130 -7 33 -15 137 -18 230 l-7 170 -22 -60z M8249 6828
c5 -115 -15 -279 -50 -415 -17 -65 -35 -136 -41 -158 -5 -22 -29 -81 -53 -132
-50 -106 -112 -178 -191 -224 -70 -39 -160 -122 -180 -164 -12 -27 -15 -63
-12 -187 l3 -153 39 -60 c36 -55 39 -58 47 -37 13 34 28 289 22 362 l-5 66 60
12 c123 25 245 137 322 297 104 214 133 525 71 768 -29 111 -37 117 -32 25z
M4132 6701 c-66 -23 -126 -79 -158 -146 -23 -47 -24 -61 -24 -246 0 -221 8
-259 66 -327 123 -144 354 -120 452 47 27 46 27 48 30 258 3 199 2 214 -18
262 -30 69 -103 135 -171 155 -68 21 -111 20 -177 -3z M6356 6704 c-67 -21
-147 -102 -170 -172 -15 -44 -17 -83 -14 -249 l3 -198 30 -54 c50 -91 137
-142 241 -142 113 0 209 62 256 165 22 48 23 63 23 251 0 219 -4 238 -64 314
-66 83 -197 120 -305 85z M547 6230 c-82 -21 -123 -56 -158 -134 -42 -97 -21
-225 47 -287 26 -23 615 -355 752 -423 l53 -27 -20 -33 c-72 -117 -59 -289 31
-390 35 -41 81 -67 377 -215 l337 -169 234 -193 c279 -230 311 -252 397 -279
62 -19 211 -28 226 -14 3 3 -10 28 -29 55 -29 39 -35 56 -33 88 4 48 49 7
-511 467 l-425 348 -240 135 c-132 74 -264 149 -292 167 -52 33 -53 35 -53 80
0 62 -35 122 -97 167 -27 18 -151 92 -278 162 -126 70 -235 134 -243 141 -7 8
-16 14 -20 14 -16 0 -61 48 -67 72 -17 66 36 95 155 85 86 -8 127 -23 379
-139 121 -55 217 -94 221 -89 3 6 134 -50 295 -125 160 -75 317 -147 350 -161
33 -14 200 -94 370 -179 172 -85 330 -156 353 -160 42 -6 132 11 132 26 0 14
-477 292 -625 365 -82 40 -301 143 -485 228 -184 86 -452 210 -595 277 -143
67 -273 126 -290 131 -45 14 -205 20 -248 9z M9900 6230 c-39 -6 -259 -104
-780 -346 -399 -186 -745 -350 -770 -365 -25 -14 -146 -86 -269 -159 l-224
-133 34 -18 c66 -35 115 -26 257 47 276 144 412 210 796 389 257 119 402 181
407 174 4 -7 84 25 225 91 277 128 404 162 488 130 23 -8 26 -15 26 -59 0 -51
2 -49 -75 -109 -5 -5 -120 -70 -255 -146 -135 -76 -261 -152 -282 -170 -48
-41 -72 -90 -74 -151 -3 -60 24 -41 -326 -236 l-253 -142 -355 -290 c-195
-160 -407 -335 -472 -389 -116 -97 -116 -98 -111 -135 4 -32 -1 -46 -31 -88
-20 -27 -36 -53 -36 -57 0 -11 148 -9 199 3 86 20 155 65 404 270 l254 207
332 167 c356 178 387 199 432 291 20 41 24 64 24 144 0 84 -3 102 -27 150 -21
42 -25 57 -15 63 6 4 183 102 392 218 209 116 386 216 393 222 7 6 25 30 39
54 68 116 22 298 -89 352 -52 25 -172 35 -258 21z M2906 5198 l-26 -23 -1
-587 c0 -323 3 -592 6 -598 4 -6 120 -87 258 -180 411 -277 537 -365 529 -371
-4 -3 -25 -13 -48 -22 -121 -47 -1605 -707 -1693 -753 -242 -128 -471 -320
-579 -486 -86 -132 -142 -301 -142 -424 0 -41 79 -1156 95 -1329 4 -45 10 -64
26 -77 20 -17 225 -18 3993 -18 l3973 0 20 22 c19 21 24 70 68 668 27 355 48
683 47 730 -3 231 -131 476 -345 661 -211 182 -309 234 -1177 617 -410 181
-765 338 -790 350 -25 11 -72 32 -105 47 -54 24 -58 27 -40 37 67 37 745 495
768 519 l27 29 0 576 c0 386 -3 582 -11 595 -5 11 -22 24 -36 30 -21 8 -77
-14 -396 -155 -205 -91 -714 -316 -1132 -500 l-760 -336 -112 0 -112 0 -1131
500 c-622 275 -1135 500 -1140 500 -5 0 -20 -10 -34 -22z m4604 -314 c0 -11 6
-15 18 -12 18 5 19 -12 25 -365 l7 -370 -32 -39 c-17 -22 -85 -76 -152 -120
-310 -207 -404 -283 -452 -366 -34 -58 -38 -120 -9 -152 l20 -22 -30 -24 c-17
-13 -912 -617 -1990 -1341 -2316 -1557 -2347 -1577 -2402 -1610 l-43 -25 -57
43 c-87 65 -113 69 -466 69 -261 0 -311 2 -323 15 -9 8 -29 15 -45 15 -16 0
-29 1 -29 3 0 1 -9 26 -20 56 -25 68 -27 85 -50 391 -14 176 -20 350 -20 563
l0 308 31 62 c126 250 333 416 744 598 77 34 145 68 150 75 6 7 242 114 525
239 283 125 552 245 596 267 103 50 187 123 209 183 16 41 16 59 0 111 -6 18
3 25 67 53 468 210 1366 604 1435 631 17 7 30 2 60 -22 21 -17 54 -37 73 -46
40 -17 125 -18 174 -2 18 6 42 12 52 14 38 8 363 148 1349 584 653 288 585
261 585 236z m-4365 -18 c31 -13 35 -13 35 0 0 7 2 14 5 14 6 0 240 -102 810
-355 270 -119 527 -227 573 -240 93 -27 201 -48 377 -71 22 -3 53 -8 69 -11
l29 -5 -33 -14 c-73 -31 -1424 -470 -1475 -480 -31 -6 -35 -4 -41 22 -21 89
-75 153 -199 239 -38 27 -86 65 -105 84 -19 20 -48 47 -65 59 l-30 24 -3 374
c-2 260 1 374 8 374 6 0 26 -7 45 -14z m3936 -1626 c34 -64 65 -93 144 -132
28 -14 273 -123 545 -243 272 -120 500 -224 506 -231 5 -7 87 -48 181 -92 266
-123 417 -219 549 -349 76 -74 115 -132 160 -229 l34 -75 0 -273 c0 -351 -35
-860 -67 -973 -26 -94 -14 -91 -424 -95 -393 -3 -382 -2 -481 -74 -46 -34 -51
-36 -75 -23 -15 8 -360 238 -767 511 -408 273 -958 642 -1223 820 l-483 323
57 50 c32 28 276 244 543 480 690 612 751 665 760 665 5 0 23 -27 41 -60z
m-1351 -854 c0 -3 -6 -11 -12 -18 -7 -8 -21 -27 -30 -43 -9 -17 -33 -59 -53
-94 -52 -89 -55 -126 -17 -201 43 -83 84 -130 172 -198 41 -32 440 -303 885
-601 446 -299 820 -555 832 -569 38 -44 14 -55 -135 -63 -178 -10 -3938 -10
-4100 0 -143 9 -163 16 -143 53 12 24 2524 1718 2564 1730 29 8 37 9 37 4z
M4995 5174 c-70 -35 -96 -130 -53 -194 46 -68 58 -70 391 -70 327 0 342 2 390
59 49 59 31 160 -36 201 -30 19 -52 20 -347 20 -261 0 -320 -3 -345 -16z"/>
</g>
</svg>
