<?xml version="1.0" standalone="no"?>
<!DOCTYPE svg PUBLIC "-//W3C//DTD SVG 20010904//EN"
 "http://www.w3.org/TR/2001/REC-SVG-20010904/DTD/svg10.dtd">
<svg version="1.0" xmlns="http://www.w3.org/2000/svg"
 width="2048.000000pt" height="2048.000000pt" viewBox="0 0 2048.000000 2048.000000"
 preserveAspectRatio="xMidYMid meet">
<metadata>
Created by potrace 1.13, written by Peter Selinger 2001-2015
</metadata>
<g transform="translate(0.000000,2048.000000) scale(0.192120,-0.192120)"
fill="#000000" stroke="none">
<path d="M1302 10310 c-103 -27 -166 -64 -248 -145 -75 -73 -119 -147 -148
-245 -15 -49 -16 -364 -16 -3640 0 -3140 2 -3601 15 -3715 82 -698 333 -1283
715 -1665 297 -297 647 -468 1115 -546 105 -18 261 -19 3158 -21 l3048 -3 -3
782 -3 783 -27 98 c-122 444 -481 762 -933 827 -42 6 -418 10 -943 10 l-872 0
2 211 3 211 85 32 c112 44 304 141 412 209 388 245 703 596 908 1012 166 336
243 649 257 1043 6 182 6 182 29 182 39 0 126 38 171 74 287 228 371 805 176
1201 -19 39 -39 75 -45 80 -11 10 -10 6 13 -165 11 -86 11 -269 -1 -350 -15
-104 -88 -347 -132 -437 -33 -69 -52 -94 -115 -150 -241 -214 -267 -256 -277
-428 -14 -236 -52 -465 -108 -635 -27 -85 -233 -500 -258 -520 -3 -3 -28 -41
-55 -85 -91 -151 -119 -190 -202 -282 -93 -102 -224 -216 -338 -293 -42 -28
-173 -99 -293 -157 -213 -105 -218 -108 -299 -190 -46 -46 -86 -95 -89 -108
-3 -14 -10 -25 -15 -25 -5 0 -9 -83 -9 -185 0 -108 4 -185 9 -185 5 0 13 -9
16 -21 8 -25 51 -45 123 -56 l34 -5 -4 -212 c-4 -185 -7 -220 -27 -281 -118
-361 -433 -595 -801 -595 -369 0 -683 234 -801 595 -20 62 -23 96 -27 283 l-4
212 26 0 c38 0 114 38 121 61 4 10 11 19 16 19 5 0 9 76 9 181 l0 181 -47 70
c-73 108 -116 140 -343 250 -253 123 -353 193 -553 387 -153 148 -291 329
-441 577 -99 163 -147 218 -207 234 -59 16 -94 1 -84 -38 13 -54 68 -180 126
-291 272 -519 751 -949 1289 -1157 l85 -32 3 -211 2 -211 -835 0 c-459 0 -835
3 -835 8 0 4 20 347 45 762 24 415 51 874 59 1020 8 146 44 761 80 1367 l66
1102 31 78 c69 175 202 400 319 543 78 95 207 218 299 284 l81 58 117 -95
c290 -231 523 -377 693 -433 72 -23 165 -24 207 -1 63 33 96 145 75 255 -5 28
-7 52 -4 52 3 0 71 -64 151 -142 235 -229 425 -379 533 -420 65 -24 83 -23
108 10 19 23 22 35 17 92 -7 80 -53 223 -112 349 -25 51 -45 98 -45 102 0 5
24 -11 54 -35 265 -215 805 -350 1535 -384 l145 -7 69 -115 c114 -189 180
-306 297 -526 61 -115 123 -222 138 -238 198 -210 350 269 354 1114 1 220 -2
271 -20 372 -49 270 -142 515 -282 748 -270 448 -646 793 -1131 1034 -461 230
-926 328 -1488 313 -657 -17 -1210 -178 -1671 -485 -46 -32 -108 -70 -137 -87
-32 -19 -102 -82 -183 -167 -123 -130 -130 -140 -130 -178 0 -22 3 -40 8 -40
4 0 23 25 42 55 l35 55 70 0 c48 0 78 5 93 16 12 8 22 12 22 9 0 -11 92 59
126 97 30 34 48 78 69 172 6 28 7 29 61 23 167 -17 301 -156 312 -322 8 -128
9 -125 -428 -791 l-400 -609 0 -110 c0 -60 -5 -197 -12 -304 -9 -154 -15 -197
-27 -208 -9 -8 -36 -28 -60 -46 -51 -36 -87 -100 -95 -167 -4 -25 -29 -432
-56 -905 -63 -1083 -68 -1151 -85 -1200 -24 -67 -63 -283 -74 -410 -28 -304
-71 -1158 -71 -1405 l0 -261 88 -88 c52 -53 107 -97 137 -112 l50 -24 693 -3
c680 -3 692 -3 692 -22 0 -13 7 -20 19 -20 15 0 20 -11 25 -62 49 -428 306
-763 681 -887 306 -101 623 -52 891 137 70 50 181 164 232 239 86 127 172 385
172 518 0 48 2 55 20 55 14 0 20 7 20 21 l0 20 793 -4 c871 -4 848 -2 1017
-68 245 -94 445 -322 522 -594 22 -79 22 -90 26 -718 3 -636 3 -637 -18 -637
-11 0 -20 -7 -20 -15 0 -13 -39 -15 -290 -15 -187 0 -290 -4 -290 -10 0 -5
-20 -10 -44 -10 -24 0 -46 -3 -48 -7 -1 -5 -40 -27 -85 -51 l-83 -43 0 506 0
505 -140 0 -140 0 0 -504 0 -504 -72 41 c-40 23 -74 45 -76 49 -2 5 -15 8 -28
8 -13 0 -24 4 -24 10 0 6 -793 11 -2237 13 -2410 3 -2285 0 -2510 52 -476 109
-825 361 -1089 788 -169 272 -282 576 -349 935 l-25 133 0 2445 0 2444 40 0
c33 0 40 3 40 20 0 20 7 20 835 20 550 0 835 3 835 10 0 6 6 10 14 10 15 0
146 117 146 131 0 5 -418 9 -1032 9 -622 0 -1039 4 -1048 10 -12 8 -12 13 6
37 11 15 31 51 44 78 14 28 28 52 33 53 4 2 7 24 7 48 0 24 5 44 10 44 7 0 10
334 10 983 0 1088 -3 1029 66 1153 23 42 67 92 142 163 59 55 118 108 130 117
l22 15 0 -655 0 -656 140 0 140 0 0 656 0 656 68 -37 c37 -21 70 -42 74 -49
10 -15 246 -15 256 0 4 5 23 16 42 24 19 8 51 25 70 38 l35 24 3 -656 2 -656
140 0 140 0 1 633 c0 347 3 640 7 649 7 17 8 17 33 0 55 -35 231 -209 259
-254 54 -87 70 -157 70 -302 0 -247 29 -351 112 -393 23 -12 48 -23 54 -23 17
0 24 108 24 350 0 250 -11 318 -67 429 -71 141 -217 254 -370 286 -55 12 -186
15 -683 14 -573 0 -620 -1 -688 -19z m4413 -524 c337 -44 638 -133 918 -272
249 -124 442 -261 639 -452 256 -249 428 -515 535 -827 l38 -110 3 -560 c2
-308 0 -584 -3 -612 -6 -48 -8 -52 -26 -43 -10 6 -51 66 -90 133 -212 360
-222 375 -289 442 -120 121 -167 139 -405 155 -502 34 -823 99 -1161 234 -195
77 -242 88 -299 66 -44 -17 -129 -112 -156 -173 -16 -39 -28 -55 -38 -52 -8 3
-18 0 -22 -6 -4 -8 -51 24 -135 95 -136 112 -226 166 -279 166 -37 0 -94 -38
-178 -119 -71 -69 -100 -85 -141 -77 -84 16 -299 146 -536 324 -180 135 -272
165 -380 122 -63 -25 -100 -32 -100 -20 0 23 36 83 191 320 203 312 251 395
289 499 27 74 30 93 30 204 0 117 -2 127 -35 210 -19 48 -35 98 -35 112 0 31
27 44 228 109 234 75 493 125 758 145 162 13 533 5 679 -13z M4150 6711 c-86
-28 -141 -74 -181 -151 -23 -43 -24 -54 -24 -255 0 -237 7 -267 79 -337 53
-52 101 -72 182 -76 90 -5 156 21 215 85 71 77 74 91 74 323 0 204 0 205 -28
262 -46 93 -128 148 -232 154 -33 2 -71 0 -85 -5z M6357 6706 c-101 -37 -167
-112 -188 -213 -17 -83 -8 -387 13 -435 25 -57 93 -123 150 -148 41 -18 65
-21 122 -18 113 6 195 59 240 157 19 42 21 63 21 256 0 208 0 210 -27 260 -31
60 -67 95 -128 125 -56 28 -151 36 -203 16z M4983 5170 c-66 -40 -86 -103 -54
-174 16 -37 29 -51 63 -66 40 -18 67 -20 338 -20 271 0 298 2 338 20 77 35
103 138 51 204 -43 55 -52 56 -391 56 -293 0 -315 -1 -345 -20z M4220 4214 c0
-14 68 -103 128 -166 177 -187 423 -313 711 -362 122 -21 411 -22 536 -1 263
42 492 150 669 316 65 61 176 195 176 213 0 3 -499 6 -1110 6 -610 0 -1110 -3
-1110 -6z m1574 -220 c19 -7 20 -21 4 -38 -15 -14 -90 -41 -173 -62 -84 -21
-392 -30 -509 -14 -95 12 -230 53 -253 76 -16 16 -17 31 0 37 18 8 912 8 931
1z"/>
</g>
</svg>
