<?xml version="1.0" standalone="no"?>
<!DOCTYPE svg PUBLIC "-//W3C//DTD SVG 20010904//EN"
 "http://www.w3.org/TR/2001/REC-SVG-20010904/DTD/svg10.dtd">
<svg version="1.0" xmlns="http://www.w3.org/2000/svg"
 width="2048.000000pt" height="2048.000000pt" viewBox="0 0 2048.000000 2048.000000"
 preserveAspectRatio="xMidYMid meet">
<metadata>
Created by potrace 1.13, written by Peter Selinger 2001-2015
</metadata>
<g transform="translate(0.000000,2048.000000) scale(0.192120,-0.192120)"
fill="#000000" stroke="none">
<path d="M4583 10310 c-164 -43 -297 -150 -373 -299 -53 -107 -62 -152 -67
-351 l-5 -185 -44 -90 c-50 -103 -54 -121 -84 -455 -67 -726 -187 -1685 -275
-2197 -29 -172 -41 -216 -79 -305 -177 -416 -306 -1038 -307 -1479 l0 -172
-92 -95 c-91 -93 -337 -317 -572 -521 -66 -58 -132 -115 -147 -129 l-26 -24
-74 50 c-169 114 -292 157 -448 157 -157 0 -306 -43 -505 -146 -307 -157 -710
-482 -1041 -836 l-114 -123 0 -1390 0 -1390 1538 0 c1690 0 1586 -4 1715 61
80 41 201 162 250 249 81 146 117 320 117 561 0 176 -18 338 -54 476 l-24 93
107 89 c102 84 111 89 175 100 224 39 456 156 666 336 245 210 465 563 496
796 7 51 7 51 -17 44 -87 -26 -153 -91 -231 -230 -170 -299 -398 -530 -638
-647 -52 -25 -149 -63 -215 -83 -66 -21 -142 -49 -170 -63 -122 -60 -216 -148
-269 -251 -18 -33 -18 -98 -2 -146 6 -16 -9 -34 -83 -98 -50 -43 -91 -81 -91
-86 0 -5 19 -11 42 -14 99 -13 127 -74 128 -283 0 -169 -21 -257 -101 -420
-58 -120 -114 -179 -205 -215 l-59 -24 -1417 -3 -1418 -2 0 1238 0 1238 40 39
c22 21 40 45 40 51 0 16 332 334 440 421 188 152 344 253 568 367 166 84 221
99 331 94 70 -3 99 -10 153 -35 75 -35 95 -65 100 -145 l3 -48 94 75 c51 41
96 75 98 75 3 0 18 -9 33 -20 70 -49 121 -37 275 66 187 125 570 467 667 596
61 82 108 173 108 208 0 16 4 31 8 34 5 3 12 81 15 173 9 260 57 572 132 873
31 122 84 282 189 575 79 220 211 1171 336 2420 24 236 39 338 62 429 33 131
37 193 14 247 -18 43 -12 51 64 89 94 48 233 64 338 40 122 -29 261 -132 327
-245 63 -106 75 -164 92 -435 14 -208 17 -654 22 -2965 6 -2549 7 -2722 23
-2751 36 -66 119 -118 188 -118 69 0 152 52 188 118 16 29 17 202 23 2751 5
2310 9 2757 22 2965 9 135 20 263 26 284 5 22 26 74 47 115 127 258 439 366
691 238 62 -32 66 -37 52 -74 -19 -51 -12 -125 25 -253 33 -114 40 -163 81
-570 74 -727 145 -1307 221 -1795 58 -372 58 -373 178 -708 140 -390 224 -808
246 -1232 5 -82 12 -171 17 -196 31 -154 186 -331 576 -657 189 -157 226 -185
292 -217 68 -34 133 -36 172 -5 14 11 29 20 34 20 4 0 50 -34 101 -75 l93 -75
6 67 c7 76 18 89 109 131 73 34 201 42 285 17 65 -18 313 -139 390 -189 28
-18 82 -53 120 -77 184 -114 307 -219 542 -458 112 -113 203 -213 203 -222 0
-9 9 -24 20 -34 20 -18 20 -31 20 -1197 0 -1171 0 -1178 -20 -1178 -17 0 -20
-7 -20 -40 l0 -40 -1388 0 c-1512 0 -1448 -2 -1548 56 -94 55 -173 190 -220
372 -23 87 -25 112 -22 252 5 208 27 254 128 267 22 3 40 9 40 13 0 4 -35 38
-77 76 -43 37 -84 73 -92 80 -12 11 -12 18 3 47 9 19 16 47 16 61 0 42 -39
113 -94 174 -83 90 -174 143 -351 202 -86 29 -184 67 -218 84 -250 131 -451
331 -623 620 -43 71 -92 146 -110 166 -32 35 -104 80 -153 95 -24 7 -24 7 -17
-44 31 -233 251 -586 496 -796 206 -176 447 -298 667 -336 63 -11 73 -17 174
-101 107 -88 107 -89 98 -121 -43 -141 -61 -268 -66 -467 -8 -295 23 -465 114
-630 49 -87 170 -208 250 -249 129 -65 25 -61 1715 -61 l1538 0 0 1390 0 1390
-124 133 c-379 405 -837 755 -1159 887 -155 63 -245 83 -372 84 -161 1 -281
-40 -453 -156 l-74 -50 -26 25 c-15 13 -137 120 -272 238 -135 118 -311 279
-392 359 l-146 145 -5 230 c-6 243 -27 424 -81 685 -56 266 -139 542 -223 739
-39 91 -49 131 -83 335 -90 532 -195 1373 -265 2121 -37 390 -39 404 -95 511
l-47 90 -7 165 c-9 201 -17 241 -68 348 -118 248 -403 380 -672 311 -109 -28
-190 -74 -272 -155 -87 -86 -137 -180 -163 -310 l-18 -90 -7 50 c-20 136 -82
261 -176 355 -145 146 -349 202 -547 150z m210 -250 c121 -19 206 -79 304
-210 55 -75 146 -165 183 -180 59 -24 110 10 224 154 131 164 187 205 319 232
113 24 237 -1 331 -65 64 -44 86 -85 86 -158 l0 -61 -87 5 c-229 12 -430 -92
-549 -283 -98 -158 -109 -222 -134 -776 -19 -428 -20 -610 -20 -2878 0 -2408
0 -2420 -20 -2437 -11 -10 -20 -29 -20 -43 0 -39 -18 -50 -85 -50 -67 0 -85
11 -85 50 0 15 -9 35 -20 45 -20 18 -20 31 -20 2494 0 2294 -2 2506 -20 2881
-22 468 -31 526 -107 674 -116 223 -311 332 -583 324 l-105 -3 -3 29 c-13 111
93 217 251 251 77 17 88 17 160 5z M1854 3822 c-49 -31 -77 -101 -82 -204 -4
-85 8 -258 15 -228 2 8 94 89 203 180 225 187 217 165 91 228 -92 45 -178 54
-227 24z M8617 3816 c-63 -26 -137 -72 -136 -84 0 -4 75 -69 167 -145 210
-173 218 -181 224 -198 9 -25 21 139 16 229 -9 195 -106 266 -271 198z M1791
3344 c0 -11 3 -14 6 -6 3 7 2 16 -1 19 -3 4 -6 -2 -5 -13z M8861 3344 c0 -11
3 -14 6 -6 3 7 2 16 -1 19 -3 4 -6 -2 -5 -13z M1776 3285 c-9 -13 -16 -45 -16
-71 0 -45 22 -149 40 -189 4 -11 17 -47 28 -80 28 -82 62 -176 72 -200 5 -11
30 -72 56 -135 113 -272 247 -519 450 -825 155 -235 234 -335 364 -465 108
-107 150 -133 215 -129 26 2 51 -3 62 -11 10 -8 -36 38 -103 102 -231 223
-453 520 -663 886 -172 299 -369 758 -448 1039 -15 57 -31 103 -34 103 -4 0
-14 -11 -23 -25z M8828 3211 c-59 -215 -178 -510 -333 -821 -213 -429 -463
-789 -744 -1070 -85 -85 -147 -148 -137 -140 11 8 34 13 56 11 58 -4 112 30
219 137 108 109 238 272 352 442 158 236 359 606 454 838 24 59 51 125 61 147
60 140 144 407 144 458 0 32 -25 97 -37 97 -5 0 -21 -45 -35 -99z M3327 1317
l-218 -182 33 -27 c51 -42 182 -106 232 -113 60 -9 88 -1 131 36 54 48 69 113
62 274 -4 71 -10 144 -14 162 l-8 31 -218 -181z M7101 1424 c-15 -105 -14
-251 4 -310 9 -31 28 -63 50 -84 34 -33 41 -35 100 -35 54 0 75 6 147 43 47
24 100 55 117 70 l33 27 -192 160 c-106 88 -205 170 -220 182 l-28 23 -11 -76z"/>
</g>
</svg>
