<?xml version="1.0" standalone="no"?>
<!DOCTYPE svg PUBLIC "-//W3C//DTD SVG 20010904//EN"
 "http://www.w3.org/TR/2001/REC-SVG-20010904/DTD/svg10.dtd">
<svg version="1.0" xmlns="http://www.w3.org/2000/svg"
 width="2048.000000pt" height="2048.000000pt" viewBox="0 0 2048.000000 2048.000000"
 preserveAspectRatio="xMidYMid meet">
<metadata>
Created by potrace 1.13, written by Peter Selinger 2001-2015
</metadata>
<g transform="translate(0.000000,2048.000000) scale(0.192120,-0.192120)"
fill="#000000" stroke="none">
<path d="M5345 10319 c-343 -32 -757 -144 -1016 -275 -47 -23 -48 -23 -155 -9
-207 28 -468 14 -677 -35 -285 -66 -594 -222 -817 -412 -43 -37 -122 -89 -185
-122 -243 -128 -466 -297 -680 -517 -270 -277 -366 -420 -625 -939 -568 -1135
-885 -2123 -857 -2670 34 -676 563 -2301 1495 -4597 l167 -413 3335 0 3335 0
74 183 c1024 2522 1553 4131 1587 4827 25 493 -214 1300 -682 2307 -193 416
-384 781 -482 923 -195 284 -490 575 -768 760 -259 171 -452 252 -769 320
-128 27 -123 25 -240 110 -394 286 -877 476 -1385 545 -139 19 -517 27 -655
14z m135 -219 c0 -19 7 -20 146 -20 149 0 224 -12 224 -37 0 -7 -7 -13 -15
-13 -8 0 -15 -4 -15 -10 0 -5 -6 -10 -13 -10 -19 0 -112 -71 -158 -121 -21
-23 -52 -68 -69 -100 -39 -75 -42 -173 -8 -247 32 -68 115 -145 201 -185 84
-40 128 -51 457 -118 262 -53 567 -129 719 -178 113 -38 238 -101 307 -157 55
-45 213 -206 321 -327 87 -97 119 -117 202 -126 l66 -6 36 -85 c133 -310 381
-1030 514 -1490 182 -629 291 -1255 271 -1555 -44 -630 -263 -1330 -694 -2207
l-135 -278 -813 0 -813 0 24 53 c14 28 25 58 25 65 0 6 5 12 10 12 6 0 10 14
10 30 0 17 5 30 10 30 6 0 10 20 10 44 0 30 5 46 15 50 8 3 15 14 15 25 0 13
14 25 45 38 25 10 45 21 45 25 0 4 44 30 98 56 149 75 239 128 343 203 252
180 489 427 665 690 188 281 306 568 392 949 l26 115 3 878 c3 603 1 877 -7
877 -5 0 -10 6 -10 14 0 8 -21 37 -46 65 -66 73 -112 87 -341 106 -385 32
-660 75 -988 155 -673 165 -1253 472 -1674 889 -118 116 -237 268 -386 491
-191 288 -258 331 -344 221 -63 -80 -90 -157 -147 -416 -67 -308 -235 -581
-473 -773 -156 -126 -277 -186 -499 -248 -151 -43 -212 -74 -255 -128 -17 -23
-36 -44 -42 -48 -7 -5 -11 -334 -13 -995 -3 -1072 -2 -1084 53 -1303 72 -281
156 -494 280 -707 274 -467 655 -821 1128 -1049 64 -30 118 -61 121 -69 3 -8
12 -15 21 -15 9 0 15 -9 15 -24 0 -13 7 -26 15 -30 10 -3 15 -19 15 -45 0 -22
4 -42 9 -45 4 -3 11 -24 15 -47 4 -22 18 -63 31 -90 l25 -49 -812 2 -813 3
-130 260 c-397 792 -632 1509 -692 2113 -14 144 -14 190 -4 330 22 292 75 596
172 985 120 479 341 1156 555 1704 89 229 85 223 140 223 25 0 62 9 83 19 21
11 110 96 202 193 90 95 187 193 214 217 68 59 162 114 254 150 67 25 311 101
326 101 3 0 5 -7 5 -15 0 -19 -14 -20 131 14 68 17 236 53 373 81 137 28 253
53 258 56 4 3 8 11 8 18 0 6 33 23 73 35 100 32 136 52 199 110 75 69 108 139
108 231 0 83 -23 140 -99 244 -28 38 -51 72 -51 77 0 19 49 38 127 50 70 11
83 16 85 34 3 22 32 28 207 44 53 4 99 9 104 10 4 0 7 -8 7 -19z m-681 -251
c138 -29 223 -153 176 -253 -42 -87 -116 -115 -512 -195 -513 -103 -875 -204
-1033 -287 -36 -19 -104 -68 -152 -109 -91 -79 -284 -296 -383 -432 l-60 -82
-683 -1 c-423 0 -681 4 -677 9 3 6 63 45 133 88 144 88 207 137 342 267 193
186 349 305 555 426 154 90 210 143 256 238 35 72 32 70 196 113 360 93 793
154 1578 222 91 8 217 6 264 -4z m1486 -9 c382 -33 669 -68 915 -111 150 -26
141 -22 169 -75 26 -49 84 -101 141 -126 19 -9 80 -28 135 -43 288 -77 457
-150 659 -287 146 -99 236 -173 435 -362 131 -123 215 -188 348 -270 51 -31
95 -61 98 -66 4 -7 -242 -10 -677 -10 l-683 0 -25 37 c-42 63 -198 253 -287
350 -163 178 -275 251 -508 327 -159 53 -504 137 -775 190 -393 77 -475 104
-528 174 -21 28 -27 46 -27 87 1 63 26 109 82 149 87 61 172 67 528 36z
m-2046 -942 c22 -75 127 -279 198 -385 412 -615 1064 -1050 1954 -1303 359
-102 870 -181 1283 -199 l151 -6 0 -815 c0 -734 -2 -826 -18 -930 -86 -554
-320 -1023 -702 -1406 -149 -150 -241 -225 -409 -336 -142 -93 -283 -167 -426
-223 l-105 -42 -2 -359 c0 -197 -4 -393 -7 -434 -15 -217 -151 -450 -341 -585
-78 -56 -141 -86 -245 -121 -77 -25 -98 -28 -235 -28 -168 0 -227 11 -353 70
-264 122 -459 391 -478 664 -3 41 -7 236 -7 434 l-2 359 -115 46 c-399 160
-782 456 -1045 806 -259 345 -407 697 -481 1145 -16 94 -18 209 -21 1078 l-4
972 33 0 c18 0 80 11 138 24 467 106 803 370 1018 801 103 207 191 554 192
753 0 34 4 62 8 62 5 0 14 -19 21 -42z m-1664 -657 c8 -37 -2 -70 -108 -361
-229 -632 -441 -1380 -529 -1868 -31 -175 -31 -182 -35 -559 -4 -376 -4 -384
22 -540 85 -506 324 -1189 647 -1845 128 -261 173 -322 268 -367 l55 -26 690
-3 c380 -1 700 -4 713 -7 21 -5 22 -10 22 -99 0 -282 134 -585 349 -788 47
-45 110 -97 140 -116 384 -245 855 -199 1180 116 209 202 340 508 341 795 0
48 1 88 3 89 1 1 324 5 717 8 l715 5 56 26 c83 39 125 100 255 364 263 537
462 1059 573 1500 90 358 104 458 109 784 4 311 -4 416 -58 711 -97 532 -269
1120 -589 2020 -26 71 -40 129 -39 150 l3 35 475 0 c384 0 481 -3 508 -14 59
-25 140 -167 350 -611 332 -704 561 -1336 647 -1787 22 -114 21 -756 0 -874
-132 -712 -612 -2128 -1317 -3884 -159 -395 -183 -448 -228 -490 l-31 -30
-3132 -3 c-2252 -2 -3143 0 -3170 8 -30 9 -45 23 -72 64 -103 161 -785 1943
-1078 2816 -206 612 -362 1156 -427 1487 -29 150 -30 158 -30 467 0 276 3 328
21 423 102 537 382 1273 800 2104 123 245 168 306 234 319 22 4 243 8 492 9
l451 1 7 -29z M4150 6711 c-86 -28 -141 -74 -181 -151 -23 -43 -24 -54 -24
-255 0 -237 7 -267 79 -337 53 -52 101 -72 182 -76 90 -5 156 21 215 85 71 77
74 91 74 323 0 204 0 205 -28 262 -46 93 -128 148 -232 154 -33 2 -71 0 -85
-5z M6357 6706 c-101 -37 -167 -112 -188 -213 -17 -83 -8 -387 13 -435 25 -57
93 -123 150 -148 41 -18 65 -21 122 -18 113 6 195 59 240 157 19 42 21 63 21
256 0 208 0 210 -27 260 -31 60 -67 95 -128 125 -56 28 -151 36 -203 16z
M4979 5167 c-96 -64 -84 -199 21 -241 34 -13 87 -16 330 -16 243 0 296 3 330
16 105 42 117 177 21 241 -34 23 -38 23 -351 23 -313 0 -317 0 -351 -23z
M4220 4491 c0 -17 100 -139 171 -207 258 -249 655 -372 1079 -336 325 28 599
143 799 336 71 68 171 190 171 207 0 5 -499 9 -1110 9 -610 0 -1110 -4 -1110
-9z"/>
</g>
</svg>
