<?xml version="1.0" standalone="no"?>
<!DOCTYPE svg PUBLIC "-//W3C//DTD SVG 20010904//EN"
 "http://www.w3.org/TR/2001/REC-SVG-20010904/DTD/svg10.dtd">
<svg version="1.0" xmlns="http://www.w3.org/2000/svg"
 width="2048.000000pt" height="2048.000000pt" viewBox="0 0 2048.000000 2048.000000"
 preserveAspectRatio="xMidYMid meet">
<metadata>
Created by potrace 1.13, written by Peter Selinger 2001-2015
</metadata>
<g transform="translate(0.000000,2048.000000) scale(0.192120,-0.192120)"
fill="#000000" stroke="none">
<path d="M5055 10094 c-475 -38 -895 -150 -1245 -331 -756 -391 -1232 -1099
-1291 -1921 -10 -150 -1 -408 22 -595 l12 -96 -26 -30 c-102 -121 -177 -376
-177 -601 0 -175 51 -393 122 -520 82 -147 206 -252 316 -267 l39 -5 6 -182
c14 -392 91 -705 257 -1041 198 -402 493 -737 863 -982 122 -81 321 -185 447
-234 l95 -38 3 -195 c2 -185 3 -196 22 -196 31 0 74 20 98 45 21 23 22 32 22
190 0 91 -3 165 -8 165 -4 0 -13 13 -20 29 -7 17 -41 56 -76 89 -61 57 -141
104 -400 237 -280 144 -601 465 -813 812 -199 327 -307 692 -329 1121 -4 72
-11 132 -15 132 -5 0 -9 11 -9 25 0 34 -71 118 -160 189 -187 149 -256 278
-290 539 -21 163 -5 565 27 671 3 11 18 -32 38 -110 41 -161 64 -225 111 -314
63 -120 134 -177 189 -152 34 16 50 53 80 188 63 281 203 619 343 828 129 193
292 364 445 468 l57 39 118 -94 c291 -233 528 -380 707 -438 62 -19 154 -17
192 5 64 39 96 144 75 254 -5 28 -7 52 -4 52 3 0 69 -62 146 -138 296 -289
532 -458 613 -437 40 10 57 48 50 114 -9 80 -59 235 -117 359 -27 56 -46 102
-44 102 3 0 32 -22 65 -48 262 -212 793 -344 1533 -380 l139 -7 64 -105 c100
-162 221 -378 323 -573 65 -124 105 -188 132 -212 72 -65 132 -45 191 64 37
67 76 209 106 389 l27 155 22 -134 c24 -145 30 -404 13 -496 -5 -26 -15 -82
-21 -123 -34 -214 -124 -362 -281 -462 -89 -57 -179 -159 -179 -203 0 -8 -6
-15 -14 -15 -11 0 -15 -35 -19 -167 -6 -208 -43 -438 -94 -593 -81 -244 -163
-404 -389 -756 -66 -102 -227 -267 -369 -378 -98 -76 -146 -105 -395 -236
-208 -110 -254 -140 -315 -210 -22 -25 -44 -48 -50 -52 -11 -8 -20 -326 -10
-365 3 -13 10 -21 15 -18 6 3 10 1 10 -5 0 -13 60 -40 89 -40 20 0 21 7 23
196 l3 196 87 33 c406 157 807 464 1071 818 118 159 169 241 252 412 162 329
238 644 252 1033 5 161 8 182 23 182 40 0 122 33 168 68 101 76 180 194 232
349 105 314 66 705 -94 941 l-36 54 10 119 c18 203 16 599 -4 714 -74 437
-270 830 -597 1195 -386 429 -949 745 -1544 865 -222 45 -338 56 -615 59 -146
2 -287 2 -315 0z m556 -254 c520 -53 935 -195 1329 -456 278 -184 542 -451
707 -717 71 -115 163 -307 196 -412 59 -183 57 -151 57 -833 0 -594 -1 -631
-18 -652 -36 -45 -74 0 -203 236 -276 508 -323 552 -609 569 -230 13 -476 42
-660 76 -215 41 -333 77 -622 188 -161 62 -222 54 -272 -35 -22 -38 -26 -60
-26 -123 -1 -64 -4 -80 -24 -104 l-23 -28 -55 43 c-31 24 -108 87 -171 140
-139 119 -217 168 -267 168 -48 0 -106 -42 -155 -112 -21 -29 -51 -63 -66 -76
-28 -23 -30 -23 -91 -8 -124 31 -308 140 -555 327 -231 176 -312 183 -493 49
-87 -64 -274 -257 -340 -351 -126 -180 -252 -423 -334 -649 -73 -199 -74 -202
-104 -198 -21 3 -28 14 -49 77 l-24 75 3 535 4 536 28 105 c132 490 448 915
897 1206 364 236 855 390 1369 427 111 8 478 6 571 -3z M4128 6704 c-63 -22
-123 -75 -156 -138 -27 -51 -27 -52 -27 -261 0 -237 7 -267 79 -337 53 -52
101 -72 182 -76 90 -5 156 21 215 85 71 77 74 91 74 323 0 204 0 205 -28 262
-62 126 -208 187 -339 142z M6357 6706 c-101 -37 -167 -112 -188 -213 -17 -83
-8 -387 13 -435 25 -57 93 -123 150 -148 41 -18 65 -21 122 -18 113 6 195 59
240 157 19 42 21 63 21 256 0 208 0 210 -27 260 -31 60 -67 95 -128 125 -56
28 -151 36 -203 16z M4979 5167 c-96 -64 -84 -199 21 -241 34 -13 87 -16 330
-16 243 0 296 3 330 16 105 42 117 177 21 241 -34 23 -38 23 -351 23 -313 0
-317 0 -351 -23z M5185 4205 c-212 -39 -420 -175 -579 -379 -64 -81 -106 -145
-106 -158 0 -5 374 -8 830 -8 457 0 830 3 830 8 0 13 -42 76 -105 157 -234
300 -551 439 -870 380z m268 -257 c75 -22 17 -46 -113 -47 -190 -2 -231 37
-65 62 40 6 131 -2 178 -15z M2645 2814 c-117 -21 -199 -48 -300 -98 -118 -58
-201 -117 -297 -212 -140 -139 -242 -316 -296 -511 l-27 -98 -3 -782 -3 -783
3611 0 3611 0 -3 783 -3 782 -27 98 c-32 115 -106 275 -171 366 -176 248 -454
417 -762 461 -42 6 -419 10 -943 10 l-874 0 7 -127 c17 -312 -55 -537 -229
-720 -80 -85 -154 -139 -259 -189 -120 -56 -184 -69 -347 -69 -164 0 -227 13
-349 71 -190 89 -345 249 -421 435 -53 128 -65 205 -64 412 l1 187 -886 -1
c-725 -1 -901 -3 -966 -15z m1605 -234 c0 -15 7 -20 25 -20 24 0 25 -3 25 -60
0 -65 9 -111 47 -234 107 -354 384 -619 741 -713 82 -21 119 -25 242 -25 163
0 275 22 404 81 197 89 400 280 491 461 70 141 125 335 125 442 0 41 3 48 20
48 14 0 20 7 20 21 l0 20 773 -4 c849 -4 828 -3 997 -68 245 -94 445 -322 522
-594 22 -79 22 -90 26 -718 3 -636 3 -637 -18 -637 -11 0 -20 -7 -20 -15 0
-13 -39 -15 -290 -15 -187 0 -290 -4 -290 -10 0 -5 -20 -10 -44 -10 -24 0 -46
-3 -48 -7 -1 -5 -40 -27 -85 -51 l-83 -43 0 506 0 505 -140 0 -140 0 0 -504 0
-505 -76 40 c-42 21 -85 39 -95 39 -11 0 -19 5 -19 10 0 7 -687 10 -2040 10
-1122 0 -2040 -3 -2040 -7 0 -5 -21 -17 -48 -28 -26 -10 -63 -30 -82 -43 l-35
-24 -3 506 -2 506 -140 0 -140 0 0 -506 0 -506 -32 20 c-18 12 -53 31 -78 44
-25 13 -46 26 -48 31 -2 4 -12 7 -23 7 -10 0 -19 5 -19 10 0 6 -103 10 -290
10 -251 0 -290 2 -290 15 0 11 -11 15 -40 15 l-40 0 0 685 0 684 24 65 c114
314 395 531 746 575 36 5 390 9 788 10 716 1 722 1 722 -19z"/>
</g>
</svg>
