<?xml version="1.0" standalone="no"?>
<!DOCTYPE svg PUBLIC "-//W3C//DTD SVG 20010904//EN"
 "http://www.w3.org/TR/2001/REC-SVG-20010904/DTD/svg10.dtd">
<svg version="1.0" xmlns="http://www.w3.org/2000/svg"
 width="2048.000000pt" height="2048.000000pt" viewBox="0 0 2048.000000 2048.000000"
 preserveAspectRatio="xMidYMid meet">
<metadata>
Created by potrace 1.13, written by Peter Selinger 2001-2015
</metadata>
<g transform="translate(0.000000,2048.000000) scale(0.192120,-0.192120)"
fill="#000000" stroke="none">
<path d="M5345 10320 c-359 -37 -759 -145 -1017 -276 -45 -23 -53 -24 -106
-14 -88 18 -364 24 -480 11 -139 -15 -285 -46 -412 -87 -211 -69 -477 -218
-650 -366 -43 -36 -122 -89 -185 -122 -232 -122 -412 -255 -618 -455 -211
-206 -375 -409 -467 -578 -406 -747 -780 -1624 -944 -2213 -128 -458 -160
-777 -112 -1095 119 -780 637 -2320 1474 -4382 l167 -413 3335 0 3335 0 74
183 c1024 2522 1553 4131 1587 4827 25 493 -214 1300 -682 2307 -168 361 -390
792 -466 905 -121 179 -363 444 -553 605 -118 100 -326 241 -451 305 -160 83
-327 140 -549 188 -129 28 -124 25 -240 110 -396 286 -876 475 -1385 545 -137
19 -528 27 -655 15z m279 -306 c27 -10 18 -46 -28 -103 -24 -31 -57 -83 -75
-115 -27 -51 -31 -69 -31 -134 0 -63 5 -84 31 -136 43 -85 101 -159 161 -207
100 -79 133 -90 501 -165 471 -95 801 -186 948 -260 87 -43 173 -113 272 -221
180 -197 178 -193 274 -438 274 -694 538 -1545 660 -2120 l38 -180 3 -482 3
-481 -31 -150 c-57 -282 -151 -583 -292 -936 -167 -417 -274 -648 -336 -725
-61 -75 -38 -72 -635 -69 -293 2 -540 7 -550 12 -10 5 -17 16 -15 25 3 16 28
33 189 131 304 184 609 476 820 785 233 340 390 728 459 1131 19 109 20 164
20 970 0 493 -4 854 -9 854 -5 0 -12 11 -15 25 -8 33 -101 131 -153 161 -61
37 -91 43 -283 59 -953 81 -1672 302 -2240 688 -315 214 -532 432 -742 747
-168 251 -248 344 -319 374 l-37 15 -43 -47 c-123 -134 -139 -167 -209 -431
-38 -145 -94 -300 -142 -395 -46 -91 -157 -245 -228 -317 -164 -165 -301 -237
-650 -343 -70 -21 -97 -35 -152 -81 -38 -32 -73 -53 -79 -49 -30 18 9 151 178
604 109 293 158 412 187 455 38 57 195 232 267 299 119 110 253 174 511 245
209 57 271 71 325 75 26 2 66 10 88 19 22 9 139 37 260 61 271 55 337 75 412
125 88 59 165 153 202 249 22 55 30 205 12 216 -5 3 -12 18 -16 33 -3 15 -15
39 -26 54 -35 50 -50 94 -36 112 14 20 166 44 344 56 165 11 189 12 207 5z
m-761 -188 c127 -62 163 -190 77 -276 -55 -55 -118 -75 -460 -145 -601 -124
-873 -199 -1050 -291 -129 -67 -322 -260 -522 -521 -69 -90 -82 -115 -151
-288 -345 -872 -637 -1865 -721 -2445 -42 -288 -46 -605 -11 -830 88 -570 325
-1249 685 -1965 l115 -230 838 -3 837 -2 -2 211 -3 212 -116 47 c-308 125
-578 307 -829 559 -372 374 -605 839 -696 1391 -16 94 -18 211 -21 1078 l-4
972 33 0 c50 0 208 36 309 70 521 174 875 607 1005 1230 13 63 27 166 30 228
4 61 10 112 14 112 4 0 12 -19 19 -42 37 -125 158 -340 292 -518 370 -490 942
-874 1649 -1107 432 -142 997 -241 1490 -262 l155 -6 0 -815 c0 -737 -2 -826
-18 -930 -43 -273 -116 -509 -232 -746 -267 -547 -736 -988 -1294 -1214 l-116
-47 -3 -212 -2 -211 837 2 838 3 115 230 c383 764 630 1492 695 2054 55 468
-37 1042 -310 1946 -117 383 -295 893 -450 1285 -50 125 -68 159 -133 244
-180 234 -378 437 -492 504 -160 95 -488 187 -1100 312 -157 32 -311 68 -344
80 -109 42 -160 120 -136 209 15 56 51 95 118 128 55 27 61 28 212 27 225 -2
817 -62 1130 -115 178 -30 166 -25 179 -72 27 -89 83 -157 166 -200 17 -8 103
-36 191 -61 185 -52 295 -91 309 -110 6 -7 55 -36 110 -64 128 -66 256 -149
369 -240 91 -73 211 -185 246 -229 25 -32 26 -69 3 -81 -10 -5 -161 -12 -336
-15 -308 -5 -319 -6 -364 -29 -50 -25 -73 -51 -98 -110 l-15 -38 612 0 613 0
0 -112 0 -113 167 -340 c415 -847 667 -1507 781 -2039 l32 -151 0 -320 0 -320
-33 -155 c-116 -539 -342 -1270 -687 -2220 -220 -606 -321 -866 -413 -1060
-27 -58 -109 -253 -182 -435 -227 -566 -230 -573 -280 -620 l-31 -30 -3132 -3
c-2252 -2 -3143 0 -3170 8 -65 19 -97 83 -346 708 -505 1263 -939 2507 -1131
3241 -39 147 -84 335 -100 418 -29 150 -30 158 -30 467 0 276 3 328 21 423 65
341 196 745 407 1258 93 224 222 502 425 915 58 118 111 238 117 265 11 46 7
134 -7 193 l-5 22 615 0 616 0 -14 41 c-8 22 -24 54 -36 71 -41 57 -63 60
-407 66 -282 4 -315 7 -335 23 l-22 18 25 46 c52 98 288 296 510 429 158 95
192 120 250 188 38 45 55 78 71 132 12 39 27 76 33 83 26 26 288 88 594 139
234 39 533 75 847 104 121 11 238 21 260 24 22 2 92 3 156 2 104 -2 121 -5
172 -30z m-2251 -2798 c1 -2 5 -374 8 -828 7 -878 8 -891 61 -1140 74 -350
208 -662 425 -990 88 -133 180 -245 314 -384 190 -196 382 -345 619 -482 81
-47 113 -76 99 -90 -4 -4 -27 -10 -50 -15 -50 -10 -1030 -12 -1078 -3 -51 11
-93 65 -173 227 -256 516 -478 1150 -556 1586 -19 103 -21 155 -21 506 0 368
1 399 24 536 70 415 226 986 289 1060 15 16 33 24 39 17z M4150 6711 c-86 -28
-141 -74 -181 -151 -23 -43 -24 -54 -24 -255 0 -237 7 -267 79 -337 53 -52
101 -72 182 -76 89 -5 156 21 213 83 72 78 76 94 76 325 0 204 0 205 -28 262
-46 93 -128 148 -232 154 -33 2 -71 0 -85 -5z m80 -416 c0 -122 -2 -145 -15
-145 -13 0 -15 23 -15 145 0 122 2 145 15 145 13 0 15 -23 15 -145z M6357
6706 c-101 -37 -167 -112 -188 -213 -17 -83 -8 -387 13 -435 25 -57 93 -123
150 -148 41 -18 65 -21 122 -18 113 6 195 59 240 157 19 42 21 63 21 256 0
208 0 210 -27 260 -31 60 -67 95 -128 125 -56 28 -151 36 -203 16z m101 -408
c-3 -127 -5 -143 -20 -146 -17 -3 -18 9 -18 142 0 140 1 146 20 146 20 0 20
-5 18 -142z M4983 5170 c-66 -40 -86 -103 -54 -174 16 -37 29 -51 63 -66 40
-18 67 -20 338 -20 271 0 298 2 338 20 77 35 103 138 51 204 -43 55 -52 56
-391 56 -293 0 -315 -1 -345 -20z M4374 4530 c-28 -4 -60 -12 -70 -18 -14 -8
265 -11 1031 -11 988 1 1048 2 1015 17 -32 15 -120 17 -980 18 -520 1 -968 -2
-996 -6z M4243 4416 c11 -72 131 -212 256 -299 119 -82 313 -154 505 -189 96
-17 162 -22 316 -22 329 -1 515 38 765 162 164 82 335 263 335 356 0 26 -2 25
-42 -26 -174 -221 -430 -369 -753 -435 -138 -28 -473 -25 -612 5 -192 42 -362
113 -500 211 -78 55 -196 168 -245 235 l-31 41 6 -39z M4500 2633 c0 -196 14
-285 62 -400 225 -543 931 -687 1348 -274 88 87 145 169 188 274 48 115 62
204 62 400 l0 174 -54 -11 c-56 -11 -106 -42 -106 -63 0 -7 -4 -13 -9 -13 -5
0 -11 -51 -13 -112 -4 -108 -13 -151 -63 -306 -16 -49 -87 -151 -142 -204 -55
-53 -146 -105 -238 -135 -68 -22 -99 -26 -200 -26 -134 -1 -208 15 -309 64
-166 81 -286 227 -322 391 -30 137 -34 164 -34 244 0 49 -4 84 -10 84 -5 0
-10 7 -10 16 0 8 -4 12 -10 9 -5 -3 -10 -2 -10 4 0 17 -47 43 -90 51 l-40 7 0
-174z"/>
</g>
</svg>
