<?xml version="1.0" standalone="no"?>
<!DOCTYPE svg PUBLIC "-//W3C//DTD SVG 20010904//EN"
 "http://www.w3.org/TR/2001/REC-SVG-20010904/DTD/svg10.dtd">
<svg version="1.0" xmlns="http://www.w3.org/2000/svg"
 width="2048.000000pt" height="2048.000000pt" viewBox="0 0 2048.000000 2048.000000"
 preserveAspectRatio="xMidYMid meet">
<metadata>
Created by potrace 1.13, written by Peter Selinger 2001-2015
</metadata>
<g transform="translate(0.000000,2048.000000) scale(0.192120,-0.192120)"
fill="#000000" stroke="none">
<path d="M5340 10319 c-325 -32 -679 -124 -935 -241 -60 -28 -121 -51 -135
-51 -14 -1 -65 4 -115 11 -251 33 -562 1 -825 -84 -236 -77 -519 -241 -690
-400 -19 -18 -84 -58 -145 -89 -239 -122 -467 -296 -692 -528 -125 -129 -309
-354 -299 -365 6 -6 163 86 233 135 35 25 121 100 192 168 143 136 278 247
391 322 41 27 113 75 160 106 92 60 116 91 134 171 l11 51 89 33 c225 84 640
167 1126 226 347 42 658 69 815 70 145 1 152 0 208 -27 127 -63 163 -191 77
-277 -54 -54 -120 -75 -415 -135 -613 -125 -917 -209 -1095 -301 -129 -67
-322 -260 -523 -523 -89 -116 -75 -85 -222 -477 -386 -1026 -618 -1875 -676
-2479 -14 -150 -6 -462 16 -605 88 -570 323 -1243 685 -1965 l115 -230 828 -3
c455 -1 827 -5 827 -10 0 -4 -30 -47 -65 -97 -36 -49 -68 -105 -71 -123 -3
-17 -11 -32 -16 -32 -7 0 -9 -45 -6 -127 4 -111 9 -139 36 -214 151 -416 486
-698 876 -738 470 -48 898 256 1061 754 31 95 35 118 35 216 0 60 -4 109 -9
109 -5 0 -12 15 -15 33 -3 18 -33 74 -66 125 -33 51 -60 95 -60 98 0 2 372 5
828 6 l827 3 115 230 c393 784 644 1535 701 2104 15 142 7 453 -16 616 -85
620 -335 1483 -722 2496 -75 195 -83 211 -158 308 -184 240 -379 441 -492 508
-164 96 -489 188 -1103 313 -321 65 -386 86 -440 140 -86 86 -50 214 75 275
78 38 176 42 475 16 604 -53 1212 -142 1230 -181 36 -76 48 -93 76 -111 18
-11 72 -31 121 -45 238 -69 354 -118 530 -225 172 -104 310 -213 553 -440 58
-54 125 -113 150 -132 49 -37 213 -137 224 -137 12 0 -69 111 -158 217 -173
204 -424 429 -626 559 -250 162 -470 249 -777 310 -80 16 -95 23 -170 78 -406
301 -903 500 -1423 571 -139 19 -528 27 -660 14z m244 -295 c27 -10 18 -44
-25 -102 -23 -30 -57 -81 -75 -114 -31 -55 -34 -67 -34 -143 0 -61 5 -96 20
-130 45 -104 167 -243 264 -300 71 -42 149 -63 456 -126 642 -132 905 -216
1056 -338 88 -71 318 -330 397 -448 19 -28 54 -99 79 -159 65 -155 226 -597
294 -809 58 -179 58 -181 63 -325 3 -80 7 -130 10 -111 20 116 85 -45 187
-454 24 -99 61 -259 82 -355 l37 -175 3 -479 c3 -453 2 -485 -18 -590 -69
-363 -244 -880 -463 -1368 -151 -336 -201 -410 -287 -423 -65 -9 -1022 -1
-1043 9 -28 13 -16 38 35 71 315 199 437 295 628 491 437 448 703 984 795
1601 12 86 15 240 15 928 0 543 -3 825 -10 825 -5 0 -10 6 -10 13 0 17 -48 75
-124 151 -80 79 -137 103 -267 116 -57 5 -178 17 -269 25 -875 83 -1630 344
-2178 754 -145 109 -387 344 -479 466 -33 44 -105 148 -161 230 -56 83 -115
168 -131 190 -81 106 -85 115 -70 130 8 8 103 32 211 55 108 22 227 51 264 64
136 50 252 158 326 305 39 77 43 90 43 160 0 80 -9 105 -86 244 -31 55 -31 58
-14 71 22 16 151 35 309 46 61 4 121 8 133 9 12 0 28 -2 37 -5z m-1528 -1028
c3 -7 -8 -38 -24 -67 -39 -74 -67 -150 -97 -271 -87 -343 -193 -562 -358 -734
-148 -155 -314 -249 -574 -323 -135 -39 -159 -50 -229 -110 -34 -28 -65 -51
-68 -51 -3 0 -6 24 -6 53 0 54 46 199 160 502 84 226 127 306 236 440 143 176
324 354 407 399 79 45 215 94 382 141 134 38 163 41 171 21z m183 -98 c37
-125 158 -340 292 -518 365 -484 928 -866 1616 -1096 449 -149 1016 -252 1493
-270 80 -3 155 -7 168 -10 l23 -5 -4 -822 c-3 -786 -4 -827 -25 -947 -47 -274
-114 -484 -226 -715 -269 -550 -737 -989 -1295 -1215 l-116 -47 -2 -396 c-1
-250 -6 -417 -13 -454 -61 -308 -270 -545 -570 -645 -90 -30 -102 -32 -250
-32 -143 0 -162 2 -240 28 -153 51 -261 118 -361 222 -117 124 -186 259 -219
427 -7 37 -12 204 -13 454 l-2 396 -116 47 c-734 297 -1300 960 -1482 1735
-62 263 -61 232 -64 1293 l-4 972 33 0 c50 0 208 36 309 70 256 86 482 240
648 444 214 262 367 662 387 1014 4 61 10 112 14 112 4 0 12 -19 19 -42z
m-1673 -1965 c5 -10 11 -371 15 -803 6 -828 6 -825 55 -1070 25 -120 81 -306
131 -430 153 -386 369 -716 653 -1000 192 -192 299 -274 617 -475 52 -33 64
-57 36 -71 -21 -10 -997 -18 -1061 -9 -61 9 -96 49 -173 200 -251 491 -492
1169 -578 1630 -19 100 -21 148 -21 509 0 354 2 412 20 520 69 408 211 931
274 1002 15 18 22 17 32 -3z M4125 6703 c-72 -25 -146 -101 -169 -175 -15 -48
-17 -86 -14 -245 3 -212 13 -248 82 -315 53 -52 101 -72 182 -76 90 -5 156 21
215 85 71 77 74 91 74 323 0 204 0 205 -28 262 -62 127 -208 187 -342 141z
M6357 6706 c-101 -37 -167 -112 -188 -213 -17 -83 -8 -387 13 -435 25 -57 93
-123 150 -148 41 -18 65 -21 122 -18 113 6 195 59 240 157 19 42 21 63 21 256
0 208 0 210 -27 260 -31 60 -67 95 -128 125 -56 28 -151 36 -203 16z M4979
5167 c-96 -64 -84 -199 21 -241 34 -13 87 -16 330 -16 243 0 296 3 330 16 105
42 117 177 21 241 -34 23 -38 23 -351 23 -313 0 -317 0 -351 -23z M4220 4491
c0 -17 100 -139 171 -207 258 -249 655 -372 1079 -336 325 28 599 143 799 336
71 68 171 190 171 207 0 5 -499 9 -1110 9 -610 0 -1110 -4 -1110 -9z M1411
8434 c-71 -124 -296 -573 -391 -779 -474 -1021 -712 -1823 -687 -2315 34 -676
563 -2301 1495 -4597 l167 -413 3335 0 3335 0 74 183 c1024 2522 1553 4131
1587 4827 25 495 -212 1295 -686 2317 -95 204 -320 653 -391 777 l-31 56 -666
0 -667 -1 35 -29 c59 -49 178 -112 248 -131 59 -16 110 -18 440 -19 209 0 372
-4 372 -9 0 -5 21 -12 48 -16 82 -12 110 -52 285 -407 384 -776 648 -1469 760
-1992 l32 -151 0 -320 0 -320 -33 -155 c-76 -351 -204 -805 -364 -1290 -134
-407 -228 -669 -293 -820 -36 -83 -119 -296 -186 -473 -245 -649 -604 -1558
-659 -1667 -16 -30 -42 -68 -60 -85 l-31 -30 -3132 -3 c-2252 -2 -3143 0
-3170 8 -56 16 -89 76 -220 396 -540 1320 -1049 2760 -1257 3553 -39 147 -84
335 -100 418 -29 150 -30 158 -30 467 0 276 3 328 21 423 77 405 267 958 529
1538 84 187 280 592 347 718 80 152 134 197 236 197 20 0 37 5 37 10 0 6 131
10 373 10 l372 0 62 29 c57 27 152 87 212 133 23 17 5 18 -647 18 l-670 0 -31
-56z"/>
</g>
</svg>
