<?xml version="1.0" standalone="no"?>
<!DOCTYPE svg PUBLIC "-//W3C//DTD SVG 20010904//EN"
 "http://www.w3.org/TR/2001/REC-SVG-20010904/DTD/svg10.dtd">
<svg version="1.0" xmlns="http://www.w3.org/2000/svg"
 width="2048.000000pt" height="2048.000000pt" viewBox="0 0 2048.000000 2048.000000"
 preserveAspectRatio="xMidYMid meet">
<metadata>
Created by potrace 1.13, written by Peter Selinger 2001-2015
</metadata>
<g transform="translate(0.000000,2048.000000) scale(0.192120,-0.192120)"
fill="#000000" stroke="none">
<path d="M2060 10321 c-75 -23 -146 -87 -179 -161 -24 -53 -27 -140 -7 -198 8
-22 150 -243 315 -491 266 -398 307 -455 349 -482 26 -16 65 -34 87 -40 84
-23 206 12 266 78 64 68 92 177 69 261 -17 65 -617 960 -664 991 -70 46 -166
63 -236 42z m180 -328 c30 -32 148 -195 260 -363 204 -304 204 -305 205 -360
0 -51 -2 -55 -25 -59 -64 -8 -93 27 -353 418 -180 269 -227 349 -227 385 0 31
7 36 49 36 30 0 44 -9 91 -57z M8437 10316 c-88 -33 -99 -46 -417 -523 -198
-296 -313 -477 -320 -505 -23 -84 5 -193 69 -261 60 -66 182 -101 266 -78 22
6 61 24 87 40 42 27 83 84 349 482 165 248 307 469 315 491 20 58 17 145 -7
198 -25 55 -81 115 -134 142 -51 27 -156 34 -208 14z m111 -294 c6 -39 -40
-120 -225 -397 -254 -381 -282 -414 -346 -415 -34 0 -50 34 -38 78 9 30 359
561 439 665 52 69 95 99 137 95 22 -2 31 -9 33 -26z M687 9490 c-198 -50 -283
-277 -162 -436 32 -42 1169 -898 1229 -925 51 -23 136 -24 198 -3 145 49 222
227 159 369 -12 27 -29 58 -39 69 -27 30 -1173 888 -1213 907 -45 23 -123 31
-172 19z m187 -310 c28 -18 261 -190 519 -382 465 -349 500 -379 470 -409 -19
-19 -69 -12 -119 15 -65 35 -963 709 -991 744 -23 28 -29 53 -15 66 14 15 85
-3 136 -34z M9847 9490 c-20 -6 -50 -18 -65 -27 -54 -35 -1177 -881 -1194
-899 -35 -40 -61 -117 -62 -180 0 -113 77 -223 182 -258 62 -21 147 -20 198 3
59 27 1197 883 1228 923 77 102 73 249 -10 346 -63 74 -185 115 -277 92z m71
-296 c2 -11 -7 -33 -19 -48 -24 -31 -907 -696 -981 -740 -51 -30 -94 -39 -120
-24 -26 13 -22 41 10 70 64 60 961 723 1007 745 60 28 99 27 103 -3z M5070
8984 c-544 -39 -1016 -179 -1419 -419 -207 -124 -470 -352 -618 -536 -252
-311 -421 -681 -487 -1064 -51 -290 -35 -763 35 -1065 55 -238 141 -419 224
-470 76 -47 115 -15 146 116 139 597 374 1014 737 1306 120 96 117 95 187 37
417 -347 767 -534 916 -490 90 27 131 118 113 252 -5 38 -8 69 -6 69 3 0 77
-71 166 -157 295 -287 514 -441 599 -419 80 20 50 211 -73 474 -27 56 -47 102
-44 102 2 0 34 -25 71 -55 250 -202 829 -346 1496 -372 l168 -6 56 -91 c92
-149 222 -379 318 -565 98 -189 157 -267 211 -277 27 -5 38 0 71 30 126 113
202 538 205 1138 1 188 -2 266 -15 343 -81 474 -316 913 -687 1285 -447 448
-1019 722 -1700 815 -111 15 -548 27 -670 19z m465 -304 c370 -25 688 -102
1000 -242 643 -288 1122 -809 1285 -1396 19 -67 20 -103 20 -576 0 -304 -4
-515 -10 -530 -22 -58 -37 -39 -211 253 -120 202 -266 335 -394 360 -27 6
-120 15 -205 21 -525 37 -850 106 -1185 251 -138 59 -219 73 -272 45 -31 -16
-125 -104 -174 -164 -16 -20 -36 -32 -50 -32 -15 0 -66 33 -134 86 -117 92
-211 144 -260 144 -37 0 -87 -32 -191 -122 -68 -60 -82 -68 -118 -68 -73 0
-225 88 -516 299 -136 99 -231 150 -289 158 -117 16 -324 -118 -512 -331 -160
-179 -258 -323 -356 -520 -69 -139 -111 -206 -129 -206 -30 0 -35 77 -31 498
4 413 4 418 29 502 48 158 69 215 123 327 221 464 637 833 1172 1041 415 161
924 234 1408 202z M2419 5805 c-62 -152 -84 -383 -54 -576 48 -324 227 -580
423 -606 l39 -5 5 -154 c3 -85 7 -156 10 -159 9 -9 55 13 77 36 19 20 21 35
21 130 0 137 -19 177 -123 264 -159 132 -196 175 -242 270 -43 90 -76 209 -95
340 -6 39 -16 102 -21 140 -6 39 -14 135 -17 215 l-7 145 -16 -40z M8238 5630
c-5 -134 -11 -183 -32 -263 -14 -53 -30 -105 -35 -115 -5 -9 -23 -65 -40 -124
-29 -100 -51 -155 -87 -220 -17 -31 -100 -108 -164 -151 -59 -39 -110 -88
-110 -104 0 -7 -4 -13 -9 -13 -38 0 -58 -249 -23 -291 19 -24 71 -53 79 -45 3
3 8 75 11 159 l5 155 39 5 c101 14 224 111 298 237 140 234 178 600 92 875
l-19 60 -5 -165z M4105 5027 c-68 -33 -130 -102 -149 -168 -22 -72 -22 -374
-1 -445 30 -103 130 -183 239 -191 120 -10 220 46 273 155 28 57 28 58 28 262
0 203 0 205 -27 256 -51 97 -127 146 -238 151 -64 3 -83 0 -125 -20z M6347
5036 c-64 -23 -119 -73 -155 -141 -27 -49 -27 -52 -27 -255 0 -195 1 -208 24
-258 59 -130 208 -193 347 -145 70 24 147 103 168 173 22 74 23 374 1 447 -19
65 -85 139 -150 169 -58 27 -147 31 -208 10z M2680 4213 c-529 -40 -1055 -184
-1424 -389 -556 -310 -862 -765 -917 -1364 -29 -310 22 -556 181 -888 80 -165
138 -265 265 -452 159 -236 359 -482 554 -683 l104 -107 278 0 c256 0 278 1
282 18 3 9 65 259 138 555 l133 537 418 0 418 0 278 -138 277 -139 690 -137
c645 -129 695 -140 760 -174 85 -45 192 -146 201 -191 8 -40 20 -40 28 0 9 48
117 147 207 192 68 34 125 47 758 173 l685 136 278 139 278 139 418 0 418 0
133 -537 c73 -296 135 -546 138 -555 4 -17 26 -18 282 -18 l278 0 91 92 c195
200 409 463 567 698 126 186 185 286 265 452 158 326 209 581 181 888 -53 579
-339 1021 -859 1331 -394 234 -954 390 -1533 425 l-115 6 -13 -98 c-17 -135
-80 -375 -134 -514 -125 -322 -300 -598 -536 -843 -293 -303 -647 -527 -1030
-648 -67 -22 -77 -28 -117 -80 -98 -128 -240 -227 -404 -281 -90 -30 -103 -32
-250 -32 -147 0 -160 2 -250 32 -166 55 -305 152 -404 281 -41 53 -48 58 -132
85 -520 168 -994 533 -1305 1003 -83 125 -185 325 -245 478 -54 138 -117 382
-135 518 l-12 97 -61 -2 c-34 -1 -81 -3 -106 -5z m5550 -299 c343 -44 690
-142 968 -275 440 -209 710 -490 829 -865 l28 -89 0 -355 0 -355 -27 -75 c-84
-234 -168 -394 -343 -655 -140 -207 -366 -489 -469 -583 -68 -63 -103 -75
-238 -80 l-117 -4 -29 32 c-36 39 -50 81 -151 476 -44 172 -89 331 -102 355
-30 60 -139 170 -196 200 -48 24 -49 24 -416 27 -456 4 -436 8 -756 -148 -124
-60 -256 -119 -293 -130 -37 -11 -337 -75 -665 -140 -329 -66 -620 -128 -648
-137 -27 -8 -94 -38 -147 -64 -54 -27 -111 -49 -128 -49 -17 0 -75 22 -130 50
-55 27 -132 59 -173 70 -40 11 -331 72 -647 135 -316 63 -600 122 -630 131
-30 8 -162 67 -292 130 -332 160 -309 156 -765 152 -428 -3 -406 1 -526 -116
-105 -103 -115 -127 -201 -472 -91 -363 -111 -423 -153 -468 l-33 -35 -112 5
c-139 5 -170 18 -258 107 -154 156 -414 493 -542 704 -101 166 -196 360 -240
487 l-43 125 -3 294 c-3 330 1 368 65 541 140 377 471 671 983 873 267 105
673 199 926 214 l100 6 16 -34 c9 -19 30 -80 48 -136 108 -350 263 -656 478
-943 119 -159 383 -422 542 -539 203 -151 375 -248 626 -352 162 -67 172 -73
284 -164 152 -123 239 -177 357 -219 265 -94 572 -65 806 76 28 17 89 61 135
97 170 135 192 149 299 191 569 225 1003 580 1338 1095 130 201 238 436 330
719 32 99 67 188 77 198 20 20 14 21 238 -8z M5015 3243 c-117 -30 -138 -189
-32 -253 30 -19 52 -20 348 -20 312 0 316 0 350 23 96 64 84 199 -21 241 -34
14 -85 16 -333 15 -160 -1 -301 -4 -312 -6z M4895 2011 c144 -68 390 -98 601
-71 98 12 256 56 304 86 l25 15 -30 -6 c-278 -48 -622 -48 -930 0 -21 3 -13
-4 30 -24z M5313 529 c-17 -70 -48 -116 -102 -150 -58 -37 -76 -36 -130 6 -24
19 -60 39 -80 45 -23 6 -509 10 -1381 10 l-1346 0 -69 -34 c-39 -19 -83 -44
-100 -55 l-30 -21 3255 0 3255 0 -45 29 c-25 15 -75 40 -112 54 l-66 27 -1339
0 c-852 0 -1351 -4 -1374 -10 -19 -5 -54 -26 -76 -45 -23 -19 -50 -35 -60 -35
-31 0 -108 55 -132 93 -12 19 -27 58 -34 86 -6 28 -14 51 -17 51 -3 0 -11 -23
-17 -51z"/>
</g>
</svg>
