<?xml version="1.0" standalone="no"?>
<!DOCTYPE svg PUBLIC "-//W3C//DTD SVG 20010904//EN"
 "http://www.w3.org/TR/2001/REC-SVG-20010904/DTD/svg10.dtd">
<svg version="1.0" xmlns="http://www.w3.org/2000/svg"
 width="2048.000000pt" height="2048.000000pt" viewBox="0 0 2048.000000 2048.000000"
 preserveAspectRatio="xMidYMid meet">
<metadata>
Created by potrace 1.13, written by Peter Selinger 2001-2015
</metadata>
<g transform="translate(0.000000,2048.000000) scale(0.192120,-0.192120)"
fill="#000000" stroke="none">
<path d="M5340 10319 c-350 -35 -753 -144 -1012 -275 -46 -24 -47 -24 -150 -9
-353 50 -746 -15 -1085 -180 -515 -251 -891 -710 -1033 -1258 -61 -238 -60
-212 -60 -1636 l0 -1298 118 -54 c64 -29 253 -134 420 -232 167 -98 309 -180
316 -183 9 -4 9 14 -2 78 -12 67 -16 266 -19 1056 l-4 972 33 0 c50 0 208 36
309 70 372 124 658 379 838 745 114 231 184 484 197 713 4 61 10 112 14 112 4
0 12 -19 19 -42 37 -125 158 -340 292 -518 365 -484 928 -866 1616 -1096 450
-150 1015 -252 1493 -270 80 -3 155 -7 168 -10 l23 -5 -4 -822 c-4 -680 -7
-836 -19 -902 -9 -44 -15 -81 -14 -81 0 -1 137 79 303 177 166 98 359 204 430
237 l128 59 0 949 c0 1036 1 1017 -61 1303 -196 910 -805 1689 -1639 2096
-316 154 -607 242 -955 290 -139 19 -528 27 -660 14z m455 -299 c931 -63 1751
-550 2217 -1316 155 -256 258 -521 324 -832 l24 -112 0 -973 -1 -972 -115 -62
c-64 -35 -122 -63 -130 -63 -9 0 -14 11 -14 30 0 20 -5 30 -15 30 -13 0 -15
74 -15 605 0 346 -4 605 -9 605 -5 0 -12 16 -15 35 -4 19 -11 35 -15 35 -4 0
-12 9 -17 19 -31 66 -165 186 -234 210 -19 7 -151 23 -294 37 -526 49 -868
116 -1264 245 -207 68 -366 135 -557 233 -314 161 -514 304 -736 526 -157 157
-213 226 -363 451 -143 217 -254 329 -325 331 -39 1 -86 -30 -153 -100 -70
-73 -109 -155 -148 -307 -74 -285 -135 -435 -243 -598 -173 -260 -356 -379
-763 -496 -39 -12 -91 -35 -115 -52 -62 -45 -188 -177 -195 -205 -3 -13 -10
-24 -15 -24 -5 0 -9 -11 -9 -25 0 -14 -4 -25 -10 -25 -7 0 -10 -258 -10 -755
0 -745 0 -756 -19 -745 -18 9 -20 6 -23 -30 l-3 -40 -127 71 -128 70 0 1307
c0 1274 1 1309 20 1391 72 298 206 528 437 752 225 217 499 363 814 433 174
38 297 48 539 40 l215 -7 100 36 c55 19 164 58 243 86 379 135 752 187 1147
161z M4128 6704 c-63 -22 -123 -75 -156 -138 -27 -51 -27 -52 -27 -261 0 -237
7 -267 79 -337 53 -52 101 -72 182 -76 90 -5 156 21 215 85 71 77 74 91 74
323 0 204 0 205 -28 262 -62 126 -208 187 -339 142z M6357 6706 c-101 -37
-167 -112 -188 -213 -17 -83 -8 -387 13 -435 25 -57 93 -123 150 -148 41 -18
65 -21 122 -18 113 6 195 59 240 157 19 42 21 63 21 256 0 208 0 210 -27 260
-31 60 -67 95 -128 125 -56 28 -151 36 -203 16z M553 6230 c-83 -17 -128 -53
-164 -134 -42 -97 -21 -225 47 -287 26 -23 615 -355 752 -423 l53 -27 -20 -33
c-72 -117 -59 -289 31 -390 35 -41 82 -67 388 -221 192 -96 351 -179 355 -185
3 -5 12 -10 19 -10 9 0 17 22 22 66 12 91 24 97 106 56 63 -32 162 -102 340
-238 98 -75 173 -119 223 -129 l30 -6 -40 37 c-22 20 -227 190 -455 377 l-415
341 -240 135 c-343 192 -345 193 -345 236 0 41 -28 101 -62 131 -21 20 -79 58
-268 179 -36 23 -117 70 -180 105 -63 36 -123 71 -133 80 -10 8 -28 23 -39 32
-11 10 -22 34 -25 57 -5 40 -5 41 33 57 66 28 178 14 299 -36 55 -23 111 -42
125 -42 14 1 59 -14 100 -33 41 -18 149 -67 240 -108 247 -112 309 -135 403
-151 41 -8 84 11 105 45 15 23 50 4 -443 234 -209 97 -427 199 -484 226 -134
64 -243 81 -358 59z M9900 6230 c-38 -6 -194 -73 -515 -223 -608 -283 -576
-267 -565 -288 5 -9 26 -23 47 -32 33 -13 47 -13 112 -1 76 14 109 28 472 195
118 54 221 99 227 99 7 0 12 -5 12 -10 0 -6 23 1 51 15 102 52 261 79 323 55
23 -8 26 -15 26 -59 0 -51 0 -51 -75 -109 -5 -4 -39 -25 -75 -47 -36 -21 -110
-68 -165 -103 -55 -36 -125 -81 -155 -100 -134 -85 -162 -107 -185 -147 -14
-24 -25 -58 -25 -78 0 -44 12 -36 -337 -231 l-251 -141 -409 -335 c-224 -184
-430 -355 -457 -379 l-49 -43 34 7 c59 12 139 62 279 171 232 182 348 252 382
233 10 -5 19 -29 23 -61 3 -29 9 -61 11 -70 4 -15 61 10 355 158 375 187 404
207 450 300 20 41 24 64 24 144 0 84 -3 102 -27 150 -21 42 -25 57 -15 63 6 4
183 102 392 218 209 116 386 216 393 222 7 6 25 30 39 54 68 116 22 298 -89
352 -52 25 -172 35 -258 21z M2897 5192 c-15 -17 -17 -70 -17 -550 l0 -531 46
16 c25 8 60 30 78 48 54 54 66 136 66 450 0 229 2 265 15 265 8 0 15 7 15 16
0 13 6 15 28 10 15 -4 268 -113 562 -243 294 -129 590 -259 658 -289 283 -124
575 -181 670 -131 17 10 32 21 32 26 0 11 -123 67 -1172 530 -507 224 -920
401 -936 401 -16 0 -36 -8 -45 -18z M6675 4768 c-544 -242 -1009 -448 -1033
-458 l-43 -20 -10 28 c-32 84 -113 153 -205 172 -108 23 -230 -29 -286 -121
-47 -79 -47 -83 22 -109 33 -12 59 -24 57 -26 -1 -2 -52 -18 -112 -37 -171
-53 -1528 -498 -1544 -507 -8 -4 25 -16 82 -29 132 -30 146 -51 108 -151 -11
-27 -15 -50 -11 -50 11 0 989 428 1535 673 164 73 346 149 349 146 1 -2 13
-21 25 -42 46 -75 89 -75 310 -1 163 56 358 138 1057 447 374 166 540 237 548
237 4 0 6 -7 6 -15 0 -8 9 -15 20 -15 20 0 20 -7 20 -270 0 -173 4 -270 10
-270 6 0 10 -20 10 -44 0 -79 49 -146 133 -181 33 -14 35 -13 41 8 3 12 6 246
6 520 0 564 1 558 -75 556 -16 -1 -475 -199 -1020 -441z m-1439 -566 c-10 -2
-26 3 -35 12 -15 15 -13 16 19 4 26 -9 30 -13 16 -16z M4979 5167 c-96 -64
-84 -199 21 -241 34 -13 87 -16 330 -16 243 0 296 3 330 16 105 42 117 177 21
241 -34 23 -38 23 -351 23 -313 0 -317 0 -351 -23z M8450 4363 c-347 -290
-363 -298 -558 -298 l-122 0 0 -27 c0 -51 56 -11 -1135 -810 -181 -122 -431
-290 -555 -373 -124 -83 -385 -259 -580 -390 -195 -131 -490 -329 -655 -440
-165 -111 -466 -313 -670 -450 -203 -137 -505 -339 -670 -450 -658 -443 -1006
-674 -1026 -680 -14 -5 -35 5 -73 34 -36 28 -69 44 -106 51 -29 5 -190 10
-359 10 -253 1 -309 3 -325 15 -11 8 -32 15 -47 15 -27 0 -31 5 -58 87 -28 83
-61 587 -61 934 0 320 2 336 56 421 15 23 43 66 61 95 65 101 246 249 427 349
37 20 139 69 228 110 89 40 164 77 167 82 3 5 29 21 58 36 124 62 173 144 147
244 -6 19 -11 22 -31 17 -45 -11 -526 -225 -632 -281 -242 -128 -471 -320
-579 -486 -86 -132 -142 -301 -142 -424 0 -41 79 -1156 95 -1329 4 -45 10 -64
26 -78 20 -16 225 -17 3993 -17 l3973 0 20 23 c19 20 24 69 68 667 27 355 48
683 47 730 -5 324 -230 632 -638 870 -130 76 -709 338 -721 327 -2 -3 -6 -21
-10 -40 -14 -90 31 -159 145 -223 37 -21 69 -41 72 -45 3 -4 83 -43 178 -87
266 -123 422 -222 548 -347 86 -85 126 -143 170 -245 l34 -78 0 -264 c0 -231
-19 -590 -46 -863 -9 -93 -35 -177 -55 -182 -10 -3 -20 -11 -23 -19 -4 -12
-62 -14 -339 -14 -184 0 -357 -4 -385 -10 -30 -5 -79 -27 -117 -51 -38 -24
-72 -39 -81 -35 -14 5 -718 476 -1774 1185 -206 139 -451 303 -543 364 l-168
111 58 51 c133 115 1135 1005 1222 1084 l93 85 -32 11 c-18 6 -38 19 -46 30
-16 22 -19 75 -4 75 11 0 955 -417 1031 -455 27 -14 51 -25 54 -25 3 0 34 44
69 98 203 314 355 668 441 1025 37 157 78 388 73 416 -2 14 -46 -18 -188 -136z
m-254 -538 c15 -37 -102 -320 -184 -447 -22 -34 -50 -64 -69 -73 -28 -14 -36
-14 -78 1 -75 25 -284 120 -327 149 -63 42 -54 55 117 173 178 122 201 134
324 156 52 10 115 26 140 36 57 23 70 24 77 5z m-2406 -1385 c0 -13 -35 -64
-76 -110 -57 -64 -106 -161 -107 -210 -2 -63 42 -144 117 -218 65 -64 132
-110 1153 -796 359 -241 660 -447 668 -459 13 -19 13 -23 0 -37 -14 -13 -253
-15 -2196 -18 -1499 -1 -2193 1 -2220 8 -49 14 -52 40 -6 73 52 39 2597 1746
2626 1762 32 17 41 18 41 5z M2020 4492 c0 -41 43 -278 75 -408 87 -361 237
-710 444 -1031 29 -46 56 -83 61 -83 4 0 194 83 422 184 228 101 470 208 537
236 67 29 120 55 117 57 -7 7 -261 180 -532 362 -138 93 -254 177 -258 186 -3
9 -6 29 -6 44 l0 28 -99 -5 c-114 -5 -181 7 -261 49 -30 16 -155 112 -277 214
-148 122 -223 179 -223 167z m664 -713 c109 -22 111 -23 260 -122 83 -55 161
-109 174 -120 45 -41 25 -68 -89 -123 -221 -106 -303 -131 -341 -101 -76 59
-267 494 -233 529 3 3 31 -5 63 -17 31 -13 106 -33 166 -46z"/>
</g>
</svg>
