<?xml version="1.0" standalone="no"?>
<!DOCTYPE svg PUBLIC "-//W3C//DTD SVG 20010904//EN"
 "http://www.w3.org/TR/2001/REC-SVG-20010904/DTD/svg10.dtd">
<svg version="1.0" xmlns="http://www.w3.org/2000/svg"
 width="2048.000000pt" height="2048.000000pt" viewBox="0 0 2048.000000 2048.000000"
 preserveAspectRatio="xMidYMid meet">
<metadata>
Created by potrace 1.13, written by Peter Selinger 2001-2015
</metadata>
<g transform="translate(0.000000,2048.000000) scale(0.192120,-0.192120)"
fill="#000000" stroke="none">
<path d="M5065 10093 c-328 -26 -575 -72 -830 -153 -111 -36 -276 -100 -337
-131 -29 -15 -111 -31 -277 -55 -377 -53 -668 -114 -881 -183 -189 -62 -455
-213 -660 -376 -103 -81 -326 -300 -422 -415 -180 -213 -273 -371 -524 -885
-517 -1061 -803 -1943 -804 -2486 -1 -602 398 -2118 1155 -4384 l230 -690
3615 0 3614 0 159 470 c760 2256 1190 3847 1224 4525 24 503 -211 1301 -683
2318 -178 382 -395 802 -472 912 -136 195 -358 437 -547 597 -180 153 -431
308 -616 381 -240 96 -676 185 -1232 252 -63 8 -112 21 -175 49 -305 134 -639
219 -992 251 -104 9 -446 11 -545 3z m-201 -267 c126 -62 162 -190 76 -276
-54 -54 -120 -75 -418 -136 -797 -163 -1057 -247 -1238 -402 -89 -77 -258
-265 -377 -420 -85 -112 -102 -150 -297 -677 l-92 -250 5 -160 c3 -88 11 -203
18 -256 l12 -95 -36 -47 c-100 -131 -167 -370 -167 -597 0 -172 57 -403 131
-526 76 -128 205 -234 306 -250 l40 -6 6 -182 c14 -387 90 -702 251 -1031 198
-403 496 -743 871 -991 133 -87 319 -184 450 -235 l90 -35 1 -212 1 -212 -696
0 -696 0 -91 133 c-218 316 -416 649 -580 977 -233 465 -373 873 -420 1220
-61 463 65 1151 410 2228 25 78 46 148 46 156 0 15 -41 36 -71 36 -36 0 -99
-40 -130 -83 -82 -110 -155 -323 -308 -897 -67 -252 -120 -498 -151 -702 -17
-116 -20 -185 -20 -466 0 -351 3 -384 56 -597 35 -140 118 -389 174 -525 102
-247 127 -302 228 -500 264 -517 516 -909 683 -1064 88 -82 157 -121 233 -135
65 -12 1120 -16 1214 -5 30 4 52 12 52 19 0 6 12 17 27 24 27 12 42 3 43 -26
0 -21 13 -15 61 30 50 47 119 141 119 163 0 8 5 14 10 14 6 0 10 77 10 210 l0
210 -32 52 c-17 29 -64 85 -103 125 -65 65 -88 79 -221 143 -276 132 -326 164
-502 316 -127 109 -189 174 -297 312 -208 266 -344 540 -419 841 -43 171 -76
414 -76 559 0 48 -4 82 -10 82 -5 0 -10 11 -10 25 0 14 -4 25 -9 25 -5 0 -12
11 -15 24 -3 14 -54 71 -113 128 -257 247 -255 242 -337 613 -39 178 -42 332
-11 524 l12 76 11 -45 c62 -240 131 -406 201 -478 45 -46 81 -60 116 -44 34
16 50 53 80 188 56 253 180 566 302 764 124 201 304 401 461 513 l82 59 117
-95 c292 -233 529 -380 708 -438 59 -18 154 -17 192 4 63 33 96 145 75 255 -5
28 -7 52 -4 52 3 0 71 -64 151 -142 236 -231 425 -378 535 -420 58 -22 89 -17
112 18 35 53 -7 232 -105 439 -27 58 -47 105 -45 105 3 0 30 -20 61 -45 263
-215 802 -349 1532 -383 l145 -7 69 -115 c114 -189 180 -306 297 -526 61 -115
123 -222 138 -238 108 -115 202 -30 272 246 15 62 34 150 41 196 7 45 16 82
19 82 11 0 31 -137 37 -256 7 -136 -6 -230 -56 -406 -45 -156 -93 -266 -144
-326 -21 -24 -81 -79 -135 -122 -101 -80 -182 -163 -182 -187 0 -7 -4 -13 -10
-13 -5 0 -10 -11 -10 -25 0 -14 -4 -25 -10 -25 -6 0 -10 -29 -10 -67 0 -181
-28 -465 -57 -578 -30 -116 -175 -441 -258 -576 -135 -219 -152 -246 -185
-294 -45 -65 -206 -232 -295 -305 -120 -98 -214 -155 -419 -254 -108 -53 -209
-105 -224 -116 -54 -42 -129 -121 -166 -174 l-37 -54 3 -226 c2 -138 7 -230
13 -234 6 -4 23 -26 38 -50 27 -42 125 -142 140 -142 4 0 7 6 7 13 1 31 15 36
60 21 25 -9 48 -21 52 -27 10 -17 1125 -22 1220 -6 160 26 307 175 544 549
414 656 702 1316 805 1846 19 102 20 133 16 474 -4 339 -6 375 -30 505 -63
340 -88 443 -223 915 -95 333 -139 455 -197 551 -60 100 -147 145 -202 105
-17 -12 -14 -25 63 -272 324 -1032 438 -1673 378 -2124 -33 -243 -131 -577
-256 -870 -171 -402 -450 -900 -744 -1327 l-91 -133 -696 0 -696 0 1 212 1
212 75 28 c208 79 484 240 664 387 283 231 514 522 671 846 163 335 238 644
252 1031 l6 182 40 6 c63 10 151 63 210 125 241 254 299 770 126 1131 -22 47
-51 99 -65 117 -24 31 -24 33 -14 150 5 65 10 184 10 264 l0 146 -84 229 c-46
126 -115 311 -155 412 -65 169 -77 191 -148 284 -119 155 -288 343 -377 420
-179 153 -459 245 -1201 394 -148 30 -298 63 -332 75 -121 40 -182 109 -169
193 18 113 131 186 289 186 61 0 396 -27 434 -35 12 -3 44 -34 72 -69 57 -71
117 -115 197 -145 29 -11 178 -39 331 -61 321 -48 565 -96 743 -146 134 -38
335 -118 348 -138 4 -7 50 -38 102 -68 286 -168 635 -486 707 -645 27 -59 30
-63 63 -63 34 0 36 -3 75 -83 23 -45 111 -219 196 -387 85 -168 173 -350 194
-405 21 -55 71 -176 111 -270 229 -538 317 -774 409 -1090 35 -121 75 -279 90
-352 l26 -132 -4 -418 -3 -418 -52 -245 c-74 -358 -197 -845 -332 -1319 -65
-229 -128 -461 -140 -516 -27 -122 -85 -324 -197 -680 -94 -300 -116 -366
-169 -493 -20 -48 -100 -279 -179 -513 -160 -476 -172 -508 -216 -553 l-30
-31 -3405 -3 c-2932 -2 -3409 0 -3432 12 -45 23 -76 96 -203 473 -565 1686
-957 3061 -1094 3848 -23 129 -25 163 -25 475 0 372 3 403 70 670 128 515 444
1296 805 1990 47 91 116 227 153 302 l67 137 41 0 c38 1 42 3 48 32 3 17 19
48 36 69 16 21 30 42 30 46 0 15 151 178 245 265 145 134 342 273 495 349 25
13 47 26 50 31 8 13 125 63 215 93 179 60 424 114 765 166 113 18 230 40 260
51 72 25 150 78 191 129 84 103 54 91 260 111 271 27 275 27 390 25 94 -2 113
-6 163 -30z m635 -63 c6 -21 11 -71 11 -110 0 -67 19 -132 52 -178 87 -121
154 -177 257 -217 38 -15 192 -53 343 -83 477 -98 838 -194 962 -257 119 -60
251 -178 393 -351 138 -167 161 -211 295 -562 l83 -220 -3 -425 c-3 -344 -7
-429 -18 -447 -8 -12 -14 -29 -14 -37 0 -27 -22 -29 -46 -5 -13 13 -80 123
-150 244 -162 281 -183 312 -255 380 -104 96 -141 108 -384 125 -531 37 -854
106 -1220 261 -79 33 -113 42 -162 43 -54 1 -65 -2 -100 -30 -52 -42 -90 -101
-98 -149 -10 -64 -16 -77 -31 -71 -7 3 -20 -1 -27 -9 -12 -11 -33 3 -142 96
-150 127 -203 163 -266 180 -43 12 -49 11 -90 -13 -24 -15 -71 -54 -104 -88
-94 -96 -106 -103 -157 -90 -103 28 -265 124 -503 300 -77 56 -171 118 -210
137 -60 29 -77 34 -121 30 -61 -6 -156 -51 -228 -108 -154 -123 -320 -309
-430 -481 -57 -90 -171 -313 -221 -433 -53 -126 -70 -155 -90 -155 -27 0 -37
43 -46 189 -5 80 -15 184 -24 231 -8 47 -15 129 -15 183 l0 97 86 233 c122
327 172 428 279 557 175 211 301 325 426 385 153 73 441 151 944 255 165 34
329 73 365 87 123 48 217 140 277 268 22 49 28 77 31 155 2 52 5 101 7 108 3
9 46 12 169 12 l165 0 10 -37z M4150 6711 c-86 -28 -141 -74 -181 -151 -23
-43 -24 -54 -24 -255 0 -237 7 -267 79 -337 53 -52 101 -72 182 -76 89 -5 156
21 213 83 72 78 76 94 76 325 0 204 0 205 -28 262 -46 93 -128 148 -232 154
-33 2 -71 0 -85 -5z m100 -410 c0 -95 -4 -152 -11 -156 -5 -4 -21 -4 -35 -1
l-24 6 0 150 0 150 35 0 35 0 0 -149z M6357 6706 c-101 -37 -167 -112 -188
-213 -17 -85 -7 -387 15 -436 26 -58 90 -122 148 -147 62 -27 171 -25 230 4
52 25 107 82 132 135 19 42 21 63 21 256 0 208 0 210 -27 260 -31 60 -67 95
-128 125 -56 28 -151 36 -203 16z m111 -408 l-3 -153 -30 0 -30 0 -3 153 -3
152 36 0 36 0 -3 -152z M4983 5170 c-66 -40 -86 -103 -54 -174 16 -37 29 -51
63 -66 40 -18 67 -20 338 -20 271 0 298 2 338 20 34 15 47 29 63 65 31 70 11
136 -54 175 -30 19 -52 20 -347 20 -295 0 -317 -1 -347 -20z M4220 4213 c0
-18 105 -145 169 -206 179 -169 402 -275 681 -323 125 -22 391 -22 520 0 270
44 496 150 674 317 65 61 176 195 176 213 0 3 -499 6 -1110 6 -610 0 -1110 -3
-1110 -7z m1675 -199 c50 -20 -38 -81 -170 -118 -251 -71 -526 -73 -775 -5
-156 42 -255 108 -187 124 58 14 1096 13 1132 -1z"/>
</g>
</svg>
