<?xml version="1.0" standalone="no"?>
<!DOCTYPE svg PUBLIC "-//W3C//DTD SVG 20010904//EN"
 "http://www.w3.org/TR/2001/REC-SVG-20010904/DTD/svg10.dtd">
<svg version="1.0" xmlns="http://www.w3.org/2000/svg"
 width="2048.000000pt" height="2048.000000pt" viewBox="0 0 2048.000000 2048.000000"
 preserveAspectRatio="xMidYMid meet">
<metadata>
Created by potrace 1.13, written by Peter Selinger 2001-2015
</metadata>
<g transform="translate(0.000000,2048.000000) scale(0.192120,-0.192120)"
fill="#000000" stroke="none">
<path d="M4599 10315 c-171 -42 -315 -155 -392 -310 -50 -100 -59 -149 -64
-348 l-6 -188 -42 -83 c-47 -90 -56 -135 -75 -351 -48 -572 -175 -1623 -256
-2129 -53 -332 -62 -371 -108 -480 -87 -204 -175 -502 -230 -781 -51 -253 -67
-400 -73 -640 l-5 -230 -151 -150 c-84 -83 -258 -243 -387 -356 -129 -113
-241 -213 -248 -221 -11 -14 -8 -17 19 -27 68 -24 108 -10 231 81 120 89 462
401 529 484 73 88 115 160 123 210 4 21 11 118 15 214 22 456 111 863 304
1387 25 67 54 168 65 225 79 406 198 1323 277 2135 21 217 46 417 60 488 29
138 31 179 10 228 -14 35 -14 35 25 74 46 47 142 100 214 119 69 19 190 18
257 -2 179 -53 318 -192 374 -374 13 -41 21 -151 35 -440 18 -354 19 -591 20
-2945 0 -1754 3 -2572 11 -2598 22 -82 110 -147 199 -147 89 0 177 65 199 147
8 26 11 844 11 2598 1 2357 2 2591 20 2945 14 289 22 399 35 440 56 182 195
321 374 374 66 19 188 21 256 2 71 -19 150 -61 200 -107 40 -37 43 -42 34 -72
-14 -49 -11 -87 16 -200 16 -68 37 -231 60 -454 85 -840 163 -1467 245 -1983
40 -246 55 -313 103 -444 109 -303 132 -372 167 -511 83 -323 125 -590 140
-895 9 -176 18 -226 50 -290 50 -99 135 -190 385 -411 293 -259 363 -301 453
-277 30 8 32 11 20 25 -7 9 -121 111 -253 227 -132 116 -306 276 -387 356
l-147 145 -4 220 c-5 235 -20 376 -68 625 -57 293 -145 597 -234 805 -48 111
-63 180 -119 545 -81 516 -200 1521 -246 2060 -19 223 -27 263 -80 369 l-48
96 -6 155 c-8 195 -18 245 -68 349 -31 65 -57 100 -112 155 -234 233 -596 233
-832 1 -88 -87 -138 -182 -162 -309 l-16 -87 -18 83 c-10 47 -36 120 -59 167
-117 237 -388 367 -640 306z m289 -243 c70 -27 147 -88 197 -154 74 -100 155
-186 191 -203 61 -29 96 -2 247 184 32 39 80 89 107 110 165 131 442 117 588
-29 47 -47 55 -68 50 -126 l-3 -39 -140 0 c-116 -1 -151 -5 -205 -23 -231 -77
-401 -276 -455 -533 -24 -113 -55 -826 -55 -1284 -1 -233 -7 -501 -17 -665
-13 -227 -17 -594 -22 -2120 l-6 -1845 -35 0 -35 0 -6 1735 c-5 1518 -8 1762
-23 1950 -12 154 -19 413 -26 915 -10 782 -28 1202 -59 1335 -11 47 -40 127
-66 180 -39 78 -61 109 -129 175 -139 138 -283 192 -476 181 -58 -3 -115 -9
-126 -12 -28 -8 -39 31 -23 89 20 76 138 167 256 197 61 15 210 5 271 -18z
M1900 4214 c-261 -48 -492 -161 -805 -395 -214 -159 -457 -379 -651 -586
l-114 -123 0 -1390 0 -1390 1538 0 c1690 0 1586 -4 1715 61 80 41 201 162 250
249 46 84 81 191 101 309 20 119 21 377 2 522 -13 93 -53 288 -62 298 -1 2
-47 -35 -101 -81 -54 -46 -219 -184 -368 -307 -148 -123 -277 -230 -286 -237
-13 -12 -32 2 -141 106 -390 371 -742 916 -1006 1555 -86 210 -188 540 -180
585 2 10 100 99 218 198 162 135 430 360 498 417 7 6 -102 78 -179 119 -115
60 -205 87 -314 91 -49 2 -101 2 -115 -1z m162 -205 c21 -5 50 -21 65 -34 26
-22 28 -28 28 -108 0 -47 -3 -88 -6 -91 -3 -4 -37 8 -75 26 -88 41 -174 49
-220 20 -17 -11 -42 -42 -55 -69 -21 -41 -25 -67 -29 -187 l-5 -138 -50 -19
c-92 -35 -106 -102 -56 -280 117 -412 365 -935 656 -1379 125 -190 248 -344
395 -491 200 -201 274 -234 365 -164 19 14 37 25 40 25 4 0 26 -14 50 -30 101
-70 221 -111 280 -96 13 3 40 20 60 37 54 48 69 112 63 276 l-5 133 46 0 c69
0 117 -17 137 -48 15 -22 19 -51 22 -159 4 -120 1 -142 -23 -225 -14 -51 -48
-139 -76 -194 -58 -120 -114 -179 -205 -215 l-59 -24 -1417 -3 -1418 -2 0
1238 0 1238 40 39 c22 21 40 44 40 50 0 10 130 140 295 295 82 77 201 175 300
247 152 111 470 287 585 324 62 20 176 24 232 8z M8561 4210 c-71 -15 -141
-40 -211 -76 -65 -33 -192 -114 -194 -125 -1 -3 69 -63 154 -134 85 -71 157
-132 160 -136 3 -3 93 -79 200 -169 107 -89 196 -170 198 -180 8 -45 -94 -376
-180 -585 -263 -638 -618 -1186 -1010 -1559 l-121 -116 -46 39 c-284 234 -488
404 -594 494 -71 60 -130 107 -132 105 -8 -8 -55 -241 -65 -318 -15 -125 -12
-389 5 -499 19 -116 55 -226 102 -311 49 -87 170 -208 250 -249 129 -65 25
-61 1715 -61 l1538 0 0 1390 0 1390 -124 133 c-129 138 -336 332 -489 459
-309 255 -607 427 -850 489 -93 24 -240 33 -306 19z m259 -206 c63 -19 311
-140 385 -188 28 -18 82 -53 120 -77 182 -114 305 -217 542 -458 111 -114 203
-213 203 -222 0 -9 9 -24 20 -34 20 -18 20 -31 20 -1197 0 -1171 0 -1178 -20
-1178 -17 0 -20 -7 -20 -40 l0 -40 -1388 0 c-1512 0 -1448 -2 -1548 56 -62 37
-110 96 -156 192 -60 127 -88 251 -88 391 0 191 17 220 139 229 l68 4 -5 -134
c-5 -164 8 -225 63 -278 33 -32 41 -35 98 -35 67 1 154 34 241 94 25 17 48 31
52 31 4 0 23 -12 41 -26 47 -36 111 -30 176 14 25 18 49 32 54 32 14 0 187
174 260 262 232 279 424 584 614 973 118 242 187 409 254 612 101 301 97 384
-17 430 l-36 14 -4 137 c-3 119 -6 143 -26 184 -48 97 -140 114 -276 50 -54
-25 -71 -30 -78 -20 -4 7 -8 50 -8 95 0 78 1 83 28 101 15 11 43 25 62 30 54
16 171 14 230 -4z M5260 3042 c-59 -37 -88 -73 -157 -191 -87 -149 -169 -257
-278 -367 -200 -202 -349 -293 -610 -375 -71 -23 -155 -54 -186 -69 -99 -51
-161 -146 -142 -219 l8 -30 95 77 c95 77 95 78 197 99 329 69 644 283 880 598
91 120 178 281 218 398 35 105 32 115 -25 79z M5350 3055 c0 -35 54 -175 107
-277 118 -227 325 -459 538 -602 157 -106 346 -186 510 -216 72 -13 81 -20
247 -158 15 -13 17 -10 24 23 14 77 -32 153 -130 210 -22 13 -104 45 -181 70
-77 26 -169 60 -205 77 -265 127 -501 352 -676 644 -86 144 -118 182 -183 217
-43 24 -51 26 -51 12z"/>
</g>
</svg>
