<?xml version="1.0" standalone="no"?>
<!DOCTYPE svg PUBLIC "-//W3C//DTD SVG 20010904//EN"
 "http://www.w3.org/TR/2001/REC-SVG-20010904/DTD/svg10.dtd">
<svg version="1.0" xmlns="http://www.w3.org/2000/svg"
 width="2048.000000pt" height="2048.000000pt" viewBox="0 0 2048.000000 2048.000000"
 preserveAspectRatio="xMidYMid meet">
<metadata>
Created by potrace 1.13, written by Peter Selinger 2001-2015
</metadata>
<g transform="translate(0.000000,2048.000000) scale(0.192120,-0.192120)"
fill="#000000" stroke="none">
<path d="M5740 10323 c-351 -33 -587 -94 -813 -210 -218 -112 -355 -237 -520
-478 -9 -12 -36 -25 -72 -33 -31 -8 -121 -35 -198 -61 -805 -272 -1481 -774
-1912 -1421 -200 -300 -358 -678 -408 -981 l-13 -74 -104 -7 c-163 -10 -276
-55 -412 -164 -193 -156 -335 -435 -382 -757 -18 -121 -21 -382 -5 -507 39
-322 159 -649 330 -906 46 -69 114 -150 184 -222 l111 -113 -7 -62 c-17 -141
-22 -484 -10 -632 22 -274 78 -544 161 -776 22 -62 39 -114 37 -116 -2 -1
-104 -21 -228 -43 -123 -22 -431 -77 -684 -123 l-460 -84 -3 -1111 c-1 -612
-1 -1112 0 -1112 2 0 543 155 1202 344 l1200 343 65 -55 c251 -213 593 -348
1010 -398 240 -28 743 -15 1211 31 199 20 431 19 683 -5 457 -42 887 -53 1114
-30 426 45 788 185 1047 405 l62 52 1185 -339 c651 -187 1192 -342 1202 -345
16 -5 17 52 17 1111 0 1092 0 1116 -19 1116 -11 0 -306 52 -658 115 -351 63
-653 118 -671 121 -26 4 -33 9 -29 22 4 9 24 69 46 132 67 192 113 398 142
635 16 126 17 605 2 727 l-9 77 111 113 c277 283 463 695 516 1142 17 146 6
454 -20 576 -67 305 -202 548 -380 684 -135 103 -245 145 -404 154 l-109 7
-28 110 c-38 148 -89 282 -170 450 -411 849 -1289 1600 -2262 1934 -148 51
-414 118 -530 133 -48 7 -88 17 -88 22 0 15 80 137 146 222 154 198 319 306
515 337 l84 14 -85 12 c-189 26 -540 39 -690 24z m-187 -296 c29 4 66 7 82 8
27 0 30 -3 29 -30 -1 -17 -16 -64 -34 -105 -20 -46 -34 -97 -38 -135 l-4 -61
50 -60 c63 -76 124 -129 182 -159 25 -12 124 -43 221 -69 97 -25 210 -57 250
-72 119 -43 692 -336 845 -432 557 -351 1012 -823 1270 -1316 75 -143 111
-230 163 -386 21 -63 53 -144 70 -180 l32 -66 -3 -164 c-3 -141 -5 -161 -15
-137 -7 15 -24 52 -38 81 -14 29 -25 56 -25 60 0 19 -163 331 -214 409 -198
304 -515 582 -841 738 -406 195 -848 248 -1300 158 -230 -46 -498 -160 -723
-309 -139 -92 -164 -103 -203 -95 -16 4 -84 42 -151 86 -387 252 -729 359
-1153 359 -455 0 -860 -135 -1230 -411 -180 -134 -377 -341 -492 -516 -67
-102 -174 -306 -207 -395 -36 -96 -86 -198 -97 -198 -5 0 -9 71 -9 168 0 157
2 170 26 227 15 33 42 116 61 185 47 170 87 288 136 395 243 529 671 984 1262
1340 94 57 384 202 470 235 33 13 62 27 65 31 9 13 201 99 310 140 106 40 189
90 269 163 43 40 60 58 166 174 137 151 378 280 638 341 121 29 122 29 125 9
3 -16 10 -18 55 -11z m-1284 -2072 c250 -36 498 -123 716 -253 80 -47 237
-164 296 -219 l48 -44 83 71 c217 188 502 336 778 405 287 72 620 74 910 6
297 -69 601 -229 835 -439 280 -250 489 -598 579 -962 127 -517 36 -1058 -252
-1501 -80 -122 -152 -211 -270 -331 l-85 -86 58 -7 c95 -12 153 12 240 100
127 128 201 243 347 535 82 164 97 176 141 118 55 -73 153 -342 212 -584 l35
-143 0 -464 c0 -524 -9 -631 -76 -920 -46 -201 -51 -249 -30 -322 10 -32 24
-69 33 -82 9 -13 13 -26 11 -29 -6 -5 -505 70 -512 77 -3 2 -14 60 -25 129
-85 522 -268 1179 -421 1508 -21 45 -43 82 -48 82 -5 0 -17 -9 -28 -21 -10
-12 -55 -48 -99 -82 l-80 -60 -7 49 c-11 72 -1 113 31 126 14 5 59 8 99 5 l72
-5 -31 39 c-204 258 -624 246 -894 -25 -82 -83 -135 -169 -173 -281 l-27 -80
0 -330 0 -331 -125 44 c-68 23 -125 44 -125 45 -2 12 -55 101 -79 131 -68 85
-218 166 -335 182 l-51 7 0 -42 c0 -88 37 -136 159 -210 23 -14 44 -33 47 -44
11 -36 44 -38 -434 29 -265 38 -291 53 -292 167 l0 68 -37 -8 c-21 -4 -98 -7
-170 -6 l-133 1 0 -39 c0 -84 -63 -105 -267 -89 -211 17 -242 32 -251 120 -5
58 -11 60 -106 35 -141 -37 -266 -129 -336 -249 l-35 -59 -120 -41 -121 -42 1
330 0 331 -27 80 c-84 246 -287 428 -538 481 -129 27 -238 15 -355 -41 -78
-38 -129 -76 -174 -133 l-30 -39 89 1 c55 1 93 -3 101 -11 11 -11 15 -150 5
-161 -6 -5 -52 26 -138 95 -37 29 -71 53 -76 53 -20 0 -129 -269 -205 -506
-104 -322 -229 -853 -264 -1119 l-8 -60 -259 -52 c-143 -29 -261 -51 -263 -49
-2 2 9 30 24 62 38 83 43 188 13 309 -12 50 -33 151 -48 225 -25 134 -25 138
-29 741 l-4 606 26 102 c51 203 158 462 210 511 45 43 53 34 142 -160 98 -214
199 -369 334 -512 81 -86 162 -113 269 -92 l32 7 -85 86 c-117 119 -189 208
-269 330 -491 755 -387 1749 252 2391 291 293 665 480 1085 544 122 19 404 19
534 1z m-2488 -1096 c-20 -308 18 -729 100 -1126 l29 -141 -46 -77 c-140 -237
-250 -573 -320 -969 l-17 -99 -17 54 c-32 102 -109 284 -194 460 -86 178 -151
353 -180 489 -14 64 -17 130 -14 435 l3 360 28 80 c36 103 115 245 179 323 48
60 155 148 228 188 39 22 78 54 165 136 33 31 61 55 63 54 1 -2 -2 -77 -7
-167z m7214 54 c28 -22 86 -62 130 -88 199 -117 309 -260 397 -516 l32 -94 4
-324 c3 -272 1 -336 -13 -400 -42 -195 -117 -392 -223 -585 -56 -101 -98 -200
-157 -364 l-33 -93 -17 98 c-68 395 -173 712 -316 962 l-49 84 29 141 c97 466
130 958 85 1257 l-7 44 44 -41 c24 -22 67 -59 94 -81z m-5588 -2393 c89 -44
165 -120 206 -207 l32 -68 4 -205 c2 -113 -2 -313 -9 -446 -11 -220 -11 -243
4 -273 37 -70 120 -89 204 -47 55 28 283 119 287 114 1 -2 12 -35 23 -73 33
-111 108 -213 202 -277 25 -17 24 -17 -41 -17 -187 -2 -334 -75 -436 -219
-119 -166 -137 -386 -47 -564 32 -63 133 -169 189 -199 25 -13 45 -27 45 -30
0 -4 -21 -12 -47 -18 -222 -56 -383 -269 -383 -508 0 -93 15 -163 51 -240 81
-172 227 -274 529 -369 63 -19 124 -40 135 -45 33 -15 -456 -2 -575 16 -631
93 -1027 405 -1198 945 -97 308 -68 840 84 1548 100 466 286 1037 368 1130 60
68 126 93 228 89 62 -3 89 -10 145 -37z m4144 8 c66 -39 91 -73 142 -188 135
-308 289 -870 366 -1335 97 -584 102 -971 15 -1230 -134 -401 -404 -685 -789
-828 -272 -102 -586 -138 -1012 -118 -912 43 -1808 202 -2173 386 -90 46 -124
76 -156 141 -73 149 0 324 156 372 114 35 545 16 957 -43 94 -14 186 -25 203
-25 101 0 164 119 110 207 -27 44 -53 58 -145 78 -123 26 -495 122 -642 165
-417 125 -528 203 -527 370 0 103 66 211 150 246 86 36 493 2 1091 -91 183
-29 205 -26 256 34 46 55 33 155 -26 194 -13 8 -81 32 -152 52 -394 113 -768
269 -878 365 -142 126 -109 354 63 434 70 33 332 29 580 -8 618 -91 1331 -274
1647 -422 83 -39 133 -43 180 -14 64 39 67 54 53 324 -7 133 -11 333 -9 446 4
200 5 207 32 264 53 113 144 196 260 238 76 27 189 21 248 -14z m-2956 -1530
c83 -55 69 -78 -45 -78 -90 0 -124 39 -80 90 11 13 20 29 20 37 0 16 24 5 105
-49z m-2613 -299 c307 -87 512 -149 522 -159 8 -8 -27 -57 -96 -140 -10 -11
-13 -83 -13 -285 l0 -270 28 -85 c39 -115 111 -277 169 -378 26 -46 48 -95 48
-108 0 -30 -23 -40 -175 -82 -112 -30 -329 -91 -1305 -368 -300 -85 -553 -154
-563 -154 -16 0 -17 45 -15 827 3 819 3 828 23 831 55 8 65 13 65 32 0 11 4
20 8 20 19 0 830 152 890 167 87 21 141 72 168 156 10 31 21 57 25 57 4 0 103
-27 221 -61z m6944 5 c10 -31 29 -70 42 -86 51 -61 85 -69 665 -174 222 -41
267 -52 267 -65 0 -20 5 -22 93 -39 l67 -14 0 -828 c0 -455 -3 -828 -7 -828
-3 0 -212 58 -462 129 -251 71 -503 141 -561 156 -58 16 -136 38 -175 50 -38
12 -104 30 -145 40 -41 10 -122 33 -180 52 -90 29 -184 56 -447 129 -77 21
-83 40 -38 122 59 110 131 263 153 328 60 175 65 206 70 452 2 146 0 232 -6
232 -5 0 -12 13 -15 28 -3 16 -27 54 -53 86 -28 34 -43 60 -38 66 10 10 701
213 746 219 3 1 14 -24 24 -55z m-4665 -689 c46 -24 69 -48 56 -61 -3 -3 -27
-8 -53 -12 -40 -6 -52 -4 -66 10 -21 21 -23 53 -5 73 15 18 10 19 68 -10z
m233 -1164 c3 -4 3 -11 0 -14 -8 -8 -34 3 -34 14 0 11 27 12 34 0z M3825 6423
c-83 -30 -139 -69 -209 -144 -82 -89 -154 -229 -193 -374 -25 -93 -27 -114
-27 -300 0 -186 2 -207 27 -299 82 -298 254 -492 465 -526 151 -25 316 58 426
214 210 295 241 760 76 1103 -71 146 -168 249 -290 306 -82 39 -197 47 -275
20z m222 -294 c56 -27 108 -87 147 -168 l31 -66 3 -259 c3 -239 2 -263 -18
-328 -53 -173 -174 -281 -297 -264 -97 13 -166 74 -229 202 l-39 78 -3 272
c-3 263 -2 274 19 326 85 200 232 279 386 207z M6615 6427 c-61 -21 -117 -52
-165 -92 -291 -243 -375 -822 -177 -1220 117 -237 310 -366 501 -335 215 34
385 234 468 547 20 78 23 110 22 283 0 179 -2 203 -27 295 -62 231 -191 416
-344 492 -64 32 -85 37 -156 40 -50 2 -98 -2 -122 -10z m202 -294 c50 -20 115
-90 149 -159 l29 -59 3 -285 c3 -321 0 -343 -67 -448 -85 -130 -192 -172 -306
-118 -87 40 -166 150 -199 281 -21 78 -22 455 -2 530 57 215 228 327 393 258z
M4825 4497 c-120 -46 -185 -145 -185 -280 0 -62 5 -83 30 -134 l30 -60 118 -7
c64 -4 151 -12 192 -17 l75 -11 38 43 c123 138 68 381 -103 458 -51 23 -146
27 -195 8z M5675 4487 c-66 -22 -101 -44 -138 -88 -92 -107 -88 -265 9 -367
31 -32 48 -43 60 -38 10 4 87 12 173 18 176 13 181 15 217 93 33 69 33 161 0
230 -25 55 -90 119 -141 141 -50 21 -134 26 -180 11z"/>
</g>
</svg>
