<?xml version="1.0" standalone="no"?>
<!DOCTYPE svg PUBLIC "-//W3C//DTD SVG 20010904//EN"
 "http://www.w3.org/TR/2001/REC-SVG-20010904/DTD/svg10.dtd">
<svg version="1.0" xmlns="http://www.w3.org/2000/svg"
 width="2048.000000pt" height="2048.000000pt" viewBox="0 0 2048.000000 2048.000000"
 preserveAspectRatio="xMidYMid meet">
<metadata>
Created by potrace 1.13, written by Peter Selinger 2001-2015
</metadata>
<g transform="translate(0.000000,2048.000000) scale(0.192120,-0.192120)"
fill="#000000" stroke="none">
<path d="M4583 10310 c-164 -43 -297 -150 -373 -299 -53 -107 -62 -152 -67
-351 l-5 -185 -44 -90 c-50 -103 -54 -121 -84 -455 -67 -726 -187 -1685 -275
-2197 -29 -171 -41 -217 -78 -305 -84 -196 -175 -499 -227 -758 -50 -247 -71
-429 -77 -665 l-6 -230 -91 -94 c-90 -92 -335 -316 -571 -520 -66 -58 -132
-115 -146 -128 l-27 -24 -68 46 c-263 180 -486 207 -787 93 -97 -37 -242 -112
-350 -180 -259 -163 -605 -459 -863 -735 l-114 -123 0 -1390 0 -1390 1538 0
c1690 0 1586 -4 1715 61 80 41 201 162 250 249 81 146 117 320 117 561 0 176
-18 338 -54 477 l-23 92 107 89 c101 84 110 89 174 100 416 73 839 408 1059
838 57 111 90 205 102 286 6 42 5 47 -11 47 -31 -1 -112 -63 -153 -118 -21
-28 -56 -82 -76 -119 -215 -386 -521 -642 -890 -743 -166 -45 -296 -131 -355
-236 -32 -55 -35 -81 -19 -168 5 -22 -84 -101 -460 -411 l-243 -200 32 -27
c49 -41 183 -106 234 -113 60 -9 88 -1 131 36 55 49 69 113 62 279 -4 74 -9
146 -13 158 -7 24 -6 24 52 17 141 -17 157 -42 162 -243 4 -130 2 -150 -23
-235 -14 -50 -48 -138 -76 -193 -58 -120 -114 -179 -205 -215 l-59 -24 -1417
-3 -1418 -2 0 1238 0 1238 40 39 c22 21 40 45 40 51 0 7 80 89 178 182 245
236 390 352 595 476 142 86 348 190 416 210 106 31 262 13 327 -39 28 -23 29
-25 29 -118 0 -82 2 -94 15 -86 8 4 69 53 135 108 66 56 124 101 128 101 5 0
20 -9 34 -20 32 -25 95 -26 149 -4 126 52 576 438 729 624 72 88 125 184 125
225 0 19 4 36 9 39 4 3 11 85 14 183 11 359 95 797 222 1158 31 88 73 210 95
270 80 229 199 1082 330 2355 34 327 45 405 75 518 34 131 34 133 19 192 -8
33 -12 65 -9 70 13 21 83 59 145 79 70 23 193 28 270 10 129 -30 278 -147 337
-264 94 -187 92 -103 93 -3360 0 -1871 3 -2712 11 -2738 13 -47 67 -109 115
-132 94 -45 215 -1 265 96 18 35 18 120 21 2505 4 2391 4 2484 26 2929 12 253
27 490 33 527 32 203 205 393 399 437 121 28 276 5 370 -54 l39 -25 -5 -82
c-5 -76 -3 -93 30 -197 34 -106 40 -143 72 -460 87 -867 170 -1536 255 -2048
37 -229 55 -298 123 -481 135 -365 203 -644 251 -1020 15 -117 25 -243 25
-322 0 -75 4 -131 10 -135 6 -3 10 -22 10 -41 0 -41 36 -116 95 -199 106 -149
614 -594 743 -651 67 -30 103 -30 153 -2 l38 21 48 -39 c26 -21 88 -71 136
-111 48 -40 89 -73 90 -73 1 0 2 43 2 96 0 94 1 96 29 119 67 53 218 71 326
39 63 -19 311 -140 385 -188 28 -18 82 -53 120 -77 183 -114 306 -218 542
-458 111 -113 203 -213 203 -222 0 -9 9 -24 20 -34 20 -18 20 -31 20 -1197 0
-1171 0 -1178 -20 -1178 -17 0 -20 -7 -20 -40 l0 -40 -1388 0 c-1512 0 -1448
-2 -1548 56 -62 37 -110 96 -156 192 -61 129 -88 250 -88 399 0 211 18 246
139 263 41 6 75 9 77 7 2 -2 -1 -30 -6 -63 -15 -89 -12 -253 5 -310 9 -31 28
-63 50 -84 34 -33 41 -35 100 -35 54 0 75 6 147 43 47 24 99 55 117 70 l33 27
-218 180 c-297 246 -467 389 -481 406 -9 12 -8 25 4 60 16 44 16 49 -2 95 -24
63 -105 149 -187 197 -35 21 -120 56 -190 78 -149 47 -294 116 -398 190 -154
109 -349 326 -452 503 -107 185 -144 229 -225 270 -56 28 -66 23 -58 -31 35
-234 253 -581 495 -788 206 -176 447 -298 667 -336 63 -11 73 -17 174 -101
107 -88 107 -89 98 -121 -43 -141 -61 -268 -66 -467 -8 -295 23 -465 114 -630
49 -87 170 -208 250 -249 129 -65 25 -61 1715 -61 l1538 0 0 1390 0 1390 -124
133 c-379 405 -837 755 -1159 887 -155 63 -245 83 -372 84 -161 1 -281 -40
-453 -156 l-74 -50 -26 25 c-15 13 -137 120 -272 238 -135 118 -311 279 -392
359 l-146 145 -5 230 c-4 174 -11 270 -30 395 -59 389 -156 753 -274 1029 -40
95 -49 130 -88 365 -89 528 -199 1420 -265 2141 -31 333 -35 355 -90 461 l-47
90 -7 165 c-9 201 -17 241 -68 348 -118 248 -403 380 -672 311 -109 -28 -190
-74 -272 -155 -87 -86 -137 -180 -163 -310 l-18 -90 -7 50 c-20 136 -82 261
-176 355 -145 146 -349 202 -547 150z m297 -259 c75 -29 130 -75 212 -179 92
-115 125 -149 174 -178 35 -21 46 -23 70 -14 38 15 103 78 174 170 107 140
189 197 316 221 125 24 270 -13 354 -88 28 -25 57 -58 65 -74 16 -30 20 -116
7 -136 -5 -8 -41 -12 -117 -11 -124 2 -192 -11 -280 -53 -90 -43 -149 -91
-204 -166 -123 -168 -137 -227 -163 -698 -20 -351 -21 -503 -27 -2904 l-6
-2534 -22 -15 c-15 -9 -23 -25 -23 -42 0 -40 -18 -49 -96 -52 -79 -3 -104 10
-104 57 0 15 -7 33 -15 41 -13 14 -15 315 -15 2592 0 3049 -3 3179 -81 3386
-17 48 -92 171 -131 216 -53 62 -184 138 -278 160 -54 13 -162 16 -267 7 l-53
-5 0 69 c0 65 2 70 43 120 46 58 140 113 217 129 68 14 187 5 250 -19z M1854
3822 c-17 -11 -42 -42 -55 -69 -22 -45 -24 -59 -23 -215 0 -147 -2 -169 -16
-173 -33 -10 -62 -53 -67 -97 -9 -76 72 -340 182 -598 244 -572 553 -1067 860
-1376 107 -108 139 -134 179 -147 61 -21 105 -22 133 -2 21 15 17 19 -135 172
-356 358 -676 860 -917 1439 -102 243 -206 564 -205 628 1 15 60 70 200 186
225 187 217 165 91 228 -92 45 -178 54 -227 24z M8630 3821 c-65 -25 -150 -74
-149 -86 0 -5 88 -82 194 -170 138 -113 195 -166 195 -181 0 -58 -96 -363
-182 -574 -254 -623 -613 -1185 -982 -1537 -67 -64 -112 -114 -106 -118 52
-32 118 -24 192 25 51 34 200 182 275 275 61 75 219 294 261 360 164 264 335
587 427 805 120 287 205 547 205 628 0 46 -25 100 -52 113 -24 10 -24 12 -24
177 1 155 -1 170 -22 214 -13 27 -38 56 -56 68 -42 25 -114 26 -176 1z"/>
</g>
</svg>
