<?xml version="1.0" standalone="no"?>
<!DOCTYPE svg PUBLIC "-//W3C//DTD SVG 20010904//EN"
 "http://www.w3.org/TR/2001/REC-SVG-20010904/DTD/svg10.dtd">
<svg version="1.0" xmlns="http://www.w3.org/2000/svg"
 width="2048.000000pt" height="2048.000000pt" viewBox="0 0 2048.000000 2048.000000"
 preserveAspectRatio="xMidYMid meet">
<metadata>
Created by potrace 1.13, written by Peter Selinger 2001-2015
</metadata>
<g transform="translate(0.000000,2048.000000) scale(0.192120,-0.192120)"
fill="#000000" stroke="none">
<path d="M2060 10321 c-75 -23 -146 -87 -179 -161 -24 -53 -27 -140 -7 -198 8
-22 150 -243 315 -491 266 -398 307 -455 349 -482 26 -16 65 -34 87 -40 84
-23 206 12 266 78 64 68 92 177 69 261 -17 65 -617 960 -664 991 -70 46 -166
63 -236 42z m180 -328 c30 -32 148 -195 260 -363 204 -304 204 -305 205 -360
0 -51 -2 -55 -25 -59 -64 -8 -93 27 -353 418 -180 269 -227 349 -227 385 0 31
7 36 49 36 30 0 44 -9 91 -57z M8437 10316 c-88 -33 -99 -46 -417 -523 -198
-296 -313 -477 -320 -505 -23 -84 5 -193 69 -261 60 -66 182 -101 266 -78 22
6 61 24 87 40 42 27 83 84 349 482 165 248 307 469 315 491 20 58 17 145 -7
198 -25 55 -81 115 -134 142 -51 27 -156 34 -208 14z m111 -294 c6 -39 -40
-120 -225 -397 -254 -381 -282 -414 -346 -415 -34 0 -50 34 -38 78 9 30 359
561 439 665 52 69 95 99 137 95 22 -2 31 -9 33 -26z M687 9490 c-198 -50 -283
-277 -162 -436 32 -42 1169 -898 1229 -925 51 -23 136 -24 198 -3 145 49 222
227 159 369 -12 27 -29 58 -39 69 -27 30 -1173 888 -1213 907 -45 23 -123 31
-172 19z m187 -310 c28 -18 261 -190 519 -382 465 -349 500 -379 470 -409 -19
-19 -69 -12 -119 15 -65 35 -963 709 -991 744 -23 28 -29 53 -15 66 14 15 85
-3 136 -34z M9847 9490 c-20 -6 -50 -18 -65 -27 -54 -35 -1177 -881 -1194
-899 -35 -40 -61 -117 -62 -180 0 -113 77 -223 182 -258 62 -21 147 -20 198 3
59 27 1197 883 1228 923 77 102 73 249 -10 346 -63 74 -185 115 -277 92z m71
-296 c2 -11 -7 -33 -19 -48 -24 -31 -907 -696 -981 -740 -51 -30 -94 -39 -120
-24 -26 13 -22 41 10 70 64 60 961 723 1007 745 60 28 99 27 103 -3z M5015
8980 c-743 -61 -1362 -322 -1808 -763 -351 -347 -579 -778 -661 -1252 -39
-219 -40 -538 -5 -827 l12 -94 -36 -47 c-132 -173 -195 -488 -152 -768 49
-326 226 -580 424 -606 l41 -6 0 -116 c1 -117 13 -257 24 -268 14 -14 98 21
122 52 22 30 24 40 24 152 0 181 -10 197 -272 442 -132 124 -192 310 -205 632
-5 131 -2 196 12 303 9 75 21 136 25 136 4 0 11 -16 14 -34 4 -19 23 -86 42
-148 78 -246 186 -387 269 -350 34 16 50 53 80 188 121 544 414 1028 779 1288
l66 47 130 -104 c358 -287 630 -439 790 -441 81 -1 122 20 150 73 25 51 35
132 22 199 -5 28 -7 52 -4 52 2 0 75 -69 162 -153 247 -241 443 -390 554 -419
47 -13 48 -12 73 17 23 26 25 35 20 92 -7 75 -61 240 -119 364 l-41 90 -24
-22 c-21 -21 -23 -31 -23 -120 0 -74 -4 -99 -15 -109 -8 -7 -15 -19 -15 -26 0
-8 -4 -14 -9 -14 -11 0 -93 62 -176 134 -259 226 -324 258 -405 204 -19 -13
-51 -47 -71 -77 -21 -30 -51 -68 -68 -84 l-30 -30 -58 12 c-117 25 -322 144
-562 325 -234 177 -300 189 -460 84 -82 -54 -241 -206 -323 -309 -144 -182
-291 -452 -378 -694 -28 -77 -58 -159 -66 -183 -18 -49 -49 -71 -70 -50 -8 7
-21 40 -29 71 -12 48 -15 149 -15 589 l0 531 25 112 c146 650 638 1190 1333
1464 364 143 750 211 1207 211 631 0 1151 -150 1630 -471 347 -233 618 -533
788 -874 74 -150 105 -230 138 -365 l29 -115 0 -618 c0 -551 -2 -620 -16 -642
-15 -24 -17 -24 -43 -9 -37 22 -66 66 -170 257 -192 353 -250 438 -337 498
-59 41 -132 56 -329 69 -500 33 -823 101 -1175 245 -135 55 -212 67 -254 40
l-27 -18 23 -24 c40 -43 183 -132 276 -173 310 -134 809 -223 1371 -243 l65
-2 54 -90 c100 -164 237 -407 331 -586 104 -199 148 -253 206 -253 91 0 162
147 219 456 l23 123 12 -55 c43 -207 40 -439 -8 -585 -5 -16 -24 -86 -42 -155
-47 -180 -73 -223 -201 -326 -180 -145 -208 -197 -208 -384 0 -113 1 -120 26
-149 24 -29 97 -61 110 -48 11 11 23 150 24 268 l0 116 41 6 c107 14 224 109
304 244 184 315 176 823 -19 1111 l-36 54 10 119 c6 66 11 233 12 372 1 216
-2 268 -20 367 -85 466 -316 894 -682 1260 -446 448 -1021 723 -1700 815 -138
19 -568 27 -725 15z M4105 5027 c-27 -13 -69 -44 -92 -70 -62 -67 -73 -116
-73 -322 0 -216 10 -256 83 -330 140 -139 357 -104 444 73 28 57 28 58 28 262
0 203 0 205 -27 256 -51 97 -127 146 -238 151 -64 3 -83 0 -125 -20z M6347
5036 c-64 -23 -119 -73 -155 -141 -27 -49 -27 -52 -27 -255 0 -195 1 -208 24
-258 59 -130 208 -193 347 -145 70 24 147 103 168 173 22 74 23 374 1 447 -19
65 -85 139 -150 169 -58 27 -147 31 -208 10z M2680 4213 c-529 -40 -1055 -184
-1424 -389 -556 -310 -862 -765 -917 -1364 -29 -310 22 -556 181 -888 80 -165
138 -265 265 -452 159 -236 359 -482 554 -683 l104 -107 3887 0 3887 0 91 92
c195 200 409 463 567 698 126 186 185 286 265 452 158 326 209 581 181 888
-53 579 -339 1021 -859 1331 -394 234 -954 390 -1533 425 l-116 7 -12 -99 c-7
-55 -30 -166 -51 -249 -187 -734 -711 -1354 -1405 -1663 -60 -27 -157 -65
-214 -83 -99 -32 -106 -36 -141 -84 -103 -138 -273 -253 -445 -299 -84 -23
-254 -31 -345 -17 -205 32 -415 158 -534 319 -31 43 -42 50 -123 76 -589 191
-1115 632 -1410 1182 -144 268 -231 526 -270 797 l-16 117 -61 -2 c-34 -1 -81
-3 -106 -5z m0 -283 c14 -7 34 -55 66 -157 81 -255 166 -451 279 -643 234
-401 536 -714 921 -957 103 -66 320 -175 438 -220 134 -52 162 -68 256 -147
120 -102 186 -149 266 -189 156 -78 338 -112 512 -96 215 20 387 100 572 265
99 88 127 105 266 160 356 140 648 330 915 594 338 334 548 681 709 1171 34
101 68 195 76 208 15 22 19 23 92 16 413 -36 827 -142 1150 -296 440 -209 710
-490 829 -865 l28 -89 0 -355 0 -355 -27 -75 c-84 -234 -168 -394 -343 -655
-140 -207 -366 -489 -469 -583 -71 -65 -101 -75 -253 -80 l-133 -4 -28 30
c-36 38 -52 90 -151 479 -88 344 -105 388 -185 460 -103 92 -78 88 -521 88
-463 0 -422 8 -738 -147 -111 -55 -227 -109 -257 -120 -30 -10 -323 -73 -650
-139 -327 -65 -628 -128 -669 -140 -41 -11 -122 -44 -179 -74 -58 -30 -113
-55 -123 -55 -10 0 -60 22 -112 49 -51 27 -122 59 -156 71 -35 12 -332 75
-660 141 -328 65 -627 128 -666 140 -38 11 -176 72 -305 134 -149 73 -260 120
-304 130 -58 14 -129 16 -435 13 -357 -3 -367 -4 -408 -25 -64 -35 -156 -126
-186 -185 -16 -31 -61 -189 -111 -383 -121 -479 -115 -469 -306 -463 -152 5
-179 16 -270 107 -154 156 -414 493 -542 704 -101 166 -196 360 -240 487 l-43
125 -3 294 c-3 330 1 368 65 541 63 168 138 284 277 429 325 336 895 573 1576
655 147 18 157 18 180 6z m708 -2628 l277 -139 695 -138 c688 -137 696 -139
765 -178 86 -50 183 -144 191 -186 8 -40 20 -39 28 0 8 43 115 145 196 189 60
31 122 45 759 173 l694 139 279 139 278 139 419 0 419 0 125 -507 c69 -280
128 -523 132 -542 l7 -33 -68 38 c-38 20 -73 40 -79 44 -5 4 -36 17 -68 29
l-58 21 -1372 0 c-755 0 -1389 -4 -1410 -9 -21 -5 -62 -28 -93 -52 -48 -37
-57 -41 -77 -30 -31 17 -66 75 -80 132 -6 27 -14 49 -17 49 -3 0 -11 -23 -18
-52 -12 -50 -50 -110 -84 -132 -13 -8 -25 -4 -55 20 -21 17 -54 39 -73 50 -34
18 -78 19 -1450 19 l-1415 0 -75 -41 c-41 -23 -92 -51 -114 -64 l-38 -23 7 34
c4 19 63 262 132 542 l125 507 419 0 419 0 278 -138z M4995 3231 c-101 -46
-110 -176 -16 -238 34 -23 38 -23 348 -23 340 0 349 1 392 56 52 66 26 169
-51 204 -40 18 -67 20 -338 20 -265 0 -299 -2 -335 -19z M4975 2010 c55 -19
239 -40 355 -40 122 0 308 21 350 40 l25 10 -25 -4 c-14 -3 -98 -10 -188 -17
-150 -10 -382 -3 -514 16 l-33 5 30 -10z"/>
</g>
</svg>
