<?xml version="1.0" standalone="no"?>
<!DOCTYPE svg PUBLIC "-//W3C//DTD SVG 20010904//EN"
 "http://www.w3.org/TR/2001/REC-SVG-20010904/DTD/svg10.dtd">
<svg version="1.0" xmlns="http://www.w3.org/2000/svg"
 width="2048.000000pt" height="2048.000000pt" viewBox="0 0 2048.000000 2048.000000"
 preserveAspectRatio="xMidYMid meet">
<metadata>
Created by potrace 1.13, written by Peter Selinger 2001-2015
</metadata>
<g transform="translate(0.000000,2048.000000) scale(0.192120,-0.192120)"
fill="#000000" stroke="none">
<path d="M5340 10319 c-348 -34 -754 -145 -1012 -275 -46 -24 -47 -24 -150 -9
-353 50 -746 -15 -1085 -180 -516 -252 -891 -710 -1033 -1261 -61 -235 -60
-222 -58 -1642 l3 -1293 115 -51 c97 -44 600 -330 709 -404 19 -13 36 -22 37
-21 2 2 -4 41 -13 87 -14 73 -17 218 -20 1056 l-4 971 63 7 c91 9 273 59 382
104 336 141 588 390 756 747 103 219 180 530 180 727 0 32 4 58 8 58 5 0 16
-24 25 -53 41 -130 161 -341 291 -512 395 -518 1013 -917 1767 -1139 425 -125
918 -206 1369 -225 l155 -6 0 -805 c0 -780 -4 -900 -32 -994 -5 -18 -3 -18 33
4 407 247 780 450 825 450 7 0 9 330 6 963 -3 925 -4 967 -24 1092 -43 259
-93 449 -179 667 -341 876 -1066 1546 -1966 1818 -152 46 -321 82 -488 105
-139 19 -528 27 -660 14z m530 -300 c635 -59 1213 -312 1666 -730 426 -394
694 -869 808 -1433 l26 -127 0 -984 0 -985 -22 -13 c-96 -58 -289 -157 -298
-152 -5 3 -10 19 -10 35 0 22 -4 28 -15 24 -13 -5 -15 71 -15 650 0 431 -3
656 -10 656 -5 0 -10 9 -10 20 0 11 -4 20 -8 20 -4 0 -13 15 -20 34 -16 43
-109 132 -167 157 -34 15 -99 25 -263 40 -441 39 -672 76 -1007 161 -322 81
-578 175 -860 318 -312 156 -559 333 -780 554 -143 143 -213 231 -366 461
-116 174 -192 261 -248 285 -28 11 -37 11 -65 -2 -96 -46 -151 -136 -206 -340
-62 -224 -79 -275 -133 -398 -57 -130 -157 -285 -248 -383 -135 -148 -337
-265 -584 -338 -77 -23 -157 -50 -178 -61 -46 -23 -177 -151 -177 -172 0 -9
-4 -16 -10 -16 -5 0 -10 -11 -10 -25 0 -14 -4 -25 -10 -25 -7 0 -10 -274 -10
-801 0 -789 0 -801 -19 -796 -17 4 -20 -1 -23 -34 l-3 -38 -162 91 -163 90 0
1327 c0 1295 1 1328 20 1411 34 140 69 239 131 360 206 405 607 718 1068 835
184 46 291 56 576 53 l260 -3 110 42 c245 93 316 116 462 154 131 33 351 71
478 82 95 8 389 6 495 -4z M4150 6711 c-86 -28 -141 -74 -181 -151 -23 -43
-24 -54 -24 -255 0 -237 7 -267 79 -337 53 -52 101 -72 182 -76 89 -5 156 21
213 83 72 78 76 94 76 325 0 204 0 205 -28 262 -46 93 -128 148 -232 154 -33
2 -71 0 -85 -5z m108 -413 l-3 -163 -35 -3 c-54 -5 -60 11 -60 173 0 78 3 145
7 148 3 4 26 7 50 7 l43 0 -2 -162z M6357 6706 c-101 -37 -167 -112 -188 -213
-17 -85 -7 -387 15 -436 26 -58 90 -122 148 -147 62 -27 171 -25 230 4 52 25
107 82 132 135 19 42 21 63 21 256 0 208 0 210 -27 260 -31 60 -67 95 -128
125 -56 28 -151 36 -203 16z m123 -411 l0 -165 -38 0 c-21 0 -43 5 -50 12 -13
13 -18 299 -5 311 3 4 26 7 50 7 l43 0 0 -165z M547 6229 c-81 -19 -123 -54
-158 -134 -41 -92 -25 -212 38 -277 15 -16 203 -126 418 -245 l392 -218 -24
-46 c-74 -142 -41 -318 77 -410 19 -15 177 -98 350 -184 173 -87 329 -168 346
-181 29 -21 33 -31 43 -106 70 -498 239 -955 510 -1375 29 -46 57 -83 62 -83
5 0 40 14 77 31 37 17 256 114 487 215 231 102 447 198 480 214 33 16 132 60
220 98 88 38 437 192 775 342 338 150 644 285 680 300 36 15 130 57 210 93 80
36 573 254 1095 485 523 231 977 432 1010 447 l60 27 -27 14 c-67 35 -141 16
-465 -122 -291 -123 -554 -230 -761 -308 -84 -32 -459 -199 -566 -253 -139
-70 -162 -87 -221 -173 -27 -38 -49 -70 -50 -70 -1 0 -18 24 -38 53 -117 178
-366 176 -475 -3 -18 -30 -31 -59 -29 -64 2 -6 50 -31 108 -56 98 -43 102 -45
67 -48 -20 -2 -50 4 -67 13 -36 18 71 50 -946 -282 -379 -124 -699 -230 -710
-236 -17 -9 -6 -14 73 -32 89 -21 132 -44 132 -71 0 -24 -41 -124 -51 -124 -5
0 -62 36 -127 80 -64 44 -238 162 -387 262 l-270 183 -3 42 -3 41 -94 -5
c-181 -11 -245 17 -473 204 -203 167 -190 148 -153 222 44 86 64 85 207 -15
60 -42 132 -95 159 -118 28 -23 91 -70 140 -105 50 -35 116 -89 148 -120 l57
-55 0 29 c0 17 3 40 6 52 5 18 0 25 -22 35 -16 7 -254 197 -529 423 l-500 409
-235 133 c-129 73 -241 137 -249 142 -10 6 -11 13 -2 29 18 33 13 96 -11 140
-25 45 -124 152 -176 192 -19 14 -39 30 -45 35 -31 27 -117 85 -164 110 -29
16 -53 31 -53 34 0 4 -16 15 -35 25 -42 23 -47 45 -7 38 15 -2 97 -36 182 -74
110 -49 159 -67 170 -60 11 6 50 -7 135 -45 176 -80 461 -184 522 -190 43 -5
57 -2 75 13 20 19 57 88 58 110 0 12 4 10 -695 336 -507 236 -541 249 -660
247 -27 -1 -67 -5 -88 -10z m1954 -2323 c41 -18 105 -41 143 -50 85 -21 110
-34 183 -94 52 -43 154 -118 286 -209 93 -64 67 -88 -243 -223 -41 -18 -96
-35 -122 -38 -59 -6 -73 8 -148 144 -120 217 -221 504 -177 504 2 0 37 -15 78
-34z M9895 6230 c-42 -8 -933 -413 -1165 -530 -66 -33 -67 -37 -34 -102 44
-86 95 -81 410 40 71 28 174 71 229 97 80 37 104 44 118 36 13 -9 31 -4 85 23
73 36 241 105 272 111 13 3 20 -2 20 -12 0 -9 -3 -14 -6 -10 -3 3 -16 -3 -28
-15 -11 -11 -32 -27 -46 -36 -254 -161 -386 -278 -437 -388 -23 -51 -24 -60
-13 -97 15 -50 39 -32 -254 -196 -243 -136 -168 -79 -936 -710 -157 -129 -297
-239 -312 -245 -28 -10 -28 -11 -28 -102 0 -82 -2 -94 -22 -113 -21 -20 -201
-141 -1113 -753 -181 -122 -431 -290 -555 -373 -124 -83 -385 -259 -580 -390
-195 -131 -490 -329 -655 -440 -165 -111 -466 -313 -670 -450 -203 -137 -505
-339 -670 -450 -658 -443 -1006 -674 -1026 -680 -14 -5 -35 5 -73 34 -36 28
-69 44 -106 51 -29 5 -190 10 -359 10 -253 1 -309 3 -325 15 -11 8 -32 15 -47
15 -27 0 -31 5 -58 87 -28 83 -61 587 -61 934 0 320 2 336 56 421 15 23 43 66
61 95 65 101 246 249 427 349 37 20 139 69 228 110 89 40 164 77 167 82 3 5
34 23 68 41 121 61 177 156 143 245 l-9 26 -103 -44 c-590 -250 -777 -356
-979 -556 -116 -114 -189 -217 -237 -332 -35 -83 -62 -205 -62 -274 0 -41 79
-1156 95 -1329 4 -45 10 -64 26 -77 20 -17 225 -18 3993 -18 l3973 0 20 23
c19 20 24 69 68 667 27 355 48 683 47 730 -5 327 -232 635 -646 875 -151 87
-709 336 -723 322 -3 -3 -8 -26 -10 -51 -4 -33 0 -56 16 -90 24 -49 55 -76
146 -127 33 -18 62 -36 65 -40 3 -4 83 -43 178 -87 266 -123 422 -222 548
-347 86 -85 126 -143 170 -245 l34 -78 0 -264 c0 -231 -19 -590 -46 -863 -8
-86 -34 -176 -53 -183 -9 -3 -20 -11 -24 -19 -6 -10 -75 -13 -341 -13 -183 0
-356 -4 -384 -10 -30 -5 -79 -27 -117 -51 -38 -24 -72 -39 -81 -35 -14 5 -718
476 -1774 1185 -206 139 -451 303 -543 364 l-168 111 58 51 c144 125 1148
1016 1232 1093 l94 86 -33 11 c-37 12 -53 35 -48 69 3 23 22 16 503 -198 275
-122 514 -230 532 -239 18 -9 35 -17 38 -17 3 0 34 44 69 98 267 413 439 878
507 1372 6 47 16 91 22 98 6 8 163 90 350 184 378 189 407 210 447 316 31 80
25 197 -13 273 -20 41 -24 56 -14 62 6 4 182 102 391 217 208 115 385 215 393
221 8 7 26 32 40 56 68 117 22 298 -91 353 -54 25 -177 35 -261 20z m-1394
-1725 c15 -27 28 -56 28 -62 1 -14 -280 -252 -364 -309 -72 -49 -160 -74 -259
-73 -44 1 -91 4 -104 7 l-22 7 30 37 c17 20 81 73 143 117 61 44 146 107 187
140 41 33 118 90 170 126 78 54 101 65 129 63 29 -3 38 -10 62 -53z m-271
-609 c0 -60 -63 -232 -146 -399 -52 -105 -94 -168 -131 -197 -33 -26 -54 -22
-188 35 -243 105 -291 133 -283 172 2 10 53 52 114 93 61 41 142 100 180 131
107 87 143 106 233 129 46 12 111 34 145 49 33 15 64 26 69 24 4 -2 7 -19 7
-37z m-2440 -1456 c0 -13 -35 -64 -76 -110 -57 -64 -106 -161 -107 -210 -2
-63 42 -144 117 -218 65 -64 132 -110 1153 -796 359 -241 660 -447 668 -459
13 -19 13 -23 0 -37 -14 -13 -253 -15 -2196 -18 -1499 -1 -2193 1 -2220 8 -49
14 -52 40 -6 73 52 39 2597 1746 2626 1762 32 17 41 18 41 5z M3035 5250 c-36
-6 -72 -26 -63 -35 7 -8 2004 -890 2036 -900 l24 -7 -24 43 c-37 69 -125 150
-203 188 -116 56 -460 208 -558 246 -51 20 -117 47 -147 60 -30 13 -91 37
-135 53 -44 17 -116 46 -160 65 -283 123 -562 238 -635 261 -106 34 -99 33
-135 26z M4983 5170 c-66 -40 -86 -103 -54 -174 16 -37 29 -51 63 -66 40 -18
67 -20 338 -20 271 0 298 2 338 20 34 15 47 29 63 65 31 70 11 136 -54 175
-30 19 -52 20 -347 20 -295 0 -317 -1 -347 -20z M7770 4679 l1 -474 24 59 c55
131 56 147 53 479 -2 202 -7 310 -14 315 -5 4 -16 21 -23 39 -7 18 -19 38 -27
44 -12 10 -14 -59 -14 -462z M2848 5105 c-6 -14 -15 -25 -19 -25 -5 0 -11 -16
-15 -35 -3 -19 -10 -35 -15 -35 -5 0 -9 -124 -9 -283 0 -301 5 -343 58 -457
l20 -45 1 453 c1 248 -1 452 -4 452 -3 0 -11 -11 -17 -25z"/>
</g>
</svg>
