<?xml version="1.0" standalone="no"?>
<!DOCTYPE svg PUBLIC "-//W3C//DTD SVG 20010904//EN"
 "http://www.w3.org/TR/2001/REC-SVG-20010904/DTD/svg10.dtd">
<svg version="1.0" xmlns="http://www.w3.org/2000/svg"
 width="2048.000000pt" height="2048.000000pt" viewBox="0 0 2048.000000 2048.000000"
 preserveAspectRatio="xMidYMid meet">
<metadata>
Created by potrace 1.13, written by Peter Selinger 2001-2015
</metadata>
<g transform="translate(0.000000,2048.000000) scale(0.192120,-0.192120)"
fill="#000000" stroke="none">
<path d="M5340 10319 c-348 -34 -754 -145 -1011 -275 -47 -23 -48 -23 -155 -9
-639 85 -1301 -177 -1722 -680 -187 -223 -320 -482 -392 -761 -61 -235 -60
-222 -58 -1642 l3 -1293 114 -51 c63 -28 255 -133 425 -233 171 -101 312 -179
314 -175 2 5 -2 42 -9 82 -9 54 -14 332 -16 1046 l-4 972 32 0 c17 0 84 12
147 26 582 130 979 536 1142 1168 34 130 60 298 60 385 0 33 4 61 8 61 5 0 14
-19 21 -42 22 -76 127 -280 200 -388 570 -850 1616 -1364 3021 -1485 96 -8
219 -15 273 -15 l98 0 -4 -827 c-3 -622 -7 -846 -17 -901 -7 -40 -10 -75 -7
-78 2 -3 49 22 103 55 299 180 534 312 638 356 l116 50 -3 960 c-3 923 -4 965
-24 1091 -134 823 -544 1513 -1189 2000 -419 316 -910 516 -1444 589 -139 19
-528 27 -660 14z m700 -278 c536 -82 1025 -302 1431 -643 114 -95 173 -153
288 -283 310 -349 500 -720 618 -1205 l27 -115 3 -1035 3 -1035 -62 -32 c-35
-18 -121 -66 -193 -108 -71 -41 -137 -74 -145 -73 -9 2 -16 16 -18 35 -2 23
-7 30 -18 26 -12 -4 -14 89 -14 691 0 457 -3 696 -10 696 -5 0 -10 9 -10 20 0
11 -4 20 -9 20 -5 0 -12 12 -15 26 -10 37 -83 101 -136 119 -43 14 -101 21
-365 45 -913 82 -1684 346 -2250 769 -123 92 -214 172 -333 293 -121 123 -204
229 -337 427 -152 226 -203 281 -264 281 -28 0 -78 -46 -103 -94 -11 -22 -24
-43 -28 -46 -8 -6 -28 -70 -64 -205 -76 -282 -162 -476 -281 -633 -198 -263
-409 -402 -745 -492 -47 -13 -104 -31 -126 -41 -45 -19 -154 -116 -154 -136 0
-7 -4 -13 -10 -13 -5 0 -10 -11 -10 -25 0 -14 -4 -25 -10 -25 -7 0 -10 -288
-10 -844 0 -839 0 -844 -20 -839 -17 5 -20 0 -20 -31 0 -20 -3 -36 -7 -36 -4
0 -81 42 -173 94 -91 52 -182 102 -202 112 l-38 18 0 1350 c0 1317 1 1353 20
1436 46 196 137 398 248 554 69 96 233 270 322 340 189 150 382 250 615 318
197 57 245 62 570 63 334 2 316 -1 524 80 239 93 498 159 721 184 52 6 109 13
125 15 17 2 143 3 280 1 189 -3 283 -8 385 -24z M4150 6711 c-86 -28 -141 -74
-181 -151 -23 -43 -24 -54 -24 -255 0 -237 7 -267 79 -337 53 -52 101 -72 182
-76 90 -5 156 21 215 85 71 77 74 91 74 323 0 204 0 205 -28 262 -46 93 -128
148 -232 154 -33 2 -71 0 -85 -5z M6357 6706 c-101 -37 -167 -112 -188 -213
-17 -83 -8 -387 13 -435 25 -57 93 -123 150 -148 41 -18 65 -21 122 -18 113 6
195 59 240 157 19 42 21 63 21 256 0 208 0 210 -27 260 -31 60 -67 95 -128
125 -56 28 -151 36 -203 16z M547 6229 c-21 -5 -50 -15 -65 -23 -124 -65 -155
-284 -55 -388 14 -15 203 -125 419 -245 l392 -218 -19 -31 c-22 -36 -49 -135
-49 -180 0 -61 38 -159 81 -208 36 -41 80 -66 373 -212 182 -92 345 -177 363
-190 25 -19 33 -34 38 -72 70 -522 247 -1008 515 -1408 32 -49 58 -89 57 -90
-1 -1 -123 -54 -272 -119 -148 -64 -315 -140 -370 -168 -328 -168 -584 -411
-683 -649 -35 -83 -62 -205 -62 -274 0 -41 79 -1156 95 -1329 4 -45 10 -64 26
-77 20 -17 225 -18 3993 -18 l3973 0 20 22 c19 21 24 70 68 668 27 355 48 683
47 730 -5 327 -232 635 -646 875 -86 49 -430 209 -704 325 -15 7 -20 15 -16
23 5 6 33 50 64 97 251 378 425 847 495 1330 10 63 22 121 28 128 6 8 163 90
349 183 363 182 393 203 439 295 20 41 24 64 24 144 0 84 -3 102 -28 150 -20
42 -24 57 -15 63 7 4 186 103 398 221 413 229 426 239 451 330 27 98 -18 234
-92 283 -53 35 -152 49 -253 35 -76 -10 -120 -29 -660 -280 -318 -149 -583
-275 -589 -281 -17 -17 36 -88 72 -96 66 -14 270 55 572 194 149 68 196 86
203 77 7 -10 33 -2 114 36 158 74 220 97 285 108 61 9 97 1 97 -22 0 -20 -74
-78 -172 -134 -162 -91 -335 -211 -413 -285 -83 -79 -120 -147 -110 -203 l7
-33 -104 -60 c-56 -33 -170 -98 -253 -143 -85 -47 -185 -113 -230 -150 -44
-37 -228 -188 -410 -337 -410 -337 -416 -342 -390 -342 31 -1 115 49 222 132
180 139 232 177 260 189 16 7 36 18 46 27 9 8 20 11 24 8 3 -4 7 -42 8 -85 0
-42 4 -89 9 -103 7 -25 -2 -34 -138 -148 -260 -217 -316 -245 -489 -245 -53 0
-97 -3 -97 -8 0 -14 82 -68 103 -68 11 0 34 -5 52 -11 46 -17 130 4 242 60 62
32 103 46 119 43 22 -4 24 -9 24 -55 0 -103 -83 -323 -242 -642 -113 -227
-113 -227 -113 -300 l0 -73 -47 19 c-27 11 -69 28 -95 38 -27 11 -176 76 -332
145 -156 70 -286 124 -289 121 -8 -8 28 -43 72 -69 23 -13 124 -61 224 -105
290 -129 293 -131 419 -256 118 -118 174 -160 283 -215 36 -18 67 -36 70 -40
3 -5 83 -44 178 -88 266 -123 422 -222 548 -347 86 -85 126 -143 170 -245 l34
-78 0 -264 c0 -231 -19 -590 -46 -863 -9 -93 -35 -177 -55 -182 -10 -3 -20
-11 -23 -19 -4 -12 -62 -14 -339 -14 -184 0 -357 -4 -385 -10 -30 -5 -79 -27
-117 -51 -38 -24 -72 -39 -81 -35 -14 5 -718 476 -1774 1185 -206 139 -451
303 -543 364 l-168 111 58 51 c31 27 334 295 673 595 338 300 635 562 660 583
25 21 44 41 43 44 -1 3 -36 21 -77 39 l-75 32 -158 -107 c-87 -59 -378 -255
-648 -436 -269 -180 -584 -392 -700 -470 -115 -78 -383 -258 -595 -400 -485
-326 -931 -625 -1337 -899 -689 -463 -1024 -685 -1044 -691 -14 -5 -35 5 -73
34 -36 28 -69 44 -106 51 -29 5 -190 10 -359 10 -253 1 -309 3 -325 15 -11 8
-32 15 -47 15 -27 0 -31 5 -58 87 -28 83 -61 587 -61 934 0 320 2 336 56 421
15 23 43 66 61 95 65 101 246 249 427 349 37 20 139 69 228 110 89 40 164 77
167 82 3 5 28 19 54 30 90 40 191 116 299 224 122 122 122 122 453 268 211 93
305 145 305 167 0 6 6 13 12 16 7 2 11 7 8 10 -3 3 -122 -47 -265 -110 -310
-136 -523 -228 -550 -237 -19 -5 -20 -2 -16 51 4 78 -7 112 -114 323 -142 283
-222 492 -232 608 -6 66 -1 72 35 46 13 -9 38 -17 55 -19 18 -1 63 -15 102
-29 96 -37 184 -45 233 -20 38 20 44 25 77 63 l20 23 -60 -6 c-33 -4 -91 -2
-130 4 -117 18 -184 57 -365 209 -151 126 -165 140 -162 167 2 16 4 61 6 101
1 40 4 75 7 78 14 14 123 -55 343 -217 104 -77 175 -117 206 -118 18 0 32 -13
-251 221 -644 532 -634 523 -798 615 -86 48 -197 111 -248 140 l-92 54 2 48
c1 29 -6 62 -18 87 -42 88 -228 233 -490 380 -140 79 -195 120 -195 145 0 25
42 33 105 21 67 -13 106 -28 264 -101 88 -41 137 -58 143 -52 11 11 71 -13
283 -111 140 -65 350 -141 430 -156 68 -13 106 2 130 49 26 50 106 6 -690 377
-390 182 -492 225 -545 233 -78 11 -142 11 -193 -1z m983 -1161 c0 -5 5 -6 10
-3 6 3 10 1 10 -5 0 -6 5 -8 10 -5 6 3 10 1 10 -5 0 -6 5 -8 10 -5 6 3 10 1
10 -5 0 -6 5 -8 10 -5 6 3 10 2 10 -4 0 -6 14 -17 30 -26 32 -17 39 -32 15
-32 -8 0 -15 4 -15 9 0 5 -4 6 -10 3 -5 -3 -10 -1 -10 5 0 6 -4 8 -10 5 -5 -3
-10 -1 -10 5 0 6 -4 8 -10 5 -5 -3 -10 -1 -10 5 0 6 -4 9 -9 5 -5 -3 -17 2
-25 11 -9 8 -16 13 -16 9 0 -8 -57 23 -65 35 -3 5 -4 14 0 19 7 12 65 -7 65
-21z m7623 -8 c-10 -10 -21 -16 -25 -13 -5 2 -8 -1 -8 -7 0 -6 -4 -8 -10 -5
-5 3 -10 1 -10 -5 0 -6 -4 -8 -10 -5 -5 3 -10 1 -10 -5 0 -6 -4 -8 -10 -5 -5
3 -10 2 -10 -3 0 -5 -21 -18 -47 -28 -27 -11 -51 -20 -55 -22 -5 -2 -8 1 -8 7
0 5 23 22 50 37 28 15 50 31 50 36 0 5 5 6 10 3 6 -3 10 -1 10 5 0 6 5 8 10 5
6 -3 10 -1 10 5 0 6 5 8 10 5 6 -3 10 -1 10 5 0 6 5 8 10 5 6 -3 10 -2 10 3 0
6 9 8 20 5 20 -5 20 -6 3 -23z m-3363 -2620 c0 -13 -35 -64 -76 -110 -57 -64
-106 -161 -107 -210 -2 -63 42 -144 117 -218 65 -64 132 -110 1153 -796 359
-241 660 -447 668 -459 13 -19 13 -23 0 -37 -14 -13 -253 -15 -2196 -18 -1499
-1 -2193 1 -2220 8 -49 14 -52 40 -6 73 52 39 2597 1746 2626 1762 32 17 41
18 41 5z M2897 5192 c-14 -16 -16 -79 -17 -592 -1 -316 -1 -583 0 -592 0 -12
78 -70 225 -168 124 -83 225 -147 225 -143 0 5 -9 22 -19 39 -22 36 -78 83
-178 149 -40 26 -73 53 -73 59 0 6 -14 20 -30 31 l-31 20 6 105 c3 58 9 272
13 475 5 204 9 371 10 373 1 1 9 2 17 2 8 0 15 7 15 15 0 8 2 15 5 15 16 0
186 -73 610 -260 841 -372 915 -402 1075 -435 96 -20 210 -21 246 -2 l28 15
-40 20 c-21 11 -444 198 -939 417 -495 218 -939 415 -986 436 -95 43 -137 48
-162 21z M7649 5200 c-8 -5 -447 -200 -976 -434 -528 -233 -982 -435 -1007
-448 l-46 -24 33 -32 c28 -27 42 -33 78 -34 111 -1 203 36 1267 506 282 125
526 229 542 233 23 4 30 2 30 -10 0 -10 6 -13 20 -10 19 5 20 -2 24 -303 2
-170 9 -340 15 -379 7 -38 14 -115 17 -170 5 -92 4 -102 -16 -127 -11 -15
-119 -93 -238 -174 -218 -147 -286 -201 -295 -234 -6 -22 647 411 663 439 6
13 10 215 10 595 0 563 0 576 -20 596 -21 21 -73 26 -101 10z M4983 5170 c-66
-40 -86 -103 -54 -174 16 -37 29 -51 63 -66 40 -18 67 -20 338 -20 271 0 298
2 338 20 77 35 103 138 51 204 -43 55 -52 56 -391 56 -293 0 -315 -1 -345 -20z
M5257 4486 c-66 -18 -126 -62 -158 -116 -51 -84 -52 -81 68 -130 60 -25 100
-46 90 -48 -9 -2 -34 5 -55 15 l-37 18 -105 -31 c-58 -17 -415 -133 -795 -257
-379 -124 -728 -237 -775 -251 -47 -15 -91 -29 -99 -31 -8 -3 49 -48 135 -107
l149 -101 40 15 c36 14 996 437 1445 637 96 43 231 102 300 131 69 30 128 56
133 60 4 3 -5 29 -19 58 -56 112 -194 173 -317 138z"/>
</g>
</svg>
