<?xml version="1.0" standalone="no"?>
<!DOCTYPE svg PUBLIC "-//W3C//DTD SVG 20010904//EN"
 "http://www.w3.org/TR/2001/REC-SVG-20010904/DTD/svg10.dtd">
<svg version="1.0" xmlns="http://www.w3.org/2000/svg"
 width="2048.000000pt" height="2048.000000pt" viewBox="0 0 2048.000000 2048.000000"
 preserveAspectRatio="xMidYMid meet">
<metadata>
Created by potrace 1.13, written by Peter Selinger 2001-2015
</metadata>
<g transform="translate(0.000000,2048.000000) scale(0.192120,-0.192120)"
fill="#000000" stroke="none">
<path d="M5340 10319 c-349 -35 -754 -145 -1013 -276 -44 -22 -52 -23 -105
-13 -88 18 -364 24 -480 11 -236 -26 -442 -85 -648 -186 -147 -72 -302 -172
-414 -267 -43 -36 -122 -89 -185 -122 -230 -121 -412 -255 -614 -451 -249
-243 -387 -422 -529 -690 -665 -1257 -1049 -2384 -1019 -2985 34 -676 563
-2301 1495 -4597 l167 -413 3335 0 3335 0 74 183 c928 2285 1429 3758 1566
4607 50 310 17 638 -112 1100 -159 572 -490 1359 -886 2105 -133 251 -241 398
-456 619 -161 165 -293 276 -457 385 -258 172 -450 252 -769 321 -129 28 -124
25 -240 110 -394 286 -877 476 -1385 545 -139 19 -528 27 -660 14z m336 -303
c7 -19 -10 -50 -57 -100 -21 -23 -54 -70 -73 -105 -33 -58 -36 -69 -36 -147 0
-79 17 -140 52 -189 87 -121 154 -177 257 -217 38 -15 192 -53 343 -83 477
-98 838 -194 962 -257 125 -63 269 -195 417 -380 98 -123 125 -182 291 -628
231 -623 422 -1263 535 -1792 l37 -173 3 -485 c3 -322 0 -507 -7 -550 -21
-126 -100 -427 -161 -615 -128 -395 -410 -1053 -501 -1167 -55 -70 -35 -68
-651 -68 -500 0 -646 6 -666 26 -14 13 24 41 134 101 516 280 914 697 1170
1227 115 236 183 435 237 691 l23 110 0 900 c0 786 -2 903 -15 919 -132 161
-155 171 -436 196 -443 40 -673 77 -1009 162 -293 74 -540 162 -792 283 -346
167 -605 347 -849 590 -141 140 -211 229 -364 459 -153 229 -244 319 -303 300
-36 -11 -107 -86 -142 -148 -19 -35 -51 -123 -74 -206 -66 -236 -81 -279 -134
-400 -57 -130 -157 -285 -248 -383 -135 -148 -337 -265 -584 -338 -77 -23
-157 -50 -178 -61 -33 -16 -139 -115 -187 -174 -14 -17 -15 -13 -18 47 -2 54
4 86 34 175 102 308 265 738 322 850 37 72 124 183 241 306 108 114 190 179
282 223 150 72 466 157 944 255 138 28 275 57 304 66 147 42 261 135 326 267
63 128 57 226 -25 358 -35 57 -47 103 -31 113 11 7 245 43 321 49 25 2 103 4
173 5 102 2 129 -1 133 -12z m-813 -189 c174 -86 164 -267 -19 -337 -33 -12
-177 -47 -322 -76 -797 -163 -1057 -247 -1238 -402 -89 -77 -258 -265 -377
-420 -69 -90 -84 -118 -141 -264 -367 -940 -645 -1881 -730 -2468 -42 -288
-46 -605 -11 -830 88 -570 325 -1249 685 -1965 l115 -230 838 -3 837 -2 -2
211 -3 212 -116 47 c-545 221 -1017 657 -1282 1187 -119 237 -196 479 -243
763 -16 93 -18 212 -21 1076 l-4 971 63 7 c91 9 273 59 382 104 336 141 588
390 756 747 103 219 180 530 180 727 0 32 4 58 8 58 5 0 16 -25 26 -56 9 -30
41 -103 71 -162 202 -402 585 -798 1045 -1077 601 -366 1443 -597 2305 -633
l160 -7 0 -815 c0 -888 0 -894 -61 -1150 -184 -783 -745 -1441 -1483 -1740
l-116 -47 -3 -212 -2 -211 837 2 838 3 115 230 c367 732 592 1381 687 1975 25
159 25 561 -1 740 -91 647 -346 1526 -727 2508 -74 191 -84 210 -156 304 -119
155 -288 343 -377 420 -180 154 -447 241 -1216 398 -321 65 -385 85 -441 141
-44 44 -56 87 -40 147 26 95 118 152 259 159 176 10 1068 -84 1324 -138 44
-10 47 -13 68 -64 43 -105 116 -166 245 -204 39 -11 120 -34 180 -51 121 -35
249 -85 274 -107 9 -8 69 -45 134 -81 65 -37 159 -96 209 -132 155 -110 381
-320 416 -387 16 -29 15 -70 0 -80 -7 -4 -168 -11 -358 -14 -242 -4 -355 -10
-380 -19 -32 -11 -89 -64 -90 -82 0 -4 251 -9 558 -10 l557 -3 7 -73 c6 -70
16 -93 191 -450 102 -207 215 -444 252 -527 277 -621 461 -1140 548 -1549 l32
-151 0 -320 0 -320 -33 -155 c-116 -539 -342 -1270 -687 -2220 -220 -606 -321
-866 -413 -1060 -27 -58 -109 -253 -182 -435 -227 -566 -230 -573 -280 -620
l-31 -30 -3132 -3 c-2252 -2 -3143 0 -3170 8 -65 19 -97 83 -346 708 -505
1263 -939 2507 -1131 3241 -39 147 -84 335 -100 418 -29 150 -30 158 -30 467
0 276 3 328 21 423 36 192 88 383 168 623 166 494 338 894 690 1600 117 236
122 248 133 338 l11 92 554 0 554 0 -7 23 c-9 31 -22 46 -58 65 -27 15 -78 18
-376 22 -190 3 -352 9 -362 13 -27 14 -28 45 -2 82 13 20 24 40 24 45 0 12
172 181 250 245 102 83 211 158 342 236 120 71 199 134 241 193 12 17 33 64
48 105 l26 75 64 18 c295 85 823 168 1384 217 127 12 246 23 265 25 19 2 87 3
151 2 104 -2 121 -5 172 -29z m-2236 -2649 c4 -7 11 -422 14 -923 6 -965 5
-947 55 -1195 25 -120 81 -306 131 -430 150 -378 370 -710 654 -985 211 -204
369 -320 651 -475 53 -29 99 -59 102 -66 14 -36 -24 -39 -633 -42 -437 -2
-602 0 -623 9 -45 18 -81 67 -151 205 -237 467 -459 1078 -565 1554 -25 112
-26 127 -29 552 -4 433 -4 438 22 582 67 377 204 906 288 1106 47 113 65 136
84 108z M4150 6711 c-86 -28 -141 -74 -181 -151 -23 -43 -24 -54 -24 -255 0
-237 7 -267 79 -337 53 -52 101 -72 182 -76 89 -5 156 21 213 83 72 78 76 94
76 325 0 204 0 205 -28 262 -46 93 -128 148 -232 154 -33 2 -71 0 -85 -5z m98
-413 l-3 -153 -30 0 -30 0 -3 153 -3 152 36 0 36 0 -3 -152z M6357 6706 c-101
-37 -167 -112 -188 -213 -17 -83 -8 -387 13 -435 25 -57 93 -123 150 -148 62
-27 171 -25 230 4 52 25 107 82 132 135 19 42 21 63 21 256 0 208 0 210 -27
260 -31 60 -67 95 -128 125 -56 28 -151 36 -203 16z m113 -412 l0 -155 -32 3
-33 3 -3 153 -3 152 36 0 35 0 0 -156z M4983 5170 c-66 -40 -86 -103 -54 -174
16 -37 29 -51 63 -66 40 -18 67 -20 338 -20 271 0 298 2 338 20 34 15 47 29
63 65 31 70 11 136 -54 175 -30 19 -52 20 -347 20 -295 0 -317 -1 -347 -20z
M4220 4494 c0 -19 98 -139 167 -205 243 -232 547 -343 943 -343 124 0 204 6
275 18 283 51 520 170 690 347 72 75 145 167 145 183 0 3 -499 6 -1110 6 -610
0 -1110 -3 -1110 -6z m1739 -188 l25 -14 -30 -27 c-60 -56 -232 -122 -384
-146 -106 -17 -391 -18 -485 -1 -136 24 -325 92 -363 129 -7 7 -18 13 -23 13
-5 0 -9 7 -9 15 0 8 -6 15 -12 15 -7 1 -2 7 12 15 36 21 1232 21 1269 1z
M4500 2603 c0 -247 47 -396 175 -563 186 -242 516 -365 813 -304 309 64 540
272 638 574 24 76 28 104 32 263 4 169 3 177 -15 177 -10 0 -24 -5 -31 -12 -7
-7 -12 -9 -12 -4 0 4 -7 1 -15 -8 -8 -8 -15 -19 -15 -25 0 -6 -7 -8 -15 -5
-13 5 -15 -10 -15 -102 0 -116 -17 -197 -68 -323 -73 -182 -272 -345 -473
-387 -198 -41 -431 -2 -576 97 -102 70 -220 208 -254 296 -36 95 -59 220 -59
320 0 93 -2 104 -15 93 -13 -10 -15 -9 -15 10 0 13 -3 20 -7 17 -3 -4 -12 2
-20 13 -8 11 -23 20 -34 20 -18 0 -19 -8 -19 -147z"/>
</g>
</svg>
