<?xml version="1.0" standalone="no"?>
<!DOCTYPE svg PUBLIC "-//W3C//DTD SVG 20010904//EN"
 "http://www.w3.org/TR/2001/REC-SVG-20010904/DTD/svg10.dtd">
<svg version="1.0" xmlns="http://www.w3.org/2000/svg"
 width="2048.000000pt" height="2048.000000pt" viewBox="0 0 2048.000000 2048.000000"
 preserveAspectRatio="xMidYMid meet">
<metadata>
Created by potrace 1.13, written by Peter Selinger 2001-2015
</metadata>
<g transform="translate(0.000000,2048.000000) scale(0.192120,-0.192120)"
fill="#000000" stroke="none">
<path d="M5234 10314 c-58 -21 -120 -77 -152 -138 l-27 -51 0 -625 c0 -616 0
-626 21 -671 82 -177 313 -220 449 -84 21 21 47 59 59 84 21 45 21 55 21 671
l0 625 -27 51 c-66 125 -213 184 -344 138z m116 -825 l0 -560 -22 3 -23 3 -3
558 -2 557 25 0 25 0 0 -561z M2887 10146 c-65 -24 -120 -73 -155 -141 -21
-40 -26 -64 -25 -120 0 -41 7 -85 16 -106 25 -57 880 -1157 923 -1188 53 -38
96 -51 168 -51 150 0 269 122 269 275 0 39 -7 76 -20 105 -19 42 -816 1083
-886 1159 -68 72 -193 101 -290 67z m148 -275 c22 -10 56 -36 76 -57 32 -35
660 -843 702 -904 18 -26 22 -76 8 -98 -16 -26 -79 -3 -131 47 -46 43 -620
780 -702 901 -50 73 -51 126 -3 129 6 0 28 -8 50 -18z M7585 10136 c-27 -13
-60 -33 -71 -43 -33 -27 -876 -1123 -897 -1164 -46 -93 -27 -217 46 -296 112
-122 298 -125 408 -7 66 71 854 1098 876 1143 18 34 23 61 23 115 -1 109 -46
189 -137 243 -68 39 -179 44 -248 9z m129 -293 c-1 -18 -13 -52 -27 -75 -28
-47 -608 -799 -684 -887 -45 -52 -92 -81 -131 -81 -26 0 -44 43 -32 76 9 24
595 790 699 913 57 68 96 92 141 89 33 -3 35 -5 34 -35z M2393 8390 c-113 -24
-197 -103 -233 -219 -18 -55 -19 -134 -26 -1281 -5 -869 -10 -1223 -18 -1225
-6 -2 -44 -5 -84 -7 l-73 -4 1 1066 c1 999 0 1068 -17 1117 -54 156 -181 234
-357 220 -126 -11 -211 -70 -265 -187 -25 -54 -26 -60 -32 -350 -4 -162 -7
-679 -8 -1147 -1 -675 -4 -853 -13 -853 -7 0 -44 -13 -83 -29 l-70 -28 -5 836
-5 836 -26 56 c-58 124 -142 179 -286 187 -118 6 -181 -15 -254 -88 -38 -38
-63 -74 -80 -115 l-24 -60 0 -1520 c0 -1226 3 -1534 13 -1595 81 -453 273
-824 589 -1137 l123 -122 0 -1205 0 -1206 1115 0 1115 0 0 1082 c-1 958 1
1084 14 1093 9 5 50 29 93 53 121 66 287 194 409 316 308 308 504 694 574
1127 69 427 118 630 336 1384 164 565 168 582 168 675 1 84 -2 101 -26 146
-72 137 -262 214 -415 169 -56 -17 -138 -83 -174 -141 -11 -19 -137 -305 -279
-635 -142 -330 -260 -602 -262 -603 -1 -2 -41 -6 -87 -9 l-83 -5 3 1486 2
1487 -21 54 c-41 105 -98 163 -191 196 -56 19 -182 19 -248 0 -71 -21 -142
-87 -179 -167 l-29 -63 -6 -555 c-4 -305 -7 -829 -8 -1164 l-1 -609 -46 7
c-26 3 -65 6 -87 6 l-40 0 5 1203 c4 754 2 1222 -4 1256 -21 119 -100 223
-193 254 -61 21 -166 29 -222 17z m146 -226 c13 -9 36 -37 52 -62 l29 -46 0
-1158 c0 -756 3 -1158 10 -1158 5 0 13 -19 16 -42 6 -34 19 -54 70 -104 99
-99 168 -124 250 -89 40 16 154 121 154 142 0 7 5 13 10 13 6 0 10 16 10 35 0
19 4 35 9 35 5 0 11 439 13 1068 l3 1067 28 52 c31 60 60 83 115 90 53 7 93
-16 131 -75 l31 -49 0 -1236 c0 -818 3 -1237 10 -1237 6 0 10 -18 10 -40 0
-22 5 -40 10 -40 6 0 10 -8 10 -17 0 -27 79 -137 103 -145 13 -3 -6 -6 -43 -7
-88 -1 -285 -34 -394 -66 -685 -199 -1167 -810 -1222 -1550 -10 -147 21 -210
119 -240 l45 -14 7 97 c11 170 26 274 60 407 117 459 394 809 803 1014 158 79
408 151 582 167 l75 6 13 -47 c7 -27 26 -60 43 -77 27 -28 34 -30 84 -26 44 4
64 12 110 47 31 23 77 70 102 104 41 55 60 92 133 252 10 22 83 191 163 376
199 461 209 479 279 515 36 18 129 15 168 -6 21 -11 22 -15 18 -138 -4 -124
-6 -133 -91 -422 -101 -348 -142 -498 -151 -560 -4 -25 -32 -148 -62 -273 -51
-211 -77 -339 -149 -727 -47 -251 -152 -522 -263 -673 -130 -178 -305 -355
-487 -492 -82 -62 -164 -130 -181 -151 -59 -75 -87 -133 -88 -185 l-1 -48 -65
-30 c-151 -69 -371 -121 -595 -142 -412 -37 -892 80 -1237 303 -97 63 -116 81
-107 103 14 37 9 110 -12 155 -26 57 -72 118 -193 255 -171 193 -290 396 -366
624 -75 223 -70 90 -70 1809 0 1686 -4 1581 55 1596 14 4 25 13 25 21 0 21 46
29 88 16 25 -8 48 -26 72 -59 l35 -47 3 -740 c1 -466 6 -743 12 -749 6 -6 10
-24 10 -41 0 -53 130 -182 203 -200 14 -4 50 0 81 9 44 13 69 30 125 85 39 37
71 76 71 85 0 9 5 16 10 16 6 0 10 15 10 34 0 19 4 37 8 40 5 3 11 478 14
1055 l6 1049 23 47 c35 70 70 95 133 95 56 0 74 -12 124 -87 l22 -31 0 -991
c0 -872 2 -992 15 -997 9 -4 15 -19 15 -41 0 -65 162 -202 240 -203 14 0 48
11 75 24 54 26 155 118 155 141 0 8 5 15 10 15 6 0 10 16 10 35 0 19 4 35 9
35 5 0 10 487 13 1148 l3 1147 30 54 c17 30 43 63 60 73 37 22 103 23 134 2z
m-1029 -5764 c41 -21 118 -54 170 -75 52 -21 100 -40 105 -44 6 -3 12 -6 15
-6 3 -1 22 -9 42 -17 21 -9 51 -19 68 -22 17 -2 37 -9 44 -15 7 -6 16 -8 19
-4 4 3 13 0 22 -7 8 -7 22 -10 30 -6 8 3 15 1 15 -4 0 -6 9 -10 20 -10 11 0
20 -4 20 -10 0 -5 -15 -7 -32 -4 -18 2 -51 6 -73 9 -22 2 -53 6 -70 9 -66 13
-101 19 -120 21 -11 2 -45 10 -76 19 -31 9 -65 18 -75 20 -42 8 -151 49 -184
68 -49 29 -60 46 -60 91 0 46 3 45 120 -13z m-77 -179 c518 -207 1071 -267
1711 -186 65 9 120 14 122 13 5 -6 -57 -153 -67 -156 -5 -2 -9 -252 -9 -633 0
-622 0 -629 -20 -629 -17 0 -20 -7 -20 -45 l0 -45 -885 0 -885 0 0 45 c0 38
-3 45 -20 45 -20 0 -20 7 -20 728 l-1 727 -29 90 c-34 101 -35 109 -17 102 6
-3 69 -28 140 -56z m1707 -16 l0 -64 -32 -5 c-93 -14 -142 -17 -306 -17 -200
-1 -295 7 -289 25 2 6 39 16 83 22 150 21 329 54 414 78 133 37 130 38 130
-39z m-1020 -31 c0 -2 -7 -4 -15 -4 -8 0 -15 4 -15 10 0 5 7 7 15 4 8 -4 15
-8 15 -10z m290 -24 c0 -5 -7 -10 -15 -10 -8 0 -15 5 -15 10 0 6 7 10 15 10 8
0 15 -4 15 -10z M8104 8390 c-133 -27 -220 -115 -254 -259 -10 -44 -11 -297
-5 -1263 l7 -1208 -45 0 c-24 0 -64 -3 -88 -6 l-44 -6 -4 1138 c-3 1192 -3
1192 -46 1274 -26 51 -76 100 -129 128 -47 25 -61 27 -166 27 -109 0 -118 -2
-169 -30 -66 -36 -114 -91 -143 -164 l-23 -56 3 -1492 4 -1491 -84 5 c-45 3
-86 8 -90 12 -3 3 -122 276 -263 606 -142 330 -271 619 -286 641 -34 49 -76
87 -133 117 -60 32 -178 31 -264 -2 -87 -33 -164 -104 -191 -177 -43 -114 -39
-137 140 -759 226 -789 279 -1003 334 -1356 44 -281 102 -467 212 -682 174
-342 446 -630 783 -830 52 -31 98 -58 103 -60 4 -1 8 -489 7 -1085 l0 -1082
1115 0 1115 0 0 1210 0 1209 53 48 c348 317 567 716 654 1193 15 85 17 204 20
1145 2 578 0 1264 -5 1525 l-7 475 -27 56 c-57 124 -141 179 -285 187 -117 6
-181 -15 -254 -88 -40 -39 -63 -72 -80 -115 l-23 -60 3 -827 c2 -456 0 -828
-3 -828 -4 0 -23 8 -44 19 -20 10 -55 24 -78 31 l-41 12 -6 601 c-4 330 -7
835 -7 1122 0 574 -1 581 -62 678 -60 93 -174 144 -304 134 -137 -10 -236 -81
-285 -203 l-24 -59 3 -1070 4 -1071 -74 4 c-40 2 -79 4 -86 5 -12 2 -15 207
-19 1212 -3 811 -8 1226 -15 1260 -15 72 -50 136 -97 178 -52 47 -84 63 -156
76 -66 12 -92 12 -151 1z m150 -240 c19 -17 43 -50 54 -73 19 -41 20 -77 26
-1187 4 -713 10 -1146 16 -1148 6 -2 10 -19 10 -38 0 -19 5 -34 10 -34 6 0 10
-5 10 -11 0 -17 49 -67 113 -115 101 -76 179 -68 274 28 70 70 83 89 83 123 0
20 6 35 15 39 13 5 15 125 15 996 0 966 0 992 20 1029 30 60 63 81 127 81 49
0 58 -4 86 -32 69 -74 64 0 72 -1165 4 -587 11 -1053 16 -1053 5 0 9 -15 9
-32 0 -54 107 -170 197 -214 76 -38 120 -29 198 37 69 59 94 94 108 152 7 26
13 322 16 783 l6 740 28 43 c33 50 85 76 135 67 41 -6 75 -35 107 -91 l24 -40
3 -1525 3 -1525 -27 -105 c-84 -321 -181 -499 -428 -780 -191 -216 -230 -287
-210 -377 6 -25 9 -52 6 -59 -14 -36 -247 -171 -412 -238 -297 -121 -660 -176
-964 -145 -200 21 -453 85 -572 145 -46 23 -48 26 -48 67 0 94 -74 193 -221
298 -234 166 -389 317 -514 503 -162 241 -247 476 -310 851 -58 353 -107 550
-302 1225 -142 490 -146 508 -151 618 l-4 112 43 20 c56 25 125 26 165 1 65
-40 76 -62 294 -566 195 -452 212 -489 255 -545 52 -67 131 -142 173 -164 17
-9 52 -16 77 -16 59 0 99 36 116 105 l12 47 71 -6 c109 -11 260 -44 375 -82
474 -158 822 -507 980 -983 47 -140 82 -328 89 -481 l7 -135 25 3 c38 5 92 35
113 65 28 36 33 82 25 211 -34 577 -399 1134 -917 1400 -194 99 -370 152 -588
177 -142 16 -138 13 -92 83 21 33 39 68 39 78 0 10 5 18 10 18 6 0 10 18 10
40 0 22 5 40 10 40 7 0 10 420 10 1239 l0 1239 33 48 c39 60 69 76 125 71 49
-5 82 -31 117 -92 l23 -40 6 -1070 c4 -699 9 -1071 16 -1073 6 -2 10 -19 10
-38 0 -19 5 -34 10 -34 6 0 10 -6 10 -13 0 -20 109 -118 154 -138 55 -25 104
-24 154 4 86 47 172 144 172 194 0 18 5 33 10 33 7 0 10 394 10 1163 l1 1162
23 39 c51 82 136 101 200 46z m1006 -5743 c0 -37 -11 -55 -55 -84 -26 -18
-133 -59 -175 -68 -8 -2 -15 -4 -15 -5 0 -1 -11 -3 -25 -6 -14 -2 -45 -10 -70
-18 -55 -17 -158 -36 -225 -41 -27 -3 -65 -7 -82 -9 -18 -3 -33 -1 -33 3 0 8
29 21 55 25 6 0 20 7 33 14 16 10 22 10 22 1 0 -8 6 -7 18 3 9 8 39 20 65 27
27 6 68 20 90 30 23 10 69 29 102 41 33 13 105 45 160 72 122 58 135 59 135
15z m116 -144 c-3 -10 -8 -31 -12 -48 -4 -16 -11 -36 -17 -43 -5 -6 -12 -53
-15 -103 -3 -63 -9 -92 -18 -96 -12 -4 -14 -120 -14 -674 0 -662 0 -669 -20
-669 -17 0 -20 -7 -20 -45 l0 -45 -885 0 -885 0 0 45 c0 33 -4 45 -15 45 -13
0 -15 77 -15 630 0 373 -4 637 -9 648 -25 45 -62 134 -58 138 3 3 58 -2 123
-10 654 -84 1227 -18 1754 202 111 47 113 47 106 25z m-1714 -23 c110 -26 374
-74 452 -82 52 -5 40 -25 -19 -33 -68 -8 -396 -9 -445 -1 -19 3 -57 8 -84 11
-27 3 -53 8 -58 11 -4 3 -8 32 -8 65 0 71 -8 70 162 29z m908 -60 c0 -5 -7
-10 -15 -10 -8 0 -15 5 -15 10 0 6 7 10 15 10 8 0 15 -4 15 -10z m-70 -10 c0
-5 -4 -10 -10 -10 -5 0 -10 5 -10 10 0 6 5 10 10 10 6 0 10 -4 10 -10z m-230
-20 c0 -5 -7 -10 -15 -10 -8 0 -15 5 -15 10 0 6 7 10 15 10 8 0 15 -4 15 -10z"/>
</g>
</svg>
