<?xml version="1.0" standalone="no"?>
<!DOCTYPE svg PUBLIC "-//W3C//DTD SVG 20010904//EN"
 "http://www.w3.org/TR/2001/REC-SVG-20010904/DTD/svg10.dtd">
<svg version="1.0" xmlns="http://www.w3.org/2000/svg"
 width="2048.000000pt" height="2048.000000pt" viewBox="0 0 2048.000000 2048.000000"
 preserveAspectRatio="xMidYMid meet">
<metadata>
Created by potrace 1.13, written by Peter Selinger 2001-2015
</metadata>
<g transform="translate(0.000000,2048.000000) scale(0.192120,-0.192120)"
fill="#000000" stroke="none">
<path d="M5010 10089 c-436 -37 -795 -133 -1145 -304 -765 -374 -1256 -1067
-1336 -1885 -14 -147 -7 -447 15 -623 l15 -118 -33 -47 c-62 -86 -101 -176
-137 -312 -30 -109 -37 -363 -15 -485 58 -311 217 -538 407 -577 l59 -12 0
-146 c0 -80 7 -194 15 -255 8 -60 15 -112 15 -115 0 -14 86 83 111 125 29 49
29 52 29 211 0 125 -3 168 -15 192 -18 35 -79 98 -221 228 -114 105 -159 178
-194 319 -42 166 -51 527 -17 680 l13 60 38 -120 c68 -219 155 -362 230 -381
60 -15 91 30 126 190 61 270 181 569 315 785 120 194 310 401 465 507 l69 47
78 -65 c197 -163 420 -317 568 -393 217 -110 349 -118 417 -23 21 30 23 44 23
146 0 61 3 112 7 112 3 0 25 -21 48 -47 51 -58 235 -230 345 -323 171 -145
319 -225 370 -202 68 31 40 208 -72 455 -55 120 -70 103 -75 -85 -1 -75 -6
-139 -10 -143 -18 -19 -108 46 -321 231 -124 109 -184 146 -235 147 -50 1 -86
-24 -134 -97 -58 -86 -82 -106 -133 -106 -108 0 -325 121 -620 344 -187 142
-256 162 -370 108 -192 -91 -433 -372 -613 -712 -64 -120 -141 -313 -187 -465
-29 -94 -57 -145 -80 -145 -8 0 -25 15 -39 33 l-26 34 0 611 c0 581 1 616 20
699 115 490 422 923 865 1218 341 228 722 363 1215 432 99 14 194 18 460 17
375 0 482 -11 755 -78 854 -211 1541 -802 1775 -1527 57 -175 58 -194 64 -869
6 -622 6 -626 -14 -648 -24 -26 -25 -26 -53 -11 -39 22 -62 58 -227 358 -101
184 -199 344 -231 377 -71 73 -151 97 -359 109 -461 25 -834 100 -1170 235
-81 33 -167 62 -191 64 -42 4 -89 -9 -89 -25 0 -14 117 -98 192 -138 206 -110
561 -201 958 -245 164 -19 401 -36 492 -36 l67 0 94 -157 c110 -183 215 -373
311 -559 81 -157 130 -214 186 -214 49 0 79 25 117 97 37 69 66 163 97 315
l22 113 13 -65 c19 -96 25 -332 12 -447 -34 -287 -112 -446 -276 -556 -72 -48
-164 -140 -190 -187 -15 -29 -20 -63 -23 -185 -4 -145 -3 -152 21 -193 13 -24
46 -68 72 -99 42 -48 49 -53 56 -37 15 43 31 217 33 356 l1 146 40 6 c187 29
354 247 417 546 28 132 28 348 0 480 -25 120 -71 240 -123 320 l-40 63 12 188
c16 257 7 581 -20 713 -108 525 -405 1006 -851 1380 -420 352 -927 570 -1510
651 -137 19 -594 28 -750 14z M4132 6701 c-66 -23 -126 -79 -158 -146 -23 -47
-24 -61 -24 -246 0 -221 8 -259 66 -327 123 -144 354 -120 452 47 27 46 27 48
30 258 3 199 2 214 -18 262 -30 69 -103 135 -171 155 -68 21 -111 20 -177 -3z
M6356 6704 c-67 -21 -147 -102 -170 -172 -15 -44 -17 -83 -14 -249 l3 -198 30
-54 c50 -91 137 -142 241 -142 113 0 209 62 256 165 22 48 23 63 23 251 0 183
-2 204 -21 246 -61 131 -211 197 -348 153z M547 6229 c-21 -5 -50 -15 -65 -23
-124 -65 -155 -284 -55 -388 14 -15 203 -125 419 -245 l392 -218 -19 -31 c-31
-50 -52 -151 -45 -212 9 -74 49 -155 99 -198 24 -20 187 -109 372 -203 l330
-166 230 -190 c276 -227 307 -249 397 -276 60 -18 87 -21 174 -16 l103 5 3
-42 3 -41 251 -170 c438 -296 543 -370 536 -376 -4 -3 -25 -13 -48 -22 -121
-47 -1605 -707 -1693 -753 -242 -128 -471 -320 -579 -486 -86 -132 -142 -301
-142 -424 0 -41 79 -1156 95 -1329 4 -45 10 -64 26 -77 20 -17 225 -18 3993
-18 l3973 0 20 22 c19 21 24 70 68 668 27 355 48 683 47 730 -3 231 -131 476
-345 661 -211 182 -309 234 -1177 617 -410 181 -765 338 -790 350 -25 11 -72
32 -105 47 -54 24 -58 27 -40 37 67 37 745 495 768 519 16 18 27 41 27 57 l0
28 108 -4 c91 -3 117 -1 172 18 88 29 110 44 385 270 l241 198 332 166 c357
179 388 200 433 292 20 41 24 64 24 144 0 83 -4 102 -28 150 -20 42 -24 57
-15 63 7 4 186 103 397 220 414 228 427 238 452 331 27 98 -18 234 -92 283
-53 35 -152 49 -253 35 -76 -10 -125 -31 -806 -348 -454 -212 -775 -367 -860
-417 -74 -44 -207 -123 -294 -175 l-160 -95 35 -29 c38 -32 88 -49 126 -42 41
8 120 44 378 172 132 66 323 158 425 205 102 47 243 112 314 146 131 62 152
69 158 51 2 -5 100 36 218 91 292 137 388 177 449 189 61 11 83 5 79 -24 -4
-28 -96 -90 -308 -206 -193 -106 -301 -194 -346 -282 -24 -48 -31 -111 -15
-138 13 -19 -4 -30 -273 -180 l-219 -121 -416 -341 c-530 -435 -543 -446 -564
-488 -10 -19 -31 -51 -47 -70 l-30 -34 0 533 c0 356 -4 539 -11 552 -29 55 17
73 -1192 -461 l-1131 -500 -113 0 -114 0 -307 136 c-169 75 -577 255 -907 401
-330 146 -701 310 -824 365 -204 91 -226 99 -251 88 -16 -7 -31 -19 -35 -28
-3 -9 -6 -237 -6 -507 0 -269 -3 -508 -7 -529 l-7 -40 -31 40 c-17 21 -38 53
-47 70 -9 18 -115 112 -254 226 -743 610 -708 583 -873 675 -85 47 -196 110
-247 139 l-92 54 6 49 c7 63 -13 116 -69 183 -57 66 -111 104 -330 228 -223
125 -278 163 -278 189 0 24 15 29 63 24 61 -6 116 -28 401 -159 148 -68 272
-124 276 -124 5 0 10 4 12 9 2 6 104 -37 228 -95 124 -58 257 -119 295 -136
39 -17 211 -100 383 -184 315 -155 362 -174 421 -168 33 4 106 37 116 53 7 12
1 16 -330 212 -239 141 -320 181 -985 492 -552 257 -739 340 -785 347 -71 12
-146 11 -198 -1z m7003 -1293 c0 -9 8 -12 25 -8 l25 4 0 -372 0 -371 -25 -43
c-29 -50 -61 -77 -210 -176 -297 -198 -393 -276 -441 -358 -34 -58 -38 -120
-9 -152 l20 -22 -30 -24 c-17 -13 -912 -617 -1990 -1341 -2316 -1557 -2347
-1577 -2402 -1610 l-43 -25 -57 43 c-87 65 -113 69 -466 69 -261 0 -311 2
-323 15 -9 8 -29 15 -45 15 -16 0 -29 1 -29 3 0 1 -9 26 -20 56 -25 68 -27 85
-50 391 -14 176 -20 350 -20 563 l0 308 31 62 c126 250 333 416 744 598 77 34
145 68 150 75 6 7 242 114 525 239 283 125 552 245 596 267 103 50 187 123
209 183 16 41 16 59 0 111 -6 18 3 25 67 53 348 156 1377 609 1436 632 l75 30
40 -28 c35 -24 49 -28 111 -27 140 1 114 -10 1406 560 366 161 673 293 683
294 9 0 17 -6 17 -14z m-3980 -184 c605 -266 929 -407 993 -431 79 -29 207
-56 357 -75 69 -9 138 -19 154 -22 l29 -6 -33 -14 c-76 -32 -1483 -490 -1535
-500 -31 -6 -35 -4 -41 22 -22 91 -76 154 -206 244 -43 30 -78 56 -78 60 0 3
-16 14 -35 24 -19 11 -35 24 -35 30 0 6 -16 25 -36 41 -23 20 -38 43 -44 70
-5 22 -10 196 -10 388 l0 347 26 0 c14 0 34 -5 45 -10 15 -8 19 -7 19 4 0 19
-34 33 430 -172z m3511 -1512 c34 -64 65 -93 144 -132 28 -14 273 -123 545
-243 272 -120 500 -224 506 -231 5 -7 87 -48 181 -92 266 -123 417 -219 549
-349 76 -74 115 -132 160 -229 l34 -75 0 -273 c0 -351 -35 -860 -67 -973 -26
-94 -14 -91 -424 -95 -393 -3 -382 -2 -481 -74 -46 -34 -51 -36 -75 -23 -15 8
-360 238 -767 511 -408 273 -958 642 -1223 820 l-483 323 57 50 c32 28 276
244 543 480 690 612 751 665 760 665 5 0 23 -27 41 -60z m-1351 -854 c0 -3 -6
-11 -12 -18 -7 -8 -21 -27 -30 -43 -9 -17 -33 -59 -53 -94 -52 -89 -55 -126
-17 -201 43 -83 84 -130 172 -198 41 -32 440 -303 885 -601 446 -299 820 -555
832 -569 38 -44 14 -55 -135 -63 -178 -10 -3938 -10 -4100 0 -143 9 -163 16
-143 53 12 24 2524 1718 2564 1730 29 8 37 9 37 4z M4995 5174 c-67 -34 -95
-129 -56 -191 42 -68 43 -68 372 -71 190 -2 312 1 337 8 59 15 102 68 102 126
0 56 -22 99 -63 124 -30 19 -52 20 -347 20 -261 0 -320 -3 -345 -16z"/>
</g>
</svg>
