<?xml version="1.0" standalone="no"?>
<!DOCTYPE svg PUBLIC "-//W3C//DTD SVG 20010904//EN"
 "http://www.w3.org/TR/2001/REC-SVG-20010904/DTD/svg10.dtd">
<svg version="1.0" xmlns="http://www.w3.org/2000/svg"
 width="2048.000000pt" height="2048.000000pt" viewBox="0 0 2048.000000 2048.000000"
 preserveAspectRatio="xMidYMid meet">
<metadata>
Created by potrace 1.13, written by Peter Selinger 2001-2015
</metadata>
<g transform="translate(0.000000,2048.000000) scale(0.192120,-0.192120)"
fill="#000000" stroke="none">
<path d="M5340 10319 c-348 -34 -754 -145 -1012 -275 -46 -24 -47 -24 -150 -9
-279 40 -633 0 -908 -102 -594 -220 -1052 -726 -1210 -1337 -61 -239 -61 -213
-58 -1639 l3 -1298 115 -51 c93 -42 606 -334 723 -412 l28 -19 -6 24 c-25 108
-28 208 -32 1127 l-4 972 33 0 c50 0 208 36 309 70 372 124 658 378 839 745
111 226 183 487 196 713 4 61 10 112 14 112 4 0 12 -19 19 -42 37 -125 158
-340 292 -518 370 -490 942 -874 1649 -1107 428 -141 998 -242 1460 -259 80
-3 155 -7 168 -10 l23 -5 -4 -822 c-4 -777 -7 -853 -33 -966 -5 -23 -4 -23 18
-9 125 82 616 360 715 406 l128 59 0 949 c0 1036 1 1017 -61 1303 -196 910
-805 1689 -1639 2096 -316 154 -607 242 -955 290 -139 19 -528 27 -660 14z
m463 -289 c591 -43 1118 -243 1577 -599 113 -88 303 -272 407 -396 276 -327
477 -747 563 -1179 19 -94 20 -142 20 -1086 l0 -988 -145 -81 c-80 -45 -150
-79 -155 -76 -6 3 -10 19 -10 36 0 19 -5 29 -15 29 -13 0 -15 77 -15 635 0
417 -3 635 -10 635 -5 0 -10 9 -10 20 0 11 -4 20 -8 20 -4 0 -13 15 -20 34
-16 44 -129 151 -187 177 -35 15 -105 26 -306 45 -301 28 -482 52 -694 95
-820 163 -1464 482 -1920 950 -139 143 -205 227 -341 435 -61 95 -123 175
-169 221 -104 104 -136 107 -230 21 -83 -76 -112 -136 -171 -358 -89 -337
-194 -545 -363 -723 -155 -162 -320 -257 -579 -331 -64 -19 -134 -41 -155 -50
-47 -21 -195 -161 -203 -193 -4 -12 -10 -23 -15 -23 -5 0 -9 -11 -9 -25 0 -14
-4 -25 -10 -25 -7 0 -10 -269 -10 -786 0 -781 0 -785 -20 -779 -17 6 -20 2
-20 -29 0 -20 -3 -36 -7 -36 -5 0 -48 23 -98 51 -49 28 -116 64 -148 80 l-57
29 0 1333 c0 1281 1 1335 19 1412 109 455 426 837 874 1055 288 139 542 188
913 175 236 -9 243 -7 459 76 428 164 843 230 1268 199z M4150 6711 c-86 -28
-141 -74 -181 -151 -23 -43 -24 -54 -24 -255 0 -237 7 -267 79 -337 53 -52
101 -72 182 -76 90 -5 156 21 215 85 71 77 74 91 74 323 0 204 0 205 -28 262
-46 93 -128 148 -232 154 -33 2 -71 0 -85 -5z M6357 6706 c-101 -37 -167 -112
-188 -213 -17 -83 -8 -387 13 -435 25 -57 93 -123 150 -148 62 -27 171 -25
230 4 52 25 107 82 132 135 19 42 21 63 21 256 0 208 0 210 -27 260 -31 60
-67 95 -128 125 -56 28 -151 36 -203 16z M547 6229 c-81 -19 -123 -55 -158
-133 -41 -93 -24 -213 38 -278 15 -16 203 -126 419 -245 l392 -218 -19 -31
c-31 -50 -52 -151 -45 -212 9 -72 48 -152 96 -196 25 -22 165 -98 362 -197
178 -89 337 -172 355 -185 26 -19 32 -33 38 -76 61 -491 241 -982 511 -1400
l62 -96 -31 -13 c-127 -50 -551 -240 -636 -285 -242 -128 -471 -320 -579 -486
-86 -132 -142 -301 -142 -424 0 -41 79 -1156 95 -1329 4 -45 10 -64 26 -77 20
-17 225 -18 3993 -18 l3973 0 20 22 c19 21 24 70 68 668 27 355 48 683 47 730
-5 327 -232 635 -646 875 -101 58 -642 306 -701 321 -14 3 -25 8 -25 10 0 2
29 47 63 101 268 414 440 879 508 1373 6 47 16 91 22 98 6 8 163 90 350 184
378 189 407 210 447 316 30 80 25 194 -13 272 -21 42 -24 57 -15 63 7 4 186
103 397 220 414 228 427 238 452 331 27 98 -18 234 -92 283 -55 36 -143 49
-247 36 -84 -11 -109 -22 -647 -272 -307 -144 -563 -265 -568 -270 -9 -9 14
-63 41 -93 42 -49 224 3 582 165 119 54 168 72 177 65 10 -8 53 8 155 55 79
36 169 73 201 82 89 26 137 4 84 -38 -64 -50 -88 -67 -157 -107 -343 -199
-512 -368 -481 -476 10 -37 23 -28 -296 -206 -191 -107 -214 -124 -455 -321
-562 -463 -656 -542 -648 -545 25 -9 134 64 380 253 96 75 178 126 203 129 13
1 28 5 33 9 7 4 13 -17 17 -61 3 -37 11 -81 18 -96 16 -34 29 -20 -221 -225
-186 -153 -216 -173 -300 -201 -54 -18 -82 -21 -172 -18 l-108 3 0 -25 c0 -55
162 58 -1660 -1165 -195 -131 -483 -325 -640 -430 -157 -105 -437 -294 -622
-418 -186 -125 -490 -329 -675 -454 -186 -124 -480 -322 -653 -438 -685 -461
-1021 -684 -1041 -690 -14 -5 -35 5 -73 34 -36 28 -69 44 -106 51 -29 5 -190
10 -359 10 -253 1 -309 3 -325 15 -11 8 -32 15 -47 15 -27 0 -31 5 -58 87 -28
83 -61 587 -61 934 0 320 2 336 56 421 15 23 43 66 61 95 65 101 246 249 427
349 37 20 139 69 228 110 89 40 164 77 167 81 3 5 31 22 61 37 80 41 116 71
146 122 23 40 26 52 21 103 l-6 58 97 46 c53 25 257 116 452 202 195 86 414
183 485 215 72 32 423 187 780 345 358 157 704 310 770 340 66 30 183 81 260
114 156 67 153 64 107 140 -56 92 -178 144 -287 121 -70 -14 -142 -64 -177
-121 -49 -82 -50 -81 54 -122 115 -46 138 -61 84 -53 -21 3 -46 12 -55 19 -14
13 -34 9 -166 -32 -439 -138 -1544 -506 -1538 -512 5 -3 49 -14 100 -24 117
-22 132 -36 114 -103 -22 -85 -26 -85 -153 1 -62 42 -234 159 -383 259 l-270
183 -3 41 -3 41 -98 -5 c-114 -5 -181 7 -261 49 -47 25 -440 340 -440 353 0 3
5 17 11 33 6 15 14 53 18 83 5 46 9 55 28 58 41 6 118 -43 364 -229 107 -81
215 -146 226 -136 2 3 -200 173 -449 378 l-453 374 -231 130 c-297 167 -277
151 -263 196 10 32 8 42 -15 90 -53 106 -189 219 -433 359 -130 75 -223 140
-223 156 0 14 23 24 51 24 34 0 135 -38 288 -109 103 -47 152 -65 162 -58 10
6 57 -11 157 -57 305 -140 536 -210 578 -176 23 20 56 89 48 101 -3 6 -43 28
-88 49 -44 21 -299 139 -566 264 -501 234 -537 247 -655 245 -27 -1 -67 -5
-88 -10z m1949 -2355 c32 -14 107 -36 166 -49 120 -27 149 -40 228 -100 30
-23 108 -77 172 -120 65 -43 120 -86 124 -97 3 -12 -1 -27 -13 -40 -40 -45
-365 -189 -431 -191 -38 -2 -47 2 -73 33 -72 87 -249 486 -249 564 0 32 4 32
76 0z m5731 10 c12 -32 -31 -157 -131 -378 -35 -77 -124 -214 -146 -226 -31
-16 -58 -12 -154 26 -175 71 -311 140 -330 168 -17 26 -17 29 0 47 15 17 255
186 356 251 28 18 83 36 157 53 63 14 137 36 165 49 61 29 75 31 83 10z m-719
-678 c244 -108 465 -207 491 -221 l48 -24 -5 -54 c-8 -94 35 -151 166 -224 37
-20 69 -40 72 -44 3 -4 83 -43 178 -87 266 -123 422 -222 548 -347 86 -85 126
-143 170 -245 l34 -78 0 -264 c0 -231 -19 -590 -46 -863 -8 -86 -34 -176 -53
-183 -9 -3 -20 -11 -24 -19 -6 -10 -75 -13 -341 -13 -183 0 -356 -4 -384 -10
-30 -5 -79 -27 -117 -51 -38 -24 -72 -39 -81 -35 -14 5 -718 476 -1774 1185
-206 139 -451 303 -543 364 l-169 112 29 24 c87 74 1239 1097 1298 1153 62 59
68 67 50 74 -31 11 -55 35 -55 56 0 22 -63 48 508 -206z m-1718 -766 c0 -13
-35 -64 -76 -110 -57 -64 -106 -161 -107 -210 -2 -63 42 -144 117 -218 65 -64
132 -110 1153 -796 359 -241 660 -447 668 -459 13 -19 13 -23 0 -37 -14 -13
-253 -15 -2196 -18 -1499 -1 -2193 1 -2220 8 -49 14 -52 40 -6 73 52 39 2597
1746 2626 1762 32 17 41 18 41 5z M2900 5190 c-19 -19 -20 -33 -20 -516 l0
-495 30 18 c17 9 33 25 36 35 3 10 10 18 15 18 5 0 9 15 9 34 0 19 5 38 10 41
6 4 10 123 10 325 0 175 3 325 6 334 3 9 12 16 20 16 8 0 14 5 14 11 0 25 89
-10 597 -235 290 -128 589 -259 663 -291 74 -31 167 -71 205 -87 189 -82 364
-120 447 -98 l43 12 -50 26 c-133 67 -1970 872 -1991 872 -13 0 -33 -9 -44
-20z M7600 5176 c-41 -18 -464 -205 -940 -416 -476 -211 -896 -396 -933 -413
-37 -17 -66 -35 -64 -40 2 -6 22 -17 45 -26 36 -13 50 -13 109 -1 119 23 119
23 1107 458 684 300 676 297 676 268 0 -9 7 -12 20 -9 20 5 20 0 20 -304 0
-256 3 -312 15 -329 8 -10 15 -36 15 -56 0 -21 5 -38 10 -38 6 0 10 -7 10 -15
0 -16 46 -65 61 -65 16 0 20 120 17 541 -3 413 -4 438 -22 458 -26 29 -58 26
-146 -13z M4983 5170 c-66 -40 -86 -103 -54 -174 16 -37 29 -51 63 -66 40 -18
67 -20 338 -20 271 0 298 2 338 20 77 35 103 138 51 204 -43 55 -52 56 -391
56 -293 0 -315 -1 -345 -20z"/>
</g>
</svg>
