<?xml version="1.0" standalone="no"?>
<!DOCTYPE svg PUBLIC "-//W3C//DTD SVG 20010904//EN"
 "http://www.w3.org/TR/2001/REC-SVG-20010904/DTD/svg10.dtd">
<svg version="1.0" xmlns="http://www.w3.org/2000/svg"
 width="2048.000000pt" height="2048.000000pt" viewBox="0 0 2048.000000 2048.000000"
 preserveAspectRatio="xMidYMid meet">
<metadata>
Created by potrace 1.13, written by Peter Selinger 2001-2015
</metadata>
<g transform="translate(0.000000,2048.000000) scale(0.192120,-0.192120)"
fill="#000000" stroke="none">
<path d="M4582 10310 c-191 -50 -343 -194 -408 -385 -25 -73 -27 -96 -31 -265
l-5 -185 -44 -90 c-51 -103 -52 -110 -90 -510 -70 -744 -180 -1622 -269 -2143
-30 -173 -42 -218 -79 -305 -176 -413 -306 -1037 -308 -1482 l-1 -170 -91 -94
c-94 -96 -341 -321 -599 -545 l-148 -128 -72 50 c-259 178 -479 204 -780 90
-97 -37 -242 -112 -350 -180 -259 -163 -605 -459 -863 -735 l-114 -123 0
-1390 0 -1390 1538 0 c1690 0 1586 -4 1715 61 80 41 201 162 250 249 46 84 81
191 101 309 20 119 21 377 2 521 -13 91 -44 238 -62 283 -3 9 32 44 103 103
102 85 112 91 176 102 423 78 839 408 1061 840 59 116 106 259 106 323 0 22 5
39 10 39 6 0 10 -17 10 -39 0 -59 45 -203 96 -303 176 -352 480 -643 815 -782
85 -35 263 -86 300 -86 28 0 241 -179 235 -197 -17 -43 -48 -186 -61 -276 -19
-136 -19 -406 0 -526 19 -116 55 -226 102 -311 49 -87 170 -208 250 -249 129
-65 25 -61 1715 -61 l1538 0 0 1390 0 1390 -124 133 c-129 138 -336 332 -489
459 -307 254 -602 424 -850 490 -119 31 -276 31 -377 0 -93 -30 -175 -71 -267
-134 l-72 -50 -193 168 c-268 233 -458 406 -560 512 l-88 89 0 174 c0 440
-129 1061 -306 1476 -39 90 -49 131 -84 335 -88 520 -203 1443 -270 2173 -31
333 -35 355 -90 461 l-47 90 -7 165 c-9 201 -17 241 -68 348 -118 248 -403
380 -672 311 -109 -28 -190 -74 -272 -155 -88 -86 -137 -180 -163 -310 l-17
-90 -7 51 c-26 190 -151 373 -313 457 -131 68 -271 84 -412 47z m257 -286 c83
-23 125 -57 247 -199 157 -183 206 -215 272 -181 31 16 130 120 210 220 66 83
130 130 211 156 145 46 324 6 405 -91 22 -26 26 -40 24 -78 l-3 -46 -84 -3
c-150 -4 -276 -46 -379 -124 -83 -62 -126 -112 -180 -208 -77 -138 -90 -212
-112 -680 -18 -366 -20 -578 -20 -2872 0 -2431 0 -2477 -19 -2490 -11 -8 -21
-28 -23 -48 l-3 -35 -60 0 -60 0 -3 35 c-2 20 -12 40 -23 48 -19 13 -19 59
-19 2525 0 1557 -4 2586 -10 2707 -26 489 -29 538 -49 620 -57 242 -201 412
-412 487 -61 22 -97 27 -201 31 -114 4 -128 6 -133 23 -23 72 86 178 212 208
61 14 152 12 212 -5z m-148 -360 c179 -53 318 -192 374 -374 12 -41 21 -151
35 -435 18 -350 19 -581 20 -2945 0 -1810 3 -2576 11 -2604 14 -51 83 -123
134 -141 l40 -13 -30 -12 c-125 -47 -177 -94 -260 -235 -214 -364 -456 -565
-810 -677 -226 -71 -305 -123 -476 -318 -93 -106 -163 -203 -190 -265 -17 -38
-20 -59 -15 -101 l6 -52 -73 -65 c-123 -109 -320 -268 -330 -264 -5 1 -19 34
-31 72 -35 107 -56 141 -169 268 -190 212 -359 450 -542 762 -160 273 -283
540 -401 874 -50 140 -66 170 -123 226 -47 45 -50 57 -17 82 63 49 331 277
334 284 5 11 -72 58 -138 86 -112 46 -198 23 -242 -65 -21 -42 -23 -60 -23
-187 0 -97 6 -166 19 -225 101 -469 442 -1169 811 -1666 325 -436 676 -721
840 -680 45 11 94 64 110 119 18 62 19 214 1 315 l-12 72 130 105 c72 57 132
103 133 101 2 -2 -6 -41 -17 -87 -17 -71 -20 -118 -20 -305 0 -208 -2 -227
-26 -310 -14 -49 -47 -135 -75 -190 -58 -120 -114 -179 -205 -215 l-59 -24
-1417 -3 -1418 -2 0 1238 0 1238 40 39 c22 21 40 46 40 55 0 17 146 163 290
291 170 151 339 277 495 370 50 30 98 61 107 69 24 22 213 114 278 136 83 28
219 24 344 -10 73 -19 123 -26 195 -27 l96 0 -75 -67 c-41 -37 -99 -90 -129
-119 l-55 -51 42 -11 c41 -12 108 -1 138 21 6 4 55 27 110 51 196 86 443 276
783 602 150 145 281 333 281 406 0 15 4 30 9 33 4 3 11 85 14 183 8 253 49
533 123 830 31 127 59 211 194 598 80 229 203 1108 330 2355 32 312 45 408 70
505 34 130 34 165 0 242 l-19 43 52 30 c29 17 70 35 92 41 22 5 45 12 50 14
29 10 178 3 226 -11z m1535 2 c29 -7 74 -26 101 -41 l50 -26 -20 -69 -21 -69
21 -78 c12 -43 28 -103 37 -133 9 -30 37 -251 61 -490 83 -800 155 -1376 231
-1860 46 -292 71 -397 143 -593 111 -304 168 -514 214 -782 38 -218 57 -403
57 -547 0 -74 4 -129 10 -133 6 -3 10 -21 10 -39 0 -78 120 -257 265 -395 96
-90 382 -344 460 -407 117 -95 357 -233 480 -275 61 -20 145 -10 127 16 -4 6
-61 58 -126 115 l-119 105 109 7 c60 3 150 17 199 29 116 29 247 31 325 5 79
-27 314 -140 336 -162 11 -11 64 -48 119 -83 121 -77 249 -172 370 -276 157
-134 405 -376 405 -394 0 -10 9 -30 20 -44 20 -25 20 -40 20 -1211 0 -1179 0
-1186 -20 -1186 -17 0 -20 -7 -20 -40 l0 -40 -1388 0 c-1512 0 -1448 -2 -1548
56 -94 55 -174 190 -220 371 -22 87 -24 115 -24 317 0 192 -3 233 -21 305 -11
45 -19 84 -17 86 2 2 61 -42 132 -98 l127 -102 -5 -40 c-3 -22 -9 -97 -12
-166 -8 -154 6 -216 61 -269 34 -32 41 -35 99 -35 52 0 75 7 137 37 209 104
486 385 746 756 238 339 486 816 628 1207 150 416 167 747 41 825 -63 39 -167
20 -277 -50 -27 -18 -48 -36 -47 -40 2 -4 44 -41 93 -81 160 -131 265 -222
265 -232 0 -5 -20 -31 -44 -58 -24 -26 -50 -63 -59 -81 -38 -82 -69 -154 -127
-298 -174 -432 -387 -828 -610 -1133 -67 -92 -205 -270 -325 -419 -58 -73 -93
-135 -115 -206 -10 -31 -22 -58 -27 -59 -10 -4 -206 154 -331 265 l-72 64 6
47 c5 37 1 57 -19 101 -61 138 -321 430 -447 503 -36 20 -128 57 -205 82 -77
24 -174 61 -215 80 -241 116 -476 346 -617 602 -26 48 -69 109 -94 135 -45 45
-133 98 -164 98 -27 0 -16 18 16 25 37 8 103 65 127 109 16 29 17 225 23 2736
7 3259 6 3212 102 3395 87 163 270 274 452 275 44 0 103 -6 131 -14z"/>
</g>
</svg>
