<?xml version="1.0" standalone="no"?>
<!DOCTYPE svg PUBLIC "-//W3C//DTD SVG 20010904//EN"
 "http://www.w3.org/TR/2001/REC-SVG-20010904/DTD/svg10.dtd">
<svg version="1.0" xmlns="http://www.w3.org/2000/svg"
 width="2048.000000pt" height="2048.000000pt" viewBox="0 0 2048.000000 2048.000000"
 preserveAspectRatio="xMidYMid meet">
<metadata>
Created by potrace 1.13, written by Peter Selinger 2001-2015
</metadata>
<g transform="translate(0.000000,2048.000000) scale(0.192120,-0.192120)"
fill="#000000" stroke="none">
<path d="M1302 10310 c-40 -11 -97 -32 -125 -47 -75 -40 -188 -155 -226 -230
-66 -132 -61 184 -61 -3758 0 -3135 2 -3596 15 -3710 82 -698 333 -1283 715
-1665 297 -297 647 -468 1115 -546 105 -18 261 -19 3158 -21 l3048 -3 -3 782
-3 783 -27 98 c-122 444 -481 762 -933 827 -42 6 -418 10 -943 10 l-872 0 2
211 3 211 85 32 c112 44 304 141 412 209 388 245 703 596 908 1012 166 336
243 649 257 1043 5 161 8 182 23 182 80 0 196 73 273 172 228 294 248 858 42
1173 l-45 68 10 116 c18 205 16 602 -4 716 -75 437 -266 823 -585 1181 -393
441 -953 758 -1556 879 -249 50 -350 59 -670 59 -330 1 -458 -11 -730 -65
-393 -78 -711 -207 -1045 -424 -52 -34 -116 -74 -141 -88 -25 -14 -61 -43 -79
-64 -18 -21 -74 -81 -125 -133 l-91 -95 4 290 c5 333 -3 391 -65 514 -71 141
-217 254 -370 286 -55 12 -186 15 -683 14 -573 0 -620 -1 -688 -19z m508 -94
c30 -20 63 -36 72 -36 10 0 18 -4 18 -10 0 -6 37 -10 90 -10 53 0 90 4 90 10
0 6 8 10 18 10 10 0 52 20 95 44 l77 44 0 -664 0 -664 140 0 140 0 1 643 c0
353 4 651 8 661 6 17 15 12 77 -41 259 -223 304 -311 304 -594 0 -246 26 -327
121 -381 33 -18 39 -27 39 -55 0 -41 10 -42 33 -3 15 25 24 30 58 30 22 0 53
7 69 15 17 9 30 13 30 9 0 -8 155 101 218 153 38 33 61 63 85 114 29 63 34 69
62 69 50 0 147 -53 192 -104 59 -67 85 -128 91 -212 8 -127 9 -125 -428 -790
l-400 -609 0 -147 c0 -136 1 -148 18 -148 51 0 54 -56 12 -228 -16 -68 -30
-125 -30 -127 0 -3 29 52 65 121 155 300 361 548 578 696 67 45 42 54 198 -73
128 -104 284 -214 404 -286 227 -137 385 -178 477 -125 58 34 90 145 70 250
-5 28 -7 52 -4 52 3 0 71 -64 151 -142 292 -285 528 -453 608 -433 40 10 57
48 50 114 -8 78 -58 232 -115 354 l-45 98 -24 -22 c-21 -21 -23 -31 -23 -121
0 -78 -3 -100 -15 -104 -8 -4 -15 -15 -15 -25 0 -10 -4 -19 -9 -19 -11 0 -97
69 -276 219 -66 56 -138 110 -161 121 -84 41 -148 18 -215 -79 -43 -62 -94
-111 -115 -111 -32 0 -172 53 -239 90 -71 39 -236 152 -430 292 -130 94 -186
115 -260 99 -91 -21 -240 -127 -374 -266 -49 -52 -66 -64 -72 -52 -19 32 -1
61 466 772 240 365 265 423 265 608 0 118 -2 126 -35 207 -19 46 -35 99 -35
116 0 31 4 33 85 68 212 88 500 163 775 201 159 22 611 31 776 16 320 -30 603
-99 878 -215 701 -295 1240 -885 1386 -1519 19 -83 20 -121 20 -706 0 -583 -1
-620 -18 -641 l-18 -23 -38 33 c-38 34 -68 81 -181 290 -132 244 -206 358
-264 412 -91 83 -120 91 -371 108 -330 23 -659 74 -886 140 -60 17 -176 58
-259 91 -160 65 -234 80 -285 59 -16 -7 -30 -16 -30 -21 0 -14 117 -104 184
-141 296 -165 775 -265 1411 -296 l139 -7 58 -95 c99 -161 231 -397 328 -583
65 -124 105 -188 132 -212 75 -68 138 -43 199 80 32 67 80 245 100 374 15 98
21 90 44 -62 41 -280 -9 -623 -118 -812 -37 -63 -65 -94 -152 -163 -38 -31
-91 -78 -116 -105 -41 -42 -55 -66 -89 -152 -5 -11 -11 -74 -14 -140 -9 -202
-50 -444 -103 -604 -27 -83 -177 -389 -239 -488 -22 -35 -75 -120 -118 -190
-64 -102 -105 -153 -205 -256 -187 -192 -289 -264 -576 -407 -246 -123 -298
-158 -361 -245 -16 -22 -33 -43 -39 -47 -11 -8 -20 -324 -10 -375 3 -19 10
-31 16 -28 5 4 9 2 9 -4 0 -14 47 -37 93 -45 l39 -7 -4 -217 c-5 -239 -13
-282 -73 -409 -43 -92 -84 -153 -154 -227 -100 -104 -209 -171 -361 -222 -77
-25 -98 -28 -235 -28 -168 0 -227 11 -353 70 -215 99 -375 283 -453 519 -20
62 -23 95 -27 290 l-4 220 64 20 c43 14 66 27 74 42 6 13 14 20 17 16 4 -3 7
75 7 175 0 115 -4 182 -10 182 -5 0 -10 6 -10 14 0 15 -79 116 -120 154 -14
12 -124 72 -245 133 -234 118 -263 137 -420 265 -207 169 -376 372 -574 690
-44 71 -96 144 -114 162 -44 43 -101 63 -139 50 -15 -6 -28 -12 -28 -14 0 -16
72 -179 118 -268 188 -362 487 -693 835 -923 122 -81 321 -185 447 -234 l95
-38 3 -210 2 -211 -835 0 c-459 0 -835 3 -835 8 0 4 20 347 45 762 24 415 51
874 60 1020 18 328 140 2360 160 2680 8 129 15 238 15 242 0 4 -488 9 -1084
10 -596 2 -1087 6 -1091 9 -3 4 17 42 44 84 28 43 51 84 51 91 0 8 5 14 10 14
6 0 10 20 10 45 0 25 5 45 10 45 7 0 10 334 10 983 0 847 2 989 15 1032 28 91
88 176 194 274 104 97 145 131 155 131 3 0 6 -297 6 -660 l0 -660 140 0 140 0
0 665 c0 641 1 665 18 656 10 -5 43 -26 72 -45z m750 -2866 c0 -19 7 -20 169
-20 l170 0 6 -44 c4 -24 5 -70 2 -102 -3 -33 -34 -549 -70 -1149 -53 -871 -70
-1109 -87 -1185 -36 -171 -50 -317 -85 -910 -24 -404 -35 -666 -35 -848 l0
-263 88 -88 c52 -53 107 -97 137 -112 l50 -24 683 -3 c670 -3 682 -3 682 -22
0 -13 7 -20 20 -20 16 0 20 -7 20 -33 0 -48 35 -209 63 -292 114 -334 372
-573 717 -667 123 -33 357 -33 480 0 203 55 367 158 515 323 118 131 207 334
241 552 12 80 22 117 31 117 7 0 13 9 13 21 l0 20 783 -4 c860 -4 838 -3 1007
-68 245 -94 445 -322 522 -594 22 -79 22 -90 26 -717 3 -637 3 -638 -18 -638
-11 0 -20 -7 -20 -15 0 -13 -39 -15 -290 -15 -187 0 -290 -4 -290 -10 0 -5
-20 -10 -44 -10 -24 0 -46 -3 -48 -7 -1 -5 -40 -27 -85 -51 l-83 -43 0 506 0
505 -140 0 -140 0 0 -504 0 -504 -72 41 c-40 23 -74 45 -76 49 -2 5 -15 8 -28
8 -13 0 -24 4 -24 10 0 6 -793 11 -2237 13 -2410 3 -2285 0 -2510 52 -476 109
-825 361 -1089 788 -169 272 -282 576 -349 935 l-25 133 0 2435 0 2434 210 0
c203 0 210 1 210 20 0 20 7 20 500 20 493 0 500 0 500 -20z M4150 6711 c-86
-28 -141 -74 -181 -151 -23 -43 -24 -54 -24 -255 0 -237 7 -267 79 -337 53
-52 101 -72 182 -76 90 -5 156 21 215 85 71 77 74 91 74 323 0 204 0 205 -28
262 -46 93 -128 148 -232 154 -33 2 -71 0 -85 -5z M6357 6706 c-101 -37 -167
-112 -188 -213 -17 -83 -8 -387 13 -435 25 -57 93 -123 150 -148 41 -18 65
-21 122 -18 113 6 195 59 240 157 19 42 21 63 21 256 0 208 0 210 -27 260 -31
60 -67 95 -128 125 -56 28 -151 36 -203 16z M4983 5170 c-66 -40 -86 -103 -54
-174 16 -37 29 -51 63 -66 40 -18 67 -20 338 -20 271 0 298 2 338 20 77 35
103 138 51 204 -43 55 -52 56 -391 56 -293 0 -315 -1 -345 -20z M4220 4214 c0
-14 68 -103 128 -166 177 -187 423 -313 711 -362 122 -21 411 -22 536 -1 284
46 540 175 717 363 60 63 128 152 128 166 0 3 -499 6 -1110 6 -610 0 -1110 -3
-1110 -6z m1393 -230 c66 -6 77 -10 77 -25 0 -12 -7 -19 -20 -19 -11 0 -20 -4
-20 -8 0 -15 -221 -46 -325 -46 -103 1 -315 31 -315 45 0 4 -10 9 -22 11 -13
2 -23 10 -23 18 0 11 15 17 50 21 71 8 507 10 598 3z"/>
</g>
</svg>
