<?xml version="1.0" standalone="no"?>
<!DOCTYPE svg PUBLIC "-//W3C//DTD SVG 20010904//EN"
 "http://www.w3.org/TR/2001/REC-SVG-20010904/DTD/svg10.dtd">
<svg version="1.0" xmlns="http://www.w3.org/2000/svg"
 width="2048.000000pt" height="2048.000000pt" viewBox="0 0 2048.000000 2048.000000"
 preserveAspectRatio="xMidYMid meet">
<metadata>
Created by potrace 1.13, written by Peter Selinger 2001-2015
</metadata>
<g transform="translate(0.000000,2048.000000) scale(0.192120,-0.192120)"
fill="#000000" stroke="none">
<path d="M5340 10319 c-350 -35 -753 -144 -1012 -275 -46 -24 -47 -24 -150 -9
-353 50 -746 -15 -1085 -180 -515 -252 -891 -710 -1033 -1259 -63 -247 -61
-157 -57 -2177 2 -1350 7 -1856 15 -1919 38 -271 86 -484 156 -694 107 -318
283 -657 477 -914 l48 -63 891 1 891 1 -15 -28 c-8 -15 -37 -59 -65 -98 -28
-38 -54 -84 -57 -102 -3 -18 -11 -33 -16 -33 -6 0 -8 -47 -6 -127 5 -140 19
-195 86 -333 160 -333 488 -557 857 -585 149 -11 327 21 470 85 209 94 406
285 500 485 76 161 88 206 93 348 3 88 1 127 -7 127 -6 0 -11 8 -11 18 0 22
-37 95 -76 152 -17 25 -36 55 -43 68 l-12 23 891 -1 891 -1 50 65 c292 387
515 909 599 1406 46 273 45 250 45 1795 0 1614 3 1529 -61 1824 -196 910 -805
1689 -1639 2096 -316 154 -607 242 -955 290 -139 19 -528 27 -660 14z m455
-299 c931 -63 1751 -550 2217 -1316 155 -256 258 -521 324 -832 l24 -112 0
-1683 c0 -1658 0 -1684 -21 -1792 -73 -388 -220 -763 -416 -1062 -63 -95 -98
-128 -153 -143 -61 -16 -1148 -9 -1177 8 -31 17 -21 33 44 73 30 19 105 67
165 107 461 306 824 749 1052 1285 58 137 126 354 163 522 l28 130 0 906 c0
849 -1 907 -17 923 -10 10 -18 21 -18 26 0 4 -34 43 -75 85 -113 115 -127 120
-450 150 -734 68 -1279 208 -1776 455 -314 155 -556 326 -780 549 -158 158
-214 228 -363 452 -143 217 -254 329 -325 331 -39 1 -86 -30 -153 -100 -67
-70 -109 -154 -143 -287 -84 -325 -129 -439 -242 -614 -61 -94 -158 -201 -243
-265 -127 -98 -245 -153 -459 -217 -77 -23 -152 -52 -175 -68 -60 -42 -187
-172 -198 -203 -6 -16 -14 -28 -19 -28 -5 0 -9 -422 -9 -1023 0 -966 1 -1029
19 -1128 86 -468 286 -903 590 -1289 182 -230 485 -499 721 -640 51 -30 108
-69 128 -86 l36 -31 -25 -14 c-19 -11 -130 -15 -586 -17 -376 -2 -576 1 -603
8 -78 21 -126 81 -254 317 -98 180 -152 303 -209 478 -58 176 -91 307 -117
460 -19 117 -20 163 -20 2110 0 1957 0 1991 20 2074 72 298 206 528 437 752
225 217 499 363 814 433 174 38 297 48 539 40 l215 -7 100 36 c55 19 164 58
243 86 379 135 752 187 1147 161z m-1556 -1122 c19 -63 93 -216 153 -316 154
-255 427 -551 689 -748 524 -391 1148 -635 1940 -758 180 -28 555 -66 654 -66
34 0 83 -3 109 -6 l47 -7 -4 -821 c-4 -892 -3 -883 -64 -1141 -58 -249 -183
-546 -318 -759 -180 -284 -435 -549 -710 -735 -160 -109 -404 -235 -540 -278
l-30 -10 -2 -396 c-1 -248 -6 -419 -13 -455 -61 -307 -270 -544 -570 -644 -90
-30 -102 -32 -250 -32 -143 0 -162 2 -240 28 -153 51 -261 118 -361 222 -117
124 -186 259 -219 426 -7 36 -12 207 -13 454 l-2 396 -75 28 c-173 63 -421
202 -607 341 -126 94 -378 346 -472 472 -232 311 -388 654 -461 1017 -45 222
-45 231 -45 1230 l0 955 30 3 c202 19 475 120 665 247 110 73 293 259 373 381
170 256 287 604 304 902 3 61 9 112 13 112 4 0 12 -19 19 -42z M4127 6426
c-79 -29 -149 -102 -173 -182 -20 -67 -19 -372 1 -441 20 -68 88 -143 157
-173 43 -18 65 -22 123 -18 107 7 183 57 233 152 27 51 27 53 27 256 0 204 0
205 -28 262 -63 128 -210 190 -340 144z M6343 6424 c-60 -22 -126 -85 -154
-146 -23 -50 -24 -63 -24 -258 0 -203 0 -205 27 -256 50 -95 126 -145 233
-152 58 -4 80 0 123 18 69 30 137 105 157 173 21 70 21 373 0 443 -18 60 -71
125 -132 161 -57 33 -165 41 -230 17z M4960 4872 c-50 -50 -60 -96 -31 -154
38 -79 38 -79 401 -79 363 0 363 0 401 79 29 58 19 104 -31 154 l-38 38 -332
0 -332 0 -38 -38z M5185 4205 c-173 -31 -331 -120 -480 -270 -88 -88 -205
-240 -205 -266 0 -5 340 -9 830 -9 457 0 830 3 830 8 0 13 -42 76 -105 157
-234 300 -551 439 -870 380z M2575 2799 c-200 -47 -376 -146 -527 -295 -140
-139 -242 -316 -296 -511 l-27 -98 -3 -782 -3 -783 3611 0 3611 0 -3 782 -4
783 -26 98 c-55 200 -158 375 -305 518 -158 153 -332 249 -526 289 -79 16 -87
11 -87 -50 0 -103 37 -145 187 -215 153 -72 259 -156 354 -280 87 -115 121
-184 166 -340 15 -53 17 -130 20 -702 4 -642 4 -643 -17 -643 -11 0 -20 -7
-20 -15 0 -13 -40 -15 -300 -15 -193 0 -300 -4 -300 -10 0 -5 -20 -10 -45 -10
-25 0 -45 -3 -45 -7 0 -5 -21 -17 -48 -27 -26 -10 -54 -24 -62 -31 -8 -7 -23
-15 -32 -18 -17 -6 -18 22 -18 498 l0 505 -140 0 -140 0 -2 -504 -3 -505 -69
35 c-38 19 -78 34 -88 34 -10 0 -18 5 -18 10 0 7 -690 10 -2050 10 -1360 0
-2050 -3 -2050 -10 0 -5 -5 -10 -11 -10 -6 0 -42 -15 -80 -34 l-69 -34 0 504
0 504 -140 0 -140 0 0 -505 0 -504 -72 37 c-40 20 -74 40 -76 45 -2 4 -12 7
-23 7 -10 0 -19 5 -19 10 0 6 -107 10 -300 10 -260 0 -300 2 -300 15 0 11 -11
15 -40 15 l-40 0 0 688 c0 658 1 691 20 746 57 167 188 339 333 438 32 22 111
66 175 98 155 77 187 115 180 216 -3 44 -5 49 -28 51 -14 1 -43 -3 -65 -8z"/>
</g>
</svg>
