<?xml version="1.0" standalone="no"?>
<!DOCTYPE svg PUBLIC "-//W3C//DTD SVG 20010904//EN"
 "http://www.w3.org/TR/2001/REC-SVG-20010904/DTD/svg10.dtd">
<svg version="1.0" xmlns="http://www.w3.org/2000/svg"
 width="2048.000000pt" height="2048.000000pt" viewBox="0 0 2048.000000 2048.000000"
 preserveAspectRatio="xMidYMid meet">
<metadata>
Created by potrace 1.13, written by Peter Selinger 2001-2015
</metadata>
<g transform="translate(0.000000,2048.000000) scale(0.192120,-0.192120)"
fill="#000000" stroke="none">
<path d="M5345 10319 c-343 -32 -757 -144 -1016 -275 -47 -23 -48 -23 -155 -9
-60 8 -166 15 -236 15 -881 1 -1658 -601 -1878 -1456 -61 -235 -60 -222 -58
-1642 l3 -1293 114 -51 c63 -28 255 -133 425 -233 171 -101 312 -179 314 -175
2 5 -2 42 -9 82 -9 54 -14 332 -16 1046 l-4 972 32 0 c17 0 84 12 147 26 583
131 979 536 1142 1168 34 130 60 298 60 385 0 33 4 61 8 61 5 0 16 -26 26 -57
26 -80 124 -268 200 -382 485 -724 1374 -1228 2491 -1410 280 -46 622 -81 798
-81 l97 0 0 -767 c0 -702 -4 -827 -26 -992 l-7 -55 54 31 c30 17 171 100 315
185 143 84 313 176 377 203 l117 50 -3 960 c-3 940 -4 963 -26 1099 -130 809
-548 1510 -1187 1992 -420 316 -910 516 -1444 589 -139 19 -517 27 -655 14z
m650 -264 c704 -96 1343 -437 1789 -956 300 -350 487 -717 598 -1179 l32 -135
3 -1021 3 -1021 -147 -83 c-243 -137 -252 -142 -263 -135 -5 3 -10 19 -10 35
0 22 -4 28 -15 24 -13 -5 -15 75 -15 685 0 454 -3 691 -10 691 -5 0 -10 9 -10
20 0 11 -4 20 -9 20 -5 0 -12 12 -15 26 -8 31 -66 87 -118 114 -52 28 -103 37
-273 50 -1171 89 -2088 448 -2676 1047 -165 168 -219 236 -355 444 -187 285
-256 335 -342 246 -49 -52 -89 -142 -132 -302 -107 -394 -205 -581 -418 -798
-150 -153 -329 -251 -611 -332 -72 -21 -141 -48 -165 -64 -46 -32 -116 -105
-116 -121 0 -5 -4 -10 -10 -10 -5 0 -10 -11 -10 -25 0 -14 -4 -25 -10 -25 -7
0 -10 -285 -10 -836 0 -831 0 -836 -20 -831 -17 4 -20 0 -20 -29 0 -21 -5 -34
-13 -34 -7 0 -75 36 -152 81 -77 44 -166 94 -197 110 l-58 29 0 1335 c0 1300
1 1338 20 1425 112 502 488 944 981 1154 275 117 467 149 856 144 l248 -3 100
39 c379 146 605 203 925 236 127 13 506 4 645 -15z M4128 6704 c-63 -22 -123
-75 -156 -138 -27 -51 -27 -52 -27 -261 0 -237 7 -267 79 -337 53 -52 101 -72
182 -76 90 -5 156 21 215 85 71 77 74 91 74 323 0 204 0 205 -28 262 -62 126
-208 187 -339 142z M6357 6706 c-99 -36 -166 -112 -188 -213 -17 -83 -8 -387
13 -435 25 -57 93 -123 150 -148 41 -18 65 -21 122 -18 113 6 195 59 240 157
19 42 21 63 21 256 0 209 0 210 -27 261 -64 122 -210 183 -331 140z M547 6229
c-81 -19 -123 -55 -158 -133 -43 -98 -22 -225 47 -287 23 -21 437 -255 741
-420 l62 -33 -19 -31 c-23 -37 -50 -136 -50 -181 0 -61 38 -159 81 -208 36
-41 80 -66 373 -212 182 -92 345 -177 363 -190 25 -19 33 -34 38 -72 70 -522
251 -1016 512 -1401 35 -52 62 -95 61 -96 -2 -1 -124 -55 -273 -120 -148 -64
-315 -140 -370 -168 -328 -168 -584 -411 -683 -649 -35 -83 -62 -205 -62 -274
0 -41 79 -1156 95 -1329 4 -45 10 -64 26 -77 20 -17 225 -18 3993 -18 l3973 0
20 22 c19 21 24 70 68 668 27 355 48 683 47 730 -5 327 -232 635 -646 875 -93
53 -661 315 -685 315 -4 0 -15 6 -25 13 -16 12 -12 20 47 107 254 375 440 876
507 1370 6 47 17 91 23 98 6 8 163 90 349 183 363 182 393 203 439 295 20 41
24 64 24 144 0 84 -3 102 -28 150 -20 42 -24 57 -15 63 7 4 186 103 398 221
413 229 426 239 451 330 27 98 -18 234 -92 283 -53 35 -152 49 -253 35 -75
-10 -120 -29 -650 -276 -313 -146 -574 -270 -579 -275 -15 -15 19 -60 56 -76
64 -27 229 26 566 180 150 68 230 100 237 94 8 -6 52 9 130 45 149 68 211 86
291 86 71 0 84 -12 64 -58 -15 -31 -16 -32 -206 -148 -215 -130 -281 -174
-360 -241 -84 -71 -115 -120 -115 -185 l0 -47 -117 -69 c-65 -38 -185 -107
-268 -152 -153 -85 -271 -177 -943 -734 l-133 -111 36 -3 c60 -5 100 19 402
251 55 42 151 94 157 85 6 -10 33 -164 29 -171 -7 -11 -309 -262 -354 -292
-58 -41 -159 -74 -248 -81 -73 -6 -79 -8 -71 -25 10 -18 80 -48 115 -50 93 -4
110 0 219 54 61 30 112 52 114 47 2 -4 12 -6 22 -3 46 12 13 -164 -69 -372
-18 -44 -80 -179 -139 -299 -97 -200 -107 -225 -110 -285 -3 -45 1 -79 11
-103 l16 -37 -52 20 c-29 12 -61 25 -72 29 -36 14 -709 310 -760 335 -27 13
-80 37 -117 54 l-68 30 -157 -108 c-87 -59 -378 -255 -648 -436 -269 -180
-584 -392 -700 -470 -115 -78 -383 -258 -595 -400 -485 -326 -931 -625 -1337
-899 -689 -463 -1024 -685 -1044 -691 -14 -5 -35 5 -73 34 -36 28 -69 44 -106
51 -29 5 -190 10 -359 10 -253 1 -309 3 -325 15 -11 8 -32 15 -47 15 -27 0
-31 5 -58 87 -28 83 -61 587 -61 934 0 320 2 336 56 421 15 23 43 66 61 95 65
101 246 249 427 349 37 20 139 69 228 110 89 40 164 77 167 81 3 5 44 27 91
51 47 23 119 68 160 99 185 140 246 174 560 313 323 144 373 174 399 243 16
43 14 50 -14 43 -14 -4 -215 -90 -448 -193 -359 -158 -489 -213 -502 -213 -1
0 3 17 11 38 18 51 17 151 -2 198 -9 22 -53 116 -99 209 -134 274 -215 494
-215 587 0 26 2 48 3 48 11 0 68 -33 73 -42 4 -7 9 -6 14 3 7 10 22 6 69 -15
33 -15 93 -34 132 -42 64 -13 73 -13 89 1 9 8 23 15 31 15 15 0 47 25 66 50
10 13 6 15 -27 12 -64 -6 -174 17 -247 53 -91 44 -399 302 -395 331 1 10 7 49
13 86 l11 66 45 -19 c45 -19 105 -60 277 -187 116 -86 183 -122 227 -122 49 0
86 -33 -546 485 l-340 279 -225 127 c-341 191 -316 173 -312 224 9 105 -108
217 -406 389 -248 143 -272 158 -287 179 -17 25 -19 53 -4 62 5 4 41 7 79 6
82 -1 147 -21 307 -96 78 -37 119 -52 123 -44 5 7 90 -26 252 -99 288 -130
447 -184 521 -180 46 3 54 7 74 37 19 28 21 37 11 47 -13 13 -60 35 -743 353
-423 197 -463 212 -580 210 -27 -1 -67 -5 -88 -10z m6595 -2910 c40 -77 82
-104 351 -224 271 -120 341 -157 433 -227 137 -104 194 -142 269 -180 44 -22
82 -44 85 -48 3 -5 83 -44 178 -88 266 -123 422 -222 548 -347 86 -85 126
-143 170 -245 l34 -78 0 -264 c0 -231 -19 -590 -46 -863 -8 -86 -34 -176 -53
-183 -9 -3 -20 -11 -24 -19 -6 -10 -75 -13 -341 -13 -183 0 -356 -4 -384 -10
-30 -5 -79 -27 -117 -51 -38 -24 -72 -39 -81 -35 -14 5 -718 476 -1774 1185
-206 139 -451 303 -543 364 l-168 111 58 51 c32 27 314 277 628 555 696 618
736 651 748 647 6 -2 19 -19 29 -38z m-1352 -879 c0 -13 -35 -64 -76 -110 -57
-64 -106 -161 -107 -210 -2 -63 42 -144 117 -218 65 -64 132 -110 1153 -796
359 -241 660 -447 668 -459 13 -19 13 -23 0 -37 -14 -13 -253 -15 -2196 -18
-1499 -1 -2193 1 -2220 8 -49 14 -52 40 -6 73 52 39 2597 1746 2626 1762 32
17 41 18 41 5z M6695 4776 c-550 -243 -1019 -452 -1043 -464 -43 -23 -62 -22
-62 2 0 26 -63 106 -107 135 -24 16 -69 35 -99 41 -108 23 -231 -29 -285 -120
-50 -84 -52 -81 66 -129 58 -24 105 -45 105 -47 0 -8 -66 10 -80 22 -20 17
-36 12 -925 -279 -379 -124 -727 -237 -773 -250 l-82 -25 -15 35 c-8 19 -15
38 -15 42 0 25 -64 90 -143 145 -50 35 -112 83 -137 106 l-45 41 -3 444 -3
445 31 0 c16 0 30 5 30 11 0 6 9 8 23 4 12 -4 265 -114 562 -245 742 -327 808
-355 906 -384 190 -58 332 -70 404 -37 l40 19 -95 45 c-52 24 -498 223 -990
440 -492 217 -915 405 -940 416 -56 26 -102 27 -123 3 -15 -16 -17 -78 -17
-607 -1 -472 1 -591 12 -601 7 -6 119 -83 248 -169 129 -87 237 -161 240 -164
12 -17 291 -201 304 -201 7 0 53 18 102 41 49 23 373 166 719 319 347 153 671
296 720 319 50 22 153 67 230 99 l140 60 41 -44 c36 -39 45 -44 85 -44 24 0
60 5 79 10 19 6 47 12 61 15 32 4 493 201 1098 469 616 273 581 259 581 231 0
-11 7 -14 25 -9 l24 6 5 -304 c3 -166 8 -341 11 -388 9 -120 -1 -206 -28 -231
-12 -11 -112 -82 -222 -156 -238 -161 -278 -193 -311 -244 -22 -36 -33 -99
-17 -99 12 0 685 450 716 478 l27 26 0 582 c0 540 -1 583 -17 602 -10 11 -27
23 -38 26 -13 3 -369 -149 -1020 -438z M4979 5167 c-96 -64 -84 -199 21 -241
34 -13 87 -16 330 -16 243 0 296 3 330 16 105 42 117 177 21 241 -34 23 -38
23 -351 23 -313 0 -317 0 -351 -23z"/>
</g>
</svg>
