<?xml version="1.0" standalone="no"?>
<!DOCTYPE svg PUBLIC "-//W3C//DTD SVG 20010904//EN"
 "http://www.w3.org/TR/2001/REC-SVG-20010904/DTD/svg10.dtd">
<svg version="1.0" xmlns="http://www.w3.org/2000/svg"
 width="2048.000000pt" height="2048.000000pt" viewBox="0 0 2048.000000 2048.000000"
 preserveAspectRatio="xMidYMid meet">
<metadata>
Created by potrace 1.13, written by Peter Selinger 2001-2015
</metadata>
<g transform="translate(0.000000,2048.000000) scale(0.192120,-0.192120)"
fill="#000000" stroke="none">
<path d="M5055 10094 c-593 -47 -1083 -204 -1495 -478 -535 -357 -899 -905
-1010 -1521 -42 -232 -46 -558 -9 -844 l11 -87 -50 -77 c-230 -352 -190 -966
82 -1238 64 -64 141 -108 204 -116 l39 -5 6 -182 c14 -392 91 -705 257 -1041
198 -402 493 -737 863 -982 122 -81 321 -185 447 -234 l95 -38 3 -210 2 -211
-878 0 c-938 0 -956 -1 -1122 -50 -85 -25 -229 -96 -309 -153 -88 -62 -211
-186 -272 -274 -68 -99 -134 -242 -167 -360 l-27 -98 -3 -782 -3 -783 3611 0
3611 0 -3 783 -3 782 -27 98 c-122 444 -481 762 -933 827 -42 6 -418 10 -943
10 l-872 0 2 211 3 211 85 32 c112 44 304 141 412 209 388 245 703 596 908
1012 166 336 243 649 257 1043 6 182 6 182 29 182 40 0 127 38 176 77 302 241
371 905 133 1268 l-45 68 10 116 c18 205 16 602 -4 716 -75 437 -266 823 -585
1181 -446 500 -1066 819 -1791 919 -111 16 -578 28 -695 19z m576 -264 c678
-67 1251 -329 1694 -774 285 -286 476 -617 555 -959 19 -83 20 -121 20 -706 0
-583 -1 -620 -18 -641 l-18 -23 -38 33 c-38 34 -68 81 -181 290 -132 244 -206
358 -264 412 -91 83 -120 91 -371 108 -330 23 -659 74 -886 140 -60 17 -176
58 -259 91 -160 65 -234 80 -285 59 -16 -7 -30 -16 -30 -21 0 -14 117 -104
184 -141 296 -165 775 -265 1411 -296 l139 -7 58 -95 c99 -161 231 -397 328
-583 65 -124 105 -188 132 -212 75 -68 138 -43 199 80 32 67 80 245 100 374
15 98 21 90 44 -62 41 -279 -9 -625 -117 -809 -40 -70 -84 -114 -165 -169
-106 -72 -203 -179 -203 -224 0 -8 -4 -15 -10 -15 -6 0 -10 -29 -10 -66 0
-172 -31 -487 -57 -584 -47 -172 -189 -468 -346 -720 -110 -176 -134 -208
-247 -324 -187 -193 -288 -264 -577 -407 -249 -123 -293 -153 -359 -244 -16
-22 -33 -43 -39 -47 -11 -8 -20 -324 -10 -375 3 -19 10 -31 16 -28 5 4 9 2 9
-4 0 -14 47 -37 93 -45 l39 -7 -4 -217 c-5 -239 -13 -282 -73 -409 -43 -92
-84 -153 -154 -227 -100 -104 -209 -171 -361 -222 -77 -25 -98 -28 -235 -28
-168 0 -227 11 -353 70 -215 99 -375 283 -453 519 -20 62 -23 95 -27 290 l-4
220 64 20 c43 14 66 27 74 42 6 13 14 20 17 16 4 -3 7 75 7 175 0 115 -4 182
-10 182 -5 0 -10 6 -10 14 0 16 -80 117 -125 158 -16 15 -127 75 -245 133
-118 59 -237 123 -265 143 -147 106 -367 307 -431 393 -10 14 -52 70 -93 124
-265 350 -398 689 -456 1160 -8 66 -15 159 -15 207 0 52 -4 88 -10 88 -5 0
-10 6 -10 13 0 47 -59 115 -236 274 -78 70 -97 93 -132 165 -65 130 -102 336
-102 572 0 116 25 344 40 359 4 5 11 -11 15 -34 14 -80 76 -263 117 -341 66
-127 136 -186 193 -160 34 16 50 53 80 188 63 282 203 619 344 829 127 191
290 362 444 467 67 45 42 54 198 -73 128 -104 284 -214 404 -286 227 -137 385
-178 477 -125 58 34 90 145 70 250 -5 28 -7 52 -4 52 3 0 71 -64 151 -142 292
-285 528 -453 608 -433 40 10 57 48 50 114 -8 78 -58 232 -115 354 l-45 98
-24 -22 c-21 -21 -23 -31 -23 -121 0 -78 -3 -100 -15 -104 -8 -4 -15 -15 -15
-25 0 -10 -4 -19 -9 -19 -11 0 -97 69 -276 219 -66 56 -138 110 -161 121 -84
41 -148 18 -215 -79 -43 -62 -94 -111 -115 -111 -32 0 -172 53 -239 90 -71 39
-236 152 -430 292 -129 94 -186 115 -260 99 -88 -20 -169 -76 -311 -216 -148
-146 -215 -233 -316 -408 -123 -213 -131 -231 -274 -625 -18 -49 -49 -72 -69
-50 -7 7 -20 38 -29 70 -14 48 -16 130 -16 595 l0 539 29 119 c91 371 270 677
558 955 116 113 192 174 329 264 355 231 817 381 1312 425 132 12 536 12 653
1z m-1361 -7250 c0 -13 7 -20 20 -20 16 0 20 -7 20 -33 0 -48 35 -209 63 -292
115 -335 371 -573 721 -668 109 -29 354 -31 461 -3 421 110 701 430 771 879
12 80 22 117 31 117 7 0 13 9 13 21 l0 20 783 -4 c860 -4 838 -3 1007 -68 245
-94 445 -322 522 -594 22 -79 22 -90 26 -718 3 -636 3 -637 -18 -637 -11 0
-20 -7 -20 -15 0 -13 -39 -15 -290 -15 -187 0 -290 -4 -290 -10 0 -5 -20 -10
-44 -10 -24 0 -46 -3 -48 -7 -1 -5 -40 -27 -85 -51 l-83 -43 0 506 0 505 -140
0 -140 0 0 -504 0 -505 -76 40 c-42 21 -85 39 -95 39 -11 0 -19 5 -19 10 0 7
-687 10 -2040 10 -1122 0 -2040 -3 -2040 -7 0 -5 -21 -17 -48 -28 -26 -10 -63
-30 -82 -43 l-35 -24 -3 506 -2 506 -140 0 -140 0 0 -506 0 -506 -32 20 c-18
12 -53 31 -78 44 -25 13 -46 26 -48 31 -2 4 -12 7 -23 7 -10 0 -19 5 -19 10 0
6 -103 10 -290 10 -251 0 -290 2 -290 15 0 11 -11 15 -40 15 l-40 0 0 685 0
684 24 65 c114 314 395 531 746 575 36 5 395 9 798 10 726 1 732 1 732 -19z
M4150 6711 c-86 -28 -141 -74 -181 -151 -23 -43 -24 -54 -24 -255 0 -237 7
-267 79 -337 53 -52 101 -72 182 -76 90 -5 156 21 215 85 71 77 74 91 74 323
0 204 0 205 -28 262 -46 93 -128 148 -232 154 -33 2 -71 0 -85 -5z M6357 6706
c-101 -37 -167 -112 -188 -213 -17 -83 -8 -387 13 -435 25 -57 93 -123 150
-148 41 -18 65 -21 122 -18 113 6 195 59 240 157 19 42 21 63 21 256 0 208 0
210 -27 260 -31 60 -67 95 -128 125 -56 28 -151 36 -203 16z M4983 5170 c-66
-40 -86 -103 -54 -174 16 -37 29 -51 63 -66 40 -18 67 -20 338 -20 271 0 298
2 338 20 77 35 103 138 51 204 -43 55 -52 56 -391 56 -293 0 -315 -1 -345 -20z
M5254 4210 c-59 -19 -128 -73 -161 -129 -67 -112 -50 -243 44 -337 54 -54 105
-74 193 -74 89 0 139 20 195 75 56 56 80 116 79 200 0 110 -53 194 -158 247
-46 23 -144 33 -192 18z"/>
</g>
</svg>
