<?xml version="1.0" standalone="no"?>
<!DOCTYPE svg PUBLIC "-//W3C//DTD SVG 20010904//EN"
 "http://www.w3.org/TR/2001/REC-SVG-20010904/DTD/svg10.dtd">
<svg version="1.0" xmlns="http://www.w3.org/2000/svg"
 width="2048.000000pt" height="2048.000000pt" viewBox="0 0 2048.000000 2048.000000"
 preserveAspectRatio="xMidYMid meet">
<metadata>
Created by potrace 1.13, written by Peter Selinger 2001-2015
</metadata>
<g transform="translate(0.000000,2048.000000) scale(0.192120,-0.192120)"
fill="#000000" stroke="none">
<path d="M4965 10323 c-847 -41 -1366 -145 -1830 -367 -635 -304 -991 -808
-1099 -1556 -37 -255 -39 -342 -37 -1622 1 -1079 3 -1270 17 -1345 77 -442
324 -1011 628 -1446 86 -124 213 -285 284 -359 l54 -57 -80 -123 c-43 -68
-203 -314 -354 -548 -151 -234 -585 -904 -964 -1489 -379 -586 -690 -1069
-692 -1073 -2 -4 1995 -8 4438 -8 2443 0 4440 4 4438 8 -1 4 -313 487 -692
1073 -379 585 -813 1255 -964 1489 -151 234 -311 480 -354 548 l-80 123 54 57
c184 193 417 537 572 842 172 338 311 740 345 998 13 99 21 1839 10 2342 -10
504 -38 717 -129 1004 -171 532 -479 884 -995 1136 -446 218 -995 333 -1770
370 -189 9 -645 11 -800 3z m1055 -297 c678 -70 1107 -241 1435 -570 152 -153
235 -270 335 -471 188 -379 279 -794 311 -1410 27 -517 -21 -910 -161 -1335
-151 -459 -393 -860 -724 -1198 -186 -190 -366 -332 -612 -482 l-94 -57 36
-35 c68 -69 139 -59 306 43 147 90 356 256 453 360 59 63 125 143 125 152 0
24 98 208 198 369 151 246 218 366 302 542 152 317 267 661 315 947 14 82 16
167 12 595 -3 455 -5 511 -26 639 -81 515 -228 920 -447 1235 -37 52 -90 124
-119 160 -52 65 -90 128 -82 136 16 17 167 -81 298 -192 250 -213 410 -495
494 -869 55 -245 66 -357 74 -730 5 -192 13 -363 19 -380 5 -16 15 -49 21 -72
7 -24 34 -72 61 -108 28 -35 50 -73 50 -84 0 -33 -86 -318 -136 -451 -180
-478 -497 -1080 -840 -1594 -40 -61 -72 -112 -70 -114 7 -6 169 99 286 187
393 294 673 687 781 1096 23 91 23 53 -1 -115 -20 -140 -41 -246 -134 -660
-73 -324 -86 -366 -168 -560 -189 -444 -230 -530 -296 -631 -27 -41 -87 -130
-132 -199 -45 -69 -86 -127 -89 -130 -4 -3 -35 -43 -70 -90 -65 -87 -131 -213
-131 -250 0 -29 27 -91 51 -116 l20 -21 -72 -77 c-252 -270 -648 -539 -1024
-695 -680 -284 -1539 -316 -2255 -85 -320 103 -612 253 -885 455 -124 91 -299
243 -378 329 l-67 72 26 34 c65 85 39 168 -117 379 -141 191 -206 290 -288
440 -154 281 -252 508 -327 752 -50 166 -160 604 -202 813 -34 164 -67 393
-59 412 3 7 6 3 6 -10 2 -41 72 -245 120 -347 173 -367 488 -700 909 -960 24
-14 46 -25 48 -23 2 2 -30 53 -70 114 -207 310 -400 644 -570 984 -175 353
-285 621 -360 879 -56 191 -56 191 -8 254 85 110 102 200 102 552 0 588 98
1003 312 1325 71 107 245 288 351 366 120 89 217 140 217 114 0 -11 -67 -101
-140 -190 -218 -265 -399 -690 -489 -1150 -52 -265 -61 -387 -61 -821 0 -461
10 -566 76 -831 104 -413 264 -766 587 -1291 64 -104 132 -228 152 -277 43
-103 85 -156 220 -280 153 -141 322 -263 454 -330 127 -63 173 -64 235 -4 l37
36 -132 81 c-72 45 -188 125 -257 177 -150 111 -402 358 -520 507 -373 473
-603 1040 -672 1658 -47 424 0 1109 106 1529 73 290 205 594 341 786 88 123
273 308 393 392 337 238 773 364 1405 407 210 15 1023 6 1205 -13z m-3092
-6873 c49 -60 131 -152 182 -206 l92 -97 -693 -1178 c-602 -1024 -750 -1273
-765 -1291 -2 -2 -32 21 -66 51 -98 85 -104 88 -223 98 -109 8 -145 23 -145
58 0 16 49 109 103 197 17 28 323 502 681 1055 357 552 662 1033 679 1067 25
55 30 82 40 208 6 80 14 145 18 145 4 0 47 -48 97 -107z m4919 -33 c10 -128
14 -146 45 -208 19 -37 342 -542 718 -1122 621 -958 760 -1180 760 -1217 0
-25 -46 -41 -135 -46 -118 -8 -173 -28 -248 -92 -34 -29 -65 -51 -69 -48 -15
9 -78 113 -767 1286 l-693 1177 88 93 c48 50 130 143 182 205 53 61 99 112
102 112 3 0 11 -63 17 -140z m-4343 -278 c67 -44 157 -98 201 -122 44 -24 91
-51 105 -61 40 -27 282 -126 428 -175 508 -170 1095 -218 1637 -133 296 47
662 156 882 263 29 14 57 26 63 26 5 0 10 5 10 10 0 6 4 10 10 10 15 0 193
104 313 182 59 39 109 69 110 67 2 -4 14 -41 49 -159 19 -65 79 -181 214 -411
74 -127 134 -233 134 -235 0 -2 11 -22 25 -44 14 -22 40 -68 57 -103 17 -34
44 -78 59 -97 26 -34 639 -1071 679 -1149 23 -45 26 -81 8 -99 -18 -18 -158
-16 -158 2 0 8 -6 16 -12 19 -7 2 -19 24 -26 48 -50 165 -158 300 -303 381
-46 25 -96 59 -110 75 -35 38 -90 126 -139 223 -45 90 -50 134 -24 234 11 43
15 90 12 161 -5 115 -22 158 -105 262 -61 77 -123 123 -241 179 -89 43 -94 47
-139 117 -101 158 -118 180 -168 222 -123 105 -159 102 -447 -44 -75 -38 -139
-67 -142 -63 -3 3 -6 -1 -6 -8 0 -7 -3 -10 -7 -7 -3 4 -11 3 -17 -2 -11 -9
-203 -79 -237 -87 -10 -2 -28 -6 -39 -9 -11 -3 -29 -7 -40 -10 -93 -23 -131
-29 -310 -49 -303 -34 -955 -22 -1175 20 -16 3 -39 7 -50 9 -73 13 -96 18
-145 33 -30 9 -58 17 -62 18 -5 1 -10 3 -13 4 -3 1 -8 3 -12 4 -9 2 -88 31
-141 52 -18 7 -33 13 -35 12 -1 -1 -13 5 -27 12 -14 8 -27 15 -30 15 -3 1 -80
39 -172 85 -181 90 -235 104 -298 77 -56 -24 -158 -125 -214 -212 -79 -121
-109 -150 -205 -200 -138 -72 -236 -165 -296 -285 l-28 -55 7 -213 7 -213 -52
-99 c-70 -137 -124 -199 -223 -259 -142 -86 -259 -226 -305 -366 -7 -22 -23
-52 -36 -68 -21 -24 -31 -27 -84 -27 -78 0 -91 6 -91 41 0 32 42 108 341 614
100 171 198 337 217 370 19 33 50 83 67 110 98 152 122 192 129 210 8 21 77
143 239 419 159 272 226 429 227 529 0 15 3 27 7 27 3 0 61 -35 127 -78z m264
-421 c342 -212 788 -361 1227 -411 116 -13 554 -13 670 0 234 26 451 75 674
152 161 55 420 176 549 256 46 29 85 52 87 52 7 0 237 -452 232 -457 -3 -2
-47 14 -97 37 -148 66 -189 73 -339 60 -71 -6 -248 -26 -394 -45 -145 -19
-333 -40 -418 -47 -145 -12 -108 -13 616 -18 860 -6 801 0 887 -78 141 -127
109 -362 -63 -454 l-44 -23 -2025 0 -2025 0 -44 23 c-172 92 -204 327 -63 454
86 78 27 72 887 78 424 3 749 6 724 8 -75 3 -313 30 -604 66 -466 59 -475 59
-647 -20 -54 -25 -102 -44 -105 -41 -5 5 224 457 232 457 2 0 39 -22 83 -49z
m-474 -1074 l40 -32 1975 -3 c1960 -2 1974 -2 2016 18 52 25 86 61 123 129
l30 53 55 -98 c78 -141 253 -477 261 -502 5 -16 18 -22 54 -27 111 -15 193
-72 235 -163 33 -72 30 -171 -8 -240 -16 -30 -40 -62 -53 -73 -24 -19 -24 -18
-86 24 -33 24 -74 50 -91 58 -26 12 -371 14 -2490 17 -1667 1 -2476 -1 -2510
-8 -34 -7 -71 -26 -115 -60 -76 -57 -85 -55 -137 30 -87 144 -26 325 134 398
36 16 200 17 2553 22 l2515 5 -95 41 c-52 23 -111 47 -130 55 -30 12 -376 14
-2250 14 l-2215 0 -105 -48 c-143 -66 -144 -67 -128 -31 18 43 192 374 256
488 l55 99 35 -67 c21 -40 51 -80 76 -99z M4300 8929 c-509 -23 -815 -81 -893
-167 -17 -18 -18 -43 -17 -287 1 -306 0 -304 84 -390 231 -235 846 -454 1436
-510 36 -3 82 -8 103 -11 l37 -6 0 691 0 691 -292 -2 c-161 0 -367 -4 -458 -9z
m520 -674 c0 -379 -2 -455 -14 -455 -34 0 -264 44 -391 75 -339 82 -633 207
-769 326 l-46 41 2 187 3 186 110 22 c192 39 569 66 978 71 l127 2 0 -455z
M5610 8249 l0 -690 43 5 c23 3 87 11 142 16 576 61 1165 275 1391 505 84 86
83 84 84 390 1 302 5 287 -81 330 -164 84 -667 135 -1326 135 l-253 0 0 -691z
m875 440 c199 -12 388 -34 483 -56 l72 -17 0 -193 0 -194 -26 -24 c-117 -109
-406 -235 -728 -320 -120 -32 -400 -85 -447 -85 -18 0 -19 13 -19 456 l0 457
253 -7 c138 -4 324 -11 412 -17z M5135 5044 c-16 -2 -70 -9 -120 -15 -183 -22
-412 -92 -577 -175 -139 -70 -294 -188 -349 -265 l-21 -29 142 -69 c493 -241
1017 -320 1537 -231 258 44 483 119 731 244 l113 57 -20 27 c-10 15 -41 48
-68 73 -192 180 -475 305 -823 364 -90 16 -474 29 -545 19z m433 -245 c207
-22 419 -82 584 -165 144 -72 142 -104 -12 -169 -89 -38 -353 -102 -495 -122
-148 -20 -461 -22 -600 -5 -193 25 -446 89 -565 144 -111 50 -103 90 32 156
159 77 378 139 563 160 114 13 379 14 493 1z"/>
</g>
</svg>
