<?xml version="1.0" standalone="no"?>
<!DOCTYPE svg PUBLIC "-//W3C//DTD SVG 20010904//EN"
 "http://www.w3.org/TR/2001/REC-SVG-20010904/DTD/svg10.dtd">
<svg version="1.0" xmlns="http://www.w3.org/2000/svg"
 width="2048.000000pt" height="2048.000000pt" viewBox="0 0 2048.000000 2048.000000"
 preserveAspectRatio="xMidYMid meet">
<metadata>
Created by potrace 1.13, written by Peter Selinger 2001-2015
</metadata>
<g transform="translate(0.000000,2048.000000) scale(0.192120,-0.192120)"
fill="#000000" stroke="none">
<path d="M5065 10323 c-708 -42 -1346 -211 -1965 -519 -1293 -644 -2245 -1819
-2610 -3219 -264 -1014 -198 -2105 187 -3085 82 -210 246 -544 358 -730 721
-1197 1888 -2037 3230 -2325 677 -145 1368 -152 2035 -19 808 160 1522 494
2161 1009 1359 1094 2046 2796 1828 4529 -167 1328 -872 2542 -1949 3358 -257
194 -504 345 -805 493 -603 297 -1215 460 -1890 505 -137 9 -457 11 -580 3z
m515 -303 c548 -31 1033 -135 1520 -327 1192 -470 2144 -1399 2615 -2553 133
-327 220 -636 285 -1018 l30 -173 0 -616 c0 -660 1 -642 -56 -938 -76 -394
-228 -844 -402 -1191 -109 -217 -310 -540 -458 -735 -281 -372 -647 -725
-1019 -985 -139 -96 -182 -107 -222 -55 -27 35 -110 184 -328 585 -265 489
-299 557 -290 585 3 11 33 35 65 52 81 43 179 126 235 199 53 69 155 228 155
242 0 5 14 29 31 54 22 33 48 53 98 78 230 116 391 347 441 632 6 39 10 433
10 1140 1 916 3 1083 15 1104 12 21 14 161 14 905 1 985 5 921 -73 1110 -50
119 -85 180 -172 295 -225 297 -519 471 -859 510 -123 14 -3647 14 -3770 0
-422 -48 -810 -331 -1006 -735 -32 -66 -70 -160 -84 -209 l-25 -88 0 -880 c0
-768 2 -881 15 -894 13 -14 15 -151 15 -1114 0 -738 4 -1116 11 -1152 29 -146
73 -252 148 -358 88 -125 168 -196 291 -261 74 -39 77 -41 126 -129 125 -224
239 -354 375 -431 84 -47 92 -56 85 -93 -8 -41 -12 -49 -305 -591 -310 -574
-317 -585 -372 -585 -35 0 -216 120 -383 254 -382 306 -720 675 -979 1071
-389 597 -626 1225 -727 1933 -18 130 -20 193 -20 675 0 476 2 547 20 672 113
796 399 1495 870 2123 580 775 1386 1351 2319 1658 562 185 1173 266 1761 234z
m1775 -1388 c99 -28 249 -99 329 -156 34 -24 95 -79 137 -122 127 -132 206
-271 257 -454 l27 -95 3 -1963 c3 -2178 7 -2027 -64 -2163 -86 -163 -247 -269
-446 -294 -45 -6 -48 -8 -48 -35 0 -55 -22 -135 -57 -210 -42 -88 -146 -198
-230 -243 -109 -59 -174 -67 -515 -67 l-308 0 0 -72 c1 -41 8 -91 16 -113 9
-22 18 -50 21 -61 3 -16 15 -23 41 -28 50 -8 421 -6 451 3 25 7 25 7 -12 37
-53 43 -58 81 -17 128 18 20 36 36 41 36 5 0 9 -29 9 -65 0 -47 6 -78 21 -108
12 -23 191 -355 399 -737 207 -382 387 -715 400 -739 l22 -44 -106 6 c-214 12
-323 -42 -432 -214 l-57 -92 -29 58 c-34 66 -737 1625 -837 1853 l-66 152
-975 0 -975 0 -66 -152 c-100 -229 -803 -1787 -837 -1854 l-29 -57 -43 72
c-66 110 -117 162 -202 202 -73 34 -73 34 -207 31 -126 -2 -133 -1 -128 17 2
10 180 342 394 737 215 396 400 738 412 761 15 30 21 61 21 108 0 36 4 65 9
65 11 0 81 -77 81 -89 0 -12 -41 -63 -70 -86 l-24 -20 29 -6 c39 -9 399 -11
448 -3 25 5 37 12 37 23 0 9 7 30 16 46 10 18 18 66 21 117 l6 88 -310 0
c-276 0 -318 2 -387 20 -102 26 -176 69 -257 149 -93 92 -159 239 -159 351 0
27 -3 29 -47 35 -199 25 -362 132 -447 294 -71 136 -67 -15 -64 2163 l3 1963
27 95 c51 183 130 322 257 454 118 122 247 204 402 256 147 50 67 48 2114 47
l1920 -2 80 -23z m-1159 -6098 c20 -15 51 -73 112 -210 46 -104 191 -427 322
-719 131 -291 248 -554 259 -583 21 -53 27 -117 13 -139 -10 -16 -194 -75
-385 -123 -800 -202 -1659 -195 -2449 20 -321 87 -345 100 -326 183 5 23 146
345 312 717 167 371 316 704 332 740 15 36 35 76 43 89 33 52 14 51 908 48
824 -2 832 -2 859 -23z M3570 8100 c-167 -29 -325 -145 -399 -294 -62 -124
-61 -109 -61 -913 l0 -733 -270 -2 -270 -3 37 -47 c44 -54 136 -118 169 -118
13 0 24 -4 24 -10 0 -6 30 -10 70 -10 40 0 70 4 70 10 0 6 9 10 20 10 23 0 30
5 96 66 41 38 45 40 49 20 3 -11 6 -147 7 -301 3 -274 4 -282 29 -352 61 -166
193 -291 369 -350 52 -17 139 -18 1765 -21 1102 -2 1737 1 1786 7 237 31 420
195 474 425 11 45 15 129 15 323 0 144 2 268 5 275 4 9 23 -3 60 -39 30 -29
61 -53 70 -53 8 0 15 -4 15 -10 0 -6 37 -10 90 -10 53 0 90 4 90 10 0 6 8 10
18 10 26 0 111 65 155 119 l37 46 -270 3 -270 2 0 733 c0 807 1 789 -63 917
-37 75 -129 173 -201 215 -27 16 -78 40 -115 54 l-66 26 -1745 1 c-960 1
-1765 -2 -1790 -6z m2288 -155 c35 -68 36 -160 3 -227 -20 -43 -102 -128 -122
-128 -4 0 -36 17 -71 37 l-63 38 -242 3 c-270 4 -321 -2 -389 -48 -41 -29 -45
-30 -72 -16 -37 19 -90 80 -110 125 -20 47 -19 155 1 202 20 45 64 99 81 99 7
0 31 -13 53 -29 94 -68 81 -66 388 -66 311 0 326 2 421 70 l48 35 24 -23 c13
-12 36 -44 50 -72z m-1593 -124 l310 -7 -282 -2 c-156 -1 -283 -6 -283 -11 0
-4 -24 -11 -52 -14 -120 -12 -225 -69 -329 -178 -37 -38 -83 -100 -103 -138
l-36 -69 0 -818 0 -819 30 -63 c57 -120 142 -218 236 -272 107 -62 44 -60
1569 -60 1514 0 1475 -1 1573 56 103 61 210 195 251 315 21 62 21 73 21 850
l0 788 -34 73 c-29 63 -94 150 -156 210 -66 63 -186 116 -282 125 -32 3 -58
10 -58 14 0 5 -129 10 -287 11 l-288 2 350 9 c550 15 608 14 691 -11 85 -26
153 -81 186 -150 l23 -47 3 -684 c2 -561 5 -686 16 -695 8 -6 16 -30 19 -53 3
-23 12 -50 21 -58 14 -14 16 -56 16 -338 0 -363 0 -360 -78 -448 -53 -59 -120
-102 -197 -126 -57 -17 -141 -18 -1785 -18 -1883 0 -1765 -4 -1883 58 -66 34
-145 115 -176 180 -20 41 -21 59 -21 331 0 274 1 290 22 339 12 29 26 54 30
55 4 2 8 21 8 43 0 21 5 39 10 39 7 0 10 229 10 668 0 650 1 670 21 730 24 71
72 121 154 158 75 35 150 44 310 37 77 -3 280 -8 450 -12z m2580 -298 c50 -27
96 -75 126 -133 l24 -45 0 -765 0 -765 -27 -51 c-28 -53 -76 -101 -131 -131
-30 -17 -115 -18 -1507 -18 -1392 0 -1477 1 -1507 18 -55 30 -103 78 -131 131
l-27 51 0 765 c0 711 1 768 18 803 34 73 104 135 177 158 14 4 682 7 1485 6
l1460 -2 40 -22z M3223 4669 c-34 -4 -78 -15 -97 -24 -46 -22 -155 -131 -173
-172 -19 -46 -19 -460 1 -506 11 -27 65 -83 163 -169 43 -37 80 -41 468 -45
441 -6 563 2 630 41 50 30 153 140 161 173 4 13 10 23 15 23 5 0 9 102 9 230
0 128 -4 230 -9 230 -5 0 -11 10 -15 23 -7 30 -108 131 -163 163 -30 18 -66
28 -130 34 -106 12 -773 11 -860 -1z m997 -449 l0 -280 -555 0 -555 0 0 280 0
280 555 0 555 0 0 -280z M6557 4669 c-42 -4 -83 -17 -110 -32 -52 -31 -177
-152 -177 -172 0 -8 -4 -15 -10 -15 -6 0 -10 -83 -10 -230 0 -147 4 -230 10
-230 6 0 10 -6 10 -14 0 -22 128 -154 176 -182 66 -39 178 -46 619 -41 385 4
453 10 472 40 5 7 26 25 47 41 56 42 116 107 122 134 4 12 10 22 15 22 5 0 9
102 9 230 0 128 -4 230 -9 230 -5 0 -12 11 -15 25 -8 32 -124 147 -170 169
-20 9 -73 21 -118 26 -98 12 -763 11 -861 -1z m993 -449 l0 -280 -555 0 -555
0 0 280 0 280 555 0 555 0 0 -280z M3253 3530 c-72 -15 -96 -38 -118 -117 l-6
-23 2201 0 2200 0 -6 28 c-11 47 -37 81 -74 99 -33 17 -148 18 -2095 19 -1133
1 -2079 -2 -2102 -6z"/>
</g>
</svg>
