<?xml version="1.0" standalone="no"?>
<!DOCTYPE svg PUBLIC "-//W3C//DTD SVG 20010904//EN"
 "http://www.w3.org/TR/2001/REC-SVG-20010904/DTD/svg10.dtd">
<svg version="1.0" xmlns="http://www.w3.org/2000/svg"
 width="2048.000000pt" height="2048.000000pt" viewBox="0 0 2048.000000 2048.000000"
 preserveAspectRatio="xMidYMid meet">
<metadata>
Created by potrace 1.13, written by Peter Selinger 2001-2015
</metadata>
<g transform="translate(0.000000,2048.000000) scale(0.192120,-0.192120)"
fill="#000000" stroke="none">
<path d="M10120 8103 c-1570 -31 -3079 -209 -4266 -503 l-201 -50 -204 -4
c-1165 -22 -2269 -506 -3214 -1409 -352 -335 -631 -653 -933 -1062 -60 -82
-128 -170 -149 -194 -339 -385 -544 -676 -752 -1073 l-71 -135 0 -244 0 -244
30 45 c16 24 32 57 35 72 4 15 11 30 16 33 12 8 12 145 -1 145 -5 0 -10 9 -10
20 0 11 -11 49 -25 86 -14 36 -25 68 -25 69 0 2 235 3 523 2 514 0 732 7 1077
39 1117 102 2049 417 2845 963 384 262 540 360 824 511 982 524 2291 916 3761
1124 255 37 633 81 780 91 47 3 104 8 128 11 l42 5 0 855 0 854 -42 -2 c-24
-1 -99 -3 -168 -5z m-40 -331 l0 -78 -162 -12 c-90 -6 -170 -11 -178 -11 -27
2 -453 -31 -605 -47 -339 -34 -777 -97 -1075 -154 -91 -17 -239 -44 -330 -60
-573 -100 -1186 -241 -1717 -394 -371 -107 -595 -187 -768 -273 -146 -72 -488
-263 -482 -269 2 -2 77 26 168 62 1355 538 3087 899 4764 994 198 11 532 16
540 8 3 -3 -8 -31 -25 -63 -16 -31 -30 -66 -30 -76 0 -10 -4 -19 -10 -19 -6 0
-10 -128 -10 -365 0 -237 -4 -365 -10 -365 -5 0 -10 -18 -10 -40 0 -34 -4 -41
-25 -46 -14 -3 -25 -12 -25 -19 0 -8 -20 -15 -52 -19 -744 -86 -1041 -131
-1593 -241 -815 -164 -1602 -402 -2270 -687 -423 -181 -923 -453 -1508 -821
-359 -226 -616 -361 -932 -487 -451 -180 -983 -316 -1470 -375 -381 -47 -921
-77 -1299 -73 -316 3 -313 3 -287 75 28 79 228 366 419 603 137 168 147 190
147 313 l0 98 35 9 c19 5 141 34 270 64 605 142 847 224 1226 417 1359 692
2388 1436 2761 1997 34 50 59 79 66 75 7 -3 28 -19 49 -35 89 -69 195 -71 468
-9 487 110 1170 224 1770 295 273 32 290 33 320 14 20 -13 39 -14 100 -7 380
43 1218 92 1643 97 l127 2 0 -78z m-5040 -552 c25 -16 -14 -73 -115 -165 -234
-216 -543 -441 -978 -714 -502 -314 -1246 -719 -1552 -844 -171 -69 -460 -159
-495 -154 -58 9 -46 38 68 165 488 548 1066 1004 1629 1286 381 190 837 340
1238 405 66 11 131 22 145 24 42 7 44 7 60 -3z M1990 4880 c-309 -32 -426 -81
-572 -239 -67 -73 -160 -228 -184 -307 -31 -105 -8 -192 73 -270 33 -32 58
-46 109 -60 61 -16 81 -17 218 -6 160 12 394 56 523 98 139 45 292 126 360
191 77 75 143 203 143 279 0 128 -120 259 -275 300 -65 18 -286 25 -395 14z
m178 -120 c236 -26 382 -99 382 -192 0 -33 -45 -99 -95 -138 -124 -99 -409
-196 -692 -234 -124 -17 -412 -32 -437 -23 -13 5 -11 15 15 74 67 150 170 302
297 437 l62 67 93 8 c136 12 265 12 375 1z M10293 6310 c-18 -36 -33 -75 -33
-87 0 -13 -4 -23 -10 -23 -6 0 -10 -28 -10 -65 0 -37 4 -65 10 -65 6 0 10 -8
10 -17 0 -10 15 -43 33 -73 l32 -55 3 113 c1 61 1 163 0 225 l-3 112 -32 -65z
M10014 5815 c-1610 -187 -3007 -565 -4049 -1096 -251 -128 -415 -224 -658
-387 -120 -81 -282 -188 -360 -238 -666 -428 -1477 -729 -2352 -873 -561 -92
-1064 -125 -1818 -119 l-447 3 0 -108 0 -108 40 -60 c59 -86 152 -182 261
-269 275 -220 731 -418 1230 -534 l139 -32 -26 -37 c-13 -20 -164 -270 -335
-554 l-311 -518 -499 4 -499 3 0 -281 0 -281 5000 0 5000 0 0 2760 c0 2622 -1
2760 -17 2759 -10 -1 -144 -16 -299 -34z m46 -235 c0 -13 7 -20 20 -20 20 0
20 -7 20 -1375 0 -910 3 -1375 10 -1375 6 0 10 -20 10 -45 0 -25 5 -45 10 -45
6 0 10 -6 10 -13 0 -8 18 -42 41 -77 31 -49 37 -65 27 -71 -16 -10 -9286 -11
-9342 -1 -36 7 -39 10 -61 69 -12 34 -39 90 -59 124 -20 34 -35 68 -32 76 3 8
22 13 51 13 38 0 45 3 45 20 0 19 7 20 218 20 1593 0 2885 323 3962 991 69 42
242 155 385 251 352 235 631 389 1020 563 912 409 2212 742 3490 894 88 10
163 19 168 20 4 1 7 -8 7 -19z m-20 -3315 l0 -95 -3952 2 -3953 3 -55 24 c-30
14 -71 35 -91 47 -20 13 -58 33 -83 45 -48 22 -62 53 -28 62 9 3 1850 5 4090
6 l4072 1 0 -95z m175 -277 c4 -4 -2 -22 -14 -40 -11 -18 -30 -53 -42 -78 -12
-25 -26 -53 -30 -62 -12 -23 -12 -128 0 -128 5 0 12 -12 15 -26 4 -14 36 -64
72 -112 47 -62 61 -88 52 -94 -7 -4 -1246 -8 -2754 -8 l-2740 0 -276 -413
-276 -412 3028 -5 c1666 -3 3032 -8 3036 -13 13 -13 -51 -81 -102 -107 l-49
-25 -2925 0 c-2863 0 -2927 0 -3000 19 -72 19 -133 20 -1535 26 l-1460 6 -95
27 c-87 24 -110 27 -277 27 l-183 0 0 45 0 45 182 0 c199 0 183 -4 339 76 37
19 70 34 74 34 4 0 -2 -15 -12 -32 -11 -18 -32 -54 -47 -80 l-28 -48 1503 0
1503 0 -55 41 c-30 22 -63 46 -74 52 -15 9 -339 13 -1268 17 -1371 5 -1274 1
-1261 65 7 32 21 57 72 123 50 67 455 750 482 812 34 82 32 156 -8 219 l-30
50 31 4 c57 7 8145 2 8152 -5z m-195 -968 l0 -160 -2653 0 c-2209 0 -2656 2
-2672 13 -15 12 -16 19 -7 45 23 67 134 211 187 244 29 17 127 18 2588 18
l2557 0 0 -160z"/>
</g>
</svg>
