<?xml version="1.0" standalone="no"?>
<!DOCTYPE svg PUBLIC "-//W3C//DTD SVG 20010904//EN"
 "http://www.w3.org/TR/2001/REC-SVG-20010904/DTD/svg10.dtd">
<svg version="1.0" xmlns="http://www.w3.org/2000/svg"
 width="2048.000000pt" height="2048.000000pt" viewBox="0 0 2048.000000 2048.000000"
 preserveAspectRatio="xMidYMid meet">
<metadata>
Created by potrace 1.13, written by Peter Selinger 2001-2015
</metadata>
<g transform="translate(0.000000,2048.000000) scale(0.192120,-0.192120)"
fill="#000000" stroke="none">
<path d="M4365 10323 c-448 -56 -819 -378 -941 -814 -35 -127 -45 -360 -20
-492 75 -397 383 -748 750 -853 l66 -19 0 -3352 0 -3353 -418 0 -417 0 -138
-138 -137 -137 0 -144 0 -144 -136 8 -137 7 -143 -143 -144 -144 0 -137 0
-138 1945 0 1945 0 0 138 0 139 -141 139 -140 139 -137 0 -137 0 0 137 0 137
-139 140 -139 141 -419 0 -418 0 0 1530 0 1530 280 0 280 0 0 275 0 275 -280
0 -280 0 2 556 3 557 278 -2 277 -2 0 280 0 281 1508 0 c843 0 1513 -4 1521
-9 11 -7 0 -28 -48 -98 -33 -50 -61 -95 -61 -101 0 -5 -6 -12 -12 -14 -10 -4
-14 -288 -16 -1365 -2 -1190 -4 -1362 -17 -1373 -9 -7 -15 -29 -15 -51 0 -28
-6 -42 -20 -51 -11 -7 -20 -18 -20 -25 0 -19 -26 -29 -135 -52 -55 -12 -122
-29 -150 -38 -78 -26 -748 -31 -855 -8 -126 28 -178 29 -273 5 -83 -20 -104
-21 -465 -18 -352 4 -381 5 -442 25 -36 12 -85 24 -110 28 -127 19 -180 49
-180 101 0 20 -7 42 -15 50 -13 13 -15 65 -15 340 0 209 -4 324 -10 324 -5 0
-10 5 -10 10 0 30 -55 64 -118 75 l-43 7 3 -449 3 -448 30 -54 c31 -56 88
-106 148 -128 24 -8 367 -12 1347 -12 l1315 -1 50 24 c62 29 107 76 137 141
l23 50 0 2005 0 2005 -28 57 c-16 32 -47 73 -69 92 -82 71 10 67 -1449 64
l-1314 -3 -40 -22 c-47 -25 -105 -84 -131 -133 -18 -32 -19 -69 -22 -492 l-3
-458 -279 0 -280 0 2 711 3 711 80 27 c282 96 526 315 650 584 159 344 130
752 -77 1069 -209 321 -569 513 -946 507 -48 -1 -100 -4 -117 -6z m320 -305
c61 -12 145 -47 145 -59 0 -27 -64 -33 -335 -33 -204 0 -288 4 -310 13 l-30
13 24 19 c72 58 334 83 506 47z m366 -798 l0 -555 -556 -3 -555 -2 0 560 0
560 555 -2 556 -3 0 -555z m-1281 4 c0 -336 -3 -425 -12 -422 -7 2 -31 39 -53
83 l-40 79 -3 249 -3 249 42 86 c35 74 53 101 67 102 1 0 2 -192 2 -426z
m1487 387 c12 -18 31 -57 43 -87 18 -50 20 -78 20 -297 0 -263 -6 -302 -57
-383 -16 -24 -32 -42 -38 -41 -6 2 -11 156 -13 426 -2 452 -2 452 45 382z
m-428 -1120 c12 -8 6 -18 -30 -54 -99 -97 -235 -177 -304 -177 -51 0 -140 44
-227 113 -102 80 -126 106 -107 118 19 12 650 11 668 0z m-169 -382 c0 -3 -8
-13 -18 -22 -10 -10 -29 -41 -41 -70 -13 -28 -27 -60 -32 -69 -11 -21 -12
-1225 -1 -1230 4 -1 17 -23 30 -48 26 -53 86 -120 160 -179 28 -24 52 -48 52
-54 0 -7 -47 -56 -105 -110 -66 -62 -108 -110 -116 -132 -7 -19 -17 -35 -21
-35 -10 0 -11 -1107 0 -1112 4 -1 18 -24 31 -50 20 -41 103 -128 184 -195 15
-12 27 -26 27 -31 0 -6 -50 -59 -110 -118 -61 -60 -113 -119 -116 -131 -4 -13
-10 -23 -15 -23 -11 0 -12 -3057 -1 -3062 4 -2 18 -24 31 -50 32 -64 133 -162
201 -196 l55 -27 325 -5 c365 -6 358 -5 431 -83 33 -36 39 -48 39 -89 0 -26 5
-50 10 -53 6 -3 10 -17 10 -31 0 -13 4 -24 8 -24 4 0 14 -16 21 -36 7 -21 49
-73 97 -122 46 -47 84 -92 84 -99 0 -6 -17 -17 -37 -22 -53 -15 -2643 -15
-2695 0 -21 5 -38 15 -38 22 0 7 33 45 74 85 41 40 85 94 97 120 13 26 27 49
32 50 4 2 7 15 7 28 0 13 5 24 10 24 6 0 10 24 10 54 0 47 4 59 33 91 17 20
50 47 72 58 38 21 58 22 365 28 226 4 336 10 360 19 58 21 138 88 186 153 24
34 50 69 56 77 18 20 19 6567 2 6578 -6 4 -21 25 -32 48 -11 22 -28 46 -36 53
-9 8 -16 16 -16 20 0 3 74 6 165 6 91 0 165 -3 165 -6z m3170 -836 l0 -278
-972 2 -973 2 -3 276 -2 275 975 0 975 0 0 -277z m-2070 -17 l0 -283 -31 -7
c-17 -3 -53 -6 -80 -6 l-49 0 0 284 0 285 23 4 c12 2 48 5 80 6 l57 1 0 -284z
m2318 278 l22 -6 0 -284 0 -284 -44 0 c-24 0 -58 3 -75 6 l-31 7 0 283 0 284
53 0 c28 0 62 -3 75 -6z M5888 6331 c-1 -199 -2 -379 -3 -402 l0 -41 418 -2
417 -1 0 390 c0 215 -4 396 -9 404 -13 20 -151 -120 -151 -154 0 -8 -7 -15
-15 -15 -13 0 -15 -25 -15 -165 0 -158 -1 -165 -20 -165 -17 0 -20 -7 -20 -45
l0 -45 -200 0 -200 0 0 45 c0 33 -4 45 -15 45 -13 0 -15 25 -15 165 0 103 -4
165 -10 165 -5 0 -10 7 -10 15 0 9 -5 21 -10 28 -6 7 -25 32 -44 57 -18 25
-48 53 -65 63 l-31 18 -2 -360z M7000 6296 c0 -218 0 -399 0 -402 0 -3 187 -7
415 -8 l415 -1 0 403 c0 271 -3 402 -10 402 -10 0 -110 -97 -137 -133 -7 -9
-13 -23 -13 -32 0 -8 -7 -15 -15 -15 -13 0 -15 -25 -15 -165 0 -158 -1 -165
-20 -165 -17 0 -20 -7 -20 -45 l0 -45 -200 0 -200 0 0 45 c0 33 -4 45 -15 45
-13 0 -15 25 -15 165 0 103 -4 165 -10 165 -5 0 -10 7 -10 15 0 9 -5 21 -10
28 -6 7 -25 32 -44 57 -18 25 -48 53 -65 63 l-31 18 0 -395z M5330 5607 l0
-540 36 6 c51 9 93 29 100 49 3 10 10 18 15 18 5 0 9 182 9 460 0 263 -4 460
-9 460 -5 0 -11 10 -15 23 -6 26 -41 46 -98 57 l-38 7 0 -540z M5887 5193 l1
-418 416 -3 416 -2 0 420 0 420 -417 0 -418 0 2 -417z m603 -13 l0 -200 -200
0 -200 0 0 200 0 200 200 0 200 0 0 -200z M7000 5605 c0 -3 0 -191 0 -417 l0
-413 415 -3 415 -2 0 420 0 420 -415 0 c-228 0 -415 -2 -415 -5z m600 -425 l0
-200 -200 0 -200 0 0 200 0 200 200 0 200 0 0 -200z M5889 4498 c0 -2 -1 -191
-2 -421 l-2 -417 418 0 417 0 0 420 0 420 -415 0 c-228 0 -415 -1 -416 -2z
m601 -428 l0 -200 -200 0 -200 0 0 200 0 200 200 0 200 0 0 -200z M7000 4498
c0 -2 0 -190 -1 -418 l0 -415 416 -3 415 -2 0 420 0 420 -415 0 c-228 0 -415
-1 -415 -2z m610 -428 l0 -200 -205 0 -205 0 0 200 0 200 205 0 205 0 0 -200z"/>
</g>
</svg>
