<?xml version="1.0" standalone="no"?>
<!DOCTYPE svg PUBLIC "-//W3C//DTD SVG 20010904//EN"
 "http://www.w3.org/TR/2001/REC-SVG-20010904/DTD/svg10.dtd">
<svg version="1.0" xmlns="http://www.w3.org/2000/svg"
 width="2048.000000pt" height="2048.000000pt" viewBox="0 0 2048.000000 2048.000000"
 preserveAspectRatio="xMidYMid meet">
<metadata>
Created by potrace 1.13, written by Peter Selinger 2001-2015
</metadata>
<g transform="translate(0.000000,2048.000000) scale(0.192120,-0.192120)"
fill="#000000" stroke="none">
<path d="M1590 9763 c-474 -22 -943 -98 -1100 -178 -378 -192 529 -382 1730
-362 536 9 921 46 1200 113 l105 26 53 -36 c29 -19 77 -43 107 -52 l55 -18 0
-442 0 -441 -82 -8 c-306 -26 -728 -136 -1042 -270 -477 -204 -877 -474 -1236
-834 -491 -493 -793 -1065 -886 -1676 -24 -161 -25 -533 0 -720 103 -792 454
-1362 1082 -1756 257 -162 620 -311 947 -390 l97 -23 2 -333 c1 -183 2 -340 2
-349 1 -14 -76 -15 -744 -17 -742 -2 -745 -2 -811 -24 -246 -84 -407 -325
-386 -579 20 -228 180 -421 406 -488 50 -15 313 -16 2921 -16 3163 0 2916 -5
3044 63 314 167 387 596 146 860 -64 70 -143 123 -234 156 l-71 26 -748 0
-747 0 0 366 0 366 68 18 c37 9 126 39 197 66 799 295 1320 850 1550 1648 125
436 164 1013 95 1418 -18 103 -51 248 -66 286 -4 11 12 19 73 32 726 158 1583
470 1977 719 49 31 90 55 91 54 1 -2 26 -43 55 -93 163 -272 430 -541 601
-606 365 -139 242 457 -200 968 l-71 83 29 57 c51 102 54 138 47 572 -11 615
-27 892 -68 1141 -41 253 -106 389 -194 406 -126 24 -364 -256 -654 -769 l-72
-128 -70 67 c-76 72 -178 141 -246 167 -55 22 -131 22 -161 1 -94 -66 -52
-322 94 -579 25 -43 44 -80 42 -82 -2 -1 -41 4 -88 12 -187 33 -618 81 -989
110 -720 55 -1575 84 -2532 86 l-618 0 0 437 0 437 48 17 c26 10 74 34 107 54
l60 36 80 -20 c271 -70 678 -110 1220 -119 1024 -17 1879 121 1814 294 -37 98
-405 185 -994 235 -243 21 -1150 17 -1395 -5 -314 -29 -554 -66 -675 -104
l-50 -15 -52 35 c-108 72 -249 107 -437 107 -189 0 -329 -33 -444 -106 l-52
-34 -73 20 c-170 47 -496 89 -852 110 -152 9 -836 11 -1005 3z m1885 -193
c-20 -38 -19 -113 1 -152 l16 -30 -42 24 c-97 59 -111 90 -57 130 27 21 85 56
95 58 1 0 -4 -13 -13 -30z m1170 -34 c40 -32 29 -63 -38 -104 -29 -17 -56 -32
-59 -32 -4 0 0 16 8 35 18 43 18 93 -1 125 -8 14 -14 29 -15 33 0 10 67 -27
105 -57z m-2100 14 c154 -10 313 -32 336 -46 19 -11 -47 -33 -134 -44 -329
-41 -1001 -41 -1359 0 -86 10 -159 32 -141 43 20 12 186 37 303 45 179 13 807
14 995 2z m3890 0 c145 -10 316 -34 339 -47 16 -10 -50 -31 -135 -42 -261 -33
-960 -40 -1269 -12 -121 11 -243 38 -235 51 9 14 185 41 320 49 198 12 800 12
980 1z m-2360 -85 c0 -12 -78 -19 -112 -10 -13 3 -21 10 -18 16 9 13 130 7
130 -6z m-70 -244 c92 -1 212 11 260 25 14 5 8 -6 -21 -37 -22 -24 -56 -64
-75 -89 -18 -25 -37 -46 -41 -48 -4 -2 -10 -19 -14 -38 -3 -19 -12 -34 -20
-34 -12 0 -14 -39 -14 -220 0 -213 -1 -220 -20 -220 -17 0 -20 -7 -20 -40 0
-36 -2 -40 -25 -40 -22 0 -25 4 -25 40 0 36 -2 40 -25 40 l-25 0 0 220 c0 181
-2 220 -14 220 -8 0 -16 14 -20 33 -6 34 -16 49 -102 152 l-52 61 77 -12 c42
-7 121 -13 176 -13z m5547 -81 c22 -45 43 -173 63 -374 9 -88 21 -168 26 -178
6 -12 13 -132 15 -291 4 -273 14 -409 40 -566 15 -87 18 -239 8 -303 -6 -36
-7 -36 -29 -22 -22 14 -23 14 -29 -13 -11 -51 -9 -158 4 -197 16 -50 39 -89
141 -236 108 -155 156 -243 165 -297 10 -62 -13 -66 -76 -13 -52 44 -154 162
-209 243 -57 84 -143 164 -207 192 -62 28 -146 56 -151 51 -2 -1 4 -22 12 -46
8 -23 15 -44 15 -46 0 -2 -27 -4 -60 -4 -64 0 -142 -23 -265 -80 -492 -225
-886 -362 -1540 -536 -169 -44 -202 -60 -277 -131 -103 -99 -115 -156 -78
-373 18 -101 20 -161 20 -509 0 -414 -6 -495 -52 -701 -18 -82 -60 -214 -96
-300 -6 -14 -27 -68 -47 -120 -97 -250 -252 -500 -429 -690 -226 -240 -506
-422 -876 -567 -143 -56 -168 -69 -203 -102 -44 -40 -59 -78 -61 -148 l-1 -63
-51 -15 c-87 -25 -215 -54 -314 -70 -52 -8 -110 -18 -127 -21 l-33 -5 0 -307
0 -307 -835 0 -835 0 0 301 0 302 -23 6 c-12 3 -36 6 -54 6 -37 0 -289 42
-388 65 l-70 16 -2 60 c-2 71 -25 122 -68 155 -18 14 -123 55 -236 93 -300
100 -466 174 -664 295 -298 183 -532 414 -691 682 -138 233 -214 440 -269 728
-24 124 -25 146 -25 523 0 383 1 396 25 511 66 307 244 699 440 972 443 614
1076 1075 1814 1319 144 48 260 73 504 112 116 18 203 37 226 49 50 25 97 82
118 141 l17 47 94 7 c131 10 272 -2 279 -24 20 -66 72 -126 133 -154 44 -20
66 -21 720 -28 1402 -15 2348 -57 3062 -134 160 -17 273 -19 314 -5 17 6 42
29 59 55 17 24 33 44 36 42 4 -1 48 -58 99 -126 51 -68 130 -163 177 -210 75
-76 84 -83 78 -56 -11 53 -43 108 -106 185 -112 137 -113 139 -120 264 -5 82
-13 131 -33 188 -24 71 -34 138 -20 138 3 0 36 -18 74 -41 77 -46 146 -74 206
-84 60 -9 130 -85 224 -241 34 -56 139 -169 148 -159 9 8 -77 175 -139 271
-34 53 -95 139 -136 192 l-74 96 55 20 c91 34 132 78 279 298 198 297 266 356
309 268z m-6455 -7146 l60 -7 11 -70 c12 -78 32 -112 83 -142 33 -20 52 -20
764 -20 716 0 731 0 765 20 48 29 71 74 77 150 l6 63 84 7 c47 4 161 6 255 3
186 -5 188 -5 188 -67 0 -88 43 -150 118 -171 23 -6 248 -10 612 -10 316 0
619 -5 674 -10 142 -14 235 -59 283 -138 20 -33 23 -50 23 -156 0 -101 -3
-126 -21 -163 -26 -55 -87 -107 -158 -135 l-56 -23 -2720 -5 c-1496 -3 -2781
-3 -2855 1 -163 8 -230 29 -302 96 -68 64 -81 105 -76 246 l3 116 40 41 c22
23 59 53 82 67 95 56 93 55 818 62 650 6 671 7 705 26 47 28 69 71 77 148 l6
66 41 4 c74 6 352 7 413 1z M9205 7818 c-91 -32 -165 -118 -185 -212 -18 -90
5 -169 71 -241 159 -172 447 -77 475 158 19 163 -114 309 -280 306 -28 0 -64
-5 -81 -11z m113 -265 c-4 -32 -31 -42 -53 -19 -27 27 -16 44 33 45 20 1 23
-3 20 -26z M3088 7649 c-254 -33 -577 -140 -808 -267 -270 -149 -529 -363
-700 -577 -203 -255 -388 -613 -484 -935 -57 -193 -70 -282 -70 -485 0 -164 3
-201 22 -269 95 -342 344 -522 770 -555 70 -6 292 -15 493 -22 970 -30 1343
71 1589 431 163 240 304 707 350 1160 14 138 14 489 0 615 -35 313 -118 564
-228 684 -91 99 -288 185 -497 216 -108 16 -328 18 -437 4z m458 -224 c85 -16
197 -51 255 -80 117 -60 180 -156 230 -355 17 -68 19 -118 19 -565 l0 -491
-29 -139 c-97 -464 -239 -753 -434 -884 -112 -76 -262 -127 -458 -157 -226
-34 -1143 -26 -1399 12 -248 37 -398 131 -483 303 l-32 65 -3 263 -3 263 30
114 c113 433 385 874 701 1140 478 401 1106 601 1606 511z M5193 7558 c-293
-24 -443 -176 -513 -519 -65 -320 -89 -1033 -45 -1359 87 -642 365 -982 785
-956 290 17 725 223 926 439 172 184 241 379 231 652 -6 157 -35 291 -102 470
-127 339 -386 760 -609 993 -210 219 -410 302 -673 280z m252 -236 c145 -45
258 -128 396 -292 177 -211 348 -497 454 -761 72 -177 75 -199 75 -477 0 -234
-2 -250 -23 -302 -87 -211 -315 -388 -647 -505 -239 -83 -400 -86 -552 -9
-156 79 -277 307 -334 629 -21 119 -20 1118 1 1260 41 274 96 380 230 441 28
13 75 28 105 33 76 14 223 5 295 -17z M3290 2780 c-19 -4 -45 -20 -57 -34 -21
-25 -52 -131 -41 -142 13 -12 280 -34 543 -45 366 -15 785 2 1038 42 55 9 67
14 63 27 -2 10 -9 38 -16 64 -7 26 -23 57 -37 70 -23 21 -33 23 -146 23 -67 0
-240 -6 -384 -14 -263 -14 -272 -14 -838 14 -49 2 -106 0 -125 -5z"/>
</g>
</svg>
