<?xml version="1.0" standalone="no"?>
<!DOCTYPE svg PUBLIC "-//W3C//DTD SVG 20010904//EN"
 "http://www.w3.org/TR/2001/REC-SVG-20010904/DTD/svg10.dtd">
<svg version="1.0" xmlns="http://www.w3.org/2000/svg"
 width="2048.000000pt" height="2048.000000pt" viewBox="0 0 2048.000000 2048.000000"
 preserveAspectRatio="xMidYMid meet">
<metadata>
Created by potrace 1.13, written by Peter Selinger 2001-2015
</metadata>
<g transform="translate(0.000000,2048.000000) scale(0.192120,-0.192120)"
fill="#000000" stroke="none">
<path d="M8090 8660 c-2043 -5 -2234 -7 -2330 -23 -382 -63 -668 -188 -859
-376 -101 -99 -105 -114 -23 -74 174 85 488 191 722 242 264 58 117 55 2413
58 l2107 4 0 -21 c0 -13 7 -20 20 -20 20 0 20 -7 20 -1445 0 -957 3 -1445 10
-1445 7 0 10 -272 10 -795 0 -523 3 -795 10 -795 6 0 10 -20 10 -45 0 -25 4
-45 9 -45 5 0 11 -10 15 -22 5 -22 79 -153 97 -173 5 -5 9 1071 9 2488 0 1373
-3 2496 -7 2495 -5 -2 -1009 -5 -2233 -8z M4215 7272 l-558 -838 -71 -28
c-324 -133 -999 -480 -1390 -715 -88 -53 -180 -107 -205 -121 -64 -36 -359
-235 -495 -335 -700 -510 -1091 -1000 -1157 -1444 -24 -170 6 -385 81 -564
139 -334 473 -666 944 -937 178 -102 495 -250 614 -285 l22 -6 0 1776 0 1777
23 -6 c62 -17 163 -18 207 -1 25 9 54 19 65 22 11 4 74 36 140 73 321 178 669
356 1033 528 187 88 209 110 237 244 l5 28 1518 2 1517 3 70 34 c52 25 91 55
150 115 78 79 86 93 318 516 131 239 278 507 327 595 49 88 94 181 100 208 22
86 -3 146 -74 178 -39 18 -95 19 -1452 19 l-1410 0 -559 -838z m3195 559 c0
-37 -38 -77 -86 -90 -51 -14 -2421 -15 -2458 -1 -32 12 -33 38 -5 69 49 52 -6
50 1317 51 l1232 0 0 -29z m60 -294 c-8 -8 -54 -44 -102 -80 -130 -100 -172
-155 -303 -392 -94 -172 -173 -291 -227 -342 -18 -18 -60 -45 -93 -60 l-60
-28 -1270 0 c-698 0 -1282 3 -1296 7 -62 18 -52 39 171 373 199 298 212 325
218 443 l4 92 1486 0 c1237 0 1484 -2 1472 -13z m-5720 -3803 l0 -1365 -22 6
c-13 4 -81 37 -153 74 -516 266 -877 613 -975 938 -20 65 -21 89 -18 290 l3
218 39 88 c112 254 401 577 791 884 117 92 314 233 326 233 5 0 9 -550 9
-1366z M8624 3663 l-1631 -3 -553 -830 -552 -830 -1946 -2 -1946 -3 -333 -555
-333 -555 -500 4 -500 4 0 -282 0 -281 5000 0 5000 0 0 1670 0 1670 -37 -2
c-21 -2 -772 -4 -1669 -5z m1436 -223 c0 -13 7 -20 20 -20 20 0 20 -7 20 -585
0 -383 3 -585 10 -585 6 0 10 -20 10 -45 0 -25 4 -45 9 -45 5 0 12 -11 15 -24
6 -25 72 -126 90 -138 6 -4 -963 -8 -2154 -7 -1825 0 -2159 2 -2127 13 104 37
252 154 340 266 32 41 207 298 390 570 182 272 349 514 371 538 45 50 67 63
116 73 19 4 677 7 1463 8 1421 1 1427 1 1427 -19z m-20 -2135 l0 -495 -4206 2
c-4155 3 -4206 3 -4220 22 -8 11 -11 29 -8 40 9 34 443 754 476 792 17 19 40
40 52 47 16 9 450 13 1876 17 l1855 6 75 22 c41 13 118 27 170 31 52 4 958 9
2013 10 l1917 1 0 -495z m-8751 -487 c-7 -12 -36 -62 -65 -110 -30 -49 -54
-91 -54 -93 0 -3 2040 -6 4534 -7 2494 -2 4538 -6 4542 -11 11 -10 -52 -73
-95 -94 -34 -17 -231 -18 -4396 -21 -2956 -2 -4392 1 -4460 8 -58 6 -149 25
-215 45 -110 33 -122 35 -267 35 l-153 0 0 45 0 45 159 0 c123 0 161 3 170 14
6 7 24 16 39 19 15 4 79 38 142 76 63 38 119 70 123 70 4 1 2 -9 -4 -21z"/>
</g>
</svg>
