<?xml version="1.0" standalone="no"?>
<!DOCTYPE svg PUBLIC "-//W3C//DTD SVG 20010904//EN"
 "http://www.w3.org/TR/2001/REC-SVG-20010904/DTD/svg10.dtd">
<svg version="1.0" xmlns="http://www.w3.org/2000/svg"
 width="2048.000000pt" height="2048.000000pt" viewBox="0 0 2048.000000 2048.000000"
 preserveAspectRatio="xMidYMid meet">
<metadata>
Created by potrace 1.13, written by Peter Selinger 2001-2015
</metadata>
<g transform="translate(0.000000,2048.000000) scale(0.192120,-0.192120)"
fill="#000000" stroke="none">
<path d="M5465 8099 c-166 -21 -382 -107 -510 -204 -214 -161 -351 -364 -428
-633 l-22 -77 -3 -1903 -2 -1902 -2014 2 c-1108 2 -2017 5 -2020 8 -6 6 16 75
27 86 4 4 7 24 7 44 0 20 4 40 10 46 6 6 11 225 12 584 2 457 6 582 17 610 51
132 746 1505 811 1603 135 204 358 338 665 399 90 18 150 21 597 25 521 5 584
1 702 -38 169 -57 323 -202 399 -377 l27 -64 0 -1374 c0 -909 3 -1374 10
-1374 6 0 10 -18 10 -40 0 -22 5 -40 10 -40 6 0 10 -6 10 -14 0 -8 14 -28 31
-45 26 -26 38 -31 80 -31 l49 0 -3 1463 c-3 1629 3 1491 -72 1653 -47 103
-102 179 -188 260 -131 125 -291 202 -467 223 -107 14 -887 14 -1040 1 -377
-33 -641 -147 -865 -374 -100 -100 -101 -103 -212 -316 -61 -118 -258 -508
-437 -867 l-327 -652 4 -1058 c3 -940 5 -1065 20 -1124 54 -221 142 -383 286
-533 73 -75 197 -174 207 -164 7 8 -81 256 -120 338 -20 41 -54 109 -77 150
-22 41 -51 107 -65 147 -24 70 -24 78 -24 402 l0 331 40 0 c30 0 40 4 40 16 0
14 138 15 1523 11 994 -3 1543 -9 1582 -16 33 -5 101 -29 150 -53 l90 -43 215
0 c205 0 217 1 251 22 42 26 73 87 74 144 l0 39 2875 0 c1581 0 2870 -4 2865
-8 -26 -18 -105 -151 -105 -176 0 -9 -4 -16 -10 -16 -6 0 -10 -75 -10 -205 0
-327 -41 -496 -162 -673 -16 -23 -42 -71 -59 -105 -35 -76 -111 -298 -104
-305 10 -10 118 75 198 157 152 157 236 309 295 541 15 59 16 257 19 2260 3
1533 1 2220 -7 2278 -33 252 -138 462 -325 647 -154 152 -320 245 -532 297
l-88 22 -1920 2 c-1069 1 -1951 -2 -1990 -7z m3918 -284 c198 -34 344 -110
483 -250 79 -78 99 -106 140 -191 l49 -99 3 -1847 2 -1848 -2655 0 -2655 0 0
1818 c0 2028 -6 1858 71 1998 116 212 365 379 629 423 31 5 870 9 1951 10
1636 1 1908 -1 1982 -14z M2148 6430 c-230 -39 -447 -182 -616 -405 -36 -48
-144 -252 -345 -650 -160 -319 -293 -584 -295 -590 -2 -7 326 -10 968 -10
l970 0 0 833 0 832 -317 -1 c-175 -1 -339 -5 -365 -9z m552 -830 l0 -710 -789
0 c-434 0 -796 3 -805 6 -12 4 -16 20 -16 55 0 44 21 92 194 437 252 503 273
538 399 665 141 142 280 217 454 247 26 4 164 8 306 9 l257 1 0 -710z M1865
2823 c-477 -59 -859 -415 -960 -893 -20 -95 -20 -313 1 -420 73 -389 361 -718
739 -844 132 -44 242 -59 395 -53 296 11 549 124 752 335 184 192 283 404 309
667 46 452 -205 902 -614 1100 -191 92 -425 133 -622 108z m-272 -388 c-3 -8
-9 -15 -13 -15 -19 0 -193 -197 -246 -277 -37 -59 -91 -162 -108 -208 -5 -16
-13 -133 -16 -260 l-6 -230 -2 328 c-2 364 -5 343 68 442 66 87 168 173 260
216 57 28 73 29 63 4z m804 3 c-3 -8 -6 -5 -6 6 -1 11 2 17 5 13 3 -3 4 -12 1
-19z m78 -12 c72 -39 170 -122 223 -189 95 -122 87 -80 88 -457 0 -314 0 -320
-6 -105 -6 243 -6 246 -66 365 -40 80 -133 207 -216 294 -111 118 -117 141
-23 92z m-290 -184 c217 -80 365 -291 365 -522 0 -151 -55 -285 -160 -390
-111 -111 -239 -164 -395 -164 -412 -1 -677 433 -493 806 39 79 153 195 228
233 107 55 155 65 280 62 87 -3 129 -9 175 -25z m-827 -982 c46 -69 88 -126
93 -128 5 -2 9 -12 9 -23 0 -19 -1 -19 -27 -2 -50 32 -129 112 -151 154 -16
29 -22 57 -21 97 0 32 3 50 6 42 4 -8 44 -71 91 -140z m1330 -14 c-34 -55
-140 -155 -146 -137 -2 5 7 25 20 44 13 19 52 79 88 133 l65 99 3 -43 c3 -34
-3 -53 -30 -96z M5726 2820 c-472 -75 -842 -430 -932 -897 -21 -109 -21 -293
1 -407 78 -420 395 -761 810 -873 91 -24 116 -27 280 -27 163 0 189 3 278 27
112 30 256 95 348 158 159 108 321 304 395 479 211 502 35 1077 -421 1372
-176 114 -350 167 -565 173 -74 2 -162 0 -194 -5z m-256 -381 c0 -7 -33 -46
-74 -88 -129 -132 -215 -256 -267 -388 -21 -53 -24 -78 -29 -293 l-6 -235 -2
335 -2 335 29 51 c57 99 187 220 289 270 54 27 62 28 62 13z m946 -44 c74 -51
184 -164 224 -231 l35 -58 1 -331 c0 -309 0 -316 -6 -105 -3 124 -9 234 -14
245 -4 11 -11 29 -16 40 -47 122 -132 250 -250 378 -49 53 -90 100 -90 103 0
15 70 -10 116 -41z m-359 -150 c92 -29 147 -64 225 -141 212 -211 209 -562 -7
-778 -182 -182 -470 -214 -683 -77 -305 197 -351 604 -98 857 114 114 229 163
388 163 77 1 113 -4 175 -24z m-768 -1048 c35 -49 61 -90 59 -93 -19 -18 -148
99 -182 164 -9 18 -16 55 -16 89 l0 58 38 -65 c21 -36 66 -105 101 -153z
m1289 48 c-40 -64 -131 -146 -136 -123 -2 9 34 71 80 139 l83 124 3 -44 c3
-36 -3 -54 -30 -96z M8506 2820 c-240 -38 -443 -140 -617 -310 -454 -444 -448
-1160 13 -1596 138 -131 304 -223 485 -270 131 -34 329 -43 459 -20 432 75
772 384 890 807 32 117 44 358 24 473 -77 434 -400 782 -829 893 -108 28 -321
39 -425 23z m-239 -382 c-3 -8 -6 -5 -6 6 -1 11 2 17 5 13 3 -3 4 -12 1 -19z
m-17 1 c0 -7 -39 -50 -86 -97 -104 -104 -210 -260 -252 -371 l-32 -83 0 -226
c-1 -158 -4 -222 -11 -210 -6 11 -9 134 -7 336 l3 318 35 54 c67 105 200 228
292 270 50 23 58 24 58 9z m938 -41 c67 -41 209 -189 240 -250 19 -39 22 -60
21 -154 0 -60 -3 -102 -6 -94 -3 8 -25 58 -50 110 -57 118 -129 221 -227 325
-42 44 -76 84 -76 88 0 5 -4 5 -10 2 -5 -3 -10 1 -10 9 0 20 47 6 118 -36z
m-377 -144 c97 -29 171 -74 245 -148 253 -254 206 -658 -101 -858 -85 -55
-179 -82 -290 -82 -156 0 -284 53 -395 164 -299 299 -160 812 250 926 66 18
226 17 291 -2z m-831 -928 c23 -39 69 -105 101 -148 32 -43 59 -81 59 -84 0
-2 -8 0 -17 5 -10 5 -21 8 -25 8 -10 -3 -108 93 -140 137 -23 33 -28 49 -28
99 0 33 2 58 4 56 2 -2 23 -35 46 -73z m1394 -58 c-22 -42 -141 -161 -154
-153 -13 8 -2 31 50 101 25 34 62 87 81 119 l34 57 3 -46 c2 -28 -3 -57 -14
-78z M3314 1871 c-48 -28 -144 -122 -144 -142 0 -5 328 -9 776 -9 l775 0 -20
28 c-33 47 -97 100 -153 127 l-52 25 -565 0 -566 0 -51 -29z M7225 1879 c-36
-10 -101 -64 -145 -119 l-32 -40 221 0 c123 0 221 4 221 9 0 21 -95 112 -142
135 -55 27 -74 30 -123 15z"/>
</g>
</svg>
