<?xml version="1.0" standalone="no"?>
<!DOCTYPE svg PUBLIC "-//W3C//DTD SVG 20010904//EN"
 "http://www.w3.org/TR/2001/REC-SVG-20010904/DTD/svg10.dtd">
<svg version="1.0" xmlns="http://www.w3.org/2000/svg"
 width="2048.000000pt" height="2048.000000pt" viewBox="0 0 2048.000000 2048.000000"
 preserveAspectRatio="xMidYMid meet">
<metadata>
Created by potrace 1.13, written by Peter Selinger 2001-2015
</metadata>
<g transform="translate(0.000000,2048.000000) scale(0.192120,-0.192120)"
fill="#000000" stroke="none">
<path d="M4979 6987 c-76 -21 -152 -89 -185 -165 -23 -54 -22 -157 3 -213 26
-58 83 -115 142 -143 45 -21 55 -21 671 -21 l625 0 51 27 c207 109 204 393 -4
495 l-57 28 -600 2 c-453 1 -611 -1 -646 -10z m516 -102 c96 -77 160 -92 425
-100 118 -3 225 -8 236 -11 24 -6 36 -51 24 -94 -10 -39 -57 -48 -291 -55
-246 -8 -284 -16 -372 -83 -66 -50 -81 -50 -127 8 -84 105 -78 251 13 347 33
35 33 35 92 -12z M4662 6429 c-275 -46 -661 -344 -1053 -814 -214 -257 -531
-705 -708 -1002 -60 -100 -78 -123 -96 -123 -80 0 -504 -92 -742 -160 -644
-186 -1117 -462 -1307 -762 l-20 -32 79 43 c83 45 239 141 360 221 128 84 326
188 490 255 216 90 604 201 905 260 309 61 341 82 485 315 217 355 463 694
706 976 135 156 338 361 401 402 14 9 59 43 100 75 97 74 212 140 313 177 157
59 195 89 195 155 0 28 -12 30 -108 14z M6420 6415 c0 -40 18 -65 58 -83 33
-15 111 -18 712 -22 670 -6 675 -6 740 -28 147 -52 281 -163 472 -393 69 -83
195 -307 293 -520 133 -291 300 -747 325 -889 7 -36 25 -107 42 -159 25 -79
37 -101 76 -140 57 -57 112 -83 217 -106 260 -55 399 -132 632 -346 74 -69
241 -194 248 -187 6 6 -55 125 -100 193 -60 91 -208 235 -308 300 -160 104
-311 156 -508 177 l-106 11 -13 56 c-20 89 -114 395 -176 568 -317 895 -669
1431 -1027 1565 l-62 23 -757 3 -758 3 0 -26z M4712 5879 c-95 -16 -215 -77
-344 -175 -170 -128 -475 -469 -689 -769 -107 -149 -289 -422 -289 -432 0 -5
623 -7 1385 -5 l1385 2 0 693 0 692 -697 1 c-384 1 -722 -2 -751 -7z m1218
-699 l0 -470 -1037 1 c-571 1 -1049 4 -1063 8 -58 16 -28 73 176 327 268 336
537 558 715 593 24 5 306 9 627 10 l582 1 0 -470z M6720 5193 l0 -698 970 0
c534 0 970 4 970 8 0 4 -29 74 -64 155 -287 662 -527 1080 -682 1192 l-49 35
-572 3 -573 3 0 -698z m1065 446 c27 -7 64 -28 92 -53 75 -66 199 -268 334
-546 104 -212 127 -288 97 -318 -9 -9 -177 -12 -695 -12 l-683 0 0 470 0 470
406 0 c265 0 420 -4 449 -11z M651 3358 c-38 -117 -41 -164 -41 -524 l1 -355
-59 -43 c-133 -98 -208 -237 -219 -406 -16 -255 148 -488 402 -571 30 -10 192
-14 669 -19 l628 -5 27 -80 c128 -377 464 -661 864 -731 190 -33 449 -3 619
73 301 133 530 385 624 686 l18 57 1285 0 1286 0 24 -75 c70 -221 233 -435
432 -568 506 -336 1178 -210 1531 288 49 69 114 200 141 284 l22 71 282 0
c226 0 283 3 283 13 0 7 31 23 73 36 410 131 701 466 772 889 14 84 16 159 12
493 -3 291 -8 410 -19 454 l-14 60 -4816 3 -4816 2 -11 -32z m2040 -83 c98
-60 153 -70 414 -70 261 0 316 10 420 72 l60 35 70 -22 c107 -33 319 -142 425
-217 122 -87 297 -262 382 -383 192 -271 296 -574 306 -891 2 -86 1 -186 -2
-223 l-8 -66 -74 51 c-42 28 -90 55 -107 61 -18 6 -36 15 -41 19 -14 12 -96
11 -96 -1 0 -5 -7 -10 -15 -10 -26 0 -69 -26 -151 -91 l-77 -62 7 39 c3 22 9
89 12 149 26 481 -272 930 -726 1096 -218 79 -452 89 -680 28 -41 -11 -129
-47 -195 -79 -262 -130 -454 -344 -551 -615 -53 -148 -67 -252 -61 -430 3 -82
9 -161 13 -175 6 -22 2 -20 -37 17 -59 56 -146 112 -186 119 -18 3 -33 10 -33
15 0 12 -77 11 -85 -1 -3 -5 -14 -10 -23 -10 -10 0 -55 -25 -100 -56 -46 -30
-86 -53 -90 -50 -10 11 -21 107 -21 196 -1 171 28 348 89 531 132 398 434 751
804 941 102 52 258 115 291 117 5 1 35 -15 66 -34z m4744 -10 c105 -53 180
-65 390 -65 220 0 296 13 400 65 l90 46 90 -32 c543 -191 956 -679 1065 -1257
32 -172 35 -447 4 -459 -8 -3 -43 9 -79 26 -36 16 -81 33 -100 37 -19 3 -35
10 -35 15 0 11 -75 12 -98 0 -9 -4 -39 -19 -65 -32 -27 -13 -78 -51 -114 -83
l-64 -59 8 64 c4 35 7 132 7 214 -2 179 -27 290 -97 439 -60 127 -115 205
-216 309 -162 166 -350 269 -586 319 -78 16 -333 16 -410 0 -237 -51 -425
-153 -586 -319 -101 -104 -156 -182 -216 -309 -70 -149 -95 -260 -97 -439 0
-82 3 -179 7 -214 l8 -64 -61 56 c-34 30 -87 68 -118 83 -31 15 -65 31 -74 36
-24 11 -85 10 -93 -2 -3 -5 -14 -10 -23 -10 -9 0 -54 -25 -100 -56 -46 -31
-85 -54 -88 -52 -13 13 -25 185 -19 273 41 627 375 1138 925 1416 52 26 228
96 250 99 3 0 46 -20 95 -45z m-5647 -196 c2 -9 -25 -52 -58 -95 -177 -230
-199 -263 -282 -427 -101 -202 -178 -464 -195 -664 -4 -49 -11 -77 -20 -80 -7
-3 -16 -23 -20 -46 l-6 -40 -181 6 c-198 6 -254 18 -326 66 -24 16 -54 46 -67
67 -20 34 -23 52 -23 145 0 106 0 107 36 160 20 30 52 73 71 96 51 64 123 203
123 241 0 17 5 32 10 32 6 0 10 96 10 268 0 196 3 271 12 280 9 9 121 12 462
10 405 -3 451 -5 454 -19z m4720 0 c2 -9 -25 -53 -60 -98 -199 -259 -313 -459
-383 -671 -36 -112 -81 -316 -92 -421 -3 -39 -13 -74 -25 -88 -10 -13 -18 -34
-18 -47 l0 -24 -470 0 c-441 0 -470 1 -470 18 0 9 -6 29 -14 43 -7 15 -19 67
-26 115 -53 386 -178 696 -389 969 -114 146 -144 193 -138 209 6 15 112 16
1044 14 948 -3 1038 -4 1041 -19z m3522 -366 c0 -384 -1 -389 -24 -456 -14
-38 -44 -101 -67 -140 -45 -77 -161 -200 -200 -212 -36 -12 -63 28 -83 126
-45 214 -85 336 -171 515 -70 149 -162 287 -307 464 -16 19 -28 47 -28 62 l0
28 440 0 440 0 0 -387z m-7120 -159 c0 -8 -5 -12 -10 -9 -6 4 -8 11 -5 16 9
14 15 11 15 -7z m4720 0 c0 -8 -5 -12 -10 -9 -6 4 -8 11 -5 16 9 14 15 11 15
-7z m-4750 -11 c0 -8 -6 -13 -12 -11 -12 4 -20 -1 -53 -30 -8 -7 -15 -10 -15
-5 0 4 -4 3 -8 -2 -4 -6 -29 -24 -57 -40 -58 -33 -226 -199 -273 -268 -52 -78
-88 -147 -116 -225 -25 -71 -26 -81 -26 -293 l0 -219 -20 20 c-11 11 -20 26
-20 34 0 8 -4 18 -10 21 -6 4 -10 110 -10 285 l0 278 31 58 c87 167 290 334
475 393 69 21 114 23 114 4z m538 2 c192 -46 410 -224 507 -415 25 -49 25 -52
25 -317 0 -265 -7 -334 -34 -350 -8 -5 -16 -17 -19 -28 -2 -11 -5 83 -6 208
-1 254 -7 288 -69 412 -19 39 -57 103 -85 143 -57 82 -208 230 -276 270 -26
14 -52 32 -59 39 -7 7 -20 13 -28 13 -8 0 -14 5 -14 11 0 5 -4 7 -10 4 -5 -3
-10 1 -10 9 0 19 0 19 78 1z m4182 -1 c0 -9 -6 -14 -12 -12 -12 4 -18 1 -51
-27 -7 -6 -34 -24 -62 -40 -129 -75 -288 -253 -368 -411 -58 -116 -67 -166
-67 -392 l0 -201 -27 25 -28 26 -3 286 -2 287 39 70 c101 181 336 363 506 392
17 3 31 6 32 7 10 9 43 2 43 -10z m480 1 c0 -8 -4 -15 -10 -15 -5 0 -10 7 -10
15 0 8 5 15 10 15 6 0 10 -7 10 -15z m208 -61 c145 -76 241 -164 329 -301 62
-96 66 -117 61 -409 -4 -219 -7 -264 -21 -289 -9 -16 -17 -23 -17 -15 -1 11
-4 10 -15 -4 -13 -18 -15 5 -15 200 0 239 -7 279 -67 399 -67 131 -224 311
-337 385 -34 22 -70 47 -81 55 -10 8 -23 15 -27 15 -4 0 -8 9 -8 19 0 18 2 18
58 4 31 -8 95 -34 140 -59z m-5048 -215 c122 -28 249 -117 323 -226 63 -93 88
-167 94 -284 6 -114 -5 -174 -53 -274 -137 -292 -521 -400 -794 -225 -70 45
-163 148 -199 222 -34 69 -61 178 -61 248 0 232 161 449 389 527 74 25 220 31
301 12z m4735 -4 c181 -48 336 -202 390 -389 23 -78 23 -214 0 -291 -55 -192
-196 -334 -389 -392 -73 -23 -226 -22 -296 2 -197 65 -330 199 -385 390 -23
77 -23 213 0 291 53 185 208 340 386 388 72 20 220 20 294 1z m-5455 -1085
c43 -56 44 -62 7 -41 -88 49 -147 132 -147 205 l0 50 56 -90 c32 -49 69 -105
84 -124z m4737 -18 c7 -7 13 -21 13 -29 0 -14 -2 -14 -17 -2 -10 8 -36 30 -58
48 -66 55 -95 106 -95 164 l0 51 72 -110 c40 -60 78 -115 85 -122z m1291 169
c-5 -51 -19 -73 -91 -150 -68 -72 -58 -24 20 94 37 57 70 104 72 105 2 0 1
-22 -1 -49z m-4718 7 c0 -12 -9 -41 -20 -64 -24 -49 -111 -135 -118 -115 -4
13 116 201 129 201 5 0 9 -10 9 -22z"/>
</g>
</svg>
