<?xml version="1.0" standalone="no"?>
<!DOCTYPE svg PUBLIC "-//W3C//DTD SVG 20010904//EN"
 "http://www.w3.org/TR/2001/REC-SVG-20010904/DTD/svg10.dtd">
<svg version="1.0" xmlns="http://www.w3.org/2000/svg"
 width="2048.000000pt" height="2048.000000pt" viewBox="0 0 2048.000000 2048.000000"
 preserveAspectRatio="xMidYMid meet">
<metadata>
Created by potrace 1.13, written by Peter Selinger 2001-2015
</metadata>
<g transform="translate(0.000000,2048.000000) scale(0.192120,-0.192120)"
fill="#000000" stroke="none">
<path d="M5670 6989 c-89 -15 -196 -73 -270 -148 -94 -95 -133 -178 -154 -329
l-6 -44 45 33 c25 18 87 78 139 133 66 70 115 112 158 136 60 33 68 35 158 35
137 0 150 -8 340 -211 41 -44 89 -89 105 -101 l31 -21 -8 82 c-8 102 -37 179
-93 254 -69 91 -167 153 -284 178 -74 15 -83 15 -161 3z M4665 6421 c-362 -91
-754 -444 -997 -898 -29 -54 -138 -306 -243 -561 l-190 -462 -560 -3 c-493 -3
-569 -6 -635 -21 -256 -60 -462 -177 -655 -371 -126 -125 -214 -248 -285 -398
-67 -141 -93 -226 -137 -450 -20 -105 -60 -309 -88 -452 l-50 -260 -50 -8
c-28 -4 -88 -26 -134 -48 -342 -165 -415 -614 -144 -886 71 -71 191 -135 287
-152 72 -13 1144 -15 1164 -2 19 11 -104 113 -182 152 l-60 29 -380 0 c-407 0
-490 7 -573 45 -67 30 -148 106 -179 167 -21 42 -24 61 -24 161 0 109 1 116
28 153 16 21 36 45 45 53 9 7 17 19 17 26 0 18 53 56 130 95 80 40 189 149
230 230 38 76 73 246 67 325 -4 50 -23 111 -63 201 -3 6 5 14 18 18 32 8 9209
6 9229 -2 14 -6 10 -17 -27 -72 -23 -36 -46 -80 -50 -97 -3 -18 -10 -33 -15
-33 -5 0 -9 -87 -9 -192 0 -280 -27 -417 -116 -588 -51 -99 -148 -216 -233
-284 -125 -98 -310 -175 -460 -192 -34 -4 -64 -11 -67 -15 -3 -5 -16 -9 -30
-9 -40 0 -124 -45 -198 -106 -51 -42 -65 -59 -55 -65 23 -14 286 -10 392 6
488 73 868 459 936 949 7 47 11 276 11 575 0 537 -4 587 -55 758 -70 228 -233
453 -425 583 -152 103 -348 169 -511 171 -83 1 -89 3 -93 23 -3 11 -32 212
-66 446 -34 234 -72 468 -85 520 -112 449 -391 805 -727 928 l-73 27 -1780 2
c-1669 2 -1784 1 -1850 -16z m1535 -161 c29 -11 216 -15 1020 -20 892 -6 991
-8 1044 -23 132 -39 224 -97 345 -218 106 -107 156 -176 211 -292 91 -194 106
-256 184 -777 30 -201 63 -387 72 -414 20 -59 119 -162 185 -194 24 -12 89
-31 144 -43 149 -32 233 -67 343 -141 24 -17 141 -128 261 -248 l218 -218 -45
-6 c-63 -8 -8948 -6 -8996 2 l-40 7 75 55 c99 73 211 162 284 228 161 145 339
248 516 298 l94 27 525 7 c571 7 565 6 651 66 22 15 65 55 97 89 55 59 61 70
201 415 212 522 306 703 468 902 177 217 448 407 649 454 41 9 155 19 289 25
121 5 249 15 285 23 91 21 867 17 920 -4z m3860 -2885 l0 -75 -4412 2 -4413 3
-3 39 c-5 55 4 81 30 94 17 8 1254 11 4411 11 l4387 1 0 -75z M5635 5880
l-730 -5 -70 -24 c-314 -105 -610 -389 -773 -741 -34 -73 -212 -600 -207 -610
2 -3 584 -4 1294 -2 l1291 2 0 695 0 695 -37 -2 c-21 -2 -366 -5 -768 -8z
m675 -695 l0 -575 -1145 0 -1145 0 0 79 c0 66 7 98 40 196 80 230 170 381 329
547 185 194 377 298 590 318 42 4 358 8 704 9 l627 1 0 -575z M7000 5193 l0
-693 820 0 820 0 0 25 c0 125 -91 709 -135 860 -78 276 -215 410 -475 466 -99
22 -164 24 -797 32 l-233 2 0 -692z m817 557 c223 -15 344 -49 441 -121 103
-78 160 -207 213 -483 26 -133 29 -170 29 -343 l0 -193 -695 0 -695 0 0 575 0
575 288 0 c158 -1 346 -5 419 -10z M2930 2816 c-334 -60 -624 -262 -788 -549
-55 -95 -108 -243 -127 -354 -18 -105 -19 -293 -1 -393 82 -454 449 -816 909
-896 131 -23 328 -15 459 20 453 117 781 498 830 962 58 562 -319 1079 -876
1200 -98 22 -312 27 -406 10z m-250 -386 c0 -5 -8 -18 -17 -28 -138 -140 -234
-269 -292 -391 l-36 -76 -5 -260 -6 -260 -2 351 -2 352 41 61 c54 81 180 195
254 231 70 34 65 33 65 20z m871 -4 c37 23 262 -174 313 -273 24 -48 26 -62
25 -170 -1 -115 -1 -117 -13 -68 -31 123 -139 289 -295 454 -28 30 -51 59 -50
65 0 6 3 6 6 -2 2 -6 9 -10 14 -6z m-311 -167 c122 -28 249 -117 323 -226 63
-93 88 -167 94 -284 6 -114 -5 -174 -53 -274 -137 -292 -521 -400 -794 -225
-70 45 -163 148 -199 222 -34 69 -61 178 -61 248 0 232 161 449 389 527 74 25
220 31 301 12z m-840 -891 c27 -52 150 -232 162 -236 4 -2 8 -13 8 -23 0 -18
-4 -17 -44 11 -53 38 -95 82 -130 134 -21 31 -26 51 -26 97 0 33 2 59 4 59 2
0 14 -19 26 -42z m1435 -42 c-7 -42 -36 -94 -77 -138 -34 -37 -118 -99 -118
-88 0 5 25 45 56 87 30 43 71 104 91 136 39 64 58 66 48 3z M7648 2816 c-229
-41 -434 -147 -600 -312 -294 -293 -400 -717 -278 -1114 143 -465 572 -780
1061 -780 420 0 801 234 988 607 91 180 128 358 118 561 -24 499 -385 921
-881 1028 -98 22 -312 27 -408 10z m609 -398 c-3 -8 -6 -5 -6 6 -1 11 2 17 5
13 3 -3 4 -12 1 -19z m-867 -1 c0 -7 -10 -23 -22 -34 -71 -64 -194 -220 -242
-307 -68 -124 -70 -130 -76 -401 -6 -244 -6 -242 -6 100 l1 350 35 50 c69 100
184 205 261 238 43 20 49 20 49 4z m941 -12 c65 -33 189 -151 239 -229 l40
-61 -1 -110 c0 -102 -1 -107 -13 -75 -52 141 -180 333 -296 444 -26 26 -40 56
-25 56 3 0 28 -11 56 -25z m-356 -150 c181 -48 336 -202 390 -389 23 -78 23
-214 0 -291 -55 -192 -196 -334 -389 -392 -73 -23 -226 -22 -296 2 -197 65
-330 199 -385 390 -23 77 -23 213 0 291 53 185 208 340 386 388 72 20 220 20
294 1z m-778 -1004 c67 -97 93 -140 84 -145 -12 -8 -117 83 -153 133 -27 37
-33 55 -36 110 l-3 66 35 -55 c19 -30 52 -80 73 -109z m1344 21 c-20 -39 -131
-164 -131 -148 0 5 -9 1 -20 -9 -11 -10 -22 -16 -24 -14 -2 2 40 69 93 149
l96 145 3 -42 c2 -27 -4 -55 -17 -81z M4425 1585 c-69 -35 -171 -125 -153
-136 17 -11 2379 -11 2397 0 16 10 -89 99 -159 134 l-45 22 -995 3 -996 2 -49
-25z"/>
</g>
</svg>
