<?xml version="1.0" standalone="no"?>
<!DOCTYPE svg PUBLIC "-//W3C//DTD SVG 20010904//EN"
 "http://www.w3.org/TR/2001/REC-SVG-20010904/DTD/svg10.dtd">
<svg version="1.0" xmlns="http://www.w3.org/2000/svg"
 width="2048.000000pt" height="2048.000000pt" viewBox="0 0 2048.000000 2048.000000"
 preserveAspectRatio="xMidYMid meet">
<metadata>
Created by potrace 1.13, written by Peter Selinger 2001-2015
</metadata>
<g transform="translate(0.000000,2048.000000) scale(0.192120,-0.192120)"
fill="#000000" stroke="none">
<path d="M5185 6425 c-508 -113 -1370 -730 -2459 -1761 l-181 -171 -567 -141
c-614 -154 -665 -170 -865 -288 -280 -164 -448 -357 -492 -562 -7 -34 -11
-211 -12 -500 l0 -447 -62 -40 c-257 -170 -295 -694 -65 -911 66 -63 121 -95
223 -131 l80 -28 623 0 623 0 19 -65 c60 -200 207 -409 380 -539 222 -167 448
-239 720 -228 463 18 848 301 1004 737 l32 90 1283 0 1284 0 24 -72 c153 -456
573 -758 1054 -758 477 0 897 301 1049 753 l26 77 345 3 c323 3 349 4 419 25
311 94 520 319 608 657 44 172 47 210 46 670 -1 823 -59 1307 -188 1570 -52
106 -116 173 -406 420 -1001 857 -1936 1465 -2498 1623 l-97 27 -945 2 c-758
1 -957 -1 -1005 -12z m1269 -271 c9 -3 16 -9 16 -13 0 -4 -45 -53 -100 -109
-55 -56 -102 -113 -106 -127 -3 -14 -10 -25 -15 -25 -5 0 -9 -314 -9 -741 l0
-741 84 -83 c105 -105 145 -126 251 -132 67 -4 604 20 1926 87 274 14 334 35
461 167 75 78 92 121 96 242 4 113 -7 157 -73 293 -64 129 -55 138 53 53 39
-30 72 -50 74 -45 5 17 530 -417 667 -552 151 -148 208 -291 255 -633 39 -284
59 -731 54 -1215 l-4 -345 -28 -85 c-40 -122 -92 -213 -165 -292 -52 -57 -80
-77 -155 -113 -116 -55 -167 -66 -349 -72 -81 -3 -150 -10 -153 -14 -3 -5 -20
-9 -38 -9 -53 0 -147 -54 -234 -134 l-43 -39 8 59 c5 32 7 127 7 209 -2 126
-6 166 -27 248 -29 111 -94 254 -157 348 -59 87 -199 229 -284 288 -382 263
-876 266 -1261 8 -84 -57 -226 -197 -286 -284 -69 -100 -135 -243 -166 -360
-23 -85 -26 -119 -27 -263 -1 -91 3 -185 7 -210 l8 -45 -33 31 c-55 51 -112
91 -153 109 -22 10 -48 21 -57 26 -10 5 -472 9 -1037 9 l-1019 0 -60 -31 c-33
-16 -88 -56 -123 -87 l-62 -57 6 40 c57 364 -48 713 -292 968 -206 215 -459
330 -761 344 -477 22 -924 -279 -1086 -732 -52 -147 -67 -252 -61 -430 3 -82
8 -159 13 -169 4 -11 -26 9 -68 45 -42 35 -105 79 -140 97 l-63 32 -403 0
c-434 0 -519 7 -593 47 -66 35 -136 106 -149 150 -7 23 -10 96 -8 188 3 148 3
151 33 194 17 25 39 61 50 80 12 20 41 68 66 106 76 118 79 123 79 160 0 19 5
35 10 35 6 0 10 136 10 388 0 433 2 447 68 556 88 147 315 307 558 395 46 17
291 82 546 146 255 64 492 128 528 142 77 31 117 56 230 143 47 36 88 65 91
65 4 0 80 68 170 150 426 391 788 696 1119 942 146 109 375 261 428 284 17 7
32 17 32 20 0 4 12 10 27 14 15 3 31 12 35 18 5 8 8 6 8 -5 0 -10 -6 -18 -14
-18 -8 0 -16 -4 -18 -8 -1 -5 -28 -26 -58 -48 -30 -21 -59 -44 -65 -50 -5 -6
-57 -46 -115 -89 -88 -65 -256 -201 -360 -291 -14 -12 -77 -66 -140 -119 -175
-148 -469 -416 -649 -590 -172 -167 -291 -335 -291 -413 0 -47 46 -111 124
-171 99 -76 170 -87 461 -72 110 6 637 33 1170 61 534 27 1001 54 1039 60 38
6 91 22 118 37 39 22 134 111 186 176 9 13 12 182 12 772 0 415 -4 755 -8 755
-4 0 -13 15 -20 33 -12 32 -174 207 -192 207 -17 0 -11 28 8 33 26 7 568 8
586 1z m731 -25 c119 -30 277 -91 346 -135 20 -13 40 -20 43 -17 3 4 6 1 6 -6
0 -7 4 -10 9 -7 5 3 11 -1 15 -9 3 -8 1 -17 -4 -20 -6 -4 -10 -1 -10 5 0 6 -4
8 -10 5 -5 -3 -10 -3 -10 2 0 4 -17 9 -37 11 -20 1 -40 8 -44 14 -5 7 -11 10
-14 6 -4 -3 -46 7 -93 23 -99 34 -291 91 -309 92 -7 0 -13 4 -13 9 0 4 -11 8
-25 8 -18 0 -25 5 -25 20 0 18 5 19 68 14 37 -3 85 -10 107 -15z m-198 5 c-3
-3 -12 -4 -19 -1 -8 3 -5 6 6 6 11 1 17 -2 13 -5z m-1097 -1009 l0 -765 -28 0
c-16 0 -334 -16 -708 -35 -373 -19 -809 -42 -969 -50 -264 -14 -656 -35 -957
-52 -65 -3 -118 -4 -118 -1 0 7 427 409 613 576 729 657 1277 1039 1557 1085
14 2 157 5 318 6 l292 1 0 -765z m929 755 c525 -55 1567 -531 1867 -853 117
-125 175 -233 182 -342 3 -61 1 -74 -20 -105 -13 -19 -42 -45 -66 -56 -46 -24
-42 -23 -527 -44 -327 -15 -1597 -78 -1717 -86 l-98 -6 0 751 0 751 143 0 c78
0 184 -5 236 -10z m-3779 -3310 c0 -5 -8 -10 -17 -10 -15 0 -16 2 -3 10 19 12
20 12 20 0z m155 0 c3 -5 1 -10 -4 -10 -6 0 -11 5 -11 10 0 6 2 10 4 10 3 0 8
-4 11 -10z m4565 0 c0 -5 -5 -10 -11 -10 -5 0 -7 5 -4 10 3 6 8 10 11 10 2 0
4 -4 4 -10z m155 0 c3 -5 1 -10 -4 -10 -6 0 -11 5 -11 10 0 6 2 10 4 10 3 0 8
-4 11 -10z m-4945 -16 c0 -11 -6 -13 -20 -9 -11 3 -20 2 -20 -3 0 -6 -12 -13
-27 -17 -15 -3 -30 -10 -33 -13 -3 -4 -34 -21 -70 -39 -78 -38 -119 -71 -225
-179 -94 -95 -130 -144 -179 -241 -63 -123 -66 -142 -66 -412 0 -215 -2 -242
-15 -231 -8 7 -15 19 -15 26 0 8 -3 14 -8 14 -4 0 -16 17 -27 37 -19 34 -20
56 -20 302 l0 266 32 65 c70 140 226 289 388 370 122 61 305 99 305 64z m402
0 c48 -8 152 -49 219 -86 141 -80 266 -208 335 -344 l39 -77 0 -266 0 -266
-36 -57 c-20 -32 -39 -55 -43 -51 -3 3 -6 113 -6 243 0 144 -4 250 -11 271
-22 70 -82 185 -134 258 -93 132 -279 295 -360 315 -14 4 -25 11 -25 16 0 6
-6 10 -12 10 -7 0 -26 7 -41 15 -15 8 -34 12 -42 8 -10 -3 -15 1 -15 11 0 17
36 17 132 0z m4278 -5 c0 -11 -11 -20 -30 -24 -16 -4 -30 -11 -30 -16 0 -5 -3
-8 -7 -7 -14 4 -96 -44 -158 -90 -169 -127 -298 -297 -356 -472 -16 -47 -19
-88 -19 -292 0 -131 -3 -238 -8 -238 -4 0 -23 26 -42 58 l-35 57 -3 242 c-5
278 -1 300 77 418 113 171 314 317 501 363 90 22 110 22 110 1z m50 5 c0 -9
-7 -14 -17 -12 -25 5 -28 28 -4 28 12 0 21 -6 21 -16z m298 4 c-7 -19 -38 -22
-38 -4 0 10 9 16 21 16 12 0 19 -5 17 -12z m134 -14 c205 -53 417 -227 520
-425 l33 -64 0 -275 0 -275 -27 -36 c-16 -20 -28 -41 -28 -48 0 -7 -6 -11 -12
-9 -10 4 -14 68 -18 259 l-5 254 -38 83 c-69 155 -164 276 -296 381 -81 65
-167 117 -183 113 -5 -1 -8 2 -8 7 0 5 -13 12 -30 16 -20 4 -30 13 -30 24 0
21 26 20 122 -5z m-4892 -285 c122 -28 249 -117 323 -226 63 -93 88 -167 94
-284 6 -114 -5 -174 -53 -274 -137 -292 -521 -400 -794 -225 -70 45 -163 148
-199 222 -34 69 -61 178 -61 248 0 232 161 449 389 527 74 25 220 31 301 12z
m4735 -4 c181 -48 336 -202 390 -389 23 -78 23 -214 0 -291 -55 -192 -196
-334 -389 -392 -73 -23 -226 -22 -296 2 -197 65 -330 199 -385 390 -23 77 -23
213 0 291 53 185 208 340 386 388 72 20 220 20 294 1z m-5575 -887 c27 -52
150 -232 162 -236 4 -2 8 -13 8 -23 0 -18 -4 -17 -44 11 -53 38 -95 82 -130
134 -21 31 -26 51 -26 97 0 33 2 59 4 59 2 0 14 -19 26 -42z m4797 -117 c67
-97 93 -140 84 -145 -12 -8 -117 83 -153 133 -27 37 -33 55 -36 110 l-3 66 35
-55 c19 -30 52 -80 73 -109z m1338 9 c-28 -44 -125 -149 -125 -135 0 4 -9 0
-20 -10 -11 -10 -22 -16 -24 -14 -2 2 40 69 93 149 l96 145 3 -47 c2 -37 -3
-56 -23 -88z m-4699 73 c-6 -47 -33 -98 -78 -145 -34 -37 -118 -99 -118 -88 0
5 25 45 56 87 30 43 71 104 90 136 44 71 59 74 50 10z"/>
</g>
</svg>
