<?xml version="1.0" standalone="no"?>
<!DOCTYPE svg PUBLIC "-//W3C//DTD SVG 20010904//EN"
 "http://www.w3.org/TR/2001/REC-SVG-20010904/DTD/svg10.dtd">
<svg version="1.0" xmlns="http://www.w3.org/2000/svg"
 width="2048.000000pt" height="2048.000000pt" viewBox="0 0 2048.000000 2048.000000"
 preserveAspectRatio="xMidYMid meet">
<metadata>
Created by potrace 1.13, written by Peter Selinger 2001-2015
</metadata>
<g transform="translate(0.000000,2048.000000) scale(0.192120,-0.192120)"
fill="#000000" stroke="none">
<path d="M8522 10310 c-100 -26 -174 -71 -254 -151 -95 -96 -158 -237 -158
-354 l0 -35 1110 0 1110 0 0 280 0 280 -867 -1 c-823 0 -872 -1 -941 -19z
m1578 -281 l0 -70 -807 4 c-445 2 -818 7 -830 11 -28 10 -30 37 -5 59 25 23
96 47 167 56 33 5 378 9 768 10 l707 1 0 -71z M6005 9749 c-225 -55 -581 -184
-984 -356 -110 -46 -161 -72 -147 -73 16 0 423 91 536 121 63 17 213 59 333
94 367 108 237 98 1292 104 856 6 933 7 962 23 38 21 73 64 73 89 0 18 -30 19
-992 18 -952 0 -996 -1 -1073 -20z M10286 9685 c-20 -36 -36 -75 -36 -85 0
-11 -4 -20 -10 -20 -7 0 -10 -397 -10 -1170 0 -773 3 -1170 10 -1170 6 0 10
-6 10 -12 0 -7 18 -40 40 -73 l40 -60 0 1328 c0 730 -2 1327 -4 1327 -2 0 -20
-29 -40 -65z M4356 9095 c-807 -387 -1553 -825 -2091 -1227 -209 -156 -340
-263 -443 -362 -40 -39 -79 -74 -87 -78 -17 -10 -205 -216 -235 -258 l-21 -29
33 14 c123 52 275 150 314 201 34 44 53 98 54 151 l0 43 2193 2 2192 3 66 22
c171 59 309 198 362 368 21 67 22 86 22 445 0 340 -2 380 -19 430 -31 92 -77
169 -137 230 -64 65 -121 101 -218 139 l-66 26 -830 2 -830 2 -259 -124z
m1957 -143 c35 -14 81 -45 115 -77 l57 -53 0 -428 0 -429 -33 -47 c-40 -58
-84 -93 -154 -121 l-53 -22 -1783 -3 c-1225 -1 -1796 1 -1823 8 -85 23 -51 52
369 314 358 223 837 487 1257 691 285 139 361 171 437 184 29 5 391 8 803 7
l750 -1 58 -23z M7182 9201 c-66 -23 -126 -79 -158 -146 l-24 -50 0 -620 0
-620 24 -50 c43 -93 153 -165 251 -165 92 0 191 60 243 148 l27 47 0 640 0
640 -22 41 c-31 59 -106 121 -166 139 -66 20 -110 19 -175 -4z m136 -819 l2
-573 -22 -8 c-34 -12 -69 -1 -79 26 -15 40 -12 1106 3 1121 7 7 30 12 53 10
l40 -3 3 -573z M8299 9205 c-56 -18 -132 -83 -162 -139 l-22 -41 0 -640 c0
-638 0 -640 22 -681 12 -22 40 -57 63 -78 83 -74 46 -71 719 -74 518 -2 611
-1 656 13 69 20 145 87 174 155 21 49 21 54 19 677 -3 585 -4 630 -21 665 -26
52 -83 107 -136 132 -45 21 -58 21 -656 23 -505 2 -618 -1 -656 -12z m1229
-238 c9 -6 12 -135 12 -588 l0 -580 -35 -15 c-30 -12 -119 -14 -583 -12 -505
3 -550 4 -575 21 l-27 17 0 569 c0 600 -1 582 45 594 33 8 1149 3 1163 -6z
M1352 6973 c-41 -57 -122 -221 -147 -295 -53 -160 -54 -312 -4 -503 59 -226
203 -465 413 -683 80 -83 238 -222 321 -283 6 -4 80 12 165 37 950 274 2182
545 3350 738 1534 253 3200 416 4613 452 l267 7 0 279 0 278 -4479 0 -4480 0
-19 -27z m7821 -260 c96 -4 137 -10 137 -18 0 -8 -36 -14 -117 -18 -65 -3
-156 -10 -203 -16 -127 -16 -253 -28 -585 -56 -591 -50 -907 -83 -1645 -175
-1510 -189 -3056 -488 -4430 -859 -282 -77 -313 -81 -375 -51 -59 29 -218 179
-300 285 -71 91 -150 225 -192 323 -27 65 -28 74 -31 268 -3 190 -2 204 18
243 11 23 35 51 53 61 32 20 77 20 3783 20 2063 0 3812 -3 3887 -7z M10286
6271 c-20 -32 -36 -66 -36 -74 0 -9 -4 -19 -10 -22 -6 -4 -10 -218 -10 -609 0
-665 -5 -605 66 -723 l34 -57 0 772 c0 425 -2 772 -4 772 -3 0 -21 -26 -40
-59z M2155 5068 c80 -50 301 -153 411 -191 56 -20 155 -48 220 -63 108 -25
140 -28 359 -32 232 -4 240 -5 255 -25 49 -71 402 -453 449 -486 l28 -20 32
28 c42 38 40 68 -10 175 -32 70 -38 90 -29 102 11 12 425 14 3121 14 l3109 0
0 -105 0 -105 -2842 0 c-1589 0 -2905 -4 -2983 -9 -78 -5 -154 -15 -170 -22
-48 -20 -75 -50 -75 -81 l0 -28 3109 0 c1829 0 3112 -4 3115 -9 3 -5 -3 -29
-14 -52 -11 -24 -20 -54 -20 -66 0 -13 -4 -23 -10 -23 -6 0 -10 -87 -10 -240
0 -153 4 -240 10 -240 6 0 10 -7 10 -17 0 -9 21 -52 46 -95 25 -44 44 -81 42
-84 -2 -2 -1149 -4 -2548 -4 l-2545 -1 -96 24 c-325 84 -656 292 -1096 688
l-131 119 -1781 0 -1781 0 0 -835 0 -835 835 0 834 0 -2 -1110 -2 -1110 558 0
557 0 0 1110 0 1110 833 0 832 0 -3 -1110 -2 -1110 560 0 560 0 -2 1110 -3
1110 833 0 832 0 0 -1110 0 -1110 558 0 557 0 -2 1110 -2 1110 834 0 835 0 0
1113 0 1112 -3397 -3 c-1869 -2 -3430 0 -3469 3 l-71 6 -12 39 c-13 45 -48 76
-100 89 -20 5 -99 12 -176 15 -165 8 -276 25 -440 66 -142 37 -129 33 -235 58
-88 21 -273 52 -306 52 -12 0 -1 -12 31 -32z m1705 -1091 c19 -9 91 -64 158
-122 377 -320 648 -487 895 -551 196 -51 25 -47 2697 -53 2300 -6 2487 -7
2516 -23 34 -18 114 -95 114 -109 0 -5 -2080 -9 -4910 -9 -2701 0 -4910 3
-4910 8 0 4 18 36 40 72 22 36 40 73 40 83 0 9 5 17 10 17 6 0 10 18 10 40 0
22 5 40 10 40 6 0 10 105 10 295 0 256 2 295 15 295 8 0 15 9 15 20 0 20 2 20
1628 18 1530 -3 1629 -4 1662 -21z m6190 -1106 l0 -39 -627 -5 c-691 -5 -686
-4 -780 -68 -52 -36 -162 -157 -169 -186 -4 -13 -10 -23 -15 -23 -5 0 -9 -9
-9 -20 0 -11 -7 -20 -15 -20 -13 0 -15 -21 -15 -125 0 -118 -1 -125 -20 -125
-17 0 -20 -7 -20 -40 l0 -40 -285 0 -285 0 0 40 c0 29 -4 40 -15 40 -13 0 -15
21 -15 125 0 77 -4 125 -10 125 -5 0 -10 9 -10 20 0 11 -4 20 -8 20 -5 0 -12
12 -18 26 -13 36 -121 156 -168 188 -94 62 -83 61 -841 61 -732 0 -733 0 -830
-48 -48 -23 -193 -171 -201 -204 -4 -13 -10 -23 -15 -23 -5 0 -9 -9 -9 -20 0
-11 -4 -20 -10 -20 -6 0 -10 -48 -10 -125 0 -118 -1 -125 -20 -125 -17 0 -20
-7 -20 -40 l0 -40 -290 0 -290 0 0 40 c0 29 -4 40 -15 40 -13 0 -15 21 -15
125 0 77 -4 125 -10 125 -5 0 -10 9 -10 19 0 11 -3 21 -7 23 -5 2 -16 19 -26
39 -25 48 -141 166 -186 188 -92 46 -99 46 -821 46 -721 0 -729 0 -820 -46
-44 -22 -199 -177 -207 -206 -3 -13 -9 -23 -14 -23 -5 0 -9 -9 -9 -20 0 -11
-4 -20 -10 -20 -6 0 -10 -48 -10 -125 0 -118 -1 -125 -20 -125 -17 0 -20 -7
-20 -40 l0 -40 -285 0 -285 0 0 40 c0 29 -4 40 -15 40 -13 0 -15 21 -15 125 0
96 -3 125 -13 125 -7 0 -18 20 -25 44 -9 35 -31 64 -100 134 -140 143 -89 134
-864 139 l-638 5 0 39 0 39 4730 0 4730 0 0 -39z m-7068 -879 l38 -7 -55 -80
c-30 -44 -55 -88 -55 -97 0 -10 -4 -18 -10 -18 -7 0 -10 -195 -10 -565 0 -558
0 -565 -20 -565 -17 0 -20 -7 -20 -45 l0 -45 -305 0 -305 0 0 45 c0 33 -4 45
-15 45 -13 0 -15 69 -15 565 0 370 -3 565 -10 565 -5 0 -10 7 -10 16 0 9 -24
53 -54 99 l-55 84 32 4 c57 7 831 6 869 -1z m2771 2 l45 -6 -54 -83 c-30 -46
-54 -90 -54 -99 0 -9 -7 -16 -15 -16 -13 0 -15 -69 -15 -565 0 -558 0 -565
-20 -565 -17 0 -20 -7 -20 -45 l0 -45 -300 0 -300 0 0 45 c0 33 -4 45 -15 45
-13 0 -15 69 -15 565 0 475 -2 565 -14 565 -8 0 -17 15 -20 33 -4 19 -26 63
-51 98 l-45 64 33 6 c43 8 802 11 860 3z m2780 0 l45 -7 -41 -61 c-23 -33 -45
-62 -49 -64 -4 -2 -10 -19 -14 -38 -3 -19 -12 -34 -20 -34 -12 0 -14 -90 -14
-565 0 -558 0 -565 -20 -565 -17 0 -20 -7 -20 -45 l0 -45 -305 0 -305 0 0 45
c0 33 -4 45 -15 45 -13 0 -15 69 -15 565 0 370 -3 565 -10 565 -5 0 -10 6 -10
14 0 13 -47 101 -84 158 -17 27 -17 27 11 31 46 7 816 8 866 1z"/>
</g>
</svg>
