<?xml version="1.0" standalone="no"?>
<!DOCTYPE svg PUBLIC "-//W3C//DTD SVG 20010904//EN"
 "http://www.w3.org/TR/2001/REC-SVG-20010904/DTD/svg10.dtd">
<svg version="1.0" xmlns="http://www.w3.org/2000/svg"
 width="2048.000000pt" height="2048.000000pt" viewBox="0 0 2048.000000 2048.000000"
 preserveAspectRatio="xMidYMid meet">
<metadata>
Created by potrace 1.13, written by Peter Selinger 2001-2015
</metadata>
<g transform="translate(0.000000,2048.000000) scale(0.192120,-0.192120)"
fill="#000000" stroke="none">
<path d="M3400 8922 c-75 -25 -126 -59 -187 -126 -74 -81 -97 -145 -97 -271 0
-81 4 -111 23 -158 26 -67 110 -163 176 -201 91 -54 132 -58 523 -52 433 6
350 6 757 0 238 -4 358 -2 400 6 177 34 317 189 332 368 15 176 -80 337 -245
415 l-67 32 -365 -1 c-201 0 -385 -1 -410 -2 -25 -1 -211 0 -415 3 -337 4
-375 3 -425 -13z m765 -88 c109 -95 146 -104 465 -104 129 0 261 -4 293 -10
73 -12 128 -38 143 -67 6 -13 19 -32 28 -42 24 -27 31 -92 16 -147 -17 -59
-107 -154 -165 -173 -29 -10 -121 -15 -330 -18 -326 -4 -342 -7 -410 -74 l-41
-39 -44 28 c-108 69 -180 203 -180 338 0 106 61 240 138 304 44 37 49 37 87 4z
m-411 -196 c10 -39 7 -224 -5 -258 l-12 -32 -116 4 c-130 4 -194 26 -231 78
-27 38 -29 149 -2 172 48 42 106 55 253 57 103 1 107 0 113 -21z M2852 8099
c-340 -57 -790 -486 -1062 -1013 -31 -61 -247 -419 -480 -794 l-423 -683 -51
-26 c-234 -118 -391 -352 -465 -697 -22 -98 -44 -313 -34 -329 6 -9 106 121
133 173 9 19 36 96 60 170 81 259 154 367 367 543 121 101 188 186 330 427 27
47 139 229 248 404 249 403 380 619 435 721 176 323 334 534 525 700 75 65
131 102 220 148 132 68 190 84 355 97 150 13 198 33 217 93 16 49 9 63 -35 71
-53 8 -277 5 -340 -5z M5188 8103 c-36 -4 -38 -6 -38 -38 0 -24 8 -42 29 -62
60 -61 -65 -57 1991 -63 2017 -7 1930 -4 2066 -53 219 -79 440 -272 546 -477
88 -172 93 -195 178 -730 141 -895 170 -1100 181 -1280 5 -85 13 -200 19 -255
5 -55 9 -151 10 -212 0 -69 4 -113 10 -113 6 0 10 -20 10 -45 0 -25 5 -45 10
-45 6 0 10 -6 10 -13 0 -7 27 -53 61 -102 l61 -90 -5 345 c-5 414 -10 451
-208 1720 -107 690 -106 684 -198 875 -87 179 -242 366 -384 464 -127 87 -297
150 -462 170 -63 8 -651 10 -1970 9 -1034 -1 -1897 -3 -1917 -5z M2526 7508
c-13 -24 -255 -448 -538 -943 -283 -495 -522 -912 -532 -927 l-18 -28 1251 0
1251 0 0 970 0 970 -695 0 -694 0 -25 -42z m1204 -938 l0 -770 -937 1 c-516 1
-951 4 -968 8 -25 5 -31 12 -33 39 -3 27 57 138 369 685 454 796 445 782 512
797 17 4 263 8 545 9 l512 1 0 -770z M7550 7135 l0 -415 -415 0 -415 0 0 -281
0 -280 415 3 415 3 0 -417 0 -418 280 0 280 0 0 418 0 417 415 -3 415 -3 0
280 0 281 -415 0 -415 0 0 415 0 415 -280 0 -280 0 0 -415z m340 -95 c0 -160
4 -250 10 -250 6 0 10 -16 10 -35 0 -19 4 -35 9 -35 5 0 12 -11 15 -25 4 -14
11 -25 16 -25 6 0 10 -7 10 -15 0 -9 31 -46 68 -84 75 -75 142 -108 240 -118
72 -8 69 -29 -5 -35 -80 -6 -154 -45 -235 -124 -38 -36 -68 -70 -68 -75 0 -5
-4 -9 -10 -9 -5 0 -12 -11 -16 -25 -3 -14 -10 -25 -15 -25 -5 0 -9 -9 -9 -20
0 -11 -4 -20 -10 -20 -6 0 -10 -85 -10 -235 l0 -235 -60 0 -60 0 0 235 c0 193
-2 235 -14 235 -7 0 -16 13 -19 29 -8 37 -23 57 -117 151 -85 85 -155 120
-240 120 -38 0 -50 4 -50 15 0 11 11 15 39 15 63 0 165 37 218 79 27 21 66 64
88 97 22 32 44 62 49 65 4 4 11 27 13 53 4 30 10 46 19 46 12 0 14 45 14 250
l0 250 60 0 60 0 0 -250z M330 4080 l0 -420 5000 0 5000 0 0 420 0 420 -5000
0 -5000 0 0 -420z m9720 -10 l0 -170 -4730 0 -4730 0 0 170 0 170 4730 0 4730
0 0 -170z M10287 3571 c-34 -52 -49 -73 -87 -118 -5 -7 -10 -18 -10 -26 0 -7
-4 -17 -9 -22 -5 -6 -11 -161 -14 -345 l-4 -335 -36 -125 c-52 -181 -90 -251
-210 -392 -89 -105 -248 -208 -300 -194 -34 8 -38 15 -98 207 -110 356 -289
636 -545 854 -205 176 -306 230 -589 315 -16 5 -93 19 -170 31 -181 28 -558
31 -730 6 -102 -15 -134 -21 -247 -46 -273 -61 -601 -291 -807 -566 -159 -212
-253 -407 -321 -670 -38 -147 -47 -171 -79 -212 l-26 -33 -687 0 -687 0 -26
44 c-14 25 -39 98 -55 163 -43 176 -75 264 -146 408 -141 288 -310 486 -575
676 -121 87 -223 132 -444 199 -16 5 -93 19 -170 31 -113 17 -186 21 -375 22
-372 1 -598 -38 -832 -146 -172 -79 -399 -261 -544 -437 -138 -168 -276 -436
-334 -645 -32 -119 -49 -161 -76 -184 -31 -27 -33 -27 -103 8 -97 50 -182 119
-250 206 -115 146 -158 239 -197 427 -22 109 -24 138 -24 427 0 201 -4 311
-10 311 -5 0 -10 7 -10 15 0 9 -5 21 -10 28 -6 7 -31 44 -56 82 -26 39 -51 75
-56 80 -6 6 -8 -175 -5 -470 4 -514 5 -519 60 -680 56 -163 146 -303 275 -427
105 -101 183 -156 308 -215 142 -67 260 -94 434 -100 l145 -5 -25 27 c-14 15
-46 38 -72 51 -56 28 -139 32 -232 9 l-59 -14 7 87 c33 426 263 858 606 1135
615 497 1481 498 2096 4 353 -285 587 -727 611 -1155 l6 -113 -59 26 c-83 37
-186 45 -239 17 -22 -11 -51 -32 -64 -46 l-24 -26 1223 0 1223 0 -21 23 c-12
13 -43 34 -68 46 -62 31 -155 26 -238 -12 l-59 -27 6 112 c20 354 179 713 442
995 633 679 1693 709 2366 65 288 -274 476 -663 505 -1044 l7 -86 -69 15
c-107 23 -189 14 -251 -25 -28 -18 -54 -40 -57 -49 -6 -14 9 -15 141 -10 174
6 283 32 429 101 125 59 203 114 307 215 130 126 218 264 274 426 54 158 55
172 60 625 2 234 3 451 1 482 l-3 58 -38 -59z M2649 2815 c-228 -38 -433 -145
-601 -311 -199 -198 -312 -452 -325 -730 -30 -639 470 -1164 1108 -1164 509 0
942 337 1077 838 23 87 26 115 26 272 0 158 -3 185 -27 273 -150 560 -697 917
-1258 822z m-259 -417 c0 -7 -18 -31 -40 -52 -55 -54 -173 -210 -206 -271 -69
-131 -68 -126 -74 -420 l-6 -270 -2 354 c-2 345 -1 356 20 400 27 59 180 211
244 245 57 29 64 31 64 14z m962 -27 c68 -43 170 -148 206 -211 30 -52 32 -61
31 -155 0 -55 -3 -93 -6 -85 -19 52 -82 174 -116 225 -38 57 -127 169 -152
190 -6 6 -20 22 -29 38 -18 26 -18 27 1 27 10 0 40 -13 65 -29z m-377 -116
c181 -48 336 -202 390 -389 23 -78 23 -214 0 -291 -55 -192 -196 -334 -389
-392 -73 -23 -226 -22 -296 2 -197 65 -330 199 -385 390 -23 77 -23 213 0 291
53 185 208 340 386 388 72 20 220 20 294 1z m-740 -1030 c30 -38 72 -90 94
-115 22 -25 40 -52 41 -60 0 -9 -3 -11 -8 -5 -4 6 -14 11 -22 13 -54 12 -180
125 -233 210 -24 37 -27 51 -27 134 l0 93 51 -100 c27 -55 74 -131 104 -170z
m1340 118 c-12 -81 -135 -221 -242 -277 -51 -26 -42 -1 31 87 72 86 126 169
177 270 l34 68 3 -53 c2 -29 1 -72 -3 -95z M7649 2815 c-228 -38 -433 -145
-601 -311 -199 -198 -312 -452 -325 -730 -30 -639 470 -1164 1108 -1164 509 0
942 337 1077 838 23 87 26 115 26 272 0 158 -3 185 -27 273 -150 560 -697 917
-1258 822z m-259 -417 c0 -7 -18 -31 -40 -52 -55 -54 -173 -210 -206 -271 -69
-131 -68 -126 -74 -420 l-6 -270 -2 354 c-2 345 -1 356 20 400 27 59 180 211
244 245 57 29 64 31 64 14z m962 -27 c68 -43 170 -148 206 -211 30 -52 32 -61
31 -155 0 -55 -3 -93 -6 -85 -19 52 -82 174 -116 225 -38 57 -127 169 -152
190 -6 6 -20 22 -29 38 -18 26 -18 27 1 27 10 0 40 -13 65 -29z m-377 -116
c181 -48 336 -202 390 -389 23 -78 23 -214 0 -291 -55 -192 -196 -334 -389
-392 -73 -23 -226 -22 -296 2 -197 65 -330 199 -385 390 -23 77 -23 213 0 291
53 185 208 340 386 388 72 20 220 20 294 1z m-740 -1030 c30 -38 72 -90 94
-115 22 -25 40 -52 41 -60 0 -9 -3 -11 -8 -5 -4 6 -14 11 -22 13 -54 12 -180
125 -233 210 -24 37 -27 51 -27 134 l0 93 51 -100 c27 -55 74 -131 104 -170z
m1340 118 c-12 -81 -135 -221 -242 -277 -51 -26 -42 -1 31 87 72 86 126 169
177 270 l34 68 3 -53 c2 -29 1 -72 -3 -95z"/>
</g>
</svg>
