<?xml version="1.0" standalone="no"?>
<!DOCTYPE svg PUBLIC "-//W3C//DTD SVG 20010904//EN"
 "http://www.w3.org/TR/2001/REC-SVG-20010904/DTD/svg10.dtd">
<svg version="1.0" xmlns="http://www.w3.org/2000/svg"
 width="2048.000000pt" height="2048.000000pt" viewBox="0 0 2048.000000 2048.000000"
 preserveAspectRatio="xMidYMid meet">
<metadata>
Created by potrace 1.13, written by Peter Selinger 2001-2015
</metadata>
<g transform="translate(0.000000,2048.000000) scale(0.192120,-0.192120)"
fill="#000000" stroke="none">
<path d="M4045 9755 c-272 -59 -506 -260 -601 -515 -40 -108 -52 -170 -31
-170 37 0 118 78 186 180 125 187 213 264 366 319 166 60 188 61 1366 61 926
0 1083 -2 1176 -16 241 -36 414 -135 522 -301 28 -43 67 -102 87 -131 51 -76
144 -139 144 -99 0 7 -9 46 -21 87 -81 293 -326 522 -628 586 -94 20 -2475 19
-2566 -1z M4221 9293 c1 -115 3 -200 6 -190 2 9 9 17 14 17 5 0 9 18 9 40 0
29 4 40 15 40 12 0 15 16 15 85 0 69 3 85 15 85 8 0 15 8 15 18 0 18 16 20
233 28 305 11 1282 11 1565 0 206 -9 222 -11 222 -28 0 -12 7 -18 24 -18 22 0
23 -4 29 -82 3 -45 10 -84 16 -86 6 -2 11 -21 11 -43 0 -21 4 -39 9 -39 5 0
12 -8 14 -17 3 -10 5 75 6 190 l1 207 -1110 0 -1110 0 1 -207z M4775 9080 l7
-140 -700 0 -699 0 5 50 c3 38 1 50 -9 50 -65 0 -496 -83 -597 -115 -458 -146
-843 -790 -1122 -1880 -41 -159 -111 -488 -134 -626 l-6 -36 -63 26 -62 26
-375 0 -375 0 -67 -32 c-304 -144 -332 -552 -50 -732 82 -52 135 -61 344 -61
l188 0 -19 -37 c-60 -119 -118 -354 -142 -573 -9 -86 -12 -590 -12 -2020 l0
-1905 26 -80 c60 -182 209 -322 393 -369 52 -14 137 -16 547 -16 314 0 505 4
539 11 95 20 197 76 269 148 133 134 169 241 169 502 l0 167 -517 5 c-429 4
-531 7 -593 21 -252 54 -444 165 -580 333 -95 117 -152 233 -199 402 l-19 67
39 58 c22 32 39 65 39 75 0 9 -14 45 -30 79 -17 35 -30 66 -30 68 0 2 175 4
388 4 l389 0 27 -49 c32 -59 82 -106 133 -122 62 -21 698 -24 810 -5 179 30
356 152 463 317 69 108 75 139 75 424 -1 236 -2 253 -23 306 -68 170 -232 337
-397 407 -113 47 -189 54 -547 50 -323 -3 -334 -4 -384 -26 -63 -29 -106 -72
-134 -133 l-20 -47 -123 -7 c-140 -8 -632 -3 -642 6 -3 4 12 35 35 70 22 35
43 73 46 86 4 13 10 23 15 23 5 0 9 20 9 45 0 25 4 45 9 45 6 0 11 214 14 533
4 519 5 535 29 667 14 74 38 181 52 237 43 170 35 217 -58 326 -62 73 -111 95
-253 112 -145 18 -187 30 -239 66 -50 34 -64 69 -64 156 0 60 3 67 31 94 17
16 35 29 40 29 5 0 14 11 19 24 18 47 52 51 480 51 449 0 408 -7 501 92 83 89
97 124 155 384 125 561 248 945 410 1279 278 573 497 749 1005 811 85 10 105
10 170 -6 60 -15 127 -19 354 -23 332 -4 922 13 983 29 48 13 97 58 112 104
10 31 13 32 78 39 88 8 777 8 875 0 75 -7 77 -8 87 -39 15 -47 64 -91 114
-104 64 -16 661 -34 981 -29 223 4 294 8 350 22 80 20 158 17 318 -15 260 -52
383 -121 569 -319 109 -116 182 -223 270 -401 170 -340 306 -751 433 -1306 70
-307 86 -349 164 -435 83 -91 68 -88 451 -81 212 3 362 2 408 -5 89 -13 166
-48 170 -78 2 -12 12 -30 23 -40 28 -25 27 -123 -1 -149 -11 -10 -20 -26 -20
-36 0 -27 -65 -77 -123 -93 -28 -8 -90 -17 -137 -20 -160 -12 -219 -43 -300
-161 -50 -73 -50 -111 1 -306 l44 -164 3 -622 c2 -511 5 -623 16 -623 9 0 15
-18 18 -53 2 -30 10 -60 16 -68 29 -34 92 -142 87 -148 -10 -9 -502 -14 -643
-6 l-122 7 -21 48 c-25 59 -69 102 -134 132 -48 22 -60 23 -383 26 -377 4
-443 -3 -567 -62 -122 -57 -214 -141 -307 -278 -90 -132 -93 -148 -93 -428 0
-211 3 -252 18 -297 63 -180 276 -378 462 -428 80 -22 562 -39 726 -26 167 14
221 41 276 144 l26 47 389 0 c213 0 388 -2 388 -4 0 -1 -12 -25 -26 -52 -40
-73 -37 -120 8 -178 l36 -47 -19 -69 c-113 -409 -364 -646 -779 -736 -62 -14
-164 -17 -592 -21 l-518 -5 0 -167 c0 -262 37 -370 171 -503 74 -73 173 -128
267 -147 34 -7 226 -11 540 -11 541 0 548 1 672 66 123 64 223 183 264 315
l24 75 7 1075 c3 591 2 1495 -4 2009 -8 875 -10 942 -29 1045 -26 136 -64 259
-108 348 l-34 67 190 0 c165 0 199 3 251 20 78 27 124 56 177 114 192 209 125
536 -136 659 l-67 32 -375 0 -375 0 -62 -26 -63 -26 -6 36 c-23 138 -93 467
-134 626 -256 1002 -605 1632 -1015 1836 -114 56 -337 108 -669 155 l-49 7 5
-52 5 -51 -699 0 -700 0 7 140 8 140 -563 0 -563 0 8 -140z m-2080 -5435 c251
-66 437 -328 411 -582 -23 -228 -177 -419 -391 -486 -67 -21 -86 -22 -440 -22
-354 0 -373 1 -440 22 -232 73 -395 295 -395 538 0 73 34 197 72 264 71 125
214 233 351 267 82 20 754 19 832 -1z m6087 4 c29 -6 87 -27 128 -47 88 -41
188 -135 238 -223 38 -67 72 -191 72 -264 0 -247 -165 -469 -405 -542 -54 -16
-100 -18 -430 -18 -354 0 -373 1 -440 22 -219 69 -373 265 -391 498 -21 252
159 500 412 570 63 17 736 21 816 4z m-7519 -218 c2 -11 0 -41 -7 -68 -13 -56
-14 -414 -2 -520 11 -90 3 -103 -64 -103 -48 0 -48 0 -53 38 -2 20 -2 180 1
355 l5 317 57 0 c48 0 58 -3 63 -19z m8247 -337 l0 -356 -56 4 c-81 7 -90 31
-54 146 30 94 29 343 -1 453 -12 42 -19 85 -16 93 5 12 21 16 67 16 l60 0 0
-356z m-8260 -1715 c122 -83 268 -142 442 -181 82 -18 136 -21 466 -25 l372
-5 0 -51 c-1 -76 -29 -130 -87 -167 -86 -55 -91 -55 -593 -55 l-465 0 -58 24
c-65 26 -121 69 -143 112 -19 38 -21 404 -1 393 6 -4 37 -25 67 -45z m8220
-153 c0 -211 -3 -223 -80 -275 -84 -58 -140 -63 -625 -59 -470 4 -479 5 -566
66 -54 37 -89 101 -89 165 l0 45 383 5 c344 4 392 6 479 26 162 35 325 103
438 180 25 17 48 31 53 31 4 0 7 -83 7 -184z M4540 8377 c-3 -2 -86 -7 -185
-11 -787 -29 -1383 -163 -1733 -389 -139 -90 -267 -234 -322 -363 -14 -31 -63
-283 -135 -684 -63 -349 -126 -695 -140 -769 -14 -73 -25 -138 -25 -144 0 -6
23 -7 63 -3 365 39 964 83 1362 101 72 3 155 7 185 10 30 2 150 7 265 10 116
3 242 8 280 11 240 19 1966 19 2355 0 69 -3 197 -8 285 -11 536 -19 1358 -72
1713 -111 79 -9 146 -13 149 -11 3 3 -7 66 -21 139 -14 73 -75 412 -135 753
-61 341 -118 643 -127 670 -42 133 -185 305 -332 400 -105 67 -278 148 -419
194 -279 92 -716 165 -1113 186 -63 4 -128 9 -145 12 -36 6 -1818 16 -1825 10z
m1820 -137 c768 -40 1269 -147 1595 -339 167 -99 284 -223 334 -354 10 -30 63
-292 115 -583 93 -511 96 -534 96 -675 0 -80 -2 -148 -5 -150 -2 -3 -44 -1
-92 3 -355 31 -1166 78 -1748 100 -441 17 -2206 17 -2645 0 -574 -22 -1182
-56 -1630 -91 -124 -10 -228 -16 -233 -14 -4 2 -7 54 -7 114 0 95 12 179 85
587 141 786 133 758 274 906 126 132 367 260 618 330 390 108 915 167 1613
180 313 6 1435 -4 1630 -14z M2223 5740 c-86 -18 -158 -73 -199 -153 -10 -17
-19 -65 -22 -105 -4 -66 -2 -78 27 -137 18 -36 74 -127 124 -203 356 -532 751
-854 1118 -912 54 -8 615 -10 2109 -8 l2035 3 89 28 c49 15 123 44 165 63 165
76 399 256 565 435 171 183 395 491 417 571 26 98 -5 211 -78 280 -74 71 -202
92 -298 49 -64 -28 -88 -51 -142 -135 -113 -175 -305 -401 -438 -518 -97 -84
-220 -168 -295 -200 l-55 -23 -2010 0 -2010 0 -54 23 c-208 88 -502 395 -723
754 -33 54 -74 110 -91 124 -65 55 -156 80 -234 64z m118 -171 c51 -17 91 -60
200 -217 125 -178 199 -271 314 -391 165 -173 303 -269 441 -310 l72 -21 1983
2 1984 3 64 22 c196 67 427 269 669 583 167 217 207 256 267 265 59 9 119 1
150 -19 23 -15 25 -23 25 -91 0 -93 -6 -108 -90 -225 -277 -387 -618 -682
-890 -768 -150 -48 -84 -47 -2200 -47 -1569 0 -2011 3 -2068 13 -308 53 -625
299 -938 727 -172 235 -194 277 -194 364 0 49 4 65 20 79 46 38 128 52 191 31z
M3803 3645 c-196 -53 -347 -205 -399 -400 -18 -67 -17 -207 1 -280 48 -182
186 -323 385 -391 53 -18 110 -19 1535 -19 1243 0 1488 2 1530 14 194 55 351
211 400 396 8 33 15 99 15 147 0 231 -136 427 -357 516 l-68 27 -1495 2
c-1255 2 -1503 0 -1547 -12z m3042 -237 c69 -24 141 -73 171 -117 23 -34 24
-43 24 -181 0 -145 0 -147 -30 -193 -38 -61 -98 -102 -184 -130 l-71 -22
-1420 0 c-1092 0 -1432 3 -1472 12 -114 27 -205 90 -242 168 -18 38 -21 63
-21 171 0 136 5 153 70 212 34 31 137 81 191 91 24 5 694 8 1489 7 1340 -1
1449 -2 1495 -18z M2985 1603 c-71 -15 -98 -42 -114 -112 -8 -35 -6 -40 13
-45 28 -7 4864 -7 4892 0 19 5 21 10 13 45 -5 22 -16 51 -24 63 -36 54 116 51
-2415 52 -1290 1 -2354 0 -2365 -3z"/>
</g>
</svg>
