<?xml version="1.0" standalone="no"?>
<!DOCTYPE svg PUBLIC "-//W3C//DTD SVG 20010904//EN"
 "http://www.w3.org/TR/2001/REC-SVG-20010904/DTD/svg10.dtd">
<svg version="1.0" xmlns="http://www.w3.org/2000/svg"
 width="2048.000000pt" height="2048.000000pt" viewBox="0 0 2048.000000 2048.000000"
 preserveAspectRatio="xMidYMid meet">
<metadata>
Created by potrace 1.13, written by Peter Selinger 2001-2015
</metadata>
<g transform="translate(0.000000,2048.000000) scale(0.192120,-0.192120)"
fill="#000000" stroke="none">
<path d="M4955 8104 c-155 -18 -275 -53 -398 -115 -117 -59 -192 -113 -288
-209 -192 -189 -319 -471 -319 -706 l0 -74 -832 0 c-470 0 -883 -5 -948 -10
-377 -33 -641 -147 -865 -374 -100 -100 -101 -103 -212 -316 -61 -118 -258
-508 -437 -867 l-327 -652 4 -1058 c3 -940 5 -1065 20 -1124 56 -227 149 -396
303 -551 140 -141 319 -244 511 -295 88 -23 122 -26 326 -30 l227 -5 0 -48 c0
-26 7 -86 15 -133 94 -542 550 -927 1096 -927 577 0 1062 447 1105 1020 l7 90
1388 0 1389 0 0 -49 c0 -26 7 -87 15 -134 94 -542 550 -927 1096 -927 577 0
1062 447 1105 1019 l7 89 226 4 c203 5 236 8 324 31 198 53 374 156 518 304
125 129 202 251 256 408 53 153 55 178 60 564 l5 363 -4844 -6 c-2663 -3
-4905 -2 -4980 2 l-137 7 54 84 c30 46 55 92 55 102 0 11 5 19 10 19 6 0 10
18 10 40 0 22 4 40 10 40 6 0 11 189 12 523 2 412 6 529 17 557 51 132 746
1505 811 1603 148 224 397 360 751 412 89 12 234 15 878 15 764 0 771 0 771
-20 0 -13 7 -20 20 -20 20 0 20 -7 20 -1530 0 -1013 3 -1530 10 -1530 6 0 10
-20 10 -45 0 -25 5 -45 10 -45 6 0 10 -5 10 -10 0 -14 15 -33 65 -83 l40 -39
5 1763 c3 970 6 1765 8 1767 1 1 9 2 17 2 31 0 95 41 111 71 8 17 29 79 45
137 50 176 132 321 251 441 160 161 355 254 591 280 132 15 4228 15 4347 1
278 -35 490 -157 670 -388 96 -124 162 -293 181 -466 5 -49 14 -94 19 -101 6
-7 11 -622 12 -1679 2 -1185 6 -1669 14 -1674 6 -4 15 -20 21 -37 6 -16 32
-61 57 -100 l46 -70 -2 1875 -3 1875 -26 96 c-61 219 -154 378 -308 529 -151
147 -320 241 -528 292 l-88 22 -2195 2 c-1207 1 -2208 0 -2225 -2z m-940
-4932 c59 -7 1113 -11 3063 -11 2965 -1 2972 -1 2972 -21 0 -13 7 -20 20 -20
19 0 20 -7 20 -242 l0 -243 -33 -97 c-55 -159 -172 -321 -297 -413 -118 -87
-302 -154 -468 -170 -39 -4 -75 -11 -78 -16 -3 -5 -18 -9 -33 -9 -42 0 -145
-72 -193 -135 l-43 -55 -8 78 c-18 184 -91 382 -196 535 -60 87 -202 227 -286
284 -380 255 -870 255 -1250 0 -84 -57 -226 -197 -286 -284 -105 -153 -178
-351 -196 -535 l-8 -78 -46 58 c-27 33 -71 72 -105 92 l-58 35 -1176 3 -1177
2 -60 -39 c-33 -21 -80 -64 -104 -95 l-44 -57 -8 78 c-17 178 -88 377 -187
524 -59 87 -199 229 -284 288 -387 267 -885 267 -1272 0 -85 -59 -225 -201
-284 -288 -100 -149 -172 -351 -186 -523 l-7 -81 -20 29 c-36 51 -133 142
-175 163 -23 12 -59 21 -81 21 -134 0 -328 53 -443 120 -128 76 -272 231 -342
369 -62 121 -66 149 -66 442 l0 269 40 0 c34 0 40 3 40 20 l0 21 1628 -5
c1011 -2 1661 -8 1717 -14z m-1255 -602 c0 -5 -5 -10 -11 -10 -5 0 -7 5 -4 10
3 6 8 10 11 10 2 0 4 -4 4 -10z m155 0 c3 -5 1 -10 -4 -10 -6 0 -11 5 -11 10
0 6 2 10 4 10 3 0 8 -4 11 -10z m4845 0 c0 -5 -5 -10 -11 -10 -5 0 -7 5 -4 10
3 6 8 10 11 10 2 0 4 -4 4 -10z m155 0 c3 -5 1 -10 -4 -10 -6 0 -11 5 -11 10
0 6 2 10 4 10 3 0 8 -4 11 -10z m-5265 -21 c0 -11 -11 -20 -30 -24 -16 -4 -30
-11 -30 -16 0 -5 -3 -8 -7 -7 -14 4 -96 -44 -158 -90 -169 -127 -298 -297
-356 -472 -16 -47 -19 -89 -20 -285 -1 -219 -1 -228 -17 -195 -10 22 -17 74
-20 143 -3 81 -7 107 -18 107 -26 0 -34 40 -34 173 0 157 11 198 79 302 112
171 314 317 502 363 89 22 109 22 109 1z m50 5 c0 -9 -7 -14 -17 -12 -25 5
-28 28 -4 28 12 0 21 -6 21 -16z m298 4 c-7 -19 -38 -22 -38 -4 0 10 9 16 21
16 12 0 19 -5 17 -12z m134 -14 c205 -53 417 -227 520 -425 33 -64 33 -64 36
-232 4 -160 3 -169 -16 -174 -17 -4 -20 -16 -25 -106 -3 -59 -12 -117 -21
-137 -14 -33 -15 -24 -16 169 0 223 -7 268 -61 386 -63 140 -160 262 -288 364
-81 65 -167 117 -183 113 -5 -1 -8 2 -8 7 0 5 -13 12 -30 16 -20 4 -30 13 -30
24 0 21 26 20 122 -5z m4518 5 c0 -11 -11 -20 -30 -24 -16 -4 -30 -11 -30 -16
0 -5 -3 -8 -7 -7 -14 4 -96 -44 -158 -90 -169 -127 -298 -297 -356 -472 -16
-47 -19 -89 -20 -285 -1 -219 -1 -228 -17 -195 -10 22 -17 74 -20 143 -3 81
-7 107 -18 107 -26 0 -34 40 -34 173 0 157 11 198 79 302 112 171 314 317 501
363 90 22 110 22 110 1z m50 5 c0 -9 -7 -14 -17 -12 -25 5 -28 28 -4 28 12 0
21 -6 21 -16z m298 4 c-7 -19 -38 -22 -38 -4 0 10 9 16 21 16 12 0 19 -5 17
-12z m134 -14 c205 -53 417 -227 520 -425 33 -64 33 -64 36 -232 4 -160 3
-169 -16 -174 -17 -4 -20 -16 -25 -106 -3 -59 -12 -117 -21 -137 -14 -33 -15
-24 -16 169 0 223 -7 268 -61 386 -63 140 -160 262 -288 364 -81 65 -167 117
-183 113 -5 -1 -8 2 -8 7 0 5 -13 12 -30 16 -20 4 -30 13 -30 24 0 21 26 20
122 -5z m-5157 -289 c181 -48 336 -202 390 -389 23 -78 23 -214 0 -291 -55
-192 -196 -334 -389 -392 -73 -23 -226 -22 -296 2 -197 65 -330 199 -385 390
-23 77 -23 213 0 291 53 185 208 340 386 388 72 20 220 20 294 1z m5000 0
c181 -48 336 -202 390 -389 23 -78 23 -214 0 -291 -55 -192 -196 -334 -389
-392 -73 -23 -226 -22 -296 2 -197 65 -330 199 -385 390 -23 77 -23 213 0 291
53 185 208 340 386 388 72 20 220 20 294 1z m-5829 -928 c20 -34 49 -78 64
-97 45 -58 80 -119 72 -124 -13 -8 -117 83 -153 132 -24 33 -32 56 -36 104 -7
74 2 72 53 -15z m5000 0 c20 -34 49 -78 64 -97 45 -58 80 -119 72 -124 -13 -8
-117 83 -153 132 -24 33 -32 56 -36 104 -7 74 2 72 53 -15z m-3605 -55 c-20
-39 -131 -164 -131 -148 0 5 -9 1 -20 -9 -42 -38 -25 -6 68 134 l97 143 3 -40
c2 -26 -4 -55 -17 -80z m5000 0 c-20 -39 -131 -164 -131 -148 0 5 -9 1 -20 -9
-42 -38 -25 -6 68 134 l97 143 3 -40 c2 -26 -4 -55 -17 -80z M2148 6430 c-230
-39 -447 -182 -616 -405 -36 -48 -144 -252 -345 -650 -160 -319 -293 -584
-295 -590 -2 -7 326 -10 968 -10 l970 0 0 833 0 832 -317 -1 c-175 -1 -339 -5
-365 -9z m552 -830 l0 -710 -789 0 c-434 0 -796 3 -805 6 -12 4 -16 20 -16 55
0 44 21 92 194 437 252 503 273 538 399 665 141 142 280 217 454 247 26 4 164
8 306 9 l257 1 0 -710z"/>
</g>
</svg>
