<?xml version="1.0" standalone="no"?>
<!DOCTYPE svg PUBLIC "-//W3C//DTD SVG 20010904//EN"
 "http://www.w3.org/TR/2001/REC-SVG-20010904/DTD/svg10.dtd">
<svg version="1.0" xmlns="http://www.w3.org/2000/svg"
 width="2048.000000pt" height="2048.000000pt" viewBox="0 0 2048.000000 2048.000000"
 preserveAspectRatio="xMidYMid meet">
<metadata>
Created by potrace 1.13, written by Peter Selinger 2001-2015
</metadata>
<g transform="translate(0.000000,2048.000000) scale(0.192120,-0.192120)"
fill="#000000" stroke="none">
<path d="M5065 10323 c-1201 -72 -2278 -532 -3155 -1347 -681 -633 -1182
-1476 -1420 -2391 -264 -1014 -198 -2105 187 -3085 398 -1015 1140 -1891 2079
-2456 963 -578 2086 -814 3209 -673 908 114 1776 484 2496 1063 1100 885 1770
2178 1859 3586 105 1672 -638 3285 -1980 4302 -257 194 -504 345 -805 493
-603 297 -1215 460 -1890 505 -137 9 -457 11 -580 3z m555 -283 c838 -52 1614
-302 2305 -743 958 -612 1654 -1532 1968 -2602 57 -194 87 -326 127 -563 l30
-173 0 -624 c0 -583 -1 -633 -21 -752 -59 -365 -145 -685 -272 -1008 -124
-316 -242 -543 -445 -855 -343 -527 -775 -964 -1302 -1318 -624 -418 -1351
-687 -2100 -776 -1391 -166 -2787 274 -3805 1200 -456 415 -780 845 -1068
1421 -155 307 -315 779 -378 1108 -69 363 -71 390 -67 1030 l4 580 32 180 c67
369 161 696 288 1002 361 865 966 1591 1767 2116 861 566 1901 841 2937 777z
M5055 9190 c-267 -22 -555 -76 -805 -151 -279 -84 -634 -241 -786 -348 -120
-84 -254 -254 -254 -323 0 -37 45 -134 103 -221 53 -82 316 -348 2406 -2440
1290 -1292 2382 -2378 2426 -2414 147 -121 223 -139 316 -78 113 75 192 185
314 439 168 345 270 662 342 1051 25 134 26 159 30 579 4 408 3 448 -17 585
-59 400 -165 748 -347 1132 -247 520 -658 1028 -1131 1396 -546 426 -1207 698
-1892 778 -163 19 -553 27 -705 15z m675 -270 c700 -86 1320 -344 1858 -772
155 -124 416 -383 540 -536 397 -490 660 -1068 761 -1674 33 -197 42 -290 48
-513 18 -676 -142 -1307 -484 -1902 -36 -62 -68 -115 -72 -117 -10 -6 -4981
4965 -4975 4975 2 4 55 36 117 72 490 281 973 429 1567 481 81 7 553 -3 640
-14z M2194 7421 c-58 -38 -160 -138 -200 -196 -38 -54 -131 -237 -192 -375
-118 -267 -213 -579 -268 -880 -26 -140 -27 -162 -31 -590 -4 -372 -2 -464 12
-560 74 -534 256 -1036 547 -1514 485 -796 1238 -1397 2105 -1680 765 -249
1583 -246 2348 10 281 93 609 250 716 341 117 99 202 230 203 313 1 61 -44
153 -124 255 -76 97 -4694 4722 -4800 4808 -145 117 -218 132 -316 68z m2578
-2648 c1368 -1368 2485 -2490 2482 -2494 -2 -4 -55 -36 -117 -72 -487 -280
-985 -433 -1547 -478 -158 -13 -507 -7 -655 11 -705 83 -1304 333 -1874 781
-136 108 -412 382 -529 527 -446 551 -708 1178 -794 1897 -17 146 -17 626 0
765 66 534 211 978 465 1420 53 93 76 130 81 130 1 0 1120 -1119 2488 -2487z"/>
</g>
</svg>
