<?xml version="1.0" standalone="no"?>
<!DOCTYPE svg PUBLIC "-//W3C//DTD SVG 20010904//EN"
 "http://www.w3.org/TR/2001/REC-SVG-20010904/DTD/svg10.dtd">
<svg version="1.0" xmlns="http://www.w3.org/2000/svg"
 width="2048.000000pt" height="2048.000000pt" viewBox="0 0 2048.000000 2048.000000"
 preserveAspectRatio="xMidYMid meet">
<metadata>
Created by potrace 1.13, written by Peter Selinger 2001-2015
</metadata>
<g transform="translate(0.000000,2048.000000) scale(0.192120,-0.192120)"
fill="#000000" stroke="none">
<path d="M5245 8724 c-112 -25 -226 -84 -293 -151 -70 -69 -107 -141 -129
-249 -33 -159 14 -309 135 -437 65 -69 71 -78 77 -130 8 -64 3 -100 -27 -204
l-21 -72 -41 -7 c-120 -20 -318 -111 -461 -212 -111 -79 -307 -278 -381 -387
-34 -49 -125 -216 -202 -370 -136 -270 -227 -424 -326 -550 -54 -69 -52 -73
51 -74 l61 -1 26 44 c14 23 58 69 98 102 142 114 174 158 302 411 212 420 394
610 731 761 71 32 135 68 156 88 19 19 38 32 41 29 9 -9 28 79 28 129 l0 45
46 7 c90 13 290 -26 349 -70 18 -13 18 -14 -3 -41 -46 -58 -46 -129 -1 -217
64 -126 186 -272 252 -302 18 -8 62 -23 99 -34 l66 -19 23 21 23 21 -20 -25
c-45 -55 -225 -258 -240 -271 -16 -13 -16 -12 -5 6 11 18 9 30 -14 85 -44 106
-75 149 -144 206 -121 101 -208 123 -297 76 -48 -25 -144 -116 -202 -193 -75
-99 -90 -140 -208 -574 -26 -92 -9 -207 40 -277 l16 -22 52 54 c86 90 132 203
198 495 71 310 183 403 302 251 70 -90 143 -142 331 -236 191 -95 376 -171
525 -215 l93 -27 113 110 c101 99 119 112 171 128 108 31 229 -4 296 -86 29
-34 68 -134 57 -145 -3 -3 -38 -15 -78 -26 -101 -28 -121 -40 -217 -132 -128
-123 -223 -260 -223 -321 0 -30 55 -96 79 -96 9 0 103 87 208 193 148 147 197
204 214 242 12 28 41 67 64 87 111 98 100 237 -29 355 -53 49 -124 83 -170 83
-12 0 -41 -10 -66 -21 -153 -71 -500 51 -751 264 -64 54 -195 210 -291 347
-69 99 -118 155 -171 196 -45 35 -46 38 -28 51 34 23 98 42 199 58 127 20 153
29 188 66 33 34 33 34 19 279 -6 113 -4 137 19 243 17 77 33 125 46 139 55 59
-11 290 -110 387 -48 46 -132 92 -225 121 -93 30 -316 37 -420 14z m203 -325
c4 -23 -62 -84 -123 -116 -27 -14 -79 -45 -116 -70 -86 -58 -99 -53 -99 37 0
65 1 69 35 99 20 17 60 37 93 46 31 9 62 18 67 20 6 2 39 3 75 2 51 -2 65 -5
68 -18z m447 -183 c18 -13 16 -18 -51 -88 -83 -87 -120 -157 -139 -259 -19
-103 -24 -117 -54 -148 -34 -35 -167 -87 -258 -100 -151 -23 -221 -11 -257 44
l-17 26 26 -17 c20 -13 29 -14 37 -6 14 14 27 118 27 225 1 80 17 129 45 140
17 7 56 -3 108 -28 45 -22 68 -9 68 39 0 53 34 94 103 126 106 50 320 77 362
46z M6050 5885 l-275 -275 -175 0 -175 0 -318 118 c-298 111 -321 118 -365
111 -117 -19 -594 -6 -910 25 -85 8 -126 8 -131 1 -16 -20 -63 -148 -74 -201
l-11 -54 -1401 -2 c-1562 -3 -1429 3 -1515 -74 -66 -60 -85 -104 -85 -204 0
-100 19 -144 85 -204 72 -65 92 -70 322 -76 l206 -5 94 -135 c443 -640 869
-1055 1243 -1212 l80 -33 390 -3 390 -3 215 214 c225 225 296 280 403 317 79
27 196 36 267 21 l54 -12 656 656 656 656 47 -21 c53 -24 85 -21 150 12 154
78 445 346 502 462 22 45 27 66 22 102 -5 44 -37 94 -61 94 -6 0 -135 -124
-286 -275z m-778 -287 c9 -7 29 -53 44 -101 l29 -88 -20 -34 c-11 -18 -56 -73
-99 -122 -43 -48 -89 -110 -102 -137 -12 -27 -29 -53 -36 -57 -16 -11 -3649
-12 -3663 -1 -6 4 -23 32 -38 63 -18 38 -52 80 -101 126 -74 70 -74 71 -50 82
14 6 61 11 104 11 73 0 80 2 80 20 0 20 7 20 1013 20 556 1 1032 5 1056 9 80
16 116 58 127 147 3 27 7 55 10 62 3 9 175 12 817 12 635 0 817 -3 829 -12z
m-447 -659 c5 -14 -2 -34 -21 -62 -43 -67 -398 -412 -446 -436 -29 -13 -80
-24 -155 -31 -130 -12 -223 -38 -310 -86 -87 -48 -147 -98 -326 -270 -96 -93
-176 -162 -205 -176 -46 -22 -54 -23 -337 -23 -274 0 -292 1 -335 21 -62 29
-298 187 -394 263 -236 189 -615 615 -675 759 -28 67 -168 62 1598 62 l1600 0
6 -21z M5657 4712 l-897 -897 6 -78 7 -77 2352 0 2352 0 5 -65 c6 -69 28 -117
68 -146 36 -27 141 -39 348 -39 l182 0 0 -1425 0 -1425 -4760 0 -4760 0 0
1424 0 1425 898 3 c816 4 902 6 956 21 119 35 156 76 156 172 l0 55 -1097 0
c-604 0 -1108 3 -1120 6 l-23 6 0 -1671 0 -1671 5000 0 5000 0 0 1668 0 1667
-416 -3 -417 -3 6 33 c3 18 22 119 42 223 76 398 175 1022 175 1101 0 31 0 31
64 37 81 8 123 25 176 73 66 60 85 104 85 204 0 100 -19 144 -85 204 -86 77
76 71 -1760 73 l-1645 3 -898 -898z m2451 671 c1445 -4 1462 -4 1462 -23 0
-18 7 -20 59 -20 107 0 114 -17 47 -107 -48 -65 -76 -114 -76 -137 0 -8 -7
-22 -16 -30 -14 -14 -186 -16 -1740 -16 -948 0 -1724 4 -1724 8 0 4 42 35 93
69 50 34 136 100 189 146 124 109 166 133 218 120 14 -4 683 -8 1488 -10z
m1336 -530 c6 -95 2 -134 -29 -328 -45 -284 -92 -529 -112 -583 -9 -23 -25
-53 -37 -67 l-22 -25 -2065 2 c-2244 3 -2114 0 -2085 57 8 14 230 240 493 502
436 433 483 478 540 502 34 15 88 31 120 36 32 5 763 9 1624 10 l1566 1 7
-107z M4464 4167 c86 -55 108 -73 152 -117 27 -27 66 -78 88 -112 l38 -63 -4
75 c-9 152 -92 231 -239 229 -46 0 -51 -2 -35 -12z M4756 3515 c-41 -140 -49
-149 -540 -643 -261 -263 -486 -480 -519 -502 -123 -83 -270 -114 -408 -87
-310 61 -506 348 -449 658 5 30 29 92 51 139 38 76 59 101 228 273 l186 189
-81 -40 c-97 -49 -227 -144 -285 -210 -61 -69 -124 -169 -143 -229 -15 -44
-17 -84 -14 -252 l3 -199 44 -83 c24 -46 60 -104 79 -129 134 -169 350 -260
551 -231 91 13 196 53 271 104 60 40 855 830 936 931 36 43 77 104 91 135 29
62 40 147 26 201 l-10 35 -17 -60z"/>
</g>
</svg>
