<?xml version="1.0" standalone="no"?>
<!DOCTYPE svg PUBLIC "-//W3C//DTD SVG 20010904//EN"
 "http://www.w3.org/TR/2001/REC-SVG-20010904/DTD/svg10.dtd">
<svg version="1.0" xmlns="http://www.w3.org/2000/svg"
 width="2048.000000pt" height="2048.000000pt" viewBox="0 0 2048.000000 2048.000000"
 preserveAspectRatio="xMidYMid meet">
<metadata>
Created by potrace 1.13, written by Peter Selinger 2001-2015
</metadata>
<g transform="translate(0.000000,2048.000000) scale(0.192120,-0.192120)"
fill="#000000" stroke="none">
<path d="M8375 10319 c-785 -76 -1315 -511 -1460 -1199 -24 -112 -33 -281 -23
-407 30 -386 224 -701 523 -850 137 -69 303 -110 480 -119 335 -18 608 95 790
327 68 88 136 225 165 334 27 99 38 277 21 337 -18 65 -70 129 -132 163 -47
26 -64 30 -134 30 -63 0 -89 -5 -121 -22 -92 -49 -154 -145 -154 -240 0 -204
-106 -338 -314 -398 -43 -13 -84 -16 -151 -13 -82 3 -101 8 -168 41 -127 63
-213 173 -254 327 -28 103 -23 307 10 433 43 162 114 286 231 402 153 152 365
248 641 290 137 21 399 20 522 -1 420 -71 717 -333 858 -757 50 -151 69 -298
62 -492 -9 -243 -51 -414 -156 -630 -74 -150 -160 -272 -276 -389 -108 -110
-173 -161 -341 -267 -246 -155 -418 -292 -580 -462 -351 -368 -561 -796 -630
-1287 -20 -141 -20 -429 0 -493 61 -202 296 -267 451 -125 80 73 86 96 89 338
3 224 17 318 76 502 41 127 155 353 237 468 81 113 314 352 430 439 46 34 147
103 225 152 79 50 179 119 223 154 447 349 734 859 800 1420 66 565 -108 1122
-470 1504 -348 368 -886 547 -1470 490z m579 -228 c582 -117 995 -496 1146
-1053 20 -73 21 -97 18 -500 l-3 -423 -28 -90 c-98 -315 -264 -592 -487 -815
-99 -100 -196 -176 -382 -300 -184 -123 -235 -161 -353 -261 -437 -371 -705
-917 -705 -1437 0 -98 -2 -112 -19 -124 -11 -8 -21 -28 -23 -48 -4 -44 -39
-66 -91 -56 -68 13 -67 6 -67 321 0 279 0 284 29 398 89 352 280 671 572 952
152 146 219 199 444 350 105 71 208 142 230 159 314 240 551 612 641 1006 22
98 24 125 24 393 0 177 -4 306 -11 335 -44 184 -128 383 -217 517 -99 148
-309 333 -467 413 -38 19 -203 80 -235 87 -8 2 -53 11 -100 21 -105 23 -430
26 -555 5 -506 -83 -849 -350 -998 -776 -31 -88 -31 -94 -35 -308 -3 -201 -2
-223 18 -290 68 -224 234 -415 417 -476 236 -79 511 16 647 224 55 85 116 244
116 302 0 9 10 32 23 50 28 42 82 60 135 47 l37 -9 3 -135 c3 -125 1 -140 -24
-208 -30 -83 -116 -206 -185 -266 -102 -88 -228 -137 -403 -157 -195 -22 -439
21 -616 107 -143 71 -282 237 -345 415 l-26 75 3 325 3 324 29 75 c105 280
280 484 550 642 157 92 418 175 641 203 167 21 508 14 649 -14z M825 4493
c-196 -27 -371 -141 -439 -286 -57 -121 -57 -126 -53 -996 3 -870 0 -818 62
-942 39 -76 129 -161 217 -203 145 -70 50 -66 1628 -66 l1425 0 -3 1182 c-2
651 0 1211 3 1246 6 59 8 62 33 62 15 0 44 -11 64 -25 20 -14 41 -25 47 -25 5
0 16 -7 25 -15 8 -8 38 -20 67 -25 72 -14 3109 -14 3109 0 0 6 7 10 17 10 9 0
46 17 82 37 l66 38 -60 6 c-65 7 -6240 9 -6290 2z m2605 -1253 l0 -1010 -1312
2 -1313 3 -67 26 c-85 33 -133 69 -158 119 -19 38 -20 60 -20 871 l0 832 25
33 c51 66 155 111 290 123 44 5 637 9 1318 10 l1237 1 0 -1010z M7270 3251 c0
-687 3 -1251 8 -1253 4 -2 408 -1 897 2 l890 5 82 32 c145 56 235 133 293 252
56 113 55 101 55 961 0 729 -1 800 -18 859 -51 185 -179 306 -392 368 -55 16
-136 18 -937 21 l-878 3 0 -1250z m1688 959 c107 -14 184 -43 228 -86 l34 -35
0 -835 c0 -899 2 -861 -52 -910 -36 -34 -98 -61 -163 -73 -38 -7 -317 -12
-773 -13 l-712 -3 0 983 0 982 678 0 c409 0 710 -4 760 -10z M3923 2090 c-59
-5 -82 -13 -133 -44 -34 -21 -72 -41 -86 -45 -21 -5 3257 -4 3415 2 l64 2 -71
38 c-39 20 -78 37 -86 37 -9 0 -16 5 -16 10 0 11 -2965 12 -3087 0z"/>
</g>
</svg>
