<?xml version="1.0" standalone="no"?>
<!DOCTYPE svg PUBLIC "-//W3C//DTD SVG 20010904//EN"
 "http://www.w3.org/TR/2001/REC-SVG-20010904/DTD/svg10.dtd">
<svg version="1.0" xmlns="http://www.w3.org/2000/svg"
 width="2048.000000pt" height="2048.000000pt" viewBox="0 0 2048.000000 2048.000000"
 preserveAspectRatio="xMidYMid meet">
<metadata>
Created by potrace 1.13, written by Peter Selinger 2001-2015
</metadata>
<g transform="translate(0.000000,2048.000000) scale(0.192120,-0.192120)"
fill="#000000" stroke="none">
<path d="M5245 8724 c-112 -25 -226 -84 -293 -151 -105 -105 -155 -256 -134
-404 16 -112 57 -194 140 -282 60 -64 71 -81 77 -122 7 -45 4 -101 -11 -175
l-7 -35 31 29 c42 39 47 72 22 142 l-20 59 60 -65 c54 -59 61 -63 73 -48 9 12
16 63 20 158 10 206 29 232 137 184 71 -32 90 -24 90 36 0 78 90 136 254 165
129 22 194 20 223 -7 l23 -21 -43 -51 c-77 -90 -107 -167 -107 -274 -1 -128
-30 -188 -109 -232 -60 -34 -82 -66 -84 -126 -2 -44 0 -49 18 -47 71 9 225 35
251 43 17 6 44 24 60 41 28 30 29 33 25 112 -11 203 -5 350 17 441 13 48 31
100 42 113 53 67 -11 286 -112 383 -47 46 -155 102 -243 126 -86 24 -309 28
-400 8z m301 -244 c32 -6 71 -16 86 -22 41 -15 51 -68 13 -68 -28 0 -162 -69
-225 -115 -35 -27 -93 -63 -127 -81 -34 -18 -84 -49 -110 -67 -56 -40 -77 -49
-98 -40 -31 11 -45 59 -45 156 0 108 10 129 84 172 111 65 275 90 422 65z
M5045 7493 c-183 -23 -383 -106 -560 -231 -111 -79 -307 -278 -381 -387 -34
-49 -125 -216 -202 -370 -136 -270 -227 -424 -326 -550 -54 -69 -52 -73 51
-74 l61 -1 26 44 c14 23 58 69 98 102 142 114 174 158 303 413 114 227 206
363 319 477 125 124 270 229 285 205 6 -9 22 -5 58 14 65 32 247 91 326 106
120 21 243 -12 328 -89 62 -55 199 -236 199 -261 0 -28 -35 -54 -63 -47 -14 3
-55 24 -92 47 -171 104 -255 91 -407 -63 -105 -106 -144 -184 -210 -426 -28
-103 -57 -209 -64 -237 -26 -92 -9 -207 40 -277 l16 -22 52 54 c86 90 132 203
198 495 71 310 183 403 302 251 21 -28 64 -72 95 -98 60 -50 280 -167 453
-241 87 -37 316 -117 335 -117 22 0 -12 126 -43 163 -64 74 -272 142 -401 131
-140 -12 -210 -13 -216 -5 -6 10 163 209 273 323 41 42 53 60 45 70 -5 7 -41
51 -79 98 -38 47 -100 129 -138 183 -81 114 -152 190 -221 235 -104 69 -303
105 -460 85z M5960 6852 c0 -28 45 -182 61 -208 26 -43 118 -117 187 -151 73
-35 145 -40 324 -19 191 22 291 21 348 -5 113 -51 165 -154 139 -275 l-13 -59
-8 53 c-23 151 -138 252 -287 252 -106 0 -120 -11 -546 -439 l-390 -391 -175
0 -175 0 -318 118 c-298 111 -321 118 -365 111 -117 -19 -594 -6 -910 25 -85
8 -126 8 -131 1 -16 -20 -63 -148 -74 -201 l-11 -54 -1401 -2 c-1562 -3 -1429
3 -1515 -74 -66 -60 -85 -104 -85 -204 0 -100 19 -144 85 -204 72 -65 92 -70
322 -76 l206 -5 94 -135 c443 -640 869 -1055 1243 -1212 l80 -33 390 -3 390
-3 215 214 c225 225 296 280 403 317 79 27 196 36 267 21 l54 -12 656 656 656
656 47 -21 c82 -36 155 -5 347 148 78 63 356 336 414 407 93 116 151 155 226
155 38 0 40 -2 40 -30 0 -41 -30 -86 -168 -249 -59 -70 -112 -167 -112 -205 0
-30 55 -96 79 -96 9 0 107 91 217 203 163 164 203 210 214 245 9 28 26 53 47
70 110 83 109 227 0 340 -46 48 -114 87 -169 97 -25 5 -48 1 -79 -13 -66 -30
-110 -35 -191 -22 -169 29 -383 132 -550 266 -68 55 -78 61 -78 46z m-688
-1254 c9 -7 29 -53 44 -101 l29 -88 -20 -34 c-11 -18 -56 -73 -99 -122 -43
-48 -89 -110 -102 -137 -12 -27 -29 -53 -36 -57 -16 -11 -3649 -12 -3663 -1
-6 4 -23 32 -38 63 -18 38 -52 80 -101 126 -74 70 -74 71 -50 82 14 6 61 11
104 11 73 0 80 2 80 20 0 20 7 20 1013 20 556 1 1032 5 1056 9 80 16 116 58
127 147 3 27 7 55 10 62 3 9 175 12 817 12 635 0 817 -3 829 -12z m-447 -659
c5 -14 -2 -34 -21 -62 -43 -67 -398 -412 -446 -436 -29 -13 -80 -24 -155 -31
-130 -12 -223 -38 -310 -86 -87 -48 -147 -98 -326 -270 -96 -93 -176 -162
-205 -176 -46 -22 -54 -23 -337 -23 -274 0 -292 1 -335 21 -62 29 -298 187
-394 263 -236 189 -615 615 -675 759 -28 67 -168 62 1598 62 l1600 0 6 -21z
M5657 4712 l-897 -897 6 -78 7 -77 2352 0 2352 0 5 -65 c6 -69 28 -117 68
-146 36 -27 141 -39 348 -39 l182 0 0 -1425 0 -1425 -4760 0 -4760 0 0 1424 0
1425 898 3 c816 4 902 6 956 21 119 35 156 76 156 172 l0 55 -1097 0 c-604 0
-1108 3 -1120 6 l-23 6 0 -1671 0 -1671 5000 0 5000 0 0 1668 0 1667 -416 -3
-417 -3 6 33 c3 18 22 119 42 223 76 398 175 1022 175 1101 0 31 0 31 64 37
81 8 123 25 176 73 66 60 85 104 85 204 0 100 -19 144 -85 204 -86 77 76 71
-1760 73 l-1645 3 -898 -898z m2451 671 c1445 -4 1462 -4 1462 -23 0 -18 7
-20 59 -20 107 0 114 -17 47 -107 -48 -65 -76 -114 -76 -137 0 -8 -7 -22 -16
-30 -14 -14 -186 -16 -1740 -16 -948 0 -1724 4 -1724 8 0 4 42 35 93 69 50 34
136 100 189 146 124 109 166 133 218 120 14 -4 683 -8 1488 -10z m1336 -530
c6 -95 2 -134 -29 -328 -45 -284 -92 -529 -112 -583 -9 -23 -25 -53 -37 -67
l-22 -25 -2065 2 c-2244 3 -2114 0 -2085 57 8 14 230 240 493 502 436 433 483
478 540 502 34 15 88 31 120 36 32 5 763 9 1624 10 l1566 1 7 -107z M4464
4167 c86 -55 108 -73 152 -117 27 -27 66 -78 88 -112 l38 -63 -4 75 c-9 152
-92 231 -239 229 -46 0 -51 -2 -35 -12z M4756 3515 c-41 -140 -49 -149 -540
-643 -261 -263 -486 -480 -519 -502 -123 -83 -270 -114 -408 -87 -310 61 -506
348 -449 658 5 30 29 92 51 139 38 76 59 101 228 273 l186 189 -81 -40 c-97
-49 -227 -144 -285 -210 -61 -69 -124 -169 -143 -229 -15 -44 -17 -84 -14
-252 l3 -199 44 -83 c24 -46 60 -104 79 -129 134 -169 350 -260 551 -231 91
13 196 53 271 104 60 40 855 830 936 931 36 43 77 104 91 135 29 62 40 147 26
201 l-10 35 -17 -60z"/>
</g>
</svg>
