<?xml version="1.0" standalone="no"?>
<!DOCTYPE svg PUBLIC "-//W3C//DTD SVG 20010904//EN"
 "http://www.w3.org/TR/2001/REC-SVG-20010904/DTD/svg10.dtd">
<svg version="1.0" xmlns="http://www.w3.org/2000/svg"
 width="2048.000000pt" height="2048.000000pt" viewBox="0 0 2048.000000 2048.000000"
 preserveAspectRatio="xMidYMid meet">
<metadata>
Created by potrace 1.13, written by Peter Selinger 2001-2015
</metadata>
<g transform="translate(0.000000,2048.000000) scale(0.192120,-0.192120)"
fill="#000000" stroke="none">
<path d="M5245 8724 c-112 -25 -226 -84 -293 -151 -70 -69 -107 -141 -129
-249 -33 -159 14 -309 135 -437 62 -66 70 -79 77 -125 7 -56 1 -123 -20 -202
l-13 -50 34 26 c65 50 87 109 63 171 -10 27 -8 26 31 -12 38 -37 42 -39 54
-23 8 11 15 69 19 158 10 206 29 232 137 184 71 -32 90 -24 90 36 0 51 34 90
107 123 105 47 318 73 358 43 21 -15 23 -13 -54 -109 -47 -60 -72 -136 -82
-252 -12 -150 -24 -172 -111 -214 -55 -26 -83 -66 -92 -131 -8 -57 2 -74 35
-61 14 5 72 16 129 25 135 21 161 30 196 67 33 34 33 34 19 279 -6 113 -4 137
19 243 16 71 34 129 46 144 53 67 -11 286 -112 383 -47 46 -155 102 -243 126
-86 24 -309 28 -400 8z m329 -258 c60 -14 101 -43 88 -62 -6 -9 -135 -74 -148
-74 -2 0 -41 -27 -87 -59 -45 -32 -109 -73 -142 -91 -33 -18 -78 -45 -100 -60
-63 -43 -81 -45 -110 -14 -23 25 -25 34 -25 132 l0 105 34 32 c43 40 113 73
191 90 80 18 226 18 299 1z M5040 7493 c-199 -32 -380 -107 -555 -231 -111
-79 -307 -278 -381 -387 -34 -49 -125 -216 -202 -370 -136 -270 -227 -424
-326 -550 -54 -69 -52 -73 51 -74 l61 -1 26 44 c14 23 58 69 98 102 142 114
174 158 303 413 114 227 206 363 319 477 125 125 270 229 285 205 6 -9 18 -7
48 9 22 11 102 44 179 72 132 49 144 52 239 52 91 0 105 -2 154 -28 68 -35
128 -96 219 -219 75 -101 90 -146 55 -165 -22 -13 -59 1 -141 50 -168 103
-252 89 -404 -64 -105 -106 -144 -184 -210 -426 -28 -103 -57 -209 -64 -237
-26 -92 -9 -207 40 -277 l16 -22 52 54 c86 90 132 203 198 495 71 310 183 403
302 251 65 -84 144 -143 298 -220 180 -92 323 -153 465 -199 162 -53 165 -54
165 -26 0 13 -14 62 -30 109 -16 47 -26 88 -22 92 4 3 63 11 132 17 69 6 178
16 244 22 130 11 196 3 250 -31 58 -35 97 -109 95 -179 l-1 -36 -14 42 c-21
58 -85 126 -146 157 -40 20 -67 26 -117 26 -117 0 -123 -5 -556 -439 l-390
-391 -175 0 -175 0 -318 118 c-298 111 -321 118 -365 111 -117 -19 -594 -6
-910 25 -85 8 -126 8 -131 1 -16 -20 -63 -148 -74 -201 l-11 -54 -1401 -2
c-1562 -3 -1429 3 -1515 -74 -66 -60 -85 -104 -85 -204 0 -100 19 -144 85
-204 72 -65 92 -70 322 -76 l206 -5 94 -135 c443 -640 869 -1055 1243 -1212
l80 -33 390 -3 390 -3 215 214 c225 225 296 280 403 317 79 27 196 36 267 21
l54 -12 656 656 656 656 47 -21 c34 -15 57 -19 80 -14 98 21 273 151 469 351
65 66 119 118 121 116 2 -1 21 22 43 53 113 159 130 180 174 202 34 17 59 22
100 20 49 -3 55 -6 58 -26 5 -35 -31 -87 -186 -271 -59 -70 -112 -167 -112
-205 0 -30 55 -96 79 -96 9 0 107 91 217 203 160 161 203 211 214 244 8 27 27
53 51 73 110 88 105 234 -13 347 -49 47 -106 79 -159 88 -27 5 -50 1 -90 -17
-110 -47 -258 -20 -474 87 -231 114 -353 227 -558 514 -165 231 -266 301 -477
331 -64 10 -172 11 -220 3z m918 -730 c23 -88 49 -140 103 -205 39 -45 33 -58
-23 -47 -24 5 -123 9 -220 9 -98 0 -178 3 -178 6 0 13 277 324 289 324 3 0 16
-39 29 -87z m-686 -1165 c9 -7 29 -53 44 -101 l29 -88 -20 -34 c-11 -18 -56
-73 -99 -122 -43 -48 -89 -110 -102 -137 -12 -27 -29 -53 -36 -57 -16 -11
-3649 -12 -3663 -1 -6 4 -23 32 -38 63 -18 38 -52 80 -101 126 -74 70 -74 71
-50 82 14 6 61 11 104 11 73 0 80 2 80 20 0 20 7 20 1013 20 556 1 1032 5
1056 9 80 16 116 58 127 147 3 27 7 55 10 62 3 9 175 12 817 12 635 0 817 -3
829 -12z m-447 -659 c5 -14 -2 -34 -21 -62 -43 -67 -398 -412 -446 -436 -29
-13 -80 -24 -155 -31 -130 -12 -223 -38 -310 -86 -87 -48 -147 -98 -326 -270
-96 -93 -176 -162 -205 -176 -46 -22 -54 -23 -337 -23 -274 0 -292 1 -335 21
-62 29 -298 187 -394 263 -236 189 -615 615 -675 759 -28 67 -168 62 1598 62
l1600 0 6 -21z M5657 4712 l-897 -897 6 -78 7 -77 2352 0 2352 0 5 -65 c6 -69
28 -117 68 -146 36 -27 141 -39 348 -39 l182 0 0 -1425 0 -1425 -4760 0 -4760
0 0 1424 0 1425 898 3 c816 4 902 6 956 21 119 35 156 76 156 172 l0 55 -1097
0 c-604 0 -1108 3 -1120 6 l-23 6 0 -1671 0 -1671 5000 0 5000 0 0 1668 0
1667 -416 -3 -417 -3 6 33 c3 18 22 119 42 223 76 398 175 1022 175 1101 0 31
0 31 64 37 81 8 123 25 176 73 66 60 85 104 85 204 0 100 -19 144 -85 204 -86
77 76 71 -1760 73 l-1645 3 -898 -898z m2451 671 c1445 -4 1462 -4 1462 -23 0
-18 7 -20 59 -20 107 0 114 -17 47 -107 -48 -65 -76 -114 -76 -137 0 -8 -7
-22 -16 -30 -14 -14 -186 -16 -1740 -16 -948 0 -1724 4 -1724 8 0 4 42 35 93
69 50 34 136 100 189 146 124 109 166 133 218 120 14 -4 683 -8 1488 -10z
m1336 -530 c6 -95 2 -134 -29 -328 -45 -284 -92 -529 -112 -583 -9 -23 -25
-53 -37 -67 l-22 -25 -2065 2 c-2244 3 -2114 0 -2085 57 8 14 230 240 493 502
436 433 483 478 540 502 34 15 88 31 120 36 32 5 763 9 1624 10 l1566 1 7
-107z M4464 4167 c86 -55 108 -73 152 -117 27 -27 66 -78 88 -112 l38 -63 -4
75 c-9 152 -92 231 -239 229 -46 0 -51 -2 -35 -12z M4756 3515 c-41 -140 -49
-149 -540 -643 -261 -263 -486 -480 -519 -502 -123 -83 -270 -114 -408 -87
-310 61 -506 348 -449 658 5 30 29 92 51 139 38 76 59 101 228 273 l186 189
-81 -40 c-97 -49 -227 -144 -285 -210 -61 -69 -124 -169 -143 -229 -15 -44
-17 -84 -14 -252 l3 -199 44 -83 c24 -46 60 -104 79 -129 134 -169 350 -260
551 -231 91 13 196 53 271 104 60 40 855 830 936 931 36 43 77 104 91 135 29
62 40 147 26 201 l-10 35 -17 -60z"/>
</g>
</svg>
