<?xml version="1.0" standalone="no"?>
<!DOCTYPE svg PUBLIC "-//W3C//DTD SVG 20010904//EN"
 "http://www.w3.org/TR/2001/REC-SVG-20010904/DTD/svg10.dtd">
<svg version="1.0" xmlns="http://www.w3.org/2000/svg"
 width="2048.000000pt" height="2048.000000pt" viewBox="0 0 2048.000000 2048.000000"
 preserveAspectRatio="xMidYMid meet">
<metadata>
Created by potrace 1.13, written by Peter Selinger 2001-2015
</metadata>
<g transform="translate(0.000000,2048.000000) scale(0.192120,-0.192120)"
fill="#000000" stroke="none">
<path d="M5390 8694 c-164 -30 -287 -82 -387 -163 -34 -28 -111 -111 -171
-184 -220 -266 -366 -366 -534 -367 -66 0 -78 -7 -78 -44 0 -85 187 -252 357
-321 136 -54 281 -68 421 -39 121 25 196 73 294 188 215 253 287 294 573 330
66 9 131 19 144 22 22 6 16 -6 -44 -92 -94 -137 -159 -218 -204 -253 -21 -17
-87 -55 -147 -85 -127 -63 -163 -96 -171 -156 l-6 -43 89 6 c243 16 444 168
532 405 18 50 25 92 28 165 3 84 7 102 28 130 37 51 46 73 46 119 0 100 -99
219 -246 295 -122 64 -206 84 -364 88 -74 2 -146 2 -160 -1z m330 -279 c73
-23 150 -62 157 -81 3 -8 0 -26 -6 -38 -13 -23 -39 -35 -126 -56 -222 -54
-326 -118 -508 -313 -59 -63 -122 -122 -141 -131 -44 -21 -164 -21 -278 0 -87
16 -128 38 -128 71 0 9 27 41 61 72 33 31 115 117 180 192 186 211 257 260
434 295 90 17 280 12 355 -11z M5025 7490 c-174 -27 -371 -110 -530 -221 -119
-84 -314 -280 -391 -394 -34 -49 -125 -216 -202 -370 -136 -271 -228 -425
-326 -550 -46 -59 -47 -60 -24 -67 13 -3 46 -6 73 -7 49 0 50 1 71 42 14 29
51 67 119 122 55 44 117 103 137 130 21 28 83 137 138 242 151 293 223 398
360 531 111 108 277 223 290 202 3 -5 80 21 180 62 163 67 180 72 250 73 67 0
84 -4 142 -34 79 -39 177 -134 275 -265 71 -96 83 -137 47 -163 -24 -18 -56
-10 -119 29 -123 77 -158 92 -215 93 -76 0 -132 -31 -225 -124 -102 -101 -140
-179 -206 -426 -70 -260 -68 -253 -69 -317 0 -61 30 -157 56 -179 37 -31 141
131 189 296 14 49 39 148 55 220 71 310 183 403 302 251 65 -84 144 -143 298
-220 180 -92 323 -153 465 -199 160 -53 165 -54 165 -27 0 12 -11 55 -25 96
-40 118 -54 107 173 129 271 26 345 26 404 -3 73 -36 119 -111 117 -191 l-1
-36 -14 42 c-21 58 -85 126 -146 157 -40 20 -67 26 -117 26 -117 0 -123 -5
-556 -439 l-390 -391 -175 0 -175 0 -295 111 -295 111 -360 2 c-198 2 -421 9
-495 16 -74 7 -168 13 -209 14 l-73 1 -29 -70 c-16 -38 -34 -96 -41 -127 l-12
-58 -1400 -2 c-1563 -3 -1430 3 -1516 -74 -66 -60 -85 -104 -85 -204 0 -100
19 -144 85 -204 72 -65 92 -70 322 -76 l206 -5 94 -135 c443 -640 869 -1055
1243 -1212 l80 -33 390 -3 390 -3 215 214 c225 225 296 280 403 317 79 27 196
36 267 21 l54 -12 656 656 656 656 47 -21 c34 -15 57 -19 80 -14 98 21 273
151 469 351 65 66 119 118 121 116 2 -1 21 22 43 53 113 159 130 180 174 202
34 17 59 22 100 20 49 -3 55 -6 58 -26 5 -35 -31 -87 -186 -271 -59 -70 -112
-167 -112 -205 0 -30 55 -96 79 -96 9 0 107 91 217 203 160 161 203 211 214
244 8 27 27 53 51 73 110 88 105 234 -13 347 -49 47 -106 79 -159 88 -27 5
-50 1 -90 -17 -104 -45 -252 -21 -446 72 -254 121 -381 238 -609 559 -88 125
-157 191 -251 238 -44 22 -103 46 -132 52 -74 16 -236 21 -306 11z m898 -648
c-6 -26 43 -170 73 -209 14 -18 41 -50 59 -70 19 -21 35 -41 35 -44 0 -6 -38
-4 -165 10 -131 14 -268 14 -285 -1 -26 -24 42 57 149 176 58 65 112 127 120
137 17 24 20 24 14 1z m-651 -1244 c9 -7 29 -53 44 -101 l29 -88 -20 -34 c-11
-18 -56 -73 -99 -122 -43 -48 -89 -110 -102 -137 -12 -27 -29 -53 -36 -57 -16
-11 -3649 -12 -3663 -1 -6 4 -23 32 -38 63 -18 38 -52 80 -101 126 -74 70 -74
71 -50 82 14 6 61 11 104 11 73 0 80 2 80 20 0 20 7 20 1013 20 556 1 1032 5
1056 9 80 16 116 58 127 147 3 27 7 55 10 62 3 9 175 12 817 12 635 0 817 -3
829 -12z m-447 -659 c5 -14 -2 -34 -21 -62 -43 -67 -398 -412 -446 -436 -29
-13 -80 -24 -155 -31 -130 -12 -223 -38 -310 -86 -87 -48 -147 -98 -326 -270
-96 -93 -176 -162 -205 -176 -46 -22 -54 -23 -337 -23 -274 0 -292 1 -335 21
-62 29 -298 187 -394 263 -236 189 -615 615 -675 759 -28 67 -168 62 1598 62
l1600 0 6 -21z M5657 4712 l-897 -897 6 -78 7 -77 2352 0 2352 0 5 -65 c6 -69
28 -117 68 -146 36 -27 141 -39 348 -39 l182 0 0 -1425 0 -1425 -4760 0 -4760
0 0 1424 0 1425 898 3 c816 4 902 6 956 21 119 35 156 76 156 172 l0 55 -1097
0 c-604 0 -1108 3 -1120 6 l-23 6 0 -1671 0 -1671 5000 0 5000 0 0 1668 0
1667 -416 -3 -417 -3 6 33 c3 18 22 119 42 223 76 398 175 1022 175 1101 0 31
0 31 64 37 81 8 123 25 176 73 66 60 85 104 85 204 0 100 -19 144 -85 204 -86
77 76 71 -1760 73 l-1645 3 -898 -898z m2451 671 c1445 -4 1462 -4 1462 -23 0
-18 7 -20 59 -20 107 0 114 -17 47 -107 -48 -65 -76 -114 -76 -137 0 -8 -7
-22 -16 -30 -14 -14 -186 -16 -1740 -16 -948 0 -1724 4 -1724 8 0 4 42 35 93
69 50 34 136 100 189 146 124 109 166 133 218 120 14 -4 683 -8 1488 -10z
m1336 -530 c6 -95 2 -134 -29 -328 -45 -284 -92 -529 -112 -583 -9 -23 -25
-53 -37 -67 l-22 -25 -2065 2 c-2244 3 -2114 0 -2085 57 8 14 230 240 493 502
436 433 483 478 540 502 34 15 88 31 120 36 32 5 763 9 1624 10 l1566 1 7
-107z M4464 4167 c86 -55 108 -73 152 -117 27 -27 66 -78 88 -112 l38 -63 -4
75 c-9 152 -92 231 -239 229 -46 0 -51 -2 -35 -12z M4756 3515 c-41 -140 -49
-149 -540 -643 -261 -263 -486 -480 -519 -502 -123 -83 -270 -114 -408 -87
-310 61 -506 348 -449 658 5 30 29 92 51 139 38 76 59 101 228 273 l186 189
-81 -40 c-97 -49 -227 -144 -285 -210 -61 -69 -124 -169 -143 -229 -15 -44
-17 -84 -14 -252 l3 -199 44 -83 c24 -46 60 -104 79 -129 134 -169 350 -260
551 -231 91 13 196 53 271 104 60 40 855 830 936 931 36 43 77 104 91 135 29
62 40 147 26 201 l-10 35 -17 -60z"/>
</g>
</svg>
