<?xml version="1.0" standalone="no"?>
<!DOCTYPE svg PUBLIC "-//W3C//DTD SVG 20010904//EN"
 "http://www.w3.org/TR/2001/REC-SVG-20010904/DTD/svg10.dtd">
<svg version="1.0" xmlns="http://www.w3.org/2000/svg"
 width="2048.000000pt" height="2048.000000pt" viewBox="0 0 2048.000000 2048.000000"
 preserveAspectRatio="xMidYMid meet">
<metadata>
Created by potrace 1.13, written by Peter Selinger 2001-2015
</metadata>
<g transform="translate(0.000000,2048.000000) scale(0.192120,-0.192120)"
fill="#000000" stroke="none">
<path d="M5385 8693 c-73 -11 -192 -46 -239 -70 -123 -62 -192 -124 -338 -304
-193 -237 -347 -338 -515 -339 -64 0 -85 -17 -73 -60 28 -96 206 -246 368
-309 144 -55 282 -65 431 -32 104 24 167 65 260 170 242 275 305 313 566 341
55 6 117 16 139 21 21 6 40 9 42 6 2 -2 -32 -46 -75 -99 -105 -126 -226 -230
-321 -275 -41 -19 -129 -61 -195 -94 -145 -70 -216 -90 -313 -88 l-73 2 -25
-37 c-14 -21 -24 -39 -22 -41 1 -2 26 1 53 7 63 12 216 3 285 -18 49 -15 55
-15 66 0 8 12 29 16 86 16 147 0 296 60 406 165 122 115 182 246 188 409 3 80
7 103 23 120 113 124 28 307 -195 423 -122 64 -206 84 -364 88 -74 2 -148 1
-165 -2z m303 -333 c25 -17 30 -40 8 -40 -8 0 -16 -4 -18 -8 -1 -4 -39 -23
-83 -42 -122 -53 -208 -115 -351 -252 -72 -69 -146 -134 -165 -144 -26 -14
-57 -18 -130 -19 -98 0 -149 14 -149 41 0 16 143 178 265 299 148 148 249 187
470 182 92 -2 137 -7 153 -17z M4865 7451 c-139 -41 -266 -106 -398 -203 -111
-82 -289 -264 -363 -373 -34 -50 -125 -216 -202 -370 -136 -271 -228 -425
-326 -550 -46 -59 -47 -60 -24 -67 13 -3 46 -6 73 -7 49 0 50 1 71 42 14 29
51 67 119 122 55 44 117 103 137 130 21 28 83 137 138 242 227 439 339 564
690 773 153 91 157 94 188 134 22 28 30 94 16 130 -8 20 -43 19 -119 -3z
M5416 7418 c-57 -90 -14 -206 146 -392 79 -91 106 -116 147 -133 55 -24 191
-54 204 -46 7 4 -23 -33 -65 -82 -85 -99 -212 -236 -204 -220 5 12 -44 156
-70 208 -24 45 -120 133 -178 162 -107 54 -200 23 -316 -102 -122 -132 -148
-186 -220 -453 -60 -220 -59 -219 -60 -282 0 -61 30 -157 56 -179 37 -31 141
131 189 296 14 49 39 148 55 220 71 310 183 403 302 251 70 -90 143 -142 331
-236 191 -95 376 -171 525 -215 l93 -27 113 110 c101 99 119 112 171 128 108
31 229 -4 296 -86 29 -34 68 -134 57 -145 -3 -3 -38 -15 -78 -26 -101 -28
-121 -40 -217 -132 -128 -123 -223 -260 -223 -321 0 -30 55 -96 79 -96 9 0
103 87 208 193 148 147 197 204 214 242 12 28 41 67 64 87 111 98 100 237 -29
355 -53 49 -124 83 -170 83 -12 0 -41 -10 -66 -21 -96 -45 -259 -19 -446 70
-254 121 -382 239 -610 560 -75 106 -150 182 -217 221 -28 16 -55 30 -59 30
-4 0 -14 -10 -22 -22z M6050 5885 l-275 -275 -175 0 -175 0 -295 111 -295 111
-360 2 c-198 2 -421 9 -495 16 -74 7 -168 13 -209 14 l-73 1 -29 -70 c-16 -38
-34 -96 -41 -127 l-12 -58 -1400 -2 c-1563 -3 -1430 3 -1516 -74 -66 -60 -85
-104 -85 -204 0 -100 19 -144 85 -204 72 -65 92 -70 322 -76 l206 -5 94 -135
c443 -640 869 -1055 1243 -1212 l80 -33 390 -3 390 -3 215 214 c225 225 296
280 403 317 79 27 196 36 267 21 l54 -12 656 656 656 656 47 -21 c53 -24 85
-21 150 12 154 78 445 346 502 462 22 45 27 66 22 102 -5 44 -37 94 -61 94 -6
0 -135 -124 -286 -275z m-778 -287 c9 -7 29 -53 44 -101 l29 -88 -20 -34 c-11
-18 -56 -73 -99 -122 -43 -48 -89 -110 -102 -137 -12 -27 -29 -53 -36 -57 -16
-11 -3649 -12 -3663 -1 -6 4 -23 32 -38 63 -18 38 -52 80 -101 126 -74 70 -74
71 -50 82 14 6 61 11 104 11 73 0 80 2 80 20 0 20 7 20 1013 20 556 1 1032 5
1056 9 80 16 116 58 127 147 3 27 7 55 10 62 3 9 175 12 817 12 635 0 817 -3
829 -12z m-447 -659 c5 -14 -2 -34 -21 -62 -43 -67 -398 -412 -446 -436 -29
-13 -80 -24 -155 -31 -130 -12 -223 -38 -310 -86 -87 -48 -147 -98 -326 -270
-96 -93 -176 -162 -205 -176 -46 -22 -54 -23 -337 -23 -274 0 -292 1 -335 21
-62 29 -298 187 -394 263 -236 189 -615 615 -675 759 -28 67 -168 62 1598 62
l1600 0 6 -21z M5657 4712 l-897 -897 6 -78 7 -77 2352 0 2352 0 5 -65 c6 -69
28 -117 68 -146 36 -27 141 -39 348 -39 l182 0 0 -1425 0 -1425 -4760 0 -4760
0 0 1424 0 1425 898 3 c816 4 902 6 956 21 119 35 156 76 156 172 l0 55 -1097
0 c-604 0 -1108 3 -1120 6 l-23 6 0 -1671 0 -1671 5000 0 5000 0 0 1668 0
1667 -416 -3 -417 -3 6 33 c3 18 22 119 42 223 76 398 175 1022 175 1101 0 31
0 31 64 37 81 8 123 25 176 73 66 60 85 104 85 204 0 100 -19 144 -85 204 -86
77 76 71 -1760 73 l-1645 3 -898 -898z m2451 671 c1445 -4 1462 -4 1462 -23 0
-18 7 -20 59 -20 107 0 114 -17 47 -107 -48 -65 -76 -114 -76 -137 0 -8 -7
-22 -16 -30 -14 -14 -186 -16 -1740 -16 -948 0 -1724 4 -1724 8 0 4 42 35 93
69 50 34 136 100 189 146 124 109 166 133 218 120 14 -4 683 -8 1488 -10z
m1336 -530 c6 -95 2 -134 -29 -328 -45 -284 -92 -529 -112 -583 -9 -23 -25
-53 -37 -67 l-22 -25 -2065 2 c-2244 3 -2114 0 -2085 57 8 14 230 240 493 502
436 433 483 478 540 502 34 15 88 31 120 36 32 5 763 9 1624 10 l1566 1 7
-107z M4464 4167 c86 -55 108 -73 152 -117 27 -27 66 -78 88 -112 l38 -63 -4
75 c-9 152 -92 231 -239 229 -46 0 -51 -2 -35 -12z M4756 3515 c-41 -140 -49
-149 -540 -643 -261 -263 -486 -480 -519 -502 -123 -83 -270 -114 -408 -87
-310 61 -506 348 -449 658 5 30 29 92 51 139 38 76 59 101 228 273 l186 189
-81 -40 c-97 -49 -227 -144 -285 -210 -61 -69 -124 -169 -143 -229 -15 -44
-17 -84 -14 -252 l3 -199 44 -83 c24 -46 60 -104 79 -129 134 -169 350 -260
551 -231 91 13 196 53 271 104 60 40 855 830 936 931 36 43 77 104 91 135 29
62 40 147 26 201 l-10 35 -17 -60z"/>
</g>
</svg>
