<?xml version="1.0" standalone="no"?>
<!DOCTYPE svg PUBLIC "-//W3C//DTD SVG 20010904//EN"
 "http://www.w3.org/TR/2001/REC-SVG-20010904/DTD/svg10.dtd">
<svg version="1.0" xmlns="http://www.w3.org/2000/svg"
 width="2048.000000pt" height="2048.000000pt" viewBox="0 0 2048.000000 2048.000000"
 preserveAspectRatio="xMidYMid meet">
<metadata>
Created by potrace 1.13, written by Peter Selinger 2001-2015
</metadata>
<g transform="translate(0.000000,2048.000000) scale(0.192120,-0.192120)"
fill="#000000" stroke="none">
<path d="M5245 8724 c-112 -25 -226 -84 -293 -151 -105 -104 -155 -258 -134
-405 17 -119 57 -194 159 -302 48 -50 112 -119 140 -152 48 -54 54 -58 66 -42
9 12 16 63 21 159 10 214 29 236 158 174 45 -22 68 -9 68 39 0 82 90 142 254
171 122 21 190 20 224 -4 44 -31 69 -34 91 -12 57 57 -9 293 -109 390 -48 46
-132 92 -225 121 -93 30 -316 37 -420 14z m139 -300 c9 -3 16 -11 16 -17 0
-15 -69 -75 -115 -99 -22 -12 -69 -40 -104 -64 -35 -24 -67 -44 -72 -44 -5 0
-9 28 -9 63 0 53 4 67 23 84 58 53 208 97 261 77z M5892 8016 c-29 -30 -52
-64 -52 -75 0 -11 -4 -23 -10 -26 -5 -3 -10 -30 -10 -58 0 -29 -5 -70 -11 -92
-6 -22 -13 -51 -16 -65 -8 -32 -39 -66 -83 -89 -52 -28 -72 -55 -78 -107 -4
-42 -3 -46 14 -41 10 3 53 11 94 16 109 15 143 27 176 62 33 34 33 39 19 264
-5 75 -3 146 3 190 6 38 10 70 8 72 -1 2 -26 -21 -54 -51z M5050 7494 c-185
-23 -386 -106 -565 -232 -111 -79 -307 -278 -381 -387 -34 -49 -125 -216 -202
-370 -136 -270 -227 -424 -326 -550 -54 -69 -52 -73 51 -74 l61 -1 26 44 c14
23 58 69 98 102 142 114 174 158 303 413 114 227 206 363 319 477 126 126 270
229 286 205 5 -10 19 -7 56 12 73 37 198 76 295 93 155 26 290 -10 387 -104
72 -71 162 -195 162 -224 0 -60 -55 -61 -150 -3 -164 99 -252 85 -402 -67
-105 -106 -144 -184 -210 -426 -28 -103 -57 -209 -64 -237 -26 -92 -9 -207 40
-277 l16 -22 52 54 c86 90 132 203 198 495 71 310 183 403 302 251 40 -52 124
-128 175 -158 l28 -16 105 120 c58 67 136 154 174 195 49 52 65 77 59 86 -6 6
-41 50 -79 97 -38 47 -100 130 -139 185 -128 181 -218 253 -364 294 -73 20
-240 34 -311 25z M6005 6804 c31 -136 47 -165 133 -223 126 -85 195 -102 343
-82 327 43 409 33 503 -64 55 -56 77 -112 77 -191 0 -70 11 -76 35 -18 45 107
-30 255 -163 322 -68 35 -95 36 -164 6 -57 -23 -72 -26 -137 -20 -162 13 -402
122 -595 270 l-38 29 6 -29z M5772 6469 c-40 -4 -76 -10 -79 -13 -7 -7 207
-109 332 -158 119 -47 203 -73 211 -65 13 13 -8 79 -35 110 -30 34 -125 86
-201 111 -57 18 -134 23 -228 15z M6640 6431 c-59 -18 -105 -59 -475 -430
l-390 -391 -175 0 -175 0 -318 118 c-298 111 -321 118 -365 111 -117 -19 -594
-6 -910 25 -85 8 -126 8 -131 1 -16 -20 -63 -148 -74 -201 l-11 -54 -1401 -2
c-1562 -3 -1429 3 -1515 -74 -66 -60 -85 -104 -85 -204 0 -100 19 -144 85
-204 72 -65 92 -70 322 -76 l206 -5 94 -135 c443 -640 869 -1055 1243 -1212
l80 -33 390 -3 390 -3 215 214 c225 225 296 280 403 317 79 27 196 36 267 21
l54 -12 656 656 656 656 47 -21 c34 -15 57 -19 80 -14 96 20 267 147 467 345
63 63 117 114 121 114 4 0 51 46 103 102 97 102 156 143 209 143 32 0 40 -12
32 -49 -6 -28 -50 -88 -153 -210 -59 -70 -112 -167 -112 -205 0 -30 55 -96 79
-96 9 0 107 91 217 203 188 189 202 206 218 260 55 178 -82 359 -268 356 -28
0 -62 -4 -76 -8z m-1368 -833 c9 -7 29 -53 44 -101 l29 -88 -20 -34 c-11 -18
-56 -73 -99 -122 -43 -48 -89 -110 -102 -137 -12 -27 -29 -53 -36 -57 -16 -11
-3649 -12 -3663 -1 -6 4 -23 32 -38 63 -18 38 -52 80 -101 126 -74 70 -74 71
-50 82 14 6 61 11 104 11 73 0 80 2 80 20 0 20 7 20 1013 20 556 1 1032 5
1056 9 80 16 116 58 127 147 3 27 7 55 10 62 3 9 175 12 817 12 635 0 817 -3
829 -12z m-447 -659 c5 -14 -2 -34 -21 -62 -43 -67 -398 -412 -446 -436 -29
-13 -80 -24 -155 -31 -130 -12 -223 -38 -310 -86 -87 -48 -147 -98 -326 -270
-96 -93 -176 -162 -205 -176 -46 -22 -54 -23 -337 -23 -274 0 -292 1 -335 21
-62 29 -298 187 -394 263 -236 189 -615 615 -675 759 -28 67 -168 62 1598 62
l1600 0 6 -21z M5657 4712 l-897 -897 6 -78 7 -77 2352 0 2352 0 5 -65 c6 -69
28 -117 68 -146 36 -27 141 -39 348 -39 l182 0 0 -1425 0 -1425 -4760 0 -4760
0 0 1424 0 1425 898 3 c816 4 902 6 956 21 119 35 156 76 156 172 l0 55 -1097
0 c-604 0 -1108 3 -1120 6 l-23 6 0 -1671 0 -1671 5000 0 5000 0 0 1668 0
1667 -416 -3 -417 -3 6 33 c3 18 22 119 42 223 76 398 175 1022 175 1101 0 31
0 31 64 37 81 8 123 25 176 73 66 60 85 104 85 204 0 100 -19 144 -85 204 -86
77 76 71 -1760 73 l-1645 3 -898 -898z m2451 671 c1445 -4 1462 -4 1462 -23 0
-18 7 -20 59 -20 107 0 114 -17 47 -107 -48 -65 -76 -114 -76 -137 0 -8 -7
-22 -16 -30 -14 -14 -186 -16 -1740 -16 -948 0 -1724 4 -1724 8 0 4 42 35 93
69 50 34 136 100 189 146 124 109 166 133 218 120 14 -4 683 -8 1488 -10z
m1336 -530 c6 -95 2 -134 -29 -328 -45 -284 -92 -529 -112 -583 -9 -23 -25
-53 -37 -67 l-22 -25 -2065 2 c-2244 3 -2114 0 -2085 57 8 14 230 240 493 502
436 433 483 478 540 502 34 15 88 31 120 36 32 5 763 9 1624 10 l1566 1 7
-107z M4464 4167 c86 -55 108 -73 152 -117 27 -27 66 -78 88 -112 l38 -63 -4
75 c-9 152 -92 231 -239 229 -46 0 -51 -2 -35 -12z M4756 3515 c-41 -140 -49
-149 -540 -643 -261 -263 -486 -480 -519 -502 -123 -83 -270 -114 -408 -87
-310 61 -506 348 -449 658 5 30 29 92 51 139 38 76 59 101 228 273 l186 189
-81 -40 c-97 -49 -227 -144 -285 -210 -61 -69 -124 -169 -143 -229 -15 -44
-17 -84 -14 -252 l3 -199 44 -83 c24 -46 60 -104 79 -129 134 -169 350 -260
551 -231 91 13 196 53 271 104 60 40 855 830 936 931 36 43 77 104 91 135 29
62 40 147 26 201 l-10 35 -17 -60z"/>
</g>
</svg>
