<?xml version="1.0" standalone="no"?>
<!DOCTYPE svg PUBLIC "-//W3C//DTD SVG 20010904//EN"
 "http://www.w3.org/TR/2001/REC-SVG-20010904/DTD/svg10.dtd">
<svg version="1.0" xmlns="http://www.w3.org/2000/svg"
 width="2048.000000pt" height="2048.000000pt" viewBox="0 0 2048.000000 2048.000000"
 preserveAspectRatio="xMidYMid meet">
<metadata>
Created by potrace 1.13, written by Peter Selinger 2001-2015
</metadata>
<g transform="translate(0.000000,2048.000000) scale(0.192120,-0.192120)"
fill="#000000" stroke="none">
<path d="M5390 8694 c-164 -30 -287 -82 -387 -163 -34 -28 -111 -111 -171
-184 -220 -266 -366 -366 -534 -367 -66 0 -78 -7 -78 -44 0 -38 22 -73 92
-144 150 -155 379 -244 588 -228 182 13 273 60 392 200 211 248 295 298 552
326 54 6 125 20 157 30 l58 18 -11 -21 c-27 -52 -187 -268 -236 -319 -40 -42
-81 -71 -153 -108 -54 -28 -114 -65 -133 -84 -30 -28 -36 -40 -36 -76 l0 -42
67 7 c138 15 267 80 366 185 107 113 170 270 166 411 -2 57 1 71 23 100 40 53
48 74 48 121 0 100 -99 219 -246 295 -122 64 -206 84 -364 88 -74 2 -146 2
-160 -1z m321 -269 c78 -20 155 -59 168 -84 8 -14 6 -25 -9 -44 -15 -19 -41
-29 -117 -47 -228 -52 -342 -124 -537 -334 -113 -122 -153 -146 -243 -146
-142 0 -303 47 -303 88 0 9 42 57 94 107 52 49 136 139 187 199 129 151 204
207 334 250 118 38 302 43 426 11z M5025 7490 c-174 -27 -371 -110 -530 -221
-119 -84 -314 -280 -391 -394 -34 -49 -125 -216 -202 -370 -136 -271 -228
-425 -326 -550 -46 -59 -47 -60 -24 -67 13 -3 46 -6 73 -7 49 0 50 1 71 42 14
29 51 67 119 122 55 44 117 103 137 130 21 28 83 137 138 242 171 331 250 440
435 600 77 66 207 146 215 133 4 -7 24 -3 56 11 27 12 99 40 159 62 99 36 120
41 205 41 91 1 100 -1 172 -36 85 -43 176 -131 266 -257 57 -82 62 -101 32
-131 -30 -30 -54 -25 -153 35 -100 61 -154 80 -204 72 -101 -17 -249 -149
-314 -282 -33 -67 -93 -266 -150 -495 -15 -61 -10 -146 11 -204 30 -80 43 -87
85 -46 75 72 132 218 195 495 71 310 183 403 302 251 21 -28 65 -73 96 -99 60
-50 274 -164 452 -240 87 -37 316 -117 335 -117 11 0 4 62 -11 102 -31 81 -88
121 -238 170 -84 27 -100 29 -248 29 -134 -1 -158 1 -151 13 12 21 226 265
267 305 25 24 37 30 39 20 3 -8 14 -50 26 -93 12 -44 31 -93 43 -109 29 -40
144 -133 197 -159 61 -29 165 -34 326 -14 182 22 288 21 345 -5 113 -51 165
-154 139 -275 l-13 -59 -8 53 c-23 151 -138 252 -287 252 -106 0 -120 -11
-546 -439 l-390 -391 -175 0 -175 0 -295 111 -295 111 -360 2 c-198 2 -421 9
-495 16 -74 7 -168 13 -209 14 l-73 1 -29 -70 c-16 -38 -34 -96 -41 -127 l-12
-58 -1400 -2 c-1563 -3 -1430 3 -1516 -74 -66 -60 -85 -104 -85 -204 0 -100
19 -144 85 -204 72 -65 92 -70 322 -76 l206 -5 94 -135 c443 -640 869 -1055
1243 -1212 l80 -33 390 -3 390 -3 215 214 c225 225 296 280 403 317 79 27 196
36 267 21 l54 -12 656 656 656 656 47 -21 c82 -36 155 -5 347 148 78 63 356
336 414 407 93 116 151 155 226 155 38 0 40 -2 40 -30 0 -41 -30 -86 -168
-249 -59 -70 -112 -167 -112 -205 0 -30 55 -96 79 -96 9 0 107 91 217 203 163
164 203 210 214 245 9 28 26 53 47 70 110 83 109 227 0 340 -46 48 -114 87
-169 97 -25 5 -48 1 -79 -13 -66 -30 -110 -35 -191 -22 -98 17 -191 51 -320
117 -210 109 -335 226 -532 502 -140 198 -238 276 -392 316 -72 19 -242 27
-319 15z m247 -1892 c9 -7 29 -53 44 -101 l29 -88 -20 -34 c-11 -18 -56 -73
-99 -122 -43 -48 -89 -110 -102 -137 -12 -27 -29 -53 -36 -57 -16 -11 -3649
-12 -3663 -1 -6 4 -23 32 -38 63 -18 38 -52 80 -101 126 -74 70 -74 71 -50 82
14 6 61 11 104 11 73 0 80 2 80 20 0 20 7 20 1013 20 556 1 1032 5 1056 9 80
16 116 58 127 147 3 27 7 55 10 62 3 9 175 12 817 12 635 0 817 -3 829 -12z
m-447 -659 c5 -14 -2 -34 -21 -62 -43 -67 -398 -412 -446 -436 -29 -13 -80
-24 -155 -31 -130 -12 -223 -38 -310 -86 -87 -48 -147 -98 -326 -270 -96 -93
-176 -162 -205 -176 -46 -22 -54 -23 -337 -23 -274 0 -292 1 -335 21 -62 29
-298 187 -394 263 -236 189 -615 615 -675 759 -28 67 -168 62 1598 62 l1600 0
6 -21z M5657 4712 l-897 -897 6 -78 7 -77 2352 0 2352 0 5 -65 c6 -69 28 -117
68 -146 36 -27 141 -39 348 -39 l182 0 0 -1425 0 -1425 -4760 0 -4760 0 0
1424 0 1425 898 3 c816 4 902 6 956 21 119 35 156 76 156 172 l0 55 -1097 0
c-604 0 -1108 3 -1120 6 l-23 6 0 -1671 0 -1671 5000 0 5000 0 0 1668 0 1667
-416 -3 -417 -3 6 33 c3 18 22 119 42 223 76 398 175 1022 175 1101 0 31 0 31
64 37 81 8 123 25 176 73 66 60 85 104 85 204 0 100 -19 144 -85 204 -86 77
76 71 -1760 73 l-1645 3 -898 -898z m2451 671 c1445 -4 1462 -4 1462 -23 0
-18 7 -20 59 -20 107 0 114 -17 47 -107 -48 -65 -76 -114 -76 -137 0 -8 -7
-22 -16 -30 -14 -14 -186 -16 -1740 -16 -948 0 -1724 4 -1724 8 0 4 42 35 93
69 50 34 136 100 189 146 124 109 166 133 218 120 14 -4 683 -8 1488 -10z
m1336 -530 c6 -95 2 -134 -29 -328 -45 -284 -92 -529 -112 -583 -9 -23 -25
-53 -37 -67 l-22 -25 -2065 2 c-2244 3 -2114 0 -2085 57 8 14 230 240 493 502
436 433 483 478 540 502 34 15 88 31 120 36 32 5 763 9 1624 10 l1566 1 7
-107z M4464 4167 c86 -55 108 -73 152 -117 27 -27 66 -78 88 -112 l38 -63 -4
75 c-9 152 -92 231 -239 229 -46 0 -51 -2 -35 -12z M4756 3515 c-41 -140 -49
-149 -540 -643 -261 -263 -486 -480 -519 -502 -123 -83 -270 -114 -408 -87
-310 61 -506 348 -449 658 5 30 29 92 51 139 38 76 59 101 228 273 l186 189
-81 -40 c-97 -49 -227 -144 -285 -210 -61 -69 -124 -169 -143 -229 -15 -44
-17 -84 -14 -252 l3 -199 44 -83 c24 -46 60 -104 79 -129 134 -169 350 -260
551 -231 91 13 196 53 271 104 60 40 855 830 936 931 36 43 77 104 91 135 29
62 40 147 26 201 l-10 35 -17 -60z"/>
</g>
</svg>
