<?xml version="1.0" standalone="no"?>
<!DOCTYPE svg PUBLIC "-//W3C//DTD SVG 20010904//EN"
 "http://www.w3.org/TR/2001/REC-SVG-20010904/DTD/svg10.dtd">
<svg version="1.0" xmlns="http://www.w3.org/2000/svg"
 width="2048.000000pt" height="2048.000000pt" viewBox="0 0 2048.000000 2048.000000"
 preserveAspectRatio="xMidYMid meet">
<metadata>
Created by potrace 1.13, written by Peter Selinger 2001-2015
</metadata>
<g transform="translate(0.000000,2048.000000) scale(0.192120,-0.192120)"
fill="#000000" stroke="none">
<path d="M5245 8724 c-112 -25 -226 -84 -293 -151 -105 -104 -155 -258 -134
-405 16 -114 57 -194 149 -291 43 -45 106 -114 140 -152 57 -64 64 -68 76 -53
9 12 16 64 21 159 10 214 29 236 158 174 45 -22 68 -9 68 39 0 82 90 142 254
171 128 22 190 20 229 -7 18 -13 34 -24 36 -25 2 -1 -29 -33 -68 -71 -85 -83
-131 -171 -131 -252 0 -53 -26 -150 -40 -150 -5 0 -11 -9 -15 -19 -3 -11 -22
-25 -41 -31 -80 -27 -124 -91 -124 -180 0 -55 2 -56 51 -36 19 8 81 21 139 30
135 21 160 30 196 67 33 34 33 35 19 279 -6 110 -4 139 17 241 18 83 31 122
46 137 58 58 -7 293 -108 391 -48 46 -132 92 -225 121 -93 30 -316 37 -420 14z
m209 -284 c14 -5 26 -15 26 -21 0 -24 -97 -102 -185 -150 -33 -18 -83 -50
-112 -72 -29 -21 -60 -37 -70 -35 -19 3 -31 35 -32 89 -3 120 82 169 336 198
6 0 23 -3 37 -9z M5040 7705 c-1 -27 -11 -88 -23 -134 l-22 -85 -70 -17 c-158
-39 -316 -116 -464 -225 -107 -80 -285 -263 -357 -369 -34 -50 -125 -216 -202
-370 -136 -270 -227 -424 -326 -550 -54 -69 -52 -73 51 -74 l61 -1 26 44 c14
23 58 69 98 102 142 114 174 158 303 413 48 96 119 222 158 280 101 152 255
302 401 390 30 19 40 21 46 11 7 -11 13 -11 32 2 13 8 66 31 118 51 52 20 129
50 170 68 64 28 86 33 155 33 138 -1 198 -44 361 -264 101 -137 110 -180 35
-180 -10 0 -56 23 -102 51 -97 59 -147 79 -198 79 -60 0 -139 -47 -223 -132
-105 -106 -144 -184 -210 -426 -28 -103 -57 -209 -64 -237 -26 -92 -9 -207 40
-277 l16 -22 52 54 c86 90 132 203 198 495 71 310 183 403 302 251 73 -95 141
-142 353 -246 198 -98 351 -159 495 -200 41 -12 82 -24 89 -26 10 -3 -87 -107
-274 -294 l-290 -290 -175 0 -175 0 -318 118 c-298 111 -321 118 -365 111
-117 -19 -594 -6 -910 25 -85 8 -126 8 -131 1 -16 -20 -63 -148 -74 -201 l-11
-54 -1401 -2 c-1562 -3 -1429 3 -1515 -74 -66 -60 -85 -104 -85 -204 0 -100
19 -144 85 -204 72 -65 92 -70 322 -76 l206 -5 94 -135 c443 -640 869 -1055
1243 -1212 l80 -33 390 -3 390 -3 215 214 c225 225 296 280 403 317 79 27 196
36 267 21 l54 -12 656 656 656 656 47 -21 c84 -37 159 -4 362 161 76 62 308
295 342 344 34 49 103 184 103 201 0 24 77 51 167 59 81 6 83 6 94 -18 17 -38
-13 -87 -158 -255 -95 -110 -163 -220 -163 -266 0 -30 54 -96 79 -96 9 0 107
91 217 203 162 163 203 210 212 243 8 27 25 51 52 73 111 89 106 234 -12 348
-49 47 -106 79 -159 88 -27 5 -50 1 -90 -17 -103 -44 -253 -20 -446 72 -254
121 -381 237 -609 559 -109 155 -205 235 -324 272 -83 26 -215 42 -302 37
l-68 -4 30 31 c44 46 52 76 34 132 -8 26 -21 59 -29 73 -14 24 -14 24 -15 -25z
m885 -907 c13 -59 47 -152 73 -196 13 -24 21 -46 17 -50 -3 -4 -89 -9 -190
-12 l-183 -5 41 49 c84 100 219 246 227 246 5 0 12 -15 15 -32z m665 -380 c-3
-2 -52 -48 -109 -102 l-104 -99 -23 69 c-20 59 -30 114 -21 114 44 3 143 13
144 15 2 1 29 3 60 4 32 1 55 1 53 -1z m313 -30 c15 -11 27 -24 27 -29 0 -5
-10 0 -22 11 -13 10 -32 26 -43 35 -25 20 0 9 38 -17z m-1631 -790 c9 -7 29
-53 44 -101 l29 -88 -20 -34 c-11 -18 -56 -73 -99 -122 -43 -48 -89 -110 -102
-137 -12 -27 -29 -53 -36 -57 -16 -11 -3649 -12 -3663 -1 -6 4 -23 32 -38 63
-18 38 -52 80 -101 126 -74 70 -74 71 -50 82 14 6 61 11 104 11 73 0 80 2 80
20 0 20 7 20 1013 20 556 1 1032 5 1056 9 80 16 116 58 127 147 3 27 7 55 10
62 3 9 175 12 817 12 635 0 817 -3 829 -12z m-447 -659 c5 -14 -2 -34 -21 -62
-43 -67 -398 -412 -446 -436 -29 -13 -80 -24 -155 -31 -130 -12 -223 -38 -310
-86 -87 -48 -147 -98 -326 -270 -96 -93 -176 -162 -205 -176 -46 -22 -54 -23
-337 -23 -274 0 -292 1 -335 21 -62 29 -298 187 -394 263 -236 189 -615 615
-675 759 -28 67 -168 62 1598 62 l1600 0 6 -21z M5657 4712 l-897 -897 6 -78
7 -77 2352 0 2352 0 5 -65 c6 -69 28 -117 68 -146 36 -27 141 -39 348 -39
l182 0 0 -1425 0 -1425 -4760 0 -4760 0 0 1424 0 1425 898 3 c816 4 902 6 956
21 119 35 156 76 156 172 l0 55 -1097 0 c-604 0 -1108 3 -1120 6 l-23 6 0
-1671 0 -1671 5000 0 5000 0 0 1668 0 1667 -416 -3 -417 -3 6 33 c3 18 22 119
42 223 76 398 175 1022 175 1101 0 31 0 31 64 37 81 8 123 25 176 73 66 60 85
104 85 204 0 100 -19 144 -85 204 -86 77 76 71 -1760 73 l-1645 3 -898 -898z
m2451 671 c1445 -4 1462 -4 1462 -23 0 -18 7 -20 59 -20 107 0 114 -17 47
-107 -48 -65 -76 -114 -76 -137 0 -8 -7 -22 -16 -30 -14 -14 -186 -16 -1740
-16 -948 0 -1724 4 -1724 8 0 4 42 35 93 69 50 34 136 100 189 146 124 109
166 133 218 120 14 -4 683 -8 1488 -10z m1336 -530 c6 -95 2 -134 -29 -328
-45 -284 -92 -529 -112 -583 -9 -23 -25 -53 -37 -67 l-22 -25 -2065 2 c-2244
3 -2114 0 -2085 57 8 14 230 240 493 502 436 433 483 478 540 502 34 15 88 31
120 36 32 5 763 9 1624 10 l1566 1 7 -107z M4464 4167 c86 -55 108 -73 152
-117 27 -27 66 -78 88 -112 l38 -63 -4 75 c-9 152 -92 231 -239 229 -46 0 -51
-2 -35 -12z M4756 3515 c-41 -140 -49 -149 -540 -643 -261 -263 -486 -480
-519 -502 -123 -83 -270 -114 -408 -87 -310 61 -506 348 -449 658 5 30 29 92
51 139 38 76 59 101 228 273 l186 189 -81 -40 c-97 -49 -227 -144 -285 -210
-61 -69 -124 -169 -143 -229 -15 -44 -17 -84 -14 -252 l3 -199 44 -83 c24 -46
60 -104 79 -129 134 -169 350 -260 551 -231 91 13 196 53 271 104 60 40 855
830 936 931 36 43 77 104 91 135 29 62 40 147 26 201 l-10 35 -17 -60z"/>
</g>
</svg>
