<?xml version="1.0" standalone="no"?>
<!DOCTYPE svg PUBLIC "-//W3C//DTD SVG 20010904//EN"
 "http://www.w3.org/TR/2001/REC-SVG-20010904/DTD/svg10.dtd">
<svg version="1.0" xmlns="http://www.w3.org/2000/svg"
 width="2048.000000pt" height="2048.000000pt" viewBox="0 0 2048.000000 2048.000000"
 preserveAspectRatio="xMidYMid meet">
<metadata>
Created by potrace 1.13, written by Peter Selinger 2001-2015
</metadata>
<g transform="translate(0.000000,2048.000000) scale(0.192120,-0.192120)"
fill="#000000" stroke="none">
<path d="M3755 10314 c-222 -40 -415 -137 -575 -291 -176 -167 -284 -364 -332
-603 -19 -96 -19 -8084 0 -8180 44 -218 140 -404 289 -560 167 -175 365 -284
603 -332 99 -20 3085 -19 3185 1 451 90 796 436 887 891 19 96 19 8084 0 8180
-45 223 -141 407 -298 570 -170 177 -373 283 -618 325 -129 22 -3017 21 -3141
-1z m3197 -316 c265 -73 477 -250 558 -464 20 -55 20 -57 20 -4195 l0 -4140
-21 -62 c-74 -225 -283 -415 -533 -487 -142 -40 -193 -41 -1711 -38 l-1460 4
-85 22 c-171 45 -359 159 -453 273 -51 63 -117 184 -139 254 -17 58 -18 217
-18 4175 l1 4115 28 71 c102 260 367 452 683 493 35 5 731 8 1548 7 l1485 -1
97 -27z M5106 9674 c-322 -58 -641 -270 -836 -554 -46 -68 -130 -235 -158
-315 -45 -129 -52 -180 -52 -418 0 -257 11 -328 77 -481 195 -457 540 -749
982 -831 108 -20 314 -20 422 0 486 90 871 458 1019 972 30 104 30 109 30 337
0 214 -2 239 -25 327 -26 102 -94 264 -146 350 -56 93 -120 171 -219 269 -186
185 -408 302 -657 345 -107 19 -331 18 -437 -1z m344 -184 c637 -73 1082 -663
974 -1291 -61 -355 -287 -655 -609 -810 -313 -151 -652 -153 -962 -4 -116 55
-188 104 -280 190 -149 137 -265 331 -319 530 -25 92 -28 115 -28 280 0 163 3
189 27 278 92 342 333 618 657 750 181 74 353 98 540 77z M5188 6679 c-292
-36 -562 -171 -778 -389 -127 -128 -202 -231 -275 -378 -108 -214 -125 -297
-125 -585 0 -246 10 -305 72 -462 89 -224 205 -395 380 -560 243 -230 533
-347 863 -348 210 -1 371 36 557 128 349 172 624 520 733 927 23 86 25 110 25
316 0 205 -2 231 -25 322 -33 132 -116 314 -195 430 -122 177 -312 354 -482
448 -221 122 -511 181 -750 151z m413 -272 c239 -62 439 -191 590 -377 88
-108 179 -289 216 -425 24 -90 27 -117 27 -275 0 -158 -3 -185 -27 -275 -33
-122 -117 -296 -188 -390 -228 -300 -569 -460 -943 -442 -617 30 -1082 543
-1053 1161 18 383 226 722 559 911 123 69 234 107 408 139 14 3 90 3 170 1
115 -2 165 -8 241 -28z M5200 3594 c-216 -28 -426 -108 -595 -229 -101 -71
-238 -206 -317 -310 -75 -98 -179 -309 -213 -431 -26 -90 -26 -97 -23 -370 l3
-279 33 -95 c63 -178 155 -342 271 -482 445 -537 1202 -623 1736 -197 218 173
377 408 465 684 45 141 50 183 50 394 0 186 -2 206 -29 312 -84 331 -290 619
-576 804 -138 90 -255 140 -415 176 -83 19 -315 32 -390 23z m239 -214 c326
-34 628 -214 809 -483 305 -452 240 -1052 -154 -1427 -440 -418 -1119 -407
-1550 24 -143 143 -241 312 -291 504 -33 130 -42 329 -19 458 92 530 525 905
1077 933 15 0 72 -4 128 -9z"/>
</g>
</svg>
