<?xml version="1.0" standalone="no"?>
<!DOCTYPE svg PUBLIC "-//W3C//DTD SVG 20010904//EN"
 "http://www.w3.org/TR/2001/REC-SVG-20010904/DTD/svg10.dtd">
<svg version="1.0" xmlns="http://www.w3.org/2000/svg"
 width="2048.000000pt" height="2048.000000pt" viewBox="0 0 2048.000000 2048.000000"
 preserveAspectRatio="xMidYMid meet">
<metadata>
Created by potrace 1.13, written by Peter Selinger 2001-2015
</metadata>
<g transform="translate(0.000000,2048.000000) scale(0.192120,-0.192120)"
fill="#000000" stroke="none">
<path d="M1308 9489 c-413 -47 -777 -340 -916 -739 -63 -180 -62 -160 -62
-1399 l1 -1126 40 105 c23 58 60 157 83 220 l41 115 3 513 c2 352 -1 512 -8
507 -6 -3 -10 3 -10 15 0 13 -25 48 -61 86 l-62 63 214 222 c118 122 481 487
808 811 l594 589 61 -60 c51 -50 70 -62 112 -71 35 -8 210 -10 535 -8 l484 3
90 31 c50 17 141 50 204 75 l114 44 -59 6 c-84 10 -2125 8 -2206 -2z m-26
-344 c-2 -11 -20 -40 -40 -65 -57 -70 -586 -600 -599 -600 -16 0 -27 80 -20
143 10 88 79 208 172 302 97 99 204 167 333 212 109 37 159 40 154 8z M1997
7832 l-1667 -1667 0 -46 c0 -117 55 -331 118 -454 86 -171 254 -353 411 -445
177 -104 311 -148 479 -157 l102 -6 0 -1948 0 -1949 695 0 695 0 0 1915 c0
1315 -3 1915 -10 1915 -22 0 -180 -171 -180 -195 0 -8 -4 -15 -10 -15 -7 0
-10 -557 -10 -1650 0 -1643 0 -1650 -20 -1650 -17 0 -20 -7 -20 -45 l0 -45
-455 0 -455 0 2 1773 3 1772 205 5 c226 6 249 12 275 65 8 18 15 36 15 39 0 3
-161 7 -357 8 -197 1 -341 3 -320 5 20 2 37 6 37 9 0 16 -43 83 -67 105 -75
71 -147 85 -421 82 l-223 -3 20 28 c39 54 4177 4182 4191 4182 9 0 40 -25 69
-55 30 -31 66 -59 80 -63 14 -4 251 -7 526 -7 571 0 525 -6 788 98 l137 54
-83 6 c-46 4 -713 7 -1483 7 l-1399 0 -1668 -1668z m2352 1359 c9 -6 12 -18 7
-37 -9 -35 -3464 -3497 -3509 -3515 -63 -26 -133 46 -201 206 -23 56 -30 89
-33 165 l-5 95 1514 1511 c1021 1020 1529 1521 1562 1539 30 18 71 31 110 35
90 11 539 11 555 1z M4500 7281 c-1218 -1219 -2216 -2219 -2218 -2223 -2 -5
308 -8 690 -8 l693 0 2210 2210 2210 2210 60 -60 c87 -86 80 -85 630 -84 l460
0 175 37 c96 20 191 37 210 39 33 3 30 5 -40 31 -176 65 -83 61 -1540 63
l-1325 1 -2215 -2216z m2899 1910 c25 -16 3 -57 -83 -152 -167 -186 -3630
-3636 -3676 -3662 -25 -14 -74 -31 -110 -36 -70 -12 -326 -13 -480 -2 -91 6
-95 7 -98 30 -3 21 283 310 1865 1891 1274 1274 1884 1876 1917 1896 33 19 70
30 115 34 99 11 534 11 550 1z M7520 7245 c-1185 -1185 -2161 -2155 -2169
-2155 -8 0 -42 27 -76 59 -41 40 -73 62 -96 66 -19 3 -254 5 -524 3 -557 -5
-506 2 -764 -101 -123 -50 -131 -55 -101 -61 18 -3 683 -6 1479 -6 l1446 0
1793 1793 c1724 1724 1792 1793 1786 1822 -3 17 -22 71 -41 120 -99 252 -272
450 -503 574 l-76 40 -2154 -2154z m2237 1764 c52 -25 170 -149 201 -211 14
-29 22 -63 22 -97 l0 -52 -109 -117 c-110 -118 -2773 -2778 -3018 -3015 -96
-93 -147 -135 -190 -155 l-58 -27 -255 0 c-140 0 -272 4 -292 8 -87 18 -180
-80 1760 1859 1181 1181 1809 1802 1832 1812 46 20 56 20 107 -5z M10301 8576
c-1 -11 -29 -101 -63 -200 l-63 -181 -3 -515 c-2 -283 0 -530 3 -547 4 -22 26
-53 66 -94 l59 -61 -39 -46 c-22 -26 -452 -459 -955 -962 -504 -503 -916 -916
-916 -917 0 -9 889 -1 965 8 498 61 900 458 965 954 16 124 10 2506 -7 2550
-8 21 -12 24 -12 11z m-296 -2723 c-105 -278 -324 -447 -658 -507 -45 -8 -98
-17 -117 -20 -19 -2 -58 -7 -85 -11 -63 -8 -105 6 -105 37 0 23 506 539 825
841 l160 152 3 -212 c2 -206 2 -213 -23 -280z M7238 5210 c-71 -12 -140 -34
-292 -94 l-140 -54 55 -7 c30 -3 260 -5 512 -3 l457 3 0 -1947 0 -1948 695 0
695 0 0 1909 c0 1337 -3 1912 -11 1916 -16 11 -179 -163 -179 -190 0 -8 -4
-15 -10 -15 -7 0 -10 -557 -10 -1650 0 -1643 0 -1650 -20 -1650 -17 0 -20 -7
-20 -45 l0 -45 -455 0 -455 0 0 1774 0 1773 60 7 c89 10 114 22 139 66 l22 40
-218 2 c-120 0 -203 3 -185 5 17 2 32 6 32 9 0 2 -11 22 -25 43 -32 52 -80 88
-135 100 -52 12 -442 13 -512 1z"/>
</g>
</svg>
