<?xml version="1.0" standalone="no"?>
<!DOCTYPE svg PUBLIC "-//W3C//DTD SVG 20010904//EN"
 "http://www.w3.org/TR/2001/REC-SVG-20010904/DTD/svg10.dtd">
<svg version="1.0" xmlns="http://www.w3.org/2000/svg"
 width="2048.000000pt" height="2048.000000pt" viewBox="0 0 2048.000000 2048.000000"
 preserveAspectRatio="xMidYMid meet">
<metadata>
Created by potrace 1.13, written by Peter Selinger 2001-2015
</metadata>
<g transform="translate(0.000000,2048.000000) scale(0.192120,-0.192120)"
fill="#000000" stroke="none">
<path d="M5065 10323 c-563 -33 -1103 -153 -1603 -354 -190 -76 -527 -245
-704 -352 -594 -358 -1109 -835 -1506 -1395 -282 -396 -539 -909 -681 -1356
-353 -1110 -316 -2292 106 -3366 400 -1020 1146 -1898 2093 -2464 1146 -685
2540 -882 3835 -541 569 150 1143 418 1619 759 1239 886 2000 2254 2096 3766
116 1844 -798 3600 -2381 4576 -299 184 -742 388 -1074 494 -389 124 -806 202
-1220 230 -137 9 -457 11 -580 3z m575 -243 c382 -26 702 -83 1070 -190 309
-90 544 -176 735 -269 742 -360 1391 -926 1862 -1626 407 -604 673 -1320 767
-2063 19 -149 23 -1000 5 -1160 -79 -726 -340 -1444 -757 -2082 -544 -834
-1441 -1541 -2322 -1828 -628 -205 -1091 -284 -1670 -284 -583 0 -1054 81
-1675 287 -877 291 -1742 975 -2313 1830 -182 274 -370 640 -486 951 -131 351
-219 708 -266 1088 -20 156 -21 206 -18 650 4 520 9 571 74 896 121 604 371
1200 717 1715 285 424 651 809 1101 1159 273 212 688 451 986 569 481 189
1055 321 1545 356 173 12 477 12 645 1z M4995 9763 c-95 -7 -374 -44 -477 -64
-745 -144 -1355 -425 -1972 -909 l-102 -79 1828 -1828 1828 -1828 170 -3 170
-2 0 -170 0 -170 134 -131 c74 -72 187 -186 251 -254 l116 -124 -26 -39 c-54
-82 -51 -145 14 -240 102 -150 387 -372 476 -372 13 0 49 14 80 30 l57 30 584
-583 584 -583 103 130 c516 657 826 1405 932 2246 22 172 31 656 16 846 -76
956 -436 1826 -1055 2553 -122 144 -376 397 -516 513 -717 595 -1531 934
-2454 1023 -145 14 -587 19 -741 8z m607 -263 c384 -26 743 -95 1087 -210 142
-47 320 -117 339 -132 18 -15 15 -48 -5 -54 -10 -3 -27 -10 -38 -14 -11 -5
-51 -16 -89 -25 -220 -52 -437 -176 -607 -346 -112 -113 -191 -224 -259 -364
-90 -185 -100 -238 -100 -502 0 -217 1 -223 29 -310 97 -296 326 -554 572
-647 93 -35 205 -56 301 -56 46 0 90 -5 98 -10 20 -12 1 -44 -99 -170 -155
-195 -203 -268 -274 -421 -81 -172 -97 -239 -97 -401 l0 -140 35 -67 c85 -161
241 -297 363 -317 57 -9 68 -18 55 -46 -11 -25 -90 -123 -135 -169 -16 -16
-28 -33 -28 -39 0 -5 -16 -10 -35 -10 -19 0 -35 5 -35 10 0 30 -193 220 -254
250 -37 18 -72 24 -166 29 -106 6 -122 10 -161 35 -59 38 -3242 3222 -3263
3264 -10 18 -14 41 -11 52 7 21 158 126 321 223 740 437 1607 644 2456 587z
m1916 -705 c446 -85 756 -413 838 -889 25 -139 15 -378 -21 -515 -90 -347
-290 -627 -597 -839 -351 -242 -572 -510 -612 -742 -7 -41 -20 -90 -30 -108
-51 -99 -232 -125 -327 -45 -45 38 -59 74 -59 151 0 86 26 190 78 309 121 281
345 529 706 783 236 165 363 335 427 565 81 296 7 612 -182 778 -70 62 -194
123 -289 143 -119 25 -349 15 -459 -21 -141 -45 -236 -110 -299 -205 -147
-219 -126 -515 42 -591 92 -42 244 -12 294 58 23 33 41 99 42 151 0 39 29 99
62 128 82 76 222 72 294 -8 48 -51 57 -85 52 -187 -12 -226 -136 -415 -333
-507 -95 -44 -170 -58 -300 -57 -273 3 -473 118 -580 336 -60 123 -76 188 -82
337 -4 101 -1 144 15 221 84 405 374 673 813 753 46 9 104 17 129 20 82 7 294
-3 378 -19z m1163 -914 c35 -27 175 -225 270 -381 263 -433 446 -924 534
-1435 25 -145 25 -152 25 -730 0 -538 -2 -592 -20 -702 -73 -428 -187 -785
-375 -1168 -100 -205 -292 -517 -373 -607 -39 -43 -62 -47 -109 -18 -42 25
-310 287 -430 419 -119 131 -119 139 -13 196 130 69 286 237 363 390 13 28 36
87 51 133 26 82 26 87 26 380 0 318 -3 339 -55 462 -73 174 -274 379 -440 450
-137 59 -164 62 -560 70 -355 8 -425 14 -432 36 -2 6 25 42 60 80 100 107 140
179 197 344 48 140 171 274 422 463 245 183 380 321 515 522 137 205 238 458
278 696 9 52 19 167 22 257 3 89 9 162 13 162 4 0 18 -9 31 -19z m-709 -2850
c207 -53 343 -182 395 -372 23 -84 26 -502 4 -589 -37 -152 -129 -269 -261
-333 -124 -60 -171 -69 -405 -74 l-211 -5 -246 247 -247 248 -3 448 -3 449
451 0 c413 0 457 -2 526 -19z M1864 8107 c-209 -263 -366 -509 -513 -804 -233
-467 -364 -906 -437 -1463 -22 -171 -30 -645 -14 -848 99 -1282 734 -2439
1765 -3219 659 -497 1464 -802 2310 -873 182 -15 578 -12 766 6 873 82 1683
412 2374 964 50 39 91 75 93 79 1 3 -365 373 -814 821 -448 448 -843 846 -876
883 l-61 68 33 34 c26 26 34 45 38 83 9 96 -22 137 -387 507 -514 522 -579
585 -701 683 -176 142 -234 161 -325 107 l-46 -26 -97 90 c-53 49 -754 747
-1557 1550 -803 804 -1462 1461 -1465 1461 -3 0 -42 -46 -86 -103z m139 -291
c49 -21 2430 -2408 2425 -2432 -2 -10 -14 -21 -28 -25 -14 -4 -488 -8 -1055
-9 -1124 -2 -1422 -8 -1525 -35 -234 -61 -446 -242 -583 -497 -47 -90 -68 -99
-89 -40 -10 29 -13 155 -13 587 l0 550 29 155 c74 402 177 722 346 1075 130
271 355 624 424 666 37 23 30 22 69 5z m3775 -3427 c614 -614 662 -664 662
-696 l0 -33 -2267 3 c-2154 2 -2271 3 -2327 21 -170 51 -282 138 -346 270 -23
48 -44 108 -50 146 -16 102 -12 452 5 535 43 203 178 337 397 395 70 18 129
19 1668 19 l1595 1 663 -661z m-4176 -916 c62 -39 140 -71 232 -96 l81 -22
2265 -2 c1246 -2 2274 -3 2285 -3 12 0 263 -244 692 -672 556 -556 673 -677
673 -699 0 -37 -60 -88 -223 -190 -619 -387 -1278 -600 -2001 -648 -1019 -68
-2045 237 -2851 849 -178 135 -281 225 -441 384 -303 304 -563 659 -725 990
-68 139 -66 159 13 109z M6086 4970 c-53 -59 -51 -106 8 -185 41 -57 75 -93
86 -94 3 0 22 -7 42 -15 63 -27 95 -21 141 25 l41 40 -135 135 c-73 74 -137
134 -140 134 -4 0 -23 -18 -43 -40z"/>
</g>
</svg>
