<?xml version="1.0" standalone="no"?>
<!DOCTYPE svg PUBLIC "-//W3C//DTD SVG 20010904//EN"
 "http://www.w3.org/TR/2001/REC-SVG-20010904/DTD/svg10.dtd">
<svg version="1.0" xmlns="http://www.w3.org/2000/svg"
 width="2048.000000pt" height="2048.000000pt" viewBox="0 0 2048.000000 2048.000000"
 preserveAspectRatio="xMidYMid meet">
<metadata>
Created by potrace 1.13, written by Peter Selinger 2001-2015
</metadata>
<g transform="translate(0.000000,2048.000000) scale(0.192120,-0.192120)"
fill="#000000" stroke="none">
<path d="M4770 9635 l0 -695 254 0 c159 0 257 4 261 10 3 6 2 10 -3 10 -5 0
-29 13 -53 30 -24 16 -59 32 -76 36 -18 3 -33 10 -33 15 0 5 -25 9 -55 9 -42
0 -55 3 -55 15 0 10 -10 15 -30 15 -29 0 -30 2 -30 45 0 33 -4 45 -15 45 -13
0 -15 25 -15 165 0 103 -4 165 -10 165 -5 0 -10 9 -10 20 0 12 -5 26 -10 33
-42 49 -110 166 -110 188 l0 26 518 7 c284 4 530 3 545 -1 l28 -8 -65 -90
c-36 -50 -74 -100 -86 -112 -11 -12 -20 -29 -20 -38 0 -8 -4 -15 -10 -15 -6 0
-10 -52 -10 -135 0 -128 -1 -135 -20 -135 -17 0 -20 -7 -20 -45 l0 -45 -60 0
-60 0 0 45 c0 38 -3 45 -20 45 -19 0 -20 7 -20 123 0 113 -2 126 -27 174 -15
29 -49 74 -75 100 l-48 47 0 -372 0 -372 280 0 280 0 0 695 0 695 -560 0 -560
0 0 -695z m560 400 l0 -185 -67 46 c-38 26 -69 50 -71 55 -2 5 -19 11 -38 15
-19 3 -34 12 -34 20 0 8 -10 14 -25 14 -22 0 -25 4 -25 40 0 36 3 40 25 40 14
0 25 5 25 10 0 6 9 10 20 10 11 0 20 5 20 10 0 6 7 10 15 10 9 0 18 7 21 15 4
8 11 15 18 16 6 0 31 15 56 34 25 19 48 34 53 34 4 1 7 -82 7 -184z M2717
8463 c-16 -263 -31 -513 -34 -555 l-6 -78 -338 0 -339 0 0 -836 0 -837 291 5
291 4 -6 -60 c-7 -70 -56 -874 -56 -920 l0 -30 34 33 c41 40 71 104 85 186 17
98 31 353 31 564 0 227 -2 234 -81 305 -63 57 -105 66 -294 66 l-145 0 0 675
0 675 25 0 c18 0 25 5 25 19 0 18 11 19 203 23 223 4 243 8 312 69 65 58 75
95 91 333 7 116 18 267 24 336 5 69 13 157 15 195 8 104 16 135 31 135 8 0 14
9 14 20 0 19 11 20 878 22 815 3 880 4 912 21 36 18 70 62 70 91 0 15 -91 16
-1003 16 l-1002 0 -28 -477z M5950 8935 c0 -2 7 -22 16 -44 11 -28 27 -45 52
-58 35 -17 87 -18 885 -21 836 -3 847 -3 847 -22 0 -13 7 -20 19 -20 25 0 28
-15 41 -195 6 -82 15 -164 20 -180 5 -17 17 -132 25 -255 8 -124 21 -245 28
-269 16 -57 65 -114 125 -143 44 -21 61 -23 260 -26 200 -4 212 -5 212 -23 0
-14 7 -19 25 -19 l25 0 0 -630 c0 -623 0 -630 -20 -630 -17 0 -20 -7 -20 -44
l0 -44 -157 -4 c-121 -3 -168 -8 -200 -22 -42 -18 -100 -72 -123 -116 -21 -39
-23 -229 -6 -500 17 -257 32 -350 66 -405 23 -38 70 -82 70 -67 0 33 -51 856
-56 908 l-6 60 291 -4 291 -5 0 837 0 836 -339 0 -338 0 -6 78 c-3 42 -18 292
-33 555 l-28 477 -983 0 c-541 0 -983 -2 -983 -5z M3110 8110 l0 -280 2220 0
2220 0 0 280 0 280 -2220 0 -2220 0 0 -280z m4240 -10 l0 -80 -2030 0 -2030 0
0 80 0 80 2030 0 2030 0 0 -80z M2550 6998 l0 -278 2780 0 2780 0 0 278 0 277
-2780 0 -2780 0 0 -277z M3110 5655 c0 -318 4 -505 10 -505 5 0 14 9 20 19 5
11 17 27 27 36 10 10 18 39 21 71 3 37 9 54 18 54 12 0 14 57 14 335 0 291 2
335 15 335 8 0 15 9 15 20 0 20 7 20 2070 20 2063 0 2070 0 2070 -20 0 -13 7
-20 20 -20 19 0 20 -7 20 -195 0 -123 4 -195 10 -195 6 0 10 -46 10 -119 0
-69 4 -122 10 -126 6 -3 10 -22 10 -41 0 -19 4 -34 8 -34 4 0 13 -15 20 -34 7
-18 21 -41 32 -51 20 -18 20 -16 20 468 l0 487 -2220 0 -2220 0 0 -505z M3660
5493 c0 -65 3 -176 7 -246 l6 -129 29 31 c15 16 28 35 28 40 0 6 5 11 10 11 6
0 10 18 10 40 0 22 5 40 10 40 6 0 10 33 10 80 0 64 3 80 15 80 8 0 15 9 15
20 0 20 7 20 1520 20 1513 0 1520 0 1520 -20 0 -13 7 -20 20 -20 18 0 20 -7
20 -55 0 -42 3 -55 15 -55 10 0 15 -10 15 -30 0 -16 5 -30 10 -30 6 0 10 -6
10 -14 0 -15 49 -71 55 -64 3 3 8 98 12 211 l6 207 -1671 0 -1672 0 0 -117z
M1720 5038 c0 -27 76 -388 130 -618 167 -712 396 -1447 638 -2050 45 -111 68
-166 139 -330 l20 -45 -1158 3 -1159 3 0 -836 0 -835 5000 0 5000 0 0 835 0
835 -1072 0 c-590 0 -1110 -3 -1155 -7 l-83 -6 0 -51 c0 -67 33 -134 80 -161
34 -20 55 -20 1005 -26 534 -3 971 -6 973 -7 1 -1 2 -267 2 -592 l0 -590
-4760 0 -4760 0 0 589 0 588 46 7 c26 3 466 6 979 6 1038 0 992 -3 1082 69 26
21 80 67 119 103 l72 66 -50 6 c-42 6 -49 10 -42 24 16 35 15 112 -1 169 -9
32 -50 141 -90 243 -109 277 -192 510 -306 860 -56 173 -115 342 -132 375 -19
39 -64 95 -128 161 -55 56 -99 105 -99 108 0 3 1483 6 3296 6 l3297 0 -91 -94
c-57 -59 -102 -116 -121 -154 -17 -34 -67 -173 -111 -309 -129 -397 -177 -533
-275 -784 -138 -351 -156 -382 -230 -399 -23 -6 -505 -10 -1142 -10 l-1103 0
0 45 c0 33 -4 45 -15 45 -13 0 -15 87 -15 720 0 473 -3 720 -10 720 -5 0 -10
7 -10 15 0 9 -5 21 -10 28 -6 7 -29 36 -52 65 -23 28 -52 59 -65 67 l-23 15 0
-957 0 -958 1340 0 c884 0 1341 3 1344 10 2 6 36 84 76 175 184 426 406 1070
561 1625 97 349 236 939 284 1208 l7 37 -1806 0 -1806 0 0 -260 0 -260 23 15
c29 18 82 84 98 119 7 14 16 26 21 26 4 0 8 11 8 25 0 14 5 25 10 25 6 0 10
16 10 35 0 24 5 35 15 35 8 0 15 9 15 20 0 21 0 21 718 17 394 -2 906 -9 1137
-15 231 -6 599 -14 818 -17 340 -6 397 -9 397 -22 0 -8 9 -17 20 -20 11 -3 20
-13 20 -22 0 -23 26 -94 62 -174 17 -37 29 -69 26 -72 -6 -6 -6840 -7 -6846 0
-2 2 14 46 36 97 22 51 45 117 52 146 7 28 16 52 20 52 5 0 12 9 15 20 5 15
15 20 41 20 20 0 37 6 40 14 4 11 84 15 442 20 240 4 483 11 539 16 56 5 200
12 320 16 120 3 256 12 302 20 66 11 226 14 752 14 439 0 669 3 669 10 0 6 8
10 18 10 9 0 51 19 92 43 l75 42 -150 2 c-82 2 -887 4 -1788 5 -1522 3 -1637
2 -1637 -14z m3610 -824 l0 -207 -32 27 c-18 15 -43 32 -55 38 -13 6 -23 15
-23 19 0 5 -16 11 -35 15 -20 3 -35 12 -35 20 0 12 -216 14 -1427 14 l-1426 0
-53 26 c-68 33 -77 57 -36 95 l31 29 1455 0 c1288 0 1456 2 1456 15 0 8 9 15
20 15 11 0 20 4 20 9 0 5 11 12 24 15 13 3 41 21 62 41 22 19 42 35 47 35 4 0
7 -93 7 -206z m3140 27 c0 -28 -7 -49 -24 -68 l-24 -28 -1449 -3 c-796 -1
-1458 0 -1470 3 -21 5 -23 11 -23 70 l0 65 1495 0 1495 0 0 -39z"/>
</g>
</svg>
