<?xml version="1.0" standalone="no"?>
<!DOCTYPE svg PUBLIC "-//W3C//DTD SVG 20010904//EN"
 "http://www.w3.org/TR/2001/REC-SVG-20010904/DTD/svg10.dtd">
<svg version="1.0" xmlns="http://www.w3.org/2000/svg"
 width="2048.000000pt" height="2048.000000pt" viewBox="0 0 2048.000000 2048.000000"
 preserveAspectRatio="xMidYMid meet">
<metadata>
Created by potrace 1.13, written by Peter Selinger 2001-2015
</metadata>
<g transform="translate(0.000000,2048.000000) scale(0.192120,-0.192120)"
fill="#000000" stroke="none">
<path d="M2320 10319 c-329 -55 -614 -328 -679 -649 -6 -30 -171 -1616 -366
-3525 -195 -1908 -358 -3498 -361 -3532 l-7 -63 4442 0 c4235 0 4441 1 4441
18 0 64 -793 7099 -806 7147 -8 33 -33 96 -54 140 -107 222 -290 374 -545 451
-57 18 -185 19 -3035 20 -1748 1 -2997 -2 -3030 -7z m2600 -249 c0 -20 7 -20
415 -20 408 0 415 0 415 20 0 20 7 20 1199 20 791 0 1226 -4 1278 -11 165 -22
259 -65 359 -164 136 -134 163 -209 209 -570 20 -148 42 -297 50 -330 8 -33
15 -104 15 -158 0 -142 64 -700 90 -782 23 -75 150 -1229 150 -1366 0 -115 32
-402 54 -484 19 -68 18 -66 86 -670 33 -294 60 -579 60 -633 0 -151 71 -774
100 -872 5 -19 10 -76 10 -126 0 -50 18 -252 40 -449 39 -344 49 -552 34 -647
l-7 -38 -4137 0 -4138 0 -6 31 c-18 92 11 400 319 3415 179 1748 330 3219 336
3267 15 125 40 205 88 286 96 163 256 265 452 290 35 5 619 9 1297 10 1226 1
1232 1 1232 -19z M5275 9921 c-50 -23 -164 -140 -198 -204 -43 -79 -91 -356
-85 -488 3 -65 10 -97 30 -141 15 -32 26 -58 24 -58 -13 0 -236 -44 -304 -60
-200 -47 -451 -143 -639 -245 -48 -27 -150 -91 -227 -142 -76 -51 -139 -93
-140 -93 -2 0 -14 26 -29 58 -38 82 -75 122 -190 205 -189 136 -356 227 -417
227 -17 0 -49 -9 -70 -20 -52 -26 -175 -143 -192 -181 -7 -16 -17 -29 -22 -29
-4 0 -7 -28 -4 -63 6 -101 79 -240 230 -439 73 -95 106 -123 188 -161 36 -16
66 -30 68 -32 1 -1 -40 -65 -91 -141 -153 -228 -248 -419 -326 -656 -48 -147
-61 -200 -96 -378 -14 -74 -27 -135 -28 -136 -1 -1 -20 7 -42 17 -105 51 -121
52 -341 14 -111 -18 -224 -43 -251 -53 -134 -51 -253 -186 -253 -287 0 -87
140 -241 260 -286 69 -26 454 -92 458 -79 2 6 10 10 18 10 8 0 46 13 85 30 38
16 69 27 69 25 0 -3 16 -82 34 -177 76 -380 203 -682 424 -1006 46 -68 82
-125 80 -127 -2 -2 -32 -15 -68 -30 -36 -15 -80 -41 -98 -58 -71 -67 -212
-268 -278 -397 -33 -64 -38 -84 -38 -140 -1 -76 23 -120 110 -207 93 -93 163
-111 267 -69 172 71 507 325 507 385 0 10 26 69 36 80 2 2 38 -21 81 -51 344
-241 688 -386 1083 -458 69 -13 128 -26 132 -29 4 -3 -4 -37 -17 -74 -33 -90
-33 -187 1 -382 33 -191 73 -282 160 -370 69 -70 115 -95 173 -95 123 0 266
168 302 354 57 295 62 401 24 501 l-24 65 22 5 c12 3 82 16 155 31 359 68 669
196 984 407 163 108 157 107 180 33 17 -56 99 -134 258 -247 209 -147 293
-187 373 -175 105 16 242 167 254 280 8 63 -35 159 -144 325 -112 169 -184
246 -268 285 -33 16 -61 30 -63 31 -2 2 42 71 97 154 214 324 343 640 411
1011 31 166 20 152 93 123 38 -15 82 -25 112 -25 28 0 52 -4 56 -9 6 -10 325
43 385 65 61 21 113 57 164 112 134 144 132 238 -10 376 -86 83 -128 99 -352
138 -145 25 -179 28 -246 20 -42 -5 -94 -16 -116 -25 -21 -9 -44 -14 -50 -12
-7 3 -20 51 -30 108 -68 394 -199 718 -428 1057 -49 74 -88 135 -86 137 2 1
36 19 77 40 83 44 146 112 256 275 132 197 170 312 129 393 -50 98 -194 217
-263 217 -63 0 -186 -66 -381 -206 -147 -105 -191 -147 -225 -220 -15 -33 -29
-60 -30 -62 -2 -2 -59 35 -128 82 -234 161 -478 278 -747 360 -97 29 -194 51
-412 92 l-27 5 26 67 c23 61 25 76 20 177 -6 135 -49 366 -81 438 -13 29 -51
83 -85 120 -97 103 -170 128 -256 88z m138 -199 c33 -29 37 -47 78 -300 22
-136 96 -591 164 -1012 68 -421 127 -791 131 -822 4 -32 10 -58 14 -58 4 0 27
15 51 33 24 19 287 209 584 422 924 665 968 696 1050 757 86 63 111 74 151 64
66 -17 99 -89 68 -146 -18 -32 -1169 -1636 -1237 -1723 -32 -41 -27 -56 17
-57 11 0 350 -54 755 -120 405 -66 876 -142 1046 -169 306 -50 310 -51 338
-81 44 -49 33 -130 -23 -160 -17 -9 -1970 -330 -2104 -346 -31 -4 -56 -11 -56
-16 0 -5 20 -35 43 -66 24 -31 178 -244 342 -472 164 -228 430 -598 591 -822
161 -223 296 -417 299 -431 11 -41 -19 -96 -61 -113 -20 -9 -48 -13 -61 -9
-20 5 -1536 1088 -1725 1232 -31 24 -61 43 -66 43 -5 0 -12 -24 -16 -53 -15
-132 -337 -2090 -346 -2107 -30 -56 -111 -67 -160 -22 l-30 27 -165 1015 c-90
558 -167 1041 -171 1073 -4 32 -10 60 -15 63 -4 2 -50 -26 -101 -64 -51 -38
-327 -237 -613 -442 -286 -206 -617 -444 -735 -529 -271 -196 -338 -241 -356
-241 -56 0 -114 57 -114 113 0 29 -11 12 266 397 121 168 384 532 584 810 199
278 378 525 397 549 39 52 41 61 10 61 -12 0 -159 22 -327 49 -168 28 -627
102 -1020 165 -393 64 -729 118 -747 121 -43 8 -90 48 -98 85 -8 35 15 89 46
108 11 7 132 31 267 53 136 22 591 96 1012 164 421 68 791 127 823 131 32 4
60 11 63 15 3 5 -21 44 -54 86 -32 43 -226 312 -432 598 -205 286 -412 574
-460 640 -333 458 -332 457 -327 498 10 73 89 119 147 85 24 -14 1627 -1165
1719 -1235 24 -18 47 -31 51 -28 4 2 10 30 14 62 4 32 78 500 166 1041 88 540
160 990 160 998 0 32 32 83 63 98 37 19 82 14 110 -12z m649 -947 c190 -55
385 -137 530 -223 141 -83 152 -70 -303 -397 -141 -101 -268 -190 -283 -196
-23 -11 -28 -9 -46 11 -25 29 -33 59 -64 245 -70 419 -90 588 -71 607 8 8 133
-17 237 -47z m-1208 29 c16 -42 2 -198 -42 -464 -48 -282 -67 -351 -104 -374
-20 -12 -45 4 -363 232 -352 253 -360 261 -305 312 69 64 396 210 590 263 193
52 215 55 224 31z m-1495 -1050 c32 -26 426 -566 455 -622 19 -37 14 -55 -20
-71 -23 -10 -792 -141 -830 -141 -14 0 -16 13 -12 103 3 65 12 123 26 162 50
149 86 233 147 351 124 239 165 277 234 218z m4066 10 c68 -68 201 -330 264
-518 37 -112 41 -133 41 -225 l0 -102 -32 6 c-18 3 -199 32 -403 66 -353 57
-422 74 -432 105 -5 16 268 408 416 597 63 82 111 105 146 71z m-4035 -1889
c257 -42 410 -71 419 -80 12 -12 11 -21 -10 -63 -27 -54 -376 -546 -425 -598
-55 -60 -93 -44 -173 75 -101 148 -237 486 -257 638 -8 67 0 103 23 97 10 -2
200 -33 423 -69z m4346 39 c12 -49 -4 -142 -46 -265 -70 -205 -181 -431 -248
-510 -46 -53 -75 -52 -128 4 -42 43 -319 422 -393 536 -41 64 -53 117 -28 126
16 6 786 133 814 134 16 1 24 -6 29 -25z m-2991 -1028 c8 -18 35 -158 60 -309
36 -223 45 -300 45 -401 0 -69 -4 -127 -8 -130 -14 -8 -209 39 -322 79 -147
52 -337 139 -412 189 -72 48 -99 86 -82 113 6 10 125 101 265 202 292 211 409
290 427 291 7 0 19 -15 27 -34z m1582 -201 c180 -129 334 -245 342 -258 13
-21 12 -27 -4 -49 -67 -88 -403 -240 -690 -313 -156 -39 -145 -45 -145 88 0
89 11 178 50 415 28 166 55 313 62 327 7 16 19 25 34 25 14 0 152 -93 351
-235z M782 2539 c-144 -28 -267 -138 -308 -276 -8 -26 -23 -139 -33 -252 -11
-113 -41 -423 -67 -688 -47 -479 -47 -482 -31 -564 40 -204 160 -333 375 -402
l67 -22 4510 -3 c5035 -3 4593 -9 4753 69 149 73 236 188 269 358 16 82 16 84
-31 564 -26 265 -56 573 -66 685 -11 111 -24 221 -31 244 -39 147 -176 270
-317 286 l-45 5 7 -53 c9 -69 25 -97 83 -145 51 -41 156 -157 230 -252 33 -42
40 -58 31 -65 -17 -10 -9679 -10 -9696 1 -10 6 4 30 54 97 112 147 121 157
200 214 94 67 116 95 124 160 7 56 8 56 -78 39z m9237 -752 c5 -12 14 -63 20
-112 32 -264 41 -403 41 -666 l0 -277 -32 -44 c-43 -56 -138 -104 -233 -118
-106 -15 -8898 -14 -8984 1 -76 13 -165 50 -200 82 -13 12 -34 39 -47 59 -23
37 -24 43 -24 260 0 254 42 739 70 813 l10 25 4685 0 4685 0 9 -23z"/>
</g>
</svg>
