<?xml version="1.0" standalone="no"?>
<!DOCTYPE svg PUBLIC "-//W3C//DTD SVG 20010904//EN"
 "http://www.w3.org/TR/2001/REC-SVG-20010904/DTD/svg10.dtd">
<svg version="1.0" xmlns="http://www.w3.org/2000/svg"
 width="2048.000000pt" height="2048.000000pt" viewBox="0 0 2048.000000 2048.000000"
 preserveAspectRatio="xMidYMid meet">
<metadata>
Created by potrace 1.13, written by Peter Selinger 2001-2015
</metadata>
<g transform="translate(0.000000,2048.000000) scale(0.192120,-0.192120)"
fill="#000000" stroke="none">
<path d="M1335 10323 c-151 -19 -315 -68 -438 -129 -325 -160 -510 -427 -556
-799 -16 -128 -16 -8002 0 -8130 60 -487 361 -796 889 -911 82 -18 227 -19
4130 -19 l4045 0 95 21 c395 89 657 341 774 746 60 206 56 -72 56 4249 0 2821
-3 3980 -11 4044 -31 255 -125 455 -290 615 -165 161 -407 271 -683 309 -54 8
-1250 11 -4029 10 -2174 -1 -3965 -4 -3982 -6z m8057 -285 c328 -69 550 -223
640 -445 l23 -58 3 -4158 c2 -4571 7 -4197 -57 -4341 -126 -280 -332 -414
-686 -446 -85 -8 -1274 -10 -4050 -8 l-3930 3 -90 22 c-176 41 -312 102 -426
188 -70 55 -118 114 -168 207 -78 145 -71 -280 -71 4334 0 3467 2 4147 14
4190 40 150 180 312 341 396 136 70 305 119 455 131 25 2 1818 3 3985 2 3591
-1 3947 -2 4017 -17z M6540 9445 c-121 -27 -230 -76 -347 -157 -84 -58 -236
-212 -306 -311 -67 -94 -150 -273 -182 -390 -26 -97 -26 -102 -23 -365 4 -262
4 -269 32 -352 16 -47 48 -128 73 -180 31 -67 43 -105 41 -129 l-3 -34 -115
-37 c-238 -75 -358 -160 -702 -496 -194 -190 -259 -248 -305 -270 l-58 -29
-520 -6 c-550 -6 -550 -6 -650 -56 -78 -40 -224 -193 -263 -276 -31 -65 -32
-73 -32 -194 l0 -127 41 -84 c33 -69 58 -102 128 -172 90 -91 141 -122 240
-148 70 -18 1123 -29 1324 -14 118 9 135 13 200 46 40 19 106 64 147 98 41 35
82 62 91 60 14 -3 16 -104 22 -1030 4 -565 7 -1492 7 -2061 0 -594 4 -1048 9
-1065 46 -155 95 -247 174 -330 116 -120 199 -154 397 -163 259 -12 390 28
511 154 71 74 129 165 153 240 49 154 46 83 46 1239 l0 1084 26 12 c18 9 30 9
42 1 16 -9 17 -96 22 -1109 4 -822 8 -1107 17 -1129 7 -16 19 -55 28 -85 30
-107 128 -243 229 -317 97 -72 168 -88 376 -88 240 0 319 25 433 133 99 95
159 205 196 355 8 34 11 364 11 1185 l0 1137 88 42 c196 95 345 271 421 499
l31 92 0 1117 c0 1097 0 1119 -20 1186 -47 156 -116 272 -230 386 -153 154
-284 205 -565 218 -77 3 -148 8 -157 11 -28 8 -22 53 18 138 19 43 52 126 72
184 l36 107 4 257 c3 248 3 259 -22 351 -31 118 -109 293 -170 384 -158 235
-352 391 -576 465 -84 27 -111 31 -235 34 -97 3 -160 -1 -205 -11z m386 -257
c312 -92 560 -406 614 -777 19 -125 8 -322 -24 -446 -85 -327 -319 -583 -606
-661 -90 -25 -291 -26 -380 -2 -306 83 -547 362 -620 717 -24 120 -27 322 -6
433 74 386 340 684 675 754 94 19 246 12 347 -18z m1067 -1933 c189 -48 314
-180 374 -395 17 -61 18 -130 18 -1125 0 -982 -1 -1065 -18 -1124 -54 -198
-205 -332 -419 -375 -42 -9 -86 -16 -98 -16 l-20 0 0 -1273 c0 -1398 3 -1333
-60 -1409 -17 -20 -56 -49 -88 -65 l-57 -28 -220 0 c-195 0 -224 2 -255 19
-58 30 -109 87 -130 143 -20 53 -20 79 -20 1198 0 768 -3 1160 -11 1193 -27
127 -119 209 -243 219 -126 11 -222 -40 -273 -145 l-28 -57 -5 -1195 -5 -1195
-22 -40 c-28 -53 -68 -89 -128 -117 -46 -21 -67 -23 -242 -26 -239 -4 -285 6
-353 76 -88 91 -80 -155 -80 2541 l0 2386 -279 -279 -279 -279 -727 2 -727 1
-58 26 c-105 47 -152 124 -152 251 0 132 65 222 185 258 42 13 145 15 626 15
l575 0 321 318 c261 260 337 330 414 380 112 73 231 122 321 131 36 3 524 5
1085 3 862 -2 1029 -5 1078 -17z M3276 5564 c-151 -28 -267 -89 -389 -204 -95
-90 -150 -161 -199 -255 -36 -69 -88 -241 -88 -290 0 -18 -5 -25 -20 -25 -11
0 -20 -5 -20 -10 0 -6 -37 20 -82 56 -152 123 -307 179 -483 172 -88 -3 -109
-8 -169 -36 -99 -46 -231 -180 -281 -282 -34 -73 -35 -78 -35 -194 l0 -120 42
-84 c41 -82 158 -231 198 -252 20 -11 20 -28 20 -1063 0 -1086 0 -1097 39
-1222 42 -136 160 -311 276 -406 76 -63 196 -123 305 -152 l85 -22 915 0 c845
0 921 1 991 18 265 62 460 261 568 576 48 141 51 196 51 1258 l0 992 65 66
c65 65 111 129 155 215 20 39 24 63 28 185 l4 140 -37 73 c-52 106 -165 221
-263 269 -68 34 -84 38 -174 41 -70 3 -120 -1 -171 -13 -106 -24 -240 -94
-327 -170 -41 -36 -78 -65 -81 -65 -18 0 -38 45 -52 124 -34 180 -111 319
-257 466 -104 105 -171 151 -296 202 -59 24 -220 30 -318 12z m248 -254 c103
-26 177 -69 256 -149 216 -219 215 -555 -3 -776 -218 -219 -559 -221 -778 -5
-80 79 -123 153 -149 256 -50 196 2 386 145 529 143 143 334 195 529 145z
m-1322 -576 c92 -34 160 -77 219 -141 51 -54 69 -86 103 -172 21 -56 21 -60
26 -1239 l5 -1182 833 -3 832 -2 0 1156 c0 1123 1 1158 20 1234 37 146 122
250 254 315 102 50 181 70 275 71 125 1 230 -65 267 -168 16 -47 18 -153 2
-205 -25 -84 -119 -158 -221 -173 l-47 -7 0 -1152 c0 -1134 0 -1153 -21 -1226
-58 -211 -192 -342 -395 -385 -106 -22 -1800 -22 -1912 0 -223 45 -376 181
-427 380 -13 51 -15 211 -15 1221 l0 1162 -45 7 c-94 14 -169 64 -207 139 -26
51 -36 167 -18 222 54 171 243 230 472 148z m658 -540 c153 -157 326 -234 525
-234 117 0 189 16 294 65 83 40 131 74 214 154 l57 55 0 -992 0 -992 -575 0
-575 0 0 995 c0 547 4 995 8 995 4 0 28 -21 52 -46z"/>
</g>
</svg>
