<?xml version="1.0" standalone="no"?>
<!DOCTYPE svg PUBLIC "-//W3C//DTD SVG 20010904//EN"
 "http://www.w3.org/TR/2001/REC-SVG-20010904/DTD/svg10.dtd">
<svg version="1.0" xmlns="http://www.w3.org/2000/svg"
 width="2048.000000pt" height="2048.000000pt" viewBox="0 0 2048.000000 2048.000000"
 preserveAspectRatio="xMidYMid meet">
<metadata>
Created by potrace 1.13, written by Peter Selinger 2001-2015
</metadata>
<g transform="translate(0.000000,2048.000000) scale(0.192120,-0.192120)"
fill="#000000" stroke="none">
<path d="M1238 10046 c-171 -47 -254 -237 -173 -396 38 -74 105 -123 200 -148
367 -96 1814 -485 1824 -490 8 -4 20 -32 28 -61 55 -217 263 -384 496 -399 42
-2 105 1 140 7 78 16 189 68 246 117 l43 38 62 -17 c220 -61 880 -237 910
-242 l36 -7 0 -727 0 -726 -415 3 -415 3 0 -280 0 -280 -642 -3 -643 -4 -98
-26 c-423 -116 -740 -459 -822 -890 -23 -120 -23 -4141 0 -4271 80 -461 453
-827 920 -902 139 -23 4655 -22 4794 0 465 76 836 440 916 902 23 130 23 4151
0 4271 -45 238 -162 451 -338 619 -136 129 -300 220 -484 271 l-98 26 -642 4
-643 3 0 280 0 280 -415 -3 -415 -3 0 651 0 652 -37 6 c-39 7 -313 81 -434
116 l-66 20 -6 60 c-6 75 -40 123 -103 150 -47 21 -463 137 -529 148 -82 14
-187 6 -267 -20 -43 -14 -78 -23 -78 -21 0 3 13 27 28 52 52 85 74 158 79 266
4 74 1 117 -12 165 -57 219 -243 385 -473 419 l-47 7 69 17 c77 20 198 23 268
8 25 -6 96 -28 157 -50 61 -22 152 -50 203 -62 51 -12 100 -28 109 -36 9 -8
48 -17 86 -20 60 -5 74 -3 99 15 110 77 218 140 248 146 21 4 59 1 93 -8 32
-8 162 -38 288 -66 302 -67 727 -179 740 -195 6 -7 20 -15 33 -19 12 -4 22
-13 22 -20 0 -8 7 -19 15 -26 8 -7 15 -19 15 -26 0 -58 124 -205 210 -249 68
-34 197 -71 370 -105 114 -23 174 -40 226 -66 67 -33 204 -136 204 -154 0 -4
-22 0 -49 10 -26 11 -86 24 -133 31 -72 10 -97 9 -169 -5 -124 -25 -200 -66
-289 -156 -112 -111 -170 -253 -170 -414 l0 -55 -47 51 c-98 104 -145 131
-294 172 -224 61 -277 58 -312 -16 -34 -74 -33 -75 25 -93 51 -15 538 -146
607 -163 19 -4 38 -14 42 -22 4 -8 24 -51 45 -95 68 -145 217 -263 371 -295
82 -17 235 -8 308 18 71 26 152 78 203 132 l38 39 85 -24 c46 -13 431 -117
854 -230 424 -113 905 -243 1070 -287 251 -67 308 -79 351 -75 96 10 187 77
227 166 25 56 26 159 3 214 -20 45 -76 109 -119 136 -25 15 -2226 613 -2345
637 -25 5 -36 17 -61 68 -17 35 -57 92 -89 127 -41 44 -61 75 -66 101 -4 20
-25 73 -46 116 -49 98 -147 195 -242 240 -35 17 -191 64 -347 106 -156 41
-286 77 -288 80 -3 2 11 61 31 131 35 122 37 145 13 145 -11 0 -755 198 -1321
351 -142 39 -262 67 -266 62 -4 -4 -17 -48 -29 -98 -41 -168 -41 -167 -59
-160 -9 4 -141 40 -292 82 -300 82 -384 92 -500 64 -78 -19 -184 -77 -249
-136 -43 -39 -72 -56 -127 -73 -39 -12 -98 -40 -131 -61 l-59 -38 -174 48
c-96 26 -413 111 -705 189 -291 78 -645 173 -785 210 -291 78 -327 84 -392 66z
m2633 -618 c59 -35 100 -81 138 -153 28 -54 31 -68 31 -152 0 -80 -3 -96 -20
-113 -11 -11 -20 -24 -20 -30 0 -23 -66 -80 -132 -114 -180 -91 -382 -68 -480
55 -109 137 -166 182 -247 195 -41 6 -41 7 -41 49 0 24 9 71 20 106 19 63 72
159 87 159 5 0 24 -11 43 -23 19 -13 49 -27 65 -30 43 -8 177 17 275 53 110
39 212 39 281 -2z m3084 -832 c58 -27 80 -47 194 -173 46 -51 87 -90 92 -87 6
3 17 0 25 -7 8 -7 45 -15 82 -18 l67 -6 3 -74 c3 -76 -21 -185 -51 -225 -13
-18 -15 -18 -55 3 -67 34 -106 30 -218 -22 -162 -75 -277 -82 -378 -23 -54 31
-114 88 -138 131 -9 17 -32 49 -49 73 -31 40 -33 47 -32 126 1 88 13 125 53
161 12 11 26 30 31 42 11 30 84 78 155 102 81 28 156 27 219 -3z m-1615 -1007
c0 -512 0 -519 20 -519 16 0 20 -7 20 -35 0 -19 4 -35 8 -35 4 0 14 -16 21
-35 7 -20 24 -48 37 -63 83 -91 135 -138 184 -161 54 -25 60 -26 288 -29 l232
-4 0 -59 0 -59 -830 0 -830 0 0 59 0 59 243 4 c237 3 243 4 297 29 31 15 79
51 110 83 75 78 74 77 89 114 7 17 17 32 22 32 5 0 9 7 9 15 0 8 5 15 10 15 6
0 10 16 10 35 0 24 5 35 15 35 13 0 15 65 15 525 0 462 2 524 15 519 13 -5 15
-73 15 -525z m1023 -1209 c35 -120 106 -167 267 -177 85 -5 100 -9 100 -23 0
-15 19 -18 158 -23 86 -4 267 -7 402 -8 206 -1 313 -8 290 -19 -3 -2 -144 -6
-315 -10 -343 -9 -418 -17 -463 -50 -37 -27 -50 -55 -58 -125 l-7 -55 859 -1
c473 -1 851 -3 842 -6 -9 -2 -19 -17 -23 -32 -10 -46 -8 -162 4 -211 18 -77
14 -122 -14 -153 l-26 -27 -659 0 c-433 0 -660 -3 -660 -10 0 -5 -20 -10 -45
-10 -25 0 -45 -4 -45 -9 0 -5 -10 -11 -23 -14 -12 -4 -40 -24 -62 -47 l-39
-40 877 0 878 0 -38 -67 -38 -68 -3 -1068 c-2 -1050 -2 -1069 17 -1110 21 -43
23 -47 79 -132 l34 -50 -967 -3 -967 -2 7 -68 c10 -92 33 -135 87 -158 41 -18
86 -19 806 -22 l762 -3 0 -700 0 -701 -26 -66 c-59 -148 -166 -280 -299 -366
-100 -65 -176 -99 -291 -128 l-89 -23 -2340 0 c-2248 0 -2343 1 -2420 19 -269
62 -456 196 -580 415 -79 141 -75 97 -75 866 l0 685 588 0 c576 0 683 5 739
32 37 17 62 71 70 152 l6 66 -827 2 -826 3 55 85 c31 47 58 95 61 108 4 12 10
22 15 22 5 0 9 442 9 1050 0 693 -3 1050 -10 1050 -5 0 -10 11 -10 24 0 13
-16 53 -35 90 l-34 66 737 2 737 3 -41 40 c-56 54 -71 65 -89 65 -8 0 -15 5
-15 10 0 7 -181 10 -524 10 -453 0 -525 2 -536 15 -7 8 -23 15 -35 15 -40 0
-44 18 -42 181 2 166 -3 205 -31 212 -9 3 306 5 701 6 l717 1 0 40 c0 56 -25
113 -63 141 -40 30 -98 38 -317 49 -96 4 -177 9 -180 10 -19 8 63 18 156 19
61 1 179 4 262 8 135 5 152 8 152 24 0 15 20 17 238 20 231 4 238 5 289 30 45
22 53 23 56 10 6 -31 56 66 68 133 l12 66 1016 0 1016 0 18 -60z M4355 6081
c-73 -18 -102 -55 -112 -142 l-6 -49 952 0 951 0 0 38 c0 20 -9 56 -20 80 -37
81 14 77 -915 79 -451 1 -833 -2 -850 -6z M3664 5881 c-2 -2 -4 -690 -4 -1528
l0 -1523 279 0 279 0 7 -67 c10 -93 33 -136 87 -159 41 -18 86 -19 810 -22
755 -3 906 1 964 29 38 18 63 72 71 153 l6 66 278 0 279 0 -2 1526 -3 1525
-275 0 -275 0 -3 -1525 -2 -1526 -970 0 -970 0 -2 1525 -3 1526 -273 2 c-151
1 -276 0 -278 -2z M4470 5431 c0 -5 -10 -11 -23 -14 -12 -4 -40 -24 -62 -47
l-39 -40 844 0 845 1 -42 39 c-24 22 -56 43 -73 46 -16 4 -30 10 -30 15 0 5
-311 9 -710 9 -409 0 -710 -4 -710 -9z"/>
</g>
</svg>
