<?xml version="1.0" standalone="no"?>
<!DOCTYPE svg PUBLIC "-//W3C//DTD SVG 20010904//EN"
 "http://www.w3.org/TR/2001/REC-SVG-20010904/DTD/svg10.dtd">
<svg version="1.0" xmlns="http://www.w3.org/2000/svg"
 width="2048.000000pt" height="2048.000000pt" viewBox="0 0 2048.000000 2048.000000"
 preserveAspectRatio="xMidYMid meet">
<metadata>
Created by potrace 1.13, written by Peter Selinger 2001-2015
</metadata>
<g transform="translate(0.000000,2048.000000) scale(0.192120,-0.192120)"
fill="#000000" stroke="none">
<path d="M3672 9864 c-332 -56 -683 -305 -911 -647 -76 -113 -158 -289 -186
-402 -22 -86 -32 -155 -22 -155 2 0 82 16 177 35 95 19 179 35 185 35 6 0 19
-26 29 -57 75 -243 291 -442 551 -508 123 -32 318 -23 428 21 14 5 35 -10 91
-67 40 -41 80 -86 90 -100 16 -26 16 -28 -14 -72 -65 -97 -110 -232 -131 -395
-6 -48 -14 -220 -18 -382 l-8 -295 -36 -109 c-85 -249 -269 -528 -525 -793
l-79 -82 -679 -3 -679 -3 -57 -28 c-216 -106 -208 -407 12 -506 40 -18 66 -21
216 -21 l171 0 5 49 c11 108 82 177 211 206 39 8 146 19 237 23 157 8 168 9
232 40 36 18 108 63 160 101 l93 69 51 -29 c28 -16 64 -29 80 -29 70 1 208 92
306 203 272 306 420 577 405 742 -3 33 -9 68 -12 78 -5 13 -2 17 14 17 21 0
471 -127 480 -136 2 -2 -32 -39 -76 -82 -75 -72 -100 -105 -183 -242 -57 -93
-168 -230 -329 -404 -266 -287 -460 -433 -791 -595 -176 -86 -247 -101 -475
-101 -133 0 -164 3 -238 25 -47 13 -104 28 -126 31 l-41 7 0 -69 c0 -154 35
-172 359 -181 325 -8 447 16 696 137 249 121 499 315 815 630 202 202 314 358
445 619 111 220 162 376 176 535 14 169 64 232 179 230 125 -3 236 -71 444
-271 324 -314 482 -429 634 -465 29 -7 51 -16 50 -19 -2 -4 -171 -132 -376
-285 l-372 -278 57 -58 c35 -36 54 -61 48 -67 -6 -5 -55 -43 -110 -84 -289
-216 -508 -449 -540 -574 l-12 -48 -797 0 -796 0 0 -40 c0 -52 28 -97 73 -119
79 -37 137 -40 767 -40 573 -1 618 0 662 17 60 23 84 53 98 123 l11 54 380 0
c208 0 379 -2 379 -5 0 -3 -12 -24 -27 -48 -68 -108 -174 -363 -189 -455 -6
-40 -8 -42 -40 -42 -29 0 -36 5 -54 40 -32 63 -88 119 -129 129 -54 14 -713
23 -891 12 -197 -11 -247 -28 -331 -112 -41 -41 -60 -68 -65 -94 -18 -96 90
-242 306 -414 52 -42 97 -78 100 -81 3 -4 23 -19 45 -35 22 -17 42 -32 45 -35
3 -4 23 -19 45 -35 22 -17 42 -32 45 -35 3 -4 23 -19 45 -35 22 -17 42 -32 45
-35 3 -4 23 -19 45 -35 22 -17 42 -32 45 -35 3 -4 23 -19 45 -35 22 -17 42
-32 45 -35 3 -4 23 -19 45 -35 22 -17 42 -32 45 -35 25 -26 130 -98 130 -89 0
5 28 -10 63 -35 198 -145 345 -234 357 -217 3 4 17 11 31 14 60 15 120 113
141 227 5 33 12 60 13 58 8 -8 66 -389 79 -524 9 -83 18 -243 22 -355 5 -186
15 -303 31 -369 6 -23 5 -24 -11 -11 -16 13 -49 -17 -372 -340 -196 -195 -383
-388 -416 -429 -67 -82 -108 -159 -108 -203 0 -41 46 -83 111 -101 245 -68
604 10 1065 233 176 86 454 241 509 285 l27 22 -11 144 c-21 261 -53 385 -114
436 -25 21 -38 25 -68 20 l-36 -6 23 95 c13 53 25 112 29 133 3 20 14 82 25
137 10 55 26 154 35 220 10 73 22 123 30 127 54 31 395 302 395 315 0 13 -31
61 -52 79 -24 23 -91 48 -120 46 -10 0 -18 5 -18 12 0 8 -6 19 -14 25 -19 16
-38 121 -30 171 6 37 12 44 50 63 24 11 44 25 44 29 0 19 40 -15 80 -69 59
-79 72 -89 155 -120 l72 -28 -57 -75 c-128 -168 -244 -380 -308 -560 -29 -82
-74 -255 -87 -333 l-6 -37 282 2 282 3 27 95 c61 213 150 376 299 548 l71 82
-48 73 c-27 39 -88 135 -137 212 -48 77 -94 151 -102 164 l-15 23 -73 -72 -73
-73 -12 44 c-61 236 -107 351 -170 423 -37 42 -78 53 -118 32 l-30 -16 -106
193 c-57 105 -107 199 -111 207 -3 8 8 56 25 105 l29 90 -24 -30 c-40 -49 -56
-90 -54 -147 1 -43 -16 -103 -96 -332 l-98 -280 18 -30 c45 -78 78 -153 95
-223 30 -114 44 -282 35 -416 -7 -112 -8 -117 -29 -117 -70 0 -196 -68 -196
-105 0 -7 -4 -15 -9 -17 -19 -7 -51 -244 -51 -385 0 -168 14 -213 79 -259 22
-16 41 -32 41 -35 0 -4 -23 -27 -50 -53 -102 -95 -223 -126 -346 -88 -38 12
-82 33 -99 46 l-30 24 43 43 c23 23 45 53 48 66 4 13 4 173 1 356 -4 261 -9
364 -26 482 -13 92 -21 204 -21 290 0 77 -6 178 -14 225 -31 189 -136 671
-153 702 -13 24 -17 55 -17 118 1 88 -1 81 86 310 12 30 21 79 22 109 1 50 -1
55 -39 88 l-39 34 34 62 c18 34 57 103 87 154 29 50 53 94 53 97 0 25 -113
-25 -173 -76 -37 -31 -43 -33 -115 -33 -85 1 -152 19 -152 41 0 9 21 39 48 67
79 86 132 216 132 323 0 19 3 34 8 34 4 0 72 -65 152 -145 117 -117 147 -142
156 -131 8 12 77 -36 367 -254 197 -148 370 -278 385 -290 126 -97 172 -130
180 -130 6 0 83 78 173 174 142 153 166 174 188 170 14 -2 153 -20 308 -40
318 -40 336 -39 403 22 37 33 44 52 149 367 69 205 111 347 111 372 -1 54 -31
117 -72 148 -32 25 -108 49 -132 42 -68 -20 -68 -21 19 110 138 208 225 405
240 542 14 125 -51 305 -158 433 -63 77 -154 155 -252 218 -87 56 -83 52 -64
63 9 5 58 41 109 80 l93 72 -104 37 c-281 99 -498 208 -904 453 -405 245 -507
295 -741 367 -268 83 -493 114 -774 107 -219 -5 -255 -10 -451 -59 l-126 -31
-68 52 c-37 28 -74 51 -82 51 -7 0 -19 -11 -25 -25 -16 -35 2 -69 48 -93 l36
-18 -73 -39 c-108 -56 -223 -134 -309 -208 l-75 -65 -12 59 c-14 71 -39 114
-93 163 -83 75 -103 80 -306 77 -162 -2 -188 0 -244 19 -98 33 -209 103 -300
187 -45 43 -111 97 -146 120 l-65 41 88 21 c707 164 783 162 1139 -32 88 -47
190 -100 228 -117 302 -137 831 -23 1208 260 125 94 237 211 273 285 50 101
15 121 -133 81 -148 -39 -198 -47 -309 -47 -199 0 -357 59 -607 225 -78 52
-171 109 -208 127 -49 24 -70 41 -79 62 -17 40 -90 110 -152 146 -73 41 -215
87 -327 106 -117 19 -354 18 -468 -1z m378 -234 c112 -14 188 -35 280 -78 92
-42 153 -59 242 -68 61 -6 68 -9 68 -28 0 -42 -58 -144 -121 -210 -55 -59 -79
-75 -183 -126 -134 -65 -268 -112 -486 -171 -163 -44 -173 -45 -215 -22 -44
24 -176 21 -305 -8 -69 -15 -140 -23 -207 -23 -97 -1 -103 0 -144 29 -55 39
-69 73 -46 117 106 209 291 386 512 493 183 89 389 121 605 95z m805 -501 c39
-24 124 -71 190 -105 136 -69 149 -88 92 -122 -73 -43 -198 -64 -404 -70
l-193 -5 -54 27 c-85 42 -86 71 -3 126 28 19 85 67 124 107 40 40 81 77 90 83
31 18 86 4 158 -41z m760 -865 c258 -34 507 -107 714 -210 69 -34 234 -127
366 -206 291 -175 432 -254 590 -328 118 -56 178 -93 243 -147 l32 -28 -84
-67 c-120 -96 -434 -326 -615 -452 -413 -286 -629 -399 -729 -380 -32 6 -33 8
-27 43 7 45 -15 121 -49 165 -14 19 -70 67 -123 107 -100 73 -179 141 -332
283 -120 111 -294 255 -370 306 -128 86 -281 114 -379 70 -71 -32 -242 -210
-279 -290 -20 -43 -43 -120 -43 -145 0 -13 -14 -52 -31 -86 l-32 -62 -51 6
c-28 3 -87 16 -131 29 l-80 23 -3 345 c-2 233 1 363 8 400 11 50 98 290 121
332 5 10 9 27 9 38 0 35 51 100 109 139 78 53 94 60 151 71 63 12 111 3 117
-22 7 -23 33 -23 153 3 140 30 267 49 338 49 56 0 62 2 62 21 0 21 2 21 118
14 64 -3 167 -13 227 -21z m2007 -1169 c43 -34 162 -175 187 -222 7 -13 11
-75 11 -157 0 -153 -4 -170 -95 -386 -75 -178 -81 -200 -61 -238 9 -17 36 -43
61 -58 27 -15 42 -31 38 -37 -77 -137 -597 -767 -632 -767 -7 0 -29 11 -49 25
-75 51 -130 32 -292 -99 -43 -35 -91 -67 -108 -70 -73 -17 -195 50 -472 259
-179 135 -329 223 -395 232 -35 4 -93 18 -162 39 -13 3 -23 9 -23 12 0 12 286
396 488 655 l83 107 67 0 c162 1 328 92 870 480 409 293 401 289 484 225z m3
-1685 c-17 -33 -48 -50 -77 -42 -31 8 -20 45 35 110 l52 63 3 -50 c2 -32 -3
-61 -13 -81z m-2353 -967 l65 -58 17 -90 c10 -49 47 -233 83 -408 l65 -317
-43 -118 c-23 -64 -43 -119 -45 -121 -2 -2 -27 17 -56 41 -54 46 -1087 851
-1322 1030 l-128 98 649 0 649 0 66 -57z m1282 -381 c22 -4 41 -13 43 -19 7
-20 -91 -116 -144 -143 -35 -18 -69 -26 -127 -28 l-79 -4 30 38 c17 22 58 67
91 102 56 58 63 62 104 61 23 0 61 -3 82 -7z m517 -712 c22 -12 25 -47 6 -81
-21 -41 -127 -198 -137 -204 -6 -4 -10 47 -10 134 0 123 2 141 18 150 22 14
98 14 123 1z m-895 -1276 c12 -3 27 -17 33 -30 16 -37 14 -145 -4 -171 -31
-44 -381 -225 -612 -317 -147 -58 -326 -107 -379 -103 -22 2 -30 8 -32 25 -3
17 15 42 70 100 81 84 179 196 276 315 34 42 81 89 103 104 41 27 44 28 208
28 156 1 170 2 231 27 71 30 75 30 106 22z M2000 5266 c0 -3 172 -134 383
-292 210 -158 386 -290 391 -295 4 -4 -24 -106 -64 -226 -39 -120 -74 -224
-76 -232 -3 -11 10 -12 66 -9 63 3 73 7 104 37 59 57 126 258 126 376 0 50 -5
69 -28 106 -63 98 -130 144 -331 229 -176 74 -227 103 -315 179 -45 40 -93 70
-140 90 -83 34 -116 44 -116 37z M6985 4949 c-14 -57 -21 -176 -13 -233 10
-76 53 -161 183 -361 181 -277 219 -311 335 -303 33 2 63 7 66 11 4 4 2 18 -4
31 -13 30 -492 784 -533 840 -27 37 -28 38 -34 15z M6383 4856 c-85 -27 -142
-77 -220 -192 -62 -91 -142 -247 -174 -337 -26 -73 -29 -95 -29 -204 0 -75 4
-123 10 -123 6 0 10 -6 10 -13 0 -18 59 -77 88 -88 30 -11 83 -11 101 0 11 7
8 17 -17 52 -45 63 -56 123 -38 207 34 162 128 327 341 597 39 50 74 96 79
103 10 17 -94 15 -151 -2z M6530 4680 c16 -30 179 -288 335 -530 76 -118 158
-245 181 -282 24 -38 46 -68 49 -68 16 0 65 87 65 116 0 90 -238 520 -350 633
-66 67 -210 151 -258 151 -30 0 -32 -2 -22 -20z M3204 4431 c-100 -58 -164
-155 -164 -249 0 -51 4 -62 28 -84 28 -27 64 -48 80 -48 6 0 29 59 53 130 23
72 46 130 50 130 4 0 42 -28 86 -63 67 -55 1875 -1459 1880 -1462 1 0 -37
-106 -83 -235 -80 -219 -85 -239 -81 -295 7 -97 64 -182 149 -226 70 -36 68
-39 62 149 l-6 167 35 116 c51 167 69 270 57 325 -24 107 -124 228 -305 370
-79 61 -233 192 -265 224 -3 3 -23 18 -45 35 -22 16 -42 31 -45 35 -3 3 -23
18 -45 35 -22 16 -42 31 -45 35 -3 3 -23 18 -45 35 -22 16 -42 31 -45 35 -3 3
-23 18 -45 35 -22 16 -42 31 -45 35 -3 3 -23 18 -45 35 -22 16 -42 31 -45 35
-3 3 -23 18 -45 35 -22 16 -42 31 -45 35 -3 3 -23 18 -45 35 -22 16 -42 31
-45 34 -3 4 -32 26 -65 51 -33 26 -139 106 -235 180 -330 253 -378 287 -463
326 -88 40 -122 41 -183 5z M2078 4210 c-373 -40 -756 -200 -1038 -435 -571
-477 -822 -1213 -660 -1935 32 -142 74 -260 144 -406 156 -323 378 -578 677
-779 106 -72 337 -185 454 -223 373 -123 787 -132 1153 -27 535 154 981 532
1221 1035 254 532 251 1157 -8 1685 -172 351 -444 642 -783 838 -45 26 -85 47
-88 47 -7 0 -184 -530 -178 -534 1 -1 28 -18 58 -37 156 -97 332 -279 433
-446 94 -157 162 -348 188 -531 15 -107 6 -372 -16 -469 -126 -568 -565 -989
-1134 -1088 -110 -20 -344 -19 -457 0 -583 100 -1039 556 -1139 1139 -19 113
-20 347 0 457 99 570 522 1010 1090 1135 56 13 135 19 265 21 l184 2 88 262
c49 144 87 263 85 265 -21 22 -399 38 -539 24z m1550 -945 c13 -15 30 -42 38
-59 7 -17 14 -26 14 -21 2 18 19 -30 19 -55 0 -24 0 -24 -14 -5 -8 11 -18 25
-23 30 -4 6 -36 53 -71 105 -35 52 -69 99 -77 103 -8 4 -14 15 -14 24 0 15 57
-39 128 -122z m-2655 23 c-15 -24 -30 -45 -33 -48 -3 -3 -23 -32 -45 -65 -33
-50 -40 -56 -43 -38 -5 34 23 83 86 152 61 68 80 68 35 -1z m-20 -1992 c61
-91 75 -116 63 -116 -16 0 -125 129 -150 177 -9 18 -16 44 -16 59 l0 27 18
-24 c11 -13 49 -69 85 -123z m2720 65 c-19 -38 -82 -124 -96 -129 -4 -2 -14
-10 -22 -19 -8 -8 -15 -11 -15 -7 0 10 43 79 52 82 4 2 8 10 8 18 0 8 7 17 15
20 8 4 15 13 15 21 0 7 11 25 25 39 14 14 26 30 26 37 1 7 3 4 6 -7 3 -10 -3
-35 -14 -55z m-146 -183 c-3 -8 -6 -5 -6 6 -1 11 2 17 5 13 3 -3 4 -12 1 -19z
m-2471 -36 c-9 -8 -26 10 -26 26 1 15 2 15 15 -2 8 -11 13 -21 11 -24z M8190
4209 c-47 -5 -132 -18 -190 -30 -107 -21 -367 -102 -397 -124 -15 -11 -6 -29
83 -166 77 -118 187 -293 199 -316 1 -1 33 9 73 22 145 49 224 60 427 60 146
0 210 -4 275 -18 569 -122 996 -564 1095 -1136 9 -47 15 -146 15 -226 0 -327
-93 -598 -296 -860 -205 -266 -522 -453 -862 -510 -82 -14 -140 -16 -275 -12
-183 5 -292 26 -440 81 -414 157 -737 513 -851 936 l-23 85 -281 3 c-155 1
-282 0 -282 -3 0 -28 58 -262 86 -345 133 -398 409 -758 764 -994 636 -424
1484 -432 2125 -19 413 267 720 694 835 1166 113 459 60 935 -151 1347 -107
210 -216 357 -390 525 -290 280 -640 455 -1039 520 -118 19 -387 27 -500 14z
m1539 -934 c40 -43 81 -118 81 -146 l0 -23 -17 24 c-9 14 -23 31 -30 38 -7 7
-13 17 -13 22 0 5 -22 39 -50 75 -27 36 -50 70 -50 74 0 5 -7 11 -15 15 -8 3
-15 13 -15 23 0 13 12 5 41 -27 23 -25 53 -58 68 -75z m-2635 -2023 c26 -40
47 -75 45 -77 -7 -6 -55 41 -103 101 -25 32 -51 64 -55 70 -9 11 -14 45 -12
73 1 14 34 -30 125 -167z m2705 141 c-22 -58 -124 -192 -136 -179 -6 6 36 80
64 112 10 12 29 40 43 62 27 44 45 47 29 5z m-153 -210 c-10 -10 -19 5 -10 18
6 11 8 11 12 0 2 -7 1 -15 -2 -18z m-2476 -33 c9 -16 8 -18 -5 -14 -8 4 -15
12 -15 20 0 20 7 17 20 -6z M2210 2954 c-210 -628 -212 -637 -208 -704 13
-183 192 -295 371 -234 49 16 122 79 145 124 7 14 107 309 222 655 l210 630
-56 3 c-72 4 -120 -19 -159 -78 -20 -30 -82 -199 -184 -500 -189 -559 -208
-600 -277 -600 -18 0 -36 5 -39 11 -4 6 -7 45 -6 88 1 70 12 108 126 451 205
611 222 687 174 739 -20 22 -77 51 -98 51 -5 0 -105 -286 -221 -636z M7882
3485 c-18 -19 -35 -47 -38 -61 -18 -73 67 -260 241 -529 121 -188 127 -197
237 -348 72 -98 138 -218 138 -250 0 -28 -61 -96 -93 -103 -18 -4 -286 -8
-597 -8 -545 -1 -566 -2 -604 -21 -51 -26 -73 -58 -82 -117 l-6 -48 648 -1
c357 -1 667 -1 689 0 91 6 187 76 225 163 27 62 30 155 8 208 -20 45 -695
1106 -728 1143 -4 4 -21 -8 -38 -28z M7483 3240 c-28 -11 -28 -14 -1 -59 49
-81 285 -452 340 -533 32 -48 58 -90 58 -93 0 -3 -181 -5 -401 -5 l-401 0 7
-47 c18 -128 47 -142 294 -150 210 -6 381 7 442 34 54 24 131 97 158 151 34
67 28 112 -33 237 -62 129 -207 354 -263 406 -67 64 -137 84 -200 59z M6326
2536 c7 -18 50 -40 67 -33 8 3 17 15 20 26 5 19 1 21 -44 21 -37 0 -47 -3 -43
-14z"/>
</g>
</svg>
