<?xml version="1.0" standalone="no"?>
<!DOCTYPE svg PUBLIC "-//W3C//DTD SVG 20010904//EN"
 "http://www.w3.org/TR/2001/REC-SVG-20010904/DTD/svg10.dtd">
<svg version="1.0" xmlns="http://www.w3.org/2000/svg"
 width="2048.000000pt" height="2048.000000pt" viewBox="0 0 2048.000000 2048.000000"
 preserveAspectRatio="xMidYMid meet">
<metadata>
Created by potrace 1.13, written by Peter Selinger 2001-2015
</metadata>
<g transform="translate(0.000000,2048.000000) scale(0.192120,-0.192120)"
fill="#000000" stroke="none">
<path d="M1320 10324 c-273 -42 -463 -131 -640 -301 -176 -167 -284 -364 -332
-603 -19 -96 -19 -8084 0 -8180 80 -398 361 -723 733 -849 180 -60 -136 -56
4249 -56 3399 0 4036 2 4095 14 398 79 726 367 848 746 55 171 52 -100 52
4235 0 4335 3 4064 -52 4235 -51 157 -132 292 -250 415 -160 169 -333 267
-572 328 -61 15 -367 16 -4086 18 -2211 1 -4031 0 -4045 -2z m8089 -287 c294
-72 494 -221 609 -457 l37 -75 0 -4165 0 -4165 -28 -69 c-120 -296 -384 -481
-736 -516 -74 -8 -1306 -10 -4041 -8 -3625 4 -3940 5 -4000 20 -334 86 -563
284 -649 562 l-21 68 0 4104 0 4105 21 62 c63 189 239 375 443 467 83 38 192
68 287 79 41 5 1846 8 4039 7 3772 -1 3969 -2 4039 -19z M3007 9179 c-253 -29
-510 -189 -699 -435 -88 -115 -176 -293 -217 -444 -19 -66 -21 -102 -21 -325
0 -246 1 -252 30 -360 52 -190 63 -164 -169 -393 -255 -253 -411 -442 -608
-737 -212 -318 -525 -916 -612 -1170 -30 -86 -31 -97 -31 -256 0 -184 7 -217
65 -338 99 -203 264 -364 447 -438 154 -63 316 -64 491 -5 l87 30 0 -1384 c0
-988 3 -1397 11 -1431 63 -268 247 -490 467 -564 93 -32 240 -32 331 0 217 76
386 281 459 556 14 53 16 187 19 1089 2 737 6 1033 14 1043 14 16 51 17 67 1
9 -9 12 -251 12 -1026 0 -891 2 -1022 16 -1080 25 -106 34 -133 71 -207 90
-180 237 -320 396 -374 223 -77 470 9 632 219 85 111 134 220 164 368 8 37 11
475 11 1423 0 753 1 1369 3 1369 1 0 41 -13 89 -30 116 -41 216 -53 316 -41
184 23 309 91 472 255 86 87 105 93 166 46 81 -63 158 -110 211 -130 144 -54
299 -44 441 29 49 25 62 26 62 6 0 -32 -56 -122 -341 -550 -330 -497 -410
-636 -412 -724 -2 -40 4 -69 20 -102 33 -69 125 -163 191 -196 57 -28 57 -28
305 -31 l247 -4 0 -638 c0 -694 1 -702 57 -840 65 -159 208 -325 340 -393 168
-87 361 -84 519 8 143 84 288 275 337 445 48 166 47 155 47 805 l0 615 45 0
45 0 0 -637 c0 -728 0 -722 77 -893 58 -128 211 -291 327 -348 71 -35 175 -62
241 -62 66 0 176 28 244 61 118 58 257 214 325 363 15 32 36 96 46 142 19 80
20 124 20 729 l0 643 253 4 c248 3 253 3 307 29 66 32 140 103 180 173 24 41
30 63 30 111 0 97 -68 219 -400 720 -285 430 -340 518 -340 550 0 21 8 19 80
-20 98 -53 161 -69 270 -68 157 0 267 49 390 172 86 86 133 153 181 261 33 73
34 78 37 232 l3 157 -33 78 c-69 158 -67 155 -911 1140 -317 370 -583 686
-592 702 -22 44 -19 62 23 127 94 147 151 271 198 429 28 98 29 105 29 335 0
269 -8 315 -90 510 -68 160 -147 275 -284 410 -136 134 -230 195 -378 246
-350 120 -700 18 -989 -287 -38 -41 -91 -104 -116 -139 -57 -82 -142 -244
-164 -313 -52 -167 -54 -182 -54 -423 0 -245 8 -301 61 -444 33 -89 134 -274
188 -346 62 -82 64 -104 14 -169 -70 -90 -1283 -1439 -1307 -1454 -43 -26 -64
1 -180 226 -212 408 -379 679 -595 968 -140 186 -213 270 -417 472 -219 217
-216 212 -194 293 5 19 20 78 34 130 24 89 26 111 26 325 0 217 -1 235 -26
325 -32 118 -108 288 -167 377 -193 290 -457 468 -747 503 -92 11 -94 11 -193
-1z m245 -254 c186 -39 359 -152 484 -318 65 -86 139 -243 171 -362 24 -89 27
-119 27 -270 0 -142 -3 -184 -21 -255 -27 -105 -77 -226 -127 -304 -20 -32
-36 -59 -34 -60 2 -1 41 -27 88 -58 432 -284 899 -897 1290 -1693 203 -413
227 -506 180 -689 -27 -107 -63 -169 -145 -251 -113 -113 -236 -165 -392 -165
-143 0 -267 48 -371 145 -70 64 -109 123 -148 218 -15 37 -30 67 -33 67 -3 0
-5 -764 -3 -1697 2 -1856 5 -1760 -55 -1862 -84 -144 -264 -231 -422 -203 -34
6 -87 23 -117 36 -71 33 -162 124 -200 201 l-29 60 -5 1130 -5 1130 -28 57
c-53 108 -153 165 -271 156 -73 -6 -127 -32 -178 -85 -79 -81 -72 16 -78
-1243 l-5 -1125 -22 -55 c-68 -166 -220 -266 -398 -264 -132 2 -245 60 -327
169 -80 105 -72 -67 -78 1870 -4 1434 -7 1725 -18 1700 -82 -189 -165 -287
-293 -348 -103 -49 -163 -61 -278 -54 -167 8 -314 84 -408 211 -88 118 -118
218 -111 372 5 113 12 133 139 407 204 439 480 896 735 1217 190 238 442 480
627 599 37 24 67 48 67 52 0 5 -17 35 -37 66 -243 380 -178 958 144 1280 186
187 445 269 685 218z m4447 0 c395 -83 681 -479 683 -945 1 -197 -38 -362
-123 -519 -56 -104 -104 -165 -196 -251 l-79 -73 789 -921 c434 -507 805 -941
823 -966 54 -73 77 -156 72 -260 -4 -77 -9 -98 -41 -163 -102 -207 -340 -288
-551 -189 -75 36 -92 51 -362 342 -121 129 -245 262 -276 295 l-58 60 6 -284
5 -283 541 -812 c297 -446 547 -819 556 -828 8 -10 11 -18 6 -18 -5 -1 -195 0
-421 0 l-413 1 0 -805 c0 -799 0 -806 -21 -863 -28 -73 -67 -131 -121 -177
-230 -197 -579 -95 -669 195 -18 57 -19 104 -19 855 l0 794 -280 0 -280 0 -2
-823 -3 -822 -28 -57 c-84 -172 -270 -271 -445 -239 -122 22 -236 100 -295
202 -57 97 -57 93 -57 952 l0 788 -415 -3 c-274 -2 -414 0 -411 7 2 6 252 381
555 835 l551 824 0 281 -1 280 -36 -40 c-78 -86 -451 -483 -500 -533 -76 -77
-163 -115 -274 -120 -107 -5 -173 12 -258 69 -122 82 -189 220 -178 372 9 133
40 181 322 494 978 1088 1376 1538 1366 1541 -7 2 -45 30 -84 61 -154 122
-266 302 -324 516 -24 90 -27 117 -27 275 0 158 3 185 27 275 31 115 99 262
162 350 54 77 174 189 248 234 166 99 359 134 536 96z"/>
</g>
</svg>
