<?xml version="1.0" standalone="no"?>
<!DOCTYPE svg PUBLIC "-//W3C//DTD SVG 20010904//EN"
 "http://www.w3.org/TR/2001/REC-SVG-20010904/DTD/svg10.dtd">
<svg version="1.0" xmlns="http://www.w3.org/2000/svg"
 width="2048.000000pt" height="2048.000000pt" viewBox="0 0 2048.000000 2048.000000"
 preserveAspectRatio="xMidYMid meet">
<metadata>
Created by potrace 1.13, written by Peter Selinger 2001-2015
</metadata>
<g transform="translate(0.000000,2048.000000) scale(0.192120,-0.192120)"
fill="#000000" stroke="none">
<path d="M3672 9864 c-332 -56 -683 -305 -911 -647 -106 -158 -211 -421 -211
-529 0 -26 3 -29 23 -25 12 3 141 29 287 57 146 28 355 72 465 96 357 80 477
91 617 55 93 -24 166 -57 338 -153 240 -134 342 -163 535 -155 221 10 432 68
646 179 211 108 434 299 494 423 50 101 15 121 -133 81 -148 -39 -198 -47
-309 -47 -197 0 -369 63 -604 224 -70 47 -161 103 -202 123 -57 28 -79 45 -88
67 -17 40 -90 110 -152 146 -73 41 -215 87 -327 106 -117 19 -354 18 -468 -1z
m473 -249 c44 -9 130 -37 190 -63 99 -41 120 -46 208 -50 l97 -4 0 -32 c0 -51
-53 -148 -120 -220 -52 -55 -81 -76 -171 -121 -60 -30 -178 -76 -261 -103
-223 -72 -206 -71 -262 -17 -25 25 -62 53 -81 61 -66 27 -181 18 -444 -36
-256 -53 -295 -57 -335 -39 -45 21 -42 33 41 173 18 30 65 88 105 128 186 190
406 305 643 337 95 13 292 6 390 -14z m760 -519 c71 -41 156 -87 188 -102 47
-23 57 -32 57 -54 -1 -32 -44 -53 -171 -81 -158 -35 -377 -15 -457 42 -40 29
-25 56 90 167 83 79 113 102 134 102 17 0 83 -31 159 -74z M2970 8616 c0 -2 7
-21 16 -42 42 -100 167 -239 282 -312 178 -114 439 -150 627 -86 l47 16 48
-47 c52 -51 65 -48 54 12 -11 60 -31 91 -73 113 -35 18 -57 19 -218 17 -258
-3 -261 -2 -629 251 -53 36 -154 87 -154 78z M5090 8505 c-357 -49 -635 -174
-851 -382 -172 -166 -248 -321 -280 -571 -6 -48 -14 -217 -19 -377 -4 -159
-11 -300 -15 -312 -6 -19 -2 -23 21 -29 16 -3 178 -49 359 -101 182 -53 341
-97 355 -100 24 -4 27 0 47 59 42 121 54 174 63 277 16 174 64 237 180 235
125 -3 236 -71 444 -271 324 -314 482 -429 634 -465 29 -7 51 -16 50 -19 -2
-4 -171 -132 -376 -285 l-372 -278 222 -223 c178 -178 225 -220 233 -209 9 12
99 -52 469 -330 251 -189 461 -344 466 -344 4 0 81 78 171 174 142 153 166
174 188 170 14 -2 153 -20 308 -40 318 -40 336 -39 403 22 37 33 44 52 149
367 69 205 111 347 111 372 -1 54 -31 117 -72 148 -32 25 -108 49 -132 42 -68
-20 -68 -21 19 110 138 208 225 405 240 542 14 125 -51 305 -158 433 -63 77
-154 155 -252 218 -87 56 -83 52 -64 63 9 5 58 41 109 80 l93 72 -104 37
c-281 99 -498 208 -904 453 -165 100 -342 203 -393 229 -221 112 -503 196
-785 233 -142 18 -423 18 -557 0z m523 -241 c254 -32 507 -106 716 -210 69
-34 234 -127 366 -206 291 -175 432 -254 590 -328 118 -56 178 -93 243 -147
l32 -28 -84 -67 c-120 -96 -434 -326 -615 -452 -413 -286 -629 -399 -729 -380
-32 6 -33 8 -27 43 7 45 -15 121 -49 165 -14 19 -70 67 -123 107 -100 73 -179
141 -332 283 -323 298 -479 396 -636 396 -91 0 -138 -22 -222 -102 -115 -111
-188 -217 -207 -303 -4 -16 -20 -45 -35 -62 l-27 -33 -137 37 -137 37 0 289
c0 322 5 358 65 477 65 129 158 227 298 314 98 61 143 80 150 62 5 -11 19 -9
74 11 140 51 245 74 366 80 108 5 117 7 117 26 0 19 4 20 113 13 61 -4 165
-13 230 -22z m2009 -1169 c43 -34 162 -175 187 -222 7 -13 11 -75 11 -157 0
-153 -4 -170 -95 -386 -75 -178 -81 -200 -61 -238 9 -17 36 -43 61 -58 27 -15
42 -31 38 -37 -77 -136 -597 -767 -632 -767 -6 0 -29 12 -51 26 -74 49 -122
34 -278 -90 -46 -36 -92 -66 -103 -66 -41 0 -95 34 -307 193 -212 159 -424
307 -488 340 -17 9 -68 25 -115 37 -46 12 -88 25 -93 30 -12 12 133 211 422
583 l83 107 67 0 c162 1 328 92 870 480 409 293 401 289 484 225z m3 -1685
c-17 -33 -48 -50 -77 -42 -31 8 -20 45 35 110 l52 63 3 -50 c2 -32 -3 -61 -13
-81z M3884 6720 c-92 -227 -250 -463 -481 -716 -77 -85 -82 -92 -61 -98 53
-14 104 -6 149 23 118 76 329 347 416 536 23 51 27 73 27 145 0 56 -5 97 -16
120 l-15 35 -19 -45z M4560 6500 c-90 -55 -145 -111 -227 -232 -39 -57 -81
-115 -94 -129 -13 -14 -86 -98 -162 -187 -202 -234 -390 -397 -693 -600 -101
-67 -139 -106 -149 -153 -12 -54 5 -54 106 -6 203 98 428 266 709 529 210 196
298 300 423 498 44 69 167 301 167 314 0 12 -16 5 -80 -34z M1928 5876 c-128
-34 -208 -141 -208 -275 1 -102 66 -200 165 -247 47 -22 62 -24 223 -24 l172
0 0 42 c0 55 32 120 76 153 73 56 214 84 429 85 105 1 161 20 265 89 63 43
240 181 240 188 0 1 -296 3 -657 2 -497 0 -669 -3 -705 -13z M5253 5622 c-270
-215 -438 -404 -466 -522 l-12 -50 -784 0 -785 0 -37 26 -38 26 -83 -22 c-150
-39 -567 -38 -683 3 -51 18 -73 49 -87 124 l-11 62 -25 -20 c-31 -24 -69 -24
-162 0 -41 11 -76 19 -77 17 -5 -4 233 -186 522 -400 132 -98 244 -182 249
-186 4 -5 -24 -107 -64 -227 -39 -120 -74 -224 -76 -232 -3 -11 10 -12 66 -9
60 3 73 7 101 33 38 36 69 103 103 219 38 133 42 181 16 251 -12 33 -24 76
-27 96 -4 32 -2 37 19 42 54 15 199 7 281 -15 82 -23 86 -23 802 -23 l720 0
115 38 c105 35 127 39 256 44 135 6 142 5 153 -14 19 -36 -15 -117 -63 -148
-20 -14 -86 -16 -502 -15 -493 0 -605 -6 -677 -38 -86 -39 -187 -154 -187
-214 0 -15 11 -52 25 -81 45 -98 136 -200 295 -326 52 -42 97 -78 100 -81 3
-4 23 -19 45 -35 22 -17 42 -32 45 -35 3 -4 23 -19 45 -35 22 -17 42 -32 45
-35 3 -4 23 -19 45 -35 22 -17 42 -32 45 -35 3 -4 23 -19 45 -35 22 -17 42
-32 45 -35 3 -4 23 -19 45 -35 22 -17 42 -32 45 -35 3 -4 23 -19 45 -35 22
-17 42 -32 45 -35 3 -4 23 -19 45 -35 22 -17 42 -32 45 -35 3 -4 23 -19 45
-35 22 -17 42 -32 45 -36 3 -3 59 -46 126 -95 127 -95 204 -143 267 -165 l37
-13 0 -158 c0 -87 -2 -158 -5 -158 -2 0 -19 21 -36 48 -54 78 -129 159 -209
225 -41 34 -77 64 -80 67 -3 3 -23 18 -45 35 -22 16 -42 31 -45 35 -3 3 -23
18 -45 35 -22 16 -42 31 -45 35 -3 3 -23 18 -45 35 -22 16 -42 31 -45 35 -3 3
-23 18 -45 35 -22 16 -42 31 -45 35 -3 3 -23 18 -45 35 -22 16 -42 31 -45 35
-3 3 -23 18 -45 35 -22 16 -42 31 -45 35 -3 3 -23 18 -45 35 -22 16 -42 31
-45 35 -3 3 -23 18 -45 35 -22 16 -42 31 -45 35 -3 3 -23 18 -45 35 -22 16
-42 31 -45 35 -3 3 -23 19 -45 35 -22 16 -47 35 -55 42 -22 18 -219 169 -435
334 -233 179 -275 207 -345 236 -66 27 -91 28 -133 6 -109 -56 -187 -169 -187
-270 0 -52 3 -63 28 -85 28 -27 64 -48 80 -48 6 0 29 59 53 130 23 72 46 130
50 130 4 0 42 -28 86 -63 67 -55 1875 -1459 1880 -1462 1 0 -37 -106 -83 -235
-80 -219 -85 -239 -81 -295 7 -97 64 -182 149 -226 68 -34 66 -39 64 163 l-1
183 38 95 c44 111 64 154 88 194 l17 28 16 -30 c9 -17 16 -54 16 -83 0 -112
54 -207 148 -262 l31 -18 -5 133 c-17 444 -30 605 -78 933 l-23 160 38 37 39
38 0 95 c0 66 -10 145 -31 253 -71 367 -90 418 -171 455 -40 18 -49 27 -54 56
-21 109 81 365 287 721 103 180 98 163 47 155 -112 -19 -168 -91 -168 -215 0
-56 -1 -58 -31 -64 -40 -8 -587 -8 -617 0 -20 6 -19 8 20 33 61 39 333 259
398 322 71 68 99 127 107 218 5 61 4 71 -10 71 -9 0 -60 -35 -114 -78z m27
-1189 c62 -63 68 -72 74 -123 4 -30 38 -206 77 -390 l69 -335 -43 -128 -43
-129 -54 44 c-72 58 -1157 903 -1324 1030 l-128 98 653 0 652 0 67 -67z M6986
4955 c-3 -9 -11 -59 -17 -110 -19 -157 -4 -195 174 -470 193 -298 229 -332
347 -323 33 2 63 7 66 11 12 11 -6 42 -262 444 -289 455 -299 470 -308 448z
M6479 4783 c-145 -160 -310 -429 -353 -572 -34 -117 -16 -220 51 -283 l28 -27
44 122 c95 269 135 368 141 355 4 -7 12 -39 19 -70 14 -65 46 -118 82 -135 34
-17 109 -28 109 -16 0 5 -41 83 -91 172 l-91 164 39 113 c21 63 41 114 44 114
4 0 9 -6 12 -14 5 -12 84 -137 431 -681 71 -110 134 -206 141 -214 11 -11 18
-6 44 29 20 28 31 55 31 76 0 33 -49 155 -97 243 -14 25 -42 75 -61 111 -57
105 -157 253 -193 286 -19 17 -78 64 -132 104 -53 39 -110 88 -124 108 -15 21
-30 41 -33 45 -4 4 -22 -9 -41 -30z M2078 4210 c-373 -40 -756 -200 -1038
-435 -571 -477 -822 -1213 -660 -1935 32 -142 74 -260 144 -406 156 -323 378
-578 677 -779 106 -72 337 -185 454 -223 373 -123 787 -132 1153 -27 535 154
981 532 1221 1035 254 532 251 1157 -8 1685 -172 351 -444 642 -783 838 -45
26 -85 47 -88 47 -7 0 -184 -530 -178 -534 1 -1 28 -18 58 -37 156 -97 332
-279 433 -446 94 -157 162 -348 188 -531 15 -107 6 -372 -16 -469 -126 -568
-565 -989 -1134 -1088 -110 -20 -344 -19 -457 0 -583 100 -1039 556 -1139
1139 -19 113 -20 347 0 457 99 570 522 1010 1090 1135 56 13 135 19 265 21
l184 2 88 262 c49 144 87 263 85 265 -21 22 -399 38 -539 24z m1550 -945 c13
-15 30 -42 38 -59 7 -17 14 -26 14 -21 2 18 19 -30 19 -55 0 -24 0 -24 -14 -5
-8 11 -18 25 -23 30 -4 6 -36 53 -71 105 -35 52 -69 99 -77 103 -8 4 -14 15
-14 24 0 15 57 -39 128 -122z m-2655 23 c-15 -24 -30 -45 -33 -48 -3 -3 -23
-32 -45 -65 -33 -50 -40 -56 -43 -38 -5 34 23 83 86 152 61 68 80 68 35 -1z
m-20 -1992 c61 -91 75 -116 63 -116 -16 0 -125 129 -150 177 -9 18 -16 44 -16
59 l0 27 18 -24 c11 -13 49 -69 85 -123z m2720 65 c-19 -38 -82 -124 -96 -129
-4 -2 -14 -10 -22 -19 -8 -8 -15 -11 -15 -7 0 10 43 79 52 82 4 2 8 10 8 18 0
8 7 17 15 20 8 4 15 13 15 21 0 7 11 25 25 39 14 14 26 30 26 37 1 7 3 4 6 -7
3 -10 -3 -35 -14 -55z m-146 -183 c-3 -8 -6 -5 -6 6 -1 11 2 17 5 13 3 -3 4
-12 1 -19z m-2471 -36 c-9 -8 -26 10 -26 26 1 15 2 15 15 -2 8 -11 13 -21 11
-24z M8190 4209 c-47 -5 -132 -18 -190 -30 -107 -21 -367 -102 -397 -124 -15
-11 -6 -29 83 -166 77 -118 187 -293 199 -316 1 -1 33 9 73 22 145 49 224 60
427 60 146 0 210 -4 275 -18 569 -122 996 -564 1095 -1136 9 -47 15 -146 15
-226 0 -327 -93 -598 -296 -860 -205 -266 -522 -453 -862 -510 -82 -14 -140
-16 -275 -12 -183 5 -292 26 -440 81 -414 157 -737 513 -851 936 l-23 85 -281
3 c-155 1 -282 0 -282 -3 0 -28 58 -262 86 -345 133 -398 409 -758 764 -994
636 -424 1484 -432 2125 -19 413 267 720 694 835 1166 113 459 60 935 -151
1347 -107 210 -216 357 -390 525 -290 280 -640 455 -1039 520 -118 19 -387 27
-500 14z m1539 -934 c40 -43 81 -118 81 -146 l0 -23 -17 24 c-9 14 -23 31 -30
38 -7 7 -13 17 -13 22 0 5 -22 39 -50 75 -27 36 -50 70 -50 74 0 5 -7 11 -15
15 -8 3 -15 13 -15 23 0 13 12 5 41 -27 23 -25 53 -58 68 -75z m-2635 -2023
c26 -40 47 -75 45 -77 -7 -6 -55 41 -103 101 -25 32 -51 64 -55 70 -9 11 -14
45 -12 73 1 14 34 -30 125 -167z m2705 141 c-22 -58 -124 -192 -136 -179 -6 6
36 80 64 112 10 12 29 40 43 62 27 44 45 47 29 5z m-153 -210 c-10 -10 -19 5
-10 18 6 11 8 11 12 0 2 -7 1 -15 -2 -18z m-2476 -33 c9 -16 8 -18 -5 -14 -8
4 -15 12 -15 20 0 20 7 17 20 -6z M6648 4086 c-18 -18 -58 -62 -89 -97 -80
-91 -129 -114 -246 -114 -51 0 -92 -2 -90 -5 1 -3 19 -37 39 -76 86 -166 119
-450 82 -716 -4 -27 -3 -48 2 -48 23 0 404 302 404 320 0 20 -63 96 -101 122
-53 35 -69 71 -69 154 0 60 2 64 30 79 16 8 34 15 41 15 6 0 35 -24 65 -54 41
-42 69 -61 127 -83 l74 -28 -57 -75 c-205 -269 -341 -577 -395 -893 l-6 -37
282 2 282 3 27 95 c61 213 150 376 299 548 l71 82 -48 73 c-27 39 -88 135
-137 212 -48 77 -94 151 -102 164 l-15 23 -73 -72 -73 -73 -12 44 c-66 255
-122 385 -191 443 -43 36 -80 34 -121 -8z m423 -736 c22 -12 25 -47 6 -81 -28
-54 -129 -199 -138 -199 -5 0 -9 58 -9 135 0 117 2 135 18 144 22 14 98 14
123 1z M2210 2954 c-210 -628 -212 -637 -208 -704 13 -183 192 -295 371 -234
49 16 122 79 145 124 7 14 107 309 222 655 l210 630 -56 3 c-72 4 -120 -19
-159 -78 -20 -30 -82 -199 -184 -500 -189 -559 -208 -600 -277 -600 -18 0 -36
5 -39 11 -4 6 -7 45 -6 88 1 70 12 108 126 451 205 611 222 687 174 739 -20
22 -77 51 -98 51 -5 0 -105 -286 -221 -636z M7882 3485 c-18 -19 -35 -47 -38
-61 -18 -70 74 -275 231 -516 224 -344 350 -545 362 -581 12 -35 12 -43 -5
-76 -34 -67 -15 -65 -652 -65 -554 -1 -576 -2 -614 -21 -51 -26 -73 -58 -82
-117 l-6 -48 648 -1 c357 -1 667 -1 689 0 91 6 187 76 225 163 27 62 30 155 8
208 -20 45 -695 1106 -728 1143 -4 4 -21 -8 -38 -28z M7483 3240 c-28 -11 -28
-14 -1 -59 49 -81 285 -452 340 -533 32 -48 58 -90 58 -93 0 -3 -181 -5 -401
-5 l-402 0 6 -49 c8 -69 32 -110 75 -129 55 -25 551 -25 632 0 61 19 130 71
179 135 28 37 33 51 32 97 -1 87 -55 201 -196 415 -86 130 -137 187 -192 215
-35 17 -95 20 -130 6z M6261 2929 c-12 -10 -21 -22 -21 -28 0 -6 -4 -11 -10
-11 -6 0 -10 -41 -10 -104 0 -101 1 -105 27 -125 14 -12 28 -20 30 -17 4 3 32
166 47 263 6 41 5 43 -18 41 -13 -1 -33 -10 -45 -19z M6251 2478 c-7 -40 -15
-83 -18 -96 l-5 -23 33 20 c19 10 57 26 86 35 62 21 71 30 82 90 l8 46 -87 0
-87 0 -12 -72z M6178 2285 c-82 -70 -138 -104 -197 -122 -100 -29 -229 1 -325
74 l-48 38 -364 -365 c-199 -201 -386 -394 -415 -430 -59 -73 -99 -151 -99
-193 0 -41 46 -83 111 -101 245 -68 604 10 1065 233 176 86 454 241 509 285
l27 22 -11 144 c-26 322 -76 460 -168 460 -24 0 -46 -12 -85 -45z m40 -346 c3
-61 -12 -76 -149 -153 -280 -156 -540 -268 -722 -311 -197 -46 -213 -23 -78
120 49 52 133 147 185 210 53 63 106 121 118 130 30 20 64 19 140 -6 34 -11
104 -23 154 -26 101 -6 158 6 266 57 35 17 68 29 73 27 6 -2 11 -23 13 -48z"/>
</g>
</svg>
