<?xml version="1.0" standalone="no"?>
<!DOCTYPE svg PUBLIC "-//W3C//DTD SVG 20010904//EN"
 "http://www.w3.org/TR/2001/REC-SVG-20010904/DTD/svg10.dtd">
<svg version="1.0" xmlns="http://www.w3.org/2000/svg"
 width="2048.000000pt" height="2048.000000pt" viewBox="0 0 2048.000000 2048.000000"
 preserveAspectRatio="xMidYMid meet">
<metadata>
Created by potrace 1.13, written by Peter Selinger 2001-2015
</metadata>
<g transform="translate(0.000000,2048.000000) scale(0.192120,-0.192120)"
fill="#000000" stroke="none">
<path d="M3672 9864 c-332 -56 -683 -305 -911 -647 -76 -113 -158 -289 -186
-402 -22 -86 -32 -155 -22 -155 6 0 392 78 417 85 l25 6 1 -108 c0 -101 3
-117 48 -253 26 -80 52 -181 58 -225 15 -116 17 -124 38 -145 27 -27 93 -42
148 -35 122 17 332 91 398 141 36 28 111 54 155 54 56 0 138 -40 200 -97 83
-78 85 -83 49 -137 -65 -96 -110 -231 -131 -394 -6 -48 -14 -220 -18 -382 l-8
-295 -36 -109 c-85 -249 -269 -528 -525 -793 l-79 -82 -679 -3 -679 -3 -57
-28 c-216 -106 -208 -407 12 -506 40 -18 66 -21 216 -21 l171 0 5 49 c11 108
82 177 211 206 39 8 146 19 237 23 157 8 168 9 232 40 36 18 108 63 160 101
l93 69 51 -29 c60 -34 93 -36 152 -9 112 51 211 144 373 350 103 131 147 204
250 416 60 125 97 189 114 200 l26 17 -41 18 -41 18 16 32 c28 53 37 126 45
379 9 284 25 395 81 565 61 184 63 198 39 253 -12 25 -27 53 -35 62 -9 10 -11
20 -5 30 15 23 12 38 -8 44 -9 3 -49 26 -87 51 -156 101 -306 165 -384 165
-20 0 -74 -14 -121 -31 -262 -92 -267 -94 -294 -79 -26 14 -73 111 -96 200 -6
25 -17 68 -25 95 -7 28 -17 88 -20 133 l-7 84 -43 -4 c-39 -3 -45 0 -66 30
-12 18 -52 59 -88 90 -36 31 -72 63 -80 70 -18 18 -8 74 21 114 13 18 29 44
36 57 65 125 333 347 512 426 218 96 504 109 747 34 48 -15 66 -26 73 -44 5
-13 18 -26 29 -30 36 -11 43 -40 36 -140 -7 -87 -6 -97 19 -150 14 -32 26 -61
26 -66 0 -5 -46 -31 -102 -58 -111 -54 -311 -123 -497 -172 -64 -17 -118 -33
-120 -35 -2 -2 16 -25 39 -51 23 -26 72 -93 108 -148 36 -55 81 -124 100 -152
45 -70 120 -136 172 -152 58 -17 136 -16 164 3 76 49 131 174 166 371 20 116
40 307 40 389 0 43 5 53 46 99 72 80 108 159 109 237 0 78 -19 123 -82 185
-83 84 -239 150 -423 180 -117 19 -354 18 -468 -1z m488 -1097 c-1 -66 -35
-89 -65 -43 -19 29 -11 52 23 64 33 11 42 7 42 -21z M4390 8511 c0 -11 25
-124 41 -183 8 -33 12 -36 36 -29 21 6 41 -1 93 -31 108 -63 155 -67 343 -29
224 44 336 55 527 48 367 -13 763 -121 1015 -277 321 -199 611 -367 775 -448
107 -53 206 -106 220 -118 14 -12 46 -40 72 -62 l46 -39 -97 -77 c-222 -175
-629 -466 -861 -614 -241 -154 -391 -220 -465 -206 -30 5 -30 6 -30 69 0 86
-30 127 -170 233 -120 91 -178 141 -360 307 -312 285 -438 365 -591 373 -66 4
-89 1 -128 -16 -53 -24 -147 -109 -215 -197 -69 -89 -84 -127 -106 -270 -8
-55 -21 -135 -27 -179 l-12 -78 -43 5 -43 5 0 -59 c0 -49 -7 -71 -43 -141 -51
-99 -162 -271 -225 -348 -92 -114 -349 -384 -426 -449 -191 -160 -327 -248
-556 -360 -176 -86 -247 -101 -475 -101 -133 0 -164 3 -238 25 -47 13 -104 28
-126 31 l-41 7 0 -69 c0 -154 35 -172 359 -181 325 -8 447 16 696 137 249 121
499 315 815 630 202 202 314 358 445 619 111 220 162 376 176 535 14 169 64
232 179 230 125 -3 236 -71 444 -271 324 -314 482 -429 634 -465 29 -7 51 -16
50 -19 -2 -4 -171 -132 -376 -285 l-372 -278 57 -58 c35 -35 53 -61 48 -66 -6
-5 -44 -34 -85 -65 -299 -222 -533 -468 -565 -594 l-12 -48 -797 0 -796 0 0
-40 c0 -52 28 -97 73 -119 79 -37 137 -40 767 -40 573 -1 618 0 662 17 60 23
84 53 98 123 l11 54 380 0 c208 0 379 -2 379 -5 0 -3 -12 -24 -27 -48 -68
-108 -174 -363 -189 -455 -6 -40 -8 -42 -40 -42 -29 0 -36 5 -54 40 -32 63
-88 119 -129 129 -54 14 -713 23 -891 12 -197 -11 -247 -28 -331 -112 -41 -41
-60 -68 -65 -94 -18 -96 90 -242 306 -414 52 -42 97 -78 100 -81 3 -4 23 -19
45 -35 22 -17 42 -32 45 -35 3 -4 23 -19 45 -35 22 -17 42 -32 45 -35 3 -4 23
-19 45 -35 22 -17 42 -32 45 -35 3 -4 23 -19 45 -35 22 -17 42 -32 45 -35 3
-4 23 -19 45 -35 22 -17 42 -32 45 -35 3 -4 23 -19 45 -35 22 -17 42 -32 45
-35 25 -26 130 -98 130 -89 0 5 28 -10 63 -35 198 -145 345 -234 357 -217 3 4
17 11 31 14 60 15 120 113 141 227 5 33 12 60 13 58 8 -8 66 -388 79 -523 9
-83 18 -240 21 -350 6 -193 19 -347 32 -383 6 -15 5 -15 -11 -3 -16 13 -48
-17 -372 -340 -196 -195 -383 -388 -416 -429 -67 -82 -108 -159 -108 -203 0
-41 46 -83 111 -101 245 -68 604 10 1065 233 175 85 453 241 508 285 l27 21
-11 145 c-19 259 -52 385 -113 436 -24 20 -38 25 -64 21 -40 -7 -40 -7 -13
105 10 46 22 99 25 118 3 19 14 80 25 135 10 55 26 154 35 220 9 66 17 120 18
121 75 48 331 247 343 265 11 18 -5 57 -37 88 -28 28 -98 57 -126 52 -7 -1
-13 7 -13 18 0 11 -4 21 -9 23 -13 4 -51 194 -51 253 0 46 0 46 51 70 29 13
56 29 60 36 14 23 60 -2 96 -51 75 -100 87 -113 127 -130 22 -10 71 -25 109
-32 l67 -14 -75 -94 c-139 -173 -264 -396 -333 -591 -29 -81 -74 -254 -87
-332 l-6 -37 282 2 282 3 27 95 c61 213 150 376 299 548 l71 82 -48 73 c-27
39 -88 135 -137 212 -48 77 -94 151 -102 164 l-15 23 -74 -73 c-49 -48 -75
-68 -77 -58 -3 8 -16 59 -31 115 -49 192 -126 341 -191 373 -23 11 -35 12 -59
2 -17 -7 -34 -13 -39 -14 -4 -1 -57 89 -118 200 l-111 202 31 92 c25 75 27 89
13 75 -36 -32 -63 -102 -61 -158 1 -44 -16 -102 -97 -332 l-97 -279 18 -31
c45 -77 78 -153 94 -219 36 -138 50 -334 33 -446 -7 -42 -9 -44 -56 -58 -132
-39 -174 -97 -207 -285 -18 -110 -20 -147 -15 -343 4 -121 8 -238 9 -261 l2
-40 34 23 c41 28 51 29 51 4 0 -11 9 -36 21 -55 25 -43 60 -162 66 -228 4 -42
2 -50 -29 -82 -35 -37 -131 -92 -348 -201 -396 -198 -775 -299 -718 -191 6 12
45 57 86 101 92 98 198 224 239 285 17 25 61 81 98 125 37 44 81 108 96 142
29 63 37 71 55 54 5 -4 21 -11 37 -15 22 -5 27 -3 27 13 0 10 -7 21 -15 25
-13 5 -15 47 -15 299 0 282 -18 553 -50 752 -5 33 -10 125 -10 205 0 80 -6
183 -14 230 -31 189 -136 671 -153 702 -13 24 -17 55 -17 118 1 88 -1 81 86
310 12 30 21 79 22 109 1 50 -1 55 -38 87 l-40 35 39 72 c44 81 148 258 176
299 26 36 24 42 -18 71 -21 14 -58 40 -83 58 l-45 32 36 -39 c68 -75 67 -68 8
-127 -30 -29 -75 -78 -101 -108 l-46 -54 -79 1 c-91 1 -153 18 -153 42 0 9 24
38 53 65 28 27 59 61 67 76 8 15 31 52 51 82 20 30 41 75 49 102 7 26 15 47
18 47 4 0 23 -16 43 -36 l36 -36 103 139 c172 231 479 631 490 638 5 3 31 8
57 11 27 3 62 10 79 15 17 5 40 11 51 13 33 7 92 34 157 73 284 169 428 266
742 499 152 112 219 154 249 154 31 0 81 -33 143 -93 34 -34 62 -66 62 -72 0
-7 12 -22 26 -36 54 -50 64 -86 64 -232 0 -151 -4 -169 -90 -379 -28 -71 -54
-143 -57 -162 -7 -44 18 -87 68 -116 l38 -21 45 61 c125 169 246 424 267 561
36 232 -129 504 -416 684 -76 48 -73 45 -54 56 9 5 58 41 109 80 l93 72 -104
37 c-281 99 -498 208 -904 453 -405 245 -507 295 -741 367 -242 75 -476 110
-731 110 -229 0 -357 -18 -554 -77 l-86 -25 -66 26 c-49 20 -237 76 -254 76
-2 0 -3 -4 -3 -9z m882 -4068 l65 -58 17 -90 c10 -49 47 -233 83 -408 l65
-317 -43 -118 c-23 -64 -43 -119 -45 -121 -2 -2 -27 17 -56 41 -54 46 -1087
851 -1322 1030 l-128 98 649 0 649 0 66 -57z m1261 -424 c20 -5 37 -14 37 -19
0 -19 -103 -99 -147 -114 -47 -16 -113 -22 -113 -9 0 11 82 113 108 134 28 21
59 24 115 8z m552 -699 c7 -23 -7 -52 -82 -166 -60 -93 -73 -96 -73 -14 0 55
23 144 42 163 40 40 103 50 113 17z M7821 6031 c-29 -5 -44 -20 -103 -101
-136 -190 -352 -455 -531 -653 l-80 -87 -43 25 c-81 48 -149 29 -269 -76 -102
-89 -114 -94 -197 -80 -135 22 -167 39 -393 206 -196 146 -293 198 -354 193
-35 -3 -26 -10 304 -259 188 -141 346 -263 353 -272 10 -12 6 -15 -31 -19 -70
-8 -155 -53 -210 -111 -97 -102 -224 -317 -278 -470 -26 -73 -29 -95 -29 -204
0 -75 4 -123 10 -123 6 0 10 -6 10 -13 0 -45 115 -126 162 -113 51 13 53 21
15 70 -49 64 -61 127 -43 214 35 166 126 325 359 620 55 69 93 110 100 105 7
-3 40 -28 73 -55 34 -26 66 -48 72 -48 6 0 84 79 173 175 129 138 167 174 183
170 12 -2 150 -21 308 -40 324 -41 341 -40 408 21 37 33 44 52 149 367 69 205
111 347 111 372 -1 82 -62 164 -135 180 -52 12 -59 12 -94 6z m-201 -595 c0
-30 -28 -62 -43 -47 -6 6 -2 20 12 40 27 37 31 38 31 7z M2000 5266 c0 -3 172
-134 383 -292 210 -158 386 -290 391 -295 4 -4 -24 -106 -64 -226 -39 -120
-74 -224 -76 -232 -3 -11 10 -12 66 -9 63 3 73 7 104 37 59 57 126 258 126
376 0 50 -5 69 -28 106 -63 98 -130 144 -331 229 -176 74 -227 103 -315 179
-45 40 -93 70 -140 90 -83 34 -116 44 -116 37z M6975 4971 c-14 -24 -18 -216
-5 -272 16 -68 67 -164 188 -349 177 -271 216 -306 332 -298 33 2 63 7 66 11
12 12 -6 42 -276 466 -289 454 -293 460 -305 442z M6527 4702 c-7 -10 50 -103
296 -487 254 -397 266 -415 275 -415 5 0 22 19 38 41 40 59 37 98 -20 217 -86
177 -234 422 -298 492 -79 87 -270 187 -291 152z M3204 4431 c-100 -58 -164
-155 -164 -249 0 -51 4 -62 28 -84 28 -27 64 -48 80 -48 6 0 29 59 53 130 23
72 46 130 50 130 4 0 42 -28 86 -63 67 -55 1875 -1459 1880 -1462 1 0 -37
-106 -83 -235 -80 -219 -85 -239 -81 -295 2 -33 14 -78 25 -100 39 -76 128
-145 187 -145 25 0 26 1 20 53 -4 28 -11 74 -16 100 -18 94 -11 176 26 301 51
173 67 268 55 322 -24 107 -124 228 -305 370 -79 61 -233 192 -265 224 -3 3
-23 18 -45 35 -22 16 -42 31 -45 35 -3 3 -23 18 -45 35 -22 16 -42 31 -45 35
-3 3 -23 18 -45 35 -22 16 -42 31 -45 35 -3 3 -23 18 -45 35 -22 16 -42 31
-45 35 -3 3 -23 18 -45 35 -22 16 -42 31 -45 35 -3 3 -23 18 -45 35 -22 16
-42 31 -45 35 -3 3 -23 18 -45 35 -22 16 -42 31 -45 34 -3 4 -32 26 -65 51
-33 26 -139 106 -235 180 -330 253 -378 287 -463 326 -88 40 -122 41 -183 5z
M2078 4210 c-373 -40 -756 -200 -1038 -435 -571 -477 -822 -1213 -660 -1935
32 -142 74 -260 144 -406 156 -323 378 -578 677 -779 106 -72 337 -185 454
-223 373 -123 787 -132 1153 -27 535 154 981 532 1221 1035 254 532 251 1157
-8 1685 -172 351 -444 642 -783 838 -45 26 -85 47 -88 47 -7 0 -184 -530 -178
-534 1 -1 28 -18 58 -37 156 -97 332 -279 433 -446 94 -157 162 -348 188 -531
15 -107 6 -372 -16 -469 -126 -568 -565 -989 -1134 -1088 -110 -20 -344 -19
-457 0 -583 100 -1039 556 -1139 1139 -19 113 -20 347 0 457 99 570 522 1010
1090 1135 56 13 135 19 265 21 l184 2 88 262 c49 144 87 263 85 265 -21 22
-399 38 -539 24z m1550 -945 c13 -15 30 -42 38 -59 7 -17 14 -26 14 -21 2 18
19 -30 19 -55 0 -24 0 -24 -14 -5 -8 11 -18 25 -23 30 -4 6 -36 53 -71 105
-35 52 -69 99 -77 103 -8 4 -14 15 -14 24 0 15 57 -39 128 -122z m-2655 23
c-15 -24 -30 -45 -33 -48 -3 -3 -23 -32 -45 -65 -33 -50 -40 -56 -43 -38 -5
34 23 83 86 152 61 68 80 68 35 -1z m-20 -1992 c61 -91 75 -116 63 -116 -16 0
-125 129 -150 177 -9 18 -16 44 -16 59 l0 27 18 -24 c11 -13 49 -69 85 -123z
m2720 65 c-19 -38 -82 -124 -96 -129 -4 -2 -14 -10 -22 -19 -8 -8 -15 -11 -15
-7 0 10 43 79 52 82 4 2 8 10 8 18 0 8 7 17 15 20 8 4 15 13 15 21 0 7 11 25
25 39 14 14 26 30 26 37 1 7 3 4 6 -7 3 -10 -3 -35 -14 -55z m-146 -183 c-3
-8 -6 -5 -6 6 -1 11 2 17 5 13 3 -3 4 -12 1 -19z m-2471 -36 c-9 -8 -26 10
-26 26 1 15 2 15 15 -2 8 -11 13 -21 11 -24z M8190 4209 c-47 -5 -132 -18
-190 -30 -107 -21 -367 -102 -397 -124 -15 -11 -6 -29 83 -166 77 -118 187
-293 199 -316 1 -1 33 9 73 22 145 49 224 60 427 60 146 0 210 -4 275 -18 569
-122 996 -564 1095 -1136 9 -47 15 -146 15 -226 0 -327 -93 -598 -296 -860
-205 -266 -522 -453 -862 -510 -82 -14 -140 -16 -275 -12 -183 5 -292 26 -440
81 -414 157 -737 513 -851 936 l-23 85 -281 3 c-155 1 -282 0 -282 -3 0 -28
58 -262 86 -345 133 -398 409 -758 764 -994 636 -424 1484 -432 2125 -19 413
267 720 694 835 1166 113 459 60 935 -151 1347 -107 210 -216 357 -390 525
-290 280 -640 455 -1039 520 -118 19 -387 27 -500 14z m1539 -934 c40 -43 81
-118 81 -146 l0 -23 -17 24 c-9 14 -23 31 -30 38 -7 7 -13 17 -13 22 0 5 -22
39 -50 75 -27 36 -50 70 -50 74 0 5 -7 11 -15 15 -8 3 -15 13 -15 23 0 13 12
5 41 -27 23 -25 53 -58 68 -75z m-2635 -2023 c26 -40 47 -75 45 -77 -7 -6 -55
41 -103 101 -25 32 -51 64 -55 70 -9 11 -14 45 -12 73 1 14 34 -30 125 -167z
m2705 141 c-22 -58 -124 -192 -136 -179 -6 6 36 80 64 112 10 12 29 40 43 62
27 44 45 47 29 5z m-153 -210 c-10 -10 -19 5 -10 18 6 11 8 11 12 0 2 -7 1
-15 -2 -18z m-2476 -33 c9 -16 8 -18 -5 -14 -8 4 -15 12 -15 20 0 20 7 17 20
-6z M2210 2954 c-210 -628 -212 -637 -208 -704 13 -183 192 -295 371 -234 49
16 122 79 145 124 7 14 107 309 222 655 l210 630 -56 3 c-72 4 -120 -19 -159
-78 -20 -30 -82 -199 -184 -500 -189 -559 -208 -600 -277 -600 -18 0 -36 5
-39 11 -4 6 -7 45 -6 88 1 70 12 108 126 451 205 611 222 687 174 739 -20 22
-77 51 -98 51 -5 0 -105 -286 -221 -636z M7882 3485 c-18 -19 -35 -47 -38 -61
-18 -73 67 -260 241 -529 121 -188 127 -197 237 -348 72 -98 138 -218 138
-250 0 -28 -61 -96 -93 -103 -18 -4 -286 -8 -597 -8 -545 -1 -566 -2 -604 -21
-51 -26 -73 -58 -82 -117 l-6 -48 648 -1 c357 -1 667 -1 689 0 91 6 187 76
225 163 27 62 30 155 8 208 -20 45 -695 1106 -728 1143 -4 4 -21 -8 -38 -28z
M7483 3240 c-28 -11 -28 -14 -1 -59 49 -81 285 -452 340 -533 32 -48 58 -90
58 -93 0 -3 -181 -5 -401 -5 l-401 0 7 -47 c18 -128 47 -142 294 -150 210 -6
381 7 442 34 54 24 131 97 158 151 34 67 28 112 -33 237 -62 129 -207 354
-263 406 -67 64 -137 84 -200 59z M6320 2541 c0 -14 41 -41 62 -41 15 0 38 27
38 44 0 3 -22 6 -50 6 -27 0 -50 -4 -50 -9z"/>
</g>
</svg>
