<?xml version="1.0" standalone="no"?>
<!DOCTYPE svg PUBLIC "-//W3C//DTD SVG 20010904//EN"
 "http://www.w3.org/TR/2001/REC-SVG-20010904/DTD/svg10.dtd">
<svg version="1.0" xmlns="http://www.w3.org/2000/svg"
 width="2048.000000pt" height="2048.000000pt" viewBox="0 0 2048.000000 2048.000000"
 preserveAspectRatio="xMidYMid meet">
<metadata>
Created by potrace 1.13, written by Peter Selinger 2001-2015
</metadata>
<g transform="translate(0.000000,2048.000000) scale(0.192120,-0.192120)"
fill="#000000" stroke="none">
<path d="M7700 10035 c-207 -51 -515 -246 -866 -550 -245 -212 -776 -740 -981
-974 l-30 -34 -109 19 c-87 15 -158 19 -349 19 -257 0 -298 -5 -506 -56 l-126
-32 -68 52 c-37 28 -74 51 -82 51 -7 0 -19 -11 -25 -25 -16 -35 2 -69 48 -93
l36 -18 -73 -39 c-108 -56 -223 -134 -309 -208 l-75 -65 -12 59 c-14 71 -39
114 -93 163 -83 75 -103 80 -306 77 -162 -2 -188 0 -244 19 -98 33 -209 103
-300 187 -45 43 -111 97 -146 120 l-65 41 88 21 c707 164 783 162 1139 -32 88
-47 190 -100 228 -117 302 -137 831 -23 1208 260 125 94 237 211 273 285 50
101 15 121 -133 81 -148 -39 -198 -47 -309 -47 -199 0 -357 59 -607 225 -78
52 -171 109 -208 127 -49 24 -70 41 -79 62 -7 15 -32 48 -56 72 -121 122 -366
195 -653 195 -283 0 -463 -54 -695 -207 -305 -202 -561 -545 -640 -858 -22
-86 -32 -155 -22 -155 2 0 82 16 177 35 95 19 179 35 185 35 6 0 19 -26 29
-57 75 -243 291 -442 551 -508 123 -32 318 -23 428 21 14 5 35 -10 91 -67 40
-41 80 -86 89 -100 17 -26 17 -28 -18 -80 -104 -158 -145 -388 -145 -820 0
-175 -6 -236 -35 -336 l-16 -53 -43 0 c-113 0 -310 57 -461 132 -212 106 -356
220 -695 552 -397 388 -584 542 -765 632 -49 25 -117 50 -151 56 -52 9 -65 8
-98 -7 -185 -88 -632 -721 -1255 -1775 l-91 -155 0 -2917 0 -2918 5000 0 5000
0 0 3473 0 3473 -106 170 c-657 1046 -1343 1924 -1808 2311 -296 247 -507 329
-716 278z m254 -259 c225 -81 564 -390 952 -866 82 -101 218 -266 301 -367
161 -193 290 -370 509 -693 164 -243 344 -527 344 -543 0 -7 9 -25 20 -42 20
-30 20 -50 20 -1537 0 -955 4 -1508 10 -1508 5 0 11 -119 13 -303 5 -333 8
-364 65 -617 45 -195 78 -383 87 -487 l6 -68 -41 120 c-147 431 -416 785 -780
1029 -120 81 -324 180 -465 226 -408 132 -811 131 -1231 -4 l-136 -44 5 27 c3
16 9 61 13 102 5 61 2 85 -15 137 -21 61 -184 328 -259 422 -125 159 -281 270
-380 270 l-24 0 28 -47 c24 -42 742 -1175 879 -1388 274 -425 736 -1155 759
-1201 56 -107 31 -240 -58 -322 -84 -77 -11 -72 -1142 -75 l-1011 -2 -17 95
c-29 167 -83 248 -156 236 l-36 -6 25 115 25 115 807 2 807 3 -236 371 c-265
415 -380 595 -824 1294 -170 267 -312 486 -316 487 -7 3 -24 -44 -206 -556
l-93 -263 -36 44 c-47 57 -57 86 -57 164 0 156 109 364 350 667 63 79 106 125
113 120 7 -3 40 -28 73 -55 34 -26 66 -48 71 -48 6 0 83 78 172 172 123 131
168 172 184 171 12 -2 152 -19 310 -38 324 -40 340 -39 407 21 37 33 44 52
149 367 69 205 111 347 111 372 -1 115 -109 207 -222 188 -34 -5 -45 -15 -100
-92 -138 -193 -525 -660 -626 -754 l-30 -29 -43 23 c-74 38 -120 32 -224 -28
-73 -43 -99 -53 -136 -53 -105 0 -196 47 -439 230 -197 148 -345 237 -409 246
-55 7 -165 34 -181 44 -16 10 39 88 358 509 l213 280 65 -6 c62 -6 108 3 204
39 96 36 624 390 950 638 41 31 89 64 107 73 37 20 89 21 120 4 70 -40 217
-203 242 -271 6 -15 11 -92 11 -171 0 -159 -1 -165 -96 -397 -24 -59 -44 -122
-44 -141 0 -32 31 -87 50 -87 13 0 127 182 180 288 96 192 123 314 96 442 -41
195 -178 371 -413 528 l-62 42 -151 -117 c-368 -286 -839 -612 -1055 -733
-128 -71 -219 -101 -290 -98 l-50 3 -373 -280 -372 -280 222 -222 c178 -178
225 -220 233 -209 9 11 61 -23 270 -180 143 -107 311 -234 373 -282 l113 -87
-94 -16 c-51 -9 -112 -26 -136 -39 -85 -43 -188 -178 -271 -354 -109 -233
-138 -403 -85 -509 29 -56 74 -101 122 -123 41 -18 61 -18 97 1 39 20 52 8
100 -95 70 -147 100 -399 77 -629 -7 -62 -11 -115 -9 -116 4 -4 232 168 299
226 53 45 53 47 39 73 -8 15 -28 34 -45 42 -62 31 -70 38 -86 73 -18 40 -39
158 -39 221 0 34 6 48 31 71 17 16 35 29 40 29 5 0 14 11 19 25 5 14 20 27 35
31 31 8 56 -12 105 -84 43 -63 80 -91 152 -117 l60 -22 -75 -94 c-188 -238
-319 -506 -388 -791 -12 -54 -27 -98 -31 -98 -5 0 -41 23 -81 50 -62 44 -73
49 -83 35 -6 -8 -21 -15 -33 -15 -38 0 -87 -26 -128 -69 -112 -117 -111 -231
3 -301 l35 -23 -33 -34 c-46 -48 -147 -95 -214 -101 -64 -5 -166 19 -204 48
l-25 19 38 32 c72 59 72 60 72 379 -1 454 -45 745 -132 876 -33 49 -114 119
-160 139 -23 10 -33 21 -33 36 0 18 -4 20 -27 15 -82 -18 -92 -18 -135 3 -46
22 -374 273 -521 398 -95 80 -118 113 -98 137 10 12 59 15 269 18 l257 3 62
29 c57 26 61 30 58 57 -3 25 3 32 60 68 41 26 77 60 103 96 43 59 139 288 167
395 15 59 15 66 0 101 -12 25 -31 45 -60 60 l-43 23 20 41 c11 22 47 87 80
143 33 57 57 107 53 110 -11 11 -108 -29 -152 -63 l-43 -33 -108 5 c-158 6
-274 21 -289 36 -20 20 -8 39 57 96 92 80 163 190 158 243 l-3 30 -50 -38
c-142 -107 -352 -304 -433 -406 -24 -32 -48 -58 -53 -58 -4 0 -31 15 -60 33
l-52 32 -556 6 c-306 4 -571 10 -589 14 -26 6 -46 2 -83 -15 l-49 -23 -163 22
c-142 20 -173 22 -252 12 -141 -18 -396 -26 -403 -14 -4 6 -30 12 -57 14 -28
1 -54 5 -60 8 -5 3 -14 7 -20 8 -28 8 -143 35 -164 39 -22 5 -23 9 -19 53 10
107 81 176 210 206 40 9 142 19 228 22 180 7 210 16 334 97 86 56 224 166 225
179 1 9 -1180 8 -1284 -2 -92 -9 -143 -30 -193 -79 -131 -131 -95 -353 72
-440 49 -25 59 -27 229 -30 l177 -4 0 -76 c0 -145 37 -177 222 -192 232 -20
422 -11 570 27 l66 16 32 -26 32 -27 1174 0 1174 0 -59 -112 c-73 -137 -135
-291 -151 -375 l-13 -63 -706 -2 -706 -3 105 -80 c58 -44 391 -302 740 -573
349 -272 640 -496 646 -499 7 -2 26 42 49 111 20 64 40 116 44 116 7 0 52
-290 76 -490 18 -159 35 -414 35 -550 0 -98 12 -220 27 -265 5 -18 4 -18 -11
-6 -16 13 -31 1 -160 -128 l-142 -142 -50 11 c-127 29 -222 144 -224 270 0 55
0 56 93 308 l75 204 -82 63 c-458 359 -1882 1465 -1886 1465 -3 0 -167 -487
-365 -1082 -282 -847 -367 -1091 -390 -1122 -17 -22 -53 -54 -80 -71 -64 -40
-178 -48 -247 -17 -106 46 -168 140 -168 251 0 60 34 168 391 1234 215 643
389 1170 387 1172 -12 11 -733 547 -771 574 -61 41 -89 34 -108 -29 -29 -95
41 -179 339 -405 101 -76 191 -150 200 -164 10 -14 25 -33 35 -41 15 -12 20
-36 24 -115 5 -75 14 -124 39 -199 l33 -98 -28 5 c-16 3 -91 9 -167 13 -332
16 -665 -54 -963 -202 -470 -234 -819 -639 -990 -1149 -32 -93 -41 -112 -41
-83 0 53 46 318 90 513 20 94 43 202 50 240 7 39 16 92 21 118 5 27 9 578 9
1241 0 1033 2 1195 15 1212 8 10 15 26 15 35 0 16 297 515 437 734 394 617
611 906 716 950 114 48 308 -95 867 -640 113 -110 253 -237 312 -282 170 -133
363 -248 518 -309 51 -20 70 -32 70 -45 0 -13 13 -22 48 -32 44 -14 47 -13 50
5 2 13 9 18 19 14 9 -4 48 -11 86 -16 68 -10 72 -10 91 13 12 13 37 27 57 31
83 15 178 123 182 205 1 38 3 40 27 34 14 -3 159 -44 323 -90 164 -47 300 -83
301 -81 4 4 52 154 66 203 6 22 15 86 20 143 12 129 34 177 100 210 56 28 98
28 180 -1 103 -37 165 -83 361 -270 256 -244 370 -337 486 -396 52 -26 53 -26
53 2 0 42 -38 85 -167 188 -70 57 -180 153 -243 214 -240 231 -309 282 -446
331 -208 76 -387 -36 -419 -261 -9 -61 -51 -165 -74 -182 -27 -20 -65 -15
-237 33 l-164 47 0 354 c0 291 3 366 16 416 14 56 94 270 115 309 5 10 9 27 9
38 0 35 52 100 112 142 95 64 120 71 236 70 78 -1 131 4 213 23 216 49 348 55
624 30 217 -20 278 -19 382 6 78 19 96 20 157 10 131 -22 339 -120 636 -301
369 -226 557 -326 760 -405 144 -56 154 -62 181 -105 13 -22 28 -40 33 -40 5
0 43 25 84 56 l75 57 -119 42 c-259 91 -470 194 -780 381 -380 230 -426 256
-546 314 -65 32 -184 79 -263 106 -80 27 -145 52 -145 55 0 4 20 14 45 23 106
41 197 116 480 395 379 373 617 581 841 731 284 190 443 236 608 176z m-3904
-146 c112 -14 188 -35 280 -78 92 -42 153 -59 242 -68 61 -6 68 -9 68 -28 0
-42 -58 -144 -121 -210 -55 -59 -79 -75 -183 -126 -134 -65 -268 -112 -486
-171 -163 -44 -173 -45 -215 -22 -44 24 -176 21 -305 -8 -69 -15 -140 -23
-207 -23 -97 -1 -103 0 -144 29 -55 39 -69 73 -46 117 106 209 291 386 512
493 183 89 389 121 605 95z m805 -501 c39 -24 124 -71 190 -105 136 -69 149
-88 92 -122 -73 -43 -198 -64 -404 -70 l-193 -5 -54 27 c-85 42 -86 71 -3 126
28 19 85 67 124 107 40 40 81 77 90 83 31 18 86 4 158 -41z m2882 -3551 c-6
-97 -41 -196 -88 -245 -26 -28 -37 -33 -77 -33 -64 0 -95 21 -82 56 14 35 233
304 247 304 3 0 3 -37 0 -82z m-1176 -1266 c34 -22 160 -133 225 -198 28 -28
78 -96 109 -150 95 -163 113 -190 151 -216 l35 -25 -51 -57 c-29 -31 -55 -54
-60 -51 -4 2 -10 24 -14 47 -11 71 -66 238 -103 315 -42 87 -99 143 -144 143
-33 0 -42 -8 -150 -131 -71 -81 -130 -112 -224 -117 l-70 -5 66 74 c36 41 83
98 104 127 42 60 78 82 130 82 19 0 35 2 35 5 0 3 -18 41 -40 85 -22 44 -40
82 -40 85 0 9 15 5 41 -13z m-3168 -293 c106 -54 340 -247 642 -531 181 -171
248 -227 550 -463 105 -82 199 -158 209 -167 9 -10 43 -38 76 -63 57 -44 80
-81 80 -130 0 -12 -18 -87 -41 -165 -38 -133 -41 -150 -37 -239 5 -114 30
-173 110 -257 62 -66 117 -93 191 -97 31 -1 57 -4 57 -5 0 -2 -78 -83 -173
-180 -203 -207 -272 -288 -303 -357 -29 -61 -30 -89 -4 -125 36 -50 119 -71
288 -71 253 0 516 78 907 271 170 84 403 216 434 246 12 11 10 15 -15 24 -54
21 -112 3 -324 -101 -454 -224 -668 -298 -933 -325 -69 -7 -179 9 -204 29 -19
14 -16 57 6 92 34 55 255 269 304 295 26 14 47 30 47 35 0 6 26 24 57 39 83
40 176 103 268 181 112 94 115 95 247 95 75 0 143 7 202 20 102 23 88 28 182
-67 59 -59 108 -83 170 -83 40 0 44 2 44 25 0 34 28 32 36 -2 83 -371 211
-650 414 -898 75 -92 246 -256 340 -326 168 -124 371 -230 575 -298 75 -25
109 -41 90 -41 -47 0 -325 46 -484 80 -311 66 -253 62 -981 71 -1364 17 -2656
22 -2758 10 -53 -7 -199 -34 -325 -62 -255 -55 -419 -85 -523 -94 l-69 -6 120
41 c206 70 414 179 575 299 93 69 252 222 335 321 313 375 477 894 437 1378
-42 492 -241 917 -588 1252 -113 109 -177 160 -321 254 -57 37 -103 69 -103
72 0 2 17 12 38 23 49 26 103 26 155 0z m-1191 -60 c19 -10 14 -45 -9 -53 -8
-3 -62 -13 -121 -21 -59 -9 -125 -21 -147 -27 -22 -7 -42 -12 -45 -13 -16 -3
-117 -39 -125 -44 -5 -3 -12 -6 -15 -7 -6 -1 -37 -14 -112 -48 -117 -52 -307
-180 -398 -268 -106 -101 -237 -257 -294 -347 -54 -85 -144 -278 -174 -371
-58 -183 -64 -235 -60 -518 4 -243 6 -263 31 -356 68 -247 194 -484 361 -684
171 -203 383 -353 663 -468 48 -20 94 -42 102 -50 13 -11 11 -15 -10 -22 -13
-5 -25 -6 -27 -1 -2 4 -9 6 -16 3 -7 -3 -64 7 -126 21 -245 55 -539 241 -736
465 -112 128 -231 328 -273 459 -20 62 -21 85 -21 667 0 676 -3 647 77 801
217 416 676 753 1165 853 160 33 281 44 310 29z m6383 1 c366 -42 699 -187
976 -425 189 -163 350 -391 420 -594 18 -51 19 -94 19 -670 l0 -616 -44 -107
c-76 -187 -239 -411 -399 -548 -97 -84 -81 -72 -188 -143 -86 -57 -256 -142
-301 -151 -12 -2 -52 -12 -88 -21 -35 -10 -81 -18 -102 -19 -21 0 -38 -4 -38
-7 0 -3 -11 -4 -25 -1 -46 8 -26 29 68 67 239 98 393 195 552 347 232 222 410
525 491 840 25 96 25 104 22 391 -4 284 -5 294 -31 380 -62 201 -155 390 -272
549 -91 124 -284 313 -395 387 -89 60 -330 187 -330 174 0 -3 -6 -1 -12 4 -11
8 -77 33 -133 50 -48 14 -156 34 -232 43 -122 13 -223 12 -363 -4 -123 -15
-160 -9 -160 23 0 14 11 22 48 30 123 30 355 39 517 21z m-6202 -307 c4 -3
-38 -49 -92 -102 -85 -83 -104 -108 -141 -184 -41 -86 -296 -839 -320 -948 -7
-33 -11 -97 -8 -160 4 -89 8 -112 32 -158 41 -80 150 -182 243 -228 74 -36 81
-38 177 -38 93 0 106 3 166 31 133 64 233 161 295 284 43 87 291 836 307 928
11 67 10 87 -13 222 l-26 149 40 -22 c69 -39 200 -151 271 -233 164 -188 270
-400 323 -647 26 -117 25 -428 0 -547 -121 -569 -564 -995 -1137 -1096 -114
-20 -336 -19 -458 2 -579 98 -1037 556 -1137 1138 -20 115 -20 347 0 462 100
584 557 1038 1145 1139 79 14 322 20 333 8z m6287 -18 c560 -124 989 -569
1085 -1129 20 -115 20 -347 0 -462 -74 -429 -348 -805 -733 -1002 -205 -106
-403 -153 -639 -153 -214 1 -401 41 -583 127 -362 172 -641 496 -745 867 -9
32 -15 61 -12 64 3 2 56 -22 119 -55 165 -88 194 -94 461 -88 769 17 829 20
892 44 119 44 246 153 303 260 30 57 32 65 32 171 0 108 -1 113 -39 196 -47
101 -95 182 -290 490 -285 450 -282 447 -533 589 -27 15 -48 29 -48 31 0 8
144 47 220 61 102 18 408 12 510 -11z m-5295 -44 c71 -41 278 -258 354 -371
104 -156 177 -316 221 -484 18 -74 20 -109 20 -455 0 -401 -1 -412 -54 -573
-81 -245 -267 -530 -457 -698 -81 -71 -210 -162 -309 -218 -56 -32 -200 -94
-200 -87 0 2 -18 -2 -40 -10 -22 -8 -40 -12 -40 -10 0 2 -15 -1 -32 -6 -18 -5
-61 -12 -95 -14 -91 -6 -81 13 30 59 138 58 288 138 380 203 111 78 308 277
387 391 127 180 236 425 280 627 16 75 20 129 20 328 0 263 -7 315 -65 492
-83 255 -204 446 -437 692 -50 53 -58 66 -58 100 0 38 14 63 35 63 5 0 33 -13
60 -29z m3679 -232 c38 -30 59 -76 52 -112 -3 -17 -26 -62 -50 -101 -23 -39
-65 -111 -92 -159 -59 -108 -109 -157 -160 -157 l-36 0 4 68 c3 48 19 108 56
212 29 80 52 155 52 168 0 27 31 71 63 89 34 19 81 15 111 -8z m345 -224 c2
-87 17 -179 42 -256 25 -75 22 -94 -18 -110 -15 -6 -37 -15 -48 -20 -11 -4
-42 -15 -70 -23 -27 -9 -97 -43 -155 -75 -73 -41 -106 -55 -108 -46 -5 20 62
214 99 287 47 94 129 216 189 282 62 67 68 64 69 -39z m-7022 -417 c-3 -8 -6
-5 -6 6 -1 11 2 17 5 13 3 -3 4 -12 1 -19z m9910 0 c-3 -8 -6 -5 -6 6 -1 11 2
17 5 13 3 -3 4 -12 1 -19z m-9875 -1008 c202 -640 696 -1121 1350 -1314 46
-14 79 -25 73 -25 -34 -2 -376 55 -510 84 -358 80 -392 85 -522 92 -102 5
-133 9 -133 20 0 9 -14 13 -45 13 l-45 0 0 40 c0 27 -5 43 -15 46 -12 5 -15
26 -15 106 0 104 -11 168 -80 478 -43 195 -63 304 -85 470 -15 113 -17 143 -8
105 3 -11 19 -63 35 -115z m9875 108 c-3 -8 -6 -5 -6 6 -1 11 2 17 5 13 3 -3
4 -12 1 -19z m-12 -90 c-9 -97 -45 -295 -89 -498 -20 -91 -43 -196 -51 -234
-9 -40 -15 -122 -15 -197 0 -79 -4 -129 -10 -129 -5 0 -10 -20 -10 -45 0 -38
-3 -45 -20 -45 -11 0 -20 -7 -20 -15 0 -12 -18 -15 -102 -15 -149 0 -251 -14
-501 -69 -242 -54 -427 -87 -534 -96 l-68 -6 135 46 c544 186 958 568 1187
1095 23 52 54 137 70 187 15 51 30 93 32 93 2 0 0 -33 -4 -72z m-3392 -48 c14
-11 58 -77 96 -145 233 -412 484 -636 909 -810 50 -21 92 -42 92 -47 0 -12
-44 -28 -48 -17 -2 4 -9 6 -16 3 -28 -11 -243 48 -335 92 -188 88 -386 238
-530 399 -53 60 -151 202 -209 305 -38 69 -84 203 -76 224 9 24 85 21 117 -4z
m-4973 -1015 c0 -8 -4 -15 -10 -15 -5 0 -10 7 -10 15 0 8 5 15 10 15 6 0 10
-7 10 -15z m744 0 c-4 -8 -8 -15 -10 -15 -2 0 -4 7 -4 15 0 8 4 15 10 15 5 0
7 -7 4 -15z m5366 0 c0 -8 -2 -15 -4 -15 -2 0 -6 7 -10 15 -3 8 -1 15 4 15 6
0 10 -7 10 -15z m737 -7 c-3 -8 -6 -5 -6 6 -1 11 2 17 5 13 3 -3 4 -12 1 -19z
m-6020 -284 c-3 -3 -12 -4 -19 -1 -8 3 -5 6 6 6 11 1 17 -2 13 -5z m5210 0
c-3 -3 -12 -4 -19 -1 -8 3 -5 6 6 6 11 1 17 -2 13 -5z m900 0 c-3 -3 -12 -4
-19 -1 -8 3 -5 6 6 6 11 1 17 -2 13 -5z"/>
</g>
</svg>
