<?xml version="1.0" standalone="no"?>
<!DOCTYPE svg PUBLIC "-//W3C//DTD SVG 20010904//EN"
 "http://www.w3.org/TR/2001/REC-SVG-20010904/DTD/svg10.dtd">
<svg version="1.0" xmlns="http://www.w3.org/2000/svg"
 width="2048.000000pt" height="2048.000000pt" viewBox="0 0 2048.000000 2048.000000"
 preserveAspectRatio="xMidYMid meet">
<metadata>
Created by potrace 1.13, written by Peter Selinger 2001-2015
</metadata>
<g transform="translate(0.000000,2048.000000) scale(0.192120,-0.192120)"
fill="#000000" stroke="none">
<path d="M7700 10035 c-207 -51 -515 -246 -866 -550 -245 -212 -776 -739 -981
-974 l-30 -34 -99 17 c-129 23 -485 33 -610 17 -381 -50 -654 -175 -891 -405
-57 -54 -103 -103 -103 -107 0 -4 -16 -31 -35 -61 -104 -157 -145 -387 -145
-818 0 -163 -10 -255 -38 -355 -10 -37 -34 -41 -147 -25 -160 23 -360 104
-535 217 -147 96 -257 191 -530 457 -397 388 -584 542 -765 632 -49 25 -117
50 -151 56 -52 9 -65 8 -98 -7 -185 -88 -632 -721 -1255 -1775 l-91 -155 0
-2917 0 -2918 5000 0 5000 0 0 3473 0 3473 -106 170 c-657 1046 -1343 1924
-1808 2311 -296 247 -507 329 -716 278z m275 -266 c64 -24 203 -113 291 -187
387 -322 895 -947 1481 -1822 94 -140 203 -298 242 -350 39 -52 71 -101 71
-110 0 -8 9 -26 20 -40 19 -25 20 -52 20 -1532 0 -955 4 -1508 10 -1508 5 0
11 -119 13 -303 5 -333 8 -364 65 -617 45 -195 78 -383 87 -487 l6 -68 -41
120 c-147 431 -416 785 -780 1029 -120 81 -324 180 -465 226 -408 132 -811
131 -1231 -4 l-136 -44 5 27 c3 16 9 61 13 102 9 105 -14 165 -137 357 -122
188 -178 261 -267 343 -72 65 -207 159 -230 159 -12 0 -12 4 1 24 18 27 15 32
-41 60 -52 27 -99 22 -185 -19 -127 -61 -154 -52 -432 157 -350 263 -498 352
-643 388 -37 9 -41 13 -32 29 13 24 349 475 457 614 l84 107 63 0 c112 0 221
47 451 194 133 85 417 285 655 461 224 165 253 175 348 110 63 -43 180 -166
212 -222 l30 -53 0 -189 c0 -105 -4 -200 -9 -213 -81 -199 -105 -288 -82 -303
20 -12 144 223 186 355 46 141 36 268 -31 407 -63 132 -191 267 -360 381 l-61
41 -184 -141 c-253 -193 -471 -350 -684 -494 -366 -246 -518 -321 -636 -312
-44 3 -48 0 -416 -277 l-373 -279 52 -53 c28 -29 50 -55 47 -57 -2 -3 -22 -1
-44 4 -68 16 -156 11 -204 -10 -82 -38 -242 -175 -376 -323 -48 -54 -109 -110
-134 -125 l-46 -27 -315 0 c-327 0 -360 4 -360 42 0 9 95 108 210 221 116 113
218 219 227 236 9 17 44 67 78 111 166 215 302 455 340 600 20 77 19 94 -5
155 -16 40 -20 76 -21 173 l-1 122 -13 -73 c-7 -41 -23 -98 -35 -127 l-22 -54
-40 50 c-47 59 -87 80 -263 132 -73 23 -125 44 -135 56 -8 10 -30 22 -47 26
l-33 7 0 311 c0 356 4 387 76 531 106 211 167 269 387 366 78 34 325 97 457
115 105 15 156 17 339 10 334 -13 359 -12 413 12 26 12 69 41 95 66 41 38 53
43 83 40 102 -12 412 -148 610 -268 52 -31 98 -59 103 -62 4 -2 7 -2 7 1 0 3
-61 41 -136 86 -115 70 -243 135 -416 214 -44 20 -62 48 -53 84 8 32 546 571
730 731 432 377 741 560 948 561 27 0 37 4 37 16 0 19 18 16 105 -17z m-6120
-1953 c124 -52 332 -228 745 -631 213 -207 375 -341 511 -423 51 -30 81 -55
85 -70 5 -17 36 -37 128 -81 66 -32 138 -66 159 -75 67 -29 47 -82 -102 -265
-122 -150 -131 -163 -146 -215 -8 -27 -15 -76 -15 -108 l0 -58 -572 -1 c-315
0 -609 -4 -653 -8 -92 -9 -143 -30 -193 -79 -131 -131 -95 -353 72 -440 49
-25 59 -27 227 -30 l176 -4 5 50 c10 108 81 177 208 206 39 9 141 19 228 23
187 7 212 15 357 111 75 49 142 108 271 236 229 230 373 423 494 665 23 46 58
99 77 117 29 27 35 39 31 64 -3 19 0 30 7 30 7 0 117 -30 246 -66 362 -103
477 -133 483 -126 15 14 -22 -70 -84 -192 -165 -326 -304 -504 -615 -787 -305
-277 -580 -462 -779 -525 l-58 -18 -23 28 c-52 65 -48 64 -362 60 -156 -2
-289 -6 -294 -9 -5 -4 -9 -2 -9 3 0 5 -10 8 -22 7 -13 -1 -51 5 -86 13 -35 7
-66 12 -68 9 -12 -12 11 -83 35 -105 44 -41 89 -53 235 -64 190 -14 368 -6
484 22 l93 22 38 -26 37 -26 1169 0 c642 0 1170 -1 1172 -3 2 -2 -15 -35 -37
-72 -81 -139 -170 -367 -170 -435 0 -35 3 -41 18 -36 9 2 32 7 49 11 52 10 94
70 151 213 82 206 87 265 24 311 l-27 19 27 54 c15 29 46 86 68 125 48 84 42
85 -58 15 l-64 -45 -126 7 c-202 10 -351 -19 -539 -105 -40 -18 -75 -30 -78
-27 -11 11 27 93 71 155 81 114 250 272 492 463 l94 73 168 -168 c134 -134
169 -164 176 -152 8 13 94 -47 467 -328 252 -190 462 -345 466 -345 5 0 61 57
126 126 l118 125 21 -33 c30 -50 832 -1311 891 -1403 272 -422 736 -1155 759
-1201 56 -107 31 -240 -58 -322 -84 -77 -11 -72 -1142 -75 l-1011 -2 -17 95
c-19 106 -44 172 -83 213 -45 46 -92 35 -179 -44 -145 -131 -319 -142 -478
-28 l-58 42 -142 -142 -142 -142 -50 11 c-127 29 -222 144 -224 270 0 55 0 56
93 308 l75 204 -82 63 c-458 359 -1882 1465 -1886 1465 -3 0 -167 -487 -365
-1082 -282 -847 -367 -1091 -390 -1122 -17 -22 -53 -54 -80 -71 -64 -40 -178
-48 -247 -17 -106 46 -168 140 -168 251 0 60 34 168 391 1234 215 643 389
1170 387 1172 -11 11 -732 547 -770 573 -58 40 -73 40 -98 0 -61 -100 6 -190
319 -428 89 -68 176 -137 192 -154 74 -77 70 -68 76 -173 5 -73 14 -123 39
-197 l33 -98 -28 5 c-16 3 -91 9 -167 13 -332 16 -665 -54 -963 -202 -470
-234 -819 -639 -990 -1149 -32 -93 -41 -112 -41 -83 0 53 46 318 90 513 20 94
43 202 50 240 7 39 16 92 21 118 5 27 9 578 9 1241 0 1033 2 1195 15 1212 8
10 15 26 15 35 0 16 297 515 437 734 312 490 535 801 643 899 71 64 118 74
195 42z m1538 -3797 c106 -54 340 -247 642 -531 94 -88 212 -195 264 -237 52
-42 128 -104 170 -138 42 -34 162 -130 268 -213 193 -152 213 -173 213 -235 0
-12 -19 -87 -41 -166 -39 -136 -41 -148 -36 -243 3 -70 10 -112 23 -136 34
-67 83 -135 144 -204 56 -63 61 -73 58 -107 l-3 -37 53 45 c52 45 54 45 100
36 88 -17 129 -2 327 121 67 41 36 39 286 20 71 -5 99 -3 170 16 124 33 142
33 213 -6 59 -32 91 -40 180 -48 l38 -3 33 -129 c97 -383 269 -683 546 -949
219 -210 461 -356 754 -454 75 -25 109 -41 90 -41 -47 0 -325 46 -484 80 -311
66 -253 62 -981 71 -1364 17 -2656 22 -2758 10 -53 -7 -199 -34 -325 -62 -255
-55 -419 -85 -523 -94 l-69 -6 120 41 c206 70 414 179 575 299 93 69 252 222
335 321 313 375 477 894 437 1378 -42 492 -241 917 -588 1252 -113 109 -177
160 -321 254 -57 37 -103 69 -103 72 0 2 17 12 38 23 49 26 103 26 155 0z
m-1191 -60 c19 -10 14 -45 -9 -53 -8 -3 -62 -13 -121 -21 -59 -9 -125 -21
-147 -27 -22 -7 -42 -12 -45 -13 -16 -3 -117 -39 -125 -44 -5 -3 -12 -6 -15
-7 -6 -1 -37 -14 -112 -48 -117 -52 -307 -180 -398 -268 -106 -101 -237 -257
-294 -347 -54 -85 -144 -278 -174 -371 -58 -183 -64 -235 -60 -518 4 -243 6
-263 31 -356 68 -247 194 -484 361 -684 171 -203 383 -353 663 -468 48 -20 94
-42 102 -50 13 -11 11 -15 -10 -22 -13 -5 -25 -6 -27 -1 -2 4 -9 6 -16 3 -7
-3 -64 7 -126 21 -245 55 -539 241 -736 465 -112 128 -231 328 -273 459 -20
62 -21 85 -21 667 0 676 -3 647 77 801 217 416 676 753 1165 853 160 33 281
44 310 29z m6383 1 c366 -42 699 -187 976 -425 189 -163 350 -391 420 -594 18
-51 19 -94 19 -670 l0 -616 -44 -107 c-76 -187 -239 -411 -399 -548 -97 -84
-81 -72 -188 -143 -86 -57 -256 -142 -301 -151 -12 -2 -52 -12 -88 -21 -35
-10 -81 -18 -102 -19 -21 0 -38 -4 -38 -7 0 -3 -11 -4 -25 -1 -46 8 -26 29 68
67 239 98 393 195 552 347 232 222 410 525 491 840 25 96 25 104 22 391 -4
284 -5 294 -31 380 -62 201 -155 390 -272 549 -91 124 -284 313 -395 387 -89
60 -330 187 -330 174 0 -3 -6 -1 -12 4 -11 8 -77 33 -133 50 -48 14 -156 34
-232 43 -122 13 -223 12 -363 -4 -123 -15 -160 -9 -160 23 0 14 11 22 48 30
123 30 355 39 517 21z m-6202 -307 c4 -3 -38 -49 -92 -102 -85 -83 -104 -108
-141 -184 -41 -86 -296 -839 -320 -948 -7 -33 -11 -97 -8 -160 4 -89 8 -112
32 -158 41 -80 150 -182 243 -228 74 -36 81 -38 177 -38 93 0 106 3 166 31
133 64 233 161 295 284 43 87 291 836 307 928 11 67 10 87 -13 222 l-26 149
40 -22 c69 -39 200 -151 271 -233 164 -188 270 -400 323 -647 26 -117 25 -428
0 -547 -121 -569 -564 -995 -1137 -1096 -114 -20 -336 -19 -458 2 -579 98
-1037 556 -1137 1138 -20 115 -20 347 0 462 100 584 557 1038 1145 1139 79 14
322 20 333 8z m6287 -18 c560 -124 989 -569 1085 -1129 20 -115 20 -347 0
-462 -74 -429 -348 -805 -733 -1002 -205 -106 -403 -153 -639 -153 -214 1
-401 41 -583 127 -362 172 -641 496 -745 867 -9 32 -15 61 -12 64 3 2 56 -22
119 -55 165 -88 194 -94 461 -88 769 17 829 20 892 44 119 44 246 153 303 260
30 57 32 65 32 171 0 108 -1 113 -39 196 -47 101 -95 182 -290 490 -285 450
-282 447 -533 589 -27 15 -48 29 -48 31 0 8 144 47 220 61 102 18 408 12 510
-11z m-5295 -44 c71 -41 278 -258 354 -371 104 -156 177 -316 221 -484 18 -74
20 -109 20 -455 0 -401 -1 -412 -54 -573 -81 -245 -267 -530 -457 -698 -81
-71 -210 -162 -309 -218 -56 -32 -200 -94 -200 -87 0 2 -18 -2 -40 -10 -22 -8
-40 -12 -40 -10 0 2 -15 -1 -32 -6 -18 -5 -61 -12 -95 -14 -91 -6 -81 13 30
59 138 58 288 138 380 203 111 78 308 277 387 391 127 180 236 425 280 627 16
75 20 129 20 328 0 263 -7 315 -65 492 -83 255 -204 446 -437 692 -50 53 -58
66 -58 100 0 38 14 63 35 63 5 0 33 -13 60 -29z m-2998 -873 c-3 -8 -6 -5 -6
6 -1 11 2 17 5 13 3 -3 4 -12 1 -19z m9910 0 c-3 -8 -6 -5 -6 6 -1 11 2 17 5
13 3 -3 4 -12 1 -19z m-9875 -1008 c202 -640 696 -1121 1350 -1314 46 -14 79
-25 73 -25 -34 -2 -376 55 -510 84 -358 80 -392 85 -522 92 -102 5 -133 9
-133 20 0 9 -14 13 -45 13 l-45 0 0 40 c0 27 -5 43 -15 46 -12 5 -15 26 -15
106 0 104 -11 168 -80 478 -43 195 -63 304 -85 470 -15 113 -17 143 -8 105 3
-11 19 -63 35 -115z m9875 108 c-3 -8 -6 -5 -6 6 -1 11 2 17 5 13 3 -3 4 -12
1 -19z m-12 -90 c-9 -97 -45 -295 -89 -498 -20 -91 -43 -196 -51 -234 -9 -40
-15 -122 -15 -197 0 -79 -4 -129 -10 -129 -5 0 -10 -20 -10 -45 0 -38 -3 -45
-20 -45 -11 0 -20 -7 -20 -15 0 -12 -18 -15 -102 -15 -149 0 -251 -14 -501
-69 -242 -54 -427 -87 -534 -96 l-68 -6 135 46 c544 186 958 568 1187 1095 23
52 54 137 70 187 15 51 30 93 32 93 2 0 0 -33 -4 -72z m-3392 -48 c14 -11 58
-77 96 -145 233 -412 484 -636 909 -810 50 -21 92 -42 92 -47 0 -12 -44 -28
-48 -17 -2 4 -9 6 -16 3 -28 -11 -243 48 -335 92 -188 88 -386 238 -530 399
-53 60 -151 202 -209 305 -38 69 -84 203 -76 224 9 24 85 21 117 -4z m-4973
-1015 c0 -8 -4 -15 -10 -15 -5 0 -10 7 -10 15 0 8 5 15 10 15 6 0 10 -7 10
-15z m744 0 c-4 -8 -8 -15 -10 -15 -2 0 -4 7 -4 15 0 8 4 15 10 15 5 0 7 -7 4
-15z m5366 0 c0 -8 -2 -15 -4 -15 -2 0 -6 7 -10 15 -3 8 -1 15 4 15 6 0 10 -7
10 -15z m737 -7 c-3 -8 -6 -5 -6 6 -1 11 2 17 5 13 3 -3 4 -12 1 -19z m-6020
-284 c-3 -3 -12 -4 -19 -1 -8 3 -5 6 6 6 11 1 17 -2 13 -5z m5210 0 c-3 -3
-12 -4 -19 -1 -8 3 -5 6 6 6 11 1 17 -2 13 -5z m900 0 c-3 -3 -12 -4 -19 -1
-8 3 -5 6 6 6 11 1 17 -2 13 -5z M6775 8082 c29 -32 385 -237 550 -317 145
-70 276 -127 281 -122 2 2 -25 16 -59 32 -245 112 -562 278 -677 355 -48 32
-105 63 -95 52z M4880 7189 c-47 -20 -97 -85 -86 -112 2 -7 10 3 17 21 18 43
77 72 149 72 51 0 78 -6 163 -36 59 -22 43 -6 -29 28 -71 33 -170 46 -214 27z
M5220 7086 c0 -2 8 -10 18 -17 15 -13 16 -12 3 4 -13 16 -21 21 -21 13z M7813
6033 c-14 -3 -50 -43 -100 -111 -158 -217 -429 -545 -585 -708 -43 -45 -78
-84 -78 -88 0 -3 13 -6 28 -6 15 0 155 -16 310 -35 318 -40 335 -39 402 21 37
33 44 52 149 367 69 205 111 347 111 372 -1 86 -60 161 -145 184 -41 11 -53
12 -92 4z m-104 -591 c-11 -41 -59 -118 -83 -134 -18 -13 -71 -9 -91 6 -19 13
-19 16 -3 48 9 18 54 78 100 133 l83 99 3 -54 c2 -30 -2 -74 -9 -98z M6386
4809 c-74 -18 -107 -46 -208 -181 -53 -71 -120 -206 -157 -315 -26 -76 -31
-108 -31 -182 0 -103 6 -125 50 -175 31 -35 83 -55 115 -42 12 4 9 15 -17 56
-27 43 -31 59 -31 117 1 152 100 350 315 631 l79 102 -38 -1 c-21 -1 -56 -5
-77 -10z M6456 4602 c-21 -64 -61 -178 -88 -252 -53 -143 -158 -449 -158 -459
0 -13 105 99 144 154 57 80 66 110 67 229 0 56 4 121 7 145 l7 43 103 -182
c119 -210 117 -188 21 -294 -82 -89 -131 -111 -246 -111 -51 0 -92 -2 -90 -5
1 -3 19 -37 39 -76 80 -154 110 -367 90 -642 -13 -176 -40 -370 -71 -512 -11
-47 -18 -86 -17 -88 2 -1 365 -1 809 0 l805 3 -242 380 c-364 571 -501 785
-824 1295 -162 256 -300 471 -306 477 -9 10 -20 -15 -50 -105z m569 -850 c24
-15 45 -31 45 -35 0 -4 -39 -49 -88 -100 -106 -112 -161 -182 -243 -313 -112
-177 -199 -386 -250 -597 -13 -54 -28 -96 -34 -94 -5 2 -21 19 -34 38 -22 33
-23 38 -15 149 4 63 8 150 9 193 l2 78 80 65 80 65 -9 42 c-21 104 -28 178
-29 308 -1 116 1 143 15 158 9 10 16 24 16 32 0 8 27 31 60 53 69 44 69 44
153 -38 34 -33 63 -50 103 -62 30 -9 58 -14 61 -11 5 6 -30 143 -52 200 -24
61 -18 56 35 -26 35 -55 63 -85 95 -105z m52 -426 c44 -38 38 -83 -23 -186
-28 -47 -73 -122 -98 -167 -58 -100 -103 -143 -151 -143 l-35 0 0 55 c0 108
146 398 223 446 41 24 50 24 84 -5z m322 -191 c2 -87 17 -179 42 -256 25 -75
22 -94 -18 -110 -15 -6 -37 -15 -48 -20 -11 -4 -42 -15 -70 -23 -27 -9 -97
-43 -155 -75 -73 -41 -106 -55 -108 -46 -5 20 62 214 99 287 47 94 129 216
189 282 62 67 68 64 69 -39z M3920 4496 c0 -3 62 -52 138 -110 75 -57 412
-318 747 -579 l610 -475 42 125 42 125 -68 332 c-38 182 -74 362 -80 400 -11
63 -16 71 -64 117 -53 49 -50 57 11 40 26 -8 32 -7 32 5 0 11 -13 15 -52 16
-217 4 -1358 7 -1358 4z m1222 -270 c46 -21 106 -340 81 -428 l-8 -28 -116 88
c-171 129 -356 280 -379 309 -23 29 -26 59 -7 67 18 8 409 1 429 -8z M5530
3430 c0 -6 9 -74 20 -153 33 -237 50 -430 60 -687 9 -235 14 -290 29 -290 4 0
27 20 51 45 l45 46 3 277 c6 467 -35 709 -129 757 -32 17 -79 20 -79 5z M6193
2514 c-43 -21 -46 -68 -7 -108 15 -14 30 -26 34 -26 4 0 12 26 19 57 20 100
15 107 -46 77z M3672 9864 c-332 -56 -683 -305 -911 -647 -106 -158 -211 -421
-211 -529 0 -26 3 -29 23 -25 12 3 119 24 237 47 723 140 1239 276 1517 401
36 16 66 29 68 29 2 0 -27 -64 -65 -142 -38 -79 -83 -187 -99 -240 -62 -203
-81 -206 -234 -42 -76 81 -151 131 -228 152 l-36 10 71 -107 c39 -58 95 -143
124 -188 61 -95 134 -164 190 -181 21 -7 66 -12 98 -12 57 0 59 1 108 53 45
46 55 64 83 157 42 134 60 245 75 450 l12 165 44 50 c70 79 106 158 107 235 0
78 -19 123 -82 185 -83 84 -239 150 -423 180 -117 19 -354 18 -468 -1z m519
-287 c53 -14 115 -35 138 -46 37 -19 41 -25 41 -59 0 -63 -74 -174 -151 -228
-91 -62 -313 -129 -498 -149 -76 -8 -237 -37 -366 -66 -175 -39 -249 -52 -311
-52 -106 0 -124 7 -124 43 0 39 96 165 205 268 183 174 394 281 615 312 116
16 342 4 451 -23z M2992 8618 c4 -59 18 -120 47 -210 47 -142 71 -244 71 -301
0 -144 156 -160 441 -47 53 21 115 52 138 68 23 17 64 36 92 42 93 23 174 -6
266 -92 43 -41 54 -47 59 -34 9 24 -5 116 -24 156 -36 73 -203 149 -303 137
-27 -3 -89 -22 -137 -42 -144 -60 -223 -85 -266 -83 -74 2 -82 11 -141 174
-50 139 -61 161 -101 210 -34 41 -117 104 -137 104 -6 0 -8 -32 -5 -82z M4390
8504 c0 -9 15 -31 34 -50 l34 -34 114 1 113 1 -44 20 c-39 18 -154 55 -223 72
-22 5 -28 3 -28 -10z"/>
</g>
</svg>
