<?xml version="1.0" standalone="no"?>
<!DOCTYPE svg PUBLIC "-//W3C//DTD SVG 20010904//EN"
 "http://www.w3.org/TR/2001/REC-SVG-20010904/DTD/svg10.dtd">
<svg version="1.0" xmlns="http://www.w3.org/2000/svg"
 width="2048.000000pt" height="2048.000000pt" viewBox="0 0 2048.000000 2048.000000"
 preserveAspectRatio="xMidYMid meet">
<metadata>
Created by potrace 1.13, written by Peter Selinger 2001-2015
</metadata>
<g transform="translate(0.000000,2048.000000) scale(0.192120,-0.192120)"
fill="#000000" stroke="none">
<path d="M5090 10323 c-489 -52 -946 -374 -968 -682 -5 -82 7 -127 56 -199 38
-57 128 -128 203 -160 62 -27 164 -48 294 -62 396 -41 578 -115 774 -311 36
-35 128 -138 206 -229 78 -91 163 -185 191 -209 189 -167 381 -228 694 -218
172 5 246 17 385 63 301 99 602 324 713 533 60 110 38 161 -69 161 -31 0 -96
7 -143 15 -299 52 -510 210 -863 646 -314 388 -524 537 -863 613 -63 14 -162
30 -219 36 -97 9 -314 11 -391 3z m470 -319 c58 -9 151 -30 207 -49 251 -84
367 -177 661 -530 238 -285 447 -473 643 -580 123 -66 121 -92 -8 -167 -284
-167 -693 -194 -958 -64 -86 42 -153 100 -276 237 -418 466 -583 563 -1088
634 -271 39 -336 70 -336 160 0 39 6 50 45 91 113 116 325 221 533 264 153 31
373 33 577 4z M4225 9123 c23 -286 179 -583 398 -758 161 -130 330 -207 525
-239 32 -5 32 -5 32 36 0 61 -51 106 -161 142 -193 63 -363 192 -490 371 -39
54 -58 89 -143 263 -53 107 -152 272 -163 272 -3 0 -2 -39 2 -87z M5820 8240
c-24 -15 -7 -19 20 -5 15 8 19 14 10 14 -8 1 -22 -3 -30 -9z M5398 8087 c-190
-66 -348 -256 -472 -564 -191 -475 -251 -1121 -170 -1820 9 -79 20 -143 23
-143 7 0 123 203 170 298 149 297 269 735 288 1044 l6 98 279 0 278 0 0 -52
c0 -80 -28 -307 -56 -453 -113 -589 -360 -1109 -727 -1534 l-78 -90 13 -42 c7
-25 19 -44 30 -47 10 -2 18 -6 18 -7 0 -2 -185 -326 -410 -721 -292 -510 -417
-738 -433 -788 l-22 -71 0 -1055 c0 -1020 1 -1057 20 -1115 10 -33 19 -64 20
-68 0 -5 -50 -22 -111 -37 -271 -70 -544 -183 -622 -257 -72 -69 -76 -163 -11
-238 16 -18 45 -39 63 -45 22 -7 317 -11 913 -13 l882 -2 30 29 c55 53 65 98
57 262 -8 189 -35 275 -117 368 -25 30 -26 34 -18 101 5 39 8 469 8 957 l0
887 59 103 c137 237 202 359 197 368 -11 18 -255 1257 -255 1297 l0 43 -111 0
-111 0 32 40 c18 22 73 71 124 109 103 76 154 132 248 271 292 431 538 1183
538 1641 0 127 -2 140 -25 181 -33 60 -123 144 -182 171 -44 20 -64 22 -243
22 -190 0 -196 -1 -250 -26 -61 -30 -180 -142 -205 -196 -29 -62 -37 -40 -33
90 5 146 36 255 124 432 142 289 287 385 499 329 83 -21 139 -56 215 -133 114
-115 173 -254 270 -636 33 -126 75 -283 95 -348 38 -129 70 -284 140 -678 l45
-257 0 -350 0 -350 -51 -53 c-67 -70 -92 -120 -93 -189 -1 -55 -1 -55 -36 -62
-19 -4 -197 -7 -395 -7 -198 -1 -405 -4 -459 -8 l-99 -6 58 -30 c33 -16 84
-34 114 -39 73 -13 299 -25 477 -27 184 -1 200 -5 229 -51 31 -50 41 -90 130
-529 41 -205 80 -392 86 -415 12 -49 74 -181 101 -215 10 -13 18 -30 18 -37 0
-20 100 -170 152 -229 24 -27 142 -174 263 -325 438 -552 429 -543 595 -599
36 -12 84 -32 108 -44 l43 -23 -42 -1 c-22 -1 -52 -9 -64 -17 -62 -41 -344
-377 -483 -576 -287 -411 -495 -861 -462 -1004 9 -41 49 -89 92 -112 35 -18
111 -18 146 0 15 8 305 293 644 633 538 539 617 623 623 655 14 77 -28 144
-162 259 -92 79 -154 118 -225 142 -9 3 -29 32 -44 63 -18 38 -210 286 -547
708 -286 358 -526 662 -534 676 -7 14 -63 275 -123 580 -61 305 -113 565 -116
576 -5 18 0 24 33 34 97 32 179 94 214 163 19 37 20 57 19 345 -1 305 -1 308
-35 487 -19 99 -66 369 -105 600 -161 953 -273 1293 -499 1515 -115 113 -244
166 -426 176 -88 4 -108 2 -167 -19z m-254 -3676 c9 -16 47 -188 87 -382 66
-327 71 -361 67 -454 l-3 -100 -52 -67 c-62 -81 -102 -148 -171 -290 l-52
-107 0 -875 c0 -577 3 -876 10 -876 6 0 10 -6 10 -13 0 -7 7 -22 15 -32 50
-67 103 -140 102 -141 -1 -1 -87 -7 -192 -13 -205 -13 -402 -37 -612 -74 -73
-13 -133 -22 -133 -21 0 2 15 25 34 51 52 73 96 172 96 215 0 21 5 38 10 38 7
0 10 316 10 928 0 874 1 931 19 992 24 86 37 111 294 560 363 636 397 690 433
690 7 0 20 -13 28 -29z m2574 -2548 c92 -53 87 -61 -251 -402 -161 -161 -314
-311 -342 -333 -47 -39 -50 -40 -53 -19 -2 13 28 85 70 169 40 81 81 165 91
187 39 92 291 395 351 421 38 17 78 10 134 -23z m-2665 -1042 c24 -19 25 -169
2 -177 -29 -12 -759 12 -782 24 -65 35 77 102 282 133 252 37 467 46 498 20z
M6449 6805 c20 -53 196 -507 236 -610 134 -342 252 -717 294 -938 27 -139 31
-457 6 -457 -9 0 -15 -9 -15 -22 0 -35 -13 -48 -53 -55 -34 -5 -40 -2 -77 38
-22 24 -40 49 -40 55 0 22 -68 82 -104 93 -60 16 -62 13 -56 -112 4 -99 8
-117 32 -159 57 -96 151 -144 262 -136 78 7 132 34 185 94 62 70 75 128 67
287 -28 560 -242 1165 -634 1795 -42 67 -87 135 -100 150 l-22 27 19 -50z
M4704 5457 c-83 -110 -278 -314 -376 -394 -152 -123 -190 -182 -190 -288 0
-149 108 -263 259 -273 73 -5 133 19 228 91 88 66 195 167 195 183 0 40 -87
45 -156 8 -213 -114 -235 -121 -309 -90 -40 17 -55 42 -55 92 0 44 12 58 252
302 216 220 274 316 248 412 -6 22 -14 41 -18 44 -5 3 -39 -36 -78 -87z M5523
3422 c-9 -6 -7 -30 7 -102 22 -113 39 -163 75 -220 30 -48 1128 -1424 1184
-1484 35 -37 145 -116 163 -116 15 0 8 90 -13 181 -23 98 -59 162 -163 289
-34 41 -79 100 -100 130 -22 30 -218 278 -437 551 -219 273 -416 525 -438 560
-86 137 -117 174 -163 197 -45 22 -93 28 -115 14z"/>
</g>
</svg>
