<?xml version="1.0" standalone="no"?>
<!DOCTYPE svg PUBLIC "-//W3C//DTD SVG 20010904//EN"
 "http://www.w3.org/TR/2001/REC-SVG-20010904/DTD/svg10.dtd">
<svg version="1.0" xmlns="http://www.w3.org/2000/svg"
 width="2048.000000pt" height="2048.000000pt" viewBox="0 0 2048.000000 2048.000000"
 preserveAspectRatio="xMidYMid meet">
<metadata>
Created by potrace 1.13, written by Peter Selinger 2001-2015
</metadata>
<g transform="translate(0.000000,2048.000000) scale(0.192120,-0.192120)"
fill="#000000" stroke="none">
<path d="M1303 10319 c-161 -23 -349 -86 -472 -158 -253 -148 -404 -357 -474
-656 l-22 -90 -3 -4020 c-2 -2907 0 -4047 8 -4119 55 -486 339 -788 865 -918
l90 -22 3995 -4 c2888 -2 4022 0 4094 8 487 55 788 338 918 865 l22 90 4 3995
c2 2888 0 4022 -8 4094 -6 54 -20 131 -30 171 -107 417 -451 696 -944 764 -96
14 -7949 13 -8043 0z m4651 -285 c9 -3 16 -10 16 -16 0 -13 -250 -263 -279
-278 -19 -10 -43 -9 -125 5 -87 14 -168 16 -556 13 l-455 -4 -80 -27 c-44 -14
-106 -43 -137 -64 -116 -77 -236 -211 -294 -330 l-39 -78 -3 -159 c-3 -155 -3
-162 24 -225 95 -229 252 -388 451 -458 l78 -28 475 0 c261 0 496 4 523 8 l47
8 0 -160 0 -161 -32 0 c-128 0 -522 -85 -698 -150 -527 -195 -951 -578 -1201
-1087 -92 -187 -167 -402 -203 -586 -26 -126 -26 -135 -26 -582 0 -432 1 -457
20 -509 69 -184 258 -354 429 -386 30 -6 235 -10 470 -10 455 0 507 5 604 57
103 56 230 203 277 322 43 109 50 180 50 488 0 271 2 296 21 347 40 108 132
152 344 166 72 5 968 9 1991 10 1207 0 1880 4 1914 10 84 16 151 52 224 121
77 71 132 148 176 243 l30 64 0 541 0 541 -34 68 c-43 84 -132 190 -208 247
-89 67 -150 86 -308 96 -74 4 -719 8 -1432 9 l-1298 0 0 154 0 154 38 -11 c26
-9 181 -12 527 -12 536 0 536 0 660 62 155 78 298 254 365 449 16 46 20 84 20
191 0 128 -1 138 -32 211 -40 97 -47 110 -128 207 -99 119 -196 187 -330 231
-49 16 -104 18 -508 22 -312 2 -475 0 -520 -8 -37 -6 -91 -14 -120 -17 l-52
-5 -140 143 c-77 79 -140 147 -140 150 0 4 7 10 16 13 9 3 667 6 1462 6 1588
0 1540 2 1724 -60 222 -75 371 -191 446 -348 l37 -77 3 -4187 2 -4187 -30 -82
c-82 -224 -230 -375 -435 -444 -168 -57 -104 -55 -1916 -55 -1159 0 -1683 3
-1719 11 -63 14 -65 31 -4 67 142 84 274 223 343 361 39 77 78 177 90 231 7
30 11 605 11 1685 l0 1640 -30 75 c-54 133 -202 286 -319 331 -79 29 -163 35
-241 15 -92 -24 -143 -57 -242 -156 -98 -99 -134 -162 -167 -287 -20 -79 -21
-105 -21 -598 0 -508 0 -515 -20 -515 -17 0 -20 -7 -20 -45 l0 -45 -975 0
-975 0 0 45 c0 33 -4 45 -15 45 -13 0 -15 65 -15 524 0 577 -2 596 -61 722
-41 86 -176 229 -256 272 -123 65 -263 65 -388 -1 -90 -48 -215 -180 -265
-280 l-40 -79 0 -1668 c0 -1653 0 -1667 20 -1729 66 -200 221 -413 365 -501
32 -19 71 -47 88 -61 l31 -26 -25 -14 c-20 -12 -149 -15 -719 -17 -774 -3
-808 -1 -992 62 -246 84 -408 234 -478 443 -20 57 -20 101 -18 4243 l3 4185
37 76 c86 176 245 300 477 373 178 56 61 54 2533 55 1257 1 2293 -2 2302 -5z
m361 -299 c25 -14 57 -43 71 -65 55 -83 54 -63 54 -987 l0 -853 1553 0 c1096
0 1564 -3 1592 -11 81 -23 153 -96 175 -180 6 -23 10 -220 10 -507 0 -447 -1
-473 -20 -524 -21 -57 -72 -113 -130 -144 -34 -18 -111 -19 -2080 -24 -1954
-5 -2047 -6 -2100 -23 -154 -52 -272 -146 -330 -263 -52 -105 -59 -177 -60
-559 0 -335 -1 -341 -24 -390 -26 -57 -70 -98 -136 -129 -43 -20 -63 -21 -503
-24 -388 -2 -467 -1 -518 13 -106 27 -170 88 -196 188 -16 64 -18 581 -2 743
38 382 190 784 405 1066 75 98 221 245 319 323 343 270 789 416 1346 441 l149
7 0 862 c0 947 -2 911 61 988 78 94 251 119 364 52z m-774 -245 c132 -25 242
-112 302 -238 30 -62 32 -75 32 -172 0 -97 -2 -110 -32 -172 -60 -126 -170
-213 -302 -238 -31 -6 -241 -10 -493 -10 -499 0 -534 4 -636 69 -70 46 -121
106 -159 187 -25 53 -28 70 -28 164 0 94 3 111 28 164 57 122 154 206 275 237
59 16 123 18 513 18 259 1 469 -3 500 -9z m2220 0 c176 -34 308 -166 340 -344
40 -217 -114 -433 -340 -476 -74 -14 -900 -13 -976 1 -127 23 -239 109 -298
229 -30 61 -32 70 -32 180 0 110 2 119 32 181 57 116 160 198 283 225 70 16
912 19 991 4z m-4822 -4732 c49 -15 115 -80 142 -141 l24 -52 3 -727 3 -728
1249 0 1250 0 0 720 c0 686 1 722 19 770 11 28 31 66 45 85 66 87 232 115 345
58 61 -30 112 -93 131 -161 6 -25 10 -576 10 -1627 0 -1572 0 -1591 -20 -1664
-57 -205 -183 -338 -366 -385 -55 -14 -213 -16 -1416 -16 -1183 0 -1361 2
-1413 15 -151 39 -254 124 -323 265 -77 158 -73 53 -70 1820 l3 1575 23 50
c26 56 73 109 117 132 56 30 167 35 244 11z"/>
</g>
</svg>
