<?xml version="1.0" standalone="no"?>
<!DOCTYPE svg PUBLIC "-//W3C//DTD SVG 20010904//EN"
 "http://www.w3.org/TR/2001/REC-SVG-20010904/DTD/svg10.dtd">
<svg version="1.0" xmlns="http://www.w3.org/2000/svg"
 width="2048.000000pt" height="2048.000000pt" viewBox="0 0 2048.000000 2048.000000"
 preserveAspectRatio="xMidYMid meet">
<metadata>
Created by potrace 1.13, written by Peter Selinger 2001-2015
</metadata>
<g transform="translate(0.000000,2048.000000) scale(0.192120,-0.192120)"
fill="#000000" stroke="none">
<path d="M7700 10035 c-207 -51 -515 -246 -866 -550 -245 -212 -776 -739 -981
-974 l-30 -34 -99 17 c-131 24 -469 33 -601 16 -371 -45 -662 -173 -884 -387
-172 -166 -248 -321 -280 -571 -6 -48 -14 -217 -19 -377 -4 -159 -11 -300 -15
-312 -6 -19 -2 -23 37 -33 62 -16 723 -202 725 -204 2 -1 -32 -72 -75 -157
-175 -347 -310 -521 -627 -810 -303 -275 -524 -426 -762 -519 l-95 -38 38 -26
39 -26 785 0 785 0 13 53 c27 114 185 292 460 516 83 68 149 127 147 132 -10
14 -119 31 -171 26 -28 -3 -69 -14 -90 -25 -63 -33 -231 -180 -348 -306 -60
-64 -123 -125 -140 -134 -27 -15 -67 -17 -331 -17 -311 0 -345 4 -345 42 0 8
92 105 205 215 112 110 207 209 211 221 4 12 34 55 66 95 208 254 384 597 364
707 -7 35 -65 95 -91 95 -20 0 -19 3 10 112 14 51 30 139 35 196 12 129 34
177 100 210 56 28 98 28 180 -1 103 -37 165 -83 361 -270 256 -244 370 -337
486 -396 52 -26 53 -26 53 2 0 42 -38 85 -167 188 -70 57 -180 153 -243 214
-187 179 -237 222 -311 266 -198 118 -349 119 -462 5 -46 -46 -82 -121 -92
-189 -4 -25 -16 -54 -26 -63 -10 -9 -19 -23 -19 -31 0 -7 -6 -16 -14 -19 -8
-3 -105 20 -215 52 l-201 57 0 296 c0 331 5 365 65 486 95 189 239 315 447
390 93 34 284 81 386 96 80 11 332 8 603 -7 89 -5 121 -3 204 16 88 21 104 22
164 11 132 -24 339 -124 631 -301 369 -226 557 -326 760 -405 144 -56 154 -62
181 -105 13 -22 28 -40 33 -40 5 0 43 25 84 56 l75 57 -119 42 c-259 91 -470
194 -780 381 -380 230 -426 256 -546 314 -65 32 -184 79 -263 106 -80 27 -145
52 -145 55 0 4 20 14 45 23 106 41 197 116 480 395 379 373 617 581 841 731
338 226 507 254 730 119 216 -131 514 -422 830 -809 82 -101 218 -266 301
-367 161 -193 290 -370 509 -693 164 -243 344 -527 344 -543 0 -7 9 -25 20
-42 20 -30 20 -50 20 -1537 0 -955 4 -1508 10 -1508 5 0 11 -119 13 -303 5
-333 8 -364 65 -617 45 -195 78 -383 87 -487 l6 -68 -41 120 c-147 431 -416
785 -780 1029 -120 81 -324 180 -465 226 -408 132 -811 131 -1231 -4 l-136
-44 5 27 c3 16 9 61 13 102 5 61 2 85 -15 137 -21 61 -184 328 -259 422 -125
159 -281 270 -380 270 l-24 0 28 -47 c24 -42 742 -1175 879 -1388 274 -425
736 -1155 759 -1201 56 -107 31 -240 -58 -322 -84 -77 -11 -72 -1142 -75
l-1011 -2 -17 95 c-27 154 -77 240 -141 240 -35 0 -60 -15 -128 -77 -135 -125
-316 -133 -471 -22 l-58 42 -142 -142 -142 -142 -50 11 c-127 29 -222 144
-224 270 0 55 0 56 93 308 l75 204 -82 63 c-458 359 -1882 1465 -1886 1465 -3
0 -167 -487 -365 -1082 -282 -847 -367 -1091 -390 -1122 -17 -22 -53 -54 -80
-71 -64 -40 -178 -48 -247 -17 -106 46 -168 140 -168 251 0 60 34 168 391
1234 215 643 389 1170 387 1172 -11 11 -732 547 -770 573 -58 40 -73 40 -98 0
-61 -101 3 -186 327 -435 112 -86 203 -160 203 -165 0 -5 12 -20 26 -33 23
-21 26 -33 31 -122 5 -73 15 -123 39 -197 l33 -98 -28 5 c-16 3 -91 9 -167 13
-332 16 -665 -54 -963 -202 -470 -234 -819 -639 -990 -1149 -32 -93 -41 -112
-41 -83 0 53 46 318 90 513 20 94 43 202 50 240 7 39 16 92 21 118 5 27 9 578
9 1241 0 1033 2 1195 15 1212 8 10 15 26 15 35 0 16 297 515 437 734 394 617
611 906 716 950 114 48 316 -101 857 -630 209 -205 350 -323 498 -418 58 -38
92 -67 92 -78 0 -12 37 -36 128 -81 70 -35 142 -69 159 -75 77 -27 52 -87
-119 -293 -119 -143 -131 -167 -136 -272 l-4 -88 -567 -1 c-311 0 -602 -4
-646 -8 -92 -9 -143 -30 -193 -79 -131 -131 -95 -353 72 -440 49 -25 59 -27
227 -30 l176 -4 6 56 c10 95 63 155 171 191 57 19 205 34 328 35 109 0 157 18
293 108 75 49 142 108 271 236 234 235 380 432 499 676 l46 95 -28 3 c-292 26
-537 133 -818 356 -49 39 -209 188 -355 330 -397 388 -584 542 -765 632 -49
25 -117 50 -151 56 -52 9 -65 8 -98 -7 -185 -88 -632 -721 -1255 -1775 l-91
-155 0 -2917 0 -2918 5000 0 5000 0 0 3473 0 3473 -106 170 c-657 1046 -1343
1924 -1808 2311 -296 247 -507 329 -716 278z m-4307 -6016 c106 -54 340 -247
642 -531 181 -171 248 -227 550 -463 105 -82 199 -158 209 -167 9 -10 43 -38
76 -63 57 -44 80 -81 80 -130 0 -12 -18 -87 -41 -165 -38 -133 -41 -150 -37
-239 5 -114 30 -173 110 -257 62 -66 117 -93 191 -97 31 -1 57 -4 57 -5 0 -2
-78 -83 -173 -180 -203 -207 -272 -288 -303 -357 -29 -61 -30 -89 -4 -125 36
-50 119 -71 288 -71 253 0 516 78 907 271 170 84 403 216 434 246 12 11 10 15
-15 24 -54 21 -112 3 -324 -101 -454 -224 -668 -298 -933 -325 -69 -7 -179 9
-204 29 -19 14 -16 57 6 92 34 55 255 269 304 295 26 14 47 30 47 35 0 6 33
27 73 47 39 19 117 68 172 107 126 91 150 98 243 77 106 -24 209 -21 298 9 85
28 140 32 171 10 55 -38 123 -65 167 -65 42 0 46 2 46 25 0 34 28 32 36 -2 83
-371 211 -650 414 -898 75 -92 246 -256 340 -326 168 -124 371 -230 575 -298
75 -25 109 -41 90 -41 -47 0 -325 46 -484 80 -311 66 -253 62 -981 71 -1364
17 -2656 22 -2758 10 -53 -7 -199 -34 -325 -62 -255 -55 -419 -85 -523 -94
l-69 -6 120 41 c206 70 414 179 575 299 93 69 252 222 335 321 313 375 477
894 437 1378 -42 492 -241 917 -588 1252 -113 109 -177 160 -321 254 -57 37
-103 69 -103 72 0 2 17 12 38 23 49 26 103 26 155 0z m-1191 -60 c19 -10 14
-45 -9 -53 -8 -3 -62 -13 -121 -21 -59 -9 -125 -21 -147 -27 -22 -7 -42 -12
-45 -13 -16 -3 -117 -39 -125 -44 -5 -3 -12 -6 -15 -7 -6 -1 -37 -14 -112 -48
-117 -52 -307 -180 -398 -268 -106 -101 -237 -257 -294 -347 -54 -85 -144
-278 -174 -371 -58 -183 -64 -235 -60 -518 4 -243 6 -263 31 -356 68 -247 194
-484 361 -684 171 -203 383 -353 663 -468 48 -20 94 -42 102 -50 13 -11 11
-15 -10 -22 -13 -5 -25 -6 -27 -1 -2 4 -9 6 -16 3 -7 -3 -64 7 -126 21 -245
55 -539 241 -736 465 -112 128 -231 328 -273 459 -20 62 -21 85 -21 667 0 676
-3 647 77 801 217 416 676 753 1165 853 160 33 281 44 310 29z m6383 1 c366
-42 699 -187 976 -425 189 -163 350 -391 420 -594 18 -51 19 -94 19 -670 l0
-616 -44 -107 c-76 -187 -239 -411 -399 -548 -97 -84 -81 -72 -188 -143 -86
-57 -256 -142 -301 -151 -12 -2 -52 -12 -88 -21 -35 -10 -81 -18 -102 -19 -21
0 -38 -4 -38 -7 0 -3 -11 -4 -25 -1 -46 8 -26 29 68 67 239 98 393 195 552
347 232 222 410 525 491 840 25 96 25 104 22 391 -4 284 -5 294 -31 380 -62
201 -155 390 -272 549 -91 124 -284 313 -395 387 -89 60 -330 187 -330 174 0
-3 -6 -1 -12 4 -11 8 -77 33 -133 50 -48 14 -156 34 -232 43 -122 13 -223 12
-363 -4 -123 -15 -160 -9 -160 23 0 14 11 22 48 30 123 30 355 39 517 21z
m-6202 -307 c4 -3 -38 -49 -92 -102 -85 -83 -104 -108 -141 -184 -41 -86 -296
-839 -320 -948 -7 -33 -11 -97 -8 -160 4 -89 8 -112 32 -158 41 -80 150 -182
243 -228 74 -36 81 -38 177 -38 93 0 106 3 166 31 133 64 233 161 295 284 43
87 291 836 307 928 11 67 10 87 -13 222 l-26 149 40 -22 c69 -39 200 -151 271
-233 164 -188 270 -400 323 -647 26 -117 25 -428 0 -547 -121 -569 -564 -995
-1137 -1096 -114 -20 -336 -19 -458 2 -579 98 -1037 556 -1137 1138 -20 115
-20 347 0 462 100 584 557 1038 1145 1139 79 14 322 20 333 8z m6287 -18 c560
-124 989 -569 1085 -1129 20 -115 20 -347 0 -462 -74 -429 -348 -805 -733
-1002 -205 -106 -403 -153 -639 -153 -214 1 -401 41 -583 127 -362 172 -641
496 -745 867 -9 32 -15 61 -12 64 3 2 56 -22 119 -55 165 -88 194 -94 461 -88
769 17 829 20 892 44 119 44 246 153 303 260 30 57 32 65 32 171 0 108 -1 113
-39 196 -47 101 -95 182 -290 490 -285 450 -282 447 -533 589 -27 15 -48 29
-48 31 0 8 144 47 220 61 102 18 408 12 510 -11z m-5295 -44 c71 -41 278 -258
354 -371 104 -156 177 -316 221 -484 18 -74 20 -109 20 -455 0 -401 -1 -412
-54 -573 -81 -245 -267 -530 -457 -698 -81 -71 -210 -162 -309 -218 -56 -32
-200 -94 -200 -87 0 2 -18 -2 -40 -10 -22 -8 -40 -12 -40 -10 0 2 -15 -1 -32
-6 -18 -5 -61 -12 -95 -14 -91 -6 -81 13 30 59 138 58 288 138 380 203 111 78
308 277 387 391 127 180 236 425 280 627 16 75 20 129 20 328 0 263 -7 315
-65 492 -83 255 -204 446 -437 692 -50 53 -58 66 -58 100 0 38 14 63 35 63 5
0 33 -13 60 -29z m-2998 -873 c-3 -8 -6 -5 -6 6 -1 11 2 17 5 13 3 -3 4 -12 1
-19z m9910 0 c-3 -8 -6 -5 -6 6 -1 11 2 17 5 13 3 -3 4 -12 1 -19z m-9875
-1008 c202 -640 696 -1121 1350 -1314 46 -14 79 -25 73 -25 -34 -2 -376 55
-510 84 -358 80 -392 85 -522 92 -102 5 -133 9 -133 20 0 9 -14 13 -45 13
l-45 0 0 40 c0 27 -5 43 -15 46 -12 5 -15 26 -15 106 0 104 -11 168 -80 478
-43 195 -63 304 -85 470 -15 113 -17 143 -8 105 3 -11 19 -63 35 -115z m9875
108 c-3 -8 -6 -5 -6 6 -1 11 2 17 5 13 3 -3 4 -12 1 -19z m-12 -90 c-9 -97
-45 -295 -89 -498 -20 -91 -43 -196 -51 -234 -9 -40 -15 -122 -15 -197 0 -79
-4 -129 -10 -129 -5 0 -10 -20 -10 -45 0 -38 -3 -45 -20 -45 -11 0 -20 -7 -20
-15 0 -12 -18 -15 -102 -15 -149 0 -251 -14 -501 -69 -242 -54 -427 -87 -534
-96 l-68 -6 135 46 c544 186 958 568 1187 1095 23 52 54 137 70 187 15 51 30
93 32 93 2 0 0 -33 -4 -72z m-3392 -48 c14 -11 58 -77 96 -145 233 -412 484
-636 909 -810 50 -21 92 -42 92 -47 0 -12 -44 -28 -48 -17 -2 4 -9 6 -16 3
-28 -11 -243 48 -335 92 -188 88 -386 238 -530 399 -53 60 -151 202 -209 305
-38 69 -84 203 -76 224 9 24 85 21 117 -4z m-4973 -1015 c0 -8 -4 -15 -10 -15
-5 0 -10 7 -10 15 0 8 5 15 10 15 6 0 10 -7 10 -15z m744 0 c-4 -8 -8 -15 -10
-15 -2 0 -4 7 -4 15 0 8 4 15 10 15 5 0 7 -7 4 -15z m5366 0 c0 -8 -2 -15 -4
-15 -2 0 -6 7 -10 15 -3 8 -1 15 4 15 6 0 10 -7 10 -15z m737 -7 c-3 -8 -6 -5
-6 6 -1 11 2 17 5 13 3 -3 4 -12 1 -19z m-6020 -284 c-3 -3 -12 -4 -19 -1 -8
3 -5 6 6 6 11 1 17 -2 13 -5z m5210 0 c-3 -3 -12 -4 -19 -1 -8 3 -5 6 6 6 11
1 17 -2 13 -5z m900 0 c-3 -3 -12 -4 -19 -1 -8 3 -5 6 6 6 11 1 17 -2 13 -5z
M3672 9864 c-332 -56 -683 -305 -911 -647 -76 -113 -158 -289 -186 -402 -22
-85 -32 -155 -22 -155 21 0 756 151 922 190 403 93 716 193 895 285 146 76
259 216 278 346 l7 51 63 -111 c35 -61 68 -113 73 -117 6 -3 14 -16 19 -29 21
-54 262 -186 450 -245 106 -34 130 -45 130 -60 0 -38 -126 -107 -301 -167 -83
-27 -87 -28 -324 -28 l-240 0 -123 43 c-138 48 -274 72 -407 72 l-90 -1 76
-25 c42 -14 129 -55 195 -90 354 -191 405 -209 604 -208 230 1 457 59 679 174
214 111 436 300 496 425 52 104 17 121 -154 76 -341 -90 -555 -46 -896 184
-71 49 -162 103 -201 121 -56 26 -74 40 -84 64 -18 43 -89 112 -153 149 -73
41 -215 87 -327 106 -117 19 -354 18 -468 -1z m394 -274 c159 -20 308 -74 325
-117 12 -33 -9 -81 -52 -116 -68 -56 -278 -140 -454 -180 -276 -64 -812 -177
-867 -182 -58 -6 -67 -5 -76 12 -21 39 53 150 183 271 180 168 371 270 566
302 41 6 81 13 89 15 37 7 213 4 286 -5z M2965 8619 c49 -137 171 -278 320
-368 174 -106 427 -137 609 -75 l48 17 62 -62 c34 -33 65 -61 69 -61 10 0 8
68 -4 120 -6 25 -22 58 -37 74 -53 56 -109 66 -297 51 -171 -14 -304 39 -547
217 -67 48 -177 111 -215 123 -22 6 -22 6 -8 -36z M7470 7274 c-322 -253 -815
-598 -1028 -718 -152 -87 -214 -110 -297 -111 l-70 -1 -373 -279 -372 -280
222 -222 c178 -178 225 -220 233 -209 9 12 99 -52 468 -330 252 -189 462 -344
466 -344 4 0 81 78 170 172 123 131 168 172 184 171 12 -2 152 -19 310 -38
324 -40 340 -39 407 21 37 33 44 52 149 367 69 205 111 347 111 372 -1 115
-109 207 -222 188 -34 -5 -45 -15 -100 -92 -137 -192 -525 -660 -625 -754
l-30 -27 -57 26 c-74 34 -104 29 -205 -30 -93 -55 -141 -60 -208 -22 -24 14
-136 94 -250 179 -207 154 -391 281 -448 310 -28 14 -84 31 -183 57 -39 10
-41 12 -31 33 16 30 87 125 321 434 l199 262 65 -6 c62 -6 108 3 204 39 96 36
624 390 950 638 41 31 89 64 107 73 37 20 89 21 120 4 70 -40 217 -203 242
-271 6 -15 11 -92 11 -171 0 -159 -1 -165 -96 -397 -24 -59 -44 -122 -44 -141
0 -32 31 -87 50 -87 13 0 127 182 180 288 59 117 96 226 105 307 20 180 -99
411 -291 566 -65 53 -189 140 -196 138 -2 0 -68 -52 -148 -115z m267 -1696
c-6 -97 -41 -196 -88 -245 -26 -28 -37 -33 -77 -33 -64 0 -95 21 -82 56 14 35
233 304 247 304 3 0 3 -37 0 -82z M5619 5287 c-20 -12 -56 -35 -79 -52 -42
-29 -45 -29 -219 -36 -199 -8 -264 -23 -420 -92 -78 -35 -89 -43 -70 -48 13
-4 180 -7 370 -8 l347 -1 67 123 c38 67 70 125 72 130 9 15 -33 6 -68 -16z
M2715 5168 c-238 -14 -228 -12 -248 -46 -33 -55 -23 -59 159 -67 91 -4 202 -4
247 -1 79 7 199 30 219 42 14 9 -22 45 -67 65 -44 20 -80 21 -310 7z M5496
4948 c-74 -133 -170 -387 -153 -405 12 -11 82 16 105 40 53 57 148 306 137
360 -7 32 -31 67 -46 67 -4 0 -24 -28 -43 -62z M6333 4705 c-50 -21 -157 -141
-206 -229 -120 -217 -144 -438 -55 -500 12 -9 33 -16 45 -16 23 0 23 0 6 33
-12 22 -16 53 -16 102 2 120 63 262 199 466 54 83 84 137 84 155 0 8 -25 3
-57 -11z M6456 4606 l-38 -115 107 -188 c59 -103 109 -190 111 -192 2 -3 14 5
27 17 27 26 48 27 86 8 53 -28 97 -87 207 -274 29 -51 64 -95 87 -112 l38 -28
-52 -56 c-28 -31 -54 -54 -59 -51 -4 2 -10 24 -14 47 -11 71 -66 238 -103 315
-42 87 -99 143 -144 143 -33 0 -42 -8 -150 -131 -80 -91 -129 -114 -246 -114
-51 0 -92 -2 -90 -5 1 -3 19 -37 39 -76 81 -156 110 -368 89 -647 -13 -178
-36 -345 -69 -504 l-19 -93 809 0 810 0 -17 26 c-15 24 -255 399 -615 964
-285 448 -677 1066 -711 1122 -19 32 -36 58 -39 58 -3 0 -22 -51 -44 -114z
m250 -844 c10 -10 31 -31 45 -48 48 -55 77 -76 139 -98 l62 -23 -75 -94 c-188
-238 -319 -506 -388 -792 -13 -54 -28 -96 -34 -94 -5 1 -21 24 -34 51 -24 47
-24 49 -11 166 12 107 10 173 -5 213 -4 9 40 51 135 126 78 62 144 119 147
126 6 17 -3 34 -47 82 -52 55 -71 114 -71 219 0 87 0 89 30 114 17 14 31 33
31 42 0 30 47 37 76 10z m348 -403 c38 -30 59 -76 52 -112 -3 -17 -26 -62 -50
-101 -23 -39 -65 -111 -92 -159 -59 -108 -109 -157 -159 -157 l-35 0 0 52 c0
36 18 106 61 237 34 102 66 196 72 209 24 51 105 67 151 31z m345 -224 c2 -87
17 -179 42 -256 25 -75 22 -94 -18 -110 -15 -6 -37 -15 -48 -20 -11 -4 -42
-15 -70 -23 -27 -9 -97 -43 -155 -75 -73 -41 -106 -55 -108 -46 -5 20 62 214
99 287 47 94 129 216 189 282 62 67 68 64 69 -39z M3920 4495 c0 -2 62 -51
138 -109 75 -57 412 -318 747 -579 l610 -475 42 124 43 124 -69 333 c-38 182
-74 364 -81 402 -11 68 -13 71 -76 128 l-65 57 -644 0 c-355 0 -645 -2 -645
-5z m1158 -262 c67 -8 77 -22 109 -151 25 -104 32 -275 13 -287 -6 -4 -48 22
-93 56 -178 137 -367 291 -387 316 -23 29 -26 59 -7 66 18 8 303 8 365 0z
M5300 4486 c0 -2 7 -6 15 -10 8 -3 15 -1 15 4 0 6 -7 10 -15 10 -8 0 -15 -2
-15 -4z M6356 4315 c-42 -114 -136 -383 -136 -392 0 -2 29 29 65 69 97 107
119 159 123 288 6 179 3 181 -52 35z M5540 3367 c0 -9 7 -65 15 -124 27 -200
45 -397 50 -573 3 -96 8 -208 11 -248 6 -73 6 -73 26 -55 11 10 32 35 45 57
l25 39 -5 306 c-5 324 -20 468 -57 542 -23 44 -39 57 -78 65 -25 5 -32 3 -32
-9z"/>
</g>
</svg>
