<?xml version="1.0" standalone="no"?>
<!DOCTYPE svg PUBLIC "-//W3C//DTD SVG 20010904//EN"
 "http://www.w3.org/TR/2001/REC-SVG-20010904/DTD/svg10.dtd">
<svg version="1.0" xmlns="http://www.w3.org/2000/svg"
 width="2048.000000pt" height="2048.000000pt" viewBox="0 0 2048.000000 2048.000000"
 preserveAspectRatio="xMidYMid meet">
<metadata>
Created by potrace 1.13, written by Peter Selinger 2001-2015
</metadata>
<g transform="translate(0.000000,2048.000000) scale(0.192120,-0.192120)"
fill="#000000" stroke="none">
<path d="M5883 10248 c4 -46 7 -921 7 -1944 l0 -1861 58 -7 c215 -25 394 -171
461 -379 12 -35 11 -40 -26 -100 -22 -34 -45 -82 -53 -107 -44 -148 -192 -308
-355 -387 -38 -18 -74 -33 -80 -33 -6 0 -41 -18 -78 -40 l-66 -40 -57 19
c-200 71 -335 244 -359 459 l-7 63 -1712 -3 c-1635 -3 -1713 -4 -1766 -22
-232 -78 -380 -253 -406 -482 l-7 -54 2258 0 c2511 0 2309 -6 2450 68 97 51
182 138 229 232 70 144 66 4 66 2178 0 2193 5 2042 -71 2200 -71 148 -213 267
-364 307 -33 8 -75 15 -94 15 l-34 0 6 -82z m277 -330 c11 -12 30 -47 42 -77
l23 -56 3 -1582 c1 -1063 -1 -1583 -8 -1583 -5 0 -10 -18 -10 -39 l0 -40 -39
17 c-38 16 -39 18 -45 82 -10 111 -7 3300 4 3300 5 0 18 -10 30 -22z m-982
-4301 c6 -5 12 -20 12 -33 l0 -24 -1637 0 c-901 0 -1648 3 -1660 6 -13 4 -23
12 -23 19 0 40 0 40 1660 45 877 3 1604 3 1615 1 11 -2 26 -8 33 -14z M6845
9751 c-33 -9 -84 -30 -114 -46 -59 -32 -171 -133 -171 -153 0 -17 43 -32 75
-26 15 3 69 23 121 45 172 73 103 70 1382 66 1232 -3 1157 0 1272 -51 91 -40
170 -117 262 -256 l69 -105 -1588 -5 c-873 -3 -1590 -6 -1593 -8 -7 -3 48 -52
60 -52 5 0 10 -4 10 -10 0 -5 20 -10 44 -10 30 0 46 -5 50 -15 5 -13 172 -15
1426 -15 1413 0 1420 0 1420 -20 0 -13 7 -20 20 -20 19 0 20 -7 20 -136 0
-127 -1 -136 -20 -141 -11 -3 -20 -12 -20 -19 0 -12 -218 -14 -1425 -14 -943
0 -1425 -3 -1425 -10 0 -5 -13 -10 -30 -10 -35 0 -77 -18 -108 -46 l-23 -21
137 -6 c75 -4 792 -7 1591 -7 l1454 0 -7 -22 c-4 -13 -10 -25 -14 -28 -4 -3
-11 -16 -15 -30 -4 -14 -13 -28 -19 -32 -8 -5 -12 -395 -14 -1423 -1 -829 -6
-1415 -11 -1415 -5 0 -11 -93 -13 -207 -3 -192 -5 -211 -26 -250 -12 -23 -22
-53 -22 -66 0 -32 -48 -104 -102 -153 -24 -23 -86 -63 -136 -89 -92 -47 -122
-77 -137 -136 l-6 -26 -263 -6 c-144 -4 -1967 -7 -4051 -7 -2334 0 -3803 -4
-3823 -9 -78 -23 -148 -87 -177 -164 -27 -72 -18 -180 20 -243 33 -53 104
-107 163 -124 25 -7 917 -10 2695 -10 l2657 0 0 -39 c0 -21 -7 -78 -15 -125
-130 -744 -914 -1428 -1925 -1679 -285 -71 -519 -99 -840 -99 -288 0 -446 17
-772 85 -10 2 -223 -701 -429 -1408 -74 -255 -50 -398 85 -523 53 -49 110 -76
193 -92 42 -8 779 -10 2633 -8 l2575 3 55 21 c95 36 136 61 201 121 77 71 120
138 156 240 l28 78 6 1530 c4 1165 8 1541 17 1575 81 294 222 505 446 664 81
58 201 118 294 147 62 20 72 26 72 46 0 20 5 23 38 23 175 1 372 131 454 300
19 41 40 95 46 120 7 30 11 712 13 2070 2 2201 5 2062 -50 2184 -58 130 -192
246 -333 291 l-79 25 -1202 -1 c-1107 0 -1207 -2 -1262 -18z m1643 -5204 c13
-15 -4 -53 -63 -142 -99 -151 -166 -306 -208 -480 -21 -89 -21 -98 -27 -1575
l-5 -1485 -22 -42 c-13 -23 -23 -53 -23 -67 0 -13 -18 -47 -41 -76 -46 -58
-126 -102 -218 -120 -36 -7 -896 -10 -2555 -10 -2206 0 -2509 2 -2560 15 -119
31 -141 71 -134 240 4 94 14 132 157 615 163 552 193 644 221 674 18 18 22 18
217 -5 253 -29 600 -32 828 -5 721 84 1365 363 1845 798 231 209 399 428 522
680 106 216 158 394 158 544 0 80 -3 97 -26 138 -31 55 -103 121 -164 150
l-45 21 -2590 5 c-1424 3 -2597 9 -2606 13 -9 4 -22 20 -28 34 -17 37 7 70 56
78 21 4 45 8 53 10 8 1 1642 3 3631 4 2982 1 3618 -1 3627 -12z M5760 6424
c-179 -38 -334 -176 -396 -353 -28 -78 -32 -171 -9 -171 23 0 86 28 108 48 10
9 37 48 60 87 54 93 126 163 216 210 82 43 116 84 127 153 6 40 5 42 -17 41
-13 0 -53 -7 -89 -15z M6446 5574 c-3 -26 -6 -91 -6 -145 l0 -99 -145 0 -145
0 0 -24 c0 -17 12 -34 36 -52 31 -24 47 -28 123 -32 85 -4 87 -4 136 30 78 54
95 86 95 180 0 86 -16 138 -52 168 -13 11 -26 19 -29 20 -4 0 -9 -21 -13 -46z
M1110 5316 c-85 -22 -175 -96 -205 -168 -38 -92 -5 -224 73 -288 34 -28 38
-29 50 -13 8 11 12 56 12 132 1 112 2 117 28 148 32 37 50 45 171 73 94 22
111 34 136 93 l15 37 -117 -1 c-65 0 -138 -6 -163 -13z M890 4214 c0 -165 48
-350 140 -539 199 -410 571 -765 1075 -1026 207 -107 476 -211 653 -252 61
-14 62 -14 62 7 0 28 -33 81 -63 101 -13 8 -80 35 -148 59 -261 93 -455 187
-686 334 -175 111 -316 226 -443 360 -221 231 -316 384 -440 702 -18 47 -59
138 -92 204 l-58 119 0 -69z"/>
</g>
</svg>
