<?xml version="1.0" standalone="no"?>
<!DOCTYPE svg PUBLIC "-//W3C//DTD SVG 20010904//EN"
 "http://www.w3.org/TR/2001/REC-SVG-20010904/DTD/svg10.dtd">
<svg version="1.0" xmlns="http://www.w3.org/2000/svg"
 width="2048.000000pt" height="2048.000000pt" viewBox="0 0 2048.000000 2048.000000"
 preserveAspectRatio="xMidYMid meet">
<metadata>
Created by potrace 1.13, written by Peter Selinger 2001-2015
</metadata>
<g transform="translate(0.000000,2048.000000) scale(0.192120,-0.192120)"
fill="#000000" stroke="none">
<path d="M7700 10035 c-207 -51 -515 -246 -866 -550 -245 -212 -776 -739 -981
-974 l-30 -34 -99 17 c-150 27 -495 33 -644 12 -353 -52 -626 -177 -843 -385
-170 -164 -246 -320 -278 -569 -6 -48 -14 -217 -19 -377 -4 -159 -11 -299 -15
-311 -6 -19 8 -24 217 -84 416 -118 532 -149 540 -144 26 16 -120 -277 -209
-419 -129 -203 -244 -336 -488 -558 -304 -276 -543 -438 -774 -525 l-83 -32
38 -26 39 -26 787 0 788 0 0 25 c0 115 202 337 568 625 l94 73 168 -168 c134
-134 169 -164 176 -152 8 13 94 -48 467 -328 252 -190 462 -345 466 -345 5 0
61 57 126 126 l118 125 21 -33 c30 -50 832 -1311 891 -1403 272 -422 736
-1155 759 -1201 56 -107 31 -240 -58 -322 -84 -77 -11 -72 -1142 -75 l-1011
-2 -17 95 c-28 156 -77 240 -142 240 -25 0 -47 -12 -86 -45 -114 -97 -194
-135 -284 -135 -64 0 -164 35 -229 81 l-58 41 -142 -142 -141 -141 -50 11
c-127 29 -222 144 -224 270 0 55 0 56 93 308 l75 204 -82 63 c-458 359 -1882
1465 -1886 1465 -3 0 -167 -487 -365 -1082 -282 -847 -367 -1091 -390 -1122
-17 -22 -53 -54 -80 -71 -64 -40 -178 -48 -247 -17 -106 46 -168 140 -168 251
0 60 34 168 391 1234 215 643 389 1170 387 1172 -11 11 -732 547 -770 573 -58
40 -73 40 -98 0 -66 -108 11 -201 412 -502 65 -49 118 -93 118 -98 0 -5 12
-20 26 -33 23 -21 26 -33 31 -122 5 -73 15 -123 39 -197 l33 -98 -28 5 c-16 3
-91 9 -167 13 -332 16 -665 -54 -963 -202 -470 -234 -819 -639 -990 -1149 -32
-93 -41 -112 -41 -83 0 53 46 318 90 513 20 94 43 202 50 240 7 39 16 92 21
118 5 27 9 578 9 1241 0 1033 2 1195 15 1212 8 10 15 26 15 35 0 16 297 515
437 734 394 617 611 906 716 950 114 48 309 -96 867 -640 205 -199 367 -335
500 -417 41 -26 70 -51 72 -62 3 -21 188 -125 260 -148 104 -31 89 -76 -101
-308 -112 -136 -131 -176 -138 -281 l-6 -79 -556 -1 c-306 0 -592 -4 -636 -8
-92 -9 -143 -30 -193 -79 -131 -131 -95 -353 72 -440 49 -25 59 -27 229 -30
l177 -4 0 43 c0 56 32 121 76 154 73 56 216 84 426 85 109 0 157 18 293 108
75 49 142 108 271 236 235 236 386 441 499 678 l44 93 -27 3 c-293 27 -536
133 -817 356 -49 39 -209 188 -355 330 -397 388 -584 542 -765 632 -49 25
-117 50 -151 56 -52 9 -65 8 -98 -7 -185 -88 -632 -721 -1255 -1775 l-91 -155
0 -2917 0 -2918 5000 0 5000 0 0 3473 0 3473 -106 170 c-657 1046 -1343 1924
-1808 2311 -296 247 -507 329 -716 278z m275 -266 c64 -24 203 -113 291 -187
387 -322 895 -947 1481 -1822 94 -140 203 -298 242 -350 39 -52 71 -101 71
-110 0 -8 9 -26 20 -40 19 -25 20 -52 20 -1532 0 -955 4 -1508 10 -1508 5 0
11 -119 13 -303 5 -333 8 -364 65 -617 45 -195 78 -383 87 -487 l6 -68 -41
120 c-147 431 -416 785 -780 1029 -120 81 -324 180 -465 226 -408 132 -811
131 -1231 -4 l-136 -44 5 27 c3 16 9 61 13 102 9 105 -14 165 -137 357 -122
188 -178 261 -267 343 -72 65 -207 159 -230 159 -12 0 -12 4 1 24 18 27 15 32
-41 60 -51 26 -100 22 -171 -14 -72 -36 -131 -41 -180 -16 -17 9 -122 84 -233
167 -386 290 -490 355 -615 390 -48 13 -83 27 -83 35 0 12 288 403 447 607
l84 107 63 0 c112 0 221 47 451 194 133 85 417 285 655 461 224 165 253 175
348 110 63 -43 180 -166 212 -222 l30 -53 0 -189 c0 -105 -4 -200 -9 -213 -81
-199 -105 -288 -82 -303 20 -12 144 223 186 355 46 141 36 268 -31 407 -63
132 -191 267 -360 381 l-61 41 -184 -141 c-253 -193 -471 -350 -684 -494 -366
-246 -518 -321 -636 -312 -44 3 -48 0 -416 -277 l-373 -279 35 -36 c19 -20 35
-38 35 -42 0 -3 -39 -3 -87 -1 -105 6 -124 -1 -242 -86 -102 -74 -142 -111
-295 -274 -155 -166 -138 -161 -485 -155 -262 4 -301 10 -301 44 0 9 97 111
215 228 118 117 215 219 215 226 0 7 38 63 84 124 157 209 274 417 321 570 30
99 29 127 -12 202 -22 42 -26 66 -31 159 l-5 110 -12 -70 c-7 -39 -21 -90 -31
-114 l-19 -42 -38 49 c-45 60 -81 78 -259 132 -87 26 -138 47 -148 60 -8 11
-30 23 -48 26 l-33 7 3 321 c3 320 3 321 30 387 32 82 99 192 156 258 40 47
196 161 219 161 6 0 27 12 48 26 49 33 238 96 375 125 89 19 137 23 320 23
118 1 274 -1 345 -4 119 -5 134 -3 177 17 26 12 69 41 95 66 41 38 53 43 83
40 102 -12 412 -148 610 -268 52 -31 98 -59 103 -62 4 -2 7 -2 7 1 0 3 -61 41
-136 86 -115 70 -243 135 -416 214 -44 20 -62 48 -53 84 8 32 546 571 730 731
432 377 741 560 948 561 27 0 37 4 37 16 0 19 18 16 105 -17z m-4582 -5750
c106 -54 340 -247 642 -531 94 -88 212 -195 264 -237 52 -42 128 -104 170
-138 42 -34 162 -130 268 -213 193 -152 213 -173 213 -235 0 -12 -19 -87 -41
-166 -39 -136 -41 -148 -36 -243 3 -70 10 -112 23 -136 34 -67 83 -135 144
-204 56 -63 61 -73 58 -107 l-3 -37 53 45 c52 45 54 45 100 36 68 -13 126 1
206 49 39 23 97 55 128 71 l57 30 97 -18 c124 -22 263 -16 349 15 71 25 115
22 195 -14 34 -15 79 -26 118 -28 l64 -4 33 -129 c97 -384 269 -684 546 -950
219 -210 461 -356 754 -454 75 -25 109 -41 90 -41 -47 0 -325 46 -484 80 -311
66 -253 62 -981 71 -1364 17 -2656 22 -2758 10 -53 -7 -199 -34 -325 -62 -255
-55 -419 -85 -523 -94 l-69 -6 120 41 c206 70 414 179 575 299 93 69 252 222
335 321 313 375 477 894 437 1378 -42 492 -241 917 -588 1252 -113 109 -177
160 -321 254 -57 37 -103 69 -103 72 0 2 17 12 38 23 49 26 103 26 155 0z
m-1191 -60 c19 -10 14 -45 -9 -53 -8 -3 -62 -13 -121 -21 -59 -9 -125 -21
-147 -27 -22 -7 -42 -12 -45 -13 -16 -3 -117 -39 -125 -44 -5 -3 -12 -6 -15
-7 -6 -1 -37 -14 -112 -48 -117 -52 -307 -180 -398 -268 -106 -101 -237 -257
-294 -347 -54 -85 -144 -278 -174 -371 -58 -183 -64 -235 -60 -518 4 -243 6
-263 31 -356 68 -247 194 -484 361 -684 171 -203 383 -353 663 -468 48 -20 94
-42 102 -50 13 -11 11 -15 -10 -22 -13 -5 -25 -6 -27 -1 -2 4 -9 6 -16 3 -7
-3 -64 7 -126 21 -245 55 -539 241 -736 465 -112 128 -231 328 -273 459 -20
62 -21 85 -21 667 0 676 -3 647 77 801 217 416 676 753 1165 853 160 33 281
44 310 29z m6383 1 c366 -42 699 -187 976 -425 189 -163 350 -391 420 -594 18
-51 19 -94 19 -670 l0 -616 -44 -107 c-76 -187 -239 -411 -399 -548 -97 -84
-81 -72 -188 -143 -86 -57 -256 -142 -301 -151 -12 -2 -52 -12 -88 -21 -35
-10 -81 -18 -102 -19 -21 0 -38 -4 -38 -7 0 -3 -11 -4 -25 -1 -46 8 -26 29 68
67 239 98 393 195 552 347 232 222 410 525 491 840 25 96 25 104 22 391 -4
284 -5 294 -31 380 -62 201 -155 390 -272 549 -91 124 -284 313 -395 387 -89
60 -330 187 -330 174 0 -3 -6 -1 -12 4 -11 8 -77 33 -133 50 -48 14 -156 34
-232 43 -122 13 -223 12 -363 -4 -123 -15 -160 -9 -160 23 0 14 11 22 48 30
123 30 355 39 517 21z m-6202 -307 c4 -3 -38 -49 -92 -102 -85 -83 -104 -108
-141 -184 -41 -86 -296 -839 -320 -948 -7 -33 -11 -97 -8 -160 4 -89 8 -112
32 -158 41 -80 150 -182 243 -228 74 -36 81 -38 177 -38 93 0 106 3 166 31
133 64 233 161 295 284 43 87 291 836 307 928 11 67 10 87 -13 222 l-26 149
40 -22 c69 -39 200 -151 271 -233 164 -188 270 -400 323 -647 26 -117 25 -428
0 -547 -121 -569 -564 -995 -1137 -1096 -114 -20 -336 -19 -458 2 -579 98
-1037 556 -1137 1138 -20 115 -20 347 0 462 100 584 557 1038 1145 1139 79 14
322 20 333 8z m6287 -18 c560 -124 989 -569 1085 -1129 20 -115 20 -347 0
-462 -74 -429 -348 -805 -733 -1002 -205 -106 -403 -153 -639 -153 -214 1
-401 41 -583 127 -362 172 -641 496 -745 867 -9 32 -15 61 -12 64 3 2 56 -22
119 -55 165 -88 194 -94 461 -88 769 17 829 20 892 44 119 44 246 153 303 260
30 57 32 65 32 171 0 108 -1 113 -39 196 -47 101 -95 182 -290 490 -285 450
-282 447 -533 589 -27 15 -48 29 -48 31 0 8 144 47 220 61 102 18 408 12 510
-11z m-5295 -44 c71 -41 278 -258 354 -371 104 -156 177 -316 221 -484 18 -74
20 -109 20 -455 0 -401 -1 -412 -54 -573 -81 -245 -267 -530 -457 -698 -81
-71 -210 -162 -309 -218 -56 -32 -200 -94 -200 -87 0 2 -18 -2 -40 -10 -22 -8
-40 -12 -40 -10 0 2 -15 -1 -32 -6 -18 -5 -61 -12 -95 -14 -91 -6 -81 13 30
59 138 58 288 138 380 203 111 78 308 277 387 391 127 180 236 425 280 627 16
75 20 129 20 328 0 263 -7 315 -65 492 -83 255 -204 446 -437 692 -50 53 -58
66 -58 100 0 38 14 63 35 63 5 0 33 -13 60 -29z m-2998 -873 c-3 -8 -6 -5 -6
6 -1 11 2 17 5 13 3 -3 4 -12 1 -19z m9910 0 c-3 -8 -6 -5 -6 6 -1 11 2 17 5
13 3 -3 4 -12 1 -19z m-9875 -1008 c202 -640 696 -1121 1350 -1314 46 -14 79
-25 73 -25 -34 -2 -376 55 -510 84 -358 80 -392 85 -522 92 -102 5 -133 9
-133 20 0 9 -14 13 -45 13 l-45 0 0 40 c0 27 -5 43 -15 46 -12 5 -15 26 -15
106 0 104 -11 168 -80 478 -43 195 -63 304 -85 470 -15 113 -17 143 -8 105 3
-11 19 -63 35 -115z m9875 108 c-3 -8 -6 -5 -6 6 -1 11 2 17 5 13 3 -3 4 -12
1 -19z m-12 -90 c-9 -97 -45 -295 -89 -498 -20 -91 -43 -196 -51 -234 -9 -40
-15 -122 -15 -197 0 -79 -4 -129 -10 -129 -5 0 -10 -20 -10 -45 0 -38 -3 -45
-20 -45 -11 0 -20 -7 -20 -15 0 -12 -18 -15 -102 -15 -149 0 -251 -14 -501
-69 -242 -54 -427 -87 -534 -96 l-68 -6 135 46 c544 186 958 568 1187 1095 23
52 54 137 70 187 15 51 30 93 32 93 2 0 0 -33 -4 -72z m-3392 -48 c14 -11 58
-77 96 -145 233 -412 484 -636 909 -810 50 -21 92 -42 92 -47 0 -12 -44 -28
-48 -17 -2 4 -9 6 -16 3 -28 -11 -243 48 -335 92 -188 88 -386 238 -530 399
-53 60 -151 202 -209 305 -38 69 -84 203 -76 224 9 24 85 21 117 -4z m-4973
-1015 c0 -8 -4 -15 -10 -15 -5 0 -10 7 -10 15 0 8 5 15 10 15 6 0 10 -7 10
-15z m744 0 c-4 -8 -8 -15 -10 -15 -2 0 -4 7 -4 15 0 8 4 15 10 15 5 0 7 -7 4
-15z m5366 0 c0 -8 -2 -15 -4 -15 -2 0 -6 7 -10 15 -3 8 -1 15 4 15 6 0 10 -7
10 -15z m737 -7 c-3 -8 -6 -5 -6 6 -1 11 2 17 5 13 3 -3 4 -12 1 -19z m-6020
-284 c-3 -3 -12 -4 -19 -1 -8 3 -5 6 6 6 11 1 17 -2 13 -5z m5210 0 c-3 -3
-12 -4 -19 -1 -8 3 -5 6 6 6 11 1 17 -2 13 -5z m900 0 c-3 -3 -12 -4 -19 -1
-8 3 -5 6 6 6 11 1 17 -2 13 -5z M6775 8082 c29 -32 385 -237 550 -317 145
-70 276 -127 281 -122 2 2 -25 16 -59 32 -245 112 -562 278 -677 355 -48 32
-105 63 -95 52z M4880 7189 c-47 -20 -97 -85 -86 -112 2 -7 10 2 17 19 32 81
154 96 312 38 59 -22 43 -6 -29 28 -71 33 -170 46 -214 27z M5220 7086 c0 -2
8 -10 18 -17 15 -13 16 -12 3 4 -13 16 -21 21 -21 13z M7813 6033 c-14 -3 -50
-43 -100 -111 -158 -217 -429 -545 -585 -708 -43 -45 -78 -84 -78 -88 0 -3 13
-6 28 -6 15 0 155 -16 310 -35 318 -40 335 -39 402 21 37 33 44 52 149 367 69
205 111 347 111 372 -1 86 -60 161 -145 184 -41 11 -53 12 -92 4z m-104 -591
c-11 -41 -59 -118 -83 -134 -18 -13 -71 -9 -91 6 -19 13 -19 16 -3 48 9 18 54
78 100 133 l83 99 3 -54 c2 -30 -2 -74 -9 -98z M3672 9864 c-332 -56 -683
-305 -911 -647 -76 -113 -158 -289 -186 -402 -22 -87 -32 -155 -21 -155 2 0
160 31 352 69 341 68 639 135 739 165 28 9 51 16 52 16 7 0 154 -207 207 -292
114 -182 192 -235 338 -229 41 2 103 63 137 135 54 114 92 318 107 571 l7 120
44 50 c71 78 107 157 108 235 0 78 -19 123 -82 185 -83 84 -239 150 -423 180
-117 19 -354 18 -468 -1z m463 -239 c101 -21 185 -53 185 -70 0 -8 14 -23 30
-35 30 -21 30 -22 30 -122 0 -88 3 -108 27 -160 26 -59 27 -61 7 -75 -40 -32
-204 -103 -337 -147 -123 -41 -321 -96 -344 -96 -5 0 -20 25 -32 56 -44 106
-77 109 -413 40 -248 -50 -296 -54 -339 -29 -37 22 -37 49 0 100 16 22 36 53
44 70 62 119 322 332 502 410 80 35 180 61 275 73 90 12 271 4 365 -15z M2994
8581 c4 -28 25 -107 47 -177 46 -143 69 -241 69 -297 0 -98 69 -136 205 -116
119 19 290 82 380 141 106 69 210 60 334 -29 l24 -18 -7 30 c-16 66 -69 114
-162 146 -83 29 -152 22 -281 -30 -129 -53 -227 -77 -285 -73 -40 3 -48 8 -66
40 -11 21 -37 87 -57 147 -21 61 -44 123 -52 139 -21 40 -92 115 -126 133
l-30 15 7 -51z M5649 5336 c-45 -16 -83 -43 -129 -91 -19 -20 -46 -42 -60 -48
-14 -5 -90 -14 -170 -18 -155 -8 -216 -22 -355 -80 -70 -29 -77 -34 -55 -40
14 -4 169 -7 346 -8 l321 -1 81 143 c45 79 82 147 82 150 0 10 -21 8 -61 -7z
M6457 4607 l-39 -114 112 -198 c128 -227 126 -203 29 -309 -82 -89 -131 -111
-246 -111 -51 0 -92 -2 -90 -5 1 -3 19 -37 39 -76 80 -154 109 -363 90 -638
-13 -175 -36 -350 -70 -513 l-19 -93 809 0 810 0 -17 26 c-18 27 -367 574
-615 964 -340 535 -679 1069 -711 1122 -19 32 -36 58 -39 58 -3 0 -22 -51 -43
-113z m568 -855 c24 -15 45 -31 45 -35 0 -4 -41 -51 -90 -103 -239 -251 -394
-533 -484 -883 l-32 -124 -22 28 c-33 42 -37 88 -18 220 9 66 16 146 16 177
l0 57 70 57 c39 31 70 62 70 68 0 7 -7 66 -16 131 -19 144 -13 343 11 361 8 6
15 18 15 27 0 16 43 53 88 76 27 14 42 7 110 -58 40 -38 144 -82 159 -68 5 6
-30 143 -52 200 -24 61 -18 56 35 -26 35 -55 63 -85 95 -105z m52 -426 c44
-38 38 -83 -23 -186 -28 -47 -73 -122 -98 -167 -58 -101 -105 -145 -149 -141
l-32 3 1 65 c0 58 7 78 61 192 71 148 113 212 156 239 41 24 50 24 84 -5z
m322 -191 c2 -87 17 -179 42 -256 25 -75 22 -94 -18 -110 -15 -6 -37 -15 -48
-20 -11 -4 -42 -15 -70 -23 -27 -9 -97 -43 -155 -75 -73 -41 -106 -55 -108
-46 -5 20 62 214 99 287 47 94 129 216 189 282 62 67 68 64 69 -39z M3920
4495 c0 -2 46 -39 103 -82 160 -121 1318 -1023 1356 -1056 l34 -29 44 123 43
124 -70 340 c-38 187 -74 369 -81 405 -10 62 -13 67 -75 123 l-65 57 -644 0
c-355 0 -645 -2 -645 -5z m1204 -275 c33 -34 59 -152 64 -287 2 -73 1 -133 -4
-133 -19 0 -432 326 -464 367 -23 29 -26 59 -7 67 6 3 99 4 204 3 154 -2 196
-6 207 -17z M6361 4329 c-38 -103 -151 -430 -151 -436 0 -3 10 9 23 28 13 19
49 69 80 112 66 91 80 142 75 271 l-3 89 -24 -64z M5577 3100 c3 -41 7 -77 9
-79 7 -8 2 94 -6 124 -5 18 -6 1 -3 -45z"/>
</g>
</svg>
