<?xml version="1.0" standalone="no"?>
<!DOCTYPE svg PUBLIC "-//W3C//DTD SVG 20010904//EN"
 "http://www.w3.org/TR/2001/REC-SVG-20010904/DTD/svg10.dtd">
<svg version="1.0" xmlns="http://www.w3.org/2000/svg"
 width="2048.000000pt" height="2048.000000pt" viewBox="0 0 2048.000000 2048.000000"
 preserveAspectRatio="xMidYMid meet">
<metadata>
Created by potrace 1.13, written by Peter Selinger 2001-2015
</metadata>
<g transform="translate(0.000000,2048.000000) scale(0.192120,-0.192120)"
fill="#000000" stroke="none">
<path d="M7700 10035 c-207 -51 -515 -246 -866 -550 -245 -212 -776 -739 -981
-974 l-30 -34 -99 17 c-150 27 -495 33 -644 12 -356 -52 -627 -176 -846 -388
-170 -164 -243 -316 -275 -571 -6 -45 -14 -212 -19 -372 -4 -159 -11 -300 -15
-312 -6 -19 -2 -23 37 -33 59 -15 646 -179 682 -191 15 -5 32 -6 37 -4 14 10
-9 -46 -79 -185 -165 -327 -305 -507 -617 -791 -303 -275 -524 -426 -762 -519
l-95 -38 38 -26 39 -26 785 0 785 0 13 53 c30 129 215 325 560 597 l94 73 168
-168 c134 -134 169 -164 176 -152 8 13 94 -48 467 -328 252 -190 462 -345 466
-345 4 0 61 57 126 126 l118 125 21 -33 c30 -50 832 -1311 891 -1403 272 -422
736 -1155 759 -1201 56 -107 31 -240 -58 -322 -84 -77 -11 -72 -1142 -75
l-1011 -2 -17 95 c-27 154 -77 240 -141 240 -35 0 -60 -15 -128 -77 -135 -125
-316 -133 -471 -22 l-58 42 -142 -142 -142 -142 -50 11 c-127 29 -222 144
-224 270 0 55 0 56 93 308 l75 204 -82 63 c-458 359 -1882 1465 -1886 1465 -3
0 -167 -487 -365 -1082 -282 -847 -367 -1091 -390 -1122 -17 -22 -53 -54 -80
-71 -64 -40 -178 -48 -247 -17 -106 46 -168 140 -168 251 0 60 34 168 391
1234 215 643 389 1170 387 1172 -11 11 -732 547 -770 573 -58 40 -73 40 -98 0
-61 -101 3 -186 327 -435 112 -86 203 -160 203 -165 0 -5 12 -20 26 -33 23
-21 26 -33 31 -122 5 -73 15 -123 39 -197 l33 -98 -28 5 c-16 3 -91 9 -167 13
-332 16 -665 -54 -963 -202 -470 -234 -819 -639 -990 -1149 -32 -93 -41 -112
-41 -83 0 53 46 318 90 513 20 94 43 202 50 240 7 39 16 92 21 118 5 27 9 578
9 1241 0 1033 2 1195 15 1212 8 10 15 26 15 35 0 16 297 515 437 734 394 617
611 906 716 950 114 48 316 -101 857 -630 209 -205 350 -323 498 -418 58 -38
92 -67 92 -78 0 -12 37 -36 128 -81 70 -35 142 -69 159 -75 77 -27 52 -87
-119 -293 -119 -143 -131 -167 -136 -272 l-4 -88 -567 -1 c-311 0 -602 -4
-646 -8 -92 -9 -143 -30 -193 -79 -131 -131 -95 -353 72 -440 49 -25 59 -27
227 -30 l176 -4 6 56 c10 95 63 155 171 191 57 19 205 34 328 35 109 0 157 18
293 108 75 49 142 108 271 236 234 235 380 432 499 676 l46 95 -28 3 c-292 26
-537 133 -818 356 -49 39 -209 188 -355 330 -397 388 -584 542 -765 632 -49
25 -117 50 -151 56 -52 9 -65 8 -98 -7 -185 -88 -632 -721 -1255 -1775 l-91
-155 0 -2917 0 -2918 5000 0 5000 0 0 3473 0 3473 -106 170 c-657 1046 -1343
1924 -1808 2311 -296 247 -507 329 -716 278z m275 -266 c64 -24 203 -113 291
-187 387 -322 895 -947 1481 -1822 94 -140 203 -298 242 -350 39 -52 71 -101
71 -110 0 -8 9 -26 20 -40 19 -25 20 -52 20 -1532 0 -955 4 -1508 10 -1508 5
0 11 -119 13 -303 5 -333 8 -364 65 -617 45 -195 78 -383 87 -487 l6 -68 -41
120 c-147 431 -416 785 -780 1029 -120 81 -324 180 -465 226 -408 132 -811
131 -1231 -4 l-136 -44 5 27 c3 16 9 61 13 102 9 105 -14 165 -137 357 -122
188 -178 261 -267 343 -72 65 -207 159 -230 159 -12 0 -12 4 1 24 18 27 15 32
-41 60 -52 27 -100 22 -173 -15 -77 -39 -135 -42 -196 -11 -23 12 -132 89
-241 171 -201 150 -408 293 -472 326 -19 10 -73 31 -120 46 -46 15 -86 31 -87
36 -3 8 412 568 501 676 38 47 39 47 101 47 111 0 221 47 450 194 133 85 417
285 655 461 224 165 253 175 348 110 63 -43 180 -166 212 -222 l30 -53 0 -189
c0 -105 -4 -200 -9 -213 -81 -199 -105 -288 -82 -303 20 -12 144 223 186 355
46 141 36 268 -31 407 -63 132 -191 267 -360 381 l-61 41 -184 -141 c-253
-193 -471 -350 -684 -494 -366 -246 -518 -321 -636 -312 -44 3 -48 0 -416
-276 l-372 -280 44 -47 c25 -27 45 -50 45 -53 0 -2 -19 0 -42 6 -74 17 -149
13 -199 -11 -77 -36 -246 -180 -378 -320 -69 -73 -139 -140 -155 -149 -27 -15
-69 -17 -331 -17 -309 0 -345 4 -345 41 0 8 99 113 220 232 121 119 220 224
220 232 0 8 25 46 55 83 196 246 365 570 365 699 0 25 -11 66 -25 96 -22 47
-25 69 -26 165 l-1 112 -13 -72 c-13 -74 -43 -163 -54 -163 -3 1 -23 23 -43
49 -43 56 -109 87 -286 137 -66 19 -104 35 -107 45 -3 9 -24 21 -46 28 l-40
12 3 327 c3 324 4 328 29 394 58 150 153 283 255 358 56 42 207 118 288 145
97 32 237 64 348 81 95 14 149 15 333 9 341 -13 363 -12 417 12 26 12 69 41
95 66 41 38 53 43 83 40 102 -12 412 -148 610 -268 52 -31 98 -59 103 -62 4
-2 7 -2 7 1 0 3 -61 41 -136 86 -115 70 -243 135 -416 214 -44 20 -62 48 -53
84 8 32 546 571 730 731 432 377 741 560 948 561 27 0 37 4 37 16 0 19 18 16
105 -17z m-4582 -5750 c106 -54 340 -247 642 -531 94 -88 212 -195 264 -237
52 -42 128 -104 170 -138 42 -34 162 -130 268 -213 193 -152 213 -173 213
-235 0 -12 -19 -87 -41 -166 -39 -136 -41 -148 -36 -243 3 -70 10 -112 23
-136 34 -67 83 -135 144 -204 56 -63 61 -73 58 -107 l-3 -37 53 45 c52 45 54
45 100 36 68 -13 126 1 206 48 181 107 169 103 260 93 154 -16 284 -11 357 13
79 28 127 25 189 -11 43 -24 74 -32 164 -40 l38 -3 33 -129 c97 -383 269 -683
546 -949 219 -210 461 -356 754 -454 75 -25 109 -41 90 -41 -47 0 -325 46
-484 80 -311 66 -253 62 -981 71 -1364 17 -2656 22 -2758 10 -53 -7 -199 -34
-325 -62 -255 -55 -419 -85 -523 -94 l-69 -6 120 41 c206 70 414 179 575 299
93 69 252 222 335 321 313 375 477 894 437 1378 -42 492 -241 917 -588 1252
-113 109 -177 160 -321 254 -57 37 -103 69 -103 72 0 2 17 12 38 23 49 26 103
26 155 0z m-1191 -60 c19 -10 14 -45 -9 -53 -8 -3 -62 -13 -121 -21 -59 -9
-125 -21 -147 -27 -22 -7 -42 -12 -45 -13 -16 -3 -117 -39 -125 -44 -5 -3 -12
-6 -15 -7 -6 -1 -37 -14 -112 -48 -117 -52 -307 -180 -398 -268 -106 -101
-237 -257 -294 -347 -54 -85 -144 -278 -174 -371 -58 -183 -64 -235 -60 -518
4 -243 6 -263 31 -356 68 -247 194 -484 361 -684 171 -203 383 -353 663 -468
48 -20 94 -42 102 -50 13 -11 11 -15 -10 -22 -13 -5 -25 -6 -27 -1 -2 4 -9 6
-16 3 -7 -3 -64 7 -126 21 -245 55 -539 241 -736 465 -112 128 -231 328 -273
459 -20 62 -21 85 -21 667 0 676 -3 647 77 801 217 416 676 753 1165 853 160
33 281 44 310 29z m6383 1 c366 -42 699 -187 976 -425 189 -163 350 -391 420
-594 18 -51 19 -94 19 -670 l0 -616 -44 -107 c-76 -187 -239 -411 -399 -548
-97 -84 -81 -72 -188 -143 -86 -57 -256 -142 -301 -151 -12 -2 -52 -12 -88
-21 -35 -10 -81 -18 -102 -19 -21 0 -38 -4 -38 -7 0 -3 -11 -4 -25 -1 -46 8
-26 29 68 67 239 98 393 195 552 347 232 222 410 525 491 840 25 96 25 104 22
391 -4 284 -5 294 -31 380 -62 201 -155 390 -272 549 -91 124 -284 313 -395
387 -89 60 -330 187 -330 174 0 -3 -6 -1 -12 4 -11 8 -77 33 -133 50 -48 14
-156 34 -232 43 -122 13 -223 12 -363 -4 -123 -15 -160 -9 -160 23 0 14 11 22
48 30 123 30 355 39 517 21z m-6202 -307 c4 -3 -38 -49 -92 -102 -85 -83 -104
-108 -141 -184 -41 -86 -296 -839 -320 -948 -7 -33 -11 -97 -8 -160 4 -89 8
-112 32 -158 41 -80 150 -182 243 -228 74 -36 81 -38 177 -38 93 0 106 3 166
31 133 64 233 161 295 284 43 87 291 836 307 928 11 67 10 87 -13 222 l-26
149 40 -22 c69 -39 200 -151 271 -233 164 -188 270 -400 323 -647 26 -117 25
-428 0 -547 -121 -569 -564 -995 -1137 -1096 -114 -20 -336 -19 -458 2 -579
98 -1037 556 -1137 1138 -20 115 -20 347 0 462 100 584 557 1038 1145 1139 79
14 322 20 333 8z m6287 -18 c560 -124 989 -569 1085 -1129 20 -115 20 -347 0
-462 -74 -429 -348 -805 -733 -1002 -205 -106 -403 -153 -639 -153 -214 1
-401 41 -583 127 -362 172 -641 496 -745 867 -9 32 -15 61 -12 64 3 2 56 -22
119 -55 165 -88 194 -94 461 -88 769 17 829 20 892 44 119 44 246 153 303 260
30 57 32 65 32 171 0 108 -1 113 -39 196 -47 101 -95 182 -290 490 -285 450
-282 447 -533 589 -27 15 -48 29 -48 31 0 8 144 47 220 61 102 18 408 12 510
-11z m-5295 -44 c71 -41 278 -258 354 -371 104 -156 177 -316 221 -484 18 -74
20 -109 20 -455 0 -401 -1 -412 -54 -573 -81 -245 -267 -530 -457 -698 -81
-71 -210 -162 -309 -218 -56 -32 -200 -94 -200 -87 0 2 -18 -2 -40 -10 -22 -8
-40 -12 -40 -10 0 2 -15 -1 -32 -6 -18 -5 -61 -12 -95 -14 -91 -6 -81 13 30
59 138 58 288 138 380 203 111 78 308 277 387 391 127 180 236 425 280 627 16
75 20 129 20 328 0 263 -7 315 -65 492 -83 255 -204 446 -437 692 -50 53 -58
66 -58 100 0 38 14 63 35 63 5 0 33 -13 60 -29z m-2998 -873 c-3 -8 -6 -5 -6
6 -1 11 2 17 5 13 3 -3 4 -12 1 -19z m9910 0 c-3 -8 -6 -5 -6 6 -1 11 2 17 5
13 3 -3 4 -12 1 -19z m-9875 -1008 c202 -640 696 -1121 1350 -1314 46 -14 79
-25 73 -25 -34 -2 -376 55 -510 84 -358 80 -392 85 -522 92 -102 5 -133 9
-133 20 0 9 -14 13 -45 13 l-45 0 0 40 c0 27 -5 43 -15 46 -12 5 -15 26 -15
106 0 104 -11 168 -80 478 -43 195 -63 304 -85 470 -15 113 -17 143 -8 105 3
-11 19 -63 35 -115z m9875 108 c-3 -8 -6 -5 -6 6 -1 11 2 17 5 13 3 -3 4 -12
1 -19z m-12 -90 c-9 -97 -45 -295 -89 -498 -20 -91 -43 -196 -51 -234 -9 -40
-15 -122 -15 -197 0 -79 -4 -129 -10 -129 -5 0 -10 -20 -10 -45 0 -38 -3 -45
-20 -45 -11 0 -20 -7 -20 -15 0 -12 -18 -15 -102 -15 -149 0 -251 -14 -501
-69 -242 -54 -427 -87 -534 -96 l-68 -6 135 46 c544 186 958 568 1187 1095 23
52 54 137 70 187 15 51 30 93 32 93 2 0 0 -33 -4 -72z m-3392 -48 c14 -11 58
-77 96 -145 233 -412 484 -636 909 -810 50 -21 92 -42 92 -47 0 -12 -44 -28
-48 -17 -2 4 -9 6 -16 3 -28 -11 -243 48 -335 92 -188 88 -386 238 -530 399
-53 60 -151 202 -209 305 -38 69 -84 203 -76 224 9 24 85 21 117 -4z m-4973
-1015 c0 -8 -4 -15 -10 -15 -5 0 -10 7 -10 15 0 8 5 15 10 15 6 0 10 -7 10
-15z m744 0 c-4 -8 -8 -15 -10 -15 -2 0 -4 7 -4 15 0 8 4 15 10 15 5 0 7 -7 4
-15z m5366 0 c0 -8 -2 -15 -4 -15 -2 0 -6 7 -10 15 -3 8 -1 15 4 15 6 0 10 -7
10 -15z m737 -7 c-3 -8 -6 -5 -6 6 -1 11 2 17 5 13 3 -3 4 -12 1 -19z m-6020
-284 c-3 -3 -12 -4 -19 -1 -8 3 -5 6 6 6 11 1 17 -2 13 -5z m5210 0 c-3 -3
-12 -4 -19 -1 -8 3 -5 6 6 6 11 1 17 -2 13 -5z m900 0 c-3 -3 -12 -4 -19 -1
-8 3 -5 6 6 6 11 1 17 -2 13 -5z M6775 8082 c29 -32 385 -237 550 -317 145
-70 276 -127 281 -122 2 2 -25 16 -59 32 -245 112 -562 278 -677 355 -48 32
-105 63 -95 52z M4880 7189 c-47 -20 -97 -85 -86 -112 2 -7 10 3 17 21 18 43
77 72 149 72 51 0 78 -6 163 -36 59 -22 43 -6 -29 28 -71 33 -170 46 -214 27z
M5220 7086 c0 -2 8 -10 18 -17 15 -13 16 -12 3 4 -13 16 -21 21 -21 13z M7813
6033 c-14 -3 -50 -43 -100 -111 -158 -217 -429 -545 -585 -708 -43 -45 -78
-84 -78 -88 0 -3 13 -6 28 -6 15 0 155 -16 310 -35 318 -40 335 -39 402 21 37
33 44 52 149 367 69 205 111 347 111 372 -1 86 -60 161 -145 184 -41 11 -53
12 -92 4z m-104 -591 c-11 -41 -59 -118 -83 -134 -18 -13 -71 -9 -91 6 -19 13
-19 16 -3 48 9 18 54 78 100 133 l83 99 3 -54 c2 -30 -2 -74 -9 -98z M3672
9864 c-332 -56 -683 -305 -911 -647 -76 -113 -158 -289 -186 -402 -22 -86 -32
-155 -22 -155 24 0 763 153 942 195 353 83 672 183 858 268 42 20 77 34 77 31
0 -3 -20 -39 -44 -82 -72 -127 -103 -193 -140 -300 -57 -165 -73 -185 -124
-158 -15 8 -64 50 -110 95 -49 48 -105 92 -140 110 -60 30 -127 49 -121 35 4
-9 156 -242 207 -317 38 -57 115 -122 160 -135 21 -7 65 -12 97 -12 56 0 60 2
105 48 85 86 139 289 162 611 l12 166 44 50 c70 79 106 158 107 235 0 78 -19
123 -82 185 -83 84 -239 150 -423 180 -117 19 -354 18 -468 -1z m519 -287 c53
-14 115 -35 138 -46 37 -19 41 -25 41 -59 0 -68 -86 -174 -180 -222 -110 -56
-321 -117 -473 -136 -65 -8 -155 -23 -200 -33 -600 -140 -673 -133 -537 47
112 149 290 297 457 381 74 37 211 78 303 91 116 16 342 4 451 -23z M2993
8602 c3 -38 24 -124 47 -195 46 -142 70 -243 70 -300 0 -144 156 -160 441 -47
53 21 115 52 138 68 50 36 127 56 184 48 43 -7 117 -46 175 -92 l32 -27 0 46
c0 88 -30 131 -125 179 -42 22 -79 32 -125 36 -69 4 -69 5 -312 -87 -83 -32
-118 -40 -157 -38 -75 5 -84 16 -142 182 -17 50 -40 108 -51 130 -32 65 -138
165 -174 165 -4 0 -4 -31 -1 -68z M4422 8488 c24 -37 61 -49 140 -46 l73 3
-98 33 c-53 17 -104 32 -113 32 -15 0 -15 -2 -2 -22z M5653 5315 c-17 -7 -56
-34 -87 -58 -63 -52 -71 -54 -281 -61 -160 -5 -233 -22 -384 -89 -78 -35 -89
-43 -70 -48 13 -4 180 -7 370 -8 l346 -1 77 135 c42 75 76 138 76 140 0 8 -13
5 -47 -10z M2715 5168 c-238 -14 -228 -12 -248 -46 -33 -55 -23 -59 159 -67
91 -4 202 -4 247 -1 79 7 199 30 219 42 14 9 -22 45 -67 65 -44 20 -80 21
-310 7z M5496 4948 c-74 -133 -170 -387 -153 -405 12 -11 82 16 105 40 53 57
148 306 137 360 -7 32 -31 67 -46 67 -4 0 -24 -28 -43 -62z M6346 4722 c-17
-10 -62 -50 -102 -91 -84 -87 -147 -194 -193 -327 -54 -158 -39 -309 34 -342
27 -13 55 -16 55 -7 0 4 -8 20 -17 38 -24 46 -21 147 7 233 30 93 90 207 175
334 76 115 98 157 90 171 -8 12 -14 11 -49 -9z M6456 4606 l-38 -114 112 -198
c128 -226 126 -202 29 -308 -82 -89 -131 -111 -246 -111 -51 0 -92 -2 -90 -5
1 -3 19 -37 39 -76 80 -154 109 -363 90 -638 -13 -175 -36 -350 -70 -513 l-19
-93 809 0 810 0 -17 26 c-18 27 -367 574 -615 964 -340 535 -679 1069 -711
1122 -19 32 -36 58 -39 58 -3 0 -22 -51 -44 -114z m569 -854 c24 -15 45 -31
45 -35 0 -4 -41 -51 -90 -103 -242 -253 -408 -560 -490 -906 -21 -85 -26 -96
-41 -87 -9 5 -25 30 -35 55 -17 45 -17 52 0 173 10 69 17 149 15 178 l-3 52
78 63 c60 49 76 67 72 83 -14 58 -26 196 -28 323 -3 127 -1 145 15 156 9 7 17
20 17 29 0 19 91 87 117 87 10 0 45 -25 77 -55 43 -41 71 -59 112 -71 31 -9
58 -14 61 -11 5 6 -30 143 -52 200 -24 61 -18 56 35 -26 35 -55 63 -85 95
-105z m52 -426 c44 -38 38 -83 -23 -186 -28 -47 -73 -122 -98 -167 -58 -101
-103 -143 -152 -143 l-36 0 4 68 c3 57 13 86 65 194 72 149 113 212 156 239
41 24 50 24 84 -5z m322 -191 c2 -87 17 -179 42 -256 25 -75 22 -94 -18 -110
-15 -6 -37 -15 -48 -20 -11 -4 -42 -15 -70 -23 -27 -9 -97 -43 -155 -75 -73
-41 -106 -55 -108 -46 -5 20 62 214 99 287 47 94 129 216 189 282 62 67 68 64
69 -39z M3920 4495 c0 -2 62 -51 138 -109 75 -57 412 -318 747 -579 l610 -475
42 124 43 124 -69 333 c-38 182 -74 364 -81 402 -11 68 -13 71 -76 128 l-65
57 -644 0 c-355 0 -645 -2 -645 -5z m1158 -262 c67 -8 77 -22 109 -151 25
-104 32 -275 13 -287 -6 -4 -48 22 -93 56 -178 137 -367 291 -387 316 -23 29
-26 59 -7 66 18 8 303 8 365 0z M5300 4486 c0 -2 7 -6 15 -10 8 -3 15 -1 15 4
0 6 -7 10 -15 10 -8 0 -15 -2 -15 -4z M6356 4315 c-43 -116 -146 -413 -146
-423 0 -2 33 36 74 83 106 124 118 153 124 300 7 185 3 188 -52 40z M5540
3367 c0 -9 7 -65 15 -124 27 -197 44 -396 50 -573 11 -346 15 -362 75 -274
l32 45 -5 317 c-4 335 -19 478 -57 553 -23 44 -39 57 -78 65 -25 5 -32 3 -32
-9z"/>
</g>
</svg>
