<?xml version="1.0" standalone="no"?>
<!DOCTYPE svg PUBLIC "-//W3C//DTD SVG 20010904//EN"
 "http://www.w3.org/TR/2001/REC-SVG-20010904/DTD/svg10.dtd">
<svg version="1.0" xmlns="http://www.w3.org/2000/svg"
 width="2048.000000pt" height="2048.000000pt" viewBox="0 0 2048.000000 2048.000000"
 preserveAspectRatio="xMidYMid meet">
<metadata>
Created by potrace 1.13, written by Peter Selinger 2001-2015
</metadata>
<g transform="translate(0.000000,2048.000000) scale(0.192120,-0.192120)"
fill="#000000" stroke="none">
<path d="M5010 10314 c-129 -17 -362 -74 -489 -120 -164 -58 -309 -162 -386
-276 -87 -128 -99 -327 -25 -412 l28 -31 -15 -70 c-20 -98 -29 -468 -13 -593
51 -421 196 -675 423 -744 61 -18 83 -20 190 -13 67 3 174 13 237 21 63 7 123
14 133 14 15 0 17 -12 17 -113 0 -111 0 -113 -33 -162 -163 -244 -280 -612
-334 -1055 -25 -203 -25 -720 0 -940 9 -85 21 -179 26 -209 l8 -53 -74 -100
c-85 -114 -273 -312 -377 -395 -149 -121 -188 -181 -189 -288 -2 -153 122
-275 279 -275 95 0 229 88 423 277 84 83 84 83 65 104 -26 28 -67 49 -99 49
-30 0 -85 -26 -177 -86 -129 -83 -180 -100 -229 -74 -29 16 -23 36 26 89 25
26 45 52 45 56 0 4 60 69 133 144 199 205 292 339 303 438 5 44 3 52 -32 96
l-37 48 71 137 c81 158 129 270 184 432 75 222 133 497 145 688 l6 102 279 0
278 0 0 -53 c0 -139 -50 -460 -105 -672 -138 -529 -360 -952 -715 -1357 -41
-47 -41 -47 -29 -89 8 -25 20 -44 31 -47 10 -2 18 -6 18 -8 0 -2 -185 -326
-410 -720 -293 -512 -417 -737 -433 -788 l-22 -71 0 -1055 c0 -1020 1 -1057
20 -1115 10 -33 19 -64 20 -68 0 -5 -50 -22 -111 -37 -164 -43 -345 -105 -459
-159 -172 -82 -217 -129 -217 -221 0 -79 56 -152 125 -165 18 -3 424 -7 904
-8 l872 -2 30 29 c55 53 65 98 58 261 -8 187 -39 283 -117 370 -27 29 -27 33
-19 95 5 36 8 466 8 957 l0 891 131 231 c72 127 129 235 126 240 -12 19 -256
1256 -256 1298 l0 43 -90 0 c-49 0 -90 4 -90 8 0 22 64 105 119 153 198 173
427 584 585 1049 99 292 157 585 163 820 5 164 5 165 -22 213 -33 58 -121 132
-178 149 -27 8 -110 12 -227 12 -168 0 -189 -2 -232 -21 -54 -25 -178 -144
-178 -171 0 -5 -9 -17 -20 -27 -15 -13 -20 -31 -20 -69 -1 -28 -7 -80 -14
-116 -13 -63 -14 -60 -15 132 -1 144 3 214 14 262 43 183 145 416 253 576 49
73 65 89 113 113 82 41 153 46 220 15 76 -35 210 -139 259 -201 52 -64 119
-196 155 -302 15 -44 49 -168 76 -275 27 -107 74 -258 103 -335 81 -212 100
-287 176 -710 l40 -220 0 -362 0 -362 -32 -23 c-18 -12 -82 -69 -143 -127 -60
-57 -128 -116 -149 -130 l-39 -26 -281 -3 c-156 -2 -285 -7 -290 -13 -6 -5
126 -9 348 -9 l358 0 -9 -33 c-18 -72 -4 -178 76 -582 45 -225 89 -437 97
-470 16 -64 75 -194 106 -234 10 -13 18 -30 18 -37 0 -20 100 -170 152 -229
24 -27 142 -174 263 -325 438 -552 429 -543 595 -599 36 -12 85 -33 110 -46
l45 -24 -50 -1 c-49 0 -51 -1 -129 -82 -396 -412 -798 -1062 -872 -1408 -21
-102 8 -174 90 -217 36 -19 106 -19 142 0 16 9 307 294 646 634 538 539 617
623 623 655 14 77 -28 144 -162 259 -92 79 -154 118 -225 142 -9 3 -29 32 -44
63 -18 38 -210 286 -547 708 -286 358 -526 662 -534 676 -7 14 -62 275 -123
580 -61 305 -113 565 -116 576 -5 18 1 24 33 34 93 31 166 84 211 155 l25 40
-2 310 c-2 308 -2 311 -37 495 -33 175 -128 738 -139 825 -7 52 70 -126 195
-451 118 -306 169 -457 230 -674 71 -251 80 -308 80 -507 0 -160 -2 -175 -20
-193 -11 -11 -20 -27 -20 -35 0 -8 -7 -15 -15 -15 -8 0 -15 6 -15 13 0 8 -10
19 -22 26 -13 6 -32 30 -42 52 -32 65 -79 98 -160 113 l-38 7 6 -138 c6 -119
10 -145 32 -190 49 -103 152 -160 268 -151 76 6 130 33 183 90 64 70 77 125
70 287 -12 246 -61 507 -143 762 -118 369 -327 796 -564 1149 -75 113 -77 117
-104 240 -159 733 -370 1029 -762 1072 -168 18 -280 -18 -402 -127 -34 -31
-62 -53 -62 -48 0 4 7 30 15 57 31 103 10 200 -53 245 -42 29 -117 44 -192 37
-36 -4 -118 -7 -182 -7 -108 -1 -120 1 -166 26 -181 98 -269 344 -279 780 -5
232 -12 254 -97 345 -44 47 -48 55 -31 58 11 2 34 17 50 32 91 85 210 130 345
130 131 0 131 0 161 -116 105 -399 143 -531 154 -543 18 -19 61 -7 90 25 13
14 35 59 49 101 14 41 37 90 50 108 78 101 273 101 354 -1 59 -74 89 -217 61
-291 -5 -15 -32 -62 -59 -103 -59 -91 -74 -145 -68 -253 7 -134 59 -226 171
-298 69 -45 153 -74 259 -89 97 -14 128 -2 204 77 217 225 374 645 374 998 0
321 -98 548 -335 779 -254 248 -597 346 -1015 290z m326 -284 c236 -21 411
-99 563 -251 73 -73 111 -127 146 -201 25 -52 25 -56 25 -347 l0 -293 -35
-105 c-62 -185 -148 -329 -220 -370 -50 -28 -115 -29 -173 -3 -52 24 -62 47
-62 148 0 62 5 88 26 132 58 124 64 149 64 271 0 114 0 116 -39 197 -51 104
-159 218 -247 259 -50 24 -72 28 -145 28 -79 0 -91 -3 -160 -38 -41 -20 -79
-37 -85 -37 -20 0 -41 35 -79 134 -34 90 -45 107 -115 180 -49 51 -98 91 -133
109 -72 36 -82 49 -58 71 41 37 323 102 501 116 52 4 100 8 105 8 6 1 60 -3
121 -8z m-105 -6001 c66 -328 71 -361 67 -455 -3 -93 -6 -104 -31 -135 -56
-69 -119 -172 -182 -298 l-65 -130 0 -875 c0 -577 3 -876 10 -876 6 0 10 -6
10 -14 0 -8 4 -16 8 -18 4 -1 20 -23 35 -48 15 -25 39 -60 53 -77 l27 -33 -29
0 c-165 0 -536 -40 -781 -83 -73 -13 -133 -22 -133 -21 0 2 15 25 34 51 52 73
96 172 96 215 0 21 5 38 10 38 7 0 10 316 10 928 0 874 1 931 19 992 25 88 35
108 334 630 316 554 351 609 387 622 29 10 49 -61 121 -413z m2486 -2165 c56
-32 66 -51 47 -90 -17 -35 -665 -684 -682 -684 -25 0 -9 48 61 189 40 80 80
164 90 186 39 91 293 395 351 421 38 16 78 10 133 -22z m-2657 -1049 c20 -18
22 -28 18 -92 -2 -39 -6 -75 -10 -79 -13 -12 -770 11 -795 24 -34 19 -11 46
62 77 95 39 181 55 425 81 176 18 272 14 300 -11z M5523 3422 c-9 -6 -7 -30 7
-102 22 -113 39 -163 75 -220 30 -48 1128 -1424 1184 -1484 35 -37 145 -116
163 -116 15 0 8 90 -13 181 -23 98 -59 162 -163 289 -34 41 -79 100 -100 130
-22 30 -218 278 -437 551 -219 273 -416 525 -438 560 -82 130 -119 174 -164
197 -45 22 -92 28 -114 14z"/>
</g>
</svg>
