<?xml version="1.0" standalone="no"?>
<!DOCTYPE svg PUBLIC "-//W3C//DTD SVG 20010904//EN"
 "http://www.w3.org/TR/2001/REC-SVG-20010904/DTD/svg10.dtd">
<svg version="1.0" xmlns="http://www.w3.org/2000/svg"
 width="2048.000000pt" height="2048.000000pt" viewBox="0 0 2048.000000 2048.000000"
 preserveAspectRatio="xMidYMid meet">
<metadata>
Created by potrace 1.13, written by Peter Selinger 2001-2015
</metadata>
<g transform="translate(0.000000,2048.000000) scale(0.192120,-0.192120)"
fill="#000000" stroke="none">
<path d="M5065 10323 c-688 -41 -1306 -201 -1910 -492 -1321 -639 -2295 -1824
-2665 -3246 -264 -1014 -198 -2105 187 -3085 400 -1020 1146 -1898 2093 -2464
1146 -685 2540 -882 3835 -541 569 150 1143 418 1619 759 1239 886 2000 2254
2096 3766 105 1672 -638 3285 -1980 4302 -257 194 -504 345 -805 493 -603 297
-1215 460 -1890 505 -137 9 -457 11 -580 3z m575 -243 c382 -26 702 -83 1070
-190 305 -89 543 -176 729 -266 745 -360 1395 -927 1868 -1629 407 -604 673
-1320 767 -2063 19 -149 23 -1000 5 -1160 -79 -726 -340 -1444 -757 -2082
-541 -830 -1436 -1536 -2307 -1823 -636 -209 -1101 -289 -1685 -289 -583 0
-1054 81 -1675 287 -877 291 -1742 975 -2313 1830 -182 274 -370 640 -486 951
-131 351 -219 708 -266 1088 -20 156 -21 206 -18 650 4 437 6 494 27 626 127
830 424 1541 914 2195 305 406 794 863 1217 1137 325 210 597 344 925 455 686
233 1346 327 1985 283z M4995 9763 c-95 -7 -374 -44 -477 -64 -745 -144 -1355
-425 -1972 -909 l-102 -79 950 -950 949 -950 -31 -35 c-80 -91 -45 -179 165
-411 59 -66 198 -208 307 -315 110 -107 392 -387 628 -622 396 -395 462 -458
492 -465 6 -1 33 -10 60 -19 47 -17 51 -17 84 2 20 10 44 31 55 46 l20 27
-121 128 c-66 70 -465 472 -886 892 l-766 763 71 78 c116 129 266 255 376 316
112 63 163 74 351 75 l167 1 -65 14 c-217 47 -385 226 -451 479 -29 112 -28
298 1 410 51 199 172 360 327 437 79 39 92 43 182 46 79 3 107 0 160 -18 183
-61 333 -240 391 -465 29 -111 29 -298 1 -410 -65 -253 -234 -432 -451 -479
l-65 -14 166 -1 c189 -1 243 -13 382 -82 99 -50 300 -186 430 -291 215 -173
588 -520 628 -584 11 -19 88 -235 170 -481 126 -380 149 -457 149 -508 0 -79
-32 -148 -95 -203 -113 -99 -264 -94 -371 13 l-51 51 -137 412 -138 412 -149
143 c-82 78 -154 144 -160 145 -6 3 -8 -226 -7 -655 l3 -658 1273 -1270 1272
-1271 103 130 c516 657 826 1405 932 2246 22 172 31 656 16 846 -45 569 -184
1088 -426 1589 -342 711 -877 1329 -1530 1766 -627 419 -1308 661 -2069 734
-145 14 -587 19 -741 8z m607 -263 c1190 -80 2250 -615 2999 -1512 459 -551
760 -1205 884 -1923 25 -145 25 -152 25 -730 0 -537 -2 -592 -20 -702 -94
-555 -281 -1054 -567 -1511 -143 -228 -201 -302 -237 -302 -12 0 -37 9 -56 20
-19 12 -518 505 -1107 1096 l-1073 1076 0 70 c0 94 15 89 101 -32 237 -333
514 -388 757 -152 81 78 153 184 187 277 34 89 34 204 0 335 -36 143 -248 767
-284 837 -86 172 -339 440 -688 730 -126 105 -206 164 -393 291 -112 76 -114
81 -63 218 61 163 65 193 61 414 -4 183 -5 200 -32 275 -61 172 -135 295 -258
426 -100 106 -227 187 -354 225 -79 24 -229 24 -309 0 -219 -65 -443 -269
-561 -511 -84 -173 -97 -237 -92 -473 4 -192 5 -199 37 -292 18 -52 37 -99 41
-105 18 -22 30 -93 21 -118 -14 -36 -269 -237 -301 -237 -14 0 -41 9 -60 21
-49 29 -1404 1387 -1424 1427 -10 18 -14 41 -11 52 7 21 158 126 321 223 740
437 1607 644 2456 587z M1867 8111 c-528 -666 -834 -1387 -948 -2231 -27 -202
-37 -661 -19 -888 99 -1282 734 -2439 1765 -3219 584 -441 1317 -744 2040
-842 233 -32 370 -41 631 -41 1020 0 1959 330 2774 976 l105 84 -359 362 -358
363 6 97 c6 89 4 102 -18 152 -13 30 -43 83 -67 118 -27 41 -396 418 -1043
1068 -551 552 -1025 1026 -1055 1053 -123 112 -246 166 -307 134 -16 -8 -40
-27 -53 -41 l-24 -26 1190 -1192 1191 -1193 115 -197 c64 -108 122 -216 131
-241 68 -200 -21 -410 -212 -504 -73 -37 -80 -38 -182 -38 -102 0 -109 1 -182
38 -51 25 -91 53 -120 86 -25 28 -333 543 -735 1227 -380 649 -704 1200 -718
1227 l-27 47 -41 -25 c-23 -14 -223 -129 -444 -256 l-403 -231 0 -864 c0 -970
1 -953 -69 -1061 -48 -74 -98 -118 -181 -157 -60 -29 -73 -31 -170 -31 -94 0
-111 3 -164 28 -81 38 -141 89 -187 159 -71 111 -69 77 -69 1191 0 624 4 1014
10 1048 15 78 62 167 117 221 35 34 192 129 593 358 299 171 546 313 548 315
2 2 1 17 -3 33 -4 21 -94 118 -322 346 l-316 317 -31 -12 c-17 -7 -265 -129
-551 -272 -576 -288 -577 -288 -686 -252 -73 25 -149 101 -174 174 -33 101 1
232 79 298 16 14 237 128 490 255 l460 230 87 -93 c48 -52 140 -143 204 -204
l118 -109 33 38 c52 60 53 93 10 181 -64 130 -248 275 -348 275 -22 0 -52 -11
-81 -31 l-47 -31 -98 90 c-53 50 -481 475 -949 944 l-853 854 -83 -105z m146
-297 c33 -17 1141 -1115 1298 -1286 49 -54 89 -104 89 -111 0 -27 -37 -55
-145 -110 -201 -100 -336 -177 -396 -223 -90 -69 -204 -205 -245 -292 -35 -74
-36 -76 -32 -191 3 -101 6 -123 30 -174 74 -157 196 -290 327 -355 71 -35 80
-37 170 -36 130 1 175 18 688 273 230 114 431 211 446 215 43 10 86 -16 181
-112 87 -87 102 -118 74 -146 -22 -20 -132 -86 -378 -226 -129 -73 -267 -155
-307 -181 -180 -121 -329 -302 -389 -471 -12 -34 -14 -217 -14 -1139 l0 -1098
26 -71 c75 -209 259 -411 442 -485 159 -65 350 -46 502 50 62 39 164 138 215
210 49 68 107 180 125 240 32 107 34 146 39 914 l6 784 180 105 c99 57 213
120 253 139 64 31 75 34 100 23 15 -6 37 -24 49 -39 12 -15 270 -451 573 -967
304 -516 579 -982 611 -1036 147 -238 287 -369 465 -434 56 -20 74 -31 74 -45
0 -20 -56 -60 -119 -86 -20 -8 -54 -23 -76 -33 -133 -60 -452 -155 -673 -199
-914 -186 -1834 -80 -2677 307 -449 206 -852 488 -1211 846 -318 319 -539 624
-760 1051 -205 397 -336 810 -409 1296 -14 89 -16 189 -13 655 4 548 4 549 31
694 76 406 179 724 347 1075 130 271 355 624 424 666 38 23 39 23 79 3z m5787
-5858 c0 -8 -4 -18 -10 -21 -5 -3 -10 3 -10 14 0 12 5 21 10 21 6 0 10 -6 10
-14z"/>
</g>
</svg>
