<?xml version="1.0" standalone="no"?>
<!DOCTYPE svg PUBLIC "-//W3C//DTD SVG 20010904//EN"
 "http://www.w3.org/TR/2001/REC-SVG-20010904/DTD/svg10.dtd">
<svg version="1.0" xmlns="http://www.w3.org/2000/svg"
 width="2048.000000pt" height="2048.000000pt" viewBox="0 0 2048.000000 2048.000000"
 preserveAspectRatio="xMidYMid meet">
<metadata>
Created by potrace 1.13, written by Peter Selinger 2001-2015
</metadata>
<g transform="translate(0.000000,2048.000000) scale(0.192120,-0.192120)"
fill="#000000" stroke="none">
<path d="M3672 9864 c-332 -56 -683 -305 -911 -647 -76 -113 -158 -289 -186
-402 -22 -85 -32 -155 -22 -155 21 0 756 151 922 190 403 93 716 193 895 285
146 76 259 216 278 346 l7 51 63 -111 c35 -61 68 -113 73 -117 6 -3 14 -16 19
-29 21 -54 262 -186 450 -245 106 -34 130 -45 130 -60 0 -38 -126 -107 -301
-167 -83 -27 -87 -28 -324 -28 l-240 0 -123 43 c-138 48 -274 72 -407 72 l-90
-1 76 -25 c42 -14 129 -55 195 -90 354 -191 405 -209 604 -208 230 1 457 59
679 174 214 111 436 300 496 425 52 104 17 121 -154 76 -341 -90 -555 -46
-896 184 -71 49 -162 103 -201 121 -56 26 -74 40 -84 64 -18 43 -89 112 -153
149 -73 41 -215 87 -327 106 -117 19 -354 18 -468 -1z m394 -274 c159 -20 308
-74 325 -117 12 -33 -9 -81 -52 -116 -68 -56 -278 -140 -454 -180 -276 -64
-812 -177 -867 -182 -58 -6 -67 -5 -76 12 -21 39 53 150 183 271 180 168 371
270 566 302 41 6 81 13 89 15 37 7 213 4 286 -5z M2965 8619 c49 -137 171
-278 320 -368 174 -106 427 -137 609 -75 l48 17 62 -62 c34 -33 65 -61 69 -61
10 0 8 68 -4 120 -6 25 -22 58 -37 74 -53 56 -109 66 -297 51 -171 -14 -304
39 -547 217 -67 48 -177 111 -215 123 -22 6 -22 6 -8 -36z M5080 8505 c-352
-51 -627 -176 -841 -382 -172 -166 -248 -321 -280 -571 -6 -48 -14 -217 -19
-377 -4 -159 -11 -300 -15 -312 -6 -19 -2 -23 21 -29 58 -14 650 -183 692
-198 l42 -15 15 37 c35 82 66 213 75 311 16 174 64 237 180 235 125 -3 236
-71 444 -271 324 -314 482 -429 634 -465 29 -7 51 -16 50 -19 -2 -4 -171 -132
-376 -285 l-372 -278 222 -223 c178 -178 225 -220 233 -209 9 12 99 -52 469
-330 251 -189 461 -344 466 -344 4 0 81 78 171 174 142 153 166 174 188 170
14 -2 153 -20 308 -40 318 -40 336 -39 403 22 37 33 44 52 149 367 69 205 111
347 111 372 -1 54 -31 117 -72 148 -32 25 -108 49 -132 42 -68 -20 -68 -21 19
110 138 208 225 405 240 542 14 125 -51 305 -158 433 -63 77 -154 155 -252
218 -87 56 -83 52 -64 63 9 5 58 41 109 80 l93 72 -104 37 c-281 99 -498 208
-904 453 -165 100 -342 203 -393 229 -221 112 -503 196 -785 233 -141 18 -444
18 -567 0z m527 -240 c262 -34 512 -107 722 -211 69 -34 234 -127 366 -206
291 -175 432 -254 590 -328 118 -56 178 -93 243 -147 l32 -28 -84 -67 c-120
-96 -434 -326 -615 -452 -413 -286 -629 -399 -729 -380 -32 6 -33 8 -27 43 7
45 -15 121 -49 165 -14 19 -70 67 -123 107 -100 73 -179 141 -332 283 -323
298 -479 396 -636 396 -91 0 -138 -22 -222 -102 -119 -114 -191 -222 -208
-309 -4 -19 -19 -49 -35 -67 l-28 -34 -136 38 -136 37 0 296 c0 331 5 365 65
486 74 148 175 254 310 327 97 53 126 63 135 48 6 -10 38 -5 151 24 161 40
254 56 347 56 55 0 62 2 62 20 0 19 7 20 109 20 61 0 163 -7 228 -15z m2015
-1170 c43 -34 162 -175 187 -222 7 -13 11 -75 11 -157 0 -153 -4 -170 -95
-386 -75 -178 -81 -200 -61 -238 9 -17 36 -43 61 -58 27 -15 42 -31 38 -37
-77 -136 -597 -767 -632 -767 -6 0 -29 12 -51 26 -71 47 -131 30 -257 -74 -86
-71 -104 -82 -138 -82 -45 1 -89 29 -330 210 -353 265 -473 339 -581 359 -105
20 -104 15 -31 118 67 94 227 306 375 496 l83 107 67 0 c162 1 328 92 870 480
409 293 401 289 484 225z m3 -1685 c-17 -33 -48 -50 -77 -42 -31 8 -20 45 35
110 l52 63 3 -50 c2 -32 -3 -61 -13 -81z M3891 6742 c-81 -225 -250 -478 -495
-745 -50 -54 -92 -102 -94 -106 -5 -14 88 -33 122 -25 75 16 147 73 262 209
113 133 244 343 274 439 19 60 16 134 -10 212 -12 38 -25 72 -29 76 -3 4 -17
-23 -30 -60z M4655 6601 c-3 -6 -43 -32 -88 -60 -118 -71 -165 -116 -247 -236
-79 -117 -123 -172 -279 -350 -201 -230 -353 -360 -641 -550 -178 -118 -211
-144 -237 -192 -15 -27 -17 -93 -3 -93 22 0 151 54 230 97 325 176 810 604
1011 893 94 134 219 362 254 460 13 38 13 52 0 31z M1928 5876 c-128 -34 -208
-141 -208 -275 1 -102 66 -200 165 -247 47 -22 62 -24 223 -24 l172 0 0 42 c0
55 32 120 76 153 73 56 214 84 429 85 105 1 161 20 265 90 68 45 240 179 240
186 0 2 -296 4 -657 3 -497 0 -669 -3 -705 -13z M5315 5670 c-306 -230 -535
-485 -535 -595 l0 -25 -788 0 -787 0 -38 26 -38 25 -82 -21 c-150 -40 -582
-37 -680 3 -49 21 -74 52 -87 108 -10 43 -14 47 -30 39 -10 -6 -29 -10 -42
-10 -21 0 -136 27 -194 46 -32 10 23 -34 396 -313 195 -146 359 -269 364 -273
4 -5 -24 -107 -64 -227 -39 -120 -74 -224 -76 -232 -3 -11 10 -12 66 -9 60 3
73 7 101 33 38 36 69 103 105 227 40 135 38 203 -9 297 -20 40 -37 84 -37 96
0 21 6 24 66 30 89 10 144 2 238 -35 72 -29 96 -33 250 -42 93 -5 420 -8 725
-6 628 5 588 0 741 88 l91 53 166 9 c178 10 183 9 183 -39 0 -39 -50 -151 -82
-182 l-29 -29 -497 5 c-522 6 -636 0 -715 -35 -86 -39 -187 -154 -187 -214 0
-15 11 -52 25 -81 45 -98 136 -200 295 -326 52 -42 97 -78 100 -81 3 -4 23
-19 45 -35 22 -17 42 -32 45 -35 3 -4 23 -19 45 -35 22 -17 42 -32 45 -35 3
-4 23 -19 45 -35 22 -17 42 -32 45 -35 3 -4 23 -19 45 -35 22 -17 42 -32 45
-35 3 -4 23 -19 45 -35 22 -17 42 -32 45 -35 3 -4 23 -19 45 -35 22 -17 42
-32 45 -35 3 -4 23 -19 45 -35 22 -17 42 -32 45 -36 3 -3 30 -24 60 -47 30
-22 108 -81 172 -129 130 -98 205 -140 282 -157 l51 -11 3 -180 c2 -169 4
-181 23 -196 19 -14 22 -30 28 -137 4 -73 12 -127 19 -134 7 -7 12 -20 12 -30
0 -26 24 -60 68 -95 l37 -30 -7 216 c-9 262 -20 401 -54 675 l-27 209 39 36
c62 57 67 73 62 207 -4 91 -16 172 -52 344 -72 342 -85 372 -184 426 l-57 32
3 48 c1 27 14 84 28 127 31 92 154 345 254 518 l71 124 -27 3 c-42 5 -104 -44
-136 -107 -16 -30 -28 -65 -28 -77 0 -13 -4 -34 -10 -48 l-10 -26 -285 0
c-168 0 -285 4 -285 9 0 5 12 19 28 31 15 12 61 54 102 93 41 40 122 115 179
167 146 133 176 188 169 314 l-3 59 -70 -53z m-41 -1227 c48 -43 66 -67 71
-93 3 -19 40 -201 80 -405 l74 -370 -42 -123 -43 -124 -55 45 c-71 57 -1156
902 -1323 1029 l-128 98 651 0 652 0 63 -57z M6986 4955 c-3 -9 -11 -59 -17
-110 -19 -157 -4 -195 174 -470 193 -298 229 -332 347 -323 33 2 63 7 66 11
12 11 -6 42 -262 444 -289 455 -299 470 -308 448z M6431 4727 c-139 -171 -284
-421 -310 -537 -25 -108 -5 -206 52 -259 l26 -24 12 29 c6 16 21 56 33 89 90
237 109 285 116 285 4 0 15 -20 24 -45 29 -76 105 -125 194 -125 l32 0 -26 53
c-15 28 -58 108 -97 177 l-69 124 38 113 c22 62 42 113 45 113 3 0 15 -17 27
-38 12 -21 86 -140 165 -263 79 -123 196 -307 261 -409 65 -102 124 -191 131
-199 11 -11 18 -6 44 29 20 28 31 55 31 76 0 90 -257 555 -356 644 -22 20 -77
62 -124 94 -47 33 -108 79 -137 103 l-51 43 -61 -73z M3225 4453 c-109 -59
-185 -170 -185 -270 0 -52 3 -63 28 -85 28 -27 64 -48 80 -48 6 0 29 59 53
130 23 72 46 130 50 130 4 0 42 -28 86 -63 67 -55 1875 -1459 1880 -1462 1 0
-37 -106 -83 -235 -80 -219 -85 -239 -81 -295 7 -97 64 -182 149 -226 70 -36
68 -39 62 149 l-6 167 61 174 c73 209 76 247 30 330 -54 97 -138 188 -263 289
-66 53 -123 99 -126 102 -3 3 -23 18 -45 35 -22 16 -42 31 -45 35 -3 3 -23 18
-45 35 -22 16 -42 31 -45 35 -3 3 -23 18 -45 35 -22 16 -42 31 -45 35 -3 3
-23 18 -45 35 -22 16 -42 31 -45 35 -3 3 -23 18 -45 35 -22 16 -42 31 -45 35
-3 3 -23 18 -45 35 -22 16 -42 31 -45 35 -3 3 -23 18 -45 35 -22 16 -42 31
-45 35 -3 3 -23 18 -45 35 -22 16 -42 31 -45 35 -3 3 -23 19 -45 35 -22 16
-47 35 -55 42 -22 18 -219 169 -435 334 -233 179 -275 207 -345 236 -65 27
-94 28 -135 6z M2078 4210 c-373 -40 -756 -200 -1038 -435 -571 -477 -822
-1213 -660 -1935 32 -142 74 -260 144 -406 156 -323 378 -578 677 -779 106
-72 337 -185 454 -223 373 -123 787 -132 1153 -27 535 154 981 532 1221 1035
254 532 251 1157 -8 1685 -172 351 -444 642 -783 838 -45 26 -85 47 -88 47 -7
0 -184 -530 -178 -534 1 -1 28 -18 58 -37 156 -97 332 -279 433 -446 94 -157
162 -348 188 -531 15 -107 6 -372 -16 -469 -126 -568 -565 -989 -1134 -1088
-110 -20 -344 -19 -457 0 -583 100 -1039 556 -1139 1139 -19 113 -20 347 0
457 99 570 522 1010 1090 1135 56 13 135 19 265 21 l184 2 88 262 c49 144 87
263 85 265 -21 22 -399 38 -539 24z m1550 -945 c13 -15 30 -42 38 -59 7 -17
14 -26 14 -21 2 18 19 -30 19 -55 0 -24 0 -24 -14 -5 -8 11 -18 25 -23 30 -4
6 -36 53 -71 105 -35 52 -69 99 -77 103 -8 4 -14 15 -14 24 0 15 57 -39 128
-122z m-2655 23 c-15 -24 -30 -45 -33 -48 -3 -3 -23 -32 -45 -65 -33 -50 -40
-56 -43 -38 -5 34 23 83 86 152 61 68 80 68 35 -1z m-20 -1992 c61 -91 75
-116 63 -116 -16 0 -125 129 -150 177 -9 18 -16 44 -16 59 l0 27 18 -24 c11
-13 49 -69 85 -123z m2720 65 c-19 -38 -82 -124 -96 -129 -4 -2 -14 -10 -22
-19 -8 -8 -15 -11 -15 -7 0 10 43 79 52 82 4 2 8 10 8 18 0 8 7 17 15 20 8 4
15 13 15 21 0 7 11 25 25 39 14 14 26 30 26 37 1 7 3 4 6 -7 3 -10 -3 -35 -14
-55z m-146 -183 c-3 -8 -6 -5 -6 6 -1 11 2 17 5 13 3 -3 4 -12 1 -19z m-2471
-36 c-9 -8 -26 10 -26 26 1 15 2 15 15 -2 8 -11 13 -21 11 -24z M8190 4209
c-47 -5 -132 -18 -190 -30 -107 -21 -367 -102 -397 -124 -15 -11 -6 -29 83
-166 77 -118 187 -293 199 -316 1 -1 33 9 73 22 145 49 224 60 427 60 146 0
210 -4 275 -18 569 -122 996 -564 1095 -1136 9 -47 15 -146 15 -226 0 -327
-93 -598 -296 -860 -205 -266 -522 -453 -862 -510 -82 -14 -140 -16 -275 -12
-183 5 -292 26 -440 81 -414 157 -737 513 -851 936 l-23 85 -281 3 c-155 1
-282 0 -282 -3 0 -28 58 -262 86 -345 133 -398 409 -758 764 -994 636 -424
1484 -432 2125 -19 413 267 720 694 835 1166 113 459 60 935 -151 1347 -107
210 -216 357 -390 525 -290 280 -640 455 -1039 520 -118 19 -387 27 -500 14z
m1539 -934 c40 -43 81 -118 81 -146 l0 -23 -17 24 c-9 14 -23 31 -30 38 -7 7
-13 17 -13 22 0 5 -22 39 -50 75 -27 36 -50 70 -50 74 0 5 -7 11 -15 15 -8 3
-15 13 -15 23 0 13 12 5 41 -27 23 -25 53 -58 68 -75z m-2635 -2023 c26 -40
47 -75 45 -77 -7 -6 -55 41 -103 101 -25 32 -51 64 -55 70 -9 11 -14 45 -12
73 1 14 34 -30 125 -167z m2705 141 c-22 -58 -124 -192 -136 -179 -6 6 36 80
64 112 10 12 29 40 43 62 27 44 45 47 29 5z m-153 -210 c-10 -10 -19 5 -10 18
6 11 8 11 12 0 2 -7 1 -15 -2 -18z m-2476 -33 c9 -16 8 -18 -5 -14 -8 4 -15
12 -15 20 0 20 7 17 20 -6z M6664 4101 c-17 -10 -42 -34 -54 -53 -35 -50 -91
-107 -130 -133 -54 -34 -102 -46 -183 -46 l-74 0 38 -72 c78 -150 112 -380 91
-623 -6 -76 -10 -140 -7 -142 8 -8 248 173 369 280 39 34 39 34 23 64 -17 34
-77 90 -112 106 -34 15 -55 70 -55 143 0 61 1 65 30 80 46 24 63 18 116 -39
40 -43 65 -59 126 -82 l75 -29 -57 -75 c-205 -269 -341 -577 -395 -893 l-6
-37 282 2 282 3 27 95 c61 213 150 376 299 548 l71 82 -48 73 c-27 39 -88 135
-137 212 -48 77 -94 151 -102 164 l-15 23 -73 -72 -73 -73 -12 44 c-66 255
-122 385 -191 443 -36 31 -63 33 -105 7z m407 -751 c22 -12 25 -47 6 -81 -21
-41 -127 -198 -137 -204 -6 -4 -10 47 -10 134 0 123 2 141 18 150 22 14 98 14
123 1z M2210 2954 c-210 -628 -212 -637 -208 -704 13 -183 192 -295 371 -234
49 16 122 79 145 124 7 14 107 309 222 655 l210 630 -56 3 c-72 4 -120 -19
-159 -78 -20 -30 -82 -199 -184 -500 -189 -559 -208 -600 -277 -600 -18 0 -36
5 -39 11 -4 6 -7 45 -6 88 1 70 12 108 126 451 205 611 222 687 174 739 -20
22 -77 51 -98 51 -5 0 -105 -286 -221 -636z M7882 3485 c-18 -19 -35 -47 -38
-61 -18 -70 74 -275 231 -516 224 -344 350 -545 362 -581 12 -35 12 -43 -5
-76 -34 -67 -15 -65 -652 -65 -554 -1 -576 -2 -614 -21 -51 -26 -73 -58 -82
-117 l-6 -48 648 -1 c357 -1 667 -1 689 0 91 6 187 76 225 163 27 62 30 155 8
208 -20 45 -695 1106 -728 1143 -4 4 -21 -8 -38 -28z M7483 3240 c-28 -11 -28
-14 -1 -59 49 -81 285 -452 340 -533 32 -48 58 -90 58 -93 0 -3 -181 -5 -401
-5 l-402 0 6 -49 c8 -69 32 -110 75 -129 55 -25 551 -25 632 0 61 19 130 71
179 135 28 37 33 51 32 97 -1 87 -55 201 -196 415 -86 130 -137 187 -192 215
-35 17 -95 20 -130 6z M6255 2986 c-18 -8 -40 -31 -55 -57 -22 -39 -25 -58
-28 -175 l-4 -130 32 -27 c54 -46 64 -39 84 66 25 128 46 266 46 305 0 27 -4
32 -22 32 -13 -1 -36 -7 -53 -14z M6255 2508 c-3 -24 -9 -57 -12 -74 l-5 -32
44 13 c23 8 60 16 80 20 41 6 68 42 68 90 0 25 -1 25 -84 25 l-84 0 -7 -42z
M6178 2285 c-114 -97 -194 -135 -284 -135 -64 0 -164 35 -229 81 l-58 41 -354
-354 c-195 -194 -382 -387 -415 -428 -67 -82 -108 -159 -108 -203 0 -41 46
-83 111 -101 245 -68 604 10 1065 233 176 86 454 241 509 285 l27 22 -11 144
c-26 322 -76 460 -168 460 -24 0 -46 -12 -85 -45z m40 -342 c4 -66 -7 -78
-149 -157 -282 -157 -540 -268 -722 -311 -197 -46 -213 -23 -80 118 48 51 121
134 162 183 111 133 151 172 182 179 16 4 67 -5 126 -21 141 -38 233 -32 364
24 52 23 99 40 104 38 6 -1 11 -25 13 -53z"/>
</g>
</svg>
