<?xml version="1.0" standalone="no"?>
<!DOCTYPE svg PUBLIC "-//W3C//DTD SVG 20010904//EN"
 "http://www.w3.org/TR/2001/REC-SVG-20010904/DTD/svg10.dtd">
<svg version="1.0" xmlns="http://www.w3.org/2000/svg"
 width="2048.000000pt" height="2048.000000pt" viewBox="0 0 2048.000000 2048.000000"
 preserveAspectRatio="xMidYMid meet">
<metadata>
Created by potrace 1.13, written by Peter Selinger 2001-2015
</metadata>
<g transform="translate(0.000000,2048.000000) scale(0.192120,-0.192120)"
fill="#000000" stroke="none">
<path d="M3672 9864 c-332 -56 -683 -305 -911 -647 -76 -113 -158 -289 -186
-402 -22 -87 -32 -155 -21 -155 2 0 160 31 352 69 341 68 639 135 739 165 28
9 51 16 52 16 7 0 154 -207 207 -292 114 -182 192 -235 338 -229 41 2 103 63
137 135 54 114 92 318 107 571 l7 120 44 50 c71 78 107 157 108 235 0 78 -19
123 -82 185 -83 84 -239 150 -423 180 -117 19 -354 18 -468 -1z m463 -239
c101 -21 185 -53 185 -70 0 -8 14 -23 30 -35 30 -21 30 -22 30 -122 0 -88 3
-108 27 -160 26 -59 27 -61 7 -75 -40 -32 -204 -103 -337 -147 -123 -41 -321
-96 -344 -96 -5 0 -20 25 -32 56 -44 106 -77 109 -413 40 -248 -50 -296 -54
-339 -29 -37 22 -37 49 0 100 16 22 36 53 44 70 62 119 322 332 502 410 80 35
180 61 275 73 90 12 271 4 365 -15z M2994 8581 c4 -28 25 -107 47 -177 46
-143 69 -241 69 -297 0 -98 69 -136 205 -116 119 19 290 82 380 141 106 69
210 60 334 -29 l24 -18 -7 30 c-16 66 -69 114 -162 146 -82 29 -152 22 -279
-30 -130 -52 -212 -73 -277 -69 -47 3 -55 7 -75 36 -12 19 -29 58 -38 87 -52
179 -118 290 -198 331 l-30 16 7 -51z M5065 8504 c-342 -52 -616 -179 -828
-383 -170 -164 -246 -320 -278 -569 -6 -48 -14 -217 -19 -377 -4 -159 -11
-300 -15 -312 -6 -19 -2 -23 21 -29 58 -14 650 -183 692 -198 l42 -15 15 37
c35 82 66 213 75 311 16 174 64 237 180 235 125 -3 236 -71 444 -271 324 -314
482 -429 634 -465 29 -7 51 -16 50 -19 -2 -4 -171 -132 -376 -285 l-372 -278
222 -223 c179 -179 225 -220 234 -209 8 12 96 -50 468 -330 251 -189 461 -344
466 -344 4 0 82 79 171 175 129 138 167 174 183 170 12 -2 150 -21 308 -40
324 -41 341 -40 408 21 37 33 44 52 149 367 69 205 111 347 111 372 -1 117
-108 205 -225 186 -34 -5 -45 -16 -103 -96 -134 -187 -322 -418 -509 -628
l-105 -118 -43 26 c-66 38 -119 34 -191 -14 -33 -22 -77 -56 -99 -75 -54 -48
-93 -55 -142 -25 -21 13 -128 91 -238 175 -375 284 -495 360 -622 395 -46 12
-83 28 -83 34 0 19 485 664 510 680 5 3 31 8 57 11 27 3 62 10 79 15 17 5 40
11 51 13 33 7 92 34 157 73 284 169 428 266 742 499 152 112 219 154 249 154
31 0 81 -33 143 -93 34 -34 62 -66 62 -72 0 -7 12 -22 26 -36 54 -50 64 -86
64 -232 0 -151 -4 -169 -90 -379 -28 -71 -54 -143 -57 -162 -7 -44 18 -87 68
-116 l38 -21 45 61 c125 169 246 424 267 561 36 232 -129 504 -416 684 -76 48
-73 45 -54 56 9 5 58 41 109 80 l93 72 -104 37 c-281 99 -498 208 -904 453
-165 100 -342 203 -393 229 -221 112 -503 196 -785 233 -146 19 -457 18 -582
-1z m640 -244 c247 -43 456 -109 645 -206 58 -29 233 -130 390 -224 157 -94
373 -215 480 -268 107 -53 206 -106 220 -118 14 -12 46 -40 72 -62 l46 -39
-97 -77 c-222 -175 -629 -466 -861 -614 -241 -154 -391 -220 -465 -206 -30 5
-30 6 -30 69 0 86 -30 127 -170 233 -120 91 -178 141 -360 307 -312 285 -438
365 -591 373 -102 5 -150 -14 -235 -95 -113 -108 -185 -214 -204 -303 -8 -36
-53 -100 -70 -100 -5 0 -72 17 -148 37 l-138 37 3 321 c3 309 4 322 27 380 72
183 199 326 366 411 124 64 145 71 145 49 0 -12 5 -15 18 -10 61 24 267 68
380 82 119 15 132 19 132 36 0 19 6 20 163 14 92 -3 213 -15 282 -27z m1915
-2824 c0 -30 -28 -62 -43 -47 -6 6 -2 20 12 40 27 37 31 38 31 7z M3880 6712
c-90 -224 -247 -456 -477 -708 -77 -85 -82 -92 -61 -98 53 -14 104 -6 149 23
94 60 241 236 352 420 71 117 99 191 100 261 1 53 -19 146 -33 155 -4 2 -17
-22 -30 -53z M4610 6538 c-148 -91 -168 -110 -273 -263 -65 -95 -100 -139
-288 -355 -178 -206 -376 -375 -665 -568 -101 -67 -139 -106 -149 -153 -12
-54 5 -54 106 -6 203 98 428 266 709 529 201 188 270 267 390 446 75 113 223
393 208 392 -2 0 -19 -10 -38 -22z M1928 5876 c-128 -34 -208 -141 -208 -275
1 -102 66 -200 165 -247 47 -22 62 -24 223 -24 l172 0 0 42 c0 55 32 120 76
153 73 56 214 84 429 85 105 1 161 20 265 89 63 43 240 181 240 188 0 1 -296
3 -657 2 -497 0 -669 -3 -705 -13z M5315 5670 c-191 -144 -399 -343 -471 -451
-24 -37 -50 -90 -57 -118 l-12 -51 -784 0 -785 0 -37 26 -38 26 -83 -22 c-150
-39 -567 -38 -683 3 -51 18 -73 49 -87 124 l-11 62 -25 -20 c-31 -24 -69 -24
-162 0 -41 11 -76 19 -77 17 -5 -4 233 -186 522 -400 132 -98 244 -182 249
-186 4 -5 -24 -107 -64 -227 -39 -120 -74 -224 -76 -232 -3 -11 10 -12 66 -9
60 3 73 7 101 33 38 36 69 103 103 219 38 133 42 181 16 251 -12 33 -24 76
-27 96 -4 32 -2 37 19 42 54 15 199 7 281 -15 82 -23 86 -23 802 -23 l720 0
115 38 c105 35 127 39 256 44 135 6 142 5 153 -14 19 -36 -15 -117 -63 -148
-20 -14 -86 -16 -502 -15 -493 0 -605 -6 -677 -38 -86 -39 -187 -154 -187
-214 0 -15 11 -52 25 -81 45 -98 136 -200 295 -326 52 -42 97 -78 100 -81 3
-4 23 -19 45 -35 22 -17 42 -32 45 -35 3 -4 23 -19 45 -35 22 -17 42 -32 45
-35 3 -4 23 -19 45 -35 22 -17 42 -32 45 -35 3 -4 23 -19 45 -35 22 -17 42
-32 45 -35 3 -4 23 -19 45 -35 22 -17 42 -32 45 -35 3 -4 23 -19 45 -35 22
-17 42 -32 45 -35 3 -4 23 -19 45 -35 22 -17 42 -32 45 -35 3 -4 23 -19 45
-35 22 -17 42 -32 45 -36 3 -3 59 -46 126 -95 127 -95 204 -143 267 -165 l37
-13 0 -158 c0 -87 -2 -158 -5 -158 -2 0 -19 21 -36 48 -54 78 -129 159 -209
225 -41 34 -77 64 -80 67 -3 3 -23 18 -45 35 -22 16 -42 31 -45 35 -3 3 -23
18 -45 35 -22 16 -42 31 -45 35 -3 3 -23 18 -45 35 -22 16 -42 31 -45 35 -3 3
-23 18 -45 35 -22 16 -42 31 -45 35 -3 3 -23 18 -45 35 -22 16 -42 31 -45 35
-3 3 -23 18 -45 35 -22 16 -42 31 -45 35 -3 3 -23 18 -45 35 -22 16 -42 31
-45 35 -3 3 -23 18 -45 35 -22 16 -42 31 -45 35 -3 3 -23 18 -45 35 -22 16
-42 31 -45 35 -3 3 -23 19 -45 35 -22 16 -47 35 -55 42 -22 18 -219 169 -435
334 -233 179 -275 207 -345 236 -66 27 -91 28 -133 6 -109 -56 -187 -169 -187
-270 0 -52 3 -63 28 -85 28 -27 64 -48 80 -48 6 0 29 59 53 130 23 72 46 130
50 130 4 0 42 -28 86 -63 67 -55 1875 -1459 1880 -1462 1 0 -37 -106 -83 -235
-80 -219 -85 -239 -81 -295 2 -33 14 -78 25 -100 39 -77 128 -145 188 -145 24
0 26 3 20 28 -3 15 -9 97 -12 182 l-6 155 36 95 c41 107 61 152 87 194 l17 28
16 -30 c9 -18 16 -55 16 -89 0 -54 17 -123 44 -182 6 -14 31 -38 55 -55 56
-40 89 -67 76 -64 -14 3 -763 -755 -808 -818 -46 -64 -76 -130 -77 -167 0 -41
46 -82 111 -101 245 -68 604 10 1065 233 175 85 453 241 508 285 l27 21 -11
145 c-24 324 -75 460 -169 460 -30 0 -49 -11 -106 -62 -124 -109 -236 -140
-362 -100 -86 27 -159 75 -167 110 -3 15 -10 135 -15 267 -14 344 -28 499 -75
820 l-23 160 38 37 39 38 0 95 c0 66 -10 145 -31 253 -71 367 -90 418 -171
455 -40 18 -49 27 -54 56 -10 48 11 150 52 255 39 100 167 352 263 516 33 58
61 109 61 113 0 12 -78 -2 -112 -19 -59 -31 -98 -111 -98 -204 0 -56 -1 -58
-31 -64 -40 -8 -587 -8 -617 0 -20 6 -19 8 20 33 54 35 281 215 371 295 109
98 153 187 145 297 l-3 42 -70 -53z m-35 -1237 c62 -63 68 -72 74 -123 4 -30
38 -206 77 -390 l69 -335 -43 -128 -43 -129 -54 44 c-72 58 -1157 903 -1324
1030 l-128 98 653 0 652 0 67 -67z m964 -2445 c21 -30 20 -56 -3 -94 -29 -48
-371 -235 -600 -329 -251 -103 -449 -149 -480 -111 -14 17 4 41 137 188 57 62
135 155 174 206 104 137 107 138 235 97 157 -51 278 -44 413 25 88 46 103 48
124 18z M6977 4970 c-12 -34 -18 -93 -18 -177 -1 -126 15 -161 199 -443 177
-271 216 -306 332 -298 33 2 63 7 66 11 12 12 -6 42 -276 466 -286 450 -296
464 -303 441z M6484 4789 c-103 -113 -225 -292 -297 -434 -102 -204 -105 -338
-9 -428 l29 -28 42 121 c62 181 133 371 138 366 2 -2 12 -38 22 -79 23 -98 55
-141 115 -156 25 -6 54 -11 66 -11 20 0 20 1 -6 53 -15 28 -58 108 -96 175
l-70 124 38 114 c22 63 41 114 44 113 3 0 69 -102 148 -227 249 -398 437 -685
448 -689 21 -7 69 77 68 119 -2 62 -128 309 -260 508 -78 119 -109 152 -210
228 -77 58 -122 102 -154 151 l-16 23 -40 -43z M2078 4210 c-373 -40 -756
-200 -1038 -435 -571 -477 -822 -1213 -660 -1935 32 -142 74 -260 144 -406
156 -323 378 -578 677 -779 106 -72 337 -185 454 -223 373 -123 787 -132 1153
-27 535 154 981 532 1221 1035 254 532 251 1157 -8 1685 -172 351 -444 642
-783 838 -45 26 -85 47 -88 47 -7 0 -184 -530 -178 -534 1 -1 28 -18 58 -37
156 -97 332 -279 433 -446 94 -157 162 -348 188 -531 15 -107 6 -372 -16 -469
-126 -568 -565 -989 -1134 -1088 -110 -20 -344 -19 -457 0 -583 100 -1039 556
-1139 1139 -19 113 -20 347 0 457 99 570 522 1010 1090 1135 56 13 135 19 265
21 l184 2 88 262 c49 144 87 263 85 265 -21 22 -399 38 -539 24z m1550 -945
c13 -15 30 -42 38 -59 7 -17 14 -26 14 -21 2 18 19 -30 19 -55 0 -24 0 -24
-14 -5 -8 11 -18 25 -23 30 -4 6 -36 53 -71 105 -35 52 -69 99 -77 103 -8 4
-14 15 -14 24 0 15 57 -39 128 -122z m-2655 23 c-15 -24 -30 -45 -33 -48 -3
-3 -23 -32 -45 -65 -33 -50 -40 -56 -43 -38 -5 34 23 83 86 152 61 68 80 68
35 -1z m-20 -1992 c61 -91 75 -116 63 -116 -16 0 -125 129 -150 177 -9 18 -16
44 -16 59 l0 27 18 -24 c11 -13 49 -69 85 -123z m2720 65 c-19 -38 -82 -124
-96 -129 -4 -2 -14 -10 -22 -19 -8 -8 -15 -11 -15 -7 0 10 43 79 52 82 4 2 8
10 8 18 0 8 7 17 15 20 8 4 15 13 15 21 0 7 11 25 25 39 14 14 26 30 26 37 1
7 3 4 6 -7 3 -10 -3 -35 -14 -55z m-146 -183 c-3 -8 -6 -5 -6 6 -1 11 2 17 5
13 3 -3 4 -12 1 -19z m-2471 -36 c-9 -8 -26 10 -26 26 1 15 2 15 15 -2 8 -11
13 -21 11 -24z M8190 4209 c-47 -5 -132 -18 -190 -30 -107 -21 -367 -102 -397
-124 -15 -11 -6 -29 83 -166 77 -118 187 -293 199 -316 1 -1 33 9 73 22 145
49 224 60 427 60 146 0 210 -4 275 -18 569 -122 996 -564 1095 -1136 9 -47 15
-146 15 -226 0 -327 -93 -598 -296 -860 -205 -266 -522 -453 -862 -510 -82
-14 -140 -16 -275 -12 -183 5 -292 26 -440 81 -414 157 -737 513 -851 936
l-23 85 -281 3 c-155 1 -282 0 -282 -3 0 -28 58 -262 86 -345 133 -398 409
-758 764 -994 636 -424 1484 -432 2125 -19 413 267 720 694 835 1166 113 459
60 935 -151 1347 -107 210 -216 357 -390 525 -290 280 -640 455 -1039 520
-118 19 -387 27 -500 14z m1539 -934 c40 -43 81 -118 81 -146 l0 -23 -17 24
c-9 14 -23 31 -30 38 -7 7 -13 17 -13 22 0 5 -22 39 -50 75 -27 36 -50 70 -50
74 0 5 -7 11 -15 15 -8 3 -15 13 -15 23 0 13 12 5 41 -27 23 -25 53 -58 68
-75z m-2635 -2023 c26 -40 47 -75 45 -77 -7 -6 -55 41 -103 101 -25 32 -51 64
-55 70 -9 11 -14 45 -12 73 1 14 34 -30 125 -167z m2705 141 c-22 -58 -124
-192 -136 -179 -6 6 36 80 64 112 10 12 29 40 43 62 27 44 45 47 29 5z m-153
-210 c-10 -10 -19 5 -10 18 6 11 8 11 12 0 2 -7 1 -15 -2 -18z m-2476 -33 c9
-16 8 -18 -5 -14 -8 4 -15 12 -15 20 0 20 7 17 20 -6z M6663 4101 c-17 -11
-45 -39 -61 -63 -42 -59 -99 -112 -152 -140 -38 -19 -60 -23 -137 -23 -51 0
-92 -2 -90 -5 1 -3 19 -37 39 -76 86 -166 119 -450 82 -716 -4 -28 -3 -48 3
-48 10 0 236 170 302 228 54 47 52 65 -17 149 -56 67 -63 87 -69 198 -4 79 -4
81 25 107 16 14 32 32 34 38 6 18 54 -10 96 -54 38 -39 86 -60 180 -79 l62
-13 -76 -94 c-216 -270 -362 -593 -419 -923 l-6 -37 282 2 282 3 27 95 c61
213 150 376 299 548 l71 82 -48 73 c-27 39 -88 135 -137 212 -48 77 -94 151
-102 164 l-15 23 -74 -73 c-49 -49 -75 -68 -78 -58 -2 8 -14 55 -26 104 -42
167 -112 320 -171 369 -36 31 -63 33 -106 7z m422 -781 c7 -23 -7 -52 -82
-166 -60 -93 -73 -96 -73 -14 0 55 23 144 42 163 40 40 103 50 113 17z M2210
2954 c-210 -628 -212 -637 -208 -704 13 -183 192 -295 371 -234 49 16 122 79
145 124 7 14 107 309 222 655 l210 630 -56 3 c-72 4 -120 -19 -159 -78 -20
-30 -82 -199 -184 -500 -189 -559 -208 -600 -277 -600 -18 0 -36 5 -39 11 -4
6 -7 45 -6 88 1 70 12 108 126 451 205 611 222 687 174 739 -20 22 -77 51 -98
51 -5 0 -105 -286 -221 -636z M7882 3485 c-18 -19 -35 -47 -38 -61 -18 -70 74
-275 231 -516 224 -344 350 -545 362 -581 12 -35 12 -43 -5 -76 -34 -67 -15
-65 -652 -65 -554 -1 -576 -2 -614 -21 -51 -26 -73 -58 -82 -117 l-6 -48 648
-1 c357 -1 667 -1 689 0 91 6 187 76 225 163 27 62 30 155 8 208 -20 45 -695
1106 -728 1143 -4 4 -21 -8 -38 -28z M7483 3240 c-28 -11 -28 -14 -1 -59 49
-81 285 -452 340 -533 32 -48 58 -90 58 -93 0 -3 -181 -5 -401 -5 l-402 0 6
-49 c8 -69 32 -110 75 -129 55 -25 551 -25 632 0 61 19 130 71 179 135 28 37
33 51 32 97 -1 87 -55 201 -196 415 -86 130 -137 187 -192 215 -35 17 -95 20
-130 6z M6305 2961 c-31 -9 -65 -34 -65 -48 0 -7 -4 -13 -10 -13 -6 0 -10 -43
-10 -109 0 -107 1 -110 27 -131 26 -20 28 -20 34 -3 9 27 51 292 47 301 -1 5
-12 6 -23 3z M6247 2457 c-10 -51 -17 -98 -17 -103 0 -6 30 4 66 23 37 18 72
33 79 33 23 0 46 38 54 89 l8 51 -87 0 -87 0 -16 -93z"/>
</g>
</svg>
