<?xml version="1.0" standalone="no"?>
<!DOCTYPE svg PUBLIC "-//W3C//DTD SVG 20010904//EN"
 "http://www.w3.org/TR/2001/REC-SVG-20010904/DTD/svg10.dtd">
<svg version="1.0" xmlns="http://www.w3.org/2000/svg"
 width="2048.000000pt" height="2048.000000pt" viewBox="0 0 2048.000000 2048.000000"
 preserveAspectRatio="xMidYMid meet">
<metadata>
Created by potrace 1.13, written by Peter Selinger 2001-2015
</metadata>
<g transform="translate(0.000000,2048.000000) scale(0.192120,-0.192120)"
fill="#000000" stroke="none">
<path d="M5065 10323 c-563 -33 -1103 -153 -1603 -354 -190 -76 -527 -245
-704 -352 -594 -358 -1109 -835 -1506 -1395 -282 -396 -539 -909 -681 -1356
-353 -1110 -316 -2292 106 -3366 400 -1020 1146 -1898 2093 -2464 1146 -685
2540 -882 3835 -541 569 150 1143 418 1619 759 1239 886 2000 2254 2096 3766
116 1844 -798 3600 -2381 4576 -299 184 -742 388 -1074 494 -389 124 -806 202
-1220 230 -137 9 -457 11 -580 3z m575 -243 c382 -26 702 -83 1070 -190 309
-90 544 -176 735 -269 742 -360 1391 -926 1862 -1626 407 -604 673 -1320 767
-2063 19 -149 23 -1000 5 -1160 -79 -726 -340 -1444 -757 -2082 -541 -830
-1436 -1536 -2307 -1823 -636 -209 -1101 -289 -1685 -289 -583 0 -1054 81
-1675 287 -877 291 -1742 975 -2313 1830 -182 274 -370 640 -486 951 -131 351
-219 708 -266 1088 -20 156 -21 206 -18 650 4 520 9 571 74 896 121 604 371
1200 717 1715 285 424 651 809 1101 1159 273 212 688 451 986 569 481 189
1055 321 1545 356 173 12 477 12 645 1z M4995 9763 c-95 -7 -374 -44 -477 -64
-745 -144 -1355 -425 -1973 -909 l-102 -80 685 -682 c376 -376 715 -718 754
-760 l70 -78 -31 -35 c-53 -61 -41 -133 42 -254 17 -25 142 -161 279 -302 231
-240 253 -260 322 -293 93 -45 120 -45 186 -1 l52 35 87 -79 c47 -44 926 -921
1954 -1948 l1867 -1869 103 130 c516 657 826 1405 932 2246 22 172 31 656 16
846 -45 569 -184 1088 -426 1589 -342 711 -877 1329 -1530 1766 -627 419
-1308 661 -2069 734 -145 14 -587 19 -741 8z m109 -269 c9 -3 16 -11 16 -16 0
-13 -192 -197 -233 -223 -29 -18 -51 -20 -366 -21 -363 -1 -380 -3 -491 -59
-80 -40 -244 -210 -295 -306 -38 -71 -40 -78 -43 -186 -4 -96 -1 -119 18 -170
52 -138 204 -316 327 -380 99 -52 142 -58 435 -58 l268 0 0 -125 0 -125 -117
-23 c-155 -30 -328 -89 -466 -158 -177 -91 -185 -94 -204 -94 -10 0 -34 9 -53
21 -49 29 -1044 1027 -1064 1067 -9 18 -14 41 -11 52 7 21 158 126 321 223
503 297 1077 493 1644 562 199 24 287 29 314 19z m807 -25 c1478 -194 2755
-1164 3320 -2519 109 -262 203 -590 254 -885 25 -145 25 -152 25 -730 0 -537
-2 -592 -20 -702 -94 -555 -281 -1054 -567 -1511 -143 -228 -201 -302 -237
-302 -12 0 -37 9 -56 21 -53 31 -3204 3188 -3223 3229 -11 24 -13 38 -5 47 8
10 300 13 1392 15 l1381 3 57 22 c112 43 226 141 303 262 36 58 52 90 86 179
5 13 9 193 9 401 l0 378 -30 72 c-49 119 -195 283 -301 336 -119 61 -61 58
-1281 63 l-1118 4 0 111 0 112 278 0 c199 0 292 4 332 14 170 42 340 204 420
400 27 65 30 85 30 176 0 90 -4 112 -27 167 -52 124 -201 291 -306 345 -107
54 -125 56 -493 57 l-341 1 -34 27 c-57 45 -219 204 -219 216 0 5 6 13 13 16
19 9 197 -4 358 -25z m-482 -265 c70 -20 132 -82 157 -155 17 -47 19 -85 19
-289 0 -129 1 -454 3 -722 l2 -488 1298 -2 1299 -3 48 -30 c27 -17 62 -48 76
-70 51 -74 54 -103 54 -460 0 -296 -2 -334 -18 -370 -32 -70 -67 -112 -120
-141 l-52 -29 -1625 -5 -1625 -5 -84 -30 -84 -30 -409 410 -410 409 28 24 c52
42 188 129 249 160 204 101 510 172 745 172 l70 0 3 488 c1 268 2 593 2 722 0
245 4 277 47 348 23 38 90 86 139 100 52 15 130 14 188 -4z m-533 -291 c49
-26 110 -92 132 -142 9 -20 16 -66 16 -106 2 -118 -62 -216 -169 -260 -29 -13
-95 -16 -371 -16 -234 0 -346 3 -372 12 -81 26 -159 107 -182 188 -39 141 48
297 190 342 14 4 180 7 370 6 333 -2 346 -3 386 -24z m1670 0 c61 -33 122
-106 140 -171 31 -104 3 -204 -77 -282 -70 -68 -94 -72 -476 -71 l-337 0 -55
28 c-126 65 -182 224 -126 359 27 65 103 132 175 155 14 4 180 7 370 6 335 -2
346 -3 386 -24z M1866 8110 c-527 -665 -833 -1386 -947 -2230 -27 -202 -37
-661 -19 -888 99 -1282 734 -2439 1765 -3219 584 -441 1317 -744 2040 -842
233 -32 370 -41 631 -41 1020 0 1959 330 2774 977 l106 83 -1304 1303 c-717
716 -1353 1355 -1414 1420 l-112 118 27 55 c15 30 27 64 27 77 0 42 -47 122
-96 166 -88 78 -138 88 -219 42 l-52 -30 -164 158 c-90 87 -208 205 -261 263
l-98 106 32 61 c30 59 31 64 20 108 -28 102 -90 177 -444 534 -248 251 -343
326 -436 349 -42 10 -55 9 -79 -3 -34 -19 -73 -54 -73 -68 0 -6 210 -220 466
-477 l466 -467 -6 -70 c-12 -132 -75 -216 -189 -250 -74 -22 -661 -22 -734 0
-66 20 -146 90 -168 149 -24 62 -17 535 9 676 21 111 76 308 110 391 l23 58
-798 798 -799 799 -84 -106z m154 -301 c19 -11 299 -285 623 -608 555 -555
587 -589 587 -623 0 -19 -19 -107 -42 -194 l-43 -159 0 -385 0 -385 29 -55
c68 -131 191 -263 296 -319 98 -53 161 -61 470 -61 365 0 417 12 570 124 52
39 70 46 99 44 31 -3 36 -7 39 -32 2 -19 -8 -47 -31 -85 -113 -184 -117 -208
-117 -662 0 -362 0 -369 -20 -369 -17 0 -20 -7 -20 -40 l0 -40 -530 0 -530 0
0 40 c0 29 -4 40 -15 40 -13 0 -15 47 -15 363 0 383 -5 434 -50 547 -48 121
-200 284 -319 343 -62 30 -72 32 -176 32 -106 0 -113 -2 -180 -34 -102 -50
-249 -201 -304 -312 l-41 -81 0 -993 c0 -545 -3 -1087 -7 -1203 l-6 -210 -24
15 c-22 15 -23 14 -23 -11 0 -14 -4 -26 -8 -26 -19 0 -206 213 -298 340 -150
204 -257 378 -380 615 -205 397 -336 810 -409 1296 -14 89 -16 189 -13 655 4
548 4 549 31 694 105 557 280 1012 565 1467 124 197 204 293 247 293 6 0 26
-9 45 -21z m911 -2774 c67 -24 105 -59 141 -132 l33 -68 3 -587 3 -588 832 0
832 0 0 587 c0 539 1 592 18 632 44 112 117 162 242 169 l83 4 100 -101 c74
-74 103 -110 107 -134 3 -17 5 -558 3 -1202 l-3 -1170 -31 -85 c-68 -191 -180
-299 -359 -345 -87 -22 -1887 -22 -1983 0 -184 43 -304 163 -374 370 l-23 70
-3 1175 c-3 1157 -2 1176 18 1240 26 85 75 140 147 166 51 18 161 17 214 -1z
m3811 -1933 c1223 -1224 1128 -1115 1042 -1191 -100 -88 -442 -287 -680 -395
-1123 -512 -2441 -513 -3544 -1 -192 89 -262 145 -197 160 12 2 353 6 757 9
793 4 802 4 937 59 246 100 464 394 518 697 12 71 15 221 15 895 0 446 3 820
6 833 18 64 6 75 1146 -1066z"/>
</g>
</svg>
