<?xml version="1.0" standalone="no"?>
<!DOCTYPE svg PUBLIC "-//W3C//DTD SVG 20010904//EN"
 "http://www.w3.org/TR/2001/REC-SVG-20010904/DTD/svg10.dtd">
<svg version="1.0" xmlns="http://www.w3.org/2000/svg"
 width="2048.000000pt" height="2048.000000pt" viewBox="0 0 2048.000000 2048.000000"
 preserveAspectRatio="xMidYMid meet">
<metadata>
Created by potrace 1.13, written by Peter Selinger 2001-2015
</metadata>
<g transform="translate(0.000000,2048.000000) scale(0.192120,-0.192120)"
fill="#000000" stroke="none">
<path d="M5010 10314 c-129 -17 -362 -74 -489 -120 -236 -84 -410 -248 -450
-425 -23 -100 -4 -224 42 -267 23 -22 23 -23 9 -94 -22 -120 -27 -491 -8 -631
53 -377 186 -618 389 -700 45 -19 70 -22 187 -20 106 1 282 17 405 36 6 1 11
-16 13 -38 5 -55 19 -66 28 -21 10 54 -1 124 -22 147 -44 49 -65 52 -288 50
-206 -2 -210 -2 -261 24 -60 29 -138 105 -174 168 -38 66 -78 192 -102 317
-17 89 -23 171 -28 360 l-6 245 -28 47 c-15 25 -34 52 -42 58 -12 10 -6 19 38
57 75 64 176 110 267 122 71 8 173 3 195 -11 6 -4 49 -149 95 -323 92 -342 95
-348 150 -325 37 15 56 45 86 133 44 129 105 177 226 177 146 0 248 -119 248
-290 0 -67 -9 -88 -76 -190 -52 -78 -68 -144 -62 -249 5 -83 34 -162 82 -218
63 -75 208 -142 354 -163 63 -9 78 -8 109 7 121 57 308 351 392 617 109 340
91 718 -45 955 -77 134 -223 295 -349 383 -237 168 -534 229 -885 182z m482
-263 c178 -41 323 -126 458 -268 58 -62 91 -106 122 -170 l43 -87 0 -295 c0
-293 0 -297 -27 -376 -42 -128 -87 -225 -140 -305 -84 -125 -121 -155 -221
-181 -73 -18 -139 15 -187 93 -16 27 -20 50 -20 134 0 92 3 106 29 155 53 100
63 148 59 272 -3 104 -6 117 -38 182 -64 129 -182 219 -303 232 -72 7 -145
-15 -236 -73 l-74 -48 -23 27 c-13 15 -35 67 -50 115 -41 135 -75 202 -128
250 -86 79 -186 105 -326 84 -190 -29 -35 108 210 186 311 98 624 125 852 73z
M5408 8091 c-193 -62 -355 -253 -482 -568 -191 -477 -251 -1112 -169 -1825
l16 -147 -73 -97 c-84 -112 -271 -308 -373 -391 -151 -123 -189 -182 -189
-290 0 -153 121 -273 278 -273 91 0 221 84 403 259 50 49 52 53 37 70 -45 50
-136 41 -233 -25 -124 -82 -205 -104 -259 -69 -18 11 -24 24 -24 51 0 29 8 42
45 76 25 23 45 46 45 52 0 6 57 67 126 136 263 261 328 383 265 494 l-22 38
54 97 c219 388 360 836 384 1219 l6 102 279 0 278 0 0 -52 c0 -80 -28 -307
-56 -453 -113 -589 -360 -1109 -727 -1534 l-78 -90 13 -42 c7 -25 19 -44 30
-47 10 -2 18 -6 18 -8 0 -1 -185 -325 -410 -720 -293 -511 -417 -737 -433
-788 l-22 -71 0 -1055 c0 -1020 1 -1057 20 -1115 10 -33 19 -64 20 -68 0 -5
-50 -22 -111 -37 -164 -43 -345 -105 -459 -159 -172 -82 -217 -129 -217 -221
0 -79 56 -152 125 -165 18 -3 424 -7 904 -8 l872 -2 30 29 c55 53 65 98 58
261 -8 187 -39 283 -117 370 -27 29 -27 33 -19 95 5 36 8 466 8 957 l0 891
131 231 c72 127 129 235 126 240 -12 19 -256 1256 -256 1298 l0 43 -85 0 c-47
0 -85 4 -85 9 0 15 80 99 130 136 105 77 242 273 374 535 181 357 293 692 361
1081 33 189 36 419 6 477 -26 52 -150 167 -198 183 -59 21 -426 20 -473 -2
-56 -26 -152 -111 -195 -174 l-40 -58 -3 84 c-4 96 7 154 53 291 82 242 213
440 325 492 70 33 186 29 269 -9 218 -99 322 -273 432 -725 22 -91 55 -214 74
-275 62 -202 85 -309 165 -760 l40 -229 -1 -376 0 -375 -127 -118 c-190 -177
-146 -161 -477 -165 -155 -2 -284 -7 -289 -13 -6 -5 126 -9 348 -9 l358 0 -9
-32 c-18 -73 -4 -179 76 -583 45 -225 89 -437 97 -470 16 -64 75 -194 106
-234 10 -13 18 -30 18 -37 0 -20 100 -170 152 -229 24 -27 142 -174 263 -325
438 -552 429 -543 595 -599 36 -12 85 -33 110 -46 l45 -24 -50 -1 c-49 0 -51
-1 -129 -82 -396 -412 -798 -1062 -872 -1408 -21 -102 8 -174 90 -217 36 -19
106 -19 142 0 16 9 307 294 646 634 538 539 617 623 623 655 14 77 -28 144
-162 259 -92 79 -154 118 -225 142 -9 3 -29 32 -44 63 -18 38 -210 286 -547
708 -286 358 -526 662 -534 676 -7 14 -62 275 -123 580 -61 305 -113 565 -116
576 -5 18 1 24 33 34 97 32 179 94 214 162 19 37 20 59 19 347 0 283 -2 317
-25 432 -13 69 -61 339 -105 600 -168 984 -269 1309 -484 1546 -145 160 -421
244 -608 184z m-177 -4062 c66 -328 71 -361 67 -455 -3 -93 -6 -104 -31 -135
-56 -69 -119 -172 -182 -298 l-65 -130 0 -875 c0 -577 3 -876 10 -876 6 0 10
-6 10 -14 0 -8 4 -16 8 -18 4 -1 20 -23 35 -48 15 -25 39 -60 53 -77 l27 -33
-29 0 c-165 0 -536 -40 -781 -83 -73 -13 -133 -22 -133 -21 0 2 15 25 34 51
52 73 96 172 96 215 0 21 5 38 10 38 7 0 10 316 10 928 0 1038 -4 976 73 1127
64 126 571 1003 612 1059 22 31 47 57 55 59 29 6 50 -65 121 -414z m2486
-2165 c56 -32 66 -51 47 -90 -17 -35 -665 -684 -682 -684 -25 0 -9 48 61 189
40 80 80 164 90 186 39 91 293 395 351 421 38 16 78 10 133 -22z m-2657 -1049
c20 -18 22 -28 18 -92 -2 -39 -6 -75 -10 -79 -13 -12 -770 11 -795 24 -34 19
-11 46 62 77 95 39 181 55 425 81 176 18 272 14 300 -11z M6433 6840 c3 -8 46
-118 95 -245 201 -516 311 -831 380 -1090 68 -253 82 -345 82 -528 0 -150 -2
-164 -20 -180 -11 -9 -20 -26 -20 -37 0 -17 -7 -20 -39 -20 -32 0 -43 6 -65
34 -14 19 -26 38 -26 43 0 20 -75 83 -108 93 -79 22 -78 23 -74 -97 3 -90 8
-117 28 -160 49 -102 152 -160 268 -151 76 6 130 33 183 90 64 70 77 125 69
287 -27 564 -236 1157 -635 1799 -73 118 -128 194 -118 162z M5523 3422 c-9
-6 -7 -30 7 -102 22 -113 39 -163 75 -220 30 -48 1128 -1424 1184 -1484 35
-37 145 -116 163 -116 15 0 8 90 -13 181 -23 98 -59 162 -163 289 -34 41 -79
100 -100 130 -22 30 -218 278 -437 551 -219 273 -416 525 -438 560 -82 130
-119 174 -164 197 -45 22 -92 28 -114 14z"/>
</g>
</svg>
