<?xml version="1.0" standalone="no"?>
<!DOCTYPE svg PUBLIC "-//W3C//DTD SVG 20010904//EN"
 "http://www.w3.org/TR/2001/REC-SVG-20010904/DTD/svg10.dtd">
<svg version="1.0" xmlns="http://www.w3.org/2000/svg"
 width="2048.000000pt" height="2048.000000pt" viewBox="0 0 2048.000000 2048.000000"
 preserveAspectRatio="xMidYMid meet">
<metadata>
Created by potrace 1.13, written by Peter Selinger 2001-2015
</metadata>
<g transform="translate(0.000000,2048.000000) scale(0.192120,-0.192120)"
fill="#000000" stroke="none">
<path d="M7700 10035 c-207 -51 -515 -246 -866 -550 -245 -212 -776 -739 -981
-974 l-30 -34 -99 17 c-131 24 -447 32 -585 17 -120 -14 -265 -44 -343 -71
l-54 -18 -81 60 c-92 68 -81 70 -166 -19 -38 -40 -76 -66 -155 -104 -146 -71
-157 -72 -255 -9 -108 68 -131 73 -305 65 -166 -8 -252 5 -354 53 -75 35 -116
69 -141 116 -19 35 -19 37 -2 69 17 31 25 35 115 56 123 29 204 71 240 125 34
51 68 60 189 52 128 -8 221 -41 424 -152 212 -115 291 -148 398 -164 149 -23
377 4 567 65 134 44 349 156 465 244 126 95 238 212 274 286 50 101 15 121
-133 81 -148 -39 -198 -47 -309 -47 -197 0 -369 63 -604 224 -70 47 -161 103
-202 123 -57 28 -79 45 -88 67 -7 16 -32 48 -56 72 -121 122 -366 195 -653
195 -283 0 -463 -54 -695 -207 -305 -202 -561 -545 -640 -858 -22 -86 -32
-155 -22 -155 2 0 82 16 177 35 95 19 179 35 185 35 6 0 19 -26 29 -57 75
-243 291 -442 551 -508 123 -32 318 -23 429 21 14 5 34 -10 92 -69 113 -118
111 -114 69 -178 -104 -158 -145 -388 -145 -820 0 -177 -6 -233 -35 -334 l-16
-55 -44 0 c-112 0 -309 57 -460 132 -212 106 -356 220 -695 552 -397 388 -584
542 -765 632 -49 25 -117 50 -151 56 -52 9 -65 8 -98 -7 -185 -88 -632 -721
-1255 -1775 l-91 -155 0 -2917 0 -2918 5000 0 5000 0 0 3473 0 3473 -106 170
c-657 1046 -1343 1924 -1808 2311 -296 247 -507 329 -716 278z m254 -259 c225
-81 564 -390 952 -866 82 -101 218 -266 301 -367 161 -193 290 -370 509 -693
164 -243 344 -527 344 -543 0 -7 9 -25 20 -42 20 -30 20 -50 20 -1537 0 -955
4 -1508 10 -1508 5 0 11 -119 13 -303 5 -333 8 -364 65 -617 45 -195 78 -383
87 -487 l6 -68 -41 120 c-147 431 -416 785 -780 1029 -120 81 -324 180 -465
226 -408 132 -811 131 -1231 -4 l-136 -44 5 27 c3 16 9 61 13 102 5 61 2 85
-15 137 -21 61 -184 328 -259 422 -125 159 -281 270 -380 270 l-24 0 28 -47
c24 -42 742 -1175 879 -1388 274 -425 736 -1155 759 -1201 56 -107 31 -240
-58 -322 -84 -77 -11 -72 -1142 -75 l-1011 -2 -17 95 c-31 179 -100 270 -175
231 -16 -9 -15 2 8 110 l26 120 809 -1 809 -1 -18 27 c-16 26 -339 531 -605
949 -74 116 -273 428 -442 695 -170 267 -312 486 -316 488 -4 1 -17 -26 -29
-60 -12 -35 -77 -220 -146 -411 l-124 -348 -36 45 c-48 58 -57 84 -57 162 0
158 113 371 362 681 53 65 95 110 102 106 6 -3 39 -28 72 -55 34 -26 66 -48
71 -48 6 0 83 78 172 172 123 131 168 172 184 171 12 -2 152 -19 310 -38 324
-40 340 -39 407 21 37 33 44 52 149 367 69 205 111 347 111 372 -1 115 -109
207 -222 188 -34 -5 -45 -15 -100 -92 -139 -194 -525 -660 -627 -755 l-31 -30
-42 24 c-68 38 -119 34 -208 -20 -102 -61 -103 -62 -202 -70 -69 -5 -99 -13
-145 -37 -32 -17 -58 -36 -58 -44 0 -8 -25 -35 -55 -60 -136 -113 -239 -248
-353 -461 -94 -174 -107 -218 -107 -362 0 -121 0 -123 32 -172 53 -82 104
-129 163 -149 l54 -19 42 28 42 28 17 -22 c27 -36 67 -150 87 -246 18 -92 26
-410 11 -465 -6 -18 -18 -29 -45 -37 -36 -12 -93 -53 -93 -68 0 -4 -6 -15 -13
-23 -7 -9 -23 -62 -36 -118 -23 -107 -60 -207 -111 -302 -17 -31 -38 -83 -46
-115 -19 -74 -38 -112 -63 -126 -31 -16 -37 -13 -66 43 -26 50 -28 61 -41 307
-14 259 -23 359 -50 555 -22 151 -38 211 -95 342 -27 62 -60 155 -74 205 -39
152 -116 539 -116 591 -1 37 9 69 45 143 25 52 46 98 46 103 0 5 15 45 34 90
46 107 86 234 86 275 0 40 -30 75 -89 106 l-42 21 42 77 c23 42 71 123 106
180 34 56 63 106 63 110 0 4 -40 35 -88 70 -97 70 -103 68 -83 -24 7 -29 9
-69 6 -88 -10 -49 -82 -126 -118 -126 -33 0 -218 29 -229 36 -20 13 -4 48 40
87 112 99 172 186 172 249 0 40 21 35 69 -17 23 -25 43 -45 45 -45 2 0 50 62
106 138 57 75 193 255 302 399 l199 262 65 -6 c62 -6 108 3 204 39 96 36 624
390 950 638 41 31 89 64 107 73 37 20 89 21 120 4 70 -40 217 -203 242 -271 6
-15 11 -92 11 -171 0 -159 -1 -165 -96 -397 -24 -59 -44 -122 -44 -141 0 -32
31 -87 50 -87 13 0 127 182 180 288 96 192 123 314 96 442 -41 195 -178 371
-413 528 l-62 42 -151 -117 c-368 -286 -839 -612 -1055 -733 -128 -71 -219
-101 -290 -98 l-50 3 -373 -280 -372 -279 57 -59 c56 -56 57 -59 38 -73 -312
-229 -529 -439 -630 -609 -9 -15 -15 -13 -58 20 -99 76 -91 75 -483 75 -395 0
-488 -7 -724 -55 -91 -18 -190 -36 -220 -40 l-55 -7 109 62 c231 130 425 277
686 522 207 194 271 268 387 443 194 294 312 583 333 813 12 129 34 177 100
210 56 28 98 28 180 -1 103 -37 165 -83 361 -270 264 -251 399 -359 502 -402
36 -15 37 -15 37 7 0 42 -38 86 -162 185 -68 54 -177 150 -243 213 -192 184
-241 227 -316 271 -155 92 -282 113 -381 63 -67 -34 -123 -95 -150 -164 -20
-50 -22 -73 -23 -256 l0 -200 -50 12 c-78 18 -266 71 -432 121 l-153 46 31 34
c51 58 79 111 79 147 0 19 5 38 10 41 6 4 10 63 10 143 0 263 23 426 82 603
19 58 31 116 32 151 1 56 0 58 -47 101 l-48 43 73 70 c40 38 105 90 144 116
74 49 209 118 231 118 7 0 21 -17 32 -37 10 -21 30 -48 43 -60 49 -45 84 -47
261 -12 111 21 338 25 512 9 258 -25 312 -24 423 5 93 24 109 25 170 16 80
-13 183 -51 323 -122 93 -46 246 -140 259 -159 10 -14 307 -193 439 -265 132
-72 331 -162 440 -201 53 -19 106 -62 117 -96 3 -10 10 -18 16 -18 6 0 45 25
86 56 l75 57 -119 42 c-259 91 -470 194 -780 381 -381 230 -426 256 -547 315
-66 32 -185 79 -264 105 -79 26 -143 51 -143 55 0 3 15 12 33 19 17 7 68 34
112 59 67 39 126 92 370 331 393 386 628 590 851 740 284 190 443 236 608 176z
m-3810 -161 c44 -9 109 -28 145 -42 110 -42 162 -53 259 -53 l92 0 0 -42 c0
-62 -47 -154 -119 -231 -117 -124 -335 -213 -851 -347 -234 -61 -522 -126
-595 -135 l-53 -7 -20 45 c-11 24 -36 70 -56 101 -38 60 -45 99 -22 131 7 11
26 43 41 70 30 53 136 185 179 222 54 47 173 140 213 166 83 57 262 118 398
136 95 13 292 6 389 -14z m697 -498 c171 -90 279 -149 283 -156 11 -17 -7 -47
-34 -59 -16 -7 -72 -22 -125 -33 -130 -26 -412 -28 -450 -3 -35 23 -32 58 8
85 17 13 70 60 117 105 114 109 111 108 201 61z m-2986 -1301 c124 -52 337
-232 740 -626 353 -345 554 -479 884 -591 47 -16 98 -29 114 -29 35 0 170 44
216 71 18 11 36 18 38 15 11 -10 -81 -182 -157 -294 -88 -130 -162 -221 -300
-371 l-93 -101 -611 -1 c-336 0 -647 -4 -691 -8 -92 -9 -143 -30 -193 -79
-131 -131 -95 -353 72 -440 49 -25 59 -27 229 -30 l177 -4 0 -76 c0 -95 20
-139 72 -165 90 -44 526 -49 694 -7 l92 23 34 -27 35 -26 1171 0 1172 0 -64
-122 c-77 -147 -130 -281 -147 -365 l-12 -63 -706 -2 -706 -3 105 -80 c58 -44
391 -302 740 -573 349 -272 640 -496 645 -499 6 -2 24 36 39 84 16 49 31 93
33 100 3 7 -21 25 -56 42 -36 18 -98 67 -155 120 -52 48 -168 146 -258 217
-89 70 -165 130 -168 134 -3 3 -35 29 -71 58 -83 65 -141 128 -137 150 5 26
40 30 258 31 238 1 249 4 336 98 l51 55 31 -28 c30 -28 33 -38 113 -434 45
-223 85 -423 90 -445 43 -221 87 -634 95 -889 5 -185 18 -338 31 -374 6 -15 5
-15 -11 -3 -16 13 -30 1 -160 -128 l-142 -142 -50 11 c-127 29 -222 144 -224
270 0 55 0 56 93 308 l75 204 -82 63 c-458 359 -1882 1465 -1886 1465 -3 0
-167 -487 -365 -1082 -282 -847 -367 -1091 -390 -1122 -17 -22 -53 -54 -80
-71 -64 -40 -178 -48 -247 -17 -106 46 -168 140 -168 251 0 60 34 168 391
1234 215 643 389 1170 387 1172 -11 11 -732 547 -771 573 -56 39 -78 36 -101
-12 -20 -43 -20 -61 3 -112 34 -74 159 -184 497 -434 18 -14 34 -30 34 -37 0
-7 12 -23 26 -36 23 -22 26 -33 31 -123 5 -74 14 -124 39 -198 l33 -98 -28 5
c-16 3 -91 9 -167 13 -332 16 -665 -54 -963 -202 -470 -234 -819 -639 -990
-1149 -32 -93 -41 -112 -41 -83 0 53 46 318 90 513 20 94 43 202 50 240 7 39
16 92 21 118 5 27 9 578 9 1241 0 1033 2 1195 15 1212 8 10 15 25 15 33 1 54
581 980 834 1332 247 342 316 397 441 345z m2440 -1243 c50 -13 98 -26 108
-29 27 -8 21 -70 -13 -142 -63 -134 -304 -439 -495 -627 -90 -90 -290 -253
-375 -307 -146 -93 -229 -122 -410 -143 -74 -9 -169 -20 -210 -25 -41 -5 -139
-9 -218 -9 -112 -1 -151 3 -180 16 -20 9 -39 17 -42 18 -3 1 -12 4 -20 8 -46
18 -114 37 -135 37 -32 0 -32 19 -1 86 48 103 152 141 427 153 158 6 166 8
229 39 36 18 101 59 145 91 164 121 145 111 191 99 83 -23 201 41 309 168 28
32 66 76 85 99 40 46 133 177 220 310 129 197 174 216 385 158z m3442 -995
c-6 -97 -41 -196 -88 -245 -26 -28 -37 -33 -77 -33 -64 0 -95 21 -82 56 14 35
233 304 247 304 3 0 3 -37 0 -82z m-1192 -1184 c13 -8 49 -49 79 -90 31 -40
92 -111 135 -157 48 -52 100 -121 136 -183 95 -163 113 -190 151 -216 l35 -25
-51 -57 c-29 -31 -55 -54 -60 -51 -4 2 -10 24 -14 47 -11 71 -66 238 -103 315
-38 77 -99 143 -134 143 -11 0 -33 -7 -49 -15 l-28 -15 -81 150 c-45 83 -81
155 -81 160 0 15 38 12 65 -6z m-3152 -375 c106 -54 340 -247 642 -531 181
-171 248 -227 550 -463 105 -82 199 -158 209 -167 9 -10 43 -38 76 -63 57 -44
80 -81 80 -130 0 -12 -18 -87 -41 -165 -38 -133 -41 -150 -37 -239 5 -114 30
-173 110 -257 62 -66 117 -93 191 -97 31 -1 57 -4 57 -5 0 -2 -78 -83 -173
-180 -203 -207 -272 -288 -303 -357 -29 -61 -30 -89 -4 -125 36 -50 119 -71
288 -71 253 0 516 78 907 271 170 84 403 216 434 246 12 11 10 15 -15 24 -54
21 -112 3 -324 -101 -454 -224 -668 -298 -933 -325 -69 -7 -179 9 -204 29 -19
14 -16 57 6 92 34 55 255 269 304 295 26 14 47 30 47 35 0 6 26 24 57 39 153
75 296 194 337 279 13 29 27 75 31 103 l6 51 62 -25 c49 -20 79 -26 142 -26
91 0 155 24 235 87 l45 37 7 -48 c3 -26 7 -72 7 -102 3 -125 82 -210 197 -210
40 0 44 2 44 25 0 34 28 32 36 -2 83 -371 211 -650 414 -898 75 -92 246 -256
340 -326 168 -124 371 -230 575 -298 75 -25 109 -41 90 -41 -47 0 -325 46
-484 80 -311 66 -253 62 -981 71 -1364 17 -2656 22 -2758 10 -53 -7 -199 -34
-325 -62 -255 -55 -419 -85 -523 -94 l-69 -6 120 41 c206 70 414 179 575 299
93 69 252 222 335 321 313 375 477 894 437 1378 -42 492 -241 917 -588 1252
-113 109 -177 160 -321 254 -57 37 -103 69 -103 72 0 2 17 12 38 23 49 26 103
26 155 0z m3181 12 c18 -7 15 -12 -28 -59 -49 -52 -104 -85 -165 -97 l-34 -7
63 76 c35 42 71 81 79 86 19 11 58 12 85 1z m-4372 -72 c19 -10 14 -45 -9 -53
-8 -3 -62 -13 -121 -21 -59 -9 -125 -21 -147 -27 -22 -7 -42 -12 -45 -13 -16
-3 -117 -39 -125 -44 -5 -3 -12 -6 -15 -7 -6 -1 -37 -14 -112 -48 -117 -52
-307 -180 -398 -268 -106 -101 -237 -257 -294 -347 -54 -85 -144 -278 -174
-371 -58 -183 -64 -235 -60 -518 4 -243 6 -263 31 -356 68 -247 194 -484 361
-684 171 -203 383 -353 663 -468 48 -20 94 -42 102 -50 13 -11 11 -15 -10 -22
-13 -5 -25 -6 -27 -1 -2 4 -9 6 -16 3 -7 -3 -64 7 -126 21 -245 55 -539 241
-736 465 -112 128 -231 328 -273 459 -20 62 -21 85 -21 667 0 676 -3 647 77
801 217 416 676 753 1165 853 160 33 281 44 310 29z m6383 1 c366 -42 699
-187 976 -425 189 -163 350 -391 420 -594 18 -51 19 -94 19 -670 l0 -616 -44
-107 c-76 -187 -239 -411 -399 -548 -97 -84 -81 -72 -188 -143 -86 -57 -256
-142 -301 -151 -12 -2 -52 -12 -88 -21 -35 -10 -81 -18 -102 -19 -21 0 -38 -4
-38 -7 0 -3 -11 -4 -25 -1 -46 8 -26 29 68 67 239 98 393 195 552 347 232 222
410 525 491 840 25 96 25 104 22 391 -4 284 -5 294 -31 380 -62 201 -155 390
-272 549 -91 124 -284 313 -395 387 -89 60 -330 187 -330 174 0 -3 -6 -1 -12
4 -11 8 -77 33 -133 50 -48 14 -156 34 -232 43 -122 13 -223 12 -363 -4 -123
-15 -160 -9 -160 23 0 14 11 22 48 30 123 30 355 39 517 21z m-1919 -113 c16
-18 46 -62 67 -97 46 -78 80 -106 159 -135 l60 -22 -75 -94 c-185 -234 -312
-492 -382 -773 -35 -139 -30 -129 -64 -111 -40 20 -79 19 -118 -5 -19 -11 -33
-15 -33 -9 0 6 11 82 24 168 14 86 27 179 31 206 7 48 9 52 78 100 102 72 277
214 277 225 0 5 -10 21 -23 36 -17 19 -34 28 -61 29 -20 1 -40 5 -43 9 -3 3
-16 6 -28 6 -15 0 -27 12 -42 43 -24 49 -69 312 -60 348 4 17 26 36 67 59 33
19 60 38 60 43 0 4 18 7 39 7 31 0 44 -6 67 -33z m-4283 -194 c4 -3 -38 -49
-92 -102 -85 -83 -104 -108 -141 -184 -41 -86 -296 -839 -320 -948 -7 -33 -11
-97 -8 -160 4 -89 8 -112 32 -158 41 -80 150 -182 243 -228 74 -36 81 -38 177
-38 93 0 106 3 166 31 133 64 233 161 295 284 43 87 291 836 307 928 11 67 10
87 -13 222 l-26 149 40 -22 c69 -39 200 -151 271 -233 164 -188 270 -400 323
-647 26 -117 25 -428 0 -547 -121 -569 -564 -995 -1137 -1096 -114 -20 -336
-19 -458 2 -579 98 -1037 556 -1137 1138 -20 115 -20 347 0 462 100 584 557
1038 1145 1139 79 14 322 20 333 8z m6287 -18 c560 -124 989 -569 1085 -1129
20 -115 20 -347 0 -462 -74 -429 -348 -805 -733 -1002 -205 -106 -403 -153
-639 -153 -214 1 -401 41 -583 127 -362 172 -641 496 -745 867 -9 32 -15 61
-12 64 3 2 56 -22 119 -55 165 -88 194 -94 461 -88 769 17 829 20 892 44 119
44 246 153 303 260 30 57 32 65 32 171 0 108 -1 113 -39 196 -47 101 -95 182
-290 490 -285 450 -282 447 -533 589 -27 15 -48 29 -48 31 0 8 144 47 220 61
102 18 408 12 510 -11z m-5295 -44 c71 -41 278 -258 354 -371 104 -156 177
-316 221 -484 18 -74 20 -109 20 -455 0 -401 -1 -412 -54 -573 -81 -245 -267
-530 -457 -698 -81 -71 -210 -162 -309 -218 -56 -32 -200 -94 -200 -87 0 2
-18 -2 -40 -10 -22 -8 -40 -12 -40 -10 0 2 -15 -1 -32 -6 -18 -5 -61 -12 -95
-14 -91 -6 -81 13 30 59 138 58 288 138 380 203 111 78 308 277 387 391 127
180 236 425 280 627 16 75 20 129 20 328 0 263 -7 315 -65 492 -83 255 -204
446 -437 692 -50 53 -58 66 -58 100 0 38 14 63 35 63 5 0 33 -13 60 -29z
m3679 -232 c38 -30 59 -76 52 -112 -3 -17 -26 -62 -50 -101 -23 -39 -65 -111
-92 -159 -59 -108 -109 -157 -159 -157 l-35 0 0 60 c0 37 8 79 21 112 38 95
89 255 89 278 0 25 32 70 63 87 34 19 81 15 111 -8z m345 -224 c2 -87 17 -179
42 -256 25 -75 22 -94 -18 -110 -15 -6 -37 -15 -48 -20 -11 -4 -42 -15 -70
-23 -27 -9 -97 -43 -155 -75 -73 -41 -106 -55 -108 -46 -5 20 62 214 99 287
47 94 129 216 189 282 62 67 68 64 69 -39z m-7022 -417 c-3 -8 -6 -5 -6 6 -1
11 2 17 5 13 3 -3 4 -12 1 -19z m9910 0 c-3 -8 -6 -5 -6 6 -1 11 2 17 5 13 3
-3 4 -12 1 -19z m-9875 -1008 c202 -640 696 -1121 1350 -1314 46 -14 79 -25
73 -25 -34 -2 -376 55 -510 84 -358 80 -392 85 -522 92 -102 5 -133 9 -133 20
0 9 -14 13 -45 13 l-45 0 0 40 c0 27 -5 43 -15 46 -12 5 -15 26 -15 106 0 104
-11 168 -80 478 -43 195 -63 304 -85 470 -15 113 -17 143 -8 105 3 -11 19 -63
35 -115z m9875 108 c-3 -8 -6 -5 -6 6 -1 11 2 17 5 13 3 -3 4 -12 1 -19z m-12
-90 c-9 -97 -45 -295 -89 -498 -20 -91 -43 -196 -51 -234 -9 -40 -15 -122 -15
-197 0 -79 -4 -129 -10 -129 -5 0 -10 -20 -10 -45 0 -38 -3 -45 -20 -45 -11 0
-20 -7 -20 -15 0 -12 -18 -15 -102 -15 -149 0 -251 -14 -501 -69 -242 -54
-427 -87 -534 -96 l-68 -6 135 46 c544 186 958 568 1187 1095 23 52 54 137 70
187 15 51 30 93 32 93 2 0 0 -33 -4 -72z m-3392 -48 c14 -11 58 -77 96 -145
233 -412 484 -636 909 -810 50 -21 92 -42 92 -47 0 -12 -44 -28 -48 -17 -2 4
-9 6 -16 3 -28 -11 -243 48 -335 92 -188 88 -386 238 -530 399 -53 60 -151
202 -209 305 -38 69 -84 203 -76 224 9 24 85 21 117 -4z m-4973 -1015 c0 -8
-4 -15 -10 -15 -5 0 -10 7 -10 15 0 8 5 15 10 15 6 0 10 -7 10 -15z m744 0
c-4 -8 -8 -15 -10 -15 -2 0 -4 7 -4 15 0 8 4 15 10 15 5 0 7 -7 4 -15z m5366
0 c0 -8 -2 -15 -4 -15 -2 0 -6 7 -10 15 -3 8 -1 15 4 15 6 0 10 -7 10 -15z
m737 -7 c-3 -8 -6 -5 -6 6 -1 11 2 17 5 13 3 -3 4 -12 1 -19z m-6020 -284 c-3
-3 -12 -4 -19 -1 -8 3 -5 6 6 6 11 1 17 -2 13 -5z m5210 0 c-3 -3 -12 -4 -19
-1 -8 3 -5 6 6 6 11 1 17 -2 13 -5z m900 0 c-3 -3 -12 -4 -19 -1 -8 3 -5 6 6
6 11 1 17 -2 13 -5z"/>
</g>
</svg>
