<?xml version="1.0" standalone="no"?>
<!DOCTYPE svg PUBLIC "-//W3C//DTD SVG 20010904//EN"
 "http://www.w3.org/TR/2001/REC-SVG-20010904/DTD/svg10.dtd">
<svg version="1.0" xmlns="http://www.w3.org/2000/svg"
 width="2048.000000pt" height="2048.000000pt" viewBox="0 0 2048.000000 2048.000000"
 preserveAspectRatio="xMidYMid meet">
<metadata>
Created by potrace 1.13, written by Peter Selinger 2001-2015
</metadata>
<g transform="translate(0.000000,2048.000000) scale(0.192120,-0.192120)"
fill="#000000" stroke="none">
<path d="M7700 10035 c-207 -51 -515 -246 -866 -550 -245 -212 -776 -740 -981
-974 l-30 -34 -109 19 c-88 15 -158 19 -359 19 -271 0 -349 -10 -522 -62 -49
-15 -101 -27 -118 -26 -16 0 -75 16 -130 35 -55 20 -113 38 -129 42 -27 7 -28
6 -22 -21 14 -56 47 -76 133 -82 l78 -6 -75 -39 c-129 -67 -242 -147 -341
-243 l-96 -93 -5 63 c-7 85 -28 121 -96 164 -93 60 -179 92 -245 93 -58 0 -76
-5 -257 -76 -100 -38 -171 -46 -210 -22 -21 14 -44 61 -85 183 -50 148 -93
212 -179 269 -30 20 -58 36 -62 36 -3 0 -4 -44 -2 -97 4 -79 13 -123 47 -225
47 -142 71 -244 71 -301 0 -85 49 -123 155 -121 108 3 338 80 425 143 77 56
177 63 263 19 40 -20 167 -133 167 -149 0 -4 -16 -31 -35 -61 -104 -157 -145
-387 -145 -818 0 -169 -12 -278 -40 -357 -11 -30 -15 -33 -55 -33 -112 0 -309
57 -460 132 -212 106 -356 220 -695 552 -397 388 -584 542 -765 632 -49 25
-117 50 -151 56 -52 9 -65 8 -98 -7 -185 -88 -632 -721 -1255 -1775 l-91 -155
0 -2917 0 -2918 5000 0 5000 0 0 3473 0 3473 -106 170 c-657 1046 -1343 1924
-1808 2311 -296 247 -507 329 -716 278z m275 -266 c64 -24 203 -113 291 -187
387 -322 895 -947 1481 -1822 94 -140 203 -298 242 -350 39 -52 71 -101 71
-110 0 -8 9 -26 20 -40 19 -25 20 -52 20 -1532 0 -955 4 -1508 10 -1508 5 0
11 -119 13 -303 5 -333 8 -364 65 -617 45 -195 78 -383 87 -487 l6 -68 -41
120 c-147 431 -416 785 -780 1029 -120 81 -324 180 -465 226 -408 132 -811
131 -1231 -4 l-136 -44 5 27 c3 16 9 61 13 102 9 105 -14 165 -137 357 -122
188 -178 261 -267 343 -72 65 -207 159 -230 159 -12 0 -12 4 1 24 18 27 15 32
-41 60 -52 27 -99 22 -182 -18 -97 -47 -136 -47 -226 -1 -38 19 -148 94 -244
166 -148 110 -314 225 -420 291 -28 17 -205 78 -227 78 -19 0 -17 6 19 58 43
64 341 461 445 595 l84 107 63 0 c112 0 221 47 451 194 133 85 417 285 655
461 224 165 253 175 348 110 63 -43 180 -166 212 -222 l30 -53 0 -189 c0 -105
-4 -200 -9 -213 -81 -199 -105 -288 -82 -303 20 -12 144 223 186 355 46 141
36 268 -31 407 -63 132 -191 267 -360 381 l-61 41 -184 -141 c-253 -193 -471
-350 -684 -494 -366 -246 -518 -321 -636 -312 -44 3 -48 0 -417 -277 l-372
-280 222 -222 c179 -179 225 -220 234 -209 8 12 96 -50 468 -330 251 -189 461
-344 465 -344 4 0 61 57 126 126 l118 125 21 -33 c30 -50 832 -1311 891 -1403
272 -422 736 -1155 759 -1201 56 -107 31 -240 -58 -322 -84 -77 -11 -72 -1142
-75 l-1011 -2 -17 95 c-19 106 -44 172 -83 212 -45 47 -92 36 -179 -43 -145
-131 -319 -142 -478 -28 l-58 42 -142 -142 -142 -142 -50 11 c-127 29 -222
144 -224 270 0 55 0 56 93 308 l75 204 -82 63 c-458 359 -1882 1465 -1886
1465 -3 0 -167 -487 -365 -1082 -282 -847 -367 -1091 -390 -1122 -17 -22 -53
-54 -80 -71 -64 -40 -178 -48 -247 -17 -106 46 -168 140 -168 251 0 60 34 168
391 1234 215 643 389 1170 387 1172 -11 11 -732 547 -770 573 -58 40 -73 40
-98 0 -62 -102 6 -191 339 -442 99 -76 186 -147 192 -159 6 -12 20 -29 31 -38
16 -12 20 -32 25 -115 5 -74 14 -124 39 -198 l33 -98 -28 5 c-16 3 -91 9 -167
13 -332 16 -665 -54 -963 -202 -470 -234 -819 -639 -990 -1149 -32 -93 -41
-112 -41 -83 0 53 46 318 90 513 20 94 43 202 50 240 7 39 16 92 21 118 5 27
9 578 9 1241 0 1033 2 1195 15 1212 8 10 15 26 15 35 0 16 297 515 437 734
394 617 611 906 716 950 114 48 309 -96 867 -640 213 -208 372 -339 518 -428
48 -29 88 -61 93 -74 9 -24 141 -96 247 -134 31 -12 63 -27 71 -35 32 -29 -17
-111 -198 -333 -70 -86 -91 -139 -91 -228 l0 -63 -582 -1 c-321 0 -619 -4
-663 -8 -92 -9 -143 -30 -193 -79 -131 -131 -95 -353 72 -440 49 -25 59 -27
227 -30 l176 -4 5 50 c10 108 81 177 208 206 39 9 141 19 228 23 187 7 213 15
357 111 73 48 143 109 261 226 231 231 366 409 484 639 44 84 59 107 76 107
12 0 33 9 48 21 21 17 26 29 26 65 0 36 3 44 19 44 10 0 129 -32 264 -70 349
-99 425 -119 432 -112 20 21 -72 -176 -140 -300 -130 -233 -247 -381 -458
-582 -333 -317 -584 -500 -816 -597 l-75 -31 -31 34 c-43 50 -76 68 -121 68
-21 0 -157 -2 -301 -4 -145 -2 -263 0 -263 5 0 4 -8 8 -18 7 -9 0 -28 3 -42 6
-38 10 -121 26 -133 26 -13 0 -3 -110 13 -140 22 -41 90 -61 249 -72 197 -13
373 -6 489 22 l93 22 38 -26 37 -26 1171 0 1171 0 -67 -132 c-81 -159 -127
-276 -141 -361 l-11 -62 -647 3 c-356 2 -674 2 -707 0 l-60 -3 140 -107 c77
-58 415 -320 750 -581 l610 -475 42 125 42 125 -68 332 c-38 182 -74 363 -80
401 -9 52 -19 78 -39 99 -24 25 -24 27 -5 17 20 -10 22 -8 25 16 3 24 9 29 46
35 66 11 105 41 139 105 43 82 120 280 128 330 9 57 -8 105 -46 127 -39 23
-37 33 42 171 33 59 58 109 55 112 -9 9 -46 -9 -87 -43 -72 -60 -50 -56 -291
-55 -179 2 -283 -18 -438 -82 -47 -20 -86 -34 -88 -32 -7 7 49 104 89 156 67
86 203 214 367 348 109 89 149 128 142 135 -6 6 -46 11 -88 11 -62 -1 -86 -5
-122 -25 -82 -45 -164 -113 -312 -261 -81 -82 -162 -156 -180 -166 -30 -16
-64 -18 -373 -18 -352 1 -395 5 -395 42 0 9 39 53 88 97 159 147 329 317 343
344 8 15 44 64 81 110 217 272 379 590 365 715 -3 23 -10 60 -16 82 -6 22 -11
76 -12 120 l-1 80 -13 -50 c-13 -51 -40 -128 -50 -146 -4 -5 -21 12 -38 38
-40 59 -93 86 -269 138 -80 24 -128 43 -128 51 0 7 -18 19 -40 25 l-40 12 0
319 c0 253 3 333 16 388 12 56 90 226 162 356 27 50 171 143 245 160 17 3 38
10 47 15 29 17 335 88 450 105 97 14 150 15 335 9 341 -13 363 -12 417 12 26
12 69 41 95 66 41 38 53 43 83 40 102 -12 412 -148 610 -268 52 -31 98 -59
103 -62 4 -2 7 -2 7 1 0 3 -61 41 -136 86 -115 70 -243 135 -416 214 -44 20
-62 48 -53 84 8 32 546 571 730 731 432 377 741 560 948 561 27 0 37 4 37 16
0 19 18 16 105 -17z m-2837 -5536 c40 -7 52 -27 83 -148 17 -67 23 -119 24
-202 0 -61 -3 -115 -7 -119 -12 -11 -476 349 -518 404 -23 28 -26 58 -7 66 15
6 381 6 425 -1z m-1745 -214 c106 -54 340 -247 642 -531 94 -88 212 -195 264
-237 52 -42 128 -104 170 -138 42 -34 162 -130 268 -213 193 -152 213 -173
213 -235 0 -12 -19 -87 -41 -166 -39 -136 -41 -148 -36 -243 3 -70 10 -112 23
-136 34 -67 83 -135 144 -204 56 -63 61 -73 58 -107 l-3 -37 52 45 c51 42 55
44 96 37 95 -17 141 -1 293 97 103 67 141 79 219 68 99 -14 209 -10 291 12 43
12 92 21 107 20 25 -1 73 -24 87 -42 20 -25 87 -44 184 -53 l38 -3 33 -129
c97 -383 269 -683 546 -949 219 -210 461 -356 754 -454 75 -25 109 -41 90 -41
-47 0 -325 46 -484 80 -311 66 -253 62 -981 71 -1364 17 -2656 22 -2758 10
-53 -7 -199 -34 -325 -62 -255 -55 -419 -85 -523 -94 l-69 -6 120 41 c206 70
414 179 575 299 93 69 252 222 335 321 313 375 477 894 437 1378 -42 492 -241
917 -588 1252 -113 109 -177 160 -321 254 -57 37 -103 69 -103 72 0 2 17 12
38 23 49 26 103 26 155 0z m-1191 -60 c19 -10 14 -45 -9 -53 -8 -3 -62 -13
-121 -21 -59 -9 -125 -21 -147 -27 -22 -7 -42 -12 -45 -13 -16 -3 -117 -39
-125 -44 -5 -3 -12 -6 -15 -7 -6 -1 -37 -14 -112 -48 -117 -52 -307 -180 -398
-268 -106 -101 -237 -257 -294 -347 -54 -85 -144 -278 -174 -371 -58 -183 -64
-235 -60 -518 4 -243 6 -263 31 -356 68 -247 194 -484 361 -684 171 -203 383
-353 663 -468 48 -20 94 -42 102 -50 13 -11 11 -15 -10 -22 -13 -5 -25 -6 -27
-1 -2 4 -9 6 -16 3 -7 -3 -64 7 -126 21 -245 55 -539 241 -736 465 -112 128
-231 328 -273 459 -20 62 -21 85 -21 667 0 676 -3 647 77 801 217 416 676 753
1165 853 160 33 281 44 310 29z m6383 1 c366 -42 699 -187 976 -425 189 -163
350 -391 420 -594 18 -51 19 -94 19 -670 l0 -616 -44 -107 c-76 -187 -239
-411 -399 -548 -97 -84 -81 -72 -188 -143 -86 -57 -256 -142 -301 -151 -12 -2
-52 -12 -88 -21 -35 -10 -81 -18 -102 -19 -21 0 -38 -4 -38 -7 0 -3 -11 -4
-25 -1 -46 8 -26 29 68 67 239 98 393 195 552 347 232 222 410 525 491 840 25
96 25 104 22 391 -4 284 -5 294 -31 380 -62 201 -155 390 -272 549 -91 124
-284 313 -395 387 -89 60 -330 187 -330 174 0 -3 -6 -1 -12 4 -11 8 -77 33
-133 50 -48 14 -156 34 -232 43 -122 13 -223 12 -363 -4 -123 -15 -160 -9
-160 23 0 14 11 22 48 30 123 30 355 39 517 21z m-6202 -307 c4 -3 -38 -49
-92 -102 -85 -83 -104 -108 -141 -184 -41 -86 -296 -839 -320 -948 -7 -33 -11
-97 -8 -160 4 -89 8 -112 32 -158 41 -80 150 -182 243 -228 74 -36 81 -38 177
-38 93 0 106 3 166 31 133 64 233 161 295 284 43 87 291 836 307 928 11 67 10
87 -13 222 l-26 149 40 -22 c69 -39 200 -151 271 -233 164 -188 270 -400 323
-647 26 -117 25 -428 0 -547 -121 -569 -564 -995 -1137 -1096 -114 -20 -336
-19 -458 2 -579 98 -1037 556 -1137 1138 -20 115 -20 347 0 462 100 584 557
1038 1145 1139 79 14 322 20 333 8z m6287 -18 c560 -124 989 -569 1085 -1129
20 -115 20 -347 0 -462 -74 -429 -348 -805 -733 -1002 -205 -106 -403 -153
-639 -153 -214 1 -401 41 -583 127 -362 172 -641 496 -745 867 -9 32 -15 61
-12 64 3 2 56 -22 119 -55 165 -88 194 -94 461 -88 769 17 829 20 892 44 119
44 246 153 303 260 30 57 32 65 32 171 0 108 -1 113 -39 196 -47 101 -95 182
-290 490 -285 450 -282 447 -533 589 -27 15 -48 29 -48 31 0 8 144 47 220 61
102 18 408 12 510 -11z m-5295 -44 c71 -41 278 -258 354 -371 104 -156 177
-316 221 -484 18 -74 20 -109 20 -455 0 -401 -1 -412 -54 -573 -81 -245 -267
-530 -457 -698 -81 -71 -210 -162 -309 -218 -56 -32 -200 -94 -200 -87 0 2
-18 -2 -40 -10 -22 -8 -40 -12 -40 -10 0 2 -15 -1 -32 -6 -18 -5 -61 -12 -95
-14 -91 -6 -81 13 30 59 138 58 288 138 380 203 111 78 308 277 387 391 127
180 236 425 280 627 16 75 20 129 20 328 0 263 -7 315 -65 492 -83 255 -204
446 -437 692 -50 53 -58 66 -58 100 0 38 14 63 35 63 5 0 33 -13 60 -29z
m-2998 -873 c-3 -8 -6 -5 -6 6 -1 11 2 17 5 13 3 -3 4 -12 1 -19z m9910 0 c-3
-8 -6 -5 -6 6 -1 11 2 17 5 13 3 -3 4 -12 1 -19z m-9875 -1008 c202 -640 696
-1121 1350 -1314 46 -14 79 -25 73 -25 -34 -2 -376 55 -510 84 -358 80 -392
85 -522 92 -102 5 -133 9 -133 20 0 9 -14 13 -45 13 l-45 0 0 40 c0 27 -5 43
-15 46 -12 5 -15 26 -15 106 0 104 -11 168 -80 478 -43 195 -63 304 -85 470
-15 113 -17 143 -8 105 3 -11 19 -63 35 -115z m9875 108 c-3 -8 -6 -5 -6 6 -1
11 2 17 5 13 3 -3 4 -12 1 -19z m-12 -90 c-9 -97 -45 -295 -89 -498 -20 -91
-43 -196 -51 -234 -9 -40 -15 -122 -15 -197 0 -79 -4 -129 -10 -129 -5 0 -10
-20 -10 -45 0 -38 -3 -45 -20 -45 -11 0 -20 -7 -20 -15 0 -12 -18 -15 -102
-15 -149 0 -251 -14 -501 -69 -242 -54 -427 -87 -534 -96 l-68 -6 135 46 c544
186 958 568 1187 1095 23 52 54 137 70 187 15 51 30 93 32 93 2 0 0 -33 -4
-72z m-3392 -48 c14 -11 58 -77 96 -145 233 -412 484 -636 909 -810 50 -21 92
-42 92 -47 0 -12 -44 -28 -48 -17 -2 4 -9 6 -16 3 -28 -11 -243 48 -335 92
-188 88 -386 238 -530 399 -53 60 -151 202 -209 305 -38 69 -84 203 -76 224 9
24 85 21 117 -4z m-4973 -1015 c0 -8 -4 -15 -10 -15 -5 0 -10 7 -10 15 0 8 5
15 10 15 6 0 10 -7 10 -15z m744 0 c-4 -8 -8 -15 -10 -15 -2 0 -4 7 -4 15 0 8
4 15 10 15 5 0 7 -7 4 -15z m5366 0 c0 -8 -2 -15 -4 -15 -2 0 -6 7 -10 15 -3
8 -1 15 4 15 6 0 10 -7 10 -15z m737 -7 c-3 -8 -6 -5 -6 6 -1 11 2 17 5 13 3
-3 4 -12 1 -19z m-6020 -284 c-3 -3 -12 -4 -19 -1 -8 3 -5 6 6 6 11 1 17 -2
13 -5z m5210 0 c-3 -3 -12 -4 -19 -1 -8 3 -5 6 6 6 11 1 17 -2 13 -5z m900 0
c-3 -3 -12 -4 -19 -1 -8 3 -5 6 6 6 11 1 17 -2 13 -5z M6775 8082 c29 -32 385
-237 550 -317 145 -70 276 -127 281 -122 2 2 -25 16 -59 32 -245 112 -562 278
-677 355 -48 32 -105 63 -95 52z M4880 7189 c-47 -20 -97 -85 -86 -112 2 -7
10 3 17 21 18 43 77 72 149 72 51 0 78 -6 163 -36 59 -22 43 -6 -29 28 -71 33
-170 46 -214 27z M5220 7086 c0 -2 8 -10 18 -17 15 -13 16 -12 3 4 -13 16 -21
21 -21 13z M7813 6033 c-14 -3 -50 -43 -100 -111 -158 -217 -429 -545 -585
-708 -43 -45 -78 -84 -78 -88 0 -3 13 -6 28 -6 15 0 155 -16 310 -35 318 -40
335 -39 402 21 37 33 44 52 149 367 69 205 111 347 111 372 -1 86 -60 161
-145 184 -41 11 -53 12 -92 4z m-104 -591 c-11 -41 -59 -118 -83 -134 -18 -13
-71 -9 -91 6 -19 13 -19 16 -3 48 9 18 54 78 100 133 l83 99 3 -54 c2 -30 -2
-74 -9 -98z M6387 4839 c-21 -5 -50 -15 -65 -23 -101 -52 -251 -288 -322 -506
-25 -76 -30 -108 -30 -186 0 -99 10 -135 54 -182 40 -45 103 -64 150 -46 13 5
11 12 -14 44 -41 51 -52 85 -52 155 -1 148 119 378 338 652 41 51 74 95 74 98
0 8 -90 4 -133 -6z M6461 4618 c-17 -51 -81 -233 -142 -405 l-112 -312 52
-103 c76 -150 95 -248 95 -493 0 -211 -18 -390 -62 -605 l-27 -135 -42 -7
c-80 -13 -112 -42 -113 -99 0 -31 7 -43 45 -78 24 -22 49 -41 54 -41 8 0 22
54 46 177 l7 33 808 2 808 3 -242 380 c-403 632 -535 840 -839 1318 -159 251
-293 457 -298 457 -4 0 -21 -42 -38 -92z m54 -300 c123 -214 127 -220 138
-209 27 27 22 7 -6 -23 -18 -18 -57 -62 -88 -97 -77 -88 -129 -113 -243 -117
l-89 -4 82 92 c110 122 130 168 141 318 5 64 9 118 9 120 3 10 15 -8 56 -80z
m510 -566 c24 -15 45 -31 45 -35 0 -4 -39 -49 -88 -100 -106 -112 -161 -182
-243 -313 -111 -176 -198 -384 -249 -594 -13 -52 -24 -97 -26 -99 -6 -6 -44
31 -56 54 -23 41 -26 89 -12 198 8 62 11 131 8 154 l-6 41 87 69 86 68 -7 40
c-3 22 -11 60 -16 85 -5 25 -14 117 -19 204 -10 154 -10 160 10 187 12 16 21
32 21 37 0 17 112 92 136 92 3 0 35 -29 70 -65 52 -52 73 -67 119 -81 31 -8
59 -14 62 -11 5 6 -30 143 -52 200 -24 61 -18 56 35 -26 35 -55 63 -85 95
-105z m52 -426 c44 -38 38 -83 -23 -186 -28 -47 -73 -122 -98 -167 -58 -100
-103 -143 -151 -143 l-35 0 0 55 c0 108 146 398 223 446 41 24 50 24 84 -5z
m322 -191 c2 -87 17 -179 42 -256 25 -75 22 -94 -18 -110 -15 -6 -37 -15 -48
-20 -11 -4 -42 -15 -70 -23 -27 -9 -97 -43 -155 -75 -73 -41 -106 -55 -108
-46 -5 20 62 214 99 287 47 94 129 216 189 282 62 67 68 64 69 -39z M5527
3483 c-3 -5 5 -83 18 -174 37 -254 55 -453 61 -667 5 -195 19 -347 33 -370 11
-18 90 54 112 102 16 36 19 69 19 269 0 310 -36 636 -81 732 -11 23 -34 56
-52 73 -32 30 -100 52 -110 35z M3672 9864 c-332 -56 -683 -305 -911 -647 -76
-113 -158 -289 -186 -402 -22 -86 -32 -155 -22 -155 2 0 93 18 203 40 109 22
215 42 234 45 76 10 640 140 691 160 20 8 107 -102 202 -255 89 -143 174 -232
237 -248 106 -27 145 -20 200 36 37 37 53 65 78 135 47 130 92 418 92 591 0
43 5 53 46 99 72 80 108 159 109 237 0 78 -19 123 -82 185 -83 84 -239 150
-423 180 -117 19 -354 18 -468 -1z m463 -239 c113 -24 165 -44 165 -64 0 -10
15 -24 35 -34 43 -20 50 -47 36 -130 -16 -93 -14 -126 14 -184 l24 -53 -42
-24 c-96 -56 -335 -143 -530 -191 -56 -14 -109 -28 -119 -31 -11 -3 -23 7 -38
35 -41 72 -83 76 -317 30 -87 -17 -204 -33 -259 -36 -93 -5 -105 -4 -143 18
-34 19 -41 28 -41 54 0 17 12 48 27 70 15 22 35 52 43 68 47 85 211 240 346
326 145 93 273 141 434 161 87 12 278 3 365 -15z m33 -843 c2 -17 -2 -40 -8
-52 -9 -17 -14 -19 -33 -9 -45 24 -50 61 -9 83 36 20 46 16 50 -22z"/>
</g>
</svg>
