<?xml version="1.0" standalone="no"?>
<!DOCTYPE svg PUBLIC "-//W3C//DTD SVG 20010904//EN"
 "http://www.w3.org/TR/2001/REC-SVG-20010904/DTD/svg10.dtd">
<svg version="1.0" xmlns="http://www.w3.org/2000/svg"
 width="2048.000000pt" height="2048.000000pt" viewBox="0 0 2048.000000 2048.000000"
 preserveAspectRatio="xMidYMid meet">
<metadata>
Created by potrace 1.13, written by Peter Selinger 2001-2015
</metadata>
<g transform="translate(0.000000,2048.000000) scale(0.192120,-0.192120)"
fill="#000000" stroke="none">
<path d="M2655 7361 c-141 -35 -235 -183 -206 -323 14 -62 59 -133 108 -168
19 -14 50 -41 68 -60 35 -36 52 -46 168 -100 79 -37 204 -128 268 -197 337
-360 413 -918 214 -1558 -40 -128 -116 -329 -129 -342 -3 -3 -45 9 -93 27
-106 38 -282 82 -430 107 -135 23 -578 26 -713 5 -200 -31 -426 -93 -598 -164
-59 -24 -72 -34 -67 -48 3 -9 49 -109 101 -221 53 -112 98 -210 101 -216 3 -7
9 -13 15 -13 19 0 69 133 82 218 16 102 32 138 66 152 14 6 36 17 50 25 31 17
217 51 359 65 227 22 494 7 749 -42 126 -25 167 -21 283 26 35 14 64 24 66 23
5 -6 -85 -195 -140 -295 -31 -56 -57 -107 -57 -112 0 -22 87 -10 126 16 46 31
36 19 169 217 59 86 110 155 114 152 4 -2 26 27 48 64 68 114 169 449 214 716
12 66 25 140 29 165 5 25 9 178 10 340 1 197 5 285 11 265 24 -78 41 -227 46
-402 4 -145 9 -196 19 -204 8 -6 14 -24 14 -40 0 -52 70 -168 150 -249 123
-125 174 -140 472 -140 186 0 218 -3 218 -22 0 -6 -34 -45 -75 -87 -87 -90
-135 -160 -135 -199 1 -64 60 -178 169 -323 68 -90 494 -584 659 -764 129
-141 250 -226 322 -227 90 -1 208 123 301 316 l49 101 -3 -140 -4 -140 -57
-150 c-32 -82 -80 -212 -107 -287 -72 -205 -93 -238 -148 -238 -19 0 -21 6
-21 75 0 107 -28 171 -150 345 -25 35 -141 178 -191 235 -15 17 -154 176 -309
355 -155 179 -288 330 -294 335 -6 6 -45 48 -85 95 -41 47 -80 90 -86 95 -6 6
-79 88 -163 182 -164 185 -254 269 -333 308 -92 47 -145 29 -260 -86 -60 -62
-85 -96 -122 -172 -26 -53 -47 -100 -47 -105 0 -5 -9 -38 -20 -72 -11 -34 -20
-87 -20 -118 0 -30 -7 -78 -15 -106 -27 -94 -55 -215 -55 -241 0 -24 35 -105
45 -105 9 0 59 86 135 233 l78 149 22 -73 c35 -116 54 -145 199 -294 159 -164
290 -332 310 -400 13 -45 13 -47 -24 -117 -54 -104 -96 -238 -75 -238 7 0 421
198 428 204 3 4 -80 155 -130 236 -166 267 -453 568 -687 721 l-24 15 38 89
c21 49 56 142 79 206 l41 117 756 -864 756 -864 -37 -102 -38 -103 -74 -25
c-165 -56 -301 -189 -353 -344 -88 -266 32 -557 280 -676 128 -61 244 -75 374
-45 126 30 259 122 329 227 l25 38 323 0 323 0 6 -37 c67 -392 245 -747 515
-1027 170 -176 321 -288 530 -395 605 -310 1354 -272 1925 96 413 267 720 694
835 1166 224 908 -215 1831 -1060 2231 -414 195 -899 237 -1340 115 -87 -24
-261 -87 -274 -99 -5 -5 31 -70 84 -151 103 -158 190 -299 190 -308 0 -4 -16
-15 -36 -26 -46 -25 -74 -61 -74 -95 0 -43 38 -146 95 -260 45 -91 145 -253
449 -729 58 -92 66 -111 66 -153 0 -43 -3 -50 -26 -58 -14 -6 -112 -10 -217
-10 -181 0 -259 9 -272 30 -3 5 27 44 68 85 97 99 132 168 124 243 -8 73 -98
254 -214 432 -133 202 -222 281 -319 282 -25 1 -54 -6 -70 -17 -27 -18 -28
-17 -50 8 -17 20 -133 200 -261 406 l-15 23 -90 -88 c-286 -283 -471 -623
-548 -1004 -11 -56 -20 -104 -20 -106 0 -2 -146 -4 -325 -4 l-324 0 -29 43
-29 42 343 960 c189 528 356 997 371 1043 15 45 30 82 33 82 3 0 14 -15 24
-32 11 -18 80 -129 154 -247 l136 -214 -55 -45 c-173 -144 -394 -405 -510
-602 -74 -125 -131 -231 -127 -235 12 -12 454 -215 467 -215 12 0 -12 102 -37
160 -11 25 -38 69 -61 99 -41 54 -55 111 -31 126 6 4 17 22 25 42 15 36 125
181 183 243 83 87 144 208 158 309 4 28 10 54 14 56 5 3 64 -80 132 -185 67
-104 126 -190 129 -190 3 0 14 15 24 33 27 51 17 125 -29 217 -40 79 -56 123
-76 205 -20 87 -146 329 -212 410 -10 11 -38 46 -64 78 -57 69 -151 142 -206
159 -36 11 -45 9 -82 -11 -23 -12 -75 -55 -116 -96 -65 -65 -82 -91 -146 -222
l-73 -148 -1 165 c-1 210 -8 227 -156 382 -30 31 -54 61 -54 66 0 14 20 19
100 27 95 10 162 44 239 123 112 114 178 270 160 381 -10 66 -43 131 -86 173
-24 23 -36 29 -42 20 -4 -6 -40 -104 -81 -217 l-73 -205 -1048 0 -1048 0 -47
55 -47 54 2 138 c5 303 -47 584 -154 838 -29 70 -108 205 -120 205 -17 0 -93
-82 -104 -113 -6 -16 -11 -105 -11 -205 l0 -177 -43 95 c-55 121 -82 164 -157
243 -99 106 -238 195 -437 277 -65 27 -112 50 -105 50 16 0 518 -80 722 -115
539 -93 822 -138 865 -138 100 0 212 77 252 171 38 88 15 214 -55 293 -61 70
-56 69 -988 224 -477 80 -879 145 -893 144 -14 -1 -39 -4 -56 -8z m3275 -2587
c0 -1 -12 -33 -26 -70 -19 -50 -290 -810 -380 -1063 -3 -10 -16 0 -42 30 -111
131 -942 1078 -951 1084 -6 3 -11 9 -11 13 0 4 317 7 705 7 388 0 705 -1 705
-1z m3297 -1056 c-3 -8 -6 -5 -6 6 -1 11 2 17 5 13 3 -3 4 -12 1 -19z m103
-31 c75 -41 177 -117 223 -166 45 -49 197 -256 233 -317 15 -25 24 -54 22 -70
-3 -27 -4 -27 -33 17 -72 108 -112 156 -243 294 -78 82 -271 255 -284 255 -5
0 -8 7 -8 15 0 17 13 13 90 -28z m-708 -47 c579 -100 1031 -554 1133 -1139 19
-108 19 -344 0 -452 -76 -440 -344 -808 -734 -1008 -124 -64 -273 -114 -409
-136 -82 -14 -140 -16 -275 -12 -183 5 -292 26 -440 81 -417 158 -746 524
-856 950 l-19 76 707 0 c809 0 766 -4 851 86 50 53 80 124 80 189 0 78 -34
139 -383 687 -194 304 -361 565 -371 580 l-18 28 28 11 c199 75 478 99 706 59z
m-1512 -305 c0 -35 -203 -338 -208 -311 -2 11 -2 49 0 85 3 54 9 74 35 112 82
119 173 178 173 114z m413 -220 c51 -82 150 -238 219 -345 68 -107 128 -201
132 -207 6 -10 -81 -13 -422 -13 l-430 0 19 76 c35 136 111 300 200 432 48 70
171 213 180 210 4 -2 50 -70 102 -153z m-1972 -330 c39 -20 49 -30 44 -43 -38
-93 -39 -101 -26 -139 28 -76 152 -215 203 -228 13 -3 40 -7 60 -8 20 -1 39
-5 42 -8 11 -11 17 -114 8 -144 -8 -27 -13 -30 -53 -31 -24 -1 -49 -2 -56 -3
-7 -1 -54 -29 -105 -64 -144 -98 -197 -124 -270 -137 -153 -27 -281 31 -345
154 -23 45 -24 57 -21 157 l3 108 41 43 c23 24 44 50 47 59 3 9 41 41 84 71
95 67 164 141 189 204 l19 46 42 -6 c24 -3 66 -17 94 -31z m1459 -302 c0 -76
22 -133 64 -172 33 -31 33 -45 -4 -91 -43 -54 -60 -101 -60 -165 l0 -55 -249
0 -249 0 -7 58 c-9 70 -25 112 -65 162 -37 46 -37 60 -4 91 37 34 61 93 69
172 l7 67 249 0 249 0 0 -67z m84 -1231 c26 -40 47 -75 45 -77 -7 -6 -55 41
-103 101 -25 32 -51 64 -55 70 -9 11 -14 45 -12 73 1 14 34 -30 125 -167z
m2705 141 c-22 -58 -124 -192 -136 -179 -6 6 36 80 64 112 10 12 29 40 43 62
27 44 45 47 29 5z m-153 -210 c-10 -10 -19 5 -10 18 6 11 8 11 12 0 2 -7 1
-15 -2 -18z m-2476 -33 c9 -16 8 -18 -5 -14 -8 4 -15 12 -15 20 0 20 7 17 20
-6z M7780 6577 c-14 -7 -57 -32 -95 -54 -280 -163 -738 -270 -1330 -313 -77
-5 -178 -10 -225 -10 -61 0 -96 -6 -125 -19 -119 -55 -156 -205 -75 -303 42
-50 85 -67 213 -83 61 -7 207 -25 322 -39 116 -14 243 -31 283 -37 l74 -12
-65 -34 c-140 -74 -227 -181 -227 -279 0 -100 52 -203 295 -589 171 -271 234
-358 304 -420 73 -64 122 -115 187 -195 73 -91 119 -120 193 -120 43 0 52 3
47 15 -3 8 -50 86 -104 173 -54 86 -107 172 -116 191 -17 33 -17 34 0 27 11
-4 51 -15 89 -23 87 -19 177 -13 305 20 229 60 433 81 705 74 460 -11 833
-122 1177 -351 159 -105 278 -213 278 -250 0 -7 -9 -39 -21 -72 -25 -70 -38
-237 -20 -248 11 -7 112 78 301 253 l65 59 -100 102 c-387 393 -893 642 -1455
716 -175 23 -535 15 -705 -15 -223 -40 -462 -114 -612 -190 l-62 -31 -12 23
c-7 12 -129 206 -272 431 l-261 410 54 155 c29 86 56 159 59 163 3 3 177 -16
386 -43 209 -26 401 -48 426 -49 57 0 126 34 156 79 32 48 233 657 233 708 0
23 -5 54 -11 70 -14 38 -67 92 -106 109 -41 18 -120 18 -153 1z m-86 -400 c15
-63 -71 -251 -122 -264 -21 -5 -261 22 -380 43 -34 6 -56 32 -44 51 4 6 71 29
150 52 79 22 196 63 260 90 64 27 120 50 123 50 4 1 9 -9 13 -22z M2080 4209
c-386 -42 -756 -197 -1040 -434 -571 -477 -822 -1213 -660 -1935 32 -142 74
-260 144 -406 156 -323 378 -578 677 -779 106 -72 337 -185 454 -223 373 -123
787 -132 1153 -27 535 154 981 532 1221 1035 307 644 238 1386 -186 1983 -67
95 -299 332 -392 401 l-65 47 -15 -28 c-8 -15 -63 -122 -121 -238 -73 -144
-111 -209 -121 -206 -8 2 -31 9 -52 15 -30 8 -47 7 -93 -9 -105 -36 -134 -80
-384 -574 -212 -419 -273 -523 -298 -507 -7 4 -12 25 -12 46 0 30 49 136 223
487 274 552 308 645 254 709 -14 17 -44 36 -67 44 -22 7 -43 17 -46 21 -2 4
49 112 113 241 65 128 117 237 118 242 0 13 -188 62 -310 81 -125 19 -383 27
-495 14z m436 -569 c65 -11 119 -21 120 -23 2 -1 -135 -275 -302 -607 -168
-333 -312 -622 -320 -644 -31 -84 -11 -199 47 -269 70 -85 197 -119 308 -82
107 35 111 41 449 725 169 341 312 620 318 620 6 0 60 -51 120 -113 203 -209
318 -420 381 -697 25 -108 25 -433 0 -547 -124 -574 -563 -998 -1136 -1098
-110 -20 -344 -19 -457 0 -583 100 -1039 556 -1139 1139 -19 113 -20 347 0
457 81 467 385 859 806 1041 259 111 532 144 805 98z m992 -180 c39 -28 180
-188 202 -230 6 -11 10 -54 8 -96 l-3 -76 -60 88 c-33 49 -92 129 -132 178
-82 103 -98 129 -90 150 9 23 29 20 75 -14z m-2535 -172 c-15 -24 -30 -45 -33
-48 -3 -3 -23 -32 -45 -65 -33 -50 -40 -56 -43 -38 -5 34 23 83 86 152 61 68
80 68 35 -1z m-20 -1992 c61 -91 75 -116 63 -116 -16 0 -125 129 -150 177 -9
18 -16 44 -16 59 l0 27 18 -24 c11 -13 49 -69 85 -123z m2720 65 c-19 -38 -82
-124 -96 -129 -4 -2 -14 -10 -22 -19 -8 -8 -15 -11 -15 -7 0 10 43 79 52 82 4
2 8 10 8 18 0 8 7 17 15 20 8 4 15 13 15 21 0 7 11 25 25 39 14 14 26 30 26
37 1 7 3 4 6 -7 3 -10 -3 -35 -14 -55z m-146 -183 c-3 -8 -6 -5 -6 6 -1 11 2
17 5 13 3 -3 4 -12 1 -19z m-2471 -36 c-9 -8 -26 10 -26 26 1 15 2 15 15 -2 8
-11 13 -21 11 -24z"/>
</g>
</svg>
