<?xml version="1.0" standalone="no"?>
<!DOCTYPE svg PUBLIC "-//W3C//DTD SVG 20010904//EN"
 "http://www.w3.org/TR/2001/REC-SVG-20010904/DTD/svg10.dtd">
<svg version="1.0" xmlns="http://www.w3.org/2000/svg"
 width="2048.000000pt" height="2048.000000pt" viewBox="0 0 2048.000000 2048.000000"
 preserveAspectRatio="xMidYMid meet">
<metadata>
Created by potrace 1.13, written by Peter Selinger 2001-2015
</metadata>
<g transform="translate(0.000000,2048.000000) scale(0.192120,-0.192120)"
fill="#000000" stroke="none">
<path d="M1320 10324 c-273 -42 -463 -131 -640 -301 -176 -167 -284 -364 -332
-603 -19 -96 -19 -8084 0 -8180 44 -218 140 -404 289 -560 167 -175 365 -284
603 -332 100 -20 8084 -19 8185 1 451 90 796 436 887 891 19 96 19 8084 0
8180 -45 223 -141 407 -298 570 -156 162 -327 258 -563 318 -61 15 -367 16
-4086 18 -2211 1 -4031 0 -4045 -2z m8135 -311 c254 -71 468 -244 556 -451
l28 -67 1 -2872 c0 -1839 -3 -2873 -10 -2873 -5 0 -15 10 -21 23 -21 40 -126
162 -187 219 -117 108 -226 153 -372 152 -118 0 -171 -15 -410 -110 -273 -108
-323 -119 -555 -118 -177 0 -196 2 -278 27 -282 87 -458 265 -565 574 l-37
108 -3 343 c-3 376 -1 404 57 560 143 390 489 593 941 552 171 -15 228 -30
530 -136 122 -43 146 -47 247 -52 93 -4 122 -1 180 16 167 51 304 189 426 429
l37 72 0 162 0 162 -46 91 c-87 173 -245 346 -401 439 -218 131 -541 219 -908
248 -585 45 -1160 -129 -1605 -488 -205 -165 -441 -440 -565 -658 -72 -125
-68 -141 -60 240 l8 340 -33 79 c-62 148 -206 310 -340 380 -144 76 -321 91
-476 42 -232 -74 -425 -290 -510 -571 -14 -44 -90 -403 -169 -797 -79 -394
-151 -733 -159 -752 -17 -41 -29 -44 -53 -16 -32 37 -56 114 -386 1226 -139
466 -167 533 -298 684 -101 118 -245 209 -379 240 -75 18 -211 16 -290 -4
-202 -51 -405 -226 -513 -443 -46 -92 -75 -181 -307 -968 -111 -374 -211 -697
-223 -717 -11 -21 -27 -38 -34 -38 -20 0 -47 70 -72 185 -12 55 -80 388 -151
740 -71 352 -136 662 -145 689 -96 280 -297 492 -525 551 -79 21 -226 24 -300
6 -140 -34 -251 -109 -381 -255 -46 -53 -87 -96 -92 -96 -4 0 -6 537 -5 1193
l3 1192 24 50 c122 255 353 427 644 480 59 11 825 13 4087 12 l4015 -2 80 -22z
m-665 -2778 c589 -73 947 -286 1002 -595 22 -126 -21 -268 -111 -363 -60 -63
-120 -95 -207 -110 -88 -15 -174 3 -374 80 -175 67 -237 86 -364 108 -115 20
-356 20 -469 0 -396 -69 -702 -356 -846 -791 -67 -204 -99 -486 -81 -710 50
-623 356 -1049 849 -1182 87 -23 115 -26 286 -26 264 -1 380 25 667 152 183
82 231 95 331 90 106 -4 178 -37 252 -112 178 -183 175 -447 -8 -642 -160
-172 -425 -283 -822 -346 -187 -30 -603 -32 -760 -5 -350 61 -652 191 -920
396 -85 64 -256 232 -328 321 -261 323 -427 728 -489 1190 -19 143 -16 527 6
675 149 1026 825 1738 1776 1870 135 18 458 18 610 0z m-7457 -30 c168 -35
274 -136 338 -323 19 -55 539 -2642 539 -2681 0 -11 6 -21 13 -21 7 0 27 54
50 136 148 524 762 2571 789 2628 93 195 306 303 525 266 147 -24 278 -119
346 -247 26 -50 125 -370 372 -1203 185 -624 365 -1233 400 -1353 61 -212 70
-236 80 -225 3 2 32 144 65 314 117 607 460 2310 476 2363 59 202 192 326 381
353 303 44 542 -164 520 -455 -6 -71 -773 -3405 -813 -3532 -93 -295 -367
-468 -673 -426 -145 21 -257 74 -358 172 -77 74 -126 154 -162 262 -33 99
-656 2176 -688 2291 -11 39 -24 71 -30 73 -5 2 -18 -25 -28 -59 -38 -141 -687
-2297 -705 -2347 -26 -70 -99 -179 -151 -226 -68 -62 -158 -114 -243 -141
-101 -33 -263 -38 -365 -11 -80 22 -182 75 -243 127 -68 59 -142 175 -173 272
-14 46 -202 839 -417 1763 l-391 1680 -1 130 c-1 121 1 134 26 187 88 188 295
281 521 233z m-665 -1117 c18 -62 173 -725 347 -1473 174 -748 325 -1389 337
-1425 86 -263 282 -502 493 -601 154 -73 366 -93 528 -50 257 67 473 270 602
562 20 46 131 396 246 776 189 629 240 780 268 797 15 10 38 -4 49 -30 7 -13
100 -318 208 -677 107 -358 208 -691 224 -738 93 -283 278 -516 501 -629 172
-88 387 -108 576 -54 212 60 409 240 527 481 70 143 56 89 326 1248 103 443
143 594 178 678 16 38 17 38 33 18 10 -13 20 -49 24 -93 42 -457 114 -734 280
-1073 130 -264 271 -461 480 -671 189 -190 368 -321 590 -432 345 -171 754
-249 1162 -222 431 29 761 120 999 275 137 89 218 175 349 369 l40 58 3 -1004
2 -1005 -29 -72 c-96 -232 -295 -400 -562 -473 l-84 -23 -4035 0 -4035 0 -85
22 c-173 46 -366 166 -457 284 -58 75 -118 185 -137 249 -14 49 -16 291 -16
2569 1 2445 1 2515 19 2494 10 -12 32 -73 49 -135z"/>
</g>
</svg>
