<?xml version="1.0" standalone="no"?>
<!DOCTYPE svg PUBLIC "-//W3C//DTD SVG 20010904//EN"
 "http://www.w3.org/TR/2001/REC-SVG-20010904/DTD/svg10.dtd">
<svg version="1.0" xmlns="http://www.w3.org/2000/svg"
 width="2048.000000pt" height="2048.000000pt" viewBox="0 0 2048.000000 2048.000000"
 preserveAspectRatio="xMidYMid meet">
<metadata>
Created by potrace 1.13, written by Peter Selinger 2001-2015
</metadata>
<g transform="translate(0.000000,2048.000000) scale(0.192120,-0.192120)"
fill="#000000" stroke="none">
<path d="M3672 9864 c-332 -56 -683 -305 -911 -647 -76 -113 -158 -289 -186
-402 -22 -86 -32 -155 -22 -155 2 0 93 18 203 40 109 22 215 42 234 45 76 10
640 140 691 160 20 8 107 -102 202 -255 89 -143 174 -232 237 -248 106 -27
145 -20 200 36 37 37 53 65 78 135 47 130 92 418 92 591 0 43 5 53 46 99 72
80 108 159 109 237 0 78 -19 123 -82 185 -83 84 -239 150 -423 180 -117 19
-354 18 -468 -1z m463 -239 c113 -24 165 -44 165 -64 0 -10 15 -24 35 -34 43
-20 50 -47 36 -130 -16 -93 -14 -126 14 -184 l24 -53 -42 -24 c-96 -56 -335
-143 -530 -191 -56 -14 -109 -28 -119 -31 -11 -3 -23 7 -38 35 -41 72 -83 76
-317 30 -87 -17 -204 -33 -259 -36 -93 -5 -105 -4 -143 18 -34 19 -41 28 -41
54 0 17 12 48 27 70 15 22 35 52 43 68 47 85 211 240 346 326 145 93 273 141
434 161 87 12 278 3 365 -15z m33 -843 c2 -17 -2 -40 -8 -52 -9 -17 -14 -19
-33 -9 -45 24 -50 61 -9 83 36 20 46 16 50 -22z M2992 8633 c4 -79 13 -123 47
-225 47 -142 71 -244 71 -301 0 -85 49 -123 155 -121 108 3 338 80 425 143 77
56 177 63 263 19 40 -20 167 -133 167 -149 0 -4 -16 -31 -35 -61 -104 -157
-145 -387 -145 -819 0 -198 -13 -286 -62 -409 -90 -228 -246 -457 -487 -717
l-94 -102 -681 -3 -681 -3 -57 -28 c-216 -106 -208 -407 12 -506 40 -18 66
-21 216 -21 l171 0 6 55 c16 160 158 223 502 225 131 1 201 33 394 183 l85 65
37 -19 c72 -36 149 -20 239 51 165 130 411 479 464 659 21 72 20 112 -4 196
-11 38 -20 71 -20 73 0 6 58 -8 190 -44 220 -61 430 -127 430 -135 0 -4 -32
-30 -70 -59 -100 -72 -141 -117 -217 -233 -85 -132 -177 -245 -349 -434 -201
-220 -421 -396 -649 -521 -102 -56 -140 -81 -307 -199 -33 -23 -76 -47 -96
-53 -83 -23 -283 -4 -457 43 -49 14 -109 28 -132 32 -39 6 -43 5 -43 -14 0
-12 -1 -21 -2 -21 -2 0 -63 20 -137 45 -74 25 -136 43 -138 41 -3 -2 168 -133
379 -291 211 -158 387 -291 392 -296 4 -4 -24 -106 -64 -226 -39 -120 -74
-224 -76 -232 -3 -11 10 -12 66 -9 63 3 73 7 104 37 58 56 126 258 126 373 0
136 -116 265 -345 384 l-75 39 213 7 c185 5 298 16 360 34 14 4 17 -1 17 -26
0 -71 67 -153 147 -179 67 -22 435 -33 938 -28 369 3 499 8 528 17 53 19 101
69 119 126 l15 49 352 5 351 5 75 133 c41 73 75 135 75 137 0 3 -8 5 -17 5
-25 0 -80 -35 -120 -77 -57 -58 -89 -66 -228 -58 -129 8 -155 15 -155 44 0 18
53 75 128 136 17 15 32 33 32 41 0 9 13 32 29 52 15 20 36 57 45 81 21 54 34
201 18 201 -16 0 -190 -133 -296 -225 -226 -198 -356 -362 -356 -450 l0 -25
-793 0 -793 0 -33 28 -34 28 44 13 c124 36 380 183 549 314 216 169 547 489
645 625 158 219 310 514 370 720 14 48 30 134 35 191 16 174 64 237 180 235
125 -3 236 -71 444 -271 324 -314 482 -429 634 -465 29 -7 51 -16 50 -19 -2
-4 -171 -132 -376 -285 l-372 -278 222 -223 c179 -179 225 -220 234 -209 8 12
96 -50 468 -330 251 -189 461 -344 466 -344 5 0 82 79 171 175 129 138 167
174 183 170 12 -2 150 -21 308 -40 324 -41 341 -40 408 21 37 33 44 52 149
367 69 205 111 347 111 372 -1 117 -108 205 -225 186 -34 -5 -45 -16 -103 -96
-134 -187 -322 -418 -509 -628 l-105 -118 -43 26 c-81 47 -153 29 -262 -67
-60 -54 -99 -78 -125 -78 -47 0 -130 51 -354 217 -193 143 -307 222 -430 298
-11 7 -62 27 -114 44 -51 17 -99 35 -106 39 -10 5 11 41 77 132 123 168 437
578 449 585 5 3 31 8 57 11 27 3 62 10 79 15 17 5 40 11 51 13 33 7 92 34 157
73 284 169 428 266 742 499 152 112 219 154 249 154 31 0 81 -33 143 -93 34
-34 62 -66 62 -72 0 -7 12 -22 26 -36 54 -50 64 -86 64 -232 0 -151 -4 -169
-90 -379 -28 -71 -54 -143 -57 -162 -7 -44 18 -87 68 -116 l38 -21 45 61 c125
169 246 424 267 561 36 232 -129 504 -416 684 -76 48 -73 45 -54 56 9 5 58 41
109 80 l93 72 -104 37 c-281 99 -498 208 -904 453 -405 245 -507 295 -741 367
-268 83 -492 114 -779 107 -224 -5 -320 -18 -473 -64 -48 -15 -100 -27 -117
-26 -16 0 -75 16 -130 35 -55 20 -113 38 -129 42 -27 7 -28 6 -22 -21 14 -56
47 -76 133 -82 l78 -6 -75 -39 c-129 -67 -242 -147 -341 -243 l-96 -93 -5 63
c-7 85 -28 121 -96 164 -93 60 -179 92 -245 93 -58 0 -79 -6 -257 -75 -100
-39 -171 -47 -210 -23 -21 14 -44 61 -85 183 -50 148 -93 212 -179 269 -30 20
-58 36 -62 36 -3 0 -4 -44 -2 -97z m2713 -373 c247 -43 456 -109 645 -206 58
-29 233 -130 390 -224 157 -94 373 -215 480 -268 107 -53 206 -106 220 -118
14 -12 46 -40 72 -62 l46 -39 -97 -77 c-222 -175 -629 -466 -861 -614 -241
-154 -391 -220 -465 -206 -30 5 -30 6 -30 69 0 86 -30 127 -170 233 -120 91
-178 141 -360 307 -312 285 -438 365 -591 373 -66 4 -89 1 -128 -16 -53 -24
-146 -109 -215 -197 -54 -69 -75 -110 -92 -180 -14 -63 -49 -134 -71 -146 -15
-8 -75 5 -245 53 l-43 12 0 321 c0 248 4 335 15 385 20 84 133 314 185 372 62
71 162 125 278 152 60 14 62 13 62 -5 0 -15 5 -18 23 -14 174 40 312 66 400
76 97 11 107 14 107 32 0 19 4 20 163 14 92 -3 213 -15 282 -27z m1915 -2824
c0 -30 -28 -62 -43 -47 -6 6 -2 20 12 40 27 37 31 38 31 7z M6973 4965 c-4
-11 -8 -79 -8 -152 l0 -132 46 -88 c50 -98 217 -356 287 -445 59 -76 112 -102
192 -96 33 2 63 7 66 11 4 4 2 18 -4 31 -14 31 -527 837 -552 868 -18 23 -19
23 -27 3z M5435 4818 c-26 -57 -62 -144 -79 -195 l-31 -92 -42 54 c-70 90 -57
88 -468 98 -451 11 -721 0 -809 -33 -75 -29 -172 -121 -182 -175 -18 -96 90
-242 306 -414 52 -42 97 -78 100 -81 3 -4 23 -19 45 -35 22 -17 42 -32 45 -35
3 -4 23 -19 45 -35 22 -17 42 -32 45 -35 3 -4 23 -19 45 -35 22 -17 42 -32 45
-35 3 -4 23 -19 45 -35 22 -17 42 -32 45 -35 3 -4 23 -19 45 -35 22 -17 42
-32 45 -35 3 -4 23 -19 45 -35 22 -17 42 -32 45 -35 19 -21 133 -100 144 -100
7 0 63 -36 125 -80 158 -113 256 -168 315 -176 l49 -7 48 53 c26 29 53 66 60
82 7 17 16 25 21 20 24 -24 66 -418 77 -716 4 -119 11 -219 14 -223 4 -3 7
206 7 464 0 442 1 475 20 535 15 48 20 91 20 180 0 104 -7 150 -65 437 -67
328 -88 397 -142 462 -23 27 -28 44 -31 99 -3 56 2 85 32 178 36 112 43 152
27 152 -4 0 -30 -46 -56 -102z m-162 -375 l62 -58 83 -406 82 -406 -43 -122
-43 -122 -55 44 c-71 57 -1156 902 -1323 1029 l-128 98 651 0 652 0 62 -57z
M6418 4785 c-51 -13 -63 -20 -121 -74 -51 -48 -84 -115 -146 -299 -43 -128
-51 -164 -50 -220 1 -37 4 -56 6 -42 19 113 120 308 233 450 l20 25 -15 -37
c-23 -58 -20 -125 10 -163 l24 -33 -84 -246 c-46 -135 -83 -246 -81 -246 2 0
16 19 31 43 44 65 117 147 146 163 23 11 38 11 104 -1 42 -8 90 -15 107 -15
26 0 29 3 22 23 -7 21 -160 307 -192 357 -14 23 -13 31 24 137 21 62 41 113
44 113 3 0 32 -44 64 -98 51 -83 287 -453 472 -739 30 -46 58 -83 62 -83 5 0
22 19 38 41 40 59 37 98 -20 217 -92 189 -236 425 -308 503 -34 38 -152 121
-225 158 -50 25 -100 27 -131 5 -29 -20 -28 -10 4 31 14 18 21 35 17 38 -4 2
-29 -1 -55 -8z M3204 4431 c-100 -58 -164 -155 -164 -249 0 -51 4 -62 28 -84
28 -27 64 -48 80 -48 6 0 29 59 53 130 23 72 46 130 50 130 4 0 42 -28 86 -63
67 -55 1875 -1459 1880 -1462 1 0 -37 -106 -83 -235 -80 -219 -85 -239 -81
-295 2 -33 14 -78 25 -100 39 -77 128 -145 187 -145 25 0 26 2 21 38 -32 217
-31 283 4 394 57 174 70 231 70 296 0 60 -4 75 -37 131 -54 91 -120 160 -258
269 -66 52 -145 118 -175 146 -68 62 -103 92 -155 130 -22 17 -42 32 -45 36
-3 3 -23 18 -45 35 -22 16 -42 31 -45 35 -3 3 -23 18 -45 35 -22 16 -42 31
-45 35 -3 3 -23 18 -45 35 -22 16 -42 31 -45 35 -3 3 -23 18 -45 35 -22 16
-42 31 -45 35 -3 3 -23 18 -45 35 -22 16 -42 31 -45 35 -3 3 -23 18 -45 35
-22 16 -42 31 -45 34 -3 4 -32 26 -65 51 -33 26 -139 106 -235 180 -330 253
-378 287 -463 326 -88 40 -122 41 -183 5z M2078 4210 c-373 -40 -756 -200
-1038 -435 -571 -477 -822 -1213 -660 -1935 32 -142 74 -260 144 -406 156
-323 378 -578 677 -779 106 -72 337 -185 454 -223 373 -123 787 -132 1153 -27
535 154 981 532 1221 1035 254 532 251 1157 -8 1685 -172 351 -444 642 -783
838 -45 26 -85 47 -88 47 -7 0 -184 -530 -178 -534 1 -1 28 -18 58 -37 156
-97 332 -279 433 -446 94 -157 162 -348 188 -531 15 -107 6 -372 -16 -469
-126 -568 -565 -989 -1134 -1088 -110 -20 -344 -19 -457 0 -583 100 -1039 556
-1139 1139 -19 113 -20 347 0 457 99 570 522 1010 1090 1135 56 13 135 19 265
21 l184 2 88 262 c49 144 87 263 85 265 -21 22 -399 38 -539 24z m1550 -945
c13 -15 30 -42 38 -59 7 -17 14 -26 14 -21 2 18 19 -30 19 -55 0 -24 0 -24
-14 -5 -8 11 -18 25 -23 30 -4 6 -36 53 -71 105 -35 52 -69 99 -77 103 -8 4
-14 15 -14 24 0 15 57 -39 128 -122z m-2655 23 c-15 -24 -30 -45 -33 -48 -3
-3 -23 -32 -45 -65 -33 -50 -40 -56 -43 -38 -5 34 23 83 86 152 61 68 80 68
35 -1z m-20 -1992 c61 -91 75 -116 63 -116 -16 0 -125 129 -150 177 -9 18 -16
44 -16 59 l0 27 18 -24 c11 -13 49 -69 85 -123z m2720 65 c-19 -38 -82 -124
-96 -129 -4 -2 -14 -10 -22 -19 -8 -8 -15 -11 -15 -7 0 10 43 79 52 82 4 2 8
10 8 18 0 8 7 17 15 20 8 4 15 13 15 21 0 7 11 25 25 39 14 14 26 30 26 37 1
7 3 4 6 -7 3 -10 -3 -35 -14 -55z m-146 -183 c-3 -8 -6 -5 -6 6 -1 11 2 17 5
13 3 -3 4 -12 1 -19z m-2471 -36 c-9 -8 -26 10 -26 26 1 15 2 15 15 -2 8 -11
13 -21 11 -24z M8190 4209 c-47 -5 -132 -18 -190 -30 -107 -21 -367 -102 -397
-124 -15 -11 -6 -29 83 -166 77 -118 187 -293 199 -316 1 -1 33 9 73 22 145
49 224 60 427 60 146 0 210 -4 275 -18 569 -122 996 -564 1095 -1136 9 -47 15
-146 15 -226 0 -327 -93 -598 -296 -860 -205 -266 -522 -453 -862 -510 -82
-14 -140 -16 -275 -12 -183 5 -292 26 -440 81 -414 157 -737 513 -851 936
l-23 85 -281 3 c-155 1 -282 0 -282 -3 0 -28 58 -262 86 -345 133 -398 409
-758 764 -994 636 -424 1484 -432 2125 -19 413 267 720 694 835 1166 113 459
60 935 -151 1347 -107 210 -216 357 -390 525 -290 280 -640 455 -1039 520
-118 19 -387 27 -500 14z m1539 -934 c40 -43 81 -118 81 -146 l0 -23 -17 24
c-9 14 -23 31 -30 38 -7 7 -13 17 -13 22 0 5 -22 39 -50 75 -27 36 -50 70 -50
74 0 5 -7 11 -15 15 -8 3 -15 13 -15 23 0 13 12 5 41 -27 23 -25 53 -58 68
-75z m-2635 -2023 c26 -40 47 -75 45 -77 -7 -6 -55 41 -103 101 -25 32 -51 64
-55 70 -9 11 -14 45 -12 73 1 14 34 -30 125 -167z m2705 141 c-22 -58 -124
-192 -136 -179 -6 6 36 80 64 112 10 12 29 40 43 62 27 44 45 47 29 5z m-153
-210 c-10 -10 -19 5 -10 18 6 11 8 11 12 0 2 -7 1 -15 -2 -18z m-2476 -33 c9
-16 8 -18 -5 -14 -8 4 -15 12 -15 20 0 20 7 17 20 -6z M6665 4104 c-17 -9 -43
-34 -57 -57 -37 -57 -104 -121 -158 -149 -38 -19 -60 -23 -137 -23 -51 0 -93
-1 -93 -3 0 -1 11 -19 23 -40 38 -59 74 -160 93 -257 19 -96 26 -394 11 -467
-7 -34 -11 -38 -40 -39 -65 -1 -121 -34 -154 -89 -25 -41 -53 -208 -53 -311 0
-88 17 -127 84 -193 l50 -49 14 42 14 41 30 -25 c56 -47 111 -30 133 43 6 22
5 22 -78 22 l-84 0 24 122 c12 67 30 174 39 237 9 70 21 119 29 123 24 14 230
171 283 216 28 24 52 51 52 60 0 26 -37 76 -84 112 -25 19 -45 40 -46 45 0 6
-6 21 -13 36 -18 33 -28 124 -20 172 5 31 12 42 39 55 20 9 34 23 34 34 0 33
30 19 99 -46 70 -66 110 -85 220 -104 l42 -7 -76 -95 c-217 -270 -363 -593
-420 -923 l-6 -37 282 2 282 3 27 95 c61 213 150 376 299 548 l71 82 -48 73
c-27 39 -88 135 -137 212 -48 77 -94 151 -102 164 l-15 23 -74 -73 c-49 -49
-75 -68 -78 -58 -2 8 -14 55 -26 104 -25 100 -76 235 -114 298 -49 84 -103
111 -161 81z m420 -784 c7 -23 -7 -52 -82 -166 -60 -93 -73 -96 -73 -14 0 55
23 144 42 163 40 40 103 50 113 17z M2210 2954 c-210 -628 -212 -637 -208
-704 13 -183 192 -295 371 -234 49 16 122 79 145 124 7 14 107 309 222 655
l210 630 -56 3 c-72 4 -120 -19 -159 -78 -20 -30 -82 -199 -184 -500 -189
-559 -208 -600 -277 -600 -18 0 -36 5 -39 11 -4 6 -7 45 -6 88 1 70 12 108
126 451 205 611 222 687 174 739 -20 22 -77 51 -98 51 -5 0 -105 -286 -221
-636z M7882 3485 c-18 -19 -35 -47 -38 -61 -18 -73 67 -260 241 -529 121 -188
127 -197 237 -348 72 -98 138 -218 138 -250 0 -28 -61 -96 -93 -103 -18 -4
-286 -8 -597 -8 -545 -1 -566 -2 -604 -21 -51 -26 -73 -58 -82 -117 l-6 -48
648 -1 c357 -1 667 -1 689 0 91 6 187 76 225 163 27 62 30 155 8 208 -20 45
-695 1106 -728 1143 -4 4 -21 -8 -38 -28z M7483 3240 c-28 -11 -28 -14 -1 -59
49 -81 285 -452 340 -533 32 -48 58 -90 58 -93 0 -3 -181 -5 -401 -5 l-401 0
7 -47 c18 -128 47 -142 294 -150 210 -6 381 7 442 34 54 24 131 97 158 151 34
67 28 112 -33 237 -62 129 -207 354 -263 406 -67 64 -137 84 -200 59z M6178
2285 c-114 -97 -194 -135 -284 -135 -64 0 -164 35 -229 81 l-58 41 -354 -354
c-195 -194 -382 -387 -415 -428 -67 -82 -108 -159 -108 -203 0 -41 46 -83 111
-101 245 -68 604 10 1065 233 175 85 453 241 508 285 l27 21 -11 145 c-19 251
-49 371 -107 433 -41 42 -81 37 -145 -18z m64 -275 c42 -87 17 -128 -133 -214
-413 -235 -893 -409 -948 -342 -14 17 4 41 137 188 57 62 136 156 175 208 119
158 136 166 276 131 142 -35 250 -23 370 39 72 38 101 36 123 -10z"/>
</g>
</svg>
