<?xml version="1.0" standalone="no"?>
<!DOCTYPE svg PUBLIC "-//W3C//DTD SVG 20010904//EN"
 "http://www.w3.org/TR/2001/REC-SVG-20010904/DTD/svg10.dtd">
<svg version="1.0" xmlns="http://www.w3.org/2000/svg"
 width="2048.000000pt" height="2048.000000pt" viewBox="0 0 2048.000000 2048.000000"
 preserveAspectRatio="xMidYMid meet">
<metadata>
Created by potrace 1.13, written by Peter Selinger 2001-2015
</metadata>
<g transform="translate(0.000000,2048.000000) scale(0.192120,-0.192120)"
fill="#000000" stroke="none">
<path d="M1320 10324 c-273 -42 -463 -131 -640 -301 -176 -167 -284 -364 -332
-603 -19 -96 -19 -8084 0 -8180 44 -218 140 -404 289 -560 167 -175 365 -284
603 -332 100 -20 8084 -19 8185 1 451 90 796 436 887 891 19 96 19 8084 0
8180 -45 223 -141 407 -298 570 -156 162 -327 258 -563 318 -61 15 -367 16
-4086 18 -2211 1 -4031 0 -4045 -2z m8100 -288 c291 -70 510 -243 609 -481
l31 -74 -2 -4158 -3 -4158 -31 -70 c-124 -285 -380 -467 -709 -505 -73 -8
-1175 -10 -4055 -8 l-3955 3 -96 26 c-182 51 -356 157 -458 279 -58 70 -126
191 -152 272 -19 60 -19 133 -19 4173 0 4069 0 4112 20 4169 98 285 392 506
725 545 39 5 1859 8 4045 7 3800 -1 3978 -2 4050 -20z M5135 9454 c-423 -62
-779 -269 -1082 -629 -163 -194 -288 -453 -368 -760 -35 -138 -72 -232 -112
-285 -19 -25 -51 -79 -71 -120 l-37 -75 -3 -159 c-3 -155 -3 -162 24 -225 64
-153 156 -266 309 -381 94 -69 124 -100 251 -260 41 -52 107 -128 145 -167 58
-60 69 -77 63 -95 -10 -32 -15 -36 -165 -121 -311 -176 -466 -291 -844 -630
-149 -134 -154 -135 -355 -122 -131 9 -201 -4 -305 -55 -122 -59 -258 -198
-328 -335 l-42 -80 -3 -163 c-4 -159 -3 -165 24 -230 56 -136 174 -287 294
-378 60 -45 212 -113 301 -133 124 -28 206 -34 315 -21 245 29 471 135 739
344 54 42 105 76 114 74 10 -2 29 -41 53 -106 66 -183 128 -289 236 -398 190
-195 407 -258 922 -271 613 -14 918 48 1116 230 126 116 198 231 272 437 29
81 42 106 57 108 13 2 59 -28 125 -79 57 -44 135 -101 173 -126 99 -64 277
-148 379 -177 454 -131 896 62 1072 468 29 68 31 78 34 231 l3 160 -35 80
c-44 100 -101 179 -192 264 -146 137 -302 182 -518 151 -117 -17 -149 0 -356
190 -276 253 -466 393 -768 565 -141 80 -172 106 -172 141 0 2 30 37 67 76 36
40 102 118 146 173 138 175 147 184 225 237 180 121 293 272 347 466 14 49 17
86 13 180 -5 108 -8 123 -42 196 -20 43 -55 106 -79 140 -55 79 -70 113 -97
221 -92 380 -206 612 -425 872 -236 278 -541 468 -885 550 -90 21 -133 25
-305 28 -110 2 -213 1 -230 -1z m454 -259 c546 -105 987 -524 1141 -1085 24
-90 50 -239 50 -295 0 -35 4 -43 31 -59 85 -50 159 -164 180 -278 38 -206
-103 -414 -318 -468 -38 -10 -45 -16 -89 -95 -70 -125 -159 -238 -276 -351
-147 -141 -306 -242 -478 -305 l-65 -23 50 -13 c123 -33 336 -108 449 -159
350 -157 660 -370 976 -669 163 -153 242 -217 313 -250 48 -23 50 -23 80 -5
104 60 258 65 372 11 126 -58 212 -174 236 -318 24 -138 -38 -292 -152 -383
-205 -162 -490 -203 -764 -110 -199 67 -361 176 -616 412 -175 161 -329 291
-337 283 -2 -2 6 -55 19 -117 30 -146 33 -402 6 -512 -67 -268 -249 -402 -609
-448 -140 -18 -776 -18 -916 0 -360 46 -541 179 -609 448 -27 108 -24 365 5
513 13 62 21 115 20 117 -7 7 -177 -137 -317 -267 -216 -202 -337 -293 -496
-371 -298 -149 -602 -144 -850 13 -299 189 -277 597 41 746 53 25 70 28 164
28 98 0 110 -2 169 -31 l63 -32 57 30 c79 42 140 90 303 245 167 157 280 251
433 358 287 201 603 356 898 440 67 20 126 37 131 38 5 2 -20 14 -55 26 -302
110 -593 365 -760 668 -39 70 -41 72 -97 88 -165 48 -274 169 -304 335 -26
151 55 332 183 407 24 15 29 24 29 58 0 101 54 338 106 465 182 448 553 780
999 895 55 14 134 29 175 35 102 12 327 4 429 -15z M4094 3709 c-213 -19 -441
-84 -649 -183 -214 -103 -350 -194 -553 -375 -57 -50 -117 -98 -132 -106 -21
-11 -63 -15 -152 -15 -68 0 -153 -7 -190 -14 -228 -49 -462 -260 -560 -505
-19 -48 -23 -79 -26 -214 -4 -181 2 -210 73 -356 173 -355 489 -598 834 -642
212 -27 441 41 637 190 102 77 167 144 304 316 132 166 213 240 324 295 107
53 201 70 380 70 211 0 291 26 399 129 33 32 76 86 98 126 55 100 54 150 -11
404 -83 329 -122 439 -202 575 -45 76 -160 203 -225 248 -83 56 -181 73 -349
57z m302 -291 c109 -121 164 -245 229 -512 49 -197 71 -269 104 -334 11 -22
21 -43 21 -45 0 -10 -131 -68 -185 -82 -48 -12 -93 -14 -220 -9 -186 8 -245
-3 -383 -67 -167 -77 -296 -194 -436 -392 -116 -165 -240 -279 -378 -346 -111
-54 -214 -74 -353 -68 -99 4 -134 10 -201 34 -200 72 -381 229 -488 424 -110
200 -80 448 72 604 157 160 365 205 571 123 l53 -21 36 44 c219 268 549 498
864 604 192 64 350 92 535 94 l111 1 48 -52z M6295 3694 c-62 -27 -124 -72
-193 -143 -79 -81 -107 -121 -165 -236 -58 -117 -82 -189 -157 -480 -71 -275
-74 -322 -25 -408 36 -63 114 -148 172 -187 76 -49 130 -61 333 -70 207 -9
263 -22 374 -84 91 -51 165 -123 300 -290 226 -280 406 -414 641 -477 113 -31
307 -30 420 0 316 85 613 369 739 705 l37 98 -3 172 -3 171 -43 96 c-76 170
-227 332 -377 404 -108 52 -174 65 -329 65 -165 0 -164 0 -301 123 -308 277
-639 451 -1000 527 -141 29 -365 37 -420 14z m369 -254 c296 -58 575 -188 815
-380 92 -74 233 -212 299 -294 l31 -40 38 18 c95 46 237 59 342 31 170 -45
310 -179 362 -344 23 -75 27 -214 9 -283 -29 -105 -100 -218 -209 -332 -179
-185 -363 -263 -599 -254 -274 11 -468 136 -686 441 -126 176 -247 286 -393
357 -136 67 -210 81 -408 78 -179 -2 -237 7 -327 53 l-38 19 29 58 c37 75 52
122 106 340 67 273 119 388 231 511 l48 54 121 -6 c66 -3 169 -15 229 -27z"/>
</g>
</svg>
