<?xml version="1.0" standalone="no"?>
<!DOCTYPE svg PUBLIC "-//W3C//DTD SVG 20010904//EN"
 "http://www.w3.org/TR/2001/REC-SVG-20010904/DTD/svg10.dtd">
<svg version="1.0" xmlns="http://www.w3.org/2000/svg"
 width="2048.000000pt" height="2048.000000pt" viewBox="0 0 2048.000000 2048.000000"
 preserveAspectRatio="xMidYMid meet">
<metadata>
Created by potrace 1.13, written by Peter Selinger 2001-2015
</metadata>
<g transform="translate(0.000000,2048.000000) scale(0.192120,-0.192120)"
fill="#000000" stroke="none">
<path d="M7700 10035 c-207 -51 -515 -246 -866 -550 -245 -212 -776 -739 -981
-974 l-30 -34 -99 17 c-131 24 -469 33 -601 17 -374 -46 -663 -174 -889 -393
-232 -224 -294 -434 -294 -998 0 -163 -10 -255 -38 -355 -7 -26 -13 -30 -50
-33 -99 -7 -310 52 -467 130 -212 106 -356 220 -695 552 -397 388 -584 542
-765 632 -49 25 -117 50 -151 56 -52 9 -65 8 -98 -7 -185 -88 -632 -721 -1255
-1775 l-91 -155 0 -2917 0 -2918 5000 0 5000 0 0 3473 0 3473 -106 170 c-657
1046 -1343 1924 -1808 2311 -296 247 -507 329 -716 278z m254 -259 c225 -81
564 -390 952 -866 82 -101 218 -266 301 -367 161 -193 290 -370 509 -693 164
-243 344 -527 344 -543 0 -7 9 -25 20 -42 20 -30 20 -50 20 -1537 0 -955 4
-1508 10 -1508 5 0 11 -119 13 -303 5 -333 8 -364 65 -617 45 -195 78 -383 87
-487 l6 -68 -41 120 c-147 431 -416 785 -780 1029 -120 81 -324 180 -465 226
-408 132 -811 131 -1231 -4 l-136 -44 5 27 c3 16 9 61 13 102 5 61 2 85 -15
137 -21 61 -184 328 -259 422 -125 159 -281 270 -380 270 l-24 0 28 -47 c24
-42 742 -1175 879 -1388 274 -425 736 -1155 759 -1201 56 -107 31 -240 -58
-322 -84 -77 -11 -72 -1142 -75 l-1011 -2 -17 95 c-27 154 -77 240 -141 240
-35 0 -60 -15 -128 -77 -135 -125 -316 -133 -471 -22 l-58 42 -142 -142 -142
-142 -50 11 c-127 29 -222 144 -224 270 0 55 0 56 93 308 l75 204 -82 63
c-458 359 -1882 1465 -1886 1465 -3 0 -167 -487 -365 -1082 -282 -847 -367
-1091 -390 -1122 -17 -22 -53 -54 -80 -71 -64 -40 -178 -48 -247 -17 -106 46
-168 140 -168 251 0 60 34 168 391 1234 215 643 389 1170 387 1172 -11 11
-732 547 -770 573 -58 40 -73 40 -98 0 -61 -100 6 -190 319 -428 89 -68 176
-137 192 -154 74 -77 70 -68 76 -173 5 -73 14 -123 39 -197 l33 -98 -28 5
c-16 3 -91 9 -167 13 -332 16 -665 -54 -963 -202 -470 -234 -819 -639 -990
-1149 -32 -93 -41 -112 -41 -83 0 53 46 318 90 513 20 94 43 202 50 240 7 39
16 92 21 118 5 27 9 578 9 1241 0 1033 2 1195 15 1212 8 10 15 26 15 35 0 16
297 515 437 734 394 617 611 906 716 950 114 48 309 -96 867 -640 213 -207
375 -341 511 -423 51 -30 81 -55 85 -70 5 -17 36 -37 128 -81 66 -32 138 -66
159 -75 67 -29 47 -82 -102 -265 -122 -150 -131 -163 -146 -215 -8 -27 -15
-76 -15 -108 l0 -58 -572 -1 c-315 0 -609 -4 -653 -8 -92 -9 -143 -30 -193
-79 -131 -131 -95 -353 72 -440 49 -25 59 -27 227 -30 l176 -4 5 50 c10 108
81 177 208 206 39 9 141 19 228 23 187 7 212 15 357 111 75 49 142 108 271
236 234 235 380 433 498 675 25 52 55 100 66 108 14 10 20 25 20 55 l0 41 37
-6 c21 -4 191 -50 379 -103 l341 -98 -38 -82 c-92 -201 -230 -424 -354 -573
-73 -88 -294 -303 -444 -431 -229 -197 -497 -363 -660 -411 -43 -13 -44 -12
-66 15 -52 65 -48 64 -362 60 -156 -2 -289 -6 -294 -9 -5 -4 -9 -2 -9 3 0 5
-10 8 -23 7 -12 -1 -50 5 -85 13 -35 7 -66 12 -68 9 -12 -12 11 -83 35 -105
44 -41 89 -53 235 -64 190 -14 368 -6 484 22 l93 22 38 -26 37 -26 1169 0
c642 0 1170 -1 1172 -3 2 -2 -15 -35 -37 -72 -81 -139 -170 -367 -170 -435 0
-35 3 -41 18 -36 9 2 32 7 49 11 52 10 94 70 151 213 82 206 87 265 24 311
l-27 19 27 54 c15 29 43 81 63 116 43 74 33 78 -50 21 l-60 -41 -130 6 c-206
10 -353 -19 -542 -105 -40 -18 -75 -30 -78 -27 -3 3 2 24 10 48 38 107 200
283 448 485 81 66 147 123 147 127 0 10 -95 28 -148 28 -95 0 -245 -111 -437
-323 -48 -54 -109 -110 -134 -125 l-46 -27 -315 0 c-327 0 -360 4 -360 42 0 9
97 110 215 226 118 115 215 215 215 222 0 7 32 53 70 101 206 260 350 534 350
665 0 40 -4 51 -31 73 -16 14 -38 30 -47 35 -15 8 -14 18 12 118 15 59 32 152
37 206 10 123 34 172 99 205 56 28 98 28 180 -1 103 -37 165 -83 361 -270 256
-244 370 -337 486 -396 52 -26 53 -26 53 2 0 42 -38 85 -167 188 -70 57 -180
153 -243 214 -187 179 -237 222 -311 266 -155 92 -282 113 -381 63 -93 -47
-156 -138 -172 -245 -7 -46 -57 -129 -78 -129 -6 0 -96 25 -200 55 -104 30
-191 55 -194 55 -2 0 -4 136 -4 303 0 346 3 369 76 514 85 170 211 289 374
352 96 37 333 97 446 112 85 11 337 8 605 -7 89 -5 121 -3 204 16 88 21 104
22 164 11 132 -24 339 -124 631 -301 369 -226 557 -326 760 -405 144 -56 154
-62 181 -105 13 -22 28 -40 33 -40 5 0 43 25 84 56 l75 57 -119 42 c-259 91
-470 194 -780 381 -380 230 -426 256 -546 314 -65 32 -184 79 -263 106 -80 27
-145 52 -145 55 0 4 20 14 45 23 106 41 197 116 480 395 379 373 617 581 841
731 284 190 443 236 608 176z m-4561 -5757 c106 -54 340 -247 642 -531 181
-171 248 -227 550 -463 105 -82 199 -158 209 -167 9 -10 43 -38 76 -63 57 -44
80 -81 80 -130 0 -12 -18 -87 -41 -165 -38 -133 -41 -150 -37 -239 5 -114 30
-173 110 -257 62 -66 117 -93 191 -97 31 -1 57 -4 57 -5 0 -2 -78 -83 -173
-180 -203 -207 -272 -288 -303 -357 -29 -61 -30 -89 -4 -125 36 -50 119 -71
288 -71 253 0 516 78 907 271 170 84 403 216 434 246 12 11 10 15 -15 24 -54
21 -112 3 -324 -101 -454 -224 -668 -298 -933 -325 -69 -7 -179 9 -204 29 -19
14 -16 57 6 92 34 55 255 269 304 295 26 14 47 29 47 35 0 5 37 29 83 52 45
24 121 72 168 107 48 35 95 69 106 75 29 15 78 16 166 1 100 -17 205 -8 287
22 68 26 116 24 150 -7 36 -32 119 -65 164 -65 42 0 46 2 46 25 0 34 28 32 36
-2 83 -371 211 -650 414 -898 75 -92 246 -256 340 -326 168 -124 371 -230 575
-298 75 -25 109 -41 90 -41 -47 0 -325 46 -484 80 -311 66 -253 62 -981 71
-1364 17 -2656 22 -2758 10 -53 -7 -199 -34 -325 -62 -255 -55 -419 -85 -523
-94 l-69 -6 120 41 c206 70 414 179 575 299 93 69 252 222 335 321 313 375
477 894 437 1378 -42 492 -241 917 -588 1252 -113 109 -177 160 -321 254 -57
37 -103 69 -103 72 0 2 17 12 38 23 49 26 103 26 155 0z m-1191 -60 c19 -10
14 -45 -9 -53 -8 -3 -62 -13 -121 -21 -59 -9 -125 -21 -147 -27 -22 -7 -42
-12 -45 -13 -16 -3 -117 -39 -125 -44 -5 -3 -12 -6 -15 -7 -6 -1 -37 -14 -112
-48 -117 -52 -307 -180 -398 -268 -106 -101 -237 -257 -294 -347 -54 -85 -144
-278 -174 -371 -58 -183 -64 -235 -60 -518 4 -243 6 -263 31 -356 68 -247 194
-484 361 -684 171 -203 383 -353 663 -468 48 -20 94 -42 102 -50 13 -11 11
-15 -10 -22 -13 -5 -25 -6 -27 -1 -2 4 -9 6 -16 3 -7 -3 -64 7 -126 21 -245
55 -539 241 -736 465 -112 128 -231 328 -273 459 -20 62 -21 85 -21 667 0 676
-3 647 77 801 217 416 676 753 1165 853 160 33 281 44 310 29z m6383 1 c366
-42 699 -187 976 -425 189 -163 350 -391 420 -594 18 -51 19 -94 19 -670 l0
-616 -44 -107 c-76 -187 -239 -411 -399 -548 -97 -84 -81 -72 -188 -143 -86
-57 -256 -142 -301 -151 -12 -2 -52 -12 -88 -21 -35 -10 -81 -18 -102 -19 -21
0 -38 -4 -38 -7 0 -3 -11 -4 -25 -1 -46 8 -26 29 68 67 239 98 393 195 552
347 232 222 410 525 491 840 25 96 25 104 22 391 -4 284 -5 294 -31 380 -62
201 -155 390 -272 549 -91 124 -284 313 -395 387 -89 60 -330 187 -330 174 0
-3 -6 -1 -12 4 -11 8 -77 33 -133 50 -48 14 -156 34 -232 43 -122 13 -223 12
-363 -4 -123 -15 -160 -9 -160 23 0 14 11 22 48 30 123 30 355 39 517 21z
m-6202 -307 c4 -3 -38 -49 -92 -102 -85 -83 -104 -108 -141 -184 -41 -86 -296
-839 -320 -948 -7 -33 -11 -97 -8 -160 4 -89 8 -112 32 -158 41 -80 150 -182
243 -228 74 -36 81 -38 177 -38 93 0 106 3 166 31 133 64 233 161 295 284 43
87 291 836 307 928 11 67 10 87 -13 222 l-26 149 40 -22 c69 -39 200 -151 271
-233 164 -188 270 -400 323 -647 26 -117 25 -428 0 -547 -121 -569 -564 -995
-1137 -1096 -114 -20 -336 -19 -458 2 -579 98 -1037 556 -1137 1138 -20 115
-20 347 0 462 100 584 557 1038 1145 1139 79 14 322 20 333 8z m6287 -18 c560
-124 989 -569 1085 -1129 20 -115 20 -347 0 -462 -74 -429 -348 -805 -733
-1002 -205 -106 -403 -153 -639 -153 -214 1 -401 41 -583 127 -362 172 -641
496 -745 867 -9 32 -15 61 -12 64 3 2 56 -22 119 -55 165 -88 194 -94 461 -88
769 17 829 20 892 44 119 44 246 153 303 260 30 57 32 65 32 171 0 108 -1 113
-39 196 -47 101 -95 182 -290 490 -285 450 -282 447 -533 589 -27 15 -48 29
-48 31 0 8 144 47 220 61 102 18 408 12 510 -11z m-5295 -44 c71 -41 278 -258
354 -371 104 -156 177 -316 221 -484 18 -74 20 -109 20 -455 0 -401 -1 -412
-54 -573 -81 -245 -267 -530 -457 -698 -81 -71 -210 -162 -309 -218 -56 -32
-200 -94 -200 -87 0 2 -18 -2 -40 -10 -22 -8 -40 -12 -40 -10 0 2 -15 -1 -32
-6 -18 -5 -61 -12 -95 -14 -91 -6 -81 13 30 59 138 58 288 138 380 203 111 78
308 277 387 391 127 180 236 425 280 627 16 75 20 129 20 328 0 263 -7 315
-65 492 -83 255 -204 446 -437 692 -50 53 -58 66 -58 100 0 38 14 63 35 63 5
0 33 -13 60 -29z m-2998 -873 c-3 -8 -6 -5 -6 6 -1 11 2 17 5 13 3 -3 4 -12 1
-19z m9910 0 c-3 -8 -6 -5 -6 6 -1 11 2 17 5 13 3 -3 4 -12 1 -19z m-9875
-1008 c202 -640 696 -1121 1350 -1314 46 -14 79 -25 73 -25 -34 -2 -376 55
-510 84 -358 80 -392 85 -522 92 -102 5 -133 9 -133 20 0 9 -14 13 -45 13
l-45 0 0 40 c0 27 -5 43 -15 46 -12 5 -15 26 -15 106 0 104 -11 168 -80 478
-43 195 -63 304 -85 470 -15 113 -17 143 -8 105 3 -11 19 -63 35 -115z m9875
108 c-3 -8 -6 -5 -6 6 -1 11 2 17 5 13 3 -3 4 -12 1 -19z m-12 -90 c-9 -97
-45 -295 -89 -498 -20 -91 -43 -196 -51 -234 -9 -40 -15 -122 -15 -197 0 -79
-4 -129 -10 -129 -5 0 -10 -20 -10 -45 0 -38 -3 -45 -20 -45 -11 0 -20 -7 -20
-15 0 -12 -18 -15 -102 -15 -149 0 -251 -14 -501 -69 -242 -54 -427 -87 -534
-96 l-68 -6 135 46 c544 186 958 568 1187 1095 23 52 54 137 70 187 15 51 30
93 32 93 2 0 0 -33 -4 -72z m-3392 -48 c14 -11 58 -77 96 -145 233 -412 484
-636 909 -810 50 -21 92 -42 92 -47 0 -12 -44 -28 -48 -17 -2 4 -9 6 -16 3
-28 -11 -243 48 -335 92 -188 88 -386 238 -530 399 -53 60 -151 202 -209 305
-38 69 -84 203 -76 224 9 24 85 21 117 -4z m-4973 -1015 c0 -8 -4 -15 -10 -15
-5 0 -10 7 -10 15 0 8 5 15 10 15 6 0 10 -7 10 -15z m744 0 c-4 -8 -8 -15 -10
-15 -2 0 -4 7 -4 15 0 8 4 15 10 15 5 0 7 -7 4 -15z m5366 0 c0 -8 -2 -15 -4
-15 -2 0 -6 7 -10 15 -3 8 -1 15 4 15 6 0 10 -7 10 -15z m737 -7 c-3 -8 -6 -5
-6 6 -1 11 2 17 5 13 3 -3 4 -12 1 -19z m-6020 -284 c-3 -3 -12 -4 -19 -1 -8
3 -5 6 6 6 11 1 17 -2 13 -5z m5210 0 c-3 -3 -12 -4 -19 -1 -8 3 -5 6 6 6 11
1 17 -2 13 -5z m900 0 c-3 -3 -12 -4 -19 -1 -8 3 -5 6 6 6 11 1 17 -2 13 -5z
M7470 7274 c-322 -253 -815 -598 -1028 -718 -152 -87 -214 -110 -297 -111
l-70 -1 -373 -279 -372 -280 222 -222 c179 -179 225 -220 234 -209 8 12 97
-51 468 -330 251 -189 461 -344 465 -344 4 0 81 78 170 172 123 131 168 172
184 171 12 -2 152 -19 310 -38 324 -40 340 -39 407 21 37 33 44 52 149 367 69
205 111 347 111 372 -1 115 -109 207 -222 188 -34 -5 -45 -15 -100 -92 -137
-192 -525 -660 -625 -754 l-30 -27 -57 26 c-74 34 -103 29 -208 -32 -135 -79
-159 -72 -434 133 -386 288 -484 348 -616 378 -43 9 -78 22 -78 27 0 13 83
127 332 455 l199 262 65 -6 c62 -6 108 3 204 39 96 36 624 390 950 638 41 31
89 64 107 73 37 20 89 21 120 4 70 -40 217 -203 242 -271 6 -15 11 -92 11
-171 0 -159 -1 -165 -96 -397 -24 -59 -44 -122 -44 -141 0 -32 31 -87 50 -87
13 0 127 182 180 288 59 117 96 226 105 307 20 180 -99 411 -291 566 -65 53
-189 140 -196 138 -2 0 -68 -52 -148 -115z m267 -1696 c-6 -97 -41 -196 -88
-245 -26 -28 -37 -33 -77 -33 -64 0 -95 21 -82 56 14 35 233 304 247 304 3 0
3 -37 0 -82z M6321 4773 c-98 -54 -232 -258 -300 -460 -26 -77 -31 -108 -31
-183 0 -96 15 -145 59 -184 20 -18 111 -36 111 -22 0 4 -12 28 -26 53 -79 134
15 384 271 718 86 113 84 105 22 105 -41 0 -68 -7 -106 -27z M6456 4602 c-21
-64 -61 -178 -88 -252 -72 -195 -149 -423 -145 -427 10 -9 146 149 170 197 24
47 27 66 28 154 0 56 4 121 7 144 l7 44 64 -114 c127 -224 131 -231 150 -215
41 36 77 29 139 -28 41 -36 82 -96 168 -243 29 -51 64 -95 87 -112 l38 -28
-52 -56 c-28 -31 -54 -54 -59 -51 -4 2 -10 24 -14 47 -11 71 -66 238 -103 315
-42 87 -99 143 -144 143 -33 0 -42 -8 -150 -131 -80 -91 -129 -114 -246 -114
-51 0 -92 -2 -90 -5 1 -3 19 -37 39 -76 80 -155 110 -369 89 -642 -13 -178
-40 -373 -70 -512 -11 -47 -18 -86 -17 -88 2 -1 365 -1 809 0 l805 3 -242 380
c-427 669 -523 821 -824 1295 -162 256 -300 471 -306 477 -9 10 -20 -15 -50
-105z m257 -844 c12 -13 31 -34 43 -48 39 -48 73 -72 134 -94 l62 -23 -75 -94
c-188 -238 -319 -506 -388 -792 -12 -53 -27 -96 -33 -94 -18 6 -47 53 -55 88
-5 20 -4 84 2 143 8 83 7 119 -2 158 -7 27 -12 50 -10 52 2 2 47 36 99 76 150
117 200 161 200 178 0 9 -22 37 -50 64 -27 26 -50 56 -50 66 0 10 -5 23 -10
28 -6 6 -14 58 -17 115 l-6 105 37 24 c20 14 36 32 36 41 0 9 3 19 7 22 14 14
55 6 76 -15z m341 -399 c38 -30 59 -76 52 -112 -3 -17 -26 -62 -50 -101 -23
-39 -65 -111 -92 -159 -59 -108 -109 -157 -159 -157 l-35 0 0 53 c0 38 15 97
55 212 30 88 55 169 55 180 0 27 33 76 62 91 35 20 82 17 112 -7z m345 -224
c2 -87 17 -179 42 -256 25 -75 22 -94 -18 -110 -15 -6 -37 -15 -48 -20 -11 -4
-42 -15 -70 -23 -27 -9 -97 -43 -155 -75 -73 -41 -106 -55 -108 -46 -5 20 62
214 99 287 47 94 129 216 189 282 62 67 68 64 69 -39z M3920 4496 c0 -3 62
-52 138 -110 75 -57 412 -318 747 -579 l610 -475 42 125 42 125 -68 332 c-38
182 -74 362 -80 400 -11 63 -16 71 -64 117 -53 49 -50 57 11 40 26 -8 32 -7
32 5 0 11 -13 15 -52 16 -217 4 -1358 7 -1358 4z m1222 -270 c46 -21 106 -340
81 -428 l-8 -28 -116 88 c-171 129 -356 280 -379 309 -23 29 -26 59 -7 67 18
8 409 1 429 -8z M5530 3430 c0 -6 9 -74 20 -153 33 -238 50 -431 59 -682 5
-132 13 -250 18 -263 8 -22 9 -22 51 19 24 22 47 52 53 66 5 13 9 144 9 291 0
257 -12 420 -41 560 -14 68 -54 139 -90 157 -32 17 -79 20 -79 5z M6188 2506
c-27 -20 -22 -59 11 -90 l29 -28 11 52 c6 28 11 58 11 65 0 19 -39 19 -62 1z
M3672 9864 c-332 -56 -683 -305 -911 -647 -106 -158 -211 -421 -211 -529 0
-26 3 -29 23 -25 12 3 96 20 187 37 871 167 1421 320 1657 462 103 62 210 202
231 304 l7 35 54 -93 c30 -51 68 -110 84 -130 60 -75 269 -194 437 -248 112
-36 140 -49 140 -66 0 -37 -165 -117 -325 -159 -80 -20 -118 -24 -315 -27
l-225 -3 -119 43 c-142 51 -256 72 -385 72 l-96 -1 76 -25 c42 -14 129 -55
195 -90 354 -191 405 -209 604 -208 228 1 456 59 679 174 214 111 436 300 496
425 52 104 17 121 -154 76 -341 -90 -555 -46 -896 184 -71 49 -162 103 -201
121 -56 26 -74 40 -84 64 -18 43 -89 112 -153 149 -73 41 -215 87 -327 106
-117 19 -354 18 -468 -1z m394 -274 c162 -20 314 -77 335 -124 17 -38 -5 -81
-65 -126 -104 -79 -285 -142 -602 -209 -104 -22 -279 -60 -389 -85 -195 -43
-229 -49 -328 -61 -103 -12 -112 30 -29 142 172 231 452 412 703 453 41 6 81
13 89 15 37 7 213 4 286 -5z M2947 8667 c12 -50 77 -170 123 -229 166 -208
437 -322 690 -289 47 6 108 18 134 27 l48 17 74 -74 c83 -83 91 -81 80 24 -8
78 -32 125 -85 162 l-43 30 -191 0 c-174 0 -198 3 -259 23 -66 23 -197 96
-267 149 -101 78 -213 145 -286 173 -20 8 -22 6 -18 -13z"/>
</g>
</svg>
