<?xml version="1.0" standalone="no"?>
<!DOCTYPE svg PUBLIC "-//W3C//DTD SVG 20010904//EN"
 "http://www.w3.org/TR/2001/REC-SVG-20010904/DTD/svg10.dtd">
<svg version="1.0" xmlns="http://www.w3.org/2000/svg"
 width="2048.000000pt" height="2048.000000pt" viewBox="0 0 2048.000000 2048.000000"
 preserveAspectRatio="xMidYMid meet">
<metadata>
Created by potrace 1.13, written by Peter Selinger 2001-2015
</metadata>
<g transform="translate(0.000000,2048.000000) scale(0.192120,-0.192120)"
fill="#000000" stroke="none">
<path d="M3672 9864 c-332 -56 -683 -305 -911 -647 -76 -113 -158 -289 -186
-402 -22 -86 -32 -155 -22 -155 2 0 82 16 177 35 95 19 179 35 185 35 6 0 19
-26 29 -57 75 -243 291 -442 551 -508 123 -32 318 -23 429 21 14 5 34 -10 92
-69 111 -116 111 -116 74 -170 -65 -97 -110 -232 -131 -395 -6 -48 -14 -220
-18 -382 l-8 -295 -36 -109 c-85 -249 -275 -536 -525 -793 l-81 -82 -678 -3
-678 -3 -57 -28 c-216 -106 -208 -407 12 -506 40 -18 66 -21 218 -21 l172 0 0
-81 c0 -150 30 -175 224 -191 157 -13 441 -4 526 17 342 83 688 313 1120 745
207 207 318 362 455 640 107 215 151 350 165 509 16 174 64 237 180 235 125
-3 236 -71 444 -271 324 -314 482 -429 634 -465 29 -7 51 -16 50 -19 -2 -4
-171 -132 -376 -285 l-372 -278 57 -58 c35 -35 53 -61 48 -66 -6 -5 -44 -34
-85 -65 -300 -223 -527 -461 -566 -594 l-15 -53 -775 0 -774 0 0 -40 c0 -112
56 -137 329 -152 250 -13 1062 -5 1112 11 52 16 81 52 94 119 l12 57 392 3
392 2 -46 -85 c-72 -131 -143 -301 -162 -387 l-18 -78 -47 0 c-27 0 -48 4 -48
9 0 5 -18 36 -40 69 -67 100 -63 99 -470 106 -421 8 -630 -2 -714 -34 -75 -29
-172 -121 -182 -175 -18 -96 90 -242 306 -414 52 -42 97 -78 100 -81 3 -4 23
-19 45 -35 22 -17 42 -32 45 -35 3 -4 23 -19 45 -35 22 -17 42 -32 45 -35 3
-4 23 -19 45 -35 22 -17 42 -32 45 -35 3 -4 23 -19 45 -35 22 -17 42 -32 45
-35 3 -4 23 -19 45 -35 22 -17 42 -32 45 -35 3 -4 23 -19 45 -35 22 -17 42
-32 45 -35 25 -25 129 -97 132 -91 2 5 66 -36 143 -91 188 -134 219 -150 274
-136 69 18 125 90 144 186 10 51 0 37 -23 -33 -12 -36 -24 -65 -27 -65 -3 0
-28 20 -56 44 -53 44 -1090 852 -1321 1028 l-128 98 648 0 649 0 66 -58 67
-57 16 -90 c9 -49 44 -218 76 -375 124 -599 180 -1030 180 -1390 0 -97 12
-219 26 -263 5 -16 3 -17 -13 -8 -17 9 -65 -36 -400 -372 -208 -210 -396 -405
-416 -433 -46 -64 -76 -131 -77 -167 0 -41 46 -82 111 -101 245 -68 604 10
1065 233 176 86 454 241 509 285 l27 22 -12 149 c-20 262 -56 389 -122 438
-23 17 -33 19 -61 10 l-33 -10 22 101 c13 56 26 116 29 134 3 18 16 92 29 165
13 72 30 173 36 222 l12 91 71 49 c76 54 238 181 301 237 38 33 39 34 23 63
-32 63 -83 90 -137 75 -20 -6 -30 -5 -30 2 0 6 -13 8 -35 4 -24 -5 -35 -3 -35
5 0 7 -6 20 -14 28 -15 18 -56 204 -56 256 0 53 36 79 122 89 52 7 66 -5 118
-94 55 -95 88 -124 173 -157 l74 -28 -57 -75 c-128 -168 -244 -380 -308 -560
-29 -82 -74 -255 -87 -333 l-6 -37 282 2 282 3 27 95 c61 213 150 376 299 548
l71 82 -48 73 c-27 39 -88 135 -137 212 -48 77 -94 151 -102 164 l-15 23 -73
-72 -73 -73 -12 44 c-61 236 -107 351 -170 423 -38 42 -78 53 -119 32 l-30
-16 -112 206 -112 207 -79 -229 c-44 -126 -92 -264 -107 -308 l-27 -78 -37 45
c-48 59 -57 85 -57 165 0 124 71 281 220 492 55 77 196 258 229 293 4 4 40
-17 79 -48 39 -30 75 -55 80 -55 6 0 83 78 173 174 142 153 166 174 188 170
14 -2 153 -20 308 -40 318 -40 336 -39 403 22 37 33 44 52 149 367 69 205 111
347 111 372 -1 54 -31 117 -72 148 -32 25 -108 49 -132 42 -68 -20 -68 -21 19
110 138 208 225 405 240 542 14 125 -51 305 -158 433 -63 77 -154 155 -252
218 -87 56 -83 52 -64 63 9 5 58 41 109 80 l93 72 -104 37 c-281 99 -498 208
-904 453 -322 194 -439 258 -568 308 -290 111 -593 169 -890 169 -220 0 -438
-32 -584 -84 l-41 -15 -81 61 c-92 68 -81 70 -166 -19 -38 -40 -76 -66 -155
-104 -146 -71 -157 -72 -255 -9 -108 68 -131 73 -305 65 -166 -8 -252 5 -354
53 -75 35 -116 69 -141 116 -19 35 -19 37 -2 69 17 31 25 35 115 56 123 29
204 71 240 125 34 51 68 60 189 52 128 -8 221 -41 424 -152 212 -115 291 -148
398 -164 149 -23 377 4 567 65 134 44 349 156 465 244 126 95 238 212 274 286
50 101 15 121 -133 81 -148 -39 -198 -47 -309 -47 -197 0 -369 63 -604 224
-70 47 -161 103 -202 123 -57 28 -79 45 -88 67 -17 40 -90 110 -152 146 -73
41 -215 87 -327 106 -117 19 -354 18 -468 -1z m472 -249 c44 -9 109 -28 145
-42 110 -42 162 -53 259 -53 l92 0 0 -42 c0 -62 -47 -154 -119 -231 -117 -124
-335 -213 -851 -347 -234 -61 -522 -126 -595 -135 l-53 -7 -20 45 c-11 24 -36
70 -56 101 -38 60 -45 99 -22 131 7 11 26 43 41 70 30 53 136 185 179 222 54
47 173 140 213 166 83 57 262 118 398 136 95 13 292 6 389 -14z m697 -498
c171 -90 279 -149 283 -156 11 -17 -7 -47 -34 -59 -16 -7 -72 -22 -125 -33
-130 -26 -412 -28 -450 -3 -35 23 -32 58 8 85 17 13 70 60 117 105 114 109
111 108 201 61z m-172 -774 c22 -45 56 -78 91 -91 31 -12 74 -8 215 19 98 19
133 21 325 16 370 -10 630 -60 915 -174 132 -53 191 -85 400 -216 240 -150
452 -270 633 -358 160 -79 215 -111 280 -166 l32 -28 -84 -67 c-120 -96 -434
-326 -615 -452 -413 -286 -629 -399 -729 -380 -32 6 -33 8 -27 43 7 45 -15
121 -49 165 -14 19 -70 67 -123 107 -100 73 -179 141 -332 283 -120 111 -294
255 -370 306 -136 91 -286 116 -389 64 -73 -36 -221 -195 -264 -282 l-33 -67
0 -197 c0 -109 -2 -198 -5 -198 -10 0 -290 79 -395 111 l-104 32 30 34 c51 58
79 111 79 147 0 19 5 38 10 41 6 4 10 63 10 143 0 263 23 426 82 603 19 58 31
116 32 151 1 56 0 58 -47 101 l-48 43 73 70 c40 38 105 90 144 116 74 49 209
118 231 118 7 0 21 -17 32 -37z m2953 -1248 c43 -34 162 -175 187 -222 7 -13
11 -75 11 -157 0 -153 -4 -170 -95 -386 -75 -178 -81 -200 -61 -238 9 -17 36
-43 61 -58 27 -15 42 -31 38 -37 -77 -137 -597 -767 -632 -767 -7 0 -29 11
-49 25 -44 30 -82 31 -141 4 -38 -17 -154 -102 -199 -146 -27 -26 -59 -37
-134 -43 -84 -8 -191 -51 -182 -74 3 -7 -21 -33 -53 -58 -97 -76 -151 -137
-238 -268 -88 -134 -163 -279 -195 -382 -28 -89 -28 -245 0 -302 21 -44 92
-131 106 -131 5 -1 18 -6 29 -11 45 -25 72 -24 109 1 l36 24 23 -37 c38 -59
74 -160 92 -252 20 -105 30 -301 18 -354 -8 -37 -12 -41 -56 -52 -79 -20 -146
-76 -184 -154 -26 -54 -60 -255 -67 -400 -5 -107 -28 -209 -59 -267 -18 -34
-46 -47 -93 -41 -24 2 -31 11 -47 53 -31 84 -37 116 -37 230 0 170 -30 521
-60 710 -6 33 -10 100 -10 149 0 49 -5 118 -11 155 -46 269 -142 733 -163 783
-24 56 -20 160 8 238 116 322 121 344 90 388 -8 12 -33 31 -55 42 l-39 20 31
62 c17 34 66 119 110 190 43 71 79 132 79 136 0 4 -31 28 -68 55 -37 26 -78
56 -92 66 l-24 19 194 258 c107 142 241 318 298 391 l103 133 67 0 c162 1 328
92 870 480 409 293 401 289 484 225z m-3352 -515 c38 -11 70 -27 73 -35 12
-29 -22 -106 -100 -229 -69 -108 -132 -185 -300 -367 -245 -265 -445 -420
-720 -557 -134 -67 -217 -97 -316 -112 -75 -12 -394 -13 -399 -1 -5 11 -127
59 -176 70 -24 5 -46 12 -50 15 -8 9 15 92 34 121 26 40 101 83 175 100 38 8
140 18 227 22 184 7 223 19 357 108 46 30 86 55 89 55 3 0 27 -13 53 -30 77
-49 127 -40 260 47 83 54 230 203 308 312 20 27 40 51 44 53 12 4 122 181 187
301 31 56 65 112 77 125 27 29 85 29 177 2z m1334 -1050 c38 -70 15 -167 -51
-217 -29 -22 -43 -26 -91 -24 -62 2 -109 18 -117 39 -3 7 26 46 63 86 37 40
90 98 117 130 40 46 51 54 55 39 3 -10 14 -34 24 -53z m2021 -120 c-17 -33
-48 -50 -77 -42 -31 8 -20 45 35 110 l52 63 3 -50 c2 -32 -3 -61 -13 -81z
m-1075 -1426 c11 -12 -83 -84 -130 -99 -82 -27 -89 -18 -35 47 25 31 54 59 63
62 19 5 94 -2 102 -10z m521 -634 c22 -12 25 -47 6 -81 -21 -41 -127 -198
-137 -204 -6 -4 -10 47 -10 134 0 123 2 141 18 150 22 14 98 14 123 1z m-855
-1282 c8 -200 10 -196 -103 -261 -248 -142 -587 -289 -766 -332 -125 -29 -161
-29 -165 3 -3 17 15 43 70 100 128 133 296 334 356 424 26 40 52 131 52 187 0
23 4 31 13 28 126 -56 144 -61 222 -61 95 0 158 24 245 97 l55 46 7 -32 c3
-18 10 -107 14 -199z M2000 5266 c0 -3 172 -134 383 -292 210 -158 386 -290
391 -295 4 -4 -24 -106 -64 -226 -39 -120 -74 -224 -76 -232 -3 -11 10 -12 66
-9 63 3 73 7 105 38 62 60 131 278 123 388 -3 51 -10 68 -43 111 -56 73 -118
112 -295 184 -218 90 -250 108 -342 193 -49 44 -106 86 -142 103 -67 32 -106
45 -106 37z M6985 4949 c-14 -57 -21 -176 -13 -233 10 -76 53 -161 183 -361
181 -277 219 -311 335 -303 33 2 63 7 66 11 4 4 2 18 -4 31 -13 30 -492 784
-533 840 -27 37 -28 38 -34 15z M6537 4684 c-7 -7 64 -123 296 -484 94 -146
190 -295 213 -332 24 -38 46 -68 49 -68 16 0 65 87 65 116 0 78 -204 458 -327
612 -67 82 -265 187 -296 156z M6436 4585 c-9 -26 -7 -32 5 -12 6 10 9 21 6
23 -2 3 -7 -2 -11 -11z M3204 4431 c-100 -58 -164 -155 -164 -249 0 -51 4 -62
28 -84 28 -27 64 -48 80 -48 6 0 29 59 53 130 23 72 46 130 50 130 4 0 42 -28
86 -63 67 -55 1875 -1459 1880 -1462 1 0 -37 -106 -83 -235 -80 -219 -85 -239
-81 -295 7 -97 64 -182 149 -226 70 -36 68 -39 61 149 -6 167 -6 169 25 273
45 153 65 264 58 318 -15 112 -108 232 -296 381 -83 67 -241 201 -270 230 -3
3 -23 18 -45 35 -22 16 -42 31 -45 35 -3 3 -23 18 -45 35 -22 16 -42 31 -45
35 -3 3 -23 18 -45 35 -22 16 -42 31 -45 35 -3 3 -23 18 -45 35 -22 16 -42 31
-45 35 -3 3 -23 18 -45 35 -22 16 -42 31 -45 35 -3 3 -23 18 -45 35 -22 16
-42 31 -45 35 -3 3 -23 18 -45 35 -22 16 -42 31 -45 34 -3 4 -32 26 -65 51
-33 26 -139 106 -235 180 -330 253 -378 287 -463 326 -88 40 -122 41 -183 5z
M2078 4210 c-373 -40 -756 -200 -1038 -435 -571 -477 -822 -1213 -660 -1935
32 -142 74 -260 144 -406 156 -323 378 -578 677 -779 106 -72 337 -185 454
-223 373 -123 787 -132 1153 -27 535 154 981 532 1221 1035 254 532 251 1157
-8 1685 -172 351 -444 642 -783 838 -45 26 -85 47 -88 47 -7 0 -184 -530 -178
-534 1 -1 28 -18 58 -37 156 -97 332 -279 433 -446 94 -157 162 -348 188 -531
15 -107 6 -372 -16 -469 -126 -568 -565 -989 -1134 -1088 -110 -20 -344 -19
-457 0 -583 100 -1039 556 -1139 1139 -19 113 -20 347 0 457 99 570 522 1010
1090 1135 56 13 135 19 265 21 l184 2 88 262 c49 144 87 263 85 265 -21 22
-399 38 -539 24z m1550 -945 c13 -15 30 -42 38 -59 7 -17 14 -26 14 -21 2 18
19 -30 19 -55 0 -24 0 -24 -14 -5 -8 11 -18 25 -23 30 -4 6 -36 53 -71 105
-35 52 -69 99 -77 103 -8 4 -14 15 -14 24 0 15 57 -39 128 -122z m-2655 23
c-15 -24 -30 -45 -33 -48 -3 -3 -23 -32 -45 -65 -33 -50 -40 -56 -43 -38 -5
34 23 83 86 152 61 68 80 68 35 -1z m-20 -1992 c61 -91 75 -116 63 -116 -16 0
-125 129 -150 177 -9 18 -16 44 -16 59 l0 27 18 -24 c11 -13 49 -69 85 -123z
m2720 65 c-19 -38 -82 -124 -96 -129 -4 -2 -14 -10 -22 -19 -8 -8 -15 -11 -15
-7 0 10 43 79 52 82 4 2 8 10 8 18 0 8 7 17 15 20 8 4 15 13 15 21 0 7 11 25
25 39 14 14 26 30 26 37 1 7 3 4 6 -7 3 -10 -3 -35 -14 -55z m-146 -183 c-3
-8 -6 -5 -6 6 -1 11 2 17 5 13 3 -3 4 -12 1 -19z m-2471 -36 c-9 -8 -26 10
-26 26 1 15 2 15 15 -2 8 -11 13 -21 11 -24z M8190 4209 c-47 -5 -132 -18
-190 -30 -107 -21 -367 -102 -397 -124 -15 -11 -6 -29 83 -166 77 -118 187
-293 199 -316 1 -1 33 9 73 22 145 49 224 60 427 60 146 0 210 -4 275 -18 569
-122 996 -564 1095 -1136 9 -47 15 -146 15 -226 0 -327 -93 -598 -296 -860
-205 -266 -522 -453 -862 -510 -82 -14 -140 -16 -275 -12 -183 5 -292 26 -440
81 -414 157 -737 513 -851 936 l-23 85 -281 3 c-155 1 -282 0 -282 -3 0 -28
58 -262 86 -345 133 -398 409 -758 764 -994 636 -424 1484 -432 2125 -19 413
267 720 694 835 1166 113 459 60 935 -151 1347 -107 210 -216 357 -390 525
-290 280 -640 455 -1039 520 -118 19 -387 27 -500 14z m1539 -934 c40 -43 81
-118 81 -146 l0 -23 -17 24 c-9 14 -23 31 -30 38 -7 7 -13 17 -13 22 0 5 -22
39 -50 75 -27 36 -50 70 -50 74 0 5 -7 11 -15 15 -8 3 -15 13 -15 23 0 13 12
5 41 -27 23 -25 53 -58 68 -75z m-2635 -2023 c26 -40 47 -75 45 -77 -7 -6 -55
41 -103 101 -25 32 -51 64 -55 70 -9 11 -14 45 -12 73 1 14 34 -30 125 -167z
m2705 141 c-22 -58 -124 -192 -136 -179 -6 6 36 80 64 112 10 12 29 40 43 62
27 44 45 47 29 5z m-153 -210 c-10 -10 -19 5 -10 18 6 11 8 11 12 0 2 -7 1
-15 -2 -18z m-2476 -33 c9 -16 8 -18 -5 -14 -8 4 -15 12 -15 20 0 20 7 17 20
-6z M2210 2954 c-210 -628 -212 -637 -208 -704 13 -183 192 -295 371 -234 49
16 122 79 145 124 7 14 107 309 222 655 l210 630 -56 3 c-72 4 -120 -19 -159
-78 -20 -30 -82 -199 -184 -500 -189 -559 -208 -600 -277 -600 -18 0 -36 5
-39 11 -4 6 -7 45 -6 88 1 70 12 108 126 451 205 611 222 687 174 739 -20 22
-77 51 -98 51 -5 0 -105 -286 -221 -636z M7882 3485 c-18 -19 -35 -47 -38 -61
-18 -73 67 -260 241 -529 121 -188 127 -197 237 -348 72 -98 138 -218 138
-250 0 -28 -61 -96 -93 -103 -18 -4 -286 -8 -597 -8 -545 -1 -566 -2 -604 -21
-51 -26 -73 -58 -82 -117 l-6 -48 648 -1 c357 -1 667 -1 689 0 91 6 187 76
225 163 27 62 30 155 8 208 -20 45 -695 1106 -728 1143 -4 4 -21 -8 -38 -28z
M7483 3240 c-28 -11 -28 -14 -1 -59 49 -81 285 -452 340 -533 32 -48 58 -90
58 -93 0 -3 -181 -5 -401 -5 l-401 0 7 -47 c18 -128 47 -142 294 -150 210 -6
381 7 442 34 54 24 131 97 158 151 34 67 28 112 -33 237 -62 129 -207 354
-263 406 -67 64 -137 84 -200 59z M6367 2539 c8 -8 16 -8 30 0 16 9 14 10 -11
11 -22 0 -27 -3 -19 -11z"/>
</g>
</svg>
