<?xml version="1.0" standalone="no"?>
<!DOCTYPE svg PUBLIC "-//W3C//DTD SVG 20010904//EN"
 "http://www.w3.org/TR/2001/REC-SVG-20010904/DTD/svg10.dtd">
<svg version="1.0" xmlns="http://www.w3.org/2000/svg"
 width="2048.000000pt" height="2048.000000pt" viewBox="0 0 2048.000000 2048.000000"
 preserveAspectRatio="xMidYMid meet">
<metadata>
Created by potrace 1.13, written by Peter Selinger 2001-2015
</metadata>
<g transform="translate(0.000000,2048.000000) scale(0.192120,-0.192120)"
fill="#000000" stroke="none">
<path d="M3672 9864 c-332 -56 -683 -305 -911 -647 -76 -113 -158 -289 -186
-402 -22 -86 -32 -155 -22 -155 24 0 763 153 942 195 353 83 672 183 858 268
42 20 77 34 77 31 0 -3 -20 -39 -44 -82 -72 -127 -103 -193 -140 -300 -57
-165 -73 -185 -124 -158 -15 8 -64 50 -110 95 -49 48 -105 92 -140 110 -60 30
-127 49 -121 35 4 -9 156 -242 207 -317 38 -57 115 -122 160 -135 21 -7 65
-12 97 -12 56 0 60 2 105 48 85 86 139 289 162 611 l12 166 44 50 c70 79 106
158 107 235 0 78 -19 123 -82 185 -83 84 -239 150 -423 180 -117 19 -354 18
-468 -1z m519 -287 c53 -14 115 -35 138 -46 37 -19 41 -25 41 -59 0 -68 -86
-174 -180 -222 -110 -56 -321 -117 -473 -136 -65 -8 -155 -23 -200 -33 -600
-140 -673 -133 -537 47 112 149 290 297 457 381 74 37 211 78 303 91 116 16
342 4 451 -23z M2993 8602 c3 -38 24 -124 47 -195 46 -142 70 -243 70 -300 0
-144 156 -160 441 -47 53 21 115 52 138 68 50 36 127 56 184 48 43 -7 117 -46
175 -92 l32 -27 0 46 c0 88 -30 131 -125 179 -42 22 -79 32 -125 36 -70 5 -71
4 -313 -88 -95 -35 -115 -40 -160 -34 -29 4 -58 11 -65 17 -17 13 -35 54 -73
162 -17 50 -40 108 -51 130 -32 65 -138 165 -174 165 -4 0 -4 -31 -1 -68z
M5065 8504 c-345 -52 -617 -179 -831 -386 -232 -224 -294 -434 -294 -998 0
-199 -13 -287 -60 -406 -92 -231 -245 -457 -484 -717 -50 -54 -92 -102 -94
-106 -5 -14 88 -33 122 -25 53 11 101 41 157 96 160 157 327 401 379 553 26
77 25 128 -5 222 -14 43 -25 83 -25 90 0 8 27 4 88 -12 134 -36 572 -162 617
-178 l40 -14 -100 -65 c-125 -82 -177 -133 -257 -256 -71 -106 -118 -165 -277
-347 -201 -230 -353 -360 -641 -550 -178 -118 -211 -144 -237 -192 -15 -27
-17 -93 -3 -93 5 0 40 11 77 25 149 56 359 187 548 342 155 126 417 374 501
474 122 144 260 364 341 544 17 39 43 96 57 127 42 95 76 227 86 337 16 174
64 237 180 235 125 -3 236 -71 444 -271 324 -314 482 -429 634 -465 29 -7 51
-16 50 -19 -2 -4 -171 -132 -376 -285 l-372 -278 222 -223 c179 -179 225 -220
234 -209 8 12 96 -50 468 -330 251 -189 461 -344 466 -344 4 0 82 79 171 175
129 138 167 174 183 170 12 -2 150 -21 308 -40 324 -41 341 -40 408 21 37 33
44 52 149 367 69 205 111 347 111 372 -1 117 -108 205 -225 186 -34 -5 -45
-16 -103 -96 -134 -187 -322 -418 -509 -628 l-105 -118 -43 26 c-50 29 -111
33 -154 11 -15 -8 -65 -44 -110 -80 -90 -72 -116 -79 -174 -50 -18 9 -129 90
-247 179 -235 176 -427 309 -505 347 -27 14 -83 35 -122 47 -69 21 -72 23 -61
44 23 45 489 660 508 672 5 3 31 8 57 11 27 3 62 10 79 15 17 5 40 11 51 13
33 7 92 34 157 73 284 169 428 266 742 499 152 112 219 154 249 154 31 0 81
-33 143 -93 34 -34 62 -66 62 -72 0 -7 12 -22 26 -36 54 -50 64 -86 64 -232 0
-151 -4 -169 -90 -379 -28 -71 -54 -143 -57 -162 -7 -44 18 -87 68 -116 l38
-21 45 61 c125 169 246 424 267 561 36 232 -129 504 -416 684 -76 48 -73 45
-54 56 9 5 58 41 109 80 l93 72 -104 37 c-281 99 -498 208 -904 453 -165 100
-342 203 -393 229 -221 112 -503 196 -785 233 -146 19 -457 18 -582 -1z m640
-244 c247 -43 456 -109 645 -206 58 -29 233 -130 390 -224 157 -94 373 -215
480 -268 107 -53 206 -106 220 -118 14 -12 46 -40 72 -62 l46 -39 -97 -77
c-222 -175 -629 -466 -861 -614 -241 -154 -391 -220 -465 -206 -30 5 -30 6
-30 69 0 86 -30 127 -170 233 -120 91 -178 141 -360 307 -312 285 -438 365
-591 373 -102 5 -150 -14 -235 -95 -117 -111 -188 -218 -205 -309 -9 -48 -52
-104 -80 -104 -16 0 -160 37 -256 66 -17 5 -18 28 -18 308 0 340 4 368 70 501
92 186 230 311 413 374 54 19 57 19 57 2 0 -16 11 -15 132 16 73 19 193 41
265 50 120 15 133 19 133 36 0 19 6 20 163 14 92 -3 213 -15 282 -27z m1915
-2824 c0 -30 -28 -62 -43 -47 -6 6 -2 20 12 40 27 37 31 38 31 7z M4422 8488
c24 -37 61 -49 140 -46 l73 3 -98 33 c-53 17 -104 32 -113 32 -15 0 -15 -2 -2
-22z M1928 5876 c-128 -34 -208 -141 -208 -275 1 -102 66 -200 165 -247 47
-22 62 -24 223 -24 l172 0 0 42 c0 55 32 120 76 153 73 56 214 84 429 85 105
1 161 20 265 90 68 45 240 179 240 186 0 2 -296 4 -657 3 -497 0 -669 -3 -705
-13z M5320 5674 c-308 -231 -540 -489 -540 -599 l0 -25 -788 0 -787 0 -38 26
-38 25 -82 -21 c-150 -40 -582 -37 -680 3 -49 21 -74 52 -87 108 -10 43 -14
47 -30 39 -10 -6 -29 -10 -42 -10 -21 0 -136 27 -194 46 -32 10 23 -34 396
-313 195 -146 359 -269 364 -273 4 -5 -24 -107 -64 -227 -39 -120 -74 -224
-76 -232 -3 -11 10 -12 66 -9 60 3 73 7 101 33 38 36 69 103 105 227 40 135
38 203 -9 297 -20 40 -37 84 -37 96 0 21 6 24 66 30 89 10 144 2 238 -35 72
-29 96 -33 250 -42 93 -5 420 -8 725 -6 628 5 588 0 741 88 l91 53 166 9 c178
10 183 9 183 -39 0 -39 -50 -151 -82 -182 l-29 -29 -497 5 c-522 6 -636 0
-715 -35 -86 -39 -187 -154 -187 -214 0 -15 11 -52 25 -81 45 -98 136 -200
295 -326 52 -42 97 -78 100 -81 3 -4 23 -19 45 -35 22 -17 42 -32 45 -35 3 -4
23 -19 45 -35 22 -17 42 -32 45 -35 3 -4 23 -19 45 -35 22 -17 42 -32 45 -35
3 -4 23 -19 45 -35 22 -17 42 -32 45 -35 3 -4 23 -19 45 -35 22 -17 42 -32 45
-35 3 -4 23 -19 45 -35 22 -17 42 -32 45 -35 3 -4 23 -19 45 -35 22 -17 42
-32 45 -36 3 -3 30 -24 60 -47 30 -22 108 -81 172 -129 130 -98 205 -140 282
-157 l51 -11 3 -180 c2 -170 4 -181 23 -196 19 -14 22 -30 28 -140 4 -68 12
-134 19 -146 7 -12 12 -30 12 -41 0 -19 84 -112 101 -112 5 0 7 17 4 38 -2 20
-7 127 -10 237 -7 234 -16 345 -52 629 l-26 209 39 36 c62 57 67 73 62 207 -4
91 -16 172 -52 344 -72 342 -85 372 -184 426 l-57 32 3 48 c1 27 14 84 28 127
32 95 161 358 261 530 41 71 73 131 70 133 -12 12 -89 -19 -118 -49 -35 -35
-79 -120 -79 -154 0 -12 -4 -33 -10 -47 l-10 -26 -285 0 c-168 0 -285 4 -285
9 0 5 11 18 24 28 12 10 79 71 147 134 68 64 149 138 180 165 105 92 143 170
137 282 l-3 62 -75 -56z m-46 -1231 c48 -43 66 -67 71 -93 3 -19 40 -201 80
-405 l74 -370 -42 -123 -43 -124 -55 45 c-71 57 -1156 902 -1323 1029 l-128
98 651 0 652 0 63 -57z M6977 4970 c-12 -34 -18 -93 -18 -177 -1 -126 15 -161
199 -443 177 -271 216 -306 332 -298 33 2 63 7 66 11 12 12 -6 42 -276 466
-286 450 -296 464 -303 441z M6438 4734 c-144 -175 -291 -428 -317 -544 -25
-110 -8 -197 51 -257 l31 -33 24 68 c54 155 126 342 133 342 3 0 16 -24 28
-53 36 -86 77 -115 190 -132 l43 -7 -32 64 c-17 34 -63 119 -102 188 l-69 124
38 113 c22 62 41 113 44 113 3 0 32 -44 64 -98 51 -83 287 -453 472 -739 30
-46 58 -83 62 -83 5 0 22 19 38 41 20 30 28 53 28 81 -3 86 -250 528 -360 643
-22 23 -75 66 -120 98 -45 31 -104 77 -132 102 l-51 46 -63 -77z M3225 4453
c-109 -59 -185 -170 -185 -270 0 -52 3 -63 28 -85 28 -27 64 -48 80 -48 6 0
29 59 53 130 23 72 46 130 50 130 4 0 42 -28 86 -63 67 -55 1875 -1459 1880
-1462 1 0 -37 -106 -83 -235 -80 -219 -85 -239 -81 -295 2 -33 14 -78 25 -100
39 -77 128 -145 188 -145 24 0 26 3 20 28 -3 15 -9 97 -12 182 l-6 155 56 158
c68 192 71 233 25 316 -54 97 -138 188 -263 289 -66 53 -123 99 -126 102 -3 3
-23 18 -45 35 -22 16 -42 31 -45 35 -3 3 -23 18 -45 35 -22 16 -42 31 -45 35
-3 3 -23 18 -45 35 -22 16 -42 31 -45 35 -3 3 -23 18 -45 35 -22 16 -42 31
-45 35 -3 3 -23 18 -45 35 -22 16 -42 31 -45 35 -3 3 -23 18 -45 35 -22 16
-42 31 -45 35 -3 3 -23 18 -45 35 -22 16 -42 31 -45 35 -3 3 -23 18 -45 35
-22 16 -42 31 -45 35 -3 3 -23 19 -45 35 -22 16 -47 35 -55 42 -22 18 -219
169 -435 334 -233 179 -275 207 -345 236 -65 27 -94 28 -135 6z M2078 4210
c-373 -40 -756 -200 -1038 -435 -571 -477 -822 -1213 -660 -1935 32 -142 74
-260 144 -406 156 -323 378 -578 677 -779 106 -72 337 -185 454 -223 373 -123
787 -132 1153 -27 535 154 981 532 1221 1035 254 532 251 1157 -8 1685 -172
351 -444 642 -783 838 -45 26 -85 47 -88 47 -7 0 -184 -530 -178 -534 1 -1 28
-18 58 -37 156 -97 332 -279 433 -446 94 -157 162 -348 188 -531 15 -107 6
-372 -16 -469 -126 -568 -565 -989 -1134 -1088 -110 -20 -344 -19 -457 0 -583
100 -1039 556 -1139 1139 -19 113 -20 347 0 457 99 570 522 1010 1090 1135 56
13 135 19 265 21 l184 2 88 262 c49 144 87 263 85 265 -21 22 -399 38 -539 24z
m1550 -945 c13 -15 30 -42 38 -59 7 -17 14 -26 14 -21 2 18 19 -30 19 -55 0
-24 0 -24 -14 -5 -8 11 -18 25 -23 30 -4 6 -36 53 -71 105 -35 52 -69 99 -77
103 -8 4 -14 15 -14 24 0 15 57 -39 128 -122z m-2655 23 c-15 -24 -30 -45 -33
-48 -3 -3 -23 -32 -45 -65 -33 -50 -40 -56 -43 -38 -5 34 23 83 86 152 61 68
80 68 35 -1z m-20 -1992 c61 -91 75 -116 63 -116 -16 0 -125 129 -150 177 -9
18 -16 44 -16 59 l0 27 18 -24 c11 -13 49 -69 85 -123z m2720 65 c-19 -38 -82
-124 -96 -129 -4 -2 -14 -10 -22 -19 -8 -8 -15 -11 -15 -7 0 10 43 79 52 82 4
2 8 10 8 18 0 8 7 17 15 20 8 4 15 13 15 21 0 7 11 25 25 39 14 14 26 30 26
37 1 7 3 4 6 -7 3 -10 -3 -35 -14 -55z m-146 -183 c-3 -8 -6 -5 -6 6 -1 11 2
17 5 13 3 -3 4 -12 1 -19z m-2471 -36 c-9 -8 -26 10 -26 26 1 15 2 15 15 -2 8
-11 13 -21 11 -24z M8190 4209 c-47 -5 -132 -18 -190 -30 -107 -21 -367 -102
-397 -124 -15 -11 -6 -29 83 -166 77 -118 187 -293 199 -316 1 -1 33 9 73 22
145 49 224 60 427 60 146 0 210 -4 275 -18 569 -122 996 -564 1095 -1136 9
-47 15 -146 15 -226 0 -327 -93 -598 -296 -860 -205 -266 -522 -453 -862 -510
-82 -14 -140 -16 -275 -12 -183 5 -292 26 -440 81 -414 157 -737 513 -851 936
l-23 85 -281 3 c-155 1 -282 0 -282 -3 0 -28 58 -262 86 -345 133 -398 409
-758 764 -994 636 -424 1484 -432 2125 -19 413 267 720 694 835 1166 113 459
60 935 -151 1347 -107 210 -216 357 -390 525 -290 280 -640 455 -1039 520
-118 19 -387 27 -500 14z m1539 -934 c40 -43 81 -118 81 -146 l0 -23 -17 24
c-9 14 -23 31 -30 38 -7 7 -13 17 -13 22 0 5 -22 39 -50 75 -27 36 -50 70 -50
74 0 5 -7 11 -15 15 -8 3 -15 13 -15 23 0 13 12 5 41 -27 23 -25 53 -58 68
-75z m-2635 -2023 c26 -40 47 -75 45 -77 -7 -6 -55 41 -103 101 -25 32 -51 64
-55 70 -9 11 -14 45 -12 73 1 14 34 -30 125 -167z m2705 141 c-22 -58 -124
-192 -136 -179 -6 6 36 80 64 112 10 12 29 40 43 62 27 44 45 47 29 5z m-153
-210 c-10 -10 -19 5 -10 18 6 11 8 11 12 0 2 -7 1 -15 -2 -18z m-2476 -33 c9
-16 8 -18 -5 -14 -8 4 -15 12 -15 20 0 20 7 17 20 -6z M6664 4101 c-17 -10
-42 -34 -54 -53 -35 -50 -91 -107 -130 -133 -54 -34 -102 -46 -185 -46 -59 0
-74 -3 -66 -12 5 -7 23 -40 40 -73 71 -144 103 -378 83 -610 -6 -76 -10 -140
-7 -142 10 -10 332 240 342 265 8 22 -14 65 -60 113 -56 59 -77 116 -77 211 0
72 1 75 30 92 17 10 30 25 30 33 0 31 45 10 111 -52 47 -43 100 -65 198 -82
l42 -7 -76 -95 c-217 -270 -363 -593 -420 -923 l-6 -37 282 2 282 3 27 95 c61
213 150 376 299 548 l71 82 -48 73 c-27 39 -88 135 -137 212 -48 77 -94 151
-102 164 l-15 23 -74 -73 c-49 -49 -75 -68 -78 -58 -2 8 -14 55 -26 104 -42
167 -112 320 -171 369 -36 31 -63 33 -105 7z m421 -781 c7 -23 -7 -52 -82
-166 -60 -93 -73 -96 -73 -14 0 55 23 144 42 163 40 40 103 50 113 17z M2210
2954 c-210 -628 -212 -637 -208 -704 13 -183 192 -295 371 -234 49 16 122 79
145 124 7 14 107 309 222 655 l210 630 -56 3 c-72 4 -120 -19 -159 -78 -20
-30 -82 -199 -184 -500 -189 -559 -208 -600 -277 -600 -18 0 -36 5 -39 11 -4
6 -7 45 -6 88 1 70 12 108 126 451 205 611 222 687 174 739 -20 22 -77 51 -98
51 -5 0 -105 -286 -221 -636z M7882 3485 c-18 -19 -35 -47 -38 -61 -18 -70 74
-275 231 -516 224 -344 350 -545 362 -581 12 -35 12 -43 -5 -76 -34 -67 -15
-65 -652 -65 -554 -1 -576 -2 -614 -21 -51 -26 -73 -58 -82 -117 l-6 -48 648
-1 c357 -1 667 -1 689 0 91 6 187 76 225 163 27 62 30 155 8 208 -20 45 -695
1106 -728 1143 -4 4 -21 -8 -38 -28z M7483 3240 c-28 -11 -28 -14 -1 -59 49
-81 285 -452 340 -533 32 -48 58 -90 58 -93 0 -3 -181 -5 -401 -5 l-402 0 6
-49 c8 -69 32 -110 75 -129 55 -25 551 -25 632 0 61 19 130 71 179 135 28 37
33 51 32 97 -1 87 -55 201 -196 415 -86 130 -137 187 -192 215 -35 17 -95 20
-130 6z M6271 3007 c-69 -22 -100 -108 -101 -278 0 -97 2 -107 23 -126 36 -33
66 -46 72 -31 13 41 53 277 70 416 4 36 -4 38 -64 19z M6257 2518 c-13 -74
-19 -128 -14 -128 2 0 21 7 40 15 20 8 48 15 61 15 40 0 76 39 83 88 l6 42
-86 0 -85 0 -5 -32z M6178 2285 c-114 -97 -194 -135 -284 -135 -64 0 -164 35
-229 81 l-58 41 -354 -354 c-195 -194 -382 -387 -415 -428 -67 -82 -108 -159
-108 -203 0 -41 46 -83 111 -101 245 -68 604 10 1065 233 175 85 453 241 508
285 l27 21 -11 145 c-24 320 -75 460 -167 460 -24 0 -46 -12 -85 -45z m67
-295 c22 -43 18 -76 -12 -110 -45 -48 -391 -233 -592 -315 -251 -103 -449
-149 -480 -111 -14 17 4 42 136 187 57 61 122 137 145 168 89 119 128 159 158
166 19 4 61 -2 117 -19 49 -13 111 -28 138 -31 68 -8 173 15 265 59 41 20 82
36 92 36 10 0 24 -13 33 -30z"/>
</g>
</svg>
