<?xml version="1.0" standalone="no"?>
<!DOCTYPE svg PUBLIC "-//W3C//DTD SVG 20010904//EN"
 "http://www.w3.org/TR/2001/REC-SVG-20010904/DTD/svg10.dtd">
<svg version="1.0" xmlns="http://www.w3.org/2000/svg"
 width="2048.000000pt" height="2048.000000pt" viewBox="0 0 2048.000000 2048.000000"
 preserveAspectRatio="xMidYMid meet">
<metadata>
Created by potrace 1.13, written by Peter Selinger 2001-2015
</metadata>
<g transform="translate(0.000000,2048.000000) scale(0.192120,-0.192120)"
fill="#000000" stroke="none">
<path d="M5010 10314 c-129 -17 -362 -74 -489 -120 -212 -75 -370 -209 -432
-366 -44 -112 -32 -273 24 -326 24 -22 24 -23 8 -95 -11 -54 -15 -139 -15
-342 -1 -242 1 -281 22 -382 72 -354 203 -553 406 -615 67 -20 77 -21 241 -9
93 6 201 16 238 22 37 6 75 8 83 5 11 -4 14 -28 14 -113 0 -106 -1 -109 -33
-158 -162 -242 -281 -617 -332 -1045 -23 -190 -30 -559 -16 -765 11 -159 35
-373 47 -421 12 -47 -277 -382 -450 -521 -150 -122 -189 -182 -190 -289 0
-152 124 -274 280 -274 97 0 236 93 457 307 84 82 233 257 314 368 272 375
477 869 563 1355 24 138 50 356 50 422 l0 48 -278 0 -279 0 -6 -107 c-15 -267
-119 -669 -244 -943 -42 -93 -135 -262 -140 -256 -3 2 7 91 21 198 14 106 37
330 51 498 29 354 39 440 67 570 48 227 105 406 188 590 109 241 112 272 40
388 -14 22 -13 26 30 64 101 91 238 126 391 98 68 -12 69 -12 61 -38 -4 -15
-7 -50 -6 -78 1 -60 28 -112 100 -189 75 -81 133 -164 179 -255 49 -99 68
-150 129 -360 88 -302 144 -395 278 -465 l57 -29 25 -136 c14 -74 48 -263 76
-420 27 -157 60 -341 73 -410 21 -118 22 -142 17 -420 -3 -162 -2 -362 2 -443
6 -132 9 -154 33 -202 51 -105 152 -162 269 -153 74 6 117 26 174 81 83 81 97
173 67 447 -59 556 -288 1136 -697 1767 -73 112 -81 130 -99 215 -90 437 -203
716 -360 892 -53 59 -170 138 -233 157 -40 12 -47 18 -59 54 -12 33 -18 40
-38 38 -13 -2 -49 -5 -79 -9 -41 -4 -97 3 -215 26 -144 28 -166 36 -222 72
-104 67 -121 70 -333 62 -178 -6 -188 -6 -235 15 -176 78 -260 317 -272 776
-7 241 -10 253 -95 334 l-51 48 53 42 c102 81 190 111 321 111 130 0 130 0
160 -116 105 -399 143 -531 154 -543 18 -19 61 -7 90 25 13 14 35 59 49 101
14 41 37 90 50 108 78 101 273 101 354 -1 59 -74 89 -217 61 -291 -5 -15 -32
-62 -59 -103 -60 -92 -74 -145 -68 -254 8 -155 81 -258 234 -332 92 -44 240
-71 297 -54 50 15 140 106 210 213 171 259 267 569 267 862 0 321 -98 548
-335 779 -254 248 -597 346 -1015 290z m490 -329 c218 -57 424 -215 517 -395
l28 -55 0 -310 0 -310 -37 -102 c-59 -168 -141 -299 -205 -332 -59 -29 -113
-35 -162 -15 -23 9 -46 25 -51 35 -6 10 -10 57 -10 104 0 74 4 96 28 148 56
120 65 160 60 272 -3 96 -6 107 -45 186 -52 105 -148 205 -241 251 -55 27 -75
32 -143 32 -73 0 -85 -3 -164 -44 -81 -40 -86 -42 -104 -26 -10 9 -31 52 -46
94 -39 107 -56 139 -111 200 -46 53 -144 132 -163 132 -17 0 -24 41 -10 56 18
17 171 58 314 84 141 25 441 23 545 -5z m87 -3342 c-4 -139 -9 -176 -41 -302
-91 -360 -228 -678 -411 -952 -134 -200 -166 -234 -318 -334 -72 -48 -149 -99
-170 -114 -60 -41 -99 -62 -105 -57 -8 9 21 47 109 140 112 118 179 203 243
306 74 118 89 151 126 265 17 55 65 183 105 285 127 321 177 485 225 741 12
62 28 128 35 146 l14 33 97 0 96 0 -5 -157z m-1066 -1780 c-8 -15 -10 -15 -11
-2 0 17 10 32 18 25 2 -3 -1 -13 -7 -23z M6468 5035 c-2 -2 -20 -5 -41 -8 -39
-5 -73 -27 -172 -112 -33 -28 -82 -67 -110 -86 l-50 -34 -290 -5 -290 -6 351
-2 351 -2 -14 -52 c-9 -33 -12 -73 -8 -108 7 -60 157 -829 181 -925 16 -64 75
-194 106 -234 10 -13 18 -30 18 -37 0 -20 100 -170 152 -229 24 -27 142 -174
263 -325 438 -552 429 -543 595 -599 36 -12 85 -33 110 -46 l45 -24 -50 -1
c-49 0 -51 -1 -129 -82 -396 -412 -798 -1062 -872 -1408 -21 -102 8 -174 90
-217 36 -19 106 -19 142 0 16 9 307 294 646 634 538 539 617 623 623 655 14
77 -28 144 -162 259 -92 79 -154 118 -225 142 -9 3 -29 32 -44 63 -18 38 -210
286 -547 708 -286 358 -526 662 -534 676 -7 14 -62 275 -123 580 -61 305 -113
565 -116 576 -5 18 1 24 42 38 26 8 66 27 89 40 48 29 108 92 102 109 -7 21
-116 74 -129 62z m1249 -3171 c56 -32 66 -51 47 -90 -17 -35 -665 -684 -682
-684 -25 0 -9 48 61 189 40 80 80 164 90 186 39 91 293 395 351 421 38 16 78
10 133 -22z M4950 4857 c0 -29 22 -77 36 -77 19 0 18 -9 -8 -50 -11 -19 -196
-340 -410 -714 -277 -484 -395 -699 -411 -750 l-22 -71 0 -1055 c0 -1020 1
-1057 20 -1115 10 -33 19 -64 20 -68 0 -5 -50 -22 -111 -37 -164 -43 -345
-105 -459 -159 -172 -82 -217 -129 -217 -221 0 -79 56 -152 125 -165 18 -3
424 -7 904 -8 l872 -2 30 29 c55 53 65 98 58 261 -8 187 -39 283 -117 370 -27
29 -27 33 -19 95 5 36 8 466 8 957 l0 891 131 231 c72 127 129 235 126 240
-12 19 -256 1256 -256 1298 l0 43 -105 0 c-104 0 -105 0 -105 24 0 24 -26 47
-67 60 -17 5 -23 3 -23 -7z m194 -444 c9 -18 48 -192 87 -385 66 -327 71 -360
67 -454 -3 -93 -6 -104 -31 -135 -56 -69 -119 -172 -182 -298 l-65 -130 0
-875 c0 -577 3 -876 10 -876 6 0 10 -6 10 -14 0 -8 4 -16 8 -18 4 -1 20 -23
35 -48 15 -25 39 -60 53 -77 l27 -33 -29 0 c-165 0 -536 -40 -781 -83 -73 -13
-133 -22 -133 -21 0 2 15 25 34 51 52 73 96 172 96 215 0 21 5 38 10 38 7 0
10 316 10 928 0 874 1 931 19 992 25 88 35 108 334 630 379 664 384 671 421
593z m-84 -3598 c20 -18 22 -28 18 -92 -2 -39 -6 -75 -10 -79 -13 -12 -770 11
-795 24 -34 19 -11 46 62 77 95 39 181 55 425 81 176 18 272 14 300 -11z
M5523 3422 c-9 -6 -7 -30 7 -102 22 -113 39 -163 75 -220 30 -48 1128 -1424
1184 -1484 35 -37 145 -116 163 -116 15 0 8 90 -13 181 -23 98 -59 162 -163
289 -34 41 -79 100 -100 130 -22 30 -218 278 -437 551 -219 273 -416 525 -438
560 -82 130 -119 174 -164 197 -45 22 -92 28 -114 14z"/>
</g>
</svg>
