<?xml version="1.0" standalone="no"?>
<!DOCTYPE svg PUBLIC "-//W3C//DTD SVG 20010904//EN"
 "http://www.w3.org/TR/2001/REC-SVG-20010904/DTD/svg10.dtd">
<svg version="1.0" xmlns="http://www.w3.org/2000/svg"
 width="2048.000000pt" height="2048.000000pt" viewBox="0 0 2048.000000 2048.000000"
 preserveAspectRatio="xMidYMid meet">
<metadata>
Created by potrace 1.13, written by Peter Selinger 2001-2015
</metadata>
<g transform="translate(0.000000,2048.000000) scale(0.192120,-0.192120)"
fill="#000000" stroke="none">
<path d="M7700 10035 c-207 -51 -515 -246 -866 -550 -245 -212 -776 -739 -981
-974 l-30 -34 -99 17 c-129 23 -485 33 -610 17 -121 -16 -212 -36 -315 -67
l-86 -26 -66 26 c-72 29 -248 78 -255 71 -5 -4 10 -73 35 -167 15 -54 16 -56
43 -48 21 6 41 1 86 -21 115 -57 154 -57 414 -3 160 33 426 43 646 24 193 -16
234 -7 324 76 l60 56 68 -15 c37 -9 76 -19 87 -23 19 -7 19 -7 3 13 -10 11
-18 29 -18 41 0 30 112 152 386 422 618 607 1041 899 1307 900 27 0 37 4 37
16 0 51 238 -71 396 -204 387 -322 895 -947 1481 -1822 94 -140 203 -298 242
-350 39 -52 71 -101 71 -110 0 -8 9 -26 20 -40 19 -25 20 -52 20 -1532 0 -955
4 -1508 10 -1508 5 0 11 -119 13 -303 5 -333 8 -364 65 -617 45 -195 78 -383
87 -487 l6 -68 -41 120 c-147 431 -416 785 -780 1029 -120 81 -324 180 -465
226 -408 132 -811 131 -1231 -4 l-136 -44 5 27 c3 16 9 61 13 102 9 105 -14
165 -137 357 -122 188 -178 261 -267 343 -72 65 -207 159 -230 159 -12 0 -12
4 1 24 18 27 15 32 -40 60 -53 27 -103 20 -195 -25 l-83 -40 -110 6 c-129 7
-154 18 -306 128 -279 202 -363 250 -427 245 -36 -3 -30 -8 268 -232 348 -262
376 -285 358 -290 -7 -3 -38 -12 -68 -22 -72 -22 -115 -50 -171 -110 -107
-116 -219 -319 -278 -509 -59 -188 -39 -305 70 -407 63 -58 116 -71 160 -39
l29 21 23 -37 c37 -60 74 -161 92 -253 22 -113 29 -322 16 -445 -5 -54 -8
-101 -6 -103 4 -5 120 79 185 133 39 33 40 40 6 95 -34 57 -55 131 -56 195 0
33 -7 96 -15 140 -8 44 -15 101 -15 127 0 44 3 49 39 74 22 14 42 32 45 39 7
20 80 55 113 55 36 -1 49 -12 105 -91 34 -48 59 -72 90 -86 51 -24 108 -38
108 -26 0 15 -40 156 -55 196 -24 61 -18 56 35 -26 35 -55 63 -85 95 -105 24
-15 45 -31 45 -35 0 -4 -39 -49 -88 -100 -106 -112 -161 -182 -243 -313 -112
-177 -199 -386 -250 -596 -12 -54 -27 -98 -31 -98 -5 0 -41 23 -81 50 -62 44
-73 49 -83 35 -6 -8 -22 -15 -34 -15 -45 0 -109 -41 -155 -98 -25 -31 -45 -63
-45 -69 0 -7 -4 -13 -10 -13 -13 0 -13 -187 0 -195 6 -3 10 -29 10 -56 l0 -49
40 20 40 20 0 -24 c0 -14 4 -27 9 -31 5 -3 19 -30 31 -61 41 -111 105 -158
224 -166 l58 -4 33 -129 c97 -384 269 -684 546 -950 219 -210 461 -356 754
-454 75 -25 109 -41 90 -41 -47 0 -325 46 -484 80 -311 66 -253 62 -981 71
-1364 17 -2656 22 -2758 10 -53 -7 -199 -34 -325 -62 -255 -55 -419 -85 -523
-94 l-69 -6 120 41 c206 70 414 179 575 299 93 69 252 222 335 321 313 375
477 894 437 1378 -42 492 -241 917 -588 1252 -113 109 -177 160 -321 254 -57
37 -103 69 -103 72 0 2 18 13 40 24 82 42 132 25 305 -105 132 -100 262 -213
490 -427 94 -88 212 -195 264 -237 52 -42 128 -104 170 -138 42 -34 162 -130
268 -213 193 -152 213 -173 213 -235 0 -12 -19 -87 -41 -166 -39 -136 -41
-148 -36 -243 3 -70 10 -112 23 -136 34 -67 83 -135 144 -204 56 -63 61 -73
58 -107 l-3 -37 52 45 c51 42 55 44 96 37 90 -16 143 0 265 79 90 58 184 151
208 205 20 47 19 46 98 26 29 -7 34 6 12 29 -11 11 -15 84 -19 378 -7 539 -44
800 -134 935 -33 49 -114 119 -160 139 -23 10 -33 21 -33 36 0 18 -4 20 -27
15 -82 -18 -92 -18 -135 3 -46 22 -374 273 -521 398 -95 80 -118 113 -98 137
10 12 59 15 269 18 l257 3 62 29 c57 26 61 30 58 57 -3 25 3 32 60 68 85 54
131 121 198 290 104 259 106 308 15 360 l-47 27 65 119 c37 65 86 149 110 187
24 37 44 72 44 77 0 4 -17 20 -37 34 -21 14 -58 40 -83 58 l-45 32 36 -39 c67
-74 69 -62 -28 -162 -49 -50 -100 -95 -114 -101 -25 -9 -229 -1 -336 14 -79
11 -79 43 3 111 69 56 94 80 94 91 0 5 19 27 41 48 46 44 78 105 79 148 l0 28
-47 -32 c-135 -93 -400 -337 -491 -451 -24 -32 -48 -58 -53 -58 -4 0 -31 15
-60 32 l-52 33 -556 6 c-306 4 -571 10 -589 14 -26 6 -46 2 -83 -15 l-49 -23
-163 22 c-142 20 -173 22 -252 12 -141 -18 -396 -26 -403 -14 -4 6 -30 12 -57
14 -28 1 -54 5 -60 8 -5 3 -14 7 -20 8 -28 8 -143 35 -164 39 -22 5 -23 9 -19
53 10 107 81 176 210 206 40 9 142 19 228 22 180 7 210 16 334 97 86 56 224
166 225 179 1 9 -1180 8 -1284 -2 -92 -9 -143 -30 -193 -79 -131 -131 -95
-353 72 -440 49 -25 59 -27 229 -30 l177 -4 0 -76 c0 -145 37 -177 222 -192
232 -20 422 -11 570 27 l66 16 32 -26 32 -27 1174 0 1174 0 -59 -112 c-73
-137 -135 -291 -151 -375 l-13 -63 -706 -2 -706 -3 105 -80 c58 -44 391 -302
740 -573 349 -272 640 -496 646 -499 7 -2 26 42 49 111 20 64 40 116 44 116 7
0 52 -290 76 -490 18 -159 35 -414 35 -550 0 -98 12 -220 27 -265 5 -18 4 -18
-11 -6 -16 13 -31 1 -160 -128 l-142 -142 -50 11 c-127 29 -222 144 -224 270
0 55 0 56 93 308 l75 204 -82 63 c-458 359 -1882 1465 -1886 1465 -3 0 -167
-487 -365 -1082 -282 -847 -367 -1091 -390 -1122 -17 -22 -53 -54 -80 -71 -64
-40 -178 -48 -247 -17 -106 46 -168 140 -168 251 0 60 34 168 391 1234 215
643 389 1170 387 1172 -12 11 -733 547 -771 574 -61 41 -89 34 -108 -29 -29
-95 41 -179 339 -405 101 -76 191 -150 200 -164 10 -14 25 -33 35 -41 15 -12
20 -36 24 -115 5 -75 14 -124 39 -199 l33 -98 -28 5 c-16 3 -91 9 -167 13
-332 16 -665 -54 -963 -202 -470 -234 -819 -639 -990 -1149 -32 -93 -41 -112
-41 -83 0 53 46 318 90 513 20 94 43 202 50 240 7 39 16 92 21 118 5 27 9 578
9 1241 0 1033 2 1195 15 1212 8 10 15 26 15 35 0 16 297 515 437 734 394 617
611 906 716 950 114 48 308 -95 867 -640 113 -110 253 -237 312 -282 170 -133
363 -248 518 -309 51 -20 70 -32 70 -45 0 -13 13 -22 48 -32 44 -14 47 -13 50
5 2 13 9 18 19 14 8 -4 47 -11 85 -17 70 -11 71 -11 93 15 12 14 31 26 42 26
38 0 129 48 184 97 30 27 71 64 92 83 l38 34 -26 13 c-30 16 -30 13 -6 66 29
62 32 89 41 357 10 284 26 397 81 565 62 187 63 195 35 258 -13 30 -29 58 -35
61 -8 5 -8 13 -1 26 14 27 12 38 -8 44 -9 3 -49 26 -87 51 -104 68 -255 141
-320 156 -71 16 -122 6 -261 -48 -149 -59 -190 -69 -219 -53 -25 14 -72 113
-95 200 -6 25 -17 68 -25 95 -7 28 -17 88 -20 133 l-7 84 -43 -4 c-39 -3 -45
0 -66 30 -12 18 -52 59 -88 90 -36 31 -72 63 -80 70 -18 18 -8 74 21 114 13
18 29 44 36 57 65 125 333 347 512 426 218 96 504 109 747 34 48 -15 66 -26
73 -44 5 -13 18 -26 29 -30 36 -11 43 -40 36 -140 -7 -87 -6 -97 19 -150 14
-32 26 -61 26 -66 0 -5 -46 -31 -102 -58 -111 -54 -311 -123 -497 -172 -64
-17 -118 -33 -120 -35 -2 -2 16 -25 39 -51 23 -26 72 -93 108 -148 36 -55 81
-124 100 -152 45 -70 120 -136 172 -152 58 -17 136 -16 164 3 76 49 131 174
166 371 20 116 40 307 40 389 0 43 5 53 46 99 72 80 108 159 109 237 0 78 -19
123 -82 185 -121 122 -366 195 -653 195 -283 0 -463 -54 -695 -207 -305 -202
-561 -545 -640 -858 -22 -86 -32 -155 -22 -155 6 0 392 78 417 85 l25 6 0
-108 c1 -100 4 -118 43 -235 47 -141 72 -243 72 -301 0 -85 49 -123 155 -121
106 3 344 82 421 140 36 28 111 54 155 54 56 0 138 -40 200 -97 85 -79 85 -82
44 -145 -104 -157 -145 -387 -145 -819 0 -175 -6 -236 -35 -336 l-16 -53 -43
0 c-113 0 -310 57 -461 132 -212 106 -356 220 -695 552 -397 388 -584 542
-765 632 -49 25 -117 50 -151 56 -52 9 -65 8 -98 -7 -185 -88 -632 -721 -1255
-1775 l-91 -155 0 -2917 0 -2918 5000 0 5000 0 0 3473 0 3473 -106 170 c-657
1046 -1343 1924 -1808 2311 -296 247 -507 329 -716 278z m-3540 -1268 c-1 -66
-35 -89 -65 -43 -19 29 -11 52 23 64 33 11 42 7 42 -21z m3254 -4447 c225
-355 433 -681 461 -725 272 -422 736 -1155 759 -1201 56 -107 31 -240 -58
-322 -84 -77 -11 -72 -1142 -75 l-1011 -2 -17 95 c-29 164 -83 248 -153 237
-20 -4 -33 -2 -33 5 0 6 10 58 22 114 l21 104 808 2 807 3 -236 371 c-130 204
-300 469 -376 590 -642 1010 -757 1189 -764 1192 -4 1 -17 -26 -29 -60 -12
-35 -78 -220 -146 -411 l-124 -348 -36 45 c-48 58 -57 84 -57 162 0 153 112
368 340 654 51 63 98 121 104 128 10 11 26 3 84 -43 39 -30 75 -55 80 -55 5 0
62 57 127 126 l118 125 21 -33 c11 -18 204 -323 430 -678z m-772 -92 c96 -103
97 -103 66 -106 -20 -2 -43 -18 -71 -49 -129 -140 -163 -170 -212 -186 -51
-18 -95 -22 -94 -9 0 12 163 214 181 226 12 7 32 7 67 0 28 -6 51 -8 51 -4 0
3 -25 54 -55 113 -30 58 -55 109 -55 112 0 21 38 -9 122 -97z m-4440 -269 c19
-10 14 -45 -9 -53 -8 -3 -62 -13 -121 -21 -59 -9 -125 -21 -147 -27 -22 -7
-42 -12 -45 -13 -16 -3 -117 -39 -125 -44 -5 -3 -12 -6 -15 -7 -6 -1 -37 -14
-112 -48 -117 -52 -307 -180 -398 -268 -106 -101 -237 -257 -294 -347 -54 -85
-144 -278 -174 -371 -58 -183 -64 -235 -60 -518 4 -243 6 -263 31 -356 68
-247 194 -484 361 -684 171 -203 383 -353 663 -468 48 -20 94 -42 102 -50 13
-11 11 -15 -10 -22 -13 -5 -25 -6 -27 -1 -2 4 -9 6 -16 3 -7 -3 -64 7 -126 21
-245 55 -539 241 -736 465 -112 128 -231 328 -273 459 -20 62 -21 85 -21 667
0 676 -3 647 77 801 217 416 676 753 1165 853 160 33 281 44 310 29z m6383 1
c366 -42 699 -187 976 -425 189 -163 350 -391 420 -594 18 -51 19 -94 19 -670
l0 -616 -44 -107 c-76 -187 -239 -411 -399 -548 -97 -84 -81 -72 -188 -143
-86 -57 -256 -142 -301 -151 -12 -2 -52 -12 -88 -21 -35 -10 -81 -18 -102 -19
-21 0 -38 -4 -38 -7 0 -3 -11 -4 -25 -1 -46 8 -26 29 68 67 239 98 393 195
552 347 232 222 410 525 491 840 25 96 25 104 22 391 -4 284 -5 294 -31 380
-62 201 -155 390 -272 549 -91 124 -284 313 -395 387 -89 60 -330 187 -330
174 0 -3 -6 -1 -12 4 -11 8 -77 33 -133 50 -48 14 -156 34 -232 43 -122 13
-223 12 -363 -4 -123 -15 -160 -9 -160 23 0 14 11 22 48 30 123 30 355 39 517
21z m-6202 -307 c4 -3 -38 -49 -92 -102 -85 -83 -104 -108 -141 -184 -41 -86
-296 -839 -320 -948 -7 -33 -11 -97 -8 -160 4 -89 8 -112 32 -158 41 -80 150
-182 243 -228 74 -36 81 -38 177 -38 93 0 106 3 166 31 133 64 233 161 295
284 43 87 291 836 307 928 11 67 10 87 -13 222 l-26 149 40 -22 c69 -39 200
-151 271 -233 164 -188 270 -400 323 -647 26 -117 25 -428 0 -547 -121 -569
-564 -995 -1137 -1096 -114 -20 -336 -19 -458 2 -579 98 -1037 556 -1137 1138
-20 115 -20 347 0 462 100 584 557 1038 1145 1139 79 14 322 20 333 8z m6287
-18 c560 -124 989 -569 1085 -1129 20 -115 20 -347 0 -462 -74 -429 -348 -805
-733 -1002 -205 -106 -403 -153 -639 -153 -214 1 -401 41 -583 127 -362 172
-641 496 -745 867 -9 32 -15 61 -12 64 3 2 56 -22 119 -55 165 -88 194 -94
461 -88 769 17 829 20 892 44 119 44 246 153 303 260 30 57 32 65 32 171 0
108 -1 113 -39 196 -47 101 -95 182 -290 490 -285 450 -282 447 -533 589 -27
15 -48 29 -48 31 0 8 144 47 220 61 102 18 408 12 510 -11z m-5295 -44 c71
-41 278 -258 354 -371 104 -156 177 -316 221 -484 18 -74 20 -109 20 -455 0
-401 -1 -412 -54 -573 -81 -245 -267 -530 -457 -698 -81 -71 -210 -162 -309
-218 -56 -32 -200 -94 -200 -87 0 2 -18 -2 -40 -10 -22 -8 -40 -12 -40 -10 0
2 -15 -1 -32 -6 -18 -5 -61 -12 -95 -14 -91 -6 -81 13 30 59 138 58 288 138
380 203 111 78 308 277 387 391 127 180 236 425 280 627 16 75 20 129 20 328
0 263 -7 315 -65 492 -83 255 -204 446 -437 692 -50 53 -58 66 -58 100 0 38
14 63 35 63 5 0 33 -13 60 -29z m3702 -265 c44 -38 38 -83 -23 -186 -28 -47
-73 -122 -98 -167 -58 -100 -103 -143 -151 -143 l-35 0 0 55 c0 108 146 398
223 446 41 24 50 24 84 -5z m322 -191 c2 -87 17 -179 42 -256 25 -75 22 -94
-18 -110 -15 -6 -37 -15 -48 -20 -11 -4 -42 -15 -70 -23 -27 -9 -97 -43 -155
-75 -73 -41 -106 -55 -108 -46 -5 20 62 214 99 287 47 94 129 216 189 282 62
67 68 64 69 -39z m-7022 -417 c-3 -8 -6 -5 -6 6 -1 11 2 17 5 13 3 -3 4 -12 1
-19z m9910 0 c-3 -8 -6 -5 -6 6 -1 11 2 17 5 13 3 -3 4 -12 1 -19z m-9875
-1008 c202 -640 696 -1121 1350 -1314 46 -14 79 -25 73 -25 -34 -2 -376 55
-510 84 -358 80 -392 85 -522 92 -102 5 -133 9 -133 20 0 9 -14 13 -45 13
l-45 0 0 40 c0 27 -5 43 -15 46 -12 5 -15 26 -15 106 0 104 -11 168 -80 478
-43 195 -63 304 -85 470 -15 113 -17 143 -8 105 3 -11 19 -63 35 -115z m9875
108 c-3 -8 -6 -5 -6 6 -1 11 2 17 5 13 3 -3 4 -12 1 -19z m-12 -90 c-9 -97
-45 -295 -89 -498 -20 -91 -43 -196 -51 -234 -9 -40 -15 -122 -15 -197 0 -79
-4 -129 -10 -129 -5 0 -10 -20 -10 -45 0 -38 -3 -45 -20 -45 -11 0 -20 -7 -20
-15 0 -12 -18 -15 -102 -15 -149 0 -251 -14 -501 -69 -242 -54 -427 -87 -534
-96 l-68 -6 135 46 c544 186 958 568 1187 1095 23 52 54 137 70 187 15 51 30
93 32 93 2 0 0 -33 -4 -72z m-3392 -48 c14 -11 58 -77 96 -145 233 -412 484
-636 909 -810 50 -21 92 -42 92 -47 0 -12 -44 -28 -48 -17 -2 4 -9 6 -16 3
-28 -11 -243 48 -335 92 -188 88 -386 238 -530 399 -53 60 -151 202 -209 305
-38 69 -84 203 -76 224 9 24 85 21 117 -4z m-4973 -1015 c0 -8 -4 -15 -10 -15
-5 0 -10 7 -10 15 0 8 5 15 10 15 6 0 10 -7 10 -15z m744 0 c-4 -8 -8 -15 -10
-15 -2 0 -4 7 -4 15 0 8 4 15 10 15 5 0 7 -7 4 -15z m5366 0 c0 -8 -2 -15 -4
-15 -2 0 -6 7 -10 15 -3 8 -1 15 4 15 6 0 10 -7 10 -15z m737 -7 c-3 -8 -6 -5
-6 6 -1 11 2 17 5 13 3 -3 4 -12 1 -19z m-6020 -284 c-3 -3 -12 -4 -19 -1 -8
3 -5 6 6 6 11 1 17 -2 13 -5z m5210 0 c-3 -3 -12 -4 -19 -1 -8 3 -5 6 6 6 11
1 17 -2 13 -5z m900 0 c-3 -3 -12 -4 -19 -1 -8 3 -5 6 6 6 11 1 17 -2 13 -5z
M6630 8166 c0 -2 7 -7 16 -10 8 -3 12 -2 9 4 -6 10 -25 14 -25 6z M6675 8143
c6 -6 28 -20 50 -32 22 -13 31 -15 20 -6 -22 18 -86 53 -70 38z M6775 8082
c29 -32 385 -237 550 -317 145 -70 276 -127 281 -122 2 2 -25 16 -59 32 -245
112 -562 278 -677 355 -48 32 -105 63 -95 52z M7439 7248 c-253 -193 -471
-350 -684 -494 -367 -247 -531 -327 -634 -310 -38 6 -46 0 -407 -270 -203
-152 -372 -279 -376 -283 -4 -4 55 -69 130 -144 l139 -138 223 298 c123 164
261 346 307 406 l84 107 63 0 c112 0 221 47 451 194 133 85 417 285 655 461
224 165 253 175 348 110 63 -43 180 -166 212 -222 l30 -53 0 -189 c0 -105 -4
-200 -9 -213 -81 -199 -105 -288 -82 -303 20 -12 144 223 186 355 46 141 36
268 -31 407 -63 132 -191 267 -360 381 l-61 41 -184 -141z M4880 7189 c-47
-20 -97 -85 -86 -112 2 -7 10 3 17 21 18 43 77 72 149 72 51 0 78 -6 163 -36
59 -22 43 -6 -29 28 -71 33 -170 46 -214 27z M5220 7086 c0 -2 8 -10 18 -17
15 -13 16 -12 3 4 -13 16 -21 21 -21 13z M7813 6033 c-14 -3 -50 -43 -100
-111 -160 -220 -426 -542 -585 -708 -43 -45 -78 -84 -78 -88 0 -3 13 -6 28 -6
15 0 155 -16 310 -35 318 -40 335 -39 402 21 37 33 44 52 149 367 69 205 111
347 111 372 -1 86 -60 161 -145 184 -41 11 -53 12 -92 4z m-104 -591 c-11 -41
-59 -118 -83 -134 -18 -13 -71 -9 -91 6 -19 13 -19 16 -3 48 9 18 54 78 100
133 l83 99 3 -54 c2 -30 -2 -74 -9 -98z"/>
</g>
</svg>
