<?xml version="1.0" standalone="no"?>
<!DOCTYPE svg PUBLIC "-//W3C//DTD SVG 20010904//EN"
 "http://www.w3.org/TR/2001/REC-SVG-20010904/DTD/svg10.dtd">
<svg version="1.0" xmlns="http://www.w3.org/2000/svg"
 width="2048.000000pt" height="2048.000000pt" viewBox="0 0 2048.000000 2048.000000"
 preserveAspectRatio="xMidYMid meet">
<metadata>
Created by potrace 1.13, written by Peter Selinger 2001-2015
</metadata>
<g transform="translate(0.000000,2048.000000) scale(0.192120,-0.192120)"
fill="#000000" stroke="none">
<path d="M8180 10319 c-539 -61 -978 -353 -1120 -746 -33 -91 -60 -228 -60
-301 l0 -46 41 39 c53 53 97 120 169 259 61 119 155 256 175 256 7 0 20 9 31
21 31 34 203 145 276 178 92 41 234 86 359 112 90 20 135 23 329 23 195 1 240
-2 337 -22 418 -84 725 -295 833 -574 64 -165 60 -18 60 -2333 0 -1397 3
-2105 10 -2105 6 0 10 -20 10 -45 0 -25 5 -45 10 -45 6 0 10 -5 10 -10 0 -13
10 -26 72 -94 l48 -51 0 515 c2 3057 -1 3993 -14 4063 -17 85 -49 182 -84 252
-96 192 -294 381 -517 493 -271 135 -650 198 -975 161z M8250 9954 c-62 -8
-229 -45 -288 -63 -154 -50 -275 -125 -378 -233 -125 -133 -154 -238 -94 -343
47 -83 55 -84 67 -16 53 282 383 471 824 472 365 0 661 -125 782 -331 60 -103
57 -19 57 -1716 l0 -1551 28 5 c35 6 82 39 82 58 0 8 5 12 10 9 7 -4 10 518
10 1559 l0 1564 -22 59 c-56 148 -177 289 -322 375 -82 49 -242 106 -371 133
-77 16 -314 28 -385 19z M7110 9209 c-105 -12 -283 -72 -380 -127 -155 -89
-269 -236 -285 -366 l-7 -54 -44 -6 c-173 -23 -279 -220 -206 -381 28 -60 62
-98 122 -133 l45 -27 899 -3 c999 -3 953 -6 1034 64 124 106 126 307 5 414
-43 38 -116 70 -158 70 -18 0 -23 9 -33 63 -19 102 -62 176 -152 260 -192 181
-502 264 -840 226z m375 -239 c71 -27 115 -56 115 -75 0 -29 -78 -36 -356 -33
-236 3 -276 5 -290 19 -15 15 -13 19 18 42 18 14 67 37 108 52 69 24 85 25
210 22 111 -3 146 -8 195 -27z m620 -345 c3 -19 7 -50 10 -68 3 -19 19 -55 35
-81 39 -62 40 -108 2 -146 -25 -25 -38 -29 -113 -35 -46 -3 -424 -5 -839 -3
l-755 3 -41 22 c-64 34 -70 78 -20 144 39 51 56 97 56 149 0 20 3 40 7 43 3 4
377 7 829 7 l823 0 6 -35z M2180 6989 c-358 -44 -727 -249 -1041 -577 -193
-201 -282 -385 -282 -582 1 -170 71 -334 206 -477 39 -41 46 -53 31 -53 -10 0
-131 7 -268 16 -235 16 -252 16 -304 -1 -75 -23 -152 -99 -177 -174 -43 -131
17 -276 139 -336 l53 -26 4669 -275 c2568 -152 4728 -277 4799 -277 150 -2
180 8 252 85 107 117 91 308 -36 404 -72 55 -37 51 -771 94 -3530 204 -5955
352 -5962 362 -4 7 -8 25 -8 41 0 86 -80 371 -165 588 -121 311 -263 548 -423
708 l-95 94 17 46 c9 25 16 59 16 74 0 67 -73 152 -171 200 -120 59 -319 86
-479 66z m304 -275 c79 -19 86 -27 86 -88 0 -76 -21 -124 -114 -259 -142 -207
-241 -388 -295 -536 -38 -105 -81 -293 -81 -357 0 -49 -10 -76 -26 -75 -5 1
-13 -12 -17 -29 l-8 -30 -82 0 c-45 0 -206 7 -357 16 -238 14 -279 19 -307 36
-35 21 -100 113 -154 218 -33 64 -34 68 -37 209 -2 97 0 153 9 175 25 64 104
169 193 260 362 364 834 546 1190 460z m315 -251 c21 -102 29 -119 112 -245
126 -193 207 -367 320 -690 65 -188 91 -239 157 -310 l45 -48 -54 0 c-80 0
-1143 62 -1149 67 -3 3 -5 77 -4 166 0 135 4 176 23 245 41 154 105 298 205
455 60 96 319 457 324 452 2 -1 11 -43 21 -92z m-1123 -1193 c320 -19 524 -35
528 -42 2 -2 10 -24 20 -50 10 -26 30 -56 44 -67 53 -37 95 -42 687 -77 297
-17 370 -28 472 -72 96 -42 133 -51 274 -62 68 -5 1085 -66 2259 -135 1174
-69 2331 -137 2570 -151 239 -14 496 -25 570 -23 387 7 500 3 630 -24 69 -14
154 -29 190 -32 133 -13 168 -44 93 -81 -51 -25 -170 -29 -408 -15 -104 6
-374 23 -600 37 -524 31 -5314 312 -5460 319 -60 3 -344 19 -630 35 -286 16
-563 32 -615 35 -1405 79 -1560 91 -1639 128 -36 18 -46 27 -46 47 0 23 5 26
55 32 30 3 111 7 180 7 100 1 133 5 167 20 49 23 99 87 116 148 l11 43 96 0
c53 0 249 -9 436 -20z M9047 6150 c-75 -13 -187 -49 -240 -78 -62 -33 -122
-99 -138 -151 -43 -143 175 -288 464 -308 l87 -6 0 277 0 276 -62 -1 c-35 -1
-85 -5 -111 -9z M9220 5240 c0 -198 4 -360 8 -360 16 0 93 84 98 107 4 13 10
23 15 23 5 0 9 113 9 256 0 147 -4 253 -9 250 -5 -3 -12 4 -15 17 -7 26 -40
51 -78 61 l-28 6 0 -360z M620 4708 c0 -37 38 -269 66 -407 285 -1404 1034
-2592 1973 -3129 123 -71 287 -145 394 -178 l57 -18 0 -77 c0 -163 52 -293
159 -400 81 -80 155 -123 257 -149 192 -49 389 5 531 147 92 91 163 254 163
371 l0 24 -242 -6 c-363 -11 -594 9 -785 65 l-73 22 0 36 c0 55 -17 101 -47
134 -16 16 -104 67 -197 114 -93 47 -199 103 -235 126 -470 295 -856 717
-1196 1307 -276 479 -471 1002 -605 1623 -21 97 -50 201 -63 230 -26 56 -76
121 -126 163 l-31 26 0 -24z m3179 -4034 c21 -5 31 -12 31 -25 0 -24 -31 -43
-102 -64 -48 -14 -67 -14 -116 -5 -76 15 -136 49 -140 78 -3 22 -3 22 146 22
82 0 164 -3 181 -6z M9982 4128 c-113 -115 -108 -99 -177 -558 -153 -1012
-390 -1787 -667 -2175 -99 -140 -185 -221 -289 -274 -46 -24 -97 -53 -113 -64
-33 -24 -65 -89 -66 -134 0 -31 2 -33 33 -33 57 0 158 29 226 65 382 201 706
891 931 1979 84 412 188 1117 178 1215 l-3 33 -53 -54z M4422 1060 c-80 -5
-108 -11 -130 -26 -32 -25 -61 -78 -62 -116 l0 -28 1660 0 1660 0 0 -22 c1
-54 32 -168 65 -235 89 -180 292 -303 500 -303 68 0 193 33 258 67 71 38 186
155 224 228 36 69 63 165 63 224 l0 41 -397 -6 c-219 -3 -470 -1 -557 3 l-159
8 -12 48 c-14 57 -45 93 -94 109 -28 9 -376 13 -1476 14 -792 1 -1486 -2
-1543 -6z m3821 -386 c39 -7 48 -25 23 -49 -7 -7 -46 -24 -86 -36 l-73 -22
-75 22 c-41 12 -80 28 -88 36 -23 22 -17 43 14 48 45 7 244 7 285 1z"/>
</g>
</svg>
