<?xml version="1.0" standalone="no"?>
<!DOCTYPE svg PUBLIC "-//W3C//DTD SVG 20010904//EN"
 "http://www.w3.org/TR/2001/REC-SVG-20010904/DTD/svg10.dtd">
<svg version="1.0" xmlns="http://www.w3.org/2000/svg"
 width="2048.000000pt" height="2048.000000pt" viewBox="0 0 2048.000000 2048.000000"
 preserveAspectRatio="xMidYMid meet">
<metadata>
Created by potrace 1.13, written by Peter Selinger 2001-2015
</metadata>
<g transform="translate(0.000000,2048.000000) scale(0.192120,-0.192120)"
fill="#000000" stroke="none">
<path d="M7691 10314 c-204 -55 -351 -238 -431 -534 -17 -63 -151 -531 -297
-1040 -303 -1051 -296 -1017 -237 -1140 79 -167 267 -293 475 -320 57 -7 500
-9 1369 -7 l1285 3 80 25 c170 53 299 152 358 276 28 60 32 78 31 148 0 74
-22 155 -291 1095 -161 558 -304 1045 -320 1081 -96 225 -251 381 -414 418
-28 7 -324 10 -799 10 -627 0 -764 -3 -809 -15z m1446 -243 c158 -9 215 -32
288 -113 92 -102 92 -103 444 -1335 l201 -703 0 -133 c0 -152 -5 -166 -83
-211 -97 -56 -118 -59 -587 -67 -310 -5 -448 -11 -480 -20 -65 -19 -726 -19
-790 0 -33 10 -166 15 -495 20 -428 7 -453 9 -509 29 -71 26 -149 75 -176 110
-17 21 -20 40 -20 136 l0 111 235 825 c343 1200 332 1168 418 1252 68 67 132
90 267 98 164 10 1130 10 1287 1z M8903 7187 c-63 -64 -74 -78 -80 -107 -3
-17 -9 -30 -14 -30 -12 0 -12 -2067 0 -2074 4 -3 11 -30 14 -61 6 -56 41 -128
92 -190 l25 -30 0 1263 c0 694 -1 1262 -2 1262 -2 0 -17 -15 -35 -33z M8110
6524 l0 -685 23 6 c12 4 31 9 42 12 11 3 30 17 42 32 l22 26 1 568 c0 324 -4
567 -9 567 -5 0 -12 15 -15 34 -6 32 -78 126 -97 126 -5 0 -9 -278 -9 -686z
M4545 6710 c-562 -34 -1048 -120 -1515 -267 -409 -128 -803 -327 -1073 -540
-95 -74 -229 -211 -295 -298 -70 -93 -145 -241 -178 -351 -26 -84 -27 -103
-32 -337 l-4 -249 -52 9 c-98 16 -294 7 -381 -16 -420 -113 -705 -502 -682
-931 8 -137 35 -242 97 -365 91 -182 225 -316 407 -407 l103 -52 0 -970 c0
-811 3 -982 15 -1040 46 -216 218 -397 441 -462 73 -21 218 -24 294 -5 177 44
331 167 409 327 35 72 61 168 61 229 l0 40 2632 0 c2849 0 2687 -3 2812 54
l59 26 1 308 1 307 -2752 0 -2753 0 0 -330 0 -330 -40 0 c-44 0 -131 -30 -154
-53 -9 -8 -38 -57 -66 -109 -62 -113 -87 -140 -165 -179 -151 -74 -346 -49
-458 59 -51 48 -71 90 -96 194 -20 83 -21 110 -21 986 0 515 -4 903 -9 906 -5
3 -12 18 -16 33 -8 35 -81 137 -132 185 -21 20 -81 71 -133 113 -120 96 -187
175 -242 283 l-43 85 0 211 c0 210 0 211 27 266 88 177 168 265 308 335 97 49
159 64 318 80 95 9 152 19 168 30 31 20 59 65 76 122 7 23 18 43 26 43 33 0
176 -65 243 -111 166 -114 287 -265 354 -443 56 -150 57 -154 57 -881 0 -426
3 -644 9 -598 10 83 40 180 74 239 70 121 195 226 326 275 l64 24 879 3 c968
3 928 5 1063 -60 48 -23 93 -57 150 -113 97 -96 144 -182 173 -321 12 -60 18
-78 19 -54 3 100 63 246 141 339 57 69 172 149 261 182 l64 24 879 3 c968 3
928 5 1063 -60 48 -23 92 -57 149 -113 94 -93 145 -184 169 -305 9 -41 17 -79
18 -84 2 -5 1 270 -1 610 -5 685 -2 720 58 885 79 217 252 409 457 506 82 40
176 67 181 53 2 -5 15 -33 30 -62 34 -67 76 -95 150 -102 214 -21 294 -46 424
-133 139 -93 225 -201 278 -349 20 -56 21 -76 18 -250 l-3 -189 -47 -95 c-57
-116 -125 -194 -257 -295 -112 -85 -204 -189 -227 -255 -9 -25 -20 -53 -25
-62 -5 -10 -9 -285 -9 -641 0 -759 -8 -1073 -27 -1092 -8 -9 -13 -38 -13 -82
0 -50 -5 -76 -20 -101 -11 -18 -20 -39 -20 -48 0 -28 -39 -91 -76 -124 -153
-134 -423 -120 -556 29 -24 27 -49 64 -55 82 -47 140 -74 182 -137 210 -22 10
-58 19 -78 19 l-38 0 0 -93 c0 -170 55 -302 175 -422 190 -191 461 -234 705
-114 116 58 210 153 267 270 71 146 68 88 68 1175 l0 982 64 27 c253 111 446
340 518 613 34 132 36 306 5 436 -81 329 -336 591 -660 677 -83 23 -285 31
-373 16 l-47 -8 -5 233 c-6 270 -19 341 -92 495 -63 134 -126 223 -245 347
-441 457 -1268 793 -2265 921 -342 44 -914 64 -1240 45z m1005 -304 c777 -80
1401 -255 1895 -531 335 -188 601 -435 663 -614 14 -40 17 -531 4 -531 -23 0
-194 -127 -264 -196 -153 -150 -249 -331 -298 -563 -18 -83 -20 -132 -20 -414
l0 -319 -25 6 c-23 6 -25 4 -25 -29 l0 -35 -88 45 c-48 25 -124 55 -168 67
-78 22 -87 22 -874 26 -515 2 -827 0 -886 -7 -183 -21 -295 -74 -451 -211 -85
-75 -113 -78 -176 -22 -130 118 -252 188 -386 219 -70 17 -143 18 -926 18
-849 0 -850 0 -929 -23 -43 -12 -117 -42 -164 -67 -46 -25 -90 -45 -98 -45 -9
0 -14 11 -14 30 0 20 -5 30 -15 30 -13 0 -15 40 -15 303 0 397 -16 494 -116
702 -86 182 -208 321 -375 431 l-90 59 3 245 3 245 34 65 c52 102 111 178 212
275 259 250 655 460 1169 618 404 125 859 204 1390 241 145 10 883 -3 1030
-18z m1890 -5005 l0 -88 -82 -6 c-46 -4 -1187 -7 -2535 -7 l-2453 0 0 95 0 95
2535 0 2535 0 0 -89z M8995 2469 c25 -48 116 -137 160 -155 21 -9 44 -22 50
-29 5 -8 41 -26 80 -41 253 -100 449 -257 533 -426 52 -107 56 -157 15 -197
l-28 -26 -302 -3 c-169 -2 -303 -8 -303 -13 0 -5 -18 -9 -41 -9 -45 0 -108
-32 -153 -79 -15 -16 -25 -34 -22 -40 5 -8 164 -11 521 -11 l515 0 7 28 c11
44 8 193 -6 252 -80 332 -439 629 -909 751 -62 16 -118 29 -123 29 -5 0 -2
-14 6 -31z"/>
</g>
</svg>
