<?xml version="1.0" standalone="no"?>
<!DOCTYPE svg PUBLIC "-//W3C//DTD SVG 20010904//EN"
 "http://www.w3.org/TR/2001/REC-SVG-20010904/DTD/svg10.dtd">
<svg version="1.0" xmlns="http://www.w3.org/2000/svg"
 width="2048.000000pt" height="2048.000000pt" viewBox="0 0 2048.000000 2048.000000"
 preserveAspectRatio="xMidYMid meet">
<metadata>
Created by potrace 1.13, written by Peter Selinger 2001-2015
</metadata>
<g transform="translate(0.000000,2048.000000) scale(0.192120,-0.192120)"
fill="#000000" stroke="none">
<path d="M8180 10319 c-539 -61 -978 -353 -1120 -746 -33 -91 -60 -228 -60
-301 l0 -46 41 39 c53 53 97 120 169 259 61 119 155 256 175 256 7 0 20 9 31
21 31 34 203 145 276 178 92 41 234 86 359 112 90 20 135 23 329 23 195 1 240
-2 337 -22 418 -84 725 -295 833 -574 64 -165 60 -18 60 -2333 0 -1397 3
-2105 10 -2105 6 0 10 -20 10 -45 0 -25 5 -45 10 -45 6 0 10 -5 10 -10 0 -13
10 -26 72 -94 l48 -51 0 515 c2 3057 -1 3993 -14 4063 -17 85 -49 182 -84 252
-96 192 -294 381 -517 493 -271 135 -650 198 -975 161z M8250 9954 c-62 -8
-229 -45 -288 -63 -154 -50 -275 -125 -378 -233 -125 -133 -154 -238 -94 -343
47 -83 55 -84 67 -16 53 282 383 471 824 472 365 0 661 -125 782 -331 60 -103
57 -19 57 -1716 l0 -1551 28 5 c35 6 82 39 82 58 0 8 5 12 10 9 7 -4 10 518
10 1559 l0 1564 -22 59 c-56 148 -177 289 -322 375 -82 49 -242 106 -371 133
-77 16 -314 28 -385 19z M7110 9209 c-105 -12 -283 -72 -380 -127 -155 -89
-269 -236 -285 -366 l-7 -54 -44 -6 c-173 -23 -279 -220 -206 -381 28 -60 62
-98 122 -133 l45 -27 899 -3 c999 -3 953 -6 1034 64 124 106 126 307 5 414
-43 38 -116 70 -158 70 -18 0 -23 9 -33 63 -19 102 -62 176 -152 260 -192 181
-502 264 -840 226z m375 -239 c71 -27 115 -56 115 -75 0 -29 -78 -36 -356 -33
-236 3 -276 5 -290 19 -15 15 -13 19 18 42 18 14 67 37 108 52 69 24 85 25
210 22 111 -3 146 -8 195 -27z m620 -345 c3 -19 7 -50 10 -68 3 -19 19 -55 35
-81 39 -62 40 -108 2 -146 -25 -25 -38 -29 -113 -35 -46 -3 -424 -5 -839 -3
l-755 3 -41 22 c-64 34 -70 78 -20 144 39 51 56 97 56 149 0 20 3 40 7 43 3 4
377 7 829 7 l823 0 6 -35z M2175 6989 c-362 -49 -722 -249 -1037 -577 -193
-201 -281 -384 -281 -582 0 -98 21 -187 65 -274 38 -76 104 -170 155 -218 45
-43 -20 -36 643 -73 239 -14 451 -27 471 -30 l36 -5 -5 123 c-12 329 92 575
446 1057 186 252 203 345 84 452 -111 100 -364 156 -577 127z m261 -300 c72
-13 84 -22 84 -63 0 -43 -37 -110 -146 -269 -167 -241 -260 -431 -327 -665
-27 -94 -51 -159 -67 -180 l-25 -31 -328 19 c-364 22 -391 27 -440 92 -50 65
-57 97 -57 248 0 163 3 172 98 291 134 168 385 362 588 455 208 95 448 135
620 103z M2824 6494 c14 -153 36 -222 110 -334 56 -84 139 -251 194 -390 45
-115 74 -198 147 -430 15 -47 38 -102 52 -123 13 -22 22 -41 19 -44 -3 -4
-184 4 -401 17 -218 12 -399 20 -402 16 -4 -3 -3 -9 0 -12 4 -4 149 -15 324
-26 371 -22 355 -18 520 -150 115 -92 144 -103 316 -118 67 -5 1083 -66 2257
-135 1174 -69 2331 -137 2570 -151 239 -14 496 -25 570 -23 387 7 500 3 630
-24 69 -14 154 -29 190 -32 133 -13 168 -44 93 -81 -51 -25 -170 -29 -408 -15
-104 6 -372 23 -595 36 -952 58 -5374 316 -5575 325 -121 5 -409 21 -640 35
-231 13 -481 27 -555 30 -491 21 -1106 62 -1434 96 -115 12 -189 41 -194 77
-2 12 3 24 10 27 7 3 82 9 166 14 129 7 157 11 180 28 37 27 55 68 60 134 l4
56 -43 6 c-24 4 -128 12 -230 18 -228 14 -263 7 -345 -75 -135 -136 -100 -358
70 -441 l53 -26 4669 -275 c2568 -152 4728 -277 4799 -277 150 -2 180 8 252
85 107 117 91 308 -36 404 -72 55 -37 51 -771 94 -1685 97 -5954 351 -5957
353 -2 2 -10 46 -19 98 -45 263 -185 651 -325 899 -92 163 -226 338 -301 391
l-31 23 7 -80z M9047 6150 c-75 -13 -187 -49 -240 -78 -62 -33 -122 -99 -138
-151 -43 -143 175 -288 464 -308 l87 -6 0 277 0 276 -62 -1 c-35 -1 -85 -5
-111 -9z M9220 5240 c0 -198 4 -360 8 -360 16 0 93 84 98 107 4 13 10 23 15
23 5 0 9 113 9 256 0 147 -4 253 -9 250 -5 -3 -12 4 -15 17 -7 26 -40 51 -78
61 l-28 6 0 -360z M620 4708 c0 -37 38 -269 66 -407 285 -1404 1034 -2592
1973 -3129 123 -71 287 -145 394 -178 l57 -18 0 -77 c0 -163 52 -293 159 -400
81 -80 155 -123 257 -149 192 -49 389 5 531 147 92 91 163 254 163 371 l0 24
-242 -6 c-363 -11 -594 9 -785 65 l-73 22 0 36 c0 55 -17 101 -47 134 -16 16
-104 67 -197 114 -93 47 -199 103 -235 126 -470 295 -856 717 -1196 1307 -276
479 -471 1002 -605 1623 -21 97 -50 201 -63 230 -26 56 -76 121 -126 163 l-31
26 0 -24z m3179 -4034 c21 -5 31 -12 31 -25 0 -24 -31 -43 -102 -64 -48 -14
-67 -14 -116 -5 -76 15 -136 49 -140 78 -3 22 -3 22 146 22 82 0 164 -3 181
-6z M9982 4128 c-113 -115 -108 -99 -177 -558 -153 -1012 -390 -1787 -667
-2175 -99 -140 -185 -221 -289 -274 -46 -24 -97 -53 -113 -64 -33 -24 -65 -89
-66 -134 0 -31 2 -33 33 -33 57 0 158 29 226 65 382 201 706 891 931 1979 84
412 188 1117 178 1215 l-3 33 -53 -54z M4422 1060 c-80 -5 -108 -11 -130 -26
-32 -25 -61 -78 -62 -116 l0 -28 1660 0 1660 0 0 -22 c1 -54 32 -168 65 -235
89 -180 292 -303 500 -303 68 0 193 33 258 67 71 38 186 155 224 228 36 69 63
165 63 224 l0 41 -397 -6 c-219 -3 -470 -1 -557 3 l-159 8 -12 48 c-14 57 -45
93 -94 109 -28 9 -376 13 -1476 14 -792 1 -1486 -2 -1543 -6z m3821 -386 c39
-7 48 -25 23 -49 -7 -7 -46 -24 -86 -36 l-73 -22 -75 22 c-41 12 -80 28 -88
36 -23 22 -17 43 14 48 45 7 244 7 285 1z"/>
</g>
</svg>
