<?xml version="1.0" standalone="no"?>
<!DOCTYPE svg PUBLIC "-//W3C//DTD SVG 20010904//EN"
 "http://www.w3.org/TR/2001/REC-SVG-20010904/DTD/svg10.dtd">
<svg version="1.0" xmlns="http://www.w3.org/2000/svg"
 width="2048.000000pt" height="2048.000000pt" viewBox="0 0 2048.000000 2048.000000"
 preserveAspectRatio="xMidYMid meet">
<metadata>
Created by potrace 1.13, written by Peter Selinger 2001-2015
</metadata>
<g transform="translate(0.000000,2048.000000) scale(0.192120,-0.192120)"
fill="#000000" stroke="none">
<path d="M522 6982 c-71 -26 -121 -68 -157 -133 l-30 -54 -3 -3115 c-2 -3525
-11 -3172 82 -3266 137 -137 357 -100 443 74 l28 57 0 308 0 307 4445 0 4445
0 0 -307 0 -308 28 -57 c86 -174 306 -211 443 -74 93 93 85 -117 82 2156 l-3
2005 -29 53 c-53 95 -133 142 -243 142 -83 0 -153 -29 -200 -84 -62 -70 -67
-88 -70 -241 -1 -77 0 -135 3 -128 3 7 12 9 20 6 9 -3 14 1 14 11 0 9 11 21
25 26 15 6 25 17 25 29 0 16 46 54 85 70 6 2 17 9 25 16 26 22 54 20 83 -5
l27 -24 0 -1108 c0 -978 -2 -1108 -15 -1108 -13 0 -15 -92 -15 -766 l0 -765
-22 3 c-23 3 -23 4 -26 211 -2 175 -5 207 -17 207 -8 0 -15 9 -15 19 0 11 -3
21 -7 23 -5 1 -17 20 -28 41 -10 22 -52 70 -93 108 -58 54 -87 73 -131 87 -53
16 -293 17 -4391 17 -4139 0 -4338 -1 -4393 -18 -49 -15 -70 -30 -140 -100
-100 -101 -106 -109 -113 -147 -4 -16 -13 -30 -20 -30 -11 0 -14 -41 -16 -207
l-3 -208 -32 -3 -33 -3 1 1478 c1 813 4 2102 8 2865 5 1272 7 1389 23 1404 9
9 21 13 27 10 8 -5 11 -229 11 -773 0 -628 3 -777 14 -822 8 -31 21 -84 30
-118 20 -77 20 -144 2 -209 -20 -70 -31 -2180 -12 -2187 7 -3 16 -28 20 -56 4
-28 11 -51 16 -51 5 0 17 -16 26 -35 18 -38 109 -127 154 -150 65 -34 155 -36
1445 -32 1229 3 1282 3 1340 22 58 19 138 19 3025 25 2354 4 2973 8 3002 18
45 15 116 73 143 116 10 17 22 33 26 36 24 17 29 164 29 877 0 434 -4 753 -9
753 -5 0 -11 10 -15 23 -3 13 -20 30 -41 40 -71 34 -65 106 -65 -823 l0 -840
-4450 0 -4450 0 2 2258 3 2257 -23 47 c-27 54 -98 123 -147 144 -59 24 -134
27 -193 6z M2530 5968 c-305 -22 -512 -175 -635 -471 -44 -107 -75 -234 -75
-309 0 -57 0 -57 -32 -62 -184 -26 -308 -49 -382 -71 -429 -125 -592 -351
-432 -599 234 -362 1130 -638 1933 -595 502 26 876 169 977 371 38 77 33 83
-33 38 -139 -95 -285 -139 -491 -147 -206 -8 -439 36 -617 117 -79 36 -86 37
-106 7 -8 -13 -38 -49 -67 -80 l-52 -57 -56 36 c-173 109 -365 285 -464 425
-104 146 -178 345 -178 481 0 64 1 68 23 68 47 0 117 32 141 64 13 17 38 74
56 126 56 167 135 286 234 355 43 29 59 36 65 26 7 -10 18 -10 61 3 29 9 56
13 61 10 17 -10 9 -59 -21 -133 -28 -69 -30 -81 -30 -211 0 -82 4 -141 10
-145 6 -3 10 -13 10 -20 0 -8 25 -67 56 -132 31 -65 73 -161 95 -215 38 -93
39 -100 39 -215 0 -131 19 -233 52 -273 19 -24 20 -24 34 -5 23 31 53 120 64
189 20 128 -7 236 -126 491 -141 304 -146 371 -39 535 93 144 224 238 368 263
l67 11 58 -55 c67 -66 84 -78 217 -154 113 -65 288 -194 385 -285 101 -94 196
-132 243 -97 16 11 14 17 -19 67 -62 93 -257 278 -377 358 -310 207 -686 314
-1017 290z m-880 -1178 c11 -11 45 -70 76 -132 60 -120 129 -228 219 -343 30
-38 55 -77 55 -85 0 -75 -543 124 -723 265 -75 59 -111 108 -103 139 11 43
140 106 310 151 112 30 140 31 166 5z M4383 5595 c-148 -32 -267 -116 -354
-248 -52 -80 -56 -106 -25 -154 33 -51 82 -175 102 -259 11 -50 15 -102 12
-184 -4 -97 -9 -129 -36 -205 -38 -107 -94 -329 -121 -480 -11 -61 -79 -470
-151 -910 -72 -440 -133 -813 -135 -828 l-5 -28 31 18 c46 27 114 104 143 160
32 63 48 146 136 673 87 517 88 546 31 690 l-39 100 2899 0 2899 0 0 140 0
140 -2856 2 -2857 3 46 50 c24 28 66 61 93 75 l49 25 490 3 c270 1 1505 3
2745 5 1265 1 2263 6 2273 11 14 7 17 18 15 55 l-3 46 -2839 3 -2838 2 66 70
c78 84 109 140 141 263 50 192 98 281 219 403 175 176 250 183 1152 104 1124
-98 2984 -260 3220 -280 257 -22 323 -34 420 -79 81 -38 130 -84 203 -191 63
-92 114 -140 175 -165 59 -25 76 -21 76 21 0 65 -31 178 -73 263 -103 212
-309 328 -627 352 -182 15 -1869 160 -3065 264 -950 83 -976 85 -1260 84 -203
0 -309 -5 -352 -14z m199 -171 c-120 -107 -225 -253 -336 -465 l-63 -120 -6
175 c-5 140 -4 182 8 209 20 49 124 141 200 177 50 24 218 76 255 79 3 1 -23
-24 -58 -55z M3960 4355 c-6 -8 -10 -22 -8 -32 3 -13 7 -9 15 15 13 35 12 39
-7 17z M1325 3928 c-90 -17 -193 -74 -270 -151 l-69 -69 24 -20 c35 -28 91
-20 182 27 40 21 126 58 191 82 146 53 156 58 167 89 18 47 6 54 -89 53 -47
-1 -108 -5 -136 -11z"/>
</g>
</svg>
