<?xml version="1.0" standalone="no"?>
<!DOCTYPE svg PUBLIC "-//W3C//DTD SVG 20010904//EN"
 "http://www.w3.org/TR/2001/REC-SVG-20010904/DTD/svg10.dtd">
<svg version="1.0" xmlns="http://www.w3.org/2000/svg"
 width="2048.000000pt" height="2048.000000pt" viewBox="0 0 2048.000000 2048.000000"
 preserveAspectRatio="xMidYMid meet">
<metadata>
Created by potrace 1.13, written by Peter Selinger 2001-2015
</metadata>
<g transform="translate(0.000000,2048.000000) scale(0.192120,-0.192120)"
fill="#000000" stroke="none">
<path d="M522 6982 c-71 -26 -121 -68 -157 -133 l-30 -54 -3 -3115 c-2 -3525
-11 -3172 82 -3266 137 -137 357 -100 443 74 l28 57 0 308 0 307 4445 0 4445
0 0 -307 0 -308 28 -57 c86 -174 306 -211 443 -74 93 93 85 -117 82 2156 l-3
2005 -29 53 c-53 95 -133 142 -243 142 -83 0 -153 -29 -200 -84 -62 -70 -67
-88 -70 -241 -1 -77 0 -135 3 -128 3 7 12 9 20 6 9 -3 14 1 14 11 0 9 11 21
25 26 15 6 25 17 25 29 0 16 46 54 85 70 6 2 17 9 25 16 26 22 54 20 83 -5
l27 -24 0 -1108 c0 -978 -2 -1108 -15 -1108 -13 0 -15 -92 -15 -766 l0 -765
-22 3 c-23 3 -23 4 -26 211 -2 175 -5 207 -17 207 -8 0 -15 9 -15 19 0 11 -3
21 -7 23 -5 1 -17 20 -28 41 -10 22 -52 70 -93 108 -58 54 -87 73 -131 87 -53
16 -293 17 -4391 17 -4139 0 -4338 -1 -4393 -18 -49 -15 -70 -30 -140 -100
-100 -101 -106 -109 -113 -147 -4 -16 -13 -30 -20 -30 -11 0 -14 -41 -16 -207
l-3 -208 -32 -3 -33 -3 1 1478 c1 813 4 2102 8 2865 5 1272 7 1389 23 1404 9
9 21 13 27 10 8 -5 11 -229 11 -773 0 -628 3 -777 14 -822 8 -31 21 -84 30
-118 20 -77 20 -144 2 -209 -20 -70 -31 -2180 -12 -2187 7 -3 16 -28 20 -56 4
-28 11 -51 16 -51 5 0 17 -16 26 -35 18 -38 109 -127 154 -150 65 -34 155 -36
1445 -32 1229 3 1282 3 1340 22 58 19 138 19 3025 25 2354 4 2973 8 3002 18
45 15 116 73 143 116 10 17 22 33 26 36 24 17 29 164 29 877 0 434 -4 753 -9
753 -5 0 -11 10 -15 23 -3 13 -20 30 -41 40 -71 34 -65 106 -65 -823 l0 -840
-4450 0 -4450 0 2 2258 3 2257 -23 47 c-27 54 -98 123 -147 144 -59 24 -134
27 -193 6z M2530 5969 c-208 -15 -385 -100 -501 -242 -96 -118 -209 -394 -209
-512 0 -18 -3 -46 -6 -62 l-6 -29 -112 -12 c-283 -30 -555 -133 -681 -258
-151 -149 -132 -331 52 -506 425 -402 1557 -609 2306 -422 256 64 448 179 511
306 38 76 33 85 -23 44 -211 -155 -560 -197 -898 -110 -89 23 -190 57 -267 89
l-35 15 40 74 c66 123 87 226 69 341 -15 101 -33 149 -126 352 -126 273 -138
346 -76 469 83 164 215 280 367 320 61 17 224 17 284 1 40 -11 45 -16 62 -63
24 -65 63 -104 186 -190 54 -38 139 -103 188 -144 131 -111 162 -130 212 -130
23 0 45 5 48 10 10 17 -58 100 -163 201 -247 237 -566 391 -913 443 -131 19
-202 23 -309 15z m-218 -410 c-2 -13 -6 -88 -9 -166 -6 -166 -2 -182 108 -434
l69 -156 0 -170 c0 -169 0 -170 -26 -193 l-25 -24 -47 24 c-100 53 -250 226
-326 378 -53 104 -55 214 -6 314 11 23 20 52 20 65 0 48 61 213 102 273 41 61
112 124 132 117 6 -2 10 -15 8 -28z m-470 -654 c24 -97 80 -220 145 -317 95
-143 294 -328 475 -442 l57 -36 69 76 70 76 7 -75 c10 -100 7 -109 -45 -134
-84 -43 -160 -32 -490 67 -448 134 -692 232 -815 327 -59 46 -145 150 -145
175 0 11 11 29 25 42 14 13 25 30 25 38 0 28 137 89 291 128 67 17 95 31 136
65 54 44 152 152 154 170 1 6 6 -10 11 -35 6 -25 19 -81 30 -125z M4380 5594
c-158 -34 -300 -143 -377 -290 l-27 -52 46 -93 c78 -157 93 -221 93 -384 -1
-129 -3 -146 -29 -215 -16 -41 -33 -80 -38 -87 -5 -7 -6 -18 -2 -24 5 -8 3 -9
-6 -4 -10 6 -12 4 -7 -8 3 -9 -14 -102 -38 -207 -24 -105 -47 -216 -50 -248
-4 -31 -64 -406 -135 -832 -70 -426 -130 -792 -133 -813 l-6 -37 30 17 c46 27
114 104 143 160 32 63 48 146 136 673 87 517 88 546 31 690 l-39 100 2899 0
2899 0 0 140 0 140 -2857 0 -2857 0 53 54 c29 29 74 64 99 77 l47 24 490 3
c270 1 1503 3 2740 5 1262 1 2258 6 2268 11 14 7 17 18 15 55 l-3 46 -2823 3
-2824 2 62 68 c71 78 113 161 129 252 31 186 82 290 204 414 175 179 248 185
1153 106 1124 -98 2984 -260 3220 -280 257 -22 323 -34 420 -79 81 -38 130
-84 203 -191 63 -92 114 -140 175 -165 59 -25 76 -21 76 21 0 65 -31 178 -73
263 -103 212 -309 328 -627 352 -200 16 -1715 146 -2949 254 -1072 94 -1087
95 -1375 94 -210 0 -309 -5 -356 -15z m202 -170 c-115 -103 -221 -247 -325
-442 l-54 -102 -6 164 c-5 149 -4 169 13 204 42 87 166 164 333 207 51 13 94
24 97 24 3 1 -23 -24 -58 -55z M3982 4380 c-39 -45 -42 -53 -36 -86 l7 -36 38
83 c22 45 38 83 36 85 -1 2 -22 -19 -45 -46z M1325 3928 c-90 -17 -193 -74
-270 -151 l-69 -69 24 -20 c35 -28 91 -20 182 27 40 21 126 58 191 82 146 53
156 58 167 89 18 47 6 54 -89 53 -47 -1 -108 -5 -136 -11z"/>
</g>
</svg>
