<?xml version="1.0" standalone="no"?>
<!DOCTYPE svg PUBLIC "-//W3C//DTD SVG 20010904//EN"
 "http://www.w3.org/TR/2001/REC-SVG-20010904/DTD/svg10.dtd">
<svg version="1.0" xmlns="http://www.w3.org/2000/svg"
 width="2048.000000pt" height="2048.000000pt" viewBox="0 0 2048.000000 2048.000000"
 preserveAspectRatio="xMidYMid meet">
<metadata>
Created by potrace 1.13, written by Peter Selinger 2001-2015
</metadata>
<g transform="translate(0.000000,2048.000000) scale(0.192120,-0.192120)"
fill="#000000" stroke="none">
<path d="M1320 10324 c-273 -42 -463 -131 -640 -301 -176 -167 -284 -364 -332
-603 -19 -96 -19 -8084 0 -8180 44 -218 140 -404 289 -560 167 -175 365 -284
603 -332 100 -20 8084 -19 8185 1 451 90 796 436 887 891 19 96 19 8084 0
8180 -45 223 -141 407 -298 570 -156 162 -327 258 -563 318 -61 15 -367 16
-4086 18 -2211 1 -4031 0 -4045 -2z m2678 -290 c25 -7 31 -34 7 -34 -8 0 -15
-4 -15 -9 0 -5 -12 -14 -27 -20 -92 -37 -221 -116 -324 -199 -195 -157 -341
-362 -435 -612 -28 -74 -28 -78 -32 -337 l-3 -261 35 -105 c60 -181 174 -379
290 -505 80 -87 87 -107 41 -128 -11 -5 -493 -11 -1115 -14 -1231 -7 -1127 0
-1299 -86 -153 -78 -306 -235 -388 -399 -80 -160 -73 161 -74 -3202 l-1 -3008
-26 55 -27 55 0 4130 0 4130 24 55 c107 249 351 432 644 485 57 10 355 13
1387 14 723 0 1325 -2 1338 -5z m5457 -21 c254 -71 468 -244 556 -451 l28 -67
0 -4150 0 -4150 -24 -45 -24 -45 -1 3026 c0 2155 -3 3036 -11 3060 -19 61 -78
179 -118 237 -118 174 -270 291 -456 353 l-70 23 -1080 6 c-1114 6 -1145 7
-1145 45 0 7 28 37 62 65 127 106 208 238 263 425 46 158 57 265 53 535 l-3
245 -34 65 c-49 95 -186 229 -266 261 l-60 24 -865 5 -865 5 -46 27 c-25 15
-75 60 -112 101 -123 137 -253 238 -427 328 -47 24 -86 47 -88 52 -2 4 -10 7
-18 7 -20 0 -17 28 4 33 9 3 1063 4 2342 3 l2325 -1 80 -22z m-4869 -268 c109
-27 232 -82 321 -143 113 -77 241 -219 299 -334 l24 -48 968 -2 c932 -3 968
-4 995 -22 16 -10 38 -37 50 -60 20 -37 22 -59 25 -220 11 -559 -145 -903
-354 -781 -101 59 -192 285 -194 480 l0 50 -92 -2 -93 -2 -40 -118 c-113 -331
-260 -484 -401 -417 -88 42 -210 240 -269 437 l-29 97 -233 0 c-128 0 -236 1
-240 3 -3 1 -14 -35 -24 -79 -64 -299 -294 -569 -580 -683 -132 -53 -199 -65
-359 -65 -117 0 -162 4 -234 22 -291 73 -547 289 -661 560 -53 127 -67 194
-72 349 -8 213 28 358 133 538 64 109 220 265 329 329 168 98 303 134 501 135
109 1 148 -3 230 -24z m1036 -1389 c10 -6 55 -70 100 -143 93 -151 145 -214
228 -278 90 -69 95 -75 76 -93 -11 -11 -47 -18 -123 -23 -136 -10 -563 -10
-666 0 -116 10 -118 25 -22 136 63 73 151 199 195 280 49 90 70 116 104 131
32 14 77 10 108 -10z m1053 -307 c31 -38 88 -94 127 -125 118 -95 95 -106
-222 -106 -124 0 -238 4 -255 9 -45 14 -42 37 10 76 61 47 111 93 164 153 51
56 77 73 101 67 10 -3 43 -36 75 -74z m2679 -514 c175 -46 324 -180 389 -350
l22 -60 3 -2875 c2 -2124 0 -2889 -8 -2930 -41 -196 -218 -376 -413 -420 -33
-7 -1267 -10 -4020 -10 -3456 0 -3979 2 -4027 15 -189 50 -347 207 -394 392
-15 55 -16 343 -14 2945 l3 2883 22 60 c63 167 214 303 384 349 47 13 594 15
4024 15 3532 1 3977 -1 4029 -14z m-8625 -6417 c53 -108 112 -192 206 -293 30
-33 55 -67 55 -75 0 -13 -1 -13 -10 0 -5 8 -10 11 -10 6 0 -5 -6 -4 -12 2 -7
6 -15 10 -18 9 -17 -3 -107 63 -152 112 -103 111 -113 131 -116 243 -2 54 -2
98 1 98 3 0 28 -46 56 -102z m9239 -98 c-25 -50 -87 -127 -140 -175 -59 -55
-158 -112 -158 -92 0 7 30 46 66 87 81 92 162 213 206 305 l33 70 3 -85 c2
-54 -2 -94 -10 -110z M3970 9204 c-155 -42 -272 -173 -301 -338 -30 -177 67
-359 239 -443 52 -26 66 -28 172 -28 106 0 120 2 172 28 170 83 270 267 239
439 -44 252 -279 407 -521 342z m213 -307 c25 -16 27 -22 27 -93 0 -71 -2 -78
-30 -104 -33 -31 -88 -43 -140 -31 -87 20 -112 53 -108 143 l3 63 45 23 c37
19 57 23 111 20 41 -2 76 -10 92 -21z M1648 6986 c-95 -26 -173 -104 -198
-197 -7 -24 -9 -940 -8 -2590 l3 -2554 24 -45 c32 -61 67 -97 126 -128 l50
-27 3685 0 3685 0 50 27 c59 31 94 67 126 128 l24 45 0 2575 0 2575 -22 41
c-36 67 -70 101 -131 131 l-57 28 -3655 2 c-2925 1 -3664 -1 -3702 -11z m4353
-280 c185 -39 338 -173 408 -356 25 -64 25 -70 29 -402 l3 -338 140 0 139 0 0
-1807 0 -1808 -1390 0 -1390 0 0 1808 0 1807 140 0 140 0 0 313 c0 247 3 325
15 372 52 202 220 367 419 410 91 20 1254 20 1347 1z m-1841 -21 c0 -13 -11
-44 -25 -67 -125 -213 -155 -318 -155 -540 0 -132 -2 -144 -20 -156 -14 -8
-20 -23 -20 -48 0 -33 -9 -45 -95 -126 -52 -50 -98 -101 -101 -114 -3 -13 -10
-24 -15 -24 -5 0 -9 -755 -9 -1805 0 -993 4 -1805 8 -1805 4 0 14 -16 20 -35
14 -36 47 -78 125 -155 90 -90 65 -103 -213 -103 -211 -1 -250 5 -250 40 0 8
29 46 65 84 35 38 72 83 81 101 9 18 22 36 28 40 8 5 11 505 11 1830 l0 1823
-25 29 c-72 84 -160 162 -210 185 -51 24 -65 26 -195 25 -154 -1 -233 -15
-343 -65 -153 -69 -328 -236 -407 -390 -94 -182 -85 -16 -85 -1603 0 -1538 -4
-1423 63 -1569 79 -170 214 -323 369 -419 177 -108 162 -112 -502 -112 -402
-1 -520 2 -537 12 l-23 13 0 2484 c0 2357 1 2484 18 2488 9 3 563 5 1230 6
l1212 1 0 -25z m4764 19 c15 -6 16 -234 16 -2490 l0 -2483 -22 -13 c-18 -10
-134 -13 -528 -12 -516 0 -590 5 -590 39 0 7 39 37 88 66 185 111 339 309 411
529 l21 66 -2 1414 -3 1415 -38 90 c-48 117 -112 211 -212 311 -90 91 -186
152 -295 189 -154 52 -374 57 -475 11 -63 -29 -225 -184 -225 -216 0 -6 -4
-10 -10 -10 -7 0 -10 -608 -10 -1805 0 -1197 3 -1805 10 -1805 6 0 10 -7 10
-15 0 -8 4 -15 9 -15 5 0 15 -14 22 -32 7 -18 44 -65 81 -104 113 -119 101
-128 -182 -127 -210 0 -260 7 -260 38 0 9 26 43 58 77 31 33 62 65 67 72 6 6
17 26 24 44 7 17 17 32 22 32 5 0 9 7 9 15 0 8 5 15 10 15 7 0 10 608 10 1805
0 1197 -3 1805 -10 1805 -5 0 -10 4 -10 10 0 22 -125 157 -181 195 -35 25 -39
32 -39 71 0 32 -4 44 -14 44 -12 0 -15 30 -19 163 -3 89 -9 187 -16 217 -12
63 -79 225 -110 269 -30 41 -53 101 -47 117 5 12 194 14 1210 14 662 0 1211
-3 1220 -6z m-5536 -2901 l-3 -1807 -180 3 c-203 3 -240 9 -343 58 -145 68
-263 220 -298 382 -21 101 -20 2624 1 2726 45 213 214 384 425 429 40 9 129
15 233 15 l167 1 -2 -1807z m4333 1779 c164 -54 305 -195 362 -361 l22 -66 3
-1315 c2 -938 -1 -1334 -9 -1382 -34 -205 -204 -391 -404 -441 -40 -11 -121
-17 -240 -18 l-180 -3 -3 1808 -2 1808 192 -4 c162 -4 204 -8 259 -26z M4944
6141 c-62 -28 -119 -85 -145 -144 -20 -46 -23 -72 -27 -219 l-4 -168 562 0
562 0 -4 168 c-5 193 -20 244 -90 308 -82 74 -82 74 -468 74 -316 0 -348 -2
-386 -19z"/>
</g>
</svg>
