<?xml version="1.0" standalone="no"?>
<!DOCTYPE svg PUBLIC "-//W3C//DTD SVG 20010904//EN"
 "http://www.w3.org/TR/2001/REC-SVG-20010904/DTD/svg10.dtd">
<svg version="1.0" xmlns="http://www.w3.org/2000/svg"
 width="2048.000000pt" height="2048.000000pt" viewBox="0 0 2048.000000 2048.000000"
 preserveAspectRatio="xMidYMid meet">
<metadata>
Created by potrace 1.13, written by Peter Selinger 2001-2015
</metadata>
<g transform="translate(0.000000,2048.000000) scale(0.192120,-0.192120)"
fill="#000000" stroke="none">
<path d="M8180 10319 c-539 -61 -978 -353 -1120 -746 -33 -91 -60 -228 -60
-301 l0 -46 41 39 c53 53 97 120 169 259 61 119 155 256 175 256 7 0 20 9 31
21 31 34 203 145 276 178 92 41 234 86 359 112 90 20 135 23 329 23 195 1 240
-2 337 -22 418 -84 725 -295 833 -574 64 -165 60 -18 60 -2333 0 -1397 3
-2105 10 -2105 6 0 10 -20 10 -45 0 -25 5 -45 10 -45 6 0 10 -5 10 -10 0 -13
10 -26 72 -94 l48 -51 0 515 c2 3057 -1 3993 -14 4063 -17 85 -49 182 -84 252
-96 192 -294 381 -517 493 -271 135 -650 198 -975 161z M8250 9954 c-62 -8
-229 -45 -288 -63 -154 -50 -275 -125 -378 -233 -125 -133 -154 -238 -94 -343
47 -83 55 -84 67 -16 53 282 383 471 824 472 365 0 661 -125 782 -331 60 -103
57 -19 57 -1716 l0 -1551 28 5 c35 6 82 39 82 58 0 8 5 12 10 9 7 -4 10 518
10 1559 l0 1564 -22 59 c-56 148 -177 289 -322 375 -82 49 -242 106 -371 133
-77 16 -314 28 -385 19z M7110 9209 c-105 -12 -283 -72 -380 -127 -155 -89
-269 -236 -285 -366 l-7 -54 -44 -6 c-173 -23 -279 -220 -206 -381 28 -60 62
-98 122 -133 l45 -27 899 -3 c999 -3 953 -6 1034 64 124 106 126 307 5 414
-43 38 -116 70 -158 70 -18 0 -23 9 -33 63 -19 102 -62 176 -152 260 -192 181
-502 264 -840 226z m375 -239 c71 -27 115 -56 115 -75 0 -29 -78 -36 -356 -33
-236 3 -276 5 -290 19 -15 15 -13 19 18 42 18 14 67 37 108 52 69 24 85 25
210 22 111 -3 146 -8 195 -27z m620 -345 c3 -19 7 -50 10 -68 3 -19 19 -55 35
-81 39 -62 40 -108 2 -146 -25 -25 -38 -29 -113 -35 -46 -3 -424 -5 -839 -3
l-755 3 -41 22 c-64 34 -70 78 -20 144 39 51 56 97 56 149 0 20 3 40 7 43 3 4
377 7 829 7 l823 0 6 -35z M2180 6989 c-359 -44 -725 -247 -1042 -577 -351
-366 -375 -724 -72 -1065 l41 -46 174 -11 c96 -5 329 -19 519 -30 190 -11 363
-22 386 -25 l41 -6 -5 123 c-12 330 90 572 446 1058 188 256 203 344 81 454
-108 98 -353 152 -569 125z m287 -314 c48 -15 29 -76 -66 -215 -250 -365 -324
-513 -418 -848 -10 -37 -26 -68 -35 -73 -10 -5 -18 -16 -18 -24 0 -12 -12 -14
-57 -10 -32 3 -174 12 -317 21 -320 18 -341 25 -393 128 -23 46 -24 55 -21
195 l3 146 48 72 c189 284 622 560 962 613 63 9 275 6 312 -5z M2900 6437 c0
-77 22 -141 87 -248 96 -159 201 -392 278 -614 45 -132 91 -218 146 -276 32
-33 53 -49 56 -41 8 21 -36 209 -83 351 -114 343 -266 642 -420 824 -26 31
-52 57 -56 57 -4 0 -8 -24 -8 -53z M9047 6150 c-75 -13 -187 -49 -240 -78 -62
-33 -122 -99 -138 -151 -43 -143 175 -288 464 -308 l87 -6 0 277 0 276 -62 -1
c-35 -1 -85 -5 -111 -9z M9220 5240 c0 -198 4 -360 8 -360 16 0 93 84 98 107
4 13 10 23 15 23 5 0 9 113 9 256 0 147 -4 253 -9 250 -5 -3 -12 4 -15 17 -7
26 -40 51 -78 61 l-28 6 0 -360z M510 5313 c-64 -23 -142 -105 -165 -172 -43
-131 17 -276 139 -336 l53 -26 4669 -275 c2568 -152 4728 -277 4799 -277 150
-2 180 8 252 85 107 117 91 308 -36 404 -72 55 -38 51 -771 94 -385 22 -6913
405 -7083 416 l-108 6 6 -43 c13 -95 16 -108 36 -133 36 -46 92 -54 553 -81
237 -14 478 -32 536 -41 58 -8 141 -19 185 -24 44 -5 1079 -68 2300 -140 1221
-71 2416 -142 2655 -156 239 -14 496 -25 570 -23 387 7 500 3 630 -24 69 -14
154 -29 190 -32 133 -13 168 -44 93 -81 -51 -25 -170 -29 -408 -15 -104 6
-372 23 -595 36 -223 14 -1559 92 -2970 175 -1411 82 -2799 164 -3085 181
-286 16 -592 32 -680 35 -392 11 -1062 53 -1373 85 -213 22 -284 43 -290 87
-2 12 3 24 10 27 7 3 77 9 155 14 190 11 221 31 230 155 l6 64 -44 6 c-60 8
-325 26 -374 25 -22 0 -60 -8 -85 -16z M620 4708 c0 -37 38 -269 66 -407 285
-1404 1034 -2592 1973 -3129 123 -71 287 -145 394 -178 l57 -18 0 -77 c0 -163
52 -293 159 -400 81 -80 155 -123 257 -149 192 -49 389 5 531 147 92 91 163
254 163 371 l0 24 -242 -6 c-363 -11 -594 9 -785 65 l-73 22 0 36 c0 55 -17
101 -47 134 -16 16 -104 67 -197 114 -93 47 -199 103 -235 126 -470 295 -856
717 -1196 1307 -276 479 -471 1002 -605 1623 -21 97 -50 201 -63 230 -26 56
-76 121 -126 163 l-31 26 0 -24z m3179 -4034 c21 -5 31 -12 31 -25 0 -24 -31
-43 -102 -64 -48 -14 -67 -14 -116 -5 -76 15 -136 49 -140 78 -3 22 -3 22 146
22 82 0 164 -3 181 -6z M9982 4128 c-113 -115 -108 -99 -177 -558 -153 -1012
-390 -1787 -667 -2175 -99 -140 -185 -221 -289 -274 -46 -24 -97 -53 -113 -64
-33 -24 -65 -89 -66 -134 0 -31 2 -33 33 -33 57 0 158 29 226 65 382 201 706
891 931 1979 84 412 188 1117 178 1215 l-3 33 -53 -54z M4422 1060 c-80 -5
-108 -11 -130 -26 -32 -25 -61 -78 -62 -116 l0 -28 1660 0 1660 0 0 -22 c1
-54 32 -168 65 -235 89 -180 292 -303 500 -303 68 0 193 33 258 67 71 38 186
155 224 228 36 69 63 165 63 224 l0 41 -397 -6 c-219 -3 -470 -1 -557 3 l-159
8 -12 48 c-14 57 -45 93 -94 109 -28 9 -376 13 -1476 14 -792 1 -1486 -2
-1543 -6z m3821 -386 c39 -7 48 -25 23 -49 -7 -7 -46 -24 -86 -36 l-73 -22
-75 22 c-41 12 -80 28 -88 36 -23 22 -17 43 14 48 45 7 244 7 285 1z"/>
</g>
</svg>
