<?xml version="1.0" standalone="no"?>
<!DOCTYPE svg PUBLIC "-//W3C//DTD SVG 20010904//EN"
 "http://www.w3.org/TR/2001/REC-SVG-20010904/DTD/svg10.dtd">
<svg version="1.0" xmlns="http://www.w3.org/2000/svg"
 width="2048.000000pt" height="2048.000000pt" viewBox="0 0 2048.000000 2048.000000"
 preserveAspectRatio="xMidYMid meet">
<metadata>
Created by potrace 1.13, written by Peter Selinger 2001-2015
</metadata>
<g transform="translate(0.000000,2048.000000) scale(0.192120,-0.192120)"
fill="#000000" stroke="none">
<path d="M522 6982 c-71 -26 -121 -68 -157 -133 l-30 -54 -3 -3115 c-2 -3525
-11 -3172 82 -3266 137 -137 357 -100 443 74 l28 57 0 308 0 307 4445 0 4445
0 0 -307 0 -308 28 -57 c86 -174 306 -211 443 -74 93 93 85 -117 82 2156 l-3
2005 -29 53 c-53 95 -133 142 -243 142 -117 0 -206 -58 -255 -165 l-23 -50 0
-1138 0 -1137 -4445 0 -4445 0 0 2252 0 2253 -23 47 c-27 54 -98 123 -147 144
-59 24 -134 27 -193 6z m128 -1242 c4 -574 8 -793 17 -815 25 -63 35 -141 28
-225 -3 -47 -8 -319 -11 -604 -4 -492 -4 -524 15 -610 19 -83 21 -136 24 -610
3 -387 6 -521 15 -524 7 -2 12 -19 12 -38 0 -19 4 -34 9 -34 5 0 11 -10 15
-22 8 -35 93 -126 140 -151 l41 -22 4375 0 c4106 0 4377 1 4411 17 39 18 129
112 129 133 0 7 5 15 11 17 5 2 13 23 16 47 3 23 12 45 19 48 12 4 14 97 14
529 0 521 0 525 24 627 52 216 56 262 56 607 0 331 2 350 37 350 11 0 13 -344
13 -1881 l0 -1880 -22 3 c-23 3 -23 4 -26 211 -2 175 -5 207 -17 207 -8 0 -15
9 -15 19 0 11 -3 21 -7 23 -5 2 -17 20 -27 41 -24 47 -139 157 -190 181 -20 9
-81 22 -134 27 -60 6 -1715 9 -4367 7 -4088 -3 -4272 -4 -4323 -21 -42 -14
-70 -35 -135 -101 -100 -100 -106 -108 -113 -146 -4 -16 -13 -30 -20 -30 -11
0 -14 -41 -16 -207 l-3 -208 -32 -3 -33 -3 1 1473 c2 2248 13 4332 22 4346 5
7 16 12 25 10 16 -3 17 -68 22 -788z M1415 5094 c-186 -28 -360 -103 -429
-185 -51 -60 -69 -113 -64 -193 5 -106 48 -187 157 -297 384 -384 1281 -628
1861 -505 175 37 325 124 379 218 41 72 48 136 22 218 -26 82 -62 137 -152
227 -249 252 -751 459 -1256 518 -155 18 -396 18 -518 -1z m542 -289 c363 -48
761 -191 980 -354 112 -84 133 -111 133 -171 0 -43 -4 -51 -36 -80 -86 -75
-179 -95 -449 -95 -305 1 -388 17 -690 138 -351 140 -551 251 -659 367 -66 72
-74 110 -28 134 41 21 160 55 227 65 102 15 395 12 522 -4z M1297 3925 c-156
-43 -303 -169 -361 -310 -17 -39 -16 -40 5 -57 25 -21 84 -23 119 -4 14 7 70
41 125 75 123 76 162 88 345 106 276 28 340 57 340 157 l0 48 -262 -1 c-185
-1 -277 -5 -311 -14z M3170 3894 c0 -88 55 -136 176 -154 45 -6 1096 -10 2964
-10 3141 0 2966 3 3079 -54 28 -14 81 -46 118 -70 107 -68 170 -82 212 -48 21
17 22 18 5 57 -44 106 -150 217 -259 270 -119 59 107 55 -3227 55 l-3068 0 0
-46z"/>
</g>
</svg>
