<?xml version="1.0" standalone="no"?>
<!DOCTYPE svg PUBLIC "-//W3C//DTD SVG 20010904//EN"
 "http://www.w3.org/TR/2001/REC-SVG-20010904/DTD/svg10.dtd">
<svg version="1.0" xmlns="http://www.w3.org/2000/svg"
 width="2048.000000pt" height="2048.000000pt" viewBox="0 0 2048.000000 2048.000000"
 preserveAspectRatio="xMidYMid meet">
<metadata>
Created by potrace 1.13, written by Peter Selinger 2001-2015
</metadata>
<g transform="translate(0.000000,2048.000000) scale(0.192120,-0.192120)"
fill="#000000" stroke="none">
<path d="M8180 10319 c-539 -61 -978 -353 -1120 -746 -33 -91 -60 -228 -60
-301 l0 -46 41 39 c53 53 97 120 169 259 61 119 155 256 175 256 7 0 20 9 31
21 31 34 203 145 276 178 92 41 234 86 359 112 90 20 135 23 329 23 195 1 240
-2 337 -22 418 -84 725 -295 833 -574 64 -165 60 -18 60 -2333 0 -1397 3
-2105 10 -2105 6 0 10 -20 10 -45 0 -25 5 -45 10 -45 6 0 10 -5 10 -10 0 -13
10 -26 72 -94 l48 -51 0 515 c2 3057 -1 3993 -14 4063 -17 85 -49 182 -84 252
-96 192 -294 381 -517 493 -271 135 -650 198 -975 161z M8250 9954 c-62 -8
-229 -45 -288 -63 -154 -50 -275 -125 -378 -233 -125 -133 -154 -238 -94 -343
47 -83 55 -84 67 -16 53 282 383 471 824 472 365 0 661 -125 782 -331 60 -103
57 -19 57 -1716 l0 -1551 28 5 c35 6 82 39 82 58 0 8 5 12 10 9 7 -4 10 518
10 1559 l0 1564 -22 59 c-56 148 -177 289 -322 375 -82 49 -242 106 -371 133
-77 16 -314 28 -385 19z M7110 9209 c-105 -12 -283 -72 -380 -127 -155 -89
-269 -236 -285 -366 l-7 -54 -44 -6 c-173 -23 -279 -220 -206 -381 28 -60 62
-98 122 -133 l45 -27 899 -3 c999 -3 953 -6 1034 64 124 106 126 307 5 414
-43 38 -116 70 -158 70 -18 0 -23 9 -33 63 -19 102 -62 176 -152 260 -192 181
-502 264 -840 226z m375 -239 c71 -27 115 -56 115 -75 0 -29 -78 -36 -356 -33
-236 3 -276 5 -290 19 -15 15 -13 19 18 42 18 14 67 37 108 52 69 24 85 25
210 22 111 -3 146 -8 195 -27z m620 -345 c3 -19 7 -50 10 -68 3 -19 19 -55 35
-81 39 -62 40 -108 2 -146 -25 -25 -38 -29 -113 -35 -46 -3 -424 -5 -839 -3
l-755 3 -41 22 c-64 34 -70 78 -20 144 39 51 56 97 56 149 0 20 3 40 7 43 3 4
377 7 829 7 l823 0 6 -35z M2180 6989 c-358 -44 -726 -248 -1042 -577 -193
-201 -281 -384 -281 -582 1 -170 71 -333 210 -483 l42 -46 523 -30 c288 -17
539 -32 560 -35 l36 -4 -5 132 c-4 109 -2 148 17 235 34 167 102 327 214 504
61 97 318 456 326 457 3 0 11 -44 17 -99 15 -124 37 -181 120 -317 103 -169
211 -414 269 -608 31 -103 31 -156 1 -184 l-23 -21 -319 18 c-176 10 -322 15
-325 11 -3 -4 -28 -9 -57 -12 -38 -4 -74 -18 -137 -54 -81 -46 -84 -49 -58
-56 15 -4 263 -21 552 -38 289 -17 546 -33 571 -36 46 -6 47 -6 53 -51 15
-112 55 -173 124 -193 65 -18 220 -28 2392 -155 1174 -69 2331 -137 2570 -151
239 -14 496 -25 570 -23 387 7 500 3 630 -24 69 -14 154 -29 190 -32 133 -13
168 -44 93 -81 -51 -25 -170 -29 -408 -15 -104 6 -374 23 -600 37 -1449 88
-5394 316 -5605 324 -140 5 -448 21 -685 35 -236 14 -628 36 -870 50 -1066 60
-1230 81 -1230 155 0 20 6 26 27 28 16 2 28 8 28 13 0 5 42 9 93 9 106 1 160
11 196 38 35 26 60 78 61 128 0 51 10 48 -256 65 -234 14 -267 7 -350 -75
-135 -136 -100 -358 70 -441 l53 -26 4669 -275 c2568 -152 4728 -277 4799
-277 150 -2 180 8 252 85 107 117 91 308 -36 404 -72 55 -37 51 -771 94 -1452
84 -5954 350 -5956 353 -1 1 -10 43 -18 93 -45 260 -190 662 -323 898 -82 145
-166 259 -262 355 l-94 94 17 46 c9 25 16 59 16 74 0 67 -73 152 -171 200
-120 59 -319 86 -479 66z m280 -310 c57 -12 67 -30 56 -101 -9 -53 -25 -84
-106 -198 -182 -258 -285 -470 -360 -745 -13 -49 -32 -93 -49 -112 l-27 -32
-328 19 c-180 11 -345 24 -366 30 -54 15 -93 50 -124 115 -27 53 -27 60 -24
193 3 137 3 138 38 196 44 73 187 226 288 308 202 162 430 277 642 322 79 17
290 20 360 5z M9047 6150 c-75 -13 -187 -49 -240 -78 -62 -33 -122 -99 -138
-151 -43 -143 175 -288 464 -308 l87 -6 0 277 0 276 -62 -1 c-35 -1 -85 -5
-111 -9z M9220 5240 c0 -198 4 -360 8 -360 16 0 93 84 98 107 4 13 10 23 15
23 5 0 9 113 9 256 0 147 -4 253 -9 250 -5 -3 -12 4 -15 17 -7 26 -40 51 -78
61 l-28 6 0 -360z M620 4708 c0 -37 38 -269 66 -407 285 -1404 1034 -2592
1973 -3129 123 -71 287 -145 394 -178 l57 -18 0 -77 c0 -163 52 -293 159 -400
81 -80 155 -123 257 -149 192 -49 389 5 531 147 92 91 163 254 163 371 l0 24
-242 -6 c-363 -11 -594 9 -785 65 l-73 22 0 36 c0 55 -17 101 -47 134 -16 16
-104 67 -197 114 -93 47 -199 103 -235 126 -470 295 -856 717 -1196 1307 -276
479 -471 1002 -605 1623 -21 97 -50 201 -63 230 -26 56 -76 121 -126 163 l-31
26 0 -24z m3179 -4034 c21 -5 31 -12 31 -25 0 -24 -31 -43 -102 -64 -48 -14
-67 -14 -116 -5 -76 15 -136 49 -140 78 -3 22 -3 22 146 22 82 0 164 -3 181
-6z M9982 4128 c-113 -115 -108 -99 -177 -558 -153 -1012 -390 -1787 -667
-2175 -99 -140 -185 -221 -289 -274 -46 -24 -97 -53 -113 -64 -33 -24 -65 -89
-66 -134 0 -31 2 -33 33 -33 57 0 158 29 226 65 382 201 706 891 931 1979 84
412 188 1117 178 1215 l-3 33 -53 -54z M4422 1060 c-80 -5 -108 -11 -130 -26
-32 -25 -61 -78 -62 -116 l0 -28 1660 0 1660 0 0 -22 c1 -54 32 -168 65 -235
89 -180 292 -303 500 -303 68 0 193 33 258 67 71 38 186 155 224 228 36 69 63
165 63 224 l0 41 -397 -6 c-219 -3 -470 -1 -557 3 l-159 8 -12 48 c-14 57 -45
93 -94 109 -28 9 -376 13 -1476 14 -792 1 -1486 -2 -1543 -6z m3821 -386 c39
-7 48 -25 23 -49 -7 -7 -46 -24 -86 -36 l-73 -22 -75 22 c-41 12 -80 28 -88
36 -23 22 -17 43 14 48 45 7 244 7 285 1z"/>
</g>
</svg>
