<?xml version="1.0" standalone="no"?>
<!DOCTYPE svg PUBLIC "-//W3C//DTD SVG 20010904//EN"
 "http://www.w3.org/TR/2001/REC-SVG-20010904/DTD/svg10.dtd">
<svg version="1.0" xmlns="http://www.w3.org/2000/svg"
 width="2048.000000pt" height="2048.000000pt" viewBox="0 0 2048.000000 2048.000000"
 preserveAspectRatio="xMidYMid meet">
<metadata>
Created by potrace 1.13, written by Peter Selinger 2001-2015
</metadata>
<g transform="translate(0.000000,2048.000000) scale(0.192120,-0.192120)"
fill="#000000" stroke="none">
<path d="M1050 9749 c-103 -46 -160 -137 -160 -255 0 -118 52 -198 165 -250
l50 -24 577 0 578 0 4 -22 c3 -13 136 -804 296 -1758 161 -954 339 -2012 396
-2350 57 -338 105 -623 106 -634 2 -14 -12 -24 -67 -46 -264 -102 -483 -297
-602 -535 -124 -247 -150 -540 -71 -810 86 -296 314 -557 603 -691 80 -37 246
-84 295 -84 l28 0 -12 48 c-18 66 -53 143 -79 170 -11 12 -80 53 -151 90 -123
63 -137 73 -238 177 -66 68 -120 133 -140 170 l-33 60 -3 370 -3 370 38 63
c63 103 215 243 291 266 31 10 29 -12 -5 -50 -158 -173 -228 -276 -273 -404
-20 -56 -21 -76 -18 -258 2 -129 7 -204 15 -217 6 -11 23 -46 37 -77 29 -68
115 -203 123 -194 3 3 33 -20 67 -50 78 -72 162 -129 241 -165 60 -27 66 -28
146 -19 46 5 140 25 208 44 104 30 245 63 351 81 14 3 -4 -9 -39 -25 -162 -76
-336 -218 -447 -365 -70 -92 -148 -259 -180 -382 -35 -130 -43 -327 -20 -460
65 -375 323 -697 669 -839 166 -67 222 -78 422 -78 163 0 189 3 277 27 514
138 859 599 835 1117 -14 303 -128 554 -345 761 -92 89 -172 145 -291 205 -47
25 -75 42 -61 39 146 -27 217 -44 355 -81 88 -24 184 -47 213 -50 28 -4 52
-11 52 -15 0 -12 1807 -12 1814 0 3 4 32 11 65 15 32 4 121 25 197 46 76 22
186 49 244 60 58 12 116 23 130 26 14 3 -16 -15 -66 -40 -223 -110 -404 -288
-513 -503 -85 -167 -121 -319 -121 -510 0 -537 389 -996 923 -1089 131 -23
328 -15 460 20 200 52 379 158 526 312 325 339 400 827 194 1251 -106 219
-275 389 -507 511 -56 29 -90 50 -76 48 127 -24 258 -55 380 -91 80 -24 172
-49 205 -56 33 -7 65 -16 70 -19 6 -4 68 -11 139 -15 84 -5 134 -12 143 -20
21 -21 -8 -36 -89 -46 -104 -13 -128 -19 -165 -43 -33 -22 -72 -83 -97 -154
l-14 -39 196 -7 c218 -7 281 0 348 39 106 62 159 205 120 323 -22 64 -83 134
-144 164 l-47 23 -3150 5 -3150 5 -59 23 c-217 82 -356 262 -373 483 -20 255
146 495 402 580 33 11 549 15 2910 19 l2870 5 50 27 c59 31 95 67 124 125 32
64 584 3379 579 3480 -3 65 -7 77 -43 129 -28 40 -57 67 -95 88 l-55 31 -3261
3 -3261 2 -7 53 c-27 205 -288 1702 -302 1733 -24 51 -78 102 -133 128 -45 21
-55 21 -781 23 -722 3 -736 2 -780 -18z m1417 -265 c19 -3 41 -16 53 -31 19
-24 20 -39 19 -237 l-1 -211 -19 88 c-10 49 -28 101 -39 117 -11 15 -20 31
-20 36 0 6 -113 135 -162 186 -10 10 -18 27 -18 37 0 11 8 22 18 24 17 5 111
0 169 -9z m319 -1483 c33 -160 65 -222 170 -327 82 -83 117 -102 217 -119 50
-8 48 -27 -10 -78 -86 -76 -144 -141 -170 -192 -24 -47 -25 -55 -20 -160 7
-135 48 -343 82 -409 26 -52 81 -123 130 -169 86 -80 162 -92 575 -92 297 1
318 2 373 22 71 27 127 70 176 137 73 99 74 102 68 275 -6 186 -27 316 -65
390 -25 50 -150 188 -200 221 -26 17 -29 35 -6 44 20 8 582 8 612 0 22 -6 32
-34 12 -34 -17 0 -167 -155 -200 -206 -29 -46 -30 -52 -30 -159 0 -61 4 -136
9 -166 5 -30 15 -88 21 -129 21 -128 82 -230 187 -316 95 -77 173 -87 658 -82
424 5 445 8 527 65 45 30 104 96 125 138 9 16 21 33 27 37 8 5 11 97 11 301 0
266 -2 295 -17 311 -10 10 -18 22 -18 27 0 12 -167 179 -180 179 -20 0 -10 28
13 34 29 8 581 8 601 0 26 -10 19 -22 -41 -77 -31 -29 -66 -63 -77 -76 -12
-12 -31 -34 -43 -47 -13 -14 -26 -36 -29 -49 -3 -14 -10 -25 -15 -25 -11 0
-12 -547 -1 -552 4 -1 18 -25 31 -51 34 -67 136 -160 208 -188 57 -23 68 -24
451 -27 392 -3 508 4 592 36 69 27 172 141 215 237 12 28 28 84 35 125 6 41
16 99 21 129 5 30 9 104 9 165 0 104 -2 114 -29 161 -30 51 -84 111 -159 176
-45 40 -51 53 -26 63 20 8 582 8 612 0 23 -7 31 -34 9 -34 -21 0 -200 -192
-224 -240 -32 -64 -54 -201 -60 -377 l-6 -151 36 -65 c47 -83 139 -168 214
-198 56 -22 68 -23 378 -24 331 0 445 9 508 41 50 26 149 133 184 200 42 78
83 278 90 434 5 112 4 116 -23 165 -31 54 -181 215 -201 215 -22 0 -14 27 10
34 36 10 314 7 341 -4 25 -9 26 -12 26 -107 0 -82 -41 -344 -239 -1535 -132
-789 -249 -1472 -259 -1516 -26 -104 -58 -163 -95 -173 -40 -11 -187 -4 -222
11 l-30 12 40 31 c124 99 197 193 226 290 26 87 51 244 56 347 5 107 4 119
-17 160 -26 52 -115 152 -172 193 -22 16 -55 31 -74 34 -19 3 -34 10 -34 15 0
15 -647 5 -690 -11 -88 -33 -120 -53 -185 -114 -94 -87 -129 -156 -149 -299
-9 -59 -16 -166 -16 -238 0 -109 3 -137 19 -169 33 -63 96 -136 160 -182 33
-24 61 -47 61 -51 1 -26 -55 -33 -297 -36 -258 -4 -363 6 -363 32 0 7 18 26
39 41 65 45 147 137 181 205 41 81 69 231 76 410 5 135 5 135 -23 182 -57 95
-179 205 -238 215 -19 3 -35 10 -35 14 0 5 -142 9 -316 9 -332 0 -361 -3 -439
-47 -52 -29 -184 -160 -191 -189 -4 -13 -10 -24 -15 -24 -5 0 -9 -121 -9 -275
0 -151 3 -275 8 -275 4 0 15 -19 25 -43 20 -48 87 -123 164 -181 29 -22 50
-43 47 -47 -2 -4 -29 -13 -59 -19 -77 -16 -540 -9 -580 9 l-30 13 40 31 c71
56 154 141 160 164 3 12 13 29 23 39 15 16 17 45 17 308 0 329 10 286 -95 399
-30 32 -73 70 -96 83 -85 50 -116 54 -450 54 -170 0 -314 -4 -320 -8 -5 -5
-27 -14 -50 -20 -58 -17 -191 -142 -228 -216 -28 -56 -29 -59 -23 -179 15
-316 84 -483 251 -602 30 -22 56 -43 56 -47 0 -4 -10 -13 -22 -20 -34 -19
-581 -19 -623 0 l-30 14 35 26 c62 46 164 156 188 200 20 39 22 58 22 184 0
178 -23 334 -61 409 -37 75 -174 204 -232 220 -23 6 -51 16 -62 22 -27 16
-663 23 -678 8 -6 -6 -21 -11 -32 -11 -51 0 -200 -133 -249 -222 -22 -39 -26
-60 -26 -125 0 -67 35 -305 55 -377 26 -90 113 -208 200 -272 36 -26 65 -53
65 -60 0 -17 -87 -34 -173 -34 -86 0 -239 -17 -285 -32 -18 -5 -43 -11 -55
-13 -12 -2 -37 -8 -54 -13 -50 -16 -42 2 41 97 41 46 86 107 100 136 24 49 26
64 26 182 0 102 -7 168 -35 323 -68 387 -94 539 -125 745 -18 116 -49 302 -71
415 -55 293 -77 428 -125 750 -8 58 -31 191 -50 295 -107 580 -104 554 -103
835 1 140 4 244 6 230 2 -14 16 -81 29 -149z m1344 -739 c0 -7 16 -127 35
-266 19 -140 35 -259 35 -265 0 -8 -142 -11 -475 -11 -261 0 -475 1 -475 3 0
1 -21 121 -45 266 -25 145 -45 269 -45 275 0 8 140 11 485 11 383 0 485 -3
485 -13z m1760 -264 l0 -278 -565 0 c-373 0 -565 3 -565 10 0 6 -16 125 -35
264 -19 140 -35 260 -35 268 0 11 108 13 600 13 l600 0 0 -277z m1750 272 c0
-3 -13 -99 -29 -215 -17 -115 -33 -238 -37 -272 l-7 -63 -563 0 -564 0 0 278
0 277 600 0 c330 0 600 -2 600 -5z m1525 -25 c-8 -44 -85 -506 -85 -516 0 -5
-216 -9 -480 -9 l-480 0 5 23 c5 21 50 346 61 437 3 25 7 56 10 70 l4 25 486
0 486 0 -7 -30z m-4731 -2217 c5 -23 66 -478 69 -511 2 -17 -19 -18 -441 -20
l-442 -2 -5 30 c-3 17 -23 138 -45 269 -22 132 -40 244 -40 248 0 4 202 8 450
8 l450 0 4 -22z m1454 -254 l-3 -276 -410 1 -409 0 -33 238 c-18 131 -35 255
-38 276 l-7 37 451 0 451 0 -2 -276z m1448 259 c-3 -10 -19 -121 -36 -248 -17
-126 -32 -243 -35 -260 l-5 -30 -410 0 -410 0 0 278 0 277 451 0 c424 0 450
-1 445 -17z m1461 -5 c-3 -13 -25 -135 -47 -273 -23 -137 -43 -251 -45 -253
-1 -1 -201 -3 -444 -5 l-443 -2 5 30 c3 17 20 141 38 277 l34 248 454 0 453 0
-5 -22z m-5840 -960 c-3 -8 -6 -5 -6 6 -1 11 2 17 5 13 3 -3 4 -12 1 -19z
m883 -1598 c0 -5 -51 -60 -114 -123 -107 -107 -138 -145 -192 -234 -12 -19
-29 -42 -38 -51 -16 -16 -17 -12 -13 63 9 141 12 149 85 215 38 35 98 76 141
98 72 35 131 50 131 32z m757 -12 c-3 -8 -6 -5 -6 6 -1 11 2 17 5 13 3 -3 4
-12 1 -19z m131 -21 c35 -17 93 -58 130 -92 59 -55 69 -69 80 -116 14 -62 16
-169 4 -169 -5 0 -15 12 -23 27 -40 75 -193 255 -283 330 -14 13 -26 32 -26
43 0 17 4 19 28 14 15 -4 55 -20 90 -37z m3002 33 c0 -4 -53 -60 -117 -126
-103 -104 -199 -226 -219 -278 -3 -9 -11 -16 -17 -16 -7 0 -8 36 -4 108 l6
107 71 67 c46 43 99 81 149 106 71 36 131 51 131 32z m757 -12 c-3 -8 -6 -5
-6 6 -1 11 2 17 5 13 3 -3 4 -12 1 -19z m132 -22 c35 -17 95 -60 132 -94 59
-55 69 -69 69 -97 0 -19 5 -37 10 -40 6 -3 10 -37 10 -75 0 -86 -9 -85 -70 12
-25 40 -96 124 -157 187 -151 155 -149 183 6 107z m-4269 -177 c86 -19 191
-80 260 -149 108 -108 160 -235 160 -390 0 -152 -47 -271 -149 -380 -207 -221
-551 -234 -774 -30 -144 132 -210 324 -174 505 43 208 179 365 377 432 72 25
218 31 300 12z m3960 -23 c145 -59 265 -183 318 -325 30 -81 41 -231 22 -312
-44 -195 -199 -357 -395 -415 -71 -21 -218 -24 -285 -5 -146 42 -296 164 -358
291 -35 71 -62 180 -62 250 0 232 159 447 389 528 58 20 81 22 186 19 102 -3
130 -8 185 -31z m-790 -1066 c45 -60 45 -64 -5 -30 -96 66 -135 122 -135 193
l0 51 56 -90 c32 -49 69 -105 84 -124z m-3955 98 c37 -57 77 -113 88 -125 24
-26 16 -44 -8 -19 -9 9 -20 16 -24 16 -12 0 -81 69 -107 107 -16 24 -24 50
-24 79 0 24 2 44 4 44 2 0 34 -46 71 -102z m1360 1 c-32 -62 -125 -146 -125
-113 0 3 30 52 68 108 64 96 67 100 70 69 2 -17 -4 -46 -13 -64z m3891 16 c-7
-38 -75 -119 -118 -141 l-29 -15 35 54 c92 145 111 170 114 153 2 -10 1 -33
-2 -51z M3450 6411 c0 -6 -10 -11 -23 -11 -46 0 -193 -131 -244 -218 -25 -42
-25 -47 -20 -175 6 -160 37 -317 81 -407 33 -70 137 -185 192 -213 68 -35 232
-49 524 -45 260 4 278 5 335 28 73 28 169 120 209 197 24 49 26 62 26 185 0
165 -28 341 -65 415 -15 31 -57 81 -105 126 -66 64 -89 79 -147 98 -64 21 -88
23 -415 26 -243 3 -348 1 -348 -6z m830 -248 c0 -7 62 -459 69 -500 l8 -53
-461 0 -461 0 -44 261 c-24 144 -45 269 -48 278 -4 15 38 16 466 16 259 0 471
-1 471 -2z M4940 6411 c0 -6 -8 -11 -18 -11 -46 0 -203 -140 -250 -223 -30
-53 -30 -195 2 -383 28 -168 59 -236 151 -330 76 -77 99 -89 218 -109 81 -14
151 -16 410 -12 329 4 363 8 441 56 40 25 122 113 131 140 3 12 14 28 23 38
15 15 17 48 17 307 0 331 12 285 -103 407 -44 47 -81 75 -125 95 l-62 29 -417
3 c-288 2 -418 0 -418 -7z m948 -526 l2 -275 -489 0 -489 0 -12 98 c-6 53 -22
173 -36 265 -13 93 -24 174 -24 180 0 9 132 11 522 10 l523 -2 3 -276z M6552
6410 c-62 -15 -124 -54 -198 -126 -40 -39 -76 -83 -80 -98 -3 -14 -10 -26 -15
-26 -5 0 -9 -121 -9 -275 0 -151 3 -275 8 -275 4 0 15 -19 25 -43 18 -44 80
-116 138 -159 76 -57 108 -61 439 -66 298 -4 395 2 510 30 64 16 185 138 227
228 37 79 73 298 73 439 0 118 -18 157 -115 256 -69 70 -121 105 -157 105 -10
0 -18 5 -18 10 0 12 -778 12 -828 0z m938 -245 c-3 0 -70 -501 -70 -522 l0
-33 -490 0 -490 0 0 278 0 277 525 0 c289 0 525 0 525 0z M8190 6410 c-76 -18
-106 -28 -138 -44 -49 -25 -173 -153 -200 -206 -34 -66 -62 -248 -62 -411 0
-134 0 -136 31 -185 43 -69 126 -151 179 -179 72 -37 147 -45 404 -45 421 0
506 23 613 165 67 88 88 138 111 255 46 229 47 355 5 436 -32 60 -175 192
-219 200 -19 3 -37 10 -40 15 -7 11 -636 10 -684 -1z m789 -265 c0 -11 -19
-135 -43 -275 l-43 -255 -463 -3 -462 -2 5 22 c3 13 20 133 38 268 17 135 33
250 34 255 2 6 166 10 469 10 460 0 466 0 465 -20z M5385 2481 c-33 -4 -72
-15 -86 -24 -28 -18 -61 -73 -83 -135 l-14 -40 266 -7 c305 -9 1638 -2 1648 8
9 9 -21 87 -49 128 -12 18 -40 42 -62 53 -39 21 -50 21 -800 22 -418 1 -787
-1 -820 -5z"/>
</g>
</svg>
