<?xml version="1.0" standalone="no"?>
<!DOCTYPE svg PUBLIC "-//W3C//DTD SVG 20010904//EN"
 "http://www.w3.org/TR/2001/REC-SVG-20010904/DTD/svg10.dtd">
<svg version="1.0" xmlns="http://www.w3.org/2000/svg"
 width="2048.000000pt" height="2048.000000pt" viewBox="0 0 2048.000000 2048.000000"
 preserveAspectRatio="xMidYMid meet">
<metadata>
Created by potrace 1.13, written by Peter Selinger 2001-2015
</metadata>
<g transform="translate(0.000000,2048.000000) scale(0.192120,-0.192120)"
fill="#000000" stroke="none">
<path d="M2022 8642 l-1413 -1407 0 -1900 1 -1900 1413 -1413 1412 -1412 1895
0 1895 0 1413 1413 1412 1412 0 1902 0 1901 -1412 1406 -1413 1406 -1895 0
-1895 -1 -1413 -1407z m5145 1205 c29 -15 97 -69 150 -120 54 -51 159 -148
233 -217 218 -200 2290 -2273 2290 -2291 0 -9 9 -24 20 -34 20 -18 20 -31 20
-1860 0 -1829 0 -1842 -20 -1860 -11 -10 -20 -23 -20 -29 0 -16 -2195 -2204
-2379 -2371 -237 -216 -257 -232 -317 -254 l-55 -21 -1777 2 -1777 3 -60 29
c-53 26 -207 176 -1372 1340 l-1313 1311 0 1846 0 1846 25 23 c14 13 25 31 25
39 0 19 2502 2519 2582 2580 32 24 75 49 95 57 31 11 347 13 1818 11 l1780 -2
52 -28z M2412 8247 l-1242 -1242 0 -1675 0 -1675 1243 -1243 1242 -1242 1675
0 1675 0 1243 1243 1242 1242 0 1675 0 1675 -1243 1243 -1242 1242 -1675 0
-1675 0 -1243 -1243z m4535 953 c23 -14 546 -526 1162 -1139 l1121 -1113 0
-1622 0 -1621 -1122 -1122 c-778 -776 -1137 -1128 -1168 -1144 l-45 -24 -1570
0 c-1508 0 -1571 1 -1605 18 -19 11 -547 530 -1173 1155 l-1137 1137 0 1600 0
1600 1138 1138 c626 625 1140 1137 1142 1137 3 0 23 7 45 15 34 12 260 14
1605 12 l1565 -2 42 -25z"/>
</g>
</svg>
