<?xml version="1.0" standalone="no"?>
<!DOCTYPE svg PUBLIC "-//W3C//DTD SVG 20010904//EN"
 "http://www.w3.org/TR/2001/REC-SVG-20010904/DTD/svg10.dtd">
<svg version="1.0" xmlns="http://www.w3.org/2000/svg"
 width="2048.000000pt" height="2048.000000pt" viewBox="0 0 2048.000000 2048.000000"
 preserveAspectRatio="xMidYMid meet">
<metadata>
Created by potrace 1.13, written by Peter Selinger 2001-2015
</metadata>
<g transform="translate(0.000000,2048.000000) scale(0.192120,-0.192120)"
fill="#000000" stroke="none">
<path d="M4872 10320 c-526 -51 -1005 -252 -1426 -598 -50 -41 -557 -540
-1127 -1109 -1011 -1010 -1036 -1033 -1053 -1014 -29 32 -147 88 -208 100 -73
13 -153 0 -223 -37 -32 -17 -116 -92 -236 -212 -168 -167 -190 -193 -225 -264
-36 -74 -39 -86 -39 -165 0 -155 -33 -115 659 -808 533 -535 619 -617 676
-647 87 -45 162 -60 235 -47 100 19 148 53 346 251 168 167 190 193 225 264
36 74 39 86 39 165 0 103 -27 171 -97 247 l-43 47 60 54 c200 181 447 281 625
254 154 -24 124 0 678 -553 l502 -503 -1551 -1550 c-939 -939 -1574 -1582
-1611 -1630 -78 -102 -151 -252 -185 -380 -23 -88 -26 -119 -26 -260 0 -140 3
-172 25 -256 53 -198 144 -357 282 -495 134 -135 302 -230 492 -281 87 -23
118 -26 259 -26 141 0 172 3 260 26 128 34 278 107 380 185 48 37 690 672
1630 1612 l1550 1551 1604 -1607 c971 -972 1628 -1622 1664 -1646 271 -184
613 -204 877 -51 80 47 213 178 259 257 166 281 139 640 -69 913 -35 46 -704
723 -1637 1656 l-1579 1577 484 483 c359 358 489 482 505 481 12 -1 63 -9 112
-19 117 -23 419 -31 552 -16 881 104 1592 750 1768 1608 80 389 54 590 -92
724 -81 73 -158 87 -248 45 -40 -18 -134 -107 -454 -429 -396 -398 -405 -407
-465 -426 -89 -29 -168 -41 -268 -41 -249 0 -475 105 -689 319 -169 168 -266
337 -305 531 -24 120 -15 295 20 405 l26 80 400 400 c221 220 412 418 425 440
54 91 42 184 -36 269 -110 121 -235 152 -505 125 -957 -94 -1712 -840 -1825
-1803 -17 -143 -6 -452 20 -581 l21 -100 -483 -485 c-265 -266 -482 -485 -483
-487 0 -1 -225 222 -500 497 -381 382 -502 509 -512 537 -20 58 -50 246 -57
363 -12 187 23 427 87 590 69 176 148 289 315 451 302 292 525 424 803 475 54
10 190 19 375 24 160 5 315 14 345 20 123 27 175 81 152 157 -22 72 -63 108
-175 152 -209 81 -451 143 -688 176 -137 19 -488 27 -617 15z m3468 -266 c50
-10 59 -44 27 -94 -15 -22 -168 -182 -340 -357 -324 -330 -363 -375 -417 -482
-53 -103 -60 -146 -60 -356 0 -207 5 -239 51 -362 141 -380 498 -719 872 -827
178 -52 351 -57 511 -16 125 32 224 91 344 204 34 32 62 55 62 51 0 -5 116
106 258 247 267 264 327 312 384 306 l33 -3 3 -205 c4 -268 -17 -375 -116
-600 -95 -218 -210 -379 -412 -580 -193 -192 -240 -228 -405 -310 -353 -174
-672 -228 -1098 -185 -277 28 -295 16 -817 -511 -230 -233 -344 -355 -362
-389 -15 -28 -32 -81 -39 -119 l-11 -68 -704 703 -704 704 42 8 c82 16 139 38
196 74 83 53 692 666 763 768 98 140 93 109 100 605 5 395 8 441 26 505 139
485 451 879 885 1118 75 42 78 43 78 23 0 -11 20 -6 79 19 127 54 335 109 486
128 52 7 251 7 285 1z m-3101 -10 c58 -12 39 -36 -71 -93 -200 -104 -320 -185
-495 -335 -306 -263 -488 -526 -576 -829 l-32 -112 1 -330 c0 -181 4 -385 9
-453 l8 -124 -359 -359 c-242 -242 -373 -366 -402 -380 -42 -21 -44 -21 -120
-4 -227 51 -369 35 -578 -65 -216 -104 -434 -339 -434 -469 0 -21 11 -69 25
-105 21 -55 25 -84 25 -166 0 -89 -3 -105 -24 -138 -30 -48 -189 -205 -246
-243 -96 -64 -176 -59 -283 18 -75 55 -1046 1023 -1076 1073 -15 25 -21 52
-21 97 l0 62 68 75 c77 86 182 182 235 215 62 38 127 38 261 0 108 -30 121
-32 164 -20 108 28 125 44 1157 1072 550 547 1038 1026 1085 1063 211 168 488
328 713 410 176 65 404 116 607 135 107 10 317 13 359 5z m-954 -2339 c9 -35
31 -86 47 -112 30 -48 655 -678 841 -848 73 -67 114 -96 160 -115 35 -14 78
-35 97 -47 56 -35 1207 -1195 1214 -1223 14 -51 83 -174 145 -258 46 -62 499
-523 1581 -1607 835 -836 1534 -1544 1553 -1572 65 -96 69 -117 65 -334 -3
-180 -5 -197 -27 -242 -34 -69 -111 -149 -178 -184 -108 -57 -156 -68 -293
-68 -113 1 -133 4 -211 31 -48 17 -120 52 -160 79 -58 38 -398 372 -1609 1580
-844 843 -1561 1551 -1593 1574 -32 24 -93 58 -135 78 -42 19 -93 42 -112 51
-42 20 -1200 1170 -1200 1192 0 29 -108 220 -165 292 -68 85 -572 597 -693
704 -87 76 -154 114 -238 135 -27 6 -51 14 -54 16 -5 4 931 943 941 943 3 0
14 -29 24 -65z m770 -2776 l630 -632 -35 -8 c-19 -4 -61 -12 -92 -19 -36 -7
-81 -27 -120 -52 -44 -29 -501 -478 -1488 -1463 -784 -782 -1453 -1443 -1488
-1469 -77 -58 -205 -120 -309 -148 -109 -29 -335 -31 -443 -4 -266 68 -444
208 -554 436 l-41 85 -3 253 c-3 218 -1 260 14 305 21 65 63 135 125 212 26
33 444 456 928 940 485 484 881 886 881 894 0 8 260 276 579 595 630 633 618
619 642 759 l11 67 67 -59 c36 -33 350 -344 696 -692z M1806 2525 c-106 -27
-193 -81 -293 -182 -77 -78 -100 -109 -140 -190 l-48 -96 -3 -142 -4 -142 37
-88 c65 -157 178 -297 300 -370 166 -99 375 -102 541 -6 118 68 238 215 300
366 26 64 29 83 32 212 3 138 3 143 -28 220 -75 189 -230 345 -400 403 -83 29
-213 35 -294 15z m246 -235 c87 -27 167 -86 217 -161 51 -76 71 -142 71 -231
0 -162 -90 -303 -240 -375 -80 -39 -216 -45 -303 -13 -116 42 -191 111 -244
226 -25 52 -28 71 -28 159 1 81 5 111 24 158 26 67 110 163 176 201 95 56 219
70 327 36z"/>
</g>
</svg>
