<?xml version="1.0" standalone="no"?>
<!DOCTYPE svg PUBLIC "-//W3C//DTD SVG 20010904//EN"
 "http://www.w3.org/TR/2001/REC-SVG-20010904/DTD/svg10.dtd">
<svg version="1.0" xmlns="http://www.w3.org/2000/svg"
 width="2048.000000pt" height="2048.000000pt" viewBox="0 0 2048.000000 2048.000000"
 preserveAspectRatio="xMidYMid meet">
<metadata>
Created by potrace 1.13, written by Peter Selinger 2001-2015
</metadata>
<g transform="translate(0.000000,2048.000000) scale(0.192120,-0.192120)"
fill="#000000" stroke="none">
<path d="M1285 10314 c-443 -68 -771 -318 -890 -676 -63 -193 -59 -42 -62
-2088 l-3 -1865 71 175 c39 96 76 202 81 235 7 40 13 606 18 1660 6 1597 6
1600 28 1693 68 289 236 489 507 600 94 38 212 69 315 82 56 7 796 10 2202 10
2111 0 2118 0 2118 -20 0 -20 7 -20 1809 -20 994 0 1836 -3 1870 -6 52 -6 61
-5 61 10 0 20 8 20 97 -3 190 -49 348 -162 460 -326 71 -105 99 -170 146 -342
21 -78 21 -80 24 -1685 2 -1044 7 -1608 13 -1608 6 0 10 -27 10 -60 0 -115 20
-170 139 -394 l31 -59 -3 1864 -3 1864 -22 97 c-118 512 -427 808 -907 867
-64 8 -1221 11 -4055 10 -3331 -1 -3979 -3 -4055 -15z M7544 9575 c-154 -33
-260 -95 -406 -235 -60 -58 -116 -109 -125 -113 -8 -5 -55 -8 -104 -8 -167 2
-288 -39 -408 -139 -91 -76 -141 -149 -228 -334 -10 -22 -26 -48 -35 -58 -10
-10 -18 -22 -18 -27 0 -5 -28 -19 -62 -30 -148 -50 -295 -186 -375 -347 l-48
-97 0 -171 c0 -168 1 -172 29 -236 69 -151 171 -261 305 -329 161 -80 95 -76
1351 -76 837 0 1133 3 1186 12 346 61 601 283 725 633 20 56 24 89 27 244 4
209 -6 268 -74 414 -150 324 -471 542 -797 542 -116 0 -140 11 -247 114 -109
106 -161 143 -263 191 -129 61 -296 80 -433 50z m290 -195 c179 -46 328 -171
401 -338 15 -36 22 -42 39 -38 128 35 296 32 418 -7 123 -39 203 -90 304 -191
73 -74 99 -108 133 -176 63 -130 85 -229 79 -370 -9 -200 -76 -351 -223 -496
-66 -66 -99 -90 -176 -128 -178 -87 -69 -80 -1354 -84 -1002 -2 -1149 -1
-1210 13 -287 63 -441 386 -310 651 87 177 288 285 469 253 32 -6 60 -9 62 -7
2 2 -4 26 -12 53 -11 35 -14 74 -11 127 10 150 96 277 236 346 72 35 80 37
176 37 95 0 104 -2 170 -35 39 -19 73 -36 76 -38 4 -2 15 23 25 54 59 187 257
353 464 387 66 11 173 5 244 -13z M1176 6119 c-265 -34 -520 -171 -749 -401
l-97 -99 0 -2147 c0 -2357 -3 -2247 60 -2434 74 -220 193 -376 386 -507 152
-102 387 -181 589 -197 l80 -6 37 63 c21 35 683 1097 1471 2359 l1435 2295 68
6 c44 3 8 6 -96 6 -263 0 -301 20 -590 313 -170 172 -204 202 -264 231 -61 29
-81 34 -168 37 -136 6 -238 -11 -415 -69 -197 -65 -299 -79 -385 -55 -83 23
-147 63 -373 231 -231 172 -257 190 -366 249 -213 115 -403 153 -623 125z
m341 -280 c147 -37 292 -119 545 -308 154 -114 244 -173 346 -226 77 -40 88
-58 45 -71 -16 -4 -439 -9 -940 -11 l-913 -4 0 175 0 174 48 42 c147 131 357
226 551 250 89 11 229 2 318 -21z m1927 -493 c31 -15 65 -39 76 -53 54 -69 14
-77 -346 -70 -279 5 -344 11 -351 34 -6 18 185 85 310 109 40 7 113 12 164 10
75 -3 102 -8 147 -30z m458 -292 l105 -7 23 -42 23 -43 -21 -36 c-12 -21 -22
-43 -22 -49 0 -7 -13 -32 -30 -57 -16 -24 -32 -56 -35 -71 -3 -14 -15 -36 -25
-47 -11 -12 -20 -28 -20 -36 0 -8 -5 -18 -11 -21 -6 -4 -13 -15 -17 -24 -12
-29 -2424 -3883 -2464 -3937 -21 -28 -49 -56 -63 -62 -36 -17 -94 -15 -171 4
-59 15 -67 15 -81 2 -13 -14 -23 -11 -89 26 -161 89 -297 228 -365 371 -22 46
-48 125 -61 185 l-23 105 -3 1778 c-1 1157 -6 1777 -12 1777 -6 0 -10 9 -10
19 0 11 -3 21 -7 23 -5 2 -17 21 -28 43 -10 22 -27 52 -37 67 l-18 27 37 4
c65 7 3315 7 3425 1z M9195 5794 c-215 -23 -392 -67 -690 -173 -329 -118 -400
-130 -625 -112 -74 6 -231 16 -347 23 -253 14 -321 7 -427 -46 -69 -34 -110
-66 -293 -230 -110 -98 -178 -143 -268 -174 -64 -23 -85 -25 -240 -25 -105 0
-144 -3 -101 -6 l68 -6 1435 -2295 c788 -1262 1450 -2323 1470 -2357 l37 -63
66 0 c36 0 97 5 135 10 485 69 807 400 896 918 18 110 19 180 19 2233 l0 2120
-44 19 c-134 57 -381 119 -581 145 -118 15 -432 27 -510 19z m520 -278 c109
-16 229 -40 288 -58 l37 -11 0 -114 0 -114 -862 4 c-538 2 -874 7 -892 13 -70
24 -53 31 359 169 212 71 355 107 501 125 97 12 450 4 569 -14z m-2226 -262
c2 -2 -34 -3 -80 -3 -53 1 -73 4 -54 8 30 7 126 3 134 -5z m2683 -202 l47 -7
-34 -55 c-19 -30 -37 -70 -41 -87 -3 -18 -10 -33 -15 -33 -5 0 -9 -724 -9
-1721 0 -1679 -1 -1725 -20 -1840 -49 -289 -165 -491 -352 -614 -152 -99 -148
-98 -169 -79 -16 15 -23 15 -88 0 -132 -30 -183 -19 -240 53 -17 21 -494 781
-1060 1688 -1344 2151 -1267 2027 -1276 2068 -10 46 -50 117 -152 272 -51 78
-93 145 -93 149 0 4 -12 30 -26 59 l-27 52 32 46 31 46 73 4 c137 6 3372 5
3419 -1z M4698 5053 l-97 -4 -84 -162 c-47 -89 -202 -389 -345 -667 -142 -278
-618 -1202 -1057 -2055 -438 -852 -830 -1612 -871 -1688 -41 -77 -74 -141 -74
-143 0 -2 1422 -4 3160 -4 1738 0 3160 2 3160 4 0 3 -31 62 -69 133 -38 70
-475 918 -972 1883 -496 965 -1011 1967 -1145 2225 l-242 470 -108 6 c-110 7
-1078 8 -1256 2z m222 -23 c50 -18 85 -19 400 -20 291 0 354 3 400 16 65 19
125 21 145 4 8 -7 15 -28 15 -47 0 -28 -9 -44 -39 -74 l-39 -39 -472 0 -472 0
-39 39 c-30 30 -39 46 -39 74 0 36 11 52 45 60 33 8 38 7 95 -13z m-129 -132
c7 -18 28 -58 46 -88 18 -30 33 -62 33 -71 0 -15 -34 -52 -55 -60 -25 -10
-166 -92 -171 -100 -3 -5 273 -9 688 -9 772 1 725 -5 583 67 -85 43 -135 79
-135 98 0 8 17 41 38 74 22 32 45 73 52 90 7 17 16 31 20 31 7 0 82 -173 130
-302 18 -50 25 -58 47 -58 15 0 38 -13 59 -34 32 -32 34 -38 34 -101 0 -36 -5
-75 -10 -85 -8 -15 3 -50 49 -162 33 -79 68 -165 78 -192 15 -41 24 -51 50
-58 84 -22 138 -163 102 -266 -10 -28 -5 -45 44 -159 85 -201 150 -373 143
-380 -3 -3 -45 12 -93 35 -170 78 -79 73 -1224 70 l-1024 -3 -113 -54 c-61
-30 -115 -51 -118 -48 -7 7 58 178 143 380 49 114 54 131 44 159 -37 105 17
243 105 267 23 6 33 18 47 57 10 27 45 113 78 192 46 112 57 147 49 162 -5 10
-10 49 -10 85 0 63 2 69 34 101 21 21 44 34 59 34 22 0 29 8 47 58 48 129 123
302 130 302 4 0 14 -15 21 -32z m2051 -1821 c137 -67 192 -232 124 -371 -32
-65 -105 -127 -171 -145 -57 -15 -2874 -15 -2930 0 -22 6 -61 27 -88 46 -119
87 -148 253 -66 377 37 55 76 85 144 108 47 16 143 17 1490 15 l1440 -2 57
-28z m-2914 -627 l45 -30 1342 0 c1534 0 1385 -9 1484 94 l52 55 25 -57 c50
-112 195 -483 192 -491 -2 -4 -52 15 -113 43 l-110 51 -1510 3 -1510 2 -118
-54 c-117 -54 -119 -55 -113 -30 8 29 151 389 191 478 l26 58 36 -46 c19 -25
56 -59 81 -76z m3468 -482 c94 -50 144 -126 152 -230 6 -87 -15 -145 -76 -210
-85 -91 129 -83 -2142 -83 -1906 0 -2007 1 -2052 18 -58 22 -128 96 -153 160
-21 57 -17 164 9 214 38 75 112 134 191 154 17 4 928 6 2025 6 l1995 -2 51
-27z m-3998 -587 c93 -77 -83 -71 1921 -71 2002 0 1838 -6 1940 71 29 22 55
39 57 36 15 -15 206 -496 202 -508 -2 -4 -41 10 -87 32 -161 75 28 69 -2126
67 l-1940 -3 -110 -52 c-60 -28 -111 -48 -113 -44 -5 14 194 511 205 511 2 0
25 -18 51 -39z m-342 -7 c30 -23 34 -32 34 -73 -1 -74 -50 -160 -105 -181 -29
-11 -85 -13 -109 -4 -28 11 -18 68 26 153 45 87 80 131 104 131 8 0 31 -12 50
-26z m4630 1 c32 -32 104 -181 104 -215 0 -14 -5 -31 -12 -38 -19 -19 -99 -14
-134 7 -40 25 -84 111 -84 167 0 36 5 46 38 73 45 37 56 38 88 6z m255 -511
c104 -48 164 -143 163 -259 0 -58 -5 -79 -29 -124 -16 -29 -44 -65 -62 -78
l-33 -25 -58 47 c-31 26 -73 55 -92 64 -32 15 -253 16 -2490 16 -1350 0 -2472
-4 -2492 -8 -23 -5 -62 -29 -102 -63 l-65 -56 -34 26 c-19 14 -47 50 -62 78
-38 68 -41 168 -9 239 36 77 110 139 191 158 22 5 1120 8 2583 8 l2545 -2 46
-21z M4562 4275 c22 -41 71 -96 99 -110 41 -22 1286 -22 1327 -1 30 16 94 81
110 111 10 20 7 20 -768 20 -775 0 -778 0 -768 -20z M4651 4079 c-48 -9 -247
-112 -244 -125 4 -12 1834 -17 1846 -5 5 5 -28 28 -78 55 -165 87 -99 81 -830
83 -357 0 -670 -3 -694 -8z M4270 3565 c16 -41 61 -103 89 -122 24 -17 80 -18
954 -21 913 -2 928 -2 967 18 43 22 85 69 106 118 l13 31 -37 -19 c-36 -20
-61 -20 -1032 -20 -974 0 -996 0 -1032 20 l-37 20 9 -25z M1770 446 c-25 -7
-92 -36 -150 -64 l-105 -50 318 -1 c174 -1 317 0 317 2 0 6 -126 95 -157 111
-39 19 -156 20 -223 2z M8650 439 c-29 -18 -92 -65 -134 -101 -6 -4 134 -8
310 -7 l319 1 -90 44 c-128 63 -203 84 -294 84 -60 0 -83 -5 -111 -21z"/>
</g>
</svg>
