<?xml version="1.0" standalone="no"?>
<!DOCTYPE svg PUBLIC "-//W3C//DTD SVG 20010904//EN"
 "http://www.w3.org/TR/2001/REC-SVG-20010904/DTD/svg10.dtd">
<svg version="1.0" xmlns="http://www.w3.org/2000/svg"
 width="2048.000000pt" height="2048.000000pt" viewBox="0 0 2048.000000 2048.000000"
 preserveAspectRatio="xMidYMid meet">
<metadata>
Created by potrace 1.13, written by Peter Selinger 2001-2015
</metadata>
<g transform="translate(0.000000,2048.000000) scale(0.192120,-0.192120)"
fill="#000000" stroke="none">
<path d="M1285 10314 c-443 -68 -771 -318 -890 -676 -64 -197 -59 184 -63
-4253 -2 -3002 0 -4054 9 -4125 30 -254 147 -489 312 -633 130 -114 278 -194
445 -243 190 -55 173 -54 1418 -54 l1151 0 31 127 c17 71 49 196 71 278 l39
150 131 3 c89 2 131 -1 131 -8 0 -6 -29 -131 -65 -277 -36 -146 -65 -267 -65
-269 0 -2 626 -4 1390 -4 765 0 1390 2 1390 4 0 2 -29 123 -65 269 -36 146
-65 271 -65 276 0 7 46 11 130 11 l129 0 10 -37 c5 -21 34 -132 65 -248 30
-116 57 -225 61 -243 l7 -32 1176 0 c726 0 1204 4 1247 10 485 69 807 400 896
918 19 112 19 198 19 4060 0 3463 -2 3959 -15 4047 -67 441 -297 756 -650 891
-39 14 -110 36 -160 47 l-90 22 -4020 1 c-3396 2 -4034 0 -4110 -12z m4935
-194 c0 -20 7 -20 809 -20 445 0 816 -3 825 -6 9 -3 16 -10 16 -14 0 -15 -290
-295 -313 -302 -12 -3 -67 -6 -122 -7 -183 -2 -291 -47 -420 -176 -78 -78
-138 -173 -185 -295 -8 -19 -21 -42 -30 -50 -9 -8 -19 -22 -22 -31 -3 -8 -26
-21 -49 -28 -88 -26 -163 -75 -254 -166 -71 -71 -98 -106 -127 -165 -58 -123
-58 -122 -58 -290 l0 -159 36 -83 c86 -194 227 -316 435 -375 60 -17 133 -18
1224 -18 l1160 0 90 23 c277 72 499 260 612 518 55 124 63 173 63 381 0 163
-3 198 -20 251 -34 103 -87 211 -139 281 -57 77 -175 193 -244 240 -127 87
-286 138 -457 147 -58 3 -118 10 -135 15 -43 13 -300 272 -291 294 6 15 38 16
394 12 319 -4 400 -7 462 -22 282 -64 479 -223 576 -464 14 -33 37 -104 51
-158 l27 -98 3 -897 c2 -571 7 -898 13 -898 7 0 10 -398 10 -1105 0 -730 3
-1105 10 -1105 6 0 10 -20 10 -44 0 -24 3 -46 8 -48 4 -1 18 -25 32 -53 13
-27 37 -70 52 -95 26 -41 27 -45 11 -52 -10 -3 -441 -7 -958 -7 l-940 -1 3
1189 c2 853 0 1201 -8 1230 -8 30 -20 48 -43 61 -32 20 -75 20 -3004 20
l-2972 0 -36 -31 c-19 -17 -40 -47 -46 -67 -7 -26 -10 -388 -7 -1220 l3 -1182
-952 2 c-523 2 -954 6 -958 10 -4 4 7 28 24 53 17 25 38 60 47 78 9 18 21 35
27 39 6 3 12 31 15 62 2 31 8 56 13 56 5 0 10 901 12 2003 l3 2002 22 93 c68
289 236 489 507 600 89 36 210 69 300 81 39 5 1130 9 2478 10 2401 1 2407 1
2407 -19z m2210 -196 c145 -46 277 -160 345 -298 l37 -74 51 13 c240 61 511
-18 690 -199 144 -147 210 -308 211 -516 0 -140 -16 -208 -81 -340 -39 -79
-60 -109 -132 -180 -97 -96 -179 -148 -296 -188 l-80 -27 -1170 -3 c-1141 -2
-1172 -2 -1235 17 -171 52 -292 191 -322 369 -48 284 187 548 470 529 43 -2
85 -8 94 -12 15 -6 15 -3 2 42 -19 61 -19 174 -1 235 79 256 392 376 610 232
34 -23 38 -23 43 -7 42 132 114 239 212 313 164 123 357 156 552 94z m-5578
-2534 c-13 -31 -18 -35 -20 -19 -3 16 22 59 34 59 1 0 -5 -18 -14 -40z m4976
-18 c-2 -17 -7 -13 -21 21 l-18 42 22 -21 c11 -12 19 -31 17 -42z m-4084 -134
c3 -34 10 -65 16 -68 5 -3 10 -109 12 -244 2 -180 6 -240 16 -244 6 -2 12 -16
12 -32 0 -33 -8 -40 -82 -69 -58 -23 -148 -100 -148 -127 0 -8 -4 -14 -10 -14
-6 0 -10 -53 -10 -140 0 -118 -2 -140 -15 -140 -8 0 -15 -6 -15 -14 0 -21 -47
-26 -257 -26 l-195 0 -29 31 -29 32 4 461 c3 253 8 502 11 553 l6 92 47 4 c26
2 185 4 353 5 l306 2 7 -62z m2220 0 c3 -35 11 -64 16 -66 6 -2 10 -90 10
-232 0 -166 3 -229 12 -232 6 -2 12 -25 12 -53 l1 -48 -45 -16 c-25 -9 -58
-23 -75 -33 -34 -18 -105 -91 -105 -108 0 -5 -4 -10 -10 -10 -6 0 -10 -53 -10
-140 0 -87 -4 -140 -10 -140 -5 0 -10 -6 -10 -14 0 -22 -57 -26 -431 -26 -369
0 -419 3 -419 26 0 8 -4 14 -10 14 -6 0 -10 53 -10 140 0 87 -4 140 -10 140
-5 0 -10 7 -10 15 0 20 -57 83 -94 103 -17 9 -51 24 -76 33 -45 16 -45 16 -42
60 1 24 7 159 12 299 5 140 12 276 16 303 l6 47 638 0 637 0 7 -62z m1594 56
l52 -7 0 -76 c1 -51 5 -82 15 -95 23 -30 22 -934 0 -942 -8 -4 -15 -12 -15
-18 0 -28 -52 -36 -243 -36 -203 0 -237 4 -237 26 0 8 -6 14 -14 14 -12 0 -15
28 -18 148 l-3 148 -45 47 c-45 48 -71 65 -145 90 -39 14 -40 15 -39 63 0 27
6 50 12 52 9 3 12 72 12 258 0 163 4 254 10 254 6 0 10 18 10 40 l0 40 298 0
c163 0 321 -3 350 -6z m-4728 -574 l0 -560 -140 0 -140 0 0 560 0 560 140 0
140 0 0 -560z m1670 278 l0 -278 -280 0 -280 0 0 278 0 278 280 0 280 0 0
-278z m2220 0 l0 -278 -280 0 -280 0 0 278 0 278 280 0 280 0 0 -278z m1390
-278 l0 -560 -140 0 -140 0 0 560 0 560 140 0 140 0 0 -560z m-3330 -420 l0
-140 -560 0 -560 0 0 140 0 140 560 0 560 0 0 -140z m2220 0 l0 -140 -560 0
-560 0 0 140 0 140 560 0 560 0 0 -140z m-4137 -290 c-9 -10 -33 34 -33 59 0
23 3 21 19 -14 10 -22 16 -42 14 -45z m4957 21 c-19 -37 -29 -22 -12 19 12 29
18 34 20 20 2 -10 -2 -28 -8 -39z m290 -563 l0 -418 -857 0 c-670 -1 -854 -3
-838 -13 11 -6 48 -11 82 -10 l62 1 109 -157 c125 -179 2851 -4164 2938 -4295
31 -47 55 -89 52 -92 -3 -2 -52 3 -109 12 -175 27 -195 22 -315 -81 l-41 -36
-70 108 c-111 170 -2840 4540 -2845 4555 -4 10 -157 13 -784 16 -428 1 -853
-1 -943 -5 l-163 -8 -1408 -2252 c-774 -1239 -1431 -2288 -1460 -2333 l-52
-80 -50 43 c-113 97 -103 92 -197 91 -47 0 -114 -5 -148 -11 -35 -5 -63 -6
-63 -1 0 4 48 79 107 166 246 363 2899 4240 2939 4296 l45 61 62 0 c34 1 71 6
82 13 15 9 -175 11 -837 12 l-858 0 0 418 0 417 2780 0 2780 0 0 -417z m-3060
-422 c0 -9 -52 -231 -54 -234 -2 -1 -37 -2 -78 0 l-75 3 33 115 c18 63 33 116
33 118 1 4 141 2 141 -2z m718 -105 c18 -61 32 -115 32 -120 0 -7 -27 -11 -69
-11 l-69 0 -22 98 c-12 53 -24 107 -27 120 -5 21 -2 22 59 22 l65 0 31 -109z
m-1116 -24 c12 -18 26 -33 30 -35 4 -2 8 -9 8 -17 0 -7 9 -33 21 -59 24 -56
20 -73 -33 -144 -21 -29 -48 -74 -59 -100 -21 -47 -21 -51 -3 -185 6 -46 4
-51 -39 -106 -71 -90 -91 -136 -95 -218 -4 -66 -1 -79 27 -132 17 -33 31 -69
31 -79 0 -11 -28 -48 -63 -83 -85 -86 -114 -127 -132 -185 -24 -78 -19 -138
15 -206 17 -32 30 -68 30 -79 0 -12 -33 -55 -79 -103 -88 -91 -114 -136 -136
-228 -24 -103 -20 -169 15 -235 17 -31 30 -65 30 -76 0 -11 -34 -55 -79 -102
-44 -46 -89 -101 -99 -122 -33 -63 -72 -212 -79 -295 -5 -72 -4 -81 26 -142
17 -35 31 -75 31 -87 0 -14 -30 -53 -83 -108 -70 -72 -88 -99 -110 -156 -40
-107 -78 -262 -84 -346 -5 -71 -4 -80 26 -138 17 -34 31 -72 31 -85 0 -15 -25
-49 -71 -97 -90 -94 -114 -133 -146 -227 -32 -96 -60 -147 -92 -170 -23 -15
-71 -18 -481 -23 -506 -6 -504 -6 -673 -83 -130 -59 -127 -66 -42 105 113 225
2147 4175 2217 4306 l61 112 28 -20 c16 -11 38 -34 51 -52z m1505 -57 c28 -52
206 -396 396 -765 189 -368 657 -1277 1039 -2020 766 -1487 851 -1655 841
-1655 -3 0 -58 24 -122 54 -64 29 -140 59 -169 65 -34 7 -194 11 -455 11 -370
0 -407 2 -457 19 -71 25 -100 54 -129 132 -47 127 -70 163 -156 251 -98 100
-102 114 -55 193 26 44 30 59 30 130 0 117 -61 343 -113 420 -11 17 -54 63
-94 102 -85 85 -90 104 -43 186 46 82 41 187 -18 361 -25 73 -35 88 -118 175
-50 53 -94 105 -98 116 -6 20 -1 32 44 110 20 35 22 50 18 125 -8 132 -32 184
-144 301 -52 54 -94 105 -94 114 0 8 16 47 36 85 34 64 36 74 32 133 -7 86
-36 137 -134 238 -46 47 -84 93 -84 103 0 10 16 45 35 77 62 106 44 206 -57
332 -64 79 -61 64 -43 204 9 65 -12 124 -72 201 -24 31 -46 67 -49 79 -10 38
53 158 109 209 58 52 47 59 124 -86z m-3878 -280 c1 -247 2 -267 21 -298 51
-84 185 -79 232 9 16 31 18 63 18 351 0 206 4 319 10 323 6 4 23 -7 39 -24 16
-17 36 -31 45 -31 9 0 16 -4 16 -9 0 -5 20 -12 45 -15 25 -4 45 -11 45 -17 0
-5 189 -9 484 -9 571 0 546 5 491 -105 -26 -53 -28 -56 -91 -149 -141 -211
-227 -331 -287 -406 -37 -47 -105 -139 -150 -204 -45 -65 -97 -138 -114 -162
-18 -24 -452 -657 -964 -1406 -1150 -1682 -1094 -1601 -1141 -1643 -43 -40
-59 -42 -109 -17 -118 60 -234 217 -273 369 -14 54 -16 257 -16 1872 l0 1811
45 0 c38 0 45 3 45 20 0 20 7 20 735 20 647 0 735 2 735 15 0 8 9 15 20 15 11
0 20 5 20 10 0 6 5 10 10 10 6 0 25 16 43 35 l32 35 6 -67 c4 -38 7 -187 8
-333z m6170 348 c12 -10 26 -18 31 -18 6 0 10 -4 10 -9 0 -5 20 -12 45 -15 25
-4 45 -11 45 -17 0 -5 286 -9 740 -9 733 0 740 0 740 -20 0 -13 7 -20 20 -20
20 0 20 0 17 -1732 l-3 -1733 -31 -125 c-37 -146 -73 -231 -142 -333 -53 -79
-95 -120 -149 -145 -30 -15 -35 -15 -65 1 -18 10 -51 41 -73 70 -23 29 -492
711 -1043 1517 -552 806 -1141 1666 -1310 1911 -319 464 -351 515 -351 554 0
55 2 55 542 55 436 0 498 2 498 15 0 8 9 15 20 15 11 0 20 5 20 10 0 6 5 10
11 10 6 0 24 14 40 31 16 17 33 28 39 24 6 -4 10 -122 10 -340 l0 -335 29 -32
c26 -29 35 -33 98 -36 67 -4 72 -3 106 28 l37 32 0 257 c0 142 3 299 7 350 6
87 7 91 23 74 10 -10 27 -26 39 -35z m-3014 -89 c24 -11 70 -45 101 -75 62
-60 64 -69 31 -180 -13 -47 -13 -57 2 -101 9 -27 38 -75 64 -107 26 -32 50
-68 53 -80 3 -13 -6 -51 -22 -91 -26 -65 -27 -71 -15 -129 16 -78 45 -123 137
-212 86 -83 89 -97 41 -169 -52 -77 -62 -117 -47 -184 16 -72 41 -110 134
-202 43 -43 76 -85 76 -96 0 -10 -14 -40 -30 -66 -65 -103 -72 -148 -41 -260
23 -83 69 -152 156 -235 36 -33 65 -70 65 -80 0 -10 -14 -39 -30 -65 -66 -105
-72 -146 -40 -291 30 -134 58 -186 155 -286 56 -57 85 -94 85 -109 0 -12 -18
-53 -40 -90 -36 -60 -40 -74 -40 -134 0 -67 27 -211 56 -297 26 -76 64 -132
145 -214 44 -43 79 -86 79 -95 0 -9 -14 -38 -30 -64 -50 -79 -60 -113 -60
-203 0 -45 -4 -86 -10 -89 -5 -3 -10 -17 -10 -31 l0 -24 -1079 0 -1078 0 -7
31 c-3 17 -6 72 -6 121 0 94 -9 127 -54 192 -14 21 -26 49 -26 61 0 15 28 51
79 102 94 96 120 147 161 315 39 161 40 246 3 314 -51 95 -54 103 -46 118 4 7
42 49 83 93 42 44 86 103 101 134 37 76 64 201 64 290 0 70 -3 80 -37 136 -21
34 -38 70 -38 81 0 12 33 54 79 100 87 89 122 151 141 249 18 88 9 142 -34
214 -20 33 -36 69 -36 80 0 12 35 57 80 104 142 149 163 251 79 384 -43 67
-39 82 39 159 85 84 106 113 126 181 21 72 20 109 -5 181 -24 69 -21 83 30
148 75 95 96 167 67 236 -30 73 -23 101 43 166 33 32 72 65 88 73 44 24 164
21 218 -4z m-485 -226 c0 -5 -10 -52 -22 -105 l-23 -98 -82 0 c-46 0 -83 3
-83 6 0 3 12 50 27 105 l26 99 79 0 c43 0 78 -3 78 -7z m929 -80 c13 -49 26
-96 28 -105 5 -16 -3 -18 -73 -18 l-79 0 -23 98 c-12 53 -22 100 -22 105 0 4
33 7 73 7 l73 0 23 -87z m-1019 -315 c-1 -2 -16 -64 -34 -138 l-33 -135 -91
-3 -91 -3 14 48 c7 26 23 84 35 128 12 44 23 86 25 93 3 8 30 12 90 12 47 0
85 -1 85 -2z m1139 -138 l37 -135 -80 -3 c-43 -2 -82 1 -86 5 -4 4 -20 62 -35
128 -15 66 -30 126 -33 133 -3 10 14 12 78 10 l83 -3 36 -135z m-1273 -427
c-3 -10 -17 -67 -31 -128 -15 -60 -29 -118 -31 -127 -5 -16 -18 -18 -100 -18
-54 0 -94 4 -94 10 0 14 68 258 75 270 3 6 46 10 96 10 81 0 90 -2 85 -17z
m1394 -25 c6 -24 22 -84 36 -134 13 -51 24 -97 24 -103 0 -7 -30 -11 -89 -11
-77 0 -90 3 -95 18 -2 9 -16 67 -31 127 -14 61 -28 118 -31 128 -5 15 4 17 85
17 l90 0 11 -42z m-1562 -680 c-21 -90 -40 -173 -43 -185 -5 -22 -10 -23 -111
-23 -96 0 -106 2 -102 18 3 9 25 92 49 184 l44 168 101 0 101 0 -39 -162z
m1749 -23 l50 -185 -103 0 c-99 0 -104 1 -109 23 -3 12 -23 95 -44 185 l-38
162 97 0 96 0 51 -185z m-3279 -513 c-6 -63 -44 -143 -348 -732 -86 -168 -221
-431 -300 -585 -171 -335 -207 -399 -253 -446 -38 -39 -69 -49 -158 -49 -90 0
-105 27 -60 105 28 48 864 1384 979 1565 103 161 130 200 140 200 3 0 2 -26 0
-58z m1375 -124 c-24 -101 -49 -207 -56 -237 l-13 -55 -117 -2 c-64 -1 -117 0
-117 2 0 2 15 59 34 127 19 67 47 169 61 227 15 57 29 108 31 112 3 4 54 8
113 8 l108 0 -44 -182z m2036 145 c5 -21 19 -76 31 -123 12 -47 35 -132 51
-189 16 -58 29 -110 29 -117 0 -9 -28 -12 -112 -10 l-112 2 -13 55 c-7 29 -32
136 -56 237 l-44 182 108 0 108 0 10 -37z m1532 -491 c173 -276 389 -622 481
-770 317 -506 308 -491 308 -527 0 -40 -10 -45 -98 -45 -126 0 -143 18 -315
346 -406 774 -702 1372 -712 1437 -8 49 0 87 14 71 4 -5 149 -235 322 -512z
m-3705 -244 c-9 -30 -126 -526 -126 -533 0 -3 -59 -5 -131 -5 -101 0 -130 3
-126 13 2 6 34 127 71 267 37 140 69 261 71 268 3 9 37 12 126 12 121 0 121 0
115 -22z m2390 -85 c15 -60 49 -184 74 -278 l47 -170 -125 -3 c-69 -1 -126 -1
-128 0 -1 2 -30 118 -63 258 -33 140 -63 265 -67 278 -6 22 -6 22 114 22 l119
0 29 -107z M3755 356 l-50 -24 113 -1 c61 -1 112 1 112 4 0 9 -83 45 -105 45
-11 0 -42 -11 -70 -24z M6773 360 c-24 -10 -43 -21 -43 -25 0 -3 51 -5 113 -4
l112 1 -50 24 c-60 29 -77 29 -132 4z"/>
</g>
</svg>
