<?xml version="1.0" standalone="no"?>
<!DOCTYPE svg PUBLIC "-//W3C//DTD SVG 20010904//EN"
 "http://www.w3.org/TR/2001/REC-SVG-20010904/DTD/svg10.dtd">
<svg version="1.0" xmlns="http://www.w3.org/2000/svg"
 width="2048.000000pt" height="2048.000000pt" viewBox="0 0 2048.000000 2048.000000"
 preserveAspectRatio="xMidYMid meet">
<metadata>
Created by potrace 1.13, written by Peter Selinger 2001-2015
</metadata>
<g transform="translate(0.000000,2048.000000) scale(0.192120,-0.192120)"
fill="#000000" stroke="none">
<path d="M4545 6153 c-434 -54 -755 -143 -1170 -323 -308 -134 -812 -417 -985
-552 l-25 -20 30 7 c59 14 160 67 254 133 229 163 576 339 909 461 246 90 565
170 767 192 95 10 121 10 192 -5 78 -16 133 -46 133 -73 0 -5 5 -14 12 -21 29
-29 39 -113 48 -382 9 -286 12 -311 40 -347 17 -22 17 -21 24 39 3 33 6 249 6
479 l0 419 -102 -1 c-57 -1 -116 -4 -133 -6z M8895 5881 c-61 -11 -110 -38
-155 -88 -75 -80 -75 -79 -78 -442 -2 -226 0 -327 8 -335 9 -9 246 -22 482
-25 l68 -1 35 -47 c89 -122 175 -332 214 -528 34 -169 42 -251 48 -507 l6
-248 112 0 112 0 7 -57 c7 -61 34 -131 57 -149 27 -21 82 -34 175 -40 l94 -7
0 -1423 0 -1424 -4760 0 -4760 0 0 1424 0 1425 778 4 c665 3 785 6 836 19 99
27 142 73 153 167 4 38 2 52 -8 56 -8 3 -458 6 -1002 7 l-987 3 0 -1667 0
-1668 5000 0 5000 0 0 1668 0 1667 -280 -3 -280 -3 2 558 3 558 48 7 c93 13
181 86 212 177 22 66 22 676 -1 743 -21 64 -75 122 -142 155 l-57 28 -450 2
c-247 0 -468 -2 -490 -6z m825 -279 l45 -7 3 -287 2 -287 -83 -86 c-50 -50
-92 -85 -104 -85 -24 0 -49 27 -98 105 -44 72 -143 175 -205 215 -61 39 -115
52 -245 59 l-110 6 -3 177 -2 177 32 5 c18 3 44 7 58 9 44 7 663 6 710 -1z
M4384 5870 c-266 -22 -602 -100 -887 -206 -251 -94 -588 -259 -801 -394 l-59
-38 84 -5 c46 -3 435 -18 864 -32 429 -14 810 -29 848 -32 l67 -6 -2 358 c-2
229 -7 359 -13 360 -5 1 -51 -1 -101 -5z m-144 -376 l0 -95 -92 5 c-51 3 -140
8 -198 11 -112 6 -210 24 -213 39 -3 13 64 45 130 63 81 22 323 72 351 72 21
1 22 -2 22 -95z M610 5302 c0 -5 35 -59 78 -121 347 -497 781 -928 1277 -1272
98 -69 313 -198 377 -227 l48 -22 3560 0 3560 0 0 34 c0 28 -6 38 -35 56 -19
12 -50 24 -70 27 -19 3 -35 10 -35 14 0 5 -1472 9 -3377 9 -2158 0 -3403 4
-3446 10 -83 12 -122 31 -240 119 -51 37 -148 106 -217 154 -298 206 -531 414
-564 501 -8 22 8 36 40 36 13 0 24 8 26 18 5 17 14 18 84 15 44 -2 680 -26
1414 -54 734 -27 1857 -69 2495 -94 638 -24 1730 -65 2426 -91 l1265 -48 50
38 c52 40 104 108 104 136 0 15 -13 19 -77 24 -43 4 -667 29 -1388 56 -720 28
-1726 66 -2235 85 -2128 81 -2812 107 -3680 140 -503 19 -959 38 -1014 41
l-98 7 7 100 c4 55 12 108 18 118 20 32 87 32 792 4 561 -22 705 -17 792 28
27 14 63 61 63 80 0 7 -149 17 -335 22 -381 12 -1525 55 -1592 61 -43 3 -73 2
-73 -4z M4627 5152 c-34 -3 -37 -6 -31 -25 14 -48 45 -67 155 -96 106 -28 46
-25 1324 -66 253 -8 593 -19 755 -25 162 -5 432 -14 600 -20 168 -5 442 -15
610 -21 387 -14 479 -11 517 17 23 17 57 82 49 91 -2 2 -2568 98 -3861 145
-44 2 -97 2 -118 0z"/>
</g>
</svg>
