<?xml version="1.0" standalone="no"?>
<!DOCTYPE svg PUBLIC "-//W3C//DTD SVG 20010904//EN"
 "http://www.w3.org/TR/2001/REC-SVG-20010904/DTD/svg10.dtd">
<svg version="1.0" xmlns="http://www.w3.org/2000/svg"
 width="2048.000000pt" height="2048.000000pt" viewBox="0 0 2048.000000 2048.000000"
 preserveAspectRatio="xMidYMid meet">
<metadata>
Created by potrace 1.13, written by Peter Selinger 2001-2015
</metadata>
<g transform="translate(0.000000,2048.000000) scale(0.192120,-0.192120)"
fill="#000000" stroke="none">
<path d="M2350 10055 c-142 -40 -247 -142 -290 -283 -46 -147 -7 -302 104
-412 78 -78 141 -103 384 -153 117 -25 215 -46 217 -49 2 -2 -2 -28 -10 -58
-50 -194 -285 -1339 -285 -1388 0 -106 82 -221 178 -250 l40 -12 -19 -85 c-42
-189 -429 -2013 -435 -2052 l-7 -43 -56 0 c-107 0 -196 -48 -246 -134 -19 -33
-63 -223 -205 -891 -99 -466 -180 -865 -180 -884 0 -112 94 -238 193 -258 15
-3 27 -8 27 -12 0 -3 -11 -59 -25 -124 -14 -64 -25 -122 -25 -127 0 -6 29 -10
68 -10 48 0 84 -7 127 -25 33 -13 63 -21 67 -17 3 4 16 52 27 107 12 55 23
110 26 122 5 20 8 21 42 11 20 -5 75 -27 123 -47 410 -178 732 -543 856 -970
34 -119 52 -231 62 -398 8 -127 12 -148 40 -207 59 -125 174 -212 313 -236 46
-8 691 -10 2250 -8 l2187 3 32 -75 c161 -376 497 -649 910 -737 118 -25 362
-25 480 0 260 56 456 162 640 346 186 186 292 383 347 641 25 118 25 362 0
480 -55 258 -162 456 -346 641 -186 186 -379 290 -641 346 -118 25 -362 25
-480 0 -413 -88 -749 -360 -910 -738 l-33 -76 -144 0 -144 1 6 25 c4 14 22 67
42 116 298 759 1136 1151 1907 893 103 -35 265 -113 346 -168 116 -79 173 -97
242 -80 154 39 209 229 100 343 -80 84 -374 239 -579 307 -184 60 -316 81
-536 87 -270 8 -437 -16 -682 -98 -434 -144 -813 -454 -1056 -861 -81 -137
-181 -388 -213 -538 l-5 -25 -1568 2 -1568 3 -22 106 c-92 438 -318 866 -636
1201 -216 227 -539 452 -817 568 -36 15 -66 28 -68 30 -1 1 45 224 103 495 58
271 105 514 105 540 0 108 -75 220 -171 252 -25 9 -43 21 -43 29 1 8 101 480
222 1049 122 570 224 1054 228 1078 l7 42 66 0 c117 0 221 73 255 179 14 43
275 1264 291 1359 4 23 3 42 -1 42 -4 0 -35 -15 -69 -34 -80 -45 -147 -117
-172 -187 -12 -29 -62 -249 -113 -487 -50 -238 -101 -461 -112 -495 -32 -98
-64 -136 -157 -184 -94 -49 -110 -47 -174 15 -60 57 -67 78 -67 194 0 93 10
151 100 573 55 259 107 508 114 555 24 143 -2 213 -87 240 -39 12 -47 19 -47
39 0 51 72 378 94 426 48 103 129 180 227 215 32 12 41 11 81 -8 30 -15 63
-22 104 -22 l59 0 -51 -34 c-100 -67 -163 -166 -184 -288 -28 -159 57 -337
201 -421 43 -25 197 -72 269 -81 19 -3 181 -36 360 -75 413 -89 385 -85 461
-71 183 33 318 167 350 348 29 167 -70 361 -223 436 -38 18 -186 54 -503 121
-370 79 -463 95 -525 94 -47 -1 -95 4 -129 14 -30 10 -70 17 -89 17 -19 0 -47
9 -62 20 -45 32 -90 45 -397 111 -319 68 -391 76 -473 54z m241 -291 c132 -22
133 -25 82 -174 -31 -89 -56 -120 -98 -120 -51 0 -157 30 -202 56 -60 35 -73
58 -73 131 0 70 10 83 92 108 57 18 87 18 199 -1z m1634 -224 c57 -58 80 -73
132 -91 75 -25 127 -58 131 -84 2 -11 13 -30 24 -42 17 -18 20 -32 16 -82 -3
-50 -10 -66 -41 -104 -47 -58 -92 -74 -227 -81 -80 -5 -121 -13 -174 -33 l-69
-27 -23 29 c-82 103 -92 279 -24 415 39 77 135 170 175 170 6 0 42 -31 80 -70z
m-544 -5 c46 -9 91 -18 101 -21 23 -7 29 -44 18 -100 -6 -27 -13 -67 -17 -89
-3 -22 -17 -53 -29 -68 -13 -16 -24 -32 -24 -35 0 -4 -64 -5 -142 -2 -120 5
-150 9 -184 28 -80 42 -110 103 -102 211 4 51 32 79 95 92 50 10 179 3 284
-16z m-1304 -4464 c77 -55 83 -72 83 -218 0 -70 -5 -148 -11 -173 -6 -25 -35
-162 -65 -305 -47 -228 -54 -274 -54 -376 0 -112 1 -117 28 -155 73 -100 154
-167 297 -244 124 -68 267 -163 300 -201 17 -19 63 -60 102 -92 87 -70 301
-290 364 -372 101 -134 213 -330 284 -500 15 -36 50 -143 106 -324 11 -35 34
-85 52 -110 45 -67 136 -155 187 -182 l45 -24 1513 0 c1431 0 1514 1 1523 18
6 9 16 17 23 17 11 0 123 73 136 89 25 31 113 101 127 101 10 0 53 -34 96 -75
103 -99 142 -119 234 -120 102 0 134 28 157 136 5 25 10 26 82 33 43 3 145 6
229 6 l151 0 23 41 c33 57 145 174 211 219 76 51 162 94 245 120 94 30 299 39
401 17 170 -36 295 -106 424 -236 77 -78 105 -113 142 -186 78 -153 93 -215
93 -395 0 -181 -15 -243 -93 -395 -38 -72 -66 -110 -142 -186 -99 -100 -167
-147 -284 -193 -114 -46 -195 -58 -341 -53 -178 6 -295 45 -445 147 -66 45
-178 162 -211 219 l-23 41 -151 0 c-84 0 -186 3 -228 6 l-76 7 -12 55 c-13 66
-47 105 -105 121 -27 8 -637 11 -2069 11 -1116 1 -2073 5 -2126 9 -108 10
-144 24 -207 79 -51 45 -65 86 -92 282 -23 168 -32 214 -65 329 -40 144 -141
364 -216 473 -129 187 -313 380 -469 490 -177 126 -402 220 -483 202 -16 -3
-48 -15 -71 -25 -67 -30 -85 -26 -148 39 -31 31 -61 67 -67 79 -6 12 -11 63
-11 113 0 79 17 173 125 683 191 901 188 890 293 948 61 34 62 34 62 14 0 -12
6 -11 33 5 42 26 47 25 94 -9z M8834 2130 c-125 -10 -200 -29 -346 -85 l-113
-44 370 -1 c403 0 439 -4 537 -57 145 -79 239 -268 210 -423 -29 -158 -129
-277 -282 -337 -39 -15 -95 -18 -438 -23 l-393 -5 113 -42 c190 -70 214 -75
431 -80 165 -5 210 -3 270 12 220 52 379 201 432 405 26 101 17 234 -23 330
-56 133 -142 223 -280 290 -114 56 -282 76 -488 60z M1395 2815 c-411 -65
-750 -313 -934 -681 -90 -180 -126 -338 -126 -554 0 -111 5 -179 18 -240 56
-260 162 -456 346 -640 186 -186 383 -292 641 -347 118 -25 362 -25 480 0 260
56 456 162 640 346 186 186 292 383 347 641 25 118 25 362 0 480 -76 357 -282
648 -590 835 -65 39 -237 119 -243 112 -2 -2 -73 -341 -84 -402 -19 -105 -172
-813 -181 -836 -30 -78 -132 -113 -202 -70 -37 23 -67 73 -67 113 0 13 20 118
45 233 25 116 64 296 85 400 49 236 104 487 123 560 8 30 12 57 9 60 -10 10
-228 3 -307 -10z m195 -412 c0 -5 -23 -34 -50 -67 -106 -123 -136 -180 -174
-335 -42 -163 -66 -309 -66 -389 0 -67 4 -84 30 -129 32 -56 109 -124 168
-149 90 -37 198 -5 291 87 83 81 111 155 160 412 32 167 28 242 -27 435 l-21
73 22 -7 c67 -20 159 -84 247 -173 77 -77 105 -113 142 -186 78 -153 93 -215
93 -395 0 -181 -15 -243 -93 -395 -38 -72 -66 -110 -142 -186 -99 -100 -167
-147 -284 -193 -114 -46 -195 -58 -341 -53 -152 5 -222 24 -360 95 -73 38
-109 66 -191 147 -83 83 -108 115 -146 190 -79 153 -93 215 -93 395 0 180 14
242 93 395 38 74 64 108 146 191 84 83 116 108 191 146 98 50 169 75 243 88
62 10 162 12 162 3z"/>
</g>
</svg>
