<?xml version="1.0" standalone="no"?>
<!DOCTYPE svg PUBLIC "-//W3C//DTD SVG 20010904//EN"
 "http://www.w3.org/TR/2001/REC-SVG-20010904/DTD/svg10.dtd">
<svg version="1.0" xmlns="http://www.w3.org/2000/svg"
 width="2048.000000pt" height="2048.000000pt" viewBox="0 0 2048.000000 2048.000000"
 preserveAspectRatio="xMidYMid meet">
<metadata>
Created by potrace 1.13, written by Peter Selinger 2001-2015
</metadata>
<g transform="translate(0.000000,2048.000000) scale(0.192120,-0.192120)"
fill="#000000" stroke="none">
<path d="M4720 9219 c-85 -4 -177 -10 -205 -14 -202 -28 -369 -65 -500 -110
-67 -23 -78 -23 -270 -18 -567 16 -1284 -62 -1775 -193 -921 -245 -1463 -689
-1540 -1262 -18 -132 -9 -234 54 -572 30 -162 60 -335 66 -385 34 -290 165
-569 394 -842 504 -603 1468 -1185 2597 -1569 915 -311 1819 -487 2792 -545
256 -15 871 -6 1107 15 641 60 1173 192 1574 393 204 102 422 262 537 394 84
95 545 789 595 894 239 503 44 1088 -557 1670 -454 439 -1140 866 -1893 1176
-96 40 -129 59 -177 103 -365 339 -956 610 -1650 757 -419 88 -786 123 -1149
108z m-68 -109 c45 -15 133 -26 308 -41 569 -45 913 -110 1440 -270 191 -58
241 -75 388 -128 59 -22 140 -46 180 -55 85 -17 102 -29 137 -99 29 -60 31
-86 8 -134 -123 -259 -1118 -229 -1951 59 -631 218 -929 520 -654 663 58 30
65 30 144 5z m-875 -113 c-342 -174 -581 -431 -648 -696 -17 -68 -19 -89 -10
-138 113 -620 1924 -1332 3486 -1370 757 -18 1262 122 1382 385 51 110 43 328
-17 513 -53 162 -175 372 -290 502 -29 31 -47 57 -41 57 23 0 158 -74 236
-129 100 -71 218 -142 270 -163 261 -104 340 -146 542 -290 253 -179 511 -423
635 -598 574 -811 -16 -1476 -1472 -1659 -472 -59 -1053 -61 -1630 -5 -1436
139 -2939 626 -3884 1256 -508 339 -816 677 -938 1028 -31 91 -32 101 -32 240
0 132 3 152 27 220 148 409 634 686 1447 826 137 23 180 26 370 25 185 -1 233
3 345 23 72 13 174 24 228 25 l97 1 -103 -53z m493 -97 c0 -23 154 -242 198
-281 353 -315 1285 -589 2002 -589 345 0 530 50 675 180 92 84 93 83 285 -69
190 -151 244 -215 327 -386 l48 -100 3 -205 3 -205 -30 -36 c-76 -92 -319
-172 -641 -211 -141 -17 -702 -17 -880 0 -788 77 -1550 273 -2169 556 -354
162 -640 361 -747 520 -33 50 -34 53 -34 155 0 98 2 107 31 158 46 80 198 235
294 298 120 80 194 110 419 170 230 61 216 58 216 45z m-2952 -492 c14 -7 34
-25 45 -39 94 -128 -285 -310 -466 -224 -75 35 -75 100 0 136 27 13 71 45 99
71 43 40 63 51 115 63 70 16 166 12 207 -7z m-385 -442 c55 -10 98 -11 145 -5
117 15 112 17 112 -45 0 -65 38 -234 75 -336 15 -41 32 -96 38 -123 15 -66 5
-74 -73 -57 -173 37 -337 -40 -432 -203 -71 -123 -64 -229 27 -372 50 -77 123
-143 202 -182 69 -34 76 -36 148 -30 209 16 350 169 372 405 3 28 9 52 14 52
5 0 9 -4 9 -9 0 -5 8 -12 18 -15 10 -3 51 -38 92 -77 125 -118 284 -240 510
-390 118 -78 217 -145 220 -148 8 -11 130 -85 220 -134 95 -51 130 -80 130
-105 0 -25 -9 -34 -67 -70 -71 -46 -129 -111 -166 -190 -29 -60 -32 -77 -32
-157 0 -77 4 -98 27 -147 54 -115 174 -202 314 -227 115 -21 244 26 328 120
73 81 86 119 86 247 0 60 3 124 6 142 6 27 11 31 30 27 15 -3 24 1 24 8 0 8
39 -3 108 -32 355 -148 765 -281 1221 -398 79 -20 152 -42 162 -48 34 -21 22
-50 -49 -120 -43 -43 -81 -93 -103 -135 -30 -58 -34 -78 -38 -155 -3 -96 10
-148 57 -219 53 -81 170 -145 287 -157 178 -19 317 51 385 195 27 56 30 71 30
164 0 98 -2 107 -41 196 -23 52 -39 101 -35 109 8 21 29 19 263 -19 355 -59
723 -100 1091 -122 80 -4 112 -10 112 -19 0 -8 24 -16 67 -21 83 -11 86 -18
41 -111 -29 -61 -33 -79 -36 -174 -3 -99 -2 -110 23 -160 15 -29 41 -70 58
-91 164 -204 529 -172 655 57 32 60 32 61 29 180 -2 112 -5 124 -34 183 -56
110 -51 128 32 137 44 5 65 12 65 21 0 8 17 15 43 18 23 3 101 13 172 21 314
37 668 119 888 203 62 25 77 27 77 15 0 -11 5 -13 18 -8 9 4 26 8 37 9 17 1
20 -5 18 -39 -1 -22 -3 -94 -5 -160 -3 -117 -2 -121 27 -174 65 -117 177 -193
296 -199 118 -7 255 48 345 138 100 99 107 116 102 244 -3 92 -6 107 -38 170
-47 95 -117 162 -224 214 -58 29 -86 48 -86 60 0 9 23 42 51 72 67 73 127 151
175 228 21 35 48 78 59 95 12 18 31 33 44 35 12 2 61 -15 109 -37 48 -22 114
-45 147 -52 33 -6 66 -16 73 -21 16 -13 17 -374 1 -448 -6 -28 -35 -97 -65
-153 -141 -267 -144 -275 -155 -388 -11 -120 -7 -115 -156 -214 -377 -251
-957 -436 -1633 -520 -307 -38 -429 -46 -832 -52 -461 -7 -832 11 -1258 62
-1959 234 -3831 986 -4814 1935 -193 186 -382 425 -462 583 -26 49 -26 50 -8
96 9 25 23 55 31 66 10 15 13 91 13 361 0 366 0 366 55 479 28 55 57 92 95
118 29 20 33 20 133 3z m297 -712 c105 -31 190 -149 190 -264 0 -176 -170
-311 -339 -270 -274 66 -291 440 -24 536 51 18 108 17 173 -2z m8586 -664
c120 -59 234 -199 234 -287 0 -61 -25 -83 -94 -83 -147 0 -356 187 -360 322
-1 32 5 45 28 65 25 21 37 24 78 21 26 -3 77 -20 114 -38z m-6856 -556 c74
-22 152 -100 174 -174 24 -80 20 -136 -13 -205 -49 -104 -134 -159 -247 -160
-59 0 -80 5 -129 30 -187 96 -204 357 -31 473 81 54 151 64 246 36z m-1566
-314 c4 0 107 -67 229 -148 284 -189 513 -321 824 -475 1160 -574 2538 -935
3968 -1039 229 -17 973 -17 1195 0 91 7 199 14 240 17 41 3 92 8 113 10 31 5
37 2 37 -14 0 -16 -10 -20 -52 -26 -29 -4 -57 -11 -63 -15 -5 -4 -17 -8 -25
-8 -8 0 -42 -5 -75 -11 -54 -10 -279 -38 -365 -46 -459 -43 -1028 -39 -1520
11 -1512 153 -3018 648 -4025 1324 -97 65 -231 163 -245 179 -3 3 -39 33 -80
66 -85 68 -210 191 -210 208 0 6 10 1 23 -11 13 -12 27 -22 31 -22z m8023
-216 c168 -81 206 -311 72 -442 -51 -50 -105 -74 -180 -80 -56 -4 -75 -1 -120
20 -75 35 -114 70 -145 134 -77 158 15 349 191 395 47 12 125 1 182 -27z
m-4316 -216 c181 -77 218 -333 67 -462 -176 -151 -458 -25 -458 205 0 210 198
340 391 257z m2231 -190 c54 -23 122 -91 146 -146 26 -61 21 -167 -10 -228
-49 -94 -126 -144 -230 -152 -85 -6 -144 15 -206 72 -68 62 -87 106 -87 201 0
70 4 87 29 133 74 133 215 180 358 120z m768 -1008 c0 -5 -5 -10 -11 -10 -5 0
-7 5 -4 10 3 6 8 10 11 10 2 0 4 -4 4 -10z m-50 -15 c0 -8 -6 -15 -14 -15 -17
0 -28 14 -19 24 12 12 33 6 33 -9z M995 5670 c5 -8 34 -54 66 -101 189 -283
563 -660 937 -942 56 -43 102 -82 102 -87 0 -6 -65 -164 -145 -352 -79 -189
-476 -1128 -880 -2088 -405 -960 -738 -1751 -742 -1758 -4 -9 749 -12 3747
-12 l3752 0 -6 33 c-3 17 -103 709 -221 1536 -167 1170 -212 1507 -203 1513 7
4 21 8 31 8 39 0 413 102 582 158 296 99 588 230 791 358 127 79 125 82 -11
15 -317 -156 -672 -269 -1161 -370 -117 -24 -211 -49 -240 -64 -55 -28 -134
-96 -134 -115 0 -6 -4 -12 -10 -12 -6 0 -10 -41 -10 -103 0 -79 38 -370 170
-1292 171 -1199 186 -1324 164 -1434 l-7 -31 -3461 2 -3461 3 1 55 c0 50 72
224 721 1765 804 1909 825 1961 849 2062 17 68 17 73 -1 120 -26 67 -106 148
-255 256 -388 284 -691 553 -884 787 -87 105 -93 112 -81 90z"/>
</g>
</svg>
