<?xml version="1.0" standalone="no"?>
<!DOCTYPE svg PUBLIC "-//W3C//DTD SVG 20010904//EN"
 "http://www.w3.org/TR/2001/REC-SVG-20010904/DTD/svg10.dtd">
<svg version="1.0" xmlns="http://www.w3.org/2000/svg"
 width="2048.000000pt" height="2048.000000pt" viewBox="0 0 2048.000000 2048.000000"
 preserveAspectRatio="xMidYMid meet">
<metadata>
Created by potrace 1.13, written by Peter Selinger 2001-2015
</metadata>
<g transform="translate(0.000000,2048.000000) scale(0.192120,-0.192120)"
fill="#000000" stroke="none">
<path d="M8285 9914 c-154 -24 -305 -69 -420 -126 -187 -93 -41 48 -3090
-2998 -1573 -1571 -2918 -2908 -2990 -2971 -225 -199 -353 -304 -760 -621
-434 -338 -565 -473 -615 -637 -47 -149 -6 -298 132 -483 71 -95 686 -715 794
-800 568 -450 1267 -497 1988 -134 89 45 208 111 264 146 182 114 423 301 594
462 59 56 68 68 68 99 0 33 -3 37 -42 48 -70 21 -217 101 -300 164 -96 72
-214 188 -275 270 -44 60 -123 209 -123 233 0 7 33 22 73 34 242 73 478 259
640 503 43 66 107 201 107 226 0 19 25 12 86 -25 207 -125 448 -378 545 -575
24 -47 34 -59 47 -54 9 4 42 12 74 17 l56 11 1497 1497 c1402 1402 1497 1499
1502 1536 l5 39 -80 28 c-179 62 -403 236 -542 421 -42 55 -105 175 -115 218
-6 25 -4 28 37 38 308 79 654 391 760 686 12 35 28 64 34 64 23 0 191 -119
279 -197 147 -131 297 -320 342 -430 15 -35 22 -43 38 -38 11 2 46 10 77 17
l58 12 413 415 c330 332 425 433 469 501 75 114 112 192 153 313 87 266 87
539 -1 807 -89 267 -227 449 -623 820 -310 291 -453 377 -731 441 -83 20 -353
34 -425 23z m-85 -343 c-1 -13 -26 -38 -50 -51 -14 -7 -38 -24 -55 -37 -16
-13 -68 -53 -115 -89 -47 -36 -92 -73 -100 -82 -74 -82 -709 -698 -755 -734
-61 -46 -264 -174 -294 -186 -9 -3 -38 -21 -65 -39 -82 -56 -89 -41 -17 44 85
101 943 947 1016 1001 110 82 279 164 370 181 40 7 65 4 65 -8z m792 -76 c78
-6 238 -45 300 -73 39 -17 47 -26 73 -88 38 -92 95 -178 196 -299 176 -210
233 -299 288 -458 31 -88 31 -90 31 -295 0 -153 -4 -221 -16 -266 -47 -187
-75 -252 -160 -382 -46 -71 -126 -158 -388 -422 -320 -322 -332 -332 -369
-332 -35 0 -45 7 -100 67 -192 209 -286 297 -394 368 -28 18 -43 35 -43 49 0
11 -6 33 -14 48 -9 17 -17 78 -21 165 -7 139 -23 228 -52 293 -105 236 -235
412 -371 503 -145 97 -253 134 -356 122 -83 -9 -214 -54 -337 -116 l-102 -51
40 49 c96 113 823 824 902 882 184 135 412 220 646 240 88 8 109 8 247 -4z
m-1307 -1189 c184 -59 319 -203 371 -396 27 -100 23 -269 -9 -391 -48 -184
-147 -357 -289 -506 -176 -184 -380 -302 -600 -348 -90 -19 -256 -19 -337 0
-194 46 -344 186 -407 378 -37 111 -39 287 -6 422 73 296 315 592 622 762 200
110 462 142 655 79z m-1236 -252 c-12 -22 -36 -60 -55 -85 -19 -26 -34 -49
-34 -53 0 -16 -179 -279 -236 -346 -90 -107 -2806 -2817 -2884 -2877 -65 -51
-273 -183 -287 -183 -5 0 -34 -18 -67 -40 -82 -56 -100 -52 -49 12 43 54 3545
3558 3587 3589 22 16 41 27 43 25 2 -2 -6 -21 -18 -42z m1770 -240 c41 -83 62
-178 62 -289 0 -86 -22 -218 -43 -257 -11 -22 -37 -23 -66 -2 -27 19 -29 63
-5 166 25 112 22 313 -6 403 -36 114 -36 113 -2 75 17 -19 44 -62 60 -96z
m-1884 -366 c-85 -178 -99 -227 -99 -343 -1 -89 2 -107 29 -165 76 -170 192
-303 360 -415 196 -131 330 -180 548 -200 86 -8 103 -23 204 -168 85 -124 227
-272 340 -356 76 -56 89 -76 78 -119 -8 -32 -1030 -1062 -1195 -1205 -58 -50
-420 -405 -805 -789 -650 -647 -703 -698 -734 -698 -31 0 -52 18 -220 188
-116 118 -211 205 -253 232 -55 36 -68 49 -68 70 0 14 -6 34 -14 45 -9 14 -15
66 -19 165 -6 170 -19 225 -87 365 -99 205 -217 349 -363 445 -129 85 -182
104 -292 103 -107 0 -222 -34 -377 -111 l-97 -48 39 45 c49 59 3063 3071 3072
3071 4 0 -17 -51 -47 -112z m667 -908 c48 -7 105 -9 127 -6 21 3 79 8 128 12
87 6 91 6 107 -17 9 -13 16 -33 16 -45 0 -18 -9 -23 -57 -33 -178 -35 -394 12
-508 113 l-40 35 70 -24 c39 -13 109 -29 157 -35z m-3248 -2110 c525 -134 584
-816 112 -1308 -152 -158 -328 -269 -521 -328 -80 -25 -106 -28 -240 -28 -165
-1 -225 12 -330 73 -108 63 -199 171 -243 292 -181 491 280 1175 878 1303 99
22 252 20 344 -4z m-1195 -266 c-12 -22 -36 -60 -55 -85 -19 -26 -34 -49 -34
-53 0 -3 -37 -63 -83 -134 -163 -250 -293 -371 -962 -897 -407 -320 -510 -413
-646 -584 -40 -50 -49 -56 -79 -51 -24 3 -30 21 -30 95 0 69 1 71 49 131 57
71 192 185 491 419 486 380 691 557 1045 905 250 247 314 305 322 296 2 -2 -6
-21 -18 -42z m1742 -187 c95 -147 120 -376 61 -557 -16 -50 -20 -55 -46 -53
-60 4 -68 38 -39 165 11 49 16 120 17 213 0 130 -2 146 -30 227 -34 98 -24 99
37 5z m-1846 -397 c-107 -213 -133 -314 -110 -424 41 -196 187 -388 400 -528
183 -120 322 -172 499 -185 116 -8 141 -24 216 -135 106 -157 192 -251 343
-375 98 -81 105 -100 57 -150 -47 -48 -249 -190 -395 -278 -735 -444 -1428
-454 -1990 -29 -38 29 -126 105 -195 169 -163 151 -265 219 -366 245 -42 10
-81 23 -87 29 -19 19 -21 163 -3 224 23 79 99 187 208 294 110 108 172 161
413 348 425 329 662 527 912 761 73 68 135 124 138 124 3 0 -15 -41 -40 -90z
m669 -928 c49 -5 143 -4 208 1 106 9 120 8 137 -7 10 -10 21 -28 24 -42 4 -20
-1 -25 -32 -35 -66 -19 -210 -22 -291 -5 -86 18 -200 70 -250 115 l-35 30 75
-25 c41 -13 115 -28 164 -32z M7252 7769 c-103 -20 -218 -112 -269 -216 -24
-49 -28 -70 -28 -139 0 -101 23 -141 103 -181 44 -22 62 -25 111 -20 169 15
325 172 338 340 9 112 -46 193 -147 216 -51 12 -50 12 -108 0z M3357 3880
c-107 -27 -213 -114 -263 -217 -39 -78 -45 -173 -15 -230 35 -69 105 -113 180
-113 48 0 137 32 191 69 191 131 229 393 69 476 -35 19 -116 26 -162 15z
M9130 6578 c0 -28 21 -86 38 -106 10 -11 52 -37 93 -58 41 -20 98 -52 126 -70
63 -40 117 -64 158 -71 94 -15 98 -17 114 -58 11 -30 15 -78 15 -185 0 -132
-3 -153 -28 -230 -54 -163 -134 -296 -253 -421 -143 -151 -318 -260 -498 -311
-145 -41 -399 -27 -425 23 -6 10 -10 33 -10 52 0 53 -24 109 -106 255 -83 145
-117 180 -185 189 l-42 6 5 -74 c13 -160 75 -267 264 -447 192 -185 295 -229
514 -219 233 10 452 114 647 308 202 200 316 452 315 694 -1 197 -43 285 -222
469 -150 153 -220 206 -322 240 -84 29 -198 36 -198 14z M8861 6464 c-37 -47
-23 -129 26 -155 21 -12 23 -17 17 -53 -33 -201 -251 -450 -420 -482 -29 -5
-39 -2 -58 19 -13 14 -42 31 -65 38 -52 15 -112 0 -148 -39 l-25 -27 39 -8
c21 -5 80 -7 132 -4 l93 4 122 -88 c137 -101 196 -125 280 -115 113 13 233
103 287 214 30 60 38 172 16 223 -8 19 -65 96 -128 171 l-113 136 -1 68 c-3
75 -12 124 -25 124 -5 0 -18 -12 -29 -26z M5246 2701 c-11 -17 12 -92 36 -118
12 -14 58 -43 100 -64 43 -22 101 -54 130 -72 67 -43 77 -47 168 -66 74 -16
75 -17 89 -56 8 -22 16 -92 19 -155 5 -142 -18 -250 -82 -386 -57 -120 -112
-200 -205 -297 -242 -253 -567 -379 -831 -323 -84 18 -100 32 -100 88 0 55
-21 109 -94 238 -93 166 -146 220 -216 220 -18 0 -20 -6 -20 -53 0 -99 45
-223 114 -312 17 -22 91 -98 164 -168 143 -138 194 -170 322 -203 93 -24 255
-15 374 21 304 89 586 348 705 647 47 117 64 200 64 323 0 93 -4 122 -26 187
-38 111 -67 152 -213 300 -145 147 -218 200 -314 228 -82 24 -176 35 -184 21z
M4977 2580 c-41 -48 -38 -101 9 -148 31 -31 35 -40 29 -70 -35 -190 -236 -426
-399 -472 -44 -12 -46 -12 -80 18 -42 37 -107 50 -161 32 -36 -12 -74 -54 -61
-68 4 -4 63 -7 131 -7 l124 -1 113 -82 c140 -100 174 -115 259 -116 176 -1
341 169 341 350 -1 81 -15 107 -146 263 l-108 130 -3 78 c-2 43 -7 89 -12 102
l-9 23 -27 -32z"/>
</g>
</svg>
