<?xml version="1.0" standalone="no"?>
<!DOCTYPE svg PUBLIC "-//W3C//DTD SVG 20010904//EN"
 "http://www.w3.org/TR/2001/REC-SVG-20010904/DTD/svg10.dtd">
<svg version="1.0" xmlns="http://www.w3.org/2000/svg"
 width="2048.000000pt" height="2048.000000pt" viewBox="0 0 2048.000000 2048.000000"
 preserveAspectRatio="xMidYMid meet">
<metadata>
Created by potrace 1.13, written by Peter Selinger 2001-2015
</metadata>
<g transform="translate(0.000000,2048.000000) scale(0.192120,-0.192120)"
fill="#000000" stroke="none">
<path d="M3573 8113 l-92 -278 -418 -3 -419 -2 -43 -128 c-23 -70 -45 -133
-48 -139 -3 -10 12 -13 60 -13 96 0 127 8 127 34 0 11 9 40 19 63 34 73 46 76
371 84 296 7 345 13 415 54 77 45 105 88 170 265 21 55 40 87 75 123 l47 47
227 0 c219 0 226 -1 226 -20 0 -13 7 -20 20 -20 19 0 20 -7 20 -135 0 -113 2
-135 15 -135 11 0 15 -11 15 -35 0 -20 6 -43 13 -52 31 -41 112 -113 143 -128
39 -18 166 -35 270 -35 39 0 87 -3 105 -7 54 -10 135 -101 199 -221 71 -135
106 -174 188 -214 l67 -33 970 -3 c943 -3 971 -2 1035 17 117 36 168 96 225
271 31 95 64 152 97 174 13 8 63 18 112 24 119 13 153 39 170 130 l6 32 -220
0 -219 0 -14 -47 c-8 -27 -45 -153 -82 -280 l-68 -233 -1014 0 -1014 0 -137
279 -137 280 -280 0 -280 1 3 280 4 280 -419 0 -419 0 -91 -277z M8106 8378
c-6 -18 -106 -531 -106 -540 0 -5 212 -8 470 -8 l470 0 0 280 0 280 -415 0
c-324 0 -416 -3 -419 -12z M9000 7796 c0 -47 37 -98 87 -116 69 -26 110 -71
132 -147 11 -38 29 -100 40 -139 38 -130 129 -195 301 -214 77 -8 110 -17 171
-48 l75 -37 -15 90 -16 90 -167 -4 c-93 -1 -168 -1 -168 1 0 3 -22 121 -50
263 -27 142 -50 267 -50 277 0 17 -12 18 -170 18 l-170 0 0 -34z M2826 7542
c-2 -4 -32 -67 -65 -140 l-60 -132 801 0 800 0 -6 23 c-3 12 -21 74 -40 137
l-34 115 -695 3 c-383 1 -698 -1 -701 -6z M2369 7252 c-63 -166 -89 -237 -89
-246 0 -8 44 -10 135 -8 76 2 135 0 135 -5 0 -5 -103 -317 -228 -693 l-229
-685 -741 -3 c-408 -1 -742 -5 -742 -7 0 -16 46 -91 100 -164 87 -117 199
-226 480 -465 487 -415 665 -628 795 -954 57 -144 100 -215 178 -298 l59 -64
3607 1 c1983 1 3619 4 3636 8 39 8 72 59 179 272 129 256 237 546 305 814 61
242 106 577 99 735 l-3 75 -22 -35 c-28 -45 -80 -122 -93 -137 -5 -7 -10 -21
-10 -33 0 -11 -4 -20 -10 -20 -5 0 -10 -17 -10 -37 0 -51 -24 -177 -55 -298
-16 -59 -29 -141 -32 -200 -5 -94 -3 -105 26 -184 17 -47 31 -93 31 -103 0
-17 -151 -18 -4082 -18 l-4083 0 3 79 c4 99 -15 148 -90 227 -52 56 -208 192
-239 210 -56 32 -323 290 -348 337 -21 39 -9 57 38 57 31 0 41 4 46 20 6 20
15 20 433 20 257 0 445 5 472 11 58 13 104 49 126 99 l18 40 65 2 66 2 -63 3
-63 4 7 32 c19 90 71 222 121 310 54 95 56 102 69 213 16 139 45 224 120 356
57 99 58 102 65 202 4 55 13 125 18 155 6 29 11 81 11 115 0 69 15 119 47 160
21 26 49 104 41 111 -2 1 -67 5 -146 7 l-144 5 -9 -25z m7106 -3042 c14 -45
-62 -213 -125 -279 -21 -22 -51 -41 -70 -44 -18 -4 -1574 -7 -3459 -7 -3355 0
-3427 1 -3468 20 -47 21 -91 81 -136 185 -34 79 -40 101 -32 125 6 20 15 20
3645 20 l3639 0 6 -20z M2716 6863 c-25 -75 -44 -138 -43 -140 4 -4 7479 -4
7483 0 1 1 -3 31 -11 67 -7 36 -18 98 -25 138 l-12 72 -3673 0 -3673 0 -46
-137z M10141 6651 c-13 -24 -42 -65 -66 -90 -52 -55 -73 -100 -53 -113 7 -4
54 -8 104 -8 l92 0 -23 108 c-12 59 -25 116 -27 127 -3 16 -9 11 -27 -24z
M2530 6308 c-25 -72 -46 -135 -48 -140 -2 -4 1685 -8 3748 -8 3568 0 3751 1
3746 18 -3 9 -10 62 -16 117 -6 55 -13 110 -16 123 l-4 22 -3683 0 -3682 0
-45 -132z M9964 6085 c-12 -50 -8 -73 16 -105 l20 -25 -6 50 c-4 28 -9 66 -13
85 l-7 35 -10 -40z M2396 5878 c-3 -7 -23 -69 -45 -137 -22 -69 -39 -126 -38
-128 2 -1 1744 -4 3871 -5 l3868 -3 -6 55 c-4 30 -11 94 -18 143 l-11 87
-3809 0 c-3038 0 -3809 -3 -3812 -12z M4770 5294 c0 -64 21 -123 61 -168 61
-69 92 -76 358 -76 133 0 243 5 266 11 53 15 129 92 142 145 l9 39 13 -40 c19
-57 55 -102 104 -128 40 -21 52 -22 303 -22 l261 0 48 30 c45 28 81 78 101
140 5 16 9 11 20 -25 14 -49 59 -101 108 -128 26 -14 69 -18 271 -20 264 -4
300 1 359 50 48 39 73 90 82 166 l7 62 -1257 0 -1256 0 0 -36z M7552 5267 c6
-70 22 -109 64 -151 60 -59 68 -61 329 -64 163 -2 253 0 282 9 60 16 118 70
140 129 l19 49 17 -49 c23 -64 82 -115 151 -130 32 -8 135 -11 282 -8 l231 3
48 30 c65 40 105 114 105 191 l0 54 -836 0 -837 0 5 -63z M330 2001 l0 -1671
5000 0 5000 0 0 1671 0 1671 -22 -6 c-13 -3 -196 -6 -407 -6 l-384 0 5 -68 c7
-91 28 -129 86 -155 41 -18 72 -21 260 -25 l212 -5 0 -1423 0 -1424 -4760 0
-4760 0 0 1425 0 1424 733 3 732 3 50 25 c62 31 86 71 93 155 l5 65 -899 0
c-495 0 -909 3 -921 6 l-23 6 0 -1671z"/>
</g>
</svg>
