<?xml version="1.0" standalone="no"?>
<!DOCTYPE svg PUBLIC "-//W3C//DTD SVG 20010904//EN"
 "http://www.w3.org/TR/2001/REC-SVG-20010904/DTD/svg10.dtd">
<svg version="1.0" xmlns="http://www.w3.org/2000/svg"
 width="2048.000000pt" height="2048.000000pt" viewBox="0 0 2048.000000 2048.000000"
 preserveAspectRatio="xMidYMid meet">
<metadata>
Created by potrace 1.13, written by Peter Selinger 2001-2015
</metadata>
<g transform="translate(0.000000,2048.000000) scale(0.192120,-0.192120)"
fill="#000000" stroke="none">
<path d="M4551 10304 c-116 -31 -233 -120 -312 -237 -52 -78 -143 -266 -300
-622 -348 -790 -592 -1191 -923 -1520 -173 -171 -283 -251 -493 -356 -429
-214 -768 -468 -1090 -817 -619 -671 -967 -1418 -1044 -2235 -17 -185 -7 -594
19 -762 154 -985 685 -1755 1548 -2244 598 -338 1323 -535 2064 -560 742 -25
1431 97 1898 336 226 116 352 150 647 174 171 14 604 6 860 -16 351 -30 785
-84 1335 -165 691 -101 814 -111 963 -71 114 30 191 74 278 161 116 115 169
242 169 405 0 247 -153 456 -397 540 -37 13 -151 38 -253 55 -351 59 -806 141
-1630 295 -583 109 -732 135 -742 128 -14 -8 -8 -103 8 -141 32 -78 107 -128
241 -162 113 -29 1253 -242 1928 -360 160 -28 315 -58 345 -66 79 -23 167 -72
201 -113 29 -35 29 -36 29 -169 0 -148 -7 -175 -62 -231 -63 -65 -195 -110
-318 -111 -80 0 -267 23 -775 95 -1038 148 -1366 179 -1870 179 -369 1 -486
-10 -681 -59 -117 -30 -175 -52 -308 -117 -452 -225 -1015 -338 -1682 -338
-743 0 -1435 162 -2051 480 -765 395 -1247 981 -1457 1770 -62 233 -66 283
-66 775 0 489 1 502 60 755 136 585 478 1187 954 1677 282 292 529 473 933
686 301 159 467 284 672 508 313 342 539 718 852 1423 241 543 308 660 413
721 172 101 418 7 521 -198 l35 -70 0 -281 c0 -264 -1 -287 -25 -381 -69 -285
-146 -445 -398 -835 -152 -235 -166 -258 -245 -415 -99 -198 -112 -243 -112
-397 0 -158 9 -179 119 -289 159 -160 280 -214 526 -238 370 -37 511 -38 935
-6 113 8 288 18 390 21 228 9 295 -1 378 -56 73 -48 95 -72 132 -148 l30 -62
0 -190 c0 -213 -15 -384 -36 -417 -32 -51 -179 -106 -354 -133 -561 -86 -2470
-271 -2625 -255 -228 25 -401 121 -509 283 -149 224 -125 508 59 697 70 72
171 135 273 169 116 40 517 114 822 152 74 9 139 21 144 26 6 4 -57 8 -140 8
-337 -1 -854 -34 -1009 -66 -227 -46 -414 -221 -496 -464 -55 -164 -53 -374 7
-544 32 -94 91 -191 158 -261 l54 -58 -39 -52 c-46 -61 -101 -176 -124 -260
-26 -95 -31 -265 -11 -365 50 -244 208 -446 438 -558 69 -33 97 -51 94 -62 -3
-8 -17 -49 -33 -90 -25 -69 -28 -86 -28 -220 0 -137 2 -150 31 -232 99 -279
337 -489 654 -581 273 -79 986 -186 1875 -282 182 -19 458 -49 615 -66 329
-36 446 -36 549 0 205 71 333 187 423 381 22 47 60 126 84 175 181 370 53 718
-311 840 -39 13 -425 85 -457 85 -14 0 -8 -61 8 -96 30 -63 119 -112 306 -170
48 -15 95 -33 105 -40 10 -8 46 -32 80 -53 35 -23 64 -49 68 -63 4 -13 16 -35
26 -50 16 -22 19 -45 19 -153 l0 -126 -60 -154 c-33 -85 -60 -157 -60 -161 0
-5 -11 -45 -25 -91 -28 -92 -40 -103 -131 -123 -73 -17 -172 -14 -339 9 -82
11 -392 50 -687 86 -1058 129 -1582 208 -1891 286 -440 111 -668 448 -526 778
l19 46 503 1 c513 0 722 6 1677 49 943 43 964 45 1085 85 81 27 153 73 227
146 75 74 130 165 175 291 20 54 50 136 67 183 28 78 31 95 31 215 0 150 -18
221 -84 322 -109 169 -245 221 -645 245 -178 11 -188 13 -166 27 139 91 257
263 310 451 31 108 39 349 15 440 -56 218 -214 379 -426 436 -105 28 -243 23
-1029 -38 -140 -10 -181 -9 -420 11 -354 30 -448 49 -541 113 -97 66 -125 155
-91 288 40 151 123 305 360 663 253 382 358 622 438 1002 37 172 43 394 16
525 -87 422 -445 712 -771 624z m-1262 -4614 c46 -45 81 -88 81 -99 0 -23 -57
-79 -99 -97 l-31 -13 -1 67 c0 41 -9 94 -23 137 -20 61 -23 85 -12 85 2 0 40
-36 85 -80z m3386 44 c12 -3 28 -23 39 -50 19 -45 60 -84 107 -103 15 -5 80
-19 145 -31 138 -24 217 -45 236 -63 7 -6 32 -24 55 -39 29 -19 50 -45 72 -88
29 -57 31 -67 31 -178 0 -105 -4 -129 -34 -229 -19 -61 -39 -144 -45 -185 -15
-106 -29 -146 -56 -164 -43 -28 -159 -62 -250 -73 -54 -7 -472 -15 -1030 -21
-517 -5 -1206 -15 -1531 -21 -627 -12 -644 -11 -764 34 -328 121 -477 510
-314 816 49 93 59 104 86 98 256 -57 232 -58 1443 77 1437 160 1669 190 1714
216 18 10 65 13 96 4z m-2981 -1413 c17 -18 16 -21 -1 -58 -10 -21 -25 -38
-33 -38 -8 1 -20 -3 -26 -7 -30 -22 -26 86 4 110 22 17 36 15 56 -7z M6858
4303 c6 -2 18 -2 25 0 6 3 1 5 -13 5 -14 0 -19 -2 -12 -5z"/>
</g>
</svg>
