<?xml version="1.0" standalone="no"?>
<!DOCTYPE svg PUBLIC "-//W3C//DTD SVG 20010904//EN"
 "http://www.w3.org/TR/2001/REC-SVG-20010904/DTD/svg10.dtd">
<svg version="1.0" xmlns="http://www.w3.org/2000/svg"
 width="2048.000000pt" height="2048.000000pt" viewBox="0 0 2048.000000 2048.000000"
 preserveAspectRatio="xMidYMid meet">
<metadata>
Created by potrace 1.13, written by Peter Selinger 2001-2015
</metadata>
<g transform="translate(0.000000,2048.000000) scale(0.192120,-0.192120)"
fill="#000000" stroke="none">
<path d="M6582 10034 c-134 -36 -244 -114 -320 -228 -41 -62 -66 -87 -127
-127 -83 -56 -149 -130 -190 -213 -58 -118 -55 -14 -55 -1873 l0 -1713 -468 0
c-429 0 -475 -2 -543 -19 -41 -11 -82 -22 -91 -26 -17 -7 -18 14 -18 361 0
203 3 412 6 465 l7 97 41 6 c78 13 111 33 313 189 76 58 208 73 307 36 30 -11
90 -45 133 -75 136 -95 174 -114 224 -114 62 0 74 15 59 71 -50 183 -204 336
-386 383 -78 20 -213 20 -289 1 -130 -34 -268 -140 -331 -253 -22 -41 -42 -60
-84 -84 -78 -44 -168 -140 -208 -220 -58 -117 -62 -158 -62 -611 l0 -409 -56
-61 c-273 -302 -298 -738 -61 -1052 l45 -59 -31 -45 c-101 -147 -277 -241
-452 -241 -242 1 -448 148 -533 381 l-27 74 -3 670 c-2 369 -1 775 3 903 l7
232 27 6 c88 18 120 32 202 93 205 151 215 155 339 149 94 -5 137 -26 250
-118 133 -110 155 -123 215 -128 68 -6 72 2 51 92 -45 191 -192 343 -390 403
-71 22 -216 21 -291 -1 -137 -40 -269 -142 -331 -254 -22 -41 -42 -60 -84 -84
-128 -72 -238 -235 -260 -383 -7 -46 -10 -340 -7 -850 3 -877 -1 -818 82 -990
74 -153 208 -292 358 -371 258 -135 514 -134 781 4 73 37 109 65 181 137 50
49 100 103 111 119 l20 30 30 -21 c45 -32 88 -52 151 -70 49 -14 126 -18 497
-22 l438 -6 -48 -35 c-78 -55 -226 -209 -309 -320 -287 -386 -448 -857 -485
-1417 -13 -191 -7 -226 45 -272 29 -25 44 -31 83 -31 96 0 142 57 142 174 0
200 43 492 105 705 145 503 445 911 805 1091 136 68 304 110 444 110 82 0 124
20 156 72 36 60 18 136 -41 179 l-34 24 -850 5 -850 5 -60 22 c-153 58 -282
187 -337 338 -26 73 -35 226 -18 308 31 150 155 308 294 375 133 65 86 63
1389 60 1087 -3 1186 -4 1232 -20 l51 -17 11 -93 c8 -71 25 -131 71 -253 59
-159 302 -948 371 -1205 l36 -135 0 -320 c0 -317 0 -321 -28 -427 -99 -384
-286 -743 -519 -993 -104 -112 -324 -321 -408 -388 -404 -321 -909 -533 -1402
-586 -124 -14 -455 -14 -589 -1 -474 47 -939 202 -1337 446 -262 160 -552 401
-715 593 -347 407 -582 906 -676 1430 -21 113 -21 137 -21 2632 l0 2517 38 38
c21 22 41 46 44 55 4 9 33 30 65 45 101 50 237 35 318 -34 29 -25 78 -91 100
-137 19 -39 20 -71 25 -1135 5 -998 7 -1101 23 -1159 30 -111 71 -164 142
-187 17 -5 40 -8 51 -6 21 3 22 10 29 165 3 89 5 650 3 1247 l-3 1085 -22 66
c-112 327 -472 478 -781 327 -85 -42 -196 -150 -239 -233 -68 -130 -63 65 -63
-2546 0 -2537 -1 -2471 50 -2759 117 -650 422 -1244 885 -1719 525 -539 1163
-864 1925 -983 200 -31 679 -33 865 -4 909 141 1723 714 2178 1531 200 358
317 784 317 1150 0 130 -15 231 -70 460 -43 182 -343 1160 -380 1240 -116 253
-183 365 -282 470 -62 67 -142 115 -190 115 l-28 0 0 1854 0 1855 -25 78 c-56
178 -207 320 -391 368 -72 19 -201 18 -272 -1z m269 -276 c57 -27 129 -91 129
-114 0 -8 4 -14 9 -14 4 0 19 -24 32 -52 l24 -53 3 -1692 c1 -1107 6 -1693 12
-1693 6 0 10 -19 10 -42 0 -49 27 -109 75 -165 l34 -40 -97 -6 c-53 -4 -283
-7 -510 -7 l-412 0 2 1819 c2 1001 6 1822 9 1825 3 4 33 13 65 22 32 8 72 24
89 35 16 10 43 27 58 36 16 10 60 43 97 74 37 31 87 64 111 72 24 9 51 18 59
21 36 13 148 -2 201 -26z m-811 -3903 c0 -8 7 -15 15 -15 9 0 15 -9 15 -24 0
-26 -30 -39 -68 -29 -26 6 -32 53 -7 53 8 0 15 7 15 15 0 8 7 15 15 15 8 0 15
-7 15 -15z m-1329 -80 c32 -39 32 -61 -2 -99 -17 -20 -35 -36 -40 -36 -10 0
-13 163 -3 173 6 6 14 0 45 -38z m-109 -1269 c15 -21 8 -55 -14 -70 -17 -12
-24 -13 -30 -3 -9 14 -10 59 -2 81 6 16 33 11 46 -8z m1407 -192 c54 -11 38
-42 -56 -107 -43 -30 -114 -67 -129 -67 -2 0 -4 15 -4 34 0 18 -7 47 -15 62
-20 39 -19 71 3 77 27 7 166 8 201 1z"/>
</g>
</svg>
