<?xml version="1.0" standalone="no"?>
<!DOCTYPE svg PUBLIC "-//W3C//DTD SVG 20010904//EN"
 "http://www.w3.org/TR/2001/REC-SVG-20010904/DTD/svg10.dtd">
<svg version="1.0" xmlns="http://www.w3.org/2000/svg"
 width="2048.000000pt" height="2048.000000pt" viewBox="0 0 2048.000000 2048.000000"
 preserveAspectRatio="xMidYMid meet">
<metadata>
Created by potrace 1.13, written by Peter Selinger 2001-2015
</metadata>
<g transform="translate(0.000000,2048.000000) scale(0.192120,-0.192120)"
fill="#000000" stroke="none">
<path d="M6590 9595 c-98 -27 -181 -76 -255 -150 -64 -64 -83 -94 -209 -330
-76 -143 -142 -263 -145 -267 -4 -5 -23 14 -44 41 -20 27 -65 70 -100 95 -215
153 -502 138 -693 -37 -67 -61 -126 -147 -150 -220 -11 -33 -33 -68 -62 -97
-113 -115 -173 -307 -143 -463 6 -32 122 -363 257 -735 l247 -677 -31 -85
c-16 -47 -131 -364 -255 -705 -123 -341 -229 -636 -236 -655 -9 -30 -23 -41
-88 -75 -43 -22 -105 -60 -138 -85 l-60 -46 8 91 c4 49 6 248 4 440 -3 299 -6
358 -21 405 -91 285 -379 452 -665 385 -92 -22 -176 -70 -256 -147 -38 -37
-99 -85 -134 -105 -88 -52 -198 -172 -245 -266 -66 -135 -66 -125 -66 -988 0
-741 -1 -779 -20 -853 -26 -101 -69 -177 -144 -251 -162 -160 -429 -201 -642
-100 -74 36 -174 116 -174 141 0 7 18 41 39 74 22 34 45 82 52 108 9 34 14
229 18 707 6 651 6 661 28 707 64 138 209 203 363 164 78 -20 137 -52 220
-119 36 -29 67 -54 70 -54 3 -1 19 -7 35 -13 37 -14 102 -7 123 14 14 14 14
21 -2 73 -53 170 -184 297 -361 349 -87 25 -258 23 -346 -5 -115 -37 -226
-123 -293 -230 -14 -22 -38 -75 -52 -117 l-25 -76 4 -1036 c4 -1126 2 -1091
63 -1396 196 -987 847 -1849 1746 -2309 362 -186 739 -299 1163 -349 141 -16
551 -16 675 0 664 88 1244 376 1726 857 256 254 413 464 560 749 179 346 269
673 281 1022 7 179 -2 245 -62 501 -44 183 -339 1159 -375 1238 -68 150 -222
342 -347 432 -57 41 -140 141 -164 198 -5 11 -155 421 -333 911 l-325 891 60
158 c200 525 590 1613 599 1672 17 105 -4 232 -55 333 -60 119 -185 226 -315
270 -85 29 -232 36 -310 15z m253 -273 c100 -44 175 -156 184 -275 7 -96 -2
-130 -151 -540 -130 -358 -149 -428 -166 -617 -6 -63 -13 -126 -16 -140 l-6
-25 -13 25 c-7 14 -86 223 -175 465 -222 603 -280 764 -280 780 0 8 28 29 61
46 47 25 81 56 146 132 47 54 103 110 125 124 82 55 200 65 291 25z m-1213
-506 c30 -8 95 -33 144 -56 101 -47 144 -48 195 -4 16 13 32 24 36 24 3 0 15
-19 25 -42 16 -38 392 -1067 480 -1316 l33 -92 -56 -59 c-39 -41 -58 -69 -63
-96 -10 -57 2 -150 34 -250 39 -119 446 -1233 480 -1310 36 -83 80 -149 147
-222 l57 -63 -530 0 -530 0 -6 26 c-4 15 -252 700 -550 1523 -299 823 -547
1513 -550 1533 -7 37 -7 37 61 77 72 42 131 99 202 193 78 104 156 147 266
148 39 0 95 -6 125 -14z m-244 -2322 c78 -206 424 -1158 421 -1160 -6 -6 -897
-9 -897 -4 0 3 25 30 56 60 30 30 70 75 89 100 68 92 206 466 250 679 13 62
30 178 36 257 7 80 14 143 15 141 2 -2 15 -34 30 -73z m-1366 -325 c98 -22
183 -97 226 -199 16 -40 20 -82 25 -355 3 -170 11 -332 16 -358 16 -76 52
-113 151 -150 l34 -12 -62 -80 c-70 -90 -141 -227 -167 -325 -26 -94 -23 -288
6 -395 27 -102 79 -211 135 -285 l44 -58 -19 -31 c-11 -18 -49 -61 -84 -96
-298 -293 -782 -169 -917 235 -21 63 -22 83 -26 600 -5 716 5 1296 24 1315 8
8 36 17 62 20 52 8 140 46 246 109 123 72 203 89 306 65z m1938 -914 c-4 -24
-40 -32 -56 -12 -15 17 -4 55 17 60 21 5 43 -22 39 -48z m1381 -214 c18 -5 31
-23 52 -74 15 -38 59 -123 97 -190 39 -67 85 -158 102 -202 36 -94 306 -981
346 -1140 27 -106 29 -121 32 -399 3 -283 3 -292 -23 -409 -77 -347 -265 -734
-477 -985 -93 -109 -328 -335 -453 -435 -526 -419 -1137 -626 -1790 -604 -810
27 -1544 344 -2125 918 -303 299 -553 709 -698 1144 -47 141 -62 195 -108 403
-29 132 -43 175 -95 281 -33 69 -67 134 -76 143 -10 11 4 7 38 -12 108 -60
199 -82 359 -87 123 -4 158 -2 232 16 107 25 200 67 281 125 61 43 165 146
199 196 l17 25 23 -30 c106 -140 267 -250 448 -307 64 -19 96 -23 215 -23 103
0 157 5 205 18 83 22 215 85 288 137 55 39 160 147 196 201 l17 27 56 -34
c125 -75 239 -88 713 -81 l355 6 -50 -41 c-73 -60 -202 -192 -266 -273 -330
-416 -519 -970 -531 -1557 -3 -114 -1 -129 18 -155 44 -60 123 -79 182 -43 59
36 68 64 76 233 27 631 271 1216 642 1539 215 187 408 271 661 287 113 8 137
12 164 31 82 59 75 176 -13 230 -32 19 -52 20 -844 20 -776 0 -814 1 -888 20
-103 26 -177 69 -256 149 -111 112 -160 233 -160 396 0 201 113 386 290 479
129 68 54 65 1350 64 646 0 1186 -3 1199 -7z m-4050 -1082 c12 -28 21 -63 19
-77 -3 -25 -6 -27 -60 -30 -54 -3 -58 -2 -64 23 -8 33 42 135 66 135 11 0 25
-18 39 -51z m1311 -10 c18 -33 4 -69 -25 -69 -22 0 -25 4 -25 39 0 35 8 48 32
50 4 1 12 -8 18 -20z m1430 -204 c14 -8 19 -14 13 -15 -7 0 -13 -7 -13 -15 0
-8 -4 -15 -8 -15 -5 0 -17 -8 -28 -17 -40 -36 -115 -85 -143 -93 -28 -8 -29
-7 -34 43 -4 28 -11 55 -17 61 -14 14 -13 39 2 54 18 18 196 15 228 -3z"/>
</g>
</svg>
