<?xml version="1.0" standalone="no"?>
<!DOCTYPE svg PUBLIC "-//W3C//DTD SVG 20010904//EN"
 "http://www.w3.org/TR/2001/REC-SVG-20010904/DTD/svg10.dtd">
<svg version="1.0" xmlns="http://www.w3.org/2000/svg"
 width="2048.000000pt" height="2048.000000pt" viewBox="0 0 2048.000000 2048.000000"
 preserveAspectRatio="xMidYMid meet">
<metadata>
Created by potrace 1.13, written by Peter Selinger 2001-2015
</metadata>
<g transform="translate(0.000000,2048.000000) scale(0.192120,-0.192120)"
fill="#000000" stroke="none">
<path d="M5740 10314 c-155 -33 -269 -123 -339 -266 -66 -135 -71 -181 -71
-632 0 -259 4 -397 10 -401 19 -12 68 6 95 33 66 66 75 117 85 472 6 243 10
293 26 340 31 88 60 135 110 179 58 51 122 71 229 71 92 0 141 -14 278 -80 67
-33 105 -45 157 -49 39 -4 74 -11 80 -17 6 -6 17 -41 25 -80 13 -59 15 -345
15 -2041 l0 -1971 73 -6 c39 -3 102 -7 140 -10 l67 -4 -2 1887 c-3 1767 -4
1890 -21 1946 -47 162 -150 304 -282 392 -44 29 -106 77 -137 107 -131 124
-338 174 -538 130z M7095 9681 c-160 -47 -271 -155 -330 -320 -13 -39 -13 -41
7 -52 46 -25 101 -5 203 70 106 78 159 99 270 108 90 7 171 -13 293 -74 71
-35 112 -48 173 -56 l79 -11 18 -50 c16 -47 17 -177 22 -1861 l5 -1809 122
-37 c68 -20 130 -42 138 -49 14 -12 15 157 12 1721 -3 1945 4 1770 -78 1938
-33 66 -60 103 -123 166 -45 45 -103 95 -131 110 -27 16 -75 52 -105 80 -116
109 -218 145 -400 144 -78 0 -134 -6 -175 -18z M4420 9630 c-233 -24 -385
-156 -457 -396 -17 -56 -18 -192 -23 -2369 l-5 -2310 -23 -57 c-30 -74 -99
-150 -167 -183 -144 -71 -303 -3 -428 183 -25 37 -106 191 -180 342 -146 298
-192 373 -316 522 -283 338 -666 538 -985 515 -158 -12 -304 -75 -407 -177
-102 -101 -147 -213 -135 -340 11 -118 27 -147 205 -354 350 -408 750 -926
844 -1091 99 -176 171 -380 202 -575 111 -705 379 -1309 806 -1822 101 -121
319 -338 439 -438 488 -404 1053 -647 1690 -727 171 -21 606 -24 765 -4 428
51 786 159 1154 346 955 486 1624 1412 1781 2466 40 268 41 366 38 2639 -3
2084 -4 2198 -21 2254 -65 211 -200 346 -385 385 -78 16 -244 14 -315 -5 -160
-41 -274 -144 -332 -299 l-25 -64 22 -12 c44 -24 102 -5 195 62 125 89 186
113 298 113 159 1 250 -53 323 -190 l32 -62 0 -2248 c0 -1900 -2 -2270 -15
-2384 -62 -577 -253 -1073 -590 -1535 -78 -107 -270 -330 -326 -380 -19 -16
-70 -62 -114 -101 -486 -432 -1127 -703 -1809 -765 -161 -15 -548 -6 -705 16
-474 66 -908 227 -1282 477 -485 324 -828 714 -1098 1247 -156 307 -250 598
-321 986 -39 210 -71 333 -117 450 -82 205 -149 326 -281 509 -144 199 -473
613 -671 844 -72 83 -137 165 -146 182 -10 19 -15 57 -15 112 0 84 0 84 38
120 78 75 192 113 337 112 257 -1 535 -148 764 -404 113 -126 177 -227 300
-475 121 -245 184 -356 253 -442 177 -223 393 -300 583 -207 125 61 232 192
294 358 52 140 51 81 51 2452 l0 2201 21 68 c14 42 35 82 55 105 19 21 34 42
34 46 0 26 74 67 148 83 131 28 273 -5 395 -91 29 -21 44 -24 146 -33 35 -3
67 -7 71 -10 5 -3 16 -36 24 -75 14 -61 16 -251 16 -1710 l0 -1642 63 6 c34 3
97 8 140 12 l77 6 -2 1526 c-4 1713 3 1562 -79 1731 -49 100 -156 218 -246
270 -32 19 -85 60 -118 92 -120 112 -275 159 -465 139z"/>
</g>
</svg>
