<?xml version="1.0" standalone="no"?>
<!DOCTYPE svg PUBLIC "-//W3C//DTD SVG 20010904//EN"
 "http://www.w3.org/TR/2001/REC-SVG-20010904/DTD/svg10.dtd">
<svg version="1.0" xmlns="http://www.w3.org/2000/svg"
 width="2048.000000pt" height="2048.000000pt" viewBox="0 0 2048.000000 2048.000000"
 preserveAspectRatio="xMidYMid meet">
<metadata>
Created by potrace 1.13, written by Peter Selinger 2001-2015
</metadata>
<g transform="translate(0.000000,2048.000000) scale(0.192120,-0.192120)"
fill="#000000" stroke="none">
<path d="M2198 8650 c-271 -46 -470 -209 -663 -545 -78 -136 -150 -296 -293
-650 -518 -1289 -767 -2034 -846 -2535 -86 -545 8 -871 293 -1014 98 -50 193
-70 491 -106 140 -16 341 -41 445 -55 105 -13 206 -25 226 -25 l37 0 -9 41
c-22 97 -70 142 -175 164 -38 8 -215 33 -394 55 -364 46 -428 58 -502 96 -78
40 -170 136 -196 207 -12 32 -22 65 -22 75 0 9 -7 39 -15 66 -8 28 -15 88 -15
138 0 48 -4 96 -10 106 -25 45 -50 164 -50 238 0 134 65 378 235 889 193 582
630 1748 719 1922 48 93 57 106 171 228 55 60 113 126 130 149 91 124 214 243
296 284 128 64 287 82 459 52 174 -29 1161 -307 2160 -607 665 -199 1067 -329
1345 -435 362 -138 533 -186 865 -242 426 -72 736 -97 1301 -103 495 -6 753 3
1184 38 294 24 559 29 625 11 64 -18 90 -33 90 -52 0 -9 9 -25 20 -35 20 -18
20 -27 18 -1641 l-3 -1624 -43 -42 -42 -43 -133 1 c-152 0 -217 7 -687 74
-464 66 -549 74 -775 67 -207 -6 -310 -23 -484 -79 -183 -58 -224 -82 -594
-336 -164 -112 -436 -233 -667 -295 -271 -73 -769 -167 -1365 -257 -77 -12
-270 -41 -430 -65 -396 -60 -870 -123 -1505 -200 -294 -35 -609 -74 -700 -86
-444 -57 -627 33 -745 371 -33 95 -67 168 -110 234 -36 57 -37 60 -25 100 28
95 82 180 164 262 141 140 246 176 621 214 357 36 1118 129 1160 141 204 58
321 239 301 467 -12 125 -27 167 -516 1396 -176 444 -332 836 -345 872 -48
128 -109 185 -205 192 -47 3 -69 -1 -112 -20 -91 -42 -137 -99 -223 -275 -134
-272 -359 -753 -467 -998 -55 -125 -62 -202 -23 -274 32 -59 69 -85 140 -101
28 -6 177 -44 331 -85 155 -41 295 -75 311 -75 46 0 114 41 135 80 29 56 24
127 -13 186 -93 145 -172 546 -155 782 8 97 29 239 38 248 3 3 31 -57 61 -133
31 -76 170 -417 310 -758 364 -890 387 -950 387 -1027 0 -72 -18 -111 -72
-151 -47 -36 -116 -52 -338 -81 -107 -14 -321 -41 -475 -61 -600 -77 -613 -80
-735 -137 -67 -33 -99 -56 -160 -117 -152 -156 -220 -335 -220 -586 0 -177 46
-388 117 -535 38 -79 59 -107 132 -180 183 -182 370 -229 717 -180 131 18 303
40 894 111 1073 129 2320 321 2809 434 552 126 998 328 1281 578 82 73 306
164 513 209 89 19 131 22 332 22 246 0 290 -5 750 -78 489 -77 737 -97 852
-67 104 26 165 95 200 221 16 61 18 176 21 1665 2 1142 0 1619 -8 1665 -28
161 -104 242 -273 287 -87 24 -341 22 -642 -5 -434 -39 -613 -46 -1090 -46
-556 -1 -823 16 -1265 80 -306 44 -670 127 -787 180 -85 38 -215 87 -408 154
-767 268 -3054 939 -3355 985 -101 16 -225 18 -302 5z m798 -2140 c37 -13 69
-60 110 -165 26 -66 34 -99 34 -150 0 -36 -4 -65 -9 -65 -5 0 -19 13 -30 29
-34 47 -111 93 -144 87 -48 -10 -85 -44 -124 -114 l-38 -67 -3 -249 c-4 -274
5 -342 70 -544 17 -54 28 -108 26 -130 -3 -34 -6 -37 -35 -40 -35 -3 -447 100
-500 125 -37 17 -50 58 -38 119 14 80 452 1007 514 1092 19 25 50 51 74 63 49
22 55 22 93 9z m819 -2456 c-9 -14 -20 -22 -25 -19 -14 9 -13 16 12 55 21 33
23 34 26 12 2 -13 -4 -34 -13 -48z M1594 7816 c-70 -31 -103 -92 -220 -405
-190 -508 -754 -2129 -829 -2380 -27 -91 -32 -159 -14 -194 24 -45 45 -47 89
-11 37 32 63 81 129 246 27 67 142 348 256 623 798 1928 798 1928 793 1991 -5
61 -29 97 -84 124 -47 23 -77 25 -120 6z"/>
</g>
</svg>
