<?xml version="1.0" standalone="no"?>
<!DOCTYPE svg PUBLIC "-//W3C//DTD SVG 20010904//EN"
 "http://www.w3.org/TR/2001/REC-SVG-20010904/DTD/svg10.dtd">
<svg version="1.0" xmlns="http://www.w3.org/2000/svg"
 width="2048.000000pt" height="2048.000000pt" viewBox="0 0 2048.000000 2048.000000"
 preserveAspectRatio="xMidYMid meet">
<metadata>
Created by potrace 1.13, written by Peter Selinger 2001-2015
</metadata>
<g transform="translate(0.000000,2048.000000) scale(0.192120,-0.192120)"
fill="#000000" stroke="none">
<path d="M8250 8655 c-8 -2 -49 -9 -90 -15 -180 -29 -1538 -417 -2475 -706
-625 -194 -1014 -327 -1281 -438 -139 -58 -562 -146 -914 -190 -381 -48 -607
-60 -1125 -60 -479 0 -624 6 -1080 44 -356 30 -459 34 -568 20 -211 -25 -308
-88 -364 -236 -17 -47 -18 -121 -21 -1634 -2 -1101 1 -1610 8 -1668 16 -121
43 -188 101 -244 114 -112 281 -111 1043 7 159 25 357 52 440 61 478 51 880
-44 1178 -277 361 -284 825 -461 1558 -594 776 -141 1496 -247 2515 -370 209
-25 518 -64 686 -85 169 -22 344 -40 390 -40 252 1 474 129 599 346 36 61 53
109 85 229 39 148 48 232 42 387 -7 202 -48 332 -148 465 l-39 52 33 5 c17 3
181 24 362 46 182 22 401 49 488 60 245 31 370 81 479 191 280 285 230 899
-168 2044 -181 518 -613 1620 -738 1880 -203 420 -402 626 -681 701 -54 14
-278 28 -315 19z m235 -250 c150 -32 245 -101 394 -289 49 -61 128 -149 176
-196 131 -128 148 -156 254 -423 276 -692 578 -1527 722 -1997 61 -197 130
-451 128 -473 0 -7 -36 92 -79 218 -244 718 -563 1631 -714 2043 -169 461
-187 495 -271 527 -57 22 -104 14 -150 -26 -40 -36 -59 -87 -51 -138 8 -49
178 -469 751 -1851 81 -195 199 -481 261 -634 63 -154 126 -295 140 -314 37
-48 66 -59 100 -37 26 17 27 17 20 -1 -22 -56 -40 -151 -46 -244 -11 -149 -26
-226 -60 -295 -57 -119 -126 -173 -265 -209 -33 -8 -206 -33 -385 -56 -556
-69 -571 -74 -616 -227 l-15 -52 -62 46 c-76 55 -155 96 -228 117 -63 18 -243
43 -854 121 -460 59 -520 70 -575 107 -61 42 -75 71 -75 156 0 75 3 85 116
367 65 160 216 531 336 825 121 294 237 579 258 633 21 53 42 94 46 90 14 -15
39 -221 39 -325 0 -243 -72 -572 -152 -693 -55 -83 -48 -177 17 -234 57 -50
89 -50 275 -1 91 23 237 61 325 83 186 46 207 53 241 79 58 46 82 156 54 245
-16 48 -171 390 -330 728 -251 532 -274 570 -382 624 -105 53 -199 37 -267
-46 -17 -21 -50 -85 -72 -143 -23 -58 -156 -393 -296 -745 -507 -1273 -539
-1360 -551 -1471 -16 -142 13 -267 83 -358 35 -46 117 -101 188 -126 57 -20
583 -87 1225 -155 319 -34 416 -64 545 -170 62 -50 149 -165 168 -222 10 -32
8 -41 -35 -127 -25 -50 -64 -148 -86 -217 -23 -68 -55 -152 -71 -186 -58 -120
-148 -195 -274 -228 -75 -19 -246 -19 -380 -1 -55 8 -327 42 -605 76 -1076
130 -1733 223 -2610 371 -351 58 -785 160 -985 229 -166 58 -341 151 -554 294
-269 181 -376 234 -586 291 -311 85 -557 85 -1140 0 -400 -58 -517 -73 -663
-84 -119 -9 -192 -2 -192 18 0 5 -13 11 -30 14 -64 13 -60 -98 -60 1666 l0
1600 26 20 c15 12 35 21 45 21 12 0 19 7 19 19 0 10 8 22 18 27 44 19 306 15
622 -10 497 -39 788 -49 1215 -43 472 8 759 29 1134 83 394 57 619 114 966
244 419 157 960 330 1855 594 1036 305 1603 459 1755 479 71 9 185 6 250 -8z
m-701 -1889 c70 -29 124 -123 337 -580 249 -534 249 -533 249 -617 0 -82 -4
-94 -40 -107 -47 -18 -448 -122 -494 -128 -43 -6 -46 -5 -56 21 -11 28 -9 36
40 200 54 184 60 230 60 497 l0 253 -28 60 c-29 59 -90 125 -117 125 -46 0
-117 -59 -176 -145 l-34 -50 -3 85 c-2 67 2 99 19 150 73 217 137 280 243 236z
m-938 -2290 c8 -8 14 -21 14 -30 0 -15 32 -77 77 -148 27 -45 27 -44 7 -52
-22 -9 -77 18 -102 49 -19 23 -22 41 -22 111 0 46 3 84 6 84 3 0 12 -6 20 -14z"/>
</g>
</svg>
