<?xml version="1.0" standalone="no"?>
<!DOCTYPE svg PUBLIC "-//W3C//DTD SVG 20010904//EN"
 "http://www.w3.org/TR/2001/REC-SVG-20010904/DTD/svg10.dtd">
<svg version="1.0" xmlns="http://www.w3.org/2000/svg"
 width="2048.000000pt" height="2048.000000pt" viewBox="0 0 2048.000000 2048.000000"
 preserveAspectRatio="xMidYMid meet">
<metadata>
Created by potrace 1.13, written by Peter Selinger 2001-2015
</metadata>
<g transform="translate(0.000000,2048.000000) scale(0.192120,-0.192120)"
fill="#000000" stroke="none">
<path d="M2198 8650 c-278 -51 -471 -210 -666 -550 -83 -144 -164 -329 -347
-790 -496 -1248 -700 -1864 -784 -2365 -114 -675 42 -1022 494 -1105 96 -17
236 -35 833 -107 72 -9 135 -13 138 -10 9 9 -25 109 -44 131 -24 27 -86 53
-157 65 -33 6 -204 29 -381 51 -176 22 -350 49 -386 58 -127 36 -235 120 -287
225 -17 34 -31 71 -31 82 0 11 -7 42 -15 69 -8 27 -18 95 -21 150 -3 56 -9
110 -14 121 -22 52 -44 177 -43 240 1 39 9 103 18 144 66 314 334 1107 690
2041 253 665 261 681 402 831 43 46 122 139 176 206 54 67 118 140 144 163
159 140 343 184 588 142 206 -36 1136 -297 2275 -639 680 -204 1090 -339 1377
-454 346 -138 819 -227 1498 -281 212 -17 1115 -17 1365 0 102 7 295 22 430
32 272 22 415 25 505 10 76 -12 135 -38 135 -59 0 -9 9 -24 20 -34 20 -17 20
-25 18 -1652 l-3 -1635 -42 -42 -42 -42 -93 -4 c-118 -5 -339 17 -728 74 -497
72 -704 87 -918 63 -135 -14 -289 -50 -407 -94 -169 -63 -209 -87 -489 -284
-247 -174 -535 -294 -904 -375 -537 -119 -1668 -296 -2717 -425 -181 -23 -532
-66 -780 -97 -387 -48 -467 -55 -570 -51 -139 5 -212 26 -296 85 -66 46 -137
134 -166 204 -71 173 -96 225 -139 288 l-48 71 12 47 c7 26 32 88 56 137 84
169 228 282 432 334 22 6 146 22 275 36 529 56 1108 126 1169 141 223 53 347
232 326 472 -12 125 -24 159 -514 1392 -175 443 -332 838 -347 878 -32 82 -92
157 -142 178 -49 21 -121 17 -178 -10 -88 -41 -135 -99 -221 -274 -134 -275
-359 -756 -466 -997 -47 -106 -59 -197 -34 -256 20 -48 73 -97 116 -109 358
-96 655 -170 682 -170 18 0 51 10 72 23 81 46 101 154 45 243 -100 157 -177
577 -151 825 12 111 31 213 38 206 3 -3 51 -119 108 -258 57 -140 176 -432
265 -649 336 -818 375 -919 379 -993 5 -82 -8 -117 -60 -161 -63 -54 -69 -55
-743 -141 -380 -48 -629 -83 -684 -96 -25 -6 -84 -30 -131 -52 -66 -32 -102
-58 -160 -117 -151 -152 -220 -335 -220 -585 0 -177 46 -388 117 -535 38 -79
59 -107 132 -180 98 -98 185 -147 315 -180 106 -27 220 -26 436 4 96 14 272
36 390 50 1166 139 1698 213 2475 342 797 133 1080 200 1424 339 242 97 496
245 646 375 67 59 200 126 337 171 155 50 269 70 453 76 199 7 348 -7 730 -67
551 -86 758 -108 880 -91 177 25 248 107 274 321 7 56 11 609 11 1640 0 1685
1 1641 -54 1734 -48 81 -131 133 -252 158 -82 17 -344 14 -562 -6 -530 -49
-1172 -68 -1587 -47 -732 37 -1313 135 -1685 286 -320 130 -885 314 -1844 600
-659 196 -1619 466 -1782 500 -91 19 -297 28 -366 15z m830 -2169 c56 -56 115
-239 98 -305 l-6 -25 -43 39 c-64 60 -98 74 -139 57 -48 -20 -87 -64 -119
-132 l-29 -60 0 -263 c0 -257 1 -266 29 -385 16 -67 37 -142 45 -166 19 -52
21 -117 4 -127 -21 -13 -65 -5 -298 56 -153 40 -228 64 -237 76 -19 26 -16
106 6 161 40 101 408 882 456 968 72 128 167 171 233 106z M1594 7816 c-53
-23 -96 -87 -147 -215 -146 -369 -722 -2008 -888 -2529 -40 -125 -48 -196 -28
-235 24 -44 45 -47 89 -11 40 35 54 63 175 359 56 138 259 628 450 1090 543
1312 558 1351 553 1411 -5 61 -29 97 -84 124 -47 23 -77 25 -120 6z"/>
</g>
</svg>
