<?xml version="1.0" standalone="no"?>
<!DOCTYPE svg PUBLIC "-//W3C//DTD SVG 20010904//EN"
 "http://www.w3.org/TR/2001/REC-SVG-20010904/DTD/svg10.dtd">
<svg version="1.0" xmlns="http://www.w3.org/2000/svg"
 width="2048.000000pt" height="2048.000000pt" viewBox="0 0 2048.000000 2048.000000"
 preserveAspectRatio="xMidYMid meet">
<metadata>
Created by potrace 1.13, written by Peter Selinger 2001-2015
</metadata>
<g transform="translate(0.000000,2048.000000) scale(0.192120,-0.192120)"
fill="#000000" stroke="none">
<path d="M6570 10275 c-206 -47 -353 -204 -434 -464 -27 -86 -107 -473 -311
-1516 -172 -881 -273 -1347 -351 -1631 -19 -69 -31 -130 -28 -135 7 -11 58 -3
94 16 47 24 103 105 137 199 76 211 141 505 408 1866 220 1122 224 1141 296
1262 50 85 99 134 166 165 65 30 153 42 153 21 0 -10 25 -17 95 -26 156 -20
254 -67 300 -146 l26 -45 -3 -348 -4 -348 -57 -415 c-32 -228 -109 -778 -172
-1222 -63 -444 -115 -840 -115 -880 0 -40 -9 -138 -20 -218 -10 -80 -42 -313
-70 -519 -82 -614 -100 -794 -100 -1025 0 -280 27 -398 124 -544 113 -170 252
-240 423 -212 176 28 356 117 738 364 371 239 556 327 850 400 179 45 288 58
430 53 147 -6 216 -22 324 -75 78 -39 177 -126 226 -200 26 -40 26 -43 23
-179 l-3 -139 -36 -49 c-68 -96 -155 -146 -569 -328 -913 -402 -1331 -660
-1715 -1058 -210 -218 -250 -274 -403 -573 -154 -299 -310 -537 -500 -763
-464 -554 -1129 -865 -1996 -934 -188 -15 -592 -7 -776 16 -1023 125 -1911
592 -2337 1231 -224 337 -370 750 -443 1254 -18 130 -20 190 -20 788 0 592 2
661 20 807 43 335 107 661 177 900 108 368 113 419 113 1074 0 649 -16 888
-120 1852 -46 421 -50 475 -50 703 0 225 2 250 20 285 24 49 110 126 156 141
21 7 39 21 44 35 7 18 21 25 72 34 150 26 276 -31 370 -167 43 -62 62 -127
102 -348 176 -981 332 -1827 362 -1964 33 -150 76 -235 135 -265 36 -19 105
-30 113 -17 7 11 -14 133 -128 743 -133 708 -212 1148 -267 1469 -65 386 -101
488 -213 604 -104 107 -218 157 -372 164 -125 5 -192 -8 -295 -60 -184 -92
-297 -267 -321 -498 -10 -88 -6 -137 56 -685 114 -1024 145 -1413 153 -1945 8
-540 -13 -764 -96 -1035 -212 -691 -304 -1623 -235 -2379 68 -742 275 -1329
624 -1771 83 -105 281 -301 400 -396 928 -740 2386 -1007 3560 -652 362 109
693 280 956 493 186 151 420 402 565 605 145 203 229 346 369 625 104 209 168
312 260 420 152 179 340 340 588 504 280 185 561 330 1117 576 379 168 511
234 597 299 165 125 242 312 205 496 -27 131 -75 215 -186 325 -107 106 -209
167 -357 213 -99 31 -265 51 -359 42 -181 -16 -415 -68 -605 -134 -227 -78
-347 -142 -697 -372 -262 -173 -442 -272 -568 -314 -104 -35 -212 -33 -266 4
-48 33 -78 74 -105 141 -46 112 -58 192 -58 380 1 255 36 542 288 2315 326
2292 348 2493 297 2686 -57 217 -196 356 -416 414 -86 23 -274 28 -355 10z
M3205 7545 c-71 -16 -151 -46 -220 -84 -27 -16 -76 -38 -109 -51 -133 -53
-279 -176 -346 -293 -17 -29 -44 -94 -60 -145 -26 -80 -30 -107 -30 -205 0
-62 4 -148 10 -192 5 -44 32 -294 60 -555 79 -749 121 -1080 185 -1477 51
-311 101 -558 135 -657 94 -278 285 -496 517 -591 176 -71 394 -72 548 -1 l53
24 42 -86 c84 -176 210 -306 375 -388 132 -64 196 -79 350 -78 139 0 206 13
319 61 255 107 435 339 490 631 71 374 35 1526 -90 2927 -8 94 -20 233 -25
310 -14 193 -41 343 -78 421 -58 125 -180 220 -331 259 -101 26 -272 17 -370
-19 -41 -15 -112 -40 -157 -56 -229 -79 -361 -187 -443 -362 -34 -72 -59 -177
-61 -253 -1 -41 -3 -45 -9 -25 -6 17 -7 9 -4 -25 3 -27 -4 -237 -15 -465 -52
-1054 -72 -1669 -70 -2160 l2 -385 -36 -18 c-20 -10 -72 -26 -116 -35 -241
-50 -479 95 -605 370 -47 101 -69 182 -115 414 -70 352 -127 748 -236 1644
-36 294 -77 623 -91 730 -25 193 -25 244 -2 335 14 55 59 145 77 155 17 8 77
19 146 24 22 2 95 22 163 45 219 75 373 78 476 9 85 -56 128 -127 190 -315 40
-120 77 -182 129 -213 29 -18 87 -28 87 -14 0 35 -64 373 -79 417 -86 249
-274 388 -521 386 -41 0 -102 -7 -135 -14z m1805 -383 c63 -30 129 -97 156
-159 13 -29 42 -114 64 -190 46 -153 55 -171 114 -226 l40 -38 4 -462 c7 -762
-18 -1819 -53 -2267 -25 -311 -70 -437 -209 -575 -59 -59 -100 -90 -150 -114
-344 -164 -740 26 -830 399 -21 90 -22 143 -9 760 7 300 15 885 18 1300 8 879
17 1197 40 1290 15 63 70 186 99 223 12 15 32 19 119 22 74 2 132 11 194 28
123 35 125 36 248 33 88 -2 119 -7 155 -24z m-1050 -3677 c0 -14 -4 -25 -10
-25 -11 0 -14 33 -3 43 11 11 13 8 13 -18z M3942 6720 c0 -14 2 -19 5 -12 2 6
2 18 0 25 -3 6 -5 1 -5 -13z"/>
</g>
</svg>
