<?xml version="1.0" standalone="no"?>
<!DOCTYPE svg PUBLIC "-//W3C//DTD SVG 20010904//EN"
 "http://www.w3.org/TR/2001/REC-SVG-20010904/DTD/svg10.dtd">
<svg version="1.0" xmlns="http://www.w3.org/2000/svg"
 width="2048.000000pt" height="2048.000000pt" viewBox="0 0 2048.000000 2048.000000"
 preserveAspectRatio="xMidYMid meet">
<metadata>
Created by potrace 1.13, written by Peter Selinger 2001-2015
</metadata>
<g transform="translate(0.000000,2048.000000) scale(0.192120,-0.192120)"
fill="#000000" stroke="none">
<path d="M6582 10034 c-134 -36 -244 -114 -320 -228 -41 -62 -66 -87 -127
-127 -83 -56 -149 -130 -190 -213 -58 -118 -55 -14 -55 -1873 l0 -1713 -473 0
c-436 0 -478 -1 -542 -19 -39 -11 -78 -23 -88 -27 -18 -7 -19 9 -15 472 2 263
8 486 12 495 4 10 30 21 66 28 75 15 87 22 190 102 125 97 158 112 265 117
112 5 168 -13 289 -92 119 -77 139 -86 189 -86 72 0 77 16 32 107 -67 136
-193 238 -345 278 -72 19 -211 19 -285 -1 -127 -33 -269 -141 -331 -253 -22
-39 -42 -59 -84 -83 -77 -43 -169 -140 -207 -219 -60 -121 -63 -151 -63 -607
l0 -414 -56 -61 c-113 -125 -189 -281 -214 -440 -15 -92 -8 -244 16 -332 22
-86 83 -210 136 -280 l46 -59 -24 -36 c-73 -108 -205 -202 -330 -235 -174 -45
-385 11 -514 138 -106 104 -154 204 -172 361 -11 102 -5 1756 7 1794 6 18 15
22 49 22 55 0 126 36 211 105 39 32 99 71 135 89 57 27 75 31 145 30 110 -1
168 -25 291 -124 119 -95 151 -112 207 -108 41 3 42 4 39 37 -5 67 -67 178
-139 250 -178 178 -434 216 -658 98 -74 -39 -172 -135 -211 -205 -22 -40 -42
-60 -84 -84 -126 -71 -235 -228 -259 -375 -9 -48 -11 -294 -8 -853 3 -882 -2
-822 82 -995 74 -153 208 -292 358 -371 258 -135 514 -134 781 4 73 37 109 65
181 137 50 49 100 103 111 119 l19 29 50 -32 c28 -17 79 -41 115 -53 62 -21
89 -22 510 -27 428 -6 443 -7 417 -24 -62 -40 -182 -154 -258 -245 -345 -412
-549 -990 -561 -1587 -3 -113 0 -134 16 -161 37 -62 119 -84 185 -50 58 30 67
59 74 228 35 796 389 1467 913 1731 132 66 301 107 447 107 72 0 116 22 147
72 36 60 18 136 -41 179 l-34 24 -850 5 -850 5 -60 23 c-154 58 -282 186 -337
337 -26 73 -35 226 -18 308 31 150 155 308 294 375 133 65 86 63 1389 60
l1182 -3 67 -23 c103 -35 107 -40 117 -157 7 -73 19 -129 46 -205 44 -125 57
-167 215 -685 67 -220 138 -467 158 -550 l37 -150 0 -265 c0 -282 -4 -317 -61
-522 -49 -178 -163 -438 -266 -607 -146 -241 -463 -574 -739 -778 -669 -494
-1450 -657 -2299 -478 -365 77 -762 244 -1085 459 -286 189 -551 433 -732 672
-306 405 -498 840 -588 1337 l-25 138 0 2493 0 2493 26 39 c15 21 33 43 41 49
7 6 19 21 26 35 17 34 123 87 193 96 68 8 152 -8 211 -42 54 -31 119 -105 152
-174 l26 -55 6 -1085 c5 -1066 5 -1086 26 -1154 27 -86 71 -135 130 -143 l41
-5 7 133 c3 74 5 620 3 1214 l-3 1080 -22 66 c-112 327 -473 478 -781 327 -85
-42 -196 -150 -239 -233 -68 -130 -63 65 -63 -2546 0 -2003 2 -2385 15 -2502
81 -763 396 -1438 924 -1980 520 -533 1163 -861 1921 -979 198 -30 680 -33
860 -5 320 50 611 145 899 292 947 484 1601 1464 1601 2399 0 204 -44 389
-258 1096 -156 513 -175 568 -268 756 -122 247 -287 424 -396 424 l-28 0 0
1858 0 1857 -28 81 c-80 228 -288 375 -528 373 -44 0 -103 -7 -132 -15z m250
-222 c110 -39 202 -135 239 -248 18 -55 19 -118 19 -1736 0 -1112 3 -1678 10
-1678 6 0 10 -19 10 -42 0 -53 30 -114 83 -171 l42 -45 -125 -6 c-69 -3 -311
-6 -537 -6 l-413 0 1 1803 c1 991 4 1827 7 1857 l7 54 60 12 c85 18 102 26
180 89 95 77 141 106 195 121 63 17 167 15 222 -4z m-2112 -4086 c0 -12 -11
-33 -25 -46 l-25 -23 0 73 0 73 25 -27 c14 -15 25 -37 25 -50z m1249 -1422
c19 -4 31 -13 31 -23 0 -18 -53 -66 -102 -93 -28 -15 -32 -16 -47 -1 -25 25
-42 83 -30 105 8 14 22 18 63 18 29 0 68 -3 85 -6z"/>
</g>
</svg>
