<?xml version="1.0" standalone="no"?>
<!DOCTYPE svg PUBLIC "-//W3C//DTD SVG 20010904//EN"
 "http://www.w3.org/TR/2001/REC-SVG-20010904/DTD/svg10.dtd">
<svg version="1.0" xmlns="http://www.w3.org/2000/svg"
 width="2048.000000pt" height="2048.000000pt" viewBox="0 0 2048.000000 2048.000000"
 preserveAspectRatio="xMidYMid meet">
<metadata>
Created by potrace 1.13, written by Peter Selinger 2001-2015
</metadata>
<g transform="translate(0.000000,2048.000000) scale(0.192120,-0.192120)"
fill="#000000" stroke="none">
<path d="M2165 8643 c-158 -33 -266 -94 -395 -223 -192 -192 -293 -378 -541
-996 -444 -1111 -682 -1795 -783 -2250 -131 -593 -106 -942 84 -1148 97 -104
217 -165 382 -191 51 -8 287 -37 523 -66 237 -28 438 -54 448 -58 15 -5 12
-13 -24 -61 -89 -118 -137 -264 -146 -451 -10 -194 35 -424 114 -589 38 -79
59 -107 132 -180 183 -182 370 -229 716 -180 77 10 347 44 600 75 1184 143
1773 227 2623 376 431 76 617 118 872 201 366 119 678 284 890 471 80 71 312
166 508 207 65 14 152 23 267 27 202 6 330 -6 755 -71 582 -90 798 -108 917
-77 104 26 165 95 200 221 16 61 18 176 21 1665 2 1142 0 1619 -8 1665 -28
161 -104 242 -273 287 -88 24 -342 22 -642 -5 -437 -39 -612 -46 -1090 -46
-558 0 -825 17 -1265 80 -306 44 -670 127 -787 180 -85 38 -215 87 -408 154
-768 268 -3054 939 -3355 985 -119 19 -244 18 -335 -2z m336 -237 c189 -31
1161 -305 2299 -648 646 -194 984 -307 1394 -463 339 -129 806 -214 1461 -265
219 -18 858 -24 1135 -11 140 6 404 23 585 37 485 38 659 28 684 -38 5 -13 16
-30 25 -37 15 -12 16 -156 16 -1598 0 -1737 4 -1622 -61 -1677 l-34 -29 -160
6 c-162 6 -234 15 -720 86 -514 75 -735 79 -1014 19 -223 -48 -397 -127 -607
-276 -304 -217 -463 -292 -824 -392 -281 -78 -644 -152 -990 -204 -58 -8 -215
-34 -350 -56 -369 -61 -1090 -162 -1595 -225 -247 -30 -616 -76 -820 -101
-533 -66 -634 -60 -784 51 -81 60 -120 130 -191 346 -32 98 -66 189 -75 203
-9 14 -23 45 -30 68 -12 41 -11 46 19 103 39 75 134 177 210 226 111 73 203
96 476 124 339 34 1107 125 1174 140 225 49 353 232 332 473 -12 125 -30 176
-514 1392 -175 443 -332 838 -348 878 -31 82 -91 157 -141 178 -49 21 -121 17
-178 -10 -85 -39 -134 -99 -210 -253 -181 -369 -457 -965 -501 -1081 -32 -82
-31 -144 2 -210 32 -64 64 -84 179 -111 50 -12 198 -51 331 -86 132 -36 254
-65 270 -65 47 0 115 40 136 80 30 57 24 125 -16 190 -90 147 -168 538 -152
770 8 112 25 229 36 250 7 13 10 12 16 -5 3 -11 72 -180 151 -375 403 -986
506 -1241 548 -1352 69 -180 64 -256 -21 -326 -60 -50 -75 -52 -739 -137 -658
-84 -726 -96 -835 -157 -30 -17 -77 -48 -105 -70 l-50 -40 -11 44 c-23 91 -71
148 -142 168 -53 15 -193 35 -479 70 -290 35 -388 53 -452 83 -67 31 -175 141
-193 197 -30 88 -47 176 -53 270 -4 52 -10 104 -15 115 -10 25 -40 129 -40
139 0 4 9 2 19 -4 28 -15 36 -13 71 16 40 34 59 72 163 329 47 116 162 397
257 625 295 712 564 1365 665 1615 87 216 96 245 93 291 -5 62 -29 97 -86 125
-88 43 -171 1 -226 -113 -78 -164 -448 -1204 -871 -2448 -46 -135 -84 -240
-84 -235 -2 19 68 280 118 445 135 446 416 1227 715 1989 111 281 142 336 261
461 55 58 138 154 185 214 167 215 307 293 525 295 44 1 119 -5 166 -13z m523
-1897 c30 -23 61 -80 106 -195 27 -67 30 -86 28 -160 l-3 -84 -42 55 c-59 76
-119 118 -158 111 -41 -8 -109 -84 -134 -152 -19 -50 -21 -77 -21 -287 0 -251
12 -331 76 -533 17 -53 24 -97 22 -130 l-3 -49 -41 2 c-39 3 -375 87 -476 119
-56 18 -78 45 -78 94 0 60 17 103 164 419 305 653 335 712 385 759 57 53 130
66 175 31z m834 -2375 c-6 -90 -30 -123 -92 -129 l-37 -4 29 52 c16 29 38 69
50 90 12 21 22 44 22 52 0 8 7 15 16 15 14 0 16 -10 12 -76z"/>
</g>
</svg>
