<?xml version="1.0" standalone="no"?>
<!DOCTYPE svg PUBLIC "-//W3C//DTD SVG 20010904//EN"
 "http://www.w3.org/TR/2001/REC-SVG-20010904/DTD/svg10.dtd">
<svg version="1.0" xmlns="http://www.w3.org/2000/svg"
 width="2048.000000pt" height="2048.000000pt" viewBox="0 0 2048.000000 2048.000000"
 preserveAspectRatio="xMidYMid meet">
<metadata>
Created by potrace 1.13, written by Peter Selinger 2001-2015
</metadata>
<g transform="translate(0.000000,2048.000000) scale(0.192120,-0.192120)"
fill="#000000" stroke="none">
<path d="M6570 10275 c-205 -46 -353 -204 -434 -464 -28 -87 -104 -460 -301
-1466 -177 -905 -290 -1430 -364 -1697 -28 -96 -28 -97 -7 -102 41 -11 106 33
147 98 93 146 152 397 444 1888 229 1172 242 1227 317 1351 72 120 166 184
296 202 47 6 52 5 52 -13 0 -16 9 -20 69 -26 147 -13 270 -72 316 -150 l25
-43 0 -330 c0 -296 -3 -350 -25 -524 -43 -323 -131 -959 -226 -1624 -49 -346
-94 -695 -99 -775 -5 -80 -18 -210 -29 -290 -153 -1129 -151 -1113 -151 -1436
0 -231 2 -269 21 -340 42 -162 156 -319 276 -380 55 -27 65 -29 173 -28 105 0
123 3 200 33 142 54 333 159 599 330 360 232 552 323 817 390 258 65 458 81
613 47 163 -35 317 -135 399 -260 l32 -49 0 -142 0 -142 -32 -48 c-66 -99
-159 -152 -628 -360 -917 -405 -1322 -663 -1730 -1100 -153 -164 -194 -225
-326 -482 -103 -200 -180 -332 -277 -478 -165 -246 -378 -486 -570 -640 -410
-332 -933 -532 -1564 -600 -203 -22 -598 -22 -808 0 -854 89 -1609 406 -2125
892 -337 317 -585 797 -696 1343 -61 304 -57 245 -61 1018 -4 675 -3 721 17
870 47 361 81 522 219 1047 60 229 61 242 61 916 0 741 -11 906 -125 1947 -31
283 -35 346 -35 588 l0 270 29 45 c33 53 100 110 154 132 20 9 37 23 37 32 0
25 48 38 145 39 79 1 97 -2 150 -27 96 -45 174 -133 214 -241 12 -32 37 -147
57 -255 191 -1063 354 -1940 379 -2034 19 -72 45 -124 80 -160 30 -29 95 -52
124 -42 22 7 28 -32 -104 675 -132 706 -226 1227 -283 1560 -56 324 -82 405
-161 510 -109 146 -260 220 -446 220 -319 0 -552 -222 -587 -560 -10 -88 -5
-138 56 -685 114 -1027 145 -1414 153 -1945 8 -540 -13 -764 -96 -1035 -212
-693 -304 -1625 -235 -2379 68 -742 275 -1331 624 -1771 177 -224 464 -468
756 -643 489 -294 1063 -476 1714 -544 186 -19 649 -16 830 6 773 94 1334 341
1802 795 195 188 348 377 504 621 85 132 137 226 244 440 104 209 168 312 260
420 152 179 340 340 588 504 287 189 545 322 1117 576 373 165 477 217 574
283 181 125 267 319 228 512 -27 131 -75 215 -186 325 -77 76 -114 104 -186
141 -161 83 -283 113 -465 112 -233 0 -571 -80 -847 -201 -135 -59 -251 -126
-520 -303 -262 -173 -442 -272 -568 -314 -104 -35 -212 -33 -266 4 -48 34 -78
74 -106 143 -45 111 -57 190 -57 378 1 255 37 549 289 2319 324 2278 347 2488
296 2682 -56 217 -196 356 -416 414 -86 23 -274 28 -355 10z M3205 7545 c-71
-16 -151 -46 -220 -84 -27 -16 -76 -38 -109 -51 -133 -53 -279 -176 -346 -293
-17 -29 -44 -94 -60 -145 -26 -80 -30 -107 -30 -205 0 -62 4 -148 10 -192 5
-44 32 -294 60 -555 121 -1140 230 -1869 320 -2136 94 -276 285 -494 517 -589
176 -71 394 -72 549 -1 l54 25 40 -87 c51 -109 135 -219 220 -289 75 -63 216
-135 310 -160 90 -24 300 -24 390 1 249 68 431 219 539 446 94 195 106 311
106 970 -1 608 -23 1018 -111 2065 -14 165 -30 361 -35 435 -13 187 -42 338
-78 416 -58 125 -180 220 -331 259 -100 26 -272 17 -370 -19 -41 -15 -111 -40
-155 -56 -120 -42 -153 -58 -227 -107 -126 -83 -219 -215 -258 -366 -19 -77
-31 -251 -65 -977 -41 -878 -56 -1379 -54 -1835 l2 -390 -36 -18 c-20 -10 -72
-26 -116 -35 -284 -59 -553 150 -660 513 -76 260 -170 869 -301 1955 -33 278
-72 591 -86 695 -22 163 -24 200 -15 262 13 87 52 188 89 231 26 31 32 32 117
38 60 4 125 17 195 39 149 47 218 59 314 53 104 -7 161 -31 225 -97 54 -56 80
-104 126 -241 56 -165 96 -224 164 -236 20 -4 40 -12 44 -18 5 -6 6 3 3 19 -3
17 -17 98 -31 181 -38 231 -85 342 -186 443 -128 129 -319 179 -514 136z
m1727 -349 c90 -10 183 -74 233 -160 13 -23 47 -113 76 -200 47 -145 56 -164
98 -209 l46 -49 -1 -857 c-1 -1065 -27 -1842 -69 -2093 -29 -170 -92 -295
-203 -399 -326 -308 -865 -139 -966 301 -21 92 -22 148 -8 760 6 300 14 883
17 1295 7 868 17 1202 39 1292 19 77 63 174 105 231 l31 42 100 0 c66 0 129 7
187 21 96 23 204 37 243 33 14 -2 46 -5 72 -8z M3942 6720 c0 -14 2 -19 5 -12
2 6 2 18 0 25 -3 6 -5 1 -5 -13z M3951 6664 c0 -11 3 -14 6 -6 3 7 2 16 -1 19
-3 4 -6 -2 -5 -13z"/>
</g>
</svg>
