<?xml version="1.0" standalone="no"?>
<!DOCTYPE svg PUBLIC "-//W3C//DTD SVG 20010904//EN"
 "http://www.w3.org/TR/2001/REC-SVG-20010904/DTD/svg10.dtd">
<svg version="1.0" xmlns="http://www.w3.org/2000/svg"
 width="2048.000000pt" height="2048.000000pt" viewBox="0 0 2048.000000 2048.000000"
 preserveAspectRatio="xMidYMid meet">
<metadata>
Created by potrace 1.13, written by Peter Selinger 2001-2015
</metadata>
<g transform="translate(0.000000,2048.000000) scale(0.192120,-0.192120)"
fill="#000000" stroke="none">
<path d="M2165 8643 c-306 -65 -538 -303 -750 -772 -87 -194 -356 -868 -532
-1336 -554 -1472 -654 -2183 -353 -2509 97 -104 217 -165 382 -191 51 -8 287
-37 523 -66 237 -28 438 -54 448 -58 15 -5 12 -13 -24 -61 -89 -118 -137 -264
-146 -451 -10 -194 35 -424 114 -589 38 -79 59 -107 132 -180 183 -182 370
-229 716 -180 77 10 347 44 600 75 1184 143 1773 227 2623 376 431 76 617 118
872 201 366 119 678 284 890 471 80 71 312 166 508 207 65 14 152 23 267 27
202 6 329 -6 755 -71 580 -89 799 -108 917 -78 104 27 165 96 200 222 16 61
18 176 21 1665 2 1142 0 1619 -8 1665 -28 161 -104 242 -273 287 -88 24 -342
22 -642 -5 -434 -39 -612 -46 -1085 -46 -559 0 -832 17 -1270 80 -306 44 -670
127 -787 180 -85 38 -215 87 -408 154 -768 268 -3054 939 -3355 985 -119 19
-244 18 -335 -2z m545 -301 c409 -105 1120 -309 1950 -558 687 -207 1046 -324
1395 -454 399 -149 652 -210 1115 -269 653 -84 1335 -90 2220 -20 433 34 639
26 649 -26 2 -11 12 -26 22 -33 18 -13 19 -58 19 -1606 l0 -1593 -27 -36 c-33
-43 -67 -57 -140 -57 -88 0 -330 28 -648 75 -467 69 -550 78 -765 78 -226 -1
-356 -19 -542 -79 -165 -52 -291 -119 -483 -254 -271 -190 -434 -267 -773
-364 -338 -97 -498 -130 -1147 -235 -733 -120 -1284 -197 -2105 -296 -256 -31
-570 -69 -697 -85 -128 -17 -259 -30 -290 -30 -140 1 -276 53 -355 138 -57 60
-87 119 -122 237 -34 115 -87 274 -115 348 l-22 58 36 59 c42 68 145 168 218
210 78 45 192 78 314 90 453 46 1227 138 1307 155 235 51 364 249 328 503 -16
116 -60 233 -544 1447 -99 248 -216 544 -261 658 -86 223 -125 284 -194 313
-49 21 -121 17 -178 -10 -86 -40 -134 -98 -215 -263 -158 -321 -455 -962 -496
-1071 -31 -82 -31 -144 1 -208 32 -64 70 -88 180 -114 50 -11 198 -50 331 -85
132 -36 254 -65 270 -65 47 0 115 40 136 80 29 56 24 127 -13 186 -92 144
-171 537 -155 774 8 112 25 229 36 250 7 13 10 12 16 -5 7 -21 125 -311 441
-1085 288 -705 303 -746 303 -822 0 -72 -19 -111 -72 -150 -62 -47 -59 -46
-618 -118 -501 -64 -741 -98 -799 -112 -64 -15 -177 -69 -233 -112 -26 -20
-51 -36 -56 -36 -5 0 -15 21 -22 48 -25 99 -70 141 -181 166 -35 8 -224 35
-419 60 -359 46 -462 67 -516 108 -61 45 -107 95 -129 139 -31 60 -65 223 -65
310 0 37 -5 81 -11 96 -24 59 -28 69 -38 101 -9 31 -9 32 13 26 31 -7 80 35
110 95 13 25 62 141 109 256 47 116 162 397 257 625 662 1596 760 1841 760
1891 0 80 -74 159 -148 159 -29 0 -90 -26 -116 -48 -52 -45 36 61 119 143 50
50 116 124 148 167 101 134 202 226 295 265 81 35 135 43 277 39 130 -3 154
-7 335 -54z m-1309 -849 c-12 -20 -14 -14 -5 12 4 9 9 14 11 11 3 -2 0 -13 -6
-23z m-100 -274 c-153 -420 -631 -1794 -702 -2016 -12 -40 -25 -71 -27 -68
-12 11 149 531 283 915 155 443 523 1425 532 1417 1 -2 -37 -114 -86 -248z
m1724 -711 c28 -22 88 -139 119 -231 16 -48 23 -197 9 -196 -5 0 -25 22 -46
50 -44 57 -111 109 -141 109 -46 0 -92 -47 -136 -136 l-30 -62 0 -238 c0 -258
11 -337 76 -540 17 -53 24 -97 22 -130 l-3 -49 -41 2 c-44 3 -482 116 -514
133 -40 21 -50 77 -29 154 16 60 411 902 477 1020 19 32 46 70 60 83 58 55
131 68 177 31z m833 -2373 c-5 -83 -26 -117 -75 -130 -42 -10 -48 8 -21 57 14
24 34 60 46 81 12 21 22 44 22 52 0 8 7 15 16 15 14 0 16 -10 12 -75z"/>
</g>
</svg>
