<?xml version="1.0" standalone="no"?>
<!DOCTYPE svg PUBLIC "-//W3C//DTD SVG 20010904//EN"
 "http://www.w3.org/TR/2001/REC-SVG-20010904/DTD/svg10.dtd">
<svg version="1.0" xmlns="http://www.w3.org/2000/svg"
 width="2048.000000pt" height="2048.000000pt" viewBox="0 0 2048.000000 2048.000000"
 preserveAspectRatio="xMidYMid meet">
<metadata>
Created by potrace 1.13, written by Peter Selinger 2001-2015
</metadata>
<g transform="translate(0.000000,2048.000000) scale(0.192120,-0.192120)"
fill="#000000" stroke="none">
<path d="M6590 9594 c-97 -25 -180 -74 -255 -149 -64 -64 -83 -95 -214 -338
l-143 -268 30 -57 c26 -51 493 -1320 538 -1464 l17 -57 -45 -50 c-92 -102 -96
-83 235 -988 114 -309 223 -597 244 -640 28 -58 59 -101 122 -166 l84 -87
-558 2 -559 3 -513 1410 c-573 1576 -599 1649 -607 1722 l-7 53 56 24 c78 35
114 65 185 156 98 125 180 170 310 170 75 0 111 -9 235 -57 69 -27 100 -34
132 -30 47 5 93 30 93 51 0 26 -71 106 -134 151 -214 152 -501 136 -692 -38
-67 -60 -126 -147 -150 -219 -10 -31 -33 -68 -61 -97 -114 -118 -174 -308
-144 -463 5 -32 121 -362 257 -734 220 -605 245 -681 236 -708 -5 -17 -111
-310 -235 -651 -124 -341 -239 -660 -256 -710 l-32 -90 -83 -44 c-108 -56
-182 -114 -251 -198 -146 -175 -213 -365 -201 -564 11 -173 66 -335 158 -456
l47 -63 -45 -59 c-164 -218 -438 -287 -679 -172 -144 68 -248 189 -298 346
l-22 70 1 905 c1 918 4 1004 38 1015 6 2 34 5 61 7 28 3 76 16 107 31 31 15
60 27 63 27 4 0 32 15 64 34 91 53 152 69 240 64 131 -8 250 -78 301 -179 41
-80 44 -101 51 -409 4 -168 10 -323 14 -345 13 -66 66 -121 137 -138 l26 -7 7
123 c4 67 5 257 3 422 -5 347 -11 379 -99 509 -156 234 -466 314 -713 183 -34
-17 -92 -62 -131 -99 -38 -37 -99 -85 -134 -105 -88 -52 -198 -172 -245 -266
-66 -135 -66 -126 -66 -982 0 -849 -1 -852 -62 -975 -44 -88 -143 -185 -230
-228 -256 -125 -573 -51 -721 168 -16 25 -27 42 -22 38 15 -14 95 122 95 162
0 16 4 32 10 35 6 4 10 221 10 619 0 678 -1 669 65 772 60 93 144 141 266 151
99 8 189 -22 312 -105 83 -56 106 -66 150 -70 36 -2 58 1 72 11 18 14 19 18 6
54 -48 138 -186 262 -346 309 -86 25 -258 23 -345 -5 -162 -51 -289 -178 -345
-344 l-25 -76 0 -948 c0 -567 4 -1003 10 -1084 83 -1065 658 -2009 1572 -2582
651 -408 1499 -582 2213 -456 579 103 1122 384 1553 804 80 77 181 183 224
235 415 494 648 1082 648 1635 0 119 -24 270 -76 480 -33 132 -317 1071 -350
1157 -33 87 -150 265 -228 347 -34 35 -92 87 -131 116 -130 97 -127 90 -453
985 -160 437 -309 844 -331 904 l-41 109 65 171 c230 610 586 1605 596 1663
26 165 -33 343 -156 467 -135 137 -347 197 -525 150z m278 -238 c69 -35 132
-102 171 -180 27 -56 31 -73 31 -148 0 -100 -7 -123 -173 -580 -64 -174 -123
-351 -132 -393 -8 -42 -22 -152 -30 -243 -8 -92 -15 -169 -15 -172 -3 -21
-520 1382 -520 1410 0 5 26 23 59 39 64 33 95 61 184 164 58 66 123 110 192
128 59 16 178 3 233 -25z m-1409 -3059 c227 -620 351 -960 351 -963 0 -1 -208
-4 -462 -7 -255 -2 -474 -7 -488 -12 -18 -5 -3 15 56 76 134 138 167 201 279
532 79 232 101 339 117 561 l12 169 18 -42 c10 -23 63 -165 117 -314z m1953
-1266 c34 -13 39 -19 58 -85 12 -39 46 -118 74 -176 81 -160 105 -230 251
-710 222 -729 229 -763 222 -1095 -4 -224 -7 -248 -35 -365 -86 -351 -251
-692 -459 -950 -78 -96 -373 -385 -483 -474 -306 -244 -675 -433 -1040 -530
-256 -68 -474 -91 -774 -83 -294 8 -512 42 -791 122 -484 140 -954 413 -1326
770 -250 241 -487 582 -638 920 -95 213 -147 381 -236 760 -19 80 -43 147 -90
244 -36 73 -65 137 -65 141 0 5 26 -7 57 -26 122 -73 244 -104 418 -104 186 0
332 43 471 138 57 38 172 151 206 202 l17 25 22 -30 c43 -58 148 -155 217
-200 152 -98 304 -139 482 -132 125 5 195 21 304 69 128 55 190 104 312 241
l61 68 64 -35 c123 -68 153 -71 627 -71 l423 0 -28 -23 c-203 -169 -352 -350
-491 -597 -196 -348 -316 -805 -324 -1235 -3 -151 3 -173 65 -210 57 -35 124
-22 177 34 20 22 25 39 27 94 21 465 91 773 248 1097 207 426 520 714 883 811
31 8 114 19 183 23 142 9 179 25 205 87 26 62 13 114 -41 164 l-27 25 -846 5
c-843 5 -847 5 -912 27 -174 60 -319 214 -365 388 -25 97 -20 226 13 320 16
44 40 98 55 120 75 111 205 206 328 239 78 21 2444 18 2501 -3z m-4136 -1085
c10 -41 1 -69 -23 -71 -27 -2 -35 17 -27 61 8 41 40 48 50 10z m2713 -210 l24
-13 -38 -37 c-43 -42 -107 -78 -121 -68 -11 9 -44 78 -44 95 0 27 25 37 90 37
36 -1 76 -7 89 -14z"/>
</g>
</svg>
