<?xml version="1.0" standalone="no"?>
<!DOCTYPE svg PUBLIC "-//W3C//DTD SVG 20010904//EN"
 "http://www.w3.org/TR/2001/REC-SVG-20010904/DTD/svg10.dtd">
<svg version="1.0" xmlns="http://www.w3.org/2000/svg"
 width="2048.000000pt" height="2048.000000pt" viewBox="0 0 2048.000000 2048.000000"
 preserveAspectRatio="xMidYMid meet">
<metadata>
Created by potrace 1.13, written by Peter Selinger 2001-2015
</metadata>
<g transform="translate(0.000000,2048.000000) scale(0.192120,-0.192120)"
fill="#000000" stroke="none">
<path d="M5005 10314 c-16 -2 -86 -9 -155 -15 -384 -33 -870 -151 -1254 -304
-806 -320 -1515 -859 -2036 -1550 -311 -413 -540 -849 -706 -1340 -178 -532
-253 -1030 -241 -1605 6 -276 22 -446 62 -687 156 -921 583 -1777 1223 -2452
l79 -84 7 -96 c22 -322 111 -642 245 -883 89 -160 178 -276 326 -423 110 -111
168 -159 270 -227 333 -223 712 -332 1090 -315 162 8 203 15 768 137 494 107
531 118 653 205 70 51 121 106 155 169 l22 43 131 6 c337 16 764 96 1126 213
724 232 1356 619 1895 1159 787 788 1242 1750 1367 2890 17 159 17 728 0 895
-117 1118 -583 2108 -1362 2888 -797 799 -1826 1276 -2965 1372 -109 9 -628
12 -700 4z m600 -204 c742 -46 1425 -257 2050 -633 307 -184 511 -330 730
-522 162 -142 415 -410 415 -440 0 -6 88 -125 195 -262 158 -204 193 -253 251
-349 89 -150 230 -439 302 -619 136 -339 262 -819 262 -993 0 -37 7 -130 15
-207 11 -102 15 -261 15 -585 0 -423 -1 -453 -24 -600 -132 -836 -480 -1595
-1029 -2239 -611 -716 -1429 -1224 -2338 -1450 -184 -46 -385 -84 -534 -101
-55 -6 -114 -18 -132 -26 -17 -8 -38 -14 -47 -14 -21 0 -79 -36 -149 -94 l-55
-44 -4 87 c-3 72 -9 95 -30 132 -26 43 -75 84 -127 105 -22 9 -20 12 35 32
117 43 211 142 251 262 27 81 25 230 -3 291 -31 68 -88 125 -155 157 l-58 28
65 43 c183 120 264 364 181 545 -31 68 -116 160 -186 201 -28 17 -51 33 -51
36 0 3 51 17 113 31 413 92 1470 354 1517 376 76 36 172 132 194 197 49 146
11 329 -89 430 -64 63 -127 88 -235 93 -93 4 -108 1 -660 -128 -311 -72 -747
-173 -970 -225 -223 -52 -610 -142 -860 -200 -621 -145 -588 -138 -636 -123
-35 12 -39 17 -42 49 -3 33 5 47 77 133 171 206 236 393 235 681 -1 283 -79
600 -196 800 -158 269 -373 415 -592 403 -98 -5 -146 -28 -203 -92 -76 -87
-87 -209 -35 -387 46 -156 63 -251 69 -384 10 -214 -31 -399 -124 -565 -52
-92 -119 -164 -392 -420 -313 -293 -488 -539 -575 -805 -27 -80 -66 -279 -66
-338 -1 -24 -13 -2 -49 88 -87 217 -128 291 -253 456 -364 484 -656 1137 -782
1751 -63 307 -66 349 -66 935 0 578 2 607 61 903 93 470 273 941 528 1378 244
420 621 868 991 1177 455 381 1060 703 1631 869 346 100 651 152 1049 179 109
8 368 6 515 -3z m-2156 -4969 c114 -35 216 -121 300 -250 39 -61 96 -187 112
-246 40 -155 40 -152 37 -470 l-4 -310 -28 -64 c-15 -35 -53 -105 -85 -155
-32 -50 -72 -119 -90 -153 -55 -111 -36 -207 60 -303 99 -99 149 -97 729 39
239 56 559 131 710 166 151 35 442 103 645 150 204 47 449 106 545 130 389 98
560 119 652 78 25 -12 51 -30 57 -41 6 -12 11 -58 11 -104 0 -163 -24 -179
-405 -272 -143 -35 -438 -107 -655 -160 -217 -53 -421 -107 -452 -120 -85 -35
-153 -89 -189 -152 -30 -53 -31 -57 -19 -100 7 -24 41 -88 76 -141 l64 -98 0
-116 0 -116 -51 -79 c-136 -208 -138 -225 -36 -386 l49 -78 -4 -113 -3 -114
-60 -76 c-87 -111 -124 -166 -132 -195 -6 -27 11 -109 33 -151 17 -32 18 -128
1 -157 -17 -30 -114 -112 -162 -136 -74 -38 -150 -59 -540 -143 -557 -120
-550 -119 -770 -119 -158 0 -209 3 -303 22 -230 46 -431 128 -614 251 -230
154 -366 301 -503 542 -155 271 -231 601 -241 1055 -5 175 -4 184 21 249 87
232 202 373 687 844 123 120 202 225 263 349 98 202 115 280 115 554 0 201 -2
227 -27 340 -21 91 -28 150 -28 228 l0 105 35 17 c46 23 123 23 199 -1z M3720
9199 c-237 -27 -469 -84 -695 -170 -151 -57 -197 -89 -226 -154 -22 -48 -24
-133 -5 -179 21 -49 81 -112 132 -136 72 -35 140 -31 264 18 301 117 538 162
846 162 302 0 546 -47 800 -156 119 -50 189 -57 260 -25 128 58 168 228 80
344 -83 110 -494 249 -865 292 -137 16 -465 18 -591 4z M6923 8084 c-223 -27
-535 -103 -643 -157 -84 -42 -135 -155 -111 -244 27 -99 104 -171 206 -193 54
-11 49 -12 270 53 66 19 138 39 160 42 l40 8 -61 -45 c-109 -81 -201 -228
-245 -393 -32 -115 -32 -335 0 -450 84 -309 308 -510 566 -509 214 1 401 139
509 376 56 122 70 194 70 358 1 174 -13 239 -85 388 -41 84 -64 117 -122 176
-44 45 -96 86 -132 104 l-60 31 70 0 c86 1 247 -20 378 -49 151 -33 299 -85
442 -155 149 -73 185 -82 255 -65 182 44 234 258 94 394 -93 90 -470 237 -760
295 -249 51 -596 65 -841 35z m345 -250 c33 -9 27 -30 -29 -108 -68 -92 -73
-131 -31 -213 16 -32 44 -79 61 -103 169 -239 156 -201 156 -475 l0 -230 -33
-60 c-45 -79 -103 -139 -166 -167 -71 -32 -191 -31 -257 1 -71 34 -123 84
-166 159 l-38 67 -3 222 -3 221 74 144 c41 78 80 160 87 181 26 82 11 132 -66
224 -24 28 -44 56 -44 62 0 6 -5 11 -12 11 -8 0 -8 5 3 15 19 20 98 34 250 44
169 11 191 12 217 5z M3816 7935 c-340 -120 -519 -575 -387 -986 105 -326 388
-516 664 -444 218 57 396 268 451 537 20 98 21 275 1 368 -54 256 -210 454
-414 526 -93 33 -220 33 -315 -1z m241 -259 c93 -25 169 -88 217 -180 26 -48
26 -52 26 -266 l0 -217 -32 -64 c-42 -84 -118 -160 -182 -182 -28 -10 -80 -17
-120 -17 -127 0 -231 70 -296 196 l-35 69 -3 203 c-3 197 -2 204 21 256 46
100 131 174 230 201 67 18 110 18 174 1z M4821 4959 c-116 -10 -323 -45 -391
-65 -169 -50 -216 -260 -86 -387 82 -79 147 -88 356 -48 155 29 480 40 641 22
330 -38 664 -157 916 -325 121 -80 175 -96 257 -72 105 31 160 105 160 216 0
109 -40 164 -194 263 -471 303 -1078 447 -1659 396z"/>
</g>
</svg>
