<?xml version="1.0" standalone="no"?>
<!DOCTYPE svg PUBLIC "-//W3C//DTD SVG 20010904//EN"
 "http://www.w3.org/TR/2001/REC-SVG-20010904/DTD/svg10.dtd">
<svg version="1.0" xmlns="http://www.w3.org/2000/svg"
 width="2048.000000pt" height="2048.000000pt" viewBox="0 0 2048.000000 2048.000000"
 preserveAspectRatio="xMidYMid meet">
<metadata>
Created by potrace 1.13, written by Peter Selinger 2001-2015
</metadata>
<g transform="translate(0.000000,2048.000000) scale(0.192120,-0.192120)"
fill="#000000" stroke="none">
<path d="M5015 10320 c-628 -51 -1201 -214 -1742 -495 -709 -368 -1338 -961
-1751 -1647 -334 -557 -541 -1176 -614 -1833 -20 -188 -17 -782 5 -965 36
-287 100 -587 178 -827 50 -156 137 -381 150 -389 18 -11 39 18 39 52 0 18
-14 68 -31 111 -59 149 -69 207 -69 417 0 172 -4 208 -32 361 l-32 170 -3 565
c-4 484 -2 581 12 680 96 675 377 1347 795 1900 653 865 1591 1446 2640 1634
296 53 389 60 770 60 425 0 599 -17 945 -95 1000 -226 1881 -809 2495 -1653
36 -48 100 -135 142 -192 128 -171 222 -343 338 -614 68 -158 160 -425 160
-464 0 -14 13 -80 29 -148 102 -430 131 -695 131 -1180 0 -354 -8 -448 -61
-726 -25 -131 -29 -178 -29 -317 0 -191 -6 -230 -60 -372 -43 -116 -49 -162
-23 -188 15 -16 17 -15 29 7 82 156 210 575 268 875 59 303 70 438 71 833 0
290 -4 394 -18 505 -66 529 -196 976 -411 1420 -188 388 -391 696 -656 998
-750 855 -1751 1377 -2881 1502 -170 19 -627 27 -784 15z M3775 8100 c-93 -15
-223 -58 -305 -102 -223 -118 -457 -374 -596 -649 -61 -123 -57 -177 15 -226
43 -29 67 -29 122 2 180 103 347 164 544 200 138 26 470 31 618 11 226 -32
425 -96 567 -184 100 -62 146 -64 196 -10 50 55 48 102 -11 214 -202 386 -495
649 -806 724 -98 24 -259 33 -344 20z m367 -307 c151 -52 336 -182 326 -230
-4 -22 -33 -21 -198 10 -98 18 -152 21 -365 22 -220 0 -265 -3 -375 -23 -161
-30 -194 -32 -198 -10 -8 41 138 155 270 210 111 47 177 58 323 54 114 -2 141
-7 217 -33z M6836 8100 c-310 -49 -580 -240 -796 -564 -84 -125 -153 -263
-153 -305 0 -52 26 -95 69 -116 46 -22 77 -16 150 31 116 74 284 135 484 176
101 20 144 23 360 23 257 0 309 -5 494 -52 129 -32 243 -77 354 -141 49 -29
100 -52 113 -52 57 0 119 66 119 127 0 58 -119 269 -235 418 -132 169 -319
321 -477 387 -148 62 -343 90 -482 68z m282 -286 c42 -9 115 -33 162 -55 88
-41 223 -137 241 -171 14 -25 -3 -46 -34 -42 -12 2 -80 14 -152 26 -111 19
-166 23 -380 23 -219 0 -266 -3 -375 -23 -136 -26 -210 -32 -210 -19 0 48 187
184 320 232 126 46 292 57 428 29z M3183 5875 c-77 -33 -95 -131 -42 -231 130
-247 404 -589 636 -796 374 -332 765 -526 1218 -605 141 -24 529 -24 670 0
505 88 940 321 1331 713 194 195 419 490 523 688 54 102 35 199 -45 232 -49
20 -73 11 -170 -68 -299 -240 -723 -473 -1094 -600 -665 -228 -1277 -204
-1956 75 -293 120 -667 338 -895 523 -72 58 -116 85 -137 84 -4 -1 -22 -7 -39
-15z m739 -721 c342 -173 667 -281 1023 -341 172 -28 622 -26 799 5 329 57
624 155 949 314 203 100 220 101 148 11 -121 -151 -387 -350 -622 -466 -577
-284 -1271 -273 -1837 29 -250 133 -548 373 -611 492 -19 36 9 28 151 -44z
M1419 4777 c-108 -40 -189 -150 -189 -257 0 -69 27 -117 102 -184 66 -58 1419
-1168 1452 -1192 19 -13 17 -16 -30 -66 -27 -29 -65 -72 -85 -95 l-36 -43 -39
34 c-21 18 -322 266 -669 550 -346 284 -687 564 -756 621 -153 126 -182 144
-248 152 -68 8 -128 -16 -185 -73 -90 -89 -114 -196 -65 -285 13 -23 56 -70
94 -103 63 -55 1283 -1057 1477 -1214 l77 -62 -55 -72 c-30 -39 -58 -78 -63
-86 -11 -19 71 -84 -720 568 -364 300 -685 557 -712 573 -93 50 -182 34 -263
-46 -118 -119 -122 -252 -9 -358 32 -30 758 -628 1310 -1079 l151 -124 -55
-110 c-30 -61 -57 -113 -58 -114 -3 -3 -446 357 -930 757 -165 136 -208 161
-281 161 -70 0 -95 -11 -156 -67 -111 -104 -128 -241 -41 -338 10 -12 371
-311 803 -665 432 -355 852 -700 934 -767 176 -145 275 -212 412 -281 652
-327 1450 -198 1965 317 151 152 287 353 365 543 l37 88 106 -8 c122 -8 387
-9 544 -2 l109 5 23 -60 c81 -216 260 -469 447 -634 428 -376 1007 -516 1553
-376 204 52 343 114 520 229 44 29 411 324 815 656 404 332 823 675 930 763
107 87 206 171 218 186 64 71 78 162 38 246 -25 53 -108 139 -151 155 -47 18
-128 12 -176 -13 -24 -12 -271 -209 -548 -437 -603 -497 -561 -463 -565 -459
-2 2 -28 54 -58 114 l-56 110 451 370 c248 204 568 466 712 583 143 118 277
230 298 250 109 104 110 225 3 349 -53 61 -113 87 -187 80 -33 -3 -75 -14 -94
-26 -19 -11 -334 -267 -700 -568 -706 -580 -715 -587 -718 -582 -2 2 -29 40
-61 83 -40 54 -56 83 -50 92 5 7 342 285 749 619 407 333 768 631 803 661 127
113 141 215 47 343 -31 42 -58 66 -96 85 -108 54 -170 33 -351 -117 -74 -62
-380 -312 -679 -557 -298 -245 -601 -493 -671 -552 l-129 -106 -84 91 -84 92
42 37 c23 20 350 289 727 598 377 308 702 578 723 598 54 51 77 101 77 164 -1
92 -58 182 -149 236 -59 34 -136 36 -199 3 -24 -12 -170 -126 -325 -254 -1042
-859 -1516 -1247 -1560 -1279 -29 -21 -74 -43 -102 -50 -27 -7 -51 -13 -53
-14 -2 -1 16 -29 40 -62 93 -126 169 -305 210 -495 28 -131 30 -393 5 -532
-52 -282 -164 -557 -326 -806 -34 -51 -61 -99 -61 -106 0 -24 39 -53 70 -53
57 0 86 26 164 143 187 282 300 571 336 861 17 135 8 391 -19 518 -39 181
-118 384 -202 521 -17 27 -27 53 -22 57 4 5 44 10 88 12 103 5 157 30 292 136
56 44 103 77 105 72 2 -4 293 230 648 521 354 292 666 544 692 560 52 34 121
49 133 29 4 -6 4 -27 1 -45 -5 -27 -28 -53 -109 -126 -137 -122 -93 -86 -622
-519 -529 -434 -632 -527 -670 -613 -38 -87 -35 -145 14 -227 45 -75 115 -144
169 -167 77 -32 181 8 344 133 31 24 64 44 73 44 9 0 201 152 428 338 227 186
444 363 482 394 65 52 161 108 185 108 42 0 -35 -81 -225 -237 -66 -54 -129
-106 -140 -115 -11 -9 -76 -63 -145 -119 -69 -56 -127 -104 -130 -108 -3 -3
-21 -18 -40 -33 -19 -15 -47 -37 -62 -50 -15 -13 -46 -39 -70 -58 -102 -82
-387 -378 -433 -448 -66 -102 -71 -157 -24 -249 39 -76 135 -179 194 -208 76
-36 160 -13 305 85 30 20 64 40 75 43 11 3 31 8 43 12 21 6 23 5 14 -12 -6
-11 -57 -68 -113 -129 -161 -172 -206 -252 -196 -351 15 -142 192 -343 303
-343 45 0 150 49 242 112 25 17 56 32 69 34 13 1 31 8 39 15 8 6 17 9 20 6 10
-10 -91 -110 -236 -235 -74 -64 -137 -119 -140 -123 -11 -13 -261 -209 -306
-239 -27 -19 -103 -75 -169 -125 -163 -124 -254 -184 -360 -237 -493 -247
-1076 -214 -1538 88 -215 140 -348 288 -482 534 -31 58 -63 112 -70 120 -25
31 -83 147 -99 200 -13 44 -16 108 -16 360 0 276 2 312 20 380 75 273 184 454
474 789 212 243 229 265 656 875 214 305 234 326 326 326 76 0 88 -13 82 -93
-5 -61 -17 -89 -163 -374 -87 -169 -182 -356 -211 -414 -118 -238 -113 -331
18 -363 25 -6 26 -5 21 34 -4 31 1 52 27 102 18 35 136 261 262 502 141 270
235 462 244 498 26 100 1 183 -76 252 -125 113 -292 114 -397 4 -17 -18 -143
-195 -280 -393 -399 -576 -488 -695 -717 -956 -70 -79 -154 -184 -187 -234
-123 -183 -214 -406 -261 -637 -30 -149 -32 -461 -4 -603 18 -92 51 -231 62
-260 4 -9 -29 8 -74 39 -107 72 -156 86 -306 86 -138 0 -176 -13 -294 -97 -41
-29 -63 -40 -59 -29 12 30 45 168 62 256 9 47 19 150 22 230 11 286 -41 540
-162 797 -84 176 -167 295 -342 489 -167 184 -324 395 -732 986 -116 169 -228
321 -248 339 -113 98 -262 92 -383 -18 -24 -21 -52 -58 -63 -83 -26 -57 -26
-148 -1 -210 19 -44 278 -547 437 -845 71 -135 79 -153 74 -192 -5 -47 -2 -49
46 -29 84 35 88 126 12 296 -26 57 -124 253 -218 435 -164 316 -172 333 -175
397 -4 61 -2 67 19 79 37 19 113 15 152 -10 41 -25 87 -83 252 -321 419 -603
483 -687 650 -860 285 -295 413 -507 489 -811 25 -97 26 -116 26 -363 0 -348
2 -342 -173 -646 -96 -169 -148 -238 -266 -356 -209 -209 -443 -343 -720 -413
-357 -90 -740 -48 -1067 118 -197 99 -564 375 -939 706 -180 158 -204 182
-205 203 0 19 20 14 69 -17 73 -47 179 -93 225 -98 55 -7 93 13 169 86 63 60
115 131 142 196 31 74 18 152 -40 240 -31 48 -135 173 -154 187 -19 14 -71 81
-71 91 0 17 37 3 131 -50 125 -70 178 -85 236 -68 111 33 263 219 263 321 0
51 -11 80 -61 154 -93 140 -193 234 -617 582 -229 187 -421 346 -427 352 -5 6
-26 24 -45 40 -19 16 -70 60 -112 99 -106 96 -103 120 7 64 64 -32 154 -102
614 -480 239 -197 440 -357 447 -357 7 0 59 -31 116 -69 111 -74 170 -101 220
-101 110 0 278 180 278 298 0 66 -48 150 -138 239 -42 43 -315 274 -607 513
-291 239 -550 453 -575 476 -25 23 -62 57 -84 76 -31 28 -39 41 -40 74 -1 37
1 39 30 42 71 7 52 22 848 -633 335 -274 614 -500 621 -501 12 -2 78 -49 147
-105 61 -49 104 -63 214 -69 l102 -5 -44 -75 c-164 -284 -246 -650 -215 -960
25 -244 77 -423 190 -655 81 -165 219 -376 256 -393 60 -27 125 -6 125 40 0
11 -24 57 -54 101 -306 462 -419 1005 -299 1442 38 137 123 314 195 407 32 40
30 58 -5 58 -42 0 -143 58 -232 132 -544 452 -1722 1411 -1752 1426 -53 27
-120 35 -164 19z"/>
</g>
</svg>
