<?xml version="1.0" standalone="no"?>
<!DOCTYPE svg PUBLIC "-//W3C//DTD SVG 20010904//EN"
 "http://www.w3.org/TR/2001/REC-SVG-20010904/DTD/svg10.dtd">
<svg version="1.0" xmlns="http://www.w3.org/2000/svg"
 width="2048.000000pt" height="2048.000000pt" viewBox="0 0 2048.000000 2048.000000"
 preserveAspectRatio="xMidYMid meet">
<metadata>
Created by potrace 1.13, written by Peter Selinger 2001-2015
</metadata>
<g transform="translate(0.000000,2048.000000) scale(0.192120,-0.192120)"
fill="#000000" stroke="none">
<path d="M8250 8655 c-8 -2 -49 -9 -90 -15 -180 -29 -1541 -418 -2475 -706
-626 -194 -1014 -327 -1281 -438 -139 -58 -562 -146 -914 -190 -381 -48 -607
-60 -1125 -60 -479 0 -624 6 -1080 44 -356 30 -459 34 -568 20 -211 -25 -308
-88 -364 -236 -17 -47 -18 -121 -21 -1634 -2 -1101 1 -1610 8 -1668 16 -121
43 -188 101 -244 114 -112 260 -111 1014 3 467 71 586 82 790 76 343 -12 625
-106 857 -288 361 -284 825 -461 1558 -594 844 -153 1478 -245 2800 -405 228
-28 479 -59 557 -70 255 -36 392 -23 538 49 157 78 286 219 341 372 62 176 88
345 81 527 -7 196 -50 327 -148 459 l-39 52 33 5 c17 3 181 24 362 46 182 22
401 49 488 60 245 31 370 81 479 191 203 206 230 604 82 1219 -111 461 -326
1078 -736 2105 -191 479 -309 734 -406 880 -154 231 -318 363 -517 418 -64 17
-283 32 -325 22z m253 -270 c139 -36 226 -102 366 -278 48 -62 124 -144 167
-183 43 -39 95 -93 114 -120 l35 -49 -44 35 c-37 30 -50 35 -96 35 -92 0 -151
-61 -149 -153 2 -68 0 -64 832 -2072 87 -212 190 -461 227 -554 77 -190 121
-253 170 -244 21 4 25 2 20 -11 -24 -61 -39 -141 -45 -236 -4 -60 -12 -135
-18 -166 -21 -112 -98 -226 -180 -268 -68 -35 -153 -51 -507 -96 -192 -24
-374 -49 -403 -55 -122 -23 -175 -67 -208 -172 l-17 -57 -61 43 c-76 54 -146
90 -216 110 -61 17 -295 50 -890 126 -217 27 -415 55 -439 60 -116 28 -173 86
-179 184 -5 76 10 116 308 846 116 283 264 644 328 802 64 158 120 284 123
280 14 -14 39 -221 39 -324 0 -242 -73 -573 -152 -693 -28 -43 -33 -58 -33
-112 0 -66 16 -98 66 -136 52 -38 86 -34 414 52 171 44 322 82 336 85 78 16
139 99 140 190 1 71 -6 91 -121 346 -267 589 -453 967 -504 1027 -49 56 -144
103 -208 103 -105 0 -167 -60 -229 -220 -23 -58 -156 -393 -296 -745 -503
-1262 -539 -1360 -551 -1471 -21 -192 36 -342 161 -428 94 -65 131 -72 675
-136 279 -33 595 -68 702 -80 226 -23 275 -35 387 -90 95 -47 194 -137 242
-221 35 -61 34 -67 -15 -179 -18 -41 -54 -143 -79 -225 -49 -159 -96 -259
-148 -313 -46 -47 -153 -98 -239 -112 -91 -16 -140 -12 -593 45 -198 24 -562
70 -810 100 -716 88 -1512 206 -2245 331 -192 33 -405 81 -624 140 -364 99
-499 160 -809 368 -120 80 -255 163 -300 185 -186 88 -396 143 -624 162 -195
16 -412 -1 -843 -66 -299 -45 -523 -73 -646 -81 -97 -7 -104 -6 -158 21 -31
15 -61 36 -66 46 -6 11 -10 612 -10 1619 l0 1602 40 15 c26 10 40 22 40 34 0
40 200 43 615 10 1124 -90 2026 -52 2786 115 200 44 300 74 534 164 413 157
1006 346 2040 649 735 215 1309 374 1485 412 107 22 285 25 363 4z m777 -840
c0 -5 -5 -3 -10 5 -5 8 -10 20 -10 25 0 6 5 3 10 -5 5 -8 10 -19 10 -25z m20
-50 c0 -5 -5 -3 -10 5 -5 8 -10 20 -10 25 0 6 5 3 10 -5 5 -8 10 -19 10 -25z
m116 -301 c229 -594 467 -1257 579 -1613 70 -223 125 -418 124 -435 0 -6 -36
93 -79 219 -203 596 -577 1665 -684 1954 -25 69 -46 127 -46 129 0 17 19 -30
106 -254z m-1632 -678 c18 -7 49 -33 68 -57 53 -65 189 -341 432 -874 84 -186
86 -193 86 -266 0 -60 -4 -79 -18 -92 -18 -17 -432 -132 -515 -143 -44 -6 -47
-5 -57 21 -11 29 -5 58 32 169 10 33 30 108 44 167 22 99 24 129 24 361 l0
253 -28 60 c-29 59 -90 125 -117 125 -46 0 -117 -59 -176 -145 l-34 -50 -3 85
c-2 67 2 99 19 150 73 217 137 280 243 236z m-924 -2320 c0 -15 32 -77 77
-148 27 -45 27 -44 7 -52 -20 -8 -74 15 -97 42 -19 21 -36 154 -23 187 5 15 8
15 21 1 8 -8 15 -21 15 -30z"/>
</g>
</svg>
