<?xml version="1.0" standalone="no"?>
<!DOCTYPE svg PUBLIC "-//W3C//DTD SVG 20010904//EN"
 "http://www.w3.org/TR/2001/REC-SVG-20010904/DTD/svg10.dtd">
<svg version="1.0" xmlns="http://www.w3.org/2000/svg"
 width="2048.000000pt" height="2048.000000pt" viewBox="0 0 2048.000000 2048.000000"
 preserveAspectRatio="xMidYMid meet">
<metadata>
Created by potrace 1.13, written by Peter Selinger 2001-2015
</metadata>
<g transform="translate(0.000000,2048.000000) scale(0.192120,-0.192120)"
fill="#000000" stroke="none">
<path d="M8240 8654 c-142 -22 -438 -100 -1134 -299 -1103 -315 -2205 -660
-2541 -795 -71 -29 -152 -61 -180 -72 -71 -28 -384 -103 -555 -133 -468 -81
-849 -110 -1465 -109 -478 0 -635 6 -1085 44 -448 37 -577 36 -715 -10 -124
-42 -200 -132 -224 -264 -15 -81 -15 -3127 -1 -3244 15 -120 43 -188 101 -244
114 -111 278 -110 1039 6 448 69 461 71 690 71 168 0 237 -4 315 -19 205 -38
457 -140 565 -228 313 -255 685 -424 1220 -552 463 -112 1684 -303 2780 -436
638 -77 757 -92 935 -116 297 -41 436 -27 595 57 153 81 277 233 329 404 12
39 26 84 31 100 46 149 52 452 11 593 -58 199 -176 350 -341 436 -115 61 -149
66 -1010 176 -217 27 -415 55 -439 60 -66 16 -117 46 -148 87 -25 33 -28 44
-28 112 1 73 5 87 117 366 64 160 215 531 335 825 121 294 237 579 258 632 22
54 42 95 46 90 14 -14 39 -221 39 -324 0 -241 -73 -573 -151 -692 -56 -84 -49
-177 16 -235 58 -51 87 -51 295 3 102 27 248 64 325 83 77 20 153 40 168 45
114 43 151 176 89 323 -75 178 -395 863 -503 1077 -96 188 -165 248 -294 255
-70 4 -119 -19 -166 -77 -18 -22 -128 -287 -305 -730 -589 -1483 -598 -1509
-612 -1623 -17 -139 13 -269 84 -362 35 -46 133 -111 198 -130 53 -16 550 -78
1116 -139 413 -45 475 -61 617 -162 108 -77 195 -206 237 -351 l15 -52 -32
-42 c-47 -62 -107 -153 -107 -162 0 -5 -6 -23 -14 -40 -8 -18 -27 -61 -42 -97
-70 -163 -172 -254 -331 -295 -93 -24 -226 -18 -613 30 -201 25 -567 70 -815
100 -794 99 -1540 208 -2255 330 -814 140 -1042 224 -1550 575 -272 189 -616
290 -979 290 -148 0 -304 -16 -688 -71 -588 -83 -787 -98 -841 -61 -15 9 -36
22 -47 28 -11 6 -28 26 -37 45 -17 32 -18 131 -18 1651 l0 1616 31 26 c17 14
37 26 45 26 8 0 14 9 14 19 0 13 12 24 37 33 54 19 391 16 623 -5 392 -35 551
-42 1060 -42 594 0 853 15 1280 76 413 59 673 123 965 239 255 101 791 276
1435 468 1033 308 1901 554 2105 596 125 26 257 31 345 12 159 -33 272 -113
416 -293 43 -54 129 -151 191 -215 157 -164 160 -169 509 -1097 350 -928 589
-1673 610 -1899 6 -67 -15 -213 -37 -254 -5 -10 -9 -57 -9 -105 0 -49 -5 -104
-10 -123 -6 -19 -14 -61 -20 -93 -13 -85 -64 -179 -126 -236 -98 -90 -156
-106 -554 -156 -157 -20 -331 -43 -386 -51 -149 -23 -199 -58 -229 -157 l-14
-47 27 0 c14 0 166 18 337 39 170 22 386 49 478 60 254 32 375 79 488 192 140
140 201 396 170 714 -54 549 -272 1234 -853 2684 -250 626 -353 818 -540 1009
-123 126 -252 196 -416 228 -67 13 -210 17 -272 8z m-456 -2158 c18 -7 49 -36
69 -63 42 -57 204 -388 378 -770 l119 -262 0 -81 0 -81 -33 -14 c-63 -26 -472
-126 -494 -120 -32 8 -30 59 6 177 61 196 71 275 71 530 0 221 -2 236 -24 290
-30 74 -62 112 -113 138 -40 20 -43 20 -75 5 -18 -10 -56 -40 -84 -67 -50 -48
-52 -49 -57 -26 -19 74 57 288 119 337 31 24 71 27 118 7z m-900 -2403 c3 -10
9 -24 12 -30 3 -7 -1 -13 -9 -13 -15 0 -27 20 -27 46 0 20 16 17 24 -3z M8985
7816 c-65 -28 -105 -106 -90 -176 4 -17 55 -151 115 -298 112 -278 184 -452
643 -1562 151 -366 296 -718 323 -784 33 -83 58 -130 84 -157 42 -44 61 -48
90 -19 32 32 27 117 -14 247 -121 384 -631 1845 -819 2348 -122 326 -143 365
-211 396 -48 22 -80 23 -121 5z"/>
</g>
</svg>
