<?xml version="1.0" standalone="no"?>
<!DOCTYPE svg PUBLIC "-//W3C//DTD SVG 20010904//EN"
 "http://www.w3.org/TR/2001/REC-SVG-20010904/DTD/svg10.dtd">
<svg version="1.0" xmlns="http://www.w3.org/2000/svg"
 width="2048.000000pt" height="2048.000000pt" viewBox="0 0 2048.000000 2048.000000"
 preserveAspectRatio="xMidYMid meet">
<metadata>
Created by potrace 1.13, written by Peter Selinger 2001-2015
</metadata>
<g transform="translate(0.000000,2048.000000) scale(0.192120,-0.192120)"
fill="#000000" stroke="none">
<path d="M6570 10275 c-184 -42 -320 -169 -404 -377 -44 -110 -70 -227 -191
-843 -295 -1499 -383 -1927 -466 -2260 -38 -152 -79 -288 -85 -282 -3 3 -9 76
-15 163 -13 209 -40 358 -78 440 -58 125 -180 220 -331 259 -101 26 -282 17
-375 -20 -38 -15 -106 -40 -150 -55 -230 -79 -363 -187 -445 -362 -57 -121
-61 -167 -100 -983 -43 -912 -53 -1241 -54 -1783 l-1 -552 -55 -21 c-281 -107
-560 29 -704 343 -47 101 -69 182 -115 414 -71 357 -127 746 -241 1684 -38
316 -79 644 -91 729 -12 95 -18 174 -14 205 10 77 43 173 63 179 61 19 170 49
188 53 11 2 68 21 125 43 146 54 245 75 333 68 100 -8 142 -23 193 -70 60 -56
85 -101 133 -247 72 -215 128 -292 216 -294 19 -1 34 -5 34 -10 0 -5 2 -7 5
-4 9 9 -63 419 -84 481 -69 199 -204 330 -387 373 -136 32 -340 0 -464 -72
-25 -14 -80 -41 -122 -59 -153 -65 -290 -179 -358 -298 -16 -29 -44 -93 -61
-144 -26 -80 -30 -106 -30 -200 0 -59 5 -146 10 -193 6 -47 33 -299 61 -560
100 -940 162 -1395 255 -1870 64 -324 142 -495 304 -663 222 -231 568 -312
826 -193 l54 24 45 -92 c86 -177 205 -299 371 -381 131 -65 195 -80 350 -79
155 0 241 20 375 89 157 82 278 207 357 370 96 200 108 311 107 980 0 602 -12
840 -95 1870 -16 203 -29 380 -29 392 0 20 5 23 35 23 48 0 104 30 144 77 117
136 175 369 491 1989 133 685 210 1057 237 1154 19 70 75 177 118 227 40 46
116 90 179 102 41 8 46 7 46 -10 0 -16 8 -19 58 -19 129 -1 263 -49 323 -117
l29 -34 0 -333 c0 -324 -1 -342 -35 -599 -46 -355 -107 -792 -216 -1557 -50
-350 -95 -700 -99 -780 -5 -80 -12 -161 -15 -180 -10 -62 -74 -536 -116 -860
-38 -292 -42 -337 -46 -612 -4 -257 -3 -308 12 -375 43 -195 173 -377 323
-450 78 -38 187 -43 303 -14 106 27 342 142 509 248 468 298 570 355 764 427
141 53 349 104 500 123 208 26 379 -2 513 -84 72 -45 123 -85 123 -97 0 -5 18
-28 39 -51 48 -52 55 -83 49 -213 -5 -112 -22 -148 -102 -219 -62 -55 -140
-94 -536 -271 -882 -394 -1252 -622 -1640 -1012 -256 -257 -312 -334 -471
-651 -235 -469 -540 -851 -889 -1111 -564 -421 -1393 -611 -2280 -522 -971 97
-1867 537 -2317 1138 -262 349 -419 780 -503 1378 -20 139 -21 183 -18 780 4
589 5 644 26 788 54 375 109 647 187 915 95 329 90 275 90 1080 0 816 -3 854
-125 1955 -34 303 -40 386 -40 569 0 211 0 214 26 261 31 57 85 103 154 132
33 14 50 27 50 38 0 12 11 19 38 24 142 23 253 -21 337 -135 60 -82 75 -136
140 -507 109 -620 327 -1792 351 -1884 29 -116 82 -201 144 -233 27 -14 116
-24 124 -13 5 5 -25 172 -139 783 -147 788 -217 1178 -270 1490 -25 149 -57
304 -71 346 -57 174 -187 312 -349 371 -74 26 -235 36 -319 18 -73 -15 -198
-78 -257 -129 -106 -92 -181 -244 -202 -411 -10 -81 -6 -127 56 -691 117
-1053 146 -1419 154 -1939 9 -539 -13 -776 -96 -1045 -272 -886 -336 -2084
-155 -2925 105 -490 287 -900 544 -1225 83 -105 281 -301 400 -396 928 -741
2385 -1007 3560 -652 362 109 693 280 956 493 117 95 303 280 409 405 196 234
330 443 515 805 98 193 150 282 211 363 154 205 365 394 649 582 277 183 564
331 1105 570 526 232 645 303 733 434 110 165 118 336 25 524 -54 107 -197
246 -318 309 -118 60 -228 94 -356 108 -145 16 -334 -6 -569 -65 -308 -78
-526 -181 -878 -417 -392 -262 -589 -358 -737 -358 -83 0 -119 15 -171 72
-119 129 -147 405 -90 883 43 360 103 805 270 1980 315 2215 338 2424 287
2616 -57 217 -196 356 -416 414 -86 23 -274 28 -355 10z m-1598 -3126 c20 -5
59 -27 87 -49 64 -51 101 -126 142 -290 18 -69 41 -144 51 -167 19 -40 70 -94
114 -119 19 -11 19 -32 18 -835 -2 -1048 -27 -1811 -69 -2061 -29 -170 -92
-295 -203 -399 -326 -308 -864 -140 -966 301 -21 92 -22 155 -9 785 7 308 15
866 18 1240 6 809 13 1134 26 1235 10 86 54 221 80 249 16 17 58 27 153 36 17
2 87 20 156 40 69 20 150 40 180 45 61 10 165 5 222 -11z m-989 -3655 c10 -61
-9 -80 -45 -47 -22 20 -23 51 -2 74 22 25 41 14 47 -27z M3952 6660 c0 -14 2
-19 5 -12 2 6 2 18 0 25 -3 6 -5 1 -5 -13z"/>
</g>
</svg>
