<?xml version="1.0" standalone="no"?>
<!DOCTYPE svg PUBLIC "-//W3C//DTD SVG 20010904//EN"
 "http://www.w3.org/TR/2001/REC-SVG-20010904/DTD/svg10.dtd">
<svg version="1.0" xmlns="http://www.w3.org/2000/svg"
 width="2048.000000pt" height="2048.000000pt" viewBox="0 0 2048.000000 2048.000000"
 preserveAspectRatio="xMidYMid meet">
<metadata>
Created by potrace 1.13, written by Peter Selinger 2001-2015
</metadata>
<g transform="translate(0.000000,2048.000000) scale(0.192120,-0.192120)"
fill="#000000" stroke="none">
<path d="M6615 9600 c-111 -22 -227 -90 -303 -175 -46 -53 -73 -100 -244 -418
l-90 -169 30 -56 c25 -48 492 -1321 547 -1490 l17 -53 -40 -43 c-67 -73 -66
-121 5 -336 79 -234 433 -1191 472 -1272 34 -72 57 -103 127 -173 l85 -85
-567 2 -568 3 -513 1410 c-601 1653 -600 1650 -609 1736 l-7 67 52 17 c67 22
137 78 185 149 48 68 128 132 193 153 26 8 84 15 128 15 80 0 86 -2 265 -67
53 -20 127 -16 165 9 l26 17 -33 46 c-18 25 -62 68 -98 94 -211 156 -504 142
-696 -34 -66 -60 -126 -147 -149 -216 -9 -28 -35 -68 -61 -97 -118 -126 -176
-314 -144 -469 6 -33 122 -363 257 -734 152 -417 243 -681 240 -695 -3 -11
-104 -291 -224 -621 -121 -330 -238 -654 -262 -720 l-42 -120 -83 -44 c-108
-56 -182 -114 -251 -198 -146 -175 -213 -365 -201 -564 11 -173 66 -335 158
-456 l47 -63 -45 -59 c-110 -147 -263 -224 -444 -225 -247 0 -456 156 -533
399 l-22 70 0 910 c0 840 1 914 18 967 9 31 21 59 25 61 4 3 30 8 57 11 71 9
77 11 213 77 135 65 211 83 300 68 111 -17 221 -87 265 -167 58 -107 59 -114
66 -457 6 -303 8 -322 28 -361 21 -39 86 -84 120 -84 18 0 25 199 21 525 -4
249 -8 309 -22 355 -90 285 -379 452 -665 385 -92 -22 -176 -70 -256 -147 -38
-37 -98 -84 -133 -105 -109 -66 -213 -184 -263 -300 -48 -110 -49 -129 -49
-954 0 -741 -1 -779 -20 -853 -66 -259 -296 -420 -575 -402 -139 8 -249 53
-343 140 -51 47 -115 137 -103 146 17 12 82 114 86 139 3 14 10 40 15 57 6 18
10 273 10 631 0 568 1 603 19 656 59 170 189 255 375 245 92 -5 172 -36 274
-107 31 -22 78 -46 104 -53 41 -10 52 -10 82 5 l35 16 -15 39 c-21 52 -89 142
-143 187 -101 83 -209 119 -366 118 -90 -1 -123 -5 -181 -25 -175 -61 -303
-199 -349 -375 -13 -49 -15 -196 -15 -993 0 -990 4 -1118 46 -1370 112 -679
418 -1283 899 -1779 446 -458 1002 -775 1617 -920 233 -55 411 -79 668 -88
667 -23 1326 199 1889 636 118 93 350 318 453 441 414 494 648 1083 648 1635
0 120 -24 271 -76 480 -34 133 -317 1072 -350 1157 -33 87 -150 265 -228 347
-34 35 -92 87 -131 116 -130 97 -127 90 -453 985 -160 437 -308 844 -331 903
l-40 108 64 172 c270 725 586 1607 596 1665 12 74 6 148 -17 232 -76 269 -363
445 -639 390z m257 -233 c73 -36 131 -95 174 -178 32 -60 34 -70 34 -164 0
-116 5 -98 -173 -585 -63 -173 -122 -349 -131 -390 -9 -41 -21 -140 -27 -220
-18 -240 -16 -238 -78 -75 -129 338 -481 1305 -481 1320 0 2 19 10 43 20 66
26 108 59 172 136 72 86 106 113 182 145 83 35 203 31 285 -9z m-1489 -2864
c101 -272 427 -1166 427 -1170 0 -1 -188 -3 -417 -3 -373 0 -496 -6 -568 -26
-11 -4 14 27 57 69 146 142 178 201 290 522 96 276 118 384 134 663 3 67 8
122 9 122 2 0 32 -80 68 -177z m2042 -1477 c28 -10 51 -19 52 -20 2 -1 14 -41
28 -89 14 -48 41 -119 60 -157 37 -74 89 -199 110 -265 7 -22 70 -227 140
-455 213 -699 215 -710 215 -1022 0 -285 -18 -404 -98 -638 -119 -346 -274
-606 -515 -864 -472 -503 -983 -801 -1577 -920 -185 -37 -312 -49 -530 -48
-765 1 -1475 266 -2065 771 -230 196 -389 379 -570 654 -171 261 -338 657
-409 972 -62 274 -69 299 -128 418 -32 66 -66 136 -73 154 l-14 33 42 -28
c131 -90 240 -123 427 -129 123 -4 158 -2 232 16 107 25 200 67 281 125 61 43
165 146 199 196 l17 25 22 -30 c43 -58 148 -155 217 -200 152 -98 304 -139
482 -132 172 7 301 50 445 149 62 42 188 169 214 215 9 17 15 15 78 -19 130
-70 155 -73 631 -73 l423 0 -48 -39 c-69 -57 -199 -190 -264 -271 -324 -403
-520 -973 -531 -1545 -3 -151 3 -173 65 -210 57 -35 124 -22 177 34 22 25 25
37 31 174 9 175 14 221 39 372 111 659 473 1205 930 1401 119 51 206 71 346
79 136 7 174 24 200 86 26 62 13 114 -41 164 l-27 25 -846 5 c-843 5 -847 5
-912 27 -174 60 -319 214 -365 388 -8 33 -15 100 -15 150 0 201 113 386 290
479 130 69 49 65 1380 63 1147 -2 1207 -3 1255 -21z m-1447 -1308 c3 -18 -45
-68 -65 -68 -7 0 -13 -4 -13 -8 0 -4 -9 -8 -20 -9 -31 -3 -66 78 -43 101 4 4
37 6 72 4 52 -2 66 -7 69 -20z"/>
</g>
</svg>
