<?xml version="1.0" standalone="no"?>
<!DOCTYPE svg PUBLIC "-//W3C//DTD SVG 20010904//EN"
 "http://www.w3.org/TR/2001/REC-SVG-20010904/DTD/svg10.dtd">
<svg version="1.0" xmlns="http://www.w3.org/2000/svg"
 width="2048.000000pt" height="2048.000000pt" viewBox="0 0 2048.000000 2048.000000"
 preserveAspectRatio="xMidYMid meet">
<metadata>
Created by potrace 1.13, written by Peter Selinger 2001-2015
</metadata>
<g transform="translate(0.000000,2048.000000) scale(0.192120,-0.192120)"
fill="#000000" stroke="none">
<path d="M4551 10304 c-86 -23 -151 -63 -231 -144 -97 -97 -138 -172 -335
-615 -405 -910 -626 -1279 -969 -1620 -176 -174 -279 -248 -518 -369 -103 -52
-236 -125 -295 -162 -452 -282 -875 -700 -1198 -1184 -329 -494 -510 -954
-595 -1515 -28 -180 -38 -584 -21 -772 58 -616 282 -1181 655 -1647 106 -133
323 -350 461 -460 596 -477 1435 -786 2325 -856 174 -14 609 -14 770 0 545 47
982 155 1318 327 91 47 201 94 248 108 179 52 391 75 694 75 429 0 854 -42
1835 -180 308 -44 598 -84 645 -91 207 -29 390 -7 523 63 87 45 205 166 245
250 125 260 59 547 -163 713 -119 89 -157 99 -655 185 -297 51 -988 177 -1615
295 -187 35 -364 67 -392 71 l-53 7 0 -54 c0 -106 62 -156 243 -199 157 -37
1210 -231 2029 -375 81 -14 176 -34 211 -45 89 -28 181 -89 217 -147 29 -46
30 -50 30 -171 0 -68 -5 -143 -11 -167 -15 -61 -94 -146 -169 -184 -152 -75
-279 -71 -1040 37 -1087 155 -1446 188 -1957 179 -469 -8 -604 -36 -924 -191
-178 -85 -333 -142 -529 -191 -704 -178 -1542 -176 -2275 6 -478 119 -969 338
-1325 592 -610 435 -1013 1072 -1140 1803 -18 105 -20 160 -20 548 0 475 5
525 71 796 72 289 216 632 371 885 31 50 75 122 98 160 200 327 557 726 856
953 187 143 339 239 550 350 307 161 408 231 594 409 196 187 419 488 586 788
106 191 279 548 414 855 159 362 222 480 295 555 90 92 135 110 270 110 105 0
113 -2 180 -34 91 -44 187 -141 235 -236 l35 -70 3 -282 3 -282 -31 -123 c-63
-252 -158 -465 -323 -718 -243 -375 -342 -549 -399 -701 -27 -72 -32 -101 -36
-206 -5 -143 4 -171 87 -264 102 -115 254 -195 411 -218 426 -61 532 -64 965
-30 158 12 376 22 500 23 208 1 223 0 274 -22 79 -33 135 -77 183 -143 63 -87
79 -136 93 -289 8 -74 20 -166 29 -205 27 -119 24 -133 -41 -197 -146 -141
-230 -166 -803 -237 -453 -57 -1003 -111 -1777 -176 -367 -31 -434 -34 -510
-25 -238 30 -419 151 -517 346 -37 74 -56 158 -56 249 0 247 155 449 417 545
115 41 428 101 801 151 94 13 172 27 172 31 0 20 -555 3 -905 -27 -315 -28
-415 -65 -560 -210 -74 -73 -99 -106 -133 -175 -104 -213 -111 -493 -18 -705
34 -75 105 -180 154 -229 l40 -38 -36 -47 c-44 -57 -105 -185 -128 -271 -14
-48 -18 -101 -18 -205 0 -162 13 -226 75 -350 78 -159 203 -280 371 -362 70
-35 97 -52 93 -63 -2 -8 -16 -49 -31 -90 -51 -142 -43 -345 19 -500 92 -227
303 -416 572 -513 181 -65 772 -166 1440 -246 484 -59 1301 -144 1421 -148
102 -4 135 -2 203 16 219 57 369 185 467 397 20 43 56 120 80 169 24 50 51
117 59 150 81 317 -63 587 -369 689 -63 21 -333 69 -346 61 -14 -9 -12 -40 4
-80 19 -45 84 -86 190 -121 106 -35 206 -84 206 -100 0 -8 12 -21 28 -31 86
-56 92 -72 92 -268 0 -154 -2 -178 -25 -250 -21 -66 -25 -97 -23 -177 3 -111
5 -108 -87 -163 -84 -50 -171 -75 -263 -75 -42 0 -277 25 -522 55 -245 31
-609 76 -810 101 -856 106 -1379 195 -1589 270 -373 133 -549 444 -420 743
l19 46 328 -3 c455 -5 1153 17 2282 73 538 27 600 35 715 90 164 79 271 210
350 430 80 222 87 248 92 346 10 178 -41 324 -151 435 -93 92 -152 115 -396
154 -30 5 -124 12 -207 15 -84 4 -153 11 -153 16 0 5 3 9 8 9 4 0 30 19 59 43
135 110 238 297 272 491 17 91 14 288 -5 360 -56 218 -224 383 -444 437 -92
22 -299 14 -942 -38 -216 -17 -220 -17 -486 6 -427 35 -537 68 -614 182 -91
136 -8 358 312 839 264 396 370 626 448 971 46 201 55 284 49 437 -10 267 -95
465 -270 629 -156 145 -346 203 -516 157z m2205 -4570 c45 -6 53 -10 69 -40
27 -50 65 -69 229 -114 82 -23 164 -52 183 -65 19 -13 57 -49 84 -81 l49 -58
0 -281 c1 -154 5 -300 10 -325 9 -45 9 -45 -37 -88 -59 -55 -162 -107 -262
-133 -96 -25 -428 -35 -1496 -43 -412 -4 -978 -11 -1257 -17 -577 -13 -590
-12 -741 63 -231 115 -359 383 -306 640 11 52 74 195 104 233 15 19 17 19 80
2 101 -27 250 -38 367 -27 186 18 2079 230 2373 266 162 20 312 43 340 53 53
20 128 25 211 15z m-3439 -116 l23 -21 -21 -18 c-35 -30 -61 -3 -43 45 8 21
13 20 41 -6z M6868 4303 c7 -3 16 -2 19 1 4 3 -2 6 -13 5 -11 0 -14 -3 -6 -6z
M6928 4293 c7 -3 16 -2 19 1 4 3 -2 6 -13 5 -11 0 -14 -3 -6 -6z M6978 4283
c7 -3 16 -2 19 1 4 3 -2 6 -13 5 -11 0 -14 -3 -6 -6z"/>
</g>
</svg>
