<?xml version="1.0" standalone="no"?>
<!DOCTYPE svg PUBLIC "-//W3C//DTD SVG 20010904//EN"
 "http://www.w3.org/TR/2001/REC-SVG-20010904/DTD/svg10.dtd">
<svg version="1.0" xmlns="http://www.w3.org/2000/svg"
 width="2048.000000pt" height="2048.000000pt" viewBox="0 0 2048.000000 2048.000000"
 preserveAspectRatio="xMidYMid meet">
<metadata>
Created by potrace 1.13, written by Peter Selinger 2001-2015
</metadata>
<g transform="translate(0.000000,2048.000000) scale(0.192120,-0.192120)"
fill="#000000" stroke="none">
<path d="M5740 10314 c-199 -43 -337 -187 -390 -405 -18 -76 -20 -118 -20
-450 0 -399 -2 -389 57 -364 78 33 93 98 103 445 6 229 11 284 26 330 33 95
96 184 161 227 59 39 238 56 328 32 22 -6 81 -29 130 -52 75 -35 103 -42 167
-45 l77 -4 16 -40 c46 -117 45 -39 45 -2140 l0 -1976 73 -6 c39 -3 102 -8 140
-10 l67 -5 -2 1892 -3 1892 -27 80 c-15 44 -44 109 -65 145 -48 81 -172 206
-243 244 -29 16 -77 53 -106 82 -121 120 -334 172 -534 128z M7095 9681 c-33
-10 -80 -28 -105 -41 -62 -32 -160 -134 -190 -199 -24 -52 -24 -53 -5 -68 33
-24 89 -10 175 47 103 68 166 90 270 97 101 6 176 -10 290 -64 59 -28 91 -36
153 -41 88 -5 87 -5 123 -112 18 -53 19 -135 24 -1865 l5 -1809 122 -37 c68
-20 129 -42 138 -49 14 -12 15 160 13 1721 -4 1946 4 1769 -79 1938 -33 66
-60 103 -123 166 -45 45 -103 95 -131 110 -27 16 -78 55 -112 86 -68 63 -158
111 -241 128 -81 17 -257 13 -327 -8z M4420 9630 c-187 -19 -330 -114 -408
-272 -17 -35 -39 -90 -48 -123 -18 -57 -19 -181 -24 -2370 l-5 -2310 -23 -57
c-30 -74 -99 -150 -167 -183 -144 -71 -303 -3 -429 184 -25 38 -101 183 -169
322 -175 360 -252 475 -442 664 -270 267 -592 412 -869 392 -233 -17 -447
-156 -517 -334 -17 -45 -23 -79 -23 -148 -1 -142 11 -165 203 -389 302 -352
713 -877 813 -1039 131 -210 202 -421 253 -747 76 -482 319 -1067 616 -1482
46 -64 121 -161 166 -215 98 -118 326 -346 443 -443 487 -403 1055 -647 1690
-727 190 -23 626 -23 805 0 572 76 1088 277 1537 598 716 513 1202 1289 1348
2149 46 275 45 210 45 2610 0 2170 -1 2278 -18 2339 -60 211 -198 351 -385
390 -78 16 -244 14 -315 -5 -133 -34 -240 -117 -299 -229 -38 -75 -33 -90 35
-90 34 0 62 12 138 58 124 75 171 90 289 90 172 1 273 -61 358 -220 l22 -42 0
-2259 c0 -1478 -4 -2296 -10 -2363 -45 -449 -192 -921 -394 -1264 -331 -565
-778 -984 -1341 -1260 -328 -161 -616 -248 -990 -302 -185 -26 -664 -26 -850
0 -597 85 -1081 291 -1542 659 -423 338 -782 827 -986 1343 -98 249 -165 485
-206 725 -45 260 -83 390 -170 581 -82 180 -119 239 -307 490 -191 255 -317
413 -538 673 -224 264 -216 250 -216 368 0 94 1 99 30 131 33 38 116 85 200
113 88 30 268 25 384 -10 231 -70 446 -223 630 -451 95 -117 138 -188 252
-423 140 -285 209 -397 312 -501 66 -67 104 -97 157 -122 66 -32 76 -34 175
-34 96 0 110 2 159 28 134 71 257 243 294 412 7 35 12 732 17 2315 l5 2265 22
63 c22 64 41 99 71 131 9 10 22 26 28 37 32 58 154 104 274 104 89 0 218 -42
288 -94 18 -13 43 -16 129 -17 l71 0 17 -41 c46 -116 45 -62 45 -1806 l0
-1643 78 6 c42 3 105 8 140 11 l62 6 -2 1526 c-4 1713 3 1562 -79 1731 -50
101 -150 211 -248 272 -36 23 -91 65 -122 94 -114 108 -268 153 -459 135z"/>
</g>
</svg>
