<?xml version="1.0" standalone="no"?>
<!DOCTYPE svg PUBLIC "-//W3C//DTD SVG 20010904//EN"
 "http://www.w3.org/TR/2001/REC-SVG-20010904/DTD/svg10.dtd">
<svg version="1.0" xmlns="http://www.w3.org/2000/svg"
 width="2048.000000pt" height="2048.000000pt" viewBox="0 0 2048.000000 2048.000000"
 preserveAspectRatio="xMidYMid meet">
<metadata>
Created by potrace 1.13, written by Peter Selinger 2001-2015
</metadata>
<g transform="translate(0.000000,2048.000000) scale(0.192120,-0.192120)"
fill="#000000" stroke="none">
<path d="M2198 8650 c-323 -55 -553 -283 -778 -772 -119 -258 -559 -1389 -709
-1819 -267 -767 -373 -1275 -341 -1619 25 -263 130 -439 319 -534 91 -46 191
-69 416 -96 99 -11 263 -32 365 -45 265 -34 372 -46 376 -42 2 2 -2 25 -10 52
-29 95 -60 109 -326 150 -158 24 -336 52 -467 75 -89 15 -226 56 -284 85 -64
33 -121 85 -154 140 -39 68 -75 227 -75 335 0 50 -4 98 -9 108 -45 86 -60 239
-36 367 57 303 352 1175 742 2190 214 556 216 561 373 735 47 52 125 143 173
201 145 179 249 255 397 295 82 21 255 22 363 0 178 -35 1127 -301 1812 -506
742 -223 875 -267 915 -299 22 -17 43 -31 48 -31 18 0 578 -189 712 -240 249
-96 295 -112 395 -141 203 -59 583 -128 910 -164 287 -31 391 -36 855 -42 503
-6 733 2 1175 39 301 25 577 29 652 10 29 -8 64 -23 78 -34 l25 -19 0 -1650
c0 -1817 4 -1692 -62 -1720 -73 -30 -304 -12 -813 65 -471 72 -463 71 -730 71
-221 -1 -262 -3 -355 -23 -251 -55 -419 -129 -627 -278 -180 -130 -268 -183
-418 -254 -322 -153 -627 -239 -1215 -344 -630 -113 -1338 -217 -2130 -315
-1367 -169 -1325 -165 -1445 -136 -110 26 -200 77 -276 158 -17 17 -53 79 -80
137 -77 164 -91 188 -140 246 l-47 55 15 67 c59 260 229 438 488 508 28 8 138
23 245 34 487 52 1151 132 1210 146 126 30 230 106 281 206 26 51 49 152 49
218 0 132 -20 186 -482 1350 -176 443 -340 856 -364 918 -70 180 -119 232
-224 240 -75 5 -146 -25 -213 -93 -53 -52 -106 -155 -364 -708 -233 -500 -265
-575 -270 -643 -3 -35 0 -76 6 -96 16 -49 73 -105 119 -117 303 -83 655 -171
682 -171 19 0 53 10 74 23 83 47 101 151 42 247 -99 161 -172 567 -148 816 6
60 16 134 23 164 l12 55 13 -30 c8 -16 73 -174 145 -350 636 -1560 599 -1464
599 -1547 0 -72 -19 -111 -72 -151 -47 -36 -116 -52 -343 -82 -110 -14 -324
-41 -475 -61 -590 -75 -608 -79 -729 -136 -67 -32 -100 -56 -160 -117 -151
-151 -221 -335 -221 -578 0 -185 44 -390 117 -543 39 -80 59 -107 132 -180
184 -183 370 -229 721 -180 80 12 402 52 717 90 983 119 1458 186 2178 306
797 133 1080 200 1424 339 242 97 496 245 646 375 99 86 310 175 522 220 66
14 154 23 268 27 204 7 339 -6 800 -77 437 -67 559 -82 705 -83 236 -2 316 50
369 242 13 49 16 252 19 1656 2 1142 0 1619 -8 1665 -28 161 -104 242 -273
287 -83 22 -340 22 -585 -1 -526 -49 -1172 -68 -1587 -47 -732 37 -1313 135
-1685 286 -180 73 -414 156 -725 255 -986 317 -2727 819 -2965 855 -101 16
-225 18 -302 5z m831 -2187 c42 -51 81 -153 81 -211 0 -27 -3 -51 -6 -55 -4
-3 -29 10 -58 29 -62 41 -97 43 -145 7 -48 -36 -57 -48 -92 -118 l-29 -60 0
-253 c0 -272 9 -340 67 -528 13 -45 23 -96 21 -115 -3 -30 -7 -34 -35 -37 -39
-4 -445 101 -480 123 -24 16 -25 21 -21 83 5 71 -4 50 306 707 169 360 204
419 263 448 57 28 93 22 128 -20z M1600 7819 c-39 -16 -80 -59 -110 -120 -69
-134 -491 -1316 -826 -2314 -150 -444 -164 -508 -124 -558 27 -34 40 -34 80
-1 36 31 63 82 119 221 21 54 222 541 446 1083 623 1507 618 1494 613 1555 -5
62 -29 98 -84 125 -44 22 -75 24 -114 9z"/>
</g>
</svg>
