<?xml version="1.0" standalone="no"?>
<!DOCTYPE svg PUBLIC "-//W3C//DTD SVG 20010904//EN"
 "http://www.w3.org/TR/2001/REC-SVG-20010904/DTD/svg10.dtd">
<svg version="1.0" xmlns="http://www.w3.org/2000/svg"
 width="2048.000000pt" height="2048.000000pt" viewBox="0 0 2048.000000 2048.000000"
 preserveAspectRatio="xMidYMid meet">
<metadata>
Created by potrace 1.13, written by Peter Selinger 2001-2015
</metadata>
<g transform="translate(0.000000,2048.000000) scale(0.192120,-0.192120)"
fill="#000000" stroke="none">
<path d="M4551 10304 c-116 -31 -233 -120 -312 -237 -52 -77 -141 -262 -300
-622 -349 -792 -592 -1191 -923 -1520 -173 -172 -283 -251 -495 -357 -517
-258 -927 -594 -1308 -1073 -445 -558 -700 -1130 -805 -1805 -20 -128 -22
-184 -23 -465 0 -343 7 -422 61 -679 166 -786 624 -1459 1294 -1900 588 -388
1309 -624 2090 -686 174 -14 609 -14 770 0 545 47 982 155 1318 327 91 47 201
94 248 108 178 51 392 75 689 75 431 0 870 -43 1800 -175 746 -106 759 -108
880 -107 201 1 337 53 466 182 116 115 169 242 169 405 0 247 -153 456 -397
540 -37 13 -151 38 -253 55 -347 58 -819 144 -1579 286 -489 91 -728 134 -748
134 -22 0 -16 -104 7 -150 40 -78 120 -112 389 -164 385 -76 1480 -277 1826
-335 99 -17 207 -38 240 -46 134 -34 258 -121 271 -190 3 -18 4 -86 2 -152 -3
-113 -5 -122 -33 -168 -66 -107 -170 -155 -346 -163 -138 -5 -195 1 -739 78
-1061 151 -1457 191 -1930 191 -283 0 -421 -9 -592 -41 -149 -28 -236 -59
-428 -150 -203 -97 -318 -139 -520 -191 -352 -91 -701 -132 -1125 -133 -377 0
-632 24 -976 94 -533 109 -1094 343 -1485 620 -297 211 -574 501 -759 795
-173 274 -317 658 -375 998 -18 107 -20 163 -20 546 0 407 1 433 24 562 83
464 244 854 534 1299 142 217 280 387 476 589 292 297 529 472 928 682 280
148 400 233 585 416 362 357 605 763 1021 1703 173 390 239 492 360 552 40 19
63 23 147 23 94 0 105 -2 169 -34 90 -44 174 -128 218 -218 l33 -68 3 -277 3
-278 -30 -117 c-77 -302 -166 -488 -402 -839 -159 -237 -287 -476 -333 -622
-21 -68 -26 -102 -26 -191 0 -94 3 -113 25 -157 29 -58 105 -139 190 -202 139
-103 222 -124 589 -153 243 -20 290 -21 451 -10 580 37 693 42 830 38 186 -6
224 -18 309 -98 46 -43 72 -77 97 -131 l34 -73 3 -268 c3 -210 0 -272 -10
-284 -26 -32 -144 -101 -218 -127 -172 -62 -988 -157 -2345 -271 -364 -31
-432 -34 -508 -25 -263 32 -462 179 -547 405 -28 75 -38 228 -20 306 44 195
204 361 418 433 115 39 498 110 824 153 75 9 134 21 132 25 -19 30 -941 -17
-1139 -57 -207 -43 -393 -202 -477 -407 -39 -96 -58 -201 -58 -318 0 -217 66
-394 203 -545 l54 -60 -38 -50 c-46 -62 -101 -176 -125 -265 -14 -49 -18 -100
-18 -205 0 -162 13 -226 75 -350 78 -159 203 -280 371 -362 70 -35 97 -52 93
-63 -2 -8 -16 -49 -31 -90 -32 -90 -43 -240 -25 -346 44 -253 226 -480 489
-613 135 -68 282 -106 692 -175 443 -76 859 -128 1750 -221 190 -20 374 -40
410 -45 373 -53 656 88 803 400 22 47 59 126 83 175 100 205 108 400 24 571
-56 113 -187 219 -334 268 -78 27 -397 79 -409 67 -15 -15 0 -73 27 -102 39
-42 86 -67 197 -103 134 -44 182 -65 192 -82 4 -8 13 -14 20 -14 19 0 117 -89
117 -106 0 -8 9 -28 21 -43 19 -27 21 -39 17 -162 -4 -129 -6 -138 -45 -239
-23 -58 -47 -135 -53 -170 -32 -178 -26 -165 -78 -193 -122 -66 -219 -72 -507
-33 -104 14 -397 51 -650 81 -1316 159 -1840 248 -2071 350 -187 83 -336 245
-373 406 -22 95 -11 215 30 308 l19 46 513 1 c281 0 647 6 812 12 1132 46
1765 79 1845 96 140 30 223 75 323 173 97 96 128 157 240 473 56 160 47 347
-25 492 -41 82 -135 176 -213 213 -78 36 -290 71 -487 80 -82 4 -148 11 -148
16 0 5 3 9 8 9 16 0 114 89 159 145 64 81 116 182 149 290 35 121 45 355 19
454 -53 206 -194 359 -389 425 -120 41 -251 39 -933 -15 l-281 -23 -269 23
c-430 36 -540 69 -617 185 -89 136 -6 355 324 851 192 289 275 443 348 645
124 341 171 686 124 910 -39 188 -124 344 -255 466 -156 146 -345 204 -516
158z m2186 -4581 c11 -33 53 -80 87 -99 21 -12 86 -32 145 -44 166 -33 233
-56 287 -97 54 -41 68 -57 101 -120 21 -38 23 -56 23 -180 0 -110 -4 -153 -20
-208 -12 -39 -25 -124 -30 -190 -8 -107 -12 -122 -32 -139 -41 -33 -138 -77
-217 -97 -97 -26 -412 -35 -1451 -43 -410 -4 -984 -11 -1276 -17 -605 -13
-615 -12 -767 63 -286 143 -402 504 -251 787 49 93 59 104 86 98 247 -57 238
-58 1408 73 1304 145 1642 187 1710 210 62 21 191 23 197 3z m-3428 -68 l52
-55 -18 -31 c-15 -26 -64 -59 -88 -59 -3 0 -5 26 -5 58 0 31 -4 72 -10 91 -9
33 -6 51 9 51 5 0 32 -25 60 -55z m381 -1362 c0 -19 -21 -38 -42 -39 -16 -2
-16 1 -3 26 14 28 45 37 45 13z M6868 4303 c7 -3 16 -2 19 1 4 3 -2 6 -13 5
-11 0 -14 -3 -6 -6z M6918 4293 c6 -2 18 -2 25 0 6 3 1 5 -13 5 -14 0 -19 -2
-12 -5z"/>
</g>
</svg>
