<?xml version="1.0" standalone="no"?>
<!DOCTYPE svg PUBLIC "-//W3C//DTD SVG 20010904//EN"
 "http://www.w3.org/TR/2001/REC-SVG-20010904/DTD/svg10.dtd">
<svg version="1.0" xmlns="http://www.w3.org/2000/svg"
 width="2048.000000pt" height="2048.000000pt" viewBox="0 0 2048.000000 2048.000000"
 preserveAspectRatio="xMidYMid meet">
<metadata>
Created by potrace 1.13, written by Peter Selinger 2001-2015
</metadata>
<g transform="translate(0.000000,2048.000000) scale(0.192120,-0.192120)"
fill="#000000" stroke="none">
<path d="M5070 10324 c-747 -50 -1374 -217 -2000 -534 -792 -402 -1485 -1030
-1960 -1779 -61 -95 -160 -268 -160 -277 0 -28 150 71 253 167 76 70 152 156
279 315 219 277 507 579 733 769 318 267 636 474 1010 656 491 238 964 377
1540 451 159 20 223 23 550 23 387 0 479 -6 767 -50 759 -117 1508 -432 2123
-894 251 -189 556 -473 748 -696 47 -55 139 -163 205 -240 162 -191 330 -365
407 -422 74 -55 133 -89 141 -80 15 15 -217 384 -374 592 -480 640 -1083 1139
-1797 1490 -602 296 -1216 460 -1890 505 -136 9 -464 11 -575 4z M2756 8079
c-478 -28 -1006 -152 -1363 -320 -201 -94 -310 -113 -538 -98 -77 5 -148 6
-158 3 -72 -23 -88 -314 -21 -394 16 -18 86 -59 187 -108 246 -120 296 -177
322 -365 8 -56 28 -201 45 -322 100 -717 265 -1126 539 -1337 296 -227 844
-364 1386 -345 376 13 691 83 973 217 260 124 444 301 569 546 109 214 151
369 247 904 47 260 64 315 122 380 55 60 97 84 182 100 169 34 332 -23 398
-137 38 -64 58 -142 110 -438 109 -617 219 -888 452 -1117 306 -301 878 -475
1497 -455 575 19 1072 184 1306 435 228 244 361 633 454 1332 19 146 40 288
46 317 23 117 103 188 343 303 144 70 148 72 168 117 43 98 33 299 -18 350
-24 24 -28 24 -112 17 -148 -13 -309 -7 -394 15 -42 11 -130 44 -195 74 -347
160 -741 262 -1213 313 -211 23 -623 23 -815 0 -462 -56 -850 -187 -1162 -394
-45 -29 -109 -62 -142 -72 -223 -70 -988 -73 -1246 -5 -38 10 -95 39 -160 81
-467 304 -1103 446 -1809 403z m-946 -475 c0 -8 -4 -12 -10 -9 -5 3 -10 1 -10
-5 0 -6 -29 -41 -64 -78 -81 -85 -121 -139 -157 -216 l-29 -61 0 -579 c0 -319
-2 -577 -4 -575 -10 10 -58 274 -91 504 -20 138 -41 270 -47 295 -30 124 -119
260 -262 399 -69 67 -81 97 -43 106 12 3 51 12 87 20 85 19 151 42 285 100
137 59 293 115 323 115 13 0 22 -6 22 -16z m7176 -8 c38 -13 146 -55 239 -94
147 -61 221 -85 358 -116 39 -9 34 -35 -14 -81 -23 -22 -78 -81 -123 -131
-128 -143 -167 -238 -201 -494 -28 -207 -54 -369 -78 -480 l-22 -105 -5 570
-5 570 -28 64 c-33 75 -81 140 -171 235 -36 38 -66 73 -66 77 0 15 44 10 116
-15z m-5487 -91 c472 -55 731 -167 829 -361 53 -105 66 -172 66 -339 0 -331
-60 -693 -149 -898 -53 -124 -94 -186 -180 -273 -68 -68 -96 -88 -185 -132
-256 -125 -532 -181 -835 -168 -407 16 -799 122 -946 254 -36 32 -62 71 -99
143 -99 199 -164 473 -225 953 -52 405 -23 615 91 662 157 65 550 146 844 174
139 13 631 4 789 -15z m4606 1 c238 -32 450 -75 619 -127 125 -39 163 -72 191
-170 58 -201 -45 -977 -179 -1353 -86 -240 -171 -324 -414 -404 -112 -37 -275
-75 -432 -99 -142 -21 -476 -24 -595 -4 -300 49 -552 156 -685 291 -189 190
-286 505 -319 1035 -19 306 25 466 166 597 139 129 471 219 933 252 120 8 609
-4 715 -18z m-3574 -104 c131 -73 258 -104 504 -122 273 -19 642 -8 836 25
113 20 183 45 288 102 79 44 141 68 141 55 0 -3 -31 -50 -68 -106 -81 -119
-118 -195 -144 -290 -16 -63 -18 -116 -18 -559 0 -270 -2 -488 -4 -486 -2 2
-21 87 -40 189 -112 567 -144 657 -299 815 -80 81 -104 100 -177 133 -163 75
-261 74 -425 -3 -66 -32 -97 -55 -176 -135 -150 -151 -179 -221 -254 -610 -20
-102 -48 -237 -63 -300 l-27 -115 -5 530 c-4 368 -9 539 -17 560 -7 17 -18 46
-25 65 -27 69 -61 132 -119 218 -49 74 -55 88 -41 93 9 4 31 -1 47 -11 17 -9
55 -31 86 -48z m4513 -1656 c-44 -134 -141 -288 -228 -365 -53 -45 -176 -120
-176 -105 0 2 -9 0 -20 -6 -43 -23 -18 15 70 106 118 122 162 190 253 394 22
49 83 252 99 330 13 64 13 63 16 -119 2 -150 -1 -194 -14 -235z m-7344 119
c67 -206 148 -341 287 -485 90 -92 118 -134 73 -110 -11 6 -20 8 -20 5 0 -3
-31 10 -69 30 -141 74 -227 178 -312 375 l-39 90 1 188 0 187 28 -105 c15 -58
38 -136 51 -175z m2826 -109 c-45 -152 -200 -342 -346 -425 -41 -24 -83 -45
-93 -46 -9 -2 -22 -7 -27 -10 -6 -3 -10 3 -10 14 0 12 3 21 8 21 15 0 189 176
230 232 83 113 158 262 228 453 l19 50 3 -119 c2 -84 -2 -134 -12 -170z m1655
187 c28 -86 81 -201 127 -278 80 -133 161 -225 323 -366 11 -9 19 -23 19 -30
0 -8 -3 -10 -8 -4 -4 6 -18 12 -32 14 -46 6 -160 75 -233 140 -131 117 -219
261 -232 379 -6 56 1 212 10 212 2 0 13 -30 26 -67z m-2144 -675 c-3 -8 -6 -5
-6 6 -1 11 2 17 5 13 3 -3 4 -12 1 -19z m-1940 -10 c-3 -8 -6 -5 -6 6 -1 11 2
17 5 13 3 -3 4 -12 1 -19z M3466 7290 c-286 -50 -506 -422 -506 -855 0 -444
217 -804 518 -856 79 -14 165 0 247 40 317 157 480 693 349 1148 -102 356
-349 568 -608 523z m189 -298 c81 -42 159 -146 190 -255 14 -48 16 -98 13
-325 -4 -303 -6 -313 -94 -444 -85 -125 -191 -165 -317 -118 -99 37 -194 164
-231 307 -23 88 -23 486 0 564 43 146 136 255 245 288 50 15 148 7 194 -17z
M7060 7286 c-75 -17 -115 -36 -186 -88 -100 -75 -201 -227 -253 -383 -77 -232
-77 -528 0 -760 108 -323 354 -522 590 -476 268 53 477 362 508 751 38 474
-187 899 -508 960 -65 12 -81 12 -151 -4z m200 -296 c55 -28 118 -92 148 -151
50 -100 52 -115 52 -400 0 -263 -1 -269 -26 -339 -30 -83 -92 -178 -140 -215
-108 -83 -253 -67 -350 37 -44 48 -99 144 -118 207 -13 44 -16 105 -16 315 l1
261 29 68 c71 168 181 252 315 244 36 -3 79 -13 105 -27z M642 7067 c-273
-705 -372 -1572 -271 -2371 190 -1509 1075 -2865 2385 -3652 1330 -798 2959
-935 4404 -367 948 372 1780 1047 2345 1903 837 1269 1051 2871 575 4310 -32
96 -69 200 -82 230 l-25 55 -33 -85 c-46 -116 -46 -193 -1 -345 90 -305 139
-544 176 -846 24 -197 18 -1019 -8 -1124 -9 -38 -35 -169 -57 -290 -57 -305
-178 -778 -240 -932 -150 -371 -332 -708 -538 -993 -87 -121 -103 -140 -227
-275 -51 -55 -139 -152 -197 -215 -256 -280 -602 -563 -975 -798 -166 -104
-566 -306 -747 -377 -1084 -424 -2266 -454 -3360 -84 -570 193 -1064 470
-1546 868 -105 87 -417 390 -551 537 -133 144 -395 517 -523 742 -268 473
-466 1029 -555 1562 -41 248 -43 277 -39 865 l4 570 32 183 c30 165 78 374
147 631 29 108 32 194 9 272 -23 77 -45 129 -54 129 -5 0 -26 -46 -48 -103z
M2753 3780 c-40 -24 -63 -67 -63 -118 0 -80 194 -336 445 -588 280 -281 530
-462 874 -634 88 -44 165 -80 171 -80 20 0 9 -19 -50 -90 -33 -40 -62 -83 -65
-96 -3 -13 -7 -35 -10 -48 -14 -67 41 -207 132 -338 107 -154 259 -263 430
-310 65 -17 108 -21 263 -22 166 -1 189 1 225 19 48 24 70 66 79 152 l7 61
-258 4 c-230 4 -265 7 -324 26 -134 44 -258 149 -323 271 -61 116 -66 155 -66
532 l0 337 113 -29 c258 -66 655 -129 815 -129 l62 0 0 -505 0 -505 120 0 120
0 0 505 0 505 63 0 c161 0 504 53 775 120 l152 37 0 -336 c0 -378 -5 -416 -67
-533 -66 -125 -192 -229 -333 -274 -44 -14 -105 -18 -313 -22 l-258 -4 7 -61
c9 -86 31 -128 79 -152 36 -18 59 -20 225 -19 154 1 198 5 261 22 139 38 274
121 361 223 140 165 216 359 185 471 -4 15 -29 55 -55 90 -27 35 -51 68 -55
75 -5 8 47 39 160 96 173 86 324 175 454 267 302 216 624 540 810 818 57 85
69 110 69 143 0 83 -57 139 -141 139 -40 0 -58 -8 -140 -63 -491 -332 -1137
-598 -1699 -701 -269 -49 -398 -61 -670 -60 -282 1 -448 18 -722 75 -538 110
-1118 352 -1603 670 -105 69 -125 79 -165 79 -27 0 -58 -8 -77 -20z m645 -579
c39 -20 263 -122 313 -142 30 -12 72 -21 94 -20 47 2 113 -23 122 -45 3 -8 23
-24 44 -35 22 -11 39 -27 39 -36 0 -26 -24 -87 -37 -96 -7 -4 -13 -17 -13 -29
0 -14 -5 -18 -15 -14 -8 3 -19 -2 -24 -11 -8 -14 -14 -13 -57 12 -156 90 -359
246 -461 354 -55 58 -57 89 -5 62z m3892 -7 c0 -16 -71 -93 -146 -158 -90 -79
-278 -213 -362 -257 -50 -27 -54 -27 -70 -11 -21 21 -72 126 -72 148 0 8 16
24 35 35 19 11 37 28 40 38 7 22 104 55 141 48 29 -5 140 38 313 122 78 38
121 50 121 35z"/>
</g>
</svg>
