<?xml version="1.0" standalone="no"?>
<!DOCTYPE svg PUBLIC "-//W3C//DTD SVG 20010904//EN"
 "http://www.w3.org/TR/2001/REC-SVG-20010904/DTD/svg10.dtd">
<svg version="1.0" xmlns="http://www.w3.org/2000/svg"
 width="2048.000000pt" height="2048.000000pt" viewBox="0 0 2048.000000 2048.000000"
 preserveAspectRatio="xMidYMid meet">
<metadata>
Created by potrace 1.13, written by Peter Selinger 2001-2015
</metadata>
<g transform="translate(0.000000,2048.000000) scale(0.192120,-0.192120)"
fill="#000000" stroke="none">
<path d="M5070 10324 c-297 -20 -550 -54 -801 -108 -1789 -385 -3239 -1742
-3745 -3506 -278 -968 -255 -2013 66 -2970 519 -1548 1776 -2756 3340 -3210
1064 -308 2202 -257 3230 147 1429 560 2544 1781 2969 3250 137 472 194 886
195 1418 1 345 -4 422 -50 725 -247 1631 -1263 3020 -2739 3745 -602 296
-1216 460 -1890 505 -136 9 -464 11 -575 4z m790 -228 c967 -116 1822 -480
2543 -1083 163 -136 458 -406 523 -480 305 -342 501 -628 704 -1028 106 -210
193 -420 222 -535 10 -41 43 -140 72 -220 66 -177 96 -290 96 -364 0 -50 -3
-57 -27 -70 -24 -12 -33 -12 -74 5 -93 36 -204 52 -328 46 -133 -6 -201 -22
-315 -76 -80 -37 -248 -152 -378 -258 -89 -72 -134 -160 -112 -217 3 -9 10
-16 14 -16 5 0 110 76 234 168 318 237 386 267 601 266 102 0 132 -5 200 -27
44 -15 109 -43 145 -64 85 -50 197 -162 236 -238 l32 -60 -24 -60 c-19 -50
-23 -79 -23 -171 -1 -121 7 -157 51 -221 15 -23 28 -52 28 -64 0 -48 -81 -188
-149 -259 -46 -48 -566 -443 -1716 -1306 -1871 -1403 -1704 -1277 -1704 -1285
-1 -3 35 -9 80 -12 114 -9 133 -20 137 -80 2 -26 7 -47 12 -47 5 0 60 31 122
68 237 144 2895 1786 2938 1815 25 17 64 49 88 71 l43 40 -24 -55 c-14 -29
-52 -110 -85 -179 -33 -69 -81 -188 -107 -265 -127 -369 -296 -734 -473 -1020
-185 -299 -470 -660 -648 -821 -534 -483 -822 -690 -1289 -924 -249 -125 -411
-193 -660 -275 -1102 -365 -2340 -313 -3413 142 -548 233 -1024 549 -1485 985
-171 162 -298 306 -454 513 -105 141 -253 357 -253 371 0 2 -20 35 -43 72 -61
94 -85 137 -168 302 -212 426 -361 882 -438 1340 -41 248 -43 277 -39 865 l4
570 32 183 c86 482 227 914 432 1322 350 698 794 1232 1414 1699 421 318 951
590 1446 745 334 103 750 182 1105 210 131 10 746 -3 875 -18z m4174 -5392
c11 -30 6 -130 -10 -185 -39 -131 -79 -176 -259 -294 -120 -79 -787 -490
-1125 -695 -370 -224 -482 -290 -490 -290 -4 0 -10 -3 -12 -7 -1 -5 -19 -16
-38 -25 -19 -10 -60 -31 -90 -48 -115 -62 -89 -22 64 100 112 88 1940 1459
1947 1460 4 0 10 -7 13 -16z M4105 8636 c-66 -31 -128 -99 -150 -167 -92 -277
-319 -529 -615 -683 -276 -144 -532 -206 -930 -227 -220 -11 -253 -19 -318
-73 -52 -45 -84 -108 -90 -181 -10 -125 42 -220 149 -274 59 -30 68 -31 183
-31 723 1 1378 249 1770 671 216 231 392 559 389 724 -1 72 -21 121 -71 177
-78 87 -211 114 -317 64z m105 -336 c0 -75 -25 -132 -116 -270 -76 -114 -220
-267 -326 -345 -117 -87 -345 -205 -400 -208 -10 -1 -18 -5 -18 -10 0 -4 -4
-6 -9 -3 -5 4 -11 1 -13 -6 -3 -8 -7 -8 -11 -2 -3 6 25 30 64 55 351 219 553
423 709 718 36 67 89 131 109 131 7 0 11 -22 11 -60z m-913 -852 c-3 -8 -6 -5
-6 6 -1 11 2 17 5 13 3 -3 4 -12 1 -19z m-20 -10 c-3 -8 -6 -5 -6 6 -1 11 2
17 5 13 3 -3 4 -12 1 -19z M6325 8636 c-56 -26 -116 -87 -141 -143 -10 -23
-17 -65 -17 -108 -1 -83 20 -130 132 -296 331 -494 852 -864 1422 -1008 200
-51 347 -72 544 -78 182 -6 222 1 287 50 66 50 100 113 106 195 6 92 -16 158
-71 215 -54 55 -108 80 -182 84 -549 31 -861 133 -1215 397 -175 131 -383 359
-472 520 -76 136 -161 196 -278 196 -47 0 -79 -7 -115 -24z m183 -301 c16 -14
67 -73 112 -132 128 -170 246 -299 365 -401 111 -95 334 -251 426 -297 27 -14
49 -32 49 -40 0 -19 1 -19 -51 4 -24 11 -47 17 -51 15 -4 -3 -8 0 -8 5 0 6 -3
10 -7 9 -19 -6 -290 149 -378 216 -138 105 -259 222 -395 382 -44 52 -119 168
-131 202 -22 63 15 83 69 37z m969 -887 c-3 -8 -6 -5 -6 6 -1 11 2 17 5 13 3
-3 4 -12 1 -19z m20 -10 c-3 -8 -6 -5 -6 6 -1 11 2 17 5 13 3 -3 4 -12 1 -19z
M3705 6710 c-119 -24 -221 -86 -327 -199 -90 -96 -150 -200 -200 -345 -54
-161 -71 -279 -65 -461 7 -218 40 -352 128 -525 217 -426 636 -532 944 -238
43 40 94 98 115 128 181 267 242 647 159 990 -68 276 -230 507 -421 598 -121
59 -222 74 -333 52z m173 -280 c73 -17 133 -51 192 -109 65 -64 102 -126 136
-228 23 -69 24 -82 24 -343 0 -265 -1 -273 -26 -348 -50 -150 -144 -275 -248
-330 -46 -24 -61 -27 -156 -27 -101 0 -108 1 -168 34 -107 58 -194 175 -247
332 -24 70 -25 81 -25 338 0 200 4 277 14 311 83 265 292 419 504 370z M6745
6707 c-310 -80 -533 -407 -575 -844 -33 -341 77 -695 279 -900 122 -124 255
-185 406 -185 313 -2 577 275 671 704 25 112 29 352 10 473 -37 222 -128 422
-254 556 -128 136 -248 197 -402 205 -50 2 -105 -2 -135 -9z m200 -281 c124
-33 228 -126 290 -261 45 -99 47 -114 43 -435 l-3 -305 -32 -72 c-62 -141
-142 -236 -238 -284 -73 -35 -198 -39 -280 -8 -122 45 -247 207 -295 382 -20
71 -21 98 -18 330 3 230 5 257 25 314 92 254 302 394 508 339z M8723 5736
c-15 -13 -63 -48 -105 -79 l-77 -55 160 -208 c88 -115 167 -215 174 -223 12
-12 28 -3 112 64 54 43 100 80 102 81 4 4 -318 432 -330 440 -4 2 -20 -7 -36
-20z M8330 5582 c-70 -38 -126 -95 -137 -140 -10 -43 -6 -92 7 -92 11 0 286
206 295 220 8 12 -54 40 -88 40 -13 0 -48 -13 -77 -28z M8053 5231 c-56 -42
-101 -79 -100 -83 6 -23 334 -436 344 -433 7 2 55 38 107 80 l94 76 -166 220
c-91 120 -168 219 -171 218 -3 -1 -52 -35 -108 -78z M7744 5140 c-52 -26 -119
-90 -144 -140 -20 -39 -28 -110 -12 -110 12 0 306 224 309 236 5 15 -41 34
-80 34 -18 0 -50 -9 -73 -20z M7449 4788 c-52 -39 -100 -76 -108 -83 -11 -11
2 -33 83 -137 53 -67 96 -127 94 -133 -2 -5 -90 -74 -196 -154 -169 -126 -194
-142 -205 -127 -7 8 -50 67 -97 129 l-84 114 -106 -81 c-58 -44 -104 -84 -102
-89 1 -5 46 -63 98 -129 53 -66 94 -121 92 -122 -2 -1 -89 -66 -194 -144 -105
-78 -193 -142 -196 -142 -3 0 -50 59 -103 130 l-97 130 -47 -38 c-25 -21 -74
-58 -108 -82 -54 -38 -61 -46 -50 -59 85 -100 188 -244 181 -251 -5 -5 -96
-74 -202 -154 l-192 -145 -88 117 c-49 64 -93 124 -98 133 -8 14 -24 5 -111
-60 -57 -43 -106 -80 -109 -84 -3 -3 37 -61 89 -129 53 -68 97 -126 99 -130 2
-4 -116 -97 -262 -206 l-266 -200 -138 -16 c-177 -20 -359 -58 -489 -101 -56
-19 -103 -32 -105 -31 -1 2 122 95 275 207 152 112 286 212 297 222 12 9 115
88 230 175 115 86 211 162 213 169 6 18 -50 43 -95 43 -52 0 -99 -20 -199 -87
-127 -85 -163 -137 -163 -237 l0 -55 -37 -7 c-410 -71 -758 -255 -978 -515
-69 -81 -161 -225 -172 -267 -9 -36 13 -94 47 -127 27 -26 39 -30 88 -30 48 0
64 5 105 33 135 94 385 165 732 209 180 23 895 26 1070 5 372 -45 611 -110
761 -207 54 -35 78 -45 112 -45 56 0 99 25 123 72 27 54 24 84 -21 166 -44 80
-139 212 -152 212 -5 0 -25 -12 -44 -26 l-35 -27 -97 46 c-53 25 -122 55 -152
67 -30 12 -68 28 -85 35 -43 20 -212 61 -345 84 -151 27 -321 41 -500 42 -95
0 -138 3 -125 9 11 5 96 39 189 75 93 36 207 87 252 113 83 47 83 47 67 71
-15 23 -14 25 23 62 22 21 71 54 110 73 l71 34 26 -32 c24 -29 26 -30 26 -9 1
15 12 28 34 39 17 9 51 30 75 46 23 16 47 26 52 23 12 -8 38 12 136 104 42 39
80 71 86 71 5 0 0 16 -11 36 l-22 37 23 25 c37 41 61 60 98 78 19 9 48 23 64
30 28 14 31 13 52 -13 22 -27 22 -27 55 -11 80 38 230 165 288 243 4 6 18 17
32 26 23 16 24 17 7 46 -17 29 -17 29 23 70 22 23 69 55 105 73 l66 32 29 -28
c26 -25 29 -26 29 -8 0 23 99 82 110 65 6 -11 114 72 182 139 14 15 40 39 57
53 l31 26 -20 34 -21 35 57 51 c30 28 62 51 70 51 7 0 30 9 51 21 l38 21 25
-29 25 -30 50 23 c90 43 146 25 215 -69 43 -59 40 -93 -12 -144 -24 -22 -430
-331 -903 -685 -473 -355 -879 -666 -903 -692 -55 -60 -72 -101 -72 -175 0
-55 15 -111 29 -111 8 0 372 271 1317 981 857 644 854 642 854 714 0 48 -35
110 -137 247 -164 220 -207 258 -290 258 -44 0 -76 -18 -191 -107 -46 -35 -88
-63 -93 -61 -4 2 -51 60 -102 130 l-94 126 -94 -70z M7112 4630 c-91 -46 -152
-105 -152 -148 1 -65 11 -62 169 58 83 62 148 117 145 121 -13 21 -85 7 -162
-31z M6484 4220 c-63 -35 -120 -100 -128 -144 -8 -39 3 -96 17 -96 8 0 159
110 296 216 13 10 10 15 -19 33 -50 30 -104 27 -166 -9z M5901 3780 c-62 -29
-125 -83 -145 -124 -17 -35 -21 -112 -8 -133 6 -9 54 22 165 105 86 64 157
120 157 123 0 14 -50 39 -87 44 -27 4 -51 -1 -82 -15z"/>
</g>
</svg>
