<?xml version="1.0" standalone="no"?>
<!DOCTYPE svg PUBLIC "-//W3C//DTD SVG 20010904//EN"
 "http://www.w3.org/TR/2001/REC-SVG-20010904/DTD/svg10.dtd">
<svg version="1.0" xmlns="http://www.w3.org/2000/svg"
 width="2048.000000pt" height="2048.000000pt" viewBox="0 0 2048.000000 2048.000000"
 preserveAspectRatio="xMidYMid meet">
<metadata>
Created by potrace 1.13, written by Peter Selinger 2001-2015
</metadata>
<g transform="translate(0.000000,2048.000000) scale(0.192120,-0.192120)"
fill="#000000" stroke="none">
<path d="M6590 9594 c-167 -44 -287 -149 -389 -339 -35 -66 -100 -187 -143
-268 l-80 -149 30 -56 c26 -49 491 -1316 552 -1505 l22 -69 -32 -33 c-18 -19
-36 -50 -41 -74 -16 -73 6 -144 264 -851 266 -726 253 -698 382 -827 l92 -93
-579 0 -578 0 -10 23 c-41 96 -1100 3034 -1109 3075 -15 70 -14 137 2 149 6 5
32 16 57 23 33 10 60 30 100 73 182 196 216 217 350 224 93 5 121 0 253 -46
49 -17 99 -31 113 -31 31 0 104 29 104 42 0 21 -57 82 -115 124 -294 209 -708
86 -836 -248 -12 -32 -40 -77 -66 -105 -115 -123 -173 -311 -145 -465 9 -47
296 -850 577 -1613 40 -110 136 -373 213 -585 77 -212 161 -440 186 -508 25
-68 46 -125 46 -127 0 -2 -206 -5 -457 -7 -521 -5 -506 -3 -663 -88 -122 -67
-178 -108 -241 -178 -160 -180 -238 -383 -225 -593 11 -173 66 -335 158 -456
l47 -63 -45 -59 c-110 -146 -266 -225 -444 -225 -245 0 -457 157 -531 394 -20
63 -20 87 -19 987 1 897 1 925 21 988 11 37 26 68 32 70 7 2 35 6 62 8 60 5
64 6 190 67 126 62 176 74 275 68 134 -8 262 -85 316 -192 49 -96 54 -131 54
-428 0 -174 4 -279 10 -283 6 -3 10 -19 10 -35 0 -44 31 -88 78 -111 24 -12
46 -18 50 -14 4 4 7 183 7 398 0 377 -1 395 -22 462 -88 280 -378 446 -662
380 -93 -22 -176 -70 -256 -148 -38 -38 -88 -78 -110 -89 -101 -52 -214 -170
-270 -284 -65 -131 -65 -126 -65 -979 0 -631 -3 -782 -15 -838 -41 -193 -183
-346 -375 -404 -128 -39 -305 -23 -430 39 -75 36 -185 140 -219 206 l-22 43
33 47 c38 53 53 83 64 127 4 17 10 307 13 645 6 577 7 618 26 660 78 184 235
272 430 242 80 -12 135 -36 228 -95 71 -45 132 -60 176 -41 17 7 31 17 31 21
0 22 -65 116 -111 161 -103 101 -224 146 -394 145 -125 -1 -215 -25 -305 -83
-103 -66 -192 -191 -225 -315 -13 -53 -18 -520 -16 -1653 l1 -242 63 -46 c143
-107 291 -154 483 -154 193 0 326 37 467 130 67 44 180 152 219 210 l17 25 22
-30 c43 -58 148 -155 217 -200 139 -89 290 -135 452 -135 115 0 203 18 314 63
137 56 205 107 332 250 l61 68 64 -35 c123 -68 153 -71 627 -71 l424 0 -49
-39 c-83 -68 -227 -220 -300 -317 -294 -393 -459 -873 -494 -1431 -10 -165 -9
-181 8 -215 44 -91 151 -110 221 -40 32 32 36 42 39 99 2 35 8 128 14 207 62
853 515 1546 1117 1707 31 8 114 19 183 23 142 9 179 25 205 87 26 62 13 114
-41 164 l-27 25 -846 5 c-843 5 -847 5 -912 27 -181 62 -333 231 -370 410 -18
84 -8 234 20 308 49 129 144 239 260 299 132 70 59 66 1357 66 1217 0 1226 0
1326 -42 51 -22 52 -24 62 -122 3 -32 19 -91 35 -130 16 -39 42 -102 58 -141
16 -38 48 -135 72 -215 24 -80 68 -215 98 -300 108 -307 139 -406 152 -475 7
-38 23 -124 37 -191 23 -117 24 -133 21 -455 -4 -325 -5 -337 -30 -432 -98
-360 -255 -662 -506 -975 -372 -465 -914 -815 -1490 -962 -248 -63 -348 -74
-667 -75 -254 0 -309 3 -445 24 -581 88 -1092 310 -1540 669 -565 452 -970
1119 -1105 1822 -9 47 -23 110 -32 140 -16 58 -168 376 -184 386 -6 3 -8 -13
-5 -43 3 -26 8 -97 11 -157 11 -214 79 -541 163 -786 163 -476 415 -887 767
-1249 404 -415 905 -718 1450 -876 281 -81 537 -122 835 -132 668 -23 1326
199 1889 636 118 93 350 318 453 441 414 493 648 1084 648 1635 0 206 -40 376
-251 1075 -168 558 -185 606 -242 693 -22 34 -52 80 -66 102 -40 61 -177 200
-232 236 -60 38 -144 150 -175 234 -13 33 -144 393 -293 800 -148 407 -287
789 -310 848 l-40 108 60 162 c34 89 80 216 104 282 24 66 142 391 264 723
134 367 225 629 232 670 26 164 -33 342 -156 466 -135 137 -347 197 -525 150z
m286 -209 c75 -37 152 -116 192 -196 29 -60 32 -75 32 -156 0 -109 0 -110
-160 -548 -70 -192 -134 -379 -143 -415 -20 -82 -34 -200 -43 -363 -3 -71 -10
-125 -15 -120 -10 10 -88 216 -316 838 -188 512 -243 667 -237 677 2 3 27 14
56 24 51 17 97 56 191 162 46 51 104 89 172 114 74 27 196 19 271 -17z m-921
-5665 c8 -13 -16 -49 -38 -56 -30 -9 -64 4 -70 28 -3 12 -4 25 -1 30 7 11 102
10 109 -2z M5256 6648 c-109 -291 -461 -1266 -477 -1321 l-8 -27 27 19 c48 33
188 186 216 234 67 113 205 502 241 681 19 91 27 167 32 304 3 100 4 182 1
182 -3 0 -17 -33 -32 -72z"/>
</g>
</svg>
