<?xml version="1.0" standalone="no"?>
<!DOCTYPE svg PUBLIC "-//W3C//DTD SVG 20010904//EN"
 "http://www.w3.org/TR/2001/REC-SVG-20010904/DTD/svg10.dtd">
<svg version="1.0" xmlns="http://www.w3.org/2000/svg"
 width="2048.000000pt" height="2048.000000pt" viewBox="0 0 2048.000000 2048.000000"
 preserveAspectRatio="xMidYMid meet">
<metadata>
Created by potrace 1.13, written by Peter Selinger 2001-2015
</metadata>
<g transform="translate(0.000000,2048.000000) scale(0.192120,-0.192120)"
fill="#000000" stroke="none">
<path d="M4551 10304 c-116 -31 -233 -120 -312 -237 -52 -78 -143 -266 -300
-622 -347 -788 -588 -1185 -919 -1515 -177 -177 -283 -254 -497 -361 -350
-174 -576 -330 -870 -597 -345 -315 -694 -775 -902 -1190 -193 -384 -318 -817
-360 -1246 -14 -139 -14 -492 -1 -627 61 -615 288 -1179 658 -1639 104 -129
323 -347 457 -454 645 -516 1565 -832 2515 -865 742 -25 1431 97 1898 336 184
94 276 125 472 156 120 19 174 21 485 21 499 0 915 -41 1885 -184 691 -101
814 -111 963 -71 114 30 191 74 278 161 116 115 169 242 169 405 0 247 -153
456 -397 540 -37 13 -151 38 -253 55 -351 59 -785 138 -1655 300 -670 125
-715 132 -733 125 -12 -4 -14 -19 -9 -71 10 -125 84 -199 245 -243 109 -30
1204 -236 1972 -370 316 -55 387 -74 459 -120 77 -50 81 -60 81 -214 0 -101
-4 -142 -16 -165 -22 -45 -88 -98 -153 -124 -50 -20 -72 -22 -221 -22 -150 1
-212 8 -695 77 -1058 153 -1432 190 -1915 191 -295 0 -419 -9 -608 -45 -139
-27 -237 -62 -427 -152 -189 -90 -277 -123 -451 -171 -365 -101 -743 -148
-1184 -148 -521 0 -973 69 -1435 219 -858 279 -1494 771 -1830 1416 -144 275
-233 543 -284 846 -19 111 -21 165 -21 530 0 361 2 419 20 526 82 485 259 912
573 1379 128 192 276 367 481 571 277 275 462 407 916 650 249 133 429 270
609 463 315 336 556 734 866 1427 257 575 298 651 386 715 175 127 420 44 536
-180 l28 -55 3 -255 c4 -279 -3 -335 -60 -520 -79 -252 -140 -367 -449 -845
-105 -163 -221 -391 -254 -499 -34 -112 -36 -283 -4 -351 29 -61 95 -133 192
-208 l80 -62 -109 -2 c-430 -9 -886 -40 -1029 -69 -227 -46 -412 -219 -497
-464 -32 -93 -33 -99 -33 -260 0 -161 1 -168 33 -260 41 -117 95 -210 166
-285 l54 -58 -39 -52 c-46 -61 -101 -176 -124 -260 -25 -93 -31 -265 -11 -362
52 -258 228 -473 474 -580 45 -20 62 -32 58 -43 -2 -8 -17 -49 -33 -90 -25
-69 -28 -86 -28 -220 0 -137 2 -150 31 -232 99 -279 337 -489 654 -581 273
-79 986 -186 1875 -282 182 -19 458 -49 615 -66 409 -45 495 -38 678 55 120
61 226 179 294 326 22 47 60 126 84 175 101 206 109 402 23 575 -61 120 -213
235 -364 274 -83 21 -477 87 -483 81 -3 -3 2 -5 11 -5 13 0 17 -9 17 -35 0
-45 18 -81 62 -121 45 -43 96 -67 243 -115 69 -22 125 -44 125 -48 0 -4 22
-18 50 -31 59 -28 90 -58 125 -125 26 -47 27 -56 23 -165 -4 -112 -5 -118 -58
-245 -29 -71 -71 -184 -94 -250 l-41 -120 -50 -18 c-74 -26 -218 -18 -640 36
-198 25 -493 62 -655 82 -888 108 -1527 212 -1728 281 -149 51 -264 124 -350
220 -135 151 -169 352 -91 533 l19 46 503 1 c513 0 722 6 1677 49 943 43 964
45 1085 85 81 27 153 73 227 146 75 74 130 165 175 291 20 54 50 136 67 183
28 78 31 95 31 215 0 150 -18 221 -84 322 -109 169 -245 221 -645 245 -178 11
-188 13 -166 27 141 93 260 268 311 457 18 65 22 108 23 249 1 152 -1 176 -21
232 -72 197 -220 337 -413 389 -106 28 -243 23 -1030 -38 -140 -10 -181 -9
-420 11 -354 30 -448 49 -541 113 -97 66 -125 155 -91 288 40 151 123 305 360
663 253 382 358 622 438 1002 37 172 43 394 16 525 -87 422 -445 712 -771 624z
m194 -3399 c68 -17 262 -38 510 -55 150 -11 204 -10 455 9 770 56 834 52 964
-54 23 -18 57 -62 76 -97 34 -63 34 -64 38 -215 3 -119 -1 -184 -18 -305 -13
-84 -27 -161 -32 -170 -10 -21 -69 -53 -148 -80 -156 -54 -1097 -161 -2320
-263 -370 -31 -437 -34 -514 -25 -212 26 -374 120 -480 278 -116 175 -129 396
-33 576 65 123 210 238 366 291 116 39 517 113 836 153 l140 18 50 -22 c28
-13 77 -30 110 -39z m-1456 -1215 c46 -45 81 -88 81 -99 0 -23 -57 -79 -99
-97 l-31 -13 -1 67 c0 41 -9 94 -23 137 -20 61 -23 85 -12 85 2 0 40 -36 85
-80z m3377 42 c6 -4 15 -18 19 -32 14 -48 47 -90 88 -114 44 -25 81 -35 232
-61 103 -18 185 -43 185 -55 0 -5 9 -12 21 -15 26 -9 89 -64 89 -79 0 -6 9
-22 20 -36 17 -22 20 -41 20 -156 0 -121 -2 -138 -34 -240 -19 -60 -42 -143
-50 -185 -33 -163 -42 -173 -182 -210 -102 -26 -406 -35 -1434 -43 -410 -4
-988 -11 -1285 -17 -533 -12 -541 -11 -622 9 -126 32 -207 76 -288 157 -185
184 -229 459 -109 684 49 93 59 104 86 98 255 -56 240 -57 1363 68 1284 143
1689 192 1755 214 59 20 108 25 126 13z m-2972 -1411 c17 -18 16 -21 -1 -58
-10 -21 -25 -38 -33 -38 -8 1 -20 -3 -26 -7 -30 -22 -26 86 4 110 22 17 36 15
56 -7z"/>
</g>
</svg>
