<?xml version="1.0" standalone="no"?>
<!DOCTYPE svg PUBLIC "-//W3C//DTD SVG 20010904//EN"
 "http://www.w3.org/TR/2001/REC-SVG-20010904/DTD/svg10.dtd">
<svg version="1.0" xmlns="http://www.w3.org/2000/svg"
 width="2048.000000pt" height="2048.000000pt" viewBox="0 0 2048.000000 2048.000000"
 preserveAspectRatio="xMidYMid meet">
<metadata>
Created by potrace 1.13, written by Peter Selinger 2001-2015
</metadata>
<g transform="translate(0.000000,2048.000000) scale(0.192120,-0.192120)"
fill="#000000" stroke="none">
<path d="M6570 10275 c-184 -42 -320 -169 -404 -377 -44 -110 -70 -227 -191
-843 -241 -1228 -308 -1560 -380 -1885 -70 -314 -147 -617 -165 -649 -9 -16
-15 39 -25 214 -10 152 -39 307 -74 381 -58 125 -180 220 -331 259 -101 26
-282 17 -375 -20 -38 -15 -106 -40 -150 -55 -230 -79 -363 -187 -445 -362 -57
-121 -61 -167 -100 -983 -43 -908 -53 -1241 -54 -1783 l-1 -552 -55 -21 c-232
-88 -472 -10 -624 205 -94 132 -133 239 -191 530 -74 373 -132 778 -249 1741
-36 297 -75 610 -86 695 -17 128 -19 167 -10 224 17 113 20 116 140 155 58 19
155 54 215 77 320 122 514 94 604 -85 16 -31 44 -104 61 -161 54 -174 110
-262 183 -289 35 -13 74 -14 82 -2 8 15 -61 418 -84 484 -69 199 -204 330
-387 373 -136 32 -340 0 -464 -72 -25 -14 -80 -41 -122 -59 -153 -65 -290
-179 -358 -298 -16 -29 -44 -94 -61 -145 -31 -92 -31 -96 -26 -240 10 -312
178 -1750 263 -2257 102 -609 166 -783 363 -988 222 -231 568 -312 826 -193
l54 24 45 -92 c86 -177 205 -299 371 -381 131 -65 195 -80 350 -79 155 0 241
20 375 89 157 82 278 207 357 370 96 200 108 312 108 975 -1 598 -15 880 -100
1935 -30 374 -30 344 -6 338 39 -10 117 26 164 76 56 60 76 98 120 233 67 201
121 446 302 1363 207 1053 273 1380 302 1495 45 184 118 305 213 352 78 38
110 44 110 20 0 -17 9 -19 78 -20 146 -2 262 -45 313 -116 l30 -41 -3 -335 -4
-335 -57 -415 c-32 -228 -107 -764 -168 -1190 -62 -432 -115 -837 -119 -915
-5 -77 -16 -192 -24 -255 -8 -63 -38 -281 -65 -485 -98 -732 -95 -703 -96
-1015 0 -248 2 -294 19 -355 51 -190 192 -372 342 -442 53 -25 69 -28 159 -27
80 1 116 7 180 28 157 53 342 153 643 349 352 230 541 318 842 392 185 45 298
59 427 52 194 -10 318 -59 422 -166 99 -102 101 -107 101 -242 0 -111 -1 -117
-29 -160 -64 -96 -140 -139 -594 -340 -656 -290 -1053 -512 -1372 -765 -122
-96 -395 -366 -492 -486 -77 -94 -147 -207 -225 -363 -334 -667 -737 -1109
-1248 -1369 -310 -159 -674 -264 -1080 -313 -182 -22 -654 -24 -840 -5 -1075
115 -2001 601 -2418 1268 -164 263 -291 602 -361 959 -56 286 -55 266 -58 967
l-4 658 26 202 c45 354 103 644 180 913 106 367 107 379 102 1150 -4 593 -6
661 -30 933 -29 313 -59 607 -107 1030 -25 219 -30 304 -30 498 0 184 3 241
14 263 24 45 100 108 155 128 35 12 51 23 51 35 0 24 37 32 123 26 116 -8 199
-64 260 -176 36 -66 48 -116 107 -457 94 -537 317 -1739 346 -1862 18 -79 66
-188 97 -221 36 -38 91 -62 147 -62 27 0 50 3 50 8 0 13 -59 337 -145 797
-115 612 -237 1286 -280 1545 -49 298 -80 382 -182 507 -45 54 -152 127 -228
155 -74 26 -235 36 -319 18 -73 -15 -198 -78 -257 -129 -106 -92 -181 -244
-202 -411 -10 -81 -6 -127 56 -691 117 -1053 146 -1419 154 -1939 9 -539 -13
-776 -96 -1045 -207 -674 -301 -1591 -240 -2335 53 -651 228 -1224 498 -1633
180 -272 424 -515 721 -719 923 -634 2283 -840 3370 -511 362 109 693 280 956
493 117 95 303 280 409 405 196 234 330 443 515 805 98 193 150 282 211 363
154 205 365 394 649 582 277 183 564 331 1105 570 526 232 645 303 733 434
110 165 118 336 25 524 -54 107 -197 246 -318 309 -118 60 -228 94 -356 108
-145 16 -334 -6 -569 -65 -308 -78 -526 -181 -878 -417 -392 -262 -589 -358
-737 -358 -83 0 -119 15 -171 72 -119 129 -147 405 -90 883 42 358 103 801
270 1980 315 2217 338 2424 287 2616 -57 217 -196 356 -416 414 -86 23 -274
28 -355 10z m-1630 -3136 c25 -5 68 -26 96 -45 69 -47 104 -115 148 -285 19
-74 41 -150 50 -170 22 -51 62 -97 106 -119 l38 -19 7 -118 c10 -145 -1 -1480
-15 -1883 -13 -388 -37 -764 -55 -872 -29 -171 -92 -295 -204 -401 -325 -306
-863 -137 -965 303 -21 92 -22 156 -9 775 7 303 15 885 18 1295 8 941 17 1190
44 1286 35 124 47 137 129 150 19 3 46 10 60 15 13 5 27 7 32 4 4 -2 59 11
121 31 198 63 298 76 399 53z m-957 -3645 c10 -61 -9 -80 -45 -47 -22 20 -23
51 -2 74 22 25 41 14 47 -27z M3952 6660 c0 -14 2 -19 5 -12 2 6 2 18 0 25 -3
6 -5 1 -5 -13z"/>
</g>
</svg>
