<?xml version="1.0" standalone="no"?>
<!DOCTYPE svg PUBLIC "-//W3C//DTD SVG 20010904//EN"
 "http://www.w3.org/TR/2001/REC-SVG-20010904/DTD/svg10.dtd">
<svg version="1.0" xmlns="http://www.w3.org/2000/svg"
 width="2048.000000pt" height="2048.000000pt" viewBox="0 0 2048.000000 2048.000000"
 preserveAspectRatio="xMidYMid meet">
<metadata>
Created by potrace 1.13, written by Peter Selinger 2001-2015
</metadata>
<g transform="translate(0.000000,2048.000000) scale(0.192120,-0.192120)"
fill="#000000" stroke="none">
<path d="M5065 10094 c-22 -2 -89 -9 -150 -14 -1279 -124 -2213 -939 -2381
-2075 -36 -245 -17 -689 42 -965 70 -335 206 -559 309 -512 34 15 51 55 76
169 86 400 280 803 508 1057 67 75 71 81 71 127 0 122 102 262 225 308 83 32
207 27 281 -12 45 -23 56 -25 95 -16 86 20 200 -15 278 -86 23 -21 43 -36 45
-34 2 2 20 54 40 114 45 138 94 222 169 292 109 100 230 147 382 146 87 0 113
-4 205 -35 232 -79 1028 -361 1070 -380 25 -11 110 -42 190 -70 80 -28 171
-66 204 -86 119 -72 215 -201 251 -338 17 -66 20 -182 5 -233 -5 -19 -8 -36
-6 -38 2 -2 72 -7 157 -11 l152 -7 40 -65 c103 -169 219 -372 323 -569 118
-223 147 -264 201 -287 169 -73 293 414 295 1165 1 210 -2 263 -20 363 -50
276 -142 518 -290 760 -262 433 -638 778 -1101 1012 -316 159 -608 249 -981
301 -109 16 -586 29 -685 19z m615 -314 c1051 -122 1903 -774 2144 -1642 14
-47 16 -133 16 -562 0 -539 -3 -577 -46 -548 -13 9 -78 109 -175 272 -91 154
-208 278 -307 328 -35 17 -72 42 -82 55 -11 13 -46 80 -78 148 -89 187 -220
339 -373 430 -82 49 -358 165 -509 213 -63 21 -187 66 -275 101 -158 62 -344
125 -665 225 -186 58 -282 70 -396 51 -153 -27 -309 -116 -433 -248 -41 -43
-95 -99 -120 -126 -24 -26 -56 -50 -69 -54 -36 -9 -156 4 -252 28 -162 39
-310 21 -426 -53 -116 -74 -244 -217 -299 -335 -87 -184 -104 -214 -177 -313
-90 -125 -119 -172 -209 -350 -38 -74 -78 -146 -89 -160 -18 -24 -20 -24 -37
-7 -17 16 -18 47 -18 450 0 474 -2 454 66 662 45 136 158 356 246 479 90 127
261 309 377 403 403 324 928 514 1556 563 139 10 499 5 630 -10z M5164 8425
c-9 -22 -94 -260 -189 -530 -95 -269 -185 -523 -200 -563 -15 -41 -25 -75 -23
-76 9 -8 259 -88 261 -85 4 5 344 975 388 1107 17 51 29 96 26 99 -3 3 -33 -4
-66 -15 -33 -11 -69 -18 -81 -15 -11 3 -38 30 -60 61 l-39 56 -17 -39z M5952
8163 c-5 -16 -67 -190 -136 -388 -70 -198 -161 -456 -202 -573 -42 -118 -73
-216 -69 -220 10 -11 248 -91 256 -87 4 3 10 17 14 32 3 15 88 259 187 543
149 424 217 625 218 637 0 0 -29 -8 -63 -19 -86 -28 -108 -21 -149 47 -18 30
-36 55 -39 55 -4 0 -11 -12 -17 -27z M4200 8045 c0 -3 7 -19 15 -36 9 -16 34
-107 56 -201 22 -95 42 -174 44 -177 6 -5 3 -11 70 189 30 90 55 170 55 177 0
11 -6 10 -30 -2 -44 -23 -90 -19 -141 13 -67 43 -69 44 -69 37z M6610 7892
c39 -92 53 -192 40 -282 -11 -77 -19 -100 -279 -844 -95 -269 -170 -490 -168
-492 2 -3 59 47 126 111 67 63 130 115 140 115 14 0 24 -14 37 -56 9 -30 31
-74 47 -97 l31 -42 14 35 c38 91 344 978 345 1000 2 24 0 25 -48 22 -27 -1
-65 -7 -83 -13 -56 -18 -62 0 -59 176 2 125 -1 159 -17 205 -27 78 -49 120
-91 171 -57 68 -66 66 -35 -9z M2424 6929 c-23 -49 -53 -175 -64 -259 -35
-292 37 -598 184 -775 78 -94 143 -139 227 -157 l56 -11 6 -181 c9 -257 43
-468 109 -676 38 -122 87 -240 99 -240 5 0 9 63 9 140 0 114 -7 179 -35 347
-37 221 -55 377 -55 486 0 38 -4 67 -10 67 -5 0 -10 7 -10 15 0 20 -46 94 -79
125 -14 14 -55 49 -91 77 -103 81 -158 145 -199 236 -39 84 -73 208 -91 332
-6 39 -16 102 -21 140 -6 39 -14 135 -17 215 -6 120 -9 140 -18 119z M8238
6740 c-5 -151 -8 -179 -47 -333 -80 -319 -144 -428 -317 -543 -120 -80 -159
-156 -169 -329 -17 -325 -86 -619 -209 -892 -125 -279 -271 -488 -497 -713
-195 -194 -378 -323 -665 -469 -117 -59 -171 -92 -195 -119 -79 -90 -74 -75
-77 -221 -2 -73 -1 -144 2 -156 4 -14 22 -31 48 -44 l43 -21 5 176 5 176 87
33 c476 184 911 548 1202 1005 80 125 192 367 245 525 84 255 118 448 128 731
l6 182 41 6 c133 22 272 158 350 344 96 228 111 533 38 767 l-19 60 -5 -165z
M6313 6205 c-29 -8 -78 -28 -110 -44 l-58 -29 -69 -197 c-37 -108 -66 -198
-64 -200 2 -2 31 7 65 20 111 45 195 58 378 59 200 1 301 -19 431 -85 85 -42
114 -47 138 -24 37 38 29 71 -52 195 -49 74 -175 197 -246 239 -121 72 -290
99 -413 66z m176 -204 c-12 -34 -23 -60 -25 -58 -2 2 6 32 17 66 12 34 23 60
25 58 2 -2 -6 -32 -17 -66z M3861 5893 c-21 -45 -132 -249 -596 -1103 -1219
-2241 -1225 -2254 -1308 -2480 -318 -866 -227 -1493 259 -1780 145 -86 291
-135 526 -177 85 -15 346 -17 3146 -20 l3053 -3 -3 782 -3 783 -27 98 c-32
115 -106 275 -171 366 -176 248 -454 417 -762 461 -42 6 -418 10 -942 10
l-873 0 0 -192 c0 -158 -4 -208 -20 -276 -69 -287 -274 -509 -560 -604 -90
-30 -102 -32 -250 -32 -143 0 -162 2 -240 28 -159 53 -266 120 -371 234 -106
115 -197 306 -214 453 l-7 56 210 474 c116 261 249 562 296 669 l85 195 536 3
c294 1 535 5 535 8 0 4 -20 36 -44 73 -180 269 -454 452 -701 468 l-80 5 -59
-138 c-33 -77 -86 -197 -119 -267 -59 -125 -61 -128 -88 -122 -42 9 -107 -15
-150 -55 -43 -40 -58 -71 -326 -675 -192 -431 -213 -489 -213 -576 0 -61 3
-68 36 -107 27 -32 34 -47 28 -64 -28 -91 -334 -748 -709 -1523 -81 -167 -146
-259 -238 -335 -84 -69 -95 -70 -179 -25 l-69 37 -182 9 c-289 14 -463 45
-614 108 -200 83 -353 245 -413 438 -18 59 -20 93 -20 350 0 269 1 292 26 402
28 128 98 350 152 481 54 134 117 253 515 987 426 785 566 1047 598 1118 62
138 608 1131 641 1167 36 39 40 40 85 36 30 -4 254 -87 586 -218 418 -166 537
-217 537 -230 0 -13 32 -30 125 -65 85 -32 125 -53 127 -64 3 -42 -7 -80 -49
-179 -115 -271 -134 -361 -87 -409 27 -29 65 -46 75 -36 11 11 339 741 345
768 4 18 -58 45 -618 265 -343 134 -751 295 -907 357 -156 62 -285 113 -286
113 0 0 -11 -21 -24 -47z m1839 -1737 c48 -118 44 -126 -111 -206 l-87 -46 33
71 c45 98 129 265 131 262 2 -1 17 -38 34 -81z m2310 -1580 c226 -53 392 -162
527 -344 71 -95 116 -193 148 -317 l25 -100 0 -617 c0 -611 0 -618 -20 -618
-11 0 -20 -7 -20 -15 0 -13 -39 -15 -290 -15 -187 0 -290 -4 -290 -10 0 -5
-20 -10 -44 -10 -24 0 -46 -3 -48 -7 -1 -5 -40 -27 -85 -51 l-83 -43 0 506 0
505 -140 0 -140 0 0 -505 0 -505 -77 40 c-43 22 -85 40 -95 40 -10 0 -18 5
-18 10 0 7 -551 9 -1712 7 -1553 -2 -1719 -4 -1773 -19 -82 -23 -261 -58 -293
-58 -21 0 -11 10 53 52 96 62 239 204 317 313 71 101 177 298 423 785 107 212
200 394 208 404 12 16 16 10 36 -66 28 -108 72 -173 155 -233 180 -128 440
-193 663 -165 181 22 394 102 508 189 223 172 345 374 404 670 12 57 21 116
21 132 0 19 5 29 15 29 8 0 15 9 15 21 l0 20 768 -4 c688 -3 775 -5 842 -21z
M6002 5704 c-5 -10 -36 -91 -67 -179 -31 -88 -65 -174 -76 -192 -20 -32 -76
-86 -119 -114 l-25 -16 32 -17 c18 -9 55 -21 83 -27 43 -9 50 -14 50 -34 0
-20 8 -26 42 -36 109 -29 229 32 286 146 16 34 138 375 157 443 3 12 3 22 -1
22 -12 0 -76 -52 -151 -122 -40 -37 -78 -68 -86 -68 -22 0 -45 32 -66 91 -10
30 -26 69 -34 88 -13 31 -15 33 -25 15z M5866 5086 c11 -28 -18 -131 -68 -241
-121 -265 -130 -301 -98 -406 12 -39 25 -68 29 -63 11 12 311 642 311 653 0 4
-37 21 -82 37 -45 16 -86 31 -90 32 -4 2 -5 -3 -2 -12z M5377 3732 c-76 -50
-132 -105 -175 -171 -31 -49 -375 -764 -464 -964 -47 -109 -66 -183 -74 -306
-6 -75 -5 -93 6 -89 12 4 188 359 552 1113 149 309 218 455 215 455 -1 0 -28
-17 -60 -38z"/>
</g>
</svg>
