<?xml version="1.0" standalone="no"?>
<!DOCTYPE svg PUBLIC "-//W3C//DTD SVG 20010904//EN"
 "http://www.w3.org/TR/2001/REC-SVG-20010904/DTD/svg10.dtd">
<svg version="1.0" xmlns="http://www.w3.org/2000/svg"
 width="2048.000000pt" height="2048.000000pt" viewBox="0 0 2048.000000 2048.000000"
 preserveAspectRatio="xMidYMid meet">
<metadata>
Created by potrace 1.13, written by Peter Selinger 2001-2015
</metadata>
<g transform="translate(0.000000,2048.000000) scale(0.192120,-0.192120)"
fill="#000000" stroke="none">
<path d="M5005 10320 c-887 -65 -1737 -374 -2441 -886 -378 -275 -739 -630
-1016 -999 -486 -647 -799 -1423 -902 -2235 -55 -426 -45 -929 24 -1358 210
-1291 966 -2455 2065 -3178 190 -125 325 -201 550 -310 276 -133 519 -225 785
-296 63 -16 116 -31 117 -32 1 -1 -5 -30 -12 -66 -52 -243 38 -470 225 -565
121 -61 106 -60 800 -60 677 0 713 2 900 51 308 81 498 273 620 630 l31 90
102 33 c257 83 620 249 867 396 794 471 1426 1148 1834 1962 415 831 576 1776
460 2703 -263 2100 -1911 3780 -3999 4079 -77 11 -185 25 -240 31 -136 14
-622 21 -770 10z m690 -210 c742 -63 1425 -290 2053 -683 66 -42 160 -102 209
-133 48 -31 104 -67 123 -79 183 -115 576 -494 794 -765 237 -295 483 -701
594 -985 11 -27 41 -97 67 -155 123 -274 223 -630 280 -995 23 -149 25 -195
31 -650 6 -462 5 -499 -15 -650 -38 -290 -85 -504 -172 -780 -280 -888 -837
-1676 -1579 -2237 -225 -170 -401 -281 -672 -424 -259 -137 -470 -274 -598
-390 -87 -78 -66 -41 425 756 164 267 311 512 326 545 131 277 -32 610 -336
690 -207 53 -428 -36 -544 -220 -23 -36 -44 -65 -47 -65 -2 0 -28 23 -57 50
-93 91 -242 179 -381 226 -39 14 -171 45 -295 69 -124 25 -227 47 -228 49 -2
2 1 25 7 51 6 26 9 49 7 51 -2 2 -19 -1 -37 -8 -87 -30 -95 -85 -24 -166 57
-66 112 -94 256 -132 284 -75 346 -98 474 -176 104 -63 204 -111 247 -119 49
-10 119 25 230 112 99 78 141 101 213 114 142 26 284 -49 357 -189 35 -65 37
-76 37 -158 0 -83 -3 -95 -39 -170 -41 -85 -523 -875 -660 -1081 -90 -137
-158 -266 -202 -387 -144 -390 -409 -580 -844 -603 -204 -11 -402 17 -650 91
-74 22 -121 29 -262 36 -194 10 -229 20 -314 91 -37 31 -50 49 -54 77 -3 20
-13 52 -21 70 -11 25 -14 80 -14 231 0 232 -9 174 165 1026 230 1130 235 1154
235 1223 0 45 -5 75 -16 90 -19 27 -73 57 -85 45 -4 -4 -73 -330 -154 -723
-268 -1313 -315 -1545 -328 -1595 l-13 -50 -33 62 c-50 93 -124 166 -191 188
-698 228 -1280 581 -1803 1094 -264 259 -462 503 -655 806 -349 549 -565 1144
-662 1822 -6 42 -10 294 -10 604 0 486 2 544 21 673 83 567 278 1118 587 1656
274 477 797 1038 1262 1353 713 482 1440 746 2250 816 139 12 606 12 745 1z
M3985 9243 c-803 -86 -1560 -513 -2108 -1187 -121 -149 -140 -188 -141 -281
-1 -221 226 -362 423 -264 54 27 74 46 159 153 117 146 313 345 442 448 389
311 865 510 1300 543 131 10 187 33 249 101 80 87 101 190 61 297 -44 118
-144 188 -273 192 -40 2 -90 1 -112 -2z m64 -279 c34 -7 43 -34 11 -34 -11 0
-20 -4 -20 -8 0 -5 -42 -14 -92 -21 -51 -6 -144 -23 -206 -37 -117 -26 -391
-120 -436 -149 -14 -10 -26 -15 -26 -12 0 11 -293 -150 -395 -217 -234 -155
-389 -291 -621 -548 -132 -144 -173 -178 -221 -178 -58 0 -71 52 -28 110 102
138 343 375 522 512 379 292 834 496 1253 563 58 9 112 18 120 19 28 6 107 6
139 0z M6473 9232 c-67 -24 -118 -64 -154 -120 -76 -119 -64 -251 31 -355 65
-71 105 -86 266 -103 280 -28 533 -102 799 -234 354 -174 664 -427 927 -756
85 -107 105 -126 159 -153 149 -74 322 -14 395 136 38 77 39 165 3 243 -56
122 -359 455 -588 646 -424 356 -945 598 -1469 683 -191 31 -306 35 -369 13z
m340 -277 c649 -97 1291 -461 1748 -992 91 -105 106 -134 95 -178 -5 -20 -13
-25 -37 -25 -57 0 -89 27 -279 235 -268 293 -539 501 -870 663 -74 37 -137 67
-140 68 -3 0 -25 10 -50 21 -147 66 -427 140 -598 159 -34 4 -65 11 -68 15 -3
5 -14 9 -25 9 -10 0 -19 6 -19 14 0 28 98 32 243 11z M3665 7346 c-192 -48
-345 -227 -411 -481 -27 -104 -25 -322 5 -430 75 -279 257 -461 472 -473 243
-14 441 170 526 488 26 97 23 328 -5 435 -65 241 -230 424 -420 464 -65 14
-102 13 -167 -3z m203 -295 c20 -11 53 -37 73 -58 68 -71 69 -76 69 -333 0
-207 -2 -235 -19 -268 -60 -116 -138 -172 -240 -172 -104 1 -183 57 -240 171
l-31 62 0 204 c0 221 3 236 66 320 27 36 99 81 147 94 46 12 133 2 175 -20z
M6815 7346 c-85 -21 -147 -58 -226 -136 -87 -86 -144 -189 -181 -325 -32 -117
-32 -336 0 -454 114 -422 471 -596 765 -373 97 74 186 220 228 377 29 108 32
327 5 428 -70 264 -227 444 -424 486 -65 14 -102 13 -167 -3z m203 -295 c46
-24 93 -73 121 -126 20 -37 21 -55 21 -262 0 -198 -2 -226 -20 -265 -53 -117
-134 -178 -239 -178 -109 0 -190 61 -249 187 -27 57 -27 61 -27 258 l0 200 30
54 c37 67 104 127 164 146 58 19 148 12 199 -14z M5413 5596 c-163 -40 -300
-165 -351 -321 -21 -64 -172 -796 -172 -834 0 -21 3 -23 36 -18 89 15 119 71
168 313 89 435 112 508 190 592 62 67 124 95 226 100 70 3 95 0 143 -18 31
-12 57 -27 57 -34 0 -7 20 -26 45 -44 80 -56 85 -72 85 -268 0 -143 -4 -191
-25 -294 -16 -78 -25 -156 -25 -215 0 -87 1 -92 28 -116 15 -14 39 -30 53 -36
25 -11 27 -9 32 15 39 181 127 618 131 653 17 122 -44 288 -142 388 -120 123
-311 177 -479 137z M4755 4380 c-501 -131 -720 -391 -545 -645 67 -97 227
-201 399 -260 41 -14 75 -24 76 -22 0 1 11 56 24 122 25 133 158 777 167 813
8 27 13 27 -121 -8z m-186 -425 c1 -53 -24 -120 -53 -144 -15 -12 -22 -11 -58
15 -48 33 -64 74 -45 112 7 14 41 42 77 64 74 44 78 42 79 -47z M5890 4354 c0
-10 -99 -502 -145 -718 -25 -120 -44 -221 -41 -223 8 -9 181 39 281 78 447
173 551 470 246 701 -36 27 -102 67 -146 88 -88 42 -195 83 -195 74z m210
-381 c34 -23 40 -33 40 -70 0 -39 -38 -86 -90 -113 -46 -23 -50 -18 -50 71 0
113 38 155 100 112z M5555 2646 c-32 -32 -40 -69 -25 -107 17 -41 35 -48 182
-75 326 -61 604 -194 700 -335 48 -70 61 -123 52 -209 -6 -68 -6 -70 24 -100
41 -41 92 -42 131 -2 23 22 30 40 35 94 37 345 -303 621 -908 737 -138 27
-161 27 -191 -3z M5393 1839 c-30 -16 -55 -72 -47 -104 3 -14 19 -36 34 -48
24 -20 43 -25 133 -30 321 -20 569 -120 653 -263 56 -95 39 -268 -40 -430 -36
-72 -59 -104 -114 -155 -111 -104 -202 -139 -367 -139 -208 1 -335 54 -370
156 -22 65 9 131 81 168 46 24 156 33 223 17 79 -17 131 19 131 91 -1 51 -28
78 -96 94 -231 54 -449 -42 -519 -228 -24 -64 -17 -177 15 -242 48 -101 164
-184 310 -223 49 -13 104 -18 220 -18 145 0 161 2 244 29 295 97 498 394 499
731 1 123 -18 190 -74 275 -98 146 -315 256 -599 304 -129 22 -289 29 -317 15z"/>
</g>
</svg>
