<?xml version="1.0" standalone="no"?>
<!DOCTYPE svg PUBLIC "-//W3C//DTD SVG 20010904//EN"
 "http://www.w3.org/TR/2001/REC-SVG-20010904/DTD/svg10.dtd">
<svg version="1.0" xmlns="http://www.w3.org/2000/svg"
 width="2048.000000pt" height="2048.000000pt" viewBox="0 0 2048.000000 2048.000000"
 preserveAspectRatio="xMidYMid meet">
<metadata>
Created by potrace 1.13, written by Peter Selinger 2001-2015
</metadata>
<g transform="translate(0.000000,2048.000000) scale(0.192120,-0.192120)"
fill="#000000" stroke="none">
<path d="M5070 10324 c-637 -43 -1159 -164 -1710 -399 -173 -73 -372 -174
-365 -185 9 -14 107 -47 163 -55 49 -6 74 0 425 119 510 172 767 234 1182 288
159 20 223 23 550 23 387 0 479 -6 767 -50 320 -49 537 -106 1006 -265 275
-94 333 -110 386 -110 66 0 148 20 181 43 17 13 5 21 -156 100 -566 278 -1196
443 -1854 487 -136 9 -464 11 -575 4z M2363 10226 c-58 -19 -105 -50 -148 -98
-70 -77 -78 -106 -155 -608 -39 -256 -74 -472 -77 -480 -3 -8 -5 -22 -4 -30 2
-13 0 -13 -8 -1 -7 11 -28 -4 -97 -70 -121 -116 -299 -303 -332 -350 -18 -26
-39 -42 -62 -48 -19 -6 -219 -42 -445 -81 -454 -79 -498 -92 -570 -171 -64
-71 -90 -140 -89 -239 0 -72 4 -94 27 -142 50 -103 90 -132 359 -260 475 -228
883 -420 911 -430 32 -12 32 -10 7 -157 -10 -64 -58 -366 -106 -671 -94 -607
-95 -627 -49 -727 74 -162 267 -238 440 -173 66 25 37 -3 799 767 l299 302 66
-33 c165 -83 1210 -575 1245 -586 54 -17 170 -8 228 18 66 29 143 104 175 171
23 47 27 70 28 141 0 75 -4 93 -31 150 -29 62 -622 1142 -650 1185 -13 19 -9
26 47 80 34 33 244 247 468 476 374 381 410 420 430 472 28 77 28 176 0 254
-32 88 -124 174 -214 202 -37 12 -82 21 -101 21 -19 0 -325 -52 -681 -115
-356 -63 -648 -113 -649 -112 -2 1 -89 160 -194 352 -291 531 -409 743 -451
816 -44 77 -103 133 -168 162 -58 26 -188 33 -248 13z m179 -298 c30 -17 60
-53 119 -140 43 -65 101 -146 128 -181 72 -92 127 -182 272 -445 73 -130 151
-265 175 -298 50 -71 118 -134 171 -160 67 -31 158 -21 710 77 566 100 652
109 713 73 34 -20 35 -22 38 -92 2 -51 -2 -80 -14 -104 -9 -18 -129 -148 -268
-288 -483 -491 -522 -534 -579 -644 -23 -46 -31 -74 -31 -116 0 -98 32 -165
372 -785 232 -421 237 -431 240 -495 8 -138 -24 -180 -137 -180 -82 0 -107 10
-683 284 -506 240 -616 286 -685 286 -48 0 -128 -37 -201 -94 -31 -24 -242
-231 -469 -459 -226 -229 -429 -427 -451 -441 -89 -56 -197 -54 -247 6 -24 28
-25 35 -25 159 0 113 11 199 80 647 44 285 80 547 80 584 0 90 -39 166 -128
250 -60 55 -96 76 -351 200 -186 91 -332 170 -421 227 -74 49 -167 107 -207
130 -81 47 -113 81 -113 122 0 22 8 34 32 49 39 24 57 28 448 96 255 45 346
66 480 109 91 29 197 62 235 74 148 47 243 166 290 363 14 61 43 165 65 230
27 84 49 179 70 316 89 568 95 595 132 629 44 40 102 44 160 11z m-596 -1141
c-13 -93 -26 -170 -28 -171 -2 -2 -79 -15 -173 -30 -93 -15 -181 -29 -195 -32
-14 -2 8 13 48 35 180 100 236 154 320 312 26 49 48 80 50 71 1 -9 -8 -93 -22
-185z M8083 10226 c-88 -29 -154 -87 -210 -186 -54 -97 -246 -446 -443 -805
-105 -192 -193 -351 -194 -352 -2 -2 -27 2 -57 7 -243 47 -1246 220 -1273 220
-19 0 -63 -9 -99 -20 -80 -25 -164 -97 -205 -174 -24 -45 -27 -62 -27 -152 0
-157 -14 -139 516 -677 419 -425 455 -464 444 -482 -30 -47 -652 -1183 -665
-1215 -9 -21 -15 -68 -15 -120 0 -72 4 -93 28 -141 32 -67 109 -142 175 -171
29 -13 76 -23 122 -26 63 -3 86 0 140 21 36 14 335 154 665 312 330 158 605
287 610 288 6 1 237 -229 514 -511 540 -548 545 -552 662 -571 194 -32 379
112 396 307 4 42 -22 226 -97 707 -56 358 -104 666 -107 686 -5 33 -3 37 23
47 30 10 671 313 984 464 156 75 181 90 227 141 64 71 88 135 88 238 0 65 -5
85 -33 141 -37 76 -92 130 -166 164 -36 16 -179 45 -483 99 -238 41 -438 78
-445 80 -7 3 -25 22 -40 43 -35 49 -232 258 -336 356 -67 63 -86 76 -94 65 -8
-11 -9 -11 -5 2 3 9 2 20 -3 25 -4 5 -40 221 -80 479 -78 514 -84 537 -160
619 -62 67 -134 99 -234 103 -50 2 -97 -2 -123 -11z m182 -309 c38 -38 42 -55
91 -367 58 -371 81 -490 119 -600 19 -58 45 -145 56 -194 26 -107 48 -160 95
-223 71 -95 134 -137 251 -167 33 -9 112 -33 174 -55 157 -54 155 -53 509
-116 313 -55 414 -77 438 -97 6 -6 12 -29 12 -52 0 -50 -21 -73 -120 -131 -36
-21 -114 -71 -175 -110 -147 -95 -206 -127 -443 -239 -111 -52 -225 -110 -254
-129 -70 -45 -151 -127 -183 -185 -24 -42 -27 -58 -28 -157 -1 -91 11 -188 71
-568 67 -428 72 -468 72 -618 l0 -161 -30 -28 c-47 -44 -130 -46 -214 -4 -17
9 -240 224 -496 479 -409 406 -473 466 -529 494 -128 62 -128 62 -896 -304
-472 -225 -498 -235 -582 -235 -119 0 -158 41 -151 160 3 63 9 75 210 440 263
478 326 597 365 690 64 152 66 178 23 272 -45 101 -122 189 -498 570 -192 194
-357 368 -366 385 -9 19 -16 56 -16 92 0 52 3 62 26 80 34 27 124 44 187 36
29 -3 270 -45 537 -91 656 -115 684 -117 774 -54 76 52 121 117 277 398 151
273 225 391 319 512 27 36 68 95 90 131 81 133 135 178 214 179 30 0 45 -7 71
-33z m570 -1162 c40 -49 114 -103 227 -166 40 -22 62 -37 48 -35 -14 3 -101
17 -195 32 -93 15 -172 29 -174 30 -5 4 -51 321 -51 354 0 17 16 -4 54 -73 30
-54 71 -118 91 -142z M852 7547 c-18 -21 -102 -205 -160 -347 -443 -1094 -479
-2334 -102 -3460 519 -1548 1776 -2756 3340 -3210 1064 -308 2202 -257 3230
147 948 372 1780 1047 2345 1903 838 1269 1051 2869 575 4311 -82 249 -226
593 -273 654 -15 19 -16 18 -38 -30 -19 -40 -23 -68 -23 -145 -1 -93 0 -98 61
-255 156 -402 242 -728 297 -1133 13 -90 16 -219 16 -650 0 -520 -1 -542 -25
-709 -111 -761 -399 -1473 -848 -2098 -181 -252 -460 -568 -631 -715 -162
-139 -510 -391 -743 -538 -165 -104 -565 -306 -747 -377 -1084 -424 -2266
-454 -3360 -84 -790 267 -1533 757 -2061 1359 -180 205 -422 547 -559 788
-269 474 -466 1028 -555 1562 -41 248 -43 277 -39 865 l4 570 32 183 c61 338
156 678 275 982 60 153 70 194 63 261 -5 53 -38 154 -55 172 -4 4 -13 2 -19
-6z M2583 4765 c-98 -30 -197 -115 -242 -208 -95 -196 -85 -538 25 -872 70
-209 143 -358 280 -565 262 -398 634 -738 1076 -984 899 -502 2002 -552 2945
-136 903 399 1586 1203 1703 2005 18 118 15 326 -5 415 -35 157 -120 271 -242
328 -48 22 -76 27 -158 30 -88 3 -133 -3 -370 -48 -890 -169 -1343 -217 -2105
-227 -890 -11 -1431 40 -2423 227 -285 53 -400 62 -484 35z m275 -277 c12 -6
22 -15 22 -19 0 -5 -21 -28 -47 -51 -134 -121 -187 -197 -186 -269 2 -134 220
-432 469 -640 401 -335 935 -560 1538 -649 251 -37 359 -44 676 -44 317 0 425
7 676 44 595 88 1100 298 1516 633 259 208 488 523 488 672 0 57 -66 148 -183
253 -26 23 -47 46 -47 50 0 21 49 34 130 34 71 1 96 -3 134 -21 77 -38 78 -44
74 -345 -5 -293 -7 -303 -102 -536 -55 -136 -94 -206 -207 -375 -111 -166
-229 -306 -360 -428 -485 -449 -1044 -710 -1724 -803 -162 -22 -587 -26 -745
-6 -707 87 -1315 368 -1788 826 -166 161 -257 269 -365 434 -154 234 -243 432
-286 637 -27 128 -31 476 -6 528 31 64 125 100 240 91 33 -3 70 -10 83 -16z
m77 -296 c648 -183 1836 -283 2885 -242 765 30 1486 121 1899 240 58 16 107
28 109 25 15 -15 -196 -276 -302 -373 -434 -395 -968 -618 -1696 -709 -208
-25 -792 -25 -1000 0 -264 33 -504 83 -710 149 -518 165 -964 469 -1226 834
-68 95 -74 108 -46 100 9 -2 49 -14 87 -24z"/>
</g>
</svg>
