<?xml version="1.0" standalone="no"?>
<!DOCTYPE svg PUBLIC "-//W3C//DTD SVG 20010904//EN"
 "http://www.w3.org/TR/2001/REC-SVG-20010904/DTD/svg10.dtd">
<svg version="1.0" xmlns="http://www.w3.org/2000/svg"
 width="2048.000000pt" height="2048.000000pt" viewBox="0 0 2048.000000 2048.000000"
 preserveAspectRatio="xMidYMid meet">
<metadata>
Created by potrace 1.13, written by Peter Selinger 2001-2015
</metadata>
<g transform="translate(0.000000,2048.000000) scale(0.192120,-0.192120)"
fill="#000000" stroke="none">
<path d="M5340 10319 c-348 -34 -754 -145 -1012 -275 -46 -24 -47 -24 -150 -9
-353 50 -746 -15 -1085 -180 -516 -252 -891 -710 -1033 -1261 -63 -243 -61
-168 -57 -2180 2 -1346 7 -1851 15 -1914 64 -456 180 -833 358 -1169 24 -46
44 -87 44 -92 0 -5 -66 -129 -147 -277 -174 -316 -254 -482 -316 -652 -318
-867 -227 -1493 259 -1780 145 -86 292 -135 526 -177 85 -15 347 -17 3146 -20
l3053 -3 -3 782 -4 783 -26 98 c-31 112 -96 256 -158 348 -94 140 -268 293
-417 368 -107 53 -256 100 -320 101 -30 0 -38 -34 -23 -90 19 -70 86 -129 213
-189 60 -28 132 -67 160 -87 134 -96 247 -234 302 -371 56 -139 55 -116 55
-835 0 -661 0 -668 -20 -668 -11 0 -20 -7 -20 -15 0 -13 -40 -15 -300 -15
-193 0 -300 -4 -300 -10 0 -5 -20 -10 -45 -10 -25 0 -45 -3 -45 -7 0 -5 -21
-17 -48 -27 -26 -10 -54 -24 -62 -31 -8 -7 -23 -15 -32 -18 -17 -6 -18 22 -18
498 l0 505 -140 0 -140 0 -2 -504 -3 -505 -69 35 c-38 19 -78 34 -88 34 -10 0
-18 5 -18 10 0 7 -556 10 -1727 8 l-1728 -3 -145 -33 c-80 -17 -161 -32 -180
-32 -34 0 -34 0 34 45 178 117 307 265 447 515 49 89 525 1022 588 1155 16 33
91 186 166 340 393 802 628 1295 617 1295 -4 -1 -34 -21 -67 -45 -93 -69 -144
-98 -160 -91 -18 6 -31 38 -50 118 l-13 58 163 0 c161 0 164 0 171 23 4 12 53
118 110 235 l103 212 -37 16 c-55 23 -201 64 -228 64 -12 0 -25 4 -28 9 -3 5
36 42 86 82 51 41 107 93 125 117 l33 44 0 -38 c0 -77 46 -273 60 -258 10 11
318 653 322 673 2 8 -17 20 -52 32 -99 34 -191 71 -188 75 2 2 39 -8 81 -21
87 -28 109 -30 172 -14 55 14 128 76 157 133 21 41 159 425 172 480 l7 28 -39
-31 c-68 -53 -145 -144 -195 -228 -73 -125 -77 -125 -77 -2 0 73 -6 125 -21
182 -25 92 -30 86 81 121 161 52 432 59 595 16 44 -11 116 -38 160 -60 45 -22
90 -40 102 -40 30 0 66 48 58 77 -14 56 -124 212 -196 278 -92 84 -164 126
-273 155 -131 35 -254 22 -375 -40 l-56 -28 -68 -199 c-144 -416 -199 -569
-217 -598 -26 -43 -68 -80 -118 -107 l-44 -23 -169 -385 c-93 -212 -178 -403
-188 -425 -29 -60 -229 -513 -923 -2085 -78 -178 -461 -988 -683 -1445 -96
-200 -168 -290 -302 -384 l-32 -22 -76 37 c-75 36 -76 37 -253 45 -97 5 -217
14 -267 20 -134 16 -310 64 -401 110 -181 89 -319 247 -374 426 -21 68 -21 85
-17 380 5 350 9 378 106 663 63 188 101 275 218 500 159 305 182 352 203 414
30 90 27 121 -18 166 -20 20 -45 41 -55 47 -24 12 -45 -31 331 663 162 299
295 549 295 555 -1 5 -24 60 -51 120 -88 194 -152 417 -189 655 -16 105 -18
202 -18 1075 l0 960 30 3 c184 18 433 104 608 212 133 81 124 66 98 161 -47
170 -46 251 4 350 33 64 122 143 193 169 80 31 205 25 278 -13 45 -23 56 -25
95 -16 24 6 64 8 89 4 56 -7 158 -56 189 -89 l23 -25 -33 -20 c-53 -32 -85
-27 -169 29 -41 27 -75 48 -77 46 -2 -2 12 -29 31 -60 32 -54 45 -97 113 -394
3 -13 9 -20 13 -15 4 4 34 87 65 183 91 274 160 456 196 516 40 66 127 150
196 188 92 52 159 69 273 69 97 1 114 -2 225 -40 271 -92 877 -306 975 -344
58 -23 179 -68 270 -100 189 -68 274 -119 344 -207 86 -108 126 -222 126 -357
0 -93 -11 -137 -74 -307 -25 -69 -46 -127 -46 -130 0 -22 634 -98 820 -98 36
0 82 -3 103 -7 l38 -6 -4 -821 c-4 -890 -3 -884 -63 -1136 -183 -782 -745
-1441 -1483 -1740 l-116 -47 -3 -212 -2 -211 862 0 c475 0 879 -3 898 -6 34
-6 36 -4 96 78 283 384 480 829 574 1298 68 337 65 250 65 1885 0 1625 3 1539
-61 1834 -196 910 -805 1689 -1639 2096 -316 154 -607 242 -955 290 -139 19
-528 27 -660 14z m530 -300 c635 -59 1213 -312 1666 -730 426 -394 694 -869
808 -1433 l26 -127 0 -1652 c0 -1812 4 -1684 -61 -1956 -83 -349 -273 -776
-437 -980 -69 -86 -35 -82 -764 -78 -354 1 -653 7 -666 11 -13 5 -22 15 -20
25 2 9 71 53 153 100 83 46 186 108 230 139 401 278 708 638 920 1076 112 230
172 403 233 666 l26 115 3 903 c2 549 0 902 -6 902 -5 0 -12 12 -15 26 -9 34
-89 119 -142 150 -50 29 -106 40 -289 54 -165 13 -398 40 -405 47 -3 2 -8 102
-11 221 -6 236 -9 252 -75 388 -46 93 -125 188 -210 252 -128 97 -393 220
-582 272 -63 17 -162 53 -220 81 -144 68 -355 142 -521 184 -76 19 -187 53
-247 76 -180 68 -329 64 -496 -14 -127 -59 -227 -146 -348 -304 -87 -114 -85
-113 -282 -64 -311 77 -431 52 -614 -129 -52 -52 -82 -91 -110 -148 -35 -71
-38 -86 -45 -197 -4 -66 -15 -135 -23 -155 -8 -19 -17 -46 -20 -60 -4 -21 -21
-32 -93 -62 -113 -47 -129 -52 -242 -83 -52 -15 -111 -35 -131 -45 -46 -23
-165 -138 -174 -167 -4 -13 -12 -23 -17 -23 -5 0 -9 -395 -9 -1017 0 -961 1
-1024 19 -1130 24 -139 67 -300 122 -457 37 -108 41 -127 37 -195 l-4 -76
-150 -274 c-82 -151 -164 -290 -182 -309 l-32 -35 -25 23 c-44 42 -106 252
-151 517 l-24 145 0 1961 c0 1932 0 1963 20 2047 34 140 69 239 131 360 206
405 607 718 1068 835 184 46 291 56 576 53 l260 -3 110 42 c245 93 316 116
462 154 131 33 351 71 478 82 95 8 389 6 495 -4z m714 -3963 c32 -64 23 -82
-67 -134 -39 -23 -72 -40 -74 -38 -2 2 18 62 43 135 52 147 44 144 98 37z
m-2062 -3711 c10 -36 33 -100 53 -142 39 -85 39 -87 -33 -98 -32 -5 -47 -3
-53 7 -17 25 -7 298 10 298 4 0 14 -29 23 -65z M5171 8448 c-30 -75 -421
-1191 -418 -1193 8 -5 226 -78 242 -82 18 -3 34 36 164 409 255 732 291 838
280 838 -5 0 -37 -12 -71 -26 -77 -32 -94 -26 -137 50 -17 31 -33 56 -35 56
-2 0 -13 -24 -25 -52z M5965 8194 c-8 -19 -80 -223 -161 -452 -80 -229 -173
-493 -206 -585 -33 -93 -57 -171 -53 -175 8 -8 248 -92 252 -88 5 5 419 1187
427 1219 8 34 2 34 -75 2 -74 -31 -85 -27 -128 54 -18 34 -34 61 -36 61 -3 0
-11 -16 -20 -36z M6525 8040 c5 -8 21 -32 36 -53 68 -94 106 -256 89 -375 -12
-86 -8 -74 -254 -776 -114 -324 -205 -590 -203 -592 2 -2 30 24 63 59 127 135
151 169 200 285 l31 73 6 -90 c4 -49 12 -111 18 -138 12 -52 49 -142 60 -149
4 -2 14 15 22 38 130 368 247 703 255 732 12 41 5 44 -60 26 -49 -14 -89 -56
-127 -132 l-31 -61 0 121 c0 116 2 128 44 259 73 227 78 255 74 378 -3 102 -6
115 -40 186 -20 42 -53 95 -73 118 -42 46 -124 114 -110 91z M3877 5976 c-103
-37 -125 -68 -385 -546 -293 -539 -315 -589 -327 -748 l-7 -77 27 45 c15 25
178 324 363 665 184 341 336 621 337 623 1 1 305 -117 676 -264 777 -306 1077
-424 1084 -424 14 0 2 41 -22 77 -35 55 -69 72 -388 198 -779 307 -1057 411
-1211 450 -74 18 -97 18 -147 1z M5730 4276 c0 -11 34 -97 61 -155 17 -36 36
-76 42 -88 17 -37 -8 -56 -133 -102 -31 -12 -85 -36 -120 -56 l-65 -35 323 0
c177 0 322 2 322 5 0 21 -119 176 -194 253 -91 94 -236 204 -236 178z M6107
2730 c-8 -11 -17 -17 -20 -13 -4 3 -7 -4 -7 -16 0 -12 -4 -19 -10 -16 -6 4
-10 -24 -10 -76 0 -275 -109 -493 -310 -620 -266 -168 -560 -169 -848 -3 -98
57 -159 78 -207 72 l-29 -3 45 -54 c89 -109 246 -207 405 -253 112 -32 315
-32 426 0 289 82 493 279 583 562 25 76 28 105 33 263 4 174 4 177 -16 177
-12 0 -27 -9 -35 -20z"/>
</g>
</svg>
