<?xml version="1.0" standalone="no"?>
<!DOCTYPE svg PUBLIC "-//W3C//DTD SVG 20010904//EN"
 "http://www.w3.org/TR/2001/REC-SVG-20010904/DTD/svg10.dtd">
<svg version="1.0" xmlns="http://www.w3.org/2000/svg"
 width="2048.000000pt" height="2048.000000pt" viewBox="0 0 2048.000000 2048.000000"
 preserveAspectRatio="xMidYMid meet">
<metadata>
Created by potrace 1.13, written by Peter Selinger 2001-2015
</metadata>
<g transform="translate(0.000000,2048.000000) scale(0.192120,-0.192120)"
fill="#000000" stroke="none">
<path d="M4995 10320 c-523 -39 -1029 -152 -1500 -337 -166 -65 -497 -224
-650 -313 -556 -319 -1070 -764 -1459 -1263 -576 -740 -927 -1606 -1032 -2552
-22 -195 -29 -650 -15 -860 111 -1578 934 -2985 2252 -3848 366 -240 784 -441
1189 -572 949 -306 1981 -324 2930 -50 589 170 1127 438 1615 805 510 383 964
885 1282 1415 406 677 631 1375 704 2185 26 282 14 730 -27 1050 -191 1503
-1082 2858 -2394 3642 -631 377 -1311 603 -2060 683 -173 19 -665 27 -835 15z
m865 -254 c795 -96 1483 -347 2127 -778 663 -442 1226 -1077 1591 -1793 93
-182 216 -438 243 -506 100 -250 200 -643 243 -957 23 -160 23 -1245 1 -1402
-67 -475 -219 -963 -441 -1419 -173 -355 -412 -716 -658 -994 -66 -74 -377
-368 -521 -492 -1047 -896 -2471 -1297 -3855 -1085 -1018 157 -1929 617 -2684
1358 -561 552 -1004 1337 -1206 2143 -44 173 -49 200 -79 374 -41 235 -43 273
-39 870 l4 580 32 180 c154 854 495 1588 1053 2260 112 135 438 459 579 576
282 233 552 413 855 570 583 301 1153 466 1825 529 155 14 773 5 930 -14z
M4220 7089 c-1034 -199 -1592 -323 -1670 -371 -32 -19 -32 -21 -27 -71 13
-118 100 -316 195 -443 152 -204 367 -351 602 -410 114 -29 346 -27 459 4 386
105 668 431 737 852 17 101 14 316 -5 395 -10 39 -51 86 -74 84 -7 0 -104 -18
-217 -40z m60 -389 c0 -82 -4 -159 -9 -172 -35 -92 -51 -122 -99 -195 -96
-148 -233 -249 -412 -305 -65 -20 -95 -23 -225 -23 -146 1 -153 2 -252 36
-207 73 -377 211 -461 376 -26 50 -38 118 -24 127 32 20 1354 294 1470 305 9
1 12 -35 12 -149z M6178 7115 c-15 -8 -29 -23 -32 -32 -15 -50 -26 -160 -26
-259 0 -482 288 -886 727 -1021 81 -24 102 -27 258 -27 157 0 177 2 260 27
352 106 625 382 739 745 29 92 33 144 12 161 -59 49 -787 213 -1651 372 -121
22 -229 42 -240 44 -11 3 -32 -2 -47 -10z m576 -336 c624 -120 1074 -220 1087
-241 29 -46 -50 -189 -171 -308 -72 -72 -103 -94 -191 -138 -130 -65 -194 -82
-335 -89 -168 -9 -310 26 -452 108 -89 53 -209 179 -264 279 -70 128 -88 198
-88 342 l0 121 52 -7 c28 -4 191 -34 362 -67z M3510 5031 c-90 -19 -168 -81
-211 -167 -19 -38 -24 -65 -24 -119 1 -138 72 -232 223 -293 241 -98 448 -278
556 -482 74 -140 91 -217 91 -405 0 -186 -12 -240 -80 -380 -107 -220 -311
-401 -577 -511 -73 -31 -98 -47 -138 -91 -134 -146 -93 -366 85 -454 114 -56
199 -43 410 64 223 112 435 280 582 462 91 113 201 312 234 424 12 40 18 46
76 72 225 101 509 140 769 105 156 -20 275 -55 393 -114 l95 -47 21 -60 c80
-219 254 -456 453 -616 153 -123 345 -237 502 -296 161 -62 320 -3 391 145 34
70 32 179 -4 248 -35 69 -104 127 -185 158 -236 90 -458 281 -565 485 -75 141
-92 217 -92 406 0 188 17 262 90 404 106 202 315 384 557 483 96 39 159 91
196 162 35 68 38 177 5 247 -59 130 -202 199 -338 164 -71 -19 -261 -108 -355
-167 -223 -141 -414 -326 -538 -523 -49 -78 -118 -232 -143 -318 -17 -57 -27
-76 -37 -72 -39 15 -220 56 -317 71 -168 28 -498 25 -667 -4 -69 -13 -159 -32
-199 -43 -39 -11 -73 -18 -74 -17 -2 2 -17 44 -34 95 -121 364 -409 681 -802
883 -174 89 -271 117 -349 101z m250 -293 c164 -77 353 -210 466 -330 74 -76
148 -182 202 -284 29 -55 67 -117 84 -138 37 -45 98 -75 150 -76 35 0 38 -3
47 -37 36 -140 40 -440 7 -579 l-17 -71 -55 -12 c-100 -23 -134 -58 -245 -256
-124 -220 -317 -407 -550 -533 -207 -112 -308 -128 -355 -57 -29 44 -9 66 121
134 305 160 500 365 621 652 62 146 74 216 74 416 0 187 -10 256 -52 363 -109
279 -302 493 -591 657 -67 37 -133 78 -148 90 -36 30 -43 69 -17 95 18 18 30
20 92 16 57 -4 89 -14 166 -50z m3388 40 c32 -32 -3 -107 -65 -138 -87 -45
-236 -139 -293 -185 -228 -184 -338 -345 -399 -581 -29 -114 -31 -132 -31
-303 0 -100 5 -203 11 -229 22 -94 62 -216 89 -277 97 -216 330 -441 590 -570
93 -46 110 -61 110 -95 0 -43 -30 -72 -75 -75 -57 -4 -126 19 -256 86 -255
132 -459 325 -589 559 -29 52 -68 114 -87 137 -36 44 -121 93 -160 93 -16 0
-27 8 -33 26 -21 55 -40 215 -40 339 0 112 18 283 35 326 3 8 22 15 45 16 82
5 140 59 211 197 84 160 161 259 310 391 117 104 319 228 450 275 61 22 159
26 177 8z m-1566 -1003 c62 -9 129 -19 148 -23 l35 -8 -1 -152 c0 -83 -2 -153
-5 -155 -2 -3 -56 7 -119 21 -100 21 -142 25 -320 26 -180 1 -219 -2 -318 -23
-62 -13 -116 -21 -119 -17 -3 3 -8 71 -11 151 l-5 144 26 10 c98 37 494 52
689 26z"/>
</g>
</svg>
