<?xml version="1.0" standalone="no"?>
<!DOCTYPE svg PUBLIC "-//W3C//DTD SVG 20010904//EN"
 "http://www.w3.org/TR/2001/REC-SVG-20010904/DTD/svg10.dtd">
<svg version="1.0" xmlns="http://www.w3.org/2000/svg"
 width="2048.000000pt" height="2048.000000pt" viewBox="0 0 2048.000000 2048.000000"
 preserveAspectRatio="xMidYMid meet">
<metadata>
Created by potrace 1.13, written by Peter Selinger 2001-2015
</metadata>
<g transform="translate(0.000000,2048.000000) scale(0.192120,-0.192120)"
fill="#000000" stroke="none">
<path d="M5055 10094 c-475 -38 -895 -150 -1245 -331 -756 -391 -1232 -1099
-1291 -1921 -10 -150 -1 -408 22 -595 l12 -96 -26 -30 c-102 -121 -177 -376
-177 -601 0 -175 51 -393 122 -520 82 -147 206 -252 316 -267 l39 -5 6 -182
c12 -342 78 -647 199 -918 l32 -71 9 34 c5 19 7 115 4 214 -4 139 -12 219 -36
350 -17 94 -36 248 -43 343 -6 94 -15 172 -20 172 -4 0 -8 10 -8 23 0 13 -8
33 -17 46 -63 83 -119 145 -160 178 -176 140 -240 262 -273 516 -21 163 -5
565 27 671 3 11 18 -32 38 -110 41 -161 64 -225 111 -314 63 -120 134 -177
189 -152 34 16 50 53 80 188 90 401 271 773 512 1048 59 67 61 71 65 135 9
115 82 221 193 279 45 24 61 27 155 27 96 0 110 -2 159 -28 74 -39 145 -114
169 -180 11 -29 37 -123 57 -208 20 -85 39 -156 41 -158 2 -2 6 2 8 10 3 8 51
147 107 309 55 162 115 322 132 355 43 83 154 191 240 233 128 63 282 77 413
37 26 -8 50 -12 53 -10 12 13 -27 94 -62 127 -52 49 -94 62 -192 62 -227 -2
-464 -158 -577 -381 -39 -77 -43 -94 -47 -169 -1 -46 -7 -84 -11 -84 -4 0 -27
9 -51 19 -24 11 -60 22 -79 26 -29 5 -40 16 -65 57 -36 61 -105 112 -183 134
-73 22 -197 15 -274 -15 -142 -55 -275 -206 -332 -379 -10 -28 -22 -54 -26
-57 -5 -3 -19 -25 -30 -48 -11 -23 -44 -73 -74 -110 -117 -150 -262 -426 -350
-667 -73 -199 -74 -202 -104 -198 -21 3 -28 14 -49 77 l-24 75 3 535 4 536 28
105 c132 490 448 915 897 1206 124 81 316 177 456 230 74 28 103 44 103 56 0
10 16 22 47 32 56 19 53 19 53 1 0 -19 -1 -19 106 9 227 61 471 95 751 103
205 6 212 7 216 27 4 20 4 20 6 -1 1 -21 6 -23 50 -23 121 0 412 -39 569 -76
124 -29 119 -28 125 -6 4 14 5 14 6 -3 1 -16 24 -28 129 -63 70 -24 169 -62
220 -84 72 -32 96 -38 102 -28 9 15 122 -43 271 -141 469 -308 792 -716 980
-1239 82 -229 79 -195 79 -751 0 -492 0 -498 -24 -589 -27 -105 -43 -128 -74
-111 -26 14 -72 80 -127 181 -211 386 -296 501 -413 561 -39 20 -60 24 -126
22 -77 -1 -104 -9 -157 -45 l-26 -17 -6 102 c-6 114 -32 201 -86 286 -49 76
-150 165 -233 205 -67 32 -76 40 -102 91 -49 95 -144 164 -239 173 -44 4 -49
2 -83 -33 -19 -21 -34 -41 -32 -46 2 -6 37 -24 78 -42 180 -79 293 -203 345
-380 23 -79 22 -214 -3 -297 -11 -36 -112 -330 -226 -654 -114 -324 -204 -591
-202 -594 3 -3 57 45 119 107 87 86 121 112 143 114 25 2 29 -2 32 -27 4 -34
62 -148 79 -153 6 -2 25 35 43 84 52 144 300 852 328 936 l25 78 151 -7 c91
-4 155 -11 162 -18 31 -32 251 -414 384 -669 65 -124 105 -188 132 -212 72
-65 132 -45 191 64 37 67 76 209 106 389 l27 155 22 -134 c24 -145 30 -404 13
-496 -5 -26 -15 -82 -21 -123 -33 -205 -120 -353 -270 -461 -69 -50 -132 -120
-162 -180 -22 -44 -27 -73 -33 -164 -25 -420 -110 -735 -287 -1065 -174 -323
-464 -636 -778 -839 -52 -34 -170 -100 -263 -147 -137 -70 -178 -96 -226 -144
-86 -87 -91 -101 -91 -277 1 -169 7 -189 66 -209 67 -23 63 -32 66 182 l3 196
87 33 c406 157 807 464 1071 818 118 159 169 241 252 412 162 329 238 644 252
1033 5 161 8 182 23 182 40 0 122 33 168 68 101 76 180 194 232 349 105 314
66 705 -94 941 l-36 54 10 119 c18 203 16 599 -4 714 -74 437 -270 830 -597
1195 -386 429 -949 745 -1544 865 -222 45 -338 56 -615 59 -146 2 -287 2 -315
0z m1819 -2346 c12 -17 16 -49 16 -129 0 -93 -3 -110 -22 -139 -44 -65 -48
-55 -48 124 0 158 1 166 19 166 11 0 27 -10 35 -22z M5503 8599 c-32 -9 -87
-74 -78 -90 6 -9 191 -77 443 -163 189 -64 192 -65 192 -42 0 39 -26 90 -67
131 -45 44 -141 91 -273 133 -112 35 -173 44 -217 31z M5201 8538 c-5 -13 -45
-126 -89 -253 -45 -126 -143 -403 -218 -615 -74 -212 -138 -392 -140 -400 -4
-11 26 -25 126 -59 72 -24 132 -42 134 -40 5 8 456 1302 454 1304 -7 4 -246
85 -252 85 -3 0 -10 -10 -15 -22z M5995 8280 c-3 -5 -102 -285 -221 -622 -119
-337 -221 -626 -226 -641 -6 -15 -7 -31 -4 -35 12 -11 248 -92 256 -87 4 3 11
17 15 32 4 16 103 304 221 642 118 337 213 618 212 623 -5 15 -247 98 -253 88z
M6313 6205 c-29 -8 -78 -28 -110 -44 l-58 -29 -69 -197 c-37 -108 -66 -198
-64 -200 2 -2 31 7 65 20 111 45 195 58 378 59 200 1 301 -19 431 -85 85 -42
114 -47 138 -24 37 38 29 71 -52 195 -49 74 -175 197 -246 239 -121 72 -290
99 -413 66z m176 -204 c-12 -34 -23 -60 -25 -58 -2 2 6 32 17 66 12 34 23 60
25 58 2 -2 -6 -32 -17 -66z M3861 5893 c-22 -46 -197 -369 -596 -1103 -778
-1430 -1157 -2132 -1205 -2235 -98 -207 -196 -494 -240 -705 -131 -636 4
-1088 396 -1320 145 -86 291 -135 526 -177 85 -15 346 -17 3146 -20 l3053 -3
-3 782 -3 783 -27 98 c-32 115 -106 275 -171 366 -176 248 -454 417 -762 461
-42 6 -418 10 -942 10 l-873 0 0 -194 c0 -171 -3 -204 -24 -288 -71 -281 -274
-497 -556 -590 -88 -29 -105 -32 -240 -32 -188 -1 -297 27 -448 116 -65 37
-246 213 -257 249 -4 12 -20 43 -36 69 -43 71 -89 219 -92 297 -2 65 1 75 74
233 77 167 482 1080 499 1125 l10 25 535 0 c294 0 535 3 535 8 -1 13 -89 135
-147 204 -160 189 -398 322 -598 335 l-80 5 -48 -113 c-26 -63 -81 -186 -121
-274 l-73 -160 -49 -5 c-86 -10 -125 -46 -180 -165 -20 -44 -54 -117 -75 -163
-96 -206 -334 -754 -355 -820 -32 -97 -31 -158 1 -206 14 -20 25 -44 25 -53 0
-41 -300 -690 -725 -1568 -81 -167 -146 -259 -238 -335 -84 -69 -95 -70 -179
-25 l-69 37 -182 9 c-289 14 -463 45 -614 108 -200 83 -353 245 -413 438 -18
59 -20 93 -20 350 0 269 1 292 26 402 28 128 98 350 152 481 55 134 118 255
518 992 362 667 557 1038 637 1217 40 90 498 941 554 1028 38 61 77 93 110 93
30 0 92 -24 688 -258 355 -141 481 -195 488 -209 6 -14 49 -36 129 -68 l121
-48 -6 -56 c-3 -32 -19 -87 -37 -126 -111 -245 -132 -347 -84 -404 14 -17 31
-31 38 -31 7 0 68 125 136 278 122 276 199 443 207 452 2 2 18 -4 36 -13 18
-9 48 -19 67 -23 74 -12 80 -14 80 -34 0 -20 49 -40 98 -40 85 0 182 62 224
144 24 47 168 452 168 473 0 20 -43 -12 -142 -104 -63 -60 -84 -74 -106 -71
-29 3 -37 16 -78 126 -15 39 -30 72 -33 72 -4 0 -33 -75 -65 -167 -71 -200
-77 -213 -123 -264 -40 -44 -112 -86 -122 -72 -3 5 -256 107 -561 227 -305
120 -712 281 -904 357 -192 77 -350 139 -351 139 0 0 -11 -21 -24 -47z m1843
-1712 c61 -137 55 -155 -81 -225 -59 -31 -110 -55 -114 -54 -9 4 151 338 161
338 4 0 19 -26 34 -59z m2306 -1605 c226 -53 392 -162 527 -344 71 -95 116
-193 148 -317 l25 -100 0 -617 c0 -611 0 -618 -20 -618 -11 0 -20 -7 -20 -15
0 -13 -39 -15 -290 -15 -187 0 -290 -4 -290 -10 0 -5 -20 -10 -44 -10 -24 0
-46 -3 -48 -7 -1 -5 -40 -27 -85 -51 l-83 -43 0 506 0 505 -140 0 -140 0 0
-505 0 -505 -77 40 c-43 22 -85 40 -95 40 -10 0 -18 5 -18 10 0 7 -551 9
-1712 7 -1553 -2 -1719 -4 -1773 -19 -82 -23 -261 -58 -293 -58 -21 0 -11 10
53 52 96 62 239 204 317 313 70 100 182 306 395 730 91 182 186 368 211 414
l45 83 22 -85 c37 -143 77 -196 208 -274 79 -48 143 -74 257 -106 102 -28 369
-30 475 -4 97 25 253 89 322 133 184 117 339 318 407 529 25 78 56 234 56 282
0 32 4 43 15 43 8 0 15 9 15 21 l0 20 778 -4 c698 -3 785 -5 852 -21z M5790
5120 c8 -5 20 -10 25 -10 6 0 3 5 -5 10 -8 5 -19 10 -25 10 -5 0 -3 -5 5 -10z
M5868 5066 c5 -39 -40 -169 -98 -286 -52 -103 -90 -214 -90 -259 0 -42 26
-137 40 -146 5 -3 27 32 48 77 22 46 92 192 156 326 64 134 116 247 116 250 0
4 -37 21 -82 37 -45 17 -85 31 -88 33 -3 1 -4 -13 -2 -32z M5370 3735 c-145
-105 -152 -115 -412 -662 -296 -624 -298 -630 -298 -810 0 -76 2 -85 13 -68
26 37 783 1598 774 1594 -1 0 -36 -25 -77 -54z"/>
</g>
</svg>
