<?xml version="1.0" standalone="no"?>
<!DOCTYPE svg PUBLIC "-//W3C//DTD SVG 20010904//EN"
 "http://www.w3.org/TR/2001/REC-SVG-20010904/DTD/svg10.dtd">
<svg version="1.0" xmlns="http://www.w3.org/2000/svg"
 width="2048.000000pt" height="2048.000000pt" viewBox="0 0 2048.000000 2048.000000"
 preserveAspectRatio="xMidYMid meet">
<metadata>
Created by potrace 1.13, written by Peter Selinger 2001-2015
</metadata>
<g transform="translate(0.000000,2048.000000) scale(0.192120,-0.192120)"
fill="#000000" stroke="none">
<path d="M4465 9764 c-16 -2 -84 -9 -150 -15 -372 -34 -797 -138 -1185 -289
-179 -70 -542 -254 -710 -361 -721 -455 -1289 -1090 -1651 -1844 -224 -467
-356 -932 -416 -1467 -24 -213 -24 -703 0 -916 116 -1028 540 -1929 1250
-2651 365 -371 730 -637 1199 -871 464 -232 925 -369 1473 -437 203 -26 799
-25 1005 0 539 67 1003 206 1470 438 442 221 769 453 1119 794 325 317 554
613 776 1003 97 169 215 417 266 558 l32 92 231 5 c260 5 300 12 431 77 149
73 267 190 343 339 71 138 102 263 102 416 0 384 -236 714 -580 812 -62 17
-163 18 -2295 18 -2504 0 -2276 7 -2440 -75 -386 -194 -552 -711 -361 -1124
115 -250 333 -420 583 -456 43 -6 800 -10 2023 -10 l1955 0 -44 -25 c-66 -38
-165 -120 -209 -173 -54 -66 -96 -139 -206 -360 -52 -107 -121 -231 -153 -275
-302 -434 -508 -653 -852 -911 -333 -249 -513 -363 -790 -501 -457 -228 -893
-355 -1441 -422 -203 -24 -723 -25 -932 0 -716 85 -1331 309 -1924 699 -401
265 -715 557 -996 928 -106 140 -165 226 -213 309 -18 31 -65 112 -105 181
-247 427 -392 838 -492 1388 -20 108 -22 160 -25 651 -4 569 -3 602 48 861
213 1088 849 2050 1778 2684 765 523 1715 784 2641 727 1219 -76 2289 -626
3061 -1576 168 -207 432 -600 517 -770 202 -407 346 -879 401 -1320 21 -164
33 -220 56 -260 24 -43 126 -145 144 -145 16 0 14 128 -4 295 -98 924 -473
1784 -1080 2475 -114 130 -369 380 -490 480 -666 555 -1457 895 -2335 1006
-117 15 -746 29 -825 18z m4735 -4536 c58 -15 144 -36 191 -46 47 -11 113 -33
145 -49 78 -37 183 -141 217 -215 27 -56 27 -59 27 -281 l0 -225 -37 -73 c-46
-91 -137 -185 -213 -222 -92 -44 -163 -57 -365 -66 -150 -7 -208 -14 -275 -32
l-85 -24 -1915 0 -1915 0 -75 23 c-154 48 -267 134 -345 261 -68 113 -75 147
-75 363 0 181 2 197 24 251 32 77 68 129 140 200 90 89 211 141 371 161 17 2
941 3 2055 2 l2025 -1 105 -27z M2793 7415 c-396 -107 -613 -698 -443 -1208
45 -134 102 -228 195 -324 63 -64 97 -90 155 -117 142 -67 271 -67 408 0 317
155 484 647 372 1097 -12 45 -46 133 -76 196 -49 100 -66 124 -142 200 -48 48
-110 99 -138 114 -104 55 -226 70 -331 42z m241 -299 c69 -34 139 -110 179
-194 l32 -67 3 -254 c3 -235 2 -258 -18 -325 -26 -86 -96 -196 -151 -235 -66
-49 -120 -64 -196 -59 -148 11 -258 114 -323 303 -18 52 -20 84 -20 291 0 224
1 236 25 299 36 98 101 182 173 227 86 53 205 59 296 14z M5991 7414 c-164
-44 -330 -208 -412 -405 -194 -473 -39 -1066 326 -1244 281 -138 594 31 739
398 62 156 88 371 66 543 -60 482 -382 799 -719 708z m241 -297 c88 -40 156
-120 198 -229 18 -48 20 -77 20 -310 0 -251 -1 -259 -25 -325 -72 -189 -189
-282 -344 -271 -112 8 -202 72 -268 189 -63 112 -73 167 -73 403 0 223 7 271
50 356 93 185 278 264 442 187z M5110 3200 c-885 -77 -1580 -392 -1875 -849
-50 -78 -98 -171 -92 -178 3 -2 38 21 77 52 219 168 541 324 870 419 435 125
889 175 1595 176 481 0 623 16 640 69 11 36 -14 88 -66 135 -82 74 -228 124
-469 161 -126 19 -526 28 -680 15z"/>
</g>
</svg>
