<?xml version="1.0" standalone="no"?>
<!DOCTYPE svg PUBLIC "-//W3C//DTD SVG 20010904//EN"
 "http://www.w3.org/TR/2001/REC-SVG-20010904/DTD/svg10.dtd">
<svg version="1.0" xmlns="http://www.w3.org/2000/svg"
 width="2048.000000pt" height="2048.000000pt" viewBox="0 0 2048.000000 2048.000000"
 preserveAspectRatio="xMidYMid meet">
<metadata>
Created by potrace 1.13, written by Peter Selinger 2001-2015
</metadata>
<g transform="translate(0.000000,2048.000000) scale(0.192120,-0.192120)"
fill="#000000" stroke="none">
<path d="M5070 10324 c-169 -12 -337 -29 -476 -49 -1166 -172 -2240 -758
-3023 -1651 -1111 -1267 -1509 -3008 -1058 -4634 39 -142 41 -159 31 -195 -7
-22 -13 -76 -13 -120 -1 -152 50 -258 284 -585 197 -275 273 -407 300 -522 36
-151 11 -258 -119 -528 -52 -107 -103 -222 -113 -255 -25 -86 -22 -213 6 -286
51 -133 166 -270 263 -315 60 -27 70 -29 198 -28 95 0 193 9 330 29 222 32
428 39 520 16 148 -36 254 -120 329 -260 164 -304 479 -475 876 -474 148 0
221 11 351 55 l91 31 129 -37 c735 -207 1540 -240 2299 -95 449 86 841 218
1260 424 1812 890 2911 2784 2785 4795 -96 1514 -860 2886 -2103 3772 -387
276 -903 534 -1352 678 -389 124 -806 202 -1220 230 -136 9 -464 11 -575 4z
m790 -228 c579 -69 1084 -216 1575 -456 903 -443 1619 -1130 2118 -2032 42
-75 84 -154 95 -175 10 -21 44 -85 74 -143 144 -269 287 -725 357 -1140 48
-282 53 -371 48 -784 -4 -348 -7 -412 -30 -581 -59 -430 -118 -683 -259 -1100
-111 -331 -146 -415 -251 -615 -159 -303 -325 -544 -528 -765 -20 -22 -74 -83
-119 -135 -315 -362 -764 -727 -1205 -980 -143 -83 -459 -235 -609 -294 -843
-333 -1774 -426 -2661 -266 -192 35 -224 48 -225 91 0 8 50 101 111 205 216
368 522 961 604 1169 37 94 42 164 17 243 l-20 62 82 54 c365 241 921 425
1511 501 314 41 819 64 1402 65 286 0 392 16 433 64 10 13 10 25 0 60 -41 146
-305 255 -719 296 -154 15 -543 12 -732 -6 -680 -64 -1292 -272 -1686 -572
-153 -116 -164 -131 -238 -302 -36 -85 -68 -162 -70 -170 -3 -14 -101 -224
-232 -500 -83 -174 -275 -539 -389 -738 -186 -324 -330 -521 -404 -552 -25
-10 -32 -8 -75 24 -54 42 -77 44 -210 19 -133 -25 -355 -22 -460 6 -232 62
-439 231 -515 419 -17 43 -3 54 60 44 175 -27 294 10 475 147 345 260 749 659
1041 1026 488 615 836 1326 989 2020 14 66 31 138 36 160 6 22 13 112 16 200
5 160 5 160 -23 220 -36 77 -131 173 -205 208 -113 53 -233 54 -346 3 -109
-50 -161 -101 -285 -276 -155 -220 -319 -410 -539 -626 -177 -174 -253 -236
-509 -418 -19 -14 -82 -60 -140 -102 -378 -275 -841 -552 -1315 -786 -60 -30
-130 -67 -155 -83 -73 -46 -145 -126 -185 -205 l-37 -72 4 -132 c3 -121 5
-135 32 -187 116 -231 309 -321 526 -247 175 61 671 321 1006 530 99 61 174
96 174 82 0 -19 -80 -116 -174 -212 -123 -126 -273 -261 -413 -370 -114 -90
-200 -183 -244 -264 -34 -63 -34 -63 -37 -221 -2 -86 -8 -157 -13 -157 -5 0
-9 -7 -9 -16 0 -12 -5 -14 -17 -9 -197 83 -320 89 -722 39 -332 -41 -415 -32
-505 59 -77 77 -86 103 -86 246 l0 121 79 173 c121 263 131 299 131 481 0 166
-6 195 -66 329 -37 83 -117 225 -158 281 -210 288 -312 452 -326 524 -5 29
-14 61 -20 72 -5 10 -10 41 -10 68 0 55 -16 92 -60 140 -16 18 -30 35 -30 38
0 3 10 24 21 47 55 107 205 262 330 340 224 140 496 213 1099 297 606 83 762
111 1006 175 277 73 439 145 724 324 323 203 616 337 880 402 126 31 398 34
499 6 147 -40 276 -127 348 -234 85 -128 118 -265 118 -503 -1 -407 -106 -862
-371 -1603 -35 -99 -64 -181 -64 -184 0 -8 69 77 147 181 127 170 163 256 273
647 41 147 80 310 112 479 17 87 22 157 25 407 5 285 4 306 -17 390 -63 252
-194 401 -434 497 -160 64 -359 81 -546 48 -366 -67 -638 -171 -961 -367 -217
-133 -268 -159 -408 -214 -253 -98 -494 -155 -1046 -246 -154 -25 -362 -54
-462 -65 -471 -50 -829 -167 -1077 -353 -39 -29 -79 -56 -89 -60 -49 -18 -74
34 -106 218 -41 234 -43 271 -38 865 l4 575 31 172 c159 880 500 1608 1075
2296 125 149 397 421 549 549 735 619 1602 996 2548 1107 246 29 237 29 620
26 239 -2 387 -8 480 -19z m-901 -5085 c79 -30 117 -66 158 -147 35 -72 36
-76 30 -156 -3 -46 -20 -153 -37 -238 -159 -803 -530 -1548 -1120 -2250 -290
-346 -866 -868 -1055 -956 -136 -64 -310 -1 -379 138 -44 87 -33 218 25 299
11 16 67 64 122 106 347 261 702 615 992 988 148 190 435 629 420 643 -2 3
-37 -25 -77 -60 -300 -266 -764 -589 -1253 -870 -226 -130 -686 -362 -764
-384 -131 -39 -272 24 -339 151 -22 42 -27 63 -27 130 0 70 4 87 29 132 15 28
41 63 56 78 15 14 139 81 276 149 994 491 1805 1099 2328 1746 46 58 136 182
198 275 l114 170 73 38 c85 43 150 49 230 18z M2164 7251 c-103 -47 -165 -141
-163 -250 0 -37 6 -80 12 -98 22 -59 72 -117 126 -147 49 -26 67 -29 239 -42
224 -17 450 -51 661 -100 86 -20 159 -38 163 -40 3 -2 -9 -27 -28 -55 -49 -74
-68 -146 -61 -241 l5 -77 -36 -12 c-128 -40 -419 -164 -607 -258 -321 -159
-622 -345 -690 -424 -143 -167 -35 -428 187 -453 75 -8 127 11 248 93 376 251
848 470 1280 592 307 86 546 126 859 141 226 11 257 19 329 84 60 55 85 122
80 217 -6 102 -31 142 -155 253 -376 337 -838 570 -1407 711 -423 105 -931
156 -1042 106z m1228 -432 c407 -125 839 -355 1056 -562 49 -48 56 -86 20
-105 -13 -6 -104 -19 -203 -27 -209 -19 -381 -43 -550 -80 -122 -26 -466 -121
-497 -136 -18 -10 -78 -21 -120 -23 -16 0 -28 -5 -28 -9 0 -5 -4 -6 -9 -3 -5
3 37 52 93 108 131 133 152 172 185 358 5 30 14 75 20 100 29 129 4 196 -129
333 -44 45 -80 87 -80 93 0 17 91 -1 242 -47z m-375 -961 c-3 -8 -6 -5 -6 6
-1 11 2 17 5 13 3 -3 4 -12 1 -19z m-120 -50 c-3 -8 -6 -5 -6 6 -1 11 2 17 5
13 3 -3 4 -12 1 -19z m-50 -20 c-3 -8 -6 -5 -6 6 -1 11 2 17 5 13 3 -3 4 -12
1 -19z m-20 -10 c-3 -8 -6 -5 -6 6 -1 11 2 17 5 13 3 -3 4 -12 1 -19z m-17 -4
c0 -8 -5 -12 -10 -9 -6 4 -8 11 -5 16 9 14 15 11 15 -7z m-53 -26 c-3 -8 -6
-5 -6 6 -1 11 2 17 5 13 3 -3 4 -12 1 -19z m-20 -10 c-3 -8 -6 -5 -6 6 -1 11
2 17 5 13 3 -3 4 -12 1 -19z m-17 -5 c0 -8 -4 -11 -10 -8 -5 3 -10 1 -10 -5 0
-6 -4 -9 -9 -6 -5 4 -11 2 -13 -3 -1 -5 -45 -29 -95 -55 -51 -25 -93 -51 -93
-57 0 -5 -4 -7 -10 -4 -5 3 -10 2 -10 -3 0 -9 -48 -33 -67 -35 -4 0 -12 -5
-18 -12 -10 -12 -236 -151 -291 -179 -28 -13 -34 -14 -44 -1 -15 19 17 49 119
113 88 54 517 269 537 269 8 0 14 -7 14 -14z M8155 7263 c-553 -50 -1101 -202
-1520 -422 -222 -116 -390 -232 -579 -399 -132 -117 -158 -158 -164 -261 -5
-95 20 -162 80 -217 72 -65 103 -73 327 -84 318 -16 567 -57 876 -146 433
-125 897 -340 1263 -586 123 -83 175 -102 250 -94 222 25 330 286 187 453 -67
79 -384 274 -699 429 -178 89 -474 214 -598 253 l-36 12 5 77 c7 95 -12 167
-61 241 -19 28 -31 53 -28 55 4 2 77 20 163 40 202 47 426 81 619 96 221 16
229 17 287 50 92 53 139 146 131 261 -8 105 -64 185 -163 230 -33 15 -63 18
-170 17 -71 -1 -148 -3 -170 -5z m-645 -399 c0 -6 -35 -46 -78 -88 -43 -42
-95 -104 -115 -138 -32 -54 -37 -71 -37 -124 0 -34 7 -78 16 -99 8 -21 18 -69
21 -106 3 -38 9 -69 13 -69 4 0 11 -15 14 -33 3 -18 24 -59 45 -92 41 -62 178
-203 219 -224 13 -7 20 -17 15 -24 -5 -8 -8 -8 -11 1 -2 7 -8 10 -13 6 -5 -3
-9 -2 -9 3 0 4 -15 9 -32 10 -49 2 -69 7 -233 56 -354 108 -581 152 -939 182
-155 14 -192 20 -209 35 -31 29 -15 61 60 123 299 243 679 436 1093 555 141
41 180 47 180 26z m157 -1016 c-3 -8 -6 -5 -6 6 -1 11 2 17 5 13 3 -3 4 -12 1
-19z m50 -20 c-3 -8 -6 -5 -6 6 -1 11 2 17 5 13 3 -3 4 -12 1 -19z m70 -30
c-3 -8 -6 -5 -6 6 -1 11 2 17 5 13 3 -3 4 -12 1 -19z m50 -20 c-3 -8 -6 -5 -6
6 -1 11 2 17 5 13 3 -3 4 -12 1 -19z m53 -3 c0 2 15 -4 33 -15 17 -11 38 -20
44 -20 16 0 327 -151 418 -203 141 -79 225 -139 225 -158 0 -27 -26 -24 -85
10 -80 46 -269 159 -280 168 -5 5 -25 15 -43 22 -18 8 -47 25 -66 40 -18 14
-56 37 -84 50 -29 14 -52 28 -52 33 0 5 -4 6 -10 3 -5 -3 -10 -1 -10 5 0 6 -4
8 -10 5 -5 -3 -10 -1 -10 4 0 6 -3 10 -7 9 -16 -3 -63 15 -63 24 0 5 -4 6 -10
3 -5 -3 -10 -1 -10 5 0 6 -4 8 -10 5 -5 -3 -10 1 -10 10 0 13 4 14 20 5 11 -6
20 -8 20 -5z"/>
</g>
</svg>
