<?xml version="1.0" standalone="no"?>
<!DOCTYPE svg PUBLIC "-//W3C//DTD SVG 20010904//EN"
 "http://www.w3.org/TR/2001/REC-SVG-20010904/DTD/svg10.dtd">
<svg version="1.0" xmlns="http://www.w3.org/2000/svg"
 width="2048.000000pt" height="2048.000000pt" viewBox="0 0 2048.000000 2048.000000"
 preserveAspectRatio="xMidYMid meet">
<metadata>
Created by potrace 1.13, written by Peter Selinger 2001-2015
</metadata>
<g transform="translate(0.000000,2048.000000) scale(0.192120,-0.192120)"
fill="#000000" stroke="none">
<path d="M5000 10319 c-1461 -102 -2781 -815 -3662 -1979 -1148 -1517 -1330
-3565 -467 -5271 43 -85 110 -208 149 -272 38 -64 70 -123 70 -131 0 -8 -11
-56 -25 -108 -107 -404 -146 -785 -101 -993 62 -288 184 -513 386 -716 450
-452 1140 -538 1692 -210 45 27 110 71 143 98 l60 49 65 -29 c701 -317 1540
-467 2325 -417 1638 105 3091 977 3957 2377 110 177 282 514 362 708 505 1233
498 2646 -20 3856 -30 69 -54 130 -54 135 0 6 14 23 31 40 43 41 140 185 187
279 53 107 97 234 123 358 31 145 31 389 0 534 -128 607 -609 1048 -1211 1112
-205 22 -506 -19 -910 -125 l-135 -35 -110 66 c-142 86 -442 235 -620 309
-694 285 -1496 417 -2235 365z m860 -223 c481 -58 900 -167 1320 -341 292
-121 340 -139 470 -171 74 -19 144 -34 154 -34 35 0 4 -17 -84 -45 -691 -225
-1383 -548 -1564 -729 -60 -59 -65 -83 -32 -149 25 -52 129 -177 147 -177 16
0 9 87 -11 131 -11 24 -20 63 -20 86 0 40 3 44 55 80 30 21 54 43 55 48 0 10
231 142 358 205 187 92 559 241 857 343 l120 41 180 2 c150 2 200 7 300 29 66
14 170 37 230 50 281 61 547 76 703 41 245 -54 444 -165 608 -338 151 -160
232 -307 296 -539 21 -76 23 -105 23 -314 0 -225 -1 -232 -28 -310 -15 -44
-43 -106 -62 -138 -19 -32 -35 -60 -35 -62 0 -2 -39 -65 -86 -141 -48 -75
-103 -172 -123 -214 -57 -116 -87 -156 -163 -210 -53 -37 -71 -60 -82 -103 -6
-26 -5 -28 16 -22 43 13 163 86 254 154 l90 68 0 -101 c1 -98 3 -107 68 -301
124 -367 170 -555 228 -925 18 -120 21 -190 25 -618 4 -403 2 -505 -12 -620
-70 -593 -229 -1114 -501 -1649 -456 -895 -1225 -1652 -2129 -2098 -294 -145
-483 -213 -850 -304 -532 -133 -914 -178 -1410 -168 -406 8 -688 45 -1147 151
-109 25 -200 50 -408 113 -99 30 -130 35 -227 36 -62 1 -113 3 -113 5 0 1 31
41 69 90 63 79 148 211 164 255 8 20 -2 21 -55 5 -29 -9 -58 -32 -110 -90 -66
-72 -80 -82 -195 -138 -68 -33 -170 -86 -226 -119 -203 -119 -375 -170 -597
-178 -231 -9 -397 25 -596 122 -282 137 -470 347 -573 638 l-31 89 0 309 0
310 45 217 c25 119 50 239 55 265 6 27 10 120 10 208 0 150 2 164 31 256 152
476 464 1146 606 1300 48 51 77 59 163 43 46 -9 76 -10 96 -3 l29 10 -35 32
c-51 48 -117 91 -152 102 -48 13 -92 -14 -159 -99 -184 -230 -437 -782 -656
-1429 -41 -123 -79 -223 -83 -223 -4 0 -13 28 -20 63 -20 97 -75 255 -141 405
-211 475 -330 881 -398 1360 -19 130 -21 191 -21 673 0 481 2 543 21 677 71
510 220 993 442 1437 260 522 545 916 945 1308 531 521 1055 846 1777 1101
380 134 828 227 1250 260 132 10 746 -3 875 -18z M5685 9461 c-81 -21 -140
-71 -286 -241 -400 -466 -715 -1062 -839 -1585 -55 -231 -89 -555 -69 -659 23
-122 123 -212 248 -223 94 -9 146 15 249 110 255 236 486 405 777 568 311 173
700 330 1048 421 l128 34 -78 54 c-92 64 -301 230 -396 313 l-68 60 -132 -48
c-153 -55 -321 -124 -462 -190 l-100 -46 -15 23 c-48 78 -163 152 -252 164
-26 4 -48 11 -48 15 0 13 79 142 163 269 112 167 221 307 358 461 82 92 100
127 107 205 9 116 -48 219 -151 268 -57 28 -135 39 -182 27z m50 -302 c14 -22
-8 -63 -88 -162 -171 -212 -295 -393 -369 -538 -44 -88 -53 -115 -56 -171 -4
-58 -1 -73 24 -119 61 -113 232 -259 389 -334 51 -24 67 -27 124 -22 62 5 180
37 205 55 6 5 31 15 56 22 25 7 50 17 55 20 12 8 132 51 154 55 9 2 16 4 16 5
0 1 8 3 18 5 10 2 17 -3 17 -11 0 -9 -4 -12 -10 -9 -5 3 -10 1 -10 -5 0 -7 -7
-10 -15 -6 -8 3 -15 2 -15 -3 0 -4 -31 -20 -70 -35 -38 -15 -70 -32 -70 -38 0
-6 -7 -8 -15 -4 -8 3 -21 -1 -28 -9 -8 -7 -57 -34 -110 -58 -52 -25 -119 -60
-149 -79 -29 -19 -105 -65 -168 -103 -240 -143 -432 -281 -635 -455 -131 -112
-164 -132 -212 -128 l-38 3 0 210 c1 194 3 219 29 329 90 383 274 778 539
1156 222 317 396 489 432 429z M7022 7839 c8 -27 469 -333 521 -347 34 -9 13
65 -31 111 -47 49 -207 154 -306 202 -83 40 -193 60 -184 34z M7578 7288
c-629 -940 -1303 -1748 -2099 -2514 -638 -615 -1250 -1109 -2042 -1648 l-157
-107 37 -67 c20 -37 40 -71 44 -77 19 -27 176 -351 209 -433 21 -51 40 -96 44
-99 8 -9 224 122 446 271 1282 861 2894 2445 3837 3771 215 303 453 680 436
695 -4 4 -35 17 -68 30 -98 38 -331 151 -468 228 -70 40 -130 72 -132 72 -3 0
-42 -55 -87 -122z m293 -264 c45 -21 81 -45 84 -55 10 -29 -24 -93 -140 -264
-260 -384 -632 -859 -984 -1255 -364 -410 -997 -1052 -1376 -1396 -579 -526
-1196 -1013 -1619 -1278 -106 -66 -134 -70 -170 -23 -39 51 -79 145 -72 170 4
14 74 70 198 157 853 599 1616 1259 2317 2005 545 579 969 1102 1432 1765 52
74 113 154 136 179 39 40 45 43 79 38 20 -3 72 -23 115 -43z M8385 7038 c30
-133 37 -207 42 -420 9 -398 -35 -691 -165 -1084 -170 -517 -460 -1012 -891
-1524 -138 -165 -562 -588 -729 -728 -722 -607 -1439 -946 -2197 -1037 -173
-21 -591 -16 -720 9 -43 8 -81 13 -83 11 -2 -2 8 -39 21 -82 41 -129 51 -199
50 -363 0 -187 -27 -332 -88 -481 -5 -14 21 -28 138 -78 355 -151 727 -239
1141 -272 212 -17 626 -7 836 20 1223 157 2310 793 3056 1788 394 525 674
1156 803 1808 52 262 73 455 78 741 10 491 -46 892 -182 1299 -44 131 -146
380 -163 397 -5 5 -47 -2 -94 -16 -147 -43 -206 -50 -383 -50 -182 0 -258 13
-408 67 l-68 25 6 -30z m827 -315 c54 -62 128 -304 184 -597 24 -127 24 -138
24 -682 0 -540 -1 -556 -25 -697 -146 -862 -559 -1661 -1176 -2276 -675 -672
-1529 -1090 -2484 -1215 -466 -62 -981 -35 -1420 74 -182 45 -383 112 -397
132 -5 7 -7 84 -4 177 3 90 6 194 6 230 l0 66 218 1 c539 3 1049 135 1602 415
719 364 1472 1015 2016 1744 605 809 923 1659 924 2470 l0 160 138 -3 c75 -2
169 1 207 6 117 16 170 14 187 -5z M3445 6124 c-705 -52 -1442 -383 -2079
-934 -185 -160 -219 -210 -218 -325 1 -145 106 -259 251 -272 87 -8 144 15
236 95 223 194 385 315 610 456 l139 87 12 -59 c21 -101 81 -193 169 -256 19
-13 17 -18 -42 -142 -60 -127 -127 -287 -164 -392 l-18 -54 72 -81 c94 -107
176 -208 270 -335 43 -58 79 -98 81 -90 3 7 21 68 41 136 94 325 265 713 442
1005 138 228 302 445 486 644 103 111 127 158 127 243 0 103 -60 199 -153 247
-53 26 -143 36 -262 27z m104 -270 c27 -6 31 -11 31 -39 0 -37 -21 -67 -155
-227 -103 -122 -190 -238 -282 -373 -102 -151 -292 -513 -378 -719 -28 -65
-63 -132 -79 -149 l-28 -31 -19 23 c-34 42 -25 98 46 288 40 105 68 196 71
231 5 52 2 64 -35 137 -51 102 -96 181 -128 225 -48 66 -163 169 -209 186 -42
16 -48 16 -112 -1 -37 -10 -87 -28 -112 -40 -45 -23 -240 -148 -276 -178 -11
-9 -72 -58 -137 -109 -251 -199 -287 -219 -315 -185 -23 27 38 87 253 248 541
407 1118 652 1670 708 107 11 156 12 194 5z M2795 3708 c-14 -73 5 -116 138
-323 139 -215 167 -246 235 -259 25 -4 32 -2 32 10 0 25 -294 481 -374 579
l-24 30 -7 -37z"/>
</g>
</svg>
