<?xml version="1.0" standalone="no"?>
<!DOCTYPE svg PUBLIC "-//W3C//DTD SVG 20010904//EN"
 "http://www.w3.org/TR/2001/REC-SVG-20010904/DTD/svg10.dtd">
<svg version="1.0" xmlns="http://www.w3.org/2000/svg"
 width="2048.000000pt" height="2048.000000pt" viewBox="0 0 2048.000000 2048.000000"
 preserveAspectRatio="xMidYMid meet">
<metadata>
Created by potrace 1.13, written by Peter Selinger 2001-2015
</metadata>
<g transform="translate(0.000000,2048.000000) scale(0.192120,-0.192120)"
fill="#000000" stroke="none">
<path d="M5340 10319 c-350 -35 -753 -144 -1012 -275 -46 -24 -47 -24 -150 -9
-353 50 -746 -15 -1085 -180 -515 -252 -891 -710 -1033 -1259 -63 -247 -61
-157 -57 -2177 2 -1350 7 -1856 15 -1919 64 -455 170 -802 353 -1161 27 -52
49 -98 49 -102 0 -4 -66 -127 -147 -275 -174 -316 -254 -482 -316 -652 -318
-867 -227 -1493 259 -1780 145 -86 292 -135 526 -177 85 -15 347 -17 3146 -20
l3053 -3 -3 782 -4 783 -26 98 c-31 112 -96 256 -158 348 -59 87 -199 229
-284 288 -123 84 -259 144 -389 171 -79 16 -87 11 -87 -50 0 -103 37 -145 187
-215 153 -72 259 -156 354 -280 69 -91 104 -154 133 -237 56 -162 56 -169 56
-834 0 -607 0 -614 -20 -614 -11 0 -20 -7 -20 -15 0 -13 -40 -15 -300 -15
-193 0 -300 -4 -300 -10 0 -5 -20 -10 -45 -10 -25 0 -45 -3 -45 -7 0 -5 -21
-17 -48 -27 -26 -10 -54 -24 -62 -31 -8 -7 -23 -15 -32 -18 -17 -6 -18 22 -18
498 l0 505 -140 0 -140 0 -2 -504 -3 -505 -69 35 c-38 19 -78 34 -88 34 -10 0
-18 5 -18 10 0 7 -556 10 -1727 8 l-1728 -3 -145 -33 c-80 -17 -161 -32 -180
-32 -34 0 -34 0 34 45 95 62 168 126 241 212 127 149 191 260 522 917 129 255
209 403 213 395 4 -8 13 -39 20 -69 21 -94 67 -168 135 -218 82 -60 197 -117
302 -148 107 -32 327 -44 437 -25 170 30 370 115 478 205 108 90 203 207 258
321 80 166 93 213 98 358 3 88 1 127 -7 127 -6 0 -11 8 -11 18 0 22 -37 95
-76 152 -17 25 -36 55 -43 68 l-12 23 891 -1 891 -1 50 65 c292 387 515 909
599 1406 46 273 45 250 45 1795 0 1614 3 1529 -61 1824 -196 910 -805 1689
-1639 2096 -316 154 -607 242 -955 290 -139 19 -528 27 -660 14z m455 -299
c931 -63 1751 -550 2217 -1316 155 -256 258 -521 324 -832 l24 -112 0 -1683
c0 -1658 0 -1684 -21 -1792 -73 -388 -220 -763 -416 -1062 -63 -95 -98 -128
-154 -143 -48 -13 -1154 -10 -1181 4 -42 20 -26 36 149 144 272 167 550 425
768 711 68 90 193 291 253 408 113 221 206 482 260 732 l27 126 0 906 c0 849
-1 907 -17 923 -10 10 -18 21 -18 26 0 4 -34 43 -75 85 -110 112 -133 121
-401 145 -335 30 -308 24 -322 73 -6 23 -13 114 -15 202 -3 159 -4 161 -42
254 -21 51 -56 121 -79 155 -59 89 -209 235 -292 284 -87 52 -361 167 -514
216 -63 21 -187 66 -275 101 -158 62 -344 125 -665 225 -186 58 -282 70 -396
51 -153 -27 -309 -116 -433 -248 -41 -43 -95 -99 -120 -126 -24 -26 -56 -50
-69 -54 -36 -9 -156 4 -252 28 -226 55 -395 5 -562 -167 -89 -91 -114 -125
-155 -212 -27 -57 -35 -89 -39 -155 -3 -45 -15 -115 -27 -155 l-22 -72 -70
-29 c-38 -16 -126 -45 -194 -65 -71 -21 -141 -49 -165 -65 -60 -42 -187 -172
-198 -203 -6 -16 -14 -28 -19 -28 -5 0 -9 -419 -9 -1017 0 -961 1 -1024 19
-1130 34 -192 102 -424 172 -578 37 -82 31 -143 -22 -245 -205 -392 -278 -507
-313 -494 -40 15 -114 253 -156 499 -19 118 -20 159 -20 2110 0 1957 0 1991
20 2074 72 298 206 528 437 752 225 217 499 363 814 433 174 38 297 48 539 40
l215 -7 100 36 c55 19 164 58 243 86 379 135 752 187 1147 161z m-531 -1464
c193 -64 1021 -357 1066 -378 25 -11 110 -42 190 -70 80 -28 171 -66 204 -86
163 -98 266 -280 266 -472 0 -89 -13 -144 -75 -316 -34 -91 -43 -129 -35 -134
31 -19 655 -90 796 -90 34 0 82 -3 108 -6 l47 -7 -4 -816 c-4 -883 -3 -873
-62 -1137 -83 -370 -282 -762 -537 -1059 -258 -300 -589 -540 -947 -685 l-116
-47 -2 -397 c-1 -247 -6 -418 -13 -454 -36 -184 -122 -337 -258 -463 -272
-251 -671 -290 -1000 -97 -65 37 -246 213 -257 249 -4 12 -20 43 -36 69 -44
71 -91 223 -92 299 -1 66 -1 68 281 698 155 347 282 636 282 642 0 16 -47 13
-85 -5 -46 -21 -72 -63 -160 -254 -42 -91 -113 -239 -159 -330 -244 -491 -292
-644 -231 -734 14 -20 25 -42 25 -48 0 -37 -323 -734 -725 -1563 -96 -200
-168 -290 -302 -384 l-32 -22 -76 37 c-75 36 -76 37 -253 45 -97 5 -217 14
-267 20 -134 16 -310 64 -401 110 -181 89 -319 247 -374 426 -21 68 -21 85
-17 380 4 292 5 314 30 413 64 253 160 498 298 755 121 227 187 367 204 433
14 52 14 63 1 93 -9 19 -33 47 -56 63 -22 17 -40 34 -40 38 0 5 14 37 31 71
44 86 600 1109 610 1123 6 7 -8 48 -36 107 -90 192 -164 444 -202 687 -16 105
-18 198 -18 1075 l0 960 30 3 c224 21 519 138 719 284 6 4 -2 50 -19 112 -52
197 -26 318 92 426 76 69 144 93 253 88 66 -4 96 -10 136 -31 45 -23 56 -25
95 -16 86 20 200 -15 278 -86 23 -21 43 -36 45 -34 2 2 20 54 40 114 20 61 53
139 74 174 80 136 228 234 402 265 62 11 186 -6 284 -38z M5164 8425 c-9 -22
-94 -260 -189 -530 -95 -269 -185 -523 -200 -563 -15 -41 -25 -75 -23 -76 9
-8 259 -88 261 -85 4 5 344 975 388 1107 17 51 29 96 26 99 -3 3 -33 -4 -66
-15 -33 -11 -69 -18 -81 -15 -11 3 -38 30 -60 61 l-39 56 -17 -39z M5952 8163
c-5 -16 -67 -190 -136 -388 -70 -198 -161 -456 -202 -573 -42 -118 -73 -216
-69 -220 10 -11 248 -91 256 -87 4 3 10 17 14 32 3 15 88 259 187 543 149 424
217 625 218 637 0 0 -29 -8 -63 -19 -86 -28 -108 -21 -149 47 -18 30 -36 55
-39 55 -4 0 -11 -12 -17 -27z M4200 8045 c0 -3 7 -19 15 -36 9 -16 34 -107 56
-201 22 -95 42 -174 44 -177 6 -5 3 -11 70 189 30 90 55 170 55 177 0 11 -6
10 -30 -2 -44 -23 -90 -19 -141 13 -67 43 -69 44 -69 37z M6610 7892 c39 -92
53 -192 40 -282 -11 -77 -19 -100 -279 -844 -95 -269 -170 -490 -168 -492 2
-3 59 47 126 111 67 63 130 115 140 115 14 0 23 -14 35 -51 17 -51 57 -122 75
-133 10 -7 27 37 167 437 52 148 94 277 94 288 0 24 -41 25 -120 4 -30 -8 -55
-13 -55 -12 -1 1 -7 16 -14 34 -15 38 -11 59 56 293 35 124 44 171 45 236 1
117 -34 217 -107 305 -57 68 -66 66 -35 -9z M6313 6205 c-29 -8 -78 -28 -110
-44 l-58 -29 -69 -197 c-37 -108 -66 -198 -64 -200 2 -2 31 7 65 20 111 45
195 58 378 59 200 1 301 -19 431 -85 85 -42 114 -47 138 -24 37 38 28 73 -52
193 -71 108 -186 213 -288 265 -100 51 -267 70 -371 42z m181 -189 c-14 -42
-28 -75 -30 -73 -2 2 8 38 22 81 14 42 28 75 30 73 2 -2 -8 -38 -22 -81z
M3877 5918 c-19 -32 -690 -1273 -717 -1327 -24 -49 -21 -56 37 -67 71 -13 139
35 216 152 24 38 143 249 262 469 217 398 258 468 291 496 40 33 86 18 659
-208 308 -122 568 -225 578 -228 9 -4 17 -15 17 -25 0 -13 28 -28 109 -59 78
-30 110 -48 114 -61 8 -30 -5 -73 -68 -230 -70 -172 -80 -239 -46 -293 44 -72
31 -94 245 388 58 132 110 245 114 252 6 9 20 6 57 -12 28 -13 60 -25 72 -25
27 0 40 -19 22 -31 -11 -7 -9 -8 6 -7 11 1 46 -4 78 -11 106 -26 208 18 271
118 27 43 181 479 173 488 -9 8 -67 -37 -154 -119 -40 -37 -78 -68 -86 -68
-22 0 -45 32 -66 91 -10 30 -26 69 -34 88 -18 43 -18 45 -92 -163 -31 -88 -61
-168 -66 -179 -33 -61 -152 -153 -168 -130 -3 5 -127 57 -276 116 -889 349
-1439 567 -1497 591 -36 16 -38 15 -51 -6z M5860 5062 c0 -54 -21 -115 -97
-286 -67 -148 -68 -153 -68 -236 0 -64 5 -94 19 -120 l19 -34 25 49 c45 88
282 587 282 594 0 3 -40 21 -90 38 l-90 32 0 -37z M5330 4377 c-5 -12 -61
-138 -124 -279 l-114 -258 534 0 c294 0 534 3 534 6 0 14 -92 143 -145 204
-147 171 -351 297 -530 329 -125 22 -145 21 -155 -2z m380 -303 c0 -39 -23
-60 -122 -112 l-77 -40 13 32 c8 17 40 85 72 151 l58 119 28 -59 c15 -33 28
-74 28 -91z M5360 3713 c-70 -45 -133 -105 -170 -163 -28 -43 -361 -732 -455
-941 -59 -131 -74 -193 -81 -334 l-6 -120 29 50 c30 53 251 503 516 1050 201
417 238 495 229 494 -4 0 -32 -16 -62 -36z"/>
</g>
</svg>
