<?xml version="1.0" standalone="no"?>
<!DOCTYPE svg PUBLIC "-//W3C//DTD SVG 20010904//EN"
 "http://www.w3.org/TR/2001/REC-SVG-20010904/DTD/svg10.dtd">
<svg version="1.0" xmlns="http://www.w3.org/2000/svg"
 width="2048.000000pt" height="2048.000000pt" viewBox="0 0 2048.000000 2048.000000"
 preserveAspectRatio="xMidYMid meet">
<metadata>
Created by potrace 1.13, written by Peter Selinger 2001-2015
</metadata>
<g transform="translate(0.000000,2048.000000) scale(0.192120,-0.192120)"
fill="#000000" stroke="none">
<path d="M5345 10319 c-343 -32 -757 -144 -1016 -275 -47 -23 -48 -23 -155 -9
-60 8 -166 15 -236 15 -881 1 -1658 -601 -1878 -1456 -63 -243 -61 -169 -57
-2180 3 -1956 1 -1851 51 -2139 54 -308 183 -687 322 -942 24 -44 44 -86 44
-91 0 -6 -66 -132 -147 -279 -174 -319 -254 -484 -316 -653 -318 -867 -227
-1493 259 -1780 145 -86 292 -135 526 -177 85 -15 347 -17 3146 -20 l3053 -3
-3 782 -4 783 -26 98 c-31 112 -96 256 -158 348 -59 87 -199 229 -284 288
-134 92 -288 156 -433 181 -40 6 -73 14 -73 16 0 3 26 39 59 82 282 371 494
864 585 1362 52 285 51 262 51 1830 0 1359 -1 1474 -18 1585 -124 829 -542
1540 -1193 2031 -420 316 -910 516 -1444 589 -139 19 -517 27 -655 14z m293
-245 c203 -1 423 -19 495 -40 12 -4 17 1 18 18 l2 23 4 -22 c3 -13 14 -25 26
-28 118 -26 250 -61 323 -85 101 -35 101 -35 106 -16 5 25 276 -98 458 -207
472 -283 869 -718 1105 -1208 64 -134 184 -434 213 -534 12 -38 30 -121 42
-184 20 -112 20 -148 20 -1595 0 -923 -4 -1522 -10 -1591 -32 -345 -120 -691
-255 -1000 -59 -135 -87 -190 -189 -365 -122 -208 -140 -282 -91 -367 l26 -43
-860 0 -860 0 24 53 c14 28 25 58 25 65 0 6 5 12 10 12 6 0 10 11 10 24 0 14
5 28 10 31 6 3 10 26 10 49 0 35 4 45 20 49 12 3 20 14 20 27 0 16 12 26 53
43 28 11 90 41 137 65 749 389 1254 1081 1400 1918 19 111 20 158 20 970 0
563 -3 854 -10 854 -5 0 -10 7 -10 15 0 9 -21 36 -46 60 -62 61 -130 80 -325
94 -85 6 -218 18 -296 26 -156 17 -276 10 -334 -20 -17 -9 -33 -15 -35 -12 -2
2 17 66 42 143 71 219 69 350 -8 506 -46 92 -162 205 -258 251 -69 33 -77 41
-104 92 -49 95 -144 164 -239 173 -44 4 -49 2 -83 -33 -19 -21 -34 -41 -32
-46 2 -6 37 -24 78 -42 180 -79 293 -203 345 -380 23 -79 22 -214 -3 -297 -11
-36 -112 -330 -226 -654 -114 -324 -204 -591 -201 -594 2 -3 58 46 122 110 89
87 124 114 143 114 19 -1 26 -7 28 -27 4 -31 64 -151 79 -156 12 -4 53 106
194 512 51 149 94 272 96 274 1 2 60 -6 130 -17 229 -39 555 -72 708 -72 44 0
90 -3 103 -6 l23 -7 -4 -821 c-4 -890 -3 -884 -63 -1136 -146 -621 -519 -1156
-1054 -1512 -138 -92 -364 -210 -480 -250 l-65 -23 -2 -395 c-2 -464 -10 -522
-86 -675 -252 -509 -919 -624 -1329 -228 -80 78 -123 137 -114 158 3 9 2 14
-3 10 -24 -14 -102 176 -122 300 -9 58 -15 74 -20 60 -125 -302 -375 -839
-754 -1620 -96 -200 -168 -290 -302 -384 l-32 -22 -76 37 c-75 36 -76 37 -253
45 -97 5 -217 14 -267 20 -134 16 -310 64 -401 110 -181 89 -319 247 -374 426
-21 68 -21 85 -17 380 4 292 5 314 30 413 63 252 159 496 297 755 213 400 290
574 290 661 0 59 39 148 170 389 287 530 337 614 485 805 57 74 120 183 365
635 128 237 250 454 271 482 45 60 72 71 132 53 23 -6 303 -115 622 -240 319
-126 588 -232 598 -235 9 -4 17 -15 17 -24 0 -11 31 -28 103 -56 l102 -40 3
-42 c2 -33 -10 -75 -53 -184 -60 -151 -74 -216 -55 -264 l12 -30 20 40 c12 22
59 126 106 230 121 271 122 273 144 311 18 31 22 33 33 18 7 -11 19 -15 29
-11 11 5 15 3 10 -5 -5 -7 0 -9 14 -6 12 4 22 2 22 -4 0 -5 5 -6 10 -3 14 9
52 -4 45 -16 -4 -5 2 -8 12 -7 10 2 44 -4 76 -11 113 -28 225 27 281 138 27
51 166 446 166 468 0 20 -43 -12 -142 -104 -63 -60 -84 -74 -106 -71 -29 3
-37 16 -78 126 -15 39 -30 72 -33 72 -4 0 -33 -75 -65 -167 -33 -93 -66 -181
-73 -196 -36 -74 -149 -161 -177 -138 -7 6 -399 163 -872 350 -472 187 -876
346 -897 355 l-38 17 -15 -28 c-8 -16 -308 -568 -666 -1228 -358 -660 -670
-1233 -693 -1274 l-43 -74 -6 59 c-15 148 -38 261 -82 399 -96 307 -106 345
-144 573 -19 114 -20 172 -20 2080 0 1928 0 1964 20 2052 42 190 131 393 247
565 68 101 140 192 149 187 3 -2 40 30 82 71 221 214 510 366 832 437 152 33
282 43 488 37 186 -6 192 -6 192 13 0 15 7 20 28 20 15 0 37 3 50 6 18 5 22 2
22 -15 0 -20 3 -20 98 15 412 152 623 206 895 230 69 6 77 9 78 28 2 20 2 20
6 1 4 -19 12 -20 231 -21z m1236 -2326 c23 -33 23 -385 0 -429 -30 -59 -136
-189 -154 -189 -21 0 -10 120 21 223 47 152 69 253 76 340 5 66 8 77 24 77 10
0 25 -10 33 -22z m949 -5063 c31 -8 92 -32 134 -54 43 -21 128 -60 190 -86
168 -70 282 -156 384 -290 69 -91 104 -154 133 -237 56 -162 56 -169 56 -834
0 -607 0 -614 -20 -614 -11 0 -20 -7 -20 -15 0 -13 -40 -15 -300 -15 -193 0
-300 -4 -300 -10 0 -5 -20 -10 -45 -10 -25 0 -45 -3 -45 -7 0 -5 -21 -17 -48
-27 -26 -10 -54 -24 -62 -31 -8 -7 -23 -15 -32 -18 -17 -6 -18 22 -18 498 l0
505 -140 0 -140 0 -2 -504 -3 -505 -69 35 c-38 19 -78 34 -88 34 -10 0 -18 5
-18 10 0 7 -556 10 -1727 8 l-1728 -3 -145 -33 c-80 -17 -161 -32 -180 -32
-34 0 -34 0 34 45 95 62 168 126 241 212 127 149 191 260 526 925 116 230 215
415 220 412 5 -3 9 -16 9 -29 0 -39 38 -148 68 -192 48 -72 166 -149 301 -197
93 -33 136 -43 249 -56 212 -24 492 45 666 163 80 54 205 182 259 265 103 158
167 379 167 577 0 78 2 85 20 85 13 0 20 7 20 20 0 20 7 20 698 20 584 0 707
-2 755 -15z M4960 8754 c-227 -40 -420 -181 -522 -381 -39 -77 -43 -94 -47
-169 -1 -46 -7 -84 -11 -84 -4 0 -27 9 -51 19 -24 11 -60 22 -79 26 -29 5 -40
16 -65 57 -55 93 -165 148 -296 148 -174 0 -341 -108 -434 -281 l-40 -74 -3
-134 c-3 -88 -9 -142 -17 -155 -7 -12 -16 -36 -20 -54 -5 -22 -17 -40 -38 -53
-49 -30 -221 -94 -332 -124 -149 -40 -197 -70 -287 -183 -17 -21 -18 -85 -18
-1020 0 -1099 0 -1084 64 -1332 84 -327 159 -440 287 -431 14 1 8 24 -37 136
-82 208 -133 401 -166 630 -10 69 -13 313 -13 1044 l0 954 105 18 c185 31 368
99 524 194 143 86 133 71 107 166 -35 126 -41 183 -30 247 21 111 92 207 194
260 45 24 61 27 155 27 96 0 110 -2 159 -28 74 -39 145 -114 169 -180 11 -29
37 -123 57 -208 20 -85 39 -156 41 -158 2 -2 6 2 8 10 3 8 51 147 107 309 55
162 115 322 132 355 43 83 154 191 240 233 128 63 282 77 413 37 26 -8 50 -12
53 -10 2 3 -2 24 -9 47 -16 48 -68 104 -116 124 -34 14 -144 25 -184 18z
M5503 8599 c-32 -9 -87 -74 -78 -90 6 -9 191 -77 443 -163 189 -64 192 -65
192 -42 0 39 -26 90 -67 131 -45 44 -141 91 -273 133 -112 35 -173 44 -217 31z
M5201 8538 c-5 -13 -45 -126 -89 -253 -45 -126 -143 -403 -218 -615 -74 -212
-138 -392 -140 -400 -4 -11 26 -25 126 -59 72 -24 132 -42 134 -40 5 8 456
1302 454 1304 -7 4 -246 85 -252 85 -3 0 -10 -10 -15 -22z M5995 8280 c-3 -5
-102 -285 -221 -622 -119 -337 -221 -626 -226 -641 -6 -15 -7 -31 -4 -35 12
-11 248 -92 256 -87 4 3 11 17 15 32 4 16 103 304 221 642 118 337 213 618
212 623 -5 15 -247 98 -253 88z M6313 6205 c-29 -8 -78 -28 -110 -44 l-58 -29
-69 -197 c-37 -108 -66 -198 -64 -200 2 -2 31 7 65 20 111 45 195 58 378 59
200 1 301 -19 431 -85 85 -42 114 -47 138 -24 37 38 28 73 -52 193 -71 108
-186 213 -288 265 -100 51 -267 70 -371 42z m181 -189 c-14 -42 -28 -75 -30
-73 -2 2 8 38 22 81 14 42 28 75 30 73 2 -2 -8 -38 -22 -81z M5860 5059 c0
-51 -25 -126 -101 -296 -52 -116 -62 -149 -67 -211 -3 -54 0 -84 13 -117 9
-25 20 -45 24 -45 4 0 18 21 31 48 66 134 280 585 280 591 0 3 -40 21 -90 38
l-90 32 0 -40z M5330 4377 c-5 -12 -61 -138 -124 -279 l-114 -258 534 0 c294
0 534 3 534 6 0 3 -21 37 -46 74 -101 151 -226 271 -369 357 -116 69 -210 100
-358 117 -43 5 -49 3 -57 -17z m360 -204 c28 -59 36 -113 21 -140 -10 -19
-188 -119 -196 -111 -6 6 137 298 146 298 4 0 17 -21 29 -47z M5372 3725 c-84
-56 -148 -118 -189 -183 -44 -69 -457 -924 -493 -1023 -33 -87 -50 -197 -49
-307 l0 -77 162 325 c201 403 641 1312 634 1309 -1 -1 -30 -20 -65 -44z M5014
3753 c-54 -11 -89 -75 -307 -573 -98 -223 -187 -425 -198 -449 -32 -69 -39
-245 -9 -215 10 10 81 169 369 820 99 226 181 414 181 418 0 3 -3 5 -7 5 -5
-1 -18 -4 -29 -6z"/>
</g>
</svg>
