<?xml version="1.0" standalone="no"?>
<!DOCTYPE svg PUBLIC "-//W3C//DTD SVG 20010904//EN"
 "http://www.w3.org/TR/2001/REC-SVG-20010904/DTD/svg10.dtd">
<svg version="1.0" xmlns="http://www.w3.org/2000/svg"
 width="2048.000000pt" height="2048.000000pt" viewBox="0 0 2048.000000 2048.000000"
 preserveAspectRatio="xMidYMid meet">
<metadata>
Created by potrace 1.13, written by Peter Selinger 2001-2015
</metadata>
<g transform="translate(0.000000,2048.000000) scale(0.192120,-0.192120)"
fill="#000000" stroke="none">
<path d="M5075 10323 c-234 -14 -504 -48 -727 -93 -2151 -431 -3758 -2198
-3993 -4390 -22 -204 -30 -609 -16 -815 50 -741 238 -1404 579 -2050 626
-1182 1734 -2078 3031 -2451 222 -63 705 -163 893 -183 122 -14 604 -14 803
-1 1469 98 2806 819 3679 1985 714 954 1070 2134 996 3300 -70 1083 -460 2068
-1154 2910 -127 154 -475 501 -637 636 -823 681 -1815 1076 -2887 1149 -139 9
-439 11 -567 3z m710 -259 c834 -74 1659 -379 2350 -869 164 -117 338 -257
473 -382 58 -54 109 -97 113 -96 21 6 351 -376 485 -562 523 -722 816 -1509
906 -2430 7 -79 12 -285 13 -525 0 -428 -6 -498 -71 -820 -156 -774 -506
-1509 -1003 -2110 -625 -755 -1417 -1276 -2366 -1557 -66 -19 -163 -48 -215
-63 -52 -16 -153 -50 -225 -76 -194 -70 -365 -121 -504 -150 -124 -25 -168
-28 -89 -5 24 7 102 41 173 76 443 215 730 590 850 1110 24 101 47 375 33 375
-3 0 -21 -6 -39 -14 -64 -27 -77 -55 -110 -241 -27 -154 -56 -241 -133 -395
-56 -112 -128 -236 -145 -250 -3 -3 -25 -30 -48 -60 -126 -166 -327 -309 -525
-374 -160 -52 -248 -61 -583 -61 -282 0 -321 2 -430 23 -332 64 -517 132 -664
247 -201 155 -367 420 -441 702 -45 171 -60 306 -60 541 0 146 -3 221 -10 217
-5 -3 -10 2 -10 12 0 20 -76 73 -104 73 -17 0 -18 -21 -14 -322 4 -285 7 -336
27 -432 92 -451 332 -822 681 -1053 115 -76 115 -77 24 -42 -115 44 -301 137
-447 223 -70 42 -165 93 -210 115 -553 264 -785 403 -1119 669 -417 332 -736
679 -1037 1130 -222 332 -412 725 -539 1112 -109 334 -157 542 -212 917 -6 43
-10 292 -10 620 0 496 2 561 20 683 107 721 355 1364 763 1975 193 289 371
500 604 716 251 233 252 234 413 359 595 462 1299 781 2043 926 70 13 87 20
87 34 0 11 10 20 25 22 20 4 25 1 25 -14 0 -16 5 -19 28 -14 114 23 443 54
622 59 165 5 429 -4 605 -19z M6460 9509 c-389 -34 -809 -207 -1106 -454 -155
-130 -331 -322 -430 -470 -79 -120 -197 -359 -237 -482 -89 -270 -97 -329 -97
-671 0 -252 2 -284 25 -396 130 -642 528 -1157 1123 -1455 327 -164 736 -239
1090 -200 472 51 900 249 1225 568 297 291 497 651 589 1061 21 98 23 126 23
430 0 366 -5 401 -86 645 -44 132 -168 395 -225 478 -206 294 -421 503 -684
663 -265 161 -566 258 -885 284 -142 11 -186 11 -325 -1z m306 -209 c303 -25
567 -107 817 -254 687 -404 1043 -1200 886 -1981 -126 -626 -576 -1157 -1172
-1379 -534 -200 -1122 -150 -1607 136 -988 582 -1226 1896 -506 2792 226 280
549 500 891 605 171 52 300 73 541 90 12 0 79 -4 150 -9z M6376 8295 c-211
-58 -377 -246 -408 -464 -41 -280 131 -545 407 -627 80 -24 220 -24 299 0 202
60 351 215 402 416 23 89 15 231 -18 320 -64 174 -210 308 -388 355 -68 18
-228 18 -294 0z m276 -311 c25 -8 67 -33 92 -55 l46 -41 0 -131 c0 -117 -3
-136 -21 -167 -27 -43 -41 -55 -104 -85 -139 -66 -317 -25 -397 90 -26 38 -27
47 -28 148 0 122 9 148 64 191 95 72 224 90 348 50z M3031 7429 c-94 -11 -241
-50 -335 -89 -203 -85 -423 -263 -561 -455 -65 -90 -149 -258 -186 -370 l-34
-100 -3 -253 c-4 -290 4 -342 83 -523 108 -249 250 -420 469 -566 138 -93 384
-173 592 -194 364 -37 780 110 1014 358 169 178 259 329 326 548 27 86 28 102
32 327 3 228 2 242 -22 336 -27 105 -99 276 -149 357 -276 443 -742 680 -1226
624z m274 -210 c435 -53 798 -362 920 -784 113 -389 -6 -818 -303 -1097 -133
-125 -299 -217 -479 -265 -88 -24 -116 -27 -268 -27 -153 0 -180 3 -270 27
-118 32 -257 97 -360 168 -85 58 -223 198 -277 280 -217 329 -247 734 -80
1082 205 426 652 673 1117 616z M3010 6437 c-228 -78 -370 -272 -372 -508 -1
-244 156 -454 391 -523 68 -20 208 -21 281 -1 183 49 332 194 381 373 80 286
-85 582 -370 666 -83 24 -230 21 -311 -7z m283 -304 c26 -8 63 -30 82 -48 l35
-32 0 -125 c0 -113 -2 -128 -22 -158 -70 -104 -290 -121 -406 -32 -52 40 -72
91 -72 191 0 101 18 137 88 178 87 51 187 60 295 26z M7978 5340 c-21 -5 -123
-46 -228 -90 -866 -366 -1411 -548 -2106 -704 -810 -182 -1366 -248 -2339
-276 -393 -12 -442 -18 -538 -66 -103 -53 -183 -168 -208 -299 -15 -81 -5
-217 26 -342 93 -382 353 -773 725 -1091 l75 -64 3 513 2 512 57 -84 c53 -80
117 -162 157 -202 43 -44 285 -139 491 -192 201 -52 606 -108 613 -85 2 5 13
10 25 10 12 0 55 18 95 40 l72 39 0 -680 c0 -742 -2 -721 58 -771 67 -56 176
-38 222 36 20 33 20 47 20 677 0 354 3 667 6 695 l6 51 68 -34 c38 -18 73 -33
79 -33 6 0 11 -4 11 -8 0 -11 164 11 365 49 195 37 417 93 588 150 153 50 188
74 302 212 44 53 83 93 87 89 5 -5 7 -320 6 -700 -2 -381 -2 -692 -1 -692 11
0 192 89 275 135 314 176 587 391 835 660 128 138 189 217 301 385 296 443
451 911 452 1357 0 409 -106 676 -309 776 -58 29 -76 32 -161 34 -52 1 -112
-2 -132 -7z m223 -292 c22 -12 50 -38 64 -58 51 -73 55 -108 55 -465 0 -292
-3 -340 -20 -420 -113 -512 -482 -1077 -947 -1449 -168 -136 -383 -273 -404
-260 -5 3 -9 199 -9 437 l0 432 72 40 c376 209 738 539 967 882 79 117 166
287 191 373 40 134 23 206 -74 308 -65 69 -98 92 -160 112 -27 9 -52 22 -54
29 -4 13 70 48 131 61 60 13 144 3 188 -22z m-231 -385 c-91 -215 -253 -447
-445 -638 -141 -141 -243 -225 -415 -340 -448 -299 -1030 -503 -1700 -595
-196 -28 -608 -38 -797 -21 -240 22 -434 62 -648 132 -183 60 -454 193 -577
281 -94 69 -268 215 -268 227 0 4 122 5 270 3 271 -5 524 6 805 34 1201 118
2599 464 3500 868 88 40 194 91 235 114 41 22 76 39 78 37 2 -2 -15 -48 -38
-102z m-4841 -669 c17 -4 31 -13 31 -21 0 -8 -4 -11 -10 -8 -5 3 -10 2 -10 -2
0 -5 -32 -43 -71 -84 -77 -81 -129 -160 -129 -199 0 -41 78 -184 141 -259 l59
-71 -2 -182 -3 -181 -47 49 c-53 54 -186 270 -223 363 -51 125 -59 168 -63
340 -3 157 -2 165 19 187 47 50 214 86 308 68z"/>
</g>
</svg>
