<?xml version="1.0" standalone="no"?>
<!DOCTYPE svg PUBLIC "-//W3C//DTD SVG 20010904//EN"
 "http://www.w3.org/TR/2001/REC-SVG-20010904/DTD/svg10.dtd">
<svg version="1.0" xmlns="http://www.w3.org/2000/svg"
 width="2048.000000pt" height="2048.000000pt" viewBox="0 0 2048.000000 2048.000000"
 preserveAspectRatio="xMidYMid meet">
<metadata>
Created by potrace 1.13, written by Peter Selinger 2001-2015
</metadata>
<g transform="translate(0.000000,2048.000000) scale(0.192120,-0.192120)"
fill="#000000" stroke="none">
<path d="M5070 10324 c-636 -43 -1161 -165 -1712 -400 -129 -54 -368 -172
-437 -214 l-34 -21 20 -21 c12 -12 39 -22 64 -25 47 -5 177 38 449 149 701
286 1382 407 2115 377 579 -24 1098 -136 1655 -359 420 -168 492 -187 555
-146 l29 19 -25 20 c-42 34 -417 213 -589 280 -481 189 -988 302 -1515 337
-136 9 -464 11 -575 4z M995 10035 c-311 -69 -549 -293 -637 -601 -32 -114
-32 -315 0 -429 29 -101 81 -209 130 -271 21 -27 41 -55 45 -61 5 -8 -9 -34
-34 -65 -22 -29 -58 -87 -80 -129 -184 -366 -71 -815 265 -1050 38 -27 73 -49
77 -49 4 0 39 65 78 145 58 120 191 365 230 424 7 12 20 7 67 -25 260 -172
603 -97 774 168 49 76 80 171 80 249 l0 58 38 10 c20 6 42 11 48 11 7 0 49 19
95 42 114 57 247 188 302 298 97 196 102 433 12 611 -14 28 -25 52 -25 54 0 5
241 160 297 191 60 33 60 32 10 134 -21 42 -57 91 -102 136 -133 135 -320 192
-507 153 -124 -26 -265 -119 -333 -221 -16 -24 -30 -45 -32 -47 -1 -2 -34 26
-72 62 -154 145 -346 218 -569 216 -54 0 -124 -7 -157 -14z m313 -240 c61 -15
117 -40 316 -143 83 -43 108 -52 152 -52 56 0 126 30 214 94 84 60 190 106
261 113 61 5 67 4 82 -17 9 -13 38 -30 64 -39 42 -14 48 -20 51 -46 2 -24 -8
-44 -48 -94 -72 -89 -110 -169 -110 -228 0 -26 9 -85 20 -131 26 -109 26 -230
0 -306 -47 -137 -99 -198 -245 -286 -84 -51 -191 -152 -241 -230 -16 -25 -32
-46 -36 -48 -5 -2 -8 -12 -8 -23 0 -11 -15 -53 -34 -93 -85 -181 -255 -235
-500 -157 -116 37 -164 39 -224 10 -55 -27 -189 -160 -226 -225 -34 -58 -84
-114 -103 -114 -21 0 -59 40 -85 90 -22 43 -23 55 -23 245 l0 200 57 125 c92
201 94 241 22 396 -83 181 -84 186 -84 383 0 141 3 187 16 217 26 62 98 166
150 217 58 56 178 121 261 141 77 19 223 19 301 1z M8253 10036 c-145 -35
-299 -157 -361 -286 -49 -103 -49 -101 11 -134 81 -44 298 -188 294 -195 -145
-269 -106 -590 97 -809 100 -107 201 -168 334 -202 l42 -11 0 -58 c0 -78 31
-173 80 -249 171 -266 523 -341 777 -166 45 31 56 35 64 23 39 -59 172 -304
230 -424 39 -80 74 -145 78 -145 21 0 116 73 187 144 254 254 315 635 155 955
-22 42 -58 101 -81 130 -36 46 -40 55 -28 70 101 138 134 202 170 329 30 102
31 313 4 412 -81 293 -280 502 -566 596 -77 25 -99 28 -235 28 -179 1 -233
-11 -381 -84 -76 -37 -121 -67 -178 -121 -42 -39 -78 -70 -79 -68 -98 148
-206 230 -348 264 -77 18 -194 18 -266 1z m285 -269 c37 -18 114 -62 170 -97
94 -58 110 -64 165 -67 57 -3 69 0 147 42 266 142 332 165 473 165 208 0 376
-85 489 -249 83 -119 98 -174 98 -346 0 -134 -2 -151 -29 -228 -16 -45 -47
-120 -70 -166 -36 -75 -41 -93 -41 -155 0 -55 6 -83 26 -126 14 -30 41 -93 60
-139 l34 -84 0 -196 c0 -221 -9 -267 -61 -317 -28 -27 -31 -28 -56 -14 -15 8
-51 51 -80 95 -66 98 -174 209 -229 235 -56 28 -104 25 -225 -12 -84 -26 -121
-32 -195 -32 -82 0 -97 3 -156 32 -72 35 -143 104 -154 149 -4 15 -13 37 -20
48 -8 11 -14 29 -14 40 0 70 -167 255 -289 320 -86 46 -164 118 -206 190 l-30
50 0 190 c0 105 4 222 9 261 8 66 7 76 -17 125 -14 30 -49 86 -76 124 -62 86
-67 113 -26 134 16 9 37 26 47 38 23 27 47 32 126 28 47 -3 82 -13 130 -38z
M3413 8096 c-352 -81 -606 -533 -579 -1031 17 -322 144 -609 341 -768 209
-168 453 -177 667 -24 172 123 297 341 355 617 24 116 24 371 0 493 -46 228
-152 435 -289 562 -143 132 -328 189 -495 151z m259 -323 c107 -51 181 -140
233 -277 l26 -69 -3 -306 -4 -306 -28 -64 c-117 -269 -334 -375 -539 -263 -98
53 -192 182 -236 326 -19 62 -21 91 -21 330 0 249 2 264 24 328 97 276 330
404 548 301z M7303 8096 c-133 -31 -284 -139 -377 -270 -238 -334 -273 -842
-87 -1231 236 -492 724 -577 1037 -182 212 269 285 674 189 1052 -76 302 -264
538 -486 614 -83 28 -196 35 -276 17z m250 -319 c106 -48 190 -145 239 -276
l28 -76 0 -283 c0 -260 -2 -288 -21 -345 -52 -155 -145 -274 -251 -322 -51
-23 -77 -29 -140 -29 -65 0 -85 5 -140 32 -113 56 -201 168 -254 325 -23 67
-24 82 -24 332 0 211 3 272 16 316 51 171 173 306 313 346 68 19 167 11 234
-20z M712 7243 c-17 -38 -56 -136 -86 -219 -273 -749 -359 -1595 -245 -2399
134 -945 536 -1830 1162 -2558 108 -126 349 -370 482 -487 1201 -1059 2820
-1475 4397 -1129 1349 295 2549 1179 3242 2387 355 619 563 1267 642 2007 25
227 25 736 0 970 -52 503 -180 1016 -348 1403 l-41 94 -26 -26 c-23 -23 -26
-34 -26 -94 1 -56 13 -103 72 -282 111 -332 183 -624 183 -736 0 -55 26 -228
46 -305 21 -82 20 -969 -1 -1136 -87 -679 -294 -1282 -643 -1883 -273 -469
-704 -965 -1062 -1225 -15 -11 -97 -72 -181 -136 -595 -450 -1254 -749 -1969
-893 -501 -102 -1072 -123 -1586 -61 -687 84 -1368 322 -1954 683 -364 224
-789 566 -1006 809 -176 199 -362 436 -491 628 -339 507 -598 1135 -712 1730
-61 319 -61 315 -61 947 0 526 2 596 20 713 43 286 112 579 196 820 56 161 94
296 94 330 0 31 -21 73 -47 98 -19 17 -21 16 -51 -50z M5373 5879 c-111 -10
-220 -41 -328 -93 -197 -94 -367 -267 -460 -470 -64 -137 -80 -220 -80 -406 0
-142 4 -176 23 -245 50 -174 139 -324 263 -445 244 -239 589 -331 920 -246
119 30 191 62 294 131 203 135 353 349 410 587 36 148 29 357 -17 507 -23 75
-85 203 -130 270 -149 215 -426 383 -671 406 -127 12 -144 12 -224 4z m293
-299 c211 -54 382 -185 465 -355 l29 -60 0 -241 c0 -270 -2 -281 -72 -397
-135 -224 -434 -356 -722 -318 -232 31 -429 155 -538 337 -73 125 -80 161 -76
397 3 200 4 203 32 257 80 154 197 264 359 339 136 62 368 80 523 41z M2115
5599 c-297 -37 -591 -214 -764 -459 -140 -199 -204 -403 -203 -650 1 -313 119
-583 348 -800 124 -118 268 -203 429 -253 225 -70 529 -60 724 24 60 25 57 35
-22 70 -76 33 -161 47 -227 36 -79 -13 -313 -2 -385 18 -277 77 -561 343 -650
610 -24 70 -25 85 -25 302 0 133 5 245 11 268 17 63 83 189 133 254 45 58 183
191 198 191 4 0 8 7 8 15 0 33 171 124 315 166 70 21 101 24 245 24 184 0 254
-14 396 -79 182 -84 335 -230 436 -416 67 -122 69 -137 66 -436 l-3 -269 -49
-115 c-41 -95 -50 -128 -54 -189 -4 -71 12 -161 28 -161 12 0 101 116 144 187
174 290 198 679 61 996 -195 454 -671 727 -1160 666z M8230 5599 c-443 -51
-831 -394 -941 -833 -27 -104 -37 -336 -19 -444 31 -196 125 -399 254 -547 49
-57 61 -41 61 83 0 95 -1 99 -47 192 -82 168 -88 200 -88 454 0 278 9 312 126
486 139 209 305 332 539 401 70 21 101 24 245 24 176 0 225 -9 359 -62 106
-42 178 -92 281 -192 117 -115 167 -181 217 -287 l38 -79 3 -276 3 -275 -30
-83 c-65 -178 -250 -404 -401 -489 -141 -80 -272 -108 -532 -116 -185 -6 -247
-18 -321 -65 l-31 -19 39 -16 c144 -61 407 -84 578 -52 314 59 580 241 747
510 342 551 135 1282 -445 1571 -209 104 -407 140 -635 114z M2760 3783 c-60
-42 -81 -97 -62 -162 15 -49 198 -358 297 -501 508 -733 1154 -1205 1848
-1350 314 -66 660 -65 980 1 791 164 1528 769 2052 1685 53 94 89 167 92 191
11 83 -52 153 -138 153 -39 0 -60 -11 -169 -83 -254 -169 -564 -330 -870 -450
-916 -361 -1759 -391 -2661 -94 -390 129 -824 338 -1144 553 -96 65 -116 74
-155 74 -27 0 -56 -7 -70 -17z m531 -524 c509 -274 1042 -449 1594 -525 161
-21 564 -30 736 -15 569 50 1196 241 1722 527 65 35 125 64 134 64 68 0 -221
-389 -459 -616 -437 -416 -905 -651 -1428 -714 -121 -14 -427 -12 -550 4 -248
34 -476 103 -705 216 -302 148 -569 350 -828 628 -93 99 -227 257 -227 267 0
3 -18 29 -39 58 -69 92 -101 167 -72 167 5 0 60 -27 122 -61z"/>
</g>
</svg>
