<?xml version="1.0" standalone="no"?>
<!DOCTYPE svg PUBLIC "-//W3C//DTD SVG 20010904//EN"
 "http://www.w3.org/TR/2001/REC-SVG-20010904/DTD/svg10.dtd">
<svg version="1.0" xmlns="http://www.w3.org/2000/svg"
 width="2048.000000pt" height="2048.000000pt" viewBox="0 0 2048.000000 2048.000000"
 preserveAspectRatio="xMidYMid meet">
<metadata>
Created by potrace 1.13, written by Peter Selinger 2001-2015
</metadata>
<g transform="translate(0.000000,2048.000000) scale(0.192120,-0.192120)"
fill="#000000" stroke="none">
<path d="M5258 10315 c-15 -8 -74 -73 -132 -143 l-105 -129 -99 -6 c-394 -26
-848 -127 -1215 -269 -107 -42 -410 -185 -455 -216 -11 -7 35 -92 206 -378
121 -203 249 -420 285 -482 36 -62 67 -114 69 -115 3 -1 67 75 143 168 344
423 957 1166 1002 1214 l49 54 38 -13 c55 -18 130 -7 201 29 33 17 65 31 72
31 7 0 48 -16 92 -35 84 -37 142 -44 200 -24 30 11 33 9 74 -37 50 -56 1038
-1261 1094 -1334 21 -27 41 -49 44 -50 3 0 57 89 119 198 63 108 183 315 267
460 84 144 153 264 153 267 0 2 -46 30 -102 61 -326 183 -717 327 -1098 404
-157 31 -431 70 -499 70 -37 0 -42 4 -134 118 -52 64 -107 128 -121 141 -32
30 -108 38 -148 16z m-908 -694 c0 -32 -55 -106 -330 -439 -63 -77 -128 -148
-143 -157 -26 -16 -30 -16 -53 0 -29 19 -118 154 -177 266 -55 106 -51 117 60
164 184 77 598 200 631 188 6 -3 12 -13 12 -22z m2105 -31 c136 -40 363 -125
473 -178 43 -21 58 -33 60 -52 7 -47 -138 -302 -190 -334 -30 -18 -65 13 -206
180 -193 229 -291 363 -292 397 0 15 4 27 8 27 5 0 71 -18 147 -40z M3065
9629 c-46 -13 -73 -49 -165 -214 l-84 -150 -192 -190 c-210 -209 -281 -293
-414 -493 l-89 -133 62 -95 c56 -84 63 -92 75 -76 7 9 81 139 164 287 83 149
188 333 233 410 l82 140 59 7 c79 9 105 13 129 23 31 12 93 85 116 135 12 25
35 76 52 113 22 50 46 82 84 117 l54 47 -25 31 c-14 16 -38 33 -53 36 -16 4
-35 9 -43 10 -8 2 -29 0 -45 -5z M7460 9622 c-34 -17 -80 -73 -80 -98 0 -7 9
-15 19 -19 40 -12 97 -63 118 -106 37 -73 65 -157 61 -185 -2 -19 -15 -33 -51
-53 -100 -56 -186 -148 -273 -291 -98 -163 -115 -252 -70 -369 61 -154 243
-336 350 -348 153 -18 366 243 366 447 -1 74 -21 140 -94 295 -25 55 -45 111
-44 125 3 21 9 26 48 31 24 3 53 4 63 1 12 -3 82 -133 220 -409 l202 -404 88
96 c48 53 87 101 87 108 -1 18 -145 214 -251 338 -52 62 -160 175 -241 253
l-146 142 -106 213 c-103 205 -108 213 -149 231 -52 24 -73 25 -117 2z m339
-913 l32 -45 -123 -175 c-68 -96 -130 -185 -139 -198 -15 -24 -17 -22 -155
174 l-141 199 97 135 c53 75 115 164 139 199 l42 63 108 -153 c59 -84 122
-174 140 -199z M5240 9579 c-75 -34 -188 -126 -330 -268 -142 -143 -211 -226
-250 -301 -13 -25 -28 -54 -34 -65 -7 -13 -12 -124 -14 -299 -3 -277 -3 -279
21 -330 37 -77 105 -161 224 -279 140 -138 202 -187 288 -230 138 -70 216 -72
342 -13 95 45 144 83 282 219 129 127 206 219 245 292 l26 50 0 300 0 300 -26
50 c-44 81 -110 162 -254 306 -252 253 -393 326 -520 268z m368 -361 l282
-283 0 -275 0 -275 -280 -280 -280 -280 -280 280 -280 280 0 275 0 275 278
281 c152 154 277 282 277 282 1 1 128 -125 283 -280z M3061 9149 c-13 -5 -26
-7 -29 -5 -6 7 -28 -11 -81 -66 -46 -47 -153 -229 -197 -336 -34 -83 -32 -159
5 -239 67 -141 198 -300 277 -338 53 -25 107 -21 162 11 98 57 229 216 277
334 11 27 18 70 18 107 0 53 -7 77 -41 147 -79 164 -197 315 -286 367 -55 31
-67 33 -105 18z m157 -246 c61 -87 124 -176 140 -198 l30 -40 -96 -136 c-54
-75 -117 -165 -141 -200 l-44 -63 -16 24 c-9 14 -71 103 -139 199 l-123 174
36 51 c20 28 82 117 138 198 56 81 103 147 104 147 0 1 51 -70 111 -156z
M1783 8710 c-64 -39 -63 -29 -63 -565 0 -512 1 -528 46 -553 13 -7 13 -20 -5
-123 -34 -197 -44 -365 -38 -619 9 -350 42 -611 108 -858 103 -392 285 -615
397 -488 23 27 35 56 52 133 112 506 271 897 516 1270 144 218 351 454 513
585 64 51 76 57 91 46 10 -7 85 -66 166 -131 506 -400 878 -592 1065 -547 126
30 185 174 149 360 -4 25 -6 47 -4 49 2 2 79 -70 171 -160 345 -338 628 -551
763 -574 83 -13 119 49 100 175 -13 94 -73 274 -140 421 -28 63 -54 121 -58
129 -3 8 10 2 29 -13 127 -103 232 -167 380 -229 372 -159 983 -268 1637 -294
l173 -7 299 -597 c253 -506 307 -606 350 -653 61 -67 103 -84 152 -64 184 77
302 659 302 1487 0 311 -2 356 -21 460 -40 212 -43 222 -61 213 -25 -12 -6979
-15 -7024 -2 -21 5 -38 14 -38 20 0 6 20 49 45 97 25 47 45 91 45 98 0 7 5 14
12 16 9 3 13 85 18 309 3 167 9 309 13 316 4 7 38 22 75 33 104 31 103 25 32
134 -79 122 -107 146 -168 146 -29 0 -59 -8 -79 -20z m933 -1445 c7 -18 -21
-69 -111 -205 -154 -230 -309 -536 -411 -814 -48 -131 -67 -166 -89 -166 -23
0 -51 67 -76 185 -22 104 -23 134 -27 549 -2 241 -1 444 2 452 8 21 704 21
712 -1z m1832 -15 c4 -31 -46 -90 -75 -90 -54 0 -173 68 -173 98 0 18 22 21
135 19 110 -2 110 -2 113 -27z m882 5 c0 -14 5 -25 10 -25 6 0 10 -33 10 -80
0 -65 -3 -80 -15 -80 -9 0 -18 -7 -21 -15 -4 -8 -12 -15 -19 -15 -18 0 -215
196 -215 214 0 22 15 24 138 25 l112 1 0 -25z m3208 -520 c2 -507 1 -548 -18
-663 -25 -145 -36 -179 -61 -193 -16 -8 -25 -1 -63 58 -24 37 -127 235 -229
439 -171 341 -191 376 -252 441 -82 90 -168 148 -238 162 -28 6 -153 18 -277
26 -235 16 -446 38 -540 55 -30 5 -120 21 -200 35 -175 31 -385 82 -414 100
-12 7 -36 16 -53 20 -18 4 -33 11 -33 16 0 5 -7 9 -15 9 -21 0 -19 28 3 33 9
3 550 4 1202 3 l1185 -1 3 -540z M8737 8719 c-21 -12 -227 -240 -227 -251 0
-15 78 -47 116 -49 76 -2 92 -9 103 -41 7 -19 11 -123 11 -264 0 -144 4 -235
10 -239 6 -3 10 -23 10 -43 0 -43 100 -247 121 -247 7 0 24 15 36 34 l23 34 0
489 c0 540 1 529 -63 568 -35 22 -110 26 -140 9z M1727 5670 c-231 -270 -336
-745 -261 -1180 48 -277 150 -497 304 -651 82 -82 186 -143 269 -157 l44 -7
32 -150 c83 -384 193 -698 367 -1045 474 -949 1283 -1608 2213 -1804 246 -51
341 -60 635 -60 293 0 389 9 632 60 1106 233 2022 1107 2437 2328 65 191 114
366 149 536 l27 135 45 7 c176 30 368 218 474 464 196 451 153 1073 -98 1439
-37 54 -41 57 -44 35 -8 -49 20 -218 53 -325 63 -204 65 -217 65 -504 0 -146
-4 -278 -10 -295 -118 -382 -211 -528 -405 -636 -144 -80 -195 -151 -236 -330
-57 -250 -94 -362 -209 -630 -34 -80 -86 -205 -116 -279 -91 -225 -195 -406
-356 -621 -123 -164 -202 -248 -383 -410 -285 -253 -469 -381 -750 -520 -450
-223 -944 -322 -1448 -290 -680 42 -1240 276 -1792 750 -144 123 -157 136
-290 295 -394 472 -637 960 -805 1620 -71 278 -95 315 -268 414 -106 60 -151
99 -215 183 -66 88 -94 144 -138 268 l-34 95 -3 350 c-4 389 -3 396 66 565 19
47 43 107 53 134 21 56 42 188 37 231 l-3 29 -38 -44z M3855 5593 c-68 -25
-107 -54 -144 -109 -48 -73 -53 -120 -49 -466 4 -349 4 -351 76 -430 50 -56
121 -88 196 -88 90 0 134 17 198 80 87 85 90 99 86 497 l-3 328 -30 53 c-67
123 -206 179 -330 135z M6659 5604 c-82 -15 -184 -114 -209 -202 -6 -22 -10
-167 -10 -348 0 -358 4 -387 73 -461 113 -123 301 -125 409 -5 74 82 73 76 73
462 0 380 0 377 -65 460 -54 68 -176 110 -271 94z M4944 3641 c-187 -85 -226
-334 -72 -465 73 -63 94 -66 458 -66 364 0 385 3 458 66 154 131 115 380 -72
465 -38 17 -70 19 -386 19 -316 0 -348 -2 -386 -19z M6649 2551 c-36 -11 -65
-28 -115 -66 -114 -87 -417 -162 -789 -195 -167 -15 -661 -15 -830 0 -376 33
-657 103 -798 199 -77 53 -116 64 -196 59 -103 -8 -181 -59 -229 -152 -21 -41
-26 -65 -25 -121 0 -116 47 -188 171 -266 317 -200 889 -301 1617 -286 574 12
967 85 1274 234 189 93 271 192 271 329 0 173 -187 314 -351 265z m-2509 -349
c120 -57 259 -107 327 -117 36 -5 48 -16 29 -27 -9 -5 -22 -6 -29 -1 -6 4 -20
6 -29 5 -10 -2 -18 0 -18 5 0 4 -12 9 -27 9 -68 4 -103 10 -103 18 0 4 -7 6
-15 2 -8 -3 -15 -1 -15 5 0 6 -4 7 -10 4 -12 -8 -146 37 -219 74 -64 33 -86
54 -78 75 8 21 68 5 187 -52z m2565 58 c12 -20 -22 -52 -90 -85 -86 -41 -193
-78 -206 -70 -5 4 -9 2 -9 -4 0 -6 -7 -8 -15 -5 -8 4 -15 2 -15 -2 0 -8 -35
-14 -102 -18 -16 0 -28 -5 -28 -9 0 -5 -8 -7 -17 -6 -10 1 -26 -1 -36 -6 -21
-9 -46 9 -27 20 6 4 21 8 33 10 33 5 59 12 92 25 17 6 37 13 45 15 30 6 124
47 222 95 98 49 141 60 153 40z m-2150 -211 c-11 -17 -35 -9 -35 11 0 18 3 19
20 10 11 -6 18 -15 15 -21z m1581 -6 c-3 -3 -13 -2 -23 1 -17 7 -17 8 2 22 18
13 20 13 23 -1 2 -9 1 -19 -2 -22z m-1526 2 c0 -8 -7 -15 -15 -15 -8 0 -15 7
-15 15 0 8 7 15 15 15 8 0 15 -7 15 -15z m1470 0 c0 -8 -6 -15 -14 -15 -17 0
-28 14 -19 24 12 12 33 6 33 -9z m-1407 -10 c1 -5 -6 -11 -15 -13 -11 -2 -18
3 -18 13 0 17 30 18 33 0z m1337 -1 c0 -17 -22 -14 -28 4 -2 7 3 12 12 12 9 0
16 -7 16 -16z m-1256 -3 c3 -5 -1 -12 -10 -15 -22 -9 -24 -8 -24 9 0 16 25 21
34 6z m1186 -7 c0 -11 -5 -14 -16 -10 -9 3 -18 6 -20 6 -3 0 -2 5 1 10 10 16
35 12 35 -6z m-1096 -3 c3 -5 -1 -11 -9 -15 -9 -3 -15 0 -15 9 0 16 16 20 24
6z m996 -5 c0 -9 -7 -12 -21 -9 -16 4 -17 8 -7 14 19 13 28 11 28 -5z m-862
-5 c10 -6 7 -10 -12 -13 -18 -4 -26 -1 -26 8 0 16 18 18 38 5z m742 -5 c0 -9
-8 -12 -26 -8 -19 3 -22 7 -12 13 20 13 38 11 38 -5z m-505 -5 l40 -9 -35 -1
c-19 -1 -45 -4 -57 -7 -17 -5 -23 -2 -23 10 0 18 15 19 75 7z m295 -7 c0 -11
-5 -14 -16 -10 -9 3 -34 7 -57 7 l-42 2 35 7 c60 13 80 11 80 -6z"/>
</g>
</svg>
