<?xml version="1.0" standalone="no"?>
<!DOCTYPE svg PUBLIC "-//W3C//DTD SVG 20010904//EN"
 "http://www.w3.org/TR/2001/REC-SVG-20010904/DTD/svg10.dtd">
<svg version="1.0" xmlns="http://www.w3.org/2000/svg"
 width="2048.000000pt" height="2048.000000pt" viewBox="0 0 2048.000000 2048.000000"
 preserveAspectRatio="xMidYMid meet">
<metadata>
Created by potrace 1.13, written by Peter Selinger 2001-2015
</metadata>
<g transform="translate(0.000000,2048.000000) scale(0.192120,-0.192120)"
fill="#000000" stroke="none">
<path d="M5257 10106 c-365 -65 -608 -267 -699 -583 -20 -68 -23 -101 -23
-253 0 -148 4 -189 23 -265 43 -170 104 -302 180 -386 36 -41 50 -50 73 -47
26 2 31 -4 69 -79 52 -104 160 -222 253 -277 62 -36 66 -41 71 -80 3 -22 13
-99 21 -171 9 -71 18 -131 20 -133 10 -11 76 23 106 54 l34 35 -1 112 c0 122
-4 133 -74 237 -33 48 -93 112 -232 244 -45 42 -98 71 -150 80 -21 4 -38 10
-38 14 0 4 9 25 20 47 31 62 27 126 -15 207 -83 160 -82 301 1 367 55 43 179
19 210 -41 12 -24 13 -38 3 -86 -34 -164 73 -160 141 6 18 42 36 82 42 89 18
22 95 51 258 97 192 53 315 93 399 131 40 19 69 25 86 21 53 -13 126 -151 155
-291 12 -58 12 -60 -11 -75 -96 -62 -109 -100 -109 -305 0 -85 -4 -146 -10
-150 -5 -3 -10 -24 -10 -47 0 -27 -10 -58 -30 -94 -35 -60 -72 -95 -121 -113
-109 -40 -226 -137 -270 -223 -28 -54 -26 -182 2 -243 46 -98 152 -153 267
-140 l57 7 -33 -35 c-78 -82 -199 -121 -372 -121 -207 1 -337 65 -385 191 -20
51 -6 48 -292 64 -165 9 -239 9 -330 0 -236 -24 -340 -33 -458 -37 l-120 -5
-820 406 -820 407 -54 -6 c-53 -5 -141 -42 -148 -62 -2 -5 20 -16 49 -24 68
-17 174 -72 265 -137 39 -29 89 -61 111 -72 22 -11 42 -24 44 -29 1 -5 111
-64 243 -130 132 -66 280 -146 329 -176 48 -31 92 -53 98 -50 5 3 35 -8 66
-24 137 -72 510 -244 573 -263 l70 -21 52 21 c28 12 81 46 117 76 36 29 65 53
66 52 1 -1 16 -54 34 -117 35 -122 49 -270 33 -342 l-8 -38 -70 55 c-38 31
-86 63 -105 72 -19 9 -37 20 -40 23 -3 3 -48 11 -100 18 -52 6 -121 20 -152
31 -85 29 -391 188 -573 296 -88 53 -203 117 -255 142 -194 93 -356 164 -385
168 -16 2 -49 7 -72 11 -24 4 -55 2 -75 -5 -36 -13 -98 -52 -98 -63 0 -9 85
-54 785 -416 l620 -320 105 -20 c86 -16 133 -19 258 -15 104 4 152 2 152 -5 0
-6 21 -14 48 -17 123 -17 277 -47 301 -59 96 -51 174 -215 223 -471 21 -110
23 -146 22 -440 0 -259 -4 -360 -22 -530 -27 -248 -64 -508 -96 -657 -12 -60
-22 -108 -20 -108 1 0 18 7 37 15 l36 15 -26 -68 c-14 -37 -50 -134 -79 -217
-30 -82 -73 -202 -96 -265 -23 -63 -77 -184 -120 -269 -43 -85 -78 -155 -78
-157 0 -1 28 -24 63 -51 259 -202 531 -335 704 -344 l61 -4 193 280 c105 154
223 326 261 383 l69 103 217 -308 c120 -169 225 -318 233 -330 l15 -22 65 44
c119 80 282 176 394 230 120 58 273 115 310 115 13 0 26 3 28 8 3 4 -115 249
-262 545 -214 432 -262 538 -246 535 19 -4 20 0 17 116 -2 67 3 308 12 536 25
661 19 878 -29 1064 -9 32 -14 61 -12 63 4 4 316 -148 527 -257 118 -60 129
-64 202 -66 42 -2 123 -10 180 -18 57 -9 180 -27 273 -41 94 -13 276 -40 405
-59 725 -108 659 -101 721 -83 73 22 139 80 169 148 26 62 25 152 -4 211 -29
60 -91 116 -149 133 -29 9 -358 61 -732 115 -374 55 -714 105 -755 111 -68 10
-103 26 -390 176 -173 91 -368 196 -432 234 -203 119 -362 169 -592 185 -111
8 -98 -10 -116 164 -7 63 -14 126 -17 140 -4 25 -2 26 96 48 187 42 293 117
343 241 22 54 23 68 23 336 0 275 0 281 23 312 60 84 112 237 112 329 0 72
-33 193 -76 274 -78 149 -260 333 -392 395 -111 53 -231 76 -407 81 -107 2
-186 -1 -238 -10z m373 -256 c93 -15 187 -48 250 -88 126 -79 166 -149 98
-170 -18 -6 -118 -37 -223 -71 -104 -33 -241 -76 -302 -95 -62 -19 -140 -51
-173 -70 -34 -20 -72 -36 -85 -36 -13 0 -56 16 -96 35 -112 53 -175 47 -280
-31 l-48 -35 -7 26 c-13 51 2 178 26 230 50 106 198 221 347 269 129 42 351
58 493 36z m-762 -2250 c98 -7 159 -17 193 -30 27 -11 49 -16 49 -11 0 5 42
-12 94 -38 125 -64 212 -85 351 -85 125 0 187 12 333 60 120 40 181 43 276 14
47 -15 66 -26 66 -38 1 -11 22 -27 63 -45 99 -45 266 -140 272 -156 10 -26 -4
-46 -57 -81 -75 -48 -153 -125 -183 -178 l-25 -45 0 -768 c0 -506 3 -769 10
-769 6 0 10 -8 10 -18 0 -10 4 -22 9 -27 17 -18 73 -126 68 -131 -3 -3 -69 0
-147 7 -183 15 -550 7 -678 -16 -121 -22 -335 -79 -552 -148 -96 -31 -175 -55
-177 -54 -1 1 25 50 58 107 80 141 95 186 118 347 36 248 41 340 41 763 0 441
-3 485 -51 658 -77 277 -246 481 -452 543 -57 18 -68 25 -73 47 -3 15 -8 33
-10 40 -2 7 1 22 6 32 8 15 24 20 73 23 129 7 176 7 315 -3z m2078 -332 c18
-39 52 -86 89 -123 94 -96 154 -115 590 -185 105 -17 204 -33 220 -35 103 -18
335 -59 420 -75 55 -10 165 -30 244 -45 150 -27 181 -39 181 -66 0 -33 -5 -33
-290 2 -47 5 -103 12 -125 14 -22 2 -134 18 -250 34 -188 28 -529 70 -690 86
-123 12 -196 26 -246 45 -28 12 -54 18 -57 16 -2 -3 -20 1 -39 9 -44 18 -110
19 -185 1 l-57 -14 -6 30 c-19 83 37 237 116 323 23 25 45 45 48 45 4 0 21
-28 37 -62z m-699 -2208 c44 -16 70 -53 172 -252 194 -375 247 -514 209 -546
-37 -30 -266 -144 -303 -151 -65 -12 -89 8 -205 164 -168 227 -283 325 -381
325 -101 0 -250 -140 -446 -422 -161 -231 -192 -257 -285 -245 -53 7 -214 85
-261 127 -50 43 -48 71 9 212 26 62 77 199 114 303 85 235 93 255 125 293 30
36 63 50 259 106 178 52 333 83 472 96 133 12 480 5 521 -10z M1576 8645
c-187 -53 -336 -201 -392 -390 -12 -40 -18 -91 -17 -155 1 -161 56 -285 178
-399 219 -204 547 -198 760 14 111 110 167 241 167 392 0 232 -144 440 -361
521 -82 31 -257 40 -335 17z m226 -286 c76 -16 148 -51 186 -88 32 -32 32 -33
32 -133 0 -97 -1 -102 -34 -157 -41 -66 -66 -91 -126 -122 -38 -20 -60 -24
-140 -24 -108 0 -169 21 -228 78 -55 52 -62 75 -62 195 0 127 13 156 91 203
84 52 182 69 281 48z M6889 4034 c-43 -111 -49 -159 -28 -254 6 -28 56 -141
110 -250 l99 -199 0 -93 c0 -60 -4 -100 -12 -110 -20 -24 -87 -65 -328 -203
-779 -444 -1059 -621 -1127 -714 -29 -38 -46 -105 -38 -151 6 -36 5 -38 -35
-54 -157 -63 -342 72 -358 261 l-5 62 39 5 c136 20 192 43 408 165 81 46 131
69 135 62 6 -9 335 175 691 387 112 67 213 164 253 244 22 45 27 68 27 128 0
62 -6 86 -37 159 -82 192 -142 252 -282 285 l-60 14 14 -35 c8 -19 64 -130
125 -246 104 -198 110 -213 93 -225 -10 -7 -306 -179 -657 -382 l-639 -369
-102 -104 c-68 -69 -107 -117 -116 -143 -11 -31 -14 -137 -14 -519 0 -538 -3
-514 75 -599 57 -61 118 -89 200 -89 112 0 207 60 254 162 20 44 21 63 24 428
l3 382 32 19 c18 10 374 216 792 457 826 475 838 483 865 581 16 57 16 145 0
206 -10 38 -342 694 -376 742 -13 18 -14 18 -25 -10z M4438 3868 c-49 -65
-241 -364 -259 -403 -10 -22 -19 -49 -19 -60 0 -14 -216 -219 -676 -645 -372
-344 -695 -642 -717 -662 -22 -21 -45 -38 -51 -38 -6 0 -31 -10 -56 -21 -50
-22 -101 -68 -131 -115 -30 -48 -221 -845 -221 -918 1 -103 55 -185 156 -239
58 -31 184 -31 241 0 52 28 110 88 129 134 9 21 47 169 86 330 39 162 73 302
76 312 4 11 16 17 37 17 18 0 50 9 72 19 47 21 1491 1348 1600 1470 57 63 282
393 368 538 l19 34 -58 -22 c-182 -66 -247 -113 -339 -246 -99 -141 -177 -221
-675 -682 -278 -258 -567 -531 -642 -609 -75 -77 -184 -184 -243 -237 -112
-103 -129 -126 -140 -190 -12 -73 -14 -75 -53 -75 -50 1 -112 30 -166 80 -81
75 -121 197 -97 297 l12 49 82 -1 c75 0 88 3 147 34 36 19 105 71 155 114 49
44 122 108 160 142 39 34 77 64 85 67 15 6 273 243 675 618 206 193 274 273
350 415 21 39 57 102 81 140 55 89 74 144 74 211 0 56 -17 154 -30 167 -4 4
-18 -7 -32 -25z"/>
</g>
</svg>
