<?xml version="1.0" standalone="no"?>
<!DOCTYPE svg PUBLIC "-//W3C//DTD SVG 20010904//EN"
 "http://www.w3.org/TR/2001/REC-SVG-20010904/DTD/svg10.dtd">
<svg version="1.0" xmlns="http://www.w3.org/2000/svg"
 width="2048.000000pt" height="2048.000000pt" viewBox="0 0 2048.000000 2048.000000"
 preserveAspectRatio="xMidYMid meet">
<metadata>
Created by potrace 1.13, written by Peter Selinger 2001-2015
</metadata>
<g transform="translate(0.000000,2048.000000) scale(0.192120,-0.192120)"
fill="#000000" stroke="none">
<path d="M5320 10115 c-8 -2 -49 -9 -90 -15 -259 -42 -502 -205 -602 -405 -27
-53 -24 -52 -56 -22 -88 83 -309 112 -433 55 -72 -33 -128 -83 -253 -226 -58
-66 -124 -135 -148 -155 -160 -129 -417 -164 -567 -76 -59 35 -47 12 35 -67
159 -152 298 -240 444 -281 52 -14 101 -18 245 -17 164 0 189 3 279 27 130 36
231 87 303 152 l59 53 17 -89 c20 -106 51 -185 114 -294 84 -145 159 -237 365
-446 35 -36 142 -116 165 -124 1 0 9 -61 17 -135 9 -74 19 -154 22 -177 l6
-42 -38 -4 -39 -4 41 -1 c62 -3 130 25 164 66 29 36 30 39 30 145 0 103 -1
110 -35 177 -44 87 -137 188 -207 223 -40 20 -68 27 -113 27 -33 0 -70 3 -82
6 l-21 6 19 66 c45 156 46 180 7 197 -50 22 -85 104 -94 220 -7 90 9 141 55
172 42 29 71 29 105 2 40 -32 54 -66 92 -232 47 -205 52 -215 53 -87 1 114 20
224 47 269 22 38 52 54 176 97 245 85 379 186 455 346 16 32 33 58 39 58 21 0
129 -86 177 -141 63 -71 93 -134 116 -244 31 -148 32 -163 12 -170 -40 -12
-111 -66 -126 -95 -9 -18 -30 -79 -46 -136 -50 -179 -82 -230 -239 -384 -85
-83 -149 -156 -169 -190 -29 -51 -31 -62 -31 -151 0 -156 35 -225 141 -278 53
-26 73 -31 137 -31 l76 0 -28 -29 c-85 -88 -283 -136 -461 -112 -143 20 -253
91 -290 187 -20 52 -6 49 -290 65 -181 10 -236 9 -400 -5 -105 -9 -208 -19
-230 -22 -22 -3 -94 -8 -160 -10 l-120 -5 -810 401 c-446 221 -824 404 -842
407 -47 8 -127 -15 -175 -50 l-42 -30 84 -27 c47 -14 96 -32 110 -40 37 -19
263 -168 280 -184 8 -7 112 -62 230 -121 118 -59 244 -126 280 -149 179 -116
196 -125 216 -120 14 4 99 -32 255 -106 245 -118 373 -170 414 -170 40 0 106
36 176 95 35 29 65 52 67 51 2 -2 17 -50 33 -107 33 -112 48 -277 32 -337 l-8
-33 -67 53 c-95 76 -159 106 -250 119 -43 5 -110 21 -149 34 -67 23 -445 212
-479 240 -32 26 -260 155 -345 196 -165 78 -380 170 -405 174 -14 2 -44 7 -67
11 -30 4 -54 2 -84 -10 -48 -20 -99 -53 -99 -66 0 -11 62 -44 795 -423 l630
-326 107 -20 c90 -17 129 -20 253 -14 105 4 149 3 154 -5 4 -6 40 -16 81 -22
41 -6 116 -18 165 -26 86 -16 92 -18 137 -65 144 -148 328 -712 329 -1009 0
-107 -11 -174 -106 -613 -66 -309 -97 -483 -94 -534 1 -16 -27 -107 -63 -203
-36 -96 -85 -231 -109 -300 -24 -69 -81 -199 -126 -289 -46 -91 -83 -166 -83
-167 0 -1 28 -24 63 -51 259 -202 531 -335 704 -344 l61 -4 193 280 c105 154
223 326 261 383 l69 103 217 -308 c120 -169 225 -318 233 -331 l16 -22 41 30
c77 56 347 214 437 256 108 50 258 104 290 104 13 0 26 3 28 8 3 4 -115 249
-262 545 -230 466 -263 538 -243 534 17 -3 21 0 18 12 -66 229 -147 926 -130
1117 7 75 11 85 109 269 46 88 47 91 42 160 -3 39 -16 104 -30 145 -14 41 -24
76 -23 78 3 3 317 -151 516 -253 128 -65 139 -69 210 -71 41 -2 401 -51 800
-110 l725 -107 56 16 c194 57 252 297 106 438 -51 50 -94 63 -342 99 -115 17
-331 49 -480 71 -148 22 -396 58 -550 80 l-280 41 -315 165 c-173 91 -371 198
-440 239 -69 40 -159 86 -201 103 -91 36 -251 68 -383 77 l-96 7 -5 31 c-10
70 -37 327 -34 330 2 1 31 18 64 36 81 45 221 187 272 275 69 120 108 245 123
395 6 65 20 116 58 217 28 73 60 167 72 210 20 69 21 84 11 146 -22 135 -108
282 -244 419 -185 187 -333 246 -632 253 -88 2 -167 2 -175 0z m-80 -291 c0
-13 10 -14 73 -7 218 24 477 -15 477 -73 0 -9 -55 -71 -122 -138 -103 -101
-135 -126 -193 -153 -38 -17 -123 -57 -189 -87 -65 -31 -128 -56 -141 -56 -12
0 -48 9 -80 20 -32 11 -65 20 -74 20 -43 0 -97 -26 -158 -75 -104 -83 -110
-82 -233 23 -34 29 -71 52 -84 52 -25 0 -107 -31 -209 -80 -75 -36 -226 -80
-272 -80 -44 0 -57 16 -40 49 18 36 134 153 173 177 18 10 32 24 32 31 0 20
55 43 102 43 25 0 56 -8 75 -19 41 -26 127 -51 172 -51 20 0 48 8 62 18 14 9
50 33 80 54 30 20 90 66 133 102 43 36 83 66 88 66 14 0 118 79 118 90 0 15
41 38 116 65 82 29 94 30 94 9z m-362 -2234 c155 -12 180 -19 270 -75 41 -25
76 -45 78 -45 2 0 4 7 4 15 0 12 7 11 43 -4 74 -32 182 -51 284 -51 110 0 187
14 328 59 116 38 215 43 215 12 0 -14 10 -21 38 -26 52 -8 172 -62 298 -132
127 -70 138 -90 79 -138 -83 -66 -166 -151 -190 -193 -21 -37 -25 -58 -25
-124 0 -59 -5 -90 -20 -120 -11 -23 -20 -52 -20 -65 0 -13 -20 -71 -45 -127
l-45 -104 0 -301 c0 -249 4 -326 21 -447 26 -186 50 -251 140 -370 39 -52 69
-98 66 -101 -3 -3 -57 0 -119 6 -144 14 -454 14 -589 1 -161 -17 -312 -54
-581 -145 -278 -93 -262 -96 -178 30 120 182 134 222 221 644 27 134 29 160
29 363 0 183 -3 234 -21 316 -46 218 -105 395 -198 595 -48 106 -85 160 -168
248 -79 84 -150 132 -236 160 -62 20 -65 23 -70 58 -2 20 -2 41 0 48 8 21 207
27 391 13z m2157 -462 c88 -91 213 -129 640 -194 17 -2 44 -7 60 -11 17 -3 39
-7 51 -8 11 -2 45 -8 75 -14 30 -6 65 -13 79 -15 14 -2 48 -10 75 -16 28 -6
64 -13 80 -15 43 -6 87 -15 97 -22 5 -3 28 -7 51 -8 36 -3 97 -16 146 -31 10
-3 11 -8 3 -16 -6 -6 -19 -7 -29 -3 -10 3 -47 9 -83 11 -120 9 -144 12 -345
37 -307 40 -542 67 -625 73 -117 7 -134 11 -316 65 -45 13 -108 11 -177 -7
-75 -19 -80 -13 -73 75 7 81 57 191 117 256 l42 46 41 -76 c23 -41 63 -98 91
-127z m1415 -353 c0 -8 -7 -15 -15 -15 -8 0 -15 7 -15 15 0 8 7 15 15 15 8 0
15 -7 15 -15z m62 -10 c0 -5 -5 -11 -11 -13 -6 -2 -11 4 -11 13 0 9 5 15 11
13 6 -2 11 -8 11 -13z m-2272 -1727 c20 -8 49 -31 65 -49 15 -19 95 -169 177
-333 163 -329 169 -349 119 -394 -42 -40 -238 -134 -288 -140 -56 -6 -71 8
-203 183 -139 185 -257 291 -347 310 -43 9 -108 -21 -189 -86 -79 -65 -141
-138 -262 -309 -142 -201 -171 -238 -209 -261 -50 -31 -113 -21 -227 36 -177
87 -183 102 -103 292 31 72 79 198 107 279 57 166 90 237 128 276 68 73 501
192 767 212 28 2 136 3 240 1 144 -1 199 -6 225 -17z M1576 8645 c-187 -53
-336 -201 -392 -390 -12 -40 -18 -91 -17 -155 1 -161 56 -285 178 -399 219
-204 547 -198 760 14 173 172 216 413 114 632 -60 128 -173 231 -308 281 -82
31 -257 40 -335 17z m242 -290 c75 -18 156 -57 188 -92 22 -23 24 -35 24 -117
0 -87 -2 -94 -36 -151 -47 -79 -69 -102 -129 -133 -44 -24 -62 -27 -145 -27
-108 0 -169 21 -228 78 -55 52 -62 75 -62 195 0 127 13 156 91 203 89 55 188
70 297 44z M6884 4029 c-24 -47 -44 -126 -44 -174 0 -73 28 -148 122 -333 l93
-184 3 -94 c4 -93 4 -94 -26 -122 -25 -23 -143 -95 -301 -182 -349 -193 -758
-434 -896 -528 -234 -158 -294 -233 -278 -348 6 -43 5 -44 -30 -59 -151 -63
-335 72 -354 260 l-6 54 39 5 c148 22 211 47 399 154 54 32 96 50 107 46 16
-5 652 355 788 446 96 65 220 207 220 253 0 7 5 18 11 24 7 7 10 37 7 80 -8
129 -119 339 -206 390 -37 22 -157 63 -184 63 -13 0 13 -56 132 -283 104 -198
110 -213 93 -225 -10 -7 -305 -179 -656 -382 l-639 -368 -103 -104 c-67 -69
-107 -118 -116 -144 -11 -31 -14 -137 -14 -519 0 -538 -3 -514 75 -599 57 -61
118 -89 200 -89 112 0 207 60 254 162 20 44 21 65 26 429 l5 383 255 147 c140
81 496 286 790 456 584 336 614 357 640 452 16 57 16 144 0 206 -10 38 -342
693 -375 742 -13 17 -15 16 -31 -15z M4438 3868 c-49 -65 -241 -364 -259 -403
-10 -22 -19 -49 -19 -60 0 -14 -213 -217 -671 -640 -369 -341 -691 -639 -717
-662 -25 -24 -50 -43 -56 -43 -6 0 -31 -10 -56 -21 -50 -22 -101 -68 -131
-115 -29 -47 -221 -844 -221 -917 0 -102 55 -186 156 -240 58 -31 184 -31 241
0 52 28 110 88 129 134 9 21 47 169 86 330 39 162 73 302 76 312 4 11 16 17
37 17 79 1 19 -52 1292 1128 204 188 389 366 412 395 39 47 313 461 341 514
11 20 10 21 -16 14 -69 -21 -193 -74 -234 -101 -54 -36 -84 -68 -174 -190
-108 -146 -143 -180 -694 -690 -283 -262 -569 -533 -635 -603 -66 -70 -160
-161 -208 -203 -96 -83 -123 -125 -135 -206 -7 -50 -9 -53 -39 -56 -75 -7
-193 79 -238 173 -30 64 -41 146 -26 200 l10 40 88 1 c80 0 94 3 151 34 34 18
126 90 205 159 78 69 147 126 152 126 20 0 891 814 945 884 55 70 224 352 256
427 10 22 17 68 18 104 1 67 -21 190 -34 190 -4 0 -19 -15 -32 -32z"/>
</g>
</svg>
