<?xml version="1.0" standalone="no"?>
<!DOCTYPE svg PUBLIC "-//W3C//DTD SVG 20010904//EN"
 "http://www.w3.org/TR/2001/REC-SVG-20010904/DTD/svg10.dtd">
<svg version="1.0" xmlns="http://www.w3.org/2000/svg"
 width="2048.000000pt" height="2048.000000pt" viewBox="0 0 2048.000000 2048.000000"
 preserveAspectRatio="xMidYMid meet">
<metadata>
Created by potrace 1.13, written by Peter Selinger 2001-2015
</metadata>
<g transform="translate(0.000000,2048.000000) scale(0.192120,-0.192120)"
fill="#000000" stroke="none">
<path d="M6455 10323 c-309 -43 -597 -247 -735 -523 -244 -486 -53 -1067 431
-1311 469 -235 1053 -46 1293 421 111 216 139 435 85 668 -88 381 -394 669
-784 738 -74 13 -220 16 -290 7z m330 -313 c199 -51 364 -175 445 -335 l35
-69 0 -245 c0 -235 -1 -248 -23 -295 -66 -144 -175 -258 -309 -325 -88 -44
-263 -108 -333 -122 -156 -30 -421 60 -545 185 -52 53 -119 163 -164 269 -25
61 -26 67 -26 288 l0 226 39 76 c104 205 305 333 576 367 86 11 218 2 305 -20z
M5910 10239 c-390 -80 -762 -221 -1125 -427 -140 -79 -415 -267 -551 -376
-131 -105 -379 -335 -370 -343 2 -3 53 10 113 27 183 53 317 72 533 77 346 9
598 -45 924 -196 49 -22 91 -41 93 -41 2 0 -8 23 -24 52 -30 56 -146 179 -191
202 -111 57 -386 119 -619 140 -83 8 -156 17 -162 21 -16 9 -13 47 5 73 47 68
513 333 739 422 33 13 62 27 65 30 3 4 49 26 103 50 54 23 157 78 230 123 72
44 177 102 231 128 97 48 99 57 6 38z M4855 8854 c-317 -36 -568 -108 -825
-235 -205 -102 -332 -192 -493 -348 -293 -284 -473 -630 -532 -1021 -29 -187
-17 -543 25 -750 l19 -94 -45 -46 c-53 -52 -123 -189 -151 -295 -28 -109 -26
-372 5 -480 51 -179 148 -315 259 -365 44 -20 54 -28 58 -54 83 -525 259 -937
553 -1302 103 -128 285 -303 402 -385 l90 -64 0 -282 c0 -207 3 -283 12 -283
26 0 121 53 125 71 3 10 9 19 14 19 14 0 10 139 -6 205 -24 100 -23 100 63 39
104 -76 146 -99 248 -141 153 -62 247 -77 504 -77 149 -1 250 4 300 13 177 32
330 98 473 204 77 57 79 58 73 30 -4 -15 -10 -85 -13 -155 -4 -101 -3 -131 8
-144 15 -18 105 -64 127 -64 9 0 12 61 12 274 l0 274 53 33 c28 19 95 68 147
110 426 342 749 913 851 1504 26 149 31 161 65 169 108 27 222 184 275 381 32
115 32 364 1 479 -29 104 -81 211 -132 268 l-41 47 10 63 c21 133 33 379 28
563 -6 209 -24 313 -87 490 -105 295 -353 644 -583 819 -36 28 -38 28 -52 10
-23 -31 -38 -100 -30 -141 11 -60 48 -123 132 -222 176 -209 296 -413 348
-595 25 -88 25 -90 25 -493 0 -340 -2 -409 -15 -433 -8 -16 -21 -27 -28 -24
-20 7 -69 88 -162 266 -66 128 -96 176 -134 211 -86 81 -132 94 -386 112 -257
18 -518 70 -755 150 -182 62 -232 70 -278 48 -38 -18 -100 -99 -108 -140 -5
-25 -11 -30 -37 -30 -25 0 -58 19 -142 82 -132 99 -162 115 -213 115 -38 0
-102 -33 -127 -65 -18 -23 -87 -65 -107 -65 -33 0 -129 38 -197 79 -36 21
-128 82 -204 136 -75 53 -156 105 -180 115 -104 48 -208 9 -347 -129 -147
-146 -235 -277 -385 -575 -44 -88 -85 -161 -92 -163 -6 -3 -20 8 -30 23 -16
25 -18 59 -21 358 -4 362 0 395 59 558 108 297 321 560 608 751 46 30 88 66
95 78 14 28 137 95 273 149 315 124 678 177 1126 164 l202 -6 42 36 c39 34 84
119 70 132 -10 11 -130 33 -236 43 -139 15 -459 12 -606 -5z m-736 -1593 c222
-177 438 -305 561 -331 53 -11 69 -11 103 1 65 23 82 55 82 159 l0 88 120
-116 c270 -259 450 -373 503 -320 33 33 -5 199 -82 358 -20 40 -34 75 -31 78
2 2 25 -14 50 -36 166 -146 551 -251 1069 -292 71 -5 155 -10 187 -10 l59 0
184 -367 c102 -203 198 -382 214 -400 80 -86 149 -34 209 157 l27 85 13 -65
c7 -36 16 -146 19 -245 6 -159 4 -192 -14 -281 -20 -98 -63 -199 -101 -241
-162 -177 -204 -248 -251 -426 -50 -190 -199 -597 -272 -747 -92 -187 -213
-338 -404 -506 -56 -49 -131 -115 -168 -147 -67 -59 -143 -157 -166 -215 -7
-18 -10 -52 -8 -76 l5 -44 -56 -29 c-72 -39 -225 -97 -321 -122 -398 -107
-835 -65 -1193 113 l-102 51 -6 65 c-10 118 -64 189 -290 387 -157 137 -285
301 -411 528 -85 152 -102 189 -153 330 -55 151 -76 223 -115 397 -40 176 -63
217 -201 364 -75 81 -124 170 -140 259 -7 40 -9 152 -5 330 5 268 11 345 26
345 4 0 18 -28 31 -62 32 -87 92 -172 135 -193 32 -15 37 -15 59 -1 26 17 29
27 71 201 67 281 203 565 378 788 53 69 257 277 271 277 2 0 54 -40 114 -89z
M4185 6301 c-46 -12 -87 -36 -122 -73 -57 -59 -63 -88 -63 -288 0 -200 6 -229
63 -288 126 -132 343 -87 400 83 23 67 24 341 2 406 -39 114 -169 188 -280
160z M6100 6295 c-61 -19 -113 -65 -144 -127 -25 -50 -26 -59 -26 -228 0 -173
1 -178 28 -231 76 -151 262 -181 381 -61 63 64 71 96 71 292 0 99 -5 179 -12
204 -18 60 -92 131 -159 150 -63 19 -80 19 -139 1z M4942 5249 c-77 -38 -116
-129 -93 -215 12 -47 71 -106 120 -123 21 -7 113 -11 240 -11 230 0 262 7 314
69 23 28 47 86 47 116 0 30 -24 88 -47 116 -53 62 -83 69 -323 69 -200 0 -218
-2 -258 -21z M5945 4389 c-11 -6 -36 -22 -56 -36 -158 -105 -647 -151 -1039
-97 -144 20 -242 48 -327 95 -106 57 -175 52 -236 -20 -50 -60 -43 -153 16
-211 41 -42 189 -112 292 -138 342 -90 873 -90 1220 0 110 28 254 98 293 142
76 87 57 208 -42 255 -46 23 -90 26 -121 10z M1410 8229 c-376 -79 -659 -360
-751 -746 -18 -75 -20 -109 -16 -233 3 -91 11 -167 21 -205 98 -353 355 -613
698 -707 72 -20 107 -23 258 -23 l175 0 109 38 c61 21 135 52 165 69 303 170
491 467 508 804 34 637 -543 1133 -1167 1003z m358 -285 c156 -32 271 -93 382
-204 53 -52 86 -96 110 -145 l35 -70 0 -240 c0 -276 -2 -285 -97 -422 -102
-147 -292 -257 -512 -294 -291 -49 -619 115 -747 375 l-44 89 -3 196 c-4 217
1 248 54 359 42 87 147 199 241 256 72 43 202 93 276 105 85 14 223 12 305 -5z
M8210 7851 c0 -6 4 -12 10 -16 17 -10 139 -202 189 -298 106 -199 184 -441
215 -666 29 -203 17 -488 -28 -701 -8 -36 -13 -66 -11 -68 3 -4 120 196 159
273 l31 60 0 255 c0 273 3 250 -64 530 -24 97 -24 100 -12 119 8 12 20 7 65
-28 31 -23 60 -40 65 -37 10 7 37 -13 182 -135 102 -87 227 -210 504 -500 50
-52 147 -145 217 -207 70 -62 164 -152 209 -200 l82 -87 -53 100 c-323 607
-934 1190 -1626 1552 -126 66 -134 69 -134 54z M532 7030 c-151 -687 -80
-1488 195 -2210 56 -147 73 -180 73 -144 1 42 30 235 50 327 34 157 85 301
165 462 139 284 320 505 577 705 32 24 56 45 54 47 -1 2 -55 -13 -118 -32
-208 -63 -298 -114 -387 -221 -23 -27 -56 -67 -75 -89 -50 -61 -99 -140 -178
-292 -91 -175 -104 -195 -132 -191 -30 4 -61 98 -91 277 -41 248 -46 306 -55
641 -5 207 -14 368 -24 443 -10 64 -20 177 -24 250 l-7 132 -23 -105z M9168
6330 c-190 -34 -363 -121 -503 -251 -130 -122 -216 -263 -272 -444 -25 -83
-27 -103 -27 -265 0 -163 2 -181 28 -265 104 -340 355 -584 696 -677 122 -33
356 -33 480 0 445 119 747 526 727 982 -12 294 -149 560 -377 732 -85 65 -245
143 -345 169 -89 24 -323 35 -407 19z m377 -264 c163 -44 302 -143 394 -282
86 -128 91 -151 91 -405 0 -257 -8 -295 -92 -415 -90 -131 -205 -217 -363
-270 -107 -36 -302 -45 -421 -20 -194 42 -373 167 -467 324 -74 126 -79 150
-75 401 l3 216 38 74 c114 222 253 329 502 387 80 18 308 13 390 -10z M8805
3965 l-300 -64 -281 -1 c-296 0 -335 -5 -427 -52 -100 -50 -187 -167 -211
-281 -17 -80 -37 -548 -29 -664 l5 -73 -700 0 -701 0 -20 -45 c-97 -220 -349
-417 -628 -492 -90 -25 -114 -27 -303 -27 -226 -1 -299 11 -458 75 -212 85
-425 270 -504 440 l-23 48 -692 1 c-582 0 -701 2 -750 15 -44 12 -120 15 -333
15 l-275 0 -285 61 c-157 33 -310 60 -341 61 -117 0 -222 -78 -257 -192 -9
-31 -22 -55 -27 -54 -6 2 -172 31 -369 64 -245 42 -371 59 -397 55 -48 -8
-109 -52 -138 -98 -30 -48 -38 -125 -18 -163 20 -38 90 -103 148 -137 25 -15
333 -123 686 -242 640 -214 642 -215 729 -215 l87 0 -6 45 c-7 48 -30 90 -56
104 -9 5 -171 61 -361 124 -374 125 -718 250 -798 291 -65 33 -62 56 6 51 82
-7 154 -15 267 -31 174 -26 239 -6 290 89 31 55 -3 54 290 6 176 -30 191 -31
630 -36 248 -3 493 -3 545 1 l96 8 -4 31 c-3 24 3 38 22 56 l26 25 28 -20 c15
-11 46 -48 69 -82 63 -93 73 -153 73 -438 l0 -236 -555 3 -555 4 0 -810 c0
-445 -3 -820 -6 -832 l-6 -23 3342 0 3342 0 -6 23 c-3 12 -6 622 -6 1355 l0
1332 -535 0 c-294 0 -535 3 -535 6 0 4 15 27 34 53 87 118 126 217 126 317 0
70 31 237 47 254 12 13 89 15 551 18 535 3 538 3 712 32 280 45 255 44 269 13
7 -15 28 -49 47 -75 46 -63 76 -71 225 -66 159 6 160 -4 4 -67 -22 -10 -53
-23 -70 -30 -108 -49 -561 -203 -705 -240 -35 -9 -77 -23 -93 -31 -35 -19 -66
-84 -67 -141 l0 -43 95 0 95 0 643 216 c353 118 662 227 687 241 25 15 66 47
92 71 l48 45 0 90 0 90 -43 42 c-77 78 -79 78 -476 10 -456 -78 -408 -74 -416
-33 -17 78 -87 163 -159 193 -74 31 -119 27 -431 -40z m-415 -1145 c0 -13 7
-20 20 -20 20 0 20 -7 20 -1110 0 -1103 0 -1110 -20 -1110 -11 0 -20 -7 -20
-15 0 -13 -39 -15 -295 -15 -162 0 -295 -4 -295 -9 0 -5 -25 -11 -56 -13 -31
-3 -59 -9 -62 -14 -11 -16 -113 -66 -121 -59 -8 8 -14 2205 -6 2261 6 41 7 42
58 53 58 13 81 18 85 21 1 2 5 3 10 4 4 1 22 12 41 23 33 21 46 22 338 23 298
0 303 0 303 -20z m-1120 -1240 l0 -1140 -40 25 c-22 14 -46 25 -54 25 -8 0
-22 8 -32 18 -16 16 -73 17 -851 20 -531 2 -833 6 -833 12 0 7 -327 10 -910
10 -514 0 -910 -4 -910 -9 0 -5 -25 -11 -56 -13 -31 -3 -59 -9 -62 -15 -4 -6
-18 -14 -32 -18 -14 -4 -42 -19 -62 -32 l-38 -23 0 780 0 779 -121 3 -120 3
45 53 c24 28 48 62 52 75 4 12 11 25 15 28 8 4 28 276 29 372 0 17 5 27 15 27
9 0 15 9 15 21 0 20 1 20 373 17 438 -4 412 2 557 -132 112 -104 148 -133 249
-197 161 -102 357 -168 566 -190 146 -15 395 0 395 25 0 7 28 18 63 25 118 24
280 89 382 153 70 45 193 145 211 173 9 13 41 45 71 71 46 40 70 52 142 71 82
22 103 23 424 23 218 0 337 4 337 10 0 6 10 10 23 10 12 0 51 18 87 39 36 22
66 40 68 40 1 1 2 -512 2 -1139z m-4161 -371 c1 -389 -2 -720 -5 -737 l-6 -30
-52 31 c-28 17 -52 35 -54 39 -2 4 -19 10 -38 14 -19 3 -34 10 -34 15 0 5
-130 9 -295 9 -256 0 -295 2 -295 15 0 11 -11 15 -40 15 l-40 0 0 595 0 595
40 0 c33 0 40 3 40 20 0 20 7 20 295 20 190 0 295 4 295 10 0 6 9 10 20 10 11
0 20 5 20 10 0 6 5 10 11 10 8 0 73 55 113 96 8 9 13 6 18 -10 3 -11 6 -339 7
-727z"/>
</g>
</svg>
