<?xml version="1.0" standalone="no"?>
<!DOCTYPE svg PUBLIC "-//W3C//DTD SVG 20010904//EN"
 "http://www.w3.org/TR/2001/REC-SVG-20010904/DTD/svg10.dtd">
<svg version="1.0" xmlns="http://www.w3.org/2000/svg"
 width="2048.000000pt" height="2048.000000pt" viewBox="0 0 2048.000000 2048.000000"
 preserveAspectRatio="xMidYMid meet">
<metadata>
Created by potrace 1.13, written by Peter Selinger 2001-2015
</metadata>
<g transform="translate(0.000000,2048.000000) scale(0.192120,-0.192120)"
fill="#000000" stroke="none">
<path d="M5065 10094 c-22 -2 -89 -9 -150 -14 -898 -88 -1643 -517 -2057
-1187 -257 -415 -368 -863 -338 -1375 5 -99 15 -220 21 -268 l11 -89 -49 -74
c-193 -287 -201 -797 -19 -1107 78 -133 201 -233 304 -247 l39 -5 6 -187 c7
-202 24 -335 64 -506 32 -137 99 -335 153 -450 22 -48 40 -88 40 -89 0 -1 -89
-1 -197 -2 -205 0 -284 -11 -414 -54 -265 -89 -496 -284 -627 -530 -51 -94
-96 -223 -112 -317 -6 -40 -13 -73 -15 -73 -1 0 -37 7 -79 16 -93 19 -161 8
-229 -37 -54 -36 -105 -108 -113 -161 -4 -21 -12 -38 -18 -38 -6 0 -180 28
-387 62 -344 57 -379 61 -418 49 -107 -31 -181 -174 -137 -260 19 -35 90 -101
147 -134 42 -25 1196 -457 1220 -457 8 0 10 -13 6 -38 -4 -20 -65 -507 -137
-1082 -72 -575 -133 -1060 -136 -1077 l-6 -33 3892 0 3892 0 -6 33 c-3 17 -64
502 -136 1077 -72 575 -133 1061 -136 1081 -6 33 -4 37 21 43 67 17 1164 429
1204 453 58 34 128 99 148 137 19 36 13 100 -14 153 -25 48 -92 100 -140 109
-26 5 -149 -12 -408 -55 -203 -35 -374 -63 -379 -64 -4 -1 -14 19 -20 45 -26
99 -109 177 -212 198 -44 9 -69 8 -130 -4 -42 -9 -78 -16 -79 -16 -2 0 -9 33
-15 73 -64 377 -363 722 -735 845 -135 45 -212 56 -418 56 -108 1 -197 2 -197
3 0 0 18 41 41 90 56 122 123 320 154 457 39 178 55 305 62 502 l6 182 39 5
c104 14 230 116 305 249 178 313 173 811 -12 1092 l-44 67 10 117 c5 64 10
232 11 372 1 221 -2 271 -20 372 -50 276 -142 518 -290 760 -262 433 -638 778
-1101 1012 -316 159 -608 249 -981 301 -109 16 -586 29 -685 19z m720 -324
c607 -93 1124 -345 1509 -735 244 -247 403 -499 508 -806 l43 -124 3 -629 3
-629 -23 15 c-24 15 -78 101 -233 374 -71 125 -106 174 -165 235 -116 118
-150 131 -405 149 -408 28 -772 92 -1005 175 -41 15 -129 50 -195 78 -98 41
-131 51 -182 51 -54 1 -66 -3 -100 -30 -52 -42 -90 -101 -98 -149 -10 -64 -16
-77 -31 -71 -7 3 -20 -1 -27 -9 -12 -11 -33 3 -142 96 -145 123 -201 162 -262
180 -59 17 -102 -4 -189 -92 -105 -106 -115 -112 -166 -99 -103 28 -265 124
-503 300 -77 56 -171 118 -210 137 -60 29 -77 34 -121 30 -95 -9 -200 -74
-342 -209 -127 -122 -231 -246 -316 -381 -55 -85 -179 -329 -221 -432 -40 -97
-72 -155 -85 -155 -5 0 -16 7 -24 16 -14 14 -16 73 -16 502 0 550 2 563 81
796 265 779 1036 1320 2029 1425 58 6 121 13 140 15 19 2 163 3 320 1 232 -2
311 -7 425 -25z m-1857 -1813 c291 -233 528 -380 707 -438 63 -20 154 -17 193
6 64 38 95 143 74 253 -5 28 -7 52 -4 52 3 0 71 -64 151 -142 236 -231 425
-378 535 -420 58 -22 89 -17 112 18 35 53 -8 232 -106 442 -27 56 -46 102 -44
102 3 0 30 -20 61 -45 263 -215 802 -349 1532 -383 l145 -7 69 -115 c114 -189
180 -306 297 -526 61 -115 123 -222 138 -238 108 -115 202 -30 272 246 15 62
34 150 41 196 7 46 16 77 20 70 16 -32 33 -194 32 -318 -1 -117 -5 -151 -32
-255 -81 -308 -131 -398 -281 -511 -117 -88 -220 -204 -220 -249 0 -8 -4 -15
-8 -15 -5 0 -12 -66 -16 -147 -8 -176 -22 -347 -35 -424 -9 -56 -30 -118 -117
-349 -70 -188 -66 -271 21 -375 l25 -30 16 23 16 24 37 -36 c53 -52 98 -66
240 -77 287 -21 447 -79 616 -226 94 -81 162 -169 230 -294 68 -126 104 -170
177 -218 35 -23 61 -41 58 -41 -3 0 -88 -19 -190 -42 l-185 -42 -310 -6 c-348
-7 -368 -10 -470 -88 -109 -83 -166 -193 -170 -332 -3 -84 -3 -85 3 -15 8 85
39 143 95 182 l40 28 576 5 576 6 180 31 c99 17 198 34 221 37 l40 6 18 -51
c34 -93 100 -145 194 -151 25 -2 42 -8 42 -15 0 -7 -7 -13 -15 -13 -8 0 -15
-4 -15 -9 0 -5 -15 -16 -32 -24 -122 -57 -177 -81 -288 -126 -193 -79 -220
-96 -342 -216 -108 -106 -111 -109 -87 -120 23 -9 24 -12 12 -45 -6 -19 -12
-67 -12 -107 -1 -40 42 -414 94 -832 105 -844 114 -967 72 -1002 -21 -17 -49
-18 -569 -19 -359 0 -548 -3 -548 -10 0 -5 -20 -10 -44 -10 -24 0 -46 -3 -48
-7 -4 -10 -144 -83 -158 -83 -7 0 -10 379 -10 1195 l0 1195 -140 0 -140 0 0
-1200 0 -1200 -32 20 c-47 28 -99 50 -130 57 -16 3 -28 9 -28 14 0 5 -761 9
-1760 9 -1167 0 -1760 -3 -1760 -10 0 -5 -7 -10 -16 -10 -14 0 -115 -51 -141
-73 -10 -7 -13 232 -13 1192 l0 1201 -140 0 -140 0 0 -1195 c0 -751 -4 -1195
-10 -1195 -14 0 -60 22 -60 29 0 4 -20 15 -45 26 -25 11 -45 23 -45 28 0 4 -9
7 -20 7 -11 0 -20 5 -20 10 0 7 -190 10 -549 10 -475 0 -550 2 -561 15 -7 8
-25 15 -41 15 l-29 0 0 145 c0 124 14 256 90 865 50 395 90 755 90 798 0 48
-6 94 -15 115 -19 47 -20 44 16 52 l31 7 -88 81 c-137 129 -170 150 -342 217
-279 108 -306 119 -382 158 -103 52 -100 65 21 73 53 4 105 11 116 18 34 17
71 68 90 121 l18 50 40 -6 c22 -3 123 -20 225 -37 l185 -32 571 -5 571 -5 40
-28 c59 -41 87 -97 94 -192 l7 -80 -3 95 c-3 149 -57 256 -170 342 -102 78
-122 81 -470 89 l-310 6 -184 41 c-101 23 -187 42 -190 42 -3 0 21 17 54 38
77 49 128 107 190 218 97 174 180 267 320 361 148 100 265 138 486 158 176 16
223 31 275 84 l32 32 21 -27 c13 -17 21 -21 21 -12 0 9 7 21 15 28 9 7 26 34
38 59 38 79 30 158 -31 338 -94 277 -138 497 -149 751 -3 78 -10 142 -15 142
-4 0 -8 6 -8 14 0 35 -52 106 -140 190 -255 244 -249 234 -330 596 -21 97 -30
180 -30 288 0 125 18 302 32 302 4 0 8 -9 8 -19 0 -42 72 -260 115 -347 68
-139 141 -203 200 -176 34 16 50 53 80 188 56 253 180 566 302 764 123 200
289 385 448 503 50 37 91 67 93 67 2 0 56 -42 120 -93z M4150 6711 c-86 -28
-141 -74 -181 -151 -23 -43 -24 -54 -24 -255 0 -237 7 -267 79 -337 53 -52
101 -72 182 -76 89 -5 156 21 213 83 72 78 76 94 76 325 0 204 0 205 -28 262
-46 93 -128 148 -232 154 -33 2 -71 0 -85 -5z m100 -410 c0 -95 -4 -152 -11
-156 -5 -4 -21 -4 -35 -1 l-24 6 0 150 0 150 35 0 35 0 0 -149z M6357 6706
c-101 -37 -167 -112 -188 -213 -17 -83 -8 -387 13 -435 25 -57 93 -123 150
-148 62 -27 171 -25 230 4 52 25 107 82 132 135 19 42 21 63 21 256 0 208 0
210 -27 260 -31 60 -67 95 -128 125 -56 28 -151 36 -203 16z m111 -408 l-3
-153 -30 0 -30 0 -3 153 -3 152 36 0 36 0 -3 -152z M4983 5170 c-66 -40 -86
-103 -54 -174 16 -37 29 -51 63 -66 40 -18 67 -20 338 -20 271 0 298 2 338 20
34 15 47 29 63 65 31 70 11 136 -54 175 -30 19 -52 20 -347 20 -295 0 -317 -1
-347 -20z M5823 4204 c-91 -45 -98 -176 -15 -239 38 -28 223 -35 276 -10 100
48 101 202 2 249 -47 22 -218 22 -263 0z M2283 2553 c125 -2 329 -2 455 0 125
1 22 2 -228 2 -250 0 -353 -1 -227 -2z M7938 2553 c122 -2 322 -2 445 0 122 1
22 2 -223 2 -245 0 -345 -1 -222 -2z"/>
</g>
</svg>
