<?xml version="1.0" standalone="no"?>
<!DOCTYPE svg PUBLIC "-//W3C//DTD SVG 20010904//EN"
 "http://www.w3.org/TR/2001/REC-SVG-20010904/DTD/svg10.dtd">
<svg version="1.0" xmlns="http://www.w3.org/2000/svg"
 width="2048.000000pt" height="2048.000000pt" viewBox="0 0 2048.000000 2048.000000"
 preserveAspectRatio="xMidYMid meet">
<metadata>
Created by potrace 1.13, written by Peter Selinger 2001-2015
</metadata>
<g transform="translate(0.000000,2048.000000) scale(0.192120,-0.192120)"
fill="#000000" stroke="none">
<path d="M5120 9914 c-383 -33 -587 -72 -855 -164 -145 -50 -407 -177 -530
-257 -540 -354 -883 -908 -946 -1533 -21 -206 1 -544 51 -782 45 -218 133
-393 216 -433 71 -33 97 -1 134 160 80 355 227 673 433 942 74 97 307 333 328
333 5 0 65 -43 132 -96 236 -185 472 -328 606 -368 75 -22 148 -21 188 4 58
35 83 119 65 218 -5 28 -6 52 -3 52 4 0 40 -34 81 -76 162 -164 400 -359 500
-408 68 -34 98 -39 126 -21 21 13 24 23 24 74 0 71 -41 204 -105 338 -24 51
-42 93 -39 93 2 0 32 -23 66 -50 69 -56 202 -124 318 -163 258 -88 652 -152
1010 -166 l175 -6 211 -415 c231 -455 263 -504 327 -504 47 0 79 30 117 109
32 66 78 234 85 305 2 25 9 79 14 121 18 138 34 481 28 619 -31 722 -545 1432
-1302 1800 -273 133 -546 213 -870 255 -114 15 -489 27 -585 19z m625 -274
c422 -63 792 -208 1110 -435 332 -237 593 -565 718 -900 57 -155 57 -149 57
-728 l0 -535 -27 -9 c-23 -8 -30 -5 -53 21 -31 36 -127 209 -229 414 -76 151
-125 216 -195 257 -61 35 -101 42 -321 60 -449 35 -658 79 -1055 224 -47 17
-101 31 -121 31 -38 0 -99 -17 -99 -28 0 -4 -14 -23 -30 -42 -25 -29 -30 -44
-30 -85 0 -27 -4 -54 -8 -60 -9 -13 -49 -35 -63 -35 -7 0 -64 42 -128 94 -207
168 -259 194 -329 162 -20 -10 -68 -49 -107 -87 l-70 -70 -49 4 c-69 6 -243
97 -391 204 -260 187 -298 207 -384 201 -79 -6 -163 -59 -278 -176 -199 -201
-368 -470 -497 -792 -82 -204 -101 -210 -141 -40 -12 52 -15 143 -15 450 0
375 1 387 24 480 79 307 235 571 477 805 128 125 192 175 329 262 327 207 725
331 1205 373 167 15 540 4 700 -20z M2801 7060 c-196 -202 -258 -621 -142
-958 57 -165 155 -285 274 -337 52 -23 67 -34 67 -50 0 -44 33 -216 70 -360
134 -529 402 -1002 766 -1355 108 -105 248 -219 338 -276 l46 -29 0 -127 0
-126 528 -373 c290 -205 539 -381 555 -391 l27 -20 83 58 c45 31 295 208 555
391 l472 335 0 127 0 127 30 18 c237 140 577 493 762 792 205 332 366 771 420
1146 l12 87 44 15 c139 48 259 211 320 436 23 85 26 113 25 270 0 156 -3 185
-26 271 -14 53 -42 131 -63 174 -39 79 -123 184 -124 154 0 -9 9 -71 20 -137
18 -105 21 -155 18 -404 l-3 -283 -45 -89 c-34 -68 -68 -113 -145 -195 -136
-147 -158 -186 -205 -373 -54 -218 -211 -649 -311 -858 -80 -165 -214 -350
-353 -484 -39 -38 -134 -123 -211 -189 -221 -188 -266 -248 -269 -356 -2 -64
-4 -65 -153 -137 -404 -193 -884 -241 -1328 -134 -163 39 -390 128 -492 193
-42 26 -43 29 -43 80 -1 101 -46 164 -238 324 -177 149 -228 199 -331 328
-294 368 -474 777 -581 1318 -16 78 -85 179 -197 288 -69 67 -97 103 -128 164
l-40 78 -3 291 c-3 273 -1 300 23 450 14 87 24 161 21 163 -2 3 -23 -14 -45
-37z m3510 -3559 c-41 -79 -237 -222 -496 -361 -145 -79 -270 -152 -390 -230
-63 -40 -108 -49 -148 -29 -12 7 -55 34 -95 60 -40 27 -75 49 -79 49 -3 0 -14
6 -22 14 -9 7 -45 29 -81 49 -36 19 -98 54 -139 76 -41 23 -75 41 -78 41 -2 0
-29 17 -61 37 -229 146 -331 224 -363 277 -31 51 -22 50 49 -7 179 -145 338
-219 567 -264 73 -15 140 -18 360 -18 288 1 377 12 539 67 133 45 298 142 406
237 25 22 46 40 48 41 1 0 -6 -17 -17 -39z M4132 6982 c-71 -26 -118 -66 -156
-132 l-31 -55 0 -215 0 -215 31 -55 c114 -203 392 -192 496 19 22 43 23 58 23
251 0 193 -1 208 -23 251 -65 132 -210 197 -340 151z M6368 6987 c-77 -22
-143 -80 -181 -157 -20 -42 -22 -59 -22 -250 0 -188 2 -209 21 -250 68 -144
236 -205 377 -137 60 30 95 65 130 131 21 39 22 54 22 256 0 202 -1 217 -22
256 -35 65 -70 101 -127 129 -64 31 -136 39 -198 22z M5074 5811 c-78 -20
-142 -88 -159 -169 -17 -81 37 -182 118 -221 40 -20 60 -21 297 -21 237 0 257
1 297 21 56 27 99 80 113 140 21 88 -18 179 -98 226 l-47 28 -245 2 c-135 1
-259 -2 -276 -6z M6187 4815 c-22 -7 -49 -22 -60 -33 -49 -46 -222 -97 -417
-124 -127 -17 -643 -18 -765 0 -198 28 -334 71 -440 138 -82 52 -201 15 -247
-77 -22 -41 -23 -120 -4 -158 51 -97 230 -183 491 -236 174 -35 330 -47 585
-47 255 0 411 12 585 47 206 41 357 101 436 172 52 47 70 83 71 143 0 88 -51
155 -137 179 -49 13 -51 13 -98 -4z M4015 3309 c-44 -33 -87 -67 -95 -75 -13
-14 -11 -15 25 -8 38 6 95 41 123 74 15 17 34 61 29 66 -1 2 -39 -24 -82 -57z
M6576 3341 c26 -46 86 -95 131 -109 20 -6 39 -10 40 -8 4 4 -93 82 -156 126
l-34 24 19 -33z M2936 3099 c-557 -59 -1057 -402 -1310 -899 -66 -131 -123
-291 -150 -420 -31 -155 -36 -274 -36 -860 l0 -590 1555 0 c855 0 1555 3 1555
6 0 3 -171 605 -380 1337 -210 733 -388 1356 -396 1385 l-15 52 -372 -1 c-205
-1 -408 -5 -451 -10z m804 -387 c5 -119 15 -252 21 -296 7 -45 106 -411 221
-814 114 -403 219 -775 233 -826 25 -93 31 -150 19 -181 -8 -21 -56 -45 -89
-45 -34 0 -55 -11 -141 -76 -76 -58 -94 -66 -70 -32 19 27 21 48 3 48 -7 0
-177 45 -378 100 -200 55 -411 112 -469 126 -58 15 -108 30 -113 33 -5 6 688
2104 729 2205 7 18 8 18 16 -3 4 -12 12 -119 18 -239z m-329 71 c5 -14 7 -40
4 -57 -4 -17 -130 -402 -280 -856 -151 -454 -283 -859 -295 -900 -25 -91 -27
-235 -5 -264 21 -28 19 -73 -4 -86 -13 -6 -208 -10 -565 -10 l-546 0 0 550 c0
351 4 568 11 602 106 527 597 955 1179 1027 100 13 167 16 353 19 l137 2 11
-27z M6886 3058 c-8 -29 -186 -652 -396 -1385 -209 -732 -380 -1334 -380
-1337 0 -3 700 -6 1555 -6 l1555 0 0 590 c0 715 -7 796 -87 1045 -176 546
-659 981 -1224 1104 -154 33 -283 41 -655 41 l-353 0 -15 -52z m439 -1209
c201 -600 362 -1095 359 -1100 -3 -5 -11 -9 -17 -9 -7 0 -219 -56 -471 -125
-252 -69 -465 -125 -472 -125 -18 0 -18 -20 2 -48 26 -37 2 -25 -75 38 -40 32
-83 62 -94 65 -12 4 -35 13 -52 20 -16 8 -38 16 -47 19 -15 4 -18 17 -18 66 0
71 -3 59 200 770 261 914 263 924 280 1285 6 120 13 230 17 243 5 21 7 22 15
8 5 -9 173 -507 373 -1107z m302 951 c231 -16 410 -63 598 -157 314 -159 554
-431 661 -753 l28 -85 4 -597 3 -598 -544 0 c-429 0 -547 3 -561 13 -14 10
-16 21 -11 50 4 21 11 40 16 43 18 10 10 174 -12 248 -11 39 -143 442 -294
896 -150 454 -276 844 -280 867 -13 81 -10 83 128 83 67 0 186 -5 264 -10z
M4475 2915 l-25 -24 0 -469 0 -469 23 -21 c13 -12 31 -22 41 -22 10 0 197 99
417 220 l400 221 399 -221 c220 -121 408 -220 419 -220 11 0 29 12 40 26 21
26 21 36 21 491 l0 464 -25 24 c-13 14 -30 25 -37 25 -7 0 -193 -99 -413 -220
-219 -121 -402 -220 -405 -220 -3 0 -166 88 -361 196 -392 217 -443 244 -459
244 -6 0 -22 -11 -35 -25z m316 -441 c56 -31 69 -56 42 -86 -16 -18 -84 -58
-98 -58 -3 0 -5 38 -5 85 0 47 3 85 6 85 4 0 28 -12 55 -26z m1119 -59 c0 -41
-2 -75 -5 -75 -14 0 -62 30 -80 50 -15 16 -17 25 -9 38 12 18 72 62 85 62 5 0
9 -34 9 -75z M4130 2522 c33 -62 89 -136 97 -128 5 5 -114 186 -123 186 -3 0
9 -26 26 -58z M6489 2489 c-63 -94 -74 -128 -21 -63 32 38 98 154 88 154 -3 0
-33 -41 -67 -91z M5260 1664 c-78 -34 -121 -98 -122 -180 -1 -43 5 -64 28
-101 101 -163 354 -95 354 95 0 62 -13 98 -48 136 -56 60 -142 80 -212 50z
M5245 865 c-119 -60 -144 -216 -50 -310 94 -94 246 -71 306 47 31 62 24 154
-17 204 -16 20 -45 45 -64 55 -43 23 -133 25 -175 4z M4735 404 c-27 -13 -63
-36 -80 -49 l-30 -25 705 0 705 0 -25 21 c-14 11 -50 32 -80 47 -49 24 -66 27
-155 26 -87 0 -116 -6 -225 -40 -168 -52 -265 -54 -420 -7 -204 61 -313 69
-395 27z"/>
</g>
</svg>
