<?xml version="1.0" standalone="no"?>
<!DOCTYPE svg PUBLIC "-//W3C//DTD SVG 20010904//EN"
 "http://www.w3.org/TR/2001/REC-SVG-20010904/DTD/svg10.dtd">
<svg version="1.0" xmlns="http://www.w3.org/2000/svg"
 width="2048.000000pt" height="2048.000000pt" viewBox="0 0 2048.000000 2048.000000"
 preserveAspectRatio="xMidYMid meet">
<metadata>
Created by potrace 1.13, written by Peter Selinger 2001-2015
</metadata>
<g transform="translate(0.000000,2048.000000) scale(0.192120,-0.192120)"
fill="#000000" stroke="none">
<path d="M5275 10110 c-371 -58 -624 -265 -717 -586 -20 -69 -23 -101 -23
-254 0 -157 3 -186 28 -285 49 -195 177 -415 242 -415 31 0 81 43 105 91 32
62 26 120 -20 214 -54 107 -68 191 -46 267 21 75 60 108 124 108 102 -1 168
-61 143 -131 -24 -70 -8 -139 32 -139 42 0 75 48 135 192 16 39 84 70 258 117
173 47 327 98 413 136 40 18 69 25 86 21 61 -15 143 -189 167 -351 13 -93 24
-103 58 -56 58 83 110 236 110 327 0 72 -33 193 -75 274 -79 149 -262 334
-393 396 -109 51 -232 75 -407 79 -88 2 -187 0 -220 -5z m398 -316 c84 -17
164 -50 172 -71 17 -46 -8 -62 -205 -122 -211 -65 -309 -100 -372 -132 -31
-16 -67 -29 -79 -29 -11 0 -51 14 -89 30 -77 34 -166 40 -210 15 -40 -23 -50
-19 -50 23 0 97 158 221 344 272 146 41 336 46 489 14z M6176 8895 c-20 -19
-36 -39 -36 -45 0 -5 -4 -10 -10 -10 -6 0 -10 -43 -10 -109 0 -63 -4 -112 -10
-116 -5 -3 -10 -23 -10 -44 0 -42 -18 -101 -30 -101 -5 0 -14 -16 -20 -35 -15
-46 -56 -76 -164 -121 -69 -29 -100 -49 -142 -91 -69 -71 -84 -102 -84 -178 0
-101 30 -166 94 -200 19 -11 38 -16 42 -12 7 6 -11 206 -23 269 -5 24 -2 27
33 33 157 27 282 82 344 153 62 70 82 135 88 285 5 143 -6 357 -18 357 -5 0
-24 -16 -44 -35z M1576 8645 c-187 -53 -336 -201 -392 -390 -12 -40 -18 -91
-17 -155 1 -161 56 -285 178 -399 219 -204 547 -198 760 14 115 114 165 234
165 395 0 133 -32 227 -113 336 -55 74 -154 148 -246 182 -82 31 -257 40 -335
17z m287 -305 c32 -12 76 -39 98 -59 l39 -38 0 -116 c0 -100 -3 -122 -21 -154
-30 -55 -58 -82 -114 -111 -44 -24 -62 -27 -145 -27 -108 0 -169 21 -228 78
-55 52 -62 75 -62 195 0 127 13 156 91 203 100 62 226 72 342 29z M2216 8624
c-26 -8 -47 -17 -45 -19 2 -1 32 -14 67 -28 34 -14 107 -55 162 -91 55 -36
118 -75 141 -86 22 -12 48 -29 58 -39 24 -24 1191 -604 1270 -630 40 -14 74
-20 93 -16 36 8 103 46 148 85 l35 29 -92 1 -91 0 -809 401 c-558 277 -820
402 -848 405 -22 2 -62 -3 -89 -12z M4909 8441 c33 -63 151 -182 224 -225 73
-42 68 -29 88 -208 6 -60 16 -108 20 -108 4 0 20 5 34 12 41 18 55 57 55 148
0 111 -28 168 -135 275 -96 96 -163 135 -247 142 l-60 6 21 -42z M2438 8039
c-21 -11 -38 -21 -38 -23 0 -8 108 -64 725 -384 713 -368 677 -355 924 -350
l142 3 -69 53 c-38 28 -76 52 -85 52 -10 0 -17 5 -17 10 0 6 -17 10 -37 10
-97 0 -214 42 -451 162 -128 66 -286 151 -350 189 -125 75 -474 250 -532 267
-128 38 -159 40 -212 11z M4530 7870 c-30 -4 -115 -11 -188 -15 -73 -4 -135
-12 -138 -17 -3 -4 12 -68 32 -141 34 -119 38 -144 39 -252 0 -66 -3 -134 -7
-152 -7 -32 -7 -32 40 -38 123 -17 277 -47 301 -59 96 -51 174 -215 223 -471
21 -110 23 -146 22 -440 0 -259 -4 -360 -22 -530 -27 -248 -64 -508 -96 -657
-12 -60 -22 -108 -20 -108 1 0 18 7 37 15 l36 15 -26 -68 c-14 -37 -50 -134
-79 -217 -30 -82 -73 -202 -96 -265 -23 -63 -77 -185 -121 -270 l-78 -155 36
-30 c249 -205 554 -356 742 -367 l51 -3 192 280 c106 154 224 326 262 383 l69
103 231 -328 c127 -180 232 -329 233 -331 1 -1 40 23 86 55 208 143 484 282
639 322 38 9 72 19 74 22 2 2 -116 246 -263 542 -214 432 -262 538 -246 535
19 -4 20 0 17 116 -2 67 3 308 12 536 25 661 19 878 -29 1064 -9 32 -14 61
-11 63 2 2 63 -26 136 -62 73 -36 134 -64 136 -62 2 2 -1 26 -7 54 -26 111 29
262 135 377 31 33 55 60 53 61 -1 1 -81 43 -177 92 -96 50 -228 122 -292 161
-128 76 -247 121 -396 148 l-93 17 -46 -47 c-102 -104 -279 -151 -472 -127
-149 19 -259 89 -297 187 -11 30 -24 46 -38 48 -35 7 -407 26 -476 25 -36 -1
-90 -5 -120 -9z m440 -281 c25 -6 66 -21 93 -35 27 -14 47 -19 47 -13 0 7 9 5
23 -5 52 -38 182 -98 245 -113 90 -21 264 -21 361 2 41 10 117 36 170 58 76
32 109 41 156 41 73 0 165 -29 166 -52 0 -11 47 -40 140 -86 77 -39 148 -78
159 -88 30 -28 24 -52 -22 -95 -131 -119 -160 -150 -183 -191 l-25 -45 0 -768
c0 -506 3 -769 10 -769 6 0 10 -8 10 -18 0 -10 4 -22 9 -27 17 -18 73 -126 68
-131 -3 -3 -69 0 -147 7 -183 15 -550 7 -678 -16 -121 -22 -335 -79 -552 -148
-96 -31 -175 -55 -177 -54 -1 1 25 50 58 107 80 141 95 186 118 347 36 248 41
340 41 763 0 335 -3 434 -16 501 -48 264 -130 437 -267 566 -69 66 -137 109
-204 130 -49 15 -54 20 -64 56 -18 69 -11 81 51 88 72 9 352 0 410 -12z m1277
-2529 c45 -16 70 -54 177 -262 157 -305 208 -422 204 -475 l-3 -46 -135 -73
c-165 -90 -198 -101 -240 -79 -18 9 -71 70 -131 151 -167 226 -282 324 -380
324 -101 0 -250 -140 -447 -423 -161 -231 -188 -253 -281 -228 -61 15 -195 81
-248 120 -39 28 -43 35 -43 74 0 26 13 75 35 127 20 46 69 176 110 289 91 254
98 271 130 309 30 36 63 50 259 106 178 52 333 83 472 96 133 12 480 5 521
-10z M7005 7284 c45 -102 120 -169 223 -199 75 -23 124 -31 562 -96 766 -113
853 -127 916 -154 19 -8 34 -18 34 -23 0 -6 11 -13 25 -16 22 -6 25 -12 25
-55 0 -75 -19 -86 -144 -85 -80 1 -854 101 -996 129 -14 3 -122 16 -240 30
-118 14 -240 32 -270 40 -30 8 -71 18 -90 21 -19 3 -43 10 -52 15 -23 13 -110
11 -164 -2 -37 -10 -43 -14 -32 -24 7 -7 84 -50 172 -96 154 -80 161 -82 235
-84 42 -2 402 -51 801 -110 l725 -108 55 16 c108 31 178 119 188 233 4 52 1
70 -21 115 -14 30 -32 61 -39 69 -24 29 -83 67 -118 78 -19 6 -377 61 -795
122 l-760 112 -110 58 c-60 31 -120 61 -133 65 l-22 6 25 -57z M6921 3974
c-20 -44 -24 -109 -11 -177 8 -46 41 -123 111 -263 l99 -199 0 -107 c0 -104
-1 -109 -27 -137 -16 -17 -244 -155 -508 -307 -420 -242 -820 -492 -894 -558
-13 -11 -30 -35 -37 -53 -15 -34 -19 -103 -6 -103 18 0 1531 882 1568 914 75
64 101 154 79 279 -12 68 -32 114 -175 390 -90 171 -168 320 -175 329 -11 16
-13 16 -24 -8z M4309 3673 c-114 -170 -148 -232 -149 -268 0 -14 -195 -201
-617 -590 -774 -714 -797 -736 -781 -747 19 -12 100 -10 139 4 52 18 139 86
314 247 87 80 162 145 166 144 7 -2 475 425 662 604 136 130 184 194 295 390
86 151 104 191 109 236 6 62 -4 147 -17 147 -6 0 -60 -75 -121 -167z M6380
3702 c0 -8 110 -226 171 -340 22 -40 37 -77 34 -81 -3 -5 -31 -24 -63 -41 -31
-18 -322 -186 -647 -373 -539 -311 -665 -392 -665 -424 0 -15 78 -23 125 -14
80 16 154 50 344 159 109 63 198 108 201 102 6 -10 486 263 605 343 74 50 118
97 156 162 54 93 37 217 -51 370 -17 30 -49 70 -70 88 -47 40 -140 73 -140 49z
M4959 3516 c-112 -46 -146 -75 -247 -216 -96 -135 -169 -208 -652 -654 -494
-456 -954 -910 -975 -960 -7 -17 -16 -50 -20 -73 -6 -38 -4 -43 12 -43 10 0
32 9 49 19 51 31 1503 1374 1580 1461 59 67 123 160 322 468 19 29 5 29 -69
-2z M5160 2402 c-49 -38 -68 -61 -93 -112 -22 -44 -22 -51 -22 -530 0 -544 -3
-519 75 -604 57 -61 118 -89 200 -89 112 0 207 60 254 162 20 44 21 63 24 429
l3 382 -42 -22 c-167 -87 -372 47 -386 252 -4 44 0 80 11 110 8 24 14 45 13
47 -2 1 -18 -10 -37 -25z M2655 2036 c-58 -28 -118 -86 -138 -136 -8 -19 -59
-215 -112 -435 -109 -448 -113 -483 -70 -571 28 -57 64 -92 129 -127 58 -31
184 -31 241 0 51 27 110 88 129 133 8 19 46 166 85 325 39 160 74 297 76 306
4 12 -8 18 -57 27 -207 38 -326 268 -234 450 30 60 25 63 -49 28z"/>
</g>
</svg>
