<?xml version="1.0" standalone="no"?>
<!DOCTYPE svg PUBLIC "-//W3C//DTD SVG 20010904//EN"
 "http://www.w3.org/TR/2001/REC-SVG-20010904/DTD/svg10.dtd">
<svg version="1.0" xmlns="http://www.w3.org/2000/svg"
 width="2048.000000pt" height="2048.000000pt" viewBox="0 0 2048.000000 2048.000000"
 preserveAspectRatio="xMidYMid meet">
<metadata>
Created by potrace 1.13, written by Peter Selinger 2001-2015
</metadata>
<g transform="translate(0.000000,2048.000000) scale(0.192120,-0.192120)"
fill="#000000" stroke="none">
<path d="M8620 9771 c-321 -7 -331 -9 -401 -89 -43 -50 -55 -62 -105 -109 -30
-28 -151 -231 -458 -769 -359 -628 -422 -735 -454 -756 -40 -25 -854 -730
-886 -767 l-19 -21 34 0 c61 1 179 19 227 36 67 22 101 46 226 152 61 52 121
98 133 103 39 15 386 324 445 396 34 41 201 321 429 718 453 789 448 779 463
883 6 44 14 84 18 88 15 15 113 3 163 -20 68 -31 106 -65 138 -125 37 -67 45
-137 22 -197 l-17 -46 -47 5 c-103 11 -177 -33 -249 -146 -21 -34 -191 -327
-377 -652 -297 -519 -419 -718 -482 -790 -10 -11 -94 -87 -188 -169 -217 -189
-392 -367 -418 -425 -12 -28 -21 -76 -25 -129 l-5 -85 22 15 c72 51 802 694
823 725 14 21 229 395 478 831 l453 792 362 0 c415 0 436 3 512 73 63 58 93
124 93 207 -1 110 -53 194 -155 248 -49 26 -53 27 -260 28 -115 0 -338 -2
-495 -5z M1359 8317 c-20 -8 -200 -103 -400 -212 -282 -154 -374 -209 -410
-245 -171 -174 -46 -464 200 -464 77 0 69 -3 403 180 l226 125 -15 37 c-22 50
-22 155 0 219 22 62 93 145 149 174 21 11 58 23 83 28 l44 8 10 -49 c23 -107
54 -143 211 -244 264 -169 327 -213 357 -247 35 -39 104 -86 578 -387 176
-112 329 -204 340 -204 11 0 43 -14 70 -31 237 -149 510 -253 640 -242 78 6
229 47 217 59 -11 11 -416 178 -512 212 -46 16 -311 178 -920 566 -470 299
-872 548 -893 555 -27 8 -49 26 -75 60 -71 92 -207 138 -303 102z m-239 -447
c0 -11 -4 -20 -8 -20 -5 0 -18 -9 -30 -20 -12 -12 -22 -17 -22 -13 0 4 -4 2
-8 -5 -5 -7 -18 -14 -29 -16 -33 -7 -83 -35 -83 -48 0 -6 -3 -9 -6 -5 -4 3
-20 -1 -36 -9 -34 -17 -47 -11 -32 14 9 16 55 43 174 104 25 13 47 26 48 31 7
16 32 6 32 -13z m-273 -152 c-3 -8 -6 -5 -6 6 -1 11 2 17 5 13 3 -3 4 -12 1
-19z m-20 -10 c-3 -8 -6 -5 -6 6 -1 11 2 17 5 13 3 -3 4 -12 1 -19z M1423
7718 c-92 -30 -43 -66 890 -658 460 -292 837 -535 837 -539 0 -18 82 -92 127
-114 46 -23 404 -168 450 -181 22 -7 22 -7 7 36 -19 55 -60 126 -93 161 -14
16 -80 56 -146 89 -128 64 -198 111 -371 250 -187 150 -1484 966 -1484 933 0
-3 -18 4 -40 15 -43 22 -122 25 -177 8z M5710 6989 c-267 -154 -498 -288 -513
-298 -28 -18 -36 -16 -499 76 -259 52 -480 92 -492 89 -33 -8 -135 -113 -190
-196 -89 -132 -170 -307 -234 -506 l-29 -91 103 -53 c135 -69 269 -154 429
-270 72 -52 173 -124 226 -160 53 -36 103 -76 111 -90 8 -14 116 -152 239
-305 357 -446 439 -557 587 -807 187 -315 292 -566 293 -702 1 -63 -4 -73 -86
-179 -65 -85 -239 -347 -233 -352 2 -1 35 -26 73 -55 39 -30 120 -92 180 -140
126 -100 220 -160 285 -182 l44 -14 69 110 c131 212 177 265 335 388 l143 113
-8 35 c-24 105 7 207 90 297 77 84 220 172 322 199 61 17 168 17 213 0 54 -19
170 -3 372 52 102 28 202 54 223 57 l37 7 0 62 c0 118 -31 430 -57 577 l-15
87 -101 6 c-56 3 -179 9 -274 12 l-172 6 -144 182 c-201 253 -411 532 -494
656 -148 222 -278 459 -317 581 l-22 65 50 30 c103 61 586 410 586 423 0 5
-21 38 -47 73 -98 132 -296 306 -505 442 -47 31 -88 56 -90 56 -1 0 -221 -127
-488 -281z m561 -64 c54 -19 177 -109 192 -142 16 -35 -9 -63 -149 -167 -68
-52 -187 -158 -279 -249 -132 -131 -179 -170 -270 -227 -339 -210 -505 -286
-804 -371 -123 -34 -207 -37 -266 -10 -22 10 -107 67 -190 125 -82 59 -215
151 -295 204 -80 53 -148 101 -152 107 -13 17 -9 91 7 129 39 93 108 186 157
212 44 23 103 17 425 -46 169 -33 349 -66 399 -72 155 -20 203 -2 596 225 128
74 283 163 343 198 116 66 186 98 221 99 11 0 40 -7 65 -15z m-137 -787 c-20
-77 -18 -177 6 -240 11 -29 45 -98 76 -153 31 -55 73 -131 93 -170 114 -216
224 -371 563 -792 94 -117 174 -194 249 -241 52 -32 133 -49 260 -56 188 -11
176 -6 184 -81 4 -36 4 -94 0 -129 l-6 -64 -52 -16 c-85 -26 -225 -54 -342
-66 -276 -30 -424 -90 -587 -239 -78 -71 -129 -141 -192 -261 -30 -58 -61
-118 -69 -133 -8 -16 -58 -69 -110 -118 -53 -49 -138 -138 -191 -198 -52 -59
-103 -111 -114 -113 -32 -9 -95 19 -129 56 -50 54 -45 86 28 198 33 51 78 131
101 177 l40 84 -4 136 c-4 125 -8 144 -40 231 -107 288 -322 667 -545 963
-303 401 -376 476 -553 566 -36 19 -68 37 -73 41 -4 3 39 19 95 35 181 49 390
115 495 156 121 48 424 219 653 370 91 60 168 109 172 109 3 0 0 -24 -8 -52z
M7782 4642 c-15 -10 81 -91 148 -124 25 -13 47 -26 48 -30 2 -5 24 -8 48 -8
24 0 44 -4 44 -9 0 -6 119 -11 288 -13 l287 -3 135 -48 c74 -27 232 -81 350
-122 245 -83 330 -115 485 -180 61 -26 133 -55 160 -67 28 -11 64 -26 80 -33
17 -8 61 -26 99 -40 76 -28 96 -41 96 -61 0 -23 -46 -27 -107 -9 -32 9 -67 19
-78 21 -11 2 -132 39 -270 83 -137 44 -367 114 -510 155 -143 42 -309 92 -370
110 -138 43 -246 56 -456 56 -136 0 -169 -3 -179 -15 -7 -8 -28 -15 -46 -15
-43 0 -101 -36 -165 -103 l-50 -52 383 -5 383 -6 385 -133 c800 -276 1058
-361 1102 -361 146 0 258 111 258 255 0 35 -5 76 -11 92 -19 50 -62 104 -104
128 -23 14 -261 99 -531 191 -269 91 -579 196 -689 234 -110 37 -223 79 -251
94 l-52 26 -448 0 c-247 0 -455 -4 -462 -8z M7133 3864 c-56 -20 -129 -86
-144 -131 -38 -115 72 -324 214 -408 32 -18 74 -29 163 -41 136 -19 231 -48
312 -96 58 -34 183 -153 286 -272 61 -70 121 -106 198 -120 46 -8 58 -39 58
-145 0 -81 -18 -166 -50 -238 l-19 -43 -62 31 c-154 79 -303 80 -563 5 -133
-39 -155 -36 -212 25 -61 63 -106 91 -141 87 -23 -2 -29 -8 -31 -35 -3 -31 27
-105 48 -118 5 -3 10 -22 10 -40 0 -66 -108 -148 -174 -131 -39 10 -91 61
-117 114 -22 43 -24 60 -24 197 0 170 -7 192 -74 246 l-39 31 53 53 c76 77 99
140 100 275 0 99 -2 109 -32 171 -34 69 -110 155 -151 170 -30 11 -93 11 -111
0 -11 -7 3 -41 68 -166 l82 -157 -30 -83 c-17 -47 -35 -123 -41 -171 -7 -52
-17 -92 -25 -98 -25 -19 -37 -69 -42 -183 -25 -498 273 -981 672 -1088 92 -25
244 -30 350 -12 342 60 605 250 710 514 72 180 73 510 2 678 -47 114 -130 208
-184 211 -19 0 -30 14 -59 74 -60 126 -173 263 -284 345 -152 113 -354 174
-530 161 l-86 -6 -23 47 c-12 27 -49 96 -82 155 -32 58 -59 110 -59 115 0 4
27 25 60 47 79 51 80 57 3 30z m877 -1610 c46 -9 102 -14 123 -11 l39 5 -4
-81 c-5 -105 -32 -162 -114 -244 -150 -148 -452 -234 -664 -189 -105 22 -206
76 -277 147 -93 93 -111 159 -45 159 45 0 107 38 177 110 l69 69 85 -1 c61 -1
120 6 201 25 63 14 131 28 150 30 52 7 164 -1 260 -19z M5480 3040 c-60 -106
-269 -567 -280 -616 -6 -25 -8 -60 -5 -77 3 -18 -26 -351 -64 -740 -39 -390
-71 -735 -71 -767 0 -44 7 -71 28 -111 97 -186 363 -185 458 2 22 45 29 100
99 811 41 420 79 779 84 798 5 19 49 123 99 230 49 107 86 196 82 198 -19 7
-176 -63 -211 -95 -46 -42 -110 -164 -143 -276 -26 -85 -40 -200 -111 -932
-19 -198 -40 -394 -46 -435 -13 -90 -61 -193 -87 -188 -15 3 -17 26 -20 243
-2 222 1 275 43 705 26 256 49 497 51 535 7 79 26 145 78 259 20 43 43 101 51
129 20 66 18 194 -4 282 -16 68 -17 69 -31 45z"/>
</g>
</svg>
