<?xml version="1.0" standalone="no"?>
<!DOCTYPE svg PUBLIC "-//W3C//DTD SVG 20010904//EN"
 "http://www.w3.org/TR/2001/REC-SVG-20010904/DTD/svg10.dtd">
<svg version="1.0" xmlns="http://www.w3.org/2000/svg"
 width="2048.000000pt" height="2048.000000pt" viewBox="0 0 2048.000000 2048.000000"
 preserveAspectRatio="xMidYMid meet">
<metadata>
Created by potrace 1.13, written by Peter Selinger 2001-2015
</metadata>
<g transform="translate(0.000000,2048.000000) scale(0.192120,-0.192120)"
fill="#000000" stroke="none">
<path d="M5224 10279 c-342 -33 -816 -175 -1164 -349 -318 -159 -570 -338
-775 -551 -125 -130 -186 -215 -253 -349 -32 -63 -75 -137 -95 -165 -58 -78
-125 -222 -153 -331 -51 -195 -30 -431 54 -616 116 -256 345 -454 608 -526
l69 -19 185 -444 c102 -244 199 -474 216 -510 l31 -65 -23 -28 c-26 -30 -30
-65 -12 -99 18 -35 40 -46 85 -47 41 0 44 -2 67 -47 48 -96 151 -243 261 -377
115 -139 336 -281 510 -328 113 -31 313 -31 440 1 96 23 203 59 210 71 2 4 -9
22 -24 41 l-29 34 -180 1 c-204 2 -264 14 -325 65 -36 29 -38 35 -34 73 2 23
20 79 40 126 28 64 37 99 37 142 0 70 -13 81 -30 25 -15 -52 -63 -148 -100
-202 -33 -48 -120 -135 -135 -134 -5 0 -29 25 -53 55 -30 38 -67 68 -124 101
l-80 46 27 14 c15 8 106 48 204 90 97 41 194 83 216 93 l40 18 -39 7 c-48 9
-159 -10 -242 -41 -73 -27 -169 -40 -205 -26 -14 6 -57 39 -96 75 -66 60 -152
107 -198 107 -22 0 -18 13 10 40 37 35 35 92 -6 132 -27 28 -34 30 -74 25
l-44 -6 14 47 c8 26 15 74 15 108 0 73 -20 117 -134 284 -95 142 -134 221
-196 408 -63 188 -78 205 -184 210 l-74 4 -40 88 -40 88 64 42 c35 22 87 61
116 86 37 32 59 43 73 39 74 -20 230 -46 340 -56 210 -19 563 4 773 50 l83 18
14 -21 c7 -12 117 -190 244 -396 272 -444 253 -415 246 -370 -3 19 -8 96 -11
170 -7 145 5 225 46 318 108 243 406 320 560 144 71 -81 100 -230 100 -526 0
-177 12 -260 45 -326 38 -76 136 -190 271 -317 l124 -117 -68 -29 c-90 -40
-121 -63 -138 -104 -16 -37 -7 -90 21 -130 22 -31 13 -44 -97 -148 -113 -107
-240 -207 -371 -292 -101 -66 -289 -163 -315 -163 -11 0 -13 -8 -8 -37 7 -40
48 -206 52 -211 6 -9 220 107 324 176 146 96 318 266 405 400 l60 93 7 -114
c4 -72 14 -136 27 -175 41 -120 21 -250 -59 -397 -89 -162 -197 -347 -238
-405 -170 -244 -326 -439 -512 -644 -74 -82 -152 -170 -173 -195 -160 -191
-328 -331 -622 -516 -229 -144 -277 -177 -365 -250 -41 -34 -88 -70 -104 -80
l-29 -19 8 24 c18 61 86 214 123 277 61 104 112 165 252 300 121 117 181 195
161 207 -22 14 -260 -132 -471 -289 -139 -103 -182 -120 -305 -120 -113 0
-140 10 -250 93 -74 56 -156 94 -260 123 -44 12 -87 24 -95 26 -24 8 23 38
207 133 162 83 351 201 464 290 112 88 195 170 324 320 206 241 316 338 540
480 171 109 330 199 333 189 5 -14 22 -11 22 4 0 7 22 34 49 61 47 47 84 107
101 166 l8 29 -56 -21 c-31 -11 -118 -47 -192 -80 -398 -175 -705 -400 -900
-659 -81 -107 -262 -288 -364 -364 -44 -33 -156 -108 -249 -167 -92 -59 -203
-132 -245 -161 -73 -52 -174 -146 -207 -194 l-15 -21 -42 36 c-23 20 -97 89
-164 153 -166 159 -230 188 -414 189 -188 0 -350 -69 -490 -210 -101 -101
-150 -187 -210 -370 -84 -255 -115 -489 -107 -803 5 -221 17 -313 64 -492 75
-288 245 -602 496 -915 450 -560 1037 -906 1707 -1004 219 -32 476 -37 1885
-34 l1389 3 8 35 c334 1568 534 3126 541 4220 2 260 1 280 -21 360 -46 166
-123 300 -246 429 -121 125 -253 206 -423 258 -85 26 -97 27 -367 30 -154 2
-282 5 -284 8 -2 2 -35 126 -72 275 l-68 270 45 58 c24 31 48 57 53 57 11 0
87 101 167 220 272 408 441 838 498 1270 10 74 16 190 16 305 -1 228 -17 370
-63 543 -11 43 -18 80 -16 82 3 3 31 10 63 16 104 19 293 -19 423 -85 57 -29
122 -97 155 -163 54 -106 79 -218 122 -558 53 -417 102 -584 221 -751 55 -78
120 -133 225 -188 130 -69 213 -91 344 -91 175 0 300 50 437 176 l63 58 -45 1
c-83 1 -203 29 -269 61 -42 21 -90 56 -132 98 -140 140 -200 354 -178 629 11
145 39 271 100 451 61 180 79 274 79 405 -1 244 -91 459 -277 656 -236 251
-615 417 -904 396 -168 -13 -341 -83 -485 -198 -75 -59 -169 -164 -206 -230
l-21 -37 -60 92 c-185 287 -446 528 -698 646 -266 125 -562 172 -885 140z
m501 -333 c320 -72 538 -208 771 -482 130 -152 230 -246 301 -280 51 -25 59
-27 100 -16 57 16 110 52 248 170 172 147 282 198 448 208 163 10 364 -47 535
-152 112 -69 239 -200 286 -295 l38 -76 -4 -244 c-4 -222 -6 -249 -27 -304
-12 -33 -36 -112 -53 -175 l-32 -115 -6 -355 -5 -355 -26 50 c-52 98 -91 259
-133 550 -40 269 -61 360 -116 486 -73 168 -227 332 -387 413 -152 77 -376
105 -475 59 -57 -26 -208 -169 -245 -232 l-27 -46 3 -520 c2 -338 -1 -536 -8
-565 -5 -25 -17 -74 -25 -110 -29 -123 -96 -306 -181 -495 -34 -77 -158 -284
-190 -319 -13 -14 -31 -26 -40 -26 -30 0 -72 29 -118 80 -52 57 -77 102 -77
135 0 13 -7 39 -15 59 -11 27 -19 98 -25 244 -10 233 -25 316 -75 427 -45 97
-169 227 -260 271 -56 27 -68 29 -176 29 l-116 0 -89 -44 c-76 -38 -103 -59
-190 -148 -56 -57 -107 -103 -113 -103 -25 0 -62 35 -110 104 -61 89 -162 185
-227 217 -60 29 -131 30 -324 3 -190 -26 -539 -26 -708 0 -68 10 -151 16 -186
14 -78 -5 -166 -46 -251 -117 -84 -70 -110 -84 -148 -75 -50 11 -131 101 -177
195 l-40 83 0 210 c1 208 1 212 28 276 40 91 225 403 283 475 165 207 452 422
774 580 308 152 688 272 1005 320 127 19 486 14 585 -9z m1053 -4447 c18 -8
32 -17 32 -21 0 -5 18 -8 39 -8 22 0 42 -4 45 -9 3 -4 53 -11 112 -15 59 -4
140 -16 181 -27 219 -55 393 -202 483 -405 l40 -91 0 -516 c0 -372 -4 -568
-15 -704 -69 -850 -195 -1752 -379 -2709 -53 -277 -71 -349 -98 -392 -40 -65
3 -62 -869 -62 -915 0 -871 4 -987 -91 -34 -29 -64 -50 -66 -48 -15 16 -114
232 -165 357 -58 143 -157 411 -195 529 l-18 53 -309 0 c-342 0 -432 7 -654
52 -194 39 -329 47 -390 24 -57 -22 -117 -90 -146 -165 -29 -73 -31 -185 -6
-258 53 -154 239 -339 464 -463 24 -13 41 -25 39 -27 -6 -6 -174 61 -256 102
-118 59 -310 191 -404 277 -11 10 -55 43 -99 75 -156 112 -365 298 -444 393
-29 36 -80 97 -113 135 -123 143 -270 365 -360 544 -57 114 -79 170 -118 311
-26 94 -26 99 -30 486 -3 366 -2 397 18 495 70 343 203 526 426 584 148 38
233 12 434 -138 41 -31 76 -54 78 -52 2 2 19 -3 37 -11 62 -25 100 -19 149 27
l44 40 179 -149 c339 -282 724 -582 749 -582 26 0 287 104 414 166 358 173
632 374 929 680 637 657 1046 1313 1054 1690 l2 72 71 -68 c39 -37 85 -73 102
-81z m-2863 -4301 c66 -11 161 -26 210 -34 51 -8 205 -17 355 -21 146 -3 273
-10 282 -15 21 -10 53 -68 86 -153 67 -175 102 -280 102 -310 0 -68 9 -65
-219 -65 -424 0 -682 49 -899 172 -87 49 -219 173 -245 230 -25 54 -23 169 3
193 42 38 114 39 325 3z M4290 2934 c-9 -22 -7 -38 5 -71 29 -74 105 -128 449
-315 121 -66 230 -130 241 -143 11 -12 85 -62 165 -110 303 -184 892 -564 923
-596 38 -40 11 -70 -78 -89 -168 -35 -360 -64 -725 -110 -181 -23 -235 -42
-263 -89 -33 -55 -26 -61 68 -61 134 0 541 46 840 96 176 29 615 116 615 123
0 7 -755 508 -1020 677 -292 185 -560 344 -757 447 -151 79 -276 153 -430 254
-21 14 -23 13 -33 -13z M3975 7461 c-72 -33 -115 -95 -115 -167 0 -34 76 -234
107 -281 9 -13 35 -35 58 -48 115 -68 262 7 273 140 4 48 -1 68 -44 172 -53
129 -90 175 -151 192 -53 15 -82 13 -128 -8z M4749 5299 c-224 -129 -292 -179
-622 -463 -446 -383 -705 -669 -843 -930 -42 -80 -44 -87 -21 -72 14 10 83 78
154 153 70 75 240 236 377 357 137 121 334 302 437 402 187 180 309 285 444
379 130 91 187 137 206 169 22 36 25 76 6 76 -7 0 -69 -32 -138 -71z"/>
</g>
</svg>
