<?xml version="1.0" standalone="no"?>
<!DOCTYPE svg PUBLIC "-//W3C//DTD SVG 20010904//EN"
 "http://www.w3.org/TR/2001/REC-SVG-20010904/DTD/svg10.dtd">
<svg version="1.0" xmlns="http://www.w3.org/2000/svg"
 width="2048.000000pt" height="2048.000000pt" viewBox="0 0 2048.000000 2048.000000"
 preserveAspectRatio="xMidYMid meet">
<metadata>
Created by potrace 1.13, written by Peter Selinger 2001-2015
</metadata>
<g transform="translate(0.000000,2048.000000) scale(0.192120,-0.192120)"
fill="#000000" stroke="none">
<path d="M5190 9629 c-381 -21 -783 -134 -1170 -330 -583 -294 -1053 -758
-1343 -1326 -198 -389 -302 -743 -363 -1243 -22 -176 -31 -1291 -15 -1730 43
-1104 182 -1681 442 -1825 50 -27 62 -30 144 -28 182 2 364 52 920 250 138 49
313 109 390 132 77 23 146 44 153 46 6 3 12 19 12 36 l0 32 73 -70 c210 -203
459 -296 827 -310 422 -15 733 84 968 310 72 70 72 70 72 40 0 -30 3 -32 73
-53 148 -44 330 -105 612 -205 409 -146 550 -185 726 -204 357 -39 513 116
588 584 50 320 61 596 68 1710 5 851 3 1004 -11 1165 -65 744 -295 1354 -704
1866 -594 745 -1570 1202 -2462 1153z m325 -254 c347 -21 773 -151 1128 -345
270 -147 461 -291 678 -510 357 -361 582 -760 721 -1280 26 -99 32 -137 35
-272 5 -153 -1 -185 -25 -143 -16 30 -145 156 -190 187 -62 43 -166 78 -232
78 -75 0 -145 -20 -239 -69 -109 -56 -132 -55 -256 15 -311 176 -601 251
-1030 269 -82 4 -197 13 -255 21 -323 46 -733 187 -1167 402 -99 50 -205 96
-235 102 -119 27 -185 -18 -528 -355 -376 -369 -511 -478 -573 -460 -12 4 -58
21 -102 38 -69 27 -93 31 -175 31 -78 0 -105 -4 -150 -24 -114 -49 -217 -141
-294 -260 -24 -37 -49 -71 -56 -75 -9 -6 -11 37 -7 186 4 183 7 201 40 324 67
246 129 411 228 605 327 643 918 1146 1637 1391 309 105 666 165 902 153 30
-2 96 -6 145 -9z m-1109 -1674 c20 -18 257 -143 395 -207 494 -228 946 -354
1277 -354 458 0 919 -147 1168 -373 l51 -46 47 60 c57 73 147 134 222 149 193
40 395 -143 474 -430 93 -341 7 -747 -198 -930 -76 -68 -144 -93 -240 -88
l-74 3 -33 -130 c-295 -1157 -1171 -1945 -2165 -1945 -524 0 -1027 219 -1434
625 -317 316 -574 765 -710 1245 -19 63 -37 134 -41 158 l-7 42 -63 0 c-34 0
-82 7 -105 15 -138 49 -267 223 -320 432 -123 478 98 1007 420 1007 88 0 179
-42 244 -115 l45 -50 183 148 c132 107 272 237 508 470 179 177 330 322 336
323 5 0 14 -4 20 -9z m-1861 -1959 c6 -4 36 -50 67 -102 98 -165 192 -256 330
-318 80 -36 84 -43 162 -265 70 -198 108 -285 198 -459 143 -275 341 -541 562
-757 53 -52 96 -101 96 -111 0 -38 -14 -44 -444 -205 -362 -135 -536 -175
-644 -146 -155 42 -249 300 -329 901 -13 103 -17 245 -20 798 -2 369 -1 672 4
672 4 0 13 -4 18 -8z m5575 -928 c0 -927 -1 -949 -56 -1168 -37 -145 -75 -210
-148 -249 -37 -20 -56 -22 -186 -22 -177 0 -195 5 -585 151 -434 163 -445 168
-445 203 0 10 55 73 123 142 109 111 175 187 272 314 121 159 262 405 365 640
12 28 53 135 91 239 38 104 75 199 83 211 9 14 37 28 80 39 131 36 241 132
366 318 14 21 28 38 33 38 4 0 7 -385 7 -856z M4327 6356 c-59 -22 -103 -61
-131 -118 -25 -49 -26 -60 -26 -212 0 -89 5 -178 11 -199 13 -48 70 -112 123
-139 56 -29 146 -29 202 0 52 27 97 77 119 135 24 63 19 366 -7 413 -22 41
-72 90 -111 110 -42 22 -134 27 -180 10z M6200 6354 c-59 -26 -101 -65 -126
-118 -22 -47 -24 -63 -24 -219 0 -186 7 -217 63 -275 66 -69 147 -92 232 -67
64 18 117 61 148 119 19 36 22 60 25 203 5 200 -5 239 -77 306 -70 65 -163 85
-241 51z M5063 5205 c-66 -28 -93 -125 -57 -201 29 -62 43 -64 344 -64 l270 0
37 33 c31 29 37 41 40 88 5 68 -18 117 -67 141 -31 16 -67 18 -285 18 -192 -1
-257 -4 -282 -15z M4658 4631 c-82 -52 -110 -153 -65 -241 38 -78 195 -180
360 -236 244 -83 569 -76 805 17 161 63 288 157 318 234 67 176 -137 330 -289
217 -118 -88 -215 -126 -363 -143 -171 -20 -363 19 -481 99 -116 77 -126 82
-184 82 -44 0 -64 -6 -101 -29z M4360 3473 l0 -88 288 -157 c158 -86 366 -195
462 -243 167 -83 178 -87 231 -83 65 5 197 68 661 321 l298 162 0 88 c0 74 -2
87 -16 87 -9 0 -53 -38 -98 -84 -124 -128 -305 -250 -486 -330 -104 -46 -211
-95 -274 -127 -32 -16 -74 -29 -93 -29 -36 0 -173 57 -397 165 -168 81 -342
201 -453 312 -51 51 -100 93 -108 93 -12 0 -15 -16 -15 -87z M3512 3099 c-557
-50 -1100 -300 -1438 -662 -134 -145 -250 -340 -303 -512 -48 -155 -51 -206
-51 -922 l0 -673 1509 0 1509 0 -13 43 c-7 23 -183 605 -390 1292 -207 688
-390 1294 -406 1348 l-30 97 -147 -1 c-81 -1 -189 -5 -240 -10z m368 -364 c11
-227 21 -309 55 -435 12 -47 125 -425 250 -840 126 -415 230 -778 233 -806 6
-76 -11 -89 -124 -97 -116 -9 -209 -35 -356 -102 -65 -30 -123 -55 -129 -55
-14 0 9 40 142 257 66 105 119 196 119 200 0 5 -197 62 -437 128 -241 65 -441
121 -445 124 -4 4 8 47 26 96 19 50 156 432 306 849 337 942 330 923 342 902
5 -9 13 -108 18 -221z m-336 38 c10 -43 -9 -100 -214 -674 -277 -771 -290
-811 -297 -903 -6 -73 -4 -82 23 -134 38 -73 136 -173 197 -201 27 -12 134
-46 238 -76 104 -29 193 -56 199 -60 18 -11 11 -51 -14 -74 -16 -15 -44 -25
-87 -31 -35 -5 -407 -10 -827 -10 l-763 0 3 617 3 618 34 78 c53 123 124 223
240 338 273 270 688 462 1131 524 133 18 128 19 134 -12z M6731 3014 c-16 -54
-199 -661 -406 -1349 -207 -687 -383 -1269 -390 -1292 l-13 -43 1509 0 1510 0
-4 718 c-3 693 -4 720 -25 805 -86 352 -314 659 -661 891 -187 124 -429 230
-665 291 -192 49 -331 66 -593 72 l-231 6 -31 -99z m145 -226 c31 -84 170
-470 309 -858 139 -388 262 -730 274 -760 11 -30 17 -57 13 -61 -4 -4 -90 -29
-192 -57 -524 -140 -690 -187 -690 -195 0 -5 46 -84 103 -175 137 -222 171
-282 157 -282 -6 0 -64 25 -128 56 -156 75 -203 90 -300 99 -47 4 -100 15
-122 26 -39 19 -40 21 -40 69 0 56 19 144 54 251 28 85 122 392 260 849 84
280 108 364 161 568 23 87 35 195 44 412 10 211 16 256 33 226 5 -8 34 -84 64
-168z m445 -4 c537 -74 1045 -376 1238 -736 85 -157 81 -112 81 -815 l0 -623
-767 1 c-423 0 -792 4 -822 8 -41 6 -60 14 -78 36 -49 56 -39 63 184 126 112
32 223 67 249 78 59 26 159 129 190 195 30 65 31 145 4 245 -11 40 -109 319
-216 619 -261 727 -284 796 -284 843 l0 39 55 0 c30 0 105 -7 166 -16z M4554
3092 c-28 -18 -30 -61 -28 -470 2 -386 4 -425 20 -443 9 -10 28 -19 41 -19 13
0 92 38 176 84 84 46 245 136 360 199 l207 115 361 -199 c198 -110 370 -199
383 -199 13 0 31 9 40 19 16 18 17 55 17 443 0 232 -1 428 -1 435 0 20 -30 43
-56 43 -14 0 -184 -88 -378 -195 -194 -107 -359 -195 -365 -195 -7 0 -171 88
-366 195 -194 107 -364 195 -377 195 -13 0 -28 -4 -34 -8z m280 -441 c15 -16
15 -22 4 -40 -21 -34 -38 -26 -38 19 0 44 8 49 34 21z m996 -23 c0 -16 -3 -19
-11 -11 -6 6 -8 16 -5 22 11 17 16 13 16 -11z M4240 2646 c0 -2 8 -10 18 -17
15 -13 16 -12 3 4 -13 16 -21 21 -21 13z M6399 2633 c-13 -16 -12 -17 4 -4 9
7 17 15 17 17 0 8 -8 3 -21 -13z M5255 1936 c-56 -25 -105 -101 -105 -163 1
-45 35 -108 76 -139 33 -25 46 -29 104 -29 57 0 72 4 103 28 85 64 98 177 30
258 -47 56 -139 76 -208 45z M5245 1207 c-46 -26 -82 -75 -91 -124 -13 -67 32
-155 97 -188 36 -19 122 -19 158 0 64 33 108 117 96 183 -22 122 -155 188
-260 129z M5252 489 c-48 -24 -88 -76 -98 -127 l-6 -32 182 0 183 0 -7 32
c-16 79 -98 148 -177 148 -19 0 -53 -10 -77 -21z M4856 362 l-49 -27 61 -3
c34 -2 90 -2 125 0 l62 3 -46 28 c-57 34 -91 34 -153 -1z M5650 362 l-45 -27
63 -3 c34 -2 90 -2 124 0 l62 3 -51 28 c-64 34 -96 34 -153 -1z"/>
</g>
</svg>
