<?xml version="1.0" standalone="no"?>
<!DOCTYPE svg PUBLIC "-//W3C//DTD SVG 20010904//EN"
 "http://www.w3.org/TR/2001/REC-SVG-20010904/DTD/svg10.dtd">
<svg version="1.0" xmlns="http://www.w3.org/2000/svg"
 width="2048.000000pt" height="2048.000000pt" viewBox="0 0 2048.000000 2048.000000"
 preserveAspectRatio="xMidYMid meet">
<metadata>
Created by potrace 1.13, written by Peter Selinger 2001-2015
</metadata>
<g transform="translate(0.000000,2048.000000) scale(0.192120,-0.192120)"
fill="#000000" stroke="none">
<path d="M5320 10115 c-8 -2 -49 -9 -90 -15 -259 -42 -502 -205 -602 -405 -27
-53 -24 -52 -56 -22 -88 83 -309 112 -433 55 -72 -33 -128 -83 -253 -226 -58
-66 -124 -135 -148 -155 -160 -129 -417 -164 -567 -76 -59 35 -47 11 35 -67
158 -152 298 -240 444 -281 52 -14 101 -18 245 -17 164 0 189 3 279 27 130 36
231 87 303 152 l59 53 17 -89 c44 -232 171 -429 479 -741 35 -35 138 -112 165
-123 1 -1 9 -64 18 -141 8 -76 17 -156 21 -176 l6 -38 -45 0 c-25 0 -47 5 -49
11 -3 8 -83 17 -233 27 -211 14 -248 14 -445 -2 -118 -10 -231 -22 -251 -27
-20 -5 -86 -9 -146 -9 l-111 0 -808 401 c-445 221 -825 403 -845 406 -55 8
-140 -21 -190 -65 l-43 -39 -49 35 c-106 76 -296 113 -428 82 -96 -22 -198
-79 -269 -150 -113 -113 -164 -239 -163 -400 1 -161 56 -285 178 -399 219
-204 546 -198 761 14 84 83 136 178 155 284 7 39 14 71 16 71 1 0 175 -89 385
-199 1137 -590 1070 -557 1198 -582 100 -19 134 -21 258 -15 84 4 142 3 142
-3 0 -5 37 -14 83 -20 45 -7 120 -19 167 -28 80 -15 88 -19 132 -64 144 -147
328 -712 329 -1009 0 -107 -11 -174 -106 -613 -66 -309 -97 -483 -94 -534 1
-16 -27 -107 -63 -203 -36 -96 -85 -231 -109 -300 -24 -69 -81 -199 -126 -289
-46 -91 -83 -166 -83 -168 0 -1 24 -21 54 -43 l53 -40 -144 -218 c-147 -220
-193 -300 -193 -337 0 -14 -209 -213 -671 -640 -369 -341 -692 -639 -717 -663
-25 -23 -58 -45 -72 -49 -66 -16 -146 -79 -180 -142 -24 -46 -212 -846 -212
-904 0 -102 55 -186 156 -240 58 -31 184 -31 241 0 54 28 119 100 135 149 8
21 45 172 85 334 l71 295 45 11 c25 6 59 19 76 28 36 18 1462 1329 1566 1439
60 63 225 301 382 550 l49 78 53 -2 52 -3 192 280 c106 153 223 325 261 382
l69 103 217 -308 c120 -169 225 -318 233 -330 l16 -23 51 37 c29 20 54 34 56
32 2 -2 28 -53 59 -114 30 -60 92 -180 137 -265 76 -145 80 -156 63 -168 -10
-7 -305 -179 -656 -382 l-639 -368 -103 -104 c-67 -69 -107 -118 -116 -144
-11 -31 -14 -137 -14 -519 0 -538 -3 -514 75 -599 57 -61 118 -89 200 -89 112
0 207 60 254 162 20 44 21 63 24 428 l3 382 232 134 c128 73 484 279 792 457
308 178 573 335 588 349 74 68 104 158 88 268 -11 73 -70 198 -309 652 -62
117 -111 215 -109 217 1 2 25 8 52 15 28 6 55 13 62 15 11 3 -353 758 -483
1003 -44 82 -44 83 -19 79 20 -4 24 -2 21 11 -66 229 -147 926 -130 1117 7 75
11 85 109 269 46 88 47 91 42 160 -3 39 -16 104 -30 145 -14 41 -24 76 -23 78
3 3 314 -149 516 -252 125 -65 139 -70 210 -73 41 -2 401 -52 800 -110 l725
-106 56 16 c194 57 252 297 106 438 -42 42 -95 62 -202 78 -71 11 -755 112
-1205 178 l-245 36 -90 47 c-49 26 -191 100 -315 165 -124 65 -277 148 -341
186 -64 37 -154 84 -200 103 -97 40 -263 75 -396 83 l-93 6 -4 31 c-11 70 -38
327 -35 330 2 2 31 18 64 36 78 43 221 187 269 269 72 125 111 248 126 399 6
67 19 117 58 219 28 73 60 167 72 210 20 69 21 84 11 146 -22 135 -111 287
-246 422 -185 184 -333 243 -630 250 -88 2 -167 2 -175 0z m295 -305 c85 -12
159 -36 176 -56 18 -22 4 -43 -99 -149 -119 -122 -165 -155 -293 -209 -57 -24
-133 -58 -168 -75 -70 -36 -92 -37 -191 -6 -73 22 -117 11 -201 -54 -95 -73
-102 -72 -208 19 -45 39 -88 70 -96 70 -8 0 -15 4 -15 10 0 9 -29 2 -75 -20
-208 -98 -350 -146 -416 -141 -25 2 -31 28 -14 60 19 38 136 145 183 167 53
26 144 29 222 9 91 -24 175 -29 213 -14 54 22 113 67 221 168 113 106 193 155
311 190 129 39 307 51 450 31z m352 -273 c67 -50 146 -135 174 -190 20 -38 42
-114 58 -200 l9 -48 -42 -26 c-22 -14 -54 -37 -69 -52 -31 -28 -77 -114 -77
-143 0 -40 -42 -177 -75 -243 -36 -72 -66 -107 -199 -235 -81 -78 -153 -171
-176 -228 -9 -23 -11 -65 -8 -140 5 -89 10 -116 31 -158 40 -79 140 -156 231
-178 28 -7 28 -8 9 -21 -55 -38 -146 -58 -273 -59 -171 -1 -267 30 -339 108
l-24 26 25 0 c44 0 147 59 179 103 28 39 29 44 29 153 0 134 -14 180 -83 276
-102 141 -191 203 -314 218 -36 5 -67 11 -70 13 -2 3 5 44 17 91 23 94 21 116
-12 131 -50 22 -85 104 -94 220 -7 90 9 141 55 172 42 29 71 29 105 2 40 -32
54 -66 92 -232 47 -205 52 -215 53 -87 1 114 20 224 47 269 22 38 52 54 176
97 245 85 379 187 455 346 15 32 33 58 39 58 7 0 38 -20 71 -43z m-3732 -1073
c28 -7 79 -31 115 -53 36 -22 86 -52 113 -66 26 -14 47 -30 47 -35 0 -5 69
-44 153 -86 167 -84 290 -153 295 -166 2 -4 8 -6 13 -2 5 3 9 1 9 -4 0 -5 14
-15 30 -22 17 -7 30 -16 30 -20 0 -4 14 -13 30 -20 17 -7 30 -16 30 -20 0 -4
10 -10 23 -14 12 -3 32 -15 45 -26 12 -11 22 -18 22 -16 0 3 33 -10 74 -28 44
-20 83 -32 97 -29 17 3 92 -27 234 -95 255 -121 340 -152 420 -155 57 -2 64 1
137 49 l78 52 21 -67 c12 -37 23 -106 26 -158 l5 -93 -90 55 c-93 56 -110 61
-242 69 -41 3 -100 13 -130 23 -144 46 -542 267 -622 346 -10 9 -18 14 -18 10
0 -5 -7 1 -15 11 -8 11 -15 16 -15 12 0 -4 -26 7 -57 25 -32 19 -60 32 -63 31
-3 -2 -25 6 -50 17 -25 11 -110 48 -190 82 -80 34 -163 70 -185 82 -22 11 -53
21 -70 22 -16 1 -46 5 -66 9 -48 10 -112 -8 -153 -44 l-33 -29 -17 84 c-19 96
-47 166 -99 243 l-36 52 27 -6 c15 -3 50 -12 77 -20z m-417 -109 c87 -21 214
-71 240 -95 18 -17 22 -32 22 -77 0 -52 -5 -64 -64 -157 -72 -113 -91 -133
-156 -167 -38 -20 -60 -24 -140 -24 -108 0 -169 21 -228 78 -55 52 -62 75 -62
195 0 127 13 156 91 203 89 55 188 70 297 44z m3082 -765 c95 -6 199 -19 244
-30 56 -14 82 -17 87 -9 4 7 28 4 75 -11 99 -32 300 -38 503 -15 191 21 291
13 291 -24 0 -13 14 -21 55 -30 58 -13 276 -118 360 -173 31 -21 50 -41 50
-52 0 -13 -17 -30 -50 -49 -64 -37 -159 -129 -190 -186 -21 -36 -25 -57 -25
-123 0 -59 -5 -90 -20 -120 -11 -23 -20 -52 -20 -65 0 -13 -20 -71 -45 -127
l-45 -104 0 -301 c0 -249 4 -326 21 -447 26 -186 50 -251 140 -370 39 -52 69
-98 66 -101 -3 -3 -57 0 -119 6 -144 14 -454 14 -589 1 -161 -17 -312 -54
-581 -145 -278 -93 -262 -96 -178 30 120 182 134 222 221 644 27 134 29 160
29 363 0 224 -8 290 -57 468 -58 214 -163 474 -233 575 -49 71 -155 180 -213
218 -51 34 -214 97 -249 97 -14 0 -18 8 -18 34 l0 34 78 7 c42 3 86 7 97 9 44
7 159 5 315 -4z m1988 -372 c48 -70 134 -144 213 -183 41 -21 84 -46 96 -55
22 -17 22 -18 3 -23 -25 -6 -84 7 -144 33 -57 24 -116 33 -224 34 l-82 1 0 35
c0 52 74 200 100 200 5 0 22 -19 38 -42z m-648 -2180 c20 -8 49 -31 65 -49 15
-19 97 -173 182 -343 163 -330 175 -365 133 -404 -33 -30 -202 -120 -251 -133
-83 -22 -107 -6 -235 165 -127 168 -174 220 -257 282 -112 83 -169 79 -297
-23 -86 -69 -152 -146 -293 -348 -172 -246 -203 -273 -299 -262 -60 8 -179 63
-233 110 -37 32 -40 38 -38 83 1 34 18 87 56 174 30 69 78 192 106 274 58 168
91 238 129 278 68 73 501 192 767 212 28 2 136 3 240 1 144 -1 199 -6 225 -17z
m603 -994 c-35 -77 -43 -194 -18 -279 9 -32 59 -143 111 -246 l94 -189 0 -81
c0 -44 -5 -89 -10 -100 -10 -17 -160 -111 -300 -186 -30 -16 -91 -51 -136 -76
-45 -26 -86 -47 -92 -47 -7 0 -12 -4 -12 -8 0 -4 -12 -13 -27 -20 -41 -18 -87
-44 -93 -52 -3 -3 -20 -12 -37 -19 -18 -8 -33 -16 -33 -20 0 -4 -12 -12 -27
-19 -41 -18 -87 -44 -93 -52 -3 -3 -20 -12 -37 -19 -18 -8 -33 -17 -33 -22 0
-5 -5 -9 -10 -9 -14 0 -174 -92 -178 -102 -2 -4 -9 -8 -16 -8 -6 0 -35 -16
-65 -35 -29 -19 -55 -35 -57 -35 -2 0 -28 -17 -56 -37 -162 -113 -237 -221
-238 -335 l0 -58 -42 0 c-86 0 -198 78 -232 161 -18 44 -20 43 106 118 48 29
114 70 145 91 32 21 60 35 61 29 2 -5 7 -9 11 -9 17 0 959 551 1020 596 68 51
140 135 183 217 23 43 28 65 28 125 0 61 -6 88 -36 160 -91 222 -157 288 -327
332 l-71 18 89 58 c110 71 310 174 391 201 32 11 60 19 62 18 1 -1 -10 -29
-25 -61z m-2158 -211 c114 -68 205 -113 313 -153 34 -12 61 -24 60 -25 -2 -2
-43 -19 -92 -39 -155 -64 -202 -103 -311 -256 -88 -124 -176 -219 -349 -377
-672 -619 -956 -886 -1063 -997 -67 -70 -153 -151 -190 -180 -77 -60 -114
-110 -139 -185 -14 -45 -19 -51 -38 -45 -98 30 -196 159 -196 259 0 31 2 32
58 44 98 22 188 74 316 186 65 58 122 103 126 102 15 -4 977 890 1046 971 67
78 105 135 200 302 93 161 107 197 112 280 2 48 -2 100 -12 143 -9 38 -16 71
-16 74 0 3 15 -5 33 -16 17 -12 82 -52 142 -88z"/>
</g>
</svg>
