<?xml version="1.0" standalone="no"?>
<!DOCTYPE svg PUBLIC "-//W3C//DTD SVG 20010904//EN"
 "http://www.w3.org/TR/2001/REC-SVG-20010904/DTD/svg10.dtd">
<svg version="1.0" xmlns="http://www.w3.org/2000/svg"
 width="2048.000000pt" height="2048.000000pt" viewBox="0 0 2048.000000 2048.000000"
 preserveAspectRatio="xMidYMid meet">
<metadata>
Created by potrace 1.13, written by Peter Selinger 2001-2015
</metadata>
<g transform="translate(0.000000,2048.000000) scale(0.192120,-0.192120)"
fill="#000000" stroke="none">
<path d="M5065 10094 c-22 -2 -89 -9 -150 -14 -1279 -124 -2213 -939 -2381
-2075 -36 -245 -17 -689 42 -965 70 -335 206 -559 309 -512 34 15 51 55 76
169 120 557 410 1042 783 1308 l66 47 117 -94 c297 -237 520 -377 693 -434 72
-23 165 -24 207 -1 63 33 96 145 75 255 -5 28 -7 52 -4 52 3 0 71 -64 151
-142 236 -231 424 -378 534 -420 64 -24 82 -23 107 10 19 23 22 35 17 92 -7
78 -48 208 -111 348 -25 56 -46 104 -46 107 0 3 24 -15 54 -39 265 -215 805
-350 1535 -384 l144 -7 40 -65 c103 -169 219 -372 323 -569 118 -223 147 -264
201 -287 169 -73 293 414 295 1165 1 210 -2 263 -20 363 -50 276 -142 518
-290 760 -262 433 -638 778 -1101 1012 -316 159 -608 249 -981 301 -109 16
-586 29 -685 19z m615 -314 c1051 -122 1903 -774 2144 -1642 14 -47 16 -133
16 -562 0 -539 -3 -577 -46 -548 -13 9 -76 106 -174 270 -119 199 -253 326
-376 356 -32 8 -153 22 -269 31 -238 18 -427 43 -606 79 -202 41 -335 84 -592
191 -100 41 -164 48 -216 21 -32 -17 -117 -98 -172 -164 -16 -20 -36 -32 -50
-32 -15 0 -61 30 -119 75 -181 144 -258 177 -329 140 -18 -9 -65 -44 -104 -79
-98 -84 -116 -96 -152 -96 -67 0 -248 105 -490 283 -248 184 -332 208 -476
134 -151 -77 -350 -267 -514 -492 -87 -120 -116 -168 -206 -345 -38 -74 -78
-146 -89 -160 -18 -24 -20 -24 -37 -7 -17 16 -18 47 -18 450 0 474 -2 454 66
662 45 136 158 356 246 479 90 127 261 309 377 403 403 324 928 514 1556 563
139 10 499 5 630 -10z M2424 6929 c-23 -49 -53 -175 -64 -259 -35 -292 37
-598 184 -775 78 -94 143 -139 227 -157 l56 -11 6 -181 c7 -198 23 -326 63
-503 38 -169 132 -433 154 -433 5 0 20 15 34 33 41 53 39 67 -43 372 -35 128
-70 367 -78 517 -3 76 -10 141 -15 144 -4 3 -8 14 -8 25 0 10 -4 19 -10 19 -5
0 -10 6 -10 13 0 22 -60 86 -134 141 -111 84 -172 155 -215 249 -39 84 -73
208 -91 332 -6 39 -16 102 -21 140 -6 39 -14 135 -17 215 -6 120 -9 140 -18
119z M8238 6740 c-5 -151 -8 -179 -47 -333 -69 -272 -123 -384 -230 -473 -36
-30 -70 -54 -77 -54 -17 0 -154 -131 -154 -147 0 -7 -4 -13 -10 -13 -5 0 -10
-9 -10 -20 0 -11 -4 -20 -10 -20 -6 0 -10 -26 -10 -57 0 -87 -19 -368 -31
-448 -11 -79 -45 -205 -83 -313 -17 -49 -26 -95 -26 -136 0 -56 3 -65 32 -95
l32 -33 24 54 c38 85 108 304 132 413 35 165 50 290 57 481 l6 182 41 6 c133
22 272 158 350 344 96 228 111 533 38 767 l-19 60 -5 -165z M4128 6704 c-63
-22 -123 -75 -156 -138 -27 -51 -27 -52 -27 -261 0 -237 7 -267 79 -337 53
-52 101 -72 182 -76 90 -5 156 21 215 85 71 77 74 91 74 323 0 204 0 205 -28
262 -62 126 -208 187 -339 142z M6357 6706 c-101 -37 -167 -112 -188 -213 -17
-83 -8 -387 13 -435 25 -57 93 -123 150 -148 41 -18 65 -21 122 -18 113 6 195
59 240 157 19 42 21 63 21 256 0 208 0 210 -27 260 -31 60 -67 95 -128 125
-56 28 -151 36 -203 16z M4983 5170 c-89 -54 -94 -172 -9 -233 30 -21 39 -22
336 -25 262 -3 310 -1 347 13 107 41 121 178 24 242 -34 23 -38 23 -350 23
-296 0 -318 -1 -348 -20z M2706 4489 c-484 -56 -882 -426 -966 -897 -7 -40
-17 -72 -21 -72 -4 0 -38 7 -75 16 -165 38 -309 -52 -348 -217 -6 -26 -4 -27
52 -34 31 -4 163 -25 292 -46 l235 -40 535 2 c369 1 544 -2 565 -10 28 -11 29
-10 10 5 -36 28 -110 62 -172 78 -45 12 -156 18 -449 26 -463 12 -562 24 -613
71 -20 19 -23 29 -19 75 3 30 8 57 12 61 4 4 114 -14 244 -40 l237 -48 256 1
c228 0 264 -2 320 -20 112 -35 205 -113 258 -217 42 -83 51 -153 51 -401 l0
-233 -695 3 -695 3 -5 -30 c-2 -16 -63 -502 -135 -1080 -72 -577 -133 -1065
-136 -1082 l-6 -33 3892 0 3892 0 -6 32 c-3 18 -64 506 -136 1083 -72 578
-133 1064 -135 1080 l-5 30 -695 -3 -695 -3 0 233 c0 248 9 318 51 401 53 104
146 182 258 217 56 18 92 20 324 20 l261 0 233 47 c266 53 255 55 251 -37 -3
-54 -3 -55 -48 -77 -68 -33 -163 -42 -550 -53 -195 -5 -380 -12 -410 -15 -94
-11 -189 -45 -245 -89 -19 -15 -18 -16 10 -5 21 8 192 11 563 9 l532 -1 293
47 c160 26 293 48 295 49 1 1 -4 23 -12 49 -31 102 -110 175 -213 196 -45 10
-68 9 -125 -4 -39 -9 -74 -16 -78 -16 -4 0 -13 33 -20 73 -67 382 -363 721
-735 845 -121 41 -207 53 -411 59 l-201 6 -50 -94 c-223 -412 -580 -769 -999
-997 -254 -138 -502 -223 -799 -274 -112 -19 -167 -22 -395 -22 -228 0 -282 3
-390 21 -428 75 -786 229 -1127 485 -112 83 -353 318 -437 425 -85 109 -178
249 -236 357 l-52 96 -156 -1 c-87 -1 -188 -5 -226 -10z m5204 -273 c267 -16
529 -163 669 -378 36 -55 41 -70 41 -121 0 -50 -3 -59 -22 -66 -55 -21 -182
-32 -438 -40 -260 -8 -279 -9 -350 -34 -172 -61 -331 -215 -413 -403 -45 -102
-35 -184 36 -288 15 -21 27 -43 27 -47 0 -5 -43 -9 -95 -9 l-95 0 0 -1200 0
-1200 -32 20 c-47 28 -99 50 -130 57 -16 3 -28 9 -28 14 0 5 -761 9 -1760 9
-1167 0 -1760 -3 -1760 -10 0 -5 -7 -10 -16 -10 -14 0 -115 -51 -141 -73 -10
-7 -13 232 -13 1192 l0 1201 -101 0 -100 0 26 43 c51 82 60 109 60 187 0 62
-5 86 -28 135 -55 116 -165 248 -259 313 -110 75 -218 102 -417 102 -215 1
-431 17 -492 37 -51 17 -54 20 -57 55 -7 79 117 246 253 343 159 114 319 165
535 172 130 4 148 2 175 -15 17 -11 74 -79 127 -153 97 -134 214 -281 231
-288 4 -2 36 -31 70 -65 359 -357 791 -601 1283 -725 216 -55 321 -66 634 -65
260 0 311 2 425 22 555 96 1035 338 1445 731 52 50 98 91 102 91 12 0 139 159
237 295 51 72 105 139 119 149 29 22 81 34 132 30 19 -2 73 -6 120 -8z m-4805
-3774 c-6 -6 -65 18 -65 27 0 4 -20 15 -45 26 -25 11 -45 23 -45 28 0 4 -9 7
-20 7 -11 0 -20 5 -20 10 0 7 -190 10 -549 10 -475 0 -550 2 -561 15 -7 8 -25
15 -41 15 l-29 0 0 146 c0 122 12 245 75 748 96 759 99 781 132 829 l26 37
473 0 c274 0 474 4 474 9 0 5 18 18 40 30 21 11 65 48 97 82 l58 61 3 -1038
c1 -570 0 -1039 -3 -1042z m4619 1933 c19 -8 47 -15 61 -15 14 0 25 -4 25 -10
0 -7 158 -10 454 -10 l454 0 21 -36 c29 -48 39 -112 131 -851 90 -720 98 -850
58 -884 -22 -17 -50 -18 -570 -19 -359 0 -548 -3 -548 -10 0 -5 -20 -10 -44
-10 -24 0 -46 -3 -48 -7 -4 -10 -144 -83 -158 -83 -7 0 -10 331 -10 1042 l0
1041 69 -67 c38 -36 85 -73 105 -81z M5823 4204 c-97 -48 -96 -202 1 -248 24
-11 63 -16 131 -16 68 0 107 5 131 16 98 47 98 201 0 248 -47 22 -218 22 -263
0z M475 3408 c-52 -18 -96 -59 -121 -112 -42 -89 -30 -140 48 -213 71 -65 115
-85 488 -223 450 -167 759 -280 765 -280 3 0 5 15 5 34 0 47 -37 96 -95 128
-28 14 -221 90 -430 168 -459 172 -542 208 -551 244 -3 14 -10 26 -15 26 -5 0
-9 9 -9 20 0 11 5 20 10 20 6 0 10 9 10 20 0 27 7 26 275 -14 233 -36 310 -38
351 -11 22 14 60 73 52 80 -9 9 -692 125 -730 124 -13 0 -36 -5 -53 -11z
M9840 3376 c-410 -71 -440 -77 -440 -89 1 -17 41 -62 67 -76 36 -18 174 -13
339 14 215 35 290 41 309 25 25 -21 19 -73 -12 -103 -38 -36 -80 -53 -559
-232 -231 -86 -437 -167 -460 -180 -50 -29 -71 -60 -80 -115 -7 -41 -6 -42 17
-35 97 29 1113 412 1148 432 57 33 128 99 147 134 57 111 -65 273 -202 268
-16 -1 -139 -20 -274 -43z"/>
</g>
</svg>
