<?xml version="1.0" standalone="no"?>
<!DOCTYPE svg PUBLIC "-//W3C//DTD SVG 20010904//EN"
 "http://www.w3.org/TR/2001/REC-SVG-20010904/DTD/svg10.dtd">
<svg version="1.0" xmlns="http://www.w3.org/2000/svg"
 width="2048.000000pt" height="2048.000000pt" viewBox="0 0 2048.000000 2048.000000"
 preserveAspectRatio="xMidYMid meet">
<metadata>
Created by potrace 1.13, written by Peter Selinger 2001-2015
</metadata>
<g transform="translate(0.000000,2048.000000) scale(0.192120,-0.192120)"
fill="#000000" stroke="none">
<path d="M5190 9629 c-371 -19 -766 -129 -1150 -320 -951 -473 -1559 -1346
-1709 -2454 -35 -255 -41 -409 -41 -1040 0 -1086 40 -1643 151 -2095 71 -289
173 -476 295 -542 65 -35 120 -42 229 -28 182 22 317 61 735 210 234 84 495
171 608 204 l52 15 0 -97 1 -97 117 -64 c64 -36 282 -158 485 -273 l367 -207
333 187 c182 104 401 226 484 272 l153 85 0 98 0 97 28 -6 c26 -6 397 -130
889 -298 330 -113 530 -150 678 -126 264 42 373 243 430 785 32 316 39 594 40
1625 0 931 -2 1038 -18 1170 -88 704 -295 1231 -681 1730 -99 129 -347 379
-479 484 -592 471 -1317 720 -1997 685z m480 -334 c651 -100 1295 -446 1703
-913 51 -59 116 -136 144 -172 178 -228 353 -586 438 -897 29 -104 35 -143 35
-225 0 -54 -3 -98 -6 -98 -3 0 -31 20 -62 44 -179 137 -334 151 -537 49 -81
-42 -125 -45 -180 -17 -286 147 -369 182 -554 229 -154 39 -270 54 -523 70
-130 8 -279 21 -330 30 -310 54 -650 173 -1078 381 -242 116 -301 135 -373
115 -99 -28 -172 -89 -542 -452 -267 -262 -388 -359 -447 -359 -15 0 -51 10
-80 21 -219 88 -380 55 -569 -119 -31 -29 -60 -52 -63 -52 -16 0 -4 179 19
278 213 919 887 1645 1825 1964 196 67 454 124 640 142 95 9 438 -3 540 -19z
m-1164 -1652 c235 -132 592 -287 857 -372 267 -87 445 -119 727 -131 305 -14
473 -41 680 -110 184 -62 365 -162 479 -266 36 -32 56 -44 59 -36 11 33 104
130 153 159 142 85 292 55 419 -85 239 -260 265 -803 53 -1124 -51 -77 -115
-137 -181 -170 -38 -19 -64 -23 -135 -23 l-89 0 -33 -130 c-92 -361 -247 -700
-455 -995 -184 -260 -422 -489 -665 -640 -38 -23 -72 -46 -75 -49 -3 -4 -59
-32 -125 -63 -266 -125 -507 -185 -775 -195 -310 -11 -578 44 -874 179 -72 33
-137 62 -143 65 -18 7 -16 -22 2 -37 21 -17 19 -30 -5 -30 -17 0 -20 7 -20 44
0 43 -1 44 -64 81 -213 124 -487 384 -658 621 -222 309 -384 665 -481 1052
l-23 93 -74 3 c-115 3 -204 57 -285 171 -87 122 -139 275 -154 454 -30 349
105 689 315 792 129 64 276 32 378 -82 l45 -50 183 148 c133 108 271 236 508
470 179 177 328 323 331 323 3 0 59 -30 125 -67z m-1658 -2337 c35 -20 66 -36
71 -36 10 0 56 -50 69 -76 6 -11 17 -38 25 -60 8 -21 29 -79 47 -128 89 -247
211 -488 365 -721 110 -166 187 -262 324 -408 85 -90 101 -111 95 -130 -10
-32 -23 -39 -188 -101 -489 -182 -716 -233 -806 -180 -80 47 -154 251 -205
568 -54 337 -58 405 -62 976 l-4 545 103 -106 c65 -67 126 -120 166 -143z
m5209 -711 c-3 -610 -5 -700 -21 -780 -38 -197 -73 -293 -122 -337 -64 -56
-246 -48 -483 22 -162 48 -542 189 -583 216 -21 13 -38 31 -38 39 0 8 39 57
86 107 93 100 213 246 287 350 158 220 325 551 427 843 18 50 43 111 57 137
23 41 33 50 92 73 79 32 166 93 241 170 l55 56 3 -103 c2 -57 1 -413 -1 -793z
m-1757 -975 c0 -23 -4 -30 -20 -30 -24 0 -25 5 -2 35 22 31 22 31 22 -5z
m-1435 -301 c142 -43 231 -53 465 -53 276 0 399 20 584 95 38 15 65 24 60 19
-18 -18 -273 -139 -414 -196 -138 -56 -149 -59 -230 -59 -80 0 -93 3 -230 58
-139 56 -395 178 -415 198 -5 5 20 -2 55 -17 36 -14 92 -34 125 -45z M4327
6356 c-59 -22 -103 -61 -131 -118 -25 -49 -26 -60 -26 -212 0 -89 5 -178 11
-199 13 -48 70 -112 123 -139 56 -29 146 -29 202 0 52 27 97 77 119 135 24 63
19 366 -7 413 -22 41 -72 90 -111 110 -42 22 -134 27 -180 10z M6182 6344
c-56 -28 -92 -67 -117 -127 -22 -52 -22 -352 1 -405 19 -46 68 -98 114 -122
114 -57 252 -12 313 104 19 36 22 61 25 191 5 192 -5 238 -64 304 -74 83 -176
103 -272 55z M5063 5205 c-90 -39 -99 -198 -14 -248 26 -15 63 -17 299 -17
l270 0 31 25 c77 65 63 204 -24 241 -49 20 -515 20 -562 -1z M4653 4666 c-39
-18 -61 -37 -83 -72 -26 -42 -30 -57 -30 -122 0 -91 16 -129 86 -199 69 -69
210 -140 356 -178 146 -38 403 -46 591 -19 198 29 401 116 483 207 59 66 74
104 74 188 0 56 -5 77 -24 107 -74 115 -219 143 -371 70 -262 -126 -514 -130
-775 -15 -96 43 -127 52 -185 55 -58 2 -79 -1 -122 -22z m167 -9 c19 -7 58
-30 85 -52 109 -84 250 -125 430 -125 173 0 319 44 430 130 83 64 179 69 252
14 65 -50 92 -150 59 -227 -33 -79 -216 -198 -386 -252 -361 -113 -799 -40
-1041 174 -56 49 -79 94 -79 155 0 81 50 152 125 180 50 18 80 19 125 3z
M3513 3099 c-825 -74 -1554 -565 -1742 -1174 -48 -155 -51 -206 -51 -922 l0
-673 1509 0 1509 0 -13 43 c-7 23 -183 605 -390 1292 -207 688 -390 1294 -406
1348 l-30 97 -147 -1 c-81 -1 -188 -5 -239 -10z m367 -364 c11 -227 21 -309
55 -435 12 -47 125 -425 250 -840 126 -415 230 -778 233 -806 6 -76 -11 -89
-124 -97 -116 -9 -209 -35 -356 -102 -65 -30 -123 -55 -129 -55 -14 0 9 40
142 257 66 105 119 196 119 200 0 5 -197 62 -437 128 -241 65 -441 121 -445
124 -4 4 8 47 26 96 19 50 156 432 306 849 337 942 330 923 342 902 5 -9 13
-108 18 -221z m-336 38 c10 -43 -9 -100 -214 -674 -277 -771 -290 -811 -297
-903 -6 -73 -4 -82 23 -134 38 -73 136 -173 197 -201 27 -12 134 -46 238 -76
104 -29 193 -56 199 -60 18 -11 11 -51 -14 -74 -16 -15 -44 -25 -87 -31 -35
-5 -407 -10 -827 -10 l-763 0 3 617 3 618 34 78 c53 123 124 223 240 338 252
249 668 453 1047 513 204 33 211 32 218 -1z M6731 3013 c-16 -54 -199 -660
-406 -1348 -207 -687 -383 -1269 -390 -1292 l-13 -43 1509 0 1510 0 -4 718
c-3 693 -4 720 -25 805 -58 240 -175 447 -356 635 -164 170 -308 273 -541 388
-330 162 -667 234 -1094 234 l-160 0 -30 -97z m145 -225 c31 -84 170 -470 309
-858 139 -388 262 -730 274 -760 11 -30 17 -57 13 -61 -4 -4 -90 -29 -192 -57
-524 -140 -690 -187 -690 -195 0 -5 46 -84 103 -175 137 -222 171 -282 157
-282 -6 0 -64 25 -128 56 -156 75 -203 90 -300 99 -47 4 -100 15 -122 26 -39
19 -40 21 -40 69 0 56 19 144 54 251 28 85 122 392 260 849 84 280 108 364
161 568 23 87 35 195 44 412 10 211 16 256 33 226 5 -8 34 -84 64 -168z m577
-22 c472 -96 932 -394 1106 -718 85 -157 81 -112 81 -815 l0 -623 -767 1
c-423 0 -792 4 -822 8 -41 6 -60 14 -78 36 -49 56 -39 63 184 126 112 32 223
67 249 78 59 26 159 129 190 195 30 65 31 145 4 245 -11 40 -120 350 -241 689
-260 724 -259 723 -259 775 l0 40 114 -6 c63 -3 171 -18 239 -31z M4554 3092
c-27 -18 -30 -62 -28 -470 2 -386 4 -425 20 -443 9 -10 28 -19 41 -19 13 0 92
38 176 84 84 46 245 136 360 199 l207 115 361 -199 c198 -110 370 -199 383
-199 13 0 31 9 40 19 16 18 17 56 17 451 0 393 -2 434 -17 451 -9 11 -28 19
-41 19 -13 0 -182 -88 -377 -195 -194 -107 -359 -195 -365 -195 -7 0 -172 88
-367 195 -195 107 -364 195 -377 195 -12 0 -27 -4 -33 -8z m282 -443 c20 -22
11 -51 -20 -57 -13 -3 -16 5 -16 37 0 46 8 51 36 20z m994 -26 c0 -20 -3 -24
-11 -16 -7 7 -9 19 -6 27 10 24 17 19 17 -11z M4240 2646 c0 -2 8 -10 18 -17
15 -13 16 -12 3 4 -13 16 -21 21 -21 13z M6399 2633 c-13 -16 -12 -17 4 -4 9
7 17 15 17 17 0 8 -8 3 -21 -13z M5255 1936 c-56 -25 -105 -101 -105 -163 1
-45 35 -108 76 -139 33 -25 46 -29 104 -29 57 0 72 4 103 28 85 64 98 177 30
258 -47 56 -139 76 -208 45z M5245 1207 c-46 -26 -82 -75 -91 -124 -13 -67 32
-155 97 -188 36 -19 122 -19 158 0 64 33 108 117 96 183 -22 122 -155 188
-260 129z M5252 489 c-48 -24 -88 -76 -98 -127 l-6 -32 182 0 183 0 -7 32
c-16 79 -98 148 -177 148 -19 0 -53 -10 -77 -21z M4856 362 l-49 -27 61 -3
c34 -2 90 -2 125 0 l62 3 -46 28 c-57 34 -91 34 -153 -1z M5650 362 l-45 -27
63 -3 c34 -2 90 -2 124 0 l62 3 -51 28 c-64 34 -96 34 -153 -1z"/>
</g>
</svg>
