<?xml version="1.0" standalone="no"?>
<!DOCTYPE svg PUBLIC "-//W3C//DTD SVG 20010904//EN"
 "http://www.w3.org/TR/2001/REC-SVG-20010904/DTD/svg10.dtd">
<svg version="1.0" xmlns="http://www.w3.org/2000/svg"
 width="2048.000000pt" height="2048.000000pt" viewBox="0 0 2048.000000 2048.000000"
 preserveAspectRatio="xMidYMid meet">
<metadata>
Created by potrace 1.13, written by Peter Selinger 2001-2015
</metadata>
<g transform="translate(0.000000,2048.000000) scale(0.192120,-0.192120)"
fill="#000000" stroke="none">
<path d="M5275 10110 c-371 -58 -624 -265 -717 -586 -20 -69 -23 -101 -23
-254 0 -157 3 -186 28 -285 52 -206 180 -420 248 -413 26 2 31 -4 70 -81 52
-104 158 -220 253 -275 73 -43 65 -23 86 -221 6 -55 14 -115 17 -132 l5 -33
-45 0 c-25 0 -47 5 -49 11 -2 7 -88 17 -237 27 -215 14 -249 14 -430 -2 -108
-9 -221 -21 -252 -26 -30 -6 -103 -10 -161 -10 l-106 0 -808 401 c-445 221
-825 403 -845 406 -57 8 -145 -22 -192 -66 l-41 -38 -49 35 c-106 76 -296 113
-428 82 -96 -22 -198 -79 -269 -150 -113 -113 -164 -239 -163 -400 1 -161 56
-285 178 -399 219 -204 546 -198 761 14 84 83 136 178 155 284 7 39 14 71 16
71 1 0 175 -89 385 -199 1027 -532 1079 -558 1163 -576 49 -11 156 -21 275
-25 203 -8 451 -44 507 -74 98 -51 176 -214 225 -471 21 -110 23 -146 22 -440
0 -259 -4 -360 -22 -530 -27 -248 -64 -508 -96 -657 -12 -60 -22 -108 -20
-108 1 0 18 7 37 15 l36 15 -26 -68 c-14 -37 -50 -134 -79 -217 -30 -82 -73
-202 -96 -265 -23 -63 -77 -184 -120 -269 -42 -85 -75 -158 -72 -162 2 -5 25
-23 49 -40 25 -18 45 -36 45 -40 0 -4 -66 -108 -147 -231 -148 -226 -182 -287
-183 -323 0 -14 -227 -230 -720 -685 -606 -559 -726 -666 -763 -677 -49 -14
-116 -68 -146 -117 -31 -50 -223 -844 -223 -920 1 -103 55 -185 156 -239 58
-31 184 -31 241 0 52 28 110 88 129 135 14 33 135 521 151 610 6 34 10 37 48
43 23 4 59 16 79 26 46 23 1487 1350 1588 1462 46 51 141 185 245 345 l170
261 55 1 55 1 120 177 c66 97 182 268 258 379 l138 203 218 -307 c119 -170
224 -318 232 -330 l16 -23 51 37 c29 20 54 34 56 32 2 -2 28 -53 59 -114 30
-60 92 -180 137 -265 76 -145 80 -156 63 -168 -10 -7 -305 -179 -655 -381
l-638 -368 -99 -100 c-55 -56 -108 -118 -118 -139 -17 -36 -18 -77 -18 -524 0
-544 -3 -519 75 -604 57 -61 118 -89 200 -89 112 0 207 60 254 162 20 44 21
63 24 428 l3 381 717 415 c394 228 754 435 799 461 137 79 189 158 186 286 0
30 -6 75 -13 100 -10 40 -377 765 -403 798 -15 18 6 30 66 38 26 4 49 9 51 13
2 3 -116 248 -263 544 -214 432 -262 538 -246 535 19 -4 20 0 17 116 -2 67 3
308 12 536 25 661 20 872 -29 1059 -9 35 -14 65 -12 67 4 5 280 -129 517 -250
125 -65 139 -70 210 -73 41 -2 401 -52 800 -110 l725 -106 56 16 c194 57 252
297 106 438 -42 42 -95 62 -202 78 -63 10 -547 81 -1205 178 l-245 36 -115 60
c-365 191 -594 315 -665 357 -127 77 -240 118 -393 146 -75 13 -164 24 -199
24 l-62 0 -5 33 c-3 17 -10 77 -16 132 -6 55 -13 114 -16 131 l-6 31 64 12
c187 35 303 103 360 208 45 82 52 150 45 415 l-7 239 25 32 c60 79 115 238
115 333 0 72 -33 193 -75 274 -79 149 -262 334 -393 396 -109 51 -232 75 -407
79 -88 2 -187 0 -220 -5z m388 -326 c125 -24 227 -77 227 -119 0 -26 -142 -82
-395 -156 -60 -17 -152 -52 -204 -77 l-94 -46 -46 18 c-132 52 -156 58 -200
52 -24 -3 -58 -13 -74 -21 -17 -8 -32 -15 -34 -15 -1 0 -3 24 -3 54 0 41 6 62
26 92 125 188 466 281 797 218z m394 -349 c48 -34 117 -183 137 -297 7 -37 7
-37 -51 -67 -57 -29 -86 -54 -110 -98 -9 -15 -13 -71 -13 -172 0 -120 -3 -151
-15 -161 -9 -8 -15 -30 -15 -60 0 -34 -5 -52 -20 -65 -11 -10 -20 -23 -20 -30
0 -20 -42 -52 -126 -93 -66 -33 -96 -56 -157 -123 -107 -115 -117 -138 -117
-281 0 -122 -2 -128 -50 -128 -37 0 -50 38 -50 142 0 116 -14 165 -77 263 -56
87 -243 274 -303 302 -25 12 -73 25 -108 29 -34 4 -64 10 -67 14 -2 4 5 24 15
46 32 63 27 124 -20 218 -100 203 -63 376 82 376 98 0 163 -61 139 -131 -24
-70 -8 -139 32 -139 32 0 71 44 102 115 44 101 49 108 95 131 25 12 113 41
196 63 168 45 368 112 423 141 44 23 70 25 98 5z m-4150 -1066 c52 -16 109
-29 125 -29 31 0 77 20 118 52 25 20 25 20 46 -6 30 -34 66 -133 62 -169 -3
-27 -9 -32 -57 -47 -61 -20 -127 -79 -196 -176 -68 -95 -124 -139 -195 -154
-64 -14 -158 -9 -224 10 -42 13 -120 79 -142 121 -9 19 -14 62 -14 134 0 115
10 148 55 183 14 11 25 25 25 30 0 16 60 58 100 70 89 28 162 23 297 -19z
m3390 -702 c73 -37 147 -51 263 -50 122 1 180 12 272 55 l68 31 22 -29 c51
-66 74 -80 194 -122 133 -45 193 -73 389 -177 l130 -70 118 2 118 3 -31 -45
c-48 -70 -90 -167 -97 -224 l-6 -52 -76 80 c-85 88 -112 101 -164 76 -52 -24
-149 -116 -174 -165 l-23 -42 0 -754 c0 -496 3 -754 10 -754 6 0 10 -8 10 -18
0 -10 4 -22 9 -28 17 -17 73 -125 68 -130 -3 -3 -69 0 -147 7 -183 15 -550 7
-678 -16 -121 -22 -335 -79 -552 -148 -96 -31 -175 -55 -177 -54 -1 1 25 50
58 107 80 141 95 186 118 347 36 248 41 340 41 765 0 382 -2 429 -20 521 -48
237 -101 348 -225 472 -110 109 -185 156 -256 162 -28 2 -55 6 -60 9 -13 8
-114 -23 -171 -52 l-48 -24 0 87 c0 59 -8 120 -26 195 -15 60 -25 111 -22 113
3 3 47 -13 98 -36 l94 -42 316 -1 c347 -1 343 -1 404 63 l29 30 38 -34 c21
-19 60 -45 86 -58z m950 -2607 c17 -6 43 -26 57 -44 63 -83 400 -776 410 -842
3 -23 12 -54 21 -70 8 -16 11 -32 7 -35 -4 -4 -79 -46 -167 -93 l-159 -85 -23
37 c-12 20 -27 48 -33 63 -6 14 -37 48 -69 77 -33 28 -105 114 -160 192 -170
234 -292 340 -392 340 -103 0 -252 -142 -454 -435 -71 -104 -157 -222 -191
-264 -33 -42 -76 -104 -95 -139 -30 -56 -37 -62 -59 -57 -69 16 -320 154 -320
177 0 5 10 22 22 38 15 21 23 50 28 102 5 59 17 98 62 200 32 69 91 220 132
335 41 114 81 224 90 243 19 46 96 148 96 128 0 -12 32 -5 161 34 190 57 369
95 511 107 137 13 484 6 525 -9z m471 -1180 c42 -42 280 -512 293 -579 6 -29
8 -75 4 -101 -6 -44 -10 -49 -68 -87 -78 -51 -282 -163 -296 -163 -6 0 -11 -4
-11 -10 0 -5 -7 -10 -15 -10 -9 0 -27 -7 -40 -16 -13 -9 -31 -17 -40 -18 -9
-1 -20 -7 -23 -12 -4 -5 -12 -10 -18 -11 -6 -1 -40 -19 -75 -39 -35 -21 -69
-37 -76 -37 -7 0 -13 -4 -13 -8 0 -5 -13 -15 -30 -24 -16 -9 -30 -13 -30 -10
0 3 -9 -4 -20 -15 -12 -12 -25 -18 -30 -15 -6 4 -10 2 -10 -4 0 -13 -55 -42
-64 -34 -3 4 -6 1 -6 -5 0 -6 -13 -18 -30 -27 -16 -9 -30 -13 -30 -10 0 3 -9
-4 -20 -15 -12 -12 -25 -18 -30 -15 -6 4 -10 2 -10 -4 0 -13 -55 -42 -64 -34
-3 4 -6 1 -6 -5 0 -6 -13 -18 -30 -27 -16 -9 -30 -13 -30 -10 0 3 -9 -4 -20
-15 -12 -12 -25 -18 -30 -15 -6 4 -10 2 -10 -4 0 -13 -55 -42 -64 -34 -3 4 -6
2 -6 -4 0 -6 -30 -29 -67 -51 -38 -22 -77 -49 -89 -60 -44 -41 -147 -112 -164
-112 -10 0 -21 7 -24 16 -9 23 47 72 130 114 62 31 235 126 274 151 8 5 26 15
40 21 14 7 27 15 30 19 5 6 115 69 160 91 14 7 27 15 30 19 5 6 115 69 160 91
14 7 27 15 30 19 3 3 30 19 60 35 30 16 59 32 65 37 5 4 38 25 71 47 71 46
188 159 232 222 57 84 72 123 72 192 0 77 -24 143 -131 365 -79 165 -84 195
-36 216 48 21 72 18 105 -15z m-1981 -180 c89 -22 80 -65 -50 -260 -111 -166
-201 -274 -315 -376 -48 -44 -119 -108 -157 -144 -39 -36 -118 -108 -175 -160
-57 -52 -132 -121 -167 -153 -34 -32 -91 -84 -125 -116 -119 -110 -193 -178
-258 -238 -395 -366 -491 -443 -555 -443 -32 0 -45 13 -45 45 0 7 281 272 624
589 344 317 655 609 691 649 62 67 205 269 205 289 0 12 134 222 173 272 30
37 80 67 101 60 6 -1 30 -8 53 -14z m510 -1610 c61 -68 111 -92 200 -99 l72
-6 -54 -65 c-30 -35 -55 -70 -55 -77 0 -7 -4 -13 -10 -13 -5 0 -10 -7 -10 -15
0 -8 -4 -15 -10 -15 -6 0 -10 -64 -10 -173 0 -185 -3 -197 -50 -197 -48 0 -50
11 -50 216 0 161 -2 193 -15 198 -8 3 -15 15 -15 26 0 12 -9 41 -21 66 -31 69
-59 190 -58 253 l0 56 20 -52 c11 -29 41 -75 66 -103z m-2549 -343 c27 -62
114 -148 174 -173 27 -10 48 -22 48 -26 0 -3 -20 -18 -44 -32 -107 -63 -143
-111 -193 -265 -19 -58 -38 -110 -42 -114 -4 -4 -11 138 -14 316 -6 272 -5
332 8 381 22 84 29 89 36 21 3 -33 15 -81 27 -108z"/>
</g>
</svg>
