<?xml version="1.0" standalone="no"?>
<!DOCTYPE svg PUBLIC "-//W3C//DTD SVG 20010904//EN"
 "http://www.w3.org/TR/2001/REC-SVG-20010904/DTD/svg10.dtd">
<svg version="1.0" xmlns="http://www.w3.org/2000/svg"
 width="2048.000000pt" height="2048.000000pt" viewBox="0 0 2048.000000 2048.000000"
 preserveAspectRatio="xMidYMid meet">
<metadata>
Created by potrace 1.13, written by Peter Selinger 2001-2015
</metadata>
<g transform="translate(0.000000,2048.000000) scale(0.192120,-0.192120)"
fill="#000000" stroke="none">
<path d="M5065 10094 c-22 -2 -89 -9 -150 -14 -898 -88 -1643 -517 -2057
-1187 -257 -415 -368 -863 -338 -1375 5 -99 15 -219 21 -267 l11 -87 -50 -77
c-231 -354 -189 -969 84 -1240 63 -62 140 -106 202 -114 l39 -5 6 -187 c7
-200 24 -335 63 -501 245 -1043 1128 -1815 2193 -1920 1162 -114 2260 606
2619 1720 76 235 110 437 119 706 l6 182 39 5 c104 14 230 116 305 249 178
313 173 811 -12 1092 l-44 67 10 117 c5 64 10 232 11 372 1 276 -11 380 -66
578 -140 497 -480 975 -933 1311 -405 301 -856 481 -1393 556 -109 16 -586 29
-685 19z m640 -329 c967 -115 1781 -701 2063 -1485 74 -203 72 -186 72 -814 0
-479 -2 -566 -14 -566 -14 0 -59 63 -111 155 -154 274 -212 363 -281 432 -119
118 -164 133 -459 153 -483 33 -810 105 -1160 253 -179 76 -228 72 -325 -26
-23 -23 -70 -108 -84 -151 -4 -10 -12 -16 -20 -13 -7 3 -18 1 -23 -4 -5 -5
-52 27 -118 83 -126 105 -213 164 -261 177 -56 15 -94 -3 -190 -90 -122 -112
-123 -113 -176 -99 -93 26 -241 113 -468 279 -200 146 -271 184 -346 183 -105
-1 -238 -86 -409 -263 -217 -224 -280 -322 -495 -762 -44 -90 -65 -112 -81
-86 -5 8 -9 225 -9 482 0 517 0 514 67 722 270 832 1091 1378 2187 1455 162
11 481 4 641 -15z m-1777 -1808 c289 -231 522 -377 692 -433 76 -24 166 -24
208 1 64 38 95 143 74 253 -5 28 -7 52 -4 52 3 0 71 -64 151 -142 236 -231
425 -378 535 -420 58 -22 89 -17 112 18 35 53 -9 239 -106 442 -27 56 -46 102
-44 102 3 0 30 -20 61 -45 263 -215 802 -349 1532 -383 l145 -7 69 -115 c114
-189 180 -306 297 -526 61 -115 123 -222 138 -238 108 -115 202 -30 272 246
15 62 34 150 41 195 7 46 14 81 16 79 13 -12 33 -199 33 -303 0 -145 -14 -220
-77 -403 -73 -217 -103 -263 -240 -374 -140 -114 -223 -206 -223 -247 0 -11
-6 -22 -14 -25 -10 -4 -15 -51 -20 -207 -4 -112 -11 -227 -16 -257 -5 -30 -13
-86 -19 -123 -6 -38 -27 -110 -46 -160 -111 -287 -128 -337 -136 -392 -13 -96
-29 -132 -123 -284 -117 -190 -199 -275 -438 -459 -350 -270 -755 -437 -1193
-493 -119 -15 -425 -15 -550 0 -495 61 -928 256 -1332 601 -75 64 -235 254
-333 396 -60 86 -100 178 -100 229 0 19 -29 124 -65 232 -35 109 -73 232 -84
273 -34 123 -62 325 -68 488 -3 83 -10 152 -14 152 -5 0 -9 7 -9 15 0 35 -75
127 -207 257 -175 171 -200 214 -248 428 -8 36 -23 103 -35 150 -28 117 -36
276 -20 416 7 63 16 117 21 120 5 3 9 -4 9 -15 0 -42 72 -260 115 -347 68
-139 141 -203 200 -176 34 16 50 53 80 188 56 253 180 566 302 764 123 200
289 385 448 503 50 37 91 67 93 67 2 0 56 -42 120 -93z M4150 6711 c-86 -28
-141 -74 -181 -151 -23 -43 -24 -54 -24 -255 0 -237 7 -267 79 -337 53 -52
101 -72 182 -76 89 -5 156 21 213 83 72 78 76 94 76 325 0 204 0 205 -28 262
-46 93 -128 148 -232 154 -33 2 -71 0 -85 -5z m88 -413 c-3 -127 -5 -143 -20
-146 -17 -3 -18 9 -18 142 0 140 1 146 20 146 20 0 20 -5 18 -142z M6357 6706
c-101 -37 -167 -112 -188 -213 -17 -83 -8 -387 13 -435 25 -57 93 -123 150
-148 62 -27 171 -25 230 4 52 25 107 82 132 135 19 42 21 63 21 256 0 208 0
210 -27 260 -31 60 -67 95 -128 125 -56 28 -151 36 -203 16z m103 -406 c0
-120 -2 -142 -16 -147 -28 -10 -34 18 -34 155 l0 132 25 0 25 0 0 -140z M4983
5170 c-66 -40 -86 -103 -54 -174 16 -37 29 -51 63 -66 40 -18 67 -20 338 -20
271 0 298 2 338 20 77 35 103 138 51 204 -43 55 -52 56 -391 56 -293 0 -315
-1 -345 -20z M5823 4204 c-91 -45 -98 -176 -15 -239 38 -28 223 -35 276 -10
100 48 101 202 2 249 -47 22 -218 22 -263 0z M2706 4490 c-312 -39 -584 -197
-768 -444 -97 -131 -183 -332 -201 -473 l-5 -42 34 14 c55 23 139 82 181 128
21 23 74 95 116 160 91 138 163 214 267 284 157 105 272 145 479 167 77 8 153
22 169 30 20 10 42 39 68 90 21 41 36 77 33 81 -11 10 -301 14 -373 5z M7638
4493 c-32 -2 -58 -8 -58 -14 0 -13 38 -87 62 -122 31 -44 70 -57 215 -72 75
-8 171 -24 212 -35 115 -31 245 -100 336 -178 96 -82 146 -142 229 -277 81
-133 160 -208 260 -250 l34 -14 -5 42 c-18 142 -105 345 -202 474 -169 224
-401 371 -676 428 -80 16 -301 26 -407 18z M1498 3536 c-95 -26 -181 -114
-194 -198 -4 -21 -12 -38 -18 -38 -6 0 -180 28 -387 62 -344 57 -379 61 -418
49 -107 -31 -181 -174 -137 -260 19 -35 90 -101 147 -134 24 -14 307 -123 629
-242 322 -119 588 -220 592 -223 5 -6 -244 -2038 -268 -2185 l-6 -37 3892 0
3892 0 -6 32 c-3 18 -64 503 -136 1078 -72 575 -133 1060 -136 1077 -5 27 -2
34 17 43 13 5 280 104 594 220 313 116 589 222 614 237 58 34 128 99 148 137
19 36 13 100 -14 153 -25 48 -92 100 -140 109 -26 5 -149 -12 -408 -55 -203
-35 -374 -63 -379 -64 -4 -1 -14 19 -20 45 -26 99 -109 177 -211 198 -57 12
-112 5 -318 -41 -343 -77 -362 -79 -636 -79 -199 0 -270 -3 -316 -15 -158 -41
-280 -170 -314 -333 -6 -29 -11 -96 -11 -147 l0 -95 -140 0 -140 0 0 -1200 0
-1200 -32 20 c-47 28 -99 50 -130 57 -16 3 -28 9 -28 14 0 5 -761 9 -1760 9
-1167 0 -1760 -3 -1760 -10 0 -5 -7 -10 -16 -10 -14 0 -115 -51 -142 -73 -9
-7 -12 232 -12 1192 l0 1201 -139 0 -138 0 -5 128 c-4 96 -11 140 -27 182 -42
109 -140 208 -251 252 -51 20 -78 22 -365 29 l-310 6 -185 42 c-339 76 -407
86 -472 67z m166 -301 l210 -35 527 0 c293 0 538 -4 552 -9 l24 -9 -4 -199
c-2 -109 -3 -208 -3 -220 l0 -23 -513 0 c-325 0 -535 4 -573 11 -32 6 -88 26
-124 45 -36 19 -135 61 -221 94 -166 62 -256 106 -273 132 -7 12 -2 25 23 53
29 33 81 130 95 178 8 24 38 22 280 -18z m7633 -37 c15 -40 42 -87 66 -114 47
-53 45 -63 -23 -102 -45 -25 -286 -122 -305 -122 -6 0 -53 -22 -105 -49 -54
-28 -120 -54 -153 -60 -54 -10 -1084 -18 -1093 -8 -2 2 -4 14 -3 28 0 13 1
111 2 218 2 183 3 194 22 202 11 4 263 8 560 9 l540 1 190 34 c105 18 210 33
234 32 l43 -2 25 -67z m-6127 -470 c0 -5 7 -8 15 -8 8 0 15 -7 15 -15 0 -8 5
-15 10 -15 6 0 10 -24 10 -54 0 -63 -9 -69 -69 -54 l-41 10 0 107 0 106 30
-35 c16 -19 30 -38 30 -42z m4380 -32 l0 -104 -41 -10 c-60 -15 -69 -9 -69 54
0 30 5 54 10 54 6 0 10 7 10 15 0 8 7 15 15 15 8 0 15 3 15 8 0 7 51 72 57 72
2 0 3 -47 3 -104z m-4440 -1201 c0 -662 -4 -1055 -10 -1055 -14 0 -60 22 -60
29 0 4 -20 15 -45 26 -25 11 -45 23 -45 28 0 4 -9 7 -20 7 -11 0 -20 5 -20 10
0 7 -190 10 -549 10 -475 0 -550 2 -561 15 -7 8 -25 15 -41 15 l-29 0 0 145
c0 122 14 253 85 823 77 623 84 686 75 762 -9 77 -40 157 -70 175 -5 3 -19 19
-30 35 l-21 30 670 0 671 0 0 -1055z m5750 1009 c-52 -57 -78 -115 -86 -191
-4 -42 20 -262 85 -781 101 -804 110 -928 69 -963 -22 -17 -50 -18 -570 -19
-359 0 -548 -3 -548 -10 0 -5 -20 -10 -44 -10 -24 0 -46 -3 -48 -7 -4 -10
-144 -83 -158 -83 -7 0 -10 335 -10 1055 l0 1055 676 0 677 0 -43 -46z"/>
</g>
</svg>
