<?xml version="1.0" standalone="no"?>
<!DOCTYPE svg PUBLIC "-//W3C//DTD SVG 20010904//EN"
 "http://www.w3.org/TR/2001/REC-SVG-20010904/DTD/svg10.dtd">
<svg version="1.0" xmlns="http://www.w3.org/2000/svg"
 width="2048.000000pt" height="2048.000000pt" viewBox="0 0 2048.000000 2048.000000"
 preserveAspectRatio="xMidYMid meet">
<metadata>
Created by potrace 1.13, written by Peter Selinger 2001-2015
</metadata>
<g transform="translate(0.000000,2048.000000) scale(0.192120,-0.192120)"
fill="#000000" stroke="none">
<path d="M5340 10319 c-348 -34 -754 -145 -1011 -275 -47 -23 -48 -23 -155 -9
-639 85 -1301 -177 -1722 -680 -187 -223 -320 -482 -392 -761 -63 -243 -61
-169 -57 -2180 4 -1959 2 -1877 52 -2140 l15 -77 -48 -51 c-144 -153 -247
-355 -282 -553 -7 -40 -16 -73 -20 -73 -4 0 -39 7 -78 16 -57 13 -80 14 -125
4 -104 -21 -187 -99 -213 -198 -6 -26 -16 -46 -21 -45 -5 1 -173 29 -373 63
-258 43 -378 60 -408 55 -113 -17 -206 -170 -159 -261 20 -38 90 -103 148
-137 34 -20 914 -352 1177 -443 52 -19 53 -19 47 -54 -3 -19 -64 -505 -135
-1080 -72 -575 -133 -1060 -136 -1078 l-6 -32 3892 0 3892 0 -6 33 c-3 17 -64
502 -136 1077 -71 575 -133 1062 -136 1083 -4 24 -2 37 6 37 23 0 1177 432
1219 457 58 34 128 99 148 137 47 91 -46 244 -159 261 -31 5 -149 -12 -408
-55 -201 -34 -369 -63 -374 -63 -4 -1 -14 19 -20 45 -26 99 -109 177 -213 198
-45 10 -68 9 -125 -4 -39 -9 -74 -16 -78 -16 -4 0 -13 33 -20 72 -35 199 -138
401 -282 554 l-47 50 18 105 c46 254 46 257 46 1799 0 1610 3 1529 -61 1820
-159 722 -563 1353 -1150 1796 -419 316 -910 516 -1444 589 -139 19 -528 27
-660 14z m700 -278 c536 -82 1025 -302 1431 -643 114 -95 173 -153 288 -283
356 -401 565 -851 656 -1415 13 -82 15 -297 15 -1606 0 -1528 2 -1607 36
-1766 5 -26 3 -25 -118 36 -196 99 -360 134 -646 136 l-54 0 52 57 c28 32 67
90 85 128 46 93 100 276 130 442 l25 134 0 870 c0 502 -4 869 -9 869 -5 0 -12
12 -15 26 -9 36 -83 101 -135 119 -24 8 -91 19 -150 25 -58 5 -178 17 -266 25
-886 85 -1645 349 -2200 764 -265 198 -457 403 -657 701 -160 240 -215 300
-275 300 -30 0 -80 -45 -105 -94 -11 -22 -24 -43 -28 -46 -8 -6 -28 -70 -64
-205 -76 -282 -162 -476 -281 -633 -198 -263 -409 -402 -745 -492 -47 -13
-104 -31 -126 -41 -45 -19 -154 -116 -154 -136 0 -7 -5 -13 -10 -13 -7 0 -10
-336 -7 -1057 l3 -1058 26 -115 c63 -272 112 -392 204 -503 l56 -67 -69 0
c-124 0 -297 -20 -393 -45 -59 -16 -144 -49 -224 -89 l-128 -65 7 32 c4 18 12
59 17 92 8 41 13 697 17 2055 6 1867 8 1999 24 2055 71 241 135 373 297 609
34 50 93 116 99 111 4 -2 30 19 57 46 178 184 446 338 729 421 197 57 245 62
570 63 334 2 316 -1 524 80 239 93 498 159 721 184 52 6 109 13 125 15 17 2
143 3 280 1 189 -3 283 -8 385 -24z m-1796 -1157 c42 -133 187 -382 321 -549
597 -748 1592 -1198 2895 -1310 96 -8 219 -15 273 -15 l98 0 -4 -827 c-4 -916
-2 -895 -73 -1180 -105 -428 -311 -801 -619 -1121 -423 -441 -947 -696 -1565
-763 -134 -15 -481 -6 -615 16 -557 88 -1040 341 -1431 748 -320 333 -538 740
-639 1196 -49 222 -48 218 -52 1249 l-4 972 32 0 c17 0 84 12 147 26 582 130
979 536 1142 1168 34 130 60 298 60 385 0 33 4 61 8 61 5 0 16 -25 26 -56z
m-1292 -4526 c19 -15 55 -57 80 -95 25 -37 81 -122 124 -187 83 -126 264 -330
395 -447 403 -357 878 -579 1404 -656 152 -22 572 -25 715 -5 485 69 926 254
1295 546 132 105 393 367 477 481 37 49 93 132 125 184 88 143 124 185 170
199 107 32 372 1 507 -60 63 -28 125 -79 126 -102 0 -22 49 -110 128 -231 128
-196 154 -247 159 -320 3 -34 1 -70 -5 -81 -19 -35 -164 -55 -478 -64 -310 -8
-344 -14 -466 -83 -80 -45 -192 -161 -241 -249 -31 -56 -37 -76 -37 -126 0
-67 19 -129 55 -184 14 -21 25 -40 25 -43 0 -3 -53 -5 -117 -5 l-118 0 3
-1047 c2 -577 1 -1116 -3 -1199 l-7 -151 -68 33 c-38 19 -78 34 -89 34 -12 0
-21 5 -21 10 0 7 -597 10 -1770 10 -1173 0 -1770 -3 -1770 -10 0 -5 -8 -10
-17 -10 -9 0 -44 -15 -79 -34 l-62 -35 -7 152 c-4 84 -5 623 -3 1200 l3 1047
-117 0 c-65 0 -118 2 -118 5 0 2 13 26 28 52 81 138 66 244 -57 397 -141 176
-279 236 -542 236 -180 1 -452 16 -499 29 -19 5 -47 12 -62 15 -27 6 -28 8
-28 74 0 84 17 121 136 302 49 74 96 149 104 165 8 17 22 42 32 57 10 14 18
33 18 41 0 52 122 126 260 156 52 11 104 23 115 25 11 3 75 4 141 2 114 -2
124 -3 156 -28z m-898 -904 c165 -33 173 -34 425 -34 278 0 324 -6 407 -55 64
-37 108 -78 143 -134 17 -26 31 -51 31 -54 0 -4 -24 11 -52 33 -102 78 -129
82 -588 91 -418 9 -560 18 -608 41 -24 12 -27 19 -26 58 1 25 6 58 13 73 13
32 -9 34 255 -19z m6813 0 c22 -62 14 -96 -27 -116 -46 -21 -150 -28 -615 -38
-316 -6 -389 -11 -435 -25 -73 -23 -129 -51 -162 -83 -38 -35 -35 -17 7 45 43
63 104 114 181 150 l59 28 305 5 c292 6 311 7 450 37 149 32 198 41 214 38 5
0 16 -19 23 -41z m-7197 -220 l215 -35 531 1 c515 2 533 1 571 -19 51 -26 99
-80 112 -128 7 -26 11 -459 11 -1330 0 -1286 0 -1291 -20 -1286 -11 3 -20 8
-20 12 0 4 -25 18 -55 32 -30 13 -55 27 -55 32 0 4 -9 7 -20 7 -11 0 -20 5
-20 10 0 7 -193 10 -559 10 -484 0 -560 2 -571 15 -7 8 -25 15 -41 15 l-29 0
0 146 c0 122 13 253 85 827 47 375 90 705 96 734 5 28 19 61 30 74 10 12 19
26 19 30 0 4 217 9 482 11 374 2 482 6 486 16 2 6 10 12 18 12 22 0 134 101
134 121 0 5 -246 9 -612 9 -337 0 -637 3 -665 6 -53 7 -53 7 -53 43 -1 54 -33
116 -79 149 -22 16 -120 59 -218 97 -254 97 -589 229 -648 257 -58 27 -111 65
-102 74 11 11 112 5 252 -16 216 -32 307 -27 341 18 8 9 23 37 34 61 l21 44
57 -7 c31 -4 154 -22 272 -42z m7674 -1 c39 -77 56 -87 150 -91 51 -3 134 4
217 17 74 11 164 22 202 24 57 3 67 1 67 -13 0 -29 -182 -108 -683 -296 -228
-86 -310 -126 -336 -163 -23 -33 -41 -86 -41 -121 0 -25 -4 -28 -52 -34 -29
-3 -329 -6 -666 -6 l-613 0 12 -22 c7 -13 23 -31 36 -41 13 -10 30 -25 37 -33
8 -8 19 -14 25 -14 6 0 11 -4 11 -10 0 -5 20 -10 44 -10 27 0 46 -5 48 -12 4
-10 109 -14 464 -18 l458 -5 22 -39 c27 -48 25 -32 129 -865 95 -760 104 -887
63 -922 -22 -17 -50 -18 -580 -19 -365 0 -558 -3 -558 -10 0 -5 -20 -10 -45
-10 -25 0 -45 -3 -45 -7 0 -5 -21 -17 -48 -27 -26 -10 -54 -24 -62 -31 -8 -7
-23 -15 -32 -18 -17 -6 -18 59 -18 1286 0 871 4 1304 11 1330 13 48 61 102
112 129 39 20 54 20 573 19 l532 -2 213 35 c118 19 225 37 239 39 78 13 88 10
114 -40z M4150 6711 c-86 -28 -141 -74 -181 -151 -23 -43 -24 -54 -24 -255 0
-237 7 -267 79 -337 53 -52 101 -72 182 -76 90 -5 156 21 215 85 71 77 74 91
74 323 0 204 0 205 -28 262 -46 93 -128 148 -232 154 -33 2 -71 0 -85 -5z
M6357 6706 c-101 -37 -167 -112 -188 -213 -17 -83 -8 -387 13 -435 25 -57 93
-123 150 -148 41 -18 65 -21 122 -18 113 6 195 59 240 157 19 42 21 63 21 256
0 208 0 210 -27 260 -31 60 -67 95 -128 125 -56 28 -151 36 -203 16z M4983
5170 c-66 -40 -86 -103 -54 -174 16 -37 29 -51 63 -66 40 -18 67 -20 338 -20
271 0 298 2 338 20 77 35 103 138 51 204 -43 55 -52 56 -391 56 -293 0 -315
-1 -345 -20z M5823 4204 c-91 -45 -98 -176 -15 -239 38 -28 223 -35 276 -10
100 48 101 202 2 249 -47 22 -218 22 -263 0z"/>
</g>
</svg>
