<?xml version="1.0" standalone="no"?>
<!DOCTYPE svg PUBLIC "-//W3C//DTD SVG 20010904//EN"
 "http://www.w3.org/TR/2001/REC-SVG-20010904/DTD/svg10.dtd">
<svg version="1.0" xmlns="http://www.w3.org/2000/svg"
 width="2048.000000pt" height="2048.000000pt" viewBox="0 0 2048.000000 2048.000000"
 preserveAspectRatio="xMidYMid meet">
<metadata>
Created by potrace 1.13, written by Peter Selinger 2001-2015
</metadata>
<g transform="translate(0.000000,2048.000000) scale(0.192120,-0.192120)"
fill="#000000" stroke="none">
<path d="M7202 9979 c-286 -34 -713 -299 -813 -505 -31 -63 -34 -77 -34 -159
0 -104 20 -154 80 -202 23 -19 35 -36 35 -53 0 -14 9 -63 20 -110 66 -278 187
-518 330 -654 121 -116 238 -139 379 -78 41 18 75 31 76 30 8 -9 95 -157 95
-161 0 -3 -28 -20 -62 -37 -128 -65 -210 -142 -303 -285 -133 -203 -248 -507
-379 -999 -25 -93 -47 -170 -48 -171 -2 -1 -46 -33 -98 -71 -52 -38 -176 -136
-275 -219 -339 -283 -448 -365 -553 -412 -85 -39 -182 -36 -334 10 -158 48
-194 53 -264 32 -49 -14 -69 -28 -129 -88 -85 -85 -115 -142 -115 -216 0 -97
68 -183 194 -245 107 -53 217 -77 386 -83 160 -6 207 2 390 69 178 65 493 212
666 312 60 35 61 35 57 12 -10 -51 50 -112 164 -170 76 -38 156 -56 248 -56
155 0 255 42 379 158 187 177 507 409 710 515 49 26 120 68 158 94 91 60 80
67 -101 61 -133 -5 -230 -24 -325 -63 -53 -23 -59 -7 -25 65 52 111 79 279 49
315 -9 10 -13 36 -11 71 1 29 -5 79 -14 109 -37 129 -184 212 -284 160 -17 -8
-60 -43 -97 -77 -68 -64 -79 -83 -217 -378 -18 -39 -105 -168 -165 -245 -66
-84 -112 -174 -112 -215 0 -18 9 -41 23 -55 l22 -24 74 56 c218 165 326 334
472 738 17 47 38 89 46 92 10 4 51 -30 118 -97 l103 -103 -29 -41 c-16 -23
-68 -95 -115 -161 -102 -142 -209 -270 -273 -327 -92 -82 -140 -106 -291 -149
-115 -32 -160 -51 -220 -88 -41 -27 -110 -67 -154 -91 l-78 -43 -33 36 c-60
66 -119 62 -304 -17 -69 -29 -180 -75 -246 -100 -66 -26 -133 -52 -150 -59
-16 -6 -34 -12 -40 -14 -5 -1 -57 -16 -115 -33 -177 -53 -408 -53 -530 1 -98
43 -120 99 -50 126 22 9 40 22 40 30 0 7 6 13 13 14 45 4 103 -6 177 -29 70
-22 104 -27 190 -27 103 0 107 1 192 42 149 71 274 162 683 492 99 80 209 175
244 211 112 115 132 155 205 425 50 182 145 462 196 574 67 148 146 274 233
373 87 99 117 159 117 234 l0 47 40 -6 c107 -14 274 -131 385 -270 78 -96 156
-249 187 -362 18 -67 21 -107 21 -240 0 -139 -3 -172 -25 -255 -32 -118 -76
-214 -138 -296 -56 -73 -61 -63 70 -129 160 -80 364 -229 501 -365 101 -101
229 -256 229 -278 0 -7 -145 -288 -321 -625 -354 -674 -392 -745 -499 -927
-91 -156 -210 -400 -246 -505 -22 -63 -28 -98 -28 -165 1 -94 8 -135 94 -550
126 -610 178 -998 181 -1360 1 -118 10 -225 21 -235 11 -12 87 35 112 68 l26
34 0 274 c0 374 -30 608 -160 1239 l-61 295 3 200 3 200 88 180 c98 202 108
240 100 382 -3 51 -3 93 0 93 14 0 741 -464 779 -497 9 -8 21 -13 27 -12 5 2
99 90 209 196 l199 192 124 -69 c68 -38 124 -74 124 -80 0 -6 -45 -35 -100
-63 -92 -48 -105 -59 -166 -135 -89 -112 -149 -226 -149 -284 0 -80 79 -202
195 -304 236 -205 308 -311 410 -604 53 -153 66 -179 114 -232 33 -37 109 -88
130 -88 19 0 12 120 -13 232 -70 307 -205 573 -383 754 -79 80 -208 174 -270
196 -18 7 -33 16 -33 20 0 5 17 32 38 61 86 116 180 290 483 887 258 510 334
651 412 767 105 156 176 293 202 393 38 146 0 398 -89 586 -63 132 -120 209
-256 344 -126 126 -203 222 -461 578 -377 517 -537 689 -811 869 -185 121
-358 188 -517 197 -46 3 -77 10 -82 18 -5 7 -29 59 -55 115 l-47 101 20 29
c11 15 32 61 47 101 75 210 75 512 0 724 -74 207 -193 338 -398 438 -149 73
-290 98 -444 79z m298 -287 c140 -46 258 -141 313 -251 l32 -65 3 -250 c3
-272 -2 -308 -53 -356 -45 -42 -135 -4 -135 59 0 16 -7 34 -15 41 -12 10 -15
36 -15 119 0 100 -2 111 -34 177 -22 47 -50 84 -84 115 -73 66 -114 84 -192
83 -68 -1 -101 -13 -190 -73 -25 -17 -54 -31 -65 -31 -11 0 -51 30 -90 68 -78
75 -157 131 -197 139 -34 7 -43 31 -21 56 49 54 262 154 388 183 89 20 273 13
355 -14z m-551 -574 c136 -206 149 -219 185 -179 13 14 19 42 22 102 4 92 16
117 74 156 95 65 215 20 271 -102 23 -49 24 -87 4 -151 -41 -135 11 -276 124
-338 58 -31 147 -44 241 -35 36 4 66 6 67 5 1 -1 -4 -20 -12 -41 -8 -22 -14
-63 -15 -92 0 -48 3 -55 44 -96 77 -77 164 -105 382 -127 62 -6 133 -9 158 -6
46 6 46 5 46 -25 0 -88 -185 -146 -380 -119 -47 6 -164 29 -260 50 -96 22
-214 44 -262 51 l-87 12 -81 -42 -81 -43 6 69 c8 81 -5 140 -41 183 -45 53
-70 60 -209 60 -145 0 -173 9 -241 82 -77 82 -127 174 -206 382 -56 149 -72
174 -133 213 -25 15 -45 35 -45 44 0 22 75 106 120 134 20 13 56 30 81 39 86
30 84 32 228 -186z m1737 -1258 c78 -52 260 -220 321 -295 66 -80 210 -272
361 -480 172 -235 310 -409 421 -529 118 -127 176 -204 215 -286 l31 -65 3
-208 c4 -247 9 -229 -119 -438 -49 -80 -108 -186 -131 -235 l-42 -89 -4 -142
-4 -142 -115 -131 c-63 -72 -188 -206 -277 -297 l-163 -167 -44 17 c-87 33
-137 18 -267 -80 -104 -79 -128 -80 -257 -13 -157 83 -295 176 -338 227 -59
72 -75 30 248 643 273 519 315 614 315 717 0 104 -98 268 -261 437 -94 99
-204 180 -338 249 -55 29 -110 60 -121 69 -28 24 -26 86 5 178 45 132 55 206
55 402 0 213 -14 288 -80 439 -72 163 -84 199 -73 210 7 7 37 7 93 -2 113 -16
246 -7 340 24 113 38 155 35 226 -13z m-1733 -2100 c4 0 7 -8 7 -19 0 -14 -10
-20 -41 -24 -23 -3 -49 -2 -58 3 -9 5 -24 11 -33 14 -53 16 23 48 82 34 19 -4
38 -8 43 -8z M3108 9760 c-199 -36 -379 -137 -489 -274 -189 -234 -238 -616
-124 -975 l24 -76 -59 -128 c-33 -71 -60 -132 -60 -137 0 -14 -30 -26 -79 -34
-79 -12 -373 -87 -439 -112 -298 -112 -519 -389 -587 -734 -24 -123 -40 -175
-112 -365 -122 -316 -225 -546 -300 -662 -204 -319 -367 -973 -308 -1239 38
-174 164 -436 372 -775 154 -251 182 -303 233 -424 54 -131 80 -227 80 -296 0
-51 -9 -74 -104 -265 -116 -232 -167 -350 -220 -501 -49 -141 -63 -222 -75
-413 -12 -201 -19 -696 -9 -705 7 -8 77 31 114 63 12 10 27 36 34 57 7 22 16
48 21 57 5 10 9 93 9 185 0 210 16 444 36 542 29 142 81 276 205 536 34 72 82
180 106 240 l44 110 -3 130 c-3 119 -6 135 -32 192 -32 70 -85 124 -164 169
-29 16 -52 32 -52 37 0 13 119 86 215 132 123 59 268 116 464 182 91 30 170
59 174 63 19 17 -122 79 -197 87 -43 4 -76 -3 -219 -51 -92 -31 -200 -69 -240
-85 -124 -49 -130 -49 -179 1 -74 75 -302 487 -354 641 -22 66 -24 85 -24 280
0 188 3 221 26 324 45 203 121 405 213 572 48 86 101 160 116 161 22 0 43 -58
54 -150 21 -159 49 -223 140 -322 78 -84 188 -157 424 -281 105 -56 187 -105
187 -112 0 -8 9 -19 20 -25 12 -6 20 -21 20 -35 0 -14 3 -25 8 -25 4 0 15 -17
24 -37 44 -100 184 -236 370 -359 192 -127 193 -128 148 -254 -23 -66 -30
-102 -30 -162 0 -43 -4 -78 -8 -78 -11 0 -278 153 -484 276 -86 52 -158 94
-161 94 -3 0 20 -64 52 -142 32 -79 85 -212 117 -297 68 -177 50 -161 254
-227 63 -20 200 -71 303 -113 168 -68 188 -78 183 -96 -3 -11 -28 -85 -55
-165 -59 -174 -86 -308 -106 -524 -31 -342 -46 -766 -27 -766 21 0 113 74 133
107 37 58 47 113 59 298 24 395 41 534 92 729 55 215 65 276 57 323 -16 83
-110 187 -199 218 -57 20 -108 19 -209 -5 -46 -11 -86 -19 -88 -17 -20 21 180
395 294 545 82 110 131 156 149 141 8 -6 14 -16 14 -21 0 -20 63 -134 88 -161
15 -16 83 -67 151 -115 168 -117 221 -167 259 -245 28 -57 32 -74 32 -151 0
-67 -4 -94 -20 -123 -11 -21 -20 -43 -20 -50 0 -6 -35 -83 -79 -170 -90 -182
-109 -228 -203 -493 -104 -294 -148 -464 -148 -569 1 -99 12 -119 97 -169 l49
-29 18 101 c50 273 242 839 367 1081 29 55 67 129 85 165 49 94 68 179 61 270
-6 76 -34 175 -67 240 -65 126 -258 271 -755 568 -148 88 -328 200 -400 249
-157 107 -179 138 -179 244 l1 67 -125 58 c-270 126 -610 322 -671 388 -23 24
-26 44 -58 358 -18 183 -39 410 -47 504 -9 116 -19 181 -30 203 -9 17 -14 36
-11 41 3 5 30 23 60 40 67 39 86 69 128 208 41 133 119 278 194 362 62 68 176
147 308 213 89 44 115 66 169 140 15 20 31 37 37 37 5 0 30 -19 55 -42 86 -79
144 -247 144 -415 0 -148 -45 -275 -142 -396 -50 -64 -51 -67 -103 -273 -29
-115 -73 -279 -99 -366 -25 -86 -46 -176 -46 -201 0 -58 30 -95 106 -131 64
-31 82 -43 253 -180 l123 -99 56 64 c57 65 148 160 398 419 93 96 187 208 276
328 l136 183 -37 71 c-34 67 -36 76 -36 167 0 71 6 118 24 181 33 120 27 235
-22 382 -55 163 -128 298 -162 298 -8 0 -30 -30 -49 -67 l-33 -68 19 -55 c23
-64 27 -155 8 -190 -38 -75 -117 -119 -189 -105 -92 17 -160 81 -247 230 -107
186 -179 282 -243 323 -22 15 -21 16 55 34 127 30 174 75 174 165 0 26 -7 61
-15 76 -14 27 -13 30 21 64 58 57 68 91 68 233 1 140 12 172 83 250 88 98 155
16 157 -192 1 -77 5 -101 18 -115 36 -36 62 -6 155 180 l86 174 44 -27 c112
-72 294 -79 478 -20 126 40 214 49 250 26 14 -9 25 -23 25 -30 0 -8 -21 -33
-47 -56 -74 -66 -99 -106 -158 -256 -63 -160 -114 -242 -225 -362 -87 -94
-130 -169 -133 -230 l-1 -41 -54 -3 -53 -3 26 -35 c89 -119 151 -306 190 -580
23 -158 122 -704 140 -765 27 -95 131 -222 218 -267 57 -29 135 -28 277 5 64
14 144 29 178 32 54 6 62 5 62 -10 0 -11 -5 -15 -15 -11 -8 3 -15 1 -15 -4 0
-6 -7 -10 -15 -10 -8 0 -15 -4 -15 -8 0 -5 -6 -9 -12 -10 -7 0 -71 -19 -143
-42 -71 -23 -138 -43 -148 -45 -9 -2 -22 -7 -27 -10 -30 -18 -233 -65 -284
-65 -58 0 -61 1 -106 48 -25 26 -66 82 -90 125 -25 43 -71 118 -102 166 -48
74 -65 93 -105 112 -53 25 -163 39 -163 20 0 -32 207 -414 306 -562 75 -115
122 -159 166 -159 132 0 791 185 1018 286 123 54 257 96 432 134 223 49 293
85 341 173 19 36 22 57 22 157 0 109 -2 118 -29 168 -100 181 -338 236 -512
120 -30 -21 -78 -71 -125 -133 -41 -55 -89 -109 -106 -121 -21 -14 -67 -25
-151 -37 -176 -25 -363 -64 -465 -98 -104 -35 -133 -33 -176 16 -38 44 -40 50
-112 430 -129 688 -170 825 -278 943 -23 25 -35 45 -28 47 7 2 30 9 53 14 99
26 218 134 299 273 68 115 139 313 167 460 7 36 15 65 19 63 3 -3 20 26 37 63
103 223 77 465 -64 606 -104 104 -317 225 -479 272 -99 28 -297 41 -387 24z
m365 -284 c138 -41 292 -127 351 -196 20 -24 26 -42 26 -79 0 -26 -6 -54 -12
-63 -8 -9 -68 -29 -143 -47 -150 -36 -258 -40 -394 -16 -97 17 -120 13 -210
-41 -67 -41 -77 -41 -125 -9 -61 41 -113 65 -143 65 -15 0 -51 -11 -80 -24
-59 -28 -63 -25 -63 51 0 127 141 285 310 347 145 53 326 58 483 12z m-817
-2026 c133 -110 273 -130 385 -54 28 18 55 31 60 28 5 -3 9 -117 9 -255 l0
-250 -314 -314 c-173 -172 -324 -318 -335 -324 -11 -6 -30 -11 -43 -11 -27 0
-137 62 -179 102 -43 39 -39 90 26 330 78 292 87 317 148 426 53 91 109 222
138 320 16 55 41 55 105 2z m2538 -729 c17 -14 23 -95 8 -117 -14 -22 -75 -45
-196 -74 -137 -33 -196 -38 -196 -17 0 16 111 145 150 175 57 44 83 52 151 49
37 -1 74 -9 83 -16z M2470 5904 c-24 -70 9 -146 98 -226 105 -94 215 -145 377
-173 109 -19 171 -46 226 -97 20 -18 53 -47 73 -64 64 -55 39 -94 -71 -109
-91 -12 -176 26 -300 135 -66 58 -140 105 -223 141 -160 69 -282 89 -322 52
-28 -25 -52 -73 -41 -84 4 -4 78 -40 163 -79 217 -98 204 -91 325 -197 120
-105 206 -165 263 -184 81 -27 309 11 415 69 75 40 107 83 107 141 0 41 -7 60
-48 122 -27 41 -85 108 -129 150 -132 126 -261 186 -413 193 -110 4 -163 28
-340 147 -69 47 -130 88 -137 92 -7 5 -16 -6 -23 -29z M2082 4090 c-53 -33
-59 -60 -66 -325 l-6 -239 -35 -74 c-19 -41 -99 -170 -177 -286 -148 -221
-282 -466 -361 -661 -125 -307 -187 -529 -187 -668 l0 -89 55 -54 c31 -30 60
-54 65 -54 44 0 -54 -99 -134 -136 -137 -62 -209 -45 -410 101 -100 72 -161
34 -196 -120 -17 -78 -31 -294 -24 -383 l7 -82 81 -44 c246 -134 638 -291 891
-356 200 -51 432 -65 582 -34 234 48 238 151 16 365 -68 65 -666 588 -767 670
-18 15 -19 21 -7 110 48 362 276 947 477 1224 166 228 288 437 333 572 37 111
28 223 -40 471 -34 123 -39 127 -97 92z m-1141 -2796 c99 -35 214 -37 315 -6
93 29 121 28 175 -7 44 -28 337 -277 417 -354 84 -81 40 -107 -132 -77 -224
39 -498 137 -798 286 l-58 28 0 78 c0 43 1 78 3 78 2 0 37 -12 78 -26z M8592
3808 c-39 -53 -149 -215 -169 -252 -8 -15 -22 -20 -59 -20 -69 -1 -139 -55
-186 -143 -14 -25 -18 -57 -18 -136 l0 -104 50 -94 c97 -183 130 -255 145
-313 18 -73 35 -202 35 -273 0 -29 5 -53 10 -53 6 0 10 -11 10 -25 0 -47 56
-85 124 -85 31 0 34 3 40 38 9 58 7 208 -5 307 -23 188 -72 320 -158 423 -67
81 -81 111 -81 179 0 59 10 107 37 180 l15 41 197 -161 c341 -279 509 -435
639 -592 36 -44 69 -84 74 -89 9 -12 45 19 64 56 67 130 -120 353 -659 787
-117 95 -117 95 -117 138 0 28 10 62 27 94 23 45 44 149 30 149 -2 0 -23 -24
-45 -52z M8935 2402 l-370 -187 -12 -105 c-7 -58 -19 -136 -27 -175 -8 -38
-12 -72 -9 -75 8 -9 1007 -11 1208 -3 l189 8 14 45 c44 148 65 269 66 377 1
98 -1 115 -20 140 -16 21 -31 29 -62 31 -38 3 -43 0 -67 -38 -40 -64 -77 -82
-160 -78 -120 6 -263 89 -333 195 -19 29 -38 53 -41 52 -3 0 -172 -84 -376
-187z m405 -184 c79 -54 64 -81 -48 -86 -176 -7 -216 43 -74 94 54 19 85 17
122 -8z M3115 2493 c-5 -10 -8 -21 -7 -25 2 -11 -80 -65 -140 -93 -108 -50
-231 -39 -337 31 -71 47 -114 54 -146 24 -40 -37 -50 -84 -50 -225 0 -126 21
-342 35 -350 28 -18 981 -146 1275 -172 206 -18 282 -14 333 17 65 40 25 124
-112 242 -77 66 -794 556 -827 565 -9 3 -20 -3 -24 -14z m125 -367 c75 -44
121 -85 119 -109 0 -9 -2 -9 -6 1 -4 10 -8 10 -19 1 -7 -6 -35 -11 -61 -10
-57 0 -248 28 -283 40 -14 5 -37 12 -52 15 -44 10 -36 41 15 60 103 39 125 45
167 45 36 1 60 -8 120 -43z M8377 1815 c-59 -30 -87 -94 -87 -195 0 -63 24
-111 83 -168 l45 -44 25 109 c29 123 57 266 57 294 0 16 -8 19 -47 19 -27 0
-61 -7 -76 -15z M7379 1257 c-229 -133 -440 -258 -470 -277 -96 -62 -169 -130
-192 -176 l-22 -45 20 -37 c39 -72 192 -138 390 -169 285 -44 823 30 1297 177
76 23 71 15 102 175 48 250 45 400 -9 459 -35 38 -77 34 -175 -16 -144 -73
-272 -63 -395 30 -27 20 -63 56 -80 79 -16 23 -34 42 -40 41 -5 0 -197 -109
-426 -241z m549 -123 c104 -44 179 -58 265 -50 l67 6 0 -42 c0 -60 -29 -104
-77 -117 -371 -98 -627 -138 -835 -129 -152 7 -176 19 -125 65 40 37 486 286
535 299 55 15 61 13 170 -32z"/>
</g>
</svg>
