<?xml version="1.0" standalone="no"?>
<!DOCTYPE svg PUBLIC "-//W3C//DTD SVG 20010904//EN"
 "http://www.w3.org/TR/2001/REC-SVG-20010904/DTD/svg10.dtd">
<svg version="1.0" xmlns="http://www.w3.org/2000/svg"
 width="2048.000000pt" height="2048.000000pt" viewBox="0 0 2048.000000 2048.000000"
 preserveAspectRatio="xMidYMid meet">
<metadata>
Created by potrace 1.13, written by Peter Selinger 2001-2015
</metadata>
<g transform="translate(0.000000,2048.000000) scale(0.192120,-0.192120)"
fill="#000000" stroke="none">
<path d="M6455 10323 c-309 -43 -597 -247 -735 -523 -156 -312 -140 -674 43
-952 l50 -77 36 19 c86 43 96 100 45 255 -29 89 -29 93 -29 315 l0 225 33 67
c18 37 51 90 72 117 22 28 40 54 40 59 0 14 81 86 141 126 197 130 513 155
734 57 25 -11 45 -26 45 -33 0 -8 34 -36 76 -63 97 -64 179 -152 224 -240 l35
-69 3 -225 c3 -254 -1 -277 -68 -392 -77 -130 -169 -213 -350 -314 -160 -89
-219 -156 -220 -249 l0 -39 -117 6 c-227 10 -419 95 -613 274 -167 153 -165
152 -292 174 -163 29 -533 36 -730 15 -330 -35 -585 -107 -848 -237 -203 -101
-342 -199 -499 -352 -286 -280 -468 -631 -526 -1012 -29 -193 -17 -546 25
-755 l19 -94 -45 -46 c-65 -64 -130 -200 -155 -325 -27 -131 -22 -339 11 -455
49 -173 147 -310 258 -361 46 -21 53 -28 57 -59 76 -497 264 -938 552 -1296
105 -129 285 -302 401 -384 l92 -65 0 -292 0 -293 -690 0 c-580 0 -698 2 -747
15 -44 12 -120 15 -333 15 l-275 0 -285 61 c-157 33 -310 60 -341 61 -125 1
-242 -95 -264 -214 -4 -21 -12 -35 -18 -32 -7 2 -174 31 -371 64 -245 42 -371
59 -397 55 -48 -8 -109 -52 -138 -98 -30 -48 -38 -125 -18 -163 20 -38 90
-103 148 -137 25 -15 333 -123 686 -242 l642 -215 91 0 90 0 -2 -835 -3 -835
3335 0 3336 0 -1 1355 0 1355 97 0 98 0 627 210 c346 115 652 222 682 237 29
15 78 49 107 76 l54 49 0 90 0 91 -43 42 c-77 78 -79 78 -476 10 -456 -78
-408 -74 -416 -33 -17 78 -87 164 -159 193 -74 31 -101 28 -401 -36 l-290 -63
-325 -5 -325 -6 -66 -31 c-127 -61 -216 -170 -243 -297 -18 -87 -41 -589 -31
-676 l7 -61 -701 0 -701 0 0 259 c0 142 3 272 6 288 4 21 19 37 52 58 83 52
235 180 322 271 341 354 573 811 666 1314 34 182 34 182 69 193 117 38 222
184 276 382 32 115 32 364 1 480 -28 102 -80 209 -131 267 l-40 45 16 114 c11
80 16 198 17 399 1 264 -1 293 -22 388 -87 390 -316 761 -634 1027 -89 75 -92
85 -29 85 57 0 189 41 286 89 238 118 417 329 498 586 156 498 -123 1037 -624
1205 -124 42 -308 60 -434 43z m-875 -1768 c96 -7 194 -20 217 -28 23 -8 72
-36 110 -63 166 -119 305 -186 468 -224 153 -36 171 -48 354 -255 208 -234
296 -374 368 -586 l28 -84 3 -341 c2 -229 -1 -350 -8 -369 l-11 -29 -28 30
c-16 16 -57 81 -91 144 -64 119 -100 164 -183 231 -65 52 -118 65 -337 84
-335 28 -554 73 -825 169 -157 55 -202 58 -266 18 -24 -16 -61 -48 -82 -72
-52 -60 -85 -58 -175 10 -79 59 -175 110 -209 110 -31 0 -70 -21 -145 -75 -32
-25 -74 -47 -92 -50 -58 -11 -166 44 -384 197 -246 173 -311 180 -481 52 -121
-91 -283 -288 -381 -464 -29 -52 -63 -113 -76 -135 -34 -62 -58 -85 -75 -75
-11 8 -15 54 -17 257 -3 272 2 328 49 467 70 210 171 369 349 547 255 256 573
418 979 499 294 58 522 67 941 35z m-1458 -1296 c230 -184 447 -310 571 -332
56 -9 68 -8 103 9 59 29 76 71 71 167 l-5 78 118 -115 c143 -138 310 -273 382
-309 57 -29 106 -35 126 -15 33 33 4 166 -74 340 -23 54 -40 98 -37 98 3 0 25
-18 50 -39 179 -159 617 -269 1176 -297 l138 -7 184 -366 c101 -201 197 -380
213 -398 82 -88 157 -26 215 176 l24 84 13 -97 c13 -99 9 -221 -10 -286 -6
-19 -10 -60 -10 -90 0 -128 -50 -288 -113 -362 -12 -14 -42 -50 -67 -79 -110
-128 -151 -206 -185 -349 -40 -164 -223 -658 -298 -799 -89 -170 -226 -327
-456 -521 -120 -103 -192 -184 -233 -264 -17 -33 -20 -52 -15 -107 l6 -67 -72
-35 c-233 -114 -561 -179 -817 -162 -235 15 -484 79 -662 169 l-82 41 3 70 c2
59 -2 78 -24 120 -41 77 -99 141 -236 262 -158 139 -302 311 -384 458 -141
251 -173 319 -233 506 -38 118 -83 288 -98 374 -13 78 -59 152 -183 298 -108
126 -120 150 -155 307 -27 122 -32 651 -6 623 5 -4 20 -37 34 -73 35 -86 89
-163 130 -185 32 -17 36 -18 60 -2 26 18 31 30 67 182 91 386 282 731 543 983
58 56 108 102 111 102 2 0 55 -41 117 -91z m5189 -3536 c24 -66 53 -115 85
-146 49 -46 42 -65 -36 -105 -78 -39 -356 -130 -538 -175 -90 -23 -143 -42
-173 -63 -46 -32 -112 -110 -137 -161 l-16 -33 -374 0 -374 0 7 28 c16 63 25
147 35 317 5 99 12 189 14 200 3 11 7 36 11 56 l5 36 538 6 537 6 160 30 c88
16 179 29 203 30 38 1 44 -2 53 -26z m-4808 -582 c192 -130 392 -181 702 -181
315 0 519 55 726 196 43 29 79 49 79 43 0 -6 -12 -56 -26 -112 -19 -76 -25
-118 -21 -163 5 -65 20 -89 105 -167 19 -19 31 -39 30 -50 -5 -31 41 -57 128
-72 96 -17 864 -22 864 -5 0 6 10 10 23 10 12 0 53 18 90 39 l67 40 0 -1140 0
-1139 -40 25 c-22 14 -46 25 -54 25 -8 0 -22 8 -32 18 -16 16 -73 17 -851 20
-531 2 -833 6 -833 12 0 7 -327 10 -910 10 -514 0 -910 -4 -910 -9 0 -5 -25
-11 -56 -13 -31 -3 -59 -9 -62 -15 -4 -6 -18 -14 -32 -18 -14 -4 -42 -19 -62
-32 l-38 -23 0 780 0 780 -140 0 -140 0 0 -749 c0 -412 -3 -762 -6 -779 l-6
-30 -52 31 c-28 17 -52 35 -54 39 -2 4 -19 10 -38 14 -19 3 -34 10 -34 15 0 5
-130 9 -295 9 -256 0 -295 2 -295 15 0 11 -11 15 -40 15 l-40 0 0 45 c0 33 -4
45 -15 45 -13 0 -15 80 -15 660 l0 660 388 3 387 2 -421 3 -421 2 -36 54 c-37
55 -99 112 -152 138 -16 9 -64 23 -105 33 -105 25 -537 169 -615 205 -36 17
-69 30 -73 30 -5 0 -18 9 -30 21 -24 22 -21 39 7 39 36 0 121 31 150 56 16 14
42 49 56 79 22 48 29 55 55 55 16 0 123 -16 237 -35 l208 -35 546 0 546 0 44
-23 c50 -26 109 -104 110 -146 0 -14 3 -20 6 -14 8 20 -14 107 -41 162 l-24
50 68 -25 c37 -13 83 -24 103 -24 20 0 39 -4 42 -10 8 -13 814 -13 884 0 70
13 154 67 148 96 -3 16 11 36 50 74 29 28 56 63 59 76 3 13 10 24 15 24 16 0
10 125 -10 206 -11 44 -22 95 -26 114 l-7 34 23 -17 c13 -9 64 -44 112 -76z
m3955 -1288 c-2 -930 -6 -1177 -15 -1181 -8 -2 -13 -21 -13 -48 0 -37 -3 -44
-20 -44 -11 0 -20 -7 -20 -15 0 -13 -39 -15 -295 -15 -162 0 -295 -4 -295 -9
0 -5 -25 -11 -56 -13 -31 -3 -59 -9 -62 -14 -11 -16 -113 -66 -121 -59 -3 4
-6 522 -6 1151 0 1238 -3 1163 50 1164 12 0 45 15 75 33 49 29 56 38 76 97 13
36 23 77 24 92 0 14 6 29 13 31 6 3 160 6 340 6 l328 1 -3 -1177z M4162 6291
c-62 -22 -117 -70 -143 -126 -16 -34 -19 -66 -19 -223 0 -203 6 -231 63 -290
50 -52 103 -75 172 -76 108 0 195 62 230 163 21 63 21 339 0 402 -43 127 -179
194 -303 150z M6107 6296 c-63 -17 -116 -61 -149 -126 -27 -51 -28 -56 -28
-230 0 -175 0 -179 28 -231 55 -105 166 -157 273 -126 70 21 126 68 155 131
22 48 24 63 24 226 0 163 -2 179 -24 225 -49 107 -166 162 -279 131z M4964
5259 c-63 -18 -124 -104 -124 -175 0 -65 48 -134 115 -165 35 -16 67 -19 240
-19 215 0 257 7 305 47 104 87 81 247 -45 304 -35 16 -67 18 -250 18 -115 0
-224 -5 -241 -10z M5935 4380 c-22 -11 -58 -31 -80 -45 -104 -63 -328 -97
-645 -98 -342 -1 -536 31 -687 114 -106 57 -175 52 -236 -20 -52 -62 -43 -151
20 -213 46 -45 179 -108 288 -136 351 -93 948 -86 1265 13 109 35 212 89 250
131 74 85 54 206 -44 253 -53 26 -80 26 -131 1z M5910 10239 c-390 -80 -762
-221 -1125 -427 -140 -79 -415 -267 -551 -376 -131 -105 -379 -335 -370 -343
2 -3 53 10 113 27 211 61 322 75 583 75 185 0 256 -4 335 -19 144 -26 313 -77
448 -134 64 -27 120 -46 123 -41 11 18 -39 100 -91 151 -103 99 -342 170 -682
202 -83 7 -156 17 -162 20 -16 10 -13 48 5 74 47 68 513 333 739 422 33 13 62
27 65 30 3 4 49 26 103 50 54 23 157 78 230 123 72 44 177 102 231 128 97 48
99 57 6 38z M1410 8229 c-376 -79 -659 -360 -751 -746 -18 -75 -20 -109 -16
-233 3 -91 11 -167 21 -205 98 -353 355 -613 698 -707 72 -20 107 -23 258 -23
l175 0 109 38 c61 21 135 52 165 69 303 170 491 467 508 804 34 637 -543 1133
-1167 1003z m358 -285 c156 -32 271 -93 382 -204 53 -52 86 -96 110 -145 l35
-70 0 -240 c0 -276 -2 -285 -97 -422 -102 -147 -292 -257 -512 -294 -291 -49
-619 115 -747 375 l-44 89 -3 196 c-4 217 1 248 54 359 42 87 147 199 241 256
72 43 202 93 276 105 85 14 223 12 305 -5z M8210 7851 c0 -6 4 -12 10 -16 17
-10 139 -202 189 -298 106 -199 184 -441 215 -666 29 -203 17 -488 -28 -701
-8 -36 -13 -66 -11 -68 3 -4 120 196 159 273 l31 60 0 255 c0 273 3 250 -64
530 -24 97 -24 100 -12 119 8 12 20 7 65 -28 31 -23 60 -40 65 -37 10 7 37
-13 182 -135 102 -87 227 -210 504 -500 50 -52 147 -145 217 -207 70 -62 164
-152 209 -200 l82 -87 -53 100 c-323 607 -934 1190 -1626 1552 -126 66 -134
69 -134 54z M532 7030 c-151 -687 -80 -1488 195 -2210 56 -147 73 -180 73
-144 1 42 30 235 50 327 34 157 85 301 165 462 139 284 320 505 577 705 32 24
56 45 54 47 -1 2 -55 -13 -118 -32 -208 -63 -298 -114 -387 -221 -23 -27 -56
-67 -75 -89 -50 -61 -99 -140 -178 -292 -91 -175 -104 -195 -132 -191 -30 4
-61 98 -91 277 -41 248 -46 306 -55 641 -5 207 -14 368 -24 443 -10 64 -20
177 -24 250 l-7 132 -23 -105z M9168 6330 c-190 -34 -363 -121 -503 -251 -130
-122 -216 -263 -272 -444 -25 -83 -27 -103 -27 -265 0 -163 2 -181 28 -265
104 -340 355 -584 696 -677 122 -33 356 -33 480 0 445 119 747 526 727 982
-12 294 -149 560 -377 732 -85 65 -245 143 -345 169 -89 24 -323 35 -407 19z
m377 -264 c163 -44 302 -143 394 -282 86 -128 91 -151 91 -405 0 -257 -8 -295
-92 -415 -90 -131 -205 -217 -363 -270 -107 -36 -302 -45 -421 -20 -194 42
-373 167 -467 324 -74 126 -79 150 -75 401 l3 216 38 74 c114 222 253 329 502
387 80 18 308 13 390 -10z"/>
</g>
</svg>
