<?xml version="1.0" standalone="no"?>
<!DOCTYPE svg PUBLIC "-//W3C//DTD SVG 20010904//EN"
 "http://www.w3.org/TR/2001/REC-SVG-20010904/DTD/svg10.dtd">
<svg version="1.0" xmlns="http://www.w3.org/2000/svg"
 width="2048.000000pt" height="2048.000000pt" viewBox="0 0 2048.000000 2048.000000"
 preserveAspectRatio="xMidYMid meet">
<metadata>
Created by potrace 1.13, written by Peter Selinger 2001-2015
</metadata>
<g transform="translate(0.000000,2048.000000) scale(0.192120,-0.192120)"
fill="#000000" stroke="none">
<path d="M4995 10320 c-911 -67 -1701 -352 -2333 -842 -150 -116 -389 -358
-498 -503 -268 -359 -405 -703 -449 -1134 -6 -63 -6 -64 17 -57 13 4 48 15 78
24 86 26 302 23 403 -6 147 -42 298 -133 388 -236 l36 -40 21 47 c54 121 191
279 317 364 337 227 764 227 1100 0 63 -43 177 -151 212 -201 l20 -30 31 65
c52 107 112 190 207 285 104 104 179 157 308 219 382 183 824 135 1164 -127
117 -90 260 -270 314 -394 l21 -49 20 30 c36 51 150 159 213 202 388 262 890
219 1228 -106 70 -67 164 -196 193 -267 l16 -39 37 41 c90 103 240 194 388
236 108 31 325 31 426 1 l67 -20 0 26 c0 110 -48 356 -101 515 -251 757 -982
1413 -1944 1745 -351 122 -694 197 -1070 236 -187 19 -655 28 -830 15z m620
-280 c897 -56 1696 -341 2285 -815 120 -97 291 -265 380 -373 131 -159 272
-409 319 -566 21 -69 28 -170 12 -194 -4 -7 -41 -18 -81 -23 -98 -14 -211 -50
-322 -105 -137 -66 -146 -64 -283 67 -292 279 -689 386 -1070 289 -102 -26
-206 -71 -316 -136 -52 -31 -111 -59 -131 -61 -36 -5 -41 -2 -155 109 -174
169 -319 263 -511 332 -247 88 -563 90 -817 3 -199 -69 -339 -159 -537 -346
-70 -66 -115 -101 -130 -101 -12 0 -74 29 -138 64 -139 77 -212 109 -316 135
-313 81 -631 26 -906 -155 -36 -25 -117 -89 -179 -144 -87 -78 -119 -100 -141
-100 -16 0 -77 22 -136 49 -133 61 -218 87 -333 102 l-89 12 0 67 c0 81 27
166 104 323 158 325 452 645 821 896 717 487 1693 732 2670 671z M1540 7689
c-211 -136 -344 -359 -371 -622 -34 -335 157 -672 462 -817 72 -34 81 -28 55
33 -9 22 -40 56 -82 89 -161 128 -231 207 -287 326 l-32 67 -3 225 -3 225 45
92 c39 79 59 106 149 196 97 97 147 169 147 210 0 25 -10 22 -80 -24z M9040
7707 c0 -27 20 -58 71 -112 117 -123 220 -266 240 -334 7 -23 9 -125 7 -281
l-3 -245 -40 -75 c-42 -81 -160 -208 -268 -288 -56 -42 -87 -90 -87 -133 0
-18 2 -18 43 -2 23 9 73 36 111 60 261 167 409 472 376 774 -27 244 -136 442
-320 584 -50 38 -111 75 -125 75 -3 0 -5 -10 -5 -23z M1735 6162 c23 -165 104
-440 132 -450 7 -2 26 17 42 43 22 35 33 69 42 136 7 50 18 89 24 89 6 0 18 9
28 20 11 13 29 20 52 20 19 0 35 5 35 10 0 6 78 10 214 10 l215 0 63 33 c35
18 81 45 103 60 l40 27 -388 0 c-383 0 -486 6 -569 36 l-39 14 6 -48z M8900
6198 c-83 -32 -176 -38 -568 -38 l-397 0 30 -21 c17 -11 62 -37 100 -56 l70
-36 253 -5 c139 -2 252 -8 252 -13 0 -5 10 -9 23 -9 31 0 55 -57 60 -147 3
-55 11 -82 31 -118 15 -25 33 -44 39 -42 16 5 54 102 82 211 25 91 59 275 53
281 -2 1 -14 -2 -28 -7z M2805 6123 c-52 -321 -151 -553 -295 -687 -45 -42
-157 -106 -186 -106 -6 0 -24 18 -40 41 -44 65 -142 147 -219 185 -190 94
-388 56 -559 -106 -165 -157 -274 -389 -322 -686 -21 -130 -23 -390 -5 -509
68 -437 279 -765 544 -846 54 -17 87 -21 160 -17 81 3 102 8 168 40 48 22 99
58 141 96 l65 61 12 -42 c54 -180 251 -605 384 -827 356 -592 812 -1068 1345
-1402 311 -195 624 -323 961 -395 117 -25 143 -27 371 -27 228 0 254 2 370 26
260 56 419 112 675 238 316 156 549 317 845 585 300 272 611 665 831 1050 119
208 292 593 340 752 l12 42 63 -58 c37 -35 94 -75 140 -97 68 -34 86 -39 170
-42 74 -4 106 0 161 17 266 81 483 422 544 851 18 128 16 376 -5 504 -73 455
-312 786 -604 837 -166 29 -364 -59 -485 -217 -47 -61 -50 -61 -134 -22 -98
46 -206 175 -277 330 -55 120 -92 249 -121 431 l-6 37 -2519 0 -2519 0 -6 -37z
m4823 -238 c26 -23 50 -62 76 -122 110 -253 160 -337 259 -436 117 -118 243
-187 340 -187 68 0 111 19 261 118 112 74 152 91 213 92 80 0 151 -35 233
-119 92 -93 152 -191 199 -324 l36 -102 0 -285 0 -285 -39 -110 c-88 -251
-174 -378 -293 -432 -49 -23 -65 -25 -146 -21 -81 4 -104 10 -191 47 -160 69
-203 59 -334 -77 -67 -69 -101 -128 -178 -309 -158 -370 -361 -699 -608 -988
-305 -355 -617 -626 -946 -821 -580 -345 -1104 -441 -1654 -303 -395 99 -823
334 -1196 654 -166 143 -458 453 -616 655 -163 207 -334 517 -510 925 -51 118
-129 215 -227 282 -54 37 -100 33 -227 -18 -85 -35 -120 -43 -186 -47 -121 -7
-171 13 -260 102 -95 95 -153 212 -189 383 -22 101 -21 611 1 697 62 244 191
427 337 478 105 36 156 23 308 -75 209 -135 269 -146 407 -77 182 91 323 271
432 550 36 90 79 163 108 179 11 7 781 10 2284 11 l2268 0 38 -35z M3564 5034
c-59 -21 -119 -76 -148 -137 -24 -51 -24 -57 -29 -360 -2 -169 -6 -309 -9
-312 -2 -2 -37 9 -77 26 -107 45 -173 47 -248 7 -189 -100 -307 -216 -393
-388 -29 -57 -33 -76 -38 -172 -6 -126 4 -171 59 -284 99 -201 284 -367 513
-459 327 -132 752 -149 1086 -43 145 46 237 100 336 195 42 41 59 68 100 167
l49 117 11 -50 c23 -102 94 -185 183 -216 65 -22 678 -22 742 0 90 32 150 101
179 206 l16 61 19 -48 c37 -101 89 -197 124 -231 169 -167 413 -254 756 -269
393 -18 782 108 1001 323 70 69 160 200 200 293 27 61 29 74 29 200 l0 135
-37 77 c-47 99 -89 159 -158 228 -56 57 -198 152 -229 155 -10 0 -32 7 -49 14
-18 8 -35 11 -39 8 -3 -4 -13 -2 -22 2 -14 8 -118 -21 -192 -53 -14 -6 -17 6
-22 91 -4 54 -7 195 -7 314 0 211 0 216 -26 267 -101 203 -388 202 -497 -2
-21 -39 -22 -54 -25 -326 -2 -157 -7 -289 -11 -293 -4 -4 -49 13 -100 38 -72
37 -102 47 -144 47 -69 2 -237 -55 -387 -130 -101 -50 -126 -68 -206 -147
-159 -159 -179 -243 -96 -418 l41 -88 -29 21 c-16 11 -48 29 -72 40 -40 18
-67 20 -388 20 l-345 0 -50 -25 c-27 -13 -61 -32 -74 -42 l-23 -17 25 50 c35
70 67 167 67 205 0 18 -16 66 -36 107 -71 147 -218 264 -449 355 -110 44 -275
89 -275 76 0 -6 -6 -9 -12 -7 -21 3 -59 -12 -131 -55 -40 -23 -72 -36 -77 -31
-5 5 -10 137 -12 294 -3 272 -4 287 -25 326 -68 127 -215 185 -349 138z m116
-404 c0 -133 -1 -140 -20 -140 -19 0 -20 7 -20 140 0 133 1 140 20 140 19 0
20 -7 20 -140z m3340 0 l0 -140 -30 0 -30 0 0 140 0 140 30 0 30 0 0 -140z
m-3049 -420 c495 -50 845 -312 799 -598 -14 -85 -47 -141 -134 -227 -69 -69
-98 -89 -196 -138 -128 -64 -278 -107 -444 -127 -133 -17 -390 -7 -514 19
-328 70 -566 226 -632 415 -135 381 450 723 1121 656z m3057 -1 c384 -42 668
-192 771 -409 22 -46 26 -69 26 -140 0 -74 -4 -93 -30 -145 -40 -81 -149 -188
-247 -243 -95 -54 -237 -105 -370 -134 -142 -30 -463 -32 -613 -4 -236 44
-416 127 -541 251 -45 44 -90 100 -102 125 -71 149 -38 297 97 431 203 202
615 312 1009 268z m-1401 -775 c37 -28 43 -82 12 -110 -20 -18 -38 -19 -316
-19 l-295 0 -24 28 c-27 32 -25 58 7 91 28 30 83 35 346 33 228 -2 244 -3 270
-23z M4125 2666 c-111 -35 -190 -101 -243 -205 l-34 -63 4 -132 c3 -122 5
-135 33 -190 37 -72 128 -167 192 -199 136 -68 457 -145 808 -193 203 -28 693
-26 915 4 313 42 638 120 767 182 77 38 165 131 207 220 28 58 31 76 34 175
l3 110 -39 80 c-87 179 -249 255 -447 211 -38 -8 -113 -27 -165 -41 -285 -78
-524 -109 -835 -109 -309 0 -561 34 -845 113 -197 54 -274 63 -355 37z m211
-136 c157 -55 444 -115 674 -141 135 -16 504 -16 640 0 228 26 517 86 674 140
118 41 228 21 309 -57 64 -61 82 -105 82 -197 0 -90 -20 -139 -79 -198 -45
-45 -96 -67 -262 -115 -587 -169 -1223 -190 -1841 -61 -152 31 -376 95 -439
125 -47 23 -98 73 -126 127 -32 60 -32 184 -1 243 71 133 217 186 369 134z
M2035 3269 c30 -228 149 -528 275 -699 132 -177 318 -290 478 -290 l45 0 -94
62 c-118 78 -262 222 -333 330 -72 112 -144 257 -200 408 -55 146 -81 188
-137 220 l-41 23 7 -54z M8584 3294 c-52 -34 -82 -83 -134 -224 -129 -347
-288 -567 -524 -725 -85 -58 -87 -60 -57 -63 92 -9 257 62 361 155 172 156
318 444 380 752 27 134 26 139 -26 105z"/>
</g>
</svg>
