<?xml version="1.0" standalone="no"?>
<!DOCTYPE svg PUBLIC "-//W3C//DTD SVG 20010904//EN"
 "http://www.w3.org/TR/2001/REC-SVG-20010904/DTD/svg10.dtd">
<svg version="1.0" xmlns="http://www.w3.org/2000/svg"
 width="2048.000000pt" height="2048.000000pt" viewBox="0 0 2048.000000 2048.000000"
 preserveAspectRatio="xMidYMid meet">
<metadata>
Created by potrace 1.13, written by Peter Selinger 2001-2015
</metadata>
<g transform="translate(0.000000,2048.000000) scale(0.192120,-0.192120)"
fill="#000000" stroke="none">
<path d="M5210 10284 c-14 -2 -65 -9 -115 -15 -205 -26 -562 -133 -780 -235
-99 -46 -255 -134 -345 -194 -265 -177 -442 -363 -544 -570 -23 -47 -59 -108
-79 -136 -144 -200 -170 -497 -64 -736 83 -188 254 -339 461 -409 l80 -26 123
-299 c67 -165 143 -345 169 -401 44 -97 45 -103 30 -125 -21 -30 -20 -81 2
-101 10 -10 34 -17 53 -17 31 0 37 -5 63 -53 65 -117 156 -237 246 -327 116
-115 184 -157 345 -214 17 -6 11 -12 -38 -36 -228 -114 -408 -342 -473 -597
-22 -88 -24 -115 -24 -326 l0 -230 -39 -61 c-96 -153 -160 -324 -188 -500 -26
-172 -8 -394 45 -551 l19 -56 -66 -36 c-240 -132 -478 -330 -661 -547 -219
-261 -405 -638 -479 -971 -53 -239 -70 -556 -42 -777 63 -503 283 -971 620
-1320 l84 -88 1831 0 1831 0 0 1201 0 1202 25 16 c89 58 636 444 840 592 291
212 444 333 523 413 227 230 267 492 114 730 -27 41 -322 357 -816 873 -426
444 -806 838 -844 876 -118 114 -251 192 -409 238 -58 17 -108 23 -250 26
l-178 5 0 34 c0 19 -27 142 -61 274 l-61 240 33 45 c18 25 37 45 42 45 13 0
23 13 136 181 157 235 277 496 342 743 49 190 62 294 63 496 1 189 -9 280 -45
424 -11 43 -17 81 -14 85 4 3 55 6 113 6 174 0 311 -57 378 -156 55 -83 77
-175 119 -499 48 -366 103 -521 230 -644 51 -50 173 -116 260 -142 83 -23 202
-22 286 5 81 26 239 133 239 163 0 4 -20 8 -45 8 -166 0 -316 95 -386 244 -86
184 -79 419 21 731 27 83 54 190 61 238 39 282 -111 576 -390 761 -208 139
-470 199 -656 151 -165 -43 -328 -160 -423 -302 l-35 -54 -40 63 c-104 166
-276 348 -415 441 -156 105 -341 172 -537 196 -85 10 -229 13 -285 5z m267
-304 c173 -22 317 -74 451 -164 80 -54 149 -118 268 -250 87 -96 185 -179 234
-198 74 -29 144 0 292 120 166 134 294 177 456 153 196 -28 392 -144 483 -284
l39 -60 0 -196 0 -197 -39 -132 c-22 -73 -47 -145 -56 -159 -16 -24 -19 -25
-30 -10 -7 10 -27 68 -45 130 -47 160 -90 251 -160 340 -143 180 -310 269
-510 271 -56 1 -85 -4 -115 -19 -55 -27 -192 -160 -226 -220 l-29 -50 0 -400
c0 -475 -5 -504 -107 -769 -64 -166 -171 -356 -209 -370 -36 -14 -109 48 -119
102 -3 15 -12 47 -20 72 -7 25 -16 106 -19 180 -11 247 -55 370 -174 482 -99
93 -144 113 -262 113 -87 0 -101 -3 -161 -32 -36 -18 -95 -59 -130 -91 -75
-69 -101 -84 -126 -75 -10 4 -51 42 -91 84 -130 137 -194 165 -347 149 -247
-26 -385 -31 -518 -18 -72 7 -175 13 -227 13 -103 0 -129 -9 -248 -85 -89 -57
-138 -41 -202 66 l-35 59 -3 167 c-4 197 -6 191 127 411 126 207 232 316 451
462 420 281 1021 453 1407 405z m-1472 -1686 c33 -7 124 -19 202 -26 163 -14
394 -1 573 32 57 11 105 18 107 17 1 -2 87 -142 192 -312 225 -367 213 -350
206 -306 -43 272 22 469 180 546 91 45 211 33 277 -28 67 -62 87 -148 94 -397
3 -102 10 -207 15 -233 13 -71 68 -147 202 -284 66 -68 118 -125 116 -127 -2
-2 -33 -17 -69 -34 -81 -38 -120 -77 -127 -128 -5 -39 3 -78 74 -379 60 -255
58 -275 -43 -391 -75 -86 -155 -127 -243 -127 -116 0 -151 32 -197 183 -65
209 -122 259 -286 246 -265 -20 -247 -20 -373 9 -66 15 -126 29 -134 31 -8 3
7 26 45 67 64 68 113 152 138 235 11 38 12 52 3 52 -6 0 -90 -33 -187 -74
-244 -104 -224 -103 -238 -10 -7 42 -22 92 -33 111 -22 35 -84 76 -132 87 -23
6 -26 9 -17 26 26 49 -7 120 -58 120 -22 0 -23 3 -15 33 13 52 8 129 -11 166
-10 19 -50 77 -88 130 -86 118 -116 176 -168 327 -59 170 -69 182 -169 193
l-54 6 -28 62 -28 62 67 45 c37 24 78 56 92 70 14 16 30 24 40 21 8 -4 42 -13
75 -21z m1445 -1995 c18 -85 40 -172 49 -194 38 -87 136 -136 275 -138 59 -1
82 3 126 25 146 72 270 219 366 436 1 2 26 -22 56 -52 37 -37 68 -58 96 -66
23 -6 44 -14 46 -19 3 -5 35 -12 72 -16 203 -22 404 -129 534 -286 25 -29 135
-144 245 -254 182 -181 930 -959 1167 -1213 128 -137 168 -215 168 -328 -1
-139 -68 -253 -233 -392 -118 -100 -436 -334 -782 -577 -180 -126 -326 -236
-365 -275 -96 -95 -129 -180 -100 -254 9 -25 5 -30 -63 -80 -39 -29 -211 -148
-382 -264 -170 -117 -313 -218 -316 -225 -4 -6 -12 -50 -18 -97 -8 -65 -20
-104 -51 -168 -23 -45 -46 -82 -53 -82 -36 0 -129 -63 -276 -188 -268 -226
-670 -329 -877 -224 l-59 30 35 5 c19 4 64 8 100 12 162 13 375 86 523 179
129 80 263 219 321 333 15 30 15 34 -12 92 -15 33 -29 60 -32 60 -3 0 -25 -27
-50 -60 -64 -86 -222 -236 -311 -295 -137 -92 -332 -157 -508 -170 -123 -9
-141 -4 -141 44 -1 50 -28 106 -84 170 -55 64 -58 52 -17 -64 34 -100 92 -204
142 -259 21 -23 36 -44 33 -47 -8 -8 85 -87 131 -111 31 -16 64 -22 140 -25
264 -11 569 112 790 318 53 50 986 689 1029 706 9 4 -3 -43 -35 -138 l-49
-143 0 -677 c0 -596 -2 -678 -15 -678 -11 0 -15 -11 -15 -40 0 -33 -3 -40 -20
-40 -11 0 -20 -7 -20 -15 0 -13 -181 -15 -1477 -17 l-1478 -3 -55 -31 c-30
-17 -69 -39 -86 -49 l-32 -19 -56 48 c-71 60 -188 188 -260 284 -610 807 -539
1939 168 2671 313 324 726 535 1186 607 133 20 431 21 548 1 l82 -14 0 133 0
132 -42 6 c-92 12 -436 18 -503 8 -38 -5 -72 -8 -74 -6 -2 2 -8 45 -14 96 -18
165 19 371 95 523 156 310 453 510 801 541 l77 7 0 139 0 140 -77 -7 c-128
-11 -272 -44 -377 -86 -54 -21 -100 -39 -102 -39 -2 0 -4 29 -4 65 0 75 10 70
-120 55 -298 -36 -534 -145 -749 -345 -52 -49 -54 -49 -47 -20 4 16 28 86 52
155 132 366 153 406 313 585 98 110 125 162 118 235 l-5 57 99 -5 c117 -6 222
9 334 47 58 20 82 25 87 16 4 -6 21 -81 38 -166z m-215 -760 c44 -12 55 -23
55 -55 0 -33 -127 -142 -174 -149 l-36 -6 0 39 c0 67 -23 62 -104 -21 -167
-172 -280 -399 -321 -647 -14 -80 -16 -135 -12 -249 4 -80 9 -158 13 -172 6
-25 3 -27 -48 -39 -29 -7 -84 -24 -122 -37 -39 -13 -74 -19 -78 -15 -5 5 -18
54 -30 108 -17 82 -19 122 -15 239 6 159 25 240 86 371 74 158 195 301 330
393 63 43 238 131 260 131 6 0 11 9 11 20 0 11 -4 20 -10 20 -15 0 -12 36 4
49 31 26 132 36 191 20z m-438 -1316 c-3 -10 -5 -4 -5 12 0 17 2 24 5 18 2 -7
2 -21 0 -30z m33 10 c0 -19 -3 -24 -10 -17 -6 6 -8 18 -4 27 9 24 14 21 14
-10z M4190 8042 c-57 -25 -92 -76 -92 -134 0 -40 48 -170 83 -226 19 -30 81
-62 121 -62 70 0 143 74 143 143 0 40 -49 173 -81 225 -32 50 -121 77 -174 54z
M6547 5031 c-37 -56 -67 -105 -67 -110 0 -5 119 -126 265 -268 146 -141 264
-263 263 -270 -2 -7 -95 -106 -208 -220 -201 -204 -626 -640 -1109 -1139
l-243 -251 -56 -10 c-145 -28 -336 -122 -394 -194 -17 -21 -32 -54 -35 -77 -5
-36 -2 -45 25 -72 18 -17 41 -30 55 -30 39 0 191 81 312 166 151 107 254 159
343 174 91 15 110 10 144 -40 20 -29 49 -50 110 -81 101 -51 194 -116 230
-163 15 -19 50 -79 78 -133 28 -54 56 -105 63 -114 11 -15 49 -39 61 -39 12 0
5 70 -14 144 -58 229 -198 353 -472 420 l-129 31 801 780 c441 429 809 786
818 793 14 11 -32 61 -379 408 l-395 395 -67 -100z M5683 2408 c-38 -53 -162
-175 -223 -221 -168 -125 -362 -197 -533 -197 l-79 0 29 53 c16 28 51 89 78
135 37 64 49 96 53 138 3 31 0 54 -5 54 -6 0 -28 -13 -49 -28 -44 -33 -88
-106 -103 -175 -13 -55 -16 -245 -6 -299 l7 -38 77 0 c226 1 423 64 587 188
93 70 208 188 260 266 l36 55 -44 55 c-23 30 -46 55 -49 55 -3 1 -19 -18 -36
-41z"/>
</g>
</svg>
