<?xml version="1.0" standalone="no"?>
<!DOCTYPE svg PUBLIC "-//W3C//DTD SVG 20010904//EN"
 "http://www.w3.org/TR/2001/REC-SVG-20010904/DTD/svg10.dtd">
<svg version="1.0" xmlns="http://www.w3.org/2000/svg"
 width="2048.000000pt" height="2048.000000pt" viewBox="0 0 2048.000000 2048.000000"
 preserveAspectRatio="xMidYMid meet">
<metadata>
Created by potrace 1.13, written by Peter Selinger 2001-2015
</metadata>
<g transform="translate(0.000000,2048.000000) scale(0.192120,-0.192120)"
fill="#000000" stroke="none">
<path d="M8620 9771 c-321 -7 -331 -9 -401 -89 -43 -50 -55 -62 -105 -109 -30
-28 -151 -231 -458 -769 -359 -628 -422 -735 -454 -756 -42 -27 -855 -732
-887 -768 l-20 -23 98 6 c54 4 129 16 166 27 75 22 112 46 248 162 50 42 93
74 95 69 4 -11 275 222 390 335 47 47 111 122 140 167 30 45 198 334 373 642
175 308 332 583 349 610 52 82 96 189 107 256 19 118 13 109 73 109 64 0 161
-45 201 -92 66 -79 90 -176 61 -251 l-16 -44 -47 7 c-98 15 -178 -24 -242
-118 -22 -33 -196 -331 -386 -663 -191 -332 -374 -643 -408 -692 -64 -94 -128
-159 -322 -330 -167 -146 -224 -201 -295 -282 -71 -82 -90 -133 -90 -242 0
-73 0 -74 21 -60 70 50 800 693 821 724 14 21 229 395 478 831 l453 792 362 0
c415 0 436 3 512 73 63 58 93 124 93 207 -1 110 -53 194 -155 248 -49 26 -53
27 -260 28 -115 0 -338 -2 -495 -5z M1351 8314 c-25 -9 -54 -22 -65 -29 -12
-7 -174 -97 -361 -199 -369 -202 -408 -230 -439 -323 -62 -183 70 -367 263
-367 76 0 85 4 426 193 l200 111 18 -23 c10 -12 29 -33 41 -47 13 -14 403
-267 867 -562 644 -409 850 -545 867 -572 31 -46 82 -80 189 -125 138 -60 384
-153 390 -148 2 3 -10 39 -27 80 -47 114 -90 156 -227 224 -119 58 -232 133
-306 202 -77 73 -170 136 -542 373 -738 469 -860 542 -1028 617 -58 26 -140
28 -198 5 -49 -20 -53 -16 -70 65 -28 135 55 296 182 350 70 31 101 26 111
-19 20 -86 31 -112 59 -144 16 -19 120 -92 230 -162 110 -69 226 -151 257
-181 66 -63 119 -98 607 -408 210 -134 361 -223 363 -216 3 9 12 7 30 -6 143
-94 370 -199 504 -234 98 -25 142 -22 287 17 l103 27 -33 18 c-44 22 -449 187
-514 208 -44 15 -293 171 -1480 926 -154 98 -297 183 -318 190 -27 8 -49 26
-75 60 -73 95 -205 138 -311 99z M5710 6989 c-267 -154 -498 -288 -513 -298
-28 -18 -36 -16 -499 76 -259 52 -480 92 -492 89 -34 -8 -135 -113 -190 -195
-90 -134 -170 -309 -234 -507 l-29 -91 103 -53 c131 -67 277 -158 412 -258 59
-43 159 -114 222 -157 63 -44 117 -83 119 -88 14 -34 160 -182 403 -410 334
-311 399 -380 454 -473 115 -197 232 -535 269 -779 28 -187 21 -218 -77 -345
-36 -47 -105 -145 -153 -219 -82 -127 -86 -135 -69 -148 32 -22 113 -85 218
-168 56 -44 137 -103 180 -132 66 -43 76 -53 60 -59 -198 -70 -234 -98 -294
-228 -73 -160 -80 -195 -120 -601 -16 -170 -31 -326 -33 -345 -2 -19 -4 174
-5 430 l-2 465 27 60 c85 197 93 288 42 478 -10 36 -11 38 -23 21 -29 -42
-276 -586 -286 -630 -6 -25 -8 -60 -5 -77 3 -18 -26 -351 -64 -740 -39 -390
-71 -735 -71 -767 0 -44 7 -71 28 -111 97 -186 363 -185 457 1 23 45 30 105
99 812 42 419 79 779 85 798 7 29 186 426 197 439 2 2 20 -3 40 -11 l38 -15
69 111 c127 205 183 270 338 391 l140 110 -7 40 c-28 141 26 254 176 370 67
51 167 103 235 121 64 18 167 18 208 1 52 -22 173 -5 378 51 101 28 201 54
222 58 l37 6 0 62 c0 94 -38 490 -56 582 l-16 82 -102 6 c-55 3 -178 9 -271
12 l-170 6 -23 82 c-33 118 -79 211 -124 251 -21 20 -90 60 -152 90 -125 60
-155 87 -253 235 -144 218 -375 656 -419 795 -10 29 -8 31 60 74 66 41 328
226 494 348 39 30 72 58 72 62 0 5 -21 38 -47 73 -98 132 -296 306 -505 442
-47 31 -88 56 -90 56 -1 0 -221 -127 -488 -281z m585 -86 c35 -18 136 -92 147
-107 13 -18 8 -50 -10 -71 -9 -12 -67 -59 -128 -105 -61 -47 -178 -149 -260
-227 -182 -174 -168 -162 -361 -279 -276 -167 -481 -258 -728 -324 -128 -35
-211 -38 -270 -11 -22 10 -136 86 -252 168 -117 83 -246 172 -288 198 -64 41
-76 53 -81 82 -8 44 8 99 50 169 72 118 118 150 208 140 32 -3 199 -33 371
-67 171 -33 350 -63 397 -66 139 -8 154 -2 655 287 318 184 385 220 430 231
36 9 79 2 120 -18z m-157 -775 c-14 -53 -18 -95 -15 -153 4 -79 5 -83 127
-330 135 -275 173 -340 267 -462 76 -99 138 -155 264 -238 92 -61 98 -67 150
-156 67 -116 181 -239 254 -274 42 -21 77 -28 181 -36 71 -6 144 -12 162 -15
l32 -5 0 -119 c0 -109 -2 -120 -18 -120 -10 0 -22 -4 -27 -9 -18 -15 -187 -51
-369 -76 -98 -14 -213 -37 -255 -51 -214 -71 -395 -232 -514 -458 -34 -65 -66
-126 -72 -135 -5 -9 -69 -75 -141 -146 -72 -72 -157 -161 -190 -199 -56 -64
-63 -69 -98 -68 -68 3 -143 79 -129 133 4 13 33 64 65 114 32 49 77 128 101
175 42 85 42 85 46 214 4 173 -18 307 -91 536 -59 187 -173 437 -245 538 -115
161 -368 419 -533 543 -57 43 -201 118 -303 159 -31 12 -59 26 -62 30 -2 4 57
24 133 44 245 67 472 147 597 211 147 75 397 225 565 339 69 47 128 85 131 85
4 1 -2 -32 -13 -71z m-778 -5192 c-12 -12 -14 801 -2 934 4 52 8 -110 10 -419
1 -330 -1 -508 -8 -515z M7777 4642 c-15 -6 -8 -16 42 -57 82 -68 168 -114
213 -115 20 0 38 -5 40 -12 3 -8 67 -11 239 -10 129 1 262 -2 296 -7 69 -10
631 -204 868 -299 237 -95 370 -158 373 -177 3 -13 -1 -15 -18 -10 -13 4 -30
9 -39 10 -9 2 -16 4 -16 6 0 1 -9 3 -20 4 -11 1 -63 16 -116 33 -53 17 -108
33 -121 36 -14 2 -68 18 -120 35 -53 16 -106 32 -119 35 -30 5 -218 61 -452
132 -260 80 -280 84 -529 84 -120 0 -218 -4 -218 -9 0 -5 -19 -11 -42 -15 -53
-8 -135 -63 -183 -121 -19 -24 -35 -46 -35 -49 0 -3 165 -6 367 -6 l366 0 396
-134 c218 -74 550 -186 737 -250 231 -78 356 -116 385 -116 147 0 259 111 259
255 0 35 -5 76 -11 92 -19 51 -62 104 -104 129 -23 13 -262 99 -531 190 -269
91 -579 196 -689 234 -110 37 -223 79 -251 94 l-52 26 -448 -1 c-247 0 -457
-4 -467 -7z m2103 -681 c0 -6 -4 -13 -10 -16 -5 -3 -10 1 -10 9 0 9 5 16 10
16 6 0 10 -4 10 -9z m25 -10 c3 -5 1 -12 -5 -16 -5 -3 -10 1 -10 9 0 18 6 21
15 7z m30 -10 c3 -5 1 -12 -5 -16 -5 -3 -10 1 -10 9 0 18 6 21 15 7z M7102
3854 c-62 -31 -119 -94 -128 -141 -19 -99 33 -223 135 -323 37 -36 84 -74 105
-84 22 -10 93 -27 159 -37 195 -30 269 -60 417 -174 52 -40 97 -72 100 -73 3
0 19 -6 35 -13 17 -6 65 -11 108 -11 l78 0 28 -56 c16 -32 40 -90 55 -130 42
-118 33 -270 -23 -398 l-19 -42 -79 39 c-155 77 -294 85 -513 27 -189 -50
-190 -50 -227 -37 -47 15 -147 111 -213 203 -30 41 -55 74 -57 72 -2 -1 24
-68 56 -148 81 -197 88 -227 65 -275 -65 -132 -229 -27 -280 179 -15 61 -15
68 1 101 22 47 15 59 -85 142 -44 37 -80 71 -80 76 0 5 29 31 65 59 35 28 73
66 85 84 24 40 60 174 60 227 0 120 -116 308 -209 339 -47 15 -117 8 -140 -15
-15 -15 -15 -16 0 -10 13 5 34 -26 98 -150 l82 -156 -30 -87 c-17 -48 -38
-136 -47 -197 -9 -60 -20 -132 -24 -160 -14 -85 -11 -336 5 -428 18 -102 37
-161 76 -240 l30 -59 -43 9 c-88 17 -227 7 -318 -22 -99 -32 -244 -102 -315
-153 -185 -132 -277 -259 -344 -477 -30 -98 -65 -264 -57 -272 2 -2 17 20 34
50 87 153 298 258 492 243 41 -3 147 -24 235 -46 160 -41 269 -52 340 -34 116
28 258 157 296 269 7 22 16 44 20 48 4 5 28 -3 55 -16 261 -132 586 -91 899
114 107 71 290 255 332 334 72 139 107 312 101 500 -6 146 -27 225 -80 303
-30 43 -210 185 -324 255 -29 18 -61 46 -73 63 -26 38 -144 155 -191 189 -153
113 -354 174 -530 161 l-86 -6 -23 47 c-12 27 -49 96 -82 155 -32 58 -59 110
-59 115 0 4 27 25 60 47 33 21 60 40 60 42 0 11 -42 1 -88 -22z m883 -1664
c55 -13 109 -20 138 -17 56 5 65 -5 48 -55 -27 -81 -167 -202 -316 -274 -182
-88 -336 -105 -540 -59 -60 14 -123 25 -140 25 -49 -1 -104 -32 -203 -116
-197 -167 -215 -175 -350 -155 -120 17 -202 48 -202 76 0 27 57 48 190 71 52
8 114 24 138 34 49 22 144 113 188 180 16 25 34 49 41 53 7 4 13 15 13 22 0
18 0 18 56 4 69 -18 118 1 221 86 48 39 104 77 123 83 28 9 164 37 320 66 48
9 186 -3 275 -24z"/>
</g>
</svg>
