<?xml version="1.0" standalone="no"?>
<!DOCTYPE svg PUBLIC "-//W3C//DTD SVG 20010904//EN"
 "http://www.w3.org/TR/2001/REC-SVG-20010904/DTD/svg10.dtd">
<svg version="1.0" xmlns="http://www.w3.org/2000/svg"
 width="2048.000000pt" height="2048.000000pt" viewBox="0 0 2048.000000 2048.000000"
 preserveAspectRatio="xMidYMid meet">
<metadata>
Created by potrace 1.13, written by Peter Selinger 2001-2015
</metadata>
<g transform="translate(0.000000,2048.000000) scale(0.192120,-0.192120)"
fill="#000000" stroke="none">
<path d="M8894 10251 c-425 -100 -678 -508 -578 -931 21 -86 92 -233 144 -295
100 -119 264 -223 409 -260 259 -66 530 9 723 198 180 175 261 434 214 680
-16 84 -62 205 -99 265 -98 155 -268 281 -447 332 -108 31 -261 35 -366 11z
m296 -118 c0 -5 -29 -23 -65 -42 -137 -70 -278 -235 -345 -402 -18 -43 -38
-79 -45 -79 -7 0 -49 18 -94 41 -57 28 -81 46 -81 59 0 41 100 217 160 282 69
76 143 134 180 141 43 8 290 7 290 0z m302 -165 l58 -35 -52 -12 c-148 -34
-291 -150 -362 -294 l-38 -78 -62 6 c-81 8 -199 25 -204 29 -2 2 8 31 22 65
79 194 228 348 389 400 99 32 107 32 152 -10 22 -21 66 -53 97 -71z m-983
-140 c-25 -64 -26 -65 -34 -38 -5 15 1 31 20 55 14 19 28 35 30 35 3 0 -5 -24
-16 -52z m1111 -41 c17 -34 39 -101 51 -147 18 -72 21 -103 16 -220 -8 -201
-23 -241 -153 -385 -31 -35 -35 -37 -30 -15 19 84 28 210 23 325 -5 146 -34
274 -85 388 -35 77 -36 75 60 101 85 23 86 23 118 -47z m-248 -104 c89 -229
98 -463 27 -705 -19 -66 -21 -68 -62 -79 -23 -6 -62 -22 -88 -34 l-46 -24 19
77 c39 161 34 363 -14 545 l-20 77 26 55 c25 50 109 155 125 155 4 0 18 -30
33 -67z m-760 -116 c116 -54 248 -85 406 -94 l102 -6 10 -39 c14 -51 38 -211
33 -220 -4 -7 -98 -4 -223 8 -165 15 -382 98 -479 182 l-45 39 13 57 c8 38 10
82 6 128 l-7 70 65 -50 c36 -27 89 -61 119 -75z m138 -401 c106 -28 238 -46
346 -46 l71 0 -5 -52 c-3 -28 -10 -74 -16 -102 l-11 -51 -44 -3 c-101 -7 -379
52 -437 93 -21 14 -137 171 -183 247 l-22 37 103 -49 c57 -27 146 -60 198 -74z
M5502 9929 c-299 -39 -546 -187 -703 -422 -70 -105 -118 -195 -123 -235 -3
-15 -16 -55 -30 -88 -99 -237 -99 -518 0 -862 62 -213 209 -451 349 -563 30
-24 55 -49 55 -54 0 -16 76 -86 150 -139 128 -92 311 -138 464 -117 248 35
420 151 627 427 l99 131 101 54 c134 71 196 128 238 217 49 107 64 195 59 348
l-4 131 -52 109 c-39 83 -52 121 -52 156 0 73 -27 210 -60 300 -121 335 -404
553 -785 608 -81 11 -242 11 -333 -1z m98 -400 c101 -16 238 -66 318 -116 197
-122 313 -311 364 -592 29 -160 31 -457 4 -581 -64 -294 -212 -501 -446 -624
-110 -57 -176 -76 -269 -76 -120 0 -234 29 -382 97 l-76 35 -6 63 c-7 77 -22
109 -92 195 -117 146 -172 245 -228 406 -56 160 -60 206 -55 530 5 279 1 332
-27 405 -4 11 16 32 72 73 128 96 259 153 416 181 88 16 319 19 407 4z m684
-98 c37 -37 49 -58 53 -90 3 -23 2 -41 -4 -41 -10 0 -118 146 -129 174 -11 29
32 5 80 -43z M9795 9909 c73 -88 115 -217 122 -379 10 -228 -32 -386 -180
-673 l-92 -179 -6 -787 c-4 -447 -11 -822 -17 -869 -40 -316 -86 -458 -161
-496 -69 -36 -352 -74 -711 -97 -102 -6 -489 -14 -860 -18 -744 -7 -705 -4
-790 -71 -82 -65 -93 -96 -170 -478 -89 -444 -153 -702 -230 -927 -135 -391
-163 -515 -164 -722 -1 -137 1 -154 19 -178 21 -28 71 -62 79 -55 2 3 9 59 16
125 24 259 69 460 150 679 68 185 94 273 151 501 55 219 148 675 175 853 l17
112 606 0 c1232 0 1785 56 1880 188 77 108 128 395 152 857 13 254 6 1132 -10
1291 l-11 101 44 94 c49 104 95 249 127 403 30 144 37 387 15 489 -22 100 -68
188 -118 232 -52 43 -69 45 -33 4z M9176 8623 c-5 -24 -132 -1205 -152 -1410
-3 -40 -8 -73 -9 -73 -1 0 -69 22 -151 50 -196 65 -394 115 -540 136 -105 15
-139 16 -289 6 -94 -7 -232 -21 -308 -32 l-138 -21 -182 60 c-234 77 -388 120
-457 127 -110 12 -356 -51 -539 -137 -57 -27 -106 -47 -108 -45 -2 2 -22 71
-44 152 -22 82 -42 156 -45 164 -8 21 -32 -47 -49 -138 -21 -116 5 -182 93
-244 46 -32 103 -41 170 -26 24 6 32 4 32 -7 0 -11 20 -7 88 16 135 46 237 70
326 76 94 6 184 -13 455 -96 231 -72 263 -76 440 -54 102 13 213 18 371 18
247 -1 283 -6 573 -91 135 -39 212 -53 256 -46 78 11 170 143 190 272 18 113
111 1000 118 1116 7 126 -2 167 -49 220 -36 41 -45 42 -52 7z M5226 7428 c-3
-7 -10 -59 -16 -115 -14 -118 -3 -110 -135 -93 -283 36 -578 33 -744 -10 -247
-63 -607 -225 -1191 -536 -338 -179 -460 -237 -545 -254 -33 -7 -152 -34 -265
-62 -309 -74 -579 -134 -733 -163 -115 -21 -142 -23 -161 -12 -13 6 -72 59
-132 115 -110 105 -191 162 -231 162 -14 0 -58 -35 -123 -96 -83 -78 -105 -95
-123 -90 -33 10 -301 20 -330 12 -42 -10 -92 -61 -118 -118 -22 -49 -24 -66
-24 -208 0 -119 5 -171 19 -225 56 -209 163 -345 272 -345 24 0 99 13 169 30
232 55 569 119 705 135 74 8 286 26 470 40 693 53 817 68 1024 126 172 49 668
214 912 305 230 85 218 81 211 58 -42 -140 -96 -711 -83 -885 9 -120 137 -891
177 -1063 l12 -49 19 24 c74 94 75 147 7 550 l-51 304 5 545 c5 610 8 582 -67
648 -84 74 -130 68 -516 -68 -315 -110 -673 -220 -795 -245 -145 -29 -296 -45
-815 -85 -570 -44 -654 -55 -1057 -141 -128 -27 -253 -49 -278 -49 -60 0 -95
19 -129 70 -49 74 -56 110 -56 280 0 134 2 160 17 171 11 10 62 16 177 19 173
6 189 11 291 80 88 60 122 54 240 -45 50 -41 115 -87 145 -103 105 -52 227
-37 815 103 171 41 344 81 385 91 137 30 237 76 670 307 439 234 788 393 1011
460 74 23 115 40 117 50 4 21 14 24 147 38 94 10 164 10 354 0 266 -14 295
-10 359 52 69 66 78 118 36 222 -27 67 -41 86 -48 63z M4180 3995 c-96 -18
-223 -57 -433 -133 -281 -102 -485 -154 -717 -184 -83 -10 -383 -13 -1402 -13
l-1298 0 0 -1667 0 -1668 5000 0 5000 0 0 1668 0 1667 -962 -3 c-681 -2 -991
0 -1058 8 -136 17 -274 55 -630 173 -438 146 -616 183 -735 152 -33 -8 -188
-78 -345 -155 -284 -138 -347 -165 -418 -176 -59 -9 -167 19 -306 81 -127 56
-172 66 -229 50 -12 -4 -74 -31 -137 -61 -87 -41 -135 -57 -195 -66 -76 -10
-84 -10 -153 15 -40 14 -152 68 -250 120 -274 148 -406 195 -567 202 -55 3
-119 -1 -165 -10z m365 -260 c44 -15 184 -78 310 -141 127 -63 257 -121 290
-129 125 -32 215 -19 430 59 119 44 150 43 289 -9 250 -94 360 -88 615 30 64
29 192 83 285 120 291 115 330 112 917 -80 340 -111 492 -150 646 -165 54 -5
470 -10 926 -10 l827 0 0 -1425 0 -1425 -4760 0 -4760 0 0 1425 0 1425 1124 0
c695 0 1174 4 1253 10 255 21 460 66 738 160 502 171 576 191 700 186 63 -3
114 -12 170 -31z"/>
</g>
</svg>
