<?xml version="1.0" standalone="no"?>
<!DOCTYPE svg PUBLIC "-//W3C//DTD SVG 20010904//EN"
 "http://www.w3.org/TR/2001/REC-SVG-20010904/DTD/svg10.dtd">
<svg version="1.0" xmlns="http://www.w3.org/2000/svg"
 width="2048.000000pt" height="2048.000000pt" viewBox="0 0 2048.000000 2048.000000"
 preserveAspectRatio="xMidYMid meet">
<metadata>
Created by potrace 1.13, written by Peter Selinger 2001-2015
</metadata>
<g transform="translate(0.000000,2048.000000) scale(0.192120,-0.192120)"
fill="#000000" stroke="none">
<path d="M8620 9771 c-321 -7 -331 -9 -401 -89 -43 -50 -55 -62 -105 -109 -30
-28 -151 -231 -458 -769 -359 -628 -422 -735 -454 -756 -39 -25 -857 -732
-880 -761 -12 -14 -7 -15 60 -11 191 14 243 36 398 168 63 54 125 102 137 107
39 15 386 324 445 396 70 86 827 1406 857 1494 11 35 21 88 21 118 0 78 7 84
78 84 107 -1 205 -60 256 -152 39 -72 44 -143 17 -207 l-22 -50 -68 4 c-53 3
-76 0 -107 -16 -73 -38 -55 -9 -489 -767 -297 -519 -419 -718 -482 -790 -10
-11 -94 -87 -188 -169 -206 -179 -377 -354 -405 -411 -23 -48 -40 -205 -22
-205 14 0 16 2 442 372 201 174 374 331 386 350 12 18 225 390 474 826 l453
792 362 0 c415 0 436 3 512 73 63 58 93 124 93 207 -1 110 -53 194 -155 248
-49 26 -53 27 -260 28 -115 0 -338 -2 -495 -5z M1351 8314 c-25 -9 -54 -22
-65 -29 -12 -7 -174 -97 -361 -199 -369 -202 -408 -230 -439 -323 -62 -183 70
-367 263 -367 77 0 69 -3 403 180 l226 125 -15 37 c-22 51 -22 155 1 220 35
103 139 188 252 207 l42 6 7 -50 c4 -28 19 -75 33 -104 29 -56 43 -67 343
-260 75 -48 160 -110 189 -138 58 -55 105 -87 563 -378 175 -111 322 -199 327
-196 5 3 67 -28 138 -70 155 -91 298 -155 429 -190 110 -30 133 -29 282 12 86
24 91 27 70 39 -36 18 -447 184 -504 203 -29 10 -412 247 -905 560 -470 299
-872 549 -893 556 -27 8 -49 26 -75 60 -73 95 -205 138 -311 99z M1437 7706
c-21 -8 -41 -17 -44 -20 -21 -21 145 -134 920 -626 460 -292 837 -535 837
-539 0 -18 82 -92 127 -114 59 -30 428 -177 443 -177 27 0 -58 168 -105 208
-18 15 -86 55 -151 89 -109 58 -197 118 -344 239 -85 69 -163 120 -635 421
-520 330 -748 468 -813 493 -26 10 -58 22 -72 27 -39 15 -121 14 -163 -1z
M5710 6989 c-267 -154 -498 -288 -513 -298 -28 -18 -36 -16 -499 76 -259 52
-480 92 -492 89 -28 -7 -112 -89 -163 -157 -95 -129 -174 -291 -248 -510 l-43
-126 104 -53 c131 -67 276 -158 412 -258 59 -43 159 -114 222 -157 63 -44 117
-83 119 -88 14 -34 160 -182 403 -410 334 -311 399 -380 454 -473 115 -197
232 -535 269 -779 28 -187 21 -218 -77 -345 -67 -87 -242 -350 -236 -355 2 -1
35 -26 73 -55 39 -30 120 -92 180 -140 119 -95 215 -156 284 -183 25 -9 45
-16 46 -14 184 305 235 369 405 502 l141 110 -8 35 c-32 141 34 273 192 385
132 94 242 131 355 121 224 -19 219 -19 340 13 63 17 172 46 242 64 l128 32 0
61 c0 88 -37 475 -56 575 l-16 87 -101 6 c-56 3 -179 9 -272 12 l-170 6 -23
82 c-33 118 -79 211 -124 251 -21 20 -90 60 -152 90 -125 60 -155 87 -253 235
-144 218 -375 656 -419 795 -10 29 -8 31 60 74 66 41 328 226 494 348 39 30
72 58 72 62 0 5 -21 38 -47 73 -98 132 -296 306 -505 442 -47 31 -88 56 -90
56 -1 0 -221 -127 -488 -281z m575 -88 c49 -22 140 -94 155 -121 18 -33 -11
-67 -138 -163 -65 -49 -175 -145 -247 -214 -173 -167 -185 -176 -370 -288
-278 -168 -483 -259 -730 -325 -128 -35 -211 -38 -270 -11 -22 10 -126 79
-230 153 -105 74 -231 161 -280 193 -50 33 -93 64 -97 70 -13 18 -9 91 8 130
33 81 95 165 141 191 56 33 56 33 468 -47 171 -34 348 -63 395 -66 138 -8 160
1 625 270 383 222 432 247 485 247 25 0 63 -9 85 -19z m-147 -773 c-14 -53
-18 -95 -15 -153 4 -79 5 -83 127 -330 135 -275 173 -340 267 -462 76 -99 138
-155 264 -238 92 -61 98 -67 150 -156 67 -116 181 -239 254 -274 43 -22 79
-29 206 -40 85 -8 156 -14 157 -14 2 -1 2 -53 0 -116 -4 -136 -1 -132 -132
-163 -115 -27 -134 -30 -285 -42 -191 -16 -302 -51 -436 -137 -78 -51 -190
-155 -241 -225 -19 -26 -59 -93 -88 -150 -84 -164 -89 -170 -191 -269 -53 -52
-128 -131 -167 -176 -70 -83 -93 -99 -138 -94 -52 5 -120 68 -120 110 0 15 28
72 66 131 36 58 82 139 102 180 36 73 37 78 40 210 5 171 -17 299 -90 530 -59
187 -173 437 -245 538 -115 161 -368 419 -533 543 -57 43 -201 118 -303 159
-31 12 -59 26 -62 30 -2 4 57 24 133 44 245 67 472 147 597 211 147 75 397
225 565 339 69 47 128 85 131 85 4 1 -2 -32 -13 -71z M7802 4641 c-16 -10 77
-88 148 -123 25 -13 47 -26 48 -30 2 -5 24 -8 48 -8 24 0 44 -4 44 -9 0 -6
116 -11 278 -13 l277 -3 135 -48 c74 -27 232 -81 350 -122 245 -83 330 -115
485 -180 61 -26 133 -55 160 -67 28 -11 64 -26 80 -33 17 -8 61 -26 99 -40 76
-28 96 -41 96 -61 0 -23 -46 -27 -107 -9 -32 9 -67 19 -78 21 -11 2 -132 39
-270 83 -137 44 -367 114 -510 155 -143 42 -309 92 -370 110 -138 43 -246 56
-453 56 -135 0 -164 -3 -168 -15 -4 -9 -19 -15 -41 -15 -43 0 -128 -54 -179
-114 l-35 -41 373 -5 373 -6 385 -133 c800 -276 1058 -361 1102 -361 146 0
258 111 258 255 0 35 -5 76 -11 92 -19 50 -62 104 -104 128 -23 14 -261 99
-531 191 -269 91 -579 196 -689 234 -110 37 -223 79 -251 94 l-52 26 -438 0
c-242 0 -445 -4 -452 -9z M7115 3841 c-92 -42 -130 -104 -123 -201 6 -83 48
-167 121 -240 79 -80 116 -97 247 -115 208 -28 298 -68 468 -205 131 -106 152
-117 238 -129 37 -6 70 -14 74 -18 16 -17 70 -160 80 -211 15 -82 -11 -235
-56 -323 l-13 -27 -78 39 c-154 75 -293 85 -491 33 -205 -54 -212 -56 -248
-44 -47 16 -136 99 -206 193 -32 43 -58 75 -58 70 0 -5 28 -76 61 -159 69
-168 80 -234 44 -274 -83 -93 -222 10 -271 199 -14 58 -15 67 0 104 19 50 15
58 -69 132 l-66 58 29 31 c58 62 80 103 107 194 22 78 26 108 23 180 -3 74 -9
97 -36 152 -55 109 -130 170 -206 170 -68 0 -67 -7 17 -172 l78 -153 -29 -80
c-27 -72 -41 -145 -74 -380 -5 -38 -8 -144 -5 -235 5 -187 24 -275 82 -398
l35 -74 -43 9 c-87 17 -226 7 -317 -22 -174 -56 -341 -156 -455 -271 -101
-103 -163 -215 -210 -379 -25 -87 -57 -247 -50 -253 1 -2 16 21 33 51 87 153
298 258 492 243 41 -3 147 -24 235 -46 146 -38 169 -41 260 -38 84 4 108 8
151 31 100 51 204 167 234 260 6 20 13 37 15 37 2 0 29 -13 61 -29 256 -127
585 -80 898 127 109 72 284 252 328 337 70 135 103 311 96 497 -6 138 -28 221
-79 294 -29 43 -163 149 -304 241 -40 27 -82 62 -94 79 -26 38 -144 155 -191
189 -153 113 -354 174 -530 161 l-86 -6 -23 47 c-12 27 -49 96 -82 155 -32 58
-59 111 -59 116 0 6 20 22 45 36 25 15 45 29 45 31 0 7 0 7 -45 -14z m1139
-1594 c-4 -204 -301 -453 -612 -513 -92 -17 -165 -17 -262 1 -224 42 -212 42
-282 7 -37 -19 -104 -68 -163 -122 -112 -101 -144 -119 -218 -127 -56 -5 -324
50 -382 78 -33 16 -36 44 -7 65 32 23 168 65 275 84 188 34 242 79 338 281 4
9 11 32 14 52 l7 35 46 -20 c95 -43 161 -19 260 91 l64 71 56 0 c32 0 104 12
162 26 59 14 151 27 210 31 91 4 120 1 219 -22 132 -30 172 -28 222 15 19 16
39 28 44 26 6 -2 10 -28 9 -59z M5446 2972 c-96 -192 -237 -507 -246 -548 -6
-25 -8 -60 -5 -77 3 -18 -26 -351 -64 -740 -39 -390 -71 -735 -71 -767 0 -44
7 -71 28 -111 97 -186 363 -185 457 1 23 45 30 105 99 812 42 419 80 779 85
798 5 19 47 118 94 220 47 102 81 187 76 189 -15 5 -128 -38 -171 -65 -55 -35
-76 -61 -118 -149 -71 -151 -77 -181 -130 -720 -11 -110 -24 -270 -30 -355 -6
-85 -23 -234 -36 -330 -20 -142 -31 -185 -54 -230 -18 -37 -34 -55 -46 -55
-18 0 -19 14 -22 240 -2 222 1 275 43 705 26 256 48 497 51 535 6 79 16 112
84 275 27 63 51 138 55 167 7 53 -6 167 -28 240 l-13 43 -38 -78z"/>
</g>
</svg>
