<?xml version="1.0" standalone="no"?>
<!DOCTYPE svg PUBLIC "-//W3C//DTD SVG 20010904//EN"
 "http://www.w3.org/TR/2001/REC-SVG-20010904/DTD/svg10.dtd">
<svg version="1.0" xmlns="http://www.w3.org/2000/svg"
 width="2048.000000pt" height="2048.000000pt" viewBox="0 0 2048.000000 2048.000000"
 preserveAspectRatio="xMidYMid meet">
<metadata>
Created by potrace 1.13, written by Peter Selinger 2001-2015
</metadata>
<g transform="translate(0.000000,2048.000000) scale(0.192120,-0.192120)"
fill="#000000" stroke="none">
<path d="M6433 10036 c-135 -43 -237 -157 -263 -295 -6 -33 -10 -315 -10 -731
l0 -677 91 -6 c57 -4 108 -14 136 -27 25 -11 47 -20 49 -20 2 0 4 275 4 610
l0 610 695 0 695 0 0 -1805 0 -1805 -654 0 -654 0 -26 -34 c-41 -54 -118 -86
-233 -97 -54 -4 -99 -8 -100 -9 -9 -1 -1 -348 8 -392 26 -121 103 -217 217
-271 l67 -32 743 -3 c667 -2 786 1 733 20 -23 8 -103 146 -128 221 -25 75 -27
95 -27 227 1 128 4 156 28 235 59 197 172 383 329 540 l80 80 13 330 c7 182
15 359 18 395 4 64 3 68 -69 220 -137 292 -138 294 -133 365 3 49 11 74 36
115 l32 51 0 928 c0 805 -2 935 -16 986 -18 73 -53 134 -104 185 l-39 39 40
-14 c88 -31 169 -108 209 -197 11 -25 24 -87 29 -139 16 -148 21 -1525 6
-1575 -7 -22 -30 -67 -52 -100 -70 -104 -70 -104 0 -70 117 57 227 44 305 -37
40 -41 270 -530 279 -592 6 -44 -13 -588 -23 -676 l-6 -47 40 -7 c22 -3 48
-12 58 -20 17 -12 17 -15 -9 -54 -15 -22 -27 -45 -27 -51 0 -5 -4 -10 -8 -10
-23 0 -32 -117 -47 -575 -15 -477 -24 -610 -44 -707 -13 -61 -60 -153 -127
-249 -88 -126 -103 -183 -64 -259 22 -43 40 -59 40 -36 0 17 10 27 80 81 90
70 181 198 220 311 42 119 40 89 90 1624 11 344 25 740 30 881 8 208 7 274 -5
350 -33 221 -123 367 -292 479 -74 48 -218 109 -230 97 -10 -11 58 -113 144
-214 216 -253 244 -318 297 -678 9 -60 19 -126 22 -145 4 -29 -170 316 -220
434 -17 42 -71 103 -106 121 -44 23 -105 33 -149 25 l-41 -7 -1 246 c0 135 0
523 1 861 1 412 -2 638 -10 685 -21 131 -101 238 -218 293 l-57 27 -815 2
c-654 2 -823 -1 -857 -11z m1715 -2752 c12 -54 24 -135 27 -179 9 -122 -11
-650 -28 -711 -35 -125 -36 -104 -36 471 0 313 4 551 9 539 4 -11 17 -65 28
-120z m-638 -1801 c0 -65 -3 -129 -7 -142 l-6 -24 -231 7 c-127 4 -343 11
-481 14 -222 6 -255 9 -290 27 l-40 20 -3 67 -3 67 52 27 c96 48 141 52 592
53 l417 1 0 -117z M6051 8332 c-45 -43 -46 -45 -61 -262 -17 -249 -15 -267 20
-300 27 -25 30 -34 30 -92 0 -60 -2 -64 -30 -80 -17 -9 -34 -27 -39 -40 -4
-13 -5 -126 -2 -252 l6 -228 33 -27 c30 -26 32 -31 32 -94 0 -57 -3 -67 -17
-67 -23 -1 -46 -19 -62 -47 -14 -28 13 -434 32 -463 6 -10 21 -23 33 -29 31
-14 53 -134 29 -160 -20 -23 -19 -37 6 -216 22 -162 32 -200 56 -210 9 -3 16
-4 17 -3 1 2 17 50 35 108 44 136 44 175 -3 269 -21 40 -36 74 -34 76 2 2 41
8 88 13 86 11 147 5 187 -16 28 -15 33 -15 33 1 0 7 24 23 53 35 61 25 130 89
159 145 24 48 18 56 -21 28 -16 -12 -48 -28 -70 -36 -43 -15 -259 -35 -379
-35 l-74 0 8 48 c16 86 10 350 -10 421 -9 35 -13 67 -9 72 4 4 83 13 176 20
92 6 167 16 167 20 0 5 20 31 45 59 45 50 70 89 63 96 -2 2 -33 -9 -68 -24
-60 -24 -78 -27 -227 -30 -90 -2 -163 0 -163 5 0 4 9 37 20 71 29 93 28 304
-2 413 -11 44 -18 82 -14 87 4 4 84 7 177 7 l169 0 0 82 0 82 -27 -14 c-54
-28 -127 -37 -224 -26 -50 6 -93 12 -95 14 -2 2 10 43 26 92 45 128 48 186 16
333 -14 67 -26 138 -26 157 0 19 -4 35 -10 35 -5 0 -27 -17 -49 -38z m314
-642 c-3 -5 -12 -10 -18 -10 -7 0 -6 4 3 10 19 12 23 12 15 0z M6552 8035 c0
-69 3 -101 8 -85 10 31 10 125 0 165 -5 19 -8 -10 -8 -80z M6590 7335 c0 -96
4 -175 8 -175 4 0 17 15 27 33 16 26 20 50 20 132 0 85 -3 106 -23 143 -12 23
-25 42 -27 42 -3 0 -5 -79 -5 -175z M6665 6805 c33 -61 35 -72 36 -163 0 -53
4 -106 8 -116 13 -34 36 42 36 119 0 81 -15 123 -62 183 -50 61 -57 52 -18
-23z M7120 4946 c0 -7 16 -45 36 -85 26 -53 53 -87 105 -133 56 -52 72 -73 86
-115 9 -29 20 -53 23 -53 24 0 70 87 70 131 0 66 -61 125 -236 228 -77 45 -84
47 -84 27z M7355 4491 c-66 -16 -114 -63 -196 -189 -27 -43 -332 -510 -677
-1040 -524 -804 -630 -962 -647 -959 -11 2 -844 191 -1851 421 -1008 229
-1836 416 -1840 416 -5 0 -9 -629 -9 -1405 l0 -1405 2330 0 c1596 0 2358 3
2420 11 228 27 378 90 496 208 50 50 88 98 109 141 45 90 1324 3303 1339 3365
7 28 13 85 13 127 0 165 -90 265 -273 303 -58 12 -170 15 -627 14 -306 -1
-570 -4 -587 -8z m1105 -261 c25 -6 58 -16 73 -22 l29 -11 -4 -101 -3 -101
-588 -1475 c-324 -811 -605 -1513 -624 -1560 -118 -278 -227 -340 -628 -360
-104 -5 -1118 -9 -2252 -10 l-2063 0 0 1101 0 1101 38 -7 c20 -3 728 -163
1572 -355 1801 -409 1677 -382 1765 -384 95 -2 147 25 250 128 72 72 142 175
630 921 712 1090 668 1024 712 1069 75 78 60 76 583 76 273 0 484 -5 510 -10z"/>
</g>
</svg>
