<?xml version="1.0" standalone="no"?>
<!DOCTYPE svg PUBLIC "-//W3C//DTD SVG 20010904//EN"
 "http://www.w3.org/TR/2001/REC-SVG-20010904/DTD/svg10.dtd">
<svg version="1.0" xmlns="http://www.w3.org/2000/svg"
 width="2048.000000pt" height="2048.000000pt" viewBox="0 0 2048.000000 2048.000000"
 preserveAspectRatio="xMidYMid meet">
<metadata>
Created by potrace 1.13, written by Peter Selinger 2001-2015
</metadata>
<g transform="translate(0.000000,2048.000000) scale(0.192120,-0.192120)"
fill="#000000" stroke="none">
<path d="M5115 9914 c-323 -24 -584 -74 -834 -158 -841 -286 -1408 -967 -1492
-1796 -20 -197 -2 -501 42 -736 l22 -110 -46 -48 c-202 -207 -265 -622 -148
-964 57 -165 155 -285 274 -337 52 -23 67 -34 67 -50 0 -44 33 -216 70 -360
134 -528 402 -1003 766 -1355 108 -105 248 -219 338 -276 l46 -29 0 -127 0
-126 513 -363 c281 -199 531 -376 554 -392 26 -18 46 -26 55 -21 7 4 257 180
556 392 l542 383 0 127 0 127 64 42 c255 167 546 475 728 769 205 332 366 771
420 1146 l12 87 44 15 c139 48 260 212 320 436 23 84 26 115 26 265 0 142 -3
184 -22 257 -37 149 -98 273 -171 345 -32 32 -32 33 -22 90 22 125 34 329 35
573 0 240 -1 262 -26 381 -153 711 -715 1331 -1474 1627 -216 84 -414 133
-664 167 -110 15 -489 27 -595 19z m580 -274 c410 -55 781 -191 1095 -401 394
-264 669 -608 796 -996 l34 -104 0 -555 c0 -471 -2 -554 -14 -554 -8 0 -16 -5
-18 -10 -6 -20 -66 55 -116 145 -27 50 -90 172 -141 271 -80 161 -98 188 -151
237 -37 35 -77 61 -107 71 -27 9 -133 23 -238 31 -415 33 -694 85 -930 171
-55 20 -129 47 -165 60 -76 28 -155 31 -189 8 l-22 -16 23 -25 c34 -37 146
-108 222 -143 265 -118 699 -201 1146 -218 l175 -7 211 -415 c231 -455 263
-504 327 -504 25 0 45 8 62 24 36 34 80 131 108 235 l23 87 20 -99 c16 -83 19
-141 19 -388 l0 -290 -32 -67 c-44 -93 -79 -141 -181 -251 -112 -121 -150
-196 -195 -382 -47 -193 -233 -700 -317 -864 -107 -210 -292 -423 -570 -657
-207 -174 -251 -233 -260 -348 l-5 -69 -60 -34 c-71 -39 -238 -106 -350 -140
-442 -132 -933 -101 -1369 88 -49 21 -108 50 -132 64 -43 25 -44 27 -44 78 0
102 -66 195 -235 335 -172 143 -268 238 -364 362 -123 158 -155 208 -252 389
-148 275 -219 477 -303 861 -9 41 -22 89 -28 105 -20 52 -93 148 -176 227 -44
43 -96 104 -115 135 -62 102 -67 136 -67 423 0 228 3 271 25 398 14 78 25 146
25 150 0 4 18 -36 40 -88 84 -201 190 -290 246 -205 9 13 31 86 49 162 113
464 321 844 624 1136 67 64 127 117 133 117 6 0 41 -24 77 -53 261 -211 511
-367 660 -411 75 -22 148 -21 188 4 58 35 83 119 65 218 -5 28 -6 52 -3 52 4
0 38 -32 76 -71 164 -166 405 -364 505 -413 69 -35 98 -39 127 -20 25 16 25
19 20 93 -3 45 -16 107 -32 151 -35 96 -106 250 -115 250 -21 0 -40 -53 -40
-110 0 -55 -2 -61 -24 -70 -13 -5 -27 -14 -31 -19 -3 -6 -10 -11 -14 -11 -5 0
-64 46 -132 101 -161 132 -218 169 -268 176 -58 8 -88 -8 -171 -94 l-74 -75
-44 6 c-94 13 -245 96 -482 265 -152 109 -233 151 -289 151 -16 0 -62 -17
-102 -37 -58 -29 -97 -59 -179 -142 -195 -196 -376 -482 -498 -791 -23 -58
-51 -120 -63 -139 -18 -30 -22 -32 -35 -19 -9 8 -24 48 -34 89 -18 67 -20 112
-20 472 0 366 2 405 20 477 51 198 141 394 257 560 83 117 317 353 431 434
336 238 757 390 1207 435 61 6 126 13 145 15 66 8 535 -3 615 -14z m-1050
-6320 c208 -99 351 -125 690 -125 283 0 366 11 545 71 118 39 202 82 305 156
66 48 68 49 35 14 -50 -53 -288 -209 -470 -308 -85 -47 -184 -104 -220 -127
-115 -73 -181 -102 -218 -96 -31 6 -103 44 -162 85 -14 10 -108 63 -210 119
-208 115 -447 271 -500 326 -31 32 -25 30 45 -20 43 -31 115 -74 160 -95z
M4132 6982 c-71 -26 -118 -66 -156 -132 l-31 -55 0 -215 0 -215 31 -55 c114
-203 392 -192 496 19 22 43 23 58 23 251 0 193 -1 208 -23 251 -65 132 -210
197 -340 151z M6368 6987 c-77 -22 -143 -80 -181 -157 -20 -42 -22 -59 -22
-250 0 -188 2 -209 21 -250 68 -144 236 -205 377 -137 60 30 95 65 130 131 21
39 22 54 22 256 0 202 -1 217 -22 256 -35 65 -70 101 -127 129 -64 31 -136 39
-198 22z M5074 5811 c-52 -13 -103 -50 -128 -94 -33 -58 -40 -99 -25 -159 14
-62 77 -131 136 -148 25 -8 124 -10 295 -8 l256 3 44 30 c128 91 123 274 -10
352 l-47 28 -245 2 c-135 1 -259 -2 -276 -6z M6187 4816 c-22 -8 -49 -23 -60
-34 -48 -45 -220 -97 -412 -124 -122 -18 -648 -18 -770 0 -198 28 -334 71
-440 138 -82 52 -201 15 -247 -77 -22 -41 -23 -120 -4 -158 50 -96 233 -184
490 -236 175 -35 331 -47 586 -47 255 0 411 12 585 47 268 54 454 145 495 245
20 49 9 142 -23 183 -45 60 -133 87 -200 63z M4001 3299 c-45 -34 -84 -66 -87
-71 -9 -15 55 0 91 21 31 18 93 97 83 106 -3 3 -42 -22 -87 -56z M6594 3322
c8 -16 30 -40 48 -54 33 -24 98 -52 105 -44 5 5 -149 126 -160 126 -4 0 -1
-13 7 -28z M2936 3099 c-557 -59 -1057 -402 -1310 -899 -66 -131 -123 -291
-150 -420 -31 -155 -36 -274 -36 -860 l0 -590 1555 0 c855 0 1555 3 1555 6 0
3 -171 605 -380 1337 -210 733 -388 1356 -396 1385 l-15 52 -372 -1 c-205 -1
-408 -5 -451 -10z m804 -387 c5 -119 15 -252 21 -296 7 -45 106 -411 221 -814
114 -403 219 -775 233 -826 25 -93 31 -150 19 -181 -8 -21 -56 -45 -89 -45
-34 0 -55 -11 -141 -76 -76 -58 -94 -66 -70 -32 19 27 21 48 3 48 -7 0 -177
45 -378 100 -200 55 -411 112 -469 126 -58 15 -108 30 -113 33 -5 6 688 2104
729 2205 7 18 8 18 16 -3 4 -12 12 -119 18 -239z m-329 71 c5 -14 7 -40 4 -57
-4 -17 -130 -402 -280 -856 -151 -454 -283 -859 -295 -900 -25 -91 -27 -235
-5 -264 21 -28 19 -73 -4 -86 -13 -6 -208 -10 -565 -10 l-546 0 0 550 c0 351
4 568 11 602 106 527 597 955 1179 1027 100 13 167 16 353 19 l137 2 11 -27z
M6886 3058 c-8 -29 -186 -652 -396 -1385 -209 -732 -380 -1334 -380 -1337 0
-3 700 -6 1555 -6 l1555 0 0 590 c0 715 -7 796 -87 1045 -176 546 -659 981
-1224 1104 -154 33 -283 41 -655 41 l-353 0 -15 -52z m439 -1209 c201 -600
362 -1095 359 -1100 -3 -5 -11 -9 -17 -9 -7 0 -219 -56 -471 -125 -252 -69
-465 -125 -472 -125 -18 0 -18 -20 2 -48 26 -37 2 -25 -75 38 -40 32 -83 62
-94 65 -12 4 -35 13 -52 20 -16 8 -38 16 -47 19 -15 4 -18 17 -18 66 0 71 -3
59 200 770 261 914 263 924 280 1285 6 120 13 230 17 243 5 21 7 22 15 8 5 -9
173 -507 373 -1107z m302 951 c231 -16 410 -63 598 -157 314 -159 554 -431
661 -753 l28 -85 4 -597 3 -598 -544 0 c-429 0 -547 3 -561 13 -14 10 -16 21
-11 50 4 21 11 40 16 43 18 10 10 174 -12 248 -11 39 -143 442 -294 896 -150
454 -276 844 -280 867 -13 81 -10 83 128 83 67 0 186 -5 264 -10z M4475 2915
l-25 -24 0 -469 0 -469 23 -21 c13 -12 31 -22 41 -22 10 0 197 99 417 220
l400 221 399 -221 c220 -121 408 -220 419 -220 11 0 29 12 40 26 21 26 21 36
21 491 l0 464 -25 24 c-13 14 -30 25 -37 25 -7 0 -193 -99 -413 -220 -219
-121 -402 -220 -405 -220 -3 0 -166 88 -361 196 -392 217 -443 244 -459 244
-6 0 -22 -11 -35 -25z m316 -441 c56 -31 69 -56 42 -86 -16 -18 -84 -58 -98
-58 -3 0 -5 38 -5 85 0 47 3 85 6 85 4 0 28 -12 55 -26z m1119 -59 c0 -41 -2
-75 -5 -75 -14 0 -62 30 -80 50 -15 16 -17 25 -9 38 12 18 72 62 85 62 5 0 9
-34 9 -75z M4130 2522 c33 -62 89 -136 97 -128 5 5 -114 186 -123 186 -3 0 9
-26 26 -58z M6489 2489 c-63 -94 -74 -128 -21 -63 32 38 98 154 88 154 -3 0
-33 -41 -67 -91z M5260 1664 c-78 -34 -121 -98 -122 -180 -1 -43 5 -64 28
-101 101 -163 354 -95 354 95 0 62 -13 98 -48 136 -56 60 -142 80 -212 50z
M5245 865 c-119 -60 -144 -216 -50 -310 94 -94 246 -71 306 47 31 62 24 154
-17 204 -16 20 -45 45 -64 55 -43 23 -133 25 -175 4z M4735 404 c-27 -13 -63
-36 -80 -49 l-30 -25 705 0 705 0 -25 21 c-14 11 -50 32 -80 47 -49 24 -66 27
-155 26 -87 0 -116 -6 -225 -40 -168 -52 -265 -54 -420 -7 -204 61 -313 69
-395 27z"/>
</g>
</svg>
