<?xml version="1.0" standalone="no"?>
<!DOCTYPE svg PUBLIC "-//W3C//DTD SVG 20010904//EN"
 "http://www.w3.org/TR/2001/REC-SVG-20010904/DTD/svg10.dtd">
<svg version="1.0" xmlns="http://www.w3.org/2000/svg"
 width="2048.000000pt" height="2048.000000pt" viewBox="0 0 2048.000000 2048.000000"
 preserveAspectRatio="xMidYMid meet">
<metadata>
Created by potrace 1.13, written by Peter Selinger 2001-2015
</metadata>
<g transform="translate(0.000000,2048.000000) scale(0.192120,-0.192120)"
fill="#000000" stroke="none">
<path d="M5115 9914 c-322 -24 -587 -74 -833 -158 -843 -287 -1409 -967 -1493
-1796 -20 -197 -2 -501 42 -736 l22 -110 -46 -48 c-252 -259 -278 -835 -53
-1151 54 -75 114 -124 190 -156 l54 -22 7 -61 c25 -231 127 -576 250 -847 200
-443 564 -881 919 -1105 l46 -29 0 -127 0 -126 547 -389 c301 -213 552 -389
559 -391 6 -2 258 172 560 386 l549 389 3 130 3 129 30 18 c77 45 239 176 340
273 375 363 643 833 779 1368 37 146 70 316 70 361 0 18 10 26 48 38 142 49
259 207 320 436 22 83 25 117 26 260 1 123 -3 185 -16 243 -33 146 -103 290
-177 364 -32 32 -32 33 -22 90 22 126 35 330 35 573 0 240 -1 263 -26 381
-107 496 -410 949 -863 1289 -362 272 -792 442 -1276 505 -110 15 -491 27
-594 19z m543 -329 c868 -94 1608 -614 1857 -1305 54 -149 55 -159 55 -593 0
-392 -4 -457 -31 -457 -18 0 -64 71 -145 225 -94 178 -162 266 -251 323 -66
42 -99 49 -328 67 -457 36 -650 77 -1070 230 -126 45 -163 44 -235 -11 -28
-22 -60 -53 -70 -70 -11 -17 -30 -42 -44 -57 -34 -36 -62 -26 -177 63 -143
110 -215 141 -273 116 -17 -7 -62 -39 -101 -71 -38 -32 -85 -65 -103 -73 -30
-15 -37 -15 -90 3 -73 25 -222 115 -385 232 -163 117 -243 158 -311 157 -95
-2 -213 -79 -360 -236 -153 -161 -257 -313 -377 -545 -137 -266 -149 -250
-149 200 0 331 5 375 67 557 164 487 586 890 1147 1095 392 144 909 200 1374
150z m-1590 -1490 c221 -177 489 -340 621 -379 75 -22 148 -21 188 4 53 32 68
72 67 177 l-1 92 134 -129 c218 -210 410 -355 506 -381 31 -8 43 -7 63 6 52
34 20 198 -81 413 -24 50 -42 92 -39 92 2 0 29 -20 58 -44 226 -184 735 -312
1331 -334 l180 -7 210 -414 c231 -455 263 -505 328 -505 25 0 45 8 62 24 36
34 80 131 108 236 l24 89 18 -120 c16 -104 17 -134 7 -225 -7 -58 -12 -133
-12 -165 0 -33 -5 -86 -10 -117 -6 -32 -14 -82 -19 -112 -18 -102 -67 -187
-179 -308 -136 -148 -176 -220 -216 -390 -35 -148 -88 -304 -201 -594 -90
-234 -118 -292 -203 -424 -128 -197 -228 -305 -482 -516 -123 -103 -215 -206
-251 -282 -28 -58 -31 -71 -25 -126 l6 -62 -52 -26 c-525 -265 -1172 -273
-1710 -21 l-98 46 0 71 c0 49 -7 85 -20 114 -27 60 -100 152 -168 211 -31 27
-111 96 -177 154 -196 169 -329 341 -483 622 -142 261 -219 479 -297 840 -32
152 -66 209 -226 381 -103 110 -145 181 -159 268 -5 31 -13 62 -17 69 -12 19
-21 502 -12 597 16 156 16 155 60 50 83 -203 188 -291 245 -205 9 13 29 80 45
147 89 371 250 710 462 974 68 84 281 294 298 294 6 0 59 -38 117 -85z m1827
-4847 c-27 -17 -160 -88 -294 -156 -217 -110 -249 -124 -282 -119 -55 7 -589
280 -576 294 3 2 34 -5 70 -16 152 -47 238 -56 517 -56 286 0 372 10 521 59
98 32 103 31 44 -6z M4148 6986 c-96 -26 -173 -104 -199 -200 -6 -23 -9 -117
-7 -230 l3 -191 31 -55 c114 -203 392 -192 496 19 22 43 23 58 23 251 0 193
-1 208 -23 251 -62 126 -197 191 -324 155z m82 -411 c0 -122 -2 -145 -15 -145
-13 0 -15 23 -15 145 0 122 2 145 15 145 13 0 15 -23 15 -145z M6375 6989
c-95 -23 -185 -117 -206 -217 -6 -32 -10 -122 -7 -225 3 -154 5 -177 26 -218
71 -145 234 -204 375 -136 60 30 95 65 130 131 21 39 22 54 22 256 0 202 -1
217 -22 256 -35 65 -70 101 -126 128 -60 29 -135 39 -192 25z m83 -411 c-3
-127 -5 -143 -20 -146 -17 -3 -18 9 -18 142 0 140 1 146 20 146 20 0 20 -5 18
-142z M5072 5811 c-74 -19 -140 -89 -157 -169 -4 -18 -1 -56 6 -84 14 -62 77
-131 136 -148 25 -8 124 -10 295 -8 l256 3 44 30 c59 42 93 105 92 175 0 60
-17 100 -60 144 -60 59 -67 61 -334 63 -135 1 -260 -2 -278 -6z M6187 4815
c-22 -7 -49 -22 -60 -33 -48 -45 -220 -97 -412 -124 -121 -17 -648 -17 -770 0
-195 28 -307 63 -445 138 -79 43 -169 23 -226 -51 -32 -42 -42 -114 -25 -168
43 -129 309 -236 703 -283 182 -22 576 -21 763 1 305 36 531 108 636 202 52
47 70 83 71 143 0 88 -51 155 -137 179 -49 13 -51 13 -98 -4z M3976 3279 c-37
-28 -66 -53 -63 -55 11 -11 69 11 95 37 24 24 49 69 38 69 -2 0 -33 -23 -70
-51z M6626 3301 c20 -33 47 -55 89 -71 41 -15 29 5 -27 47 -79 59 -84 60 -62
24z M2936 3099 c-557 -59 -1057 -402 -1310 -899 -66 -131 -123 -291 -150 -420
-31 -155 -36 -274 -36 -860 l0 -590 1555 0 c855 0 1555 3 1555 6 0 3 -171 605
-380 1337 -210 733 -388 1356 -396 1385 l-15 52 -372 -1 c-205 -1 -408 -5
-451 -10z m804 -387 c5 -119 15 -252 21 -296 7 -45 106 -411 221 -814 114
-403 219 -775 233 -826 25 -93 31 -150 19 -181 -8 -21 -56 -45 -89 -45 -34 0
-55 -11 -141 -76 -76 -58 -94 -66 -70 -32 19 27 21 48 3 48 -7 0 -177 45 -378
100 -200 55 -411 112 -469 126 -58 15 -108 30 -113 33 -5 6 688 2104 729 2205
7 18 8 18 16 -3 4 -12 12 -119 18 -239z m-329 71 c5 -14 7 -40 4 -57 -4 -17
-130 -402 -280 -856 -151 -454 -283 -859 -295 -900 -25 -91 -27 -235 -5 -264
21 -28 19 -73 -4 -86 -13 -6 -208 -10 -565 -10 l-546 0 0 550 c0 351 4 568 11
602 106 527 597 955 1179 1027 100 13 167 16 353 19 l137 2 11 -27z M6886
3058 c-8 -29 -186 -652 -396 -1385 -209 -732 -380 -1334 -380 -1337 0 -3 700
-6 1555 -6 l1555 0 0 590 c0 715 -7 796 -87 1045 -176 546 -659 981 -1224
1104 -154 33 -283 41 -655 41 l-353 0 -15 -52z m439 -1209 c201 -600 362
-1095 359 -1100 -3 -5 -11 -9 -17 -9 -7 0 -219 -56 -471 -125 -252 -69 -465
-125 -472 -125 -18 0 -18 -20 2 -48 26 -37 2 -25 -75 38 -40 32 -83 62 -94 65
-12 4 -35 13 -52 20 -16 8 -38 16 -47 19 -15 4 -18 17 -18 66 0 71 -3 59 200
770 261 914 263 924 280 1285 6 120 13 230 17 243 5 21 7 22 15 8 5 -9 173
-507 373 -1107z m302 951 c231 -16 410 -63 598 -157 314 -159 554 -431 661
-753 l28 -85 4 -597 3 -598 -544 0 c-429 0 -547 3 -561 13 -14 10 -16 21 -11
50 4 21 11 40 16 43 18 10 10 174 -12 248 -11 39 -143 442 -294 896 -150 454
-276 844 -280 867 -13 81 -10 83 128 83 67 0 186 -5 264 -10z M4475 2915 l-25
-24 0 -469 0 -469 23 -21 c13 -12 31 -22 41 -22 10 0 197 99 417 220 l400 221
399 -221 c220 -121 408 -220 419 -220 11 0 29 12 40 26 21 26 21 36 21 491 l0
464 -25 24 c-13 14 -30 25 -37 25 -7 0 -193 -99 -412 -220 -220 -121 -402
-220 -406 -220 -3 0 -186 99 -405 220 -220 121 -406 220 -413 220 -7 0 -24
-11 -37 -25z m320 -443 c55 -30 66 -53 38 -84 -16 -18 -84 -58 -98 -58 -3 0
-5 38 -5 85 0 47 3 85 8 85 4 0 29 -13 57 -28z m1115 -57 c0 -41 -2 -75 -5
-75 -14 0 -62 30 -78 48 -10 11 -17 29 -15 38 3 16 70 63 91 64 4 0 7 -34 7
-75z M4130 2522 c33 -62 89 -136 97 -128 5 5 -114 186 -123 186 -3 0 9 -26 26
-58z M6489 2489 c-63 -94 -74 -128 -21 -63 32 38 98 154 88 154 -3 0 -33 -41
-67 -91z M5260 1664 c-78 -34 -121 -98 -122 -180 -1 -43 5 -64 28 -101 101
-163 354 -95 354 95 0 62 -13 98 -48 136 -56 60 -142 80 -212 50z M5245 865
c-119 -60 -144 -216 -50 -310 94 -94 246 -71 306 47 31 62 24 154 -17 204 -16
20 -45 45 -64 55 -43 23 -133 25 -175 4z M4735 404 c-27 -13 -63 -36 -80 -49
l-30 -25 705 0 705 0 -25 21 c-14 11 -50 32 -80 47 -49 24 -66 27 -155 26 -87
0 -116 -6 -225 -40 -168 -52 -265 -54 -420 -7 -204 61 -313 69 -395 27z"/>
</g>
</svg>
