<?xml version="1.0" standalone="no"?>
<!DOCTYPE svg PUBLIC "-//W3C//DTD SVG 20010904//EN"
 "http://www.w3.org/TR/2001/REC-SVG-20010904/DTD/svg10.dtd">
<svg version="1.0" xmlns="http://www.w3.org/2000/svg"
 width="2048.000000pt" height="2048.000000pt" viewBox="0 0 2048.000000 2048.000000"
 preserveAspectRatio="xMidYMid meet">
<metadata>
Created by potrace 1.13, written by Peter Selinger 2001-2015
</metadata>
<g transform="translate(0.000000,2048.000000) scale(0.192120,-0.192120)"
fill="#000000" stroke="none">
<path d="M5340 10319 c-348 -34 -754 -145 -1012 -275 -46 -24 -47 -24 -150 -9
-279 40 -633 0 -908 -102 -594 -220 -1052 -726 -1210 -1337 -63 -247 -61 -157
-57 -2177 4 -1910 3 -1862 46 -2119 l18 -105 -46 -50 c-145 -155 -248 -359
-281 -552 -6 -40 -13 -73 -15 -73 -1 0 -37 7 -79 16 -61 12 -86 13 -130 4
-103 -21 -186 -99 -212 -198 -6 -26 -16 -46 -21 -45 -5 1 -173 29 -373 63
-258 43 -378 60 -408 55 -113 -17 -206 -170 -159 -261 20 -38 90 -103 148
-137 41 -24 1196 -457 1220 -457 7 0 9 -13 5 -37 -3 -21 -65 -508 -136 -1083
-72 -575 -133 -1060 -136 -1078 l-6 -32 3892 0 3892 0 -6 33 c-3 17 -64 502
-136 1077 -71 575 -132 1061 -136 1081 -5 33 -3 37 21 43 67 17 1164 429 1204
453 58 34 128 99 148 137 47 91 -46 244 -159 261 -31 5 -149 -12 -408 -55
-201 -34 -369 -63 -374 -63 -4 -1 -14 19 -20 45 -26 99 -109 177 -212 198 -44
9 -69 8 -130 -4 -42 -9 -78 -16 -79 -16 -2 0 -9 33 -15 73 -33 194 -137 399
-281 552 l-48 50 14 72 c7 39 22 133 32 209 17 129 18 245 18 1614 0 1620 3
1534 -61 1829 -196 910 -805 1689 -1639 2096 -316 154 -607 242 -955 290 -139
19 -528 27 -660 14z m463 -289 c591 -43 1118 -243 1577 -599 113 -88 303 -272
407 -396 276 -327 477 -747 563 -1179 19 -95 20 -144 20 -1660 0 -1246 -3
-1566 -13 -1580 -12 -16 -16 -15 -78 8 -81 30 -168 53 -273 72 -44 7 -83 19
-88 26 -14 23 -9 77 18 181 75 298 74 270 74 1235 0 474 -4 862 -8 862 -4 0
-13 15 -20 34 -16 44 -129 151 -187 177 -35 15 -105 26 -306 45 -301 28 -482
52 -694 95 -786 157 -1418 461 -1869 899 -160 156 -227 238 -374 460 -74 113
-141 200 -187 247 -104 104 -136 107 -230 21 -83 -76 -112 -136 -171 -358 -89
-337 -194 -545 -363 -723 -155 -162 -320 -257 -579 -331 -64 -19 -134 -41
-155 -50 -47 -21 -195 -161 -203 -193 -4 -12 -10 -23 -15 -23 -5 0 -9 -431 -9
-1024 0 -1119 -3 -1043 61 -1322 32 -142 36 -231 9 -245 -8 -4 -55 -15 -105
-24 -49 -9 -141 -33 -203 -55 l-113 -38 -10 24 c-5 16 -9 758 -9 1927 0 1844
1 1904 19 1982 109 455 426 837 874 1055 288 139 542 188 913 175 236 -9 243
-7 459 76 428 164 843 230 1268 199z m-1564 -1132 c37 -125 158 -340 292 -518
370 -490 942 -874 1649 -1107 427 -140 1000 -242 1460 -259 80 -3 155 -7 168
-10 l23 -5 -4 -822 c-3 -720 -5 -835 -21 -927 -37 -230 -102 -452 -183 -635
-24 -55 -47 -106 -50 -112 -4 -10 24 -12 128 -7 291 14 529 -44 732 -180 116
-76 114 -74 82 -141 -34 -70 -31 -130 12 -212 175 -338 213 -397 285 -443 l28
-17 -53 -12 c-284 -66 -264 -64 -592 -71 -289 -6 -314 -8 -365 -29 -74 -30
-141 -80 -190 -142 -23 -29 -58 -61 -80 -71 -94 -47 -116 -151 -56 -274 l33
-69 -131 -3 -131 -3 3 -1047 c2 -576 1 -1115 -3 -1198 l-7 -151 -68 33 c-38
19 -78 34 -89 34 -12 0 -21 5 -21 10 0 7 -597 10 -1770 10 -1173 0 -1770 -3
-1770 -10 0 -5 -8 -10 -17 -10 -9 0 -44 -15 -79 -34 l-62 -35 -7 152 c-4 84
-5 623 -3 1200 l3 1047 -134 0 c-123 0 -133 1 -126 18 4 9 12 29 17 45 5 15
13 27 17 27 4 0 13 25 20 55 10 44 10 63 0 93 -16 50 -52 95 -92 116 -18 10
-45 36 -61 58 -35 49 -113 111 -171 137 -78 35 -140 41 -401 41 -254 0 -255 0
-417 35 -89 20 -175 38 -190 42 l-28 6 33 22 c61 42 111 122 275 445 42 83 46
139 14 209 -29 61 -29 61 83 136 206 136 444 195 735 181 104 -5 132 -3 128 7
-3 6 -26 57 -50 112 -57 128 -101 259 -137 410 -65 270 -63 236 -67 1303 l-4
972 33 0 c50 0 208 36 309 70 372 124 658 378 839 745 111 226 183 487 196
713 4 61 10 112 14 112 4 0 12 -19 19 -42z m-2634 -5655 l210 -37 577 -6 576
-5 44 -30 c23 -17 54 -51 68 -75 l25 -45 3 -1307 c2 -1305 2 -1306 -18 -1301
-11 3 -20 8 -20 12 0 4 -25 18 -55 32 -30 13 -55 27 -55 32 0 4 -9 7 -20 7
-11 0 -20 5 -20 10 0 7 -193 10 -559 10 -484 0 -560 2 -571 15 -7 8 -25 15
-41 15 l-29 0 0 146 c0 124 14 253 90 862 49 395 95 735 101 757 6 22 17 44
25 48 8 4 14 14 14 21 0 21 95 26 546 26 370 0 424 2 424 15 0 8 7 15 15 15
16 0 43 20 81 60 l24 25 -627 5 c-346 3 -629 7 -630 8 -1 1 -5 19 -9 40 -16
83 -51 132 -129 177 -22 13 -123 55 -225 93 -207 78 -497 195 -544 219 -17 9
-42 24 -55 34 -21 17 -22 19 -5 26 9 3 76 0 148 -8 177 -19 265 -18 298 3 23
15 53 67 71 121 9 24 31 22 272 -20z m7734 -10 c41 -107 86 -123 289 -100 200
23 242 24 242 8 0 -24 -178 -102 -556 -246 -259 -99 -327 -131 -366 -172 -32
-34 -58 -92 -58 -131 0 -28 -3 -30 -52 -36 -29 -3 -316 -6 -638 -6 l-584 0 37
-35 c20 -19 42 -35 47 -35 6 0 10 -4 10 -10 0 -5 20 -10 45 -10 33 0 45 -4 45
-15 0 -13 55 -15 438 -15 240 0 447 -3 459 -6 36 -10 61 -63 77 -165 9 -52 54
-401 101 -776 95 -762 104 -889 63 -924 -22 -17 -50 -18 -580 -19 -365 0 -558
-3 -558 -10 0 -5 -20 -10 -45 -10 -25 0 -45 -3 -45 -7 0 -5 -21 -17 -48 -27
-26 -10 -54 -24 -62 -31 -8 -7 -23 -15 -33 -18 -16 -6 -17 55 -15 1301 l3
1307 25 45 c14 24 45 58 68 75 l44 30 581 6 582 5 200 37 c110 20 215 35 234
34 29 -2 35 -7 50 -44z M4150 6711 c-86 -28 -141 -74 -181 -151 -23 -43 -24
-54 -24 -255 0 -237 7 -267 79 -337 53 -52 101 -72 182 -76 90 -5 156 21 215
85 71 77 74 91 74 323 0 204 0 205 -28 262 -46 93 -128 148 -232 154 -33 2
-71 0 -85 -5z M6357 6706 c-101 -37 -167 -112 -188 -213 -17 -83 -8 -387 13
-435 25 -57 93 -123 150 -148 62 -27 171 -25 230 4 52 25 107 82 132 135 19
42 21 63 21 256 0 208 0 210 -27 260 -31 60 -67 95 -128 125 -56 28 -151 36
-203 16z M4983 5170 c-66 -40 -86 -103 -54 -174 16 -37 29 -51 63 -66 40 -18
67 -20 338 -20 271 0 298 2 338 20 77 35 103 138 51 204 -43 55 -52 56 -391
56 -293 0 -315 -1 -345 -20z M3097 4453 c-25 -40 -15 -166 20 -242 50 -108
193 -300 322 -430 158 -159 428 -355 678 -492 184 -100 472 -210 648 -248 480
-103 1008 -68 1444 95 455 170 909 496 1177 845 133 173 176 248 189 327 7 46
-2 152 -13 152 -4 0 -27 -35 -51 -78 -295 -514 -763 -915 -1302 -1115 -191
-72 -415 -125 -611 -146 -125 -14 -411 -14 -536 0 -575 62 -1113 325 -1518
740 -164 169 -257 290 -380 497 -34 57 -64 100 -67 95z M5823 4204 c-91 -45
-98 -176 -15 -239 38 -28 223 -35 276 -10 100 48 101 202 2 249 -47 22 -218
22 -263 0z"/>
</g>
</svg>
