<?xml version="1.0" standalone="no"?>
<!DOCTYPE svg PUBLIC "-//W3C//DTD SVG 20010904//EN"
 "http://www.w3.org/TR/2001/REC-SVG-20010904/DTD/svg10.dtd">
<svg version="1.0" xmlns="http://www.w3.org/2000/svg"
 width="2048.000000pt" height="2048.000000pt" viewBox="0 0 2048.000000 2048.000000"
 preserveAspectRatio="xMidYMid meet">
<metadata>
Created by potrace 1.13, written by Peter Selinger 2001-2015
</metadata>
<g transform="translate(0.000000,2048.000000) scale(0.192120,-0.192120)"
fill="#000000" stroke="none">
<path d="M5345 10319 c-343 -32 -757 -144 -1016 -275 -47 -23 -48 -23 -155 -9
-60 8 -166 15 -236 15 -881 1 -1658 -601 -1878 -1456 -63 -243 -61 -169 -57
-2180 4 -1964 2 -1894 53 -2142 l15 -74 -48 -51 c-145 -154 -248 -356 -283
-554 -7 -40 -16 -73 -20 -73 -4 0 -39 7 -78 16 -58 13 -80 14 -125 4 -103 -21
-184 -96 -213 -197 -9 -29 -19 -51 -22 -49 -4 2 -171 32 -372 66 -259 43 -377
60 -408 55 -113 -17 -206 -170 -159 -261 20 -38 90 -103 148 -137 40 -23 892
-344 1122 -422 l97 -34 0 39 c0 111 -41 145 -288 236 -72 27 -132 54 -132 60
0 13 -120 65 -325 142 -279 106 -379 168 -248 156 32 -3 126 -16 210 -30 181
-29 225 -30 278 -5 48 21 61 36 79 87 13 39 14 39 62 36 27 -2 157 -21 288
-43 l240 -39 538 0 c514 0 541 -1 577 -19 50 -26 97 -81 110 -128 7 -26 11
-459 11 -1330 0 -1286 0 -1291 -20 -1286 -11 3 -20 8 -20 12 0 4 -25 18 -55
32 -30 13 -55 27 -55 32 0 4 -9 7 -20 7 -11 0 -20 5 -20 10 0 7 -193 10 -559
10 -484 0 -560 2 -571 15 -7 8 -25 15 -41 15 l-29 0 0 146 c0 122 13 252 85
827 47 374 88 692 91 707 9 41 26 80 35 80 4 0 11 9 14 20 6 20 15 20 491 20
424 0 484 2 484 15 0 8 9 15 20 15 11 0 20 5 20 10 0 6 6 10 13 10 14 0 117
105 117 120 0 7 -1353 21 -1368 14 -2 -1 -63 -485 -137 -1075 -74 -591 -137
-1091 -140 -1111 l-7 -38 3892 0 3892 0 -6 38 c-4 20 -67 520 -141 1111 -74
590 -135 1074 -137 1075 -14 6 -1368 -7 -1368 -13 0 -8 73 -84 103 -108 9 -7
21 -13 27 -13 5 0 10 -4 10 -10 0 -5 20 -10 45 -10 33 0 45 -4 45 -15 0 -13
58 -15 459 -15 l460 0 19 -28 c11 -15 25 -46 31 -69 6 -23 52 -363 101 -755
100 -796 109 -924 68 -959 -22 -17 -50 -18 -580 -19 -365 0 -558 -3 -558 -10
0 -5 -20 -10 -45 -10 -25 0 -45 -3 -45 -7 0 -5 -21 -17 -48 -27 -26 -10 -54
-24 -62 -31 -8 -7 -23 -15 -32 -18 -17 -6 -18 59 -18 1286 0 871 4 1304 11
1330 13 47 60 102 110 128 36 18 63 19 578 19 l541 0 237 39 c131 21 259 42
284 45 l45 7 23 -49 c25 -52 39 -64 103 -87 58 -20 79 -19 253 9 151 25 186
29 239 27 24 -1 26 -3 16 -15 -10 -13 -95 -60 -110 -61 -3 0 -15 -7 -28 -14
-13 -7 -87 -36 -165 -66 -189 -70 -236 -92 -263 -118 -12 -12 -91 -48 -176
-80 -203 -77 -254 -106 -279 -160 -10 -23 -19 -58 -19 -79 0 -33 2 -36 23 -30
65 16 1158 426 1196 449 58 34 128 99 148 137 47 91 -46 244 -159 261 -31 5
-149 -12 -408 -55 -201 -34 -368 -64 -372 -66 -3 -2 -13 20 -22 49 -29 101
-110 176 -213 197 -45 10 -67 9 -125 -4 -39 -9 -74 -16 -78 -16 -4 0 -13 33
-20 72 -35 199 -138 401 -283 555 l-48 51 15 74 c8 40 23 132 33 203 17 120
18 243 18 1615 l0 1485 -23 144 c-129 811 -548 1514 -1188 1997 -420 316 -910
516 -1444 589 -139 19 -517 27 -655 14z m650 -264 c796 -108 1499 -527 1951
-1161 214 -301 356 -622 434 -979 17 -77 33 -149 37 -160 4 -11 10 -724 13
-1585 5 -1212 9 -1577 19 -1620 7 -30 19 -84 26 -120 8 -36 21 -86 29 -112 8
-27 12 -48 10 -48 -2 0 -27 15 -56 34 -77 49 -203 110 -278 135 -111 36 -208
51 -387 58 l-172 6 72 71 c41 41 85 97 103 131 40 75 84 213 120 375 l28 125
3 898 c2 546 0 897 -6 897 -5 0 -12 12 -15 26 -8 31 -66 87 -118 114 -52 28
-103 37 -273 50 -1026 78 -1856 363 -2455 843 -116 94 -325 302 -413 414 -32
40 -105 145 -163 234 -187 285 -256 335 -342 246 -49 -52 -89 -142 -132 -302
-107 -394 -205 -581 -418 -798 -150 -153 -329 -251 -611 -332 -72 -21 -141
-48 -165 -64 -46 -32 -116 -105 -116 -121 0 -5 -4 -10 -10 -10 -7 0 -10 -342
-10 -1005 0 -1111 -1 -1082 65 -1341 50 -196 88 -270 190 -370 l83 -81 -167
-6 c-181 -6 -294 -24 -404 -64 -84 -30 -191 -82 -265 -129 -29 -19 -54 -34
-56 -34 -2 0 7 37 21 83 54 180 53 151 53 2180 0 1843 0 1879 20 1967 42 190
131 393 247 565 68 101 134 184 146 183 5 0 43 34 85 75 221 214 511 366 832
437 149 33 270 41 527 38 l248 -3 100 39 c379 146 605 203 925 236 127 13 506
4 645 -15z m-1751 -1172 c26 -81 125 -269 201 -382 448 -665 1222 -1140 2206
-1355 354 -77 820 -136 1082 -136 l98 0 -4 -827 c-4 -925 -2 -903 -78 -1203
-166 -656 -608 -1225 -1216 -1564 -242 -135 -506 -225 -809 -278 -175 -30
-588 -33 -759 -5 -574 95 -1049 342 -1441 749 -321 334 -545 756 -639 1199
-49 230 -49 217 -52 1247 l-4 972 32 0 c17 0 84 12 147 26 583 131 979 536
1142 1168 34 130 60 298 60 385 0 33 4 61 8 61 5 0 16 -26 26 -57z m-1269
-4593 c20 -19 70 -87 112 -150 112 -169 186 -260 330 -406 435 -438 959 -701
1563 -786 144 -20 584 -17 731 5 471 70 907 261 1289 563 103 82 346 323 422
419 31 39 94 129 141 200 47 72 100 144 117 160 28 27 37 29 124 33 121 5 249
-12 361 -49 114 -38 182 -83 228 -151 20 -29 49 -71 65 -93 172 -243 192 -283
192 -386 0 -91 14 -81 -145 -104 -64 -10 -178 -15 -317 -15 -250 0 -336 -12
-443 -63 -89 -43 -160 -100 -231 -185 -86 -103 -109 -153 -108 -237 0 -64 4
-75 42 -138 23 -37 42 -70 42 -72 0 -3 -48 -5 -107 -5 l-108 0 3 -1047 c2
-577 1 -1116 -3 -1199 l-7 -151 -68 33 c-38 19 -78 34 -89 34 -12 0 -21 5 -21
10 0 7 -597 10 -1770 10 -1173 0 -1770 -3 -1770 -10 0 -5 -8 -10 -17 -10 -9 0
-44 -15 -79 -34 l-62 -35 -7 152 c-4 84 -5 623 -3 1200 l3 1047 -107 0 c-60 0
-108 3 -108 8 0 4 12 25 26 46 32 47 54 115 54 168 0 135 -175 344 -356 424
-94 41 -131 46 -434 54 -206 5 -316 12 -365 23 -110 25 -105 20 -105 92 0 53
6 75 35 130 28 55 167 263 261 391 12 16 48 44 81 61 131 69 287 103 460 100
l112 -2 36 -35z m-975 -827 c173 -36 178 -37 480 -42 l306 -6 69 -34 c68 -34
150 -104 175 -151 12 -22 11 -22 -23 5 -20 14 -69 38 -109 52 -72 26 -80 26
-463 34 -527 11 -625 22 -640 70 -9 27 5 109 19 109 6 0 90 -17 186 -37z
m6860 11 c6 -14 10 -41 10 -59 0 -28 -6 -37 -30 -50 -46 -24 -190 -34 -555
-40 -437 -7 -542 -23 -634 -92 l-36 -28 36 50 c45 64 126 120 207 145 57 18
94 20 326 20 l261 0 190 40 c105 21 196 39 203 39 7 1 17 -11 22 -25z M4128
6704 c-63 -22 -123 -75 -156 -138 -27 -51 -27 -52 -27 -261 0 -237 7 -267 79
-337 53 -52 101 -72 182 -76 90 -5 156 21 215 85 71 77 74 91 74 323 0 204 0
205 -28 262 -62 126 -208 187 -339 142z M6357 6706 c-99 -36 -166 -112 -188
-213 -17 -83 -8 -387 13 -435 25 -57 93 -123 150 -148 41 -18 65 -21 122 -18
113 6 195 59 240 157 19 42 21 63 21 256 0 209 0 210 -27 261 -64 122 -210
183 -331 140z M4979 5167 c-96 -64 -84 -199 21 -241 34 -13 87 -16 330 -16
243 0 296 3 330 16 105 42 117 177 21 241 -34 23 -38 23 -351 23 -313 0 -317
0 -351 -23z M5823 4204 c-97 -48 -96 -202 1 -248 24 -11 63 -16 131 -16 68 0
107 5 131 16 98 47 98 201 0 248 -47 22 -218 22 -263 0z"/>
</g>
</svg>
