<?xml version="1.0" standalone="no"?>
<!DOCTYPE svg PUBLIC "-//W3C//DTD SVG 20010904//EN"
 "http://www.w3.org/TR/2001/REC-SVG-20010904/DTD/svg10.dtd">
<svg version="1.0" xmlns="http://www.w3.org/2000/svg"
 width="2048.000000pt" height="2048.000000pt" viewBox="0 0 2048.000000 2048.000000"
 preserveAspectRatio="xMidYMid meet">
<metadata>
Created by potrace 1.13, written by Peter Selinger 2001-2015
</metadata>
<g transform="translate(0.000000,2048.000000) scale(0.192120,-0.192120)"
fill="#000000" stroke="none">
<path d="M6455 10323 c-309 -43 -597 -247 -735 -523 -244 -486 -53 -1067 431
-1311 268 -134 592 -134 864 0 238 118 417 329 498 586 156 498 -123 1037
-624 1205 -124 42 -308 60 -434 43z m330 -313 c199 -51 364 -175 445 -335 l35
-69 0 -245 c0 -235 -1 -248 -23 -295 -67 -145 -175 -258 -312 -326 -93 -47
-279 -109 -347 -116 -165 -18 -412 73 -533 196 -57 57 -138 194 -168 284 -22
65 -23 81 -20 276 l3 207 39 76 c104 205 305 333 576 367 86 11 218 2 305 -20z
M5910 10239 c-390 -80 -762 -221 -1125 -427 -140 -79 -415 -267 -551 -376
-131 -105 -379 -335 -370 -343 2 -3 53 10 113 27 183 53 317 72 533 77 349 9
599 -45 928 -198 l103 -48 -28 52 c-31 57 -154 186 -199 210 -113 58 -383 120
-616 141 -86 7 -161 17 -167 21 -16 9 -13 47 5 73 47 68 513 333 739 422 33
13 62 27 65 30 3 4 49 26 103 50 54 23 157 78 230 123 72 44 177 102 231 128
97 48 99 57 6 38z M4855 8855 c-323 -39 -569 -109 -825 -236 -205 -102 -332
-192 -493 -348 -293 -284 -473 -630 -532 -1021 -17 -112 -20 -402 -5 -551 24
-233 83 -440 155 -545 42 -60 93 -91 125 -74 28 15 37 36 61 146 58 273 186
563 346 787 60 84 219 257 284 308 l37 29 112 -89 c230 -184 450 -313 573
-334 56 -9 68 -8 103 9 59 29 76 71 71 167 l-5 77 121 -116 c272 -261 452
-375 505 -322 33 33 -7 206 -83 359 -20 39 -34 73 -31 76 3 3 26 -13 51 -35
135 -119 437 -217 815 -266 134 -18 359 -36 442 -36 l58 0 184 -367 c184 -368
221 -426 273 -439 34 -9 72 21 105 83 29 52 77 219 83 282 1 20 9 86 16 146 8
65 13 219 14 375 0 222 -3 279 -19 350 -61 282 -187 541 -380 781 -79 98 -238
259 -278 280 -26 14 -51 -32 -56 -101 -7 -89 26 -149 178 -325 119 -138 232
-339 284 -503 l26 -83 0 -432 c0 -257 -4 -438 -10 -447 -23 -36 -63 18 -180
245 -87 168 -138 235 -215 280 -53 31 -101 41 -275 55 -325 25 -556 70 -810
157 -174 59 -240 69 -284 40 -33 -22 -106 -121 -106 -144 0 -39 -67 -13 -171
66 -186 142 -210 144 -359 29 -39 -30 -72 -48 -88 -48 -64 1 -190 69 -392 213
-146 104 -209 137 -267 137 -112 0 -268 -124 -431 -343 -64 -87 -156 -246
-240 -420 -55 -113 -65 -128 -85 -125 -38 5 -45 64 -46 398 -1 268 1 315 18
385 86 356 317 677 645 897 50 33 95 70 101 81 22 45 251 154 448 213 263 79
472 104 858 104 l285 0 41 35 c36 31 84 118 72 129 -2 2 -47 12 -99 21 -132
24 -559 29 -725 10z M1410 8229 c-376 -79 -659 -360 -751 -746 -18 -75 -20
-109 -16 -233 3 -91 11 -167 21 -205 98 -353 355 -613 698 -707 72 -20 107
-23 258 -23 l175 0 109 38 c61 21 135 52 165 69 303 170 491 467 508 804 34
637 -543 1133 -1167 1003z m358 -285 c156 -32 271 -93 382 -204 53 -52 86 -96
110 -145 l35 -70 0 -240 c0 -276 -2 -285 -97 -422 -102 -147 -292 -257 -512
-294 -291 -49 -619 115 -747 375 l-44 89 -3 196 c-4 217 1 248 54 359 42 87
147 199 241 256 72 43 202 93 276 105 85 14 223 12 305 -5z M8210 7851 c0 -6
4 -12 10 -16 17 -10 139 -202 189 -298 106 -199 184 -441 215 -666 29 -203 17
-488 -28 -701 -8 -36 -13 -66 -11 -68 3 -4 120 196 159 273 l31 60 0 255 c0
273 3 250 -64 530 -24 97 -24 100 -12 119 8 12 20 7 65 -28 31 -23 60 -40 65
-37 10 7 37 -13 182 -135 102 -87 227 -210 504 -500 50 -52 147 -145 217 -207
70 -62 164 -152 209 -200 l82 -87 -53 100 c-323 607 -934 1190 -1626 1552
-126 66 -134 69 -134 54z M532 7030 c-151 -687 -80 -1488 195 -2210 56 -147
73 -180 73 -144 1 42 30 235 50 327 34 157 85 301 165 462 139 284 320 505
577 705 32 24 56 45 54 47 -1 2 -55 -13 -118 -32 -208 -63 -298 -114 -387
-221 -23 -27 -56 -67 -75 -89 -50 -61 -99 -140 -178 -292 -91 -175 -104 -195
-132 -191 -30 4 -61 98 -91 277 -41 248 -46 306 -55 641 -5 207 -14 368 -24
443 -10 64 -20 177 -24 250 l-7 132 -23 -105z M2990 6344 c-48 -53 -109 -177
-136 -279 -29 -109 -27 -372 4 -480 51 -179 148 -315 259 -365 47 -21 53 -28
58 -59 80 -508 263 -937 553 -1297 103 -128 285 -302 402 -385 l90 -64 0 -267
c0 -249 1 -268 18 -268 21 0 81 36 105 63 23 27 22 105 -3 230 -11 55 -20 101
-20 103 0 3 36 -24 79 -60 216 -175 407 -242 727 -253 392 -13 625 51 868 241
33 25 61 44 64 42 2 -3 -3 -39 -12 -81 -9 -43 -16 -110 -16 -151 0 -71 1 -74
33 -97 17 -14 47 -28 65 -32 l32 -7 0 235 c0 129 3 248 6 264 4 21 19 37 52
58 26 17 90 64 142 106 426 343 749 913 851 1504 26 149 31 161 65 169 108 27
221 184 276 381 31 114 31 363 0 479 -28 101 -81 210 -127 261 l-36 40 6 -55
c3 -30 10 -86 15 -125 5 -38 9 -149 10 -245 0 -295 -27 -374 -191 -560 -55
-63 -118 -154 -133 -195 -5 -11 -23 -76 -41 -145 -32 -123 -122 -387 -165
-485 -12 -27 -33 -81 -47 -120 -98 -269 -288 -518 -553 -726 -150 -118 -220
-215 -229 -319 l-6 -64 -91 -46 c-120 -62 -314 -125 -460 -151 -172 -31 -433
-31 -599 0 -153 28 -342 91 -470 156 l-100 50 -6 60 c-10 101 -66 185 -199
296 -116 96 -185 165 -269 269 -73 90 -181 241 -181 253 0 3 -14 30 -32 59
-124 209 -207 428 -278 733 -48 204 -62 232 -199 379 -50 54 -92 111 -113 153
l-33 67 -3 286 c-3 184 0 320 8 383 7 54 10 100 8 103 -3 2 -24 -16 -48 -42z
M9168 6330 c-190 -34 -363 -121 -503 -251 -130 -122 -216 -263 -272 -444 -25
-83 -27 -103 -27 -265 0 -163 2 -181 28 -265 104 -340 355 -584 696 -677 122
-33 356 -33 480 0 445 119 747 526 727 982 -12 294 -149 560 -377 732 -85 65
-245 143 -345 169 -89 24 -323 35 -407 19z m377 -264 c163 -44 302 -143 394
-282 86 -128 91 -151 91 -405 0 -257 -8 -295 -92 -415 -90 -131 -205 -217
-363 -270 -107 -36 -302 -45 -421 -20 -194 42 -373 167 -467 324 -74 126 -79
150 -75 401 l3 216 38 74 c114 222 253 329 502 387 80 18 308 13 390 -10z
M4185 6301 c-46 -12 -87 -36 -122 -73 -57 -59 -63 -88 -63 -288 0 -200 6 -229
63 -288 126 -132 343 -87 400 83 23 67 24 341 2 406 -39 114 -169 188 -280
160z M6100 6295 c-61 -19 -113 -65 -144 -127 -25 -50 -26 -59 -26 -228 0 -173
1 -178 28 -231 76 -151 266 -181 382 -61 26 27 51 64 58 88 16 55 16 353 0
408 -18 60 -92 131 -159 150 -63 19 -80 19 -139 1z M4942 5249 c-78 -39 -117
-128 -93 -214 12 -48 71 -107 120 -124 21 -7 113 -11 240 -11 230 0 262 7 314
69 23 28 47 86 47 116 0 30 -24 88 -47 116 -53 62 -83 69 -323 69 -200 0 -218
-2 -258 -21z M5945 4389 c-11 -6 -36 -22 -56 -36 -157 -105 -635 -150 -1034
-97 -172 22 -255 49 -379 121 -29 17 -101 16 -135 -2 -97 -50 -117 -181 -40
-255 211 -200 995 -272 1514 -138 110 28 254 98 293 142 76 87 57 208 -42 255
-46 23 -90 26 -121 10z M8805 3965 l-300 -64 -281 -1 c-296 0 -335 -5 -427
-52 -82 -42 -168 -142 -203 -238 -19 -54 -47 -566 -37 -697 l6 -83 -701 0
-701 0 -20 -45 c-98 -221 -352 -420 -628 -491 -120 -31 -350 -43 -486 -25
-335 45 -624 232 -777 504 l-32 57 -688 0 c-580 0 -698 2 -747 15 -44 12 -120
15 -333 15 l-275 0 -285 61 c-157 33 -310 60 -341 61 -125 1 -242 -94 -264
-214 -4 -21 -10 -36 -14 -34 -3 2 -172 32 -374 66 -343 58 -371 61 -415 49
-108 -30 -183 -170 -138 -258 19 -35 90 -101 147 -134 25 -15 333 -123 686
-242 609 -204 646 -215 717 -215 l75 0 -6 38 c-7 45 -25 76 -58 98 -13 9 -158
60 -322 115 -199 66 -303 105 -313 118 -8 11 -40 29 -70 40 -30 11 -113 41
-185 66 -71 26 -148 55 -170 65 -23 10 -53 22 -68 25 -15 4 -27 12 -27 18 0 6
-3 7 -7 4 -3 -4 -15 1 -26 10 -10 10 -21 17 -23 16 -10 -7 -24 -2 -24 7 0 15
110 5 329 -31 74 -11 150 -19 169 -15 50 8 107 51 138 103 l26 45 57 -6 c31
-4 136 -20 234 -36 l178 -30 549 0 c510 0 576 3 540 25 -19 12 -10 61 14 84
l25 23 54 -53 c58 -59 98 -134 116 -217 6 -30 11 -154 11 -289 l0 -235 -555 3
-555 4 0 -810 c0 -445 -3 -820 -6 -832 l-6 -23 3342 0 3342 0 -6 23 c-3 12 -6
622 -6 1354 l0 1333 -550 2 -550 3 56 80 c98 141 110 180 119 392 3 72 7 138
10 146 8 19 211 27 730 27 407 0 411 1 582 30 94 16 198 32 231 36 l60 6 21
-39 c27 -54 82 -100 128 -109 25 -5 97 2 208 20 218 35 285 39 285 20 0 -7
-12 -17 -27 -20 -16 -4 -30 -10 -33 -14 -3 -3 -34 -16 -70 -29 -36 -13 -78
-29 -95 -37 -49 -22 -296 -108 -665 -230 -189 -64 -350 -120 -358 -126 -22
-18 -39 -60 -46 -110 l-7 -48 85 0 c86 0 91 2 729 216 353 118 662 227 687
241 25 15 66 47 92 71 l48 45 0 90 0 90 -43 42 c-75 76 -85 76 -416 21 -157
-27 -327 -56 -378 -66 l-91 -17 -7 36 c-15 78 -86 166 -159 196 -74 31 -119
27 -431 -40z m-415 -1155 c0 -13 7 -20 20 -20 20 0 20 -7 20 -1105 0 -1098 0
-1105 -20 -1105 -11 0 -20 -7 -20 -15 0 -13 -39 -15 -295 -15 -162 0 -295 -4
-295 -9 0 -5 -25 -11 -56 -13 -31 -3 -59 -9 -62 -14 -11 -16 -113 -66 -121
-59 -8 8 -14 2205 -6 2262 6 40 8 42 48 48 73 13 79 14 91 25 7 5 15 7 18 4 3
-3 21 4 39 15 31 19 51 20 336 21 298 0 303 0 303 -20z m-1120 -1230 l0 -1140
-40 25 c-22 14 -46 25 -54 25 -8 0 -22 8 -32 18 -16 16 -73 17 -851 20 -531 2
-833 6 -833 12 0 7 -327 10 -910 10 -514 0 -910 -4 -910 -9 0 -5 -25 -11 -56
-13 -31 -3 -59 -9 -62 -15 -4 -6 -18 -14 -32 -18 -14 -4 -42 -19 -62 -32 l-38
-23 0 780 0 779 -114 3 -114 3 38 44 c21 24 44 58 51 75 7 17 16 33 20 36 9 7
29 220 29 318 0 66 3 82 15 82 9 0 15 9 15 21 0 20 1 21 358 17 l357 -3 55
-27 c30 -14 84 -55 120 -90 222 -217 431 -333 703 -393 147 -33 516 -29 537 5
4 6 47 22 96 34 126 33 235 78 333 137 109 65 116 70 247 199 160 157 147 153
602 158 211 2 352 7 352 13 0 5 10 9 23 9 12 0 51 18 87 39 36 22 66 40 68 40
1 1 2 -512 2 -1139z m-4161 -376 c1 -386 -2 -715 -5 -732 l-6 -30 -52 31 c-28
17 -52 35 -54 39 -2 4 -19 10 -38 14 -19 3 -34 10 -34 15 0 5 -130 9 -295 9
-256 0 -295 2 -295 15 0 11 -11 15 -40 15 l-40 0 0 585 0 585 40 0 c33 0 40 3
40 20 0 20 7 20 295 20 256 0 295 2 295 15 0 8 9 15 20 15 11 0 20 5 20 10 0
6 6 10 13 10 7 0 37 23 67 50 47 43 56 47 62 33 3 -10 7 -334 7 -719z"/>
</g>
</svg>
