<?xml version="1.0" standalone="no"?>
<!DOCTYPE svg PUBLIC "-//W3C//DTD SVG 20010904//EN"
 "http://www.w3.org/TR/2001/REC-SVG-20010904/DTD/svg10.dtd">
<svg version="1.0" xmlns="http://www.w3.org/2000/svg"
 width="2048.000000pt" height="2048.000000pt" viewBox="0 0 2048.000000 2048.000000"
 preserveAspectRatio="xMidYMid meet">
<metadata>
Created by potrace 1.13, written by Peter Selinger 2001-2015
</metadata>
<g transform="translate(0.000000,2048.000000) scale(0.192120,-0.192120)"
fill="#000000" stroke="none">
<path d="M5110 9914 c-353 -30 -580 -73 -828 -158 -838 -285 -1409 -968 -1492
-1785 -34 -339 25 -816 130 -1048 75 -165 175 -236 225 -159 8 12 33 92 54
177 55 215 100 339 191 524 125 255 245 422 440 608 61 59 116 107 121 107 6
0 59 -38 117 -86 142 -113 376 -269 482 -321 117 -57 189 -76 263 -71 52 4 64
9 88 36 39 43 53 102 44 186 l-7 70 137 -132 c220 -212 411 -357 508 -383 31
-8 43 -7 63 6 52 34 20 198 -81 413 -24 50 -42 92 -39 92 2 0 32 -23 66 -50
192 -155 575 -264 1099 -314 85 -8 203 -16 263 -17 59 -1 117 -4 127 -6 13 -4
81 -128 226 -415 228 -452 260 -502 326 -502 47 0 79 30 117 109 79 167 123
494 124 925 1 240 -1 262 -26 381 -154 713 -713 1330 -1478 1628 -212 83 -418
135 -661 167 -109 14 -505 26 -599 18z m371 -304 c381 -22 697 -100 1003 -249
252 -121 435 -249 616 -431 216 -215 346 -419 442 -692 l33 -93 0 -422 c0
-232 -3 -424 -7 -428 -20 -20 -49 15 -112 133 -112 207 -116 213 -201 299
-122 124 -159 138 -405 158 -477 38 -723 90 -1073 224 -118 46 -184 54 -233
28 -16 -8 -62 -44 -102 -80 -39 -36 -83 -67 -96 -69 -29 -6 -39 -1 -141 73
-189 136 -234 140 -370 26 -73 -61 -116 -80 -159 -71 -51 11 -156 68 -277 150
-263 179 -304 204 -356 224 -71 26 -116 25 -181 -5 -80 -37 -139 -80 -236
-174 -165 -160 -305 -350 -431 -588 -65 -123 -103 -169 -122 -149 -5 4 -9 143
-11 309 -3 281 -2 309 19 397 45 199 136 402 250 565 78 110 246 285 354 370
378 296 872 465 1445 494 80 5 154 9 165 9 11 1 95 -3 186 -8z M4132 6982
c-71 -26 -118 -66 -156 -132 l-31 -55 0 -215 0 -215 31 -55 c114 -203 392
-192 496 19 22 43 23 58 23 251 0 193 -1 208 -23 251 -65 132 -210 197 -340
151z M6368 6987 c-77 -22 -143 -80 -181 -157 -20 -42 -22 -59 -22 -250 0 -188
2 -209 21 -250 68 -144 236 -205 377 -137 60 30 95 65 130 131 21 39 22 54 22
256 0 202 -1 217 -22 256 -35 65 -70 101 -127 129 -64 31 -136 39 -198 22z
M2698 6900 c-60 -121 -87 -232 -95 -391 -10 -217 38 -422 136 -572 59 -90 116
-141 195 -177 l61 -28 13 -97 c8 -53 29 -159 47 -234 110 -446 294 -828 560
-1161 147 -184 382 -403 543 -505 l62 -40 0 -127 0 -126 113 -79 c61 -44 256
-181 433 -305 328 -232 394 -268 394 -219 0 11 -17 37 -37 56 -43 40 -186 140
-253 177 -172 95 -440 277 -504 342 -49 50 -105 166 -80 166 3 0 36 -27 72
-60 174 -157 359 -252 591 -302 186 -40 608 -36 796 7 207 48 399 151 563 300
35 32 66 55 69 51 10 -10 -29 -99 -61 -140 -51 -64 -249 -202 -481 -336 -182
-104 -260 -159 -341 -238 -8 -7 -14 -21 -14 -31 0 -15 7 -18 38 -14 45 5 4
-22 505 331 l417 294 0 127 0 127 40 23 c134 75 404 323 553 506 233 288 429
666 532 1027 40 138 95 396 95 445 0 31 5 35 64 62 147 66 250 217 308 449 33
129 32 380 -1 507 -34 133 -105 281 -87 183 11 -64 -13 -518 -33 -613 -28
-136 -115 -285 -215 -367 -46 -39 -142 -173 -151 -211 -36 -156 -79 -316 -100
-372 -15 -38 -37 -101 -50 -140 -36 -110 -153 -402 -191 -476 -133 -265 -285
-446 -606 -721 -186 -159 -218 -203 -218 -302 0 -41 -16 -54 -150 -121 -314
-158 -693 -233 -1038 -206 -261 21 -505 84 -727 190 -158 75 -185 95 -185 135
0 45 -24 109 -56 152 -15 19 -77 76 -138 127 -161 133 -248 218 -349 341 -289
354 -473 751 -582 1261 -39 182 -64 221 -248 394 -31 29 -57 58 -57 63 0 5 -8
22 -18 36 -23 33 -50 100 -64 161 -7 27 -14 199 -17 406 l-6 360 -47 -95z
M5074 5811 c-78 -20 -142 -88 -159 -169 -17 -81 40 -187 119 -223 36 -16 70
-19 295 -19 238 0 257 1 298 21 56 27 99 80 113 140 21 88 -18 179 -98 226
l-47 28 -245 2 c-135 1 -259 -2 -276 -6z M6187 4815 c-22 -7 -49 -22 -60 -33
-50 -46 -220 -96 -417 -124 -127 -17 -642 -18 -765 0 -198 28 -334 71 -440
138 -82 52 -201 15 -247 -77 -22 -41 -23 -120 -4 -158 66 -126 357 -235 731
-272 154 -15 536 -15 690 0 307 31 568 111 676 208 52 47 70 83 71 143 0 88
-51 155 -137 179 -49 13 -51 13 -98 -4z M4012 3308 c-57 -44 -101 -82 -100
-84 12 -12 83 14 124 45 47 35 89 92 82 110 -1 5 -49 -27 -106 -71z M6540
3378 c0 -24 77 -103 121 -125 55 -26 93 -38 86 -26 -13 21 -207 163 -207 151z
M2936 3099 c-557 -59 -1057 -402 -1310 -899 -66 -131 -123 -291 -150 -420 -31
-155 -36 -274 -36 -860 l0 -590 1555 0 c855 0 1555 3 1555 6 0 3 -171 605
-380 1337 -210 733 -388 1356 -396 1385 l-15 52 -372 -1 c-205 -1 -408 -5
-451 -10z m804 -387 c5 -119 15 -252 21 -296 7 -45 106 -411 221 -814 114
-403 219 -775 233 -826 25 -93 31 -150 19 -181 -8 -21 -56 -45 -89 -45 -34 0
-55 -11 -141 -76 -76 -58 -94 -66 -70 -32 19 27 21 48 3 48 -7 0 -177 45 -378
100 -200 55 -411 112 -469 126 -58 15 -108 30 -113 33 -5 6 688 2104 729 2205
7 18 8 18 16 -3 4 -12 12 -119 18 -239z m-329 71 c5 -14 7 -40 4 -57 -4 -17
-130 -402 -280 -856 -151 -454 -283 -859 -295 -900 -25 -91 -27 -235 -5 -264
21 -28 19 -73 -4 -86 -13 -6 -208 -10 -565 -10 l-546 0 0 550 c0 351 4 568 11
602 106 527 597 955 1179 1027 100 13 167 16 353 19 l137 2 11 -27z M6886
3058 c-8 -29 -186 -652 -396 -1385 -209 -732 -380 -1334 -380 -1337 0 -3 700
-6 1555 -6 l1555 0 0 590 c0 715 -7 796 -87 1045 -176 546 -659 981 -1224
1104 -154 33 -283 41 -655 41 l-353 0 -15 -52z m439 -1209 c201 -600 362
-1095 359 -1100 -3 -5 -11 -9 -17 -9 -7 0 -219 -56 -471 -125 -252 -69 -465
-125 -472 -125 -18 0 -18 -20 2 -48 26 -37 2 -25 -75 38 -40 32 -83 62 -94 65
-12 4 -35 13 -52 20 -16 8 -38 16 -47 19 -15 4 -18 17 -18 66 0 71 -3 59 200
770 261 914 263 924 280 1285 6 120 13 230 17 243 5 21 7 22 15 8 5 -9 173
-507 373 -1107z m302 951 c231 -16 410 -63 598 -157 314 -159 554 -431 661
-753 l28 -85 4 -597 3 -598 -544 0 c-429 0 -547 3 -561 13 -14 10 -16 21 -11
50 4 21 11 40 16 43 18 10 10 174 -12 248 -11 39 -143 442 -294 896 -150 454
-276 844 -280 867 -13 81 -10 83 128 83 67 0 186 -5 264 -10z M4475 2915 l-25
-24 0 -469 0 -469 23 -21 c13 -12 31 -22 40 -22 10 0 197 99 417 220 l400 220
400 -220 c220 -121 408 -220 418 -220 10 0 28 10 40 23 22 23 22 25 22 491 l0
467 -25 24 c-13 14 -30 25 -36 25 -7 0 -190 -98 -408 -217 -217 -120 -400
-219 -406 -221 -6 -1 -83 37 -171 86 -368 205 -641 352 -653 352 -6 0 -23 -11
-36 -25z m318 -445 c57 -36 64 -51 40 -80 -16 -19 -83 -60 -98 -60 -3 0 -5 38
-5 85 0 47 4 85 8 85 4 0 29 -13 55 -30z m1117 -55 c0 -41 -3 -75 -6 -75 -25
0 -94 56 -94 77 0 13 75 73 92 73 4 0 8 -34 8 -75z M4130 2522 c33 -62 89
-136 97 -128 5 5 -114 186 -123 186 -3 0 9 -26 26 -58z M6489 2489 c-63 -94
-74 -128 -21 -63 32 38 98 154 88 154 -3 0 -33 -41 -67 -91z M5260 1664 c-78
-34 -121 -98 -122 -180 -1 -43 5 -64 28 -101 101 -163 354 -95 354 95 0 62
-13 98 -48 136 -56 60 -142 80 -212 50z M5245 865 c-119 -60 -144 -216 -50
-310 94 -94 246 -71 306 47 31 62 24 154 -17 204 -16 20 -45 45 -64 55 -43 23
-133 25 -175 4z M4735 404 c-27 -13 -63 -36 -80 -49 l-30 -25 705 0 705 0 -25
21 c-14 11 -50 32 -80 47 -49 24 -66 27 -155 26 -87 0 -116 -6 -225 -40 -168
-52 -265 -54 -420 -7 -204 61 -313 69 -395 27z"/>
</g>
</svg>
