<?xml version="1.0" standalone="no"?>
<!DOCTYPE svg PUBLIC "-//W3C//DTD SVG 20010904//EN"
 "http://www.w3.org/TR/2001/REC-SVG-20010904/DTD/svg10.dtd">
<svg version="1.0" xmlns="http://www.w3.org/2000/svg"
 width="2048.000000pt" height="2048.000000pt" viewBox="0 0 2048.000000 2048.000000"
 preserveAspectRatio="xMidYMid meet">
<metadata>
Created by potrace 1.13, written by Peter Selinger 2001-2015
</metadata>
<g transform="translate(0.000000,2048.000000) scale(0.192120,-0.192120)"
fill="#000000" stroke="none">
<path d="M5115 9914 c-322 -24 -587 -74 -833 -158 -843 -287 -1409 -967 -1493
-1796 -21 -206 1 -544 51 -782 55 -265 175 -466 265 -444 38 10 52 41 94 207
55 215 100 339 191 524 125 255 245 422 440 608 61 59 116 107 121 107 6 0 59
-38 117 -85 142 -114 365 -263 477 -319 119 -59 192 -79 268 -74 52 4 64 9 88
36 39 43 53 102 44 186 l-7 70 137 -132 c220 -212 411 -357 508 -383 31 -8 43
-7 63 6 52 34 20 198 -81 413 -24 50 -42 92 -39 92 2 0 29 -20 58 -44 226
-184 736 -312 1331 -334 l180 -7 210 -414 c231 -455 263 -505 328 -505 47 0
79 30 117 109 80 168 123 491 124 925 0 240 -1 263 -26 381 -153 712 -713
1330 -1478 1628 -212 83 -418 135 -661 166 -110 15 -491 27 -594 19z m565
-310 c397 -47 764 -177 1075 -382 151 -99 206 -142 329 -262 226 -218 371
-440 464 -710 l37 -105 3 -439 c3 -446 0 -496 -34 -496 -22 0 -58 57 -150 235
-77 149 -97 180 -163 248 -115 119 -150 133 -386 152 -485 39 -749 93 -1060
217 -202 81 -244 69 -400 -114 -8 -10 -15 -23 -15 -28 0 -7 -6 -7 -19 -1 -10
6 -21 8 -24 5 -3 -3 -54 31 -113 77 -155 117 -230 148 -287 118 -12 -7 -59
-43 -106 -80 -73 -60 -90 -69 -125 -69 -73 0 -180 61 -508 289 -105 74 -185
110 -243 111 -82 0 -206 -78 -339 -214 -164 -168 -282 -339 -417 -605 -44 -88
-86 -165 -93 -170 -9 -8 -18 -6 -32 3 -18 14 -19 33 -22 348 -4 370 0 408 55
583 169 530 606 944 1221 1156 402 138 896 187 1352 133z M2791 7048 c-198
-208 -250 -671 -112 -998 59 -142 153 -244 266 -291 42 -17 55 -28 55 -44 0
-44 33 -215 70 -360 134 -530 401 -1002 766 -1355 108 -105 248 -219 338 -276
l46 -29 0 -126 0 -127 545 -386 c300 -213 551 -389 558 -392 7 -2 260 170 563
384 l549 389 3 130 3 129 30 18 c93 55 252 187 379 315 219 219 371 431 510
710 146 294 254 633 292 918 l12 83 45 15 c140 47 258 208 318 433 24 87 27
115 27 272 0 156 -3 185 -26 270 -29 106 -85 230 -130 285 -17 20 -32 34 -34
32 -3 -2 2 -58 11 -123 12 -97 13 -158 6 -329 -5 -115 -15 -237 -21 -270 -27
-138 -82 -238 -195 -355 -40 -41 -95 -110 -123 -152 -49 -76 -53 -88 -110
-313 -34 -138 -202 -591 -285 -770 -104 -223 -310 -469 -574 -682 -112 -90
-225 -210 -253 -269 -14 -30 -20 -64 -20 -108 l0 -64 -102 -50 c-542 -262
-1173 -266 -1718 -10 -112 53 -120 61 -120 124 0 107 -73 211 -248 351 -254
203 -428 415 -599 728 -139 255 -222 488 -298 837 -35 164 -70 223 -230 384
-93 93 -136 169 -162 289 -15 67 -18 126 -17 370 0 160 6 324 12 365 6 41 9
76 8 78 -2 2 -18 -12 -35 -30z m3384 -3643 c-89 -74 -332 -223 -495 -305 -36
-18 -119 -64 -185 -104 -150 -89 -176 -92 -280 -30 -39 23 -162 92 -275 154
-186 102 -385 226 -450 281 l-25 21 25 -16 c149 -95 312 -160 485 -192 145
-27 566 -27 710 0 179 33 337 95 460 181 59 40 72 45 30 10z M4148 6986 c-96
-26 -173 -104 -199 -200 -6 -23 -9 -117 -7 -230 3 -174 5 -195 25 -232 35 -66
70 -101 130 -131 141 -69 303 -10 375 136 22 43 23 58 23 251 0 193 -1 208
-23 251 -62 126 -197 191 -324 155z M6375 6989 c-95 -23 -185 -117 -206 -217
-7 -33 -9 -121 -7 -225 3 -148 6 -178 24 -217 67 -144 236 -205 377 -137 60
30 95 65 130 131 21 39 22 54 22 256 0 202 -1 217 -22 256 -35 65 -70 101
-126 128 -60 29 -135 39 -192 25z M5072 5811 c-74 -19 -140 -89 -157 -169 -4
-18 -1 -56 6 -84 14 -62 77 -131 136 -148 25 -8 124 -10 295 -8 l256 3 44 30
c59 42 93 105 92 175 0 60 -17 100 -60 144 -60 59 -67 61 -334 63 -135 1 -260
-2 -278 -6z M6187 4815 c-22 -7 -49 -22 -60 -33 -48 -45 -220 -97 -412 -124
-122 -18 -648 -18 -770 0 -195 28 -307 63 -445 138 -53 29 -107 31 -158 5 -71
-36 -102 -87 -102 -167 0 -56 17 -90 69 -137 106 -96 373 -178 676 -208 155
-15 536 -15 690 1 309 30 568 110 676 207 52 47 70 83 71 143 0 88 -51 155
-137 179 -49 13 -51 13 -98 -4z M4000 3299 c-36 -28 -72 -57 -80 -66 -13 -13
-11 -14 20 -8 50 10 96 41 119 79 39 62 26 61 -59 -5z M6602 3318 c12 -18 34
-42 47 -53 29 -23 91 -48 91 -36 0 9 -143 121 -154 121 -4 0 3 -15 16 -32z
M2936 3099 c-557 -59 -1057 -402 -1310 -899 -66 -131 -123 -291 -150 -420 -31
-155 -36 -274 -36 -860 l0 -590 1555 0 c855 0 1555 3 1555 6 0 3 -171 605
-380 1337 -210 733 -388 1356 -396 1385 l-15 52 -372 -1 c-205 -1 -408 -5
-451 -10z m804 -387 c5 -119 15 -252 21 -296 7 -45 106 -411 221 -814 114
-403 219 -775 233 -826 25 -93 31 -150 19 -181 -8 -21 -56 -45 -89 -45 -34 0
-55 -11 -141 -76 -76 -58 -94 -66 -70 -32 19 27 21 48 3 48 -7 0 -177 45 -378
100 -200 55 -411 112 -469 126 -58 15 -108 30 -113 33 -5 6 688 2104 729 2205
7 18 8 18 16 -3 4 -12 12 -119 18 -239z m-329 71 c5 -14 7 -40 4 -57 -4 -17
-130 -402 -280 -856 -151 -454 -283 -859 -295 -900 -25 -91 -27 -235 -5 -264
21 -28 19 -73 -4 -86 -13 -6 -208 -10 -565 -10 l-546 0 0 550 c0 351 4 568 11
602 106 527 597 955 1179 1027 100 13 167 16 353 19 l137 2 11 -27z M6886
3058 c-8 -29 -186 -652 -396 -1385 -209 -732 -380 -1334 -380 -1337 0 -3 700
-6 1555 -6 l1555 0 0 590 c0 715 -7 796 -87 1045 -176 546 -659 981 -1224
1104 -154 33 -283 41 -655 41 l-353 0 -15 -52z m439 -1209 c201 -600 362
-1095 359 -1100 -3 -5 -11 -9 -17 -9 -7 0 -219 -56 -471 -125 -252 -69 -465
-125 -472 -125 -18 0 -18 -20 2 -48 26 -37 2 -25 -75 38 -40 32 -83 62 -94 65
-12 4 -35 13 -52 20 -16 8 -38 16 -47 19 -15 4 -18 17 -18 66 0 71 -3 59 200
770 261 914 263 924 280 1285 6 120 13 230 17 243 5 21 7 22 15 8 5 -9 173
-507 373 -1107z m302 951 c231 -16 410 -63 598 -157 314 -159 554 -431 661
-753 l28 -85 4 -597 3 -598 -544 0 c-429 0 -547 3 -561 13 -14 10 -16 21 -11
50 4 21 11 40 16 43 18 10 10 174 -12 248 -11 39 -143 442 -294 896 -150 454
-276 844 -280 867 -13 81 -10 83 128 83 67 0 186 -5 264 -10z M4475 2915 l-25
-24 0 -469 0 -469 23 -21 c13 -12 31 -22 41 -22 10 0 197 99 417 220 l400 221
399 -221 c220 -121 408 -220 419 -220 11 0 29 12 40 26 21 26 21 36 21 491 l0
464 -25 24 c-13 14 -30 25 -37 25 -7 0 -193 -99 -412 -220 -220 -121 -402
-220 -406 -220 -3 0 -166 88 -361 196 -392 217 -443 244 -459 244 -6 0 -22
-11 -35 -25z m316 -441 c56 -31 69 -56 42 -86 -16 -18 -84 -58 -98 -58 -3 0
-5 38 -5 85 0 47 3 85 6 85 4 0 28 -12 55 -26z m1119 -59 c0 -41 -2 -75 -5
-75 -14 0 -62 30 -80 50 -15 16 -17 25 -9 38 12 18 72 62 85 62 5 0 9 -34 9
-75z M4130 2522 c33 -62 89 -136 97 -128 5 5 -114 186 -123 186 -3 0 9 -26 26
-58z M6489 2489 c-63 -94 -74 -128 -21 -63 32 38 98 154 88 154 -3 0 -33 -41
-67 -91z M5260 1664 c-78 -34 -121 -98 -122 -180 -1 -43 5 -64 28 -101 101
-163 354 -95 354 95 0 62 -13 98 -48 136 -56 60 -142 80 -212 50z M5245 865
c-119 -60 -144 -216 -50 -310 94 -94 246 -71 306 47 31 62 24 154 -17 204 -16
20 -45 45 -64 55 -43 23 -133 25 -175 4z M4735 404 c-27 -13 -63 -36 -80 -49
l-30 -25 705 0 705 0 -25 21 c-14 11 -50 32 -80 47 -49 24 -66 27 -155 26 -87
0 -116 -6 -225 -40 -168 -52 -265 -54 -420 -7 -204 61 -313 69 -395 27z"/>
</g>
</svg>
