<?xml version="1.0" standalone="no"?>
<!DOCTYPE svg PUBLIC "-//W3C//DTD SVG 20010904//EN"
 "http://www.w3.org/TR/2001/REC-SVG-20010904/DTD/svg10.dtd">
<svg version="1.0" xmlns="http://www.w3.org/2000/svg"
 width="2048.000000pt" height="2048.000000pt" viewBox="0 0 2048.000000 2048.000000"
 preserveAspectRatio="xMidYMid meet">
<metadata>
Created by potrace 1.13, written by Peter Selinger 2001-2015
</metadata>
<g transform="translate(0.000000,2048.000000) scale(0.192120,-0.192120)"
fill="#000000" stroke="none">
<path d="M5257 10106 c-291 -52 -525 -205 -629 -411 -27 -53 -24 -52 -56 -22
-58 56 -202 94 -319 84 -126 -10 -205 -68 -402 -294 -89 -102 -140 -144 -222
-182 -164 -77 -324 -80 -460 -10 l-41 21 16 -24 c26 -38 196 -186 270 -235
136 -92 285 -133 476 -133 240 0 459 69 588 185 l58 53 17 -87 c37 -197 147
-389 349 -606 130 -140 192 -197 248 -231 54 -32 49 -16 71 -216 6 -58 15
-111 19 -118 11 -18 57 -1 91 33 l31 30 -4 117 c-3 112 -4 118 -38 175 -75
125 -200 223 -313 244 -26 5 -50 11 -52 13 -3 2 6 49 20 103 27 107 27 125 -7
140 -28 12 -64 65 -79 114 -17 57 -22 162 -10 207 22 82 101 118 157 71 41
-35 57 -77 95 -247 17 -80 35 -149 39 -153 4 -5 10 49 13 120 8 197 36 263
128 296 24 9 89 33 144 53 190 68 322 173 392 311 21 40 43 73 49 73 21 0 128
-85 178 -141 63 -71 93 -138 119 -265 l22 -105 -47 -42 c-55 -49 -78 -97 -108
-227 -43 -181 -102 -279 -238 -394 -82 -69 -155 -153 -187 -215 -14 -28 -16
-53 -13 -135 5 -115 24 -166 80 -207 34 -26 96 -55 102 -48 1 2 -3 56 -10 119
-6 63 -15 144 -18 180 l-7 65 63 34 c40 22 95 66 153 125 73 73 100 109 137
181 70 137 108 274 108 387 0 27 6 61 14 76 17 34 99 267 121 346 15 51 16 70
6 129 -22 135 -108 282 -244 419 -185 187 -333 246 -632 253 -108 3 -185 0
-238 -9z m456 -265 c43 -11 101 -33 128 -47 64 -35 65 -60 7 -106 -60 -46
-111 -93 -177 -162 -65 -69 -146 -124 -228 -156 -32 -12 -111 -48 -176 -78
l-119 -56 -61 22 c-34 12 -83 22 -108 22 -49 0 -83 -19 -182 -103 -40 -34 -47
-36 -73 -27 -15 6 -55 35 -88 64 -34 29 -71 58 -83 64 -42 23 -93 13 -212 -39
-147 -65 -218 -87 -306 -96 -136 -14 -169 -6 -148 40 18 38 232 256 281 284
62 37 157 41 279 14 51 -12 110 -21 130 -21 55 0 129 47 225 142 101 99 154
140 229 179 63 32 172 64 265 79 97 15 327 5 417 -19z M1576 8645 c-187 -53
-336 -201 -392 -390 -12 -40 -18 -91 -17 -155 1 -161 56 -285 178 -399 219
-204 547 -198 760 14 114 113 165 235 166 391 0 45 -5 103 -12 130 -44 178
-178 329 -348 392 -82 31 -257 40 -335 17z m239 -290 c71 -19 150 -61 176 -93
16 -21 19 -42 19 -137 0 -88 -3 -115 -15 -125 -8 -7 -15 -18 -15 -24 0 -24
-64 -88 -114 -114 -45 -24 -62 -27 -146 -27 -108 0 -169 21 -228 78 -55 52
-62 75 -62 195 0 127 13 156 91 203 89 55 192 70 294 44z M2230 8631 c-29 -9
-90 -40 -90 -45 0 -2 34 -16 75 -31 43 -15 123 -59 187 -102 62 -41 126 -82
143 -90 16 -8 39 -24 50 -35 11 -10 142 -79 290 -153 149 -74 286 -142 305
-153 214 -115 585 -291 688 -327 58 -20 67 -21 106 -8 24 8 78 42 121 76 l78
62 -119 5 -119 5 -800 399 c-827 412 -845 420 -915 397z M2444 8088 c-17 -6
-44 -20 -59 -32 l-28 -23 74 -40 c41 -22 353 -185 694 -361 l620 -320 105 -20
c85 -15 131 -18 243 -13 l138 6 -73 58 c-40 31 -79 57 -85 57 -7 0 -13 5 -13
10 0 6 -9 10 -20 10 -11 0 -20 4 -20 9 0 5 -28 12 -62 16 -35 4 -103 20 -153
36 -100 33 -414 192 -600 304 -209 126 -509 269 -624 299 -70 18 -92 19 -137
4z M4470 7865 c-63 -7 -147 -13 -187 -14 -39 -1 -75 -6 -78 -11 -3 -6 10 -70
31 -143 41 -148 53 -274 35 -371 -6 -33 -10 -61 -8 -62 2 -2 37 -8 78 -14 41
-6 115 -18 164 -26 86 -16 92 -18 137 -65 144 -148 328 -712 329 -1009 0 -107
-11 -174 -106 -613 -66 -309 -97 -483 -94 -534 1 -16 -27 -107 -63 -203 -36
-96 -85 -231 -109 -300 -24 -69 -81 -199 -126 -289 -46 -91 -83 -166 -83 -167
0 -1 28 -24 63 -51 256 -201 531 -334 714 -345 l51 -3 192 280 c106 154 224
326 262 383 l69 103 231 -328 c127 -180 232 -329 233 -330 1 -2 52 31 114 71
228 152 458 266 610 304 39 10 73 20 75 23 2 2 -116 246 -263 542 -230 466
-263 538 -243 534 17 -3 21 0 18 12 -66 229 -147 926 -130 1117 7 75 11 85
109 269 46 88 47 92 43 160 -3 39 -17 104 -31 145 -14 41 -24 77 -22 78 2 2
149 -69 327 -158 l323 -162 82 -4 c73 -3 236 -26 683 -93 784 -119 832 -125
890 -108 106 31 177 118 187 227 11 123 -65 236 -182 269 -22 7 -377 61 -790
121 l-750 109 -155 78 c-85 43 -157 81 -160 84 -3 3 -77 43 -165 88 -88 46
-217 117 -287 158 -147 86 -270 133 -414 158 l-101 18 -41 -45 c-96 -104 -276
-153 -471 -129 -149 19 -259 89 -297 187 -11 30 -24 46 -38 48 -36 7 -407 26
-476 25 -36 -1 -117 -8 -180 -14z m404 -275 c134 -11 167 -23 280 -99 56 -38
76 -47 76 -35 0 11 5 14 18 9 220 -85 424 -81 651 11 47 20 112 38 144 41 52
5 57 4 57 -14 0 -16 13 -24 68 -38 69 -19 239 -100 325 -154 69 -45 65 -59
-47 -163 -123 -115 -146 -155 -146 -260 0 -59 -5 -89 -20 -118 -11 -22 -20
-51 -20 -65 0 -14 -20 -73 -45 -129 l-45 -104 0 -301 c0 -249 4 -326 21 -447
26 -186 50 -251 140 -370 39 -52 69 -98 66 -101 -3 -3 -57 0 -119 6 -144 14
-454 14 -589 1 -161 -17 -312 -54 -581 -145 -278 -93 -262 -96 -178 30 120
182 134 222 221 644 27 134 29 160 29 363 0 224 -8 290 -57 468 -58 214 -163
474 -233 575 -84 123 -212 233 -315 270 -60 23 -65 28 -65 82 l0 42 48 4 c97
7 200 6 316 -3z m2106 -312 c23 -48 59 -103 85 -131 93 -95 105 -99 760 -196
110 -17 261 -42 335 -55 74 -14 151 -28 170 -31 152 -27 248 -49 266 -60 12
-8 45 -17 72 -21 81 -10 108 -61 47 -84 -41 -15 -108 -12 -296 14 -96 14 -264
37 -374 52 -110 15 -211 28 -225 30 -14 2 -50 6 -80 9 -30 3 -98 12 -150 20
-52 8 -160 22 -240 30 -80 9 -190 28 -245 42 -135 35 -194 39 -272 18 -83 -23
-88 -18 -88 89 0 77 3 89 42 167 37 73 127 189 147 189 3 0 24 -37 46 -82z
m-740 -2240 c20 -8 49 -31 64 -49 16 -19 94 -164 172 -323 116 -232 144 -297
144 -330 0 -22 -4 -46 -8 -52 -4 -6 -69 -44 -145 -84 -153 -80 -191 -88 -234
-48 -14 12 -69 82 -123 153 -138 185 -257 291 -347 310 -43 9 -108 -21 -189
-86 -79 -65 -141 -137 -262 -309 -176 -249 -196 -270 -259 -270 -64 0 -236 76
-294 131 -42 39 -38 77 25 232 30 72 75 192 100 265 52 152 86 225 124 264 68
73 501 192 767 212 28 2 136 3 240 1 144 -1 199 -6 225 -17z M6898 3974 c-17
-37 -22 -67 -22 -124 1 -90 21 -144 136 -367 l78 -152 0 -95 c0 -91 -1 -97
-27 -125 -16 -16 -228 -145 -473 -286 -486 -281 -469 -271 -567 -333 -235
-150 -366 -244 -395 -285 -16 -22 -23 -50 -26 -94 -3 -35 -1 -63 2 -63 14 0
84 40 826 467 821 473 833 481 860 579 16 57 16 145 0 206 -10 38 -322 654
-356 702 -13 18 -15 16 -36 -30z M4409 3824 c-123 -178 -230 -352 -240 -387
-6 -23 -14 -48 -17 -54 -4 -7 -320 -302 -702 -654 -382 -353 -699 -648 -703
-655 -4 -8 -16 -14 -25 -14 -54 -1 -152 -70 -193 -136 -29 -47 -221 -844 -221
-917 0 -102 55 -186 156 -240 58 -31 184 -31 241 0 51 27 110 88 129 133 8 20
47 168 86 330 40 161 74 299 77 306 3 8 -17 15 -57 23 -107 18 -197 89 -243
189 -27 62 -30 180 -4 237 l18 40 92 0 c89 0 94 1 152 38 33 20 129 99 213
175 85 75 158 137 163 137 13 0 810 738 857 794 52 62 114 154 146 219 15 29
42 77 62 108 61 95 77 141 76 224 0 41 -7 93 -14 114 l-15 40 -34 -50z M6384
3688 c13 -29 65 -132 115 -228 86 -164 91 -176 74 -188 -10 -7 -306 -179 -657
-383 l-640 -369 -102 -103 c-67 -69 -106 -117 -115 -143 -11 -31 -14 -137 -14
-519 0 -538 -3 -514 75 -599 57 -61 118 -89 200 -89 112 0 207 60 254 162 20
44 21 63 24 428 l3 382 -53 -24 c-97 -45 -199 -26 -281 53 -73 70 -110 182
-93 276 l7 36 57 0 c106 0 184 30 432 168 80 44 147 76 150 71 8 -11 659 366
731 424 30 25 70 67 87 93 17 27 36 54 42 61 5 7 10 19 10 27 0 8 5 18 10 21
22 14 11 123 -21 202 -52 133 -114 220 -179 253 -22 12 -115 40 -132 40 -4 0
3 -24 16 -52z M4985 3551 c-142 -51 -198 -95 -295 -230 -105 -147 -160 -203
-655 -660 -253 -233 -580 -544 -726 -691 -258 -258 -267 -268 -278 -319 -21
-99 -9 -110 74 -72 41 18 1455 1313 1583 1449 85 91 386 543 360 541 -7 0 -35
-8 -63 -18z"/>
</g>
</svg>
