<?xml version="1.0" standalone="no"?>
<!DOCTYPE svg PUBLIC "-//W3C//DTD SVG 20010904//EN"
 "http://www.w3.org/TR/2001/REC-SVG-20010904/DTD/svg10.dtd">
<svg version="1.0" xmlns="http://www.w3.org/2000/svg"
 width="2048.000000pt" height="2048.000000pt" viewBox="0 0 2048.000000 2048.000000"
 preserveAspectRatio="xMidYMid meet">
<metadata>
Created by potrace 1.13, written by Peter Selinger 2001-2015
</metadata>
<g transform="translate(0.000000,2048.000000) scale(0.192120,-0.192120)"
fill="#000000" stroke="none">
<path d="M5190 9629 c-370 -19 -767 -130 -1150 -320 -880 -438 -1467 -1217
-1669 -2215 -69 -342 -81 -532 -81 -1279 0 -1087 40 -1643 151 -2095 72 -293
172 -474 300 -545 50 -28 61 -30 149 -29 164 3 361 53 729 186 246 88 573 199
669 226 l72 20 0 -96 1 -97 162 -90 c89 -49 307 -171 485 -271 l323 -183 367
208 c202 114 420 236 484 272 l118 64 0 98 c0 97 0 98 23 92 112 -32 396 -126
649 -216 543 -192 745 -238 923 -209 309 50 411 309 457 1160 8 156 12 576 13
1255 0 1113 0 1113 -61 1445 -107 581 -324 1062 -677 1500 -86 106 -324 341
-440 434 -589 470 -1318 720 -1997 685z m440 -314 c212 -27 482 -99 684 -181
837 -343 1415 -976 1655 -1812 37 -131 41 -154 41 -258 0 -63 -4 -114 -8 -114
-5 0 -19 11 -32 25 -40 43 -152 114 -212 135 -114 40 -249 22 -385 -50 -86
-46 -110 -42 -276 44 -314 164 -555 224 -990 246 -109 6 -251 20 -315 31 -305
51 -683 184 -1060 373 -271 135 -328 149 -429 101 -81 -37 -121 -72 -426 -367
-305 -294 -430 -402 -489 -420 -34 -10 -46 -8 -120 22 -106 42 -235 52 -319
25 -79 -26 -160 -78 -247 -158 -89 -83 -87 -86 -80 73 6 118 26 207 98 422
105 316 255 589 463 846 476 587 1252 984 2027 1036 87 6 305 -4 420 -19z
m-1224 -1614 c20 -19 268 -148 409 -213 360 -166 692 -276 975 -323 52 -9 190
-20 305 -25 299 -13 468 -41 675 -110 182 -62 365 -162 476 -263 l51 -46 55
67 c156 190 359 196 527 17 104 -111 171 -282 193 -492 36 -347 -103 -698
-320 -805 -38 -19 -64 -23 -136 -24 l-89 0 -24 -100 c-151 -632 -519 -1216
-985 -1566 -530 -398 -1185 -511 -1787 -309 -471 158 -872 483 -1179 954 -171
262 -316 603 -396 927 l-22 94 -62 -3 c-108 -4 -215 59 -297 174 -88 123 -139
273 -154 452 -30 352 104 690 315 794 129 64 276 32 378 -82 l45 -50 183 148
c133 108 271 236 508 470 179 177 330 323 336 323 5 0 14 -4 20 -9z m-1752
-2198 c72 -92 156 -163 245 -208 37 -18 75 -45 84 -59 17 -26 46 -98 99 -246
40 -112 135 -323 196 -435 148 -272 292 -469 509 -697 51 -53 93 -103 93 -112
0 -32 -30 -46 -376 -171 -284 -102 -409 -135 -534 -142 -88 -5 -98 -3 -129 18
-101 69 -176 308 -238 763 -25 184 -26 211 -30 783 -4 489 -2 592 9 587 7 -3
40 -39 72 -81z m5413 -810 l-3 -828 -26 -120 c-52 -241 -97 -304 -228 -320
-130 -15 -313 28 -690 165 -252 91 -333 128 -338 152 -2 10 39 62 102 130 200
215 347 418 476 656 82 150 175 359 220 493 44 133 90 221 120 236 14 6 61 28
105 49 67 31 94 51 165 125 47 48 89 88 93 88 4 1 6 -371 4 -826z m-3661
-1110 c-2 -3 -14 -2 -25 2 -15 4 -21 15 -21 33 l1 27 25 -29 c14 -15 23 -30
20 -33z m1894 33 c0 -16 -7 -26 -22 -29 -30 -8 -32 -4 -7 26 25 33 29 33 29 3z
m-1552 -254 c150 -64 366 -102 582 -102 288 0 532 58 719 172 90 54 49 11 -48
-51 -101 -64 -170 -98 -358 -177 -216 -90 -274 -107 -336 -102 -96 8 -491 179
-648 279 -97 62 -138 105 -48 51 36 -22 97 -54 137 -70z M4327 6356 c-59 -22
-103 -61 -131 -118 -25 -49 -26 -60 -26 -212 0 -89 5 -178 11 -199 13 -46 70
-112 118 -136 58 -29 106 -34 167 -16 69 20 125 69 154 136 20 48 21 64 18
223 -2 138 -6 177 -20 202 -22 41 -72 90 -111 110 -42 22 -134 27 -180 10z
M6207 6356 c-58 -21 -103 -61 -131 -118 -25 -50 -26 -59 -26 -220 0 -187 7
-218 63 -276 66 -69 147 -92 232 -67 64 18 117 61 148 119 19 36 22 61 25 191
5 192 -5 238 -64 304 -66 74 -157 99 -247 67z M5063 5205 c-90 -39 -99 -198
-14 -248 26 -15 63 -17 301 -17 l272 0 33 33 c75 75 51 211 -43 237 -59 16
-510 12 -549 -5z M4665 4635 c-84 -51 -116 -149 -77 -238 26 -59 107 -124 237
-187 330 -163 763 -150 1075 30 141 82 198 160 188 255 -17 143 -185 214 -301
127 -114 -86 -212 -125 -360 -143 -117 -15 -247 -2 -355 35 -67 22 -89 35
-207 114 -64 42 -139 45 -200 7z m217 -216 c10 -5 18 -14 18 -20 0 -6 5 -7 10
-4 6 3 10 1 10 -5 0 -6 5 -8 10 -5 6 3 10 -3 10 -14 l0 -20 -47 20 c-49 21
-83 46 -83 60 0 9 46 2 72 -12z m945 -11 c-3 -7 -5 -2 -5 12 0 14 2 19 5 13 2
-7 2 -19 0 -25z m-24 -18 c-4 -5 -25 -15 -45 -24 -37 -14 -38 -14 -38 5 0 11
5 17 10 14 6 -3 10 -1 10 5 0 6 5 8 10 5 6 -3 10 -2 10 2 0 5 10 13 23 18 16
8 23 7 25 -4 2 -7 0 -17 -5 -21z m-846 -42 c-3 -8 -6 -5 -6 6 -1 11 2 17 5 13
3 -3 4 -12 1 -19z M3513 3099 c-825 -74 -1554 -565 -1742 -1174 -48 -155 -51
-206 -51 -922 l0 -673 1509 0 1509 0 -13 43 c-7 23 -183 605 -390 1292 -207
688 -390 1294 -406 1348 l-30 97 -147 -1 c-81 -1 -188 -5 -239 -10z m367 -364
c11 -227 21 -309 55 -435 12 -47 125 -425 250 -840 126 -415 230 -778 233
-806 6 -76 -11 -89 -124 -97 -116 -9 -209 -35 -356 -102 -65 -30 -123 -55
-129 -55 -14 0 9 40 142 257 66 105 119 196 119 200 0 5 -197 62 -437 128
-241 65 -441 121 -445 124 -4 4 8 47 26 96 19 50 156 432 306 849 337 942 330
923 342 902 5 -9 13 -108 18 -221z m-336 38 c10 -43 -9 -100 -214 -674 -277
-771 -290 -811 -297 -903 -6 -73 -4 -82 23 -134 38 -73 136 -173 197 -201 27
-12 134 -46 238 -76 104 -29 193 -56 199 -60 18 -11 11 -51 -14 -74 -16 -15
-44 -25 -87 -31 -35 -5 -407 -10 -827 -10 l-763 0 3 617 3 618 34 78 c129 301
450 569 883 737 159 62 300 99 478 125 132 20 137 19 144 -12z M6731 3014
c-16 -54 -199 -661 -406 -1349 -207 -687 -383 -1269 -390 -1292 l-13 -43 1509
0 1510 0 -4 718 c-3 693 -4 720 -25 805 -86 352 -314 659 -661 891 -189 126
-446 237 -681 295 -197 47 -315 62 -572 68 l-236 6 -31 -99z m145 -226 c31
-84 170 -470 309 -858 139 -388 262 -730 274 -760 11 -30 17 -57 13 -61 -4 -4
-90 -29 -192 -57 -524 -140 -690 -187 -690 -195 0 -5 46 -84 103 -175 137
-222 171 -282 157 -282 -6 0 -64 25 -128 56 -156 75 -203 90 -300 99 -47 4
-100 15 -122 26 -39 19 -40 21 -40 69 0 56 19 144 54 251 28 85 122 392 260
849 84 280 108 364 161 568 23 87 35 195 44 412 10 211 16 256 33 226 5 -8 34
-84 64 -168z m463 -3 c521 -76 1030 -383 1220 -737 85 -157 81 -112 81 -815
l0 -623 -767 1 c-423 0 -792 4 -822 8 -41 6 -60 14 -78 36 -49 56 -39 63 184
126 112 32 223 67 249 78 59 26 159 129 190 195 30 65 31 145 4 245 -11 40
-120 350 -241 689 -259 722 -259 723 -259 773 l0 39 66 0 c37 0 114 -7 173
-15z M4554 3092 c-27 -18 -30 -62 -28 -470 2 -386 4 -425 20 -443 9 -10 28
-19 41 -19 13 0 92 38 176 84 84 46 245 136 360 199 l207 115 361 -199 c198
-110 370 -199 383 -199 13 0 31 9 40 19 16 18 17 56 17 451 0 393 -2 434 -17
451 -9 11 -28 19 -41 19 -13 0 -182 -88 -377 -195 -194 -107 -359 -195 -365
-195 -7 0 -172 88 -366 195 -195 107 -365 195 -377 195 -13 0 -28 -4 -34 -8z
m282 -443 c20 -22 11 -51 -20 -57 -13 -3 -16 5 -16 37 0 46 8 51 36 20z m994
-26 c0 -20 -3 -24 -11 -16 -7 7 -9 19 -6 27 10 24 17 19 17 -11z M4240 2646
c0 -2 8 -10 18 -17 15 -13 16 -12 3 4 -13 16 -21 21 -21 13z M6399 2633 c-13
-16 -12 -17 4 -4 9 7 17 15 17 17 0 8 -8 3 -21 -13z M5255 1936 c-56 -25 -105
-101 -105 -163 1 -45 35 -108 76 -139 33 -25 46 -29 104 -29 57 0 72 4 103 28
85 64 98 177 30 258 -47 56 -139 76 -208 45z M5245 1207 c-46 -26 -82 -75 -91
-124 -13 -67 32 -155 97 -188 36 -19 122 -19 158 0 64 33 108 117 96 183 -22
122 -155 188 -260 129z M5252 489 c-48 -24 -88 -76 -98 -127 l-6 -32 182 0
183 0 -7 32 c-16 79 -98 148 -177 148 -19 0 -53 -10 -77 -21z M4856 362 l-49
-27 61 -3 c34 -2 90 -2 125 0 l62 3 -46 28 c-57 34 -91 34 -153 -1z M5650 362
l-45 -27 63 -3 c34 -2 90 -2 124 0 l62 3 -51 28 c-64 34 -96 34 -153 -1z"/>
</g>
</svg>
