<?xml version="1.0" standalone="no"?>
<!DOCTYPE svg PUBLIC "-//W3C//DTD SVG 20010904//EN"
 "http://www.w3.org/TR/2001/REC-SVG-20010904/DTD/svg10.dtd">
<svg version="1.0" xmlns="http://www.w3.org/2000/svg"
 width="2048.000000pt" height="2048.000000pt" viewBox="0 0 2048.000000 2048.000000"
 preserveAspectRatio="xMidYMid meet">
<metadata>
Created by potrace 1.13, written by Peter Selinger 2001-2015
</metadata>
<g transform="translate(0.000000,2048.000000) scale(0.192120,-0.192120)"
fill="#000000" stroke="none">
<path d="M4995 10320 c-911 -67 -1701 -352 -2333 -842 -150 -116 -389 -358
-498 -503 -268 -359 -405 -703 -449 -1134 -6 -63 -6 -64 17 -57 13 4 48 15 78
24 86 26 302 23 403 -6 140 -40 322 -149 380 -227 23 -30 53 -32 62 -4 4 11
33 59 65 107 299 447 905 563 1355 259 63 -43 177 -151 212 -201 l20 -30 31
65 c52 107 112 190 207 285 104 104 179 157 308 219 382 183 824 135 1164
-127 117 -90 260 -270 314 -394 l21 -49 20 30 c36 51 150 159 213 202 400 270
929 213 1258 -137 40 -42 95 -115 122 -163 54 -92 71 -103 102 -62 58 78 240
187 380 227 108 31 325 31 426 1 l67 -20 0 26 c0 110 -48 356 -101 515 -251
757 -982 1413 -1944 1745 -351 122 -694 197 -1070 236 -187 19 -655 28 -830
15z m620 -280 c897 -56 1696 -341 2285 -815 120 -97 291 -265 380 -373 131
-159 272 -409 319 -566 21 -69 28 -170 12 -194 -4 -7 -41 -18 -81 -23 -98 -14
-211 -50 -322 -105 -137 -66 -146 -64 -283 67 -292 279 -689 386 -1070 289
-102 -26 -206 -71 -316 -136 -52 -31 -111 -59 -131 -61 -36 -5 -41 -2 -155
109 -174 169 -319 263 -511 332 -247 88 -563 90 -817 3 -199 -69 -339 -159
-537 -346 -70 -66 -115 -101 -130 -101 -12 0 -74 29 -138 64 -139 77 -212 109
-316 135 -313 81 -631 26 -906 -155 -36 -25 -117 -89 -179 -144 -87 -78 -119
-100 -141 -100 -16 0 -77 22 -136 49 -133 61 -218 87 -333 102 l-89 12 0 67
c0 81 27 166 104 323 158 325 452 645 821 896 717 487 1693 732 2670 671z
M1540 7689 c-211 -136 -344 -359 -371 -622 -34 -335 157 -672 462 -817 72 -34
81 -28 55 33 -9 22 -40 56 -82 89 -161 128 -231 207 -287 326 l-32 67 -3 225
-3 225 46 93 c39 81 58 106 144 191 95 92 151 172 151 212 0 27 -9 24 -80 -22z
M9040 7707 c0 -29 16 -52 119 -167 94 -106 175 -224 192 -279 7 -23 9 -125 7
-281 l-3 -245 -40 -75 c-42 -81 -160 -208 -268 -288 -56 -42 -87 -90 -87 -133
0 -18 2 -18 43 -2 23 9 73 36 111 60 261 167 409 472 376 774 -27 244 -136
442 -320 584 -50 38 -111 75 -125 75 -3 0 -5 -10 -5 -23z M1735 6162 c24 -166
77 -354 136 -478 38 -81 39 -82 84 -88 101 -16 267 -129 336 -231 27 -39 30
-39 114 0 71 32 136 94 201 190 73 111 125 241 171 428 20 84 38 153 39 155 1
2 20 -6 43 -17 22 -12 47 -21 56 -21 8 0 15 -4 15 -10 0 -7 803 -10 2390 -10
1587 0 2390 3 2390 10 0 6 9 10 19 10 11 0 41 9 67 20 26 11 48 19 48 18 1 -2
19 -71 39 -155 46 -187 98 -317 171 -428 65 -96 130 -158 201 -190 84 -39 87
-39 114 0 69 102 235 215 336 231 45 6 46 7 84 88 59 124 112 312 135 477 l7
47 -68 -22 -68 -21 -3415 -3 c-3477 -3 -3509 -3 -3611 33 l-40 15 6 -48z m899
-258 c0 -66 -5 -80 -52 -176 -84 -169 -184 -253 -258 -219 -32 14 -197 129
-247 172 -62 53 -128 212 -113 273 l6 26 333 -2 332 -3 -1 -71z m6040 4 c-1
-84 -43 -177 -106 -232 -76 -67 -241 -176 -265 -176 -68 0 -146 66 -212 180
-60 102 -101 234 -86 279 6 21 9 21 338 19 l332 -3 -1 -67z M1715 5582 c-241
-83 -438 -365 -515 -735 -116 -557 61 -1163 403 -1381 111 -71 265 -97 365
-62 45 16 52 10 52 -41 0 -14 11 -81 25 -148 84 -416 279 -746 513 -868 100
-53 170 -69 291 -70 95 -1 108 -3 121 -21 52 -73 230 -275 335 -380 305 -306
626 -542 976 -715 538 -268 1029 -336 1535 -211 531 130 1071 455 1542 930
106 106 281 304 332 376 13 18 26 20 121 21 121 1 191 17 291 70 253 132 453
493 529 952 10 63 18 115 16 116 -1 1 -31 15 -67 33 -36 17 -89 54 -118 82
-29 27 -54 50 -56 50 -3 0 -17 -37 -32 -82 -103 -312 -331 -755 -528 -1028
-108 -150 -97 -140 -149 -140 -71 0 -124 -39 -286 -211 -79 -83 -175 -180
-213 -216 -102 -93 -296 -239 -508 -381 -484 -326 -1004 -493 -1450 -467 -431
25 -858 184 -1305 486 -289 196 -385 277 -639 541 -197 206 -261 254 -333 251
-39 -1 -46 3 -79 40 -55 64 -212 306 -299 462 -119 213 -265 539 -312 698 -7
26 -15 47 -16 47 -2 0 -27 -23 -57 -51 -30 -27 -84 -64 -119 -81 -70 -35 -60
-38 -106 25 -14 20 -76 46 -111 47 -11 0 -47 9 -80 20 -182 63 -333 247 -420
510 l-28 85 -4 343 c-3 317 -2 347 17 415 29 105 82 226 135 305 57 87 179
203 248 238 77 38 118 72 134 110 8 18 14 38 14 44 0 16 -110 11 -165 -8z
m673 -2582 c33 -63 89 -173 126 -244 36 -71 66 -137 66 -148 0 -85 -146 56
-230 221 -28 57 -30 67 -30 177 0 65 2 115 4 113 3 -3 32 -56 64 -119z m5923
-156 c-55 -117 -192 -282 -225 -271 -15 6 -9 75 8 102 8 12 44 80 81 151 37
71 88 167 114 214 l46 85 3 -109 c3 -103 1 -112 -27 -172z M8780 5586 c0 -23
24 -67 46 -88 11 -9 55 -35 100 -57 80 -41 164 -103 164 -122 0 -6 18 -33 39
-62 61 -81 138 -216 164 -287 53 -141 59 -194 55 -501 -4 -256 -6 -292 -26
-362 -55 -191 -134 -340 -237 -443 -82 -82 -149 -118 -258 -139 -43 -8 -91
-21 -106 -30 -33 -17 -73 -63 -66 -76 10 -16 80 -29 155 -29 308 1 575 331
661 819 24 136 29 386 10 521 -68 480 -334 849 -626 868 -65 4 -75 3 -75 -12z
M3564 5034 c-60 -21 -119 -77 -148 -137 -25 -52 -25 -53 -27 -377 -1 -179 -1
-332 0 -341 1 -14 8 -14 73 2 103 26 288 43 391 36 l88 -6 -3 322 c-3 311 -4
323 -25 364 -28 52 -83 106 -131 129 -49 24 -164 28 -218 8z M6869 5018 c-68
-36 -120 -98 -139 -166 -6 -22 -10 -164 -10 -339 l0 -301 93 5 c100 6 272 -9
380 -34 38 -8 71 -12 75 -8 4 3 5 156 4 338 -3 331 -3 332 -28 384 -47 97
-140 153 -255 153 -45 0 -70 -7 -120 -32z M4080 4170 c0 -51 47 -84 184 -130
147 -49 297 -153 361 -250 46 -70 79 -101 113 -105 l34 -4 -7 42 c-24 142
-143 269 -340 363 -89 42 -220 85 -302 99 -40 6 -43 5 -43 -15z M6454 4166
c-307 -80 -528 -255 -559 -443 -6 -38 -5 -42 13 -38 34 6 57 26 98 83 88 124
197 203 359 262 145 52 165 62 191 93 28 34 32 67 7 67 -10 -1 -59 -12 -109
-24z M3210 4101 c-146 -60 -290 -181 -343 -291 -27 -56 -31 -76 -31 -145 0
-92 19 -146 84 -231 91 -121 293 -230 525 -284 343 -80 768 -32 1031 115 71
40 147 102 139 115 -2 4 -19 10 -36 14 -24 4 -52 -3 -113 -28 -402 -171 -792
-191 -1174 -60 -140 49 -181 73 -262 162 -79 85 -84 100 -79 225 l4 84 65 67
c36 37 94 86 130 110 81 55 116 92 123 134 8 38 1 39 -63 13z M7387 4088 c9
-50 37 -82 115 -134 77 -51 161 -131 185 -178 11 -22 14 -55 11 -135 -3 -102
-5 -109 -35 -150 -91 -123 -349 -229 -635 -260 -278 -31 -563 13 -817 125 -61
27 -155 42 -165 26 -8 -14 65 -75 139 -116 354 -196 914 -208 1288 -28 172 82
273 174 329 297 33 74 31 189 -5 268 -50 109 -203 241 -345 296 -69 27 -73 27
-65 -11z M4944 3641 c-186 -85 -225 -334 -72 -465 73 -63 94 -66 458 -66 364
0 385 3 458 66 153 131 114 380 -72 465 -38 17 -70 19 -386 19 -316 0 -348 -2
-386 -19z M4105 2526 c-93 -43 -165 -153 -165 -251 0 -111 82 -222 195 -264
88 -33 288 -87 428 -115 274 -55 485 -76 767 -76 360 0 677 42 1010 134 201
55 238 72 297 131 105 108 110 258 11 370 -84 95 -187 117 -334 70 -311 -100
-631 -149 -984 -149 -356 0 -679 50 -999 153 -86 28 -162 27 -226 -3z"/>
</g>
</svg>
