<?xml version="1.0" standalone="no"?>
<!DOCTYPE svg PUBLIC "-//W3C//DTD SVG 20010904//EN"
 "http://www.w3.org/TR/2001/REC-SVG-20010904/DTD/svg10.dtd">
<svg version="1.0" xmlns="http://www.w3.org/2000/svg"
 width="2048.000000pt" height="2048.000000pt" viewBox="0 0 2048.000000 2048.000000"
 preserveAspectRatio="xMidYMid meet">
<metadata>
Created by potrace 1.13, written by Peter Selinger 2001-2015
</metadata>
<g transform="translate(0.000000,2048.000000) scale(0.192120,-0.192120)"
fill="#000000" stroke="none">
<path d="M5210 10284 c-14 -2 -65 -9 -115 -15 -176 -22 -502 -115 -705 -202
-284 -121 -549 -296 -737 -485 -102 -103 -170 -196 -227 -312 -23 -47 -59
-108 -79 -136 -144 -200 -170 -497 -64 -736 82 -185 262 -346 459 -410 37 -12
70 -19 73 -16 3 3 -7 31 -21 64 -15 32 -35 78 -45 101 l-18 42 67 45 c37 24
77 55 90 69 l23 24 73 -17 c158 -38 366 -49 571 -30 98 9 255 32 310 46 17 4
48 -41 210 -306 220 -361 219 -358 211 -311 -35 207 -4 377 89 479 117 131
327 125 405 -11 39 -68 49 -138 59 -382 9 -235 11 -244 85 -342 46 -60 248
-260 294 -291 28 -18 18 -29 146 163 203 303 328 604 387 931 17 92 22 162 23
309 1 195 -8 282 -45 429 -11 43 -17 81 -14 85 4 3 55 6 113 6 174 0 311 -57
378 -156 55 -83 77 -175 119 -499 48 -366 103 -521 230 -644 51 -50 173 -116
260 -142 83 -23 202 -22 286 5 81 26 239 133 239 163 0 4 -22 8 -48 8 -162 0
-314 96 -383 244 -86 184 -79 419 21 731 27 83 54 190 61 238 39 282 -111 576
-390 761 -208 139 -470 199 -656 151 -170 -44 -343 -172 -436 -321 l-22 -36
-40 64 c-104 166 -276 348 -415 441 -156 105 -341 172 -537 196 -85 10 -229
13 -285 5z m331 -319 c237 -41 413 -143 604 -350 55 -60 119 -127 143 -149 62
-59 160 -116 196 -116 48 0 123 40 229 124 128 100 162 121 239 147 54 18 79
20 173 16 92 -4 124 -10 199 -37 157 -58 304 -176 355 -286 22 -45 23 -57 19
-238 l-4 -191 -45 -130 c-29 -87 -49 -131 -60 -133 -12 -2 -24 22 -48 100 -48
151 -89 245 -136 313 -61 87 -193 209 -266 245 -133 68 -310 89 -399 49 -56
-25 -202 -174 -236 -240 l-24 -48 0 -403 c0 -360 -2 -412 -20 -488 -55 -246
-205 -569 -268 -578 -37 -5 -70 23 -77 65 -4 21 -12 54 -20 73 -8 19 -16 93
-19 165 -11 251 -54 363 -193 504 -120 120 -173 146 -303 146 -85 0 -102 -3
-160 -31 -36 -17 -96 -56 -135 -87 -96 -77 -109 -77 -205 12 -91 84 -165 131
-226 142 -27 5 -85 4 -142 -2 -201 -21 -373 -28 -480 -18 -258 22 -306 23
-361 4 -28 -9 -73 -31 -99 -49 -26 -18 -65 -44 -86 -59 -69 -48 -116 -29 -164
66 -20 40 -22 59 -22 216 0 199 -7 179 134 410 120 198 252 326 495 481 248
157 657 308 961 354 127 19 346 20 451 1z M4173 8034 c-44 -22 -75 -74 -75
-127 0 -39 48 -169 83 -225 18 -29 81 -62 119 -62 71 0 150 78 150 149 0 24
-62 181 -86 219 -37 57 -125 78 -191 46z M3850 7906 c0 -9 241 -589 262 -631
l25 -47 11 28 c33 86 24 135 -42 239 -91 143 -113 182 -156 283 -24 57 -53
110 -64 118 -20 13 -36 18 -36 10z M4215 7179 c-64 -26 -88 -50 -88 -88 0 -34
17 -59 50 -72 29 -11 127 24 160 57 32 32 30 77 -3 103 -33 26 -55 26 -119 0z
M6128 7018 c-53 -44 -59 -93 -27 -232 33 -140 71 -199 137 -212 26 -5 32 -3
32 10 0 17 -83 357 -101 414 -12 35 -18 38 -41 20z M4307 6900 c15 -27 42 -67
60 -87 l32 -38 1 61 c0 68 -10 83 -69 103 -52 17 -54 15 -24 -39z M4885 6916
c-38 -18 -155 -68 -260 -111 -104 -43 -192 -79 -194 -81 -7 -7 87 -100 157
-156 l63 -50 42 28 c107 71 206 191 245 298 25 67 34 106 25 105 -5 0 -39 -15
-78 -33z M6266 6456 c-17 -109 -146 -308 -258 -397 -107 -84 -181 -107 -293
-90 -85 12 -137 36 -176 78 -43 46 -55 80 -88 243 -18 85 -34 163 -37 172 -5
15 -10 15 -68 -7 -133 -50 -325 -70 -434 -45 -36 9 -49 7 -85 -11 -233 -119
-418 -351 -483 -606 -22 -88 -24 -115 -24 -326 l0 -230 -39 -61 c-96 -153
-160 -324 -188 -500 -26 -172 -8 -394 45 -551 l19 -56 -66 -36 c-240 -132
-478 -330 -661 -547 -219 -261 -405 -638 -479 -971 -53 -239 -70 -556 -42
-777 63 -503 283 -971 620 -1320 l84 -88 1831 0 1831 0 0 1201 0 1202 25 16
c89 58 636 444 840 592 291 212 444 333 523 413 227 230 267 492 114 730 -27
41 -322 357 -816 873 -426 444 -806 838 -844 876 -118 114 -251 192 -409 238
-59 17 -108 23 -254 26 l-181 5 -7 -46z m362 -201 c83 -20 193 -72 262 -124
50 -38 307 -281 535 -506 91 -90 878 -911 1057 -1103 128 -137 168 -215 168
-328 -1 -99 -27 -167 -99 -257 -89 -113 -334 -303 -915 -712 -330 -232 -376
-269 -430 -348 -47 -68 -57 -110 -40 -166 l12 -42 -71 -53 c-86 -63 -593 -409
-623 -424 l-22 -12 19 73 c10 39 19 104 19 143 0 62 -5 81 -37 145 -49 99
-162 212 -255 257 -61 29 -76 32 -161 32 -52 0 -118 -5 -147 -10 -29 -6 -55
-8 -57 -6 -6 6 56 67 692 685 308 300 629 612 713 695 l153 150 -394 394 -393
393 -67 -100 c-37 -56 -67 -105 -67 -110 0 -5 119 -126 265 -268 146 -141 264
-263 263 -270 -2 -7 -95 -106 -208 -220 -113 -114 -356 -363 -540 -553 -591
-610 -743 -761 -760 -754 -8 4 -40 16 -71 27 l-56 21 -87 -21 c-136 -34 -267
-104 -349 -186 -64 -64 -127 -168 -127 -211 0 -8 -22 -57 -50 -110 -27 -52
-59 -122 -70 -155 -24 -73 -26 -176 -5 -258 8 -31 15 -82 15 -113 1 -124 39
-235 136 -393 126 -206 243 -319 382 -369 75 -27 250 -29 367 -4 251 54 491
182 661 351 92 92 121 145 138 255 l12 75 99 70 c144 102 650 444 668 451 11
4 2 -34 -34 -138 l-49 -143 0 -677 c0 -596 -2 -678 -15 -678 -11 0 -15 -11
-15 -40 0 -33 -3 -40 -20 -40 -11 0 -20 -7 -20 -15 0 -13 -181 -15 -1477 -17
l-1478 -3 -55 -31 c-30 -17 -69 -39 -86 -49 l-32 -19 -56 48 c-71 60 -188 188
-260 284 -610 807 -539 1939 168 2671 313 324 726 535 1186 607 133 20 431 21
548 1 l82 -14 0 133 0 132 -42 6 c-92 12 -436 18 -503 8 -38 -5 -72 -8 -74 -6
-2 2 -8 45 -14 96 -18 165 19 371 95 523 156 310 453 510 801 541 l77 7 0 138
0 139 -27 0 c-114 -1 -367 -56 -451 -99 -81 -41 -82 -40 -82 33 0 76 10 71
-120 56 -298 -36 -534 -145 -749 -345 -52 -49 -54 -49 -47 -20 7 28 65 192
123 350 59 160 128 270 224 360 99 93 141 107 345 119 87 5 92 4 122 -21 17
-14 53 -62 79 -106 76 -130 143 -189 253 -221 76 -23 380 -34 435 -16 88 28
210 136 314 275 97 129 131 155 201 155 30 0 83 -7 118 -15z m-1393 -716 c44
-12 55 -23 55 -55 0 -33 -127 -142 -174 -149 l-36 -6 0 39 c0 67 -23 62 -104
-21 -167 -172 -280 -399 -321 -647 -14 -80 -16 -135 -12 -249 4 -80 9 -158 13
-172 6 -25 3 -27 -48 -39 -29 -7 -84 -24 -122 -37 -39 -13 -74 -19 -78 -15 -5
5 -18 54 -30 108 -17 82 -19 122 -15 239 6 159 25 240 86 371 74 158 195 301
330 393 63 43 238 131 260 131 6 0 11 9 11 20 0 11 -4 20 -10 20 -15 0 -12 36
4 49 31 26 132 36 191 20z m-438 -1316 c-3 -10 -5 -4 -5 12 0 17 2 24 5 18 2
-7 2 -21 0 -30z m33 10 c0 -19 -3 -24 -10 -17 -6 6 -8 18 -4 27 9 24 14 21 14
-10z m970 -1482 c262 -61 331 -92 429 -190 72 -72 118 -153 147 -261 24 -88
25 -275 2 -348 -93 -290 -385 -549 -743 -658 -81 -25 -106 -28 -245 -28 -154
-1 -155 -1 -204 28 -135 79 -251 263 -323 510 -22 75 -27 112 -27 211 -1 185
43 289 146 345 l46 25 -34 33 c-53 51 -44 110 28 179 68 65 259 149 390 172
87 16 281 7 388 -18z M5425 2644 c-55 -20 -171 -81 -225 -118 -54 -36 -130
-105 -130 -117 0 -11 91 24 150 58 41 24 243 164 265 184 14 13 -14 10 -60 -7z
M5686 2411 c-78 -113 -293 -285 -433 -347 -75 -34 -220 -71 -311 -80 -40 -3
-72 -7 -72 -8 0 0 7 -19 14 -41 8 -22 12 -52 9 -67 -4 -23 -1 -28 21 -34 39
-9 228 13 316 37 41 12 105 36 141 55 137 68 320 231 405 358 l36 55 -44 55
c-23 30 -46 55 -49 55 -4 1 -18 -16 -33 -38z M5960 2019 c-60 -82 -220 -234
-312 -296 -147 -98 -341 -159 -542 -171 l-120 -7 56 -55 c30 -30 57 -62 60
-70 4 -12 19 -13 116 -2 321 36 621 196 776 416 79 111 80 114 48 185 -15 33
-29 61 -32 61 -3 0 -25 -27 -50 -61z"/>
</g>
</svg>
