<?xml version="1.0" standalone="no"?>
<!DOCTYPE svg PUBLIC "-//W3C//DTD SVG 20010904//EN"
 "http://www.w3.org/TR/2001/REC-SVG-20010904/DTD/svg10.dtd">
<svg version="1.0" xmlns="http://www.w3.org/2000/svg"
 width="2048.000000pt" height="2048.000000pt" viewBox="0 0 2048.000000 2048.000000"
 preserveAspectRatio="xMidYMid meet">
<metadata>
Created by potrace 1.13, written by Peter Selinger 2001-2015
</metadata>
<g transform="translate(0.000000,2048.000000) scale(0.192120,-0.192120)"
fill="#000000" stroke="none">
<path d="M5190 9629 c-451 -23 -988 -199 -1405 -460 -891 -556 -1401 -1451
-1485 -2604 -13 -180 -13 -1287 0 -1600 45 -1085 184 -1648 441 -1790 50 -28
61 -30 149 -29 164 3 359 52 729 185 302 109 464 164 606 207 l130 39 3 49 3
49 -72 44 c-283 174 -556 454 -763 785 -159 254 -316 637 -383 939 l-8 38 -75
3 c-115 3 -204 57 -285 171 -119 166 -175 404 -154 653 11 132 40 240 93 347
144 293 397 366 592 171 l55 -56 182 148 c132 106 272 236 509 471 180 177
331 321 335 320 5 -2 67 -37 139 -76 304 -168 707 -333 1009 -413 190 -50 326
-70 550 -80 363 -16 552 -53 805 -157 115 -47 272 -142 350 -211 36 -32 65
-52 67 -45 9 27 84 110 126 141 69 49 114 65 189 65 197 0 369 -200 433 -504
65 -307 -15 -658 -190 -835 -85 -86 -137 -109 -248 -109 l-89 0 -33 -130
c-118 -459 -324 -859 -619 -1202 -144 -168 -364 -356 -524 -448 l-52 -30 2
-49 3 -49 70 -19 c103 -28 254 -78 597 -199 544 -192 745 -238 923 -209 263
42 374 244 430 784 32 318 39 594 40 1626 0 931 -2 1038 -18 1170 -88 704
-295 1231 -681 1730 -99 129 -347 379 -479 484 -591 470 -1318 720 -1997 685z
m510 -329 c485 -81 941 -282 1340 -590 119 -92 343 -315 442 -440 208 -263
365 -565 467 -899 37 -119 41 -143 41 -236 l0 -104 -73 52 c-107 77 -165 100
-268 105 -99 5 -157 -9 -271 -63 -40 -19 -86 -35 -102 -35 -16 0 -81 28 -150
64 -226 119 -459 195 -706 230 -58 8 -195 20 -305 26 -304 16 -466 47 -764
147 -191 64 -366 137 -617 258 -213 103 -271 125 -335 125 -108 0 -216 -78
-519 -374 -357 -351 -460 -436 -525 -436 -17 0 -69 13 -115 30 -67 23 -102 30
-166 30 -133 0 -228 -41 -361 -157 l-73 -64 0 95 c0 103 10 153 72 351 93 300
255 605 454 856 89 113 287 311 404 406 414 335 961 572 1455 632 50 6 101 13
115 15 70 12 441 -4 560 -24z m-3031 -3892 c41 -44 111 -103 160 -135 47 -31
94 -66 103 -77 9 -12 46 -95 81 -186 124 -313 180 -430 297 -620 139 -223 232
-346 398 -524 133 -142 134 -160 17 -205 -207 -78 -465 -167 -564 -192 -142
-37 -272 -44 -313 -17 -121 79 -208 404 -263 982 -20 211 -22 1071 -2 1060 6
-5 45 -43 86 -86z m5391 -1483 c-6 -55 -22 -151 -36 -212 -52 -234 -98 -283
-270 -283 -136 0 -277 37 -619 160 -280 102 -285 104 -285 143 0 24 19 49 98
131 266 278 499 655 661 1071 87 223 90 231 120 258 14 13 55 39 91 56 61 29
197 139 230 185 13 19 15 -55 18 -694 2 -472 -1 -749 -8 -815z M4327 6356
c-59 -22 -103 -61 -131 -118 -25 -49 -26 -60 -26 -212 0 -89 5 -178 11 -199
13 -48 70 -112 123 -139 56 -29 146 -29 202 0 52 27 97 77 119 135 24 63 19
366 -7 413 -22 41 -72 90 -111 110 -42 22 -134 27 -180 10z M6200 6354 c-59
-26 -101 -65 -126 -118 -22 -47 -24 -63 -24 -219 0 -186 7 -217 63 -275 66
-69 147 -92 232 -67 64 18 117 61 148 119 19 36 22 60 25 203 5 200 -5 239
-77 306 -70 65 -163 85 -241 51z M5063 5205 c-66 -28 -93 -125 -57 -201 29
-62 43 -64 344 -64 l270 0 37 33 c31 29 37 41 40 88 5 68 -18 117 -67 141 -31
16 -67 18 -285 18 -192 -1 -257 -4 -282 -15z M4658 4631 c-82 -52 -110 -153
-65 -241 38 -78 195 -180 360 -236 244 -83 569 -76 805 17 161 63 288 157 318
234 67 176 -137 330 -289 217 -118 -88 -215 -126 -363 -143 -171 -20 -363 19
-481 99 -116 77 -126 82 -184 82 -44 0 -64 -6 -101 -29z M4437 3598 c-5 -17 4
-31 36 -61 129 -120 308 -205 529 -249 150 -30 488 -32 638 -4 216 40 388 118
538 243 52 45 59 57 43 81 -6 11 -30 4 -112 -31 -256 -109 -448 -153 -709
-164 -291 -12 -558 40 -852 166 -53 22 -99 41 -101 41 -3 0 -7 -10 -10 -22z
M4362 3419 c3 -32 9 -37 118 -96 63 -35 118 -63 123 -63 20 0 1 30 -49 77 -61
58 -122 97 -167 109 -27 6 -28 5 -25 -27z M6255 3443 c-51 -13 -205 -146 -205
-177 0 -10 35 4 113 46 137 74 137 74 137 109 0 29 -5 32 -45 22z M3513 3099
c-825 -74 -1554 -565 -1742 -1174 -48 -155 -51 -206 -51 -922 l0 -673 1509 0
1509 0 -13 43 c-7 23 -183 605 -390 1292 -207 688 -390 1294 -406 1348 l-30
97 -147 -1 c-81 -1 -188 -5 -239 -10z m367 -364 c11 -227 21 -309 55 -435 12
-47 125 -425 250 -840 126 -415 230 -778 233 -806 6 -76 -11 -89 -124 -97
-116 -9 -209 -35 -356 -102 -65 -30 -123 -55 -129 -55 -14 0 9 40 142 257 66
105 119 196 119 200 0 5 -197 62 -437 128 -241 65 -441 121 -445 124 -4 4 8
47 26 96 19 50 156 432 306 849 337 942 330 923 342 902 5 -9 13 -108 18 -221z
m-336 38 c10 -43 -9 -100 -214 -674 -277 -771 -290 -811 -297 -903 -6 -73 -4
-82 23 -134 38 -73 136 -173 197 -201 27 -12 134 -46 238 -76 104 -29 193 -56
199 -60 18 -11 11 -51 -14 -74 -16 -15 -44 -25 -87 -31 -35 -5 -407 -10 -827
-10 l-763 0 3 617 3 618 34 78 c53 123 124 223 240 338 264 261 673 456 1091
520 163 25 167 24 174 -8z M6731 3014 c-16 -54 -199 -661 -406 -1349 -207
-687 -383 -1269 -390 -1292 l-13 -43 1509 0 1510 0 -4 718 c-3 693 -4 720 -25
805 -86 352 -314 659 -661 891 -189 126 -446 237 -681 295 -197 47 -315 62
-572 68 l-236 6 -31 -99z m145 -226 c31 -84 170 -470 309 -858 139 -388 262
-730 274 -760 11 -30 17 -57 13 -61 -4 -4 -90 -29 -192 -57 -524 -140 -690
-187 -690 -195 0 -5 46 -84 103 -175 137 -222 171 -282 157 -282 -6 0 -64 25
-128 56 -156 75 -203 90 -300 99 -47 4 -100 15 -122 26 -39 19 -40 21 -40 69
0 56 19 144 54 251 28 85 122 392 260 849 84 280 108 364 161 568 23 87 35
195 44 412 10 211 16 256 33 226 5 -8 34 -84 64 -168z m463 -3 c517 -74 1030
-383 1220 -737 85 -157 81 -112 81 -815 l0 -623 -767 1 c-423 0 -792 4 -822 8
-41 6 -60 14 -78 36 -49 56 -39 63 184 126 112 32 223 67 249 78 59 26 159
129 190 195 30 65 31 145 4 245 -11 40 -120 350 -241 689 -259 722 -259 723
-259 773 l0 39 68 0 c37 0 114 -7 171 -15z M4554 3092 c-28 -18 -30 -61 -28
-470 2 -386 4 -425 20 -443 9 -10 28 -19 41 -19 13 0 92 38 176 84 84 46 245
136 360 199 l207 115 361 -199 c198 -110 370 -199 383 -199 13 0 31 9 40 19
16 18 17 55 17 443 0 232 -1 428 -1 435 0 21 -31 43 -58 43 -15 0 -47 -12 -72
-26 -158 -91 -661 -364 -670 -364 -6 0 -170 88 -365 195 -194 107 -364 195
-377 195 -13 0 -28 -4 -34 -8z m285 -451 c6 -10 5 -23 -4 -34 -21 -29 -35 -20
-35 23 0 31 3 38 15 34 9 -4 20 -14 24 -23z m991 -12 c0 -11 -4 -18 -10 -14
-5 3 -7 12 -3 20 7 21 13 19 13 -6z M4240 2646 c0 -2 8 -10 18 -17 15 -13 16
-12 3 4 -13 16 -21 21 -21 13z M6399 2633 c-13 -16 -12 -17 4 -4 9 7 17 15 17
17 0 8 -8 3 -21 -13z M5255 1936 c-56 -25 -105 -101 -105 -163 1 -45 35 -108
76 -139 33 -25 46 -29 104 -29 57 0 72 4 103 28 85 64 98 177 30 258 -47 56
-139 76 -208 45z M5245 1207 c-46 -26 -82 -75 -91 -124 -13 -67 32 -155 97
-188 36 -19 122 -19 158 0 64 33 108 117 96 183 -22 122 -155 188 -260 129z
M5252 489 c-48 -24 -88 -76 -98 -127 l-6 -32 182 0 183 0 -7 32 c-16 79 -98
148 -177 148 -19 0 -53 -10 -77 -21z M4856 362 l-49 -27 61 -3 c34 -2 90 -2
125 0 l62 3 -46 28 c-57 34 -91 34 -153 -1z M5650 362 l-45 -27 63 -3 c34 -2
90 -2 124 0 l62 3 -51 28 c-64 34 -96 34 -153 -1z"/>
</g>
</svg>
