<?xml version="1.0" standalone="no"?>
<!DOCTYPE svg PUBLIC "-//W3C//DTD SVG 20010904//EN"
 "http://www.w3.org/TR/2001/REC-SVG-20010904/DTD/svg10.dtd">
<svg version="1.0" xmlns="http://www.w3.org/2000/svg"
 width="2048.000000pt" height="2048.000000pt" viewBox="0 0 2048.000000 2048.000000"
 preserveAspectRatio="xMidYMid meet">
<metadata>
Created by potrace 1.13, written by Peter Selinger 2001-2015
</metadata>
<g transform="translate(0.000000,2048.000000) scale(0.192120,-0.192120)"
fill="#000000" stroke="none">
<path d="M5320 10115 c-8 -2 -49 -9 -90 -15 -259 -42 -502 -205 -602 -405 -27
-53 -24 -52 -56 -22 -87 84 -309 112 -433 55 -72 -33 -128 -83 -253 -226 -58
-66 -124 -135 -148 -155 -160 -129 -417 -164 -567 -76 -59 35 -47 11 35 -67
158 -152 298 -240 444 -281 52 -14 101 -18 245 -17 164 0 189 3 279 27 130 36
231 87 303 152 l59 53 17 -89 c44 -232 171 -429 479 -741 35 -35 147 -119 165
-123 1 0 9 -65 18 -145 9 -80 18 -160 22 -177 l5 -33 -45 0 c-25 0 -47 5 -49
11 -5 16 -388 42 -518 35 -58 -4 -175 -13 -260 -22 -85 -9 -211 -18 -280 -21
l-125 -4 -810 401 c-445 221 -826 404 -846 407 -57 8 -145 -22 -192 -66 l-41
-38 -49 35 c-106 76 -296 113 -428 82 -96 -22 -198 -79 -269 -150 -113 -113
-164 -239 -163 -400 1 -161 56 -285 178 -399 219 -204 546 -198 761 14 84 83
136 178 155 284 7 39 14 71 16 71 1 0 175 -89 385 -199 1027 -532 1079 -558
1163 -576 48 -11 157 -21 275 -26 107 -4 222 -12 255 -18 252 -45 236 -40 287
-92 144 -147 328 -712 329 -1009 0 -107 -11 -174 -106 -613 -66 -309 -97 -483
-94 -534 1 -16 -27 -107 -63 -203 -36 -96 -85 -231 -109 -300 -24 -69 -81
-199 -126 -289 -45 -90 -80 -167 -77 -172 2 -5 25 -23 49 -40 25 -18 45 -36
45 -40 0 -4 -70 -114 -155 -244 -87 -133 -159 -255 -166 -278 -6 -23 -14 -48
-17 -55 -4 -6 -326 -307 -717 -667 -597 -551 -717 -657 -756 -670 -53 -18
-118 -70 -148 -119 -31 -49 -223 -844 -223 -919 0 -102 55 -186 156 -240 58
-31 184 -31 241 0 52 28 110 88 129 134 16 38 156 607 156 633 0 9 16 17 43
21 23 4 59 16 79 26 46 23 1487 1350 1588 1462 46 51 141 185 245 345 l170
261 55 1 55 1 120 177 c66 97 182 268 258 379 l138 203 218 -307 c119 -170
224 -318 232 -330 l16 -23 51 37 c29 20 54 34 56 32 2 -2 28 -53 59 -114 30
-60 92 -180 137 -265 76 -145 80 -156 63 -168 -10 -7 -305 -179 -656 -381
l-638 -368 -98 -100 c-55 -55 -108 -117 -118 -139 -17 -36 -18 -75 -18 -524 0
-544 -3 -519 75 -604 57 -61 118 -89 200 -89 112 0 207 60 254 162 20 44 21
63 24 428 l3 381 717 415 c394 228 754 435 799 461 137 79 189 158 186 286 0
30 -6 75 -13 100 -11 41 -157 335 -337 674 -81 154 -81 151 0 162 26 4 49 9
51 13 2 3 -116 248 -263 544 -230 466 -263 538 -243 534 17 -3 21 0 18 12 -66
229 -147 926 -130 1117 7 75 11 85 109 269 46 88 47 91 42 160 -3 39 -16 104
-30 145 -14 41 -24 76 -23 78 3 3 314 -149 516 -252 125 -65 139 -70 210 -73
41 -2 401 -52 800 -110 l725 -106 56 16 c194 57 252 297 106 438 -42 42 -95
62 -202 78 -63 10 -547 81 -1205 178 l-245 36 -110 57 c-374 197 -610 323
-675 363 -122 74 -238 117 -390 143 -74 13 -163 24 -197 24 l-62 0 -5 33 c-11
69 -38 328 -35 331 2 2 31 18 64 36 78 43 221 187 269 269 72 125 111 248 126
399 6 67 19 117 58 219 28 73 60 167 72 210 20 69 21 84 11 146 -22 135 -111
287 -246 422 -185 184 -333 243 -630 250 -88 2 -167 2 -175 0z m345 -331 c140
-27 140 -44 -3 -187 -90 -91 -120 -115 -187 -147 -320 -154 -327 -156 -409
-125 -70 27 -134 17 -202 -31 -105 -74 -112 -77 -143 -65 -32 14 -141 119
-141 137 0 6 21 22 47 34 71 33 120 69 219 162 49 46 111 98 137 116 164 113
427 154 682 106z m302 -247 c76 -57 149 -139 179 -203 33 -69 66 -226 51 -237
-7 -4 -37 -22 -67 -40 -72 -42 -102 -90 -130 -207 -49 -206 -86 -269 -240
-417 -67 -65 -129 -136 -162 -186 l-53 -81 -5 -185 c-3 -102 -9 -192 -13 -198
-12 -20 -34 -15 -40 7 -3 11 -12 20 -21 20 -14 0 -16 21 -16 164 l0 163 -31
59 c-39 74 -68 113 -139 188 -73 77 -142 112 -243 121 -42 4 -77 11 -77 15 0
4 9 42 20 86 23 89 21 115 -12 129 -50 22 -85 103 -94 220 -7 90 9 141 55 172
42 29 71 29 105 2 40 -32 54 -66 92 -232 47 -205 52 -215 53 -87 1 115 20 224
47 269 22 37 66 61 174 96 230 74 382 189 457 347 16 32 33 58 39 58 7 0 38
-20 71 -43z m-1534 -124 c15 -7 27 -18 27 -23 0 -16 -150 -98 -239 -131 -47
-17 -106 -31 -131 -32 -40 -2 -45 1 -48 21 -3 17 12 38 57 82 66 64 99 85 158
99 47 11 139 3 176 -16z m-2526 -1044 c52 -16 109 -29 125 -29 31 0 77 20 118
52 25 20 25 20 46 -6 30 -34 66 -133 62 -169 -3 -27 -9 -32 -57 -47 -61 -20
-127 -79 -196 -176 -68 -95 -124 -139 -195 -154 -64 -14 -158 -9 -224 10 -42
13 -120 79 -142 121 -9 19 -14 62 -14 134 0 115 10 148 55 183 14 11 25 25 25
30 0 16 60 58 100 70 89 28 162 23 297 -19z m3431 -719 c124 -46 309 -45 453
3 l67 23 31 -33 c42 -44 65 -55 210 -97 122 -36 228 -84 408 -184 131 -73 157
-82 233 -82 104 0 104 1 54 -95 -23 -46 -46 -99 -49 -118 l-7 -35 -62 63 c-98
100 -148 97 -273 -19 -80 -74 -103 -120 -103 -207 0 -50 -6 -81 -20 -109 -11
-22 -20 -49 -20 -60 0 -12 -20 -68 -45 -124 l-45 -104 0 -301 c0 -249 4 -326
21 -447 26 -186 50 -251 140 -370 39 -52 69 -98 66 -101 -3 -3 -57 0 -119 6
-144 14 -454 14 -589 1 -161 -17 -312 -54 -581 -145 -278 -93 -262 -96 -178
30 120 182 134 222 221 644 27 134 29 160 29 363 0 268 -15 355 -112 643 -85
254 -181 411 -326 531 -81 68 -232 143 -232 116 0 -6 -14 -7 -37 -2 -29 7 -52
3 -106 -15 -38 -14 -73 -22 -78 -19 -5 3 -9 30 -9 61 0 30 -9 96 -21 145 -12
49 -19 91 -17 94 3 2 32 -7 66 -21 34 -14 73 -25 86 -25 13 0 26 -4 28 -9 2
-6 39 -5 93 1 52 5 192 6 331 3 228 -7 243 -6 280 13 21 11 47 29 57 40 l19
21 40 -29 c22 -16 65 -39 96 -50z m902 -2612 c20 -8 49 -31 64 -49 16 -19 101
-180 190 -358 142 -285 161 -329 161 -372 0 -44 -4 -53 -35 -79 -49 -43 -186
-110 -224 -110 -95 0 -142 37 -259 199 -144 200 -268 317 -359 342 -56 15
-109 -7 -201 -81 -88 -71 -147 -142 -299 -358 -126 -179 -190 -251 -246 -278
-73 -35 -216 5 -272 76 -14 18 -31 39 -39 47 -7 8 -16 33 -18 56 -4 35 6 66
60 192 36 83 88 217 116 299 58 168 91 239 129 278 68 73 501 192 767 212 28
2 136 3 240 1 144 -1 199 -6 225 -17z m544 -1005 c-36 -120 -11 -218 123 -493
l106 -215 1 -82 c1 -71 -2 -84 -19 -98 -29 -23 -189 -116 -275 -161 -41 -21
-76 -42 -78 -46 -2 -5 -10 -8 -18 -8 -8 0 -26 -7 -39 -16 -13 -9 -31 -17 -40
-18 -9 -1 -20 -7 -23 -12 -4 -5 -12 -10 -18 -11 -6 -1 -40 -19 -75 -39 -35
-21 -69 -37 -76 -37 -7 0 -13 -4 -13 -8 0 -5 -13 -15 -30 -24 -16 -9 -30 -13
-30 -10 0 3 -9 -4 -20 -15 -12 -12 -25 -18 -30 -15 -6 4 -10 2 -10 -4 0 -13
-55 -42 -64 -34 -3 4 -6 1 -6 -5 0 -6 -13 -18 -30 -27 -16 -9 -30 -13 -30 -10
0 3 -9 -4 -20 -15 -12 -12 -25 -18 -30 -15 -6 4 -10 2 -10 -4 0 -13 -55 -42
-64 -34 -3 4 -6 1 -6 -5 0 -6 -13 -18 -30 -27 -16 -9 -30 -13 -30 -10 0 3 -9
-4 -20 -15 -12 -12 -25 -18 -30 -15 -6 4 -10 2 -10 -4 0 -13 -55 -42 -64 -34
-3 4 -6 1 -6 -5 0 -6 -25 -25 -55 -42 -55 -31 -75 -48 -193 -153 -64 -57 -99
-74 -127 -63 -56 21 42 111 211 193 53 26 184 98 224 124 8 5 26 15 40 21 14
7 27 15 30 19 5 6 115 69 160 91 14 7 27 15 30 19 5 6 115 69 160 91 14 7 27
15 30 19 3 3 30 19 60 35 30 16 59 32 65 37 5 4 38 25 71 47 34 22 93 71 132
109 173 171 207 281 141 448 -40 101 -115 247 -147 284 -27 33 -91 73 -165
105 l-48 21 63 40 c111 71 309 172 340 173 3 0 0 -21 -8 -47z m-2072 -217 c89
-52 140 -77 245 -121 l38 -16 -84 -44 c-102 -53 -140 -89 -239 -225 -110 -153
-201 -258 -300 -346 -48 -44 -119 -108 -157 -144 -39 -36 -118 -108 -175 -160
-57 -52 -132 -121 -167 -153 -63 -58 -138 -128 -255 -236 -35 -32 -92 -85
-128 -118 -291 -270 -397 -362 -473 -414 -49 -32 -97 -59 -107 -59 -35 0 -50
12 -50 40 0 22 15 40 67 86 163 142 1234 1136 1286 1195 55 60 197 263 197
280 0 4 26 50 57 101 100 164 108 188 108 310 0 105 0 107 20 94 11 -7 64 -38
117 -70z m542 -1735 c48 -51 126 -91 179 -91 43 0 46 -8 13 -39 -14 -13 -30
-36 -36 -52 -7 -16 -16 -29 -21 -29 -5 0 -9 -9 -9 -20 0 -11 -6 -19 -12 -17
-10 1 -14 -44 -18 -193 l-5 -195 -25 0 -25 0 -3 208 c-2 172 -5 209 -17 213
-8 4 -15 16 -15 28 0 12 -4 26 -9 31 -15 16 -48 127 -55 185 -6 45 -5 51 5 35
6 -11 30 -40 53 -64z m-2526 -383 c38 -54 66 -80 120 -111 l42 -24 -56 -38
c-79 -55 -102 -90 -151 -233 l-43 -127 4 310 c2 171 7 323 12 340 7 29 7 29
25 -22 10 -29 31 -72 47 -95z"/>
</g>
</svg>
