<?xml version="1.0" standalone="no"?>
<!DOCTYPE svg PUBLIC "-//W3C//DTD SVG 20010904//EN"
 "http://www.w3.org/TR/2001/REC-SVG-20010904/DTD/svg10.dtd">
<svg version="1.0" xmlns="http://www.w3.org/2000/svg"
 width="2048.000000pt" height="2048.000000pt" viewBox="0 0 2048.000000 2048.000000"
 preserveAspectRatio="xMidYMid meet">
<metadata>
Created by potrace 1.13, written by Peter Selinger 2001-2015
</metadata>
<g transform="translate(0.000000,2048.000000) scale(0.192120,-0.192120)"
fill="#000000" stroke="none">
<path d="M3062 9174 c-69 -18 -175 -77 -230 -127 -63 -59 -97 -138 -132 -316
-16 -84 -30 -158 -30 -162 0 -16 70 -9 108 10 48 24 72 59 128 179 52 111 92
157 184 212 58 35 78 40 187 54 139 18 160 14 191 -37 46 -74 46 -111 3 -378
-77 -473 -130 -879 -180 -1379 -35 -347 -66 -738 -60 -744 7 -7 169 -23 174
-17 3 2 5 36 5 75 0 251 135 1332 251 2016 44 260 44 281 -2 377 -86 180 -378
296 -597 237z M7340 9174 c-149 -32 -287 -128 -339 -237 -46 -96 -46 -117 -2
-377 116 -684 251 -1765 251 -2016 0 -39 2 -73 5 -75 6 -6 166 9 174 16 6 7
-31 467 -65 800 -47 460 -99 854 -175 1326 -41 250 -41 256 -25 310 8 30 27
68 40 84 24 29 27 30 103 28 99 -2 209 -26 273 -58 88 -44 119 -81 178 -205
64 -135 91 -172 137 -194 35 -17 95 -22 95 -7 0 39 -66 327 -84 366 -34 73
-94 134 -178 182 -126 71 -243 89 -388 57z M4028 8926 c-143 -26 -239 -91
-294 -201 l-25 -50 26 -22 c14 -13 35 -23 46 -23 11 0 66 20 122 44 119 51
180 71 261 85 32 6 64 15 70 19 6 5 33 14 60 21 45 11 50 10 72 -10 27 -25 59
-98 69 -155 4 -28 -4 -100 -24 -220 -76 -447 -256 -2014 -234 -2034 4 -4 36
-14 71 -23 46 -11 64 -12 67 -4 2 7 13 116 25 242 52 561 174 1418 219 1530
28 70 84 367 83 442 -2 196 -197 357 -447 368 -51 3 -123 -2 -167 -9z M6400
8933 c-215 -36 -381 -194 -382 -366 -1 -72 54 -360 87 -462 50 -150 162 -940
215 -1510 12 -126 23 -235 25 -242 3 -8 20 -7 67 4 35 9 67 19 71 23 8 7 -48
577 -104 1070 -40 358 -93 747 -130 965 -19 113 -28 194 -25 220 8 50 47 134
73 158 20 17 24 17 94 1 41 -9 83 -20 94 -25 11 -4 49 -15 85 -24 78 -19 102
-28 200 -73 84 -39 133 -43 161 -15 19 18 19 20 -6 69 -33 67 -98 131 -163
161 -84 39 -266 62 -362 46z M2190 8799 c-19 -6 -69 -12 -111 -14 -43 -2 -101
-14 -133 -26 -81 -30 -167 -112 -211 -203 -72 -146 -167 -635 -224 -1156 -28
-246 -61 -639 -61 -720 0 -36 -3 -75 -6 -87 -6 -20 -9 -19 -62 22 -184 142
-405 174 -583 84 -31 -15 -70 -44 -88 -65 l-33 -37 7 -146 c12 -262 -16 -491
-124 -981 -105 -482 -126 -641 -118 -909 5 -187 17 -273 57 -431 52 -205 163
-443 309 -662 164 -246 267 -360 639 -706 198 -185 326 -361 374 -512 20 -66
23 -95 23 -235 0 -114 -5 -183 -18 -240 -16 -73 -16 -85 -2 -138 20 -76 38
-110 83 -155 55 -55 122 -90 215 -114 74 -19 100 -20 272 -15 182 6 1524 76
1845 97 249 16 362 54 464 156 107 107 148 233 171 528 28 357 64 504 215 867
172 412 215 595 227 957 3 100 10 182 14 182 5 0 9 -54 9 -119 0 -215 34 -461
90 -648 16 -56 62 -180 101 -275 193 -473 225 -593 254 -958 16 -205 24 -257
55 -344 58 -169 181 -278 361 -321 69 -17 212 -26 1224 -81 878 -47 1011 -51
1098 -30 94 22 168 59 221 110 52 51 71 84 91 163 14 53 14 65 -2 138 -12 57
-18 127 -18 240 0 140 3 169 23 235 28 87 69 159 163 285 68 91 147 171 364
369 273 249 487 525 639 826 145 285 204 512 213 821 9 270 -13 436 -118 919
-108 492 -136 720 -124 981 l7 146 -33 37 c-67 76 -203 122 -334 113 -127 -10
-239 -54 -343 -136 l-51 -41 -5 33 c-3 17 -8 88 -11 157 -14 301 -80 891 -135
1210 -42 242 -96 471 -132 558 -59 141 -182 239 -312 248 -34 3 -102 12 -153
21 -75 14 -103 15 -153 5 -129 -24 -242 -101 -286 -197 -30 -63 -30 -92 1
-245 116 -568 229 -1404 243 -1805 l7 -179 83 -19 c46 -10 86 -16 89 -13 7 7
-14 465 -33 676 -38 454 -100 853 -195 1267 -21 94 -39 180 -39 190 0 58 33
128 85 179 61 62 64 62 159 0 28 -18 83 -44 121 -56 114 -37 162 -75 205 -160
88 -176 183 -737 245 -1455 27 -305 40 -350 125 -411 28 -20 50 -37 50 -39 0
-1 -13 -31 -30 -66 -108 -232 -114 -575 -20 -1169 16 -102 30 -201 32 -220 l3
-35 -90 -28 c-428 -135 -666 -271 -943 -541 -183 -179 -292 -325 -292 -393 0
-46 30 -73 81 -73 46 0 68 19 134 116 60 88 315 339 440 432 146 109 321 197
521 262 180 58 222 81 258 142 30 53 49 153 41 216 -4 26 -27 180 -50 342 -76
513 -97 766 -76 914 6 44 13 81 14 83 2 1 21 -6 42 -17 51 -26 79 -25 200 5
122 30 242 34 286 8 16 -10 29 -23 29 -29 0 -6 7 -17 15 -24 12 -10 15 -38 15
-129 0 -64 7 -174 15 -246 23 -217 29 -250 167 -895 31 -145 31 -146 35 -516
l4 -372 -26 -103 c-56 -225 -176 -475 -333 -694 -127 -179 -214 -277 -400
-452 -92 -87 -202 -194 -246 -238 -172 -175 -289 -361 -341 -541 -23 -81 -25
-101 -25 -313 0 -124 -3 -243 -6 -263 -8 -46 -67 -109 -120 -127 -77 -26 -266
-23 -1054 19 -1131 59 -1060 57 -1157 31 -45 -11 -102 -21 -126 -21 -40 0 -49
5 -89 48 -24 26 -60 79 -79 117 l-34 70 0 320 c-1 264 -4 337 -19 420 -34 187
-72 296 -170 493 -157 312 -258 860 -297 1597 -11 214 -11 321 7 1630 7 462
-4 936 -31 1415 -21 361 -23 336 23 351 20 7 71 28 112 48 79 38 119 42 290
31 63 -4 110 15 136 56 16 24 16 26 -7 50 -56 60 -180 104 -293 104 -115 0
-259 -106 -327 -241 -35 -71 -59 -157 -59 -216 0 -24 -4 -43 -10 -43 -5 0 -10
19 -10 43 0 59 -24 145 -59 216 -68 135 -212 241 -327 241 -113 0 -237 -44
-293 -104 l-25 -26 20 -28 c28 -37 103 -61 157 -51 23 4 78 7 122 6 69 -2 90
-7 155 -38 41 -19 90 -41 108 -48 39 -16 38 4 17 -351 -27 -483 -38 -953 -31
-1425 3 -253 9 -670 12 -927 7 -501 -2 -774 -37 -1118 -55 -557 -139 -922
-274 -1190 -69 -138 -105 -231 -134 -348 -40 -158 -45 -219 -45 -547 l-1 -320
-32 -67 c-17 -37 -53 -90 -79 -118 -55 -59 -76 -62 -187 -29 -85 26 -90 26
-1077 -26 -1064 -56 -1119 -56 -1170 -5 -10 10 -33 26 -49 35 -52 27 -55 39
-61 335 -6 251 -8 281 -29 340 -76 218 -210 404 -454 632 -304 283 -466 469
-614 703 -120 190 -220 428 -258 613 -14 72 -16 133 -12 440 l4 357 41 190
c139 643 162 782 169 1047 4 134 9 180 19 189 8 6 14 17 14 24 0 23 68 38 144
32 107 -10 137 -15 199 -36 65 -23 125 -18 173 13 14 10 28 16 30 14 2 -3 9
-40 15 -84 21 -148 0 -401 -76 -914 -23 -162 -46 -316 -50 -342 -8 -63 11
-163 41 -216 35 -60 79 -85 244 -137 196 -63 395 -161 535 -266 126 -95 381
-345 440 -433 66 -97 88 -116 134 -116 51 0 81 27 81 73 0 69 -110 217 -300
400 -256 249 -500 394 -859 508 -69 22 -136 45 -148 49 -25 10 -27 -13 18 262
46 286 62 457 62 663 0 248 -25 392 -92 523 -11 22 -21 44 -21 46 0 3 19 18
42 32 107 68 115 96 153 515 60 665 156 1215 235 1354 49 86 119 136 255 184
32 11 68 29 79 40 28 25 61 41 84 41 32 0 110 -94 127 -153 20 -68 20 -65 -24
-260 -106 -460 -169 -894 -205 -1402 -21 -292 -30 -545 -20 -545 5 0 45 9 89
18 l80 18 6 180 c14 390 94 1005 211 1629 66 350 66 353 34 419 -72 146 -276
237 -436 195z"/>
</g>
</svg>
