<?xml version="1.0" standalone="no"?>
<!DOCTYPE svg PUBLIC "-//W3C//DTD SVG 20010904//EN"
 "http://www.w3.org/TR/2001/REC-SVG-20010904/DTD/svg10.dtd">
<svg version="1.0" xmlns="http://www.w3.org/2000/svg"
 width="2048.000000pt" height="2048.000000pt" viewBox="0 0 2048.000000 2048.000000"
 preserveAspectRatio="xMidYMid meet">
<metadata>
Created by potrace 1.13, written by Peter Selinger 2001-2015
</metadata>
<g transform="translate(0.000000,2048.000000) scale(0.192120,-0.192120)"
fill="#000000" stroke="none">
<path d="M6455 10323 c-309 -43 -597 -247 -735 -523 -137 -273 -142 -599 -12
-856 63 -123 58 -119 118 -89 80 40 89 79 53 234 -18 78 -20 115 -17 293 3
229 4 232 92 367 64 97 98 134 173 188 217 155 548 179 791 56 44 -22 77 -45
82 -58 4 -11 27 -34 49 -50 66 -45 143 -135 181 -210 l35 -69 3 -227 c3 -206
1 -232 -17 -284 -30 -85 -102 -194 -178 -269 -68 -66 -102 -90 -242 -169 -41
-23 -88 -59 -105 -80 -26 -33 -31 -48 -34 -109 l-4 -71 62 7 c205 23 446 164
588 343 266 334 290 788 60 1140 -149 228 -382 381 -653 429 -74 13 -220 16
-290 7z M5910 10239 c-390 -80 -762 -221 -1125 -427 -140 -79 -415 -267 -551
-376 -131 -105 -379 -335 -370 -343 2 -3 53 9 113 27 218 62 313 75 578 75
191 0 260 -4 340 -19 133 -24 308 -75 430 -125 59 -25 103 -37 108 -32 28 28
-72 162 -148 199 -123 60 -358 114 -592 136 -83 7 -156 17 -162 20 -16 10 -13
48 5 74 47 68 513 333 739 422 33 13 62 27 65 30 3 4 49 26 103 50 54 23 157
78 230 123 72 44 177 102 231 128 97 48 99 57 6 38z M4860 8855 c-310 -34
-573 -109 -830 -236 -427 -212 -742 -545 -913 -965 -93 -226 -127 -407 -127
-675 0 -198 12 -339 40 -479 l19 -94 -45 -46 c-65 -64 -130 -200 -155 -325
-27 -131 -22 -339 11 -455 49 -173 147 -310 258 -361 46 -21 53 -28 57 -59 76
-497 264 -938 552 -1296 105 -129 285 -302 401 -384 l92 -65 0 -292 0 -293
-690 0 c-580 0 -698 2 -747 15 -44 12 -120 15 -331 15 l-275 0 -291 62 c-160
33 -314 61 -343 60 -121 -1 -237 -98 -258 -214 -4 -21 -12 -35 -18 -32 -7 2
-174 31 -371 64 -245 42 -371 59 -397 55 -48 -8 -109 -52 -138 -98 -30 -48
-38 -125 -18 -163 20 -38 90 -103 148 -137 25 -15 333 -123 686 -242 l642
-215 91 0 90 0 -2 -835 -3 -835 3335 0 3335 0 -3 1355 -2 1355 100 0 99 0 643
215 c353 118 662 227 687 242 25 15 67 47 93 71 l48 45 0 90 0 90 -43 42 c-77
78 -79 78 -476 10 -456 -78 -408 -74 -416 -33 -17 78 -87 164 -159 193 -74 31
-101 28 -401 -36 l-290 -63 -325 -5 -325 -6 -67 -32 c-111 -52 -201 -152 -235
-260 -19 -61 -44 -530 -36 -671 l6 -102 -701 0 -702 0 0 259 c0 142 3 272 6
288 4 21 19 37 52 58 83 52 235 180 322 271 341 354 573 811 666 1314 34 182
34 182 69 193 117 38 222 184 276 382 32 115 32 364 1 480 -28 102 -80 209
-131 267 l-40 45 16 114 c11 80 16 198 17 399 1 319 -8 383 -80 593 -109 312
-348 646 -613 855 l-53 42 -97 0 c-155 0 -278 29 -416 98 -101 50 -167 98
-274 197 -138 127 -147 133 -237 149 -202 38 -547 47 -784 21z m587 -306 c234
-19 283 -36 426 -148 162 -126 324 -201 522 -241 144 -29 183 -47 262 -122
197 -188 353 -424 423 -640 l30 -92 0 -326 c0 -179 -4 -331 -9 -338 -11 -19
-49 28 -106 132 -25 46 -64 105 -88 132 -53 61 -148 130 -195 144 -20 6 -131
19 -247 30 -358 34 -568 77 -805 166 -158 59 -226 64 -286 21 -21 -15 -59 -45
-82 -67 -60 -55 -87 -53 -174 10 -155 113 -216 126 -304 64 -134 -95 -151 -99
-247 -56 -70 33 -101 52 -277 173 -155 107 -198 129 -266 136 -46 5 -63 2
-117 -25 -159 -78 -390 -340 -521 -589 -45 -85 -83 -130 -97 -116 -7 7 -9 110
-7 284 l4 274 33 100 c73 218 174 377 351 556 235 236 505 382 882 474 121 30
306 59 438 68 108 8 339 6 457 -4z m-1325 -1290 c230 -184 447 -310 571 -332
56 -9 68 -8 103 9 59 29 76 71 71 167 l-5 78 117 -113 c137 -132 281 -251 366
-302 62 -37 120 -47 143 -24 33 33 -2 186 -81 361 -20 42 -33 77 -30 77 3 0
25 -18 50 -39 178 -158 627 -271 1171 -297 l143 -7 184 -366 c101 -201 197
-380 213 -398 81 -87 149 -34 211 162 l28 90 12 -99 c13 -102 11 -134 -15
-270 -9 -43 -20 -111 -24 -150 -19 -164 -53 -240 -166 -373 -125 -147 -154
-200 -195 -361 -47 -186 -218 -646 -295 -790 -88 -168 -231 -339 -404 -481
-128 -105 -212 -192 -261 -266 -43 -66 -52 -100 -45 -169 l6 -63 -87 -40
c-317 -147 -708 -188 -1058 -113 -115 25 -289 85 -379 130 l-71 35 3 72 c7
127 -26 170 -364 493 -151 143 -247 280 -388 551 -91 174 -154 365 -221 664
-10 44 -27 96 -38 115 -35 64 -86 134 -125 175 -135 140 -179 248 -193 470 -4
66 -13 163 -20 215 -12 92 -6 270 9 270 4 0 18 -27 30 -60 33 -84 95 -173 136
-195 32 -17 36 -18 60 -2 26 18 31 30 67 182 56 237 195 551 326 735 57 80
308 350 326 350 3 0 57 -41 119 -91z m5184 -3576 c16 -37 39 -79 50 -93 22
-26 27 -41 25 -71 -3 -39 -324 -154 -601 -214 -58 -13 -143 -37 -190 -54 l-85
-31 -336 0 -337 0 -7 65 c-8 74 2 302 16 356 l9 36 523 6 c521 7 522 7 687 36
231 41 212 44 246 -36z m-4812 -537 c216 -144 428 -194 776 -183 310 10 487
66 707 223 21 15 21 13 -8 -98 -20 -81 -29 -138 -29 -199 0 -63 -4 -90 -14
-99 -8 -6 -16 -26 -18 -43 -4 -46 -131 -152 -251 -210 -128 -63 -231 -87 -403
-94 -298 -12 -539 66 -724 234 -55 51 -70 71 -70 93 0 16 -4 32 -10 35 -6 3
-10 48 -10 99 0 66 -7 123 -25 194 -26 107 -27 112 -21 112 2 0 47 -29 100
-64z m4038 -112 l76 -7 -48 -46 c-51 -50 -90 -108 -90 -135 0 -9 -4 -16 -10
-16 -7 0 -10 -367 -10 -1080 0 -713 -3 -1080 -10 -1080 -5 0 -10 -20 -10 -45
0 -38 -3 -45 -20 -45 -11 0 -20 -7 -20 -15 0 -13 -39 -15 -295 -15 -162 0
-295 -4 -295 -9 0 -5 -25 -11 -56 -13 -31 -3 -59 -9 -62 -14 -11 -16 -113 -66
-121 -59 -8 8 -14 2206 -6 2262 6 41 8 42 60 58 39 11 61 25 80 49 33 43 32
58 -9 138 l-34 67 52 4 c94 6 752 7 828 1z m-4123 -465 c205 -205 473 -309
796 -309 390 0 691 150 891 445 l57 85 28 -49 c34 -59 77 -97 127 -111 50 -13
782 -14 782 0 0 6 10 10 23 10 12 0 53 18 90 39 l67 40 0 -1140 0 -1139 -40
25 c-22 14 -46 25 -54 25 -8 0 -22 8 -32 18 -16 16 -73 17 -851 20 -531 2
-833 6 -833 12 0 7 -327 10 -910 10 -514 0 -910 -4 -910 -9 0 -5 -25 -11 -56
-13 -31 -3 -59 -9 -62 -15 -4 -6 -18 -14 -32 -18 -14 -4 -42 -19 -62 -32 l-38
-23 0 780 0 780 -124 0 c-68 0 -131 -3 -140 -6 -14 -6 -16 -81 -16 -749 0
-408 -3 -756 -6 -773 l-6 -30 -52 31 c-28 17 -52 35 -54 39 -2 4 -19 10 -38
14 -19 3 -34 10 -34 15 0 5 -130 9 -295 9 -256 0 -295 2 -295 15 0 11 -11 15
-40 15 l-40 0 0 45 c0 33 -4 45 -15 45 -13 0 -15 69 -15 560 0 367 -3 560 -10
560 -5 0 -10 9 -10 20 0 11 -4 20 -9 20 -5 0 -13 9 -16 20 -3 11 -33 47 -66
80 l-59 60 531 0 530 0 -3 268 c-3 251 -5 270 -27 325 -12 32 -37 77 -55 100
-50 66 -52 70 -25 62 13 -4 72 -29 131 -56 96 -44 115 -49 178 -49 40 0 70 -4
70 -10 0 -6 114 -10 323 -10 373 0 401 4 460 69 20 22 43 54 52 71 l16 31 51
-73 c28 -40 86 -107 127 -149z m-2764 106 l210 -35 527 0 528 0 17 -27 c15
-23 19 -55 21 -196 3 -167 3 -170 -17 -164 -19 5 -21 1 -21 -39 l0 -44 -322 0
c-380 1 -436 6 -566 53 -53 19 -149 47 -212 62 -144 33 -377 109 -452 146 -75
38 -79 54 -31 132 21 34 47 81 57 105 11 24 26 42 35 42 9 0 111 -16 226 -35z
M4185 6301 c-46 -12 -87 -36 -122 -73 -57 -59 -63 -88 -63 -288 0 -200 6 -229
63 -288 99 -104 269 -101 357 6 50 61 60 108 60 282 0 173 -10 221 -59 281
-51 61 -162 99 -236 80z M6107 6296 c-63 -17 -116 -61 -149 -126 -27 -51 -28
-56 -28 -230 0 -175 0 -179 28 -231 55 -105 166 -157 273 -126 70 21 126 68
155 131 22 48 24 63 24 226 0 163 -2 178 -24 226 -29 62 -84 110 -150 129 -58
18 -66 18 -129 1z M4964 5259 c-63 -18 -124 -104 -124 -175 0 -65 48 -134 115
-165 35 -16 67 -19 250 -19 234 0 266 7 318 69 23 28 47 86 47 116 0 30 -24
88 -47 116 -53 62 -84 69 -318 68 -115 0 -224 -5 -241 -10z M5930 4376 c-201
-110 -349 -139 -720 -139 -343 -1 -537 31 -687 114 -106 57 -175 52 -236 -20
-52 -62 -43 -151 20 -213 46 -45 179 -108 288 -136 352 -93 948 -86 1265 13
109 35 212 89 250 131 74 85 54 206 -44 253 -55 27 -82 26 -136 -3z M1410
8229 c-376 -79 -659 -360 -751 -746 -18 -75 -20 -109 -16 -233 3 -91 11 -167
21 -205 98 -353 355 -613 698 -707 72 -20 107 -23 258 -23 l175 0 109 38 c61
21 135 52 165 69 303 170 491 467 508 804 34 637 -543 1133 -1167 1003z m358
-285 c156 -32 271 -93 382 -204 53 -52 86 -96 110 -145 l35 -70 0 -240 c0
-276 -2 -285 -97 -422 -102 -147 -292 -257 -512 -294 -291 -49 -619 115 -747
375 l-44 89 -3 196 c-4 217 1 248 54 359 42 87 147 199 241 256 72 43 202 93
276 105 85 14 223 12 305 -5z M8210 7851 c0 -6 4 -12 10 -16 17 -10 139 -202
189 -298 106 -199 184 -441 215 -666 29 -203 17 -488 -28 -701 -8 -36 -13 -66
-11 -68 3 -4 120 196 159 273 l31 60 0 255 c0 273 3 250 -64 530 -24 97 -24
100 -12 119 8 12 20 7 65 -28 31 -23 60 -40 65 -37 10 7 37 -13 182 -135 102
-87 227 -210 504 -500 50 -52 147 -145 217 -207 70 -62 164 -152 209 -200 l82
-87 -53 100 c-323 607 -934 1190 -1626 1552 -126 66 -134 69 -134 54z M532
7030 c-151 -687 -80 -1488 195 -2210 56 -147 73 -180 73 -144 1 42 30 235 50
327 34 157 85 301 165 462 139 284 320 505 577 705 32 24 56 45 54 47 -1 2
-55 -13 -118 -32 -208 -63 -298 -114 -387 -221 -23 -27 -56 -67 -75 -89 -50
-61 -99 -140 -178 -292 -91 -175 -104 -195 -132 -191 -30 4 -61 98 -91 277
-41 248 -46 306 -55 641 -5 207 -14 368 -24 443 -10 64 -20 177 -24 250 l-7
132 -23 -105z M9168 6330 c-190 -34 -363 -121 -503 -251 -130 -122 -216 -263
-272 -444 -25 -83 -27 -103 -27 -265 0 -163 2 -181 28 -265 104 -340 355 -584
696 -677 122 -33 356 -33 480 0 445 119 747 526 727 982 -12 294 -149 560
-377 732 -85 65 -245 143 -345 169 -89 24 -323 35 -407 19z m377 -264 c163
-44 302 -143 394 -282 86 -128 91 -151 91 -405 0 -257 -8 -295 -92 -415 -90
-131 -205 -217 -363 -270 -107 -36 -302 -45 -421 -20 -194 42 -373 167 -467
324 -74 126 -79 150 -75 401 l3 216 38 74 c114 222 253 329 502 387 80 18 308
13 390 -10z"/>
</g>
</svg>
