<?xml version="1.0" standalone="no"?>
<!DOCTYPE svg PUBLIC "-//W3C//DTD SVG 20010904//EN"
 "http://www.w3.org/TR/2001/REC-SVG-20010904/DTD/svg10.dtd">
<svg version="1.0" xmlns="http://www.w3.org/2000/svg"
 width="2048.000000pt" height="2048.000000pt" viewBox="0 0 2048.000000 2048.000000"
 preserveAspectRatio="xMidYMid meet">
<metadata>
Created by potrace 1.13, written by Peter Selinger 2001-2015
</metadata>
<g transform="translate(0.000000,2048.000000) scale(0.192120,-0.192120)"
fill="#000000" stroke="none">
<path d="M5215 10284 c-230 -27 -396 -64 -630 -144 -369 -126 -700 -324 -929
-555 -101 -102 -167 -192 -225 -306 -27 -53 -65 -118 -85 -146 -135 -189 -166
-474 -76 -704 64 -161 201 -311 360 -394 19 -10 71 -31 114 -46 l80 -26 136
-329 c168 -405 188 -450 199 -438 16 17 41 104 41 145 0 48 -14 77 -91 190
-76 113 -118 199 -164 336 -40 122 -63 153 -116 153 -16 0 -29 2 -29 4 0 2
-16 38 -35 80 l-34 76 54 34 c30 19 72 51 93 71 35 31 43 34 67 25 46 -17 204
-40 330 -46 137 -7 344 7 502 36 59 10 109 18 110 16 2 -2 89 -142 193 -312
223 -365 213 -350 205 -304 -52 308 51 537 255 569 110 17 202 -23 245 -110
37 -71 45 -132 54 -372 l7 -212 34 -65 c26 -48 70 -101 173 -204 75 -76 136
-140 135 -141 -2 -1 -23 -13 -48 -27 -119 -69 -129 -112 -75 -333 49 -203 65
-233 140 -263 91 -37 90 -46 9 280 -30 119 -54 221 -54 226 0 13 63 92 74 92
11 0 19 10 115 150 218 320 347 631 407 985 12 69 18 158 18 285 0 189 -10
282 -45 424 -11 43 -17 81 -14 85 4 3 55 6 113 6 174 0 311 -57 378 -156 55
-83 77 -175 119 -499 48 -366 104 -523 231 -645 54 -51 172 -115 259 -141 131
-37 288 -14 402 61 61 41 123 94 123 106 0 5 -20 9 -45 9 -160 0 -309 90 -380
230 -93 184 -87 432 19 758 58 178 72 275 57 391 -27 214 -133 393 -321 544
-214 172 -516 256 -725 202 -165 -43 -328 -160 -423 -302 l-35 -54 -40 63
c-104 166 -276 348 -415 441 -229 153 -547 231 -817 201z m251 -255 c184 -20
332 -71 470 -161 77 -51 175 -143 324 -304 41 -45 99 -98 129 -118 94 -64 156
-48 307 79 102 86 221 150 309 166 223 41 526 -87 679 -287 63 -82 66 -96 66
-309 0 -161 -3 -203 -19 -256 -67 -221 -64 -205 -70 -507 l-6 -283 -28 43
c-46 71 -76 188 -122 478 -29 177 -54 271 -101 369 -38 77 -60 108 -127 176
-120 121 -253 179 -412 179 -89 0 -141 -24 -223 -104 -103 -100 -96 -63 -103
-555 -5 -425 -5 -431 -31 -526 -71 -258 -225 -579 -309 -641 -35 -26 -69 -16
-121 38 -50 52 -67 80 -68 115 0 14 -6 39 -14 55 -9 18 -16 83 -21 169 -11
250 -48 366 -147 472 -28 29 -76 65 -107 80 -48 24 -68 28 -141 28 -117 0
-186 -33 -303 -144 -47 -44 -94 -81 -103 -81 -16 0 -34 17 -142 138 -43 48
-80 79 -118 98 -54 26 -59 27 -172 20 -64 -4 -155 -11 -202 -16 -129 -13 -324
-11 -430 5 -179 28 -231 17 -364 -74 -48 -32 -86 -51 -104 -51 -42 0 -91 37
-134 100 -57 84 -68 131 -68 301 0 125 3 156 20 199 22 57 167 304 214 365
134 176 368 352 651 490 282 138 571 221 900 259 65 7 150 6 241 -5z M4173
8034 c-44 -22 -75 -74 -75 -127 0 -39 48 -169 83 -225 18 -29 81 -62 119 -62
71 0 150 78 150 149 0 24 -62 181 -86 219 -37 57 -125 78 -191 46z M4215 7179
c-64 -26 -86 -48 -87 -88 -2 -73 68 -93 161 -46 74 37 93 91 48 133 -28 27
-57 27 -122 1z M4280 6944 c38 -68 111 -174 133 -193 13 -10 16 -2 22 61 10
110 -7 140 -92 162 -26 7 -59 16 -72 21 -24 7 -24 7 9 -51z M4928 6935 c-14
-8 -120 -53 -235 -100 -114 -48 -221 -92 -238 -99 l-29 -13 58 -61 c32 -34 83
-80 113 -103 64 -50 65 -50 174 50 101 91 165 196 193 314 7 31 2 32 -36 12z
M6266 6456 c-18 -116 -151 -315 -273 -408 -90 -68 -160 -92 -248 -83 -126 12
-198 50 -239 125 -15 28 -36 105 -56 200 -17 85 -33 163 -36 172 -5 15 -10 15
-68 -7 -133 -50 -325 -70 -434 -45 -36 9 -49 7 -85 -11 -233 -119 -418 -351
-483 -606 -22 -88 -24 -115 -24 -326 l0 -230 -39 -61 c-96 -153 -160 -324
-188 -500 -26 -172 -8 -394 45 -551 l19 -56 -66 -36 c-240 -132 -478 -330
-661 -547 -219 -261 -405 -638 -479 -971 -53 -239 -70 -556 -42 -777 63 -503
283 -971 620 -1320 l84 -88 1831 0 1831 0 0 1201 0 1202 25 16 c89 58 636 444
840 592 291 212 444 333 523 413 227 230 267 492 114 730 -27 41 -322 357
-816 873 -426 444 -806 838 -844 876 -118 114 -251 192 -409 238 -59 17 -108
23 -254 26 l-181 5 -7 -46z m376 -205 c159 -41 229 -90 497 -349 303 -291 349
-338 812 -822 632 -661 622 -649 663 -734 32 -66 36 -82 36 -152 -1 -139 -68
-253 -233 -392 -118 -100 -436 -334 -782 -577 -312 -219 -414 -305 -453 -386
-24 -49 -28 -102 -12 -143 9 -25 5 -30 -64 -81 -104 -76 -647 -445 -656 -445
-5 0 3 39 16 88 34 118 29 177 -20 276 -73 148 -224 267 -358 282 -32 4 -100
1 -153 -6 -53 -7 -98 -10 -101 -7 -8 8 41 57 701 697 308 299 629 611 713 694
l153 150 -394 394 -393 393 -67 -100 c-37 -56 -67 -105 -67 -110 0 -5 119
-126 265 -268 146 -141 264 -263 263 -270 -2 -7 -95 -106 -208 -220 -113 -114
-356 -363 -540 -553 -184 -190 -429 -441 -546 -559 l-212 -214 -57 21 c-31 12
-68 22 -82 22 -88 0 -321 -100 -397 -170 -64 -59 -114 -138 -143 -228 -14 -42
-42 -108 -63 -147 -21 -38 -45 -94 -54 -124 -23 -77 -21 -188 4 -246 14 -33
21 -75 23 -153 6 -155 25 -202 168 -414 108 -160 214 -255 329 -294 119 -40
370 -14 550 56 217 85 445 244 524 366 30 45 56 130 56 181 0 27 9 38 68 81
122 90 712 489 736 498 9 4 -3 -44 -35 -138 l-49 -143 0 -677 c0 -596 -2 -678
-15 -678 -11 0 -15 -11 -15 -40 0 -33 -3 -40 -20 -40 -11 0 -20 -7 -20 -15 0
-13 -181 -15 -1477 -17 l-1478 -3 -55 -31 c-30 -17 -69 -39 -86 -49 l-32 -19
-56 48 c-71 60 -188 188 -260 284 -610 807 -539 1939 168 2671 313 324 726
535 1186 607 133 20 431 21 548 1 l82 -14 0 133 0 132 -42 6 c-92 12 -436 18
-503 8 -38 -5 -72 -8 -74 -6 -2 2 -8 45 -14 96 -18 165 19 371 95 523 156 310
453 510 801 541 l77 7 0 138 c0 161 15 146 -135 128 -118 -14 -256 -50 -343
-88 -39 -17 -73 -31 -76 -31 -3 0 -6 29 -6 65 0 75 10 70 -120 55 -298 -36
-534 -145 -749 -345 -52 -49 -54 -49 -47 -20 7 28 65 192 123 350 63 169 129
273 239 374 106 97 131 107 312 121 l124 10 33 -27 c18 -14 46 -54 61 -87 69
-148 165 -231 294 -256 29 -5 127 -11 219 -12 143 -1 171 1 201 16 67 35 169
127 232 208 35 45 89 108 120 140 l57 58 69 0 c38 0 103 -9 144 -19z m-1407
-712 c44 -12 55 -23 55 -55 0 -33 -127 -142 -174 -149 l-36 -6 0 39 c0 67 -23
62 -104 -21 -167 -172 -280 -399 -321 -647 -14 -80 -16 -135 -12 -249 4 -80 9
-158 13 -172 6 -25 3 -27 -48 -39 -29 -7 -84 -24 -122 -37 -39 -13 -74 -19
-78 -15 -5 5 -18 54 -30 108 -17 82 -19 122 -15 239 6 159 25 240 86 371 74
158 195 301 330 393 63 43 238 131 260 131 6 0 11 9 11 20 0 11 -4 20 -10 20
-15 0 -12 36 4 49 31 26 132 36 191 20z m-438 -1316 c-3 -10 -5 -4 -5 12 0 17
2 24 5 18 2 -7 2 -21 0 -30z m33 10 c0 -19 -3 -24 -10 -17 -6 6 -8 18 -4 27 9
24 14 21 14 -10z m970 -1482 c258 -59 331 -91 429 -190 102 -102 155 -227 168
-397 15 -202 -64 -384 -246 -565 -217 -216 -503 -341 -784 -340 -97 0 -115 2
-163 26 -141 69 -273 270 -340 520 -24 89 -33 174 -14 130 5 -11 9 -36 9 -56
1 -43 12 -49 84 -49 138 1 296 35 412 89 144 67 331 230 421 365 l36 55 -43
53 c-24 29 -45 55 -47 58 -2 3 -13 -9 -25 -25 -51 -73 -198 -211 -287 -270
-154 -103 -302 -155 -485 -171 -44 -4 -84 -12 -88 -18 -5 -6 -6 33 -3 86 9
162 55 257 149 308 l46 26 -35 30 c-56 51 -44 115 35 187 71 64 253 143 383
166 87 16 281 7 388 -18z M5395 2619 c-107 -44 -319 -189 -301 -206 10 -10
153 70 259 144 131 93 136 100 42 62z M5960 2019 c-61 -84 -223 -237 -316
-297 -151 -100 -340 -160 -536 -169 l-117 -6 19 -37 c10 -21 31 -52 47 -70
l27 -33 96 7 c319 20 654 193 814 420 79 111 80 114 48 185 -15 33 -29 61 -32
61 -3 0 -25 -27 -50 -61z"/>
</g>
</svg>
