<?xml version="1.0" standalone="no"?>
<!DOCTYPE svg PUBLIC "-//W3C//DTD SVG 20010904//EN"
 "http://www.w3.org/TR/2001/REC-SVG-20010904/DTD/svg10.dtd">
<svg version="1.0" xmlns="http://www.w3.org/2000/svg"
 width="2048.000000pt" height="2048.000000pt" viewBox="0 0 2048.000000 2048.000000"
 preserveAspectRatio="xMidYMid meet">
<metadata>
Created by potrace 1.13, written by Peter Selinger 2001-2015
</metadata>
<g transform="translate(0.000000,2048.000000) scale(0.192120,-0.192120)"
fill="#000000" stroke="none">
<path d="M5340 10319 c-348 -34 -754 -145 -1012 -275 -46 -24 -47 -24 -150 -9
-353 50 -746 -15 -1085 -180 -516 -252 -891 -710 -1033 -1261 -63 -243 -61
-168 -57 -2180 4 -1904 3 -1857 46 -2114 l18 -105 -46 -50 c-144 -154 -243
-347 -277 -539 -8 -44 -16 -81 -18 -83 -1 -2 -37 4 -79 13 -94 19 -162 8 -230
-37 -54 -36 -105 -108 -113 -161 -4 -21 -12 -38 -18 -38 -6 0 -180 28 -387 62
-344 57 -379 61 -418 49 -107 -31 -181 -174 -137 -260 19 -35 90 -101 147
-134 42 -25 1196 -457 1220 -457 8 0 10 -13 6 -38 -4 -20 -65 -507 -137 -1082
-72 -575 -133 -1060 -136 -1078 l-6 -32 3892 0 3892 0 -6 33 c-3 17 -64 502
-136 1077 -72 575 -133 1061 -136 1081 -6 33 -4 37 21 43 67 17 1164 429 1204
453 58 34 128 99 148 137 19 36 13 100 -14 153 -25 48 -92 100 -140 109 -26 5
-149 -12 -408 -55 -203 -35 -374 -63 -379 -64 -4 -1 -14 19 -20 45 -26 99
-109 177 -212 198 -44 9 -69 8 -131 -4 -42 -9 -78 -15 -80 -12 -2 2 -8 32 -14
67 -31 193 -136 401 -280 554 -46 49 -48 52 -39 90 5 22 20 114 32 205 l23
165 0 1480 c0 1625 3 1539 -61 1834 -196 910 -805 1689 -1639 2096 -316 154
-607 242 -955 290 -139 19 -528 27 -660 14z m530 -300 c635 -59 1213 -312
1666 -730 426 -394 694 -869 808 -1433 l26 -127 0 -1529 c0 -1514 -1 -1580
-31 -1580 -4 0 -54 16 -111 35 -57 19 -152 42 -213 52 l-110 18 -3 56 c-2 34
5 89 18 137 68 269 63 183 67 1180 2 496 0 902 -5 902 -4 0 -13 15 -20 34 -16
43 -109 132 -167 157 -34 15 -99 25 -263 40 -441 39 -672 76 -1007 161 -293
74 -540 162 -792 283 -346 167 -605 347 -849 590 -139 139 -213 232 -352 441
-54 82 -117 172 -139 200 -45 56 -125 114 -157 114 -12 0 -43 -17 -71 -38 -73
-55 -117 -139 -165 -313 -62 -225 -79 -276 -133 -399 -57 -130 -157 -285 -248
-383 -135 -148 -337 -265 -584 -338 -77 -23 -157 -50 -178 -61 -46 -23 -177
-151 -177 -172 0 -9 -4 -16 -10 -16 -7 0 -10 -347 -10 -1022 0 -1108 -2 -1066
56 -1303 25 -102 32 -239 14 -250 -5 -3 -51 -13 -102 -21 -51 -8 -147 -33
-212 -55 -65 -21 -120 -38 -121 -37 -24 30 -25 136 -25 1925 0 1848 0 1879 20
1963 34 140 69 239 131 360 206 405 607 718 1068 835 184 46 291 56 576 53
l260 -3 110 42 c245 93 316 116 462 154 131 33 351 71 478 82 95 8 389 6 495
-4z m-1626 -1135 c9 -30 41 -103 71 -162 202 -402 585 -798 1045 -1077 601
-366 1443 -597 2305 -633 l160 -7 0 -815 c0 -733 -2 -827 -18 -930 -36 -235
-100 -457 -187 -652 l-48 -108 147 0 c238 0 388 -25 549 -94 84 -35 232 -127
266 -165 19 -21 19 -22 -2 -67 -42 -85 -33 -118 87 -334 97 -175 153 -240 246
-288 l59 -29 -91 -22 c-320 -75 -317 -74 -643 -81 -283 -5 -309 -7 -360 -28
-111 -44 -209 -142 -252 -252 -16 -43 -22 -84 -26 -182 l-4 -128 -137 0 -136
0 3 -1047 c2 -577 1 -1116 -3 -1199 l-7 -151 -68 33 c-38 19 -78 34 -89 34
-12 0 -21 5 -21 10 0 7 -597 10 -1770 10 -1173 0 -1770 -3 -1770 -10 0 -5 -8
-10 -17 -10 -9 0 -44 -15 -79 -34 l-62 -35 -7 152 c-3 84 -5 623 -3 1200 l3
1047 -136 0 -137 0 -4 128 c-4 98 -10 139 -26 182 -43 110 -141 208 -252 252
-51 21 -77 23 -360 28 -304 6 -305 6 -471 43 -92 20 -188 41 -214 48 l-47 12
63 34 c72 38 146 106 189 173 69 109 150 267 161 315 11 48 10 56 -16 114 -27
60 -28 62 -9 82 34 38 178 127 263 164 167 71 332 98 564 93 75 -2 137 -3 137
-2 0 1 -17 39 -39 85 -62 136 -107 265 -145 419 -72 293 -70 249 -73 1326 l-4
971 63 7 c91 9 273 59 382 104 336 141 588 390 756 747 103 219 180 530 180
727 0 32 4 58 8 58 5 0 16 -25 26 -56z m-2580 -5650 l210 -34 531 0 c531 0
531 0 575 -22 57 -30 68 -48 52 -91 -7 -18 -12 -71 -12 -116 0 -79 1 -84 30
-111 17 -16 36 -30 43 -33 9 -3 13 -268 15 -1200 l4 -1196 -21 6 c-12 3 -21 8
-21 12 0 4 -25 18 -55 32 -30 13 -55 27 -55 32 0 4 -9 7 -20 7 -11 0 -20 5
-20 10 0 7 -193 10 -559 10 -484 0 -560 2 -571 15 -7 8 -25 15 -41 15 l-29 0
0 145 c0 121 14 254 85 826 47 375 85 717 85 759 0 93 -19 154 -66 209 l-36
41 129 0 c70 0 361 0 645 0 340 0 519 3 523 10 3 5 1 10 -4 10 -6 0 -11 6 -11
14 0 8 -18 23 -40 33 -22 10 -40 24 -40 31 0 9 -103 12 -477 12 -263 1 -510 5
-549 9 -78 9 -164 44 -222 89 -52 40 -115 72 -282 142 -80 34 -159 69 -176 78
-18 9 -48 25 -68 36 -20 10 -36 24 -36 30 0 7 23 23 51 35 58 27 111 91 130
158 l12 43 41 -6 c22 -3 135 -21 250 -40z m7638 -2 c27 -76 73 -131 129 -155
46 -21 66 -47 34 -47 -8 0 -15 -4 -15 -9 0 -5 -8 -11 -17 -15 -10 -3 -43 -20
-73 -37 -30 -17 -111 -53 -178 -80 -154 -62 -216 -93 -267 -134 -58 -48 -114
-73 -186 -85 -38 -6 -259 -10 -535 -10 -410 0 -473 -2 -478 -15 -3 -9 -19 -15
-41 -15 -22 0 -38 -6 -41 -15 -4 -8 -9 -13 -14 -10 -4 2 -16 -7 -28 -20 -12
-14 -17 -27 -12 -30 6 -4 254 -6 553 -5 298 1 586 1 639 1 l98 -1 -35 -45
c-42 -56 -55 -100 -55 -193 0 -40 41 -397 90 -792 100 -801 109 -926 68 -961
-22 -17 -50 -18 -580 -19 -365 0 -558 -3 -558 -10 0 -5 -20 -10 -45 -10 -25 0
-45 -3 -45 -7 0 -5 -21 -17 -48 -27 -26 -10 -54 -24 -62 -31 -8 -7 -23 -15
-33 -18 -17 -7 -18 39 -15 1190 2 895 6 1197 15 1200 55 19 77 97 63 224 -11
94 -8 102 55 130 37 17 79 19 573 19 l534 0 206 34 c114 19 221 37 237 39 17
2 35 5 40 6 6 0 18 -21 27 -47z M4150 6711 c-86 -28 -141 -74 -181 -151 -23
-43 -24 -54 -24 -255 0 -237 7 -267 79 -337 53 -52 101 -72 182 -76 89 -5 156
21 213 83 72 78 76 94 76 325 0 204 0 205 -28 262 -46 93 -128 148 -232 154
-33 2 -71 0 -85 -5z m108 -413 l-3 -163 -35 -3 c-54 -5 -60 11 -60 173 0 78 3
145 7 148 3 4 26 7 50 7 l43 0 -2 -162z M6357 6706 c-101 -37 -167 -112 -188
-213 -17 -85 -7 -387 15 -436 26 -58 90 -122 148 -147 62 -27 171 -25 230 4
52 25 107 82 132 135 19 42 21 63 21 256 0 208 0 210 -27 260 -31 60 -67 95
-128 125 -56 28 -151 36 -203 16z m123 -411 l0 -165 -38 0 c-21 0 -43 5 -50
12 -13 13 -18 299 -5 311 3 4 26 7 50 7 l43 0 0 -165z M4983 5170 c-66 -40
-86 -103 -55 -173 36 -81 39 -82 402 -82 362 0 366 1 402 81 30 69 9 135 -55
174 -30 19 -52 20 -347 20 -295 0 -317 -1 -347 -20z M3120 4455 c0 -3 12 -29
26 -58 87 -170 244 -378 418 -553 388 -387 860 -624 1416 -711 163 -25 537
-25 705 1 542 82 1019 321 1401 701 146 145 224 239 327 395 61 92 127 209
127 225 0 3 -14 5 -31 5 -40 0 -106 -41 -139 -87 -14 -19 -30 -40 -36 -46 -6
-7 -28 -41 -50 -77 -103 -171 -189 -265 -394 -429 -342 -274 -652 -430 -1025
-515 -323 -74 -727 -76 -1045 -7 -370 81 -712 245 -1009 483 -41 33 -85 67
-98 75 -38 25 -215 225 -302 340 -44 60 -101 136 -127 171 -26 35 -60 70 -75
78 -27 13 -89 20 -89 9z M5819 4199 c-89 -52 -94 -171 -11 -234 39 -29 217
-35 273 -9 103 46 107 194 7 245 -55 28 -219 27 -269 -2z"/>
</g>
</svg>
