<?xml version="1.0" standalone="no"?>
<!DOCTYPE svg PUBLIC "-//W3C//DTD SVG 20010904//EN"
 "http://www.w3.org/TR/2001/REC-SVG-20010904/DTD/svg10.dtd">
<svg version="1.0" xmlns="http://www.w3.org/2000/svg"
 width="2048.000000pt" height="2048.000000pt" viewBox="0 0 2048.000000 2048.000000"
 preserveAspectRatio="xMidYMid meet">
<metadata>
Created by potrace 1.13, written by Peter Selinger 2001-2015
</metadata>
<g transform="translate(0.000000,2048.000000) scale(0.192120,-0.192120)"
fill="#000000" stroke="none">
<path d="M8894 10251 c-425 -100 -678 -508 -578 -931 21 -86 92 -233 144 -295
68 -81 159 -152 255 -199 131 -65 196 -80 350 -80 120 0 137 2 225 32 160 53
306 163 395 297 178 268 178 595 -1 871 l-19 29 31 -23 c74 -52 137 -153 170
-273 28 -97 25 -314 -6 -438 -34 -141 -89 -271 -187 -438 -13 -23 -33 -66 -44
-95 -18 -50 -19 -86 -19 -718 0 -778 -10 -979 -62 -1212 -30 -138 -61 -197
-118 -225 -54 -26 -182 -48 -390 -68 -294 -28 -527 -36 -1160 -41 -729 -6
-705 -4 -796 -87 -94 -86 -116 -130 -148 -297 -100 -535 -177 -851 -282 -1162
-41 -122 -91 -286 -110 -363 -32 -125 -36 -159 -41 -312 -3 -94 -3 -183 1
-197 6 -26 77 -89 112 -100 19 -6 21 -1 32 146 21 271 66 479 151 712 61 165
83 233 120 373 66 242 170 740 207 980 l17 113 596 0 c928 0 1440 30 1715 100
100 25 151 53 181 98 73 111 122 393 146 847 13 252 6 1141 -10 1297 l-10 98
33 67 c100 201 167 493 167 732 0 193 -34 308 -119 403 -38 43 -120 88 -160
88 -14 0 -46 23 -85 61 -72 71 -118 104 -204 147 -147 75 -344 99 -499 63z
m296 -118 c0 -5 -29 -23 -65 -42 -137 -70 -278 -235 -345 -402 -18 -43 -38
-79 -45 -79 -7 0 -49 18 -94 41 -57 28 -81 46 -81 59 0 41 100 217 160 282 69
76 143 134 180 141 43 8 290 7 290 0z m311 -169 l54 -27 -62 -17 c-156 -43
-286 -149 -357 -293 l-38 -78 -62 6 c-81 8 -199 25 -204 29 -2 2 8 31 22 65
79 194 228 348 389 400 100 32 107 32 158 -15 26 -23 71 -55 100 -70z m-992
-136 c-25 -64 -26 -65 -34 -38 -5 15 1 31 20 55 14 19 28 35 30 35 3 0 -5 -24
-16 -52z m1105 -26 c51 -100 68 -171 73 -305 6 -136 -5 -239 -38 -342 -15 -48
-33 -75 -90 -135 -64 -68 -70 -72 -65 -45 33 180 38 237 33 364 -5 152 -33
278 -85 394 -35 77 -36 75 60 101 81 22 85 21 112 -32z m-242 -119 c56 -145
85 -323 73 -458 -8 -94 -36 -230 -62 -299 -18 -48 -18 -48 -100 -76 -46 -15
-83 -26 -83 -24 0 1 9 40 20 86 41 167 37 367 -12 551 l-20 77 26 55 c25 50
109 155 125 155 4 0 18 -30 33 -67z m-760 -116 c116 -54 248 -85 406 -94 l102
-6 10 -39 c14 -51 38 -211 33 -220 -6 -11 -181 1 -288 18 -161 26 -327 96
-419 177 l-40 34 13 57 c8 38 10 82 6 128 l-7 70 65 -50 c36 -27 89 -61 119
-75z m138 -401 c106 -28 238 -46 346 -46 l71 0 -5 -52 c-3 -28 -10 -74 -16
-102 l-11 -51 -44 -3 c-101 -7 -379 52 -437 93 -21 14 -137 171 -183 247 l-22
37 103 -49 c57 -27 146 -60 198 -74z M5502 9929 c-302 -39 -546 -187 -707
-429 -61 -91 -112 -188 -120 -227 -1 -10 -13 -43 -25 -73 -71 -178 -94 -362
-70 -560 32 -253 109 -484 218 -654 51 -79 143 -186 197 -228 30 -24 55 -47
55 -53 0 -16 76 -86 150 -139 258 -185 623 -154 886 76 67 58 141 142 228 260
74 101 85 111 190 166 121 64 184 123 225 210 49 107 64 195 59 348 l-4 131
-52 109 c-39 83 -52 121 -52 156 0 73 -27 210 -60 300 -121 335 -404 553 -785
608 -81 11 -242 11 -333 -1z m183 -417 c104 -29 170 -58 247 -108 188 -121
300 -308 350 -583 29 -160 31 -457 4 -581 -64 -294 -211 -501 -446 -624 -126
-66 -184 -80 -305 -73 -147 8 -351 76 -359 121 -28 147 -47 184 -174 335 -68
81 -146 228 -193 361 l-34 95 -1 385 c-1 329 -4 391 -18 429 -9 24 -16 45 -16
47 0 2 28 23 63 47 115 82 241 134 390 163 107 20 400 12 492 -14z m541 -26
c44 -34 95 -89 113 -123 6 -12 11 -43 11 -70 l-1 -48 -22 26 c-47 56 -177 237
-177 248 0 15 29 3 76 -33z M9176 8697 c3 -8 -6 -115 -20 -238 -14 -123 -51
-469 -82 -769 -31 -300 -58 -546 -59 -547 -1 -2 -77 22 -169 52 -202 67 -372
110 -526 132 -100 14 -137 15 -285 5 -93 -7 -232 -21 -307 -32 l-138 -20 -182
59 c-238 78 -390 120 -458 127 -114 12 -383 -58 -559 -145 -46 -23 -86 -40
-88 -37 -2 2 -24 77 -48 167 -24 90 -48 178 -53 194 -9 28 -10 26 -35 -52 -45
-141 -51 -222 -22 -298 16 -42 90 -127 130 -151 60 -35 102 -31 281 26 197 63
261 74 388 67 80 -4 130 -14 236 -46 395 -120 405 -122 620 -96 69 9 197 18
285 22 195 7 321 -12 593 -88 202 -56 265 -66 314 -50 41 13 111 80 143 136
52 90 52 89 130 825 24 234 47 441 50 460 8 60 -13 202 -33 230 -18 24 -90 79
-104 80 -4 0 -5 -6 -2 -13z M5221 7403 c-7 -54 -15 -119 -18 -145 -7 -56 8
-54 -180 -32 -191 22 -500 23 -619 1 -237 -43 -630 -215 -1264 -553 -338 -180
-460 -237 -545 -254 -33 -6 -143 -32 -245 -57 -585 -141 -879 -199 -913 -181
-12 6 -69 56 -126 110 -120 114 -178 157 -225 165 -30 5 -40 -2 -135 -92 -88
-83 -106 -96 -129 -91 -124 23 -306 25 -348 3 -41 -21 -70 -55 -95 -112 -34
-74 -39 -274 -10 -402 22 -100 72 -220 118 -279 40 -54 108 -94 157 -94 23 0
129 20 236 44 461 105 563 119 1110 161 653 49 818 69 988 116 230 64 703 222
1020 341 74 27 135 48 137 46 2 -2 -5 -46 -15 -98 -40 -207 -77 -662 -66 -805
9 -118 168 -1063 192 -1138 5 -17 9 -16 35 9 48 46 79 119 79 186 0 32 -25
208 -56 391 l-56 332 5 544 c4 528 4 546 -15 580 -27 50 -85 107 -126 127 -64
30 -128 15 -562 -131 -726 -244 -705 -240 -1565 -305 -462 -35 -608 -54 -905
-116 -377 -79 -389 -81 -435 -58 -32 15 -47 32 -72 84 -33 64 -33 66 -33 212
0 142 1 147 22 154 12 3 82 7 155 8 l133 1 110 58 c60 31 119 57 130 57 31 0
69 -23 151 -90 173 -142 235 -148 629 -64 245 53 767 180 841 205 75 25 240
107 580 287 524 277 883 432 1102 477 122 24 277 29 496 15 252 -16 282 -10
356 64 101 101 112 184 43 328 -23 49 -45 88 -48 88 -4 0 -13 -44 -19 -97z
M4180 3994 c-95 -17 -220 -55 -433 -132 -281 -102 -485 -154 -717 -184 -83
-10 -383 -13 -1402 -13 l-1298 0 0 -1667 0 -1668 5000 0 5000 0 0 1668 0 1667
-962 -3 c-681 -2 -991 0 -1058 8 -136 17 -274 55 -630 173 -357 119 -514 159
-640 160 -106 1 -137 -11 -441 -163 -248 -124 -343 -165 -409 -175 -68 -10
-170 16 -315 80 -167 74 -190 73 -361 -8 -212 -100 -280 -99 -492 10 -312 161
-372 190 -452 215 -158 50 -251 58 -390 32z m344 -226 c52 -14 153 -58 281
-123 243 -123 312 -152 401 -164 96 -14 184 1 313 51 153 61 204 62 346 9 151
-55 188 -64 280 -64 97 0 157 17 318 88 67 29 149 61 182 70 33 9 119 37 192
61 231 78 288 71 844 -111 340 -111 492 -150 646 -165 54 -5 470 -10 926 -10
l827 0 0 -1425 0 -1425 -4760 0 -4760 0 0 1425 0 1425 1124 0 c695 0 1174 4
1253 10 256 21 460 66 738 161 169 57 323 108 545 177 118 37 194 40 304 10z"/>
</g>
</svg>
