<?xml version="1.0" standalone="no"?>
<!DOCTYPE svg PUBLIC "-//W3C//DTD SVG 20010904//EN"
 "http://www.w3.org/TR/2001/REC-SVG-20010904/DTD/svg10.dtd">
<svg version="1.0" xmlns="http://www.w3.org/2000/svg"
 width="2048.000000pt" height="2048.000000pt" viewBox="0 0 2048.000000 2048.000000"
 preserveAspectRatio="xMidYMid meet">
<metadata>
Created by potrace 1.13, written by Peter Selinger 2001-2015
</metadata>
<g transform="translate(0.000000,2048.000000) scale(0.192120,-0.192120)"
fill="#000000" stroke="none">
<path d="M8894 10251 c-425 -100 -678 -508 -578 -931 21 -86 92 -233 144 -295
100 -119 264 -223 409 -260 259 -66 530 9 723 198 180 175 261 434 214 680
-16 84 -62 205 -99 265 -98 155 -268 281 -447 332 -108 31 -261 35 -366 11z
m296 -118 c0 -5 -29 -23 -65 -42 -137 -70 -278 -235 -345 -402 -18 -43 -38
-79 -45 -79 -7 0 -49 18 -94 41 -57 28 -81 46 -81 59 0 41 100 217 160 282 69
76 143 134 180 141 43 8 290 7 290 0z m302 -165 l58 -35 -52 -12 c-148 -34
-291 -150 -362 -294 l-38 -78 -62 6 c-81 8 -199 25 -204 29 -2 2 8 31 22 65
79 194 228 348 389 400 99 32 107 32 152 -10 22 -21 66 -53 97 -71z m-983
-140 c-25 -64 -26 -65 -34 -38 -5 15 1 31 20 55 14 19 28 35 30 35 3 0 -5 -24
-16 -52z m1111 -41 c17 -34 39 -101 51 -147 19 -73 21 -102 16 -220 -3 -74
-11 -155 -17 -180 -10 -43 -68 -130 -140 -210 -29 -33 -31 -33 -26 -10 35 159
32 401 -7 550 -13 52 -38 126 -55 163 -35 77 -36 75 60 101 85 23 86 23 118
-47z m-248 -104 c89 -229 98 -463 27 -705 -19 -66 -21 -68 -62 -79 -23 -6 -62
-22 -88 -34 l-46 -24 19 77 c39 161 34 363 -14 545 l-20 77 26 55 c25 50 109
155 125 155 4 0 18 -30 33 -67z m-760 -116 c116 -54 248 -85 406 -94 l102 -6
10 -39 c14 -51 38 -211 33 -220 -4 -7 -98 -4 -223 8 -165 15 -382 98 -479 182
l-45 39 13 57 c8 38 10 82 6 128 l-7 70 65 -50 c36 -27 89 -61 119 -75z m138
-401 c106 -28 238 -46 346 -46 l71 0 -5 -52 c-3 -28 -10 -74 -16 -102 l-11
-51 -44 -3 c-101 -7 -379 52 -437 93 -21 14 -137 171 -183 247 l-22 37 103
-49 c57 -27 146 -60 198 -74z M5502 9929 c-299 -39 -546 -187 -703 -422 -70
-105 -118 -195 -123 -235 -3 -15 -16 -54 -30 -88 -82 -196 -95 -421 -40 -694
30 -150 61 -244 119 -367 70 -148 176 -290 270 -363 30 -23 55 -48 55 -54 0
-16 73 -85 148 -139 126 -92 313 -139 466 -118 248 35 420 151 627 427 l99
131 101 54 c134 71 196 128 238 217 49 107 64 195 59 348 l-4 131 -52 109
c-39 83 -52 121 -52 156 0 73 -27 210 -60 300 -121 335 -404 553 -785 608 -81
11 -242 11 -333 -1z m183 -417 c104 -29 170 -58 247 -108 188 -121 300 -308
350 -583 29 -160 31 -457 4 -581 -49 -228 -145 -397 -298 -526 -71 -60 -206
-134 -287 -158 -98 -29 -248 -17 -386 29 -63 21 -235 102 -235 110 0 3 5 3 10
0 13 -8 13 59 -1 108 -10 36 -48 96 -138 213 -90 117 -180 328 -210 492 -8 40
-11 169 -10 360 1 277 0 301 -19 354 l-20 58 80 60 c130 98 259 155 421 186
107 20 400 12 492 -14z M9799 9903 c74 -93 112 -223 112 -383 1 -243 -69 -440
-241 -680 -77 -108 -103 -152 -115 -195 -4 -16 -7 -415 -6 -885 3 -915 1 -950
-48 -1110 -21 -68 -68 -128 -122 -155 -126 -66 -872 -92 -1819 -64 -464 14
-474 13 -553 -68 -29 -29 -49 -60 -53 -80 -9 -46 3 -708 14 -763 l8 -45 12 40
c38 127 62 363 62 618 l0 187 28 0 c15 0 113 -5 217 -10 381 -20 1036 -29
1365 -20 573 16 830 58 899 146 108 137 164 735 141 1509 -10 338 -25 609 -39
704 -6 43 -4 49 32 95 80 103 192 377 232 571 26 121 31 305 11 389 -21 88
-59 159 -110 202 -52 45 -64 43 -27 -3z M9176 8623 c-5 -24 -132 -1205 -152
-1410 -3 -40 -9 -73 -11 -73 -3 0 -69 13 -147 29 -381 79 -696 119 -1036 131
-262 9 -295 13 -496 65 -71 19 -170 39 -220 46 -91 12 -343 8 -377 -6 -28 -11
126 -93 190 -101 26 -4 53 -12 58 -19 6 -6 46 -15 90 -18 80 -6 124 -14 330
-61 122 -28 247 -41 565 -56 242 -11 358 -25 645 -76 335 -59 365 -58 443 18
54 52 87 116 101 194 16 88 111 982 118 1110 7 126 -2 167 -49 220 -36 41 -45
42 -52 7z M6186 7525 c-9 -35 -16 -79 -16 -98 0 -43 34 -77 78 -77 18 0 32 1
32 3 0 1 -14 53 -30 116 -17 62 -30 115 -30 117 0 2 -4 4 -9 4 -5 0 -16 -29
-25 -65z M5227 7420 c-5 -13 -27 -179 -27 -204 0 -4 -40 -5 -90 -1 -49 4 -90
5 -90 2 0 -4 21 -22 46 -42 57 -43 95 -45 150 -9 52 34 79 82 71 129 -8 51
-53 144 -60 125z M6519 7358 l-136 -40 -17 -54 c-39 -124 -168 -421 -218 -501
-61 -99 -186 -231 -273 -288 -86 -57 -202 -104 -308 -126 -114 -23 -339 -26
-440 -4 -191 40 -298 148 -316 317 -15 140 17 302 90 457 27 58 46 108 42 112
-5 4 -73 9 -152 11 l-145 3 -63 -105 c-230 -382 -444 -953 -518 -1384 -38
-224 -4 -375 180 -786 170 -382 251 -610 306 -869 l33 -149 31 -6 c29 -6 124
-52 417 -204 201 -104 271 -104 490 -1 164 78 195 80 323 19 115 -54 210 -87
277 -95 78 -10 176 25 446 160 127 63 237 115 244 115 7 -1 24 -24 38 -53 15
-31 37 -58 55 -69 18 -9 85 -23 164 -32 215 -26 421 -86 656 -191 158 -71 324
-127 465 -158 91 -19 130 -20 993 -24 l897 -4 0 -1425 0 -1424 -4760 0 -4760
0 0 1425 0 1425 1124 0 c692 0 1174 4 1253 10 300 25 494 75 768 198 223 100
430 158 617 173 92 7 142 16 163 28 32 18 62 70 67 116 3 27 -1 30 -57 48 -45
15 -89 20 -175 20 -131 1 -211 -16 -406 -83 -470 -164 -543 -185 -741 -220
-216 -37 -380 -41 -1636 -38 l-1207 3 0 -1667 0 -1668 5000 0 5000 0 0 1668 0
1667 -962 -3 c-681 -2 -991 0 -1058 8 -136 17 -274 55 -630 173 -318 106 -487
150 -615 161 -61 6 -81 3 -155 -23 -47 -16 -86 -28 -88 -26 -9 9 -22 201 -28
415 -11 407 29 716 120 915 l23 51 -39 54 c-159 220 -260 605 -289 1100 -16
278 2 563 57 873 4 20 3 37 -2 36 -5 -1 -70 -19 -145 -41z m-144 -762 c2 -11
7 -75 10 -141 15 -292 77 -625 152 -823 14 -37 31 -83 38 -102 7 -19 27 -64
44 -100 37 -78 40 -140 11 -250 -53 -201 -60 -279 -60 -675 0 -357 -1 -373
-20 -398 -11 -14 -20 -39 -20 -57 0 -30 -4 -33 -114 -85 -203 -96 -285 -105
-436 -50 -41 15 -111 38 -155 52 -105 32 -175 27 -310 -22 -188 -69 -248 -78
-336 -52 -24 8 -111 47 -193 88 -183 91 -184 92 -251 326 -59 210 -118 368
-261 700 -163 379 -164 382 -164 617 0 156 4 211 20 287 11 52 25 117 29 145
14 78 96 320 139 409 64 131 82 134 138 23 73 -145 169 -257 280 -328 114 -72
319 -107 529 -90 332 28 566 162 811 467 59 72 78 90 94 86 11 -3 22 -15 25
-27z M4425 7229 c-226 -33 -600 -193 -1240 -531 -410 -217 -503 -260 -590
-278 -33 -6 -152 -34 -265 -61 -563 -137 -859 -195 -893 -177 -12 6 -68 55
-123 108 -117 112 -181 159 -228 167 -30 5 -40 -2 -135 -92 -84 -79 -106 -96
-124 -91 -33 10 -301 20 -330 12 -42 -10 -92 -61 -118 -118 -22 -49 -24 -66
-24 -208 0 -161 8 -206 55 -331 53 -142 148 -239 235 -239 23 0 118 18 211 39
419 97 604 126 994 156 826 63 956 78 1156 134 170 48 547 173 806 266 202 73
202 73 141 119 -57 43 -88 37 -543 -102 -118 -36 -237 -71 -263 -78 -27 -7
-85 -24 -130 -38 -185 -56 -355 -77 -997 -126 -559 -43 -626 -52 -1047 -141
-246 -52 -307 -58 -352 -34 -34 17 -85 94 -100 150 -6 22 -11 108 -11 191 0
167 1 171 64 181 21 3 36 12 38 22 3 14 20 16 119 16 l116 1 107 52 c149 72
155 72 289 -30 43 -33 107 -73 144 -90 79 -38 133 -39 293 -9 283 53 979 222
1078 261 75 30 133 60 680 344 144 75 264 136 267 136 3 0 60 27 128 61 67 33
185 88 262 121 95 41 186 90 284 154 79 52 135 93 125 93 -11 -1 -46 -5 -79
-10z"/>
</g>
</svg>
