<?xml version="1.0" standalone="no"?>
<!DOCTYPE svg PUBLIC "-//W3C//DTD SVG 20010904//EN"
 "http://www.w3.org/TR/2001/REC-SVG-20010904/DTD/svg10.dtd">
<svg version="1.0" xmlns="http://www.w3.org/2000/svg"
 width="2048.000000pt" height="2048.000000pt" viewBox="0 0 2048.000000 2048.000000"
 preserveAspectRatio="xMidYMid meet">
<metadata>
Created by potrace 1.13, written by Peter Selinger 2001-2015
</metadata>
<g transform="translate(0.000000,2048.000000) scale(0.192120,-0.192120)"
fill="#000000" stroke="none">
<path d="M6455 10323 c-309 -43 -597 -247 -735 -523 -110 -219 -135 -449 -74
-688 33 -132 122 -302 192 -365 18 -17 20 -16 47 5 33 26 55 75 55 122 0 19
-18 93 -41 163 l-40 128 3 210 3 211 33 66 c18 37 51 90 72 117 22 28 40 54
40 59 0 14 81 86 141 126 127 84 277 121 463 113 143 -5 256 -35 256 -67 0
-12 12 -22 36 -30 56 -19 177 -105 235 -168 30 -32 70 -89 89 -127 l35 -69 3
-225 c3 -255 0 -276 -71 -396 -68 -116 -193 -228 -337 -300 -156 -78 -264
-180 -277 -260 l-6 -38 -91 6 c-105 7 -209 34 -312 81 -97 45 -173 98 -279
196 -168 154 -160 149 -287 171 -163 29 -533 36 -730 15 -330 -35 -585 -107
-848 -237 -203 -101 -342 -199 -499 -352 -287 -281 -468 -630 -526 -1012 -17
-117 -20 -404 -5 -556 31 -308 123 -560 224 -614 32 -17 36 -18 60 -2 27 18
30 27 71 197 14 57 40 145 56 195 44 131 188 415 266 525 69 95 225 266 294
321 l37 29 114 -91 c230 -184 447 -310 571 -332 56 -9 68 -8 103 9 59 29 76
71 71 167 l-5 78 106 -103 c130 -126 286 -257 365 -305 74 -45 119 -56 146
-36 44 30 15 173 -72 366 -20 42 -34 77 -33 77 2 0 26 -18 52 -40 195 -161
627 -270 1172 -296 l143 -7 179 -356 c98 -196 190 -372 204 -391 89 -118 171
-56 230 173 43 164 60 344 60 647 1 252 -1 284 -22 378 -87 390 -316 761 -634
1027 -89 75 -92 85 -29 85 57 0 189 41 286 89 238 118 417 329 498 586 156
498 -123 1037 -624 1205 -124 42 -308 60 -434 43z m-805 -1757 c58 0 139 1
180 4 85 4 116 -6 215 -76 84 -58 151 -90 273 -130 59 -19 123 -45 143 -58 20
-14 72 -71 116 -128 44 -57 120 -148 169 -203 199 -224 296 -384 359 -590 25
-80 25 -87 25 -421 0 -186 -4 -345 -9 -352 -12 -20 -49 29 -112 145 -36 68
-75 121 -123 171 -115 119 -152 135 -366 152 -351 28 -551 67 -816 156 -243
82 -267 83 -354 17 -107 -81 -124 -93 -136 -93 -6 0 -58 31 -115 69 -170 112
-190 114 -312 31 -75 -51 -95 -60 -132 -60 -58 0 -154 50 -321 167 -224 157
-291 185 -378 159 -163 -49 -413 -314 -571 -606 -60 -111 -89 -150 -112 -150
-12 0 -14 48 -11 298 l4 297 32 93 c85 240 178 389 357 567 301 302 707 480
1226 540 94 11 190 13 394 8 149 -4 317 -7 375 -7z M5910 10239 c-390 -80
-762 -221 -1125 -427 -140 -79 -415 -267 -551 -376 -131 -105 -379 -335 -370
-343 2 -3 53 10 113 27 211 61 322 75 583 75 186 0 256 -4 335 -19 150 -28
295 -71 443 -133 73 -30 136 -53 139 -50 12 13 -39 97 -93 153 -49 50 -73 66
-139 92 -149 57 -330 95 -552 116 -83 7 -156 17 -162 20 -16 10 -13 48 5 74
47 68 513 333 739 422 33 13 62 27 65 30 3 4 49 26 103 50 54 23 157 78 230
123 72 44 177 102 231 128 97 48 99 57 6 38z M1410 8229 c-376 -79 -659 -360
-751 -746 -18 -75 -20 -109 -16 -233 3 -91 11 -167 21 -205 98 -353 355 -613
698 -707 72 -20 107 -23 258 -23 l175 0 109 38 c61 21 135 52 165 69 303 170
491 467 508 804 34 637 -543 1133 -1167 1003z m358 -285 c156 -32 271 -93 382
-204 53 -52 86 -96 110 -145 l35 -70 0 -240 c0 -276 -2 -285 -97 -422 -102
-147 -292 -257 -512 -294 -291 -49 -619 115 -747 375 l-44 89 -3 196 c-4 217
1 248 54 359 42 87 147 199 241 256 72 43 202 93 276 105 85 14 223 12 305 -5z
M8210 7851 c0 -6 4 -12 10 -16 17 -10 139 -202 189 -298 106 -199 184 -441
215 -666 29 -203 17 -488 -28 -701 -8 -36 -13 -66 -11 -68 3 -4 120 196 159
273 l31 60 0 255 c0 273 3 250 -64 530 -24 97 -24 100 -12 119 8 12 20 7 65
-28 31 -23 60 -40 65 -37 10 7 37 -13 182 -135 102 -87 227 -210 504 -500 50
-52 147 -145 217 -207 70 -62 164 -152 209 -200 l82 -87 -53 100 c-323 607
-934 1190 -1626 1552 -126 66 -134 69 -134 54z M532 7030 c-151 -687 -80
-1488 195 -2210 56 -147 73 -180 73 -144 1 42 30 235 50 327 34 157 85 301
165 462 139 284 320 505 577 705 32 24 56 45 54 47 -1 2 -55 -13 -118 -32
-208 -63 -298 -114 -387 -221 -23 -27 -56 -67 -75 -89 -50 -61 -99 -140 -178
-292 -91 -175 -104 -195 -132 -191 -30 4 -61 98 -91 277 -41 248 -46 306 -55
641 -5 207 -14 368 -24 443 -10 64 -20 177 -24 250 l-7 132 -23 -105z M2979
6333 c-40 -47 -101 -175 -125 -268 -29 -109 -27 -372 4 -480 51 -179 148 -315
259 -365 47 -21 53 -28 58 -59 77 -499 264 -939 552 -1297 105 -129 285 -302
401 -384 l92 -65 0 -292 0 -293 -690 0 c-580 0 -698 2 -747 15 -44 12 -120 15
-333 15 l-275 0 -285 61 c-157 33 -310 60 -341 61 -125 1 -242 -95 -264 -214
-4 -21 -12 -35 -18 -32 -7 2 -174 31 -371 64 -245 42 -371 59 -397 55 -48 -8
-109 -52 -138 -98 -30 -48 -38 -125 -18 -163 20 -38 90 -103 148 -137 25 -15
333 -123 686 -242 l642 -215 91 0 90 0 -2 -835 -3 -835 3335 0 3335 0 -3 1355
-2 1355 100 0 100 0 643 216 c353 118 662 227 687 241 25 15 66 47 92 71 l48
45 0 90 0 90 -43 42 c-77 78 -79 78 -476 10 -456 -78 -408 -74 -416 -33 -17
78 -87 164 -159 193 -74 31 -101 28 -424 -40 l-313 -65 -278 0 c-293 0 -332
-5 -424 -52 -100 -50 -187 -167 -211 -281 -17 -80 -37 -548 -29 -664 l5 -73
-701 0 -701 0 0 259 c0 142 3 272 6 288 4 21 19 37 52 58 26 17 90 64 142 106
426 343 749 912 851 1504 26 149 31 161 65 169 108 27 222 184 275 381 18 66
22 107 23 235 0 167 -11 235 -59 352 -27 67 -93 173 -102 165 -3 -3 0 -54 7
-114 9 -89 9 -128 -4 -228 -9 -66 -20 -156 -25 -200 -23 -184 -49 -241 -175
-389 -107 -125 -152 -210 -186 -350 -44 -178 -224 -661 -299 -801 -96 -179
-242 -346 -468 -534 -167 -139 -234 -233 -242 -345 l-6 -70 -70 -36 c-39 -19
-120 -52 -180 -73 -435 -148 -891 -122 -1302 74 l-102 49 2 58 c3 114 -44 178
-326 436 -70 63 -140 141 -197 217 -225 300 -371 633 -455 1039 -24 112 -64
183 -175 311 -106 120 -130 163 -160 280 -25 99 -45 442 -35 602 4 53 4 97 2
97 -3 0 -20 -17 -38 -37z m6341 -2598 c5 -14 25 -50 45 -80 42 -66 87 -88 193
-94 17 -1 15 -31 -3 -31 -8 0 -15 -4 -15 -10 0 -5 -3 -9 -7 -8 -5 1 -33 -9
-63 -24 -75 -36 -465 -171 -586 -203 -162 -43 -181 -52 -208 -98 -14 -23 -28
-66 -32 -94 l-7 -53 -508 0 c-280 0 -509 3 -509 6 0 4 20 36 44 73 75 115 89
157 101 308 6 93 29 240 38 249 2 3 245 7 538 10 528 5 536 6 719 34 102 16
196 31 210 33 14 3 28 5 33 6 4 0 12 -10 17 -24z m-4875 -555 c126 -95 260
-156 422 -192 85 -19 129 -22 333 -22 207 0 247 2 338 22 166 36 306 100 436
199 l49 37 -7 -40 c-3 -21 -9 -92 -12 -156 l-6 -117 30 -30 c17 -17 49 -35 76
-42 25 -6 46 -15 46 -21 0 -43 -91 -180 -180 -268 -120 -121 -276 -209 -458
-258 -90 -24 -112 -26 -307 -26 -195 0 -217 2 -307 26 -188 51 -336 131 -462
249 -92 86 -206 239 -206 276 0 6 21 16 46 23 27 8 61 27 80 47 33 32 34 36
34 111 0 42 -7 108 -15 147 -8 38 -15 76 -15 83 0 16 4 13 85 -48z m3945 -340
c0 -13 7 -20 20 -20 20 0 20 -7 20 -1120 0 -1113 0 -1120 -20 -1120 -11 0 -20
-7 -20 -15 0 -13 -39 -15 -295 -15 -162 0 -295 -4 -295 -9 0 -5 -25 -11 -56
-13 -31 -3 -59 -9 -62 -14 -11 -16 -113 -66 -121 -59 -8 8 -14 2205 -6 2262 6
39 8 42 47 48 51 9 96 28 144 60 21 14 44 23 51 21 7 -3 13 -1 13 4 0 6 110
10 290 10 283 0 290 0 290 -20z m-5360 -166 c68 -95 74 -130 78 -421 l3 -263
-433 0 c-238 0 -483 3 -545 7 l-112 6 -11 53 c-18 85 -43 104 -200 153 -351
109 -869 296 -921 332 -14 10 -29 16 -33 12 -3 -3 -6 2 -6 12 0 16 7 17 108 9
59 -5 148 -9 198 -9 84 0 93 2 127 28 21 16 48 50 62 76 l24 48 98 -14 c54 -7
160 -24 236 -37 132 -22 159 -23 692 -24 l554 -1 -5 28 c-6 31 17 64 40 55 7
-3 28 -25 46 -50z m4240 -1094 l0 -1140 -40 25 c-22 14 -46 25 -54 25 -8 0
-22 8 -32 18 -16 16 -73 17 -851 20 -531 2 -833 6 -833 12 0 7 -327 10 -910
10 -514 0 -910 -4 -910 -9 0 -5 -25 -11 -56 -13 -31 -3 -59 -9 -62 -15 -4 -6
-18 -14 -32 -18 -14 -4 -42 -19 -62 -32 l-38 -23 0 780 0 780 -131 0 -130 0
45 55 c25 30 48 65 52 78 4 12 11 25 15 28 8 4 28 276 29 372 0 17 5 27 15 27
9 0 15 9 15 21 0 20 1 20 393 17 l392 -3 55 -27 c30 -16 83 -54 117 -87 270
-256 527 -368 888 -388 134 -7 315 12 315 33 0 8 10 14 24 14 36 0 180 44 273
83 121 51 214 116 333 232 58 56 119 109 135 118 76 38 171 47 525 47 220 0
340 4 340 10 0 6 10 10 23 10 12 0 51 18 87 39 36 22 66 40 68 40 1 1 2 -512
2 -1139z m-4161 -361 c1 -394 -2 -730 -5 -747 l-6 -30 -52 31 c-28 17 -52 35
-54 39 -2 4 -19 10 -38 14 -19 3 -34 10 -34 15 0 5 -130 9 -295 9 -256 0 -295
2 -295 15 0 11 -11 15 -40 15 l-40 0 0 600 0 600 40 0 c33 0 40 3 40 20 0 18
10 19 292 22 222 2 292 6 296 16 2 6 12 12 23 12 10 0 19 5 19 10 0 6 6 10 14
10 8 0 16 3 18 8 2 4 25 26 53 50 43 38 50 41 56 25 4 -10 8 -340 8 -734z
M9168 6330 c-190 -34 -363 -121 -503 -251 -130 -122 -216 -263 -272 -444 -25
-83 -27 -103 -27 -265 0 -163 2 -181 28 -265 104 -340 355 -584 696 -677 122
-33 356 -33 480 0 445 119 747 526 727 982 -12 294 -149 560 -377 732 -85 65
-245 143 -345 169 -89 24 -323 35 -407 19z m377 -264 c163 -44 302 -143 394
-282 86 -128 91 -151 91 -405 0 -257 -8 -295 -92 -415 -90 -131 -205 -217
-363 -270 -107 -36 -302 -45 -421 -20 -194 42 -373 167 -467 324 -74 126 -79
150 -75 401 l3 216 38 74 c114 222 253 329 502 387 80 18 308 13 390 -10z
M4185 6301 c-46 -12 -87 -36 -122 -73 -57 -59 -63 -88 -63 -288 0 -200 6 -229
63 -288 126 -132 343 -87 400 83 23 67 24 341 2 406 -39 114 -169 188 -280
160z M6100 6295 c-61 -19 -113 -65 -144 -127 -25 -50 -26 -59 -26 -228 0 -173
1 -178 28 -231 76 -151 262 -181 381 -61 63 64 71 96 71 298 0 157 -2 173 -24
220 -29 62 -84 110 -150 129 -60 18 -77 18 -136 0z M4964 5259 c-63 -18 -124
-104 -124 -175 0 -65 48 -134 115 -165 35 -16 67 -19 250 -19 234 0 266 7 318
69 23 28 47 86 47 116 0 30 -24 88 -47 116 -53 62 -84 69 -318 68 -115 0 -224
-5 -241 -10z M5925 4375 c-85 -51 -116 -65 -187 -84 -148 -40 -281 -54 -528
-54 -343 -1 -537 31 -687 114 -51 27 -84 39 -113 39 -104 0 -178 -97 -151
-198 49 -182 556 -305 1118 -272 359 21 639 100 733 206 74 85 54 206 -44 253
-55 27 -92 26 -141 -4z"/>
</g>
</svg>
