<?xml version="1.0" standalone="no"?>
<!DOCTYPE svg PUBLIC "-//W3C//DTD SVG 20010904//EN"
 "http://www.w3.org/TR/2001/REC-SVG-20010904/DTD/svg10.dtd">
<svg version="1.0" xmlns="http://www.w3.org/2000/svg"
 width="2048.000000pt" height="2048.000000pt" viewBox="0 0 2048.000000 2048.000000"
 preserveAspectRatio="xMidYMid meet">
<metadata>
Created by potrace 1.13, written by Peter Selinger 2001-2015
</metadata>
<g transform="translate(0.000000,2048.000000) scale(0.192120,-0.192120)"
fill="#000000" stroke="none">
<path d="M5258 10315 c-15 -8 -75 -73 -133 -145 l-106 -130 -47 0 c-26 0 -108
-7 -182 -15 -529 -61 -962 -183 -1368 -386 -86 -43 -163 -82 -171 -87 -11 -8
20 -65 141 -268 86 -143 215 -360 288 -484 73 -124 133 -226 134 -227 1 -1 33
37 71 85 134 168 1023 1248 1067 1296 l44 49 47 -11 c72 -19 96 -15 182 28 44
22 86 40 93 40 8 0 48 -16 90 -36 92 -44 126 -50 191 -34 49 12 51 11 76 -17
33 -36 1036 -1260 1095 -1335 25 -31 48 -56 52 -55 4 1 96 155 203 342 108
187 228 392 266 456 38 64 69 119 69 122 0 10 -194 115 -324 177 -267 126
-580 230 -876 290 -157 31 -431 70 -499 70 -37 0 -42 4 -134 118 -52 64 -107
128 -121 141 -32 30 -108 38 -148 16z m-891 -671 c3 -8 1 -25 -4 -37 -15 -32
-122 -172 -263 -343 -157 -191 -226 -264 -249 -264 -32 0 -71 49 -158 194 -90
151 -107 201 -78 223 52 38 381 152 600 208 155 40 144 39 152 19z m2247 -101
c132 -46 350 -137 374 -155 21 -18 13 -56 -32 -142 -67 -131 -134 -225 -163
-232 -37 -10 -62 13 -227 212 -260 314 -313 393 -273 407 17 6 164 -35 321
-90z M3065 9629 c-45 -13 -73 -49 -165 -213 l-83 -150 -192 -190 c-212 -211
-283 -296 -415 -494 l-89 -133 62 -95 c56 -84 63 -92 75 -76 7 9 79 134 159
277 80 143 183 326 230 406 l85 146 67 6 c59 6 96 12 111 17 3 1 8 2 11 2 3
-1 27 21 52 47 32 33 64 85 100 162 50 106 81 149 142 193 20 14 20 14 -1 43
-34 45 -96 67 -149 52z M7465 9626 c-34 -15 -56 -38 -78 -81 l-15 -29 52 -31
c58 -36 92 -81 130 -176 39 -98 36 -113 -25 -145 -159 -80 -373 -394 -372
-544 2 -169 229 -451 377 -467 85 -10 196 69 285 203 58 86 83 161 84 248 1
71 -9 104 -73 247 -77 171 -75 193 17 187 l48 -3 200 -397 200 -398 92 99 93
99 -83 116 c-120 167 -252 320 -419 480 l-146 142 -106 213 c-103 205 -108
213 -149 231 -49 23 -71 24 -112 6z m334 -917 l32 -45 -123 -175 c-68 -96
-130 -185 -139 -198 -15 -24 -17 -22 -155 174 l-141 199 97 135 c53 75 115
164 139 199 l42 63 108 -153 c59 -84 122 -174 140 -199z M5240 9579 c-149 -67
-499 -411 -580 -569 -13 -25 -28 -54 -34 -65 -7 -13 -12 -124 -14 -299 -3
-277 -3 -279 21 -330 74 -154 359 -436 525 -519 199 -98 346 -48 606 209 134
133 211 226 250 299 l26 50 0 300 0 300 -26 50 c-41 76 -107 158 -234 289
-124 128 -250 229 -344 276 -71 36 -131 39 -196 9z m368 -361 l282 -283 0
-275 0 -275 -280 -280 -280 -280 -280 280 -280 280 0 275 0 275 278 281 c152
154 277 282 277 282 1 1 128 -125 283 -280z M3050 9151 c-28 -7 -74 -35 -107
-66 -28 -26 -167 -274 -194 -345 -31 -81 -28 -155 9 -234 66 -142 198 -303
278 -341 84 -39 162 -10 274 104 134 136 203 289 181 399 -22 108 -151 314
-258 412 -77 71 -120 87 -183 71z m168 -248 c61 -87 124 -176 140 -198 l30
-40 -96 -136 c-54 -75 -117 -165 -141 -200 l-44 -63 -16 24 c-9 14 -71 103
-139 199 l-123 174 36 51 c20 28 82 117 138 198 56 81 103 147 104 147 0 1 51
-70 111 -156z M1783 8710 c-64 -39 -63 -29 -63 -565 0 -501 0 -506 41 -550 18
-20 18 -24 -1 -135 -78 -461 -37 -1142 94 -1546 l34 -104 -42 -29 c-65 -45
-161 -154 -211 -239 -210 -358 -252 -859 -110 -1289 101 -303 284 -511 500
-568 32 -8 59 -16 60 -17 1 -2 10 -43 19 -93 9 -49 35 -157 56 -240 183 -711
527 -1333 1000 -1805 492 -493 1071 -789 1740 -891 136 -21 190 -24 435 -23
307 0 442 14 690 74 1104 263 1985 1135 2395 2370 47 141 110 380 136 515 9
50 18 91 19 93 1 1 28 9 60 17 93 25 173 73 256 155 152 151 253 367 306 653
23 128 23 436 0 564 -52 279 -152 498 -293 642 l-72 74 18 86 c49 227 78 540
87 931 6 315 -2 442 -43 653 l-25 129 20 15 c51 35 51 37 51 558 0 536 1 526
-63 565 -20 13 -50 20 -82 20 -49 0 -51 -1 -120 -73 -38 -40 -94 -100 -123
-134 l-52 -61 32 -23 c25 -18 47 -24 106 -25 41 -2 76 -5 79 -8 15 -15 22
-113 23 -313 0 -137 4 -224 10 -228 6 -3 10 -23 10 -43 0 -24 18 -74 50 -141
37 -75 48 -107 40 -115 -12 -12 -6915 -22 -6995 -11 -71 10 -72 13 -21 110 25
48 46 93 46 100 0 7 5 15 12 17 8 3 13 89 17 309 7 344 4 331 84 349 56 12 97
30 97 42 0 19 -123 198 -152 223 -38 32 -108 34 -155 5z m1702 -1241 c493
-387 779 -558 1012 -606 198 -40 305 66 290 287 -4 47 -10 96 -13 110 -5 17
52 -32 174 -152 262 -255 517 -464 653 -533 162 -83 233 -38 209 134 -13 95
-73 274 -144 432 -31 67 -54 124 -52 126 1 2 23 -14 47 -35 322 -282 1061
-470 2002 -508 l168 -7 299 -597 c253 -506 307 -606 350 -653 61 -67 103 -84
152 -64 60 25 113 106 168 255 l27 73 22 -123 c12 -68 27 -150 33 -183 5 -33
27 -114 48 -180 57 -178 62 -222 58 -486 l-4 -234 -43 -124 c-86 -254 -152
-350 -308 -453 -110 -72 -210 -173 -248 -249 -14 -27 -43 -125 -65 -217 -55
-234 -69 -272 -282 -777 -133 -315 -144 -337 -286 -545 -85 -125 -202 -274
-284 -362 -99 -106 -431 -375 -597 -483 -939 -608 -2167 -603 -3101 13 -375
247 -564 433 -855 837 -96 134 -276 471 -358 670 -70 170 -141 391 -197 608
-28 109 -62 221 -75 248 -29 56 -136 173 -192 211 -21 14 -70 46 -110 72 -109
71 -181 171 -243 337 -43 117 -50 180 -50 469 0 319 7 365 89 559 38 89 57
153 80 273 17 87 31 161 31 165 0 5 22 -33 49 -84 59 -111 94 -158 145 -195
90 -65 161 -21 191 119 127 593 356 1103 681 1513 121 152 390 409 429 410 6
0 51 -32 100 -71z m-702 -213 c-1 -17 -43 -90 -107 -185 -195 -292 -315 -532
-436 -872 -69 -193 -90 -239 -110 -239 -33 0 -74 125 -110 335 -18 105 -20
162 -20 549 0 238 3 436 7 439 4 4 180 6 392 5 l386 -3 -2 -29z m1837 0 c0
-47 -23 -108 -54 -141 -24 -26 -30 -27 -81 -22 -93 10 -325 135 -325 176 0 17
24 19 243 20 l217 1 0 -34z m884 2 c3 -18 8 -108 11 -200 5 -141 4 -168 -8
-168 -32 0 -236 169 -345 285 -69 73 -80 93 -65 108 3 4 95 7 204 7 l198 0 5
-32z m3134 -536 c2 -559 2 -565 -23 -720 -40 -251 -50 -270 -105 -204 -17 20
-132 238 -256 484 -195 389 -231 455 -280 507 -69 74 -131 117 -193 130 -26 5
-126 15 -222 21 -699 44 -1253 157 -1491 304 -21 13 -23 32 -5 39 6 3 588 5
1292 4 l1280 -2 3 -563z M3862 5596 c-99 -32 -172 -113 -192 -212 -7 -35 -10
-163 -8 -366 l3 -313 27 -50 c54 -102 138 -154 248 -155 83 0 149 30 207 93
71 77 74 103 71 484 l-3 328 -30 53 c-49 89 -125 139 -222 147 -36 3 -75 -1
-101 -9z m116 -548 l-3 -303 -33 -3 c-63 -6 -62 -9 -62 308 0 221 3 290 13
293 6 3 29 6 50 6 l37 1 -2 -302z M6659 5604 c-82 -15 -184 -114 -209 -202 -6
-22 -10 -167 -10 -348 0 -358 4 -387 73 -461 58 -63 124 -93 207 -93 110 1
194 53 248 155 l27 50 0 345 c0 331 -1 347 -21 391 -54 116 -187 185 -315 163z
m99 -556 l-3 -303 -35 -3 c-59 -6 -60 -1 -60 314 0 217 3 284 13 287 6 3 29 6
50 6 l37 1 -2 -302z M4957 3646 c-151 -55 -224 -235 -153 -381 15 -30 45 -70
68 -89 73 -63 94 -66 458 -66 364 0 385 3 458 66 89 76 120 213 73 320 -27 59
-61 97 -121 132 l-45 27 -350 2 c-275 2 -358 0 -388 -11z m701 -195 c32 -13
33 -15 30 -64 -6 -95 -64 -111 -403 -105 -239 4 -275 10 -318 52 -22 23 -22
78 1 99 33 30 95 36 377 33 203 -1 289 -6 313 -15z M6636 2545 c-21 -7 -55
-27 -75 -43 -197 -158 -802 -251 -1453 -222 -508 23 -821 93 -1030 231 -93 62
-230 48 -321 -31 -120 -106 -122 -296 -5 -406 247 -233 906 -369 1703 -351
525 12 859 66 1170 187 241 95 357 202 372 345 20 195 -178 355 -361 290z
m154 -215 c20 -20 24 -54 12 -97 -41 -140 -476 -276 -1037 -324 -182 -15 -679
-15 -870 0 -370 30 -687 100 -891 197 -116 55 -164 104 -164 168 0 42 2 45 36
56 64 21 130 8 259 -52 180 -83 354 -128 640 -165 178 -23 883 -26 1060 -5
328 39 529 90 690 173 141 72 226 88 265 49z"/>
</g>
</svg>
