<?xml version="1.0" standalone="no"?>
<!DOCTYPE svg PUBLIC "-//W3C//DTD SVG 20010904//EN"
 "http://www.w3.org/TR/2001/REC-SVG-20010904/DTD/svg10.dtd">
<svg version="1.0" xmlns="http://www.w3.org/2000/svg"
 width="2048.000000pt" height="2048.000000pt" viewBox="0 0 2048.000000 2048.000000"
 preserveAspectRatio="xMidYMid meet">
<metadata>
Created by potrace 1.13, written by Peter Selinger 2001-2015
</metadata>
<g transform="translate(0.000000,2048.000000) scale(0.192120,-0.192120)"
fill="#000000" stroke="none">
<path d="M5190 9629 c-370 -19 -767 -130 -1150 -320 -743 -370 -1281 -986
-1550 -1776 -85 -249 -138 -489 -176 -798 -22 -182 -32 -1291 -15 -1735 47
-1214 214 -1804 527 -1855 61 -10 261 20 404 59 130 36 197 58 590 199 190 67
351 120 528 173 6 2 12 18 12 36 l0 33 45 -49 c25 -26 45 -50 45 -52 0 -2 -15
5 -32 16 -55 34 -58 30 -58 -77 l1 -98 172 -94 c94 -52 310 -173 479 -268 169
-95 312 -173 318 -173 5 0 173 92 372 203 200 112 416 233 480 268 l118 64 0
98 c0 97 0 98 23 92 102 -29 342 -107 482 -157 575 -204 729 -249 911 -268
355 -36 508 118 582 585 55 344 66 645 66 1825 1 1119 1 1118 -60 1450 -107
581 -324 1062 -677 1500 -86 106 -324 341 -440 434 -589 470 -1318 720 -1997
685z m410 -270 c409 -45 881 -220 1252 -464 144 -95 174 -118 318 -241 428
-368 729 -870 870 -1451 25 -103 30 -142 30 -252 0 -72 -1 -131 -3 -131 -1 0
-46 43 -99 95 -71 71 -113 103 -160 125 -149 70 -246 65 -414 -20 -81 -41
-107 -50 -130 -44 -16 3 -92 39 -169 80 -309 161 -548 223 -942 244 -255 13
-393 32 -578 80 -271 70 -492 155 -835 320 -135 65 -267 123 -294 128 -119 24
-193 -26 -531 -358 -276 -272 -404 -387 -480 -432 -58 -34 -90 -33 -178 7
-131 58 -250 56 -375 -6 -76 -37 -190 -142 -240 -219 -34 -54 -49 -70 -65 -70
-5 0 -7 78 -5 173 5 188 24 283 103 522 254 759 803 1354 1557 1685 463 203
912 278 1368 229z m-1194 -1658 c20 -18 257 -143 395 -207 494 -228 946 -354
1277 -354 452 0 897 -140 1155 -362 31 -27 61 -48 66 -46 5 2 28 27 51 56 52
67 144 127 216 142 107 22 215 -20 310 -123 282 -301 264 -972 -34 -1237 -76
-68 -144 -93 -240 -88 l-74 3 -33 -130 c-182 -716 -595 -1311 -1143 -1650
-723 -446 -1597 -383 -2274 164 -105 84 -269 248 -351 351 -178 221 -362 547
-461 814 -50 137 -109 332 -121 404 l-7 42 -63 0 c-34 0 -82 7 -105 15 -137
48 -267 223 -320 431 -123 479 98 1008 420 1008 88 0 179 -42 244 -115 l45
-50 183 148 c134 109 269 234 508 470 179 177 330 322 336 323 5 0 14 -4 20
-9z m-1791 -2064 c65 -107 59 -100 144 -185 58 -59 92 -83 155 -112 45 -21 88
-46 97 -56 20 -22 40 -72 105 -254 51 -143 148 -362 216 -489 131 -240 346
-522 542 -709 102 -98 100 -122 -14 -167 -128 -51 -546 -203 -625 -228 -172
-54 -339 -68 -400 -35 -130 70 -222 367 -285 923 -18 162 -20 242 -20 798 0
704 -7 663 85 514z m5485 -1752 c-45 -325 -103 -454 -223 -490 -70 -21 -213
-19 -317 5 -104 23 -158 41 -524 178 -267 99 -336 133 -336 163 0 4 54 63 121
131 315 320 540 678 699 1113 90 245 101 275 118 294 10 10 48 29 87 41 38 13
86 33 105 45 61 39 137 114 186 183 26 37 57 77 68 90 l21 24 3 -849 c2 -574
-1 -874 -8 -928z m-1800 -270 c0 -19 -8 -28 -27 -36 -16 -6 -36 -18 -45 -26
-10 -9 -18 -14 -18 -12 0 5 83 99 87 99 2 0 3 -11 3 -25z m-1637 -210 c99 -53
228 -96 362 -121 139 -26 479 -26 610 -1 197 39 336 95 476 192 45 31 83 54
86 52 9 -10 -120 -128 -193 -176 -76 -50 -271 -150 -371 -190 -26 -10 -82 -35
-123 -54 -145 -66 -167 -72 -219 -58 -46 12 -290 118 -431 186 -79 39 -168 91
-235 138 -47 33 -165 147 -165 159 0 5 27 -12 60 -37 33 -25 97 -66 143 -90z
M4327 6356 c-59 -22 -103 -61 -131 -118 -25 -49 -26 -60 -26 -212 0 -89 5
-178 11 -199 13 -48 70 -112 123 -139 56 -29 146 -29 202 0 52 27 97 77 119
135 24 63 19 366 -7 413 -22 41 -72 90 -111 110 -42 22 -134 27 -180 10z
M6182 6344 c-56 -28 -92 -67 -117 -127 -22 -52 -22 -352 1 -405 19 -46 68 -98
114 -122 114 -57 252 -12 313 104 19 36 22 61 25 191 5 200 -4 241 -71 310
-79 80 -169 97 -265 49z M5063 5205 c-90 -39 -99 -198 -14 -248 26 -15 63 -17
300 -17 l271 0 37 33 c31 29 37 41 40 88 5 68 -18 117 -67 141 -31 16 -67 18
-285 18 -192 -1 -257 -4 -282 -15z M4658 4631 c-80 -51 -109 -149 -69 -238 34
-74 199 -183 363 -239 245 -83 570 -76 806 17 161 63 288 157 318 234 66 174
-133 327 -286 219 -135 -95 -212 -126 -360 -145 -101 -13 -208 -5 -310 22 -84
23 -182 69 -220 104 -69 64 -166 74 -242 26z M3512 3099 c-557 -50 -1100 -300
-1438 -662 -134 -145 -250 -340 -303 -512 -48 -155 -51 -206 -51 -922 l0 -673
1509 0 1509 0 -13 43 c-7 23 -183 605 -390 1292 -207 688 -390 1294 -406 1348
l-30 97 -147 -1 c-81 -1 -189 -5 -240 -10z m368 -364 c11 -227 21 -309 55
-435 12 -47 125 -425 250 -840 126 -415 230 -778 233 -806 6 -76 -11 -89 -124
-97 -116 -9 -209 -35 -356 -102 -65 -30 -123 -55 -129 -55 -14 0 9 40 142 257
66 105 119 196 119 200 0 5 -197 62 -437 128 -241 65 -441 121 -445 124 -4 4
8 47 26 96 19 50 156 432 306 849 337 942 330 923 342 902 5 -9 13 -108 18
-221z m-336 38 c10 -43 -9 -100 -214 -674 -277 -771 -290 -811 -297 -903 -6
-73 -4 -82 23 -134 38 -73 136 -173 197 -201 27 -12 134 -46 238 -76 104 -29
193 -56 199 -60 18 -11 11 -51 -14 -74 -16 -15 -44 -25 -87 -31 -35 -5 -407
-10 -827 -10 l-763 0 3 617 3 618 34 78 c53 123 124 223 240 338 273 270 688
462 1131 524 133 18 128 19 134 -12z M6731 3014 c-16 -54 -199 -661 -406
-1349 -207 -687 -383 -1269 -390 -1292 l-13 -43 1509 0 1510 0 -4 718 c-3 693
-4 720 -25 805 -86 352 -314 659 -661 891 -187 125 -430 231 -665 291 -197 50
-332 66 -593 72 l-231 6 -31 -99z m145 -226 c31 -84 170 -470 309 -858 139
-388 262 -730 274 -760 11 -30 17 -57 13 -61 -4 -4 -90 -29 -192 -57 -524
-140 -690 -187 -690 -195 0 -5 46 -84 103 -175 137 -222 171 -282 157 -282 -6
0 -64 25 -128 56 -156 75 -203 90 -300 99 -47 4 -100 15 -122 26 -39 19 -40
21 -40 69 0 56 19 144 54 251 28 85 122 392 260 849 84 280 108 364 161 568
23 87 35 195 44 412 10 211 16 256 33 226 5 -8 34 -84 64 -168z m445 -4 c537
-75 1044 -376 1238 -736 85 -157 81 -112 81 -815 l0 -623 -767 1 c-423 0 -792
4 -822 8 -41 6 -60 14 -78 36 -49 56 -39 63 184 126 112 32 223 67 249 78 59
26 159 129 190 195 30 65 31 145 4 245 -11 40 -109 319 -216 619 -261 727
-284 796 -284 843 l0 39 55 0 c30 0 105 -7 166 -16z M4554 3092 c-28 -18 -30
-61 -28 -470 2 -386 4 -425 20 -443 9 -10 28 -19 41 -19 13 0 92 38 176 84 84
46 245 136 360 199 l207 115 361 -199 c198 -110 370 -199 383 -199 13 0 31 9
40 19 16 18 17 56 17 451 0 393 -2 434 -17 451 -9 11 -28 19 -41 19 -13 0
-182 -88 -377 -195 -194 -107 -359 -195 -365 -195 -7 0 -172 88 -366 195 -195
107 -364 195 -377 195 -13 0 -28 -4 -34 -8z m280 -441 c15 -16 15 -22 4 -40
-21 -34 -38 -26 -38 19 0 44 8 49 34 21z m996 -23 c0 -16 -3 -19 -11 -11 -6 6
-8 16 -5 22 11 17 16 13 16 -11z M4240 2646 c0 -2 8 -10 18 -17 15 -13 16 -12
3 4 -13 16 -21 21 -21 13z M6399 2633 c-13 -16 -12 -17 4 -4 9 7 17 15 17 17
0 8 -8 3 -21 -13z M5255 1936 c-56 -25 -105 -101 -105 -163 1 -45 35 -108 76
-139 33 -25 46 -29 104 -29 57 0 72 4 103 28 85 64 98 177 30 258 -47 56 -139
76 -208 45z M5245 1207 c-46 -26 -82 -75 -91 -124 -13 -67 32 -155 97 -188 36
-19 122 -19 158 0 64 33 108 117 96 183 -22 122 -155 188 -260 129z M5252 489
c-48 -24 -88 -76 -98 -127 l-6 -32 182 0 183 0 -7 32 c-16 79 -98 148 -177
148 -19 0 -53 -10 -77 -21z M4856 362 l-49 -27 61 -3 c34 -2 90 -2 125 0 l62
3 -46 28 c-57 34 -91 34 -153 -1z M5650 362 l-45 -27 63 -3 c34 -2 90 -2 124
0 l62 3 -51 28 c-64 34 -96 34 -153 -1z"/>
</g>
</svg>
