<?xml version="1.0" standalone="no"?>
<!DOCTYPE svg PUBLIC "-//W3C//DTD SVG 20010904//EN"
 "http://www.w3.org/TR/2001/REC-SVG-20010904/DTD/svg10.dtd">
<svg version="1.0" xmlns="http://www.w3.org/2000/svg"
 width="2048.000000pt" height="2048.000000pt" viewBox="0 0 2048.000000 2048.000000"
 preserveAspectRatio="xMidYMid meet">
<metadata>
Created by potrace 1.13, written by Peter Selinger 2001-2015
</metadata>
<g transform="translate(0.000000,2048.000000) scale(0.192120,-0.192120)"
fill="#000000" stroke="none">
<path d="M8894 10251 c-425 -100 -678 -508 -578 -931 21 -86 92 -233 144 -295
68 -81 159 -152 255 -199 113 -56 183 -75 311 -83 83 -5 105 -10 128 -28 l28
-22 -26 -229 c-13 -126 -51 -474 -82 -774 -31 -300 -58 -546 -59 -547 -1 -2
-77 22 -169 52 -202 67 -372 110 -526 132 -100 14 -137 15 -285 5 -93 -7 -232
-21 -307 -32 l-138 -20 -182 59 c-237 78 -390 120 -458 127 -114 12 -386 -59
-559 -145 -46 -23 -85 -40 -87 -38 -2 2 -27 89 -55 193 -28 104 -55 200 -59
214 l-7 25 -12 -28 c-24 -61 -62 -233 -63 -286 -1 -72 18 -114 78 -175 64 -63
116 -90 177 -89 34 1 47 -3 47 -13 0 -20 15 -18 131 21 231 79 341 95 470 71
46 -9 172 -43 279 -76 281 -87 280 -86 537 -60 364 38 538 23 870 -74 168 -49
240 -60 290 -47 76 21 182 153 212 266 9 36 58 461 111 965 11 107 23 221 26
252 3 32 1 89 -6 128 -14 82 -40 119 -107 154 l-45 22 97 29 c53 15 116 41
140 56 37 23 46 36 59 82 43 148 51 210 50 387 -1 154 -4 186 -26 270 -14 52
-39 126 -56 163 -29 64 -30 67 -12 77 20 11 127 40 147 40 19 0 72 -111 94
-199 54 -211 -7 -586 -115 -700 -45 -48 -34 -46 32 7 101 82 198 281 224 458
19 134 -12 314 -77 445 l-17 34 26 -30 c127 -147 152 -446 61 -732 -13 -43
-67 -162 -119 -266 l-95 -187 -4 -783 c-3 -670 -6 -801 -21 -915 -33 -258 -81
-388 -151 -418 -76 -31 -333 -64 -675 -85 -102 -6 -489 -14 -860 -18 -771 -8
-709 0 -816 -102 -102 -99 -107 -111 -180 -479 -88 -441 -159 -723 -248 -985
-124 -367 -156 -517 -156 -735 l0 -148 33 -44 c28 -36 96 -87 118 -88 3 0 9
57 13 128 14 271 68 541 152 766 54 143 82 231 123 383 65 238 170 739 207
980 l17 113 611 0 c623 0 935 9 1246 35 408 35 579 79 635 163 74 112 122 389
146 846 13 253 6 1143 -10 1298 l-10 98 33 67 c132 266 204 704 152 926 -39
166 -139 278 -269 302 -23 5 -47 18 -62 37 -77 91 -221 180 -355 218 -108 31
-261 35 -366 11z m296 -118 c0 -5 -29 -23 -65 -42 -137 -70 -278 -235 -345
-402 -18 -43 -38 -79 -45 -79 -7 0 -49 18 -94 41 -57 28 -81 46 -81 59 0 41
100 217 160 282 69 76 143 134 180 141 43 8 290 7 290 0z m304 -164 l59 -33
-61 -16 c-155 -43 -285 -150 -356 -293 l-38 -78 -62 6 c-81 8 -199 25 -204 29
-2 2 8 31 22 65 79 194 228 348 389 400 99 32 107 32 152 -10 22 -20 67 -52
99 -70z m-985 -141 c-25 -64 -26 -65 -34 -38 -5 15 1 31 20 55 14 19 28 35 30
35 3 0 -5 -24 -16 -52z m863 -145 c87 -224 98 -463 32 -691 -41 -141 -57 -170
-96 -176 -121 -18 -121 -18 -114 6 69 238 73 418 14 641 l-20 77 26 55 c25 50
109 155 125 155 4 0 18 -30 33 -67z m403 -34 c9 -40 14 -106 13 -174 l-1 -110
-7 125 c-7 111 -16 175 -35 236 -6 16 -5 17 4 3 6 -9 17 -45 26 -80z m-1163
-82 c116 -54 248 -85 406 -94 l102 -6 10 -39 c14 -51 38 -211 33 -220 -6 -11
-181 1 -288 18 -161 26 -327 96 -419 177 l-40 34 13 57 c8 38 10 82 6 128 l-7
70 65 -50 c36 -27 89 -61 119 -75z m1165 -259 c-3 -8 -6 -5 -6 6 -1 11 2 17 5
13 3 -3 4 -12 1 -19z m-1027 -142 c106 -28 238 -46 346 -46 l71 0 -5 -52 c-3
-28 -10 -74 -16 -102 l-11 -51 -44 -3 c-101 -7 -379 52 -437 93 -21 14 -137
171 -183 247 l-22 37 103 -49 c57 -27 146 -60 198 -74z M5505 9930 c-306 -41
-549 -188 -710 -429 -61 -92 -112 -188 -120 -228 -1 -10 -13 -43 -25 -73 -71
-178 -94 -362 -70 -560 32 -253 109 -485 218 -654 51 -79 136 -179 191 -223
30 -25 60 -54 66 -66 9 -18 84 -86 158 -142 l26 -20 -21 -160 c-11 -88 -22
-162 -24 -164 -2 -2 -76 5 -166 14 -213 24 -500 25 -624 2 -234 -42 -624 -212
-1244 -542 -456 -242 -447 -238 -735 -305 -99 -23 -274 -64 -390 -91 -336 -79
-572 -121 -598 -108 -12 7 -69 57 -126 111 -120 115 -178 157 -225 165 -32 5
-40 -1 -134 -91 -89 -84 -104 -95 -129 -91 -67 13 -247 21 -299 14 -68 -9
-111 -45 -145 -123 -34 -76 -39 -275 -10 -403 22 -100 72 -220 118 -279 40
-54 108 -94 157 -94 23 0 129 20 236 44 470 107 553 118 1175 166 656 50 764
64 976 125 164 48 632 205 893 299 115 42 210 75 212 74 1 -2 -6 -46 -16 -98
-40 -206 -77 -660 -66 -805 7 -91 96 -634 156 -952 22 -117 40 -219 40 -226 0
-10 -18 -16 -53 -21 -75 -8 -221 -52 -433 -129 -297 -107 -498 -159 -734 -189
-83 -10 -383 -13 -1402 -13 l-1298 0 0 -1667 0 -1668 5000 0 5000 0 0 1668 0
1667 -962 -3 c-681 -2 -991 0 -1058 8 -136 17 -274 55 -630 173 -357 119 -514
159 -640 160 -106 1 -127 -7 -480 -182 -317 -157 -364 -171 -478 -149 -44 9
-132 40 -206 73 -168 74 -191 74 -364 -9 -223 -107 -282 -102 -558 46 -199
106 -274 141 -369 175 -85 30 -201 53 -263 53 l-46 0 31 33 c49 50 73 111 73
191 0 39 -24 209 -56 395 l-56 326 5 554 4 553 -24 43 c-31 57 -110 129 -157
145 -24 8 -57 10 -90 6 -28 -4 -251 -74 -496 -156 -491 -164 -581 -190 -750
-219 -103 -18 -564 -60 -820 -76 -362 -22 -576 -52 -970 -136 -311 -67 -335
-64 -386 46 -21 45 -24 64 -24 187 0 99 3 139 12 145 7 4 77 10 155 13 l141 5
101 53 c55 28 111 52 124 52 27 0 66 -24 151 -94 144 -117 227 -134 456 -92
304 56 972 219 1080 264 41 18 203 100 360 183 345 182 665 340 840 414 148
63 344 131 409 141 30 5 45 13 48 25 3 10 12 20 21 24 37 14 274 17 449 5 237
-15 268 -9 360 74 33 30 66 69 73 86 22 53 9 137 -38 235 -32 67 -38 86 -25
80 158 -64 259 -81 382 -66 96 12 215 51 290 93 81 47 198 145 240 202 21 28
67 83 103 121 36 39 77 89 91 112 21 33 45 51 118 90 124 65 187 123 228 211
49 107 64 195 59 348 l-4 131 -52 109 c-39 83 -52 121 -52 156 0 73 -27 210
-60 300 -121 335 -404 553 -785 608 -81 11 -243 11 -330 0z m680 -411 c51 -34
121 -103 152 -150 20 -31 24 -46 21 -104 l-3 -67 -54 78 c-30 44 -80 110 -110
148 -59 72 -91 117 -91 128 0 12 45 -5 85 -33z m-563 7 c250 -48 432 -174 554
-382 41 -69 84 -200 106 -323 29 -160 31 -457 4 -581 -64 -294 -211 -501 -446
-624 -126 -66 -184 -80 -305 -73 -97 5 -153 18 -261 58 -52 20 -52 20 -58 72
-10 80 -43 139 -159 284 -119 149 -164 224 -208 344 -61 167 -69 222 -69 474
0 159 5 256 15 315 14 77 14 91 -2 168 l-17 83 29 24 c84 67 248 135 388 160
99 18 337 18 429 1z m-1045 -5741 c56 -20 199 -84 316 -143 226 -115 277 -132
390 -131 72 0 92 6 302 83 111 40 123 39 389 -53 121 -42 209 -42 335 -1 49
16 108 38 130 50 71 36 144 58 214 64 38 4 125 25 195 47 226 72 285 63 833
-116 340 -111 492 -150 646 -165 54 -5 470 -10 926 -10 l827 0 0 -1425 0
-1425 -4760 0 -4760 0 0 1425 0 1425 1124 0 c695 0 1174 4 1253 10 298 25 481
69 898 215 87 30 207 69 265 86 58 17 118 38 135 47 120 62 198 66 342 17z"/>
</g>
</svg>
