<?xml version="1.0" standalone="no"?>
<!DOCTYPE svg PUBLIC "-//W3C//DTD SVG 20010904//EN"
 "http://www.w3.org/TR/2001/REC-SVG-20010904/DTD/svg10.dtd">
<svg version="1.0" xmlns="http://www.w3.org/2000/svg"
 width="2048.000000pt" height="2048.000000pt" viewBox="0 0 2048.000000 2048.000000"
 preserveAspectRatio="xMidYMid meet">
<metadata>
Created by potrace 1.13, written by Peter Selinger 2001-2015
</metadata>
<g transform="translate(0.000000,2048.000000) scale(0.192120,-0.192120)"
fill="#000000" stroke="none">
<path d="M6433 10036 c-135 -43 -237 -157 -263 -295 -6 -33 -10 -304 -10 -697
0 -622 -1 -643 -19 -649 -31 -9 -99 -62 -117 -91 -18 -27 -42 -269 -43 -432
-1 -70 1 -76 29 -102 27 -26 30 -34 30 -94 0 -48 -4 -66 -13 -66 -15 0 -51
-37 -59 -60 -3 -8 -2 -118 1 -243 l6 -229 33 -29 c30 -27 32 -33 32 -93 0 -62
-1 -64 -30 -69 -19 -4 -35 -17 -45 -37 -14 -28 -14 -49 0 -241 9 -116 21 -219
27 -229 7 -10 22 -23 34 -28 31 -15 54 -134 30 -161 -9 -10 -16 -31 -16 -47 1
-60 48 -355 59 -368 7 -8 23 -17 36 -20 l25 -6 0 -170 c0 -93 5 -193 11 -222
26 -121 103 -217 217 -271 l67 -32 680 0 c632 0 683 1 727 18 l47 18 -40 61
c-21 34 -51 98 -66 142 -25 73 -27 95 -27 226 1 127 4 156 27 230 51 167 123
303 236 442 l71 87 0 592 0 591 -36 80 c-32 71 -36 88 -32 143 3 49 11 75 36
115 l32 51 0 928 c0 805 -2 935 -16 986 -18 73 -53 134 -104 185 l-39 39 40
-14 c88 -31 169 -108 209 -197 34 -77 40 -193 40 -758 0 -519 1 -549 21 -620
47 -169 51 -195 47 -291 -3 -90 -5 -100 -34 -140 l-32 -44 72 -1 c79 0 131
-21 179 -71 36 -39 266 -532 274 -588 5 -42 -11 -549 -22 -666 l-6 -57 36 -8
36 -9 -35 -55 c-20 -30 -40 -77 -45 -105 -6 -27 -17 -270 -26 -540 -8 -269
-18 -519 -21 -555 -16 -169 -47 -246 -165 -411 -120 -167 -133 -221 -75 -308
l35 -51 -521 0 -520 0 16 23 c68 95 74 162 20 232 -20 26 -48 58 -62 72 -33
29 -291 203 -303 203 -11 0 1 -67 23 -124 27 -69 70 -127 139 -188 54 -48 62
-60 84 -131 30 -94 30 -97 5 -97 -54 0 -119 -61 -201 -188 -27 -43 -332 -510
-677 -1040 -524 -804 -630 -962 -647 -959 -11 2 -844 191 -1851 421 -1008 229
-1836 416 -1840 416 -5 0 -9 -629 -9 -1405 l0 -1405 2330 0 c1596 0 2358 3
2420 11 228 27 378 90 496 208 50 50 88 98 109 141 45 90 1324 3303 1339 3365
20 81 16 196 -9 252 -39 89 -121 151 -232 174 -29 6 -55 13 -57 15 -1 1 4 25
14 53 13 41 28 60 79 100 99 79 186 201 226 317 43 122 38 31 99 1884 20 602
26 907 20 955 -27 215 -126 381 -289 490 -69 46 -178 95 -255 114 l-40 10 3
615 c3 423 0 636 -7 687 -21 134 -100 242 -219 297 l-57 27 -815 2 c-654 2
-823 -1 -857 -11z m1397 -2341 l0 -1805 -653 -2 -654 -3 -35 -37 c-51 -55
-117 -81 -215 -86 -59 -3 -83 -1 -83 7 0 7 16 62 36 122 44 132 42 167 -12
258 -20 34 -34 65 -30 68 22 22 195 18 218 -5 5 -5 0 -28 -11 -53 -25 -54 -26
-88 -4 -127 19 -34 88 -80 124 -84 23 -3 24 -1 23 62 -1 73 -26 134 -69 168
-37 29 -31 47 22 67 61 24 145 103 172 163 12 26 33 62 46 81 31 42 45 91 45
156 0 154 -96 261 -246 273 -39 3 -64 9 -64 16 0 7 16 28 35 46 43 41 79 100
63 100 -6 0 7 16 29 35 58 49 85 118 85 217 0 68 -5 88 -29 136 -31 62 -80
106 -139 127 l-39 13 -3 81 -3 82 49 47 c60 59 82 117 82 222 0 94 -32 168
-91 209 l-38 26 -1 613 0 612 695 0 695 0 0 -1805z m-1470 615 c71 -20 72 -24
46 -120 -32 -115 -43 -298 -22 -359 22 -61 21 -68 -21 -82 -43 -15 -201 -15
-216 0 -6 6 -3 26 8 58 51 147 57 243 25 389 -11 49 -20 100 -20 113 0 24 0
24 83 17 45 -3 98 -10 117 -16z m2214 -190 c99 -82 165 -170 201 -264 22 -58
64 -262 78 -381 6 -44 0 -34 -136 252 -41 86 -70 132 -97 157 -49 44 -132 70
-195 61 l-45 -7 0 103 c0 57 3 141 6 185 l7 82 48 -59 c27 -32 87 -90 133
-129z m-2159 -508 c6 -4 10 -94 10 -232 0 -124 3 -248 7 -277 l7 -52 -37 -11
c-42 -11 -262 -14 -262 -2 0 4 7 32 15 62 23 84 20 344 -4 437 -13 52 -16 73
-7 77 19 8 260 6 271 -2z m19 -708 c3 -9 6 -29 6 -46 0 -16 18 -64 39 -106 39
-77 39 -78 44 -219 4 -101 2 -145 -6 -152 -13 -10 -222 -31 -311 -31 l-55 0 7
38 c13 68 8 383 -7 445 -8 31 -12 60 -9 62 5 5 174 21 244 24 30 1 44 -4 48
-15z m1104 -1456 l-3 -153 -140 -3 c-111 -2 -162 2 -250 19 -86 17 -165 23
-360 28 -221 6 -255 9 -290 26 l-40 20 -3 83 c-3 82 -3 82 25 94 81 33 140 36
601 37 l463 1 -3 -152z m870 -1159 c23 -9 67 -32 98 -50 l56 -34 -4 -105 -3
-105 -588 -1475 c-324 -811 -605 -1513 -624 -1560 -118 -278 -227 -340 -628
-360 -104 -5 -1118 -9 -2252 -10 l-2063 0 0 1101 0 1101 38 -7 c20 -3 728
-163 1572 -355 1801 -409 1677 -382 1765 -384 95 -2 147 25 250 128 72 72 144
178 670 984 325 497 618 941 652 986 35 46 81 96 103 111 75 52 101 54 525 52
333 -2 396 -5 433 -18z M8234 7095 c0 -55 1 -76 3 -47 2 29 2 74 0 100 -2 26
-3 2 -3 -53z M7915 5060 c3 -5 11 -10 16 -10 6 0 7 5 4 10 -3 6 -11 10 -16 10
-6 0 -7 -4 -4 -10z"/>
</g>
</svg>
