<?xml version="1.0" standalone="no"?>
<!DOCTYPE svg PUBLIC "-//W3C//DTD SVG 20010904//EN"
 "http://www.w3.org/TR/2001/REC-SVG-20010904/DTD/svg10.dtd">
<svg version="1.0" xmlns="http://www.w3.org/2000/svg"
 width="2048.000000pt" height="2048.000000pt" viewBox="0 0 2048.000000 2048.000000"
 preserveAspectRatio="xMidYMid meet">
<metadata>
Created by potrace 1.13, written by Peter Selinger 2001-2015
</metadata>
<g transform="translate(0.000000,2048.000000) scale(0.192120,-0.192120)"
fill="#000000" stroke="none">
<path d="M5224 10279 c-342 -33 -816 -175 -1164 -349 -318 -159 -570 -338
-775 -551 -125 -130 -186 -215 -253 -349 -32 -63 -75 -137 -95 -165 -58 -78
-125 -222 -153 -331 -50 -196 -30 -432 54 -616 117 -259 357 -464 624 -532
l53 -13 185 -444 c102 -244 199 -474 216 -510 l31 -65 -23 -28 c-26 -30 -30
-65 -12 -99 18 -34 40 -46 84 -47 41 0 42 0 88 -82 131 -232 340 -466 501
-561 105 -62 211 -101 323 -121 30 -5 32 -4 32 25 0 45 -27 89 -65 105 -19 8
-65 14 -102 14 -37 0 -91 3 -119 6 l-52 7 57 47 c126 106 209 212 256 328 24
60 47 142 39 142 -3 0 -96 -39 -207 -86 -232 -99 -394 -164 -406 -164 -5 0
-10 44 -13 98 -6 153 -36 192 -182 236 l-71 22 42 22 c79 41 97 109 44 163
-35 34 -58 36 -127 10 l-52 -20 24 75 c13 41 24 91 24 112 -1 54 -36 132 -120
262 -94 145 -146 252 -201 410 -58 167 -82 191 -189 181 -11 -1 -32 35 -67
113 l-51 115 64 41 c35 22 87 61 116 86 37 32 59 43 73 39 74 -20 230 -46 340
-56 210 -19 563 4 773 50 l83 18 14 -21 c7 -12 117 -190 244 -396 272 -444
253 -415 246 -370 -3 19 -8 96 -11 170 -7 145 5 225 46 318 108 243 406 320
560 144 72 -81 100 -230 100 -531 0 -87 5 -184 11 -217 22 -121 114 -245 330
-444 68 -63 125 -117 127 -120 1 -3 -25 -16 -58 -29 -113 -43 -152 -96 -126
-170 l14 -43 -76 -80 c-164 -172 -423 -365 -630 -468 -206 -103 -452 -167
-607 -157 l-80 5 -105 -54 c-236 -120 -392 -231 -707 -503 -466 -401 -725
-687 -861 -949 l-48 -92 -147 139 c-195 184 -248 210 -437 211 -188 0 -350
-69 -490 -210 -101 -101 -150 -187 -210 -370 -84 -255 -115 -489 -107 -803 5
-221 17 -313 64 -492 75 -288 245 -602 496 -915 441 -549 1015 -893 1671
-1000 218 -36 463 -41 1916 -38 l1394 3 8 35 c334 1568 534 3126 541 4220 2
260 1 280 -21 360 -46 166 -123 300 -246 429 -121 125 -253 206 -423 258 -85
25 -99 27 -370 31 l-283 4 -9 36 c-6 21 -37 144 -69 274 l-60 238 44 57 c23
32 47 58 53 58 32 0 273 369 380 584 207 411 303 797 302 1211 -1 228 -17 370
-63 543 -11 43 -18 80 -16 82 3 3 31 10 63 16 104 19 293 -19 423 -85 57 -29
122 -97 155 -163 54 -106 79 -218 122 -558 53 -417 102 -584 221 -751 55 -78
120 -133 225 -188 130 -69 213 -91 344 -91 175 0 300 50 437 176 l63 58 -45 1
c-83 1 -203 29 -269 61 -92 45 -187 142 -234 239 -116 239 -109 547 24 940 61
180 79 273 79 404 -1 243 -92 460 -278 657 -235 250 -615 416 -903 395 -267
-20 -536 -184 -684 -418 l-29 -46 -59 91 c-185 287 -446 528 -698 646 -266
125 -562 172 -885 140z m351 -293 c160 -10 305 -50 471 -131 168 -81 314 -199
449 -360 162 -195 251 -276 334 -304 67 -22 140 17 311 168 110 97 180 141
285 178 71 24 94 27 205 28 99 0 143 -5 210 -23 100 -27 242 -92 331 -152 99
-66 217 -193 262 -279 l37 -73 0 -232 c0 -221 -1 -237 -26 -317 -90 -297 -87
-277 -91 -584 -5 -307 -1 -341 58 -473 16 -35 31 -79 35 -97 5 -31 4 -34 -16
-32 -36 2 -103 70 -137 138 -71 145 -103 280 -158 689 -17 120 -61 331 -75
359 -5 9 -24 50 -43 91 -61 134 -186 273 -311 349 -124 74 -338 123 -452 102
-32 -6 -74 -22 -94 -35 -63 -42 -153 -130 -189 -186 l-35 -55 3 -525 3 -525
-27 -110 c-62 -259 -169 -521 -302 -739 -67 -109 -99 -146 -128 -146 -52 0
-170 122 -193 200 -35 115 -41 156 -46 330 -8 311 -52 443 -193 587 -159 162
-329 194 -528 99 -58 -27 -97 -57 -184 -140 -60 -58 -116 -106 -123 -106 -25
0 -58 31 -100 93 -53 79 -150 176 -210 211 -66 39 -125 41 -343 16 -259 -29
-494 -30 -720 0 -141 18 -179 20 -220 11 -68 -16 -157 -68 -239 -140 -73 -65
-100 -77 -142 -67 -44 11 -127 104 -169 191 l-40 80 -3 221 c-3 206 -2 224 18
275 21 53 187 340 259 448 153 231 568 536 956 702 243 104 577 205 810 244
107 18 302 33 375 28 25 -1 81 -5 125 -7z m816 -4136 c8 -122 20 -154 80 -202
20 -16 54 -32 80 -36 l44 -7 3 -49 c9 -134 -97 -409 -264 -687 -290 -483 -844
-1102 -1242 -1386 -194 -139 -432 -270 -659 -364 -45 -19 -83 -37 -83 -41 0
-12 63 -28 113 -28 79 0 173 27 292 86 324 158 603 368 897 675 526 552 804
953 992 1429 35 90 69 158 88 179 l30 34 157 -6 c175 -8 262 -23 354 -63 151
-67 299 -209 375 -364 l27 -55 3 -589 c2 -535 1 -612 -19 -830 -12 -133 -25
-322 -29 -421 -17 -377 -176 -1460 -265 -1810 -18 -71 -54 -231 -79 -355 -57
-278 -69 -318 -106 -358 l-29 -32 -866 0 c-723 0 -871 2 -899 14 -52 22 -94
94 -190 329 -54 132 -102 233 -124 263 -35 46 -120 119 -129 111 -10 -11 185
-531 281 -746 25 -57 46 -107 46 -111 0 -4 -42 8 -92 28 -133 49 -191 55 -563
49 -317 -4 -334 -5 -429 -31 -54 -14 -106 -26 -115 -26 -20 0 -210 91 -276
133 -172 107 -297 234 -363 366 -34 69 -37 82 -37 160 1 103 28 182 84 244 81
90 171 98 458 43 254 -49 341 -56 742 -56 435 0 688 21 1171 96 202 31 680
125 680 133 0 7 -755 508 -1020 677 -273 173 -558 343 -705 419 -316 164 -546
317 -940 624 -135 105 -222 177 -484 398 -35 30 -18 29 78 -7 102 -37 163 -69
268 -136 164 -106 227 -129 378 -139 97 -6 122 -20 110 -60 -3 -11 -9 -59 -12
-106 -5 -73 -2 -92 15 -132 12 -26 25 -47 29 -47 4 0 21 37 37 83 41 116 116
268 178 361 32 49 107 133 194 219 136 133 195 209 175 221 -22 14 -268 -137
-460 -281 -47 -35 -114 -78 -150 -96 -61 -30 -73 -32 -166 -32 -113 0 -140 10
-248 91 -125 94 -277 144 -433 144 -52 0 -96 4 -99 10 -7 12 123 142 207 206
31 25 135 95 230 156 325 208 459 322 621 528 153 193 292 319 512 463 164
107 404 226 617 305 l57 21 22 -97 c12 -53 23 -98 24 -100 6 -7 212 102 293
155 206 133 376 307 478 490 20 35 39 61 42 58 3 -3 9 -55 13 -115z m-3591
-1998 c25 -12 97 -62 160 -112 133 -104 203 -144 301 -171 129 -36 168 -61
542 -354 56 -44 127 -99 157 -122 31 -23 101 -87 155 -141 55 -54 127 -119
160 -144 77 -59 253 -166 436 -264 188 -100 274 -149 444 -252 308 -187 888
-561 918 -593 21 -22 22 -43 2 -59 -40 -33 -384 -90 -791 -131 -123 -12 -303
-8 -404 10 -30 5 -167 10 -305 10 -277 1 -375 9 -577 46 -349 64 -458 49 -600
-83 -47 -45 -76 -83 -106 -142 l-42 -82 0 -134 c0 -119 -2 -134 -17 -134 -9 0
-24 -7 -34 -16 -17 -15 -23 -13 -86 31 -368 259 -670 610 -873 1014 -57 114
-79 170 -118 311 -26 94 -26 99 -30 486 -3 366 -2 397 18 495 24 116 60 229
97 303 54 108 178 206 304 241 81 22 231 16 289 -13z M3975 7461 c-72 -33
-115 -95 -115 -167 0 -34 76 -234 107 -281 26 -39 94 -73 147 -73 110 0 186
75 186 183 0 59 -84 261 -127 303 -53 54 -129 67 -198 35z"/>
</g>
</svg>
