<?xml version="1.0" standalone="no"?>
<!DOCTYPE svg PUBLIC "-//W3C//DTD SVG 20010904//EN"
 "http://www.w3.org/TR/2001/REC-SVG-20010904/DTD/svg10.dtd">
<svg version="1.0" xmlns="http://www.w3.org/2000/svg"
 width="2048.000000pt" height="2048.000000pt" viewBox="0 0 2048.000000 2048.000000"
 preserveAspectRatio="xMidYMid meet">
<metadata>
Created by potrace 1.13, written by Peter Selinger 2001-2015
</metadata>
<g transform="translate(0.000000,2048.000000) scale(0.192120,-0.192120)"
fill="#000000" stroke="none">
<path d="M5340 10319 c-350 -35 -753 -144 -1012 -275 -46 -24 -47 -24 -150 -9
-353 50 -746 -15 -1085 -180 -515 -252 -891 -710 -1033 -1259 -63 -247 -61
-157 -57 -2177 4 -1910 3 -1862 46 -2119 l18 -105 -46 -50 c-144 -154 -246
-355 -281 -552 -7 -40 -17 -73 -21 -73 -4 0 -38 7 -75 16 -165 38 -309 -52
-348 -217 -6 -26 -4 -27 52 -34 31 -4 163 -25 292 -46 l235 -39 537 0 c594 1
566 4 639 -64 52 -49 59 -89 59 -356 l0 -231 -695 3 -695 3 -5 -30 c-2 -16
-63 -502 -135 -1080 -72 -577 -133 -1065 -136 -1083 l-6 -32 3892 0 3892 0 -6
33 c-3 17 -64 505 -136 1082 -72 578 -133 1064 -135 1080 l-5 30 -695 -3 -695
-3 0 231 c0 265 7 309 57 356 72 68 47 66 640 64 l536 -1 291 48 c160 25 292
47 294 48 1 1 -4 23 -12 49 -31 102 -110 175 -213 196 -45 10 -68 9 -125 -4
-39 -9 -74 -16 -78 -16 -4 0 -13 33 -20 72 -35 199 -138 401 -281 553 -46 49
-48 52 -39 90 5 22 20 114 32 205 l23 165 0 1480 c0 1625 3 1539 -61 1834
-196 910 -805 1689 -1639 2096 -316 154 -607 242 -955 290 -139 19 -528 27
-660 14z m455 -299 c1274 -86 2301 -958 2544 -2162 21 -102 21 -117 19 -1660
-2 -856 -6 -1560 -10 -1564 -4 -4 -40 5 -80 20 -40 14 -122 37 -182 51 -60 13
-114 29 -119 34 -15 15 -2 123 32 266 17 72 35 164 41 205 15 104 9 1808 -6
1818 -6 4 -15 14 -20 23 -39 72 -167 185 -234 208 -19 7 -151 23 -294 37 -526
49 -868 116 -1264 245 -203 67 -364 134 -552 230 -307 157 -521 310 -741 529
-157 157 -213 226 -362 450 -142 216 -255 330 -326 332 -39 1 -86 -30 -153
-100 -70 -73 -109 -155 -148 -307 -74 -285 -135 -435 -243 -598 -173 -260
-356 -379 -763 -496 -39 -12 -91 -35 -115 -52 -62 -45 -188 -177 -195 -205 -3
-13 -10 -24 -15 -24 -5 0 -9 -431 -9 -1024 0 -1109 -3 -1044 56 -1301 17 -76
24 -133 22 -179 l-3 -69 -100 -22 c-85 -19 -186 -51 -257 -80 -13 -5 -20 0
-28 20 -7 17 -10 660 -10 1908 0 1849 0 1883 20 1966 72 298 206 528 437 752
225 217 499 363 814 433 174 38 297 48 539 40 l215 -7 100 36 c55 19 164 58
243 86 379 135 752 187 1147 161z m-1556 -1122 c37 -125 158 -340 292 -518
370 -491 941 -874 1649 -1107 427 -140 1000 -242 1460 -259 80 -3 155 -7 168
-10 l23 -5 -4 -822 c-4 -891 -3 -885 -63 -1137 -163 -692 -605 -1274 -1231
-1624 -242 -135 -507 -226 -809 -278 -176 -30 -589 -33 -759 -5 -568 94 -1044
339 -1430 738 -368 380 -591 831 -682 1379 -15 93 -17 213 -20 1078 l-4 972
33 0 c50 0 208 36 309 70 372 124 658 379 838 745 114 231 184 484 197 713 4
61 10 112 14 112 4 0 12 -19 19 -42z m-1184 -4410 c2 -2 -3 -31 -11 -63 -26
-99 -15 -190 35 -288 44 -88 205 -311 242 -336 3 -2 61 -57 128 -122 458 -442
1023 -704 1641 -760 160 -14 469 -7 615 15 442 66 854 234 1197 488 317 234
618 563 709 775 26 60 28 157 5 232 -9 30 -14 56 -12 58 2 2 54 6 117 10 195
10 382 -21 548 -91 85 -36 230 -127 270 -170 l24 -25 -21 -35 c-55 -93 -48
-149 44 -324 46 -88 54 -110 54 -158 0 -53 -1 -56 -32 -68 -57 -24 -175 -35
-423 -41 -267 -6 -344 -17 -442 -65 -123 -61 -246 -185 -320 -324 -34 -64 -38
-78 -38 -146 0 -60 4 -81 21 -105 12 -16 31 -49 43 -72 l21 -43 -97 0 -98 0 3
-1047 c2 -577 1 -1116 -3 -1199 l-7 -151 -68 33 c-38 19 -78 34 -89 34 -12 0
-21 5 -21 10 0 7 -597 10 -1770 10 -1173 0 -1770 -3 -1770 -10 0 -5 -8 -10
-17 -10 -9 0 -44 -15 -79 -34 l-62 -35 -7 152 c-4 84 -5 623 -3 1200 l3 1047
-98 0 c-54 0 -97 3 -95 8 2 4 20 41 41 82 27 54 37 87 37 122 0 152 -179 393
-356 478 -105 51 -171 60 -488 70 -292 8 -398 22 -418 53 -18 29 -7 85 34 162
119 229 126 259 84 351 l-26 57 22 25 c39 41 180 129 268 167 95 41 202 70
305 84 65 9 351 8 360 -1z m-1030 -1029 l190 -39 262 0 c291 0 335 -7 433 -70
74 -47 144 -137 165 -210 7 -23 5 -23 -16 6 -51 66 -125 112 -226 140 -45 12
-143 18 -448 24 -553 12 -635 27 -635 119 0 20 3 46 6 59 7 26 -11 28 269 -29z
m6879 29 c13 -49 6 -94 -17 -116 -44 -42 -238 -62 -602 -62 -261 -1 -407 -11
-488 -35 -72 -21 -153 -73 -189 -120 -24 -32 -29 -35 -23 -15 21 73 91 163
165 210 98 63 141 70 438 71 l267 0 210 44 c116 24 215 44 221 44 7 1 14 -9
18 -21z m-5794 -2007 c0 -1044 0 -1049 -20 -1044 -11 3 -20 8 -20 12 0 4 -25
18 -55 32 -30 13 -55 27 -55 32 0 4 -9 7 -20 7 -11 0 -20 5 -20 10 0 7 -193
10 -559 10 -484 0 -560 2 -571 15 -7 8 -25 15 -41 15 l-29 0 0 146 c0 121 13
249 80 787 97 770 95 762 127 810 l26 37 479 0 c416 0 479 2 484 15 4 8 15 15
25 15 10 0 19 5 19 10 0 6 7 10 15 10 8 0 15 4 15 8 0 5 10 14 23 21 12 7 37
32 56 57 18 24 35 44 37 44 2 0 4 -472 4 -1049z m4563 932 c9 -7 21 -13 27
-13 5 0 10 -4 10 -10 0 -5 20 -10 45 -10 33 0 45 -4 45 -15 0 -13 58 -15 465
-15 l465 0 19 -37 c28 -57 34 -94 126 -829 95 -762 104 -890 63 -925 -22 -17
-50 -18 -580 -19 -365 0 -558 -3 -558 -10 0 -5 -20 -10 -45 -10 -25 0 -45 -3
-45 -7 0 -5 -21 -17 -48 -27 -26 -10 -54 -24 -62 -31 -8 -7 -23 -15 -32 -18
-17 -6 -18 48 -18 1044 l0 1051 53 -54 c29 -29 61 -59 70 -65z M4128 6704
c-63 -22 -123 -75 -156 -138 -27 -51 -27 -52 -27 -261 0 -237 7 -267 79 -337
53 -52 101 -72 182 -76 90 -5 156 21 215 85 71 77 74 91 74 323 0 204 0 205
-28 262 -62 126 -208 187 -339 142z M6357 6706 c-101 -37 -167 -112 -188 -213
-17 -83 -8 -387 13 -435 25 -57 93 -123 150 -148 41 -18 65 -21 122 -18 113 6
195 59 240 157 19 42 21 63 21 256 0 208 0 210 -27 260 -31 60 -67 95 -128
125 -56 28 -151 36 -203 16z M4979 5167 c-96 -64 -84 -199 21 -241 34 -13 87
-16 330 -16 243 0 296 3 330 16 105 42 117 177 21 241 -34 23 -38 23 -351 23
-313 0 -317 0 -351 -23z M5823 4204 c-97 -48 -96 -202 1 -248 24 -11 63 -16
131 -16 68 0 107 5 131 16 98 47 98 201 0 248 -47 22 -218 22 -263 0z M475
3408 c-52 -18 -96 -59 -121 -112 -27 -58 -30 -105 -10 -145 19 -35 90 -101
147 -134 40 -23 1086 -416 1154 -433 28 -7 28 -7 23 34 -8 58 -39 95 -103 126
-30 14 -225 89 -433 167 -457 171 -539 207 -548 243 -3 14 -10 26 -15 26 -5 0
-9 9 -9 20 0 11 5 20 10 20 6 0 10 9 10 20 0 27 7 26 275 -14 233 -36 310 -38
351 -11 22 14 60 73 52 80 -9 9 -692 125 -730 124 -13 0 -36 -5 -53 -11z
M9840 3376 c-410 -71 -440 -77 -440 -89 1 -17 41 -62 67 -76 36 -18 174 -13
339 14 215 35 290 41 309 25 25 -21 19 -73 -12 -103 -38 -36 -79 -53 -559
-232 -231 -87 -435 -165 -454 -175 -60 -31 -100 -88 -100 -142 0 -17 4 -19 28
-13 66 16 1111 409 1151 432 57 33 128 99 147 134 57 111 -65 273 -202 268
-16 -1 -139 -20 -274 -43z"/>
</g>
</svg>
