<?xml version="1.0" standalone="no"?>
<!DOCTYPE svg PUBLIC "-//W3C//DTD SVG 20010904//EN"
 "http://www.w3.org/TR/2001/REC-SVG-20010904/DTD/svg10.dtd">
<svg version="1.0" xmlns="http://www.w3.org/2000/svg"
 width="2048.000000pt" height="2048.000000pt" viewBox="0 0 2048.000000 2048.000000"
 preserveAspectRatio="xMidYMid meet">
<metadata>
Created by potrace 1.13, written by Peter Selinger 2001-2015
</metadata>
<g transform="translate(0.000000,2048.000000) scale(0.192120,-0.192120)"
fill="#000000" stroke="none">
<path d="M8620 9771 l-285 -6 -46 -27 c-25 -15 -60 -44 -77 -65 -37 -44 -45
-52 -95 -95 -28 -25 -142 -216 -457 -768 -366 -640 -425 -738 -460 -762 -33
-23 -826 -706 -913 -787 -28 -25 -28 -26 -59 -8 l-30 17 -497 -286 c-273 -158
-504 -292 -514 -299 -14 -10 -103 5 -484 81 -257 52 -475 94 -485 94 -9 0 -33
-14 -52 -31 l-36 -31 -117 50 c-153 65 -414 170 -478 191 -28 10 -422 254
-905 561 -470 299 -872 548 -893 555 -27 8 -49 26 -75 60 -22 28 -60 61 -92
79 -48 27 -65 31 -130 31 -87 0 -40 22 -515 -239 -369 -202 -408 -230 -439
-323 -62 -183 70 -367 263 -367 76 0 91 7 426 193 l200 112 20 -28 c11 -15 30
-37 42 -49 12 -11 403 -263 868 -558 465 -296 845 -541 845 -546 0 -18 83 -91
131 -116 41 -20 414 -170 492 -197 22 -8 21 -21 -2 -89 l-19 -55 104 -53 c131
-67 276 -158 412 -258 59 -43 159 -114 222 -157 63 -44 117 -83 119 -88 14
-34 160 -182 403 -410 334 -311 399 -380 454 -473 115 -197 232 -535 269 -779
28 -187 21 -218 -77 -345 -56 -73 -238 -343 -238 -354 0 -2 18 -15 39 -29 l40
-26 -125 -268 c-184 -394 -178 -378 -177 -453 1 -36 -30 -382 -68 -768 -38
-387 -69 -730 -69 -762 0 -44 7 -71 28 -111 79 -152 272 -186 404 -70 69 60
75 86 113 479 20 196 55 551 79 787 l44 430 96 205 c53 112 97 208 99 214 2 6
19 3 42 -6 l39 -15 69 111 c126 204 183 270 337 391 77 60 140 117 140 125 0
15 57 66 65 58 1 -1 40 -72 85 -157 l83 -154 -21 -51 c-32 -81 -41 -114 -58
-231 -9 -60 -20 -132 -24 -160 -14 -85 -11 -336 5 -428 16 -93 54 -207 87
-264 l21 -35 -44 8 c-89 18 -227 9 -319 -21 -99 -32 -244 -102 -315 -153 -185
-132 -277 -259 -344 -477 -30 -98 -65 -264 -57 -272 2 -2 17 20 34 50 87 153
298 258 492 243 41 -3 147 -24 235 -46 160 -41 269 -52 340 -34 116 28 258
157 296 269 7 22 16 44 20 48 4 5 28 -3 55 -16 333 -169 785 -47 1114 299 122
128 168 226 206 429 12 66 15 125 12 220 -6 146 -27 225 -80 303 -29 42 -178
160 -313 248 -33 21 -66 47 -73 57 -116 154 -274 270 -452 329 -88 29 -106 32
-232 32 -76 0 -138 3 -138 6 0 3 -36 72 -80 154 -44 82 -80 151 -79 155 0 3
33 27 72 52 65 42 80 47 147 52 43 3 151 27 253 56 97 27 195 52 217 56 l40 7
0 59 0 59 377 0 376 0 396 -134 c218 -74 549 -186 737 -250 233 -79 355 -116
385 -116 147 0 259 111 259 255 0 35 -5 76 -11 92 -19 51 -62 104 -104 129
-23 13 -255 96 -516 185 -261 88 -571 194 -689 234 -118 40 -237 84 -264 99
l-49 26 -477 0 -478 0 -6 44 -7 44 -102 6 c-56 3 -179 9 -272 12 l-170 6 -23
82 c-33 118 -79 211 -124 251 -21 20 -90 60 -152 90 -125 60 -155 87 -253 235
-144 218 -375 656 -419 795 -10 29 -8 31 60 74 66 41 328 226 494 348 39 30
72 58 72 63 0 4 -20 34 -44 66 l-43 58 61 50 c205 169 804 700 822 728 12 18
225 390 474 826 l453 792 362 0 c415 0 436 3 512 73 63 58 93 124 93 207 -1
110 -53 194 -155 248 -49 26 -53 27 -260 28 -115 0 -338 -2 -495 -5z m-127
-189 c69 -47 125 -155 115 -223 -3 -21 -7 -23 -58 -21 -104 4 -178 -44 -272
-175 -30 -43 -207 -343 -393 -668 -322 -563 -426 -735 -484 -799 -14 -16 -109
-102 -211 -191 -235 -206 -368 -344 -406 -421 -23 -48 -29 -74 -32 -151 l-4
-93 -92 86 c-50 48 -152 132 -225 188 l-135 101 103 12 c169 20 220 41 346
144 48 39 95 72 106 74 26 5 442 369 510 446 78 90 103 130 486 799 188 328
356 619 375 648 174 274 181 283 208 277 14 -3 42 -18 63 -33z m-6914 -1517
c44 -81 81 -112 296 -245 121 -75 291 -200 320 -236 8 -10 792 -511 957 -613
21 -12 42 -20 48 -16 5 3 58 -21 117 -54 115 -64 309 -146 383 -162 101 -23
152 -21 269 6 62 14 115 24 117 22 2 -2 -16 -30 -39 -63 -70 -96 -127 -200
-188 -342 -58 -135 -69 -157 -69 -131 0 27 -77 175 -111 213 -23 27 -68 55
-156 96 -144 69 -247 135 -312 201 -61 63 -211 165 -600 413 -664 420 -979
609 -1035 620 -12 2 -37 11 -56 19 -34 15 -106 16 -147 3 -17 -5 -21 -1 -27
25 -13 65 18 166 70 228 33 39 103 93 117 88 4 -1 25 -34 46 -72z m4786 -1172
c76 -49 105 -80 105 -112 0 -33 -19 -52 -166 -162 -61 -46 -178 -148 -260
-226 -182 -173 -168 -162 -361 -279 -276 -167 -481 -258 -728 -324 -128 -35
-211 -38 -270 -11 -22 10 -137 87 -255 171 -118 83 -246 170 -284 193 -105 62
-129 121 -86 215 54 119 129 182 218 182 28 0 203 -30 389 -66 186 -36 376
-68 423 -71 139 -9 154 -2 657 289 425 245 414 240 498 236 60 -3 79 -8 120
-35z m-227 -765 c-14 -53 -18 -95 -15 -153 4 -79 5 -83 127 -330 135 -275 173
-340 267 -462 76 -99 138 -155 264 -238 92 -61 98 -67 150 -156 67 -117 181
-239 255 -275 44 -21 75 -27 191 -36 76 -5 163 -15 193 -21 l55 -12 3 -92 3
-92 -38 -19 c-58 -30 -116 -47 -271 -82 -152 -34 -385 -122 -531 -201 -81 -43
-175 -115 -232 -176 -31 -33 -128 -164 -168 -226 -7 -12 -49 -51 -93 -87 -94
-77 -249 -235 -334 -340 -70 -88 -119 -119 -160 -105 -15 6 -32 19 -38 29 -6
11 -19 28 -28 38 -36 37 -24 83 53 201 39 60 92 150 118 200 l46 91 4 130 c4
173 -18 307 -91 536 -59 187 -173 437 -245 538 -115 161 -368 419 -533 543
-57 43 -201 118 -303 159 -31 12 -59 26 -62 30 -2 4 57 24 133 44 245 67 472
147 597 211 147 75 397 225 565 339 69 47 128 85 131 85 4 1 -2 -32 -13 -71z
m1693 -1633 c27 -19 56 -35 64 -35 8 0 15 -4 15 -10 0 -5 18 -10 40 -10 29 0
42 -5 50 -20 6 -12 21 -20 35 -20 16 0 25 -6 25 -15 0 -9 -9 -15 -25 -15 -14
0 -28 -7 -31 -15 -4 -9 -19 -15 -35 -15 -29 0 -116 -55 -148 -93 -7 -10 -17
-17 -21 -17 -4 0 -12 51 -19 113 -12 127 -14 187 -5 187 4 0 29 -16 55 -35z
m862 -106 c23 -6 47 -14 52 -19 6 -4 53 -22 105 -40 52 -19 100 -37 105 -40 6
-4 40 -17 78 -29 37 -13 67 -27 67 -32 0 -4 7 -6 15 -3 8 4 15 1 15 -5 0 -6 3
-10 8 -9 4 2 8 0 10 -4 5 -16 -35 -7 -182 39 -61 18 -119 35 -130 38 -12 2
-21 4 -21 5 0 1 -7 3 -15 5 -28 5 -95 25 -174 50 -43 14 -96 25 -117 25 -32 0
-39 4 -39 19 0 17 7 19 91 15 50 -2 109 -9 132 -15z m-1692 -536 c-76 -74 -89
-116 -66 -206 24 -95 71 -182 136 -252 106 -113 142 -128 377 -164 113 -17
206 -62 339 -163 150 -114 155 -116 273 -125 41 -3 78 -8 81 -12 16 -15 70
-163 78 -208 14 -88 -12 -239 -55 -324 l-13 -27 -78 39 c-158 77 -294 85 -513
27 -189 -50 -190 -50 -227 -37 -47 15 -147 111 -213 203 -30 41 -55 74 -57 72
-2 -2 26 -73 61 -159 76 -184 83 -218 59 -267 -66 -129 -229 -23 -279 182 -15
61 -15 68 1 102 16 33 16 38 2 60 -9 13 -43 45 -76 72 -33 27 -60 52 -60 56
-1 4 25 29 58 55 32 26 68 64 79 83 34 58 62 177 62 260 -1 84 -29 166 -90
256 -33 49 -117 135 -129 132 -3 -1 -21 6 -40 16 -42 22 -102 17 -143 -14
l-28 -21 0 28 c1 150 295 387 487 392 l32 1 -58 -57z m-1275 -943 l111 -87
-68 -32 c-40 -19 -85 -51 -109 -77 -22 -24 -43 -43 -46 -43 -4 0 -11 -5 -15
-13 -5 -7 -9 66 -9 170 0 144 3 182 13 176 6 -4 62 -47 123 -94z m2259 -700
c62 -15 107 -20 143 -17 67 7 73 -5 38 -77 -76 -155 -325 -309 -561 -346 -83
-14 -159 -7 -314 26 -161 34 -169 31 -356 -126 -60 -51 -128 -101 -150 -111
-69 -32 -213 -21 -303 23 -24 12 -45 25 -48 30 -11 17 64 48 155 63 127 22
173 39 229 87 56 48 125 130 150 176 9 19 21 43 27 53 8 16 16 18 40 12 84
-21 135 1 263 110 61 54 79 63 115 66 23 1 92 13 152 26 61 13 121 26 135 29
51 9 198 -3 285 -24z"/>
</g>
</svg>
