<?xml version="1.0" standalone="no"?>
<!DOCTYPE svg PUBLIC "-//W3C//DTD SVG 20010904//EN"
 "http://www.w3.org/TR/2001/REC-SVG-20010904/DTD/svg10.dtd">
<svg version="1.0" xmlns="http://www.w3.org/2000/svg"
 width="2048.000000pt" height="2048.000000pt" viewBox="0 0 2048.000000 2048.000000"
 preserveAspectRatio="xMidYMid meet">
<metadata>
Created by potrace 1.13, written by Peter Selinger 2001-2015
</metadata>
<g transform="translate(0.000000,2048.000000) scale(0.192120,-0.192120)"
fill="#000000" stroke="none">
<path d="M5055 10094 c-475 -38 -895 -150 -1245 -331 -756 -391 -1232 -1099
-1291 -1921 -10 -150 -1 -408 22 -595 l12 -96 -26 -30 c-102 -121 -177 -376
-177 -601 0 -175 51 -393 122 -520 82 -147 206 -252 316 -267 l39 -5 6 -182
c10 -277 50 -506 128 -732 46 -133 98 -254 110 -254 5 0 24 14 44 31 33 29 35
35 35 93 0 43 -13 108 -44 216 -70 244 -100 418 -112 648 -4 72 -11 132 -15
132 -5 0 -9 11 -9 25 0 34 -71 118 -160 189 -187 149 -256 278 -290 539 -21
163 -5 565 27 671 3 11 18 -32 38 -110 41 -161 64 -225 111 -314 63 -120 134
-177 189 -152 34 16 50 53 80 188 63 281 203 619 343 828 129 193 292 364 445
468 l57 39 118 -94 c291 -233 528 -380 707 -438 62 -19 154 -17 192 5 64 39
96 144 75 254 -5 28 -7 52 -4 52 3 0 69 -62 146 -138 296 -289 532 -458 613
-437 40 10 57 48 50 114 -9 80 -59 235 -117 359 -27 56 -46 102 -44 102 3 0
32 -22 65 -48 262 -212 793 -344 1533 -380 l139 -7 64 -105 c100 -162 221
-378 323 -573 65 -124 105 -188 132 -212 72 -65 132 -45 191 64 37 67 76 209
106 389 l27 155 22 -134 c24 -145 30 -404 13 -496 -5 -26 -15 -82 -21 -123
-34 -214 -124 -362 -281 -462 -89 -57 -179 -159 -179 -203 0 -8 -6 -15 -14
-15 -11 0 -15 -35 -19 -167 -5 -158 -20 -277 -62 -478 -9 -43 -18 -82 -21 -86
-3 -5 -18 -52 -34 -106 -33 -108 -38 -196 -15 -227 15 -19 64 -56 76 -56 10 0
66 131 108 254 78 226 118 455 128 734 5 161 8 182 23 182 40 0 122 33 168 68
101 76 180 194 232 349 105 314 66 705 -94 941 l-36 54 10 119 c18 203 16 599
-4 714 -74 437 -270 830 -597 1195 -386 429 -949 745 -1544 865 -222 45 -338
56 -615 59 -146 2 -287 2 -315 0z m556 -254 c520 -53 935 -195 1329 -456 278
-184 542 -451 707 -717 71 -115 163 -307 196 -412 59 -183 57 -151 57 -833 0
-594 -1 -631 -18 -652 -36 -45 -74 0 -203 236 -276 508 -323 552 -609 569
-230 13 -476 42 -660 76 -215 41 -333 77 -622 188 -161 62 -222 54 -272 -35
-22 -38 -26 -60 -26 -123 -1 -64 -4 -80 -24 -104 l-23 -28 -55 43 c-31 24
-108 87 -171 140 -139 119 -217 168 -267 168 -48 0 -106 -42 -155 -112 -21
-29 -51 -63 -66 -76 -28 -23 -30 -23 -91 -8 -124 31 -308 140 -555 327 -231
176 -312 183 -493 49 -87 -64 -274 -257 -340 -351 -126 -180 -252 -423 -334
-649 -73 -199 -74 -202 -104 -198 -21 3 -28 14 -49 77 l-24 75 3 535 4 536 28
105 c132 490 448 915 897 1206 364 236 855 390 1369 427 111 8 478 6 571 -3z
M4128 6704 c-63 -22 -123 -75 -156 -138 -27 -51 -27 -52 -27 -261 0 -237 7
-267 79 -337 53 -52 101 -72 182 -76 90 -5 156 21 215 85 71 77 74 91 74 323
0 204 0 205 -28 262 -62 126 -208 187 -339 142z M6357 6706 c-99 -36 -166
-112 -188 -213 -17 -83 -8 -387 13 -435 25 -57 93 -123 150 -148 41 -18 65
-21 122 -18 113 6 195 59 240 157 19 42 21 63 21 256 0 209 0 210 -27 261 -64
122 -210 183 -331 140z M4979 5167 c-96 -64 -84 -199 21 -241 34 -13 87 -16
330 -16 243 0 296 3 330 16 105 42 117 177 21 241 -34 23 -38 23 -351 23 -313
0 -317 0 -351 -23z M2706 4489 c-483 -56 -883 -427 -966 -896 -7 -40 -16 -73
-20 -73 -4 0 -39 7 -78 16 -58 13 -80 14 -125 4 -103 -21 -184 -96 -213 -197
-9 -29 -19 -51 -22 -49 -4 2 -171 32 -372 66 -259 43 -377 60 -408 55 -113
-17 -206 -170 -159 -261 20 -38 90 -103 148 -137 56 -33 1169 -447 1201 -447
11 0 10 48 -2 92 -18 63 -69 98 -240 162 -85 32 -162 67 -170 77 -16 20 -89
52 -305 133 -192 73 -315 132 -315 150 0 19 38 16 270 -20 105 -17 182 -24
214 -20 69 8 120 44 139 98 l14 43 49 -3 c27 -2 157 -21 289 -43 l240 -39 535
0 c294 1 544 -2 555 -6 11 -4 33 -16 48 -27 16 -10 30 -17 33 -14 8 7 -63 65
-108 88 -93 47 -118 51 -468 59 -349 9 -572 23 -629 40 -63 18 -81 36 -81 83
0 81 4 85 68 75 31 -5 120 -23 197 -40 135 -31 151 -32 445 -38 284 -5 309 -7
360 -28 128 -51 221 -158 259 -299 19 -70 21 -106 21 -312 l0 -232 -695 3
-695 3 -5 -30 c-2 -16 -63 -502 -135 -1080 -72 -577 -133 -1065 -136 -1082
l-6 -33 3892 0 3892 0 -6 32 c-3 18 -64 506 -136 1083 -72 578 -133 1064 -135
1080 l-5 30 -695 -3 -695 -3 0 232 c0 206 2 242 21 312 38 141 131 248 259
299 51 21 77 23 365 29 269 5 322 9 400 28 50 12 136 30 192 40 l101 18 6 -21
c12 -44 6 -103 -11 -118 -47 -41 -187 -55 -633 -64 -336 -7 -426 -17 -513 -57
-56 -26 -117 -72 -117 -89 0 -6 8 -4 18 5 41 37 65 39 612 37 l535 -1 240 40
c132 21 261 42 286 45 l45 7 23 -50 c24 -50 45 -66 122 -90 49 -15 64 -14 234
13 151 25 186 29 239 27 24 -1 26 -3 16 -15 -10 -13 -95 -59 -110 -61 -3 -1
-18 -8 -35 -17 -16 -8 -70 -30 -120 -48 -162 -58 -285 -112 -285 -125 0 -15
-19 -23 -195 -89 -164 -62 -212 -85 -243 -118 -22 -24 -52 -131 -40 -144 9 -9
50 6 638 223 288 106 544 205 569 220 58 34 128 99 148 137 47 91 -46 244
-159 261 -31 5 -149 -12 -408 -55 -201 -34 -368 -64 -372 -66 -3 -2 -13 20
-22 49 -29 101 -110 176 -213 197 -45 10 -67 9 -125 -4 -39 -9 -74 -16 -78
-16 -4 0 -13 33 -20 73 -67 382 -363 721 -735 845 -121 41 -207 53 -411 59
l-201 6 -50 -94 c-259 -480 -701 -882 -1205 -1098 -191 -82 -371 -134 -594
-173 -175 -30 -589 -33 -759 -5 -568 94 -1044 339 -1430 738 -163 169 -293
343 -395 533 l-52 96 -156 -1 c-87 -1 -188 -5 -226 -10z m294 -286 c30 -20 26
-14 152 -188 188 -258 468 -515 759 -698 599 -374 1312 -495 2009 -340 418 92
843 308 1160 589 213 188 345 332 459 504 62 92 109 139 153 151 52 14 280 -4
380 -30 191 -49 358 -158 478 -311 60 -76 80 -124 80 -192 0 -32 -2 -58 -5
-58 -2 0 -30 -7 -62 -16 -43 -12 -135 -18 -345 -24 -316 -9 -384 -20 -500 -82
-113 -60 -227 -183 -292 -315 -31 -63 -36 -82 -35 -140 0 -53 6 -77 24 -108
13 -22 28 -50 34 -62 5 -11 15 -24 20 -28 29 -18 2 -25 -94 -25 l-105 0 0
-1200 0 -1200 -32 20 c-47 28 -99 50 -130 57 -16 3 -28 9 -28 14 0 5 -761 9
-1760 9 -1167 0 -1760 -3 -1760 -10 0 -5 -7 -10 -16 -10 -14 0 -115 -51 -141
-73 -10 -7 -13 232 -13 1192 l0 1201 -105 0 c-58 0 -105 2 -105 5 0 3 16 31
36 61 43 68 59 143 44 209 -34 152 -200 350 -355 421 -104 48 -154 55 -465 64
-297 8 -402 21 -422 53 -36 57 40 206 169 328 155 147 350 230 583 249 126 10
196 4 230 -17z m105 -3761 c-6 -6 -65 18 -65 27 0 4 -20 15 -45 26 -25 11 -45
23 -45 28 0 4 -9 7 -20 7 -11 0 -20 5 -20 10 0 7 -190 10 -549 10 -475 0 -550
2 -561 15 -7 8 -25 15 -41 15 l-29 0 0 146 c0 121 13 245 75 747 99 788 100
794 131 839 l26 37 471 3 c365 2 471 6 475 16 2 6 12 12 23 12 10 0 19 5 19
10 0 6 6 10 13 10 7 0 42 31 77 68 l65 68 3 -1044 c1 -575 0 -1047 -3 -1050z
m4578 1971 c9 -7 21 -13 27 -13 5 0 10 -4 10 -10 0 -5 20 -10 44 -10 27 0 46
-5 48 -12 4 -10 106 -14 456 -16 l451 -3 20 -33 c27 -42 36 -102 131 -863 90
-720 98 -850 58 -884 -22 -17 -50 -18 -570 -19 -359 0 -548 -3 -548 -10 0 -5
-20 -10 -44 -10 -24 0 -46 -3 -48 -7 -4 -10 -144 -83 -158 -83 -7 0 -10 334
-10 1051 l0 1050 58 -58 c32 -32 66 -64 75 -70z M5823 4204 c-97 -48 -96 -202
1 -248 24 -11 63 -16 131 -16 68 0 107 5 131 16 98 47 98 201 0 248 -47 22
-218 22 -263 0z"/>
</g>
</svg>
