<?xml version="1.0" standalone="no"?>
<!DOCTYPE svg PUBLIC "-//W3C//DTD SVG 20010904//EN"
 "http://www.w3.org/TR/2001/REC-SVG-20010904/DTD/svg10.dtd">
<svg version="1.0" xmlns="http://www.w3.org/2000/svg"
 width="2048.000000pt" height="2048.000000pt" viewBox="0 0 2048.000000 2048.000000"
 preserveAspectRatio="xMidYMid meet">
<metadata>
Created by potrace 1.13, written by Peter Selinger 2001-2015
</metadata>
<g transform="translate(0.000000,2048.000000) scale(0.192120,-0.192120)"
fill="#000000" stroke="none">
<path d="M8620 9771 l-285 -6 -47 -28 c-26 -15 -60 -44 -75 -64 -29 -37 -34
-42 -96 -95 -28 -25 -143 -217 -457 -768 -381 -665 -425 -738 -464 -765 -23
-16 -244 -205 -490 -419 l-448 -389 -32 16 -32 15 -485 -280 c-266 -154 -497
-287 -512 -297 -28 -18 -36 -16 -495 76 -257 51 -474 93 -484 93 -9 0 -32 -13
-51 -30 l-34 -29 -259 105 c-142 58 -288 115 -324 128 -46 16 -314 181 -920
566 -470 298 -874 549 -897 557 -30 11 -52 28 -76 61 -60 84 -185 130 -282
103 -22 -6 -209 -103 -415 -216 -406 -222 -442 -248 -474 -342 -62 -183 70
-367 263 -367 76 0 91 7 426 193 l200 112 20 -28 c11 -15 30 -37 42 -49 12
-11 403 -263 868 -558 465 -296 845 -541 845 -546 0 -19 84 -92 137 -118 32
-16 158 -69 281 -117 122 -48 222 -93 222 -100 0 -6 -9 -37 -19 -67 l-19 -55
104 -53 c131 -67 276 -158 412 -258 59 -43 159 -114 222 -157 63 -44 117 -83
119 -88 14 -34 160 -182 403 -410 334 -311 399 -380 454 -473 115 -197 232
-535 269 -779 28 -187 21 -218 -77 -345 -56 -73 -238 -343 -238 -354 0 -2 18
-15 39 -29 l39 -26 -143 -309 c-153 -330 -170 -374 -160 -431 3 -20 -26 -355
-65 -744 -38 -390 -70 -735 -70 -767 0 -44 7 -71 28 -111 79 -152 272 -186
404 -70 69 60 75 86 113 474 19 194 55 548 79 787 l44 435 96 205 c53 112 97
208 99 214 2 6 19 3 42 -6 l39 -15 69 111 c126 204 183 270 337 391 77 60 140
117 140 125 0 15 57 66 65 58 1 -1 40 -72 85 -157 l82 -153 -25 -67 c-33 -85
-34 -86 -52 -211 -9 -58 -20 -136 -26 -175 -7 -41 -9 -141 -6 -240 6 -196 26
-294 82 -407 l35 -70 -42 9 c-88 17 -227 7 -318 -22 -99 -32 -244 -102 -315
-153 -185 -132 -277 -259 -344 -477 -30 -98 -65 -264 -57 -272 2 -2 17 20 34
50 87 153 298 258 492 243 41 -3 147 -24 235 -46 160 -41 269 -52 340 -34 116
28 258 157 296 269 7 22 16 44 20 48 4 5 29 -3 56 -16 109 -56 187 -72 338
-71 122 1 152 4 229 28 199 60 362 160 521 320 117 118 157 178 194 296 39
126 54 236 49 375 -6 146 -27 225 -80 303 -29 42 -178 160 -313 248 -33 21
-66 47 -73 57 -116 154 -274 270 -452 329 -88 29 -106 32 -232 32 -76 0 -138
3 -138 6 0 3 -36 72 -80 154 -44 82 -80 151 -79 155 0 3 33 27 72 52 65 41 81
47 147 52 43 4 168 32 290 66 l215 59 0 56 -1 56 380 0 379 0 396 -134 c218
-74 549 -186 737 -250 233 -79 355 -116 385 -116 147 0 259 111 259 255 0 35
-5 76 -11 92 -19 50 -62 104 -104 128 -23 14 -351 130 -731 259 -379 128 -711
245 -738 260 l-49 26 -477 0 -478 0 -6 44 -7 44 -102 6 c-56 3 -179 9 -272 12
l-170 6 -23 82 c-33 118 -79 211 -124 251 -21 20 -90 60 -152 90 -125 60 -155
87 -253 235 -144 218 -375 656 -419 795 -10 29 -8 31 60 74 66 41 328 226 494
348 39 30 72 58 72 62 0 5 -18 33 -40 62 -22 30 -40 57 -40 60 0 4 26 29 58
56 250 209 801 698 818 725 12 18 225 390 474 826 l453 792 362 0 c415 0 436
3 512 73 63 58 93 124 93 207 -1 110 -53 194 -155 248 -49 26 -53 27 -260 28
-115 0 -338 -2 -495 -5z m17 -190 c51 -17 103 -31 116 -31 13 0 27 -4 33 -9 5
-5 97 -11 204 -14 188 -4 230 -9 230 -28 0 -23 -54 -33 -200 -36 -195 -5 -271
-23 -362 -89 l-48 -34 0 38 c-1 69 -55 163 -124 214 l-41 31 50 -6 c28 -3 91
-20 142 -36z m-237 -191 c0 -10 -21 -46 -47 -80 -27 -35 -60 -79 -75 -99 -15
-20 -27 -39 -28 -43 -1 -17 -711 -1247 -778 -1348 -66 -98 -95 -130 -202 -224
-415 -363 -514 -468 -550 -585 -11 -35 -20 -74 -20 -87 0 -13 -3 -24 -6 -24
-3 0 -40 30 -82 68 -42 37 -114 96 -159 130 -46 35 -83 66 -83 70 0 4 35 15
78 25 108 24 183 63 284 145 47 40 88 68 90 62 5 -13 483 406 549 481 83 96
95 115 451 737 354 619 396 687 455 743 58 55 123 70 123 29z m-6890 -1244 c0
-3 -24 -28 -54 -56 -65 -61 -104 -142 -113 -233 l-6 -65 -36 15 c-20 9 -55 17
-79 18 -24 2 -46 5 -48 8 -3 3 -57 -20 -120 -50 -120 -56 -187 -83 -210 -83
-23 0 -16 49 10 73 13 12 91 60 172 106 82 46 154 90 159 97 16 21 137 115
170 132 56 29 155 53 155 38z m163 -265 c51 -27 420 -256 819 -510 425 -270
732 -459 741 -456 8 4 61 -19 118 -49 115 -60 347 -156 394 -163 89 -12 177
-14 229 -4 33 6 61 9 63 7 2 -2 -12 -29 -32 -60 -31 -49 -123 -228 -166 -326
l-16 -34 -33 63 c-51 96 -91 129 -226 191 -172 78 -218 108 -352 222 -99 86
-218 166 -708 477 -630 400 -893 569 -910 586 -6 5 -25 21 -42 35 -46 36 -41
67 10 69 10 1 60 -21 111 -48z m4737 -951 c64 -33 80 -55 80 -112 0 -61 -14
-76 -171 -188 -57 -41 -151 -120 -209 -175 -251 -240 -225 -219 -427 -341
-276 -167 -481 -258 -728 -324 -128 -35 -211 -38 -270 -11 -22 10 -137 87
-255 171 -118 83 -246 170 -283 192 -93 56 -147 120 -147 174 0 87 66 181 147
208 81 28 162 20 520 -50 186 -36 376 -68 423 -71 140 -9 147 -5 690 307 392
226 378 218 454 235 69 16 125 11 176 -15z m-272 -802 c-14 -53 -18 -95 -15
-153 4 -79 5 -82 129 -335 70 -140 149 -289 176 -331 62 -94 172 -205 283
-284 101 -72 159 -131 199 -200 67 -117 230 -263 324 -289 68 -19 335 -39 351
-26 7 5 14 8 17 5 2 -3 36 2 74 10 38 8 72 15 75 15 8 0 25 -120 34 -237 l7
-83 -58 -1 c-106 -2 -138 -7 -215 -32 -41 -14 -113 -32 -160 -42 -195 -39
-249 -72 -285 -173 l-18 -50 -66 -16 c-196 -48 -393 -205 -447 -356 -17 -47
-17 -48 -55 -42 -57 7 -125 -16 -201 -68 -219 -153 -373 -352 -427 -552 -7
-27 -18 -48 -24 -48 -24 0 -236 163 -236 181 0 5 13 23 29 41 15 18 43 58 62
88 18 30 71 111 118 180 46 69 98 154 115 190 28 60 30 76 34 194 4 142 -6
230 -44 376 -57 218 -171 506 -253 640 -91 149 -304 379 -510 551 -93 78 -227
155 -364 209 -31 12 -59 26 -62 30 -2 4 57 24 133 44 245 67 472 147 597 211
147 75 397 225 565 339 69 47 128 85 131 85 4 1 -2 -32 -13 -71z m735 -2493
c8 -8 36 -54 62 -102 53 -97 111 -179 117 -163 1 5 28 -11 58 -36 81 -68 139
-91 265 -108 178 -23 249 -53 406 -171 100 -75 149 -106 179 -112 8 -2 53 -5
99 -6 l84 -2 33 -78 c41 -99 47 -126 46 -212 -2 -75 -21 -163 -51 -231 l-19
-42 -79 39 c-155 77 -294 85 -513 27 -189 -50 -190 -50 -227 -37 -47 15 -147
111 -213 203 -30 41 -55 74 -57 72 -2 -2 26 -73 61 -159 76 -184 83 -218 59
-267 -65 -129 -229 -22 -279 182 -15 61 -15 69 0 99 9 17 16 37 16 43 0 6 -34
43 -76 82 l-77 71 54 40 c92 68 114 97 139 181 35 116 38 208 10 285 -35 97
-74 168 -139 255 -38 49 -61 90 -61 105 0 46 71 75 103 42z m1113 -1440 c64
-14 124 -25 133 -24 37 3 41 -1 35 -28 -23 -93 -166 -220 -331 -295 -150 -68
-307 -83 -473 -47 -148 32 -194 35 -243 13 -23 -10 -99 -65 -169 -121 -161
-130 -176 -138 -259 -137 -71 1 -189 39 -189 61 0 16 71 41 155 53 38 6 91 23
117 37 44 24 147 123 193 186 74 101 61 92 135 92 73 0 99 13 189 96 58 53
105 76 182 89 35 6 102 19 149 30 122 27 235 25 376 -5z"/>
</g>
</svg>
