<?xml version="1.0" standalone="no"?>
<!DOCTYPE svg PUBLIC "-//W3C//DTD SVG 20010904//EN"
 "http://www.w3.org/TR/2001/REC-SVG-20010904/DTD/svg10.dtd">
<svg version="1.0" xmlns="http://www.w3.org/2000/svg"
 width="2048.000000pt" height="2048.000000pt" viewBox="0 0 2048.000000 2048.000000"
 preserveAspectRatio="xMidYMid meet">
<metadata>
Created by potrace 1.13, written by Peter Selinger 2001-2015
</metadata>
<g transform="translate(0.000000,2048.000000) scale(0.192120,-0.192120)"
fill="#000000" stroke="none">
<path d="M5265 10283 c-362 -31 -844 -173 -1205 -353 -497 -248 -868 -574
-1033 -908 -29 -59 -70 -129 -90 -157 -21 -27 -57 -90 -82 -140 -223 -454 -54
-999 385 -1247 66 -37 169 -77 266 -103 5 -2 88 -191 183 -421 96 -231 190
-452 211 -493 l37 -74 24 64 c32 86 32 167 0 234 -14 28 -56 100 -95 160 -85
136 -132 235 -182 389 -47 143 -78 185 -142 193 -47 6 -54 15 -116 157 l-25
56 70 45 c38 24 89 63 114 86 l44 41 88 -20 c297 -69 747 -64 1076 12 l58 14
23 -37 c88 -141 401 -650 436 -709 23 -40 45 -71 47 -68 3 2 -1 38 -7 79 -18
108 -8 294 19 378 28 88 90 179 152 225 138 101 324 94 424 -18 77 -85 95
-169 105 -508 5 -140 13 -269 18 -285 31 -100 93 -180 284 -366 l149 -146 -53
-31 c-80 -45 -102 -73 -95 -119 3 -21 9 -48 12 -60 6 -18 -9 -38 -82 -114
-176 -183 -426 -370 -640 -478 -198 -101 -448 -165 -621 -160 l-87 3 -105 -58
c-265 -147 -368 -222 -680 -489 -453 -387 -762 -730 -885 -982 -15 -30 -31
-55 -35 -55 -4 0 -71 60 -149 134 -188 179 -243 205 -431 206 -188 0 -350 -69
-490 -210 -101 -101 -150 -187 -210 -370 -84 -255 -115 -489 -107 -803 5 -221
17 -313 64 -492 75 -288 245 -602 496 -915 463 -576 1062 -920 1772 -1017 120
-16 252 -18 1670 -18 l1539 0 8 35 c334 1566 534 3126 541 4220 2 260 1 280
-21 360 -46 166 -123 300 -246 429 -121 125 -254 206 -423 258 -84 25 -102 27
-371 32 l-284 6 -68 272 -67 273 44 60 c25 33 48 58 53 55 9 -5 144 181 230
318 230 367 383 779 435 1170 33 258 13 628 -46 848 -12 44 -19 82 -17 85 3 2
33 9 67 15 71 13 183 0 290 -33 157 -48 238 -115 296 -241 51 -113 60 -158
130 -675 60 -442 180 -668 421 -794 136 -71 218 -93 349 -93 175 0 300 50 437
176 l63 58 -47 1 c-79 0 -200 28 -268 62 -91 44 -186 141 -233 238 -116 239
-109 547 24 940 27 80 56 180 64 224 17 90 19 233 5 322 -67 412 -455 783
-933 891 -111 25 -292 22 -391 -6 -209 -59 -404 -202 -528 -389 l-35 -52 -52
85 c-113 186 -317 405 -489 528 -287 206 -672 304 -1057 270z m455 -272 c338
-67 575 -217 840 -531 153 -181 237 -250 306 -250 48 0 110 38 218 135 159
141 249 196 381 230 75 19 242 20 332 0 270 -57 536 -235 659 -440 52 -85 54
-101 54 -361 0 -235 -1 -246 -26 -321 -14 -43 -39 -130 -56 -193 -30 -111 -32
-123 -36 -370 -3 -178 0 -272 8 -310 17 -75 74 -217 117 -287 19 -32 35 -69
36 -83 2 -22 -1 -25 -28 -22 -52 6 -148 59 -197 108 -28 28 -64 80 -87 128
-63 128 -88 242 -151 687 -30 214 -63 338 -120 454 -88 181 -229 304 -418 366
-85 28 -111 32 -212 33 -92 1 -122 -3 -152 -17 -58 -29 -156 -125 -186 -181
-25 -47 -27 -58 -23 -141 2 -49 5 -286 5 -525 l1 -435 -28 -108 c-72 -278
-197 -568 -344 -797 -109 -169 -134 -176 -247 -71 -53 49 -122 144 -134 184
-36 122 -41 153 -46 327 -6 219 -28 340 -81 446 -83 168 -253 269 -420 248
-152 -20 -304 -126 -395 -277 -61 -101 -91 -89 -205 83 -65 98 -148 185 -203
214 -53 27 -110 29 -287 6 -265 -33 -495 -37 -693 -11 -90 11 -190 21 -222 21
-92 0 -182 -47 -301 -156 -72 -66 -89 -71 -142 -44 -80 41 -157 135 -220 268
l-32 67 0 225 0 225 37 75 c79 157 236 413 311 504 170 209 459 423 792 586
321 157 724 282 1030 319 50 6 104 13 120 15 70 10 354 -5 445 -23z m698
-4129 c10 -129 21 -158 67 -188 13 -9 42 -18 64 -21 46 -6 51 -17 51 -113 0
-183 -142 -514 -360 -840 -258 -385 -719 -900 -1020 -1140 -227 -181 -542
-362 -825 -475 -66 -27 -124 -52 -128 -56 -5 -4 15 -15 45 -25 38 -13 80 -18
153 -17 153 1 249 37 505 186 256 149 465 320 728 595 506 527 827 988 993
1427 56 149 65 167 98 204 l30 34 128 -7 c211 -11 324 -44 448 -132 100 -71
200 -186 253 -294 l27 -55 0 -655 c0 -605 -2 -672 -23 -872 -12 -120 -22 -260
-22 -312 0 -140 -47 -522 -136 -1106 -58 -378 -88 -543 -129 -705 -18 -71 -54
-231 -79 -355 -57 -278 -69 -318 -106 -358 l-29 -32 -850 2 c-843 3 -850 3
-878 24 -41 30 -83 105 -147 266 -117 291 -169 373 -279 446 l-40 27 204 17
c224 19 451 47 689 84 202 31 680 125 680 133 0 7 -755 508 -1020 677 -279
177 -561 344 -716 425 -227 118 -316 173 -589 364 -185 129 -559 424 -779 614
-55 47 -112 97 -128 111 l-30 25 56 62 c79 87 153 143 385 293 335 216 459
321 624 530 157 197 284 312 512 462 200 132 660 346 676 315 4 -7 15 -50 24
-97 9 -47 18 -86 20 -88 6 -7 214 103 295 156 224 145 407 342 506 544 15 32
31 55 35 50 4 -4 12 -62 17 -130z m-3618 -2030 c25 -12 99 -64 165 -116 66
-53 167 -123 225 -158 129 -76 126 -74 393 -286 412 -327 518 -402 738 -527
20 -11 108 -61 195 -111 88 -50 224 -126 304 -169 150 -81 377 -216 610 -363
250 -158 625 -404 643 -423 21 -22 22 -43 2 -59 -39 -32 -348 -85 -735 -125
-206 -21 -263 -20 -361 11 -80 24 -101 26 -409 34 -314 8 -439 19 -610 55
-215 45 -351 42 -460 -12 -77 -38 -196 -160 -237 -243 -47 -96 -53 -124 -53
-226 0 -87 -2 -94 -22 -105 -13 -7 -27 -18 -31 -26 -7 -11 -19 -6 -60 23 -362
260 -657 606 -857 1003 -57 114 -79 170 -118 311 -26 94 -26 99 -30 486 -3
366 -2 397 18 495 24 116 60 229 97 303 54 108 178 206 304 241 80 22 231 16
289 -13z m1113 -2452 c83 -16 181 -35 217 -41 37 -7 224 -14 429 -18 l363 -6
48 -140 c91 -271 229 -615 312 -779 16 -32 27 -61 24 -64 -3 -3 -47 14 -98 38
-191 89 -170 85 -473 84 -291 -1 -314 -4 -423 -56 l-62 -30 -87 27 c-251 78
-511 238 -639 394 -30 36 -72 99 -92 140 -34 69 -37 82 -37 160 1 102 25 175
82 241 77 89 176 101 436 50z M4746 3910 c-87 -45 -252 -154 -375 -247 -47
-35 -114 -78 -150 -96 -61 -30 -73 -32 -166 -32 -113 0 -140 10 -250 93 -112
84 -276 143 -399 141 l-61 0 126 -63 c69 -35 161 -86 205 -114 230 -148 326
-191 422 -192 28 0 52 -4 52 -8 0 -5 10 -8 22 -8 27 1 36 -25 37 -109 1 -60
32 -145 56 -152 6 -2 19 20 30 49 28 80 83 196 123 263 61 101 120 173 252
301 122 119 181 196 161 208 -5 4 -44 -12 -85 -34z M3975 7461 c-72 -33 -115
-95 -115 -167 0 -37 80 -241 112 -287 60 -84 206 -90 280 -11 63 68 64 131 1
283 -52 127 -89 173 -150 190 -53 15 -82 13 -128 -8z M4020 6384 c-101 -38
-141 -96 -108 -157 17 -33 39 -46 75 -47 47 0 160 48 183 77 30 38 26 88 -9
124 -35 35 -56 36 -141 3z M4061 6143 c1 -15 114 -194 164 -260 67 -89 196
-223 272 -285 l62 -49 48 32 c73 50 198 175 243 244 22 33 51 89 65 122 24 61
47 143 39 143 -3 0 -96 -39 -207 -86 -232 -99 -443 -184 -456 -184 -5 0 -8 49
-7 109 1 141 -7 155 -120 193 -84 28 -104 32 -103 21z M4645 5506 c34 -22 175
-76 198 -76 4 0 7 13 7 30 0 47 -34 62 -148 67 l-97 4 40 -25z"/>
</g>
</svg>
