<?xml version="1.0" standalone="no"?>
<!DOCTYPE svg PUBLIC "-//W3C//DTD SVG 20010904//EN"
 "http://www.w3.org/TR/2001/REC-SVG-20010904/DTD/svg10.dtd">
<svg version="1.0" xmlns="http://www.w3.org/2000/svg"
 width="2048.000000pt" height="2048.000000pt" viewBox="0 0 2048.000000 2048.000000"
 preserveAspectRatio="xMidYMid meet">
<metadata>
Created by potrace 1.13, written by Peter Selinger 2001-2015
</metadata>
<g transform="translate(0.000000,2048.000000) scale(0.192120,-0.192120)"
fill="#000000" stroke="none">
<path d="M5210 10284 c-14 -2 -65 -9 -115 -15 -176 -22 -502 -115 -705 -202
-284 -121 -549 -296 -737 -485 -102 -103 -170 -196 -227 -312 -23 -47 -59
-108 -79 -136 -144 -200 -170 -497 -64 -736 83 -187 254 -339 460 -409 l80
-26 123 -299 c68 -165 145 -345 170 -401 44 -97 45 -103 30 -125 -21 -30 -20
-81 2 -101 10 -10 34 -17 53 -17 31 0 37 -5 63 -53 123 -222 296 -407 456
-487 193 -98 410 -106 626 -25 l64 24 9 -37 c6 -20 21 -94 35 -164 14 -69 32
-143 41 -165 39 -93 132 -143 270 -146 68 -2 89 2 135 24 148 70 306 263 365
447 9 28 18 52 19 52 2 0 17 -22 34 -49 44 -67 102 -117 154 -132 24 -7 50
-18 59 -26 8 -7 27 -13 40 -13 46 0 173 -41 250 -81 90 -47 187 -125 249 -200
25 -29 135 -144 245 -254 182 -181 930 -959 1167 -1213 128 -137 168 -215 168
-328 -1 -139 -68 -253 -233 -392 -118 -100 -436 -334 -782 -577 -180 -126
-326 -236 -365 -275 -96 -95 -129 -180 -100 -254 9 -25 5 -30 -63 -80 -39 -29
-191 -135 -337 -234 -146 -100 -276 -191 -290 -201 l-25 -20 71 -33 c53 -24
69 -37 65 -48 -14 -36 -87 -134 -186 -249 l-107 -123 426 286 c235 158 432
289 440 292 10 4 -2 -42 -35 -138 l-49 -143 0 -677 c0 -596 -2 -678 -15 -678
-11 0 -15 -11 -15 -40 0 -33 -3 -40 -20 -40 -11 0 -20 -7 -20 -15 0 -13 -181
-15 -1477 -17 l-1478 -3 -55 -31 c-30 -17 -69 -39 -86 -49 l-32 -19 -56 48
c-71 60 -188 188 -260 284 -575 761 -547 1828 66 2557 331 394 773 641 1288
721 133 20 431 21 548 1 l82 -14 0 133 0 132 -42 6 c-92 12 -436 18 -503 8
-38 -5 -72 -8 -74 -6 -2 2 -8 45 -14 96 -18 165 19 371 95 523 156 310 453
510 801 541 l78 7 -3 136 -3 136 -75 -3 c-112 -5 -262 -38 -374 -83 -54 -21
-100 -39 -102 -39 -2 0 -4 29 -4 65 0 75 10 70 -120 55 -298 -36 -534 -145
-749 -345 -52 -49 -54 -49 -47 -20 4 16 28 86 52 155 128 356 140 379 299 574
31 37 65 86 75 107 22 42 26 109 9 157 l-11 31 -47 -24 c-204 -103 -385 -339
-447 -582 -22 -88 -24 -115 -24 -326 l0 -230 -39 -61 c-96 -153 -160 -324
-188 -500 -26 -172 -8 -394 45 -551 l19 -56 -66 -36 c-240 -132 -478 -330
-661 -547 -219 -261 -405 -638 -479 -971 -53 -239 -70 -556 -42 -777 63 -503
283 -971 620 -1320 l84 -88 1831 0 1831 0 0 1201 0 1202 25 16 c89 58 636 444
840 592 291 212 444 333 523 413 227 230 267 492 114 730 -27 41 -322 357
-816 873 -426 444 -806 838 -844 876 -118 114 -251 192 -409 238 -58 17 -108
23 -250 26 l-178 5 0 34 c0 19 -27 142 -61 274 l-61 240 33 45 c18 25 37 45
42 45 13 0 23 13 131 175 205 305 330 608 387 930 18 103 23 169 23 315 1 189
-9 280 -45 424 -11 43 -17 81 -14 85 4 3 55 6 113 6 174 0 311 -57 378 -156
55 -83 77 -175 119 -499 48 -366 103 -521 230 -644 51 -50 173 -116 260 -142
83 -23 202 -22 286 5 81 26 239 133 239 163 0 4 -22 8 -48 8 -162 0 -314 96
-383 244 -86 184 -79 419 21 731 27 83 54 190 61 238 39 282 -111 576 -390
761 -208 139 -470 199 -656 151 -170 -44 -343 -172 -436 -321 l-22 -36 -40 64
c-104 166 -276 348 -415 441 -156 105 -341 172 -537 196 -85 10 -229 13 -285
5z m331 -330 c228 -39 389 -130 568 -318 213 -225 287 -285 364 -293 56 -7
107 17 217 102 196 151 271 185 409 185 194 0 423 -111 534 -257 l42 -56 3
-214 c3 -210 2 -217 -24 -296 -43 -134 -72 -160 -95 -89 -33 100 -103 259
-136 309 -60 91 -190 214 -271 256 -139 73 -319 98 -411 57 -55 -25 -208 -178
-244 -244 l-27 -49 0 -403 c0 -441 -2 -464 -62 -644 -82 -250 -198 -460 -254
-460 -34 0 -70 39 -84 91 -7 24 -17 55 -22 69 -6 14 -14 90 -18 170 -10 178
-22 241 -64 334 -85 187 -277 308 -439 278 -85 -16 -169 -60 -250 -132 -46
-40 -77 -60 -94 -60 -19 0 -50 23 -117 88 -58 56 -112 99 -149 117 -56 27 -62
28 -160 22 -56 -4 -145 -11 -197 -17 -141 -14 -276 -12 -455 6 -190 20 -224
14 -341 -61 -39 -24 -84 -47 -100 -50 -43 -8 -85 23 -122 92 l-32 61 0 167 c0
160 1 169 27 223 44 93 169 292 225 356 160 186 446 376 745 495 191 76 489
156 643 174 95 11 304 6 391 -9z m-1382 -1683 c127 -14 253 -14 396 -1 98 9
255 32 310 46 17 4 48 -41 210 -306 220 -361 219 -358 211 -311 -46 267 21
469 179 546 91 45 211 33 277 -28 67 -62 87 -148 94 -397 3 -102 10 -207 15
-235 14 -71 65 -142 202 -282 l119 -122 -88 -43 c-79 -38 -92 -48 -112 -88
-21 -39 -23 -55 -19 -125 2 -44 21 -147 42 -230 48 -193 51 -271 13 -337 -36
-60 -100 -122 -153 -148 -45 -22 -124 -27 -156 -10 -23 13 -62 87 -79 150 -20
75 -66 155 -121 208 -90 88 -116 93 -317 67 -183 -24 -229 -7 -218 82 15 117
18 185 8 195 -6 6 -12 0 -16 -19 -14 -54 -70 -153 -117 -206 l-48 -52 -46 52
c-25 29 -68 64 -96 79 -27 15 -46 31 -41 36 4 4 68 34 142 66 74 32 148 66
165 74 l30 16 -49 7 c-31 5 -73 3 -110 -5 -82 -17 -152 -23 -180 -16 -13 3
-51 26 -84 51 -34 25 -85 54 -114 64 l-53 18 3 42 c3 34 -1 48 -19 67 -12 13
-31 24 -42 24 -15 0 -18 5 -13 23 15 54 18 107 6 141 -6 20 -50 87 -96 149
-97 129 -138 207 -189 362 -48 150 -64 167 -158 175 l-60 5 -28 62 -28 62 67
45 c37 24 77 55 90 69 l23 24 73 -17 c40 -10 119 -23 175 -29z m1076 -2732
c44 -12 55 -23 55 -55 0 -33 -127 -142 -174 -149 l-36 -6 0 39 c0 67 -23 62
-104 -21 -167 -172 -280 -399 -321 -647 -14 -80 -16 -135 -12 -249 4 -80 9
-158 13 -172 6 -25 3 -27 -48 -39 -29 -7 -84 -24 -122 -37 -39 -13 -74 -19
-78 -15 -5 5 -18 54 -30 108 -17 82 -19 122 -15 239 6 159 25 240 86 371 74
158 195 301 330 393 63 43 238 131 260 131 6 0 11 9 11 20 0 11 -4 20 -10 20
-15 0 -12 36 4 49 31 26 132 36 191 20z m-438 -1316 c-3 -10 -5 -4 -5 12 0 17
2 24 5 18 2 -7 2 -21 0 -30z m33 10 c0 -19 -3 -24 -10 -17 -6 6 -8 18 -4 27 9
24 14 21 14 -10z M4190 8042 c-57 -25 -92 -76 -92 -134 0 -40 48 -170 83 -226
18 -29 81 -62 119 -62 71 0 150 78 150 149 0 24 -62 181 -86 219 -32 50 -121
77 -174 54z M6547 5031 c-37 -56 -67 -105 -67 -110 0 -5 119 -126 265 -268
146 -141 264 -263 263 -270 -2 -7 -95 -106 -208 -220 -415 -420 -1281 -1315
-1277 -1319 1 -2 47 13 102 31 55 19 109 35 121 35 23 0 44 -21 62 -62 6 -16
15 -28 20 -28 6 0 1073 1031 1440 1393 l133 131 -394 394 -393 393 -67 -100z
M5395 2765 c-155 -35 -333 -121 -393 -189 -56 -63 -53 -139 6 -173 l28 -16
-50 -26 c-103 -54 -149 -163 -148 -356 0 -111 3 -129 37 -235 80 -246 198
-419 330 -481 54 -26 71 -29 162 -29 165 0 298 33 468 115 252 121 456 331
533 547 21 62 25 90 25 183 0 135 -14 207 -63 310 -87 185 -195 254 -530 336
-116 28 -313 35 -405 14z m281 -97 c27 -17 85 -48 129 -68 44 -21 114 -54 155
-73 134 -62 201 -142 261 -307 19 -51 24 -84 23 -155 -1 -138 -42 -214 -198
-371 -146 -146 -305 -239 -506 -294 -105 -29 -274 -34 -330 -9 l-35 16 60 7
c158 20 359 93 498 180 129 80 263 219 321 333 15 30 15 34 -12 92 -15 33 -29
60 -32 60 -3 0 -25 -27 -50 -60 -64 -86 -222 -236 -311 -295 -136 -91 -325
-155 -501 -169 l-88 -7 0 51 c0 68 -20 113 -78 175 l-47 51 101 11 c205 24
339 75 480 182 93 70 208 188 260 266 l36 55 -44 55 c-23 30 -46 55 -49 55 -3
1 -19 -18 -36 -41 -38 -52 -162 -175 -223 -221 -154 -115 -365 -197 -510 -197
-48 0 -49 -5 35 126 84 129 99 162 99 225 l1 57 75 37 c41 20 130 75 198 122
132 91 224 143 251 143 9 0 39 -14 67 -32z"/>
</g>
</svg>
