<?xml version="1.0" standalone="no"?>
<!DOCTYPE svg PUBLIC "-//W3C//DTD SVG 20010904//EN"
 "http://www.w3.org/TR/2001/REC-SVG-20010904/DTD/svg10.dtd">
<svg version="1.0" xmlns="http://www.w3.org/2000/svg"
 width="2048.000000pt" height="2048.000000pt" viewBox="0 0 2048.000000 2048.000000"
 preserveAspectRatio="xMidYMid meet">
<metadata>
Created by potrace 1.13, written by Peter Selinger 2001-2015
</metadata>
<g transform="translate(0.000000,2048.000000) scale(0.192120,-0.192120)"
fill="#000000" stroke="none">
<path d="M6455 10323 c-309 -43 -597 -247 -735 -523 -244 -486 -53 -1067 431
-1311 469 -235 1053 -46 1293 421 111 216 139 435 85 668 -88 381 -394 669
-784 738 -74 13 -220 16 -290 7z m330 -313 c199 -51 364 -175 445 -335 l35
-69 0 -245 c0 -278 1 -274 -91 -413 -78 -117 -185 -191 -403 -277 -179 -72
-287 -76 -461 -17 -163 55 -272 143 -349 279 -95 169 -96 173 -96 428 l0 226
39 76 c104 205 305 333 576 367 86 11 218 2 305 -20z M5910 10239 c-390 -80
-762 -221 -1125 -427 -140 -79 -415 -267 -551 -376 -131 -105 -379 -335 -370
-343 2 -3 53 10 113 27 183 53 317 72 533 77 346 9 599 -45 923 -195 54 -25
87 -36 87 -28 0 44 -155 215 -220 243 -162 70 -361 115 -609 137 -82 8 -154
17 -160 21 -16 9 -13 47 5 73 47 68 513 333 739 422 33 13 62 27 65 30 3 4 49
26 103 50 54 23 157 78 230 123 72 44 177 102 231 128 97 48 99 57 6 38z
M5034 8879 c-416 -26 -880 -181 -1279 -428 -228 -141 -498 -377 -673 -589
-381 -463 -604 -1050 -663 -1747 -15 -183 -15 -1210 0 -1535 42 -869 147
-1349 336 -1533 61 -60 97 -72 205 -71 153 1 322 44 655 165 94 34 267 94 385
134 l215 72 3 76 3 75 -48 33 c-174 118 -382 318 -517 499 -313 420 -496 930
-546 1525 -9 108 -8 149 4 231 38 253 125 378 441 629 101 81 250 218 453 420
l303 300 42 -24 c221 -126 553 -276 787 -356 285 -97 462 -131 760 -145 113
-5 246 -16 295 -25 504 -88 860 -329 999 -679 58 -144 67 -248 41 -471 -66
-561 -255 -1042 -573 -1455 -91 -118 -289 -311 -404 -395 l-97 -70 -1 -85 0
-85 228 -78 c849 -293 846 -292 1050 -291 l122 0 0 -73 0 -73 -700 0 -699 0
-20 -44 c-50 -115 -180 -264 -300 -345 -90 -61 -216 -118 -329 -149 -89 -24
-113 -26 -302 -26 -225 -1 -292 10 -457 74 -197 76 -392 241 -496 421 -15 25
-27 50 -27 55 0 5 27 22 60 38 33 15 62 37 65 47 4 11 11 17 16 14 5 -4 9 44
9 117 0 189 -42 284 -137 313 l-23 6 0 -260 0 -261 -690 0 c-580 0 -698 2
-747 15 -44 12 -120 15 -333 15 l-275 0 -285 61 c-157 33 -310 60 -341 61
-117 0 -222 -78 -257 -192 -9 -31 -22 -55 -27 -54 -6 2 -172 31 -369 64 -245
42 -371 59 -397 55 -48 -8 -109 -52 -138 -98 -30 -48 -38 -125 -18 -163 20
-38 90 -103 148 -137 25 -15 333 -123 686 -242 l642 -215 91 0 90 0 -2 -835
-3 -835 3335 0 3335 0 -3 1355 -2 1355 100 0 100 0 643 216 c353 118 662 227
687 241 25 15 66 47 92 71 l48 45 0 90 0 90 -43 42 c-77 78 -79 78 -476 10
-456 -78 -408 -74 -416 -33 -17 78 -87 164 -159 193 -74 31 -101 28 -421 -39
l-310 -65 -293 -3 -294 -3 6 60 c23 220 35 1858 15 2120 -59 800 -329 1443
-817 1947 -143 147 -359 328 -393 328 -17 0 -42 -90 -37 -134 9 -77 44 -125
237 -321 269 -274 403 -462 536 -753 93 -203 154 -401 205 -667 19 -96 20
-151 20 -1288 0 -867 -3 -1201 -12 -1234 -8 -34 -26 -61 -67 -103 -65 -67
-134 -191 -161 -288 -10 -37 -21 -113 -25 -170 -5 -74 -11 -105 -21 -109 -8
-3 -18 -22 -24 -43 l-10 -38 -78 15 c-117 21 -233 56 -497 150 -249 88 -325
120 -325 133 0 5 -3 15 -6 23 -4 10 31 54 101 129 170 180 272 313 382 502
195 333 323 687 389 1073 20 123 24 177 24 361 0 254 -7 291 -94 467 -103 210
-273 380 -500 501 -254 135 -492 194 -861 214 -298 16 -461 48 -744 145 -199
68 -237 84 -520 217 -234 111 -284 127 -354 114 -66 -12 -162 -91 -406 -328
-135 -132 -286 -273 -335 -315 -303 -252 -378 -329 -455 -467 -28 -51 -63
-128 -76 -171 -24 -75 -25 -88 -25 -354 0 -348 19 -472 120 -799 137 -444 367
-841 665 -1151 67 -69 115 -127 115 -138 0 -36 -15 -44 -235 -125 -314 -115
-507 -172 -627 -184 -57 -6 -73 -3 -112 15 -108 53 -184 284 -248 751 -22 161
-22 191 -26 1229 -2 929 -1 1078 13 1170 24 159 43 316 51 406 4 44 16 105 29
135 47 119 343 593 462 741 166 208 426 433 666 578 58 34 108 69 111 76 15
41 268 163 474 229 318 103 595 137 932 116 l201 -12 37 29 c40 32 67 72 77
114 6 25 4 27 -57 42 -157 39 -407 58 -604 46z m2864 -5046 c14 -63 0 -91 -58
-120 l-45 -22 538 -1 539 0 176 29 c98 16 198 32 223 35 l47 5 33 -51 c48 -74
86 -93 179 -91 41 0 122 8 180 17 162 23 219 29 246 22 35 -9 22 -24 -55 -58
-143 -66 -904 -331 -1055 -369 -145 -36 -168 -53 -188 -137 l-13 -52 -549 0
-548 0 6 73 c3 39 8 142 11 227 10 245 32 322 126 424 45 50 151 116 184 116
6 0 17 -21 23 -47z m502 -983 c0 -13 7 -20 20 -20 20 0 20 -7 20 -1130 0
-1123 0 -1130 -20 -1130 -11 0 -20 -7 -20 -15 0 -13 -40 -15 -300 -15 -193 0
-300 -4 -300 -10 0 -5 -20 -10 -44 -10 -24 0 -46 -3 -48 -7 -1 -5 -34 -23 -71
-42 -57 -28 -70 -32 -78 -20 -12 19 -12 2270 0 2302 7 18 20 26 48 31 34 6
184 74 190 86 2 3 138 4 303 2 291 -2 300 -3 300 -22z m-5380 -164 c77 -102
84 -135 88 -433 l3 -263 -414 0 c-227 0 -475 3 -549 6 l-136 7 -5 39 c-7 54
-48 103 -99 121 -24 8 -188 62 -365 121 -346 114 -689 239 -771 280 -65 33
-62 56 6 51 82 -7 154 -15 267 -31 174 -26 239 -6 290 89 31 55 -3 54 290 6
177 -30 188 -30 650 -36 259 -3 513 -3 566 1 93 7 96 8 92 31 -6 28 13 65 32
65 8 0 33 -24 55 -54z m4250 -1105 l0 -1149 -69 34 c-38 19 -79 34 -90 34 -12
0 -21 5 -21 10 0 7 -597 10 -1770 10 -1173 0 -1770 -3 -1770 -10 0 -5 -6 -10
-13 -10 -7 0 -43 -15 -80 -34 l-67 -35 0 785 0 784 -136 0 -137 0 37 43 c20
23 44 58 54 77 9 19 21 38 25 41 5 4 11 73 13 155 6 204 12 254 30 254 8 0 14
9 14 21 0 20 2 20 403 17 471 -4 437 4 577 -128 187 -177 319 -251 549 -309
275 -69 560 -64 815 16 181 56 309 135 466 288 158 155 157 154 638 155 228 0
352 4 352 10 0 6 11 10 24 10 13 0 29 7 36 15 7 8 18 15 24 15 6 0 27 11 46
25 19 13 38 24 43 25 4 0 7 -517 7 -1149z m-4161 -376 c0 -407 -3 -748 -7
-757 -6 -15 -14 -13 -62 17 -30 19 -61 35 -67 35 -7 0 -13 5 -13 10 0 6 -9 10
-20 10 -11 0 -20 5 -20 10 0 6 -107 10 -300 10 -260 0 -300 2 -300 15 0 11
-11 15 -40 15 l-40 0 0 610 0 610 40 0 c36 0 40 3 40 25 l0 25 300 0 c193 0
300 4 300 10 0 6 9 10 20 10 11 0 20 5 20 10 0 6 5 10 10 10 6 0 25 13 43 29
73 66 81 71 89 53 4 -9 7 -350 7 -757z M1410 8229 c-376 -79 -659 -360 -751
-746 -18 -75 -20 -109 -16 -233 3 -91 11 -167 21 -205 98 -353 355 -613 698
-707 72 -20 107 -23 258 -23 l175 0 110 38 c295 101 512 311 614 593 259 716
-365 1438 -1109 1283z m358 -285 c156 -32 271 -93 382 -204 53 -52 86 -96 110
-145 l35 -70 3 -244 c3 -270 3 -272 -64 -376 -50 -79 -97 -129 -168 -180 -163
-115 -359 -174 -537 -162 -251 18 -485 170 -590 381 l-44 89 -3 196 c-4 217 1
248 54 359 42 87 147 199 241 256 72 43 202 93 276 105 85 14 223 12 305 -5z
M8210 7851 c0 -6 4 -12 10 -16 17 -10 139 -202 189 -298 106 -199 184 -441
215 -666 29 -203 17 -488 -28 -701 -8 -36 -13 -66 -11 -68 3 -4 120 196 159
273 l31 60 0 255 c0 273 3 250 -64 530 -24 97 -24 100 -12 119 8 12 20 7 65
-28 31 -23 60 -40 65 -37 10 7 37 -13 182 -135 102 -87 227 -210 504 -500 50
-52 147 -145 217 -207 70 -62 164 -152 209 -200 l82 -87 -53 100 c-323 607
-934 1190 -1626 1552 -126 66 -134 69 -134 54z M532 7030 c-151 -687 -80
-1488 195 -2210 56 -147 73 -180 73 -144 1 42 30 235 50 327 34 157 85 301
165 462 139 284 320 505 577 705 32 24 56 45 54 47 -1 2 -55 -13 -118 -32
-208 -63 -298 -114 -387 -221 -23 -27 -56 -67 -75 -89 -50 -61 -99 -140 -178
-292 -91 -175 -104 -195 -132 -191 -30 4 -61 98 -91 277 -41 248 -46 306 -55
641 -5 207 -14 368 -24 443 -10 64 -20 177 -24 250 l-7 132 -23 -105z M9168
6330 c-190 -34 -363 -121 -503 -251 -130 -122 -216 -263 -272 -444 -25 -83
-27 -103 -27 -265 0 -163 2 -181 28 -265 104 -340 355 -584 696 -677 122 -33
356 -33 480 0 445 119 747 526 727 982 -12 294 -149 560 -377 732 -85 65 -245
143 -345 169 -89 24 -323 35 -407 19z m377 -264 c163 -44 302 -143 394 -282
86 -128 91 -151 91 -405 0 -258 -8 -295 -93 -417 -135 -196 -347 -303 -602
-303 -142 -1 -233 20 -360 81 -129 62 -220 144 -288 258 -74 126 -79 150 -75
401 l3 216 38 74 c114 222 253 329 502 387 80 18 308 13 390 -10z M4262 5899
c-46 -14 -118 -88 -131 -135 -6 -22 -11 -104 -11 -184 0 -120 4 -152 19 -185
66 -143 261 -169 360 -48 44 54 53 102 49 264 -3 136 -4 147 -31 191 -49 84
-160 126 -255 97z M5975 5899 c-52 -20 -92 -57 -119 -111 -24 -48 -26 -61 -26
-191 0 -77 5 -157 11 -178 48 -157 257 -200 366 -76 48 55 55 93 51 268 -3
150 -4 157 -31 197 -40 61 -94 93 -164 98 -32 2 -71 -1 -88 -7z M4904 4826
c-30 -30 -34 -40 -34 -85 0 -57 20 -105 49 -121 12 -6 118 -10 271 -10 153 0
259 4 271 10 29 16 49 64 49 121 0 45 -4 55 -34 85 l-34 34 -252 0 -252 0 -34
-34z M4610 4348 c-39 -11 -85 -50 -106 -90 -19 -36 -18 -112 2 -154 34 -71
205 -177 359 -223 115 -33 210 -44 360 -39 172 6 270 29 411 98 201 98 273
204 214 320 -30 59 -82 90 -151 90 -52 0 -63 -5 -138 -54 -99 -66 -176 -93
-306 -108 -171 -19 -350 23 -465 111 -45 35 -101 61 -130 60 -8 -1 -31 -5 -50
-11z M5975 3410 c-162 -82 -292 -130 -438 -160 -394 -83 -783 -29 -1161 161
-76 38 -141 68 -143 66 -8 -9 141 -158 205 -205 182 -135 349 -192 620 -213
339 -26 625 36 842 182 103 70 233 198 228 225 -3 17 -21 10 -153 -56z M6104
3321 c-73 -44 -114 -153 -114 -300 0 -61 4 -101 10 -101 6 0 10 -7 10 -16 0
-8 5 -12 10 -9 6 3 10 1 10 -5 0 -11 95 -60 118 -60 9 0 12 58 12 255 0 277 1
271 -56 236z"/>
</g>
</svg>
