<?xml version="1.0" standalone="no"?>
<!DOCTYPE svg PUBLIC "-//W3C//DTD SVG 20010904//EN"
 "http://www.w3.org/TR/2001/REC-SVG-20010904/DTD/svg10.dtd">
<svg version="1.0" xmlns="http://www.w3.org/2000/svg"
 width="2048.000000pt" height="2048.000000pt" viewBox="0 0 2048.000000 2048.000000"
 preserveAspectRatio="xMidYMid meet">
<metadata>
Created by potrace 1.13, written by Peter Selinger 2001-2015
</metadata>
<g transform="translate(0.000000,2048.000000) scale(0.192120,-0.192120)"
fill="#000000" stroke="none">
<path d="M8894 10251 c-425 -100 -678 -508 -578 -931 21 -86 92 -233 144 -295
68 -81 159 -152 255 -199 113 -56 183 -75 311 -83 86 -5 104 -9 128 -29 l27
-24 -25 -228 c-14 -125 -51 -472 -82 -772 -31 -300 -58 -547 -60 -548 -1 -2
-45 5 -96 17 -361 81 -825 141 -1098 141 -178 0 -283 14 -465 60 -82 21 -185
43 -228 49 -101 14 -271 14 -378 0 -101 -13 -345 -81 -393 -110 -20 -11 -41
-19 -47 -17 -6 2 -28 73 -50 158 -22 85 -49 184 -59 219 -11 35 -20 67 -20 71
0 4 45 59 101 121 55 63 108 127 117 142 11 18 49 45 106 75 121 64 184 123
225 210 49 107 64 195 59 348 l-4 131 -52 109 c-39 83 -52 121 -52 156 0 132
-58 328 -136 462 -53 90 -163 210 -251 272 -181 130 -423 194 -683 180 -282
-14 -493 -98 -675 -268 -102 -95 -242 -309 -260 -395 -1 -10 -13 -43 -25 -73
-71 -178 -94 -362 -69 -560 24 -194 70 -362 139 -507 74 -155 171 -288 269
-369 30 -25 60 -55 65 -66 10 -19 85 -87 159 -143 l26 -20 -21 -160 c-11 -88
-22 -162 -24 -164 -2 -2 -72 3 -156 12 -84 9 -191 19 -238 22 -120 8 -380 -11
-472 -34 -220 -57 -598 -225 -1083 -480 -500 -265 -557 -292 -652 -311 -32 -7
-179 -41 -328 -77 -538 -128 -796 -179 -829 -161 -12 6 -67 55 -122 108 -118
113 -181 159 -228 167 -32 5 -40 -1 -135 -91 -81 -78 -105 -96 -123 -91 -13 3
-73 9 -135 15 -199 17 -263 -8 -315 -124 -21 -46 -23 -65 -23 -206 0 -119 5
-171 19 -225 55 -207 163 -345 270 -345 23 0 129 20 236 44 448 102 575 121
1040 156 673 50 871 72 1020 110 180 46 954 305 1107 371 l44 19 -18 31 c-22
39 -67 73 -114 88 -33 11 -51 7 -185 -35 -82 -26 -223 -68 -314 -95 -608 -180
-663 -193 -857 -209 -65 -5 -266 -21 -448 -35 -696 -53 -745 -59 -1155 -146
-129 -28 -256 -51 -282 -51 -59 -2 -89 18 -119 79 -22 43 -24 61 -24 183 l0
135 48 3 c38 2 47 7 47 21 0 16 11 19 93 23 87 3 100 7 195 53 56 26 114 48
130 48 33 0 113 -49 197 -122 144 -124 215 -130 535 -45 74 20 171 46 215 59
44 13 202 53 350 89 149 35 293 72 320 81 87 29 242 104 500 240 272 144 547
283 665 335 41 19 80 39 85 45 6 6 73 37 150 69 88 37 189 89 270 141 134 84
176 108 221 125 l26 10 -25 -42 c-255 -437 -453 -963 -532 -1414 -38 -221 -4
-374 180 -784 170 -382 251 -610 306 -869 l33 -149 31 -6 c29 -6 124 -52 417
-204 201 -104 271 -104 490 -1 164 78 195 80 323 19 115 -54 210 -87 277 -95
78 -10 176 25 446 160 127 63 237 115 244 115 7 -1 24 -24 38 -53 15 -31 37
-58 55 -69 18 -9 85 -23 164 -32 215 -26 421 -86 656 -191 158 -71 324 -127
465 -158 91 -19 130 -20 993 -24 l897 -4 0 -1425 0 -1424 -4760 0 -4760 0 0
1425 0 1425 1124 0 c692 0 1174 4 1253 10 300 25 494 75 768 198 223 100 430
158 617 173 92 7 142 16 163 28 32 18 62 70 67 116 3 27 -1 30 -57 48 -45 15
-89 20 -175 20 -131 1 -211 -16 -406 -83 -470 -164 -543 -185 -741 -220 -216
-37 -380 -41 -1636 -38 l-1207 3 0 -1667 0 -1668 5000 0 5000 0 0 1668 0 1667
-962 -3 c-681 -2 -991 0 -1058 8 -136 17 -274 55 -630 173 -318 106 -487 150
-615 161 -61 6 -81 3 -155 -23 -47 -16 -86 -28 -88 -26 -26 24 -37 740 -14
905 26 189 42 250 141 528 72 202 101 413 101 746 l0 189 103 -7 c473 -29
1464 -39 1796 -17 308 20 500 55 572 104 110 74 164 376 184 1017 9 299 -20
1102 -44 1236 -7 36 -4 44 23 76 72 83 175 316 227 513 36 140 50 348 30 446
-29 138 -120 253 -224 284 -28 8 -56 15 -63 15 -7 0 -24 14 -38 31 -78 92
-221 180 -356 219 -108 31 -261 35 -366 11z m296 -118 c0 -5 -29 -23 -65 -42
-137 -70 -278 -235 -345 -402 -18 -43 -38 -79 -45 -79 -7 0 -49 18 -94 41 -57
28 -81 46 -81 59 0 41 100 217 160 282 69 76 143 134 180 141 43 8 290 7 290
0z m305 -160 c30 -15 55 -30 55 -33 0 -4 -23 -12 -52 -19 -148 -34 -290 -150
-362 -294 l-38 -78 -62 6 c-81 8 -199 25 -204 29 -2 2 8 31 22 65 79 194 228
348 389 400 99 32 107 31 154 -11 24 -21 67 -50 98 -65z m-986 -145 c-25 -64
-26 -65 -34 -38 -5 15 1 31 20 55 14 19 28 35 30 35 3 0 -5 -24 -16 -52z
m1112 -39 c96 -191 96 -459 -1 -733 -17 -48 -29 -90 -27 -92 7 -7 84 88 123
153 20 32 33 47 29 33 -9 -31 -42 -90 -116 -203 -31 -48 -79 -131 -105 -184
l-49 -96 5 -201 c3 -111 5 -523 5 -916 0 -670 -1 -720 -19 -799 -22 -95 -63
-165 -113 -194 -111 -64 -630 -83 -1869 -67 l-390 5 -56 -37 c-30 -20 -71 -56
-90 -80 -59 -73 -62 -99 -54 -471 3 -183 9 -375 12 -427 6 -94 6 -95 -13 -78
-29 26 -107 181 -143 283 -131 373 -179 923 -124 1405 18 154 34 240 45 240 8
0 130 -58 190 -90 8 -4 28 -5 44 -2 18 3 32 0 39 -10 8 -10 40 -17 106 -21 52
-4 145 -19 205 -33 251 -58 297 -64 585 -79 309 -16 484 -35 800 -90 260 -44
330 -45 391 -7 63 41 126 114 159 185 33 70 36 93 100 682 22 204 47 426 55
495 19 160 19 258 0 303 -18 43 -82 110 -96 101 -8 -5 -69 13 -69 21 0 1 9 28
20 61 63 181 66 399 8 617 l-20 77 26 55 c25 50 109 155 125 155 4 0 18 -30
33 -67 102 -263 99 -541 -10 -822 -12 -30 -19 -57 -16 -60 6 -6 91 39 105 56
6 6 24 64 41 130 30 112 32 127 32 303 0 167 -3 194 -26 280 -14 52 -39 126
-56 163 -35 77 -36 75 60 101 83 23 85 22 119 -45z m106 44 c50 -65 93 -207
93 -312 0 -74 -19 -197 -42 -274 -24 -82 -35 -82 -17 0 8 34 13 120 13 208 0
160 -13 236 -60 343 -22 51 -16 70 13 35z m-1115 -266 c116 -54 248 -85 406
-94 l102 -6 10 -39 c14 -51 38 -211 33 -220 -6 -11 -181 1 -288 18 -161 26
-327 96 -419 177 l-40 34 13 57 c8 38 10 82 6 128 l-7 70 65 -50 c36 -27 89
-61 119 -75z m-2990 -41 c301 -58 508 -230 609 -506 51 -142 72 -287 73 -510
0 -217 -14 -302 -73 -456 -88 -229 -308 -434 -536 -499 -92 -27 -232 -17 -360
26 l-99 34 -12 72 c-15 88 -34 123 -154 273 -142 178 -202 292 -250 477 -18
68 -20 108 -20 340 0 159 5 290 12 333 10 56 9 81 -1 128 -27 117 -28 114 26
148 168 109 328 152 565 153 88 1 175 -5 220 -13z m622 -64 c73 -70 96 -110
96 -166 l-1 -51 -34 40 c-19 22 -35 43 -35 48 0 4 -20 33 -45 65 -25 31 -49
62 -54 68 -5 6 -12 20 -15 32 -7 21 -5 21 21 11 15 -5 45 -27 67 -47z m2506
-296 c106 -28 238 -46 346 -46 l71 0 -5 -52 c-3 -28 -10 -74 -16 -102 l-11
-51 -44 -3 c-101 -7 -379 52 -437 93 -21 14 -137 171 -183 247 l-22 37 103
-49 c57 -27 146 -60 198 -74z m-2616 -1583 c-44 -166 -45 -220 -3 -267 42 -48
117 -66 186 -43 26 9 49 15 50 13 10 -10 -135 -376 -184 -465 -137 -253 -352
-417 -616 -472 -114 -23 -339 -26 -440 -4 -139 29 -237 97 -286 197 -59 124
-38 368 50 557 l39 83 37 -31 c97 -81 103 -84 147 -84 54 1 107 28 173 88 86
77 92 133 29 270 -20 43 -35 79 -33 81 1 2 32 -8 68 -21 247 -89 520 -29 744
164 39 33 71 60 71 60 1 1 -14 -56 -32 -126z m262 -841 c8 -4 16 -82 23 -217
21 -409 76 -698 187 -981 41 -104 44 -120 44 -203 0 -61 -7 -115 -20 -164 -52
-186 -60 -275 -60 -672 0 -357 -1 -373 -20 -398 -11 -14 -20 -39 -20 -57 0
-30 -4 -33 -114 -85 -203 -96 -285 -105 -436 -50 -41 15 -111 38 -155 52 -105
32 -175 27 -310 -22 -188 -69 -248 -78 -336 -52 -24 8 -111 47 -193 88 -183
91 -184 92 -251 326 -59 210 -118 368 -261 700 -164 380 -164 381 -164 621 0
187 11 299 40 402 6 19 10 65 10 102 0 78 29 176 100 345 51 120 102 208 125
217 17 6 32 -25 60 -119 50 -172 174 -328 318 -401 156 -80 431 -95 667 -37
94 23 233 85 314 140 105 71 230 202 329 346 84 122 98 136 123 119z"/>
</g>
</svg>
