<?xml version="1.0" standalone="no"?>
<!DOCTYPE svg PUBLIC "-//W3C//DTD SVG 20010904//EN"
 "http://www.w3.org/TR/2001/REC-SVG-20010904/DTD/svg10.dtd">
<svg version="1.0" xmlns="http://www.w3.org/2000/svg"
 width="2048.000000pt" height="2048.000000pt" viewBox="0 0 2048.000000 2048.000000"
 preserveAspectRatio="xMidYMid meet">
<metadata>
Created by potrace 1.13, written by Peter Selinger 2001-2015
</metadata>
<g transform="translate(0.000000,2048.000000) scale(0.192120,-0.192120)"
fill="#000000" stroke="none">
<path d="M5115 9914 c-322 -24 -587 -74 -833 -158 -843 -287 -1409 -967 -1493
-1796 -20 -197 -2 -501 42 -736 l22 -110 -46 -48 c-256 -262 -278 -852 -45
-1160 56 -73 137 -136 199 -155 36 -11 37 -12 43 -74 26 -232 128 -576 251
-848 200 -443 564 -881 919 -1105 l46 -29 0 -127 0 -126 547 -389 c301 -213
553 -389 559 -391 6 -2 258 172 560 386 l549 389 3 130 3 129 30 18 c77 45
239 176 340 273 375 363 643 833 779 1368 37 146 70 316 70 361 0 18 10 26 48
38 142 49 258 207 320 436 22 84 26 115 26 265 0 143 -3 184 -21 257 -38 149
-100 273 -172 345 -32 32 -32 33 -22 90 22 126 35 330 35 573 0 240 -1 263
-26 381 -153 711 -714 1331 -1474 1627 -216 84 -414 133 -664 167 -110 15
-489 27 -595 19z m460 -304 c245 -22 487 -74 680 -145 138 -50 402 -181 510
-254 356 -236 633 -568 756 -902 60 -163 59 -152 59 -643 0 -388 -2 -455 -15
-472 -15 -18 -16 -18 -48 18 -18 20 -77 121 -132 225 -168 320 -235 369 -525
388 -267 17 -555 60 -755 112 -55 14 -177 54 -272 89 -198 74 -239 79 -299 38
-21 -15 -45 -34 -52 -43 -57 -74 -82 -112 -82 -123 0 -8 -12 -13 -30 -14 -22
-1 -47 14 -102 59 -107 88 -212 154 -257 162 -50 8 -77 -5 -177 -90 -43 -35
-90 -67 -104 -70 -57 -13 -229 76 -437 225 -219 157 -283 188 -365 176 -131
-20 -365 -238 -547 -509 -29 -43 -95 -162 -148 -265 -100 -194 -117 -222 -139
-222 -28 0 -34 78 -34 423 0 320 2 355 21 430 70 279 202 517 403 734 364 390
921 626 1596 676 106 8 394 6 495 -3z m-1546 -1483 c263 -212 513 -368 660
-411 114 -33 201 -13 236 55 22 41 29 123 17 177 -5 23 -7 42 -3 42 4 0 38
-32 76 -71 149 -152 356 -325 470 -393 82 -50 129 -62 161 -41 52 34 20 198
-81 413 -24 50 -42 92 -39 92 2 0 29 -20 58 -44 226 -184 736 -312 1331 -334
l180 -7 210 -414 c231 -456 263 -505 328 -505 25 0 45 8 62 24 36 34 80 131
109 236 l23 89 14 -75 c10 -55 13 -140 11 -315 -5 -384 -33 -473 -205 -661
-151 -166 -167 -196 -222 -409 -53 -205 -204 -622 -301 -834 -40 -87 -152
-256 -239 -361 -60 -72 -257 -257 -360 -337 -74 -58 -200 -198 -227 -251 -18
-38 -23 -61 -21 -119 l1 -71 -93 -46 c-199 -98 -457 -166 -712 -187 -334 -28
-710 44 -1010 194 l-83 41 0 62 c0 34 -7 81 -15 104 -18 52 -106 162 -177 223
-29 25 -101 86 -159 136 -119 101 -193 182 -296 321 -99 134 -114 159 -221
360 -125 235 -197 447 -276 810 -9 41 -22 89 -28 105 -22 56 -90 146 -179 238
-107 111 -152 185 -179 301 -32 137 -28 607 6 770 6 26 10 20 45 -64 83 -203
188 -291 245 -205 9 13 29 80 45 147 87 366 251 711 462 974 70 86 281 294
299 294 6 0 41 -24 77 -53z m650 -4827 c61 -31 236 -78 352 -95 137 -19 447
-20 593 0 119 16 255 52 343 90 31 14 58 24 59 22 7 -6 -196 -122 -361 -207
-88 -45 -189 -99 -225 -118 -102 -56 -122 -53 -325 53 -223 115 -356 188 -430
236 -65 42 -68 51 -6 19z M4147 6986 c-106 -29 -189 -125 -202 -231 -4 -29 -5
-129 -3 -222 3 -149 6 -173 25 -209 35 -66 70 -101 130 -131 141 -69 303 -10
375 136 22 43 23 58 23 251 0 193 -1 208 -23 251 -62 126 -197 191 -325 155z
m103 -412 l0 -155 -32 3 -33 3 -3 140 c-1 76 0 145 2 152 3 7 19 13 36 13 l30
0 0 -156z M6375 6989 c-95 -23 -185 -117 -206 -217 -6 -32 -10 -122 -7 -225 3
-154 5 -177 26 -218 71 -145 234 -204 375 -136 60 30 95 65 130 131 21 39 22
54 22 256 0 202 -1 217 -22 256 -35 65 -70 101 -126 128 -60 29 -135 39 -192
25z m95 -415 l0 -155 -32 3 -33 3 -3 140 c-1 76 0 145 2 152 3 7 19 13 36 13
l30 0 0 -156z M5072 5811 c-44 -11 -94 -47 -122 -87 -65 -96 -38 -225 61 -291
l43 -28 277 0 277 0 44 30 c110 78 125 225 32 319 -60 59 -67 61 -334 63 -135
1 -260 -2 -278 -6z M6201 4820 c-18 -4 -45 -18 -60 -29 -66 -54 -200 -97 -395
-128 -140 -22 -658 -26 -801 -5 -195 28 -307 63 -445 138 -79 43 -169 23 -226
-51 -32 -42 -42 -114 -25 -168 43 -128 308 -236 697 -282 178 -22 584 -21 769
0 307 36 535 109 640 206 55 51 68 84 63 158 -3 44 -11 68 -31 94 -41 55 -120
83 -186 67z M3981 3283 c-78 -59 -82 -73 -16 -51 38 13 100 77 94 97 -2 5 -38
-15 -78 -46z M6613 3315 c19 -38 55 -69 95 -83 41 -14 41 -1 0 30 -18 13 -51
37 -72 53 l-39 30 16 -30z M2936 3099 c-557 -59 -1057 -402 -1310 -899 -66
-131 -123 -291 -150 -420 -31 -155 -36 -274 -36 -860 l0 -590 1555 0 c855 0
1555 3 1555 6 0 3 -171 605 -380 1337 -210 733 -388 1356 -396 1385 l-15 52
-372 -1 c-205 -1 -408 -5 -451 -10z m804 -387 c5 -119 15 -252 21 -296 7 -45
106 -411 221 -814 114 -403 219 -775 233 -826 25 -93 31 -150 19 -181 -8 -21
-56 -45 -89 -45 -34 0 -55 -11 -141 -76 -76 -58 -94 -66 -70 -32 19 27 21 48
3 48 -7 0 -177 45 -378 100 -200 55 -411 112 -469 126 -58 15 -108 30 -113 33
-5 6 688 2104 729 2205 7 18 8 18 16 -3 4 -12 12 -119 18 -239z m-329 71 c5
-14 7 -40 4 -57 -4 -17 -130 -402 -280 -856 -151 -454 -283 -859 -295 -900
-25 -91 -27 -235 -5 -264 21 -28 19 -73 -4 -86 -13 -6 -208 -10 -565 -10
l-546 0 0 550 c0 351 4 568 11 602 106 527 597 955 1179 1027 100 13 167 16
353 19 l137 2 11 -27z M6886 3058 c-8 -29 -186 -652 -396 -1385 -209 -732
-380 -1334 -380 -1337 0 -3 700 -6 1555 -6 l1555 0 0 590 c0 715 -7 796 -87
1045 -176 546 -659 981 -1224 1104 -154 33 -283 41 -655 41 l-353 0 -15 -52z
m439 -1209 c201 -600 362 -1095 359 -1100 -3 -5 -11 -9 -17 -9 -7 0 -219 -56
-471 -125 -252 -69 -465 -125 -472 -125 -18 0 -18 -20 2 -48 26 -37 2 -25 -75
38 -40 32 -83 62 -94 65 -12 4 -35 13 -52 20 -16 8 -38 16 -47 19 -15 4 -18
17 -18 66 0 71 -3 59 200 770 261 914 263 924 280 1285 6 120 13 230 17 243 5
21 7 22 15 8 5 -9 173 -507 373 -1107z m302 951 c231 -16 410 -63 598 -157
314 -159 554 -431 661 -753 l28 -85 4 -597 3 -598 -544 0 c-429 0 -547 3 -561
13 -14 10 -16 21 -11 50 4 21 11 40 16 43 18 10 10 174 -12 248 -11 39 -143
442 -294 896 -150 454 -276 844 -280 867 -13 81 -10 83 128 83 67 0 186 -5
264 -10z M4475 2915 l-25 -24 0 -469 0 -469 23 -21 c13 -12 31 -22 41 -22 10
0 197 99 417 220 l400 221 399 -221 c220 -121 408 -220 419 -220 11 0 29 12
40 26 21 26 21 36 21 491 l0 464 -25 24 c-13 14 -30 25 -37 25 -7 0 -193 -99
-412 -220 -220 -121 -402 -220 -406 -220 -3 0 -186 99 -405 220 -220 121 -405
220 -413 220 -7 0 -24 -11 -37 -25z m320 -443 c55 -30 66 -53 38 -84 -16 -18
-84 -58 -98 -58 -3 0 -5 38 -5 85 0 47 3 85 8 85 4 0 29 -13 57 -28z m1115
-57 c0 -41 -2 -75 -5 -75 -14 0 -62 30 -78 48 -26 28 -14 58 31 82 20 10 40
19 45 20 4 0 7 -34 7 -75z M4130 2522 c33 -62 89 -136 97 -128 5 5 -114 186
-123 186 -3 0 9 -26 26 -58z M6489 2489 c-63 -94 -74 -128 -21 -63 32 38 98
154 88 154 -3 0 -33 -41 -67 -91z M5260 1664 c-78 -34 -121 -98 -122 -180 -1
-43 5 -64 28 -101 101 -163 354 -95 354 95 0 62 -13 98 -48 136 -56 60 -142
80 -212 50z M5245 865 c-119 -60 -144 -216 -50 -310 94 -94 246 -71 306 47 31
62 24 154 -17 204 -16 20 -45 45 -64 55 -43 23 -133 25 -175 4z M4735 404
c-27 -13 -63 -36 -80 -49 l-30 -25 705 0 705 0 -25 21 c-14 11 -50 32 -80 47
-49 24 -66 27 -155 26 -87 0 -116 -6 -225 -40 -168 -52 -265 -54 -420 -7 -204
61 -313 69 -395 27z"/>
</g>
</svg>
