<?xml version="1.0" standalone="no"?>
<!DOCTYPE svg PUBLIC "-//W3C//DTD SVG 20010904//EN"
 "http://www.w3.org/TR/2001/REC-SVG-20010904/DTD/svg10.dtd">
<svg version="1.0" xmlns="http://www.w3.org/2000/svg"
 width="2048.000000pt" height="2048.000000pt" viewBox="0 0 2048.000000 2048.000000"
 preserveAspectRatio="xMidYMid meet">
<metadata>
Created by potrace 1.13, written by Peter Selinger 2001-2015
</metadata>
<g transform="translate(0.000000,2048.000000) scale(0.192120,-0.192120)"
fill="#000000" stroke="none">
<path d="M5258 10315 c-15 -8 -75 -73 -133 -145 l-106 -130 -47 0 c-26 0 -108
-7 -182 -15 -538 -62 -968 -184 -1387 -395 -146 -73 -173 -84 -178 -70 -15 49
-99 85 -158 69 -48 -13 -74 -46 -167 -213 l-83 -150 -192 -190 c-212 -211
-283 -296 -415 -494 l-89 -133 62 -95 c56 -84 63 -92 75 -76 7 9 79 134 159
277 80 143 181 321 224 397 88 150 78 143 194 150 86 5 163 74 221 196 19 42
43 92 52 111 18 35 106 121 126 121 12 0 53 -67 369 -600 115 -195 210 -356
211 -357 1 -1 33 37 71 85 128 161 938 1146 1022 1244 l83 96 50 -16 c61 -19
109 -10 189 38 79 46 89 46 177 2 99 -50 132 -57 195 -42 47 12 52 11 76 -11
22 -22 984 -1191 1093 -1331 25 -31 48 -56 52 -55 4 1 96 155 203 342 108 187
228 392 266 456 38 64 69 119 69 122 0 10 -194 115 -324 177 -401 190 -891
321 -1328 356 l-88 7 -94 116 c-52 64 -106 127 -120 140 -32 30 -108 38 -148
16z m-873 -666 c7 -20 2 -28 -82 -149 -33 -48 -371 -455 -399 -482 -70 -64
-97 -41 -245 212 -72 122 -84 165 -56 188 18 15 246 105 362 142 84 27 385
108 407 110 4 0 10 -9 13 -21z m2058 -45 c146 -42 363 -122 476 -177 108 -53
111 -65 50 -182 -58 -112 -146 -243 -168 -250 -38 -12 -75 23 -236 215 -256
309 -315 391 -302 425 7 18 7 18 180 -31z M7470 9629 c-35 -14 -59 -38 -82
-83 -16 -32 -17 -40 -6 -47 86 -48 113 -76 155 -159 23 -47 42 -100 43 -117 0
-29 -5 -35 -42 -52 -111 -51 -242 -201 -331 -376 -65 -128 -68 -177 -22 -296
60 -151 243 -335 347 -346 54 -6 96 10 164 65 95 75 178 203 204 311 21 87 9
154 -54 299 -60 141 -67 175 -37 192 23 12 71 13 87 2 7 -4 99 -181 205 -394
l194 -388 92 99 93 99 -83 116 c-120 168 -253 320 -418 480 l-146 141 -107
213 c-103 206 -108 214 -149 232 -47 22 -70 24 -107 9z m329 -920 l32 -45
-123 -175 c-68 -96 -130 -185 -139 -198 -15 -24 -17 -22 -155 174 l-141 199
97 135 c53 75 115 164 139 199 l42 63 108 -153 c59 -84 122 -174 140 -199z
M5240 9579 c-69 -31 -176 -117 -315 -251 -130 -125 -270 -297 -281 -346 -4
-15 -12 -33 -18 -41 -7 -9 -12 -108 -14 -294 -3 -278 -3 -280 21 -331 33 -69
99 -155 194 -252 249 -253 415 -347 556 -315 122 27 207 84 385 261 128 127
208 223 246 295 l26 50 0 300 0 300 -27 50 c-42 80 -95 146 -225 281 -193 199
-361 314 -457 314 -25 0 -66 -10 -91 -21z m368 -361 l282 -283 0 -275 0 -275
-280 -280 -280 -280 -280 280 -280 280 0 275 0 275 278 281 c152 154 277 282
277 282 1 1 128 -125 283 -280z M3024 9146 c-73 -32 -120 -93 -227 -298 -67
-127 -83 -188 -68 -261 27 -131 203 -372 307 -422 53 -25 107 -21 162 11 103
60 247 239 287 358 25 74 17 149 -28 238 -82 165 -210 324 -298 369 -44 22
-91 24 -135 5z m194 -243 c61 -87 124 -176 140 -198 l30 -40 -96 -136 c-54
-75 -117 -165 -141 -200 l-44 -63 -16 24 c-9 14 -71 103 -139 199 l-123 174
36 51 c20 28 82 117 138 198 56 81 103 147 104 147 0 1 51 -70 111 -156z
M1783 8710 c-64 -39 -63 -29 -63 -565 0 -501 0 -506 41 -550 18 -20 18 -24 -1
-135 -34 -196 -43 -357 -37 -610 14 -512 91 -920 222 -1167 78 -147 144 -213
215 -213 60 0 93 45 120 167 136 614 353 1087 690 1507 102 126 280 306 364
366 l48 35 -780 5 c-550 4 -784 8 -792 16 -8 8 3 39 41 115 l52 104 7 295 c4
199 10 302 18 317 7 13 25 25 40 28 72 16 113 29 122 40 12 15 -111 208 -155
243 -36 29 -107 30 -152 2z m987 -1437 c0 -17 -38 -85 -109 -192 -211 -323
-336 -575 -458 -924 -47 -136 -67 -177 -87 -177 -15 0 -52 82 -71 156 -45 181
-48 214 -52 683 -2 249 -2 459 1 467 4 12 71 14 391 14 l385 0 0 -27z M8716
8700 c-46 -41 -210 -228 -214 -245 -2 -7 17 -22 41 -34 35 -17 57 -21 105 -17
44 3 64 1 72 -9 8 -9 13 -104 17 -279 3 -146 10 -266 15 -266 4 0 8 -18 8 -41
0 -28 14 -68 45 -131 40 -80 51 -112 43 -120 -2 -2 -1231 -5 -2731 -8 l-2728
-5 164 -128 c445 -349 733 -516 956 -557 206 -37 319 113 271 360 -4 25 -6 47
-4 49 2 2 80 -70 173 -161 348 -340 626 -550 761 -573 107 -17 133 88 73 295
-27 97 -101 287 -145 374 -16 32 -27 60 -25 62 2 2 24 -13 48 -34 324 -284
1059 -470 2002 -508 l168 -7 299 -597 c253 -506 307 -606 350 -653 110 -120
192 -92 281 99 107 227 178 765 179 1355 0 216 -11 342 -46 523 l-25 128 20
15 c51 35 51 37 51 560 0 466 -1 489 -20 520 -25 41 -68 63 -124 63 -36 0 -52
-6 -80 -30z m-4109 -1416 c8 -21 -27 -124 -44 -131 -7 -3 -15 -13 -18 -24 -8
-25 -48 -25 -127 2 -113 38 -238 116 -238 148 0 17 23 19 223 20 174 1 198 -1
204 -15z m878 -168 c0 -114 -4 -181 -10 -183 -21 -7 -312 253 -351 313 -9 13
-14 31 -10 39 5 13 32 15 188 13 l183 -3 0 -179z m3163 -374 c2 -543 2 -556
-22 -705 -25 -161 -49 -237 -73 -237 -30 0 -70 69 -284 495 -216 428 -224 442
-293 513 -120 124 -150 136 -407 152 -314 20 -584 50 -814 91 -221 40 -512
122 -595 168 -30 17 -63 34 -72 37 -10 4 -18 12 -18 19 0 8 8 16 18 18 9 3
589 4 1287 3 l1270 -1 3 -553z M1764 5705 c-118 -116 -199 -264 -258 -468 -47
-163 -60 -258 -60 -462 0 -204 13 -299 60 -462 96 -333 291 -568 519 -628 32
-8 59 -16 60 -17 1 -2 10 -43 19 -93 46 -243 151 -586 251 -825 204 -484 466
-882 805 -1220 492 -493 1071 -789 1740 -891 136 -21 190 -24 435 -23 307 0
442 14 690 74 800 190 1487 700 1970 1460 99 155 265 483 332 655 95 243 178
518 223 745 13 63 24 116 25 118 1 1 28 9 60 17 228 60 423 296 520 630 45
155 59 264 59 460 0 306 -59 546 -188 765 -41 71 -153 206 -163 197 -2 -3 5
-58 16 -123 11 -66 23 -144 26 -174 4 -30 28 -118 53 -195 l47 -140 0 -300 0
-300 -38 -110 c-88 -255 -176 -380 -330 -474 -90 -54 -192 -153 -225 -218 -12
-22 -31 -78 -42 -124 -87 -349 -87 -350 -214 -654 -37 -88 -91 -219 -121 -291
-94 -231 -158 -343 -325 -574 -137 -188 -237 -296 -434 -465 -520 -447 -1039
-680 -1656 -745 -122 -13 -458 -13 -580 0 -537 56 -1044 259 -1470 588 -239
185 -390 336 -555 552 -140 184 -226 323 -344 552 -158 306 -248 547 -339 911
-27 105 -58 210 -69 232 -38 74 -139 171 -244 236 -149 92 -235 198 -298 369
-48 131 -51 161 -51 492 0 305 1 316 25 400 14 47 39 117 56 154 17 38 37 89
45 114 20 63 56 278 52 309 -3 24 -8 21 -84 -54z M3855 5593 c-68 -25 -107
-54 -144 -109 -48 -73 -53 -120 -49 -466 4 -349 4 -351 76 -430 108 -120 296
-118 409 5 71 77 74 103 71 484 l-3 328 -30 53 c-67 123 -206 179 -330 135z
M6659 5604 c-82 -15 -184 -114 -209 -202 -6 -22 -10 -167 -10 -348 0 -358 4
-387 73 -461 113 -123 301 -125 409 -5 74 82 73 76 73 462 0 380 0 377 -65
460 -54 68 -176 110 -271 94z M4959 3646 c-112 -40 -181 -141 -181 -263 0
-114 74 -221 180 -257 38 -13 103 -16 372 -16 364 0 385 3 458 66 153 131 114
380 -72 465 -38 17 -69 19 -381 18 -252 0 -349 -3 -376 -13z m642 -206 c75
-14 89 -45 45 -97 l-24 -28 -295 0 -295 0 -26 24 c-47 44 -32 87 35 100 62 12
496 13 560 1z M6638 2546 c-21 -8 -48 -21 -60 -30 -13 -9 -38 -28 -56 -41
-109 -79 -426 -155 -777 -186 -168 -14 -663 -14 -830 0 -376 33 -657 104 -799
201 -72 49 -123 64 -201 57 -236 -18 -336 -311 -163 -473 247 -233 901 -368
1703 -351 574 12 967 85 1274 234 186 91 271 193 271 327 0 146 -133 277 -279
276 -25 -1 -63 -7 -83 -14z m120 -222 c18 -5 22 -13 22 -49 0 -61 -32 -94
-143 -149 -163 -80 -437 -146 -759 -183 -197 -22 -854 -25 -1053 -5 -567 59
-993 212 -959 346 13 52 109 46 234 -14 212 -103 466 -163 800 -189 237 -19
455 -22 670 -12 457 23 708 73 959 191 144 67 180 77 229 64z"/>
</g>
</svg>
