<?xml version="1.0" standalone="no"?>
<!DOCTYPE svg PUBLIC "-//W3C//DTD SVG 20010904//EN"
 "http://www.w3.org/TR/2001/REC-SVG-20010904/DTD/svg10.dtd">
<svg version="1.0" xmlns="http://www.w3.org/2000/svg"
 width="2048.000000pt" height="2048.000000pt" viewBox="0 0 2048.000000 2048.000000"
 preserveAspectRatio="xMidYMid meet">
<metadata>
Created by potrace 1.13, written by Peter Selinger 2001-2015
</metadata>
<g transform="translate(0.000000,2048.000000) scale(0.192120,-0.192120)"
fill="#000000" stroke="none">
<path d="M5190 9629 c-371 -19 -766 -129 -1150 -320 -880 -438 -1467 -1217
-1669 -2215 -69 -342 -81 -532 -81 -1279 0 -1087 40 -1643 151 -2095 72 -293
172 -474 300 -545 50 -28 61 -30 149 -29 164 3 360 53 729 185 271 98 491 173
624 213 l112 34 3 48 3 49 -72 44 c-530 325 -952 948 -1132 1669 l-23 93 -74
3 c-115 3 -204 57 -285 171 -87 122 -139 275 -154 454 -30 349 105 689 315
792 129 64 276 32 378 -82 l45 -50 183 148 c132 107 274 238 510 471 180 178
331 322 335 320 5 -1 67 -35 139 -75 324 -179 770 -358 1067 -428 184 -43 279
-56 492 -65 364 -16 552 -53 805 -157 115 -47 272 -142 350 -211 41 -37 65
-52 68 -44 11 33 104 130 154 159 141 85 288 56 417 -82 174 -186 246 -563
166 -869 -53 -204 -163 -364 -293 -428 -38 -19 -64 -23 -135 -23 l-89 0 -33
-130 c-94 -365 -247 -700 -455 -995 -185 -262 -449 -514 -676 -647 l-64 -37 0
-48 0 -48 63 -17 c67 -18 483 -159 792 -268 625 -220 895 -202 1037 70 65 125
104 293 133 569 32 314 39 604 40 1631 0 1113 0 1113 -61 1445 -107 581 -324
1062 -677 1500 -86 106 -324 341 -440 434 -589 470 -1318 720 -1997 685z m400
-304 c726 -85 1426 -468 1882 -1029 122 -149 220 -303 313 -491 141 -284 225
-542 233 -713 2 -61 0 -108 -5 -113 -7 -7 -31 8 -69 41 -32 28 -92 67 -133 87
-65 33 -84 38 -166 41 -104 5 -152 -7 -267 -64 -37 -19 -82 -34 -99 -34 -21 0
-97 32 -208 88 -313 156 -530 209 -951 232 -217 11 -334 27 -491 64 -242 57
-554 174 -859 323 -320 156 -371 169 -473 117 -88 -44 -146 -93 -397 -338
-251 -245 -388 -370 -451 -413 -66 -43 -86 -44 -195 -7 -80 27 -115 33 -182
34 -137 0 -231 -44 -372 -174 l-75 -70 -3 101 c-3 121 16 217 87 432 236 716
729 1270 1436 1612 240 116 452 189 697 239 243 50 517 63 748 35z m-2960
-3821 c66 -84 169 -175 248 -218 44 -24 80 -52 91 -70 18 -29 79 -180 96 -236
4 -14 36 -91 71 -172 147 -344 344 -645 598 -918 69 -74 126 -142 126 -151 0
-31 -49 -58 -235 -127 -542 -200 -734 -234 -816 -145 -95 104 -159 341 -220
818 -20 152 -23 228 -26 727 -5 626 -10 592 67 492z m5430 -1649 c-35 -238
-77 -353 -152 -408 -22 -16 -48 -22 -119 -25 -110 -5 -209 9 -354 53 -113 35
-475 164 -532 190 -17 8 -36 15 -41 15 -6 0 -24 12 -41 26 -40 33 -37 38 100
181 290 303 514 679 694 1168 26 72 54 140 62 152 8 12 60 44 116 71 88 43
114 62 192 141 l90 90 3 -757 c2 -718 1 -764 -18 -897z M4327 6356 c-59 -22
-103 -61 -131 -118 -25 -49 -26 -60 -26 -212 0 -89 5 -178 11 -199 13 -48 70
-112 123 -139 56 -29 146 -29 202 0 52 27 97 77 119 135 24 63 19 366 -7 413
-22 41 -72 90 -111 110 -42 22 -134 27 -180 10z M6182 6344 c-56 -28 -92 -67
-117 -127 -22 -52 -22 -352 1 -405 19 -46 68 -98 114 -122 114 -57 252 -12
313 104 19 36 22 61 25 191 5 200 -4 241 -71 310 -79 80 -169 97 -265 49z
M5063 5205 c-90 -39 -99 -198 -14 -248 26 -15 63 -17 299 -17 l270 0 31 25
c77 65 63 204 -24 241 -49 20 -515 20 -562 -1z M4658 4631 c-80 -51 -109 -149
-69 -238 34 -74 199 -183 363 -239 245 -83 571 -76 805 17 163 65 289 157 319
234 66 174 -133 327 -286 219 -135 -95 -212 -126 -360 -145 -101 -13 -208 -5
-310 22 -84 23 -182 69 -220 104 -69 64 -166 74 -242 26z M4407 3615 c-9 -21
116 -132 208 -185 114 -65 233 -109 370 -138 108 -23 143 -26 340 -26 169 0
242 4 315 18 232 43 449 147 575 275 38 39 46 54 37 63 -9 9 -39 0 -129 -39
-152 -66 -279 -108 -401 -132 -411 -84 -818 -36 -1200 140 -93 43 -107 46
-115 24z M4360 3468 l1 -83 117 -64 c64 -35 279 -155 478 -267 198 -112 367
-204 374 -204 8 0 140 71 294 159 155 87 370 207 478 267 l198 109 0 83 c0 67
-3 82 -15 82 -33 0 -91 -33 -141 -80 -108 -102 -274 -194 -597 -329 -214 -90
-239 -90 -412 -11 -11 5 -63 27 -115 49 -227 95 -397 193 -502 289 -54 50
-110 82 -143 82 -12 0 -15 -15 -15 -82z M3512 3099 c-653 -58 -1278 -391
-1578 -840 -71 -106 -131 -229 -163 -334 -48 -155 -51 -206 -51 -922 l0 -673
1509 0 1509 0 -13 43 c-7 23 -183 605 -390 1292 -207 688 -390 1294 -406 1348
l-30 97 -147 -1 c-81 -1 -189 -5 -240 -10z m368 -364 c11 -227 21 -309 55
-435 12 -47 125 -425 250 -840 126 -415 230 -778 233 -806 6 -76 -11 -89 -124
-97 -116 -9 -209 -35 -356 -102 -65 -30 -123 -55 -129 -55 -14 0 9 40 142 257
66 105 119 196 119 200 0 5 -197 62 -437 128 -241 65 -441 121 -445 124 -4 4
8 47 26 96 19 50 156 432 306 849 337 942 330 923 342 902 5 -9 13 -108 18
-221z m-336 38 c10 -43 -9 -100 -214 -674 -277 -771 -290 -811 -297 -903 -6
-73 -4 -82 23 -134 38 -73 136 -173 197 -201 27 -12 134 -46 238 -76 104 -29
193 -56 199 -60 18 -11 11 -51 -14 -74 -16 -15 -44 -25 -87 -31 -35 -5 -407
-10 -827 -10 l-763 0 3 617 3 618 34 78 c53 123 124 223 240 338 269 265 698
466 1121 524 139 19 138 19 144 -12z M6731 3014 c-16 -54 -199 -661 -406
-1349 -207 -687 -383 -1269 -390 -1292 l-13 -43 1509 0 1510 0 -4 718 c-3 693
-4 720 -25 805 -58 240 -175 447 -356 635 -156 162 -301 268 -515 376 -159 81
-289 129 -461 172 -204 50 -320 64 -582 71 l-236 6 -31 -99z m145 -226 c31
-84 170 -470 309 -858 139 -388 262 -730 274 -760 11 -30 17 -57 13 -61 -4 -4
-90 -29 -192 -57 -524 -140 -690 -187 -690 -195 0 -5 46 -84 103 -175 137
-222 171 -282 157 -282 -6 0 -64 25 -128 56 -156 75 -203 90 -300 99 -47 4
-100 15 -122 26 -39 19 -40 21 -40 69 0 56 19 144 54 251 28 85 122 392 260
849 84 280 108 364 161 568 23 87 35 195 44 412 10 211 16 256 33 226 5 -8 34
-84 64 -168z m567 -22 c486 -99 940 -391 1116 -718 85 -157 81 -112 81 -815
l0 -623 -767 1 c-423 0 -792 4 -822 8 -41 6 -60 14 -78 36 -49 56 -39 63 184
126 112 32 223 67 249 78 59 26 159 129 190 195 30 65 31 145 4 245 -11 40
-120 350 -241 689 -260 724 -259 723 -259 775 l0 40 110 -6 c61 -4 165 -18
233 -31z M4554 3092 c-28 -18 -30 -61 -28 -470 2 -386 4 -425 20 -443 9 -10
28 -19 41 -19 13 0 92 38 176 84 84 46 245 136 360 199 l207 115 361 -199
c198 -110 370 -199 383 -199 13 0 31 9 40 19 16 18 17 56 17 451 0 393 -2 434
-17 451 -9 11 -28 19 -41 19 -13 0 -182 -88 -377 -195 -194 -107 -359 -195
-365 -195 -7 0 -172 88 -366 195 -195 107 -364 195 -377 195 -13 0 -28 -4 -34
-8z m278 -439 c22 -19 23 -30 4 -49 -25 -24 -36 -16 -36 26 0 44 5 48 32 23z
m994 -40 c-11 -11 -19 6 -11 24 8 17 8 17 12 0 3 -10 2 -21 -1 -24z M4240
2646 c0 -2 8 -10 18 -17 15 -13 16 -12 3 4 -13 16 -21 21 -21 13z M6399 2633
c-13 -16 -12 -17 4 -4 9 7 17 15 17 17 0 8 -8 3 -21 -13z M5255 1936 c-56 -25
-105 -101 -105 -163 1 -45 35 -108 76 -139 33 -25 46 -29 104 -29 57 0 72 4
103 28 85 64 98 177 30 258 -47 56 -139 76 -208 45z M5245 1207 c-46 -26 -82
-75 -91 -124 -13 -67 32 -155 97 -188 36 -19 122 -19 158 0 64 33 108 117 96
183 -22 122 -155 188 -260 129z M5252 489 c-48 -24 -88 -76 -98 -127 l-6 -32
182 0 183 0 -7 32 c-16 79 -98 148 -177 148 -19 0 -53 -10 -77 -21z M4856 362
l-49 -27 61 -3 c34 -2 90 -2 125 0 l62 3 -46 28 c-57 34 -91 34 -153 -1z
M5650 362 l-45 -27 63 -3 c34 -2 90 -2 124 0 l62 3 -51 28 c-64 34 -96 34
-153 -1z"/>
</g>
</svg>
