<?xml version="1.0" standalone="no"?>
<!DOCTYPE svg PUBLIC "-//W3C//DTD SVG 20010904//EN"
 "http://www.w3.org/TR/2001/REC-SVG-20010904/DTD/svg10.dtd">
<svg version="1.0" xmlns="http://www.w3.org/2000/svg"
 width="2048.000000pt" height="2048.000000pt" viewBox="0 0 2048.000000 2048.000000"
 preserveAspectRatio="xMidYMid meet">
<metadata>
Created by potrace 1.13, written by Peter Selinger 2001-2015
</metadata>
<g transform="translate(0.000000,2048.000000) scale(0.192120,-0.192120)"
fill="#000000" stroke="none">
<path d="M4356 10299 c-287 -33 -552 -154 -811 -371 -421 -352 -681 -853 -776
-1496 -27 -180 -36 -558 -20 -754 16 -176 57 -428 162 -972 l80 -419 -49 -51
c-242 -254 -537 -717 -624 -981 -29 -89 -51 -224 -69 -424 -15 -175 -6 -635
16 -791 81 -587 271 -1112 577 -1594 73 -116 227 -326 238 -326 4 0 12 33 19
73 62 357 195 840 310 1125 45 112 47 120 30 131 -36 22 -91 13 -139 -23 -82
-60 -158 -223 -247 -526 -49 -170 -66 -210 -88 -210 -31 0 -81 73 -162 235
-150 299 -259 636 -317 983 -25 150 -26 166 -26 605 0 488 5 554 56 705 48
143 192 400 343 607 35 50 91 126 123 170 55 77 98 173 98 222 0 12 -9 45 -20
73 l-20 50 67 55 c37 30 70 55 73 55 14 0 287 -579 361 -763 129 -322 206
-738 216 -1162 6 -257 -4 -403 -42 -568 -31 -137 -69 -225 -155 -354 -38 -59
-70 -116 -70 -128 0 -28 315 -2226 380 -2655 58 -378 58 -378 152 -424 79 -38
171 -50 328 -43 318 15 602 132 655 270 14 38 15 55 5 128 -28 209 -113 671
-226 1229 l-28 135 -101 105 c-316 329 -553 760 -700 1269 -116 404 -143 966
-79 1643 15 160 68 556 82 611 l7 27 72 -34 c63 -30 72 -38 77 -68 25 -127 54
-166 191 -254 373 -238 577 -493 704 -881 66 -201 71 -242 71 -625 0 -406 -4
-433 -118 -813 l-36 -120 -1 -235 c0 -230 1 -238 33 -383 43 -190 41 -204 -21
-238 -27 -14 -58 -36 -70 -48 l-22 -22 40 -36 c105 -94 508 -373 521 -361 2 3
-21 49 -51 104 -198 358 -316 809 -285 1091 10 98 17 125 79 325 77 250 112
482 112 743 0 212 -18 361 -65 547 -136 539 -438 908 -966 1180 l-105 54 -42
245 c-23 134 -74 431 -113 659 -185 1072 -184 1065 -184 1440 -1 356 25 529
113 757 149 386 519 612 880 539 243 -49 475 -199 752 -483 l136 -140 13 -69
c16 -85 50 -179 96 -263 l35 -63 -20 -62 c-48 -148 -54 -291 -15 -417 8 -28
-229 -121 -403 -159 -47 -10 -87 -21 -89 -23 -3 -3 21 -21 53 -40 125 -75 265
-135 356 -152 l37 -7 -20 -32 c-75 -113 -159 -320 -199 -492 -68 -294 -67
-693 4 -1077 43 -234 99 -404 205 -622 80 -163 130 -249 327 -553 168 -260
239 -390 285 -522 31 -91 33 -102 33 -240 l0 -145 -52 -150 c-62 -181 -78
-278 -70 -434 10 -200 65 -351 157 -434 118 -106 249 -78 408 88 228 236 449
714 593 1281 l43 168 -28 195 c-104 740 -252 1224 -478 1558 -27 40 -93 126
-147 190 -202 242 -303 442 -363 716 -19 87 -22 132 -22 312 0 180 3 224 22
310 45 202 137 429 239 584 90 139 241 330 324 413 125 123 293 219 421 242
36 6 37 5 74 -49 43 -65 79 -95 157 -130 31 -13 57 -28 57 -33 0 -4 21 -15 48
-24 97 -35 176 -91 292 -208 373 -376 640 -912 764 -1535 42 -210 46 -275 46
-791 0 -482 -1 -507 -25 -665 -72 -481 -212 -922 -379 -1194 -14 -22 -44 -74
-67 -115 -156 -278 -400 -549 -512 -567 -63 -10 -93 57 -148 332 -17 88 -40
187 -50 220 -37 120 -100 185 -178 185 -38 0 -38 7 -11 -205 55 -429 109 -650
183 -747 93 -121 184 -113 382 34 496 369 893 1240 1005 2204 27 234 36 589
21 809 -64 907 -366 1643 -905 2203 -110 113 -192 179 -278 223 -67 34 -188
69 -238 69 -31 0 -40 6 -73 50 -44 58 -120 121 -191 157 -78 39 -104 60 -132
109 -48 82 -31 198 46 308 38 55 39 56 18 67 -11 6 -40 9 -64 6 -127 -14 -302
-169 -419 -372 -10 -16 -14 -15 -63 15 -92 56 -291 130 -351 130 -7 0 -70 54
-139 119 -675 636 -1354 947 -1926 880z m458 -299 c304 -65 644 -233 971 -480
71 -54 161 -126 200 -159 38 -33 71 -58 74 -55 3 2 21 -11 40 -29 20 -18 46
-40 57 -48 12 -8 57 -39 100 -69 44 -30 113 -69 154 -87 41 -18 77 -40 80 -49
4 -9 44 -31 96 -50 206 -78 231 -77 376 16 34 22 68 40 77 40 33 0 131 -108
131 -143 0 -28 -23 -51 -136 -137 -126 -96 -227 -208 -367 -411 -92 -133 -117
-189 -117 -265 l0 -62 -67 -11 c-222 -38 -462 -185 -641 -392 -71 -83 -77 -88
-85 -67 -16 43 2 83 77 172 41 49 82 102 90 120 31 66 76 337 76 457 0 65 -8
99 -55 240 -30 91 -67 194 -83 229 -107 238 -478 579 -794 730 -156 74 -272
102 -428 102 -146 0 -233 -19 -364 -80 -111 -52 -193 -109 -287 -200 -201
-191 -330 -438 -394 -755 -24 -121 -25 -136 -25 -530 0 -306 4 -435 15 -524 9
-65 63 -392 122 -728 102 -582 107 -618 111 -782 l4 -172 -31 -44 c-65 -95
-79 -80 -219 228 -27 61 -85 182 -128 270 -81 167 -84 170 -236 310 -56 52
-64 80 -132 441 -90 476 -88 447 -83 991 2 305 8 492 15 518 6 22 18 74 27
115 86 390 259 706 527 966 220 213 478 355 718 394 41 6 82 13 90 15 8 2 89
2 180 0 118 -3 193 -10 264 -25z m1479 -2364 c-11 -61 -13 -149 -11 -400 5
-364 7 -379 95 -596 85 -207 176 -358 328 -541 46 -56 106 -134 132 -173 142
-211 273 -573 353 -973 53 -269 60 -325 60 -495 l0 -168 -36 -73 c-20 -39 -69
-167 -109 -282 -134 -388 -212 -561 -334 -745 -94 -142 -146 -190 -205 -190
-17 0 -31 10 -45 34 -19 31 -21 48 -21 238 l0 204 40 133 40 133 0 180 c0 195
-5 224 -63 373 -51 131 -126 268 -262 480 -354 553 -446 756 -515 1130 -18 97
-20 152 -20 511 l0 402 29 114 c15 62 53 176 84 253 72 183 75 192 83 275 l7
71 88 82 c84 78 220 170 264 179 29 5 36 -57 18 -156z m-2418 -4526 c131 -331
339 -689 537 -924 114 -135 137 -167 138 -194 0 -12 36 -203 80 -425 107 -544
110 -562 110 -719 0 -105 -3 -140 -14 -151 -18 -18 -160 -62 -245 -77 -74 -13
-241 -17 -287 -6 -37 8 -66 59 -88 156 -17 75 -114 725 -221 1487 l-75 533 0
232 c1 262 -2 258 65 88z"/>
</g>
</svg>
