<?xml version="1.0" standalone="no"?>
<!DOCTYPE svg PUBLIC "-//W3C//DTD SVG 20010904//EN"
 "http://www.w3.org/TR/2001/REC-SVG-20010904/DTD/svg10.dtd">
<svg version="1.0" xmlns="http://www.w3.org/2000/svg"
 width="2048.000000pt" height="2048.000000pt" viewBox="0 0 2048.000000 2048.000000"
 preserveAspectRatio="xMidYMid meet">
<metadata>
Created by potrace 1.13, written by Peter Selinger 2001-2015
</metadata>
<g transform="translate(0.000000,2048.000000) scale(0.192120,-0.192120)"
fill="#000000" stroke="none">
<path d="M4995 10319 c-1056 -71 -2045 -469 -2880 -1160 -165 -136 -536 -515
-677 -692 -922 -1153 -1288 -2604 -1023 -4052 147 -806 494 -1559 1025 -2224
139 -175 512 -555 675 -690 853 -703 1834 -1094 2915 -1161 1110 -68 2225 242
3140 876 476 329 929 780 1264 1258 822 1175 1095 2665 745 4076 -84 337 -201
655 -364 985 -254 516 -533 904 -955 1326 -250 250 -438 409 -689 582 -390
270 -872 509 -1305 646 -603 192 -1253 272 -1871 230z m793 -214 c893 -86
1716 -406 2447 -952 190 -142 215 -155 444 -222 22 -7 14 -15 -90 -89 -63 -46
-136 -103 -164 -127 l-50 -45 65 6 c36 3 89 10 119 15 79 13 148 11 179 -5 15
-8 49 -38 76 -66 l48 -52 -7 -105 c-6 -87 -5 -104 6 -97 8 4 44 27 80 50 64
41 143 84 153 84 3 0 8 -17 11 -37 19 -114 29 -137 130 -287 178 -265 351
-563 454 -786 211 -454 331 -849 412 -1355 21 -129 23 -182 26 -651 5 -568 -2
-661 -68 -989 -142 -702 -387 -1267 -819 -1890 -108 -156 -115 -171 -130 -270
-6 -38 -13 -71 -15 -74 -7 -7 -151 80 -228 138 -83 62 -181 152 -273 253 -61
66 -62 66 -73 42 -26 -57 -9 -133 47 -210 16 -22 33 -50 36 -62 4 -12 48 -60
99 -108 51 -47 95 -93 98 -103 17 -43 -61 -121 -120 -121 -43 0 -124 48 -206
122 -98 89 -201 168 -242 188 -27 13 -64 20 -99 20 l-56 0 20 -31 c76 -121
306 -340 501 -478 56 -40 101 -74 99 -76 -2 -2 -48 -15 -103 -30 -109 -30
-181 -63 -262 -122 -551 -397 -956 -614 -1463 -783 -878 -292 -1813 -328
-2718 -104 -342 84 -630 189 -967 354 -279 136 -484 262 -826 507 -120 86
-173 112 -299 148 -52 15 -96 29 -98 30 -1 1 50 41 115 88 123 89 248 195 284
241 l20 26 -21 0 c-52 0 -183 -35 -270 -72 -107 -45 -140 -46 -197 -2 -59 45
-66 109 -22 197 20 39 31 128 17 142 -3 4 -48 -23 -99 -59 -95 -69 -217 -141
-224 -134 -3 2 -9 38 -15 78 -14 101 -37 146 -182 354 -69 98 -133 195 -144
215 -10 20 -42 76 -70 126 -305 544 -493 1091 -583 1699 -19 128 -21 184 -21
697 0 508 2 571 20 698 73 502 210 941 447 1430 46 96 102 218 125 270 89 210
141 296 265 439 110 127 129 159 142 249 6 42 13 79 16 81 6 6 121 -60 200
-116 39 -27 112 -86 163 -132 64 -56 97 -79 104 -72 6 6 11 32 11 59 1 64 -35
129 -124 224 -83 89 -87 112 -32 158 21 17 43 31 50 31 6 0 19 7 27 16 24 23
65 5 176 -77 52 -39 111 -77 130 -86 38 -16 134 -23 163 -11 16 7 15 12 -15
49 -51 64 -210 202 -342 297 -106 78 -116 87 -95 93 236 71 245 76 429 214
780 587 1657 910 2646 975 167 11 537 3 732 -15z M2745 8896 c-72 -33 -130
-101 -150 -173 -46 -170 -71 -230 -127 -315 -89 -132 -192 -215 -345 -278
-125 -50 -203 -63 -372 -62 -181 1 -224 -11 -290 -83 -56 -61 -74 -107 -74
-190 -1 -56 4 -80 25 -121 69 -133 173 -172 438 -161 354 15 678 154 921 396
142 143 239 298 307 493 79 225 75 329 -16 430 -78 87 -211 114 -317 64z m155
-315 c0 -125 -52 -251 -184 -447 -139 -207 -201 -254 -407 -309 -314 -83 -408
-98 -549 -85 -98 9 -116 15 -123 40 -10 37 8 44 135 51 68 4 152 15 188 24 71
18 235 100 345 173 151 101 324 304 417 492 29 58 62 113 73 122 12 10 37 17
63 18 l42 0 0 -79z M7476 8834 c-65 -20 -146 -101 -169 -168 -38 -111 -12
-231 68 -311 53 -52 105 -72 210 -80 185 -14 367 -65 534 -150 169 -85 382
-269 476 -409 96 -145 149 -181 265 -181 88 1 156 29 208 89 56 64 67 93 67
186 0 99 -16 138 -113 274 -213 299 -590 569 -952 684 -224 71 -484 99 -594
66z m389 -255 c102 -21 158 -38 422 -132 263 -94 305 -128 561 -470 52 -69 53
-72 50 -131 -3 -55 -5 -61 -27 -64 -49 -7 -78 12 -194 129 -119 121 -239 208
-492 359 -49 29 -122 73 -161 97 -100 60 -186 90 -328 114 -120 20 -162 36
-173 66 -24 63 116 76 342 32z M7894 8085 c-50 -79 -153 -277 -207 -400 -55
-124 -122 -313 -114 -321 10 -10 92 43 139 90 43 43 142 226 220 410 44 103
50 212 14 261 -13 18 -16 15 -52 -40z M2834 7863 c-15 -115 -4 -203 42 -341
24 -73 72 -158 102 -184 31 -26 118 -56 129 -44 24 23 -224 626 -257 626 -5 0
-12 -26 -16 -57z M8318 7849 c-96 -22 -178 -123 -244 -299 -48 -126 -43 -230
12 -314 13 -18 14 -18 23 7 69 181 185 429 260 555 17 29 31 55 31 57 0 7 -40
4 -82 -6z M2460 7464 c32 -76 85 -216 117 -311 32 -95 61 -173 65 -173 4 0 18
19 30 43 20 36 23 57 23 142 -1 94 -4 107 -43 205 -56 140 -117 202 -219 224
l-31 7 58 -137z M3450 7545 c-63 -20 -109 -62 -176 -158 -72 -103 -206 -238
-304 -304 -208 -140 -461 -226 -706 -239 -153 -8 -205 -24 -263 -82 -138 -139
-66 -369 129 -411 154 -33 525 13 760 94 103 35 345 148 385 179 11 9 59 45
106 80 157 117 342 324 406 455 68 138 6 311 -135 373 -58 26 -145 32 -202 13z
m124 -261 c29 -77 -63 -204 -298 -411 -162 -142 -246 -198 -352 -235 -76 -26
-99 -29 -258 -34 -181 -5 -213 1 -156 31 16 8 32 15 35 15 11 -1 167 81 295
155 229 133 375 239 510 370 52 51 109 100 125 109 40 20 91 21 99 0z m-1114
-679 c0 -8 -4 -15 -9 -15 -13 0 -22 16 -14 24 11 11 23 6 23 -9z M7185 7305
c-207 -38 -357 -101 -412 -173 -62 -81 -76 -187 -38 -279 20 -48 90 -119 143
-143 73 -35 145 -31 276 15 129 44 258 56 397 35 203 -29 363 -103 622 -285
107 -75 243 -65 341 25 57 53 89 126 88 205 0 108 -37 167 -161 259 -227 169
-467 277 -737 331 -102 21 -148 25 -285 24 -90 0 -195 -7 -234 -14z m610 -225
c99 -26 140 -47 297 -147 222 -141 262 -173 266 -210 2 -24 -2 -34 -18 -43
-38 -20 -76 -8 -224 74 -50 27 -115 51 -306 110 -324 101 -484 123 -635 90
-138 -30 -152 -31 -186 -20 -42 14 -45 41 -8 68 43 32 202 68 349 79 74 6 171
14 215 17 102 9 163 5 250 -18z M7395 6699 c-27 -77 -104 -708 -105 -864 0
-16 81 68 107 113 38 64 50 115 78 330 28 211 27 275 -4 347 -23 50 -68 95
-76 74z M3246 6520 c-15 -33 -30 -76 -33 -95 -3 -20 -10 -38 -14 -41 -24 -14
-3 -394 27 -504 17 -61 68 -123 116 -139 l28 -10 0 63 c0 186 -69 786 -90 786
-4 0 -19 -27 -34 -60z M7865 6541 c-104 -65 -135 -159 -135 -414 0 -153 7
-176 73 -252 l35 -40 6 35 c3 19 12 107 21 195 14 147 47 401 61 468 7 33 -16
37 -61 8z M2782 6203 c9 -87 24 -257 33 -377 8 -121 17 -222 20 -224 8 -9 56
41 82 86 l25 42 -5 213 c-4 219 -11 260 -50 318 -21 31 -100 99 -116 99 -4 0
1 -71 11 -157z M3760 5951 c-71 -16 -96 -34 -204 -146 -104 -107 -117 -117
-216 -164 -166 -79 -322 -108 -515 -98 -122 7 -196 24 -299 69 -61 27 -78 30
-135 26 -78 -6 -131 -31 -182 -85 -60 -62 -74 -98 -74 -188 0 -70 4 -87 30
-134 37 -67 95 -112 193 -150 168 -64 336 -93 537 -92 378 2 711 117 969 336
87 74 191 206 212 268 32 97 -3 229 -78 292 -65 55 -164 82 -238 66z m88 -288
c4 -42 -15 -76 -80 -143 -69 -72 -126 -108 -343 -219 -272 -139 -384 -158
-623 -105 -64 14 -160 34 -212 46 -117 25 -197 61 -213 95 -9 21 -8 27 8 39
25 18 38 18 126 -6 189 -52 213 -53 434 -20 214 32 436 90 536 140 30 16 100
65 155 109 99 81 137 101 184 98 20 -2 26 -8 28 -34z M7405 5809 c-294 -30
-570 -150 -761 -331 -96 -91 -124 -145 -124 -241 0 -37 7 -83 15 -103 39 -95
132 -162 234 -171 89 -8 145 15 237 97 91 81 197 140 309 170 101 28 329 38
431 20 38 -6 82 -14 99 -17 48 -8 156 -52 205 -83 69 -44 114 -60 173 -60 223
0 356 237 237 424 -70 110 -291 217 -562 272 -137 28 -352 38 -493 23z m531
-266 c256 -87 324 -121 324 -164 0 -10 -11 -26 -24 -34 -29 -20 -63 -13 -201
41 l-100 39 -235 0 c-287 0 -456 -11 -535 -36 -55 -17 -98 -41 -265 -145 -61
-37 -118 -45 -144 -18 -37 36 -3 83 117 161 85 56 147 84 317 145 247 90 240
88 395 85 l140 -3 211 -71z M7773 5134 c-29 -27 -53 -58 -53 -67 0 -9 -5 -17
-11 -17 -8 0 -10 -56 -7 -187 3 -182 4 -190 31 -245 26 -53 123 -156 135 -143
3 2 -1 71 -7 152 -7 82 -18 240 -24 353 l-12 204 -52 -50z M7283 4979 c11
-301 43 -628 62 -632 6 -1 27 32 48 74 38 73 39 80 44 200 7 187 -9 374 -37
424 -28 51 -50 75 -91 99 l-32 19 6 -184z M3330 4974 c-25 -30 -56 -76 -70
-102 -14 -26 -28 -49 -33 -53 -12 -9 -47 -382 -47 -507 0 -91 4 -120 19 -150
23 -45 72 -96 82 -85 9 10 34 168 54 333 19 170 51 621 43 620 -2 -1 -23 -26
-48 -56z M2811 4778 c-6 -90 -23 -257 -37 -371 -15 -115 -24 -211 -21 -214 13
-12 90 44 117 85 64 96 95 443 49 546 -20 46 -74 116 -88 116 -5 0 -13 -73
-20 -162z M7725 4416 c-328 -63 -594 -208 -905 -495 -122 -113 -154 -168 -155
-266 -1 -161 115 -278 275 -278 91 -1 142 25 247 125 203 194 375 300 561 349
125 33 308 30 499 -9 130 -27 160 -30 205 -22 165 32 261 191 214 355 -14 45
-29 69 -70 110 -61 61 -88 72 -296 112 -165 31 -459 41 -575 19z m300 -220
c172 -19 347 -51 375 -69 23 -14 26 -40 6 -56 -17 -15 -121 -15 -201 -1 -100
17 -169 12 -343 -26 -177 -38 -439 -128 -541 -186 -29 -17 -104 -70 -166 -119
-148 -116 -219 -144 -251 -101 -26 33 -16 58 49 120 86 83 142 126 337 257
318 215 352 223 735 181z M2230 4341 c-111 -34 -200 -152 -200 -266 0 -17 7
-56 16 -86 20 -68 98 -148 234 -238 396 -263 869 -359 1270 -260 261 65 357
143 368 299 9 124 -42 215 -150 269 -84 43 -139 41 -276 -5 -306 -105 -626
-37 -962 202 -57 41 -120 79 -140 84 -41 11 -124 12 -160 1z m168 -269 c20
-10 73 -39 117 -64 133 -75 395 -153 655 -193 176 -28 193 -27 354 6 76 16
104 19 122 10 63 -29 -5 -89 -137 -121 -114 -27 -361 -55 -489 -55 -88 0 -119
5 -191 28 -47 16 -110 44 -140 62 -30 19 -119 73 -199 121 -158 95 -220 147
-220 186 0 14 3 28 7 31 13 13 85 7 121 -11z M7951 3780 c-41 -57 -57 -135
-41 -213 20 -102 70 -227 108 -269 32 -36 156 -107 168 -96 2 3 -7 36 -22 74
-44 116 -93 262 -135 403 -21 74 -41 136 -43 139 -3 2 -18 -15 -35 -38z M7476
3596 c42 -178 159 -517 222 -641 l26 -50 14 45 c8 26 15 88 16 145 1 95 -2
107 -47 239 -80 230 -119 288 -215 315 l-30 9 14 -62z M2581 3508 c-103 -278
-115 -306 -207 -490 l-74 -148 33 0 c112 1 218 130 292 355 33 102 33 182 0
253 -13 28 -27 52 -30 52 -3 0 -9 -10 -14 -22z M3079 3391 c-111 -70 -149
-122 -242 -333 -96 -218 -118 -335 -79 -423 l18 -39 36 59 c60 100 142 272
205 430 60 148 118 323 110 331 -2 2 -24 -9 -48 -25z M8566 3249 c-165 -19
-357 -77 -505 -154 -291 -150 -490 -369 -615 -675 -40 -96 -76 -244 -76 -309
0 -142 131 -271 275 -271 60 0 135 30 182 73 55 51 75 88 102 197 71 284 262
477 556 561 69 20 103 24 255 24 161 1 179 3 222 24 162 78 208 294 92 429
-80 94 -249 129 -488 101z m273 -248 c26 -14 27 -47 2 -60 -10 -6 -74 -17
-142 -25 -90 -10 -145 -23 -202 -45 -205 -82 -381 -193 -512 -325 -102 -103
-163 -190 -227 -321 -52 -109 -75 -135 -116 -135 -41 0 -52 22 -52 104 0 112
54 234 183 415 151 211 270 305 419 331 35 6 119 23 187 37 68 14 154 29 190
33 84 11 243 5 270 -9z M1708 3236 c-136 -38 -226 -176 -197 -304 27 -125 187
-334 379 -495 336 -284 751 -445 1151 -448 99 0 125 3 168 21 56 24 115 83
137 136 18 44 18 135 -1 181 -45 107 -118 151 -273 164 -204 18 -315 47 -489
129 -229 108 -414 263 -540 451 -80 119 -141 163 -241 174 -26 2 -68 -1 -94
-9z m115 -259 c18 -8 55 -38 82 -68 202 -217 219 -232 370 -319 207 -120 575
-315 575 -305 0 3 14 -2 30 -10 49 -25 27 -37 -58 -30 -43 3 -86 6 -97 6 -11
0 -78 15 -150 34 -71 18 -156 39 -188 45 -77 15 -206 81 -270 138 -89 78 -286
294 -332 362 -49 75 -62 122 -39 145 19 19 35 19 77 2z m1132 -726 c3 -5 1
-12 -5 -16 -5 -3 -10 1 -10 9 0 18 6 21 15 7z"/>
</g>
</svg>
