<?xml version="1.0" standalone="no"?>
<!DOCTYPE svg PUBLIC "-//W3C//DTD SVG 20010904//EN"
 "http://www.w3.org/TR/2001/REC-SVG-20010904/DTD/svg10.dtd">
<svg version="1.0" xmlns="http://www.w3.org/2000/svg"
 width="2048.000000pt" height="2048.000000pt" viewBox="0 0 2048.000000 2048.000000"
 preserveAspectRatio="xMidYMid meet">
<metadata>
Created by potrace 1.13, written by Peter Selinger 2001-2015
</metadata>
<g transform="translate(0.000000,2048.000000) scale(0.192120,-0.192120)"
fill="#000000" stroke="none">
<path d="M7240 10294 c-14 -2 -59 -9 -100 -15 -576 -82 -1165 -523 -1425
-1064 -89 -185 -126 -318 -216 -765 -67 -332 -98 -457 -163 -645 -117 -342
-317 -693 -586 -1030 -137 -170 -219 -263 -417 -467 -167 -172 -248 -270 -328
-393 -144 -221 -210 -426 -235 -735 -6 -74 -15 -191 -21 -260 -21 -259 -75
-420 -211 -632 -27 -42 -54 -94 -60 -114 -12 -47 -3 -110 22 -149 39 -59 504
-517 545 -536 78 -36 146 -23 252 49 79 53 203 115 294 145 113 38 221 55 459
72 351 25 502 58 697 150 184 87 296 171 553 416 324 309 517 469 780 643 223
149 388 237 610 326 209 83 372 127 769 206 323 64 430 90 572 140 260 90 447
205 653 404 313 301 510 646 587 1025 27 136 37 435 20 571 -77 584 -385 1170
-886 1683 -547 561 -1178 903 -1787 970 -91 10 -321 13 -378 5z m325 -183 c59
-26 122 -85 153 -145 23 -44 27 -63 27 -136 0 -88 -16 -134 -67 -199 -15 -20
-16 -27 -6 -37 32 -32 104 -19 157 28 53 48 78 112 90 232 6 60 11 115 11 122
0 7 8 10 20 7 14 -4 20 0 20 11 0 23 19 20 29 -5 5 -16 32 -31 99 -55 198 -72
201 -78 82 -191 -116 -110 -160 -211 -134 -308 6 -22 62 -65 85 -65 8 0 21 24
33 61 24 78 94 157 168 190 72 32 184 33 248 1 73 -35 117 -78 151 -148 26
-53 32 -76 32 -133 0 -108 -62 -220 -147 -266 -20 -11 -36 -25 -36 -31 0 -19
59 -64 83 -64 30 0 86 21 121 45 45 30 112 128 131 192 9 32 21 71 26 87 5 16
9 51 9 77 0 45 1 47 25 45 35 -4 134 -88 296 -253 185 -188 205 -233 104 -233
-102 0 -233 -45 -304 -106 -87 -73 -116 -174 -66 -228 28 -31 41 -33 50 -7 9
31 93 108 143 132 63 31 163 37 231 14 69 -22 151 -99 182 -167 50 -113 23
-252 -67 -342 -42 -41 -125 -86 -161 -86 -27 0 -29 -19 -9 -58 28 -53 107 -74
165 -44 22 12 42 18 45 14 12 -11 116 101 173 186 31 46 62 86 70 89 25 10 58
-34 123 -164 54 -107 65 -137 68 -190 4 -59 3 -62 -21 -68 -14 -4 -50 -2 -81
5 -92 19 -226 -13 -281 -68 -56 -56 -80 -138 -53 -181 11 -18 13 -18 47 10
159 127 378 84 476 -92 27 -48 30 -63 30 -139 0 -100 -21 -154 -86 -219 -59
-59 -118 -84 -211 -89 -43 -3 -78 -9 -78 -14 0 -37 71 -128 99 -128 6 0 14 -7
19 -17 9 -14 16 -15 71 -4 50 10 65 10 78 0 34 -29 -10 -168 -117 -374 -105
-201 -223 -345 -414 -504 -137 -115 -219 -161 -282 -161 -29 0 -30 12 -8 86
12 41 13 65 6 98 l-9 43 98 82 c90 75 215 204 281 292 27 35 27 36 18 125 -13
109 -44 291 -70 402 -11 46 -20 89 -20 95 0 7 56 27 129 46 144 37 182 56 211
103 61 100 13 225 -98 259 -39 11 -53 10 -180 -25 -75 -21 -144 -40 -153 -43
-13 -4 -23 12 -44 69 -42 111 -145 322 -207 425 l-56 92 116 83 c135 96 162
130 162 200 0 113 -94 194 -203 174 -19 -4 -86 -43 -152 -91 -93 -66 -122 -82
-130 -72 -6 6 -51 58 -100 115 -87 102 -261 268 -382 365 l-62 50 51 71 c132
187 144 214 125 287 -27 109 -156 159 -254 100 -25 -16 -157 -186 -192 -249
-6 -10 -28 -1 -87 36 -105 65 -241 134 -384 193 -92 39 -114 52 -112 66 2 10
19 73 38 140 40 144 41 174 11 227 -66 116 -216 121 -292 10 -11 -16 -36 -89
-55 -162 -22 -83 -39 -131 -46 -128 -35 13 -267 60 -379 77 -205 30 -204 30
-295 -46 -83 -69 -224 -213 -279 -286 l-34 -44 -66 3 c-40 2 -82 -2 -107 -10
-75 -27 -82 -2 -29 106 70 143 252 345 420 465 87 62 260 151 395 204 101 39
110 41 110 22 0 -11 6 -14 25 -9 21 5 25 3 25 -18 0 -28 32 -118 52 -147 24
-35 66 -62 104 -68 l36 -6 -7 41 c-23 136 85 300 224 339 58 16 149 9 206 -16z
m-980 -922 c12 -12 -111 -374 -126 -372 -131 19 -444 30 -452 16 -4 -6 -41
-163 -92 -389 -4 -20 -1 -20 206 -21 115 0 212 -3 215 -6 6 -6 -95 -326 -109
-344 -7 -10 -52 -11 -196 -6 l-187 6 -33 -129 c-18 -71 -46 -165 -62 -208 -16
-44 -29 -81 -29 -82 0 -1 64 0 143 3 79 3 164 3 188 -1 l45 -7 -37 -111 c-21
-61 -41 -114 -46 -118 -4 -4 -105 -38 -223 -75 -118 -38 -221 -73 -228 -79 -8
-5 -25 -31 -38 -58 -24 -47 -25 -48 -71 -48 -27 0 -65 -9 -90 -21 -63 -31 -68
-68 -19 -181 l15 -36 -81 -123 c-52 -79 -88 -145 -100 -184 -17 -58 -21 -63
-57 -73 -29 -9 -53 -30 -97 -82 -32 -39 -61 -70 -65 -70 -4 0 -23 7 -42 15
-22 9 -67 15 -112 15 -41 0 -75 2 -75 5 0 21 39 91 84 150 367 487 430 578
451 643 11 37 118 204 135 210 8 3 21 12 28 19 18 18 31 16 39 -4 14 -40 106
-95 132 -79 14 9 102 223 104 254 2 25 -1 27 -39 30 -23 2 -68 -6 -100 -17
-54 -18 -59 -18 -71 -3 -19 24 -10 81 38 252 41 144 86 261 121 312 l19 27 20
-20 c26 -26 94 -56 134 -61 l30 -3 22 105 c12 58 22 117 23 133 0 24 -3 27
-34 27 -19 0 -61 -8 -94 -19 -84 -26 -92 -19 -92 79 0 191 93 470 174 523 31
21 36 21 36 3 0 -16 61 -58 107 -74 29 -10 33 -9 38 11 4 12 34 77 67 144 l61
122 51 4 c79 6 364 3 371 -4z m254 -29 c148 -27 284 -59 295 -70 9 -9 -30
-138 -48 -156 -18 -18 -420 -144 -460 -144 -21 0 -36 5 -36 12 0 9 64 212 115
366 6 15 1 16 134 -8z m486 -160 c-28 -9 -62 -20 -77 -23 -26 -7 -26 -7 -16
31 6 20 12 40 14 44 2 4 32 -3 66 -14 l62 -21 -49 -17z m270 -82 c41 -21 64
-37 60 -45 -2 -7 -32 -98 -65 -202 -52 -159 -65 -190 -83 -195 -15 -4 -64 16
-157 63 -74 38 -156 76 -182 86 -27 10 -48 20 -48 24 0 3 14 47 31 98 l30 91
167 55 c92 30 170 55 174 56 4 1 37 -14 73 -31z m367 -217 c37 -25 64 -49 60
-52 -4 -3 -80 -29 -170 -58 -90 -29 -169 -54 -177 -57 -11 -4 35 158 80 284 5
13 80 -29 207 -117z m-930 39 c-9 -27 -20 -50 -25 -50 -15 0 -148 42 -145 46
7 6 153 52 170 53 15 1 15 -3 0 -49z m1029 -413 c-77 -237 -78 -237 -97 -216
-30 34 -212 181 -282 228 -35 23 -62 47 -60 53 2 5 66 30 143 54 77 24 192 61
255 82 63 22 116 39 117 38 1 -1 -33 -108 -76 -239z m431 -108 c-4 -3 -87 -32
-185 -63 -99 -32 -185 -60 -192 -62 -10 -4 71 279 111 385 3 10 48 -28 139
-119 74 -74 131 -137 127 -141z m-1926 161 c147 -30 314 -81 314 -95 0 -7 -12
-16 -27 -19 -26 -6 -445 -140 -477 -152 -10 -4 0 38 33 140 25 80 49 146 52
146 4 0 51 -9 105 -20z m613 -216 c58 -31 129 -71 157 -89 l51 -33 -33 -98
c-17 -54 -38 -102 -45 -107 -8 -4 -68 -25 -134 -46 l-120 -39 -55 33 c-30 18
-74 42 -96 54 l-42 20 53 163 53 163 43 17 c24 9 48 17 53 17 5 1 57 -24 115
-55z m-382 -143 l-38 -118 -56 22 c-30 13 -99 35 -152 50 -53 15 -103 30 -111
33 -14 4 346 129 380 131 12 1 8 -22 -23 -118z m1749 3 c-20 -54 -58 -172 -86
-261 -29 -90 -55 -163 -58 -163 -4 1 -37 45 -74 98 -37 53 -103 138 -146 188
l-79 90 66 19 c36 10 143 44 236 75 94 32 171 56 173 55 1 -1 -13 -47 -32
-101z m241 -193 l53 -85 -147 -48 c-82 -26 -149 -48 -149 -48 -1 0 88 286 112
359 5 15 35 -26 131 -178z m-1227 84 c0 -5 -104 -35 -107 -31 -2 1 4 24 13 49
l16 47 39 -31 c21 -17 39 -32 39 -34z m193 -173 l89 -89 -37 -119 c-21 -65
-43 -124 -49 -130 -6 -6 -53 -25 -105 -43 l-94 -30 -107 107 -106 107 32 100
32 100 118 42 c66 23 124 42 129 42 6 1 50 -39 98 -87z m-487 -78 c-15 -43
-23 -44 -68 -11 l-30 22 54 16 c29 9 54 16 56 15 1 -2 -4 -20 -12 -42z m-846
-75 c19 -6 42 -13 50 -16 8 -3 -59 -29 -150 -58 -90 -30 -166 -53 -167 -51 -2
2 30 105 51 163 5 11 124 -10 216 -38z m2508 -15 l33 -65 -53 -162 c-28 -89
-56 -167 -62 -173 -6 -6 -52 -25 -102 -41 l-90 -30 -38 91 c-21 50 -60 131
-87 180 -40 73 -48 94 -41 115 4 13 15 28 23 32 20 12 351 117 369 118 10 1
28 -24 48 -65z m-948 -100 c0 -9 -81 -38 -86 -31 -1 1 6 26 14 56 l15 54 28
-34 c16 -19 29 -39 29 -45z m-1355 9 c-4 -10 -44 -128 -89 -262 l-81 -245
-255 -82 c-140 -46 -256 -82 -257 -80 -1 1 35 116 81 256 l84 255 254 86 c139
47 257 86 262 87 4 1 5 -6 1 -15z m194 -70 c130 -80 291 -204 291 -223 0 -5
-14 -11 -30 -15 -17 -4 -133 -40 -258 -80 -124 -41 -227 -73 -229 -72 -4 4
140 437 145 437 3 0 39 -21 81 -47z m1283 -120 c25 -43 64 -115 87 -161 39
-78 41 -85 30 -122 -7 -22 -17 -44 -23 -49 -21 -16 -330 -113 -333 -105 -2 5
-25 49 -52 99 l-48 90 44 132 44 132 87 30 c48 16 94 30 103 30 9 1 34 -31 61
-76z m1223 -8 c0 -16 -5 -30 -11 -32 -15 -5 -54 58 -54 87 l0 23 33 -25 c22
-18 32 -34 32 -53z m-269 -24 c5 -24 2 -28 -32 -39 -21 -6 -39 -10 -41 -9 -1
2 7 34 20 71 l22 68 13 -32 c7 -18 15 -44 18 -59z m-3086 12 c0 -5 -37 -120
-83 -258 l-82 -249 -255 -83 c-140 -45 -255 -81 -256 -80 -6 6 159 474 175
496 16 21 60 40 248 103 233 78 253 84 253 71z m1732 -62 l-18 -53 -28 37
c-15 20 -26 38 -24 41 6 5 82 32 85 29 2 -1 -5 -25 -15 -54z m1408 -122 c21
-78 60 -274 66 -334 l6 -61 -178 -58 c-99 -32 -184 -61 -190 -63 -31 -12 -19
55 51 272 l73 230 74 27 c40 15 76 27 80 27 4 1 12 -18 18 -40z m-1825 -84
c79 -101 188 -276 177 -286 -4 -3 -70 -26 -147 -49 -77 -24 -168 -53 -203 -66
-34 -13 -67 -24 -72 -24 -5 0 5 39 21 88 16 48 52 161 81 252 28 91 53 168 55
173 7 12 20 0 88 -88z m-259 -77 c-23 -68 -61 -184 -85 -258 l-43 -135 -255
-83 c-140 -46 -257 -82 -258 -80 -2 2 34 118 79 258 l83 255 244 82 c134 44
251 82 260 82 13 1 9 -21 -25 -121z m1750 6 c-19 -54 -36 -92 -39 -84 -27 76
-46 144 -41 149 5 6 107 39 111 36 2 -1 -12 -46 -31 -101z m-438 -186 c37
-134 65 -271 60 -293 -2 -11 -47 -31 -138 -61 -74 -24 -136 -44 -137 -44 -1 0
16 53 38 118 22 64 58 178 80 252 23 74 43 138 46 143 10 18 22 -9 51 -115z
m-1930 78 c-2 -8 -39 -124 -83 -258 l-80 -245 -254 -82 c-139 -45 -255 -81
-257 -79 -1 2 34 118 80 258 l84 255 38 13 c238 81 452 150 462 151 8 1 12 -5
10 -13z m1683 -211 c-36 -113 -69 -205 -72 -205 -3 0 -13 35 -23 78 -10 42
-33 117 -52 167 -18 49 -32 90 -31 91 9 6 216 73 228 73 13 1 4 -37 -50 -204z
m-2333 1 c-2 -8 -39 -124 -83 -259 l-80 -244 -254 -82 c-139 -45 -255 -81
-257 -79 -1 2 34 118 80 258 l84 255 38 13 c89 31 460 151 467 151 5 1 7 -5 5
-13z m1668 -254 c-45 -139 -87 -257 -92 -261 -5 -5 -116 -43 -247 -85 -130
-42 -243 -79 -251 -82 -9 -3 16 86 69 252 l83 258 259 86 c142 47 259 85 260
85 1 0 -35 -114 -81 -253z m1774 39 c0 -98 -3 -192 -6 -209 -7 -34 -54 -65
-204 -132 -41 -19 -77 -35 -79 -36 -7 -6 31 -104 49 -125 35 -39 27 -56 -48
-103 -114 -71 -398 -134 -483 -106 -45 15 -53 32 -39 80 6 19 10 57 10 83 l0
48 -47 -6 c-46 -7 -223 -45 -223 -48 0 -1 9 -31 20 -67 34 -112 26 -133 -75
-182 -78 -39 -311 -101 -380 -102 l-60 -1 2 30 c0 17 4 65 9 109 l7 78 -24 -7
c-46 -13 -125 -43 -191 -74 -65 -29 -67 -31 -58 -56 15 -40 41 -88 56 -103 48
-48 -35 -126 -229 -217 -59 -27 -131 -72 -197 -124 -58 -45 -188 -141 -290
-214 -302 -216 -290 -212 -290 -99 -1 48 -6 86 -15 102 -8 14 -14 30 -15 37 0
6 33 39 74 73 42 35 79 74 85 90 7 22 20 32 52 41 23 7 94 48 158 91 63 43
120 78 126 78 5 0 35 -12 65 -26 33 -16 73 -26 100 -27 39 0 48 5 76 37 34 39
44 72 44 145 0 45 1 46 54 75 l53 29 72 223 72 223 102 33 c56 18 108 34 115
36 11 3 13 -30 10 -177 -2 -100 -1 -181 1 -181 2 0 43 13 90 30 48 16 140 43
205 59 65 17 121 32 124 35 2 3 0 76 -6 162 -7 102 -7 166 0 184 8 26 24 33
176 83 92 30 169 52 172 50 3 -3 5 -97 5 -209 0 -112 2 -204 5 -204 10 0 188
39 304 67 l109 25 -7 192 c-3 105 -9 207 -12 227 l-6 36 184 60 c100 34 186
61 191 62 4 1 7 -79 7 -178z m-1592 -51 c12 -47 24 -101 27 -121 l7 -37 -71
-21 c-39 -12 -77 -24 -85 -27 -9 -4 2 44 37 155 28 89 54 156 58 149 4 -7 16
-51 27 -98z m-2500 56 c-2 -7 -39 -125 -83 -260 l-80 -247 -60 -18 c-33 -10
-153 -49 -267 -85 l-206 -67 -7 -58 -7 -59 -54 -10 c-60 -12 -104 -37 -104
-58 0 -8 -5 -14 -11 -14 -7 0 -10 -40 -7 -123 3 -118 4 -125 32 -161 33 -44
79 -66 136 -66 46 0 45 -3 26 100 -22 119 -30 292 -14 311 18 23 500 182 496
164 -2 -7 -39 -124 -83 -258 l-80 -245 -142 -46 c-79 -26 -143 -51 -143 -56 0
-8 29 -89 35 -97 1 -2 48 13 104 32 61 20 101 29 98 22 -17 -44 -77 -239 -77
-249 0 -23 79 -112 85 -96 3 7 34 101 68 208 l62 194 35 10 c19 5 134 43 255
83 120 40 220 71 221 70 2 -1 -34 -117 -80 -257 l-82 -255 -208 -68 -207 -68
49 -40 c28 -21 58 -39 68 -39 11 0 71 18 134 39 63 22 116 38 117 37 2 -1 -11
-42 -27 -91 -17 -49 -30 -94 -30 -100 0 -12 90 -48 99 -40 3 4 26 67 51 141
l45 136 255 83 c140 47 255 83 257 81 1 -1 -34 -114 -80 -250 l-82 -249 -135
7 c-74 3 -167 12 -207 19 l-72 14 -6 -24 c-9 -38 6 -122 29 -155 30 -45 71
-66 152 -77 149 -22 221 15 238 119 18 118 11 107 68 113 28 4 55 10 60 15 4
4 44 120 88 257 45 138 84 253 88 256 10 9 506 168 510 164 2 -2 -6 -33 -18
-69 -20 -62 -27 -70 -133 -163 -62 -54 -187 -171 -280 -262 -137 -135 -166
-168 -161 -185 16 -52 38 -85 65 -96 16 -7 29 -18 29 -24 0 -19 -115 -123
-172 -156 -57 -32 -222 -87 -358 -119 -94 -22 -191 -34 -443 -56 -282 -25
-405 -59 -637 -175 -166 -83 -201 -91 -285 -60 -52 20 -77 40 -181 144 -181
180 -198 237 -117 381 46 83 114 244 141 335 31 102 50 229 67 435 20 254 42
382 91 535 24 72 101 222 131 255 16 17 54 60 85 97 31 37 59 64 62 61 3 -4 6
-1 6 5 0 7 6 12 13 12 9 0 11 -19 9 -69 l-4 -68 44 -22 43 -22 145 148 c134
137 289 304 351 379 18 22 48 39 100 57 89 30 91 31 87 13z m1742 -12 c0 -3
-33 -110 -74 -237 -41 -128 -77 -242 -81 -254 -3 -12 -17 -24 -33 -27 -15 -4
-130 -41 -256 -82 -125 -41 -230 -74 -231 -72 -2 2 33 118 78 257 l83 254 249
83 c268 88 265 87 265 78z m-650 -207 c0 -1 -37 -117 -83 -257 l-83 -255 -253
-83 c-139 -46 -254 -82 -256 -80 -2 2 33 117 78 257 l83 253 249 83 c245 81
265 88 265 82z m-652 -221 c-2 -8 -39 -124 -83 -259 l-80 -244 -254 -82 c-139
-45 -255 -81 -257 -79 -1 2 34 117 80 257 l82 253 225 73 c123 40 235 77 249
83 34 15 42 14 38 -2z m1671 -243 l-79 -238 -71 -38 c-52 -29 -431 -167 -457
-167 -2 0 -1 8 3 18 4 9 43 125 86 257 l77 240 249 82 c136 44 253 81 260 82
7 1 -22 -98 -68 -236z m-580 15 c-1 -7 -38 -123 -82 -257 l-82 -245 -254 -83
c-139 -46 -256 -82 -258 -79 -4 4 129 422 156 490 6 15 67 39 257 102 137 45
252 82 257 83 4 1 7 -5 6 -11z m-649 -200 c0 -2 -38 -118 -84 -258 l-83 -255
-252 -83 c-139 -46 -255 -82 -257 -79 -4 3 131 430 155 491 5 13 71 40 256
101 244 81 265 88 265 83z M1959 2413 c-1270 -1272 -1550 -1557 -1569 -1598
-35 -75 -34 -190 2 -267 31 -66 90 -127 156 -159 39 -19 63 -24 137 -24 79 0
97 4 145 29 45 23 312 285 1463 1434 1434 1433 1675 1677 1663 1689 -4 4 -47
2 -96 -4 -64 -8 -103 -19 -137 -39 -32 -18 -521 -499 -1468 -1444 -1528 -1524
-1470 -1470 -1572 -1470 -46 0 -99 22 -120 49 -7 9 -13 47 -13 86 l0 69 1393
1396 c765 768 1421 1430 1456 1471 82 95 111 157 118 254 3 41 2 75 -3 75 -5
0 -705 -696 -1555 -1547z M7071 3235 c-369 -80 -643 -347 -733 -712 -27 -110
-29 -301 -4 -410 81 -365 372 -654 735 -728 120 -25 295 -21 415 9 248 64 459
221 588 441 154 261 169 599 39 872 -136 284 -375 470 -679 529 -92 18 -276
17 -361 -1z m449 -234 c52 -18 115 -44 140 -58 126 -73 239 -188 296 -300 l29
-58 0 -275 0 -275 -29 -55 c-144 -276 -385 -420 -701 -420 -297 0 -538 133
-684 378 -63 105 -71 149 -71 383 0 187 2 214 21 261 66 168 229 325 417 400
122 48 181 58 342 54 132 -2 153 -6 240 -35z"/>
</g>
</svg>
