<?xml version="1.0" standalone="no"?>
<!DOCTYPE svg PUBLIC "-//W3C//DTD SVG 20010904//EN"
 "http://www.w3.org/TR/2001/REC-SVG-20010904/DTD/svg10.dtd">
<svg version="1.0" xmlns="http://www.w3.org/2000/svg"
 width="2048.000000pt" height="2048.000000pt" viewBox="0 0 2048.000000 2048.000000"
 preserveAspectRatio="xMidYMid meet">
<metadata>
Created by potrace 1.13, written by Peter Selinger 2001-2015
</metadata>
<g transform="translate(0.000000,2048.000000) scale(0.192120,-0.192120)"
fill="#000000" stroke="none">
<path d="M7990 10273 c-575 -19 -1214 -266 -1773 -684 -561 -420 -986 -917
-1252 -1464 -68 -140 -94 -201 -241 -563 -167 -411 -316 -645 -562 -884 -256
-248 -488 -390 -1117 -683 -517 -241 -784 -395 -1065 -614 -477 -372 -916
-918 -1176 -1466 -329 -694 -423 -1412 -265 -2021 208 -798 825 -1340 1671
-1469 58 -9 184 -19 280 -22 494 -16 1012 107 1528 366 617 309 1192 812 1568
1371 162 240 265 431 449 825 342 732 519 1006 823 1269 202 175 399 288 757
436 500 206 578 241 760 345 313 178 583 390 871 687 601 618 960 1311 1056
2038 16 124 16 469 -1 590 -68 501 -282 933 -641 1290 -450 448 -1027 674
-1670 653z m310 -223 c563 -58 1060 -343 1407 -805 215 -287 313 -486 379
-770 26 -112 28 -138 32 -387 4 -289 -4 -382 -54 -603 -65 -292 -220 -664
-396 -949 -55 -88 -229 -333 -296 -416 -163 -201 -411 -449 -607 -607 -339
-272 -560 -393 -1160 -638 -471 -192 -711 -341 -976 -605 -265 -264 -439 -540
-735 -1166 -312 -663 -447 -881 -764 -1239 -239 -271 -480 -481 -785 -684
-201 -134 -391 -231 -615 -314 -314 -117 -491 -166 -741 -202 -357 -52 -774
-42 -1012 25 -59 16 -115 34 -125 40 -9 5 -66 30 -127 56 -190 81 -280 131
-381 212 -294 235 -494 536 -607 912 -58 194 -59 205 -54 626 l4 389 31 145
c87 407 262 811 527 1220 329 508 792 943 1335 1255 128 73 350 184 725 362
507 241 734 386 984 628 185 180 310 342 438 570 58 103 122 245 257 573 234
567 409 850 763 1229 163 176 442 414 678 579 602 422 1278 626 1875 564z
M6220 8897 c-130 -37 -369 -266 -508 -488 -47 -75 -133 -251 -156 -322 -46
-139 11 -280 141 -343 147 -72 322 1 382 159 74 200 205 377 368 500 135 101
160 268 60 399 -61 80 -189 122 -287 95z m121 -227 c22 -12 26 -68 8 -103 -7
-12 -55 -67 -108 -122 -118 -122 -159 -177 -239 -320 -77 -139 -136 -205 -181
-205 -34 0 -71 15 -83 34 -4 6 -8 41 -8 78 0 62 4 76 53 171 30 57 81 140 114
183 62 80 182 202 240 242 65 46 160 65 204 42z M9528 8401 c-115 -45 -146
-93 -203 -315 -301 -1178 -965 -1930 -2077 -2351 -82 -30 -142 -60 -167 -81
-123 -106 -123 -312 1 -419 56 -47 125 -69 202 -63 108 9 541 194 791 338 818
472 1375 1162 1684 2087 89 268 144 493 138 568 -6 76 -34 131 -92 183 -80 70
-182 90 -277 53z m160 -326 c4 -131 -3 -166 -79 -397 -121 -370 -242 -623
-442 -923 -242 -362 -523 -651 -874 -897 -247 -174 -607 -360 -877 -454 -90
-31 -187 -33 -216 -4 -25 25 -26 72 -1 94 11 10 93 48 183 85 638 264 1112
623 1482 1125 257 348 452 765 591 1266 54 193 77 222 175 217 l55 -2 3 -110z
M8324 7974 c-75 -27 -119 -76 -184 -203 -112 -219 -233 -382 -427 -572 -199
-196 -403 -338 -632 -440 -122 -54 -161 -83 -197 -145 -35 -59 -44 -161 -21
-229 49 -143 207 -218 354 -169 85 29 233 102 362 179 453 271 844 691 1065
1145 47 97 51 109 50 175 -2 109 -47 187 -141 242 -56 33 -165 41 -229 17z
m140 -214 c25 -9 26 -13 26 -81 0 -65 -4 -78 -46 -156 -227 -424 -640 -821
-1082 -1041 -122 -61 -140 -67 -207 -70 -64 -4 -76 -1 -94 17 -25 25 -27 73
-5 96 9 9 71 43 138 77 401 200 759 534 988 922 34 55 76 125 96 154 51 78
119 108 186 82z M5414 7362 c-99 -35 -139 -83 -195 -239 -81 -226 -219 -470
-386 -683 -99 -124 -379 -402 -518 -513 -331 -264 -755 -509 -1165 -673 -249
-99 -622 -297 -722 -383 -61 -52 -92 -122 -92 -206 1 -83 17 -126 71 -185 53
-60 121 -90 203 -90 74 0 109 14 220 85 114 73 358 197 515 260 368 149 655
299 965 504 503 333 932 766 1200 1211 135 224 270 548 270 649 0 76 -27 140
-85 198 -80 79 -175 101 -281 65z m140 -218 c13 -5 16 -23 16 -96 0 -83 -3
-97 -46 -201 -129 -316 -386 -674 -705 -981 -381 -367 -883 -687 -1459 -929
-223 -93 -349 -154 -512 -245 -154 -87 -209 -106 -263 -91 -36 10 -65 42 -65
70 0 67 255 212 735 417 193 82 453 213 615 307 107 63 379 249 478 329 449
358 750 733 953 1189 82 184 90 197 124 218 29 18 97 25 129 13z M5398 5366
c-71 -19 -123 -61 -182 -145 -67 -96 -233 -256 -356 -343 -52 -37 -145 -93
-207 -123 -62 -31 -127 -70 -144 -88 -132 -132 -93 -360 76 -442 48 -24 64
-27 132 -23 70 3 89 9 185 56 328 162 702 493 815 721 21 43 27 69 27 120 -1
80 -19 125 -74 185 -71 77 -176 109 -272 82z m126 -229 c15 -11 18 -24 14 -69
-6 -72 -58 -147 -199 -283 -161 -156 -344 -286 -489 -347 -115 -48 -211 -41
-226 17 -12 49 2 69 78 109 216 115 389 255 580 467 43 48 92 93 110 102 40
20 108 22 132 4z M3745 4335 c-77 -21 -256 -99 -384 -166 -496 -260 -875 -671
-1094 -1185 -95 -221 -187 -524 -187 -612 0 -142 132 -272 275 -272 60 0 135
30 182 73 55 50 76 90 102 195 33 126 109 336 166 457 212 450 563 771 1048
961 109 42 164 83 205 152 23 41 27 58 27 127 0 65 -5 89 -25 128 -58 115
-194 176 -315 142z m119 -221 c22 -8 21 -72 -1 -103 -9 -14 -78 -54 -167 -97
-316 -152 -516 -300 -728 -538 -172 -194 -304 -431 -426 -765 -45 -123 -90
-228 -109 -255 -30 -42 -36 -46 -76 -46 -23 0 -53 7 -65 16 -20 14 -22 23 -22
112 0 90 4 108 51 247 55 164 168 407 244 525 159 248 376 470 625 638 148
100 333 194 495 253 49 18 148 25 179 13z M1756 4194 c-91 -29 -314 -270 -445
-482 -223 -359 -337 -774 -371 -1350 -13 -217 -8 -262 41 -335 53 -80 128
-119 230 -120 79 0 136 24 194 81 66 65 77 104 86 302 31 657 172 1049 501
1396 113 118 123 138 123 244 0 75 -3 91 -27 131 -32 54 -87 106 -135 125 -52
22 -141 26 -197 8z m138 -220 c12 -5 16 -20 16 -58 0 -59 -17 -88 -115 -201
-85 -98 -133 -171 -214 -327 -146 -279 -218 -563 -252 -993 -7 -97 -16 -155
-25 -166 -7 -8 -17 -33 -22 -54 -10 -48 -41 -68 -92 -60 -69 12 -70 17 -70
300 0 239 2 262 30 412 52 276 98 418 203 628 107 216 309 466 409 510 34 15
105 20 132 9z M2035 1806 c-103 -47 -147 -115 -171 -263 -20 -125 -24 -372 -6
-433 20 -67 71 -131 133 -165 47 -26 64 -30 134 -30 92 0 137 19 196 82 67 70
72 89 80 289 3 100 9 187 13 193 16 25 7 140 -14 188 -62 141 -227 204 -365
139z m159 -206 l26 -10 0 -177 c-1 -141 -4 -182 -15 -197 -8 -11 -15 -32 -15
-46 0 -14 -5 -31 -12 -38 -19 -19 -93 -15 -119 7 -23 19 -24 24 -27 203 -3
159 -1 187 14 216 24 44 92 64 148 42z"/>
</g>
</svg>
