<?xml version="1.0" standalone="no"?>
<!DOCTYPE svg PUBLIC "-//W3C//DTD SVG 20010904//EN"
 "http://www.w3.org/TR/2001/REC-SVG-20010904/DTD/svg10.dtd">
<svg version="1.0" xmlns="http://www.w3.org/2000/svg"
 width="2048.000000pt" height="2048.000000pt" viewBox="0 0 2048.000000 2048.000000"
 preserveAspectRatio="xMidYMid meet">
<metadata>
Created by potrace 1.13, written by Peter Selinger 2001-2015
</metadata>
<g transform="translate(0.000000,2048.000000) scale(0.192120,-0.192120)"
fill="#000000" stroke="none">
<path d="M1858 10048 c-41 -33 -234 -350 -332 -546 -164 -328 -236 -582 -236
-836 0 -117 -12 -197 -44 -299 -8 -26 -11 -45 -7 -42 24 14 367 -421 568 -721
126 -188 170 -210 798 -409 452 -144 692 -271 900 -480 233 -232 340 -447 590
-1185 112 -330 185 -514 261 -659 224 -424 499 -638 1164 -906 615 -248 804
-353 1033 -574 224 -215 389 -463 697 -1046 253 -479 306 -548 542 -710 308
-211 575 -423 746 -593 51 -50 90 -97 87 -102 -10 -17 10 -12 178 44 180 59
386 145 567 236 308 154 815 471 826 517 28 110 -89 296 -337 539 -221 216
-477 418 -896 708 -117 81 -229 166 -248 189 -72 83 -114 191 -270 682 -137
431 -259 667 -449 872 -227 243 -454 373 -1126 643 -396 159 -630 296 -826
482 -223 212 -362 449 -584 998 -61 151 -140 335 -175 407 -239 498 -517 760
-1015 956 -64 25 -240 84 -393 132 -311 96 -439 145 -520 199 -73 48 -91 71
-222 261 -283 416 -512 703 -744 936 -181 180 -272 251 -380 295 -62 26 -129
31 -153 12z m-56 -326 c229 -122 611 -548 1008 -1127 192 -279 185 -270 264
-323 93 -62 217 -111 512 -201 127 -39 273 -86 325 -105 445 -161 708 -356
931 -691 102 -154 189 -331 331 -680 214 -524 286 -661 466 -884 202 -251 487
-432 1021 -647 271 -109 401 -165 514 -221 357 -179 604 -407 775 -718 93
-170 133 -275 305 -816 70 -221 133 -359 193 -425 21 -23 119 -97 218 -165
589 -401 1002 -758 1165 -1006 40 -61 86 -161 77 -168 -6 -5 -246 17 -279 26
-29 7 -73 45 -197 168 -232 231 -424 388 -817 668 -317 227 -317 226 -393 323
-76 96 -113 188 -276 690 -132 403 -261 642 -459 848 -98 103 -248 218 -376
289 -180 101 -319 165 -668 307 -244 100 -320 133 -422 188 -479 256 -743 571
-990 1183 -215 533 -307 720 -453 915 -166 223 -313 344 -592 485 -157 80
-222 105 -616 233 -510 167 -521 175 -834 622 -227 324 -502 657 -704 854 -51
49 -98 101 -106 115 -12 24 -35 209 -35 284 0 25 3 27 23 22 12 -4 52 -23 89
-43z m-207 -326 c234 -157 595 -582 998 -1172 69 -101 134 -185 159 -205 72
-57 202 -116 402 -180 405 -129 535 -173 636 -216 398 -169 650 -396 863 -778
67 -120 118 -233 247 -550 202 -496 281 -643 459 -864 210 -261 478 -427 1091
-676 348 -142 528 -229 685 -333 284 -189 465 -407 611 -737 48 -108 94 -242
239 -695 26 -80 64 -183 86 -229 64 -138 99 -174 288 -304 491 -335 870 -642
1065 -862 74 -84 156 -197 156 -217 0 -4 -21 -8 -47 -8 -64 0 -123 -17 -152
-43 -12 -12 -36 -47 -52 -78 -35 -69 -54 -79 -82 -42 -197 254 -607 598 -1157
973 -248 169 -295 205 -404 310 -197 189 -285 341 -430 740 -151 414 -278 608
-545 831 -181 153 -380 273 -769 468 -456 228 -721 436 -965 755 -98 128 -170
251 -324 549 -250 485 -365 660 -573 867 -186 186 -357 288 -675 404 -401 145
-550 226 -726 394 -111 105 -189 202 -321 397 -329 486 -572 792 -830 1047
-87 86 -158 161 -158 166 0 5 29 29 65 53 78 54 95 88 95 194 0 41 3 75 8 75
4 0 30 -15 57 -34z m12 -848 c111 -115 357 -440 582 -767 147 -215 157 -231
139 -243 -19 -11 -26 -10 -110 18 -155 51 -203 96 -403 377 -55 76 -148 200
-208 275 l-109 137 4 111 c3 109 13 144 42 144 6 0 35 -24 63 -52z m2394
-2075 c165 -171 256 -312 471 -728 217 -421 351 -622 562 -842 247 -258 407
-370 886 -620 479 -250 596 -328 791 -522 125 -124 190 -215 254 -351 33 -71
40 -97 43 -160 l3 -75 -33 35 c-18 20 -53 60 -78 90 -218 263 -383 409 -623
552 -140 84 -274 146 -613 286 -456 188 -584 253 -763 387 -168 125 -274 254
-390 476 -74 141 -125 271 -253 649 -116 342 -184 519 -274 716 -90 197 -87
214 17 107z m3568 -4166 c99 -94 202 -177 326 -262 380 -261 704 -505 883
-664 101 -89 96 -122 -21 -152 -67 -16 -109 -2 -193 69 -38 32 -114 96 -169
142 -113 95 -361 282 -510 385 -170 118 -248 210 -357 424 -44 87 -58 131 -42
131 4 0 41 -33 83 -73z M1191 8232 c-26 -62 -159 -282 -233 -384 -105 -147
-251 -324 -385 -466 l-115 -123 21 -92 c81 -349 332 -704 646 -912 131 -87
228 -130 455 -200 118 -37 258 -85 310 -107 193 -82 358 -194 505 -342 174
-176 300 -391 560 -956 277 -603 366 -778 490 -965 208 -314 390 -428 1083
-674 155 -55 331 -121 391 -145 381 -156 577 -308 731 -568 66 -110 118 -243
181 -468 80 -286 103 -329 238 -443 47 -39 160 -139 250 -222 310 -283 396
-358 481 -421 101 -75 189 -121 264 -136 53 -11 60 -10 218 40 422 132 742
208 948 222 140 11 296 32 356 49 25 7 21 9 -21 8 -27 -1 -108 11 -180 27
-104 22 -145 27 -203 22 -96 -8 -129 -23 -185 -87 l-46 -53 -63 49 c-175 137
-411 310 -594 436 -112 77 -220 159 -240 182 -58 68 -120 207 -185 411 -168
529 -192 594 -290 788 -80 157 -164 272 -284 393 -225 226 -427 342 -1011 578
-495 200 -695 314 -906 516 -226 216 -354 432 -572 969 -128 315 -198 471
-261 583 -176 312 -375 517 -653 673 -180 101 -270 134 -852 321 -195 62 -334
125 -397 180 -24 20 -87 100 -140 178 -144 211 -292 414 -425 583 -73 94 -116
158 -113 167 4 8 38 24 78 35 42 13 84 32 101 48 57 53 83 159 68 279 l-7 60
-14 -33z m-201 -757 c36 -19 131 -137 272 -340 272 -391 320 -425 843 -596
359 -117 451 -152 594 -222 420 -206 648 -486 906 -1117 191 -467 274 -640
388 -812 160 -240 371 -442 611 -583 167 -99 297 -158 761 -350 776 -321 1022
-586 1275 -1379 194 -607 226 -660 535 -881 234 -167 294 -220 295 -258 0 -20
-78 -147 -90 -147 -4 0 -93 61 -199 135 -106 74 -232 162 -280 194 -49 33
-105 79 -125 103 -59 69 -122 206 -187 412 -163 515 -191 590 -280 769 -154
308 -360 522 -680 707 -124 72 -276 141 -597 272 -546 221 -727 325 -948 543
-230 226 -344 424 -568 978 -129 317 -194 460 -272 595 -162 277 -341 463
-591 612 -187 112 -306 157 -897 346 -194 61 -327 122 -394 179 -23 20 -81 94
-129 163 -133 194 -240 344 -358 503 l-108 144 69 22 c82 26 115 28 154 8z
m-182 -355 c32 -27 446 -609 438 -617 -12 -12 -120 55 -188 117 -150 137 -276
339 -286 456 -2 35 -1 64 4 64 5 -1 19 -9 32 -20z m1601 -1084 c118 -53 269
-140 344 -199 93 -71 236 -227 306 -333 84 -125 191 -341 281 -564 162 -402
275 -643 375 -799 214 -331 421 -522 767 -707 150 -80 247 -124 548 -246 646
-262 889 -432 1097 -767 67 -108 166 -340 218 -511 18 -58 58 -185 89 -283 51
-161 68 -252 50 -270 -9 -9 -46 19 -171 129 -185 163 -191 174 -283 474 -86
286 -168 447 -326 645 -128 160 -238 255 -428 368 -115 69 -322 168 -381 183
-5 1 -46 16 -90 33 -44 17 -91 33 -105 36 -65 12 -565 202 -673 256 -317 159
-437 330 -842 1209 -240 521 -342 710 -484 901 -118 158 -212 257 -370 389
-71 60 -111 99 -111 111 0 18 75 -4 189 -55z"/>
</g>
</svg>
