<?xml version="1.0" standalone="no"?>
<!DOCTYPE svg PUBLIC "-//W3C//DTD SVG 20010904//EN"
 "http://www.w3.org/TR/2001/REC-SVG-20010904/DTD/svg10.dtd">
<svg version="1.0" xmlns="http://www.w3.org/2000/svg"
 width="2048.000000pt" height="2048.000000pt" viewBox="0 0 2048.000000 2048.000000"
 preserveAspectRatio="xMidYMid meet">
<metadata>
Created by potrace 1.13, written by Peter Selinger 2001-2015
</metadata>
<g transform="translate(0.000000,2048.000000) scale(0.192120,-0.192120)"
fill="#000000" stroke="none">
<path d="M9000 10134 c-19 -8 -41 -21 -50 -28 -8 -7 -70 -18 -145 -24 -212
-19 -406 -70 -620 -162 -115 -49 -117 -49 -148 -33 -37 19 -113 21 -148 3 -61
-32 -99 -87 -99 -144 0 -28 -6 -38 -32 -54 -23 -13 -44 -18 -70 -15 -53 7
-137 -21 -185 -62 -42 -36 -93 -123 -93 -160 0 -13 -28 -44 -81 -89 -258 -219
-578 -568 -818 -891 -69 -93 -90 -115 -139 -141 -67 -36 -102 -86 -102 -151 0
-36 -15 -65 -115 -218 -122 -186 -266 -392 -322 -462 -26 -32 -41 -43 -62 -43
-57 0 -129 -70 -140 -135 -5 -32 -11 -39 -44 -50 -78 -27 -117 -84 -117 -173
l0 -59 -81 -94 c-45 -52 -143 -161 -219 -244 l-138 -150 -50 3 c-101 7 -176
-65 -179 -172 l-1 -61 -124 -120 c-122 -119 -397 -370 -481 -439 -41 -33 -45
-35 -80 -24 -46 14 -102 -1 -147 -38 -42 -36 -60 -74 -60 -130 0 -28 -6 -51
-14 -58 -8 -6 -96 -74 -197 -150 l-182 -139 -81 -12 c-91 -14 -149 -37 -214
-84 -47 -35 -117 -134 -127 -181 -5 -24 -36 -50 -158 -137 -281 -198 -660
-476 -806 -590 l-145 -113 -71 0 c-87 0 -157 -31 -210 -93 -36 -42 -65 -117
-65 -170 0 -22 -13 -40 -58 -80 -176 -158 -432 -427 -527 -555 -30 -40 -47
-53 -81 -61 -77 -20 -143 -97 -144 -168 -1 -23 -9 -32 -42 -48 -92 -44 -130
-144 -93 -241 l17 -45 -35 -107 c-61 -184 -72 -255 -71 -457 0 -116 6 -208 16
-260 13 -68 13 -84 2 -112 -36 -85 -2 -213 70 -268 23 -17 49 -57 81 -123 71
-147 148 -256 259 -367 271 -270 624 -412 1151 -465 137 -14 555 -14 712 0
714 64 1485 387 2297 964 128 91 129 91 190 91 100 1 166 56 182 153 5 34 15
49 48 74 72 56 288 240 390 332 l98 89 52 -1 c94 -4 169 62 182 159 4 28 12
49 19 49 19 0 83 69 90 97 3 14 86 110 184 212 98 102 219 232 270 287 75 83
98 102 126 107 72 12 135 86 135 159 1 26 16 51 76 123 464 552 1111 1375
1344 1708 50 71 56 77 89 77 115 0 205 121 168 226 l-14 41 119 179 c334 504
583 964 758 1401 47 120 62 146 90 165 18 13 42 35 53 50 27 36 33 114 14 160
-14 33 -14 42 -1 85 63 204 146 595 179 843 22 162 31 518 16 660 -10 100 -10
120 4 152 31 74 12 154 -48 204 -21 17 -44 57 -68 115 -120 290 -352 501 -648
589 -51 15 -81 30 -95 47 -24 31 -90 63 -131 62 -16 0 -46 -7 -65 -15z m137
-273 c211 -83 303 -108 410 -110 l31 -1 19 -97 c15 -81 18 -148 18 -378 0
-299 -10 -411 -62 -685 -27 -144 -30 -181 -18 -247 9 -50 -6 -95 -42 -123 -19
-15 -32 -48 -59 -152 -80 -301 -216 -659 -367 -966 -42 -84 -43 -88 -30 -126
25 -72 -20 -154 -95 -173 -31 -8 -43 -24 -126 -168 -147 -256 -338 -555 -515
-809 -57 -81 -62 -92 -56 -126 12 -72 -41 -147 -112 -157 -36 -5 -44 -14 -160
-173 -67 -92 -179 -240 -248 -330 l-126 -162 15 -33 c35 -73 6 -153 -67 -189
-32 -15 -45 -16 -79 -8 -37 10 -42 9 -64 -16 -13 -15 -27 -38 -30 -52 -21 -88
-47 -123 -100 -136 -14 -4 -72 -67 -145 -157 -302 -373 -568 -687 -753 -890
l-89 -98 -1 -58 c-3 -113 -84 -200 -194 -209 l-57 -5 -215 -207 c-118 -114
-250 -239 -292 -276 -61 -55 -77 -75 -78 -97 0 -69 -63 -127 -135 -127 -36 0
-53 -11 -180 -116 -447 -370 -963 -712 -1413 -935 -116 -58 -182 -96 -182
-106 0 -33 -33 -81 -69 -101 -48 -27 -86 -28 -134 -2 l-38 21 -92 -35 c-217
-81 -510 -157 -737 -190 -314 -46 -748 -48 -1047 -5 l-82 12 -35 66 c-19 37
-85 131 -146 211 -61 79 -140 191 -174 249 -35 58 -78 130 -97 160 l-34 54 -3
372 -4 372 41 157 c23 87 41 181 41 210 0 40 5 57 20 71 11 10 20 26 20 37 0
10 66 84 153 172 330 333 587 608 682 734 82 108 108 135 145 151 146 67 368
211 655 427 39 29 162 119 275 201 168 120 232 174 351 293 145 145 146 145
280 212 254 127 336 185 504 354 85 87 168 161 192 173 23 11 45 25 48 31 4 6
51 40 106 77 55 36 139 100 187 141 129 112 319 306 387 397 33 44 75 94 92
112 18 17 33 35 33 40 0 5 12 16 28 25 15 9 43 31 62 50 20 18 70 61 112 95
117 95 283 291 386 456 23 38 42 75 42 82 0 7 6 18 14 24 8 7 17 22 20 35 3
12 72 87 153 167 82 79 176 178 209 219 95 117 293 422 437 672 11 18 47 63
82 101 82 88 216 267 288 383 125 202 211 295 371 399 93 60 134 96 256 224
80 84 162 162 183 173 21 10 82 53 135 95 104 81 148 105 227 123 27 6 54 15
60 19 18 16 318 108 415 129 52 11 156 28 230 37 74 9 151 20 170 25 62 15
147 11 197 -9z m608 -1791 c-17 -94 -42 -210 -90 -410 -14 -58 -29 -143 -34
-190 -5 -47 -16 -98 -25 -115 -9 -16 -16 -39 -16 -49 0 -11 -13 -40 -29 -65
-34 -53 -91 -172 -151 -316 -108 -258 -294 -599 -544 -1000 -158 -252 -166
-266 -246 -425 -58 -114 -71 -132 -151 -208 -63 -59 -146 -161 -295 -360 -236
-315 -442 -577 -789 -1002 -132 -162 -292 -362 -354 -445 -73 -95 -166 -201
-256 -290 -193 -192 -399 -417 -512 -560 -114 -143 -127 -155 -268 -250 -132
-89 -321 -250 -505 -429 -74 -72 -148 -138 -165 -146 -16 -8 -32 -18 -35 -21
-3 -4 -32 -20 -66 -37 -34 -17 -143 -85 -244 -152 -305 -203 -468 -299 -732
-431 -203 -102 -526 -234 -610 -249 -118 -22 -28 99 133 180 445 224 901 524
1409 929 63 50 147 107 186 127 75 37 139 96 197 181 19 29 93 108 164 176
309 297 322 308 402 345 41 19 91 45 111 58 64 43 154 178 189 284 6 19 45 73
87 120 118 134 314 364 529 625 247 300 453 519 514 547 58 26 137 106 162
165 34 79 49 126 49 158 0 17 12 48 28 71 64 95 319 422 356 458 23 21 65 62
94 90 62 58 90 102 130 207 19 50 78 150 175 295 79 120 193 300 253 399 133
224 156 257 213 320 71 79 89 101 111 144 28 56 47 118 52 171 3 28 40 126 93
245 48 110 98 232 112 270 14 39 33 88 43 110 10 22 44 124 75 225 31 102 63
201 70 220 30 81 84 228 95 260 7 19 16 87 20 150 5 63 20 178 34 255 15 77
30 158 34 180 4 22 8 -131 10 -340 3 -320 1 -395 -13 -475z m-6488 -7232 c-3
-8 -6 -5 -6 6 -1 11 2 17 5 13 3 -3 4 -12 1 -19z M8501 9234 c-76 -97 -37
-255 83 -339 56 -39 60 -40 141 -40 77 0 87 2 127 30 23 17 45 39 47 50 5 27
-25 44 -64 38 -114 -18 -255 95 -255 204 0 82 -38 109 -79 57z M7178 8881
c-76 -71 -116 -145 -131 -244 -47 -302 263 -548 551 -439 69 26 151 88 158
119 11 41 -6 47 -93 33 -60 -10 -90 -10 -131 -1 -116 25 -209 98 -259 206 -24
51 -28 72 -28 145 1 72 5 94 29 144 21 44 26 63 19 75 -21 33 -49 24 -115 -38z
M6910 7510 c-48 -51 -57 -145 -22 -231 16 -41 70 -97 121 -127 39 -23 57 -27
123 -27 69 0 80 3 120 30 30 21 44 39 46 58 2 15 0 28 -5 28 -4 1 -37 2 -73 3
-129 4 -240 105 -240 220 0 27 -6 51 -16 60 -21 21 -21 21 -54 -14z M8177
7393 c-89 -100 -44 -281 90 -360 67 -39 171 -44 233 -11 25 14 52 37 60 52 14
25 13 28 -4 41 -12 9 -33 12 -65 8 -116 -13 -232 91 -249 223 -6 49 -11 60
-28 62 -11 2 -28 -5 -37 -15z M5898 6703 c-34 -75 -30 -165 11 -247 32 -65 71
-104 141 -142 27 -15 56 -19 125 -19 81 0 95 3 144 30 58 32 112 91 136 148
35 85 9 106 -63 49 -89 -69 -206 -81 -296 -28 -72 42 -113 107 -125 201 -5 42
-10 51 -29 53 -18 3 -26 -5 -44 -45z M6924 6004 c-115 -114 -135 -295 -52
-458 34 -66 122 -150 196 -187 62 -31 74 -34 162 -34 77 0 104 4 143 22 84 39
76 83 -19 95 -125 16 -244 110 -312 247 -31 63 -38 88 -41 152 -2 48 2 96 12
127 27 92 -16 110 -89 36z M5627 5563 c-49 -55 -60 -157 -26 -233 71 -157 278
-213 392 -107 50 47 32 66 -64 70 -59 3 -82 8 -114 29 -79 50 -114 104 -123
190 -6 53 -10 63 -28 66 -11 2 -28 -5 -37 -15z M4404 5281 c-56 -40 -92 -86
-128 -161 -29 -60 -31 -73 -31 -170 0 -98 2 -110 32 -171 60 -122 171 -205
305 -230 114 -21 250 18 337 96 72 65 49 100 -52 78 -161 -34 -326 48 -396
197 -22 47 -26 69 -26 150 0 84 3 102 28 153 23 46 26 61 17 72 -18 22 -42 18
-86 -14z M5598 4248 c-26 -41 -38 -90 -38 -158 0 -146 104 -266 252 -289 54
-9 137 3 181 25 48 26 107 86 133 136 45 88 22 122 -45 69 -56 -45 -108 -64
-172 -64 -131 -1 -244 103 -250 229 -4 72 -33 96 -61 52z M3024 4176 c-108
-50 -174 -151 -174 -267 0 -126 58 -222 168 -276 47 -23 70 -28 133 -28 123 1
177 55 79 80 -65 17 -102 38 -143 84 -34 38 -67 119 -67 166 0 56 32 127 81
178 27 28 49 59 49 69 0 26 -63 24 -126 -6z M4349 3648 c-12 -13 -33 -48 -47
-78 -21 -45 -26 -70 -27 -135 0 -185 118 -342 306 -405 125 -43 275 -11 359
75 28 29 32 39 24 53 -10 14 -28 17 -120 17 -107 0 -110 1 -182 39 -81 44
-176 137 -210 208 -27 55 -44 142 -36 183 4 23 1 37 -11 48 -22 22 -30 21 -56
-5z M1828 2924 c-26 -19 -65 -63 -88 -96 -55 -83 -73 -151 -68 -252 7 -129 60
-228 161 -303 159 -117 371 -108 514 21 38 35 44 46 38 65 -7 22 -10 23 -54
15 -25 -5 -80 -8 -121 -8 -61 1 -86 6 -134 29 -76 36 -140 100 -174 173 -23
49 -27 70 -27 147 0 78 4 98 29 152 23 52 26 65 16 78 -19 23 -40 18 -92 -21z
M3331 2499 c-103 -142 -35 -365 135 -440 132 -59 304 0 377 129 26 47 28 55
15 68 -12 13 -23 10 -82 -21 -109 -57 -209 -46 -296 32 -58 52 -82 107 -82
188 0 94 -21 108 -67 44z"/>
</g>
</svg>
