<?xml version="1.0" standalone="no"?>
<!DOCTYPE svg PUBLIC "-//W3C//DTD SVG 20010904//EN"
 "http://www.w3.org/TR/2001/REC-SVG-20010904/DTD/svg10.dtd">
<svg version="1.0" xmlns="http://www.w3.org/2000/svg"
 width="2048.000000pt" height="2048.000000pt" viewBox="0 0 2048.000000 2048.000000"
 preserveAspectRatio="xMidYMid meet">
<metadata>
Created by potrace 1.13, written by Peter Selinger 2001-2015
</metadata>
<g transform="translate(0.000000,2048.000000) scale(0.192120,-0.192120)"
fill="#000000" stroke="none">
<path d="M8215 10320 c-332 -49 -716 -319 -875 -612 -23 -43 -45 -78 -49 -78
-4 0 -65 25 -137 56 -278 121 -695 242 -1025 298 -437 75 -961 86 -1399 30
-1305 -167 -2483 -875 -3252 -1953 -266 -373 -500 -840 -643 -1281 -93 -288
-165 -631 -202 -952 -25 -217 -25 -779 0 -996 51 -444 160 -882 317 -1265 33
-82 66 -160 74 -175 l14 -27 -81 -43 c-199 -106 -401 -328 -518 -567 -213
-438 -109 -912 319 -1445 101 -126 432 -456 556 -555 376 -299 713 -437 1031
-422 254 13 464 101 697 294 135 112 232 229 293 354 l28 57 66 -30 c573 -259
1239 -398 1901 -398 1145 0 2221 401 3090 1151 1036 894 1630 2195 1630 3568
0 509 -75 984 -230 1463 -45 140 -150 411 -184 476 l-14 27 81 43 c101 54 195
129 282 225 481 531 456 1111 -75 1777 -108 135 -435 462 -570 570 -286 228
-559 364 -813 405 -96 16 -227 18 -312 5z m392 -362 c-3 -8 -6 -5 -6 6 -1 11
2 17 5 13 3 -3 4 -12 1 -19z m51 6 c141 -22 434 -192 632 -367 304 -270 538
-548 662 -788 l43 -84 3 -310 c2 -290 -3 -354 -25 -332 -4 4 -10 90 -14 190
-7 206 -21 267 -99 437 -111 241 -274 464 -515 705 -183 184 -402 359 -550
441 -38 21 -71 41 -73 45 -2 5 -19 13 -38 19 -19 6 -34 16 -34 20 0 5 -7 7
-15 4 -10 -4 -15 0 -15 16 0 14 4 19 13 13 6 -4 18 -8 25 -9z m-3033 -224
c490 -33 818 -106 1425 -319 170 -60 220 -64 296 -26 27 14 52 25 56 25 9 0
58 -45 58 -54 0 -4 19 -33 41 -64 69 -95 187 -203 319 -292 275 -185 447 -325
715 -584 151 -147 373 -419 539 -662 119 -175 218 -286 294 -331 23 -14 43
-30 43 -36 1 -7 1 -57 0 -112 -2 -94 0 -106 39 -215 134 -374 162 -463 215
-685 18 -77 45 -209 59 -293 26 -154 26 -155 26 -759 0 -603 0 -606 -26 -756
-89 -530 -264 -1026 -514 -1457 -98 -170 -260 -412 -364 -544 -426 -544 -1003
-994 -1646 -1284 -771 -348 -1629 -473 -2474 -361 -200 26 -328 51 -535 105
-159 41 -267 75 -604 193 -137 48 -204 53 -268 20 -59 -30 -77 -23 -127 49
-86 123 -192 223 -359 337 -290 199 -448 328 -671 548 -234 231 -376 403 -572
692 -110 162 -207 272 -290 328 -25 17 -49 38 -55 46 -5 9 -9 70 -10 136 l0
120 -67 180 c-122 331 -184 553 -240 861 l-33 179 0 605 c0 675 -2 655 80
1020 222 986 797 1866 1631 2498 114 85 378 257 509 330 756 421 1643 619
2510 562z m2830 -47 c231 -64 454 -207 709 -453 320 -310 500 -595 547 -867
16 -94 6 -261 -21 -348 -37 -118 -114 -251 -213 -368 l-24 -29 -57 101 c-179
316 -424 631 -730 937 -308 308 -619 550 -944 734 l-92 53 32 29 c85 73 248
170 333 198 135 45 326 50 460 13z m-7191 -6763 c108 -189 266 -413 444 -630
123 -149 444 -470 594 -593 209 -173 472 -357 661 -462 l68 -37 -33 -29 c-113
-97 -268 -183 -388 -216 -91 -25 -299 -24 -395 1 -243 64 -479 219 -755 496
-279 278 -431 509 -496 755 -29 108 -27 316 4 415 26 83 69 172 115 240 27 39
120 160 123 160 1 0 27 -45 58 -100z m-569 -680 c55 -250 177 -492 380 -755
101 -133 399 -425 535 -526 136 -102 198 -141 316 -204 49 -26 95 -52 102 -58
21 -17 -2 -29 -32 -17 -15 5 -32 8 -37 4 -5 -3 -9 -1 -9 3 0 5 -8 9 -19 10
-24 2 -196 87 -297 147 -208 124 -568 461 -745 696 -79 105 -184 283 -214 363
-25 67 -25 71 -25 361 0 161 3 296 8 300 4 4 10 -50 13 -121 4 -70 14 -162 24
-203z m1362 -1572 c-3 -8 -6 -5 -6 6 -1 11 2 17 5 13 3 -3 4 -12 1 -19z M5010
9339 c-1152 -99 -2187 -684 -2894 -1634 -191 -257 -321 -482 -459 -795 -142
-322 -254 -731 -297 -1080 -8 -65 -10 -242 -7 -560 4 -447 5 -470 30 -605 109
-595 337 -1146 675 -1635 620 -897 1568 -1509 2607 -1684 264 -44 355 -51 670
-51 320 1 440 11 715 61 824 151 1604 585 2173 1209 291 319 494 614 679 990
175 357 294 722 365 1120 l28 160 0 495 c0 540 1 531 -65 844 -100 472 -313
971 -586 1376 -669 994 -1665 1618 -2824 1770 -188 25 -627 35 -810 19z m690
-249 c1224 -122 2311 -830 2922 -1905 209 -367 362 -803 433 -1229 39 -237 49
-362 49 -626 0 -265 -10 -389 -50 -630 -187 -1126 -891 -2120 -1899 -2678
-930 -516 -2049 -611 -3060 -261 -869 300 -1599 909 -2057 1714 -251 442 -413
957 -470 1495 -15 148 -15 572 0 720 88 830 404 1546 957 2170 307 347 749
676 1177 879 459 218 872 322 1443 365 83 6 443 -3 555 -14z M4735 8723 c-139
-19 -260 -102 -391 -268 -46 -59 -89 -98 -149 -136 -73 -46 -150 -133 -191
-216 -38 -76 -39 -80 -39 -188 0 -94 4 -118 24 -165 49 -114 127 -200 231
-254 81 -42 146 -56 261 -56 60 0 102 -5 122 -15 18 -8 86 -65 152 -126 150
-138 183 -158 288 -173 82 -12 82 -12 47 -24 -19 -7 -46 -21 -60 -31 l-24 -19
209 -214 c222 -225 363 -391 413 -486 31 -58 71 -190 162 -532 151 -568 259
-772 571 -1076 280 -272 535 -399 829 -411 288 -13 587 112 816 342 115 114
236 322 302 520 55 165 67 243 66 430 -1 151 -4 181 -28 270 -34 129 -117 297
-200 406 -78 104 -243 262 -354 342 -230 165 -420 238 -872 333 -512 107 -557
120 -685 191 -168 94 -401 271 -567 431 -46 45 -60 53 -71 43 -12 -10 -16 -4
-21 36 -12 83 -49 142 -175 277 -134 145 -128 133 -139 316 -6 93 -12 126 -33
170 -49 106 -177 220 -289 259 -58 20 -154 31 -205 24z m194 -172 c56 -29 112
-86 141 -146 20 -40 24 -66 24 -130 0 -80 -9 -112 -51 -178 l-18 -29 266 -263
267 -263 -9 -43 c-5 -24 -8 -105 -8 -179 l1 -135 -98 -12 c-55 -6 -139 -20
-187 -29 l-88 -18 -273 273 -273 273 -38 -26 c-149 -102 -369 -32 -448 143
-32 71 -30 179 6 253 52 105 146 168 265 176 l72 5 0 57 c0 78 24 141 76 199
93 103 251 134 373 72z m925 -1337 c270 -191 420 -275 572 -318 49 -14 227
-55 396 -91 347 -74 459 -104 606 -163 299 -120 578 -364 705 -617 58 -115 59
-123 55 -435 l-3 -285 -29 -79 c-65 -179 -174 -354 -283 -457 -200 -190 -492
-292 -744 -261 -117 14 -196 39 -324 102 -270 134 -550 421 -700 720 -58 114
-105 257 -195 584 -44 164 -93 330 -107 370 -54 151 -126 271 -248 411 -141
163 -161 205 -107 226 100 39 203 124 244 202 9 17 21 37 25 42 9 12 29 53 36
76 8 26 37 18 101 -27z M3145 6714 c-161 -24 -289 -68 -404 -139 -238 -147
-403 -388 -451 -661 -20 -114 -9 -328 24 -437 98 -327 352 -578 680 -667 144
-40 365 -42 406 -5 46 42 22 89 -149 295 -210 251 -299 411 -323 580 -10 65
-9 91 6 165 31 161 110 299 306 535 151 181 182 229 178 271 -2 26 -10 37 -32
48 -30 14 -183 23 -241 15z m-45 -227 c0 -12 -38 -79 -84 -148 -86 -129 -147
-240 -187 -339 -19 -47 -23 -79 -26 -230 -4 -167 -3 -179 21 -253 35 -107 105
-239 194 -365 120 -172 121 -195 6 -175 -124 22 -293 119 -392 227 -62 69
-133 181 -164 261 -22 56 -23 73 -23 290 l0 230 29 65 c70 153 189 282 347
373 57 32 213 87 252 87 21 0 27 -5 27 -23z M4363 6146 c-253 -62 -440 -317
-419 -571 24 -298 260 -520 551 -519 297 1 532 221 552 516 18 262 -158 506
-413 573 -69 18 -198 18 -271 1z m331 -205 c76 -37 150 -104 172 -156 18 -45
20 -300 1 -341 -40 -93 -137 -181 -231 -210 -201 -62 -409 12 -506 181 -30 52
-30 54 -30 199 l0 147 30 44 c33 48 96 103 150 130 72 37 113 45 230 42 107
-2 120 -5 184 -36z M3299 4204 c-56 -17 -133 -82 -161 -137 -29 -57 -35 -151
-14 -214 50 -150 227 -228 371 -164 101 45 156 124 163 235 6 94 -20 158 -90
221 -77 70 -170 90 -269 59z m161 -189 c26 -14 30 -21 30 -60 0 -60 -16 -91
-57 -110 -42 -20 -92 -13 -134 18 -26 19 -29 27 -29 79 0 56 1 58 33 72 43 19
121 20 157 1z M6896 3920 c-58 -23 -119 -78 -149 -135 -17 -31 -22 -57 -22
-120 0 -70 4 -87 30 -134 55 -99 151 -148 270 -139 141 12 244 123 245 264 0
113 -48 198 -141 248 -70 38 -163 45 -233 16z m182 -186 c18 -12 22 -25 22
-68 0 -44 -5 -58 -26 -80 -22 -21 -36 -26 -79 -26 -45 0 -58 5 -84 29 -27 25
-31 36 -31 80 0 49 2 53 33 66 44 19 137 19 165 -1z M4723 3868 c-91 -101
-163 -364 -149 -545 18 -233 112 -432 280 -590 175 -164 372 -243 611 -243
239 0 440 80 612 244 158 150 271 367 218 419 -25 26 -83 21 -263 -23 -248
-59 -346 -74 -476 -67 -213 9 -343 89 -474 290 -49 74 -81 138 -187 362 -79
168 -122 207 -172 153z m84 -338 c10 -10 37 -54 60 -97 178 -331 348 -491 574
-538 103 -22 252 -18 399 9 131 24 150 24 150 -2 0 -29 -112 -125 -190 -165
-111 -56 -162 -68 -300 -74 -164 -7 -250 10 -385 77 -124 62 -206 134 -279
244 -84 127 -96 174 -96 366 0 92 4 170 10 181 14 24 34 24 57 -1z"/>
</g>
</svg>
