<?xml version="1.0" standalone="no"?>
<!DOCTYPE svg PUBLIC "-//W3C//DTD SVG 20010904//EN"
 "http://www.w3.org/TR/2001/REC-SVG-20010904/DTD/svg10.dtd">
<svg version="1.0" xmlns="http://www.w3.org/2000/svg"
 width="2048.000000pt" height="2048.000000pt" viewBox="0 0 2048.000000 2048.000000"
 preserveAspectRatio="xMidYMid meet">
<metadata>
Created by potrace 1.13, written by Peter Selinger 2001-2015
</metadata>
<g transform="translate(0.000000,2048.000000) scale(0.192120,-0.192120)"
fill="#000000" stroke="none">
<path d="M5111 9000 c-161 -34 -270 -100 -413 -249 -83 -88 -108 -107 -180
-141 -118 -56 -222 -82 -343 -83 l-100 -1 -93 53 c-138 80 -242 113 -378 119
-132 5 -231 -16 -346 -73 -221 -111 -367 -292 -479 -592 -59 -159 -131 -247
-224 -273 -63 -18 -100 -9 -196 46 -137 77 -226 106 -349 111 -90 4 -114 2
-170 -17 -220 -74 -413 -320 -475 -605 -10 -44 -23 -102 -31 -130 -43 -160
-309 -433 -626 -641 -148 -98 -228 -197 -306 -376 -39 -92 -51 -171 -40 -260
23 -177 167 -441 359 -659 l58 -66 -83 -164 c-191 -381 -278 -693 -279 -1004
-1 -239 43 -418 155 -636 413 -805 1682 -1403 3443 -1623 426 -54 750 -75
1265 -83 1671 -25 3096 196 3930 611 569 284 891 642 995 1111 25 112 30 368
10 510 -45 328 -158 661 -355 1052 l-107 212 66 48 c96 70 253 225 322 316
110 146 159 269 159 397 0 87 -18 157 -65 250 -71 141 -169 233 -325 307 -198
93 -225 109 -286 166 -35 32 -73 79 -85 104 l-22 46 23 118 c37 194 19 305
-66 399 -47 51 -98 85 -173 113 -51 19 -78 21 -276 22 -148 0 -229 5 -248 13
-50 21 -98 59 -129 101 l-31 42 -3 157 c-4 147 -6 163 -35 242 -37 97 -75 158
-123 195 -72 55 -232 92 -352 81 -67 -6 -112 -16 -269 -60 -149 -41 -355 64
-455 233 -79 133 -159 212 -270 264 -57 27 -79 31 -171 35 -128 5 -214 -14
-383 -84 -327 -135 -439 -166 -528 -145 -74 17 -111 45 -166 126 -113 168
-266 293 -416 341 -90 29 -255 41 -335 24z m319 -198 c88 -37 189 -111 244
-179 83 -101 184 -191 250 -223 157 -78 362 -41 687 121 86 43 185 85 220 94
180 47 345 -37 463 -236 142 -240 245 -314 451 -326 74 -5 107 -1 175 17 117
30 269 38 344 16 111 -33 179 -136 216 -331 48 -252 82 -328 180 -400 84 -61
147 -75 343 -75 201 1 256 -11 318 -67 22 -20 52 -60 66 -87 24 -46 27 -66 34
-217 9 -201 13 -227 50 -306 45 -95 107 -145 309 -249 186 -96 257 -160 322
-292 28 -57 34 -80 36 -153 5 -102 -12 -173 -64 -267 -57 -105 -112 -169 -233
-270 -140 -118 -166 -145 -187 -200 -27 -68 -15 -117 86 -342 143 -317 230
-546 230 -599 0 -11 9 -65 20 -121 18 -89 20 -142 20 -431 0 -308 -1 -333 -21
-391 -51 -152 -154 -320 -272 -445 -64 -68 -181 -163 -292 -237 -115 -77 -405
-223 -577 -290 -406 -158 -986 -290 -1608 -366 -918 -112 -2081 -129 -2955
-44 -1625 158 -2937 672 -3440 1350 -106 141 -183 296 -220 439 -22 86 -21
524 1 633 25 121 80 282 166 482 91 214 118 290 118 338 0 48 -48 133 -144
254 -194 245 -260 379 -260 533 -1 69 4 89 31 148 63 133 131 203 338 352 157
112 208 155 313 258 111 109 204 229 243 312 19 40 37 109 54 209 28 167 58
263 104 335 69 107 196 193 305 206 94 12 173 -7 455 -110 141 -51 231 -43
346 33 123 81 167 138 259 335 113 241 224 379 384 476 92 55 146 71 246 71
109 0 167 -17 331 -95 109 -53 152 -68 199 -73 34 -3 63 -8 66 -13 8 -11 150
7 241 32 89 24 227 91 292 141 23 17 77 65 120 105 91 87 162 134 243 163 49
17 77 20 169 17 96 -3 119 -8 185 -35z M5115 8687 c-42 -19 -92 -79 -104 -124
-64 -230 189 -563 427 -563 100 0 165 43 193 127 7 21 10 70 7 119 -4 73 -10
94 -46 167 -82 165 -232 279 -377 285 -43 1 -81 -3 -100 -11z m213 -196 c105
-54 152 -123 152 -226 0 -89 -10 -105 -63 -105 -86 0 -197 82 -248 182 -22 44
-27 163 -6 172 25 11 125 -2 165 -23z M6901 8569 c-151 -46 -255 -259 -236
-483 16 -186 103 -348 220 -409 55 -29 145 -29 201 0 221 116 264 553 77 788
-67 85 -179 129 -262 104z m135 -210 c71 -43 79 -66 82 -239 4 -175 -2 -209
-52 -263 -29 -32 -40 -37 -78 -37 -55 0 -98 27 -142 88 l-31 44 -3 168 c-3
148 -1 172 14 196 43 64 143 85 210 43z M3516 8455 c-91 -32 -131 -109 -124
-235 4 -69 11 -92 48 -167 126 -254 410 -374 539 -228 91 104 57 309 -77 473
-74 91 -225 173 -315 172 -18 -1 -49 -7 -71 -15z m181 -190 c48 -20 120 -80
144 -119 15 -24 19 -50 19 -118 0 -78 -2 -88 -21 -98 -70 -38 -223 59 -284
180 -19 36 -26 135 -12 158 11 17 110 15 154 -3z M8035 7902 c-150 -94 -189
-360 -85 -581 75 -158 202 -234 313 -188 46 20 101 85 128 153 34 87 34 258 0
363 -31 95 -92 186 -155 230 -62 44 -151 54 -201 23z m159 -193 c49 -39 56
-66 56 -225 0 -138 -1 -149 -22 -171 -41 -43 -103 -19 -156 63 -32 47 -32 48
-32 182 0 160 5 172 80 172 33 0 55 -6 74 -21z M1755 7625 c-92 -32 -146 -139
-146 -286 1 -144 51 -281 142 -383 173 -194 388 -112 406 154 20 288 -211 584
-402 515z m152 -206 c19 -12 45 -39 59 -60 22 -36 24 -48 24 -173 0 -144 -7
-166 -52 -166 -54 0 -135 69 -166 143 -16 38 -16 249 0 265 20 20 97 14 135
-9z M5345 7166 c-147 -153 -255 -771 -255 -1456 0 -826 151 -1500 335 -1500
183 0 328 661 328 1500 0 624 -78 1153 -205 1392 -40 75 -78 108 -125 108 -30
0 -44 -8 -78 -44z m135 -373 c11 -35 30 -114 42 -176 23 -111 23 -119 23 -907
l0 -795 -28 -130 c-29 -139 -61 -230 -82 -239 -43 -16 -87 87 -127 299 -20
104 -22 147 -25 825 -4 754 -2 792 43 995 54 238 106 282 154 128z M9080 7101
c-140 -43 -259 -191 -296 -371 -32 -153 24 -300 129 -339 149 -57 346 96 411
318 20 69 21 195 1 252 -40 114 -141 171 -245 140z m90 -295 c0 -112 -1 -115
-32 -162 -43 -64 -89 -94 -144 -94 -61 0 -74 22 -74 128 0 92 16 136 67 184
43 41 83 58 136 58 l47 0 0 -114z M4349 7012 c-163 -104 -374 -513 -498 -965
-119 -436 -183 -843 -185 -1177 -1 -215 8 -289 46 -363 102 -202 350 168 555
828 115 372 231 909 264 1222 17 164 9 355 -18 415 -34 75 -87 88 -164 40z
m-21 -539 c-5 -226 -5 -230 -51 -438 -88 -403 -195 -769 -292 -1001 -50 -119
-105 -209 -117 -191 -4 7 -8 124 -8 261 0 206 4 270 21 370 75 443 210 880
339 1096 45 77 87 130 102 130 6 0 8 -79 6 -227z M6468 6970 c-68 -53 -101
-210 -101 -475 1 -202 12 -344 49 -585 63 -412 176 -826 303 -1112 195 -435
367 -477 421 -103 13 91 13 380 0 520 -70 759 -349 1619 -568 1752 -46 28 -72
29 -104 3z m137 -346 c78 -84 210 -483 289 -874 53 -259 56 -296 56 -642 0
-308 -1 -327 -17 -321 -30 11 -50 43 -98 151 -88 201 -176 501 -236 812 -32
164 -33 167 -36 533 -3 265 -1 367 7 367 6 0 22 -12 35 -26z M3218 6621 c-147
-59 -327 -248 -476 -501 -128 -216 -276 -603 -327 -855 -36 -174 -39 -338 -8
-407 57 -126 164 -100 338 84 206 216 450 672 600 1123 99 296 112 477 40 545
-33 31 -105 36 -167 11z m2 -325 c0 -73 -6 -101 -43 -213 -107 -313 -244 -597
-394 -816 -116 -169 -179 -227 -197 -181 -13 35 -5 201 14 279 77 317 259 686
436 883 56 62 146 132 171 132 10 0 13 -23 13 -84z M7380 6558 c-14 -7 -35
-33 -48 -58 -22 -42 -23 -54 -19 -180 4 -113 10 -157 40 -273 95 -362 315
-821 538 -1121 179 -241 354 -372 437 -326 48 27 66 74 70 180 10 249 -134
694 -358 1100 -243 444 -534 742 -660 678z m192 -310 c72 -62 179 -207 300
-408 95 -157 202 -391 270 -591 37 -110 42 -137 46 -236 2 -62 0 -119 -6 -129
-8 -15 -15 -12 -62 32 -163 152 -395 545 -520 879 -79 211 -90 258 -90 385 0
122 -1 122 62 68z M758 6111 c-47 -16 -92 -48 -113 -83 -15 -25 -20 -50 -20
-109 1 -70 4 -84 44 -165 97 -194 311 -345 492 -346 79 -1 129 20 167 70 35
46 43 146 17 225 -51 158 -215 325 -381 386 -62 24 -167 34 -206 22z m172
-187 c85 -25 175 -89 234 -167 22 -29 26 -44 26 -105 0 -39 -5 -74 -10 -77
-21 -13 -97 -6 -150 14 -118 45 -231 163 -252 263 -9 45 -9 59 1 72 17 21 82
21 151 0z M9664 6081 c-146 -37 -261 -177 -272 -331 -16 -228 170 -376 384
-303 72 24 173 128 203 208 63 165 2 344 -137 407 -49 22 -132 31 -178 19z
m150 -194 c25 -17 26 -22 26 -101 0 -77 -2 -86 -31 -125 -16 -24 -46 -49 -64
-57 -70 -29 -170 -11 -195 35 -13 25 -13 166 0 191 11 21 67 58 108 71 40 13
127 5 156 -14z"/>
</g>
</svg>
