<?xml version="1.0" standalone="no"?>
<!DOCTYPE svg PUBLIC "-//W3C//DTD SVG 20010904//EN"
 "http://www.w3.org/TR/2001/REC-SVG-20010904/DTD/svg10.dtd">
<svg version="1.0" xmlns="http://www.w3.org/2000/svg"
 width="2048.000000pt" height="2048.000000pt" viewBox="0 0 2048.000000 2048.000000"
 preserveAspectRatio="xMidYMid meet">
<metadata>
Created by potrace 1.13, written by Peter Selinger 2001-2015
</metadata>
<g transform="translate(0.000000,2048.000000) scale(0.192120,-0.192120)"
fill="#000000" stroke="none">
<path d="M4210 10291 c-627 -138 -1170 -347 -1632 -626 -777 -470 -1325 -1144
-1588 -1950 -137 -422 -190 -882 -146 -1255 16 -126 42 -251 55 -260 5 -3 -2
-66 -15 -140 -162 -948 -42 -2028 343 -3070 76 -204 80 -210 239 -315 60 -40
123 -88 138 -106 15 -19 70 -114 122 -212 402 -762 1051 -1483 1594 -1771 205
-108 488 -165 624 -124 52 16 108 72 124 124 19 66 15 197 -12 314 -34 150
-70 255 -231 685 -203 540 -277 779 -321 1041 -21 119 -23 362 -4 448 11 55
19 67 95 146 93 97 100 113 110 285 45 729 220 1437 486 1968 39 78 184 320
218 365 16 22 17 21 206 -92 105 -62 307 -186 450 -276 143 -90 299 -181 347
-202 398 -177 663 -1 798 530 100 397 195 942 230 1322 6 63 14 118 18 121 8
8 244 60 372 83 225 40 391 58 885 96 473 36 548 45 600 71 22 11 94 63 160
116 66 53 134 102 152 109 54 23 239 34 395 24 225 -15 377 -40 623 -102 217
-54 277 -48 337 33 90 121 5 444 -199 754 -93 140 -175 239 -317 380 -209 208
-421 358 -691 490 -172 84 -325 140 -510 185 -72 17 -142 36 -157 42 -30 11
-103 87 -190 195 -80 100 -105 116 -258 162 -728 217 -1445 290 -2181 221
l-124 -12 -95 45 c-237 112 -511 181 -765 192 -101 4 -124 2 -285 -34z m445
-202 c118 -15 273 -55 415 -106 148 -54 214 -73 255 -73 35 0 97 29 140 64
l30 25 62 -42 c246 -168 464 -433 619 -752 143 -295 230 -624 276 -1045 14
-124 18 -767 6 -811 -6 -21 -17 -28 -60 -37 -61 -15 -110 -49 -142 -100 -18
-30 -26 -70 -44 -222 -12 -102 -23 -223 -26 -270 -6 -102 -17 -177 -63 -415
-50 -263 -80 -374 -138 -525 -65 -165 -93 -217 -149 -268 -56 -52 -100 -66
-195 -60 -119 7 -228 59 -560 263 -110 67 -370 205 -456 242 -34 15 -81 26
-108 27 -50 1 -61 -6 -117 -83 -15 -20 -20 -17 -257 108 -889 470 -1648 690
-2217 643 -385 -32 -629 -131 -953 -385 -22 -18 -23 -18 -23 0 0 10 14 68 31
128 43 151 49 198 59 445 21 532 166 1005 457 1489 450 746 1193 1288 2208
1608 216 68 585 156 700 166 50 5 146 -1 250 -14z m1910 -225 c351 -35 885
-145 1049 -218 68 -30 172 -105 235 -170 24 -25 48 -43 51 -41 4 3 22 -2 39
-11 18 -9 58 -18 91 -21 l58 -6 40 -101 c81 -205 163 -485 202 -691 59 -312
66 -656 16 -876 l-12 -54 -72 -1 c-40 0 -75 2 -77 6 -2 4 -28 3 -57 -1 -29 -5
-231 -22 -448 -39 -438 -33 -528 -42 -740 -72 -80 -11 -184 -21 -232 -23 l-88
-4 0 39 c0 29 -4 38 -14 34 -11 -4 -14 39 -19 238 -13 567 -110 1012 -312
1433 -73 154 -116 225 -235 392 -54 75 -90 134 -90 149 l0 24 150 0 c145 0
150 1 150 21 0 23 10 23 315 -7z m2045 -689 c30 -23 120 -81 200 -129 80 -48
153 -96 162 -106 10 -11 39 -33 65 -51 154 -105 375 -312 484 -454 68 -88 153
-222 182 -285 77 -169 89 -238 49 -278 l-23 -23 -177 35 c-283 56 -582 91
-582 67 0 -6 -17 -11 -38 -11 -25 0 -63 -12 -105 -35 -36 -19 -68 -35 -70 -35
-2 0 -7 69 -11 153 -18 374 -88 710 -227 1072 -33 88 -63 169 -67 180 -6 20
16 6 158 -100z m-20 -940 c0 -250 -4 -279 -36 -294 l-24 -11 1 373 1 372 29
-115 c27 -108 28 -128 29 -325z m-6370 -1795 c354 -24 713 -113 1133 -281 163
-65 242 -103 271 -128 10 -9 21 -15 25 -15 14 3 31 -9 31 -23 0 -9 -5 -11 -12
-7 -7 5 -26 9 -43 10 -16 0 -45 4 -62 8 -18 3 -48 8 -65 11 -18 3 -58 12 -88
20 -58 15 -277 53 -345 61 -22 2 -96 12 -165 21 -160 21 -655 24 -810 5 -297
-37 -540 -98 -837 -213 -56 -21 -109 -39 -117 -39 -14 0 -16 15 -16 98 1 139
9 169 67 219 57 51 256 152 369 187 101 31 237 55 369 65 144 12 137 12 295 1z
m575 -440 c340 -32 696 -110 1070 -235 88 -29 187 -65 220 -80 l60 -27 -30
-21 c-115 -84 -171 -161 -248 -338 -196 -455 -352 -1135 -364 -1591 -5 -169
-3 -206 12 -263 10 -36 16 -68 13 -71 -3 -3 -82 5 -174 17 -222 30 -572 33
-739 6 -259 -42 -487 -123 -683 -245 -103 -64 -176 -120 -315 -241 -61 -52
-112 -90 -117 -85 -5 5 -20 52 -34 104 -14 52 -61 203 -105 335 -113 343 -199
694 -250 1015 -52 331 -70 538 -77 910 -3 162 -9 304 -13 315 -5 11 -18 41
-30 68 -11 26 -21 52 -21 57 0 12 189 108 298 151 271 109 541 179 822 213
139 17 552 20 705 6z m478 -2754 c9 -5 17 -18 17 -30 -1 -33 -36 -102 -68
-134 -26 -26 -39 -30 -113 -35 -339 -26 -737 -125 -1115 -275 -55 -22 -117
-43 -136 -47 -68 -13 -147 46 -134 98 6 26 165 148 271 208 197 113 429 190
659 219 84 10 593 7 619 -4z m72 -322 c14 -6 14 -9 1 -28 -25 -39 -46 -126
-52 -220 -14 -210 67 -500 344 -1236 55 -146 116 -316 136 -379 33 -105 36
-124 36 -233 l0 -118 -47 0 c-111 0 -313 70 -458 159 -361 221 -772 640 -1106
1127 -63 93 -139 208 -168 256 -72 120 -118 177 -190 231 l-61 45 33 21 c157
97 582 245 877 305 255 52 604 89 655 70z"/>
</g>
</svg>
