<?xml version="1.0" standalone="no"?>
<!DOCTYPE svg PUBLIC "-//W3C//DTD SVG 20010904//EN"
 "http://www.w3.org/TR/2001/REC-SVG-20010904/DTD/svg10.dtd">
<svg version="1.0" xmlns="http://www.w3.org/2000/svg"
 width="2048.000000pt" height="2048.000000pt" viewBox="0 0 2048.000000 2048.000000"
 preserveAspectRatio="xMidYMid meet">
<metadata>
Created by potrace 1.13, written by Peter Selinger 2001-2015
</metadata>
<g transform="translate(0.000000,2048.000000) scale(0.192120,-0.192120)"
fill="#000000" stroke="none">
<path d="M4955 9209 c-1090 -59 -2092 -375 -2753 -868 -159 -119 -392 -350
-484 -481 -127 -180 -213 -373 -255 -570 -23 -110 -23 -352 0 -461 14 -69 14
-82 0 -145 -22 -95 -22 -354 -1 -450 15 -64 15 -77 1 -140 -23 -98 -23 -364 0
-462 15 -69 15 -79 0 -145 -22 -96 -22 -355 0 -451 14 -63 14 -76 -1 -140 -23
-104 -22 -355 2 -466 88 -407 344 -760 787 -1082 563 -411 1426 -706 2339
-802 476 -50 1020 -50 1485 -1 1180 127 2203 560 2738 1160 200 225 327 464
383 727 24 108 24 361 2 463 -14 63 -14 77 0 145 21 103 20 351 -1 447 -15 66
-15 77 0 145 22 97 22 364 0 462 -14 63 -14 76 1 140 21 98 21 355 -1 453 -15
66 -15 77 0 145 23 105 23 346 0 458 -61 287 -201 538 -437 783 -344 357 -831
640 -1462 848 -694 228 -1534 332 -2343 288z m27 -245 c3 -14 41 -16 352 -16
316 0 350 1 358 16 8 15 21 16 91 11 456 -35 854 -101 1217 -201 300 -83 547
-173 845 -307 347 -156 478 -247 740 -512 152 -153 239 -271 305 -410 96 -200
94 -190 98 -535 3 -281 2 -314 -18 -415 -26 -129 -73 -233 -157 -343 -68 -89
-256 -275 -379 -375 -50 -40 -105 -89 -120 -108 -31 -35 -79 -127 -72 -135 7
-6 205 131 303 211 112 91 303 286 376 385 31 41 82 117 113 169 31 52 59 97
62 100 8 8 0 -34 -37 -189 -41 -171 -40 -225 4 -312 l35 -67 -30 -63 c-80
-170 -235 -368 -421 -536 -75 -68 -237 -194 -363 -281 l-49 -34 30 -9 c33 -10
140 8 165 26 8 7 27 18 41 25 15 7 72 49 128 92 55 43 101 76 101 72 0 -3 53
45 118 108 l117 114 3 -68 c4 -89 -17 -135 -145 -319 -92 -133 -214 -263 -328
-349 -60 -46 -166 -154 -203 -207 l-37 -55 -3 79 c-2 44 -2 170 0 282 2 111 1
202 -3 202 -3 0 -27 -14 -55 -31 -27 -18 -103 -60 -169 -95 -1127 -593 -2828
-752 -4250 -398 -1035 258 -1836 766 -2141 1360 l-44 84 30 46 c56 89 57 140
6 354 -32 136 -40 176 -32 169 3 -3 31 -48 62 -100 83 -138 155 -229 284 -363
561 -579 1545 -978 2715 -1100 389 -41 920 -45 1305 -11 506 45 1044 155 1424
291 104 37 107 40 56 55 -77 23 -154 14 -400 -43 -276 -65 -452 -99 -685 -133
-944 -134 -1900 -77 -2837 171 -295 78 -734 271 -993 437 -60 38 -126 80 -145
92 -79 50 -251 194 -345 290 -148 151 -285 355 -285 425 0 15 -7 44 -15 63
-12 30 -15 98 -15 387 0 351 0 352 26 428 77 230 255 482 472 665 247 210 414
314 852 530 380 189 494 223 940 282 107 14 251 34 320 45 167 26 361 49 495
59 175 13 183 13 187 -5z m-3129 -3645 c106 -106 154 -149 286 -255 204 -165
778 -474 891 -480 19 -1 105 -27 190 -57 884 -316 2081 -411 3165 -251 397 59
980 209 993 256 2 10 9 18 14 18 6 0 29 20 53 46 l43 45 4 -53 c3 -29 6 -156
7 -283 1 -126 3 -230 5 -232 1 -2 71 26 154 61 692 294 1171 679 1412 1136
l61 115 -6 -60 c-3 -33 -19 -121 -36 -195 -36 -160 -35 -226 5 -295 l26 -44
-25 -63 c-115 -284 -441 -634 -813 -873 -34 -22 -60 -44 -59 -50 2 -5 29 -11
60 -13 61 -3 109 16 217 87 30 20 71 44 90 54 19 10 80 59 135 110 96 88 100
90 103 65 8 -71 -229 -379 -397 -516 -372 -303 -525 -390 -812 -462 -46 -11
-113 -32 -149 -45 -206 -77 -587 -183 -845 -235 -708 -143 -1503 -164 -2245
-59 -155 22 -417 70 -515 96 -33 8 -67 16 -75 18 -128 26 -535 158 -709 229
-321 132 -651 319 -843 479 -234 193 -435 437 -426 515 3 26 8 22 108 -72 580
-545 1505 -917 2615 -1050 474 -58 1048 -59 1545 -5 313 34 848 134 858 160 2
5 10 9 18 9 8 0 34 8 57 19 39 17 75 32 87 36 3 1 12 4 20 8 8 3 60 20 115 38
177 57 195 68 263 153 l21 27 22 -43 c34 -68 66 -105 116 -135 134 -78 316 12
428 213 43 76 127 314 111 314 -2 0 -35 -19 -72 -42 -108 -65 -372 -191 -528
-252 -189 -74 -258 -97 -476 -161 -1483 -429 -3317 -278 -4507 373 -508 277
-895 649 -1043 1000 l-28 65 29 61 c37 78 37 119 -1 288 -16 73 -32 160 -35
193 l-6 60 59 -112 c96 -181 215 -337 374 -489 525 -503 1395 -870 2403 -1013
982 -140 2060 -57 2910 224 88 29 174 58 190 65 l30 12 -38 20 c-22 11 -41 17
-44 14 -3 -3 -14 -1 -24 4 -12 7 -64 -1 -181 -30 -462 -115 -558 -134 -948
-190 -486 -69 -1144 -79 -1665 -24 -453 47 -1047 170 -1340 276 -120 44 -536
248 -710 350 -356 207 -700 527 -804 748 -28 62 -44 200 -21 200 6 0 66 -55
133 -121z m6277 -630 c0 -119 -3 -158 -16 -185 -21 -43 -90 -105 -175 -155
-90 -54 -266 -127 -314 -131 -37 -3 -40 -1 -46 27 -4 17 -7 92 -8 169 l-1 138
38 35 c47 44 467 252 510 253 9 0 12 -37 12 -151z m-90 -1114 c0 -7 -9 -33
-20 -57 -24 -55 -95 -122 -157 -149 -54 -23 -141 -27 -172 -8 -26 17 -28 56
-3 76 24 19 161 89 251 129 73 32 101 34 101 9z M5250 8799 c-131 -16 -345
-150 -410 -255 -14 -21 -30 -34 -42 -34 -12 0 -107 25 -212 55 -441 126 -573
149 -836 149 -195 1 -209 -1 -282 -26 -189 -64 -290 -178 -349 -393 -20 -70
-23 -108 -24 -305 -2 -199 -5 -231 -22 -277 -80 -205 -281 -440 -555 -650
-206 -157 -301 -268 -366 -425 -36 -89 -42 -212 -13 -289 39 -102 118 -171
239 -209 220 -69 512 -9 947 192 299 139 572 201 950 215 559 20 1248 -111
2013 -383 695 -247 1106 -540 1186 -847 9 -34 19 -51 28 -49 40 10 289 113
393 163 137 66 291 152 318 179 18 17 17 20 -38 109 -80 129 -190 269 -304
384 -183 187 -343 303 -576 416 -183 89 -263 141 -338 220 -78 81 -102 135
-102 231 0 64 5 85 31 140 126 263 567 522 1106 649 70 17 149 41 175 55 329
167 -122 481 -806 561 -148 18 -513 20 -681 4 -63 -6 -191 -21 -283 -35 -221
-32 -222 -32 -236 7 -6 17 -39 59 -74 93 -50 48 -93 76 -208 135 -79 40 -151
79 -159 85 -31 24 -217 115 -255 124 -63 16 -145 20 -215 11z m235 -216 c61
-24 911 -507 944 -537 43 -38 50 -72 46 -217 -4 -151 -21 -224 -63 -268 -32
-34 -866 -511 -938 -537 -66 -23 -221 -24 -286 0 -70 25 -909 504 -940 537
-41 43 -58 117 -64 271 -6 147 0 171 48 214 45 42 922 533 978 549 73 20 208
14 275 -12z m-1577 -13 c179 -16 481 -76 506 -100 23 -22 -6 -60 -91 -116
-114 -76 -249 -211 -286 -286 -27 -54 -29 -62 -24 -160 11 -247 97 -445 239
-553 64 -48 651 -386 793 -457 122 -60 172 -73 290 -73 158 1 165 3 690 303
323 184 367 212 428 274 94 94 126 163 172 376 38 173 32 227 -40 354 -14 26
-25 58 -23 70 4 31 37 35 338 44 252 7 433 -2 615 -32 213 -34 419 -103 543
-181 43 -27 52 -38 52 -61 0 -52 -40 -72 -280 -138 -521 -144 -923 -419 -1037
-709 -14 -35 -17 -267 -4 -293 5 -9 15 -30 22 -47 23 -51 94 -148 145 -195 71
-67 120 -97 307 -193 184 -95 247 -135 382 -243 107 -85 273 -255 338 -346 39
-55 47 -73 47 -111 0 -38 -5 -49 -32 -72 -67 -57 -336 -175 -398 -175 -47 0
-58 9 -134 109 -163 214 -327 341 -643 499 -203 102 -379 174 -628 257 -503
169 -894 261 -1355 322 -170 22 -703 25 -845 5 -283 -41 -473 -96 -736 -215
-305 -138 -486 -187 -692 -187 -158 0 -260 38 -308 116 -27 44 -27 220 0 279
40 89 144 196 317 328 120 91 311 281 395 394 38 50 69 94 69 97 0 3 13 27 29
54 17 26 43 83 59 127 51 137 62 208 62 383 0 232 29 338 117 425 105 106 324
152 601 127z M4220 7855 c0 -3 9 -24 21 -47 30 -59 111 -141 185 -188 147 -93
579 -332 670 -371 91 -39 107 -43 206 -47 130 -6 197 12 368 98 118 59 472
259 570 322 67 44 150 130 180 187 22 44 21 62 -2 44 -32 -26 -907 -517 -942
-530 -22 -7 -72 -16 -111 -19 -136 -11 -158 -2 -672 291 -256 146 -467 265
-469 265 -2 0 -4 -2 -4 -5z M8197 5518 c-40 -104 -47 -144 -47 -269 l0 -126
35 -39 34 -39 1 258 c0 141 -2 257 -4 257 -2 0 -11 -19 -19 -42z M7491 4989
c1 -129 5 -249 8 -268 l6 -35 19 40 c10 21 23 47 27 56 13 25 11 348 -1 348
-5 0 -10 7 -10 16 0 9 -11 30 -25 46 l-26 30 2 -233z M8191 4363 c-42 -91 -51
-144 -51 -304 0 -99 4 -159 10 -159 6 0 10 -6 10 -13 0 -8 8 -21 19 -31 18
-16 19 -15 25 26 12 78 19 474 9 492 -8 15 -11 14 -22 -11z M7511 3794 c1
-137 4 -262 8 -278 l6 -29 12 24 c39 78 43 101 43 263 0 140 -3 168 -19 202
-11 22 -27 46 -35 54 -14 11 -16 -12 -15 -236z M1269 5781 c-422 -318 -721
-709 -854 -1116 -59 -180 -79 -299 -79 -475 0 -80 0 -194 0 -255 0 -436 0
-439 22 -552 109 -553 502 -1064 1142 -1488 578 -383 1311 -666 2160 -835 769
-153 1654 -198 2465 -124 1197 108 2262 445 3038 960 561 373 928 807 1082
1279 62 188 79 298 79 490 0 88 0 210 0 270 0 372 -2 420 -23 525 -91 438
-350 848 -758 1198 -115 99 -263 210 -263 197 0 -15 82 -175 118 -230 21 -34
101 -124 177 -200 269 -273 404 -472 510 -750 66 -175 85 -279 85 -475 0 -90
4 -179 10 -199 5 -20 12 -48 14 -62 3 -15 24 -51 46 -80 48 -63 48 -66 -6
-229 -314 -945 -1579 -1762 -3229 -2084 -617 -120 -1101 -162 -1796 -153 -424
5 -526 11 -864 48 -1457 158 -2725 684 -3435 1425 -261 272 -458 608 -520 887
l-13 58 35 37 c45 47 52 61 72 149 11 49 16 120 16 222 0 223 43 395 152 610
107 210 231 378 439 595 68 71 139 151 158 179 39 58 135 246 129 252 -2 3
-51 -31 -109 -74z"/>
</g>
</svg>
