<?xml version="1.0" standalone="no"?>
<!DOCTYPE svg PUBLIC "-//W3C//DTD SVG 20010904//EN"
 "http://www.w3.org/TR/2001/REC-SVG-20010904/DTD/svg10.dtd">
<svg version="1.0" xmlns="http://www.w3.org/2000/svg"
 width="2048.000000pt" height="2048.000000pt" viewBox="0 0 2048.000000 2048.000000"
 preserveAspectRatio="xMidYMid meet">
<metadata>
Created by potrace 1.13, written by Peter Selinger 2001-2015
</metadata>
<g transform="translate(0.000000,2048.000000) scale(0.192120,-0.192120)"
fill="#000000" stroke="none">
<path d="M4630 10039 c-720 -30 -1306 -114 -1710 -245 -140 -46 -350 -150
-430 -215 -203 -163 -238 -276 -207 -681 9 -123 134 -1865 277 -3873 143
-2007 263 -3666 266 -3685 55 -323 220 -567 471 -693 28 -15 91 -39 140 -54
l88 -28 1765 -3 c1596 -3 1775 -1 1865 14 218 35 391 135 500 288 84 119 142
265 170 425 8 46 132 1728 275 3739 143 2010 268 3753 277 3873 28 355 6 460
-122 597 -73 79 -153 136 -270 195 -390 194 -1044 308 -1995 347 -281 11
-1072 11 -1360 -1z m1455 -210 c593 -26 1023 -79 1393 -170 174 -42 361 -107
402 -139 l25 -19 -30 -29 c-16 -15 -48 -37 -70 -48 -22 -10 -65 -34 -96 -51
-118 -69 -358 -149 -599 -202 -502 -110 -1153 -159 -1960 -148 -1045 14 -1754
127 -2188 349 -155 79 -192 103 -192 127 0 58 389 173 815 241 586 93 1606
129 2500 89z m-3370 -530 c22 -6 78 -33 123 -60 355 -210 968 -339 1842 -390
283 -16 1308 -7 1550 15 746 65 1271 184 1565 353 149 86 154 88 230 87 85 -1
148 -28 201 -86 53 -59 74 -111 74 -191 0 -114 -50 -187 -187 -270 -79 -48
-245 -126 -345 -162 l-78 -28 0 -59 c0 -48 -165 -2422 -185 -2658 -3 -36 -37
-510 -75 -1055 -152 -2137 -165 -2279 -232 -2510 -104 -360 -334 -512 -833
-555 -164 -13 -1905 -13 -2072 1 -541 45 -768 223 -861 674 -32 154 -49 312
-87 810 -56 739 -372 5176 -377 5293 l-3 64 -123 49 c-230 91 -360 171 -437
269 -27 35 -45 61 -40 58 7 -4 10 14 7 57 -7 113 41 206 135 261 72 43 136 53
208 33z m-23 -885 c82 -41 86 -45 92 -81 11 -75 18 -160 82 -1063 52 -721 68
-992 74 -1275 7 -289 22 -555 79 -1345 130 -1794 144 -1970 177 -2170 84 -511
342 -839 747 -950 242 -66 368 -72 1487 -67 1036 4 1051 5 1268 62 340 89 564
311 687 679 70 209 91 364 145 1071 114 1512 170 2366 170 2589 0 177 15 441
75 1277 41 580 79 1090 85 1134 8 64 14 83 32 95 35 24 182 88 191 83 4 -2 7
-110 7 -238 0 -205 -29 -637 -230 -3467 -126 -1778 -232 -3258 -236 -3288 -18
-161 -69 -329 -126 -418 -74 -115 -160 -172 -318 -214 l-85 -23 -1750 0
c-1645 0 -1755 1 -1826 18 -241 56 -402 218 -459 460 -30 129 -38 198 -65 577
-14 195 -119 1683 -235 3306 -200 2806 -224 3204 -204 3282 8 28 17 25 136
-34z M3070 8478 c47 -46 101 -91 120 -100 19 -8 51 -23 70 -32 100 -45 513
-115 919 -156 337 -34 491 -41 981 -47 648 -8 1082 12 1565 72 320 40 688 111
718 138 6 7 25 19 41 27 29 15 179 160 172 167 -2 2 -59 -12 -127 -31 -439
-124 -956 -196 -1614 -227 -284 -13 -1166 -7 -1390 10 -593 46 -1079 124
-1435 232 -36 11 -74 22 -85 25 -11 3 18 -32 65 -78z M4795 6339 c-306 -13
-666 -47 -965 -89 -153 -22 -377 -74 -400 -93 -8 -7 -31 -21 -50 -31 -33 -18
-100 -89 -100 -107 0 -4 20 0 44 11 257 110 734 189 1391 231 245 16 973 16
1225 1 633 -40 1142 -124 1378 -228 30 -13 57 -22 60 -19 7 6 -25 53 -63 91
-163 163 -1427 280 -2520 233z M3346 5765 c-65 -23 -65 -32 -3 -60 505 -223
2034 -310 3142 -179 369 43 723 123 853 193 l34 17 -27 18 c-38 25 -95 29
-167 12 -259 -60 -749 -119 -1218 -147 -276 -16 -1255 -7 -1495 15 -462 40
-715 74 -962 126 -108 23 -106 23 -157 5z"/>
</g>
</svg>
