<?xml version="1.0" standalone="no"?>
<!DOCTYPE svg PUBLIC "-//W3C//DTD SVG 20010904//EN"
 "http://www.w3.org/TR/2001/REC-SVG-20010904/DTD/svg10.dtd">
<svg version="1.0" xmlns="http://www.w3.org/2000/svg"
 width="2048.000000pt" height="2048.000000pt" viewBox="0 0 2048.000000 2048.000000"
 preserveAspectRatio="xMidYMid meet">
<metadata>
Created by potrace 1.13, written by Peter Selinger 2001-2015
</metadata>
<g transform="translate(0.000000,2048.000000) scale(0.192120,-0.192120)"
fill="#000000" stroke="none">
<path d="M4435 8633 c-1150 -55 -2158 -326 -2936 -790 -229 -138 -423 -285
-598 -456 -252 -247 -422 -503 -510 -772 -52 -158 -61 -225 -61 -452 1 -1394
652 -2701 1767 -3545 1494 -1132 3550 -1200 5113 -171 280 185 470 340 715
587 646 649 1072 1470 1229 2371 38 219 76 605 76 772 0 272 -92 565 -254 813
l-55 85 42 18 c96 42 369 127 472 147 61 12 184 26 274 31 112 7 182 16 217
29 110 38 191 117 236 230 17 44 22 76 22 160 1 119 -19 186 -78 263 -116 153
-295 188 -576 114 -283 -74 -668 -240 -1001 -432 l-97 -55 -106 79 c-661 493
-1702 844 -2801 945 -335 31 -794 44 -1090 29z m675 -163 c1099 -50 2082 -305
2788 -724 213 -127 266 -180 266 -268 0 -27 2 -48 4 -48 3 0 44 23 92 50 48
28 90 50 93 50 2 0 23 -18 45 -40 57 -57 98 -55 262 11 69 28 132 52 140 54 8
2 76 33 151 69 159 76 344 151 483 195 268 86 416 84 484 -8 19 -27 22 -42 22
-135 l0 -105 -35 -35 c-42 -42 -79 -53 -222 -66 -221 -20 -386 -54 -553 -112
-177 -62 -265 -149 -259 -256 l3 -47 -104 -54 -105 -55 62 -18 c89 -26 131
-70 193 -200 107 -228 132 -369 128 -716 l-3 -257 32 -62 c18 -34 33 -73 33
-85 0 -13 -24 -71 -54 -130 -178 -351 -501 -678 -949 -960 -167 -105 -543
-293 -744 -372 -580 -229 -1221 -371 -1973 -438 -196 -18 -1034 -18 -1230 0
-437 39 -793 95 -1160 183 -1217 292 -2167 895 -2511 1594 -27 55 -49 110 -49
123 0 13 15 53 32 90 l33 67 6 325 c7 350 9 367 72 533 231 602 873 1121 1822
1469 768 282 1759 420 2705 378z m-4013 -3983 c1211 -919 3339 -1278 5250
-887 862 177 1639 513 2174 942 73 58 114 85 119 78 39 -63 -214 -557 -463
-906 -286 -401 -687 -780 -1112 -1051 -547 -349 -1131 -556 -1805 -640 -209
-26 -775 -26 -975 0 -305 40 -550 93 -805 173 -637 201 -1222 556 -1691 1024
-339 339 -540 616 -764 1055 -92 182 -150 331 -139 360 5 13 14 9 48 -20 22
-19 96 -77 163 -128z M4420 8300 c-934 -49 -1743 -240 -2425 -575 -595 -291
-1023 -686 -1191 -1098 -110 -271 -124 -561 -38 -823 199 -612 891 -1149 1897
-1473 1164 -375 2625 -413 3866 -101 774 194 1405 511 1818 913 382 371 546
785 478 1202 -18 109 -36 174 -82 285 -34 82 -134 263 -151 274 -12 7 -403
-227 -648 -389 -460 -303 -1076 -797 -2003 -1608 -223 -194 -336 -275 -511
-364 -820 -418 -2082 -430 -2917 -28 -240 115 -386 217 -534 373 -187 196
-269 396 -256 622 11 198 96 375 262 549 530 555 1707 802 2750 576 228 -49
435 -118 629 -209 319 -149 814 -120 1321 77 280 109 560 269 886 509 107 78
271 193 364 256 94 62 171 117 173 121 3 10 -233 165 -365 240 -630 357 -1503
593 -2448 661 -202 14 -683 20 -875 10z m1000 -274 c732 -69 1319 -209 1875
-447 218 -93 339 -159 343 -187 5 -32 -50 -83 -214 -202 -581 -422 -1147 -631
-1639 -606 -154 8 -252 32 -429 105 -309 129 -574 199 -936 248 -190 25 -774
26 -965 0 -700 -94 -1249 -333 -1601 -698 -123 -129 -182 -211 -255 -358 -74
-150 -79 -177 -79 -438 0 -149 -4 -233 -10 -233 -5 0 -10 -7 -10 -15 0 -8 -4
-15 -9 -15 -16 0 -104 75 -197 168 -151 151 -267 330 -323 499 -31 91 -31 92
-31 316 0 200 2 232 21 293 90 293 369 601 779 859 207 130 556 293 845 395
499 175 1154 297 1805 334 160 9 873 -4 1030 -18z m3119 -1495 c42 -42 51
-109 51 -367 0 -261 -5 -295 -66 -432 -32 -73 -138 -231 -217 -323 -303 -355
-912 -692 -1624 -900 -443 -129 -1022 -223 -1071 -175 -7 7 29 37 114 95 87
60 212 162 364 296 299 263 893 763 1169 984 419 337 868 651 1146 803 79 43
106 47 134 19z M3655 5870 c-353 -39 -691 -141 -883 -266 -159 -104 -282 -252
-331 -401 -25 -75 -28 -195 -6 -267 102 -336 668 -581 1395 -603 735 -22 1392
193 1584 518 51 85 59 119 54 232 -3 92 -7 109 -39 177 -150 313 -492 503
-1064 591 -148 23 -571 34 -710 19z m633 -146 c405 -53 733 -190 911 -380 327
-350 12 -770 -696 -929 -205 -45 -352 -58 -622 -52 -254 5 -373 19 -559 67
-511 130 -820 407 -764 686 35 170 193 332 435 444 218 100 455 155 797 184
85 7 381 -4 498 -20z"/>
</g>
</svg>
