<?xml version="1.0" standalone="no"?>
<!DOCTYPE svg PUBLIC "-//W3C//DTD SVG 20010904//EN"
 "http://www.w3.org/TR/2001/REC-SVG-20010904/DTD/svg10.dtd">
<svg version="1.0" xmlns="http://www.w3.org/2000/svg"
 width="2048.000000pt" height="2048.000000pt" viewBox="0 0 2048.000000 2048.000000"
 preserveAspectRatio="xMidYMid meet">
<metadata>
Created by potrace 1.13, written by Peter Selinger 2001-2015
</metadata>
<g transform="translate(0.000000,2048.000000) scale(0.192120,-0.192120)"
fill="#000000" stroke="none">
<path d="M5085 10180 c-240 -51 -441 -236 -506 -465 -9 -33 -21 -59 -25 -58
-5 1 -36 12 -68 23 -300 107 -646 -25 -791 -301 -20 -38 -43 -92 -51 -119
l-15 -51 -39 50 c-73 92 -202 171 -335 206 -76 19 -243 20 -320 0 -33 -8 -98
-34 -145 -57 -67 -33 -102 -58 -165 -122 -120 -121 -181 -253 -192 -417 -7
-99 8 -198 41 -281 l24 -58 -42 -10 c-183 -47 -344 -178 -427 -345 -58 -119
-72 -187 -66 -325 8 -190 62 -315 194 -447 74 -74 194 -145 268 -159 19 -3 35
-9 35 -13 0 -4 -17 -20 -37 -36 -61 -46 -122 -124 -163 -210 -51 -107 -65
-170 -65 -295 0 -89 5 -119 29 -194 68 -208 246 -383 438 -433 37 -9 68 -21
68 -24 0 -4 -8 -27 -19 -51 -28 -66 -42 -144 -42 -239 0 -194 71 -354 218
-488 182 -168 463 -218 685 -122 l48 20 6 -27 c46 -207 207 -394 398 -462 33
-12 67 -24 75 -26 9 -3 -6 -23 -44 -57 -76 -68 -144 -173 -180 -278 -24 -73
-28 -99 -28 -204 0 -103 4 -132 26 -200 38 -115 90 -196 180 -281 183 -172
435 -227 665 -146 l81 29 12 -51 c12 -53 66 -169 102 -220 l21 -29 -25 7
c-109 31 -188 13 -388 -88 -268 -134 -510 -296 -699 -466 -113 -102 -372 -372
-459 -477 -62 -76 -187 -258 -266 -391 -115 -192 -288 -562 -367 -787 -35 -98
-59 -141 -86 -153 -22 -11 -33 -9 -84 17 -32 17 -107 60 -167 97 -542 335
-1024 806 -1368 1339 -156 242 -159 285 -23 335 299 109 456 177 671 292 584
310 1076 748 1439 1283 285 420 375 641 312 766 -19 39 -64 89 -78 89 -7 0
-43 -66 -80 -147 -199 -436 -444 -793 -770 -1119 -508 -507 -1118 -840 -1929
-1055 l-38 -10 79 -152 c240 -460 499 -814 856 -1173 363 -363 732 -636 1176
-866 172 -89 167 -88 180 -36 152 603 427 1173 778 1613 321 404 695 711 1189
975 l166 89 59 -54 c140 -130 354 -189 555 -154 l63 11 50 -55 c63 -69 159
-132 249 -163 76 -26 210 -47 246 -38 21 5 22 2 28 -83 18 -252 151 -452 375
-563 253 -126 579 -66 766 142 29 32 55 58 58 58 3 0 9 -16 12 -35 4 -19 25
-71 48 -117 71 -142 205 -256 370 -316 65 -23 88 -27 203 -27 141 0 190 9 292
57 224 105 372 329 377 570 l1 78 65 0 c194 1 393 100 507 253 161 217 184
465 66 707 -37 75 -61 109 -119 167 l-74 72 42 12 c174 47 358 221 414 394 20
60 31 75 54 75 10 0 55 19 101 41 114 57 238 180 291 289 117 237 87 520 -76
719 l-44 54 46 56 c52 64 104 169 127 256 21 78 21 241 0 320 -41 158 -143
302 -279 393 -69 46 -177 92 -218 92 -23 0 -23 1 8 90 56 159 42 352 -37 509
-82 164 -226 281 -417 337 -7 2 20 35 61 76 83 82 134 166 169 278 33 110 31
273 -5 385 -37 113 -90 195 -178 280 -137 131 -302 192 -489 182 -85 -5 -189
-30 -241 -58 -13 -7 -19 3 -33 54 -47 169 -180 329 -336 406 -95 46 -193 71
-287 71 l-63 0 0 73 c0 168 -61 308 -190 438 -70 71 -100 94 -171 128 -150 72
-304 89 -454 51 -104 -27 -166 -56 -247 -118 l-68 -51 -66 50 c-80 60 -119 80
-208 108 -139 43 -314 36 -440 -18 l-44 -19 -26 83 c-61 194 -216 351 -418
422 -59 21 -95 27 -188 29 -63 2 -133 -1 -155 -6z m406 -211 c40 -10 59 -34
124 -162 48 -93 80 -129 140 -154 53 -21 61 -46 52 -150 -19 -203 -210 -372
-422 -373 -209 -1 -391 157 -426 369 -28 176 73 366 235 442 103 48 189 56
297 28z m-681 -411 c0 -18 7 -58 15 -88 8 -30 18 -85 21 -121 8 -79 -3 -88
-70 -58 -25 11 -88 30 -141 43 -90 22 -99 23 -151 9 -59 -15 -168 -70 -212
-106 -90 -74 -144 -135 -178 -200 -60 -113 -64 -128 -64 -289 0 -163 8 -192
92 -339 21 -37 36 -73 33 -80 -4 -11 -44 -14 -195 -15 -163 -1 -190 1 -190 14
0 8 20 49 44 91 25 42 56 106 71 143 25 63 26 74 23 205 -3 138 -3 138 -47
236 -30 70 -41 106 -36 124 9 38 132 179 186 213 111 72 252 91 436 60 l81
-13 56 33 c31 19 82 61 113 93 52 52 83 74 106 76 4 1 7 -14 7 -31z m1158
-186 c4 -24 -23 -69 -32 -54 -3 5 -3 25 1 46 6 39 26 44 31 8z m551 -11 c115
-36 204 -110 256 -214 l24 -49 22 47 c12 26 44 71 71 101 195 213 555 164 687
-93 55 -110 64 -225 26 -340 -14 -42 -24 -76 -23 -77 2 -1 20 -11 41 -21 47
-25 130 -111 154 -159 12 -26 21 -35 32 -30 96 40 129 46 222 42 84 -3 104 -8
163 -37 90 -44 160 -116 205 -210 34 -71 36 -82 35 -171 0 -74 -5 -108 -23
-152 -49 -125 -159 -230 -279 -264 -77 -23 -219 -15 -287 15 -76 34 -146 93
-190 160 -21 34 -39 61 -39 61 -1 0 -23 -8 -51 -19 -27 -10 -69 -22 -92 -26
-39 -6 -43 -9 -49 -43 -31 -190 -167 -327 -358 -363 -170 -31 -372 73 -450
233 -123 252 28 559 301 610 l61 11 5 48 c3 26 15 66 26 88 12 22 21 42 21 45
0 2 -20 16 -44 30 -62 36 -132 111 -162 173 l-27 53 -23 -50 c-51 -111 -188
-213 -303 -227 -49 -6 -51 -7 -57 -42 -17 -104 -59 -185 -132 -253 -142 -133
-344 -155 -515 -54 -57 33 -131 115 -159 175 l-21 48 -29 -57 c-53 -108 -172
-196 -295 -220 l-60 -12 -6 -50 c-14 -119 -112 -248 -235 -309 -64 -33 -71
-34 -182 -34 -111 0 -118 1 -185 34 -190 94 -288 313 -226 507 12 38 24 74 27
81 3 6 -15 23 -39 37 -64 38 -144 127 -174 193 -34 75 -43 213 -19 295 35 121
140 235 258 280 199 75 438 -14 532 -200 l17 -32 39 20 c62 32 167 46 240 32
133 -24 253 -111 309 -222 l28 -58 22 47 c29 65 85 127 153 172 50 32 87 45
183 64 16 3 23 17 31 62 48 248 301 399 543 324z m-3008 -210 c218 -82 331
-316 258 -533 -67 -199 -270 -324 -470 -290 -187 32 -327 172 -360 360 -36
204 104 419 311 477 72 20 187 14 261 -14z m-628 -89 c-60 -134 -63 -147 -63
-309 0 -150 1 -154 32 -225 43 -98 79 -152 152 -223 98 -97 194 -141 326 -151
50 -4 96 -1 138 9 37 8 65 11 68 5 9 -15 -3 -51 -39 -114 -64 -113 -67 -129
-67 -312 l0 -168 36 -74 c91 -191 219 -306 384 -344 257 -61 491 72 629 357
37 77 45 80 137 56 104 -28 225 -28 315 0 73 23 190 100 229 151 14 18 32 41
41 52 9 10 42 58 74 107 47 73 64 92 103 110 26 12 77 41 115 63 82 49 108 48
202 -11 36 -23 82 -48 104 -57 69 -27 65 -58 -12 -99 -132 -71 -229 -167 -291
-288 l-46 -88 0 -169 0 -170 41 -84 c76 -159 209 -284 347 -326 87 -27 218
-27 302 0 74 24 190 98 228 147 15 19 35 44 46 56 20 24 69 118 95 181 12 32
17 91 21 260 l5 218 31 -43 c132 -184 331 -268 533 -225 41 9 96 27 124 41 27
15 51 24 54 22 8 -9 7 -43 -6 -102 -8 -38 -11 -112 -9 -200 l3 -140 47 -95
c96 -195 244 -314 423 -339 125 -18 243 9 364 84 97 60 129 60 225 1 101 -63
182 -88 286 -88 47 -1 105 5 129 11 69 20 72 5 18 -99 -73 -140 -77 -155 -77
-330 l0 -155 50 -100 c58 -118 126 -198 216 -256 74 -48 79 -64 39 -131 -14
-24 -42 -77 -63 -118 l-37 -75 -3 -157 c-3 -155 -3 -157 27 -228 103 -245 289
-383 516 -383 121 0 212 32 330 116 32 22 41 25 43 13 6 -28 -43 -97 -100
-141 -7 -5 -39 -30 -70 -54 -82 -61 -236 -225 -291 -308 -26 -39 -66 -87 -89
-108 -106 -92 -216 -209 -248 -262 -57 -93 -48 -133 74 -348 l46 -80 0 -170
c0 -154 -2 -174 -21 -210 -47 -89 -131 -146 -274 -185 -44 -12 -101 -35 -127
-52 -53 -33 -208 -192 -208 -212 0 -7 -9 -25 -20 -39 -11 -14 -20 -37 -20 -50
0 -26 -41 -134 -72 -193 -60 -111 -250 -183 -410 -156 -112 19 -172 54 -258
146 -285 306 -302 312 -517 194 -161 -89 -193 -100 -300 -106 -140 -7 -245 28
-331 111 -41 40 -82 106 -82 133 0 6 -7 25 -15 40 -8 16 -15 46 -15 67 0 20
-4 37 -10 37 -5 0 -10 9 -10 20 0 11 -4 20 -10 20 -5 0 -10 6 -10 14 0 21
-111 145 -169 190 -37 27 -84 49 -168 75 -91 29 -143 53 -228 106 -178 111
-196 117 -359 125 -123 6 -151 11 -218 38 -101 39 -256 143 -337 227 -37 37
-88 77 -118 92 -51 24 -58 25 -141 17 -48 -5 -132 -9 -188 -8 -90 0 -107 3
-167 31 -91 43 -181 137 -236 246 -57 114 -74 189 -69 306 3 81 8 103 29 141
15 25 48 83 74 128 88 153 74 214 -78 357 -102 97 -137 140 -198 249 -51 91
-145 194 -206 225 -34 17 -60 21 -138 21 -85 0 -110 4 -215 40 -151 50 -204
77 -257 132 -76 78 -83 104 -83 336 0 233 -1 236 -97 354 -58 71 -102 110
-198 175 -80 55 -132 108 -155 161 -17 38 -20 67 -20 189 0 161 -1 157 89 311
45 77 81 166 81 199 0 65 -90 182 -243 318 -56 50 -115 113 -132 139 -29 48
-30 53 -33 192 -3 116 0 148 13 174 25 48 81 105 138 141 87 55 174 129 220
188 53 68 97 145 97 170 0 10 7 32 15 47 12 23 15 71 15 226 l0 197 33 37 c45
53 117 97 133 83 10 -8 8 -22 -13 -67z m3687 -710 c0 -5 -7 -17 -15 -28 -14
-19 -14 -19 -15 2 0 11 3 24 7 27 9 10 23 9 23 -1z m-130 -646 c-7 -7 -25 4
-58 35 -67 64 -129 111 -189 144 -86 46 -83 65 25 120 56 29 97 60 152 117
l75 77 3 -241 c1 -155 -1 -245 -8 -252z m-2364 450 c164 -43 286 -181 316
-355 47 -274 -201 -524 -479 -484 -348 50 -493 463 -253 717 53 56 141 110
206 125 59 14 153 12 210 -3z m4849 0 c141 -37 244 -132 295 -273 18 -50 21
-77 19 -151 -4 -83 -7 -93 -37 -136 -18 -25 -44 -70 -58 -100 -25 -56 -71
-103 -124 -131 -17 -9 -30 -17 -30 -19 0 -2 9 -24 21 -50 46 -104 44 -235 -6
-344 -34 -75 -122 -163 -203 -203 -64 -33 -71 -34 -182 -34 -109 0 -119 2
-183 32 -81 38 -162 116 -199 190 l-26 53 -26 -54 c-33 -68 -129 -159 -203
-194 -53 -24 -69 -27 -173 -27 -105 0 -120 2 -174 28 -202 94 -301 311 -236
518 37 120 117 211 236 266 54 26 69 28 174 28 109 0 118 -2 180 -32 79 -39
161 -118 197 -191 l26 -54 23 49 c30 63 82 123 140 161 25 17 50 32 56 34 5 2
-2 37 -16 80 -55 163 -14 331 109 447 111 105 259 145 400 107z m-2864 -396
c294 -56 445 -369 304 -628 -74 -137 -218 -222 -375 -222 -119 0 -222 43 -306
130 -206 209 -144 556 122 682 95 45 165 55 255 38z m3200 -785 c74 -55 89
-86 89 -189 l0 -87 -82 3 c-46 2 -120 -1 -165 -6 -78 -8 -83 -7 -83 11 0 10
14 41 32 69 17 27 44 78 61 114 37 81 64 120 84 120 8 0 37 -16 64 -35z m129
-456 c78 -37 120 -74 120 -109 0 -33 39 -84 80 -105 40 -21 65 -117 57 -220
-18 -241 -235 -412 -485 -383 -176 20 -331 172 -364 358 -34 194 90 399 285
471 78 29 232 23 307 -12z m430 -610 c14 -25 13 -272 -2 -304 -16 -36 -45 -32
-117 16 -67 45 -84 77 -60 115 8 13 35 59 61 103 61 102 92 120 118 70z m-207
-412 c161 -80 247 -235 235 -424 -12 -189 -174 -359 -361 -381 -146 -17 -262
22 -363 123 -228 227 -139 597 171 708 38 13 73 17 146 14 88 -2 103 -6 172
-40z M7340 6499 c-174 -23 -333 -135 -417 -293 -63 -117 -64 -126 -61 -297 l3
-156 48 -97 c216 -435 750 -446 965 -21 58 115 64 143 60 308 l-3 152 -42 85
c-117 239 -311 351 -553 319z m244 -187 c88 -41 167 -120 209 -209 30 -64 32
-74 32 -183 0 -106 -2 -119 -28 -173 -134 -272 -472 -336 -688 -131 -138 133
-171 325 -84 500 42 87 112 154 200 195 79 35 93 38 201 35 78 -3 102 -8 158
-34z M7668 5279 c-133 -31 -283 -162 -358 -313 l-45 -89 0 -161 c0 -156 1
-163 29 -226 126 -285 377 -430 631 -365 164 42 285 149 370 324 50 104 57
145 54 288 l-4 128 -48 99 c-102 211 -283 328 -507 325 -47 -1 -102 -5 -122
-10z m247 -154 c279 -73 411 -403 256 -642 -187 -290 -605 -260 -754 54 -30
63 -32 76 -32 173 0 97 2 110 32 172 92 196 296 295 498 243z M3788 4720 c-9
-14 -55 -97 -103 -185 -214 -389 -540 -903 -800 -1260 -28 -38 -68 -95 -89
-125 -24 -33 161 145 469 452 280 280 505 513 503 520 -3 7 -22 19 -44 28 -21
8 -47 22 -57 31 -17 15 -17 19 -1 65 9 27 46 112 82 188 69 147 83 206 65 276
l-9 35 -16 -25z M4025 3454 c-91 -73 -392 -336 -575 -504 -218 -200 -691 -652
-686 -657 2 -2 43 26 91 62 278 210 665 438 1025 605 259 120 470 205 873 352
32 11 55 23 53 26 -3 3 -28 8 -56 13 -52 8 -50 8 -455 -78 -184 -40 -275 -51
-275 -35 0 6 3 12 8 14 13 6 61 103 70 145 5 22 7 57 3 77 l-6 36 -70 -56z"/>
</g>
</svg>
