<?xml version="1.0" standalone="no"?>
<!DOCTYPE svg PUBLIC "-//W3C//DTD SVG 20010904//EN"
 "http://www.w3.org/TR/2001/REC-SVG-20010904/DTD/svg10.dtd">
<svg version="1.0" xmlns="http://www.w3.org/2000/svg"
 width="2048.000000pt" height="2048.000000pt" viewBox="0 0 2048.000000 2048.000000"
 preserveAspectRatio="xMidYMid meet">
<metadata>
Created by potrace 1.13, written by Peter Selinger 2001-2015
</metadata>
<g transform="translate(0.000000,2048.000000) scale(0.192120,-0.192120)"
fill="#000000" stroke="none">
<path d="M9541 10016 c-152 -38 -247 -67 -252 -76 -5 -8 -49 -150 -100 -315
-50 -165 -113 -367 -140 -450 -26 -82 -47 -150 -46 -152 3 -2 627 154 631 158
2 2 11 31 21 64 9 33 70 232 136 443 65 210 119 384 119 387 0 3 -28 5 -62 4
-42 -1 -147 -22 -307 -63z m-23 -375 c-6 -75 -47 -179 -78 -199 -19 -12 -20
-9 -20 73 0 93 23 162 63 190 32 22 40 8 35 -64z M9996 10047 c4 -6 17 -25 29
-42 22 -29 53 -92 94 -189 17 -38 21 -69 21 -150 0 -100 -1 -102 -36 -155 -39
-58 -66 -84 -162 -156 -77 -58 -162 -136 -142 -131 8 2 58 14 110 26 52 13
121 36 153 53 147 77 238 259 210 422 -26 152 -123 274 -256 324 -22 9 -27 8
-21 -2z M8950 9866 c-91 -23 -171 -44 -179 -47 -8 -3 17 -16 55 -28 86 -30
120 -25 200 29 78 52 123 90 104 89 -8 0 -89 -20 -180 -43z M8390 9730 c-183
-46 -307 -83 -312 -91 -4 -8 -28 -84 -54 -169 -25 -85 -93 -305 -150 -488 -57
-183 -104 -335 -104 -337 0 -3 42 17 93 44 105 57 246 107 431 156 71 19 130
36 131 37 2 2 22 66 45 143 23 77 86 283 141 457 54 175 99 320 99 323 0 7 17
11 -320 -75z m-78 -357 c8 -66 -60 -243 -93 -243 -5 0 -9 38 -9 85 0 93 23
162 63 190 27 19 34 13 39 -32z M7840 9589 c-174 -47 -422 -167 -560 -272
l-55 -42 40 -5 c78 -11 136 -1 204 33 153 78 250 132 306 173 72 52 164 134
150 133 -5 0 -44 -9 -85 -20z M7047 9128 c-113 -113 -223 -261 -286 -387 l-29
-56 158 -710 c86 -390 165 -754 175 -807 10 -54 22 -98 25 -98 4 0 92 22 196
49 215 56 495 146 729 233 155 58 163 60 240 56 96 -5 156 -30 220 -94 88 -88
125 -230 92 -351 -8 -29 -13 -53 -11 -53 1 0 17 24 34 52 83 134 102 260 54
356 -34 68 -119 144 -214 190 -74 37 -77 37 -195 37 -111 -1 -128 -4 -225 -37
-253 -87 -481 -168 -497 -177 -10 -5 -38 -19 -63 -31 -25 -12 -95 -57 -155
-102 -104 -76 -152 -104 -162 -94 -7 6 53 223 173 636 58 201 108 374 111 385
2 11 -43 234 -101 495 -57 261 -110 506 -118 544 -7 38 -19 71 -25 73 -7 3
-63 -47 -126 -109z M8759 9050 c-14 -4 -39 -16 -55 -26 -40 -25 -126 -96 -121
-100 4 -4 357 83 364 90 6 6 -118 46 -141 45 -12 0 -33 -4 -47 -9z M7595 8596
c-32 -34 -55 -99 -55 -153 l1 -28 21 30 c12 17 56 65 97 108 l74 77 -53 0
c-47 0 -56 -4 -85 -34z M4495 8439 c-1421 -61 -2294 -276 -2640 -651 -110
-119 -173 -260 -196 -436 -18 -142 10 -1037 51 -1657 83 -1232 225 -2466 366
-3165 242 -1203 783 -1830 1782 -2066 408 -96 776 -129 1472 -129 491 0 664 8
960 41 1257 142 1906 690 2190 1849 207 845 426 2979 470 4595 12 414 6 656
-17 740 -47 174 -217 347 -462 470 -179 89 -455 178 -733 234 -235 47 -238 48
-238 34 0 -20 122 -131 165 -152 22 -10 58 -27 80 -37 22 -11 87 -31 145 -45
336 -82 631 -217 774 -353 64 -61 126 -185 126 -252 0 -26 4 -50 9 -54 5 -3
12 -18 16 -33 5 -26 18 -43 87 -119 l20 -21 -33 -67 c-42 -87 -149 -200 -247
-265 -42 -27 -84 -55 -93 -62 -15 -11 -18 -61 -28 -393 -12 -392 -30 -748 -56
-1105 -29 -380 -75 -865 -87 -893 -38 -97 -303 -217 -648 -296 -343 -78 -897
-150 -1355 -177 -66 -4 -129 -10 -140 -14 -20 -8 -31 -41 -121 -368 l-23 -82
26 0 c62 0 109 55 163 193 30 75 77 127 116 127 16 0 38 6 49 14 11 7 58 17
105 20 803 66 1488 196 1650 314 53 39 118 111 151 167 l30 50 -6 -70 c-21
-221 -110 -863 -171 -1230 -48 -288 -159 -832 -200 -984 -62 -225 -163 -449
-269 -596 -29 -40 -33 -51 -20 -53 24 -5 102 36 129 69 91 108 225 445 281
709 9 41 29 134 45 205 73 319 83 367 103 480 l22 120 3 -305 c2 -254 0 -318
-14 -380 -31 -143 -84 -321 -135 -458 -60 -162 -213 -476 -255 -523 -8 -8 -14
-19 -14 -24 0 -23 -170 -210 -260 -286 -166 -138 -312 -212 -615 -309 -439
-140 -891 -191 -1685 -191 -883 0 -1367 69 -1883 265 -178 68 -335 173 -488
325 -125 126 -192 212 -285 366 -97 161 -121 208 -189 379 -145 366 -238 815
-355 1722 -40 310 -40 314 -39 625 1 173 5 294 8 269 4 -25 14 -58 24 -75 14
-25 57 -132 97 -245 5 -14 14 -74 20 -135 6 -60 22 -195 35 -300 14 -104 32
-244 41 -310 46 -356 117 -754 159 -885 7 -25 25 -101 40 -170 81 -392 170
-650 289 -838 34 -55 97 -102 135 -102 17 0 31 2 31 5 0 2 -26 42 -57 87 -99
145 -196 374 -252 594 -54 212 -163 785 -220 1149 -69 449 -148 1073 -138
1098 3 6 6 2 6 -11 2 -51 116 -178 203 -225 121 -65 486 -152 883 -211 396
-58 889 -97 1425 -112 272 -8 317 -1 429 66 l66 40 -135 0 c-171 0 -614 16
-830 30 -1072 69 -1835 233 -2030 434 -31 33 -34 42 -38 104 -1 37 -14 191
-27 342 -53 603 -79 1029 -96 1590 -7 212 -16 386 -20 388 -4 2 -47 30 -97 62
-161 107 -258 223 -301 364 -36 117 -33 129 57 216 43 41 96 97 118 125 57 71
144 156 154 150 4 -3 37 12 72 34 210 128 442 206 904 306 12 3 24 13 26 23
13 47 752 130 1453 164 290 13 1309 16 1538 4 130 -7 147 -10 147 -26 0 -15
15 -18 112 -23 61 -4 113 -9 115 -11 13 -12 1 -115 -21 -192 -93 -317 -109
-383 -113 -464 -4 -77 -2 -89 20 -124 l24 -38 46 158 c100 339 245 849 242
852 -6 6 -251 21 -504 32 -285 11 -1351 11 -1626 -1z M2279 7559 c-108 -38
-232 -166 -274 -282 -26 -71 -16 -158 29 -250 20 -40 44 -83 55 -97 l20 -25
-15 45 c-11 30 -15 71 -12 125 5 139 75 247 197 307 38 19 62 23 141 22 90 0
102 -3 225 -51 596 -234 1336 -403 2035 -467 580 -53 1058 -41 1690 45 80 10
148 19 153 19 14 0 6 19 -56 126 -35 60 -81 142 -102 181 -22 40 -42 70 -46
65 -4 -4 -19 -52 -33 -107 -46 -172 -86 -295 -98 -295 -6 0 -45 21 -86 46
-103 65 -131 71 -254 60 -162 -14 -870 -13 -1053 2 -304 25 -671 77 -965 137
-284 58 -462 113 -1073 331 -97 35 -196 68 -220 74 -70 16 -196 11 -258 -11z
M6735 7081 c-22 -10 -60 -40 -85 -65 l-45 -46 35 6 c87 15 328 65 355 72 29 9
28 10 -39 31 -84 26 -167 27 -221 2z M8474 6809 c-34 -37 -96 -67 -291 -139
-347 -127 -753 -243 -1133 -325 -69 -15 -129 -30 -134 -33 -15 -8 120 -72 176
-82 45 -9 72 -5 227 31 293 69 696 188 881 260 112 44 186 116 279 272 25 41
24 47 -5 16z M2213 6748 c49 -79 123 -155 191 -194 92 -54 515 -191 862 -278
696 -176 1492 -267 2217 -254 160 3 290 2 293 -3 3 -5 15 -9 28 -9 12 0 41
-16 65 -36 23 -20 43 -35 45 -33 2 2 18 49 36 104 18 55 34 101 35 103 1 1 15
-3 31 -9 52 -20 110 -13 159 21 66 46 67 54 4 46 -30 -3 -144 -13 -254 -21
-869 -65 -1751 14 -2635 235 -402 101 -968 290 -1065 355 -20 14 -38 25 -40
25 -2 0 10 -23 28 -52z M6690 6280 c-85 -16 -204 -34 -265 -41 -60 -7 -112
-14 -114 -15 -2 -2 46 -90 106 -196 61 -106 143 -253 183 -325 70 -126 90
-152 90 -118 0 16 170 615 194 683 l15 42 -27 -1 c-15 -1 -97 -14 -182 -29z
M5855 5719 c-21 -78 -68 -245 -105 -371 l-67 -230 186 -330 186 -330 70 6 c39
3 106 15 150 27 44 11 85 21 90 22 6 0 32 76 59 167 l48 168 -249 443 c-137
244 -265 472 -284 507 -18 34 -36 62 -40 62 -3 0 -23 -64 -44 -141z m265 -702
c75 -132 90 -166 90 -202 0 -48 -15 -66 -45 -55 -29 11 -46 34 -111 145 -107
184 -116 205 -111 259 10 109 50 75 177 -147z M6651 5458 c-18 -57 -101 -351
-101 -360 0 -20 63 30 91 72 34 51 69 156 69 206 0 37 -21 98 -38 108 -6 3
-15 -8 -21 -26z M4700 5039 c-1041 -39 -1959 -188 -2267 -366 -48 -28 -53 -39
-21 -49 51 -16 133 -4 274 40 298 93 747 168 1324 220 358 33 590 45 1003 53
310 6 337 5 337 -10 0 -13 9 -17 39 -17 36 0 39 -2 45 -33 3 -18 2 -57 -4 -86
-5 -30 -10 -82 -10 -117 0 -57 3 -67 31 -99 31 -35 53 -44 64 -25 3 5 34 109
69 231 59 207 63 224 49 246 l-15 23 -357 -2 c-196 0 -448 -5 -561 -9z M6517
4988 c-8 -27 0 -32 83 -59 95 -30 163 -42 360 -59 389 -36 785 -114 1079 -214
76 -26 114 -33 165 -32 36 0 67 6 68 11 5 17 -129 81 -257 124 -284 96 -694
171 -1195 221 -113 11 -226 22 -251 25 -42 5 -47 3 -52 -17z M5472 4381 c-22
-81 -56 -200 -75 -266 -19 -66 -32 -122 -30 -125 9 -10 149 147 180 201 18 32
46 67 62 79 28 19 38 20 116 14 74 -6 85 -9 85 -25 0 -16 8 -19 45 -19 72 0
121 25 145 74 11 24 20 62 20 88 l0 46 -87 6 c-140 10 -312 36 -369 55 l-51
17 -41 -145z M6273 4373 c-39 -43 -86 -104 -106 -135 -69 -107 -96 -126 -184
-126 -29 -1 -66 -8 -83 -17 -39 -20 -70 -70 -70 -112 0 -33 0 -33 48 -32 93 1
332 16 337 20 11 12 139 469 132 475 -2 2 -35 -31 -74 -73z M5500 3943 l-156
-3 -37 -131 -37 -131 262 -467 c143 -256 273 -486 288 -511 l27 -45 -19 -55
c-31 -93 -150 -521 -146 -526 10 -9 93 44 120 77 33 41 90 193 112 302 21 101
13 152 -30 195 l-33 33 49 179 c27 99 72 257 100 352 29 95 52 180 53 188 1
13 -269 503 -296 538 -5 7 -28 11 -56 10 -25 -1 -116 -4 -201 -5z m147 -247
c21 -19 73 -92 116 -162 76 -127 77 -130 77 -196 0 -72 -22 -128 -52 -128 -24
0 -64 55 -165 230 -121 208 -146 264 -126 283 3 4 30 7 60 7 46 0 58 -4 90
-34z M5163 3561 c-17 -11 -43 -39 -56 -63 -40 -67 -108 -301 -114 -391 -6 -76
-5 -78 27 -118 40 -50 45 -23 -76 -442 l-94 -328 161 -287 c393 -700 378 -676
402 -655 12 9 2 -4 -23 -31 -135 -143 -350 -177 -516 -80 -61 36 -141 126
-172 191 -20 46 -27 77 -30 148 -3 83 0 102 43 250 45 153 95 339 95 351 0 3
-12 4 -27 2 -39 -4 -55 -40 -49 -110 7 -68 20 -62 -164 -78 -812 -72 -1373
-237 -1502 -439 -42 -67 -37 -87 33 -146 292 -246 678 -364 1377 -421 261 -21
1095 -30 1433 -15 541 25 887 76 1178 175 185 63 340 149 474 262 54 45 58 52
53 82 -30 190 -449 359 -1130 457 -252 36 -500 57 -688 59 -91 0 -164 3 -162
5 2 2 -13 34 -33 70 -54 97 -492 880 -517 924 l-22 39 83 286 c45 158 82 295
83 305 0 23 -27 22 -67 -2z m109 -1364 c57 -100 129 -217 160 -261 76 -107 86
-169 42 -262 -38 -81 -74 -40 -269 301 -59 105 -116 201 -126 214 -14 18 -19
41 -19 92 0 73 9 106 35 133 17 16 19 16 46 -10 15 -14 74 -108 131 -207z
m370 -335 c12 -13 47 -30 118 -56 25 -8 109 -20 190 -26 455 -32 911 -108
1178 -197 136 -44 246 -96 266 -125 19 -27 20 -67 3 -88 -41 -51 -231 -136
-437 -194 -273 -77 -568 -115 -1065 -137 -432 -19 -454 -13 -398 111 28 60 29
123 3 164 -20 33 -40 47 -40 28 0 -5 -7 -17 -15 -28 -10 -12 -9 -5 4 21 14 30
164 528 172 574 1 3 4 -3 6 -14 3 -11 10 -26 15 -33z m-1160 -277 c10 -207 30
-272 139 -443 32 -50 32 -51 21 -70 -20 -30 -203 -24 -516 19 -222 30 -464 85
-574 131 -191 80 -285 145 -279 193 5 44 254 140 520 200 192 42 615 107 667
101 12 -1 16 -26 22 -131z"/>
</g>
</svg>
