<?xml version="1.0" standalone="no"?>
<!DOCTYPE svg PUBLIC "-//W3C//DTD SVG 20010904//EN"
 "http://www.w3.org/TR/2001/REC-SVG-20010904/DTD/svg10.dtd">
<svg version="1.0" xmlns="http://www.w3.org/2000/svg"
 width="2048.000000pt" height="2048.000000pt" viewBox="0 0 2048.000000 2048.000000"
 preserveAspectRatio="xMidYMid meet">
<metadata>
Created by potrace 1.13, written by Peter Selinger 2001-2015
</metadata>
<g transform="translate(0.000000,2048.000000) scale(0.192120,-0.192120)"
fill="#000000" stroke="none">
<path d="M3400 9914 c-464 -56 -784 -184 -1070 -429 -148 -126 -473 -493 -661
-745 -944 -1266 -1342 -2824 -1093 -4280 165 -963 596 -1811 1267 -2488 349
-353 709 -619 1142 -843 854 -442 1839 -614 2858 -499 1120 127 2210 608 3106
1370 289 246 458 419 563 575 176 262 275 562 312 945 8 85 20 171 25 190 15
50 48 276 60 405 56 597 -21 1227 -212 1740 -97 260 -204 472 -353 695 -142
215 -243 332 -507 590 -478 467 -614 606 -767 790 -179 216 -366 423 -477 531
-170 165 -323 257 -508 306 -88 23 -122 26 -280 28 l-180 2 -185 124 c-785
527 -1564 851 -2335 969 -111 17 -195 23 -405 25 -146 2 -281 1 -300 -1z m564
-539 c522 -61 1101 -271 1713 -621 170 -97 579 -363 688 -448 41 -32 66 -45
80 -42 99 25 228 40 345 40 207 0 204 1 475 -263 131 -127 309 -317 436 -461
288 -330 548 -616 768 -844 100 -104 219 -235 264 -290 278 -346 472 -766 567
-1228 53 -255 65 -385 65 -708 0 -297 -6 -387 -45 -620 -10 -63 -21 -171 -24
-240 -14 -366 -143 -686 -365 -910 -423 -425 -1150 -490 -2059 -184 -92 31
-179 62 -193 70 -43 22 -374 273 -514 390 -171 142 -454 426 -539 539 -37 50
-87 133 -112 185 -25 52 -58 120 -72 150 -32 66 -139 181 -231 249 -102 76
-251 161 -499 285 -441 221 -596 314 -722 432 -140 132 -142 137 -385 944
-155 514 -209 685 -257 807 -64 166 -152 252 -304 299 -45 13 -97 35 -115 47
-50 33 -103 117 -145 225 -20 54 -57 149 -81 212 -81 208 -213 439 -359 627
-75 96 -77 106 -44 298 73 425 303 751 656 928 118 59 350 124 504 140 96 10
388 5 504 -8z m-1520 -177 c-4 -7 -33 -49 -64 -93 -168 -234 -257 -427 -315
-675 -16 -72 -21 -375 -6 -384 5 -3 12 -17 15 -31 7 -29 80 -153 205 -350 93
-146 136 -234 222 -450 73 -183 120 -271 199 -373 33 -43 60 -81 60 -84 0 -15
-94 4 -138 27 -61 32 -72 42 -110 94 -39 53 -60 100 -143 306 -103 260 -226
491 -364 684 l-75 105 0 220 c0 215 1 224 31 335 29 108 81 229 131 303 63 92
166 213 248 291 82 79 123 108 104 75z m-609 -498 c-54 -189 -94 -474 -95
-681 l0 -65 69 -86 c178 -222 326 -488 428 -768 65 -182 97 -252 147 -329 57
-88 124 -141 228 -180 184 -69 240 -112 294 -225 48 -102 85 -262 154 -666
122 -713 170 -866 319 -1023 169 -177 286 -254 1016 -667 460 -259 684 -439
769 -615 19 -38 55 -113 80 -165 116 -245 420 -557 869 -894 165 -124 205
-145 417 -224 654 -242 1299 -330 1810 -246 80 13 303 66 375 89 11 4 -7 -10
-40 -30 -83 -50 -328 -169 -525 -255 -91 -40 -300 -137 -465 -215 -319 -151
-469 -215 -513 -218 -22 -2 -28 3 -30 25 -2 15 5 42 15 60 66 124 55 233 -34
321 -57 57 -96 72 -193 72 -77 0 -94 -4 -185 -42 -305 -128 -383 -159 -515
-203 -144 -48 -233 -74 -300 -85 -19 -3 -69 -14 -110 -25 -169 -42 -480 -75
-480 -51 0 11 98 51 260 107 201 69 329 132 389 192 105 105 147 242 102 330
-42 83 -153 162 -228 162 -45 0 -154 -38 -318 -110 -181 -79 -456 -172 -626
-209 -233 -52 -349 -64 -599 -61 -293 4 -331 3 -379 -10 -52 -14 -116 -63
-163 -125 -35 -47 -38 -55 -38 -120 0 -120 -10 -132 -88 -114 -150 33 -231 29
-328 -17 -75 -36 -124 -29 -246 32 -367 184 -801 494 -1068 763 -202 204 -320
346 -501 606 -219 313 -499 895 -499 1036 0 24 4 29 24 29 13 0 26 6 29 14 3
8 20 17 38 21 40 9 133 99 157 152 15 34 18 102 23 648 l5 610 28 145 c71 376
164 710 321 1161 135 387 145 422 145 512 0 66 -3 79 -31 120 -103 156 -263
168 -403 30 -33 -33 -68 -81 -86 -117 -120 -253 -313 -918 -385 -1331 -44
-247 -43 -250 -44 151 -1 361 0 375 24 495 62 302 173 659 296 959 33 80 152
330 265 557 112 226 204 414 204 417 0 20 240 480 246 473 1 -1 -13 -54 -31
-117z m-217 -1504 c37 -20 62 -66 62 -113 0 -26 -16 -85 -41 -150 -283 -740
-443 -1355 -500 -1918 -19 -189 -16 -553 7 -730 31 -245 23 -319 -37 -350 -43
-23 -55 -19 -94 30 -33 39 -39 55 -51 137 -34 228 -47 456 -41 763 9 464 59
838 178 1309 86 343 281 928 326 979 48 54 136 74 191 43z m7287 -500 c92
-102 190 -229 261 -343 45 -71 54 -94 54 -131 l0 -46 -69 110 c-38 60 -114
169 -168 242 -54 73 -108 147 -121 164 -12 17 -40 50 -62 72 -22 22 -40 44
-40 50 0 5 -8 19 -17 30 -48 55 98 -77 162 -148z m-5878 -101 c67 -44 74 -63
71 -177 l-3 -103 -19 49 c-17 43 -64 129 -118 214 -9 15 -17 33 -17 40 -1 17
45 5 86 -23z m253 -595 c23 -74 66 -216 96 -315 126 -414 197 -630 231 -703
70 -150 186 -297 351 -445 29 -26 56 -47 60 -47 4 0 14 -9 22 -20 8 -11 18
-20 23 -20 13 0 37 -27 37 -42 0 -10 -3 -9 -10 2 -5 8 -10 11 -10 7 0 -4 -10
-2 -22 5 -13 7 -25 13 -28 13 -18 3 -184 93 -266 145 -193 121 -308 231 -367
351 -39 79 -90 262 -133 479 -25 125 -28 158 -32 435 -2 165 -1 298 1 295 3
-3 24 -66 47 -140z m837 -1602 c-3 -8 -6 -5 -6 6 -1 11 2 17 5 13 3 -3 4 -12
1 -19z m30 -20 c-3 -8 -6 -5 -6 6 -1 11 2 17 5 13 3 -3 4 -12 1 -19z m250
-140 c-3 -8 -6 -5 -6 6 -1 11 2 17 5 13 3 -3 4 -12 1 -19z m20 -10 c-3 -8 -6
-5 -6 6 -1 11 2 17 5 13 3 -3 4 -12 1 -19z m163 -55 c254 -121 330 -163 450
-244 119 -81 158 -125 243 -276 131 -231 257 -394 462 -598 238 -237 637 -559
835 -675 95 -56 160 -89 160 -83 0 3 6 1 13 -4 6 -6 30 -16 52 -23 22 -7 46
-17 53 -23 6 -5 12 -6 12 -2 0 4 7 2 15 -5 8 -7 15 -9 15 -5 0 5 9 0 20 -10
11 -10 20 -15 20 -11 0 4 5 4 10 1 6 -4 8 -11 4 -16 -4 -6 -10 -6 -18 0 -7 6
-16 8 -19 5 -3 -3 -35 4 -72 16 -36 12 -73 23 -83 25 -9 2 -17 4 -17 5 0 1 -9
3 -20 4 -42 6 -262 80 -323 109 -54 26 -198 120 -277 182 -11 8 -45 34 -75 57
-191 145 -437 383 -545 526 -38 50 -97 150 -140 237 -127 256 -248 390 -540
596 -77 54 -144 102 -150 106 -5 5 -32 22 -60 38 -27 16 -56 34 -63 41 -7 7
-35 25 -62 40 -28 15 -50 33 -50 40 0 17 19 10 150 -53z m4744 -1388 c-8 -38
-66 -115 -154 -207 -54 -57 -70 -68 -70 -52 0 11 12 31 26 45 22 20 78 99 168
235 24 36 39 25 30 -21z m-437 -457 c-3 -8 -6 -5 -6 6 -1 11 2 17 5 13 3 -3 4
-12 1 -19z m-36 -25 c-8 -15 -10 -15 -11 -2 0 17 10 32 18 25 2 -3 -1 -13 -7
-23z m-27 -16 c-2 -7 -13 -18 -24 -25 -17 -10 -20 -10 -20 2 0 8 8 20 18 25
23 14 32 13 26 -2z m-56 -33 c-3 -17 -127 -93 -162 -100 -11 -2 -23 -8 -26
-14 -4 -6 -11 -10 -16 -9 -5 1 -35 -5 -66 -15 -32 -10 -62 -15 -68 -11 -5 3
-10 1 -10 -5 0 -6 -8 -10 -17 -8 -10 1 -24 -1 -31 -6 -8 -5 -18 -4 -25 3 -7 7
-6 12 4 15 19 7 191 66 204 70 6 2 13 4 18 5 4 0 32 14 63 31 31 16 60 27 65
24 5 -3 9 -1 9 4 0 9 36 30 53 31 5 1 7 -6 5 -15z m-1788 -59 c0 -8 -4 -15
-10 -15 -5 0 -10 7 -10 15 0 8 5 15 10 15 6 0 10 -7 10 -15z m35 -4 c3 -5 1
-12 -5 -16 -5 -3 -10 1 -10 9 0 18 6 21 15 7z m35 -10 c0 -6 -4 -13 -10 -16
-5 -3 -10 1 -10 9 0 9 5 16 10 16 6 0 10 -4 10 -9z m35 -10 c3 -5 1 -12 -5
-16 -5 -3 -10 1 -10 9 0 18 6 21 15 7z m1240 -80 c7 -12 -12 -24 -25 -16 -11
7 -4 25 10 25 5 0 11 -4 15 -9z m-2386 -109 c88 -47 93 -170 9 -237 -64 -51
-314 -150 -553 -220 -265 -76 -506 -123 -758 -146 -153 -14 -633 -7 -690 11
-21 6 -53 25 -72 42 -63 55 -38 115 59 139 39 10 90 10 245 0 219 -15 404 -5
611 30 314 53 659 176 923 327 56 33 109 61 117 65 30 11 76 7 109 -11z m1102
-395 c72 -48 75 -151 5 -220 -56 -56 -364 -179 -640 -258 -454 -128 -874 -183
-1411 -183 -489 0 -822 36 -1345 145 -272 57 -358 100 -305 152 35 35 54 33
396 -36 181 -37 389 -67 609 -88 162 -16 661 -16 815 0 639 63 1179 212 1643
451 133 68 176 75 233 37z M3745 8664 c-69 -11 -201 -47 -266 -75 -217 -89
-383 -275 -459 -515 l-23 -71 52 -86 c70 -116 162 -310 206 -437 70 -196 134
-298 211 -335 20 -9 68 -26 107 -36 92 -26 139 -57 182 -122 87 -131 367 -843
593 -1508 98 -288 127 -338 254 -447 98 -83 212 -149 555 -321 361 -181 475
-252 586 -362 64 -64 84 -92 117 -165 97 -216 163 -313 321 -478 141 -147 449
-411 524 -448 51 -26 270 -97 393 -128 169 -42 288 -60 448 -67 543 -23 894
210 1000 663 14 60 35 138 45 174 24 81 53 225 71 350 20 146 17 584 -5 730
-59 382 -186 715 -386 1014 -102 152 -196 261 -449 520 -227 233 -472 495
-617 661 -43 50 -161 176 -262 282 -158 166 -193 197 -250 225 -57 28 -79 33
-159 36 -102 5 -155 -5 -237 -43 -42 -19 -55 -21 -69 -12 -9 7 -68 52 -132
100 -521 394 -1126 706 -1613 832 -203 53 -307 67 -513 70 -107 2 -208 1 -225
-1z m495 -263 c63 -11 139 -27 168 -35 49 -13 52 -13 52 4 0 18 2 18 53 4 182
-54 394 -139 597 -239 257 -128 449 -244 815 -495 134 -92 243 -147 307 -156
24 -3 90 1 148 10 185 28 229 9 415 -178 72 -72 237 -248 366 -391 253 -280
380 -416 609 -650 167 -170 205 -215 312 -370 171 -248 275 -486 338 -774 20
-90 21 -120 18 -560 l-3 -466 -47 -180 c-56 -215 -90 -302 -152 -389 -190
-267 -654 -324 -1232 -151 -211 63 -311 124 -540 326 -192 171 -288 289 -394
489 -84 159 -153 253 -259 353 -117 109 -222 174 -569 352 -358 182 -443 232
-524 305 -98 87 -116 127 -303 660 -181 516 -418 1093 -495 1205 -62 90 -154
170 -257 224 -54 28 -108 59 -119 68 -36 30 -72 97 -150 281 -42 97 -94 213
-117 257 -64 123 -58 181 31 289 96 116 265 196 475 226 94 13 328 3 457 -19z"/>
</g>
</svg>
