<?xml version="1.0" standalone="no"?>
<!DOCTYPE svg PUBLIC "-//W3C//DTD SVG 20010904//EN"
 "http://www.w3.org/TR/2001/REC-SVG-20010904/DTD/svg10.dtd">
<svg version="1.0" xmlns="http://www.w3.org/2000/svg"
 width="2048.000000pt" height="2048.000000pt" viewBox="0 0 2048.000000 2048.000000"
 preserveAspectRatio="xMidYMid meet">
<metadata>
Created by potrace 1.13, written by Peter Selinger 2001-2015
</metadata>
<g transform="translate(0.000000,2048.000000) scale(0.192120,-0.192120)"
fill="#000000" stroke="none">
<path d="M5180 9613 c-660 -33 -1342 -171 -1956 -394 -1146 -416 -1976 -1088
-2417 -1956 -212 -419 -329 -831 -378 -1337 -17 -176 -9 -286 26 -366 28 -64
28 -69 36 -320 18 -642 149 -1186 419 -1748 360 -746 934 -1367 1668 -1804
802 -477 1825 -720 2917 -694 1271 30 2310 378 3165 1060 167 133 500 467 634
636 118 148 283 390 371 544 364 638 564 1394 554 2096 -3 162 -1 192 17 240
16 46 19 82 19 220 0 265 -53 539 -165 865 -281 814 -846 1540 -1590 2041
-797 537 -1767 839 -2935 914 -149 9 -252 10 -385 3z m765 -273 c770 -91 1415
-278 2000 -580 346 -179 604 -349 852 -563 107 -93 153 -147 153 -180 0 -11
-18 -18 -66 -26 -161 -28 -266 -103 -329 -236 -32 -67 -35 -79 -35 -167 0 -92
2 -99 41 -178 67 -133 196 -250 371 -337 163 -80 273 -76 359 14 57 60 99 132
99 171 0 16 7 35 15 42 10 9 15 32 15 77 l0 64 32 -38 c18 -21 36 -40 40 -43
14 -11 133 -219 198 -348 121 -240 220 -514 274 -763 24 -110 26 -133 26 -396
0 -294 -3 -317 -49 -415 -12 -25 -46 -71 -74 -102 -48 -51 -76 -68 -349 -205
-313 -157 -391 -192 -607 -272 -613 -228 -1537 -407 -2601 -504 -1126 -102
-2083 -101 -2875 1 -908 117 -1557 316 -2142 657 -70 41 -180 100 -244 130
-152 73 -236 154 -303 291 -75 153 -76 159 -76 414 0 181 4 252 20 352 81 497
258 933 535 1318 36 50 65 94 65 98 0 20 227 279 336 384 132 126 267 242 365
317 615 463 1533 830 2444 978 88 14 175 28 193 31 27 4 32 2 32 -15 0 -17 5
-20 29 -15 34 7 41 -9 41 -105 0 -83 27 -136 105 -209 96 -89 193 -122 359
-122 123 0 186 13 273 55 152 75 230 216 192 346 -15 49 1 74 43 65 23 -5 28
-2 28 14 0 25 2 25 215 0z m-585 -26 c243 -57 239 -215 -7 -279 -68 -18 -220
-20 -295 -4 -117 25 -205 95 -194 153 18 86 150 144 336 145 53 0 124 -6 160
-15z m3630 -1494 c83 -43 178 -192 240 -379 37 -109 39 -177 8 -216 -20 -25
-25 -27 -82 -23 -141 9 -434 197 -487 313 -38 82 -19 188 44 253 76 80 184
100 277 52z m1156 -2492 c-18 -65 -79 -269 -96 -324 -18 -55 -11 -151 16 -238
l25 -82 -36 -84 c-347 -813 -1373 -1479 -2749 -1785 -968 -215 -2107 -262
-3183 -130 -1294 159 -2341 578 -2972 1189 -196 191 -334 374 -441 588 -84
168 -87 181 -61 266 23 78 28 181 10 246 -7 22 -34 115 -61 205 -27 90 -47
168 -45 174 1 5 28 -22 59 -59 64 -80 214 -229 308 -306 185 -152 480 -325
756 -443 1076 -462 2563 -615 4454 -460 1250 103 2250 298 2965 578 266 105
590 282 760 416 66 53 220 209 261 266 22 29 41 52 43 49 2 -2 -4 -32 -13 -66z
m-549 -1693 c-13 -77 -142 -316 -300 -550 -618 -923 -1666 -1553 -2922 -1759
-344 -56 -610 -76 -1020 -76 -695 0 -1237 81 -1815 272 -1025 338 -1851 1002
-2325 1868 -54 99 -95 196 -95 227 0 24 21 13 88 -45 224 -196 516 -385 822
-531 168 -80 299 -132 522 -207 649 -219 1236 -334 2033 -401 264 -22 1199
-25 1445 -5 1074 87 1779 257 2630 631 198 87 334 159 470 250 95 63 294 220
385 304 72 67 90 72 82 22z M5130 8574 c-310 -38 -579 -113 -795 -222 -383
-193 -522 -448 -349 -641 51 -56 119 -104 244 -170 78 -41 87 -49 78 -65 -19
-34 -4 -130 28 -182 69 -112 218 -165 597 -214 506 -65 1028 -45 1422 54 211
54 296 103 348 201 21 42 28 122 14 162 -8 21 0 27 105 76 96 46 121 63 170
116 248 268 -52 602 -695 775 -274 74 -529 107 -867 111 -146 2 -281 1 -300
-1z m620 -210 c512 -55 911 -186 1088 -357 41 -40 42 -42 42 -109 0 -56 -4
-71 -24 -95 -20 -24 -32 -28 -73 -28 -44 0 -57 6 -148 71 -126 90 -199 130
-348 188 -283 111 -691 168 -977 137 -130 -14 -341 -66 -475 -116 -175 -66
-289 -128 -494 -268 -79 -55 -149 -48 -218 23 -29 30 -33 40 -33 90 0 54 2 58
48 104 197 199 624 346 1102 380 92 6 367 -4 510 -20z m-42 -465 c226 -24 486
-93 656 -174 125 -59 324 -202 305 -219 -9 -8 -229 -76 -324 -100 -256 -64
-489 -90 -805 -89 -434 1 -793 45 -1087 135 -57 17 -103 34 -103 37 1 11 124
99 220 157 208 126 444 212 679 249 106 16 329 19 459 4z M2680 8315 c-177
-43 -414 -202 -530 -356 -83 -111 -112 -170 -118 -246 -4 -51 -1 -69 18 -105
38 -74 144 -184 208 -215 55 -27 62 -28 217 -28 227 0 351 31 478 117 82 56
157 133 204 210 38 63 38 63 41 189 4 125 3 127 -28 190 -63 123 -193 225
-319 249 -68 13 -102 12 -171 -5z m229 -159 c97 -50 161 -153 161 -261 0 -107
-64 -212 -159 -259 -142 -71 -500 -107 -643 -64 -142 42 -127 159 41 328 134
133 312 257 405 281 51 13 142 1 195 -25z M2230 6995 c-82 -23 -136 -59 -226
-149 -73 -74 -87 -96 -152 -226 -89 -180 -112 -261 -112 -393 0 -90 2 -102 32
-159 37 -71 107 -144 163 -169 109 -50 293 0 502 137 151 98 250 216 303 362
18 50 21 76 18 163 -3 95 -6 110 -39 180 -96 201 -300 307 -489 254z m186
-170 c189 -56 269 -277 160 -441 -86 -129 -412 -312 -563 -316 -65 -2 -101 21
-122 77 -50 130 152 578 294 653 81 42 152 51 231 27z M7053 6125 c-125 -35
-302 -151 -404 -263 -78 -86 -129 -191 -129 -263 0 -30 6 -63 14 -74 7 -11 17
-31 21 -44 16 -51 101 -136 167 -166 140 -64 405 -54 563 20 69 33 150 120
195 210 32 65 35 78 38 181 4 110 3 112 -31 181 -41 80 -127 167 -202 202 -61
29 -162 36 -232 16z m225 -192 c156 -96 144 -334 -20 -411 -80 -37 -286 -58
-417 -42 -212 25 -243 106 -97 249 100 98 208 173 315 218 75 32 153 27 219
-14z M9771 4928 c-8 -29 -33 -102 -56 -163 -28 -71 -49 -147 -60 -215 -23
-146 -66 -273 -141 -425 -78 -157 -169 -287 -288 -412 -247 -259 -537 -383
-778 -332 -29 6 -102 34 -162 61 -131 60 -253 100 -389 130 -89 19 -133 22
-337 22 -253 1 -309 -6 -540 -64 -273 -69 -493 -157 -1001 -400 -311 -149
-427 -199 -561 -242 -90 -28 -117 -33 -213 -33 -103 0 -113 2 -163 29 -28 16
-116 90 -195 165 -424 404 -638 551 -906 623 -102 27 -279 29 -370 4 -146 -40
-247 -100 -403 -239 -157 -140 -248 -190 -399 -222 -408 -86 -990 172 -1456
646 -277 282 -413 540 -328 625 l25 25 -21 41 c-28 54 -58 141 -69 198 -6 33
-4 58 10 103 l18 58 -31 -6 c-102 -21 -177 -83 -177 -145 0 -36 124 -399 162
-474 106 -211 333 -460 615 -672 466 -352 1025 -551 1382 -493 129 20 219 68
423 225 163 125 274 169 428 168 210 -2 388 -87 745 -355 28 -21 95 -77 150
-126 149 -131 185 -158 267 -201 109 -58 203 -76 352 -69 241 12 484 87 879
273 364 172 580 259 742 298 293 72 416 90 625 90 196 0 271 -10 544 -75 198
-47 290 -56 407 -40 384 55 812 363 1093 786 77 116 174 309 241 480 73 185
85 224 85 276 0 41 -4 51 -31 73 -24 21 -90 56 -103 56 -1 0 -8 -24 -15 -52z
M9582 4493 c-79 -133 -198 -280 -341 -423 -159 -158 -276 -247 -424 -322 -131
-67 -229 -91 -342 -86 -82 4 -99 8 -193 52 -126 57 -250 99 -385 128 -89 19
-133 22 -337 22 -253 1 -309 -6 -540 -64 -283 -71 -525 -170 -1111 -453 -351
-169 -540 -231 -689 -225 -116 5 -156 29 -333 197 -339 323 -481 434 -687 536
-135 68 -242 96 -385 102 -241 10 -385 -51 -624 -266 -132 -118 -213 -169
-339 -211 -248 -83 -515 -50 -827 100 -347 168 -690 475 -915 820 -52 79 -61
89 -55 60 11 -59 79 -191 145 -280 84 -115 331 -357 462 -455 344 -258 685
-386 988 -372 206 10 337 64 533 221 198 157 312 225 468 277 172 58 252 44
494 -81 250 -130 360 -212 701 -524 206 -189 276 -223 449 -213 171 9 320 62
750 267 713 339 1028 436 1448 447 289 8 419 -13 725 -118 143 -48 194 -61
263 -66 179 -12 384 66 594 225 121 93 295 287 389 435 58 91 176 337 162 337
-2 0 -22 -30 -44 -67z"/>
</g>
</svg>
