<?xml version="1.0" standalone="no"?>
<!DOCTYPE svg PUBLIC "-//W3C//DTD SVG 20010904//EN"
 "http://www.w3.org/TR/2001/REC-SVG-20010904/DTD/svg10.dtd">
<svg version="1.0" xmlns="http://www.w3.org/2000/svg"
 width="2048.000000pt" height="2048.000000pt" viewBox="0 0 2048.000000 2048.000000"
 preserveAspectRatio="xMidYMid meet">
<metadata>
Created by potrace 1.13, written by Peter Selinger 2001-2015
</metadata>
<g transform="translate(0.000000,2048.000000) scale(0.192120,-0.192120)"
fill="#000000" stroke="none">
<path d="M5770 10024 c-384 -26 -646 -65 -960 -144 -434 -109 -778 -252 -1168
-486 -1525 -917 -2553 -2132 -3016 -3563 -282 -872 -336 -1786 -155 -2616 165
-755 654 -1470 1351 -1978 235 -171 664 -407 783 -429 86 -17 438 -13 655 6
815 73 1805 274 2695 547 1300 400 2171 889 2902 1630 894 907 1358 2119 1302
3402 -17 394 -77 723 -185 1016 -56 152 -195 424 -292 571 -261 399 -554 661
-896 804 -82 35 -128 62 -190 112 -44 36 -82 70 -84 74 -2 4 10 30 26 57 16
27 35 67 42 88 l13 39 -94 91 c-105 100 -214 186 -302 235 -81 45 -128 40
-271 -28 -59 -29 -113 -49 -120 -45 -6 4 -74 59 -151 123 -172 143 -230 184
-365 251 -256 127 -614 210 -1028 238 -140 10 -379 12 -492 5z m390 -340 c389
-49 768 -210 956 -406 105 -109 133 -202 79 -266 -35 -42 -84 -58 -242 -82
-710 -104 -1482 -552 -2509 -1456 -338 -298 -993 -912 -1193 -1119 -520 -540
-990 -1182 -1403 -1920 -124 -223 -172 -313 -385 -730 -99 -192 -199 -384
-224 -425 -55 -92 -137 -180 -168 -180 -33 0 -70 45 -117 141 -107 217 -160
480 -171 854 -26 920 295 1967 874 2850 414 630 1059 1325 1652 1779 439 335
905 587 1394 750 634 213 1008 266 1457 210z m882 -85 c48 -15 110 -40 137
-54 42 -21 50 -22 53 -9 4 20 116 -48 283 -170 122 -90 195 -134 195 -117 0 5
17 3 38 -5 55 -19 117 -17 173 7 l49 22 58 -38 c31 -21 84 -59 117 -83 33 -25
52 -37 43 -26 -10 11 -18 27 -17 35 0 10 2 10 6 2 2 -7 13 -13 23 -13 43 0
100 -92 69 -110 -7 -5 -16 -7 -20 -4 -4 2 2 -20 13 -49 12 -28 29 -79 39 -112
11 -37 18 -51 19 -35 1 24 1 25 16 5 8 -11 18 -19 22 -17 4 2 36 -32 72 -75
79 -94 167 -161 297 -228 191 -98 339 -216 467 -375 16 -19 22 -24 14 -10 -8
14 -36 61 -62 105 -26 44 -63 105 -83 135 l-36 55 59 -54 c389 -361 697 -908
798 -1418 42 -211 46 -274 46 -775 0 -439 -2 -501 -21 -630 -80 -559 -267
-1101 -546 -1578 -58 -99 -192 -292 -240 -346 -31 -35 -70 -80 -203 -239 -124
-146 -395 -415 -550 -544 -347 -289 -685 -509 -1105 -716 -274 -136 -460 -216
-780 -335 -979 -364 -2311 -663 -3299 -740 -191 -15 -468 -12 -549 5 -194 41
-690 340 -957 578 -93 83 -284 275 -349 352 -288 339 -518 764 -602 1110 -16
68 -19 115 -18 320 1 134 5 225 9 205 51 -240 136 -450 218 -542 54 -59 88
-78 142 -78 95 0 158 68 297 320 44 80 149 280 233 444 231 455 345 661 538
976 444 721 844 1222 1424 1781 722 696 1305 1207 1718 1505 242 175 274 197
449 303 460 281 790 415 1196 486 162 29 244 63 291 122 79 99 85 174 25 297
-50 103 -110 170 -239 267 -57 43 -107 79 -111 81 -5 2 -12 13 -15 26 -7 21
-5 22 31 16 21 -3 77 -19 125 -35z m-4308 -1191 c-33 -34 -120 -126 -194 -204
-285 -299 -568 -630 -745 -870 -433 -591 -734 -1191 -929 -1854 l-25 -85 0
185 0 185 38 115 c81 240 155 418 264 635 208 416 507 849 846 1228 206 230
567 573 691 656 19 13 40 29 45 36 16 18 58 45 63 40 3 -2 -22 -32 -54 -67z
m-1907 -2985 c-1 -54 -3 -10 -3 97 0 107 2 151 3 98 2 -54 2 -142 0 -195z
M9533 6895 c0 -232 3 -315 7 -245 10 140 10 471 0 540 -4 31 -7 -95 -7 -295z
M7806 7143 c-8 -97 -6 -343 3 -453 6 -59 8 8 9 223 1 169 0 307 -2 307 -1 0
-6 -34 -10 -77z M8384 3748 c2 -9 10 -36 16 -59 l11 -42 40 39 c21 21 39 40
39 42 0 2 -11 1 -25 -2 -25 -6 -62 7 -78 28 -6 7 -7 5 -3 -6z"/>
</g>
</svg>
