<?xml version="1.0" standalone="no"?>
<!DOCTYPE svg PUBLIC "-//W3C//DTD SVG 20010904//EN"
 "http://www.w3.org/TR/2001/REC-SVG-20010904/DTD/svg10.dtd">
<svg version="1.0" xmlns="http://www.w3.org/2000/svg"
 width="2048.000000pt" height="2048.000000pt" viewBox="0 0 2048.000000 2048.000000"
 preserveAspectRatio="xMidYMid meet">
<metadata>
Created by potrace 1.13, written by Peter Selinger 2001-2015
</metadata>
<g transform="translate(0.000000,2048.000000) scale(0.192120,-0.192120)"
fill="#000000" stroke="none">
<path d="M4925 10323 c-272 -38 -606 -218 -938 -506 -51 -44 -84 -59 -419
-186 -388 -148 -885 -329 -1199 -436 -107 -36 -215 -80 -241 -96 -382 -245
-890 -1493 -1388 -3409 -217 -835 -410 -1736 -410 -1916 0 -57 2 -63 37 -98
117 -117 411 -223 811 -292 199 -35 427 -39 486 -9 40 20 40 21 109 220 237
690 480 1616 647 2470 22 116 42 218 44 227 6 26 -27 6 -56 -34 -63 -88 -112
-255 -263 -879 -145 -601 -273 -1069 -401 -1460 -113 -348 -145 -404 -232
-416 -87 -12 -382 29 -593 82 -175 45 -374 121 -421 163 -16 13 -18 34 -18
147 0 144 23 285 115 695 359 1605 800 3030 1166 3770 178 361 314 538 469
611 41 20 145 60 232 89 106 35 158 57 161 69 3 10 40 28 103 50 91 31 736
269 777 286 12 5 17 3 17 -8 0 -12 14 -9 73 14 79 31 117 36 117 16 0 -8 -16
-46 -35 -86 -56 -114 -63 -174 -31 -235 35 -66 119 -141 198 -177 30 -13 42
-37 32 -63 -4 -9 -43 -42 -88 -72 -112 -75 -110 -74 -150 -134 -31 -47 -36
-62 -36 -115 0 -34 11 -103 25 -155 39 -153 458 -1539 520 -1725 70 -208 134
-346 170 -365 14 -7 27 -11 30 -8 7 6 -56 221 -400 1363 -152 506 -279 927
-282 936 -3 12 60 47 271 150 152 73 276 136 276 140 0 3 -123 65 -272 139
-150 73 -275 135 -277 136 -4 4 70 95 208 257 128 151 434 455 551 549 210
168 392 266 551 297 31 6 35 9 14 8 -16 0 -43 -2 -60 -4z M5682 10320 c157
-27 338 -123 553 -294 121 -97 424 -398 556 -553 138 -161 212 -253 208 -256
-2 -2 -127 -63 -276 -137 -150 -74 -273 -136 -273 -139 1 -3 125 -67 276 -141
208 -101 274 -138 271 -150 -315 -1044 -623 -2072 -647 -2155 -17 -60 -33
-117 -36 -126 -3 -9 2 -19 11 -23 11 -4 29 8 56 36 70 75 89 57 89 -86 0 -52
4 -98 10 -101 6 -4 10 -57 10 -125 0 -269 67 -412 231 -495 105 -54 208 -69
459 -69 164 0 233 4 290 17 143 32 254 106 301 201 18 37 19 66 19 467 l0 427
-26 51 c-31 62 -56 88 -112 113 -58 26 -145 17 -232 -26 l-65 -31 171 -3 171
-2 13 -273 c8 -149 14 -358 14 -463 l1 -190 -30 -50 c-42 -68 -142 -118 -270
-135 -105 -14 -505 -6 -575 10 -108 26 -198 82 -234 144 -43 74 -50 151 -42
497 8 359 14 452 30 463 6 5 2 7 -12 4 -12 -3 -28 1 -36 8 -7 8 -16 11 -20 8
-3 -4 -6 21 -6 55 0 75 22 158 82 312 61 154 83 223 257 805 182 609 184 619
179 703 -5 95 -37 139 -163 225 -137 93 -140 106 -39 163 123 69 192 166 182
256 -3 24 -24 81 -47 128 -62 126 -57 134 55 90 47 -18 80 -26 84 -20 4 6 177
-52 416 -139 225 -81 488 -176 585 -209 320 -110 373 -144 520 -332 173 -221
428 -778 637 -1390 38 -113 95 -268 125 -345 29 -77 64 -183 77 -235 33 -141
44 -183 116 -435 184 -649 347 -1298 479 -1915 80 -371 85 -404 85 -551 0
-165 -3 -171 -122 -222 -232 -99 -601 -179 -841 -181 l-108 -1 -38 40 c-28 30
-47 69 -79 158 -98 275 -279 928 -467 1682 -157 627 -208 796 -265 879 -29 43
-50 58 -50 37 0 -5 18 -99 41 -208 180 -884 452 -1921 666 -2542 70 -203 61
-196 268 -195 445 1 1089 204 1155 365 15 36 7 116 -36 348 -166 903 -516
2246 -829 3186 -354 1066 -686 1712 -951 1857 -27 14 -141 58 -254 96 -379
130 -821 291 -1325 484 -194 75 -214 85 -270 135 -141 129 -363 282 -531 366
-136 68 -378 140 -463 136 -15 -1 -6 -5 21 -9z M4935 10178 c-149 -28 -310
-155 -378 -298 -40 -86 -57 -157 -56 -238 l0 -57 18 60 c57 198 211 356 402
412 42 12 121 17 346 20 307 5 418 -3 515 -36 164 -56 305 -212 359 -396 l18
-60 0 57 c3 251 -196 492 -443 537 -73 13 -710 13 -781 -1z M4911 9894 c-180
-49 -341 -203 -391 -374 -18 -63 -19 -153 -24 -2595 -6 -2719 -14 -3346 -56
-4320 -24 -566 -64 -1169 -95 -1439 -8 -71 -13 -131 -11 -133 2 -3 60 9 128
26 308 77 588 106 953 98 320 -7 554 -37 803 -102 52 -14 97 -25 101 -25 5 0
4 24 0 53 -22 140 -60 640 -84 1082 -61 1161 -74 2043 -75 5041 0 2218 0 2253
-20 2316 -49 158 -177 292 -345 359 -59 24 -65 24 -445 26 -313 2 -395 -1
-439 -13z m840 -222 c93 -37 137 -75 172 -150 l32 -67 7 -2160 c9 -3084 29
-4271 88 -5215 15 -237 13 -760 -2 -755 -31 11 -306 45 -448 56 -275 21 -717
-3 -957 -52 -29 -6 -57 -8 -63 -4 -15 9 -12 350 5 630 14 230 38 752 50 1090
28 794 45 2270 54 4735 6 1794 4 1701 55 1775 26 37 49 58 103 91 79 48 137
53 508 51 326 -3 342 -4 396 -25z M6855 7044 c-24 -25 -47 -117 -69 -286 l-5
-38 94 0 94 0 -5 38 c-35 250 -65 330 -109 286z M7132 7040 c-21 -23 -45 -111
-57 -210 -3 -30 -8 -67 -11 -82 l-6 -28 95 0 94 0 -13 95 c-18 127 -39 204
-62 228 -19 19 -20 19 -40 -3z M8138 6294 c-9 -11 -26 -47 -37 -81 -20 -59
-21 -83 -21 -470 0 -241 6 -513 15 -663 17 -286 52 -747 61 -799 3 -19 9 -120
14 -225 16 -348 159 -1390 215 -1566 8 -25 37 -166 64 -315 48 -257 114 -579
180 -877 45 -199 42 -264 -13 -297 -29 -18 -485 -165 -826 -266 -429 -127
-994 -245 -1178 -245 -74 0 -87 25 -130 239 -37 191 -51 223 -110 248 -19 8
-36 12 -38 10 -4 -4 22 -234 36 -322 6 -33 22 -122 37 -199 l26 -139 111 7
c473 29 1169 203 2056 513 118 42 219 79 223 83 5 4 -12 88 -37 186 -87 344
-186 818 -270 1299 -207 1183 -323 2367 -354 3624 -7 256 -8 272 -24 255z
M2496 6239 c-3 -30 -8 -187 -11 -349 -20 -1066 -149 -2349 -350 -3490 -89
-501 -219 -1118 -290 -1375 -13 -49 -23 -91 -21 -93 11 -10 514 -184 731 -252
670 -210 1170 -321 1556 -346 99 -6 107 -5 112 12 20 66 80 438 93 572 6 68 5
72 -12 66 -41 -13 -84 -39 -84 -50 0 -7 -5 -14 -11 -16 -6 -2 -24 -70 -39
-152 -35 -177 -44 -207 -77 -246 -30 -36 -41 -36 -215 -14 -161 20 -431 74
-643 129 -359 92 -1073 309 -1162 354 -23 12 -47 21 -53 21 -6 0 -10 35 -10
95 0 77 9 137 50 320 223 1002 379 2044 469 3125 37 446 43 603 39 1110 -3
443 -6 501 -22 550 -10 30 -24 61 -31 69 -11 11 -14 5 -19 -40z M2840 3974
c-90 -40 -127 -105 -140 -252 -14 -148 -37 -325 -60 -463 -15 -87 -20 -164
-20 -308 0 -182 1 -194 24 -239 30 -60 112 -137 173 -163 161 -70 516 -131
768 -133 124 -1 147 2 201 22 112 43 210 152 254 284 51 151 100 558 100 824
0 202 -5 222 -66 272 -43 36 -101 50 -239 57 -305 16 -558 43 -745 80 -182 35
-210 37 -250 19z m39 -55 c119 -45 303 -78 576 -103 154 -14 220 -18 495 -32
69 -3 126 -6 126 -7 1 -1 -2 -83 -7 -182 -12 -238 -34 -452 -70 -665 -35 -208
-69 -292 -146 -360 -74 -65 -126 -75 -305 -61 -160 13 -398 48 -548 80 -168
37 -270 105 -298 200 -20 64 -14 162 22 374 38 223 62 417 72 577 3 58 8 114
9 125 2 11 4 32 4 48 1 32 2 32 70 6z M7725 3980 c-27 -4 -115 -18 -195 -33
-175 -32 -369 -52 -630 -67 -234 -13 -268 -21 -323 -72 l-42 -39 -3 -239 c-2
-198 1 -269 18 -407 41 -324 78 -452 162 -561 51 -66 105 -104 189 -133 57
-19 77 -21 194 -16 136 7 274 24 460 57 282 51 397 115 461 258 22 48 24 66
24 207 0 123 -6 192 -29 338 -34 206 -48 317 -60 463 -7 87 -12 109 -37 149
-50 81 -99 106 -189 95z m125 -47 c4 -175 46 -550 90 -798 32 -180 37 -283 18
-346 -17 -58 -71 -114 -141 -149 -100 -49 -418 -108 -706 -131 -177 -14 -230
-4 -304 61 -77 68 -111 152 -146 360 -36 214 -60 439 -71 670 -4 96 -7 176 -6
177 0 1 107 6 236 13 482 23 826 70 970 133 39 17 60 21 60 10z"/>
</g>
</svg>
