<?xml version="1.0" standalone="no"?>
<!DOCTYPE svg PUBLIC "-//W3C//DTD SVG 20010904//EN"
 "http://www.w3.org/TR/2001/REC-SVG-20010904/DTD/svg10.dtd">
<svg version="1.0" xmlns="http://www.w3.org/2000/svg"
 width="2048.000000pt" height="2048.000000pt" viewBox="0 0 2048.000000 2048.000000"
 preserveAspectRatio="xMidYMid meet">
<metadata>
Created by potrace 1.13, written by Peter Selinger 2001-2015
</metadata>
<g transform="translate(0.000000,2048.000000) scale(0.192120,-0.192120)"
fill="#000000" stroke="none">
<path d="M8258 10315 c-204 -50 -365 -212 -413 -418 -43 -181 12 -374 145
-508 80 -81 154 -123 262 -151 279 -70 565 85 660 359 34 99 32 270 -3 363
-101 268 -381 420 -651 355z m277 -276 c41 -15 74 -37 107 -71 l48 -49 0 -137
c0 -134 -1 -138 -30 -184 -121 -193 -473 -179 -575 23 -22 43 -25 61 -25 160
0 107 1 114 27 148 15 20 37 44 48 54 32 28 113 68 159 77 64 14 174 4 241
-21z M453 10281 c-12 -6 -27 -19 -33 -31 -42 -79 -60 -670 -41 -1370 18 -663
38 -1127 97 -2275 l18 -330 -37 -150 c-221 -910 -150 -1911 200 -2800 31 -77
71 -171 90 -208 l34 -69 -132 -376 c-72 -208 -149 -423 -169 -479 l-38 -103
24 0 c13 0 209 18 436 41 l412 41 21 -29 c67 -93 241 -290 380 -428 374 -374
764 -654 1245 -894 1627 -810 3599 -603 5020 527 244 194 512 456 706 690
l110 133 83 4 c144 8 269 51 371 128 92 69 826 753 880 820 65 79 143 238 171
347 33 124 33 340 1 460 -71 262 -256 497 -495 630 l-58 32 8 87 c15 165 8
733 -11 891 -53 440 -166 892 -306 1225 -24 55 -43 110 -44 122 -1 14 146 204
449 583 248 309 458 572 468 585 l17 23 -416 277 c-228 152 -417 275 -418 273
-1 -1 -46 -316 -100 -698 -53 -382 -104 -735 -111 -785 -46 -291 -66 -428 -63
-441 2 -7 34 25 71 72 38 47 70 84 72 82 2 -2 -6 -46 -17 -98 -26 -125 -20
-190 36 -372 96 -308 144 -542 187 -908 6 -52 15 -207 19 -345 11 -336 18
-369 113 -509 29 -44 35 -57 21 -51 -10 4 -57 19 -104 33 -76 23 -103 26 -255
26 -193 1 -261 -13 -410 -83 -111 -53 -164 -95 -450 -357 -392 -358 -406 -370
-445 -377 -95 -16 -114 -27 -178 -96 -80 -86 -144 -229 -173 -386 -7 -38 -19
-79 -26 -90 -7 -11 -13 -27 -13 -37 0 -10 -7 -18 -15 -18 -8 0 -15 -4 -15 -9
0 -5 -12 -23 -26 -40 l-25 -30 23 -6 c43 -10 169 -35 176 -35 4 0 5 56 4 124
-4 138 14 236 63 340 76 160 220 280 405 338 63 19 96 23 205 23 155 -1 250
-22 392 -90 131 -62 227 -131 335 -243 141 -146 228 -291 284 -477 25 -81 28
-106 28 -245 1 -147 -1 -159 -29 -240 l-30 -84 -66 -12 c-73 -13 -106 -28
-189 -84 -94 -63 -176 -100 -288 -126 -122 -29 -142 -39 -178 -94 -15 -22 -34
-40 -43 -40 -8 0 -51 9 -96 20 -44 11 -298 47 -565 80 -267 32 -499 64 -515
70 -89 34 -137 114 -156 257 -30 232 64 465 206 510 25 8 11 12 -95 27 -69 10
-213 32 -320 50 l-195 31 -18 85 c-14 68 -17 117 -13 240 5 189 24 267 102
427 45 94 66 125 127 186 39 40 94 87 120 105 52 35 97 111 97 166 0 88 -70
185 -152 206 -99 27 -198 -21 -343 -165 -174 -173 -297 -416 -351 -700 -21
-107 -26 -398 -7 -430 11 -18 13 -17 51 21 23 22 43 54 47 70 3 16 12 42 20
57 8 16 15 54 15 85 0 137 53 348 127 507 69 148 238 323 331 341 29 6 32 4
32 -19 0 -18 -19 -47 -56 -89 -124 -138 -199 -266 -256 -438 -31 -93 -32 -99
-32 -280 l-1 -185 35 -54 c19 -30 51 -71 72 -91 l39 -37 -33 5 c-18 2 -100 15
-183 28 -82 14 -177 29 -210 34 -337 51 -671 112 -680 125 -5 8 -26 43 -45 77
-44 79 -159 197 -225 230 -151 77 -305 77 -446 2 -87 -46 -197 -164 -247 -264
-61 -125 -84 -220 -84 -365 -1 -144 18 -235 72 -350 165 -353 516 -457 790
-233 l56 46 54 -9 c30 -5 350 -45 710 -89 824 -101 1044 -131 1049 -143 13
-33 66 -76 113 -90 29 -9 222 -37 428 -62 433 -54 430 -53 393 -128 -49 -100
-267 -309 -515 -493 -263 -195 -315 -232 -484 -336 -1136 -704 -2561 -866
-3844 -439 -431 144 -825 344 -1215 618 -242 169 -349 258 -560 463 -77 75
-156 148 -175 162 -43 31 -239 128 -260 128 -13 1 -13 2 1 10 9 5 77 15 153
22 75 6 136 15 136 19 0 3 -13 35 -29 70 -26 58 -503 1203 -581 1397 -19 45
-37 79 -41 75 -4 -5 -35 -89 -68 -188 -34 -99 -83 -238 -109 -309 l-47 -129
-7 59 c-4 32 -14 124 -23 204 -19 169 -36 251 -99 490 -52 201 -76 318 -105
515 -36 247 -43 344 -51 660 -6 301 -7 313 -35 405 -25 82 -29 113 -29 220 0
128 22 465 34 510 3 14 15 -110 24 -275 10 -165 21 -313 25 -330 5 -22 17 -35
45 -49 35 -17 45 -18 105 -7 218 40 643 278 1134 634 685 496 1471 1172 2132
1832 713 712 1144 1268 1162 1500 5 57 4 63 -21 82 -16 13 -61 27 -123 38 -54
10 -195 37 -313 60 -244 49 -235 52 85 35 247 -14 322 -25 439 -69 147 -54
168 -59 316 -71 163 -13 428 -57 611 -101 74 -17 141 -31 149 -31 8 0 49 -8
90 -18 89 -22 158 -15 224 24 79 46 78 50 -36 89 -273 96 -603 169 -958 212
-278 35 -832 30 -1099 -9 -97 -15 -47 -22 -801 113 -1047 186 -2040 342 -2600
406 -240 28 -589 42 -627 26z m151 -203 c189 -252 534 -890 1241 -2293 180
-357 381 -755 447 -883 65 -127 117 -236 114 -241 -3 -4 -33 -11 -68 -15 -99
-10 -105 -14 -493 -301 -60 -45 -198 -141 -305 -215 -229 -156 -253 -178 -327
-288 -31 -46 -59 -80 -64 -75 -20 21 -108 424 -194 892 -123 671 -283 1696
-409 2611 -72 523 -70 508 -53 586 9 38 18 105 22 149 8 110 14 145 25 145 5
0 34 -33 64 -72z m557 -113 c658 -81 1513 -218 2734 -436 215 -38 464 -76 555
-85 236 -22 373 -42 382 -57 18 -27 -14 -100 -101 -222 -333 -475 -1105 -1263
-1926 -1967 -236 -203 -296 -248 -330 -248 -50 0 -85 60 -400 691 -451 901
-837 1646 -1062 2046 -119 214 -149 276 -137 294 8 14 67 11 285 -16z m8671
-1827 c59 -38 110 -78 113 -87 6 -20 -15 -71 -50 -120 -61 -83 -248 -310 -261
-315 -23 -9 -27 35 -21 208 6 164 35 355 58 382 17 21 39 11 161 -68z m-9043
-1425 c120 -583 131 -647 131 -761 l0 -113 -53 -24 c-29 -14 -67 -27 -84 -31
-26 -5 -31 -3 -36 18 -4 12 -7 259 -6 548 0 454 2 521 14 493 7 -17 22 -75 34
-130z m8660 -2263 c98 -13 172 -49 299 -145 130 -99 228 -203 272 -291 l35
-68 3 -218 c3 -248 -2 -280 -65 -387 -41 -70 -185 -228 -237 -260 -56 -35 -69
-24 -121 117 -90 242 -173 378 -324 536 -145 150 -275 242 -451 319 -129 57
-135 60 -138 89 -8 64 239 238 403 282 115 32 215 40 324 26z m-3784 -1006
c144 -19 142 -19 150 -60 20 -111 68 -141 280 -178 236 -41 327 -49 393 -35
134 28 261 8 411 -66 72 -36 144 -58 226 -71 71 -10 79 -23 71 -119 -18 -214
-37 -315 -58 -315 -3 0 -13 -6 -20 -13 -14 -14 -301 13 -888 83 -140 17 -300
33 -355 36 -122 7 -158 -7 -192 -75 -12 -24 -24 -45 -26 -48 -9 -8 -261 18
-351 37 -158 32 -285 94 -350 171 -97 114 -121 329 -54 468 89 184 333 243
763 185z m-4571 -237 c44 -74 287 -669 296 -724 5 -28 6 -61 3 -72 -5 -20 -10
-21 -97 -15 -59 4 -161 0 -284 -11 -106 -9 -196 -14 -200 -10 -21 21 -1 115
71 330 83 248 95 293 106 400 9 81 37 145 62 145 11 0 29 -18 43 -43z M6683
9638 c-17 -73 -78 -322 -136 -553 -58 -231 -105 -420 -104 -421 1 -1 232 56
512 127 281 70 527 131 547 134 36 6 37 5 62 -42 30 -59 46 -74 216 -203 202
-154 318 -256 491 -430 242 -244 424 -470 632 -785 149 -225 190 -265 269
-265 76 0 79 9 33 97 -114 218 -278 468 -455 689 -392 491 -841 875 -1375
1177 -94 53 -116 72 -375 331 -151 152 -277 276 -280 276 -3 0 -20 -60 -37
-132z m165 -332 c20 -13 86 -74 147 -135 154 -155 153 -156 -139 -231 -65 -17
-131 -30 -145 -28 -26 3 -26 4 -25 83 2 115 60 314 96 328 22 9 27 8 66 -17z
M6771 6369 c-346 -37 -723 -196 -1016 -429 -149 -118 -167 -300 -42 -425 65
-64 132 -90 217 -82 69 6 108 25 230 116 169 125 355 208 563 252 78 17 138
22 257 22 251 1 456 -49 685 -166 117 -59 122 -61 200 -62 70 0 86 4 133 29
95 53 142 133 142 243 0 84 -29 152 -88 205 -54 49 -277 157 -417 203 -273 89
-585 123 -864 94z m-424 -411 c-3 -8 -6 -5 -6 6 -1 11 2 17 5 13 3 -3 4 -12 1
-19z m-17 -5 c0 -8 -4 -11 -10 -8 -5 3 -10 2 -10 -3 0 -5 -23 -19 -51 -32 -27
-13 -53 -29 -57 -35 -6 -10 -156 -106 -206 -132 -20 -11 -56 -6 -56 7 0 27
181 144 277 179 27 10 57 22 67 28 25 14 46 12 46 -4z m1347 -5 c-3 -8 -6 -5
-6 6 -1 11 2 17 5 13 3 -3 4 -12 1 -19z m28 3 c3 -5 1 -12 -5 -16 -5 -3 -10 1
-10 9 0 18 6 21 15 7z m22 -23 c-3 -8 -6 -5 -6 6 -1 11 2 17 5 13 3 -3 4 -12
1 -19z m28 3 c3 -5 1 -12 -5 -16 -5 -3 -10 1 -10 9 0 18 6 21 15 7z M3780
5690 c-375 -46 -735 -199 -1035 -441 -168 -135 -358 -349 -411 -464 -46 -98
-26 -230 46 -304 74 -76 170 -105 269 -81 66 16 118 54 177 132 173 228 381
396 625 503 248 109 558 136 856 74 98 -20 117 -21 166 -10 194 43 285 261
176 421 -63 91 -111 114 -324 151 -137 23 -425 33 -545 19z m-453 -422 c-3 -8
-6 -5 -6 6 -1 11 2 17 5 13 3 -3 4 -12 1 -19z m-20 -10 c-3 -8 -6 -5 -6 6 -1
11 2 17 5 13 3 -3 4 -12 1 -19z m-17 -6 c0 -9 -3 -13 -6 -9 -3 3 -18 -5 -32
-18 -15 -13 -67 -50 -117 -83 -116 -76 -148 -104 -336 -294 -124 -127 -161
-158 -183 -158 -14 0 -29 7 -32 15 -14 36 12 74 129 190 164 161 336 282 502
351 60 24 75 26 75 6z M3118 3780 c-47 -14 -88 -44 -116 -84 -24 -35 -27 -49
-27 -117 0 -70 3 -81 30 -120 38 -54 87 -79 177 -90 364 -46 645 -372 707
-824 24 -169 9 -398 -39 -584 -25 -98 -25 -144 -1 -197 36 -79 136 -133 219
-118 54 10 86 29 125 75 29 34 40 60 61 148 72 300 81 586 26 847 -124 595
-553 1020 -1075 1067 -33 3 -72 2 -87 -3z m167 -219 c3 -5 1 -12 -5 -16 -5 -3
-10 1 -10 9 0 18 6 21 15 7z m180 -34 c220 -77 419 -257 544 -492 72 -135 71
-123 71 -637 -1 -356 -4 -470 -14 -493 -12 -29 -13 -29 -20 -7 -4 12 -11 22
-16 22 -5 0 -10 172 -12 383 l-4 382 -33 100 c-36 112 -133 304 -190 380 -61
81 -136 159 -198 206 -32 24 -66 51 -75 59 -10 8 -52 33 -95 55 -43 22 -80 42
-83 45 -3 3 -11 5 -19 5 -8 0 -16 6 -19 14 -7 20 76 9 163 -22z M8385 3541
c-136 -36 -215 -146 -215 -300 0 -329 347 -686 667 -685 71 0 90 4 139 30 323
165 103 762 -341 929 -72 28 -197 40 -250 26z m250 -305 c88 -44 167 -113 205
-180 27 -46 30 -60 30 -143 0 -91 0 -93 -26 -99 -113 -29 -286 66 -381 209
-47 70 -48 74 -51 159 -4 100 -5 100 93 92 42 -3 81 -14 130 -38z M900 1422
c-184 -62 -300 -230 -288 -421 8 -117 38 -183 122 -267 95 -95 152 -118 291
-118 130 0 191 23 279 104 100 94 143 203 133 336 -11 147 -98 274 -233 340
-63 32 -84 37 -161 40 -67 3 -101 0 -143 -14z m180 -253 c28 -6 64 -22 80 -36
29 -24 30 -29 30 -101 0 -43 -6 -88 -13 -102 -46 -91 -217 -102 -299 -20 -37
37 -38 39 -38 112 0 65 3 77 23 95 30 28 65 45 107 54 52 10 55 10 110 -2z"/>
</g>
</svg>
