<?xml version="1.0" standalone="no"?>
<!DOCTYPE svg PUBLIC "-//W3C//DTD SVG 20010904//EN"
 "http://www.w3.org/TR/2001/REC-SVG-20010904/DTD/svg10.dtd">
<svg version="1.0" xmlns="http://www.w3.org/2000/svg"
 width="2048.000000pt" height="2048.000000pt" viewBox="0 0 2048.000000 2048.000000"
 preserveAspectRatio="xMidYMid meet">
<metadata>
Created by potrace 1.13, written by Peter Selinger 2001-2015
</metadata>
<g transform="translate(0.000000,2048.000000) scale(0.192120,-0.192120)"
fill="#000000" stroke="none">
<path d="M5070 10324 c-297 -20 -550 -54 -801 -108 -1789 -385 -3239 -1742
-3745 -3506 -278 -968 -255 -2013 66 -2970 519 -1548 1776 -2756 3340 -3210
864 -250 1783 -264 2655 -40 996 256 1908 833 2577 1630 1112 1324 1459 3145
913 4785 -425 1275 -1335 2319 -2540 2910 -602 296 -1216 460 -1890 505 -136
9 -464 11 -575 4z m790 -228 c1111 -133 2075 -594 2846 -1361 144 -144 196
-199 345 -370 24 -27 67 -74 94 -105 275 -303 619 -949 731 -1370 9 -36 32
-116 50 -179 46 -156 88 -331 126 -529 l32 -167 4 -640 c3 -692 4 -675 -54
-980 -49 -251 -151 -605 -281 -974 -36 -100 -212 -448 -266 -524 -24 -34 -99
-140 -166 -235 -420 -598 -861 -1021 -1444 -1388 -171 -107 -552 -300 -737
-373 -887 -350 -1823 -437 -2755 -255 -696 135 -1392 443 -1950 863 -195 146
-332 267 -526 460 -205 206 -298 312 -458 526 -433 578 -738 1296 -860 2025
-41 248 -43 277 -39 865 l4 570 32 183 c103 577 276 1059 565 1572 125 223
354 555 472 685 284 312 418 445 615 610 549 461 1212 798 1915 974 249 62
572 115 830 135 131 10 746 -3 875 -18z M3980 8263 c-179 -19 -455 -100 -660
-194 -316 -144 -659 -369 -963 -629 l-108 -93 7 -41 c3 -23 19 -84 34 -136 75
-258 196 -465 381 -649 204 -205 447 -337 740 -403 90 -20 130 -23 299 -23
162 1 212 5 297 23 197 43 380 122 548 236 103 70 267 228 345 331 l52 70 -6
135 c-30 620 -135 978 -351 1196 -97 97 -189 147 -310 169 -74 13 -220 17
-305 8z m325 -289 c187 -66 285 -218 355 -553 17 -81 20 -132 20 -385 -1 -240
-3 -294 -15 -311 -41 -55 -140 -143 -225 -200 -224 -149 -448 -215 -735 -215
-168 0 -279 17 -425 66 -195 65 -350 162 -493 309 -70 71 -167 192 -167 208 0
4 -13 28 -30 54 -18 28 -30 60 -30 80 0 34 1 33 108 -75 86 -88 121 -116 177
-143 66 -32 76 -34 181 -34 108 0 112 1 190 39 104 52 211 159 271 272 64 121
73 155 73 277 0 102 -2 113 -33 181 -19 39 -59 109 -91 155 -31 46 -56 91 -54
99 4 23 55 50 178 93 229 81 389 110 570 105 86 -3 141 -9 175 -22z m-1134
-346 c24 -15 61 -44 81 -65 138 -142 94 -387 -86 -481 -43 -23 -64 -27 -136
-27 -70 0 -94 4 -134 24 -182 90 -232 326 -101 479 20 22 63 55 98 72 58 30
68 31 148 28 70 -3 93 -9 130 -30z M6370 8255 c-218 -41 -397 -215 -507 -493
-73 -183 -123 -454 -143 -769 -15 -255 -20 -228 59 -330 212 -274 524 -469
874 -545 138 -30 447 -33 577 -5 296 63 553 201 759 407 201 201 343 462 407
747 l17 77 -49 43 c-498 443 -1073 762 -1542 853 -139 28 -350 35 -452 15z
m365 -270 c331 -50 699 -211 1075 -471 74 -51 182 -130 238 -175 l104 -82 -4
-76 c-3 -67 -9 -88 -49 -171 -176 -362 -515 -615 -916 -685 -112 -20 -341 -19
-463 0 -266 44 -556 196 -705 371 -54 64 -55 66 -55 130 0 35 2 64 4 64 2 0
32 -19 67 -43 92 -61 160 -80 269 -75 78 4 98 9 167 43 103 51 210 159 270
271 64 121 73 155 73 279 0 109 0 109 -44 200 -55 113 -172 242 -280 310 -40
25 -76 45 -80 45 -10 0 -36 27 -36 38 0 10 35 29 65 35 46 10 207 6 300 -8z
m-320 -352 c103 -54 168 -162 168 -278 0 -117 -61 -218 -167 -273 -43 -23 -64
-27 -136 -27 -100 0 -154 21 -219 86 -64 64 -86 120 -86 214 0 130 53 217 168
275 58 30 68 31 147 28 61 -3 96 -10 125 -25z M2138 7233 c-44 -43 -116 -117
-159 -165 l-78 -87 24 -68 c39 -105 138 -299 200 -392 82 -123 159 -213 278
-328 295 -284 674 -462 1090 -514 122 -15 420 -7 532 14 202 38 373 95 540
180 98 50 268 160 333 214 l33 28 5 270 5 270 -39 -105 c-110 -297 -136 -336
-271 -414 -327 -187 -638 -266 -996 -253 -262 10 -494 70 -727 188 -286 144
-559 424 -722 739 -67 130 -71 180 -26 316 18 55 41 118 51 142 10 23 16 42
12 42 -3 0 -41 -35 -85 -77z M8439 7292 c5 -10 28 -71 50 -136 57 -164 56
-202 -8 -332 -26 -54 -81 -148 -120 -207 -83 -123 -265 -318 -375 -401 -189
-142 -464 -260 -726 -311 -115 -23 -382 -31 -506 -16 -347 43 -747 214 -864
369 -35 48 -119 242 -151 351 -12 40 -14 42 -20 20 -3 -14 -3 -117 2 -229 4
-113 8 -223 8 -246 1 -39 4 -43 89 -106 246 -185 499 -295 817 -355 112 -21
410 -29 532 -14 423 53 796 229 1097 520 210 204 362 432 462 694 l34 89 -89
97 c-97 105 -225 231 -235 231 -4 0 -2 -8 3 -18z M1731 6993 c-143 -72 -329
-398 -410 -720 -19 -72 -21 -111 -21 -352 0 -240 2 -280 20 -346 38 -143 105
-287 199 -430 57 -87 221 -254 322 -328 268 -196 628 -326 1099 -398 119 -18
190 -22 395 -23 255 -1 338 6 530 45 438 89 800 320 1007 644 88 136 164 342
193 515 16 102 21 390 6 390 -5 0 -11 9 -14 19 -6 25 -43 48 -89 56 -45 9 -41
21 -63 -210 -21 -222 -37 -313 -75 -427 -131 -391 -464 -665 -945 -778 -179
-42 -302 -54 -535 -54 -406 1 -784 76 -1119 223 -403 178 -664 492 -742 891
-19 97 -16 327 5 435 43 222 143 449 299 683 l95 143 -23 15 c-37 24 -95 27
-134 7z M8835 7002 c-10 -2 -29 -11 -41 -19 -21 -14 -21 -15 73 -156 153 -228
249 -443 294 -660 26 -120 31 -351 10 -457 -55 -283 -216 -544 -442 -717 -238
-182 -620 -318 -1069 -379 -176 -24 -534 -25 -690 -1 -527 81 -887 301 -1072
654 -86 165 -117 299 -148 638 -16 175 -14 168 -58 160 -46 -8 -102 -42 -102
-61 0 -8 -4 -14 -10 -14 -6 0 -10 -60 -10 -159 0 -245 35 -397 140 -617 69
-144 146 -249 266 -364 243 -233 555 -373 974 -437 159 -24 564 -24 735 0 901
129 1431 487 1623 1097 47 148 52 186 52 413 0 172 -4 229 -20 299 -72 325
-262 682 -402 754 -42 22 -79 31 -103 26z M5095 3509 c-291 -23 -679 -116
-767 -183 -90 -69 -129 -198 -93 -307 13 -37 33 -69 69 -104 83 -84 174 -103
297 -65 267 82 429 105 729 105 300 0 462 -23 729 -105 123 -38 214 -19 297
65 108 107 111 262 9 383 -38 46 -112 77 -285 121 -346 88 -654 116 -985 90z"/>
</g>
</svg>
