<?xml version="1.0" standalone="no"?>
<!DOCTYPE svg PUBLIC "-//W3C//DTD SVG 20010904//EN"
 "http://www.w3.org/TR/2001/REC-SVG-20010904/DTD/svg10.dtd">
<svg version="1.0" xmlns="http://www.w3.org/2000/svg"
 width="2048.000000pt" height="2048.000000pt" viewBox="0 0 2048.000000 2048.000000"
 preserveAspectRatio="xMidYMid meet">
<metadata>
Created by potrace 1.13, written by Peter Selinger 2001-2015
</metadata>
<g transform="translate(0.000000,2048.000000) scale(0.192120,-0.192120)"
fill="#000000" stroke="none">
<path d="M5070 10324 c-297 -20 -550 -54 -801 -108 -1789 -385 -3239 -1742
-3745 -3506 -294 -1024 -249 -2147 125 -3138 60 -160 132 -322 141 -322 5 0
21 35 36 77 48 130 43 184 -43 443 -101 304 -148 490 -192 750 -41 248 -43
277 -39 865 l4 570 32 183 c157 879 525 1661 1096 2328 127 147 386 404 531
526 775 653 1718 1038 2734 1117 168 14 596 14 756 1 145 -12 318 -32 561 -66
164 -22 192 -24 289 -14 111 11 249 35 287 49 18 7 8 13 -57 34 -305 100 -752
181 -1140 207 -136 9 -464 11 -575 4z M7262 10255 c-126 -28 -227 -75 -337
-153 -85 -62 -94 -70 -156 -152 -58 -76 -131 -220 -154 -305 -9 -33 -19 -117
-22 -186 -5 -111 -2 -140 21 -252 33 -160 71 -269 146 -422 114 -233 279 -454
510 -685 163 -164 301 -278 468 -388 122 -81 355 -202 387 -202 26 0 240 104
330 160 452 283 856 722 1059 1151 103 217 162 468 153 644 -7 125 -28 205
-82 320 -216 459 -783 626 -1213 358 -71 -44 -176 -138 -221 -198 l-22 -29
-42 49 c-117 138 -263 233 -432 280 -84 23 -310 29 -393 10z m352 -291 c74
-19 162 -63 243 -120 260 -185 283 -186 508 -24 55 40 118 81 140 92 220 113
502 94 699 -46 78 -56 124 -107 160 -181 l27 -56 -3 -242 c-4 -266 -3 -262
-82 -446 -39 -93 -69 -146 -230 -406 -96 -156 -125 -194 -216 -286 -167 -167
-344 -306 -525 -411 -201 -117 -260 -116 -464 5 -348 208 -691 553 -902 908
-81 136 -123 229 -159 351 -29 98 -30 107 -30 307 0 224 5 249 67 329 44 59
231 167 363 212 125 42 275 47 404 14z M6710 9994 c-296 -142 -480 -433 -480
-761 0 -96 35 -283 75 -408 39 -119 153 -345 238 -473 268 -400 682 -771 1081
-968 72 -35 136 -64 143 -64 17 0 186 79 233 109 l35 22 -115 -7 c-185 -10
-265 17 -490 168 -137 92 -218 158 -366 294 -377 350 -636 761 -710 1127 -12
59 -15 118 -12 245 4 146 8 176 30 237 78 218 216 399 363 477 89 48 73 49
-25 2z M9275 8322 c-9 -75 1 -171 24 -232 10 -25 44 -88 77 -140 184 -290 285
-488 364 -710 13 -36 49 -121 80 -190 132 -289 239 -697 290 -1110 13 -108 7
-957 -9 -1195 -13 -200 -40 -358 -112 -649 -46 -188 -48 -235 -13 -336 32 -93
51 -122 64 -100 19 30 98 289 139 450 322 1299 119 2663 -566 3798 -93 154
-237 365 -301 442 l-29 35 -8 -63z M3795 6995 c-300 -56 -554 -261 -767 -617
-64 -108 -141 -270 -177 -376 -41 -119 -20 -214 64 -298 90 -91 213 -109 325
-48 67 37 104 82 137 169 71 189 187 380 298 490 93 93 157 127 251 133 65 4
79 1 136 -25 152 -71 312 -278 423 -549 57 -138 86 -179 155 -218 49 -28 64
-31 135 -31 90 0 138 19 196 77 92 93 102 210 30 382 -149 361 -377 657 -613
798 -182 108 -398 149 -593 113z m-25 -313 c0 -9 -3 -13 -6 -9 -3 3 -11 1 -18
-4 -45 -38 -60 -49 -65 -49 -8 0 -60 -46 -134 -117 -85 -82 -166 -187 -233
-302 -32 -56 -79 -136 -104 -178 -25 -43 -56 -83 -70 -90 l-25 -12 -3 65 c-3
61 1 73 42 158 133 270 356 492 544 540 61 16 72 16 72 -2z m400 3 c128 -16
320 -174 454 -373 95 -142 146 -256 146 -326 0 -49 -3 -56 -19 -56 -26 0 -73
59 -123 155 -58 112 -112 197 -184 290 -63 82 -189 209 -240 241 -16 11 -40
29 -53 41 -14 12 -28 20 -33 17 -4 -3 -8 2 -8 11 0 9 4 14 9 11 5 -3 28 -8 51
-11z M6568 6995 c-272 -52 -508 -230 -711 -535 -134 -203 -247 -462 -247 -567
0 -100 60 -195 155 -246 58 -31 183 -31 242 1 74 39 106 81 157 203 85 204
178 352 291 466 179 180 351 180 530 -1 112 -113 227 -303 298 -491 33 -87 70
-132 137 -169 68 -37 148 -45 221 -21 75 25 152 103 173 175 30 99 18 157 -72
355 -199 439 -488 730 -807 815 -105 28 -265 34 -367 15z m-18 -311 c0 -8 -4
-13 -8 -10 -4 2 -23 -9 -41 -25 -19 -16 -37 -29 -41 -29 -14 0 -154 -131 -213
-199 -73 -83 -128 -166 -206 -307 -94 -172 -143 -224 -154 -165 -15 75 32 197
141 360 130 196 328 357 468 380 27 5 50 9 52 10 1 0 2 -6 2 -15z m442 -10
c167 -54 382 -280 508 -532 38 -77 41 -88 38 -154 l-3 -71 -33 27 c-17 15 -48
58 -68 94 -75 136 -138 239 -192 312 -69 94 -183 212 -242 253 -46 32 -60 43
-84 64 -8 7 -16 9 -20 6 -3 -4 -6 1 -6 10 0 18 26 16 102 -9z M2770 4603 c-77
-40 -100 -123 -56 -200 115 -201 447 -564 701 -767 613 -489 1351 -728 2096
-678 793 54 1466 371 2044 963 168 172 345 393 399 496 35 68 7 149 -64 186
-57 30 -97 18 -223 -66 -554 -371 -1235 -631 -1892 -724 -184 -26 -714 -26
-890 0 -666 98 -1333 353 -1893 724 -126 84 -165 95 -222 66z m750 -649 c365
-176 849 -329 1230 -388 407 -64 813 -61 1220 9 351 60 868 226 1155 373 48
24 115 45 115 35 0 -56 -233 -247 -482 -395 -867 -514 -1981 -515 -2855 -3
-213 126 -435 297 -487 378 -18 27 -18 27 6 27 13 0 57 -16 98 -36z M8485
3690 c-97 -26 -140 -45 -212 -96 -165 -118 -272 -320 -273 -515 0 -174 88
-434 216 -635 113 -177 315 -397 506 -551 l110 -88 -69 -8 c-106 -13 -213 -4
-262 21 -162 85 -459 380 -602 599 -69 106 -143 257 -173 351 -24 76 -26 98
-26 253 0 164 1 171 27 222 86 168 237 311 416 392 47 22 49 24 22 24 -58 1
-168 -29 -244 -66 -136 -67 -266 -218 -316 -367 -9 -27 -21 -85 -26 -128 -26
-192 68 -492 230 -731 160 -237 393 -466 641 -629 61 -40 110 -75 110 -78 0
-3 -30 -16 -67 -29 -81 -29 -179 -86 -289 -167 -364 -270 -809 -508 -1164
-622 -418 -133 -734 -206 -1068 -247 -464 -55 -814 -55 -1292 1 -247 29 -616
108 -840 179 -197 62 -306 86 -415 91 -60 3 -116 8 -124 10 -10 3 27 47 110
132 144 146 231 244 316 357 216 286 350 564 415 855 31 145 32 357 0 475 -29
107 -100 248 -167 333 -57 72 -148 152 -171 152 -20 0 -17 -33 4 -61 39 -52
132 -208 170 -284 70 -140 72 -153 72 -383 0 -207 0 -208 -34 -329 -89 -311
-285 -637 -573 -951 -90 -98 -145 -142 -204 -161 -30 -10 -280 -51 -286 -47
-1 1 44 51 100 111 214 234 374 459 482 680 77 157 114 260 151 425 36 159 40
350 10 470 -54 209 -160 377 -321 506 -345 277 -836 270 -1173 -17 -37 -32
-84 -80 -106 -108 -21 -28 -42 -51 -46 -51 -4 0 -27 25 -51 56 -94 122 -294
249 -464 295 -119 33 -346 33 -465 1 -327 -89 -573 -336 -662 -664 -34 -124
-32 -330 4 -488 55 -238 154 -463 306 -690 146 -219 279 -373 497 -577 143
-135 249 -218 410 -325 135 -90 385 -218 425 -218 39 0 288 127 425 217 132
87 288 209 386 301 l63 59 111 -58 c1067 -561 2357 -706 3550 -399 804 207
1586 639 2167 1198 l107 104 77 -48 c88 -53 197 -104 223 -104 30 0 198 87
300 155 369 246 687 634 799 975 55 168 69 338 37 459 -89 341 -434 547 -769
461 -126 -32 -201 -74 -292 -165 l-81 -80 -32 43 c-130 173 -411 262 -636 202z
m326 -248 c30 -11 112 -49 182 -86 86 -44 138 -66 162 -66 22 0 66 17 122 47
224 118 290 139 426 130 99 -7 163 -37 240 -113 94 -93 100 -113 95 -322 -4
-172 -5 -179 -36 -258 -115 -289 -440 -646 -726 -798 -95 -51 -137 -49 -285
11 -171 68 -218 94 -303 167 -189 162 -390 441 -465 647 -24 67 -28 90 -31
237 -4 159 -3 164 22 217 43 86 125 148 251 188 76 24 92 26 195 22 60 -2 115
-11 151 -23z m-7251 -352 c94 -27 182 -74 285 -155 178 -139 231 -139 415 1
70 53 238 135 330 161 91 25 356 25 450 0 204 -54 378 -204 450 -387 20 -52
21 -67 18 -305 l-4 -250 -33 -98 c-67 -204 -186 -413 -367 -647 -98 -127 -133
-160 -294 -274 -69 -49 -172 -126 -230 -172 -141 -110 -277 -200 -384 -254
-119 -61 -167 -61 -286 -4 -103 50 -272 161 -400 262 -122 98 -397 373 -482
482 -158 205 -276 413 -340 600 l-43 125 -3 234 -3 234 35 71 c44 89 124 186
218 265 137 116 226 143 448 137 108 -4 164 -10 220 -26z M9173 3653 c9 -2 23
-2 30 0 6 3 -1 5 -18 5 -16 0 -22 -2 -12 -5z M1785 3355 c50 -13 126 -38 170
-56 57 -22 103 -33 158 -37 42 -2 77 -2 77 2 0 10 -90 52 -160 74 -92 30 -172
42 -259 41 l-76 -1 90 -23z M3330 3344 c267 -69 265 -68 265 -45 0 31 -207 81
-328 80 l-72 0 135 -35z"/>
</g>
</svg>
