<?xml version="1.0" standalone="no"?>
<!DOCTYPE svg PUBLIC "-//W3C//DTD SVG 20010904//EN"
 "http://www.w3.org/TR/2001/REC-SVG-20010904/DTD/svg10.dtd">
<svg version="1.0" xmlns="http://www.w3.org/2000/svg"
 width="2048.000000pt" height="2048.000000pt" viewBox="0 0 2048.000000 2048.000000"
 preserveAspectRatio="xMidYMid meet">
<metadata>
Created by potrace 1.13, written by Peter Selinger 2001-2015
</metadata>
<g transform="translate(0.000000,2048.000000) scale(0.192120,-0.192120)"
fill="#000000" stroke="none">
<path d="M5070 10324 c-297 -20 -550 -54 -801 -108 -1789 -385 -3239 -1742
-3745 -3506 -278 -968 -255 -2013 66 -2970 519 -1548 1776 -2756 3340 -3210
864 -250 1783 -264 2655 -40 996 256 1908 833 2577 1630 1112 1324 1459 3145
913 4785 -425 1275 -1335 2319 -2540 2910 -602 296 -1216 460 -1890 505 -136
9 -464 11 -575 4z m790 -228 c579 -69 1084 -216 1575 -456 353 -173 550 -300
1015 -655 190 -145 357 -309 571 -560 530 -621 902 -1411 1050 -2226 51 -286
59 -396 59 -850 0 -339 -3 -445 -15 -502 -22 -110 -45 -262 -55 -362 -14 -140
-28 -219 -66 -370 -188 -739 -615 -1523 -1086 -1996 -493 -496 -887 -790
-1403 -1049 -249 -125 -411 -193 -660 -275 -988 -327 -2082 -321 -3079 16
-558 189 -1057 467 -1521 847 -146 119 -440 399 -540 512 -179 205 -422 547
-559 788 -269 474 -466 1028 -555 1562 -41 248 -43 277 -39 865 l4 570 32 183
c157 879 525 1661 1096 2328 118 136 386 405 501 501 97 81 362 278 470 350
360 240 824 462 1225 587 334 103 750 182 1105 210 131 10 746 -3 875 -18z
M3847 8925 c-60 -23 -91 -50 -165 -143 -364 -462 -823 -768 -1349 -901 -94
-24 -273 -51 -336 -51 -99 0 -206 -67 -252 -159 -23 -46 -31 -140 -15 -194 18
-68 77 -137 143 -171 53 -27 66 -30 153 -28 52 1 151 11 221 22 710 115 1361
504 1840 1100 100 125 123 165 130 235 11 108 -53 227 -151 277 -53 27 -165
34 -219 13z m93 -308 c0 -94 -399 -486 -662 -649 -150 -93 -395 -221 -425
-221 -7 0 -13 -3 -13 -7 0 -3 -8 -6 -17 -7 -40 -3 -59 -9 -71 -20 -18 -17 -32
-16 -32 1 0 7 44 36 98 63 356 183 633 400 927 727 93 103 135 136 173 136 16
0 22 -6 22 -23z m-1230 -912 c0 -8 -4 -15 -10 -15 -5 0 -10 7 -10 15 0 8 5 15
10 15 6 0 10 -7 10 -15z m-33 -17 c-3 -8 -6 -5 -6 6 -1 11 2 17 5 13 3 -3 4
-12 1 -19z m-30 -10 c-3 -8 -6 -5 -6 6 -1 11 2 17 5 13 3 -3 4 -12 1 -19z
M7075 8451 c-80 -21 -153 -79 -191 -154 -10 -17 -19 -64 -22 -102 -3 -58 0
-80 17 -121 34 -79 81 -116 246 -197 179 -88 328 -178 462 -278 122 -92 332
-295 428 -414 157 -195 293 -436 361 -640 44 -133 54 -154 96 -195 133 -133
360 -95 444 75 56 115 22 259 -135 580 -291 594 -759 1049 -1396 1361 -177 87
-239 104 -310 85z m254 -340 c88 -37 228 -115 331 -184 458 -306 782 -685 981
-1145 23 -54 28 -212 6 -212 -26 0 -56 48 -150 240 -82 168 -187 343 -269 451
-162 212 -329 381 -533 542 -5 4 -21 17 -35 28 -54 45 -210 149 -300 201 -150
86 -160 92 -160 106 0 19 42 10 129 -27z M3880 7274 c-239 -40 -417 -155 -576
-370 -112 -150 -205 -368 -251 -584 -26 -125 -24 -377 5 -481 82 -300 311
-499 620 -540 361 -48 629 230 777 805 51 198 68 343 62 516 -8 224 -55 362
-165 481 -67 73 -133 115 -226 145 -71 22 -195 37 -246 28z m221 -301 c59 -26
115 -77 140 -124 17 -35 19 -61 19 -311 0 -295 -5 -336 -67 -523 -102 -311
-234 -454 -427 -463 -201 -10 -373 84 -453 246 l-38 76 0 236 c0 233 0 236 29
320 59 174 137 302 248 406 75 70 137 108 228 141 56 20 80 23 170 20 79 -2
116 -8 151 -24z M6552 7109 c-149 -22 -269 -87 -381 -205 -118 -124 -189 -276
-227 -479 -24 -132 -15 -382 19 -525 74 -311 222 -590 423 -800 199 -207 409
-304 591 -273 332 57 617 504 663 1041 39 452 -147 862 -496 1091 -180 118
-412 177 -592 150z m261 -284 c252 -66 467 -258 547 -490 18 -53 20 -84 20
-359 -1 -328 -3 -349 -60 -496 -67 -171 -181 -320 -283 -369 -71 -34 -158 -39
-245 -12 -226 68 -467 365 -583 716 l-33 100 -4 271 -3 271 30 79 c32 82 101
177 156 215 50 34 123 69 162 78 62 15 233 12 296 -4z M8035 4421 c-92 -24
-173 -97 -199 -180 -8 -25 -17 -87 -20 -136 -24 -385 -359 -1007 -679 -1261
-157 -125 -310 -179 -429 -155 -118 25 -167 59 -393 281 -223 217 -368 340
-525 445 -335 224 -632 293 -913 211 -178 -52 -328 -146 -599 -373 -188 -157
-250 -200 -349 -240 -212 -86 -464 8 -709 264 -47 49 -104 112 -128 141 -61
74 -127 106 -217 105 -82 0 -128 -18 -187 -71 -87 -78 -114 -212 -64 -317 31
-65 165 -225 266 -317 320 -290 631 -414 970 -386 126 10 226 39 365 108 130
64 235 138 434 309 156 134 209 172 295 212 191 89 400 22 694 -225 48 -40
170 -156 272 -258 102 -101 212 -204 245 -229 454 -343 973 -281 1439 171 141
136 217 230 334 405 255 382 432 873 432 1194 0 79 -4 105 -24 146 -25 55 -90
119 -141 141 -42 17 -131 25 -170 15z m-15 -826 c-52 -182 -220 -491 -379
-695 -67 -85 -266 -275 -336 -320 -92 -60 -171 -101 -198 -105 -12 -1 -28 -4
-36 -6 -24 -7 -23 19 1 32 100 53 319 252 428 389 217 275 411 651 496 963
l29 106 3 -162 c2 -99 -1 -177 -8 -202z m-3120 -271 c0 -8 -4 -13 -9 -9 -5 3
-12 1 -15 -4 -3 -5 -50 -38 -104 -74 -54 -35 -104 -70 -112 -78 -34 -32 -145
-124 -285 -237 -77 -62 -250 -156 -275 -149 -11 3 -20 1 -20 -5 0 -5 -4 -6
-10 -3 -5 3 -10 1 -10 -5 0 -6 -5 -8 -11 -5 -7 5 -4 14 7 26 9 11 19 17 21 15
3 -2 13 3 23 12 9 10 46 37 81 62 35 25 125 96 201 158 242 198 344 264 465
296 26 8 49 14 51 15 1 0 2 -6 2 -15z m730 -107 c144 -82 292 -201 511 -413
91 -88 188 -178 215 -200 27 -21 60 -49 74 -61 14 -13 28 -23 32 -23 14 0 70
-58 61 -63 -15 -9 -81 12 -148 46 -87 46 -184 124 -315 256 -180 181 -326 315
-420 385 -30 23 -56 44 -58 49 -2 4 -10 7 -17 7 -8 0 -18 6 -22 13 -4 8 -23
22 -40 32 -18 11 -33 25 -33 32 0 16 79 -14 160 -60z m-2664 -26 c21 -16 80
-70 129 -121 50 -51 135 -125 190 -166 55 -40 109 -80 120 -89 11 -8 29 -21
39 -29 13 -9 15 -15 8 -20 -7 -4 -12 -3 -12 1 0 5 -8 9 -17 10 -50 3 -137 44
-253 120 -78 50 -198 159 -251 226 -69 87 -38 131 47 68z"/>
</g>
</svg>
