<?xml version="1.0" standalone="no"?>
<!DOCTYPE svg PUBLIC "-//W3C//DTD SVG 20010904//EN"
 "http://www.w3.org/TR/2001/REC-SVG-20010904/DTD/svg10.dtd">
<svg version="1.0" xmlns="http://www.w3.org/2000/svg"
 width="2048.000000pt" height="2048.000000pt" viewBox="0 0 2048.000000 2048.000000"
 preserveAspectRatio="xMidYMid meet">
<metadata>
Created by potrace 1.13, written by Peter Selinger 2001-2015
</metadata>
<g transform="translate(0.000000,2048.000000) scale(0.192120,-0.192120)"
fill="#000000" stroke="none">
<path d="M4400 9133 c-171 -172 -284 -389 -342 -656 -19 -87 -22 -134 -22
-312 0 -282 30 -456 130 -740 34 -95 49 -155 55 -220 22 -236 94 -429 224
-601 56 -73 150 -167 197 -198 15 -10 25 -22 22 -27 -8 -13 -218 -77 -324 -99
-236 -48 -585 -65 -818 -39 -404 44 -740 191 -957 421 -160 168 -259 384 -296
646 -11 79 -8 339 7 542 7 96 -11 135 -76 168 -52 26 -85 27 -165 7 -141 -37
-293 -159 -522 -420 -420 -478 -686 -970 -863 -1595 -229 -804 -276 -1776
-144 -2960 30 -272 92 -728 103 -754 6 -16 18 -1 68 80 146 238 358 485 528
616 110 86 263 161 367 182 95 20 134 20 223 1 262 -55 488 -314 638 -730 42
-117 89 -281 107 -377 7 -38 15 -68 19 -67 3 0 38 41 76 91 135 174 345 352
513 437 473 238 1002 80 1562 -469 192 -189 333 -281 488 -321 95 -24 169 -24
264 0 162 42 282 122 502 338 626 614 1209 723 1736 327 105 -79 270 -245 340
-341 25 -34 48 -63 52 -63 4 0 12 26 18 58 55 279 172 585 297 776 71 109 213
244 303 289 110 55 217 74 329 58 190 -27 355 -124 557 -325 137 -138 267
-302 374 -474 35 -56 67 -99 70 -95 9 10 73 472 105 753 145 1291 76 2336
-210 3187 -198 587 -497 1076 -939 1531 -183 188 -305 264 -445 278 -71 7
-135 -23 -164 -76 -20 -38 -20 -22 3 -320 26 -334 -56 -662 -220 -881 -159
-213 -388 -361 -695 -451 -178 -52 -309 -70 -551 -75 -245 -6 -385 4 -585 43
-135 26 -349 89 -349 103 0 5 12 17 28 27 47 31 141 125 197 198 130 172 202
365 224 601 6 65 21 125 55 220 100 284 130 458 130 740 0 178 -3 225 -22 312
-40 186 -98 327 -197 479 -53 82 -165 208 -217 245 l-28 21 -63 -45 c-84 -61
-215 -197 -269 -282 -94 -145 -163 -319 -190 -475 -7 -39 -17 -70 -23 -70 -5
0 -44 7 -85 16 -45 9 -125 16 -200 16 -75 0 -155 -7 -200 -16 -41 -9 -80 -16
-86 -16 -6 0 -16 32 -23 70 -38 230 -151 458 -313 626 -74 77 -193 174 -213
174 -4 0 -47 -39 -95 -87z m182 -245 c85 -60 174 -209 238 -398 18 -52 41
-112 52 -133 47 -94 158 -177 236 -177 23 0 42 -4 42 -8 0 -5 79 -8 175 -8 96
1 175 4 175 8 0 5 20 8 45 8 81 0 180 68 230 158 15 26 48 106 75 179 26 73
64 161 84 197 45 79 124 168 171 190 33 16 37 16 70 0 99 -47 205 -249 250
-478 14 -74 16 -126 12 -315 -5 -249 -18 -327 -90 -536 -19 -55 -38 -129 -42
-165 -36 -338 -68 -415 -291 -690 -136 -169 -194 -267 -194 -328 0 -92 139
-262 261 -320 170 -81 528 -130 859 -119 260 9 474 47 677 118 45 16 89 29 97
29 50 0 -10 -76 -359 -456 -380 -413 -639 -763 -862 -1164 -253 -454 -406
-837 -549 -1375 -67 -249 -84 -347 -84 -476 0 -110 2 -122 25 -159 15 -24 25
-54 25 -77 0 -34 -9 -46 -112 -147 -349 -341 -582 -342 -944 -2 -111 104 -123
128 -99 194 10 26 22 51 26 57 5 5 9 62 9 127 0 100 -6 145 -36 281 -144 652
-428 1344 -762 1857 -217 334 -462 638 -858 1060 -104 111 -214 248 -214 266
0 21 21 18 128 -20 117 -40 237 -69 392 -93 160 -24 564 -24 735 0 162 24 311
60 388 95 132 60 267 226 267 328 0 55 -65 165 -183 311 -205 254 -247 348
-282 618 -15 114 -31 200 -45 235 -73 182 -92 295 -98 557 -3 182 -1 237 13
310 45 228 154 438 250 479 34 15 57 10 97 -18z m-2633 -1315 c-18 -117 -19
-571 -1 -713 53 -421 153 -805 324 -1245 181 -465 289 -830 353 -1195 92 -529
82 -970 -30 -1419 -34 -131 -44 -158 -52 -134 -2 6 -36 60 -75 119 -160 242
-359 396 -587 455 -95 25 -265 27 -368 5 -211 -45 -424 -170 -630 -369 -84
-82 -93 -87 -97 -66 -5 26 -28 273 -52 559 -21 262 -29 868 -15 1120 73 1270
413 2129 1145 2888 49 51 91 90 94 88 2 -3 -2 -45 -9 -93z m6926 -80 c293
-319 530 -678 688 -1043 220 -507 338 -1057 378 -1760 13 -225 7 -834 -10
-1055 -19 -234 -52 -599 -57 -624 -4 -21 -12 -16 -97 66 -159 153 -319 261
-480 323 -217 84 -455 83 -651 -4 -190 -84 -384 -273 -506 -493 -13 -24 -27
-43 -32 -43 -4 0 -8 2 -8 4 0 2 -14 55 -30 117 -197 746 -99 1564 318 2634
222 571 325 1039 339 1530 5 201 0 306 -23 480 l-7 50 38 -35 c20 -19 84 -85
140 -147z m-6619 -885 c137 -229 277 -400 704 -858 380 -407 511 -559 697
-810 434 -584 728 -1224 918 -2001 39 -161 105 -472 101 -476 -1 -2 -32 20
-67 49 -236 190 -546 339 -799 384 -125 22 -319 22 -433 0 -153 -29 -326 -100
-467 -190 -30 -19 -56 -34 -57 -32 -2 1 6 47 16 102 99 516 96 1214 -9 1831
-68 399 -133 599 -349 1071 -165 361 -220 515 -265 736 -26 126 -42 256 -33
256 3 0 22 -28 43 -62z m6190 -7 c-10 -98 -51 -288 -87 -406 -43 -139 -90
-254 -228 -558 -220 -484 -286 -705 -355 -1188 -80 -553 -74 -1209 15 -1673
10 -55 18 -101 16 -102 -1 -2 -27 13 -57 32 -336 215 -706 264 -1087 143 -186
-59 -441 -199 -612 -337 -35 -29 -66 -51 -67 -49 -2 1 13 77 31 167 234 1125
617 1918 1310 2710 70 79 238 264 375 410 426 457 567 628 704 858 21 34 40
62 43 62 3 0 3 -31 -1 -69z m-415 -3829 c35 -40 35 -59 0 -153 -22 -59 -53
-99 -76 -99 -20 0 -75 59 -75 81 0 11 16 52 35 92 19 39 35 84 35 98 0 23 3
26 25 21 14 -2 39 -20 56 -40z m-5293 -81 c17 -34 32 -74 32 -87 0 -28 -42
-80 -71 -87 -27 -7 -62 33 -88 100 -31 80 -28 118 10 151 18 14 38 27 46 28 8
2 18 6 21 9 4 4 9 -6 12 -22 3 -15 20 -57 38 -92z M4482 8804 c-53 -84 -110
-216 -139 -325 -27 -99 -28 -115 -27 -319 0 -179 4 -232 21 -317 32 -153 64
-263 76 -263 6 0 44 16 84 36 133 66 224 182 259 330 13 54 15 102 11 224 -5
160 -26 268 -76 400 -26 70 -99 193 -143 244 l-34 39 -32 -49z m75 -279 c43
-30 53 -102 53 -364 0 -222 -2 -245 -20 -281 -22 -44 -50 -63 -83 -58 -43 6
-47 35 -47 341 0 267 1 291 20 326 17 34 30 47 50 50 3 1 15 -6 27 -14z M6096
8794 c-83 -106 -147 -249 -183 -409 -24 -108 -29 -354 -9 -439 35 -148 126
-264 259 -330 40 -20 78 -36 84 -36 6 0 21 36 33 81 46 170 61 273 67 445 6
191 -8 314 -53 452 -25 77 -99 227 -133 271 l-18 24 -47 -59z m50 -262 c6 -4
19 -21 28 -39 14 -28 16 -73 16 -325 0 -310 -4 -340 -46 -346 -31 -4 -80 42
-99 92 -14 37 -16 77 -13 267 3 210 5 227 27 277 13 29 33 59 45 67 23 17 27
18 42 7z M4652 7519 c-108 -54 -159 -145 -150 -270 6 -83 40 -146 106 -196 52
-39 98 -53 178 -53 200 0 325 215 233 400 -49 98 -131 148 -245 149 -49 1 -73
-5 -122 -30z M5762 7520 c-126 -64 -183 -205 -136 -342 57 -170 281 -235 426
-125 66 50 100 113 106 195 6 92 -16 158 -71 215 -57 58 -108 80 -192 85 -63
3 -77 0 -133 -28z M5220 7167 c-30 -13 -91 -46 -135 -75 l-80 -52 325 0 325 0
-45 31 c-62 42 -155 88 -209 105 -65 20 -118 17 -181 -9z M4892 6930 c-34 -54
-43 -96 -31 -151 23 -108 160 -259 298 -327 63 -31 87 -38 153 -41 134 -6 234
42 361 173 90 92 131 175 125 249 -3 33 -14 69 -28 92 l-24 39 -9 -34 c-11
-45 -209 -247 -280 -286 -44 -25 -63 -29 -127 -29 -64 0 -83 4 -127 29 -71 39
-269 241 -281 287 l-9 34 -21 -35z"/>
</g>
</svg>
