<?xml version="1.0" standalone="no"?>
<!DOCTYPE svg PUBLIC "-//W3C//DTD SVG 20010904//EN"
 "http://www.w3.org/TR/2001/REC-SVG-20010904/DTD/svg10.dtd">
<svg version="1.0" xmlns="http://www.w3.org/2000/svg"
 width="2048.000000pt" height="2048.000000pt" viewBox="0 0 2048.000000 2048.000000"
 preserveAspectRatio="xMidYMid meet">
<metadata>
Created by potrace 1.13, written by Peter Selinger 2001-2015
</metadata>
<g transform="translate(0.000000,2048.000000) scale(0.192120,-0.192120)"
fill="#000000" stroke="none">
<path d="M2444 10074 c-76 -130 -182 -408 -234 -614 -71 -282 -95 -511 -87
-837 5 -244 23 -397 68 -606 l21 -99 -21 -131 c-42 -258 -71 -608 -71 -844 0
-100 -2 -113 -31 -173 -279 -590 -410 -1316 -359 -1991 62 -813 359 -1680 816
-2381 l83 -127 53 15 c103 31 194 67 291 115 l97 49 28 -46 c100 -170 277
-398 442 -568 420 -432 902 -676 1480 -748 135 -16 485 -16 620 0 456 57 846
218 1210 501 245 190 548 539 726 837 10 17 18 15 124 -34 102 -48 318 -128
324 -120 21 25 138 209 188 293 395 672 648 1446 707 2168 14 163 14 536 1
692 -39 446 -148 874 -333 1296 l-45 104 -6 217 c-7 254 -26 467 -62 704 l-26
171 26 124 c53 261 61 343 60 664 0 337 -13 462 -79 732 -71 287 -233 683
-280 683 -28 0 -313 -62 -504 -110 -325 -82 -601 -174 -835 -280 l-128 -59
-132 19 c-303 44 -630 60 -1241 60 -619 0 -1006 -20 -1292 -66 l-93 -14 -52
26 c-211 107 -563 228 -924 319 -164 40 -461 105 -486 105 -10 0 -29 -20 -44
-46z m397 -180 c511 -294 982 -520 1534 -738 121 -48 249 -103 285 -123 292
-159 487 -393 583 -698 44 -140 77 -336 77 -455 l0 -56 -64 4 c-41 3 -85 -2
-118 -11 -29 -9 -60 -15 -68 -15 -8 1 -25 -2 -36 -6 -18 -5 -24 -1 -32 24 -6
16 -16 30 -21 30 -7 0 -11 50 -11 144 0 83 -6 176 -14 218 -43 222 -151 425
-311 583 -269 266 -859 471 -1179 410 -204 -38 -425 -145 -578 -281 -144 -127
-290 -350 -351 -539 -48 -147 -57 -201 -57 -368 l0 -157 56 -162 c89 -260 170
-396 333 -559 154 -154 331 -273 485 -325 265 -91 581 -78 869 34 64 25 84 29
112 21 30 -9 35 -16 55 -76 26 -82 166 -363 216 -435 148 -213 319 -356 545
-453 41 -18 95 -36 120 -39 41 -7 40 -5 -31 26 -294 132 -540 351 -640 572
-30 66 -61 172 -59 202 1 17 2 17 6 -1 15 -58 174 -198 290 -254 147 -72 371
-131 493 -131 127 0 336 55 495 130 115 55 270 191 289 255 3 11 3 0 0 -25
-31 -271 -328 -588 -703 -752 -66 -29 -66 -29 -21 -22 177 26 455 206 599 389
103 131 271 454 307 592 2 7 10 10 19 7 10 -4 15 0 15 10 0 14 4 15 20 6 11
-6 33 -13 48 -15 15 -2 61 -15 102 -30 241 -83 503 -94 745 -30 120 31 186 61
298 136 307 206 467 420 591 791 l46 137 0 155 c0 147 -2 160 -36 278 -61 212
-171 412 -310 567 -154 171 -442 321 -679 352 -203 27 -542 -55 -820 -197
-325 -166 -532 -416 -610 -735 -21 -88 -25 -128 -25 -264 -1 -125 -4 -164 -15
-179 -8 -11 -15 -28 -15 -38 0 -25 -45 -24 -107 3 -36 16 -70 22 -137 23 l-89
1 6 105 c24 402 170 727 427 948 124 106 243 169 552 292 544 217 945 410
1486 717 198 113 202 115 227 99 14 -9 25 -18 25 -19 0 -3 60 -173 119 -337
40 -112 76 -244 96 -353 14 -75 16 -153 12 -550 l-3 -462 -27 -100 c-19 -70
-27 -125 -27 -183 0 -83 0 -83 38 -119 20 -19 56 -49 80 -66 23 -17 42 -38 42
-47 0 -31 -60 -192 -110 -298 -61 -128 -172 -298 -267 -407 -118 -136 -290
-273 -420 -332 l-53 -25 32 -39 c191 -233 328 -506 391 -779 62 -265 66 -690
12 -1125 -145 -1160 -694 -2171 -1555 -2860 -330 -265 -741 -481 -996 -526
-129 -22 -267 5 -481 95 -357 151 -815 484 -1120 814 -638 691 -1018 1519
-1138 2477 -40 324 -50 755 -20 950 54 366 188 668 423 954 l32 39 -53 25
c-298 136 -603 497 -753 890 -19 49 -37 106 -40 126 -6 37 -5 39 55 82 33 24
63 52 66 62 4 9 10 15 15 12 27 -17 28 157 1 246 -39 131 -43 187 -39 634 4
399 6 437 26 532 28 130 63 250 111 388 22 61 49 145 62 188 20 70 54 127 77
127 4 0 91 -48 193 -106z m3138 -454 c112 -5 212 -12 223 -16 28 -9 19 -44
-17 -66 -16 -9 -48 -25 -70 -35 -82 -35 -213 -107 -310 -170 -114 -76 -297
-252 -388 -374 -31 -42 -64 -79 -72 -83 -28 -10 -52 11 -149 132 -105 132
-176 202 -286 284 -84 63 -236 152 -332 194 -35 15 -69 32 -77 38 -7 6 -23 15
-35 21 -32 16 -33 53 -2 61 86 21 1147 31 1515 14z m-1995 -415 c227 -57 430
-183 566 -351 346 -426 326 -1019 -47 -1415 -406 -430 -1094 -441 -1517 -25
-84 83 -148 171 -201 276 -87 174 -121 334 -112 534 12 271 114 503 307 697
99 100 178 155 304 215 216 102 472 127 700 69z m3056 25 c175 -20 346 -83
491 -180 83 -56 223 -197 277 -280 181 -274 230 -612 135 -915 -123 -389 -450
-670 -856 -735 -105 -17 -318 -7 -419 19 -611 160 -954 802 -742 1391 55 155
134 277 254 398 126 126 282 217 458 267 144 41 260 51 402 35z m-1590 -1376
c379 -183 607 -438 666 -742 26 -134 24 -138 -64 -208 -189 -151 -375 -244
-609 -304 l-113 -30 -97 26 c-255 66 -487 184 -655 334 -55 48 -57 61 -34 182
59 304 287 559 666 742 63 31 117 56 120 56 3 0 57 -25 120 -56z m-2970 -746
c61 -71 193 -205 258 -260 54 -47 54 -72 2 -169 -141 -260 -208 -442 -255
-686 -21 -110 -21 -895 0 -1064 72 -583 231 -1109 486 -1609 72 -143 193 -353
258 -448 47 -70 74 -122 67 -129 -8 -8 -41 10 -106 58 -93 70 -157 76 -303 29
-124 -40 -160 -39 -198 2 -63 66 -262 451 -362 698 -110 269 -224 645 -272
895 -52 268 -55 314 -55 833 0 515 3 557 49 783 42 204 125 484 182 617 82
189 139 373 139 446 0 44 15 65 46 66 6 0 35 -28 64 -62z m5801 -24 c10 -106
22 -147 94 -329 76 -192 143 -398 184 -570 75 -306 73 -279 68 -970 l-3 -620
-31 -145 c-90 -419 -192 -735 -357 -1110 -98 -220 -253 -493 -299 -525 -31
-22 -69 -19 -176 16 -77 25 -107 30 -153 26 -57 -5 -87 -21 -249 -136 -39 -28
-19 19 64 152 136 215 194 319 287 510 241 496 391 1008 455 1552 22 189 22
938 -1 1056 -41 222 -89 359 -211 606 -61 124 -84 179 -79 196 3 13 42 54 87
93 45 38 124 117 176 176 82 94 97 106 116 99 19 -7 23 -18 28 -77z m-3744
-196 c-2 -13 -4 -3 -4 22 0 25 2 35 4 23 2 -13 2 -33 0 -45z m1590 10 c-2 -13
-4 -5 -4 17 -1 22 1 32 4 23 2 -10 2 -28 0 -40z m-2555 -4485 c39 -43 169
-175 289 -293 121 -119 219 -222 219 -230 0 -10 -3 -11 -8 -4 -6 10 -38 26
-54 28 -7 1 -123 85 -161 117 -150 125 -176 156 -314 364 -51 75 -60 95 -47
95 3 0 37 -35 76 -77z m3567 35 c-11 -21 -70 -112 -116 -178 -78 -112 -156
-190 -293 -291 -83 -62 -139 -94 -148 -84 -3 3 82 92 189 198 107 107 235 237
284 289 50 53 91 95 93 93 2 -2 -2 -14 -9 -27z m-575 -573 c-4 -8 -8 -15 -10
-15 -2 0 -4 7 -4 15 0 8 4 15 10 15 5 0 7 -7 4 -15z M3570 8497 c-215 -73
-351 -248 -367 -472 -10 -154 43 -293 156 -406 290 -290 771 -163 886 234 24
82 22 214 -4 298 -53 169 -199 308 -372 354 -84 23 -221 19 -299 -8z m301
-295 c25 -12 59 -36 77 -53 l32 -31 0 -115 c0 -116 -9 -151 -49 -197 -64 -72
-243 -91 -351 -36 -49 25 -96 80 -109 127 -15 54 -13 168 3 207 17 40 83 88
152 110 69 22 187 16 245 -12z M6787 8505 c-170 -47 -316 -188 -368 -354 -27
-90 -28 -223 0 -311 71 -226 277 -380 509 -380 303 1 549 264 529 565 -16 227
-166 414 -386 479 -66 19 -215 20 -284 1z m285 -308 c86 -42 102 -65 106 -153
3 -41 1 -100 -3 -131 -6 -49 -12 -61 -53 -102 -55 -54 -107 -73 -199 -73 -106
1 -184 36 -234 105 -28 38 -29 45 -29 148 0 101 2 109 25 138 83 98 262 129
387 68z M2725 1936 c-22 -7 -51 -18 -64 -26 -46 -24 -123 -104 -149 -155 -24
-45 -27 -61 -27 -155 0 -96 3 -110 28 -158 35 -67 92 -124 159 -159 53 -28 53
-28 303 -33 l250 -5 -63 -34 c-133 -72 -193 -162 -200 -301 -3 -70 0 -95 18
-142 28 -75 104 -159 176 -194 72 -35 181 -44 253 -20 40 13 586 303 950 504
79 44 149 97 139 107 -5 5 -289 -22 -373 -35 -99 -16 -152 -37 -346 -136 -376
-193 -387 -198 -461 -198 -61 -1 -69 2 -98 29 -30 28 -32 34 -28 90 3 48 10
70 38 110 40 59 79 150 80 186 0 36 -52 113 -102 150 -70 51 -121 69 -244 85
-119 16 -164 27 -164 42 0 5 -16 16 -35 25 -39 19 -58 54 -53 101 2 25 11 35
45 51 24 11 42 27 43 36 0 25 28 29 215 35 192 6 242 18 279 67 18 25 56 121
56 144 0 2 -132 3 -292 2 -206 0 -305 -4 -333 -13z M7321 1909 c14 -62 36 -96
77 -123 52 -35 105 -44 282 -50 170 -5 228 -18 246 -54 6 -13 17 -29 23 -35
20 -20 12 -80 -15 -121 -33 -49 -71 -64 -191 -76 -54 -6 -121 -15 -150 -21
-97 -19 -221 -122 -240 -198 -9 -37 11 -98 58 -180 40 -69 41 -74 37 -146 -4
-83 -15 -99 -78 -110 -64 -11 -126 13 -413 159 -311 158 -334 166 -559 191
-257 28 -240 28 -229 6 6 -10 32 -32 58 -49 99 -62 979 -534 1026 -549 70 -23
180 -14 251 21 72 35 148 119 176 194 18 47 21 72 18 142 -7 139 -66 229 -198
300 l-65 35 250 5 250 5 63 34 c71 39 111 79 147 150 89 177 16 390 -163 478
l-57 28 -307 3 -306 3 9 -42z"/>
</g>
</svg>
