<?xml version="1.0" standalone="no"?>
<!DOCTYPE svg PUBLIC "-//W3C//DTD SVG 20010904//EN"
 "http://www.w3.org/TR/2001/REC-SVG-20010904/DTD/svg10.dtd">
<svg version="1.0" xmlns="http://www.w3.org/2000/svg"
 width="2048.000000pt" height="2048.000000pt" viewBox="0 0 2048.000000 2048.000000"
 preserveAspectRatio="xMidYMid meet">
<metadata>
Created by potrace 1.13, written by Peter Selinger 2001-2015
</metadata>
<g transform="translate(0.000000,2048.000000) scale(0.192120,-0.192120)"
fill="#000000" stroke="none">
<path d="M6280 10315 c-155 -31 -306 -99 -473 -212 -146 -98 -243 -181 -402
-345 -263 -268 -485 -567 -719 -968 -110 -188 -308 -582 -390 -775 l-55 -130
-58 -13 c-422 -98 -1104 -322 -1613 -530 -1102 -449 -2047 -1029 -2210 -1355
-50 -99 -37 -184 59 -382 111 -230 274 -449 516 -691 324 -326 641 -549 1080
-760 126 -60 385 -164 474 -189 l24 -7 -26 33 c-40 55 -82 147 -120 264 -37
118 -82 294 -76 299 7 7 404 134 469 150 36 10 88 23 115 31 80 22 197 46 201
42 2 -2 -20 -27 -50 -55 -61 -58 -80 -62 -149 -33 l-44 19 -6 -61 c-12 -142
-96 -446 -157 -567 -34 -66 -75 -119 -103 -129 -37 -14 342 -97 608 -134 141
-19 204 -22 530 -22 477 0 587 13 1375 159 623 114 876 122 1174 35 154 -46
368 -170 455 -264 69 -75 86 -123 86 -240 -1 -85 -5 -110 -27 -163 -84 -202
-261 -385 -523 -541 -586 -349 -1550 -524 -2654 -481 -828 32 -852 33 -866 55
-64 102 -118 179 -176 253 -245 307 -612 646 -929 857 -215 143 -327 195 -422
195 -154 0 -176 -104 -118 -566 72 -587 84 -782 77 -1214 -6 -342 -18 -497
-68 -893 -35 -277 -47 -492 -30 -552 37 -137 179 -137 438 0 440 232 995 719
1218 1069 36 57 38 58 74 53 20 -3 158 -26 306 -51 1195 -203 2478 -275 3395
-190 456 42 841 123 1321 280 472 153 948 375 1245 579 l91 63 81 -57 c102
-74 233 -142 353 -183 89 -31 102 -32 239 -33 115 0 153 4 182 17 131 59 146
396 42 913 -18 94 -38 185 -43 203 -9 31 -4 47 59 175 85 174 130 296 180 492
155 606 108 1336 -126 1975 -20 52 -77 181 -129 285 -158 320 -329 558 -590
821 -294 296 -620 527 -1020 724 -286 141 -625 266 -924 341 l-133 34 -99 198
c-165 329 -278 612 -353 882 -80 289 -105 468 -120 855 -13 338 -18 361 -84
406 -62 42 -248 56 -382 29z m177 -255 c3 -10 13 -22 24 -25 23 -8 27 -39 33
-270 5 -174 28 -380 61 -535 74 -351 231 -786 418 -1155 61 -122 80 -150 146
-216 98 -98 179 -150 288 -183 384 -118 588 -195 830 -311 309 -148 660 -375
867 -560 148 -131 322 -319 344 -371 4 -11 51 -86 105 -167 187 -282 290 -497
379 -787 27 -91 62 -199 77 -240 l26 -75 3 -613 3 -613 -27 -112 c-29 -122
-78 -266 -144 -422 -101 -239 -106 -278 -66 -491 31 -164 63 -378 71 -474 4
-41 13 -125 21 -187 7 -62 12 -118 10 -125 -3 -7 -7 -25 -10 -41 l-6 -27 -43
21 c-356 182 -1155 946 -1900 1817 -87 101 -157 179 -157 175 0 -5 44 -89 98
-188 404 -740 748 -1213 1142 -1571 l66 -59 -143 4 c-142 3 -202 -4 -268 -34
-16 -7 -86 -39 -155 -70 -391 -177 -674 -281 -1055 -390 -555 -158 -959 -211
-1700 -222 -839 -12 -1677 55 -2650 212 -281 45 -322 49 -375 35 -95 -25 -220
-129 -349 -290 -134 -168 -380 -400 -606 -571 -148 -112 -366 -246 -455 -280
l-50 -19 0 143 c0 80 9 214 19 303 40 331 43 393 39 989 -4 557 -5 589 -31
806 -20 159 -27 262 -25 347 l3 121 55 -27 c31 -15 72 -38 93 -51 23 -14 37
-18 37 -11 0 15 26 -1 130 -79 272 -203 535 -460 769 -751 84 -104 229 -254
297 -305 59 -45 102 -52 429 -71 608 -33 1141 -29 1520 12 345 37 530 79 1025
231 507 155 877 377 1114 668 174 214 226 334 226 527 0 111 -13 165 -58 248
-84 153 -296 342 -487 435 -200 98 -357 130 -635 130 -107 0 -243 -4 -301 -9
-143 -12 -139 -23 -66 224 19 63 42 155 51 203 28 141 3 206 -95 248 l-34 14
33 5 c45 7 43 21 -9 47 -397 199 -1128 270 -1939 187 -781 -79 -1575 -283
-2009 -516 -102 -55 -104 -55 -115 16 -17 111 -32 133 -185 291 -244 249 -357
388 -468 572 -78 130 -103 197 -103 272 l0 58 78 74 c81 78 164 146 270 219
34 23 62 50 62 59 0 18 237 174 440 290 191 109 679 349 920 452 592 253 1088
426 1710 599 152 42 217 78 316 175 65 64 89 95 117 155 19 41 60 131 92 200
147 321 384 728 583 1005 418 580 883 941 1215 944 50 1 60 -2 64 -19z m-1130
-5137 c-7 -83 -53 -281 -93 -403 -61 -185 -130 -300 -181 -300 -33 0 -99 85
-137 176 -56 133 -146 481 -146 565 0 18 9 19 281 19 l282 0 -6 -57z m-572 38
c-37 -33 -102 -71 -123 -71 -14 0 -47 14 -74 31 -27 17 -50 30 -52 28 -2 -2
-15 -65 -30 -139 -64 -312 -160 -548 -237 -580 -26 -11 -34 -10 -56 7 -70 51
-160 281 -218 556 -13 60 -26 111 -29 114 -3 3 -24 -11 -46 -31 -68 -61 -79
-63 -154 -28 -65 31 -66 31 -67 9 0 -12 -4 -80 -8 -152 -16 -258 -122 -612
-216 -724 -30 -35 -67 -41 -102 -16 -84 59 -219 483 -237 742 -5 79 -4 83 17
88 255 60 777 133 1132 159 218 15 513 20 500 7z m-2485 -428 c0 -3 -6 -14
-14 -22 -7 -9 -30 -47 -51 -86 -59 -112 -56 -110 -193 -108 -64 1 -137 6 -162
11 l-45 8 115 57 c104 51 324 145 343 147 4 0 7 -3 7 -7z m2446 -244 c53 -107
51 -124 -20 -144 -28 -8 -73 -17 -101 -20 -27 -4 -57 -8 -66 -11 -9 -2 -26 4
-38 13 -21 18 -21 19 -4 50 10 17 37 67 60 112 24 44 53 89 65 100 21 20 22
20 41 3 11 -9 39 -56 63 -103z m-776 -95 c39 -54 69 -102 67 -108 -8 -25 -54
-36 -142 -34 l-90 3 -3 38 c-6 67 49 197 83 197 7 0 45 -43 85 -96z M3785
7012 c-50 -5 -85 -23 -100 -52 -53 -103 -4 -290 103 -396 166 -163 418 -163
584 0 134 131 170 391 61 434 -36 15 -61 15 -268 7 -93 -4 -210 -3 -260 2 -49
4 -103 7 -120 5z m410 -262 c3 -5 1 -18 -4 -27 -6 -10 -11 -14 -11 -10 0 5 -7
1 -16 -7 -11 -11 -35 -16 -82 -16 -77 0 -116 16 -120 48 -3 22 -2 22 112 22
65 0 117 -4 121 -10z"/>
</g>
</svg>
