<?xml version="1.0" standalone="no"?>
<!DOCTYPE svg PUBLIC "-//W3C//DTD SVG 20010904//EN"
 "http://www.w3.org/TR/2001/REC-SVG-20010904/DTD/svg10.dtd">
<svg version="1.0" xmlns="http://www.w3.org/2000/svg"
 width="2048.000000pt" height="2048.000000pt" viewBox="0 0 2048.000000 2048.000000"
 preserveAspectRatio="xMidYMid meet">
<metadata>
Created by potrace 1.13, written by Peter Selinger 2001-2015
</metadata>
<g transform="translate(0.000000,2048.000000) scale(0.192120,-0.192120)"
fill="#000000" stroke="none">
<path d="M3170 10240 c-214 -21 -427 -84 -645 -190 -321 -156 -537 -338 -710
-599 -359 -542 -652 -1392 -672 -1951 -8 -237 22 -378 103 -477 l35 -43 -24
-32 c-119 -159 -123 -375 -11 -543 204 -308 755 -896 1010 -1079 l40 -29 -57
-126 c-31 -69 -74 -177 -95 -239 -31 -90 -41 -111 -54 -106 -123 55 -268 64
-375 25 -33 -12 -67 -24 -76 -27 -12 -4 -25 9 -45 45 -36 63 -404 496 -555
654 -193 203 -367 333 -471 352 -47 9 -97 -15 -123 -58 -40 -65 -19 -223 51
-398 39 -97 144 -303 209 -409 135 -223 227 -333 340 -409 115 -76 171 -95
292 -95 l101 -1 6 -37 c12 -74 108 -169 213 -208 76 -29 199 -37 280 -17 60
14 62 13 65 -6 2 -14 33 -37 103 -74 153 -83 404 -236 400 -244 -3 -4 -22 -10
-42 -14 -21 -3 -104 -24 -184 -45 -80 -22 -200 -50 -266 -64 -130 -26 -212
-57 -274 -106 l-38 -31 -92 37 c-339 135 -882 233 -1081 195 -186 -37 -221
-150 -93 -299 86 -99 311 -250 555 -373 300 -150 451 -196 614 -187 101 6 157
24 228 74 l47 33 57 -19 c81 -28 192 -27 264 3 180 74 471 333 571 507 19 33
37 60 42 60 9 0 184 -156 319 -286 l107 -103 -53 -24 c-63 -29 -155 -90 -356
-236 -190 -138 -288 -197 -371 -221 -127 -38 -225 -126 -275 -247 -17 -43 -28
-57 -41 -56 -10 2 -60 -2 -112 -8 -292 -33 -874 -276 -1085 -452 -127 -106
-140 -219 -33 -281 84 -50 160 -61 417 -61 280 0 552 31 768 86 163 41 280
124 332 235 l31 64 48 0 c74 0 162 19 206 45 178 103 532 664 601 951 10 38
19 75 21 83 2 9 72 -53 186 -165 100 -99 209 -203 242 -231 l59 -51 -34 -28
c-219 -184 -269 -239 -337 -369 -45 -88 -77 -182 -88 -262 l-7 -53 -59 -26
c-104 -47 -188 -159 -224 -299 -23 -90 -29 -259 -16 -460 28 -434 91 -715 183
-819 34 -40 45 -46 79 -46 22 0 67 11 101 25 217 88 340 316 378 700 13 135
18 575 7 631 -8 40 -7 41 21 47 87 18 285 312 407 607 15 36 30 68 34 72 3 4
46 -9 95 -28 476 -189 1380 -198 1905 -19 53 18 103 36 112 39 11 5 21 -7 39
-51 42 -104 160 -331 219 -421 70 -107 152 -191 193 -199 26 -5 29 -9 23 -32
-25 -102 -10 -593 25 -793 47 -279 159 -459 338 -544 32 -15 80 -29 108 -32
49 -4 51 -3 90 41 110 126 186 529 188 1007 1 166 -3 217 -17 268 -40 148
-118 254 -221 303 l-60 28 -23 103 c-46 206 -142 354 -334 514 l-79 66 57 40
c96 67 202 157 310 262 68 65 104 94 108 85 2 -8 16 -48 31 -89 107 -305 413
-765 568 -855 45 -26 133 -45 207 -45 l48 0 31 -64 c52 -111 169 -194 332
-235 84 -22 275 -54 428 -73 144 -17 547 -17 625 1 183 41 248 129 177 242
-88 138 -421 319 -856 464 -155 51 -259 74 -363 79 l-75 4 -22 54 c-51 124
-144 209 -274 248 -87 26 -167 73 -375 224 -95 68 -205 145 -246 171 l-73 47
83 85 c46 46 132 129 190 183 l106 99 39 -56 c96 -140 339 -352 493 -430 66
-34 84 -38 160 -41 67 -3 99 1 144 17 l58 20 47 -33 c71 -50 127 -68 228 -74
164 -9 302 32 594 177 409 203 650 402 650 536 0 114 -117 164 -353 152 -248
-12 -647 -102 -896 -201 l-92 -37 -38 31 c-62 49 -144 80 -273 106 -100 20
-322 75 -418 103 -23 7 -20 11 55 67 102 75 355 244 367 244 4 0 8 12 8 26 0
22 3 24 23 18 124 -40 259 -29 376 30 66 34 136 114 151 174 l13 47 101 1
c120 0 176 19 291 95 115 77 206 187 345 419 86 143 202 382 234 482 58 183
58 275 1 337 -30 32 -39 36 -82 35 -142 -2 -385 -209 -762 -653 -234 -275
-270 -321 -292 -364 -15 -28 -25 -37 -37 -33 -9 3 -44 15 -77 27 -46 17 -82
22 -155 22 -89 0 -137 -10 -222 -47 -14 -6 -19 1 -28 36 -18 66 -85 238 -134
342 l-43 92 41 29 c255 183 806 772 1010 1080 112 168 108 384 -10 542 l-24
32 40 53 c77 101 106 243 97 473 -25 661 -446 1745 -839 2160 -243 256 -637
471 -999 545 -147 30 -318 43 -412 31 -85 -10 -107 -22 -107 -57 0 -47 64
-196 191 -444 193 -379 243 -485 331 -700 44 -107 113 -265 155 -352 l75 -156
32 10 c88 30 114 82 96 192 -18 114 -217 592 -386 927 -76 152 -114 237 -114
259 0 41 266 -24 472 -115 71 -32 98 -40 98 -30 0 10 15 6 53 -16 208 -123
359 -267 496 -474 87 -132 231 -404 299 -565 17 -41 56 -129 86 -196 74 -165
138 -368 193 -612 24 -107 27 -141 31 -387 3 -228 1 -282 -13 -349 -20 -89
-16 -139 14 -196 l20 -39 -35 -7 c-299 -56 -669 324 -1122 1151 -39 72 -104
197 -144 279 l-73 149 -184 151 c-314 256 -381 321 -466 451 -139 211 -206
414 -240 723 -8 73 -17 137 -20 142 -12 20 -34 9 -73 -35 -72 -81 -125 -205
-164 -380 -44 -200 -32 -689 22 -900 69 -270 317 -637 680 -1009 376 -384 759
-668 1082 -799 l37 -15 -74 -159 c-145 -314 -297 -687 -361 -885 -15 -49 -31
-88 -34 -88 -4 0 -27 28 -51 63 -122 168 -324 379 -499 520 -284 229 -720 454
-1049 541 l-85 23 -1 159 c-1 119 -6 172 -18 209 -20 61 -21 65 -4 65 8 0 41
13 73 30 173 86 267 287 220 470 -43 165 -168 281 -339 311 -175 32 -368 -72
-445 -238 -21 -47 -27 -77 -30 -154 -4 -85 -1 -103 22 -160 24 -59 24 -64 8
-73 -34 -19 -125 -112 -167 -171 -52 -74 -95 -159 -124 -246 l-22 -66 -279 0
-279 0 -22 66 c-29 87 -72 172 -124 246 -42 59 -133 152 -167 171 -16 9 -16
14 8 73 23 57 26 75 22 160 -5 118 -32 185 -109 266 -162 172 -428 176 -594
10 -163 -164 -164 -421 -2 -584 47 -48 152 -111 184 -111 17 0 16 -4 -4 -65
-12 -37 -17 -90 -18 -209 l-1 -158 -114 -33 c-248 -72 -570 -221 -793 -369
-283 -186 -547 -435 -726 -683 -24 -35 -47 -63 -51 -63 -3 0 -16 33 -29 73
-62 195 -211 562 -361 887 -39 85 -72 158 -73 163 -1 4 36 24 83 45 303 135
668 409 1010 758 242 247 403 448 534 664 174 288 210 441 211 890 0 216 -3
281 -18 350 -39 185 -96 322 -169 405 -40 45 -61 55 -74 34 -3 -6 -12 -70 -20
-142 -31 -303 -100 -512 -239 -722 -87 -132 -155 -197 -470 -455 l-180 -148
-102 -203 c-424 -848 -841 -1353 -1136 -1376 -36 -3 -81 -3 -102 1 l-36 7 23
37 c23 37 23 38 23 452 l0 415 37 146 c159 634 456 1260 727 1529 120 120 342
276 349 245 2 -10 27 -2 90 27 112 52 295 113 395 131 122 23 121 16 -39 -311
-160 -326 -296 -641 -345 -799 -27 -86 -28 -194 -3 -220 22 -23 55 -42 94 -53
27 -8 28 -6 103 149 42 86 111 244 155 351 88 215 138 322 332 700 134 262
193 404 188 449 -2 16 -13 30 -28 38 -34 16 -197 23 -300 13z m4056 -1476
c123 -141 387 -348 541 -425 117 -58 111 -51 238 -289 153 -285 254 -450 466
-755 38 -55 69 -103 69 -107 0 -19 -80 8 -157 54 -261 152 -510 353 -770 621
-217 224 -370 423 -481 624 -82 151 -94 189 -99 340 -3 73 -2 140 1 149 5 13
22 -3 72 -67 37 -46 90 -112 120 -145z m-3651 -156 c-38 -98 -135 -263 -237
-401 -212 -287 -569 -631 -879 -849 -107 -75 -250 -160 -278 -164 -7 -2 -18
-7 -24 -13 -17 -17 -37 -13 -37 7 0 19 21 52 115 182 111 155 271 420 446 743
80 148 114 189 176 212 174 64 482 321 684 570 l64 80 3 -137 c3 -136 2 -138
-33 -230z m860 -832 l35 -15 0 -134 c0 -137 -5 -157 -42 -170 -23 -8 -131 74
-171 130 -38 54 -49 133 -22 163 35 39 138 52 200 26z m1959 -9 c23 -15 26
-24 26 -73 0 -74 -17 -110 -83 -172 -60 -56 -93 -74 -125 -65 -33 8 -42 47
-42 174 l0 120 43 20 c51 24 141 22 181 -4z m-1739 -429 c25 -155 126 -362
239 -488 88 -98 140 -143 194 -168 55 -26 63 -27 242 -27 180 0 187 1 242 27
60 28 153 115 228 213 49 64 174 307 188 365 6 25 14 62 17 83 3 20 8 37 11
37 3 0 24 -13 47 -28 49 -32 104 -57 165 -72 l43 -11 -21 -32 c-46 -68 -52
-97 -54 -232 -1 -116 2 -136 22 -180 12 -27 27 -57 32 -65 6 -8 16 -26 23 -40
18 -37 47 -80 84 -124 39 -47 43 -75 11 -78 -45 -3 -125 3 -233 17 -60 8 -193
21 -295 30 -102 8 -216 20 -255 27 -38 6 -153 11 -255 11 -102 0 -216 -5 -255
-11 -38 -7 -153 -19 -255 -27 -157 -13 -273 -26 -459 -50 -56 -7 -91 4 -91 30
0 13 3 25 8 27 20 8 77 95 124 189 l53 104 0 135 c0 143 -7 177 -51 237 l-24
31 53 13 c65 15 122 40 167 73 19 14 38 25 42 26 3 0 9 -19 13 -42z m4180
-423 c93 -71 164 -107 293 -144 l72 -22 0 -98 c0 -93 -1 -100 -35 -155 -80
-132 -289 -378 -526 -617 -161 -162 -213 -207 -248 -214 -31 -6 -28 37 9 121
16 38 56 137 89 220 33 84 101 248 151 365 148 345 171 434 135 534 -8 22 -15
41 -15 41 0 1 8 1 18 0 10 0 36 -15 57 -31z m-6959 -2 c-4 -16 -10 -55 -13
-88 -5 -63 16 -146 72 -275 95 -219 140 -328 236 -566 60 -149 109 -279 109
-287 0 -62 -84 -1 -291 211 -257 261 -468 512 -523 619 -22 44 -26 66 -26 132
0 93 -5 88 113 120 90 25 169 63 247 119 67 49 85 53 76 15z m3294 -43 c52 -7
53 -7 14 -9 -23 0 -56 -4 -73 -7 -27 -6 -31 -4 -31 16 0 17 4 21 18 15 9 -4
42 -11 72 -15z m410 1 c0 -18 -5 -19 -72 -14 -87 7 -100 13 -32 14 27 0 58 4
69 9 30 13 35 12 35 -9z m-1328 -116 c0 -8 1 -20 2 -26 1 -7 -28 -20 -64 -30
-86 -24 -94 -23 -40 5 25 13 54 33 64 45 22 25 35 27 38 6z m2197 -9 c12 -13
40 -31 62 -41 21 -10 38 -19 36 -21 -7 -8 -142 35 -141 45 3 36 5 41 12 41 5
0 19 -11 31 -24z m-717 -316 c787 -54 1394 -230 1913 -555 66 -42 127 -74 136
-72 12 3 24 -10 40 -45 27 -57 101 -130 154 -152 58 -25 99 -20 138 14 19 17
37 30 39 30 15 0 166 -256 156 -265 -2 -1 -23 -13 -48 -25 -25 -13 -56 -31
-69 -41 -13 -11 -35 -19 -50 -19 -26 0 -38 5 -122 52 -25 14 -64 29 -87 33
-23 4 -44 11 -48 16 -3 5 -21 9 -40 9 -47 0 -64 19 -119 127 -54 108 -111 165
-238 237 -114 65 -189 85 -321 90 -109 3 -109 3 -135 35 -112 138 -177 183
-341 235 -301 96 -503 66 -611 -90 -29 -42 -29 -44 -29 -185 l0 -142 44 -93
c68 -142 149 -214 283 -249 103 -27 214 -13 358 44 55 23 81 28 90 21 7 -6 20
-8 29 -4 14 5 16 -2 16 -49 0 -114 44 -231 109 -289 77 -68 119 -82 231 -75
52 4 110 11 128 16 25 8 32 7 32 -4 0 -9 10 -13 27 -12 25 2 28 -2 35 -43 3
-25 7 -85 7 -133 1 -56 6 -98 15 -116 19 -35 87 -97 131 -118 20 -10 35 -24
35 -34 0 -13 11 -19 45 -25 51 -7 49 0 45 -127 -2 -81 0 -90 25 -122 35 -47
77 -85 92 -85 7 0 13 -4 13 -8 0 -5 28 -17 63 -26 85 -24 107 -34 107 -46 0
-5 18 -13 40 -16 51 -8 64 -23 50 -58 -5 -15 -10 -48 -10 -73 0 -38 5 -50 35
-80 35 -35 35 -36 18 -55 -32 -35 -180 -158 -191 -158 -6 0 -21 13 -34 29 -34
40 -64 53 -101 46 -60 -13 -184 -90 -297 -186 -94 -79 -110 -83 -160 -39 -83
74 -126 62 -505 -140 -376 -200 -766 -306 -1255 -340 -478 -33 -972 23 -1373
155 -124 41 -345 134 -412 174 -45 28 -179 99 -280 150 -87 44 -93 46 -180 46
-49 0 -97 4 -105 9 -8 6 -55 41 -104 80 -48 38 -125 91 -169 118 -68 40 -89
48 -122 46 -34 -3 -44 -9 -74 -50 l-35 -47 -30 22 c-17 11 -61 43 -98 71 l-67
49 31 35 c30 35 30 38 25 107 -7 76 1 95 35 95 11 0 29 10 41 23 12 12 40 29
62 36 55 19 96 49 140 101 l37 44 -3 105 -4 105 37 9 c22 5 38 16 41 27 3 10
18 21 38 25 21 5 54 28 90 65 53 52 58 61 64 114 4 32 5 91 1 131 -9 94 -1
128 26 119 11 -3 24 -1 27 5 6 8 27 7 80 -4 95 -20 190 -19 243 2 71 28 134
96 157 167 28 90 41 150 41 195 0 30 4 41 15 41 8 0 15 5 15 10 0 15 14 12 82
-19 110 -51 174 -66 283 -65 90 0 107 3 165 31 112 52 192 151 244 303 11 30
16 83 16 162 0 137 -15 183 -78 240 -111 100 -272 113 -518 43 -179 -52 -273
-111 -345 -216 -22 -33 -52 -64 -65 -70 -14 -5 -62 -6 -107 -3 -63 5 -96 2
-142 -11 -135 -39 -278 -125 -347 -209 -30 -37 -98 -167 -98 -188 0 -24 -77
-58 -129 -58 -34 0 -69 -11 -128 -39 -45 -22 -92 -41 -105 -42 -17 -3 -135 52
-166 76 -10 8 141 265 156 265 2 0 18 -12 35 -26 43 -36 109 -30 172 15 24 17
48 31 54 31 13 0 64 68 80 108 8 20 18 28 29 26 9 -3 76 32 147 77 476 296
1032 468 1725 533 91 9 190 17 220 19 139 8 624 6 762 -3z m-1357 -331 c128
-65 152 -247 58 -432 -33 -65 -104 -141 -157 -167 -120 -58 -356 12 -492 145
-132 130 -119 254 37 355 179 116 434 161 554 99z m2225 -4 c123 -39 202 -79
261 -133 57 -51 79 -92 79 -149 0 -151 -260 -333 -477 -333 -113 0 -203 68
-268 203 -97 199 -56 374 101 433 59 22 198 12 304 -21z m-3136 -326 c54 -15
119 -83 145 -153 45 -122 44 -322 -2 -416 -32 -65 -59 -75 -168 -61 -172 22
-324 87 -403 171 -52 56 -64 99 -46 167 26 91 193 234 328 280 76 26 92 27
146 12z m3896 -30 c36 -17 97 -55 137 -85 107 -82 155 -153 155 -231 0 -129
-188 -247 -454 -283 -106 -15 -139 -4 -167 53 -75 155 -43 426 61 525 73 69
151 75 268 21z m-6459 -446 c124 -130 352 -396 373 -438 18 -34 8 -46 -37 -40
-63 8 -189 115 -252 215 -117 185 -155 258 -155 300 0 31 11 25 71 -37z m8919
23 c0 -45 -170 -324 -244 -399 -78 -80 -188 -130 -202 -92 -9 23 116 180 323
403 89 96 123 120 123 88z m-6948 -55 c99 -63 187 -225 218 -402 23 -130 -11
-153 -225 -153 -400 -1 -514 169 -302 450 42 55 83 90 142 123 11 5 43 11 71
11 39 0 61 -7 96 -29z m5075 8 c89 -43 215 -221 229 -322 12 -84 -26 -147
-116 -192 -76 -38 -146 -50 -285 -49 -144 0 -209 14 -226 46 -27 50 14 231 78
350 35 65 112 150 155 171 46 23 113 21 165 -4z m672 -701 c11 -51 23 -121 27
-155 l7 -62 -30 8 c-44 13 -71 29 -82 49 -17 32 -73 261 -68 276 3 8 27 21 54
28 l48 14 12 -33 c6 -18 21 -74 32 -125z m-6487 140 c39 -11 40 -12 35 -52 -2
-23 -16 -86 -31 -141 -29 -106 -51 -139 -100 -151 l-29 -7 8 59 c13 114 58
304 72 304 3 0 23 -5 45 -12z m428 -49 c96 -48 229 -172 270 -252 l25 -48 -22
-18 c-47 -39 -293 -78 -416 -66 -105 10 -166 32 -209 75 -31 31 -38 45 -38 77
0 88 69 207 145 250 67 38 144 32 245 -18z m5743 27 c76 -32 159 -160 160
-246 1 -88 -62 -139 -203 -161 -143 -22 -445 24 -470 71 -19 36 91 175 207
263 103 77 227 107 306 73z m227 -1163 c180 -45 260 -75 260 -98 0 -28 -185
-44 -261 -22 -69 20 -208 122 -209 153 0 18 26 13 210 -33z m-6210 22 c0 -24
-115 -112 -177 -135 -50 -19 -70 -21 -143 -15 -104 8 -130 14 -130 29 0 24 69
52 225 92 178 46 225 52 225 29z m1106 -46 c524 -406 1189 -597 2009 -576 501
13 910 97 1278 263 197 88 336 173 565 346 93 70 67 -28 -48 -181 -65 -86
-232 -254 -330 -332 -337 -269 -760 -439 -1245 -500 -148 -19 -532 -16 -684 5
-574 79 -1017 290 -1387 660 -178 178 -306 376 -244 376 4 0 43 -27 86 -61z
m-2071 -23 c66 -20 166 -48 222 -63 77 -21 103 -32 103 -44 0 -50 -195 -60
-321 -17 -107 37 -235 100 -296 144 -27 20 -30 41 -5 46 24 6 153 -23 297 -66z
m8265 51 c0 -13 -7 -18 -100 -75 -69 -43 -194 -94 -285 -117 -110 -27 -255 -7
-255 35 0 12 11 20 37 25 20 3 104 27 187 52 295 89 416 112 416 80z m-2200
-342 c-7 -8 -17 -15 -22 -15 -6 0 -5 7 2 15 7 8 17 15 22 15 6 0 5 -7 -2 -15z
m-657 -493 c15 -14 27 -29 27 -33 0 -23 -280 -175 -305 -166 -7 3 -18 26 -24
52 -11 44 -10 49 13 79 27 36 124 91 182 104 44 10 65 3 107 -36z m-2665 8
c82 -39 112 -69 112 -114 0 -19 -5 -46 -11 -60 l-12 -25 -61 31 c-74 37 -186
110 -210 137 -18 19 -17 21 15 40 47 29 93 26 167 -9z m3833 -56 c20 -12 85
-48 145 -78 82 -42 127 -73 184 -127 113 -108 191 -170 235 -190 22 -9 87 -27
145 -39 190 -40 417 -114 466 -153 25 -19 25 -21 9 -33 -48 -36 -464 24 -578
83 -25 12 -127 93 -157 123 -10 10 -115 87 -140 103 -14 9 -65 30 -115 48 -82
29 -96 39 -160 103 -73 74 -131 166 -121 192 6 16 16 13 87 -32z m-5131 13 c0
-32 -70 -135 -132 -193 -41 -39 -75 -59 -148 -87 -96 -38 -158 -78 -319 -208
-95 -77 -152 -99 -329 -129 -191 -33 -342 -33 -342 -1 0 30 263 122 486 171
165 36 196 53 345 196 93 90 119 109 225 162 65 34 137 72 159 86 49 31 55 32
55 3z m1143 -265 c-3 -70 -93 -227 -258 -449 -97 -132 -115 -175 -115 -274 0
-152 -21 -512 -35 -604 -36 -233 -106 -360 -154 -283 -39 63 -44 114 -48 487
-3 200 -2 374 1 386 3 13 41 63 84 111 140 161 161 194 212 344 32 93 64 145
139 224 77 80 116 107 151 104 23 -3 25 -7 23 -46z m2866 13 c36 -18 124 -114
158 -172 14 -24 38 -81 54 -125 36 -105 85 -187 172 -288 40 -45 82 -97 95
-114 l23 -31 -3 -405 c-3 -362 -6 -410 -22 -452 -21 -57 -31 -64 -61 -48 -83
44 -125 276 -141 775 -7 248 -9 253 -126 410 -175 235 -260 391 -243 445 8 24
52 27 94 5z"/>
</g>
</svg>
