<?xml version="1.0" standalone="no"?>
<!DOCTYPE svg PUBLIC "-//W3C//DTD SVG 20010904//EN"
 "http://www.w3.org/TR/2001/REC-SVG-20010904/DTD/svg10.dtd">
<svg version="1.0" xmlns="http://www.w3.org/2000/svg"
 width="2048.000000pt" height="2048.000000pt" viewBox="0 0 2048.000000 2048.000000"
 preserveAspectRatio="xMidYMid meet">
<metadata>
Created by potrace 1.13, written by Peter Selinger 2001-2015
</metadata>
<g transform="translate(0.000000,2048.000000) scale(0.192120,-0.192120)"
fill="#000000" stroke="none">
<path d="M5296 10308 c-64 -98 -154 -626 -206 -1213 -20 -225 -16 -212 -64
-234 -78 -34 -190 -115 -266 -191 l-75 -76 -49 30 c-56 35 -149 46 -219 27
-112 -32 -197 -146 -197 -265 0 -109 63 -205 165 -252 27 -13 65 -24 83 -24
30 0 32 -2 32 -35 0 -138 77 -282 193 -360 l50 -34 -32 -18 c-18 -10 -63 -40
-99 -67 l-66 -49 -226 7 c-354 11 -609 43 -790 98 -85 26 -210 91 -245 128
-53 55 -46 155 36 578 84 437 87 580 14 729 -61 124 -121 164 -696 466 -428
225 -594 323 -714 424 -77 63 -95 73 -142 73 -75 0 -133 -60 -133 -137 0 -51
26 -91 100 -152 133 -111 312 -218 740 -443 526 -277 588 -316 611 -385 18
-55 5 -211 -36 -429 -80 -424 -86 -466 -87 -589 0 -163 21 -231 98 -314 178
-192 534 -296 1086 -318 l167 -6 -20 -39 c-11 -21 -17 -38 -15 -38 3 0 116 18
252 40 229 37 274 41 337 23 27 -7 23 -95 -9 -163 -58 -124 -251 -337 -466
-514 -60 -48 -108 -90 -108 -93 0 -9 51 -96 67 -114 12 -15 1 -24 -99 -92
-234 -156 -485 -366 -772 -647 -346 -339 -587 -634 -688 -846 -68 -142 -65
-190 57 -860 122 -663 166 -974 168 -1194 2 -131 1 -138 -35 -242 -89 -256
-263 -570 -562 -1007 -253 -373 -497 -683 -668 -853 -117 -117 -118 -118 -118
-164 0 -117 119 -183 216 -118 176 117 637 701 956 1209 247 394 403 711 464
945 54 204 24 528 -126 1354 -140 774 -140 767 -81 868 213 364 1003 1130
1423 1380 l66 39 51 -36 50 -36 -60 -72 c-202 -239 -399 -620 -527 -1017 -111
-346 -155 -647 -134 -914 44 -536 254 -1256 523 -1796 227 -453 460 -722 705
-812 83 -31 225 -31 308 0 246 90 478 358 705 812 269 539 477 1251 522 1792
18 215 -3 429 -71 699 -117 466 -345 946 -590 1237 l-59 71 51 36 50 37 62
-38 c156 -94 389 -275 586 -453 380 -343 764 -772 859 -958 37 -73 30 -129
-90 -788 -157 -859 -189 -1197 -135 -1406 103 -396 533 -1121 1042 -1756 135
-168 307 -350 371 -392 57 -38 106 -40 154 -8 47 31 73 86 64 137 -6 34 -24
57 -119 152 -190 192 -461 545 -741 968 -256 385 -404 658 -482 885 -36 105
-37 116 -37 235 2 217 40 494 160 1153 137 755 137 769 55 931 -104 206 -295
440 -626 771 -322 323 -567 532 -820 700 l-114 76 40 61 c21 34 39 66 38 72 0
6 -44 46 -99 89 -54 44 -147 127 -207 185 -200 197 -293 335 -293 437 0 43 4
55 18 58 62 18 107 15 337 -23 136 -22 249 -40 251 -40 2 0 -4 17 -15 38 l-20
39 167 6 c553 22 913 128 1089 321 117 128 126 285 38 735 -77 401 -90 532
-60 609 23 58 93 100 600 367 525 276 766 431 826 528 54 90 -10 207 -114 207
-47 0 -65 -10 -142 -73 -119 -100 -284 -198 -704 -419 -589 -310 -645 -347
-706 -471 -73 -149 -70 -292 14 -729 57 -293 76 -428 69 -500 -5 -46 -11 -57
-46 -88 -146 -130 -473 -199 -1022 -216 l-225 -7 -66 49 c-36 27 -81 57 -99
67 l-33 18 50 34 c114 76 193 225 193 360 0 33 2 35 33 35 43 0 125 40 165 80
49 49 74 106 80 183 4 61 2 73 -28 133 -53 109 -146 160 -274 152 -50 -3 -75
-11 -114 -35 l-50 -31 -46 53 c-57 66 -184 163 -270 205 l-65 32 -5 52 c-4 28
-15 146 -27 261 -54 552 -131 1002 -187 1100 -23 38 -56 44 -76 13z m77 -1440
c68 -114 230 -254 363 -313 89 -40 123 -42 189 -11 32 14 62 23 67 20 20 -13
96 -141 122 -206 24 -62 55 -212 45 -222 -3 -3 -35 -10 -72 -16 -64 -10 -128
-40 -154 -71 -10 -13 -71 -120 -150 -264 -18 -33 -33 -73 -33 -88 0 -30 29
-94 66 -142 37 -49 35 -79 -4 -99 -43 -22 -183 -153 -214 -200 -40 -58 -38
-122 5 -229 19 -45 45 -101 60 -124 43 -67 176 -222 256 -298 82 -77 90 -86
156 -164 34 -42 60 -61 107 -81 34 -14 63 -31 65 -36 4 -12 -94 -124 -109
-124 -5 0 -23 11 -40 25 -54 46 -117 27 -210 -63 -104 -100 -91 -158 108 -476
202 -320 341 -655 423 -1012 19 -84 21 -122 21 -472 0 -301 -3 -397 -16 -463
-18 -101 -89 -406 -109 -469 -169 -550 -310 -883 -492 -1160 -136 -206 -233
-306 -353 -363 -179 -86 -366 -5 -563 243 -97 123 -275 452 -372 690 -108 265
-242 710 -295 977 -40 205 -42 240 -37 593 4 384 5 387 92 665 69 221 189 491
293 660 225 365 250 417 237 497 -6 33 -20 54 -66 100 -90 91 -149 106 -200
52 -12 -13 -28 -24 -35 -24 -13 0 -114 108 -114 123 0 4 24 19 53 32 56 25
137 90 137 111 0 7 34 43 75 81 192 173 334 361 384 508 36 106 37 119 12 177
-21 48 -151 181 -218 222 -24 14 -43 32 -43 39 0 6 10 28 22 47 41 68 68 128
68 154 0 26 -46 127 -80 176 -10 14 -34 57 -55 97 -62 118 -92 140 -217 158
-41 5 -48 9 -48 29 0 45 22 143 47 206 26 64 101 192 122 204 5 4 34 -5 62
-20 75 -37 143 -27 249 40 112 71 156 105 199 156 25 30 51 61 58 68 7 7 27
33 44 57 18 25 40 45 50 45 10 0 28 -19 42 -42z m-885 -1420 c32 -32 0 -83
-70 -113 -53 -22 -61 -19 -44 13 17 32 84 112 95 112 4 0 12 -5 19 -12z m1747
-30 c44 -51 70 -98 55 -98 -39 0 -140 68 -140 94 0 12 30 46 41 46 4 0 24 -19
44 -42z M3510 7070 c-991 -168 -1911 -347 -2384 -466 -371 -93 -532 -152 -607
-223 -38 -37 -39 -39 -35 -98 4 -80 40 -144 126 -229 182 -179 519 -342 890
-431 154 -36 351 -63 466 -63 l101 0 -8 49 c-9 59 -30 94 -65 110 -14 6 -104
23 -200 36 -188 27 -389 75 -524 125 -109 40 -257 113 -292 143 -58 50 -29 67
118 67 134 0 371 19 624 51 291 36 348 47 352 66 2 11 53 25 190 53 103 21
194 40 202 43 10 4 16 1 16 -8 0 -8 4 -15 8 -15 20 0 360 92 387 104 112 53
177 75 395 137 315 90 782 235 835 259 22 10 72 30 109 44 119 45 309 159 361
216 17 19 14 19 -51 -6 -144 -56 -749 -256 -994 -327 -486 -143 -1004 -279
-1260 -331 -519 -105 -1190 -167 -1505 -137 -126 11 -206 29 -208 46 -2 22 86
74 170 100 48 14 102 31 118 36 113 34 668 163 940 218 221 45 965 185 1360
257 531 96 620 117 710 167 47 27 62 67 23 66 -13 0 -178 -27 -368 -59z M6770
7107 c0 -18 11 -29 43 -45 114 -56 189 -73 857 -192 531 -94 1373 -260 1635
-321 281 -66 565 -139 647 -166 79 -26 168 -87 151 -104 -19 -19 -154 -39
-303 -45 -327 -13 -895 42 -1353 132 -575 113 -1728 447 -2342 680 -16 6 -15
2 8 -23 52 -56 293 -185 427 -228 30 -10 57 -21 60 -25 6 -10 386 -128 755
-235 264 -77 363 -109 420 -135 79 -36 124 -51 230 -78 178 -45 175 -44 175
-29 0 10 35 6 152 -19 84 -18 176 -36 205 -40 41 -5 53 -10 53 -24 0 -15 21
-21 133 -38 289 -46 524 -70 789 -80 97 -4 180 -11 184 -14 15 -16 -9 -55 -49
-80 -148 -93 -456 -193 -712 -232 -55 -8 -132 -19 -172 -25 -120 -18 -148 -40
-162 -132 l-8 -49 101 0 c461 1 1100 235 1365 500 81 81 114 143 119 225 4 61
4 61 -38 99 -49 44 -125 81 -260 125 -321 104 -997 251 -1958 426 -376 68
-1119 195 -1142 195 -6 0 -10 -10 -10 -23z M4038 6466 c-21 -8 -48 -20 -60
-28 -13 -8 -59 -34 -103 -58 -44 -23 -105 -56 -135 -73 -372 -206 -668 -342
-974 -447 -99 -34 -192 -70 -208 -81 -37 -27 -55 -64 -64 -127 -8 -61 -11 -60
102 -32 416 107 917 341 1354 633 169 113 240 165 240 177 0 17 -58 50 -87 50
-15 -1 -45 -7 -65 -14z M6484 6449 c-19 -21 -19 -21 11 -46 54 -43 397 -268
510 -333 210 -121 475 -248 690 -330 186 -70 458 -150 471 -137 10 10 -9 107
-27 136 -22 36 -86 71 -189 102 -248 74 -577 220 -953 423 -109 58 -199 106
-202 106 -3 0 -28 15 -57 32 -109 68 -217 87 -254 47z M2400 5579 c-19 -5 -81
-12 -137 -15 -82 -6 -104 -10 -107 -23 -9 -29 -54 -321 -91 -581 -50 -357 -74
-478 -96 -498 -10 -9 -87 -55 -171 -101 -456 -252 -730 -443 -954 -666 -121
-121 -177 -191 -249 -309 -56 -91 -68 -152 -41 -205 49 -93 193 -93 244 0 171
314 457 553 1089 910 251 142 278 161 314 218 55 86 81 208 154 711 25 173 57
371 70 440 14 69 25 126 25 128 0 3 -9 1 -50 -9z M8210 5588 c0 -2 11 -59 25
-128 13 -69 47 -282 75 -475 57 -388 88 -550 120 -621 45 -102 46 -103 435
-324 519 -295 813 -542 977 -823 45 -78 84 -107 143 -107 83 0 141 65 133 150
-11 110 -207 365 -421 548 -223 191 -439 333 -852 563 -82 46 -153 88 -157 94
-17 24 -50 200 -93 495 -49 339 -83 554 -91 583 -4 14 -17 17 -62 17 -52 0
-152 12 -209 25 -13 3 -23 4 -23 3z"/>
</g>
</svg>
