<?xml version="1.0" standalone="no"?>
<!DOCTYPE svg PUBLIC "-//W3C//DTD SVG 20010904//EN"
 "http://www.w3.org/TR/2001/REC-SVG-20010904/DTD/svg10.dtd">
<svg version="1.0" xmlns="http://www.w3.org/2000/svg"
 width="2048.000000pt" height="2048.000000pt" viewBox="0 0 2048.000000 2048.000000"
 preserveAspectRatio="xMidYMid meet">
<metadata>
Created by potrace 1.13, written by Peter Selinger 2001-2015
</metadata>
<g transform="translate(0.000000,2048.000000) scale(0.192120,-0.192120)"
fill="#000000" stroke="none">
<path d="M3592 10169 c-30 -5 -84 -20 -120 -33 -37 -13 -119 -42 -182 -64 -63
-23 -218 -71 -345 -108 -300 -87 -479 -151 -645 -230 -201 -97 -276 -152 -438
-318 -256 -265 -422 -494 -552 -761 -177 -364 -250 -715 -237 -1150 6 -216 24
-353 72 -541 47 -183 90 -294 215 -554 210 -435 396 -922 535 -1395 33 -116
75 -222 141 -363 54 -115 186 -346 204 -357 32 -20 -24 -25 -263 -25 -144 0
-323 -5 -397 -10 -128 -9 -139 -12 -215 -50 -94 -46 -276 -180 -334 -246 -44
-50 -72 -124 -64 -167 3 -15 16 -36 30 -47 28 -22 61 -14 102 23 l23 22 -21
-42 c-25 -49 -27 -76 -7 -92 18 -15 46 -3 95 43 28 26 32 27 22 8 -7 -13 -11
-37 -9 -55 5 -53 42 -48 198 26 235 113 420 171 540 170 60 0 107 -10 235 -48
282 -85 405 -114 478 -115 82 0 112 14 153 72 42 58 114 176 114 187 0 4 -24
21 -52 36 -198 106 -420 298 -640 550 -12 15 -24 64 -38 160 -26 172 -20 147
-91 395 -124 437 -318 943 -549 1429 -96 204 -155 360 -196 521 -27 104 -27
110 -31 505 -4 421 -3 448 43 634 100 407 405 875 775 1191 164 139 412 244
953 400 99 29 184 56 190 61 26 21 232 119 290 139 89 29 214 42 300 30 88
-13 106 -19 281 -87 152 -61 330 -100 579 -128 71 -8 132 -19 135 -24 3 -5 38
-12 76 -16 254 -24 467 -80 643 -169 162 -82 302 -181 302 -215 0 -10 11 -28
24 -40 37 -34 47 -92 44 -236 l-3 -130 -40 -7 c-115 -23 -385 -42 -505 -37
-60 2 -64 2 -260 -6 -74 -3 -158 -5 -186 -5 -34 1 -75 -9 -125 -28 -41 -16
-90 -32 -111 -36 -48 -9 -255 -107 -341 -162 -127 -82 -206 -171 -227 -257
-11 -43 -3 -96 26 -164 3 -6 -12 -23 -33 -37 -55 -38 -101 -34 -318 29 -293
84 -384 91 -428 33 -15 -21 -17 -29 -7 -44 48 -76 493 -335 625 -364 56 -13
127 2 257 53 l67 26 31 -48 c41 -65 63 -83 91 -77 13 3 48 9 77 15 29 6 78 18
110 28 54 16 110 18 312 12 88 -2 172 -2 210 1 38 3 98 3 175 0 28 -1 117 3
200 10 169 13 198 7 193 -39 -2 -18 -13 -31 -38 -42 -33 -15 -199 -53 -285
-64 -22 -3 -62 -10 -90 -15 -71 -13 -224 -28 -415 -40 -190 -12 -319 -25 -440
-45 -149 -24 -523 -112 -575 -136 -65 -28 -196 -156 -242 -233 l-35 -60 4
-170 c3 -158 6 -177 32 -251 51 -143 82 -193 180 -290 103 -102 167 -143 298
-192 111 -42 173 -53 304 -53 56 0 137 -7 179 -16 53 -11 101 -14 149 -10 245
21 230 22 366 -23 114 -38 137 -42 261 -48 107 -5 157 -2 234 12 158 28 198
21 378 -69 142 -71 161 -77 272 -96 204 -34 273 -63 432 -186 56 -44 124 -92
153 -109 28 -16 92 -57 143 -89 51 -33 137 -80 192 -106 178 -85 235 -141 327
-325 27 -55 62 -116 76 -135 124 -164 456 -433 683 -554 171 -91 391 -145 539
-131 93 9 200 32 271 61 35 13 65 22 67 19 6 -6 65 29 122 74 67 52 164 157
215 233 52 76 124 239 153 348 27 97 72 335 72 378 0 20 4 31 10 27 17 -10 56
-95 79 -169 20 -64 21 -90 21 -442 0 -228 -4 -392 -11 -423 -16 -75 -130 -295
-203 -391 -35 -47 -142 -176 -238 -285 -95 -110 -199 -233 -231 -273 -65 -81
-103 -104 -344 -205 -412 -174 -931 -307 -1194 -307 -32 0 -59 -4 -59 -8 0 -9
144 -174 193 -221 34 -32 35 -35 21 -57 -31 -47 -20 -106 47 -250 59 -126 98
-241 145 -429 19 -77 61 -225 92 -330 l57 -190 3 -420 c2 -384 1 -424 -16
-470 -16 -45 -21 -50 -57 -58 -57 -12 -723 -3 -757 11 -16 6 -28 18 -28 26 0
7 34 48 75 90 90 92 136 159 176 256 29 72 29 73 29 280 0 179 -4 228 -25 342
-23 129 -67 312 -83 353 -54 133 -158 282 -245 348 -51 38 -170 93 -242 112
-33 8 -140 28 -238 45 -232 40 -448 90 -599 140 -181 60 -225 67 -270 46 -43
-21 -80 -95 -59 -119 20 -25 230 -128 343 -168 164 -59 383 -112 627 -153 240
-40 299 -61 369 -129 24 -23 54 -63 67 -88 43 -84 102 -325 136 -554 18 -120
18 -339 1 -388 -20 -56 -96 -124 -218 -196 -239 -141 -273 -171 -354 -311 -32
-56 -43 -86 -44 -120 -1 -42 2 -46 34 -63 33 -16 84 -17 745 -15 786 3 734 -1
803 69 55 56 72 122 85 319 6 96 11 283 11 415 1 272 -7 329 -75 544 -22 69
-71 245 -109 391 -76 295 -123 436 -172 517 -40 67 -73 96 -135 119 -26 10
-57 23 -67 30 -23 16 -32 12 129 54 401 105 733 252 1055 468 232 156 375 268
529 417 323 313 508 650 561 1021 16 115 13 353 -5 478 -55 368 -215 706 -445
937 -150 150 -302 239 -471 274 -89 19 -344 21 -412 4 -73 -18 -82 -50 -27
-97 32 -27 149 -81 228 -105 104 -32 160 -68 244 -155 112 -116 213 -291 254
-438 25 -95 29 -228 9 -320 -90 -410 -258 -619 -546 -680 -96 -21 -278 -14
-364 14 -284 91 -589 337 -907 732 -74 93 -145 169 -197 212 -356 294 -1029
638 -1485 758 -166 44 -204 48 -546 65 -613 30 -915 64 -1155 131 -212 60
-314 134 -364 263 -47 122 -71 230 -71 323 0 153 29 177 281 233 288 65 527
98 824 115 310 17 603 59 811 115 161 44 219 77 254 145 41 81 44 244 6 317
-16 31 -34 43 -66 43 -13 0 -22 16 -35 63 -22 80 -71 183 -90 191 -25 9 -35
-28 -42 -149 -3 -63 -9 -115 -12 -115 -3 0 -28 47 -55 104 -56 122 -100 179
-116 156 -6 -9 -9 -66 -8 -143 2 -70 0 -127 -4 -127 -4 0 -30 46 -57 103 -28
56 -62 116 -76 132 -24 29 -25 29 -40 11 -11 -15 -15 -49 -15 -143 0 -68 -3
-123 -7 -123 -5 0 -37 56 -71 124 -67 131 -95 167 -113 149 -6 -6 -15 -70 -19
-143 -4 -72 -10 -133 -13 -136 -2 -2 -14 23 -27 57 -29 80 -74 179 -93 203
-14 19 -15 19 -26 -2 -6 -12 -19 -69 -28 -127 -20 -134 -35 -136 -78 -15 -17
47 -36 94 -42 105 -11 19 -13 18 -26 -15 -8 -19 -18 -54 -22 -77 -7 -42 -8
-43 -46 -43 -38 0 -40 2 -64 55 -35 79 -42 75 -69 -47 -4 -18 -16 -29 -37 -37
-18 -6 -33 -11 -35 -11 -2 0 -12 17 -23 38 -24 48 -48 69 -62 55 -5 -5 -15
-40 -21 -77 -13 -81 -25 -90 -100 -76 -123 23 -167 106 -128 244 12 43 24 56
129 143 64 53 123 102 133 110 14 13 22 10 63 -21 26 -20 58 -36 72 -36 l25 0
-4 92 c-2 78 -1 93 13 96 10 2 27 -14 44 -40 54 -84 101 -119 120 -88 4 6 14
52 23 103 16 85 19 92 41 92 20 0 29 -12 57 -79 57 -136 65 -132 108 57 6 23
11 28 32 25 23 -3 30 -14 55 -82 28 -77 44 -106 59 -106 11 0 29 47 49 127 15
61 20 68 43 71 24 3 30 -5 71 -92 27 -56 52 -96 60 -96 17 0 32 35 47 105 20
98 19 96 42 93 17 -2 25 -18 43 -86 12 -46 30 -91 39 -100 16 -16 18 -16 36 5
10 13 28 61 41 108 19 73 25 85 43 85 19 0 23 -9 34 -76 12 -78 29 -125 48
-131 15 -5 32 36 54 130 18 76 30 96 56 97 6 0 22 -39 37 -87 32 -107 48 -133
71 -114 17 14 49 108 60 177 7 38 10 41 49 50 31 7 46 17 60 41 61 106 31 407
-59 591 -29 59 -49 85 -112 138 -220 188 -525 340 -791 393 -53 11 -238 34
-411 51 -472 46 -569 63 -700 120 -116 51 -173 62 -335 66 -82 1 -174 -1 -203
-7z m-1187 -5936 c69 -45 301 -273 316 -311 19 -49 5 -107 -32 -131 -19 -11
-29 -3 -116 81 -103 101 -169 179 -258 303 -56 78 -56 80 -33 87 35 10 78 -1
123 -29z M3698 9884 c-118 -28 -208 -95 -223 -164 -4 -18 -4 -53 0 -78 26
-176 170 -272 409 -272 95 0 199 26 356 89 133 54 390 174 390 183 0 5 -51 8
-112 8 -131 1 -247 19 -304 48 -22 11 -67 48 -99 81 -65 67 -102 88 -190 107
-76 17 -154 16 -227 -2z m219 -69 c63 -29 141 -99 183 -166 46 -70 34 -94 -76
-159 -144 -84 -279 -83 -382 5 -65 55 -92 158 -58 223 56 108 213 153 333 97z
M3764 9769 c-42 -12 -82 -54 -95 -99 -15 -50 2 -100 47 -140 86 -75 224 -10
224 105 0 93 -88 160 -176 134z M4933 6209 c-100 -28 -113 -178 -19 -223 19
-9 44 -16 56 -16 34 0 79 28 100 63 58 94 -30 206 -137 176z M4464 6122 c-106
-50 -119 -204 -23 -273 46 -33 117 -37 166 -10 55 32 76 66 81 131 3 45 0 61
-20 89 -51 75 -127 98 -204 63z M5738 6124 c-79 -42 -74 -160 8 -199 40 -19
56 -19 99 -1 61 26 82 102 45 164 -31 51 -96 67 -152 36z M6334 5892 c-88 -42
-137 -145 -114 -241 45 -188 300 -219 388 -48 50 97 20 215 -70 274 -54 36
-144 42 -204 15z M5258 5846 c-125 -33 -193 -159 -157 -291 15 -56 91 -127
152 -144 146 -41 287 64 287 214 0 155 -134 260 -282 221z M6736 5528 c-54
-15 -121 -82 -136 -137 -32 -119 45 -238 160 -249 77 -7 117 5 165 49 52 48
69 92 63 165 -10 122 -131 204 -252 172z M5981 5382 c-40 -21 -71 -73 -71
-117 0 -44 31 -96 71 -117 66 -35 146 -12 181 53 10 18 18 47 18 64 0 69 -66
135 -135 135 -17 0 -46 -8 -64 -18z M7203 5381 c-62 -39 -82 -125 -43 -188 59
-98 208 -75 241 38 34 111 -100 212 -198 150z M7243 4805 c-67 -29 -94 -126
-53 -193 51 -84 185 -79 232 9 62 116 -56 238 -179 184z M3589 3713 c-6 -16
-33 -77 -62 -136 -56 -120 -43 -111 -128 -92 -30 6 -103 -17 -154 -50 -99 -62
-125 -68 -315 -73 -176 -4 -230 3 -230 31 0 7 18 38 41 68 22 30 49 73 60 97
19 41 19 45 4 68 -9 14 -27 30 -40 36 -20 9 -29 6 -62 -20 -47 -38 -79 -50
-413 -164 -273 -92 -403 -147 -464 -193 -66 -50 -252 -305 -291 -397 -38 -93
-25 -188 30 -224 25 -16 30 -16 54 -3 14 8 36 32 49 54 21 36 23 37 17 11 -17
-77 -16 -82 4 -106 26 -33 45 -22 89 51 27 44 31 48 27 24 -4 -17 -2 -42 4
-57 8 -22 17 -28 40 -28 24 0 48 18 123 91 162 159 347 303 465 363 69 34 145
44 458 56 257 10 364 23 423 54 23 12 39 37 73 115 24 56 46 101 50 101 10 0
250 -92 343 -131 l78 -33 -5 -59 c-7 -80 9 -235 33 -324 41 -150 132 -296 259
-415 144 -136 280 -204 508 -253 90 -20 162 -183 163 -366 0 -143 -72 -362
-221 -665 -92 -188 -120 -220 -269 -303 -256 -145 -360 -255 -360 -384 0 -42
5 -54 33 -82 24 -24 46 -35 78 -40 24 -3 310 -5 634 -3 l590 3 66 32 c80 40
140 102 179 186 31 67 86 317 170 767 84 457 128 803 117 932 -10 114 -82 233
-252 408 -200 208 -342 414 -433 627 l-22 52 -98 30 c-341 105 -1357 371
-1417 371 -9 0 -20 -12 -26 -27z m551 -252 c168 -42 494 -129 574 -152 39 -12
104 -30 145 -41 133 -35 189 -80 285 -235 98 -157 194 -248 384 -363 55 -33
105 -67 112 -75 11 -13 8 -15 -18 -15 -43 0 -248 36 -345 61 -258 65 -513 168
-1094 438 -217 101 -241 115 -233 131 19 36 11 122 -17 188 -31 74 -25 89 31
74 29 -8 36 -8 36 4 0 19 9 18 140 -15z m281 -711 c387 -175 624 -262 899
-330 139 -35 184 -53 205 -84 22 -30 21 -486 -1 -623 -57 -354 -153 -841 -185
-936 -27 -82 -54 -124 -92 -145 -28 -15 -70 -17 -337 -20 -308 -3 -346 1 -357
35 -2 6 26 44 63 85 36 40 86 102 109 138 86 132 206 396 281 620 l39 115 0
205 0 205 -34 79 c-36 83 -123 200 -194 262 -62 53 -113 80 -240 128 -136 52
-226 107 -296 181 -67 71 -120 185 -86 185 2 0 104 -45 226 -100z"/>
</g>
</svg>
