<?xml version="1.0" standalone="no"?>
<!DOCTYPE svg PUBLIC "-//W3C//DTD SVG 20010904//EN"
 "http://www.w3.org/TR/2001/REC-SVG-20010904/DTD/svg10.dtd">
<svg version="1.0" xmlns="http://www.w3.org/2000/svg"
 width="2048.000000pt" height="2048.000000pt" viewBox="0 0 2048.000000 2048.000000"
 preserveAspectRatio="xMidYMid meet">
<metadata>
Created by potrace 1.13, written by Peter Selinger 2001-2015
</metadata>
<g transform="translate(0.000000,2048.000000) scale(0.192120,-0.192120)"
fill="#000000" stroke="none">
<path d="M3105 10083 c-366 -31 -678 -133 -941 -309 -106 -70 -265 -221 -343
-325 -99 -131 -183 -303 -225 -460 -17 -62 -22 -69 -97 -134 -228 -198 -413
-479 -513 -778 -152 -457 -108 -1042 106 -1405 53 -89 171 -203 253 -243 65
-32 77 -34 167 -34 118 0 129 8 136 90 l5 56 78 39 c206 104 450 303 600 490
l36 44 109 -91 c300 -250 428 -441 465 -694 12 -82 10 -130 -11 -399 -14 -164
-8 -625 10 -785 140 -1283 799 -2271 1875 -2809 199 -99 547 -231 753 -286
l42 -11 0 -299 0 -300 -367 0 c-347 0 -370 -1 -400 -20 -66 -40 -86 -107 -52
-176 17 -37 31 -51 68 -67 43 -19 60 -20 298 -15 139 3 253 4 253 1 0 -3 -79
-82 -175 -177 -148 -146 -175 -177 -181 -208 -9 -54 2 -86 45 -130 34 -34 44
-38 88 -38 39 0 58 6 89 29 21 16 169 159 328 319 l288 290 -4 361 c-2 198 -1
361 2 361 4 0 71 -11 151 -24 234 -40 374 -49 641 -42 134 3 260 8 281 12 l37
6 0 -241 0 -241 -367 0 c-347 0 -370 -1 -400 -20 -89 -54 -94 -172 -9 -233 30
-21 37 -22 304 -21 149 0 272 -1 272 -3 0 -2 -76 -78 -170 -169 -130 -128
-173 -175 -181 -204 -28 -94 35 -180 131 -180 25 0 52 5 60 10 8 5 154 148
324 317 l309 308 1 364 1 365 97 28 c338 97 654 280 910 526 l87 84 28 -33
c524 -633 1063 -1040 1378 -1042 116 0 156 34 140 121 -30 167 -370 841 -773
1532 -1163 1995 -2515 3912 -3512 4980 -161 172 -189 208 -350 450 -157 236
-303 440 -396 556 -396 493 -802 773 -1264 872 -156 34 -365 48 -515 35z m465
-267 c343 -73 627 -241 926 -548 271 -277 551 -636 656 -838 84 -163 225 -334
520 -630 90 -91 220 -228 289 -306 587 -659 916 -1099 1509 -2019 106 -165
286 -442 398 -615 398 -612 778 -1228 1084 -1756 160 -275 196 -342 326 -609
49 -99 128 -256 175 -349 74 -144 87 -176 87 -217 0 -27 -5 -49 -10 -49 -20 0
-116 53 -195 108 -154 107 -288 226 -570 504 -183 180 -286 235 -375 198 -17
-7 -33 -11 -35 -8 -3 2 -41 126 -85 274 -573 1912 -1371 3424 -2205 4177 -285
257 -566 429 -870 533 -174 59 -265 68 -362 35 -382 -129 -730 -702 -835
-1376 -32 -203 -32 -579 0 -780 48 -306 131 -564 273 -847 146 -291 312 -520
599 -827 669 -713 1386 -1184 2067 -1355 247 -61 329 -71 613 -71 223 0 271 3
384 23 70 13 136 25 145 28 9 2 -42 -25 -114 -61 -135 -67 -322 -133 -510
-180 -139 -35 -194 -63 -271 -136 -33 -33 -69 -59 -79 -59 -10 0 -33 12 -52
26 -72 55 -104 62 -308 69 -367 12 -599 45 -880 127 -67 20 -246 103 -350 163
-480 279 -888 717 -1152 1240 -196 386 -292 733 -427 1540 -11 69 5 -309 20
-439 121 -1102 732 -2017 1677 -2510 104 -55 187 -92 422 -190 34 -14 36 -16
10 -11 -17 3 -57 6 -88 6 -65 1 -98 -15 -122 -61 -18 -35 -17 -35 -99 -14 -63
16 -64 16 -69 56 -11 81 -78 138 -252 213 -732 314 -1062 530 -1459 955 -49
52 -107 120 -130 150 -22 30 -44 60 -48 65 -5 6 -34 45 -66 87 -31 43 -82 110
-112 150 -165 218 -270 413 -376 701 -44 119 -130 415 -122 422 2 3 17 -35 32
-83 128 -397 366 -791 561 -931 l48 -35 -7 35 c-69 341 -74 797 -16 1277 25
204 76 469 116 605 8 27 -15 20 -50 -15 -108 -109 -191 -586 -203 -1161 -3
-158 -10 -290 -15 -293 -5 -3 -15 0 -23 6 -12 10 -15 9 -15 -6 -1 -37 -70 58
-126 171 -119 245 -192 506 -246 880 -18 131 -22 214 -27 650 l-6 500 -30 60
c-18 35 -65 95 -115 148 -50 54 -76 87 -64 83 119 -37 404 -57 545 -37 239 34
468 134 598 260 77 75 79 156 5 221 -28 24 -44 30 -80 30 -52 0 -65 -6 -144
-66 -76 -58 -205 -119 -305 -144 -190 -48 -430 -33 -595 37 -104 45 -169 49
-217 16 -38 -28 -43 -28 -43 -5 0 11 -14 47 -31 80 -24 50 -43 71 -92 106
-114 80 -139 89 -267 96 -129 6 -141 11 -234 104 -45 45 -106 148 -106 180 0
20 -54 133 -131 276 -37 69 -82 168 -100 220 l-33 95 -4 267 -4 268 50 107
c28 60 62 139 76 177 173 460 560 753 1111 840 153 24 158 24 345 21 138 -3
199 -9 290 -29z m-2033 -1143 c-4 -60 -5 -162 -2 -228 15 -331 100 -574 290
-831 15 -20 14 -27 -19 -105 -93 -228 -140 -450 -153 -728 l-6 -140 -71 -6
c-78 -7 -144 -2 -174 14 -10 6 -43 37 -73 69 -85 91 -150 231 -184 394 -22
104 -21 681 1 779 29 126 82 260 211 529 67 141 181 360 186 360 1 0 -1 -48
-6 -107z m365 -1150 c7 -17 281 -267 328 -300 27 -19 25 -32 -7 -44 -66 -25
-128 -62 -229 -139 -60 -45 -121 -88 -136 -96 l-28 -15 0 128 c0 95 5 150 21
213 11 47 23 124 26 173 5 76 14 104 25 80z m3214 -18 c473 -130 946 -504
1420 -1125 531 -695 1082 -1843 1482 -3085 109 -338 122 -387 122 -471 0 -55
-4 -74 -18 -87 -30 -27 -125 -66 -229 -94 -94 -26 -109 -27 -353 -27 -224 -1
-271 2 -383 22 -586 106 -1171 412 -1742 912 -157 137 -488 468 -596 595 -322
381 -512 725 -615 1115 -64 245 -69 291 -69 720 0 378 1 399 23 500 13 57 32
131 42 165 10 33 30 105 45 160 28 101 45 132 159 302 200 297 363 421 556
422 40 1 100 -9 156 -24z m2098 -5535 c-6 -6 -48 -17 -93 -26 -74 -14 -85 -14
-98 -1 -14 13 -9 16 38 25 76 14 166 15 153 2z M2456 8925 c-105 -40 -180
-148 -180 -259 1 -157 120 -276 274 -275 114 0 193 46 244 139 75 137 21 311
-119 382 -52 27 -165 34 -219 13z"/>
</g>
</svg>
