<?xml version="1.0" standalone="no"?>
<!DOCTYPE svg PUBLIC "-//W3C//DTD SVG 20010904//EN"
 "http://www.w3.org/TR/2001/REC-SVG-20010904/DTD/svg10.dtd">
<svg version="1.0" xmlns="http://www.w3.org/2000/svg"
 width="2048.000000pt" height="2048.000000pt" viewBox="0 0 2048.000000 2048.000000"
 preserveAspectRatio="xMidYMid meet">
<metadata>
Created by potrace 1.13, written by Peter Selinger 2001-2015
</metadata>
<g transform="translate(0.000000,2048.000000) scale(0.192120,-0.192120)"
fill="#000000" stroke="none">
<path d="M2161 10254 c-12 -15 -21 -31 -21 -36 0 -44 302 -596 381 -697 l19
-24 0 24 c0 13 -12 51 -26 84 -40 94 -39 95 9 12 55 -94 113 -167 133 -167 49
0 -39 337 -137 520 -17 32 -46 74 -64 94 -18 20 -31 36 -28 36 14 0 63 -33 89
-62 77 -81 149 -302 169 -518 9 -102 25 -147 66 -194 45 -51 94 -74 246 -115
196 -53 337 -116 483 -214 166 -112 346 -326 444 -527 115 -235 190 -517 206
-770 5 -80 14 -190 19 -245 6 -55 20 -239 31 -410 36 -537 65 -699 159 -880
43 -84 142 -191 209 -228 104 -56 187 -56 827 8 997 99 1601 116 2143 60 573
-59 971 -198 1298 -451 163 -126 304 -306 304 -387 0 -35 -2 -37 -20 -27 -11
6 -20 15 -20 20 0 5 -22 27 -50 49 -45 36 -53 38 -86 31 -87 -20 -171 -154
-203 -325 -26 -136 -28 -158 -56 -665 -52 -932 -102 -1574 -166 -2140 -64
-576 -199 -1308 -253 -1380 -6 -8 -23 -16 -38 -18 l-28 -3 0 826 c0 856 -4
950 -46 1213 -22 138 -69 314 -105 395 -76 168 -204 285 -338 308 -118 21
-219 -5 -809 -210 -573 -199 -956 -286 -1472 -332 -69 -6 -280 -12 -470 -13
-322 -1 -348 -2 -385 -21 -42 -21 -185 -156 -185 -175 0 -7 -8 -24 -19 -38
-14 -21 -27 -94 -55 -302 -79 -586 -157 -1068 -216 -1340 -29 -133 -83 -268
-105 -263 -6 2 -12 184 -16 505 -4 277 -9 519 -12 538 -4 19 -14 100 -22 180
-32 291 -102 651 -179 923 -73 254 -86 276 -301 497 -213 219 -253 272 -364
481 -90 172 -160 392 -213 669 -21 110 -22 146 -25 825 -3 572 -1 750 12 918
10 140 15 345 15 632 0 520 6 493 -136 631 l-93 91 82 6 c429 33 605 323 423
694 -72 145 -71 146 -71 -34 0 -179 -17 -258 -76 -346 -57 -87 -199 -184 -351
-241 l-65 -25 -29 56 c-33 64 -80 102 -163 134 -163 61 -580 155 -736 165 -73
5 -103 3 -160 -14 -38 -11 -81 -22 -95 -25 -24 -6 -24 -6 -5 9 11 8 29 21 39
28 13 8 17 19 13 29 -7 20 -66 22 -136 6 -57 -13 -102 9 -154 77 -50 64 -127
222 -127 260 0 37 34 75 95 104 65 32 117 83 113 112 -8 57 -169 84 -253 43
-58 -29 -66 -54 -56 -166 10 -108 50 -225 135 -404 76 -158 82 -163 263 -191
81 -13 218 -33 303 -44 337 -43 799 -177 913 -264 86 -65 132 -201 146 -433
11 -169 1 -424 -33 -908 -33 -459 -46 -718 -46 -934 1 -886 171 -1494 544
-1938 76 -91 216 -222 289 -271 34 -23 40 -34 71 -136 120 -386 191 -766 238
-1261 7 -75 12 -278 12 -480 0 -283 -4 -381 -20 -510 -10 -88 -19 -187 -19
-220 2 -207 212 -246 373 -70 90 98 117 173 186 510 78 382 156 872 221 1385
39 311 43 335 61 333 119 -12 462 -23 584 -18 680 27 1151 128 1969 422 298
107 418 142 507 150 62 5 79 3 118 -17 42 -20 50 -30 87 -105 122 -252 178
-788 165 -1565 -3 -201 -11 -441 -18 -535 -7 -93 -12 -244 -12 -335 -1 -190
10 -227 82 -292 86 -77 208 -56 306 53 74 81 105 180 195 610 125 603 215
1416 296 2689 23 360 53 944 60 1145 3 99 8 209 12 245 l6 65 22 -105 c68
-312 204 -521 403 -617 64 -31 90 -38 157 -41 90 -5 145 11 165 47 10 19 5 28
-48 79 -76 73 -95 112 -176 362 -123 379 -244 577 -481 789 -153 137 -448 307
-660 381 -438 153 -1047 218 -1772 191 -429 -16 -661 -34 -1328 -102 -159 -16
-364 -32 -455 -36 -160 -5 -166 -5 -193 17 -65 52 -125 231 -152 454 -8 67
-24 261 -35 431 -39 593 -74 844 -156 1134 -130 458 -359 794 -697 1024 -154
105 -384 198 -572 232 -171 30 -158 24 -168 75 -32 175 -120 488 -159 564 -53
104 -247 206 -392 206 -58 0 -67 -3 -85 -26z m224 -333 c8 -24 13 -46 11 -48
-9 -9 -46 124 -45 161 1 38 2 37 10 -14 4 -30 15 -75 24 -99z m35 -96 c0 -5
-5 -3 -10 5 -5 8 -10 20 -10 25 0 6 5 3 10 -5 5 -8 10 -19 10 -25z m54 -111
c3 -8 2 -12 -4 -9 -6 3 -10 10 -10 16 0 14 7 11 14 -7z M1692 10068 c-17 -17
-15 -115 4 -179 41 -139 107 -225 259 -339 148 -110 132 -104 222 -87 43 9 99
18 125 21 46 5 47 5 58 -30 35 -105 129 -127 166 -39 27 66 21 75 -45 75 -58
0 -59 1 -96 46 -33 40 -331 307 -470 421 -69 56 -175 123 -195 123 -9 0 -21
-5 -28 -12z M1976 9409 c-185 -61 -330 -161 -380 -261 -21 -42 -26 -66 -26
-125 0 -84 -10 -101 -81 -126 -24 -9 -89 -33 -144 -53 -103 -37 -285 -119
-285 -128 0 -2 15 0 33 5 51 15 145 13 236 -6 143 -30 225 -9 307 77 56 58 92
117 121 202 31 90 52 114 181 211 124 93 154 132 150 189 -2 22 -7 41 -13 42
-5 2 -50 -11 -99 -27z M2202 9080 c-171 -6 -176 -9 -170 -102 5 -76 40 -127
109 -162 87 -43 165 -31 234 38 52 52 74 124 55 181 -11 33 -20 39 -75 48 -5
1 -75 0 -153 -3z"/>
</g>
</svg>
