<?xml version="1.0" standalone="no"?>
<!DOCTYPE svg PUBLIC "-//W3C//DTD SVG 20010904//EN"
 "http://www.w3.org/TR/2001/REC-SVG-20010904/DTD/svg10.dtd">
<svg version="1.0" xmlns="http://www.w3.org/2000/svg"
 width="2048.000000pt" height="2048.000000pt" viewBox="0 0 2048.000000 2048.000000"
 preserveAspectRatio="xMidYMid meet">
<metadata>
Created by potrace 1.13, written by Peter Selinger 2001-2015
</metadata>
<g transform="translate(0.000000,2048.000000) scale(0.192120,-0.192120)"
fill="#000000" stroke="none">
<path d="M3080 10269 c-275 -34 -505 -111 -783 -265 -136 -74 -194 -113 -282
-190 -404 -349 -783 -948 -994 -1567 -141 -415 -185 -729 -184 -1342 0 -665
70 -1363 203 -2026 105 -519 216 -872 372 -1177 48 -96 102 -213 118 -260 46
-128 93 -312 92 -358 -2 -98 -77 -522 -113 -642 -11 -37 -67 -166 -124 -287
-131 -279 -209 -464 -284 -668 -226 -621 -247 -1044 -56 -1137 40 -20 62 -20
927 -20 l886 0 26 30 c54 65 70 193 63 505 -7 290 -47 685 -103 1012 -9 52
-14 96 -12 98 2 2 49 -14 103 -36 265 -107 709 -218 1057 -263 472 -62 1101
-37 1509 60 l107 25 -13 55 c-24 103 -75 130 -215 114 -47 -5 -134 -16 -195
-24 -221 -29 -430 -39 -733 -33 -463 8 -746 55 -1256 206 -215 64 -273 75
-326 61 -53 -14 -158 -113 -193 -181 -34 -64 -35 -127 -8 -330 42 -307 51
-438 51 -724 0 -276 -3 -315 -21 -315 -5 0 -18 -9 -29 -20 -19 -19 -33 -20
-400 -20 -247 0 -380 -4 -380 -10 0 -5 -16 -10 -36 -10 -35 0 -81 -26 -166
-93 -44 -35 -58 -29 -76 30 -37 123 -24 271 59 676 112 546 113 551 113 757 0
189 -16 340 -80 785 l-24 169 54 56 c84 85 89 102 83 244 -7 177 -63 348 -203
628 -219 437 -372 1059 -491 1998 -27 215 -27 215 -30 1005 -4 769 -3 793 17
919 27 161 65 313 120 476 163 483 455 972 773 1293 48 49 87 93 87 99 0 38
228 195 411 282 290 139 446 175 819 187 140 4 275 13 300 18 203 45 440 -56
666 -285 90 -91 108 -115 155 -211 l54 -108 0 -145 c0 -144 0 -145 -25 -157
-64 -30 -200 -36 -715 -29 -543 7 -683 1 -855 -36 -390 -84 -686 -336 -895
-762 -125 -253 -203 -495 -269 -831 -40 -203 -46 -283 -46 -677 0 -351 2 -397
21 -495 44 -228 151 -484 258 -616 149 -184 339 -305 569 -363 84 -21 104 -23
176 -15 44 6 110 17 146 25 91 22 223 20 343 -5 122 -25 178 -21 326 21 118
34 169 37 290 14 127 -24 260 -15 376 25 113 40 192 48 265 27 228 -66 197
-65 449 -20 139 24 238 12 380 -45 56 -23 154 -52 219 -66 64 -14 146 -35 182
-46 36 -11 124 -26 195 -33 165 -18 218 -38 370 -141 66 -44 142 -91 170 -104
119 -55 251 -161 342 -274 31 -40 78 -95 104 -123 26 -27 54 -64 63 -82 9 -17
52 -80 97 -139 215 -287 438 -654 691 -1138 52 -99 127 -233 166 -298 70 -117
400 -764 462 -907 67 -154 99 -219 185 -369 167 -293 317 -521 454 -689 128
-157 141 -174 141 -189 0 -28 -79 -5 -213 60 -347 171 -643 422 -1065 904
-154 175 -233 250 -348 329 -138 96 -203 95 -302 -4 -87 -88 -102 -124 -102
-240 0 -54 5 -128 11 -167 38 -262 49 -427 49 -736 l0 -316 -38 -27 -38 -26
-371 0 c-237 0 -374 -4 -378 -10 -3 -5 -24 -10 -46 -10 -21 0 -39 -4 -39 -10
0 -5 -6 -10 -14 -10 -8 0 -45 -21 -82 -46 -93 -63 -90 -63 -103 -4 -24 110
-10 259 61 655 40 226 41 235 47 545 4 173 6 317 5 319 -2 2 -15 -6 -31 -17
-82 -58 -272 -136 -428 -177 l-90 -23 -17 -63 c-9 -35 -55 -143 -101 -239
-188 -387 -290 -676 -304 -855 -9 -134 25 -206 117 -249 45 -21 54 -21 1018
-24 l972 -3 24 25 c54 53 82 256 72 506 -13 299 -57 717 -105 1001 -11 62 -18
115 -16 118 2 2 16 0 30 -3 39 -10 161 -132 328 -326 226 -264 389 -441 517
-558 464 -426 898 -649 1420 -728 162 -25 419 -25 481 -1 101 39 144 127 97
197 -41 60 -91 80 -241 95 -246 25 -384 94 -595 299 -116 112 -213 232 -335
412 -193 285 -331 537 -737 1344 -314 624 -428 841 -581 1108 -434 755 -839
1207 -1264 1412 -266 128 -698 251 -1085 309 -485 72 -920 77 -1750 19 -357
-24 -765 -29 -885 -10 -128 21 -194 41 -285 84 -69 33 -101 57 -171 127 -96
96 -151 183 -203 318 -75 194 -105 368 -113 653 -8 308 24 597 101 915 164
670 411 1031 793 1161 199 67 225 68 938 66 695 -3 758 1 871 52 200 92 227
359 69 676 -114 228 -334 455 -540 557 -108 54 -164 67 -420 99 -145 18 -531
26 -635 13z m-1574 -9005 c-49 -242 -68 -347 -86 -474 -7 -47 -16 -92 -21
-100 -12 -20 -26 -50 -33 -73 -5 -15 -14 -16 -78 -11 -40 4 -79 11 -85 17 -9
7 -13 50 -13 154 0 173 20 276 104 528 74 221 151 406 227 545 l24 45 3 -206
2 -206 -44 -219z m4434 159 c0 -181 -3 -216 -41 -452 -31 -199 -46 -269 -67
-313 l-27 -58 -160 7 c-98 4 -163 10 -167 17 -14 21 -8 122 12 194 40 144 241
602 315 718 34 53 76 83 118 84 16 0 17 -16 17 -197z M3691 9868 c-51 -27 -91
-91 -91 -142 0 -51 40 -118 85 -144 105 -60 245 16 245 135 0 132 -126 212
-239 151z M4309 5403 c-104 -64 -59 -213 65 -213 78 0 130 95 92 168 -29 57
-104 78 -157 45z M4995 5378 c-52 -18 -96 -59 -121 -112 -38 -82 -28 -160 32
-226 46 -50 90 -70 158 -70 131 0 214 94 204 230 -10 133 -146 222 -273 178z
M3613 5310 c-41 -24 -53 -48 -53 -102 0 -50 19 -82 60 -103 50 -26 96 -19 138
19 34 31 37 39 37 86 0 47 -3 55 -37 86 -44 40 -94 45 -145 14z M2960 5299
c-126 -51 -135 -236 -14 -294 74 -35 174 -3 211 68 24 47 20 120 -8 162 -41
61 -126 89 -189 64z M5941 5133 c-51 -25 -73 -67 -68 -131 5 -73 44 -113 115
-120 67 -6 113 21 137 80 19 49 14 94 -16 132 -43 55 -106 69 -168 39z M5455
5125 c-83 -29 -145 -132 -130 -214 19 -102 87 -163 189 -169 72 -3 120 19 169
81 61 75 43 212 -34 269 -65 48 -124 58 -194 33z M3958 4996 c-52 -19 -83 -40
-111 -78 -54 -73 -61 -156 -21 -236 71 -143 256 -171 366 -55 38 40 58 94 58
158 0 151 -152 261 -292 211z M4785 4775 c-46 -16 -71 -43 -84 -91 -20 -71 22
-142 97 -165 37 -11 45 -9 89 12 40 20 51 32 67 72 20 47 20 47 0 94 -30 72
-97 103 -169 78z M6416 4780 c-91 -28 -123 -144 -60 -220 50 -59 142 -59 200
1 25 26 29 38 29 89 0 51 -4 63 -29 89 -17 17 -46 36 -65 41 -41 11 -36 11
-75 0z"/>
</g>
</svg>
