<?xml version="1.0" standalone="no"?>
<!DOCTYPE svg PUBLIC "-//W3C//DTD SVG 20010904//EN"
 "http://www.w3.org/TR/2001/REC-SVG-20010904/DTD/svg10.dtd">
<svg version="1.0" xmlns="http://www.w3.org/2000/svg"
 width="2048.000000pt" height="2048.000000pt" viewBox="0 0 2048.000000 2048.000000"
 preserveAspectRatio="xMidYMid meet">
<metadata>
Created by potrace 1.13, written by Peter Selinger 2001-2015
</metadata>
<g transform="translate(0.000000,2048.000000) scale(0.192120,-0.192120)"
fill="#000000" stroke="none">
<path d="M5125 10246 c-725 -314 -1317 -628 -1851 -982 -374 -248 -646 -465
-899 -718 -242 -243 -385 -434 -501 -671 -115 -236 -149 -373 -149 -605 1
-124 5 -176 23 -258 110 -494 451 -1022 1071 -1654 l193 -197 21 -113 c16 -92
20 -156 21 -338 1 -252 -11 -358 -69 -595 -44 -182 -155 -505 -173 -505 -4 0
-54 14 -112 31 -231 67 -417 44 -540 -67 -117 -106 -122 -293 -11 -427 52 -63
121 -119 193 -157 l58 -31 -56 -52 c-31 -29 -92 -77 -135 -108 -171 -124 -322
-156 -494 -104 -110 33 -283 45 -366 25 -117 -28 -195 -84 -240 -175 -29 -60
-31 -71 -27 -142 6 -102 39 -167 127 -253 104 -101 249 -169 451 -212 139 -29
502 -36 700 -13 170 19 386 59 406 75 42 36 241 378 323 557 219 480 317 896
328 1393 7 317 -10 476 -67 648 -133 397 -93 783 118 1157 32 55 58 103 60
107 2 3 -42 66 -96 140 -323 433 -533 836 -588 1126 -44 230 17 529 172 851
182 379 446 724 898 1177 347 347 688 640 1074 924 l142 105 197 1 198 1 105
-76 c398 -287 745 -584 1121 -960 242 -243 396 -416 544 -611 260 -343 438
-694 505 -995 30 -132 36 -309 16 -417 -55 -292 -268 -698 -595 -1136 -50 -67
-91 -124 -91 -126 0 -2 21 -40 46 -83 226 -381 271 -802 128 -1203 -42 -118
-54 -216 -60 -485 -5 -199 -3 -282 10 -405 61 -558 247 -1082 559 -1571 l80
-127 106 -21 c258 -50 324 -56 616 -56 253 1 290 3 385 23 208 46 350 114 455
218 153 150 167 334 36 465 -79 78 -141 101 -291 106 -104 4 -127 1 -233 -26
-180 -47 -269 -40 -412 31 -64 32 -168 107 -250 181 l-50 44 50 26 c113 57
210 149 256 245 33 67 38 183 11 245 -43 97 -145 172 -270 198 -86 18 -218 6
-346 -31 -59 -18 -112 -28 -117 -23 -12 13 -93 235 -133 364 -109 360 -136
757 -75 1107 l12 67 201 205 c590 604 929 1111 1049 1575 120 461 2 885 -377
1359 -105 132 -368 395 -525 526 -445 369 -1013 728 -1701 1075 -349 175 -927
436 -963 434 -7 0 -97 -37 -202 -83z m1995 -1099 c123 -75 405 -270 535 -367
350 -263 660 -570 819 -810 99 -150 131 -214 177 -348 l29 -84 0 -263 c0 -252
-1 -266 -26 -351 -104 -359 -368 -762 -829 -1264 -196 -213 -239 -252 -273
-248 -25 3 -32 16 -100 183 -86 211 -96 239 -88 271 3 12 42 74 85 136 252
360 441 732 511 1008 17 66 20 111 20 292 0 209 -1 215 -34 348 -43 170 -78
260 -181 469 -139 279 -278 477 -633 900 -159 190 -162 221 -12 128z m-3480
35 c0 -12 -58 -90 -121 -162 -64 -74 -132 -158 -253 -310 -270 -342 -468 -710
-563 -1049 -24 -89 -27 -114 -31 -331 -3 -215 -2 -242 18 -319 74 -291 265
-661 536 -1038 72 -101 74 -120 30 -230 -20 -48 -55 -137 -77 -198 -46 -124
-53 -135 -82 -135 -25 0 -166 136 -350 340 -378 417 -630 802 -739 1129 l-42
126 -4 237 c-5 282 5 336 92 513 206 418 684 876 1391 1332 143 92 195 118
195 95z m-473 -5912 c-37 -146 -61 -214 -145 -412 -178 -415 -280 -590 -372
-635 -32 -16 -91 -28 -210 -43 -424 -52 -752 -29 -955 68 -113 54 -164 111
-153 168 9 46 165 56 335 22 123 -25 253 -28 333 -9 30 7 101 35 157 62 163
80 287 208 314 326 14 60 2 101 -37 132 l-24 19 66 84 c91 115 180 251 258
394 l66 121 53 -4 c60 -5 107 11 153 54 47 44 69 81 114 194 23 57 52 120 64
139 l21 35 3 -270 2 -270 -43 -175z m4362 545 c41 -103 64 -148 96 -183 55
-61 124 -88 188 -75 l43 10 74 -136 c77 -138 177 -289 267 -400 l51 -63 -37
-33 c-32 -30 -36 -39 -35 -82 2 -141 195 -327 422 -406 113 -39 233 -42 402
-8 125 25 265 26 294 2 28 -23 20 -77 -18 -118 -137 -152 -547 -207 -1059
-144 -163 21 -222 33 -248 54 -51 40 -192 279 -268 453 -68 156 -149 392 -193
559 l-42 160 -4 273 c-2 149 0 272 5 272 5 0 33 -61 62 -135z m-5099 -460 c0
-19 -21 -33 -41 -28 -21 6 -26 29 -6 36 21 8 47 3 47 -8z m5844 2 c16 -12 16
-14 2 -26 -21 -17 -46 -7 -46 19 0 23 18 26 44 7z M4255 4489 c-151 -23 -277
-88 -390 -203 -89 -90 -152 -198 -182 -316 -22 -88 -22 -254 1 -340 68 -252
278 -453 529 -507 107 -22 260 -14 362 21 276 94 460 338 472 626 6 127 -11
217 -60 322 -111 238 -329 386 -592 402 -44 3 -107 1 -140 -5z m180 -289 c124
-18 246 -90 305 -179 l30 -44 0 -166 c0 -146 -2 -169 -21 -208 -65 -135 -221
-223 -394 -223 -172 0 -341 94 -401 223 -22 48 -24 64 -24 207 l0 155 34 51
c67 99 179 163 320 184 73 11 74 11 151 0z M6205 4491 c-239 -39 -432 -184
-532 -399 -49 -105 -66 -195 -60 -322 12 -289 192 -528 472 -627 72 -25 93
-28 215 -28 144 0 210 14 319 70 170 86 312 266 357 452 22 90 22 248 1 333
-62 241 -261 442 -500 504 -73 19 -207 27 -272 17z m173 -291 c131 -22 237
-82 303 -173 l30 -42 -3 -186 -3 -187 -40 -58 c-72 -103 -188 -162 -335 -171
-189 -12 -357 74 -430 220 -29 58 -30 65 -30 199 0 157 7 182 66 248 72 80
174 133 283 149 79 12 89 12 159 1z M5151 1974 c-135 -22 -295 -76 -441 -150
-164 -83 -270 -155 -437 -295 -395 -332 -579 -458 -923 -630 -618 -309 -1263
-433 -1708 -329 -160 38 -275 106 -334 199 -26 42 -28 51 -28 157 0 130 6 142
91 189 74 40 158 44 342 15 126 -20 155 -21 220 -12 140 21 272 80 427 190
103 73 262 225 326 312 100 136 117 232 50 282 -23 16 -24 16 -85 -57 -173
-206 -361 -365 -526 -445 -166 -80 -257 -89 -429 -45 -202 51 -355 22 -478
-93 -91 -85 -138 -198 -138 -330 0 -148 48 -259 156 -368 286 -288 949 -311
1685 -58 505 173 975 447 1379 804 333 293 622 447 931 496 90 14 108 14 201
0 265 -42 567 -190 813 -399 280 -237 337 -283 450 -364 802 -570 1814 -841
2433 -652 225 69 387 222 438 414 20 73 17 192 -5 264 -25 82 -60 138 -119
193 -123 115 -275 145 -478 93 -172 -44 -263 -35 -429 45 -166 81 -353 239
-528 446 -56 68 -63 73 -82 61 -11 -8 -28 -29 -37 -49 -17 -32 -17 -39 -3 -85
49 -165 346 -453 590 -573 176 -86 279 -102 468 -71 212 35 317 23 384 -44
l33 -33 0 -124 c0 -119 -1 -126 -29 -169 -82 -128 -246 -196 -533 -219 -438
-36 -1045 119 -1578 403 -296 158 -467 277 -790 546 -220 184 -305 243 -470
329 -271 142 -557 197 -809 156z"/>
</g>
</svg>
