<?xml version="1.0" standalone="no"?>
<!DOCTYPE svg PUBLIC "-//W3C//DTD SVG 20010904//EN"
 "http://www.w3.org/TR/2001/REC-SVG-20010904/DTD/svg10.dtd">
<svg version="1.0" xmlns="http://www.w3.org/2000/svg"
 width="2048.000000pt" height="2048.000000pt" viewBox="0 0 2048.000000 2048.000000"
 preserveAspectRatio="xMidYMid meet">
<metadata>
Created by potrace 1.13, written by Peter Selinger 2001-2015
</metadata>
<g transform="translate(0.000000,2048.000000) scale(0.192120,-0.192120)"
fill="#000000" stroke="none">
<path d="M3130 10301 c-71 -23 -141 -83 -175 -150 -40 -80 -29 -205 26 -280
38 -53 64 -106 83 -171 19 -64 39 -231 28 -242 -4 -4 -54 -16 -112 -28 -58
-11 -113 -23 -122 -26 -15 -4 -18 1 -18 30 0 19 -9 80 -19 134 -47 241 -145
441 -296 601 -88 93 -149 125 -240 125 -161 1 -279 -115 -279 -274 0 -86 25
-138 102 -220 66 -69 111 -144 143 -237 22 -63 49 -224 49 -288 l0 -40 -72
-29 c-60 -24 -73 -27 -80 -15 -120 207 -192 303 -323 434 -202 203 -452 331
-686 352 -85 7 -151 -14 -214 -69 -60 -53 -87 -107 -93 -189 -4 -53 0 -75 17
-114 48 -108 109 -155 232 -179 147 -28 251 -88 371 -214 71 -74 173 -214 213
-291 l17 -34 -69 -69 -70 -70 -114 56 c-203 99 -356 136 -559 136 -131 0 -249
-19 -307 -48 -126 -66 -183 -228 -125 -357 28 -60 62 -98 122 -133 49 -29 37
-28 310 -20 124 3 199 -16 343 -88 68 -35 87 -49 83 -62 -12 -42 -26 -138 -32
-232 l-7 -102 -39 6 c-59 10 -242 -11 -348 -39 -133 -36 -292 -116 -357 -181
-89 -88 -107 -214 -47 -325 50 -91 136 -141 242 -141 56 0 75 5 165 51 140 70
210 85 367 77 69 -3 136 -8 150 -12 17 -4 37 -25 63 -71 22 -35 67 -100 102
-143 l64 -79 -114 -55 c-267 -128 -461 -305 -580 -529 -53 -99 -77 -184 -68
-241 26 -173 195 -282 357 -231 82 26 135 77 185 179 91 184 251 304 530 396
181 60 162 61 271 -16 52 -37 153 -106 224 -152 l128 -84 -67 -30 c-287 -126
-529 -361 -634 -612 -53 -128 -40 -232 43 -324 102 -113 299 -113 401 -1 19
21 51 72 70 114 39 81 115 172 195 230 100 74 273 148 443 191 113 29 87 38
212 -74 69 -63 255 -261 255 -273 0 -4 -19 -9 -42 -13 -61 -10 -205 -59 -290
-100 -165 -78 -326 -208 -428 -346 -64 -87 -82 -131 -83 -205 -2 -206 218
-342 401 -249 45 23 69 46 115 107 99 131 223 207 423 258 61 15 137 29 169
31 l59 3 63 -120 c68 -131 166 -346 160 -352 -3 -2 -44 -10 -93 -19 -266 -46
-510 -175 -685 -362 -97 -103 -123 -155 -123 -243 0 -189 175 -318 359 -265
51 15 68 28 149 110 99 100 165 143 277 181 82 28 213 55 269 55 l37 0 68
-235 c38 -129 66 -237 64 -239 -2 -2 -51 -22 -109 -45 -322 -125 -565 -338
-697 -611 -31 -64 -37 -86 -37 -145 -1 -159 116 -278 273 -278 123 0 200 55
272 194 51 97 118 169 220 235 69 45 211 114 234 114 6 0 26 -46 44 -102 18
-57 49 -143 68 -193 33 -86 33 -91 16 -103 -10 -7 -54 -36 -98 -64 -268 -171
-455 -402 -540 -668 -37 -115 -38 -189 -1 -263 52 -107 152 -164 270 -155 125
10 209 84 250 220 33 108 80 186 164 271 61 61 208 174 217 166 2 -2 34 -51
72 -109 38 -58 93 -134 123 -169 49 -58 52 -66 39 -85 -87 -136 -148 -272
-187 -415 -22 -83 -26 -117 -26 -256 -1 -105 4 -176 12 -205 20 -67 71 -131
133 -165 47 -26 64 -30 134 -30 92 0 137 19 196 82 67 70 74 91 75 253 2 158
16 225 75 342 l29 57 112 -54 c96 -47 113 -58 112 -77 0 -13 -7 -70 -14 -128
-23 -190 5 -393 80 -573 58 -140 134 -207 251 -223 102 -14 218 48 273 146 26
46 30 65 30 125 0 57 -5 83 -31 141 -43 96 -52 141 -53 264 0 164 -16 150 171
150 l159 0 5 -27 c15 -68 69 -231 101 -300 92 -202 289 -421 421 -469 120 -42
275 22 335 139 29 58 35 151 13 217 -15 44 -35 70 -120 154 -84 83 -109 114
-138 176 -40 84 -80 211 -75 235 2 9 36 31 78 49 41 18 106 51 145 73 l70 40
37 -89 c122 -298 335 -537 583 -655 54 -25 97 -38 136 -41 243 -18 388 270
228 451 -26 30 -69 62 -118 87 -168 88 -285 248 -370 509 l-31 95 58 60 c31
34 79 85 105 115 l47 53 42 -48 c167 -195 392 -353 609 -427 175 -60 390 -73
475 -29 85 44 154 154 154 247 0 140 -130 274 -265 275 -213 1 -417 125 -624
378 -28 35 -51 66 -51 70 0 13 202 407 209 407 3 0 53 -24 111 -52 350 -171
720 -204 1010 -92 92 35 137 71 174 138 36 67 44 140 22 216 -32 106 -150 195
-262 195 -18 0 -68 -12 -111 -26 -158 -51 -317 -41 -508 32 -82 32 -229 105
-248 123 -4 4 6 59 23 122 16 63 42 184 56 269 14 85 27 156 28 157 1 2 45 -7
97 -19 129 -30 449 -33 579 -5 155 34 347 121 435 198 19 17 47 56 62 87 69
140 10 303 -135 373 -66 33 -163 31 -228 -3 -170 -90 -193 -100 -274 -114
-122 -22 -286 -9 -462 37 l-36 9 -6 108 c-10 187 -36 449 -56 560 -29 156 -37
142 84 142 259 0 550 89 743 226 91 65 191 168 216 222 32 70 30 171 -5 238
-49 94 -145 154 -248 154 -79 0 -133 -26 -218 -102 -137 -125 -279 -175 -522
-184 -80 -3 -162 -2 -184 3 l-38 8 -48 130 c-65 180 -110 285 -196 464 -41 85
-74 156 -74 157 0 2 6 4 14 4 36 0 202 56 293 100 192 91 335 204 443 350 70
95 90 142 90 220 0 83 -30 149 -93 207 -72 66 -166 87 -261 59 -64 -19 -105
-53 -171 -140 -67 -90 -134 -143 -247 -196 -78 -36 -231 -80 -333 -94 l-40 -6
-45 67 c-79 119 -234 320 -328 427 l-91 104 132 65 c274 138 472 332 584 574
19 41 37 99 40 127 12 112 -48 220 -151 274 -42 22 -63 27 -126 26 -125 0
-198 -51 -259 -177 -70 -148 -174 -249 -347 -335 -76 -38 -279 -112 -308 -112
-7 0 -39 23 -71 51 -31 27 -93 78 -136 111 -44 34 -79 64 -79 68 0 4 24 26 53
48 181 140 331 353 402 572 53 163 32 280 -66 364 -151 129 -393 57 -445 -134
-59 -214 -180 -357 -419 -494 l-31 -18 -78 47 c-43 25 -122 68 -177 95 -54 28
-99 53 -99 57 0 4 18 33 40 64 85 122 162 306 190 459 7 36 13 112 14 170 1
91 -2 111 -22 152 -26 52 -97 123 -145 143 -130 54 -280 2 -350 -123 -25 -45
-31 -69 -38 -160 -10 -125 -19 -163 -65 -253 -45 -91 -152 -232 -171 -225 -10
4 -228 73 -319 101 -8 2 -2 30 17 83 42 119 60 231 60 367 0 204 -36 332 -109
396 -116 102 -288 95 -390 -15 -56 -61 -76 -119 -69 -203 20 -230 20 -227 -1
-309 -11 -43 -30 -105 -42 -137 l-22 -59 -47 7 c-25 4 -86 13 -136 19 l-90 12
5 44 c12 105 4 316 -14 395 -58 256 -154 366 -315 364 -37 0 -80 -6 -98 -12
-99 -37 -171 -130 -180 -237 -5 -48 0 -75 27 -157 27 -81 33 -114 34 -193 0
-52 -3 -111 -7 -131 l-7 -36 -116 -7 c-64 -3 -119 -4 -123 -1 -5 2 -11 51 -14
107 -14 261 -158 577 -297 652 -56 31 -159 44 -210 27z m145 -346 c23 -22 25
-32 26 -127 1 -108 4 -110 14 -14 6 52 8 56 20 39 7 -10 22 -47 33 -81 30 -89
87 -168 172 -234 21 -16 29 -28 20 -28 -8 0 -94 -9 -190 -20 -96 -11 -179 -20
-183 -20 -5 0 5 17 21 38 61 77 77 120 76 207 0 61 -5 89 -21 120 -39 74 -49
145 -21 145 5 0 20 -11 33 -25z m-898 -11 c19 -14 50 -50 70 -80 l36 -55 5
-135 c3 -74 7 -132 10 -129 3 3 8 47 11 97 l6 93 34 -86 c39 -101 90 -166 173
-219 l57 -37 -177 -53 c-97 -29 -185 -55 -196 -58 -16 -4 -16 -1 6 34 51 82
68 138 68 223 0 93 -17 144 -82 248 -84 136 -101 183 -66 183 6 0 26 -12 45
-26z m1824 -131 c5 -36 16 -74 24 -86 8 -12 15 -27 15 -34 0 -15 61 -117 97
-162 l28 -34 -95 7 c-52 3 -140 9 -195 12 l-100 6 55 57 c80 83 83 89 88 142
4 40 8 49 23 49 17 0 19 9 19 83 1 80 1 81 16 53 9 -15 20 -57 25 -93z m888
-63 c13 -189 23 -241 65 -325 19 -38 34 -70 33 -71 -3 -2 -350 76 -367 82 -11
4 -5 11 21 27 97 60 179 151 179 201 0 12 9 35 20 51 16 24 20 47 20 115 0
132 18 84 29 -80z m-3578 -213 c14 -4 36 -16 49 -27 13 -11 27 -20 31 -20 5 0
58 -50 119 -110 129 -128 186 -168 293 -206 43 -15 76 -28 75 -29 -2 -2 -48
-29 -103 -61 -55 -31 -126 -74 -157 -96 -31 -21 -58 -38 -60 -38 -2 0 -3 51
-3 113 0 99 -3 118 -24 162 -25 50 -121 175 -192 248 -21 23 -39 45 -39 49 0
4 -7 8 -15 8 -8 0 -15 8 -15 18 0 10 3 13 8 6 4 -6 19 -14 33 -17z m4538 -380
c6 -43 14 -90 17 -103 l6 -24 -83 36 c-46 20 -128 54 -181 76 -90 37 -120 58
-84 58 7 0 50 18 94 40 88 44 149 102 186 179 l21 43 6 -113 c4 -63 12 -149
18 -192z m-1652 87 c74 -38 144 -70 156 -71 61 -7 110 -1 192 22 71 21 105 26
160 22 95 -5 160 -33 312 -131 119 -77 163 -99 224 -111 83 -17 146 -21 234
-17 96 4 104 3 165 -26 43 -20 103 -64 180 -131 202 -179 335 -250 525 -281
107 -18 176 -59 239 -144 87 -117 207 -246 281 -303 39 -30 126 -82 195 -115
133 -64 205 -114 215 -151 11 -36 74 -155 122 -229 24 -38 111 -159 193 -268
114 -151 173 -220 252 -291 200 -183 218 -206 218 -286 0 -83 25 -162 141
-441 60 -145 109 -266 109 -269 0 -22 82 -164 127 -220 31 -37 68 -95 84 -128
27 -56 29 -68 29 -187 0 -74 -4 -129 -10 -133 -14 -9 -12 -154 5 -270 8 -55
19 -174 25 -265 12 -174 19 -212 58 -300 22 -52 23 -64 20 -225 -4 -183 -4
-180 -72 -296 -32 -54 -57 -142 -91 -324 -10 -51 -15 -140 -15 -248 0 -214
-12 -245 -166 -427 -86 -101 -113 -147 -183 -305 -35 -78 -55 -138 -58 -175
-3 -30 -14 -69 -24 -86 -11 -17 -19 -38 -19 -45 -1 -25 -54 -76 -169 -159
-119 -87 -235 -208 -312 -325 -116 -178 -133 -191 -250 -206 -44 -5 -105 -19
-134 -30 -30 -11 -58 -20 -62 -21 -14 0 -80 -37 -94 -51 -51 -51 -235 -178
-285 -197 -77 -29 -162 -24 -234 14 -27 14 -58 26 -69 26 -11 0 -21 5 -23 12
-7 19 -153 24 -181 6 -12 -8 -35 -18 -52 -22 -16 -4 -37 -14 -45 -21 -9 -8
-44 -22 -79 -30 -116 -30 -193 -4 -366 124 -123 90 -181 117 -293 132 -127 16
-150 33 -212 152 -98 187 -188 311 -327 452 -166 167 -174 182 -183 364 -6
114 -12 150 -37 221 -40 113 -67 165 -115 223 -54 65 -111 160 -137 231 -21
56 -22 70 -15 225 6 165 6 167 -26 286 -39 148 -68 211 -135 295 -61 77 -119
178 -146 257 -15 44 -19 83 -19 180 0 144 -15 198 -106 389 -49 102 -64 122
-175 240 -170 181 -259 311 -259 380 0 40 -74 182 -137 264 -83 107 -207 228
-289 283 -39 25 -120 65 -180 89 -187 72 -244 113 -382 278 -168 201 -416 375
-610 429 -77 21 -97 30 -159 73 -36 24 -51 47 -94 136 -81 170 -143 264 -244
371 -121 128 -145 174 -145 280 0 73 18 141 41 161 8 7 18 52 30 135 10 65 8
134 -7 307 -3 41 -1 74 5 87 7 11 46 44 89 73 93 62 189 156 266 260 31 43 69
89 83 103 39 36 106 55 192 55 92 0 144 22 258 107 105 79 141 100 209 123 69
24 151 25 219 4 28 -9 82 -16 120 -17 70 -1 73 0 185 65 212 122 321 134 509
52 109 -47 147 -46 275 10 131 57 124 55 245 52 l104 -3 134 -69z m2759 -220
c-4 -17 -44 -92 -90 -166 -92 -147 -116 -210 -116 -300 l0 -58 -166 113 c-92
62 -166 118 -166 123 1 5 27 12 59 16 113 15 187 44 246 98 30 28 59 50 63 50
8 1 35 38 130 185 l39 60 3 -45 c2 -24 1 -59 -2 -76z m-6013 -373 c43 -10 80
-15 83 -10 3 5 10 7 15 3 5 -3 57 2 115 11 58 9 107 15 109 13 1 -2 -19 -41
-46 -87 -26 -46 -61 -119 -76 -162 l-28 -78 -40 77 c-47 91 -107 155 -161 171
-21 7 -46 15 -54 18 -22 8 -52 14 -77 15 -13 0 -23 3 -23 7 0 4 -8 8 -17 8
-116 -1 -163 4 -163 17 0 8 6 17 13 20 25 12 274 -4 350 -23z m7027 -154 c0
-74 -128 -235 -285 -358 -140 -109 -148 -121 -194 -287 -5 -20 -22 -6 -161
134 l-155 155 105 -6 c94 -6 131 -3 238 19 27 6 67 30 141 85 30 22 57 38 62
35 9 -5 60 48 134 141 50 61 94 105 108 105 4 0 7 -10 7 -23z m-6891 -772 c7
-43 26 -122 41 -174 16 -53 28 -97 26 -98 -1 -1 -31 16 -66 39 -36 22 -93 54
-128 69 -58 26 -66 28 -119 18 -30 -6 -91 -24 -135 -40 -44 -16 -86 -29 -94
-29 -15 0 -19 37 -6 57 17 26 127 59 255 76 23 3 76 46 147 119 30 31 58 54
61 50 3 -4 11 -43 18 -87z m7741 -439 c0 -18 -44 -83 -88 -129 -51 -53 -153
-119 -242 -156 -94 -39 -153 -100 -196 -202 -10 -25 -23 -48 -27 -50 -7 -3
-218 342 -213 348 1 1 36 -9 78 -22 73 -23 194 -35 216 -21 6 3 12 1 14 -5 8
-24 148 53 258 141 34 27 70 50 79 50 9 1 32 14 51 30 36 32 70 39 70 16z
m-7220 -426 c57 -52 122 -112 144 -132 l41 -38 -30 5 c-141 21 -269 10 -363
-31 -52 -23 -150 -80 -162 -94 -3 -4 -12 -9 -22 -13 -9 -3 -59 -57 -112 -120
-94 -112 -131 -141 -143 -111 -11 29 33 100 108 175 42 42 90 84 106 94 17 10
38 31 47 46 9 16 34 41 54 56 20 15 58 47 84 72 46 43 70 95 92 194 7 28 7 28
29 10 13 -10 70 -61 127 -113z m985 -716 c72 -51 148 -108 169 -126 l40 -35
-80 9 c-99 12 -235 4 -292 -17 -152 -54 -258 -130 -370 -264 -91 -107 -125
-133 -136 -104 -17 42 81 171 192 253 34 25 61 50 62 57 0 6 32 40 71 75 87
77 115 122 130 215 l12 73 36 -22 c20 -11 95 -63 166 -114z m6953 -261 c4 -27
-47 -86 -105 -120 -87 -51 -280 -115 -363 -122 -56 -4 -84 -13 -150 -48 -59
-32 -85 -54 -122 -102 -26 -33 -49 -57 -51 -53 -7 11 -98 374 -95 377 2 1 41
-19 88 -46 46 -27 92 -49 102 -49 10 0 18 -4 18 -10 0 -5 13 -7 29 -4 18 4 38
0 55 -11 31 -21 63 -16 191 26 97 33 149 59 271 139 85 55 126 63 132 23z
m-6153 -512 c64 -98 140 -239 133 -247 -3 -2 -38 8 -79 22 -52 19 -99 28 -159
30 -81 3 -89 1 -165 -35 -74 -36 -231 -134 -315 -196 -22 -17 -36 -22 -39 -14
-2 8 -6 7 -12 -2 -7 -11 -9 -10 -9 4 0 9 44 61 98 115 89 90 107 102 224 160
111 55 130 67 157 108 16 25 40 75 51 110 26 78 26 79 115 -55z m523 -1071
c27 -80 53 -160 57 -178 l7 -33 -42 26 c-63 40 -164 75 -215 75 -57 0 -176
-54 -304 -138 -134 -89 -180 -82 -105 16 52 68 140 118 303 173 86 28 137 77
192 183 41 78 35 85 107 -124z m5051 45 c23 -15 41 -31 41 -35 0 -4 16 -10 36
-13 20 -3 42 -14 49 -24 21 -29 188 -29 310 1 36 8 129 43 180 66 27 12 66 25
87 28 33 4 38 2 38 -16 0 -42 -67 -82 -188 -113 -100 -25 -143 -30 -293 -29
-101 1 -129 -2 -139 -15 -7 -8 -29 -15 -49 -15 -40 0 -109 -29 -156 -64 -62
-46 -59 -51 -51 85 4 68 9 156 13 196 l6 72 38 -48 c21 -26 56 -60 78 -76z
m-4746 -1062 c64 -219 64 -218 41 -208 -128 55 -194 58 -273 14 -100 -57 -225
-157 -284 -228 -53 -64 -90 -91 -104 -77 -3 3 -2 22 2 42 5 29 26 58 95 128
49 49 91 95 94 102 7 18 94 85 167 128 72 43 124 101 172 193 17 35 35 63 38
63 3 0 27 -71 52 -157z m4494 4 c32 -60 68 -102 144 -166 32 -27 142 -77 192
-87 10 -2 28 -6 40 -10 12 -5 27 -8 32 -9 43 -5 85 -19 75 -25 -22 -13 -204 3
-285 25 -68 18 -265 14 -322 -8 -24 -9 -43 -13 -43 -10 0 14 124 353 129 353
3 0 21 -28 38 -63z m783 -266 c0 -15 -11 -21 -62 -29 -90 -15 -172 -3 -91 13
21 5 45 9 53 11 26 6 95 22 98 23 1 0 2 -8 2 -18z m-4933 -680 l81 -169 -98 5
c-113 7 -120 4 -235 -88 -48 -39 -85 -83 -141 -166 -42 -62 -80 -113 -85 -113
-5 0 -9 26 -9 59 0 52 5 66 39 117 22 33 67 86 100 119 34 33 61 66 61 75 0 9
25 40 55 70 54 54 101 135 126 221 7 21 15 39 19 39 3 0 43 -76 87 -169z
m3702 -8 c21 -128 46 -169 202 -329 32 -34 59 -69 59 -79 0 -14 -3 -15 -15 -5
-8 7 -15 10 -15 7 0 -10 -70 23 -144 67 -94 57 -174 86 -263 94 l-72 7 112
158 c61 86 114 157 117 157 4 0 12 -35 19 -77z m-601 -663 c-5 -30 -8 -95 -6
-145 3 -76 9 -101 36 -159 37 -80 80 -142 166 -241 99 -114 94 -108 63 -96
-15 6 -27 8 -27 5 0 -7 -95 61 -134 95 -15 14 -57 64 -91 111 -123 165 -139
179 -259 222 l-68 25 68 48 c38 27 111 82 163 122 51 41 95 72 96 71 2 -2 -1
-28 -7 -58z m-2589 -52 c31 -28 95 -82 143 -119 l88 -67 -38 -13 c-72 -23
-151 -69 -179 -104 -15 -19 -40 -65 -55 -102 l-27 -68 0 263 c-1 144 2 262 5
262 3 0 32 -23 63 -52z m1805 -412 c-63 -137 -35 -248 107 -436 50 -66 42 -97
-18 -66 -53 27 -173 175 -173 214 0 32 -133 179 -203 224 -26 17 -46 32 -45
34 2 1 53 14 113 28 61 14 139 34 175 44 36 10 66 18 68 17 1 -1 -9 -28 -24
-59z m-1076 20 c55 -13 134 -30 175 -36 l76 -13 -57 -56 c-99 -100 -102 -106
-102 -258 l0 -126 -23 21 c-28 26 -47 93 -54 189 -4 43 -11 78 -19 84 -8 6
-14 18 -14 25 0 14 -73 158 -92 182 -14 17 -5 16 110 -12z M3655 9176 c-27 -8
-90 -17 -140 -20 -49 -4 -155 -16 -235 -26 -80 -10 -180 -21 -223 -24 -43 -3
-85 -10 -93 -17 -8 -6 -14 -9 -14 -6 0 3 -24 -4 -52 -14 -29 -11 -96 -33 -148
-49 -420 -127 -652 -249 -853 -447 -84 -83 -125 -137 -170 -228 -58 -116 -67
-167 -67 -397 0 -198 1 -207 29 -289 52 -155 131 -291 247 -425 159 -184 302
-297 824 -649 715 -482 1001 -762 1276 -1250 320 -569 385 -738 675 -1745 103
-357 223 -728 285 -878 113 -273 250 -517 383 -677 36 -44 70 -86 76 -93 26
-34 194 -176 253 -215 192 -126 338 -176 662 -227 l135 -22 140 26 c180 34
240 50 350 93 133 53 209 93 341 182 369 246 695 635 927 1105 151 306 272
661 327 961 38 209 42 294 37 780 -4 510 -3 492 -72 793 -54 233 -151 540
-232 731 -62 146 -221 460 -300 593 -157 267 -374 565 -552 763 -235 260 -439
458 -626 606 -185 146 -541 399 -561 399 -4 0 -15 6 -23 14 -32 29 -293 158
-551 274 -25 11 -90 40 -145 65 -135 60 -247 95 -525 162 -382 91 -440 107
-440 115 0 4 -11 5 -24 3 -13 -3 -26 0 -30 5 -4 6 -18 8 -34 4 -15 -4 -52 -7
-82 -6 -102 3 -444 25 -531 34 -112 13 -183 12 -244 -4z m735 -240 c833 -103
1552 -387 2205 -871 344 -254 713 -617 957 -940 910 -1205 1163 -2608 695
-3845 -280 -740 -832 -1338 -1387 -1503 -149 -45 -198 -51 -370 -51 -516 1
-878 219 -1154 697 -155 268 -256 546 -471 1297 -168 585 -253 844 -366 1114
-53 126 -175 374 -214 437 -13 20 -60 103 -105 184 -147 268 -278 443 -495
661 -227 228 -404 367 -879 687 -610 411 -789 570 -905 802 -63 127 -76 188
-75 350 2 231 39 332 168 460 271 268 864 475 1533 535 150 13 716 4 863 -14z
M3295 8546 c-79 -20 -135 -54 -207 -126 -48 -48 -78 -89 -103 -141 -32 -67
-35 -81 -35 -164 0 -112 9 -145 63 -229 100 -155 270 -240 432 -215 133 21
289 138 351 264 25 53 29 73 32 166 4 103 3 108 -30 174 -62 128 -208 247
-336 274 -65 14 -102 13 -167 -3z m207 -188 c102 -44 163 -147 156 -265 -6
-108 -56 -185 -151 -235 -59 -32 -184 -32 -242 -1 -58 31 -105 81 -133 142
-21 45 -24 64 -20 125 3 39 12 86 22 103 72 140 223 193 368 131z M5821 7999
c-120 -20 -254 -125 -327 -254 l-39 -70 0 -120 c0 -113 2 -123 29 -175 52
-100 79 -131 150 -177 118 -77 149 -87 251 -88 77 0 98 4 148 27 107 50 217
154 267 252 27 54 30 68 30 159 0 91 -3 105 -32 166 -59 124 -219 257 -334
276 -76 12 -89 13 -143 4z m186 -198 c94 -48 145 -126 151 -234 7 -120 -53
-221 -161 -268 -132 -57 -279 -8 -354 120 -39 66 -44 171 -11 242 36 78 98
134 178 160 44 15 152 4 197 -20z M4915 6885 c-205 -45 -378 -174 -486 -363
-75 -131 -88 -184 -89 -355 0 -133 3 -156 25 -224 38 -113 98 -208 184 -293
139 -136 283 -199 477 -208 137 -6 235 17 374 85 164 81 289 228 349 409 33
97 33 101 29 249 -4 132 -8 158 -31 218 -133 341 -502 555 -832 482z m258
-180 c206 -44 377 -218 422 -430 27 -130 15 -226 -47 -355 -113 -235 -379
-359 -632 -294 -192 50 -351 207 -401 400 -8 32 -15 95 -15 139 0 156 51 277
165 390 81 81 144 118 247 145 88 23 170 25 261 5z M6830 6324 c-82 -22 -207
-83 -280 -137 -118 -87 -201 -194 -251 -321 -26 -65 -28 -82 -29 -205 0 -153
14 -226 65 -337 97 -212 230 -325 471 -400 92 -29 295 -26 394 4 250 79 424
242 501 471 15 45 19 86 19 211 0 169 -5 192 -66 315 -93 188 -297 353 -495
400 -81 19 -256 18 -329 -1z m352 -192 c217 -78 368 -291 368 -519 0 -98 -15
-164 -58 -253 -89 -182 -293 -309 -498 -310 -70 0 -193 33 -265 71 -90 48
-182 147 -229 243 -63 131 -75 245 -40 380 27 107 63 169 145 251 76 76 145
119 240 147 82 24 256 19 337 -10z M6610 4490 c-341 -47 -621 -301 -701 -635
-28 -120 -23 -322 11 -430 91 -286 306 -490 600 -571 91 -25 309 -25 400 0
273 75 486 267 579 522 149 409 -42 867 -437 1046 -132 60 -312 87 -452 68z
m204 -230 c88 -13 192 -49 263 -92 78 -46 172 -142 211 -214 l32 -62 0 -223
c0 -216 -1 -226 -24 -276 -72 -155 -196 -261 -371 -320 -71 -24 -95 -27 -210
-27 -116 0 -139 3 -210 28 -44 15 -105 41 -135 58 -84 48 -188 159 -235 252
l-40 79 -3 181 c-4 205 2 239 58 324 75 117 199 212 333 257 126 42 216 51
331 35z"/>
</g>
</svg>
