<?xml version="1.0" standalone="no"?>
<!DOCTYPE svg PUBLIC "-//W3C//DTD SVG 20010904//EN"
 "http://www.w3.org/TR/2001/REC-SVG-20010904/DTD/svg10.dtd">
<svg version="1.0" xmlns="http://www.w3.org/2000/svg"
 width="2048.000000pt" height="2048.000000pt" viewBox="0 0 2048.000000 2048.000000"
 preserveAspectRatio="xMidYMid meet">
<metadata>
Created by potrace 1.13, written by Peter Selinger 2001-2015
</metadata>
<g transform="translate(0.000000,2048.000000) scale(0.192120,-0.192120)"
fill="#000000" stroke="none">
<path d="M6220 9434 c-335 -32 -665 -138 -950 -307 l-75 -45 -25 20 c-183 142
-395 228 -566 228 -143 0 -247 -44 -345 -147 -96 -100 -147 -230 -158 -400
l-6 -102 -71 45 c-151 95 -381 167 -576 183 -317 24 -610 -57 -897 -250 -387
-258 -531 -679 -420 -1223 22 -110 76 -284 114 -371 14 -31 25 -60 25 -64 0
-5 -21 -22 -47 -37 -130 -75 -273 -211 -359 -341 -249 -374 -168 -836 201
-1146 64 -54 176 -132 199 -140 6 -2 -22 -44 -62 -93 -76 -95 -172 -272 -191
-356 -6 -26 -11 -75 -11 -110 1 -114 43 -180 255 -398 239 -247 295 -330 295
-441 0 -148 -174 -335 -467 -503 -46 -26 -83 -50 -83 -53 0 -7 137 4 280 23
267 35 488 104 624 195 84 56 135 114 174 196 25 53 27 68 26 168 -1 61 -11
180 -23 266 -11 86 -21 160 -21 164 0 4 29 -28 64 -72 159 -197 411 -405 666
-553 41 -24 98 -65 125 -90 77 -73 213 -180 298 -235 67 -44 77 -54 77 -80 0
-16 2 -161 3 -322 1 -160 5 -294 8 -297 11 -11 82 16 110 44 l30 28 -4 114
c-2 73 -11 142 -25 196 -12 46 -22 87 -22 92 0 5 37 -18 83 -50 211 -153 445
-226 762 -237 392 -14 676 61 929 246 39 28 71 49 73 47 2 -2 -10 -53 -27
-115 -25 -92 -30 -130 -30 -220 0 -100 2 -110 24 -134 21 -23 79 -47 114 -47
9 0 12 76 12 348 l0 348 88 61 c48 34 118 87 155 120 112 95 181 145 271 197
243 140 538 417 696 655 13 20 15 -11 15 -266 l0 -288 28 -58 c70 -142 301
-306 551 -391 72 -25 207 -56 243 -56 9 0 -13 30 -53 73 -198 207 -276 428
-211 588 26 62 120 205 297 448 268 370 363 589 362 831 0 288 -113 565 -313
771 -38 40 -69 73 -69 75 0 2 30 55 66 119 126 221 228 491 264 702 57 330
-10 571 -222 798 -179 191 -426 330 -715 401 l-113 27 0 37 c0 66 -30 213 -65
318 -131 391 -393 659 -770 789 -183 63 -431 94 -615 77z m412 -279 c62 -12
121 -26 131 -30 12 -5 17 -2 17 10 0 21 19 15 131 -41 208 -104 380 -294 469
-519 30 -73 80 -252 80 -283 0 -37 62 -134 122 -193 78 -76 116 -97 248 -144
271 -96 453 -221 582 -400 79 -111 78 -104 78 -392 0 -224 -3 -269 -20 -343
-31 -129 -57 -201 -130 -365 -82 -182 -91 -210 -92 -272 0 -58 17 -103 74
-192 73 -114 159 -284 189 -370 16 -47 19 -85 19 -277 0 -215 -1 -226 -25
-291 -46 -121 -129 -259 -305 -503 -224 -311 -282 -428 -315 -633 -6 -36 -8
-38 -37 -33 -39 6 -44 11 -70 77 -15 39 -23 89 -28 179 -9 143 -22 209 -55
278 -27 57 -125 151 -165 159 -50 10 -48 52 11 243 90 293 101 353 106 592 5
211 4 218 -17 248 -13 18 -30 30 -44 30 -21 0 -23 -5 -34 -147 -20 -243 -89
-539 -190 -812 -95 -259 -279 -587 -437 -779 -65 -79 -61 -77 -157 -92 -82
-13 -83 -13 -193 -78 -244 -144 -339 -247 -340 -372 l0 -55 -100 -51 c-96 -51
-279 -118 -400 -148 -187 -46 -499 -60 -700 -31 -202 28 -417 97 -580 183 -67
35 -70 38 -67 70 5 43 -14 96 -55 159 -38 57 -199 182 -365 282 -75 46 -96 54
-167 63 l-82 11 -61 76 c-289 358 -510 881 -594 1404 -17 106 -17 111 4 230
21 122 19 136 -14 137 -25 0 -79 -48 -101 -90 -23 -43 -23 -52 -20 -240 3
-191 4 -198 45 -355 23 -88 62 -220 87 -293 43 -127 56 -211 37 -237 -4 -6
-18 -16 -32 -23 -45 -23 -117 -96 -141 -142 -21 -41 -24 -62 -29 -221 -4 -150
-8 -180 -22 -196 -10 -11 -18 -34 -18 -51 0 -35 -56 -102 -84 -102 -38 0 -46
24 -46 133 0 194 -70 318 -342 608 -158 168 -158 168 -158 286 l0 98 61 110
c96 171 122 233 123 291 0 45 -6 59 -57 137 -38 57 -92 118 -163 184 -107 99
-173 186 -220 287 -25 54 -25 59 -22 253 l3 198 55 95 c45 78 83 124 215 260
100 102 169 183 183 211 29 59 28 115 -4 230 -87 319 -84 298 -84 584 0 192 4
272 14 305 48 159 182 329 341 434 225 149 457 215 713 203 155 -8 182 -13
182 -37 0 -13 10 -21 33 -25 55 -11 147 -41 257 -83 140 -53 185 -60 237 -33
79 40 173 177 202 294 30 124 84 197 176 238 40 18 68 23 140 23 111 -1 200
-29 361 -114 134 -72 201 -92 270 -79 27 5 123 43 213 85 442 204 812 264
1173 189z M4159 7397 c-106 -36 -264 -151 -409 -297 -117 -118 -145 -197 -95
-264 14 -19 19 -15 107 70 143 139 425 364 457 364 6 0 97 -25 203 -56 483
-139 800 -198 1163 -214 357 -16 613 -57 920 -146 194 -57 199 -57 203 -22 6
52 -31 102 -105 140 -205 107 -558 175 -1019 198 -352 17 -627 67 -1125 204
-177 48 -219 52 -300 23z M3413 6710 c-156 -33 -252 -138 -290 -313 -19 -92
-12 -304 16 -434 76 -361 273 -778 407 -863 68 -43 162 -56 304 -42 157 16
294 45 731 156 458 116 582 139 749 139 168 0 291 -23 766 -143 672 -171 856
-192 1004 -117 131 66 337 488 416 851 33 148 42 353 21 453 -32 148 -108 248
-225 295 -52 21 -72 23 -232 22 -293 -1 -496 -27 -1010 -129 -459 -91 -522
-99 -740 -99 -216 0 -285 9 -715 95 -347 69 -488 93 -673 113 -168 19 -474 28
-529 16z m382 -265 c132 -14 247 -25 256 -25 8 0 24 -6 34 -14 24 -18 16 -37
-53 -127 -27 -36 -62 -89 -76 -117 -26 -51 -26 -54 -26 -272 l0 -220 28 -63
c16 -34 53 -93 82 -132 29 -38 53 -74 53 -80 0 -32 -6 -42 -35 -52 -68 -24
-156 -37 -253 -37 -120 -1 -166 18 -219 91 -53 73 -129 235 -192 408 l-58 160
-4 213 -3 213 30 28 c61 57 109 60 436 26z m3438 11 c81 -29 79 -22 75 -281
l-4 -230 -43 -120 c-94 -263 -184 -437 -252 -485 -48 -35 -118 -45 -227 -32
-88 10 -197 33 -206 43 -2 2 -6 13 -10 25 -5 15 7 39 44 89 28 38 58 84 66
102 7 18 21 48 29 67 12 27 15 80 15 255 l0 221 -34 68 c-19 37 -53 91 -75
121 -47 63 -57 89 -42 104 7 7 87 24 179 38 194 31 420 38 485 15z m-2378
-187 c149 -27 360 -49 475 -49 115 0 326 22 475 49 61 12 113 21 118 21 17 0
5 -62 -23 -122 l-30 -63 0 -217 c0 -194 2 -221 20 -263 23 -53 25 -88 8 -102
-9 -7 -67 1 -178 23 -307 62 -474 62 -785 -1 -203 -41 -207 -40 -185 50 7 31
17 58 22 61 4 3 8 105 7 227 l0 222 -33 80 c-23 56 -30 84 -23 93 12 15 1 16
132 -9z m-433 -39 c54 -15 118 -68 144 -120 22 -42 23 -57 24 -221 0 -169 -1
-177 -26 -228 -72 -143 -267 -172 -375 -54 -60 64 -64 82 -64 278 0 167 2 183
22 222 55 103 167 153 275 123z m1968 -11 c55 -25 95 -62 123 -114 20 -37 22
-55 22 -220 0 -156 -2 -185 -19 -215 -55 -105 -159 -156 -266 -130 -70 17
-122 58 -154 121 -25 51 -26 59 -26 228 1 163 2 179 23 220 56 110 189 159
297 110z M4998 4881 c-29 -25 -32 -35 -36 -95 -3 -50 0 -72 12 -91 36 -55 42
-56 334 -56 174 0 277 3 290 10 44 24 62 60 62 128 0 61 -2 67 -34 99 l-34 34
-281 0 -281 0 -32 -29z M4642 4339 c-66 -33 -97 -87 -97 -169 0 -54 5 -73 24
-101 53 -77 208 -172 366 -223 322 -105 722 -55 981 122 132 90 171 176 125
277 -54 120 -190 148 -302 63 -67 -50 -153 -92 -239 -115 -91 -24 -311 -24
-399 0 -86 23 -177 65 -228 104 -90 69 -153 80 -231 42z M3450 2825 c-104 -26
-216 -85 -299 -160 l-40 -36 -103 35 c-141 47 -230 60 -390 53 -158 -6 -239
-26 -383 -96 -180 -88 -399 -272 -559 -471 -76 -95 -216 -301 -220 -324 -1 -8
-38 -65 -83 -128 -229 -320 -461 -720 -665 -1148 -54 -113 -98 -208 -98 -212
0 -5 2124 -8 4720 -8 2596 0 4720 3 4720 8 0 16 -200 426 -280 572 -174 323
-360 623 -512 828 -38 52 -64 91 -57 86 14 -9 -12 37 -82 141 -207 310 -468
553 -720 669 -125 58 -209 77 -357 83 -159 7 -249 -6 -390 -53 l-103 -35 -47
42 c-63 55 -163 113 -242 140 -125 42 -420 36 -600 -12 -159 -43 -242 -105
-381 -289 -105 -139 -220 -268 -371 -416 -207 -203 -360 -315 -485 -354 l-58
-18 50 -4 c28 -3 109 -6 180 -7 143 -2 377 -15 555 -32 510 -46 879 -124 1115
-235 6 -2 21 24 34 58 79 206 214 422 346 553 94 93 160 138 267 184 57 23 75
26 188 26 105 0 135 -4 184 -23 97 -36 166 -82 256 -172 203 -201 382 -557
520 -1031 64 -220 150 -608 150 -675 0 -8 -43 13 -106 51 -172 104 -72 96
-1115 93 -1000 -3 -928 1 -1002 -64 -20 -19 -41 -34 -45 -34 -5 0 -60 34 -122
76 -311 207 -723 342 -1182 385 -162 15 -615 6 -748 -14 -464 -72 -783 -188
-1083 -393 -43 -30 -83 -54 -89 -54 -5 0 -30 17 -54 39 -26 22 -63 43 -89 50
-31 8 -314 11 -943 11 -1017 0 -911 9 -1066 -89 -50 -32 -97 -61 -105 -66 -17
-10 -10 45 30 245 164 803 451 1395 771 1588 105 63 159 77 298 77 113 0 131
-3 188 -26 107 -46 173 -91 267 -184 131 -130 264 -341 345 -550 13 -33 24
-61 25 -62 1 -1 37 13 81 32 250 107 747 192 1329 225 235 13 405 17 405 8 0
-3 14 -20 31 -37 38 -38 96 -55 136 -40 29 11 83 57 83 71 0 4 -55 9 -122 10
-68 1 -103 3 -78 6 l45 4 -58 18 c-125 39 -278 151 -485 354 -150 147 -271
284 -384 431 -123 163 -205 226 -348 269 -139 42 -454 59 -570 31z m425 -251
c123 -23 191 -60 292 -157 48 -47 102 -104 118 -127 17 -23 71 -89 120 -147
156 -181 175 -204 175 -219 0 -26 -61 -41 -285 -68 -261 -33 -437 -64 -637
-113 -120 -31 -151 -35 -171 -26 -16 7 -69 78 -140 185 -109 164 -176 246
-331 402 -79 80 -76 89 24 81 80 -7 122 4 135 35 7 16 45 40 130 80 66 31 138
63 160 70 94 31 257 32 410 4z m3292 1 c29 -7 109 -39 177 -72 94 -44 126 -63
131 -80 7 -31 71 -47 152 -38 58 6 63 5 63 -12 0 -11 -51 -71 -118 -139 -122
-122 -180 -196 -294 -369 -69 -106 -99 -139 -135 -148 -12 -3 -82 10 -155 29
-188 47 -369 79 -623 109 -232 27 -285 41 -285 74 0 11 24 46 53 78 117 127
267 306 267 318 0 24 166 171 225 199 146 69 383 91 542 51z m-4937 -269 c0
-65 -5 -70 -120 -115 -108 -41 -268 -118 -390 -186 l-65 -36 74 71 c165 159
388 298 477 298 20 0 24 -6 24 -32z m6297 12 c32 -12 89 -40 127 -62 79 -48
253 -185 311 -246 l40 -43 -65 37 c-115 66 -279 144 -390 187 -115 45 -120 49
-120 117 0 39 15 41 97 10z m-7187 -1409 c-46 -185 -63 -232 -99 -271 -22 -25
-31 -28 -92 -28 -89 0 -99 5 -99 46 0 47 139 308 269 504 l56 85 3 -86 c2 -74
-3 -111 -38 -250z m8078 117 c117 -202 182 -332 182 -366 0 -42 -17 -50 -102
-50 l-78 0 -24 38 c-26 39 -48 110 -90 281 -20 79 -26 129 -26 210 l1 106 22
-29 c12 -16 64 -101 115 -190z m-3873 -376 c39 -6 79 -13 89 -16 19 -6 19 -7
0 -17 -27 -15 -582 -15 -609 0 -16 10 -17 13 -5 17 65 24 400 33 525 16z"/>
</g>
</svg>
