<?xml version="1.0" standalone="no"?>
<!DOCTYPE svg PUBLIC "-//W3C//DTD SVG 20010904//EN"
 "http://www.w3.org/TR/2001/REC-SVG-20010904/DTD/svg10.dtd">
<svg version="1.0" xmlns="http://www.w3.org/2000/svg"
 width="2048.000000pt" height="2048.000000pt" viewBox="0 0 2048.000000 2048.000000"
 preserveAspectRatio="xMidYMid meet">
<metadata>
Created by potrace 1.13, written by Peter Selinger 2001-2015
</metadata>
<g transform="translate(0.000000,2048.000000) scale(0.192120,-0.192120)"
fill="#000000" stroke="none">
<path d="M6045 10249 c-342 -32 -733 -113 -1215 -253 -1373 -396 -2250 -846
-2673 -1370 -234 -292 -390 -607 -458 -926 -30 -140 -33 -429 -6 -562 71 -350
242 -607 571 -855 179 -136 404 -314 526 -417 950 -805 1768 -1766 2512 -2953
169 -269 214 -403 205 -603 -3 -79 -12 -137 -27 -185 -76 -240 -254 -454 -530
-637 -198 -131 -356 -196 -560 -229 -316 -50 -598 -151 -697 -250 -86 -85 -83
-143 12 -236 52 -51 87 -74 197 -127 378 -183 801 -286 1177 -286 383 0 630
97 839 328 123 137 273 245 422 306 146 60 243 77 665 116 269 26 407 77 541
202 105 99 153 189 175 329 26 172 -49 422 -199 654 -80 126 -174 237 -352
420 -352 361 -432 540 -604 1356 -143 676 -236 1008 -368 1319 -188 442 -553
875 -1043 1241 -203 151 -470 316 -624 387 -49 22 -52 26 -33 33 12 5 112 14
222 20 316 20 634 -5 1000 -76 254 -50 342 -58 525 -52 282 11 568 67 880 172
162 55 375 143 455 187 271 152 459 410 544 748 40 156 50 245 50 440 0 333
-65 619 -209 915 -184 379 -439 626 -754 729 -171 57 -371 98 -566 116 -127
12 -469 11 -600 -1z m667 -219 c415 -54 656 -161 839 -372 222 -256 351 -553
404 -930 22 -162 20 -488 -4 -598 -76 -343 -266 -578 -575 -712 -439 -192
-917 -293 -1283 -274 -67 3 -240 26 -385 50 -363 61 -456 70 -738 70 -260 1
-316 -6 -417 -55 -52 -25 -121 -93 -140 -137 -37 -87 52 -208 252 -342 55 -37
116 -85 136 -107 20 -22 92 -80 160 -129 342 -245 582 -471 790 -744 258 -338
406 -737 579 -1560 138 -651 205 -880 332 -1135 97 -195 172 -293 451 -593
168 -180 247 -286 315 -421 l47 -94 3 -166 c2 -91 1 -180 -3 -197 -7 -42 -82
-125 -142 -158 -97 -55 -200 -77 -492 -106 -113 -11 -249 -29 -302 -40 -255
-52 -451 -155 -667 -352 -195 -177 -237 -210 -317 -248 -271 -130 -695 -125
-1159 12 -124 36 -343 123 -372 147 -28 22 -38 55 -22 69 26 20 185 63 381
103 232 46 347 87 514 182 401 229 670 549 772 917 29 104 30 348 2 465 -18
73 -31 108 -100 258 -54 119 -318 531 -559 872 -780 1106 -1637 2002 -2622
2741 -80 59 -175 139 -213 177 -113 115 -199 256 -251 414 l-27 81 3 314 3
313 37 108 c63 179 186 409 313 582 71 96 219 245 347 347 473 379 1219 709
2308 1023 370 106 693 177 980 214 204 27 211 27 457 29 162 2 248 -3 365 -18z
M2750 8407 c-55 -28 -105 -98 -114 -159 -4 -30 0 -64 14 -113 39 -131 52 -210
57 -341 11 -262 -34 -475 -161 -750 -50 -111 -57 -158 -30 -222 60 -144 249
-179 356 -65 35 37 127 232 166 353 79 243 97 358 97 620 -1 239 -14 344 -67
508 -32 101 -69 149 -135 177 -53 22 -130 19 -183 -8z m135 -203 c9 -4 25 -24
35 -45 19 -36 20 -61 20 -438 l0 -400 -34 -113 c-40 -129 -85 -231 -119 -269
-89 -98 -130 -12 -68 143 41 105 78 222 97 308 15 65 16 122 12 442 -3 202 -3
370 0 373 7 7 37 6 57 -1z"/>
</g>
</svg>
