<?xml version="1.0" standalone="no"?>
<!DOCTYPE svg PUBLIC "-//W3C//DTD SVG 20010904//EN"
 "http://www.w3.org/TR/2001/REC-SVG-20010904/DTD/svg10.dtd">
<svg version="1.0" xmlns="http://www.w3.org/2000/svg"
 width="2048.000000pt" height="2048.000000pt" viewBox="0 0 2048.000000 2048.000000"
 preserveAspectRatio="xMidYMid meet">
<metadata>
Created by potrace 1.13, written by Peter Selinger 2001-2015
</metadata>
<g transform="translate(0.000000,2048.000000) scale(0.192120,-0.192120)"
fill="#000000" stroke="none">
<path d="M5042 9470 c-389 -35 -679 -173 -850 -405 l-44 -60 -197 -1 c-141 -1
-220 -6 -281 -18 -453 -90 -713 -370 -824 -888 -48 -219 -60 -373 -60 -753 -1
-365 10 -505 52 -700 l18 -80 -58 -63 c-70 -76 -136 -208 -169 -337 -20 -76
-23 -116 -23 -260 -1 -206 18 -296 94 -451 56 -116 135 -205 216 -244 63 -31
165 -38 229 -17 53 18 51 21 60 -73 17 -176 89 -531 152 -750 134 -470 342
-828 653 -1122 l110 -104 0 -328 0 -328 -80 79 c-129 129 -266 211 -429 255
-102 28 -306 30 -401 4 -100 -27 -167 -53 -259 -102 l-84 -44 -89 35 c-208 82
-442 125 -686 125 -262 0 -506 -55 -724 -165 -490 -244 -799 -741 -952 -1530
-43 -224 -86 -603 -86 -762 l0 -53 5000 0 5000 0 0 43 c0 81 -21 323 -41 477
-89 695 -297 1222 -604 1535 -190 192 -365 300 -631 385 -152 49 -301 70 -486
70 -244 0 -478 -43 -686 -125 l-89 -35 -84 44 c-92 49 -159 75 -259 102 -95
26 -299 24 -401 -4 -163 -44 -300 -125 -429 -255 l-80 -80 0 328 0 328 110
104 c251 239 445 534 568 864 101 269 184 616 228 952 21 161 16 150 64 131
58 -23 170 -16 234 15 81 40 160 129 216 245 61 125 89 236 97 388 13 256 -58
508 -184 648 l-43 48 14 114 c39 297 44 734 11 958 -34 229 -119 488 -222 680
-356 662 -1044 1066 -1986 1165 -185 19 -475 26 -605 15z m658 -334 c627 -82
1107 -291 1437 -627 209 -213 336 -442 408 -739 23 -98 25 -121 25 -356 0
-138 -3 -253 -6 -256 -3 -4 -29 4 -57 16 -29 13 -73 28 -98 35 -25 7 -74 35
-110 62 -155 120 -183 139 -222 150 -28 7 -109 10 -237 7 -466 -12 -751 24
-1060 132 -146 51 -190 52 -256 8 -27 -18 -63 -53 -82 -78 -18 -25 -40 -53
-48 -63 -8 -9 -14 -22 -14 -27 0 -13 -17 -13 -25 0 -3 5 -11 7 -18 5 -7 -3
-56 31 -109 73 -108 87 -175 127 -228 137 -41 7 -88 -19 -184 -104 -32 -29
-70 -57 -83 -62 -59 -22 -211 60 -483 264 -208 156 -283 178 -401 119 -123
-61 -258 -196 -433 -432 -110 -148 -126 -163 -233 -211 -78 -35 -96 -40 -104
-28 -5 8 -9 170 -9 360 0 368 7 447 60 639 56 203 176 357 340 437 128 62 223
82 445 94 106 5 208 16 232 24 52 17 145 79 220 148 154 142 243 195 409 242
156 45 262 55 544 51 157 -3 303 -10 380 -20z m-1603 -1567 c76 -61 194 -149
263 -194 317 -211 496 -249 564 -119 17 32 21 56 20 132 l-2 92 169 -164 c298
-291 484 -410 545 -349 39 40 -3 231 -94 427 -38 80 -42 107 -12 71 26 -31
148 -104 230 -138 103 -43 254 -80 415 -103 93 -14 192 -18 435 -18 173 -1
353 1 399 4 l84 5 36 -108 36 -108 95 -4 c52 -2 117 -10 144 -19 151 -47 246
-176 277 -378 11 -72 7 -297 -7 -403 -6 -44 -5 -48 8 -38 23 20 65 113 91 204
l24 83 13 -90 c11 -72 11 -105 0 -174 -6 -47 -15 -157 -19 -245 -5 -107 -13
-175 -24 -205 -9 -25 -17 -52 -17 -61 0 -21 -27 -82 -58 -131 -27 -43 -78 -78
-116 -78 -25 0 -26 2 -26 58 0 40 15 109 50 225 51 172 55 191 51 242 -2 22
-8 11 -22 -45 -26 -103 -74 -248 -116 -350 -66 -161 -167 -346 -207 -379 -9
-7 -16 -18 -16 -23 0 -24 -58 -80 -108 -105 -49 -24 -72 -28 -162 -31 -178 -6
-362 30 -849 169 -134 38 -248 69 -254 69 -37 0 33 -25 213 -75 113 -31 232
-65 265 -75 238 -73 447 -110 620 -110 96 0 115 -3 115 -15 0 -8 7 -15 15 -15
36 0 27 -63 -65 -435 -125 -512 -146 -559 -379 -870 -16 -22 -93 -114 -171
-205 -190 -223 -223 -295 -190 -410 12 -41 0 -54 -90 -100 -140 -70 -337 -120
-550 -140 -148 -13 -631 -13 -780 0 -225 20 -423 73 -572 152 -77 41 -79 44
-73 73 16 75 17 105 1 151 -23 69 -57 117 -207 290 -168 194 -242 298 -322
454 -137 264 -277 752 -277 963 l0 77 40 0 c27 0 40 4 40 14 0 10 28 15 118
20 158 10 338 40 501 86 75 21 219 61 321 89 172 48 204 58 270 89 17 8 19 11
5 8 -32 -7 -208 -55 -375 -103 -598 -171 -886 -196 -1006 -87 -42 39 -147 199
-200 304 -111 222 -197 487 -235 723 -13 79 -28 102 -30 45 -1 -18 -3 -25 -6
-15 -2 9 -8 15 -12 12 -14 -8 -43 148 -39 210 l3 60 28 -72 c16 -40 32 -75 35
-77 4 -2 7 64 8 148 0 109 5 169 17 216 53 200 161 298 354 322 l89 12 38 70
c101 185 253 384 397 520 50 47 95 86 100 86 5 0 71 -50 146 -111z m-1173
-1461 c7 -7 34 -92 60 -188 26 -96 57 -197 68 -225 20 -52 39 -183 31 -216
-14 -51 -112 1 -162 86 l-36 60 -3 232 c-2 180 0 236 10 247 16 19 17 19 32 4z
m1571 -3339 c197 -92 471 -138 831 -139 460 -1 783 74 987 228 l64 49 -8 -41
c-4 -23 -17 -79 -28 -126 -14 -58 -21 -120 -21 -195 -1 -126 -2 -129 -90 -189
-77 -53 -169 -94 -281 -127 -510 -147 -1207 -88 -1527 130 -91 61 -92 64 -92
217 0 94 -5 151 -19 205 -36 144 -40 135 36 77 38 -28 104 -68 148 -89z
m-2244 -78 c133 -29 296 -84 409 -138 52 -25 117 -51 145 -59 59 -16 68 -14
280 59 l150 51 160 1 c205 0 251 -14 480 -151 59 -35 107 -56 137 -60 45 -6
49 -5 85 31 l37 37 31 -34 c16 -19 50 -59 74 -88 53 -63 190 -155 298 -200 95
-40 298 -92 453 -116 161 -26 519 -26 680 0 151 23 361 77 456 117 102 43 241
135 289 193 22 26 55 66 74 87 l34 40 35 -35 c55 -57 89 -52 251 40 208 118
261 137 409 142 149 5 200 -4 397 -70 190 -64 214 -63 370 9 131 61 293 116
425 144 111 24 381 36 475 21 l60 -10 -86 -1 c-244 -3 -488 -90 -792 -281
l-128 -80 -31 21 c-16 12 -49 24 -71 26 -36 4 -51 -1 -107 -38 -117 -75 -277
-254 -445 -498 -44 -63 -92 -122 -107 -130 -25 -14 -37 -13 -160 17 -163 39
-350 73 -568 104 -163 23 -177 23 -1120 23 -939 0 -958 0 -1118 -23 -212 -29
-474 -78 -587 -108 -49 -13 -104 -24 -121 -24 -38 0 -76 36 -123 116 -150 255
-288 418 -440 520 -80 53 -126 58 -183 19 l-37 -25 -118 73 c-319 199 -513
271 -763 285 -183 10 -91 21 135 17 133 -3 205 -9 276 -24z m-86 -296 c129
-20 230 -48 319 -88 l71 -33 110 11 c61 6 117 8 126 4 30 -15 160 -142 221
-217 95 -119 211 -301 292 -461 40 -80 75 -152 77 -158 3 -9 27 -3 84 21 384
166 1396 275 2200 237 715 -34 1253 -117 1530 -236 57 -25 81 -31 84 -22 2 6
37 78 77 158 123 243 281 469 419 597 100 94 93 91 220 78 l110 -12 74 34
c148 68 380 110 552 98 456 -29 867 -302 1054 -699 136 -288 163 -679 74
-1081 -23 -106 -70 -256 -80 -256 -4 0 -33 21 -65 46 -33 25 -80 57 -107 70
l-47 24 -1243 -2 c-1361 -3 -1255 2 -1330 -64 -20 -19 -41 -34 -45 -34 -5 0
-60 34 -122 76 -311 207 -723 342 -1182 385 -162 15 -615 6 -748 -14 -464 -72
-783 -188 -1083 -393 -43 -30 -83 -54 -89 -54 -5 0 -30 17 -54 39 -26 22 -63
43 -89 50 -31 8 -399 11 -1265 11 -1387 0 -1235 10 -1358 -89 -35 -28 -67 -51
-71 -51 -10 0 -66 183 -87 280 -46 221 -57 495 -28 687 53 363 233 655 522
847 188 126 348 185 592 220 63 9 194 5 285 -9z m3380 -1745 c39 -6 79 -13 89
-16 19 -6 19 -7 0 -17 -27 -15 -582 -15 -609 0 -16 10 -17 13 -5 17 65 24 400
33 525 16z M3848 6973 c7 -3 16 -2 19 1 4 3 -2 6 -13 5 -11 0 -14 -3 -6 -6z
M3918 6963 c6 -2 18 -2 25 0 6 3 1 5 -13 5 -14 0 -19 -2 -12 -5z M3988 6953
c6 -2 18 -2 25 0 6 3 1 5 -13 5 -14 0 -19 -2 -12 -5z M4058 6943 c6 -2 18 -2
25 0 6 3 1 5 -13 5 -14 0 -19 -2 -12 -5z M4135 6930 c17 -4 41 -8 55 -8 22 0
22 1 -5 8 -16 4 -41 8 -55 8 -22 0 -22 -1 5 -8z M4225 6916 c20 -9 618 -137
729 -156 161 -27 367 -42 461 -33 l80 7 -95 8 c-52 4 -129 11 -170 17 -41 5
-136 17 -210 27 -117 14 -396 63 -625 109 -72 15 -188 29 -170 21z M6318 6893
c6 -2 18 -2 25 0 6 3 1 5 -13 5 -14 0 -19 -2 -12 -5z M6220 6883 c-189 -31
-277 -47 -335 -63 -91 -24 -176 -52 -172 -57 5 -5 545 108 582 122 13 5 -43 3
-75 -2z M4092 6592 c-116 -42 -241 -156 -295 -269 l-32 -68 -3 -223 -3 -223
40 -84 c91 -187 302 -308 481 -276 135 23 303 146 368 269 l32 60 0 243 c0
240 -1 245 -26 299 -36 77 -169 206 -258 250 -60 30 -80 35 -160 37 -70 3
-103 -1 -144 -15z m220 -168 c61 -20 123 -75 156 -138 27 -51 27 -52 27 -261
0 -209 0 -210 -27 -261 -50 -95 -126 -145 -233 -152 -93 -6 -158 21 -220 90
-65 72 -75 116 -75 323 0 203 10 250 71 319 79 89 189 119 301 80z M6312 6591
c-103 -36 -254 -163 -312 -263 l-30 -53 0 -245 c0 -223 2 -249 20 -289 45 -98
179 -217 302 -268 49 -20 80 -26 143 -27 100 0 162 20 259 86 81 54 139 116
179 193 l27 50 0 248 0 248 -27 55 c-49 101 -210 237 -317 269 -68 20 -179 18
-244 -4z m254 -179 c58 -30 121 -105 139 -165 21 -71 21 -373 0 -444 -20 -68
-88 -143 -157 -173 -43 -18 -65 -22 -123 -18 -107 7 -183 57 -233 152 -27 51
-27 52 -27 261 0 209 0 210 27 261 32 61 94 117 152 138 57 22 169 15 222 -12z
M5050 5249 c-82 -34 -134 -111 -134 -199 1 -61 18 -101 60 -144 61 -60 65 -61
354 -61 289 0 293 1 354 61 93 94 78 241 -32 319 l-44 30 -266 2 c-162 1 -277
-2 -292 -8z M4295 4271 c-56 -34 -70 -58 -70 -121 0 -48 4 -63 25 -85 37 -40
62 -50 220 -89 541 -131 1122 -137 1650 -17 196 45 239 60 279 96 34 31 36 37
36 94 0 53 -4 63 -30 91 -50 52 -89 57 -197 27 -123 -35 -313 -72 -473 -94
-185 -24 -629 -24 -810 1 -158 21 -396 69 -485 96 -81 25 -107 25 -145 1z"/>
</g>
</svg>
