<?xml version="1.0" standalone="no"?>
<!DOCTYPE svg PUBLIC "-//W3C//DTD SVG 20010904//EN"
 "http://www.w3.org/TR/2001/REC-SVG-20010904/DTD/svg10.dtd">
<svg version="1.0" xmlns="http://www.w3.org/2000/svg"
 width="2048.000000pt" height="2048.000000pt" viewBox="0 0 2048.000000 2048.000000"
 preserveAspectRatio="xMidYMid meet">
<metadata>
Created by potrace 1.13, written by Peter Selinger 2001-2015
</metadata>
<g transform="translate(0.000000,2048.000000) scale(0.192120,-0.192120)"
fill="#000000" stroke="none">
<path d="M6220 9434 c-334 -32 -673 -141 -950 -307 l-75 -45 -25 20 c-183 142
-395 228 -566 228 -143 0 -247 -44 -345 -147 -96 -100 -147 -230 -158 -400
l-6 -102 -71 45 c-151 95 -381 167 -576 183 -317 24 -622 -61 -903 -253 -383
-262 -524 -677 -414 -1221 22 -109 76 -283 114 -370 14 -31 25 -60 25 -64 0
-5 -21 -22 -47 -37 -131 -76 -272 -209 -360 -341 -248 -374 -167 -836 202
-1146 64 -54 176 -132 199 -140 6 -2 -22 -44 -62 -93 -76 -95 -172 -272 -191
-356 -6 -26 -11 -75 -11 -110 1 -114 43 -180 255 -398 239 -247 295 -330 295
-441 0 -148 -174 -335 -467 -503 -46 -26 -83 -50 -83 -53 0 -8 162 7 310 28
423 60 671 183 764 378 29 62 31 72 30 176 -1 61 -11 180 -23 266 -11 86 -21
160 -21 164 0 4 29 -28 64 -72 160 -197 415 -409 666 -553 41 -23 98 -64 125
-90 76 -72 212 -179 298 -235 89 -58 81 -27 77 -300 -1 -99 1 -237 5 -306 l7
-126 32 7 c47 10 94 38 107 62 8 14 10 58 6 132 -4 88 -12 130 -36 204 -42
124 -41 131 12 89 249 -202 540 -286 952 -273 345 10 569 80 790 246 44 33 81
56 83 50 2 -5 -13 -58 -32 -117 -20 -59 -41 -122 -46 -139 -6 -17 -10 -69 -10
-116 0 -71 3 -90 21 -112 25 -32 62 -52 112 -61 l37 -7 0 365 0 365 68 46 c73
48 163 119 263 207 35 30 96 73 134 94 273 149 573 424 745 684 13 20 15 -11
15 -266 l0 -288 28 -58 c71 -144 302 -307 562 -395 78 -27 190 -52 234 -52 7
0 -17 33 -55 73 -207 217 -282 444 -201 609 33 67 125 204 287 427 268 370
363 589 362 831 0 288 -113 565 -313 771 -38 40 -69 74 -69 75 0 2 28 52 62
112 166 288 272 607 285 857 13 264 -59 458 -240 651 -181 192 -426 329 -714
400 l-113 27 0 37 c0 66 -30 213 -65 318 -131 391 -393 659 -770 789 -183 63
-431 94 -615 77z m380 -279 c47 -9 107 -23 134 -31 60 -17 56 -17 56 1 0 18
22 10 125 -41 146 -74 272 -190 367 -339 82 -127 119 -219 158 -393 28 -126
50 -168 128 -247 84 -83 120 -105 280 -165 153 -57 212 -86 317 -155 116 -77
237 -209 294 -322 20 -40 21 -57 21 -305 0 -247 -2 -269 -25 -361 -36 -141
-60 -207 -121 -337 -105 -224 -114 -282 -64 -389 17 -35 40 -77 52 -94 48 -68
153 -275 182 -360 13 -39 16 -92 16 -279 l0 -231 -37 -86 c-47 -110 -106 -206
-287 -464 -159 -227 -198 -290 -251 -403 -34 -73 -44 -104 -69 -211 l-11 -53
-32 20 c-19 11 -35 31 -39 47 -4 15 -13 37 -19 48 -7 11 -15 75 -19 145 -8
186 -41 283 -123 363 -46 45 -66 58 -115 77 -24 8 -28 15 -28 51 0 23 20 107
45 188 92 303 118 454 113 662 -2 120 -6 149 -22 172 -11 15 -27 27 -40 27
-21 0 -23 -6 -34 -147 -43 -521 -268 -1118 -574 -1521 -39 -52 -81 -98 -92
-102 -12 -5 -57 -16 -100 -25 -43 -10 -100 -28 -125 -42 -145 -80 -285 -177
-340 -235 -17 -18 -43 -57 -58 -86 -22 -46 -25 -61 -20 -112 l7 -58 -98 -50
c-267 -137 -544 -202 -855 -202 -296 1 -539 55 -799 178 l-118 55 0 64 c0 47
-6 76 -24 111 -41 81 -92 125 -317 274 -132 88 -211 128 -254 128 -93 0 -120
24 -259 234 -221 331 -380 746 -457 1191 -22 127 -21 176 7 309 16 75 11 88
-30 78 -30 -7 -65 -41 -88 -86 -18 -36 -19 -54 -16 -240 4 -191 6 -208 40
-336 19 -74 56 -200 81 -280 41 -130 53 -189 48 -242 0 -10 -18 -26 -39 -37
-52 -27 -125 -99 -153 -152 -21 -40 -24 -61 -29 -220 -4 -146 -8 -180 -22
-195 -9 -11 -21 -38 -27 -60 -13 -50 -38 -75 -52 -53 -7 11 -9 11 -9 -4 0 -14
-3 -15 -19 -5 -16 10 -19 27 -23 122 -4 106 -6 115 -45 198 -52 110 -109 186
-276 367 -180 195 -181 197 -185 286 -5 90 5 122 76 245 65 112 109 207 117
254 14 74 -52 174 -229 351 -140 139 -201 226 -231 330 -13 44 -16 90 -13 218
3 162 3 162 36 222 72 131 91 156 243 311 225 230 236 257 178 460 -80 281
-79 273 -79 570 0 303 4 329 75 442 144 231 349 375 655 460 85 23 113 26 265
27 193 0 245 -7 245 -34 0 -14 14 -21 58 -31 31 -7 122 -36 203 -65 80 -29
161 -56 180 -60 107 -20 239 123 299 325 39 130 72 176 158 220 116 58 262 32
502 -87 230 -114 237 -113 530 22 228 106 449 171 655 195 110 12 342 4 445
-15z M4165 7393 c-141 -51 -446 -296 -500 -402 -33 -65 -37 -122 -11 -157 14
-18 19 -15 103 67 48 47 117 111 153 141 103 89 293 228 310 228 9 0 76 -18
150 -41 472 -142 846 -213 1215 -229 356 -16 621 -58 924 -147 86 -25 164 -48
173 -50 28 -8 35 42 10 86 -65 116 -499 234 -967 261 -515 30 -734 68 -1284
221 -139 39 -212 44 -276 22z M3413 6710 c-244 -52 -344 -284 -288 -666 55
-369 286 -875 435 -951 73 -38 157 -48 290 -35 158 16 293 45 731 156 458 116
582 139 749 139 168 0 291 -23 766 -143 806 -205 962 -208 1102 -25 120 158
271 522 322 780 30 147 37 337 17 432 -32 148 -108 248 -225 295 -52 21 -71
23 -237 22 -290 -1 -505 -29 -1005 -128 -458 -92 -522 -100 -740 -100 -217 0
-280 8 -740 99 -368 73 -459 89 -648 109 -168 19 -474 28 -529 16z m385 -255
c279 -28 302 -32 303 -48 3 -29 -6 -47 -61 -117 -31 -42 -69 -99 -84 -128 -26
-51 -26 -54 -26 -273 l0 -222 34 -71 c19 -39 60 -102 90 -140 31 -38 56 -75
56 -83 0 -33 -117 -67 -274 -79 -110 -9 -180 11 -229 65 -76 84 -171 285 -257
543 -29 90 -30 96 -30 290 0 240 1 243 120 282 31 10 119 5 358 -19z m3439 12
c17 -7 44 -22 58 -35 l27 -23 -4 -232 -4 -232 -46 -130 c-107 -301 -193 -454
-283 -503 -23 -13 -55 -17 -135 -16 -154 1 -300 39 -300 77 0 8 25 46 55 86
30 40 62 89 71 109 9 20 23 51 30 69 11 23 14 86 14 252 l0 222 -31 62 c-17
34 -56 94 -85 134 -55 73 -64 96 -42 109 7 5 89 20 183 35 188 30 432 38 492
16z m-2332 -196 c323 -55 533 -54 874 5 184 31 184 31 130 -86 l-39 -85 0
-217 c0 -211 1 -219 25 -275 32 -71 30 -97 -8 -101 -16 -2 -97 10 -180 27
-324 65 -472 62 -846 -18 -66 -14 -100 -17 -113 -10 -23 12 -23 14 7 103 23
70 25 87 25 281 l0 207 -35 81 c-19 44 -35 89 -35 100 0 22 -5 23 195 -12z
m-483 -41 c54 -15 118 -68 144 -120 22 -42 23 -57 24 -221 0 -169 -1 -177 -26
-228 -72 -143 -267 -172 -375 -54 -60 64 -64 82 -64 278 0 167 2 183 22 222
55 103 167 153 275 123z m1968 -11 c55 -25 95 -62 123 -114 20 -37 22 -55 22
-220 0 -156 -2 -185 -19 -215 -55 -105 -159 -156 -266 -130 -70 17 -122 58
-154 121 -25 51 -26 59 -26 228 1 163 2 179 23 220 56 110 189 159 297 110z
M4998 4881 c-29 -25 -32 -35 -36 -95 -3 -50 0 -72 12 -91 36 -54 41 -55 334
-56 172 0 278 4 291 10 43 24 61 60 61 128 0 61 -2 67 -34 99 l-34 34 -281 0
-281 0 -32 -29z M4642 4339 c-66 -33 -97 -87 -97 -169 0 -77 18 -111 94 -173
54 -44 191 -116 276 -145 330 -112 738 -65 1001 116 74 50 109 87 128 134 65
155 -110 315 -257 237 -14 -8 -53 -33 -86 -56 -34 -23 -87 -51 -119 -63 -227
-87 -539 -53 -709 77 -90 69 -153 80 -231 42z M3450 2825 c-104 -26 -216 -85
-299 -160 l-40 -36 -103 35 c-141 47 -230 60 -390 53 -158 -6 -239 -26 -383
-96 -180 -88 -399 -272 -559 -471 -76 -95 -216 -301 -220 -324 -1 -8 -38 -65
-83 -128 -229 -320 -461 -720 -665 -1148 -54 -113 -98 -208 -98 -212 0 -5
2124 -8 4720 -8 2596 0 4720 3 4720 8 0 16 -200 426 -280 572 -174 323 -360
623 -512 828 -38 52 -64 91 -57 86 14 -9 -12 37 -82 141 -207 310 -468 553
-720 669 -125 58 -209 77 -357 83 -159 7 -249 -6 -390 -53 l-103 -35 -47 42
c-63 55 -163 113 -242 140 -124 42 -420 36 -598 -12 -158 -42 -242 -104 -370
-274 -113 -147 -234 -284 -384 -431 -207 -203 -360 -315 -485 -354 l-57 -17
40 -5 c21 -3 104 -6 184 -7 80 -1 213 -6 295 -11 644 -41 1104 -127 1380 -256
6 -2 21 24 34 58 79 206 214 422 346 553 94 93 160 138 267 184 57 23 75 26
188 26 105 0 135 -4 184 -23 97 -36 166 -82 256 -172 203 -201 382 -557 520
-1031 64 -220 150 -608 150 -675 0 -8 -43 13 -106 51 -172 104 -72 96 -1115
93 -1000 -3 -928 1 -1002 -64 -20 -19 -41 -34 -45 -34 -5 0 -60 34 -122 76
-311 207 -723 342 -1182 385 -162 15 -615 6 -748 -14 -464 -72 -783 -188
-1083 -393 -43 -30 -83 -54 -89 -54 -5 0 -30 17 -54 39 -26 22 -63 43 -89 50
-31 8 -314 11 -943 11 -1017 0 -911 9 -1066 -89 -50 -32 -97 -61 -105 -66 -17
-10 -10 45 30 245 164 803 451 1395 771 1588 105 63 159 77 298 77 113 0 131
-3 188 -26 107 -46 173 -91 267 -184 131 -130 264 -341 345 -550 13 -33 24
-61 25 -62 1 -1 37 13 81 32 150 65 367 116 665 159 299 43 690 76 915 76 67
0 149 3 184 7 l62 6 -56 18 c-124 38 -278 150 -484 353 -150 147 -271 284
-384 431 -123 163 -205 226 -348 269 -139 42 -454 59 -570 31z m425 -251 c92
-18 163 -45 220 -86 62 -44 190 -174 229 -231 19 -29 87 -110 150 -180 64 -71
116 -137 116 -148 0 -32 -53 -46 -290 -74 -262 -31 -437 -61 -642 -112 -120
-31 -151 -35 -171 -26 -16 7 -69 78 -140 185 -109 164 -176 246 -331 402 -79
80 -76 89 24 81 80 -7 122 4 135 35 7 16 45 40 130 80 66 31 138 63 160 70 94
31 258 32 410 4z m3292 1 c29 -7 109 -39 177 -72 94 -44 126 -63 131 -80 7
-31 71 -47 152 -38 58 6 63 5 63 -12 0 -11 -51 -71 -118 -139 -122 -122 -180
-196 -294 -369 -69 -106 -99 -139 -135 -148 -12 -3 -82 10 -155 29 -183 46
-371 79 -643 113 -240 30 -285 40 -285 65 0 9 28 47 63 86 204 233 267 306
267 317 0 22 161 160 223 191 145 73 391 98 554 57z m-4937 -269 c0 -65 -5
-70 -120 -115 -108 -41 -268 -118 -390 -186 l-65 -36 74 71 c165 159 388 298
477 298 20 0 24 -6 24 -32z m6297 12 c32 -12 89 -40 127 -62 79 -48 253 -185
311 -246 l40 -43 -65 37 c-115 66 -279 144 -390 187 -115 45 -120 49 -120 117
0 39 15 41 97 10z m-7187 -1409 c-46 -185 -63 -232 -99 -271 -22 -25 -31 -28
-92 -28 -89 0 -99 5 -99 46 0 47 139 308 269 504 l56 85 3 -86 c2 -74 -3 -111
-38 -250z m8078 117 c117 -202 182 -332 182 -366 0 -42 -17 -50 -102 -50 l-78
0 -24 38 c-26 39 -48 110 -90 281 -20 79 -26 129 -26 210 l1 106 22 -29 c12
-16 64 -101 115 -190z m-3873 -376 c39 -6 79 -13 89 -16 19 -6 19 -7 0 -17
-27 -15 -582 -15 -609 0 -16 10 -17 13 -5 17 65 24 400 33 525 16z M5275 1694
c35 -26 63 -27 97 -5 l33 21 -75 0 c-69 -1 -73 -2 -55 -16z"/>
</g>
</svg>
