<?xml version="1.0" standalone="no"?>
<!DOCTYPE svg PUBLIC "-//W3C//DTD SVG 20010904//EN"
 "http://www.w3.org/TR/2001/REC-SVG-20010904/DTD/svg10.dtd">
<svg version="1.0" xmlns="http://www.w3.org/2000/svg"
 width="2048.000000pt" height="2048.000000pt" viewBox="0 0 2048.000000 2048.000000"
 preserveAspectRatio="xMidYMid meet">
<metadata>
Created by potrace 1.13, written by Peter Selinger 2001-2015
</metadata>
<g transform="translate(0.000000,2048.000000) scale(0.192120,-0.192120)"
fill="#000000" stroke="none">
<path d="M6045 10249 c-360 -34 -792 -126 -1320 -283 -1141 -338 -1946 -725
-2395 -1153 -241 -229 -467 -582 -569 -889 -69 -207 -85 -302 -85 -519 -1
-149 3 -208 18 -275 77 -353 243 -600 570 -847 704 -533 1256 -1049 1814
-1698 448 -521 837 -1055 1255 -1721 70 -111 129 -237 153 -324 14 -49 18 -99
18 -205 0 -125 -3 -149 -27 -220 -77 -230 -260 -449 -518 -621 -195 -130 -384
-209 -559 -233 -297 -42 -606 -152 -707 -252 -86 -85 -83 -143 10 -234 143
-140 574 -307 997 -386 165 -30 479 -38 622 -14 177 29 343 94 453 178 22 17
94 85 160 152 132 134 209 193 330 253 164 82 296 111 629 142 394 36 502 71
657 218 93 87 140 172 166 297 28 141 -10 331 -104 520 -99 197 -204 335 -438
575 -228 233 -313 356 -403 585 -72 181 -114 338 -198 738 -206 982 -340 1376
-595 1758 -234 350 -631 727 -1054 1001 -118 77 -317 191 -394 226 -48 22 -52
26 -33 33 12 5 109 14 217 20 317 20 659 -7 1030 -81 193 -38 295 -50 425 -50
369 0 795 97 1235 282 202 84 315 157 428 277 173 183 279 418 328 726 20 119
17 426 -5 560 -41 254 -97 431 -206 650 -180 360 -439 603 -750 704 -161 51
-360 92 -549 111 -119 12 -474 11 -606 -1z m705 -263 c220 -33 433 -98 555
-169 204 -119 416 -404 513 -692 77 -225 103 -389 109 -667 5 -190 3 -239 -12
-305 -55 -250 -174 -453 -339 -577 -183 -138 -676 -309 -1061 -368 -197 -30
-480 -29 -650 1 -450 82 -626 101 -909 101 -216 -1 -321 -15 -400 -55 -98 -50
-196 -161 -196 -223 0 -80 113 -217 265 -324 44 -30 103 -78 131 -105 29 -28
90 -76 135 -108 467 -325 810 -679 1002 -1035 144 -267 268 -664 392 -1255
100 -477 171 -757 231 -915 67 -174 154 -345 240 -471 44 -65 159 -206 190
-234 46 -42 230 -243 286 -314 76 -95 122 -167 167 -261 l36 -75 3 -167 c4
-184 0 -200 -60 -258 -83 -80 -215 -116 -553 -150 -295 -29 -433 -62 -602
-141 -115 -54 -241 -142 -362 -251 -246 -221 -271 -238 -416 -287 -128 -42
-239 -55 -445 -48 -247 7 -452 47 -708 138 -167 59 -217 95 -178 128 21 17 60
27 281 72 216 43 316 77 474 161 412 217 728 578 836 952 22 79 25 106 25 260
0 134 -4 186 -19 241 -33 125 -112 293 -219 465 -386 620 -868 1272 -1331
1800 -347 396 -764 811 -1156 1151 -127 110 -401 331 -500 403 -336 244 -461
394 -539 647 l-27 85 3 300 3 299 38 110 c61 176 192 422 306 574 91 122 292
310 450 422 427 302 1081 592 1906 844 558 170 1000 271 1340 304 61 6 124 13
140 15 72 10 526 -3 625 -18z M2747 8404 c-56 -29 -102 -93 -111 -157 -5 -30
0 -65 17 -122 44 -147 52 -210 51 -405 0 -150 -5 -204 -22 -283 -28 -129 -69
-248 -131 -383 -30 -65 -51 -125 -51 -145 0 -198 237 -295 372 -152 38 39 129
236 173 373 74 232 101 425 92 669 -6 168 -23 281 -63 418 -33 113 -55 147
-118 183 -67 39 -139 40 -209 4z m164 -202 c9 -9 24 -36 33 -60 14 -37 16 -93
16 -413 0 -340 -2 -377 -20 -450 -58 -225 -152 -399 -216 -399 -29 0 -54 35
-54 75 1 16 9 53 19 80 135 364 135 367 128 817 -5 279 -3 368 6 372 20 9 71
-4 88 -22z"/>
</g>
</svg>
