<?xml version="1.0" standalone="no"?>
<!DOCTYPE svg PUBLIC "-//W3C//DTD SVG 20010904//EN"
 "http://www.w3.org/TR/2001/REC-SVG-20010904/DTD/svg10.dtd">
<svg version="1.0" xmlns="http://www.w3.org/2000/svg"
 width="2048.000000pt" height="2048.000000pt" viewBox="0 0 2048.000000 2048.000000"
 preserveAspectRatio="xMidYMid meet">
<metadata>
Created by potrace 1.13, written by Peter Selinger 2001-2015
</metadata>
<g transform="translate(0.000000,2048.000000) scale(0.192120,-0.192120)"
fill="#000000" stroke="none">
<path d="M6517 9423 c156 -153 250 -338 288 -565 8 -48 -4 -49 -71 -6 -27 17
-102 57 -166 90 -332 166 -711 268 -1168 314 -182 18 -617 20 -820 4 -294 -23
-448 -49 -295 -50 91 0 245 -24 365 -55 116 -31 299 -119 360 -174 l45 -41
-85 8 c-142 12 -625 8 -750 -6 -811 -94 -1438 -415 -1830 -937 -81 -108 -123
-175 -111 -175 5 0 15 8 22 17 8 9 48 42 90 73 152 113 383 211 574 245 111
19 312 30 341 19 20 -8 16 -15 -55 -79 -465 -426 -801 -1029 -921 -1654 -70
-359 -69 -804 1 -1208 78 -456 256 -945 498 -1368 131 -230 339 -523 498 -703
l56 -64 278 278 279 279 42 -41 c63 -60 133 -114 223 -174 44 -29 82 -55 84
-57 3 -2 4 -119 2 -261 -2 -292 5 -432 24 -432 20 0 97 61 102 81 3 10 10 19
15 19 18 0 3 239 -20 328 -12 46 -22 87 -22 92 0 5 37 -18 83 -50 211 -153
445 -226 762 -237 392 -14 676 61 929 246 39 28 71 49 73 47 2 -2 -10 -53 -27
-115 -25 -92 -30 -130 -30 -221 0 -61 4 -110 9 -110 5 0 11 -9 14 -20 5 -20
91 -80 114 -80 10 0 13 71 13 363 l0 363 72 50 c108 73 217 164 306 254 l80
80 109 -108 c60 -60 140 -149 178 -198 38 -49 72 -93 75 -97 8 -9 96 61 203
162 216 204 421 519 532 816 39 103 85 271 85 309 1 53 17 49 71 -17 104 -126
163 -247 183 -377 l12 -75 17 55 c37 120 127 495 156 646 36 185 74 452 93
644 18 183 18 804 0 965 -71 629 -287 1172 -609 1524 l-67 74 99 -7 c258 -18
505 -101 669 -225 36 -28 66 -45 66 -38 0 7 -18 50 -40 96 -129 267 -354 463
-677 592 -160 63 -476 129 -622 129 l-48 0 -6 69 c-11 132 -80 262 -207 391
-94 95 -186 163 -330 246 -81 46 -270 134 -286 134 -3 0 30 -35 73 -77z
m-1003 -429 c164 -21 267 -40 421 -78 114 -28 327 -97 407 -130 10 -5 17 -2
20 7 2 12 27 4 113 -34 119 -54 223 -89 261 -89 36 0 91 31 164 94 36 31 72
56 82 56 22 0 65 -53 77 -96 16 -58 65 -118 161 -195 72 -58 93 -66 246 -92
112 -20 129 -25 132 -42 2 -16 20 -24 101 -43 64 -15 105 -30 117 -43 17 -19
17 -21 -14 -64 -18 -25 -47 -66 -64 -91 -64 -89 -37 -164 164 -460 64 -93 136
-209 160 -259 88 -174 166 -417 215 -665 l27 -135 4 -555 c3 -556 -1 -654 -33
-780 -8 -30 -28 -129 -46 -220 -35 -179 -47 -216 -77 -243 -19 -18 -22 -18
-59 1 -87 44 -121 36 -216 -49 -61 -54 -108 -135 -157 -270 -84 -228 -127
-317 -230 -474 -128 -193 -250 -325 -302 -325 -46 0 -128 84 -128 130 0 9 28
59 63 111 131 196 272 464 315 601 20 61 22 89 22 308 0 237 0 241 -24 279
-16 25 -39 44 -66 55 -24 9 -44 15 -47 13 -2 -3 1 -53 7 -113 7 -60 10 -188 8
-284 l-3 -176 -97 -194 c-103 -207 -204 -367 -323 -515 -103 -127 -121 -142
-146 -127 -11 7 -38 15 -62 18 -35 5 -53 0 -111 -31 -88 -46 -216 -136 -267
-188 -59 -59 -93 -131 -94 -197 l0 -55 -100 -51 c-96 -51 -279 -118 -400 -148
-187 -46 -499 -60 -700 -31 -202 29 -421 98 -579 183 l-69 37 -1 50 c-3 102
-91 208 -225 272 -98 47 -148 53 -197 24 l-37 -22 -101 103 c-168 171 -339
414 -460 656 -56 111 -144 321 -152 359 -4 25 35 135 143 401 9 21 -68 14
-112 -11 -49 -28 -87 -88 -125 -198 -41 -118 -42 -233 -2 -351 79 -230 238
-516 428 -772 50 -67 94 -130 97 -140 12 -31 -23 -84 -115 -171 -115 -109
-136 -113 -213 -32 -106 111 -306 430 -448 713 -156 311 -282 701 -342 1056
-26 157 -26 159 -23 615 l4 458 36 155 c60 252 124 425 241 654 103 201 242
407 393 580 193 222 274 342 274 407 0 37 -43 104 -112 176 -45 46 -69 78 -66
90 4 21 58 49 181 94 65 24 91 38 97 54 7 18 34 29 157 63 311 86 511 112
1008 130 206 8 225 10 275 34 72 33 154 113 182 179 l23 51 105 -7 c58 -3 154
-13 214 -21z M5817 7695 c-131 -21 -279 -59 -390 -99 -240 -87 -678 -336 -779
-442 -38 -41 -61 -100 -53 -141 3 -18 10 -33 16 -33 6 0 45 27 88 59 408 311
873 488 1337 508 l130 6 24 -89 c36 -138 139 -434 150 -434 4 0 17 18 29 41
40 70 39 143 -4 288 -57 195 -107 274 -207 328 -44 23 -221 27 -341 8z M3382
7271 l-273 -276 139 -415 140 -416 -140 -278 -140 -279 284 -286 284 -286 129
-267 c72 -147 133 -267 136 -268 3 0 66 124 140 276 l134 276 558 279 557 279
558 -279 557 -279 134 -276 c74 -152 137 -276 140 -276 3 1 64 121 136 268
l129 267 284 286 284 286 -140 279 -140 278 140 416 139 415 -276 278 c-152
152 -277 277 -278 277 -1 0 -65 -125 -141 -277 l-138 -278 -694 -138 -694
-138 -694 138 -693 138 -139 278 c-76 152 -141 276 -144 276 -3 -1 -128 -126
-278 -278z m261 -153 c13 -18 38 -59 56 -90 39 -70 151 -175 233 -218 44 -23
111 -43 261 -75 111 -24 272 -62 357 -84 184 -47 581 -127 697 -140 117 -13
197 -1 666 94 465 95 746 166 826 210 66 36 184 151 213 208 35 69 69 116 89
122 31 10 81 -22 164 -105 l80 -80 -1 -58 c0 -43 -18 -112 -76 -287 -93 -283
-101 -317 -96 -430 3 -87 5 -95 82 -265 43 -96 83 -189 88 -207 13 -48 -12
-96 -84 -161 -153 -138 -287 -275 -370 -379 -63 -80 -96 -113 -111 -113 -13 0
-52 32 -107 90 -117 124 -172 162 -314 216 -196 76 -254 101 -340 151 -210
121 -424 216 -559 249 -60 15 -72 15 -134 1 -102 -23 -351 -131 -495 -214
-144 -83 -190 -104 -373 -174 -173 -66 -218 -95 -336 -216 -55 -57 -107 -103
-117 -103 -24 1 -41 16 -97 90 -94 123 -165 199 -294 314 -136 122 -171 165
-171 213 0 16 26 87 59 158 148 329 148 333 0 784 -39 118 -73 238 -76 267 -5
46 -3 57 19 82 45 54 180 171 201 175 12 2 25 5 29 6 4 0 18 -14 31 -31z
M4164 6110 c-46 -14 -119 -84 -139 -132 -36 -91 -12 -203 57 -264 66 -58 105
-66 295 -62 169 3 170 3 219 33 30 19 60 49 79 79 26 43 30 59 30 121 0 62 -4
78 -30 121 -19 30 -49 60 -79 79 l-49 30 -176 2 c-97 1 -190 -2 -207 -7z
M6081 6094 c-124 -62 -168 -213 -95 -331 18 -29 49 -59 78 -78 49 -30 50 -30
219 -33 190 -4 229 4 295 62 100 88 98 255 -4 344 -60 54 -97 62 -281 62 -152
0 -161 -1 -212 -26z M4998 4881 c-29 -25 -32 -35 -36 -95 -3 -50 0 -72 12 -91
36 -55 42 -56 334 -56 174 0 277 3 290 10 44 24 62 60 62 128 0 61 -2 67 -34
99 l-34 34 -281 0 -281 0 -32 -29z M6055 4299 c-132 -58 -354 -133 -491 -165
-118 -28 -122 -28 -544 -34 -309 -4 -431 -8 -446 -17 -12 -7 -34 -26 -48 -44
-48 -57 -29 -159 37 -199 31 -19 55 -20 672 -20 616 0 642 1 684 20 23 11 61
34 82 51 105 83 251 369 219 429 -16 30 -62 25 -165 -21z M3176 3020 c-39 -35
-108 -138 -142 -215 -22 -50 -24 -52 -81 -64 -32 -7 -113 -29 -180 -48 l-123
-34 -57 62 c-77 83 -191 173 -246 194 -41 15 -47 15 -75 1 -78 -40 -232 -335
-287 -546 -13 -50 -24 -71 -50 -93 -85 -70 -191 -251 -226 -386 -32 -119 -12
-218 55 -280 14 -14 26 -30 26 -37 0 -7 -13 -42 -29 -78 -71 -157 -176 -485
-231 -721 -23 -97 -90 -423 -90 -437 0 -4 1750 -8 3890 -8 2347 0 3890 4 3890
9 0 23 -82 408 -110 516 -67 260 -147 501 -218 657 l-29 65 38 40 c38 41 69
119 69 173 0 129 -135 396 -246 488 -27 23 -38 44 -58 113 -69 237 -221 510
-298 535 -41 13 -143 -52 -256 -162 l-107 -103 -140 39 c-77 21 -157 42 -178
46 -35 6 -40 12 -82 93 -53 100 -105 174 -139 196 -23 15 -28 15 -61 0 -36
-18 -153 -136 -182 -186 l-16 -28 -141 6 c-115 5 -152 3 -201 -11 -33 -10
-188 -80 -345 -156 -407 -198 -584 -264 -838 -312 -160 -31 -522 -33 -682 -4
-255 46 -474 126 -850 312 -140 69 -289 137 -330 151 -71 24 -83 25 -222 20
l-146 -5 -25 36 c-32 49 -112 137 -145 161 -50 34 -67 34 -106 1z m372 -349
c23 -43 42 -86 42 -94 0 -41 -124 -78 -324 -98 -118 -11 -273 -8 -308 6 -26
10 -23 71 8 153 l26 70 66 4 c44 3 86 14 124 31 48 23 71 27 150 28 51 0 102
4 113 9 28 11 53 -15 103 -109z m3780 97 c80 1 102 -3 150 -24 31 -14 86 -29
122 -32 l65 -7 24 -60 c32 -80 38 -137 17 -154 -24 -20 -184 -26 -317 -12
-206 22 -319 54 -319 92 0 29 26 87 71 156 39 59 42 61 67 51 15 -6 69 -10
120 -10z m-4883 -153 c62 -31 122 -32 177 -4 l40 21 39 -38 c53 -51 156 -196
186 -261 30 -64 24 -87 -27 -113 -182 -93 -794 -164 -887 -104 -18 11 -23 24
-23 59 l0 46 74 33 c95 43 138 89 200 210 69 134 83 155 109 166 35 14 59 11
112 -15z m5903 10 c12 -9 51 -74 87 -145 74 -145 122 -198 207 -228 57 -20 70
-38 66 -90 -5 -59 -33 -67 -213 -65 -272 3 -621 69 -719 136 -24 17 -27 25
-23 54 4 19 27 68 52 108 54 86 171 235 186 235 5 0 23 -7 40 -15 47 -25 98
-25 169 0 78 28 118 30 148 10z m-4451 -119 c43 -19 122 -55 175 -80 198 -93
523 -214 703 -261 217 -57 324 -70 560 -69 238 0 366 17 585 78 170 47 508
176 718 275 135 64 177 79 187 71 8 -7 19 -9 24 -5 15 9 60 -17 117 -67 79
-70 126 -105 167 -122 56 -23 170 -44 280 -52 73 -5 97 -10 97 -21 0 -7 8 -17
17 -20 20 -8 45 -28 128 -105 82 -77 101 -91 161 -121 114 -58 381 -104 654
-113 l175 -6 33 -36 c19 -22 32 -47 32 -64 0 -55 32 -174 56 -211 l25 -38 -47
-20 c-175 -78 -676 -101 -1079 -50 -88 12 -338 47 -555 80 -728 109 -1037 143
-1497 163 -286 12 -692 3 -948 -22 -270 -26 -334 -33 -515 -56 -107 -13 -377
-52 -600 -85 -223 -33 -472 -69 -555 -80 -396 -51 -905 -27 -1079 50 l-47 20
27 41 c28 43 40 84 54 191 9 72 25 106 52 115 10 3 93 7 185 9 173 3 313 19
468 54 174 38 232 70 360 197 33 33 72 68 88 78 15 10 27 25 27 32 0 10 15 14
53 14 77 0 255 26 307 45 66 24 117 58 195 130 39 36 82 69 98 72 15 3 27 9
27 14 0 13 0 13 87 -25z m901 -1037 c2 -9 -33 -59 -78 -110 -94 -110 -130
-173 -130 -228 0 -22 -6 -44 -15 -51 -8 -7 -15 -9 -15 -5 0 4 -6 3 -13 -3 -9
-8 -118 16 -407 89 -217 55 -409 106 -427 114 -17 8 -35 15 -40 15 -20 0 -63
26 -63 38 0 7 12 17 28 23 34 14 428 71 677 98 403 45 478 48 483 20z m1302 6
c317 -29 869 -103 923 -124 15 -6 27 -16 27 -23 0 -12 -43 -38 -63 -38 -5 0
-23 -7 -40 -15 -18 -8 -211 -60 -431 -115 -353 -90 -402 -100 -427 -90 -26 11
-29 17 -29 57 0 64 -47 149 -132 242 -77 83 -85 121 -26 121 18 0 107 -7 198
-15z m-491 -173 l279 -139 -169 -248 c-92 -137 -167 -250 -166 -251 4 -3 1977
495 1988 502 8 5 10 2 7 -7 -8 -20 -506 -761 -524 -779 -15 -16 -6 -21 -114
67 -28 24 -70 48 -93 54 -32 8 -160 8 -517 -2 -594 -17 -673 -17 -841 -1 -113
11 -159 11 -265 0 -159 -16 -235 -16 -839 1 -371 10 -490 11 -523 2 -30 -9
-64 -31 -108 -72 -36 -33 -70 -59 -77 -57 -12 4 -536 776 -537 790 0 4 24 0
53 -9 62 -19 1941 -491 1944 -489 1 1 -74 114 -166 250 l-168 249 276 138
c152 76 277 138 279 138 1 1 128 -61 281 -137z m-3494 -37 c158 -22 531 -31
705 -16 96 8 146 9 153 2 6 -6 5 -24 -3 -53 -32 -104 -6 -200 101 -378 88
-145 97 -170 74 -194 -15 -15 -82 -16 -688 -14 l-672 3 -3 55 c-4 69 18 174
75 360 48 156 64 192 96 228 24 26 22 26 162 7z m6577 -5 c33 -26 60 -89 115
-278 42 -141 46 -168 47 -262 l1 -105 -663 -3 c-464 -1 -669 1 -683 9 -28 15
-20 43 41 144 26 44 64 112 83 150 69 137 80 193 52 272 -25 71 -18 76 99 66
159 -13 636 -6 746 10 131 20 134 20 162 -3z"/>
</g>
</svg>
