<?xml version="1.0" standalone="no"?>
<!DOCTYPE svg PUBLIC "-//W3C//DTD SVG 20010904//EN"
 "http://www.w3.org/TR/2001/REC-SVG-20010904/DTD/svg10.dtd">
<svg version="1.0" xmlns="http://www.w3.org/2000/svg"
 width="2048.000000pt" height="2048.000000pt" viewBox="0 0 2048.000000 2048.000000"
 preserveAspectRatio="xMidYMid meet">
<metadata>
Created by potrace 1.13, written by Peter Selinger 2001-2015
</metadata>
<g transform="translate(0.000000,2048.000000) scale(0.192120,-0.192120)"
fill="#000000" stroke="none">
<path d="M7475 8124 c-335 -39 -484 -95 -552 -211 -24 -41 -27 -63 -54 -391
-50 -601 -94 -923 -180 -1305 -105 -464 -188 -682 -358 -938 -101 -152 -183
-249 -324 -385 -564 -546 -1429 -881 -2437 -944 -91 -5 -314 -10 -497 -10
-292 0 -338 -2 -390 -18 -106 -34 -203 -114 -249 -208 l-25 -50 -82 -11 c-103
-14 -178 -42 -241 -90 -67 -52 -103 -106 -122 -185 -16 -64 -17 -66 -53 -73
-135 -23 -272 -105 -346 -207 -48 -64 -85 -164 -85 -228 l0 -37 -72 -7 c-181
-16 -333 -81 -439 -186 -109 -108 -160 -222 -182 -409 l-12 -102 -55 -23
c-191 -77 -300 -252 -300 -481 0 -311 206 -600 492 -690 107 -34 242 -49 428
-49 173 0 206 5 440 59 219 51 294 59 520 58 216 0 251 -4 585 -58 287 -47
394 -55 725 -55 599 0 907 43 1444 202 344 101 521 146 771 197 409 82 688
114 1010 113 385 0 615 -40 1105 -192 437 -136 574 -163 840 -164 255 -1 429
35 637 130 185 84 396 257 530 434 73 97 180 307 217 427 62 200 70 266 71
558 0 333 -20 517 -85 776 -41 161 -91 298 -205 554 -123 277 -170 401 -206
542 -56 222 -64 306 -63 673 1 549 33 844 159 1490 76 388 118 647 112 697
-11 99 -112 225 -255 317 -354 229 -1034 419 -1707 476 -111 9 -440 12 -510 4z
m582 -209 c463 -43 989 -170 1304 -316 49 -23 89 -48 89 -55 0 -7 41 -36 92
-65 50 -29 111 -71 136 -95 l44 -43 -5 -173 c-4 -160 -9 -195 -60 -453 -69
-341 -111 -597 -132 -793 -22 -203 -16 -1184 8 -1302 45 -223 88 -365 177
-590 23 -58 50 -127 60 -155 10 -27 35 -85 55 -128 20 -44 47 -109 59 -145 13
-37 40 -112 60 -167 20 -55 36 -114 36 -131 0 -17 12 -82 27 -145 29 -127 40
-289 42 -645 1 -224 -5 -260 -74 -434 -128 -328 -309 -541 -573 -678 -179 -93
-331 -131 -558 -139 -268 -9 -415 16 -852 148 -464 140 -658 179 -990 199
-297 18 -655 -11 -1067 -86 -277 -51 -460 -95 -830 -201 -650 -186 -861 -217
-1490 -218 -370 0 -416 3 -740 55 -289 46 -368 53 -585 53 -221 0 -321 -11
-555 -63 -208 -46 -281 -53 -464 -47 -248 9 -352 37 -473 127 -60 45 -95 90
-140 180 -27 52 -28 61 -28 200 0 172 3 180 108 263 65 52 129 127 147 172 4
11 9 74 10 140 2 137 18 190 80 275 77 105 188 169 373 214 180 44 200 60 238
185 47 159 120 233 303 311 54 22 110 53 124 68 14 15 39 62 57 104 32 78 76
130 137 162 16 8 73 26 127 40 141 38 164 53 215 138 79 132 240 170 452 108
91 -27 125 -32 269 -37 531 -19 1221 105 1750 314 261 103 458 205 675 349
175 116 279 199 424 339 389 376 578 721 720 1315 104 434 153 764 206 1380
25 282 27 296 53 339 43 69 134 106 322 130 109 14 465 12 637 -4z M8766 5490
c-53 -16 -96 -73 -96 -127 0 -15 12 -64 27 -108 24 -72 27 -94 26 -225 0 -123
-4 -160 -26 -241 -90 -342 -302 -551 -595 -588 -40 -5 -84 -17 -98 -26 -75
-49 -84 -149 -20 -213 36 -37 38 -37 114 -36 191 3 401 96 560 248 191 183
315 458 342 756 15 176 -16 392 -71 491 -33 57 -102 87 -163 69z M2601 3724
c-18 -14 -36 -35 -42 -45 -9 -18 -3 -19 180 -19 l191 0 15 24 c13 19 14 29 5
45 -10 20 -19 21 -165 21 -151 0 -154 0 -184 -26z M2265 3460 c-65 -15 -132
-65 -161 -122 l-15 -28 324 0 324 0 21 23 c28 30 29 80 2 107 -11 11 -26 20
-32 21 -125 5 -441 4 -463 -1z M1833 3039 c-62 -24 -156 -106 -184 -160 -10
-21 -19 -41 -19 -44 0 -3 192 -5 428 -5 319 0 433 3 451 13 40 20 64 61 64
108 0 36 -6 48 -36 76 l-37 33 -307 -1 c-284 0 -312 -2 -360 -20z M1290 2529
c-153 -40 -277 -119 -329 -211 -27 -46 -48 -115 -38 -124 2 -2 46 7 98 20 150
38 280 46 767 46 443 0 455 1 492 21 98 55 98 198 0 250 -32 18 -64 19 -475
18 -404 0 -446 -2 -515 -20z"/>
</g>
</svg>
