<?xml version="1.0" standalone="no"?>
<!DOCTYPE svg PUBLIC "-//W3C//DTD SVG 20010904//EN"
 "http://www.w3.org/TR/2001/REC-SVG-20010904/DTD/svg10.dtd">
<svg version="1.0" xmlns="http://www.w3.org/2000/svg"
 width="2048.000000pt" height="2048.000000pt" viewBox="0 0 2048.000000 2048.000000"
 preserveAspectRatio="xMidYMid meet">
<metadata>
Created by potrace 1.13, written by Peter Selinger 2001-2015
</metadata>
<g transform="translate(0.000000,2048.000000) scale(0.192120,-0.192120)"
fill="#000000" stroke="none">
<path d="M5042 9470 c-346 -31 -609 -142 -788 -331 -28 -30 -63 -73 -79 -97
l-29 -44 -125 7 c-320 17 -616 -64 -804 -220 -134 -111 -257 -301 -322 -497
-36 -111 -71 -281 -91 -448 -26 -207 -26 -798 -1 -985 25 -187 63 -345 109
-457 28 -69 44 -128 54 -200 48 -348 231 -836 383 -1024 139 -173 358 -164
1101 46 544 154 684 184 880 184 196 0 333 -29 865 -179 538 -152 759 -192
915 -166 143 24 208 89 325 326 106 215 188 451 233 669 13 63 28 106 41 120
80 85 138 373 162 801 26 465 -19 805 -147 1119 -317 777 -1042 1252 -2077
1361 -185 19 -475 26 -605 15z m576 -305 c994 -102 1667 -544 1907 -1250 8
-22 25 -85 39 -140 25 -97 26 -111 26 -417 0 -207 -4 -319 -10 -323 -16 -10
-161 53 -193 84 -16 14 -40 46 -54 71 -34 59 -157 186 -208 213 -38 21 -56 22
-410 28 -476 9 -607 26 -887 119 -184 61 -224 68 -269 44 -56 -28 -99 -65
-132 -113 -52 -76 -57 -80 -87 -71 -15 4 -72 42 -126 85 -203 159 -236 161
-394 25 -59 -51 -90 -70 -114 -70 -58 0 -242 109 -486 289 -169 125 -254 152
-345 112 -171 -76 -407 -335 -573 -631 -40 -71 -114 -147 -166 -171 -58 -26
-72 -24 -80 12 -3 17 -6 208 -6 423 0 401 5 465 46 631 59 238 176 402 349
492 146 75 248 97 530 111 210 12 227 20 458 229 125 112 325 194 539 221 120
15 484 13 646 -3z m-1521 -1596 c236 -190 466 -333 602 -373 111 -33 188 -12
225 59 17 33 21 57 20 132 l-1 92 168 -163 c297 -289 484 -409 545 -349 39 40
-3 231 -94 427 -38 80 -42 107 -12 71 26 -31 148 -104 230 -138 103 -43 254
-80 415 -103 93 -14 192 -18 435 -18 173 -1 353 1 399 4 l83 5 34 -95 c19 -52
37 -103 40 -112 5 -16 -3 -18 -76 -18 -208 0 -526 -48 -990 -150 -405 -89
-531 -110 -715 -117 -238 -9 -372 9 -865 117 -487 107 -781 150 -1021 150
l-111 0 42 78 c99 184 255 389 401 526 50 47 95 86 100 86 5 0 71 -50 146
-111z m3329 -595 c112 -30 201 -123 243 -251 l22 -67 -21 -81 c-12 -44 -26
-93 -32 -110 -5 -16 -13 -43 -18 -60 -4 -16 -37 -84 -74 -150 -36 -66 -66
-126 -66 -134 0 -18 -41 -162 -88 -306 -87 -271 -200 -473 -285 -511 -81 -37
-335 -16 -459 38 -27 11 -48 27 -48 34 0 7 24 31 53 52 96 72 176 172 221 279
26 62 26 65 26 318 0 251 0 257 -24 303 -91 179 -310 327 -478 323 -49 -1
-108 -20 -132 -43 -8 -7 -29 -24 -48 -37 -67 -49 -193 -187 -220 -241 l-28
-55 0 -246 c0 -282 3 -296 91 -430 48 -71 51 -91 19 -99 -14 -3 -38 -3 -55 2
-88 23 -295 70 -400 90 -96 18 -155 22 -295 22 -191 0 -283 -13 -555 -79 -77
-19 -158 -35 -180 -37 -38 -3 -40 -2 -38 24 1 15 14 43 28 62 15 19 42 70 61
113 l34 78 0 250 0 250 -30 61 c-52 104 -169 219 -293 287 -83 47 -203 30
-337 -46 -83 -47 -214 -181 -245 -250 -25 -57 -25 -62 -25 -305 0 -234 2 -250
23 -302 45 -108 143 -230 240 -295 21 -15 37 -34 37 -45 0 -45 -188 -94 -365
-94 -102 -1 -113 1 -156 26 -82 48 -164 192 -253 446 -51 145 -86 274 -111
412 -9 52 -35 149 -57 215 -21 66 -43 134 -47 150 -4 17 -22 58 -39 92 -37 73
-38 86 -13 145 53 124 167 206 299 216 l68 4 17 -44 c20 -52 58 -91 109 -112
20 -9 119 -25 220 -36 242 -27 303 -37 357 -59 43 -17 133 -45 184 -58 12 -3
74 -9 137 -13 63 -5 162 -20 220 -34 369 -88 489 -106 705 -106 213 0 417 32
815 127 14 3 72 9 130 13 115 9 108 7 230 45 154 48 178 54 312 70 313 38 340
46 388 121 16 26 30 56 30 65 0 31 92 32 196 3z m-3114 -550 c61 -20 123 -75
156 -138 27 -51 27 -52 27 -261 0 -209 0 -210 -27 -261 -50 -95 -126 -145
-233 -152 -93 -6 -158 21 -220 90 -65 72 -75 116 -75 323 0 203 10 250 71 319
79 89 189 119 301 80z m2261 -17 c61 -36 114 -101 132 -161 21 -70 21 -373 0
-443 -20 -68 -88 -143 -157 -173 -43 -18 -65 -22 -123 -18 -107 7 -183 57
-233 152 -27 51 -27 52 -27 261 0 209 0 210 27 261 32 61 94 117 152 138 64
24 173 16 229 -17z M2782 6484 c-125 -145 -191 -383 -179 -639 8 -153 35 -264
97 -391 56 -116 135 -205 216 -244 64 -32 165 -38 230 -16 26 9 49 16 51 16 2
0 3 -14 3 -31 0 -17 7 -79 16 -138 126 -853 361 -1383 794 -1793 l110 -104 0
-293 0 -293 33 7 c85 18 135 67 136 135 1 19 -8 79 -19 133 -11 55 -20 101
-20 103 0 2 32 -23 71 -56 200 -167 533 -250 1009 -250 478 0 808 82 1008 251
60 50 72 57 68 37 -21 -97 -26 -138 -26 -202 0 -91 18 -119 92 -141 29 -8 55
-15 60 -15 4 0 8 131 8 291 l0 292 109 103 c357 339 560 722 705 1324 38 157
92 457 102 570 4 38 8 70 9 70 1 0 22 -7 45 -15 54 -19 146 -19 200 0 138 49
263 223 320 445 30 119 37 314 16 440 -26 159 -88 310 -162 395 l-26 30 6 -55
c33 -293 32 -542 -2 -705 -44 -207 -113 -314 -272 -420 -55 -38 -120 -89 -143
-115 -50 -56 -193 -312 -238 -425 -17 -44 -62 -201 -100 -350 -69 -274 -100
-367 -166 -484 -52 -95 -203 -299 -308 -419 -231 -264 -251 -298 -243 -412 l5
-68 -53 -32 c-126 -76 -307 -137 -496 -167 -166 -26 -870 -26 -1035 0 -196 31
-427 112 -520 183 -32 24 -33 27 -27 79 12 98 -25 165 -195 355 -318 356 -430
577 -572 1126 -56 219 -87 294 -196 479 -79 133 -123 181 -229 248 -85 54
-134 101 -178 171 -116 182 -142 420 -90 814 14 107 24 201 22 210 -2 11 -16
1 -46 -34z M5055 5248 c-85 -30 -139 -107 -139 -198 0 -60 17 -100 60 -144 61
-60 65 -61 354 -61 289 0 293 1 354 61 43 44 60 84 60 144 0 93 -55 169 -143
199 -44 14 -504 14 -546 -1z M4295 4271 c-56 -34 -70 -58 -70 -121 0 -48 4
-63 25 -85 36 -39 61 -49 195 -83 544 -137 1140 -145 1675 -23 196 45 239 60
279 96 34 31 36 37 36 94 0 53 -4 63 -30 91 -50 52 -89 57 -197 27 -123 -35
-313 -72 -473 -94 -185 -24 -629 -24 -810 1 -158 21 -396 69 -485 96 -81 25
-107 25 -145 1z M3300 2844 c-139 -26 -240 -61 -357 -124 l-75 -40 -90 35
c-208 82 -442 125 -686 125 -262 0 -506 -55 -724 -165 -490 -244 -799 -741
-952 -1530 -43 -224 -86 -603 -86 -762 l0 -53 5000 0 5000 0 0 43 c0 81 -21
323 -41 477 -89 695 -297 1222 -604 1535 -190 192 -365 300 -631 385 -152 49
-301 70 -486 70 -244 0 -478 -43 -686 -125 l-89 -35 -84 44 c-172 92 -282 120
-454 119 -145 0 -230 -18 -349 -72 -150 -68 -305 -199 -432 -366 -34 -44 -81
-98 -105 -120 -126 -116 -352 -203 -664 -257 -110 -19 -167 -22 -375 -22 -210
0 -263 3 -375 22 -313 55 -548 146 -669 261 -21 20 -66 72 -99 116 -170 222
-363 361 -576 416 -73 19 -258 33 -311 23z m-1049 -153 c181 -39 476 -152 558
-213 34 -26 51 -23 196 28 217 76 254 85 365 91 124 7 228 -15 345 -71 116
-55 325 -217 325 -251 0 -14 184 -197 237 -234 22 -16 66 -44 96 -61 30 -16
62 -39 71 -49 17 -19 17 -20 -6 -35 -24 -16 -110 -33 -341 -66 -158 -24 -336
-59 -472 -96 -151 -40 -162 -36 -241 96 -21 36 -41 67 -44 70 -3 3 -32 46 -64
95 -117 178 -212 281 -337 364 -75 50 -108 52 -172 11 l-47 -30 -118 73 c-318
199 -512 271 -762 285 -183 10 -91 21 135 17 133 -3 205 -9 276 -24z m6644 20
c42 -6 30 -8 -75 -13 -255 -13 -483 -102 -822 -321 l-57 -37 -47 36 c-47 36
-104 55 -104 35 0 -6 -6 -11 -14 -11 -22 0 -134 -87 -210 -164 -74 -75 -173
-207 -270 -363 -66 -104 -118 -163 -146 -163 -10 0 -91 18 -180 40 -148 36
-257 56 -598 109 -68 11 -135 27 -148 36 -24 15 -25 18 -10 34 9 10 54 41 100
70 84 51 348 289 371 334 15 31 179 151 261 192 115 57 219 79 344 72 114 -6
160 -18 374 -96 125 -46 143 -50 173 -40 18 6 33 15 33 20 0 11 116 70 227
114 112 46 277 92 388 109 96 15 327 19 410 7z m-6730 -316 c129 -20 230 -48
319 -88 l71 -33 110 11 c61 6 117 8 126 4 30 -15 160 -142 221 -217 95 -119
211 -301 292 -461 40 -80 75 -152 77 -158 3 -9 27 -3 84 21 384 166 1396 275
2200 237 715 -34 1253 -117 1530 -236 57 -25 81 -31 84 -22 2 6 37 78 77 158
123 243 281 469 419 597 100 94 93 91 220 78 l110 -12 74 34 c148 68 380 110
552 98 456 -29 867 -302 1054 -699 136 -288 163 -679 74 -1081 -23 -106 -70
-256 -80 -256 -4 0 -33 21 -65 46 -33 25 -80 57 -107 70 l-47 24 -1243 -2
c-1361 -3 -1255 2 -1330 -64 -20 -19 -41 -34 -45 -34 -5 0 -60 34 -122 76
-311 207 -723 342 -1182 385 -162 15 -615 6 -748 -14 -464 -72 -783 -188
-1083 -393 -43 -30 -83 -54 -89 -54 -5 0 -30 17 -54 39 -26 22 -63 43 -89 50
-31 8 -399 11 -1265 11 -1387 0 -1235 10 -1358 -89 -35 -28 -67 -51 -71 -51
-10 0 -66 183 -87 280 -46 221 -57 495 -28 687 53 363 233 655 522 847 188
126 348 185 592 220 63 9 194 5 285 -9z m3380 -1745 c39 -6 79 -13 89 -16 19
-6 19 -7 0 -17 -27 -15 -582 -15 -609 0 -16 10 -17 13 -5 17 65 24 400 33 525
16z"/>
</g>
</svg>
