<?xml version="1.0" standalone="no"?>
<!DOCTYPE svg PUBLIC "-//W3C//DTD SVG 20010904//EN"
 "http://www.w3.org/TR/2001/REC-SVG-20010904/DTD/svg10.dtd">
<svg version="1.0" xmlns="http://www.w3.org/2000/svg"
 width="2048.000000pt" height="2048.000000pt" viewBox="0 0 2048.000000 2048.000000"
 preserveAspectRatio="xMidYMid meet">
<metadata>
Created by potrace 1.13, written by Peter Selinger 2001-2015
</metadata>
<g transform="translate(0.000000,2048.000000) scale(0.192120,-0.192120)"
fill="#000000" stroke="none">
<path d="M602 10323 c-15 -6 -42 -56 -42 -78 0 -9 13 -30 29 -46 l29 -29 180
0 c166 0 181 2 206 21 35 27 36 86 3 117 -22 21 -32 22 -208 21 -101 0 -190
-3 -197 -6z M1525 10305 c-44 -43 -22 -115 39 -131 12 -3 100 -4 195 -2 168 3
173 4 192 27 28 35 25 85 -7 110 -25 20 -40 21 -211 21 -182 0 -184 0 -208
-25z M2466 10309 c-32 -25 -35 -75 -7 -110 19 -23 24 -24 192 -27 95 -2 183
-1 195 2 61 16 83 88 39 131 -24 25 -26 25 -208 25 -171 0 -186 -1 -211 -21z
M3400 10305 c-32 -34 -30 -83 5 -112 25 -22 34 -23 206 -23 l181 0 29 29 c16
16 29 37 29 46 0 24 -27 72 -45 79 -9 3 -99 6 -199 6 -181 0 -183 0 -206 -25z
M4352 10323 c-15 -6 -42 -56 -42 -78 0 -9 13 -30 29 -46 l29 -29 181 0 c172 0
181 1 206 23 35 29 37 78 5 112 -23 25 -24 25 -209 24 -102 0 -192 -3 -199 -6z
M5275 10305 c-44 -43 -22 -115 39 -131 12 -3 100 -4 195 -2 168 3 173 4 192
27 28 35 25 85 -7 110 -25 20 -40 21 -211 21 -182 0 -184 0 -208 -25z M6216
10309 c-32 -25 -35 -75 -7 -110 19 -23 24 -24 192 -27 95 -2 183 -1 195 2 61
16 83 88 39 131 -24 25 -26 25 -208 25 -171 0 -186 -1 -211 -21z M7150 10305
c-32 -34 -30 -83 5 -112 25 -22 34 -23 206 -23 l181 0 29 29 c16 16 29 37 29
46 0 24 -27 72 -45 79 -9 3 -99 6 -199 6 -181 0 -183 0 -206 -25z M8102 10323
c-15 -6 -42 -56 -42 -78 0 -9 13 -30 29 -46 l29 -29 181 0 c172 0 181 1 206
23 35 29 37 78 5 112 -23 25 -24 25 -209 24 -102 0 -192 -3 -199 -6z M9025
10305 c-44 -43 -22 -115 39 -131 12 -3 100 -4 195 -2 168 3 173 4 192 27 28
35 25 85 -7 110 -25 20 -40 21 -211 21 -182 0 -184 0 -208 -25z M9966 10309
c-32 -25 -35 -75 -7 -110 19 -23 24 -24 195 -27 l176 -3 0 80 0 81 -169 0
c-155 0 -170 -2 -195 -21z M375 10088 c-43 -23 -45 -34 -45 -228 0 -186 0
-187 25 -210 34 -32 83 -30 113 5 21 25 22 34 22 206 l0 181 -29 29 c-31 31
-53 35 -86 17z M10224 10090 c-49 -19 -54 -42 -54 -232 0 -169 1 -178 23 -203
29 -35 78 -37 112 -5 25 23 25 24 25 209 -1 194 -3 206 -47 229 -25 14 -30 14
-59 2z M355 9135 c-25 -24 -25 -26 -25 -208 0 -171 1 -186 21 -211 25 -32 75
-35 110 -7 23 19 24 24 27 192 2 95 1 183 -2 195 -16 61 -88 83 -131 39z
M10202 9140 c-31 -30 -34 -48 -30 -239 3 -168 4 -173 27 -192 35 -28 85 -25
110 7 20 25 21 40 21 211 0 182 0 184 -25 208 -30 31 -73 32 -103 5z M4960
9050 c-1529 -101 -2575 -761 -3170 -2002 -353 -738 -537 -1620 -582 -2788
l-12 -315 -25 -20 c-55 -42 -156 -143 -212 -213 -354 -439 -414 -1083 -148
-1591 163 -311 433 -548 749 -656 l65 -22 57 -134 c77 -178 192 -408 276 -549
l67 -115 3305 0 3304 0 60 100 c82 138 212 395 274 545 29 69 56 131 61 139 4
8 38 25 77 38 235 79 463 250 628 469 340 454 373 1112 81 1609 -84 144 -213
294 -326 381 l-26 20 -7 224 c-29 950 -142 1676 -361 2335 -172 518 -384 920
-682 1295 -94 119 -358 382 -483 480 -241 191 -607 397 -900 505 -345 128
-763 217 -1195 255 -163 15 -709 21 -875 10z m778 -250 c719 -51 1311 -228
1797 -538 160 -102 305 -221 471 -386 174 -174 263 -281 384 -461 475 -709
743 -1696 810 -2984 14 -266 14 -873 0 -1071 -56 -824 -230 -1518 -540 -2158
-85 -175 -219 -414 -240 -427 -5 -3 -33 7 -62 22 l-53 28 -2970 2 -2970 1 -60
-30 -59 -31 -16 22 c-90 131 -269 481 -359 702 -232 577 -367 1198 -411 1879
-13 208 -13 774 0 1030 40 779 147 1417 336 1995 418 1277 1236 2049 2449
2310 231 49 400 72 730 98 102 9 632 6 763 -3z m-4412 -5017 c16 -24 19 -60
25 -268 12 -402 59 -765 149 -1160 46 -199 69 -281 144 -508 31 -92 56 -181
56 -197 0 -36 -23 -50 -84 -50 l-45 0 -28 76 c-25 67 -33 78 -68 96 -289 149
-512 476 -571 837 -23 137 -14 353 19 481 48 186 130 352 236 478 l41 48 0 86
c0 85 0 86 28 96 50 19 78 14 98 -15z m8103 16 l31 -11 0 -85 c0 -84 0 -86 39
-132 293 -351 355 -880 152 -1298 -103 -213 -260 -387 -440 -486 -62 -34 -65
-37 -93 -111 l-29 -76 -54 0 c-95 0 -96 19 -4 290 70 211 136 466 177 690 26
143 35 199 58 355 20 143 37 360 43 565 9 312 18 334 120 299z M1212 3105 c-2
-221 31 -463 112 -812 33 -140 109 -363 121 -352 2 2 -16 81 -40 174 -88 345
-154 745 -188 1130 -2 22 -4 -41 -5 -140z M9427 3105 c-32 -333 -89 -665 -167
-965 -54 -213 -55 -214 -15 -133 45 92 96 280 139 508 56 299 67 401 64 595
l-3 175 -18 -180z M351 8194 c-20 -25 -21 -40 -21 -211 0 -182 0 -184 25 -208
43 -44 115 -22 131 39 3 12 4 100 2 195 -3 168 -4 173 -27 192 -35 28 -85 25
-110 -7z M10199 8201 c-23 -19 -24 -24 -27 -192 -2 -95 -1 -183 2 -195 16 -61
88 -83 131 -39 25 24 25 26 25 208 0 171 -1 186 -21 211 -25 32 -75 35 -110 7z
M390 7282 c-8 -3 -25 -14 -37 -25 -22 -20 -23 -26 -23 -203 0 -100 3 -190 6
-199 7 -18 55 -45 79 -45 9 0 30 13 46 29 l29 29 0 180 c0 163 -2 182 -20 204
-20 26 -53 38 -80 30z M10233 7282 c-13 -2 -32 -15 -43 -29 -18 -24 -20 -40
-20 -205 l0 -180 29 -29 c16 -16 37 -29 46 -29 24 0 72 27 79 45 3 9 6 99 6
199 0 177 -1 183 -22 203 -27 24 -45 30 -75 25z M375 6338 c-43 -23 -45 -34
-45 -228 0 -186 0 -187 25 -210 34 -32 83 -30 113 5 21 25 22 34 22 206 l0
181 -29 29 c-31 31 -53 35 -86 17z M10199 6321 l-29 -29 0 -181 c0 -172 1
-181 23 -206 29 -35 78 -37 112 -5 25 23 25 25 25 206 0 100 -3 190 -6 199 -7
18 -55 45 -79 45 -9 0 -30 -13 -46 -29z M355 5385 c-25 -24 -25 -26 -25 -208
0 -171 1 -186 21 -211 25 -32 75 -35 110 -7 23 19 24 24 27 192 2 95 1 183 -2
195 -16 61 -88 83 -131 39z M10202 5390 c-31 -30 -34 -48 -30 -239 3 -168 4
-173 27 -192 35 -28 85 -25 110 7 20 25 21 40 21 211 0 182 0 184 -25 208 -30
31 -73 32 -103 5z M351 4444 c-20 -25 -21 -40 -21 -211 0 -182 0 -184 25 -208
43 -44 115 -22 131 39 3 12 4 100 2 195 -3 168 -4 173 -27 192 -35 28 -85 25
-110 -7z M10199 4451 c-23 -19 -24 -24 -27 -192 -2 -95 -1 -183 2 -195 16 -61
88 -83 131 -39 25 24 25 26 25 208 0 171 -1 186 -21 211 -25 32 -75 35 -110 7z
M390 3532 c-8 -3 -25 -14 -37 -25 -22 -20 -23 -26 -23 -203 0 -100 3 -190 6
-199 7 -18 55 -45 79 -45 9 0 30 13 46 29 l29 29 0 180 c0 163 -2 182 -20 204
-20 26 -53 38 -80 30z M10233 3532 c-13 -2 -32 -15 -43 -29 -18 -24 -20 -40
-20 -205 l0 -180 29 -29 c16 -16 37 -29 46 -29 24 0 72 27 79 45 3 9 6 99 6
199 0 177 -1 183 -22 203 -27 24 -45 30 -75 25z M375 2588 c-43 -23 -45 -34
-45 -228 0 -182 1 -187 23 -208 34 -32 89 -30 116 4 19 25 21 40 21 206 l0
180 -29 29 c-31 31 -53 35 -86 17z M10199 2571 l-29 -29 0 -181 c0 -172 1
-181 23 -206 29 -35 78 -37 112 -5 25 23 25 25 25 206 0 100 -3 190 -6 199 -7
18 -55 45 -79 45 -9 0 -30 -13 -46 -29z M355 1635 c-25 -24 -25 -26 -25 -208
0 -171 1 -186 21 -211 25 -32 75 -35 110 -7 23 19 24 24 27 192 2 95 1 183 -2
195 -16 61 -88 83 -131 39z M10202 1640 c-31 -30 -34 -48 -30 -239 3 -168 4
-173 27 -192 35 -28 85 -25 110 7 20 25 21 40 21 211 0 182 0 184 -25 208 -30
31 -73 32 -103 5z M351 694 c-19 -25 -21 -40 -21 -195 l0 -169 81 0 80 0 -3
176 c-3 171 -4 176 -27 195 -35 28 -85 25 -110 -7z M10199 701 c-23 -19 -24
-24 -27 -195 l-3 -176 80 0 81 0 0 169 c0 155 -2 170 -21 195 -25 32 -75 35
-110 7z M905 468 c-35 -30 -37 -79 -5 -113 23 -25 25 -25 206 -25 100 0 190 3
199 6 18 7 45 55 45 79 0 9 -13 30 -29 46 l-29 29 -181 0 c-172 0 -181 -1
-206 -22z M1840 461 c-17 -16 -30 -37 -30 -46 0 -24 27 -72 45 -79 9 -3 99 -6
199 -6 178 0 183 1 204 23 29 31 29 87 1 113 -19 17 -41 19 -205 22 l-184 3
-30 -30z M2795 478 c-51 -30 -60 -84 -20 -123 24 -25 26 -25 210 -25 184 0
186 0 210 25 30 29 32 74 6 106 -19 23 -23 24 -203 27 -127 1 -189 -2 -203
-10z M3733 480 c-49 -20 -59 -96 -17 -129 25 -20 40 -21 211 -21 182 0 184 0
208 25 40 40 30 96 -22 123 -26 14 -346 16 -380 2z M4656 469 c-35 -27 -36
-86 -3 -117 22 -21 32 -22 204 -22 100 0 189 3 198 6 18 7 45 55 45 79 0 9
-13 30 -29 46 l-29 29 -180 0 c-166 0 -181 -2 -206 -21z M5590 461 c-17 -16
-30 -37 -30 -46 0 -24 27 -72 45 -79 9 -3 99 -6 199 -6 178 0 183 1 204 23 29
31 29 87 1 113 -19 17 -41 19 -205 22 l-184 3 -30 -30z M6545 478 c-51 -30
-60 -84 -20 -123 24 -25 26 -25 210 -25 184 0 186 0 210 25 30 29 32 74 6 106
-19 23 -23 24 -203 27 -127 1 -189 -2 -203 -10z M7483 480 c-49 -20 -59 -96
-17 -129 25 -20 40 -21 211 -21 182 0 184 0 208 25 40 40 30 96 -22 123 -26
14 -346 16 -380 2z M8430 483 c-54 -20 -69 -92 -27 -131 22 -21 32 -22 204
-22 100 0 189 3 198 6 18 7 45 55 45 79 0 9 -13 30 -29 46 l-29 29 -174 -1
c-95 0 -180 -3 -188 -6z M9339 461 c-16 -16 -29 -37 -29 -46 0 -24 27 -72 45
-79 9 -3 99 -6 199 -6 178 0 183 1 204 23 32 34 30 89 -4 116 -25 19 -40 21
-206 21 l-180 0 -29 -29z"/>
</g>
</svg>
