<?xml version="1.0" standalone="no"?>
<!DOCTYPE svg PUBLIC "-//W3C//DTD SVG 20010904//EN"
 "http://www.w3.org/TR/2001/REC-SVG-20010904/DTD/svg10.dtd">
<svg version="1.0" xmlns="http://www.w3.org/2000/svg"
 width="2048.000000pt" height="2048.000000pt" viewBox="0 0 2048.000000 2048.000000"
 preserveAspectRatio="xMidYMid meet">
<metadata>
Created by potrace 1.13, written by Peter Selinger 2001-2015
</metadata>
<g transform="translate(0.000000,2048.000000) scale(0.192120,-0.192120)"
fill="#000000" stroke="none">
<path d="M6220 9434 c-335 -32 -670 -140 -949 -306 l-74 -45 -76 55 c-99 70
-255 146 -355 172 -262 67 -489 -30 -596 -255 -48 -101 -61 -155 -69 -277 l-6
-97 -71 45 c-151 95 -381 167 -576 183 -253 19 -486 -28 -722 -146 -405 -203
-599 -487 -631 -923 -15 -204 53 -554 150 -775 14 -31 25 -60 25 -64 0 -5 -21
-22 -47 -37 -189 -109 -374 -318 -445 -501 -120 -308 -53 -627 187 -891 58
-64 188 -169 260 -212 22 -13 42 -25 44 -26 2 -2 -29 -43 -67 -91 -82 -101
-163 -250 -186 -339 -9 -34 -16 -90 -16 -125 1 -113 45 -184 240 -384 249
-255 310 -345 310 -456 0 -146 -180 -341 -460 -498 -41 -24 -79 -47 -85 -53
-25 -25 379 26 557 71 144 36 251 81 344 143 85 57 132 110 171 194 26 54 28
68 27 169 -1 61 -11 180 -23 266 -11 86 -21 160 -21 164 0 4 29 -28 64 -72
160 -196 394 -393 641 -538 55 -33 129 -86 164 -118 87 -81 191 -162 283 -222
l76 -49 4 -348 c2 -191 7 -350 11 -354 4 -4 32 0 62 10 39 12 62 27 81 51 25
33 26 37 21 162 -2 84 -11 155 -24 205 -12 46 -16 75 -9 71 6 -4 44 -29 85
-55 141 -92 271 -143 455 -180 95 -19 143 -23 336 -22 169 0 248 4 316 17 186
34 342 95 489 191 47 31 85 52 85 47 0 -5 -11 -52 -25 -105 -20 -77 -25 -120
-25 -219 0 -121 0 -123 29 -154 24 -27 107 -63 143 -63 4 0 8 170 8 379 l0
378 43 28 c72 48 179 130 257 199 41 37 125 96 186 132 280 165 560 425 725
674 14 21 15 -4 11 -242 -5 -303 0 -336 67 -429 121 -169 465 -352 721 -385
l54 -6 -72 76 c-208 224 -280 443 -199 608 33 67 125 204 287 427 201 278 298
460 342 640 37 153 24 362 -34 536 -51 154 -177 356 -282 453 -25 23 -46 45
-46 47 0 3 29 55 65 117 164 285 269 603 282 853 13 265 -59 458 -241 652
-181 192 -422 327 -713 399 l-113 27 0 37 c0 62 -28 205 -61 308 -64 200 -164
368 -304 508 -168 169 -370 277 -625 334 -144 32 -330 46 -460 34z m405 -318
c197 -45 358 -120 483 -227 142 -121 226 -268 283 -494 18 -71 41 -149 51
-172 10 -24 18 -45 18 -48 0 -25 143 -181 206 -225 22 -16 99 -50 170 -75 235
-86 386 -176 499 -297 35 -38 75 -92 89 -121 26 -50 26 -53 26 -293 0 -227 -1
-247 -25 -327 -27 -94 -89 -250 -160 -402 -78 -170 -85 -189 -85 -257 0 -65
37 -143 138 -295 45 -67 99 -157 120 -200 l37 -78 0 -265 0 -265 -36 -75 c-50
-103 -137 -241 -300 -471 -76 -108 -167 -250 -202 -315 -74 -139 -89 -164 -99
-164 -17 0 -30 48 -48 172 -25 170 -53 231 -149 327 -68 67 -71 73 -71 117 0
25 18 105 40 178 22 72 57 199 77 281 36 150 36 150 40 423 5 288 -1 366 -37
439 -11 22 -22 60 -26 84 -4 24 -13 56 -20 71 -9 17 -14 61 -14 117 0 230
-100 434 -251 511 -77 40 -123 51 -244 61 -137 11 -161 20 -292 107 -243 159
-690 265 -1238 292 -356 18 -629 67 -1134 206 -167 45 -233 52 -306 28 -129
-40 -363 -218 -538 -407 -179 -195 -202 -215 -285 -254 -116 -55 -169 -98
-220 -176 -78 -122 -84 -146 -89 -367 -4 -166 -7 -201 -24 -236 -10 -22 -19
-50 -19 -61 0 -12 -18 -52 -39 -90 -22 -37 -51 -108 -65 -157 -23 -78 -26
-106 -26 -246 0 -119 5 -182 20 -256 29 -139 83 -341 125 -462 22 -64 35 -121
35 -153 0 -46 -4 -54 -48 -102 -118 -128 -142 -180 -142 -313 0 -47 -5 -104
-11 -128 -9 -37 -14 -42 -33 -39 -15 3 -25 17 -34 44 -33 105 -175 306 -347
488 -153 163 -155 166 -155 271 0 82 2 88 45 165 80 141 135 261 141 309 6 38
2 58 -17 99 -33 73 -65 114 -209 262 -137 141 -182 200 -217 285 -20 50 -23
71 -23 226 0 135 3 180 16 210 27 66 99 158 186 238 114 104 201 208 243 287
49 94 48 158 -6 344 -63 221 -69 262 -69 521 0 183 3 242 16 285 23 78 57 139
114 208 27 33 50 64 50 70 0 14 95 92 177 145 79 51 83 52 83 32 0 -11 21 -5
81 20 168 71 332 100 513 91 151 -8 252 -31 431 -98 168 -62 237 -72 289 -40
58 36 154 147 185 214 15 34 38 94 49 133 47 157 128 211 297 201 99 -5 140
-20 330 -113 222 -110 234 -110 495 11 238 110 413 167 618 200 116 19 438 13
537 -9z m-2275 -1882 c421 -130 955 -234 1206 -234 394 0 937 -112 1277 -264
56 -25 62 -25 201 -19 221 9 318 -18 405 -112 51 -56 87 -131 101 -217 6 -39
9 -238 7 -523 l-3 -460 -33 -150 c-73 -342 -161 -593 -300 -862 -100 -191
-224 -376 -337 -502 l-45 -50 -92 1 c-109 0 -121 -5 -293 -118 -176 -116 -260
-227 -252 -336 l3 -53 -100 -50 c-234 -117 -498 -175 -795 -175 -297 0 -538
52 -791 171 l-86 41 1 56 c1 73 -36 151 -108 220 -62 61 -323 238 -380 259
-30 10 -60 12 -109 8 -81 -8 -82 -7 -182 120 -285 364 -486 841 -576 1363
l-23 133 23 127 c13 70 36 171 51 225 26 93 27 100 13 155 -20 81 -28 313 -14
396 37 210 181 337 384 336 51 0 63 -7 72 -42 4 -15 22 -45 42 -67 44 -52 115
-74 308 -96 77 -9 167 -21 200 -26 56 -10 115 -40 115 -59 0 -10 -34 -45 -72
-73 -78 -58 -163 -156 -197 -227 l-36 -75 -3 -192 -4 -193 36 -72 c19 -40 57
-100 85 -133 75 -89 81 -103 51 -125 -40 -31 -163 -54 -290 -54 -187 -1 -212
21 -364 329 -121 244 -173 305 -262 305 -26 0 -27 -2 -21 -44 12 -86 100 -329
173 -474 157 -316 239 -370 516 -343 154 15 285 43 733 156 522 133 677 157
860 135 174 -20 305 -50 805 -179 384 -99 622 -135 745 -112 94 17 143 48 203
126 64 84 188 332 236 471 44 128 89 312 81 332 -4 11 -16 13 -48 9 -33 -4
-50 -14 -82 -50 -41 -45 -57 -74 -145 -262 -117 -251 -179 -348 -246 -381 -98
-48 -454 -2 -454 60 0 7 25 44 54 82 30 37 64 86 74 109 53 109 52 102 52 326
l0 212 -34 61 c-36 64 -82 113 -181 191 -60 47 -85 72 -85 86 0 21 67 50 167
72 61 14 133 35 162 47 61 27 121 89 121 127 l0 26 -100 -7 c-151 -9 -341 -40
-725 -115 -442 -88 -501 -95 -715 -95 -214 0 -273 7 -715 95 -490 96 -699 126
-948 132 l-88 2 109 115 c157 165 486 437 532 439 8 1 67 -15 130 -35z m441
-869 c394 -74 655 -75 1082 -1 164 29 176 30 196 17 18 -12 5 -33 -70 -111
-29 -30 -69 -82 -91 -114 l-38 -59 0 -213 0 -213 30 -66 c34 -74 37 -100 14
-109 -9 -3 -71 5 -138 19 -368 75 -528 75 -891 0 -128 -26 -158 -27 -163 -3
-2 8 11 50 28 94 30 78 30 80 30 279 0 191 -1 202 -24 250 -13 28 -54 83 -90
123 -79 88 -94 111 -75 123 22 14 57 11 200 -16z m-369 -135 c54 -15 118 -68
144 -120 22 -42 23 -57 24 -221 0 -169 -1 -177 -26 -228 -72 -143 -267 -172
-375 -54 -60 64 -64 82 -64 278 0 167 2 183 22 222 55 103 167 153 275 123z
m1949 -2 c51 -15 114 -69 142 -122 20 -38 22 -54 22 -221 0 -156 -2 -185 -19
-215 -55 -105 -159 -156 -266 -130 -70 17 -122 58 -154 121 -25 51 -26 59 -26
228 1 163 2 179 23 220 52 102 170 152 278 119z M4998 4881 c-30 -26 -33 -35
-36 -100 -4 -70 -4 -71 31 -106 l35 -35 282 0 282 0 34 34 c32 32 34 38 34
101 0 63 -2 69 -34 101 l-34 34 -281 0 -281 0 -32 -29z M4642 4339 c-80 -40
-122 -144 -93 -232 27 -82 203 -201 386 -261 322 -105 722 -55 981 122 74 50
109 87 128 134 65 155 -110 315 -257 237 -14 -8 -53 -33 -86 -56 -119 -81
-269 -119 -441 -110 -156 8 -292 52 -387 124 -90 69 -153 80 -231 42z M3450
2825 c-104 -26 -216 -85 -299 -160 l-40 -36 -103 35 c-141 47 -230 60 -390 53
-158 -6 -239 -26 -383 -96 -180 -88 -399 -272 -559 -471 -76 -95 -216 -301
-220 -324 -1 -8 -38 -65 -83 -128 -229 -320 -461 -720 -665 -1148 -54 -113
-98 -208 -98 -212 0 -5 2124 -8 4720 -8 2596 0 4720 3 4720 8 0 16 -200 426
-280 572 -174 323 -360 623 -512 828 -38 52 -64 91 -57 86 14 -9 -12 37 -82
141 -207 310 -468 553 -720 669 -125 58 -209 77 -357 83 -159 7 -249 -6 -390
-53 l-103 -35 -47 42 c-63 55 -163 113 -242 140 -124 42 -420 36 -598 -12 -95
-25 -183 -70 -239 -122 -25 -23 -84 -91 -131 -152 -130 -168 -236 -286 -393
-440 -211 -206 -383 -326 -504 -353 l-40 -9 65 -6 c36 -3 162 -9 280 -11 645
-16 1259 -119 1565 -262 6 -2 21 24 34 58 79 206 214 422 346 553 94 93 160
138 267 184 57 23 75 26 188 26 105 0 135 -4 184 -23 97 -36 166 -82 256 -172
203 -201 382 -557 520 -1031 64 -220 150 -608 150 -675 0 -8 -43 13 -106 51
-172 104 -72 96 -1115 93 -1000 -3 -928 1 -1002 -64 -20 -19 -41 -34 -45 -34
-5 0 -60 34 -122 76 -311 207 -723 342 -1182 385 -162 15 -615 6 -748 -14
-464 -72 -783 -188 -1083 -393 -43 -30 -83 -54 -89 -54 -5 0 -30 17 -54 39
-26 22 -63 43 -89 50 -31 8 -314 11 -943 11 -1017 0 -911 9 -1066 -89 -50 -32
-97 -61 -105 -66 -17 -10 -10 45 30 245 164 803 451 1395 771 1588 105 63 159
77 298 77 113 0 131 -3 188 -26 107 -46 173 -91 267 -184 131 -130 264 -341
345 -550 13 -33 24 -61 25 -62 1 -1 37 13 81 32 150 65 367 116 665 159 311
45 685 75 944 76 83 1 168 4 190 9 l40 7 -38 6 c-58 10 -176 73 -274 147 -170
127 -451 418 -625 646 -123 163 -205 226 -348 269 -139 42 -454 59 -570 31z
m424 -251 c95 -18 178 -50 241 -94 52 -36 225 -207 225 -223 0 -9 86 -109 207
-240 35 -37 63 -76 63 -87 0 -36 -9 -38 -360 -81 -217 -26 -401 -59 -592 -106
-120 -31 -151 -35 -171 -26 -16 7 -69 78 -140 185 -109 164 -176 246 -331 402
-79 80 -76 89 24 81 80 -7 122 4 135 35 7 16 45 40 130 80 66 31 138 63 160
70 94 31 258 32 409 4z m3293 1 c29 -7 109 -39 177 -72 94 -44 126 -63 131
-80 7 -31 71 -47 152 -38 58 6 63 5 63 -12 0 -11 -51 -71 -118 -139 -122 -122
-180 -196 -294 -369 -69 -106 -99 -139 -135 -148 -12 -3 -82 10 -155 29 -176
44 -365 78 -573 103 -312 38 -344 43 -360 61 -14 15 -13 20 7 48 44 59 314
366 388 441 117 118 243 173 439 191 100 9 204 4 278 -15z m-4937 -269 c0 -65
-5 -70 -120 -115 -108 -41 -268 -118 -390 -186 l-65 -36 74 71 c165 159 388
298 477 298 20 0 24 -6 24 -32z m6297 12 c32 -12 89 -40 127 -62 79 -48 253
-185 311 -246 l40 -43 -65 37 c-115 66 -279 144 -390 187 -115 45 -120 49
-120 117 0 39 15 41 97 10z m-7187 -1409 c-46 -185 -63 -232 -99 -271 -22 -25
-31 -28 -92 -28 -89 0 -99 5 -99 46 0 47 139 308 269 504 l56 85 3 -86 c2 -74
-3 -111 -38 -250z m8078 117 c117 -202 182 -332 182 -366 0 -42 -17 -50 -102
-50 l-78 0 -24 38 c-26 39 -48 110 -90 281 -20 79 -26 129 -26 210 l1 106 22
-29 c12 -16 64 -101 115 -190z m-3873 -376 c39 -6 79 -13 89 -16 19 -6 19 -7
0 -17 -27 -15 -582 -15 -609 0 -16 10 -17 13 -5 17 65 24 400 33 525 16z"/>
</g>
</svg>
