<?xml version="1.0" standalone="no"?>
<!DOCTYPE svg PUBLIC "-//W3C//DTD SVG 20010904//EN"
 "http://www.w3.org/TR/2001/REC-SVG-20010904/DTD/svg10.dtd">
<svg version="1.0" xmlns="http://www.w3.org/2000/svg"
 width="2048.000000pt" height="2048.000000pt" viewBox="0 0 2048.000000 2048.000000"
 preserveAspectRatio="xMidYMid meet">
<metadata>
Created by potrace 1.13, written by Peter Selinger 2001-2015
</metadata>
<g transform="translate(0.000000,2048.000000) scale(0.192120,-0.192120)"
fill="#000000" stroke="none">
<path d="M602 10323 c-15 -6 -42 -56 -42 -78 0 -9 13 -30 29 -46 l29 -29 180
0 c166 0 181 2 206 21 35 27 36 86 3 117 -22 21 -32 22 -208 21 -101 0 -190
-3 -197 -6z M1525 10305 c-44 -43 -22 -115 39 -131 12 -3 100 -4 195 -2 168 3
173 4 192 27 28 35 25 85 -7 110 -25 20 -40 21 -211 21 -182 0 -184 0 -208
-25z M2466 10309 c-32 -25 -35 -75 -7 -110 19 -23 24 -24 192 -27 95 -2 183
-1 195 2 61 16 83 88 39 131 -24 25 -26 25 -208 25 -171 0 -186 -1 -211 -21z
M3400 10305 c-32 -34 -30 -83 5 -112 25 -22 34 -23 206 -23 l181 0 29 29 c16
16 29 37 29 46 0 24 -27 72 -45 79 -9 3 -99 6 -199 6 -181 0 -183 0 -206 -25z
M4352 10323 c-15 -6 -42 -56 -42 -78 0 -9 13 -30 29 -46 l29 -29 181 0 c172 0
181 1 206 23 35 29 37 78 5 112 -23 25 -24 25 -209 24 -102 0 -192 -3 -199 -6z
M5275 10305 c-44 -43 -22 -115 39 -131 12 -3 100 -4 195 -2 168 3 173 4 192
27 28 35 25 85 -7 110 -25 20 -40 21 -211 21 -182 0 -184 0 -208 -25z M6216
10309 c-32 -25 -35 -75 -7 -110 19 -23 24 -24 192 -27 95 -2 183 -1 195 2 61
16 83 88 39 131 -24 25 -26 25 -208 25 -171 0 -186 -1 -211 -21z M7150 10305
c-32 -34 -30 -83 5 -112 25 -22 34 -23 206 -23 l181 0 29 29 c16 16 29 37 29
46 0 24 -27 72 -45 79 -9 3 -99 6 -199 6 -181 0 -183 0 -206 -25z M8102 10323
c-15 -6 -42 -56 -42 -78 0 -9 13 -30 29 -46 l29 -29 181 0 c172 0 181 1 206
23 35 29 37 78 5 112 -23 25 -24 25 -209 24 -102 0 -192 -3 -199 -6z M9025
10305 c-44 -43 -22 -115 39 -131 12 -3 100 -4 195 -2 168 3 173 4 192 27 28
35 25 85 -7 110 -25 20 -40 21 -211 21 -182 0 -184 0 -208 -25z M9966 10309
c-32 -25 -35 -75 -7 -110 19 -23 24 -24 195 -27 l176 -3 0 80 0 81 -169 0
c-155 0 -170 -2 -195 -21z M375 10088 c-43 -23 -45 -34 -45 -228 0 -186 0
-187 25 -210 34 -32 83 -30 113 5 21 25 22 34 22 206 l0 181 -29 29 c-31 31
-53 35 -86 17z M10224 10090 c-49 -19 -54 -42 -54 -232 0 -169 1 -178 23 -203
29 -35 78 -37 112 -5 25 23 25 24 25 209 -1 194 -3 206 -47 229 -25 14 -30 14
-59 2z M355 9135 c-25 -24 -25 -26 -25 -208 0 -171 1 -186 21 -211 25 -32 75
-35 110 -7 23 19 24 24 27 192 2 95 1 183 -2 195 -16 61 -88 83 -131 39z
M10202 9140 c-31 -30 -34 -48 -30 -239 3 -168 4 -173 27 -192 35 -28 85 -25
110 7 20 25 21 40 21 211 0 182 0 184 -25 208 -30 31 -73 32 -103 5z M4861
9029 c-74 -13 -162 -54 -201 -94 -18 -18 -56 -66 -84 -107 -48 -67 -55 -73
-87 -72 -19 1 -72 18 -119 37 -186 79 -387 63 -525 -41 -31 -23 -69 -67 -102
-117 -28 -44 -62 -93 -75 -108 l-23 -29 -85 18 c-94 19 -215 15 -307 -10 -139
-37 -264 -149 -339 -302 l-49 -99 -145 -6 c-200 -9 -271 -37 -375 -151 -70
-78 -122 -184 -142 -291 -18 -95 -32 -112 -100 -122 -135 -19 -271 -82 -334
-154 -84 -94 -139 -258 -139 -410 0 -93 -3 -97 -108 -132 -145 -48 -248 -153
-294 -302 -20 -62 -23 -91 -21 -202 1 -71 4 -150 5 -175 l3 -45 -64 -41 c-129
-85 -201 -176 -236 -298 -26 -89 -17 -248 20 -341 46 -117 45 -122 -22 -191
-73 -76 -120 -166 -138 -270 -33 -185 -9 -324 76 -446 27 -37 24 -64 -11 -108
-17 -21 -45 -69 -62 -107 -30 -63 -33 -77 -36 -194 -3 -73 1 -148 8 -182 15
-73 60 -163 110 -220 48 -54 50 -76 10 -148 -58 -108 -75 -237 -45 -354 26
-104 89 -218 161 -292 l65 -68 -18 -50 c-29 -80 -25 -239 10 -334 49 -138 132
-232 447 -513 96 -86 200 -181 230 -213 30 -31 65 -61 78 -66 24 -9 59 3 74
25 4 6 7 103 7 216 -1 385 67 893 207 1530 66 302 56 276 112 290 157 39 304
191 341 351 23 99 6 227 -40 308 l-20 33 28 -6 c113 -26 156 -30 228 -19 179
26 328 152 390 328 7 19 8 19 23 -5 9 -14 41 -50 70 -81 181 -193 488 -198
684 -11 67 64 124 167 134 243 8 63 20 70 29 18 11 -64 70 -171 125 -226 142
-142 360 -182 550 -101 65 28 154 104 194 167 l40 61 27 -48 c82 -144 239
-233 414 -235 167 -1 313 75 408 212 l30 45 16 -25 c40 -61 118 -131 182 -163
89 -45 164 -60 264 -53 195 12 369 147 421 326 9 31 19 63 21 71 3 8 11 -14
19 -49 47 -223 245 -381 477 -381 148 0 314 86 389 201 31 48 48 61 48 37 0
-7 14 -42 30 -77 58 -122 194 -224 338 -252 103 -19 189 -7 314 46 15 6 12 -5
-13 -59 -57 -122 -49 -278 21 -401 41 -71 136 -159 212 -195 35 -17 69 -30 75
-30 7 0 15 -10 18 -22 3 -13 18 -80 35 -149 46 -194 136 -656 165 -842 58
-378 68 -492 74 -892 l6 -380 28 -13 c15 -7 36 -11 46 -7 30 9 451 481 623
699 126 159 158 236 158 387 0 76 -11 137 -46 256 -5 17 9 37 65 97 111 121
161 248 161 416 0 101 -20 185 -60 257 -17 29 -30 60 -30 69 0 9 17 37 39 63
148 177 173 478 55 663 -73 116 -72 108 -30 176 57 91 78 169 79 287 1 169
-48 304 -150 412 -63 66 -63 69 -18 193 32 88 43 210 26 289 -27 128 -121 259
-243 342 -32 22 -62 47 -67 57 -5 11 -4 41 5 82 60 286 -86 561 -341 640 -66
21 -75 34 -75 111 0 172 -66 346 -165 437 -30 28 -79 62 -108 76 -53 26 -193
66 -232 66 -35 0 -53 30 -70 115 -20 100 -80 227 -141 294 -85 94 -245 151
-428 151 -92 0 -104 7 -125 69 -58 174 -225 326 -398 362 -69 14 -194 7 -278
-16 -41 -11 -66 -13 -80 -7 -12 6 -39 40 -61 77 -58 100 -111 151 -207 195
-104 48 -163 62 -257 61 -77 0 -147 -19 -228 -60 -71 -36 -93 -30 -150 43
-107 136 -213 192 -397 210 -85 9 -198 -12 -259 -48 -22 -13 -68 -45 -100 -70
-33 -25 -67 -46 -76 -46 -9 0 -58 27 -110 60 -131 84 -183 102 -305 106 -55 1
-124 -1 -154 -7z m1116 -370 c80 -38 139 -105 203 -230 67 -131 73 -133 192
-56 134 87 177 102 288 102 110 0 136 -10 210 -84 31 -31 62 -78 89 -137 24
-49 48 -100 55 -114 6 -14 24 -29 38 -34 23 -8 36 -3 92 33 134 87 267 103
394 46 115 -51 176 -148 194 -307 16 -148 19 -150 158 -119 174 40 289 15 375
-82 69 -76 90 -155 81 -307 -6 -103 -4 -119 10 -131 13 -11 52 -14 158 -14
131 0 145 -2 197 -26 73 -35 128 -85 164 -151 24 -44 30 -68 33 -141 4 -77 1
-100 -23 -174 -26 -78 -27 -89 -14 -112 12 -21 28 -28 101 -42 154 -30 257
-94 299 -184 39 -84 19 -218 -51 -342 -45 -80 -36 -125 28 -139 138 -30 216
-68 271 -131 63 -71 77 -157 41 -262 -24 -74 -49 -117 -117 -205 -77 -100 -71
-126 41 -172 82 -33 164 -92 202 -143 94 -130 60 -277 -103 -438 -46 -46 -83
-91 -83 -101 0 -27 17 -43 111 -105 144 -94 205 -189 197 -306 -8 -109 -63
-192 -200 -302 -62 -49 -88 -76 -88 -92 0 -13 25 -46 68 -87 88 -85 116 -141
120 -240 5 -92 -8 -143 -51 -206 -46 -70 -103 -103 -225 -134 -70 -18 -74 -42
-25 -148 49 -104 54 -126 54 -215 0 -99 -22 -137 -150 -259 -110 -105 -201
-177 -201 -159 0 5 9 49 21 98 29 119 23 322 -15 548 -39 231 -113 601 -146
736 -46 187 -52 197 -307 471 -28 31 -43 56 -43 73 0 17 -5 25 -12 22 -20 -6
-38 69 -38 157 0 89 -16 155 -39 164 -9 3 -31 22 -48 43 -18 20 -56 56 -84 79
l-50 43 -97 4 c-111 4 -172 18 -172 37 0 17 -49 31 -63 17 -11 -11 -50 19
-157 118 -30 28 -60 51 -66 51 -7 0 -32 11 -55 25 -24 14 -57 25 -74 25 -18 0
-87 -29 -172 -72 -166 -84 -226 -96 -304 -60 -32 15 -48 18 -63 10 -21 -11
-25 -8 -134 113 -37 41 -74 73 -80 71 -7 -2 -29 11 -49 28 -20 18 -52 39 -70
47 -32 13 -38 12 -86 -10 -29 -13 -92 -60 -140 -103 -148 -132 -191 -154 -299
-154 -69 0 -130 22 -230 82 -111 67 -123 70 -209 60 -62 -8 -87 -17 -150 -56
-130 -78 -181 -98 -257 -98 -87 1 -129 17 -253 96 -123 79 -176 101 -223 92
-19 -4 -82 -36 -141 -71 -75 -46 -117 -65 -143 -66 -173 -7 -217 -4 -262 20
-25 13 -74 49 -110 81 -43 37 -99 73 -164 104 l-99 46 -34 -25 c-18 -15 -63
-55 -100 -91 -38 -35 -74 -64 -81 -64 -6 0 -25 -18 -40 -40 -54 -79 -208 -128
-269 -85 -11 8 -41 21 -66 30 -25 8 -74 31 -109 51 -149 85 -216 84 -316 -1
-21 -19 -42 -31 -46 -28 -3 3 -27 -15 -53 -42 -72 -72 -123 -107 -139 -94 -10
8 -19 5 -35 -10 -13 -11 -39 -23 -58 -27 -93 -14 -138 -26 -160 -41 -14 -9
-32 -16 -42 -17 -40 -2 -168 -176 -169 -229 0 -10 -4 -15 -10 -12 -6 4 -10
-35 -10 -111 l0 -117 -35 -53 c-19 -29 -50 -63 -68 -76 -91 -65 -222 -202
-257 -268 -31 -62 -48 -123 -100 -371 -129 -617 -163 -924 -122 -1097 16 -69
17 -82 5 -78 -38 15 -233 157 -278 202 -58 59 -101 139 -117 220 -14 70 6 151
59 236 46 74 39 92 -49 141 -129 72 -201 184 -202 317 -1 105 31 169 141 277
110 108 111 124 14 188 -84 55 -150 125 -187 196 -24 45 -28 66 -28 129 0 62
4 84 27 128 35 67 83 120 152 168 87 60 85 97 -11 160 -108 72 -168 179 -167
299 0 123 72 216 224 288 128 61 133 84 44 173 -81 80 -100 128 -100 249 0 87
3 107 27 157 49 106 149 180 278 207 101 22 112 56 50 153 -54 83 -74 154 -67
238 10 125 84 241 182 286 40 19 67 24 137 24 125 0 127 3 106 161 -20 151 14
294 91 382 74 84 219 117 364 83 110 -26 131 -3 115 119 -30 225 78 393 267
412 54 6 176 -16 240 -43 42 -17 81 -5 94 28 5 13 14 59 19 103 20 150 86 265
177 306 89 41 235 17 365 -60 37 -23 75 -41 83 -41 30 0 55 37 83 120 60 177
147 263 303 300 111 26 223 -9 341 -105 96 -79 132 -74 168 22 44 117 115 204
204 249 41 21 72 28 135 32 75 4 87 2 147 -26 63 -30 126 -84 207 -179 23 -27
44 -43 59 -43 15 0 51 29 109 88 165 166 304 206 458 131z M351 8194 c-20 -25
-21 -40 -21 -211 0 -182 0 -184 25 -208 43 -44 115 -22 131 39 3 12 4 100 2
195 -3 168 -4 173 -27 192 -35 28 -85 25 -110 -7z M10199 8201 c-23 -19 -24
-24 -27 -192 -2 -95 -1 -183 2 -195 16 -61 88 -83 131 -39 25 24 25 26 25 208
0 171 -1 186 -21 211 -25 32 -75 35 -110 7z M390 7282 c-8 -3 -25 -14 -37 -25
-22 -20 -23 -26 -23 -203 0 -100 3 -190 6 -199 7 -18 55 -45 79 -45 9 0 30 13
46 29 l29 29 0 180 c0 163 -2 182 -20 204 -20 26 -53 38 -80 30z M10233 7282
c-13 -2 -32 -15 -43 -29 -18 -24 -20 -40 -20 -205 l0 -180 29 -29 c16 -16 37
-29 46 -29 24 0 72 27 79 45 3 9 6 99 6 199 0 177 -1 183 -22 203 -27 24 -45
30 -75 25z M375 6338 c-43 -23 -45 -34 -45 -228 0 -186 0 -187 25 -210 34 -32
83 -30 113 5 21 25 22 34 22 206 l0 181 -29 29 c-31 31 -53 35 -86 17z M10199
6321 l-29 -29 0 -181 c0 -172 1 -181 23 -206 29 -35 78 -37 112 -5 25 23 25
25 25 206 0 100 -3 190 -6 199 -7 18 -55 45 -79 45 -9 0 -30 -13 -46 -29z
M355 5385 c-25 -24 -25 -26 -25 -208 0 -171 1 -186 21 -211 25 -32 75 -35 110
-7 23 19 24 24 27 192 2 95 1 183 -2 195 -16 61 -88 83 -131 39z M10209 5397
c-34 -26 -39 -55 -39 -222 0 -206 11 -235 86 -235 14 0 36 11 49 25 25 24 25
26 25 210 0 184 0 186 -25 210 -26 27 -70 32 -96 12z M351 4444 c-20 -25 -21
-40 -21 -211 0 -182 0 -184 25 -208 43 -44 115 -22 131 39 3 12 4 100 2 195
-3 168 -4 173 -27 192 -35 28 -85 25 -110 -7z M10199 4451 c-23 -19 -24 -24
-27 -205 l-3 -186 30 -30 c36 -37 73 -39 106 -5 25 24 25 26 25 208 0 171 -1
186 -21 211 -25 32 -75 35 -110 7z M390 3532 c-8 -3 -25 -14 -37 -25 -22 -20
-23 -26 -23 -203 0 -100 3 -190 6 -199 7 -18 55 -45 79 -45 9 0 30 13 46 29
l29 29 0 180 c0 163 -2 182 -20 204 -20 26 -53 38 -80 30z M10234 3532 c-12
-2 -30 -12 -40 -24 -17 -18 -19 -41 -22 -199 -3 -189 0 -207 43 -235 29 -19
66 -13 95 16 19 19 20 34 20 208 0 183 -1 189 -22 209 -27 24 -45 30 -74 25z
M375 2588 c-43 -23 -45 -34 -45 -228 0 -186 0 -187 25 -210 34 -32 83 -30 113
5 21 25 22 34 22 206 l0 181 -29 29 c-31 31 -53 35 -86 17z M10199 2571 l-29
-29 0 -181 c0 -172 1 -181 23 -206 29 -35 78 -37 112 -5 25 23 25 25 25 206 0
100 -3 190 -6 199 -7 18 -55 45 -79 45 -9 0 -30 -13 -46 -29z M355 1635 c-25
-24 -25 -26 -25 -208 0 -171 1 -186 21 -211 25 -32 75 -35 110 -7 23 19 24 24
27 192 2 95 1 183 -2 195 -16 61 -88 83 -131 39z M10202 1640 c-31 -30 -34
-48 -30 -239 3 -168 4 -173 27 -192 35 -28 85 -25 110 7 20 25 21 40 21 211 0
182 0 184 -25 208 -30 31 -73 32 -103 5z M351 694 c-19 -25 -21 -40 -21 -195
l0 -169 81 0 80 0 -3 176 c-3 171 -4 176 -27 195 -35 28 -85 25 -110 -7z
M10199 701 c-23 -19 -24 -24 -27 -195 l-3 -176 80 0 81 0 0 169 c0 155 -2 170
-21 195 -25 32 -75 35 -110 7z M905 468 c-35 -30 -37 -79 -5 -113 23 -25 25
-25 206 -25 100 0 190 3 199 6 18 7 45 55 45 79 0 9 -13 30 -29 46 l-29 29
-181 0 c-172 0 -181 -1 -206 -22z M1839 461 c-16 -16 -29 -37 -29 -46 0 -24
27 -72 45 -79 9 -3 99 -6 199 -6 178 0 183 1 204 23 32 34 30 89 -4 116 -25
19 -40 21 -206 21 l-180 0 -29 -29z M2795 478 c-51 -30 -60 -84 -20 -123 24
-25 26 -25 208 -25 171 0 186 1 211 21 32 25 35 75 7 110 -19 23 -23 24 -203
27 -127 1 -189 -2 -203 -10z M3733 480 c-49 -20 -59 -96 -17 -129 25 -20 40
-21 211 -21 182 0 184 0 208 25 40 40 30 96 -22 123 -26 14 -346 16 -380 2z
M4655 468 c-35 -30 -37 -79 -5 -113 23 -25 25 -25 206 -25 100 0 190 3 199 6
18 7 45 55 45 79 0 9 -13 30 -29 46 l-29 29 -181 0 c-172 0 -181 -1 -206 -22z
M5589 461 c-16 -16 -29 -37 -29 -46 0 -24 27 -72 45 -79 9 -3 99 -6 199 -6
178 0 183 1 204 23 32 34 30 89 -4 116 -25 19 -40 21 -206 21 l-180 0 -29 -29z
M6545 478 c-51 -30 -60 -84 -20 -123 24 -25 26 -25 208 -25 171 0 186 1 211
21 32 25 35 75 7 110 -19 23 -23 24 -203 27 -127 1 -189 -2 -203 -10z M7483
480 c-49 -20 -59 -96 -17 -129 25 -20 40 -21 211 -21 182 0 184 0 208 25 40
40 30 96 -22 123 -26 14 -346 16 -380 2z M8405 468 c-35 -30 -37 -79 -5 -113
23 -25 25 -25 206 -25 100 0 190 3 199 6 18 7 45 55 45 79 0 9 -13 30 -29 46
l-29 29 -181 0 c-172 0 -181 -1 -206 -22z M9339 461 c-16 -16 -29 -37 -29 -46
0 -24 27 -72 45 -79 9 -3 99 -6 199 -6 178 0 183 1 204 23 32 34 30 89 -4 116
-25 19 -40 21 -206 21 l-180 0 -29 -29z"/>
</g>
</svg>
