<?xml version="1.0" standalone="no"?>
<!DOCTYPE svg PUBLIC "-//W3C//DTD SVG 20010904//EN"
 "http://www.w3.org/TR/2001/REC-SVG-20010904/DTD/svg10.dtd">
<svg version="1.0" xmlns="http://www.w3.org/2000/svg"
 width="2048.000000pt" height="2048.000000pt" viewBox="0 0 2048.000000 2048.000000"
 preserveAspectRatio="xMidYMid meet">
<metadata>
Created by potrace 1.13, written by Peter Selinger 2001-2015
</metadata>
<g transform="translate(0.000000,2048.000000) scale(0.192120,-0.192120)"
fill="#000000" stroke="none">
<path d="M5111 9954 c-68 -38 -190 -127 -275 -202 -220 -194 -530 -525 -649
-694 -29 -41 -47 -58 -63 -58 -35 0 -172 50 -364 133 -266 114 -390 147 -555
147 -87 0 -237 -28 -257 -48 -4 -4 19 -37 53 -72 35 -38 75 -96 97 -139 34
-69 37 -81 36 -160 0 -102 -21 -158 -114 -316 -32 -55 -73 -131 -91 -170 -39
-86 -93 -296 -113 -442 -55 -392 -43 -1000 25 -1291 10 -46 19 -90 19 -99 0
-30 81 -220 115 -271 38 -56 86 -92 121 -92 41 0 72 60 88 172 l7 47 -43 11
c-96 26 -109 48 -155 270 -43 208 -50 332 -29 512 9 75 16 196 16 267 0 238
33 513 82 695 12 45 60 157 106 251 112 226 133 283 143 385 21 234 21 232 41
227 13 -4 18 0 18 15 0 13 5 18 14 15 8 -3 34 -11 58 -17 24 -7 96 -32 161
-57 86 -34 117 -50 117 -63 0 -31 234 -119 341 -127 118 -10 185 35 356 234
218 256 488 519 570 558 46 22 52 18 125 -76 32 -41 61 -74 66 -74 4 0 30 -17
58 -37 77 -57 158 -96 224 -109 48 -9 60 -15 60 -30 0 -17 8 -19 69 -19 81 0
101 6 101 29 0 13 15 21 58 31 31 7 116 34 187 60 174 64 309 106 372 118 46
8 52 7 56 -10 3 -10 11 -18 19 -18 8 0 23 -19 33 -42 84 -193 169 -315 297
-429 182 -160 311 -220 556 -259 60 -10 72 -15 72 -31 0 -13 7 -19 24 -19 14
0 28 -6 33 -12 4 -7 10 -87 13 -178 l5 -165 77 -190 c70 -174 126 -354 159
-510 7 -33 16 -68 22 -79 5 -10 13 -93 18 -185 4 -91 13 -206 19 -256 12 -100
8 -171 -21 -352 -10 -68 -19 -142 -19 -167 0 -49 -26 -144 -47 -166 -7 -8 -42
-17 -83 -21 -39 -3 -73 -9 -77 -12 -9 -10 25 -91 64 -150 62 -95 120 -111 173
-50 92 104 146 361 171 808 29 517 -25 857 -191 1215 -75 161 -94 227 -87 302
9 105 80 190 217 262 40 21 68 42 64 48 -20 31 -138 58 -416 93 -233 29 -359
51 -403 70 -46 19 -188 130 -270 210 -114 113 -175 220 -175 310 0 41 44 128
81 159 16 14 25 27 21 30 -27 16 -159 28 -266 23 -143 -6 -246 -31 -451 -107
-318 -118 -334 -123 -420 -123 -177 0 -312 100 -360 266 -12 42 -16 86 -13
158 4 117 4 116 -91 63z M3910 7798 c-38 -11 -105 -56 -125 -85 -23 -33 -35
-96 -27 -148 l7 -49 90 82 c49 45 94 82 99 82 6 0 52 -35 101 -76 222 -187
643 -482 660 -462 1 2 33 112 71 246 38 133 71 242 74 242 3 0 23 -26 45 -58
63 -89 309 -329 415 -404 94 -67 297 -178 325 -178 8 0 15 5 15 11 0 9 -126
446 -138 478 -3 7 23 -9 57 -37 182 -146 489 -225 929 -239 215 -7 210 -9 156
63 -36 50 -74 61 -269 79 -277 25 -454 64 -613 136 -155 71 -204 75 -262 23
-47 -43 -100 -118 -100 -142 0 -25 -62 -22 -99 6 -17 12 -34 22 -38 22 -4 0
-70 62 -148 139 -189 187 -247 214 -331 152 -55 -40 -73 -62 -125 -154 -25
-45 -57 -88 -71 -96 -22 -13 -29 -12 -71 9 -25 13 -133 88 -239 168 -251 188
-305 214 -388 190z M3382 7271 l-273 -276 139 -415 140 -416 -140 -278 -140
-279 284 -286 284 -286 129 -267 c72 -147 133 -267 136 -268 3 0 66 124 140
276 l134 276 558 279 557 279 558 -279 557 -279 134 -276 c74 -152 137 -276
140 -276 3 1 64 121 136 268 l129 267 284 286 284 286 -140 279 -139 278 139
416 139 415 -276 278 c-152 152 -277 277 -278 277 -1 0 -65 -125 -141 -277
l-138 -278 -694 -138 -694 -138 -694 138 -693 138 -139 278 c-76 152 -141 277
-144 276 -3 -1 -128 -126 -278 -278z m3728 -147 c14 -7 59 -47 100 -89 l75
-76 -1 -62 c-1 -47 -14 -96 -54 -207 -119 -330 -120 -335 -126 -443 -5 -90 -3
-112 19 -187 14 -47 48 -138 76 -203 41 -95 51 -130 51 -174 l0 -55 -164 -168
c-90 -92 -205 -220 -256 -284 -61 -77 -99 -116 -112 -116 -11 0 -66 47 -136
118 l-117 119 -295 147 c-395 198 -582 279 -740 323 -154 42 -328 -17 -940
-322 l-295 -148 -119 -118 c-65 -66 -126 -119 -135 -119 -24 1 -40 16 -116
115 -38 50 -137 160 -220 245 -191 196 -205 213 -205 255 0 18 20 75 44 128
110 235 138 400 97 552 -12 43 -46 139 -75 214 -70 176 -106 293 -106 340 0
34 8 45 73 109 94 93 120 112 150 112 29 0 44 -17 86 -92 34 -59 162 -189 230
-232 68 -43 141 -61 711 -175 622 -124 682 -133 805 -119 154 17 1224 236
1282 263 112 51 224 158 278 265 15 30 36 68 47 83 21 29 34 29 88 1z M3987
6286 c-104 -38 -187 -153 -187 -260 0 -99 72 -209 165 -252 47 -23 61 -24 256
-24 200 0 206 1 257 26 201 100 209 377 13 492 -46 27 -47 27 -256 29 -158 2
-219 -1 -248 -11z m303 -266 c0 -18 -7 -20 -75 -20 -56 0 -75 3 -75 13 0 23
11 27 82 27 61 0 68 -2 68 -20z M6204 6284 c-60 -22 -119 -77 -150 -141 -67
-136 -10 -299 128 -367 51 -25 57 -26 257 -26 195 0 209 1 256 24 68 31 131
104 151 174 36 124 -17 251 -135 320 -46 27 -47 27 -256 29 -165 2 -219 -1
-251 -13z m306 -264 c0 -18 -7 -20 -75 -20 -56 0 -75 3 -75 13 0 23 11 27 82
27 61 0 68 -2 68 -20z M2788 6491 c-127 -141 -198 -388 -185 -646 8 -154 35
-265 97 -391 56 -116 135 -205 216 -245 64 -31 173 -38 228 -15 52 22 56 21
56 -16 0 -91 77 -505 135 -726 139 -527 349 -901 684 -1213 l101 -94 0 -238 0
-238 23 7 c97 30 111 63 86 215 -7 38 -9 72 -6 75 3 3 20 -10 37 -29 47 -54
159 -133 241 -171 104 -48 231 -83 394 -108 186 -29 652 -32 841 -5 307 43
500 124 648 271 l59 59 -7 -49 c-16 -112 -18 -181 -7 -202 11 -21 78 -62 101
-62 7 0 10 79 10 235 l0 235 138 137 c207 207 366 433 472 670 131 294 247
734 297 1124 9 74 18 136 19 138 2 2 21 -4 44 -13 66 -26 155 -21 225 13 103
51 171 128 234 262 53 114 81 231 88 371 13 252 -56 501 -177 638 -48 55 -48
51 -20 -115 26 -151 29 -624 5 -715 -22 -83 -70 -172 -122 -227 -52 -54 -63
-61 -194 -122 -149 -69 -222 -176 -278 -409 -16 -64 -45 -187 -66 -272 -96
-400 -164 -568 -327 -813 -106 -159 -144 -210 -220 -292 -134 -144 -180 -202
-210 -264 -27 -56 -30 -70 -24 -120 l6 -56 -47 -31 c-149 -97 -331 -160 -568
-195 -124 -19 -820 -19 -960 -1 -205 27 -385 84 -535 170 l-85 49 -6 74 c-8
113 -19 132 -178 309 -192 214 -272 330 -371 532 -85 173 -171 432 -235 703
-106 452 -151 529 -372 640 -90 45 -122 67 -161 111 -51 56 -54 63 -93 154
-23 53 -24 63 -24 340 0 266 2 295 28 442 15 86 27 159 27 162 0 17 -23 1 -62
-43z M5032 5239 c-56 -28 -98 -81 -112 -140 -21 -88 18 -179 98 -226 47 -28
47 -28 267 -31 266 -4 310 0 367 38 124 82 124 257 0 345 l-44 30 -266 3
c-256 2 -269 2 -310 -19z M6160 4463 c-8 -3 -73 -29 -145 -58 -161 -66 -349
-127 -480 -156 -91 -20 -136 -22 -525 -28 -404 -6 -426 -7 -452 -26 -84 -63
-75 -195 16 -239 30 -14 106 -16 658 -16 737 0 683 -7 798 109 83 85 155 208
186 318 17 60 16 64 -1 83 -18 20 -28 23 -55 13z M2914 3308 c-94 -89 -242
-336 -293 -490 l-21 -64 -105 -15 -105 -15 -67 90 c-84 114 -245 277 -300 305
-79 39 -118 26 -209 -71 -96 -103 -241 -331 -315 -494 -28 -61 -32 -65 -102
-100 -99 -50 -188 -115 -220 -161 -45 -65 -78 -150 -82 -209 -3 -49 -9 -62
-58 -122 -79 -99 -114 -153 -162 -255 -159 -337 -168 -800 -23 -1274 l31 -103
4447 0 4447 0 32 103 c75 247 107 477 98 725 -11 337 -93 567 -285 804 -49 61
-54 73 -58 125 -4 61 -44 158 -90 218 -31 41 -149 123 -232 161 -56 25 -59 29
-92 103 -86 191 -273 464 -367 536 -42 32 -54 36 -89 32 -24 -2 -61 -18 -88
-36 -66 -46 -185 -170 -267 -281 l-71 -95 -106 15 -105 15 -19 55 c-26 80
-119 263 -180 355 -71 109 -157 195 -195 195 -84 0 -292 -223 -419 -447 l-46
-83 -114 0 c-178 0 -193 -8 -548 -294 -259 -208 -400 -305 -571 -392 -230
-116 -397 -158 -630 -159 -229 0 -380 35 -600 139 -196 93 -295 160 -640 436
-231 184 -302 234 -363 256 -23 8 -84 13 -159 14 -84 0 -123 4 -123 11 0 19
-88 158 -161 255 -123 165 -236 264 -299 264 -12 0 -45 -22 -76 -52z m213
-334 c43 -42 96 -88 118 -104 47 -32 132 -60 185 -60 32 0 38 -4 53 -35 23
-48 21 -62 -7 -80 -66 -44 -398 -80 -658 -73 -154 5 -214 15 -229 39 -3 6 -3
25 0 42 6 26 14 33 47 43 100 29 177 88 249 189 58 81 97 115 132 115 27 0 45
-13 110 -76z m4582 29 c22 -27 59 -73 83 -103 55 -69 136 -126 208 -147 62
-18 70 -25 70 -70 0 -45 -35 -54 -230 -60 -246 -8 -534 21 -641 64 -44 17 -50
42 -24 92 12 24 22 29 70 34 89 9 154 46 260 146 82 79 100 91 129 91 29 0 41
-8 75 -47z m-5706 -157 c18 -7 57 -37 87 -66 120 -114 175 -132 297 -95 19 6
30 -5 87 -92 70 -107 142 -249 152 -299 8 -41 -11 -59 -91 -83 -231 -72 -926
-96 -1101 -39 -37 12 -39 16 -42 57 -2 30 5 69 23 117 l26 71 64 5 c116 10
136 28 304 278 67 100 124 160 153 160 5 0 23 -6 41 -14z m6772 -48 c33 -35
95 -115 137 -178 41 -63 86 -125 99 -137 33 -30 93 -54 153 -62 50 -6 50 -6
73 -64 34 -83 40 -142 19 -166 -33 -36 -131 -46 -441 -45 -308 0 -491 15 -653
54 -105 25 -132 42 -132 84 0 40 84 210 160 324 45 68 58 82 75 76 11 -3 43
-8 72 -11 64 -7 107 13 206 96 75 63 122 91 152 91 10 0 46 -28 80 -62z
m-5036 -278 c31 -17 154 -102 275 -190 386 -282 440 -314 658 -389 237 -81
416 -106 722 -98 251 6 373 26 577 93 217 72 270 103 654 383 358 260 359 261
511 192 134 -60 299 -88 538 -92 87 -1 99 -4 103 -20 3 -12 14 -19 29 -19 21
0 24 -5 24 -35 0 -19 4 -43 9 -53 5 -9 19 -37 31 -62 26 -53 107 -140 170
-180 89 -57 289 -86 665 -96 256 -8 414 4 527 40 43 14 86 23 96 21 38 -7 192
-90 192 -103 0 -8 -30 -44 -67 -81 -200 -198 -704 -337 -1389 -382 -312 -20
-454 -7 -1054 96 -717 123 -1023 157 -1529 171 -540 15 -1012 -30 -1861 -176
-566 -98 -716 -111 -1025 -91 -509 33 -926 121 -1195 253 -104 51 -135 71
-192 128 -38 37 -68 74 -68 81 0 8 42 36 94 63 102 53 107 54 206 17 181 -65
913 -46 1117 30 58 22 166 114 203 174 20 33 60 146 60 171 0 8 7 14 15 14 8
0 15 6 15 14 0 15 69 26 173 26 179 0 357 33 487 89 116 50 153 51 229 11z
m-2484 -955 c173 -99 294 -145 538 -204 291 -71 583 -108 940 -118 127 -3 230
-10 234 -16 3 -5 0 -34 -7 -64 -11 -45 -11 -63 0 -106 14 -55 99 -227 148
-299 54 -81 61 -133 18 -143 -11 -3 -472 -4 -1024 -3 l-1003 3 -19 25 c-40 51
-44 85 -47 417 -3 273 -2 331 12 384 27 105 69 169 109 169 12 0 57 -20 101
-45z m8288 21 c12 -13 31 -46 42 -72 18 -45 20 -78 23 -404 3 -379 0 -416 -44
-467 l-24 -28 -1005 -3 c-715 -2 -1012 1 -1026 9 -28 15 -20 43 41 144 132
220 167 321 141 413 -6 18 -8 39 -5 46 4 10 62 14 237 19 591 16 1076 115
1412 288 83 42 158 77 168 78 10 1 28 -10 40 -23z m-4743 -115 c0 -11 -17 -39
-37 -63 -145 -169 -173 -214 -173 -276 0 -23 -6 -45 -15 -52 -8 -7 -15 -9 -15
-5 0 4 -6 3 -13 -3 -9 -8 -113 14 -387 84 -206 52 -389 101 -407 109 -17 8
-38 15 -47 15 -9 0 -16 5 -16 10 0 6 -9 10 -20 10 -29 0 -25 25 6 39 68 31
882 146 1057 150 60 1 67 -1 67 -18z m1344 -1 c320 -36 786 -109 838 -133 32
-14 37 -37 8 -37 -11 0 -20 -4 -20 -10 0 -5 -7 -10 -16 -10 -9 0 -30 -7 -47
-15 -18 -8 -202 -57 -411 -110 -335 -85 -382 -95 -407 -85 -26 11 -29 17 -29
57 0 63 -46 148 -132 241 -47 52 -68 83 -68 104 0 24 53 24 284 -2z m-535
-168 l279 -139 -169 -248 c-92 -137 -167 -250 -166 -251 4 -3 1977 495 1988
502 8 5 10 2 7 -7 -8 -20 -506 -761 -524 -779 -15 -16 -6 -21 -114 67 -28 24
-70 48 -93 54 -32 8 -160 8 -517 -2 -594 -17 -673 -17 -841 -1 -113 11 -159
11 -265 0 -159 -16 -235 -16 -839 1 -371 10 -490 11 -523 2 -30 -9 -64 -31
-108 -72 -36 -33 -70 -59 -77 -57 -12 4 -536 776 -537 790 0 4 24 0 53 -9 62
-19 1941 -491 1944 -489 1 1 -74 114 -166 250 l-168 249 276 138 c152 76 277
138 279 138 1 1 128 -61 281 -137z"/>
</g>
</svg>
