<?xml version="1.0" standalone="no"?>
<!DOCTYPE svg PUBLIC "-//W3C//DTD SVG 20010904//EN"
 "http://www.w3.org/TR/2001/REC-SVG-20010904/DTD/svg10.dtd">
<svg version="1.0" xmlns="http://www.w3.org/2000/svg"
 width="2048.000000pt" height="2048.000000pt" viewBox="0 0 2048.000000 2048.000000"
 preserveAspectRatio="xMidYMid meet">
<metadata>
Created by potrace 1.13, written by Peter Selinger 2001-2015
</metadata>
<g transform="translate(0.000000,2048.000000) scale(0.192120,-0.192120)"
fill="#000000" stroke="none">
<path d="M6517 9423 c121 -119 194 -238 246 -398 20 -62 47 -177 47 -202 0
-10 -30 3 -107 47 -414 239 -913 370 -1511 399 -202 10 -567 -1 -792 -24 -176
-18 -231 -35 -114 -35 89 0 244 -24 364 -55 116 -31 299 -119 360 -174 l45
-41 -85 8 c-139 12 -635 8 -750 -6 -667 -81 -1174 -291 -1570 -651 -45 -41
-116 -113 -157 -160 -81 -92 -226 -291 -219 -299 3 -2 26 14 52 37 154 135
416 257 636 295 109 19 316 31 345 20 20 -8 15 -14 -55 -78 -416 -377 -744
-926 -882 -1476 -70 -280 -92 -462 -92 -755 1 -802 251 -1576 743 -2305 99
-147 231 -317 317 -410 l47 -51 277 277 276 278 59 -54 c63 -58 169 -138 245
-185 l48 -30 0 -325 c0 -179 3 -362 7 -408 l6 -84 -202 101 c-111 56 -236 113
-279 127 -73 25 -84 26 -224 21 l-146 -5 -25 36 c-67 101 -180 197 -215 185
-44 -16 -130 -130 -177 -237 -23 -51 -24 -53 -82 -65 -32 -7 -113 -29 -180
-48 l-123 -34 -57 62 c-77 83 -191 173 -246 194 -41 15 -47 15 -75 1 -78 -40
-232 -335 -287 -546 -13 -50 -24 -71 -50 -93 -85 -70 -191 -251 -226 -386 -32
-119 -12 -218 55 -280 14 -14 26 -30 26 -37 0 -7 -13 -42 -29 -78 -71 -157
-176 -485 -231 -721 -23 -97 -90 -423 -90 -437 0 -4 1750 -8 3890 -8 2347 0
3890 4 3890 9 0 23 -82 408 -110 516 -67 260 -147 501 -218 657 l-29 65 38 40
c38 41 69 119 69 173 0 129 -135 396 -246 488 -27 23 -38 44 -58 113 -69 237
-221 510 -298 535 -41 13 -143 -52 -256 -162 l-107 -103 -140 39 c-77 21 -157
42 -178 46 -35 6 -40 12 -82 93 -53 100 -105 174 -139 196 -23 15 -28 15 -61
0 -36 -18 -153 -136 -182 -186 l-16 -27 -146 5 c-139 5 -150 4 -223 -21 -43
-14 -172 -73 -288 -131 -115 -58 -212 -105 -215 -105 -3 0 -5 189 -5 419 l0
419 52 33 c87 56 248 188 330 270 l77 78 109 -108 c60 -59 139 -148 177 -197
38 -49 72 -93 76 -98 10 -11 171 127 262 223 271 288 477 667 546 1008 11 52
22 97 25 100 7 7 106 -117 145 -181 49 -81 79 -164 93 -250 6 -42 13 -74 15
-72 8 7 74 251 113 416 67 284 120 601 152 910 18 171 17 815 0 975 -69 623
-291 1180 -604 1519 l-73 79 98 -7 c261 -18 507 -101 675 -228 34 -26 62 -42
62 -35 0 24 -80 179 -130 251 -98 141 -266 284 -440 371 -208 105 -478 177
-721 192 l-96 6 -6 68 c-22 262 -288 533 -709 721 -59 26 -110 48 -113 48 -4
0 29 -35 72 -77z m-932 -504 c285 -41 575 -122 820 -229 223 -98 260 -112 311
-117 61 -7 94 8 175 78 31 27 66 49 77 49 14 0 33 -20 63 -67 54 -86 190 -222
251 -252 28 -13 115 -34 212 -52 90 -16 176 -33 190 -39 33 -12 35 -51 4 -100
-40 -64 -48 -82 -48 -114 0 -68 41 -155 155 -331 127 -196 173 -282 240 -443
60 -147 109 -313 145 -494 l31 -154 -4 -679 -3 -680 -27 -142 c-38 -208 -55
-235 -140 -226 -72 7 -114 -16 -219 -125 -77 -78 -123 -156 -158 -267 -99
-310 -367 -725 -468 -725 -73 0 -70 55 11 179 89 134 130 206 202 356 113 233
109 210 115 596 l5 336 47 60 c104 133 143 224 135 318 -5 63 -57 195 -144
369 -36 72 -47 104 -51 156 -4 61 2 83 86 340 133 407 140 448 88 562 -35 80
-106 168 -266 332 -267 273 -370 332 -478 277 -20 -10 -68 -50 -107 -88 -54
-54 -83 -95 -130 -183 -72 -135 -125 -200 -163 -200 -42 0 -77 41 -107 127
-57 159 -79 209 -111 253 -37 52 -113 118 -164 145 -104 54 -448 12 -775 -96
-250 -82 -488 -208 -750 -397 -141 -102 -177 -116 -260 -107 -105 12 -247 44
-280 65 -36 22 -86 94 -135 191 -66 131 -169 252 -248 293 -99 51 -209 -11
-452 -254 -224 -223 -311 -345 -326 -452 -9 -64 7 -130 107 -436 83 -253 89
-279 89 -355 0 -82 0 -82 -80 -251 -90 -190 -115 -268 -107 -338 8 -62 55
-154 133 -257 35 -47 64 -94 64 -105 0 -29 -21 -100 -69 -236 -36 -102 -40
-125 -41 -208 0 -86 3 -101 46 -215 96 -253 247 -524 426 -762 44 -58 68 -99
68 -116 0 -50 -116 -169 -166 -169 -46 0 -128 98 -256 305 -244 396 -404 770
-503 1177 -69 285 -68 270 -72 788 -5 502 -3 535 43 727 48 203 122 402 220
592 111 217 204 350 414 596 209 244 274 361 256 459 -4 19 -32 68 -62 110
-79 108 -76 119 46 164 341 124 738 191 1135 192 206 0 324 14 383 44 43 22
145 112 182 162 8 10 28 37 44 58 l29 39 91 -7 c50 -4 154 -16 231 -27z
m-1781 -1646 l138 -278 287 -56 286 -57 50 45 c92 83 283 221 407 295 334 197
703 310 1071 325 104 5 127 3 127 -8 0 -39 180 -582 200 -602 4 -5 84 6 178
25 l170 33 138 278 c76 152 140 277 141 277 1 0 127 -125 279 -277 l277 -278
-140 -417 -139 -417 139 -277 140 -276 -133 -133 -132 -132 15 -74 c28 -134
38 -272 35 -449 l-3 -175 -68 -140 c-132 -271 -241 -442 -405 -632 l-54 -63
-41 35 c-51 44 -109 48 -175 12 -80 -42 -265 -180 -331 -246 -102 -101 -126
-168 -95 -269 6 -20 -2 -26 -87 -66 -120 -56 -283 -108 -429 -138 -102 -20
-143 -23 -355 -23 -223 1 -249 2 -366 28 -150 32 -283 74 -395 127 l-81 37 10
55 c9 50 7 60 -17 113 -42 92 -151 194 -267 249 -139 67 -160 66 -232 -3 l-38
-36 -93 97 c-176 182 -349 437 -472 693 -64 134 -134 305 -134 327 0 18 89
243 150 382 l53 118 -153 153 -153 153 140 276 139 277 -139 417 -140 417 274
277 c151 152 276 277 279 277 3 1 68 -124 144 -276z m889 -4232 c183 -76 380
-111 620 -111 326 1 561 61 785 203 35 21 65 37 67 35 3 -2 -5 -36 -16 -74
-37 -123 -39 -137 -39 -305 l0 -166 28 -39 c16 -21 36 -45 45 -52 9 -8 13 -20
11 -27 -7 -18 97 -100 154 -121 39 -16 47 -16 109 0 36 9 131 45 211 81 109
49 148 63 158 54 7 -6 18 -8 23 -4 15 9 60 -17 117 -67 79 -70 126 -105 167
-122 56 -23 170 -44 280 -52 73 -5 97 -10 97 -21 0 -7 8 -17 17 -20 20 -8 45
-28 128 -105 82 -77 101 -91 161 -121 114 -58 381 -104 654 -113 l175 -6 33
-36 c19 -22 32 -47 32 -64 0 -55 32 -174 56 -211 l25 -38 -47 -20 c-175 -78
-676 -101 -1079 -50 -88 12 -338 47 -555 80 -728 109 -1037 143 -1498 163
-285 12 -691 3 -947 -22 -270 -26 -334 -33 -515 -56 -107 -13 -377 -52 -600
-85 -223 -33 -472 -69 -555 -80 -396 -51 -905 -27 -1079 50 l-47 20 27 41 c28
43 40 84 54 191 9 72 25 106 52 115 10 3 93 7 185 9 173 3 313 19 468 54 174
38 232 70 360 197 33 33 72 68 88 78 15 10 27 24 27 31 0 8 31 14 99 18 133 9
245 32 306 62 28 13 94 63 145 110 62 57 101 85 112 82 9 -3 19 0 20 5 2 6 74
-19 160 -56 192 -82 251 -95 310 -72 44 16 170 116 147 116 -8 0 -5 9 8 23 11
12 33 41 47 65 27 43 27 44 24 215 -3 148 -7 185 -29 263 l-25 90 83 -52 c46
-29 116 -66 156 -83z m-1145 -370 c23 -43 42 -86 42 -94 0 -41 -124 -78 -324
-98 -118 -11 -273 -8 -308 6 -26 10 -23 71 8 153 l26 70 66 4 c44 3 86 14 124
31 48 23 71 27 150 28 51 0 102 4 113 9 28 11 53 -15 103 -109z m3780 97 c80
1 102 -3 150 -24 31 -14 86 -29 122 -32 l65 -7 24 -60 c32 -80 38 -137 17
-154 -24 -20 -184 -26 -317 -12 -206 22 -319 54 -319 92 0 29 26 87 71 156 39
59 42 61 67 51 15 -6 69 -10 120 -10z m-4883 -153 c62 -31 122 -32 177 -4 l40
21 39 -38 c53 -51 156 -196 186 -261 30 -64 24 -87 -27 -113 -182 -93 -794
-164 -887 -104 -18 11 -23 24 -23 59 l0 46 74 33 c95 43 138 89 200 210 69
134 83 155 109 166 35 14 59 11 112 -15z m5903 10 c12 -9 51 -74 87 -145 74
-145 122 -198 207 -228 57 -20 70 -38 66 -90 -5 -59 -33 -67 -213 -65 -272 3
-621 69 -719 136 -24 17 -27 25 -23 54 4 19 27 68 52 108 54 86 171 235 186
235 5 0 23 -7 40 -15 47 -25 98 -25 169 0 78 28 118 30 148 10z m-3550 -1156
c2 -9 -33 -59 -78 -110 -94 -110 -130 -173 -130 -228 0 -22 -6 -44 -15 -51 -8
-7 -15 -9 -15 -5 0 4 -6 3 -13 -3 -9 -8 -118 16 -407 89 -217 55 -409 106
-427 114 -17 8 -35 15 -40 15 -20 0 -63 26 -63 38 0 7 12 17 28 23 34 14 428
71 677 98 403 45 478 48 483 20z m1302 6 c317 -29 869 -103 923 -124 15 -6 27
-16 27 -23 0 -12 -43 -38 -63 -38 -5 0 -23 -7 -40 -15 -18 -8 -211 -60 -431
-115 -353 -90 -402 -100 -427 -90 -26 11 -29 17 -29 57 0 64 -47 149 -132 242
-77 83 -85 121 -26 121 18 0 107 -7 198 -15z m-491 -173 l279 -139 -169 -248
c-92 -137 -167 -250 -166 -251 4 -3 1977 495 1988 502 8 5 10 2 7 -7 -8 -20
-506 -761 -524 -779 -15 -16 -6 -21 -114 67 -28 24 -70 48 -93 54 -32 8 -160
8 -517 -2 -594 -17 -673 -17 -841 -1 -113 11 -159 11 -265 0 -159 -16 -235
-16 -839 1 -371 10 -490 11 -523 2 -30 -9 -64 -31 -108 -72 -36 -33 -70 -59
-77 -57 -12 4 -536 776 -537 790 0 4 24 0 53 -9 62 -19 1941 -491 1944 -489 1
1 -74 114 -166 250 l-168 249 276 138 c152 76 277 138 279 138 1 1 128 -61
281 -137z m-3494 -37 c158 -22 531 -31 705 -16 96 8 146 9 153 2 6 -6 5 -24
-3 -53 -32 -104 -6 -200 101 -378 88 -145 97 -170 74 -194 -15 -15 -82 -16
-688 -14 l-672 3 -3 55 c-4 69 18 174 75 360 48 156 64 192 96 228 24 26 22
26 162 7z m6577 -5 c33 -26 60 -89 115 -278 42 -141 46 -168 47 -262 l1 -105
-663 -3 c-464 -1 -669 1 -683 9 -28 15 -20 43 41 144 26 44 64 112 83 150 69
137 80 193 52 272 -25 71 -18 76 99 66 159 -13 636 -6 746 10 131 20 134 20
162 -3z M4161 6107 c-51 -20 -111 -75 -133 -124 -40 -91 -17 -207 54 -269 66
-58 105 -66 295 -62 169 3 170 3 219 33 30 19 60 49 79 79 26 43 30 59 30 121
0 62 -4 78 -30 121 -19 30 -49 60 -79 79 l-49 30 -176 2 c-121 1 -187 -2 -210
-10z M6081 6094 c-124 -62 -168 -213 -95 -331 18 -29 49 -59 78 -78 49 -30 50
-30 219 -33 190 -4 229 4 295 62 100 88 98 255 -4 344 -60 54 -97 62 -281 62
-152 0 -161 -1 -212 -26z M4998 4881 c-30 -26 -33 -35 -36 -100 -4 -70 -4 -71
31 -106 l35 -35 282 0 282 0 34 34 c32 32 34 38 34 101 0 63 -2 69 -34 101
l-34 34 -281 0 -281 0 -32 -29z M6055 4298 c-127 -56 -353 -132 -492 -165
-117 -27 -123 -27 -543 -33 -309 -4 -431 -8 -446 -17 -12 -7 -34 -26 -48 -44
-48 -57 -29 -159 37 -199 31 -19 55 -20 672 -20 616 0 642 1 684 20 23 11 61
34 82 51 105 83 251 369 219 429 -16 30 -61 24 -165 -22z"/>
</g>
</svg>
