<?xml version="1.0" standalone="no"?>
<!DOCTYPE svg PUBLIC "-//W3C//DTD SVG 20010904//EN"
 "http://www.w3.org/TR/2001/REC-SVG-20010904/DTD/svg10.dtd">
<svg version="1.0" xmlns="http://www.w3.org/2000/svg"
 width="2048.000000pt" height="2048.000000pt" viewBox="0 0 2048.000000 2048.000000"
 preserveAspectRatio="xMidYMid meet">
<metadata>
Created by potrace 1.13, written by Peter Selinger 2001-2015
</metadata>
<g transform="translate(0.000000,2048.000000) scale(0.192120,-0.192120)"
fill="#000000" stroke="none">
<path d="M2803 10300 c-171 -24 -381 -92 -537 -172 -269 -140 -415 -468 -457
-1028 -60 -803 190 -2204 607 -3395 122 -347 287 -727 378 -869 l37 -58 -20
-142 c-60 -420 -93 -1033 -94 -1726 0 -611 21 -942 79 -1222 131 -648 350
-1144 571 -1294 69 -48 150 -71 208 -60 54 10 130 91 182 191 101 197 164 403
358 1165 74 289 159 613 190 720 263 920 518 1369 854 1502 81 32 261 32 342
0 294 -117 527 -479 752 -1167 81 -247 150 -495 296 -1070 189 -744 242 -918
342 -1124 61 -124 133 -205 194 -217 58 -11 139 12 208 60 221 150 440 646
571 1294 57 279 79 612 78 1227 0 690 -33 1302 -93 1721 l-20 142 37 58 c91
142 266 548 382 884 327 946 550 1983 602 2800 47 743 -69 1284 -325 1518
-148 136 -504 257 -790 269 -248 11 -482 -37 -851 -172 -535 -196 -677 -242
-894 -289 -470 -101 -952 -93 -1415 24 -193 48 -311 86 -677 221 -468 172
-615 208 -868 214 -91 2 -193 0 -227 -5z m405 -146 c189 -30 310 -66 742 -224
411 -150 651 -215 941 -257 181 -26 691 -26 874 0 301 43 586 122 985 272 455
171 676 225 921 225 238 0 521 -74 676 -176 191 -128 280 -297 355 -674 21
-109 23 -139 23 -545 0 -301 -4 -448 -12 -490 -7 -33 -26 -159 -43 -280 -109
-778 -306 -1579 -575 -2330 -81 -227 -160 -415 -262 -625 -105 -217 -107 -224
-100 -410 4 -85 13 -216 21 -290 13 -112 15 -330 16 -1305 l0 -1169 -36 -176
c-93 -457 -244 -867 -382 -1042 -140 -175 -235 -200 -321 -85 -50 67 -62 92
-115 235 -55 146 -141 454 -295 1057 -131 514 -143 558 -233 845 -115 370
-245 678 -377 894 -140 228 -330 394 -518 451 -283 87 -598 -68 -816 -401
-249 -380 -395 -790 -672 -1879 -182 -718 -241 -917 -330 -1111 -30 -66 -87
-137 -122 -153 -78 -36 -192 44 -299 209 -129 200 -275 629 -349 1030 -44 236
-45 259 -45 1238 0 945 3 1049 40 1408 11 105 20 242 20 306 0 129 -7 153
-102 342 -306 610 -648 1763 -797 2686 -72 445 -72 457 -69 1085 l3 570 31
115 c52 192 124 325 232 427 105 100 320 188 552 228 107 18 322 18 438 -1z
M3855 9107 c-44 -20 -102 -90 -115 -138 -32 -119 23 -199 216 -309 414 -237
1023 -372 1532 -339 551 35 1133 221 1362 435 109 102 103 234 -13 327 -30 25
-49 32 -96 35 -75 5 -114 -8 -176 -59 -177 -146 -621 -283 -1036 -320 -480
-42 -1082 94 -1433 324 -72 47 -85 52 -145 54 -40 2 -78 -2 -96 -10z"/>
</g>
</svg>
