<?xml version="1.0" standalone="no"?>
<!DOCTYPE svg PUBLIC "-//W3C//DTD SVG 20010904//EN"
 "http://www.w3.org/TR/2001/REC-SVG-20010904/DTD/svg10.dtd">
<svg version="1.0" xmlns="http://www.w3.org/2000/svg"
 width="2048.000000pt" height="2048.000000pt" viewBox="0 0 2048.000000 2048.000000"
 preserveAspectRatio="xMidYMid meet">
<metadata>
Created by potrace 1.13, written by Peter Selinger 2001-2015
</metadata>
<g transform="translate(0.000000,2048.000000) scale(0.192120,-0.192120)"
fill="#000000" stroke="none">
<path d="M602 10323 c-15 -6 -42 -56 -42 -78 0 -9 13 -30 29 -46 l29 -29 180
0 c166 0 181 2 206 21 35 27 36 86 3 117 -22 21 -32 22 -208 21 -101 0 -190
-3 -197 -6z M1525 10305 c-44 -43 -22 -115 39 -131 12 -3 100 -4 195 -2 168 3
173 4 192 27 28 35 25 85 -7 110 -25 20 -40 21 -211 21 -182 0 -184 0 -208
-25z M2466 10309 c-32 -25 -35 -75 -7 -110 19 -23 24 -24 192 -27 95 -2 183
-1 195 2 61 16 83 88 39 131 -24 25 -26 25 -208 25 -171 0 -186 -1 -211 -21z
M3400 10305 c-32 -34 -30 -83 5 -112 25 -22 34 -23 206 -23 l181 0 29 29 c16
16 29 37 29 46 0 24 -27 72 -45 79 -9 3 -99 6 -199 6 -181 0 -183 0 -206 -25z
M4352 10323 c-15 -6 -42 -56 -42 -78 0 -9 13 -30 29 -46 l29 -29 181 0 c172 0
181 1 206 23 35 29 37 78 5 112 -23 25 -24 25 -209 24 -102 0 -192 -3 -199 -6z
M5275 10305 c-44 -43 -22 -115 39 -131 12 -3 100 -4 195 -2 168 3 173 4 192
27 28 35 25 85 -7 110 -25 20 -40 21 -211 21 -182 0 -184 0 -208 -25z M6216
10309 c-32 -25 -35 -75 -7 -110 19 -23 24 -24 192 -27 95 -2 183 -1 195 2 61
16 83 88 39 131 -24 25 -26 25 -208 25 -171 0 -186 -1 -211 -21z M7150 10305
c-32 -34 -30 -83 5 -112 25 -22 34 -23 206 -23 l181 0 29 29 c16 16 29 37 29
46 0 24 -27 72 -45 79 -9 3 -99 6 -199 6 -181 0 -183 0 -206 -25z M8102 10323
c-15 -6 -42 -56 -42 -78 0 -9 13 -30 29 -46 l29 -29 181 0 c172 0 181 1 206
23 35 29 37 78 5 112 -23 25 -24 25 -209 24 -102 0 -192 -3 -199 -6z M9025
10305 c-44 -43 -22 -115 39 -131 12 -3 100 -4 195 -2 168 3 173 4 192 27 28
35 25 85 -7 110 -25 20 -40 21 -211 21 -182 0 -184 0 -208 -25z M9966 10309
c-32 -25 -35 -75 -7 -110 19 -23 24 -24 195 -27 l176 -3 0 80 0 81 -169 0
c-155 0 -170 -2 -195 -21z M375 10088 c-43 -23 -45 -34 -45 -228 0 -186 0
-187 25 -210 34 -32 83 -30 113 5 21 25 22 34 22 206 l0 181 -29 29 c-31 31
-53 35 -86 17z M10224 10090 c-49 -19 -54 -42 -54 -232 0 -169 1 -178 23 -203
29 -35 78 -37 112 -5 25 23 25 24 25 209 -1 194 -3 206 -47 229 -25 14 -30 14
-59 2z M5026 9190 c-1446 -72 -2545 -576 -3289 -1508 -594 -744 -954 -1758
-1061 -2992 -55 -623 -38 -1344 44 -1955 l21 -150 291 -510 c161 -280 306
-534 323 -563 l32 -52 7 192 c19 548 117 1208 292 1963 111 475 264 994 344
1160 70 146 188 265 342 345 185 97 324 105 693 42 472 -81 829 -123 1470
-173 222 -17 1100 -23 1378 -10 585 29 1203 97 1752 193 266 47 398 42 555
-19 141 -56 261 -149 345 -267 62 -88 87 -142 148 -326 179 -531 362 -1315
467 -1996 45 -292 90 -808 90 -1028 l0 -81 33 55 c18 30 164 285 325 565 l291
510 20 145 c82 595 99 1342 45 1960 -152 1750 -811 3050 -1914 3775 -400 264
-812 441 -1315 565 -520 129 -1157 188 -1729 160z m719 -390 c1002 -74 1790
-360 2410 -875 113 -94 322 -303 418 -418 564 -678 910 -1613 1021 -2757 29
-300 38 -488 38 -835 -1 -365 -10 -555 -43 -888 -34 -344 -25 -314 -118 -416
-89 -97 -109 -116 -116 -109 -3 3 0 53 7 113 9 83 9 131 0 209 -32 270 -130
743 -251 1210 -30 116 -41 179 -41 232 0 41 -3 74 -7 74 -3 0 -15 -7 -25 -17
-17 -15 -18 -13 -18 66 0 77 -1 81 -19 72 -26 -14 -31 2 -31 100 0 73 -9 96
-26 68 -11 -19 -24 12 -24 60 0 37 -2 42 -14 31 -13 -10 -18 0 -37 62 -12 40
-29 80 -38 89 -9 8 -27 38 -40 67 -13 28 -28 49 -33 46 -4 -3 -11 3 -15 13
-11 31 -44 73 -54 70 -6 -1 -30 25 -53 58 -24 33 -50 60 -59 60 -9 0 -38 22
-65 48 -26 26 -51 44 -55 41 -3 -4 -32 13 -64 37 -32 24 -70 44 -84 45 -15 1
-38 10 -53 19 -14 9 -32 15 -40 12 -8 -3 -53 8 -101 24 -52 18 -94 27 -104 23
-9 -4 -79 -8 -156 -8 -109 -1 -147 -5 -170 -17 -39 -21 -72 -27 -230 -38 -88
-7 -145 -16 -175 -29 -46 -20 -187 -36 -425 -47 -73 -4 -144 -14 -180 -25 -34
-11 -108 -21 -170 -25 -217 -12 -362 -26 -490 -47 -121 -20 -165 -22 -655 -22
-491 0 -533 1 -655 21 -71 12 -227 27 -345 33 -154 8 -232 17 -275 30 -38 12
-107 21 -190 25 -233 10 -378 26 -425 45 -25 10 -83 21 -130 24 -204 14 -235
18 -268 38 -29 18 -56 21 -185 25 -84 3 -156 9 -161 14 -6 5 -20 9 -33 9 -22
0 -137 -30 -174 -45 -10 -3 -20 -1 -24 5 -5 7 -18 4 -42 -10 -19 -11 -43 -18
-53 -15 -10 3 -42 -12 -81 -38 -36 -24 -70 -42 -77 -39 -7 2 -35 -17 -63 -42
-28 -25 -55 -44 -59 -41 -4 3 -31 -24 -60 -59 -29 -36 -57 -63 -64 -60 -6 2
-22 -16 -35 -41 -13 -24 -27 -42 -31 -40 -10 6 -47 -56 -56 -91 -4 -14 -11
-23 -18 -21 -6 2 -22 -28 -37 -72 -15 -42 -32 -75 -38 -74 -6 2 -11 -3 -11
-10 0 -6 -5 -29 -11 -51 -8 -28 -14 -35 -22 -27 -22 22 -27 10 -27 -61 0 -86
-8 -121 -25 -114 -9 3 -14 -14 -19 -56 -7 -73 -12 -81 -37 -68 -18 10 -19 7
-19 -68 0 -65 -14 -133 -79 -393 -44 -173 -112 -474 -153 -669 l-73 -355 0
-193 0 -193 -101 103 -100 103 -22 210 c-62 587 -73 1009 -41 1535 86 1421
514 2547 1244 3274 566 564 1309 908 2235 1035 124 17 220 26 445 44 101 9
655 6 780 -3z m-4642 -6229 c29 -46 37 -69 37 -105 0 -25 -4 -46 -9 -46 -5 0
-26 26 -45 57 -28 45 -36 68 -36 105 0 26 3 48 8 47 4 0 24 -26 45 -58z m8468
-76 c-28 -59 -41 -65 -41 -18 0 26 9 52 28 78 l27 40 3 -28 c2 -16 -6 -48 -17
-72z M355 9135 c-25 -24 -25 -26 -25 -208 0 -171 1 -186 21 -211 25 -32 75
-35 110 -7 23 19 24 24 27 192 2 95 1 183 -2 195 -16 61 -88 83 -131 39z
M10202 9140 c-31 -30 -34 -48 -30 -239 3 -168 4 -173 27 -192 35 -28 85 -25
110 7 20 25 21 40 21 211 0 182 0 184 -25 208 -30 31 -73 32 -103 5z M351
8194 c-20 -25 -21 -40 -21 -211 0 -182 0 -184 25 -208 43 -44 115 -22 131 39
3 12 4 100 2 195 -3 168 -4 173 -27 192 -35 28 -85 25 -110 -7z M10199 8201
c-23 -19 -24 -24 -27 -192 -2 -95 -1 -183 2 -195 16 -61 88 -83 131 -39 25 24
25 26 25 208 0 171 -1 186 -21 211 -25 32 -75 35 -110 7z M390 7282 c-8 -3
-25 -14 -37 -25 -22 -20 -23 -26 -23 -203 0 -100 3 -190 6 -199 7 -18 55 -45
79 -45 9 0 30 13 46 29 l29 29 0 180 c0 163 -2 182 -20 204 -20 26 -53 38 -80
30z M10233 7282 c-13 -2 -32 -15 -43 -29 -18 -24 -20 -40 -20 -205 l0 -180 29
-29 c16 -16 37 -29 46 -29 24 0 72 27 79 45 3 9 6 99 6 199 0 177 -1 183 -22
203 -27 24 -45 30 -75 25z M375 6338 c-43 -23 -45 -34 -45 -228 0 -186 0 -187
25 -210 34 -32 83 -30 113 5 21 25 22 34 22 206 l0 181 -29 29 c-31 31 -53 35
-86 17z M10199 6321 l-29 -29 0 -181 c0 -172 1 -181 23 -206 29 -35 78 -37
112 -5 25 23 25 25 25 206 0 100 -3 190 -6 199 -7 18 -55 45 -79 45 -9 0 -30
-13 -46 -29z M355 5385 c-25 -24 -25 -26 -25 -208 0 -171 1 -186 21 -211 25
-32 75 -35 110 -7 23 19 24 24 27 192 2 95 1 183 -2 195 -16 61 -88 83 -131
39z M10202 5390 c-31 -30 -34 -48 -30 -239 3 -168 4 -173 27 -192 35 -28 85
-25 110 7 20 25 21 40 21 211 0 182 0 184 -25 208 -30 31 -73 32 -103 5z M351
4444 c-20 -25 -21 -40 -21 -211 0 -182 0 -184 25 -208 43 -44 115 -22 131 39
3 12 4 100 2 195 -3 168 -4 173 -27 192 -35 28 -85 25 -110 -7z M10199 4451
c-23 -19 -24 -24 -27 -192 -2 -95 -1 -183 2 -195 16 -61 88 -83 131 -39 25 24
25 26 25 208 0 171 -1 186 -21 211 -25 32 -75 35 -110 7z M352 3507 c-21 -22
-22 -32 -22 -210 0 -173 1 -188 20 -207 29 -29 66 -35 95 -16 43 28 46 46 43
235 -3 159 -5 181 -22 200 -27 30 -86 28 -114 -2z M10194 3509 c-17 -19 -19
-41 -22 -200 -3 -189 0 -207 43 -235 29 -19 66 -13 95 16 19 19 20 34 20 208
0 184 -1 189 -23 210 -31 29 -87 29 -113 1z M375 2588 c-43 -23 -45 -34 -45
-228 0 -186 0 -187 25 -210 34 -32 83 -30 113 5 21 25 22 34 22 206 l0 181
-29 29 c-31 31 -53 35 -86 17z M10199 2571 l-29 -29 0 -181 c0 -172 1 -181 23
-206 29 -35 78 -37 112 -5 25 23 25 25 25 206 0 100 -3 190 -6 199 -7 18 -55
45 -79 45 -9 0 -30 -13 -46 -29z M355 1635 c-25 -24 -25 -26 -25 -208 0 -171
1 -186 21 -211 25 -32 75 -35 110 -7 23 19 24 24 27 192 2 95 1 183 -2 195
-16 61 -88 83 -131 39z M10202 1640 c-31 -30 -34 -48 -30 -239 3 -168 4 -173
27 -192 35 -28 85 -25 110 7 20 25 21 40 21 211 0 182 0 184 -25 208 -30 31
-73 32 -103 5z M351 694 c-19 -25 -21 -40 -21 -195 l0 -169 81 0 80 0 -3 176
c-3 171 -4 176 -27 195 -35 28 -85 25 -110 -7z M10199 701 c-23 -19 -24 -24
-27 -195 l-3 -176 80 0 81 0 0 169 c0 155 -2 170 -21 195 -25 32 -75 35 -110
7z M905 468 c-35 -30 -37 -79 -5 -113 23 -25 25 -25 206 -25 100 0 190 3 199
6 18 7 45 55 45 79 0 9 -13 30 -29 46 l-29 29 -181 0 c-172 0 -181 -1 -206
-22z M1839 461 c-16 -16 -29 -37 -29 -46 0 -24 27 -72 45 -79 9 -3 99 -6 199
-6 178 0 183 1 204 23 32 34 30 89 -4 116 -25 19 -40 21 -206 21 l-180 0 -29
-29z M2795 478 c-51 -30 -60 -84 -20 -123 24 -25 26 -25 208 -25 171 0 186 1
211 21 32 25 35 75 7 110 -19 23 -23 24 -203 27 -127 1 -189 -2 -203 -10z
M3733 480 c-49 -20 -59 -96 -17 -129 25 -20 40 -21 211 -21 182 0 184 0 208
25 40 40 30 96 -22 123 -26 14 -346 16 -380 2z M4655 468 c-35 -30 -37 -79 -5
-113 23 -25 25 -25 206 -25 100 0 190 3 199 6 18 7 45 55 45 79 0 9 -13 30
-29 46 l-29 29 -181 0 c-172 0 -181 -1 -206 -22z M5589 461 c-16 -16 -29 -37
-29 -46 0 -24 27 -72 45 -79 9 -3 99 -6 199 -6 178 0 183 1 204 23 32 34 30
89 -4 116 -25 19 -40 21 -206 21 l-180 0 -29 -29z M6545 478 c-51 -30 -60 -84
-20 -123 24 -25 26 -25 208 -25 171 0 186 1 211 21 32 25 35 75 7 110 -19 23
-23 24 -203 27 -127 1 -189 -2 -203 -10z M7483 480 c-49 -20 -59 -96 -17 -129
25 -20 40 -21 211 -21 182 0 184 0 208 25 40 40 30 96 -22 123 -26 14 -346 16
-380 2z M8405 468 c-35 -30 -37 -79 -5 -113 23 -25 25 -25 206 -25 100 0 190
3 199 6 18 7 45 55 45 79 0 9 -13 30 -29 46 l-29 29 -181 0 c-172 0 -181 -1
-206 -22z M9339 461 c-16 -16 -29 -37 -29 -46 0 -24 27 -72 45 -79 9 -3 99 -6
199 -6 178 0 183 1 204 23 32 34 30 89 -4 116 -25 19 -40 21 -206 21 l-180 0
-29 -29z"/>
</g>
</svg>
