<?xml version="1.0" standalone="no"?>
<!DOCTYPE svg PUBLIC "-//W3C//DTD SVG 20010904//EN"
 "http://www.w3.org/TR/2001/REC-SVG-20010904/DTD/svg10.dtd">
<svg version="1.0" xmlns="http://www.w3.org/2000/svg"
 width="2048.000000pt" height="2048.000000pt" viewBox="0 0 2048.000000 2048.000000"
 preserveAspectRatio="xMidYMid meet">
<metadata>
Created by potrace 1.13, written by Peter Selinger 2001-2015
</metadata>
<g transform="translate(0.000000,2048.000000) scale(0.192120,-0.192120)"
fill="#000000" stroke="none">
<path d="M7475 8124 c-16 -2 -70 -9 -120 -15 -219 -27 -374 -98 -432 -196 -24
-41 -27 -63 -54 -391 -58 -701 -113 -1059 -236 -1537 -91 -357 -224 -627 -436
-890 -93 -115 -296 -308 -434 -412 -515 -387 -1214 -638 -2003 -719 -103 -10
-299 -17 -585 -20 -387 -5 -437 -7 -496 -25 -106 -30 -206 -117 -251 -216 -17
-38 -23 -43 -51 -43 -18 0 -63 -7 -102 -15 -179 -38 -295 -146 -320 -296 -5
-36 -7 -37 -68 -48 -129 -25 -271 -118 -337 -221 -37 -58 -70 -156 -70 -209
l0 -38 -72 -7 c-186 -17 -333 -80 -443 -190 -111 -111 -163 -235 -181 -429 -5
-60 -10 -80 -23 -84 -215 -71 -341 -255 -341 -498 0 -312 205 -599 492 -690
110 -35 244 -49 438 -48 148 1 193 5 290 26 63 14 168 37 232 51 273 60 549
56 973 -13 132 -22 292 -44 355 -50 145 -14 648 -14 840 -1 378 27 594 68
1060 205 445 130 742 198 1100 249 268 39 386 48 625 48 396 0 629 -41 1130
-197 421 -131 562 -158 830 -159 210 0 294 12 465 66 206 65 375 166 532 316
224 215 359 464 428 787 28 128 37 430 21 642 -30 375 -98 646 -247 980 -186
418 -227 530 -268 735 -46 226 -56 478 -36 883 20 394 54 659 150 1150 124
635 134 721 91 810 -14 28 -54 80 -91 116 -254 256 -922 483 -1690 575 -126
15 -595 28 -665 18z m615 -250 c444 -45 908 -157 1228 -296 64 -28 92 -45 92
-57 0 -10 19 -26 48 -40 72 -35 153 -86 191 -121 l33 -31 -4 -167 c-5 -155
-10 -190 -66 -472 -65 -327 -102 -552 -128 -774 -22 -198 -15 -1166 10 -1296
22 -116 70 -301 100 -385 42 -121 163 -427 195 -495 29 -63 56 -136 119 -325
17 -49 36 -126 42 -170 7 -44 21 -114 32 -155 17 -67 19 -115 21 -450 2 -417
8 -371 -72 -573 -160 -402 -423 -635 -836 -738 -59 -15 -127 -22 -260 -26
-271 -8 -423 19 -855 152 -498 153 -755 197 -1160 197 -288 0 -468 -17 -850
-83 -271 -46 -503 -102 -897 -215 -501 -143 -695 -180 -1083 -204 -213 -13
-572 -13 -736 0 -129 11 -181 18 -477 64 -388 61 -647 56 -1017 -21 l-225 -47
-210 -1 c-167 0 -226 4 -285 18 -164 38 -273 117 -335 239 l-35 71 0 140 0
141 104 102 c126 123 159 179 160 272 l1 63 54 15 c148 44 189 46 733 51 521
5 528 5 559 26 75 51 94 129 51 200 -43 69 -38 68 -550 65 l-457 -3 -80 -27
c-135 -46 -231 -112 -287 -198 -26 -40 -29 -42 -22 -15 13 59 68 147 124 198
71 66 159 108 280 136 112 26 212 71 239 109 11 15 27 57 36 92 35 136 102
217 223 272 37 16 93 42 126 56 56 26 126 91 126 118 0 6 7 15 16 18 9 3 153
6 322 6 300 0 306 0 329 22 25 23 30 66 13 98 -16 30 -70 37 -280 39 -215 2
-263 -6 -328 -55 l-37 -27 30 32 c40 44 91 69 197 97 112 30 157 53 200 104
l35 40 171 0 c169 0 172 0 187 24 36 55 -5 76 -148 77 -83 0 -97 2 -77 11 14
6 63 12 110 12 68 1 101 -5 165 -26 143 -49 297 -59 607 -38 1196 81 2195 537
2779 1270 144 180 296 437 354 600 67 186 92 269 135 445 105 430 155 745 200
1250 37 424 39 434 67 483 31 53 71 73 189 97 180 36 463 39 764 9z M8766
5490 c-53 -16 -96 -73 -96 -127 0 -15 12 -64 27 -108 24 -72 27 -94 26 -225 0
-166 -24 -278 -87 -415 -111 -240 -292 -381 -531 -414 -88 -13 -116 -27 -146
-74 -27 -43 -21 -117 12 -153 42 -46 76 -57 147 -51 349 33 648 271 792 631
115 286 125 639 25 851 -34 71 -102 105 -169 85z M1826 3035 c-58 -24 -90 -46
-134 -95 -22 -23 -62 -92 -62 -105 0 -3 198 -4 439 -3 l439 3 26 24 c55 52 51
132 -9 179 -27 22 -35 22 -334 22 -300 0 -307 -1 -365 -25z"/>
</g>
</svg>
