<?xml version="1.0" standalone="no"?>
<!DOCTYPE svg PUBLIC "-//W3C//DTD SVG 20010904//EN"
 "http://www.w3.org/TR/2001/REC-SVG-20010904/DTD/svg10.dtd">
<svg version="1.0" xmlns="http://www.w3.org/2000/svg"
 width="2048.000000pt" height="2048.000000pt" viewBox="0 0 2048.000000 2048.000000"
 preserveAspectRatio="xMidYMid meet">
<metadata>
Created by potrace 1.13, written by Peter Selinger 2001-2015
</metadata>
<g transform="translate(0.000000,2048.000000) scale(0.192120,-0.192120)"
fill="#000000" stroke="none">
<path d="M602 10323 c-15 -6 -42 -56 -42 -78 0 -9 13 -30 29 -46 l29 -29 180
0 c166 0 181 2 206 21 35 27 36 86 3 117 -22 21 -32 22 -208 21 -101 0 -190
-3 -197 -6z M1525 10305 c-44 -43 -22 -115 39 -131 12 -3 100 -4 195 -2 168 3
173 4 192 27 28 35 25 85 -7 110 -25 20 -40 21 -211 21 -182 0 -184 0 -208
-25z M2466 10309 c-32 -25 -35 -75 -7 -110 19 -23 24 -24 192 -27 95 -2 183
-1 195 2 61 16 83 88 39 131 -24 25 -26 25 -208 25 -171 0 -186 -1 -211 -21z
M3400 10305 c-32 -34 -30 -83 5 -112 25 -22 34 -23 206 -23 l181 0 29 29 c16
16 29 37 29 46 0 24 -27 72 -45 79 -9 3 -99 6 -199 6 -181 0 -183 0 -206 -25z
M4352 10323 c-15 -6 -42 -56 -42 -78 0 -9 13 -30 29 -46 l29 -29 181 0 c172 0
181 1 206 23 35 29 37 78 5 112 -23 25 -24 25 -209 24 -102 0 -192 -3 -199 -6z
M5275 10305 c-44 -43 -22 -115 39 -131 12 -3 100 -4 195 -2 168 3 173 4 192
27 28 35 25 85 -7 110 -25 20 -40 21 -211 21 -182 0 -184 0 -208 -25z M6216
10309 c-32 -25 -35 -75 -7 -110 19 -23 24 -24 192 -27 95 -2 183 -1 195 2 61
16 83 88 39 131 -24 25 -26 25 -208 25 -171 0 -186 -1 -211 -21z M7150 10305
c-32 -34 -30 -83 5 -112 25 -22 34 -23 206 -23 l181 0 29 29 c16 16 29 37 29
46 0 24 -27 72 -45 79 -9 3 -99 6 -199 6 -181 0 -183 0 -206 -25z M8102 10323
c-15 -6 -42 -56 -42 -78 0 -9 13 -30 29 -46 l29 -29 181 0 c172 0 181 1 206
23 35 29 37 78 5 112 -23 25 -24 25 -209 24 -102 0 -192 -3 -199 -6z M9025
10305 c-44 -43 -22 -115 39 -131 12 -3 100 -4 195 -2 168 3 173 4 192 27 28
35 25 85 -7 110 -25 20 -40 21 -211 21 -182 0 -184 0 -208 -25z M9966 10309
c-32 -25 -35 -75 -7 -110 19 -23 24 -24 195 -27 l176 -3 0 80 0 81 -169 0
c-155 0 -170 -2 -195 -21z M375 10088 c-43 -23 -45 -34 -45 -228 0 -186 0
-187 25 -210 34 -32 83 -30 113 5 21 25 22 34 22 206 l0 181 -29 29 c-31 31
-53 35 -86 17z M10224 10090 c-49 -19 -54 -42 -54 -232 0 -169 1 -178 23 -203
29 -35 78 -37 112 -5 25 23 25 24 25 209 -1 194 -3 206 -47 229 -25 14 -30 14
-59 2z M4910 9179 c-1556 -110 -2668 -702 -3393 -1805 -366 -556 -628 -1264
-761 -2059 -134 -799 -147 -1717 -35 -2575 l20 -155 269 -470 c147 -259 293
-513 324 -565 l56 -95 0 110 c2 719 249 2058 546 2960 31 94 69 199 85 233
110 244 350 414 629 445 83 9 112 7 230 -12 757 -126 1255 -182 1885 -212 275
-13 1113 -7 1355 10 562 40 997 92 1545 183 238 39 255 41 345 31 275 -31 502
-187 623 -429 40 -80 149 -415 222 -681 246 -903 414 -1934 415 -2542 0 -53 4
-81 9 -75 6 5 152 257 325 560 l315 551 25 204 c78 629 89 1379 30 1984 -138
1425 -627 2562 -1420 3303 -672 627 -1519 977 -2634 1088 -193 19 -816 27
-1010 13z m1010 -393 c907 -100 1583 -351 2159 -799 132 -103 386 -349 494
-480 379 -457 650 -1005 831 -1682 99 -371 163 -759 208 -1265 18 -196 17
-1090 0 -1295 -15 -172 -49 -495 -58 -541 -4 -24 -47 -75 -162 -194 -86 -90
-158 -158 -160 -151 -2 6 8 65 22 131 40 185 36 322 -19 615 -27 145 -120 563
-175 783 -36 145 -50 223 -50 272 0 58 -3 68 -15 64 -12 -5 -15 5 -15 55 0 61
-6 71 -28 49 -9 -9 -12 3 -12 57 0 54 -3 66 -12 57 -22 -22 -28 -12 -28 48 0
60 -6 70 -28 48 -9 -9 -12 3 -12 57 0 67 0 68 -20 50 -20 -18 -20 -17 -20 48
0 66 -5 78 -27 56 -9 -9 -15 0 -23 32 -7 24 -14 50 -16 57 -2 7 -8 11 -14 7
-5 -3 -19 17 -31 45 -12 27 -24 48 -28 46 -4 -3 -17 16 -31 40 -14 27 -28 43
-36 40 -7 -3 -24 14 -39 39 -16 27 -31 42 -39 39 -8 -3 -29 13 -49 36 -23 27
-38 37 -42 30 -5 -8 -20 1 -45 25 -27 27 -43 35 -58 31 -12 -4 -24 0 -32 9
-22 26 -71 48 -82 37 -7 -7 -28 -1 -65 19 -43 23 -58 27 -69 18 -8 -6 -25 -9
-41 -5 -102 24 -117 26 -137 13 -15 -10 -49 -13 -111 -11 -76 2 -99 -1 -145
-20 -41 -17 -83 -25 -165 -30 -145 -8 -151 -9 -217 -34 -43 -16 -97 -24 -225
-32 -243 -15 -252 -16 -328 -39 -48 -14 -113 -22 -210 -26 -77 -3 -180 -10
-230 -15 -442 -45 -1430 -45 -1915 0 -58 5 -148 11 -200 13 -55 3 -124 13
-165 25 -52 15 -123 23 -279 32 -163 8 -219 15 -255 30 -47 19 -109 27 -260
35 -60 4 -94 10 -118 25 -27 16 -59 21 -145 26 -70 3 -118 10 -132 19 -18 12
-34 13 -86 4 -35 -5 -67 -12 -72 -15 -4 -3 -17 1 -28 9 -22 15 -45 10 -113
-23 -20 -10 -31 -10 -39 -2 -11 11 -29 4 -77 -30 -13 -10 -33 -15 -45 -12 -15
3 -31 -4 -54 -27 -17 -17 -38 -29 -46 -26 -7 3 -30 -11 -51 -33 -21 -21 -43
-36 -50 -34 -6 3 -24 -13 -39 -35 -15 -22 -33 -38 -40 -35 -7 3 -23 -14 -36
-40 -13 -24 -29 -42 -36 -39 -6 2 -20 -15 -30 -41 -11 -25 -24 -46 -31 -46 -6
0 -17 -23 -24 -50 -8 -32 -17 -49 -25 -46 -15 6 -20 -7 -29 -68 -7 -45 -8 -46
-26 -30 -18 17 -19 15 -19 -49 0 -37 -3 -67 -7 -67 -3 0 -15 7 -25 17 -17 15
-18 13 -18 -50 0 -55 -3 -65 -15 -61 -12 5 -15 -5 -15 -55 0 -61 -6 -71 -28
-49 -9 9 -12 -3 -12 -56 0 -60 -2 -67 -15 -56 -13 11 -15 3 -15 -65 0 -59 -10
-117 -45 -249 -58 -225 -154 -657 -205 -926 -49 -263 -52 -354 -15 -526 14
-65 25 -124 23 -133 -3 -13 -212 199 -293 297 -31 37 -41 95 -69 398 -38 399
-49 983 -26 1354 112 1827 755 3118 1890 3797 517 309 1162 504 1865 562 72 6
148 13 170 15 110 10 819 -3 955 -18z m-4820 -6313 c80 -100 100 -136 100
-175 0 -72 -40 -42 -110 82 -40 71 -63 151 -44 149 5 0 29 -25 54 -56z m8490
-11 c0 -20 -53 -134 -82 -174 -11 -16 -28 -28 -39 -28 -15 0 -19 7 -19 39 0
40 12 59 82 136 16 17 28 33 28 38 0 4 7 7 15 7 8 0 15 -8 15 -18z M355 9135
c-25 -24 -25 -26 -25 -208 0 -171 1 -186 21 -211 25 -32 75 -35 110 -7 23 19
24 24 27 192 2 95 1 183 -2 195 -16 61 -88 83 -131 39z M10202 9140 c-31 -30
-34 -48 -30 -239 3 -168 4 -173 27 -192 35 -28 85 -25 110 7 20 25 21 40 21
211 0 182 0 184 -25 208 -30 31 -73 32 -103 5z M351 8194 c-20 -25 -21 -40
-21 -211 0 -182 0 -184 25 -208 43 -44 115 -22 131 39 3 12 4 100 2 195 -3
168 -4 173 -27 192 -35 28 -85 25 -110 -7z M10199 8201 c-23 -19 -24 -24 -27
-192 -2 -95 -1 -183 2 -195 16 -61 88 -83 131 -39 25 24 25 26 25 208 0 171
-1 186 -21 211 -25 32 -75 35 -110 7z M390 7282 c-8 -3 -25 -14 -37 -25 -22
-20 -23 -26 -23 -203 0 -100 3 -190 6 -199 7 -18 55 -45 79 -45 9 0 30 13 46
29 l29 29 0 180 c0 163 -2 182 -20 204 -20 26 -53 38 -80 30z M10233 7282
c-13 -2 -32 -15 -43 -29 -18 -24 -20 -40 -20 -205 l0 -180 29 -29 c16 -16 37
-29 46 -29 24 0 72 27 79 45 3 9 6 99 6 199 0 177 -1 183 -22 203 -27 24 -45
30 -75 25z M375 6338 c-43 -23 -45 -34 -45 -228 0 -186 0 -187 25 -210 34 -32
83 -30 113 5 21 25 22 34 22 206 l0 181 -29 29 c-31 31 -53 35 -86 17z M10199
6321 l-29 -29 0 -181 c0 -172 1 -181 23 -206 29 -35 78 -37 112 -5 25 23 25
25 25 206 0 100 -3 190 -6 199 -7 18 -55 45 -79 45 -9 0 -30 -13 -46 -29z
M355 5385 c-25 -24 -25 -26 -25 -208 0 -171 1 -186 21 -211 25 -32 75 -35 110
-7 23 19 24 24 27 192 2 95 1 183 -2 195 -16 61 -88 83 -131 39z M10202 5390
c-31 -30 -34 -48 -30 -239 3 -168 4 -173 27 -192 35 -28 85 -25 110 7 20 25
21 40 21 211 0 182 0 184 -25 208 -30 31 -73 32 -103 5z M351 4444 c-20 -25
-21 -40 -21 -211 0 -182 0 -184 25 -208 43 -44 115 -22 131 39 3 12 4 100 2
195 -3 168 -4 173 -27 192 -35 28 -85 25 -110 -7z M10199 4451 c-23 -19 -24
-24 -27 -192 -2 -95 -1 -183 2 -195 16 -61 88 -83 131 -39 25 24 25 26 25 208
0 171 -1 186 -21 211 -25 32 -75 35 -110 7z M390 3532 c-8 -3 -25 -14 -37 -25
-22 -20 -23 -26 -23 -209 0 -174 1 -189 20 -208 29 -29 66 -35 95 -16 43 28
46 46 43 235 -3 156 -5 182 -21 199 -19 21 -53 31 -77 24z M10233 3532 c-13
-2 -32 -15 -43 -29 -18 -24 -20 -40 -20 -205 l0 -180 29 -29 c16 -16 37 -29
46 -29 24 0 72 27 79 45 3 9 6 99 6 199 0 177 -1 183 -22 203 -27 24 -45 30
-75 25z M375 2588 c-43 -23 -45 -34 -45 -228 0 -186 0 -187 25 -210 34 -32 83
-30 113 5 21 25 22 34 22 206 l0 181 -29 29 c-31 31 -53 35 -86 17z M10199
2571 l-29 -29 0 -181 c0 -172 1 -181 23 -206 29 -35 78 -37 112 -5 25 23 25
25 25 206 0 100 -3 190 -6 199 -7 18 -55 45 -79 45 -9 0 -30 -13 -46 -29z
M355 1635 c-25 -24 -25 -26 -25 -208 0 -171 1 -186 21 -211 25 -32 75 -35 110
-7 23 19 24 24 27 192 2 95 1 183 -2 195 -16 61 -88 83 -131 39z M10202 1640
c-31 -30 -34 -48 -30 -239 3 -168 4 -173 27 -192 35 -28 85 -25 110 7 20 25
21 40 21 211 0 182 0 184 -25 208 -30 31 -73 32 -103 5z M351 694 c-19 -25
-21 -40 -21 -195 l0 -169 81 0 80 0 -3 176 c-3 171 -4 176 -27 195 -35 28 -85
25 -110 -7z M10199 701 c-23 -19 -24 -24 -27 -195 l-3 -176 80 0 81 0 0 169
c0 155 -2 170 -21 195 -25 32 -75 35 -110 7z M905 468 c-35 -30 -37 -79 -5
-113 23 -25 25 -25 206 -25 100 0 190 3 199 6 18 7 45 55 45 79 0 9 -13 30
-29 46 l-29 29 -181 0 c-172 0 -181 -1 -206 -22z M1839 461 c-16 -16 -29 -37
-29 -46 0 -24 27 -72 45 -79 9 -3 99 -6 199 -6 178 0 183 1 204 23 32 34 30
89 -4 116 -25 19 -40 21 -206 21 l-180 0 -29 -29z M2795 478 c-51 -30 -60 -84
-20 -123 24 -25 26 -25 208 -25 171 0 186 1 211 21 32 25 35 75 7 110 -19 23
-23 24 -203 27 -127 1 -189 -2 -203 -10z M3733 480 c-49 -20 -59 -96 -17 -129
25 -20 40 -21 211 -21 182 0 184 0 208 25 40 40 30 96 -22 123 -26 14 -346 16
-380 2z M4655 468 c-35 -30 -37 -79 -5 -113 23 -25 25 -25 206 -25 100 0 190
3 199 6 18 7 45 55 45 79 0 9 -13 30 -29 46 l-29 29 -181 0 c-172 0 -181 -1
-206 -22z M5589 461 c-16 -16 -29 -37 -29 -46 0 -24 27 -72 45 -79 9 -3 99 -6
199 -6 178 0 183 1 204 23 32 34 30 89 -4 116 -25 19 -40 21 -206 21 l-180 0
-29 -29z M6545 478 c-51 -30 -60 -84 -20 -123 24 -25 26 -25 208 -25 171 0
186 1 211 21 32 25 35 75 7 110 -19 23 -23 24 -203 27 -127 1 -189 -2 -203
-10z M7483 480 c-49 -20 -59 -96 -17 -129 25 -20 40 -21 211 -21 182 0 184 0
208 25 40 40 30 96 -22 123 -26 14 -346 16 -380 2z M8405 468 c-35 -30 -37
-79 -5 -113 23 -25 25 -25 206 -25 100 0 190 3 199 6 18 7 45 55 45 79 0 9
-13 30 -29 46 l-29 29 -181 0 c-172 0 -181 -1 -206 -22z M9339 461 c-16 -16
-29 -37 -29 -46 0 -24 27 -72 45 -79 9 -3 99 -6 199 -6 178 0 183 1 204 23 32
34 30 89 -4 116 -25 19 -40 21 -206 21 l-180 0 -29 -29z"/>
</g>
</svg>
