<?xml version="1.0" standalone="no"?>
<!DOCTYPE svg PUBLIC "-//W3C//DTD SVG 20010904//EN"
 "http://www.w3.org/TR/2001/REC-SVG-20010904/DTD/svg10.dtd">
<svg version="1.0" xmlns="http://www.w3.org/2000/svg"
 width="2048.000000pt" height="2048.000000pt" viewBox="0 0 2048.000000 2048.000000"
 preserveAspectRatio="xMidYMid meet">
<metadata>
Created by potrace 1.13, written by Peter Selinger 2001-2015
</metadata>
<g transform="translate(0.000000,2048.000000) scale(0.192120,-0.192120)"
fill="#000000" stroke="none">
<path d="M6220 9434 c-333 -32 -672 -141 -949 -306 l-74 -45 -76 55 c-99 70
-255 146 -355 172 -262 67 -489 -30 -596 -255 -48 -101 -61 -155 -69 -277 l-6
-97 -71 45 c-151 95 -381 167 -576 183 -253 19 -486 -28 -722 -146 -405 -203
-599 -487 -631 -923 -15 -204 53 -554 150 -775 14 -31 25 -60 25 -64 0 -5 -21
-22 -47 -37 -189 -109 -374 -318 -445 -501 -120 -308 -53 -627 187 -891 58
-64 188 -169 260 -212 22 -13 42 -25 44 -26 2 -2 -29 -43 -67 -91 -82 -101
-163 -250 -186 -339 -9 -34 -16 -90 -16 -125 1 -113 45 -184 240 -384 249
-255 310 -345 310 -456 0 -146 -180 -341 -460 -498 -41 -24 -79 -47 -85 -53
-25 -25 379 26 557 71 144 36 251 81 344 143 85 57 132 110 171 194 26 54 28
68 27 169 -1 61 -11 180 -23 266 -11 86 -21 160 -21 164 0 4 29 -28 64 -72
159 -196 406 -402 666 -553 41 -25 109 -75 150 -113 80 -73 224 -184 302 -233
l48 -29 0 -266 c0 -146 3 -322 6 -390 l7 -124 -55 52 c-64 59 -148 105 -246
132 -173 48 -480 54 -602 12 -80 -27 -179 -85 -242 -140 l-47 -42 -103 35
c-141 47 -231 60 -390 53 -158 -6 -239 -26 -383 -96 -180 -88 -399 -272 -559
-471 -76 -95 -216 -301 -220 -324 -1 -8 -38 -65 -83 -128 -229 -320 -461 -720
-665 -1148 -54 -113 -98 -208 -98 -212 0 -5 2124 -8 4720 -8 2596 0 4720 3
4720 8 0 16 -200 426 -280 572 -174 323 -360 623 -512 828 -38 52 -64 91 -57
86 14 -9 -12 37 -82 141 -207 310 -468 553 -720 669 -125 58 -209 77 -357 83
-159 7 -249 -6 -390 -53 l-103 -35 -47 42 c-63 55 -163 113 -242 140 -125 42
-420 36 -600 -12 -112 -30 -200 -81 -270 -156 l-60 -64 0 415 0 414 52 33 c62
40 174 127 275 216 39 34 93 73 120 87 258 131 589 433 764 696 14 21 15 -4
11 -242 -5 -303 0 -336 67 -429 120 -168 466 -353 715 -384 l60 -7 -72 77
c-208 223 -280 442 -199 607 33 67 125 204 287 427 273 377 364 588 362 841
-1 283 -117 563 -314 764 -38 38 -68 70 -68 72 0 2 30 56 68 121 162 285 266
600 279 848 13 265 -59 458 -241 652 -181 192 -422 327 -713 399 l-113 27 0
37 c0 62 -28 205 -61 308 -64 200 -164 368 -304 508 -168 169 -370 277 -625
334 -144 32 -330 46 -460 34z m367 -318 c343 -62 590 -230 721 -491 31 -62 68
-177 97 -300 29 -126 93 -234 187 -321 71 -65 115 -90 228 -129 229 -79 388
-173 507 -299 113 -119 113 -119 113 -419 0 -248 -1 -259 -26 -339 -30 -95
-96 -257 -179 -437 -52 -113 -57 -132 -58 -195 -1 -65 3 -78 41 -149 23 -43
72 -121 109 -175 36 -53 85 -135 107 -182 l41 -85 3 -234 c3 -232 3 -235 -23
-307 -34 -93 -136 -259 -315 -516 -80 -114 -175 -262 -212 -330 -93 -172 -110
-166 -137 47 -18 135 -55 207 -155 303 -81 77 -81 77 -80 127 0 28 18 104 38
170 40 129 79 292 102 420 17 96 19 654 3 725 -6 25 -14 131 -19 235 -6 155
-12 202 -30 255 -35 105 -81 181 -146 245 -108 105 -201 138 -429 153 -132 8
-145 10 -225 46 -239 107 -386 155 -637 205 -193 39 -361 58 -610 71 -330 16
-616 65 -1023 175 -267 73 -326 83 -388 67 -136 -36 -315 -167 -582 -427 -120
-117 -128 -123 -205 -150 -124 -43 -181 -74 -249 -137 -42 -38 -76 -81 -102
-130 -67 -125 -74 -164 -74 -410 0 -139 -4 -227 -11 -245 -7 -15 -15 -46 -19
-68 -4 -22 -20 -78 -36 -125 -27 -82 -28 -92 -29 -295 l0 -210 43 -170 c24
-93 61 -224 83 -289 28 -86 39 -137 39 -180 l0 -60 -75 -73 c-68 -67 -85 -93
-124 -186 -6 -15 -11 -67 -11 -115 -1 -56 -6 -96 -15 -112 -9 -15 -14 -19 -15
-10 0 11 -2 12 -8 2 -6 -9 -12 -5 -23 15 -8 16 -16 30 -19 33 -3 3 -16 25 -29
50 -60 112 -160 240 -327 420 -120 129 -127 140 -131 229 -4 75 -4 77 47 171
105 196 143 283 144 330 2 87 -49 163 -249 371 -107 111 -148 162 -175 215
l-35 69 -3 192 -3 192 28 58 c21 43 66 97 180 213 165 168 221 239 253 319 26
68 25 119 -5 232 -91 336 -85 294 -85 585 0 253 1 266 24 327 36 95 80 160
161 235 124 113 297 205 495 260 88 25 109 27 290 27 222 0 258 -7 498 -96 73
-27 153 -52 177 -56 61 -8 121 24 194 103 67 73 108 150 146 272 46 146 118
198 270 196 99 -2 164 -23 336 -110 71 -35 155 -71 186 -79 76 -20 128 -6 313
79 290 135 466 187 750 220 65 8 294 -3 377 -18z m-2165 -1902 c487 -141 797
-198 1163 -214 238 -11 327 -20 507 -50 237 -41 480 -108 683 -190 l120 -49
142 6 c207 9 294 -13 384 -94 54 -49 85 -105 108 -195 18 -71 19 -109 17 -550
l-2 -473 -33 -150 c-109 -506 -292 -925 -547 -1251 -71 -91 -58 -85 -212 -98
-81 -7 -114 -24 -347 -175 -66 -44 -158 -136 -194 -196 -36 -59 -45 -116 -28
-177 7 -26 4 -29 -65 -64 -152 -76 -369 -142 -558 -170 -171 -24 -471 -15
-636 20 -152 32 -283 75 -400 130 l-92 44 10 43 c17 79 -25 169 -124 265 -58
57 -342 253 -410 284 -32 15 -66 20 -130 20 l-87 0 -46 57 c-271 332 -487 843
-576 1360 -22 131 -22 134 -5 233 10 56 32 156 50 223 30 116 31 125 19 182
-7 33 -16 125 -20 205 -5 128 -3 155 16 229 25 101 56 156 117 210 63 56 139
82 250 88 l92 6 94 101 c52 56 140 140 194 188 115 100 323 257 341 258 7 0
99 -25 205 -56z m213 -4147 c179 -90 413 -137 680 -137 333 1 568 63 800 214
38 24 71 44 72 42 1 -1 -12 -49 -29 -107 -28 -89 -33 -122 -36 -234 -3 -126
-2 -131 23 -170 29 -45 71 -76 128 -94 20 -7 37 -16 37 -21 0 -12 -76 -113
-154 -205 -202 -237 -422 -441 -582 -539 l-61 -37 -54 22 c-74 29 -184 29
-257 0 -62 -24 -55 -27 -182 60 -147 100 -396 344 -570 559 -76 94 -130 169
-130 180 0 4 24 16 53 28 30 13 67 36 83 53 29 30 29 32 32 164 3 113 0 148
-18 217 -38 142 -42 134 41 79 41 -26 97 -60 124 -74z m-761 -493 c139 -27
335 -110 433 -183 26 -20 88 -85 138 -143 49 -58 126 -145 170 -192 90 -97 97
-108 89 -130 -8 -21 -52 -33 -184 -46 -376 -38 -615 -76 -862 -137 -120 -31
-151 -35 -171 -26 -16 7 -69 78 -140 185 -109 164 -176 246 -331 402 -79 80
-76 89 24 81 80 -7 122 4 135 35 7 16 45 40 130 80 66 31 138 63 160 70 94 31
258 32 409 4z m3293 1 c29 -7 109 -39 177 -72 94 -44 126 -63 131 -80 7 -31
71 -47 152 -38 58 6 63 5 63 -12 0 -11 -51 -71 -118 -139 -122 -122 -180 -196
-294 -369 -69 -106 -99 -139 -135 -147 -12 -3 -91 12 -177 33 -204 50 -403 83
-716 118 -141 15 -266 33 -278 40 -37 20 -26 49 51 130 40 42 113 121 162 176
49 55 106 117 128 137 48 45 307 179 402 207 130 39 332 46 452 16z m-4937
-269 c0 -65 -5 -70 -120 -115 -108 -41 -268 -118 -390 -186 l-65 -36 74 71
c165 159 388 298 477 298 20 0 24 -6 24 -32z m6297 12 c32 -12 89 -40 127 -62
79 -48 253 -185 311 -246 l40 -43 -65 37 c-115 66 -279 144 -390 187 -115 45
-120 49 -120 117 0 39 15 41 97 10z m-5779 -80 c106 -44 173 -89 267 -183 131
-130 264 -341 345 -550 13 -33 24 -61 25 -62 1 -1 37 13 81 32 249 107 726
188 1332 226 252 16 1071 6 1292 -15 581 -55 931 -127 1175 -242 6 -2 21 24
34 58 79 206 214 422 346 553 94 93 160 138 267 184 57 23 75 26 188 26 105 0
135 -4 184 -23 97 -36 166 -82 256 -172 203 -201 382 -557 520 -1031 64 -220
150 -608 150 -675 0 -8 -43 13 -106 51 -172 104 -72 96 -1115 93 -1000 -3
-928 1 -1002 -64 -20 -19 -41 -34 -45 -34 -5 0 -60 34 -122 76 -311 207 -723
342 -1182 385 -162 15 -615 6 -748 -14 -464 -72 -783 -188 -1083 -393 -43 -30
-83 -54 -89 -54 -5 0 -30 17 -54 39 -26 22 -63 43 -89 50 -31 8 -314 11 -943
11 -1017 0 -911 9 -1066 -89 -50 -32 -97 -61 -105 -66 -17 -10 -10 45 30 245
176 862 488 1468 837 1622 87 39 133 47 247 45 92 -3 120 -7 173 -29z m-1408
-1329 c-46 -185 -63 -232 -99 -271 -22 -25 -31 -28 -92 -28 -89 0 -99 5 -99
46 0 47 139 308 269 504 l56 85 3 -86 c2 -74 -3 -111 -38 -250z m8078 117
c117 -202 182 -332 182 -366 0 -42 -17 -50 -102 -50 l-78 0 -24 38 c-26 39
-48 110 -90 281 -20 79 -26 129 -26 210 l1 106 22 -29 c12 -16 64 -101 115
-190z m-3873 -376 c39 -6 79 -13 89 -16 19 -6 19 -7 0 -17 -27 -15 -582 -15
-609 0 -16 10 -17 13 -5 17 65 24 400 33 525 16z M3667 6688 c10 -39 55 -78
108 -93 27 -8 105 -21 173 -30 68 -9 156 -22 195 -30 84 -16 257 -73 257 -85
0 -5 -19 -11 -42 -15 -139 -21 -323 -167 -390 -310 l-33 -70 -3 -191 c-3 -185
-3 -192 22 -247 34 -79 79 -141 153 -215 35 -34 63 -68 63 -76 0 -25 -35 -45
-115 -65 -147 -38 -340 -44 -415 -14 -61 25 -129 121 -236 331 -86 168 -131
222 -188 222 l-34 0 25 -82 c84 -278 251 -573 353 -625 138 -71 352 -49 888
88 595 153 696 172 882 172 185 0 329 -28 885 -172 531 -137 747 -159 884 -89
86 45 210 244 304 489 65 166 82 230 65 240 -17 11 -25 11 -50 -2 -45 -24 -76
-69 -173 -254 -99 -189 -155 -268 -222 -312 -55 -37 -258 -33 -418 8 -80 21
-115 40 -115 66 0 7 27 40 60 74 60 60 105 121 127 169 44 99 43 92 43 311 l0
212 -35 63 c-69 124 -256 260 -382 279 -67 10 -55 24 52 56 22 6 58 20 80 29
22 10 60 21 84 25 58 9 142 38 176 61 32 21 60 70 44 79 -25 16 -320 -29 -740
-114 -374 -76 -447 -85 -664 -86 -223 0 -257 5 -722 96 -464 91 -726 129 -895
129 -53 0 -56 -1 -51 -22z m1055 -257 c281 -54 398 -66 613 -65 211 0 317 11
580 61 154 29 325 37 325 16 0 -7 -9 -13 -19 -13 -44 0 -250 -180 -310 -270
l-36 -55 -3 -212 -3 -212 35 -73 c20 -40 45 -89 56 -109 25 -43 18 -69 -19
-69 -14 0 -100 15 -191 34 -365 75 -512 74 -887 -9 -185 -41 -210 -32 -158 59
70 125 75 151 75 370 0 199 0 201 -27 255 -45 88 -264 291 -314 291 -38 0 -18
19 24 23 90 8 110 6 259 -22z m-300 -201 c54 -15 118 -68 144 -120 22 -42 23
-57 24 -221 0 -169 -1 -177 -26 -228 -72 -143 -267 -172 -375 -54 -60 64 -64
82 -64 278 0 167 2 183 22 222 55 103 167 153 275 123z m1949 -2 c51 -15 114
-69 142 -122 20 -38 22 -54 22 -221 0 -156 -2 -185 -19 -215 -55 -105 -159
-156 -266 -130 -70 17 -122 58 -154 121 -25 51 -26 59 -26 228 1 163 2 179 23
220 52 102 170 152 278 119z M5008 4890 c-37 -28 -51 -72 -46 -137 4 -48 10
-61 37 -85 l31 -28 281 0 281 0 34 34 c32 32 34 38 34 101 0 63 -2 69 -34 101
l-34 34 -280 0 c-263 0 -281 -1 -304 -20z M4655 4346 c-93 -41 -140 -156 -101
-249 34 -84 238 -211 417 -261 358 -101 795 -20 1015 189 59 56 80 110 69 176
-17 100 -120 173 -218 155 -18 -3 -70 -31 -115 -60 -146 -97 -282 -132 -467
-123 -164 9 -281 47 -381 123 -83 64 -152 79 -219 50z m193 -237 c2 -5 10 -9
18 -9 8 0 14 -9 14 -20 0 -25 -2 -25 -50 0 -47 24 -56 56 -12 45 15 -3 29 -11
30 -16z m952 6 c0 -17 -83 -58 -89 -43 -3 9 36 43 51 43 3 0 10 3 14 8 12 12
24 8 24 -8z m-897 -40 c4 -8 2 -17 -3 -20 -6 -4 -10 3 -10 14 0 25 6 27 13 6z
m794 -17 c-3 -8 -6 -5 -6 6 -1 11 2 17 5 13 3 -3 4 -12 1 -19z m-750 -20 c-3
-8 -6 -5 -6 6 -1 11 2 17 5 13 3 -3 4 -12 1 -19z"/>
</g>
</svg>
