<?xml version="1.0" standalone="no"?>
<!DOCTYPE svg PUBLIC "-//W3C//DTD SVG 20010904//EN"
 "http://www.w3.org/TR/2001/REC-SVG-20010904/DTD/svg10.dtd">
<svg version="1.0" xmlns="http://www.w3.org/2000/svg"
 width="2048.000000pt" height="2048.000000pt" viewBox="0 0 2048.000000 2048.000000"
 preserveAspectRatio="xMidYMid meet">
<metadata>
Created by potrace 1.13, written by Peter Selinger 2001-2015
</metadata>
<g transform="translate(0.000000,2048.000000) scale(0.192120,-0.192120)"
fill="#000000" stroke="none">
<path d="M7426 8119 c-184 -19 -352 -70 -434 -130 -23 -17 -54 -51 -68 -75
-25 -42 -28 -62 -55 -392 -50 -602 -94 -923 -180 -1305 -105 -464 -188 -682
-358 -938 -100 -150 -182 -248 -322 -384 -561 -544 -1436 -883 -2439 -945 -91
-5 -314 -10 -496 -10 -356 0 -391 -4 -479 -56 -57 -33 -130 -111 -159 -170
l-26 -52 -67 -7 c-143 -15 -263 -74 -324 -158 -37 -51 -49 -78 -58 -137 -6
-40 -9 -45 -41 -53 -170 -40 -278 -104 -355 -209 -47 -64 -85 -164 -85 -227
l0 -37 -97 -11 c-355 -43 -551 -239 -596 -596 l-12 -98 -58 -24 c-268 -108
-373 -445 -239 -764 101 -240 304 -396 566 -436 237 -35 436 -29 651 21 222
51 292 64 431 75 196 16 420 1 724 -50 336 -56 458 -65 873 -58 580 9 813 45
1373 211 287 85 451 128 654 170 716 151 1218 169 1722 65 107 -22 250 -62
578 -162 439 -133 715 -164 1014 -112 447 78 835 378 1030 797 97 208 135 381
143 648 9 311 -20 588 -87 856 -47 185 -85 287 -210 569 -118 266 -162 383
-201 529 -55 211 -64 306 -63 676 1 555 32 842 163 1514 34 170 73 388 88 484
30 197 27 227 -29 314 -193 303 -1046 599 -1922 668 -149 12 -435 11 -550 -1z
m613 -154 c500 -46 1014 -172 1364 -334 48 -23 90 -48 93 -56 4 -8 45 -38 93
-67 47 -29 105 -70 129 -91 l42 -40 0 -188 c0 -185 -1 -193 -50 -446 -55 -284
-113 -626 -130 -773 -8 -64 -10 -298 -8 -725 l4 -630 28 -110 c36 -147 86
-298 157 -477 32 -81 59 -150 59 -153 0 -2 18 -42 39 -88 22 -46 51 -119 66
-163 15 -43 40 -109 56 -146 15 -37 33 -96 39 -130 24 -137 50 -265 60 -298 6
-21 10 -184 10 -410 0 -419 3 -391 -79 -600 -54 -136 -107 -233 -178 -328
-154 -205 -339 -342 -573 -427 -129 -46 -242 -66 -416 -72 -280 -10 -453 22
-954 177 -360 111 -591 154 -909 169 -511 24 -1147 -72 -1846 -279 -521 -154
-740 -195 -1185 -220 -224 -13 -475 -12 -665 1 -155 10 -237 20 -510 64 -389
61 -642 56 -1015 -23 l-225 -47 -220 0 c-253 1 -343 17 -467 82 -85 45 -180
144 -229 239 -34 68 -34 69 -37 225 -5 203 1 215 153 334 59 47 69 58 97 110
17 33 22 59 23 150 3 130 22 192 90 284 84 115 199 184 375 226 58 14 117 31
133 37 43 17 73 60 102 147 48 145 113 217 255 283 185 86 169 73 216 174 65
141 130 193 294 233 109 28 136 45 189 120 76 109 175 161 307 161 32 0 115
-14 184 -30 116 -28 139 -30 315 -30 727 0 1488 178 2070 484 306 161 514 314
745 546 341 342 518 665 644 1175 110 444 163 777 211 1330 14 160 28 319 32
355 6 67 37 142 70 172 50 45 179 86 340 107 111 14 436 12 612 -4z M8766
5490 c-53 -16 -96 -73 -96 -127 0 -15 12 -64 27 -108 24 -72 27 -94 26 -225 0
-123 -4 -160 -26 -241 -90 -341 -303 -551 -595 -588 -40 -5 -84 -17 -98 -26
-75 -49 -84 -149 -20 -213 36 -36 38 -37 114 -36 240 3 509 152 671 374 208
284 289 691 200 1011 -28 103 -54 145 -104 169 -45 22 -55 23 -99 10z M2613
3730 c-28 -17 -53 -47 -53 -64 0 -3 83 -6 185 -6 184 0 185 0 200 24 13 19 14
29 5 45 -10 20 -19 21 -158 21 -128 0 -151 -3 -179 -20z M2270 3460 c-64 -11
-136 -65 -166 -122 l-15 -28 324 0 324 0 21 23 c28 30 29 80 2 107 -11 11 -26
20 -32 21 -55 5 -430 4 -458 -1z M1834 3039 c-62 -23 -137 -87 -176 -148 -15
-25 -28 -49 -28 -53 0 -14 851 -10 879 5 80 41 86 156 11 200 -25 15 -65 17
-332 16 -277 0 -307 -2 -354 -20z M1290 2529 c-153 -40 -277 -119 -329 -211
-27 -46 -48 -115 -38 -124 2 -2 46 7 98 20 150 38 280 46 768 46 447 0 457 0
491 21 44 27 57 44 71 93 15 54 -10 118 -59 151 l-37 25 -445 -1 c-409 0 -451
-2 -520 -20z"/>
</g>
</svg>
