<?xml version="1.0" standalone="no"?>
<!DOCTYPE svg PUBLIC "-//W3C//DTD SVG 20010904//EN"
 "http://www.w3.org/TR/2001/REC-SVG-20010904/DTD/svg10.dtd">
<svg version="1.0" xmlns="http://www.w3.org/2000/svg"
 width="2048.000000pt" height="2048.000000pt" viewBox="0 0 2048.000000 2048.000000"
 preserveAspectRatio="xMidYMid meet">
<metadata>
Created by potrace 1.13, written by Peter Selinger 2001-2015
</metadata>
<g transform="translate(0.000000,2048.000000) scale(0.192120,-0.192120)"
fill="#000000" stroke="none">
<path d="M6220 9434 c-335 -32 -670 -140 -949 -306 l-74 -45 -76 55 c-99 70
-255 146 -355 172 -262 67 -489 -30 -596 -255 -48 -101 -61 -155 -69 -277 l-6
-97 -71 45 c-151 95 -381 167 -576 183 -253 19 -486 -28 -722 -146 -405 -203
-599 -487 -631 -923 -15 -204 53 -554 150 -775 14 -31 25 -60 25 -65 0 -5 -15
-17 -33 -26 -57 -29 -180 -126 -250 -198 -396 -405 -346 -972 117 -1330 44
-34 99 -73 121 -86 22 -13 42 -25 44 -26 2 -2 -29 -43 -67 -91 -82 -101 -163
-250 -186 -339 -9 -34 -16 -90 -16 -125 1 -113 45 -184 240 -384 249 -255 310
-345 310 -456 0 -146 -180 -341 -460 -498 -41 -24 -79 -47 -85 -53 -25 -25
379 26 557 71 144 36 251 81 344 143 85 57 132 110 171 194 26 54 28 68 27
169 -1 61 -11 180 -23 266 -11 86 -21 160 -21 164 0 4 29 -28 64 -72 159 -196
407 -402 666 -553 41 -24 108 -75 149 -112 77 -72 223 -184 303 -234 l48 -29
0 -290 c0 -159 3 -335 7 -390 l6 -100 -58 53 c-67 62 -145 104 -243 131 -173
48 -480 54 -602 12 -80 -27 -179 -85 -242 -140 l-47 -42 -103 35 c-141 47
-231 60 -390 53 -158 -6 -239 -26 -383 -96 -180 -88 -399 -272 -559 -471 -76
-95 -216 -301 -220 -324 -1 -8 -38 -65 -83 -128 -229 -320 -461 -720 -665
-1148 -54 -113 -98 -208 -98 -212 0 -5 2124 -8 4720 -8 2596 0 4720 3 4720 8
0 16 -200 426 -280 572 -174 323 -360 623 -512 828 -38 52 -64 91 -57 86 14
-9 -12 37 -82 141 -207 310 -468 553 -720 669 -125 58 -209 77 -357 83 -159 7
-249 -6 -390 -53 l-103 -35 -47 42 c-63 55 -163 113 -242 140 -125 42 -420 36
-600 -12 -113 -31 -201 -82 -270 -157 l-60 -65 0 416 0 415 52 33 c62 40 174
127 275 216 39 34 93 73 120 87 258 131 589 433 764 696 14 21 15 -4 11 -242
-5 -303 0 -336 67 -429 120 -167 466 -353 716 -384 l60 -8 -72 77 c-209 224
-281 443 -200 608 33 67 125 204 287 427 201 278 298 460 342 640 37 153 24
362 -34 536 -51 154 -177 356 -282 453 -25 23 -46 45 -46 47 0 3 29 55 65 117
164 285 269 603 282 853 13 265 -59 458 -241 652 -181 192 -422 327 -713 399
l-113 27 0 37 c0 62 -28 205 -61 308 -64 200 -164 368 -304 508 -168 169 -370
277 -625 334 -144 32 -330 46 -460 34z m313 -325 c363 -54 629 -224 760 -484
28 -56 79 -218 98 -310 31 -150 156 -319 300 -404 19 -11 81 -36 139 -56 279
-97 467 -227 564 -389 l36 -60 0 -235 c0 -223 -1 -241 -26 -331 -27 -98 -94
-265 -184 -455 -43 -90 -53 -123 -57 -182 -5 -64 -3 -77 24 -135 16 -34 70
-124 118 -198 49 -74 104 -169 122 -210 l33 -75 0 -236 c0 -230 -1 -238 -26
-305 -39 -103 -134 -257 -320 -520 -51 -71 -124 -182 -162 -244 -102 -168
-113 -169 -143 -16 -27 136 -59 195 -152 291 -103 104 -104 109 -44 315 25 85
55 198 67 250 49 214 50 226 50 788 0 513 -1 535 -21 595 -37 109 -80 178
-169 268 -135 137 -214 166 -480 179 l-165 7 -180 61 c-408 137 -651 181
-1185 212 -272 16 -506 56 -848 146 -97 25 -219 57 -271 70 -116 30 -202 31
-275 4 -103 -39 -264 -160 -481 -360 -108 -100 -153 -126 -286 -164 -182 -54
-329 -192 -420 -396 -23 -53 -24 -65 -30 -355 -5 -254 -9 -318 -28 -415 -20
-103 -22 -137 -18 -325 4 -192 7 -220 34 -330 33 -131 62 -231 99 -342 16 -48
24 -94 24 -140 l0 -69 -71 -69 c-90 -87 -131 -167 -139 -270 -4 -56 -8 -70
-22 -73 -22 -4 -33 7 -86 84 -64 95 -150 200 -282 345 -67 74 -126 144 -131
157 -13 34 -11 157 3 189 7 15 40 78 73 138 112 203 124 253 82 347 -31 68
-91 142 -242 299 -101 103 -129 140 -163 208 l-42 83 0 173 0 172 32 64 c25
49 67 100 188 224 285 292 302 342 213 641 l-47 159 -4 299 c-3 289 -3 302 19
360 30 84 61 130 138 206 75 75 146 124 262 181 226 112 463 150 699 114 112
-17 160 -31 338 -96 165 -61 216 -64 285 -18 103 68 190 197 238 354 41 137
100 180 244 180 111 0 151 -12 357 -112 228 -109 238 -109 504 12 250 114 484
186 674 208 78 9 316 6 383 -4z m-2203 -1868 c161 -51 468 -130 624 -162 238
-49 396 -69 626 -79 240 -12 342 -22 510 -50 262 -45 614 -148 745 -218 25
-13 65 -16 225 -17 180 0 199 -2 252 -23 74 -30 150 -99 183 -165 50 -104 54
-152 51 -657 l-2 -465 -33 -150 c-71 -330 -155 -577 -287 -835 -108 -213 -290
-481 -336 -496 -11 -3 -57 -3 -102 1 -106 8 -131 0 -286 -105 -145 -98 -247
-191 -301 -274 -52 -81 -58 -116 -33 -204 6 -20 -2 -26 -87 -66 -120 -56 -283
-108 -429 -138 -102 -20 -143 -23 -355 -23 -222 1 -249 3 -366 27 -153 33
-284 75 -395 127 l-83 39 9 34 c16 54 12 82 -25 154 -22 46 -57 92 -103 138
-83 82 -282 227 -372 270 -58 28 -77 31 -172 34 l-107 4 -37 45 c-21 25 -74
100 -118 167 -221 331 -378 743 -457 1191 -22 129 -22 131 -4 235 9 58 32 157
49 222 l32 116 -18 104 c-24 143 -23 304 2 403 25 96 56 151 116 204 63 55
138 81 253 88 93 6 95 7 125 42 68 79 166 177 256 256 120 105 320 254 340
255 9 0 58 -13 110 -29z m363 -4200 c183 -76 380 -111 620 -111 326 1 561 61
785 203 35 21 65 37 67 35 3 -2 -5 -36 -16 -74 -39 -130 -41 -148 -37 -365 l3
-216 -74 -89 c-90 -107 -279 -296 -358 -357 -116 -89 -223 -127 -358 -127
-133 0 -231 35 -349 124 -107 81 -340 321 -456 470 -12 16 -15 60 -15 240 0
207 -2 227 -26 312 l-25 90 83 -52 c46 -29 116 -66 156 -83z m-783 -461 c30
-7 108 -27 172 -46 134 -38 158 -36 197 21 13 19 27 35 31 35 4 0 57 -63 119
-140 61 -77 178 -208 259 -291 138 -143 354 -329 422 -364 34 -17 39 -25 13
-19 -249 58 -351 75 -471 75 -231 -1 -656 -55 -987 -126 -63 -14 -126 -25
-139 -25 -35 0 -86 48 -131 122 -83 139 -198 291 -271 359 -64 60 -184 149
-266 196 -79 46 -95 59 -83 71 11 11 99 5 201 -13 110 -20 168 -15 216 21 54
39 192 103 270 125 62 16 97 19 233 15 88 -2 185 -9 215 -16z m3276 -5 c75
-17 268 -99 293 -124 30 -30 99 -36 205 -16 102 18 190 24 201 13 12 -12 -1
-23 -92 -78 -48 -29 -90 -56 -93 -59 -3 -3 -25 -22 -50 -41 -123 -94 -231
-220 -342 -398 -72 -116 -111 -157 -155 -168 -15 -4 -90 6 -177 24 -336 70
-647 111 -896 119 -173 5 -177 5 -353 -32 -99 -20 -181 -35 -183 -33 -2 2 43
37 99 78 127 93 418 380 557 550 56 69 106 129 110 134 5 4 22 -7 38 -25 27
-30 36 -34 79 -33 28 0 90 15 150 36 56 20 127 42 157 48 148 30 329 32 452 5z
m-4946 -295 c-22 -46 -24 -48 -130 -89 -111 -43 -276 -122 -390 -187 l-65 -37
30 33 c41 45 192 170 262 218 82 56 190 109 254 125 66 18 72 8 39 -63z m6270
54 c112 -45 295 -173 422 -295 l73 -70 -65 36 c-122 68 -282 145 -390 186
-103 40 -108 44 -129 86 -11 24 -21 53 -21 64 0 16 5 19 33 16 17 -3 52 -13
77 -23z m-5762 -96 c106 -44 173 -89 267 -183 131 -130 264 -341 345 -550 13
-33 24 -61 25 -62 1 -1 37 13 81 32 212 91 591 164 1114 212 160 15 293 18
745 18 364 0 599 -4 695 -13 612 -54 992 -129 1245 -248 6 -2 21 24 34 58 79
206 214 422 346 553 94 93 160 138 267 184 57 23 75 26 188 26 105 0 135 -4
184 -23 97 -36 166 -82 256 -172 203 -201 382 -557 520 -1031 64 -220 150
-608 150 -675 0 -8 -43 13 -106 51 -172 104 -72 96 -1115 93 -1000 -3 -928 1
-1002 -64 -20 -19 -41 -34 -45 -34 -5 0 -60 34 -122 76 -311 207 -723 342
-1182 385 -162 15 -615 6 -748 -14 -464 -72 -783 -188 -1083 -393 -43 -30 -83
-54 -89 -54 -5 0 -30 17 -54 39 -26 22 -63 43 -89 50 -31 8 -314 11 -943 11
-1017 0 -911 9 -1066 -89 -50 -32 -97 -61 -105 -66 -17 -10 -10 45 30 245 176
862 488 1468 837 1622 87 39 133 47 247 45 92 -3 120 -7 173 -29z m-1408
-1329 c-46 -185 -63 -232 -99 -271 -22 -25 -31 -28 -92 -28 -89 0 -99 5 -99
46 0 47 139 308 269 504 l56 85 3 -86 c2 -74 -3 -111 -38 -250z m8078 117
c117 -202 182 -332 182 -366 0 -42 -17 -50 -102 -50 l-78 0 -24 38 c-26 39
-48 110 -90 281 -20 79 -26 129 -26 210 l1 106 22 -29 c12 -16 64 -101 115
-190z m-3873 -376 c39 -6 79 -13 89 -16 19 -6 19 -7 0 -17 -27 -15 -582 -15
-609 0 -16 10 -17 13 -5 17 65 24 400 33 525 16z M4073 6683 c9 -2 23 -2 30 0
6 3 -1 5 -18 5 -16 0 -22 -2 -12 -5z M4190 6669 c30 -6 190 -37 355 -70 457
-91 519 -100 725 -106 224 -7 347 7 695 77 132 26 249 50 260 53 20 6 -77 -1
-126 -9 -15 -2 -44 -6 -66 -9 -21 -2 -78 -12 -127 -20 -462 -81 -748 -77
-1221 15 -157 30 -403 68 -480 74 l-70 5 55 -10z M4292 6399 c-76 -13 -123
-40 -209 -122 -60 -57 -83 -87 -110 -145 l-34 -73 3 -182 c3 -175 4 -184 31
-241 37 -80 143 -183 233 -227 62 -31 77 -34 154 -34 75 1 93 5 150 32 87 43
198 145 238 221 l32 60 0 196 c0 227 -5 246 -94 344 -130 141 -252 195 -394
171z m130 -169 c54 -15 118 -68 144 -120 22 -42 23 -57 24 -221 0 -169 -1
-177 -26 -228 -72 -143 -267 -172 -375 -54 -60 64 -64 82 -64 278 0 167 2 183
22 222 55 103 167 153 275 123z M6248 6400 c-115 -19 -272 -135 -340 -251
l-38 -64 0 -195 c0 -189 1 -198 25 -246 44 -89 159 -194 265 -242 81 -38 202
-38 283 0 75 35 170 110 211 167 66 91 66 91 66 317 l0 207 -34 61 c-36 63
-72 102 -163 173 -79 62 -180 88 -275 73z m123 -172 c51 -15 114 -69 142 -122
20 -38 22 -54 22 -221 0 -156 -2 -185 -19 -215 -55 -105 -159 -156 -266 -130
-70 17 -122 58 -154 121 -25 51 -26 59 -26 228 1 163 2 179 23 220 52 102 170
152 278 119z M5080 5325 c-74 -13 -261 -56 -415 -96 -154 -39 -340 -86 -413
-103 -73 -17 -129 -32 -123 -34 28 -9 233 33 643 134 335 83 549 101 777 69
58 -9 201 -38 316 -65 467 -111 608 -141 661 -140 22 1 -678 180 -816 209
-272 58 -413 64 -630 26z M3380 5283 c29 -55 100 -153 100 -139 0 4 -17 30
-39 59 -21 29 -48 71 -60 95 -12 23 -24 42 -27 42 -3 0 9 -26 26 -57z M4078
5083 c6 -2 18 -2 25 0 6 3 1 5 -13 5 -14 0 -19 -2 -12 -5z M6558 5083 c6 -2
18 -2 25 0 6 3 1 5 -13 5 -14 0 -19 -2 -12 -5z M4998 4881 c-30 -26 -33 -35
-36 -100 -4 -70 -4 -71 31 -106 l35 -35 282 0 282 0 34 34 c32 32 34 38 34
101 0 63 -2 69 -34 101 l-34 34 -281 0 -281 0 -32 -29z M4614 4367 c-56 -27
-109 -95 -120 -154 -26 -139 86 -288 291 -387 182 -88 288 -111 515 -110 238
0 405 41 571 139 165 97 229 184 229 310 0 107 -32 158 -124 201 -34 16 -69
24 -107 24 -52 0 -152 -23 -174 -40 -26 -21 -169 -69 -233 -79 -91 -14 -243
-14 -335 0 -44 7 -115 30 -187 62 -100 44 -125 51 -195 54 -69 3 -87 1 -131
-20z m222 -41 c137 -97 218 -129 367 -147 174 -20 365 19 484 99 97 65 134 82
184 82 147 0 241 -177 157 -296 -54 -75 -225 -178 -372 -223 -351 -108 -783
-39 -1030 164 -67 55 -89 102 -84 181 3 52 9 70 34 100 42 52 88 74 155 74 48
0 64 -5 105 -34z"/>
</g>
</svg>
