<?xml version="1.0" standalone="no"?>
<!DOCTYPE svg PUBLIC "-//W3C//DTD SVG 20010904//EN"
 "http://www.w3.org/TR/2001/REC-SVG-20010904/DTD/svg10.dtd">
<svg version="1.0" xmlns="http://www.w3.org/2000/svg"
 width="2048.000000pt" height="2048.000000pt" viewBox="0 0 2048.000000 2048.000000"
 preserveAspectRatio="xMidYMid meet">
<metadata>
Created by potrace 1.13, written by Peter Selinger 2001-2015
</metadata>
<g transform="translate(0.000000,2048.000000) scale(0.192120,-0.192120)"
fill="#000000" stroke="none">
<path d="M4133 9178 l-533 -533 -2 -305 -3 -305 -40 -7 c-22 -4 -94 -8 -160
-9 -125 -1 -228 16 -311 51 l-41 18 -1216 -1216 -1217 -1217 0 -485 0 -485 73
-17 c39 -10 110 -36 156 -58 244 -117 417 -321 498 -587 24 -79 26 -105 27
-248 1 -177 -10 -235 -69 -377 -108 -255 -353 -467 -617 -533 l-68 -17 0
-1075 c0 -995 1 -1075 16 -1069 13 5 8680 1660 9307 1777 l117 22 0 341 0 341
-74 22 c-182 56 -328 215 -385 423 -26 91 -28 244 -5 340 49 210 237 410 420
448 l39 8 3 1616 c2 1401 4 1617 17 1620 21 5 -105 158 -270 327 -347 356
-743 631 -1280 892 -855 414 -1962 692 -3170 794 -155 13 -557 35 -650 35 -26
0 -95 -65 -562 -532z m1157 316 c631 -47 1167 -138 2060 -348 202 -47 565
-175 858 -302 580 -251 1014 -531 1450 -935 69 -64 138 -117 222 -170 70 -43
115 -78 108 -84 -6 -6 -67 -17 -663 -120 -1544 -267 -2860 -540 -5330 -1109
-2379 -548 -3256 -746 -3296 -746 -18 0 25 30 156 110 160 97 223 140 330 224
53 41 452 431 965 942 691 690 885 877 921 893 41 18 64 20 230 18 175 -2 186
-1 232 22 51 25 87 77 87 127 0 18 6 28 20 31 55 14 165 77 211 120 120 112
119 239 -4 349 -28 25 -78 59 -110 76 -56 28 -58 30 -39 44 11 8 55 28 98 45
43 17 96 43 118 56 23 14 174 157 336 317 418 414 443 436 525 457 37 10 257
3 515 -17z m4510 -2073 c0 -14 5 -18 18 -14 18 4 19 -19 25 -553 11 -865 9
-2172 -3 -2179 -5 -3 -10 -25 -10 -48 0 -31 -5 -45 -20 -55 -11 -7 -20 -18
-20 -25 0 -8 -21 -29 -47 -47 -156 -111 -266 -266 -327 -458 -23 -75 -26 -99
-26 -236 0 -128 4 -165 21 -222 59 -191 180 -367 322 -469 35 -25 56 -47 57
-60 0 -11 9 -26 20 -33 19 -11 20 -23 20 -166 0 -146 -1 -155 -20 -161 -11 -3
-20 -12 -20 -20 0 -7 -12 -16 -27 -19 -16 -3 -512 -98 -1103 -210 -1188 -227
-1623 -307 -1960 -361 -419 -67 -748 -129 -3836 -715 -1100 -209 -2006 -380
-2012 -380 -9 0 -12 205 -12 835 l0 835 45 22 c32 15 45 28 45 42 0 15 15 29
53 49 162 84 371 307 466 494 92 184 114 292 109 533 -4 165 -8 195 -32 275
-85 283 -295 542 -554 685 -23 13 -42 30 -42 37 0 7 -20 23 -45 35 l-45 22 2
320 3 319 40 11 c28 8 41 18 43 32 3 24 13 26 762 195 250 56 462 108 470 115
8 6 38 17 65 23 28 6 462 106 965 221 966 223 1601 368 1940 445 113 26 313
67 445 91 132 25 501 101 820 169 1212 259 1865 386 3000 584 387 67 405 69
405 42z M5195 9210 c-138 -22 -256 -73 -332 -143 -181 -167 -67 -384 246 -469
109 -30 333 -30 442 0 313 85 427 302 246 469 -58 53 -148 99 -246 124 -88 23
-268 32 -356 19z m255 -210 c127 -20 220 -62 220 -99 0 -101 -286 -174 -493
-126 -117 27 -197 76 -197 121 0 25 37 51 105 74 115 38 244 49 365 30z M7228
8545 c-332 -47 -598 -195 -691 -384 -28 -58 -32 -75 -32 -151 0 -76 4 -93 33
-152 121 -247 537 -415 974 -395 497 24 870 259 870 547 0 238 -252 443 -642
521 -128 26 -383 33 -512 14z m505 -219 c174 -40 328 -110 403 -182 l44 -43 0
-83 c0 -119 -27 -158 -160 -238 -79 -48 -222 -95 -344 -115 -122 -20 -357 -19
-476 1 -222 38 -431 140 -491 238 -14 23 -19 50 -19 108 0 90 14 112 110 176
104 70 244 120 415 148 106 18 424 11 518 -10z M3495 7599 c-301 -41 -548
-176 -632 -346 -40 -82 -40 -182 -1 -267 77 -162 304 -292 597 -341 134 -23
383 -16 512 14 331 76 543 256 543 462 0 204 -221 386 -559 460 -105 23 -353
33 -460 18z m391 -214 c161 -28 317 -91 388 -158 35 -33 36 -37 36 -104 0 -86
-19 -119 -100 -173 -246 -166 -714 -182 -1016 -35 -67 32 -103 57 -133 91 -39
45 -41 50 -41 112 0 64 1 66 43 104 77 72 256 144 413 167 99 14 314 12 410
-4z M8930 6644 c-225 -60 -403 -252 -456 -491 -23 -106 -16 -293 16 -383 38
-110 82 -182 159 -263 181 -190 436 -237 666 -123 225 112 369 378 352 651
-19 297 -216 548 -479 610 -79 19 -187 18 -258 -1z m226 -175 c90 -16 175 -61
238 -126 92 -94 96 -109 96 -347 0 -238 -4 -252 -93 -357 -133 -157 -354 -201
-543 -109 -79 38 -171 136 -213 224 -31 64 -31 64 -31 237 0 164 2 177 25 227
34 73 89 136 160 182 68 44 101 58 172 70 71 11 122 11 189 -1z M5133 6116
c-271 -62 -471 -341 -436 -609 21 -159 118 -293 260 -360 65 -30 74 -32 188
-32 138 0 189 13 282 74 271 176 352 524 177 761 -102 139 -293 206 -471 166z
m262 -200 c55 -26 96 -59 113 -93 8 -14 12 -77 12 -171 0 -148 0 -149 -29
-192 -83 -123 -183 -182 -319 -188 -137 -6 -230 33 -290 123 l-32 48 0 136 c0
120 2 140 21 170 54 89 178 172 286 191 75 14 180 3 238 -24z M2786 5254
c-147 -36 -292 -157 -364 -305 -56 -113 -72 -182 -72 -309 0 -227 97 -420 269
-534 168 -112 349 -125 531 -39 92 44 208 156 257 248 58 111 78 195 77 330
-1 101 -5 133 -27 200 -36 110 -90 196 -170 271 -141 133 -318 182 -501 138z
m248 -179 c105 -27 212 -109 256 -194 18 -36 20 -58 20 -236 0 -232 -6 -250
-110 -355 -87 -89 -154 -115 -290 -114 -145 1 -251 52 -331 160 -74 101 -79
118 -79 307 0 190 7 217 81 301 106 121 289 174 453 131z M5045 4039 c-509
-67 -915 -535 -915 -1054 0 -410 246 -748 620 -855 107 -30 288 -38 403 -16
437 83 781 440 858 890 15 88 6 311 -15 391 -41 154 -110 278 -214 387 -159
166 -342 249 -577 262 -49 3 -121 1 -160 -5z m330 -196 c194 -53 351 -177 434
-344 l41 -81 0 -248 c0 -272 -2 -286 -70 -420 -42 -83 -145 -215 -212 -273
-122 -103 -262 -172 -416 -204 -114 -23 -301 -14 -407 21 -162 52 -300 162
-384 303 -73 122 -81 164 -81 399 0 201 0 205 30 285 107 293 376 517 690 574
101 19 283 13 375 -12z M7920 3855 c-121 -34 -218 -118 -273 -235 -43 -90 -49
-207 -16 -294 27 -72 94 -147 164 -184 44 -24 61 -27 150 -27 88 0 107 3 158
27 80 38 167 123 208 206 32 63 34 73 34 172 0 95 -3 111 -28 162 -69 141
-242 216 -397 173z m187 -186 c15 -6 38 -20 51 -31 20 -20 22 -31 22 -123 0
-101 0 -103 -35 -147 -82 -109 -264 -128 -350 -38 -28 29 -30 37 -34 121 -3
80 -1 93 20 123 26 39 73 73 126 92 46 16 161 18 200 3z"/>
</g>
</svg>
