<?xml version="1.0" standalone="no"?>
<!DOCTYPE svg PUBLIC "-//W3C//DTD SVG 20010904//EN"
 "http://www.w3.org/TR/2001/REC-SVG-20010904/DTD/svg10.dtd">
<svg version="1.0" xmlns="http://www.w3.org/2000/svg"
 width="2048.000000pt" height="2048.000000pt" viewBox="0 0 2048.000000 2048.000000"
 preserveAspectRatio="xMidYMid meet">
<metadata>
Created by potrace 1.13, written by Peter Selinger 2001-2015
</metadata>
<g transform="translate(0.000000,2048.000000) scale(0.192120,-0.192120)"
fill="#000000" stroke="none">
<path d="M5045 9490 c-1187 -64 -1818 -470 -2065 -1327 -93 -323 -150 -823
-150 -1314 l0 -126 -57 -13 c-92 -20 -380 -116 -511 -170 -544 -223 -939 -541
-1074 -862 l-30 -71 12 -100 c16 -136 50 -250 119 -392 134 -278 303 -484 851
-1040 348 -352 504 -522 617 -670 139 -183 246 -375 297 -530 27 -83 56 -234
56 -290 l0 -32 -108 -6 c-669 -38 -1267 -499 -1476 -1137 -71 -220 -86 -348
-86 -762 l0 -318 3890 0 3890 0 0 309 c0 170 -5 355 -11 412 -58 573 -401
1070 -914 1324 -212 104 -414 159 -637 172 l-108 6 0 32 c0 56 30 207 57 290
70 214 212 441 446 713 51 58 254 271 452 472 466 473 607 633 751 851 132
200 211 401 234 592 14 117 20 106 -136 257 -180 174 -367 313 -631 469 -221
130 -603 304 -820 373 l-73 23 0 180 c-1 335 -28 733 -66 975 -59 375 -184
716 -346 945 -81 115 -248 282 -363 363 -302 213 -745 349 -1280 391 -187 15
-555 21 -730 11z m691 -310 c738 -58 1226 -266 1484 -631 132 -187 222 -439
279 -778 19 -112 21 -163 20 -560 0 -385 -2 -433 -15 -406 -7 17 -41 95 -74
174 -117 278 -208 423 -380 604 -295 311 -650 433 -1007 346 -206 -50 -374
-150 -568 -339 -96 -93 -130 -120 -155 -120 -6 0 -61 48 -123 107 -146 140
-247 213 -381 278 -177 85 -349 117 -524 96 -455 -56 -864 -434 -1079 -996
-19 -49 -47 -126 -63 -170 l-29 -80 0 435 c-1 382 2 451 19 566 71 475 188
752 414 980 275 277 730 444 1346 493 153 12 686 13 836 1z m-1150 -1500 c109
-27 263 -106 361 -185 130 -104 260 -267 345 -432 18 -34 35 -63 38 -63 3 0
20 29 38 63 127 246 317 444 527 548 134 66 229 89 370 89 135 0 232 -22 354
-80 114 -55 189 -111 292 -216 176 -183 270 -362 370 -706 116 -403 290 -759
384 -782 34 -9 62 11 86 61 11 23 26 46 33 52 8 7 79 45 160 86 263 134 406
160 436 79 13 -33 -4 -239 -35 -423 -94 -550 -286 -938 -521 -1052 -63 -31
-77 -34 -165 -34 l-96 0 -43 -129 c-104 -308 -255 -589 -461 -856 -92 -120
-329 -356 -436 -435 l-82 -60 -1 -342 0 -341 -112 -80 c-378 -267 -609 -386
-848 -438 -106 -23 -370 -26 -475 -5 -246 48 -462 157 -842 423 l-143 100 0
341 -1 342 -82 60 c-118 86 -357 329 -463 470 -197 263 -347 550 -444 850
l-33 100 -96 0 c-88 0 -101 3 -163 33 -239 117 -429 501 -523 1058 -32 185
-49 398 -35 424 38 71 172 47 415 -74 176 -88 189 -97 215 -150 51 -106 119
-78 219 91 85 143 166 355 290 758 45 147 116 298 192 412 63 94 201 239 285
299 80 57 211 119 304 143 105 28 279 28 386 1z m-1515 -1133 c-18 -47 -31
-30 -31 41 0 40 6 79 15 96 8 15 16 36 17 45 1 9 4 -23 5 -70 2 -47 -1 -98 -6
-112z m-217 -359 c4 -32 5 -58 2 -58 -2 0 -40 42 -84 93 -44 50 -94 107 -111
126 -17 19 -31 44 -31 55 0 12 25 46 55 76 30 30 74 80 97 111 l43 56 11 -201
c7 -111 15 -227 18 -258z m5044 266 c66 -91 72 -117 37 -169 -35 -50 -127
-156 -132 -151 -2 2 1 50 6 107 5 57 13 148 17 202 3 54 10 95 13 90 4 -4 31
-40 59 -79z m-5838 -376 c0 -67 38 -342 65 -468 79 -376 217 -698 387 -901
109 -130 194 -195 331 -251 90 -37 116 -61 158 -151 167 -355 289 -561 439
-746 101 -125 275 -307 359 -376 33 -27 61 -58 61 -67 0 -10 9 -23 20 -30 19
-12 20 -24 20 -235 0 -137 4 -224 10 -228 6 -3 10 -24 10 -45 0 -21 3 -40 8
-42 4 -1 18 -23 31 -48 28 -53 81 -124 150 -200 79 -86 74 -92 -67 -84 -176
10 -223 -12 -277 -127 -16 -35 -30 -66 -32 -68 -5 -8 -122 65 -223 137 -108
78 -322 283 -352 338 l-18 31 48 18 c113 43 137 81 128 205 -15 206 -142 490
-340 760 -157 214 -305 378 -706 785 -452 460 -596 628 -719 845 -94 164 -112
222 -118 370 l-5 125 44 60 c57 77 175 191 275 266 75 56 290 189 305 189 5 0
8 -28 8 -62z m6629 -144 c98 -54 292 -191 411 -292 l105 -89 -1 -99 c-1 -86
-5 -109 -32 -179 -56 -141 -206 -366 -367 -550 -38 -44 -239 -253 -445 -465
-576 -592 -735 -787 -888 -1095 -98 -198 -142 -339 -142 -456 0 -96 35 -139
143 -175 l47 -16 -17 -31 c-27 -49 -228 -246 -323 -318 -84 -63 -236 -159
-252 -159 -4 0 -8 5 -8 11 0 6 -14 40 -31 76 -28 59 -36 67 -86 90 -51 24 -62
25 -174 20 -105 -4 -119 -3 -119 12 0 9 10 27 23 41 66 73 146 174 163 207 10
21 22 40 27 41 4 2 7 21 7 42 0 21 5 42 10 45 6 4 10 95 10 239 0 195 2 236
15 246 8 7 15 20 16 29 0 9 27 39 60 66 83 69 282 274 354 365 32 41 65 80 71
85 39 32 192 293 300 512 69 139 134 262 146 273 11 10 48 28 80 39 140 47
273 150 380 294 178 241 318 624 388 1062 25 157 27 165 47 165 9 0 46 -16 82
-36z m-5575 -3694 c14 -5 72 -51 128 -101 57 -51 129 -113 161 -137 64 -51 69
-68 42 -156 -12 -40 -15 -122 -15 -436 0 -385 0 -386 24 -448 35 -89 77 -158
140 -231 62 -72 69 -97 30 -111 -16 -6 -379 -10 -965 -10 l-939 0 0 274 c0
213 3 290 16 343 98 428 442 792 889 941 190 63 423 97 489 72z m4638 -5 c185
-28 316 -69 471 -146 204 -103 392 -267 511 -448 79 -119 117 -200 157 -334
l29 -100 0 -298 0 -299 -929 0 c-580 0 -939 4 -955 10 -38 14 -32 41 20 102
55 64 110 159 141 245 23 63 23 72 23 449 0 333 -2 395 -17 450 -20 75 -17 83
48 133 24 18 93 77 153 130 59 53 118 101 130 108 29 17 97 16 218 -2z m-3512
-335 c113 -51 297 -132 408 -181 l204 -88 36 29 c72 57 94 60 442 60 349 0
370 -3 443 -61 l38 -30 412 183 c403 179 413 183 478 182 117 -1 221 -71 273
-183 20 -43 21 -64 24 -361 4 -408 -5 -459 -104 -555 -66 -65 -124 -89 -221
-93 -95 -5 -30 -31 -566 232 l-358 175 -42 -22 c-41 -21 -51 -22 -377 -22
-324 0 -336 1 -378 22 l-43 22 -137 -68 c-75 -38 -264 -130 -419 -206 l-282
-137 -83 4 c-97 4 -156 29 -224 94 -97 94 -106 147 -102 554 3 295 4 318 24
361 41 87 113 151 204 176 82 23 129 12 350 -87z m1027 -1026 c193 -4 326 -2
391 5 124 15 166 3 348 -97 230 -126 250 -143 177 -159 -50 -11 -1657 -10
-1706 0 -52 11 -46 34 18 70 291 166 368 200 435 192 25 -3 176 -8 337 -11z
M4120 6423 c-27 -10 -65 -37 -96 -68 -74 -74 -84 -114 -84 -330 0 -203 10
-250 71 -319 53 -60 107 -87 185 -94 118 -9 227 54 275 160 23 50 24 64 24
253 0 199 0 200 -28 257 -64 131 -208 189 -347 141z m130 -402 c0 -95 -4 -152
-11 -156 -5 -4 -21 -4 -35 -1 l-24 6 0 150 0 150 35 0 35 0 0 -149z M6344
6424 c-60 -21 -119 -77 -151 -142 -28 -57 -28 -58 -28 -257 0 -189 1 -203 24
-253 48 -106 157 -169 275 -160 78 7 132 34 185 94 61 69 71 116 71 319 0 216
-10 256 -83 330 -80 80 -190 106 -293 69z m126 -403 c0 -95 -4 -152 -11 -156
-5 -4 -21 -4 -35 -1 l-24 6 0 150 0 150 35 0 35 0 0 -149z M5032 5239 c-144
-72 -159 -267 -26 -358 51 -35 93 -41 324 -41 231 0 273 6 324 41 133 91 118
288 -27 358 -40 20 -60 21 -298 21 -238 0 -257 -1 -297 -21z M6175 4255 c-16
-8 -45 -26 -64 -40 -45 -33 -193 -79 -316 -99 -469 -74 -1061 -23 -1265 109
-45 29 -63 35 -109 35 -111 0 -187 -80 -179 -188 3 -50 11 -67 60 -137 54 -77
56 -83 60 -155 3 -73 6 -81 147 -370 80 -162 155 -309 168 -327 27 -38 85 -59
135 -49 55 10 90 59 162 221 l66 150 62 -5 c98 -8 387 -6 449 3 l55 8 70 -157
c41 -93 81 -168 98 -185 47 -46 114 -50 174 -11 18 12 70 107 181 332 148 300
155 318 159 385 5 73 17 98 93 195 92 117 21 287 -124 297 -33 2 -63 -2 -82
-12z m-1382 -346 c72 -17 143 -37 158 -44 42 -22 79 -73 79 -108 0 -35 -241
-590 -251 -579 -4 4 -68 134 -143 290 -150 312 -157 338 -113 402 25 37 79 70
116 70 13 0 82 -14 154 -31z m1274 15 c19 -9 45 -33 59 -53 44 -64 37 -92 -87
-347 -61 -126 -125 -258 -141 -294 l-30 -65 -14 30 c-123 267 -234 534 -234
561 0 39 44 95 88 113 40 17 262 69 295 70 16 1 45 -6 64 -15z m-673 -90 c3
-9 9 -46 12 -84 5 -53 3 -76 -12 -109 l-18 -41 -63 0 c-61 0 -63 1 -63 25 0
14 -4 25 -10 25 -14 0 -13 143 2 175 10 23 16 25 79 25 52 0 68 -4 73 -16z
M4301 3059 c6 -12 9 -44 7 -71 l-5 -49 97 -65 c307 -204 744 -283 1234 -223
251 30 544 144 684 265 33 28 36 35 33 77 -1 25 3 55 9 66 6 12 9 21 7 21 -2
0 -60 -26 -128 -59 -227 -108 -341 -145 -569 -188 -136 -25 -544 -25 -680 0
-223 42 -346 82 -559 183 -74 35 -136 64 -138 64 -2 0 1 -10 8 -21z M4581
1658 c-43 -114 -39 -296 11 -447 l20 -64 30 49 c62 101 80 109 168 74 27 -11
50 -18 50 -15 0 2 -7 34 -16 72 -16 70 -16 238 1 276 6 14 -4 11 -46 -14 -81
-50 -100 -48 -151 20 -23 31 -45 60 -50 65 -4 5 -12 -2 -17 -16z M6028 1620
c-51 -70 -76 -76 -152 -35 -26 14 -49 25 -51 25 -2 0 1 -15 6 -32 14 -50 11
-185 -6 -257 -9 -35 -14 -65 -13 -67 2 -1 30 6 62 17 76 26 92 19 141 -62 37
-60 38 -61 50 -38 29 57 49 166 49 279 1 109 -17 230 -35 230 -4 0 -27 -27
-51 -60z"/>
</g>
</svg>
