<?xml version="1.0" standalone="no"?>
<!DOCTYPE svg PUBLIC "-//W3C//DTD SVG 20010904//EN"
 "http://www.w3.org/TR/2001/REC-SVG-20010904/DTD/svg10.dtd">
<svg version="1.0" xmlns="http://www.w3.org/2000/svg"
 width="2048.000000pt" height="2048.000000pt" viewBox="0 0 2048.000000 2048.000000"
 preserveAspectRatio="xMidYMid meet">
<metadata>
Created by potrace 1.13, written by Peter Selinger 2001-2015
</metadata>
<g transform="translate(0.000000,2048.000000) scale(0.192120,-0.192120)"
fill="#000000" stroke="none">
<path d="M5025 10323 c-33 -2 -134 -10 -225 -19 -866 -81 -1586 -354 -2183
-827 -132 -104 -390 -363 -496 -497 -334 -422 -553 -907 -640 -1421 -70 -409
-45 -992 63 -1466 99 -436 332 -736 450 -580 27 36 29 43 86 281 155 641 468
1227 877 1642 91 93 263 244 277 244 3 0 64 -47 135 -104 563 -452 1012 -683
1219 -627 57 16 116 71 139 129 20 51 24 179 10 266 l-9 50 156 -151 c344
-334 647 -570 800 -623 64 -23 85 -24 120 -9 88 41 50 271 -101 609 -36 80
-67 152 -71 160 -3 8 16 -4 41 -28 56 -51 187 -137 276 -182 396 -198 1124
-339 1891 -366 l185 -7 300 -594 c315 -623 370 -723 427 -766 62 -47 91 -52
145 -26 84 42 148 168 208 405 98 387 145 1233 90 1604 -121 819 -654 1626
-1434 2174 -693 486 -1556 743 -2473 734 -112 -1 -230 -3 -263 -5z m761 -308
c759 -79 1441 -342 2004 -774 528 -404 902 -925 1074 -1494 69 -229 68 -205
62 -924 -5 -735 -12 -875 -46 -978 -31 -92 -41 -103 -75 -81 -40 26 -67 75
-327 585 -240 470 -242 475 -314 546 -42 42 -94 84 -126 99 -58 28 -95 33
-448 56 -322 21 -724 77 -973 136 -265 62 -434 121 -687 240 -174 82 -225 91
-292 51 -51 -30 -77 -57 -107 -113 -24 -43 -24 -23 -5 -299 3 -49 2 -85 -4
-85 -21 0 -178 125 -362 289 -224 200 -301 251 -376 251 -37 0 -51 -7 -103
-50 -58 -48 -123 -142 -137 -195 -3 -14 -12 -29 -19 -33 -6 -4 -18 -18 -25
-31 -11 -21 -17 -23 -59 -17 -170 23 -462 188 -851 480 -174 130 -291 196
-351 196 -90 0 -216 -78 -375 -232 -286 -278 -512 -599 -707 -1008 -89 -185
-129 -285 -203 -506 -56 -168 -77 -214 -98 -214 -17 0 -57 87 -66 145 -5 28
-23 133 -42 235 l-33 185 0 530 0 530 33 140 c122 525 355 946 737 1331 166
168 291 271 482 398 569 377 1286 591 2108 630 154 7 564 -4 711 -19z M1502
6002 c-27 -9 -130 -152 -179 -248 -153 -300 -198 -685 -123 -1055 74 -361 274
-649 505 -727 l59 -20 13 -89 c7 -49 22 -130 32 -179 l19 -89 1 100 c0 55 6
146 13 202 10 90 10 106 -6 147 -21 54 -87 130 -167 192 -106 81 -186 207
-245 384 l-28 85 -4 323 -3 324 40 166 c41 172 95 465 89 480 -1 5 -9 7 -16 4z
M9180 5958 c0 -9 9 -58 19 -109 11 -52 29 -159 41 -239 12 -80 28 -180 36
-224 10 -54 14 -153 14 -322 l0 -244 -49 -148 c-80 -243 -129 -324 -306 -497
-125 -122 -134 -146 -115 -300 7 -52 11 -145 8 -205 -2 -61 -4 -110 -2 -110 3
0 54 273 62 334 l7 58 55 17 c190 59 371 279 465 564 147 450 88 995 -145
1337 -47 68 -90 111 -90 88z M3890 5881 c-58 -12 -107 -40 -150 -88 -76 -82
-75 -76 -75 -463 0 -388 -1 -381 75 -464 57 -61 118 -89 200 -89 108 0 193 50
246 145 l29 53 0 355 0 355 -29 53 c-60 107 -182 166 -296 143z M6663 5880
c-81 -16 -147 -66 -189 -142 l-29 -53 0 -355 0 -355 29 -53 c53 -95 138 -145
246 -145 82 0 143 28 200 89 76 83 75 76 75 464 0 388 1 381 -75 464 -67 72
-163 104 -257 86z M4983 4211 c-49 -13 -117 -57 -147 -96 -42 -55 -59 -104
-59 -175 0 -82 28 -143 89 -200 83 -76 76 -75 464 -75 341 0 346 0 392 23 64
32 132 108 149 169 38 136 -13 262 -133 329 l-53 29 -335 2 c-184 1 -349 -2
-367 -6z m636 -217 c57 -12 65 -78 13 -112 -23 -15 -59 -17 -297 -17 -148 0
-282 3 -297 8 -38 10 -58 34 -58 68 0 53 29 58 336 59 149 0 286 -3 303 -6z
M2017 3930 c-48 -15 -94 -58 -122 -113 -89 -183 -17 -705 151 -1099 78 -184
228 -436 340 -574 28 -35 68 -107 109 -201 114 -260 239 -470 391 -658 93
-116 275 -292 387 -377 242 -180 538 -304 810 -340 75 -10 99 -17 127 -40 94
-74 325 -137 645 -174 211 -25 738 -25 950 -1 182 22 363 57 470 93 83 27 174
73 195 99 7 8 25 15 39 15 15 0 70 7 122 16 350 60 675 232 958 508 237 232
412 491 570 846 44 100 87 181 111 209 78 93 212 307 285 455 157 320 245 674
245 991 1 147 -13 208 -59 272 -98 136 -332 101 -620 -91 -71 -47 -148 -116
-291 -258 -378 -376 -623 -533 -903 -578 -153 -25 -291 1 -461 87 -260 130
-452 207 -651 258 -167 43 -317 60 -414 47 -47 -7 -95 -7 -142 0 -131 18 -352
-19 -574 -95 -155 -53 -246 -92 -432 -182 -214 -105 -264 -119 -413 -119 -132
0 -207 16 -343 74 -197 85 -387 229 -666 507 -211 210 -305 282 -463 358 -143
68 -264 91 -351 65z m214 -276 c138 -40 266 -132 494 -354 285 -278 443 -400
661 -509 171 -86 379 -131 524 -113 72 8 100 6 100 -9 0 -6 -18 -45 -40 -86
-54 -103 -54 -147 0 -259 55 -114 163 -224 275 -281 280 -143 677 -211 1168
-200 424 9 763 76 997 198 95 49 158 103 217 186 101 142 115 230 57 354 -43
91 -41 114 8 103 18 -4 83 -7 143 -7 143 2 268 34 423 108 212 102 363 216
657 498 105 101 211 200 237 220 101 82 282 167 355 167 l25 0 -4 -197 c-4
-171 -8 -213 -32 -308 -57 -234 -155 -477 -257 -635 -20 -30 -81 -125 -137
-211 -58 -89 -136 -227 -182 -324 -247 -513 -524 -821 -905 -1009 -143 -71
-242 -105 -415 -142 -63 -14 -153 -41 -200 -61 -326 -137 -570 -177 -1075
-177 -496 0 -741 41 -1066 178 -47 19 -139 47 -205 61 -358 78 -625 224 -882
483 -157 160 -271 331 -428 644 -58 117 -144 266 -217 378 -292 448 -417 802
-417 1182 l0 138 33 0 c18 0 58 -7 88 -16z m3509 -617 c172 -41 252 -78 226
-104 -4 -5 -1225 -8 -1268 -4 -5 1 -8 8 -8 16 0 20 59 48 160 75 162 43 228
49 515 46 248 -3 279 -6 375 -29z m-1073 -109 c-3 -8 -6 -5 -6 6 -1 11 2 17 5
13 3 -3 4 -12 1 -19z m1018 -238 c511 -25 799 -94 852 -205 15 -32 15 -38 1
-69 -57 -119 -348 -235 -753 -298 -122 -19 -180 -22 -455 -22 -275 0 -333 3
-455 22 -262 41 -478 103 -614 178 -200 109 -196 215 12 292 73 28 270 67 407
82 255 28 675 36 1005 20z M1831 3574 c0 -11 3 -14 6 -6 3 7 2 16 -1 19 -3 4
-6 -2 -5 -13z"/>
</g>
</svg>
