<?xml version="1.0" standalone="no"?>
<!DOCTYPE svg PUBLIC "-//W3C//DTD SVG 20010904//EN"
 "http://www.w3.org/TR/2001/REC-SVG-20010904/DTD/svg10.dtd">
<svg version="1.0" xmlns="http://www.w3.org/2000/svg"
 width="2048.000000pt" height="2048.000000pt" viewBox="0 0 2048.000000 2048.000000"
 preserveAspectRatio="xMidYMid meet">
<metadata>
Created by potrace 1.13, written by Peter Selinger 2001-2015
</metadata>
<g transform="translate(0.000000,2048.000000) scale(0.192120,-0.192120)"
fill="#000000" stroke="none">
<path d="M5015 8934 c-27 -2 -115 -9 -195 -14 -1013 -76 -1864 -423 -2435
-995 -213 -212 -364 -423 -495 -690 -118 -239 -193 -477 -237 -747 -25 -159
-25 -694 1 -913 52 -451 165 -795 306 -936 l47 -47 12 -213 c38 -675 101
-1153 208 -1584 210 -843 589 -1404 1185 -1757 365 -216 802 -345 1363 -405
214 -22 855 -25 1065 -5 820 80 1403 312 1834 731 597 581 882 1472 964 3009
l7 134 -26 14 c-56 29 -111 109 -208 304 -145 292 -434 956 -542 1245 -18 50
-34 92 -36 94 -1 2 -37 -15 -80 -37 -102 -52 -230 -97 -356 -123 -123 -26
-351 -31 -467 -10 -242 43 -508 174 -693 342 -37 34 -69 60 -71 58 -2 -2 0
-29 5 -59 13 -92 10 -329 -6 -402 -26 -124 -82 -215 -158 -255 -203 -106 -596
104 -1114 593 l-132 124 -6 -47 c-22 -170 -78 -268 -183 -320 -143 -70 -368
-9 -652 177 -163 108 -387 287 -518 414 -60 58 -63 60 -86 46 -47 -29 -225
-192 -298 -273 -385 -426 -637 -917 -789 -1537 -28 -113 -57 -215 -65 -227
-25 -39 -60 -56 -99 -49 l-35 7 0 76 c0 67 -8 98 -65 267 -139 413 -145 458
-145 1100 l0 511 29 125 c92 398 316 801 615 1108 510 524 1220 842 2141 956
511 64 1039 57 1520 -20 781 -125 1511 -478 1996 -966 298 -300 475 -571 640
-985 97 -241 93 -210 97 -773 4 -496 0 -572 -34 -810 -19 -129 -64 -311 -99
-405 -34 -89 -43 -115 -59 -193 -15 -70 -10 -80 39 -68 95 24 182 202 240 489
56 285 79 571 80 1007 0 370 -5 423 -60 640 -83 328 -262 680 -493 970 -97
122 -349 374 -472 472 -582 462 -1302 742 -2150 833 -137 15 -713 28 -835 19z
m-1604 -2566 c24 -17 80 -60 123 -96 375 -309 668 -462 881 -462 88 0 125 9
125 30 0 11 16 23 48 35 56 21 88 42 163 106 104 89 110 88 244 -23 395 -329
666 -467 896 -456 71 3 98 9 148 34 42 21 61 26 61 17 0 -21 37 15 84 82 60
85 89 152 131 302 10 34 24 64 32 67 7 3 67 -21 132 -53 248 -125 410 -165
666 -165 186 0 268 13 465 75 61 18 111 28 125 25 34 -9 58 -54 188 -361 199
-467 366 -826 426 -915 88 -131 91 -141 91 -322 0 -174 -20 -437 -45 -581 -8
-48 -15 -106 -15 -130 0 -98 -72 -514 -106 -610 -16 -46 -102 -340 -140 -481
-68 -248 -177 -478 -326 -685 -74 -103 -113 -147 -218 -245 -452 -423 -1024
-643 -1829 -706 -173 -13 -689 -13 -857 0 -640 51 -1126 197 -1519 457 -265
175 -425 340 -602 618 -207 327 -362 786 -458 1362 -60 357 -77 550 -82 885
-5 312 -5 318 16 347 31 43 69 134 85 200 71 291 121 449 205 648 142 336 335
637 562 877 153 162 213 187 300 124z M3170 5486 c-124 -33 -234 -125 -294
-243 -35 -71 -36 -75 -36 -188 0 -107 2 -120 30 -183 53 -115 187 -217 319
-242 29 -5 132 -10 229 -10 156 0 186 3 281 27 112 28 223 34 446 23 93 -4
104 -2 140 19 71 42 141 125 169 199 22 57 26 84 26 170 0 97 -2 108 -34 178
-39 84 -124 177 -194 213 -95 48 -127 51 -597 50 -314 0 -453 -4 -485 -13z
m1006 -173 c101 -34 184 -154 184 -264 0 -97 -75 -209 -168 -252 -46 -22 -57
-22 -527 -22 l-480 0 -57 28 c-102 50 -158 142 -158 256 1 115 86 227 200 262
14 4 235 8 491 8 411 1 471 -1 515 -16z M6505 5486 c-120 -30 -238 -128 -299
-248 -35 -69 -36 -75 -36 -181 0 -105 2 -113 35 -182 45 -94 132 -177 207
-200 44 -13 69 -13 163 -4 138 14 260 6 395 -26 90 -21 129 -25 276 -25 94 0
196 5 225 10 124 23 253 122 310 236 20 42 24 66 27 177 l4 128 -36 72 c-53
109 -144 193 -251 233 -46 17 -87 19 -510 21 -342 1 -473 -2 -510 -11z m1030
-183 c93 -50 154 -147 155 -244 0 -114 -56 -206 -158 -256 l-57 -28 -480 0
c-434 0 -484 2 -518 17 -137 62 -203 202 -163 343 14 45 29 69 69 110 87 86
70 84 627 82 477 -2 486 -2 525 -24z M3869 4487 c-59 -17 -126 -66 -161 -118
-41 -61 -50 -129 -46 -323 3 -147 6 -177 24 -217 66 -142 237 -204 377 -136
60 30 95 65 130 131 21 39 22 54 22 256 0 202 -1 217 -22 256 -35 65 -70 101
-127 129 -64 31 -136 39 -197 22z M6632 4482 c-71 -26 -118 -66 -156 -132
l-31 -55 0 -215 0 -215 31 -55 c114 -202 401 -191 498 19 19 42 21 63 21 251
0 188 -2 209 -21 251 -60 130 -212 197 -342 151z M4935 3496 c-165 -78 -210
-292 -91 -433 15 -17 54 -46 88 -62 l61 -31 336 0 336 0 60 29 c102 47 158
135 158 246 0 110 -60 204 -158 251 -50 24 -53 24 -395 24 -342 0 -345 0 -395
-24z m674 -195 c66 -13 79 -49 37 -98 l-24 -28 -290 0 c-280 0 -292 1 -319 21
-21 16 -28 30 -28 55 0 32 3 35 45 46 53 13 512 17 579 4z M4403 2397 c-61
-23 -118 -72 -148 -128 -26 -47 -30 -64 -30 -134 0 -62 5 -89 22 -120 74 -140
361 -309 643 -379 171 -43 237 -51 445 -50 208 0 304 12 464 56 270 74 547
242 613 372 48 94 30 217 -44 301 -52 59 -107 86 -184 93 -81 6 -144 -15 -214
-73 -105 -86 -259 -152 -419 -180 -108 -19 -334 -19 -442 0 -157 27 -315 95
-414 176 -27 22 -63 48 -80 57 -38 20 -169 26 -212 9z m187 -240 c19 -9 77
-41 129 -71 176 -104 327 -145 561 -153 268 -10 455 34 669 158 128 73 186 94
238 84 32 -6 33 -8 33 -51 0 -39 -5 -51 -37 -83 -102 -101 -303 -185 -568
-237 -112 -22 -432 -25 -545 -5 -99 17 -249 56 -319 82 -90 33 -222 107 -274
152 -40 35 -49 49 -54 84 -5 38 -3 44 18 53 32 13 106 7 149 -13z"/>
</g>
</svg>
