<?xml version="1.0" standalone="no"?>
<!DOCTYPE svg PUBLIC "-//W3C//DTD SVG 20010904//EN"
 "http://www.w3.org/TR/2001/REC-SVG-20010904/DTD/svg10.dtd">
<svg version="1.0" xmlns="http://www.w3.org/2000/svg"
 width="2048.000000pt" height="2048.000000pt" viewBox="0 0 2048.000000 2048.000000"
 preserveAspectRatio="xMidYMid meet">
<metadata>
Created by potrace 1.13, written by Peter Selinger 2001-2015
</metadata>
<g transform="translate(0.000000,2048.000000) scale(0.192120,-0.192120)"
fill="#000000" stroke="none">
<path d="M5045 9209 c-312 -26 -688 -117 -963 -231 -786 -326 -1304 -921
-1471 -1693 -42 -189 -53 -320 -56 -625 l-3 -295 126 -127 126 -127 -28 -633
c-14 -348 -27 -661 -26 -695 0 -54 -3 -63 -18 -63 -30 0 -142 72 -213 138
l-67 62 -6 -62 c-3 -35 -8 -106 -11 -158 -2 -52 -21 -363 -40 -690 -34 -585
-85 -1546 -85 -1625 -1 -39 -2 -41 -75 -82 -312 -179 -603 -548 -714 -908 -66
-212 -81 -352 -81 -756 l0 -309 3890 0 3890 0 0 313 c0 171 -5 354 -10 405
-37 350 -168 655 -397 925 -112 133 -247 244 -434 360 -26 15 -26 18 -33 164
-17 357 -59 1128 -86 1593 -17 278 -35 597 -41 710 -6 113 -13 215 -15 227 -4
20 -13 14 -77 -54 -39 -42 -99 -99 -132 -126 -59 -49 -60 -50 -66 -26 -4 13
-7 65 -8 114 -1 100 -48 1207 -55 1297 -4 57 -4 57 42 100 26 24 79 58 119 77
l71 34 7 116 c9 136 0 360 -21 521 -81 630 -397 1177 -899 1555 -565 426
-1362 639 -2140 574z m671 -314 c527 -66 995 -247 1367 -527 160 -120 357
-336 473 -518 95 -149 191 -396 233 -597 19 -90 21 -136 21 -392 0 -159 -4
-300 -9 -313 -9 -24 -126 -148 -139 -148 -14 0 -34 43 -69 149 -72 219 -184
435 -328 633 -89 123 -322 352 -429 422 -172 113 -349 184 -561 224 -76 14
-137 16 -390 13 -384 -5 -733 -5 -1110 0 -253 3 -314 1 -390 -13 -150 -29
-264 -66 -390 -127 -154 -76 -274 -161 -400 -286 -185 -184 -296 -338 -410
-570 -85 -172 -105 -230 -141 -404 -26 -125 -44 -171 -66 -171 -21 0 -128 124
-138 160 -6 20 -10 173 -10 354 0 300 1 326 25 441 103 511 382 921 835 1225
296 199 679 348 1075 419 95 16 163 25 370 45 84 8 465 -4 581 -19z m-627
-1331 c211 -15 244 -15 495 1 611 40 869 -4 1160 -196 98 -64 253 -216 333
-326 124 -168 262 -437 298 -583 65 -258 77 -993 30 -1920 l-16 -305 -48 -96
c-124 -245 -286 -465 -491 -669 -80 -80 -182 -172 -227 -205 l-82 -60 -1 -342
0 -341 -112 -80 c-517 -366 -787 -473 -1148 -458 -325 13 -548 110 -1017 438
l-143 100 0 341 -1 342 -82 60 c-45 33 -147 125 -227 205 -202 201 -366 423
-485 658 l-44 87 -18 365 c-22 450 -25 1373 -5 1575 18 189 50 370 78 444 39
104 150 309 219 406 121 169 269 310 421 402 126 76 318 141 479 162 114 14
391 12 634 -5z m2746 -2899 c33 -34 75 -68 92 -75 46 -21 44 0 83 -678 24
-402 30 -594 30 -885 l0 -372 -75 -68 c-41 -38 -75 -74 -75 -81 0 -8 -7 -20
-16 -27 -15 -12 -16 -99 -13 -939 l4 -925 -302 -3 -303 -2 0 140 c0 96 11 234
35 438 73 625 116 1052 122 1187 5 136 5 141 -21 191 -37 73 -142 169 -205
188 -29 8 -120 18 -215 22 l-166 7 0 147 0 147 168 169 c184 185 306 337 423
526 120 192 191 345 218 469 6 26 17 152 25 280 11 181 19 242 32 269 l18 34
40 -49 c23 -28 68 -77 101 -110z m-4816 -195 c18 -309 38 -370 215 -668 120
-203 321 -451 496 -612 l100 -92 0 -159 0 -159 -32 -1 c-170 -3 -316 -17 -348
-34 -59 -30 -150 -115 -181 -169 -27 -49 -29 -57 -29 -172 0 -118 35 -490 105
-1115 27 -244 35 -351 35 -495 l0 -184 -296 0 -296 0 6 493 c3 270 8 688 11
927 l6 435 -38 55 c-21 30 -63 74 -93 97 -30 24 -61 49 -69 55 -23 19 -9 645
28 1238 17 278 35 518 39 534 6 21 17 31 46 41 52 18 121 79 184 162 l54 71
22 -22 c22 -20 24 -34 35 -226z m1067 -1935 c-14 -37 -17 -114 -6 -154 22 -83
155 -188 442 -350 635 -359 1182 -314 1875 152 160 107 199 164 190 272 -3 33
-8 68 -12 78 -7 16 13 17 335 17 l342 0 -6 -37 c-3 -21 -26 -234 -51 -473 -67
-644 -175 -1562 -191 -1627 -6 -23 -7 -23 -70 23 -36 25 -89 56 -119 70 l-56
24 -1440 0 -1440 0 -47 -24 c-26 -13 -74 -45 -107 -70 -58 -43 -60 -44 -67
-23 -19 57 -238 2015 -238 2124 0 10 68 13 336 13 293 0 335 -2 330 -15z
m-1440 -107 c-3 -35 -24 -488 -46 -1008 -22 -520 -44 -964 -48 -988 l-7 -42
-75 54 c-41 29 -97 65 -123 80 l-48 26 -259 0 c-224 0 -260 2 -260 15 0 11
-12 15 -45 15 l-45 0 0 290 c0 329 7 377 79 553 95 234 224 411 424 582 151
130 202 221 179 323 l-10 43 61 31 c59 29 202 86 221 88 4 0 6 -28 2 -62z
m5466 28 c35 -13 91 -37 124 -54 l61 -31 -7 -41 c-20 -110 37 -203 219 -354
193 -161 337 -376 423 -630 53 -158 58 -198 58 -493 0 -266 0 -273 -20 -273
-11 0 -20 -7 -20 -15 0 -13 -35 -15 -259 -15 -163 0 -262 -4 -266 -10 -3 -5
-21 -10 -40 -10 -35 0 -124 -46 -207 -106 -35 -26 -49 -32 -53 -22 -3 7 -23
427 -45 933 -22 506 -43 971 -46 1033 -5 79 -3 112 4 112 7 0 40 -11 74 -24z
M4120 6423 c-27 -10 -65 -37 -96 -68 -74 -74 -84 -114 -84 -330 0 -207 10
-251 75 -323 63 -70 127 -96 221 -90 111 7 189 61 236 163 22 47 23 62 23 250
0 199 0 200 -28 257 -64 131 -208 189 -347 141z M6344 6424 c-60 -21 -119 -77
-151 -142 -28 -57 -28 -58 -28 -262 0 -203 0 -205 27 -256 50 -95 126 -145
233 -152 93 -6 158 21 220 90 65 72 75 116 75 323 0 216 -10 256 -83 330 -80
80 -190 106 -293 69z M5034 5241 c-79 -36 -136 -142 -119 -223 12 -59 53 -116
103 -145 47 -28 47 -28 267 -31 121 -2 243 -1 271 3 94 11 169 81 189 173 17
80 -40 187 -119 223 -36 17 -69 19 -296 19 -227 0 -260 -2 -296 -19z M4384
4260 c-51 -11 -98 -46 -123 -90 -32 -57 -27 -142 12 -193 77 -101 318 -192
617 -232 69 -9 224 -19 345 -22 433 -11 780 40 1000 147 139 67 187 125 187
220 -1 59 -19 97 -66 138 -62 54 -148 55 -221 3 -135 -97 -401 -144 -805 -144
-400 0 -633 40 -800 139 -61 36 -100 45 -146 34z M4256 3087 c4 -12 8 -41 9
-64 1 -52 20 -73 122 -144 254 -176 614 -261 1028 -245 371 14 663 102 884
266 90 67 96 74 93 115 -2 16 2 44 7 62 l9 32 -114 -59 c-306 -157 -572 -228
-900 -237 -363 -11 -646 52 -984 218 -140 68 -160 76 -154 56z M1748 6700
c-24 -18 -28 -29 -28 -72 0 -155 128 -601 267 -932 124 -294 316 -625 411
-710 21 -18 21 -18 27 10 4 16 9 35 11 42 5 18 -14 99 -34 142 -9 19 -37 71
-63 115 -222 381 -439 947 -439 1146 l0 68 48 -14 c29 -9 48 -11 50 -5 6 17
23 12 136 -42 89 -42 119 -51 159 -51 48 1 96 24 104 49 8 23 -323 200 -457
244 -100 34 -159 37 -192 10z M8735 6706 c-150 -35 -489 -176 -479 -200 9 -20
53 -47 81 -48 61 -3 135 12 236 46 116 39 157 45 157 21 0 -8 6 -14 13 -12 22
4 20 -105 -3 -184 -71 -239 -246 -615 -413 -887 -93 -153 -109 -192 -109 -264
0 -85 12 -90 63 -26 274 344 628 1128 655 1453 6 63 4 72 -15 89 -28 25 -107
30 -186 12z"/>
</g>
</svg>
