<?xml version="1.0" standalone="no"?>
<!DOCTYPE svg PUBLIC "-//W3C//DTD SVG 20010904//EN"
 "http://www.w3.org/TR/2001/REC-SVG-20010904/DTD/svg10.dtd">
<svg version="1.0" xmlns="http://www.w3.org/2000/svg"
 width="2048.000000pt" height="2048.000000pt" viewBox="0 0 2048.000000 2048.000000"
 preserveAspectRatio="xMidYMid meet">
<metadata>
Created by potrace 1.13, written by Peter Selinger 2001-2015
</metadata>
<g transform="translate(0.000000,2048.000000) scale(0.192120,-0.192120)"
fill="#000000" stroke="none">
<path d="M5030 10323 c-36 -2 -139 -10 -230 -19 -867 -81 -1586 -354 -2183
-827 -132 -104 -390 -363 -496 -497 -334 -422 -553 -907 -640 -1421 -33 -192
-44 -384 -37 -619 10 -313 31 -513 82 -762 l26 -126 -64 -64 c-155 -154 -266
-405 -309 -698 -20 -134 -15 -393 10 -534 70 -397 272 -702 517 -785 52 -17
59 -23 62 -48 6 -61 44 -274 68 -378 13 -60 33 -168 44 -240 56 -362 189 -699
398 -1008 149 -220 182 -276 237 -398 101 -227 227 -436 371 -614 91 -113 274
-292 382 -373 245 -183 540 -308 807 -343 72 -9 99 -17 133 -41 114 -79 328
-137 647 -174 211 -25 738 -25 950 -1 329 39 562 105 660 187 12 10 55 21 112
28 264 34 545 150 794 328 106 76 309 272 403 388 137 171 266 383 366 604 61
135 90 184 248 418 214 317 326 616 405 1079 9 50 29 155 46 235 17 80 36 187
43 239 l14 93 54 17 c340 106 588 663 540 1216 -19 226 -68 406 -156 576 -47
90 -150 233 -175 241 -9 3 -8 33 4 134 58 452 72 1014 32 1284 -68 458 -278
945 -584 1353 -344 459 -793 834 -1321 1101 -675 343 -1415 490 -2260 449z
m800 -317 c385 -47 716 -128 1045 -257 1010 -396 1778 -1194 2005 -2084 l40
-156 0 -798 c0 -777 -1 -801 -21 -867 -34 -116 -38 -124 -68 -124 -54 0 -65
18 -368 614 -235 463 -247 484 -311 549 -37 37 -90 79 -117 93 -54 26 -95 31
-450 54 -435 29 -863 98 -1178 190 -170 49 -270 88 -453 173 -161 76 -215 93
-265 83 -46 -8 -101 -55 -133 -112 -33 -58 -35 -138 -6 -242 21 -74 27 -177
11 -186 -20 -13 -162 97 -398 306 -186 165 -237 206 -298 234 -79 38 -113 32
-187 -31 -41 -34 -102 -126 -112 -169 -4 -15 -21 -46 -39 -68 -32 -40 -32 -40
-87 -35 -162 17 -444 176 -855 481 -219 162 -271 190 -350 191 -51 0 -70 -6
-132 -40 -127 -71 -306 -241 -484 -461 -290 -356 -527 -824 -689 -1359 -28
-92 -42 -124 -58 -130 -20 -7 -52 18 -52 41 0 12 -9 41 -20 65 -13 29 -20 66
-20 109 0 36 -12 130 -27 210 -26 143 -26 153 -30 681 l-4 536 30 149 c53 256
171 572 293 779 55 94 178 273 246 360 133 168 390 408 584 548 526 377 1224
617 1963 677 72 5 148 12 170 14 106 10 698 -3 825 -18z m-2511 -2390 c122
-101 355 -274 496 -368 362 -240 625 -340 778 -297 53 14 112 71 134 127 20
51 24 179 10 266 l-9 50 156 -151 c344 -334 647 -570 800 -623 64 -23 85 -24
120 -9 38 18 50 58 43 152 -7 117 -77 327 -176 526 -23 46 -41 88 -41 93 0 6
20 -8 45 -31 54 -49 185 -136 274 -181 396 -198 1120 -339 1892 -366 l186 -7
42 -86 c225 -457 598 -1176 635 -1222 58 -74 120 -106 172 -89 53 18 102 74
145 165 33 70 52 130 110 345 l12 45 19 -75 c10 -41 29 -142 43 -225 14 -82
32 -189 40 -236 11 -62 15 -163 15 -351 l0 -264 -36 -109 c-79 -240 -135 -334
-287 -481 -150 -145 -159 -170 -144 -379 l8 -100 -22 54 c-69 173 -236 198
-494 71 -157 -76 -239 -140 -457 -355 -217 -214 -310 -293 -453 -388 -266
-175 -509 -233 -735 -173 -31 8 -134 53 -230 100 -424 206 -792 308 -1009 278
-47 -7 -95 -7 -142 0 -131 18 -352 -19 -574 -95 -156 -54 -246 -92 -432 -183
-95 -46 -198 -91 -230 -99 -182 -48 -366 -23 -578 80 -186 90 -348 217 -614
482 -210 209 -304 282 -463 358 -251 120 -414 97 -484 -70 l-25 -60 8 100 c16
206 3 248 -110 355 -184 173 -205 198 -246 282 -22 46 -51 123 -65 172 -26 87
-26 94 -26 412 l0 323 39 163 c21 90 51 226 66 303 15 77 30 144 33 149 3 5
21 -38 42 -95 104 -296 251 -468 356 -417 43 20 69 79 104 233 158 690 475
1296 908 1733 97 98 249 231 266 232 4 0 42 -29 85 -64z m-1003 -3975 c130
-61 231 -139 423 -326 216 -212 314 -295 456 -390 232 -156 430 -226 635 -227
63 0 133 4 155 9 80 20 83 4 15 -114 -62 -108 -65 -148 -20 -248 113 -251 367
-380 910 -461 145 -21 560 -30 730 -15 309 28 579 92 770 183 110 53 219 159
270 263 30 60 35 80 35 140 0 65 -3 76 -42 142 -24 39 -43 84 -43 98 0 24 3
26 26 21 210 -53 465 -5 709 135 180 103 316 213 580 469 99 96 211 197 248
223 90 64 239 134 305 143 l52 7 0 -164 c0 -202 -28 -365 -99 -569 -81 -233
-130 -327 -355 -675 -43 -66 -120 -203 -171 -305 -167 -336 -289 -514 -478
-697 -129 -124 -279 -230 -431 -302 -124 -59 -221 -92 -393 -131 -74 -16 -176
-48 -230 -71 -196 -83 -313 -114 -558 -146 -111 -14 -210 -18 -485 -18 -518 1
-731 33 -1024 156 -72 31 -169 61 -250 80 -359 80 -609 215 -856 459 -183 181
-287 336 -457 674 -52 104 -122 233 -157 285 -35 53 -89 137 -122 186 -223
342 -353 749 -354 1109 l0 129 61 -7 c40 -4 90 -20 145 -45z m3464 -594 c189
-50 334 -106 344 -134 9 -23 -33 -29 -154 -21 -260 16 -891 21 -1094 8 -234
-14 -333 -17 -342 -7 -14 14 7 35 59 60 95 45 335 113 462 131 17 2 156 3 310
1 l280 -2 135 -36z m-1263 -159 c-3 -8 -6 -5 -6 6 -1 11 2 17 5 13 3 -3 4 -12
1 -19z m1630 0 c-3 -8 -6 -5 -6 6 -1 11 2 17 5 13 3 -3 4 -12 1 -19z m-272
-208 c447 -38 700 -131 671 -246 -31 -123 -338 -250 -761 -315 -169 -26 -547
-36 -735 -20 -472 42 -872 181 -931 323 -10 24 -9 35 4 63 50 106 345 179 819
205 188 10 769 4 933 -10z M3890 5881 c-58 -12 -107 -40 -150 -88 -76 -82 -75
-76 -75 -463 0 -388 -1 -381 75 -464 57 -61 118 -89 200 -89 112 0 207 60 254
162 20 44 21 60 21 391 l0 345 -28 57 c-54 109 -180 173 -297 149z m90 -556
l0 -305 -38 0 c-21 0 -43 5 -50 12 -18 18 -17 584 1 591 6 3 29 6 50 6 l37 1
0 -305z M6663 5880 c-81 -16 -147 -66 -189 -142 l-29 -53 0 -355 0 -355 29
-53 c53 -95 138 -145 246 -145 82 0 143 28 200 89 76 83 75 76 75 464 0 388 1
381 -75 464 -67 72 -163 104 -257 86z m95 -557 l2 -303 -38 0 c-21 0 -43 5
-50 12 -18 18 -17 584 1 592 6 3 28 4 47 3 l35 -2 3 -302z M4972 4205 c-209
-66 -263 -327 -98 -472 73 -65 97 -68 471 -68 371 0 367 0 450 76 113 104 118
286 10 394 -21 21 -59 47 -84 59 -44 20 -63 21 -376 23 -257 2 -340 -1 -373
-12z m683 -199 c32 -14 35 -18 35 -58 0 -54 -19 -83 -68 -100 -53 -18 -542
-18 -594 0 -48 17 -78 55 -78 98 0 48 32 65 138 75 140 12 526 2 567 -15z"/>
</g>
</svg>
