<?xml version="1.0" standalone="no"?>
<!DOCTYPE svg PUBLIC "-//W3C//DTD SVG 20010904//EN"
 "http://www.w3.org/TR/2001/REC-SVG-20010904/DTD/svg10.dtd">
<svg version="1.0" xmlns="http://www.w3.org/2000/svg"
 width="2048.000000pt" height="2048.000000pt" viewBox="0 0 2048.000000 2048.000000"
 preserveAspectRatio="xMidYMid meet">
<metadata>
Created by potrace 1.13, written by Peter Selinger 2001-2015
</metadata>
<g transform="translate(0.000000,2048.000000) scale(0.192120,-0.192120)"
fill="#000000" stroke="none">
<path d="M5030 10323 c-36 -2 -139 -10 -230 -19 -867 -81 -1586 -354 -2183
-827 -127 -100 -388 -361 -489 -487 -397 -500 -628 -1074 -679 -1690 -18 -227
1 -665 41 -926 6 -38 22 -127 37 -198 l26 -129 -42 -35 c-93 -77 -204 -260
-262 -429 -111 -330 -113 -716 -4 -1050 93 -284 268 -496 460 -561 l59 -20 14
-94 c7 -51 26 -158 43 -238 17 -80 37 -185 45 -235 43 -260 74 -386 141 -570
54 -148 169 -368 269 -516 149 -219 185 -279 234 -390 217 -491 549 -887 933
-1113 211 -124 450 -208 662 -231 45 -5 73 -16 112 -41 109 -74 341 -136 638
-171 211 -24 739 -24 950 0 319 38 559 104 653 181 20 17 51 25 119 34 265 35
545 150 794 328 102 73 309 271 396 379 140 174 273 393 373 613 61 134 91
185 245 413 217 322 329 619 408 1084 9 50 29 155 46 235 17 80 36 187 43 239
l14 93 54 17 c190 59 371 280 465 566 164 501 65 1134 -227 1437 l-40 43 16
125 c57 441 71 1013 31 1280 -44 289 -133 566 -275 850 -171 343 -363 606
-659 900 -305 304 -590 511 -971 704 -674 342 -1415 490 -2260 449z m646 -263
c886 -69 1655 -378 2284 -916 126 -107 335 -324 439 -454 221 -277 402 -614
494 -920 72 -237 68 -175 64 -1100 -3 -830 -3 -835 -25 -908 -27 -88 -37 -105
-75 -127 -28 -17 -30 -17 -56 2 -52 39 -112 146 -372 658 -278 550 -295 577
-387 624 -61 31 -109 39 -322 51 -749 41 -1323 159 -1736 356 -160 76 -246
104 -291 93 -61 -13 -63 -26 -13 -71 251 -227 775 -401 1465 -487 225 -29 479
-49 696 -57 l186 -7 27 -56 c151 -310 608 -1195 641 -1240 156 -211 307 -95
410 314 16 61 31 113 35 118 5 6 107 -376 146 -548 9 -42 14 -138 14 -314 0
-228 -2 -261 -21 -325 -29 -99 -77 -232 -104 -286 -45 -90 -134 -206 -207
-270 -168 -148 -182 -176 -174 -339 l6 -116 -21 54 c-67 168 -230 196 -478 80
-154 -72 -242 -140 -466 -359 -288 -282 -431 -393 -630 -490 -150 -73 -234
-94 -385 -95 -155 0 -186 9 -414 119 -351 171 -594 251 -834 275 -69 7 -126 8
-172 1 -46 -7 -94 -7 -140 0 -223 32 -583 -68 -1015 -280 -214 -105 -250 -115
-405 -115 -144 1 -224 19 -362 83 -198 92 -359 215 -633 483 -110 108 -213
208 -230 222 -55 45 -176 119 -258 157 -246 115 -409 87 -476 -81 l-21 -54 6
120 c5 97 3 128 -10 158 -22 53 -82 121 -179 202 -125 104 -203 217 -255 370
-41 123 -44 156 -40 505 l3 335 57 165 c31 91 68 215 83 275 15 61 29 117 32
125 3 8 22 -33 43 -92 59 -165 124 -283 195 -355 71 -71 112 -85 164 -59 42
22 65 72 96 212 158 704 483 1325 925 1764 102 101 239 220 255 220 4 0 41
-29 84 -64 121 -100 361 -278 499 -369 442 -291 718 -372 854 -249 70 64 94
199 62 362 -6 33 0 28 122 -90 419 -408 737 -646 891 -667 38 -5 45 -2 74 26
l32 32 -5 92 c-4 75 -14 117 -52 232 -26 77 -75 196 -108 265 l-59 125 -20
-24 c-31 -38 -26 -157 11 -283 34 -114 41 -224 15 -234 -34 -13 -219 124 -498
369 -283 248 -339 276 -420 214 -39 -29 -89 -111 -105 -169 -15 -57 -67 -125
-100 -133 -40 -8 -155 17 -243 54 -173 72 -432 234 -718 451 -245 185 -303
205 -424 145 -134 -67 -385 -318 -566 -569 -245 -338 -454 -777 -577 -1210
-51 -179 -76 -243 -98 -252 -37 -14 -107 73 -122 151 -4 22 -13 54 -21 72 -8
20 -13 71 -13 129 0 56 -9 150 -23 223 -21 121 -22 149 -22 691 l0 565 32 135
c98 414 290 799 569 1141 88 108 302 318 419 412 572 459 1302 729 2163 801
193 17 634 20 808 6z m-3504 -6319 c108 -18 250 -88 378 -186 30 -23 107 -95
170 -160 468 -478 850 -682 1203 -644 112 13 184 37 377 129 259 123 423 184
624 233 84 20 116 22 406 22 l315 0 130 -33 c180 -47 319 -99 540 -204 214
-101 305 -133 419 -147 204 -24 443 45 676 196 151 99 242 175 440 368 107
105 218 209 245 231 162 132 333 203 464 195 l23 -1 -5 -192 c-5 -195 -12
-249 -61 -445 -55 -221 -161 -457 -310 -683 -139 -213 -164 -255 -274 -475
-193 -384 -394 -644 -637 -827 -218 -164 -392 -240 -735 -321 -58 -13 -154
-46 -214 -71 -175 -75 -298 -105 -561 -138 -135 -17 -775 -17 -910 0 -265 33
-385 63 -575 142 -78 33 -172 63 -268 85 -367 83 -631 231 -889 498 -165 171
-271 331 -433 652 -67 134 -149 278 -228 398 -196 298 -296 514 -357 768 -47
197 -59 288 -59 448 l-1 155 25 7 c14 4 25 7 25 8 0 0 25 -3 57 -8z M3890
5881 c-58 -12 -107 -40 -150 -88 -76 -82 -75 -76 -75 -463 0 -340 0 -346 23
-392 27 -54 98 -123 150 -145 49 -21 156 -20 205 1 61 25 110 70 143 128 l29
53 0 355 0 355 -29 53 c-60 107 -182 166 -296 143z M6648 5876 c-94 -26 -174
-105 -199 -199 -6 -23 -9 -165 -7 -370 l3 -332 29 -53 c33 -58 82 -103 143
-128 49 -21 156 -22 205 -1 52 22 123 91 150 145 23 46 23 52 23 392 0 340 0
346 -23 392 -26 53 -98 123 -145 143 -51 21 -127 26 -179 11z M4983 4211 c-49
-13 -117 -57 -147 -96 -42 -55 -59 -104 -59 -175 0 -82 28 -143 89 -200 83
-76 76 -75 464 -75 388 0 381 -1 464 75 61 57 89 118 89 200 0 108 -50 193
-145 246 l-53 29 -335 2 c-184 1 -349 -2 -367 -6z m643 -246 c21 -28 13 -48
-26 -68 -31 -16 -61 -17 -285 -15 -220 3 -254 5 -278 21 -28 18 -36 50 -14 64
25 16 119 21 351 19 223 -2 239 -3 252 -21z M4940 2849 c-136 -7 -264 -17
-420 -35 -68 -8 -214 -42 -262 -61 -97 -38 -171 -104 -224 -199 -31 -56 -36
-72 -32 -112 7 -67 54 -157 121 -229 73 -78 206 -146 386 -198 275 -79 560
-111 911 -102 323 8 543 42 788 122 235 78 331 146 402 287 51 103 53 150 9
234 -91 173 -225 232 -624 273 -270 29 -721 37 -1055 20z m760 -159 c320 -17
503 -42 656 -91 148 -47 213 -110 184 -179 -51 -123 -355 -242 -780 -306 -144
-21 -554 -30 -717 -15 -486 46 -893 192 -929 335 -8 33 19 81 64 110 43 29
161 70 259 90 262 55 813 79 1263 56z"/>
</g>
</svg>
