<?xml version="1.0" standalone="no"?>
<!DOCTYPE svg PUBLIC "-//W3C//DTD SVG 20010904//EN"
 "http://www.w3.org/TR/2001/REC-SVG-20010904/DTD/svg10.dtd">
<svg version="1.0" xmlns="http://www.w3.org/2000/svg"
 width="2048.000000pt" height="2048.000000pt" viewBox="0 0 2048.000000 2048.000000"
 preserveAspectRatio="xMidYMid meet">
<metadata>
Created by potrace 1.13, written by Peter Selinger 2001-2015
</metadata>
<g transform="translate(0.000000,2048.000000) scale(0.192120,-0.192120)"
fill="#000000" stroke="none">
<path d="M5080 8925 c-446 -55 -886 -238 -1275 -529 -142 -107 -400 -360 -505
-496 -365 -474 -583 -1033 -665 -1710 -22 -183 -31 -634 -16 -826 17 -212 53
-472 116 -829 73 -417 95 -597 96 -780 0 -165 -9 -244 -47 -382 -64 -238 -70
-457 -19 -703 5 -23 -2 -28 -102 -75 -206 -96 -399 -233 -554 -392 -188 -194
-289 -368 -355 -614 l-28 -104 -4 -578 -3 -577 3611 0 3611 0 -3 577 -4 578
-28 104 c-71 264 -191 459 -410 668 -59 56 -158 136 -220 178 l-114 77 14 51
c44 168 44 612 0 1092 -86 929 -103 1186 -121 1885 -17 633 -36 821 -116 1150
-220 904 -761 1606 -1524 1980 -237 116 -413 177 -650 225 -229 46 -470 56
-685 30z m370 -215 c465 -33 889 -198 1289 -498 126 -95 458 -416 533 -517
193 -259 363 -628 462 -1005 84 -320 126 -728 126 -1245 0 -338 35 -911 92
-1500 29 -298 31 -358 37 -880 l6 -560 37 -60 c21 -33 55 -80 77 -104 22 -24
41 -46 43 -50 2 -4 55 -51 118 -105 238 -203 347 -354 420 -584 l30 -92 0
-445 c0 -438 0 -445 -20 -445 -15 0 -20 -7 -20 -25 l0 -25 -942 0 c-519 0
-1217 -6 -1553 -12 -773 -16 -1166 -16 -1835 -1 -294 7 -952 13 -1462 13
l-928 0 0 484 c0 554 -2 539 92 716 113 211 256 361 495 520 62 41 113 78 113
82 0 4 15 28 34 52 19 25 46 70 61 101 l26 57 53 -129 c119 -294 279 -528 540
-789 450 -449 1086 -825 1541 -910 137 -26 496 -26 633 -1 389 73 733 220
1127 482 191 128 328 234 490 382 l111 100 92 7 c116 9 227 37 302 77 106 56
207 183 255 320 l13 36 -56 -33 c-134 -81 -274 -114 -522 -121 -280 -8 -359
11 -725 177 -378 172 -544 211 -970 229 -470 21 -833 116 -1280 336 -635 313
-1135 800 -1423 1384 -64 131 -75 159 -71 195 2 22 4 140 4 261 0 181 -5 260
-28 447 -28 226 -28 227 -24 715 4 476 5 492 31 633 89 487 241 880 476 1231
113 168 179 247 331 393 433 417 968 666 1516 705 59 5 110 9 113 9 3 1 66 -3
140 -8z m-2341 -5119 c10 -6 51 -52 92 -103 168 -210 440 -466 671 -629 318
-226 691 -404 1071 -513 260 -75 424 -102 710 -116 441 -22 573 -53 962 -227
189 -84 354 -145 430 -158 89 -16 86 -45 -13 -143 -92 -90 -242 -209 -397
-314 -613 -415 -1212 -573 -1753 -462 -434 89 -1108 506 -1488 920 -151 165
-233 275 -341 458 -86 146 -84 125 -74 576 l8 395 37 149 c33 133 48 176 63
176 2 0 12 -4 22 -9z M5097 7820 c-739 -78 -1310 -499 -1678 -1240 -113 -228
-199 -465 -264 -732 -19 -77 -37 -164 -41 -192 l-6 -51 30 46 c85 132 226 309
347 440 408 436 866 723 1345 844 292 74 612 80 920 19 315 -63 680 -232 963
-446 299 -225 616 -560 798 -841 50 -77 50 -61 3 142 -125 539 -353 1006 -661
1355 -254 289 -594 500 -962 597 -212 55 -570 82 -794 59z m608 -249 c539
-101 937 -373 1247 -853 65 -101 98 -174 98 -219 0 -32 -3 -40 -14 -36 -8 3
-75 53 -148 110 -381 299 -738 474 -1125 551 -380 77 -755 54 -1126 -68 -328
-108 -567 -246 -951 -546 -65 -51 -92 -67 -98 -58 -27 43 82 242 248 453 68
88 226 246 317 318 222 177 517 302 827 352 147 23 151 23 390 20 175 -2 250
-8 335 -24z M4335 6061 c-69 -17 -125 -62 -161 -131 -17 -30 -19 -59 -19 -215
0 -196 4 -214 64 -278 110 -119 309 -89 377 56 22 49 24 63 24 223 0 162 -1
172 -25 221 -49 98 -157 149 -260 124z M6215 6061 c-70 -18 -125 -63 -161
-131 -17 -30 -19 -59 -19 -215 0 -156 2 -185 19 -215 48 -90 119 -134 217
-135 56 0 73 4 115 30 30 19 60 49 79 79 30 49 30 49 33 224 4 198 -4 234 -62
294 -58 60 -149 88 -221 69z M3165 5641 c-10 -31 13 -288 41 -461 103 -640
371 -1201 771 -1611 195 -200 364 -324 588 -434 356 -174 733 -223 1117 -144
365 74 755 301 1032 602 436 472 700 1093 773 1813 17 174 13 264 -13 243 -30
-24 -72 -116 -79 -169 -3 -30 -13 -80 -20 -110 -7 -30 -28 -136 -45 -235 -47
-267 -77 -391 -114 -480 -19 -44 -63 -151 -99 -237 -96 -233 -209 -430 -323
-564 -63 -74 -277 -283 -359 -350 -370 -301 -806 -444 -1241 -405 -222 20
-419 75 -608 170 -556 280 -965 810 -1181 1530 -54 180 -77 293 -111 537 -27
200 -43 250 -94 299 -27 26 -28 26 -35 6z M5021 4884 c-61 -51 -64 -153 -5
-211 l32 -33 279 0 c305 0 307 0 338 60 32 61 13 159 -37 194 -19 14 -65 16
-299 16 l-277 0 -31 -26z M4664 4341 c-79 -36 -125 -132 -103 -213 16 -63 49
-100 142 -162 135 -90 255 -134 433 -161 285 -43 572 16 791 161 107 71 143
122 143 203 0 111 -75 186 -187 186 -53 0 -67 -4 -105 -32 -79 -58 -162 -101
-238 -123 -103 -30 -270 -37 -375 -17 -132 25 -179 46 -314 141 -55 38 -128
45 -187 17z m204 -236 c41 -25 44 -49 5 -34 -30 11 -63 37 -63 50 0 11 22 5
58 -16z m923 -13 c-6 -2 -13 -3 -16 -2 -3 0 -13 -7 -22 -16 -13 -13 -18 -14
-22 -3 -2 7 1 15 8 17 6 2 17 10 25 17 7 8 16 11 20 8 3 -4 7 0 7 8 1 8 4 5 6
-6 3 -10 0 -21 -6 -23z m26 16 c-3 -8 -6 -5 -6 6 -1 11 2 17 5 13 3 -3 4 -12
1 -19z m-900 -50 c-3 -8 -6 -5 -6 6 -1 11 2 17 5 13 3 -3 4 -12 1 -19z m800 0
c-3 -8 -6 -5 -6 6 -1 11 2 17 5 13 3 -3 4 -12 1 -19z m-780 -10 c-3 -8 -6 -5
-6 6 -1 11 2 17 5 13 3 -3 4 -12 1 -19z"/>
</g>
</svg>
