<?xml version="1.0" standalone="no"?>
<!DOCTYPE svg PUBLIC "-//W3C//DTD SVG 20010904//EN"
 "http://www.w3.org/TR/2001/REC-SVG-20010904/DTD/svg10.dtd">
<svg version="1.0" xmlns="http://www.w3.org/2000/svg"
 width="2048.000000pt" height="2048.000000pt" viewBox="0 0 2048.000000 2048.000000"
 preserveAspectRatio="xMidYMid meet">
<metadata>
Created by potrace 1.13, written by Peter Selinger 2001-2015
</metadata>
<g transform="translate(0.000000,2048.000000) scale(0.192120,-0.192120)"
fill="#000000" stroke="none">
<path d="M1320 10324 c-273 -42 -463 -131 -640 -301 -184 -175 -292 -378 -335
-627 -13 -78 -15 -441 -15 -3051 l0 -2962 82 -5 c48 -3 113 -16 155 -30 l73
-24 20 60 c80 240 275 430 527 517 94 32 104 33 248 33 175 1 231 -11 370 -79
144 -70 266 -184 354 -329 43 -72 89 -207 97 -285 4 -34 10 -63 13 -65 3 -2
35 18 71 45 144 108 304 162 485 162 61 1 137 -5 170 -12 307 -66 552 -294
640 -597 21 -73 25 -107 25 -218 0 -151 -18 -232 -75 -346 l-35 -69 29 -15
c42 -22 136 -111 186 -176 109 -142 166 -297 169 -458 1 -98 2 -103 21 -97 11
3 47 13 80 23 45 13 95 17 200 16 129 -1 148 -3 235 -32 293 -97 505 -335 566
-632 22 -109 15 -276 -15 -370 -11 -36 -21 -66 -21 -67 0 -2 147 -3 328 -3
l327 0 42 88 c23 48 69 121 102 162 53 66 58 75 40 78 -29 5 -71 -15 -90 -41
-9 -12 -31 -59 -50 -105 -18 -46 -46 -97 -61 -115 l-27 -32 -1 1236 c0 1271
-2 1350 -41 1544 -36 179 -118 393 -186 483 l-24 32 123 1 123 1 -53 25 c-70
33 -134 35 -163 6 l-22 -22 -76 81 c-42 45 -98 99 -124 120 -27 21 -45 38 -40
38 4 0 44 -7 88 -16 71 -14 85 -14 122 -1 42 14 44 14 89 -14 197 -125 356
-402 423 -734 40 -197 43 -313 39 -1417 l-3 -1056 25 20 c148 116 328 187 471
188 l55 0 11 92 c31 258 160 466 381 614 2 1 -10 29 -27 62 -147 291 -89 662
143 919 l56 61 0 656 0 656 -1671 0 -1671 0 2 -168 c4 -233 -2 -1032 -7 -1002
-15 91 -39 195 -60 259 -27 83 -85 204 -113 236 -9 11 -20 27 -23 36 -3 9 -37
40 -76 69 -39 29 -71 58 -71 64 0 6 -18 21 -40 34 l-40 23 0 276 c0 182 -4
289 -12 315 -14 46 -67 97 -79 76 -21 -37 -29 -157 -30 -427 0 -163 -4 -304
-7 -314 -6 -15 -15 -10 -62 33 -30 27 -60 50 -66 50 -7 0 -19 14 -28 30 -13
27 -13 33 0 60 9 17 22 30 29 30 8 0 19 9 25 20 11 20 8 20 -378 20 -214 0
-410 3 -435 6 -45 6 -46 8 -64 58 -46 131 -261 266 -508 317 -82 17 -284 15
-370 -4 -253 -56 -450 -180 -490 -309 -18 -55 -18 -56 -63 -62 -57 -8 -196 -8
-243 0 -36 6 -36 7 -23 33 8 14 14 34 14 44 0 9 5 17 10 17 7 0 10 157 10 450
0 293 -3 450 -10 450 -5 0 -10 10 -10 23 0 12 -7 35 -15 51 -9 16 -13 32 -9
35 3 3 447 8 987 11 l982 5 -58 27 -58 28 -778 0 c-557 0 -780 3 -783 11 -2 6
-43 16 -91 22 l-87 10 0 38 c0 29 -5 39 -20 44 -19 6 -20 15 -20 346 0 191 -4
339 -9 339 -5 0 -12 16 -15 35 -4 19 -11 35 -15 35 -5 0 -25 25 -46 56 -43 66
-43 65 58 90 83 20 270 15 362 -10 82 -23 196 -78 270 -130 65 -47 162 -146
192 -196 20 -35 17 -35 128 14 107 47 241 70 358 62 419 -31 752 -364 774
-775 l6 -107 46 -19 c94 -38 168 -90 257 -179 99 -99 157 -188 195 -298 13
-38 28 -68 34 -68 34 2 58 31 82 101 34 102 72 164 150 249 110 119 248 199
420 243 85 21 104 22 561 22 l472 0 0 95 -1 95 -87 28 c-48 16 -141 55 -207
86 -543 259 -941 749 -1056 1302 -30 146 -40 360 -37 784 l3 389 50 18 c365
131 700 424 923 805 34 60 79 147 99 196 20 48 39 87 42 87 3 0 21 -26 40 -56
78 -130 221 -276 403 -414 519 -393 1282 -615 2178 -633 l155 -4 -1 -489 c0
-416 -3 -505 -18 -596 -83 -512 -378 -954 -841 -1261 -114 -76 -320 -177 -435
-213 l-90 -29 0 -95 0 -95 472 0 c457 0 476 -1 561 -22 162 -42 319 -130 406
-229 l40 -46 58 90 c32 50 65 104 74 120 25 45 123 74 267 81 l114 6 23 58
c76 186 259 361 458 436 26 10 27 12 27 93 0 275 168 551 423 697 29 16 95 44
147 62 83 29 111 33 226 37 152 5 247 -14 371 -72 l71 -34 25 36 c91 136 244
251 406 307 70 23 237 52 247 42 3 -2 -16 -47 -42 -98 l-47 -94 -4 -126 c-4
-113 -3 -131 17 -173 12 -27 18 -51 15 -54 -4 -4 -317 -9 -697 -12 l-690 -5
34 -25 33 -25 360 -1 c198 -1 464 -5 592 -10 213 -6 232 -9 236 -26 3 -10 12
-18 21 -18 14 0 16 -41 16 -404 0 -395 0 -404 -20 -409 -16 -4 -20 -14 -20
-46 l0 -41 -97 -1 c-54 0 -120 -5 -148 -11 -32 -7 -329 -13 -830 -17 -775 -6
-781 -6 -860 -29 -44 -13 -82 -25 -84 -28 -2 -2 461 -4 1030 -5 569 0 1055 -4
1081 -7 l48 -7 -18 -30 c-15 -27 -17 -72 -17 -520 0 -457 1 -492 18 -517 l18
-26 -53 -7 c-29 -4 -375 -5 -768 -3 l-715 3 -60 37 c-78 48 -157 68 -270 68
-111 0 -191 -20 -269 -66 l-60 -35 -197 -6 -197 -6 34 -36 c18 -20 34 -42 34
-50 0 -7 -20 -50 -44 -95 -48 -90 -101 -221 -111 -279 -4 -21 -10 -35 -14 -32
-3 4 -9 217 -12 473 -5 445 -7 471 -28 547 -24 83 -84 209 -126 260 l-24 29
-12 -29 c-17 -41 -14 -99 9 -191 24 -91 39 -174 48 -259 3 -33 10 -65 16 -72
6 -7 8 -155 6 -390 -4 -356 -5 -382 -26 -443 -22 -68 -66 -121 -112 -135 -14
-4 -33 -16 -43 -26 -10 -11 -22 -19 -28 -19 -25 0 -189 -209 -189 -241 0 -5
25 7 56 27 110 70 249 118 381 130 l71 7 6 71 c33 344 269 629 601 727 91 27
260 36 362 19 268 -43 494 -210 610 -450 20 -41 37 -76 38 -77 1 -2 24 18 51
43 157 144 342 216 559 216 189 0 345 -52 490 -163 l65 -50 -3 3108 c-3 2858
-4 3113 -19 3173 -58 223 -142 381 -285 530 -160 169 -333 267 -572 328 -61
15 -367 16 -4086 18 -2211 1 -4031 0 -4045 -2z m3333 -270 c70 -12 39 -50
-119 -142 -92 -53 -126 -60 -334 -66 -154 -4 -190 -8 -297 -36 -211 -54 -362
-127 -534 -260 -146 -112 -178 -130 -251 -140 -73 -11 -2440 -12 -2478 -1 -22
6 -25 13 -28 61 -3 45 2 65 32 124 73 148 205 275 371 357 119 59 224 87 360
98 117 10 3222 14 3278 5z m4602 -4 c274 -19 461 -103 630 -281 41 -43 86
-104 108 -145 33 -63 37 -80 37 -142 l0 -71 -42 -6 c-24 -3 -592 -5 -1263 -3
-1018 3 -1224 5 -1245 17 -14 8 -90 77 -170 155 -137 133 -284 254 -393 321
-88 55 -172 120 -172 135 0 8 11 17 25 21 38 11 2336 10 2485 -1z m-3180 -25
c383 -60 731 -212 1004 -440 103 -85 236 -225 293 -306 l42 -59 1412 0 c850 0
1415 -4 1419 -9 3 -5 -8 -36 -25 -67 -16 -32 -30 -64 -30 -70 0 -7 -6 -14 -12
-16 -16 -6 -19 -784 -3 -796 6 -4 27 -40 48 -80 l37 -72 -1226 0 -1226 0 7
-27 c4 -16 10 -265 12 -555 l5 -528 1176 -1 c647 0 1194 -3 1215 -7 l38 -7
-25 -33 c-13 -18 -30 -47 -36 -63 -7 -16 -16 -29 -21 -29 -4 0 -11 -16 -15
-35 -3 -19 -10 -35 -15 -35 -5 0 -9 -27 -9 -60 0 -33 -4 -60 -10 -60 -5 0 -10
-14 -10 -31 0 -22 -5 -32 -20 -36 -11 -3 -20 -13 -20 -22 0 -12 -16 -22 -52
-34 -82 -26 -201 -91 -284 -154 -145 -111 -152 -115 -219 -110 -33 3 -107 12
-165 22 -182 29 -368 3 -537 -75 -186 -86 -272 -179 -273 -291 l0 -47 -235 -7
c-129 -4 -290 -4 -358 0 l-124 7 -7 -113 c-18 -298 -104 -643 -219 -877 l-43
-87 -69 -5 c-42 -3 -89 -15 -117 -28 -26 -12 -60 -22 -77 -22 -16 0 -82 21
-146 46 -194 75 -240 84 -505 95 -266 10 -310 15 -334 32 -23 17 -13 37 32 67
20 14 39 27 42 30 3 3 57 40 120 82 208 138 418 345 562 553 127 183 238 439
288 663 20 90 20 118 18 651 -2 435 -6 560 -16 571 -104 120 -118 125 -373
140 -472 27 -838 92 -1198 212 -176 59 -291 114 -511 246 -236 141 -329 212
-500 380 -216 214 -253 235 -333 189 -62 -37 -114 -97 -185 -217 -67 -113
-258 -376 -326 -450 -98 -107 -236 -207 -416 -303 -116 -62 -192 -123 -211
-171 -7 -17 -18 -34 -23 -38 -16 -10 -21 -1081 -6 -1168 27 -159 97 -347 181
-485 164 -269 220 -346 359 -489 124 -128 241 -224 403 -331 65 -42 124 -87
132 -99 14 -19 14 -22 -1 -33 -24 -18 -71 -22 -339 -32 -189 -7 -257 -14 -318
-30 -119 -31 -267 -94 -355 -150 -86 -56 -118 -62 -177 -34 -19 9 -38 14 -41
10 -3 -3 17 -50 46 -103 55 -102 55 -106 2 -120 -38 -10 -66 3 -143 71 -78 69
-138 102 -306 167 -57 22 -105 44 -108 49 -4 5 84 9 224 9 127 0 231 4 231 9
0 4 -15 41 -34 82 -118 258 -206 665 -206 959 l0 65 -980 0 -979 1 -38 40
c-46 50 -88 72 -148 81 -35 4 -45 10 -45 24 0 15 -8 19 -40 19 l-40 0 0 40 c0
29 -4 40 -15 40 -13 0 -15 43 -15 330 0 213 -4 330 -10 330 -5 0 -10 7 -10 15
0 9 -5 21 -10 28 -6 7 -30 44 -55 82 l-44 70 37 7 c20 4 567 7 1215 7 l1177 1
0 555 0 555 -1215 0 -1215 0 30 53 c17 28 39 68 48 87 9 19 20 37 25 38 11 6
9 720 -3 727 -5 3 -10 14 -10 23 0 10 -18 48 -40 86 -23 38 -38 76 -36 83 4
11 255 13 1413 13 l1408 0 85 84 c193 191 432 317 684 361 101 17 281 20 372
5 l62 -10 88 56 c118 74 304 164 433 208 177 62 275 84 526 120 75 11 485 -2
590 -19z m-3435 -2485 l0 -360 -1030 0 -1030 0 0 360 0 360 1030 0 1030 0 0
-360z m7420 0 l0 -360 -1030 0 -1030 0 0 360 0 360 1030 0 1030 0 0 -360z
m-7377 -1892 c21 -122 28 -215 25 -372 l-3 -179 -49 94 c-79 151 -147 247
-272 379 -97 104 -89 110 127 110 l167 0 5 -32z m5527 -19 c0 -61 -26 -155
-51 -188 -11 -13 -19 -29 -19 -36 0 -7 -30 -35 -67 -63 -38 -27 -84 -66 -102
-86 -19 -20 -39 -36 -43 -36 -4 0 -8 44 -8 98 0 91 15 203 41 315 l11 47 119
0 119 0 0 -51z m-2888 -2021 c-38 -73 -35 -131 16 -302 l42 -139 0 -1299 0
-1299 -47 3 c-39 2 -49 7 -51 23 -2 11 -10 27 -17 35 -7 8 -16 38 -19 65 -25
183 -114 405 -217 540 -199 262 -460 408 -758 422 -141 7 -136 3 -231 198 -37
77 -91 171 -120 208 -37 49 -54 83 -62 120 -6 29 -14 212 -18 407 -5 195 -13
391 -18 435 -6 44 -11 164 -11 268 -1 117 -5 187 -11 187 -5 0 -10 6 -10 14 0
8 -18 46 -40 85 -22 39 -40 73 -40 76 0 3 369 5 820 5 l819 0 -27 -52z m1577
15 c-12 -21 -29 -51 -38 -68 -9 -16 -19 -31 -23 -33 -5 -2 -8 -12 -8 -23 0
-10 -7 -19 -15 -19 -13 0 -15 -44 -15 -337 0 -320 -1 -339 -20 -363 -11 -14
-20 -39 -20 -56 0 -22 -19 -60 -59 -120 -63 -96 -118 -206 -154 -306 -21 -60
-22 -78 -22 -373 l0 -310 -68 -85 c-47 -59 -91 -131 -143 -235 -52 -105 -85
-160 -111 -183 -47 -42 -70 -42 -81 1 -4 17 -12 30 -17 29 -4 -2 -12 2 -16 10
-5 7 -9 405 -9 884 0 939 -2 982 -55 1201 -36 151 -71 220 -152 301 -37 38
-84 81 -103 95 l-35 27 593 0 594 0 -23 -37z m-4316 -40 c60 -5 67 -8 67 -28
0 -18 -14 -27 -82 -53 -106 -41 -178 -44 -198 -8 -16 32 -6 70 22 84 27 12 95
15 191 5z m6817 -43 c0 -5 7 -10 16 -10 15 0 6 -9 -80 -75 -11 -8 -39 -22 -63
-31 -57 -22 -95 -7 -134 54 -43 69 -38 72 122 72 86 0 139 -4 139 -10z m-5741
-1302 c-1 -94 -3 -116 -10 -93 -9 27 -3 215 7 215 2 0 4 -55 3 -122z M7513
9005 c4 -41 20 -94 50 -165 58 -137 100 -260 132 -390 36 -148 53 -195 75
-215 19 -17 20 -17 20 3 0 66 -67 339 -118 482 -28 79 -105 247 -137 300 l-27
45 5 -60z M3088 9013 c-88 -133 -181 -368 -217 -548 -22 -107 -37 -235 -29
-235 17 0 41 64 68 181 40 177 69 264 147 442 40 91 63 157 61 174 -3 27 -3
27 -30 -14z M7800 6428 c0 -358 2 -419 14 -409 19 16 18 818 -1 826 -10 3 -13
-82 -13 -417z M2830 6436 c0 -259 4 -407 10 -411 7 -4 10 133 10 404 0 267 -3
411 -10 411 -7 0 -10 -141 -10 -404z M4480 6988 c-84 -24 -143 -103 -143 -193
0 -172 201 -265 330 -152 95 84 95 220 0 304 -55 48 -116 62 -187 41z M6056
6985 c-76 -27 -136 -110 -136 -190 0 -116 119 -220 229 -200 107 20 174 97
174 200 0 92 -59 170 -148 194 -51 14 -71 13 -119 -4z M5055 6403 c19 -103 90
-196 171 -224 21 -7 68 -13 104 -13 36 0 83 6 104 13 81 28 152 121 171 224
l7 37 -282 0 -282 0 7 -37z M4500 5879 c0 -22 72 -118 133 -176 150 -144 344
-224 588 -242 338 -24 608 55 799 236 65 61 140 159 140 182 0 8 -242 11 -830
11 -588 0 -830 -3 -830 -11z M4860 4917 c14 -15 31 -27 38 -27 6 0 12 -6 12
-13 0 -37 208 -61 477 -54 114 3 215 7 223 9 8 3 36 8 63 13 26 4 51 12 55 19
4 6 26 24 50 39 23 15 42 29 42 30 0 2 -55 -8 -122 -21 -108 -22 -152 -25
-358 -26 -204 0 -251 2 -351 22 -64 12 -125 25 -135 29 -15 5 -14 1 6 -20z
M4922 4789 c-13 -5 -27 -7 -32 -4 -4 3 -23 -1 -41 -9 l-33 -14 39 -17 c132
-56 428 -103 573 -90 151 14 348 63 398 99 17 13 16 15 -19 21 -20 4 -46 5
-57 2 -10 -3 -20 -1 -22 4 -2 5 -20 4 -41 -2 -22 -6 -45 -8 -52 -5 -8 3 -15 1
-17 -4 -7 -19 -293 -34 -393 -20 -44 6 -97 11 -117 10 -20 0 -40 4 -43 10 -4
6 -16 8 -26 5 -11 -4 -26 -1 -34 5 -8 7 -21 10 -29 7 -7 -3 -17 -2 -22 3 -5 4
-20 4 -32 -1z M333 2280 l2 -1025 28 -100 c106 -386 406 -686 795 -793 l97
-27 1845 -2 c1742 -2 1844 -1 1822 15 -13 9 -51 34 -85 55 l-61 37 -472 0
c-399 0 -474 2 -481 14 -4 8 -26 16 -48 18 -39 3 -40 4 -43 45 -3 34 -7 42
-25 45 l-22 3 -5 415 -5 415 -3 -431 c-1 -237 -5 -471 -8 -521 l-7 -90 -39 10
c-29 7 -36 13 -28 22 18 22 -37 33 -190 38 -88 4 -162 11 -188 20 l-42 15 26
-30 c13 -17 23 -32 21 -34 -2 -2 -41 1 -88 6 -49 6 -448 10 -954 10 -519 0
-890 3 -920 9 -134 26 -292 96 -420 186 -74 53 -198 181 -255 265 -92 135
-179 386 -180 518 0 28 -4 52 -10 52 -7 0 -10 192 -10 555 0 363 3 555 10 555
6 0 10 111 10 314 0 199 -4 317 -10 321 -5 3 -10 17 -10 31 0 13 -4 24 -8 24
-5 0 -16 15 -25 33 -15 30 -16 -39 -14 -993z M10292 3088 l-32 -63 0 -237 c0
-152 4 -238 10 -238 7 0 10 -192 10 -555 0 -363 -3 -555 -10 -555 -5 0 -10
-19 -10 -42 0 -103 -50 -296 -107 -409 -142 -287 -371 -469 -703 -560 -33 -9
-290 -14 -990 -20 -520 -4 -965 -10 -989 -14 l-44 -7 21 23 c12 12 21 24 19
25 -2 2 -32 -1 -67 -6 -36 -5 -93 -10 -127 -10 -35 0 -82 -4 -105 -10 -24 -5
-56 -12 -73 -16 -27 -5 -28 -7 -13 -18 15 -11 12 -14 -30 -24 -26 -6 -49 -8
-51 -6 -2 2 -7 273 -9 602 -3 349 -9 582 -14 562 -4 -19 -13 -55 -19 -80 -7
-28 -14 -199 -18 -442 -4 -297 -9 -400 -18 -410 -7 -6 -13 -20 -13 -30 0 -10
-7 -18 -15 -18 -8 0 -15 -9 -15 -19 0 -10 -7 -22 -16 -25 -9 -3 -142 -6 -297
-6 -155 0 -346 -5 -423 -10 -113 -8 -152 -7 -195 4 -30 8 -54 14 -55 13 -1 -1
-4 -37 -8 -80 l-7 -77 1763 2 1763 3 97 27 c390 107 689 406 795 793 l28 100
3 790 c1 435 1 861 0 948 l-3 157 -33 -62z M6984 1980 c0 -140 2 -198 3 -127
2 70 2 184 0 255 -1 70 -3 12 -3 -128z"/>
</g>
</svg>
