<?xml version="1.0" standalone="no"?>
<!DOCTYPE svg PUBLIC "-//W3C//DTD SVG 20010904//EN"
 "http://www.w3.org/TR/2001/REC-SVG-20010904/DTD/svg10.dtd">
<svg version="1.0" xmlns="http://www.w3.org/2000/svg"
 width="2048.000000pt" height="2048.000000pt" viewBox="0 0 2048.000000 2048.000000"
 preserveAspectRatio="xMidYMid meet">
<metadata>
Created by potrace 1.13, written by Peter Selinger 2001-2015
</metadata>
<g transform="translate(0.000000,2048.000000) scale(0.192120,-0.192120)"
fill="#000000" stroke="none">
<path d="M4952 8929 c-1412 -96 -2498 -743 -3031 -1808 -144 -286 -249 -652
-282 -976 -27 -272 2 -821 61 -1155 64 -356 183 -698 296 -846 36 -46 38 -55
51 -164 69 -606 257 -1186 532 -1639 457 -752 1167 -1233 2061 -1395 250 -45
335 -51 715 -51 376 0 489 9 765 56 1304 224 2138 1074 2418 2465 32 155 66
377 77 502 7 71 7 72 36 72 133 0 271 402 334 975 40 371 58 924 36 1135 -56
546 -323 1121 -734 1581 -658 737 -1579 1172 -2642 1249 -161 11 -513 11 -693
-1z m822 -324 c856 -90 1601 -421 2165 -961 332 -318 571 -683 702 -1075 81
-240 79 -217 79 -917 0 -574 -2 -634 -21 -770 -37 -269 -76 -426 -110 -447
-27 -17 -78 68 -275 454 l-208 406 -81 81 c-113 113 -133 119 -422 139 -551
37 -922 94 -1248 190 -152 45 -244 81 -429 165 -196 89 -239 96 -308 51 -30
-19 -62 -52 -84 -87 l-37 -57 8 -154 c5 -126 4 -153 -7 -153 -18 0 -152 106
-298 235 -239 210 -297 251 -371 261 -38 5 -50 1 -89 -25 -64 -42 -103 -87
-140 -159 -41 -79 -81 -122 -113 -122 -124 0 -432 173 -814 457 -184 137 -252
175 -329 181 -46 4 -64 0 -117 -27 -93 -46 -182 -118 -308 -249 -318 -329
-527 -664 -733 -1171 -73 -179 -93 -208 -121 -180 -37 37 -88 238 -125 494
-18 125 -20 191 -20 621 0 283 4 505 10 540 59 341 195 677 388 959 106 155
178 242 317 381 333 335 750 584 1252 748 368 120 719 181 1208 210 124 8 536
-4 679 -19z m-2221 -2657 c456 -353 786 -530 992 -532 91 0 124 13 173 68 51
58 66 151 49 296 l-8 65 128 -126 c389 -382 721 -628 850 -629 20 0 43 9 60
24 26 23 28 29 27 98 -1 117 -56 292 -168 531 l-46 99 38 -32 c181 -151 415
-261 742 -349 346 -92 868 -163 1321 -178 l186 -6 47 -96 c235 -476 556 -1093
592 -1136 l42 -52 -70 -34 c-39 -19 -79 -44 -89 -57 -22 -28 -43 -101 -59
-202 -20 -131 -50 -262 -86 -375 -19 -60 -46 -165 -59 -232 -28 -135 -96 -322
-190 -518 -82 -171 -124 -234 -305 -456 -453 -556 -1089 -862 -1960 -944 -223
-22 -741 -16 -919 9 -397 57 -698 148 -1014 308 -801 405 -1299 1145 -1502
2228 -35 190 -49 218 -136 278 -57 39 -65 48 -49 54 29 11 45 51 75 188 138
634 439 1216 845 1634 63 65 151 147 194 182 l80 64 30 -25 c17 -14 102 -80
189 -147z M4125 4758 c-42 -15 -102 -61 -131 -100 -47 -62 -56 -120 -52 -326
3 -174 5 -190 27 -232 32 -62 67 -97 126 -128 41 -22 63 -26 125 -27 115 0
197 51 247 153 28 57 28 58 28 262 0 230 -4 245 -73 322 -53 59 -121 88 -202
87 -36 0 -78 -5 -95 -11z m110 -404 c0 -124 -2 -139 -17 -142 -16 -3 -18 9
-18 136 0 76 3 142 7 146 22 21 28 -9 28 -140z M6325 4747 c-56 -27 -118 -90
-143 -146 -14 -30 -17 -72 -17 -241 0 -204 0 -205 28 -262 50 -102 132 -153
247 -153 114 0 195 49 248 150 27 50 27 52 27 260 0 193 -2 214 -21 256 -46
100 -127 151 -244 157 -63 2 -83 -1 -125 -21z m133 -395 l3 -143 -23 3 c-22 3
-23 6 -26 132 -3 143 0 159 25 154 16 -3 18 -19 21 -146z M4932 3909 c-34 -16
-73 -45 -88 -62 -119 -141 -74 -355 91 -433 50 -24 53 -24 395 -24 342 0 345
0 395 24 99 47 158 140 157 252 -1 111 -52 192 -154 243 l-61 31 -337 0 -337
0 -61 -31z m665 -180 c45 -8 66 -17 74 -31 14 -26 3 -71 -23 -94 -18 -17 -44
-19 -287 -22 -146 -2 -284 -1 -307 3 -54 8 -84 36 -84 80 0 39 16 51 83 65 63
12 471 12 544 -1z M4102 3077 c-51 -19 -95 -59 -127 -118 -26 -46 -30 -64 -30
-129 0 -65 4 -83 30 -129 35 -64 76 -96 209 -163 225 -113 457 -186 751 -235
89 -15 164 -18 400 -18 254 1 306 3 420 23 269 47 507 123 720 230 133 67 175
99 207 159 73 134 27 300 -102 366 -92 47 -127 40 -498 -98 -233 -86 -422
-123 -678 -132 -331 -11 -591 36 -922 168 -211 84 -304 103 -380 76z m178
-220 c30 -8 133 -41 228 -76 329 -117 491 -146 827 -146 313 1 504 33 770 130
272 99 344 117 384 95 27 -14 28 -59 1 -93 -57 -72 -379 -199 -627 -247 -321
-62 -750 -67 -1005 -11 -24 5 -61 12 -83 15 -112 17 -366 102 -495 167 -89 44
-118 65 -136 100 -35 69 16 94 136 66z"/>
</g>
</svg>
