<?xml version="1.0" standalone="no"?>
<!DOCTYPE svg PUBLIC "-//W3C//DTD SVG 20010904//EN"
 "http://www.w3.org/TR/2001/REC-SVG-20010904/DTD/svg10.dtd">
<svg version="1.0" xmlns="http://www.w3.org/2000/svg"
 width="2048.000000pt" height="2048.000000pt" viewBox="0 0 2048.000000 2048.000000"
 preserveAspectRatio="xMidYMid meet">
<metadata>
Created by potrace 1.13, written by Peter Selinger 2001-2015
</metadata>
<g transform="translate(0.000000,2048.000000) scale(0.192120,-0.192120)"
fill="#000000" stroke="none">
<path d="M4860 10319 c-244 -31 -506 -124 -695 -246 -54 -35 -64 -38 -100 -31
-69 12 -229 9 -316 -7 -470 -87 -828 -452 -904 -920 -21 -129 -21 -1892 0
-2065 28 -234 79 -409 180 -619 l65 -133 -48 -53 c-31 -35 -342 -552 -931
-1550 -486 -824 -893 -1518 -905 -1544 -32 -71 -30 -206 6 -283 100 -216 357
-269 515 -106 27 28 296 476 783 1303 409 693 756 1285 773 1315 17 30 32 57
33 58 1 2 34 -13 73 -33 47 -25 73 -45 76 -59 60 -263 246 -1059 279 -1196
l45 -185 -60 -260 c-32 -143 -63 -273 -67 -290 l-8 -30 -254 4 c-352 4 -482
-11 -627 -75 -171 -76 -322 -223 -410 -399 -96 -192 -133 -513 -88 -769 104
-597 533 -1075 1140 -1269 564 -180 1437 -279 2100 -237 643 41 1130 170 1700
450 110 54 268 138 350 188 l150 90 75 -20 c106 -28 321 -21 465 15 379 96
525 198 850 592 336 406 570 603 924 773 154 74 155 73 -9 98 -217 32 -470 1
-772 -95 -215 -69 -507 -204 -728 -337 -63 -38 -119 -71 -125 -73 -5 -2 23 31
63 73 223 236 335 545 358 991 6 127 -6 353 -27 500 -15 103 -16 105 -45 70
-60 -71 -109 -142 -233 -339 -255 -403 -369 -546 -676 -851 -231 -230 -285
-297 -350 -438 -33 -72 -77 -214 -89 -288 l-6 -35 -153 -37 c-430 -102 -777
-142 -1049 -119 -125 11 -338 39 -346 47 -1 1 35 40 81 86 97 97 153 187 199
320 l33 94 0 275 c0 261 -1 278 -23 342 -30 88 -107 195 -179 251 l-58 45 -76
327 -76 327 54 227 c42 179 209 895 263 1131 10 42 16 48 75 80 35 19 66 32
68 30 3 -3 154 -302 335 -666 312 -623 334 -664 382 -707 30 -27 72 -53 103
-63 59 -20 157 -22 202 -4 63 24 1219 697 1261 733 62 55 106 148 112 241 6
95 -15 166 -72 244 -79 107 -219 155 -336 115 -30 -10 -253 -133 -494 -273
-303 -175 -441 -250 -444 -240 -11 33 -636 1280 -662 1320 -16 26 -54 70 -85
99 l-56 53 66 131 c108 219 171 438 194 681 15 147 15 1603 0 1734 -15 139
-35 231 -79 363 -177 533 -614 943 -1155 1084 -189 49 -438 67 -615 44z m487
-318 c294 -62 529 -187 729 -385 145 -145 235 -286 308 -486 l31 -85 3 -1063
c3 -1157 5 -1110 -54 -1264 -34 -90 -72 -123 -128 -113 -23 4 -106 12 -186 19
-80 7 -151 16 -158 20 -21 13 -13 45 21 83 169 191 307 450 384 719 l28 99 3
423 c2 259 -1 422 -6 422 -6 0 -13 11 -16 24 -7 29 -64 90 -128 139 -56 42
-87 49 -328 77 -591 69 -1022 239 -1261 498 -30 32 -91 112 -137 179 -89 129
-163 208 -208 219 -33 8 -78 -14 -123 -60 -36 -37 -101 -154 -131 -234 -91
-243 -195 -393 -337 -488 -29 -19 -99 -56 -155 -83 -117 -55 -228 -147 -250
-206 -6 -19 -16 -35 -20 -35 -4 0 -8 -197 -8 -438 0 -429 0 -439 24 -532 59
-233 176 -460 343 -668 46 -57 83 -110 83 -117 0 -22 -60 -33 -244 -44 -111
-7 -175 -7 -187 -1 -28 16 -64 85 -96 185 l-28 90 0 1160 0 1160 39 77 c73
147 210 283 361 357 136 68 235 91 430 101 94 5 181 12 195 16 14 3 96 40 183
81 188 88 328 137 457 157 52 9 106 18 120 20 62 11 358 -4 447 -23z m-1113
-575 c10 -87 62 -217 127 -315 186 -282 533 -493 1004 -610 215 -54 543 -101
705 -101 41 0 80 -4 85 -8 7 -4 8 -140 4 -392 -7 -411 -9 -430 -66 -610 -35
-110 -116 -269 -190 -372 -119 -166 -313 -333 -490 -421 l-83 -41 0 -72 0 -73
413 2 c448 2 474 0 584 -57 88 -45 88 -45 59 -96 -20 -34 -26 -59 -26 -104 0
-58 8 -75 305 -670 167 -336 320 -638 340 -671 46 -77 154 -186 212 -215 98
-49 158 -26 593 225 331 191 382 216 447 217 70 2 76 -4 71 -70 -7 -83 21 -64
-638 -444 -441 -255 -468 -269 -542 -276 l-59 -5 -48 50 c-41 43 -90 133 -319
590 -256 509 -275 544 -337 610 -72 79 -142 128 -195 138 -23 4 -57 -1 -100
-14 -89 -28 -107 -27 -176 15 -122 74 -221 123 -299 150 -110 38 -273 40 -385
5 -98 -30 -202 -83 -323 -165 -54 -36 -109 -69 -124 -72 -31 -8 -73 11 -178
81 -348 232 -591 242 -934 36 -115 -69 -148 -76 -230 -47 -108 39 -188 9 -316
-120 -88 -90 -39 -9 -845 -1379 -584 -992 -662 -1119 -708 -1156 -29 -22 -90
-25 -116 -6 -16 11 -18 25 -14 93 l4 79 815 1380 c919 1555 882 1492 909 1570
27 79 25 112 -10 181 -33 66 -36 61 55 104 94 46 199 53 633 46 l372 -7 0 74
0 74 -52 24 c-29 13 -90 48 -137 77 -271 170 -476 432 -576 736 -56 170 -64
249 -67 655 l-3 363 72 19 c388 98 659 419 738 873 8 49 15 111 15 138 0 64
15 54 24 -16z m56 -3743 c134 -43 276 -132 400 -250 37 -34 72 -63 77 -63 5 0
27 18 48 41 57 58 177 148 270 202 226 130 407 134 640 14 82 -43 213 -135
254 -180 l23 -26 -41 -20 c-61 -32 -105 -82 -133 -152 -14 -35 -56 -192 -94
-349 -73 -310 -89 -437 -64 -526 11 -39 11 -47 -1 -55 -15 -9 -1770 -13 -1806
-3 -18 5 -20 10 -12 37 15 54 10 208 -10 303 -47 215 -114 491 -136 562 -30
94 -60 137 -125 178 l-49 31 32 30 c51 49 186 142 257 178 175 87 309 101 470
48z m1180 -1498 c0 -9 9 -15 24 -15 30 0 33 -17 40 -215 8 -220 57 -364 173
-507 l66 -81 -43 7 c-23 4 -431 6 -907 6 -475 0 -913 3 -972 6 l-109 7 63 58
c76 71 117 145 152 276 22 83 27 125 30 271 l5 172 24 0 c15 0 24 6 24 15 0
13 86 15 715 15 629 0 715 -2 715 -15z m147 -967 c59 -19 78 -31 144 -98 56
-57 86 -97 117 -159 l42 -83 0 -232 c0 -203 -2 -239 -20 -301 -12 -39 -25
-110 -31 -160 -5 -49 -12 -105 -15 -124 l-7 -34 -12 29 c-21 50 -48 63 -206
103 -329 84 -897 299 -1509 571 -307 137 -296 133 -336 120 -40 -14 -74 -60
-74 -103 0 -57 46 -87 340 -215 681 -297 1180 -485 1530 -577 153 -40 176 -42
209 -19 23 16 23 16 15 -7 -5 -13 -9 -61 -9 -106 0 -74 3 -85 30 -124 73 -102
198 -134 530 -133 290 0 564 35 859 110 133 34 178 57 259 133 78 74 139 171
172 275 57 181 98 241 315 456 183 183 306 321 450 504 l85 109 3 -102 c3
-123 -4 -148 -120 -396 -74 -159 -80 -175 -81 -240 -1 -60 3 -76 27 -113 63
-100 113 -134 196 -133 78 0 150 24 369 123 169 76 211 89 211 68 0 -21 -34
-76 -84 -136 -28 -34 -76 -93 -106 -130 -81 -100 -207 -230 -272 -280 -121
-94 -290 -165 -475 -200 -71 -13 -123 -15 -271 -11 -220 7 -242 2 -437 -103
-452 -244 -709 -354 -1046 -449 -261 -74 -522 -118 -839 -142 -231 -17 -802
-6 -1050 20 -442 48 -855 132 -1113 225 -439 159 -746 469 -861 870 -25 85
-26 98 -26 362 0 252 2 280 21 336 24 72 58 134 109 200 49 63 83 90 171 137
123 66 158 71 489 80 l295 8 80 32 c149 61 125 59 1032 60 829 1 833 1 900
-21z M4021 8093 c-101 -53 -106 -184 -9 -243 64 -39 146 -16 188 52 68 112
-63 252 -179 191z M5410 8093 c-106 -55 -105 -193 2 -249 90 -47 207 37 194
139 -11 97 -112 154 -196 110z M4500 7517 c0 -19 14 -62 31 -96 49 -99 125
-143 244 -143 113 0 190 42 238 130 15 27 30 71 33 96 l7 46 -277 0 -276 0 0
-33z M4220 6983 c0 -30 41 -102 76 -133 48 -42 122 -78 212 -102 105 -29 410
-32 517 -5 142 36 229 90 276 171 54 94 104 86 -526 86 -514 0 -555 -1 -555
-17z M4283 6491 c1 -20 -2 -43 -7 -53 -6 -13 4 -20 51 -38 225 -85 538 -103
770 -44 92 23 186 65 174 77 -6 6 -11 29 -11 50 0 36 -2 39 -22 33 -113 -32
-229 -57 -308 -67 -173 -21 -406 2 -586 59 l-62 19 1 -36z"/>
</g>
</svg>
