<?xml version="1.0" standalone="no"?>
<!DOCTYPE svg PUBLIC "-//W3C//DTD SVG 20010904//EN"
 "http://www.w3.org/TR/2001/REC-SVG-20010904/DTD/svg10.dtd">
<svg version="1.0" xmlns="http://www.w3.org/2000/svg"
 width="2048.000000pt" height="2048.000000pt" viewBox="0 0 2048.000000 2048.000000"
 preserveAspectRatio="xMidYMid meet">
<metadata>
Created by potrace 1.13, written by Peter Selinger 2001-2015
</metadata>
<g transform="translate(0.000000,2048.000000) scale(0.192120,-0.192120)"
fill="#000000" stroke="none">
<path d="M4860 10319 c-245 -31 -506 -124 -695 -246 -56 -36 -63 -38 -105 -30
-71 13 -284 1 -379 -23 -438 -108 -764 -461 -836 -905 -22 -133 -22 -1882 0
-2065 27 -234 89 -438 194 -648 l52 -103 -48 -53 c-32 -36 -336 -542 -923
-1535 -481 -815 -888 -1510 -905 -1544 -27 -55 -30 -72 -30 -152 0 -76 5 -99
27 -147 75 -161 238 -236 399 -183 112 37 92 7 882 1350 398 677 746 1268 772
1315 27 47 49 86 51 88 1 2 34 -13 73 -32 49 -25 72 -43 76 -59 3 -12 59 -254
125 -537 66 -283 138 -591 160 -684 l40 -168 -20 -77 c-32 -125 -100 -435 -96
-438 9 -9 132 96 166 141 65 86 110 235 110 367 0 67 -4 84 -35 145 -19 38
-63 101 -97 139 l-61 70 1003 3 c552 1 1005 0 1008 -3 3 -3 -17 -28 -44 -57
-127 -135 -144 -172 -144 -313 0 -208 43 -302 229 -501 68 -72 71 -74 64 -42
-3 18 -34 154 -68 301 l-62 268 38 162 c20 89 94 404 163 700 69 296 126 540
126 543 0 2 30 19 66 37 l66 33 333 -666 c315 -630 336 -669 384 -713 31 -27
73 -53 104 -63 58 -19 157 -21 202 -4 61 23 1218 696 1261 733 26 23 56 64 76
105 30 61 33 74 33 162 0 84 -3 102 -28 152 -74 151 -236 229 -377 181 -30
-10 -253 -133 -494 -273 -303 -175 -441 -250 -444 -240 -11 33 -636 1280 -662
1320 -16 26 -54 70 -85 99 l-56 53 66 131 c108 219 170 439 195 686 14 140 13
1601 -1 1729 -15 139 -35 231 -79 363 -177 534 -614 942 -1159 1085 -185 48
-435 66 -611 43z m495 -278 c294 -61 548 -196 753 -401 162 -162 288 -379 341
-590 9 -33 11 -336 9 -1120 l-3 -1075 -27 -80 c-39 -119 -62 -167 -97 -199
l-31 -30 -91 13 c-50 6 -157 14 -238 17 -157 6 -211 17 -211 41 0 8 28 45 63
81 182 193 306 397 387 640 60 182 61 193 58 652 -3 351 -5 418 -18 434 -87
106 -124 122 -343 147 -519 59 -874 167 -1148 351 -124 83 -225 187 -332 340
-83 119 -163 208 -188 208 -16 0 -5 -81 21 -155 127 -370 502 -655 1053 -800
230 -61 485 -101 709 -112 70 -3 131 -9 135 -12 5 -3 6 -181 2 -396 -6 -374
-8 -394 -32 -490 -61 -238 -159 -423 -320 -606 -101 -115 -277 -248 -415 -313
l-62 -30 0 -70 0 -71 412 0 c360 0 421 -2 475 -17 62 -17 140 -53 177 -81 20
-14 20 -15 1 -43 -13 -20 -19 -47 -19 -84 -1 -50 8 -71 86 -220 47 -91 108
-201 135 -245 27 -44 76 -138 107 -210 32 -71 71 -161 88 -200 59 -133 211
-430 253 -497 51 -78 124 -152 179 -180 89 -45 155 -19 571 222 344 199 393
223 471 224 85 1 104 -16 104 -96 0 -77 -18 -109 -88 -156 -65 -44 -889 -520
-1000 -578 -92 -48 -178 -57 -230 -25 -51 33 -103 124 -356 628 -138 274 -257
498 -284 535 -93 124 -205 184 -268 143 -22 -14 -56 -74 -78 -138 -5 -15 -18
-7 -83 49 -319 272 -572 329 -848 192 -95 -48 -214 -130 -295 -206 l-75 -69
-67 63 c-130 122 -292 220 -437 264 -60 19 -89 21 -169 18 -172 -9 -330 -84
-539 -259 l-81 -69 -22 64 c-28 84 -59 116 -114 116 -75 0 -193 -87 -283 -210
-22 -30 -325 -539 -673 -1130 -612 -1038 -713 -1206 -762 -1261 -53 -58 -99
-72 -168 -48 -67 24 -82 145 -29 245 26 47 696 1186 1560 2650 189 321 210
378 170 469 -24 55 -27 51 64 95 93 45 198 53 632 48 l373 -4 0 71 0 71 -62
30 c-385 181 -679 575 -754 1007 -23 130 -33 815 -13 820 8 3 50 14 94 26 84
24 208 82 284 134 120 81 262 259 332 413 54 121 109 348 109 452 l0 33 -29
-20 c-46 -33 -108 -138 -161 -274 -47 -121 -98 -215 -160 -297 -98 -128 -161
-177 -350 -268 -102 -49 -135 -70 -173 -112 -26 -28 -47 -58 -47 -66 0 -8 -4
-14 -10 -14 -7 0 -10 -150 -10 -430 0 -492 3 -520 86 -728 89 -220 188 -373
361 -553 40 -42 73 -81 73 -87 0 -29 -36 -36 -214 -43 -99 -4 -213 -10 -253
-14 -39 -4 -82 -5 -95 -2 -34 9 -81 95 -120 217 l-33 105 -3 1150 -2 1150 22
60 c93 251 328 449 620 521 35 8 140 19 234 24 192 9 215 16 414 116 161 81
315 127 535 158 79 11 364 -3 460 -23z m-1068 -4580 c59 -20 124 -56 225 -124
79 -52 160 -102 182 -111 84 -35 146 -14 313 105 101 72 218 133 283 148 83
19 211 13 290 -13 68 -23 202 -96 215 -116 3 -5 8 -31 11 -57 6 -51 -9 -130
-93 -473 -47 -195 -68 -255 -103 -292 l-21 -23 -807 -3 c-444 -2 -822 0 -839
3 -51 9 -75 63 -132 295 -110 454 -119 513 -78 550 34 33 145 92 217 117 99
34 229 32 337 -6z M4020 8093 c-101 -52 -105 -184 -8 -243 64 -39 146 -16 188
52 68 112 -63 252 -180 191z M5410 8093 c-88 -46 -106 -152 -37 -220 68 -69
174 -51 220 37 21 40 18 97 -7 135 -38 58 -116 79 -176 48z M4501 7505 c10
-54 49 -132 81 -162 73 -69 219 -87 321 -40 76 35 131 112 144 202 l6 45 -280
0 -280 0 8 -45z M4224 6968 c29 -149 249 -248 552 -248 300 0 521 100 550 248
l7 32 -558 0 -557 0 6 -32z M4283 6499 c9 -23 8 -32 -7 -48 -17 -19 -17 -20
12 -35 52 -27 197 -65 314 -82 216 -32 474 -3 635 70 51 24 54 27 38 42 -12
12 -15 26 -11 49 l6 32 -55 -18 c-147 -48 -253 -64 -440 -64 -188 0 -251 9
-424 59 l-78 23 10 -28z M8729 3938 c-59 -73 -82 -107 -218 -322 -255 -403
-369 -546 -676 -851 -231 -230 -285 -297 -350 -438 -33 -72 -77 -214 -89 -288
l-6 -35 -153 -37 c-430 -102 -777 -142 -1049 -119 -125 11 -338 39 -346 47 -1
1 35 40 81 86 97 97 153 187 199 320 l33 94 0 275 c0 261 -1 278 -23 342 -56
163 -195 295 -372 354 -52 18 -120 19 -1330 22 -821 2 -1314 -1 -1385 -8 -211
-20 -361 -87 -509 -229 -189 -182 -279 -429 -279 -761 1 -607 353 -1147 923
-1419 191 -90 406 -154 750 -220 832 -162 1713 -160 2390 5 394 97 867 295
1245 522 l150 90 75 -20 c106 -28 321 -21 465 15 379 96 525 198 850 592 336
406 570 603 924 773 154 74 155 73 -9 98 -217 32 -470 1 -772 -95 -215 -69
-507 -204 -728 -337 -63 -38 -119 -71 -125 -73 -5 -2 23 31 63 73 223 236 335
545 358 991 8 168 -22 562 -45 588 -4 4 -23 -12 -42 -35z m-3086 -783 c105
-27 182 -94 241 -208 l36 -68 0 -232 c0 -204 -2 -240 -20 -302 -12 -39 -25
-110 -31 -160 -5 -49 -12 -105 -15 -124 l-7 -34 -12 29 c-21 50 -48 63 -206
103 -329 84 -897 299 -1509 571 -307 137 -296 133 -336 120 -40 -14 -74 -60
-74 -103 0 -57 46 -87 340 -215 681 -297 1180 -485 1530 -577 153 -40 176 -42
209 -19 23 16 23 16 15 -7 -5 -13 -9 -61 -9 -106 0 -74 3 -85 30 -124 73 -102
198 -134 530 -133 290 0 564 35 859 110 133 34 178 57 259 133 78 74 139 171
172 275 57 181 98 241 315 456 183 183 306 321 450 504 l85 109 3 -102 c3
-123 -4 -148 -120 -396 -74 -159 -80 -175 -81 -240 -1 -60 3 -76 27 -113 63
-100 113 -134 196 -133 78 0 150 24 369 123 169 76 211 89 211 68 0 -21 -34
-76 -84 -136 -28 -34 -76 -93 -106 -130 -81 -100 -207 -230 -272 -280 -121
-94 -290 -165 -475 -200 -71 -13 -123 -15 -271 -11 -220 7 -242 2 -437 -103
-452 -244 -709 -354 -1046 -449 -261 -74 -522 -118 -839 -142 -231 -17 -802
-6 -1050 20 -442 48 -855 132 -1113 225 -439 159 -746 469 -861 870 -25 85
-26 98 -26 362 0 252 2 280 21 336 24 72 58 134 109 200 49 63 83 90 171 137
124 66 156 72 514 82 176 5 343 13 370 18 28 4 462 9 965 10 781 1 924 -1 973
-14z"/>
</g>
</svg>
