<?xml version="1.0" standalone="no"?>
<!DOCTYPE svg PUBLIC "-//W3C//DTD SVG 20010904//EN"
 "http://www.w3.org/TR/2001/REC-SVG-20010904/DTD/svg10.dtd">
<svg version="1.0" xmlns="http://www.w3.org/2000/svg"
 width="2048.000000pt" height="2048.000000pt" viewBox="0 0 2048.000000 2048.000000"
 preserveAspectRatio="xMidYMid meet">
<metadata>
Created by potrace 1.13, written by Peter Selinger 2001-2015
</metadata>
<g transform="translate(0.000000,2048.000000) scale(0.192120,-0.192120)"
fill="#000000" stroke="none">
<path d="M4950 8928 c-825 -57 -1542 -300 -2108 -715 -555 -406 -962 -1002
-1127 -1648 -72 -284 -89 -450 -82 -815 7 -378 42 -679 112 -975 59 -251 167
-521 253 -635 25 -32 42 -65 42 -81 0 -61 34 -286 70 -469 124 -622 362 -1158
706 -1590 87 -110 335 -357 444 -444 437 -348 958 -558 1590 -643 194 -26 800
-26 1010 0 310 39 529 86 771 167 1011 340 1659 1128 1903 2317 33 162 68 386
82 526 6 64 7 67 33 67 135 0 272 396 336 975 40 364 58 935 36 1140 -48 443
-235 914 -522 1311 -224 310 -544 622 -854 833 -591 403 -1242 624 -2005 681
-158 12 -511 11 -690 -2z m890 -272 c776 -97 1441 -378 1990 -842 109 -92 336
-325 422 -434 252 -317 414 -643 503 -1010 l25 -105 0 -606 c0 -636 -2 -666
-50 -946 -41 -243 -90 -395 -130 -408 -49 -16 -76 27 -349 567 -231 455 -252
486 -358 535 -43 20 -79 26 -190 34 -877 60 -1309 144 -1727 336 -207 94 -281
112 -337 82 -23 -12 -23 -13 38 -68 211 -194 687 -358 1276 -440 278 -39 663
-71 852 -71 l91 0 18 -37 c10 -21 144 -287 298 -592 179 -353 297 -573 324
-606 l42 -53 -48 -31 c-64 -42 -84 -88 -116 -269 -32 -184 -48 -254 -84 -367
-16 -49 -42 -153 -59 -230 -41 -187 -108 -365 -222 -584 -76 -146 -116 -206
-251 -374 -183 -227 -320 -360 -513 -499 -515 -370 -1231 -557 -2050 -535
-421 12 -775 75 -1122 202 -237 87 -561 269 -763 430 -288 229 -554 561 -731
913 -174 345 -275 665 -365 1147 -21 114 -36 149 -93 208 -32 33 -40 47 -28
47 29 0 48 46 87 212 149 638 433 1189 823 1594 133 139 283 268 300 257 7 -4
57 -44 112 -89 416 -338 809 -569 1029 -604 219 -35 317 91 282 365 l-8 60
138 -135 c389 -379 714 -619 840 -620 110 -1 119 131 28 392 -37 106 -142 338
-153 338 -4 0 -14 -13 -24 -29 -25 -42 -22 -138 8 -246 25 -90 32 -188 16
-214 -7 -11 -16 -10 -47 9 -84 51 -227 164 -408 322 -103 91 -213 180 -244
199 -100 61 -165 42 -229 -66 -17 -27 -35 -65 -41 -82 -6 -18 -25 -53 -42 -78
-29 -43 -33 -45 -78 -45 -79 0 -160 26 -302 97 -144 72 -380 226 -600 392
-164 123 -216 151 -284 151 -67 0 -131 -31 -226 -107 -190 -154 -403 -410
-570 -689 -149 -247 -257 -485 -380 -839 -34 -97 -50 -121 -74 -112 -69 27
-170 385 -216 767 -8 64 -10 256 -8 585 l4 490 32 130 c115 478 330 866 676
1223 528 544 1296 886 2193 977 228 23 227 23 593 20 250 -2 382 -7 480 -19z
M4125 4758 c-42 -15 -102 -61 -131 -100 -47 -62 -56 -120 -52 -326 3 -174 5
-190 27 -232 32 -62 67 -97 126 -128 41 -22 63 -26 125 -27 115 0 197 51 247
153 28 57 28 58 28 262 0 230 -3 245 -72 320 -54 61 -121 90 -203 89 -36 0
-78 -5 -95 -11z M6325 4747 c-56 -27 -118 -90 -143 -146 -14 -30 -17 -72 -17
-241 0 -204 0 -205 28 -262 50 -102 132 -153 247 -153 114 0 195 49 248 150
27 50 27 52 27 260 0 193 -2 214 -21 256 -46 100 -127 151 -244 157 -63 2 -83
-1 -125 -21z M4964 3928 c-17 -6 -53 -27 -80 -47 -163 -123 -135 -379 51 -467
50 -24 53 -24 395 -24 342 0 345 0 395 24 207 98 212 393 8 496 l-48 25 -345
2 c-214 1 -357 -3 -376 -9z m662 -239 c10 -10 14 -24 10 -37 -13 -40 -56 -47
-311 -47 -254 0 -298 7 -310 47 -8 23 9 45 38 51 12 3 142 4 289 3 233 -1 269
-3 284 -17z M4102 3077 c-51 -19 -95 -59 -127 -118 -26 -46 -30 -64 -30 -129
0 -65 4 -83 30 -129 36 -64 76 -96 210 -163 382 -193 843 -284 1300 -257 359
21 691 107 985 254 139 70 179 101 215 166 26 46 30 64 30 129 0 64 -4 83 -30
129 -36 65 -82 105 -141 121 -80 23 -128 11 -462 -114 -229 -86 -419 -123
-677 -133 -325 -12 -595 37 -923 168 -211 84 -304 103 -380 76z m292 -283
c440 -157 595 -188 936 -188 321 0 523 38 865 164 158 58 240 77 260 60 21
-17 19 -26 -14 -60 -36 -38 -184 -108 -326 -154 -487 -158 -1028 -163 -1526
-15 -199 59 -409 164 -409 205 0 45 65 41 214 -12z"/>
</g>
</svg>
