<?xml version="1.0" standalone="no"?>
<!DOCTYPE svg PUBLIC "-//W3C//DTD SVG 20010904//EN"
 "http://www.w3.org/TR/2001/REC-SVG-20010904/DTD/svg10.dtd">
<svg version="1.0" xmlns="http://www.w3.org/2000/svg"
 width="2048.000000pt" height="2048.000000pt" viewBox="0 0 2048.000000 2048.000000"
 preserveAspectRatio="xMidYMid meet">
<metadata>
Created by potrace 1.13, written by Peter Selinger 2001-2015
</metadata>
<g transform="translate(0.000000,2048.000000) scale(0.192120,-0.192120)"
fill="#000000" stroke="none">
<path d="M5714 9870 c-11 -4 -49 -37 -85 -72 -135 -134 -356 -261 -726 -418
l-102 -43 -58 26 c-162 71 -374 115 -608 124 -235 9 -430 -22 -479 -76 -23
-25 -14 -29 86 -42 130 -15 200 -44 358 -147 l85 -55 -35 -15 c-230 -100 -441
-222 -590 -341 -123 -98 -281 -264 -387 -406 -180 -243 -248 -328 -352 -442
-129 -143 -232 -225 -347 -279 -97 -45 -108 -53 -98 -77 8 -22 29 -28 114 -34
97 -7 177 9 269 52 l74 35 -7 -32 c-38 -179 -41 -208 -40 -438 1 -378 48 -644
150 -855 40 -83 111 -155 152 -155 38 0 69 30 81 80 4 19 21 87 36 150 73 307
218 616 408 870 71 94 254 286 313 328 l31 21 66 -77 c98 -117 303 -311 383
-365 127 -83 216 -100 275 -50 51 43 71 102 78 225 l6 106 74 -86 c217 -256
512 -552 647 -648 98 -71 176 -99 210 -76 57 38 43 197 -41 439 -39 114 -62
174 -119 306 l-17 39 60 -49 c231 -187 742 -314 1366 -340 l150 -6 214 -420
c232 -454 260 -497 325 -497 122 0 206 286 237 812 11 182 8 399 -7 497 -6 40
-5 44 12 38 163 -51 314 -69 416 -48 64 14 108 43 108 72 0 21 -55 51 -125 69
-166 41 -465 325 -758 723 -132 178 -304 361 -452 480 -367 296 -852 502
-1316 558 l-97 12 44 91 c51 105 75 207 77 323 2 71 -1 85 -18 102 -14 14 -26
17 -41 11z m-274 -580 c10 -5 63 -54 117 -109 54 -54 118 -108 141 -120 24
-12 114 -38 200 -58 333 -75 631 -197 870 -357 229 -152 372 -293 609 -596 84
-107 195 -242 247 -300 105 -116 112 -133 73 -191 -74 -111 -70 -90 -78 -364
-4 -137 -10 -281 -14 -320 -7 -81 -32 -145 -57 -145 -17 0 -75 95 -156 255
-64 129 -211 274 -313 310 -24 9 -125 22 -224 30 -470 39 -724 90 -1019 205
-87 33 -179 64 -205 67 -61 7 -107 -16 -178 -89 -72 -72 -93 -117 -93 -195 0
-61 -1 -63 -20 -53 -14 7 -20 7 -20 0 0 -32 -49 3 -155 111 -144 146 -220 211
-285 244 -92 46 -122 35 -268 -98 -45 -42 -81 -67 -95 -67 -38 0 -112 55 -242
179 -134 128 -213 186 -281 207 -89 26 -197 -25 -347 -166 -173 -162 -317
-355 -442 -590 -78 -148 -101 -183 -118 -177 -5 1 -18 30 -28 62 -16 53 -19
96 -19 356 0 296 0 297 -25 352 -16 35 -24 64 -20 79 3 13 40 64 81 113 42 50
121 151 177 225 279 370 394 472 795 706 107 63 182 130 254 229 32 44 64 86
71 94 6 8 14 20 17 27 4 9 38 4 135 -22 238 -63 262 -67 335 -54 78 14 233 76
406 164 137 69 145 72 174 56z M4200 6524 c-100 -21 -184 -68 -264 -146 -39
-39 -55 -58 -36 -45 114 83 258 121 424 115 105 -4 118 -7 190 -41 98 -47 181
-128 228 -224 31 -64 33 -74 33 -178 0 -105 -2 -114 -34 -179 -75 -153 -307
-340 -485 -391 -43 -13 -85 -16 -155 -13 -81 3 -106 8 -161 34 -126 59 -216
182 -256 349 -28 123 1 269 77 383 l31 47 -52 -50 c-113 -111 -170 -241 -170
-392 0 -165 50 -286 164 -398 114 -112 226 -158 386 -158 196 0 279 45 501
270 168 171 202 221 235 353 22 88 14 221 -18 310 -67 184 -225 319 -415 356
-91 17 -138 17 -223 -2z M6224 6525 c-247 -54 -434 -284 -434 -537 0 -92 16
-159 57 -248 32 -67 53 -93 207 -245 130 -129 184 -177 226 -197 107 -50 150
-61 255 -61 84 -1 113 4 179 27 96 33 170 80 233 150 199 217 190 557 -18 761
l-61 60 31 -47 c71 -106 104 -253 81 -362 -27 -132 -119 -279 -214 -341 -78
-51 -151 -68 -265 -63 -75 4 -110 11 -161 33 -140 59 -316 202 -391 318 -54
83 -72 153 -67 258 3 72 9 97 36 150 60 122 164 213 284 251 74 22 223 24 322
3 75 -16 179 -61 236 -101 19 -14 3 5 -36 44 -137 134 -316 187 -500 147z
M2730 6409 c-40 -61 -74 -144 -102 -247 -32 -115 -32 -390 0 -516 61 -241 200
-423 353 -460 24 -5 29 -14 44 -83 26 -122 117 -386 180 -521 184 -404 448
-771 779 -1089 l136 -130 0 -244 c1 -223 2 -242 16 -224 16 20 15 61 -2 160
l-7 40 89 -83 c416 -390 926 -538 1455 -422 289 63 536 200 794 442 36 33 65
59 65 57 0 -2 -6 -38 -14 -79 -15 -80 -12 -122 10 -141 12 -10 14 26 14 239
l0 251 183 183 c298 299 506 583 681 933 103 207 190 443 232 633 14 64 19 73
42 78 154 37 290 215 353 459 30 118 34 367 7 487 -20 88 -70 223 -96 255 -16
22 -17 12 -20 -240 -5 -479 -47 -618 -241 -796 -112 -104 -133 -139 -151 -254
-17 -116 -58 -217 -148 -372 -9 -17 -30 -53 -46 -80 -16 -28 -57 -93 -91 -145
-34 -52 -94 -155 -134 -227 -108 -199 -243 -373 -455 -587 -153 -153 -185
-218 -155 -305 13 -38 11 -41 -156 -167 -232 -176 -501 -311 -744 -372 -93
-23 -125 -27 -271 -27 -149 0 -175 3 -275 29 -280 72 -567 225 -836 444 l-66
54 5 67 c3 51 0 75 -13 102 -22 42 -77 112 -125 159 -151 146 -376 443 -529
698 -307 510 -340 577 -361 732 -15 113 -41 158 -155 270 -120 118 -156 181
-190 327 -25 107 -26 115 -23 436 2 180 2 327 2 327 -1 0 -16 -23 -34 -51z
M3965 6277 c-93 -44 -165 -154 -165 -252 0 -98 72 -208 165 -251 47 -23 61
-24 255 -24 179 0 210 3 246 19 211 96 226 381 25 499 -46 27 -47 27 -261 30
-209 2 -216 2 -265 -21z M6204 6284 c-60 -21 -119 -76 -150 -141 -69 -139 -6
-308 140 -374 36 -16 67 -19 246 -19 194 0 208 1 255 24 93 43 165 153 165
251 0 98 -72 208 -165 251 -47 23 -60 24 -250 23 -148 0 -211 -4 -241 -15z
M4983 5311 c-62 -39 -68 -57 -71 -243 -3 -153 -2 -172 17 -211 25 -52 70 -80
127 -80 50 0 87 21 115 66 18 29 19 47 17 219 l-3 188 -37 36 c-46 47 -114 57
-165 25z M5545 5311 c-69 -42 -70 -45 -73 -246 -3 -151 0 -189 12 -214 53
-102 196 -98 247 6 19 39 20 58 17 212 -3 153 -5 172 -24 198 -43 59 -123 79
-179 44z M3313 5170 c-42 -25 -63 -68 -63 -127 0 -45 3 -50 68 -113 138 -136
394 -281 592 -337 119 -34 304 -42 420 -19 113 23 230 69 263 104 58 61 55
146 -8 201 -47 41 -95 41 -200 -1 -68 -26 -97 -32 -191 -36 -125 -5 -214 12
-347 68 -86 36 -257 145 -332 212 -27 25 -60 50 -72 56 -33 18 -94 14 -130 -8z
M7208 5172 c-14 -9 -50 -38 -80 -63 -115 -100 -256 -182 -398 -231 -90 -31
-103 -33 -235 -33 -135 0 -143 1 -220 33 -105 42 -153 42 -200 1 -43 -38 -61
-96 -45 -142 17 -51 59 -85 139 -116 133 -51 217 -64 365 -58 141 5 235 27
382 88 147 61 362 205 452 302 37 41 42 52 42 94 0 85 -56 143 -137 143 -21 0
-50 -8 -65 -18z M5035 4260 c-391 -33 -709 -143 -777 -270 -41 -78 -12 -187
63 -237 48 -31 127 -37 170 -13 95 54 157 82 221 100 326 88 964 84 1268 -10
36 -10 99 -40 140 -65 61 -36 84 -45 124 -45 118 0 199 106 174 226 -30 137
-268 245 -663 299 -134 19 -567 27 -720 15z M3974 2940 c-77 -30 -214 -253
-214 -350 l0 -38 -437 -5 c-398 -4 -447 -6 -537 -25 -730 -156 -1261 -740
-1335 -1471 -6 -57 -11 -242 -11 -412 l0 -309 3890 0 3890 0 0 309 c0 170 -5
355 -10 412 -10 93 -53 315 -64 326 -2 3 -26 -3 -53 -13 -72 -26 -196 -24
-250 4 -82 43 -138 144 -150 269 -5 54 -9 63 -22 57 -130 -55 -215 -66 -307
-39 -198 57 -276 201 -200 375 5 12 -6 18 -46 28 -146 34 -205 180 -147 367
11 37 19 68 17 70 -2 2 -52 14 -113 26 -102 21 -140 23 -543 27 l-433 4 6 28
c17 76 -119 310 -206 356 -16 8 -30 14 -33 14 -14 0 -320 -345 -691 -780 -201
-235 -184 -213 -149 -204 82 19 122 56 328 298 312 367 341 396 411 415 66 18
79 14 137 -43 62 -61 95 -81 156 -91 l44 -7 -7 -52 c-32 -262 -242 -1057 -361
-1369 -19 -50 -31 -93 -27 -97 14 -12 66 8 106 41 81 67 170 326 321 939 59
237 71 273 107 314 l23 26 271 0 c316 0 365 -4 365 -31 0 -12 7 -19 20 -19 15
0 20 -7 20 -28 0 -59 64 -194 114 -241 14 -14 26 -32 26 -41 0 -9 8 -25 19
-34 10 -9 21 -37 24 -61 4 -25 11 -53 16 -62 5 -10 21 -43 35 -73 34 -72 102
-149 182 -206 74 -53 140 -80 236 -99 82 -15 138 -47 231 -132 97 -88 173
-136 248 -157 64 -18 111 -56 130 -104 5 -13 9 -129 9 -258 0 -227 -1 -234
-20 -234 -11 0 -20 -7 -20 -15 0 -13 -44 -15 -335 -15 -217 0 -335 -4 -335
-10 0 -5 -18 -10 -40 -10 -22 0 -40 -4 -40 -9 0 -5 -12 -12 -26 -15 -15 -4
-70 -37 -123 -73 l-96 -66 -7 234 c-6 249 -21 359 -59 436 -21 44 -58 69 -85
59 -7 -3 -15 -26 -19 -53 -20 -164 -39 -276 -61 -352 -27 -96 -118 -289 -139
-298 -8 -3 -37 15 -67 41 -29 26 -75 58 -102 71 l-50 25 -713 0 c-807 0 -727
8 -848 -84 -33 -24 -63 -42 -66 -38 -3 4 -14 36 -24 72 -43 160 -137 327 -228
406 l-43 38 96 76 c156 125 194 168 251 287 l51 105 -22 23 -21 23 55 30 c30
16 58 27 61 24 16 -16 3 -74 -25 -105 -16 -19 -30 -37 -30 -40 0 -19 556 -347
588 -347 7 0 12 5 12 11 0 23 -380 448 -620 692 l-165 169 -49 -53 c-27 -29
-64 -77 -84 -106 -19 -29 -38 -53 -41 -53 -4 0 -45 15 -91 34 -46 19 -123 43
-171 52 l-88 18 -59 128 -59 127 -229 -262 c-499 -571 -614 -707 -614 -727 0
-11 7 -20 16 -20 18 0 454 260 513 306 2 2 -6 18 -18 37 -24 38 -25 73 -7 132
l12 40 18 -75 c30 -131 55 -195 130 -322 l72 -125 -48 -52 c-77 -84 -146 -253
-193 -474 -10 -42 -19 -77 -21 -77 -3 0 -37 25 -77 55 -122 92 -60 85 -809 85
-631 -1 -668 -2 -758 -21 -187 -41 -820 -37 -1160 7 -63 8 -117 20 -121 25 -3
6 -25 13 -48 16 -34 5 -41 9 -41 28 0 13 -6 25 -14 28 -15 6 -23 51 -32 192
-4 66 0 127 15 229 56 368 191 650 425 881 125 123 247 211 391 280 205 99
545 180 545 130 0 -13 32 -15 225 -15 218 0 225 1 225 20 0 18 7 20 63 20 53
-1 67 -5 93 -28 17 -15 36 -37 43 -49 6 -13 36 -121 67 -240 97 -387 137 -523
196 -678 59 -153 90 -216 131 -269 31 -38 79 -66 116 -66 19 0 19 1 1 38 -99
204 -390 1288 -390 1453 0 35 1 36 59 52 49 14 67 25 106 69 26 29 57 58 69
65 26 15 79 16 130 2 34 -9 163 -98 207 -142 8 -7 39 -35 69 -62 30 -26 109
-98 175 -160 194 -182 255 -226 337 -242 32 -6 30 -4 -37 59 -38 35 -169 154
-290 263 -121 109 -300 272 -399 364 -98 91 -183 169 -190 172 -6 4 -20 3 -32
-1z m1079 -1177 c-7 -2 -21 -2 -30 0 -10 3 -4 5 12 5 17 0 24 -2 18 -5z m77
-259 c109 -45 292 -94 350 -94 29 0 67 10 107 29 48 23 64 27 72 17 27 -32
-33 -127 -210 -330 -135 -154 -149 -224 -74 -368 51 -99 58 -145 23 -153 -13
-3 -113 -4 -223 -3 l-200 3 -3 40 c-2 31 8 61 44 135 25 52 53 115 61 140 21
61 12 150 -21 217 -14 29 -26 57 -26 61 0 5 -24 49 -53 98 -76 126 -82 194
-20 228 43 23 80 19 173 -20z M3074 1835 c-17 -8 -56 -38 -87 -69 -31 -30 -66
-57 -79 -60 -247 -47 -392 -89 -517 -148 -124 -59 -229 -188 -386 -475 -43
-78 -97 -165 -121 -193 -24 -29 -44 -56 -44 -61 0 -85 238 -158 578 -178 182
-11 409 1 502 27 l65 17 2 55 c2 72 24 127 146 356 l102 191 47 17 c130 46
185 211 118 352 -28 57 -105 136 -161 164 -44 23 -119 25 -165 5z m143 -160
c116 -48 85 -260 -62 -422 -70 -78 -182 -157 -350 -247 -162 -87 -299 -137
-471 -171 -200 -41 -344 -32 -344 22 0 9 24 39 53 67 42 40 69 82 127 196 115
228 194 331 301 393 59 34 293 120 399 147 160 41 273 46 347 15z"/>
</g>
</svg>
