<?xml version="1.0" standalone="no"?>
<!DOCTYPE svg PUBLIC "-//W3C//DTD SVG 20010904//EN"
 "http://www.w3.org/TR/2001/REC-SVG-20010904/DTD/svg10.dtd">
<svg version="1.0" xmlns="http://www.w3.org/2000/svg"
 width="2048.000000pt" height="2048.000000pt" viewBox="0 0 2048.000000 2048.000000"
 preserveAspectRatio="xMidYMid meet">
<metadata>
Created by potrace 1.13, written by Peter Selinger 2001-2015
</metadata>
<g transform="translate(0.000000,2048.000000) scale(0.192120,-0.192120)"
fill="#000000" stroke="none">
<path d="M5195 10059 c-562 -30 -1020 -298 -1244 -729 -108 -209 -146 -366
-144 -610 1 -264 46 -479 118 -574 l34 -44 -6 -169 c-14 -416 54 -704 228
-967 113 -171 286 -338 445 -427 l52 -30 4 -144 c1 -79 6 -146 9 -150 12 -11
86 26 113 56 24 27 26 35 26 129 0 55 -4 100 -8 100 -4 0 -13 15 -20 33 -11
30 -104 127 -262 273 -156 143 -280 325 -345 504 -52 144 -75 294 -75 498 0
114 -4 182 -10 182 -5 0 -10 6 -10 13 0 7 -20 30 -44 52 -40 35 -43 41 -31 59
7 12 18 50 25 86 32 172 113 368 217 524 64 95 187 237 224 257 15 7 34 -4 98
-55 168 -136 321 -224 405 -233 35 -4 47 -1 72 20 27 23 29 31 29 91 0 36 1
66 2 66 2 0 42 -39 90 -86 145 -143 269 -234 318 -234 8 0 21 11 27 25 13 30
-6 110 -53 217 -16 36 -29 69 -29 73 0 3 21 -10 46 -29 85 -65 212 -115 382
-151 98 -20 303 -45 377 -45 33 0 77 -3 98 -7 l39 -6 138 -281 c125 -254 137
-282 122 -294 -53 -39 -82 -69 -82 -84 0 -9 -4 -18 -9 -20 -5 -1 -14 -97 -20
-213 -6 -115 -15 -226 -20 -245 -5 -19 -15 -60 -21 -92 -10 -54 -80 -202 -131
-280 -13 -20 -44 -70 -69 -110 -55 -89 -125 -166 -245 -266 -197 -166 -225
-210 -225 -356 0 -54 3 -96 7 -93 3 4 11 -3 17 -16 12 -23 104 -73 115 -62 3
4 8 71 9 150 l4 144 52 30 c83 47 205 143 282 222 288 299 411 663 391 1154
l-6 140 32 20 c64 41 100 187 119 489 19 293 -11 456 -122 681 -164 332 -475
599 -847 728 -129 45 -281 76 -402 83 -53 3 -109 6 -126 7 -16 2 -88 0 -160
-4z m410 -269 c284 -49 533 -171 725 -356 102 -98 174 -197 233 -322 l42 -87
3 -222 c2 -145 0 -223 -7 -223 -5 0 -22 17 -38 38 -56 76 -139 144 -202 167
-23 8 -110 21 -194 30 -175 18 -299 42 -447 85 -167 48 -192 49 -273 6 -37
-20 -78 -36 -91 -36 -14 0 -62 18 -107 40 -46 22 -96 40 -111 40 -16 0 -55
-11 -88 -25 -33 -14 -74 -25 -92 -25 -44 0 -118 36 -226 109 -160 109 -223
124 -321 75 -71 -36 -194 -159 -264 -265 -59 -91 -82 -119 -98 -119 -5 0 -9
70 -9 163 0 134 3 174 19 218 128 372 492 638 978 713 140 22 428 20 568 -4z
M4585 8096 c-99 -44 -115 -176 -29 -240 60 -43 157 -24 195 38 29 48 25 117
-8 157 -28 32 -78 59 -110 59 -10 -1 -31 -7 -48 -14z M5975 8096 c-52 -23 -85
-71 -85 -124 0 -59 26 -103 73 -125 44 -21 80 -21 123 -1 51 24 77 74 72 135
-6 56 -33 93 -85 115 -40 17 -59 17 -98 0z M5055 7493 c17 -100 93 -197 174
-221 49 -15 158 -15 202 -1 79 27 140 97 165 190 7 30 14 57 14 62 0 4 -126 7
-280 7 l-281 0 6 -37z M4780 6965 c0 -54 82 -145 168 -189 101 -51 160 -61
382 -61 167 0 217 4 269 18 128 36 221 100 262 179 38 73 80 68 -531 68 -489
0 -550 -2 -550 -15z M3791 6144 c-277 -74 -455 -359 -516 -827 -8 -65 -15
-152 -15 -193 l0 -74 340 0 340 0 0 -1368 0 -1368 696 -198 696 -199 694 199
694 199 0 1367 0 1368 342 0 341 0 -6 123 c-23 453 -182 809 -415 926 -117 59
-136 61 -588 61 l-413 0 -6 -21 c-12 -37 -85 -108 -159 -153 -272 -169 -613
-185 -901 -42 -116 58 -198 123 -221 175 l-18 41 -415 -1 c-330 0 -427 -3
-470 -15z m784 -236 c22 -9 93 -47 158 -86 203 -121 339 -162 557 -169 254 -9
432 42 651 184 121 78 151 86 342 91 165 4 167 4 167 -17 0 -20 4 -21 128 -21
261 0 362 -40 452 -180 59 -91 80 -176 80 -316 l0 -124 -143 0 c-193 0 -223
-10 -321 -101 -42 -39 -79 -82 -82 -95 -3 -13 -10 -24 -15 -24 -5 0 -9 -9 -9
-19 0 -11 -6 -21 -12 -23 -10 -4 -14 -260 -16 -1226 l-3 -1222 -29 0 c-31 0
-40 -14 -40 -64 l0 -33 -478 -137 c-581 -166 -605 -171 -692 -156 -47 8 -809
220 -1062 296 -14 4 -18 16 -18 49 0 38 -3 44 -22 47 l-23 3 -5 1219 c-4 963
-8 1220 -17 1224 -7 2 -13 12 -13 23 0 10 -4 19 -9 19 -5 0 -12 11 -15 25 -9
34 -121 146 -171 170 -33 16 -66 20 -190 23 -213 4 -195 -6 -195 108 0 214 90
393 233 464 78 38 149 50 305 50 118 0 122 1 122 21 0 21 2 21 173 17 117 -4
185 -10 212 -20z M3276 5002 c-4 -11 -52 -246 -106 -523 -55 -276 -101 -503
-103 -505 -3 -3 -215 -116 -1132 -602 -197 -104 -359 -197 -385 -220 -68 -59
-103 -136 -108 -236 -3 -66 0 -92 18 -138 58 -154 234 -252 392 -219 37 8 304
145 887 454 895 474 902 479 949 581 21 43 162 731 162 786 0 37 -55 47 -85
16 -48 -49 -86 -153 -160 -436 -63 -240 -89 -297 -158 -350 -47 -35 -1336
-723 -1502 -801 -77 -36 -100 -43 -155 -43 -107 0 -160 48 -160 145 0 36 6 47
38 78 25 23 274 161 681 376 353 187 668 360 701 385 67 50 131 130 166 206
34 72 164 726 164 821 0 64 -4 80 -40 150 -48 92 -56 101 -64 75z M7343 4969
c-56 -100 -63 -148 -49 -319 8 -99 49 -332 92 -530 40 -179 117 -304 236 -383
29 -19 310 -171 623 -337 669 -355 688 -365 726 -397 27 -23 29 -29 29 -101 0
-43 -4 -81 -8 -87 -43 -59 -153 -64 -269 -13 -55 24 -1323 695 -1453 769 -47
26 -95 58 -107 71 -40 43 -71 122 -108 273 -71 295 -118 427 -171 481 -47 46
-80 21 -69 -51 26 -179 138 -711 157 -752 43 -93 85 -121 493 -337 209 -111
585 -310 835 -443 306 -163 473 -246 509 -254 148 -32 318 56 384 199 18 38
22 66 22 142 0 85 -3 101 -29 153 -17 32 -48 75 -71 96 -47 43 -5 20 -865 476
-360 191 -656 348 -658 350 -1 1 -48 231 -103 511 -55 280 -104 515 -108 523
-6 9 -17 -3 -38 -40z M3525 2353 c-172 -11 -590 -86 -688 -123 -184 -70 -282
-265 -248 -490 15 -99 61 -192 126 -255 135 -132 343 -172 775 -147 284 16
307 12 831 -137 250 -70 469 -132 487 -136 l32 -7 -20 35 c-12 19 -27 38 -35
41 -8 3 -15 15 -15 26 0 12 -4 18 -10 15 -5 -3 -10 3 -10 15 0 12 4 19 9 16 5
-4 11 -2 13 3 4 11 282 -65 314 -86 27 -17 32 -43 9 -43 -8 0 -15 -4 -15 -10
0 -5 -8 -10 -18 -10 -10 0 -22 -4 -27 -9 -6 -5 -26 -13 -45 -18 -35 -9 -34
-10 58 -38 50 -15 90 -30 88 -32 -2 -2 -51 9 -110 25 -59 16 -122 28 -141 27
-22 -1 -35 3 -35 10 0 25 -40 21 -181 -17 -450 -122 -1312 -373 -1357 -394
-56 -27 -82 -62 -82 -111 l-1 -28 -39 44 c-22 24 -46 55 -54 70 -7 14 -27 51
-45 81 -29 53 -31 60 -31 173 0 121 4 138 51 192 34 40 99 173 99 203 0 56 -7
62 -50 47 -186 -65 -315 -275 -297 -483 15 -183 139 -349 308 -413 75 -29 199
-40 267 -24 31 8 465 131 964 274 499 144 917 261 928 261 12 0 445 -122 963
-271 874 -251 947 -271 1017 -270 95 1 180 23 248 64 159 96 253 273 239 452
-10 135 -75 262 -176 341 -55 43 -158 91 -170 79 -3 -4 -6 -28 -5 -53 0 -50
14 -77 75 -152 21 -25 51 -70 68 -102 28 -51 31 -64 31 -147 0 -74 -4 -100
-21 -134 -29 -57 -113 -178 -144 -207 l-25 -23 0 27 c0 47 -26 83 -82 110 -54
26 -1175 347 -3408 977 -458 130 -553 149 -750 149 -232 0 -352 -38 -394 -125
l-20 -39 -12 29 c-8 18 -13 75 -14 145 0 107 2 119 29 175 45 94 91 128 231
168 92 27 347 67 490 78 318 23 333 27 365 89 33 65 32 67 -44 84 -65 15 -163
18 -296 9z m-85 -774 c107 -14 210 -48 210 -70 0 -23 -26 -29 -170 -36 -134
-6 -199 3 -275 37 -24 11 -49 20 -54 20 -6 0 -11 5 -11 10 0 6 -7 10 -15 10
-28 0 -15 29 18 39 35 11 176 6 297 -10z M6832 2344 c-57 -14 -62 -18 -56 -37
11 -38 55 -89 88 -102 17 -7 108 -18 201 -24 254 -18 552 -67 663 -109 57 -22
104 -69 144 -146 22 -42 28 -70 34 -158 5 -77 3 -121 -6 -154 l-13 -46 -21 43
c-44 91 -160 129 -396 129 -158 0 -301 -21 -466 -68 -76 -22 -199 -56 -273
-76 -74 -20 -136 -38 -138 -40 -2 -2 33 -14 79 -26 149 -40 400 -110 557 -157
l155 -46 120 6 c244 13 389 73 482 199 165 225 97 580 -132 685 -64 29 -311
84 -509 112 -196 29 -431 35 -513 15z m678 -753 c39 -11 36 -35 -7 -56 -21
-10 -47 -23 -58 -28 -11 -6 -51 -12 -90 -15 -60 -3 -77 -1 -114 19 -55 29 -61
45 -24 61 43 18 247 32 293 19z"/>
</g>
</svg>
