<?xml version="1.0" standalone="no"?>
<!DOCTYPE svg PUBLIC "-//W3C//DTD SVG 20010904//EN"
 "http://www.w3.org/TR/2001/REC-SVG-20010904/DTD/svg10.dtd">
<svg version="1.0" xmlns="http://www.w3.org/2000/svg"
 width="2048.000000pt" height="2048.000000pt" viewBox="0 0 2048.000000 2048.000000"
 preserveAspectRatio="xMidYMid meet">
<metadata>
Created by potrace 1.13, written by Peter Selinger 2001-2015
</metadata>
<g transform="translate(0.000000,2048.000000) scale(0.192120,-0.192120)"
fill="#000000" stroke="none">
<path d="M5080 8925 c-446 -55 -886 -238 -1275 -529 -142 -107 -400 -360 -505
-496 -365 -474 -583 -1033 -665 -1710 -22 -183 -31 -634 -16 -826 17 -212 53
-472 116 -829 73 -417 95 -597 96 -780 0 -165 -9 -244 -47 -382 -64 -238 -70
-457 -19 -703 5 -23 -2 -28 -102 -75 -206 -96 -399 -233 -554 -392 -188 -194
-289 -368 -355 -614 l-28 -104 -4 -578 -3 -577 3611 0 3611 0 -3 577 -4 578
-28 104 c-71 264 -191 459 -410 668 -59 56 -158 136 -220 178 l-114 77 14 51
c44 168 44 612 0 1092 -86 929 -103 1186 -121 1885 -17 633 -36 821 -116 1150
-220 904 -761 1606 -1524 1980 -237 116 -413 177 -650 225 -229 46 -470 56
-685 30z m370 -215 c465 -33 889 -198 1289 -498 126 -95 458 -416 533 -517
248 -333 434 -793 524 -1295 24 -138 26 -171 34 -662 9 -528 19 -795 46 -1158
17 -243 91 -1096 100 -1160 3 -25 9 -241 13 -480 l7 -435 37 -60 c20 -33 54
-80 76 -104 22 -24 41 -46 43 -50 2 -4 55 -51 118 -105 238 -203 347 -354 420
-584 l30 -92 0 -445 c0 -438 0 -445 -20 -445 -15 0 -20 -7 -20 -25 l0 -25
-942 0 c-519 0 -1217 -6 -1553 -12 -773 -16 -1166 -16 -1835 -1 -294 7 -952
13 -1462 13 l-928 0 0 484 c0 554 -2 539 92 716 113 211 256 361 495 520 62
41 113 78 113 82 0 4 15 28 34 52 19 25 46 70 61 101 l26 57 53 -129 c119
-294 279 -528 540 -789 450 -449 1086 -825 1541 -910 137 -26 496 -26 633 -1
389 73 733 220 1127 482 191 128 328 234 490 382 l111 100 92 7 c116 9 227 37
302 77 106 56 207 183 255 320 l13 36 -56 -33 c-134 -81 -274 -114 -522 -121
-280 -8 -359 11 -725 177 -378 172 -544 211 -970 229 -470 21 -833 116 -1280
336 -634 312 -1135 800 -1422 1381 -41 84 -74 160 -73 170 0 11 3 116 6 235 6
200 4 234 -26 477 l-31 261 4 483 c4 471 5 487 31 628 89 487 241 880 476
1231 113 168 179 247 331 393 433 417 968 666 1516 705 59 5 110 9 113 9 3 1
66 -3 140 -8z m-2341 -5119 c10 -6 51 -52 92 -103 41 -51 133 -153 204 -227
420 -433 945 -745 1538 -915 260 -75 424 -102 710 -116 441 -22 573 -53 962
-227 189 -84 354 -145 430 -158 89 -16 86 -45 -13 -143 -92 -90 -242 -209
-397 -314 -613 -415 -1212 -573 -1753 -462 -434 89 -1108 506 -1488 920 -151
165 -233 275 -341 458 -86 146 -84 125 -74 576 l8 395 37 149 c33 133 48 176
63 176 2 0 12 -4 22 -9z M5097 7820 c-735 -77 -1308 -498 -1672 -1229 -84
-168 -135 -292 -194 -474 -71 -219 -140 -507 -121 -507 4 0 24 28 45 63 131
213 414 525 670 737 501 416 1098 626 1655 580 533 -43 1045 -284 1495 -703
210 -195 399 -413 520 -600 28 -42 53 -77 56 -77 9 0 -17 132 -51 266 -133
516 -354 956 -647 1288 -254 289 -594 500 -962 597 -212 55 -570 82 -794 59z
m608 -249 c369 -69 672 -219 929 -461 169 -159 366 -435 366 -513 0 -20 -3
-37 -6 -37 -3 0 -47 31 -98 68 -384 287 -687 440 -1037 526 -586 144 -1181 47
-1746 -285 -92 -54 -326 -216 -403 -279 -62 -51 -80 -56 -80 -24 0 104 296
477 523 657 222 177 517 302 827 352 147 23 151 23 390 20 175 -2 250 -8 335
-24z M4335 6061 c-69 -17 -125 -62 -161 -131 -17 -30 -19 -59 -19 -215 0 -196
4 -214 64 -278 110 -119 309 -89 377 56 22 49 24 63 24 223 0 162 -1 172 -25
221 -49 98 -157 149 -260 124z M6215 6061 c-70 -18 -125 -63 -161 -131 -17
-30 -19 -59 -19 -215 0 -156 2 -185 19 -215 48 -90 119 -134 217 -135 56 0 73
4 115 30 30 19 60 49 79 79 30 49 30 49 33 224 4 198 -4 234 -62 294 -58 60
-149 88 -221 69z M3118 5601 c-21 -22 -38 -45 -38 -51 0 -5 -5 -10 -11 -10
-19 0 -5 -305 20 -440 27 -141 79 -342 126 -487 71 -215 314 -668 468 -873
289 -384 655 -659 1057 -793 348 -116 683 -128 1086 -38 325 72 659 270 933
550 85 87 243 279 298 361 194 292 361 673 452 1035 62 250 75 337 75 526 l1
175 -44 45 c-34 35 -42 40 -38 21 3 -12 1 -73 -4 -135 -55 -657 -257 -1215
-614 -1695 -91 -122 -324 -360 -435 -444 -499 -376 -1066 -489 -1617 -322
-622 188 -1157 732 -1446 1470 -120 306 -203 687 -225 1034 l-7 112 -37 -41z
M5021 4884 c-49 -41 -64 -147 -28 -195 37 -48 45 -49 337 -49 301 0 304 0 335
60 32 61 13 159 -37 194 -19 14 -65 16 -299 16 l-277 0 -31 -26z M4660 4338
c-94 -49 -131 -160 -84 -253 40 -79 227 -196 390 -244 301 -89 674 -52 909 91
150 91 195 146 195 239 0 101 -70 176 -172 185 -58 6 -85 -5 -191 -79 -124
-87 -338 -127 -522 -97 -128 20 -205 54 -334 144 -58 41 -129 46 -191 14z"/>
</g>
</svg>
