<?xml version="1.0" standalone="no"?>
<!DOCTYPE svg PUBLIC "-//W3C//DTD SVG 20010904//EN"
 "http://www.w3.org/TR/2001/REC-SVG-20010904/DTD/svg10.dtd">
<svg version="1.0" xmlns="http://www.w3.org/2000/svg"
 width="2048.000000pt" height="2048.000000pt" viewBox="0 0 2048.000000 2048.000000"
 preserveAspectRatio="xMidYMid meet">
<metadata>
Created by potrace 1.13, written by Peter Selinger 2001-2015
</metadata>
<g transform="translate(0.000000,2048.000000) scale(0.192120,-0.192120)"
fill="#000000" stroke="none">
<path d="M5015 8934 c-27 -2 -115 -9 -195 -14 -1013 -76 -1864 -423 -2435
-995 -213 -212 -364 -423 -495 -690 -118 -239 -193 -477 -237 -747 -25 -159
-25 -694 1 -913 53 -451 163 -789 307 -938 l48 -50 11 -211 c56 -1078 208
-1808 492 -2366 276 -541 693 -922 1253 -1144 419 -165 852 -241 1445 -253
1027 -20 1781 181 2325 620 112 90 286 273 379 397 363 486 577 1158 676 2120
23 225 50 596 50 688 l0 62 40 0 c106 0 202 179 265 493 56 285 79 571 80
1007 0 370 -5 423 -60 640 -83 328 -262 680 -493 970 -97 122 -349 374 -472
472 -582 462 -1302 742 -2150 833 -137 15 -713 28 -835 19z m825 -229 c534
-58 983 -179 1405 -380 357 -169 630 -360 901 -630 189 -188 276 -295 393
-484 119 -193 205 -391 256 -593 l25 -101 0 -628 0 -628 -25 -138 c-41 -223
-81 -345 -127 -384 -48 -42 -94 -17 -156 86 -62 103 -252 527 -449 1005 -115
279 -153 344 -220 379 -39 20 -101 12 -241 -34 -204 -66 -253 -76 -415 -82
-187 -7 -267 4 -452 64 -69 22 -214 95 -299 150 -85 55 -183 103 -211 103 -11
0 -27 -5 -35 -10 -20 -13 9 -43 140 -141 103 -79 290 -180 395 -215 169 -55
363 -79 523 -64 182 17 385 76 524 153 31 17 59 29 61 27 2 -3 30 -70 61 -150
200 -505 506 -1194 605 -1359 22 -37 59 -85 84 -108 l44 -40 -44 -42 c-24 -24
-43 -49 -43 -56 0 -7 -4 -15 -9 -17 -5 -1 -19 -118 -31 -258 -11 -140 -28
-304 -37 -365 -8 -60 -19 -155 -23 -210 -10 -115 -52 -388 -76 -484 -9 -36
-31 -115 -49 -176 -18 -60 -43 -146 -55 -190 -12 -44 -32 -114 -45 -155 -12
-41 -33 -111 -45 -155 -28 -101 -57 -170 -132 -320 -149 -298 -276 -455 -561
-692 -400 -333 -934 -525 -1638 -589 -224 -21 -758 -23 -964 -5 -651 57 -1121
200 -1510 459 -423 282 -698 651 -895 1202 -168 469 -248 941 -319 1880 -5 69
-13 116 -20 118 -6 2 -11 10 -11 18 0 8 -4 20 -10 27 -5 7 -21 27 -36 45 l-26
32 29 0 c65 0 99 53 132 207 153 723 527 1390 1009 1805 56 48 107 88 112 88
6 0 63 -47 128 -104 328 -292 590 -466 814 -540 136 -46 277 -32 359 36 62 52
119 187 119 284 0 30 2 54 5 54 3 0 59 -51 123 -114 339 -331 674 -565 887
-621 204 -53 326 19 392 230 15 49 18 94 18 240 0 99 -4 193 -8 210 l-9 30
-19 -25 c-28 -37 -46 -113 -53 -220 -5 -88 -29 -190 -63 -267 -47 -111 -205
-121 -394 -27 -144 71 -374 240 -585 428 -157 139 -229 174 -292 142 -27 -14
-132 -154 -132 -175 0 -11 -83 -87 -107 -100 -40 -20 -164 -13 -249 15 -169
54 -415 213 -659 424 -220 190 -277 205 -422 111 -243 -157 -632 -688 -817
-1115 -80 -183 -130 -323 -186 -514 -70 -242 -83 -263 -138 -217 -76 63 -153
279 -201 559 -19 109 -21 159 -21 630 l0 511 29 125 c143 620 549 1149 1170
1524 342 208 821 379 1286 460 182 32 454 64 630 76 203 13 732 4 905 -15z
M3156 5314 c-72 -23 -149 -103 -172 -179 -41 -144 31 -291 169 -342 23 -8 171
-12 512 -12 l480 -1 50 24 c57 26 117 87 141 143 9 21 17 67 17 104 2 110 -51
195 -157 252 -40 22 -48 22 -516 24 -401 2 -483 0 -524 -13z m972 -129 c78
-24 92 -44 92 -133 0 -74 0 -76 -39 -112 -60 -57 -101 -61 -558 -54 -213 3
-405 10 -426 15 -20 6 -53 26 -72 45 -33 33 -35 38 -35 103 0 85 14 105 90
131 51 18 90 19 476 20 350 0 429 -3 472 -15z M6513 5320 c-81 -19 -154 -83
-189 -166 -22 -50 -22 -156 0 -207 24 -56 84 -117 141 -143 l50 -24 480 1
c341 0 489 4 512 12 138 51 210 198 169 342 -14 45 -29 69 -70 110 -85 86 -82
85 -610 84 -248 -1 -465 -4 -483 -9z m941 -132 c22 -6 53 -20 69 -30 26 -19
27 -23 27 -103 0 -79 -2 -85 -30 -113 -18 -18 -48 -34 -77 -41 -29 -6 -214
-12 -468 -13 l-420 -3 -51 28 c-66 37 -84 69 -84 147 0 53 3 64 27 86 53 49
85 53 542 53 298 1 436 -3 465 -11z M3869 4487 c-96 -27 -178 -113 -198 -208
-16 -72 -14 -343 2 -406 18 -69 51 -116 112 -158 137 -95 316 -52 399 95 l31
55 0 215 c0 202 -1 217 -22 256 -35 65 -70 101 -127 129 -64 31 -136 39 -197
22z M6632 4482 c-71 -26 -118 -66 -156 -132 l-31 -55 0 -215 0 -215 31 -55
c114 -202 401 -191 498 19 19 42 21 63 21 251 0 188 -2 209 -21 251 -60 130
-212 197 -342 151z M4935 3496 c-181 -86 -214 -335 -61 -461 77 -63 92 -65
455 -65 365 0 386 3 459 66 151 129 117 375 -63 460 -50 24 -53 24 -395 24
-342 0 -345 0 -395 -24z M4403 2397 c-68 -25 -120 -73 -153 -141 -30 -60 -32
-72 -28 -133 9 -117 59 -185 213 -288 141 -93 287 -157 455 -199 171 -43 237
-51 445 -50 208 0 304 12 464 56 272 74 546 241 613 372 48 95 29 222 -45 304
-53 57 -107 84 -183 90 -81 6 -144 -15 -214 -73 -105 -86 -278 -159 -440 -185
-84 -13 -316 -13 -400 0 -160 26 -336 99 -435 181 -72 60 -118 79 -195 78 -36
0 -79 -6 -97 -12z m163 -281 c22 -7 73 -34 114 -58 91 -54 247 -128 280 -134
3 0 25 -7 50 -14 25 -8 52 -15 61 -16 9 0 22 -5 29 -9 18 -11 -5 -29 -27 -20
-17 7 -80 16 -130 19 -13 0 -23 4 -23 7 0 4 -12 7 -26 7 -34 0 -249 80 -299
111 -47 30 -105 85 -105 101 0 6 4 9 9 5 5 -3 12 -1 16 5 8 12 5 13 51 -4z
m1584 -14 c0 -30 -65 -81 -153 -122 -86 -40 -185 -76 -227 -84 -14 -2 -25 -5
-25 -6 0 -2 -84 -12 -110 -14 -39 -2 -29 18 18 35 26 9 47 15 47 13 0 -9 148
61 251 119 132 74 135 75 172 76 20 1 27 -4 27 -17z m-560 -223 c0 -14 -5 -19
-17 -17 -23 4 -28 25 -6 31 10 3 19 5 21 6 1 0 2 -8 2 -20z m-406 -8 c3 -5 -1
-12 -10 -15 -25 -10 -34 -7 -34 9 0 16 35 21 44 6z m336 -6 c0 -16 -9 -19 -34
-9 -20 8 -11 24 15 24 10 0 19 -7 19 -15z"/>
</g>
</svg>
