<?xml version="1.0" standalone="no"?>
<!DOCTYPE svg PUBLIC "-//W3C//DTD SVG 20010904//EN"
 "http://www.w3.org/TR/2001/REC-SVG-20010904/DTD/svg10.dtd">
<svg version="1.0" xmlns="http://www.w3.org/2000/svg"
 width="2048.000000pt" height="2048.000000pt" viewBox="0 0 2048.000000 2048.000000"
 preserveAspectRatio="xMidYMid meet">
<metadata>
Created by potrace 1.13, written by Peter Selinger 2001-2015
</metadata>
<g transform="translate(0.000000,2048.000000) scale(0.192120,-0.192120)"
fill="#000000" stroke="none">
<path d="M5175 9629 c-592 -32 -1230 -274 -1740 -658 -186 -140 -428 -376
-575 -561 -255 -320 -469 -739 -586 -1148 -72 -249 -113 -477 -149 -815 l-6
-57 -82 -37 c-396 -177 -854 -467 -1099 -695 l-58 -53 16 -85 c53 -296 337
-875 769 -1565 147 -236 377 -579 503 -753 43 -59 97 -146 120 -194 35 -73 54
-98 117 -155 42 -37 97 -95 123 -128 26 -33 79 -96 118 -140 l71 -80 -81 -23
c-530 -150 -970 -589 -1126 -1126 -57 -194 -62 -241 -67 -649 l-5 -377 3891 0
3891 0 0 309 c0 170 -5 355 -11 412 -58 573 -402 1071 -914 1323 -117 58 -301
126 -341 126 -9 0 15 33 58 83 40 45 94 109 120 142 26 33 81 90 121 127 62
56 82 82 118 155 24 48 77 135 119 193 265 365 607 902 838 1317 247 443 398
790 436 1003 l16 85 -53 49 c-243 227 -658 493 -1047 672 -74 35 -138 69 -142
76 -3 7 -11 66 -18 131 -14 146 -76 453 -130 650 -234 850 -743 1530 -1481
1978 -433 263 -983 443 -1414 464 -60 3 -128 7 -150 8 -22 2 -98 0 -170 -4z
m515 -328 c841 -135 1607 -618 2057 -1296 198 -299 393 -773 393 -955 0 -37
-3 -75 -6 -84 -3 -8 -36 -25 -72 -37 -37 -12 -145 -62 -241 -111 -208 -105
-221 -107 -301 -46 -184 141 -241 181 -324 227 -255 141 -566 228 -896 251
-80 6 -209 15 -288 20 -382 27 -768 148 -1332 420 -124 60 -251 116 -284 125
-144 41 -238 -18 -611 -385 -265 -260 -341 -329 -557 -508 -166 -137 -202
-162 -238 -162 -14 0 -99 36 -190 79 -91 43 -198 89 -237 102 l-73 23 0 71 c0
170 154 580 326 866 166 275 417 563 664 759 452 358 1029 598 1590 659 136
15 476 5 620 -18z m-1087 -1862 c376 -190 788 -341 1097 -403 151 -30 209 -37
426 -46 256 -11 386 -28 571 -75 206 -53 377 -128 543 -239 73 -48 242 -208
291 -275 l25 -34 149 90 c190 114 352 196 465 233 103 35 158 38 191 11 22
-17 23 -25 21 -112 -7 -253 -81 -616 -179 -878 -127 -341 -307 -534 -512 -549
l-68 -4 -18 -77 c-27 -114 -99 -333 -154 -469 -232 -564 -610 -1047 -1029
-1317 l-62 -40 0 -352 0 -353 76 0 76 0 -7 -52 c-33 -256 -308 -748 -753
-1348 -163 -219 -413 -540 -422 -540 -9 0 -236 287 -398 503 -423 562 -695
1030 -762 1309 -32 132 -33 128 55 128 l75 0 0 343 -1 342 -56 34 c-182 110
-454 360 -614 561 -270 342 -490 791 -603 1230 l-24 95 -54 8 c-158 22 -311
163 -425 392 -125 249 -236 720 -245 1034 -2 87 -1 95 21 112 14 12 39 19 63
19 92 0 357 -116 578 -254 l105 -65 30 37 c74 90 141 154 303 284 214 173 347
296 672 622 l254 255 71 -40 c38 -22 141 -76 228 -120z m-2496 -1516 c-8 -394
7 -1650 23 -1956 10 -196 35 -501 46 -562 8 -48 -7 -17 -120 242 -136 314
-155 350 -379 735 -201 345 -351 635 -442 853 -46 112 -65 181 -65 236 0 43 4
51 35 76 19 15 35 35 35 45 0 29 230 187 477 329 86 49 160 89 165 89 4 0 8 4
8 9 0 4 30 40 68 78 37 39 85 94 107 122 22 27 42 50 44 51 2 0 1 -156 -2
-347z m6578 197 c39 -41 88 -84 108 -95 20 -11 37 -24 37 -30 0 -5 49 -37 108
-69 127 -70 332 -203 454 -294 67 -50 88 -71 88 -89 0 -12 4 -23 9 -23 5 0 12
-12 15 -27 24 -111 -215 -622 -567 -1213 -44 -74 -92 -153 -107 -175 -51 -76
-130 -235 -226 -457 -53 -123 -103 -234 -110 -248 l-15 -25 5 30 c12 65 36
371 46 570 14 282 29 1493 23 1935 l-4 355 32 -35 c17 -19 64 -69 104 -110z
m-6353 -739 c12 -15 52 -71 88 -122 79 -114 191 -228 287 -291 81 -54 99 -78
148 -208 85 -225 125 -316 215 -495 167 -332 363 -612 597 -857 62 -64 113
-122 113 -127 0 -37 -98 -81 -431 -195 -267 -92 -421 -129 -539 -130 -80 -1
-102 2 -137 22 -90 48 -147 116 -242 292 -62 112 -84 178 -113 322 -22 111
-22 131 -26 966 -2 539 1 852 7 852 5 0 20 -13 33 -29z m6016 -991 l-4 -755
-32 -124 c-36 -138 -79 -233 -166 -363 -95 -144 -176 -198 -295 -198 -86 0
-286 50 -521 130 -282 95 -423 149 -450 173 -36 30 -24 54 78 160 157 164 267
303 393 497 153 236 311 564 410 849 32 92 65 139 117 165 133 67 274 205 392
381 18 28 42 61 54 73 l21 24 3 -129 c1 -70 1 -468 0 -883z m-4184 -1247 c-3
-16 -21 -70 -40 -122 -24 -67 -34 -111 -34 -153 0 -43 -4 -60 -15 -64 -10 -4
-15 -20 -15 -50 0 -33 -5 -47 -20 -56 -11 -7 -20 -24 -20 -37 0 -13 -12 -40
-27 -60 -27 -34 -28 -41 -27 -136 1 -87 6 -114 38 -210 87 -256 290 -612 499
-873 99 -123 125 -152 366 -395 l206 -209 -80 49 c-115 70 -909 599 -1115 743
-273 192 -537 386 -723 531 -170 133 -407 351 -407 373 0 7 13 22 30 34 64 48
47 99 -62 184 l-68 53 38 2 c266 18 436 64 987 264 204 73 460 158 483 159 8
0 10 -9 6 -27z m2591 -52 c127 -43 327 -113 445 -156 349 -125 514 -167 713
-182 l98 -8 -62 -45 c-115 -83 -136 -137 -74 -187 19 -15 35 -33 35 -39 0 -18
-216 -222 -345 -325 -169 -135 -471 -359 -735 -544 -247 -173 -1038 -702
-1165 -779 l-80 -48 205 208 c379 385 512 552 694 877 132 233 213 444 223
577 6 84 -1 106 -63 191 -23 32 -34 58 -34 82 0 19 -7 40 -15 47 -11 9 -15 32
-15 81 0 38 -4 77 -9 87 -12 22 -91 228 -91 236 0 16 63 -1 275 -73z m-3994
-906 c16 -9 82 -60 147 -113 351 -293 713 -555 1530 -1107 195 -131 373 -256
395 -276 40 -36 41 -38 24 -56 -17 -17 -82 -18 -1577 -21 l-1560 -2 0 274 c0
213 3 290 16 343 83 362 342 681 700 862 106 54 244 110 272 111 13 0 36 -7
53 -15z m5284 -15 c305 -121 539 -301 689 -529 79 -119 117 -200 157 -334 l29
-100 0 -298 0 -299 -1527 0 c-1029 0 -1540 4 -1565 11 -42 11 -46 24 -20 55
24 29 41 40 502 351 681 459 1102 763 1417 1026 88 74 167 137 175 140 30 12
71 5 143 -23z M4222 6148 c-56 -27 -109 -90 -127 -152 -21 -68 -21 -324 0
-392 39 -131 180 -203 316 -162 55 16 118 73 145 132 22 47 24 64 24 220 0
101 -5 185 -12 208 -15 51 -82 126 -133 149 -56 26 -157 24 -213 -3z M6205
6142 c-62 -34 -110 -96 -124 -162 -12 -55 -15 -281 -5 -343 4 -20 21 -61 38
-89 58 -97 170 -139 284 -107 61 17 142 96 160 155 16 54 16 353 0 406 -15 51
-82 126 -133 149 -63 29 -158 25 -220 -9z M5021 4937 c-38 -19 -63 -62 -68
-114 -7 -63 16 -116 59 -143 31 -19 50 -20 316 -20 245 0 288 2 312 16 42 25
60 64 60 129 0 65 -18 104 -60 129 -24 14 -67 16 -312 16 -205 0 -290 -4 -307
-13z M6202 4400 c-13 -5 -37 -21 -55 -34 -107 -82 -358 -132 -707 -143 -214
-6 -405 5 -572 33 -106 18 -261 66 -298 93 -106 76 -224 65 -284 -27 -48 -72
-43 -149 13 -222 72 -94 76 -102 77 -176 2 -71 4 -76 153 -381 91 -185 163
-320 181 -338 27 -27 37 -30 90 -30 53 0 63 3 90 30 18 19 57 91 99 185 61
139 71 155 92 154 13 -1 79 -7 147 -14 116 -11 272 -5 372 16 24 5 28 -2 89
-143 35 -81 70 -158 78 -171 37 -60 128 -79 190 -41 30 19 54 62 184 326 155
317 171 358 168 421 -2 31 6 50 42 100 24 35 54 82 67 105 61 114 -13 250
-144 262 -27 3 -59 0 -72 -5z m-1401 -351 c73 -17 153 -41 175 -54 40 -23 74
-74 74 -109 0 -9 -47 -121 -104 -248 -57 -128 -113 -255 -125 -283 l-22 -50
-78 160 c-225 467 -214 441 -207 478 9 49 45 99 86 119 45 23 43 23 201 -13z
m1298 4 c48 -37 66 -71 65 -126 0 -46 -17 -85 -141 -337 l-141 -285 -22 50
c-12 28 -69 157 -126 287 -100 226 -105 239 -94 272 13 40 68 93 108 103 263
67 303 71 351 36z m-691 -162 c2 -35 -2 -77 -9 -93 -11 -28 -14 -29 -67 -26
-52 3 -56 5 -64 33 -5 17 -5 58 -2 93 l6 63 67 -3 66 -3 3 -64z M6119 3121
c-204 -93 -422 -150 -659 -171 -146 -14 -286 -7 -459 21 -182 30 -286 63 -558
176 -10 4 -9 -4 2 -31 18 -42 19 -76 4 -110 -10 -22 -9 -28 12 -45 34 -29 167
-97 246 -127 153 -58 426 -104 614 -104 324 0 682 92 857 220 42 30 43 32 28
55 -20 31 -20 72 -1 119 8 20 12 36 8 36 -5 0 -47 -18 -94 -39z"/>
</g>
</svg>
