<?xml version="1.0" standalone="no"?>
<!DOCTYPE svg PUBLIC "-//W3C//DTD SVG 20010904//EN"
 "http://www.w3.org/TR/2001/REC-SVG-20010904/DTD/svg10.dtd">
<svg version="1.0" xmlns="http://www.w3.org/2000/svg"
 width="2048.000000pt" height="2048.000000pt" viewBox="0 0 2048.000000 2048.000000"
 preserveAspectRatio="xMidYMid meet">
<metadata>
Created by potrace 1.13, written by Peter Selinger 2001-2015
</metadata>
<g transform="translate(0.000000,2048.000000) scale(0.192120,-0.192120)"
fill="#000000" stroke="none">
<path d="M1320 10324 c-273 -42 -463 -131 -640 -301 -184 -175 -292 -378 -335
-627 -13 -78 -15 -441 -15 -3051 l0 -2962 82 -5 c48 -3 113 -16 155 -30 l73
-24 20 60 c80 240 275 430 527 517 94 32 104 33 248 33 175 1 231 -11 370 -79
144 -70 266 -184 354 -329 43 -72 89 -207 97 -285 4 -34 10 -63 13 -65 3 -2
35 18 71 45 166 125 391 186 590 160 41 -5 76 -9 77 -7 9 9 -133 136 -152 136
-11 0 -15 12 -15 50 0 34 4 50 13 50 12 0 47 34 47 45 0 3 -150 5 -334 5 -183
0 -354 3 -379 6 -45 6 -46 8 -64 58 -46 131 -261 266 -508 317 -82 17 -284 15
-370 -4 -253 -56 -450 -180 -490 -309 -18 -55 -18 -56 -63 -62 -57 -8 -196 -8
-243 0 -36 6 -36 7 -23 33 8 14 14 34 14 44 0 9 5 17 10 17 7 0 10 157 10 450
0 293 -3 450 -10 450 -5 0 -10 10 -10 23 0 12 -7 35 -15 51 -9 16 -13 32 -9
35 3 3 447 8 987 11 l982 5 -58 27 -58 28 -778 0 c-557 0 -780 3 -783 11 -2 6
-43 16 -91 22 l-87 10 0 38 c0 29 -5 39 -20 44 -19 6 -20 15 -20 346 0 191 -4
339 -9 339 -5 0 -12 16 -15 35 -4 19 -11 35 -15 35 -5 0 -25 25 -46 56 -43 66
-43 65 58 90 83 20 270 15 362 -10 82 -23 196 -78 270 -130 65 -47 162 -146
192 -196 20 -35 17 -35 128 14 502 222 1103 -156 1132 -713 l6 -107 46 -19
c84 -35 163 -87 238 -158 83 -79 131 -141 179 -231 19 -33 34 -55 34 -49 0 40
-52 250 -72 286 -31 56 -92 95 -238 152 -66 26 -122 50 -125 54 -5 8 292 21
494 21 l124 0 -6 30 c-18 87 -66 111 -237 118 -77 3 -135 10 -152 18 -15 8
-35 14 -45 14 -28 0 -68 55 -108 149 -73 169 -158 296 -271 403 -36 35 -91 86
-120 114 -30 28 -54 55 -54 61 0 29 71 33 526 33 271 0 464 4 464 9 0 5 121
11 278 13 232 3 282 6 307 20 38 21 60 45 73 84 l10 32 -1513 3 -1513 4 -39
41 c-46 50 -87 72 -148 81 -35 4 -45 10 -45 24 0 15 -8 19 -40 19 l-40 0 0 40
c0 29 -4 40 -15 40 -13 0 -15 43 -15 330 0 213 -4 330 -10 330 -5 0 -10 7 -10
15 0 9 -5 21 -10 28 -6 7 -30 44 -55 82 l-44 70 37 7 c20 4 731 7 1580 7
l1544 1 -24 28 c-30 37 -103 92 -122 92 -8 0 -16 6 -18 13 -4 9 -288 13 -1366
15 -1197 2 -1362 4 -1362 17 0 11 -12 15 -45 15 l-45 0 0 360 0 360 45 0 c38
0 45 3 45 20 0 20 7 20 1220 20 1078 0 1220 2 1220 15 0 8 7 15 15 15 18 0 29
8 98 74 51 49 52 49 27 57 -14 4 -661 7 -1438 8 l-1412 1 30 53 c17 28 39 68
48 87 9 19 20 37 25 38 11 6 9 720 -3 727 -5 3 -10 14 -10 23 0 10 -18 48 -40
86 -23 38 -38 76 -36 83 4 11 293 13 1636 13 l1630 0 0 29 c0 40 -40 94 -80
108 -27 9 -385 12 -1467 12 -1295 1 -1433 3 -1447 17 -9 9 -29 19 -44 23 -24
7 -27 12 -30 59 -4 60 13 103 87 225 77 126 168 210 315 291 66 36 204 82 291
96 52 9 1104 12 4026 11 3466 -1 3968 -3 4043 -16 201 -35 364 -126 526 -294
51 -53 87 -101 109 -147 69 -141 75 -185 35 -233 l-26 -31 -1491 -2 c-1415 -3
-1494 -4 -1525 -21 -37 -20 -72 -71 -72 -104 l0 -23 1655 0 c1414 0 1656 -2
1661 -14 3 -8 -5 -31 -19 -53 -13 -21 -28 -49 -32 -63 -4 -14 -13 -28 -19 -32
-17 -11 -15 -778 1 -798 7 -8 29 -45 48 -82 l35 -68 -1413 -1 c-776 -1 -1422
-4 -1435 -8 -22 -6 -21 -8 25 -54 26 -26 58 -50 70 -53 13 -4 23 -10 23 -15 0
-5 18 -9 40 -9 27 0 43 -5 46 -15 5 -13 150 -15 1220 -15 1207 0 1214 0 1214
-20 0 -13 7 -20 20 -20 20 0 20 -7 20 -360 0 -353 0 -360 -20 -360 -11 0 -20
-7 -20 -15 0 -13 -154 -15 -1325 -15 -1156 0 -1330 -2 -1362 -15 -19 -8 -48
-15 -64 -15 -16 0 -29 -4 -29 -9 0 -5 -10 -11 -22 -15 -13 -3 -43 -25 -68 -48
l-45 -43 1557 -5 c856 -3 1559 -7 1561 -10 3 -3 -17 -41 -44 -85 -27 -44 -49
-88 -49 -97 0 -10 -4 -18 -10 -18 -6 0 -10 -27 -10 -60 0 -33 -4 -60 -10 -60
-5 0 -10 -14 -10 -31 0 -22 -5 -32 -20 -36 -11 -3 -20 -13 -20 -22 0 -12 -16
-22 -52 -34 -82 -26 -201 -91 -284 -154 -145 -111 -152 -115 -219 -110 -33 3
-107 12 -165 22 -224 36 -484 -20 -662 -143 -101 -70 -137 -124 -145 -212 l-6
-57 -156 -6 c-86 -4 -479 -7 -873 -7 -495 0 -718 -3 -718 -10 0 -19 27 -64 52
-87 36 -33 120 -43 365 -43 142 0 223 -4 223 -10 0 -6 137 -10 390 -10 l390 0
16 -25 c12 -18 14 -35 9 -67 -13 -77 -55 -197 -80 -227 -14 -16 -25 -33 -25
-38 0 -6 -10 -14 -22 -20 -44 -20 -177 -143 -248 -228 -93 -112 -126 -133
-236 -152 -92 -15 -147 -37 -176 -70 -20 -22 -51 -103 -43 -112 3 -3 110 -5
236 -6 l231 0 23 58 c76 186 259 361 458 436 26 10 27 12 27 93 0 275 168 551
423 697 29 16 95 44 147 62 83 29 111 33 226 37 152 5 247 -14 371 -72 l71
-34 25 36 c91 136 244 251 406 307 70 23 237 52 247 42 3 -2 -16 -47 -42 -98
l-47 -94 -4 -126 c-4 -113 -3 -131 17 -173 12 -27 18 -51 15 -54 -4 -4 -317
-9 -697 -12 l-690 -5 34 -25 33 -25 360 -1 c198 -1 464 -5 592 -10 213 -6 232
-9 236 -26 3 -10 12 -18 21 -18 14 0 16 -41 16 -404 0 -395 0 -404 -20 -409
-16 -4 -20 -14 -20 -46 l0 -41 -97 -1 c-54 0 -120 -5 -148 -11 -32 -7 -331
-13 -830 -17 -774 -6 -781 -7 -860 -29 -44 -13 -82 -25 -84 -28 -2 -2 461 -4
1030 -5 569 0 1055 -4 1081 -7 l48 -7 -18 -30 c-15 -27 -17 -72 -17 -520 0
-457 1 -492 18 -517 l18 -26 -53 -7 c-29 -4 -375 -5 -768 -3 l-715 3 -60 37
c-78 48 -157 68 -270 68 -110 0 -191 -20 -268 -65 -58 -34 -60 -35 -212 -41
-128 -6 -153 -9 -144 -20 20 -25 11 -88 -26 -174 -38 -86 -81 -221 -66 -204 4
5 29 37 54 70 145 193 364 308 609 321 347 19 650 -155 795 -457 20 -41 37
-76 38 -77 1 -2 24 18 51 43 157 144 342 216 559 216 189 0 345 -52 490 -163
l65 -50 -3 3108 c-3 2858 -4 3113 -19 3173 -58 223 -142 381 -285 530 -160
169 -333 267 -572 328 -61 15 -367 16 -4086 18 -2211 1 -4031 0 -4045 -2z
m1263 -6741 c60 -5 67 -8 67 -28 0 -18 -14 -27 -82 -53 -106 -41 -178 -44
-198 -8 -16 32 -6 70 22 84 27 12 95 15 191 5z m6817 -43 c0 -5 7 -10 16 -10
15 0 6 -9 -80 -75 -11 -8 -39 -22 -63 -31 -57 -22 -95 -7 -134 54 -43 69 -38
72 122 72 86 0 139 -4 139 -10z M5080 9764 c-14 -2 -65 -9 -115 -15 -258 -31
-544 -122 -751 -240 -423 -242 -702 -614 -807 -1077 -19 -86 -22 -125 -22
-337 1 -201 4 -259 22 -360 47 -258 132 -425 218 -425 24 0 46 45 65 134 66
303 200 576 391 802 61 72 149 155 186 178 8 4 54 -25 120 -77 250 -196 419
-287 533 -287 87 0 128 63 114 172 l-7 53 89 -85 c240 -231 400 -339 454 -310
42 23 14 174 -61 321 -17 34 -28 63 -25 66 3 3 24 -11 46 -30 158 -135 556
-236 998 -254 l153 -6 165 -328 c197 -393 222 -423 292 -364 91 76 150 430
140 837 -5 175 -8 204 -36 308 -50 188 -108 313 -221 481 -185 276 -437 492
-751 643 -310 149 -584 207 -963 205 -111 -1 -213 -3 -227 -5z m623 -293 c229
-42 455 -124 633 -231 165 -100 233 -156 356 -299 151 -174 243 -333 293 -505
24 -84 25 -100 25 -337 0 -202 -2 -247 -13 -243 -7 2 -37 41 -66 86 -90 138
-187 227 -276 253 -24 8 -120 21 -212 30 -289 27 -444 57 -658 125 -237 76
-237 76 -342 -1 -59 -44 -73 -50 -105 -46 -20 3 -56 18 -80 35 -137 94 -198
102 -295 37 -110 -73 -166 -58 -400 101 -70 48 -151 98 -180 111 -117 54 -213
22 -367 -118 -74 -67 -206 -233 -258 -323 -115 -199 -118 -198 -118 42 0 199
8 254 56 387 56 155 212 387 341 505 232 213 611 366 1008 409 155 17 522 7
658 -18z M4416 7296 c-81 -30 -122 -98 -114 -187 9 -88 79 -149 173 -149 53 0
77 10 123 53 128 122 -14 344 -182 283z M6167 7296 c-78 -28 -117 -86 -117
-169 0 -62 25 -108 79 -144 40 -27 126 -31 170 -8 40 20 79 69 91 115 34 126
-101 250 -223 206z M3600 7048 c0 -126 6 -257 15 -320 38 -285 143 -553 311
-790 123 -173 374 -402 536 -488 l58 -31 0 -93 c0 -51 3 -134 6 -184 l7 -92
-340 0 c-347 0 -407 -5 -523 -42 -262 -83 -451 -276 -532 -540 -22 -71 -22
-88 -26 -603 l-3 -531 51 -18 c123 -44 276 -173 365 -305 157 -237 181 -545
61 -798 l-34 -71 54 -37 c128 -89 241 -246 295 -415 26 -79 31 -113 33 -198 1
-98 2 -103 21 -97 11 3 45 13 75 21 30 9 98 18 151 21 408 23 773 -262 855
-667 22 -109 15 -276 -15 -370 -11 -36 -21 -66 -21 -68 0 -1 149 -1 331 0
l330 3 22 55 c108 264 428 489 698 490 l55 0 11 93 c31 257 160 465 381 613 2
1 -10 29 -27 62 -44 88 -71 193 -78 304 -27 444 306 832 751 873 l76 7 0 747
c0 856 0 853 -84 1024 -82 169 -196 280 -371 362 -160 76 -175 78 -572 82
l-353 4 0 182 0 182 73 41 c407 234 719 676 818 1156 23 116 41 398 32 525
l-6 82 -47 -37 c-26 -20 -55 -53 -65 -72 -9 -19 -21 -43 -26 -52 -5 -10 -9
-26 -9 -36 0 -10 -7 -27 -15 -38 -8 -10 -15 -27 -15 -37 0 -9 -4 -25 -9 -35
-5 -9 -16 -82 -25 -162 -34 -304 -50 -351 -206 -606 -38 -62 -85 -143 -104
-182 -67 -133 -111 -182 -271 -304 -141 -106 -195 -180 -179 -245 6 -21 -1
-27 -70 -58 -105 -49 -235 -90 -368 -117 -98 -20 -142 -23 -338 -23 -195 1
-239 4 -328 23 -139 30 -250 66 -355 115 -71 33 -86 43 -82 58 10 31 -14 95
-53 143 -20 25 -82 82 -137 127 -180 146 -270 269 -421 569 -92 184 -155 413
-171 623 -3 43 -10 80 -15 83 -4 3 -8 25 -8 48 0 27 -6 48 -15 56 -9 7 -15 29
-15 51 0 22 -4 39 -10 39 -5 0 -10 5 -10 10 0 15 -97 100 -114 100 -3 0 -6
-96 -6 -212z m1080 -1933 c244 -82 446 -116 690 -117 243 -1 427 31 646 111
l102 38 -2 -62 c-1 -53 3 -68 27 -103 50 -71 66 -75 377 -84 313 -9 379 -20
515 -87 65 -33 87 -50 115 -90 19 -28 38 -50 43 -51 4 0 7 -5 7 -12 0 -6 13
-39 29 -72 34 -73 66 -177 81 -266 7 -43 10 -262 8 -660 l-3 -595 -30 -31
c-17 -17 -47 -36 -68 -43 -20 -7 -37 -19 -37 -26 0 -8 -9 -17 -21 -20 -21 -7
-111 -94 -138 -135 -15 -23 -16 11 -21 506 -5 489 -6 532 -23 557 -57 87 -177
87 -234 0 -17 -25 -18 -73 -23 -708 l-5 -682 -32 -37 c-18 -20 -35 -49 -39
-64 -3 -15 -8 -33 -10 -40 -7 -23 7 -61 24 -65 10 -3 -271 -5 -623 -4 -352 0
-628 2 -612 4 15 2 27 9 27 15 0 23 -77 86 -120 98 -63 17 -188 7 -294 -24
l-88 -26 -394 0 c-217 0 -394 -4 -394 -9 0 -4 -26 -11 -59 -14 -32 -2 -71 -12
-87 -21 -27 -14 27 -15 644 -16 l673 0 74 -50 c353 -238 518 -723 478 -1408
l-6 -112 -40 0 c-69 0 -99 -30 -164 -165 l-58 -120 -6 440 c-6 468 -10 513
-64 719 -70 271 -222 509 -399 627 -55 37 -62 39 -71 24 -21 -37 -59 -77 -80
-85 -12 -5 -264 -10 -561 -11 l-539 -3 -48 23 c-44 21 -107 88 -107 113 0 4
46 8 103 8 l102 0 -5 790 -5 790 -37 36 c-65 65 -164 55 -215 -23 -16 -25 -18
-64 -23 -428 -3 -220 -7 -394 -8 -388 -5 27 -66 151 -100 203 -20 30 -60 79
-89 108 -29 29 -53 59 -53 65 0 7 -13 21 -29 32 -28 18 -30 24 -36 110 -3 49
-5 272 -3 495 l3 405 39 77 c21 42 64 109 95 148 48 62 67 77 136 111 44 21
107 46 140 54 71 19 303 34 506 35 208 0 258 18 304 109 13 26 16 49 12 88 -3
29 -5 53 -3 53 1 0 49 -16 106 -35z m618 -3121 l60 -7 -24 -45 c-31 -57 -32
-136 -3 -223 71 -220 69 -202 69 -676 0 -237 -3 -438 -6 -447 -4 -11 -19 -16
-50 -16 -38 0 -44 3 -50 25 -3 13 -12 29 -20 36 -8 6 -14 24 -14 40 0 57 -52
243 -94 339 -61 139 -125 230 -245 351 -195 194 -382 279 -656 296 -49 3 -98
10 -108 15 -10 5 -43 44 -75 86 -62 85 -90 113 -171 175 -51 39 -53 42 -30 48
31 9 1336 11 1417 3z m1306 -4 c2 -3 -13 -41 -35 -84 -33 -67 -39 -87 -39
-145 -1 -109 -13 -143 -94 -249 -44 -57 -99 -148 -136 -222 -63 -128 -95 -171
-141 -195 -27 -14 -49 -5 -49 20 0 6 -9 18 -20 28 -16 13 -20 29 -20 74 0 71
-34 282 -61 382 -44 161 -113 264 -238 354 l-43 32 28 7 c34 7 840 6 848 -2z
M5394 2015 c-17 -13 -10 -14 76 -14 91 1 93 1 60 14 -47 18 -112 18 -136 0z
M5000 6577 c0 -47 33 -138 69 -191 34 -49 106 -99 166 -115 57 -16 173 -14
232 4 120 36 201 140 229 298 l6 37 -351 0 -351 0 0 -33z M4650 5890 c0 -62
65 -151 150 -209 114 -75 261 -111 487 -118 432 -14 704 101 758 320 l7 27
-701 0 c-698 0 -701 0 -701 -20z M333 2280 l2 -1025 28 -100 c106 -386 406
-686 795 -793 l97 -27 1844 -3 1844 -2 -40 29 c-23 16 -66 44 -95 60 l-55 31
-451 0 c-249 0 -452 4 -452 9 0 4 -19 11 -42 14 -23 3 -45 13 -50 21 -5 9 -13
14 -19 11 -5 -4 -9 0 -9 8 0 7 -13 23 -29 34 l-28 22 -7 -67 c-3 -37 -6 -86
-6 -109 0 -24 -4 -43 -9 -43 -5 0 -28 7 -52 17 -71 26 -316 34 -1299 38 -503
2 -949 6 -990 9 -136 9 -325 85 -475 191 -74 53 -198 181 -255 265 -92 135
-179 386 -180 518 0 28 -4 52 -10 52 -7 0 -10 192 -10 555 0 363 3 555 10 555
6 0 10 111 10 314 0 199 -4 317 -10 321 -5 3 -10 17 -10 31 0 13 -4 24 -8 24
-5 0 -16 15 -25 33 -15 30 -16 -39 -14 -993z M3110 1978 c0 -1155 0 -1178 20
-1231 74 -197 328 -263 484 -125 l46 40 0 396 c-1 358 -2 393 -15 357 -12 -31
-15 -102 -15 -322 l0 -283 -25 -6 c-21 -5 -25 -12 -25 -44 0 -33 -4 -39 -32
-51 -20 -9 -69 -14 -125 -14 -87 0 -93 1 -130 31 -21 17 -42 44 -46 60 -5 16
-14 43 -20 59 -7 20 -13 358 -19 1060 l-9 1030 -25 75 c-14 41 -33 91 -44 110
-19 35 -19 23 -20 -1142z M10292 3088 l-32 -63 0 -237 c0 -152 4 -238 10 -238
7 0 10 -192 10 -555 0 -363 -3 -555 -10 -555 -5 0 -10 -19 -10 -42 0 -103 -50
-296 -107 -409 -142 -287 -371 -469 -703 -560 -33 -9 -293 -14 -1010 -19
-1024 -7 -1267 -16 -1365 -50 -32 -11 -62 -20 -67 -20 -4 0 -8 46 -9 103 0 56
-4 122 -7 146 l-7 43 -42 -47 c-24 -25 -43 -50 -43 -56 0 -5 -9 -9 -21 -9 -12
0 -23 -8 -26 -20 -5 -19 -14 -20 -327 -21 -176 0 -357 -4 -401 -9 -44 -5 -114
-12 -156 -16 l-77 -7 -6 -47 c-6 -46 -8 -48 -49 -57 -29 -8 510 -10 1763 -9
l1805 1 97 27 c390 107 689 406 795 793 l28 100 3 790 c1 435 1 861 0 948 l-3
157 -33 -62z M7530 2668 c-8 -13 -23 -41 -33 -63 -10 -22 -23 -48 -28 -57 -5
-10 -9 -229 -9 -508 0 -320 -3 -490 -10 -490 -6 0 -10 -119 -10 -337 0 -320
-1 -340 -20 -368 -11 -16 -20 -42 -20 -56 0 -29 -41 -72 -84 -89 -37 -14 -151
-14 -196 0 -19 5 -54 10 -77 10 -39 0 -43 -2 -43 -24 0 -32 77 -100 137 -120
161 -55 335 25 393 181 20 53 20 73 18 999 -3 832 -5 942 -18 922z"/>
</g>
</svg>
