<?xml version="1.0" standalone="no"?>
<!DOCTYPE svg PUBLIC "-//W3C//DTD SVG 20010904//EN"
 "http://www.w3.org/TR/2001/REC-SVG-20010904/DTD/svg10.dtd">
<svg version="1.0" xmlns="http://www.w3.org/2000/svg"
 width="2048.000000pt" height="2048.000000pt" viewBox="0 0 2048.000000 2048.000000"
 preserveAspectRatio="xMidYMid meet">
<metadata>
Created by potrace 1.13, written by Peter Selinger 2001-2015
</metadata>
<g transform="translate(0.000000,2048.000000) scale(0.192120,-0.192120)"
fill="#000000" stroke="none">
<path d="M5045 9209 c-312 -26 -688 -117 -963 -231 -786 -326 -1304 -921
-1471 -1693 -42 -189 -53 -320 -56 -625 l-3 -295 126 -127 126 -127 -28 -633
c-14 -348 -27 -661 -26 -695 0 -54 -3 -63 -18 -63 -30 0 -142 72 -209 135
l-64 60 17 67 c16 64 16 68 -5 135 -11 37 -46 113 -76 168 -30 55 -88 165
-129 245 -183 360 -349 862 -296 895 5 3 25 -1 45 -9 30 -13 35 -13 35 0 0 7
2 14 5 14 3 0 47 -21 98 -46 50 -26 108 -48 128 -50 20 -2 41 -4 45 -5 35 -6
67 6 105 40 l44 38 -70 45 c-234 151 -497 268 -603 268 -16 0 -41 -9 -56 -21
-32 -25 -34 -72 -10 -200 98 -534 411 -1241 679 -1538 l35 -39 -15 -243 c-49
-803 -124 -2172 -125 -2294 -1 -39 -2 -41 -75 -82 -312 -179 -603 -548 -714
-908 -66 -212 -81 -352 -81 -756 l0 -309 3890 0 3890 0 0 313 c0 171 -5 354
-10 405 -37 350 -168 655 -397 925 -112 133 -247 244 -434 360 -26 15 -26 18
-33 159 -27 562 -83 1565 -130 2332 l-14 228 61 77 c212 265 449 723 587 1129
86 253 110 401 71 436 -44 40 -147 31 -323 -29 -114 -39 -363 -148 -396 -173
l-23 -18 38 -43 c43 -49 78 -57 153 -35 25 7 54 13 65 13 11 -1 64 15 118 35
103 38 127 43 127 25 0 -6 7 -17 15 -25 20 -20 12 -71 -31 -194 -82 -237 -236
-559 -372 -780 -129 -208 -147 -276 -107 -406 5 -17 -7 -37 -62 -94 -37 -40
-95 -96 -128 -123 -59 -49 -60 -50 -66 -26 -4 13 -7 65 -8 114 -1 100 -48
1207 -55 1297 -4 57 -4 57 42 100 26 24 79 58 119 77 l71 34 7 125 c9 143 0
346 -21 512 -80 629 -397 1177 -899 1555 -565 426 -1362 639 -2140 574z m671
-314 c527 -66 995 -247 1367 -527 160 -120 357 -336 473 -518 95 -149 191
-396 233 -597 19 -90 21 -136 21 -402 0 -171 -4 -310 -10 -323 -5 -13 -39 -54
-74 -93 -60 -65 -66 -69 -81 -54 -9 9 -39 83 -67 165 -95 285 -235 534 -423
752 -247 287 -527 452 -875 514 -145 25 -398 29 -730 9 -211 -12 -265 -12
-530 4 -323 19 -464 16 -645 -15 -362 -62 -667 -250 -929 -575 -100 -123 -171
-236 -249 -390 -77 -156 -117 -277 -146 -445 -21 -119 -44 -179 -66 -169 -23
10 -137 152 -146 181 -5 18 -9 181 -9 362 0 310 1 335 25 451 103 511 382 921
835 1225 296 199 679 348 1075 419 95 16 163 25 370 45 84 8 465 -4 581 -19z
m-627 -1331 c211 -15 244 -15 494 1 334 22 585 17 731 -15 308 -66 561 -235
766 -511 120 -162 259 -434 295 -579 66 -259 77 -990 30 -1920 l-16 -305 -48
-96 c-124 -245 -286 -465 -491 -669 -80 -80 -182 -172 -227 -205 l-82 -60 -1
-327 0 -328 356 0 356 0 -6 -37 c-3 -21 -26 -234 -51 -473 -67 -644 -175
-1562 -191 -1627 -6 -23 -7 -23 -70 23 -36 25 -89 56 -119 70 l-56 24 -1440 0
-1440 0 -47 -24 c-26 -13 -74 -45 -107 -70 -58 -43 -60 -44 -67 -23 -19 57
-238 2015 -238 2124 0 10 70 13 350 13 l350 0 0 328 -1 327 -82 60 c-45 33
-147 125 -227 205 -199 198 -356 410 -483 651 l-44 84 -11 235 c-28 544 -34
813 -29 1210 6 431 14 550 48 760 25 147 47 211 135 380 172 330 401 560 683
684 232 102 484 125 980 90z m2626 -2723 c18 -59 162 -216 222 -244 35 -16 35
-16 73 -685 23 -400 30 -595 30 -885 l0 -372 -75 -68 c-41 -38 -75 -74 -75
-81 0 -8 -7 -20 -16 -27 -15 -12 -16 -99 -13 -939 l4 -925 -302 -3 -303 -2 0
140 c0 96 11 234 35 438 73 625 116 1052 122 1187 5 136 5 141 -21 191 -37 73
-142 169 -206 188 -29 9 -119 18 -218 22 l-169 7 -7 60 c-8 75 -8 206 0 232 4
11 47 56 96 100 90 79 237 240 335 365 81 104 216 316 273 430 99 198 114 264
130 575 8 153 16 241 26 263 8 18 14 42 14 53 0 16 3 18 19 9 11 -5 22 -18 26
-29z m-4714 -103 c11 -11 19 -26 19 -32 0 -6 5 -96 10 -201 17 -302 41 -393
155 -597 142 -252 290 -445 518 -672 l150 -150 -6 -149 c-2 -81 -6 -150 -9
-152 -2 -2 -82 -8 -178 -13 -136 -7 -183 -13 -210 -27 -59 -30 -150 -115 -181
-169 -27 -49 -29 -57 -29 -172 0 -118 35 -490 105 -1115 27 -244 35 -351 35
-495 l0 -184 -296 0 -296 0 6 493 c3 270 8 688 11 927 l6 435 -38 55 c-21 30
-63 74 -93 97 -30 24 -61 49 -69 55 -23 19 -9 652 28 1243 17 275 34 515 37
533 5 27 14 36 55 53 57 25 158 127 204 207 17 28 34 52 39 52 5 0 17 -10 27
-22z m-355 -2310 c-3 -35 -24 -488 -46 -1008 -22 -520 -44 -964 -48 -988 l-7
-42 -75 54 c-41 29 -97 65 -123 80 l-48 26 -259 0 c-224 0 -260 2 -260 15 0
11 -12 15 -45 15 l-45 0 0 290 c0 329 7 377 79 553 95 234 224 411 424 582
151 130 202 221 179 323 l-10 43 61 31 c59 29 202 86 221 88 4 0 6 -28 2 -62z
m5466 28 c35 -13 91 -37 124 -54 l61 -31 -7 -41 c-20 -110 37 -203 219 -354
193 -161 337 -376 423 -630 53 -158 58 -198 58 -493 0 -266 0 -273 -20 -273
-11 0 -20 -7 -20 -15 0 -13 -35 -15 -259 -15 -163 0 -262 -4 -266 -10 -3 -5
-21 -10 -40 -10 -35 0 -124 -46 -207 -106 -35 -26 -49 -32 -53 -22 -3 7 -23
427 -45 933 -22 506 -43 971 -46 1033 -5 79 -3 112 4 112 7 0 40 -11 74 -24z
M4120 6423 c-27 -10 -65 -37 -96 -68 -74 -74 -84 -114 -84 -330 0 -203 10
-250 71 -319 63 -72 107 -91 209 -91 74 0 91 3 130 27 60 35 94 72 122 133 22
47 23 62 23 250 0 199 0 200 -28 257 -64 131 -208 189 -347 141z M6344 6424
c-60 -21 -119 -77 -151 -142 -28 -57 -28 -58 -28 -262 0 -203 0 -205 27 -256
28 -53 76 -102 131 -131 23 -13 55 -18 117 -18 102 0 146 19 209 91 61 69 71
116 71 319 0 216 -10 256 -83 330 -80 80 -190 106 -293 69z M5032 5239 c-144
-72 -159 -267 -26 -358 51 -35 93 -41 324 -41 231 0 273 6 324 41 133 91 118
288 -27 358 -40 20 -60 21 -298 21 -238 0 -257 -1 -297 -21z M4384 4260 c-51
-11 -98 -46 -123 -90 -31 -55 -27 -140 9 -189 72 -102 316 -194 630 -238 178
-25 682 -25 860 0 242 34 432 92 547 166 80 52 106 90 111 163 5 71 -8 107
-59 152 -64 58 -149 61 -224 7 -134 -96 -400 -144 -800 -145 -400 0 -640 41
-805 139 -61 37 -100 46 -146 35z M4320 3051 c6 -12 10 -45 9 -73 l-3 -52 69
-49 c260 -182 666 -271 1098 -238 328 24 577 102 775 241 l69 49 -5 49 c-2 27
1 59 7 71 7 11 9 21 6 21 -3 0 -40 -17 -83 -39 -169 -84 -343 -144 -547 -187
-148 -31 -450 -44 -611 -25 -216 25 -428 86 -639 183 -71 33 -136 62 -144 65
-11 5 -11 2 -1 -16z M4107 2513 c-12 -12 -7 -113 7 -147 25 -59 111 -127 317
-252 238 -144 456 -235 652 -271 124 -23 368 -23 495 0 205 38 487 158 735
314 206 131 239 167 245 275 3 41 0 74 -6 80 -8 8 -40 -10 -109 -60 -519 -370
-801 -484 -1163 -468 -321 13 -543 108 -1002 427 -86 60 -159 109 -161 109 -2
0 -7 -3 -10 -7z"/>
</g>
</svg>
