<?xml version="1.0" standalone="no"?>
<!DOCTYPE svg PUBLIC "-//W3C//DTD SVG 20010904//EN"
 "http://www.w3.org/TR/2001/REC-SVG-20010904/DTD/svg10.dtd">
<svg version="1.0" xmlns="http://www.w3.org/2000/svg"
 width="2048.000000pt" height="2048.000000pt" viewBox="0 0 2048.000000 2048.000000"
 preserveAspectRatio="xMidYMid meet">
<metadata>
Created by potrace 1.13, written by Peter Selinger 2001-2015
</metadata>
<g transform="translate(0.000000,2048.000000) scale(0.192120,-0.192120)"
fill="#000000" stroke="none">
<path d="M5175 9629 c-592 -32 -1230 -274 -1740 -658 -186 -140 -428 -376
-575 -561 -255 -320 -469 -739 -586 -1148 -72 -249 -113 -477 -149 -815 l-6
-57 -82 -37 c-396 -177 -854 -467 -1099 -695 l-58 -53 16 -85 c53 -296 337
-875 769 -1565 147 -236 377 -579 503 -753 43 -59 97 -146 120 -194 35 -73 54
-98 117 -155 42 -37 97 -95 123 -128 26 -33 79 -96 118 -140 l71 -80 -81 -23
c-530 -150 -970 -589 -1126 -1126 -57 -194 -62 -241 -67 -649 l-5 -377 3891 0
3891 0 0 309 c0 170 -5 355 -11 412 -58 573 -402 1071 -914 1323 -117 58 -301
126 -341 126 -9 0 15 33 58 83 40 45 94 109 120 142 26 33 81 90 121 127 62
56 82 82 118 155 24 48 77 135 119 193 265 365 607 902 838 1317 247 443 398
790 436 1003 l16 85 -53 49 c-243 227 -658 493 -1047 672 -74 35 -138 69 -142
76 -3 7 -11 66 -18 131 -14 146 -76 453 -130 650 -234 850 -743 1530 -1481
1978 -433 263 -983 443 -1414 464 -60 3 -128 7 -150 8 -22 2 -98 0 -170 -4z
m515 -328 c841 -135 1607 -618 2057 -1296 148 -224 275 -496 358 -770 32 -105
35 -129 33 -209 l-3 -91 -70 -25 c-38 -13 -148 -64 -243 -112 -177 -90 -217
-102 -265 -76 -12 6 -62 44 -112 83 -157 125 -258 186 -430 260 -253 108 -489
155 -866 175 -232 12 -353 28 -525 70 -274 66 -561 175 -925 351 -284 137
-351 159 -423 139 -78 -22 -188 -101 -334 -243 -75 -72 -211 -204 -302 -292
-152 -148 -546 -486 -597 -513 -40 -22 -77 -12 -233 62 -85 41 -193 87 -239
103 l-83 28 5 105 c4 94 11 123 59 270 145 435 367 798 678 1111 80 80 192
183 250 229 452 358 1029 598 1590 659 136 15 476 5 620 -18z m-1077 -1867
c366 -185 781 -337 1087 -398 151 -30 209 -37 426 -46 122 -5 269 -16 326 -25
305 -45 565 -141 788 -289 74 -49 242 -208 291 -275 l26 -35 89 56 c209 130
393 225 524 268 101 34 158 38 190 12 20 -16 22 -26 21 -111 -3 -241 -79 -615
-178 -880 -127 -341 -307 -534 -512 -549 l-68 -4 -18 -77 c-47 -202 -155 -491
-265 -711 -227 -453 -563 -847 -918 -1075 l-62 -40 0 -352 0 -353 76 0 77 0
-7 -52 c-33 -255 -311 -751 -754 -1348 -176 -238 -412 -540 -422 -540 -14 0
-378 469 -550 709 -340 476 -551 858 -610 1105 -32 130 -33 126 55 126 l75 0
0 343 -1 342 -56 34 c-182 110 -454 359 -614 561 -269 340 -486 781 -599 1215
l-28 110 -54 8 c-166 23 -323 174 -440 424 -118 253 -223 709 -229 1002 -2 87
-1 95 20 113 33 26 89 23 193 -12 107 -36 327 -146 458 -229 l95 -60 30 37
c70 87 140 153 303 284 214 173 347 296 671 622 l255 255 80 -45 c45 -25 148
-79 229 -120z m-2506 -1511 c-8 -394 7 -1650 23 -1956 10 -196 35 -501 46
-562 8 -48 -7 -17 -120 242 -136 314 -155 350 -379 735 -201 345 -351 635
-442 853 -46 112 -65 181 -65 236 0 43 4 51 35 76 19 15 35 35 35 45 0 29 230
187 477 329 86 49 160 89 165 89 4 0 8 4 8 10 0 5 27 37 61 72 33 34 81 88
106 120 25 32 48 58 51 58 3 0 2 -156 -1 -347z m6488 297 c71 -86 161 -175
198 -195 20 -11 37 -24 37 -30 0 -5 49 -37 108 -69 127 -70 332 -203 454 -294
67 -50 88 -71 88 -89 0 -12 4 -23 9 -23 5 0 12 -12 15 -27 24 -111 -215 -622
-567 -1213 -44 -74 -92 -153 -107 -175 -51 -76 -130 -235 -226 -457 -53 -123
-103 -234 -110 -248 l-15 -25 5 30 c12 65 36 371 46 570 15 289 29 1502 23
1940 -3 198 -3 358 0 355 3 -3 22 -25 42 -50z m-6199 -896 c97 -146 212 -268
319 -339 45 -29 89 -64 97 -77 14 -21 41 -89 134 -328 105 -274 313 -648 478
-860 90 -117 276 -328 316 -360 64 -51 65 -97 2 -129 -43 -22 -383 -145 -527
-191 -275 -87 -456 -108 -542 -62 -90 48 -147 116 -242 292 -62 112 -84 178
-113 322 -22 111 -22 130 -26 981 -3 769 -1 867 12 867 9 0 50 -52 92 -116z
m5952 -786 l-4 -903 -32 -124 c-18 -68 -49 -158 -70 -200 -55 -111 -147 -245
-199 -291 -131 -115 -294 -92 -908 127 -271 97 -295 109 -295 154 0 5 43 55
96 112 362 384 596 776 800 1337 47 129 69 158 145 199 144 77 244 176 373
368 44 68 85 123 89 123 4 0 6 -406 5 -902z m-4148 -1362 c0 -10 -43 -144 -55
-171 -26 -60 -35 -99 -35 -151 0 -30 -4 -54 -10 -54 -5 0 -10 -20 -10 -43 0
-31 -6 -49 -20 -62 -11 -10 -20 -27 -20 -38 0 -11 -11 -35 -25 -53 -52 -68
-50 -173 5 -341 81 -246 296 -625 506 -889 98 -124 294 -333 471 -504 81 -78
141 -138 133 -134 -78 39 -938 609 -1260 835 -269 188 -535 384 -723 530 -170
133 -407 351 -407 373 0 7 13 22 30 34 64 48 47 99 -62 184 l-68 53 38 2 c266
18 435 63 987 264 203 73 490 168 513 169 6 0 12 -2 12 -4z m2555 -86 c127
-43 327 -112 445 -155 349 -125 514 -167 713 -182 l98 -8 -62 -45 c-115 -83
-136 -137 -74 -187 19 -15 35 -33 35 -39 0 -18 -216 -222 -345 -325 -377 -301
-1203 -878 -1840 -1285 -234 -150 -234 -150 -39 43 334 330 467 483 611 698
283 425 434 817 365 952 -12 22 -33 54 -47 71 -17 21 -25 42 -25 69 0 27 -6
46 -20 58 -17 15 -20 31 -20 97 0 43 -4 86 -9 96 -13 24 -77 182 -86 211 -7
23 -6 23 31 17 22 -4 143 -43 269 -86z m-3994 -905 c16 -9 82 -60 147 -113
360 -300 704 -548 1601 -1154 189 -128 350 -243 358 -255 33 -49 84 -48 -1589
-51 l-1558 -2 0 274 c0 213 3 290 16 343 83 362 342 681 700 862 106 54 244
110 272 111 13 0 36 -7 53 -15z m5284 -15 c305 -121 539 -301 689 -529 79
-119 117 -200 157 -334 l29 -100 0 -298 0 -299 -1555 2 c-1468 3 -1555 4
-1572 21 -17 16 -16 19 12 46 17 16 230 164 475 328 700 471 1124 777 1447
1046 88 74 167 137 175 140 30 12 71 5 143 -23z M4222 6148 c-56 -27 -109 -90
-127 -152 -21 -68 -21 -324 0 -392 41 -139 203 -213 335 -153 60 27 98 64 126
124 22 47 24 62 24 225 0 163 -2 178 -24 225 -28 59 -76 108 -128 129 -54 23
-153 20 -206 -6z M6209 6142 c-66 -34 -114 -94 -128 -162 -12 -55 -15 -281 -5
-343 4 -20 21 -61 38 -89 58 -97 170 -139 284 -107 61 17 142 96 160 155 16
54 16 353 0 406 -15 51 -82 126 -133 149 -63 29 -151 25 -216 -9z M5009 4927
c-36 -24 -58 -71 -58 -122 0 -51 22 -98 58 -122 33 -23 39 -23 324 -23 l289 0
39 39 c37 37 39 42 39 101 0 70 -17 108 -60 134 -24 14 -67 16 -313 16 -279 0
-285 0 -318 -23z M6208 4401 c-15 -5 -42 -20 -60 -34 -108 -83 -357 -133 -708
-144 -214 -6 -405 5 -572 33 -106 18 -261 66 -298 93 -81 58 -156 67 -225 26
-49 -28 -69 -55 -85 -113 -15 -59 0 -108 62 -193 51 -69 52 -73 53 -144 2 -72
3 -74 150 -376 94 -192 161 -317 182 -339 31 -32 38 -35 93 -35 53 0 63 3 90
30 17 18 58 93 99 185 62 138 72 155 93 154 12 -1 77 -6 143 -12 110 -10 307
-3 378 13 20 5 28 -9 92 -156 83 -190 108 -219 191 -219 82 0 92 14 261 359
147 299 155 320 159 384 3 60 8 73 46 128 93 130 106 183 69 266 -33 73 -137
118 -213 94z m-1407 -352 c73 -17 153 -41 175 -54 40 -23 74 -74 74 -108 0
-13 -228 -539 -248 -571 -4 -8 -38 59 -231 461 -70 145 -73 168 -28 234 22 34
78 69 108 69 8 0 76 -14 150 -31z m1298 4 c41 -31 63 -68 68 -114 4 -40 -7
-68 -140 -339 l-145 -295 -22 50 c-12 28 -69 157 -127 287 -99 226 -104 240
-93 272 13 40 68 93 108 103 263 67 303 71 351 36z m-679 -62 c13 -24 13 -221
1 -221 -5 0 -11 -10 -13 -22 -3 -21 -9 -23 -69 -26 l-67 -3 -11 32 c-12 34
-15 216 -5 243 5 13 22 16 80 16 62 0 75 -3 84 -19z M6125 3121 c-286 -135
-656 -201 -965 -172 -218 21 -427 73 -621 156 l-78 34 19 -37 c32 -65 33 -77
5 -110 l-26 -31 43 -27 c346 -219 976 -265 1433 -104 89 31 198 85 242 120
l23 18 -25 16 c-38 25 -41 58 -11 116 14 27 25 50 24 50 -2 0 -30 -13 -63 -29z"/>
</g>
</svg>
