<?xml version="1.0" standalone="no"?>
<!DOCTYPE svg PUBLIC "-//W3C//DTD SVG 20010904//EN"
 "http://www.w3.org/TR/2001/REC-SVG-20010904/DTD/svg10.dtd">
<svg version="1.0" xmlns="http://www.w3.org/2000/svg"
 width="2048.000000pt" height="2048.000000pt" viewBox="0 0 2048.000000 2048.000000"
 preserveAspectRatio="xMidYMid meet">
<metadata>
Created by potrace 1.13, written by Peter Selinger 2001-2015
</metadata>
<g transform="translate(0.000000,2048.000000) scale(0.192120,-0.192120)"
fill="#000000" stroke="none">
<path d="M5080 8925 c-446 -55 -886 -238 -1275 -529 -142 -107 -400 -360 -505
-496 -365 -474 -583 -1033 -665 -1710 -22 -183 -31 -634 -16 -826 17 -212 53
-472 116 -829 73 -417 95 -597 96 -780 0 -165 -9 -244 -47 -382 -64 -238 -70
-457 -19 -703 5 -23 -2 -28 -102 -75 -206 -96 -399 -233 -554 -392 -188 -194
-289 -368 -355 -614 l-28 -104 -4 -578 -3 -577 3611 0 3611 0 -3 577 -4 578
-28 104 c-71 264 -191 459 -410 668 -59 56 -158 136 -220 178 l-114 77 14 51
c44 168 44 612 0 1092 -86 929 -103 1186 -121 1885 -17 633 -36 821 -116 1150
-220 904 -761 1606 -1524 1980 -237 116 -413 177 -650 225 -229 46 -470 56
-685 30z m370 -215 c465 -33 889 -198 1289 -498 126 -95 458 -416 533 -517
248 -333 434 -793 524 -1295 24 -138 26 -171 34 -662 9 -528 19 -795 46 -1158
17 -243 91 -1096 100 -1160 3 -25 9 -241 13 -480 l7 -435 37 -60 c20 -33 54
-80 76 -104 22 -24 41 -46 43 -50 2 -4 55 -51 118 -105 238 -203 347 -354 420
-584 l30 -92 0 -445 c0 -438 0 -445 -20 -445 -15 0 -20 -7 -20 -25 l0 -25
-942 0 c-519 0 -1217 -6 -1553 -12 -773 -16 -1166 -16 -1835 -1 -294 7 -952
13 -1462 13 l-928 0 0 484 c0 554 -2 539 92 716 113 211 256 361 495 520 62
41 113 78 113 82 0 4 15 28 34 52 19 25 46 70 61 101 l26 57 53 -129 c119
-294 279 -528 540 -789 450 -449 1086 -825 1541 -910 137 -26 496 -26 633 -1
389 73 733 220 1127 482 191 128 328 234 490 382 l111 100 92 7 c116 9 227 37
302 77 106 56 207 183 255 320 l13 36 -56 -33 c-134 -81 -274 -114 -522 -121
-280 -8 -359 11 -725 177 -378 172 -544 211 -970 229 -470 21 -833 116 -1280
336 -634 312 -1135 800 -1422 1381 -41 84 -74 160 -73 170 0 11 3 116 6 235 6
200 4 234 -26 477 l-31 261 4 483 c4 471 5 487 31 628 89 487 241 880 476
1231 113 168 179 247 331 393 433 417 968 666 1516 705 59 5 110 9 113 9 3 1
66 -3 140 -8z m-2341 -5119 c10 -6 51 -52 92 -103 41 -51 133 -153 204 -227
420 -433 945 -745 1538 -915 260 -75 424 -102 710 -116 441 -22 573 -53 962
-227 189 -84 354 -145 430 -158 89 -16 86 -45 -13 -143 -92 -90 -242 -209
-397 -314 -613 -415 -1212 -573 -1753 -462 -434 89 -1108 506 -1488 920 -151
165 -233 275 -341 458 -86 146 -84 125 -74 576 l8 395 37 149 c33 133 48 176
63 176 2 0 12 -4 22 -9z M5097 7820 c-652 -69 -1174 -405 -1542 -994 -189
-304 -345 -700 -430 -1099 -12 -54 -23 -82 -37 -92 -51 -35 -58 -60 -58 -218
0 -228 46 -478 141 -772 70 -218 245 -565 406 -808 178 -268 443 -534 698
-699 248 -161 550 -274 820 -307 357 -43 804 28 1097 175 337 169 634 432 874
774 176 251 337 593 438 930 76 255 126 538 126 717 0 130 -4 144 -52 198 -20
23 -33 57 -53 145 -151 672 -472 1255 -878 1597 -277 232 -582 372 -952 434
-139 23 -458 33 -598 19z m608 -249 c369 -69 672 -219 929 -461 106 -99 243
-270 319 -396 37 -62 49 -124 24 -124 -6 0 -46 25 -87 56 -710 534 -1414 699
-2147 504 -312 -83 -661 -264 -980 -507 -96 -73 -119 -81 -115 -39 11 101 273
428 480 598 234 192 528 321 852 373 147 23 151 23 390 20 175 -2 250 -8 335
-24z m-76 -597 c422 -62 845 -262 1226 -579 246 -204 601 -606 635 -718 25
-85 3 -346 -55 -632 -145 -718 -508 -1334 -1007 -1711 -246 -185 -523 -308
-813 -360 -123 -22 -422 -25 -535 -5 -416 72 -772 261 -1081 572 -451 455
-736 1085 -819 1813 -25 213 -26 306 -3 349 20 40 114 164 209 277 99 117 306
320 439 430 393 327 872 536 1321 579 125 12 348 5 483 -15z M4335 6061 c-69
-17 -125 -62 -161 -131 -17 -30 -19 -59 -19 -215 0 -196 4 -214 64 -278 110
-119 309 -89 377 56 22 49 24 63 24 223 0 162 -1 172 -25 221 -49 98 -157 149
-260 124z M6215 6061 c-70 -18 -125 -63 -161 -131 -15 -28 -19 -63 -22 -185
-5 -182 5 -237 55 -294 51 -61 104 -85 184 -86 56 0 73 4 115 30 30 19 60 49
79 79 30 49 30 49 33 224 4 198 -4 234 -62 294 -58 60 -149 88 -221 69z M5021
4884 c-49 -41 -64 -146 -28 -195 36 -48 49 -50 336 -50 178 0 278 4 292 11 75
41 79 194 7 244 -19 14 -65 16 -299 16 l-277 0 -31 -26z M4670 4345 c-74 -34
-112 -91 -114 -170 -1 -73 27 -120 110 -183 357 -273 973 -265 1322 17 57 45
82 96 82 164 0 71 -40 135 -102 166 -82 39 -134 27 -261 -62 -124 -87 -338
-127 -522 -97 -128 20 -205 54 -334 144 -52 36 -128 45 -181 21z"/>
</g>
</svg>
