<?xml version="1.0" standalone="no"?>
<!DOCTYPE svg PUBLIC "-//W3C//DTD SVG 20010904//EN"
 "http://www.w3.org/TR/2001/REC-SVG-20010904/DTD/svg10.dtd">
<svg version="1.0" xmlns="http://www.w3.org/2000/svg"
 width="2048.000000pt" height="2048.000000pt" viewBox="0 0 2048.000000 2048.000000"
 preserveAspectRatio="xMidYMid meet">
<metadata>
Created by potrace 1.13, written by Peter Selinger 2001-2015
</metadata>
<g transform="translate(0.000000,2048.000000) scale(0.192120,-0.192120)"
fill="#000000" stroke="none">
<path d="M5120 9473 c-346 -24 -620 -76 -890 -168 -418 -144 -753 -355 -1056
-667 -310 -319 -532 -700 -689 -1183 -106 -328 -190 -803 -205 -1160 -19 -465
-8 -1526 20 -1960 52 -795 183 -1286 384 -1436 67 -51 118 -63 223 -55 186 14
332 55 818 228 154 55 348 121 430 147 l150 47 3 65 2 64 -55 33 c-197 119
-433 341 -606 570 -191 252 -364 594 -455 898 l-27 91 -49 -14 c-32 -10 -79
-14 -132 -11 -68 2 -93 8 -151 37 -157 77 -294 271 -395 556 -34 97 -100 355
-100 390 0 12 20 52 44 89 80 123 85 220 17 379 l-40 92 36 3 c85 8 420 -151
656 -311 32 -21 60 -37 61 -35 2 1 13 25 26 51 53 112 139 203 359 379 193
156 172 135 726 681 l141 138 89 -52 c267 -155 697 -337 995 -422 235 -67 392
-92 645 -102 275 -10 447 -38 646 -105 321 -107 585 -300 709 -519 33 -59 37
-62 67 -57 18 3 52 18 75 34 227 154 590 330 664 320 l24 -3 -45 -130 c-76
-217 -73 -347 10 -475 20 -30 38 -65 41 -77 8 -30 -58 -255 -111 -383 -94
-222 -220 -380 -351 -442 -106 -50 -234 -51 -351 -2 -7 3 -13 -1 -13 -10 0
-30 -93 -294 -147 -416 -95 -215 -208 -407 -356 -605 -90 -120 -365 -388 -476
-465 -135 -94 -128 -85 -135 -166 l-7 -70 123 -38 c68 -21 278 -93 468 -161
530 -189 651 -220 855 -219 111 0 138 3 187 23 120 47 208 162 262 341 88 296
109 662 127 2200 5 465 13 888 17 940 9 104 1 146 -29 155 -10 4 -19 10 -19
15 0 5 -9 79 -20 164 -191 1492 -990 2451 -2266 2720 -284 59 -661 88 -924 69z
m465 -303 c590 -50 1070 -221 1468 -522 110 -83 292 -261 387 -378 241 -297
414 -671 531 -1145 28 -114 33 -151 37 -302 l4 -171 -89 -44 c-48 -25 -140
-72 -204 -106 -163 -87 -164 -87 -292 36 -189 181 -335 276 -566 366 -214 84
-449 127 -801 146 -422 22 -749 118 -1325 390 -275 130 -301 140 -354 140 -46
0 -141 -45 -211 -101 -30 -23 -172 -158 -315 -299 -143 -140 -332 -314 -420
-386 -88 -72 -200 -169 -249 -215 -97 -92 -120 -108 -154 -109 -12 0 -115 46
-228 103 l-206 102 5 145 c4 120 11 170 40 292 109 453 287 836 526 1138 71
88 249 269 338 341 401 329 923 526 1523 578 139 12 417 12 555 1z m-2955
-4276 c94 -82 205 -138 304 -155 41 -7 84 -20 95 -28 11 -9 67 -115 124 -236
133 -283 211 -416 362 -620 78 -106 228 -277 314 -360 45 -43 51 -67 22 -92
-23 -20 -49 -30 -333 -133 -452 -164 -627 -193 -721 -120 -67 53 -123 205
-188 513 -72 337 -69 306 -69 824 0 260 3 473 8 473 4 0 41 -30 82 -66z m5450
-547 c0 -647 -9 -769 -71 -1009 -31 -119 -69 -180 -133 -209 -52 -24 -181 -25
-295 -4 -163 31 -748 237 -802 282 -38 32 -34 40 95 173 255 263 447 559 622
959 76 173 88 186 181 194 119 11 232 60 338 145 28 22 53 38 57 35 5 -2 8
-257 8 -566z M9950 7218 c-86 -118 -220 -225 -435 -349 -145 -83 -327 -169
-696 -329 -378 -165 -345 -147 -324 -170 21 -23 108 -53 132 -46 10 3 36 7 58
10 57 7 152 42 365 134 301 129 532 248 710 366 91 60 96 62 133 45 31 -14 39
-54 67 -324 18 -176 20 -269 20 -791 0 -463 -3 -624 -15 -740 -62 -593 -195
-1141 -385 -1584 -161 -375 -294 -584 -645 -1015 -54 -66 -107 -140 -118 -164
-20 -46 -37 -201 -21 -201 23 0 331 365 500 594 232 312 438 729 568 1147 259
837 346 1919 236 2932 -30 270 -77 528 -100 542 -3 2 -26 -23 -50 -57z M649
7243 c-66 -174 -126 -707 -136 -1223 -17 -857 98 -1676 328 -2339 125 -362
304 -716 495 -982 88 -122 310 -397 424 -525 l105 -118 3 75 c4 112 -17 157
-149 324 -312 394 -396 519 -532 790 -236 471 -386 1006 -472 1680 -25 198
-25 206 -25 945 0 586 3 768 15 852 14 110 28 173 44 197 15 23 61 15 109 -19
289 -204 540 -344 872 -487 241 -104 308 -117 385 -75 28 15 50 33 50 41 0 8
-89 53 -223 111 -399 177 -646 307 -867 457 -130 89 -270 202 -340 272 -27 28
-55 51 -62 51 -8 0 -18 -12 -24 -27z M4335 6061 c-69 -17 -125 -62 -161 -131
-17 -30 -19 -59 -19 -215 0 -165 2 -183 22 -220 95 -176 337 -177 419 -1 22
47 24 63 24 222 0 162 -1 172 -25 221 -49 98 -157 149 -260 124z M6215 6061
c-70 -18 -125 -63 -161 -131 -15 -28 -19 -63 -22 -185 -5 -186 5 -238 58 -298
109 -123 290 -110 375 27 30 49 30 49 33 224 4 198 -4 234 -62 294 -58 60
-149 88 -221 69z M1373 5653 c-32 -11 -5 -160 71 -385 151 -453 426 -941 738
-1310 45 -54 83 -96 85 -94 3 3 -38 108 -109 276 -51 120 -73 193 -65 214 3 8
23 24 45 35 66 34 66 38 5 121 -114 156 -246 364 -393 620 -238 414 -329 540
-377 523z M9222 5614 c-66 -69 -137 -179 -311 -482 -169 -294 -237 -402 -371
-587 -50 -70 -89 -133 -86 -140 2 -7 24 -23 48 -36 61 -34 62 -63 3 -215 -26
-65 -60 -155 -76 -199 l-29 -80 57 60 c31 33 104 123 161 200 285 384 515 837
637 1255 45 154 55 239 31 259 -15 12 -22 8 -64 -35z M5020 4883 c-61 -55 -60
-166 1 -217 l31 -26 277 0 c303 0 305 0 336 60 32 61 13 159 -37 194 -19 14
-65 16 -300 16 l-278 0 -30 -27z M4664 4341 c-81 -37 -125 -130 -102 -218 20
-81 133 -172 307 -246 265 -114 627 -112 902 4 112 47 236 133 270 187 56 88
32 199 -54 259 -34 23 -51 28 -103 28 -54 0 -68 -4 -106 -32 -79 -58 -162
-101 -238 -123 -103 -30 -270 -37 -375 -17 -132 25 -179 46 -314 141 -55 38
-128 45 -187 17z m212 -237 c17 -13 34 -20 38 -17 3 4 6 -3 6 -15 0 -19 -3
-20 -24 -12 -13 5 -27 6 -30 3 -3 -4 -6 0 -6 7 0 7 -3 11 -6 7 -6 -6 -64 42
-64 53 0 14 55 -3 86 -26z m944 18 c0 -20 -74 -67 -89 -58 -5 4 -12 0 -14 -6
-3 -7 -6 -3 -6 10 -1 13 3 20 9 17 6 -3 10 -2 10 3 0 10 60 38 73 34 4 -1 7 3
7 8 0 6 2 10 5 10 3 0 5 -8 5 -18z m-883 -74 c-3 -8 -6 -5 -6 6 -1 11 2 17 5
13 3 -3 4 -12 1 -19z M6180 3316 c-279 -142 -547 -205 -864 -206 -309 0 -585
64 -858 201 -54 27 -102 49 -107 49 -5 0 -13 -10 -16 -21 -15 -48 182 -207
360 -290 338 -158 897 -160 1257 -4 104 45 239 134 309 205 57 56 58 58 46 89
-6 17 -14 31 -17 30 -3 0 -52 -24 -110 -53z M4310 3041 l0 -209 -427 -5 c-338
-3 -450 -8 -533 -21 -511 -83 -939 -291 -1246 -607 -182 -188 -285 -367 -350
-610 l-28 -104 -4 -577 -3 -578 3611 0 3611 0 -3 578 -4 577 -28 104 c-46 173
-117 321 -220 461 -53 73 -203 227 -285 294 -231 188 -555 343 -881 420 -224
53 -286 59 -747 63 l-431 5 5 97 c6 108 -5 311 -16 311 -21 0 -78 -50 -98 -85
-35 -62 -73 -189 -73 -244 0 -33 7 -63 22 -88 30 -54 124 -139 188 -171 l55
-27 435 -6 c524 -8 592 -17 843 -118 339 -136 625 -334 770 -533 46 -63 153
-242 178 -296 58 -129 59 -139 59 -634 0 -451 0 -458 -20 -458 -11 0 -20 -7
-20 -15 0 -13 -49 -15 -385 -15 -250 0 -385 -4 -385 -10 0 -5 -16 -10 -35 -10
-31 0 -35 3 -35 25 l0 25 -2500 0 -2500 0 0 -25 c0 -18 -5 -25 -20 -25 -11 0
-20 5 -20 10 0 6 -130 10 -370 10 -322 0 -370 2 -370 15 0 11 -11 15 -40 15
l-40 0 0 481 0 480 25 75 c60 178 161 343 289 469 178 176 445 336 733 440
212 75 303 86 793 94 496 8 474 3 588 119 94 96 92 92 92 172 0 79 -35 205
-73 262 -21 31 -80 78 -98 78 -5 0 -9 -94 -9 -209z"/>
</g>
</svg>
