<?xml version="1.0" standalone="no"?>
<!DOCTYPE svg PUBLIC "-//W3C//DTD SVG 20010904//EN"
 "http://www.w3.org/TR/2001/REC-SVG-20010904/DTD/svg10.dtd">
<svg version="1.0" xmlns="http://www.w3.org/2000/svg"
 width="2048.000000pt" height="2048.000000pt" viewBox="0 0 2048.000000 2048.000000"
 preserveAspectRatio="xMidYMid meet">
<metadata>
Created by potrace 1.13, written by Peter Selinger 2001-2015
</metadata>
<g transform="translate(0.000000,2048.000000) scale(0.192120,-0.192120)"
fill="#000000" stroke="none">
<path d="M4860 10319 c-246 -32 -506 -124 -695 -246 -54 -35 -64 -38 -100 -31
-69 12 -229 9 -316 -7 -470 -87 -828 -452 -904 -920 -21 -129 -21 -1892 0
-2065 28 -234 79 -409 180 -619 l65 -133 -48 -53 c-31 -35 -341 -551 -931
-1550 -486 -824 -893 -1518 -905 -1544 -32 -71 -30 -206 6 -283 102 -220 358
-270 520 -101 20 21 375 614 798 1333 419 712 769 1305 777 1318 l14 23 70
-38 c44 -23 71 -45 74 -58 26 -117 202 -874 255 -1096 l69 -285 -67 -290 -68
-289 -254 4 c-352 4 -482 -11 -627 -75 -171 -76 -322 -223 -410 -399 -96 -192
-133 -513 -88 -769 104 -597 533 -1075 1140 -1269 564 -180 1437 -279 2100
-237 643 41 1130 170 1700 450 110 54 268 138 350 188 l150 90 75 -20 c106
-28 321 -21 465 15 379 96 525 198 850 592 336 406 570 603 924 773 154 74
155 73 -9 98 -217 32 -470 1 -772 -95 -215 -69 -507 -204 -728 -337 -63 -38
-119 -71 -125 -73 -5 -2 23 31 63 73 223 236 335 545 358 991 6 127 -6 353
-27 500 -15 103 -16 105 -45 70 -60 -71 -109 -142 -233 -339 -255 -403 -369
-546 -676 -851 -231 -230 -285 -297 -350 -438 -33 -72 -77 -214 -89 -288 l-6
-35 -153 -37 c-430 -102 -777 -142 -1049 -119 -125 11 -338 39 -346 47 -1 1
35 40 81 86 97 97 153 187 199 320 l33 94 0 275 c0 261 -1 278 -23 342 -30 88
-107 195 -179 251 l-58 45 -76 327 -76 328 59 246 c32 135 106 451 164 701 58
250 106 455 107 456 1 0 28 15 60 33 31 18 61 31 66 29 5 -2 158 -300 339
-664 312 -623 334 -664 382 -707 30 -27 72 -53 103 -63 59 -20 157 -22 202 -4
63 24 1219 697 1261 733 62 55 106 148 112 241 6 95 -15 166 -72 244 -79 107
-219 155 -336 115 -30 -10 -253 -133 -494 -273 -304 -175 -441 -250 -444 -240
-11 33 -636 1280 -662 1320 -16 26 -54 70 -85 99 l-56 53 66 131 c73 149 134
325 164 472 39 195 43 311 38 1165 -4 872 -3 850 -57 1048 -155 573 -613 1029
-1184 1176 -191 50 -439 68 -616 45z m511 -337 c191 -45 347 -112 504 -216 98
-65 257 -217 324 -308 60 -83 145 -249 178 -348 l28 -85 3 -1025 c4 -1067 3
-1092 -39 -1222 -23 -73 -41 -108 -73 -137 -25 -23 -27 -23 -118 -13 -51 6
-126 14 -166 18 -77 6 -106 22 -95 52 4 9 41 62 83 118 88 115 143 206 204
336 47 102 107 272 126 358 16 77 10 889 -7 910 -89 109 -165 174 -221 189
-20 6 -131 22 -247 36 -262 33 -460 73 -633 131 -357 117 -583 275 -748 523
-119 180 -209 262 -269 247 -15 -4 -53 -33 -84 -64 -61 -63 -101 -136 -177
-322 -74 -180 -171 -316 -281 -391 -24 -17 -97 -57 -163 -89 -101 -50 -130
-71 -194 -135 -42 -41 -78 -86 -82 -100 -3 -14 -10 -25 -15 -25 -5 0 -9 -184
-9 -429 l0 -428 26 -104 c58 -229 167 -452 316 -642 87 -112 98 -135 74 -152
-27 -20 -350 -44 -371 -28 -24 17 -53 71 -74 133 -52 158 -51 142 -51 1304 0
1056 0 1084 20 1141 64 186 206 337 405 430 142 67 281 95 471 95 100 0 156
16 314 92 194 93 312 134 480 164 114 20 449 12 561 -14z m-1137 -557 c17
-146 124 -342 264 -482 308 -307 858 -502 1531 -542 72 -4 132 -9 133 -12 2
-2 0 -177 -3 -389 -7 -412 -9 -430 -66 -610 -103 -326 -366 -632 -678 -792
l-85 -43 0 -73 0 -73 413 2 c272 1 428 -2 458 -9 54 -13 130 -45 176 -73 l32
-20 -29 -53 c-34 -60 -40 -126 -16 -193 25 -71 597 -1206 642 -1274 58 -88
169 -191 229 -215 93 -35 167 -4 622 260 254 147 355 196 402 196 41 0 51 -11
51 -54 0 -47 -15 -68 -82 -114 -53 -36 -881 -515 -961 -556 -72 -37 -155 -46
-192 -22 -42 28 -81 97 -343 621 -270 539 -297 583 -425 686 -68 54 -122 73
-186 64 -60 -8 -105 8 -197 67 -165 108 -287 159 -430 179 -177 24 -365 -34
-599 -187 -122 -80 -139 -80 -268 4 -118 76 -258 144 -347 168 -76 20 -240 23
-314 5 -84 -20 -198 -69 -286 -122 -180 -109 -165 -104 -281 -109 -101 -5
-108 -7 -160 -41 -63 -42 -156 -133 -209 -204 -21 -27 -329 -545 -685 -1150
-674 -1146 -740 -1253 -780 -1279 -31 -20 -79 -21 -99 0 -20 19 -21 93 -2 137
7 18 374 644 816 1392 442 748 827 1405 856 1461 77 148 81 227 17 313 -29 37
-30 35 49 76 85 45 118 47 581 46 l437 -2 0 74 0 74 -52 24 c-29 13 -90 48
-137 77 -271 170 -476 432 -576 736 -55 168 -63 249 -67 655 l-3 363 72 19
c388 98 659 419 738 873 8 49 15 108 15 132 0 62 16 55 24 -11z m16 -3730
c144 -37 346 -161 469 -288 l44 -46 72 67 c121 113 275 210 410 258 30 10 91
19 152 22 85 3 114 1 175 -18 131 -40 287 -133 402 -240 l67 -64 -62 -28 c-83
-38 -125 -71 -149 -118 -11 -22 -38 -110 -59 -197 -74 -295 -91 -387 -91 -476
0 -76 4 -95 34 -164 31 -70 33 -79 18 -85 -20 -8 -1898 -10 -1928 -2 -20 5
-20 7 14 97 31 82 34 99 29 162 -5 71 -55 307 -109 515 -46 179 -79 224 -200
276 l-49 20 53 50 c117 111 260 200 392 245 95 33 222 38 316 14z m1253 -1697
c3 -51 13 -127 21 -168 22 -107 37 -280 28 -315 l-8 -30 -790 0 -789 0 -3 80
c-3 74 3 119 49 348 5 27 9 74 9 106 0 32 3 61 7 64 3 4 336 7 738 7 l733 0 5
-92z m190 -622 c13 -6 17 -21 17 -61 0 -72 13 -106 83 -209 33 -49 75 -121 93
-160 l34 -70 0 -231 c0 -202 -2 -239 -20 -300 -12 -39 -25 -110 -31 -160 -5
-49 -12 -105 -15 -124 l-7 -34 -12 29 c-21 50 -48 63 -206 103 -329 84 -897
299 -1509 571 -307 137 -296 133 -336 120 -40 -14 -74 -60 -74 -103 0 -57 46
-87 340 -215 681 -297 1180 -485 1530 -577 153 -40 176 -42 209 -19 23 16 23
16 15 -7 -5 -13 -9 -61 -9 -106 0 -74 3 -85 30 -124 73 -102 198 -134 530
-133 290 0 564 35 859 110 133 34 178 57 259 133 78 74 139 171 172 275 57
181 98 241 315 456 183 183 306 321 450 504 l85 109 3 -102 c3 -123 -4 -148
-120 -396 -74 -159 -80 -175 -81 -240 -1 -60 3 -76 27 -113 63 -100 113 -134
196 -133 78 0 150 24 369 123 169 76 211 89 211 68 0 -21 -34 -76 -84 -136
-28 -34 -76 -93 -106 -130 -81 -100 -207 -230 -272 -280 -121 -94 -290 -165
-475 -200 -71 -13 -123 -15 -271 -11 -220 7 -242 2 -437 -103 -452 -244 -709
-354 -1046 -449 -261 -74 -522 -118 -839 -142 -231 -17 -802 -6 -1050 20 -442
48 -855 132 -1113 225 -439 159 -746 469 -861 870 -25 85 -26 98 -26 362 0
252 2 280 21 336 24 72 58 134 109 200 49 63 83 90 171 137 121 65 168 73 479
81 162 5 291 13 314 20 66 20 156 117 175 188 6 21 15 28 42 33 52 10 1841 5
1862 -5z M4020 8093 c-101 -52 -105 -184 -8 -243 64 -39 146 -16 188 52 68
112 -63 252 -180 191z M5410 8093 c-101 -52 -105 -184 -8 -243 120 -73 261 77
184 195 -38 58 -116 79 -176 48z M4500 7518 c0 -18 13 -61 29 -94 47 -100 126
-146 248 -146 146 0 250 87 270 227 l6 45 -277 0 -276 0 0 -32z M4310 7027
c-19 -4 -39 -13 -44 -18 -6 -5 192 -9 510 -8 486 1 517 2 484 17 -30 14 -93
16 -475 17 -242 1 -456 -3 -475 -8z M4220 6932 c0 -12 9 -40 20 -61 35 -70
120 -126 245 -162 72 -21 100 -23 290 -23 190 0 218 2 290 23 161 47 265 134
265 223 0 21 -1 21 -16 -7 -77 -149 -317 -225 -642 -203 -174 12 -294 53 -375
127 -25 23 -52 56 -61 74 -14 28 -16 29 -16 9z M4314 6487 c3 -14 -1 -32 -9
-43 -8 -10 -15 -22 -15 -26 0 -10 137 -52 235 -73 44 -9 141 -19 216 -22 185
-8 312 11 465 68 53 20 54 20 38 45 -9 13 -14 35 -12 49 6 29 0 30 -66 10
-221 -67 -549 -67 -780 1 -70 20 -79 19 -72 -9z"/>
</g>
</svg>
