<?xml version="1.0" standalone="no"?>
<!DOCTYPE svg PUBLIC "-//W3C//DTD SVG 20010904//EN"
 "http://www.w3.org/TR/2001/REC-SVG-20010904/DTD/svg10.dtd">
<svg version="1.0" xmlns="http://www.w3.org/2000/svg"
 width="2048.000000pt" height="2048.000000pt" viewBox="0 0 2048.000000 2048.000000"
 preserveAspectRatio="xMidYMid meet">
<metadata>
Created by potrace 1.13, written by Peter Selinger 2001-2015
</metadata>
<g transform="translate(0.000000,2048.000000) scale(0.192120,-0.192120)"
fill="#000000" stroke="none">
<path d="M4860 10319 c-244 -31 -506 -124 -695 -246 -58 -37 -62 -38 -115 -30
-81 13 -273 1 -369 -23 -437 -107 -764 -462 -836 -905 -22 -133 -22 -1881 0
-2065 26 -227 91 -443 194 -649 l52 -102 -48 -53 c-32 -36 -337 -543 -923
-1535 -481 -816 -888 -1510 -905 -1544 -27 -55 -30 -72 -30 -152 0 -76 5 -99
27 -147 75 -161 238 -236 399 -183 112 37 92 7 882 1350 398 677 745 1268 772
1315 27 47 49 86 51 88 1 2 30 -11 64 -28 l63 -32 -6 24 c-36 144 -102 174
-213 97 -61 -42 -90 -71 -134 -128 -14 -18 -30 -38 -36 -44 -5 -7 -302 -507
-658 -1112 -651 -1105 -708 -1199 -772 -1273 -61 -72 -167 -82 -219 -21 -22
27 -25 39 -25 110 0 62 5 89 21 122 12 23 229 393 482 822 254 429 581 985
728 1235 147 250 307 522 356 604 171 288 197 356 168 437 -8 24 -17 48 -18
53 -3 12 68 59 120 79 82 32 221 40 610 35 319 -4 373 -2 373 10 0 10 5 12 18
7 61 -27 219 -76 287 -90 125 -26 341 -31 465 -10 105 17 226 53 292 86 44 22
48 23 48 7 0 -10 89 -13 412 -13 361 0 421 -2 475 -17 71 -20 132 -49 180 -84
31 -24 32 -25 17 -59 -18 -44 -18 -93 1 -149 18 -51 154 -310 195 -371 38 -55
87 -156 155 -315 88 -207 278 -579 326 -640 107 -136 181 -165 303 -120 30 12
198 103 373 203 175 100 338 192 363 204 91 44 174 51 228 17 20 -13 22 -22
22 -101 l0 -86 -43 -41 c-26 -25 -235 -151 -532 -323 -586 -336 -582 -334
-660 -340 -80 -6 -117 15 -173 98 -24 35 -149 276 -279 534 -246 491 -300 585
-368 641 -42 34 -102 64 -129 64 -27 0 -66 -44 -86 -98 l-20 -52 56 28 57 29
328 -659 c348 -696 364 -725 453 -767 23 -12 64 -25 92 -30 106 -20 118 -15
767 359 330 190 619 362 643 383 26 23 56 64 76 105 30 61 33 74 33 162 0 84
-3 102 -28 152 -74 151 -236 229 -377 181 -30 -10 -253 -133 -494 -273 -303
-175 -441 -250 -444 -240 -11 33 -636 1280 -662 1320 -16 26 -54 70 -85 99
l-56 53 66 131 c108 219 170 439 195 686 14 140 13 1601 -1 1729 -15 139 -35
231 -79 363 -177 534 -614 942 -1159 1085 -185 48 -435 66 -611 43z m392 -254
c216 -29 388 -88 576 -199 292 -171 492 -415 608 -741 l29 -80 3 -1069 2
-1070 -30 -110 c-34 -122 -71 -199 -110 -228 -25 -18 -30 -18 -114 -3 -49 8
-125 15 -170 16 -183 1 -265 17 -266 51 0 4 34 45 76 91 161 178 291 398 363
614 59 175 61 197 61 644 0 233 -4 409 -9 409 -5 0 -12 12 -16 27 -8 33 -73
96 -128 122 -30 14 -103 28 -248 45 -416 51 -682 119 -924 236 -250 121 -381
235 -542 475 -79 117 -161 200 -180 181 -12 -11 13 -128 42 -201 161 -403 617
-693 1280 -815 162 -30 327 -50 467 -57 70 -3 130 -9 135 -12 5 -3 5 -179 2
-391 -5 -308 -10 -400 -24 -460 -81 -361 -288 -664 -593 -869 -91 -61 -274
-147 -374 -175 -397 -113 -827 -47 -1163 177 -317 212 -534 544 -600 917 -24
132 -35 818 -14 823 8 3 48 14 90 25 277 77 503 280 625 562 46 106 91 283
100 395 7 86 7 87 -14 76 -54 -29 -108 -122 -206 -354 -63 -148 -139 -260
-236 -349 -50 -45 -99 -76 -210 -130 -117 -57 -155 -82 -202 -128 -32 -32 -58
-65 -58 -74 0 -9 -4 -16 -10 -16 -7 0 -10 -151 -10 -433 0 -428 0 -434 25
-531 65 -257 194 -496 383 -709 50 -58 92 -112 92 -121 0 -8 -8 -20 -18 -25
-11 -6 -118 -15 -238 -21 -120 -6 -234 -13 -252 -16 -28 -6 -37 -2 -66 31 -38
41 -75 134 -106 265 -19 82 -20 118 -20 1201 0 1089 0 1117 20 1174 68 197
219 360 434 465 141 70 226 90 431 100 94 4 185 13 203 18 17 6 103 44 190 85
211 101 360 146 567 170 77 10 245 6 347 -8z m78 -3570 c0 -44 -15 -62 -22
-27 -4 17 10 72 18 72 2 0 4 -20 4 -45z m-1098 -27 c-9 -20 -11 -18 -11 22 0
40 2 42 11 23 8 -17 8 -29 0 -45z M4020 8093 c-101 -52 -105 -184 -8 -243 64
-39 146 -16 188 52 68 112 -63 252 -180 191z M5410 8093 c-88 -46 -106 -152
-37 -220 68 -69 174 -51 220 37 21 40 18 97 -7 135 -38 58 -116 79 -176 48z
M4501 7505 c10 -54 49 -132 81 -162 74 -69 218 -87 320 -41 77 36 132 113 145
203 l6 45 -280 0 -280 0 8 -45z M4220 6976 c0 -13 15 -46 33 -72 79 -119 263
-184 523 -184 300 0 521 100 550 248 l7 32 -557 0 -556 0 0 -24z M3980 5695
c-86 -25 -135 -46 -215 -93 -75 -44 -249 -177 -287 -219 -17 -18 -12 -42 98
-519 63 -274 122 -521 130 -549 7 -27 29 -118 48 -202 l35 -152 -49 -208 c-27
-114 -52 -225 -56 -247 -6 -36 -6 -38 14 -27 46 25 139 122 165 173 39 77 67
198 67 289 0 103 -27 161 -130 277 l-78 87 525 3 c288 1 758 1 1044 0 l520 -3
-85 -92 c-115 -125 -126 -149 -126 -286 0 -124 20 -207 69 -292 28 -48 190
-239 197 -232 3 3 -63 307 -105 479 l-18 78 38 162 c20 90 94 406 164 703
l126 540 -63 58 c-143 130 -323 238 -454 271 -89 23 -207 21 -290 -5 -137 -42
-298 -140 -424 -257 l-75 -69 -67 63 c-128 120 -290 219 -432 263 -79 24 -213
27 -286 6z m260 -237 c66 -16 161 -66 288 -152 224 -153 253 -153 474 0 164
113 237 146 380 169 52 8 163 -12 233 -43 65 -28 165 -88 178 -106 15 -21 -1
-181 -32 -311 -98 -407 -107 -435 -157 -474 -27 -21 -29 -21 -851 -21 l-825 0
-28 30 c-36 39 -48 76 -111 340 -88 372 -91 411 -34 454 80 62 206 116 300
129 38 6 127 -1 185 -15z M8729 3938 c-59 -73 -82 -107 -218 -322 -255 -403
-369 -546 -676 -851 -231 -230 -285 -297 -350 -438 -33 -72 -77 -214 -89 -288
l-6 -35 -153 -37 c-430 -102 -777 -142 -1049 -119 -125 11 -338 39 -346 47 -1
1 35 40 81 86 97 97 153 187 199 320 l33 94 0 275 c0 261 -1 278 -23 342 -56
163 -195 295 -372 354 -52 18 -120 19 -1330 22 -823 2 -1314 -1 -1385 -8 -211
-20 -361 -87 -509 -229 -189 -182 -279 -429 -279 -761 1 -607 353 -1147 923
-1419 191 -90 406 -154 750 -220 832 -162 1713 -160 2390 5 394 97 867 295
1245 522 l150 90 75 -20 c106 -28 321 -21 465 15 379 96 525 198 850 592 336
406 570 603 924 773 154 74 155 73 -9 98 -217 32 -470 1 -772 -95 -215 -69
-507 -204 -728 -337 -63 -38 -119 -71 -125 -73 -5 -2 23 31 63 73 223 236 335
545 358 991 8 168 -22 562 -45 588 -4 4 -23 -12 -42 -35z m-3097 -789 c116
-25 192 -85 252 -202 l36 -68 0 -232 c0 -204 -2 -240 -20 -302 -12 -39 -25
-110 -31 -160 -5 -49 -12 -105 -15 -124 l-7 -34 -12 29 c-21 50 -48 63 -206
103 -329 84 -897 299 -1509 571 -307 137 -296 133 -336 120 -40 -14 -74 -60
-74 -103 0 -57 46 -87 340 -215 681 -297 1180 -485 1530 -577 153 -40 176 -42
209 -19 23 16 23 16 15 -7 -5 -13 -9 -61 -9 -106 0 -74 3 -85 30 -124 73 -102
198 -134 530 -133 290 0 564 35 859 110 133 34 178 57 259 133 78 74 139 171
172 275 57 181 98 241 315 456 183 183 306 321 450 504 l85 109 3 -102 c3
-123 -4 -148 -120 -396 -74 -159 -80 -175 -81 -240 -1 -60 3 -76 27 -113 63
-100 113 -134 196 -133 78 0 150 24 369 123 169 76 211 89 211 68 0 -21 -34
-76 -84 -136 -28 -34 -76 -93 -106 -130 -81 -100 -207 -230 -272 -280 -121
-94 -290 -165 -475 -200 -71 -13 -123 -15 -271 -11 -220 7 -242 2 -437 -103
-452 -244 -709 -354 -1046 -449 -261 -74 -522 -118 -839 -142 -231 -17 -802
-6 -1050 20 -442 48 -855 132 -1113 225 -439 159 -746 469 -861 870 -25 85
-26 98 -26 362 0 252 2 280 21 336 24 72 58 134 109 200 49 63 83 90 171 137
127 68 153 72 537 80 188 4 345 11 349 14 12 13 1867 8 1925 -4z"/>
</g>
</svg>
