<?xml version="1.0" standalone="no"?>
<!DOCTYPE svg PUBLIC "-//W3C//DTD SVG 20010904//EN"
 "http://www.w3.org/TR/2001/REC-SVG-20010904/DTD/svg10.dtd">
<svg version="1.0" xmlns="http://www.w3.org/2000/svg"
 width="2048.000000pt" height="2048.000000pt" viewBox="0 0 2048.000000 2048.000000"
 preserveAspectRatio="xMidYMid meet">
<metadata>
Created by potrace 1.13, written by Peter Selinger 2001-2015
</metadata>
<g transform="translate(0.000000,2048.000000) scale(0.192120,-0.192120)"
fill="#000000" stroke="none">
<path d="M4920 9460 c-875 -72 -1599 -338 -2170 -797 -623 -501 -1016 -1204
-1106 -1978 -20 -172 -14 -625 10 -835 54 -459 161 -783 307 -933 l57 -59 -6
-127 c-8 -210 31 -588 94 -901 225 -1119 784 -2068 1563 -2649 398 -296 807
-470 1296 -548 152 -24 583 -25 733 0 166 27 328 66 467 112 1102 367 1988
1446 2334 2845 102 410 173 978 144 1138 l-10 52 41 0 c24 0 53 8 71 20 99 65
192 343 239 715 31 239 40 416 41 755 0 382 -6 446 -70 695 -97 378 -307 788
-581 1130 -118 148 -380 408 -536 532 -424 339 -922 584 -1457 718 -364 91
-581 116 -1016 120 -187 2 -387 -1 -445 -5z m835 -265 c1110 -107 2097 -669
2648 -1510 133 -203 246 -442 310 -655 70 -230 68 -212 65 -886 -3 -582 -5
-614 -26 -729 -27 -141 -54 -241 -79 -293 -24 -49 -62 -55 -99 -15 -59 62
-262 528 -444 1018 -66 180 -104 255 -149 300 -83 85 -129 87 -336 16 -488
-167 -820 -124 -1200 156 -61 44 -129 90 -152 102 -90 45 -149 18 -204 -94
-26 -52 -32 -81 -39 -169 -11 -138 -50 -258 -98 -305 -34 -33 -36 -33 -106
-29 -169 12 -361 125 -711 418 -88 74 -184 150 -213 169 -67 43 -124 50 -170
22 -35 -23 -97 -112 -108 -157 -7 -28 -41 -85 -68 -116 -46 -51 -255 14 -487
152 -121 72 -300 195 -464 320 -150 114 -249 165 -303 158 -182 -25 -539 -391
-784 -803 -177 -297 -289 -554 -402 -916 -19 -63 -44 -123 -54 -132 -17 -15
-20 -15 -41 0 -54 37 -122 253 -161 510 -20 132 -21 170 -17 624 l3 484 32
130 c83 347 212 630 416 919 387 550 1007 967 1736 1167 341 93 662 142 1075
163 125 6 474 -4 630 -19z m-2336 -2308 c252 -210 571 -427 780 -531 237 -119
429 -139 509 -53 57 60 77 170 58 311 l-8 59 134 -126 c606 -573 1023 -754
1200 -522 86 114 117 337 81 602 l-6 48 88 -93 c207 -219 465 -356 742 -393
104 -14 303 -6 413 16 118 23 260 72 377 130 60 29 108 52 109 52 0 -1 26 -76
58 -167 245 -697 551 -1369 647 -1420 19 -11 18 -13 -18 -37 -45 -30 -83 -71
-83 -90 0 -7 -4 -13 -10 -13 -5 0 -10 -25 -10 -55 0 -79 -28 -320 -45 -385
-14 -53 -84 -432 -106 -575 -28 -180 -94 -377 -215 -647 -53 -117 -127 -280
-164 -363 -37 -82 -80 -175 -95 -205 -67 -133 -283 -439 -415 -589 -127 -143
-467 -435 -652 -559 -460 -308 -929 -455 -1453 -455 -433 -1 -800 89 -1193
293 -364 189 -762 517 -988 815 -231 304 -299 413 -470 748 -218 430 -375 944
-449 1476 -23 162 -45 396 -45 477 0 43 -4 74 -10 74 -5 0 -10 7 -10 15 0 8
-20 36 -44 62 l-45 48 33 18 c18 11 40 31 49 46 8 14 38 118 66 231 160 651
444 1187 843 1592 88 89 247 228 262 228 4 0 42 -29 85 -63z M3857 5316 c-98
-35 -166 -111 -187 -210 -8 -33 -10 -157 -8 -361 3 -302 4 -311 27 -363 43
-96 145 -162 251 -162 75 0 139 27 197 85 80 80 83 99 83 470 0 371 -3 390
-83 470 -79 78 -184 105 -280 71z M6620 5313 c-26 -9 -66 -38 -96 -68 -81 -80
-84 -99 -84 -470 0 -356 4 -383 71 -459 53 -60 107 -87 185 -94 118 -9 218 48
271 156 l28 57 0 340 c0 324 -1 342 -21 385 -30 65 -70 107 -128 137 -65 33
-161 40 -226 16z M4944 3641 c-186 -85 -225 -334 -72 -465 73 -63 94 -66 458
-66 364 0 385 3 458 66 153 131 114 380 -72 465 -38 17 -70 19 -386 19 -316 0
-348 -2 -386 -19z m648 -217 c23 -4 40 -13 43 -24 19 -60 -43 -75 -310 -75
-226 0 -299 11 -310 46 -8 23 1 38 29 49 24 10 492 13 548 4z M4385 2526 c-60
-27 -107 -72 -138 -130 -17 -32 -22 -58 -22 -121 0 -70 4 -87 29 -132 80 -144
396 -319 694 -383 279 -60 605 -50 872 27 254 73 519 233 584 353 106 194 -50
430 -270 407 -61 -6 -98 -24 -179 -85 -80 -60 -220 -125 -326 -151 -185 -46
-412 -46 -598 -1 -107 27 -268 104 -341 164 -95 79 -207 98 -305 52z m216
-259 c35 -18 102 -54 149 -80 187 -101 381 -143 629 -134 241 9 389 51 601
172 107 61 159 80 196 71 27 -7 32 -38 13 -78 -33 -71 -275 -189 -483 -238
-276 -64 -629 -50 -886 36 -234 79 -404 200 -370 264 17 31 76 26 151 -13z"/>
</g>
</svg>
