<?xml version="1.0" standalone="no"?>
<!DOCTYPE svg PUBLIC "-//W3C//DTD SVG 20010904//EN"
 "http://www.w3.org/TR/2001/REC-SVG-20010904/DTD/svg10.dtd">
<svg version="1.0" xmlns="http://www.w3.org/2000/svg"
 width="2048.000000pt" height="2048.000000pt" viewBox="0 0 2048.000000 2048.000000"
 preserveAspectRatio="xMidYMid meet">
<metadata>
Created by potrace 1.13, written by Peter Selinger 2001-2015
</metadata>
<g transform="translate(0.000000,2048.000000) scale(0.192120,-0.192120)"
fill="#000000" stroke="none">
<path d="M5274 10288 c-131 -139 -352 -533 -785 -1398 -358 -717 -911 -1880
-1249 -2628 -48 -105 -70 -144 -85 -147 -11 -2 -94 -18 -185 -36 -306 -59
-626 -147 -874 -240 -139 -52 -341 -142 -366 -162 -13 -10 -14 -41 -10 -200
l5 -187 50 82 c63 104 116 157 185 185 175 70 500 170 766 234 185 44 194 45
194 23 0 -12 7 -14 28 -10 109 23 126 11 68 -47 -51 -52 -72 -104 -88 -221 -3
-16 -38 -26 -253 -73 -195 -42 -796 -190 -933 -229 l-22 -6 0 -334 0 -333 28
-15 c38 -19 254 -91 399 -132 160 -45 255 -67 506 -119 205 -42 209 -43 203
-22 -34 124 -32 519 3 717 33 192 82 326 142 395 23 25 30 40 21 43 -17 5 -56
83 -45 92 8 7 421 72 658 104 1058 143 2355 141 3425 -4 285 -39 723 -111 734
-121 5 -4 -1 -20 -13 -35 l-22 -28 68 -31 c169 -79 240 -240 230 -520 -6 -159
-29 -267 -82 -380 -31 -68 -103 -175 -117 -175 -20 0 -17 62 8 187 25 121 28
159 28 313 -1 205 -13 263 -92 437 -27 59 -52 116 -55 125 -6 17 -8 17 -40 1
l-34 -18 32 -65 c76 -151 114 -347 122 -630 5 -177 -4 -336 -23 -407 -6 -21
-2 -20 203 22 737 152 1201 332 1392 541 116 127 128 250 39 416 -180 338
-857 655 -1793 838 -87 17 -160 32 -161 33 0 1 -34 74 -74 162 -581 1278
-1385 2932 -1703 3500 -200 357 -329 545 -377 545 -9 0 -34 -19 -56 -42z m98
-395 c40 -43 129 -198 310 -543 353 -672 710 -1406 1295 -2665 270 -579 257
-554 303 -622 49 -74 209 -223 239 -223 6 0 11 -6 11 -14 0 -21 -92 -19 -310
8 -278 35 -332 38 -447 27 -82 -8 -153 -7 -350 9 -445 34 -757 43 -1283 36
-272 -3 -551 -11 -620 -17 -69 -6 -278 -12 -465 -13 -320 -2 -354 -4 -576 -34
-238 -33 -334 -38 -346 -18 -4 5 -1 12 5 14 16 5 110 78 155 121 67 63 112
147 320 596 575 1238 980 2076 1305 2700 269 518 360 665 411 665 10 0 29 -12
43 -27z m-2252 -4078 c0 -8 -4 -15 -10 -15 -5 0 -10 7 -10 15 0 8 5 15 10 15
6 0 10 -7 10 -15z m-40 -11 c0 -8 -4 -12 -10 -9 -5 3 -10 10 -10 16 0 5 5 9
10 9 6 0 10 -7 10 -16z m4878 -19 c344 -82 793 -235 1020 -349 181 -91 390
-247 435 -325 10 -17 16 -31 14 -31 -3 0 -94 27 -203 61 -398 121 -795 225
-1179 309 -104 23 -197 43 -206 46 -12 3 -18 22 -23 65 -7 73 -33 132 -75 176
-46 48 -41 57 29 50 47 -4 60 -2 60 9 0 18 2 18 128 -11z m-4977 -372 c-11
-16 -40 -53 -66 -83 -60 -73 -109 -172 -132 -267 -29 -126 -25 -359 11 -542
15 -79 25 -155 21 -169 l-6 -25 -29 29 c-77 78 -148 253 -171 420 -22 170 -1
362 53 467 56 110 185 194 301 196 l38 1 -20 -27z m-617 -350 c15 -185 6 -372
-21 -412 -1 -2 -86 20 -188 49 l-185 53 0 143 0 143 38 11 c35 11 331 87 343
89 3 1 9 -33 13 -76z m6176 16 c443 -113 495 -132 467 -170 -41 -54 -335 -169
-615 -240 -81 -21 -94 -22 -102 -9 -5 8 -10 119 -10 248 0 179 3 232 13 232 6
0 118 -27 247 -61z M1332 9490 c-216 -30 -409 -141 -547 -315 -55 -69 -127
-213 -151 -300 -21 -82 -29 -265 -15 -349 28 -163 112 -326 231 -448 37 -39
64 -76 70 -98 5 -19 61 -236 124 -482 l116 -448 0 -2262 c0 -2157 0 -2263 -17
-2266 -147 -23 -299 -103 -386 -203 -94 -107 -136 -231 -144 -419 -6 -142 5
-235 44 -362 l26 -87 -26 -63 c-15 -35 -31 -83 -37 -108 -5 -26 -10 -238 -10
-497 l0 -453 4305 0 4305 0 0 309 c0 328 -9 461 -41 606 -127 573 -552 1041
-1110 1224 -168 55 -274 72 -494 78 l-200 5 -18 -63 c-21 -72 -89 -221 -140
-307 -31 -52 -35 -67 -41 -158 -21 -349 -205 -597 -481 -647 l-70 -13 -7 -90
c-16 -220 -115 -366 -288 -426 -85 -30 -279 -32 -379 -4 l-65 18 -33 -41 c-72
-86 -225 -165 -383 -197 -222 -45 -495 31 -643 179 l-57 57 -63 -17 c-42 -11
-102 -17 -187 -17 -105 -1 -135 3 -190 22 -173 59 -272 206 -288 426 l-7 89
-70 14 c-279 54 -460 298 -481 647 -6 91 -10 106 -41 158 -51 86 -119 235
-140 307 l-18 63 -195 -5 c-145 -3 -222 -10 -302 -26 -193 -39 -414 -126 -567
-224 l-55 -35 -26 37 c-68 94 -198 174 -341 210 l-74 19 -5 988 c-3 544 -6
990 -8 992 -5 7 -98 -11 -122 -23 -14 -7 -37 -27 -52 -44 l-28 -31 0 -864 0
-864 -25 -6 c-21 -5 -25 -12 -25 -41 0 -31 -3 -35 -25 -35 -22 0 -25 4 -25 36
0 27 -5 37 -19 41 -20 5 -19 -131 -39 3333 l-7 1125 -53 200 c-99 372 -121
446 -158 517 -8 16 -14 31 -12 33 2 1 25 -3 51 -10 l48 -12 -24 26 c-14 14
-45 64 -69 111 -24 47 -61 116 -82 153 -50 92 -46 102 26 71 230 -97 435 -60
603 111 77 78 122 147 166 255 27 68 29 80 29 215 0 97 -5 163 -16 204 -9 36
-12 67 -7 76 13 22 102 -70 142 -145 l31 -58 0 -210 c0 -156 -4 -220 -14 -250
-15 -42 -78 -142 -154 -247 -24 -33 -59 -89 -78 -125 -47 -89 -70 -129 -87
-148 -30 -36 -27 -39 21 -27 26 7 48 12 50 10 1 -1 -13 -35 -32 -76 -47 -102
-56 -133 -131 -421 l-65 -254 0 -681 c0 -584 2 -685 15 -709 8 -16 15 -25 15
-21 0 4 15 -3 33 -17 18 -14 51 -28 73 -32 40 -6 41 -5 48 26 3 18 6 327 6
687 l0 654 126 487 126 487 62 65 c100 105 163 209 206 345 34 106 39 310 11
427 -59 250 -216 446 -446 559 -140 68 -325 99 -473 79z m121 -300 c107 -40
195 -129 240 -244 16 -38 21 -75 21 -146 1 -88 -2 -101 -33 -167 -80 -171
-247 -263 -438 -241 -173 19 -327 172 -351 348 -29 212 98 405 308 466 62 19
182 11 253 -16z m113 -6645 c14 -3 23 -15 28 -35 14 -72 97 -160 199 -212 194
-98 279 -118 346 -84 43 23 47 21 70 -27 94 -194 83 -524 -27 -772 -84 -192
-229 -354 -393 -440 l-69 -36 0 -258 c0 -142 -3 -260 -6 -264 -3 -3 -40 12
-81 34 -42 21 -84 39 -94 39 -11 0 -19 5 -19 10 0 12 -177 14 -182 3 -1 -5
-40 -27 -84 -50 l-82 -42 -6 37 c-3 20 -6 141 -6 267 l-1 230 -57 27 c-129 62
-262 190 -339 326 l-35 63 51 54 51 54 0 283 c0 252 2 287 19 323 10 22 25 46
34 54 10 7 17 19 17 26 0 24 88 93 178 140 63 32 105 62 133 94 43 48 79 110
79 135 0 14 18 20 95 29 32 4 146 -1 181 -8z m1536 -257 c33 -23 90 -89 105
-120 5 -13 20 -43 32 -66 11 -24 21 -54 21 -67 0 -41 38 -219 64 -299 48 -146
100 -231 211 -341 68 -68 123 -113 172 -140 47 -26 74 -48 78 -62 3 -13 10
-23 15 -23 5 0 36 -53 69 -117 64 -125 76 -141 174 -241 74 -76 127 -114 210
-152 122 -54 155 -52 242 19 l59 47 111 -112 c60 -61 135 -128 165 -148 30
-20 50 -36 45 -36 -24 0 -209 52 -305 86 l-105 36 -1242 -2 c-1123 -1 -1243 0
-1243 14 0 12 -10 16 -40 16 l-40 0 0 124 0 124 36 27 c19 15 38 35 42 45 4
10 33 41 66 70 151 132 244 280 315 501 43 134 51 193 51 363 0 210 8 284 31
291 10 3 19 15 21 27 6 43 302 138 486 157 89 9 117 5 154 -21z m4671 11 c349
-46 693 -250 916 -543 218 -285 301 -558 301 -985 0 -184 -1 -191 -20 -191
-11 0 -20 -7 -20 -16 0 -14 -136 -15 -1372 -14 l-1373 2 -90 -32 c-87 -30
-305 -90 -327 -90 -6 0 20 22 59 49 38 27 112 95 165 151 53 55 99 97 102 92
12 -20 101 -72 138 -82 29 -8 52 -7 100 5 94 25 163 69 263 169 79 80 98 107
160 224 39 74 76 145 83 158 7 13 18 24 25 24 17 0 136 77 191 124 158 134
266 357 306 631 21 142 131 326 201 337 29 5 89 0 192 -13z m-6851 -1431 l48
-33 0 -127 0 -128 -55 0 -55 0 0 160 c0 88 3 160 7 160 4 0 29 -15 55 -32z
M3925 5559 c-114 -90 -282 -172 -421 -205 -38 -9 -111 -17 -161 -18 -51 0 -93
-2 -93 -4 0 -2 7 -17 16 -34 140 -270 158 -929 35 -1266 -15 -42 -31 -84 -35
-93 -5 -12 4 -18 45 -27 67 -16 137 -56 225 -130 l70 -59 64 60 c248 228 533
378 825 433 152 29 392 26 502 -5 136 -38 246 -116 295 -207 13 -24 26 -44 29
-44 4 0 12 14 20 31 36 89 176 185 329 226 99 27 340 24 488 -5 294 -59 576
-211 827 -446 l59 -56 36 33 c99 94 206 160 280 172 33 6 40 10 34 23 -4 10
-20 52 -35 94 -123 337 -105 996 35 1266 9 17 16 33 16 35 0 2 -30 7 -67 11
-135 14 -327 94 -468 196 -38 28 -74 49 -80 47 -21 -7 -29 -54 -15 -87 16 -39
93 -117 172 -175 31 -24 64 -50 72 -58 8 -8 36 -23 61 -33 64 -27 81 -71 64
-169 -8 -43 -14 -253 -18 -552 -5 -376 -9 -485 -19 -495 -7 -7 -34 -13 -60
-13 -42 0 -60 9 -182 90 -162 109 -269 156 -515 225 -345 98 -370 98 -585 -4
-138 -65 -388 -146 -452 -146 -37 0 -254 65 -338 101 -30 13 -85 41 -122 62
-165 94 -181 94 -558 -9 -297 -81 -367 -111 -558 -241 -103 -69 -126 -78 -177
-69 -45 9 -50 29 -39 165 9 110 11 699 3 856 -4 83 -2 92 19 115 12 13 22 27
22 31 0 4 22 15 49 24 28 9 51 20 53 25 2 4 30 29 62 54 104 80 243 214 260
250 16 35 13 66 -8 65 -6 0 -33 -18 -61 -40z M4120 5393 c-27 -10 -65 -37 -96
-68 -74 -74 -84 -114 -84 -330 0 -207 10 -251 75 -323 62 -69 127 -96 220 -90
107 7 183 57 233 152 27 51 27 53 27 256 0 204 0 205 -28 262 -64 131 -208
189 -347 141z M6344 5394 c-60 -21 -119 -77 -151 -142 -28 -57 -28 -58 -28
-262 0 -203 0 -205 27 -256 50 -95 126 -145 233 -152 93 -6 158 21 220 90 65
72 75 116 75 323 0 216 -10 256 -83 330 -80 80 -190 106 -293 69z M5040 4669
c-31 -13 -88 -66 -105 -99 -40 -80 -21 -184 45 -244 23 -20 52 -41 66 -46 14
-6 142 -10 284 -10 142 0 270 4 284 10 50 19 105 80 121 134 28 92 3 165 -78
230 l-39 31 -276 2 c-169 1 -287 -2 -302 -8z M2880 4164 c0 -33 38 -153 71
-225 39 -83 104 -149 148 -149 28 0 29 -1 20 -37 -12 -53 -11 -206 2 -298 22
-158 77 -274 141 -299 32 -12 32 -7 3 -116 -29 -102 -25 -370 5 -370 20 0 70
53 70 75 0 13 4 26 9 29 4 3 11 47 15 98 3 51 9 129 12 174 l6 81 -56 113
c-30 62 -58 129 -62 149 -3 20 -12 58 -20 85 -8 27 -14 89 -14 138 0 48 -4 88
-9 88 -5 0 -15 17 -22 38 -6 20 -31 64 -54 97 -51 73 -94 152 -124 226 -26 66
-64 106 -109 115 -27 5 -32 4 -32 -12z M7718 4165 c-31 -17 -63 -66 -99 -151
-14 -34 -52 -101 -84 -150 -81 -124 -95 -161 -95 -248 0 -116 -32 -239 -94
-369 l-56 -114 0 -167 c0 -91 4 -174 9 -184 5 -9 14 -31 21 -48 10 -28 65 -72
76 -61 3 2 9 33 15 68 13 77 5 224 -17 305 -28 102 -28 98 4 110 64 25 119
141 141 299 13 94 14 259 2 303 -9 31 -9 32 20 32 45 0 109 65 148 149 33 71
71 192 71 223 0 22 -25 23 -62 3z M5305 3811 c-14 -44 -114 -91 -244 -117 -85
-16 -412 -38 -453 -30 -16 3 -94 -11 -184 -34 -163 -41 -571 -174 -589 -192
-14 -13 215 -233 288 -277 99 -59 171 -82 250 -83 94 0 149 21 287 112 129 83
306 170 405 196 101 27 428 27 530 0 93 -24 285 -118 415 -202 134 -87 185
-106 277 -106 79 1 151 24 250 83 65 39 298 258 286 270 -18 16 -458 159 -593
192 -126 31 -171 37 -345 46 -315 16 -454 48 -529 123 -21 21 -40 38 -42 38
-1 0 -5 -8 -9 -19z m-748 -344 c47 -67 96 -85 253 -94 l135 -7 -75 -18 c-198
-47 -270 -58 -391 -59 -133 -1 -199 14 -220 52 -11 21 0 33 69 83 23 16 74 65
114 110 l73 80 7 -53 c4 -35 16 -68 35 -94z m1682 41 c47 -46 103 -96 124
-113 20 -16 37 -35 37 -41 0 -22 -63 -56 -123 -65 -84 -14 -244 3 -427 45
l-145 33 140 7 c117 6 147 10 185 29 54 28 99 89 107 145 3 23 8 42 11 42 3 0
44 -37 91 -82z"/>
</g>
</svg>
