<?xml version="1.0" standalone="no"?>
<!DOCTYPE svg PUBLIC "-//W3C//DTD SVG 20010904//EN"
 "http://www.w3.org/TR/2001/REC-SVG-20010904/DTD/svg10.dtd">
<svg version="1.0" xmlns="http://www.w3.org/2000/svg"
 width="2048.000000pt" height="2048.000000pt" viewBox="0 0 2048.000000 2048.000000"
 preserveAspectRatio="xMidYMid meet">
<metadata>
Created by potrace 1.13, written by Peter Selinger 2001-2015
</metadata>
<g transform="translate(0.000000,2048.000000) scale(0.192120,-0.192120)"
fill="#000000" stroke="none">
<path d="M4920 9460 c-729 -60 -1355 -255 -1873 -584 -790 -501 -1299 -1296
-1403 -2191 -13 -111 -15 -198 -11 -420 3 -154 11 -325 17 -380 51 -469 163
-816 311 -968 l56 -58 -5 -134 c-10 -279 50 -744 148 -1135 252 -1008 791
-1874 1493 -2398 409 -305 826 -483 1307 -559 158 -24 587 -25 738 0 265 43
499 111 721 211 1176 526 2031 1861 2206 3446 22 196 29 377 17 438 l-10 54
27 -5 c15 -4 43 2 68 14 186 89 316 782 300 1597 -5 269 -19 382 -78 601 -98
368 -308 772 -575 1106 -118 148 -380 408 -536 532 -216 173 -475 336 -721
453 -389 186 -815 308 -1277 365 -156 20 -747 29 -920 15z m885 -315 c625 -73
1181 -270 1660 -590 83 -55 195 -136 250 -179 126 -100 387 -360 491 -491 244
-304 410 -633 495 -980 l29 -119 0 -606 c0 -600 0 -607 -25 -747 -27 -152 -54
-236 -78 -241 -8 -2 -25 7 -37 20 -50 51 -220 442 -380 873 -45 121 -94 242
-107 270 -31 60 -139 170 -187 190 -60 25 -108 18 -294 -44 -202 -68 -321 -91
-467 -91 -254 0 -446 69 -685 245 -220 162 -274 171 -376 63 -78 -82 -100
-141 -110 -283 -6 -82 -17 -123 -60 -222 -26 -62 -119 -57 -262 12 -151 73
-271 158 -552 394 -150 125 -240 181 -295 181 -67 0 -164 -87 -219 -196 -35
-69 -76 -114 -104 -114 -42 0 -161 44 -274 101 -134 69 -328 196 -543 357
-182 137 -267 182 -339 182 -106 0 -229 -83 -423 -284 -352 -364 -587 -765
-796 -1351 -39 -110 -44 -120 -67 -120 -45 0 -83 104 -120 330 -18 108 -20
169 -20 596 0 280 4 500 10 535 71 411 253 810 525 1155 85 108 314 333 435
429 546 430 1234 674 2080 740 174 13 680 4 845 -15z m-2358 -2282 c351 -283
681 -492 905 -575 112 -41 234 -50 300 -20 51 22 89 67 108 127 15 44 17 153
6 230 l-7 50 88 -86 c349 -341 686 -580 908 -645 90 -26 192 -23 252 7 127 66
193 258 179 519 -3 63 -9 135 -12 160 l-7 45 88 -93 c201 -213 434 -340 709
-388 68 -12 127 -15 236 -11 219 9 402 57 595 156 50 25 93 47 96 49 3 1 11
-17 18 -40 22 -74 160 -444 241 -648 193 -482 340 -787 421 -869 28 -29 50
-54 48 -55 -2 -2 -29 -18 -59 -36 -65 -38 -100 -68 -100 -87 0 -7 -4 -13 -10
-13 -5 0 -10 -21 -10 -47 0 -75 -29 -312 -45 -373 -16 -60 -80 -405 -90 -485
-31 -244 -93 -432 -276 -838 -211 -468 -228 -501 -344 -673 -221 -327 -390
-508 -730 -775 -389 -307 -814 -493 -1292 -566 -149 -22 -517 -22 -666 0 -510
78 -916 262 -1363 618 -232 185 -403 373 -619 681 -31 44 -135 207 -135 212 0
1 -27 52 -61 112 -255 455 -421 933 -519 1488 -27 153 -59 424 -67 569 -3 64
-10 117 -15 117 -4 0 -8 5 -8 12 0 6 -32 41 -71 77 l-71 65 40 17 c51 22 73
67 107 224 143 643 449 1232 856 1645 90 91 246 229 261 230 4 0 56 -39 115
-87z M3857 5316 c-99 -36 -166 -112 -187 -212 -7 -35 -10 -162 -8 -361 l3
-308 28 -57 c87 -177 304 -212 444 -73 80 80 83 99 83 470 0 371 -3 390 -83
470 -79 78 -184 105 -280 71z m113 -545 c0 -193 -4 -292 -11 -296 -5 -4 -21
-4 -35 -1 l-24 6 0 290 0 290 35 0 35 0 0 -289z M6620 5313 c-26 -9 -66 -38
-96 -68 -81 -80 -84 -99 -84 -470 0 -371 3 -390 83 -470 140 -139 357 -104
444 73 l28 57 0 340 c0 324 -1 342 -21 385 -30 65 -70 107 -128 137 -65 33
-161 40 -226 16z m130 -542 c0 -259 -2 -290 -16 -295 -9 -4 -25 -4 -35 -1 -18
6 -19 22 -19 296 l0 289 35 0 35 0 0 -289z M4957 3646 c-151 -55 -224 -235
-153 -381 15 -30 45 -70 68 -89 73 -63 94 -66 458 -66 364 0 385 3 458 66 89
76 120 213 73 320 -27 59 -61 97 -121 132 l-45 27 -350 2 c-275 2 -358 0 -388
-11z m701 -195 c32 -13 33 -15 30 -64 -6 -95 -64 -111 -403 -105 -239 4 -275
10 -318 52 -22 23 -22 78 1 99 33 30 95 36 377 33 203 -1 289 -6 313 -15z
M4390 2529 c-55 -25 -114 -80 -143 -134 -31 -58 -31 -183 1 -242 79 -149 396
-327 700 -393 205 -44 484 -51 687 -15 334 58 694 247 775 406 31 59 36 133
16 204 -14 45 -29 69 -70 111 -64 63 -137 90 -222 81 -61 -6 -98 -24 -179 -85
-81 -61 -223 -127 -325 -152 -344 -82 -692 -22 -939 163 -41 30 -91 60 -111
66 -58 17 -140 13 -190 -10z m181 -201 c19 -6 54 -24 79 -40 25 -15 95 -53
155 -83 184 -90 346 -121 585 -112 229 9 361 48 572 169 102 58 133 71 180 76
44 4 63 1 84 -13 24 -16 26 -21 21 -67 -10 -79 -61 -128 -217 -207 -139 -71
-303 -120 -470 -141 -124 -15 -376 -12 -497 6 -249 37 -517 148 -626 260 -54
56 -61 135 -14 154 32 13 109 12 148 -2z"/>
</g>
</svg>
