<?xml version="1.0" standalone="no"?>
<!DOCTYPE svg PUBLIC "-//W3C//DTD SVG 20010904//EN"
 "http://www.w3.org/TR/2001/REC-SVG-20010904/DTD/svg10.dtd">
<svg version="1.0" xmlns="http://www.w3.org/2000/svg"
 width="2048.000000pt" height="2048.000000pt" viewBox="0 0 2048.000000 2048.000000"
 preserveAspectRatio="xMidYMid meet">
<metadata>
Created by potrace 1.13, written by Peter Selinger 2001-2015
</metadata>
<g transform="translate(0.000000,2048.000000) scale(0.192120,-0.192120)"
fill="#000000" stroke="none">
<path d="M1243 10315 c-464 -84 -837 -469 -903 -930 -8 -59 -10 -1151 -8
-4105 l3 -4025 22 -77 c121 -426 407 -709 826 -821 l82 -22 4085 0 4084 0 8
40 c11 49 -5 215 -32 343 -48 227 -172 520 -304 716 l-66 100 16 103 c15 87
15 111 5 151 -8 26 -12 65 -10 87 2 22 4 103 3 180 -3 350 -127 681 -343 914
-23 24 -41 45 -41 47 0 1 47 50 105 109 58 58 105 110 105 114 0 14 -119 -8
-161 -30 -49 -25 -121 -89 -161 -143 -22 -31 -28 -49 -28 -90 1 -69 14 -101
99 -240 113 -186 156 -296 200 -511 40 -192 78 -285 151 -368 41 -47 42 -48
25 -73 -59 -91 -210 -54 -334 82 -29 31 -58 76 -69 107 -17 44 -32 62 -103
120 -146 119 -423 292 -549 344 l-55 22 3 53 c2 29 -2 93 -8 143 -9 67 -10
100 -1 130 13 49 84 170 99 170 15 0 243 -307 363 -488 53 -81 121 -193 149
-247 32 -63 57 -100 67 -100 22 0 81 38 93 60 41 77 -35 257 -217 512 -67 93
-137 178 -194 232 -48 47 -100 104 -114 127 l-27 41 -42 -41 c-37 -37 -43 -39
-57 -26 -25 25 -82 29 -123 10 -48 -23 -143 -127 -168 -184 -17 -40 -19 -62
-15 -161 5 -129 19 -173 67 -214 18 -14 51 -31 74 -37 l42 -10 -7 -57 c-10
-83 -37 -212 -71 -332 -25 -91 -131 -425 -144 -456 -4 -9 38 -37 57 -39 3 0
44 56 90 125 88 130 121 194 163 320 25 72 54 109 85 110 8 0 53 -20 100 -44
104 -53 162 -66 292 -66 l100 0 -18 -32 c-31 -54 -203 -226 -273 -273 -85 -57
-144 -81 -250 -106 -326 -75 -452 -167 -340 -248 85 -62 373 -132 595 -146
197 -12 525 29 625 78 51 25 81 64 111 149 12 32 24 57 26 54 2 -2 8 -89 12
-192 7 -170 11 -197 35 -264 62 -170 76 -230 76 -327 l0 -93 -153 0 c-195 0
-188 -4 -298 174 -34 55 -90 127 -123 161 -75 74 -216 158 -365 216 -19 8 -16
1 18 -38 259 -296 407 -524 439 -675 l9 -47 -96 48 c-174 87 -137 83 -683 79
l-483 -4 -285 -41 c-394 -58 -494 -67 -730 -66 -235 0 -356 18 -550 78 -63 19
-153 40 -200 45 -53 6 -869 10 -2181 10 -2298 0 -2178 -3 -2348 59 -242 88
-476 334 -545 572 -15 49 -16 438 -14 4189 l3 4135 25 60 c40 95 118 218 182
289 93 103 254 209 388 255 145 50 162 51 1229 51 1188 0 1301 6 1533 80 51
17 110 30 130 30 91 0 656 -84 948 -141 487 -96 777 -191 858 -284 37 -41 38
-49 17 -150 -30 -145 -120 -385 -335 -895 -298 -709 -395 -1000 -407 -1231 -8
-151 4 -182 110 -285 45 -44 141 -134 212 -199 195 -178 484 -465 599 -595
285 -323 406 -545 406 -744 0 -160 -48 -321 -257 -871 -356 -934 -463 -1365
-463 -1868 0 -279 27 -465 100 -688 57 -173 110 -279 167 -328 97 -86 271
-153 496 -191 125 -21 619 -79 626 -74 20 17 111 733 111 880 0 9 11 14 33 14
18 0 52 10 76 22 75 39 88 85 101 362 6 115 15 229 21 255 8 38 42 113 99 220
23 42 32 96 37 206 l5 120 -32 -30 c-53 -49 -180 -205 -227 -277 -78 -121 -86
-165 -103 -603 -6 -148 -13 -271 -15 -273 -6 -7 -305 57 -390 84 -44 13 -87
30 -96 37 -36 28 -79 245 -79 397 0 169 44 387 125 620 20 58 93 251 162 430
242 628 352 1006 435 1490 l13 75 60 12 c153 30 377 46 653 48 l283 1 20 -25
c44 -55 101 -188 117 -274 l17 -87 125 0 c380 0 805 63 1185 173 83 24 151 41
153 37 1 -4 -9 -31 -23 -61 -29 -64 -33 -128 -7 -156 9 -11 39 -37 66 -58 l49
-38 -54 -28 c-153 -79 -466 -185 -691 -234 -210 -45 -309 -56 -533 -62 l-220
-6 -75 -55 c-108 -79 -275 -251 -435 -447 -258 -315 -378 -460 -452 -542 l-73
-81 118 -124 c64 -67 189 -199 276 -293 88 -93 186 -198 218 -232 l58 -62 118
51 c64 27 182 81 262 119 l144 69 66 -63 c36 -34 78 -74 93 -87 l29 -25 20 25
c11 14 123 145 250 292 170 197 249 281 304 323 132 99 281 234 365 328 225
256 322 485 321 762 0 140 -17 227 -68 358 -37 96 -104 311 -104 335 0 8 10
16 21 19 20 6 21 11 15 67 -3 34 -15 192 -26 351 -30 434 -49 562 -116 781
-34 115 -106 293 -143 356 l-21 35 68 5 c86 6 165 41 221 97 57 57 68 88 42
120 -97 123 -121 184 -121 314 0 96 24 189 115 452 125 362 158 522 136 657
-36 217 -222 380 -449 393 -71 4 -75 6 -125 50 -68 60 -229 139 -342 167 -122
30 -388 33 -480 5 -104 -32 -183 -83 -280 -181 -108 -108 -184 -236 -141 -236
9 0 4 -23 -20 -82 -70 -176 -108 -374 -108 -568 0 -206 37 -324 126 -406 52
-48 82 -61 178 -77 l75 -13 3 -88 c2 -49 -1 -93 -6 -98 -4 -4 -51 -11 -103
-14 -183 -12 -296 20 -692 196 -122 54 -278 119 -347 145 l-125 47 -62 77
c-34 42 -166 186 -294 321 -236 249 -328 355 -375 435 l-26 44 96 288 c121
365 158 506 146 557 -27 119 -175 219 -467 316 -166 54 -393 107 -623 145
l-154 25 -2161 -1 c-1726 -1 -2174 -3 -2232 -14z m4940 -481 c18 -9 62 -39
100 -66 179 -133 266 -294 308 -577 l13 -84 -37 -33 c-47 -43 -57 -64 -57
-114 0 -87 97 -244 270 -435 58 -64 110 -128 115 -141 15 -32 272 -320 359
-401 76 -70 117 -96 123 -77 3 8 21 3 54 -12 27 -14 105 -47 172 -73 67 -27
181 -75 252 -106 72 -32 175 -74 230 -95 125 -47 288 -86 293 -71 2 7 36 11
85 11 103 0 131 16 182 100 l37 62 40 -39 c45 -43 117 -185 142 -278 23 -89
38 -241 31 -320 -33 -368 -213 -548 -502 -505 -62 9 -189 44 -200 54 -1 1 11
28 27 60 17 32 30 74 30 92 0 160 -280 468 -674 743 -60 42 -148 107 -195 144
-47 37 -130 97 -184 133 -129 87 -218 177 -359 364 -152 202 -196 243 -277
256 -36 6 -101 -9 -101 -23 0 -27 143 -248 273 -423 157 -210 226 -273 477
-435 438 -284 641 -451 805 -665 56 -72 145 -220 145 -240 0 -8 -14 -51 -31
-95 -21 -55 -33 -105 -37 -164 l-7 -85 -95 -39 c-226 -92 -393 -137 -508 -137
-93 0 -110 7 -132 51 -58 113 -183 254 -554 625 -210 209 -414 420 -454 470
-82 102 -147 218 -163 293 -15 72 1 137 122 492 55 162 108 314 116 339 l15
45 -48 80 c-63 107 -145 280 -183 389 -24 67 -35 126 -47 235 -8 80 -28 235
-44 345 -31 207 -37 314 -20 347 13 23 50 25 93 3z m3113 -605 c38 -12 139
-56 224 -99 85 -42 194 -90 243 -106 65 -21 87 -33 87 -45 0 -10 9 -21 20 -24
11 -4 34 -18 50 -32 l30 -25 0 -146 c0 -172 -5 -196 -94 -462 -109 -327 -106
-313 -106 -565 0 -121 -4 -226 -9 -234 -6 -10 -19 -12 -47 -6 -58 10 -181 64
-216 93 l-31 26 6 181 c7 213 5 222 -98 346 -126 152 -151 220 -179 493 -26
246 -39 312 -95 481 -16 48 -27 94 -24 102 3 9 24 13 64 13 46 0 59 3 59 15 0
21 35 19 116 -6z m-553 -30 c132 -36 197 -205 232 -597 23 -260 52 -390 111
-483 33 -52 106 -113 156 -129 24 -7 46 -16 51 -20 4 -3 -7 -37 -24 -75 -17
-38 -38 -100 -46 -139 -48 -228 76 -380 382 -471 50 -14 96 -28 104 -31 12 -4
10 -10 -7 -27 -19 -18 -33 -22 -85 -21 -132 2 -255 76 -479 292 -84 81 -181
168 -215 195 -53 40 -68 47 -110 48 -26 1 -60 4 -75 8 l-27 6 40 59 c73 109
49 175 -115 316 -53 45 -103 95 -111 111 -21 39 -21 445 0 539 24 107 20 175
-15 248 -17 35 -30 70 -30 77 0 17 78 64 145 87 59 21 68 21 118 7z m-2790
-36 c8 -16 17 -49 20 -75 18 -134 78 -312 172 -511 47 -100 48 -154 7 -252
-43 -101 -139 -384 -168 -494 -19 -74 -24 -118 -24 -215 0 -109 3 -130 26
-187 95 -233 230 -406 593 -760 145 -142 211 -213 211 -228 0 -12 -12 -31 -27
-44 -71 -58 -156 -145 -181 -184 -15 -23 -33 -45 -40 -48 -18 -7 -43 11 -73
54 -109 152 -153 210 -237 311 -110 132 -481 507 -717 724 -88 81 -166 159
-173 173 -10 19 -13 66 -10 187 l3 161 72 210 c69 204 360 918 440 1080 66
136 80 149 106 98z m3256 -1968 c124 -91 204 -134 291 -156 41 -10 85 -24 98
-31 46 -24 106 -191 159 -443 23 -109 26 -148 30 -433 3 -172 2 -323 -1 -336
-5 -22 -20 -27 -153 -60 -265 -63 -469 -94 -693 -103 -171 -6 -172 -6 -239
105 -42 70 -147 197 -273 330 -95 101 -108 124 -108 198 0 37 5 65 13 71 6 6
64 13 127 16 166 8 251 41 353 136 159 148 257 406 257 676 l0 95 25 0 c16 0
60 -25 114 -65z m-972 -1175 c161 -216 157 -203 49 -150 -50 24 -140 63 -201
86 -60 23 -113 48 -119 56 -6 11 -2 25 16 49 14 19 45 72 68 119 l42 84 19
-49 c10 -28 67 -115 126 -195z m-1093 173 l110 -28 14 -45 c17 -52 57 -112
101 -154 37 -36 38 -49 6 -118 -14 -29 -25 -67 -25 -85 0 -46 -27 -57 -135
-57 -105 1 -184 26 -278 88 -113 75 -214 219 -223 318 -5 59 4 77 52 103 46
25 239 14 378 -22z m-382 -475 c97 -97 186 -157 274 -185 l51 -16 6 -57 c6
-53 0 -91 -48 -295 -35 -147 -161 -530 -260 -785 -181 -468 -251 -670 -295
-852 -30 -121 -30 -126 -30 -400 0 -303 1 -309 64 -437 41 -85 170 -218 246
-254 30 -15 95 -37 143 -49 l88 -23 -3 -165 c-3 -154 -5 -168 -29 -215 -32
-63 -34 -63 -256 -35 -274 35 -454 81 -549 142 -78 50 -148 186 -198 390 l-27
106 4 449 c3 440 4 450 29 563 75 329 176 646 358 1120 222 576 300 846 300
1034 0 48 3 56 19 56 11 0 60 -41 113 -92z m3168 -875 c0 -129 -8 -170 -50
-254 -77 -157 -185 -279 -430 -490 -223 -192 -318 -317 -376 -493 -17 -52 -25
-63 -69 -91 -27 -18 -74 -44 -103 -59 l-54 -27 -42 39 c-73 68 -101 67 -296
-8 -164 -63 -187 -67 -238 -41 -44 22 -337 337 -353 379 -19 49 -9 68 96 194
58 69 105 131 105 136 0 6 57 78 126 162 230 276 374 413 475 451 30 12 98 23
177 29 70 6 139 12 155 15 22 4 27 1 27 -15 0 -25 -10 -25 163 5 179 31 328
69 522 133 83 28 153 51 158 51 4 1 7 -52 7 -116z m-1276 -3268 c38 -25 73
-45 78 -45 4 0 8 -16 8 -35 0 -42 -18 -54 -115 -71 -153 -28 -325 -11 -309 31
4 8 50 49 103 90 119 92 135 95 235 30z M2018 9644 c-54 -23 -83 -86 -75 -165
26 -243 275 -608 465 -679 68 -26 87 -25 166 3 139 51 341 201 551 412 197
196 310 351 303 413 l-3 27 -685 2 c-597 2 -690 0 -722 -13z m1000 -217 c18
-22 -15 -71 -107 -159 -108 -104 -206 -178 -295 -223 -135 -68 -220 -42 -339
107 -81 100 -140 252 -110 281 3 4 194 7 423 7 326 0 420 -3 428 -13z M3853
7930 l-632 -5 -30 -29 c-64 -61 -64 -184 -1 -359 45 -124 112 -231 199 -318
62 -62 86 -80 129 -92 46 -14 58 -14 107 -2 168 44 465 255 731 520 142 140
204 220 204 261 0 24 -19 35 -53 32 -12 -2 -306 -5 -654 -8z m235 -244 c9 -45
-271 -267 -406 -322 -70 -29 -104 -30 -157 -4 -77 37 -165 186 -173 293 l-4
57 368 -2 c354 -3 369 -4 372 -22z M2687 5385 c-85 -30 -124 -102 -114 -213
21 -249 281 -680 593 -982 117 -114 202 -175 268 -195 52 -16 113 -1 232 54
375 176 1211 778 1555 1121 122 121 170 190 148 216 -17 21 -2624 20 -2682 -1z
m2201 -229 c14 -70 -752 -633 -1183 -871 -74 -41 -171 -75 -213 -75 -65 0
-139 47 -253 160 -164 165 -346 421 -430 605 -35 77 -50 182 -28 196 8 5 460
8 1059 6 1020 -2 1045 -2 1048 -21z M8673 5282 c-2 -97 -21 -205 -49 -277 -7
-18 -6 -18 22 3 54 42 135 126 150 154 19 36 18 78 -2 108 -20 29 -106 120
-114 120 -3 0 -6 -48 -7 -108z M1124 2241 c-150 -68 -66 -373 201 -730 243
-323 546 -530 743 -507 264 31 789 360 1175 735 287 279 387 461 280 510 -17
8 -357 11 -1191 11 -1114 0 -1169 -1 -1208 -19z m2093 -217 c10 -26 -18 -64
-117 -164 -214 -216 -607 -492 -837 -590 -154 -65 -252 -72 -363 -27 -188 77
-459 357 -584 604 -40 79 -60 146 -51 173 6 20 23 20 976 20 871 0 970 -2 976
-16z M7035 1414 c-16 -14 -102 -74 -190 -132 -190 -127 -402 -238 -537 -281
-54 -17 -142 -45 -195 -62 -298 -95 -347 -186 -169 -314 148 -105 255 -138
451 -138 263 1 589 86 892 234 129 63 149 81 193 169 57 112 95 275 71 303 -8
10 -26 13 -61 9 -148 -14 -317 72 -381 193 -13 25 -28 45 -34 45 -5 -1 -23
-12 -40 -26z m58 -350 c50 -26 97 -64 97 -79 0 -37 -70 -78 -231 -133 -144
-50 -276 -80 -357 -83 -115 -4 -99 24 63 111 44 24 126 72 182 107 157 98 186
107 246 77z"/>
</g>
</svg>
