<?xml version="1.0" standalone="no"?>
<!DOCTYPE svg PUBLIC "-//W3C//DTD SVG 20010904//EN"
 "http://www.w3.org/TR/2001/REC-SVG-20010904/DTD/svg10.dtd">
<svg version="1.0" xmlns="http://www.w3.org/2000/svg"
 width="2048.000000pt" height="2048.000000pt" viewBox="0 0 2048.000000 2048.000000"
 preserveAspectRatio="xMidYMid meet">
<metadata>
Created by potrace 1.13, written by Peter Selinger 2001-2015
</metadata>
<g transform="translate(0.000000,2048.000000) scale(0.192120,-0.192120)"
fill="#000000" stroke="none">
<path d="M5045 9209 c-312 -26 -688 -117 -963 -231 -786 -326 -1304 -922
-1471 -1693 -42 -189 -53 -320 -56 -625 l-3 -295 126 -127 126 -127 -27 -638
c-15 -351 -27 -663 -27 -694 0 -31 -3 -58 -6 -62 -14 -14 -224 119 -224 143 0
4 7 25 16 46 38 91 2 213 -125 428 -116 196 -240 469 -321 706 -56 164 -70
221 -70 281 l0 49 37 -15 c28 -12 38 -13 44 -3 6 9 36 -2 112 -41 80 -40 119
-54 164 -58 56 -5 62 -4 95 26 32 28 67 86 57 95 -18 16 -196 125 -285 175
-189 104 -361 171 -442 171 -16 0 -41 -9 -56 -21 -22 -17 -26 -28 -26 -69 0
-99 53 -328 132 -570 147 -451 344 -840 546 -1078 l53 -62 -25 -408 c-48 -775
-115 -2001 -116 -2127 -1 -39 -2 -41 -75 -82 -312 -179 -603 -548 -714 -908
-66 -212 -81 -352 -81 -756 l0 -309 3890 0 3890 0 0 313 c0 171 -5 354 -10
405 -37 350 -168 655 -397 925 -112 133 -247 244 -434 360 -26 15 -26 18 -33
159 -28 598 -96 1805 -131 2336 l-15 222 51 63 c60 73 197 279 261 392 217
382 427 935 428 1126 0 56 -21 78 -79 86 -99 13 -380 -80 -641 -213 -122 -62
-115 -54 -89 -109 24 -51 68 -85 110 -85 38 0 151 33 269 78 l105 41 17 -22
c25 -31 22 -66 -11 -166 -73 -215 -233 -549 -366 -761 -39 -63 -89 -153 -110
-200 -34 -74 -39 -94 -39 -160 -1 -45 5 -88 14 -109 l15 -33 -83 -79 c-46 -43
-92 -83 -102 -89 -17 -9 -19 -6 -24 32 -2 24 -12 239 -21 478 -10 239 -23 554
-30 700 l-12 265 39 41 c21 23 73 57 117 79 l79 38 7 134 c8 150 1 333 -21
503 -68 534 -318 1030 -696 1385 -450 421 -1087 686 -1793 745 -139 11 -406
11 -550 -1z m705 -314 c349 -48 644 -137 936 -280 591 -292 968 -747 1099
-1330 24 -108 25 -125 25 -462 0 -342 0 -350 -21 -369 -11 -10 -36 -45 -55
-77 l-34 -58 0 -417 c0 -447 19 -876 44 -981 28 -118 73 -184 198 -286 31 -26
30 -13 68 -663 25 -428 30 -581 29 -925 l0 -412 -51 -40 c-28 -22 -67 -62 -86
-89 l-34 -48 4 -922 3 -921 -312 -3 -313 -2 0 142 c0 99 11 235 35 443 67 578
116 1051 122 1184 6 133 6 133 -23 188 -39 74 -132 159 -198 178 -36 11 -101
15 -241 15 l-192 0 -6 68 c-4 37 -7 112 -7 167 l1 100 75 65 c296 254 612 690
715 986 55 160 69 435 69 1378 0 691 -1 736 -20 830 -41 202 -69 282 -171 492
-96 198 -210 356 -379 524 -173 173 -337 277 -544 345 -181 59 -271 70 -541
69 -278 -2 -881 -2 -1235 -1 -217 1 -258 -1 -358 -21 -283 -57 -519 -182 -727
-387 -161 -159 -254 -286 -364 -497 -105 -199 -146 -330 -177 -558 -17 -130
-20 -1628 -4 -1889 18 -274 50 -366 222 -639 140 -223 296 -409 498 -594 l100
-91 0 -121 c0 -66 -5 -144 -12 -172 l-12 -53 -196 -3 c-169 -3 -200 -6 -230
-22 -61 -33 -141 -108 -171 -161 -27 -47 -29 -57 -29 -165 0 -119 31 -454 100
-1071 32 -289 40 -392 40 -543 l0 -186 -306 0 -306 0 6 503 c3 276 9 692 12
924 l6 422 -37 55 c-38 57 -90 105 -138 127 l-27 12 0 321 c0 247 8 456 35
906 19 322 37 599 41 616 4 23 14 34 39 43 78 28 173 148 202 254 28 103 52
538 53 954 l0 391 -35 61 c-19 34 -52 83 -74 109 -21 26 -44 65 -50 87 -14 51
-14 419 -1 556 54 539 243 945 593 1275 401 378 975 618 1632 684 135 13 579
4 715 -15z m-580 -1335 c109 -8 193 -7 340 2 107 7 308 13 445 13 221 -1 262
-3 355 -24 384 -83 679 -318 906 -723 64 -113 139 -288 159 -368 25 -97 44
-317 55 -613 12 -309 3 -752 -25 -1312 l-15 -300 -49 -96 c-126 -248 -286
-465 -496 -674 -83 -82 -185 -175 -227 -205 l-77 -55 -1 -327 0 -328 356 0
356 0 -6 -37 c-3 -21 -15 -128 -26 -238 -75 -730 -199 -1799 -216 -1857 -5
-15 -13 -12 -65 23 -33 22 -85 52 -115 65 l-55 24 -1450 0 -1450 0 -42 -21
c-23 -12 -70 -42 -104 -66 -53 -38 -62 -41 -67 -26 -13 46 -113 910 -176 1518
-17 165 -37 362 -45 439 -8 76 -15 147 -15 157 0 18 15 19 350 19 l350 0 0
328 -1 327 -82 60 c-45 33 -147 125 -227 205 -199 198 -356 410 -483 651 l-44
84 -11 235 c-28 544 -34 813 -29 1210 6 430 14 550 48 758 25 154 41 200 129
370 236 458 564 715 1007 787 100 16 490 14 743 -5z m-2524 -5142 c-4 -40 -25
-494 -47 -1008 -22 -514 -43 -952 -47 -974 l-7 -38 -60 44 c-33 24 -86 59
-118 76 l-58 32 -265 0 c-228 0 -264 2 -264 15 0 11 -12 15 -45 15 l-45 0 0
290 c0 329 7 377 79 553 96 236 225 412 429 586 73 63 121 112 143 150 31 51
34 62 34 138 l0 82 75 35 c70 33 174 74 193 75 5 1 6 -32 3 -71z m5445 47 c24
-9 78 -32 120 -51 l77 -36 -5 -62 c-4 -49 -1 -72 14 -107 27 -59 104 -145 208
-230 195 -161 341 -377 427 -633 53 -158 58 -198 58 -493 0 -266 0 -273 -20
-273 -11 0 -20 -7 -20 -15 0 -13 -36 -15 -264 -15 -166 0 -267 -4 -271 -10 -3
-6 -21 -10 -39 -10 -35 0 -121 -43 -198 -97 -25 -19 -49 -30 -51 -26 -3 5 -10
109 -16 233 -10 196 -81 1807 -81 1831 0 12 11 11 61 -6z M4120 6423 c-27 -10
-65 -37 -96 -68 -74 -74 -84 -114 -84 -330 0 -203 10 -250 71 -319 53 -60 107
-87 185 -94 118 -9 227 54 275 160 23 50 24 64 24 253 0 199 0 200 -28 257
-64 131 -208 189 -347 141z m130 -402 c0 -95 -4 -152 -11 -156 -5 -4 -21 -4
-35 -1 l-24 6 0 150 0 150 35 0 35 0 0 -149z M6344 6424 c-60 -21 -119 -77
-151 -142 -28 -57 -28 -58 -28 -257 0 -189 1 -203 24 -253 48 -106 157 -169
275 -160 78 7 132 34 185 94 61 69 71 116 71 319 0 216 -10 256 -83 330 -80
80 -190 106 -293 69z m126 -403 c0 -95 -4 -152 -11 -156 -5 -4 -21 -4 -35 -1
l-24 6 0 150 0 150 35 0 35 0 0 -149z M5057 5250 c-82 -25 -141 -109 -141
-200 1 -63 18 -102 65 -148 54 -53 104 -62 349 -62 245 0 295 9 349 62 47 46
64 85 65 148 1 70 -32 132 -92 175 l-44 30 -261 2 c-144 1 -275 -2 -290 -7z
M6190 4263 c-8 -3 -37 -20 -65 -39 -155 -104 -572 -162 -982 -135 -307 19
-498 62 -613 136 -45 29 -64 35 -109 35 -141 0 -227 -144 -158 -265 57 -101
274 -193 561 -240 249 -40 690 -44 946 -10 300 41 549 135 620 235 25 35 38
117 26 164 -20 82 -146 148 -226 119z M4210 3115 c5 -14 10 -44 10 -65 0 -36
5 -44 60 -90 225 -187 495 -290 835 -319 529 -46 967 66 1273 327 46 39 52 49
52 83 0 21 4 49 10 64 9 25 6 23 -83 -25 -353 -195 -669 -280 -1037 -280 -378
0 -693 88 -1068 297 l-62 35 10 -27z"/>
</g>
</svg>
