<?xml version="1.0" standalone="no"?>
<!DOCTYPE svg PUBLIC "-//W3C//DTD SVG 20010904//EN"
 "http://www.w3.org/TR/2001/REC-SVG-20010904/DTD/svg10.dtd">
<svg version="1.0" xmlns="http://www.w3.org/2000/svg"
 width="2048.000000pt" height="2048.000000pt" viewBox="0 0 2048.000000 2048.000000"
 preserveAspectRatio="xMidYMid meet">
<metadata>
Created by potrace 1.13, written by Peter Selinger 2001-2015
</metadata>
<g transform="translate(0.000000,2048.000000) scale(0.192120,-0.192120)"
fill="#000000" stroke="none">
<path d="M5388 10315 c-231 -32 -447 -109 -653 -233 l-60 -37 -180 0 c-164 -1
-189 -4 -280 -29 -416 -114 -731 -451 -809 -866 -23 -118 -23 -1432 -1 -1589
78 -551 385 -1039 845 -1345 l84 -56 221 0 221 0 -2 198 -2 197 -86 45 c-404
212 -680 611 -735 1065 -6 50 -11 239 -11 420 l0 331 73 18 c82 21 233 89 302
136 248 170 415 486 451 850 l7 75 18 -80 c56 -259 207 -462 474 -638 316
-208 807 -345 1338 -374 l119 -6 -5 -376 c-4 -329 -7 -387 -25 -466 -94 -422
-351 -764 -721 -957 l-82 -43 -3 -197 -2 -198 221 0 222 0 84 56 c120 80 200
148 315 266 299 307 477 680 534 1118 7 57 10 285 8 690 -4 582 -5 609 -26
704 -45 200 -130 409 -229 565 -152 238 -403 465 -656 592 -295 149 -645 208
-969 164z m497 -310 c275 -50 557 -197 750 -390 151 -153 256 -327 315 -526
l30 -104 -2 -765 -3 -765 -27 -85 c-16 -47 -37 -114 -49 -150 -38 -121 -151
-322 -249 -445 -57 -72 -231 -238 -315 -300 -68 -50 -148 -72 -175 -48 -17 15
-24 8 155 155 230 190 405 461 523 808 l36 105 4 449 3 449 -32 46 c-48 69
-135 139 -193 156 -28 8 -112 22 -186 30 -428 49 -736 130 -988 260 -209 109
-330 216 -469 417 -42 62 -101 136 -129 165 -81 82 -123 83 -201 5 -51 -50
-98 -137 -174 -322 -42 -102 -120 -234 -176 -296 -57 -63 -142 -121 -265 -181
-109 -53 -137 -72 -197 -133 -39 -39 -74 -82 -77 -95 -3 -14 -10 -25 -16 -25
-5 0 -8 -173 -6 -447 3 -425 5 -452 26 -526 104 -372 331 -710 626 -932 72
-54 94 -87 64 -97 -31 -11 -103 12 -155 48 -90 61 -323 294 -393 391 -91 128
-171 300 -227 488 l-47 160 -4 820 c-2 607 0 832 9 865 29 111 125 260 217
337 183 153 338 209 617 223 190 9 219 17 394 105 174 87 342 140 521 165 93
13 359 4 465 -15z M4569 8089 c-47 -27 -69 -66 -69 -121 0 -141 191 -191 256
-66 36 69 11 154 -56 189 -45 24 -86 24 -131 -2z M5963 8094 c-67 -33 -95
-123 -59 -192 65 -125 256 -75 256 66 0 55 -23 94 -70 121 -45 25 -83 26 -127
5z M5055 7513 c20 -107 94 -201 177 -224 60 -17 166 -14 214 6 78 32 141 118
159 218 l7 37 -282 0 -282 0 7 -37z M4776 6973 c24 -103 138 -189 303 -230 94
-24 409 -24 502 -1 170 43 269 120 304 236 l6 22 -561 0 -560 0 6 -27z M3791
6144 c-226 -61 -387 -261 -471 -589 -33 -127 -60 -324 -60 -431 l0 -74 38 0
37 0 -100 -601 -100 -602 -792 -396 c-435 -218 -804 -407 -818 -421 -15 -14
-39 -47 -53 -75 -22 -41 -27 -64 -27 -125 0 -66 4 -82 31 -130 55 -98 170
-159 273 -147 34 5 283 124 927 446 971 484 935 463 970 575 9 28 69 373 133
766 l118 715 24 0 c18 0 24 -5 23 -22 0 -13 -1 -607 -2 -1322 l-2 -1298 -132
-6 c-243 -10 -448 -84 -586 -212 -98 -91 -134 -164 -140 -285 -7 -152 46 -248
171 -309 117 -57 156 -63 487 -71 168 -4 339 -13 380 -20 41 -6 170 -40 285
-75 116 -35 290 -87 388 -115 97 -29 176 -55 173 -57 -2 -2 -35 5 -74 16 -52
16 -76 19 -98 12 -16 -6 -135 -42 -264 -81 -388 -119 -1452 -449 -1496 -465
-22 -9 -55 -29 -72 -46 l-32 -31 -20 43 c-15 34 -20 66 -20 140 0 84 3 100 23
130 41 61 143 113 361 184 238 78 346 128 416 192 42 39 52 56 56 88 9 76 19
77 -352 -29 -506 -145 -526 -151 -584 -195 -214 -161 -228 -466 -30 -645 97
-87 250 -126 370 -93 30 8 534 161 1118 341 l1064 325 256 -78 c142 -44 635
-196 1097 -338 836 -257 840 -258 930 -258 80 0 98 4 156 32 199 93 293 300
229 506 -32 105 -119 205 -215 248 -38 17 -835 249 -855 249 -14 0 -23 -46
-16 -75 12 -46 95 -114 201 -165 55 -26 200 -80 322 -120 234 -75 306 -112
319 -165 3 -13 12 -29 20 -36 30 -25 10 -174 -36 -259 -11 -21 -12 -21 -50 14
-24 21 -63 42 -102 54 -1883 585 -2730 847 -3438 1063 -196 60 -364 105 -422
114 -135 21 -335 19 -420 -4 -38 -9 -68 -15 -68 -12 0 3 16 27 34 52 69 94
203 154 421 189 209 34 213 35 328 111 91 60 115 71 163 76 l56 6 -67 21 -67
21 32 23 31 23 1153 0 1154 0 35 -24 36 -25 -62 -18 -62 -18 40 -8 c73 -15
101 -28 188 -87 93 -64 106 -68 258 -91 151 -24 287 -61 348 -97 56 -32 128
-99 146 -133 l13 -26 -66 17 c-85 23 -286 25 -420 4 -54 -8 -169 -36 -257 -63
-88 -27 -226 -69 -307 -93 -82 -24 -148 -46 -148 -49 0 -3 71 -25 158 -49 86
-25 235 -69 329 -98 l173 -53 139 0 c241 0 404 48 490 146 56 64 74 125 69
234 -6 119 -41 192 -137 283 -136 128 -344 204 -588 214 l-133 6 -2 1298 c-1
715 -2 1309 -2 1322 -1 17 5 22 24 22 22 0 26 -5 33 -55 5 -30 60 -364 122
-743 123 -747 121 -738 197 -802 18 -15 424 -223 903 -462 635 -316 882 -435
916 -440 103 -12 218 49 273 147 27 48 31 65 31 130 0 64 -4 83 -29 127 -16
29 -40 62 -53 75 -13 13 -381 201 -816 419 l-792 396 -100 602 -100 601 37 0
38 0 0 74 c0 103 -25 290 -56 416 -83 337 -248 544 -481 605 -41 11 -112 15
-251 15 l-194 0 4 -55 c9 -108 57 -140 242 -160 69 -8 144 -19 168 -25 59 -16
132 -64 173 -114 41 -51 96 -165 106 -221 21 -122 71 -352 79 -367 6 -10 10
-26 10 -36 0 -10 4 -22 8 -28 4 -5 14 -26 21 -48 11 -32 11 -40 0 -47 -16 -10
-361 -12 -396 -3 -13 4 -24 17 -28 33 -11 52 -42 91 -73 91 -40 0 -113 -58
-152 -121 -60 -98 -60 -98 -60 -1286 l0 -1073 31 -57 c17 -32 35 -63 40 -69 6
-8 4 -14 -7 -18 -23 -9 -2497 -7 -2510 2 -8 5 -1 28 22 76 l34 69 0 1051 c0
1116 -3 1189 -46 1286 -26 58 -89 123 -137 139 -24 9 -32 7 -52 -13 -13 -13
-29 -42 -36 -64 -9 -33 -17 -41 -42 -46 -47 -9 -370 -7 -386 3 -12 8 -11 20 8
83 13 40 36 136 52 213 46 221 86 325 166 431 81 108 139 135 337 158 187 22
235 53 244 161 l4 55 -198 -1 c-141 0 -215 -5 -253 -15z m3474 -2137 c39 -197
85 -275 261 -438 28 -26 79 -61 115 -79 35 -18 66 -36 67 -41 2 -5 8 -7 13 -3
5 3 9 0 9 -6 0 -6 5 -8 10 -5 6 3 10 1 10 -5 0 -6 5 -8 10 -5 6 3 10 1 10 -5
0 -6 5 -8 10 -5 6 3 10 1 10 -5 0 -6 5 -8 10 -5 6 3 10 1 10 -5 0 -6 5 -8 10
-5 6 3 10 1 10 -5 0 -6 5 -8 10 -5 6 3 10 1 10 -5 0 -6 5 -8 10 -5 6 3 10 1
10 -5 0 -6 5 -8 10 -5 6 3 10 1 10 -5 0 -6 5 -8 10 -5 6 3 10 1 10 -5 0 -6 5
-8 10 -5 6 3 10 1 10 -5 0 -6 5 -8 10 -5 6 3 10 1 10 -5 0 -6 5 -8 10 -5 6 3
10 1 10 -5 0 -6 5 -8 10 -5 6 3 10 1 10 -5 0 -6 5 -8 10 -5 6 3 10 1 10 -5 0
-6 5 -8 10 -5 6 3 10 1 10 -5 0 -6 5 -8 10 -5 6 3 10 1 10 -5 0 -6 5 -8 10 -5
6 3 10 1 10 -5 0 -6 5 -8 10 -5 6 3 10 1 10 -5 0 -6 5 -8 10 -5 6 3 10 1 10
-5 0 -6 5 -8 10 -5 6 3 10 1 10 -5 0 -6 5 -8 10 -5 6 3 10 1 10 -5 0 -6 5 -8
10 -5 6 3 10 1 10 -5 0 -6 5 -8 10 -5 6 3 10 1 10 -5 0 -6 5 -8 10 -5 6 3 10
1 10 -5 0 -6 5 -8 10 -5 6 3 10 1 10 -5 0 -6 5 -8 10 -5 6 3 10 1 10 -5 0 -6
5 -8 10 -5 6 3 10 1 10 -5 0 -6 5 -8 10 -5 6 3 10 1 10 -5 0 -6 5 -8 10 -5 6
3 10 1 10 -5 0 -6 5 -8 10 -5 6 3 10 1 10 -5 0 -6 5 -8 10 -5 6 3 10 1 10 -5
0 -6 5 -8 10 -5 6 3 10 1 10 -5 0 -6 5 -8 10 -5 6 3 10 1 10 -5 0 -6 5 -8 10
-5 6 3 10 1 10 -5 0 -6 5 -8 10 -5 6 3 10 1 10 -5 0 -6 5 -8 10 -5 6 3 10 1
10 -5 0 -6 5 -8 10 -5 6 3 10 1 10 -5 0 -6 5 -8 10 -5 6 3 10 1 10 -5 0 -6 5
-8 10 -5 6 3 10 1 10 -5 0 -6 5 -8 10 -5 6 3 10 1 10 -5 0 -6 5 -8 10 -5 6 3
10 1 10 -5 0 -6 5 -8 10 -5 6 3 10 1 10 -5 0 -6 5 -8 10 -5 6 3 10 1 10 -5 0
-6 5 -8 10 -5 6 3 10 1 10 -5 0 -6 5 -8 10 -5 6 3 10 1 10 -5 0 -6 5 -8 10 -5
6 3 10 1 10 -5 0 -6 5 -8 10 -5 6 3 10 -1 10 -9 0 -11 -157 62 -531 250 -293
146 -582 285 -643 308 -197 77 -253 116 -267 187 -4 24 -8 152 -7 284 0 176 3
227 9 190 5 -27 21 -108 34 -178z m-3870 -347 c-18 -29 -43 -49 -95 -75 -66
-33 -135 -61 -172 -70 -9 -2 -26 -9 -37 -15 -12 -6 -21 -7 -21 -3 0 4 -5 1
-10 -7 -9 -13 -10 -13 -10 0 0 9 10 22 23 30 12 8 65 58 119 111 80 81 103
110 136 180 36 75 78 227 84 307 2 15 4 -73 5 -195 l3 -223 -25 -40z m-358
-182 c-3 -8 -6 -5 -6 6 -1 11 2 17 5 13 3 -3 4 -12 1 -19z m-20 -10 c-3 -8 -6
-5 -6 6 -1 11 2 17 5 13 3 -3 4 -12 1 -19z m-20 -10 c-3 -8 -6 -5 -6 6 -1 11
2 17 5 13 3 -3 4 -12 1 -19z m-20 -10 c-3 -8 -6 -5 -6 6 -1 11 2 17 5 13 3 -3
4 -12 1 -19z m-20 -10 c-3 -8 -6 -5 -6 6 -1 11 2 17 5 13 3 -3 4 -12 1 -19z
m-20 -10 c-3 -8 -6 -5 -6 6 -1 11 2 17 5 13 3 -3 4 -12 1 -19z m-20 -10 c-3
-8 -6 -5 -6 6 -1 11 2 17 5 13 3 -3 4 -12 1 -19z m-20 -10 c-3 -8 -6 -5 -6 6
-1 11 2 17 5 13 3 -3 4 -12 1 -19z m-20 -10 c-3 -8 -6 -5 -6 6 -1 11 2 17 5
13 3 -3 4 -12 1 -19z m-20 -10 c-3 -8 -6 -5 -6 6 -1 11 2 17 5 13 3 -3 4 -12
1 -19z m-20 -10 c-3 -8 -6 -5 -6 6 -1 11 2 17 5 13 3 -3 4 -12 1 -19z m-20
-10 c-3 -8 -6 -5 -6 6 -1 11 2 17 5 13 3 -3 4 -12 1 -19z m-20 -10 c-3 -8 -6
-5 -6 6 -1 11 2 17 5 13 3 -3 4 -12 1 -19z m-20 -10 c-3 -8 -6 -5 -6 6 -1 11
2 17 5 13 3 -3 4 -12 1 -19z m-20 -10 c-3 -8 -6 -5 -6 6 -1 11 2 17 5 13 3 -3
4 -12 1 -19z m-20 -10 c-3 -8 -6 -5 -6 6 -1 11 2 17 5 13 3 -3 4 -12 1 -19z
m-20 -10 c-3 -8 -6 -5 -6 6 -1 11 2 17 5 13 3 -3 4 -12 1 -19z m-20 -10 c-3
-8 -6 -5 -6 6 -1 11 2 17 5 13 3 -3 4 -12 1 -19z m-20 -10 c-3 -8 -6 -5 -6 6
-1 11 2 17 5 13 3 -3 4 -12 1 -19z m-20 -10 c-3 -8 -6 -5 -6 6 -1 11 2 17 5
13 3 -3 4 -12 1 -19z m-20 -10 c-3 -8 -6 -5 -6 6 -1 11 2 17 5 13 3 -3 4 -12
1 -19z m-20 -10 c-3 -8 -6 -5 -6 6 -1 11 2 17 5 13 3 -3 4 -12 1 -19z m-20
-10 c-3 -8 -6 -5 -6 6 -1 11 2 17 5 13 3 -3 4 -12 1 -19z m-20 -10 c-3 -8 -6
-5 -6 6 -1 11 2 17 5 13 3 -3 4 -12 1 -19z m-20 -10 c-3 -8 -6 -5 -6 6 -1 11
2 17 5 13 3 -3 4 -12 1 -19z m-20 -10 c-3 -8 -6 -5 -6 6 -1 11 2 17 5 13 3 -3
4 -12 1 -19z m-20 -10 c-3 -8 -6 -5 -6 6 -1 11 2 17 5 13 3 -3 4 -12 1 -19z
m-20 -10 c-3 -8 -6 -5 -6 6 -1 11 2 17 5 13 3 -3 4 -12 1 -19z m-20 -10 c-3
-8 -6 -5 -6 6 -1 11 2 17 5 13 3 -3 4 -12 1 -19z m-20 -10 c-3 -8 -6 -5 -6 6
-1 11 2 17 5 13 3 -3 4 -12 1 -19z m-20 -10 c-3 -8 -6 -5 -6 6 -1 11 2 17 5
13 3 -3 4 -12 1 -19z m-20 -10 c-3 -8 -6 -5 -6 6 -1 11 2 17 5 13 3 -3 4 -12
1 -19z m-20 -10 c-3 -8 -6 -5 -6 6 -1 11 2 17 5 13 3 -3 4 -12 1 -19z m-20
-10 c-3 -8 -6 -5 -6 6 -1 11 2 17 5 13 3 -3 4 -12 1 -19z m-20 -10 c-3 -8 -6
-5 -6 6 -1 11 2 17 5 13 3 -3 4 -12 1 -19z m-20 -10 c-3 -8 -6 -5 -6 6 -1 11
2 17 5 13 3 -3 4 -12 1 -19z m-20 -10 c-3 -8 -6 -5 -6 6 -1 11 2 17 5 13 3 -3
4 -12 1 -19z m-20 -10 c-3 -8 -6 -5 -6 6 -1 11 2 17 5 13 3 -3 4 -12 1 -19z
m-20 -10 c-3 -8 -6 -5 -6 6 -1 11 2 17 5 13 3 -3 4 -12 1 -19z m-20 -10 c-3
-8 -6 -5 -6 6 -1 11 2 17 5 13 3 -3 4 -12 1 -19z m-20 -10 c-3 -8 -6 -5 -6 6
-1 11 2 17 5 13 3 -3 4 -12 1 -19z m-20 -10 c-3 -8 -6 -5 -6 6 -1 11 2 17 5
13 3 -3 4 -12 1 -19z m-20 -10 c-3 -8 -6 -5 -6 6 -1 11 2 17 5 13 3 -3 4 -12
1 -19z m-20 -10 c-3 -8 -6 -5 -6 6 -1 11 2 17 5 13 3 -3 4 -12 1 -19z m-20
-10 c-3 -8 -6 -5 -6 6 -1 11 2 17 5 13 3 -3 4 -12 1 -19z m-20 -10 c-3 -8 -6
-5 -6 6 -1 11 2 17 5 13 3 -3 4 -12 1 -19z m-20 -10 c-3 -8 -6 -5 -6 6 -1 11
2 17 5 13 3 -3 4 -12 1 -19z m-20 -10 c-3 -8 -6 -5 -6 6 -1 11 2 17 5 13 3 -3
4 -12 1 -19z m-20 -10 c-3 -8 -6 -5 -6 6 -1 11 2 17 5 13 3 -3 4 -12 1 -19z
m-20 -10 c-3 -8 -6 -5 -6 6 -1 11 2 17 5 13 3 -3 4 -12 1 -19z m-20 -10 c-3
-8 -6 -5 -6 6 -1 11 2 17 5 13 3 -3 4 -12 1 -19z m-20 -10 c-3 -8 -6 -5 -6 6
-1 11 2 17 5 13 3 -3 4 -12 1 -19z m-20 -10 c-3 -8 -6 -5 -6 6 -1 11 2 17 5
13 3 -3 4 -12 1 -19z m-20 -10 c-3 -8 -6 -5 -6 6 -1 11 2 17 5 13 3 -3 4 -12
1 -19z m6710 0 c-3 -8 -6 -5 -6 6 -1 11 2 17 5 13 3 -3 4 -12 1 -19z m-6730
-10 c-3 -8 -6 -5 -6 6 -1 11 2 17 5 13 3 -3 4 -12 1 -19z m6750 0 c-3 -8 -6
-5 -6 6 -1 11 2 17 5 13 3 -3 4 -12 1 -19z m-6770 -10 c-3 -8 -6 -5 -6 6 -1
11 2 17 5 13 3 -3 4 -12 1 -19z m6790 0 c-3 -8 -6 -5 -6 6 -1 11 2 17 5 13 3
-3 4 -12 1 -19z m-6810 -10 c-3 -8 -6 -5 -6 6 -1 11 2 17 5 13 3 -3 4 -12 1
-19z m6830 0 c-3 -8 -6 -5 -6 6 -1 11 2 17 5 13 3 -3 4 -12 1 -19z m-6850 -10
c-3 -8 -6 -5 -6 6 -1 11 2 17 5 13 3 -3 4 -12 1 -19z m6870 0 c-3 -8 -6 -5 -6
6 -1 11 2 17 5 13 3 -3 4 -12 1 -19z m-6890 -10 c-3 -8 -6 -5 -6 6 -1 11 2 17
5 13 3 -3 4 -12 1 -19z m6910 0 c-3 -8 -6 -5 -6 6 -1 11 2 17 5 13 3 -3 4 -12
1 -19z m-6930 -10 c-3 -8 -6 -5 -6 6 -1 11 2 17 5 13 3 -3 4 -12 1 -19z m6950
0 c-3 -8 -6 -5 -6 6 -1 11 2 17 5 13 3 -3 4 -12 1 -19z m-4937 -1134 c39 -13
57 -19 80 -29 3 -2 15 -6 28 -10 12 -4 22 -11 22 -16 0 -20 -38 -26 -105 -17
-109 15 -212 73 -162 91 18 7 85 -3 137 -19z m3061 16 c16 0 9 -29 -8 -34 -10
-3 -20 -5 -23 -4 -3 1 -15 -4 -27 -10 -24 -13 -73 -1 -73 18 0 10 47 26 67 22
6 -1 15 2 18 8 4 6 14 9 22 6 8 -3 19 -6 24 -6z m-2040 -320 c110 -33 169 -60
169 -79 0 -24 -82 -63 -136 -65 -42 -1 -49 3 -82 40 -84 94 -95 110 -87 123 7
13 46 8 136 -19z M4790 6062 c0 -44 37 -141 74 -197 255 -382 826 -320 985
108 26 72 28 117 3 117 -47 0 -90 -40 -174 -163 -72 -106 -200 -167 -348 -167
-177 0 -293 63 -395 215 -72 107 -145 151 -145 87z"/>
</g>
</svg>
