<?xml version="1.0" standalone="no"?>
<!DOCTYPE svg PUBLIC "-//W3C//DTD SVG 20010904//EN"
 "http://www.w3.org/TR/2001/REC-SVG-20010904/DTD/svg10.dtd">
<svg version="1.0" xmlns="http://www.w3.org/2000/svg"
 width="2048.000000pt" height="2048.000000pt" viewBox="0 0 2048.000000 2048.000000"
 preserveAspectRatio="xMidYMid meet">
<metadata>
Created by potrace 1.13, written by Peter Selinger 2001-2015
</metadata>
<g transform="translate(0.000000,2048.000000) scale(0.192120,-0.192120)"
fill="#000000" stroke="none">
<path d="M1320 10324 c-273 -42 -463 -131 -640 -301 -184 -175 -292 -378 -335
-627 -13 -78 -15 -441 -15 -3051 l0 -2962 82 -5 c48 -3 113 -16 155 -30 l73
-24 20 60 c80 240 275 430 527 517 94 32 104 33 248 33 175 1 231 -11 370 -79
144 -70 266 -184 354 -329 43 -72 89 -207 97 -285 4 -34 10 -63 13 -65 3 -2
35 18 71 45 236 178 561 215 826 94 216 -99 378 -277 457 -502 26 -77 31 -105
35 -223 5 -157 -13 -252 -72 -377 l-35 -72 37 -23 c87 -53 192 -171 255 -289
59 -108 89 -218 91 -337 1 -98 2 -103 21 -97 11 3 47 13 80 23 45 13 95 17
200 16 129 -1 148 -3 235 -32 293 -97 505 -335 566 -632 22 -109 15 -276 -15
-370 -11 -36 -21 -66 -21 -67 0 -2 147 -3 328 -3 l327 0 42 88 c23 48 69 121
102 162 53 66 58 75 40 78 -29 5 -71 -15 -90 -41 -9 -12 -31 -59 -50 -105 -18
-46 -46 -97 -61 -115 l-27 -32 -1 1236 c0 1271 -2 1350 -41 1544 -36 179 -118
393 -186 483 l-24 32 123 1 123 1 -45 21 c-66 30 -139 34 -169 10 l-25 -20
-88 92 c-49 51 -117 111 -151 134 l-63 41 -704 0 -703 0 4 -212 c2 -117 2
-348 1 -513 l-3 -300 -33 95 c-35 100 -98 234 -116 245 -6 4 -15 17 -20 30 -5
13 -40 47 -79 77 -38 29 -70 58 -70 65 -1 6 -14 21 -31 33 -24 17 -30 28 -30
60 0 21 -4 42 -10 45 -6 4 -10 109 -10 281 0 300 1 297 -62 376 -24 31 -28 42
-22 75 5 35 3 41 -19 56 -14 9 -61 61 -105 115 -122 150 -156 175 -350 252
-45 18 -85 36 -88 41 -3 5 39 10 93 10 54 1 148 4 208 8 l110 6 -70 46 c-38
25 -94 59 -124 75 -72 38 -115 92 -152 188 -41 107 -82 186 -139 271 -44 64
-86 109 -242 257 -32 30 -58 59 -58 65 0 23 68 33 221 33 135 0 159 2 159 15
0 8 7 15 15 15 19 0 31 9 99 75 l51 50 -958 6 -957 6 -38 40 c-45 49 -87 71
-147 80 -35 4 -45 10 -45 24 0 15 -8 19 -40 19 l-40 0 0 40 c0 29 -4 40 -15
40 -13 0 -15 43 -15 330 0 213 -4 330 -10 330 -5 0 -10 7 -10 15 0 9 -5 21
-10 28 -25 29 -98 152 -94 157 3 3 540 7 1192 10 l1187 5 -52 50 c-68 66 -79
75 -98 75 -8 0 -15 5 -15 10 0 7 -332 10 -975 10 -860 0 -975 2 -975 15 0 11
-12 15 -45 15 l-45 0 0 360 0 360 45 0 c38 0 45 3 45 20 0 20 7 20 975 20 860
0 975 2 975 15 0 8 7 15 15 15 19 0 31 9 99 75 l51 50 -30 6 c-16 4 -553 7
-1193 8 l-1162 1 30 53 c17 28 39 68 48 87 9 19 20 37 25 38 11 6 9 720 -3
727 -5 3 -10 14 -10 23 0 10 -18 48 -40 86 -23 38 -38 76 -36 83 4 11 248 13
1372 13 l1367 0 -7 32 c-10 52 -49 94 -100 107 -32 8 -372 11 -1195 11 -1038
0 -1151 2 -1165 16 -9 9 -29 19 -44 23 -24 7 -27 12 -30 59 -4 60 13 103 87
225 99 162 231 269 422 341 162 61 86 58 1769 57 1577 -2 1769 2 2155 39 308
29 614 39 890 29 211 -8 605 -37 735 -55 25 -4 641 -9 1370 -13 1324 -7 1325
-7 1409 -29 161 -43 309 -125 419 -233 80 -77 122 -141 167 -249 42 -103 44
-138 9 -179 l-25 -31 -1202 -2 c-1094 -3 -1205 -4 -1232 -19 -40 -22 -61 -47
-80 -92 l-15 -37 1375 0 c1173 0 1376 -2 1381 -14 3 -8 -5 -31 -19 -53 -13
-21 -28 -49 -32 -63 -4 -14 -13 -28 -19 -32 -17 -11 -15 -778 1 -798 7 -8 29
-45 48 -82 l35 -68 -1173 -1 c-644 -1 -1185 -4 -1201 -8 l-30 -6 44 -38 c63
-53 127 -87 166 -87 24 0 34 -5 34 -15 0 -13 115 -15 975 -15 968 0 975 0 975
-20 0 -13 7 -20 20 -20 20 0 20 -7 20 -360 0 -353 0 -360 -20 -360 -11 0 -20
-7 -20 -15 0 -13 -115 -15 -975 -15 -643 0 -975 -3 -975 -10 0 -5 -18 -10 -40
-10 -22 0 -40 -4 -40 -9 0 -5 -10 -11 -22 -15 -13 -3 -45 -27 -73 -53 l-50
-48 1187 -5 c652 -3 1189 -7 1191 -10 3 -3 -17 -41 -44 -85 -27 -44 -49 -88
-49 -97 0 -10 -4 -18 -10 -18 -6 0 -10 -27 -10 -60 0 -33 -4 -60 -10 -60 -5 0
-10 -14 -10 -31 0 -22 -5 -32 -20 -36 -11 -3 -20 -13 -20 -22 0 -12 -16 -22
-52 -34 -82 -26 -201 -91 -284 -154 -145 -111 -152 -115 -219 -110 -33 3 -107
12 -165 22 -224 36 -484 -20 -662 -143 -101 -70 -137 -124 -145 -214 l-6 -58
-71 -1 c-39 -1 -190 -4 -336 -8 l-264 -6 44 -46 c47 -47 89 -73 140 -84 16 -4
32 -11 35 -16 4 -5 33 -9 65 -9 53 0 61 -3 76 -26 16 -24 16 -30 0 -106 -20
-90 -54 -176 -79 -197 -10 -7 -17 -19 -17 -25 0 -6 -19 -22 -41 -36 -58 -36
-155 -142 -230 -251 -35 -52 -82 -112 -104 -134 -48 -48 -201 -155 -193 -134
3 8 31 75 61 149 90 220 141 406 179 660 10 66 13 351 13 1260 l0 1175 -23
145 c-47 297 -111 508 -222 735 -348 713 -1024 1115 -1875 1115 -435 0 -863
-126 -1210 -356 l-53 -35 -83 12 c-51 7 -131 10 -208 6 -301 -14 -584 -137
-813 -355 -285 -272 -456 -630 -498 -1047 -8 -77 -10 -490 -8 -1380 4 -1239 4
-1273 25 -1400 61 -370 156 -637 334 -938 34 -56 63 -104 65 -106 2 -2 29 24
60 58 95 105 207 174 364 227 l85 29 503 3 502 3 0 97 0 97 -88 28 c-48 16
-136 52 -197 81 -480 229 -852 636 -1009 1106 -78 233 -84 293 -88 878 l-3
492 109 45 c196 80 358 188 525 349 178 174 297 337 400 551 32 66 63 131 68
144 9 23 11 21 55 -45 300 -449 951 -807 1730 -953 252 -47 438 -67 758 -82
135 -6 245 -12 246 -13 1 0 -2 -239 -6 -531 -8 -589 -10 -607 -86 -834 -157
-472 -533 -883 -1017 -1111 -56 -26 -141 -61 -189 -77 l-88 -28 0 -97 0 -97
503 -3 502 -3 85 -29 c148 -50 265 -120 347 -209 l43 -46 32 47 c18 26 59 92
90 147 l58 100 166 0 166 0 23 58 c76 186 259 361 458 436 26 10 27 12 27 93
0 275 168 551 423 697 29 16 95 44 147 62 83 29 111 33 226 37 152 5 247 -14
371 -72 l71 -34 25 36 c91 136 244 251 406 307 70 23 237 52 247 42 3 -2 -16
-47 -42 -98 l-47 -94 -4 -126 c-4 -113 -3 -131 17 -173 12 -27 18 -51 15 -54
-4 -4 -317 -9 -697 -12 l-690 -5 34 -25 33 -25 360 -1 c198 -1 464 -5 592 -10
213 -6 232 -9 236 -26 3 -10 12 -18 21 -18 14 0 16 -41 16 -404 0 -395 0 -404
-20 -409 -16 -4 -20 -14 -20 -46 l0 -41 -97 -1 c-54 0 -120 -5 -148 -11 -32
-7 -331 -13 -830 -17 -774 -6 -781 -7 -860 -29 -44 -13 -82 -25 -84 -28 -2 -2
461 -4 1030 -5 569 0 1055 -4 1081 -7 l48 -7 -18 -30 c-15 -27 -17 -72 -17
-520 0 -457 1 -492 18 -517 l18 -26 -53 -7 c-29 -4 -375 -5 -768 -3 l-715 3
-60 37 c-78 48 -157 68 -270 68 -111 0 -191 -20 -269 -66 l-59 -35 -183 -6
-183 -6 25 -32 c13 -18 24 -39 24 -49 0 -9 -22 -65 -49 -124 -57 -126 -74
-176 -101 -297 -26 -120 -25 -135 6 -50 70 197 222 370 409 465 111 57 201 80
327 87 347 19 650 -155 795 -457 20 -41 37 -76 38 -77 1 -2 24 18 51 43 157
144 342 216 559 216 189 0 345 -52 490 -163 l65 -50 -3 3108 c-3 2858 -4 3113
-19 3173 -58 223 -142 381 -285 530 -160 169 -333 267 -572 328 -61 15 -367
16 -4086 18 -2211 1 -4031 0 -4045 -2z m4640 -499 c283 -30 489 -89 719 -204
238 -120 486 -337 576 -506 210 -393 241 -473 320 -830 l45 -204 0 -1290 c0
-1254 -1 -1294 -20 -1381 -68 -305 -203 -560 -296 -560 -14 0 -76 22 -137 49
-135 60 -229 84 -402 105 -87 11 -134 21 -145 31 -14 15 -11 20 26 53 262 238
348 331 471 516 117 174 231 419 287 618 55 191 56 209 56 789 0 309 -4 539
-9 539 -5 0 -11 10 -15 23 -7 29 -128 152 -170 174 -52 27 -84 32 -260 43
-683 42 -1157 152 -1595 368 -226 112 -395 231 -566 397 -228 222 -271 255
-336 255 -86 0 -206 -114 -328 -312 -113 -184 -168 -256 -281 -368 -113 -112
-224 -193 -379 -275 -124 -66 -210 -136 -278 -229 l-43 -58 0 -582 0 -582 30
-122 c64 -261 194 -530 372 -770 68 -91 284 -316 391 -409 82 -69 69 -80 -128
-103 -175 -20 -305 -61 -455 -144 -72 -39 -114 -44 -147 -18 -45 34 -120 179
-162 310 -86 269 -81 155 -81 1654 0 1420 0 1424 50 1650 43 190 114 345 262
569 87 132 105 153 177 207 139 105 253 161 424 208 80 22 120 26 314 32 l222
7 203 102 c220 110 286 138 423 178 272 78 566 102 865 70z m-5135 -3969 c82
-23 196 -78 270 -130 65 -47 162 -146 192 -196 20 -35 17 -35 128 14 502 222
1103 -156 1132 -713 l6 -107 46 -19 c86 -35 164 -88 243 -163 96 -92 168 -199
205 -304 16 -43 33 -76 38 -74 51 18 57 18 51 -2 -20 -61 -26 -168 -26 -442 0
-288 -4 -351 -19 -350 -3 1 -39 32 -80 70 -41 39 -80 70 -88 70 -9 0 -13 15
-13 50 0 31 4 50 11 50 7 0 22 11 35 25 l23 25 -373 0 c-205 0 -394 3 -419 6
-45 6 -46 8 -64 58 -46 131 -261 266 -508 317 -82 17 -284 15 -370 -4 -253
-56 -450 -180 -490 -309 -18 -55 -18 -56 -63 -62 -57 -8 -196 -8 -243 0 -36 6
-36 7 -23 33 8 14 14 34 14 44 0 9 5 17 10 17 7 0 10 157 10 450 0 293 -3 450
-10 450 -5 0 -10 10 -10 23 0 12 -7 35 -15 51 -9 16 -13 32 -9 35 3 3 447 8
987 11 l982 5 -58 28 -58 27 -778 0 c-557 0 -780 3 -783 11 -2 6 -43 16 -91
22 l-87 10 0 38 c0 29 -5 39 -20 44 -19 6 -20 15 -20 346 0 191 -4 339 -9 339
-5 0 -12 16 -15 35 -4 19 -11 35 -15 35 -11 0 -84 111 -77 117 3 3 34 14 68
24 79 24 290 21 383 -5z m4497 -2248 c-38 -73 -35 -131 16 -302 l42 -139 0
-1299 0 -1299 -47 3 c-39 2 -49 7 -51 23 -2 11 -10 27 -17 35 -7 8 -16 38 -19
65 -25 183 -114 405 -217 540 -199 262 -460 408 -758 422 -141 7 -136 3 -231
198 -39 81 -95 176 -132 224 l-63 85 -6 340 c-6 296 -9 356 -29 451 -16 84
-23 160 -27 318 -3 114 -9 207 -14 207 -5 0 -9 11 -9 25 0 14 -4 25 -10 25 -5
0 -10 7 -10 15 0 8 -4 15 -8 15 -7 0 -52 82 -52 95 0 3 376 5 835 5 l834 0
-27 -52z m-2739 -25 c60 -5 67 -8 67 -28 0 -18 -14 -27 -82 -53 -106 -41 -178
-44 -198 -8 -16 32 -6 70 22 84 27 12 95 15 191 5z m6817 -43 c0 -5 7 -10 16
-10 15 0 6 -9 -80 -75 -11 -8 -39 -22 -63 -31 -57 -22 -95 -7 -134 54 -43 69
-38 72 122 72 86 0 139 -4 139 -10z M4480 6988 c-84 -24 -143 -103 -143 -193
0 -172 201 -265 330 -152 95 84 95 220 0 304 -55 48 -116 62 -187 41z M6056
6985 c-76 -27 -136 -110 -136 -190 0 -116 119 -220 229 -200 107 20 174 97
174 200 0 92 -59 170 -148 194 -51 14 -71 13 -119 -4z M5055 6403 c19 -103 90
-196 171 -224 50 -16 158 -16 208 0 81 28 152 121 171 224 l7 37 -282 0 -282
0 7 -37z M4500 5877 c0 -20 75 -119 133 -174 191 -184 466 -266 806 -242 243
18 432 94 582 237 61 57 139 157 139 179 0 4 -373 8 -830 8 -456 0 -830 -4
-830 -8z M4940 4894 c14 -16 33 -35 43 -42 25 -19 19 -67 -8 -68 -11 -1 -33
-9 -50 -18 -16 -9 -37 -16 -44 -16 -26 0 1 -17 55 -34 153 -50 385 -74 542
-56 98 11 250 48 295 72 19 10 17 12 -19 24 -21 8 -56 15 -76 17 -36 2 -38 4
-38 35 0 22 6 35 17 39 20 8 85 64 80 69 -2 2 -41 -3 -88 -12 -134 -24 -410
-29 -559 -10 -69 9 -136 20 -150 23 l-25 6 25 -29z M7360 4400 c-26 -52 -26
-159 0 -260 11 -41 20 -103 20 -137 0 -34 5 -65 10 -68 6 -4 10 -149 10 -404
0 -456 -2 -473 -71 -534 -22 -20 -46 -37 -53 -37 -36 0 -151 -114 -214 -212
l-57 -90 -3 641 -2 641 -933 -1 c-832 -1 -924 -3 -862 -15 49 -10 81 -12 108
-5 34 8 42 6 98 -30 263 -171 430 -516 469 -974 8 -89 11 -459 8 -1187 l-3
-1056 25 20 c148 116 328 187 471 188 l55 0 11 93 c31 257 160 465 381 613 2
1 -10 29 -27 62 -44 88 -71 193 -78 304 -27 446 306 832 754 874 l70 7 8 81
c4 44 7 88 6 96 -1 8 -5 258 -10 555 -7 505 -9 545 -29 616 -29 107 -107 259
-132 259 -5 0 -19 -18 -30 -40z m-452 -792 c-18 -29 -36 -54 -40 -56 -4 -2 -8
-10 -8 -18 0 -8 -4 -14 -10 -14 -5 0 -10 -9 -10 -20 0 -11 -4 -20 -10 -20 -6
0 -10 -114 -10 -322 0 -305 -1 -325 -20 -353 -11 -16 -20 -40 -20 -53 0 -30
-21 -70 -85 -162 -54 -78 -111 -191 -148 -295 -21 -57 -22 -78 -22 -370 l0
-310 -68 -85 c-47 -59 -91 -131 -143 -235 -52 -105 -85 -160 -111 -183 -47
-42 -70 -42 -81 1 -4 17 -12 30 -17 29 -4 -2 -12 2 -16 10 -5 7 -9 405 -9 884
0 939 -2 982 -55 1201 -36 151 -71 220 -152 301 -37 38 -84 81 -103 95 l-35
27 602 0 603 0 -32 -52z M333 2280 l2 -1025 28 -100 c106 -386 406 -686 795
-793 l97 -27 1845 -2 c1820 -3 1845 -2 1820 16 -13 11 -49 35 -79 53 l-55 33
-503 5 c-387 4 -506 8 -511 17 -5 7 -29 17 -55 22 l-46 8 -7 -68 c-6 -66 -8
-69 -33 -68 -14 0 -35 4 -45 8 -18 7 -17 9 8 28 55 43 33 53 -122 53 -64 0
-136 5 -159 10 -63 15 -142 66 -149 98 -4 15 -15 38 -24 52 -9 14 -20 32 -24
40 -3 8 -3 -3 0 -24 10 -71 44 -144 92 -197 46 -51 46 -51 17 -45 -175 36
-194 36 -1065 36 -510 0 -875 3 -905 9 -134 26 -292 96 -420 186 -74 53 -198
181 -255 265 -92 135 -179 386 -180 518 0 28 -4 52 -10 52 -7 0 -10 192 -10
555 0 363 3 555 10 555 6 0 10 111 10 314 0 199 -4 317 -10 321 -5 3 -10 17
-10 31 0 13 -4 24 -8 24 -5 0 -16 15 -25 33 -15 30 -16 -39 -14 -993z M10292
3088 l-32 -63 0 -237 c0 -152 4 -238 10 -238 7 0 10 -192 10 -555 0 -363 -3
-555 -10 -555 -5 0 -10 -19 -10 -42 0 -103 -50 -296 -107 -409 -142 -287 -371
-469 -703 -560 -33 -9 -279 -14 -950 -19 -792 -6 -916 -9 -990 -23 -47 -10
-93 -20 -104 -23 -10 -3 0 10 22 31 50 44 84 102 106 174 22 74 20 93 -4 46
-11 -22 -20 -48 -20 -60 0 -25 -69 -83 -119 -101 -20 -7 -77 -13 -128 -14 -50
0 -95 -4 -98 -10 -3 -5 -25 -10 -48 -10 -65 0 -75 -12 -35 -44 l33 -26 -30 -1
c-16 0 -41 -5 -55 -9 -14 -5 515 -8 1175 -7 l1200 2 97 27 c389 107 689 406
795 793 l28 100 3 790 c1 435 1 861 0 948 l-3 157 -33 -62z M6975 1425 c-4
-16 -10 -212 -14 -434 -5 -310 -9 -405 -18 -409 -7 -2 -13 -12 -13 -22 0 -11
-6 -23 -12 -27 -7 -4 -18 -17 -24 -28 -11 -19 -25 -20 -400 -26 -214 -4 -411
-9 -439 -13 -33 -5 -69 -2 -105 8 -30 8 -55 14 -56 13 -1 -1 -4 -37 -8 -79
l-7 -78 559 0 560 0 -5 553 c-3 303 -6 557 -7 562 -2 6 -6 -3 -11 -20z"/>
</g>
</svg>
