<?xml version="1.0" standalone="no"?>
<!DOCTYPE svg PUBLIC "-//W3C//DTD SVG 20010904//EN"
 "http://www.w3.org/TR/2001/REC-SVG-20010904/DTD/svg10.dtd">
<svg version="1.0" xmlns="http://www.w3.org/2000/svg"
 width="2048.000000pt" height="2048.000000pt" viewBox="0 0 2048.000000 2048.000000"
 preserveAspectRatio="xMidYMid meet">
<metadata>
Created by potrace 1.13, written by Peter Selinger 2001-2015
</metadata>
<g transform="translate(0.000000,2048.000000) scale(0.192120,-0.192120)"
fill="#000000" stroke="none">
<path d="M5274 10288 c-131 -139 -352 -533 -785 -1398 -358 -717 -911 -1880
-1249 -2628 -48 -105 -70 -144 -85 -147 -11 -2 -94 -18 -185 -36 -306 -59
-626 -147 -874 -240 -139 -52 -341 -142 -366 -162 -13 -10 -14 -41 -10 -200
l5 -187 50 82 c70 117 114 157 210 194 296 116 490 172 879 258 106 23 109 23
113 5 4 -13 11 -18 22 -14 9 2 40 9 70 15 105 20 225 109 299 222 23 35 133
261 245 503 700 1507 1190 2507 1513 3091 148 266 185 305 241 252 95 -88 636
-1145 1235 -2413 188 -398 572 -1220 595 -1275 30 -70 94 -169 145 -225 59
-65 170 -144 198 -142 3 0 15 -5 27 -11 11 -6 45 -14 75 -18 29 -3 67 -9 85
-14 27 -7 33 -5 38 11 4 13 13 18 23 14 10 -2 60 -14 112 -25 314 -67 588
-154 905 -285 207 -86 415 -210 530 -317 51 -48 106 -118 92 -118 -3 0 -94 27
-203 61 -270 82 -513 149 -772 213 -233 58 -643 150 -646 144 -23 -38 -64 -81
-93 -99 -21 -12 -39 -23 -40 -24 -2 -1 13 -30 31 -66 42 -78 81 -210 101 -344
31 -196 30 -528 -1 -682 l-6 -31 208 43 c738 152 1202 332 1393 541 116 127
128 250 39 416 -180 338 -857 655 -1793 838 -87 17 -160 32 -161 33 0 1 -34
74 -74 162 -581 1278 -1385 2932 -1703 3500 -200 357 -329 545 -377 545 -9 0
-34 -19 -56 -42z m2649 -4949 c89 -78 137 -220 137 -410 0 -168 -43 -359 -102
-453 l-19 -31 8 90 c4 50 8 180 7 290 0 214 -7 255 -69 432 -25 74 -32 123
-16 123 4 0 29 -18 54 -41z m557 -245 c334 -84 503 -133 522 -152 22 -22 10
-39 -52 -74 -144 -83 -695 -257 -724 -228 -13 13 -22 359 -11 458 6 52 9 62
23 58 10 -3 118 -30 242 -62z M1332 9490 c-216 -30 -409 -141 -547 -315 -55
-69 -127 -213 -151 -300 -21 -82 -29 -265 -15 -349 28 -163 112 -326 231 -448
33 -34 60 -63 60 -63 0 0 55 -209 122 -465 l123 -465 5 -2252 c3 -1238 8
-2255 12 -2259 11 -10 42 20 94 91 24 33 50 67 57 75 9 11 12 474 12 2225 l0
2210 -68 254 c-73 271 -98 353 -129 414 -11 22 -18 40 -16 42 2 1 25 -3 51
-10 l48 -12 -24 26 c-14 14 -45 64 -69 111 -24 47 -61 116 -82 153 -50 92 -46
102 26 71 230 -97 435 -60 603 111 77 78 122 147 166 255 27 68 29 80 29 215
0 97 -5 163 -16 204 -9 36 -12 67 -7 76 13 22 102 -70 142 -145 l31 -58 0
-210 c0 -156 -4 -220 -14 -250 -15 -42 -78 -142 -154 -247 -24 -33 -59 -89
-78 -125 -47 -89 -70 -129 -87 -148 -30 -36 -27 -39 21 -27 26 7 48 12 50 10
1 -1 -13 -35 -32 -76 -47 -102 -56 -133 -131 -421 l-65 -254 0 -681 c0 -584 2
-685 15 -709 8 -16 15 -25 15 -21 0 4 15 -3 33 -17 18 -14 51 -28 73 -32 40
-6 41 -5 48 26 3 18 6 327 6 687 l0 654 126 487 126 487 62 65 c100 105 163
209 206 345 34 106 39 310 11 427 -59 250 -216 446 -446 559 -140 68 -325 99
-473 79z m121 -300 c107 -40 195 -129 240 -244 16 -38 21 -75 21 -146 1 -88
-2 -101 -33 -167 -80 -171 -247 -263 -438 -241 -173 19 -327 172 -351 348 -29
212 98 405 308 466 62 19 182 11 253 -16z M3590 5851 c-331 -45 -373 -51 -432
-53 -21 -1 -38 -6 -38 -11 0 -4 -5 -5 -11 -1 -6 3 -14 3 -18 -2 -3 -5 -19 -16
-36 -25 -16 -10 -43 -35 -59 -57 -23 -33 -30 -54 -34 -111 -2 -39 -7 -71 -11
-71 -46 0 -986 -222 -1208 -286 l-23 -6 0 -334 0 -333 28 -15 c102 -52 529
-173 854 -241 255 -53 262 -54 255 -22 -18 73 -29 260 -24 412 11 320 68 556
165 683 l32 43 -31 39 c-17 21 -29 45 -26 53 3 8 35 18 84 25 43 6 148 23 233
36 85 14 243 36 350 50 107 15 232 31 278 37 l82 11 0 42 c0 54 -27 106 -68
129 -47 28 -176 30 -342 8z m-764 -488 c-8 -21 -25 -63 -39 -93 -14 -30 -38
-95 -53 -145 -26 -85 -27 -102 -28 -295 -1 -113 2 -245 6 -295 l8 -90 -35 70
c-49 100 -75 209 -82 355 -12 249 39 401 166 497 59 46 74 44 57 -4z m-402
-230 c3 -10 8 -106 12 -214 6 -173 4 -202 -11 -242 l-17 -45 -36 9 c-21 6
-119 33 -219 61 l-183 51 0 143 0 143 38 11 c72 22 377 98 394 99 9 1 19 -7
22 -16z M6870 5828 c-52 -26 -80 -73 -80 -130 0 -45 -25 -38 270 -78 124 -17
332 -49 463 -70 130 -22 244 -40 252 -40 20 0 20 88 0 137 -35 84 -122 137
-241 148 -27 2 -76 7 -109 10 -33 2 -127 14 -210 25 -205 27 -288 26 -345 -2z
M4755 5719 c-110 -4 -313 -17 -452 -27 l-252 -19 -63 -58 c-155 -144 -371
-248 -568 -275 -46 -6 -104 -9 -129 -5 -34 5 -43 4 -38 -7 86 -206 112 -321
127 -570 9 -160 -1 -371 -25 -513 -14 -84 -61 -246 -89 -306 -5 -12 4 -18 45
-27 67 -16 137 -56 225 -130 l70 -59 64 60 c130 120 332 257 475 322 181 82
360 124 565 132 160 6 287 -15 394 -67 79 -37 177 -128 196 -182 16 -44 25
-48 34 -15 10 42 77 118 138 158 168 108 403 135 693 79 283 -55 584 -218 819
-445 l59 -56 36 34 c100 94 207 159 281 172 33 6 40 10 34 23 -4 10 -20 52
-35 94 -122 336 -104 997 35 1266 9 17 16 33 16 35 0 2 -29 7 -65 11 -169 17
-381 118 -546 259 l-66 57 -234 20 c-129 11 -310 24 -404 30 -227 15 -1089 21
-1340 9z m-320 -159 c126 -18 160 -19 360 -10 282 12 788 13 1069 0 180 -8
237 -7 318 5 227 34 334 29 432 -19 43 -21 130 -92 302 -246 17 -15 41 -33 52
-39 12 -7 22 -18 22 -26 0 -7 15 -19 34 -25 43 -14 65 -47 65 -96 0 -22 -3
-246 -5 -499 -6 -487 -10 -537 -51 -543 -11 -2 -67 29 -129 70 -177 117 -259
152 -559 238 -60 17 -132 38 -160 46 -163 47 -241 39 -393 -42 l-104 -56 28
48 c24 40 29 60 28 109 0 34 -8 73 -17 91 -19 36 -79 91 -114 105 -32 12 -534
12 -566 0 -35 -14 -95 -69 -114 -105 -9 -18 -17 -57 -17 -91 -1 -49 4 -69 28
-109 l29 -49 -59 33 c-121 68 -182 98 -211 104 -45 10 -134 -7 -357 -69 -362
-101 -406 -119 -608 -245 -114 -72 -147 -83 -149 -52 0 9 -1 238 -1 508 0 549
-1 542 67 564 19 6 35 18 35 26 0 8 4 14 8 14 10 0 25 12 131 108 204 184 292
245 373 261 64 13 81 12 233 -9z m1045 -1297 c21 -5 12 -10 -50 -30 -41 -12
-89 -23 -106 -23 -44 0 -194 46 -169 53 30 7 296 8 325 0z M4120 5393 c-27
-10 -65 -37 -96 -68 -74 -74 -84 -114 -84 -330 0 -207 10 -251 75 -323 63 -70
127 -96 221 -90 111 7 189 61 236 163 22 47 23 62 23 250 0 199 0 200 -28 257
-64 131 -208 189 -347 141z m120 -395 c0 -131 -7 -167 -29 -154 -7 5 -11 55
-11 147 0 132 1 139 20 139 19 0 20 -7 20 -132z M6344 5394 c-60 -21 -119 -77
-151 -142 -28 -57 -28 -58 -28 -262 0 -203 0 -205 27 -256 50 -95 126 -145
233 -152 93 -6 158 21 220 90 65 72 75 116 75 323 0 216 -10 256 -83 330 -80
80 -190 106 -293 69z m116 -404 c0 -120 -2 -142 -16 -147 -28 -10 -34 18 -34
155 l0 132 25 0 25 0 0 -140z M1639 4501 c-40 -8 -88 -40 -89 -59 0 -7 -4 -10
-10 -7 -7 4 -10 -275 -10 -829 0 -551 3 -836 10 -836 6 0 10 -7 10 -15 0 -8 4
-15 9 -15 5 0 14 -12 20 -27 16 -39 118 -146 130 -138 12 7 16 1870 5 1913 -7
23 -15 24 -75 13z M2885 4139 c36 -185 137 -349 214 -349 28 0 29 -1 20 -37
-12 -53 -11 -206 2 -298 22 -158 77 -274 141 -299 32 -12 32 -7 3 -116 -29
-102 -25 -370 5 -370 20 0 70 53 70 75 0 13 4 26 9 29 4 3 11 47 15 98 3 51 9
129 12 174 l6 81 -56 114 c-31 63 -60 134 -65 159 -6 25 -14 63 -20 85 -6 22
-11 70 -11 107 0 37 -4 69 -9 73 -5 3 -15 22 -22 43 -6 20 -42 82 -78 137 -37
56 -81 138 -99 186 -35 94 -60 123 -111 134 l-33 7 7 -33z M7725 4156 c-40
-17 -50 -31 -80 -110 -34 -92 -59 -137 -108 -205 -23 -31 -50 -77 -61 -101
-10 -25 -22 -53 -27 -62 -5 -10 -9 -46 -9 -80 -1 -104 -34 -228 -95 -352 l-55
-112 0 -167 c0 -92 4 -175 9 -185 5 -9 14 -31 21 -48 10 -28 65 -72 76 -61 3
2 9 33 15 68 13 77 5 224 -17 305 -28 102 -28 98 4 110 64 25 119 141 141 299
13 94 14 259 2 303 -9 31 -9 32 20 32 77 0 177 163 214 348 7 36 -1 39 -50 18z
M5310 3821 c0 -5 -14 -23 -32 -40 -37 -36 -114 -67 -217 -87 -86 -17 -413 -38
-454 -30 -40 8 -304 -61 -552 -145 -115 -39 -214 -75 -220 -80 -15 -14 178
-202 270 -263 106 -71 181 -98 270 -98 89 0 147 22 272 103 137 89 263 153
373 190 95 33 95 33 305 33 201 1 213 0 295 -26 113 -36 224 -91 372 -184 156
-98 203 -117 293 -116 85 0 161 26 259 89 76 49 291 252 279 264 -16 15 -452
157 -588 192 -123 31 -165 36 -350 46 -322 17 -454 48 -529 123 -40 40 -46 44
-46 29z m-767 -332 c30 -57 90 -98 163 -113 l59 -13 -97 -17 c-156 -29 -269
-8 -254 46 6 23 97 151 103 145 1 -2 13 -23 26 -48z m1662 -33 c25 -35 45 -71
45 -79 0 -43 -117 -57 -257 -32 l-98 18 56 12 c73 14 131 53 164 110 15 25 31
43 36 40 5 -4 29 -34 54 -69z M1240 2544 c-62 -8 -202 -45 -260 -68 -129 -53
-242 -155 -299 -271 -45 -91 -62 -167 -68 -301 -7 -143 7 -253 46 -375 l28
-86 -24 -46 c-51 -101 -53 -128 -53 -614 l0 -453 4305 0 4305 0 0 309 c0 328
-9 461 -41 606 -127 573 -552 1041 -1110 1224 -168 55 -274 72 -494 78 l-200
5 -18 -63 c-21 -72 -89 -221 -140 -307 -31 -52 -35 -67 -41 -158 -21 -349
-205 -597 -481 -647 l-70 -13 -7 -90 c-16 -220 -115 -366 -288 -426 -85 -30
-279 -32 -379 -4 l-65 18 -33 -41 c-72 -86 -225 -165 -383 -197 -222 -45 -495
31 -643 179 l-57 57 -63 -17 c-42 -11 -102 -17 -187 -17 -105 -1 -135 3 -190
22 -173 59 -272 206 -288 426 l-7 89 -70 14 c-279 54 -460 298 -481 647 -6 91
-10 106 -41 158 -51 86 -119 235 -140 307 l-18 63 -195 -5 c-145 -3 -222 -10
-302 -26 -197 -40 -424 -130 -562 -224 l-49 -33 -76 77 c-89 89 -171 134 -327
175 -89 24 -119 27 -299 29 -110 2 -216 1 -235 -1z m1878 -251 c75 -35 150
-179 176 -338 54 -329 207 -572 444 -710 l83 -48 41 -86 c101 -215 100 -214
193 -306 92 -93 161 -137 262 -170 71 -23 107 -15 178 43 l59 48 111 -112 c60
-61 135 -128 165 -148 30 -20 50 -36 45 -36 -24 0 -209 52 -305 86 l-105 36
-1242 -2 c-1123 -1 -1243 0 -1243 14 0 12 -10 16 -40 16 -38 0 -40 2 -40 30 0
23 -4 30 -20 30 -18 0 -20 7 -20 60 0 33 -4 60 -10 60 -5 0 -10 9 -10 21 0 11
-4 18 -9 14 -5 -3 -12 4 -16 14 -3 11 -26 31 -50 45 l-45 25 0 -228 c0 -125
-3 -230 -6 -234 -3 -3 -40 12 -81 34 -42 21 -84 39 -94 39 -11 0 -19 5 -19 10
0 12 -177 14 -182 3 -1 -5 -40 -27 -84 -50 l-82 -42 -6 37 c-3 20 -6 124 -6
230 0 105 -2 192 -5 192 -28 0 -125 -69 -125 -89 0 -6 -4 -11 -10 -11 -6 0
-10 -28 -10 -65 0 -58 -2 -65 -20 -65 -16 0 -20 -7 -20 -30 0 -30 -1 -30 -55
-30 l-55 0 0 35 c0 22 -6 38 -15 41 -12 5 -15 26 -15 105 0 84 -6 120 -39 242
-48 174 -64 252 -59 296 l3 34 50 -73 c127 -187 299 -308 504 -357 100 -23
283 -13 380 21 253 88 451 299 547 579 71 208 72 494 3 669 -10 27 -19 50 -19
52 0 2 27 -5 61 -15 68 -21 141 -24 209 -8 25 6 54 12 65 13 11 2 58 15 105
29 111 34 207 55 300 66 85 9 130 5 178 -16z m4655 6 c349 -46 693 -250 916
-543 218 -285 301 -558 301 -985 0 -184 -1 -191 -20 -191 -11 0 -20 -7 -20
-16 0 -14 -136 -15 -1372 -14 l-1373 2 -90 -32 c-87 -30 -305 -90 -327 -90 -6
0 20 22 59 49 38 27 112 95 165 151 53 55 99 97 102 92 12 -20 101 -72 138
-82 29 -8 52 -7 100 5 94 25 163 69 263 169 79 80 98 107 160 224 39 74 76
145 83 158 7 13 18 24 25 24 17 0 136 77 191 124 158 134 266 357 306 631 21
142 131 326 201 337 29 5 89 0 192 -13z m-6170 -14 c143 -37 381 -159 446
-229 22 -23 22 -28 19 -247 l-3 -224 -33 -80 c-44 -109 -148 -245 -229 -301
-89 -61 -175 -79 -373 -79 -131 0 -167 4 -234 23 -121 35 -219 116 -253 207
-45 125 -56 205 -60 452 l-4 242 25 38 c14 21 47 52 73 70 53 36 217 106 297
128 70 19 257 19 329 0z"/>
</g>
</svg>
