<?xml version="1.0" standalone="no"?>
<!DOCTYPE svg PUBLIC "-//W3C//DTD SVG 20010904//EN"
 "http://www.w3.org/TR/2001/REC-SVG-20010904/DTD/svg10.dtd">
<svg version="1.0" xmlns="http://www.w3.org/2000/svg"
 width="2048.000000pt" height="2048.000000pt" viewBox="0 0 2048.000000 2048.000000"
 preserveAspectRatio="xMidYMid meet">
<metadata>
Created by potrace 1.13, written by Peter Selinger 2001-2015
</metadata>
<g transform="translate(0.000000,2048.000000) scale(0.192120,-0.192120)"
fill="#000000" stroke="none">
<path d="M5388 10315 c-231 -32 -447 -109 -653 -233 l-60 -37 -180 0 c-164 -1
-189 -4 -280 -29 -416 -114 -731 -451 -809 -866 -23 -118 -23 -1432 -1 -1589
78 -551 385 -1039 845 -1345 l84 -56 213 0 213 0 -51 -97 c-50 -95 -51 -100
-46 -163 6 -82 37 -143 118 -233 254 -281 659 -333 953 -123 165 118 275 284
263 396 -3 25 -24 81 -51 132 l-46 88 214 0 213 0 84 56 c120 80 200 148 315
266 255 262 424 577 503 936 39 177 43 254 39 877 -4 577 -5 604 -26 699 -45
200 -130 409 -229 565 -152 239 -402 465 -656 592 -295 149 -645 208 -969 164z
m367 -300 c535 -32 1047 -428 1190 -920 24 -85 25 -94 25 -417 0 -217 -3 -327
-10 -323 -5 3 -10 15 -10 26 0 10 -4 19 -10 19 -5 0 -10 7 -10 16 0 9 -44 60
-98 113 -122 122 -143 131 -392 160 -473 57 -827 164 -1073 328 -98 65 -215
179 -273 266 -117 175 -229 296 -297 320 -30 11 -81 -20 -150 -91 -71 -74
-115 -154 -191 -342 -92 -229 -192 -337 -408 -443 -101 -50 -123 -65 -206
-148 -51 -52 -98 -106 -105 -121 -6 -16 -15 -28 -19 -28 -5 0 -9 -197 -10
-437 l-3 -438 -2 413 c-3 361 -5 412 -18 412 -14 0 -15 49 -13 413 l3 412 43
88 c143 293 446 456 849 457 110 1 144 11 332 99 176 84 273 118 411 146 84
18 267 33 325 28 17 -1 71 -5 120 -8z m-939 -700 c126 -390 572 -699 1204
-834 191 -41 505 -81 636 -81 l64 0 0 -322 c0 -178 -5 -363 -11 -413 -38 -315
-180 -600 -411 -827 -92 -90 -249 -203 -353 -251 l-60 -28 2 -217 c2 -245 -8
-319 -57 -418 -63 -130 -170 -227 -306 -281 -61 -24 -83 -27 -189 -28 -100 0
-131 4 -187 23 -133 46 -253 154 -318 286 -49 99 -59 173 -57 418 l2 217 -50
23 c-81 38 -212 124 -298 196 -231 194 -389 461 -460 777 -17 79 -20 135 -24
475 l-5 385 73 19 c398 102 673 438 744 906 8 52 15 109 16 125 1 20 6 8 15
-35 8 -36 21 -87 30 -115z m-778 -2485 c25 -36 49 -67 52 -70 14 -11 80 -103
80 -111 0 -25 -41 8 -135 111 -108 118 -155 198 -155 266 l0 47 56 -89 c30
-49 76 -118 102 -154z m2738 178 c-12 -76 -153 -260 -271 -354 -52 -42 -59
-40 -17 5 31 33 135 175 202 279 41 61 78 112 83 112 6 0 7 -18 3 -42z M4569
8089 c-47 -27 -69 -66 -69 -121 0 -141 191 -191 256 -66 36 69 11 154 -56 189
-45 24 -86 24 -131 -2z M5960 8091 c-93 -49 -97 -187 -7 -241 91 -56 207 10
207 118 0 56 -25 99 -72 123 -47 24 -84 24 -128 0z M5055 7513 c19 -103 90
-196 171 -224 50 -16 158 -16 208 0 81 28 152 121 171 224 l7 37 -282 0 -282
0 7 -37z M4770 6988 c1 -59 95 -163 183 -203 103 -48 178 -59 377 -59 199 0
274 11 377 59 88 40 182 144 183 203 0 9 -119 12 -560 12 -441 0 -560 -3 -560
-12z M3791 6144 c-226 -61 -387 -261 -471 -589 -33 -127 -60 -324 -60 -431 l0
-75 340 3 340 3 0 -1321 0 -1321 88 -12 c115 -14 179 -31 347 -92 150 -55 475
-162 774 -255 l183 -57 82 26 c44 14 212 67 371 118 160 50 364 119 455 152
198 72 275 93 392 108 l88 12 0 1321 0 1321 340 -3 340 -3 0 75 c0 103 -25
290 -56 416 -83 337 -248 544 -481 605 -41 11 -111 15 -246 15 l-189 0 5 -52
c3 -47 15 -92 37 -138 13 -30 79 -51 207 -66 149 -17 205 -34 270 -84 122 -91
201 -311 179 -493 l-7 -55 -177 -4 c-170 -3 -179 -4 -222 -29 -52 -31 -170
-150 -170 -172 0 -9 -6 -17 -12 -19 -10 -4 -14 -253 -16 -1193 -1 -654 2
-1191 6 -1194 11 -8 33 -94 26 -101 -7 -6 -2451 -7 -2457 0 -7 7 16 100 25
100 5 0 8 530 8 1178 0 1116 -1 1179 -19 1217 -24 54 -113 150 -170 183 -45
26 -51 27 -229 30 l-183 4 -11 26 c-16 43 -3 188 26 270 51 147 121 238 218
286 58 28 110 39 261 56 104 11 157 30 157 56 0 9 10 30 22 47 15 20 23 50 26
89 l4 58 -193 -1 c-136 0 -210 -5 -248 -15z m1839 -3759 c19 -7 29 -14 23 -14
-7 -1 -21 -8 -32 -17 -27 -23 -150 -71 -220 -85 -48 -10 -76 -10 -130 -1 -74
12 -202 60 -232 86 -11 9 -25 16 -32 17 -6 0 4 7 23 14 26 10 102 13 300 13
198 0 274 -3 300 -13z M3303 4848 c-12 -62 -54 -313 -94 -557 l-74 -443 -785
-393 c-433 -216 -800 -404 -816 -418 -17 -14 -43 -49 -59 -79 -26 -45 -30 -64
-30 -128 0 -65 4 -82 31 -130 55 -98 170 -159 273 -147 34 5 283 124 927 446
787 393 885 444 917 482 43 50 61 101 81 229 9 52 47 288 86 525 68 419 70
445 40 445 -23 0 -66 -66 -90 -136 -40 -116 -68 -241 -161 -724 -23 -120 -65
-216 -111 -255 -40 -34 -1545 -787 -1629 -815 -77 -26 -139 -21 -175 15 -19
19 -24 35 -24 74 0 45 3 51 33 69 17 11 349 179 735 372 785 394 785 393 855
527 41 79 47 108 122 562 58 353 64 414 41 479 -15 41 -57 112 -67 112 -3 0
-15 -51 -26 -112z M7303 4927 c-72 -105 -74 -194 -14 -547 59 -349 90 -499
114 -545 40 -79 104 -151 174 -197 22 -15 349 -181 725 -369 375 -187 693
-350 706 -362 31 -29 32 -117 0 -147 -29 -27 -118 -27 -192 0 -68 26 -1501
739 -1578 786 -91 55 -107 98 -183 502 -82 435 -134 604 -191 618 -14 4 -27 4
-29 2 -3 -2 27 -197 65 -434 39 -236 77 -472 86 -524 20 -128 38 -179 81 -229
32 -38 130 -89 917 -482 644 -322 893 -441 927 -446 103 -12 218 49 273 147
27 48 31 64 31 130 -1 64 -5 83 -30 128 -16 30 -42 65 -59 79 -16 14 -384 202
-816 418 l-786 393 -89 529 c-49 290 -90 540 -93 556 -6 35 -12 34 -39 -6z
M3686 2399 c-189 -28 -363 -107 -473 -215 -104 -102 -128 -157 -128 -294 0
-98 2 -109 30 -158 35 -65 71 -96 150 -133 98 -46 193 -59 505 -69 324 -10
388 -19 605 -86 189 -58 486 -144 497 -144 4 0 -4 24 -19 54 -14 29 -23 61
-20 69 7 18 36 13 182 -36 81 -26 101 -37 103 -54 3 -17 -8 -27 -54 -49 l-57
-28 49 -17 c59 -21 47 -24 -16 -5 -25 7 -71 12 -102 11 -51 -2 -58 0 -58 16 0
11 -10 23 -24 29 -30 11 -46 7 -606 -167 -1057 -326 -1233 -383 -1268 -409
-57 -44 -67 -90 -37 -169 18 -47 -76 62 -106 124 -30 61 -33 75 -37 184 -4
115 -4 118 23 160 64 96 137 137 404 223 258 84 356 140 349 200 l-3 31 -345
-99 c-190 -54 -363 -110 -385 -122 -181 -107 -255 -341 -167 -529 62 -134 177
-219 326 -240 52 -8 87 -8 118 0 24 5 530 159 1126 342 l1083 331 587 -179
c323 -99 810 -248 1082 -332 272 -83 514 -156 538 -162 109 -27 280 31 366
123 127 136 152 339 60 496 -29 48 -117 134 -161 158 -18 9 -166 54 -330 102
-164 47 -319 92 -345 99 -48 14 -48 14 -48 -10 0 -35 57 -87 132 -123 35 -17
156 -60 269 -96 217 -70 319 -122 342 -175 6 -14 19 -37 29 -50 29 -38 25
-191 -6 -275 -29 -77 -63 -131 -106 -171 -26 -23 -31 -26 -25 -10 46 120 4
172 -183 230 -64 20 -223 70 -352 110 -307 96 -1194 371 -2045 634 -1445 446
-1390 431 -1619 431 -130 0 -202 -11 -264 -41 -50 -25 -71 -53 -88 -117 l-12
-47 -7 47 c-9 60 14 139 58 204 77 112 247 211 450 263 65 17 129 36 144 43
29 14 58 51 68 86 6 21 4 22 -57 21 -35 -1 -90 -5 -122 -10z m24 -645 c69 -6
92 -12 103 -23 12 -12 9 -13 -35 -16 -16 -1 -28 1 -28 4 0 3 -12 7 -27 8 -53
2 -92 9 -100 17 -11 10 19 27 37 20 8 -4 31 -8 50 -10z M6804 2375 c29 -68 31
-69 199 -110 189 -46 311 -109 403 -207 83 -88 122 -183 109 -267 l-7 -46 -12
47 c-17 64 -38 92 -88 117 -62 30 -134 41 -264 41 -152 0 -282 -21 -444 -71
-74 -23 -216 -65 -315 -94 -99 -29 -173 -56 -165 -59 8 -3 87 -26 175 -51 88
-26 236 -69 330 -97 l169 -51 141 6 c169 8 280 28 360 66 79 37 115 68 150
133 28 49 30 60 30 158 0 96 -3 110 -29 165 -46 94 -152 193 -268 249 -116 57
-258 94 -390 103 l-100 6 16 -38z m221 -626 c0 -17 -47 -19 -52 -2 -2 6 4 13
14 16 26 7 38 2 38 -14z m-67 -7 c5 -17 -26 -26 -51 -14 l-22 10 25 10 c29 12
42 11 48 -6z"/>
</g>
</svg>
