<?xml version="1.0" standalone="no"?>
<!DOCTYPE svg PUBLIC "-//W3C//DTD SVG 20010904//EN"
 "http://www.w3.org/TR/2001/REC-SVG-20010904/DTD/svg10.dtd">
<svg version="1.0" xmlns="http://www.w3.org/2000/svg"
 width="2048.000000pt" height="2048.000000pt" viewBox="0 0 2048.000000 2048.000000"
 preserveAspectRatio="xMidYMid meet">
<metadata>
Created by potrace 1.13, written by Peter Selinger 2001-2015
</metadata>
<g transform="translate(0.000000,2048.000000) scale(0.192120,-0.192120)"
fill="#000000" stroke="none">
<path d="M1243 10315 c-464 -84 -837 -469 -903 -930 -8 -59 -10 -1151 -8
-4105 l3 -4025 22 -77 c121 -426 407 -709 826 -821 l82 -22 4085 0 4084 0 8
40 c11 49 -5 215 -32 343 -48 227 -172 520 -304 717 l-67 99 17 99 c16 98 14
178 -6 202 -7 9 -7 30 1 66 25 117 -8 411 -66 594 -55 170 -169 366 -279 477
-20 20 -36 41 -36 46 0 5 22 27 48 50 27 22 73 68 103 103 l54 62 -50 -7 c-68
-10 -125 -37 -175 -82 -73 -65 -100 -110 -100 -164 0 -64 12 -95 86 -215 75
-123 135 -241 157 -310 24 -74 67 -247 67 -270 0 -21 23 -97 47 -152 7 -17 13
-36 13 -41 0 -5 26 -43 57 -83 l57 -72 -20 -36 c-11 -22 -34 -44 -58 -55 -34
-17 -45 -17 -89 -7 -103 24 -231 136 -264 233 -20 56 -57 92 -217 207 -88 64
-343 221 -358 221 -4 0 -8 -23 -8 -51 0 -154 -94 -438 -240 -730 -33 -65 -40
-87 -32 -100 9 -14 6 -19 -16 -28 -30 -13 -98 -123 -87 -141 38 -61 368 -149
620 -165 197 -12 525 29 625 78 51 25 81 64 111 149 12 32 24 57 26 54 2 -2 8
-89 12 -192 7 -170 11 -197 35 -264 62 -170 76 -230 76 -327 l0 -93 -153 0
c-195 0 -188 -4 -298 174 -34 55 -90 127 -123 161 -75 74 -216 158 -365 216
-19 8 -16 1 18 -38 259 -296 407 -524 439 -675 l9 -47 -96 48 c-174 87 -137
83 -683 79 l-483 -4 -285 -41 c-394 -58 -494 -67 -730 -66 -235 0 -356 18
-550 78 -63 19 -153 40 -200 45 -53 6 -869 10 -2181 10 -2298 0 -2178 -3
-2348 59 -242 88 -476 334 -545 572 -15 49 -16 438 -14 4189 l3 4135 25 60
c40 95 118 218 182 289 93 103 254 209 388 255 145 50 162 51 1229 51 1188 0
1301 6 1533 80 51 17 110 30 130 30 91 0 656 -84 948 -141 487 -96 777 -191
858 -284 37 -42 38 -52 13 -165 -35 -154 -116 -370 -331 -880 -298 -709 -395
-1000 -407 -1231 -8 -151 4 -182 110 -285 45 -44 141 -134 212 -199 195 -178
484 -465 599 -595 285 -323 406 -545 406 -744 0 -160 -48 -321 -257 -871 -356
-934 -463 -1365 -463 -1868 0 -279 27 -465 100 -688 84 -258 138 -333 294
-410 153 -74 309 -108 711 -154 121 -14 234 -28 251 -31 31 -6 32 -5 42 43 18
82 41 223 56 348 14 109 46 447 46 486 0 13 -25 21 -112 38 -167 33 -308 69
-355 92 -39 19 -42 23 -61 97 -73 275 -48 553 83 932 20 58 93 251 162 430
212 551 324 913 402 1306 16 84 33 175 37 204 8 63 6 62 179 83 207 26 442 40
549 33 54 -3 147 -3 207 0 l110 7 -28 29 c-15 16 -70 50 -120 75 l-93 46 -172
9 c-186 9 -218 13 -218 28 0 9 42 30 253 129 51 25 76 44 102 79 35 48 80 151
70 160 -3 3 -87 -27 -186 -67 -320 -129 -464 -171 -586 -171 -84 0 -77 -5
-160 120 -87 132 -185 239 -550 600 -373 370 -461 470 -530 608 -76 151 -71
183 119 727 l74 210 -67 140 c-131 275 -173 408 -195 615 -8 80 -28 234 -44
344 -58 386 -40 425 139 306 115 -77 198 -168 250 -273 46 -94 62 -153 97
-350 l25 -140 -25 -26 c-14 -14 -29 -38 -35 -52 -29 -78 77 -255 304 -509 37
-41 72 -86 78 -100 21 -46 180 -244 197 -245 3 0 34 -22 70 -49 36 -26 76 -54
90 -61 38 -20 648 -222 721 -240 35 -8 100 -15 144 -15 44 0 145 -5 225 -12
142 -11 146 -11 198 12 28 12 52 29 52 36 0 21 -99 83 -168 104 -89 28 -232
43 -327 36 -74 -6 -86 -5 -160 25 -136 53 -404 145 -540 184 -102 30 -134 44
-150 64 -48 62 -148 179 -304 354 -172 195 -294 350 -332 422 l-22 41 96 289
c122 367 159 508 147 559 -27 119 -175 219 -467 316 -166 54 -393 107 -623
145 l-154 25 -2161 -1 c-1726 -1 -2174 -3 -2232 -14z m4685 -1192 c5 -10 17
-54 26 -98 29 -138 67 -255 129 -405 52 -124 61 -156 64 -220 4 -67 0 -85 -30
-165 -46 -122 -123 -359 -142 -437 -9 -37 -15 -112 -15 -184 0 -107 3 -128 26
-185 94 -231 230 -406 583 -751 123 -120 201 -204 201 -215 0 -12 -35 -52 -86
-98 -47 -43 -97 -96 -111 -117 -50 -74 -77 -63 -175 70 -39 53 -114 149 -166
212 -109 131 -480 506 -717 724 -88 81 -166 159 -173 173 -10 19 -13 66 -10
187 l3 161 72 211 c63 184 328 838 409 1009 40 87 77 145 91 145 7 0 16 -8 21
-17z m1232 -2933 c69 -18 132 -36 140 -40 9 -5 21 -28 27 -52 11 -41 43 -80
118 -146 l26 -22 -30 -44 c-16 -23 -36 -67 -43 -96 -13 -49 -17 -54 -53 -67
-102 -35 -230 -21 -353 39 -129 63 -263 230 -279 347 -7 52 9 84 51 106 51 26
240 14 396 -25z m-425 -491 c85 -86 180 -151 271 -185 38 -14 72 -31 76 -37
43 -68 -91 -564 -297 -1097 -181 -468 -251 -670 -295 -852 -30 -121 -30 -126
-30 -400 0 -303 1 -310 63 -436 39 -78 147 -196 218 -239 30 -18 92 -43 139
-56 l85 -25 8 -136 c8 -125 7 -142 -12 -199 -12 -34 -30 -73 -40 -86 l-19 -24
-182 22 c-279 35 -459 81 -556 143 -78 50 -148 186 -198 390 l-27 106 4 449
c3 440 4 450 29 563 75 329 176 646 358 1120 195 507 262 720 289 920 17 119
20 130 34 130 7 0 44 -32 82 -71z m1552 -3699 c67 -13 120 -19 173 -20 71 -1
78 -10 42 -61 -43 -63 -187 -200 -255 -243 -81 -52 -130 -71 -259 -102 -62
-15 -137 -35 -167 -45 l-53 -19 133 138 c104 107 146 159 189 232 30 52 63
103 73 112 19 20 54 22 124 8z m383 -450 c34 -23 64 -48 67 -57 17 -45 -100
-81 -268 -82 -100 -1 -149 12 -149 40 0 20 169 154 205 161 28 6 73 -13 145
-62z M2018 9644 c-54 -23 -83 -86 -75 -165 26 -243 275 -608 465 -679 68 -26
87 -25 166 3 139 51 341 201 551 412 197 196 310 351 303 413 l-3 27 -685 2
c-597 2 -690 0 -722 -13z m1000 -217 c18 -22 -15 -71 -107 -159 -108 -104
-206 -178 -295 -223 -135 -68 -220 -42 -339 107 -81 100 -140 252 -110 281 3
4 194 7 423 7 326 0 420 -3 428 -13z M8939 9550 c-100 -9 -232 -51 -316 -101
-70 -42 -172 -141 -196 -191 -31 -66 -32 -95 -4 -120 l25 -22 -20 -40 c-99
-193 -165 -554 -139 -755 20 -160 68 -260 154 -322 44 -32 84 -45 170 -55 l57
-7 0 -75 0 -75 21 19 c28 26 59 87 59 119 0 53 -52 115 -168 201 -29 21 -65
59 -80 84 -26 44 -27 49 -30 235 -3 151 1 218 17 327 21 145 18 206 -14 297
-8 22 -11 41 -7 41 19 0 176 -41 195 -51 60 -31 67 -46 67 -148 0 -53 3 -106
6 -118 l6 -23 32 23 c43 30 153 32 186 2 41 -36 52 -77 40 -151 -20 -124 -70
-183 -161 -192 -27 -2 -49 -5 -49 -6 0 -20 40 -127 66 -176 102 -196 342 -370
509 -370 l46 0 -34 -42 c-47 -58 -67 -101 -67 -140 0 -91 191 -303 363 -402
52 -31 56 -42 27 -78 -25 -32 -67 -41 -133 -27 -126 27 -225 94 -443 302 -78
74 -168 154 -201 179 -58 45 -59 46 -163 53 l-104 7 53 -53 c170 -173 235
-552 142 -827 -54 -162 -135 -268 -244 -322 -104 -51 -240 -59 -342 -20 -30
11 -30 11 -9 81 21 70 14 150 -19 215 -39 77 -156 222 -248 308 -151 140 -368
285 -682 457 -65 35 -126 71 -135 80 -10 8 -51 40 -92 71 -114 84 -170 148
-301 343 -49 72 -102 145 -119 162 -55 56 -134 79 -173 51 -15 -12 -11 -23 44
-123 77 -140 230 -369 305 -460 72 -85 167 -149 430 -290 417 -222 668 -421
817 -647 60 -92 118 -200 122 -232 2 -12 50 -138 107 -281 101 -250 121 -306
167 -460 53 -178 99 -441 111 -640 5 -82 12 -159 15 -170 4 -16 -9 -29 -62
-65 -97 -64 -287 -258 -448 -455 -250 -306 -377 -459 -452 -542 l-73 -81 118
-124 c64 -67 189 -199 276 -293 88 -93 186 -198 218 -232 l58 -62 118 51 c64
27 182 81 261 119 l143 69 91 -85 c50 -47 93 -84 97 -83 4 2 95 104 201 228
107 124 217 252 244 284 28 32 95 93 150 136 231 178 373 325 497 511 118 177
171 355 170 569 -1 73 -7 150 -16 185 -8 33 -12 63 -10 67 8 12 -18 172 -28
179 -4 3 -19 120 -33 260 -91 930 -170 1276 -377 1656 -100 185 -193 301 -301
378 l-27 20 12 115 c8 83 16 122 30 140 86 116 282 426 325 515 74 156 95 241
97 395 1 149 -19 228 -84 329 -139 215 -367 343 -658 371 -59 5 -109 9 -112 9
-3 -1 -44 -5 -91 -9z m336 -274 c139 -38 272 -121 336 -209 l29 -40 0 -188 c0
-177 -2 -193 -25 -256 -35 -93 -169 -310 -257 -415 -37 -44 -43 -48 -85 -48
-79 0 -200 88 -247 178 -23 44 -20 61 19 119 57 85 75 145 75 251 0 78 -4 100
-24 141 -29 57 -112 135 -161 151 -19 6 -35 18 -35 25 0 8 -6 18 -13 22 -11 7
-119 146 -140 181 -5 7 -6 24 -3 37 6 23 46 40 161 69 44 11 311 -2 370 -18z
m-45 -2110 c105 -72 156 -98 242 -124 92 -29 120 -45 161 -92 89 -104 172
-483 237 -1085 35 -320 40 -337 129 -441 28 -32 51 -62 51 -65 0 -14 -504
-112 -740 -144 -150 -20 -610 -33 -610 -17 0 6 13 38 29 72 17 35 33 87 37
117 14 111 -31 333 -90 452 -60 118 -143 341 -147 391 -4 49 1 57 44 69 91 28
247 134 247 169 0 7 16 29 36 49 131 140 224 398 224 626 0 41 2 76 5 79 16
16 70 -5 145 -56z m810 -2026 c0 -5 -7 -35 -16 -67 -9 -32 -19 -71 -21 -88 -3
-16 -9 -34 -13 -40 -4 -5 -11 -35 -15 -65 -7 -63 -49 -214 -76 -277 -55 -130
-194 -297 -369 -446 -277 -235 -381 -361 -465 -559 -27 -63 -32 -69 -99 -107
-103 -58 -103 -58 -139 -24 -76 72 -122 72 -311 -3 -90 -36 -156 -57 -183 -57
-54 0 -104 32 -169 110 -27 32 -90 102 -140 155 -132 141 -145 177 -85 243 49
54 201 243 201 250 0 22 246 306 417 482 131 134 167 194 167 274 l1 57 110 6
c497 29 686 55 1105 151 69 16 100 18 100 5z M3853 7930 l-632 -5 -30 -29
c-64 -61 -64 -184 -1 -359 45 -124 112 -231 199 -318 62 -62 86 -80 129 -92
46 -14 58 -14 107 -2 168 44 465 255 731 520 142 140 204 220 204 261 0 24
-19 35 -53 32 -12 -2 -306 -5 -654 -8z m235 -244 c9 -45 -271 -267 -406 -322
-70 -29 -104 -30 -157 -4 -77 37 -165 186 -173 293 l-4 57 368 -2 c354 -3 369
-4 372 -22z M2687 5385 c-85 -30 -124 -102 -114 -213 21 -249 281 -680 593
-982 117 -114 202 -175 268 -195 52 -16 113 -1 232 54 375 176 1211 778 1555
1121 122 121 170 190 148 216 -17 21 -2624 20 -2682 -1z m2201 -229 c14 -70
-752 -633 -1183 -871 -74 -41 -171 -75 -213 -75 -65 0 -139 47 -253 160 -164
165 -346 421 -430 605 -35 77 -50 182 -28 196 8 5 460 8 1059 6 1020 -2 1045
-2 1048 -21z M7496 3664 c-92 -106 -180 -235 -201 -294 -23 -66 -35 -192 -42
-467 l-6 -253 27 0 c32 0 75 21 96 47 26 30 40 119 50 318 6 105 15 208 21
230 5 22 37 94 70 160 53 106 61 131 71 212 7 61 8 100 1 114 -9 21 -15 16
-87 -67z M8110 3009 c-23 -29 -47 -61 -55 -72 -10 -15 -21 -18 -42 -14 -87 17
-193 -98 -193 -208 0 -49 34 -172 64 -229 17 -33 58 -61 106 -71 l33 -7 -6 78
c-3 44 -15 106 -27 139 -26 74 -23 136 13 218 14 31 28 57 31 57 6 0 122 -152
227 -300 83 -115 174 -257 232 -362 21 -38 41 -68 45 -68 17 0 72 41 82 61 45
84 -120 391 -341 636 -50 55 -81 98 -93 132 -10 28 -22 53 -27 56 -4 3 -27
-18 -49 -46z M1124 2241 c-150 -68 -66 -373 201 -730 243 -323 546 -530 743
-507 264 31 789 360 1175 735 287 279 387 461 280 510 -17 8 -357 11 -1191 11
-1114 0 -1169 -1 -1208 -19z m2093 -217 c10 -26 -18 -64 -117 -164 -214 -216
-607 -492 -837 -590 -154 -65 -252 -72 -363 -27 -188 77 -459 357 -584 604
-40 79 -60 146 -51 173 6 20 23 20 976 20 871 0 970 -2 976 -16z M7085 1649
c-16 -25 -27 -55 -27 -76 0 -35 15 -63 25 -46 8 13 38 155 34 159 -2 3 -16
-14 -32 -37z M7035 1414 c-16 -14 -102 -74 -190 -132 -190 -127 -402 -238
-537 -281 -54 -17 -142 -45 -195 -62 -298 -95 -347 -186 -169 -314 148 -105
255 -138 451 -138 263 1 589 86 892 234 85 42 130 70 147 92 59 80 118 240
120 326 l1 56 -90 6 c-106 7 -134 14 -198 46 -64 32 -129 92 -158 148 -13 25
-28 45 -34 45 -5 -1 -23 -12 -40 -26z m79 -376 c66 -44 76 -61 51 -89 -73 -81
-588 -220 -636 -172 -13 13 31 48 101 83 25 13 110 62 190 110 80 48 152 90
160 93 40 15 87 6 134 -25z"/>
</g>
</svg>
