<?xml version="1.0" standalone="no"?>
<!DOCTYPE svg PUBLIC "-//W3C//DTD SVG 20010904//EN"
 "http://www.w3.org/TR/2001/REC-SVG-20010904/DTD/svg10.dtd">
<svg version="1.0" xmlns="http://www.w3.org/2000/svg"
 width="2048.000000pt" height="2048.000000pt" viewBox="0 0 2048.000000 2048.000000"
 preserveAspectRatio="xMidYMid meet">
<metadata>
Created by potrace 1.13, written by Peter Selinger 2001-2015
</metadata>
<g transform="translate(0.000000,2048.000000) scale(0.192120,-0.192120)"
fill="#000000" stroke="none">
<path d="M5175 9629 c-592 -32 -1230 -274 -1740 -658 -186 -140 -428 -376
-575 -561 -255 -320 -469 -739 -586 -1148 -72 -249 -113 -477 -149 -815 l-6
-57 -82 -37 c-396 -177 -854 -467 -1099 -695 l-58 -53 16 -85 c53 -296 337
-875 769 -1565 147 -236 377 -579 503 -753 43 -59 97 -146 120 -194 35 -73 54
-98 117 -155 42 -37 97 -95 123 -128 26 -33 79 -96 118 -140 l71 -80 -81 -23
c-530 -150 -970 -589 -1126 -1126 -57 -194 -62 -241 -67 -649 l-5 -377 3891 0
3891 0 0 309 c0 170 -5 355 -11 412 -58 573 -402 1071 -914 1323 -117 58 -301
126 -341 126 -9 0 15 33 58 83 40 45 94 109 120 142 26 33 81 90 121 127 62
56 82 82 118 155 24 48 77 135 119 193 265 365 607 902 838 1317 247 443 398
790 436 1003 l16 85 -53 49 c-243 227 -658 493 -1047 672 -74 35 -138 69 -142
76 -3 7 -11 66 -18 131 -14 146 -76 453 -130 650 -234 850 -743 1530 -1481
1978 -433 263 -983 443 -1414 464 -60 3 -128 7 -150 8 -22 2 -98 0 -170 -4z
m515 -328 c317 -51 609 -146 903 -293 753 -376 1273 -987 1512 -1772 38 -126
49 -262 23 -284 -7 -5 -49 -24 -93 -41 -44 -17 -151 -67 -238 -111 -87 -44
-170 -80 -185 -80 -34 0 -67 20 -168 101 -115 93 -212 155 -349 220 -284 137
-533 190 -1020 218 -196 12 -299 27 -475 71 -267 66 -529 166 -890 340 -283
136 -333 154 -400 148 -110 -11 -196 -75 -500 -373 -129 -126 -280 -270 -336
-320 -159 -144 -412 -349 -446 -363 -41 -18 -60 -12 -218 65 -74 36 -175 81
-225 98 l-90 33 -3 71 c-7 164 147 577 324 872 166 275 417 563 664 759 452
358 1029 598 1590 659 136 15 476 5 620 -18z m-1087 -1862 c376 -190 788 -341
1097 -403 151 -30 209 -37 426 -46 122 -5 269 -16 326 -25 305 -45 565 -141
788 -289 73 -48 242 -208 291 -275 l25 -34 149 90 c190 114 352 196 465 233
102 35 158 38 191 12 21 -18 22 -26 20 -113 -5 -249 -79 -614 -178 -878 -127
-341 -307 -534 -512 -549 l-68 -4 -18 -77 c-27 -114 -99 -333 -154 -469 -232
-564 -610 -1047 -1029 -1317 l-62 -40 0 -352 0 -353 76 0 76 0 -7 -52 c-33
-256 -309 -750 -753 -1348 -172 -231 -413 -540 -422 -540 -14 0 -380 471 -550
709 -338 473 -552 859 -610 1103 -32 132 -33 128 55 128 l75 0 0 343 -1 342
-56 34 c-181 110 -455 360 -612 559 -275 349 -489 784 -605 1233 l-24 94 -54
8 c-158 22 -311 163 -425 392 -125 249 -236 720 -245 1034 -2 87 -1 95 21 112
33 27 88 24 191 -11 129 -43 374 -169 532 -273 l26 -18 45 58 c59 76 121 134
304 281 192 154 333 285 653 606 l254 255 71 -40 c38 -22 141 -76 228 -120z
m-2496 -1516 c-8 -394 7 -1650 23 -1956 10 -196 35 -501 46 -562 8 -48 -7 -17
-120 242 -136 314 -155 350 -379 735 -201 345 -351 635 -442 853 -46 112 -65
181 -65 236 0 43 4 51 35 76 19 15 35 35 35 45 0 29 230 187 477 329 86 49
160 89 165 89 4 0 8 4 8 9 0 4 32 41 70 81 39 41 87 95 107 122 21 26 39 48
42 48 2 0 1 -156 -2 -347z m6582 192 c37 -38 84 -79 104 -90 20 -11 37 -24 37
-30 0 -5 49 -37 108 -69 127 -70 332 -203 454 -294 67 -50 88 -71 88 -89 0
-12 4 -23 9 -23 5 0 12 -12 15 -27 24 -111 -215 -622 -567 -1213 -44 -74 -92
-153 -107 -175 -51 -76 -130 -235 -226 -457 -53 -123 -103 -234 -110 -248
l-15 -25 5 30 c12 65 36 371 46 570 15 291 29 1504 22 1940 l-5 360 38 -45
c20 -25 67 -76 104 -115z m-6301 -800 c102 -156 206 -264 338 -353 72 -48 80
-60 124 -172 147 -377 225 -547 345 -745 159 -265 289 -435 482 -637 58 -60
103 -115 103 -126 0 -38 -24 -51 -275 -142 -373 -135 -554 -183 -695 -184 -80
-1 -101 2 -137 22 -90 48 -147 116 -242 292 -62 112 -84 178 -113 322 -22 111
-22 131 -26 962 -1 467 0 856 3 864 7 19 29 -5 93 -103z m5960 -915 l-4 -765
-32 -124 c-36 -138 -79 -233 -166 -363 -95 -144 -176 -198 -295 -198 -114 0
-344 64 -711 195 -265 95 -290 108 -290 146 0 10 21 40 48 67 367 376 620 777
816 1297 91 242 83 231 230 316 67 38 202 169 259 250 21 30 61 88 90 129 l52
75 3 -130 c1 -71 1 -474 0 -895z m-1593 -1310 c127 -43 327 -112 445 -155 349
-125 514 -167 713 -182 l98 -8 -62 -45 c-115 -83 -136 -137 -74 -187 19 -15
35 -33 35 -39 0 -18 -216 -222 -345 -325 -170 -136 -473 -360 -735 -544 -342
-239 -1152 -778 -1240 -825 -14 -7 88 101 225 241 138 140 293 308 346 374
285 356 518 812 536 1045 6 82 -4 113 -61 189 -17 23 -26 48 -26 71 0 24 -7
43 -20 55 -17 15 -20 31 -20 92 0 40 -4 81 -9 91 -17 31 -91 221 -91 232 0 15
25 8 285 -80z m-2586 41 c-5 -22 -18 -64 -30 -93 -31 -78 -49 -147 -49 -195 0
-24 -4 -43 -10 -43 -5 0 -10 -20 -10 -43 0 -31 -6 -49 -20 -62 -11 -10 -20
-27 -20 -38 0 -11 -12 -36 -27 -56 -26 -34 -28 -42 -28 -136 0 -89 5 -112 38
-208 104 -304 363 -734 600 -997 28 -30 147 -153 266 -274 119 -120 205 -213
191 -206 -74 38 -875 570 -1190 791 -269 188 -535 383 -723 530 -170 133 -407
351 -407 373 0 7 13 22 30 34 64 48 47 99 -62 184 l-68 53 38 2 c266 18 436
64 987 264 218 79 460 158 486 159 14 0 16 -6 8 -39z m-1408 -946 c16 -9 82
-60 147 -113 333 -278 687 -535 1336 -974 515 -348 614 -418 621 -435 3 -9 -1
-24 -10 -32 -14 -14 -173 -16 -1575 -19 l-1560 -2 0 274 c0 213 3 290 16 343
83 362 342 681 700 862 106 54 244 110 272 111 13 0 36 -7 53 -15z m5284 -15
c305 -121 539 -301 689 -529 79 -119 117 -200 157 -334 l29 -100 0 -298 0
-299 -1527 0 c-1029 0 -1540 4 -1565 11 -27 7 -38 16 -38 29 0 26 23 42 505
367 693 467 1114 771 1432 1036 88 74 167 137 175 140 30 12 71 5 143 -23z
M4222 6148 c-56 -27 -109 -90 -127 -152 -21 -68 -21 -324 0 -392 39 -131 180
-203 316 -162 55 16 118 73 145 132 22 47 24 64 24 220 0 101 -5 185 -12 208
-15 51 -82 126 -133 149 -56 26 -157 24 -213 -3z M6205 6142 c-62 -34 -110
-96 -124 -162 -12 -55 -15 -281 -5 -343 11 -61 63 -138 117 -171 56 -35 137
-45 206 -26 57 15 142 98 159 156 16 54 16 353 0 406 -15 51 -82 126 -133 149
-63 29 -158 25 -220 -9z M5021 4937 c-38 -19 -63 -62 -68 -114 -7 -63 16 -116
59 -143 31 -19 50 -20 316 -20 245 0 288 2 312 16 42 25 60 64 60 129 0 65
-18 104 -60 129 -24 14 -67 16 -312 16 -205 0 -290 -4 -307 -13z M6202 4400
c-13 -5 -37 -21 -55 -34 -106 -81 -355 -132 -702 -142 -211 -7 -412 4 -576 32
-107 18 -262 66 -299 93 -77 55 -151 66 -220 31 -45 -23 -73 -59 -90 -118 -16
-52 -2 -109 39 -162 72 -93 76 -101 77 -177 2 -71 4 -75 153 -380 90 -184 164
-320 181 -338 27 -27 37 -30 90 -30 53 0 63 3 89 30 18 18 58 93 99 185 62
139 72 155 93 154 13 -1 79 -7 147 -14 116 -11 272 -5 372 16 24 5 28 -2 89
-143 35 -81 70 -158 78 -171 37 -60 128 -79 190 -41 30 19 54 62 184 326 155
317 171 358 168 421 -2 31 6 50 42 100 24 35 54 82 67 105 61 114 -13 250
-144 262 -27 3 -59 0 -72 -5z m-1401 -351 c73 -17 153 -41 175 -54 40 -23 74
-74 74 -109 0 -9 -47 -121 -104 -248 -57 -128 -113 -255 -125 -283 l-22 -50
-78 160 c-225 467 -214 441 -207 478 9 49 45 99 86 119 45 23 43 23 201 -13z
m1298 4 c40 -30 62 -67 68 -111 5 -38 -6 -66 -138 -336 -79 -163 -147 -292
-150 -288 -4 4 -61 132 -128 285 -116 263 -122 279 -111 312 13 39 68 92 108
102 263 67 303 71 351 36z m-684 -148 c6 -56 4 -84 -8 -112 -14 -37 -16 -38
-71 -41 -47 -3 -57 0 -62 15 -3 10 -10 28 -16 39 -7 15 -6 44 1 92 6 39 11 73
11 76 0 3 31 6 69 6 l69 0 7 -75z M6100 3111 c-472 -215 -1022 -223 -1517 -22
l-123 49 20 -38 c26 -50 25 -88 -1 -116 l-20 -22 30 -22 c52 -36 213 -107 307
-135 204 -59 474 -85 689 -66 275 25 514 94 663 192 l51 33 -30 33 c-35 41
-36 46 -4 106 14 26 24 47 23 47 -2 0 -41 -18 -88 -39z"/>
</g>
</svg>
