<?xml version="1.0" standalone="no"?>
<!DOCTYPE svg PUBLIC "-//W3C//DTD SVG 20010904//EN"
 "http://www.w3.org/TR/2001/REC-SVG-20010904/DTD/svg10.dtd">
<svg version="1.0" xmlns="http://www.w3.org/2000/svg"
 width="2048.000000pt" height="2048.000000pt" viewBox="0 0 2048.000000 2048.000000"
 preserveAspectRatio="xMidYMid meet">
<metadata>
Created by potrace 1.13, written by Peter Selinger 2001-2015
</metadata>
<g transform="translate(0.000000,2048.000000) scale(0.192120,-0.192120)"
fill="#000000" stroke="none">
<path d="M4541 10029 c-392 -44 -707 -185 -947 -423 -151 -151 -249 -310 -312
-506 -45 -142 -55 -234 -49 -444 8 -249 47 -412 123 -511 l34 -45 0 -203 c0
-283 32 -448 126 -654 118 -261 371 -521 632 -650 l72 -36 0 -59 0 -58 -433 0
c-475 0 -487 -1 -570 -59 -53 -36 7 39 -1218 -1516 -427 -541 -752 -962 -765
-991 -78 -166 -7 -365 161 -452 39 -20 69 -26 135 -30 109 -5 178 19 250 86
41 39 1428 1790 1601 2020 29 39 55 70 57 68 2 -2 18 -136 37 -298 18 -161 68
-588 111 -949 l77 -656 -24 -139 -24 -139 -235 3 c-409 7 -556 -23 -744 -151
-149 -101 -271 -266 -325 -440 -103 -336 -67 -730 98 -1071 195 -402 554 -705
1006 -849 564 -181 1441 -279 2100 -237 516 34 920 121 1360 295 176 69 518
239 691 344 138 83 154 90 179 81 59 -22 122 -31 231 -31 130 0 262 24 429 78
273 88 407 193 701 548 251 305 429 474 649 620 91 60 368 205 392 205 31 0 9
19 -34 29 -207 48 -430 37 -706 -33 -283 -73 -618 -218 -900 -390 -60 -36
-111 -66 -114 -66 -3 0 27 34 66 76 222 233 334 544 357 989 6 127 -6 353 -27
500 -15 103 -16 105 -45 70 -60 -71 -109 -142 -233 -339 -256 -404 -370 -548
-676 -851 -235 -233 -280 -290 -352 -441 -39 -84 -93 -258 -93 -304 0 -13 -23
-23 -112 -44 -575 -140 -957 -166 -1375 -95 l-63 11 73 72 c85 83 139 161 184
266 55 130 65 206 61 482 -4 221 -6 249 -26 303 -28 74 -80 154 -139 211 l-44
43 -30 181 c-16 100 -29 198 -29 219 0 21 40 413 90 870 49 457 95 892 102
966 7 74 14 135 18 134 3 0 174 -341 380 -757 350 -707 379 -761 430 -813 41
-41 70 -61 110 -74 61 -21 159 -23 205 -5 62 24 1219 697 1261 733 26 23 56
64 76 105 30 61 33 74 33 162 0 84 -3 102 -28 152 -74 151 -236 229 -377 181
-30 -10 -251 -132 -491 -271 -240 -138 -438 -252 -441 -252 -3 0 -11 15 -19
33 -38 94 -614 1236 -663 1316 -79 127 -174 226 -251 263 l-60 28 -467 0 -468
0 0 58 0 59 73 36 c175 87 358 241 483 406 36 48 94 144 129 216 110 222 145
384 145 670 l0 181 29 11 c84 31 139 318 128 670 -5 187 -21 265 -82 406 -193
447 -623 766 -1160 863 -108 19 -414 27 -534 13z m369 -289 c366 -32 662 -161
886 -386 94 -95 169 -203 210 -302 21 -51 24 -73 24 -199 0 -79 -4 -143 -8
-143 -5 0 -19 12 -33 26 -38 41 -113 93 -157 108 -22 8 -123 24 -224 36 -201
23 -300 42 -460 89 -137 40 -190 40 -268 1 -33 -16 -69 -30 -81 -30 -12 0 -58
17 -103 37 -93 42 -140 45 -206 14 -88 -41 -150 -27 -293 67 -131 85 -183 107
-257 107 -93 0 -154 -38 -302 -189 l-118 -119 0 101 c0 117 16 163 97 285 230
346 745 544 1293 497z m-898 -811 c87 -70 242 -173 308 -203 62 -29 127 -41
165 -32 36 9 57 58 53 120 l-3 53 113 -103 c123 -113 223 -188 271 -205 83
-29 82 66 -3 255 l-27 58 48 -35 c137 -99 357 -163 653 -187 74 -6 163 -14
198 -16 l63 -6 124 -247 c68 -136 135 -261 149 -278 29 -35 31 -33 -57 -82
-45 -26 -59 -40 -64 -62 -3 -16 -9 -26 -13 -24 -5 3 -10 -19 -13 -47 -3 -29
-10 -80 -16 -113 -5 -33 -15 -98 -21 -145 -6 -47 -15 -108 -19 -137 -10 -76
-87 -221 -188 -355 -119 -158 -197 -243 -331 -361 -135 -119 -172 -165 -172
-217 0 -35 -3 -38 -45 -54 -188 -72 -522 -84 -736 -25 -116 31 -129 38 -129
67 0 55 -41 111 -153 213 -62 56 -125 115 -141 133 -204 220 -248 276 -310
396 -24 47 -55 121 -70 165 -30 92 -66 293 -66 368 0 80 -17 165 -37 186 -10
10 -42 33 -71 51 -52 32 -53 33 -34 50 12 11 28 55 42 117 57 252 180 481 352
659 50 52 97 94 104 94 8 0 42 -23 76 -51z m355 -2545 c287 -83 564 -84 816
-4 l88 28 24 -48 c46 -91 109 -120 265 -120 64 0 80 -3 80 -15 0 -13 36 -15
260 -15 256 0 261 0 325 -26 86 -34 160 -114 242 -259 34 -61 176 -339 316
-620 234 -469 260 -515 317 -578 79 -86 137 -121 199 -119 85 2 112 15 546
266 293 169 349 195 418 196 78 0 87 -9 87 -90 0 -108 51 -71 -655 -477 -254
-147 -463 -260 -494 -269 -97 -29 -149 -7 -213 87 -20 30 -153 288 -296 574
-275 549 -332 653 -409 742 -105 124 -165 141 -251 73 -92 -74 -141 -182 -168
-368 -8 -59 -46 -395 -84 -747 -60 -547 -70 -666 -70 -818 0 -206 -1 -203 114
-362 35 -49 63 -91 62 -92 -1 -1 -42 12 -91 29 l-90 31 -834 -2 c-459 -1 -926
1 -1037 5 l-202 7 58 44 c73 54 136 146 146 210 12 79 -3 250 -65 773 -120
1010 -118 993 -165 1095 -31 68 -96 143 -149 172 -59 33 -143 -5 -255 -114
-92 -90 -110 -113 -828 -1023 -340 -432 -638 -806 -662 -832 -75 -80 -164
-108 -232 -73 -39 20 -50 43 -50 109 0 47 5 61 36 101 19 26 320 408 668 848
347 441 693 881 768 977 362 464 392 493 509 507 27 3 49 10 49 14 0 5 97 9
215 9 184 0 215 2 215 15 0 12 18 15 98 15 164 0 238 36 273 134 7 20 14 36
16 36 1 0 42 -11 90 -26z m1328 -3204 c71 -34 144 -113 193 -208 l42 -80 0
-249 c0 -194 -4 -260 -16 -303 -8 -30 -19 -107 -24 -170 -6 -89 -15 -134 -39
-199 -65 -177 -26 -273 127 -321 178 -55 588 -48 945 16 81 15 89 15 106 0 17
-16 27 -15 147 14 159 38 217 65 291 138 76 75 115 136 149 230 81 230 115
282 315 479 179 176 304 315 465 518 90 114 120 145 122 130 3 -11 2 -69 -1
-130 -6 -132 -12 -148 -167 -480 -59 -125 -52 -227 22 -310 94 -107 178 -101
485 36 87 39 186 82 221 95 l62 24 0 -28 c0 -28 -1 -29 -253 -331 -231 -278
-381 -372 -708 -448 -57 -13 -125 -17 -300 -17 l-227 -1 -128 -66 c-71 -36
-221 -113 -334 -171 -468 -239 -910 -375 -1410 -432 -644 -74 -1450 -18 -2095
144 -395 99 -623 215 -831 424 -152 153 -239 294 -312 504 l-36 107 -4 262
c-3 175 0 280 8 318 32 152 167 328 306 398 122 62 160 68 469 78 253 7 288
11 365 33 l85 25 955 -2 955 -2 50 -25z M4020 8093 c-101 -52 -105 -184 -8
-243 64 -39 146 -16 188 52 68 112 -63 252 -180 191z M5410 8093 c-88 -46
-106 -152 -37 -220 68 -69 174 -51 220 37 21 40 18 97 -7 135 -38 58 -116 79
-176 48z M4501 7505 c27 -144 127 -228 274 -228 146 0 253 89 271 227 l7 46
-280 0 -280 0 8 -45z M4224 6968 c15 -77 99 -155 212 -197 201 -76 560 -64
733 23 68 35 116 79 140 130 41 83 90 76 -535 76 l-556 0 6 -32z M3773 2846
c-35 -16 -63 -61 -63 -101 0 -55 49 -86 340 -213 359 -156 527 -226 779 -323
419 -163 858 -297 926 -285 49 9 80 49 80 102 0 72 -24 87 -205 133 -340 87
-1001 340 -1630 624 -170 77 -185 81 -227 63z"/>
</g>
</svg>
