<?xml version="1.0" standalone="no"?>
<!DOCTYPE svg PUBLIC "-//W3C//DTD SVG 20010904//EN"
 "http://www.w3.org/TR/2001/REC-SVG-20010904/DTD/svg10.dtd">
<svg version="1.0" xmlns="http://www.w3.org/2000/svg"
 width="2048.000000pt" height="2048.000000pt" viewBox="0 0 2048.000000 2048.000000"
 preserveAspectRatio="xMidYMid meet">
<metadata>
Created by potrace 1.13, written by Peter Selinger 2001-2015
</metadata>
<g transform="translate(0.000000,2048.000000) scale(0.192120,-0.192120)"
fill="#000000" stroke="none">
<path d="M1243 10315 c-464 -84 -837 -469 -903 -930 -8 -59 -10 -1151 -8
-4105 l3 -4025 22 -77 c121 -426 407 -709 826 -821 l82 -22 4085 0 4084 0 8
40 c11 49 -5 215 -32 343 -48 227 -172 520 -304 717 l-67 99 17 99 c16 98 14
178 -6 202 -7 9 -7 30 1 66 8 35 10 99 6 179 -17 351 -133 653 -340 881 -26
28 -47 55 -47 59 0 4 20 24 43 43 24 20 73 68 108 108 l64 72 -58 -6 c-74 -7
-130 -35 -190 -92 -71 -69 -99 -115 -99 -168 0 -55 20 -102 99 -232 74 -122
125 -224 146 -290 25 -74 67 -247 67 -270 0 -11 7 -42 16 -70 43 -129 63 -169
115 -231 l49 -58 -18 -30 c-10 -17 -35 -40 -56 -50 -34 -17 -45 -17 -89 -7
-103 24 -228 134 -265 234 -17 44 -32 62 -103 120 -98 79 -267 194 -390 263
l-86 49 -6 80 c-3 44 -15 107 -27 140 -15 43 -20 74 -17 110 5 51 49 165 64
164 8 0 41 -44 213 -284 93 -129 195 -289 254 -397 20 -38 42 -68 49 -68 7 0
29 11 49 25 67 45 62 109 -22 276 -61 123 -224 351 -312 437 -38 37 -79 86
-91 110 -12 24 -24 45 -28 47 -3 3 -24 -17 -45 -44 -38 -47 -40 -48 -95 -47
-68 1 -108 -25 -163 -108 -34 -51 -36 -59 -36 -134 0 -52 7 -101 20 -143 39
-121 60 -148 139 -174 48 -15 51 -19 51 -49 0 -148 -94 -435 -236 -718 -75
-149 -59 -146 106 20 105 106 138 145 191 236 82 140 89 144 182 123 40 -9
118 -19 174 -23 l102 -7 -15 -30 c-26 -49 -193 -215 -265 -263 -87 -58 -135
-76 -303 -119 -76 -19 -164 -47 -195 -61 -50 -22 -61 -32 -90 -84 -18 -33 -30
-64 -26 -70 38 -61 368 -149 620 -165 197 -12 525 29 625 78 51 25 81 64 111
149 12 32 24 57 26 54 2 -2 8 -89 12 -192 7 -170 11 -197 35 -264 62 -170 76
-230 76 -327 l0 -93 -153 0 c-195 0 -188 -4 -298 174 -34 55 -90 127 -123 161
-75 74 -216 158 -365 216 -19 8 -16 1 18 -38 259 -296 407 -524 439 -675 l9
-47 -96 48 c-174 87 -137 83 -683 79 l-483 -4 -285 -41 c-394 -58 -494 -67
-730 -66 -235 0 -356 18 -550 78 -63 19 -153 40 -200 45 -53 6 -869 10 -2181
10 -2298 0 -2178 -3 -2348 59 -242 88 -476 334 -545 572 -15 49 -16 438 -14
4189 l3 4135 25 60 c40 95 118 218 182 289 93 103 254 209 388 255 145 50 162
51 1229 51 1188 0 1301 6 1533 80 51 17 110 30 130 30 91 0 656 -84 948 -141
487 -96 777 -191 858 -284 37 -41 38 -49 17 -150 -30 -145 -120 -385 -335
-895 -298 -709 -395 -1000 -407 -1231 -8 -151 4 -182 110 -285 45 -44 141
-134 212 -199 195 -178 484 -465 599 -595 285 -323 406 -545 406 -744 0 -160
-48 -321 -257 -871 -356 -934 -463 -1365 -463 -1868 0 -279 27 -465 100 -688
86 -263 139 -335 305 -414 157 -74 298 -105 701 -150 126 -14 241 -28 256 -31
29 -6 31 -2 62 181 27 158 76 610 76 699 0 9 -38 21 -112 35 -167 33 -308 69
-355 92 -39 19 -42 23 -61 97 -73 275 -48 553 83 932 20 58 93 251 162 430
240 623 365 1052 434 1483 10 64 16 80 33 86 72 27 550 66 702 57 121 -7 334
2 334 15 0 17 -135 103 -203 129 -58 22 -95 29 -192 34 -131 6 -164 11 -177
24 -13 13 9 28 140 92 111 54 121 62 156 115 35 51 79 155 71 163 -2 2 -99
-34 -217 -81 -333 -132 -451 -167 -575 -167 -84 0 -79 -3 -153 110 -85 131
-199 256 -551 605 -189 187 -377 381 -416 430 -83 103 -148 219 -164 294 -15
72 1 137 122 492 56 162 103 305 106 319 3 17 -17 69 -60 160 -129 270 -171
404 -193 610 -8 80 -28 234 -44 344 -58 386 -40 425 139 306 209 -140 292
-289 346 -619 l17 -104 -36 -31 c-47 -41 -59 -76 -45 -129 28 -105 123 -249
292 -444 48 -55 90 -111 95 -124 20 -52 227 -292 246 -286 6 2 18 -4 28 -12
53 -50 152 -92 437 -188 168 -57 333 -110 366 -119 33 -9 134 -20 225 -24 91
-5 194 -12 230 -16 36 -3 79 -5 95 -5 32 2 105 44 105 62 0 16 -59 68 -103 90
-85 44 -183 62 -347 64 -143 1 -160 4 -225 29 -126 50 -397 143 -530 181 -102
30 -134 44 -150 64 -48 62 -148 179 -304 354 -172 196 -289 344 -330 419 l-24
44 96 290 c122 366 159 507 147 558 -27 119 -175 219 -467 316 -166 54 -393
107 -623 145 l-154 25 -2161 -1 c-1726 -1 -2174 -3 -2232 -14z m4695 -1167 c6
-7 17 -54 26 -104 21 -123 73 -291 140 -453 67 -159 72 -209 31 -310 -42 -101
-124 -349 -151 -450 -19 -74 -24 -118 -24 -215 0 -109 3 -130 26 -187 94 -232
231 -408 583 -750 164 -160 201 -201 201 -223 0 -15 -6 -33 -13 -39 -7 -7 -43
-39 -81 -71 -37 -33 -80 -78 -94 -100 -60 -91 -73 -85 -198 90 -151 210 -491
570 -869 918 -88 81 -166 159 -173 173 -10 19 -13 66 -10 187 l3 161 72 211
c63 182 320 818 413 1021 65 141 91 173 118 141z m1182 -2948 c138 -33 180
-50 180 -69 0 -33 53 -122 90 -153 22 -17 41 -36 44 -44 3 -7 -8 -39 -24 -70
-18 -33 -30 -71 -30 -93 0 -35 -3 -39 -40 -50 -108 -32 -227 -18 -348 41 -129
63 -263 230 -279 347 -7 52 9 84 51 106 43 22 239 14 356 -15z m-375 -498 c95
-92 160 -136 263 -178 l77 -31 3 -66 c6 -136 -123 -581 -303 -1047 -181 -468
-251 -670 -295 -852 -30 -121 -30 -126 -30 -400 0 -303 1 -310 63 -436 39 -78
147 -196 218 -239 30 -18 94 -44 143 -58 50 -14 92 -28 95 -31 3 -3 7 -66 9
-140 4 -148 -11 -223 -54 -273 l-21 -25 -187 23 c-282 34 -464 81 -562 143
-78 50 -148 186 -198 390 l-27 106 4 449 c3 440 4 450 29 563 75 329 176 646
358 1120 189 491 254 695 289 911 6 37 11 82 11 102 0 30 8 43 30 46 3 1 41
-34 85 -77z m1848 -4098 c18 -9 58 -34 90 -56 64 -43 76 -77 35 -99 -60 -33
-301 -51 -367 -28 -50 18 -40 41 50 109 125 96 139 101 192 74z M2018 9644
c-54 -23 -83 -86 -75 -165 26 -243 275 -608 465 -679 68 -26 87 -25 166 3 139
51 341 201 551 412 197 196 310 351 303 413 l-3 27 -685 2 c-597 2 -690 0
-722 -13z m1000 -217 c18 -22 -15 -71 -107 -159 -108 -104 -206 -178 -295
-223 -135 -68 -220 -42 -339 107 -81 100 -140 252 -110 281 3 4 194 7 423 7
326 0 420 -3 428 -13z M8939 9550 c-100 -9 -232 -51 -316 -101 -70 -42 -172
-141 -196 -191 -31 -66 -32 -95 -4 -120 l25 -22 -24 -48 c-61 -120 -116 -332
-135 -518 -23 -228 15 -408 107 -509 50 -56 99 -80 194 -93 l80 -12 0 -90 c0
-89 0 -89 20 -71 11 10 34 39 50 63 63 95 30 162 -149 304 -30 24 -65 63 -78
87 -22 42 -23 54 -23 240 1 117 6 236 15 296 19 128 19 206 0 275 -8 30 -15
57 -15 59 0 6 71 -7 127 -24 29 -9 66 -27 83 -41 30 -25 30 -27 30 -122 0 -54
3 -107 6 -119 l6 -23 32 23 c43 30 153 32 186 2 41 -36 52 -77 40 -151 -20
-124 -70 -183 -161 -192 -27 -2 -49 -5 -49 -6 0 -2 7 -27 16 -57 36 -121 122
-250 225 -336 104 -86 244 -153 320 -153 31 0 31 0 15 -22 -86 -118 -93 -150
-49 -239 34 -69 243 -280 331 -334 72 -44 76 -61 20 -88 -33 -16 -45 -17 -95
-7 -73 15 -162 57 -232 109 -30 22 -123 105 -207 184 -84 80 -179 165 -211
189 -58 45 -58 45 -162 53 l-105 7 53 -54 c128 -130 206 -404 181 -640 -41
-397 -282 -615 -593 -536 -30 7 -37 13 -32 26 4 9 13 44 22 77 13 50 13 68 3
110 -17 69 -60 144 -145 250 -159 199 -366 358 -737 566 -154 87 -312 192
-395 263 -51 44 -139 156 -232 294 -130 195 -171 232 -253 232 -78 0 -79 -8
-23 -116 96 -184 261 -432 359 -540 62 -67 138 -117 411 -264 497 -267 744
-487 899 -797 20 -40 35 -76 34 -80 -2 -5 9 -37 24 -73 91 -220 190 -478 213
-555 15 -49 33 -108 40 -131 42 -128 93 -425 105 -619 5 -82 12 -159 15 -170
4 -16 -9 -29 -62 -65 -97 -64 -287 -258 -448 -455 -250 -306 -377 -459 -452
-542 l-73 -81 118 -124 c64 -67 189 -199 276 -293 88 -93 186 -198 218 -232
l58 -61 128 55 c70 30 187 83 261 119 l133 64 91 -85 c50 -47 93 -84 97 -83 4
2 95 104 201 228 107 124 217 252 244 284 28 32 95 93 150 136 231 178 373
325 497 511 118 177 171 355 170 569 -1 73 -7 150 -16 185 -8 33 -12 63 -10
67 8 12 -18 172 -28 179 -4 3 -19 120 -33 260 -75 761 -136 1097 -260 1410
-45 114 -140 299 -203 394 -45 68 -174 207 -220 236 -22 14 -22 14 -11 129 9
83 17 122 31 140 86 116 282 426 325 515 75 157 96 241 97 395 1 149 -19 229
-84 329 -139 215 -367 343 -658 371 -59 5 -109 9 -112 9 -3 -1 -44 -5 -91 -9z
m319 -280 c45 -11 117 -37 158 -57 84 -42 185 -127 203 -172 9 -20 12 -88 9
-227 l-3 -199 -42 -85 c-53 -107 -190 -316 -247 -375 -50 -53 -73 -56 -150
-20 -68 32 -160 128 -175 180 -10 37 -8 44 29 105 58 96 70 139 70 247 0 79
-4 101 -24 141 -29 58 -92 117 -152 144 -24 10 -44 25 -44 33 0 8 -7 15 -15
15 -8 0 -15 6 -15 13 0 6 -9 23 -20 37 -58 72 -100 136 -100 151 0 27 27 48
83 63 83 23 86 24 222 25 98 1 150 -4 213 -19z m-60 -2066 c92 -69 201 -127
290 -154 137 -40 189 -117 251 -373 56 -226 91 -444 131 -812 35 -320 40 -337
129 -441 28 -32 51 -62 51 -65 0 -14 -504 -112 -740 -144 -148 -20 -610 -33
-610 -17 0 5 13 39 30 74 37 78 46 157 31 263 -20 139 -41 206 -112 352 -82
166 -139 320 -139 373 0 35 3 38 33 44 82 15 277 142 277 181 0 8 10 25 23 38
65 68 112 146 152 252 43 116 75 287 75 411 0 71 0 72 28 72 17 0 52 -19 100
-54z m842 -2064 c0 -5 -7 -35 -16 -67 -9 -32 -19 -71 -21 -88 -3 -16 -9 -34
-13 -40 -4 -5 -11 -35 -15 -65 -7 -63 -49 -214 -76 -277 -55 -130 -194 -297
-369 -446 -273 -232 -376 -355 -460 -547 -37 -84 -36 -83 -140 -139 l-75 -40
-40 35 c-22 19 -51 37 -63 41 -42 10 -115 -5 -222 -48 -58 -23 -129 -48 -158
-56 -85 -22 -112 -5 -283 183 -236 259 -229 232 -91 398 53 65 104 130 112
145 37 66 268 333 447 518 131 134 167 194 167 274 l1 57 110 6 c497 29 686
55 1105 151 69 16 100 18 100 5z M3853 7930 l-632 -5 -30 -29 c-64 -61 -64
-184 -1 -359 45 -124 112 -231 199 -318 62 -62 86 -80 129 -92 46 -14 58 -14
107 -2 168 44 465 255 731 520 142 140 204 220 204 261 0 24 -19 35 -53 32
-12 -2 -306 -5 -654 -8z m235 -244 c9 -45 -271 -267 -406 -322 -70 -29 -104
-30 -157 -4 -77 37 -165 186 -173 293 l-4 57 368 -2 c354 -3 369 -4 372 -22z
M2687 5385 c-85 -30 -124 -102 -114 -213 21 -249 281 -680 593 -982 117 -114
202 -175 268 -195 52 -16 113 -1 232 54 375 176 1211 778 1555 1121 122 121
170 190 148 216 -17 21 -2624 20 -2682 -1z m2201 -229 c14 -70 -752 -633
-1183 -871 -74 -41 -171 -75 -213 -75 -65 0 -139 47 -253 160 -164 165 -346
421 -430 605 -35 77 -50 182 -28 196 8 5 460 8 1059 6 1020 -2 1045 -2 1048
-21z M7544 3718 c-143 -155 -234 -290 -258 -382 -14 -53 -26 -223 -41 -580
l-6 -139 42 7 c121 19 143 68 154 346 10 248 16 278 84 415 33 66 64 138 70
160 11 46 26 235 18 235 -3 0 -31 -28 -63 -62z M1124 2241 c-150 -68 -66 -373
201 -730 243 -323 546 -530 743 -507 264 31 789 360 1175 735 287 279 387 461
280 510 -17 8 -357 11 -1191 11 -1114 0 -1169 -1 -1208 -19z m2093 -217 c10
-26 -18 -64 -117 -164 -214 -216 -607 -492 -837 -590 -154 -65 -252 -72 -363
-27 -188 77 -459 357 -584 604 -40 79 -60 146 -51 173 6 20 23 20 976 20 871
0 970 -2 976 -16z M7035 1414 c-16 -14 -102 -74 -190 -132 -190 -127 -402
-238 -537 -281 -54 -17 -142 -45 -195 -62 -298 -95 -347 -186 -169 -314 148
-105 255 -138 451 -138 263 1 589 86 892 234 129 63 149 81 193 169 58 116 97
288 69 305 -7 5 -37 7 -66 6 -153 -7 -311 74 -374 194 -13 25 -28 45 -34 45
-5 -1 -23 -12 -40 -26z m42 -349 c53 -22 103 -63 103 -84 0 -40 -56 -72 -221
-129 -200 -69 -401 -104 -430 -75 -13 13 31 48 101 83 25 13 112 63 195 113
82 50 163 94 180 98 16 4 31 7 33 8 1 1 19 -6 39 -14z"/>
</g>
</svg>
