<?xml version="1.0" standalone="no"?>
<!DOCTYPE svg PUBLIC "-//W3C//DTD SVG 20010904//EN"
 "http://www.w3.org/TR/2001/REC-SVG-20010904/DTD/svg10.dtd">
<svg version="1.0" xmlns="http://www.w3.org/2000/svg"
 width="2048.000000pt" height="2048.000000pt" viewBox="0 0 2048.000000 2048.000000"
 preserveAspectRatio="xMidYMid meet">
<metadata>
Created by potrace 1.13, written by Peter Selinger 2001-2015
</metadata>
<g transform="translate(0.000000,2048.000000) scale(0.192120,-0.192120)"
fill="#000000" stroke="none">
<path d="M1243 10315 c-464 -84 -837 -469 -903 -930 -8 -59 -10 -1151 -8
-4105 l3 -4025 22 -77 c121 -426 407 -709 826 -821 l82 -22 4085 0 4084 0 8
40 c11 49 -5 215 -32 343 -48 227 -172 520 -304 716 l-66 100 16 103 c15 86
15 111 5 151 -14 54 -14 45 -5 177 23 350 -114 757 -335 994 -28 30 -51 55
-51 56 0 1 52 55 116 120 l115 117 25 -23 26 -24 20 25 c11 14 123 145 250
292 170 197 249 281 304 323 132 99 281 234 365 328 225 256 322 485 321 762
0 140 -17 227 -68 358 -44 113 -106 327 -99 344 2 7 12 13 21 13 15 0 16 8 10
65 -4 35 -15 192 -26 347 -11 156 -25 326 -31 378 -26 230 -107 517 -197 701
l-48 97 67 4 c83 6 163 42 218 97 57 57 68 88 42 120 -97 123 -121 184 -121
314 0 96 24 189 115 452 125 362 158 522 136 657 -36 217 -222 380 -449 393
-71 4 -75 6 -125 50 -68 60 -229 139 -342 167 -122 30 -388 33 -480 5 -104
-32 -183 -83 -280 -181 -109 -110 -184 -236 -141 -236 12 0 10 -12 -10 -55
-72 -164 -117 -390 -118 -590 0 -211 36 -328 126 -411 52 -48 82 -61 178 -77
l75 -13 0 -94 0 -95 -80 -9 c-102 -12 -232 4 -352 43 -49 16 -188 73 -309 126
-208 92 -418 179 -494 204 -21 7 -48 28 -67 54 -47 61 -144 168 -361 397 -199
208 -292 317 -338 396 l-26 45 96 287 c120 360 158 504 146 556 -27 119 -175
219 -467 316 -166 54 -393 107 -623 145 l-154 25 -2161 -1 c-1726 -1 -2174 -3
-2232 -14z m3034 -90 c554 -75 1002 -162 1285 -251 185 -58 328 -147 328 -205
0 -44 -33 -175 -75 -297 -52 -153 -124 -334 -275 -692 -298 -709 -395 -1000
-407 -1231 -8 -151 4 -182 110 -285 45 -44 141 -134 212 -199 195 -178 484
-465 599 -595 285 -323 406 -545 406 -744 0 -160 -48 -321 -257 -871 -356
-934 -463 -1365 -463 -1868 0 -279 27 -465 100 -688 57 -174 110 -279 167
-329 57 -50 198 -119 303 -149 130 -36 426 -79 743 -107 73 -6 78 -8 74 -28
-32 -146 -40 -196 -35 -201 11 -11 84 37 107 70 39 57 18 142 -40 160 -19 6
-20 12 -15 49 30 184 57 391 72 544 9 99 20 185 23 191 4 5 18 11 32 13 14 2
38 11 52 21 15 10 27 15 27 12 0 -8 19 12 56 60 40 50 64 143 64 243 0 42 5
143 10 223 11 164 28 225 89 329 49 83 68 142 83 259 l13 95 234 -250 c129
-137 258 -275 288 -306 l53 -56 123 53 c68 29 185 83 261 119 l138 65 41 -39
c31 -28 38 -40 27 -43 -8 -2 -40 -12 -70 -21 -68 -19 -156 -88 -219 -170 -43
-55 -46 -62 -45 -120 0 -68 16 -105 110 -257 29 -47 69 -119 89 -160 34 -72
35 -76 35 -198 l0 -124 -63 124 c-100 196 -273 447 -402 583 -47 51 -71 86
-87 128 l-21 59 -41 -38 c-22 -21 -46 -46 -54 -55 -18 -25 -34 -22 -63 8 -21
22 -30 25 -64 19 -53 -8 -92 -34 -160 -107 -85 -90 -105 -141 -105 -260 0 -54
4 -100 10 -103 6 -3 10 -23 10 -44 0 -43 38 -127 71 -158 13 -11 44 -31 68
-44 l43 -22 -6 -50 c-11 -82 -71 -306 -137 -512 -53 -164 -61 -198 -48 -205
10 -7 17 -3 23 13 5 12 40 85 77 162 37 77 81 185 98 241 53 174 78 186 226
103 134 -75 193 -92 290 -86 87 6 155 23 155 37 0 16 -127 116 -245 194 -144
95 -265 164 -344 196 l-64 26 -2 95 c-1 52 -5 117 -9 144 -5 31 -4 66 3 90 13
48 84 170 99 170 14 0 262 -334 375 -505 71 -107 200 -345 219 -402 5 -15 86
22 121 54 15 14 27 34 27 45 0 11 7 26 15 33 24 20 63 -23 81 -90 32 -113 60
-177 108 -248 45 -68 47 -75 33 -90 -25 -24 -103 -20 -162 8 -74 35 -178 143
-201 208 -10 28 -21 52 -25 52 -3 0 -21 -24 -40 -52 -49 -77 -203 -232 -279
-283 -85 -57 -144 -81 -250 -106 -190 -44 -342 -109 -373 -160 -17 -28 1 -68
44 -95 96 -61 369 -125 584 -139 197 -12 525 29 625 78 51 25 81 64 111 149
12 32 24 57 26 54 2 -2 8 -89 12 -192 7 -170 11 -197 35 -264 62 -170 76 -230
76 -327 l0 -93 -153 0 c-195 0 -188 -4 -298 174 -34 55 -90 127 -123 161 -75
74 -216 158 -365 216 -19 8 -16 1 18 -38 259 -296 407 -524 439 -675 l9 -47
-96 48 c-174 87 -137 83 -683 79 l-483 -4 -285 -41 c-394 -58 -494 -67 -730
-66 -235 0 -356 18 -550 78 -63 19 -153 40 -200 45 -53 6 -869 10 -2181 10
-2298 0 -2178 -3 -2348 59 -242 88 -476 334 -545 572 -15 49 -16 438 -14 4189
l3 4135 25 60 c40 95 118 218 182 289 93 103 254 209 388 255 145 50 162 51
1229 51 1186 0 1304 6 1527 79 49 16 108 30 131 30 24 1 127 -10 230 -24z
m1762 -256 c35 -12 40 -33 12 -49 -29 -15 -39 -12 -46 10 -4 11 -11 18 -16 15
-5 -4 -9 0 -9 9 0 8 6 17 13 19 6 3 12 6 13 6 1 1 15 -4 33 -10z m452 -126
c90 -38 107 -53 109 -88 3 -52 0 -71 -13 -89 -24 -33 -63 -2 -207 164 -49 57
-3 62 111 13z m-271 -30 c36 -21 104 -76 151 -123 102 -101 159 -205 186 -336
l17 -81 -39 -58 c-85 -129 -95 -215 -37 -340 50 -106 107 -187 239 -337 47
-53 101 -121 121 -151 41 -62 276 -321 380 -419 83 -78 165 -131 180 -116 14
14 75 -9 396 -147 276 -118 358 -147 485 -176 93 -20 141 -24 141 -10 0 4 33
11 74 14 94 7 128 25 173 92 34 52 37 54 54 39 29 -26 96 -164 118 -241 35
-129 46 -250 32 -369 -20 -178 -63 -286 -145 -372 -98 -104 -257 -136 -424
-87 l-51 15 19 43 c40 87 17 173 -87 319 -130 183 -309 356 -552 531 -62 45
-173 127 -245 183 -72 55 -167 124 -211 154 -102 68 -230 197 -325 329 -70 96
-161 213 -185 236 -99 98 -199 137 -254 99 -23 -16 -25 -16 -43 7 -31 40 -165
318 -193 403 -17 51 -32 127 -41 215 -8 75 -27 229 -44 343 -31 215 -37 326
-20 359 16 29 58 23 130 -18z m-160 -638 c21 -191 66 -347 154 -535 33 -71 36
-158 6 -200 -41 -58 -99 -190 -155 -350 -89 -261 -105 -332 -105 -474 0 -109
3 -130 26 -187 62 -151 119 -243 248 -399 82 -100 287 -312 294 -305 3 2 95
-83 206 -189 110 -106 228 -217 261 -246 96 -85 93 -80 60 -74 -67 12 -250 9
-283 -5 -54 -23 -71 -82 -43 -152 8 -19 10 -11 10 42 1 79 10 90 82 94 122 6
195 -31 358 -183 85 -79 93 -91 87 -115 -17 -68 -137 -153 -204 -145 -20 3
-46 8 -57 12 -12 5 -10 2 5 -8 14 -8 64 -25 112 -37 57 -15 84 -27 79 -34 -42
-51 -55 -91 -126 -395 -66 -276 -162 -579 -290 -910 -181 -468 -251 -670 -295
-852 -30 -121 -30 -126 -30 -400 0 -303 1 -309 64 -437 41 -86 169 -218 247
-255 46 -22 192 -63 297 -82 22 -4 22 -6 22 -166 0 -144 -2 -166 -21 -205 -23
-47 -57 -76 -80 -69 -8 3 -97 15 -199 26 -313 36 -520 86 -621 149 -83 53
-151 184 -203 393 l-27 106 4 449 c3 440 4 450 29 563 75 329 176 646 358
1120 134 349 225 610 255 737 21 86 25 127 25 252 0 145 -1 152 -36 253 -69
201 -148 334 -330 553 -118 143 -480 510 -729 739 -88 81 -166 159 -173 173
-10 19 -13 66 -10 187 l3 161 72 210 c68 199 502 1260 546 1335 11 19 27 41
36 48 26 21 56 -62 71 -193z m3248 9 c54 -16 138 -53 222 -99 92 -50 172 -85
250 -109 168 -52 163 -42 158 -263 l-4 -178 -72 -213 c-115 -338 -112 -324
-113 -572 -1 -118 -4 -226 -8 -240 -7 -23 -12 -25 -59 -23 -65 3 -189 54 -227
93 l-28 29 6 179 c6 172 5 179 -17 227 -13 28 -51 82 -86 120 -34 39 -75 92
-91 120 -37 64 -65 187 -84 361 -26 252 -49 368 -95 492 -21 55 -25 93 -12
106 13 14 171 -4 260 -30z m-565 15 c132 -36 197 -205 232 -599 28 -317 71
-458 170 -549 30 -26 71 -53 96 -61 24 -7 47 -16 52 -20 4 -3 -7 -37 -24 -75
-89 -196 -70 -359 53 -470 62 -56 157 -101 312 -150 65 -20 115 -40 110 -44
-5 -4 -29 -23 -55 -43 -80 -64 -81 -82 -4 -338 24 -82 56 -209 71 -282 27
-128 28 -147 32 -498 l3 -365 -43 -17 c-220 -85 -822 -163 -925 -119 -34 14
-83 82 -138 191 -39 77 -185 222 -256 254 -52 23 -196 52 -207 41 -7 -7 -31
27 -32 45 0 8 18 42 40 75 46 68 85 147 94 188 12 51 39 67 114 67 213 1 366
101 462 304 70 147 90 268 90 533 l0 211 51 -16 c56 -18 82 -10 87 25 2 15
-21 43 -85 101 -132 121 -176 152 -216 152 -18 0 -36 3 -40 6 -3 3 8 25 25 48
68 97 35 172 -150 346 -63 58 -116 117 -122 134 -5 16 -10 109 -10 208 0 149
4 202 25 316 28 146 27 180 -6 267 -11 28 -19 58 -19 67 0 20 59 53 117 67 52
12 53 12 96 0z m-2211 -927 c98 -158 269 -388 363 -490 56 -60 119 -107 359
-266 336 -223 460 -317 607 -465 113 -114 191 -213 259 -329 47 -80 47 -76 5
-192 -17 -45 -30 -107 -34 -154 l-6 -79 -147 -59 c-183 -74 -354 -118 -452
-118 -101 0 -112 5 -147 66 -71 125 -183 251 -548 614 -207 207 -409 416 -448
465 -83 103 -148 219 -164 293 -15 73 -4 116 123 497 137 408 128 384 139 365
5 -8 46 -75 91 -148z m1884 -2493 c31 -26 106 -198 122 -281 l17 -88 56 0 56
0 6 -59 c11 -100 -25 -318 -60 -366 -5 -6 -39 -33 -78 -60 -101 -71 -280 -254
-440 -450 -253 -309 -378 -459 -451 -541 l-73 -81 27 -26 26 -26 -65 -68
c-144 -150 -248 -302 -273 -397 -14 -54 -27 -233 -42 -588 -4 -105 -10 -148
-18 -148 -52 0 -398 85 -453 111 -39 19 -42 23 -61 97 -73 275 -48 553 83 932
20 58 93 251 162 430 242 628 351 1003 435 1489 12 70 15 75 42 82 38 10 258
37 401 49 136 11 564 3 581 -11z m1498 -248 c-24 -87 -11 -125 66 -193 33 -29
60 -55 60 -59 0 -9 -170 -82 -285 -122 -316 -109 -596 -164 -887 -174 l-177
-6 69 70 c76 78 100 123 100 190 0 50 -9 71 -56 130 l-34 41 98 7 c354 24 578
59 907 144 83 21 151 37 153 36 1 -1 -5 -30 -14 -64z m16 -668 c0 -149 -7
-188 -50 -274 -77 -157 -185 -279 -430 -490 -223 -192 -318 -317 -376 -493
-21 -67 -45 -86 -202 -165 l-84 -42 -43 21 c-54 26 -88 21 -255 -37 -69 -23
-143 -43 -166 -43 -58 0 -104 37 -217 172 -52 62 -105 122 -117 133 -13 11
-40 42 -61 68 -31 38 -39 57 -39 89 0 36 10 52 93 151 50 61 97 121 102 133
12 28 257 322 356 428 104 111 245 232 305 262 38 19 84 29 180 39 159 18 154
18 154 0 0 -20 33 -19 168 5 151 27 349 79 512 134 74 25 143 45 153 45 15 1
17 -12 17 -136z m-1254 -3265 c72 -42 73 -44 74 -84 0 -61 -14 -71 -114 -89
-167 -28 -336 -13 -320 29 6 15 168 149 208 173 37 22 77 14 152 -29z M2018
9644 c-54 -23 -83 -86 -75 -165 26 -243 275 -608 465 -679 68 -26 87 -25 166
3 139 51 341 201 551 412 197 196 310 351 303 413 l-3 27 -685 2 c-597 2 -690
0 -722 -13z m1000 -217 c18 -22 -15 -71 -107 -159 -108 -104 -206 -178 -295
-223 -135 -68 -220 -42 -339 107 -81 100 -140 252 -110 281 3 4 194 7 423 7
326 0 420 -3 428 -13z M3853 7930 l-632 -5 -30 -29 c-64 -61 -64 -184 -1 -359
45 -124 112 -231 199 -318 62 -62 86 -80 129 -92 46 -14 58 -14 107 -2 168 44
465 255 731 520 142 140 204 220 204 261 0 24 -19 35 -53 32 -12 -2 -306 -5
-654 -8z m235 -244 c9 -45 -271 -267 -406 -322 -70 -29 -104 -30 -157 -4 -77
37 -165 186 -173 293 l-4 57 368 -2 c354 -3 369 -4 372 -22z M2687 5385 c-85
-30 -124 -102 -114 -213 21 -249 281 -680 593 -982 117 -114 202 -175 268
-195 52 -16 113 -1 232 54 375 176 1211 778 1555 1121 122 121 170 190 148
216 -17 21 -2624 20 -2682 -1z m2201 -229 c14 -70 -752 -633 -1183 -871 -74
-41 -171 -75 -213 -75 -65 0 -139 47 -253 160 -164 165 -346 421 -430 605 -35
77 -50 182 -28 196 8 5 460 8 1059 6 1020 -2 1045 -2 1048 -21z M1124 2241
c-150 -68 -66 -373 201 -730 243 -323 546 -530 743 -507 264 31 789 360 1175
735 287 279 387 461 280 510 -17 8 -357 11 -1191 11 -1114 0 -1169 -1 -1208
-19z m2093 -217 c10 -26 -18 -64 -117 -164 -214 -216 -607 -492 -837 -590
-154 -65 -252 -72 -363 -27 -188 77 -459 357 -584 604 -40 79 -60 146 -51 173
6 20 23 20 976 20 871 0 970 -2 976 -16z M7050 1425 c-7 -9 -92 -69 -189 -133
-205 -136 -415 -247 -553 -291 -54 -17 -142 -45 -195 -62 -298 -95 -347 -186
-169 -314 148 -105 255 -138 451 -138 263 1 589 86 892 234 129 63 149 81 193
169 34 66 68 172 75 233 9 70 -5 87 -70 80 -140 -16 -312 72 -376 192 -25 48
-39 54 -59 30z m107 -372 c56 -34 65 -61 31 -93 -74 -70 -429 -186 -586 -191
-70 -3 -92 9 -65 33 10 9 71 46 136 82 64 36 160 93 212 126 53 34 106 65 118
70 37 16 103 4 154 -27z"/>
</g>
</svg>
