<?xml version="1.0" standalone="no"?>
<!DOCTYPE svg PUBLIC "-//W3C//DTD SVG 20010904//EN"
 "http://www.w3.org/TR/2001/REC-SVG-20010904/DTD/svg10.dtd">
<svg version="1.0" xmlns="http://www.w3.org/2000/svg"
 width="2048.000000pt" height="2048.000000pt" viewBox="0 0 2048.000000 2048.000000"
 preserveAspectRatio="xMidYMid meet">
<metadata>
Created by potrace 1.13, written by Peter Selinger 2001-2015
</metadata>
<g transform="translate(0.000000,2048.000000) scale(0.192120,-0.192120)"
fill="#000000" stroke="none">
<path d="M5015 8934 c-27 -2 -115 -9 -195 -14 -1013 -76 -1864 -423 -2435
-995 -213 -212 -364 -423 -495 -690 -118 -239 -193 -477 -237 -747 -25 -159
-25 -694 1 -913 32 -279 90 -528 162 -699 41 -97 124 -230 155 -246 18 -10 19
-7 19 72 -1 59 -9 114 -30 193 -144 536 -140 502 -140 1129 l0 511 29 125 c92
398 316 801 615 1108 510 524 1220 842 2141 956 511 64 1039 57 1520 -20 781
-125 1511 -478 1996 -966 298 -300 475 -571 640 -985 97 -242 93 -210 97 -778
4 -611 -7 -745 -92 -1090 -49 -200 -71 -375 -46 -375 22 0 80 65 113 127 124
239 191 713 192 1363 0 370 -5 423 -60 640 -83 328 -262 680 -493 970 -97 122
-349 374 -472 472 -582 462 -1302 742 -2150 833 -137 15 -713 28 -835 19z
M3244 6603 c-332 -279 -618 -680 -819 -1149 -69 -159 -157 -433 -206 -639 -39
-164 -45 -183 -76 -214 -34 -34 -65 -38 -117 -16 -18 8 -18 3 -12 -126 12
-229 35 -535 57 -739 145 -1395 556 -2217 1341 -2682 364 -215 794 -343 1363
-405 202 -22 856 -25 1065 -5 824 80 1403 312 1839 736 133 130 214 228 317
382 342 515 537 1234 619 2279 33 420 34 469 16 480 -9 6 -39 33 -67 61 -56
55 -136 204 -277 515 -150 328 -447 1039 -447 1068 0 17 -9 14 -90 -28 -187
-97 -384 -144 -605 -144 -164 -1 -231 9 -377 53 -202 62 -394 173 -551 319
-26 24 -49 42 -52 39 -2 -2 0 -31 5 -64 6 -32 10 -118 10 -191 0 -201 -31
-320 -107 -404 -52 -57 -102 -79 -186 -79 -92 0 -144 14 -267 72 -211 99 -466
292 -772 587 -49 46 -88 78 -88 70 -2 -51 -32 -173 -54 -217 -57 -112 -142
-165 -266 -165 -99 0 -182 23 -315 87 -205 100 -481 302 -716 523 -36 35 -71
63 -76 63 -6 0 -46 -30 -89 -67z m167 -325 c24 -17 96 -73 160 -124 245 -195
514 -350 684 -395 149 -38 355 -20 355 32 0 10 12 25 28 33 15 8 65 42 112 76
112 82 113 81 283 -55 242 -195 459 -325 632 -382 102 -32 259 -43 323 -20 40
14 42 14 42 -4 0 -18 2 -18 28 -5 105 54 212 187 282 347 22 52 47 100 54 108
12 11 31 6 123 -37 234 -107 371 -137 628 -137 201 0 259 8 442 61 47 14 97
23 110 20 12 -4 33 -23 46 -44 22 -36 97 -204 171 -384 49 -121 227 -511 291
-638 29 -58 73 -132 97 -165 74 -101 85 -134 93 -275 7 -131 -12 -401 -40
-573 -8 -48 -15 -107 -15 -131 0 -47 -39 -317 -66 -451 -8 -44 -28 -120 -44
-170 -15 -49 -56 -187 -90 -305 -103 -362 -110 -381 -180 -525 -175 -359 -388
-595 -735 -815 -345 -219 -774 -354 -1327 -417 -220 -25 -905 -25 -1128 0
-658 74 -1150 252 -1530 553 -87 70 -230 210 -259 254 -9 14 -41 59 -72 100
-266 360 -453 886 -554 1560 -50 329 -67 519 -72 792 l-5 277 35 48 c49 68 90
173 137 355 122 473 289 825 559 1178 76 99 213 244 256 271 46 29 95 24 146
-13z M3230 5570 c-31 -4 -79 -15 -108 -24 -107 -36 -254 -173 -320 -299 -37
-71 -37 -73 -37 -192 0 -116 1 -123 34 -190 25 -52 54 -90 113 -146 142 -138
233 -170 477 -171 131 -1 168 2 231 21 199 57 286 65 520 47 136 -10 157 -4
239 70 77 69 136 153 161 230 32 95 26 223 -15 314 -82 181 -252 316 -428 340
-87 11 -779 12 -867 0z m942 -256 c61 -20 123 -75 156 -138 35 -67 37 -168 6
-237 -27 -58 -84 -116 -143 -143 -45 -20 -58 -21 -526 -21 l-480 0 -57 28
c-108 53 -165 153 -156 271 6 72 26 116 77 169 36 39 75 64 121 78 14 4 235 8
491 8 396 1 472 -1 511 -15z M6550 5569 c-41 -5 -92 -22 -140 -45 -103 -51
-221 -171 -273 -277 -36 -74 -37 -78 -37 -195 0 -117 1 -121 35 -190 27 -53
56 -90 121 -151 112 -106 119 -108 327 -92 180 14 246 8 402 -34 125 -34 239
-44 380 -35 170 11 262 51 376 163 110 107 149 199 149 353 0 105 -1 107 -41
185 -49 95 -167 220 -250 267 -102 58 -141 62 -584 61 -220 -1 -429 -5 -465
-10z m985 -266 c48 -26 106 -85 130 -133 10 -19 20 -62 23 -96 9 -118 -48
-218 -156 -271 l-57 -28 -480 0 -480 0 -49 24 c-105 52 -160 140 -160 256 0
85 31 154 95 208 77 67 71 66 609 64 477 -2 486 -2 525 -24z M3869 4487 c-59
-17 -126 -66 -161 -118 -41 -61 -50 -129 -46 -323 3 -147 6 -177 24 -217 66
-142 237 -204 377 -136 60 30 95 65 130 131 21 39 22 54 22 256 0 202 -1 217
-22 256 -35 65 -70 101 -127 129 -64 31 -136 39 -197 22z m91 -413 c0 -145 0
-145 -22 -142 -22 3 -23 7 -26 132 -1 72 0 136 2 143 3 7 15 13 26 13 19 0 20
-6 20 -146z M6632 4482 c-71 -26 -118 -66 -156 -132 l-31 -55 0 -215 c0 -202
1 -217 22 -256 35 -66 70 -101 130 -131 141 -69 310 -8 377 136 19 42 21 63
21 251 0 188 -2 209 -21 251 -60 130 -212 197 -342 151z m106 -404 c-3 -127
-5 -143 -20 -146 -17 -3 -18 9 -18 142 0 140 1 146 20 146 20 0 20 -5 18 -142z
M4935 3496 c-165 -78 -210 -292 -91 -433 15 -17 54 -46 88 -62 l61 -31 336 0
336 0 60 29 c102 48 156 133 157 245 1 112 -58 205 -157 252 -50 24 -53 24
-395 24 -342 0 -345 0 -395 -24z m707 -194 c48 -20 46 -96 -4 -124 -32 -18
-511 -25 -585 -8 -58 12 -83 37 -83 81 0 33 13 44 70 57 62 15 566 10 602 -6z
M4403 2397 c-61 -23 -118 -72 -148 -128 -26 -47 -30 -64 -30 -134 0 -98 19
-137 98 -212 162 -153 443 -276 742 -324 104 -17 426 -17 530 0 302 49 579
169 742 324 67 63 94 113 100 187 18 197 -179 349 -368 285 -25 -9 -69 -36
-99 -60 -108 -89 -280 -160 -444 -185 -101 -15 -291 -15 -392 0 -162 25 -337
97 -439 181 -27 22 -63 48 -80 57 -38 20 -169 26 -212 9z m169 -224 c24 -9 72
-35 108 -57 137 -83 297 -143 451 -167 48 -7 140 -10 245 -7 139 4 186 10 265
31 126 33 219 73 333 141 103 63 182 86 229 67 24 -9 27 -16 27 -56 0 -38 -6
-51 -37 -85 -68 -76 -253 -167 -437 -215 -307 -80 -682 -67 -971 35 -131 46
-262 117 -322 176 -47 45 -53 55 -53 91 0 36 4 43 28 51 41 16 87 14 134 -5z"/>
</g>
</svg>
