<?xml version="1.0" standalone="no"?>
<!DOCTYPE svg PUBLIC "-//W3C//DTD SVG 20010904//EN"
 "http://www.w3.org/TR/2001/REC-SVG-20010904/DTD/svg10.dtd">
<svg version="1.0" xmlns="http://www.w3.org/2000/svg"
 width="2048.000000pt" height="2048.000000pt" viewBox="0 0 2048.000000 2048.000000"
 preserveAspectRatio="xMidYMid meet">
<metadata>
Created by potrace 1.13, written by Peter Selinger 2001-2015
</metadata>
<g transform="translate(0.000000,2048.000000) scale(0.192120,-0.192120)"
fill="#000000" stroke="none">
<path d="M5274 10288 c-51 -54 -74 -87 -156 -218 -246 -395 -727 -1349 -1370
-2713 -270 -574 -545 -1168 -560 -1210 -6 -15 -19 -29 -31 -32 -12 -2 -62 -12
-112 -20 -442 -79 -931 -228 -1229 -376 -55 -27 -100 -49 -100 -49 -1 0 0 309
2 686 l2 686 126 487 126 486 62 65 c100 105 163 209 206 345 34 106 39 310
11 427 -73 305 -302 540 -606 619 -95 25 -278 30 -370 10 -140 -30 -296 -111
-401 -208 -103 -95 -203 -260 -240 -398 -21 -82 -29 -265 -15 -349 28 -163
112 -326 231 -448 37 -39 64 -76 70 -98 5 -19 61 -236 124 -483 l116 -447 0
-2261 0 -2260 63 8 c80 10 354 10 435 0 l62 -8 0 968 c0 532 -3 978 -6 991 -6
21 -10 22 -53 16 -58 -8 -89 -24 -124 -63 l-27 -31 0 -785 0 -785 -25 0 c-23
0 -25 -4 -25 -45 0 -41 -2 -45 -25 -45 -23 0 -25 4 -25 45 0 37 -3 45 -19 45
-20 0 -21 67 -40 3165 l-6 1130 -53 200 c-99 372 -121 446 -158 517 -8 16 -14
31 -12 33 2 1 25 -3 51 -10 l48 -12 -24 26 c-14 14 -45 64 -69 111 -24 47 -61
116 -82 153 -50 92 -46 102 26 71 230 -97 435 -60 603 111 77 78 122 147 166
255 27 68 29 80 29 215 0 97 -5 163 -16 204 -9 36 -12 67 -7 76 13 22 102 -70
142 -145 l31 -58 0 -210 c0 -156 -4 -220 -14 -250 -15 -42 -78 -142 -154 -247
-24 -33 -59 -89 -78 -125 -47 -89 -70 -129 -87 -148 -30 -36 -27 -39 21 -27
26 7 48 12 50 10 1 -1 -13 -35 -32 -76 -47 -102 -56 -133 -131 -421 l-65 -254
0 -695 0 -695 35 -37 c22 -24 55 -43 92 -56 l58 -20 5 -133 5 -133 30 49 c17
27 41 59 54 70 13 12 30 27 37 34 19 19 385 147 561 196 135 38 153 41 153 26
0 -16 8 -15 98 6 53 13 178 42 277 64 99 22 203 51 230 65 70 34 145 103 193
177 22 35 135 266 250 513 701 1508 1196 2519 1505 3075 131 236 172 290 218
290 20 0 35 -10 52 -32 173 -229 903 -1697 1674 -3363 69 -148 143 -308 165
-355 78 -165 208 -292 337 -329 36 -11 165 -42 286 -69 121 -28 228 -53 238
-57 12 -5 17 -2 17 9 0 22 8 21 135 -15 232 -64 545 -180 737 -272 123 -59
291 -168 373 -240 49 -43 112 -123 104 -131 -2 -2 -98 25 -214 61 -115 35
-290 87 -389 114 -170 47 -727 189 -743 189 -5 0 -5 -57 0 -127 4 -71 6 -325
5 -565 -3 -385 -1 -437 12 -433 8 2 83 20 165 40 655 156 1080 364 1184 578
81 167 -24 391 -271 577 -323 244 -859 444 -1553 580 -87 17 -160 32 -161 33
0 1 -34 74 -74 162 -602 1324 -1383 2928 -1723 3535 -183 327 -311 510 -357
510 -9 0 -34 -19 -56 -42z m-3821 -1098 c107 -40 195 -129 240 -244 16 -38 21
-75 21 -146 1 -88 -2 -101 -33 -167 -80 -171 -247 -263 -438 -241 -173 19
-327 172 -351 348 -29 212 98 405 308 466 62 19 182 11 253 -16z m7212 -4155
c132 -35 258 -70 279 -78 50 -17 65 -39 43 -61 -8 -9 -19 -16 -23 -16 -4 0
-15 -7 -24 -15 -19 -17 -133 -66 -250 -106 -97 -34 -287 -89 -307 -89 -10 0
-13 44 -13 220 l0 220 28 -6 c15 -3 135 -34 267 -69z M4770 5939 c-239 -9
-1179 -104 -1330 -134 -26 -5 -216 -30 -305 -40 -96 -10 -131 -16 -260 -41
-211 -42 -250 -61 -279 -136 -18 -43 -22 -138 -6 -138 5 0 128 22 272 49 588
111 983 161 1638 208 345 25 1318 25 1665 0 653 -47 1082 -102 1662 -213 128
-24 237 -44 242 -44 19 0 13 107 -8 148 -31 60 -61 78 -176 106 -80 20 -275
54 -350 61 -33 3 -193 23 -355 45 -418 57 -1044 118 -1325 130 -268 11 -803
11 -1085 -1z M6410 5546 c0 -12 243 -149 391 -220 342 -166 699 -267 944 -266
l80 1 -31 28 c-33 30 -85 45 -264 77 -206 36 -341 79 -685 217 -253 102 -435
170 -435 163z M4195 5530 c-11 -5 -85 -34 -165 -65 -80 -31 -170 -67 -200 -80
-94 -40 -282 -112 -360 -138 -81 -27 -307 -81 -380 -92 -133 -18 -168 -28
-206 -62 l-39 -34 115 5 c330 15 771 167 1168 404 104 61 137 92 67 62z M2305
5380 c-126 -32 -310 -80 -407 -106 l-178 -47 0 -333 0 -333 28 -15 c95 -49
715 -226 790 -226 16 0 17 39 17 518 0 284 4 536 8 560 6 36 5 42 -10 41 -10
-1 -121 -27 -248 -59z m-36 -467 c-1 -104 -4 -200 -8 -214 l-6 -27 -142 41
-143 40 0 138 0 138 38 10 c175 47 229 60 245 61 16 0 17 -15 16 -187z M4360
5091 c-81 -17 -160 -88 -180 -161 -7 -26 -10 -107 -8 -209 3 -167 3 -168 33
-217 19 -30 49 -60 79 -79 43 -26 59 -30 121 -30 62 0 78 4 121 30 30 19 60
49 79 79 30 49 30 50 33 219 4 190 -4 229 -62 295 -50 57 -142 88 -216 73z
M6240 5091 c-48 -10 -89 -33 -127 -73 -56 -58 -63 -89 -63 -275 0 -157 2 -172
24 -220 41 -88 134 -140 231 -130 64 6 103 26 149 73 57 59 68 109 64 297 -3
144 -6 167 -25 203 -49 91 -156 144 -253 125z M2827 5010 c-28 -135 44 -351
158 -477 43 -48 76 -72 142 -105 53 -26 88 -51 93 -64 5 -12 15 -24 23 -27 8
-3 20 -29 26 -57 18 -82 124 -395 174 -511 125 -292 278 -547 439 -736 99
-115 189 -198 250 -229 53 -27 74 -30 81 -11 3 6 6 -20 6 -60 l1 -72 77 -67
c188 -163 396 -260 668 -310 122 -22 481 -30 628 -14 321 35 578 145 790 339
49 46 57 58 57 90 0 49 10 81 25 81 21 0 128 74 194 136 86 79 226 252 297
366 168 272 283 528 384 857 55 180 88 240 141 256 91 28 239 164 287 266 54
114 83 264 66 348 -6 28 -10 18 -34 -74 -72 -279 -239 -465 -419 -465 l-47 0
-13 -67 c-24 -123 -99 -369 -157 -515 -322 -814 -882 -1338 -1567 -1465 -142
-26 -409 -24 -555 5 -282 56 -528 173 -777 367 -98 77 -278 261 -368 376 -250
323 -460 784 -553 1217 l-17 82 -48 0 c-133 0 -269 108 -352 280 -27 54 -57
137 -70 194 -21 88 -25 95 -30 66z M2560 4091 c0 -541 67 -1222 150 -1530 l23
-84 18 24 c11 13 30 47 44 76 33 68 33 142 1 373 -44 310 -56 477 -82 1083 -3
81 -10 147 -15 147 -5 0 -9 6 -9 13 0 18 -71 57 -104 57 l-26 0 0 -159z M8018
4234 c-13 -7 -26 -10 -30 -8 -5 3 -8 0 -8 -6 0 -6 -4 -8 -10 -5 -5 3 -10 -3
-10 -15 0 -12 -4 -19 -9 -16 -5 3 -11 -140 -15 -332 -4 -185 -11 -448 -16
-584 -15 -364 -13 -574 5 -634 16 -55 73 -140 86 -127 10 10 35 159 48 288 23
214 32 449 38 943 l6 513 -31 -3 c-18 -1 -42 -8 -54 -14z M5048 4062 c-36 -22
-58 -69 -58 -124 0 -55 17 -86 59 -115 33 -22 40 -23 295 -23 244 0 263 1 294
20 62 38 81 138 39 201 -39 57 -46 59 -337 59 -232 -1 -268 -3 -292 -18z
M4685 3517 c-98 -45 -140 -156 -96 -253 50 -110 297 -243 531 -285 114 -21
345 -17 460 8 171 37 331 111 430 200 56 50 80 96 80 152 0 58 -20 100 -68
143 -67 61 -162 64 -236 9 -159 -120 -347 -169 -551 -143 -153 19 -227 49
-365 146 -49 35 -135 45 -185 23z M1045 2496 c-219 -71 -353 -206 -412 -416
-14 -52 -18 -98 -17 -235 1 -174 14 -254 59 -360 l16 -39 24 29 c46 57 55 114
55 358 l0 224 31 61 c41 78 109 156 167 188 93 53 123 75 142 107 19 31 28
107 13 107 -5 -1 -40 -11 -78 -24z M1750 2483 c0 -44 22 -90 53 -112 56 -41
186 -113 227 -127 45 -15 124 -12 135 5 7 12 -44 79 -92 122 -70 63 -181 117
-295 143 -27 6 -28 5 -28 -31z M3055 2470 c-242 -17 -469 -80 -700 -196 -161
-81 -151 -67 -119 -160 23 -67 28 -100 32 -218 7 -214 -25 -364 -116 -540
-116 -226 -311 -390 -529 -447 -105 -27 -260 -27 -365 0 -216 56 -406 214
-519 434 l-46 90 -26 -54 c-55 -113 -57 -137 -57 -611 l0 -438 4305 0 4305 0
0 299 c0 417 -15 547 -90 774 -187 561 -652 956 -1242 1053 -87 14 -206 18
-774 21 -552 4 -672 2 -681 -9 -6 -7 -104 -179 -218 -383 -530 -944 -849
-1475 -885 -1475 -22 0 -178 247 -428 675 -140 241 -523 916 -622 1098 l-54
97 -530 -1 c-292 -1 -580 -5 -641 -9z m1017 -230 c44 -13 92 -64 145 -156 22
-38 126 -221 231 -406 212 -372 465 -806 548 -939 30 -47 57 -100 60 -117 6
-28 3 -33 -20 -42 -18 -7 -556 -10 -1607 -10 l-1579 0 0 93 0 92 78 52 c213
141 394 403 479 693 36 123 44 184 52 380 l6 175 170 68 c210 84 287 106 412
116 147 12 981 13 1025 1z m3780 -14 c91 -21 311 -106 434 -166 308 -152 529
-407 640 -740 l29 -85 3 -332 3 -333 -1658 0 c-1779 0 -1711 -2 -1705 49 1 13
71 139 155 280 138 230 431 739 642 1115 87 155 132 211 179 226 19 5 264 8
621 6 496 -3 601 -6 657 -20z m-6914 -1410 l72 -49 0 -98 0 -99 -80 0 -80 0 0
151 c0 83 3 149 8 147 4 -1 40 -25 80 -52z m282 -5 c0 -3 17 -17 38 -31 20
-14 40 -29 44 -35 9 -13 256 -13 266 0 4 6 19 16 33 23 14 8 43 29 64 48 21
18 42 31 46 28 11 -6 12 -391 1 -398 -4 -2 -30 6 -57 20 -28 13 -58 24 -67 24
-10 0 -18 5 -18 10 0 6 -52 10 -135 10 -83 0 -135 -4 -135 -10 0 -5 -7 -10
-15 -10 -9 0 -37 -11 -63 -25 l-47 -25 -6 27 c-9 37 -11 312 -3 351 6 30 7 31
30 15 13 -8 24 -18 24 -22z"/>
</g>
</svg>
