<?xml version="1.0" standalone="no"?>
<!DOCTYPE svg PUBLIC "-//W3C//DTD SVG 20010904//EN"
 "http://www.w3.org/TR/2001/REC-SVG-20010904/DTD/svg10.dtd">
<svg version="1.0" xmlns="http://www.w3.org/2000/svg"
 width="2048.000000pt" height="2048.000000pt" viewBox="0 0 2048.000000 2048.000000"
 preserveAspectRatio="xMidYMid meet">
<metadata>
Created by potrace 1.13, written by Peter Selinger 2001-2015
</metadata>
<g transform="translate(0.000000,2048.000000) scale(0.192120,-0.192120)"
fill="#000000" stroke="none">
<path d="M5274 10288 c-131 -139 -352 -533 -785 -1398 -358 -717 -911 -1880
-1249 -2628 -48 -105 -70 -144 -85 -147 -11 -2 -94 -18 -185 -36 -306 -59
-626 -147 -874 -240 -139 -52 -341 -142 -366 -162 -13 -10 -14 -41 -10 -200
l5 -187 50 82 c90 149 111 163 375 253 214 73 698 205 750 205 5 0 10 -7 10
-16 0 -15 11 -15 118 1 33 5 28 -21 -13 -57 -48 -41 -81 -100 -101 -178 -9
-36 -17 -66 -18 -67 0 0 -116 -27 -256 -58 -199 -44 -754 -181 -898 -221 l-22
-6 0 -334 0 -333 28 -15 c66 -33 414 -141 609 -187 165 -39 503 -107 503 -100
0 3 -27 35 -60 70 -73 76 -137 203 -171 336 -31 122 -34 387 -6 480 55 177
159 269 340 300 l37 6 -16 31 c-12 23 -13 33 -4 38 33 20 688 112 1105 155
374 38 927 59 1425 52 759 -10 1284 -57 2050 -183 118 -19 221 -37 228 -40 11
-3 9 -11 -7 -37 l-20 -33 64 -28 c167 -73 242 -241 232 -521 -9 -238 -74 -424
-196 -557 -34 -36 -61 -68 -61 -71 0 -6 341 63 505 103 635 152 1062 362 1164
573 81 167 -24 391 -271 577 -323 244 -859 444 -1553 580 -87 17 -160 32 -161
33 0 1 -34 74 -74 162 -581 1278 -1385 2932 -1703 3500 -200 357 -329 545
-377 545 -9 0 -34 -19 -56 -42z m98 -395 c40 -43 129 -198 310 -543 353 -672
710 -1406 1295 -2665 270 -579 257 -554 303 -622 49 -74 209 -223 239 -223 6
0 11 -6 11 -14 0 -20 -89 -19 -264 4 -83 11 -203 26 -266 34 -128 17 -602 60
-840 77 -85 6 -380 13 -655 16 -553 6 -849 -3 -1335 -43 -306 -24 -381 -32
-738 -79 -198 -26 -288 -30 -299 -11 -4 5 -1 12 5 14 16 5 110 78 155 121 67
63 112 147 320 596 575 1238 980 2076 1305 2700 269 518 360 665 411 665 10 0
29 -12 43 -27z m-2265 -4085 c-3 -8 -6 -5 -6 6 -1 11 2 17 5 13 3 -3 4 -12 1
-19z m-27 -4 c0 -8 -4 -12 -10 -9 -5 3 -10 10 -10 16 0 5 5 9 10 9 6 0 10 -7
10 -16z m4877 -19 c345 -82 793 -235 1021 -349 182 -92 390 -247 436 -326 18
-31 18 -32 0 -27 -11 3 -116 35 -234 71 -377 114 -716 202 -1145 299 l-190 43
-16 74 c-18 87 -35 123 -78 165 -46 45 -41 55 29 50 47 -3 60 0 60 11 0 17
-11 19 117 -11z m598 -710 c424 -108 480 -129 452 -166 -29 -38 -188 -110
-382 -172 -161 -52 -306 -90 -313 -82 -4 4 -8 115 -10 247 -3 227 -2 239 15
234 10 -2 117 -30 238 -61z m-6212 -42 c16 -239 4 -373 -33 -373 -8 0 -88 21
-177 47 l-163 47 0 142 0 143 38 11 c70 21 297 78 313 79 13 1 17 -16 22 -96z
M1332 9490 c-216 -30 -409 -141 -547 -315 -55 -69 -127 -213 -151 -300 -21
-82 -29 -265 -15 -349 28 -163 112 -326 231 -448 37 -39 64 -76 70 -98 5 -19
61 -236 124 -483 l116 -447 0 -2261 0 -2260 63 8 c34 4 132 8 217 8 85 0 183
-4 218 -8 l62 -8 0 968 c0 532 -3 978 -6 991 -6 21 -10 22 -53 16 -58 -8 -89
-24 -123 -63 l-28 -31 0 -785 0 -785 -25 0 c-23 0 -25 -4 -25 -45 0 -41 -2
-45 -25 -45 -23 0 -25 4 -25 45 0 37 -3 45 -19 45 -20 0 -21 67 -40 3165 l-6
1130 -53 200 c-99 372 -121 446 -158 517 -8 16 -14 31 -12 33 2 1 25 -3 51
-10 l48 -12 -24 26 c-14 14 -45 64 -69 111 -24 47 -61 116 -82 153 -50 92 -46
102 26 71 230 -97 435 -60 603 111 77 78 122 147 166 255 27 68 29 80 29 215
0 97 -5 163 -16 204 -9 36 -12 67 -7 76 13 22 102 -70 142 -145 l31 -58 0
-210 c0 -156 -4 -220 -14 -250 -15 -42 -78 -142 -154 -247 -24 -33 -59 -89
-78 -125 -47 -89 -70 -129 -87 -148 -30 -36 -27 -39 21 -27 26 7 48 12 50 10
1 -1 -13 -35 -32 -76 -47 -102 -56 -133 -131 -421 l-65 -254 0 -681 c0 -584 2
-685 15 -709 8 -16 15 -25 15 -21 0 4 15 -3 33 -17 18 -14 51 -28 73 -32 40
-6 41 -5 48 26 3 18 6 327 6 687 l0 654 126 487 126 487 62 65 c100 105 163
209 206 345 34 106 39 310 11 427 -59 250 -216 446 -446 559 -140 68 -325 99
-473 79z m121 -300 c107 -40 195 -129 240 -244 16 -38 21 -75 21 -146 1 -88
-2 -101 -33 -167 -80 -171 -247 -263 -438 -241 -173 19 -327 172 -351 348 -29
212 98 405 308 466 62 19 182 11 253 -16z M4120 5393 c-27 -10 -65 -37 -96
-68 -74 -74 -84 -114 -84 -330 0 -207 10 -251 75 -323 62 -69 127 -96 220 -90
107 7 183 57 233 152 27 51 27 53 27 256 0 204 0 205 -28 262 -64 131 -208
189 -347 141z M6344 5394 c-60 -21 -119 -77 -151 -142 -28 -57 -28 -58 -28
-262 0 -203 0 -205 27 -256 50 -95 126 -145 233 -152 93 -6 158 21 220 90 65
72 75 116 75 323 0 216 -10 256 -83 330 -80 80 -190 106 -293 69z M3265 5313
c29 -67 66 -183 76 -238 7 -36 14 -63 17 -60 10 10 -43 282 -60 302 -16 20
-42 17 -33 -4z M7369 5308 c-15 -28 -65 -236 -73 -303 -3 -27 5 -3 18 55 20
89 48 177 81 253 11 25 -12 21 -26 -5z M5035 4666 c-44 -19 -102 -89 -116
-138 -24 -92 27 -199 116 -239 35 -16 70 -19 295 -19 227 0 260 2 296 19 86
39 139 149 115 239 -14 51 -73 119 -118 139 -45 18 -544 18 -588 -1z M7298
4134 c5 -162 0 -214 -19 -214 -6 0 -30 -14 -55 -30 -99 -69 -180 -93 -236 -71
-13 5 -81 51 -153 102 -71 51 -166 112 -210 135 -84 45 -234 108 -241 101 -2
-2 32 -18 76 -37 160 -65 366 -202 510 -337 l75 -70 65 59 c81 74 169 127 237
141 51 11 63 19 44 32 -18 11 -77 215 -94 325 -2 14 -2 -47 1 -136z M3340
4158 c-14 -73 -34 -136 -61 -192 -23 -48 -23 -46 1 -46 63 0 187 -68 275 -151
l51 -49 40 41 c139 145 413 322 602 389 34 13 61 24 59 26 -3 4 -94 -26 -177
-58 -96 -37 -208 -106 -392 -240 -112 -82 -141 -82 -281 2 -120 72 -110 54
-105 207 3 73 4 133 3 133 -1 0 -8 -28 -15 -62z M2880 4169 c0 -38 36 -153 71
-230 39 -84 103 -149 148 -149 29 0 29 -1 20 -32 -12 -44 -11 -209 2 -303 22
-158 77 -274 141 -299 32 -12 32 -7 3 -116 -29 -102 -25 -370 5 -370 20 0 70
53 70 75 0 13 4 26 9 29 4 3 11 47 15 98 3 51 9 129 12 174 l6 81 -56 113
c-30 62 -58 129 -62 149 -4 20 -13 61 -20 91 -8 30 -14 95 -14 146 0 84 -3 96
-34 156 -18 35 -53 93 -78 129 -25 35 -62 99 -83 141 -44 89 -77 125 -123 134
-29 6 -32 4 -32 -17z M7724 4174 c-23 -11 -44 -38 -75 -96 -24 -44 -71 -121
-105 -172 -89 -134 -104 -172 -104 -271 0 -133 -29 -254 -94 -386 l-56 -116 0
-167 c0 -91 4 -174 9 -184 5 -9 14 -31 21 -48 10 -28 65 -72 76 -61 3 2 9 33
15 68 13 77 5 224 -17 305 -28 102 -28 98 4 110 64 25 119 141 141 299 13 94
14 259 2 303 -9 31 -9 32 20 32 68 0 162 138 203 296 27 106 22 119 -40 88z
M6335 4170 c27 -12 43 -12 25 0 -8 5 -22 9 -30 9 -10 0 -8 -3 5 -9z M5310
3821 c0 -5 -14 -23 -32 -40 -37 -36 -114 -67 -217 -87 -87 -17 -404 -37 -433
-28 -11 3 -40 3 -64 -1 l-44 -6 0 -53 c0 -97 40 -170 114 -205 38 -19 61 -21
234 -21 120 0 201 4 219 11 46 19 384 22 460 4 45 -10 122 -15 252 -15 177 0
190 1 232 23 68 36 103 93 107 177 l4 69 -33 5 c-19 3 -122 10 -229 15 -310
16 -450 49 -524 123 -40 40 -46 44 -46 29z M4021 3504 c-102 -35 -186 -66
-188 -68 -2 -2 31 -40 73 -85 91 -97 215 -193 304 -235 59 -28 74 -31 165 -31
93 0 104 2 160 32 l60 32 -60 -6 c-33 -3 -103 -6 -155 -6 -114 -1 -193 23
-285 86 -123 83 -175 172 -124 215 11 9 30 25 41 34 11 9 48 26 81 38 62 21
141 59 122 59 -5 0 -93 -29 -194 -65z M6480 3540 c8 -5 44 -19 80 -31 96 -32
144 -67 148 -107 6 -59 -53 -126 -173 -198 -91 -55 -140 -68 -260 -69 -60 -1
-127 2 -147 6 -53 9 -47 -3 14 -32 43 -20 67 -24 147 -24 84 0 103 3 155 28
32 15 88 48 125 74 83 59 257 231 245 243 -8 8 -329 120 -343 120 -3 0 1 -5 9
-10z M2925 2543 c-246 -31 -508 -122 -695 -241 -30 -19 -56 -35 -57 -36 -2 -1
13 -34 31 -72 19 -38 41 -101 50 -141 21 -93 21 -295 1 -400 -71 -372 -318
-663 -634 -744 -154 -40 -360 -20 -493 47 -178 90 -309 224 -401 408 l-44 87
-25 -58 c-45 -101 -48 -138 -48 -613 l0 -450 4305 0 4305 0 0 309 c0 328 -9
461 -41 606 -127 573 -552 1041 -1110 1224 -168 55 -274 72 -494 78 l-200 5
-18 -63 c-21 -72 -89 -221 -140 -307 -31 -52 -35 -67 -41 -158 -21 -349 -205
-597 -481 -647 l-70 -13 -7 -90 c-16 -220 -115 -366 -288 -426 -85 -30 -279
-32 -379 -4 l-65 18 -33 -41 c-72 -86 -225 -165 -383 -197 -222 -45 -495 31
-643 179 l-57 57 -63 -17 c-42 -11 -102 -17 -187 -17 -105 -1 -135 3 -190 22
-173 59 -272 206 -288 426 l-7 89 -70 14 c-279 54 -460 298 -481 647 -6 91
-10 106 -41 158 -50 84 -119 235 -140 305 l-18 63 -165 -2 c-91 0 -178 -3
-195 -5z m177 -255 c33 -23 90 -89 105 -120 5 -13 20 -43 32 -66 11 -24 21
-54 21 -67 0 -41 38 -219 64 -299 48 -146 100 -231 211 -341 68 -68 123 -113
172 -140 47 -26 74 -48 78 -62 3 -13 10 -23 15 -23 5 0 36 -53 69 -117 64
-125 76 -141 174 -241 74 -76 127 -114 210 -152 122 -54 155 -52 242 19 l59
47 111 -112 c60 -61 135 -128 165 -148 30 -20 50 -36 45 -36 -24 0 -209 52
-305 86 l-105 36 -1242 -2 c-1123 -1 -1243 0 -1243 14 0 12 -10 16 -40 16
l-40 0 0 95 0 95 40 28 c21 15 39 34 40 43 0 9 28 40 63 70 188 162 305 346
383 604 26 85 27 105 33 353 6 252 7 264 27 280 12 9 24 24 27 33 11 34 278
112 436 128 88 9 116 5 153 -21z m4671 11 c349 -46 693 -250 916 -543 218
-285 301 -558 301 -985 0 -184 -1 -191 -20 -191 -11 0 -20 -7 -20 -16 0 -14
-136 -15 -1372 -14 l-1373 2 -90 -32 c-87 -30 -305 -90 -327 -90 -6 0 20 22
59 49 38 27 112 95 165 151 53 55 99 97 102 92 12 -20 101 -72 138 -82 29 -8
52 -7 100 5 94 25 163 69 263 169 79 80 98 107 160 224 39 74 76 145 83 158 7
13 18 24 25 24 17 0 136 77 191 124 158 134 266 357 306 631 21 142 131 326
201 337 29 5 89 0 192 -13z m-6470 -1526 c9 -7 20 -13 26 -13 5 0 11 -5 13
-11 2 -6 35 -14 74 -16 62 -5 76 -2 124 22 30 15 79 52 110 81 31 30 60 51 63
47 9 -8 9 -457 1 -466 -3 -3 -40 12 -81 34 -42 21 -84 39 -94 39 -11 0 -19 5
-19 10 0 12 -177 14 -182 3 -1 -5 -40 -27 -84 -50 l-82 -42 -6 37 c-8 49 -8
337 0 396 l7 46 57 -52 c32 -29 65 -59 73 -65z m-375 35 l42 -29 0 -99 0 -100
-55 0 -55 0 0 136 c0 105 3 134 13 128 6 -4 31 -20 55 -36z M1045 2496 c-219
-71 -353 -206 -412 -416 -28 -101 -25 -365 5 -479 13 -46 28 -93 34 -104 10
-19 11 -19 34 9 23 29 30 45 53 115 7 22 11 113 11 236 l0 200 32 61 c46 90
113 160 208 216 49 29 89 61 101 80 18 30 27 106 12 106 -5 -1 -40 -11 -78
-24z M1753 2469 c5 -37 14 -60 33 -80 37 -39 146 -91 202 -97 49 -4 132 13
132 28 0 13 -89 88 -138 117 -41 24 -146 63 -206 77 l-29 7 6 -52z"/>
</g>
</svg>
