<?xml version="1.0" standalone="no"?>
<!DOCTYPE svg PUBLIC "-//W3C//DTD SVG 20010904//EN"
 "http://www.w3.org/TR/2001/REC-SVG-20010904/DTD/svg10.dtd">
<svg version="1.0" xmlns="http://www.w3.org/2000/svg"
 width="2048.000000pt" height="2048.000000pt" viewBox="0 0 2048.000000 2048.000000"
 preserveAspectRatio="xMidYMid meet">
<metadata>
Created by potrace 1.13, written by Peter Selinger 2001-2015
</metadata>
<g transform="translate(0.000000,2048.000000) scale(0.192120,-0.192120)"
fill="#000000" stroke="none">
<path d="M5055 9469 c-766 -58 -1397 -334 -1870 -820 -142 -146 -211 -231
-320 -394 -286 -429 -456 -920 -551 -1590 -34 -239 -42 -420 -43 -1045 -1
-715 18 -1284 44 -1294 14 -5 64 38 87 74 26 42 31 95 35 390 5 365 -1 356
136 225 124 -119 237 -179 374 -200 68 -11 123 -62 165 -152 138 -298 120
-264 325 -590 46 -73 83 -135 83 -138 0 -4 28 -48 62 -98 41 -60 122 -152 230
-262 93 -93 168 -172 168 -175 0 -3 -8 -15 -18 -27 -20 -26 -95 -56 -415 -169
-373 -132 -498 -164 -639 -164 -108 0 -147 21 -205 110 -63 95 -104 212 -158
455 -34 155 -63 215 -143 295 -64 64 -64 64 -77 146 -8 45 -15 122 -16 170
l-3 89 -77 97 c-170 213 -273 370 -481 731 -83 144 -176 300 -207 347 -72 108
-142 183 -164 174 -64 -24 72 -468 263 -859 169 -346 385 -668 633 -946 l85
-95 22 -120 c62 -350 153 -588 269 -704 73 -73 108 -85 231 -84 181 2 329 42
830 221 265 95 563 193 587 193 8 0 13 14 13 39 l0 40 53 -56 c233 -249 583
-366 1042 -350 342 12 580 92 798 267 87 70 123 114 132 162 l7 35 -154 -77
c-289 -144 -507 -200 -823 -207 -218 -6 -328 5 -518 53 -733 182 -1349 815
-1636 1679 l-46 141 -45 -14 c-27 -8 -79 -12 -130 -10 -73 3 -95 8 -152 36
-172 84 -307 283 -413 605 -52 158 -89 319 -112 484 -15 111 -15 124 -1 140
30 34 58 102 58 141 0 21 -7 61 -15 88 -17 57 -9 67 45 58 129 -21 392 -146
628 -300 90 -59 92 -60 92 -42 0 25 80 146 140 210 34 37 141 132 238 210 161
129 273 234 732 685 l136 133 114 -65 c217 -123 570 -278 830 -365 277 -92
506 -134 785 -145 88 -3 198 -10 245 -16 388 -46 732 -195 955 -413 74 -72
185 -222 185 -249 0 -20 70 2 127 41 228 154 559 312 652 312 l38 0 -9 -57
c-6 -36 -5 -82 2 -124 5 -38 10 -93 10 -123 0 -31 4 -56 8 -56 5 0 14 -24 21
-52 12 -49 10 -66 -19 -208 -95 -463 -274 -792 -487 -893 -104 -49 -238 -49
-349 -1 -5 2 -16 -19 -23 -48 -21 -82 -98 -292 -152 -412 -135 -298 -306 -551
-529 -780 -132 -135 -224 -215 -347 -297 l-74 -50 3 -75 3 -76 141 -44 c78
-24 262 -87 410 -140 462 -166 602 -206 777 -226 194 -22 329 14 420 111 107
115 174 335 207 691 l12 125 87 100 c371 426 679 969 830 1460 62 203 75 291
46 315 -13 11 -23 6 -63 -36 -66 -69 -137 -179 -310 -480 -209 -364 -308 -514
-485 -738 l-84 -105 -6 -161 -5 -161 -56 -52 c-76 -71 -121 -155 -131 -243
-10 -105 -52 -321 -76 -399 -21 -70 -70 -155 -106 -187 -10 -10 -37 -24 -60
-32 -146 -52 -349 -18 -753 124 -438 155 -500 182 -500 222 0 6 66 76 148 157
138 136 304 337 362 435 14 23 57 96 96 162 90 149 141 252 214 426 82 195
106 221 223 232 127 12 239 65 358 168 40 34 83 62 99 64 l29 5 3 -278 c3
-178 8 -289 16 -308 6 -16 14 -41 16 -55 9 -44 103 -126 122 -107 9 9 23 809
23 1371 1 295 5 515 12 570 7 50 13 92 14 94 2 2 20 -8 40 -23 83 -56 201 -29
585 135 319 136 566 262 750 384 91 60 96 62 134 45 28 -13 37 -50 63 -274 21
-182 31 -1330 13 -1525 -81 -877 -338 -1694 -699 -2215 -82 -119 -233 -315
-346 -450 -167 -198 -183 -224 -205 -331 l-12 -58 -36 45 c-165 203 -391 383
-632 504 -120 60 -296 128 -313 121 -9 -3 -8 -5 1 -5 6 -1 12 -7 12 -14 0 -19
81 -77 185 -132 226 -120 396 -236 518 -354 82 -79 127 -144 127 -184 0 -30
37 -122 105 -263 89 -185 85 -151 85 -716 0 -491 0 -498 -20 -498 -13 0 -20
-7 -20 -20 0 -20 -7 -20 -290 -20 -187 0 -290 -4 -290 -10 0 -5 -18 -10 -40
-10 -52 0 -91 -17 -184 -79 -41 -28 -78 -51 -81 -51 -3 0 -5 311 -5 691 l0
691 -37 -31 c-21 -17 -177 -143 -348 -281 l-310 -250 -278 280 -278 279 -152
-138 c-84 -76 -222 -201 -307 -278 l-155 -140 -31 26 c-17 14 -160 140 -317
279 l-287 252 -310 -280 -311 -279 -187 168 c-103 93 -243 218 -312 279 l-125
111 -280 -279 -280 -279 -345 278 -345 278 -3 -688 c-1 -379 -5 -689 -8 -689
-3 0 -45 27 -93 60 -48 33 -102 63 -119 66 -18 4 -32 10 -32 15 0 5 -130 9
-290 9 -287 0 -290 0 -290 21 0 19 -4 20 -40 14 l-40 -7 0 526 c0 587 -6 530
80 736 26 63 56 140 65 170 45 141 46 143 135 230 102 101 222 189 380 278
342 194 378 218 357 238 -20 20 -357 -132 -502 -226 -164 -107 -322 -247 -428
-378 l-52 -64 -12 63 c-18 85 -50 153 -109 224 -377 461 -500 638 -644 925
-239 475 -389 1008 -475 1685 -25 198 -25 206 -25 945 0 586 3 768 15 852 14
110 28 173 44 197 15 23 61 15 109 -19 234 -165 402 -265 642 -382 348 -169
560 -246 643 -234 46 7 111 43 110 61 -1 5 -119 62 -264 125 -629 276 -973
480 -1236 733 -44 42 -78 67 -86 64 -32 -12 -92 -328 -121 -640 -89 -941 -8
-1939 220 -2712 128 -435 301 -817 515 -1136 118 -177 392 -515 559 -692 l91
-96 -51 -88 c-54 -96 -99 -210 -132 -338 -21 -76 -22 -107 -25 -658 l-4 -577
3610 0 3611 0 0 528 c0 592 -4 647 -66 832 -20 60 -60 151 -89 202 l-52 93 71
75 c135 142 348 399 492 594 232 312 438 729 568 1147 259 837 346 1919 236
2932 -30 270 -77 528 -100 542 -3 2 -26 -23 -50 -57 -152 -208 -419 -370
-1097 -663 -147 -64 -312 -136 -366 -161 -54 -24 -101 -44 -103 -44 -2 0 -4
29 -4 64 0 61 -14 96 -40 96 -4 0 -11 24 -15 53 -3 28 -15 117 -26 197 -202
1442 -1002 2380 -2255 2644 -311 65 -670 89 -989 65z m510 -249 c720 -54 1298
-297 1735 -730 376 -372 619 -860 750 -1506 20 -98 26 -242 13 -317 -6 -37 -9
-40 -122 -96 -64 -31 -161 -83 -216 -114 -105 -59 -148 -74 -189 -63 -14 3
-64 46 -113 94 -188 187 -358 297 -593 385 -212 79 -389 111 -723 132 -132 8
-282 22 -335 31 -321 53 -706 190 -1130 403 -217 108 -261 117 -363 66 -74
-38 -135 -92 -417 -368 -147 -144 -332 -315 -412 -380 -80 -65 -185 -157 -234
-205 -110 -107 -143 -132 -176 -132 -14 0 -123 50 -243 110 -120 61 -224 110
-232 110 -24 0 -20 241 5 363 189 919 650 1563 1380 1926 464 231 1036 333
1615 291z m-164 -7859 c24 -16 91 -71 149 -122 220 -194 309 -254 393 -265 87
-11 166 36 372 221 210 189 244 207 310 166 17 -10 93 -79 170 -152 163 -157
206 -192 271 -220 91 -41 179 -9 354 126 47 36 104 79 128 96 l42 30 0 -331 0
-330 -2270 0 -2270 0 0 330 c0 257 3 330 13 330 6 0 39 -21 72 -46 250 -192
298 -219 385 -219 81 0 145 42 326 218 85 81 168 156 186 167 70 43 104 27
283 -134 131 -119 223 -190 283 -221 135 -70 206 -40 477 200 149 132 221 185
254 185 15 0 47 -13 72 -29z M4335 6061 c-69 -17 -125 -62 -161 -131 -17 -30
-19 -59 -19 -215 0 -165 2 -183 22 -220 56 -105 167 -155 275 -125 54 15 118
68 144 120 22 42 23 57 24 221 0 168 -1 177 -25 226 -49 98 -157 149 -260 124z
M6215 6061 c-70 -18 -125 -63 -161 -131 -15 -28 -19 -63 -22 -185 -5 -201 4
-243 72 -310 36 -36 65 -55 99 -64 100 -28 206 14 262 103 30 49 30 49 33 224
4 198 -4 234 -62 294 -58 60 -149 88 -221 69z M5021 4884 c-69 -58 -62 -192
12 -231 24 -12 79 -15 300 -14 250 0 273 2 297 19 14 10 31 30 37 43 17 33 16
114 -2 149 -31 60 -33 60 -336 60 l-277 0 -31 -26z M4665 4341 c-124 -56 -148
-208 -50 -306 159 -159 466 -257 760 -241 66 3 159 15 207 25 205 46 420 166
469 262 47 93 8 214 -83 258 -82 39 -134 27 -261 -62 -108 -75 -272 -114 -442
-103 -156 9 -301 58 -379 127 -68 60 -147 74 -221 40z M4310 2971 l0 -139
-422 -5 c-233 -3 -433 -8 -446 -12 -24 -8 -25 -26 -1 -31 7 -2 25 -5 39 -8 42
-10 580 -28 665 -23 89 5 142 23 180 61 24 24 25 31 25 141 0 70 -4 115 -10
115 -5 0 -10 9 -10 20 0 11 -4 20 -10 20 -6 0 -10 -53 -10 -139z M6323 3073
c-8 -16 -13 -69 -13 -130 0 -96 2 -106 24 -127 58 -59 69 -61 341 -59 353 3
489 14 518 42 18 17 14 18 -80 24 -54 4 -250 7 -435 7 l-337 0 -3 135 c-3 116
-5 131 -15 108z"/>
</g>
</svg>
