<?xml version="1.0" standalone="no"?>
<!DOCTYPE svg PUBLIC "-//W3C//DTD SVG 20010904//EN"
 "http://www.w3.org/TR/2001/REC-SVG-20010904/DTD/svg10.dtd">
<svg version="1.0" xmlns="http://www.w3.org/2000/svg"
 width="2048.000000pt" height="2048.000000pt" viewBox="0 0 2048.000000 2048.000000"
 preserveAspectRatio="xMidYMid meet">
<metadata>
Created by potrace 1.13, written by Peter Selinger 2001-2015
</metadata>
<g transform="translate(0.000000,2048.000000) scale(0.192120,-0.192120)"
fill="#000000" stroke="none">
<path d="M1243 10315 c-464 -84 -837 -469 -903 -930 -8 -59 -10 -1151 -8
-4105 l3 -4025 22 -77 c121 -426 407 -709 826 -821 l82 -22 4085 0 4084 0 8
40 c11 49 -5 215 -32 343 -48 227 -172 520 -304 716 l-66 100 16 103 c15 87
15 111 5 151 -8 26 -12 65 -10 87 2 22 4 103 3 180 -3 350 -127 681 -343 914
-23 24 -41 45 -41 47 0 1 52 55 115 119 l116 118 25 -24 26 -24 20 25 c11 14
123 144 248 290 189 219 246 279 327 341 225 174 371 324 495 510 118 177 171
355 170 569 -1 73 -7 150 -16 185 -8 33 -12 63 -10 67 8 12 -18 172 -28 179
-4 3 -19 120 -33 260 -60 616 -102 888 -181 1171 -60 219 -166 458 -280 630
-47 71 -176 210 -222 239 -22 14 -22 15 -12 118 6 57 9 105 7 107 -6 7 -122
-136 -135 -167 -18 -42 -2 -93 52 -166 58 -79 185 -204 274 -270 40 -30 70
-58 67 -63 -12 -19 -73 -28 -126 -18 -123 22 -225 90 -445 301 -184 175 -252
227 -296 227 -18 0 -56 3 -85 6 l-52 7 44 49 c50 56 64 102 44 150 -13 33
-113 137 -190 200 -29 23 -57 58 -73 93 l-28 56 7 197 c13 359 11 439 -15 512
-35 103 -35 103 -68 30 -59 -129 -103 -306 -123 -485 -24 -226 15 -413 107
-514 50 -56 99 -80 194 -93 l80 -12 0 -93 c0 -51 -2 -93 -5 -93 -3 0 -21 16
-41 35 -81 82 -206 117 -424 120 l-155 2 -145 55 c-154 59 -335 119 -490 164
-70 20 -99 33 -115 53 -48 62 -148 179 -304 354 -172 196 -289 344 -330 419
l-24 44 96 290 c122 366 159 507 147 558 -27 119 -175 219 -467 316 -166 54
-393 107 -623 145 l-154 25 -2161 -1 c-1726 -1 -2174 -3 -2232 -14z m3034 -90
c554 -75 1002 -162 1285 -251 185 -58 328 -147 328 -205 0 -44 -33 -175 -75
-297 -52 -153 -124 -334 -275 -692 -298 -709 -395 -1000 -407 -1231 -8 -151 4
-182 110 -285 45 -44 141 -134 212 -199 195 -178 484 -465 599 -595 285 -323
406 -545 406 -744 0 -160 -48 -321 -257 -871 -356 -934 -463 -1365 -463 -1868
0 -279 27 -465 100 -688 57 -173 110 -279 167 -328 97 -86 271 -153 496 -191
125 -21 619 -79 626 -74 20 17 111 733 111 878 0 9 -38 21 -112 35 -167 33
-308 69 -355 92 -39 19 -42 23 -61 97 -73 275 -48 553 83 932 20 58 93 251
162 430 242 628 352 1006 435 1490 l13 75 59 12 c150 29 388 46 699 48 175 1
319 -1 321 -4 8 -12 56 -241 76 -356 11 -66 25 -187 30 -270 5 -82 12 -159 15
-170 4 -16 -9 -29 -62 -65 -97 -64 -287 -258 -448 -455 -249 -305 -377 -459
-451 -541 l-73 -81 26 -26 26 -26 -66 -71 c-150 -158 -247 -299 -271 -394 -14
-54 -27 -233 -41 -583 l-6 -153 30 0 c45 0 109 29 129 59 29 41 41 121 53 336
5 110 14 219 20 243 5 24 36 97 69 161 62 122 76 169 86 304 6 78 6 78 26 60
17 -15 205 -214 535 -565 l53 -56 127 55 c71 30 189 84 263 119 l134 65 55
-55 c38 -38 50 -56 40 -59 -7 -3 -40 -10 -71 -17 -70 -14 -158 -75 -217 -150
-75 -95 -67 -157 51 -352 122 -203 163 -305 207 -523 40 -192 78 -285 151
-368 41 -47 42 -48 25 -73 -59 -91 -210 -54 -334 82 -29 31 -58 76 -69 107
-17 44 -32 62 -103 120 -97 79 -265 192 -390 263 l-86 49 -6 80 c-3 44 -15
107 -26 139 -12 33 -21 74 -21 92 0 35 41 159 58 176 22 22 373 -480 472 -673
32 -62 57 -99 67 -99 22 0 81 38 93 60 34 64 -13 201 -134 390 -33 52 -63 97
-66 100 -3 3 -29 38 -58 79 -28 41 -83 107 -122 147 -43 44 -79 92 -93 124
l-23 52 -53 -61 c-44 -51 -56 -59 -71 -51 -65 35 -152 -19 -222 -139 -37 -62
-38 -141 -2 -254 46 -146 69 -175 157 -198 55 -13 55 -12 32 -145 -27 -150
-109 -372 -222 -597 -24 -49 -43 -93 -41 -98 2 -5 59 46 127 113 119 117 176
192 243 316 15 28 35 55 45 60 12 6 47 3 103 -9 50 -10 128 -18 188 -19 l103
0 -18 -32 c-31 -55 -203 -226 -273 -273 -88 -59 -135 -77 -304 -120 -76 -19
-164 -47 -195 -61 -50 -22 -61 -32 -90 -85 -38 -70 -36 -76 43 -113 122 -57
356 -109 551 -121 197 -12 525 29 625 78 51 25 81 64 111 149 12 32 24 57 26
54 2 -2 8 -89 12 -192 7 -170 11 -197 35 -264 62 -170 76 -230 76 -327 l0 -93
-153 0 c-195 0 -188 -4 -298 174 -34 55 -90 127 -123 161 -75 74 -216 158
-365 216 -19 8 -16 1 18 -38 259 -296 407 -524 439 -675 l9 -47 -96 48 c-174
87 -137 83 -683 79 l-483 -4 -285 -41 c-394 -58 -494 -67 -730 -66 -235 0
-356 18 -550 78 -63 19 -153 40 -200 45 -53 6 -869 10 -2181 10 -2298 0 -2178
-3 -2348 59 -242 88 -476 334 -545 572 -15 49 -16 438 -14 4189 l3 4135 25 60
c40 95 118 218 182 289 93 103 254 209 388 255 145 50 162 51 1229 51 1186 0
1304 6 1527 79 49 16 108 30 131 30 24 1 127 -10 230 -24z m1906 -391 c18 -9
62 -39 100 -66 179 -132 266 -294 308 -576 l13 -82 -46 -45 c-51 -49 -61 -81
-47 -146 23 -99 95 -214 269 -423 66 -80 120 -149 120 -155 0 -15 150 -200
222 -275 33 -33 61 -56 64 -50 3 7 29 -4 67 -30 49 -33 125 -62 372 -145 401
-134 384 -130 570 -141 223 -14 285 -19 320 -29 39 -10 77 1 121 34 39 30 41
29 96 -30 38 -40 112 -195 132 -275 71 -288 16 -586 -142 -760 -93 -104 -232
-153 -367 -129 -36 6 -65 15 -65 20 0 5 7 36 16 68 21 75 13 132 -31 216 -124
239 -393 479 -790 707 -71 41 -159 91 -195 112 -36 20 -78 47 -95 59 -224 165
-249 191 -412 437 -89 134 -159 212 -209 230 -33 13 -90 13 -115 -1 -19 -10
-17 -15 39 -122 107 -204 260 -435 366 -552 61 -68 135 -116 411 -265 490
-264 721 -466 885 -773 29 -54 50 -100 47 -103 -3 -3 7 -34 23 -68 40 -91 44
-106 26 -106 -8 0 -100 -34 -203 -76 -313 -128 -467 -174 -578 -174 -86 0
-103 7 -125 51 -58 113 -183 254 -554 625 -210 209 -414 420 -454 470 -82 102
-147 218 -163 292 -15 73 -5 116 124 499 l111 331 -62 129 c-68 142 -142 330
-166 419 -9 33 -23 124 -32 204 -8 80 -28 234 -44 344 -31 207 -37 314 -20
347 13 23 50 25 93 3z m-228 -674 c8 -16 15 -38 15 -50 0 -43 43 -228 75 -320
18 -52 53 -145 79 -207 58 -142 61 -199 15 -300 -39 -85 -123 -330 -155 -452
-19 -74 -24 -118 -24 -215 0 -109 3 -130 26 -187 95 -233 230 -406 593 -760
145 -142 211 -213 211 -228 0 -12 -12 -31 -27 -44 -71 -58 -156 -145 -181
-184 -15 -23 -33 -45 -40 -48 -18 -7 -43 11 -73 54 -109 152 -153 210 -237
311 -110 132 -481 507 -717 724 -88 81 -166 159 -173 173 -10 19 -13 66 -10
187 l3 161 72 210 c69 204 360 918 440 1080 67 137 80 149 108 95z m3179
-1884 c11 -9 48 -36 80 -61 84 -66 136 -94 250 -137 163 -61 205 -121 271
-383 55 -217 95 -462 135 -830 35 -320 40 -337 129 -441 28 -32 51 -62 51 -65
0 -14 -504 -112 -740 -144 -150 -20 -610 -33 -610 -17 0 6 13 38 29 72 38 80
46 149 32 259 -22 172 -48 247 -126 361 -80 118 -157 301 -157 374 -1 42 8 51
61 61 61 11 163 68 223 124 32 29 58 57 58 62 0 5 20 35 44 66 113 148 171
336 183 599 l6 132 30 -9 c16 -4 39 -15 51 -23z m-785 -1100 c57 -140 115
-306 109 -311 -2 -2 -31 14 -66 35 -81 49 -172 80 -236 80 -70 0 -177 17 -189
29 -16 16 3 32 99 81 106 55 135 82 180 172 19 39 37 68 39 66 2 -2 31 -70 64
-152z m-1211 19 c80 -19 115 -32 119 -44 18 -58 68 -143 103 -175 45 -42 48
-60 20 -116 -11 -22 -23 -60 -27 -85 -8 -60 -26 -69 -138 -69 -105 1 -184 26
-278 88 -113 75 -214 219 -223 318 -5 59 4 77 52 103 45 25 229 15 372 -20z
m-376 -477 c97 -97 186 -157 274 -185 l51 -16 6 -57 c6 -53 0 -91 -48 -295
-35 -147 -161 -530 -260 -785 -181 -468 -251 -670 -295 -852 -30 -121 -30
-126 -30 -400 0 -303 1 -309 64 -437 41 -85 170 -218 246 -254 30 -15 95 -37
143 -49 l88 -23 -3 -165 c-3 -154 -5 -168 -29 -215 -32 -63 -34 -63 -256 -35
-274 35 -454 81 -549 142 -78 50 -148 186 -198 390 l-27 106 4 449 c3 440 4
450 29 563 75 329 176 646 358 1120 222 576 300 846 300 1034 0 48 3 56 19 56
11 0 60 -41 113 -92z m3278 -578 c0 -5 -7 -35 -16 -67 -9 -32 -19 -71 -21 -88
-3 -16 -9 -34 -13 -40 -4 -5 -11 -35 -15 -65 -7 -63 -49 -214 -76 -277 -55
-130 -194 -297 -369 -446 -277 -235 -381 -361 -465 -559 -27 -63 -32 -69 -101
-108 -117 -67 -126 -69 -171 -34 -58 44 -114 39 -288 -26 -160 -60 -205 -66
-252 -32 -41 29 -314 327 -342 373 -36 58 -29 74 79 204 56 66 108 133 117
149 34 64 270 337 450 523 131 134 167 194 167 274 l1 57 110 6 c497 29 686
55 1105 151 69 16 100 18 100 5z m-1386 -3565 c38 -25 73 -45 78 -45 4 0 8
-16 8 -35 0 -25 -6 -37 -22 -46 -60 -33 -301 -51 -367 -28 -52 18 -40 41 67
123 120 94 136 96 236 31z M2018 9644 c-54 -23 -83 -86 -75 -165 26 -243 275
-608 465 -679 68 -26 87 -25 166 3 139 51 341 201 551 412 197 196 310 351
303 413 l-3 27 -685 2 c-597 2 -690 0 -722 -13z m1000 -217 c18 -22 -15 -71
-107 -159 -108 -104 -206 -178 -295 -223 -135 -68 -220 -42 -339 107 -81 100
-140 252 -110 281 3 4 194 7 423 7 326 0 420 -3 428 -13z M3853 7930 l-632 -5
-30 -29 c-64 -61 -64 -184 -1 -359 45 -124 112 -231 199 -318 62 -62 86 -80
129 -92 46 -14 58 -14 107 -2 168 44 465 255 731 520 142 140 204 220 204 261
0 24 -19 35 -53 32 -12 -2 -306 -5 -654 -8z m235 -244 c9 -45 -271 -267 -406
-322 -70 -29 -104 -30 -157 -4 -77 37 -165 186 -173 293 l-4 57 368 -2 c354
-3 369 -4 372 -22z M2687 5385 c-85 -30 -124 -102 -114 -213 21 -249 281 -680
593 -982 117 -114 202 -175 268 -195 52 -16 113 -1 232 54 375 176 1211 778
1555 1121 122 121 170 190 148 216 -17 21 -2624 20 -2682 -1z m2201 -229 c14
-70 -752 -633 -1183 -871 -74 -41 -171 -75 -213 -75 -65 0 -139 47 -253 160
-164 165 -346 421 -430 605 -35 77 -50 182 -28 196 8 5 460 8 1059 6 1020 -2
1045 -2 1048 -21z M1124 2241 c-150 -68 -66 -373 201 -730 243 -323 546 -530
743 -507 264 31 789 360 1175 735 287 279 387 461 280 510 -17 8 -357 11
-1191 11 -1114 0 -1169 -1 -1208 -19z m2093 -217 c10 -26 -18 -64 -117 -164
-214 -216 -607 -492 -837 -590 -154 -65 -252 -72 -363 -27 -188 77 -459 357
-584 604 -40 79 -60 146 -51 173 6 20 23 20 976 20 871 0 970 -2 976 -16z
M7035 1414 c-16 -14 -102 -74 -190 -132 -190 -127 -402 -238 -537 -281 -54
-17 -142 -45 -195 -62 -298 -95 -347 -186 -169 -314 148 -105 255 -138 451
-138 263 1 589 86 892 234 129 63 149 81 193 169 57 112 95 275 71 303 -8 10
-26 13 -61 9 -148 -14 -317 72 -381 193 -13 25 -28 45 -34 45 -5 -1 -23 -12
-40 -26z m58 -350 c50 -26 97 -64 97 -79 0 -37 -70 -78 -231 -133 -144 -50
-276 -80 -357 -83 -115 -4 -99 24 63 111 44 24 126 72 182 107 157 98 186 107
246 77z M8940 9549 c-239 -21 -487 -177 -530 -332 -20 -72 0 -91 130 -122 94
-22 138 -40 167 -67 21 -19 23 -31 24 -122 1 -107 10 -164 21 -135 18 46 139
64 196 29 48 -29 63 -72 52 -149 -18 -125 -71 -190 -162 -199 -48 -5 -49 -6
-43 -31 12 -48 53 -141 86 -197 102 -169 334 -323 487 -324 68 0 75 7 226 235
188 284 243 395 278 563 38 186 11 354 -80 493 -135 205 -364 332 -650 359
-59 5 -109 9 -112 9 -3 -1 -43 -5 -90 -10z m320 -314 c138 -36 286 -130 325
-206 12 -21 15 -69 15 -198 0 -166 -1 -172 -30 -247 -29 -73 -155 -283 -207
-345 -64 -75 -131 -71 -220 16 -71 69 -74 86 -25 176 80 146 93 263 43 372
-27 60 -46 81 -202 223 -80 73 -143 163 -132 190 5 13 46 28 108 38 59 9 261
-3 325 -19z"/>
</g>
</svg>
