<?xml version="1.0" standalone="no"?>
<!DOCTYPE svg PUBLIC "-//W3C//DTD SVG 20010904//EN"
 "http://www.w3.org/TR/2001/REC-SVG-20010904/DTD/svg10.dtd">
<svg version="1.0" xmlns="http://www.w3.org/2000/svg"
 width="2048.000000pt" height="2048.000000pt" viewBox="0 0 2048.000000 2048.000000"
 preserveAspectRatio="xMidYMid meet">
<metadata>
Created by potrace 1.13, written by Peter Selinger 2001-2015
</metadata>
<g transform="translate(0.000000,2048.000000) scale(0.192120,-0.192120)"
fill="#000000" stroke="none">
<path d="M5388 10315 c-233 -32 -476 -120 -665 -241 l-52 -33 -133 6 c-249 10
-458 -48 -665 -189 -247 -166 -426 -446 -473 -738 -6 -40 -10 -330 -10 -760 0
-747 3 -797 54 -999 87 -340 245 -626 485 -874 110 -115 219 -205 327 -274
l76 -48 -263 -5 c-243 -5 -269 -8 -320 -28 -216 -86 -354 -275 -433 -592 -31
-125 -56 -312 -56 -416 l0 -74 41 0 c33 0 40 -3 35 -15 -3 -8 -49 -279 -103
-601 l-98 -586 -786 -393 c-432 -216 -800 -405 -818 -420 -17 -15 -44 -51 -59
-79 -22 -42 -27 -64 -27 -126 0 -66 4 -82 31 -130 55 -98 170 -159 273 -147
34 5 283 124 927 446 965 481 933 463 968 570 9 25 63 336 121 691 57 355 106
655 109 667 5 35 -25 29 -82 -17 -101 -79 -135 -192 -246 -816 -85 -476 -87
-481 -288 -575 -40 -18 -382 -188 -759 -376 -467 -232 -701 -344 -733 -348
-76 -12 -124 37 -78 77 9 9 310 162 667 341 358 180 676 341 708 359 107 62
213 186 252 299 25 70 147 815 148 904 1 97 -11 137 -69 215 l-44 60 264 0
c145 0 278 3 295 6 l31 7 0 -1325 0 -1325 -132 -6 c-243 -10 -448 -84 -586
-212 -98 -91 -134 -164 -140 -285 -7 -152 46 -248 171 -309 118 -58 155 -63
497 -71 225 -6 338 -12 396 -24 45 -9 209 -55 365 -101 155 -47 285 -83 287
-80 3 3 -15 23 -39 45 -39 35 -73 55 -204 116 -28 13 -111 39 -245 78 -86 25
-179 44 -250 51 -150 14 -217 27 -299 56 -47 17 -135 47 -196 67 -92 31 -157
66 -143 76 28 21 79 28 165 22 163 -11 240 -26 433 -82 204 -59 1099 -335
1143 -353 60 -24 15 -67 -113 -106 -75 -24 -79 -30 -25 -45 25 -7 44 -15 41
-17 -2 -2 -29 3 -61 12 -35 11 -66 14 -83 9 -15 -4 -46 -8 -69 -9 -39 -1 -43
2 -43 22 0 13 -4 23 -8 23 -9 0 -528 -159 -1192 -366 -256 -80 -496 -155 -534
-166 -51 -16 -81 -33 -113 -63 -47 -46 -47 -46 -83 25 -18 35 -24 68 -28 142
-4 93 -4 98 22 130 80 100 123 122 451 228 264 85 395 169 395 252 0 19 -5 28
-15 28 -31 0 -806 -225 -845 -245 -87 -45 -170 -145 -200 -242 -80 -260 99
-523 368 -540 68 -4 90 -1 192 30 63 20 564 173 1113 341 l999 305 1096 -336
c617 -189 1120 -338 1151 -341 102 -9 222 33 302 105 197 178 182 484 -31 644
-35 26 -82 48 -148 68 -188 58 -729 211 -746 211 -27 0 -19 -45 17 -92 25 -33
54 -54 133 -93 105 -52 146 -68 383 -141 79 -25 164 -56 190 -69 54 -28 101
-69 101 -86 0 -7 10 -23 23 -37 19 -20 22 -35 22 -95 0 -71 -23 -142 -71 -215
l-15 -22 -29 34 c-48 55 103 4 -1500 501 -432 134 -927 287 -1100 340 -173 53
-436 134 -585 180 -764 237 -754 234 -960 242 -148 6 -254 -6 -308 -33 -16 -9
-31 -13 -34 -10 -12 11 61 112 109 152 80 68 221 131 350 159 198 43 219 55
244 142 l15 53 57 -6 c98 -10 201 -33 291 -65 169 -61 580 -198 810 -269 l234
-73 81 26 c45 14 217 69 383 122 166 52 380 124 476 159 169 62 270 88 388
100 l57 6 18 -57 c23 -69 58 -97 142 -113 235 -44 373 -101 463 -190 52 -52
107 -136 96 -147 -3 -2 -18 2 -34 10 -113 59 -429 47 -673 -26 -63 -19 -204
-61 -312 -93 -109 -32 -198 -61 -198 -64 0 -4 24 -12 53 -19 28 -8 179 -51
335 -97 l282 -84 134 0 c303 0 489 83 542 242 27 82 16 208 -24 291 -96 195
-368 331 -689 344 l-133 6 0 1325 0 1325 31 -7 c17 -3 150 -6 295 -6 l264 0
-41 -52 c-98 -123 -102 -186 -35 -588 70 -416 93 -525 126 -590 43 -85 123
-176 199 -225 36 -23 361 -190 721 -370 360 -180 663 -334 673 -343 25 -23 22
-66 -7 -82 -20 -10 -34 -10 -76 0 -49 12 -1532 742 -1609 793 -63 40 -87 105
-131 357 -54 307 -111 602 -135 702 -37 148 -94 245 -167 284 -37 19 -46 18
-42 -9 3 -12 51 -312 109 -667 58 -355 112 -666 120 -691 36 -107 4 -89 969
-570 644 -322 893 -441 927 -446 103 -12 218 49 273 147 27 48 31 65 31 130 0
64 -4 83 -30 128 -16 30 -42 65 -59 79 -16 14 -383 202 -815 418 l-786 393
-98 586 c-54 322 -100 593 -103 601 -5 12 2 15 35 15 l41 0 0 74 c0 103 -25
290 -56 416 -79 321 -220 509 -448 598 -32 12 -98 17 -305 21 l-263 6 76 48
c408 258 725 724 826 1212 39 185 41 243 38 865 -4 582 -5 609 -26 704 -46
206 -132 415 -236 576 -201 308 -519 555 -865 670 -252 84 -503 109 -753 75z
m523 -274 c290 -59 543 -194 749 -401 152 -152 253 -313 323 -513 l32 -92 3
-760 c4 -817 3 -829 -48 -985 -95 -286 -224 -485 -485 -745 -203 -202 -240
-267 -201 -356 5 -12 1 -18 -16 -23 -30 -8 -236 -8 -276 0 -29 6 -30 7 -20 38
6 17 15 35 19 41 5 5 9 21 9 36 0 15 5 31 10 34 6 3 10 30 10 60 0 38 4 54 15
59 8 3 15 14 15 25 0 12 17 29 48 47 26 15 61 38 79 51 18 14 33 19 35 13 5
-17 133 95 221 195 183 207 309 447 372 708 25 100 25 110 25 515 0 234 -4
412 -9 412 -5 0 -12 11 -15 24 -7 27 -70 83 -124 110 -21 11 -108 27 -229 41
-339 42 -525 81 -741 157 -339 118 -550 274 -733 539 -124 178 -205 247 -192
162 28 -187 158 -400 332 -547 305 -256 739 -410 1335 -471 82 -8 175 -15 207
-15 l59 0 0 -322 c0 -178 -5 -363 -11 -413 -29 -240 -119 -468 -262 -661 -116
-158 -340 -346 -498 -419 l-57 -25 -5 -248 c-5 -262 -11 -301 -62 -403 -59
-115 -186 -226 -310 -270 -84 -30 -230 -37 -315 -15 -194 49 -345 193 -405
386 -14 43 -18 107 -22 301 l-5 247 -85 43 c-46 24 -130 78 -186 120 -267 200
-443 472 -524 808 -25 102 -26 119 -30 496 l-4 390 83 23 c399 108 664 438
734 913 8 61 13 113 10 116 -23 24 -132 -132 -179 -258 -43 -114 -107 -242
-150 -299 -107 -144 -183 -203 -367 -292 -63 -30 -136 -74 -161 -96 -82 -73
-79 -52 -79 -554 0 -403 2 -449 19 -514 61 -228 164 -433 305 -609 104 -129
264 -282 296 -282 24 0 140 -77 140 -93 0 -8 9 -21 20 -28 16 -10 20 -23 20
-66 0 -39 4 -55 15 -60 9 -3 15 -19 15 -41 0 -19 4 -35 8 -35 5 0 13 -15 19
-34 10 -33 10 -34 -19 -40 -39 -8 -237 -8 -276 0 -29 6 -29 7 -16 33 39 74 2
134 -223 364 -122 125 -210 224 -250 283 -131 192 -220 396 -264 599 -17 84
-19 141 -19 907 l0 817 24 65 c118 327 464 555 841 556 163 0 212 12 395 100
217 103 367 149 560 174 84 10 377 -4 471 -23z m-1333 -3976 c6 -14 18 -25 27
-25 8 0 15 -5 15 -10 0 -13 32 -85 83 -190 55 -111 187 -247 292 -302 244
-126 527 -107 745 50 50 36 127 119 166 177 18 28 54 99 81 159 26 60 59 122
73 138 24 26 29 27 80 22 35 -4 97 -26 170 -59 63 -29 123 -55 133 -59 9 -3
17 -14 17 -25 0 -22 17 -25 215 -40 142 -11 205 -30 271 -80 60 -45 104 -110
146 -216 31 -77 32 -85 33 -225 l0 -145 -196 0 -195 0 -43 -29 c-54 -38 -119
-110 -148 -165 l-23 -43 0 -1164 c0 -769 3 -1164 10 -1164 6 0 10 -7 10 -15 0
-8 9 -32 20 -52 19 -35 19 -38 3 -45 -25 -9 -2455 -10 -2470 0 -9 6 -8 19 5
57 9 28 20 52 25 53 4 2 7 527 7 1167 l0 1164 -29 53 c-39 70 -79 117 -131
153 l-44 30 -205 0 -206 0 0 125 c0 105 4 136 24 195 59 177 143 275 271 320
25 9 103 20 175 25 175 13 195 17 195 39 0 12 13 22 43 30 23 7 81 33 129 58
76 39 136 57 199 62 9 0 21 -10 27 -24z m1133 -3677 l39 -11 -33 -24 c-17 -13
-43 -26 -57 -30 -14 -3 -34 -11 -45 -18 -11 -6 -29 -14 -40 -18 -136 -40 -208
-57 -246 -57 -53 0 -242 51 -296 80 -21 11 -43 20 -48 20 -6 0 -25 11 -43 24
l-32 23 33 11 c47 15 718 15 768 0z m1499 -558 c0 -5 7 -10 15 -10 8 0 15 -4
15 -10 0 -5 -7 -10 -15 -10 -8 0 -15 -6 -15 -12 0 -8 -71 -36 -167 -68 -138
-46 -178 -55 -232 -54 -105 2 -184 54 -138 93 25 20 206 62 305 70 144 12 232
12 232 1z M4569 8089 c-47 -27 -69 -66 -69 -121 0 -141 191 -191 256 -66 36
69 11 154 -56 189 -45 24 -86 24 -131 -2z M5960 8091 c-67 -35 -92 -120 -56
-189 65 -125 256 -75 256 66 0 55 -23 94 -70 121 -46 26 -85 27 -130 2z M5055
7513 c18 -100 81 -186 160 -219 25 -10 67 -17 115 -17 48 0 90 7 115 17 79 33
142 119 160 219 l7 37 -282 0 -282 0 7 -37z M4770 6988 c1 -59 95 -163 183
-203 103 -48 178 -59 377 -59 254 0 373 31 474 124 41 38 86 110 86 138 0 9
-135 12 -560 12 -441 0 -560 -3 -560 -12z"/>
</g>
</svg>
