<?xml version="1.0" standalone="no"?>
<!DOCTYPE svg PUBLIC "-//W3C//DTD SVG 20010904//EN"
 "http://www.w3.org/TR/2001/REC-SVG-20010904/DTD/svg10.dtd">
<svg version="1.0" xmlns="http://www.w3.org/2000/svg"
 width="2048.000000pt" height="2048.000000pt" viewBox="0 0 2048.000000 2048.000000"
 preserveAspectRatio="xMidYMid meet">
<metadata>
Created by potrace 1.13, written by Peter Selinger 2001-2015
</metadata>
<g transform="translate(0.000000,2048.000000) scale(0.192120,-0.192120)"
fill="#000000" stroke="none">
<path d="M5045 9490 c-1187 -64 -1818 -470 -2065 -1327 -93 -323 -150 -823
-150 -1314 l0 -126 -57 -13 c-92 -20 -326 -97 -478 -157 -555 -219 -969 -546
-1107 -875 l-30 -71 12 -100 c16 -136 50 -250 119 -392 134 -278 303 -484 851
-1040 348 -352 504 -522 617 -670 139 -183 246 -375 297 -530 27 -83 56 -234
56 -290 l0 -32 -108 -6 c-669 -38 -1267 -499 -1476 -1137 -71 -220 -86 -348
-86 -762 l0 -318 3890 0 3890 0 0 309 c0 170 -5 355 -11 412 -58 573 -401
1070 -914 1324 -212 104 -414 159 -637 172 l-108 6 0 32 c0 56 30 207 57 290
70 214 212 441 446 713 51 58 254 271 452 472 466 473 607 633 751 851 132
200 211 401 234 592 14 117 20 106 -136 257 -180 174 -367 313 -631 469 -221
130 -603 304 -820 373 l-73 23 0 180 c-1 335 -28 733 -66 975 -59 375 -184
716 -346 945 -81 115 -248 282 -363 363 -302 213 -745 349 -1280 391 -187 15
-555 21 -730 11z m691 -310 c932 -73 1444 -372 1653 -964 105 -297 153 -629
172 -1176 6 -184 15 -343 20 -352 5 -10 9 -29 9 -42 0 -13 7 -37 15 -52 11
-21 15 -61 15 -142 0 -111 0 -113 -21 -101 -20 10 -89 145 -89 174 0 8 -9 34
-19 57 -11 24 -44 120 -75 214 -119 367 -241 581 -445 776 -156 151 -329 249
-514 289 -130 29 -324 23 -450 -15 -190 -57 -335 -151 -521 -339 -107 -108
-134 -130 -158 -130 -24 0 -52 22 -156 127 -153 152 -244 222 -366 281 -156
75 -225 90 -411 90 -137 0 -171 -3 -240 -23 -396 -114 -721 -463 -883 -947
-22 -66 -64 -192 -93 -280 -77 -237 -114 -306 -147 -273 -19 19 -16 288 3 315
8 11 17 40 21 64 4 24 10 49 15 54 4 6 12 138 18 295 19 498 61 796 153 1080
72 223 162 375 312 526 275 277 730 444 1346 493 153 12 686 13 836 1z m-1167
-1496 c189 -42 385 -165 529 -334 75 -88 158 -211 198 -292 16 -32 31 -58 34
-58 3 0 23 34 44 76 74 145 208 312 324 408 183 149 364 218 572 217 234 -1
448 -98 635 -290 177 -181 284 -384 381 -726 63 -225 168 -488 244 -617 124
-207 204 -203 254 12 14 58 20 114 44 389 l7 74 38 -56 c53 -77 143 -164 183
-177 19 -7 34 -17 34 -24 0 -15 95 -56 130 -56 14 0 58 -18 98 -41 59 -32 72
-44 67 -59 -5 -14 4 -24 37 -43 355 -200 500 -295 678 -445 l105 -89 -1 -99
c-1 -86 -5 -109 -32 -179 -56 -141 -206 -366 -367 -550 -38 -44 -239 -253
-445 -465 -206 -212 -414 -430 -461 -485 -212 -246 -329 -413 -393 -560 -22
-49 -62 -139 -89 -200 -62 -139 -76 -183 -83 -271 -11 -122 15 -164 127 -205
l59 -22 -18 -31 c-26 -48 -227 -245 -322 -317 -84 -63 -236 -159 -252 -159 -4
0 -8 5 -8 11 0 6 -14 40 -31 76 -28 58 -36 67 -82 89 -38 18 -69 24 -118 24
-103 0 -200 -33 -564 -195 -116 -51 -226 -96 -246 -100 -24 -4 -69 2 -145 21
-107 28 -114 28 -409 28 -298 0 -301 0 -400 -28 -114 -32 -157 -30 -233 8 -97
49 -491 215 -571 240 -126 40 -237 33 -298 -18 -16 -13 -42 -52 -58 -87 -16
-35 -30 -66 -32 -68 -5 -8 -123 65 -221 136 -123 90 -269 225 -330 308 l-44
59 44 18 c69 29 92 44 116 78 70 102 -34 446 -227 745 -38 60 -193 264 -262
347 -81 97 -422 460 -684 728 -267 273 -321 333 -410 450 -131 174 -193 279
-248 420 -25 64 -30 93 -34 200 l-5 125 46 63 c25 34 46 65 46 70 0 11 127
140 195 198 166 143 475 305 798 419 65 23 107 43 107 51 0 8 5 14 11 14 16 0
74 57 138 136 l58 72 7 -157 c20 -441 74 -619 175 -566 100 51 260 387 370
776 48 170 84 265 141 380 231 458 640 693 1049 603z m-1455 -5444 c14 -5 72
-51 128 -101 57 -51 129 -113 161 -137 64 -51 69 -68 42 -156 -12 -40 -15
-122 -15 -436 0 -385 0 -386 24 -448 35 -89 77 -158 140 -231 62 -72 69 -97
30 -111 -16 -6 -379 -10 -965 -10 l-939 0 0 274 c0 213 3 290 16 343 98 428
442 792 889 941 190 63 423 97 489 72z m4638 -5 c185 -28 316 -69 471 -146
204 -103 392 -267 511 -448 79 -119 117 -200 157 -334 l29 -100 0 -298 0 -299
-929 0 c-580 0 -939 4 -955 10 -38 14 -32 41 20 102 55 64 110 159 141 245 23
63 23 72 23 449 0 333 -2 395 -17 450 -20 75 -17 83 48 133 24 18 93 77 153
130 59 53 118 101 130 108 29 17 97 16 218 -2z m-3512 -335 c113 -51 297 -132
408 -181 l204 -88 36 29 c72 57 94 60 442 60 349 0 370 -3 443 -61 l38 -30
412 183 c403 179 413 183 478 182 117 -1 221 -71 273 -183 20 -43 21 -64 24
-361 4 -408 -5 -459 -104 -555 -66 -65 -124 -89 -221 -93 -95 -5 -30 -31 -566
232 l-358 175 -42 -22 c-41 -21 -51 -22 -377 -22 -324 0 -336 1 -378 22 l-43
22 -137 -68 c-75 -38 -264 -130 -419 -206 l-282 -137 -83 4 c-97 4 -156 29
-224 94 -97 94 -106 147 -102 554 3 295 4 318 24 361 41 87 113 151 204 176
82 23 129 12 350 -87z m1027 -1026 c193 -4 326 -2 391 5 124 15 166 3 348 -97
230 -126 250 -143 177 -159 -50 -11 -1657 -10 -1706 0 -52 11 -46 34 18 70
291 166 368 200 435 192 25 -3 176 -8 337 -11z M4135 6510 c-49 -12 -99 -36
-144 -68 -51 -37 -73 -64 -106 -130 -25 -49 -25 -53 -25 -290 l0 -240 30 -57
c16 -31 39 -68 50 -82 124 -158 417 -164 555 -11 86 95 90 111 93 377 3 257 1
270 -59 358 -75 108 -263 176 -394 143z m203 -96 c28 -14 69 -45 90 -69 61
-69 72 -119 72 -319 0 -205 -10 -251 -72 -321 -132 -150 -364 -120 -461 60
-21 38 -22 54 -22 260 0 207 1 222 22 260 74 137 240 195 371 129z M6330 6501
c-110 -35 -195 -102 -240 -190 -19 -37 -20 -58 -20 -288 0 -285 2 -289 88
-384 35 -38 71 -65 114 -85 56 -25 75 -28 163 -29 82 0 111 4 160 24 71 28
149 102 186 176 23 48 24 58 27 292 3 224 2 245 -17 280 -56 109 -124 167
-240 203 -77 24 -148 25 -221 1z m220 -82 c55 -25 114 -80 143 -134 21 -38 22
-53 22 -260 0 -253 -3 -266 -93 -347 -115 -103 -286 -91 -390 27 -65 74 -74
119 -70 343 3 173 5 190 26 232 55 105 142 160 252 160 44 0 80 -7 110 -21z
M5050 5249 c-82 -34 -134 -111 -134 -199 1 -63 18 -102 65 -148 54 -53 104
-62 349 -62 245 0 295 9 349 62 47 46 64 85 65 148 1 70 -32 132 -92 175 l-44
30 -266 2 c-162 1 -277 -2 -292 -8z M6173 4252 c-17 -9 -51 -29 -75 -44 -133
-83 -525 -138 -877 -124 -335 13 -566 61 -691 141 -45 29 -64 35 -108 35 -68
0 -119 -27 -156 -83 -24 -36 -27 -50 -24 -102 3 -54 9 -68 61 -141 56 -80 57
-83 57 -151 0 -68 1 -71 146 -368 80 -165 157 -314 170 -332 46 -61 147 -68
201 -14 16 15 59 97 98 185 l70 157 60 -8 c77 -10 373 -10 445 0 l56 8 69
-157 c39 -88 82 -170 98 -185 52 -52 137 -50 188 4 16 18 97 169 179 336 146
296 150 306 150 368 0 68 0 68 84 181 32 43 40 64 44 107 6 68 -1 96 -34 135
-55 65 -147 88 -211 52z m-1380 -343 c72 -17 143 -37 158 -44 42 -22 79 -73
79 -108 0 -35 -241 -590 -251 -579 -4 4 -68 134 -143 290 -150 312 -157 338
-113 402 25 37 79 70 116 70 13 0 82 -14 154 -31z m1274 15 c19 -9 45 -33 59
-53 44 -65 37 -93 -87 -347 -61 -126 -125 -258 -141 -294 l-30 -65 -14 30
c-112 242 -234 534 -234 561 0 39 44 95 88 113 40 17 262 69 295 70 16 1 45
-6 64 -15z m-689 -176 c1 -77 -1 -128 -7 -128 -5 0 -11 -10 -13 -22 -2 -19 -9
-23 -38 -23 -29 0 -36 4 -38 23 -2 12 -8 22 -13 22 -5 0 -9 57 -9 130 l0 131
58 -3 57 -3 3 -127z M4116 3158 c9 -56 22 -74 103 -146 276 -246 579 -359
1012 -378 163 -7 361 6 503 32 289 53 547 186 739 382 65 65 68 71 65 110 l-3
41 -98 -63 c-334 -217 -709 -326 -1110 -326 -403 1 -772 110 -1113 331 -50 32
-94 59 -98 59 -3 0 -3 -19 0 -42z M4581 1658 c-43 -114 -39 -296 11 -447 l20
-64 30 49 c62 101 80 109 168 74 27 -11 50 -18 50 -15 0 2 -7 34 -16 72 -16
69 -16 238 1 275 5 13 -9 8 -50 -17 -78 -46 -97 -43 -147 25 -23 30 -45 59
-50 64 -4 5 -12 -2 -17 -16z M6028 1620 c-38 -53 -47 -59 -78 -60 -20 0 -52
11 -75 25 -52 32 -55 31 -44 -7 14 -50 11 -185 -6 -257 -9 -35 -14 -65 -13
-67 2 -1 30 6 62 17 76 26 92 19 141 -62 37 -60 38 -61 50 -38 29 57 49 166
49 279 1 109 -17 230 -35 230 -4 0 -27 -27 -51 -60z"/>
</g>
</svg>
