<?xml version="1.0" standalone="no"?>
<!DOCTYPE svg PUBLIC "-//W3C//DTD SVG 20010904//EN"
 "http://www.w3.org/TR/2001/REC-SVG-20010904/DTD/svg10.dtd">
<svg version="1.0" xmlns="http://www.w3.org/2000/svg"
 width="2048.000000pt" height="2048.000000pt" viewBox="0 0 2048.000000 2048.000000"
 preserveAspectRatio="xMidYMid meet">
<metadata>
Created by potrace 1.13, written by Peter Selinger 2001-2015
</metadata>
<g transform="translate(0.000000,2048.000000) scale(0.192120,-0.192120)"
fill="#000000" stroke="none">
<path d="M5320 9763 c-192 -19 -425 -71 -605 -133 -150 -52 -429 -189 -557
-273 -93 -61 -102 -65 -174 -71 -240 -22 -525 -120 -731 -252 -318 -203 -566
-521 -682 -874 -65 -199 -74 -267 -79 -585 -11 -747 81 -1154 337 -1492 33
-43 75 -94 95 -112 l36 -35 0 -255 c0 -141 5 -310 11 -376 62 -716 445 -1362
1044 -1763 55 -37 121 -78 146 -91 l46 -24 7 -266 c3 -145 8 -267 11 -269 6
-7 64 38 75 58 7 13 7 34 1 62 -6 23 -9 44 -7 45 1 2 56 -15 122 -38 487 -165
959 -207 1404 -125 155 29 262 59 429 119 l118 43 -1 -59 c-1 -54 1 -61 29
-83 17 -13 33 -24 36 -24 7 0 19 260 19 420 l0 118 32 13 c52 21 273 173 362
247 459 388 744 899 832 1497 8 55 17 186 21 290 l6 190 59 95 c205 331 330
671 389 1065 22 140 19 569 -5 720 -42 274 -120 523 -241 770 -393 802 -1170
1347 -2057 1444 -89 10 -445 13 -528 4z m520 -298 c117 -13 261 -38 301 -50
12 -4 18 0 21 14 3 18 12 16 148 -28 468 -154 854 -429 1140 -816 217 -292
350 -588 420 -933 30 -146 30 -150 30 -487 0 -323 -1 -345 -23 -437 -26 -103
-48 -148 -74 -148 -9 0 -35 16 -59 35 -77 63 -93 66 -399 81 -330 15 -382 19
-620 45 -858 95 -1480 323 -1831 673 -135 135 -187 217 -339 535 -62 130 -135
211 -190 211 -28 0 -46 -9 -81 -42 -79 -73 -127 -170 -205 -413 -86 -268 -142
-399 -227 -530 -84 -131 -140 -195 -230 -267 -132 -105 -270 -163 -479 -203
-117 -23 -162 -40 -228 -84 -16 -12 -36 -21 -44 -21 -37 0 -67 75 -96 244 -12
72 -15 186 -15 602 0 336 3 515 10 519 6 4 8 10 5 15 -9 15 53 191 99 283 126
244 332 444 596 577 148 74 271 113 482 151 131 23 190 46 334 129 351 203
677 314 1019 348 143 15 399 13 535 -3z m-1449 -1540 c36 -219 156 -453 329
-637 481 -515 1401 -795 2708 -825 l272 -6 0 -346 c0 -190 -3 -363 -6 -383 -5
-28 -12 -38 -32 -43 -31 -8 -92 -67 -92 -89 0 -9 -4 -16 -10 -16 -6 0 -10 -38
-10 -94 0 -52 -4 -106 -10 -120 -5 -14 -14 -63 -20 -108 -6 -46 -15 -114 -20
-153 -31 -242 -88 -406 -209 -605 -22 -36 -55 -92 -75 -125 -19 -33 -57 -90
-83 -127 -26 -36 -75 -104 -107 -149 -33 -46 -78 -103 -100 -128 -77 -84 -229
-212 -335 -282 -172 -115 -220 -172 -221 -265 l0 -41 -97 -45 c-561 -262
-1327 -262 -1885 -1 l-98 46 0 39 c0 89 -44 144 -225 278 -189 140 -267 212
-404 373 -153 178 -222 282 -315 467 -160 321 -222 602 -233 1052 -3 142 -9
255 -13 253 -4 -3 -10 9 -14 26 -3 17 -10 28 -15 25 -4 -3 -16 3 -26 14 -9 10
-30 22 -45 25 -38 8 -40 25 -40 295 l0 227 103 6 c600 35 1029 456 1221 1197
22 86 53 258 72 400 l8 55 8 -60 c4 -33 13 -91 19 -130z m1784 -4795 c-10 -11
-20 -18 -23 -15 -3 3 -14 -2 -24 -12 -10 -9 -18 -13 -18 -9 0 4 -6 4 -12 -1
-7 -4 -15 -8 -18 -9 -3 0 -18 -6 -34 -13 -16 -6 -31 -9 -34 -6 -3 2 -11 0 -17
-5 -7 -6 -25 -11 -41 -12 -16 -1 -33 -4 -39 -7 -10 -6 -30 -8 -110 -15 -22 -2
-51 -8 -65 -14 -14 -5 -53 -9 -88 -8 -34 1 -62 -2 -62 -6 0 -8 -99 -3 -107 5
-3 4 54 14 127 22 35 4 87 13 144 25 26 5 52 7 57 4 5 -3 9 -1 9 4 0 5 19 13
43 17 23 4 47 9 52 11 6 2 19 5 30 8 11 2 22 5 25 7 3 1 10 3 15 4 6 1 22 7
37 13 15 6 35 9 43 6 8 -4 15 -1 15 5 0 6 7 8 15 5 8 -4 15 -1 15 5 0 6 6 8
13 5 7 -2 24 -1 38 4 32 13 36 7 14 -18z m-1555 -20 c0 -5 -4 -10 -10 -10 -5
0 -10 5 -10 10 0 6 5 10 10 10 6 0 10 -4 10 -10z M4105 6136 c-68 -31 -130
-101 -149 -167 -23 -75 -22 -374 0 -449 21 -72 98 -150 173 -175 133 -44 276
17 338 143 28 57 28 58 28 262 0 203 0 206 -27 255 -54 102 -138 154 -248 155
-47 0 -79 -7 -115 -24z M6330 6139 c-58 -26 -105 -72 -138 -134 -27 -49 -27
-52 -27 -255 0 -204 0 -205 28 -262 85 -174 306 -211 442 -74 74 75 85 117 85
330 0 207 -11 256 -73 323 -82 90 -213 119 -317 72z M4859 5033 c-6 -42 18
-145 51 -220 66 -145 197 -233 373 -249 208 -18 382 73 461 240 32 68 52 136
58 201 l3 30 -472 3 c-260 1 -473 -1 -474 -5z M4384 4058 c32 -167 221 -325
459 -387 281 -73 693 -73 974 0 238 62 427 220 459 387 l7 32 -953 0 -952 0 6
-32z M9950 7218 c-122 -167 -363 -330 -755 -511 -88 -41 -308 -139 -490 -217
-337 -145 -575 -254 -575 -264 0 -8 50 -56 60 -57 6 -1 14 -2 19 -3 5 0 12 -4
16 -8 3 -3 22 -2 42 4 19 5 37 7 40 5 8 -9 137 39 337 124 650 276 885 390
1116 543 91 60 96 62 133 45 32 -15 41 -60 67 -344 17 -189 20 -300 20 -791 0
-445 -3 -604 -15 -720 -93 -888 -341 -1652 -708 -2179 -80 -115 -224 -302
-356 -460 -56 -68 -98 -130 -110 -161 -22 -59 -39 -194 -24 -194 26 0 351 383
529 624 232 312 438 729 568 1147 259 837 346 1919 236 2932 -30 270 -77 528
-100 542 -3 2 -26 -23 -50 -57z M649 7243 c-66 -174 -126 -707 -136 -1223 -26
-1321 250 -2479 778 -3255 124 -182 460 -595 573 -704 l36 -35 0 52 c0 65 -17
147 -41 192 -10 19 -88 122 -173 229 -267 333 -367 483 -496 741 -239 475
-389 1008 -475 1685 -25 198 -25 206 -25 945 0 586 3 768 15 852 14 110 28
173 44 197 15 23 61 15 109 -19 359 -254 691 -426 1297 -675 309 -127 399
-140 437 -65 l18 35 -53 26 c-28 15 -199 90 -379 168 -635 274 -861 390 -1147
588 -105 74 -246 190 -306 252 -46 48 -62 51 -76 14z M1373 5653 c-41 -15 19
-265 134 -558 232 -591 635 -1172 1077 -1552 234 -201 347 -248 391 -163 20
39 19 79 -6 153 -38 113 -83 172 -300 389 -424 426 -607 666 -919 1208 -238
414 -329 540 -377 523z M9222 5614 c-66 -69 -137 -179 -311 -482 -318 -553
-499 -790 -931 -1222 -206 -205 -251 -264 -289 -377 -25 -74 -26 -114 -6 -152
16 -31 33 -41 73 -41 120 1 518 354 793 705 293 373 561 876 688 1290 62 203
75 291 46 315 -13 11 -23 6 -63 -36z M3115 2819 c-281 -24 -518 -84 -697 -176
-114 -58 -141 -80 -135 -107 3 -12 127 -325 276 -696 l271 -674 0 -398 c0
-225 -4 -398 -9 -398 -8 0 -160 104 -188 129 -7 6 -19 11 -28 11 -8 0 -15 5
-15 10 0 6 -100 10 -280 10 -242 0 -280 2 -280 15 0 11 -11 15 -40 15 l-40 0
0 501 0 500 26 77 c14 42 76 176 138 298 105 204 144 298 161 382 7 33 6 33
-16 22 -35 -19 -195 -178 -258 -255 -113 -140 -197 -309 -247 -496 l-28 -104
-4 -577 -3 -578 3610 0 3611 0 0 533 c0 594 -4 641 -66 827 -61 184 -153 334
-297 486 -87 92 -185 179 -193 171 -7 -6 34 -155 55 -203 11 -25 35 -66 52
-92 58 -84 166 -305 203 -413 l36 -106 0 -487 c0 -479 0 -486 -20 -486 -11 0
-20 -7 -20 -15 0 -13 -37 -15 -275 -15 -177 0 -275 -4 -275 -10 0 -5 -20 -10
-45 -10 -25 0 -45 -4 -45 -10 0 -5 -6 -10 -14 -10 -8 0 -54 -27 -103 -60 -48
-33 -91 -60 -95 -60 -5 0 -8 179 -8 398 l0 398 275 686 c151 378 275 691 275
697 0 26 -162 116 -295 163 -95 34 -266 74 -405 94 -93 14 -223 18 -677 21
l-562 5 -552 -829 c-303 -455 -555 -828 -559 -828 -5 0 -256 372 -559 828
l-550 827 -508 -1 c-279 -1 -548 -5 -598 -10z m1031 -285 c21 -15 45 -34 52
-43 7 -9 206 -305 442 -657 460 -687 523 -770 626 -820 49 -24 59 -26 92 -15
57 17 111 60 175 136 32 39 252 359 488 711 235 353 444 655 464 672 19 17 50
34 69 37 18 4 254 5 522 2 501 -4 556 -8 764 -52 88 -18 199 -53 219 -69 10
-8 12 -28 8 -81 -4 -61 -24 -120 -164 -470 -161 -404 -241 -621 -262 -708 -6
-27 -11 -141 -11 -272 0 -218 -1 -225 -20 -225 -17 0 -20 -7 -20 -45 l0 -45
-2270 0 -2270 0 0 45 c0 33 -4 45 -15 45 -13 0 -15 31 -15 220 0 296 5 277
-228 860 -219 549 -231 586 -217 649 6 30 37 44 176 80 227 58 357 68 900 70
l456 1 39 -26z"/>
</g>
</svg>
