<?xml version="1.0" standalone="no"?>
<!DOCTYPE svg PUBLIC "-//W3C//DTD SVG 20010904//EN"
 "http://www.w3.org/TR/2001/REC-SVG-20010904/DTD/svg10.dtd">
<svg version="1.0" xmlns="http://www.w3.org/2000/svg"
 width="2048.000000pt" height="2048.000000pt" viewBox="0 0 2048.000000 2048.000000"
 preserveAspectRatio="xMidYMid meet">
<metadata>
Created by potrace 1.13, written by Peter Selinger 2001-2015
</metadata>
<g transform="translate(0.000000,2048.000000) scale(0.192120,-0.192120)"
fill="#000000" stroke="none">
<path d="M1243 10315 c-464 -84 -837 -469 -903 -930 -8 -59 -10 -1151 -8
-4105 l3 -4025 22 -77 c121 -426 407 -709 826 -821 l82 -22 4085 0 4084 0 8
40 c11 49 -5 215 -32 343 -48 227 -172 520 -304 716 l-66 100 16 103 c17 104
12 192 -11 200 -5 1 -19 -14 -30 -35 -12 -23 -35 -44 -59 -56 -34 -17 -45 -17
-89 -7 -103 24 -231 136 -264 233 -20 56 -57 92 -217 207 -88 64 -343 221
-358 221 -4 0 -8 -22 -8 -49 0 -156 -92 -435 -240 -732 -42 -83 -46 -96 -32
-105 13 -9 11 -12 -14 -22 -32 -13 -101 -123 -89 -142 38 -61 368 -149 620
-165 197 -12 525 29 625 78 51 25 81 64 111 149 12 32 24 57 26 54 2 -2 8 -89
12 -192 7 -170 11 -197 35 -264 62 -170 76 -230 76 -327 l0 -93 -153 0 c-195
0 -188 -4 -298 174 -34 55 -90 127 -123 161 -75 74 -216 158 -365 216 -19 8
-16 1 18 -38 259 -296 407 -524 439 -675 l9 -47 -96 48 c-174 87 -137 83 -683
79 l-483 -4 -285 -41 c-394 -58 -494 -67 -730 -66 -235 0 -356 18 -550 78 -63
19 -153 40 -200 45 -53 6 -869 10 -2181 10 -2298 0 -2178 -3 -2348 59 -242 88
-476 334 -545 572 -15 49 -16 438 -14 4189 l3 4135 25 60 c40 95 118 218 182
289 93 103 254 209 388 255 145 50 162 51 1229 51 1188 0 1301 6 1533 80 51
17 110 30 130 30 91 0 656 -84 948 -141 487 -96 777 -191 858 -284 37 -42 38
-52 13 -165 -35 -154 -116 -370 -331 -880 -298 -709 -395 -1000 -407 -1231 -8
-151 4 -182 110 -285 45 -44 141 -134 212 -199 195 -178 484 -465 599 -595
285 -323 406 -545 406 -744 0 -160 -48 -321 -257 -871 -356 -934 -463 -1365
-463 -1868 0 -279 27 -465 100 -688 86 -263 139 -335 305 -414 157 -74 296
-104 701 -150 126 -14 232 -30 237 -34 4 -4 -6 -25 -23 -46 -17 -21 -33 -49
-36 -62 -7 -27 10 -75 35 -97 19 -17 21 -11 87 290 30 136 66 434 89 730 l6
81 -113 22 c-167 33 -307 69 -355 92 -39 19 -42 23 -61 97 -73 275 -48 553 83
932 20 58 93 251 162 430 212 551 324 913 402 1306 16 84 33 175 37 204 8 63
6 62 184 84 222 27 417 38 560 32 74 -3 169 -2 210 2 l75 7 -50 36 c-127 92
-195 109 -451 109 -169 0 -234 6 -234 20 0 7 4 9 204 89 187 75 220 94 256
145 32 48 72 134 68 147 -2 4 -68 -19 -148 -52 -187 -77 -355 -135 -455 -160
-80 -19 -210 -25 -231 -11 -5 4 -35 46 -66 93 -86 133 -209 268 -569 624 -369
365 -457 465 -526 603 -43 84 -47 100 -46 160 0 75 39 206 166 567 l73 209
-66 141 c-131 274 -174 408 -196 614 -8 80 -28 236 -44 347 -57 387 -40 423
138 304 152 -101 242 -218 295 -381 14 -41 37 -145 52 -229 14 -85 30 -161 35
-169 9 -16 182 495 229 680 33 130 31 163 -13 227 -104 151 -501 296 -1056
387 l-154 25 -2161 -1 c-1726 -1 -2174 -3 -2232 -14z m4686 -1244 c6 -20 19
-74 31 -121 27 -110 55 -195 98 -300 82 -203 82 -202 82 -274 0 -61 -9 -97
-66 -261 -98 -286 -114 -354 -114 -499 0 -109 3 -130 26 -187 94 -231 231
-408 578 -745 136 -133 196 -198 196 -213 0 -15 -34 -56 -97 -119 -54 -54
-109 -110 -122 -125 -23 -27 -24 -27 -49 -11 -30 20 -55 48 -119 136 -150 205
-494 567 -858 902 -88 81 -166 159 -173 173 -10 19 -13 66 -10 187 l3 161 72
211 c108 316 423 1064 469 1116 22 24 42 12 53 -31z m1211 -2876 c172 -42 197
-52 205 -83 3 -15 17 -46 31 -69 19 -34 35 -46 84 -65 33 -12 60 -28 60 -34 0
-6 -22 -33 -49 -60 -40 -40 -50 -58 -56 -97 -7 -46 -8 -47 -59 -62 -122 -37
-238 -25 -364 37 -133 65 -268 236 -280 356 -4 41 -1 51 23 74 35 35 48 37
185 33 79 -3 148 -12 220 -30z m-386 -523 c87 -84 168 -137 264 -172 63 -23
72 -36 72 -111 0 -110 -152 -614 -305 -1009 -181 -468 -251 -670 -295 -852
-30 -121 -30 -126 -30 -400 0 -303 1 -310 63 -436 39 -78 147 -196 218 -239
30 -18 91 -43 137 -55 l83 -23 -3 -170 c-3 -154 -5 -174 -26 -217 -13 -26 -31
-50 -41 -53 -21 -6 -299 28 -416 51 -115 23 -253 69 -306 103 -83 53 -151 184
-203 393 l-27 106 4 449 c3 440 4 450 29 563 75 329 176 646 358 1120 191 496
252 689 286 893 21 133 23 137 41 137 9 0 53 -35 97 -78z m1526 -3672 c19 -6
82 -14 139 -20 57 -5 106 -12 109 -14 19 -20 -198 -240 -293 -298 -80 -48
-115 -61 -275 -102 -74 -19 -144 -37 -155 -41 -11 -5 34 48 101 116 114 117
164 181 227 291 43 75 74 89 147 68z m315 -408 c74 -43 123 -77 134 -94 30
-49 -91 -88 -270 -88 -90 0 -139 14 -139 41 0 16 115 113 175 147 28 16 65 14
100 -6z M2018 9644 c-54 -23 -83 -86 -75 -165 26 -243 275 -608 465 -679 68
-26 87 -25 166 3 139 51 341 201 551 412 197 196 310 351 303 413 l-3 27 -685
2 c-597 2 -690 0 -722 -13z m1000 -217 c18 -22 -15 -71 -107 -159 -108 -104
-206 -178 -295 -223 -135 -68 -220 -42 -339 107 -81 100 -140 252 -110 281 3
4 194 7 423 7 326 0 420 -3 428 -13z M8940 9549 c-195 -17 -389 -117 -486
-248 -44 -60 -61 -113 -46 -145 11 -25 17 -28 191 -77 49 -14 84 -30 103 -49
27 -27 28 -33 29 -127 1 -104 10 -161 21 -132 18 46 139 64 196 29 48 -29 63
-72 52 -149 -18 -125 -71 -190 -162 -199 -48 -5 -49 -6 -43 -31 12 -48 53
-141 86 -197 102 -169 334 -323 487 -324 68 0 75 7 226 235 188 284 243 395
278 563 38 186 11 354 -80 493 -135 205 -364 332 -650 359 -59 5 -109 9 -112
9 -3 -1 -43 -5 -90 -10z m233 -309 c160 -23 317 -100 384 -189 l33 -43 0 -176
0 -177 -33 -75 c-66 -150 -188 -330 -238 -350 -43 -18 -98 1 -148 51 -50 48
-51 71 -11 148 49 93 70 167 70 248 0 112 -29 160 -199 334 -212 216 -211 233
4 237 39 1 101 -3 138 -8z M8382 8959 c-85 -215 -123 -563 -79 -729 50 -186
136 -265 310 -286 l57 -6 0 -57 0 -56 20 30 c25 37 26 87 3 127 -10 16 -48 49
-84 74 -87 58 -132 108 -159 180 -21 57 -21 68 -15 269 11 317 8 392 -13 454
l-18 54 -22 -54z M6626 8951 c-46 -88 4 -193 200 -421 123 -144 175 -208 193
-240 54 -95 187 -222 286 -272 42 -22 549 -195 670 -229 66 -19 320 -40 490
-40 60 0 141 17 151 32 9 15 -78 69 -143 89 -91 28 -233 43 -328 35 -79 -6
-84 -5 -185 35 -115 46 -477 168 -580 195 -58 15 -69 22 -105 69 -22 28 -134
159 -250 291 -252 289 -268 308 -333 408 l-51 78 -15 -30z M6507 8243 c-18
-18 218 -395 330 -528 75 -89 127 -125 402 -275 124 -67 254 -140 290 -163
308 -193 501 -384 627 -622 l48 -89 14 40 c41 113 6 217 -126 376 -162 193
-362 341 -757 558 -93 51 -174 97 -180 101 -35 29 -100 78 -135 104 -56 40
-165 171 -257 308 -84 125 -116 162 -155 183 -28 14 -90 19 -101 7z M3853
7930 l-632 -5 -30 -29 c-64 -61 -64 -184 -1 -359 45 -124 112 -231 199 -318
62 -62 86 -80 129 -92 46 -14 58 -14 107 -2 168 44 465 255 731 520 142 140
204 220 204 261 0 24 -19 35 -53 32 -12 -2 -306 -5 -654 -8z m235 -244 c9 -45
-271 -267 -406 -322 -70 -29 -104 -30 -157 -4 -77 37 -165 186 -173 293 l-4
57 368 -2 c354 -3 369 -4 372 -22z M9401 7736 c-29 -46 -27 -93 7 -147 33 -51
154 -167 213 -204 49 -31 89 -47 89 -36 0 5 -23 44 -51 86 -57 88 -140 179
-201 221 -37 26 -39 30 -36 71 2 24 2 43 1 43 -1 0 -11 -15 -22 -34z M8707
7700 c207 -211 249 -677 88 -963 -113 -201 -325 -279 -548 -202 -23 8 -42 13
-44 12 -1 -2 41 -108 93 -237 193 -476 271 -778 294 -1145 5 -82 12 -159 15
-170 4 -16 -9 -29 -62 -65 -97 -64 -287 -258 -448 -455 -249 -305 -377 -459
-450 -540 l-72 -80 41 -46 c34 -39 347 -372 568 -606 l58 -62 118 51 c64 27
182 81 261 119 l143 69 91 -85 c50 -47 93 -84 97 -83 4 2 95 104 201 228 107
124 217 252 244 284 28 32 95 93 150 136 231 178 373 325 497 511 118 177 171
355 170 569 -1 73 -7 150 -16 185 -8 33 -12 63 -10 67 8 12 -18 172 -28 179
-4 3 -19 120 -33 260 -86 876 -154 1199 -327 1558 -43 87 -63 119 -69 110 -5
-8 -9 -21 -9 -30 0 -21 -39 -55 -71 -63 -65 -15 -205 36 -308 113 -30 22 -123
105 -207 184 -84 80 -179 165 -211 189 -58 45 -58 45 -162 53 l-105 7 51 -52z
m511 -543 c119 -77 158 -97 263 -132 121 -41 158 -71 199 -160 67 -145 137
-515 190 -1000 35 -320 40 -337 129 -441 28 -32 51 -62 51 -65 0 -14 -504
-112 -740 -144 -150 -20 -610 -33 -610 -17 0 6 13 38 29 72 17 35 33 87 37
117 13 107 -26 309 -89 458 -46 107 -124 322 -132 362 -8 38 1 73 18 73 24 0
143 62 187 98 63 51 70 59 70 74 0 8 16 29 35 48 45 43 119 154 149 223 48
108 96 321 96 426 0 38 6 44 43 50 4 0 38 -19 75 -42z m822 -2017 c0 -5 -7
-35 -16 -67 -9 -32 -19 -71 -21 -88 -3 -16 -9 -34 -13 -40 -4 -5 -11 -35 -15
-65 -7 -63 -49 -214 -76 -277 -55 -130 -194 -297 -369 -446 -273 -232 -376
-355 -460 -547 -36 -83 -37 -83 -133 -135 l-67 -36 -43 40 c-78 75 -115 74
-324 -10 -136 -55 -180 -61 -230 -36 -26 14 -246 247 -336 355 -46 57 -40 73
91 235 64 81 136 173 159 205 55 77 233 278 370 419 131 134 167 193 167 274
l1 57 110 6 c497 29 686 55 1105 151 69 16 100 18 100 5z M2687 5385 c-85 -30
-124 -102 -114 -213 21 -249 281 -680 593 -982 117 -114 202 -175 268 -195 52
-16 113 -1 232 54 375 176 1211 778 1555 1121 122 121 170 190 148 216 -17 21
-2624 20 -2682 -1z m2201 -229 c14 -70 -752 -633 -1183 -871 -74 -41 -171 -75
-213 -75 -65 0 -139 47 -253 160 -164 165 -346 421 -430 605 -35 77 -50 182
-28 196 8 5 460 8 1059 6 1020 -2 1045 -2 1048 -21z M7465 3625 c-95 -116
-151 -201 -170 -256 -23 -68 -34 -187 -42 -447 l-6 -233 29 7 c78 18 99 80
114 334 11 209 23 262 76 358 74 132 77 143 82 235 2 48 0 87 -4 87 -5 0 -41
-38 -79 -85z M8743 3190 c-60 -27 -119 -76 -153 -129 -54 -81 -42 -132 85
-340 71 -117 90 -156 120 -240 27 -74 75 -255 75 -282 0 -18 25 -106 42 -149
24 -60 53 -108 89 -149 34 -38 40 -41 46 -25 5 11 8 87 7 169 -1 359 -129 699
-344 921 l-50 52 48 41 c27 22 70 65 96 96 l48 55 -34 0 c-18 0 -52 -9 -75
-20z M8132 3036 c-32 -37 -92 -121 -92 -130 0 -3 51 -74 113 -158 145 -196
230 -320 302 -444 32 -55 60 -101 61 -103 7 -8 65 23 74 40 23 43 11 111 -39
214 -49 102 -185 302 -264 391 -52 58 -69 89 -92 167 -9 31 -20 57 -25 57 -4
0 -21 -15 -38 -34z M7922 2840 c-23 -17 -42 -37 -42 -45 0 -8 -4 -15 -10 -15
-6 0 -10 -30 -10 -69 0 -133 52 -230 139 -256 24 -7 24 -7 18 51 -3 33 -15 86
-27 118 -28 82 -25 134 15 229 12 28 -36 21 -83 -13z M1124 2241 c-150 -68
-66 -373 201 -730 243 -323 546 -530 743 -507 264 31 789 360 1175 735 287
279 387 461 280 510 -17 8 -357 11 -1191 11 -1114 0 -1169 -1 -1208 -19z
m2093 -217 c10 -26 -18 -64 -117 -164 -214 -216 -607 -492 -837 -590 -154 -65
-252 -72 -363 -27 -188 77 -459 357 -584 604 -40 79 -60 146 -51 173 6 20 23
20 976 20 871 0 970 -2 976 -16z M7035 1414 c-16 -14 -102 -74 -190 -132 -190
-127 -402 -238 -537 -281 -54 -17 -142 -45 -195 -62 -298 -95 -347 -186 -169
-314 148 -105 255 -138 451 -138 263 1 589 86 892 234 85 42 130 70 147 92 59
80 118 240 120 326 l1 56 -90 6 c-106 7 -134 14 -198 46 -64 32 -129 92 -158
148 -13 25 -28 45 -34 45 -5 -1 -23 -12 -40 -26z m51 -366 c52 -26 84 -53 84
-73 0 -37 -75 -79 -240 -133 -186 -62 -374 -92 -401 -65 -13 13 31 48 101 83
25 13 101 57 170 98 137 83 195 111 224 112 10 0 38 -10 62 -22z M7596 1273
c-9 -18 -12 -33 -7 -33 13 0 33 38 28 53 -2 7 -11 -3 -21 -20z"/>
</g>
</svg>
