<?xml version="1.0" standalone="no"?>
<!DOCTYPE svg PUBLIC "-//W3C//DTD SVG 20010904//EN"
 "http://www.w3.org/TR/2001/REC-SVG-20010904/DTD/svg10.dtd">
<svg version="1.0" xmlns="http://www.w3.org/2000/svg"
 width="2048.000000pt" height="2048.000000pt" viewBox="0 0 2048.000000 2048.000000"
 preserveAspectRatio="xMidYMid meet">
<metadata>
Created by potrace 1.13, written by Peter Selinger 2001-2015
</metadata>
<g transform="translate(0.000000,2048.000000) scale(0.192120,-0.192120)"
fill="#000000" stroke="none">
<path d="M5388 10315 c-233 -32 -476 -120 -665 -241 l-52 -33 -133 6 c-151 6
-260 -8 -393 -53 -381 -127 -672 -463 -740 -851 -22 -125 -22 -1429 0 -1582
78 -551 385 -1039 845 -1345 l85 -56 219 2 219 3 0 195 0 195 -86 45 c-367
191 -625 533 -720 955 -17 79 -20 135 -24 475 l-5 385 74 19 c83 21 234 88
303 136 228 157 391 441 440 770 8 52 15 109 16 125 1 20 6 8 15 -35 93 -426
456 -737 1057 -906 206 -58 522 -108 760 -121 l119 -6 -5 -376 c-5 -408 -10
-452 -71 -636 -110 -328 -364 -625 -671 -785 l-88 -45 0 -195 0 -195 219 -3
219 -2 85 56 c120 80 201 147 316 266 255 262 424 577 503 936 39 177 43 254
39 877 -4 660 -4 654 -73 874 -151 476 -524 871 -994 1052 -244 94 -551 129
-813 94z m442 -296 c525 -71 978 -442 1124 -921 l26 -84 0 -770 0 -770 -24
-80 c-13 -43 -33 -103 -45 -132 -11 -29 -21 -63 -21 -75 0 -13 -22 -65 -48
-117 -108 -214 -220 -354 -430 -538 -101 -88 -136 -109 -193 -118 -78 -13 -57
22 75 126 81 63 230 222 299 318 122 170 238 411 286 594 20 73 21 105 21 511
l0 434 -30 41 c-45 62 -129 139 -178 163 -32 16 -104 29 -270 50 -432 55 -721
135 -957 264 -191 104 -293 197 -433 394 -137 193 -212 261 -269 246 -14 -3
-51 -31 -83 -60 -61 -59 -121 -167 -196 -355 -48 -119 -137 -253 -212 -320
-37 -33 -104 -74 -192 -118 -122 -60 -144 -75 -222 -154 -55 -53 -88 -94 -88
-107 0 -12 -4 -21 -10 -21 -7 0 -10 -203 -11 -587 l0 -588 -24 65 c-14 36 -34
101 -45 146 -20 78 -20 103 -18 920 l3 839 24 50 c85 177 215 307 400 400 115
57 240 85 411 91 80 3 169 12 198 20 30 8 124 48 210 88 166 78 267 114 395
142 153 32 347 37 527 13z m-2001 -2731 c107 -292 305 -563 564 -773 87 -71
108 -105 63 -105 -71 0 -163 66 -352 255 -158 158 -252 293 -318 458 -24 61
-26 76 -25 219 l0 153 24 -75 c12 -41 32 -101 44 -132z M4569 8089 c-47 -27
-69 -66 -69 -121 0 -141 191 -191 256 -66 36 69 11 154 -56 189 -45 24 -86 24
-131 -2z M5960 8091 c-67 -35 -92 -120 -56 -189 65 -125 256 -75 256 66 0 55
-23 94 -70 121 -46 26 -85 27 -130 2z M5055 7513 c18 -100 81 -186 160 -219
25 -10 67 -17 115 -17 48 0 90 7 115 17 79 33 142 119 160 219 l7 37 -282 0
-282 0 7 -37z M4770 6988 c1 -59 95 -163 183 -203 103 -48 178 -59 377 -59
199 0 274 11 376 58 86 40 162 119 178 189 l6 27 -560 0 c-441 0 -560 -3 -560
-12z M3791 6144 c-226 -61 -387 -261 -471 -589 -33 -127 -60 -324 -60 -431 l0
-74 41 0 c33 0 40 -3 35 -16 -3 -8 -50 -279 -103 -601 l-98 -585 -786 -393
c-432 -216 -800 -405 -818 -420 -17 -15 -44 -51 -59 -79 -22 -42 -27 -64 -27
-126 0 -66 4 -82 31 -130 55 -98 170 -159 273 -147 34 5 283 124 927 446 965
481 933 463 968 570 9 25 65 350 126 721 60 371 112 687 115 702 4 26 3 26
-25 16 -48 -16 -124 -92 -159 -158 -40 -75 -79 -246 -161 -707 -33 -186 -64
-354 -69 -373 -13 -57 -51 -137 -74 -158 -27 -24 42 11 -845 -428 -781 -387
-797 -393 -839 -352 -14 14 -14 19 -3 33 8 9 309 164 669 345 361 181 683 346
716 367 79 52 164 147 204 229 39 79 54 150 126 583 74 451 73 518 -11 628
l-25 33 244 0 c135 0 259 3 276 6 l31 7 0 -1325 0 -1325 -132 -6 c-243 -10
-448 -84 -586 -212 -98 -91 -134 -164 -140 -285 -7 -152 46 -248 171 -309 117
-57 156 -63 487 -71 168 -4 339 -13 380 -20 56 -9 601 -164 688 -195 22 -8 -4
29 -51 74 -60 58 -69 63 -182 108 -165 67 -356 120 -457 128 -118 8 -211 19
-273 31 -16 4 -82 27 -145 51 -63 25 -134 53 -157 62 -74 28 -49 51 55 51 99
0 333 -44 429 -81 15 -6 35 -12 43 -15 8 -2 130 -39 270 -82 140 -43 362 -111
494 -151 286 -86 306 -94 306 -119 0 -22 -73 -62 -150 -82 l-45 -12 30 -14 30
-14 -30 7 c-16 4 -54 7 -82 6 -39 -1 -53 3 -53 12 0 33 73 54 -1040 -291 -399
-124 -740 -231 -759 -237 -19 -7 -54 -29 -78 -50 l-43 -39 -26 59 c-19 41 -28
82 -31 139 -5 74 -3 85 20 125 47 80 122 120 397 212 108 35 229 81 271 100
96 46 166 107 175 152 13 70 19 71 -351 -35 -499 -143 -506 -145 -565 -189
-214 -161 -228 -466 -30 -645 24 -21 72 -52 109 -69 58 -28 76 -32 156 -32 88
0 101 4 550 142 253 78 747 230 1098 337 l638 195 997 -305 c548 -168 1049
-321 1112 -341 102 -31 124 -34 192 -30 384 25 527 515 219 747 -61 46 -55 44
-528 180 -407 117 -402 116 -388 49 10 -44 77 -103 169 -148 92 -45 157 -69
371 -136 83 -26 168 -56 190 -67 45 -23 105 -76 105 -93 0 -7 9 -20 20 -30 17
-15 20 -31 20 -93 0 -64 -5 -85 -35 -150 l-36 -75 -37 36 c-46 44 -49 45 -427
162 -170 53 -569 177 -885 275 -316 98 -809 250 -1095 338 -286 88 -732 226
-991 306 -542 167 -613 181 -834 174 -91 -4 -151 -11 -183 -22 -27 -10 -51
-15 -54 -13 -9 10 26 63 69 105 92 91 232 155 427 196 68 14 137 34 155 44 34
20 76 85 76 120 0 20 5 22 49 22 76 0 194 -28 326 -77 150 -56 437 -151 754
-250 l243 -76 202 63 c288 90 651 211 791 263 131 49 250 77 325 77 46 0 48
-1 54 -32 9 -47 41 -95 75 -113 17 -8 86 -26 153 -40 248 -49 388 -122 467
-242 40 -60 41 -79 3 -59 -73 38 -288 47 -468 21 -62 -10 -196 -44 -330 -85
-123 -38 -260 -79 -304 -91 -44 -12 -80 -25 -80 -29 0 -3 24 -12 53 -19 28 -8
171 -50 317 -94 l265 -81 148 -4 c315 -7 508 75 563 240 27 82 16 208 -24 291
-96 195 -368 331 -689 344 l-133 6 0 1325 0 1325 31 -7 c17 -3 142 -6 276 -6
l245 0 -28 -32 c-52 -63 -74 -125 -74 -214 0 -115 119 -831 154 -933 42 -116
150 -243 266 -311 36 -21 349 -179 695 -353 347 -173 638 -324 649 -335 22
-26 15 -51 -16 -53 -51 -4 -72 2 -151 37 -175 79 -1503 747 -1525 767 -36 33
-68 158 -128 497 -113 644 -136 729 -227 822 -34 35 -106 83 -113 75 -3 -3 21
-152 136 -850 107 -648 107 -649 182 -712 18 -15 424 -223 903 -462 635 -316
882 -435 916 -440 103 -12 218 49 273 147 27 48 31 65 31 130 0 64 -4 83 -30
128 -16 30 -42 65 -59 79 -16 14 -383 202 -815 418 l-786 393 -98 585 c-53
322 -100 593 -103 601 -5 13 2 16 35 16 l41 0 0 74 c0 103 -25 290 -56 416
-70 282 -202 482 -374 564 -104 50 -150 57 -370 54 l-195 -3 1 -53 c1 -39 8
-60 28 -86 14 -19 26 -42 26 -51 0 -26 67 -46 204 -61 157 -16 217 -34 282
-83 60 -45 104 -110 146 -216 31 -76 32 -87 36 -242 l4 -163 -100 0 c-55 0
-139 7 -187 15 -85 15 -89 15 -130 -5 -54 -26 -135 -112 -169 -178 l-26 -51 0
-1150 c0 -692 4 -1152 9 -1156 5 -3 12 -19 16 -35 4 -17 10 -30 15 -30 16 0
23 -42 9 -51 -15 -9 -2458 -13 -2482 -3 -15 5 -7 34 34 119 6 13 8 452 7 1175
l-3 1155 -28 50 c-36 63 -90 119 -144 152 l-42 24 -103 -16 c-58 -9 -144 -15
-198 -13 l-95 3 0 140 c0 121 3 150 24 210 48 144 114 237 203 288 63 36 99
45 248 61 147 15 190 27 190 51 0 9 15 31 34 50 35 35 56 105 42 140 -8 21
-385 21 -465 -1z m1999 -3759 c19 -7 29 -14 21 -14 -8 -1 -19 -7 -25 -15 -13
-17 -152 -72 -292 -115 -139 -42 -199 -42 -345 5 -151 48 -261 93 -275 110 -6
8 -17 14 -25 15 -8 0 2 7 21 14 27 11 128 13 460 13 332 0 433 -2 460 -13z
m1348 -571 c38 -11 24 -28 -40 -53 -35 -13 -72 -27 -83 -31 -127 -52 -219 -64
-275 -35 -17 9 -30 17 -30 19 0 3 -2 11 -6 19 -13 35 173 82 341 85 39 1 80
-1 93 -4z M4751 6050 c-33 -74 -36 -117 -11 -190 55 -164 239 -313 436 -355
88 -19 232 -19 310 0 296 70 513 349 423 545 l-21 45 -14 -55 c-66 -256 -285
-430 -544 -430 -259 0 -478 173 -544 430 l-14 55 -21 -45z"/>
</g>
</svg>
