<?xml version="1.0" standalone="no"?>
<!DOCTYPE svg PUBLIC "-//W3C//DTD SVG 20010904//EN"
 "http://www.w3.org/TR/2001/REC-SVG-20010904/DTD/svg10.dtd">
<svg version="1.0" xmlns="http://www.w3.org/2000/svg"
 width="2048.000000pt" height="2048.000000pt" viewBox="0 0 2048.000000 2048.000000"
 preserveAspectRatio="xMidYMid meet">
<metadata>
Created by potrace 1.13, written by Peter Selinger 2001-2015
</metadata>
<g transform="translate(0.000000,2048.000000) scale(0.192120,-0.192120)"
fill="#000000" stroke="none">
<path d="M5388 10315 c-231 -32 -447 -109 -653 -233 l-60 -37 -180 0 c-164 -1
-189 -4 -280 -29 -416 -114 -731 -451 -809 -866 -23 -118 -23 -1432 -1 -1589
59 -415 238 -780 529 -1079 115 -118 195 -186 315 -266 l84 -56 222 0 223 0
-3 198 -2 197 -84 44 c-123 63 -231 144 -339 251 -197 197 -319 421 -383 705
-17 79 -20 135 -24 475 l-5 385 74 19 c83 21 234 88 303 136 248 171 415 486
451 850 l7 75 18 -80 c119 -547 713 -904 1663 -1000 78 -8 170 -15 204 -15
l64 0 -5 -377 c-4 -331 -7 -389 -25 -468 -63 -286 -184 -507 -387 -710 -108
-108 -205 -180 -335 -247 l-82 -43 -3 -197 -3 -198 223 0 222 0 84 56 c120 80
200 148 315 266 255 262 424 577 503 936 39 177 43 254 39 877 -4 660 -4 654
-73 874 -151 476 -524 871 -994 1052 -244 94 -551 129 -813 94z m457 -320
c522 -84 935 -423 1084 -888 l31 -99 -2 -781 -3 -782 -27 -75 -26 -75 -1 553
c-1 361 -4 552 -11 552 -5 0 -10 7 -10 16 0 27 -129 152 -184 179 -41 19 -93
30 -257 50 -405 49 -665 116 -914 235 -226 108 -350 215 -500 431 -55 77 -121
161 -148 185 -82 73 -117 72 -199 -10 -58 -57 -107 -147 -189 -346 -48 -116
-128 -242 -192 -302 -63 -59 -114 -92 -233 -150 -89 -43 -124 -67 -191 -131
-44 -43 -88 -93 -97 -112 -14 -29 -16 -103 -16 -597 -1 -393 -4 -558 -11 -545
-6 10 -24 70 -40 135 l-29 117 0 815 0 815 33 75 c41 94 82 155 155 227 159
158 362 238 635 248 78 4 162 11 187 16 25 6 116 44 203 85 206 98 356 146
522 167 81 11 347 6 430 -8z m-1951 -2845 c91 -197 193 -338 374 -517 79 -79
141 -147 138 -152 -19 -30 -148 61 -296 209 -115 114 -192 216 -251 330 -43
84 -44 87 -46 195 l-3 110 20 -40 c11 -22 40 -83 64 -135z m2922 -84 c-32 -71
-124 -214 -185 -286 -121 -142 -315 -306 -352 -297 -10 3 -20 0 -23 -7 -2 -6
-5 -4 -5 5 -1 9 49 63 109 120 199 187 351 411 461 679 14 34 14 33 17 -61 2
-85 0 -104 -22 -153z M4569 8089 c-47 -27 -69 -66 -69 -121 0 -141 191 -191
256 -66 36 69 11 154 -56 189 -45 24 -86 24 -131 -2z M5963 8094 c-67 -33 -95
-123 -59 -192 46 -89 185 -94 237 -8 24 39 25 108 2 146 -20 35 -81 70 -119
70 -16 0 -44 -8 -61 -16z M5055 7513 c18 -100 81 -186 160 -219 25 -10 67 -17
115 -17 48 0 90 7 115 17 79 33 142 119 160 219 l7 37 -282 0 -282 0 7 -37z
M4858 7023 c-27 -7 -48 -16 -48 -18 0 -3 235 -5 523 -4 487 1 520 2 487 17
-30 14 -95 16 -475 17 -349 2 -450 -1 -487 -12z M5881 6943 c0 -6 -19 -34 -41
-61 -54 -69 -163 -123 -294 -147 -122 -22 -396 -16 -491 10 -98 27 -192 82
-236 138 -31 39 -39 44 -39 28 0 -29 42 -90 85 -124 118 -93 342 -133 608
-108 138 13 243 49 321 108 53 40 101 118 93 150 -3 10 -5 13 -6 6z M3791
6144 c-226 -61 -387 -261 -471 -589 -33 -127 -60 -324 -60 -432 l0 -75 35 4
c27 3 35 0 35 -12 0 -8 -44 -280 -97 -604 l-98 -588 -786 -393 c-432 -216
-800 -405 -818 -420 -17 -15 -44 -51 -59 -79 -22 -42 -27 -64 -27 -126 0 -66
4 -82 31 -130 55 -98 170 -159 273 -147 34 5 283 124 927 446 965 481 933 463
969 570 8 25 67 361 130 746 63 385 117 709 120 720 4 20 -1 20 -255 20 -142
0 -262 3 -266 7 -4 5 18 61 48 125 33 70 63 151 73 198 39 180 89 304 162 401
79 106 141 136 328 159 173 21 215 52 215 156 l0 59 -177 -1 c-122 0 -195 -5
-232 -15z m-403 -2465 c-19 -43 -94 -88 -175 -105 -26 -5 -12 34 31 84 24 28
54 68 67 89 13 21 29 44 36 51 7 7 13 19 13 25 0 7 8 24 18 37 17 25 17 24 20
-63 2 -57 -2 -100 -10 -118z M6460 6108 c0 -102 43 -140 177 -157 222 -28 296
-58 368 -146 41 -49 105 -183 105 -218 0 -13 4 -37 9 -53 5 -16 19 -72 31
-124 15 -67 39 -131 82 -218 34 -67 58 -126 54 -130 -4 -4 -124 -7 -266 -7
l-259 0 5 -25 c3 -14 58 -348 124 -743 128 -779 126 -768 202 -832 18 -15 424
-223 903 -462 635 -316 882 -435 916 -440 103 -12 218 49 273 147 27 48 31 65
31 130 0 64 -4 83 -30 128 -16 30 -42 65 -59 79 -16 14 -383 202 -815 418
l-786 393 -98 588 c-53 324 -97 596 -97 604 0 12 8 15 37 12 l36 -5 -6 124
c-28 539 -223 893 -534 974 -40 11 -109 15 -230 15 l-173 0 0 -52z m800 -2204
c0 -25 91 -172 144 -234 57 -66 71 -102 39 -95 -40 7 -100 33 -139 57 -33 21
-43 35 -53 72 -14 56 -15 248 -1 226 5 -8 10 -20 10 -26z M4784 6084 c31 -263
271 -473 542 -474 93 0 161 16 249 59 166 82 281 241 302 418 l6 53 -34 0
c-68 0 -106 -19 -154 -74 -25 -29 -45 -57 -45 -61 0 -16 -64 -87 -104 -114
-69 -47 -136 -64 -240 -59 -141 6 -241 61 -302 166 -15 26 -30 49 -33 52 -4 3
-14 17 -23 31 -22 34 -76 59 -128 59 l-43 0 7 -56z M3925 5100 c-19 -38 -19
-40 7 -40 21 0 21 -2 15 -107 -4 -58 -7 -654 -7 -1323 l0 -1217 -132 -6 c-243
-10 -448 -84 -586 -212 -98 -91 -134 -164 -140 -285 -7 -152 46 -248 171 -309
117 -57 156 -63 487 -71 168 -4 339 -13 380 -20 41 -7 210 -52 375 -102 165
-49 339 -101 388 -115 48 -14 85 -28 83 -30 -2 -3 -35 5 -73 16 l-69 21 -84
-26 c-192 -58 -1010 -311 -1354 -418 -220 -69 -386 -126 -408 -141 l-39 -26
-14 35 c-20 48 -20 207 0 246 15 28 86 80 150 109 17 7 116 42 222 77 336 111
473 199 473 304 0 70 43 78 -590 -106 -314 -92 -324 -95 -385 -144 -200 -159
-207 -461 -15 -634 97 -87 256 -127 375 -93 28 8 529 161 1114 340 l1064 327
126 -40 c199 -62 1990 -611 2046 -627 156 -44 347 30 445 172 139 203 57 506
-165 606 -22 10 -229 72 -459 138 -316 91 -422 118 -428 108 -4 -6 -8 -29 -8
-50 0 -34 7 -46 58 -96 77 -77 182 -126 456 -216 122 -39 232 -77 246 -84 33
-18 90 -72 90 -87 0 -6 7 -18 16 -25 23 -19 15 -148 -14 -212 l-22 -48 -39 26
c-21 15 -104 47 -182 71 -485 152 -1979 614 -2754 852 -637 196 -940 285
-1011 296 -158 25 -356 20 -458 -10 -18 -6 -18 -5 0 26 24 41 105 107 162 131
68 30 186 57 322 74 69 9 159 25 200 37 110 30 159 22 437 -71 306 -103 725
-214 868 -230 39 -5 100 -5 136 0 126 15 524 121 812 215 331 109 375 117 487
86 41 -12 140 -30 220 -41 235 -32 348 -78 440 -177 23 -25 40 -47 38 -49 -2
-2 -30 3 -63 11 -81 19 -284 18 -409 -2 -55 -9 -166 -36 -246 -60 -232 -72
-331 -101 -397 -119 -35 -10 -63 -20 -63 -24 0 -3 78 -28 173 -55 94 -27 243
-71 329 -98 157 -48 159 -48 297 -48 241 0 404 48 490 146 56 64 74 125 69
234 -6 119 -41 192 -137 283 -136 128 -344 204 -588 214 l-133 6 0 1217 c0
669 -3 1265 -7 1323 -6 105 -6 107 15 107 12 0 22 2 22 5 0 17 -32 65 -44 65
-42 0 -125 -91 -146 -160 -38 -125 -40 -199 -40 -1252 0 -679 3 -1028 10
-1028 6 0 10 -6 10 -12 0 -7 16 -35 34 -63 19 -27 32 -53 29 -57 -5 -9 -2537
-11 -2545 -2 -6 6 51 125 65 135 4 3 6 485 4 1070 -3 1013 -4 1068 -23 1149
-22 99 -62 173 -107 201 -43 26 -54 24 -72 -11z m700 -2640 c445 -29 1255 -21
1587 16 295 32 312 31 415 -30 l53 -31 -108 -21 c-59 -12 -189 -52 -289 -88
-150 -54 -652 -218 -895 -292 l-58 -18 -152 48 c-345 108 -574 183 -773 254
-116 41 -258 84 -317 96 l-108 21 57 35 c90 53 130 58 291 38 75 -9 209 -22
297 -28z m-731 -706 c16 -7 32 -11 36 -9 5 3 10 2 12 -2 1 -5 23 -15 48 -24
27 -10 46 -23 49 -34 3 -17 -3 -18 -82 -12 -121 10 -216 48 -217 88 0 14 10
15 63 12 34 -3 75 -11 91 -19z m3026 5 c0 -15 -31 -34 -50 -31 -3 0 -10 -4
-16 -8 -12 -11 -66 2 -71 16 -2 6 16 16 39 24 75 22 98 22 98 -1z m-2017 -308
c107 -33 137 -49 137 -71 0 -25 -65 -60 -111 -60 -61 0 -68 5 -178 123 -48 52
-1 55 152 8z"/>
</g>
</svg>
