<?xml version="1.0" standalone="no"?>
<!DOCTYPE svg PUBLIC "-//W3C//DTD SVG 20010904//EN"
 "http://www.w3.org/TR/2001/REC-SVG-20010904/DTD/svg10.dtd">
<svg version="1.0" xmlns="http://www.w3.org/2000/svg"
 width="2048.000000pt" height="2048.000000pt" viewBox="0 0 2048.000000 2048.000000"
 preserveAspectRatio="xMidYMid meet">
<metadata>
Created by potrace 1.13, written by Peter Selinger 2001-2015
</metadata>
<g transform="translate(0.000000,2048.000000) scale(0.192120,-0.192120)"
fill="#000000" stroke="none">
<path d="M5015 8934 c-27 -2 -115 -9 -195 -14 -1013 -76 -1864 -423 -2435
-995 -213 -212 -364 -423 -495 -690 -118 -239 -193 -477 -237 -747 -25 -159
-25 -694 1 -913 53 -451 165 -795 306 -936 l48 -47 11 -214 c51 -927 164
-1568 367 -2092 103 -263 274 -557 442 -757 252 -300 591 -535 988 -683 299
-112 593 -175 1014 -218 168 -17 841 -17 1015 0 821 82 1399 313 1829 731 517
504 796 1232 916 2391 23 229 50 592 50 685 l0 65 40 0 c106 0 202 179 265
493 56 285 79 571 80 1007 0 370 -5 423 -60 640 -83 328 -262 680 -493 970
-97 122 -349 374 -472 472 -582 462 -1302 742 -2150 833 -137 15 -713 28 -835
19z m590 -174 c654 -39 1197 -180 1710 -444 408 -210 738 -471 998 -789 205
-251 315 -441 448 -774 97 -241 93 -210 97 -773 2 -324 0 -531 -8 -600 -40
-380 -96 -586 -196 -725 -12 -16 -32 -50 -44 -73 -21 -43 -22 -44 -42 -25 -12
10 -34 36 -49 57 l-29 39 0 -119 c0 -193 -39 -673 -67 -819 -17 -92 -14 -77
-59 -350 -58 -353 -98 -526 -196 -855 -74 -250 -85 -280 -172 -450 -79 -157
-148 -260 -259 -385 -456 -519 -1080 -788 -1977 -855 -176 -13 -689 -13 -861
0 -691 54 -1215 224 -1619 526 -209 156 -328 279 -467 484 -79 116 -101 155
-170 293 -185 370 -300 791 -382 1392 -44 320 -51 433 -52 837 -1 254 -4 380
-10 355 -12 -52 -35 -93 -61 -111 -32 -23 -35 -21 -42 30 -3 26 -37 112 -75
193 -100 213 -141 341 -181 575 -18 109 -20 161 -20 630 l0 511 29 125 c92
398 316 801 615 1108 402 413 915 691 1581 856 457 113 1059 165 1560 136z
M3254 6606 c-44 -35 -110 -97 -149 -137 l-70 -73 65 59 c156 139 217 159 323
105 69 -35 67 -30 -22 49 l-69 61 -78 -64z M3515 6500 c10 -11 20 -20 23 -20
3 0 -3 9 -13 20 -10 11 -20 20 -23 20 -3 0 3 -9 13 -20z M2994 6358 l-29 -33
33 29 c17 17 32 31 32 33 0 8 -8 1 -36 -29z M4757 6333 c-3 -32 -9 -69 -13
-83 l-7 -25 28 28 c37 36 62 34 126 -9 52 -35 51 -33 -36 55 -49 50 -90 91
-91 91 -1 0 -4 -26 -7 -57z M3670 6376 c0 -2 8 -10 18 -17 15 -13 16 -12 3 4
-13 16 -21 21 -21 13z M6174 6336 c3 -27 6 -64 6 -82 0 -41 9 -42 44 -7 l27
26 69 -35 c39 -20 70 -35 70 -33 0 1 -32 26 -71 55 -39 29 -78 60 -87 69 -9 9
-28 25 -41 36 l-24 20 7 -49z M3720 6336 c0 -2 8 -10 18 -17 15 -13 16 -12 3
4 -13 16 -21 21 -21 13z M3760 6306 c0 -2 8 -10 18 -17 15 -13 16 -12 3 4 -13
16 -21 21 -21 13z M2919 6273 c-13 -16 -12 -17 4 -4 9 7 17 15 17 17 0 8 -8 3
-21 -13z M3810 6267 c0 -3 12 -12 26 -22 15 -9 23 -12 20 -6 -7 11 -46 35 -46
28z M2879 6223 c-13 -16 -12 -17 4 -4 16 13 21 21 13 21 -2 0 -10 -8 -17 -17z
M7730 6107 c-52 -27 -88 -47 -80 -44 8 2 45 10 81 17 63 13 69 12 104 -9 33
-19 37 -20 30 -4 -4 10 -12 32 -17 48 -6 17 -13 32 -17 35 -3 3 -49 -17 -101
-43z M6520 6125 c0 -7 61 -37 66 -33 2 3 -12 12 -31 21 -19 9 -35 15 -35 12z
M7565 6040 c-13 -6 -15 -9 -5 -9 8 0 22 4 30 9 18 12 2 12 -25 0z M6818 6003
c7 -3 16 -2 19 1 4 3 -2 6 -13 5 -11 0 -14 -3 -6 -6z M7448 6003 c7 -3 16 -2
19 1 4 3 -2 6 -13 5 -11 0 -14 -3 -6 -6z M6868 5993 c7 -3 16 -2 19 1 4 3 -2
6 -13 5 -11 0 -14 -3 -6 -6z M7408 5993 c7 -3 16 -2 19 1 4 3 -2 6 -13 5 -11
0 -14 -3 -6 -6z M3869 4487 c-96 -27 -178 -113 -198 -208 -16 -72 -14 -343 2
-406 18 -69 51 -116 112 -158 137 -95 316 -52 399 95 l31 55 0 215 c0 202 -1
217 -22 256 -35 65 -70 101 -127 129 -64 31 -136 39 -197 22z M6632 4482 c-71
-26 -118 -66 -156 -132 l-31 -55 0 -215 0 -215 31 -55 c114 -202 401 -191 498
19 19 42 21 63 21 251 0 188 -2 209 -21 251 -60 130 -212 197 -342 151z M4935
3496 c-187 -88 -215 -343 -51 -467 27 -21 67 -42 90 -49 28 -7 148 -10 376 -8
334 3 335 3 383 28 204 103 199 398 -8 496 -50 24 -53 24 -395 24 -342 0 -345
0 -395 -24z m621 -227 c47 -12 54 -24 27 -45 -22 -17 -503 -20 -503 -4 0 6 -7
10 -15 10 -31 0 -14 28 23 38 52 14 413 15 468 1z M4403 2397 c-60 -22 -117
-72 -148 -128 -26 -47 -30 -64 -30 -134 0 -63 5 -89 23 -122 73 -138 361 -307
642 -377 171 -43 237 -51 445 -50 208 0 304 12 464 56 272 74 546 241 613 372
48 95 29 222 -45 304 -53 57 -107 84 -183 90 -81 6 -144 -15 -214 -73 -105
-86 -278 -159 -440 -185 -95 -15 -324 -12 -421 5 -158 27 -316 95 -414 176
-72 60 -118 79 -195 78 -36 0 -79 -6 -97 -12z m207 -287 c30 -15 82 -44 114
-64 179 -108 459 -166 708 -146 214 18 360 62 529 162 137 81 210 98 217 50
10 -66 -214 -192 -428 -242 -100 -24 -115 -26 -287 -42 -159 -14 -366 -1 -514
33 -26 6 -55 12 -65 14 -11 2 -19 4 -19 5 0 1 -10 3 -22 6 -38 7 -176 64 -240
100 -72 40 -133 96 -133 122 0 49 47 50 140 2z"/>
</g>
</svg>
