<?xml version="1.0" standalone="no"?>
<!DOCTYPE svg PUBLIC "-//W3C//DTD SVG 20010904//EN"
 "http://www.w3.org/TR/2001/REC-SVG-20010904/DTD/svg10.dtd">
<svg version="1.0" xmlns="http://www.w3.org/2000/svg"
 width="2048.000000pt" height="2048.000000pt" viewBox="0 0 2048.000000 2048.000000"
 preserveAspectRatio="xMidYMid meet">
<metadata>
Created by potrace 1.13, written by Peter Selinger 2001-2015
</metadata>
<g transform="translate(0.000000,2048.000000) scale(0.192120,-0.192120)"
fill="#000000" stroke="none">
<path d="M5045 9490 c-1187 -64 -1818 -470 -2065 -1327 -93 -323 -150 -823
-150 -1314 l0 -126 -57 -13 c-92 -20 -380 -116 -511 -170 -544 -223 -939 -541
-1074 -862 l-30 -71 12 -100 c16 -136 50 -250 119 -392 134 -278 303 -484 851
-1040 348 -352 504 -522 617 -670 139 -183 246 -375 297 -530 27 -83 56 -234
56 -290 l0 -32 -108 -6 c-669 -38 -1267 -499 -1476 -1137 -71 -220 -86 -348
-86 -762 l0 -318 3890 0 3890 0 0 309 c0 170 -5 355 -11 412 -58 573 -401
1070 -914 1324 -212 104 -414 159 -637 172 l-108 6 0 32 c0 56 30 207 57 290
70 214 212 441 446 713 51 58 254 271 452 472 466 473 607 633 751 851 132
200 211 401 234 592 14 117 20 106 -136 257 -180 174 -367 313 -631 469 -221
130 -603 304 -820 373 l-73 23 0 180 c-1 335 -28 733 -66 975 -59 375 -184
716 -346 945 -81 115 -248 282 -363 363 -302 213 -745 349 -1280 391 -187 15
-555 21 -730 11z m691 -310 c738 -58 1226 -266 1484 -631 130 -184 210 -405
278 -759 25 -132 25 -145 28 -650 3 -461 2 -511 -11 -475 -8 22 -19 49 -25 60
-5 11 -27 70 -49 130 -126 354 -246 552 -457 756 -168 160 -355 261 -561 300
-91 17 -320 6 -403 -19 -204 -61 -346 -150 -536 -334 -73 -70 -140 -128 -149
-128 -31 0 -60 23 -165 129 -249 251 -486 361 -775 361 -285 0 -531 -112 -765
-349 -194 -196 -321 -421 -434 -766 -36 -110 -75 -229 -87 -265 -23 -71 -55
-124 -70 -115 -16 10 -11 229 6 261 8 16 15 41 15 56 0 15 6 33 14 40 10 11
14 78 19 298 9 459 54 786 149 1080 72 223 162 375 312 526 275 277 730 444
1346 493 153 12 686 13 836 1z m-1167 -1495 c289 -69 556 -297 723 -622 18
-34 35 -63 38 -63 3 0 22 34 44 75 116 228 320 438 521 538 123 61 195 79 341
85 156 5 248 -14 383 -78 111 -53 188 -110 285 -209 177 -179 281 -376 377
-713 70 -247 194 -552 269 -665 95 -140 154 -155 204 -49 31 66 42 122 56 281
7 72 15 163 18 203 l7 73 50 -67 c130 -175 128 -166 61 -242 -23 -26 -67 -79
-99 -119 l-57 -72 152 75 c276 135 408 158 438 78 13 -33 -4 -239 -35 -422
-94 -552 -284 -936 -521 -1053 -64 -32 -76 -34 -165 -34 l-96 0 -33 -100 c-97
-300 -247 -587 -444 -850 -105 -139 -332 -371 -458 -469 l-88 -68 0 -338 0
-338 -98 -70 c-518 -370 -800 -484 -1162 -468 -327 13 -569 119 -1047 458
l-113 80 0 338 0 339 -119 95 c-387 311 -709 788 -872 1291 l-32 100 -96 0
c-83 0 -104 4 -151 26 -206 98 -373 375 -481 800 -39 154 -75 374 -89 538 -11
127 -11 135 8 160 44 59 175 32 420 -89 79 -38 146 -70 149 -70 9 0 -101 136
-158 195 -32 33 -70 74 -84 92 l-26 32 23 32 c13 18 41 49 62 68 22 20 65 68
96 107 l57 72 7 -157 c15 -349 45 -502 108 -560 45 -42 98 -6 175 117 89 142
171 355 302 777 73 236 186 433 336 586 192 195 395 287 635 288 69 1 141 -5
179 -14z m-2418 -1905 c26 -165 89 -421 135 -549 110 -303 274 -545 445 -657
60 -39 168 -84 202 -84 27 0 73 -60 107 -138 141 -324 281 -565 459 -787 78
-97 287 -311 359 -367 28 -22 52 -46 52 -52 0 -7 11 -23 25 -36 l25 -23 0
-234 c0 -149 4 -233 10 -233 6 0 10 -15 10 -34 0 -78 94 -205 235 -316 152
-120 157 -125 154 -142 -4 -14 -16 -12 -99 14 -156 50 -232 68 -290 68 -116 0
-169 -32 -215 -131 -16 -35 -30 -66 -32 -68 -5 -8 -122 65 -223 137 -108 78
-322 283 -352 338 l-18 31 48 18 c113 43 137 81 128 205 -15 206 -142 490
-340 760 -157 214 -305 378 -706 785 -452 460 -596 628 -719 845 -94 164 -112
222 -118 370 l-5 125 44 60 c97 131 264 272 466 391 61 37 112 71 112 76 0 6
6 8 13 5 8 -3 20 -1 28 4 12 7 16 -14 26 -119 7 -70 22 -188 34 -262z m6514
169 c126 -72 312 -203 435 -307 l105 -89 -1 -99 c-1 -86 -5 -109 -32 -179 -56
-141 -206 -366 -367 -550 -38 -44 -239 -253 -445 -465 -576 -592 -735 -787
-888 -1095 -98 -198 -142 -339 -142 -456 0 -96 35 -139 143 -175 l47 -16 -17
-31 c-27 -49 -228 -246 -323 -318 -84 -63 -236 -159 -252 -159 -4 0 -8 5 -8
11 0 6 -14 40 -31 76 -28 58 -36 67 -82 89 -66 30 -152 31 -257 4 -41 -11 -82
-22 -91 -24 -8 -2 -39 -11 -67 -20 -48 -14 -52 -14 -52 2 1 24 24 49 117 126
136 112 213 213 213 282 0 19 5 34 10 34 6 0 10 88 10 244 0 221 2 245 19 267
10 13 20 29 22 35 2 6 29 32 59 59 81 70 226 214 296 292 206 231 346 461 513
844 50 113 76 145 134 159 127 32 227 91 317 188 213 227 363 600 451 1120 17
103 33 190 36 195 10 16 43 5 128 -44z m-5551 -3709 c14 -5 72 -51 128 -101
57 -51 129 -113 161 -137 64 -51 69 -68 42 -156 -12 -40 -15 -122 -15 -436 0
-385 0 -386 24 -448 35 -89 77 -158 140 -231 62 -72 69 -97 30 -111 -16 -6
-379 -10 -965 -10 l-939 0 0 274 c0 213 3 290 16 343 98 428 442 792 889 941
190 63 423 97 489 72z m4638 -5 c185 -28 316 -69 471 -146 204 -103 392 -267
511 -448 79 -119 117 -200 157 -334 l29 -100 0 -298 0 -299 -929 0 c-580 0
-939 4 -955 10 -38 14 -32 41 20 102 55 64 110 159 141 245 23 63 23 72 23
449 0 333 -2 395 -17 450 -20 75 -17 83 48 133 24 18 93 77 153 130 59 53 118
101 130 108 29 17 97 16 218 -2z m-3512 -335 c113 -51 297 -132 408 -181 l204
-88 36 29 c72 57 94 60 442 60 349 0 370 -3 443 -61 l38 -30 412 183 c403 179
413 183 478 182 117 -1 221 -71 273 -183 20 -43 21 -64 24 -361 4 -408 -5
-459 -104 -555 -66 -65 -124 -89 -221 -93 -95 -5 -30 -31 -566 232 l-358 175
-42 -22 c-41 -21 -51 -22 -377 -22 -324 0 -336 1 -378 22 l-43 22 -137 -68
c-75 -38 -264 -130 -419 -206 l-282 -137 -83 4 c-97 4 -156 29 -224 94 -97 94
-106 147 -102 554 3 295 4 318 24 361 41 87 113 151 204 176 82 23 129 12 350
-87z m1027 -1026 c193 -4 326 -2 391 5 124 15 166 3 348 -97 230 -126 250
-143 177 -159 -50 -11 -1657 -10 -1706 0 -52 11 -46 34 18 70 291 166 368 200
435 192 25 -3 176 -8 337 -11z M4130 6425 c-61 -19 -125 -76 -158 -139 -27
-51 -27 -52 -27 -261 0 -209 0 -210 27 -261 111 -211 401 -202 502 15 19 42
21 64 21 246 0 199 0 200 -28 257 -46 93 -128 148 -232 154 -35 2 -79 -2 -105
-11z m179 -162 l31 -18 0 -213 c0 -127 -4 -221 -10 -233 -37 -67 -183 -64
-238 6 -21 26 -22 38 -22 219 0 207 1 211 55 240 42 21 145 21 184 -1z M6364
6429 c-53 -15 -127 -72 -156 -119 -40 -65 -51 -141 -46 -325 3 -151 5 -164 31
-218 102 -207 386 -209 495 -3 27 51 27 52 27 261 0 209 0 210 -27 261 -63
119 -200 179 -324 143z m170 -170 l36 -21 0 -207 c0 -226 -2 -236 -60 -266
-60 -31 -163 -11 -194 38 -14 20 -16 55 -14 228 l3 203 34 23 c46 31 144 32
195 2z M5057 5250 c-82 -25 -141 -109 -141 -200 1 -63 18 -102 65 -148 54 -53
104 -62 349 -62 245 0 295 9 349 62 47 46 64 85 65 148 1 70 -32 132 -92 175
l-44 30 -261 2 c-144 1 -275 -2 -290 -7z M6175 4255 c-16 -9 -45 -26 -64 -40
-50 -37 -206 -82 -366 -107 -116 -17 -186 -21 -405 -22 -403 -1 -662 44 -810
139 -45 29 -64 35 -108 35 -63 0 -98 -16 -140 -64 -63 -72 -57 -151 21 -262
53 -77 55 -81 59 -159 l5 -80 154 -310 c111 -223 162 -315 182 -330 20 -14 44
-20 83 -20 48 0 57 4 88 35 22 23 57 88 102 188 l68 153 61 -8 c77 -10 373
-10 446 0 l56 8 38 -88 c90 -210 111 -247 155 -272 31 -17 52 -22 80 -18 75
10 83 21 251 361 155 312 159 321 159 383 0 68 0 68 84 181 32 43 40 64 44
107 6 69 -1 96 -35 136 -52 61 -144 85 -208 54z m-1382 -346 c72 -17 143 -37
158 -44 42 -22 79 -73 79 -108 0 -35 -241 -590 -251 -579 -4 4 -68 134 -143
290 -150 311 -157 338 -113 402 25 37 79 70 116 70 13 0 82 -14 154 -31z
m1274 15 c19 -9 45 -33 59 -53 43 -64 36 -93 -82 -337 -58 -121 -122 -253
-141 -294 l-35 -75 -14 30 c-108 232 -234 534 -234 561 0 39 44 95 88 113 40
17 262 69 295 70 16 1 45 -6 64 -15z m-667 -168 c0 -73 -5 -147 -11 -165 -11
-30 -13 -31 -69 -31 -36 0 -62 5 -67 13 -8 13 -21 283 -15 305 3 8 29 12 83
12 l79 0 0 -134z M4170 3108 c14 -53 25 -69 74 -115 217 -202 511 -320 876
-353 535 -47 995 78 1294 351 54 50 65 66 71 102 4 23 11 50 17 60 12 24 7 22
-69 -25 -116 -71 -313 -165 -433 -206 -231 -79 -424 -112 -667 -112 -390 0
-731 97 -1096 314 -43 25 -80 46 -81 46 -2 0 4 -28 14 -62z M4581 1658 c-43
-114 -39 -296 11 -447 l20 -64 30 49 c62 101 80 109 168 74 27 -11 50 -18 50
-15 0 2 -7 34 -16 72 -16 69 -16 238 1 275 5 13 -9 8 -50 -17 -78 -46 -97 -43
-147 25 -23 30 -45 59 -50 64 -4 5 -12 -2 -17 -16z M6028 1620 c-38 -53 -47
-59 -78 -60 -20 0 -52 11 -75 25 -52 32 -55 31 -44 -7 14 -50 11 -185 -6 -257
-9 -35 -14 -65 -13 -67 2 -1 30 6 62 17 76 26 92 19 141 -62 37 -60 38 -61 50
-38 29 57 49 166 49 279 1 109 -17 230 -35 230 -4 0 -27 -27 -51 -60z"/>
</g>
</svg>
