<?xml version="1.0" standalone="no"?>
<!DOCTYPE svg PUBLIC "-//W3C//DTD SVG 20010904//EN"
 "http://www.w3.org/TR/2001/REC-SVG-20010904/DTD/svg10.dtd">
<svg version="1.0" xmlns="http://www.w3.org/2000/svg"
 width="2048.000000pt" height="2048.000000pt" viewBox="0 0 2048.000000 2048.000000"
 preserveAspectRatio="xMidYMid meet">
<metadata>
Created by potrace 1.13, written by Peter Selinger 2001-2015
</metadata>
<g transform="translate(0.000000,2048.000000) scale(0.192120,-0.192120)"
fill="#000000" stroke="none">
<path d="M5015 8934 c-27 -2 -115 -9 -195 -14 -1013 -76 -1864 -423 -2435
-995 -213 -212 -364 -423 -495 -690 -118 -239 -193 -477 -237 -747 -25 -159
-25 -694 1 -913 51 -441 163 -788 298 -928 l41 -42 9 35 c14 49 -3 148 -52
310 -125 414 -130 454 -130 1074 l0 511 29 125 c92 398 316 801 615 1108 510
524 1220 842 2141 956 511 64 1039 57 1520 -20 781 -125 1511 -478 1996 -966
298 -300 475 -571 640 -985 97 -241 93 -210 97 -773 5 -652 -10 -793 -126
-1215 -22 -78 -48 -252 -39 -261 9 -10 64 24 91 57 109 129 186 450 228 949 7
80 12 300 13 490 0 370 -5 423 -60 640 -83 328 -262 680 -493 970 -97 122
-349 374 -472 472 -582 462 -1302 742 -2150 833 -137 15 -713 28 -835 19z
M3244 6603 c-331 -278 -618 -681 -819 -1149 -69 -159 -157 -433 -206 -639 -39
-164 -45 -183 -76 -214 -34 -34 -65 -38 -117 -16 -18 8 -18 3 -12 -126 12
-229 35 -535 57 -739 145 -1395 556 -2217 1341 -2682 364 -215 794 -343 1363
-405 202 -22 856 -25 1065 -5 824 80 1403 312 1839 736 133 130 214 228 317
382 342 515 537 1234 619 2279 33 420 34 469 16 480 -9 6 -39 33 -67 61 -56
56 -140 213 -285 531 -150 331 -439 1023 -439 1052 0 17 -8 14 -90 -28 -99
-51 -227 -96 -353 -122 -122 -26 -350 -31 -467 -10 -253 45 -517 178 -713 360
-26 24 -49 42 -52 39 -2 -2 0 -31 5 -64 6 -32 10 -120 10 -194 0 -202 -31
-316 -107 -401 -50 -55 -106 -80 -185 -80 -87 -1 -146 15 -268 73 -211 99
-466 292 -772 586 l-87 83 -6 -48 c-22 -175 -86 -279 -202 -330 -60 -27 -189
-21 -288 12 -222 73 -562 305 -856 582 -36 35 -71 63 -76 63 -6 0 -46 -30 -89
-67z m146 -281 c14 -9 88 -66 165 -128 417 -332 736 -473 968 -425 45 10 57
16 57 32 0 12 16 27 49 43 27 14 77 48 112 77 74 59 101 71 135 63 14 -4 87
-56 162 -116 337 -269 588 -400 795 -415 77 -5 135 4 212 33 10 4 15 0 15 -10
0 -14 9 -11 44 13 89 62 167 176 232 344 27 69 42 97 54 97 9 0 65 -22 123
-50 340 -160 665 -190 1017 -94 181 50 177 49 201 28 25 -22 60 -94 159 -329
216 -511 371 -837 439 -922 23 -29 41 -59 41 -66 0 -8 9 -26 20 -40 18 -23 20
-40 20 -209 0 -175 -18 -410 -40 -528 -6 -30 -15 -104 -20 -165 -18 -217 -61
-460 -105 -595 -30 -92 -107 -356 -146 -505 -36 -134 -64 -204 -142 -360 -116
-232 -254 -416 -417 -555 -25 -21 -70 -59 -100 -85 -143 -123 -441 -291 -650
-368 -443 -163 -984 -239 -1590 -224 -771 20 -1371 173 -1792 458 -31 22 -60
39 -63 39 -3 0 -57 40 -119 90 -458 362 -757 1014 -891 1945 -57 399 -69 529
-69 800 l-1 260 40 65 c53 85 68 124 116 310 74 289 154 504 276 743 128 249
303 496 472 662 113 112 155 129 221 87z M6650 5550 c-147 -8 -208 -25 -293
-81 -65 -43 -155 -144 -197 -220 -32 -60 -34 -71 -38 -176 -4 -121 6 -166 57
-248 31 -51 145 -160 191 -182 37 -18 38 -18 315 -12 150 3 167 1 275 -27 108
-27 127 -29 305 -29 172 0 197 2 260 23 91 30 194 106 254 189 70 96 80 129
80 268 1 117 0 123 -33 190 -38 80 -133 188 -203 233 -27 17 -77 40 -113 53
-61 20 -84 22 -395 24 -181 2 -391 -1 -465 -5z m885 -247 c48 -26 106 -85 130
-133 10 -19 20 -62 23 -96 9 -118 -48 -218 -156 -271 l-57 -28 -480 0 -480 0
-49 24 c-179 88 -219 308 -81 447 85 85 69 83 625 81 477 -2 486 -2 525 -24z
M3175 5536 c-85 -20 -146 -56 -226 -133 -57 -55 -88 -94 -118 -153 l-41 -78 0
-116 c0 -107 2 -122 28 -179 52 -112 181 -229 307 -277 52 -20 84 -24 241 -28
176 -4 186 -3 310 26 168 40 254 47 408 32 176 -18 196 -11 307 99 73 73 89
96 112 156 23 60 27 86 27 173 0 92 -3 109 -30 168 -71 157 -198 270 -347 309
-75 20 -898 21 -978 1z m997 -222 c61 -20 123 -75 156 -138 35 -67 37 -168 6
-237 -27 -58 -84 -116 -143 -143 -45 -20 -58 -21 -526 -21 l-480 0 -57 28
c-108 53 -165 153 -156 271 6 72 26 116 77 169 36 39 75 64 121 78 14 4 235 8
491 8 396 1 472 -1 511 -15z M3869 4487 c-59 -17 -126 -66 -161 -118 -41 -61
-50 -129 -46 -323 3 -147 6 -177 24 -217 66 -142 237 -204 377 -136 60 30 95
65 130 131 21 39 22 54 22 256 0 202 -1 217 -22 256 -35 65 -70 101 -127 129
-64 31 -136 39 -197 22z m99 -415 l3 -153 -33 3 -33 3 -3 140 c-1 76 0 145 3
153 3 8 16 12 32 10 l28 -3 3 -153z M6632 4482 c-71 -26 -118 -66 -156 -132
l-31 -55 0 -215 c0 -202 1 -217 22 -256 35 -66 70 -101 130 -131 141 -69 310
-8 377 136 19 42 21 63 21 251 0 188 -2 209 -21 251 -60 130 -212 197 -342
151z m116 -410 l3 -153 -33 3 -33 3 -3 140 c-1 76 0 145 3 153 3 8 16 12 32
10 l28 -3 3 -153z M4935 3496 c-139 -66 -198 -233 -131 -370 29 -59 64 -94
130 -129 40 -21 53 -22 376 -25 372 -3 389 -1 466 57 163 123 135 379 -51 467
-50 24 -53 24 -395 24 -342 0 -345 0 -395 -24z m728 -185 c22 -12 27 -21 27
-53 0 -99 -32 -111 -317 -116 -256 -5 -347 6 -394 45 -26 22 -30 31 -27 67 3
38 6 42 48 58 40 15 80 17 340 15 231 -2 301 -5 323 -16z M4403 2397 c-61 -23
-118 -72 -148 -128 -26 -47 -30 -64 -30 -134 0 -98 19 -137 98 -212 162 -153
443 -276 742 -324 103 -17 426 -17 530 -1 298 48 580 171 742 325 67 63 94
113 100 187 7 78 -17 146 -73 209 -106 118 -273 121 -407 6 -89 -76 -274 -151
-431 -175 -101 -15 -291 -15 -392 0 -162 25 -337 97 -439 181 -27 22 -63 48
-80 57 -38 20 -169 26 -212 9z m267 -259 c247 -148 442 -198 720 -184 156 7
200 15 331 56 84 27 137 54 317 157 57 33 151 43 188 18 24 -15 26 -22 22 -64
-6 -62 -28 -91 -110 -147 -144 -97 -349 -170 -566 -200 -160 -22 -445 -15
-587 16 -188 40 -346 103 -480 192 -74 50 -103 84 -111 136 -5 33 -2 44 16 62
20 20 30 22 94 18 66 -3 78 -8 166 -60z"/>
</g>
</svg>
