<?xml version="1.0" standalone="no"?>
<!DOCTYPE svg PUBLIC "-//W3C//DTD SVG 20010904//EN"
 "http://www.w3.org/TR/2001/REC-SVG-20010904/DTD/svg10.dtd">
<svg version="1.0" xmlns="http://www.w3.org/2000/svg"
 width="2048.000000pt" height="2048.000000pt" viewBox="0 0 2048.000000 2048.000000"
 preserveAspectRatio="xMidYMid meet">
<metadata>
Created by potrace 1.13, written by Peter Selinger 2001-2015
</metadata>
<g transform="translate(0.000000,2048.000000) scale(0.192120,-0.192120)"
fill="#000000" stroke="none">
<path d="M1320 10324 c-273 -42 -463 -131 -640 -301 -184 -175 -292 -378 -335
-627 -13 -78 -15 -441 -15 -3051 l0 -2962 82 -5 c48 -3 113 -16 155 -30 l73
-24 20 60 c80 240 275 430 527 517 94 32 104 33 248 33 175 1 231 -11 370 -79
144 -70 266 -184 354 -329 43 -72 89 -207 97 -285 4 -34 10 -63 13 -65 3 -2
35 18 71 45 248 187 590 217 865 75 95 -49 208 -137 266 -209 24 -28 47 -56
52 -62 19 -22 -43 128 -74 181 -67 111 -182 172 -290 155 l-49 -8 0 156 0 156
-422 -3 c-233 -2 -451 -1 -485 3 l-62 6 -16 57 c-14 46 -29 68 -88 127 -166
165 -431 246 -706 216 -281 -30 -533 -185 -581 -356 -11 -41 -14 -43 -57 -49
-58 -8 -197 -8 -244 0 -36 6 -36 7 -23 33 8 14 14 34 14 44 0 9 5 17 10 17 7
0 10 157 10 450 0 293 -3 450 -10 450 -5 0 -10 10 -10 23 0 12 -7 35 -15 51
-9 16 -13 32 -9 35 3 3 447 8 987 11 l982 5 -58 27 -58 28 -778 0 c-557 0
-780 3 -783 11 -2 6 -43 16 -91 22 l-87 10 0 38 c0 29 -5 39 -20 44 -19 6 -20
15 -20 346 0 191 -4 339 -9 339 -5 0 -12 16 -15 35 -4 19 -11 35 -15 35 -5 0
-25 25 -46 56 -43 66 -43 65 58 90 83 20 270 15 362 -10 82 -23 196 -78 270
-130 65 -47 162 -146 192 -196 20 -35 17 -35 128 14 502 222 1103 -156 1132
-713 l6 -107 46 -19 c96 -39 169 -91 261 -184 77 -78 105 -113 142 -186 25
-49 51 -109 57 -132 13 -46 16 -48 54 -34 19 8 29 23 41 66 9 30 34 88 55 128
l38 72 -71 -3 c-84 -4 -95 2 -204 119 -75 80 -131 115 -258 163 -39 15 -80 33
-90 41 -17 13 -13 14 47 15 137 0 308 13 303 22 -4 6 -52 39 -108 75 -119 78
-137 97 -172 183 -48 119 -123 269 -163 327 -36 54 -85 105 -233 245 -32 30
-58 59 -58 65 0 22 66 33 197 33 94 0 138 4 148 13 7 6 32 24 57 38 24 14 58
44 76 66 l31 40 -939 5 -940 5 -38 40 c-45 49 -87 71 -147 80 -35 4 -45 10
-45 24 0 15 -8 19 -40 19 l-40 0 0 40 c0 29 -4 40 -15 40 -13 0 -15 43 -15
330 0 213 -4 330 -10 330 -5 0 -10 7 -10 15 0 9 -5 21 -10 28 -6 7 -30 44 -55
82 l-44 70 37 7 c20 4 549 7 1176 7 l1139 1 -35 43 c-20 23 -48 49 -64 57 -16
8 -30 18 -32 23 -2 4 -12 7 -23 7 -10 0 -19 5 -19 10 0 7 -325 10 -955 10
-842 0 -955 2 -955 15 0 11 -12 15 -45 15 l-45 0 0 360 0 360 45 0 c38 0 45 3
45 20 0 20 7 20 955 20 842 0 955 2 955 15 0 8 9 15 20 15 11 0 20 5 20 10 0
6 6 10 14 10 8 0 37 24 65 53 l51 52 -28 6 c-15 4 -543 7 -1175 8 l-1147 1 30
53 c17 28 39 68 48 87 9 19 20 37 25 38 11 6 9 720 -3 727 -5 3 -10 14 -10 23
0 10 -18 48 -40 86 -23 38 -38 76 -36 83 4 11 245 13 1357 13 l1352 0 -7 32
c-9 48 -51 96 -94 108 -24 6 -422 10 -1179 10 -1031 0 -1143 2 -1157 16 -9 9
-29 19 -44 23 -24 7 -27 12 -30 59 -4 60 13 103 87 225 99 162 231 269 422
341 162 61 89 58 1739 57 1502 -2 1758 3 2025 34 321 37 447 46 700 52 161 3
347 1 460 -6 167 -10 566 -49 695 -67 25 -3 626 -9 1335 -13 1288 -7 1290 -7
1374 -29 161 -43 309 -125 419 -233 80 -77 122 -141 167 -249 42 -103 44 -138
9 -179 l-26 -31 -1158 0 c-774 0 -1175 -3 -1208 -11 -56 -11 -92 -44 -117
-101 l-15 -38 1360 0 c1160 0 1361 -2 1366 -14 3 -8 -5 -31 -19 -53 -13 -21
-28 -49 -32 -63 -4 -14 -13 -28 -19 -32 -17 -11 -15 -778 1 -798 7 -8 29 -45
48 -82 l35 -68 -1158 -1 c-636 -1 -1168 -4 -1181 -8 -25 -7 -24 -7 17 -46 58
-53 117 -85 158 -85 22 0 37 -6 40 -15 5 -13 121 -15 960 -15 947 0 954 0 954
-20 0 -13 7 -20 20 -20 20 0 20 -7 20 -360 0 -353 0 -360 -20 -360 -11 0 -20
-7 -20 -15 0 -13 -113 -15 -955 -15 -630 0 -955 -3 -955 -10 0 -5 -20 -10 -45
-10 -25 0 -45 -4 -45 -9 0 -5 -12 -12 -27 -15 -14 -4 -46 -28 -70 -54 l-45
-47 1170 -5 c644 -3 1173 -7 1175 -10 3 -3 -17 -41 -44 -85 -27 -44 -49 -88
-49 -97 0 -10 -4 -18 -10 -18 -6 0 -10 -27 -10 -60 0 -33 -4 -60 -10 -60 -5 0
-10 -14 -10 -31 0 -22 -5 -32 -20 -36 -11 -3 -20 -13 -20 -22 0 -12 -16 -22
-52 -34 -82 -26 -201 -91 -284 -154 -145 -111 -152 -115 -219 -110 -33 3 -107
12 -165 22 -224 36 -484 -20 -662 -143 -101 -70 -137 -124 -145 -214 l-6 -58
-76 -1 c-42 -1 -185 -5 -318 -8 l-243 -6 38 -41 c40 -45 123 -94 159 -94 13 0
23 -4 23 -10 0 -5 20 -10 45 -10 37 0 47 -4 61 -26 16 -24 16 -30 0 -106 -20
-90 -54 -176 -79 -197 -10 -7 -17 -19 -17 -27 0 -7 -9 -15 -20 -19 -38 -12
-163 -152 -244 -275 -89 -133 -112 -158 -219 -238 l-68 -50 53 -7 c29 -3 95
-5 146 -3 l94 3 23 58 c76 186 259 361 458 436 26 10 27 12 27 93 0 275 168
551 423 697 29 16 95 44 147 62 83 29 111 33 226 37 152 5 247 -14 371 -72
l71 -34 25 36 c91 136 244 251 406 307 70 23 237 52 247 42 3 -2 -16 -47 -42
-98 l-47 -94 -4 -126 c-4 -113 -3 -131 17 -173 12 -27 18 -51 15 -54 -4 -4
-317 -9 -697 -12 l-690 -5 34 -25 33 -25 360 -1 c198 -1 464 -5 592 -10 213
-6 232 -9 236 -26 3 -10 12 -18 21 -18 14 0 16 -41 16 -404 0 -395 0 -404 -20
-409 -16 -4 -20 -14 -20 -46 l0 -41 -97 -1 c-54 0 -120 -5 -148 -11 -32 -7
-331 -13 -830 -17 -774 -6 -781 -7 -860 -29 -44 -13 -82 -25 -84 -28 -2 -2
455 -4 1016 -4 561 0 1048 -3 1081 -6 l61 -7 -22 -41 c-22 -41 -22 -46 -22
-516 0 -449 1 -477 19 -503 10 -15 15 -31 12 -35 -10 -9 -1213 -15 -1384 -7
l-132 7 -48 39 c-81 68 -136 83 -292 84 -131 0 -137 -1 -200 -31 -36 -17 -83
-46 -104 -64 l-38 -34 -244 0 -244 -1 0 -310 0 -310 -49 -52 c-52 -55 -86 -77
-141 -88 -46 -9 -105 -48 -157 -104 -45 -48 -55 -68 -25 -56 119 51 253 85
338 85 l44 0 0 63 c0 88 32 206 84 312 187 378 628 550 1034 403 199 -72 396
-259 466 -441 16 -42 36 -63 36 -38 0 19 153 132 232 171 124 60 219 82 363
82 189 0 345 -52 490 -163 l65 -50 -3 3108 c-3 2858 -4 3113 -19 3173 -58 223
-142 381 -285 530 -160 169 -333 267 -572 328 -61 15 -367 16 -4086 18 -2211
1 -4031 0 -4045 -2z m8055 -6786 c33 -15 32 -33 -2 -55 -16 -10 -30 -20 -33
-23 -9 -11 -96 -50 -111 -50 -27 0 -74 37 -93 73 -31 57 -15 67 110 67 57 0
114 -5 129 -12z m-6947 -4 c26 -8 28 -22 5 -40 -26 -19 -51 -17 -58 6 -11 36
5 46 53 34z M5450 10039 c-323 -37 -655 -155 -933 -332 l-77 -49 -63 11 c-90
16 -259 14 -363 -4 -255 -44 -483 -160 -676 -343 -246 -234 -396 -512 -476
-881 l-27 -126 0 -1325 c0 -1397 0 -1383 46 -1628 39 -201 121 -447 208 -619
44 -88 148 -273 162 -287 5 -6 31 15 65 52 95 106 206 175 364 228 l85 29 503
3 502 3 0 97 0 97 -88 28 c-48 16 -136 52 -197 81 -504 240 -885 674 -1030
1172 -58 198 -63 265 -66 807 l-3 498 108 44 c196 80 358 188 525 349 178 174
297 337 400 551 32 66 63 131 68 144 9 23 11 21 55 -45 162 -242 443 -472 789
-645 475 -237 998 -358 1700 -391 l246 -11 -4 -371 c-6 -721 -10 -757 -89
-995 -157 -472 -533 -883 -1017 -1111 -56 -26 -141 -61 -189 -77 l-88 -28 0
-97 0 -97 503 -3 502 -3 85 -29 c149 -50 265 -120 349 -211 34 -36 46 -44 53
-34 32 49 148 247 180 309 94 184 191 475 228 686 40 230 41 299 38 1464 l-4
1125 -26 155 c-50 292 -109 484 -218 705 -311 635 -862 1014 -1600 1100 -134
16 -407 18 -530 4z m530 -249 c461 -56 845 -237 1125 -532 177 -187 342 -516
420 -841 68 -286 66 -222 63 -1652 l-4 -1290 -31 -115 c-64 -233 -136 -396
-202 -454 -31 -28 -65 -22 -176 30 -97 45 -298 104 -356 104 -41 0 -99 26 -99
44 0 8 60 75 133 148 263 263 456 572 566 905 84 255 81 225 81 854 0 321 -4
559 -9 559 -5 0 -12 11 -15 24 -8 33 -139 171 -191 202 -64 37 -91 42 -274 54
-582 36 -980 114 -1365 267 -338 133 -569 280 -799 506 -206 202 -268 247
-343 247 -89 0 -223 -129 -366 -353 -119 -188 -157 -238 -257 -337 -99 -99
-200 -173 -347 -255 -176 -99 -234 -147 -330 -278 l-44 -59 0 -582 0 -582 30
-120 c68 -280 223 -591 419 -839 30 -38 116 -132 190 -208 75 -75 137 -141
138 -145 7 -21 -50 -52 -96 -52 -73 0 -268 -61 -386 -120 -66 -33 -132 -60
-146 -60 -61 0 -132 136 -199 378 -64 232 -61 159 -58 1677 l3 1380 23 105
c49 222 117 381 244 567 85 126 168 212 263 274 212 139 387 189 665 189 196
0 234 10 416 105 276 145 504 221 764 254 95 12 452 13 550 1z M4480 6988
c-84 -24 -143 -103 -143 -193 0 -172 201 -265 330 -152 95 84 95 220 0 304
-55 48 -116 62 -187 41z M6056 6985 c-49 -17 -93 -59 -117 -110 -68 -146 68
-312 225 -276 206 47 214 335 11 390 -51 14 -71 13 -119 -4z M5050 6428 c0 -6
7 -38 16 -70 20 -71 84 -148 142 -171 128 -51 273 -17 343 81 25 34 59 127 59
159 0 10 -55 13 -280 13 -209 0 -280 -3 -280 -12z M4500 5876 c0 -21 81 -125
142 -183 187 -175 472 -258 796 -232 254 20 436 95 589 242 61 58 133 154 133
176 0 8 -242 11 -830 11 -702 0 -830 -2 -830 -14z M4934 4878 c14 -25 26 -50
26 -57 0 -6 -23 -26 -51 -44 l-52 -32 34 -13 c123 -51 384 -89 533 -78 141 11
339 57 370 86 4 4 -8 16 -27 25 -19 9 -43 26 -53 37 -18 19 -18 21 9 69 15 27
24 49 19 49 -4 0 -47 -7 -97 -16 -144 -24 -398 -29 -545 -10 -69 9 -140 19
-159 23 l-33 6 26 -45z M7480 4317 c0 -3 9 -28 19 -55 35 -88 53 -203 58 -370
4 -102 9 -160 15 -154 6 6 8 99 6 228 -4 196 -6 224 -25 264 -18 39 -73 105
-73 87z M3080 3873 c0 -182 18 -194 22 -15 2 109 0 142 -9 142 -10 0 -13 -32
-13 -127z M3660 3002 l0 -938 31 -30 c89 -84 172 -221 214 -354 21 -67 27
-107 29 -188 1 -98 2 -103 21 -97 11 3 47 13 80 23 45 13 95 17 200 16 129 -1
148 -3 235 -32 293 -97 505 -335 566 -632 22 -109 15 -276 -15 -370 -11 -36
-21 -66 -21 -67 0 -2 147 -3 328 -3 l327 0 42 88 c23 48 69 121 102 162 53 66
58 75 40 78 -29 5 -71 -15 -90 -41 -9 -12 -31 -59 -50 -105 -18 -46 -46 -97
-61 -115 l-27 -32 -1 1236 c0 1271 -2 1350 -41 1544 -36 179 -118 393 -186
483 l-24 32 123 0 123 1 -35 18 c-87 46 -151 50 -189 12 -18 -18 -20 -17 -76
50 -31 37 -72 80 -92 94 -19 15 -32 29 -30 32 3 2 23 -1 46 -7 61 -16 126 -15
152 4 34 23 41 21 103 -30 171 -139 305 -393 365 -689 40 -197 43 -313 39
-1417 l-3 -1056 25 20 c148 116 328 187 471 188 l55 0 11 93 c31 257 160 465
381 613 2 1 -10 29 -27 62 -147 291 -89 662 143 919 l56 61 0 656 0 656 -1670
0 -1670 0 0 -938z m1662 606 c-38 -73 -35 -131 16 -302 l42 -139 0 -1299 0
-1299 -47 3 c-39 2 -49 7 -51 23 -2 11 -10 27 -17 35 -7 8 -16 38 -19 65 -25
183 -114 405 -217 540 -199 262 -460 408 -758 422 -141 7 -138 5 -226 188 -34
72 -83 160 -108 198 -33 46 -47 77 -47 100 0 18 -6 41 -14 52 -10 16 -14 145
-20 650 -4 383 -11 631 -16 633 -6 2 -10 12 -10 22 0 10 -3 20 -7 22 -8 3 -73
122 -73 132 0 3 360 6 800 6 l799 0 -27 -52z m1568 44 c0 -4 -16 -29 -35 -56
-19 -27 -35 -55 -35 -63 0 -7 -4 -13 -10 -13 -5 0 -10 -9 -10 -20 0 -11 -4
-20 -10 -20 -6 0 -10 -123 -10 -347 0 -330 -1 -350 -20 -378 -11 -16 -20 -44
-20 -60 0 -20 -17 -56 -46 -100 -52 -79 -114 -204 -147 -297 -21 -60 -22 -78
-22 -373 l0 -310 -68 -85 c-47 -59 -91 -131 -143 -235 -52 -105 -85 -160 -111
-183 -47 -42 -70 -42 -81 1 -4 17 -12 30 -17 29 -4 -2 -12 2 -16 10 -5 7 -9
405 -9 884 0 941 -2 981 -55 1203 -43 179 -95 264 -223 367 -31 26 -59 48 -61
50 -2 2 255 4 572 4 318 0 577 -3 577 -8z M333 2280 l2 -1025 28 -100 c106
-386 406 -686 795 -793 l97 -27 1845 -2 c1742 -2 1844 -1 1822 15 -13 9 -51
34 -85 55 l-61 37 -463 0 c-405 0 -463 2 -463 15 0 11 -12 15 -45 15 l-45 0 0
40 c0 27 -5 43 -15 46 -13 5 -15 59 -15 398 0 277 -3 395 -11 403 -6 6 -15 69
-20 140 -20 300 -27 209 -28 -387 -1 -592 -6 -740 -22 -740 -5 0 -14 6 -20 13
-10 10 -19 10 -48 -3 -30 -13 -61 -15 -177 -11 -127 5 -144 8 -176 30 -19 14
-44 37 -54 52 -17 25 -20 26 -25 10 -7 -17 -52 -18 -906 -24 -968 -8 -984 -7
-1135 44 -259 87 -495 293 -606 529 -50 106 -101 298 -102 378 0 28 -4 52 -10
52 -7 0 -10 192 -10 555 0 363 3 555 10 555 6 0 10 111 10 314 0 199 -4 317
-10 321 -5 3 -10 17 -10 31 0 13 -4 24 -8 24 -5 0 -16 15 -25 33 -15 30 -16
-39 -14 -993z M10297 3098 c-15 -32 -32 -58 -37 -58 -6 0 -10 -93 -10 -245 0
-211 2 -245 15 -245 13 0 15 -68 15 -555 0 -487 -2 -555 -15 -555 -12 0 -15
-13 -15 -55 0 -66 -49 -263 -87 -348 -132 -299 -412 -521 -731 -583 -60 -11
-242 -14 -992 -14 -805 0 -920 2 -927 15 -7 12 -15 8 -42 -20 -55 -58 -73 -63
-232 -66 -79 -1 -152 2 -162 6 -10 4 -27 1 -43 -10 -14 -9 -28 -15 -30 -12 -2
2 -4 426 -5 943 -1 516 -4 959 -8 984 -7 45 -7 45 -20 -40 -11 -65 -13 -153
-8 -385 7 -280 6 -307 -13 -395 -12 -51 -24 -98 -27 -104 -4 -5 -10 -181 -14
-390 -4 -210 -11 -393 -14 -408 -4 -16 -14 -28 -21 -28 -8 0 -19 -11 -24 -25
l-10 -25 -277 0 c-153 0 -342 -5 -419 -10 -113 -8 -152 -7 -195 4 -30 8 -54
14 -55 13 -1 -1 -4 -37 -8 -80 l-7 -77 1763 2 1763 3 97 27 c390 107 689 406
795 793 l28 100 3 790 c1 435 1 862 0 950 l-3 160 -28 -57z"/>
</g>
</svg>
