<?xml version="1.0" standalone="no"?>
<!DOCTYPE svg PUBLIC "-//W3C//DTD SVG 20010904//EN"
 "http://www.w3.org/TR/2001/REC-SVG-20010904/DTD/svg10.dtd">
<svg version="1.0" xmlns="http://www.w3.org/2000/svg"
 width="2048.000000pt" height="2048.000000pt" viewBox="0 0 2048.000000 2048.000000"
 preserveAspectRatio="xMidYMid meet">
<metadata>
Created by potrace 1.13, written by Peter Selinger 2001-2015
</metadata>
<g transform="translate(0.000000,2048.000000) scale(0.192120,-0.192120)"
fill="#000000" stroke="none">
<path d="M5175 9629 c-592 -32 -1230 -274 -1740 -658 -186 -140 -428 -376
-575 -561 -401 -504 -648 -1141 -725 -1870 -8 -79 -19 -147 -23 -151 -4 -3
-54 -28 -112 -54 -372 -167 -822 -454 -1062 -677 l-58 -53 16 -85 c53 -296
337 -875 769 -1565 147 -236 377 -579 503 -753 43 -59 97 -146 120 -194 35
-73 54 -98 117 -155 42 -37 97 -95 123 -128 26 -33 79 -96 118 -140 l71 -80
-81 -23 c-530 -150 -970 -589 -1126 -1126 -57 -194 -62 -241 -67 -649 l-5
-377 3891 0 3891 0 0 309 c0 170 -5 355 -11 412 -58 573 -402 1071 -914 1323
-117 58 -301 126 -341 126 -9 0 15 33 58 83 40 45 94 109 120 142 26 33 81 90
121 127 62 56 82 82 118 155 24 48 77 135 119 193 265 365 607 902 838 1317
247 443 398 790 436 1003 l16 85 -53 49 c-243 227 -658 493 -1047 672 -74 35
-138 69 -142 76 -3 7 -11 66 -18 131 -14 146 -76 453 -130 650 -234 850 -743
1530 -1481 1978 -433 263 -983 443 -1414 464 -60 3 -128 7 -150 8 -22 2 -98 0
-170 -4z m515 -328 c841 -135 1607 -618 2057 -1296 147 -223 271 -489 359
-771 28 -90 38 -142 42 -214 5 -110 8 -106 -88 -139 -36 -13 -144 -63 -240
-112 -124 -63 -185 -89 -211 -89 -40 0 -75 21 -171 102 -187 158 -441 284
-723 358 -139 36 -314 60 -520 71 -316 16 -483 42 -730 115 -248 73 -556 199
-858 350 -334 168 -343 165 -802 -284 -160 -157 -368 -348 -484 -446 -259
-216 -286 -236 -327 -236 -19 0 -89 29 -182 74 -83 41 -186 87 -229 102 -43
15 -84 32 -91 37 -17 13 -15 121 4 204 52 225 188 555 320 774 166 275 417
563 664 759 452 358 1029 598 1590 659 136 15 476 5 620 -18z m-1076 -1867
c286 -145 646 -287 901 -354 93 -25 179 -43 360 -75 17 -3 130 -10 251 -15
249 -10 385 -28 556 -71 308 -77 545 -203 729 -388 52 -53 107 -111 120 -130
l26 -35 89 56 c315 196 563 306 663 295 27 -3 50 -12 58 -23 28 -39 8 -302
-43 -554 -120 -599 -356 -962 -635 -978 l-66 -4 -18 -77 c-47 -202 -155 -491
-265 -711 -227 -453 -563 -847 -918 -1075 l-62 -40 0 -352 0 -353 76 0 77 0
-7 -52 c-4 -29 -23 -100 -42 -157 -105 -317 -395 -780 -910 -1456 -157 -205
-145 -203 81 15 349 335 491 504 690 823 194 311 328 642 310 767 -8 54 -34
107 -69 139 -20 19 -26 34 -26 67 0 25 -6 47 -15 54 -11 9 -15 33 -15 86 0 64
-5 85 -41 166 -48 110 -75 186 -67 193 12 12 301 -82 798 -260 350 -125 514
-167 713 -182 l98 -8 -62 -45 c-115 -83 -136 -137 -74 -187 19 -15 35 -33 35
-39 0 -18 -216 -222 -345 -325 -169 -135 -471 -358 -735 -544 -218 -153 -1106
-745 -1368 -913 l-130 -82 -208 132 c-261 165 -1010 665 -1244 828 -272 191
-537 386 -723 531 -170 133 -407 351 -407 373 0 7 13 22 30 34 64 48 47 99
-62 184 l-68 53 38 2 c270 19 423 60 1023 276 240 87 492 167 522 167 24 0 21
-19 -18 -120 -19 -49 -35 -96 -35 -103 0 -7 -4 -17 -9 -22 -5 -6 -11 -39 -14
-75 -6 -83 -27 -162 -49 -187 -10 -11 -18 -27 -18 -36 0 -9 -14 -38 -30 -64
-47 -73 -41 -153 28 -358 79 -236 370 -721 570 -950 158 -180 424 -442 542
-535 l45 -35 -48 60 c-114 144 -404 533 -505 680 -218 316 -392 617 -472 819
-32 81 -70 224 -70 264 0 21 4 22 75 22 l75 0 0 343 0 342 -57 34 c-227 136
-509 409 -706 684 -222 309 -407 709 -507 1092 l-28 110 -54 8 c-166 23 -323
174 -440 424 -121 257 -228 732 -228 1007 0 107 5 116 73 123 86 10 369 -112
597 -256 l95 -60 29 37 c58 73 183 189 327 304 184 146 328 280 648 602 l255
255 80 -45 c45 -25 148 -79 230 -120z m-2507 -1511 c-8 -394 7 -1650 23 -1956
10 -196 35 -501 46 -562 8 -48 -7 -17 -120 242 -136 314 -155 350 -379 735
-201 345 -351 635 -442 853 -46 112 -65 181 -65 236 0 43 4 51 35 76 19 15 35
35 35 45 0 28 230 187 476 328 164 94 213 135 329 279 31 39 60 71 63 71 3 0
2 -156 -1 -347z m6493 295 c72 -90 146 -165 189 -190 22 -13 41 -27 41 -33 0
-5 49 -37 108 -69 127 -70 332 -203 454 -294 67 -50 88 -71 88 -89 0 -12 4
-23 9 -23 5 0 12 -12 15 -27 24 -111 -215 -622 -567 -1213 -44 -74 -92 -153
-107 -175 -51 -76 -130 -235 -226 -457 -53 -123 -103 -234 -110 -248 l-15 -25
5 30 c12 65 36 371 46 570 15 290 29 1504 22 1938 -2 196 -2 357 1 357 3 0 24
-24 47 -52z m-6273 -740 c13 -12 23 -25 23 -29 0 -11 107 -178 151 -236 62
-79 169 -176 248 -223 84 -50 94 -65 161 -248 205 -553 438 -940 783 -1299 88
-91 127 -139 123 -149 -3 -9 -6 -19 -6 -24 0 -28 -551 -226 -800 -287 -143
-36 -277 -38 -337 -5 -90 48 -147 116 -242 292 -62 112 -84 178 -113 322 -22
111 -22 129 -26 1011 -1 493 0 897 4 897 4 0 18 -10 31 -22z m6021 -1048 l-4
-795 -32 -124 c-36 -138 -80 -233 -166 -363 -95 -144 -176 -198 -295 -198 -65
0 -257 42 -391 85 -185 60 -527 183 -586 211 -81 38 -77 57 37 175 353 367
604 784 800 1332 52 148 69 172 143 209 174 87 257 174 434 453 61 95 57 99
60 -52 1 -76 1 -496 0 -933z m-5587 -2245 c16 -9 82 -60 147 -113 360 -300
742 -576 1585 -1143 336 -226 402 -277 384 -296 -20 -19 -243 -23 -1619 -23
l-1538 0 0 274 c0 213 3 290 16 343 83 362 342 681 700 862 106 54 244 110
272 111 13 0 36 -7 53 -15z m5284 -15 c305 -121 539 -301 689 -529 79 -119
117 -200 157 -334 l29 -100 0 -298 0 -299 -1552 2 c-1667 3 -1618 2 -1585 51
8 12 216 157 463 322 700 468 1156 797 1481 1068 88 74 167 137 175 140 30 12
71 5 143 -23z M4219 6142 c-66 -34 -114 -94 -128 -162 -12 -55 -15 -281 -5
-343 4 -20 21 -61 38 -89 97 -163 338 -154 429 16 20 38 22 54 22 236 0 182
-1 198 -22 236 -65 122 -213 169 -334 106z m186 -144 l25 -11 0 -182 c0 -168
-1 -183 -20 -203 -38 -41 -113 -41 -164 -1 l-26 20 0 179 0 179 28 15 c33 18
121 21 157 4z M6211 6144 c-56 -28 -101 -80 -123 -142 -9 -25 -13 -93 -13
-207 0 -166 1 -171 28 -227 43 -89 121 -137 222 -137 94 -1 179 55 221 144 22
47 24 62 24 225 0 163 -2 179 -24 226 -60 129 -208 181 -335 118z m191 -148
c16 -10 18 -29 18 -188 0 -97 -3 -184 -6 -193 -9 -22 -57 -45 -97 -45 -19 0
-49 10 -68 23 l-34 23 -3 181 c-2 179 -2 182 20 194 55 30 128 32 170 5z
M5009 4927 c-36 -24 -58 -71 -58 -122 0 -51 22 -98 58 -122 33 -23 39 -23 323
-23 l288 0 38 34 c37 34 37 35 37 111 0 76 0 77 -37 111 l-38 34 -288 0 c-284
0 -290 0 -323 -23z M6208 4401 c-15 -5 -42 -20 -60 -34 -175 -134 -810 -189
-1278 -111 -113 19 -268 67 -301 93 -75 58 -155 67 -224 26 -49 -28 -69 -55
-85 -113 -16 -60 0 -107 66 -198 51 -72 54 -80 49 -119 -4 -23 -2 -61 5 -84
18 -69 298 -623 331 -656 26 -27 36 -30 89 -30 53 0 63 3 90 30 18 18 58 93
99 185 62 138 72 155 93 153 13 0 77 -6 143 -12 105 -9 226 -5 379 12 15 2 32
-28 88 -153 38 -85 77 -163 86 -174 30 -32 73 -49 117 -44 80 10 86 18 253
358 146 297 155 319 160 385 4 66 8 75 65 157 48 71 61 97 65 137 9 98 -61
185 -158 196 -25 2 -57 0 -72 -4z m-1407 -352 c73 -17 153 -41 175 -54 40 -23
74 -74 74 -109 0 -8 -46 -120 -103 -248 -57 -128 -112 -254 -123 -280 -10 -27
-21 -48 -24 -48 -7 0 -284 578 -288 601 -9 50 40 132 92 155 42 18 45 18 197
-17z m1298 4 c41 -31 63 -68 68 -114 4 -40 -7 -68 -140 -339 l-145 -295 -22
50 c-12 28 -69 157 -127 287 -99 226 -104 240 -93 272 13 40 68 93 108 103
263 67 303 71 351 36z m-679 -162 c0 -83 -4 -142 -10 -146 -5 -3 -10 -15 -10
-26 0 -17 -7 -19 -60 -19 -54 0 -61 2 -69 23 -7 19 -16 242 -12 295 1 8 24 12
81 12 l80 0 0 -139z M6155 3139 c-223 -107 -452 -169 -706 -190 -311 -26 -665
41 -957 181 -58 28 -108 50 -113 50 -4 0 -1 -21 8 -46 12 -36 13 -51 4 -70 -6
-14 -11 -29 -11 -34 0 -16 120 -100 203 -141 155 -79 344 -128 577 -150 378
-36 829 63 1044 228 63 49 75 67 58 93 -16 26 -15 50 4 95 8 20 14 38 12 40
-2 1 -57 -24 -123 -56z"/>
</g>
</svg>
