<?xml version="1.0" standalone="no"?>
<!DOCTYPE svg PUBLIC "-//W3C//DTD SVG 20010904//EN"
 "http://www.w3.org/TR/2001/REC-SVG-20010904/DTD/svg10.dtd">
<svg version="1.0" xmlns="http://www.w3.org/2000/svg"
 width="2048.000000pt" height="2048.000000pt" viewBox="0 0 2048.000000 2048.000000"
 preserveAspectRatio="xMidYMid meet">
<metadata>
Created by potrace 1.13, written by Peter Selinger 2001-2015
</metadata>
<g transform="translate(0.000000,2048.000000) scale(0.192120,-0.192120)"
fill="#000000" stroke="none">
<path d="M5274 10288 c-131 -139 -352 -533 -785 -1398 -358 -717 -911 -1880
-1249 -2628 -48 -105 -70 -144 -85 -147 -11 -2 -94 -18 -185 -36 -306 -59
-626 -147 -874 -240 -139 -52 -341 -142 -366 -162 -13 -10 -14 -41 -10 -200
l5 -187 50 82 c90 149 111 163 375 253 214 73 698 205 750 205 5 0 10 -7 10
-16 0 -15 11 -15 118 1 34 6 27 -20 -16 -59 -43 -40 -76 -106 -92 -186 l-11
-56 -222 -48 c-174 -38 -828 -198 -945 -232 l-22 -6 0 -334 0 -333 28 -15 c66
-33 414 -141 609 -187 190 -45 503 -106 503 -98 0 5 -26 35 -58 67 -71 71
-140 205 -173 337 -31 122 -34 387 -6 480 55 177 159 269 340 300 l37 6 -16
31 c-9 16 -12 34 -7 38 14 13 646 106 908 134 1148 123 2350 97 3450 -74 322
-51 450 -73 459 -81 5 -4 -1 -20 -13 -35 l-22 -28 68 -31 c117 -55 186 -152
219 -307 22 -102 14 -321 -16 -438 -33 -130 -99 -258 -170 -331 -33 -34 -60
-65 -60 -69 0 -8 308 52 505 100 635 152 1062 362 1164 573 81 167 -24 391
-271 577 -323 244 -859 444 -1553 580 -87 17 -160 32 -161 33 0 1 -34 74 -74
162 -581 1278 -1385 2932 -1703 3500 -200 357 -329 545 -377 545 -9 0 -34 -19
-56 -42z m98 -395 c40 -43 129 -198 310 -543 353 -672 710 -1406 1295 -2665
270 -579 257 -554 303 -622 49 -74 209 -223 239 -223 6 0 11 -6 11 -14 0 -22
-89 -19 -343 14 -128 16 -313 34 -412 40 -99 6 -256 17 -350 25 -633 54 -1453
57 -2070 9 -104 -8 -275 -19 -380 -24 -104 -5 -311 -26 -460 -45 -271 -35
-370 -41 -382 -22 -4 6 -1 13 5 15 16 5 110 78 155 121 67 63 112 147 320 596
575 1238 980 2076 1305 2700 269 518 360 665 411 665 10 0 29 -12 43 -27z
m-2265 -4085 c-3 -8 -6 -5 -6 6 -1 11 2 17 5 13 3 -3 4 -12 1 -19z m-27 -4 c0
-8 -4 -12 -10 -9 -5 3 -10 10 -10 16 0 5 5 9 10 9 6 0 10 -7 10 -16z m4878
-19 c344 -82 793 -235 1020 -349 181 -91 390 -247 435 -325 10 -17 16 -31 14
-31 -3 0 -94 27 -203 61 -393 119 -751 213 -1154 304 -113 25 -212 48 -221 51
-12 3 -18 22 -23 62 -10 84 -71 202 -106 202 -6 0 -10 7 -10 16 0 15 9 16 65
11 53 -5 65 -4 65 8 0 19 -9 20 118 -10z m-5616 -1098 c-10 -39 1 -40 -209 20
l-163 47 0 142 0 143 38 11 c20 6 105 28 187 49 l150 37 3 -208 c1 -115 -1
-223 -6 -241z m6213 388 c497 -127 517 -137 395 -207 -125 -72 -625 -237 -648
-214 -10 11 -15 263 -7 384 6 89 9 102 23 98 10 -3 116 -30 237 -61z M1332
9490 c-216 -30 -409 -141 -547 -315 -55 -69 -127 -213 -151 -300 -21 -82 -29
-265 -15 -349 28 -163 112 -326 231 -448 37 -39 64 -76 70 -98 5 -19 61 -236
124 -483 l116 -447 0 -2263 0 -2263 -62 -13 c-232 -48 -402 -204 -464 -426
-40 -146 -26 -414 29 -566 l23 -64 -27 -60 c-46 -105 -49 -137 -49 -615 l0
-450 4305 0 4305 0 0 309 c0 328 -9 461 -41 606 -127 573 -552 1041 -1110
1224 -168 55 -274 72 -494 78 l-200 5 -18 -63 c-21 -72 -89 -221 -140 -307
-31 -52 -35 -67 -41 -158 -21 -349 -205 -597 -481 -647 l-70 -13 -7 -90 c-16
-220 -115 -366 -288 -426 -85 -30 -279 -32 -379 -4 l-65 18 -33 -41 c-72 -86
-225 -165 -383 -197 -222 -45 -495 31 -643 179 l-57 57 -63 -17 c-42 -11 -102
-17 -187 -17 -105 -1 -135 3 -190 22 -173 59 -272 206 -288 426 l-7 89 -70 14
c-279 54 -460 298 -481 647 -6 91 -10 106 -41 158 -51 86 -119 235 -140 307
l-18 63 -195 -5 c-145 -3 -222 -10 -302 -26 -191 -39 -408 -124 -558 -219 -30
-19 -56 -35 -57 -36 -2 -1 13 -34 31 -72 48 -97 66 -189 66 -337 0 -195 -35
-343 -121 -509 -115 -219 -320 -390 -534 -443 -98 -24 -257 -23 -357 4 -216
57 -415 223 -521 437 l-41 82 46 44 c56 55 58 68 58 358 l0 217 32 62 c43 83
111 149 209 202 95 51 126 90 136 167 l6 51 46 8 c60 10 363 10 424 0 45 -8
47 -9 47 -43 0 -97 83 -174 247 -230 54 -18 134 -14 179 9 l27 14 -47 51 c-27
28 -70 65 -97 83 -61 39 -179 85 -241 94 l-48 7 0 972 c0 534 -3 981 -6 994
-6 21 -10 22 -53 16 -58 -8 -89 -24 -123 -63 l-28 -31 0 -800 0 -800 -25 0
c-22 0 -25 -4 -25 -40 0 -36 -2 -40 -25 -40 -22 0 -25 4 -25 40 0 32 -4 40
-19 40 -20 0 -21 27 -40 3195 l-6 1130 -53 200 c-99 372 -121 446 -158 517 -8
16 -14 31 -12 33 2 1 25 -3 51 -10 l48 -12 -24 26 c-14 14 -45 64 -69 111 -24
47 -61 116 -82 153 -50 92 -46 102 26 71 230 -97 435 -60 603 111 77 78 122
147 166 255 27 68 29 80 29 215 0 97 -5 163 -16 204 -9 36 -12 67 -7 76 13 22
102 -70 142 -145 l31 -58 0 -210 c0 -156 -4 -220 -14 -250 -15 -42 -78 -142
-154 -247 -24 -33 -59 -89 -78 -125 -47 -89 -70 -129 -87 -148 -30 -36 -27
-39 21 -27 26 7 48 12 50 10 1 -1 -13 -35 -32 -76 -47 -102 -56 -133 -131
-421 l-65 -254 0 -681 c0 -584 2 -685 15 -709 8 -16 15 -25 15 -21 0 4 15 -3
33 -17 18 -14 51 -28 73 -32 40 -6 41 -5 48 26 3 18 6 327 6 687 l0 654 126
487 126 487 62 65 c100 105 163 209 206 345 34 106 39 310 11 427 -59 250
-216 446 -446 559 -140 68 -325 99 -473 79z m121 -300 c107 -40 195 -129 240
-244 16 -38 21 -75 21 -146 1 -88 -2 -101 -33 -167 -80 -171 -247 -263 -438
-241 -173 19 -327 172 -351 348 -29 212 98 405 308 466 62 19 182 11 253 -16z
m1649 -6902 c33 -23 90 -89 105 -120 5 -13 20 -43 32 -66 11 -24 21 -54 21
-67 0 -41 38 -219 64 -299 48 -146 100 -231 211 -341 68 -68 123 -113 172
-140 47 -26 74 -48 78 -62 3 -13 10 -23 15 -23 5 0 36 -53 69 -117 64 -125 76
-141 174 -241 74 -76 127 -114 210 -152 122 -54 155 -52 242 19 l59 47 111
-112 c60 -61 135 -128 165 -148 30 -20 50 -36 45 -36 -24 0 -209 52 -305 86
l-105 36 -1242 -2 c-1123 -1 -1243 0 -1243 14 0 12 -10 16 -40 16 l-40 0 0
104 0 103 40 28 c22 15 40 35 40 44 0 9 25 36 56 61 184 147 317 369 388 646
12 45 16 113 17 245 0 210 10 321 28 327 7 2 16 14 21 27 16 43 279 126 457
144 90 9 118 5 155 -21z m4671 11 c349 -46 693 -250 916 -543 218 -285 301
-558 301 -985 0 -184 -1 -191 -20 -191 -11 0 -20 -7 -20 -16 0 -14 -136 -15
-1372 -14 l-1373 2 -90 -32 c-87 -30 -305 -90 -327 -90 -6 0 20 22 59 49 38
27 112 95 165 151 53 55 99 97 102 92 12 -20 101 -72 138 -82 29 -8 52 -7 100
5 94 25 163 69 263 169 79 80 98 107 160 224 39 74 76 145 83 158 7 13 18 24
25 24 17 0 136 77 191 124 158 134 266 357 306 631 21 142 131 326 201 337 29
5 89 0 192 -13z m-6483 -1490 c3 -3 21 -15 41 -27 29 -18 52 -22 112 -22 41 0
77 4 79 8 2 4 23 20 48 34 25 15 65 47 90 71 30 30 47 41 52 34 9 -14 11 -481
2 -490 -3 -3 -40 12 -81 34 -42 21 -84 39 -94 39 -11 0 -19 5 -19 10 0 12
-177 14 -182 3 -1 -5 -40 -27 -84 -50 l-82 -42 -6 37 c-8 49 -8 367 0 426 l7
47 56 -53 c30 -29 58 -55 61 -59z m-368 19 l48 -33 0 -107 0 -108 -55 0 -55 0
0 140 c0 77 3 140 7 140 4 0 29 -15 55 -32z M3791 5470 c-151 -88 -368 -149
-488 -137 -29 3 -53 3 -53 1 0 -3 7 -19 16 -36 86 -167 136 -530 114 -830 -16
-220 -52 -388 -114 -529 -5 -12 4 -18 47 -28 66 -14 150 -63 231 -135 l61 -53
70 64 c215 198 478 346 722 407 145 37 261 49 411 44 l133 -5 -81 42 c-180 94
-205 96 -488 25 -335 -84 -419 -122 -681 -311 -58 -42 -111 -47 -171 -16 -40
21 -46 28 -54 69 -6 32 -4 83 8 170 21 159 22 633 2 788 -7 58 -11 121 -8 139
8 53 56 96 130 116 34 10 62 21 62 25 0 4 19 20 41 35 96 63 224 208 182 204
-5 0 -46 -22 -92 -49z M6893 5494 c-10 -28 30 -86 88 -124 12 -8 36 -26 53
-40 17 -14 56 -37 86 -50 30 -13 63 -33 72 -45 22 -25 23 -87 3 -215 -11 -73
-15 -201 -15 -548 0 -293 -4 -460 -10 -473 -15 -27 -82 -59 -124 -59 -25 0
-53 13 -98 44 -281 197 -346 227 -688 318 -141 37 -163 40 -246 36 -83 -5 -99
-9 -194 -54 l-102 -49 163 -1 c189 -1 301 -18 455 -69 205 -68 427 -200 609
-363 l101 -89 63 57 c80 73 170 126 238 141 43 10 52 16 47 28 -62 142 -100
316 -115 533 -21 297 28 656 112 820 10 20 19 40 19 43 0 3 -17 5 -37 5 -90 1
-229 46 -372 121 -52 27 -96 49 -98 49 -2 0 -6 -7 -10 -16z M4120 5393 c-27
-10 -65 -37 -96 -68 -74 -74 -84 -114 -84 -330 0 -207 10 -251 75 -323 62 -69
127 -96 220 -90 107 7 183 57 233 152 27 51 27 53 27 256 0 204 0 205 -28 262
-64 131 -208 189 -347 141z M6344 5394 c-60 -21 -119 -77 -151 -142 -28 -57
-28 -58 -28 -262 0 -203 0 -205 27 -256 50 -95 126 -145 233 -152 93 -6 158
21 220 90 65 72 75 116 75 323 0 216 -10 256 -83 330 -80 80 -190 106 -293 69z
M7680 5377 c0 -5 15 -41 34 -80 63 -133 104 -338 115 -581 l7 -151 13 89 c17
110 10 336 -13 421 -22 85 -155 341 -156 302z M2901 5241 c-38 -54 -72 -140
-87 -219 -17 -97 -17 -295 0 -387 l14 -70 1 103 c2 184 45 459 87 561 19 44
12 50 -15 12z M5035 4666 c-44 -19 -102 -89 -116 -138 -24 -91 24 -194 112
-239 35 -17 61 -19 299 -19 240 0 264 2 299 20 86 43 135 149 112 238 -14 51
-73 119 -118 139 -45 18 -544 18 -588 -1z M2880 4166 c0 -35 37 -152 71 -227
39 -83 104 -149 148 -149 28 0 29 -1 20 -37 -12 -53 -11 -206 2 -298 22 -158
77 -274 141 -299 32 -12 32 -7 3 -116 -29 -102 -25 -370 5 -370 20 0 70 53 70
75 0 13 4 26 9 29 4 3 11 47 15 98 3 51 9 129 12 174 l6 81 -56 113 c-30 62
-58 129 -62 149 -4 20 -13 61 -20 91 -8 30 -14 91 -14 136 0 75 -3 87 -40 158
-21 42 -52 94 -68 114 -16 20 -52 85 -81 143 -57 118 -73 137 -125 149 -33 7
-36 6 -36 -14z M7737 4175 c-46 -16 -52 -23 -117 -148 -28 -54 -67 -120 -86
-147 -19 -26 -48 -77 -64 -114 -25 -54 -30 -79 -30 -140 0 -124 -31 -247 -94
-377 l-56 -116 0 -167 c0 -91 4 -174 9 -184 5 -9 14 -31 21 -48 10 -28 65 -72
76 -61 3 2 9 33 15 68 13 77 5 224 -17 305 -28 102 -28 98 4 110 64 25 119
141 141 299 13 94 14 259 2 303 -9 31 -9 32 20 32 69 0 160 135 204 301 24 91
20 101 -28 84z M5176 4132 c49 -36 101 -94 122 -138 8 -19 19 -34 22 -34 3 0
14 16 23 35 21 44 80 109 123 136 20 12 33 23 32 25 -2 2 -32 -6 -67 -16 -80
-25 -143 -25 -223 0 -34 11 -65 20 -67 20 -2 0 14 -13 35 -28z M5305 3811
c-14 -44 -114 -91 -244 -117 -85 -16 -404 -38 -432 -29 -10 4 -39 3 -64 -1
l-45 -6 0 -59 c0 -92 41 -163 114 -198 38 -19 61 -21 234 -21 120 0 201 4 219
11 46 19 384 22 460 4 45 -10 122 -15 252 -15 177 0 190 1 232 23 68 36 103
93 107 177 l4 69 -33 5 c-19 3 -122 10 -229 15 -310 16 -450 49 -524 123 -21
21 -40 38 -42 38 -1 0 -5 -8 -9 -19z M4325 3604 c-114 -31 -477 -154 -490
-166 -14 -13 217 -234 288 -276 102 -61 164 -82 249 -82 95 0 143 17 258 91
47 30 101 65 120 77 38 23 28 27 -35 12 -56 -13 -204 -25 -306 -24 -63 0 -101
6 -145 22 -60 23 -134 82 -134 107 0 23 40 54 98 75 54 21 126 80 184 153 35
43 33 44 -87 11z M6276 3558 c69 -74 103 -100 164 -128 51 -24 80 -48 80 -65
0 -38 -91 -99 -190 -125 -53 -14 -240 -6 -365 16 -44 8 -82 14 -85 14 -3 0 11
-10 30 -21 19 -12 73 -46 119 -77 113 -74 163 -92 259 -92 85 0 147 21 249 82
60 35 283 242 283 262 0 18 -536 196 -589 196 -8 0 12 -28 45 -62z"/>
</g>
</svg>
