<?xml version="1.0" standalone="no"?>
<!DOCTYPE svg PUBLIC "-//W3C//DTD SVG 20010904//EN"
 "http://www.w3.org/TR/2001/REC-SVG-20010904/DTD/svg10.dtd">
<svg version="1.0" xmlns="http://www.w3.org/2000/svg"
 width="2048.000000pt" height="2048.000000pt" viewBox="0 0 2048.000000 2048.000000"
 preserveAspectRatio="xMidYMid meet">
<metadata>
Created by potrace 1.13, written by Peter Selinger 2001-2015
</metadata>
<g transform="translate(0.000000,2048.000000) scale(0.192120,-0.192120)"
fill="#000000" stroke="none">
<path d="M5110 10310 c-264 -47 -516 -188 -677 -380 -122 -144 -212 -373 -213
-537 l0 -51 -72 -22 c-169 -51 -428 -171 -591 -274 -586 -370 -980 -961 -1152
-1727 -30 -132 -39 -158 -94 -256 -160 -285 -267 -615 -300 -925 -14 -125 -14
-381 0 -506 36 -333 153 -678 333 -979 389 -651 1046 -1136 1879 -1387 65 -20
123 -36 129 -36 8 0 9 75 4 262 l-6 263 -33 24 c-68 52 -306 301 -376 394
-174 233 -319 512 -422 812 -20 61 -41 110 -46 110 -4 -1 -30 -4 -58 -8 -135
-21 -312 84 -444 261 -232 315 -282 776 -105 971 59 66 105 86 199 86 71 0 88
-4 145 -32 36 -18 87 -50 114 -73 27 -22 51 -38 54 -35 8 7 31 241 32 316 l0
66 86 12 c233 33 517 173 847 419 148 110 288 226 388 320 37 34 69 62 73 62
4 0 29 -18 57 -40 246 -194 826 -447 1304 -568 316 -80 772 -162 1055 -190
l75 -7 7 -55 c3 -30 6 -112 7 -182 1 -71 3 -128 5 -128 2 0 33 20 70 45 273
183 516 15 516 -356 0 -396 -257 -810 -550 -885 -52 -13 -72 -14 -114 -4 -91
20 -83 27 -125 -100 -146 -437 -380 -815 -684 -1106 l-127 -121 0 -267 0 -268
33 7 c79 17 384 123 512 177 893 380 1539 1083 1745 1898 16 63 37 158 45 210
23 130 31 457 16 604 -36 348 -155 699 -340 1006 -35 56 -58 111 -72 165 -171
669 -543 1263 -1020 1626 -200 152 -455 293 -675 374 l-101 37 -6 87 c-23 328
-234 622 -564 785 -229 114 -503 152 -763 106z m432 -555 c215 -37 418 -141
519 -267 55 -67 57 -72 23 -65 -290 61 -642 86 -959 68 -199 -12 -395 -33
-505 -56 -36 -8 -66 -12 -68 -11 -7 8 91 116 139 153 110 84 266 150 419 178
102 18 327 19 432 0z m-886 -556 c44 -10 85 -10 202 0 219 19 614 25 777 12
363 -30 394 -28 485 35 35 24 59 34 73 30 12 -3 51 -39 87 -81 104 -121 156
-158 366 -260 105 -51 236 -121 290 -156 401 -259 692 -611 893 -1081 50 -117
74 -184 150 -419 26 -81 77 -200 144 -335 118 -236 167 -358 208 -523 l29
-113 0 -412 c0 -373 -2 -419 -20 -501 -57 -259 -178 -526 -348 -770 -198 -283
-503 -558 -836 -754 -191 -112 -498 -250 -570 -255 -60 -5 -43 38 60 144 197
203 388 489 529 790 71 152 110 222 133 242 9 9 49 25 87 37 260 82 488 324
630 671 78 189 87 242 83 489 l-3 216 -47 96 c-53 108 -159 232 -248 289 -57
37 -156 70 -207 70 -47 0 -58 7 -191 126 -139 124 -150 129 -427 169 -530 77
-940 179 -1325 330 -230 90 -338 143 -635 309 -55 31 -124 64 -154 72 -116 34
-169 6 -556 -301 -265 -211 -513 -352 -743 -425 -144 -45 -177 -65 -292 -175
-93 -88 -106 -95 -208 -105 -50 -5 -115 -19 -146 -31 -123 -45 -270 -194 -338
-339 -45 -97 -48 -115 -48 -324 0 -222 9 -278 70 -431 136 -345 389 -622 642
-704 46 -15 94 -72 134 -161 80 -178 227 -443 323 -580 66 -95 177 -232 275
-339 47 -51 86 -99 86 -105 0 -61 -416 121 -689 300 -374 247 -645 525 -841
868 -109 189 -171 340 -228 555 -25 94 -26 105 -30 487 l-3 391 26 118 c35
157 81 286 169 474 160 342 138 287 181 459 128 512 310 861 606 1162 213 217
448 371 776 509 78 33 162 73 185 89 44 31 132 118 182 182 50 62 62 64 133
15 39 -27 85 -48 119 -56z M4311 6356 c-48 -17 -108 -71 -134 -119 -20 -39
-22 -55 -22 -222 0 -179 0 -180 28 -227 100 -171 336 -161 418 17 16 34 19 66
19 213 0 123 -4 182 -13 205 -48 112 -184 174 -296 133z M6191 6358 c-18 -5
-57 -33 -86 -62 -69 -68 -78 -109 -73 -311 3 -130 6 -155 25 -191 31 -58 84
-101 148 -119 85 -25 166 -2 232 67 56 58 63 89 63 275 0 156 -2 172 -24 219
-49 105 -168 156 -285 122z M5063 5213 c-33 -6 -83 -60 -84 -91 -5 -101 10
-143 62 -169 17 -9 98 -13 287 -13 291 0 308 3 338 62 22 42 15 139 -12 169
-40 45 -68 49 -326 48 -134 -1 -253 -4 -265 -6z M4665 4647 c-43 -20 -92 -80
-105 -128 -29 -106 38 -198 212 -293 310 -170 730 -176 1054 -16 109 54 212
138 234 190 21 50 9 142 -24 184 -41 54 -97 79 -166 74 -47 -3 -66 -11 -120
-50 -142 -100 -243 -130 -435 -130 -192 0 -312 36 -443 135 -48 36 -62 42
-116 44 -37 2 -73 -2 -91 -10z M6080 3620 c-489 -276 -1034 -279 -1516 -9 -48
27 -89 47 -91 46 -2 -2 8 -29 23 -61 27 -59 27 -103 -2 -127 -21 -17 -3 -34
77 -75 371 -186 911 -214 1349 -68 92 31 218 90 244 114 5 5 -1 24 -14 44 -25
42 -22 73 16 149 14 26 23 47 22 47 -2 -1 -50 -27 -108 -60z M4360 3136 l0
-33 -337 5 c-374 5 -538 -4 -747 -43 -227 -42 -429 -111 -639 -216 -507 -255
-831 -644 -902 -1084 -12 -73 -15 -220 -15 -762 l0 -673 532 0 c292 0 529 2
527 4 -21 21 -202 133 -245 152 -53 23 -63 24 -289 24 -202 0 -235 2 -235 15
0 11 -11 15 -40 15 l-40 0 0 650 0 651 32 82 c34 89 115 231 181 316 182 235
492 439 856 561 63 21 117 43 120 48 7 11 202 57 311 72 41 6 145 14 231 19
l156 7 59 37 c70 43 63 52 94 -118 92 -501 370 -878 763 -1035 199 -80 341
-104 597 -104 203 0 277 8 436 49 484 126 819 521 924 1090 31 168 25 160 84
123 56 -35 127 -47 271 -48 166 -1 478 -48 499 -75 6 -8 39 -21 74 -30 35 -9
114 -35 176 -59 474 -183 798 -488 927 -871 l24 -70 3 -647 c3 -646 3 -648
-18 -648 -11 0 -20 -7 -20 -15 0 -13 -32 -15 -232 -15 -127 0 -245 -4 -262 -9
-17 -5 -56 -16 -87 -25 -43 -12 -218 -112 -247 -141 -3 -3 234 -5 527 -5 l532
0 -3 718 -4 717 -27 105 c-68 259 -196 472 -404 671 -297 285 -699 472 -1173
546 -98 15 -182 18 -572 18 l-457 0 -6 33 c-6 32 -6 32 -35 17 -32 -17 -37
-32 -17 -57 27 -33 62 -48 115 -48 51 0 53 -1 47 -22 -4 -13 -27 -61 -52 -108
-95 -177 -260 -363 -412 -465 -366 -243 -849 -243 -1221 0 -99 65 -261 228
-336 340 -59 87 -134 224 -134 245 0 5 21 10 46 10 54 0 104 21 123 52 12 20
11 24 -13 45 -37 31 -46 29 -46 -11z m-157 -296 c19 -16 73 -83 120 -147 258
-357 569 -535 957 -550 276 -10 506 57 725 212 79 56 277 262 337 351 80 118
129 164 176 164 25 0 32 -18 32 -85 0 -101 -101 -343 -196 -470 -196 -264
-468 -417 -807 -454 -379 -42 -732 24 -973 184 -252 168 -464 508 -464 746 l0
79 30 0 c18 0 42 -11 63 -30z M3305 1506 c-267 -51 -445 -217 -517 -481 -17
-66 -21 -108 -21 -245 -1 -158 4 -198 40 -372 l16 -78 2507 0 2507 0 16 78
c36 174 41 214 40 372 0 137 -4 179 -21 245 -54 197 -164 339 -323 415 -131
62 -192 75 -354 74 -123 -1 -154 -5 -257 -32 -311 -83 -578 -225 -1112 -591
-386 -265 -450 -297 -539 -274 -67 18 -169 80 -456 276 -542 370 -823 519
-1123 592 -128 32 -302 41 -403 21z m306 -282 c255 -43 533 -176 941 -447 171
-114 189 -137 121 -156 -57 -16 -1625 -15 -1641 1 -17 17 -17 366 0 405 73
166 301 244 579 197z m3722 1 c125 -26 214 -79 263 -156 23 -37 24 -45 24
-238 0 -157 -3 -201 -14 -210 -22 -18 -1627 -11 -1649 8 -28 22 -5 45 136 140
374 250 644 385 882 440 149 34 251 39 358 16z"/>
</g>
</svg>
