<?xml version="1.0" standalone="no"?>
<!DOCTYPE svg PUBLIC "-//W3C//DTD SVG 20010904//EN"
 "http://www.w3.org/TR/2001/REC-SVG-20010904/DTD/svg10.dtd">
<svg version="1.0" xmlns="http://www.w3.org/2000/svg"
 width="2048.000000pt" height="2048.000000pt" viewBox="0 0 2048.000000 2048.000000"
 preserveAspectRatio="xMidYMid meet">
<metadata>
Created by potrace 1.13, written by Peter Selinger 2001-2015
</metadata>
<g transform="translate(0.000000,2048.000000) scale(0.192120,-0.192120)"
fill="#000000" stroke="none">
<path d="M4860 10319 c-246 -32 -506 -124 -695 -246 -54 -35 -64 -38 -100 -31
-69 12 -229 9 -316 -7 -470 -87 -828 -452 -904 -920 -12 -74 -15 -251 -15
-1013 0 -946 3 -1031 41 -1217 38 -187 83 -315 170 -488 l50 -98 -48 -53 c-32
-36 -337 -542 -923 -1535 -481 -815 -888 -1510 -905 -1544 -27 -55 -30 -72
-30 -152 0 -75 5 -99 26 -145 77 -166 236 -239 400 -185 112 37 91 5 897 1375
406 690 753 1282 772 1315 18 33 34 61 36 63 1 2 34 -13 73 -32 49 -25 72 -43
76 -59 3 -12 59 -254 125 -537 66 -283 137 -589 159 -680 l39 -165 -59 -257
c-32 -142 -59 -265 -59 -273 0 -14 3 -14 29 0 49 25 144 119 178 176 47 79 83
223 83 336 0 118 -21 175 -106 282 l-64 81 975 0 976 0 -59 -70 c-96 -114
-116 -158 -120 -271 -4 -81 0 -114 22 -200 16 -60 40 -126 58 -156 38 -63 231
-280 236 -265 3 11 -43 226 -103 475 l-33 138 49 207 c27 114 101 430 165 702
63 272 120 498 127 503 30 20 109 58 117 55 4 -2 157 -300 338 -664 312 -623
334 -664 382 -707 30 -27 72 -53 103 -63 58 -19 157 -21 202 -4 61 23 1218
696 1261 733 26 23 56 64 76 105 30 61 33 74 33 162 0 84 -3 102 -28 152 -74
151 -236 229 -377 181 -30 -10 -253 -133 -494 -273 -303 -175 -441 -250 -444
-240 -12 34 -636 1280 -662 1321 -31 49 -122 139 -140 139 -23 0 -52 -90 -48
-149 4 -62 73 -217 152 -346 66 -107 118 -208 175 -345 30 -69 111 -240 182
-381 110 -217 138 -266 190 -323 78 -85 136 -120 198 -118 85 2 112 15 546
266 293 169 349 195 418 196 78 0 87 -9 87 -90 0 -108 59 -67 -828 -576 -307
-177 -358 -197 -431 -175 -25 7 -53 27 -75 52 -19 23 -148 265 -291 547 -141
278 -270 525 -286 548 -42 61 -138 152 -185 174 -87 42 -146 17 -189 -83 l-29
-65 -80 66 c-268 218 -493 287 -702 217 -144 -48 -287 -136 -414 -253 l-75
-69 -67 63 c-130 122 -292 220 -437 264 -60 19 -89 21 -169 18 -165 -8 -322
-81 -516 -240 -39 -32 -74 -58 -77 -58 -3 0 -17 28 -30 62 -42 106 -111 133
-212 82 -78 -40 -210 -180 -281 -300 -33 -54 -324 -548 -648 -1097 -611 -1038
-701 -1183 -749 -1218 -54 -38 -150 -23 -163 26 -12 43 -6 146 10 178 10 18
317 541 684 1162 880 1491 979 1660 1008 1725 34 74 35 159 3 219 l-22 43 21
23 c26 28 114 71 171 84 26 6 225 11 487 11 l442 0 0 73 0 73 -61 30 c-325
155 -590 460 -704 808 -55 169 -63 249 -67 655 l-3 363 72 19 c326 82 572 322
687 669 36 109 66 263 66 337 0 61 16 53 24 -12 10 -86 62 -216 127 -314 217
-329 651 -560 1244 -661 152 -25 371 -50 455 -50 117 0 105 38 103 -348 -2
-185 -8 -373 -13 -417 -58 -436 -341 -836 -735 -1037 l-85 -43 0 -73 0 -72
418 0 c342 0 427 -2 475 -15 64 -17 121 -43 184 -87 l42 -29 64 129 c73 147
137 331 166 477 39 195 43 312 38 1160 -4 864 -4 858 -56 1051 -156 575 -613
1030 -1185 1178 -191 50 -439 68 -616 45z m306 -289 c363 -30 675 -170 915
-411 148 -149 248 -310 315 -509 l29 -85 3 -1040 c2 -930 1 -1048 -14 -1115
-22 -101 -62 -200 -92 -229 -22 -20 -32 -22 -71 -17 -25 3 -98 10 -161 16
-122 12 -170 24 -170 45 0 8 33 58 73 112 166 222 274 446 333 688 23 97 24
111 24 503 0 229 -4 402 -9 402 -5 0 -12 12 -16 27 -9 37 -131 154 -188 182
-34 16 -91 28 -214 42 -437 51 -701 118 -961 245 -221 109 -352 223 -497 434
-126 183 -204 250 -267 228 -15 -5 -51 -34 -80 -63 -58 -57 -106 -144 -184
-335 -61 -147 -147 -275 -229 -343 -35 -29 -123 -82 -197 -119 -120 -60 -141
-75 -203 -141 -39 -41 -77 -83 -85 -93 -13 -16 -15 -85 -18 -461 -2 -421 -2
-447 18 -530 52 -213 164 -443 311 -639 49 -66 89 -127 89 -137 0 -10 -10 -21
-22 -26 -31 -11 -349 -34 -368 -27 -24 10 -57 65 -80 136 -51 151 -50 137 -50
1301 0 1075 0 1090 21 1152 31 93 94 192 173 272 179 180 408 265 711 265 116
0 139 7 325 95 237 113 391 158 593 175 51 4 97 8 103 9 6 0 69 -4 140 -9z
m-901 -4530 c74 -21 188 -83 294 -160 89 -64 163 -100 206 -100 46 0 117 36
235 120 180 128 283 165 440 157 116 -6 170 -22 280 -85 85 -49 85 -49 93 -98
8 -42 1 -82 -43 -274 -102 -446 -119 -505 -164 -553 l-25 -27 -825 0 -825 0
-24 26 c-30 32 -60 131 -127 419 -87 375 -92 408 -61 446 23 29 164 106 240
130 79 25 216 25 306 -1z M4020 8093 c-101 -52 -105 -184 -8 -243 64 -39 146
-16 188 52 68 112 -63 252 -180 191z M5410 8093 c-88 -46 -106 -152 -37 -220
68 -69 174 -51 220 37 21 40 18 97 -7 135 -38 58 -116 79 -176 48z M4501 7505
c27 -144 127 -227 274 -227 113 0 190 42 238 130 15 27 30 71 33 96 l7 46
-280 0 -280 0 8 -45z M4224 6968 c29 -149 250 -248 551 -248 301 0 522 99 551
248 l7 32 -558 0 -557 0 6 -32z M4350 6478 c0 -13 -7 -34 -16 -46 -9 -13 -14
-26 -11 -29 3 -3 43 -16 88 -29 252 -73 541 -70 766 8 60 21 61 21 41 38 -14
11 -21 29 -21 49 0 28 -3 32 -21 27 -139 -39 -229 -50 -401 -50 -173 0 -261
11 -402 50 -19 5 -23 2 -23 -18z M8729 3938 c-59 -73 -82 -107 -218 -322 -255
-403 -369 -546 -676 -851 -231 -230 -285 -297 -350 -438 -33 -72 -77 -214 -89
-288 l-6 -35 -153 -37 c-430 -102 -777 -142 -1049 -119 -125 11 -338 39 -346
47 -1 1 35 40 81 86 97 97 153 187 199 320 l33 94 0 275 c0 261 -1 278 -23
342 -31 89 -108 196 -182 253 -33 25 -60 50 -60 54 0 4 -6 8 -12 8 -7 0 -49
13 -93 29 l-80 29 -1275 3 c-815 1 -1315 -1 -1385 -8 -211 -20 -361 -87 -509
-229 -189 -182 -279 -429 -279 -761 1 -607 353 -1147 923 -1419 191 -90 406
-154 750 -220 832 -162 1713 -160 2390 5 394 97 867 295 1245 522 l150 90 75
-20 c106 -28 321 -21 465 15 379 96 525 198 850 592 336 406 570 603 924 773
154 74 155 73 -9 98 -217 32 -470 1 -772 -95 -215 -69 -507 -204 -728 -337
-63 -38 -119 -71 -125 -73 -5 -2 23 31 63 73 223 236 335 545 358 991 8 168
-22 562 -45 588 -4 4 -23 -12 -42 -35z m-3036 -790 c75 -35 142 -106 190 -198
l37 -72 0 -232 c0 -203 -2 -239 -20 -301 -12 -39 -25 -110 -31 -160 -5 -49
-12 -105 -15 -124 l-7 -34 -12 29 c-21 50 -48 63 -206 103 -329 84 -897 299
-1509 571 -307 137 -296 133 -336 120 -40 -14 -74 -60 -74 -103 0 -57 46 -87
340 -215 681 -297 1180 -485 1530 -577 153 -40 176 -42 209 -19 23 16 23 16
15 -7 -5 -13 -9 -61 -9 -106 0 -74 3 -85 30 -124 73 -102 198 -134 530 -133
290 0 564 35 859 110 133 34 178 57 259 133 78 74 139 171 172 275 57 181 98
241 315 456 183 183 306 321 450 504 l85 109 3 -102 c3 -123 -4 -148 -120
-396 -74 -159 -80 -175 -81 -240 -1 -60 3 -76 27 -113 63 -100 113 -134 196
-133 78 0 150 24 369 123 169 76 211 89 211 68 0 -21 -34 -76 -84 -136 -28
-34 -76 -93 -106 -130 -81 -100 -207 -230 -272 -280 -121 -94 -290 -165 -475
-200 -71 -13 -123 -15 -271 -11 -220 7 -242 2 -437 -103 -452 -244 -709 -354
-1046 -449 -261 -74 -522 -118 -839 -142 -231 -17 -802 -6 -1050 20 -442 48
-855 132 -1113 225 -439 159 -746 469 -861 870 -25 85 -26 98 -26 362 0 252 2
280 21 336 24 72 58 134 109 200 49 63 83 90 171 137 123 66 157 71 504 81
203 6 332 14 375 24 55 12 216 14 1000 13 l935 -2 58 -27z"/>
</g>
</svg>
