<?xml version="1.0" standalone="no"?>
<!DOCTYPE svg PUBLIC "-//W3C//DTD SVG 20010904//EN"
 "http://www.w3.org/TR/2001/REC-SVG-20010904/DTD/svg10.dtd">
<svg version="1.0" xmlns="http://www.w3.org/2000/svg"
 width="2048.000000pt" height="2048.000000pt" viewBox="0 0 2048.000000 2048.000000"
 preserveAspectRatio="xMidYMid meet">
<metadata>
Created by potrace 1.13, written by Peter Selinger 2001-2015
</metadata>
<g transform="translate(0.000000,2048.000000) scale(0.192120,-0.192120)"
fill="#000000" stroke="none">
<path d="M5170 10044 c-245 -44 -411 -111 -567 -230 -231 -177 -364 -415 -380
-681 l-6 -101 -106 -42 c-342 -136 -709 -377 -926 -611 -352 -378 -547 -804
-616 -1344 -7 -56 -13 -208 -13 -345 l-1 -245 80 -75 c44 -41 101 -95 127
-120 l47 -45 -27 -615 -27 -615 -77 89 c-43 48 -106 126 -140 173 l-63 84 -22
-358 c-67 -1084 -114 -1930 -149 -2686 l-6 -147 -92 -80 c-379 -325 -643 -746
-737 -1172 -16 -72 -22 -144 -26 -320 l-6 -228 3893 0 3893 0 -6 223 c-8 318
-49 492 -178 754 -132 270 -387 589 -608 763 -60 47 -70 60 -70 86 -5 279
-173 3239 -185 3251 -1 1 -21 -23 -44 -54 -63 -86 -226 -282 -234 -283 -5 0
-8 48 -9 108 0 59 -10 328 -23 597 l-22 490 70 78 c49 55 87 87 127 107 l57
29 7 88 c10 109 -1 359 -21 513 -58 449 -237 860 -523 1202 -246 294 -601 542
-1012 708 l-106 43 -6 96 c-26 431 -361 787 -845 897 -65 14 -369 28 -422 18z
m415 -570 c191 -33 392 -117 535 -225 73 -55 176 -156 168 -164 -2 -2 -44 7
-93 20 -293 81 -516 109 -865 109 -349 0 -589 -30 -864 -110 -48 -14 -90 -23
-93 -20 -9 9 91 107 167 165 273 206 667 291 1045 225z m75 -525 c58 -5 177
-21 265 -34 88 -13 197 -26 243 -29 98 -7 115 -15 213 -96 53 -45 123 -87 253
-152 274 -137 437 -246 603 -402 136 -128 282 -311 309 -389 17 -48 17 -47 3
-47 -7 0 -48 36 -93 79 -113 110 -153 143 -291 234 -380 250 -929 429 -1500
488 -152 16 -560 16 -730 0 -578 -54 -1028 -202 -1398 -461 -129 -91 -347
-311 -423 -426 -32 -50 -65 -99 -72 -110 -10 -16 -12 -6 -10 61 3 75 6 86 46
152 67 114 181 260 279 359 184 185 370 314 660 458 144 72 209 110 260 154
104 89 108 91 214 98 52 3 164 16 251 29 344 53 616 63 918 34z m0 -580 c555
-51 1121 -244 1495 -508 101 -71 249 -217 303 -299 22 -34 50 -88 62 -120 22
-58 45 -161 37 -168 -2 -2 -27 24 -56 58 -217 261 -631 503 -1080 633 -732
210 -1684 186 -2371 -62 -386 -139 -696 -343 -924 -608 l-26 -30 15 43 c24 72
96 202 156 283 350 472 969 741 1814 789 165 9 412 5 575 -11z m180 -543 c379
-48 716 -144 993 -283 155 -77 258 -142 423 -268 219 -167 262 -176 356 -78
44 46 108 140 108 159 0 29 20 12 41 -33 42 -94 48 -151 49 -464 l0 -297 -75
-86 c-42 -47 -82 -86 -91 -86 -17 0 -29 26 -60 145 -58 217 -161 392 -339 571
-147 149 -290 237 -467 288 -124 36 -203 44 -368 41 -165 -4 -303 -25 -590
-90 -278 -63 -357 -75 -490 -75 -133 0 -212 12 -491 75 -326 74 -430 89 -629
88 -145 0 -190 -4 -263 -21 -270 -66 -466 -200 -676 -462 -63 -78 -146 -229
-174 -315 -9 -27 -28 -101 -41 -164 -16 -75 -31 -121 -44 -133 -19 -20 -20
-19 -94 66 -46 52 -78 98 -82 117 -3 17 -6 154 -6 304 0 292 11 384 59 520 12
33 26 74 30 90 5 17 15 46 24 65 l15 35 1 -56 c1 -40 7 -64 21 -82 11 -14 20
-35 20 -47 0 -53 74 -151 130 -174 59 -24 112 -2 280 115 270 189 432 276 677
364 230 84 527 150 783 174 63 6 131 13 150 15 90 10 702 -3 820 -18z m-1480
-656 c115 -12 242 -37 495 -95 263 -61 351 -75 475 -75 127 0 207 13 520 84
341 78 412 89 590 90 171 1 258 -14 382 -64 116 -47 178 -90 289 -200 190
-189 233 -281 273 -593 28 -206 39 -517 33 -927 l-5 -395 -40 -135 c-160 -528
-400 -962 -740 -1335 l-91 -100 -1 -449 0 -449 -80 -75 c-258 -239 -650 -863
-1015 -1615 -60 -124 -112 -226 -115 -226 -3 0 -76 143 -162 317 -367 742
-716 1290 -968 1524 l-80 75 0 449 -1 449 -91 100 c-341 374 -578 803 -745
1348 l-38 122 0 510 c0 530 7 676 46 905 41 242 98 352 271 516 96 91 153 130
258 175 162 70 327 91 540 69z m3425 -2199 c52 -56 114 -101 139 -101 8 0 17
-4 20 -8 8 -14 24 -230 63 -867 33 -540 37 -662 37 -1059 l1 -448 -24 -17
c-55 -38 -108 -92 -129 -131 l-22 -42 0 -844 0 -844 -325 0 -325 0 0 148 c0
105 10 239 35 453 81 709 115 1063 115 1190 0 122 -2 133 -26 175 -38 65 -117
131 -177 149 -35 10 -96 15 -203 15 l-151 0 -7 38 c-3 20 -6 157 -6 304 l0
266 61 74 c357 426 653 1015 770 1528 11 52 28 106 36 119 l15 24 26 -34 c15
-19 49 -58 77 -88z m-4787 17 c5 -7 26 -71 47 -143 147 -516 421 -1041 737
-1408 l58 -68 0 -268 c0 -148 -3 -289 -6 -314 l-6 -45 -167 -4 c-134 -3 -173
-7 -202 -21 -56 -28 -116 -83 -154 -143 -34 -53 -35 -56 -35 -162 0 -107 37
-497 105 -1103 28 -249 35 -350 35 -505 l0 -194 -326 0 -327 0 7 853 7 852
-33 49 c-18 27 -55 65 -83 84 -32 21 -52 43 -56 60 -16 66 -8 549 16 972 52
924 68 1171 81 1262 5 32 10 37 39 42 40 8 122 79 185 161 43 56 60 65 78 43z
m1051 -2470 c-24 -85 1 -174 73 -264 18 -23 71 -88 117 -145 173 -215 395
-579 656 -1075 81 -153 163 -306 182 -339 40 -68 52 -118 32 -131 -8 -5 -295
-11 -639 -14 l-625 -5 -50 -27 c-27 -15 -70 -40 -95 -57 -24 -17 -45 -29 -47
-28 -11 12 -233 2007 -233 2102 0 13 44 15 319 15 l320 0 -10 -32z m3186 0
c-3 -18 -26 -231 -50 -473 -69 -672 -164 -1493 -183 -1581 l-7 -33 -55 36
c-30 19 -79 46 -108 59 l-53 24 -577 0 c-570 0 -644 4 -655 34 -3 7 11 42 30
77 19 35 96 179 170 319 328 617 523 930 760 1224 89 110 113 160 113 235 0
33 -4 71 -10 85 l-10 26 321 0 320 0 -6 -32z m927 -250 c101 -64 102 -66 83
-119 -34 -94 17 -194 194 -385 154 -167 208 -233 283 -349 82 -126 148 -260
198 -400 42 -117 43 -123 48 -273 4 -149 4 -152 -17 -152 -12 0 -21 -6 -21
-15 0 -13 -38 -15 -279 -15 -154 0 -282 -4 -285 -9 -3 -4 -27 -11 -54 -13 -36
-4 -68 -17 -128 -56 l-79 -51 -7 42 c-5 23 -24 418 -43 877 -19 459 -38 875
-41 924 l-7 89 39 -23 c21 -13 73 -45 116 -72z m-5526 -40 c-3 -68 -22 -485
-41 -928 -19 -443 -37 -820 -40 -837 l-6 -33 -82 55 c-45 30 -89 55 -99 55 -9
0 -20 5 -23 10 -4 6 -108 10 -281 10 -237 0 -274 2 -274 15 0 11 -11 15 -41
15 l-41 0 4 168 c5 154 7 173 35 253 37 104 136 300 205 406 77 118 130 184
271 338 98 107 136 156 162 210 44 92 48 120 30 180 -13 46 -13 51 3 67 21 21
204 137 216 138 5 0 6 -52 2 -122z M4249 6067 c-51 -27 -104 -91 -119 -145
-16 -60 -13 -310 6 -364 52 -154 249 -208 373 -101 71 61 81 95 81 289 0 189
-9 221 -71 281 -71 67 -186 84 -270 40z M6205 6072 c-22 -11 -54 -35 -72 -53
-56 -59 -63 -90 -63 -276 0 -149 2 -171 21 -210 72 -148 266 -178 382 -58 58
60 69 110 65 294 -3 155 -3 158 -33 207 -17 26 -50 62 -73 79 -37 25 -54 30
-115 33 -55 2 -82 -2 -112 -16z M5059 4747 c-82 -54 -100 -171 -36 -244 52
-59 72 -63 307 -63 235 0 255 4 307 63 64 73 46 190 -36 244 -33 22 -42 23
-271 23 -229 0 -238 -1 -271 -23z M4562 4104 c-72 -37 -109 -128 -83 -207 23
-70 159 -171 312 -233 264 -107 670 -123 965 -39 197 57 395 184 424 271 53
160 -132 293 -258 185 -147 -126 -311 -174 -592 -174 -281 0 -445 48 -592 174
-47 40 -123 50 -176 23z M4300 3254 c0 -11 35 -71 78 -133 25 -36 55 -79 66
-96 12 -16 29 -36 39 -43 9 -7 17 -21 17 -30 0 -11 -3 -13 -8 -5 -11 18 -146
20 -172 3 -12 -9 -8 -17 25 -47 62 -55 210 -150 310 -198 516 -246 1156 -184
1603 155 47 36 87 70 89 76 6 17 -40 35 -95 37 -44 1 -52 4 -52 19 0 10 7 21
15 24 8 4 15 11 15 16 0 6 15 31 34 57 34 47 96 152 96 164 0 3 -43 -25 -96
-64 -324 -234 -649 -359 -934 -359 -284 0 -612 126 -934 359 -53 39 -96 68
-96 65z M1770 6773 c-35 -13 -50 -37 -50 -80 0 -173 326 -790 658 -1245 47
-65 89 -118 93 -118 12 0 29 61 29 105 0 86 -39 167 -210 440 -223 356 -351
625 -297 625 9 0 27 -4 41 -10 17 -6 26 -6 26 0 0 17 22 11 105 -26 132 -60
238 -54 274 15 10 18 0 26 -104 86 -247 144 -493 234 -565 208z M8771 6769
c-104 -20 -295 -95 -463 -181 -54 -27 -98 -53 -98 -57 0 -4 13 -20 29 -35 34
-33 93 -49 129 -35 15 6 42 12 62 14 19 2 72 17 118 34 46 17 89 31 96 31 7 0
19 -11 26 -25 11 -21 11 -32 0 -67 -23 -76 -130 -258 -284 -485 -191 -281
-229 -353 -229 -431 0 -31 6 -70 12 -87 l12 -29 25 29 c54 66 243 327 334 464
192 288 326 529 375 675 39 117 32 165 -26 185 -36 12 -55 12 -118 0z"/>
</g>
</svg>
