<?xml version="1.0" standalone="no"?>
<!DOCTYPE svg PUBLIC "-//W3C//DTD SVG 20010904//EN"
 "http://www.w3.org/TR/2001/REC-SVG-20010904/DTD/svg10.dtd">
<svg version="1.0" xmlns="http://www.w3.org/2000/svg"
 width="2048.000000pt" height="2048.000000pt" viewBox="0 0 2048.000000 2048.000000"
 preserveAspectRatio="xMidYMid meet">
<metadata>
Created by potrace 1.13, written by Peter Selinger 2001-2015
</metadata>
<g transform="translate(0.000000,2048.000000) scale(0.192120,-0.192120)"
fill="#000000" stroke="none">
<path d="M5045 9209 c-312 -26 -688 -117 -963 -231 -786 -326 -1304 -921
-1471 -1693 -42 -189 -53 -320 -56 -625 l-3 -295 126 -127 126 -127 -28 -633
c-14 -348 -27 -661 -26 -695 0 -54 -3 -63 -18 -63 -29 0 -140 71 -204 130
l-60 55 17 40 c29 68 17 153 -39 270 -26 54 -56 111 -66 125 -31 44 -176 340
-224 457 -54 131 -127 341 -155 443 -19 68 -28 170 -16 170 3 0 22 -7 42 -15
44 -18 43 -18 43 0 0 11 25 2 98 -34 101 -51 186 -69 227 -49 28 14 85 70 85
83 0 13 -60 53 -213 140 -194 111 -380 185 -465 185 -16 0 -41 -9 -56 -21 -32
-25 -34 -72 -10 -200 98 -534 411 -1241 679 -1538 l35 -39 -15 -243 c-49 -803
-124 -2172 -125 -2294 -1 -39 -2 -41 -75 -82 -312 -179 -603 -548 -714 -908
-66 -212 -81 -352 -81 -756 l0 -309 3890 0 3890 0 0 313 c0 171 -5 354 -10
405 -37 350 -168 655 -397 925 -112 133 -247 244 -434 360 -26 15 -26 18 -33
159 -27 562 -83 1565 -130 2332 l-14 228 61 77 c212 265 449 723 587 1129 86
253 110 401 71 436 -44 40 -147 31 -320 -28 -186 -64 -431 -177 -431 -199 0
-26 41 -78 75 -94 32 -15 40 -15 117 2 46 9 125 33 176 51 103 38 122 41 122
19 0 -8 7 -15 16 -15 73 0 -179 -605 -400 -964 -115 -186 -149 -304 -112 -396
l16 -41 -62 -66 c-35 -36 -90 -88 -123 -116 -59 -49 -60 -50 -66 -26 -4 13 -7
65 -8 114 -1 100 -48 1207 -55 1297 -4 57 -4 57 42 100 26 24 79 58 119 77
l71 34 7 125 c9 143 0 346 -21 512 -80 629 -397 1177 -899 1555 -565 426
-1362 639 -2140 574z m671 -314 c527 -66 995 -247 1367 -527 160 -120 357
-336 473 -518 96 -150 192 -397 233 -600 20 -97 22 -130 19 -421 l-3 -316 -40
-45 c-22 -24 -54 -61 -72 -81 -17 -20 -36 -37 -42 -37 -15 0 -37 47 -56 120
-40 159 -160 425 -263 581 -242 367 -509 590 -835 697 -239 79 -451 95 -902
68 -242 -14 -295 -14 -515 -1 -556 33 -783 6 -1069 -126 -240 -112 -496 -343
-674 -610 -72 -109 -189 -338 -222 -438 -28 -84 -74 -307 -75 -358 0 -19 -9
-42 -24 -57 l-23 -26 -65 78 c-108 129 -98 80 -98 475 0 332 1 355 25 472 103
511 382 921 835 1225 296 199 679 348 1075 419 95 16 163 25 370 45 84 8 465
-4 581 -19z m-627 -1331 c211 -15 244 -15 494 1 334 22 585 17 732 -15 380
-81 674 -318 903 -727 65 -115 145 -302 161 -374 62 -279 72 -1000 26 -1909
l-16 -305 -48 -96 c-124 -245 -286 -465 -491 -669 -80 -80 -182 -172 -227
-205 l-82 -60 -1 -327 0 -328 356 0 356 0 -6 -37 c-3 -21 -26 -234 -51 -473
-67 -644 -175 -1562 -191 -1627 -6 -23 -7 -23 -70 23 -36 25 -89 56 -119 70
l-56 24 -1440 0 -1440 0 -47 -24 c-26 -13 -74 -45 -107 -70 -58 -43 -60 -44
-67 -23 -19 57 -238 2015 -238 2124 0 10 70 13 350 13 l350 0 0 324 0 325
-119 95 c-262 210 -509 513 -674 827 l-44 84 -11 235 c-28 544 -34 813 -29
1210 6 431 14 550 48 760 25 147 47 211 135 380 202 388 489 642 836 739 188
53 429 63 827 35z m2641 -2730 c49 -93 144 -201 198 -225 45 -20 41 11 82
-697 24 -401 30 -594 30 -885 l0 -372 -75 -68 c-41 -38 -75 -74 -75 -81 0 -8
-7 -20 -16 -27 -15 -12 -16 -99 -13 -939 l4 -925 -302 -3 -303 -2 0 140 c0 96
11 234 35 438 73 625 116 1052 122 1187 5 136 5 141 -21 191 -37 73 -142 169
-206 188 -30 9 -120 18 -225 22 l-175 7 0 156 1 156 81 70 c257 221 564 642
681 935 47 119 56 172 72 450 8 135 18 261 24 280 5 19 12 47 15 63 4 15 10
27 14 27 4 0 27 -39 52 -86z m-4720 -74 c13 -28 20 -84 29 -265 7 -127 19
-257 27 -290 30 -123 141 -338 281 -544 89 -129 201 -260 350 -409 l153 -152
0 -160 0 -160 -42 -1 c-171 -2 -326 -17 -358 -34 -59 -30 -150 -115 -181 -169
-27 -49 -29 -57 -29 -172 0 -118 35 -490 105 -1115 27 -244 35 -351 35 -495
l0 -184 -296 0 -296 0 6 493 c3 270 8 688 11 927 l6 435 -38 55 c-21 30 -63
74 -93 97 -30 24 -61 49 -69 55 -23 19 -9 645 28 1240 17 279 35 524 39 545 6
29 14 39 40 47 74 25 168 127 234 253 18 35 35 57 37 50 1 -6 11 -28 21 -47z
m-364 -2332 c-3 -35 -24 -488 -46 -1008 -22 -520 -44 -964 -48 -988 l-7 -42
-75 54 c-41 29 -97 65 -123 80 l-48 26 -259 0 c-224 0 -260 2 -260 15 0 11
-12 15 -45 15 l-45 0 0 290 c0 329 7 377 79 553 95 234 224 411 424 582 151
130 202 221 179 323 l-10 43 61 31 c59 29 202 86 221 88 4 0 6 -28 2 -62z
m5466 28 c35 -13 91 -37 124 -54 l61 -31 -7 -41 c-20 -110 37 -203 219 -354
193 -161 337 -376 423 -630 53 -158 58 -198 58 -493 0 -266 0 -273 -20 -273
-11 0 -20 -7 -20 -15 0 -13 -35 -15 -259 -15 -163 0 -262 -4 -266 -10 -3 -5
-21 -10 -40 -10 -35 0 -124 -46 -207 -106 -35 -26 -49 -32 -53 -22 -3 7 -23
427 -45 933 -22 506 -43 971 -46 1033 -5 79 -3 112 4 112 7 0 40 -11 74 -24z
M4120 6423 c-27 -10 -65 -37 -96 -68 -74 -74 -84 -114 -84 -330 0 -203 10
-250 71 -319 63 -72 107 -91 209 -91 74 0 91 3 130 27 60 35 94 72 122 133 22
47 23 62 23 250 0 199 0 200 -28 257 -64 131 -208 189 -347 141z M6344 6424
c-60 -21 -119 -77 -151 -142 -28 -57 -28 -58 -28 -262 0 -203 0 -205 27 -256
28 -53 76 -102 131 -131 23 -13 55 -18 117 -18 102 0 146 19 209 91 61 69 71
116 71 319 0 216 -10 256 -83 330 -80 80 -190 106 -293 69z M5050 5249 c-82
-33 -134 -111 -134 -199 0 -62 17 -101 65 -148 54 -53 104 -62 349 -62 245 0
295 9 349 62 48 47 65 86 65 148 1 70 -33 133 -92 175 l-44 30 -266 2 c-162 1
-277 -2 -292 -8z M4384 4260 c-51 -11 -98 -46 -123 -90 -31 -55 -27 -140 9
-189 51 -73 210 -150 403 -196 199 -48 327 -59 657 -59 235 0 334 4 430 17
241 34 432 91 547 166 80 52 106 90 111 163 5 71 -8 107 -59 152 -64 59 -149
61 -226 6 -149 -107 -572 -168 -985 -142 -303 19 -490 60 -616 135 -63 38
-101 48 -148 37z M4296 3013 l2 -68 73 -53 c265 -193 679 -286 1122 -254 314
23 542 91 745 222 108 69 119 82 124 158 2 34 4 62 3 62 -1 0 -59 -27 -128
-60 -306 -145 -583 -209 -904 -210 -327 0 -599 63 -922 216 -63 30 -114 54
-115 54 -1 0 0 -30 0 -67z M4116 2478 c-9 -50 18 -128 56 -164 109 -103 461
-307 653 -379 308 -116 644 -122 960 -18 195 65 556 260 681 367 55 47 88 117
81 174 -2 23 -8 46 -11 49 -3 4 -28 -9 -54 -27 -26 -19 -128 -89 -227 -155
-373 -250 -627 -345 -925 -345 -330 0 -596 110 -1068 442 -61 43 -118 81 -126
84 -9 4 -16 -5 -20 -28z"/>
</g>
</svg>
