<?xml version="1.0" standalone="no"?>
<!DOCTYPE svg PUBLIC "-//W3C//DTD SVG 20010904//EN"
 "http://www.w3.org/TR/2001/REC-SVG-20010904/DTD/svg10.dtd">
<svg version="1.0" xmlns="http://www.w3.org/2000/svg"
 width="2048.000000pt" height="2048.000000pt" viewBox="0 0 2048.000000 2048.000000"
 preserveAspectRatio="xMidYMid meet">
<metadata>
Created by potrace 1.13, written by Peter Selinger 2001-2015
</metadata>
<g transform="translate(0.000000,2048.000000) scale(0.192120,-0.192120)"
fill="#000000" stroke="none">
<path d="M5170 10044 c-245 -44 -411 -111 -567 -230 -231 -177 -364 -415 -380
-681 l-6 -101 -106 -42 c-342 -136 -709 -377 -926 -611 -352 -378 -547 -804
-616 -1344 -7 -56 -13 -208 -13 -345 l-1 -245 80 -75 c44 -41 101 -95 127
-120 l47 -45 -27 -615 -27 -615 -77 89 c-43 48 -106 126 -140 172 l-63 84 -22
-358 c-66 -1067 -114 -1928 -149 -2685 l-6 -147 -92 -80 c-379 -325 -643 -746
-737 -1172 -16 -72 -22 -144 -26 -320 l-6 -228 3893 0 3893 0 -6 223 c-8 318
-49 492 -178 754 -132 270 -387 589 -608 763 -60 47 -70 60 -70 86 -5 263
-154 2922 -178 3177 l-8 79 -42 -58 c-63 -86 -227 -283 -235 -284 -5 0 -8 48
-9 108 0 59 -10 328 -23 597 l-22 490 70 78 c49 55 87 87 127 107 l57 29 8 78
c9 100 -2 373 -22 522 -58 451 -237 860 -523 1203 -246 294 -601 542 -1012
708 l-106 43 -6 96 c-26 431 -361 787 -845 897 -65 14 -369 28 -422 18z m415
-570 c191 -33 392 -117 535 -225 73 -55 176 -156 168 -164 -2 -2 -44 7 -93 20
-293 81 -516 109 -865 109 -349 0 -589 -30 -864 -110 -48 -14 -90 -23 -93 -20
-9 9 91 107 167 165 273 206 667 291 1045 225z m75 -525 c58 -5 177 -21 265
-34 88 -13 197 -26 243 -29 98 -7 115 -15 213 -96 53 -45 123 -87 253 -152
274 -137 437 -246 603 -402 136 -128 282 -311 309 -389 17 -48 17 -47 3 -47
-7 0 -48 36 -93 79 -113 110 -153 143 -291 234 -380 250 -929 429 -1500 488
-152 16 -560 16 -730 0 -578 -54 -1028 -202 -1398 -461 -129 -91 -347 -311
-423 -426 -32 -50 -65 -99 -72 -110 -10 -16 -12 -6 -10 61 3 75 6 86 46 152
67 114 181 260 279 359 184 185 370 314 660 458 144 72 209 110 260 154 104
89 108 91 214 98 52 3 164 16 251 29 344 53 616 63 918 34z m0 -580 c555 -51
1121 -244 1495 -508 101 -71 249 -217 303 -299 22 -34 50 -88 62 -120 22 -58
45 -161 37 -168 -2 -2 -27 24 -56 58 -217 261 -631 503 -1080 633 -732 210
-1684 186 -2371 -62 -386 -139 -696 -343 -924 -608 l-26 -30 15 43 c24 72 96
202 156 283 350 472 969 741 1814 789 165 9 412 5 575 -11z m180 -543 c379
-48 716 -144 993 -283 155 -77 258 -142 423 -268 219 -167 262 -176 356 -78
44 46 108 140 108 159 0 29 20 12 41 -33 42 -94 48 -151 48 -463 l0 -295 -74
-80 c-87 -94 -99 -94 -128 1 -10 32 -27 88 -38 124 -89 291 -366 607 -644 736
-174 80 -346 107 -597 92 -136 -8 -238 -25 -533 -91 -284 -64 -335 -71 -470
-71 -132 1 -211 13 -498 78 -346 79 -509 98 -731 84 -229 -14 -464 -116 -642
-278 -54 -50 -183 -195 -227 -256 -81 -112 -150 -286 -187 -466 -6 -31 -20
-66 -30 -79 l-20 -22 -51 54 c-28 30 -63 69 -78 88 l-26 34 -3 286 c-3 311 5
391 54 534 14 40 28 86 33 102 5 17 15 46 24 65 l15 35 1 -56 c1 -40 7 -64 21
-82 11 -14 20 -35 20 -47 0 -53 74 -151 130 -174 59 -24 112 -2 280 115 270
189 432 276 677 364 230 84 527 150 783 174 63 6 131 13 150 15 90 10 702 -3
820 -18z m-1480 -656 c115 -12 242 -37 495 -95 263 -61 351 -75 475 -75 127 0
207 13 520 84 341 78 412 89 590 90 171 1 258 -14 382 -64 116 -47 178 -90
289 -200 190 -189 233 -281 273 -593 28 -206 39 -517 33 -927 l-5 -395 -40
-135 c-160 -528 -400 -962 -740 -1335 l-91 -100 -1 -449 0 -449 -80 -75 c-258
-239 -648 -859 -1015 -1615 -60 -124 -112 -226 -115 -226 -3 0 -76 143 -162
317 -367 742 -716 1290 -968 1524 l-80 75 0 449 -1 449 -91 100 c-341 374
-578 803 -745 1348 l-38 122 0 510 c0 530 7 676 46 905 41 242 98 352 271 516
96 91 153 130 258 175 162 70 327 91 540 69z m3407 -2189 c50 -54 92 -89 128
-107 30 -14 55 -31 55 -38 0 -6 5 -60 10 -121 5 -60 26 -384 47 -720 33 -539
37 -662 37 -1059 l1 -448 -24 -17 c-55 -38 -108 -92 -129 -131 l-22 -42 0
-844 0 -844 -325 0 -325 0 0 148 c0 105 10 239 35 453 81 709 115 1063 115
1190 0 122 -2 133 -26 175 -38 65 -117 131 -177 149 -35 10 -96 15 -202 15
l-152 0 -6 68 c-4 37 -7 171 -7 299 l0 232 29 33 c257 293 496 694 661 1109
50 126 133 392 150 484 14 71 24 95 43 95 5 0 43 -36 84 -79z m-4750 -71 c11
-36 38 -119 58 -185 139 -452 415 -959 704 -1294 l56 -65 3 -220 c2 -122 1
-262 -3 -313 l-7 -91 -166 -4 c-135 -3 -174 -7 -203 -21 -56 -28 -116 -83
-154 -143 -34 -53 -35 -56 -35 -162 0 -107 37 -497 105 -1103 28 -249 35 -350
35 -505 l0 -194 -326 0 -327 0 7 853 7 852 -33 49 c-18 27 -55 65 -83 84 -32
21 -52 43 -56 60 -13 52 -9 531 6 797 53 949 81 1386 91 1436 4 20 14 29 47
38 32 10 62 34 132 107 50 51 97 93 105 91 9 -1 24 -29 37 -67z m1021 -2397
c-14 -50 -4 -131 21 -181 11 -22 49 -75 83 -118 176 -218 229 -290 348 -479
98 -157 287 -491 400 -710 57 -110 128 -243 158 -295 58 -102 73 -152 51 -166
-8 -5 -293 -11 -634 -14 l-620 -5 -50 -27 c-27 -15 -70 -40 -95 -57 -24 -17
-45 -29 -47 -28 -11 12 -233 2007 -233 2102 0 13 43 15 314 15 l314 0 -10 -37z
m3197 5 c-3 -18 -26 -231 -50 -473 -69 -672 -164 -1493 -183 -1581 l-7 -33
-55 36 c-30 19 -79 46 -108 59 l-53 24 -577 1 c-317 1 -588 4 -601 8 -13 3
-29 14 -35 23 -11 18 -8 28 55 138 20 36 88 164 151 285 182 346 329 601 497
860 75 116 114 169 234 319 48 61 96 129 107 151 22 45 26 128 11 183 l-10 32
315 0 315 0 -6 -32z m927 -250 c101 -64 102 -66 83 -119 -34 -94 17 -194 194
-385 154 -167 208 -233 283 -349 82 -126 148 -260 198 -400 42 -117 43 -123
48 -273 4 -149 4 -152 -17 -152 -12 0 -21 -6 -21 -15 0 -13 -38 -15 -279 -15
-154 0 -282 -4 -285 -9 -3 -4 -27 -11 -54 -13 -36 -4 -68 -17 -128 -56 l-79
-51 -7 42 c-5 23 -24 418 -43 877 -19 459 -38 875 -41 924 l-7 89 39 -23 c21
-13 73 -45 116 -72z m-5526 -40 c-3 -68 -22 -485 -41 -928 -19 -443 -37 -820
-40 -837 l-6 -33 -82 55 c-45 30 -89 55 -99 55 -9 0 -20 5 -23 10 -4 6 -108
10 -281 10 -237 0 -274 2 -274 15 0 11 -11 15 -41 15 l-41 0 4 168 c5 154 7
173 35 253 37 104 136 300 205 406 77 118 130 184 271 338 98 107 136 156 162
210 44 92 48 120 30 180 -13 46 -13 51 3 67 21 21 204 137 216 138 5 0 6 -52
2 -122z M4249 6067 c-51 -27 -104 -91 -119 -145 -16 -60 -13 -310 6 -364 52
-154 249 -208 373 -101 71 61 81 95 81 289 0 189 -9 221 -71 281 -71 67 -186
84 -270 40z M6205 6072 c-22 -11 -54 -35 -72 -53 -56 -59 -63 -90 -63 -276 0
-149 2 -171 21 -210 72 -148 266 -178 382 -58 58 60 69 110 65 294 -3 155 -3
158 -33 207 -17 26 -50 62 -73 79 -37 25 -54 30 -115 33 -55 2 -82 -2 -112
-16z M5116 4769 c-52 -8 -87 -37 -115 -92 -31 -62 -23 -122 22 -174 52 -59 72
-63 307 -63 235 0 255 4 307 63 41 47 51 106 28 165 -18 45 -62 88 -98 97 -32
8 -407 11 -451 4z M4562 4104 c-72 -37 -109 -128 -83 -207 23 -70 159 -171
312 -233 263 -107 667 -123 965 -39 194 55 396 184 424 271 53 160 -132 293
-258 185 -147 -126 -311 -174 -592 -174 -281 0 -445 48 -592 174 -47 40 -123
50 -176 23z M4285 3244 c8 -20 33 -70 55 -110 52 -96 52 -108 -7 -136 -27 -13
-48 -28 -48 -34 0 -16 96 -96 185 -156 415 -276 977 -331 1450 -141 147 59
311 159 410 251 l53 48 -44 30 c-54 36 -58 58 -24 126 48 95 74 159 62 151 -7
-4 -56 -40 -111 -80 -248 -185 -516 -307 -765 -348 -336 -57 -729 68 -1114
352 -61 46 -113 83 -114 83 -2 0 4 -16 12 -36z M1770 6773 c-59 -22 -65 -81
-20 -217 39 -116 194 -429 306 -616 145 -244 374 -580 394 -580 12 0 22 84 14
127 -9 54 -61 153 -168 321 -207 325 -354 607 -363 698 l-6 55 29 -7 c16 -4
37 -11 47 -16 11 -5 17 -5 17 2 0 18 31 11 124 -32 125 -57 195 -59 246 -8
l20 20 -38 23 c-225 142 -528 257 -602 230z M8755 6765 c-85 -18 -240 -77
-384 -147 -118 -57 -123 -60 -106 -78 28 -31 70 -43 122 -34 27 4 54 8 62 7 8
-1 53 13 100 31 118 45 138 49 145 31 3 -8 11 -14 18 -13 22 5 12 -82 -17
-146 -56 -125 -189 -342 -352 -573 -131 -186 -153 -230 -152 -302 0 -31 4 -64
8 -75 8 -21 14 -15 132 144 261 353 521 785 583 972 40 119 34 166 -25 187
-39 14 -58 13 -134 -4z"/>
</g>
</svg>
