<?xml version="1.0" standalone="no"?>
<!DOCTYPE svg PUBLIC "-//W3C//DTD SVG 20010904//EN"
 "http://www.w3.org/TR/2001/REC-SVG-20010904/DTD/svg10.dtd">
<svg version="1.0" xmlns="http://www.w3.org/2000/svg"
 width="2048.000000pt" height="2048.000000pt" viewBox="0 0 2048.000000 2048.000000"
 preserveAspectRatio="xMidYMid meet">
<metadata>
Created by potrace 1.13, written by Peter Selinger 2001-2015
</metadata>
<g transform="translate(0.000000,2048.000000) scale(0.192120,-0.192120)"
fill="#000000" stroke="none">
<path d="M5045 9490 c-1187 -64 -1818 -470 -2065 -1327 -93 -323 -150 -823
-150 -1314 l0 -126 -57 -13 c-92 -20 -380 -116 -511 -170 -544 -223 -939 -541
-1074 -862 l-30 -71 12 -100 c16 -136 50 -250 119 -392 134 -278 303 -484 851
-1040 348 -352 504 -522 617 -670 139 -183 246 -375 297 -530 27 -83 56 -234
56 -290 l0 -32 -108 -6 c-669 -38 -1267 -499 -1476 -1137 -71 -220 -86 -348
-86 -762 l0 -318 3890 0 3890 0 0 309 c0 170 -5 355 -11 412 -58 573 -401
1070 -914 1324 -212 104 -414 159 -637 172 l-108 6 0 32 c0 56 30 207 57 290
70 214 212 441 446 713 51 58 254 271 452 472 466 473 607 633 751 851 132
200 211 401 234 592 14 117 20 106 -136 257 -180 174 -367 313 -631 469 -221
130 -603 304 -820 373 l-73 23 0 180 c-1 335 -28 733 -66 975 -59 375 -184
716 -346 945 -81 115 -248 282 -363 363 -302 213 -745 349 -1280 391 -187 15
-555 21 -730 11z m691 -310 c738 -58 1226 -266 1484 -631 132 -188 223 -440
279 -779 20 -115 21 -158 19 -550 l-3 -425 -39 95 c-70 169 -174 380 -227 458
-260 384 -583 594 -937 609 -147 7 -242 -7 -369 -52 -170 -61 -299 -146 -475
-314 -65 -61 -126 -111 -136 -111 -26 0 -61 28 -167 132 -158 156 -323 258
-510 315 -83 25 -103 27 -260 27 -157 0 -177 -2 -260 -28 -344 -105 -651 -387
-839 -771 -40 -82 -77 -161 -81 -175 -11 -36 -54 -142 -67 -165 -6 -11 -15
-33 -19 -50 -4 -16 -7 159 -8 390 -1 369 2 436 19 551 71 475 188 752 414 980
275 277 730 444 1346 493 153 12 686 13 836 1z m-1150 -1500 c109 -27 263
-106 361 -185 130 -104 260 -267 345 -432 18 -34 35 -63 38 -63 3 0 20 29 38
63 127 246 317 444 527 548 134 66 229 89 370 89 135 0 232 -22 354 -80 114
-55 189 -111 292 -216 176 -183 270 -362 370 -706 116 -403 290 -759 384 -782
34 -9 62 11 86 61 11 23 26 46 33 52 8 7 79 45 160 86 263 134 406 160 436 79
13 -33 -4 -239 -35 -423 -94 -550 -286 -938 -521 -1052 -63 -31 -77 -34 -165
-34 l-96 0 -43 -129 c-104 -308 -255 -589 -461 -856 -92 -120 -329 -356 -436
-435 l-82 -60 -1 -342 0 -341 -112 -80 c-378 -267 -609 -386 -848 -438 -106
-23 -370 -26 -475 -5 -244 48 -464 158 -842 423 l-143 100 0 341 -1 342 -82
60 c-118 86 -357 329 -463 470 -200 267 -347 551 -449 865 l-28 85 -96 0 c-88
0 -102 3 -163 33 -238 116 -429 501 -523 1058 -32 185 -49 398 -35 424 39 73
179 46 436 -85 81 -41 152 -79 160 -86 7 -6 23 -31 34 -55 47 -95 103 -81 192
50 82 120 200 406 277 674 100 345 194 524 370 706 151 155 315 250 492 285
86 17 260 12 345 -9z m-1732 -1492 c4 -26 5 -48 2 -48 -2 0 -43 46 -92 101
-48 56 -98 113 -111 127 -12 14 -23 30 -23 36 0 6 34 49 75 96 42 47 86 100
98 117 l22 33 11 -207 c7 -114 15 -228 18 -255z m5044 266 c79 -108 74 -130
-62 -279 l-36 -40 5 45 c7 59 25 307 25 339 0 29 -1 29 68 -65z m-5818 -639
c82 -552 281 -1005 543 -1233 74 -64 119 -91 217 -132 41 -17 83 -38 93 -48
11 -9 68 -116 127 -237 122 -249 239 -440 366 -599 98 -122 260 -293 358 -376
36 -30 65 -62 65 -71 1 -9 10 -24 21 -34 19 -17 20 -31 20 -235 0 -181 3 -220
15 -230 8 -7 15 -26 15 -43 0 -48 48 -131 143 -245 48 -58 87 -111 87 -117 0
-8 -34 -10 -115 -7 -171 6 -217 -16 -270 -129 -16 -35 -30 -66 -32 -68 -5 -8
-122 65 -223 137 -108 78 -322 283 -352 338 l-18 31 48 18 c113 43 137 81 128
205 -15 206 -142 490 -340 760 -157 214 -305 378 -706 785 -452 460 -596 628
-719 845 -94 164 -112 222 -118 370 l-5 125 44 60 c106 144 308 307 528 427
l45 25 7 -91 c4 -50 16 -154 28 -231z m6609 119 c98 -54 292 -191 411 -292
l105 -89 -1 -99 c-1 -86 -5 -109 -32 -179 -56 -141 -206 -366 -367 -550 -38
-44 -239 -253 -445 -465 -576 -592 -735 -787 -888 -1095 -98 -198 -142 -339
-142 -456 0 -96 35 -139 143 -175 l47 -16 -17 -31 c-27 -49 -228 -246 -323
-318 -84 -63 -236 -159 -252 -159 -4 0 -8 5 -8 11 0 6 -14 40 -31 76 -28 58
-36 67 -82 89 -46 22 -65 24 -162 23 -94 -1 -110 1 -113 15 -2 9 32 59 76 112
88 106 132 180 132 224 0 16 5 32 10 35 6 4 10 95 10 239 0 195 2 236 15 246
8 7 15 21 15 31 0 11 4 19 9 19 19 0 302 283 378 379 43 53 82 98 87 100 29
12 202 305 311 526 68 138 131 258 142 267 10 9 55 30 99 47 361 139 624 607
748 1331 31 180 34 190 48 190 6 0 41 -16 77 -36z m-5575 -3694 c14 -5 72 -51
128 -101 57 -51 129 -113 161 -137 64 -51 69 -68 42 -156 -12 -40 -15 -122
-15 -436 0 -385 0 -386 24 -448 35 -89 77 -158 140 -231 62 -72 69 -97 30
-111 -16 -6 -379 -10 -965 -10 l-939 0 0 274 c0 213 3 290 16 343 98 428 442
792 889 941 190 63 423 97 489 72z m4638 -5 c185 -28 316 -69 471 -146 204
-103 392 -267 511 -448 79 -119 117 -200 157 -334 l29 -100 0 -298 0 -299
-929 0 c-580 0 -939 4 -955 10 -38 14 -32 41 20 102 55 64 110 159 141 245 23
63 23 72 23 449 0 333 -2 395 -17 450 -20 75 -17 83 48 133 24 18 93 77 153
130 59 53 118 101 130 108 29 17 97 16 218 -2z m-3512 -335 c113 -51 297 -132
408 -181 l204 -88 36 29 c72 57 94 60 442 60 349 0 370 -3 443 -61 l38 -30
412 183 c403 179 413 183 478 182 117 -1 221 -71 273 -183 20 -43 21 -64 24
-361 4 -408 -5 -459 -104 -555 -66 -65 -124 -89 -221 -93 -95 -5 -30 -31 -566
232 l-358 175 -42 -22 c-41 -21 -51 -22 -377 -22 -324 0 -336 1 -378 22 l-43
22 -137 -68 c-75 -38 -264 -130 -419 -206 l-282 -137 -83 4 c-97 4 -156 29
-224 94 -97 94 -106 147 -102 554 3 295 4 318 24 361 41 87 113 151 204 176
82 23 129 12 350 -87z m1027 -1026 c193 -4 326 -2 391 5 124 15 166 3 348 -97
230 -126 250 -143 177 -159 -50 -11 -1657 -10 -1706 0 -52 11 -46 34 18 70
291 166 368 200 435 192 25 -3 176 -8 337 -11z M4120 6423 c-27 -10 -65 -37
-96 -68 -74 -74 -84 -114 -84 -330 0 -203 10 -250 71 -319 63 -72 107 -91 209
-91 74 0 91 3 130 27 60 35 94 72 122 133 22 47 23 62 23 250 0 199 0 200 -28
257 -64 131 -208 189 -347 141z m110 -403 c0 -118 -2 -140 -15 -140 -13 0 -15
22 -15 140 0 118 2 140 15 140 13 0 15 -22 15 -140z M6344 6424 c-60 -21 -119
-77 -151 -142 -28 -57 -28 -58 -28 -257 0 -188 1 -203 23 -250 28 -61 62 -98
122 -133 39 -24 56 -27 130 -27 102 0 146 19 209 91 61 69 71 116 71 319 0
216 -10 256 -83 330 -80 80 -190 106 -293 69z m106 -404 c0 -118 -2 -140 -15
-140 -13 0 -15 22 -15 140 0 118 2 140 15 140 13 0 15 -22 15 -140z M5034
5241 c-79 -36 -136 -142 -119 -223 12 -59 53 -116 103 -145 47 -28 47 -28 267
-31 121 -2 243 -1 271 3 94 11 169 81 189 173 17 80 -40 187 -119 223 -36 17
-69 19 -296 19 -227 0 -260 -2 -296 -19z M6183 4261 c-12 -6 -40 -23 -63 -40
-39 -28 -143 -67 -240 -90 -172 -40 -517 -59 -758 -42 -289 20 -471 62 -590
135 -47 30 -67 36 -111 36 -111 0 -187 -80 -179 -188 3 -50 11 -67 60 -137 54
-77 56 -83 60 -155 3 -73 7 -82 148 -370 79 -162 154 -309 167 -327 27 -38 85
-59 135 -49 55 10 90 59 162 221 l66 150 62 -5 c35 -3 137 -5 228 -5 91 0 191
2 223 5 l57 5 68 -154 c39 -88 81 -166 97 -182 45 -46 114 -50 173 -11 18 12
70 107 181 332 148 300 155 318 159 385 5 73 17 98 93 195 92 117 20 288 -124
297 -29 1 -62 -1 -74 -6z m-1390 -352 c72 -17 143 -37 158 -44 42 -22 79 -73
79 -108 0 -35 -241 -590 -251 -579 -4 4 -68 135 -143 290 -150 312 -157 338
-113 402 25 37 79 70 116 70 13 0 82 -14 154 -31z m1295 3 c36 -26 62 -78 62
-125 0 -23 -35 -106 -111 -263 -61 -126 -125 -258 -141 -294 l-30 -65 -14 30
c-123 267 -234 534 -234 561 0 39 44 95 88 113 61 25 269 70 309 67 22 -2 55
-13 71 -24z m-694 -118 c9 -68 8 -103 -6 -140 -11 -30 -15 -33 -66 -36 -32 -2
-58 2 -63 9 -16 19 -22 78 -14 147 l7 66 67 0 68 0 7 -46z M4272 3063 c5 -20
7 -48 4 -63 -6 -32 15 -54 119 -125 266 -182 664 -268 1093 -237 366 27 620
113 842 285 56 44 59 48 53 81 -3 19 0 49 6 66 6 17 7 30 2 28 -4 -2 -68 -33
-142 -70 -329 -164 -601 -224 -969 -215 -343 8 -591 71 -898 228 -63 33 -116
59 -117 59 -2 0 1 -16 7 -37z M4581 1658 c-43 -114 -39 -296 11 -447 l20 -64
30 49 c62 101 80 109 168 74 27 -11 50 -18 50 -15 0 2 -7 34 -16 72 -16 70
-16 238 1 276 6 14 -4 11 -46 -14 -81 -50 -100 -48 -151 20 -23 31 -45 60 -50
65 -4 5 -12 -2 -17 -16z M6028 1620 c-51 -70 -76 -76 -152 -35 -26 14 -49 25
-51 25 -2 0 1 -15 6 -32 14 -50 11 -185 -6 -257 -9 -35 -14 -65 -13 -67 2 -1
30 6 62 17 76 26 92 19 141 -62 37 -60 38 -61 50 -38 29 57 49 166 49 279 1
109 -17 230 -35 230 -4 0 -27 -27 -51 -60z"/>
</g>
</svg>
