<?xml version="1.0" standalone="no"?>
<!DOCTYPE svg PUBLIC "-//W3C//DTD SVG 20010904//EN"
 "http://www.w3.org/TR/2001/REC-SVG-20010904/DTD/svg10.dtd">
<svg version="1.0" xmlns="http://www.w3.org/2000/svg"
 width="2048.000000pt" height="2048.000000pt" viewBox="0 0 2048.000000 2048.000000"
 preserveAspectRatio="xMidYMid meet">
<metadata>
Created by potrace 1.13, written by Peter Selinger 2001-2015
</metadata>
<g transform="translate(0.000000,2048.000000) scale(0.192120,-0.192120)"
fill="#000000" stroke="none">
<path d="M4541 10029 c-383 -40 -707 -185 -947 -424 -151 -150 -249 -309 -312
-505 -45 -142 -55 -234 -49 -444 8 -249 47 -412 123 -511 l34 -45 0 -203 c0
-286 31 -446 126 -654 116 -255 360 -511 612 -640 l92 -47 0 -58 0 -58 -433 0
c-475 0 -495 -2 -573 -59 -45 -33 -150 -165 -1216 -1516 -427 -542 -751 -962
-764 -991 -78 -166 -7 -365 161 -452 39 -20 69 -26 135 -30 109 -5 178 19 250
86 41 39 1426 1787 1600 2019 30 40 56 71 58 69 2 -2 18 -136 37 -298 18 -161
68 -588 111 -949 l78 -657 -25 -138 -25 -139 -235 3 c-408 6 -555 -24 -743
-151 -149 -101 -271 -266 -325 -440 -103 -336 -67 -730 98 -1071 195 -402 554
-705 1006 -849 564 -181 1441 -279 2100 -237 516 34 920 121 1360 295 176 69
518 239 691 344 138 83 154 90 179 81 59 -22 122 -31 231 -31 130 0 262 24
429 78 273 88 407 193 701 548 251 305 429 474 649 620 91 60 368 205 392 205
31 0 9 19 -34 29 -207 48 -430 37 -706 -33 -283 -73 -618 -218 -900 -390 -60
-36 -111 -66 -114 -66 -3 0 27 34 66 76 222 233 334 544 357 989 6 127 -6 353
-27 500 -15 103 -16 105 -45 70 -60 -71 -109 -142 -233 -339 -256 -404 -370
-548 -676 -851 -235 -233 -280 -290 -352 -441 -39 -84 -93 -258 -93 -304 0
-13 -23 -23 -112 -44 -575 -140 -957 -166 -1375 -95 l-63 11 73 72 c85 83 139
161 184 266 55 130 65 206 61 482 -4 221 -6 249 -26 303 -28 74 -80 154 -138
210 l-43 42 -31 181 c-16 99 -30 198 -30 220 0 22 40 412 90 868 49 456 95
891 102 967 6 75 14 137 18 136 3 0 174 -341 380 -757 350 -707 379 -761 430
-813 40 -41 70 -61 110 -75 61 -20 158 -23 205 -4 62 24 1219 697 1261 733 62
55 106 148 112 241 6 95 -15 166 -72 244 -79 107 -219 155 -336 115 -30 -10
-251 -132 -491 -271 -240 -138 -438 -252 -441 -252 -3 0 -11 15 -19 33 -38 94
-614 1236 -663 1316 -79 127 -174 226 -251 263 l-60 28 -467 0 -468 0 0 58 0
59 73 36 c175 87 358 241 483 406 36 48 94 144 129 216 110 223 145 384 145
672 l0 181 29 10 c79 28 131 276 131 621 0 285 -66 482 -240 724 -65 90 -222
242 -325 316 -101 71 -311 177 -426 214 -232 76 -521 104 -788 76z m549 -318
c445 -92 795 -352 918 -684 19 -49 22 -79 22 -203 l0 -145 -67 57 c-99 84
-142 100 -318 119 -189 20 -326 45 -484 90 -156 44 -200 45 -274 5 -31 -16
-70 -30 -87 -30 -16 0 -65 16 -107 36 -91 43 -128 45 -203 13 -97 -42 -137
-32 -302 73 -201 128 -266 137 -393 52 -63 -43 -103 -79 -189 -176 -38 -43
-73 -78 -78 -78 -6 0 -9 43 -6 113 4 127 16 161 94 278 181 272 505 447 924
499 123 15 440 4 550 -19z m-1078 -782 c35 -28 106 -79 158 -114 247 -166 379
-166 368 -1 l-3 53 113 -103 c123 -113 223 -188 271 -205 83 -29 82 66 -3 255
l-27 58 48 -35 c93 -67 201 -110 369 -147 115 -25 324 -50 415 -50 133 0 113
21 262 -274 72 -143 133 -263 134 -266 2 -3 -21 -18 -51 -33 -30 -16 -57 -35
-60 -43 -3 -9 -10 -13 -16 -9 -5 3 -12 -6 -16 -20 -3 -14 -10 -25 -15 -25 -5
0 -9 -31 -9 -70 0 -40 -4 -70 -10 -70 -5 0 -10 -26 -10 -57 0 -32 -4 -85 -9
-118 -5 -33 -14 -93 -20 -133 -11 -75 -75 -223 -123 -287 -138 -181 -268 -333
-340 -395 -184 -159 -232 -220 -226 -288 3 -34 2 -36 -51 -54 -212 -71 -551
-72 -771 0 -51 16 -55 20 -52 46 7 63 -16 93 -232 310 -116 116 -237 245 -268
286 -61 81 -133 217 -167 317 -31 91 -58 261 -66 409 -7 118 -10 134 -34 168
-14 22 -41 47 -60 57 -56 30 -56 30 -31 136 40 176 114 345 213 493 56 82 222
260 243 260 8 0 42 -23 76 -51z m493 -2580 c201 -45 474 -34 662 26 43 14 83
25 88 25 6 0 23 -29 38 -64 32 -71 75 -117 127 -136 25 -9 131 -14 375 -17
463 -5 483 -11 605 -196 34 -50 175 -321 315 -602 139 -280 270 -537 290 -570
46 -77 154 -186 212 -215 98 -49 158 -26 593 225 151 87 302 171 336 187 62
29 146 40 173 23 20 -12 9 -110 -15 -136 -26 -29 -129 -91 -579 -351 -479
-277 -503 -289 -577 -296 l-59 -5 -48 50 c-41 42 -91 136 -335 620 -157 314
-307 602 -332 639 -89 132 -192 224 -251 224 -63 0 -168 -91 -218 -189 -53
-106 -61 -161 -155 -1021 -69 -641 -70 -648 -70 -922 0 -271 0 -277 20 -273
17 3 20 -2 20 -30 0 -19 4 -44 9 -57 32 -83 51 -122 95 -193 26 -44 61 -108
77 -143 l29 -63 0 -247 c0 -193 -4 -259 -16 -302 -8 -30 -19 -107 -24 -170 -6
-89 -15 -134 -39 -199 -65 -177 -26 -273 127 -321 178 -55 588 -48 945 16 81
15 89 15 106 0 17 -16 27 -15 147 14 159 38 217 65 291 138 76 75 115 136 149
230 81 230 115 282 315 479 179 176 304 315 465 518 90 114 120 145 122 130 3
-11 2 -69 -1 -130 -6 -132 -12 -148 -167 -480 -59 -125 -52 -227 22 -310 94
-107 178 -101 485 36 87 39 186 82 221 95 l62 24 0 -28 c0 -28 -1 -29 -253
-331 -231 -278 -381 -372 -708 -448 -57 -13 -125 -17 -300 -17 l-227 -1 -128
-66 c-71 -36 -221 -113 -334 -171 -468 -239 -910 -375 -1410 -432 -644 -74
-1450 -18 -2095 144 -395 99 -623 215 -831 424 -152 153 -239 294 -312 504
l-36 107 -4 262 c-4 301 1 338 61 457 60 117 156 212 268 265 117 55 204 71
401 71 197 0 325 13 374 36 48 23 142 111 174 163 14 22 32 41 41 41 27 0 39
96 39 303 0 175 -7 245 -85 911 -48 397 -93 753 -102 791 -24 107 -56 170
-124 240 -79 83 -117 101 -174 85 -60 -17 -167 -101 -255 -201 -41 -47 -351
-436 -689 -865 -338 -428 -642 -811 -675 -850 -102 -118 -169 -158 -240 -140
-42 10 -56 33 -56 91 0 64 -76 -38 648 879 300 380 633 804 741 941 342 438
419 527 488 564 50 26 131 34 433 40 338 8 380 14 427 60 14 14 41 58 60 97
l34 72 62 -20 c34 -11 103 -28 152 -39z M4021 8093 c-101 -53 -106 -184 -9
-243 64 -39 146 -16 188 52 68 112 -63 252 -179 191z M5410 8093 c-88 -46
-106 -152 -37 -220 68 -69 174 -51 220 37 21 40 18 97 -7 135 -38 58 -116 79
-176 48z M4501 7504 c27 -142 128 -226 274 -226 113 0 190 42 238 130 15 27
30 71 33 96 l7 46 -280 0 -280 0 8 -46z M4220 6983 c0 -30 41 -102 76 -133 48
-42 122 -77 212 -102 66 -18 105 -21 267 -21 162 0 201 3 267 21 139 38 240
107 274 188 29 69 73 64 -541 64 -514 0 -555 -1 -555 -17z M3773 2846 c-35
-16 -63 -61 -63 -101 0 -55 49 -86 340 -213 359 -156 527 -226 779 -323 419
-163 858 -297 926 -285 49 9 80 49 80 102 0 72 -24 87 -205 133 -340 87 -1001
340 -1630 624 -170 77 -185 81 -227 63z"/>
</g>
</svg>
