<?xml version="1.0" standalone="no"?>
<!DOCTYPE svg PUBLIC "-//W3C//DTD SVG 20010904//EN"
 "http://www.w3.org/TR/2001/REC-SVG-20010904/DTD/svg10.dtd">
<svg version="1.0" xmlns="http://www.w3.org/2000/svg"
 width="2048.000000pt" height="2048.000000pt" viewBox="0 0 2048.000000 2048.000000"
 preserveAspectRatio="xMidYMid meet">
<metadata>
Created by potrace 1.13, written by Peter Selinger 2001-2015
</metadata>
<g transform="translate(0.000000,2048.000000) scale(0.192120,-0.192120)"
fill="#000000" stroke="none">
<path d="M5070 10324 c-744 -50 -1347 -210 -1980 -525 -654 -326 -1254 -818
-1706 -1400 -1029 -1323 -1326 -3070 -794 -4659 448 -1335 1444 -2423 2740
-2993 1101 -483 2378 -547 3535 -177 320 103 739 293 1025 465 399 240 794
559 1079 870 109 118 110 124 44 152 -95 39 -142 13 -416 -236 -357 -324 -690
-552 -1112 -761 -264 -130 -398 -186 -641 -266 -987 -324 -2071 -320 -3060 11
-718 241 -1298 599 -1898 1175 -184 177 -423 476 -603 755 -387 601 -628 1265
-723 1990 -8 63 -10 260 -7 665 l4 575 31 172 c106 585 277 1061 565 1573 464
825 1186 1500 2062 1926 499 243 971 382 1550 456 159 20 223 23 550 23 387 0
479 -6 767 -50 465 -72 927 -217 1353 -425 358 -176 656 -369 1000 -649 55
-45 132 -107 170 -138 195 -157 528 -540 725 -833 176 -262 341 -575 476 -900
42 -102 108 -250 146 -330 130 -267 166 -377 188 -567 15 -128 8 -1168 -9
-1328 -36 -334 -106 -725 -265 -1475 -36 -167 -64 -306 -62 -307 5 -5 95 184
146 306 457 1093 502 2353 125 3486 -338 1014 -980 1881 -1858 2507 -387 276
-903 534 -1352 678 -389 124 -806 202 -1220 230 -136 9 -464 11 -575 4z M3170
8854 c-342 -44 -639 -183 -927 -433 -87 -76 -119 -123 -140 -205 -14 -57 -14
-68 1 -125 28 -110 99 -186 202 -217 113 -34 191 -10 317 98 162 139 308 222
472 270 67 19 103 23 215 22 124 0 143 -3 230 -32 190 -63 391 -211 558 -410
187 -224 227 -252 357 -252 49 0 75 6 123 31 101 50 152 128 160 245 4 62 1
80 -21 128 -47 101 -247 333 -412 475 -307 265 -617 396 -960 405 -77 3 -156
2 -175 0z m275 -274 c183 -21 331 -72 503 -173 174 -103 353 -260 489 -431 25
-32 33 -51 33 -83 0 -43 0 -43 -36 -43 -54 0 -87 26 -214 162 -135 146 -186
194 -288 270 -65 49 -235 152 -252 153 -3 1 -14 5 -25 11 -168 89 -451 99
-654 24 -105 -40 -256 -122 -381 -210 -174 -122 -216 -140 -248 -108 -29 29
-13 57 67 120 303 240 656 348 1006 308z M7110 8559 c-710 -39 -1355 -425
-1745 -1044 -116 -184 -226 -454 -274 -671 -51 -230 -65 -525 -37 -754 124
-993 897 -1776 1891 -1916 142 -19 430 -22 555 -5 434 60 806 219 1135 484
152 122 383 381 433 485 16 33 16 34 -8 53 -63 48 -133 13 -281 -137 -232
-235 -404 -364 -642 -478 -479 -232 -1036 -268 -1543 -101 -162 53 -385 160
-499 238 -173 119 -372 306 -479 449 -171 231 -295 502 -347 760 -18 88 -20
129 -17 475 4 374 4 379 31 477 103 379 315 714 612 966 225 191 503 339 778
414 223 61 304 71 577 70 223 0 257 -3 380 -27 613 -120 1128 -496 1407 -1027
45 -86 98 -216 138 -340 15 -47 34 -98 42 -114 40 -77 162 -174 260 -206 100
-33 183 -71 183 -85 0 -6 20 -26 46 -44 25 -18 56 -50 70 -71 25 -37 25 -41
22 -207 -3 -168 -3 -168 -34 -218 -60 -97 -75 -179 -48 -271 5 -18 -2 -24 -43
-42 -99 -42 -223 -58 -314 -39 l-35 7 -33 -87 c-19 -49 -56 -133 -85 -188
l-51 -100 0 -2355 0 -2355 28 -57 c65 -132 208 -195 349 -154 78 22 159 97
187 172 21 55 21 58 21 2622 l0 2567 45 28 c96 61 185 184 225 312 29 91 31
234 6 320 -72 246 -279 414 -531 432 l-84 6 -12 56 c-23 114 -103 336 -169
469 -224 453 -583 808 -1035 1023 -254 121 -526 192 -780 205 -60 2 -123 6
-140 7 -16 2 -86 0 -155 -4z m2358 -5511 c-3 -2152 -4 -2313 -20 -2316 -15 -3
-17 45 -21 625 -4 451 -8 642 -17 678 -17 67 -27 837 -29 2180 l-1 1060 21 35
c23 38 37 50 57 50 10 0 12 -466 10 -2312z M7085 8214 c-435 -51 -795 -221
-1100 -521 -89 -87 -210 -231 -275 -328 -57 -84 -175 -325 -208 -425 -69 -207
-72 -233 -72 -581 l0 -315 30 -116 c61 -240 190 -514 338 -718 86 -119 310
-334 435 -419 322 -218 762 -335 1136 -303 421 37 776 195 1088 486 75 69 233
251 233 268 0 4 27 49 61 100 69 106 187 342 219 438 70 210 73 233 78 547 4
353 -7 426 -110 713 -101 281 -305 561 -568 782 -183 152 -493 299 -755 357
-159 35 -395 50 -530 35z m330 -244 c204 -24 387 -79 560 -169 157 -82 273
-167 411 -305 232 -233 375 -497 445 -826 20 -89 23 -136 24 -305 0 -170 -3
-217 -23 -312 -132 -654 -622 -1144 -1282 -1284 -86 -18 -139 -22 -295 -23
-117 -1 -219 4 -265 12 -353 62 -639 211 -890 462 -134 134 -227 261 -305 415
-226 452 -230 977 -10 1432 155 318 450 610 765 756 280 130 575 180 865 147z
M7926 7614 c-38 -9 -80 -30 -120 -58 -91 -66 -1769 -1751 -1795 -1802 -20 -41
-45 -163 -35 -173 5 -6 2044 2030 2044 2041 0 11 -25 9 -94 -8z M7620 5965
c-652 -652 -968 -975 -955 -975 39 0 124 28 186 61 47 25 119 87 279 240 331
317 1334 1331 1384 1399 25 33 53 84 64 113 23 62 37 137 25 137 -4 0 -447
-439 -983 -975z M3571 7254 c-128 -34 -268 -136 -367 -267 -58 -77 -146 -257
-174 -357 -67 -242 -67 -528 -1 -765 90 -323 316 -579 561 -636 80 -18 203
-14 280 10 271 84 487 381 557 765 22 122 22 359 -1 486 -68 380 -287 676
-560 759 -81 25 -213 27 -295 5z m314 -298 c122 -60 221 -183 276 -345 17 -48
19 -88 19 -361 0 -274 -2 -314 -19 -366 -28 -87 -40 -111 -99 -202 -62 -94
-101 -130 -192 -175 -59 -29 -73 -32 -160 -32 -86 0 -101 3 -163 32 -126 60
-231 192 -295 373 -27 75 -27 76 -27 365 l0 290 29 80 c35 93 56 133 105 195
53 66 99 106 162 140 77 41 120 50 213 45 66 -3 91 -9 151 -39z M5130 3189
c-257 -26 -524 -104 -779 -226 -134 -65 -195 -151 -195 -278 0 -116 57 -210
158 -263 43 -22 64 -26 131 -27 75 0 87 3 184 49 126 58 275 108 413 138 148
32 427 31 578 -1 135 -28 281 -77 412 -137 153 -71 240 -71 345 -1 61 41 108
111 123 184 22 106 -28 233 -115 293 -60 42 -227 114 -379 165 -287 96 -595
132 -876 104z m390 -270 c151 -13 287 -42 435 -90 197 -65 295 -123 255 -150
-16 -10 -87 -5 -137 10 -2 1 -5 1 -9 0 -3 0 -15 6 -27 14 -20 13 -172 73 -207
83 -8 2 -46 13 -84 24 -232 67 -588 67 -836 -1 -88 -24 -260 -86 -277 -101 -7
-6 -13 -7 -13 -4 0 4 -10 1 -22 -6 -13 -6 -30 -14 -38 -15 -55 -13 -90 -14
-109 -4 -52 28 25 74 246 147 273 90 534 120 823 93z"/>
</g>
</svg>
