<?xml version="1.0" standalone="no"?>
<!DOCTYPE svg PUBLIC "-//W3C//DTD SVG 20010904//EN"
 "http://www.w3.org/TR/2001/REC-SVG-20010904/DTD/svg10.dtd">
<svg version="1.0" xmlns="http://www.w3.org/2000/svg"
 width="2048.000000pt" height="2048.000000pt" viewBox="0 0 2048.000000 2048.000000"
 preserveAspectRatio="xMidYMid meet">
<metadata>
Created by potrace 1.13, written by Peter Selinger 2001-2015
</metadata>
<g transform="translate(0.000000,2048.000000) scale(0.192120,-0.192120)"
fill="#000000" stroke="none">
<path d="M1320 10324 c-273 -42 -463 -131 -640 -301 -184 -175 -292 -378 -335
-627 -13 -78 -15 -441 -15 -3051 l0 -2962 82 -5 c48 -3 113 -16 155 -30 l73
-24 20 60 c80 240 275 430 527 517 94 32 104 33 248 33 175 1 231 -11 370 -79
144 -70 266 -184 354 -329 43 -72 89 -207 97 -285 4 -34 10 -63 13 -65 3 -2
35 18 71 45 144 108 304 162 485 162 175 1 318 -41 459 -133 182 -118 307
-297 358 -509 30 -125 22 -322 -16 -436 -15 -44 -38 -98 -51 -121 l-24 -40 29
-17 c15 -9 30 -17 33 -17 2 0 2 21 0 48 -6 55 33 175 48 151 8 -12 11 -12 19
1 26 41 147 190 158 194 18 8 72 -5 72 -16 0 -5 7 -16 15 -24 13 -14 15 62 15
678 0 674 -1 694 -20 726 -57 94 -186 93 -237 -1 -16 -29 -18 -73 -21 -467
l-3 -435 -33 82 c-63 157 -136 251 -253 331 -29 19 -53 41 -53 47 0 7 -20 25
-45 39 -41 25 -45 30 -45 66 0 21 -4 42 -10 45 -6 4 -10 108 -10 281 0 176 -4
274 -10 274 -5 0 -10 6 -10 14 0 8 -18 32 -41 53 l-41 38 7 80 c8 105 38 215
83 307 l37 75 -59 -41 c-132 -93 -127 -92 -235 -38 -42 22 -131 60 -198 86
-68 26 -125 52 -128 57 -4 5 131 9 338 9 l343 0 30 31 c85 90 237 180 374 220
71 21 97 23 448 27 l372 3 0 183 0 182 -42 24 c-149 82 -310 214 -444 364
l-79 88 -255 -7 c-140 -3 -834 -3 -1542 1 l-1288 7 -37 51 c-48 65 -107 95
-202 103 l-71 6 0 38 c0 28 -4 39 -15 39 -13 0 -15 43 -15 330 0 213 -4 330
-10 330 -5 0 -10 7 -10 15 0 9 -5 21 -10 28 -6 7 -30 44 -55 82 l-44 70 45 8
c24 4 744 6 1599 5 l1555 -3 0 158 0 157 -40 36 c-96 87 -163 325 -177 627
l-6 137 -1489 0 -1488 0 30 53 c17 28 39 68 48 87 9 19 20 37 25 38 11 6 9
720 -3 727 -5 3 -10 14 -10 23 0 10 -18 48 -40 86 -23 38 -38 76 -36 83 4 11
306 13 1714 13 l1708 0 30 31 c16 17 61 57 99 89 269 221 617 361 1030 415
141 18 470 21 601 5 424 -52 808 -217 1104 -475 l75 -65 1732 0 c1044 0 1734
-4 1738 -9 3 -5 -8 -36 -25 -67 -16 -32 -30 -64 -30 -70 0 -7 -6 -14 -12 -16
-16 -6 -19 -784 -3 -796 6 -4 27 -40 48 -80 l37 -72 -1490 0 -1490 0 0 -112
c0 -355 -71 -674 -158 -713 -21 -9 -22 -16 -24 -122 -1 -62 -2 -124 -2 -138
l-1 -26 1535 1 c844 0 1556 -3 1581 -6 l47 -6 -39 -62 c-21 -34 -48 -72 -59
-83 -11 -12 -20 -29 -20 -38 0 -8 -4 -15 -10 -15 -6 0 -10 -26 -10 -59 0 -51
-3 -61 -20 -66 -15 -5 -20 -15 -20 -39 0 -31 -3 -33 -57 -50 -80 -25 -189 -84
-279 -153 -150 -114 -152 -115 -219 -110 -33 2 -103 12 -155 22 -190 35 -383
5 -570 -86 -82 -41 -119 -66 -171 -118 -71 -71 -84 -103 -81 -197 l1 -42 -377
-7 c-207 -4 -616 -5 -908 -2 l-530 5 -72 -84 c-40 -46 -112 -118 -159 -160
-88 -76 -273 -206 -312 -219 -20 -6 -21 -12 -21 -191 l0 -184 325 0 c363 0
418 -6 561 -64 96 -39 176 -90 255 -163 l57 -53 253 0 c139 -1 255 3 259 7 4
4 15 28 24 53 71 182 260 364 459 439 26 10 27 12 27 93 0 275 168 551 423
697 29 16 95 44 147 62 82 28 112 33 225 37 152 5 248 -13 372 -72 l71 -34 25
36 c91 136 244 251 406 307 71 24 237 52 247 42 5 -4 -49 -120 -79 -172 -6
-11 -13 -75 -15 -146 -4 -112 -2 -131 18 -173 12 -27 18 -51 15 -54 -4 -4
-317 -9 -697 -12 l-690 -5 34 -25 33 -25 360 -1 c198 -1 464 -5 592 -10 213
-6 232 -9 236 -26 3 -10 12 -18 21 -18 14 0 16 -41 16 -404 0 -395 0 -404 -20
-409 -16 -4 -20 -14 -20 -46 l0 -41 -97 -1 c-54 0 -120 -5 -148 -11 -32 -7
-331 -13 -830 -17 -774 -6 -781 -7 -860 -29 -44 -13 -82 -25 -84 -28 -2 -2
461 -4 1030 -5 569 0 1055 -4 1081 -7 l48 -7 -18 -30 c-15 -27 -17 -72 -17
-520 0 -457 1 -492 18 -517 l18 -26 -53 -7 c-29 -4 -375 -5 -768 -3 l-715 3
-60 37 c-78 48 -157 68 -270 68 -111 0 -191 -20 -269 -66 l-60 -35 -197 -6
-197 -6 34 -35 c19 -19 34 -42 34 -50 0 -8 -20 -51 -44 -96 -48 -90 -100 -220
-112 -281 l-8 -40 -7 30 c-4 17 -7 274 -8 573 -1 586 -5 635 -53 769 -36 101
-49 113 -74 76 -15 -21 -18 -43 -17 -93 1 -36 5 -179 8 -317 4 -156 10 -253
16 -253 7 0 9 -139 7 -393 -4 -371 -5 -395 -26 -457 -27 -83 -66 -120 -154
-149 -38 -13 -71 -28 -75 -35 -5 -8 -24 -21 -43 -31 -19 -10 -58 -43 -87 -74
l-52 -55 -3 544 c-3 499 -4 548 -21 577 -51 94 -180 95 -237 1 -19 -32 -20
-52 -20 -766 0 -725 0 -733 21 -774 l21 -41 37 69 c147 278 384 443 678 470
l71 7 6 71 c33 344 269 629 601 727 91 27 260 36 362 19 268 -43 494 -210 610
-450 20 -41 37 -76 38 -77 1 -2 24 18 51 43 157 144 342 216 559 216 189 0
345 -52 490 -163 l65 -50 -3 3108 c-3 2858 -4 3113 -19 3173 -58 223 -142 381
-285 530 -160 169 -333 267 -572 328 -61 15 -367 16 -4086 18 -2211 1 -4031 0
-4045 -2z m7935 -274 c274 -19 461 -103 630 -281 41 -43 86 -104 108 -145 32
-63 37 -80 37 -142 l0 -69 -31 -7 c-17 -3 -725 -6 -1573 -6 -1241 0 -1552 3
-1592 13 -34 9 -89 40 -165 94 -163 115 -231 156 -360 217 -129 61 -272 114
-404 150 -376 102 -829 99 -1238 -10 -279 -74 -517 -188 -734 -351 -49 -36
-108 -75 -133 -87 l-45 -21 -1538 -3 c-846 -1 -1552 1 -1570 6 -30 8 -32 11
-35 62 -3 45 3 65 32 124 73 148 205 275 371 357 119 59 224 87 360 98 142 12
7720 12 7880 1z m-6011 -2252 c27 -157 54 -263 92 -359 29 -73 34 -99 34 -166
0 -75 -2 -81 -22 -87 -13 -3 -641 -6 -1395 -6 l-1373 0 0 360 0 360 1323 0
1324 0 17 -102z m6816 -258 l0 -360 -1337 0 c-736 0 -1355 3 -1375 6 l-38 7 0
52 c0 28 9 78 21 111 29 86 56 221 76 393 l18 151 1317 0 1318 0 0 -360z
m-9235 -1684 c82 -23 196 -78 270 -130 65 -47 162 -146 192 -196 20 -35 17
-35 128 14 107 47 241 70 358 62 419 -31 752 -364 774 -775 l6 -107 46 -19
c96 -39 169 -91 261 -184 78 -78 105 -113 142 -186 25 -49 52 -109 59 -133 10
-34 16 -42 31 -39 17 5 18 -12 17 -361 0 -202 -4 -375 -7 -385 -6 -15 -15 -10
-62 33 -30 27 -60 50 -66 50 -7 0 -19 13 -28 30 -13 27 -13 33 0 60 9 17 22
30 29 30 8 0 19 9 25 20 11 20 8 20 -378 20 -214 0 -410 3 -435 6 -45 6 -46 8
-64 58 -46 131 -261 266 -508 317 -82 17 -284 15 -370 -4 -253 -56 -450 -180
-490 -309 -18 -55 -18 -56 -63 -62 -57 -8 -196 -8 -243 0 -36 6 -36 7 -23 33
8 14 14 34 14 44 0 9 5 17 10 17 7 0 10 157 10 450 0 293 -3 450 -10 450 -5 0
-10 10 -10 23 0 12 -7 35 -15 51 -9 16 -13 32 -9 35 3 3 447 8 987 11 l982 5
-58 28 -58 27 -778 0 c-557 0 -780 3 -783 11 -2 6 -43 16 -91 22 l-87 10 0 38
c0 29 -5 39 -20 44 -19 6 -20 15 -20 346 0 191 -4 339 -9 339 -5 0 -12 16 -15
35 -4 19 -11 35 -15 35 -11 0 -84 111 -77 117 3 3 34 14 68 24 79 24 290 21
383 -5z m3038 -198 c20 -9 72 -50 115 -90 42 -41 123 -113 180 -161 56 -49
102 -91 102 -95 0 -14 -16 -30 -37 -36 -11 -4 -110 -11 -220 -16 -320 -14
-430 -48 -676 -206 -56 -35 -119 -70 -141 -77 -26 -7 -108 -12 -223 -12 l-183
0 -29 30 c-17 17 -53 83 -82 150 -72 167 -151 285 -281 420 -53 55 -69 92 -47
106 8 5 324 8 749 7 668 -3 738 -5 773 -20z m4345 -28 c4 -49 -22 -156 -44
-180 -7 -9 -17 -26 -21 -38 -5 -12 -40 -46 -78 -75 -38 -29 -116 -104 -174
-167 -58 -63 -119 -125 -136 -137 -38 -28 -114 -43 -222 -43 -97 0 -123 9
-225 78 -203 137 -337 177 -640 193 -198 10 -242 18 -236 46 2 9 32 41 68 71
36 30 115 100 175 156 119 111 134 121 192 135 21 5 331 8 688 8 l650 -2 3
-45z m-5625 -2047 c60 -5 67 -8 67 -28 0 -18 -14 -27 -82 -53 -106 -41 -178
-44 -198 -8 -16 32 -6 70 22 84 27 12 95 15 191 5z m6817 -43 c0 -5 7 -10 16
-10 15 0 6 -9 -80 -75 -11 -8 -39 -22 -63 -31 -57 -22 -95 -7 -134 54 -43 69
-38 72 122 72 86 0 139 -4 139 -10z M3669 9017 c-84 -106 -176 -291 -223 -449
-30 -101 -56 -235 -56 -292 l0 -41 18 23 c10 13 31 76 47 140 44 183 71 255
156 427 67 137 102 225 88 225 -2 0 -15 -15 -30 -33z M6923 9013 c3 -26 22
-71 49 -115 55 -91 144 -264 165 -321 8 -23 32 -98 52 -168 20 -69 46 -138 58
-155 l22 -29 1 35 c1 102 -63 318 -136 465 -44 87 -150 254 -194 305 l-22 25
5 -42z M4220 8537 c-55 -20 -150 -89 -211 -153 -87 -93 -134 -161 -201 -294
-161 -318 -188 -409 -188 -635 0 -81 4 -135 10 -135 19 0 39 48 69 167 74 292
193 533 370 744 72 87 188 199 206 199 3 0 55 -38 113 -84 246 -192 421 -286
532 -286 86 0 127 63 113 175 l-6 50 91 -87 c210 -200 359 -308 422 -308 43 0
50 10 50 71 0 46 -28 134 -76 238 -19 41 -34 78 -34 83 0 5 20 -8 45 -30 156
-138 556 -240 1007 -259 l148 -6 161 -316 c164 -322 199 -381 225 -381 35 0
-21 246 -95 411 -95 214 -172 325 -267 388 -55 36 -99 45 -304 66 -226 23
-418 63 -660 140 -177 55 -230 49 -288 -35 -15 -22 -33 -39 -39 -40 -7 0 -13
-7 -13 -16 0 -8 -5 -12 -10 -9 -6 4 -22 8 -35 11 -14 2 -61 29 -105 60 -147
101 -173 104 -285 34 -51 -32 -90 -50 -110 -50 -47 0 -163 61 -317 166 -186
128 -240 149 -318 121z M4416 7295 c-81 -29 -122 -96 -114 -186 9 -88 79 -149
173 -149 56 0 92 17 132 64 79 89 33 239 -84 274 -50 15 -58 15 -107 -3z
M6167 7295 c-77 -27 -117 -84 -117 -168 0 -62 25 -108 79 -144 40 -27 126 -31
170 -8 40 20 79 69 91 115 23 86 -36 184 -127 209 -47 13 -49 13 -96 -4z
M7091 6823 c-26 -289 -107 -539 -254 -785 l-46 -77 61 37 c116 72 191 179 254
366 30 88 74 294 74 347 0 56 -27 156 -54 202 l-23 38 -12 -128z M3570 6910
c-7 -16 -16 -30 -21 -30 -5 0 -12 -18 -15 -40 -4 -22 -10 -40 -15 -40 -16 0
-9 -174 11 -265 62 -282 151 -437 307 -535 l65 -40 -31 52 c-160 269 -253 552
-268 818 -3 61 -9 110 -13 110 -4 0 -13 -13 -20 -30z M5000 6577 c0 -47 33
-138 69 -191 34 -49 106 -99 166 -115 57 -16 173 -13 233 4 120 36 199 139
228 298 l6 37 -351 0 -351 0 0 -33z M4650 5888 c1 -77 99 -188 213 -242 128
-60 269 -86 482 -86 145 0 290 17 385 46 166 50 285 154 315 277 l7 27 -701 0
-701 0 0 -22z M4702 5301 c17 -20 47 -44 67 -55 20 -10 38 -22 41 -25 11 -13
51 -31 70 -31 11 0 20 -4 20 -8 0 -5 6 -9 13 -10 69 -6 74 -29 5 -26 -123 7
-189 4 -215 -10 l-27 -14 34 -14 c58 -24 278 -76 391 -93 137 -19 408 -20 537
0 53 8 140 25 192 39 98 25 207 64 180 66 -8 0 -28 7 -44 15 -18 9 -42 13 -60
10 -67 -11 -246 -15 -246 -5 0 5 9 10 20 10 12 0 33 6 48 14 15 7 43 17 62 21
57 12 153 64 187 103 18 20 31 37 29 39 -1 2 -36 -8 -77 -22 -380 -130 -773
-132 -1146 -6 l-112 38 31 -36z m945 -173 c-3 -8 -6 -5 -6 6 -1 11 2 17 5 13
3 -3 4 -12 1 -19z M7499 4741 c-95 -16 -96 -16 -86 -39 12 -26 6 -27 132 22
100 39 94 41 -46 17z M333 2280 l2 -1025 28 -100 c106 -386 406 -686 795 -793
l97 -27 1844 -3 1845 -2 -55 38 c-122 88 -81 82 -589 82 -393 0 -450 2 -450
15 0 11 -12 15 -44 15 -43 0 -43 0 -49 41 -3 23 -10 45 -15 48 -19 12 -24 91
-32 446 -4 198 -13 387 -18 420 -6 33 -12 87 -13 120 -2 33 -5 -222 -8 -567
-4 -344 -9 -629 -13 -633 -3 -3 -14 -2 -25 4 -10 6 -40 18 -68 28 -46 15 -137
17 -1115 20 -586 1 -1099 5 -1140 7 -135 9 -325 85 -475 191 -74 53 -198 181
-255 265 -92 135 -179 386 -180 518 0 28 -4 52 -10 52 -7 0 -10 192 -10 555 0
363 3 555 10 555 6 0 10 111 10 314 0 199 -4 317 -10 321 -5 3 -10 17 -10 31
0 13 -4 24 -8 24 -5 0 -16 15 -25 33 -15 30 -16 -39 -14 -993z M10292 3088
l-32 -63 0 -237 c0 -152 4 -238 10 -238 7 0 10 -192 10 -555 0 -363 -3 -555
-10 -555 -5 0 -10 -19 -10 -42 0 -103 -50 -296 -107 -409 -142 -287 -371 -469
-703 -560 -34 -9 -321 -14 -1135 -20 -629 -4 -1116 -11 -1152 -17 -35 -5 -81
-19 -103 -31 -22 -11 -45 -21 -50 -21 -6 0 -10 215 -10 588 0 323 -3 605 -7
626 -6 38 -7 36 -25 -50 -10 -49 -25 -115 -33 -147 -12 -46 -15 -129 -15 -393
0 -193 -4 -334 -9 -334 -5 0 -12 -22 -16 -50 -5 -39 -11 -50 -25 -50 -12 0
-20 -8 -22 -22 l-3 -23 -375 -6 c-206 -4 -402 -11 -435 -18 -33 -6 -79 -11
-101 -11 l-41 0 -7 -49 c-6 -47 -7 -49 -49 -58 -29 -8 510 -10 1763 -9 l1805
1 97 27 c390 107 689 406 795 793 l28 100 3 790 c1 435 1 861 0 948 l-3 157
-33 -62z M3660 2174 l0 -106 61 -66 c80 -88 142 -195 180 -312 26 -79 31 -113
33 -198 1 -98 2 -103 21 -97 11 3 45 13 75 21 30 9 98 18 151 21 408 23 773
-262 855 -667 22 -109 15 -276 -15 -370 -11 -36 -21 -66 -21 -68 0 -1 149 -1
331 0 l330 3 22 55 c108 264 428 489 698 490 l55 0 11 93 c15 120 52 234 108
330 52 89 152 199 225 248 27 19 48 39 45 44 -2 6 -19 46 -39 90 -51 116 -70
225 -63 355 5 93 19 167 42 223 7 16 -71 17 -1549 17 l-1556 0 0 -106z m1618
20 c45 -4 64 -1 92 14 l35 19 40 -27 c92 -65 208 -205 271 -327 137 -268 192
-618 167 -1051 l-6 -112 -40 0 c-69 0 -99 -30 -164 -165 l-58 -120 -6 440 c-6
468 -10 513 -64 719 -59 227 -151 393 -299 542 -95 94 -99 99 -63 87 21 -7 64
-16 95 -19z m14 -200 l67 -7 -21 -29 c-36 -52 -36 -147 0 -265 64 -205 62
-184 62 -651 0 -237 -3 -437 -6 -446 -4 -11 -19 -16 -50 -16 -38 0 -44 3 -50
25 -3 13 -12 29 -20 36 -8 6 -14 24 -14 40 0 57 -52 243 -94 339 -62 142 -125
230 -251 355 -193 192 -373 274 -640 291 -55 3 -109 12 -121 19 -11 8 -49 51
-83 98 -37 50 -93 109 -137 145 -71 58 -73 61 -47 65 46 7 1333 7 1405 1z
m1271 0 l45 -6 -39 -81 c-33 -69 -39 -91 -39 -146 -1 -119 -27 -177 -133 -296
-10 -11 -50 -83 -89 -160 -72 -142 -103 -186 -149 -210 -27 -14 -49 -5 -49 20
0 6 -9 18 -20 28 -16 13 -20 29 -20 74 0 32 -9 114 -20 183 -49 304 -108 423
-268 548 l-53 41 33 4 c55 7 752 7 801 1z M5390 2021 l-25 -20 100 0 c95 0 99
1 72 15 -15 8 -49 18 -75 21 -38 4 -52 1 -72 -16z M6937 2273 c-15 -4 -17 -10
-10 -31 4 -15 8 -75 8 -134 0 -93 2 -108 18 -112 14 -3 17 -17 17 -93 0 -48 3
-126 7 -173 l8 -85 6 55 c4 30 7 173 8 318 l1 262 -22 -1 c-13 -1 -31 -3 -41
-6z"/>
</g>
</svg>
