<?xml version="1.0" standalone="no"?>
<!DOCTYPE svg PUBLIC "-//W3C//DTD SVG 20010904//EN"
 "http://www.w3.org/TR/2001/REC-SVG-20010904/DTD/svg10.dtd">
<svg version="1.0" xmlns="http://www.w3.org/2000/svg"
 width="2048.000000pt" height="2048.000000pt" viewBox="0 0 2048.000000 2048.000000"
 preserveAspectRatio="xMidYMid meet">
<metadata>
Created by potrace 1.13, written by Peter Selinger 2001-2015
</metadata>
<g transform="translate(0.000000,2048.000000) scale(0.192120,-0.192120)"
fill="#000000" stroke="none">
<path d="M5025 10323 c-650 -34 -1261 -186 -1768 -439 -361 -181 -624 -368
-898 -643 -293 -294 -507 -604 -664 -965 -200 -460 -273 -882 -247 -1428 14
-285 28 -414 73 -640 l30 -157 -63 -63 c-155 -154 -266 -405 -309 -698 -20
-134 -15 -393 10 -534 70 -397 272 -702 517 -785 52 -17 59 -23 62 -48 6 -61
44 -274 68 -378 13 -60 33 -168 44 -240 56 -362 189 -699 398 -1008 149 -220
182 -276 237 -398 183 -411 453 -763 758 -991 238 -177 538 -304 797 -338 77
-10 103 -18 138 -42 114 -79 328 -137 647 -174 211 -25 738 -25 950 -1 182 22
363 57 470 93 83 27 174 73 195 99 7 8 25 15 39 15 15 0 70 7 122 16 350 60
675 232 958 508 228 223 404 479 551 804 61 135 90 184 248 418 214 317 326
616 405 1079 9 50 29 155 46 235 17 80 36 187 43 239 l14 93 54 17 c340 106
588 663 540 1216 -19 226 -68 406 -156 576 -47 90 -150 233 -175 241 -9 3 -8
33 4 134 58 452 72 1014 32 1284 -147 990 -879 1934 -1905 2454 -509 259
-1043 403 -1652 446 -134 9 -464 11 -613 3z m535 -313 c210 -11 316 -23 515
-56 962 -159 1812 -659 2351 -1386 211 -284 361 -595 446 -923 l33 -130 -1
-810 c-1 -794 -1 -811 -22 -860 -11 -27 -23 -62 -26 -77 -4 -17 -13 -28 -23
-28 -42 0 -95 89 -344 577 -225 441 -259 503 -310 558 -68 72 -121 111 -180
131 -24 9 -137 21 -273 29 -498 32 -855 82 -1190 166 -229 58 -368 107 -579
208 -177 83 -225 98 -277 82 -51 -15 -115 -71 -142 -124 -21 -42 -21 -38 -2
-314 4 -60 2 -83 -6 -83 -25 0 -149 98 -370 294 -242 214 -327 267 -399 251
-46 -10 -135 -93 -175 -164 -20 -35 -36 -70 -36 -77 0 -7 -11 -25 -25 -40 -14
-15 -25 -31 -25 -37 0 -21 -126 0 -211 35 -159 65 -440 238 -653 402 -223 171
-324 228 -406 228 -94 -1 -227 -87 -394 -257 -261 -265 -440 -514 -622 -870
-107 -208 -179 -381 -259 -620 -59 -178 -75 -211 -98 -202 -26 10 -57 90 -57
145 0 28 -14 134 -32 234 l-32 183 -4 480 c-4 507 -1 551 43 745 85 367 246
706 489 1030 87 116 299 336 426 442 650 546 1528 831 2600 846 52 1 174 -3
270 -8z m-2241 -2394 c122 -101 355 -274 496 -368 362 -240 625 -340 778 -297
53 14 112 71 134 127 20 51 24 179 10 266 l-9 50 156 -151 c344 -334 647 -570
800 -623 64 -23 85 -24 120 -9 87 40 51 267 -96 599 -33 74 -64 139 -69 145
-5 5 -9 15 -9 23 0 9 19 -3 45 -27 54 -49 185 -136 274 -181 395 -198 1123
-339 1887 -366 l191 -7 52 -106 c245 -495 588 -1155 625 -1202 28 -36 61 -65
91 -79 45 -22 47 -22 90 -5 83 31 151 153 211 378 19 72 39 141 43 151 10 26
65 -264 91 -484 14 -126 20 -236 20 -391 0 -202 -2 -223 -25 -305 -76 -265
-147 -391 -296 -525 -41 -37 -90 -93 -109 -124 -38 -65 -42 -104 -27 -280 l7
-90 -21 54 c-67 169 -230 196 -478 80 -159 -74 -260 -152 -476 -366 -213 -211
-306 -291 -450 -386 -268 -177 -504 -232 -735 -172 -36 9 -114 41 -174 72
-260 130 -452 207 -651 258 -167 43 -317 60 -414 47 -47 -7 -95 -7 -142 0
-131 18 -352 -19 -574 -95 -155 -54 -246 -92 -430 -182 -213 -104 -265 -119
-415 -119 -132 0 -207 16 -343 74 -198 85 -389 230 -666 507 -210 209 -304
282 -463 358 -122 58 -203 79 -291 72 -104 -7 -162 -54 -204 -166 -14 -35 -14
-35 -8 29 19 237 20 223 -8 283 -25 55 -43 75 -214 237 -78 74 -133 170 -179
310 -27 84 -28 89 -31 391 -3 174 0 327 5 355 10 49 42 215 88 459 36 186 32
183 73 64 105 -295 252 -468 357 -417 43 20 69 79 104 233 155 680 469 1284
891 1716 95 97 267 248 283 249 4 0 42 -29 85 -64z m-1074 -3963 c138 -42 257
-129 510 -374 304 -294 465 -413 694 -513 149 -65 228 -81 404 -81 183 0 177
5 122 -105 -47 -93 -48 -164 -6 -248 72 -139 159 -225 296 -293 535 -263 1616
-261 2145 6 105 53 214 164 265 270 51 105 51 166 1 268 -55 111 -57 108 82
101 193 -11 343 24 542 127 200 104 344 216 625 490 99 96 214 199 255 228
122 86 244 141 314 141 l28 0 -4 -162 c-4 -116 -12 -193 -28 -268 -73 -345
-159 -538 -403 -910 -49 -74 -133 -224 -188 -333 -164 -325 -272 -490 -428
-651 -251 -259 -508 -400 -875 -482 -65 -14 -162 -44 -215 -66 -309 -130 -561
-171 -1051 -171 -462 0 -723 39 -995 148 -103 42 -207 75 -293 95 -231 52
-405 124 -573 236 -298 200 -497 445 -702 864 -44 91 -121 228 -170 305 -156
244 -186 292 -251 417 -122 232 -212 565 -223 825 -3 72 -3 138 0 147 7 18 37
15 122 -11z m3535 -620 c134 -36 230 -76 230 -96 0 -22 -28 -24 -230 -18 -240
8 -665 8 -905 0 -202 -6 -225 -5 -225 17 0 28 130 76 306 114 79 17 124 19
399 17 310 -3 310 -3 425 -34z m-1153 -115 c-3 -8 -6 -5 -6 6 -1 11 2 17 5 13
3 -3 4 -12 1 -19z m1248 -238 c271 -23 504 -73 595 -129 54 -33 85 -81 76
-116 -35 -139 -422 -283 -889 -331 -196 -20 -576 -15 -757 11 -417 58 -754
195 -786 319 -8 34 20 82 64 109 118 75 389 127 764 147 193 11 761 4 933 -10z
M3890 5881 c-58 -12 -107 -40 -150 -88 -76 -82 -75 -76 -75 -463 0 -388 -1
-381 75 -464 57 -61 118 -89 200 -89 108 0 193 50 246 145 l29 53 0 355 0 355
-29 53 c-60 107 -182 166 -296 143z m68 -553 c-3 -275 -4 -283 -23 -283 -19 0
-20 8 -23 270 -1 148 0 275 3 282 2 7 14 13 25 13 20 0 20 -4 18 -282z M6663
5880 c-81 -16 -147 -66 -189 -142 l-29 -53 0 -355 0 -355 29 -53 c53 -95 138
-145 246 -145 82 0 143 28 200 89 76 83 75 76 75 464 0 388 1 381 -75 464 -67
72 -163 104 -257 86z m75 -552 c-3 -260 -4 -283 -20 -286 -17 -3 -18 16 -18
282 0 280 0 286 20 286 20 0 20 -5 18 -282z M4973 4206 c-153 -49 -230 -198
-182 -355 17 -56 86 -132 146 -162 48 -24 50 -24 393 -24 343 0 345 0 393 24
60 30 129 106 146 162 42 138 -14 276 -137 336 l-57 28 -330 2 c-252 2 -340
-1 -372 -11z m658 -208 c43 -12 54 -33 44 -78 -4 -20 -18 -36 -38 -48 -28 -15
-65 -17 -312 -17 -265 0 -282 1 -315 21 -32 18 -35 24 -35 64 0 43 1 45 40 56
54 17 563 18 616 2z"/>
</g>
</svg>
