<?xml version="1.0" standalone="no"?>
<!DOCTYPE svg PUBLIC "-//W3C//DTD SVG 20010904//EN"
 "http://www.w3.org/TR/2001/REC-SVG-20010904/DTD/svg10.dtd">
<svg version="1.0" xmlns="http://www.w3.org/2000/svg"
 width="2048.000000pt" height="2048.000000pt" viewBox="0 0 2048.000000 2048.000000"
 preserveAspectRatio="xMidYMid meet">
<metadata>
Created by potrace 1.13, written by Peter Selinger 2001-2015
</metadata>
<g transform="translate(0.000000,2048.000000) scale(0.192120,-0.192120)"
fill="#000000" stroke="none">
<path d="M5175 9629 c-592 -32 -1230 -274 -1740 -658 -186 -140 -428 -376
-575 -561 -255 -320 -469 -739 -586 -1148 -72 -249 -113 -477 -149 -815 l-6
-57 -82 -37 c-396 -177 -854 -467 -1099 -695 l-58 -53 16 -85 c53 -296 337
-875 769 -1565 147 -236 377 -579 503 -753 43 -59 97 -146 120 -194 35 -73 54
-98 117 -155 42 -37 97 -95 123 -128 26 -33 79 -96 118 -140 l71 -80 -81 -23
c-530 -150 -970 -589 -1126 -1126 -57 -194 -62 -241 -67 -649 l-5 -377 3891 0
3891 0 0 309 c0 170 -5 355 -11 412 -58 573 -402 1071 -914 1323 -117 58 -301
126 -341 126 -9 0 15 33 58 83 40 45 94 109 120 142 26 33 81 90 121 127 62
56 82 82 118 155 24 48 77 135 119 193 265 365 607 902 838 1317 247 443 398
790 436 1003 l16 85 -53 49 c-243 227 -658 493 -1047 672 -74 35 -138 69 -142
76 -3 7 -11 66 -18 131 -14 146 -76 453 -130 650 -234 850 -743 1530 -1481
1978 -433 263 -983 443 -1414 464 -60 3 -128 7 -150 8 -22 2 -98 0 -170 -4z
m515 -328 c317 -51 609 -146 903 -293 753 -376 1273 -987 1512 -1772 29 -96
35 -133 35 -205 l0 -88 -77 -28 c-43 -15 -152 -65 -243 -111 -91 -46 -177 -86
-192 -89 -37 -9 -77 12 -192 105 -175 140 -349 234 -574 309 -213 72 -405 103
-749 121 -282 15 -479 53 -758 144 -224 74 -477 182 -760 323 -212 106 -278
117 -382 65 -90 -46 -154 -101 -465 -403 -246 -238 -580 -533 -687 -606 -56
-38 -89 -31 -271 56 -91 43 -195 89 -233 101 l-67 22 0 77 c0 177 151 581 326
872 166 275 417 563 664 759 452 358 1029 598 1590 659 136 15 476 5 620 -18z
m-1077 -1867 c366 -185 781 -337 1087 -398 151 -30 209 -37 426 -46 122 -5
269 -16 326 -25 305 -45 565 -141 788 -289 74 -49 242 -208 291 -275 l26 -35
89 56 c209 130 393 225 524 268 102 35 158 38 191 12 21 -18 22 -26 20 -113
-5 -249 -79 -614 -178 -878 -127 -341 -311 -537 -514 -549 l-66 -4 -18 -77
c-47 -202 -155 -491 -265 -711 -227 -453 -563 -847 -918 -1075 l-62 -40 0
-352 0 -353 76 0 77 0 -7 -52 c-33 -255 -311 -751 -754 -1348 -172 -231 -413
-540 -422 -540 -14 0 -380 471 -550 709 -340 476 -551 858 -610 1105 -32 130
-33 126 55 126 l75 0 0 343 -1 342 -56 34 c-181 110 -455 360 -612 559 -274
348 -492 792 -605 1232 l-24 95 -54 8 c-158 22 -311 163 -425 392 -126 250
-237 725 -244 1034 -2 87 -1 95 20 113 33 26 89 23 193 -12 107 -36 327 -146
458 -229 l95 -60 30 37 c70 87 140 153 303 284 214 173 347 296 671 622 l255
255 80 -45 c45 -25 148 -79 229 -120z m-2506 -1511 c-8 -394 7 -1650 23 -1956
10 -196 35 -501 46 -562 8 -48 -7 -17 -120 242 -136 314 -155 350 -379 735
-201 345 -351 635 -442 853 -46 112 -65 181 -65 236 0 43 4 51 35 76 19 15 35
35 35 45 0 29 230 187 477 329 86 49 160 89 165 89 4 0 8 4 8 9 0 4 32 41 70
81 39 41 87 95 107 122 21 26 39 48 42 48 2 0 1 -156 -2 -347z m6488 297 c71
-86 161 -175 198 -195 20 -11 37 -24 37 -30 0 -5 49 -37 108 -69 127 -70 332
-203 454 -294 67 -50 88 -71 88 -89 0 -12 4 -23 9 -23 5 0 12 -12 15 -27 24
-111 -215 -622 -567 -1213 -44 -74 -92 -153 -107 -175 -51 -76 -130 -235 -226
-457 -53 -123 -103 -234 -110 -248 l-15 -25 5 30 c12 65 36 371 46 570 15 289
29 1502 23 1940 -3 198 -3 358 0 355 3 -3 22 -25 42 -50z m-6218 -877 c113
-176 216 -286 346 -370 37 -24 75 -55 83 -69 9 -13 45 -97 79 -187 94 -244
148 -366 232 -521 175 -325 344 -559 563 -781 156 -158 157 -155 -170 -273
-396 -142 -557 -185 -700 -186 -80 -1 -101 2 -137 22 -90 48 -147 116 -242
292 -62 112 -84 178 -113 322 -22 111 -22 130 -26 976 -3 778 -1 862 13 862 9
0 40 -39 72 -87z m5971 -943 l-4 -765 -32 -124 c-36 -138 -79 -233 -166 -363
-95 -144 -176 -198 -295 -198 -69 0 -259 43 -406 90 -193 63 -477 166 -540
195 -81 39 -77 54 41 178 124 131 261 302 360 452 183 275 284 481 455 930 33
86 55 112 116 144 32 16 86 50 120 75 98 74 148 134 320 381 l28 40 3 -135 c1
-74 1 -479 0 -900z m-4193 -1336 c-40 -105 -47 -134 -52 -201 -3 -35 -9 -63
-14 -63 -5 0 -9 -20 -9 -45 0 -34 -5 -48 -20 -57 -11 -7 -20 -24 -20 -37 0
-13 -11 -39 -25 -57 -74 -97 -40 -281 110 -589 202 -415 435 -723 855 -1128
157 -151 156 -151 -75 -4 -583 373 -1357 913 -1748 1218 -170 133 -407 351
-407 373 0 7 13 22 30 34 64 48 47 99 -62 184 l-68 53 38 2 c266 18 435 63
987 264 110 39 268 94 350 120 149 47 150 47 153 25 2 -12 -9 -54 -23 -92z
m2600 26 c127 -43 327 -112 445 -155 349 -125 514 -167 713 -182 l98 -8 -62
-45 c-115 -83 -136 -137 -74 -187 19 -15 35 -33 35 -39 0 -18 -216 -222 -345
-325 -375 -299 -1187 -867 -1825 -1275 -219 -141 -219 -141 32 112 130 131
267 275 306 319 309 357 593 885 609 1136 6 81 -10 129 -63 192 -16 19 -24 41
-24 67 0 21 -6 43 -15 50 -11 9 -15 32 -15 81 0 38 -6 83 -14 101 -43 100 -77
187 -86 216 l-9 33 32 -6 c18 -4 136 -42 262 -85z m-3994 -905 c16 -9 82 -60
147 -113 353 -294 688 -537 1472 -1066 250 -169 463 -317 473 -328 26 -31 21
-46 -20 -57 -26 -7 -541 -11 -1575 -11 l-1538 0 0 274 c0 213 3 290 16 343 83
362 342 681 700 862 106 54 244 110 272 111 13 0 36 -7 53 -15z m5284 -15
c305 -121 539 -301 689 -529 79 -119 117 -200 157 -334 l29 -100 0 -298 0
-299 -1527 0 c-1486 0 -1591 2 -1608 30 -13 21 72 83 495 368 700 470 1124
776 1447 1045 88 74 167 137 175 140 30 12 71 5 143 -23z M4222 6148 c-56 -27
-109 -90 -127 -152 -21 -68 -21 -324 0 -392 39 -131 180 -203 316 -162 55 16
118 73 145 132 22 47 24 64 24 220 0 101 -5 185 -12 208 -15 51 -82 126 -133
149 -56 26 -157 24 -213 -3z M6209 6142 c-66 -34 -114 -94 -128 -162 -12 -55
-15 -281 -5 -343 4 -20 21 -61 38 -89 58 -97 170 -139 284 -107 61 17 142 96
160 155 16 54 16 353 0 406 -15 51 -82 126 -133 149 -63 29 -151 25 -216 -9z
M5009 4927 c-36 -24 -58 -71 -58 -122 0 -51 22 -98 58 -122 33 -23 39 -23 318
-23 246 0 289 2 313 16 42 25 60 64 60 129 0 65 -18 104 -60 129 -24 14 -67
16 -313 16 -279 0 -285 0 -318 -23z M6208 4401 c-15 -5 -42 -20 -60 -34 -108
-83 -357 -133 -708 -144 -214 -6 -405 5 -572 33 -106 18 -261 66 -298 93 -81
58 -156 67 -225 26 -49 -28 -69 -55 -85 -113 -15 -59 0 -108 63 -194 50 -69
52 -73 53 -144 2 -72 3 -75 153 -381 90 -184 164 -320 181 -338 27 -27 37 -30
90 -30 53 0 63 3 90 30 18 19 57 91 99 185 61 139 71 155 92 154 13 -1 78 -7
145 -13 114 -12 266 -6 369 14 l30 6 64 -148 c35 -81 70 -158 78 -171 37 -60
128 -79 190 -41 30 19 54 61 184 326 155 317 171 358 168 421 -2 31 6 50 42
100 94 133 107 186 70 269 -33 73 -137 118 -213 94z m-1407 -352 c73 -17 153
-41 175 -54 40 -23 74 -74 74 -108 0 -13 -228 -538 -247 -571 -5 -7 -54 89
-232 461 -70 145 -73 168 -28 234 22 34 78 69 108 69 8 0 76 -14 150 -31z
m1298 4 c41 -31 63 -68 68 -114 4 -40 -7 -68 -140 -339 l-145 -295 -22 50
c-12 28 -69 157 -127 287 -99 226 -104 240 -93 272 13 40 68 93 108 103 263
67 303 71 351 36z m-686 -85 c18 -75 19 -147 1 -187 l-18 -41 -63 0 c-54 0
-63 3 -63 18 0 10 -5 23 -11 29 -13 13 -9 170 5 191 4 7 33 12 76 12 62 0 68
-2 73 -22z M4510 3101 c5 -10 16 -23 24 -31 9 -7 16 -21 16 -31 0 -11 4 -19
10 -19 6 0 5 -10 -2 -25 -6 -14 -16 -25 -23 -25 -6 0 -20 -6 -30 -14 -17 -12
-13 -17 56 -54 222 -123 609 -191 924 -163 268 24 505 93 662 191 l22 14 -26
18 c-15 9 -30 15 -35 12 -4 -3 -8 -1 -8 4 0 5 -18 5 -45 -1 -25 -6 -45 -14
-45 -19 0 -5 -4 -7 -9 -4 -5 3 -24 0 -41 -8 -18 -7 -42 -11 -53 -8 -16 4 -19
11 -14 49 4 37 2 43 -12 39 -167 -50 -338 -76 -526 -81 -276 -7 -519 39 -792
148 -54 22 -62 23 -53 8z m187 -133 c-3 -8 -6 -5 -6 6 -1 11 2 17 5 13 3 -3 4
-12 1 -19z M6080 3100 l-35 -19 37 2 c26 1 38 7 42 20 5 21 0 21 -44 -3z"/>
</g>
</svg>
