<?xml version="1.0" standalone="no"?>
<!DOCTYPE svg PUBLIC "-//W3C//DTD SVG 20010904//EN"
 "http://www.w3.org/TR/2001/REC-SVG-20010904/DTD/svg10.dtd">
<svg version="1.0" xmlns="http://www.w3.org/2000/svg"
 width="2048.000000pt" height="2048.000000pt" viewBox="0 0 2048.000000 2048.000000"
 preserveAspectRatio="xMidYMid meet">
<metadata>
Created by potrace 1.13, written by Peter Selinger 2001-2015
</metadata>
<g transform="translate(0.000000,2048.000000) scale(0.192120,-0.192120)"
fill="#000000" stroke="none">
<path d="M4952 8929 c-1412 -96 -2498 -743 -3031 -1808 -144 -286 -249 -652
-282 -976 -17 -173 -6 -641 20 -865 66 -554 208 -1005 371 -1173 101 -104 136
-78 186 137 125 546 335 1000 654 1416 80 104 348 376 421 427 l45 32 71 -58
c378 -309 732 -534 966 -613 110 -37 230 -44 283 -16 99 53 134 164 111 348
l-9 65 139 -135 c393 -385 711 -619 844 -620 138 -1 107 245 -86 656 l-44 95
37 -31 c85 -71 183 -134 287 -184 405 -198 1086 -323 1890 -349 l70 -2 59
-115 c32 -63 168 -332 303 -598 290 -570 309 -596 409 -570 132 34 259 423
319 973 40 371 58 924 36 1135 -56 546 -323 1121 -734 1581 -658 737 -1579
1172 -2642 1249 -161 11 -513 11 -693 -1z m828 -314 c787 -84 1495 -377 2030
-840 422 -366 716 -793 855 -1245 69 -222 67 -194 63 -930 l-4 -665 -27 -155
c-33 -185 -50 -253 -71 -285 -35 -53 -55 -22 -307 470 l-173 340 -91 91 c-122
123 -160 141 -330 154 -555 42 -713 60 -964 106 -301 55 -540 127 -766 231
-160 74 -260 112 -293 113 -63 0 -171 -84 -223 -175 -25 -43 -29 -61 -29 -128
0 -62 -4 -82 -18 -98 -19 -19 -19 -19 -48 3 -16 12 -94 79 -174 148 -189 164
-224 192 -290 228 -72 39 -110 47 -152 29 -48 -20 -152 -120 -201 -191 -22
-34 -52 -72 -66 -85 -23 -22 -28 -23 -77 -12 -128 29 -419 203 -754 451 -244
181 -323 206 -451 143 -116 -58 -236 -159 -383 -322 -304 -340 -504 -664 -685
-1111 -51 -125 -75 -170 -91 -170 -34 0 -74 121 -117 351 -26 142 -26 152 -30
674 -5 573 -4 588 53 802 113 429 330 801 658 1129 245 244 450 392 761 550
480 243 997 375 1624 414 186 12 595 4 771 -15z M4125 4758 c-42 -15 -102 -61
-131 -100 -47 -62 -56 -120 -52 -326 3 -174 5 -190 27 -232 32 -62 67 -97 126
-128 41 -22 63 -26 125 -27 115 0 197 51 247 153 28 57 28 58 28 262 0 230 -3
245 -72 320 -54 61 -121 90 -203 89 -36 0 -78 -5 -95 -11z M6325 4747 c-56
-27 -118 -90 -143 -146 -14 -30 -17 -72 -17 -241 0 -204 0 -205 28 -262 50
-102 132 -153 247 -153 114 0 195 49 248 150 27 50 27 52 27 260 0 193 -2 214
-21 256 -46 100 -127 151 -244 157 -63 2 -83 -1 -125 -21z M2058 3913 c15
-166 82 -490 143 -699 133 -455 351 -885 616 -1214 434 -539 1041 -898 1758
-1040 253 -50 361 -61 670 -67 547 -10 962 46 1387 188 438 146 785 363 1098
686 268 276 471 603 623 1003 101 264 202 670 236 945 6 50 13 105 16 123 l4
34 -27 -17 c-78 -50 -104 -95 -127 -221 -21 -113 -45 -208 -89 -359 -19 -66
-42 -156 -51 -200 -40 -191 -189 -548 -305 -731 -79 -126 -299 -393 -417 -507
-522 -507 -1202 -756 -2133 -784 -620 -18 -1163 91 -1640 328 -687 343 -1167
913 -1441 1717 -51 150 -102 336 -139 512 -36 171 -54 210 -129 284 l-57 56 4
-37z M4956 3924 c-61 -22 -122 -78 -152 -141 -68 -137 -9 -303 131 -369 50
-24 53 -24 395 -24 342 0 345 0 395 24 220 104 205 433 -23 510 -64 22 -686
22 -746 0z M4102 3077 c-51 -20 -95 -60 -127 -118 -26 -46 -30 -64 -30 -129 0
-65 4 -83 30 -129 35 -64 76 -96 209 -163 250 -126 554 -214 861 -249 129 -14
430 -14 565 0 314 35 602 117 860 246 139 70 179 101 215 166 26 46 30 64 30
129 0 65 -4 82 -31 130 -82 145 -190 163 -429 70 -420 -163 -667 -211 -1010
-197 -253 11 -443 48 -667 133 -277 104 -314 116 -378 120 -38 2 -79 -1 -98
-9z m256 -304 c9 -3 22 -7 27 -8 11 -3 117 -43 155 -58 14 -6 28 -11 33 -12 4
-2 9 -4 12 -5 3 -1 10 -4 15 -5 6 -1 12 -4 15 -5 3 -1 8 -3 13 -5 4 -1 14 -4
22 -7 42 -16 56 -21 68 -25 6 -1 18 -5 25 -7 6 -2 27 -7 45 -11 18 -4 35 -11
37 -16 8 -12 -13 -21 -27 -12 -7 4 -21 6 -30 5 -10 -2 -18 1 -18 6 0 6 -9 8
-20 5 -12 -3 -20 0 -20 6 0 7 -5 9 -10 6 -6 -4 -36 1 -68 10 -31 10 -62 18
-69 19 -7 1 -15 5 -19 8 -3 4 -12 4 -20 1 -8 -3 -14 0 -14 7 0 7 -7 10 -15 7
-8 -4 -17 -2 -20 4 -4 5 -10 7 -15 4 -5 -3 -15 2 -24 11 -9 8 -20 13 -25 9 -5
-3 -13 -1 -16 5 -4 6 -24 18 -46 27 -26 10 -39 21 -39 34 0 18 5 18 48 2z
m1992 -9 c0 -8 -6 -14 -14 -14 -7 0 -29 -11 -49 -24 -19 -13 -38 -22 -41 -19
-3 3 -12 -2 -21 -11 -9 -9 -20 -14 -25 -11 -5 3 -11 1 -15 -4 -3 -6 -12 -8
-20 -4 -8 3 -15 0 -15 -6 0 -6 -7 -8 -15 -5 -8 4 -15 1 -15 -6 0 -6 -4 -9 -8
-6 -5 3 -37 -4 -72 -15 -35 -11 -70 -17 -77 -15 -7 3 -13 0 -13 -5 0 -6 -9 -9
-20 -6 -11 3 -20 1 -20 -5 0 -6 -9 -8 -20 -5 -10 3 -21 0 -23 -6 -2 -6 -11 -8
-22 -3 -22 8 -10 24 26 32 13 3 29 6 34 7 6 2 16 6 23 10 6 5 16 6 21 2 5 -3
12 -1 16 5 3 5 12 10 20 10 8 0 26 5 42 12 15 6 31 12 36 13 4 2 9 4 12 5 3 1
8 3 13 5 4 1 18 6 32 12 55 23 146 55 164 59 10 2 20 5 22 7 10 10 44 4 44 -9z
m-1475 -175 c-11 -17 -35 -9 -35 11 0 18 3 19 20 10 11 -6 18 -15 15 -21z
m941 -6 c-3 -3 -13 -2 -23 1 -17 7 -17 8 2 22 18 13 20 13 23 -1 2 -9 1 -19
-2 -22z m-894 2 c0 -5 -5 -11 -11 -13 -6 -2 -11 4 -11 13 0 9 5 15 11 13 6 -2
11 -8 11 -13z m838 0 c0 -8 -4 -15 -9 -15 -13 0 -22 16 -14 24 11 11 23 6 23
-9z m-778 -10 c0 -5 -5 -11 -11 -13 -6 -2 -11 4 -11 13 0 9 5 15 11 13 6 -2
11 -8 11 -13z m718 -1 c0 -17 -22 -14 -28 4 -2 7 3 12 12 12 9 0 16 -7 16 -16z
m-636 -3 c3 -5 -1 -11 -9 -15 -9 -3 -15 0 -15 9 0 16 16 20 24 6z m556 -6 c0
-8 -4 -15 -9 -15 -13 0 -22 16 -14 24 11 11 23 6 23 -9z m-442 -4 c10 -6 9
-10 -7 -14 -14 -3 -21 0 -21 9 0 16 9 18 28 5z m332 -5 c0 -9 -8 -12 -27 -8
-25 5 -25 6 -8 13 29 11 35 10 35 -5z"/>
</g>
</svg>
