<?xml version="1.0" standalone="no"?>
<!DOCTYPE svg PUBLIC "-//W3C//DTD SVG 20010904//EN"
 "http://www.w3.org/TR/2001/REC-SVG-20010904/DTD/svg10.dtd">
<svg version="1.0" xmlns="http://www.w3.org/2000/svg"
 width="2048.000000pt" height="2048.000000pt" viewBox="0 0 2048.000000 2048.000000"
 preserveAspectRatio="xMidYMid meet">
<metadata>
Created by potrace 1.13, written by Peter Selinger 2001-2015
</metadata>
<g transform="translate(0.000000,2048.000000) scale(0.192120,-0.192120)"
fill="#000000" stroke="none">
<path d="M5170 10044 c-245 -44 -411 -111 -567 -230 -231 -177 -364 -415 -380
-681 l-6 -101 -106 -42 c-342 -136 -709 -377 -926 -611 -352 -378 -547 -804
-616 -1344 -7 -56 -13 -208 -13 -345 l-1 -245 80 -75 c44 -41 101 -95 127
-120 l47 -45 -27 -615 -27 -614 -71 80 c-39 45 -97 115 -128 156 l-56 75 21
48 c17 39 20 59 15 103 -11 97 -57 185 -281 547 -103 166 -215 390 -215 431 0
37 2 39 30 24 14 -8 21 -6 28 6 8 14 19 11 91 -26 61 -30 99 -42 147 -47 l64
-6 45 45 c25 25 45 50 45 55 0 13 -175 114 -325 188 -161 79 -272 117 -346
119 -74 1 -99 -19 -99 -81 0 -176 328 -794 670 -1263 l84 -115 -23 -370 c-78
-1297 -112 -1918 -147 -2668 l-6 -147 -92 -80 c-379 -325 -643 -746 -737
-1172 -16 -72 -22 -144 -26 -320 l-6 -228 3893 0 3893 0 -6 223 c-8 318 -49
492 -178 754 -132 270 -387 589 -608 763 -60 47 -70 60 -70 86 -4 219 -80
1617 -147 2680 l-35 571 95 127 c388 516 666 1002 666 1164 0 59 -26 77 -109
76 -74 -2 -182 -33 -331 -96 -148 -62 -330 -158 -330 -173 0 -8 17 -32 38 -55
33 -33 45 -40 78 -40 22 0 55 5 74 10 19 6 49 13 65 15 17 2 64 18 105 35 84
34 95 31 94 -29 -2 -56 -65 -170 -233 -421 -79 -118 -161 -240 -181 -270 -44
-66 -77 -143 -90 -208 -7 -37 -4 -59 11 -105 l20 -58 -31 -42 c-47 -64 -214
-266 -221 -267 -3 0 -11 152 -18 338 -7 185 -18 454 -25 597 l-13 260 67 75
c45 51 86 85 127 108 l61 32 7 97 c9 116 -1 345 -21 503 -58 448 -237 860
-523 1202 -246 294 -601 542 -1012 708 l-106 43 -6 96 c-26 431 -361 787 -845
897 -65 14 -369 28 -422 18z m415 -570 c191 -33 392 -117 535 -225 73 -55 176
-156 168 -164 -2 -2 -44 7 -93 20 -293 81 -516 109 -865 109 -349 0 -589 -30
-864 -110 -48 -14 -90 -23 -93 -20 -9 9 91 107 167 165 273 206 667 291 1045
225z m75 -525 c58 -5 177 -21 265 -34 88 -13 197 -26 243 -29 98 -7 115 -15
213 -96 53 -45 123 -87 253 -152 274 -137 437 -246 603 -402 136 -128 282
-311 309 -389 17 -48 17 -47 3 -47 -7 0 -48 36 -93 79 -113 110 -153 143 -291
234 -380 250 -929 429 -1500 488 -152 16 -560 16 -730 0 -578 -54 -1028 -202
-1398 -461 -129 -91 -347 -311 -423 -426 -32 -50 -65 -99 -72 -110 -10 -16
-12 -6 -10 61 3 75 6 86 46 152 67 114 181 260 279 359 184 185 370 314 660
458 144 72 209 110 260 154 104 89 108 91 214 98 52 3 164 16 251 29 344 53
616 63 918 34z m0 -580 c555 -51 1121 -244 1495 -508 101 -71 249 -217 303
-299 22 -34 50 -88 62 -120 22 -58 45 -161 37 -168 -2 -2 -27 24 -56 58 -217
261 -631 503 -1080 633 -732 210 -1684 186 -2371 -62 -386 -139 -696 -343
-924 -608 l-26 -30 15 43 c24 72 96 202 156 283 350 472 969 741 1814 789 165
9 412 5 575 -11z m180 -543 c574 -72 1054 -258 1410 -546 147 -119 236 -162
290 -140 50 21 180 177 180 216 0 29 20 12 41 -33 42 -94 48 -151 48 -473 l1
-305 -36 -40 c-20 -22 -54 -63 -75 -91 -59 -76 -72 -76 -98 5 -11 36 -32 108
-46 159 -46 172 -135 323 -281 481 -109 118 -199 187 -328 251 -168 83 -250
102 -461 108 -206 5 -298 -6 -647 -84 -280 -62 -414 -84 -508 -84 -93 0 -232
23 -485 79 -121 27 -260 57 -310 66 -121 22 -396 31 -507 16 -283 -38 -552
-208 -756 -480 -112 -149 -163 -271 -208 -495 -24 -117 -35 -146 -58 -146 -13
0 -156 170 -168 198 -4 9 -7 150 -7 314 -1 317 8 403 58 543 12 33 26 74 30
90 5 17 15 46 24 65 l15 35 1 -56 c1 -40 7 -64 21 -82 11 -14 20 -35 20 -47 0
-53 74 -151 130 -174 59 -24 112 -2 280 115 270 189 432 276 677 364 230 84
527 150 783 174 63 6 131 13 150 15 90 10 702 -3 820 -18z m-1480 -656 c115
-12 242 -37 495 -95 439 -102 518 -101 1015 14 316 73 393 84 570 85 171 1
258 -14 382 -64 116 -47 178 -90 289 -200 190 -189 233 -281 273 -593 28 -206
39 -517 33 -927 l-5 -395 -40 -135 c-160 -528 -400 -962 -740 -1335 l-91 -100
-1 -449 0 -449 -80 -75 c-252 -234 -601 -782 -968 -1524 -86 -174 -159 -317
-162 -317 -3 0 -76 143 -162 317 -367 742 -716 1290 -968 1524 l-80 75 0 449
-1 449 -91 100 c-129 142 -189 219 -303 390 -182 273 -331 595 -442 958 l-38
122 0 510 c0 530 7 676 46 905 39 235 87 330 247 494 89 90 175 151 280 196
164 71 329 92 542 70z m3330 -2058 c8 -9 35 -44 59 -77 57 -76 104 -120 158
-146 25 -12 43 -28 43 -37 0 -10 5 -69 10 -132 5 -63 26 -389 47 -725 33 -539
37 -662 37 -1059 l1 -448 -24 -17 c-55 -38 -108 -92 -129 -131 l-22 -42 0
-844 0 -844 -325 0 -325 0 0 148 c0 105 10 239 35 453 81 709 115 1063 115
1190 0 122 -2 133 -26 175 -38 65 -117 131 -177 149 -36 11 -97 15 -214 15
l-163 0 0 308 0 309 95 114 c271 325 511 772 659 1224 47 146 86 299 86 340 0
25 29 95 40 95 3 0 12 -8 20 -18z m-4670 -120 c118 -443 245 -753 440 -1078
125 -206 204 -318 352 -495 l38 -45 0 -316 0 -316 -177 -4 c-146 -3 -185 -7
-214 -21 -56 -28 -116 -83 -154 -143 -34 -53 -35 -56 -35 -162 0 -107 37 -497
105 -1103 28 -249 35 -350 35 -505 l0 -194 -326 0 -327 0 7 853 7 852 -33 49
c-18 28 -56 66 -85 85 -50 33 -52 37 -59 89 -12 97 4 675 30 1122 43 717 66
1066 72 1098 4 22 14 32 32 37 62 15 124 79 238 243 21 30 38 16 54 -46z
m1047 -2490 c-22 -104 4 -160 148 -332 183 -219 391 -551 649 -1035 71 -132
162 -301 202 -377 72 -133 87 -179 62 -195 -7 -4 -299 -10 -648 -13 l-635 -5
-50 -27 c-27 -15 -70 -40 -95 -57 -24 -17 -45 -29 -47 -28 -11 12 -233 2007
-233 2102 0 13 45 15 328 15 l329 0 -10 -48z m3168 16 c-3 -18 -26 -231 -50
-473 -69 -672 -164 -1493 -183 -1581 l-7 -33 -55 36 c-30 19 -79 46 -108 59
l-53 24 -587 0 c-584 0 -656 4 -668 34 -3 8 11 42 30 77 20 35 70 129 113 209
390 737 574 1037 832 1356 35 43 72 97 82 119 20 44 25 138 9 179 l-10 26 331
0 330 0 -6 -32z m927 -250 c101 -64 102 -66 83 -119 -34 -94 17 -194 194 -385
154 -167 208 -233 283 -349 82 -126 148 -260 198 -400 42 -117 43 -123 48
-273 4 -149 4 -152 -17 -152 -12 0 -21 -6 -21 -15 0 -13 -38 -15 -279 -15
-154 0 -282 -4 -285 -9 -3 -4 -27 -11 -54 -13 -36 -4 -68 -17 -128 -56 l-79
-51 -7 42 c-5 23 -24 418 -43 877 -19 459 -38 875 -41 924 l-7 89 39 -23 c21
-13 73 -45 116 -72z m-5526 -40 c-3 -68 -22 -485 -41 -928 -19 -443 -37 -820
-40 -837 l-6 -33 -82 55 c-45 30 -89 55 -99 55 -9 0 -20 5 -23 10 -4 6 -108
10 -281 10 -237 0 -274 2 -274 15 0 11 -11 15 -41 15 l-41 0 4 168 c5 154 7
173 35 253 37 104 136 300 205 406 77 118 130 184 271 338 98 107 136 156 162
210 44 92 48 120 30 180 -13 46 -13 51 3 67 21 21 204 137 216 138 5 0 6 -52
2 -122z M4249 6067 c-51 -27 -104 -91 -119 -145 -16 -60 -13 -310 6 -364 18
-55 72 -114 128 -139 114 -52 263 10 313 128 9 23 13 82 13 200 0 188 -9 221
-71 280 -71 67 -186 84 -270 40z M6205 6072 c-22 -11 -54 -35 -72 -53 -56 -59
-63 -90 -63 -276 0 -149 2 -171 21 -210 72 -149 266 -178 383 -57 56 58 68
114 64 298 -3 150 -4 154 -33 202 -17 26 -50 62 -73 79 -37 25 -54 30 -115 33
-55 2 -82 -2 -112 -16z M5059 4747 c-82 -54 -100 -171 -36 -244 52 -59 72 -63
307 -63 235 0 255 4 307 63 64 73 46 190 -36 244 -33 22 -42 23 -271 23 -229
0 -238 -1 -271 -23z M4562 4104 c-72 -37 -109 -128 -83 -207 25 -75 171 -180
341 -244 153 -57 288 -78 510 -77 218 0 322 14 475 65 180 60 349 175 375 255
53 160 -132 293 -258 185 -147 -126 -311 -174 -592 -174 -281 0 -445 48 -592
174 -47 40 -123 50 -176 23z M4313 3237 c14 -36 86 -134 131 -175 25 -24 46
-48 46 -53 0 -6 5 -7 10 -4 6 3 10 2 10 -4 0 -5 28 -27 63 -47 34 -21 77 -48
96 -61 18 -12 37 -20 42 -17 5 3 9 1 9 -4 0 -5 19 -17 43 -27 60 -24 257 -103
260 -104 1 0 10 -3 20 -6 27 -11 20 -23 -13 -21 -16 0 -30 3 -30 6 0 3 -15 5
-32 4 -18 0 -39 4 -45 9 -7 5 -13 7 -13 4 0 -9 -196 61 -259 92 -31 15 -75 40
-98 54 -24 15 -43 24 -43 20 0 -5 -4 -3 -8 2 -15 22 -117 48 -158 40 l-39 -7
40 -35 c94 -82 260 -182 390 -233 530 -211 1122 -129 1554 213 l64 51 -33 14
c-28 11 -38 11 -69 -1 -20 -8 -39 -15 -43 -16 -5 -1 -9 -1 -10 -2 -2 0 -10 -2
-19 -4 -9 -1 -34 -14 -55 -28 -77 -48 -181 -96 -288 -131 -60 -20 -110 -36
-112 -36 -2 0 -4 9 -4 21 0 14 10 23 33 31 52 18 328 161 375 196 57 41 150
143 190 210 18 29 32 55 32 58 0 4 -17 -6 -37 -22 -105 -80 -272 -183 -388
-239 -362 -176 -646 -200 -990 -84 -184 62 -404 183 -589 324 -29 22 -38 25
-33 12z m1393 -503 c-3 -9 -17 -14 -36 -12 -39 3 -38 16 3 33 33 14 44 7 33
-21z m-86 -14 c-8 -5 -17 -7 -19 -4 -3 3 1 9 9 14 8 5 17 7 19 4 3 -3 -1 -9
-9 -14z"/>
</g>
</svg>
