<?xml version="1.0" standalone="no"?>
<!DOCTYPE svg PUBLIC "-//W3C//DTD SVG 20010904//EN"
 "http://www.w3.org/TR/2001/REC-SVG-20010904/DTD/svg10.dtd">
<svg version="1.0" xmlns="http://www.w3.org/2000/svg"
 width="2048.000000pt" height="2048.000000pt" viewBox="0 0 2048.000000 2048.000000"
 preserveAspectRatio="xMidYMid meet">
<metadata>
Created by potrace 1.13, written by Peter Selinger 2001-2015
</metadata>
<g transform="translate(0.000000,2048.000000) scale(0.192120,-0.192120)"
fill="#000000" stroke="none">
<path d="M1243 10315 c-464 -84 -837 -469 -903 -930 -8 -59 -10 -1151 -8
-4105 l3 -4025 22 -77 c121 -426 407 -709 826 -821 l82 -22 4085 0 4084 0 8
40 c11 49 -5 215 -32 343 -48 227 -172 520 -304 717 l-67 99 17 99 c16 98 14
178 -6 202 -7 9 -7 30 1 66 8 35 10 99 6 179 -17 351 -133 653 -340 881 -26
28 -47 53 -47 55 0 2 43 46 95 99 52 52 95 99 95 104 0 14 -79 1 -128 -20 -48
-20 -142 -105 -173 -156 -34 -55 -23 -123 36 -225 97 -165 156 -274 176 -327
24 -66 79 -277 79 -305 0 -12 7 -43 16 -71 43 -129 63 -169 115 -231 l49 -58
-18 -30 c-10 -17 -35 -40 -56 -50 -34 -17 -45 -17 -89 -7 -103 24 -228 134
-265 234 -17 44 -32 62 -103 120 -146 119 -422 292 -549 344 l-55 22 3 53 c2
29 -2 94 -9 145 -9 70 -10 101 -1 130 14 48 86 168 100 168 19 0 303 -388 414
-565 36 -58 82 -135 102 -172 20 -38 42 -68 49 -68 7 0 29 11 49 25 44 30 55
70 38 136 -14 53 -96 218 -136 275 -16 23 -56 79 -88 125 -32 46 -112 138
-176 204 -65 66 -123 131 -130 144 l-12 23 -37 -36 c-37 -36 -38 -36 -67 -21
-16 8 -41 15 -55 15 -59 0 -175 -110 -214 -203 -22 -54 -20 -189 5 -256 25
-69 51 -96 112 -117 l49 -16 -6 -46 c-13 -100 -49 -263 -86 -392 -33 -118
-115 -376 -133 -420 -4 -11 5 -21 30 -35 36 -19 37 -19 48 -1 6 10 42 62 79
115 80 113 108 164 153 285 35 94 65 136 97 136 11 0 49 -16 83 -35 85 -46
149 -63 276 -71 l107 -6 -15 -31 c-26 -49 -192 -214 -264 -262 -85 -57 -144
-81 -250 -106 -328 -76 -452 -166 -340 -248 85 -62 373 -132 595 -146 197 -12
525 29 625 78 51 25 81 64 111 149 12 32 24 57 26 54 2 -2 8 -89 12 -192 7
-170 11 -197 35 -264 62 -170 76 -230 76 -327 l0 -93 -153 0 c-195 0 -188 -4
-298 174 -34 55 -90 127 -123 161 -75 74 -216 158 -365 216 -19 8 -16 1 18
-38 259 -296 407 -524 439 -675 l9 -47 -96 48 c-174 87 -137 83 -683 79 l-483
-4 -285 -41 c-394 -58 -494 -67 -730 -66 -235 0 -356 18 -550 78 -63 19 -153
40 -200 45 -53 6 -869 10 -2181 10 -2298 0 -2178 -3 -2348 59 -242 88 -476
334 -545 572 -15 49 -16 438 -14 4189 l3 4135 25 60 c40 95 118 218 182 289
93 103 254 209 388 255 145 50 162 51 1229 51 1188 0 1301 6 1533 80 51 17
110 30 130 30 91 0 656 -84 948 -141 487 -96 777 -191 858 -284 37 -41 38 -49
17 -150 -30 -145 -120 -385 -335 -895 -298 -709 -395 -1000 -407 -1231 -8
-151 4 -182 110 -285 45 -44 141 -134 212 -199 195 -178 484 -465 599 -595
285 -323 406 -545 406 -744 0 -160 -48 -321 -257 -871 -356 -934 -463 -1365
-463 -1868 0 -279 27 -465 100 -688 86 -263 139 -335 305 -414 157 -74 298
-105 701 -150 126 -14 241 -28 256 -31 29 -6 31 -2 62 181 27 158 76 610 76
699 0 9 -38 21 -112 35 -167 33 -308 69 -355 92 -39 19 -42 23 -61 97 -73 275
-48 553 83 932 20 58 93 251 162 430 240 623 365 1052 434 1483 10 64 16 80
33 86 75 28 548 65 746 59 218 -7 221 -3 60 75 -74 36 -175 77 -225 92 -49 15
-93 30 -98 34 -4 4 13 29 38 57 43 46 130 205 123 224 -2 4 -52 -12 -113 -36
-217 -88 -359 -124 -486 -124 -90 0 -84 -4 -159 110 -85 131 -199 256 -551
605 -189 187 -377 381 -416 430 -83 103 -148 219 -164 294 -15 72 1 137 122
492 55 162 108 314 116 339 l15 45 -48 80 c-63 107 -145 280 -183 389 -23 66
-35 125 -46 235 -9 80 -29 235 -45 345 -58 386 -40 425 139 306 209 -140 292
-289 346 -619 l17 -103 -36 -35 c-20 -20 -39 -46 -42 -59 -21 -85 75 -247 273
-462 50 -54 101 -116 113 -136 11 -21 78 -102 148 -179 188 -210 273 -289 287
-268 3 6 32 -2 68 -19 63 -29 378 -161 612 -256 139 -57 316 -106 322 -89 2 6
37 9 85 7 102 -4 128 10 188 98 46 67 44 67 102 5 36 -38 111 -192 132 -270
70 -264 20 -573 -116 -721 -107 -116 -290 -140 -507 -68 -40 14 -75 23 -76 22
-1 -2 -17 -41 -35 -88 -44 -115 -53 -247 -21 -330 18 -47 115 -187 302 -435
55 -72 109 -196 127 -288 l17 -87 122 0 c385 0 831 66 1210 180 210 62 196 53
189 127 -4 35 -15 190 -26 345 -11 156 -25 326 -31 378 -25 220 -92 466 -184
670 -25 58 -49 110 -51 116 -3 7 18 13 59 16 81 7 162 43 216 97 57 57 68 88
42 120 -97 123 -121 184 -121 314 0 96 24 189 115 452 125 362 158 522 136
657 -36 217 -222 380 -449 393 -71 4 -75 6 -125 50 -68 60 -229 139 -342 167
-122 30 -388 33 -480 5 -104 -32 -183 -83 -280 -181 -108 -108 -184 -236 -141
-236 9 0 4 -23 -20 -82 -69 -173 -107 -371 -108 -563 -1 -192 32 -308 110
-394 50 -56 99 -80 194 -93 l80 -12 0 -92 c0 -51 -4 -96 -10 -99 -22 -14 -182
-17 -261 -6 -118 17 -228 56 -509 180 -135 60 -301 130 -370 156 l-125 47 -62
77 c-34 42 -171 191 -303 331 -216 228 -344 377 -380 445 -11 20 0 59 84 311
121 366 158 507 146 558 -27 119 -175 219 -467 316 -166 54 -393 107 -623 145
l-154 25 -2161 -1 c-1726 -1 -2174 -3 -2232 -14z m8048 -1084 c83 -21 151 -52
304 -135 58 -32 128 -62 170 -72 86 -21 164 -56 194 -88 23 -24 23 -27 18
-218 l-4 -193 -77 -225 c-107 -314 -108 -322 -102 -542 3 -101 8 -211 11 -246
6 -53 3 -70 -16 -110 -12 -26 -24 -71 -27 -99 -4 -48 -7 -53 -28 -53 -13 0
-24 -5 -24 -11 0 -5 -16 -17 -37 -25 -30 -13 -47 -14 -97 -5 -127 22 -228 90
-452 304 -184 175 -252 227 -296 227 -18 0 -56 3 -84 6 l-52 7 41 65 c51 81
54 119 13 182 -16 25 -61 72 -100 105 -39 33 -88 77 -108 98 l-38 38 0 239 c0
223 2 247 26 351 26 112 28 182 8 286 -6 29 -3 33 34 52 109 56 190 47 262
-27 79 -82 118 -226 145 -542 26 -296 68 -445 153 -534 37 -38 122 -86 155
-86 23 0 22 -6 -14 -85 -40 -90 -62 -195 -53 -260 9 -72 33 -125 54 -125 27 0
50 11 50 23 0 6 7 19 16 28 12 13 19 50 25 126 4 60 13 126 18 148 28 107 2
184 -98 290 -31 33 -67 76 -79 96 -47 77 -82 223 -97 399 -18 224 -55 392
-114 523 -33 74 -38 102 -18 111 26 12 244 -3 318 -23z m-3353 -84 c6 -7 14
-33 18 -57 21 -142 80 -318 171 -508 58 -121 59 -161 8 -297 -59 -157 -124
-351 -150 -454 -20 -74 -25 -118 -25 -215 0 -109 3 -130 26 -187 94 -232 231
-408 583 -750 164 -160 201 -201 201 -223 0 -15 -6 -33 -13 -39 -7 -7 -43 -39
-81 -71 -37 -33 -80 -78 -94 -100 -60 -91 -73 -85 -198 90 -151 210 -491 570
-869 918 -88 81 -166 159 -173 173 -10 19 -13 66 -10 187 l3 161 72 211 c40
116 142 378 227 583 244 584 265 625 304 578z m3288 -2003 c99 -75 218 -135
308 -155 93 -20 117 -48 160 -182 20 -61 48 -168 62 -237 24 -114 27 -152 31
-436 3 -209 2 -318 -6 -331 -25 -47 -543 -143 -861 -159 -125 -7 -125 -7 -157
20 -17 14 -46 50 -64 79 -36 57 -151 205 -240 307 -31 36 -73 89 -93 118 -34
48 -37 58 -34 110 l3 57 125 6 c218 11 338 77 462 257 95 138 167 380 168 565
0 55 1 57 24 53 13 -2 64 -35 112 -72z m-2106 -944 c148 -36 180 -49 180 -73
0 -34 56 -123 95 -153 42 -31 43 -45 10 -116 -14 -29 -25 -69 -25 -89 0 -33
-3 -37 -40 -48 -108 -32 -227 -18 -348 41 -129 63 -263 230 -279 347 -7 52 9
84 51 106 43 22 239 14 356 -15z m-375 -498 c95 -92 160 -136 263 -178 l77
-31 3 -66 c6 -136 -123 -581 -303 -1047 -181 -468 -251 -670 -295 -852 -30
-121 -30 -126 -30 -400 0 -303 1 -310 63 -436 39 -78 147 -196 218 -239 30
-18 94 -44 143 -58 50 -14 92 -28 95 -31 3 -3 7 -66 9 -140 4 -148 -11 -223
-54 -273 l-21 -25 -187 23 c-282 34 -464 81 -562 143 -78 50 -148 186 -198
390 l-27 106 4 449 c3 440 4 450 29 563 75 329 176 646 358 1120 189 491 254
695 289 911 6 37 11 82 11 102 0 30 8 43 30 46 3 1 41 -34 85 -77z m1848
-4098 c18 -9 58 -34 90 -56 43 -29 57 -45 57 -63 0 -31 -26 -45 -115 -61 -153
-28 -325 -11 -309 31 7 17 147 127 192 151 35 18 46 18 85 -2z M2018 9644
c-54 -23 -83 -86 -75 -165 26 -243 275 -608 465 -679 68 -26 87 -25 166 3 139
51 341 201 551 412 197 196 310 351 303 413 l-3 27 -685 2 c-597 2 -690 0
-722 -13z m1000 -217 c18 -22 -15 -71 -107 -159 -108 -104 -206 -178 -295
-223 -135 -68 -220 -42 -339 107 -81 100 -140 252 -110 281 3 4 194 7 423 7
326 0 420 -3 428 -13z M6492 8387 c-23 -13 -23 -13 57 -140 96 -154 254 -365
347 -466 51 -55 109 -100 229 -179 88 -58 203 -133 255 -168 357 -235 612
-481 746 -720 42 -75 51 -74 85 14 36 97 15 161 -101 310 -122 156 -295 311
-555 492 -66 47 -168 120 -227 165 -59 44 -139 102 -179 130 -94 66 -212 191
-336 357 -128 171 -186 219 -266 218 -18 -1 -42 -6 -55 -13z M3853 7930 l-632
-5 -30 -29 c-64 -61 -64 -184 -1 -359 45 -124 112 -231 199 -318 62 -62 86
-80 129 -92 46 -14 58 -14 107 -2 168 44 465 255 731 520 142 140 204 220 204
261 0 24 -19 35 -53 32 -12 -2 -306 -5 -654 -8z m235 -244 c9 -45 -271 -267
-406 -322 -70 -29 -104 -30 -157 -4 -77 37 -165 186 -173 293 l-4 57 368 -2
c354 -3 369 -4 372 -22z M10011 5551 c-23 -53 -27 -101 -11 -130 5 -10 35 -37
66 -61 l57 -43 -64 -33 c-165 -85 -470 -189 -701 -239 -210 -45 -309 -56 -533
-62 l-220 -6 -75 -55 c-108 -79 -275 -251 -435 -447 -258 -315 -378 -460 -452
-542 l-73 -81 118 -124 c64 -67 189 -199 276 -293 88 -93 186 -198 218 -232
l58 -62 118 51 c64 27 182 81 262 119 l144 69 66 -63 c36 -34 78 -74 93 -87
l29 -25 20 25 c11 14 123 145 250 292 170 197 249 281 304 323 132 99 281 234
365 328 225 256 322 485 321 762 0 140 -17 227 -68 358 -20 51 -50 140 -68
199 -17 59 -34 108 -37 108 -4 0 -16 -22 -28 -49z m-81 -713 c0 -124 -8 -165
-50 -249 -77 -157 -185 -279 -430 -490 -221 -191 -307 -302 -370 -479 l-27
-75 -79 -48 c-110 -67 -112 -67 -167 -11 l-47 46 -62 -4 c-45 -3 -102 -20
-198 -58 -84 -33 -149 -53 -172 -52 -50 1 -104 38 -168 113 -30 35 -90 101
-133 147 -90 96 -125 159 -106 194 7 13 57 76 111 140 54 64 102 126 106 137
10 28 219 277 323 386 108 112 181 170 247 195 31 12 100 23 184 30 73 5 145
12 161 15 22 4 27 1 27 -15 0 -25 -3 -25 165 5 178 31 341 73 525 135 80 27
148 49 153 49 4 1 7 -50 7 -111z M2687 5385 c-85 -30 -124 -102 -114 -213 21
-249 281 -680 593 -982 117 -114 202 -175 268 -195 52 -16 113 -1 232 54 375
176 1211 778 1555 1121 122 121 170 190 148 216 -17 21 -2624 20 -2682 -1z
m2201 -229 c14 -70 -752 -633 -1183 -871 -74 -41 -171 -75 -213 -75 -65 0
-139 47 -253 160 -164 165 -346 421 -430 605 -35 77 -50 182 -28 196 8 5 460
8 1059 6 1020 -2 1045 -2 1048 -21z M8676 5266 c-4 -52 -15 -128 -25 -170
l-18 -77 21 18 c95 78 136 131 136 174 0 31 -45 104 -79 128 l-28 20 -7 -93z
M7519 3689 c-142 -160 -210 -263 -233 -353 -14 -53 -26 -223 -41 -580 l-6
-139 42 7 c122 19 144 68 154 346 9 241 16 277 79 405 68 137 78 176 74 294
l-3 95 -66 -75z M1124 2241 c-150 -68 -66 -373 201 -730 243 -323 546 -530
743 -507 264 31 789 360 1175 735 287 279 387 461 280 510 -17 8 -357 11
-1191 11 -1114 0 -1169 -1 -1208 -19z m2093 -217 c10 -26 -18 -64 -117 -164
-214 -216 -607 -492 -837 -590 -154 -65 -252 -72 -363 -27 -188 77 -459 357
-584 604 -40 79 -60 146 -51 173 6 20 23 20 976 20 871 0 970 -2 976 -16z
M7035 1414 c-16 -14 -102 -74 -190 -132 -190 -127 -402 -238 -537 -281 -54
-17 -142 -45 -195 -62 -298 -95 -347 -186 -169 -314 148 -105 255 -138 451
-138 263 1 589 86 892 234 129 63 149 81 193 169 58 116 97 288 69 305 -7 5
-37 7 -66 6 -153 -7 -311 74 -374 194 -13 25 -28 45 -34 45 -5 -1 -23 -12 -40
-26z m42 -349 c53 -22 103 -63 103 -84 0 -40 -56 -72 -221 -129 -200 -69 -401
-104 -430 -75 -13 13 31 48 101 83 25 13 112 63 195 113 82 50 163 94 180 98
16 4 31 7 33 8 1 1 19 -6 39 -14z"/>
</g>
</svg>
