<?xml version="1.0" standalone="no"?>
<!DOCTYPE svg PUBLIC "-//W3C//DTD SVG 20010904//EN"
 "http://www.w3.org/TR/2001/REC-SVG-20010904/DTD/svg10.dtd">
<svg version="1.0" xmlns="http://www.w3.org/2000/svg"
 width="2048.000000pt" height="2048.000000pt" viewBox="0 0 2048.000000 2048.000000"
 preserveAspectRatio="xMidYMid meet">
<metadata>
Created by potrace 1.13, written by Peter Selinger 2001-2015
</metadata>
<g transform="translate(0.000000,2048.000000) scale(0.192120,-0.192120)"
fill="#000000" stroke="none">
<path d="M5120 9474 c-223 -20 -291 -27 -395 -45 -508 -85 -952 -279 -1322
-578 -109 -87 -308 -288 -395 -396 -358 -447 -595 -1052 -688 -1754 -27 -205
-27 -203 8 -190 57 22 181 -15 373 -112 127 -63 261 -140 352 -202 32 -21 60
-37 61 -35 1 1 15 28 31 58 62 122 133 195 380 393 139 112 244 210 675 634
l164 162 81 -45 c280 -156 587 -292 870 -386 270 -89 456 -125 715 -138 102
-6 231 -14 287 -20 495 -47 955 -294 1133 -609 33 -58 37 -62 66 -57 17 2 68
28 115 58 273 175 537 298 646 301 32 1 53 7 53 13 0 7 -9 81 -21 165 -134
1009 -529 1759 -1177 2237 -391 288 -854 462 -1407 527 -126 15 -513 27 -605
19z m520 -315 c667 -60 1223 -302 1630 -709 340 -339 551 -742 696 -1325 22
-90 28 -138 31 -265 l3 -155 -197 -98 c-129 -64 -209 -98 -230 -97 -34 0 -60
19 -158 111 -318 302 -736 459 -1290 484 -77 4 -196 13 -263 21 -326 40 -743
184 -1203 415 -323 162 -353 151 -811 -291 -297 -288 -322 -311 -472 -435 -66
-54 -152 -129 -190 -165 -99 -92 -124 -110 -158 -110 -17 0 -111 40 -224 96
l-194 96 0 98 c0 243 145 717 322 1050 108 205 246 390 417 560 420 415 990
664 1651 720 238 20 415 20 640 -1z M9950 7218 c-152 -208 -419 -370 -1097
-663 -147 -64 -314 -137 -370 -162 l-103 -46 -1 -41 c0 -22 -2 -60 -6 -84 l-5
-44 31 16 c17 9 33 15 35 14 2 -2 12 4 22 13 11 9 53 26 94 39 89 26 500 201
725 308 189 90 367 188 485 266 91 60 96 62 134 45 29 -14 38 -56 63 -284 21
-198 31 -1325 13 -1515 -31 -337 -107 -764 -190 -1064 -133 -483 -339 -932
-543 -1185 -43 -53 -120 -150 -172 -216 -52 -66 -113 -140 -136 -165 -22 -25
-71 -80 -107 -123 -73 -86 -117 -119 -151 -112 -27 5 -27 5 -156 115 -154 131
-321 239 -407 261 -115 30 -132 25 -52 -18 251 -132 497 -333 608 -495 l38
-57 -22 -31 c-36 -51 -25 -118 46 -280 l59 -135 3 -543 c3 -539 3 -542 -18
-542 -11 0 -20 -7 -20 -15 0 -13 -40 -15 -300 -15 -165 0 -300 -4 -300 -9 0
-5 -22 -11 -49 -13 -35 -4 -71 -18 -121 -48 -39 -23 -73 -46 -76 -51 -3 -5
221 -9 515 -9 l521 0 0 528 c0 573 -5 641 -56 802 -33 106 -70 190 -118 264
l-36 57 99 107 c211 227 484 573 613 778 154 245 325 624 422 935 259 837 346
1919 236 2932 -30 270 -77 528 -100 542 -3 2 -26 -23 -50 -57z M649 7243 c-66
-174 -126 -707 -136 -1223 -24 -1207 210 -2301 654 -3059 123 -211 331 -488
566 -755 67 -76 139 -158 160 -182 l38 -43 -37 -57 c-48 -74 -85 -158 -118
-264 -51 -161 -56 -229 -56 -802 l0 -528 523 0 c495 1 521 2 501 18 -74 59
-130 92 -156 92 -10 0 -18 5 -18 10 0 6 -107 10 -300 10 -260 0 -300 2 -300
15 0 11 -12 15 -45 15 l-46 0 3 542 3 543 34 90 c89 237 95 270 61 328 l-20
34 47 64 c126 171 339 344 588 476 98 51 99 53 60 53 -52 0 -130 -21 -179 -49
-93 -53 -259 -173 -350 -254 -55 -48 -110 -90 -123 -93 -52 -13 -96 18 -209
151 -32 39 -64 75 -70 80 -21 19 -211 262 -282 362 -372 521 -615 1224 -727
2108 -25 198 -25 206 -25 945 0 586 3 768 15 852 14 110 28 173 44 197 15 23
61 15 109 -19 302 -214 580 -366 966 -532 241 -103 270 -109 381 -81 l70 18 1
-775 c0 -768 7 -1013 40 -1390 49 -577 146 -967 289 -1162 43 -59 116 -113
173 -129 111 -31 347 15 697 136 132 46 337 117 456 158 118 42 252 85 297 98
l82 22 0 66 -1 66 -70 44 c-216 134 -472 387 -650 641 -161 229 -314 545 -395
816 l-27 91 -49 -14 c-32 -10 -79 -14 -132 -11 -68 2 -93 8 -151 37 -245 121
-439 527 -525 1101 -11 74 -20 153 -20 176 0 22 -6 48 -12 57 -7 9 -132 69
-278 133 -447 195 -695 324 -925 481 -130 89 -270 202 -340 272 -27 28 -55 51
-62 51 -8 0 -18 -12 -24 -27z m2123 -2511 c34 -17 92 -38 127 -47 35 -9 74
-23 87 -32 16 -10 65 -98 138 -247 190 -387 338 -602 597 -874 49 -50 89 -100
89 -110 0 -37 -46 -58 -360 -169 -330 -116 -562 -156 -633 -110 -43 28 -91
113 -126 220 -34 107 -35 112 -94 382 l-41 190 -3 478 -4 477 80 -64 c43 -35
108 -78 143 -94z M8346 6078 c-14 -104 -58 -305 -93 -418 -104 -345 -257 -581
-429 -662 -106 -50 -234 -51 -351 -2 -7 3 -13 -1 -13 -10 0 -30 -93 -294 -147
-414 -97 -220 -222 -432 -361 -612 -137 -176 -365 -391 -539 -509 l-63 -42 0
-77 0 -77 116 -33 c63 -18 278 -90 477 -161 530 -188 635 -215 837 -215 163 0
220 18 303 94 162 148 232 480 256 1217 12 352 27 1973 19 1973 -3 0 -9 -24
-12 -52z m-281 -2373 c-19 -177 -46 -324 -77 -419 -27 -81 -85 -149 -137 -159
-63 -13 -183 -7 -284 13 -92 19 -598 181 -622 200 -5 4 -28 13 -50 20 -94 29
-97 64 -14 145 34 33 102 110 153 170 210 252 317 424 484 775 46 96 91 183
101 193 11 12 54 26 111 37 99 20 207 69 275 124 76 62 70 99 73 -453 2 -400
0 -525 -13 -646z M4335 6061 c-69 -17 -125 -62 -161 -131 -17 -30 -19 -59 -19
-215 0 -166 2 -183 22 -221 28 -53 79 -97 137 -119 114 -44 255 26 295 144 6
20 11 103 11 201 0 158 -1 169 -25 217 -49 98 -157 149 -260 124z M6215 6061
c-70 -18 -125 -63 -161 -131 -15 -28 -19 -63 -22 -185 -5 -201 4 -243 72 -310
36 -36 65 -55 99 -64 100 -28 206 14 262 103 30 49 30 49 33 224 4 198 -4 234
-62 294 -58 60 -149 88 -221 69z M1373 5653 c-61 -22 83 -481 267 -858 154
-315 396 -684 565 -862 l55 -58 -66 160 c-86 210 -104 262 -104 299 0 39 7 49
46 69 60 31 59 35 -18 143 -118 164 -208 305 -368 584 -239 415 -329 540 -377
523z M9222 5614 c-66 -69 -137 -179 -311 -482 -169 -294 -237 -402 -371 -587
-50 -70 -88 -131 -83 -135 4 -5 28 -19 53 -33 62 -34 62 -55 1 -219 -27 -73
-61 -164 -76 -203 l-25 -70 52 55 c28 30 99 118 156 195 285 383 515 837 637
1255 45 154 55 239 31 259 -15 12 -22 8 -64 -35z M5021 4884 c-69 -58 -62
-192 13 -231 24 -12 77 -15 299 -15 250 1 273 2 296 20 14 10 32 30 38 43 17
33 16 114 -2 149 -31 60 -33 60 -336 60 l-277 0 -31 -26z M4665 4342 c-85 -40
-126 -124 -104 -216 10 -40 23 -61 64 -101 201 -192 616 -282 957 -206 205 46
420 166 469 262 47 93 8 214 -83 258 -82 39 -134 27 -261 -62 -124 -87 -338
-127 -522 -97 -128 20 -205 54 -334 144 -55 38 -128 45 -186 18z M6140 3294
c-183 -85 -367 -140 -570 -170 -89 -13 -157 -15 -305 -11 -291 8 -482 51 -758
173 -44 19 -80 33 -81 32 -11 -24 -24 -73 -20 -79 2 -4 42 -36 87 -70 140
-106 303 -175 512 -216 128 -25 509 -25 644 0 227 43 429 134 560 252 33 30
39 40 31 55 -6 10 -10 30 -10 44 0 14 -3 26 -7 25 -5 0 -42 -16 -83 -35z
M4297 3013 c-4 -3 -7 -14 -7 -24 0 -9 -7 -19 -15 -23 -8 -3 -15 -14 -15 -23 0
-19 -29 -49 -66 -69 -11 -6 -72 -14 -135 -18 -226 -15 -220 -23 19 -25 l232
-1 0 95 c0 95 -1 101 -13 88z M6350 2921 l0 -91 223 1 c122 1 209 4 192 6 -16
3 -77 11 -135 18 -162 22 -184 26 -193 41 -4 8 -15 14 -22 14 -8 0 -15 9 -15
20 0 11 -7 23 -15 26 -8 4 -15 14 -15 24 0 11 -4 22 -10 25 -6 4 -10 -27 -10
-84z M2830 1026 l0 -696 2500 0 2500 0 0 696 0 696 -37 -31 c-21 -16 -177
-143 -348 -281 l-310 -250 -278 280 -278 279 -307 -278 -307 -278 -31 26 c-17
14 -160 140 -317 279 l-287 252 -207 -186 c-115 -103 -254 -229 -311 -280
l-102 -94 -188 169 c-103 92 -243 218 -312 279 l-125 111 -280 -279 -280 -279
-310 250 c-170 138 -327 264 -347 281 l-38 30 0 -696z m1308 325 c20 -10 98
-73 173 -139 231 -203 308 -252 395 -252 91 0 162 45 395 251 153 136 188 159
236 159 37 0 78 -29 233 -165 276 -242 367 -283 492 -220 69 35 127 79 273
210 165 148 190 165 237 165 36 0 48 -9 177 -133 342 -328 395 -337 685 -117
66 49 123 90 128 90 4 0 8 -139 8 -310 l0 -310 -2250 0 -2250 0 0 321 0 321
28 -17 c15 -10 65 -48 112 -85 164 -129 261 -174 341 -160 67 12 148 71 309
226 138 131 203 183 233 184 4 0 24 -9 45 -19z"/>
</g>
</svg>
