<?xml version="1.0" standalone="no"?>
<!DOCTYPE svg PUBLIC "-//W3C//DTD SVG 20010904//EN"
 "http://www.w3.org/TR/2001/REC-SVG-20010904/DTD/svg10.dtd">
<svg version="1.0" xmlns="http://www.w3.org/2000/svg"
 width="2048.000000pt" height="2048.000000pt" viewBox="0 0 2048.000000 2048.000000"
 preserveAspectRatio="xMidYMid meet">
<metadata>
Created by potrace 1.13, written by Peter Selinger 2001-2015
</metadata>
<g transform="translate(0.000000,2048.000000) scale(0.192120,-0.192120)"
fill="#000000" stroke="none">
<path d="M4905 8654 c-27 -2 -122 -8 -210 -14 -716 -48 -1461 -202 -2063 -426
-1153 -429 -1877 -1089 -2003 -1824 -18 -109 -20 -164 -19 -1060 0 -779 3
-961 15 -1036 91 -561 540 -1102 1249 -1504 l59 -33 -41 54 c-112 146 -142
180 -200 225 -279 217 -344 273 -497 429 -172 174 -201 198 -267 210 l-36 7
-4 816 -3 817 -58 96 c-62 104 -139 282 -158 365 -11 50 -11 53 25 116 40 71
66 184 66 284 0 81 35 281 65 370 136 404 461 782 955 1109 370 245 852 456
1391 610 406 116 921 205 1469 252 259 22 1067 25 1315 5 1021 -83 1787 -273
2490 -617 368 -180 649 -372 894 -610 356 -346 543 -703 566 -1084 10 -154 26
-232 63 -309 33 -71 34 -76 23 -125 -18 -83 -92 -255 -156 -362 l-60 -100 -3
-816 -4 -816 -52 -13 c-43 -11 -62 -24 -127 -90 -91 -93 -154 -182 -222 -310
-28 -52 -62 -108 -76 -124 -65 -74 71 45 205 179 305 305 484 626 539 969 12
74 15 258 15 1032 1 1057 1 1047 -71 1267 -151 463 -541 888 -1139 1242 -352
208 -858 417 -1320 543 -474 130 -925 208 -1485 258 -159 14 -998 28 -1130 18z
M4935 8380 c-829 -43 -1577 -194 -2235 -453 -183 -72 -512 -236 -658 -327
-615 -386 -938 -868 -909 -1355 33 -539 475 -1044 1242 -1419 623 -305 1365
-497 2230 -575 482 -44 1102 -38 1605 15 1572 166 2826 773 3200 1549 338 701
-62 1426 -1070 1939 -671 342 -1484 546 -2455 616 -198 15 -749 20 -950 10z
m945 -185 c487 -32 969 -110 1407 -225 90 -24 480 -144 668 -205 100 -33 321
-139 465 -223 518 -303 822 -630 970 -1047 34 -97 70 -263 70 -323 0 -35 -3
-31 -53 64 -172 326 -441 592 -847 836 -1595 961 -4515 1014 -6255 114 -515
-266 -869 -588 -1056 -959 -46 -94 -49 -97 -49 -60 0 65 29 209 61 301 116
336 348 627 714 894 172 126 475 294 685 381 120 49 598 199 791 247 416 105
899 178 1369 209 215 14 828 12 1060 -4z m-180 -545 c722 -33 1325 -135 1915
-327 696 -226 1250 -565 1538 -940 88 -115 102 -151 105 -288 4 -145 -7 -181
-100 -319 -118 -177 -221 -284 -408 -428 -785 -604 -2229 -960 -3684 -908
-990 36 -1829 215 -2549 546 -348 160 -605 331 -828 553 -128 127 -198 221
-270 361 -33 63 -34 69 -34 180 0 107 2 119 29 170 90 173 301 385 561 565
449 309 1068 549 1805 699 567 115 1271 165 1920 136z M3353 7211 c-87 -24
-141 -51 -214 -107 -116 -89 -214 -233 -239 -350 -19 -87 -28 -92 -174 -86
-139 5 -221 -10 -320 -58 -113 -54 -236 -176 -296 -293 -27 -53 -30 -68 -30
-150 0 -85 2 -95 39 -171 84 -173 230 -297 397 -340 117 -29 260 -29 357 0 14
4 17 -1 17 -28 1 -86 74 -236 169 -346 115 -131 243 -190 432 -199 204 -10
346 43 471 176 120 127 172 244 166 370 -5 103 -45 184 -139 285 -97 104 -167
148 -302 191 -144 45 -212 45 -318 1 -21 -9 -39 38 -32 78 5 22 10 26 27 22
96 -23 162 -28 233 -16 144 23 234 61 342 146 l55 43 23 -34 c13 -19 23 -37
23 -40 0 -21 119 -180 173 -233 179 -171 466 -211 706 -97 57 27 93 54 150
113 116 117 171 234 171 361 0 107 -49 206 -157 317 -123 127 -262 184 -448
184 -151 0 -273 -39 -384 -123 -39 -30 -72 -47 -85 -45 -15 2 -33 26 -65 87
-83 160 -232 288 -391 336 -88 26 -270 29 -357 6z m265 -221 c188 -31 322
-143 322 -269 -1 -224 -379 -358 -648 -231 -210 99 -244 287 -75 416 97 74
256 107 401 84z m1143 -284 c81 -17 156 -54 210 -103 116 -105 104 -248 -28
-349 -236 -180 -698 -73 -721 166 -19 198 259 345 539 286z m-1932 -281 c160
-38 281 -151 281 -261 0 -108 -115 -219 -266 -259 -70 -19 -222 -21 -290 -4
-220 53 -335 219 -251 361 82 141 315 212 526 163z m841 -557 c156 -37 270
-145 270 -256 0 -272 -521 -384 -753 -163 -59 55 -80 103 -75 172 14 189 287
311 558 247z M6173 5829 c-177 -30 -369 -176 -449 -342 -30 -63 -34 -81 -34
-153 0 -61 6 -95 22 -135 55 -137 182 -276 300 -332 302 -144 642 -52 816 221
129 201 105 374 -75 563 -60 63 -93 88 -157 120 -128 63 -274 83 -423 58z
m308 -249 c86 -26 166 -83 204 -144 63 -102 29 -219 -85 -299 -79 -55 -173
-81 -295 -82 -158 0 -276 44 -358 135 -53 59 -70 115 -55 185 21 97 157 199
298 224 77 14 215 5 291 -19z M1013 5172 c-9 -6 8 -31 57 -88 198 -224 505
-460 842 -648 l66 -37 -13 46 c-8 25 -22 56 -32 70 -10 14 -94 77 -188 140
-182 123 -352 255 -510 398 -54 48 -112 95 -128 104 -38 19 -78 26 -94 15z
M9621 5173 c-55 -5 -109 -45 -257 -190 -87 -85 -113 -117 -123 -151 -6 -23 -9
-46 -6 -51 8 -14 -79 -86 -215 -176 -1369 -908 -3733 -1198 -5712 -701 -439
110 -903 278 -1203 435 l-110 57 2 -835 2 -835 108 -55 c729 -365 1708 -602
2737 -661 230 -13 743 -13 972 0 1288 74 2411 403 3224 943 58 38 122 83 143
99 l37 30 0 832 0 832 82 65 c89 70 258 234 327 317 23 28 41 51 39 50 -1 -1
-23 -3 -47 -5z m-631 -1403 l0 -581 -24 -22 c-13 -12 -68 -50 -123 -83 -660
-410 -1559 -694 -2548 -803 -356 -40 -491 -46 -965 -46 -473 0 -608 6 -965 46
-731 80 -1427 260 -2007 517 l-148 65 0 599 0 599 23 -7 c12 -3 74 -28 137
-54 647 -270 1390 -440 2245 -516 236 -21 931 -30 1193 -15 764 44 1472 175
2102 389 323 111 592 229 890 391 102 55 186 100 188 101 1 0 2 -261 2 -580z"/>
</g>
</svg>
