<?xml version="1.0" standalone="no"?>
<!DOCTYPE svg PUBLIC "-//W3C//DTD SVG 20010904//EN"
 "http://www.w3.org/TR/2001/REC-SVG-20010904/DTD/svg10.dtd">
<svg version="1.0" xmlns="http://www.w3.org/2000/svg"
 width="2048.000000pt" height="2048.000000pt" viewBox="0 0 2048.000000 2048.000000"
 preserveAspectRatio="xMidYMid meet">
<metadata>
Created by potrace 1.13, written by Peter Selinger 2001-2015
</metadata>
<g transform="translate(0.000000,2048.000000) scale(0.192120,-0.192120)"
fill="#000000" stroke="none">
<path d="M4925 9230 c-312 -31 -583 -82 -906 -170 -123 -34 -307 -84 -409
-112 -801 -218 -1291 -465 -1804 -908 -669 -578 -1128 -1366 -1275 -2190 -43
-242 -50 -392 -26 -577 67 -513 234 -898 519 -1200 291 -308 672 -503 1260
-644 75 -17 136 -37 136 -43 0 -6 22 -57 49 -113 179 -371 483 -662 842 -803
168 -67 415 -99 607 -81 97 10 338 56 484 92 l38 10 -16 37 c-36 87 -85 103
-230 78 -226 -41 -308 -48 -454 -43 -285 11 -509 102 -749 306 -87 74 -242
263 -311 379 -83 139 -110 173 -171 218 -65 47 -276 138 -495 214 -290 99
-466 186 -641 317 -292 217 -489 499 -602 858 -76 244 -81 282 -81 616 0 319
3 347 60 584 102 421 351 925 644 1305 121 157 371 421 510 540 103 87 236
189 361 276 318 221 549 336 940 466 246 82 365 115 965 268 715 182 1324 197
2005 49 107 -24 257 -48 370 -59 366 -39 494 -63 693 -132 251 -86 437 -192
607 -346 146 -131 191 -163 342 -242 149 -78 251 -142 323 -199 224 -178 372
-352 500 -585 54 -99 118 -183 228 -303 115 -124 182 -222 252 -368 74 -153
112 -273 149 -472 38 -200 36 -191 116 -358 87 -182 137 -309 165 -418 20 -81
21 -106 18 -360 l-4 -272 -55 -165 c-69 -205 -79 -246 -79 -318 0 -66 -23
-230 -46 -329 -61 -264 -218 -572 -371 -728 -58 -59 -261 -223 -353 -285 -36
-25 -128 -73 -205 -108 -182 -83 -205 -105 -220 -206 l-8 -48 -86 7 c-339 27
-670 91 -1376 265 -512 127 -603 144 -724 137 -108 -6 -195 -32 -521 -154
-531 -199 -928 -320 -1309 -397 -68 -14 -125 -27 -127 -29 -11 -10 81 -130
142 -185 185 -167 463 -231 740 -171 53 11 97 19 98 17 2 -2 23 -34 48 -73
207 -324 696 -553 1317 -616 724 -74 1403 310 1711 966 26 56 56 128 66 160
10 33 22 65 28 71 6 6 36 16 66 23 205 49 513 213 698 374 351 305 591 842
592 1330 0 91 2 102 34 165 99 197 149 477 126 712 -26 268 -123 553 -262 772
-30 47 -37 68 -47 154 -52 443 -225 807 -509 1075 -78 74 -94 95 -134 179
-137 285 -379 558 -657 744 -90 60 -284 162 -366 192 -38 13 -78 45 -168 131
-353 338 -888 548 -1474 579 -78 4 -145 14 -198 30 -117 34 -306 71 -479 95
-121 17 -216 22 -481 24 -181 2 -370 -1 -420 -5z m2055 -6554 c613 -112 801
-139 1115 -162 116 -8 234 -17 264 -20 l53 -6 -133 -135 c-298 -301 -390 -377
-580 -477 -129 -68 -239 -109 -379 -143 -144 -34 -418 -43 -600 -19 -350 46
-633 144 -885 306 -151 97 -166 105 -265 133 l-82 24 173 120 c258 178 365
240 535 308 265 107 481 127 784 71z m-1296 -144 c-105 -96 -162 -125 -253
-127 -121 -4 -164 14 -107 44 50 27 333 119 366 119 l34 0 -40 -36z m-398
-129 c-11 -11 -19 6 -11 24 8 17 8 17 12 0 3 -10 2 -21 -1 -24z M6694 8612
c-89 -12 -137 -61 -137 -138 0 -48 19 -83 65 -117 22 -16 41 -19 134 -18 236
3 425 -49 604 -168 77 -50 184 -154 237 -229 50 -70 84 -92 140 -92 76 0 136
60 136 136 0 60 -63 152 -186 271 -235 228 -500 340 -837 356 -58 3 -128 2
-156 -1z M3713 8525 c-268 -48 -519 -203 -703 -432 -77 -95 -89 -134 -62 -196
23 -52 55 -77 110 -84 58 -8 100 17 160 97 126 164 296 280 487 331 112 30
307 30 419 0 100 -27 125 -26 167 2 94 62 86 188 -14 239 -104 53 -390 75
-564 43z M5645 8523 c-42 -11 -76 -47 -119 -126 -97 -180 -132 -332 -123 -535
7 -150 31 -255 137 -597 94 -301 99 -378 43 -562 -15 -48 -19 -52 -54 -58 -63
-11 -174 -71 -227 -122 -62 -59 -74 -103 -46 -165 39 -87 144 -108 221 -44
116 96 263 100 384 8 74 -55 134 -66 186 -33 67 42 87 111 51 181 -26 50 -113
115 -194 145 -27 10 -50 19 -51 20 -1 0 7 34 18 75 10 41 22 118 25 170 8 119
-5 188 -85 446 -113 362 -131 444 -132 584 -1 128 21 216 86 346 59 115 63
136 41 188 -24 56 -102 95 -161 79z M6816 7640 c-57 -17 -96 -73 -96 -138 0
-63 87 -182 179 -244 25 -17 47 -32 49 -33 1 -1 -5 -19 -14 -40 -91 -218 -90
-555 1 -860 31 -104 63 -137 137 -142 63 -5 108 18 133 68 21 39 17 83 -18
207 -63 224 -59 468 10 649 13 37 19 42 39 37 39 -10 167 15 229 46 69 33 95
69 95 130 0 54 -26 97 -72 121 -47 24 -70 24 -143 -2 -140 -49 -282 2 -364
130 -23 35 -44 54 -72 65 -44 18 -51 18 -93 6z M3795 7560 c-77 -38 -102 -133
-55 -201 60 -87 165 -182 228 -208 18 -8 32 -18 32 -23 0 -5 -11 -31 -25 -59
-69 -135 -134 -367 -161 -569 -20 -153 -14 -427 11 -570 38 -212 120 -445 220
-623 31 -54 53 -103 50 -108 -4 -5 -25 -9 -49 -9 -63 0 -265 -28 -401 -55
-294 -59 -475 -136 -674 -286 -115 -87 -260 -226 -343 -331 -71 -89 -72 -90
-109 -84 -20 3 -77 19 -127 35 -390 128 -647 389 -738 750 l-26 103 55 55 c30
30 70 84 87 119 28 53 32 71 27 111 -4 38 -12 54 -41 80 -41 38 -72 48 -123
38 -43 -8 -78 -42 -115 -113 -55 -102 -153 -135 -269 -88 -75 30 -108 32 -149
11 -95 -49 -105 -173 -17 -236 51 -37 153 -69 231 -72 l58 -2 23 -90 c84 -330
289 -602 593 -787 102 -61 240 -122 341 -150 42 -11 77 -21 79 -23 1 -1 -9
-28 -23 -60 -60 -135 -81 -303 -46 -361 27 -45 98 -71 149 -56 62 19 90 57
107 148 21 110 40 165 93 268 62 122 146 232 266 352 212 211 379 308 644 375
148 38 320 62 697 99 560 55 765 102 998 229 190 104 440 200 644 247 159 36
376 43 673 20 177 -14 238 -15 345 -6 245 21 480 81 678 173 208 98 427 270
442 349 17 92 -44 168 -135 168 -50 0 -70 -11 -145 -83 -167 -161 -454 -280
-774 -322 -138 -19 -229 -19 -453 1 -514 45 -835 -21 -1363 -281 -204 -101
-296 -132 -485 -164 -155 -27 -297 -44 -308 -37 -5 3 -32 43 -60 88 -121 198
-207 411 -253 628 -20 90 -23 135 -23 315 0 180 3 225 23 315 28 130 76 278
129 391 l39 86 91 6 c149 9 292 70 328 139 40 78 -16 183 -104 195 -33 4 -56
-1 -102 -21 -182 -82 -348 -45 -485 108 -88 98 -127 113 -200 76z M2375 7343
c-37 -10 -77 -46 -92 -81 -16 -39 -21 -293 -8 -408 35 -312 147 -669 269 -862
l27 -43 -56 -62 c-115 -126 -173 -299 -127 -373 37 -59 118 -79 181 -46 34 19
46 37 100 153 37 79 107 149 189 187 52 24 68 27 178 28 139 0 174 11 205 61
45 73 17 168 -60 201 -59 24 -213 27 -299 4 l-74 -19 -13 21 c-32 49 -110 225
-146 333 -74 218 -117 504 -105 698 7 111 -4 151 -54 187 -27 20 -82 30 -115
21z M8488 7033 c-33 -21 -68 -82 -68 -119 1 -50 32 -91 115 -152 88 -65 203
-181 254 -255 123 -180 174 -414 137 -635 -18 -106 -49 -209 -83 -277 -32 -62
-36 -97 -17 -144 38 -96 156 -119 226 -43 48 53 114 240 143 406 19 114 19
321 0 423 -49 258 -186 489 -397 670 -130 111 -182 143 -237 143 -25 0 -58 -8
-73 -17z M7674 5231 c-17 -10 -39 -36 -49 -57 -17 -35 -17 -47 -6 -122 17
-123 70 -252 148 -360 16 -23 15 -25 -52 -88 -159 -150 -341 -239 -569 -279
-117 -20 -224 -19 -441 5 -99 11 -250 23 -336 27 l-156 6 -16 91 c-23 128 -67
213 -127 244 -33 17 -54 21 -80 17 -73 -14 -129 -87 -117 -153 3 -15 16 -54
30 -87 14 -33 28 -85 31 -116 l7 -56 -68 -28 c-83 -35 -189 -94 -331 -184
-280 -179 -369 -197 -667 -142 -123 24 -379 34 -455 18 l-35 -7 -33 71 c-43
91 -122 175 -174 184 -49 9 -79 1 -117 -30 -63 -53 -64 -135 -4 -207 35 -42
60 -86 52 -91 -2 -1 -42 -21 -89 -43 -163 -79 -381 -271 -395 -348 -15 -75 18
-134 89 -161 66 -25 104 -9 186 78 141 150 328 248 532 278 104 15 309 6 438
-20 52 -10 125 -22 162 -26 l68 -7 11 -42 c6 -22 15 -67 19 -99 10 -68 29
-100 73 -127 63 -39 145 -16 188 52 17 27 19 44 15 93 -3 33 -12 85 -20 115
-11 41 -12 56 -3 59 43 15 231 118 327 181 163 105 285 167 375 190 103 26
298 26 540 0 99 -11 237 -20 306 -20 111 0 128 -2 134 -17 4 -10 10 -67 13
-128 2 -66 10 -121 19 -138 45 -89 191 -87 238 2 27 54 29 206 3 311 -2 5 38
24 87 41 184 62 356 169 492 306 l71 72 67 -34 c100 -50 213 -78 325 -79 118
-1 152 14 182 81 27 61 18 105 -32 155 -37 38 -38 38 -117 38 -150 0 -269 48
-374 150 -88 86 -148 213 -149 313 0 44 -28 94 -65 117 -41 26 -110 26 -151 1z
M9194 4269 c-50 -14 -91 -68 -99 -131 -11 -81 -57 -209 -105 -290 -51 -87
-172 -209 -252 -256 -31 -19 -90 -47 -130 -63 -79 -33 -103 -50 -124 -91 -40
-77 13 -177 101 -194 42 -8 111 14 225 71 193 97 354 257 451 448 50 98 101
263 106 347 5 72 4 77 -23 109 -27 32 -79 62 -106 60 -7 0 -27 -5 -44 -10z"/>
</g>
</svg>
