<?xml version="1.0" standalone="no"?>
<!DOCTYPE svg PUBLIC "-//W3C//DTD SVG 20010904//EN"
 "http://www.w3.org/TR/2001/REC-SVG-20010904/DTD/svg10.dtd">
<svg version="1.0" xmlns="http://www.w3.org/2000/svg"
 width="2048.000000pt" height="2048.000000pt" viewBox="0 0 2048.000000 2048.000000"
 preserveAspectRatio="xMidYMid meet">
<metadata>
Created by potrace 1.13, written by Peter Selinger 2001-2015
</metadata>
<g transform="translate(0.000000,2048.000000) scale(0.192120,-0.192120)"
fill="#000000" stroke="none">
<path d="M3541 10290 c-260 -22 -430 -82 -552 -197 -71 -68 -112 -134 -154
-253 -41 -113 -136 -300 -284 -554 -190 -325 -247 -453 -271 -600 -31 -196 79
-360 306 -456 l62 -26 -31 -50 c-86 -138 -181 -382 -241 -619 -138 -553 -260
-1775 -326 -3290 -27 -626 -50 -1521 -50 -1977 l0 -276 32 -11 32 -11 -26 -28
c-39 -41 -46 -60 -67 -183 -34 -195 -45 -353 -46 -664 0 -270 2 -303 18 -333
40 -73 146 -97 206 -46 54 45 55 49 52 319 -2 285 10 485 41 665 12 69 21 139
20 157 l-2 31 98 -31 c53 -17 98 -32 100 -33 2 -1 -3 -15 -11 -31 -18 -37 -43
-165 -63 -333 -12 -97 -17 -224 -18 -455 -1 -290 1 -323 17 -353 49 -90 183
-95 236 -8 19 30 20 51 21 302 0 282 15 499 49 684 10 58 16 111 13 119 -4 11
3 13 39 7 24 -3 68 -9 97 -13 29 -3 55 -9 57 -14 3 -4 -2 -39 -10 -78 -43
-206 -69 -627 -56 -922 6 -137 9 -159 29 -186 60 -84 178 -79 232 10 19 30 20
45 14 222 -8 229 8 537 38 730 12 77 22 157 22 178 1 30 5 37 21 37 38 0 150
-21 198 -36 38 -13 47 -19 41 -33 -12 -28 -42 -170 -61 -290 -25 -162 -24
-801 2 -850 37 -72 145 -95 206 -44 56 48 58 59 52 368 -4 190 -2 319 6 400
13 120 44 312 53 321 3 2 34 -4 69 -15 35 -11 92 -25 127 -32 50 -9 62 -15 58
-28 -37 -129 -68 -491 -70 -806 -1 -201 1 -234 16 -262 40 -73 108 -97 181
-65 74 33 81 57 79 247 -3 200 11 445 40 684 l22 184 81 -7 c44 -3 107 -6 140
-6 l60 0 -3 -488 c-3 -454 -2 -489 15 -522 46 -89 152 -106 221 -36 l37 36 1
163 c5 1014 5 1020 -14 1237 -10 118 -18 216 -17 218 2 2 152 -18 173 -24 9
-3 6 -12 -10 -35 -22 -30 -23 -36 -21 -243 3 -225 19 -624 32 -767 6 -60 14
-94 27 -112 47 -63 138 -77 195 -30 55 47 61 76 49 231 -13 177 -30 582 -30
740 0 86 -4 133 -15 159 -8 19 -15 36 -15 37 0 1 39 -2 88 -6 48 -3 103 -7
123 -7 l37 -1 -20 -37 c-19 -36 -20 -52 -14 -306 7 -315 23 -636 36 -726 10
-68 31 -100 84 -128 37 -19 95 -12 134 16 35 24 65 93 58 130 -10 47 -27 412
-34 702 -6 247 -9 289 -25 312 -22 34 -22 37 9 37 24 0 25 2 19 43 -3 23 -14
168 -25 322 -139 1995 -176 3812 -104 5070 9 154 19 306 22 337 l7 57 225 5
c587 14 1398 93 2150 212 572 90 801 165 946 309 82 82 107 137 112 247 8 159
-50 308 -265 683 -150 261 -224 408 -279 553 -51 135 -88 195 -158 260 -170
155 -464 217 -916 192 -207 -11 -384 -30 -830 -85 -522 -65 -586 -70 -885 -69
-305 0 -356 4 -965 79 -587 73 -881 93 -1099 75z m544 -169 c94 -11 285 -34
425 -50 669 -80 981 -99 1319 -82 233 12 550 42 916 86 629 76 817 89 922 62
62 -16 283 -122 283 -136 0 -4 27 -20 61 -36 33 -16 77 -47 96 -69 36 -39 87
-140 137 -271 15 -38 36 -93 47 -121 19 -48 126 -248 231 -429 26 -44 66 -120
90 -170 42 -88 43 -92 46 -208 2 -66 1 -130 -2 -143 -13 -49 -160 -119 -353
-168 -189 -48 -1095 -195 -1423 -231 -80 -9 -215 -25 -300 -35 -145 -18 -421
-38 -815 -59 -171 -9 -214 -18 -249 -49 -26 -24 -52 -80 -61 -131 l-7 -44
-182 6 c-508 18 -1341 109 -2074 228 -289 47 -502 103 -492 130 2 8 4 46 4 84
0 81 -15 112 -109 214 l-57 61 -5 83 c-8 130 13 179 253 599 62 108 129 232
149 275 124 265 170 349 220 399 28 28 68 57 88 65 20 7 37 17 37 21 0 4 17
16 38 26 20 10 68 36 107 57 38 22 90 45 115 52 61 18 322 10 545 -16z m-1435
-2380 c434 -132 1058 -216 1902 -257 124 -6 128 -7 123 -28 -4 -19 -17 -152
-30 -311 -16 -189 -36 -670 -46 -1080 -20 -911 17 -2250 101 -3584 11 -173 20
-334 20 -358 l0 -43 -38 0 c-47 0 -124 -38 -137 -67 -5 -13 -13 -23 -17 -23
-5 0 -8 -58 -8 -130 0 -95 -3 -129 -12 -127 -6 1 -13 -7 -15 -18 -8 -43 -10
-44 -50 -29 -21 7 -73 13 -115 14 -71 0 -83 -3 -154 -41 -50 -26 -85 -38 -99
-35 -12 3 -51 29 -86 57 -114 92 -201 115 -317 85 -74 -20 -77 -19 -170 66
-86 78 -156 112 -237 112 -52 0 -71 -6 -139 -42 -90 -49 -95 -48 -178 10 -108
74 -166 82 -274 37 -51 -21 -56 -22 -87 -7 -17 8 -52 32 -77 53 -50 42 -114
74 -147 75 -14 0 -23 6 -23 16 0 13 -7 15 -41 9 l-41 -7 5 998 c3 550 10 1085
16 1189 6 105 15 282 21 395 60 1161 165 2198 275 2715 20 96 18 196 -5 285
-24 93 -25 103 -2 96 9 -3 46 -14 82 -25z m2314 -92 c113 -7 212 -16 219 -21
9 -6 14 -360 19 -1615 4 -884 9 -1637 12 -1673 3 -36 13 -225 21 -420 9 -195
25 -509 35 -698 12 -203 20 -469 20 -653 l0 -309 -60 0 c-47 0 -74 -7 -120
-30 -66 -33 -98 -37 -138 -16 -39 20 -56 44 -79 111 -29 82 -30 95 -53 480
-52 893 -52 897 -46 2670 3 913 8 1735 11 1827 l6 168 -48 72 c-62 94 -66 105
-45 117 9 6 22 9 28 7 6 -2 104 -10 218 -17z M3501 10077 c-20 -25 -4 -54 52
-98 150 -119 524 -239 943 -304 386 -59 739 -79 1244 -72 677 10 1141 71 1552
203 235 76 428 188 428 250 0 49 -64 46 -476 -20 -754 -121 -1069 -150 -1634
-150 -551 0 -879 29 -1573 140 -403 64 -516 75 -536 51z"/>
</g>
</svg>
