<?xml version="1.0" standalone="no"?>
<!DOCTYPE svg PUBLIC "-//W3C//DTD SVG 20010904//EN"
 "http://www.w3.org/TR/2001/REC-SVG-20010904/DTD/svg10.dtd">
<svg version="1.0" xmlns="http://www.w3.org/2000/svg"
 width="2048.000000pt" height="2048.000000pt" viewBox="0 0 2048.000000 2048.000000"
 preserveAspectRatio="xMidYMid meet">
<metadata>
Created by potrace 1.13, written by Peter Selinger 2001-2015
</metadata>
<g transform="translate(0.000000,2048.000000) scale(0.192120,-0.192120)"
fill="#000000" stroke="none">
<path d="M6770 10264 c-288 -85 -430 -250 -430 -501 0 -66 33 -183 371 -1330
204 -692 372 -1259 374 -1261 2 -3 187 37 192 41 1 2 -5 25 -13 52 -8 28 -179
606 -380 1285 -243 822 -367 1257 -371 1300 -7 78 12 177 35 189 9 4 71 8 137
7 65 -1 143 2 173 7 130 22 209 -48 276 -248 9 -24 104 -342 211 -707 108
-365 210 -696 226 -736 37 -93 88 -170 133 -200 36 -24 109 -33 128 -14 12 12
2 50 -294 1052 -132 448 -252 840 -266 870 -38 78 -135 172 -206 199 -79 29
-185 28 -296 -5z M5780 10185 c-257 -57 -410 -188 -465 -396 -30 -112 -22
-169 64 -448 43 -141 226 -753 407 -1361 180 -608 328 -1106 329 -1107 0 -1
41 13 90 30 73 27 90 36 89 52 -1 11 -85 301 -187 645 -102 344 -283 956 -403
1360 l-218 735 0 100 c-1 70 4 109 14 130 15 30 16 30 110 32 52 2 145 4 205
5 104 3 112 2 155 -24 25 -15 74 -55 110 -89 72 -67 112 -89 163 -89 56 0 62
17 37 107 -56 205 -184 323 -360 330 -41 1 -104 -4 -140 -12z M4870 9491
c-276 -90 -422 -261 -424 -496 -1 -74 8 -107 103 -420 150 -495 281 -937 281
-952 0 -17 27 -29 79 -36 55 -7 156 -56 214 -105 68 -57 1507 -1391 1636
-1516 297 -290 477 -622 696 -1286 43 -129 93 -266 113 -305 86 -174 279 -412
557 -690 207 -208 379 -356 539 -465 260 -177 329 -336 256 -597 -56 -202
-259 -560 -447 -785 -76 -91 -107 -118 -139 -118 -12 0 -36 -11 -52 -25 -37
-31 -63 -31 -127 -1 -93 44 -179 119 -455 396 -224 226 -285 282 -331 304
-134 64 -219 14 -219 -127 0 -40 8 -70 30 -114 32 -65 65 -95 285 -263 241
-184 446 -372 487 -446 l17 -31 -51 -34 c-42 -28 -61 -51 -102 -125 -75 -133
-158 -239 -377 -474 -271 -291 -261 -284 -399 -297 -130 -11 -224 30 -370 163
-214 196 -444 364 -747 548 -425 257 -843 447 -1329 607 -276 91 -382 133
-553 219 -251 126 -542 324 -704 479 -56 54 -532 495 -1057 981 -1200 1110
-1232 1140 -1269 1199 -39 60 -65 134 -57 164 3 13 32 40 68 64 35 23 99 68
143 100 44 32 120 80 167 107 73 41 91 56 108 91 11 23 20 49 20 58 0 25 -45
39 -130 41 -107 1 -183 -37 -294 -148 -153 -153 -202 -291 -161 -449 19 -74
64 -162 107 -209 18 -20 254 -240 523 -489 603 -556 722 -667 1346 -1246 579
-537 602 -557 777 -673 237 -158 474 -265 897 -405 821 -272 1572 -696 2104
-1188 168 -156 365 -168 614 -40 233 120 503 367 702 643 42 57 78 114 81 127
9 34 -2 89 -26 134 l-20 40 47 19 c94 38 118 55 141 97 16 29 30 43 44 43 13
0 51 30 100 80 l78 81 37 -26 c23 -15 52 -25 74 -25 124 0 606 203 868 365
428 265 519 481 346 825 -113 225 -254 712 -322 1110 -22 129 -27 187 -27 345
l-1 190 52 230 c87 384 117 585 129 856 7 171 -6 351 -36 491 -18 84 -634
2186 -667 2276 -41 114 -147 225 -247 258 -148 49 -440 -36 -583 -170 -128
-119 -165 -273 -113 -466 71 -265 268 -900 319 -1027 87 -218 221 -403 293
-403 23 0 23 0 -12 116 -17 55 -121 405 -232 779 -222 749 -228 780 -193 900
l16 58 82 -8 c93 -9 80 -9 209 -1 174 11 225 -32 301 -254 51 -149 448 -1506
453 -1550 3 -25 35 -152 71 -282 l64 -237 -3 -463 -4 -463 -62 -295 -62 -295
0 -248 c0 -276 11 -375 76 -657 66 -287 148 -550 248 -792 l56 -137 0 -116 c0
-132 -6 -151 -72 -211 -113 -104 -435 -290 -533 -308 -22 -4 -25 -1 -25 25 0
16 20 69 44 117 55 109 107 236 135 326 18 58 21 93 21 236 l0 168 -50 100
c-63 125 -140 211 -298 329 -262 196 -490 403 -689 626 -226 252 -332 415
-397 608 -140 413 -216 603 -337 849 -179 364 -342 558 -829 985 -176 155
-238 203 -321 251 -72 43 -213 179 -372 361 -113 129 -413 408 -507 471 -53
36 -58 37 -143 36 l-87 0 -26 80 c-96 306 -406 1378 -410 1424 -7 65 10 172
29 184 6 5 50 8 97 7 47 0 118 6 158 15 78 17 163 19 250 7 62 -9 116 10 150
54 l22 27 -21 29 c-26 36 -96 85 -150 104 -69 25 -190 19 -289 -14z M4191
8445 c-159 -35 -244 -78 -324 -165 -76 -81 -99 -145 -104 -280 l-4 -105 109
-366 110 -367 78 -74 c44 -41 102 -95 129 -119 28 -25 210 -194 405 -375 573
-530 632 -581 788 -688 172 -117 325 -172 374 -133 14 10 7 20 -55 76 -192
172 -1117 1033 -1151 1071 -21 23 -52 72 -70 109 -28 60 -31 75 -31 161 0 84
3 102 28 152 57 116 185 225 293 249 l55 12 -58 26 c-42 18 -76 25 -124 25
-63 1 -68 -1 -123 -43 -76 -59 -130 -122 -167 -198 -27 -53 -32 -79 -40 -174
-10 -144 -22 -163 -102 -167 l-56 -3 -30 98 c-16 54 -76 253 -133 443 -99 334
-102 348 -103 443 0 111 6 122 74 132 20 3 87 15 149 27 90 16 132 19 200 14
181 -15 221 -9 259 40 l25 34 -27 36 c-54 70 -171 125 -264 123 -25 0 -75 -7
-110 -14z M2558 8217 c-117 -44 -272 -196 -338 -331 -82 -166 -68 -349 38
-495 30 -42 541 -520 1852 -1731 l95 -87 74 68 74 69 -69 62 c-38 35 -132 122
-209 193 -184 171 -719 666 -1230 1138 -225 208 -431 401 -457 429 -57 62
-103 147 -116 215 l-9 51 76 37 c42 20 110 60 151 88 130 88 180 96 286 42 98
-49 209 -139 474 -384 378 -350 491 -427 568 -387 17 9 37 26 43 38 11 20 5
29 -67 97 -73 70 -640 596 -814 756 -104 95 -195 138 -304 142 -52 2 -94 -2
-118 -10z M1767 7619 c-85 -13 -154 -55 -253 -154 -74 -74 -99 -108 -133 -176
-77 -157 -76 -304 3 -464 32 -63 52 -85 197 -215 136 -122 1800 -1652 1909
-1756 l36 -34 63 77 62 78 -48 45 c-26 25 -379 351 -783 725 -1344 1243 -1299
1200 -1343 1282 -25 48 -40 91 -44 126 l-5 53 78 38 c43 21 99 53 124 71 127
93 197 105 354 59 98 -28 123 -26 161 12 35 35 32 53 -17 101 -107 103 -238
151 -361 132z M1309 6581 c-127 -50 -271 -206 -337 -365 -37 -90 -42 -236 -12
-326 41 -124 46 -129 605 -641 263 -241 1297 -1198 1358 -1257 42 -41 79 -73
80 -71 22 32 88 192 81 198 -27 24 -1420 1314 -1646 1523 -146 136 -282 267
-302 290 -48 55 -87 137 -93 192 l-5 45 69 34 c38 20 92 53 120 76 28 22 78
57 110 77 176 111 188 122 203 189 8 34 7 35 -29 45 -55 15 -151 11 -202 -9z
M4795 5180 c-57 -37 -79 -111 -52 -172 11 -24 1408 -1411 1494 -1482 48 -41
115 -47 163 -14 49 33 74 87 65 141 -9 49 69 -32 -810 833 -667 655 -709 696
-733 706 -34 14 -97 8 -127 -12z M4183 4520 c-41 -25 -63 -68 -63 -125 0 -37
6 -51 33 -79 17 -19 309 -222 647 -452 338 -229 725 -492 860 -584 286 -195
282 -192 331 -192 110 2 175 131 108 216 -19 24 -68 59 -389 278 -831 565
-1379 937 -1397 946 -33 18 -94 14 -130 -8z M3775 3725 c-72 -25 -109 -98 -85
-169 11 -36 57 -81 94 -96 12 -4 425 -186 918 -404 682 -301 906 -396 936
-396 45 0 100 33 119 70 7 14 13 46 13 73 0 89 23 76 -865 468 -1008 444
-1035 455 -1065 462 -14 3 -43 -1 -65 -8z"/>
</g>
</svg>
