<?xml version="1.0" standalone="no"?>
<!DOCTYPE svg PUBLIC "-//W3C//DTD SVG 20010904//EN"
 "http://www.w3.org/TR/2001/REC-SVG-20010904/DTD/svg10.dtd">
<svg version="1.0" xmlns="http://www.w3.org/2000/svg"
 width="2048.000000pt" height="2048.000000pt" viewBox="0 0 2048.000000 2048.000000"
 preserveAspectRatio="xMidYMid meet">
<metadata>
Created by potrace 1.13, written by Peter Selinger 2001-2015
</metadata>
<g transform="translate(0.000000,2048.000000) scale(0.192120,-0.192120)"
fill="#000000" stroke="none">
<path d="M4945 9904 c-357 -23 -675 -92 -835 -181 -166 -93 -260 -250 -260
-435 0 -70 27 -192 61 -272 16 -39 28 -70 26 -71 -1 -1 -50 -7 -109 -13 -507
-54 -1258 -438 -1635 -836 -101 -106 -181 -226 -223 -330 -316 -798 -1312
-5873 -1357 -6917 l-6 -136 36 -40 c66 -72 224 -133 462 -176 103 -19 157 -22
375 -22 217 0 265 3 325 19 83 22 159 60 179 91 71 109 279 1108 521 2510 147
850 319 1924 311 1933 -3 2 -27 -18 -53 -46 -50 -52 -128 -177 -157 -250 -30
-79 -48 -263 -41 -422 8 -179 2 -208 -77 -369 -89 -181 -89 -183 -93 -501 -1
-162 -7 -292 -14 -317 -6 -22 -36 -93 -66 -155 -84 -176 -87 -193 -89 -493 -3
-290 -2 -285 -78 -445 -96 -201 -100 -220 -103 -530 -2 -291 0 -280 -99 -452
-31 -53 -56 -99 -56 -102 0 -15 -63 -137 -89 -173 -45 -62 -75 -68 -336 -67
-178 1 -242 5 -335 22 -128 23 -275 67 -286 84 -4 6 -11 124 -15 262 -5 138
-13 278 -17 311 -14 95 2 183 53 302 77 176 125 415 109 548 -5 39 -8 117 -8
175 0 100 2 110 39 195 62 146 101 272 125 405 19 108 22 146 16 280 -7 180 1
227 63 367 53 120 77 202 107 358 23 116 25 145 19 275 -8 175 -2 203 70 365
54 121 107 306 121 428 4 31 1 105 -6 164 -18 154 -8 205 85 395 91 189 131
343 121 468 -25 301 -22 318 78 483 35 58 73 130 85 161 32 85 189 718 196
788 11 118 37 233 65 289 37 72 122 151 235 215 50 28 147 92 216 141 158 114
235 164 375 241 223 123 482 226 708 283 222 55 211 49 309 176 82 107 88 138
65 345 -20 182 14 299 116 402 128 127 343 175 885 198 206 8 346 8 565 0 647
-26 860 -102 960 -345 19 -48 21 -70 21 -277 l0 -225 37 -55 c49 -74 130 -157
165 -171 15 -6 90 -26 165 -45 406 -101 771 -279 1153 -562 55 -41 135 -94
178 -119 108 -62 180 -131 217 -206 24 -49 34 -92 50 -207 11 -80 24 -161 29
-180 105 -408 176 -672 190 -711 11 -27 46 -92 79 -146 58 -96 93 -173 58
-129 -28 35 -70 56 -111 56 -25 0 -202 -54 -474 -145 -467 -155 -481 -162
-501 -235 -23 -85 43 -170 132 -170 35 0 892 282 919 303 23 18 51 63 60 100
5 19 6 -13 2 -78 -19 -308 3 -430 117 -660 83 -168 98 -232 81 -356 -17 -125
-14 -253 9 -356 25 -115 28 -123 100 -268 33 -66 65 -144 70 -174 6 -32 8
-130 4 -235 -6 -168 -4 -190 19 -301 20 -95 37 -146 85 -246 79 -164 85 -189
82 -334 -9 -352 10 -471 105 -674 82 -176 91 -221 75 -374 -15 -138 -8 -334
16 -422 8 -33 43 -118 77 -190 57 -121 61 -135 65 -215 2 -49 -3 -131 -12
-193 -9 -60 -16 -171 -16 -251 0 -119 -3 -145 -15 -150 -9 -3 -15 -18 -15 -40
0 -54 -29 -69 -205 -106 -206 -43 -533 -51 -663 -17 -79 21 -94 40 -152 188
-12 30 -48 108 -80 174 -33 66 -63 145 -69 176 -5 32 -7 126 -4 220 8 234 -15
354 -113 571 -62 138 -66 166 -58 358 6 146 4 178 -15 279 -25 127 -50 209
-91 291 -15 30 -38 87 -50 125 -20 65 -21 82 -15 245 10 254 -16 393 -111 602
-70 154 -76 187 -68 378 6 157 5 170 -20 275 -35 142 -107 291 -180 371 -30
32 -57 56 -60 53 -19 -18 452 -2713 640 -3664 106 -537 159 -742 201 -787 30
-32 97 -62 190 -85 98 -25 523 -25 668 0 238 41 403 104 470 178 l38 42 -6
141 c-41 903 -811 4967 -1238 6526 -119 435 -169 536 -359 734 -384 399 -1147
779 -1652 822 -43 4 -78 8 -78 9 0 1 11 27 25 58 53 120 76 276 56 382 -38
205 -184 339 -466 424 -252 76 -405 92 -915 96 -228 1 -442 1 -475 -1z M5035
9769 c-467 -11 -681 -47 -768 -129 -38 -35 -41 -41 -45 -103 -4 -57 -1 -72 21
-110 53 -90 237 -237 397 -317 172 -86 362 -141 561 -161 387 -40 858 115
1122 370 99 95 120 135 115 218 -4 62 -7 68 -45 103 -70 66 -218 100 -525 119
-216 14 -491 17 -833 10z m915 -259 c138 -15 180 -26 180 -48 0 -57 -182 -169
-385 -236 -267 -89 -582 -86 -861 9 -107 37 -270 122 -316 166 -35 33 -49 71
-30 83 15 9 184 28 321 36 186 11 962 4 1091 -10z M4145 8900 c-60 -39 -80
-111 -49 -176 19 -40 38 -52 214 -140 327 -162 590 -231 688 -180 83 43 85
188 4 230 -15 7 -59 19 -98 25 -122 19 -339 101 -554 211 -108 56 -155 63
-205 30z M6305 8863 c-210 -107 -413 -184 -539 -203 -114 -18 -156 -57 -156
-145 0 -42 5 -52 39 -86 38 -38 40 -39 114 -39 142 0 355 71 632 210 116 58
154 83 172 109 44 65 21 161 -46 196 -53 27 -98 18 -216 -42z M5262 8780 c-18
-11 -41 -34 -52 -52 -20 -33 -20 -59 -20 -3953 0 -3775 1 -3922 18 -3955 52
-99 206 -99 257 0 13 26 15 502 15 3952 0 3781 -1 3925 -18 3957 -36 67 -133
91 -200 51z M3006 8019 c-62 -18 -104 -88 -92 -154 8 -40 49 -93 82 -105 12
-5 118 -16 236 -25 634 -47 1176 -127 1421 -210 125 -43 189 -28 228 53 27 54
20 99 -22 147 -24 27 -50 41 -122 64 -278 88 -861 176 -1477 221 -80 5 -163
12 -185 14 -22 2 -53 0 -69 -5z M7585 8023 c-22 -2 -125 -10 -230 -19 -694
-56 -1307 -157 -1491 -245 -44 -21 -84 -79 -84 -123 0 -40 34 -99 68 -118 42
-25 96 -22 180 7 246 86 804 165 1554 220 100 8 142 28 171 85 36 70 -6 169
-81 190 -20 5 -39 9 -42 8 -3 -1 -23 -3 -45 -5z M2263 7891 c-57 -36 -85 -103
-65 -158 17 -51 670 -916 705 -935 109 -60 241 51 194 163 -19 47 -662 905
-692 925 -40 26 -105 28 -142 5z M8282 7890 c-21 -13 -151 -178 -359 -458
-180 -240 -333 -450 -341 -465 -27 -54 0 -130 61 -168 40 -25 117 -21 149 7
32 29 678 892 689 923 6 14 8 41 5 60 -15 98 -122 151 -204 101z M3382 6911
c-104 -49 -101 -208 5 -249 16 -6 341 -43 723 -83 693 -71 695 -71 730 -53
104 57 104 196 0 245 -25 12 -218 35 -690 84 -360 36 -671 68 -690 71 -22 3
-51 -3 -78 -15z M6560 6859 c-360 -38 -670 -71 -688 -74 -19 -4 -50 -21 -70
-40 -35 -31 -37 -37 -37 -94 0 -52 4 -63 29 -90 56 -58 22 -59 778 18 447 46
705 77 726 86 65 30 93 131 55 196 -19 31 -86 70 -119 68 -10 -1 -314 -32
-674 -70z M1795 6490 c-36 -24 -65 -74 -65 -113 0 -40 27 -93 58 -113 40 -26
882 -304 922 -304 75 0 130 61 130 144 0 36 -6 52 -30 80 -29 32 -61 45 -468
180 -273 91 -452 146 -477 146 -23 0 -53 -9 -70 -20z M3800 5871 c-613 -21
-790 -30 -806 -41 -12 -7 -33 -32 -48 -54 -48 -75 -25 -197 47 -248 38 -27
-53 -29 897 17 1024 50 946 44 982 69 65 44 97 162 60 222 -11 17 -35 38 -55
47 -45 22 -83 21 -1077 -12z M5792 5879 c-38 -24 -72 -85 -72 -126 0 -39 39
-112 73 -137 24 -18 54 -21 265 -32 296 -15 576 -29 1132 -58 280 -15 444 -20
460 -14 94 35 134 174 78 270 -50 84 19 76 -886 98 -1033 25 -1008 25 -1050
-1z M1645 5531 c-93 -42 -111 -160 -35 -225 31 -25 883 -316 928 -316 38 0 93
31 113 64 36 59 19 154 -33 188 -25 17 -896 308 -919 308 -8 0 -32 -9 -54 -19z
M8516 5401 c-315 -105 -448 -154 -467 -172 -15 -14 -32 -43 -39 -65 -11 -36
-10 -47 8 -87 11 -25 31 -53 45 -62 59 -38 70 -36 536 120 298 99 451 155 471
171 54 46 63 124 20 184 -20 28 -85 61 -118 59 -9 0 -215 -67 -456 -148z
M2832 2913 l3 -2108 27 -46 c62 -106 183 -163 423 -201 129 -21 726 -15 1125
11 785 50 1055 50 1840 0 399 -26 996 -32 1125 -11 172 27 297 71 363 126 18
16 45 49 60 75 l27 46 3 2108 c2 1851 0 2107 -13 2107 -26 0 -33 -32 -37 -170
-4 -125 -7 -141 -38 -215 -18 -44 -41 -101 -50 -128 -9 -26 -20 -50 -24 -54
-10 -10 -7 -331 3 -351 14 -24 71 -182 71 -194 0 -5 -14 2 -31 16 -17 14 -40
28 -52 31 -12 4 -121 -3 -242 -14 -388 -35 -583 -45 -910 -45 -333 0 -411 6
-566 45 -95 24 -122 22 -168 -16 -58 -49 -65 -136 -15 -195 30 -35 111 -63
259 -88 83 -14 174 -17 525 -17 410 0 526 5 915 40 210 19 219 21 256 53 l32
27 -7 -30 c-4 -17 -22 -61 -39 -100 -32 -70 -32 -71 -32 -235 0 -163 0 -166
31 -235 18 -38 35 -81 39 -95 7 -24 7 -24 -12 -8 -48 43 -77 47 -263 33 -665
-51 -1336 -54 -1497 -7 -89 25 -155 23 -188 -8 -40 -38 -58 -78 -52 -120 14
-107 101 -145 397 -171 249 -22 1194 4 1487 40 47 6 83 17 103 31 16 12 30 19
30 15 0 -3 -17 -47 -37 -98 l-38 -92 0 -180 0 -180 31 -70 c18 -38 35 -81 39
-95 7 -24 7 -24 -12 -8 -48 44 -82 48 -250 36 -224 -16 -1005 -16 -1172 0
-168 16 -288 37 -369 63 -74 25 -117 20 -161 -17 -75 -63 -60 -183 30 -229 46
-24 223 -63 365 -80 226 -27 614 -37 984 -25 490 15 522 18 564 57 l29 27 -7
-30 c-4 -16 -22 -60 -39 -99 -29 -65 -31 -79 -35 -211 -4 -138 -4 -142 29
-235 28 -80 33 -108 32 -184 0 -76 -5 -103 -32 -175 -45 -121 -58 -145 -92
-180 -55 -54 -105 -70 -281 -90 -202 -23 -889 -9 -1428 29 -156 11 -258 1
-375 -39 -72 -25 -107 -31 -176 -32 -76 0 -100 5 -209 42 l-123 43 -111 -7
c-584 -35 -871 -46 -1149 -46 -317 0 -359 1 -492 22 -73 11 -166 54 -198 92
-24 29 -71 128 -96 203 -30 88 -28 189 4 295 14 46 30 91 35 100 13 24 13 268
0 268 -5 0 -10 9 -10 20 0 12 -13 55 -29 98 -16 42 -32 90 -36 107 l-7 30 22
-28 c40 -50 62 -55 296 -66 399 -19 636 -22 885 -12 280 12 397 23 552 52 198
37 265 76 274 162 6 50 -12 94 -53 126 -41 32 -85 36 -156 12 -84 -28 -194
-47 -369 -63 -178 -16 -918 -16 -1167 1 -192 12 -219 8 -261 -45 l-23 -29 7
30 c10 40 66 188 77 199 12 14 10 316 -2 316 -5 0 -10 9 -10 19 0 11 -13 54
-29 96 -16 42 -33 90 -36 108 l-7 32 22 -28 c39 -50 65 -56 297 -72 703 -48
1267 -48 1522 1 91 17 139 41 169 84 41 61 20 151 -45 191 -38 24 -84 23 -183
-6 -82 -23 -394 -37 -660 -30 -259 7 -742 31 -902 45 -115 10 -156 0 -196 -48
l-24 -27 7 25 c8 32 63 179 76 202 13 24 12 278 -1 278 -5 0 -10 9 -10 20 0
12 -13 55 -29 98 -17 42 -33 91 -37 107 l-7 30 27 -32 c15 -18 44 -37 64 -43
37 -10 230 -29 537 -52 220 -17 961 -17 1080 0 121 17 240 50 270 74 68 53 73
149 11 205 -45 41 -78 49 -135 33 -110 -30 -178 -40 -359 -52 -270 -16 -813 6
-1269 53 -128 14 -156 7 -200 -45 l-26 -31 7 30 c4 17 23 70 42 119 l36 88 -4
187 -4 186 -43 84 c-53 105 -71 181 -71 303 0 104 -10 148 -35 148 -14 0 -15
-219 -13 -2107z M2985 4892 c-68 -43 -92 -140 -49 -199 39 -54 70 -61 314 -73
801 -38 1519 -27 1620 25 76 39 103 129 58 195 -13 19 -40 43 -61 53 -33 17
-45 18 -102 8 -221 -39 -1024 -37 -1660 4 -78 5 -94 3 -120 -13z M5795 4891
c-50 -26 -75 -66 -75 -123 0 -54 27 -100 71 -120 88 -42 509 -61 1049 -47 541
13 799 28 839 47 45 21 71 66 71 122 0 57 -27 101 -73 123 -32 16 -54 16 -209
8 -353 -20 -921 -33 -1163 -27 -225 6 -297 11 -430 31 -30 4 -51 1 -80 -14z
M1490 4569 c-88 -35 -115 -146 -54 -218 22 -26 80 -48 484 -182 l458 -153 49
19 c40 17 52 28 72 68 22 44 23 52 11 89 -23 79 -28 82 -507 241 -244 81 -453
147 -465 146 -13 0 -34 -5 -48 -10z M8670 4431 c-485 -163 -489 -165 -504
-246 -12 -60 26 -125 87 -150 l49 -19 459 153 c441 147 460 154 486 188 68 88
1 225 -109 223 -13 -1 -223 -68 -468 -149z M1305 3586 c-50 -23 -77 -60 -83
-115 -5 -53 17 -104 55 -127 10 -6 220 -75 466 -153 488 -155 480 -154 542
-99 81 71 56 194 -48 232 -95 35 -869 276 -885 276 -9 -1 -30 -7 -47 -14z
M8945 3485 c-198 -64 -397 -127 -442 -141 -98 -30 -139 -61 -153 -115 -20 -73
24 -147 99 -170 34 -10 70 -1 486 131 406 128 453 145 484 175 80 79 33 215
-80 230 -25 4 -134 -27 -394 -110z M1138 2589 c-123 -20 -148 -203 -36 -254
48 -22 885 -225 926 -225 132 0 180 194 63 254 -16 9 -197 57 -402 107 -529
129 -510 125 -551 118z M9414 2575 c-533 -130 -803 -199 -827 -211 -60 -31
-85 -121 -52 -185 21 -39 71 -69 116 -69 36 0 868 200 922 222 68 27 98 129
57 195 -39 65 -96 77 -216 48z M940 1608 c-97 -50 -105 -175 -14 -234 38 -25
921 -226 961 -219 70 13 122 89 109 160 -10 53 -50 93 -109 110 -57 16 -881
205 -895 205 -4 0 -28 -10 -52 -22z M9230 1529 c-239 -55 -451 -107 -470 -117
-44 -22 -80 -75 -80 -119 0 -65 51 -127 114 -138 21 -4 176 27 471 95 242 55
452 106 468 112 107 42 110 196 5 247 -24 11 -51 21 -59 20 -8 0 -210 -45
-449 -100z M3065 1339 c-110 -32 -128 -201 -27 -253 57 -29 647 -66 1062 -66
401 0 718 29 786 71 57 35 80 119 50 177 -36 70 -85 86 -199 67 -314 -54
-1045 -49 -1602 9 -22 3 -54 0 -70 -5z M5803 1331 c-95 -44 -110 -155 -30
-229 53 -50 367 -82 798 -82 415 0 1003 36 1059 65 43 22 73 71 74 121 1 46
-20 82 -68 118 -32 25 -42 25 -321 2 -567 -45 -1178 -39 -1410 14 -53 13 -54
12 -102 -9z"/>
</g>
</svg>
