<?xml version="1.0" standalone="no"?>
<!DOCTYPE svg PUBLIC "-//W3C//DTD SVG 20010904//EN"
 "http://www.w3.org/TR/2001/REC-SVG-20010904/DTD/svg10.dtd">
<svg version="1.0" xmlns="http://www.w3.org/2000/svg"
 width="2048.000000pt" height="2048.000000pt" viewBox="0 0 2048.000000 2048.000000"
 preserveAspectRatio="xMidYMid meet">
<metadata>
Created by potrace 1.13, written by Peter Selinger 2001-2015
</metadata>
<g transform="translate(0.000000,2048.000000) scale(0.192120,-0.192120)"
fill="#000000" stroke="none">
<path d="M6433 10291 c-17 -4 -51 -20 -75 -34 -24 -14 -1330 -1313 -2999
-2984 -2665 -2667 -2958 -2963 -2975 -3008 -23 -63 -23 -137 0 -200 16 -45
201 -233 1810 -1843 1366 -1368 1803 -1800 1841 -1820 71 -37 169 -37 240 0
38 21 742 719 3017 2995 l2967 2968 17 59 c19 70 15 134 -16 203 -17 40 -336
363 -1808 1835 -1486 1487 -1795 1791 -1835 1808 -54 24 -136 33 -184 21z
m146 -309 c125 -84 780 -724 1444 -1412 220 -228 748 -764 1174 -1190 426
-427 782 -792 793 -812 46 -88 18 -149 -145 -319 -85 -89 -121 -135 -151 -193
l-39 -77 -80 6 c-717 56 -1696 590 -2386 1302 -616 636 -1087 1517 -1183 2211
-18 126 -21 206 -7 198 13 -8 92 27 149 66 26 17 85 67 131 110 157 146 215
167 300 110z m-662 -592 c7 -10 26 -72 42 -137 157 -634 528 -1316 1035 -1905
339 -393 848 -799 1350 -1075 152 -83 391 -196 511 -240 112 -42 317 -113 340
-117 34 -7 56 -19 52 -29 -4 -13 -96 -17 -103 -5 -3 4 -11 5 -19 1 -8 -3 -15
-1 -15 3 0 5 -12 10 -28 11 -15 1 -68 15 -118 32 -256 83 -572 230 -828 385
-87 53 -163 96 -167 96 -5 0 -9 5 -9 10 0 6 -7 10 -15 10 -8 0 -15 5 -15 10 0
6 -7 10 -15 10 -8 0 -15 5 -15 10 0 6 -7 10 -15 10 -8 0 -15 5 -15 10 0 6 -6
10 -14 10 -7 0 -25 11 -40 25 -15 14 -31 25 -37 25 -5 0 -9 5 -9 10 0 6 -5 10
-11 10 -5 0 -72 47 -147 104 -473 359 -856 768 -1179 1259 -215 327 -400 699
-519 1042 -25 74 -28 95 -32 263 -3 147 -1 182 10 182 7 0 19 -9 25 -20z
m-233 -146 c162 -717 648 -1570 1251 -2193 666 -688 1578 -1235 2314 -1387
l130 -27 -131 -64 c-72 -35 -161 -84 -197 -110 -42 -29 -923 -902 -2431 -2409
-1686 -1684 -2376 -2368 -2402 -2379 -50 -20 -83 -19 -137 6 -36 17 -430 405
-1720 1693 -920 919 -1686 1691 -1702 1715 -18 28 -29 58 -29 80 0 34 64 100
1385 1421 762 762 1385 1392 1385 1400 0 8 474 489 1053 1070 l1053 1055 69
142 c38 78 71 141 73 139 1 -2 18 -70 36 -152z M5082 7100 c-59 -14 -141 -82
-196 -164 l-26 -39 0 -254 c0 -230 2 -260 21 -318 11 -36 32 -81 46 -102 14
-21 26 -51 27 -67 1 -25 -5 -33 -34 -48 -59 -29 -98 -33 -122 -12 -11 11 -61
80 -111 154 -155 231 -238 324 -323 362 l-44 19 -70 -22 -70 -23 -59 29 c-74
35 -123 35 -200 -1 -114 -52 -274 -195 -374 -335 -61 -87 -152 -276 -177 -371
-17 -67 -20 -109 -20 -310 0 -215 2 -241 25 -338 88 -362 307 -755 619 -1108
338 -385 850 -712 1270 -811 244 -58 488 -51 689 18 76 27 182 81 260 133 83
56 232 206 290 293 88 131 128 267 95 328 -22 43 -26 87 -12 148 21 90 0 148
-89 245 -52 57 -220 188 -343 266 -39 26 -74 54 -78 63 -9 25 -7 70 6 120 17
62 39 59 112 -15 33 -33 78 -69 101 -80 55 -27 169 -39 386 -42 173 -3 174 -3
231 25 84 41 151 127 187 239 18 55 -6 128 -66 203 -86 106 -138 126 -378 145
-144 12 -225 27 -225 43 0 7 42 39 93 72 50 33 128 96 173 140 85 84 124 150
124 208 0 49 -56 134 -123 186 -54 42 -64 46 -127 49 -61 4 -84 -1 -221 -48
-272 -92 -357 -144 -437 -270 -19 -30 -43 -62 -52 -72 -16 -15 -19 -15 -45 2
-39 26 -74 71 -75 96 0 15 18 35 53 62 85 64 175 196 235 342 58 144 102 287
102 335 0 98 -152 254 -248 255 -60 0 -179 -81 -244 -167 -38 -50 -131 -250
-169 -363 -13 -38 -19 -85 -19 -154 0 -86 -2 -97 -15 -86 -12 10 -15 10 -15
-4 0 -20 -11 -20 -57 -1 -85 36 -91 64 -33 148 22 31 40 62 40 67 0 6 5 10 10
10 13 0 13 442 0 533 -12 81 -37 133 -93 194 -69 75 -141 108 -205 93z m104
-163 c17 -21 22 -43 27 -133 13 -222 20 -462 13 -488 -7 -30 -59 -66 -95 -66
-13 0 -37 14 -55 33 l-32 32 -13 292 c-11 262 -11 295 3 315 37 53 112 60 152
15z m765 -276 c19 -19 29 -40 29 -58 0 -25 -164 -446 -200 -512 -6 -13 -27
-29 -46 -37 -48 -20 -99 1 -119 50 -14 33 -13 40 9 98 88 229 178 437 199 461
35 38 88 38 128 -2z m-1867 -229 c-121 -420 20 -898 419 -1412 170 -218 472
-496 716 -658 113 -75 362 -199 475 -237 258 -87 522 -97 733 -30 48 15 73 19
73 11 0 -21 -65 -124 -128 -204 -183 -232 -430 -362 -722 -379 -425 -24 -974
231 -1414 657 -497 481 -783 1114 -713 1575 34 217 118 378 286 546 97 96 251
209 287 209 7 0 3 -26 -12 -78z m256 26 c41 -74 187 -291 264 -392 l74 -98
-24 -35 c-83 -123 -13 -352 189 -623 96 -128 337 -368 471 -467 120 -90 278
-174 371 -198 107 -27 204 -18 250 25 20 18 21 18 100 -42 130 -97 253 -182
364 -249 l104 -63 -64 -24 c-141 -53 -352 -68 -507 -36 -641 130 -1418 852
-1642 1524 -78 233 -79 476 -3 678 9 23 19 42 23 42 3 0 17 -19 30 -42z m2311
-497 c37 -37 39 -88 7 -125 -32 -35 -512 -230 -545 -221 -14 3 -36 17 -49 30
-29 30 -33 92 -6 124 22 26 485 218 530 220 25 1 41 -7 63 -28z m-1402 -65
c197 -68 398 -229 528 -423 142 -213 180 -414 105 -566 -18 -35 -40 -71 -51
-81 -18 -16 -23 -17 -80 -2 -81 21 -196 80 -306 157 -118 83 -390 355 -474
474 -80 113 -150 257 -158 326 -5 46 -4 54 18 71 36 28 94 57 136 68 63 16
200 4 282 -24z m814 -453 c18 -10 57 -20 87 -23 41 -4 56 -9 58 -22 4 -18 -28
-68 -67 -105 -42 -41 -62 -29 -96 55 -23 57 -33 112 -20 112 4 0 20 -8 38 -17z
m707 -220 c130 -6 136 -7 162 -34 40 -39 38 -90 -3 -131 l-30 -31 -152 7
c-449 19 -437 18 -463 39 -36 28 -47 63 -34 103 21 63 35 67 220 60 91 -3 226
-9 300 -13z"/>
</g>
</svg>
