<?xml version="1.0" standalone="no"?>
<!DOCTYPE svg PUBLIC "-//W3C//DTD SVG 20010904//EN"
 "http://www.w3.org/TR/2001/REC-SVG-20010904/DTD/svg10.dtd">
<svg version="1.0" xmlns="http://www.w3.org/2000/svg"
 width="2048.000000pt" height="2048.000000pt" viewBox="0 0 2048.000000 2048.000000"
 preserveAspectRatio="xMidYMid meet">
<metadata>
Created by potrace 1.13, written by Peter Selinger 2001-2015
</metadata>
<g transform="translate(0.000000,2048.000000) scale(0.192120,-0.192120)"
fill="#000000" stroke="none">
<path d="M6650 10114 c-350 -30 -621 -103 -1005 -272 l-149 -66 64 -16 c175
-43 291 -165 321 -338 38 -215 -123 -437 -345 -475 -274 -47 -528 204 -478
473 30 165 133 281 290 330 56 17 56 17 24 25 -62 13 -205 -16 -292 -60 -115
-58 -218 -171 -262 -286 -26 -68 -19 -62 -256 -229 -95 -67 -132 -99 -128
-110 3 -8 14 -41 26 -73 34 -95 45 -205 31 -299 -38 -248 -177 -439 -395 -544
-105 -51 -197 -68 -330 -61 -188 9 -317 66 -452 201 -135 135 -192 263 -201
452 -7 137 12 231 67 342 98 193 257 316 478 369 l97 23 -115 -5 c-101 -4
-154 -13 -237 -39 -20 -6 -21 -4 -16 28 3 19 2 48 -2 63 -7 26 -8 24 -21 -27
-30 -113 -110 -207 -224 -263 -60 -30 -72 -32 -170 -32 -97 0 -110 2 -173 32
-299 142 -330 546 -54 724 32 21 82 43 111 50 54 12 71 9 171 -31 11 -4 36
-13 55 -20 64 -22 99 -40 130 -66 37 -32 92 -114 121 -180 11 -27 27 -62 35
-79 15 -30 15 -29 11 25 -15 171 -153 323 -325 359 -29 6 -111 11 -182 11
-110 0 -141 -4 -207 -25 -140 -44 -263 -149 -326 -278 -45 -90 -58 -150 -58
-255 0 -294 239 -542 528 -546 68 -1 72 -2 66 -21 -72 -226 -50 -458 63 -664
165 -302 517 -475 854 -420 181 29 325 104 460 239 102 102 163 195 207 318
14 37 30 74 37 82 29 34 65 109 80 165 13 52 14 67 2 112 -8 29 -23 65 -35 81
l-21 30 43 38 c23 22 83 70 133 108 l92 69 -6 82 -5 82 39 8 c22 5 46 10 54
11 25 5 61 -25 77 -64 66 -165 106 -232 188 -316 19 -20 35 -46 35 -57 0 -18
-4 -20 -32 -14 -61 13 -155 75 -201 132 -24 29 -83 65 -102 61 -27 -5 32 -105
105 -178 110 -110 232 -160 390 -160 159 0 281 50 390 160 64 64 124 161 150
245 7 22 26 56 41 76 53 68 69 115 69 214 0 85 -2 94 -32 145 -29 48 -62 76
-144 127 -17 10 -13 14 36 36 216 97 540 167 775 167 659 0 1355 -412 1762
-1041 226 -350 336 -690 336 -1039 0 -468 -216 -1037 -631 -1664 -626 -946
-1802 -2115 -2721 -2706 -484 -311 -878 -473 -1264 -521 -144 -17 -444 -7
-572 21 -398 85 -766 293 -1094 619 -453 448 -689 1035 -642 1590 12 151 44
321 85 453 26 85 27 88 71 107 139 61 257 193 306 339 12 37 36 84 54 104 32
38 65 124 65 171 0 28 -30 89 -61 123 -10 11 -19 24 -19 27 0 13 108 185 170
273 l59 83 -64 31 c-35 17 -87 48 -114 70 -51 40 -51 41 -35 66 11 15 19 54
22 100 l5 75 23 -22 c13 -12 24 -19 24 -15 0 5 19 -7 43 -26 81 -66 148 -108
235 -148 178 -82 181 -90 37 -106 -68 -7 -125 -22 -125 -33 0 -10 60 -28 140
-40 296 -48 620 89 796 335 24 33 62 101 84 150 23 49 52 109 66 134 73 133
96 193 101 265 4 48 2 74 -6 79 -6 4 -11 14 -11 22 0 8 -5 20 -10 27 -6 7 -19
24 -31 40 -11 15 -24 27 -29 27 -4 0 -8 -44 -8 -97 1 -405 -298 -713 -692
-713 -255 0 -484 133 -608 353 -51 89 -51 89 16 162 122 133 186 318 173 500
-2 22 -7 11 -21 -43 -65 -247 -285 -421 -536 -422 -70 0 -193 33 -266 72 -170
90 -288 293 -288 493 0 72 34 197 70 260 82 142 232 250 382 273 l53 8 -41 8
c-50 9 -184 -8 -256 -33 -234 -81 -409 -268 -464 -498 -22 -90 -22 -248 0
-333 52 -198 189 -365 370 -453 85 -42 132 -55 232 -67 68 -7 189 1 235 15 13
4 20 -4 29 -32 23 -70 82 -172 142 -243 32 -39 57 -74 54 -78 -2 -4 -48 -65
-101 -137 l-96 -130 23 -15 c101 -65 175 -176 198 -297 32 -163 -75 -362 -235
-437 -297 -141 -643 118 -588 440 29 166 132 280 303 335 l55 17 -72 1 c-95 1
-163 -14 -250 -55 -79 -37 -175 -120 -225 -192 -72 -105 -106 -252 -88 -379
24 -174 98 -288 262 -404 l22 -16 -33 -89 c-167 -450 -208 -609 -247 -949 -14
-127 -16 -214 -11 -570 6 -418 13 -554 43 -820 71 -638 257 -1116 607 -1559
100 -127 410 -437 542 -542 426 -340 824 -522 1269 -580 166 -22 502 -15 672
15 771 132 1592 606 2570 1482 210 188 849 827 1054 1054 463 512 775 929
1017 1355 39 69 83 150 98 180 l27 55 -36 55 c-135 203 -103 499 72 675 71 72
166 130 238 146 l53 12 20 86 c50 215 91 468 118 731 23 230 23 700 -1 905
-65 568 -256 1077 -569 1515 -107 150 -215 276 -368 427 -488 482 -1000 765
-1515 837 -113 16 -345 27 -424 20z m1400 -668 c8 -7 27 -18 43 -26 46 -23
245 -190 371 -311 272 -261 476 -544 623 -864 63 -138 92 -214 169 -450 94
-287 113 -336 170 -442 l54 -102 -10 -113 c-61 -658 -385 -1371 -990 -2176
-713 -949 -1708 -1908 -2605 -2512 -641 -431 -1169 -659 -1675 -726 -174 -22
-509 -15 -665 15 -453 86 -845 282 -1260 629 -132 111 -378 361 -479 487 -277
347 -493 782 -565 1138 l-20 98 40 83 c44 91 54 137 94 446 14 107 35 239 46
292 41 205 139 499 181 545 23 25 84 39 102 24 11 -9 12 -93 8 -409 l-5 -399
28 -124 c15 -68 41 -162 57 -209 40 -115 172 -367 272 -520 347 -529 886 -914
1436 -1025 395 -80 760 -49 1168 100 349 126 616 269 962 512 515 362 1022
804 1518 1326 543 570 893 1009 1198 1502 209 338 391 771 464 1106 29 134 30
144 30 412 0 291 -5 340 -55 512 -120 410 -319 726 -742 1180 -7 8 -13 16 -13
19 0 7 31 -4 50 -18z m-6526 -3613 c4 -5 17 -9 29 -10 12 -1 63 -15 112 -32
50 -16 115 -35 146 -41 44 -8 58 -16 72 -39 40 -68 11 -89 -134 -98 -86 -6
-168 6 -217 32 -22 10 -24 19 -27 103 -3 86 1 103 19 85z m7235 -921 c47 -122
54 -208 22 -271 -88 -172 -380 -607 -575 -857 -71 -91 -359 -430 -504 -594
-138 -155 -1020 -1020 -1107 -1085 -44 -33 -170 -131 -279 -219 -827 -660
-1477 -988 -2136 -1077 -124 -17 -430 -17 -550 0 -435 61 -847 260 -1245 601
-129 111 -358 349 -442 460 -173 230 -302 474 -382 723 -25 79 -31 114 -31
188 0 68 3 90 13 87 6 -3 44 -46 83 -96 161 -207 381 -436 579 -601 473 -394
952 -614 1465 -672 135 -15 491 -6 620 16 474 80 950 285 1523 654 930 599
1886 1499 2717 2557 180 230 204 249 229 186z M1203 9485 c-29 -8 -72 -24 -95
-36 -61 -31 -150 -125 -184 -194 -27 -56 -29 -68 -29 -175 0 -106 2 -120 28
-172 106 -216 352 -302 564 -198 144 71 233 217 233 382 0 66 -12 75 -28 21
-16 -54 -61 -104 -123 -138 -47 -26 -64 -30 -129 -30 -80 0 -126 17 -188 70
-38 32 -80 115 -88 176 -9 67 17 146 67 203 42 47 103 86 136 86 15 0 16 2 3
10 -21 14 -106 11 -167 -5z M1430 9486 c0 -2 30 -18 66 -36 36 -18 78 -46 94
-62 35 -35 90 -114 90 -131 0 -7 7 -21 15 -31 14 -19 15 -17 15 20 0 84 -71
183 -160 223 -38 18 -120 29 -120 17z M3810 9478 c19 -5 53 -14 75 -20 159
-42 240 -79 349 -162 33 -25 68 -47 78 -49 30 -8 -20 49 -87 100 -117 89 -269
144 -395 142 -53 -1 -54 -1 -20 -11z M1965 8655 c6 -2 57 -18 115 -35 110 -33
211 -83 258 -127 38 -36 101 -77 108 -70 3 3 -25 36 -62 74 -80 79 -166 126
-269 148 -59 12 -182 21 -150 10z M2721 8379 c-35 -4 -97 -18 -138 -30 -66
-20 -74 -25 -68 -43 3 -12 8 -33 11 -48 l6 -26 59 38 c64 41 165 85 222 95 20
4 37 11 37 16 0 10 -39 10 -129 -2z M9449 5601 c-16 -3 -42 -26 -64 -56 -22
-29 -28 -41 -14 -28 29 26 126 73 154 73 11 0 27 5 35 10 17 11 -67 12 -111 1z
M9746 5548 c125 -65 143 -80 191 -154 68 -104 108 -217 100 -286 -8 -65 -60
-163 -116 -217 -202 -197 -543 -132 -664 126 -57 124 -47 289 26 398 15 22 34
51 44 65 9 14 -9 0 -41 -30 -74 -71 -131 -181 -140 -272 -13 -119 24 -243 109
-367 36 -51 45 -90 23 -92 -42 -2 -74 -10 -119 -31 l-52 -23 38 -37 c80 -77
218 -128 350 -128 251 0 466 163 539 409 19 63 22 276 6 362 -31 165 -183 309
-340 325 l-55 5 101 -53z M9195 3924 c-334 -84 -568 -418 -526 -751 22 -170
80 -292 199 -412 83 -85 85 -78 -33 -135 -110 -54 -183 -70 -315 -70 -97 1
-128 5 -195 27 -155 51 -301 163 -391 298 l-47 70 -22 -38 c-13 -21 -38 -46
-55 -56 -17 -11 -29 -21 -27 -24 3 -2 31 -11 64 -19 32 -9 94 -33 138 -54 366
-178 501 -589 313 -953 -63 -122 -173 -229 -298 -290 -207 -101 -409 -102
-615 -2 -190 91 -324 261 -374 474 l-18 76 -27 -83 c-14 -46 -26 -90 -26 -98
0 -29 -30 -74 -49 -74 -11 0 -47 7 -81 16 -34 8 -64 13 -67 10 -9 -9 26 -129
57 -195 150 -317 498 -513 839 -472 404 50 708 359 745 761 l7 75 92 22 c165
41 327 132 449 255 68 68 163 201 191 270 l15 37 59 -17 c80 -22 248 -21 333
2 245 66 432 252 500 497 23 84 28 310 9 415 -25 140 -134 300 -253 369 -112
65 -165 78 -356 81 -132 3 -190 0 -235 -12z m357 -25 c143 -40 225 -80 287
-139 90 -86 142 -184 177 -330 26 -106 27 -135 9 -196 -68 -233 -257 -386
-495 -401 -368 -23 -659 320 -575 676 45 191 202 356 386 405 76 20 85 20 211
-15z m-552 -1034 c0 5 23 -13 50 -40 28 -27 50 -57 50 -66 0 -21 -26 -43 -43
-36 -17 6 -77 119 -77 143 0 16 2 17 10 4 5 -8 10 -11 10 -5z m-302 -507 c-4
-27 -91 -88 -125 -88 -27 0 -45 31 -41 68 3 24 8 28 53 33 106 12 117 11 113
-13z"/>
</g>
</svg>
