<?xml version="1.0" standalone="no"?>
<!DOCTYPE svg PUBLIC "-//W3C//DTD SVG 20010904//EN"
 "http://www.w3.org/TR/2001/REC-SVG-20010904/DTD/svg10.dtd">
<svg version="1.0" xmlns="http://www.w3.org/2000/svg"
 width="2048.000000pt" height="2048.000000pt" viewBox="0 0 2048.000000 2048.000000"
 preserveAspectRatio="xMidYMid meet">
<metadata>
Created by potrace 1.13, written by Peter Selinger 2001-2015
</metadata>
<g transform="translate(0.000000,2048.000000) scale(0.192120,-0.192120)"
fill="#000000" stroke="none">
<path d="M2935 10175 c-319 -59 -597 -280 -720 -574 -71 -168 -69 -147 -73
-768 l-3 -562 -387 -4 c-415 -4 -447 -7 -631 -63 -449 -137 -723 -463 -780
-929 -8 -63 -11 -935 -11 -2955 0 -2501 2 -2878 15 -2965 89 -587 437 -948
980 -1014 127 -16 7883 -16 8010 0 543 66 891 427 980 1014 13 87 15 469 15
2965 0 2020 -3 2892 -11 2955 -49 399 -251 691 -594 855 -126 60 -238 96 -383
121 -98 16 -163 19 -468 19 l-353 0 -3 563 c-3 493 -6 569 -21 619 -68 232
-174 393 -346 530 -86 69 -243 148 -356 180 l-80 23 -2355 2 c-1895 1 -2369
-1 -2425 -12z m4700 -296 c112 -14 213 -45 302 -94 88 -49 208 -170 248 -250
l30 -60 3 -497 3 -498 -126 0 -125 0 0 45 c0 33 -4 45 -15 45 -13 0 -15 42
-15 322 0 204 -4 335 -11 357 -27 88 -73 162 -148 238 -89 91 -152 128 -241
142 -87 14 -4316 15 -4414 1 -95 -14 -155 -50 -258 -152 -85 -84 -117 -133
-147 -227 -7 -22 -11 -150 -11 -357 0 -317 0 -324 -20 -324 -17 0 -20 -7 -20
-45 l0 -45 -125 0 -125 0 0 478 0 478 34 69 c44 92 100 161 177 219 112 85
242 137 380 155 101 13 4516 13 4624 0z m-25 -537 c19 -9 45 -32 57 -51 l23
-34 0 -493 0 -494 -2360 0 -2360 0 0 494 0 493 23 34 c12 19 38 42 57 51 33
17 163 18 2280 18 2117 0 2247 -1 2280 -18z m-4675 -1129 c13 -124 45 -183
113 -204 22 -7 139 -14 295 -16 256 -5 257 -5 257 16 l0 21 1720 0 1720 0 0
-21 c0 -21 1 -21 268 -16 160 3 282 9 304 16 68 21 100 80 113 204 l6 57 378
0 378 0 6 -70 c7 -87 34 -149 76 -173 31 -18 31 -18 31 4 0 16 4 19 18 14 9
-4 159 -11 332 -16 283 -7 326 -10 420 -32 266 -63 447 -175 569 -355 56 -83
77 -128 105 -228 40 -142 46 -222 46 -630 0 -249 4 -384 10 -384 6 0 10 -20
10 -44 0 -24 3 -46 7 -48 14 -6 75 -129 68 -136 -9 -9 -1691 -9 -1700 0 -3 3
5 29 19 57 14 28 26 57 26 66 0 8 5 15 10 15 6 0 10 46 10 119 0 111 -2 124
-31 187 -46 104 -141 210 -230 258 -91 50 -139 56 -459 56 -322 0 -367 -6
-464 -58 -78 -42 -184 -154 -229 -242 -37 -74 -37 -76 -37 -197 0 -68 4 -123
9 -123 5 0 12 -12 15 -26 4 -14 19 -43 33 -65 14 -22 23 -43 19 -47 -9 -9
-3682 -10 -3691 0 -3 3 5 29 19 57 14 28 26 57 26 66 0 8 5 15 10 15 6 0 10
46 10 119 0 111 -2 124 -31 187 -46 104 -141 210 -230 258 -91 50 -139 56
-459 56 -322 0 -367 -6 -464 -58 -78 -42 -184 -154 -229 -242 -37 -74 -37 -76
-37 -197 0 -68 4 -123 9 -123 5 0 12 -12 15 -26 4 -14 19 -43 33 -65 14 -22
23 -43 19 -47 -9 -9 -1591 -16 -1663 -7 l-53 6 30 57 c16 31 30 63 30 70 0 6
5 12 10 12 6 0 10 20 10 45 0 25 4 45 9 45 6 0 11 179 14 438 3 409 5 442 25
522 29 109 53 167 110 260 136 220 401 365 732 400 152 16 610 18 610 3 0 -37
75 10 101 64 11 23 23 73 26 112 l6 71 378 0 378 0 6 -57z m291 -1520 c67 -36
101 -70 131 -131 l28 -57 3 -447 3 -448 1939 0 1939 0 3 448 3 447 28 57 c30
61 64 95 131 131 40 21 49 22 396 22 347 0 356 -1 396 -22 67 -36 101 -70 131
-131 l28 -57 3 -447 3 -448 882 0 c485 0 892 -3 904 -6 21 -6 21 -7 -12 -72
-19 -37 -38 -78 -44 -92 -8 -18 -12 -609 -14 -1985 -3 -1457 -6 -1976 -15
-2024 -100 -536 -341 -784 -810 -831 -75 -8 -1276 -10 -4027 -8 l-3920 3 -90
21 c-259 61 -437 185 -543 381 -60 110 -90 198 -118 347 l-24 129 0 1979 c0
1312 -3 1978 -10 1978 -5 0 -10 6 -10 14 0 7 -17 45 -39 84 -37 68 -38 70 -17
76 11 3 418 6 904 6 l882 0 0 420 c0 258 4 438 11 469 20 96 88 171 186 207
30 11 109 13 378 11 329 -2 341 -3 381 -24z m-1206 -818 l0 -125 -657 0 c-362
0 -682 3 -710 6 l-53 7 0 118 0 119 710 0 710 0 0 -125z m5000 0 l0 -125
-1700 0 -1700 0 0 125 0 125 1700 0 1700 0 0 -125z m3020 0 l0 -125 -710 0
-710 0 0 125 0 125 710 0 710 0 0 -125z M2554 6161 c-2 -2 -4 -127 -4 -278 l0
-273 -138 0 -138 0 4 -167 c3 -193 14 -233 74 -299 21 -23 62 -52 91 -65 51
-24 56 -24 387 -24 331 0 336 0 387 24 29 13 70 42 91 65 60 66 71 106 74 299
l4 167 -138 0 -138 0 -2 275 -3 276 -273 2 c-151 1 -276 0 -278 -2z m316 -376
c0 -82 3 -105 14 -105 8 0 15 -16 18 -44 3 -24 11 -50 17 -57 6 -8 25 -35 42
-60 27 -42 54 -70 148 -150 39 -34 33 -62 -20 -83 -32 -13 -83 -16 -265 -16
-234 0 -271 6 -304 45 -14 16 -11 21 25 49 78 61 162 154 181 200 11 25 22 46
27 46 4 0 7 16 7 35 0 24 5 35 15 35 12 0 15 18 15 105 l0 105 40 0 40 0 0
-105z M7554 6161 c-2 -2 -4 -127 -4 -278 l0 -273 -138 0 -138 0 4 -167 c3
-193 14 -233 74 -299 21 -23 62 -52 91 -65 51 -24 56 -24 387 -24 331 0 336 0
387 24 29 13 70 42 91 65 60 66 71 106 74 299 l4 167 -138 0 -138 0 -2 275 -3
276 -273 2 c-151 1 -276 0 -278 -2z m316 -376 c0 -82 3 -105 14 -105 8 0 15
-16 18 -44 3 -24 11 -50 17 -57 6 -8 25 -35 42 -60 27 -42 54 -70 148 -150 39
-34 33 -62 -20 -83 -32 -13 -83 -16 -265 -16 -234 0 -271 6 -304 45 -14 16
-11 21 25 49 78 61 162 154 181 200 11 25 22 46 27 46 4 0 7 16 7 35 0 24 5
35 15 35 12 0 15 18 15 105 l0 105 40 0 40 0 0 -105z M1552 4449 c-91 -11
-169 -65 -272 -185 l-25 -29 -3 -260 c-3 -260 0 -311 18 -300 6 4 13 -1 16
-10 10 -26 81 -57 147 -64 4 -1 7 -111 7 -246 l0 -245 3890 0 3890 0 0 245 0
245 25 5 c14 3 36 7 50 10 30 6 82 53 101 91 17 32 21 514 4 514 -5 0 -10 7
-10 16 0 22 -126 150 -176 180 -25 15 -69 28 -115 34 -92 12 -7456 11 -7547
-1z m7668 -509 l0 -280 -3890 0 -3890 0 0 280 0 280 3890 0 3890 0 0 -280z
m-170 -612 l0 -68 -3730 0 -3730 0 0 68 0 67 3730 0 3730 0 0 -67z M1498 2771
c-61 -12 -116 -57 -218 -177 l-25 -29 -3 -250 c-3 -252 1 -321 19 -310 5 4 12
-1 15 -10 10 -26 81 -57 147 -64 4 -1 7 -111 7 -246 l0 -245 3890 0 3890 0 0
245 0 245 28 5 c15 4 36 8 47 10 27 6 95 69 95 89 0 9 5 16 10 16 6 0 10 90
10 250 0 140 -4 250 -9 250 -5 0 -12 11 -15 24 -8 31 -130 157 -176 182 -34
19 -131 19 -3855 20 -2101 1 -3837 -1 -3857 -5z m7722 -498 l0 -278 -3890 0
-3890 0 0 278 0 277 3890 0 3890 0 0 -277z m-170 -613 l0 -70 -3730 0 -3730 0
0 70 0 70 3730 0 3730 0 0 -70z"/>
</g>
</svg>
