<?xml version="1.0" standalone="no"?>
<!DOCTYPE svg PUBLIC "-//W3C//DTD SVG 20010904//EN"
 "http://www.w3.org/TR/2001/REC-SVG-20010904/DTD/svg10.dtd">
<svg version="1.0" xmlns="http://www.w3.org/2000/svg"
 width="2048.000000pt" height="2048.000000pt" viewBox="0 0 2048.000000 2048.000000"
 preserveAspectRatio="xMidYMid meet">
<metadata>
Created by potrace 1.13, written by Peter Selinger 2001-2015
</metadata>
<g transform="translate(0.000000,2048.000000) scale(0.192120,-0.192120)"
fill="#000000" stroke="none">
<path d="M1441 5330 l0 -5005 278 281 279 282 278 -279 279 -280 277 279 277
278 278 -278 278 -278 277 278 278 277 277 -277 278 -278 277 277 278 278 278
-278 277 -277 278 278 277 277 278 -277 277 -278 278 278 278 278 277 -278
277 -279 279 280 279 279 278 -281 278 -282 0 5005 0 5005 -277 -281 -277
-281 -285 279 -285 278 -80 -82 c-44 -46 -166 -171 -271 -279 l-192 -195 -229
244 c-125 134 -242 260 -259 280 l-31 36 -184 -174 c-101 -96 -234 -223 -295
-283 l-110 -107 -260 271 c-142 150 -262 277 -266 282 -4 6 -108 -87 -243
-219 -131 -126 -262 -251 -293 -279 l-55 -49 -271 278 -271 278 -45 -47 c-25
-26 -153 -151 -284 -278 l-239 -232 -271 277 -271 278 -285 -279 -285 -280
-281 280 -281 280 -194 -198 c-107 -109 -230 -235 -273 -280 l-78 -81 -279
281 -278 282 0 -5005z m1154 4701 c17 -10 96 -81 176 -158 294 -279 369 -281
654 -12 166 156 209 189 245 189 37 0 86 -39 215 -170 118 -120 165 -157 247
-195 122 -57 189 -25 441 209 87 80 169 149 182 152 49 12 79 -8 234 -159 126
-123 170 -159 230 -190 40 -20 88 -37 106 -37 85 0 179 59 351 221 65 62 137
125 158 141 70 51 79 47 260 -129 131 -128 175 -165 235 -195 147 -76 199 -54
494 212 206 185 183 185 381 -8 167 -164 197 -188 273 -220 66 -28 96 -28 162
3 71 33 155 102 274 225 106 109 147 140 189 140 32 0 95 -49 198 -155 102
-104 185 -169 265 -206 57 -27 74 -31 117 -26 61 8 131 48 229 131 51 43 79
60 104 62 l35 2 0 -4509 c0 -2480 -4 -4509 -8 -4509 -4 0 -13 5 -20 12 -9 9
-12 5 -12 -20 0 -18 -4 -32 -9 -32 -5 0 -31 19 -57 43 -153 136 -215 171 -293
165 -79 -6 -139 -48 -327 -225 -86 -82 -165 -153 -177 -160 -54 -31 -68 -22
-284 182 -190 179 -238 209 -324 203 -50 -4 -69 -11 -131 -54 -40 -27 -138
-113 -219 -191 -81 -78 -158 -145 -171 -148 -45 -12 -91 21 -261 183 -182 175
-238 212 -316 212 -89 -1 -162 -52 -382 -266 -71 -69 -138 -126 -153 -130 -46
-11 -85 16 -235 161 -214 206 -257 235 -343 235 -85 -1 -161 -54 -379 -266
-71 -69 -138 -126 -153 -130 -46 -11 -84 15 -245 170 -179 173 -240 217 -311
224 -96 9 -171 -39 -375 -238 -158 -154 -173 -164 -221 -155 -29 5 -66 35
-187 153 -207 201 -267 242 -353 242 -84 0 -143 -41 -352 -243 -78 -75 -154
-142 -169 -148 -52 -19 -80 -2 -227 140 -217 210 -276 251 -361 251 -71 0
-141 -41 -268 -157 -32 -29 -67 -53 -78 -53 -19 0 -19 51 -19 4530 0 2902 3
4530 10 4530 11 0 58 -33 151 -103 96 -74 135 -91 204 -91 89 -1 150 39 325
209 80 78 156 149 170 158 32 22 68 21 105 -2z M5180 9210 c-171 -24 -368
-105 -506 -208 -305 -227 -470 -575 -451 -951 38 -743 781 -1237 1483 -987
351 126 614 420 704 787 29 119 36 308 16 429 -73 447 -394 794 -835 906 -109
28 -302 39 -411 24z m415 -239 c98 -26 228 -87 310 -146 128 -91 249 -246 303
-388 21 -56 22 -73 22 -326 l-1 -266 -32 -85 c-56 -146 -195 -320 -325 -407
-315 -209 -743 -215 -1062 -15 -179 113 -319 287 -379 474 -21 63 -22 82 -19
321 l3 254 52 104 c128 255 355 427 654 494 98 22 369 14 474 -14z M2715 6136
c-68 -31 -131 -104 -151 -174 -36 -124 17 -251 135 -320 l46 -27 1455 -3
c1613 -3 1506 -7 1588 64 149 127 117 370 -60 458 l-52 26 -1455 0 -1456 0
-50 -24z m2915 -199 c32 -11 35 -15 35 -51 0 -31 -6 -43 -28 -60 l-28 -21
-1394 0 c-1389 0 -1394 0 -1421 21 -38 28 -48 47 -41 76 5 19 17 29 44 36 59
15 2788 14 2833 -1z M6605 6136 c-93 -43 -165 -153 -165 -251 0 -93 68 -202
154 -248 l41 -22 640 0 640 0 46 27 c55 32 103 84 125 136 22 49 23 165 2 213
-24 55 -87 119 -143 145 l-50 24 -620 0 -620 0 -50 -24z m1247 -198 c38 -11
39 -13 36 -51 -2 -30 -10 -45 -31 -61 -28 -21 -35 -21 -580 -21 -591 0 -601 1
-627 50 -21 39 -6 71 37 83 57 15 1115 15 1165 0z M2748 5040 c-141 -42 -225
-201 -184 -342 21 -72 87 -147 155 -177 l50 -21 1463 2 1463 3 46 27 c91 53
142 141 142 243 0 102 -51 190 -142 243 l-46 27 -1460 2 c-803 1 -1472 -2
-1487 -7z m2882 -213 c32 -11 35 -15 35 -51 0 -31 -6 -43 -28 -60 l-28 -21
-1382 0 c-760 0 -1394 3 -1409 8 -56 15 -87 78 -54 106 8 7 27 16 43 21 47 14
2781 11 2823 -3z M6640 5041 c-111 -35 -200 -152 -200 -266 0 -98 72 -208 165
-251 l50 -24 620 0 620 0 50 24 c56 26 119 90 143 145 21 48 20 164 -2 213
-22 52 -70 104 -125 136 l-46 27 -625 2 c-344 1 -636 -2 -650 -6z m1206 -212
c45 -12 45 -12 42 -52 -2 -30 -10 -45 -31 -61 -28 -21 -35 -21 -585 -21 -514
0 -560 1 -589 18 -35 19 -52 60 -36 86 23 37 63 40 616 40 369 1 552 -3 583
-10z M2775 3378 c-92 -13 -183 -97 -211 -196 -37 -125 22 -258 140 -320 l51
-27 2575 0 2575 0 51 27 c119 62 177 195 140 320 -20 69 -87 147 -151 177
l-46 22 -2538 2 c-1396 1 -2559 -1 -2586 -5z m5078 -219 c37 -10 38 -11 35
-52 -3 -35 -8 -44 -38 -62 -35 -20 -37 -20 -2380 -23 -1290 -2 -2414 0 -2498
3 -133 6 -156 10 -185 29 -26 18 -32 29 -32 56 0 31 4 36 35 47 47 16 5005 18
5063 2z M6624 2257 c-78 -30 -138 -92 -166 -171 -36 -106 -14 -201 65 -281 89
-88 61 -85 752 -85 668 0 655 -1 734 67 82 69 117 184 87 285 -20 70 -83 143
-151 174 l-50 24 -620 -1 c-449 0 -629 -4 -651 -12z m1229 -208 c34 -9 37 -13
37 -48 0 -51 -24 -70 -101 -81 -83 -12 -955 -12 -1038 0 -69 10 -111 38 -111
74 0 31 13 46 46 56 43 12 1120 12 1167 -1z"/>
</g>
</svg>
