<?xml version="1.0" standalone="no"?>
<!DOCTYPE svg PUBLIC "-//W3C//DTD SVG 20010904//EN"
 "http://www.w3.org/TR/2001/REC-SVG-20010904/DTD/svg10.dtd">
<svg version="1.0" xmlns="http://www.w3.org/2000/svg"
 width="2048.000000pt" height="2048.000000pt" viewBox="0 0 2048.000000 2048.000000"
 preserveAspectRatio="xMidYMid meet">
<metadata>
Created by potrace 1.13, written by Peter Selinger 2001-2015
</metadata>
<g transform="translate(0.000000,2048.000000) scale(0.192120,-0.192120)"
fill="#000000" stroke="none">
<path d="M3226 10320 c-412 -65 -749 -344 -889 -737 -78 -216 -79 -497 -3
-719 111 -327 376 -592 694 -694 l86 -28 -3 -139 c-6 -317 58 -608 199 -898
65 -134 170 -299 253 -397 l55 -65 -15 -46 c-14 -41 -13 -54 1 -123 8 -43 14
-78 13 -79 -1 -1 -38 -14 -82 -30 -306 -110 -659 -362 -887 -634 -299 -357
-476 -771 -559 -1311 -30 -190 -32 -532 -6 -682 30 -174 90 -336 172 -464 71
-110 226 -248 321 -284 l29 -12 -21 -16 c-12 -9 -48 -37 -79 -62 -106 -82
-206 -210 -279 -357 -211 -421 -153 -958 148 -1377 83 -116 237 -269 351 -351
98 -71 293 -172 395 -206 200 -65 449 -86 641 -54 256 42 464 148 639 323 214
216 324 476 337 797 7 195 64 347 167 451 103 102 225 144 426 144 140 0 221
-15 308 -58 159 -77 282 -293 282 -496 0 -321 121 -618 340 -836 182 -183 409
-295 667 -330 114 -16 348 -8 450 15 603 133 1070 625 1168 1230 30 182 14
401 -41 577 -63 203 -214 424 -367 542 l-77 59 74 43 c182 106 311 277 390
514 56 172 70 274 70 520 -1 779 -312 1497 -843 1941 -187 157 -458 317 -644
381 -64 22 -67 25 -62 48 22 83 25 140 11 181 l-14 41 56 67 c82 96 185 259
252 396 141 289 205 580 199 899 -3 115 0 140 11 143 303 79 562 289 705 573
80 159 117 316 117 500 0 382 -182 717 -505 931 -103 67 -202 111 -336 147
-85 22 -115 25 -266 25 -151 0 -181 -3 -267 -26 -251 -67 -467 -209 -612 -401
l-56 -74 -57 27 c-327 157 -799 232 -1191 191 -253 -27 -543 -106 -726 -197
-42 -21 -50 -23 -57 -10 -26 45 -108 143 -166 198 -136 126 -304 217 -492 266
-108 28 -321 39 -425 23z m388 -260 c124 -32 228 -88 412 -224 93 -69 194
-138 224 -153 79 -40 131 -37 322 21 259 77 413 103 673 113 312 11 567 -25
878 -123 140 -45 212 -49 280 -15 27 13 124 80 215 149 272 204 401 254 652
256 120 0 159 -3 230 -22 246 -66 481 -251 580 -457 64 -135 70 -166 70 -378
0 -210 -9 -263 -64 -382 -35 -74 -105 -173 -153 -215 -93 -83 -160 -132 -258
-190 -156 -92 -285 -227 -323 -339 -7 -19 -12 -67 -12 -108 0 -41 -6 -102 -14
-136 -8 -34 -19 -93 -26 -132 -41 -253 -131 -497 -254 -690 -76 -119 -146
-265 -146 -305 0 -36 11 -60 52 -112 l29 -37 -42 -46 c-23 -25 -78 -76 -123
-114 -375 -317 -850 -503 -1351 -530 l-120 -6 2 -30 c30 -375 92 -927 173
-1542 28 -208 58 -438 67 -510 16 -128 25 -155 38 -113 3 10 28 52 54 92 152
232 398 387 680 428 l81 12 0 73 c0 373 -110 928 -245 1234 -19 42 -32 77 -31
78 1 2 34 -11 72 -27 98 -41 197 -56 280 -42 262 43 451 292 483 638 9 104 28
184 43 184 4 0 8 -6 8 -13 0 -21 86 -159 125 -201 41 -44 63 -60 186 -134 316
-190 596 -495 759 -827 107 -217 178 -434 219 -664 19 -101 21 -155 21 -450 0
-401 -6 -435 -115 -650 -19 -39 -44 -105 -56 -148 -30 -109 -31 -110 -60 -66
-34 53 -74 69 -245 99 -194 34 -540 44 -704 20 -77 -11 -106 -12 -112 -3 -29
47 -61 181 -66 273 -8 179 46 303 199 454 53 52 102 106 110 120 17 32 18 410
1 555 -30 251 -87 517 -157 733 -29 91 -42 116 -71 141 -28 25 -44 31 -81 31
-57 0 -105 -28 -127 -74 -22 -47 -21 -59 24 -208 91 -301 138 -575 147 -860
l6 -188 -74 -77 c-117 -123 -190 -247 -231 -390 -43 -150 -28 -387 34 -531 10
-24 18 -47 18 -52 0 -5 -24 -16 -52 -25 -86 -28 -247 -109 -343 -172 -242
-160 -431 -381 -581 -676 -32 -64 -61 -117 -64 -117 -3 0 -17 19 -32 43 -88
137 -190 175 -448 164 -208 -8 -281 -43 -350 -165 -13 -23 -26 -42 -30 -42 -3
0 -23 33 -45 73 -89 167 -191 314 -309 447 -164 187 -419 366 -623 440 -35 12
-63 26 -63 31 0 4 9 27 19 52 56 131 74 382 37 517 -40 145 -120 281 -239 407
l-70 74 6 187 c9 285 56 559 147 860 45 149 46 161 24 208 -37 78 -151 99
-215 38 -65 -62 -178 -508 -221 -869 -17 -146 -16 -523 1 -555 8 -14 57 -68
110 -120 154 -151 207 -275 198 -454 -4 -95 -44 -257 -65 -270 -4 -2 -50 2
-102 10 -128 20 -433 20 -570 0 -140 -20 -287 -53 -330 -74 -19 -9 -46 -34
-59 -55 -30 -45 -32 -43 -61 77 -12 48 -38 122 -57 164 -98 215 -103 243 -103
623 0 341 9 429 65 646 96 368 288 719 528 963 127 129 227 211 402 328 72 48
149 106 173 131 43 43 132 184 132 208 0 7 4 13 8 13 15 0 34 -80 43 -184 26
-284 158 -505 356 -598 127 -60 260 -59 407 2 38 16 71 28 74 26 2 -2 -8 -27
-22 -54 -39 -76 -112 -298 -151 -457 -59 -238 -105 -590 -105 -801 l0 -72 85
-12 c291 -41 562 -222 700 -469 22 -39 42 -71 45 -71 6 0 43 274 125 920 60
473 107 900 138 1270 l2 25 -125 6 c-480 25 -936 200 -1315 506 -55 44 -121
103 -147 131 l-48 51 35 51 c57 84 43 161 -57 316 -95 147 -187 330 -227 449
-62 186 -101 414 -101 599 0 77 -4 97 -27 145 -31 62 -142 185 -218 241 -27
20 -88 58 -135 84 -219 122 -333 258 -409 488 -21 63 -22 81 -19 290 l4 223
38 88 c70 160 163 278 288 364 130 90 254 141 393 163 91 14 278 4 369 -20z
m396 -4015 c99 -63 295 -165 405 -212 48 -20 186 -64 305 -97 53 -14 234 -48
332 -61 l46 -6 5 -67 c4 -65 -13 -212 -112 -977 -45 -342 -57 -401 -89 -433
l-21 -21 -76 50 c-97 63 -195 113 -282 142 -37 12 -74 26 -80 30 -22 14 -17
296 7 435 24 136 75 346 125 515 37 125 44 204 23 253 -20 46 -80 119 -117
145 -31 21 -43 23 -105 19 -39 -2 -109 -5 -156 -5 -76 0 -92 3 -150 32 -80 39
-109 68 -154 156 -29 54 -36 80 -36 124 0 40 3 54 13 50 6 -2 59 -35 117 -72z
m2753 38 c15 -78 -59 -220 -146 -279 -71 -49 -136 -60 -271 -47 -87 9 -117 9
-141 -1 -35 -15 -94 -75 -136 -137 -41 -63 -39 -125 10 -297 109 -378 131
-502 131 -736 0 -100 -4 -186 -8 -192 -4 -5 -36 -21 -72 -33 -87 -31 -167 -72
-271 -137 -47 -30 -91 -54 -96 -54 -22 0 -42 39 -57 110 -8 41 -35 237 -61
435 -25 198 -59 459 -75 581 -17 121 -30 254 -30 296 l0 75 93 12 c143 18 280
48 422 92 72 22 135 41 140 43 90 27 373 175 495 258 30 20 58 37 61 37 4 1 9
-11 12 -26z m-3268 -3023 c491 -84 864 -377 1131 -890 18 -34 43 -64 67 -79
l37 -25 -27 -17 c-16 -9 -47 -28 -70 -43 -24 -14 -54 -44 -67 -65 -30 -47 -56
-142 -56 -204 0 -57 -25 -202 -46 -264 -9 -26 -32 -82 -52 -123 l-37 -75 -5
275 c-5 255 -7 280 -29 340 -118 332 -354 590 -648 708 -159 64 -222 76 -398
76 -146 0 -168 -3 -248 -27 -286 -88 -462 -254 -563 -532 -15 -42 -19 -93 -24
-320 l-5 -270 -40 90 -40 90 0 315 0 315 38 75 c20 42 62 108 92 148 30 41 55
76 55 78 0 3 18 32 41 65 83 123 96 183 55 256 l-24 41 32 5 c17 2 67 14 111
26 205 54 507 67 720 31z m4183 -1 c53 -5 146 -21 207 -35 60 -13 118 -24 127
-24 16 0 16 -3 -2 -32 -27 -44 -26 -117 1 -171 12 -23 50 -81 85 -128 35 -48
64 -92 64 -98 0 -6 11 -28 24 -49 14 -20 41 -76 60 -124 l36 -87 0 -300 c0
-326 2 -313 -62 -447 l-23 -49 -5 280 -5 280 -34 84 c-47 117 -141 252 -223
321 -78 66 -222 141 -328 170 -98 27 -274 37 -377 20 -312 -50 -573 -225 -771
-518 -89 -133 -104 -159 -140 -257 -24 -67 -26 -82 -31 -340 l-6 -270 -37 77
c-47 95 -77 211 -88 331 -9 104 -39 217 -67 256 -11 14 -49 47 -86 72 l-66 46
37 24 c30 19 49 49 102 154 161 322 353 522 639 665 150 76 355 135 531 153
80 9 348 6 438 -4z m-4207 -544 c354 -75 669 -390 744 -744 8 -40 15 -121 15
-180 0 -205 -58 -350 -195 -486 -136 -137 -288 -198 -490 -198 -144 0 -258 27
-390 93 -332 164 -547 495 -548 845 -1 201 61 354 197 490 92 91 183 145 298
175 92 24 267 26 369 5z m4083 -5 c120 -30 209 -82 301 -175 137 -136 198
-288 198 -490 0 -144 -27 -258 -93 -390 -229 -463 -776 -679 -1185 -467 -96
49 -218 172 -268 269 -54 103 -78 206 -78 333 -1 257 100 482 303 675 134 128
290 214 450 249 98 22 280 20 372 -4z M3230 9751 c-88 -28 -154 -66 -218 -126
-185 -171 -232 -423 -122 -650 59 -123 173 -228 299 -276 l52 -19 17 42 c27
72 117 242 174 330 85 130 210 279 318 380 77 71 97 95 90 107 -17 33 -115
123 -169 155 -123 74 -312 99 -441 57z m249 -247 c20 -18 6 -45 -82 -163 -40
-52 -103 -142 -142 -199 -38 -58 -77 -110 -86 -115 -25 -16 -66 0 -91 36 -20
28 -23 45 -26 154 -3 118 -3 122 24 162 62 94 212 157 344 143 25 -2 51 -11
59 -18z M7120 9751 c-114 -37 -204 -96 -275 -181 l-34 -41 128 -127 c192 -191
339 -399 437 -622 47 -106 44 -104 129 -66 208 95 341 323 322 552 -20 228
-180 421 -406 488 -75 22 -229 21 -301 -3z m281 -247 c63 -20 131 -65 163
-107 27 -36 27 -36 24 -181 -3 -137 -4 -146 -27 -170 -30 -32 -61 -33 -88 -3
-12 12 -68 87 -125 167 -57 80 -121 168 -142 197 -26 37 -36 60 -34 80 3 25 8
29 48 34 58 7 123 1 181 -17z M4428 8376 c-136 -37 -218 -155 -205 -294 6 -73
33 -127 89 -179 143 -131 377 -73 445 110 21 57 16 156 -11 212 -56 119 -196
185 -318 151z M6107 8379 c-134 -32 -216 -136 -217 -270 0 -150 102 -263 249
-276 108 -10 222 53 274 151 32 61 31 183 -3 249 -55 109 -190 174 -303 146z
M4890 7779 c-25 -4 -95 -28 -156 -53 -62 -24 -176 -63 -255 -86 -79 -22 -162
-52 -184 -65 -109 -65 -234 -232 -280 -373 -14 -43 -16 -83 -13 -225 l3 -172
41 -85 c75 -157 242 -339 404 -442 250 -159 619 -252 935 -234 612 34 1093
328 1238 756 27 82 28 91 25 245 -3 160 -3 160 -41 245 -44 100 -144 232 -208
274 -24 15 -87 41 -139 58 -118 36 -297 95 -413 137 -96 34 -150 39 -202 17
-41 -17 -69 -57 -60 -86 3 -11 9 -20 13 -20 33 0 277 -46 352 -66 103 -28 251
-93 324 -143 60 -42 142 -126 172 -177 71 -120 88 -280 44 -419 -103 -330
-455 -611 -885 -706 -128 -28 -378 -36 -510 -15 -196 30 -399 107 -546 207
-95 64 -224 193 -284 284 -260 395 -102 776 390 943 95 33 321 82 374 82 24 0
32 5 37 25 12 47 -37 93 -106 100 -14 1 -45 -1 -70 -6z M5085 7586 c-93 -43
-139 -121 -133 -226 4 -61 9 -75 97 -225 51 -88 102 -170 114 -182 59 -64 186
-85 270 -44 61 29 73 45 178 226 88 150 93 164 97 225 6 105 -40 183 -133 226
-47 22 -61 24 -245 24 -184 0 -198 -2 -245 -24z m333 -270 c7 -59 -62 -136
-108 -121 -33 10 -80 76 -80 111 0 18 6 35 13 38 6 2 48 4 92 3 l80 -2 3 -29z
M4725 6765 c-47 -46 -30 -79 85 -164 201 -149 444 -222 640 -192 160 25 317
103 441 221 77 72 84 96 44 135 -38 39 -66 32 -139 -32 -290 -258 -641 -251
-951 17 -54 46 -85 50 -120 15z"/>
</g>
</svg>
