<?xml version="1.0" standalone="no"?>
<!DOCTYPE svg PUBLIC "-//W3C//DTD SVG 20010904//EN"
 "http://www.w3.org/TR/2001/REC-SVG-20010904/DTD/svg10.dtd">
<svg version="1.0" xmlns="http://www.w3.org/2000/svg"
 width="2048.000000pt" height="2048.000000pt" viewBox="0 0 2048.000000 2048.000000"
 preserveAspectRatio="xMidYMid meet">
<metadata>
Created by potrace 1.13, written by Peter Selinger 2001-2015
</metadata>
<g transform="translate(0.000000,2048.000000) scale(0.192120,-0.192120)"
fill="#000000" stroke="none">
<path d="M2855 9384 c-418 -47 -857 -190 -1182 -385 -692 -414 -1093 -891
-1212 -1442 -11 -53 -26 -162 -32 -244 -24 -308 -12 -1850 16 -2051 60 -431
197 -651 550 -887 218 -146 462 -258 1045 -480 463 -177 614 -240 845 -354
207 -103 385 -213 515 -318 103 -83 281 -268 634 -658 658 -726 1050 -1077
1515 -1354 767 -458 1694 -617 2511 -431 1074 244 1863 1053 2110 2160 51 228
61 332 70 695 11 461 12 1306 1 1570 -11 242 -36 380 -102 549 -165 426 -543
798 -1096 1079 -437 222 -766 328 -1488 482 -749 160 -1122 287 -1480 504
-248 151 -483 346 -891 742 -299 291 -461 412 -730 547 -267 135 -522 215
-836 263 -178 28 -575 35 -763 13z m548 -165 c78 -11 579 -128 692 -161 222
-64 538 -244 739 -421 50 -44 188 -172 307 -286 296 -284 307 -293 459 -420
141 -118 260 -195 408 -263 48 -22 116 -53 151 -69 35 -16 110 -57 167 -90 57
-34 141 -76 186 -96 174 -73 510 -166 933 -258 434 -94 495 -109 700 -167 890
-253 1525 -681 1790 -1207 77 -153 113 -304 121 -506 8 -206 31 -369 65 -465
17 -47 35 -99 41 -117 9 -26 6 -53 -17 -150 -193 -819 -745 -1509 -1488 -1863
-269 -128 -522 -204 -847 -255 -142 -23 -577 -32 -747 -16 -599 56 -1168 258
-1673 594 -410 272 -728 566 -1345 1242 -548 599 -638 684 -885 840 -235 147
-493 262 -1169 522 -650 249 -829 335 -1081 519 -93 68 -228 202 -279 277 -48
70 -106 201 -127 285 l-19 73 37 72 c21 40 42 86 49 102 16 45 39 229 39 321
0 254 82 500 253 765 137 213 320 399 592 604 262 196 419 288 649 380 145 57
419 124 659 159 58 9 139 23 180 32 165 34 333 42 460 23z m-2643 -3210 c132
-106 155 -120 420 -241 141 -65 219 -105 318 -161 134 -76 165 -89 447 -197
791 -303 1004 -406 1375 -664 47 -33 116 -85 154 -115 91 -73 315 -317 422
-458 193 -253 530 -611 773 -820 79 -68 182 -159 230 -202 190 -175 350 -291
516 -374 489 -245 815 -400 895 -425 290 -94 623 -149 965 -159 529 -15 994
83 1450 307 299 147 521 306 761 545 141 141 251 272 360 430 79 115 109 155
118 155 3 0 6 -115 6 -255 0 -264 -3 -290 -51 -491 -23 -99 -95 -309 -144
-424 -118 -276 -323 -577 -532 -781 -585 -572 -1440 -823 -2349 -690 -629 93
-1203 349 -1731 774 -255 205 -578 525 -1002 992 -316 348 -544 581 -667 680
-139 113 -310 220 -519 325 -229 116 -402 190 -805 344 -449 172 -616 241
-800 332 -387 193 -574 366 -650 604 -45 142 -50 201 -50 626 0 222 3 404 8
404 4 0 41 -28 82 -61z M3160 9105 c-153 -43 -262 -158 -296 -313 -43 -192 51
-379 234 -465 62 -30 75 -32 172 -32 98 0 109 2 173 33 85 42 156 113 198 198
28 56 34 80 37 154 7 135 -33 235 -129 325 -104 97 -257 136 -389 100z m231
-171 c37 -11 67 -29 96 -59 l43 -42 0 -126 0 -125 -33 -44 c-18 -23 -55 -56
-82 -73 -42 -26 -59 -30 -136 -33 -77 -4 -95 -1 -141 21 -62 29 -86 48 -122
101 -24 36 -26 46 -26 156 l0 118 51 46 c30 27 71 52 98 60 63 20 185 20 252
0z M1920 8691 c-75 -24 -132 -75 -171 -151 -17 -34 -23 -62 -23 -115 0 -85 31
-154 95 -208 136 -117 343 -75 426 87 22 41 27 64 26 121 0 82 -18 128 -70
186 -52 58 -104 82 -188 85 -38 2 -81 0 -95 -5z m176 -176 c22 -14 24 -22 24
-88 0 -65 -3 -76 -24 -96 -53 -50 -165 -44 -211 11 -20 24 -25 40 -25 88 0 64
7 74 67 96 46 17 135 12 169 -11z M4245 8396 c-140 -66 -198 -232 -131 -370
100 -204 389 -205 493 -2 35 68 38 169 6 238 -62 136 -232 198 -368 134z m209
-159 c24 -16 26 -23 26 -83 0 -36 -5 -74 -10 -85 -25 -45 -117 -63 -184 -35
-49 20 -66 51 -66 117 0 61 14 83 66 99 44 14 138 6 168 -13z M1109 7777
c-361 -126 -387 -606 -41 -770 62 -29 75 -32 167 -32 117 1 181 21 256 82 204
167 213 462 19 637 -107 97 -269 130 -401 83z m270 -168 c28 -12 67 -39 86
-60 l35 -39 0 -123 0 -122 -34 -45 c-19 -26 -55 -57 -87 -75 -49 -27 -63 -30
-144 -30 -101 0 -157 19 -209 71 -60 60 -66 79 -66 205 l0 116 38 37 c43 44
97 74 155 86 64 14 169 4 226 -21z M3570 7783 c-64 -23 -142 -105 -165 -172
-48 -146 37 -311 183 -352 64 -18 162 -7 216 25 89 52 136 134 135 236 -1 75
-12 112 -55 172 -63 89 -206 131 -314 91z m188 -173 c31 -19 32 -22 32 -85 0
-57 -3 -69 -28 -96 -47 -53 -159 -51 -211 5 -19 20 -22 33 -19 92 3 68 4 69
38 86 49 25 145 24 188 -2z M4830 7653 c-14 -3 -57 -20 -96 -39 -193 -91 -280
-314 -203 -518 69 -186 283 -300 478 -255 122 28 247 133 292 246 34 82 33
232 0 316 -26 66 -110 163 -174 200 -82 48 -198 67 -297 50z m171 -163 c61
-12 139 -60 163 -101 12 -21 16 -55 16 -147 l0 -119 -35 -46 c-24 -32 -55 -55
-100 -78 -60 -29 -70 -31 -147 -27 -114 6 -175 38 -232 122 -24 36 -26 46 -26
153 0 101 2 117 22 143 64 87 198 127 339 100z M5950 7511 c-111 -34 -200
-152 -200 -266 0 -95 67 -203 154 -247 56 -29 150 -35 213 -14 198 66 250 334
91 470 -66 57 -177 81 -258 57z m170 -180 c21 -15 25 -27 28 -79 3 -71 -7 -95
-51 -122 -39 -24 -83 -25 -136 -4 -54 22 -71 51 -71 123 0 54 3 62 25 77 56
36 157 39 205 5z M2386 7099 c-93 -15 -191 -100 -216 -187 -63 -229 159 -428
376 -337 57 23 121 92 144 151 52 140 -4 287 -133 347 -62 30 -105 36 -171 26z
m133 -174 c34 -17 41 -33 41 -89 0 -91 -42 -138 -124 -140 -95 -2 -149 54
-144 146 3 47 7 55 37 75 41 28 144 32 190 8z M7066 6959 c-120 -20 -250 -120
-302 -233 -137 -300 109 -629 436 -584 174 23 325 174 348 345 30 229 -120
437 -343 473 -67 11 -70 11 -139 -1z m198 -175 c28 -10 66 -34 92 -58 l44 -43
0 -125 c0 -119 -1 -127 -26 -164 -33 -48 -46 -59 -109 -89 -40 -20 -66 -25
-127 -25 -119 0 -193 36 -249 119 -28 43 -29 49 -29 158 l0 113 34 38 c83 92
229 122 370 76z M3715 6816 c-169 -41 -289 -169 -318 -340 -30 -176 66 -357
231 -438 81 -40 205 -50 294 -24 130 37 240 147 280 279 70 233 -81 482 -321
527 -67 12 -102 12 -166 -4z m241 -179 c28 -14 65 -42 82 -62 l32 -36 0 -122
0 -122 -35 -47 c-52 -71 -111 -101 -210 -106 -124 -7 -205 27 -265 110 -29 40
-30 43 -30 163 l0 123 39 40 c68 70 136 93 256 88 62 -3 92 -9 131 -29z M8179
6675 c-59 -19 -128 -80 -159 -141 -34 -66 -35 -179 -3 -240 35 -65 70 -101
128 -129 143 -70 323 0 380 148 22 58 17 165 -10 221 -57 118 -209 182 -336
141z m190 -179 c17 -15 21 -31 21 -80 0 -69 -14 -97 -60 -121 -55 -28 -143
-13 -183 32 -14 17 -17 34 -15 88 3 66 4 68 38 87 47 26 168 22 199 -6z M1300
6261 c-50 -16 -87 -41 -124 -81 -34 -38 -62 -88 -53 -97 2 -2 44 10 93 27 211
72 292 26 358 -202 10 -32 21 -58 25 -58 17 0 45 76 49 133 11 150 -103 275
-257 283 -36 2 -77 0 -91 -5z M2925 6039 c-141 -35 -237 -185 -206 -323 34
-152 176 -247 323 -217 181 38 278 237 194 399 -54 105 -196 169 -311 141z
m156 -176 c28 -17 29 -20 29 -91 0 -70 -2 -76 -31 -103 -55 -51 -170 -39 -213
23 -17 23 -22 124 -8 143 33 46 165 62 223 28z M6075 5896 c-268 -67 -401
-358 -273 -598 39 -73 121 -151 195 -186 52 -24 69 -27 168 -27 103 0 114 2
177 32 40 19 89 53 118 83 30 29 64 78 83 118 30 62 32 75 32 173 0 101 -1
108 -38 181 -87 177 -278 270 -462 224z m219 -172 c27 -9 67 -35 92 -59 l44
-42 0 -124 c0 -99 -3 -130 -17 -149 -75 -113 -194 -159 -324 -126 -80 21 -121
47 -164 103 l-35 46 0 122 0 122 38 37 c46 47 82 66 152 83 65 15 146 10 214
-13z M4710 5761 c-81 -26 -142 -76 -178 -145 -22 -42 -27 -64 -26 -126 0 -64
4 -83 29 -128 52 -95 132 -142 242 -142 166 0 281 123 271 287 -7 111 -62 194
-156 235 -49 22 -143 32 -182 19z m154 -176 l36 -17 0 -73 c0 -71 -1 -74 -35
-104 -30 -26 -44 -31 -86 -31 -53 0 -80 10 -116 43 -20 17 -23 31 -23 88 0 75
5 82 71 104 52 17 103 14 153 -10z M9496 5754 c-68 -22 -147 -102 -171 -173
-59 -179 72 -363 258 -363 158 0 277 116 277 272 0 191 -182 322 -364 264z
m182 -174 c31 -19 32 -22 32 -83 0 -70 -14 -98 -60 -122 -55 -28 -143 -13
-183 32 -14 17 -17 34 -15 89 3 68 4 69 38 86 49 25 145 24 188 -2z M8299
5474 c-59 -18 -131 -81 -160 -141 -28 -59 -31 -168 -7 -224 44 -101 148 -169
258 -169 154 0 273 120 273 275 0 188 -179 316 -364 259z m186 -168 c23 -15
25 -23 25 -87 0 -64 -3 -73 -28 -99 -52 -52 -155 -48 -207 8 -21 23 -25 36
-25 89 0 56 3 63 28 81 15 11 36 22 47 25 36 10 135 -1 160 -17z M3695 5007
c-78 -26 -176 -89 -157 -101 5 -3 78 -5 163 -5 224 0 295 -28 364 -142 l38
-62 -6 -196 -7 -196 31 35 c111 125 129 329 42 477 -38 65 -134 148 -200 174
-71 27 -209 35 -268 16z M7200 4941 c-111 -34 -200 -152 -200 -266 0 -109 85
-225 189 -260 102 -34 226 -3 293 74 129 147 70 384 -110 445 -48 17 -129 20
-172 7z m174 -174 c24 -16 26 -23 26 -88 0 -64 -3 -73 -28 -99 -53 -53 -154
-49 -207 8 -21 23 -25 36 -25 89 0 56 3 63 28 81 41 29 52 32 118 29 37 -2 71
-10 88 -20z M9030 4719 c-192 -75 -294 -249 -268 -454 29 -218 255 -384 471
-346 180 31 319 172 348 351 27 170 -74 358 -236 435 -52 25 -74 29 -160 32
-83 3 -109 0 -155 -18z m293 -169 c27 -13 62 -39 78 -58 29 -32 29 -34 29
-161 l0 -128 -34 -44 c-18 -25 -58 -58 -87 -74 -48 -27 -63 -30 -139 -30 -101
0 -156 21 -219 84 -55 55 -61 74 -61 194 0 118 11 144 78 190 67 47 107 57
212 54 78 -2 104 -6 143 -27z M5635 4646 c-56 -26 -119 -90 -143 -145 -26 -60
-21 -158 11 -224 50 -100 131 -151 247 -151 66 -1 82 3 130 30 132 74 182 227
119 361 -26 54 -105 126 -157 141 -65 20 -150 15 -207 -12z m204 -153 c30 -17
31 -20 31 -89 0 -57 -4 -77 -21 -97 -44 -57 -153 -55 -211 4 -27 26 -29 33
-26 91 3 58 5 64 37 85 43 29 143 32 190 6z M4979 3901 c-77 -24 -151 -93
-179 -169 -23 -60 -27 -132 -7 -132 23 0 85 49 107 85 25 41 95 85 133 85 15
0 27 -4 27 -8 0 -4 20 -13 44 -20 65 -17 76 -32 76 -108 0 -76 -7 -91 -70
-161 -42 -45 -67 -99 -54 -112 3 -3 29 0 59 6 130 28 215 136 215 274 0 114
-87 228 -198 259 -43 11 -115 12 -153 1z M7045 3846 c-219 -54 -356 -268 -311
-485 28 -132 103 -229 224 -289 73 -36 80 -37 181 -37 98 0 111 2 173 32 167
79 260 252 236 437 -22 165 -158 309 -326 345 -66 14 -112 13 -177 -3z m186
-155 c49 -11 143 -75 157 -106 18 -38 16 -249 -2 -283 -44 -83 -135 -132 -251
-132 -116 0 -190 37 -249 124 -24 36 -26 46 -26 152 0 113 0 113 32 150 38 43
92 79 139 93 43 12 153 13 200 2z M8297 3426 c-197 -71 -247 -328 -91 -465
179 -157 458 -33 458 203 -1 190 -190 325 -367 262z m187 -169 c24 -16 26 -23
26 -87 0 -62 -3 -73 -27 -100 -49 -55 -154 -50 -208 8 -21 23 -25 37 -25 89 0
56 3 63 28 81 41 29 52 32 118 29 37 -2 71 -10 88 -20z M5650 3062 c-36 -10
-80 -27 -98 -38 l-33 -21 119 -6 c199 -11 290 -50 399 -173 34 -38 76 -85 93
-104 l32 -35 -6 49 c-19 156 -166 304 -335 336 -71 13 -94 12 -171 -8z"/>
</g>
</svg>
