<?xml version="1.0" standalone="no"?>
<!DOCTYPE svg PUBLIC "-//W3C//DTD SVG 20010904//EN"
 "http://www.w3.org/TR/2001/REC-SVG-20010904/DTD/svg10.dtd">
<svg version="1.0" xmlns="http://www.w3.org/2000/svg"
 width="2048.000000pt" height="2048.000000pt" viewBox="0 0 2048.000000 2048.000000"
 preserveAspectRatio="xMidYMid meet">
<metadata>
Created by potrace 1.13, written by Peter Selinger 2001-2015
</metadata>
<g transform="translate(0.000000,2048.000000) scale(0.192120,-0.192120)"
fill="#000000" stroke="none">
<path d="M937 9054 c-189 -34 -341 -127 -443 -270 -124 -174 -173 -391 -161
-719 15 -394 91 -800 227 -1220 l53 -160 -2 -130 c-7 -476 157 -926 451 -1241
l58 -61 20 -149 c54 -380 155 -764 297 -1124 520 -1320 1517 -2169 2861 -2440
714 -143 1558 -128 2242 40 562 139 1047 373 1475 714 786 625 1333 1640 1501
2790 l25 171 48 50 c295 305 467 774 460 1255 l-2 125 57 175 c204 629 278
1298 185 1658 -56 214 -188 384 -365 472 -294 144 -739 80 -990 -143 -144
-128 -378 -482 -599 -904 -33 -62 -64 -113 -70 -113 -6 0 -70 13 -142 30 -171
39 -547 102 -798 134 -1073 135 -2458 150 -3625 40 -374 -35 -781 -95 -1095
-161 -93 -20 -181 -38 -196 -40 -23 -4 -29 4 -84 109 -211 406 -452 772 -598
904 -189 171 -517 257 -790 208z m388 -294 c120 -32 228 -93 307 -172 68 -67
104 -127 85 -140 -6 -3 -17 -3 -26 2 -206 102 -354 110 -521 29 -96 -47 -252
-206 -307 -314 -73 -142 -76 -166 -70 -524 3 -173 1 -325 -3 -337 -13 -32 -64
-58 -89 -44 -32 17 -65 138 -100 372 -18 117 -21 182 -21 465 0 355 3 375 57
475 52 95 173 175 311 203 93 20 274 13 377 -15z m8440 0 c126 -39 213 -111
262 -215 l28 -60 0 -425 c0 -402 -1 -431 -23 -540 -31 -157 -59 -248 -80 -259
-21 -11 -51 0 -77 29 -19 21 -20 36 -20 374 l0 351 -34 80 c-50 116 -93 180
-185 271 -168 166 -362 210 -560 128 -167 -69 -156 -66 -156 -45 0 41 134 183
220 234 65 38 170 75 258 92 106 20 275 13 367 -15z m-8274 -486 c114 -33 208
-109 318 -259 98 -131 204 -286 200 -289 -2 -2 -58 -20 -124 -40 -259 -81
-575 -223 -733 -330 -54 -37 -84 -52 -87 -44 -2 7 -13 60 -24 118 -45 242 -51
431 -15 550 71 238 256 355 465 294z m7932 -17 c177 -87 260 -309 228 -612
-11 -98 -45 -299 -56 -332 -3 -8 -34 7 -86 42 -167 112 -452 241 -719 326 -74
23 -137 44 -139 45 -4 3 104 160 200 289 148 201 275 279 440 272 58 -3 90
-10 132 -30z m-3478 -297 c774 -28 1396 -92 2005 -205 268 -50 320 -47 350 25
7 16 20 30 29 30 22 0 161 -36 244 -62 l67 -22 0 -39 c0 -33 7 -46 43 -82 35
-35 71 -53 227 -114 101 -40 264 -111 361 -157 212 -100 242 -107 288 -68 l33
27 35 -19 c52 -27 217 -187 268 -259 45 -63 105 -179 105 -204 0 -7 -13 -28
-29 -46 -34 -39 -51 -107 -51 -204 0 -113 -27 -235 -101 -456 -81 -239 -153
-391 -258 -538 -85 -120 -137 -211 -146 -257 -4 -25 0 -51 14 -87 l20 -52 -66
-61 c-116 -106 -346 -251 -547 -345 -572 -267 -1317 -432 -2291 -505 -329 -25
-509 -31 -1015 -37 -1663 -18 -2834 149 -3662 522 -223 101 -481 261 -599 374
l-60 56 21 53 c11 29 20 59 20 67 0 40 -52 142 -143 278 -112 169 -171 286
-253 504 -78 209 -103 313 -114 476 -10 142 -22 189 -59 221 -28 25 -27 39 9
114 39 84 82 144 154 221 68 71 201 181 219 181 7 0 23 -12 37 -26 37 -39 81
-29 276 64 93 44 246 110 339 147 267 105 305 132 305 212 l0 40 87 26 c89 27
208 57 229 57 6 0 17 -14 24 -30 30 -73 82 -76 376 -21 570 107 1375 187 2049
204 298 7 910 6 1160 -3z m-4274 -3329 c444 -227 889 -363 1539 -470 1197
-197 3054 -197 4245 0 650 107 1110 250 1564 484 79 41 148 75 152 75 24 0 2
-167 -32 -247 -24 -57 -49 -69 -100 -49 -78 32 -135 19 -389 -88 -184 -78
-415 -154 -660 -216 -113 -29 -226 -63 -252 -77 -26 -14 -78 -55 -116 -92 -67
-63 -75 -75 -177 -286 -120 -246 -135 -286 -135 -359 1 -42 7 -61 38 -106 64
-95 136 -127 257 -115 179 17 637 131 888 221 77 27 107 30 107 11 0 -19 -42
-99 -73 -141 -15 -19 -27 -37 -27 -41 0 -10 -107 -141 -147 -180 -45 -44 -67
-44 -146 -2 -98 51 -176 50 -457 -6 -309 -62 -430 -83 -609 -107 -255 -33
-795 -73 -1176 -86 -196 -6 -282 -17 -330 -41 -50 -26 -132 -101 -139 -128 -4
-14 -11 -25 -16 -25 -6 0 -10 -104 -10 -280 0 -154 4 -280 8 -280 4 0 13 -15
20 -32 16 -44 82 -112 134 -139 37 -19 67 -23 208 -29 90 -4 170 -6 177 -3 8
3 13 -3 13 -16 0 -18 -6 -21 -40 -21 -22 0 -40 -4 -40 -10 0 -5 -12 -9 -27 -8
-16 0 -89 -7 -163 -17 -175 -22 -574 -31 -712 -15 -56 6 -143 16 -193 21 -49
6 -102 10 -117 10 -16 -1 -28 3 -28 9 0 5 -18 10 -40 10 -34 0 -40 3 -40 21 0
16 5 20 18 17 10 -3 91 -2 178 2 133 6 167 11 201 28 51 27 119 97 135 140 7
17 16 32 20 32 4 0 8 121 8 268 0 307 -1 312 -87 387 -92 80 -134 90 -428 100
-631 21 -1350 95 -1665 170 -8 2 -85 18 -170 35 -205 42 -296 40 -387 -7 -92
-49 -106 -46 -185 38 -58 61 -172 219 -207 286 -13 26 -14 63 -1 63 5 0 52
-15 104 -34 250 -91 676 -195 826 -203 94 -5 110 -3 147 15 48 25 89 71 116
131 40 90 17 157 -211 620 -23 46 -129 152 -183 184 -24 14 -129 48 -234 77
-239 64 -471 142 -645 215 -243 103 -286 112 -368 75 -48 -22 -64 -19 -86 15
-39 60 -85 295 -58 295 5 0 96 -45 203 -99z m-21 -323 c227 -139 657 -298
1065 -393 81 -19 149 -36 150 -37 2 -2 24 -50 50 -108 57 -129 158 -323 224
-430 32 -51 45 -80 36 -80 -22 0 -349 68 -504 106 -196 47 -418 115 -586 179
-77 30 -148 57 -158 61 -19 7 -104 170 -181 345 -40 94 -146 364 -146 375 0 9
17 3 50 -18z m7404 0 c-25 -84 -149 -381 -218 -523 l-83 -171 -129 -51 c-169
-66 -349 -124 -559 -178 -190 -49 -619 -138 -646 -133 -15 3 -9 16 32 83 67
108 166 297 224 426 l47 107 87 16 c231 45 572 145 796 233 130 51 373 167
419 199 29 20 38 17 30 -8z m-6475 -1473 c557 -153 1344 -250 2209 -273 l262
-7 3 -279 2 -279 -220 7 c-449 13 -820 38 -1165 77 -170 20 -191 24 -255 56
-185 93 -419 242 -594 379 -112 87 -395 353 -377 354 5 0 66 -16 135 -35z
m5624 13 c-30 -40 -265 -255 -357 -327 -168 -134 -404 -284 -596 -381 -76 -38
-82 -40 -306 -64 -351 -38 -967 -76 -1254 -76 l-85 0 2 277 3 278 112 2 c937
17 1876 131 2408 292 87 26 95 26 73 -1z m-3638 -1058 c3 -5 1 -10 -4 -10 -6
0 -11 5 -11 10 0 6 2 10 4 10 3 0 8 -4 11 -10z M4770 7789 c-483 -16 -1009
-63 -1471 -129 -1313 -189 -2208 -551 -2369 -959 -82 -209 25 -417 315 -610
617 -412 1940 -693 3535 -751 1456 -53 2997 113 3915 422 702 236 1061 509
1060 804 -2 319 -428 616 -1219 849 -962 283 -2362 422 -3766 374z m771 -275
c11 -13 10 -20 -4 -42 -9 -15 -22 -39 -29 -54 -7 -16 -16 -28 -20 -28 -4 0 -8
-126 -8 -280 0 -180 4 -280 10 -280 6 0 10 -6 10 -13 0 -15 41 -68 88 -114 53
-52 105 -61 407 -73 687 -27 1166 -78 1705 -181 113 -21 219 -42 235 -45 94
-18 162 -16 212 6 71 30 113 90 113 159 0 62 -38 143 -102 215 -61 70 -213
204 -332 292 -56 42 -108 81 -116 87 -8 7 -60 43 -115 81 -175 121 -168 141
37 106 870 -149 1589 -407 1816 -654 42 -45 42 -46 42 -122 0 -90 -15 -126
-74 -185 -116 -115 -457 -291 -666 -345 -95 -24 -161 -14 -446 66 -389 110
-621 160 -745 160 -92 0 -158 -34 -206 -106 -31 -47 -35 -59 -31 -101 3 -27
22 -88 43 -138 43 -104 55 -174 31 -194 -8 -7 -42 -15 -76 -18 -50 -5 -64 -3
-81 13 -11 10 -62 101 -113 203 -142 286 -195 360 -307 423 -61 36 -122 47
-355 63 -705 50 -1734 45 -2395 -10 -194 -17 -262 -33 -325 -76 -103 -71 -153
-141 -296 -418 -39 -75 -85 -149 -102 -165 -28 -26 -36 -28 -84 -23 -29 3 -60
11 -68 18 -21 18 -17 82 10 141 30 66 56 153 56 187 0 76 -98 173 -187 187
-87 13 -323 -33 -668 -131 -411 -116 -415 -116 -623 -39 -293 109 -575 288
-618 391 -8 18 -14 62 -14 98 l0 65 58 58 c247 247 883 480 1733 635 295 54
307 39 89 -111 -418 -287 -640 -513 -640 -648 0 -52 36 -111 87 -147 69 -49
131 -47 438 12 563 110 1050 164 1744 191 146 6 284 15 308 20 61 14 113 50
148 101 17 24 34 47 40 51 6 5 10 118 10 306 0 260 -2 300 -16 314 -28 29 -43
76 -29 93 19 23 402 22 421 -1z m-488 -405 l2 -276 -235 -7 c-960 -27 -1732
-126 -2314 -295 -38 -12 -71 -19 -73 -17 -7 7 254 251 357 333 186 149 410
293 609 392 l96 48 200 21 c391 43 1020 80 1288 78 l68 -1 2 -276z m1117 260
c273 -12 539 -32 800 -60 l195 -21 140 -72 c162 -82 413 -246 565 -369 102
-82 364 -326 357 -333 -1 -2 -65 14 -141 36 -249 71 -610 140 -971 184 -388
49 -676 70 -1165 88 l-345 12 2 275 c2 152 3 277 3 279 0 4 207 -3 560 -19z
m20 -1109 c345 -19 605 -42 613 -53 83 -122 325 -572 313 -584 -2 -3 -35 0
-73 6 -610 93 -1949 119 -2838 56 -226 -16 -560 -49 -664 -66 -35 -5 -66 -7
-69 -4 -8 8 145 305 236 456 l82 136 58 7 c173 19 607 46 977 60 175 7 1183
-3 1365 -14z m1504 -175 c365 -73 713 -170 886 -247 l55 -25 -140 -7 c-314
-16 -525 -43 -629 -79 -40 -14 -77 -38 -116 -74 l-58 -53 -77 152 c-67 133
-155 292 -203 366 -10 16 -11 22 -2 22 7 0 134 -25 284 -55z m-4516 23 c-55
-83 -107 -177 -178 -317 -44 -88 -85 -163 -91 -167 -6 -3 -36 18 -67 48 -67
63 -86 71 -212 92 -164 26 -176 27 -485 45 l-120 6 109 43 c201 79 480 156
826 228 250 51 236 50 218 22z M3558 3926 c-104 -28 -198 -132 -198 -219 0
-59 32 -149 105 -293 86 -169 183 -313 247 -364 92 -74 128 -83 412 -105 684
-52 1583 -56 2275 -10 338 22 397 36 481 111 62 56 107 121 193 279 138 254
171 369 129 451 -25 48 -90 110 -141 132 -47 21 -179 21 -421 -1 -860 -77
-1989 -70 -2834 18 -163 18 -186 18 -248 1z m42 -166 c873 -120 2463 -125
3370 -10 80 10 147 16 150 13 8 -7 -134 -278 -233 -444 l-87 -147 -48 -6 c-87
-11 -475 -35 -762 -47 -318 -13 -1322 -6 -1580 10 -342 23 -586 43 -605 50
-11 5 -55 67 -98 139 -85 143 -237 432 -237 451 0 8 10 11 28 7 15 -3 61 -10
102 -16z"/>
</g>
</svg>
