<?xml version="1.0" standalone="no"?>
<!DOCTYPE svg PUBLIC "-//W3C//DTD SVG 20010904//EN"
 "http://www.w3.org/TR/2001/REC-SVG-20010904/DTD/svg10.dtd">
<svg version="1.0" xmlns="http://www.w3.org/2000/svg"
 width="2048.000000pt" height="2048.000000pt" viewBox="0 0 2048.000000 2048.000000"
 preserveAspectRatio="xMidYMid meet">
<metadata>
Created by potrace 1.13, written by Peter Selinger 2001-2015
</metadata>
<g transform="translate(0.000000,2048.000000) scale(0.192120,-0.192120)"
fill="#000000" stroke="none">
<path d="M4310 10324 c-127 -13 -291 -40 -387 -64 -539 -136 -1004 -471 -1316
-951 l-56 -86 137 -142 137 -142 59 35 c275 165 866 246 1809 246 l357 0 0
-419 0 -419 -457 2 c-447 1 -460 0 -528 -21 -183 -58 -316 -189 -377 -373 -21
-61 -22 -86 -24 -390 l-3 -325 -58 -7 c-628 -72 -1124 -1411 -1428 -3853 -97
-781 -183 -1807 -172 -2045 25 -511 423 -946 937 -1025 142 -22 4637 -22 4780
0 508 76 909 511 937 1015 17 306 -115 1706 -243 2585 -306 2101 -778 3257
-1357 3323 l-58 7 -3 325 c-2 304 -3 329 -24 390 -61 184 -194 315 -377 373
-68 21 -81 22 -527 20 l-458 -2 0 419 0 419 328 3 327 3 58 30 c107 53 193
174 234 325 24 88 23 299 -1 389 -42 156 -124 269 -234 323 l-67 33 -955 1
c-525 1 -971 -1 -990 -2z m1903 -184 c21 -7 56 -29 79 -49 39 -34 248 -303
248 -320 0 -16 -99 -21 -262 -15 -89 4 -602 8 -1138 8 -763 1 -998 -2 -1080
-12 -540 -70 -908 -227 -1252 -536 -104 -93 -108 -95 -114 -70 -9 34 0 94 20
135 43 91 245 288 456 446 280 209 683 370 1035 412 50 6 104 13 120 15 17 2
440 3 940 2 751 -1 917 -4 948 -16z m-655 -546 c12 -4 22 -12 22 -19 0 -15
160 -25 424 -26 100 -1 192 -4 206 -8 32 -9 32 -29 -1 -53 -23 -17 -52 -21
-232 -29 -205 -9 -280 -18 -318 -42 -30 -18 -60 -82 -66 -143 l-6 -54 -257 0
-257 0 -6 54 c-7 75 -38 129 -84 152 -36 18 -67 19 -548 18 -280 0 -548 -3
-595 -6 -47 -3 -93 -1 -102 4 -12 5 -18 5 -18 -2 0 -13 -27 -13 -35 1 -10 15
-7 16 85 44 185 55 322 67 838 72 456 5 472 5 472 24 0 18 10 19 228 19 125 0
237 -3 250 -6z m-76 -1210 l106 -7 6 -46 c8 -59 36 -106 77 -127 46 -23 189
-33 504 -34 188 0 287 -4 326 -14 114 -26 197 -97 253 -215 l31 -66 3 -207 c2
-116 8 -208 13 -208 5 0 9 -18 9 -40 0 -22 4 -40 9 -40 5 0 12 -11 15 -25 4
-14 18 -36 32 -48 l26 -22 -39 -7 c-48 -9 -3017 -8 -3056 1 l-29 6 21 24 c12
14 24 35 27 48 4 13 10 23 15 23 5 0 9 18 9 40 0 22 5 40 10 40 6 0 10 70 10
189 0 155 3 200 18 248 30 95 97 184 166 220 86 45 96 46 496 53 361 6 388 8
432 28 56 24 85 66 94 134 l6 47 67 4 c133 7 240 7 343 1z m-1904 -1490 c2
-84 6 -107 28 -152 33 -64 111 -137 167 -154 65 -20 3042 -19 3110 1 63 18
128 77 161 146 23 49 26 68 26 160 0 123 -1 122 93 73 124 -66 236 -195 348
-400 379 -696 695 -2232 874 -4250 22 -250 25 -339 25 -700 0 -445 -1 -451
-55 -559 -120 -236 -305 -386 -572 -462 l-78 -22 -2340 -3 c-2550 -3 -2404 -5
-2576 53 -256 86 -480 317 -544 561 -26 102 -21 661 10 1025 172 2014 473
3536 847 4284 93 186 205 339 299 412 63 48 148 95 163 90 7 -2 12 -44 14
-103z m3336 92 c60 -25 97 -99 82 -161 -4 -14 -22 -43 -41 -63 l-33 -37 -1580
-3 -1579 -2 -34 23 c-93 62 -87 186 11 238 33 18 95 19 1588 19 1297 0 1558
-2 1586 -14z M5252 5454 c-126 -63 -307 -279 -627 -749 -141 -207 -262 -409
-366 -610 -100 -194 -147 -310 -184 -445 -23 -87 -25 -112 -25 -294 0 -225 10
-278 82 -456 180 -445 562 -764 998 -835 653 -105 1260 318 1445 1007 23 84
25 112 25 288 0 179 -2 203 -26 289 -92 335 -347 792 -749 1341 -224 306 -325
418 -419 465 -63 32 -89 31 -154 -1z m199 -274 c550 -706 900 -1300 973 -1654
49 -233 -17 -525 -171 -758 -177 -269 -486 -454 -815 -487 -315 -32 -629 75
-864 293 -221 204 -354 504 -354 795 1 165 50 327 182 591 104 209 158 301
333 565 186 281 578 809 596 802 4 -1 58 -67 120 -147z"/>
</g>
</svg>
