<?xml version="1.0" standalone="no"?>
<!DOCTYPE svg PUBLIC "-//W3C//DTD SVG 20010904//EN"
 "http://www.w3.org/TR/2001/REC-SVG-20010904/DTD/svg10.dtd">
<svg version="1.0" xmlns="http://www.w3.org/2000/svg"
 width="2048.000000pt" height="2048.000000pt" viewBox="0 0 2048.000000 2048.000000"
 preserveAspectRatio="xMidYMid meet">
<metadata>
Created by potrace 1.13, written by Peter Selinger 2001-2015
</metadata>
<g transform="translate(0.000000,2048.000000) scale(0.192120,-0.192120)"
fill="#000000" stroke="none">
<path d="M3219 10036 c-304 -64 -540 -283 -636 -591 l-28 -90 0 -2765 0 -2765
22 -85 c70 -264 251 -472 499 -571 178 -71 387 -78 567 -19 222 74 387 218
487 425 94 195 85 -128 85 3005 0 3133 9 2810 -85 3005 -100 207 -264 350
-487 425 -87 29 -112 33 -228 36 -84 2 -153 -2 -196 -10z m370 -311 c137 -44
260 -141 314 -248 l27 -52 0 -2840 0 -2840 -25 -52 c-90 -195 -279 -306 -520
-307 -237 0 -432 110 -525 296 l-40 80 0 2822 0 2821 40 72 c82 148 231 240
450 277 57 10 204 -6 279 -29z M7105 10035 c-161 -35 -309 -117 -425 -236 -82
-84 -124 -147 -175 -266 -70 -160 -66 38 -63 -2993 3 -3097 -6 -2770 88 -2965
100 -208 263 -350 490 -426 164 -55 368 -52 535 8 258 93 456 311 528 583 l22
85 0 2755 0 2755 -22 85 c-84 319 -334 555 -651 616 -91 17 -247 17 -327 -1z
m374 -310 c136 -43 269 -151 320 -259 l21 -46 0 -2834 c0 -2805 0 -2835 -20
-2881 -63 -147 -192 -255 -360 -301 -104 -28 -264 -24 -365 10 -44 15 -104 41
-134 59 -69 42 -158 138 -196 213 l-30 59 -3 2828 -2 2828 27 57 c17 34 54 83
95 124 94 94 199 143 368 172 57 10 204 -6 279 -29z M3219 2536 c-304 -64
-544 -287 -635 -591 -23 -77 -27 -109 -27 -220 -1 -158 15 -229 83 -370 110
-227 310 -388 555 -446 120 -28 323 -23 430 11 308 98 526 346 581 661 30 174
6 334 -76 504 -100 207 -264 350 -487 425 -87 29 -112 33 -228 36 -84 2 -153
-2 -196 -10z m370 -311 c137 -44 260 -141 314 -248 26 -51 27 -56 27 -248 0
-221 -4 -242 -69 -338 -190 -280 -657 -309 -906 -57 -41 42 -82 96 -100 131
-30 59 -30 62 -33 247 l-3 188 33 62 c81 156 235 254 458 292 57 10 204 -6
279 -29z M7105 2535 c-161 -35 -309 -117 -425 -236 -118 -120 -197 -272 -225
-433 -19 -112 -19 -180 0 -291 49 -279 239 -516 501 -625 105 -44 190 -60 319
-60 379 0 689 235 801 605 36 121 39 307 6 430 -85 316 -335 550 -650 611 -91
17 -247 17 -327 -1z m374 -310 c96 -31 180 -84 247 -157 89 -98 94 -117 94
-345 0 -190 -1 -200 -25 -252 -40 -86 -92 -149 -168 -202 -287 -201 -727 -107
-877 187 l-35 69 -3 187 c-3 187 -3 187 25 245 17 36 53 84 95 125 94 94 199
143 368 172 57 10 204 -6 279 -29z"/>
</g>
</svg>
