<?xml version="1.0" standalone="no"?>
<!DOCTYPE svg PUBLIC "-//W3C//DTD SVG 20010904//EN"
 "http://www.w3.org/TR/2001/REC-SVG-20010904/DTD/svg10.dtd">
<svg version="1.0" xmlns="http://www.w3.org/2000/svg"
 width="2048.000000pt" height="2048.000000pt" viewBox="0 0 2048.000000 2048.000000"
 preserveAspectRatio="xMidYMid meet">
<metadata>
Created by potrace 1.13, written by Peter Selinger 2001-2015
</metadata>
<g transform="translate(0.000000,2048.000000) scale(0.192120,-0.192120)"
fill="#000000" stroke="none">
<path d="M1320 10324 c-273 -42 -463 -131 -640 -301 -176 -167 -284 -364 -332
-603 -19 -96 -19 -8084 0 -8180 80 -398 361 -723 733 -849 180 -60 -136 -56
4249 -56 3399 0 4036 2 4095 14 398 79 726 367 848 746 55 171 52 -100 52
4235 0 4335 3 4064 -52 4235 -51 157 -132 292 -250 415 -160 169 -333 267
-572 328 -61 15 -367 16 -4086 18 -2211 1 -4031 0 -4045 -2z m8089 -287 c294
-72 494 -221 609 -457 l37 -75 0 -4165 0 -4165 -28 -69 c-120 -296 -384 -481
-736 -516 -74 -8 -1306 -10 -4041 -8 -3625 4 -3940 5 -4000 20 -334 86 -563
284 -649 562 l-21 68 0 4104 0 4105 21 62 c63 189 239 375 443 467 83 38 192
68 287 79 41 5 1846 8 4039 7 3772 -1 3969 -2 4039 -19z M3838 7986 c-55 -20
-114 -58 -203 -129 -154 -125 -2411 -2164 -2485 -2245 -163 -179 -192 -272
-124 -399 46 -87 100 -159 183 -243 56 -57 1912 -1730 2297 -2071 266 -236
367 -290 448 -240 59 37 130 123 157 192 48 118 49 133 49 629 l0 470 1165 0
1165 0 3 -487 c2 -294 7 -505 14 -530 23 -92 95 -196 178 -258 43 -31 56 -36
88 -32 56 8 131 49 227 127 102 82 2299 2057 2418 2174 108 105 164 177 207
268 44 92 46 140 6 223 -62 132 -130 198 -1355 1300 -647 582 -1217 1091
-1267 1130 -107 86 -172 123 -230 131 -38 5 -51 1 -90 -25 -91 -61 -164 -159
-187 -253 -8 -32 -12 -185 -12 -492 0 -439 0 -446 -20 -446 -17 0 -20 -7 -20
-45 l0 -45 -1130 0 -1130 0 0 45 c0 33 -4 45 -15 45 -13 0 -15 56 -15 443 0
460 -2 480 -45 582 -18 44 -124 158 -167 181 -33 17 -62 17 -110 0z m1492
-1546 l1390 0 2 693 3 693 1370 -1234 c754 -678 1379 -1240 1390 -1248 19 -14
19 -14 0 -28 -11 -8 -636 -570 -1390 -1248 l-1370 -1234 -3 693 -2 693 -1390
0 -1390 0 0 -696 0 -696 -67 62 c-38 34 -661 595 -1385 1248 -725 652 -1318
1189 -1318 1192 0 3 593 540 1318 1192 724 653 1346 1213 1382 1246 l65 59 3
-693 2 -694 1390 0z"/>
</g>
</svg>
