<?xml version="1.0" standalone="no"?>
<!DOCTYPE svg PUBLIC "-//W3C//DTD SVG 20010904//EN"
 "http://www.w3.org/TR/2001/REC-SVG-20010904/DTD/svg10.dtd">
<svg version="1.0" xmlns="http://www.w3.org/2000/svg"
 width="2048.000000pt" height="2048.000000pt" viewBox="0 0 2048.000000 2048.000000"
 preserveAspectRatio="xMidYMid meet">
<metadata>
Created by potrace 1.13, written by Peter Selinger 2001-2015
</metadata>
<g transform="translate(0.000000,2048.000000) scale(0.192120,-0.192120)"
fill="#000000" stroke="none">
<path d="M1320 10324 c-273 -42 -463 -131 -640 -301 -176 -167 -284 -364 -332
-603 -19 -96 -19 -8084 0 -8180 80 -398 361 -723 733 -849 180 -60 -136 -56
4249 -56 3399 0 4036 2 4095 14 398 79 726 367 848 746 55 171 52 -100 52
4235 0 4335 3 4064 -52 4235 -51 157 -132 292 -250 415 -160 169 -333 267
-572 328 -61 15 -367 16 -4086 18 -2211 1 -4031 0 -4045 -2z m8089 -287 c294
-72 494 -221 609 -457 l37 -75 0 -4165 0 -4165 -28 -69 c-120 -296 -384 -481
-736 -516 -74 -8 -1306 -10 -4041 -8 -3625 4 -3940 5 -4000 20 -334 86 -563
284 -649 562 l-21 68 0 4104 0 4105 21 62 c63 189 239 375 443 467 83 38 192
68 287 79 41 5 1846 8 4039 7 3772 -1 3969 -2 4039 -19z M5263 9675 c-64 -28
-150 -96 -249 -197 -82 -83 -1749 -1932 -2073 -2298 -181 -204 -261 -333 -261
-419 0 -94 94 -217 208 -273 l67 -33 497 -3 498 -3 0 -1130 0 -1129 -458 0
c-476 0 -543 -5 -616 -42 -61 -31 -153 -124 -182 -185 -25 -50 -26 -57 -14
-96 30 -100 101 -211 239 -372 184 -214 2070 -2305 2152 -2385 101 -99 181
-150 244 -158 66 -7 137 32 247 136 86 82 1949 2143 2163 2394 122 142 172
212 214 299 46 93 49 133 18 196 -28 54 -118 143 -176 173 -70 35 -142 40
-623 40 l-468 0 0 1129 0 1130 508 3 507 3 67 33 c105 51 208 186 208 270 0
71 -104 236 -259 412 -475 538 -2144 2380 -2192 2419 -116 94 -192 118 -266
86z m1173 -1407 c604 -672 1164 -1293 1244 -1381 80 -88 146 -162 148 -166 1
-3 -311 -5 -693 -3 l-695 2 0 -1390 0 -1390 695 2 c382 2 694 0 693 -3 -2 -4
-68 -78 -148 -166 -80 -88 -640 -709 -1244 -1381 -605 -672 -1103 -1222 -1106
-1222 -5 0 -2491 2757 -2498 2770 -1 3 311 4 693 2 l695 -2 0 1390 0 1390
-695 -2 c-382 -2 -694 -1 -693 2 7 13 2493 2770 2498 2770 3 0 501 -550 1106
-1222z"/>
</g>
</svg>
