<?xml version="1.0" standalone="no"?>
<!DOCTYPE svg PUBLIC "-//W3C//DTD SVG 20010904//EN"
 "http://www.w3.org/TR/2001/REC-SVG-20010904/DTD/svg10.dtd">
<svg version="1.0" xmlns="http://www.w3.org/2000/svg"
 width="2048.000000pt" height="2048.000000pt" viewBox="0 0 2048.000000 2048.000000"
 preserveAspectRatio="xMidYMid meet">
<metadata>
Created by potrace 1.13, written by Peter Selinger 2001-2015
</metadata>
<g transform="translate(0.000000,2048.000000) scale(0.192120,-0.192120)"
fill="#000000" stroke="none">
<path d="M1320 10324 c-273 -42 -463 -131 -640 -301 -176 -167 -284 -364 -332
-603 -19 -96 -19 -8084 0 -8180 80 -398 361 -723 733 -849 180 -60 -136 -56
4249 -56 3399 0 4036 2 4095 14 398 79 726 367 848 746 55 171 52 -100 52
4235 0 4335 3 4064 -52 4235 -51 157 -132 292 -250 415 -160 169 -333 267
-572 328 -61 15 -367 16 -4086 18 -2211 1 -4031 0 -4045 -2z m8089 -287 c294
-72 494 -221 609 -457 l37 -75 0 -4165 0 -4165 -28 -69 c-120 -296 -384 -481
-736 -516 -74 -8 -1306 -10 -4041 -8 -3625 4 -3940 5 -4000 20 -334 86 -563
284 -649 562 l-21 68 0 4104 0 4105 21 62 c63 189 239 375 443 467 83 38 192
68 287 79 41 5 1846 8 4039 7 3772 -1 3969 -2 4039 -19z M3541 8069 c-80 -14
-129 -39 -198 -103 -68 -63 -113 -131 -113 -171 0 -43 62 -164 131 -255 38
-51 272 -295 581 -606 285 -286 518 -526 518 -533 0 -7 -7 -26 -16 -44 -9 -18
-499 -516 -1089 -1107 -590 -591 -1100 -1110 -1134 -1154 -123 -156 -146 -240
-96 -351 59 -134 111 -192 795 -878 366 -368 694 -690 730 -716 90 -67 141
-91 193 -91 57 0 97 17 177 75 36 26 571 553 1190 1170 766 765 1134 1126
1153 1130 15 4 39 4 54 0 18 -4 217 -195 573 -548 300 -298 574 -564 610 -591
92 -69 162 -100 207 -91 52 10 142 99 184 183 l34 67 3 2188 c1 1288 -2 2187
-7 2187 -5 0 -12 11 -15 26 -10 38 -145 170 -202 196 l-49 23 -2080 1 c-1194
1 -2103 -2 -2134 -7z m4289 -2461 l0 -2223 -718 718 -717 717 -1273 -1273
-1273 -1273 -787 786 -788 785 1273 1275 1273 1275 -717 717 -718 718 2223 0
2222 0 0 -2222z"/>
</g>
</svg>
