<?xml version="1.0" standalone="no"?>
<!DOCTYPE svg PUBLIC "-//W3C//DTD SVG 20010904//EN"
 "http://www.w3.org/TR/2001/REC-SVG-20010904/DTD/svg10.dtd">
<svg version="1.0" xmlns="http://www.w3.org/2000/svg"
 width="2048.000000pt" height="2048.000000pt" viewBox="0 0 2048.000000 2048.000000"
 preserveAspectRatio="xMidYMid meet">
<metadata>
Created by potrace 1.13, written by Peter Selinger 2001-2015
</metadata>
<g transform="translate(0.000000,2048.000000) scale(0.192120,-0.192120)"
fill="#000000" stroke="none">
<path d="M1320 10324 c-273 -42 -463 -131 -640 -301 -176 -167 -284 -364 -332
-603 -19 -96 -19 -8084 0 -8180 80 -398 361 -723 733 -849 180 -60 -136 -56
4249 -56 3399 0 4036 2 4095 14 398 79 726 367 848 746 55 171 52 -100 52
4235 0 4335 3 4064 -52 4235 -51 157 -132 292 -250 415 -160 169 -333 267
-572 328 -61 15 -367 16 -4086 18 -2211 1 -4031 0 -4045 -2z m8089 -287 c294
-72 494 -221 609 -457 l37 -75 0 -4165 0 -4165 -28 -69 c-120 -296 -384 -481
-736 -516 -74 -8 -1306 -10 -4041 -8 -3625 4 -3940 5 -4000 20 -334 86 -563
284 -649 562 l-21 68 0 4104 0 4105 21 62 c63 189 239 375 443 467 83 38 192
68 287 79 41 5 1846 8 4039 7 3772 -1 3969 -2 4039 -19z M5283 8845 c-58 -18
-154 -89 -244 -182 -92 -93 -2940 -3417 -3046 -3553 -90 -115 -153 -236 -153
-291 0 -56 42 -133 109 -199 76 -76 125 -98 247 -110 134 -13 6134 -13 6268 0
62 6 115 17 141 30 80 39 154 118 192 204 39 86 -8 201 -161 396 -28 36 -725
851 -1548 1812 -1025 1196 -1518 1764 -1565 1802 -106 89 -170 113 -240 91z
m1657 -2060 c882 -1028 1629 -1900 1661 -1936 33 -36 59 -69 59 -72 0 -4
-1499 -7 -3331 -7 -1832 0 -3329 3 -3327 8 7 17 3324 3881 3329 3879 4 -1 728
-843 1609 -1872z M2053 3896 c-78 -25 -225 -155 -239 -211 -3 -14 -10 -25 -15
-25 -5 0 -9 -290 -9 -683 l0 -683 27 -55 c31 -63 141 -177 195 -202 21 -10 75
-22 120 -27 112 -13 6284 -13 6396 0 45 5 99 17 119 27 55 26 160 135 188 195
l25 53 0 683 c0 552 -3 689 -14 715 -19 46 -146 170 -203 198 l-48 24 -3250 2
c-2664 1 -3258 -1 -3292 -11z m6608 -928 l0 -693 -3331 0 -3331 0 0 693 c1
380 1 693 1 695 0 1 1499 1 3330 0 l3331 -3 0 -692z"/>
</g>
</svg>
