<?xml version="1.0" standalone="no"?>
<!DOCTYPE svg PUBLIC "-//W3C//DTD SVG 20010904//EN"
 "http://www.w3.org/TR/2001/REC-SVG-20010904/DTD/svg10.dtd">
<svg version="1.0" xmlns="http://www.w3.org/2000/svg"
 width="2048.000000pt" height="2048.000000pt" viewBox="0 0 2048.000000 2048.000000"
 preserveAspectRatio="xMidYMid meet">
<metadata>
Created by potrace 1.13, written by Peter Selinger 2001-2015
</metadata>
<g transform="translate(0.000000,2048.000000) scale(0.192120,-0.192120)"
fill="#000000" stroke="none">
<path d="M1320 10324 c-273 -42 -463 -131 -640 -301 -176 -167 -284 -364 -332
-603 -19 -96 -19 -8084 0 -8180 80 -398 361 -723 733 -849 180 -60 -136 -56
4249 -56 3399 0 4036 2 4095 14 398 79 726 367 848 746 55 171 52 -100 52
4235 0 4335 3 4064 -52 4235 -51 157 -132 292 -250 415 -160 169 -333 267
-572 328 -61 15 -367 16 -4086 18 -2211 1 -4031 0 -4045 -2z m8089 -287 c294
-72 494 -221 609 -457 l37 -75 0 -4165 0 -4165 -28 -69 c-120 -296 -384 -481
-736 -516 -74 -8 -1306 -10 -4041 -8 -3625 4 -3940 5 -4000 20 -334 86 -563
284 -649 562 l-21 68 0 4104 0 4105 21 62 c63 189 239 375 443 467 83 38 192
68 287 79 41 5 1846 8 4039 7 3772 -1 3969 -2 4039 -19z M2503 8511 c-75 -60
-110 -101 -138 -162 l-25 -56 2 -2974 3 -2974 29 -55 c62 -119 153 -200 224
-200 50 0 129 40 219 113 37 30 534 481 1104 1003 569 523 1057 967 1083 989
27 22 59 41 72 42 l24 4 0 -895 c0 -983 -1 -963 61 -1072 37 -65 100 -137 145
-165 75 -46 166 -11 326 125 131 112 2947 2697 3003 2757 117 125 195 260 195
338 0 57 -43 145 -118 240 -50 62 -441 427 -1507 1405 -1592 1460 -1576 1446
-1664 1505 -150 102 -208 97 -327 -30 -22 -24 -51 -61 -63 -82 -51 -85 -51
-79 -51 -1025 0 -880 0 -883 -20 -872 -18 10 -20 8 -20 -20 0 -16 -4 -30 -9
-30 -18 0 -119 91 -1126 1015 -550 505 -1038 949 -1085 987 -105 85 -188 128
-246 128 -34 0 -51 -7 -91 -39z m1442 -1403 c693 -635 1288 -1180 1323 -1212
l62 -58 0 1278 0 1279 78 -77 c57 -56 2584 -2375 3177 -2915 l80 -73 -80 -72
c-593 -541 -3120 -2860 -3177 -2916 l-78 -77 0 1279 0 1278 -62 -58 c-35 -32
-630 -577 -1323 -1212 -693 -635 -1290 -1184 -1327 -1221 l-68 -65 0 3064 0
3064 68 -65 c37 -37 634 -586 1327 -1221z"/>
</g>
</svg>
