<?xml version="1.0" standalone="no"?>
<!DOCTYPE svg PUBLIC "-//W3C//DTD SVG 20010904//EN"
 "http://www.w3.org/TR/2001/REC-SVG-20010904/DTD/svg10.dtd">
<svg version="1.0" xmlns="http://www.w3.org/2000/svg"
 width="2048.000000pt" height="2048.000000pt" viewBox="0 0 2048.000000 2048.000000"
 preserveAspectRatio="xMidYMid meet">
<metadata>
Created by potrace 1.13, written by Peter Selinger 2001-2015
</metadata>
<g transform="translate(0.000000,2048.000000) scale(0.192120,-0.192120)"
fill="#000000" stroke="none">
<path d="M1320 10324 c-273 -42 -463 -131 -640 -301 -176 -167 -284 -364 -332
-603 -19 -96 -19 -8084 0 -8180 80 -398 361 -723 733 -849 180 -60 -136 -56
4249 -56 3399 0 4036 2 4095 14 398 79 726 367 848 746 55 171 52 -100 52
4235 0 4335 3 4064 -52 4235 -51 157 -132 292 -250 415 -160 169 -333 267
-572 328 -61 15 -367 16 -4086 18 -2211 1 -4031 0 -4045 -2z m8089 -287 c294
-72 494 -221 609 -457 l37 -75 0 -4165 0 -4165 -28 -69 c-120 -296 -384 -481
-736 -516 -74 -8 -1306 -10 -4041 -8 -3625 4 -3940 5 -4000 20 -334 86 -563
284 -649 562 l-21 68 0 4104 0 4105 21 62 c63 189 239 375 443 467 83 38 192
68 287 79 41 5 1846 8 4039 7 3772 -1 3969 -2 4039 -19z M5740 8630 c-43 -4
-93 -16 -115 -28 -60 -30 -182 -147 -197 -188 -6 -18 -16 -34 -20 -34 -4 0 -8
-9 -8 -20 0 -11 -4 -20 -10 -20 -7 0 -10 -409 -10 -1206 0 -1201 0 -1206 -20
-1201 -17 4 -20 0 -20 -29 l0 -35 -42 29 c-24 16 -693 580 -1487 1252 -795
672 -1480 1249 -1523 1282 -145 110 -229 143 -290 114 -57 -27 -145 -113 -177
-173 l-31 -57 0 -2982 0 -2982 20 -48 c26 -59 91 -140 149 -185 79 -61 149
-43 312 80 48 36 734 614 1526 1283 791 669 1458 1233 1483 1252 25 20 57 37
70 38 l25 3 3 -1213 c1 -796 5 -1212 12 -1212 6 0 10 -16 10 -35 0 -19 5 -35
10 -35 6 0 10 -6 10 -13 0 -48 124 -188 200 -227 62 -32 172 -40 540 -40 393
0 493 8 553 44 79 46 187 174 187 221 0 8 5 15 10 15 7 0 10 1023 10 3050 0
1779 -4 3050 -9 3050 -5 0 -12 12 -16 27 -8 33 -127 157 -181 189 -31 18 -66
27 -140 34 -113 11 -721 11 -834 0z m-1939 -1770 c964 -817 1764 -1495 1778
-1507 l26 -23 -26 -22 c-43 -38 -3528 -2991 -3557 -3015 l-27 -22 0 3059 0
3059 27 -22 c14 -12 815 -690 1779 -1507z m2919 -1530 l0 -3060 -555 0 -555 0
0 3060 0 3060 555 0 555 0 0 -3060z M7685 8631 c-40 -4 -90 -17 -115 -29 -51
-24 -190 -155 -190 -177 0 -8 -4 -15 -10 -15 -5 0 -10 -7 -10 -15 0 -8 -4 -15
-10 -15 -7 0 -10 -1023 -10 -3050 0 -2027 3 -3050 10 -3050 6 0 10 -9 10 -20
0 -11 4 -20 9 -20 5 0 14 -13 20 -29 16 -37 115 -136 168 -167 60 -36 160 -44
548 -44 357 0 483 9 542 36 55 27 160 136 188 196 l25 53 0 3045 c0 2925 -1
3047 -19 3085 -21 47 -134 156 -193 186 -26 13 -74 24 -132 30 -103 10 -724
10 -831 0z m975 -3301 l0 -3055 -555 -3 -555 -2 0 3060 0 3060 555 -2 555 -3
0 -3055z"/>
</g>
</svg>
