<?xml version="1.0" standalone="no"?>
<!DOCTYPE svg PUBLIC "-//W3C//DTD SVG 20010904//EN"
 "http://www.w3.org/TR/2001/REC-SVG-20010904/DTD/svg10.dtd">
<svg version="1.0" xmlns="http://www.w3.org/2000/svg"
 width="2048.000000pt" height="2048.000000pt" viewBox="0 0 2048.000000 2048.000000"
 preserveAspectRatio="xMidYMid meet">
<metadata>
Created by potrace 1.13, written by Peter Selinger 2001-2015
</metadata>
<g transform="translate(0.000000,2048.000000) scale(0.192120,-0.192120)"
fill="#000000" stroke="none">
<path d="M1320 10324 c-273 -42 -463 -131 -640 -301 -176 -167 -284 -364 -332
-603 -19 -96 -19 -8084 0 -8180 80 -398 361 -723 733 -849 180 -60 -136 -56
4249 -56 3399 0 4036 2 4095 14 398 79 726 367 848 746 55 171 52 -100 52
4235 0 4335 3 4064 -52 4235 -51 157 -132 292 -250 415 -160 169 -333 267
-572 328 -61 15 -367 16 -4086 18 -2211 1 -4031 0 -4045 -2z m8089 -287 c294
-72 494 -221 609 -457 l37 -75 0 -4165 0 -4165 -28 -69 c-120 -296 -384 -481
-736 -516 -74 -8 -1306 -10 -4041 -8 -3625 4 -3940 5 -4000 20 -334 86 -563
284 -649 562 l-21 68 0 4104 0 4105 21 62 c63 189 239 375 443 467 83 38 192
68 287 79 41 5 1846 8 4039 7 3772 -1 3969 -2 4039 -19z M5045 8623 c-874 -78
-1685 -519 -2262 -1228 -358 -441 -603 -979 -693 -1530 -18 -106 -20 -169 -20
-535 0 -367 2 -429 20 -535 133 -808 605 -1594 1265 -2108 437 -339 955 -563
1507 -648 170 -27 579 -37 766 -20 552 52 1087 251 1544 573 395 278 719 634
977 1071 193 329 338 727 413 1137 21 117 23 152 23 525 0 424 -3 460 -56 700
-110 495 -345 983 -665 1380 -561 694 -1358 1129 -2223 1215 -95 9 -503 11
-596 3z m441 -243 c1004 -56 1895 -578 2430 -1422 89 -141 233 -435 289 -593
400 -1115 119 -2364 -720 -3200 -236 -234 -498 -421 -800 -570 -392 -194 -768
-293 -1192 -314 -880 -45 -1709 274 -2328 895 -855 856 -1123 2152 -678 3274
286 721 821 1295 1526 1635 354 171 751 274 1137 295 74 4 142 8 150 8 8 1 92
-3 186 -8z"/>
</g>
</svg>
