<?xml version="1.0" standalone="no"?>
<!DOCTYPE svg PUBLIC "-//W3C//DTD SVG 20010904//EN"
 "http://www.w3.org/TR/2001/REC-SVG-20010904/DTD/svg10.dtd">
<svg version="1.0" xmlns="http://www.w3.org/2000/svg"
 width="2048.000000pt" height="2048.000000pt" viewBox="0 0 2048.000000 2048.000000"
 preserveAspectRatio="xMidYMid meet">
<metadata>
Created by potrace 1.13, written by Peter Selinger 2001-2015
</metadata>
<g transform="translate(0.000000,2048.000000) scale(0.192120,-0.192120)"
fill="#000000" stroke="none">
<path d="M3550 7249 c-60 -27 -107 -74 -136 -134 l-24 -50 0 -1735 0 -1735 24
-50 c29 -60 76 -107 136 -134 45 -20 57 -21 1780 -21 l1735 0 50 24 c60 29
107 76 134 136 20 45 21 57 21 1780 0 1723 -1 1735 -21 1780 -27 60 -74 107
-134 136 l-50 24 -1735 0 c-1723 0 -1735 -1 -1780 -21z m3418 -282 c9 -7 12
-346 12 -1641 0 -1507 -1 -1635 -17 -1647 -23 -20 -3246 -21 -3280 -1 l-23 13
0 1634 0 1635 23 5 c12 3 47 6 77 8 118 8 3196 2 3208 -6z"/>
</g>
</svg>
