<?xml version="1.0" standalone="no"?>
<!DOCTYPE svg PUBLIC "-//W3C//DTD SVG 20010904//EN"
 "http://www.w3.org/TR/2001/REC-SVG-20010904/DTD/svg10.dtd">
<svg version="1.0" xmlns="http://www.w3.org/2000/svg"
 width="2048.000000pt" height="2048.000000pt" viewBox="0 0 2048.000000 2048.000000"
 preserveAspectRatio="xMidYMid meet">
<metadata>
Created by potrace 1.13, written by Peter Selinger 2001-2015
</metadata>
<g transform="translate(0.000000,2048.000000) scale(0.192120,-0.192120)"
fill="#000000" stroke="none">
<path d="M5335 9750 c-198 -35 -317 -75 -485 -161 -387 -200 -679 -538 -815
-942 -19 -56 -37 -101 -40 -100 -72 27 -241 76 -310 90 -140 28 -482 25 -625
-5 -354 -77 -644 -239 -890 -499 -303 -321 -466 -759 -447 -1203 10 -218 48
-390 133 -590 66 -156 170 -321 286 -452 l33 -36 85 15 c53 9 158 15 280 15
219 2 357 -14 548 -62 63 -16 118 -27 121 -25 2 3 21 45 41 94 202 491 645
887 1155 1036 172 50 303 68 505 68 207 0 316 -14 493 -64 199 -56 380 -143
560 -269 119 -84 333 -298 419 -420 94 -133 192 -327 241 -479 l42 -129 80 54
c218 147 521 222 781 194 300 -32 544 -144 755 -347 191 -185 320 -427 365
-688 16 -91 16 -359 0 -396 -4 -9 -24 -23 -46 -32 -23 -9 -50 -31 -69 -57 -27
-38 -31 -51 -31 -109 0 -61 3 -70 38 -115 70 -92 68 -91 275 -88 211 3 321 -7
467 -44 109 -27 290 -106 377 -165 228 -154 402 -379 477 -617 26 -82 26 -87
26 -384 0 -237 -3 -312 -15 -359 -25 -94 -89 -233 -152 -327 -68 -101 -231
-270 -323 -335 -133 -93 -309 -166 -493 -204 -76 -16 -331 -17 -3357 -21
-2331 -2 -3318 0 -3425 8 -436 32 -839 187 -1162 446 -107 85 -275 258 -358
369 -167 223 -273 431 -344 677 -50 173 -52 203 -49 613 4 378 4 380 31 478
60 212 123 358 240 555 89 148 176 261 302 390 241 248 527 424 875 537 126
41 190 92 190 152 0 26 -5 26 -160 -14 -340 -87 -707 -300 -975 -567 -340
-339 -557 -771 -632 -1256 -24 -159 -24 -483 1 -635 68 -425 233 -793 494
-1105 353 -422 830 -688 1392 -777 109 -17 281 -18 3480 -18 3248 0 3368 1
3465 19 573 107 1008 539 1122 1113 23 121 23 385 0 506 -64 323 -231 607
-479 813 -332 276 -779 385 -1173 284 -43 -11 -80 -18 -82 -16 -2 2 10 44 27
94 16 49 30 99 30 110 0 16 23 33 97 72 538 283 905 785 1019 1391 25 131 30
448 10 593 -60 423 -249 808 -546 1106 -331 332 -745 526 -1220 570 -201 19
-467 -5 -651 -59 l-66 -19 -6 162 c-4 105 -13 195 -27 258 -147 689 -697 1211
-1384 1313 -142 21 -392 19 -521 -5z m390 -190 c386 -30 699 -173 965 -439
181 -182 283 -350 358 -591 21 -67 51 -236 57 -320 4 -47 10 -94 15 -105 34
-85 49 -114 79 -149 77 -93 133 -108 306 -82 478 73 920 -14 1300 -253 119
-76 173 -118 283 -225 233 -226 384 -479 458 -766 23 -92 24 -106 24 -461 0
-361 0 -368 -26 -465 -75 -292 -233 -565 -454 -784 -98 -97 -242 -210 -270
-210 -31 0 -56 44 -75 137 -97 470 -335 807 -711 1005 -358 189 -761 204
-1152 44 -62 -25 -119 -46 -126 -46 -33 0 -71 50 -126 164 -116 238 -223 390
-394 559 -373 369 -891 569 -1406 543 -358 -18 -671 -120 -973 -319 -88 -58
-263 -204 -338 -284 -72 -75 -179 -226 -259 -363 -86 -146 -130 -194 -179
-192 -14 0 -82 11 -151 23 -112 19 -341 30 -635 29 -81 0 -265 281 -351 540
l-29 85 0 365 0 365 30 90 c35 106 103 243 171 346 70 106 278 311 393 388
378 251 774 319 1271 220 136 -27 161 -30 199 -19 64 17 146 104 191 200 127
273 217 408 369 552 255 244 581 390 926 417 55 5 107 9 115 10 8 0 74 -4 145
-9z"/>
</g>
</svg>
