<?xml version="1.0" standalone="no"?>
<!DOCTYPE svg PUBLIC "-//W3C//DTD SVG 20010904//EN"
 "http://www.w3.org/TR/2001/REC-SVG-20010904/DTD/svg10.dtd">
<svg version="1.0" xmlns="http://www.w3.org/2000/svg"
 width="2048.000000pt" height="2048.000000pt" viewBox="0 0 2048.000000 2048.000000"
 preserveAspectRatio="xMidYMid meet">
<metadata>
Created by potrace 1.13, written by Peter Selinger 2001-2015
</metadata>
<g transform="translate(0.000000,2048.000000) scale(0.192120,-0.192120)"
fill="#000000" stroke="none">
<path d="M4366 10314 c-89 -22 -193 -81 -263 -151 -71 -71 -135 -191 -152
-287 -7 -38 -11 -271 -11 -638 l0 -578 -173 0 c-166 0 -175 -1 -225 -26 -176
-88 -208 -331 -60 -458 82 -71 -55 -66 1848 -66 1903 0 1766 -5 1848 66 148
127 116 370 -60 458 -50 25 -59 26 -225 26 l-173 0 0 578 c0 367 -4 600 -11
638 -37 206 -212 390 -420 439 -92 21 -1832 21 -1923 -1z m1840 -257 c116 -24
191 -91 236 -209 16 -44 18 -85 18 -488 0 -366 2 -440 14 -440 9 0 15 -16 18
-49 3 -27 12 -57 21 -66 10 -9 17 -20 17 -24 0 -4 22 -31 48 -58 l49 -51 -36
-6 c-48 -8 -2499 -5 -2533 3 l-27 6 50 50 c27 27 55 64 61 82 7 18 16 33 20
33 4 0 8 18 8 40 0 22 5 40 10 40 7 0 10 153 10 440 0 421 1 442 21 495 41
111 124 182 239 204 76 15 1684 13 1756 -2z m347 -1606 c43 -22 33 -39 -25
-46 -97 -11 -2436 -1 -2448 11 -15 15 11 35 58 45 20 4 566 6 1212 5 990 -1
1179 -3 1203 -15z M2479 10027 c-64 -42 -71 -71 -65 -249 3 -87 2 -158 -2
-158 -4 0 -64 38 -132 85 -138 95 -172 108 -227 93 -96 -26 -134 -149 -69
-219 13 -14 89 -68 169 -120 80 -52 146 -97 147 -100 0 -3 -69 -51 -154 -106
-85 -56 -162 -113 -171 -127 -44 -66 -23 -153 47 -196 64 -39 94 -30 249 75
78 52 143 95 145 95 3 0 1 -67 -2 -150 -6 -128 -5 -156 10 -194 41 -107 173
-125 240 -33 19 25 22 47 26 202 l5 174 133 -90 c148 -101 184 -113 247 -83
20 9 46 31 56 48 25 41 25 112 0 150 -11 16 -90 75 -176 132 l-156 102 160
105 c174 115 191 134 191 213 0 41 -5 51 -39 85 -38 38 -55 44 -121 40 -14 -1
-84 -42 -157 -92 -72 -49 -134 -89 -137 -89 -3 0 -6 72 -6 161 0 130 -3 168
-17 196 -33 71 -127 95 -194 50z m152 -509 l49 -41 0 -122 0 -122 -34 -35
c-18 -19 -48 -41 -66 -48 -28 -12 -36 -11 -67 6 -20 10 -47 31 -62 46 -24 26
-26 37 -31 135 -3 60 -3 115 0 124 3 9 27 35 55 58 65 54 92 53 156 -1z M8032
10030 c-53 -33 -62 -68 -62 -251 0 -88 -4 -159 -9 -157 -4 2 -66 42 -137 90
-71 48 -140 88 -154 89 -66 4 -83 -2 -121 -40 -34 -34 -39 -44 -39 -85 0 -79
17 -98 191 -213 l160 -105 -158 -104 c-95 -63 -166 -116 -176 -133 -23 -38
-22 -108 2 -147 25 -41 83 -68 131 -61 26 3 81 34 172 95 l133 90 5 -173 c4
-155 7 -177 26 -202 67 -92 199 -74 240 33 15 38 16 66 10 194 -3 83 -5 150
-2 150 2 0 67 -43 145 -95 155 -105 185 -114 249 -75 69 43 91 130 47 196 -9
14 -85 71 -168 125 -84 55 -153 103 -154 107 -1 4 68 52 152 107 160 104 195
140 195 200 0 87 -90 157 -173 134 -18 -5 -89 -47 -157 -94 -68 -47 -128 -85
-132 -85 -5 0 -5 67 -2 148 8 166 1 202 -46 247 -40 39 -120 46 -168 15z m124
-489 c83 -61 81 -56 79 -182 -2 -129 -8 -147 -67 -189 -51 -37 -63 -37 -120
-1 -70 45 -76 59 -76 189 l1 113 51 43 c45 39 68 53 87 55 3 1 24 -12 45 -28z
M9456 8380 c-31 -10 -62 -35 -79 -65 -7 -12 -14 -90 -17 -193 l-5 -173 -115
79 c-136 94 -170 112 -205 112 -69 0 -134 -64 -137 -133 -3 -73 15 -92 189
-208 l163 -108 -155 -102 c-86 -56 -165 -114 -176 -130 -60 -85 9 -214 116
-214 38 0 59 11 176 90 72 50 136 92 140 93 5 2 9 -72 9 -165 0 -149 2 -172
20 -200 25 -41 68 -63 124 -63 36 0 52 6 81 31 50 44 57 84 49 255 -4 79 -3
144 1 144 4 0 66 -40 139 -89 72 -48 145 -92 163 -95 41 -9 115 22 138 58 10
15 20 45 22 69 8 67 -21 98 -194 212 -84 55 -151 103 -150 107 1 4 70 52 154
107 83 54 160 112 170 127 25 39 24 114 -3 151 -11 15 -36 36 -55 46 -59 31
-98 19 -242 -80 -72 -48 -134 -90 -139 -92 -6 -2 -8 65 -6 165 3 151 1 172
-16 200 -32 53 -102 81 -160 64z m119 -528 c22 -20 43 -40 46 -45 3 -4 4 -63
1 -129 -5 -132 -9 -142 -70 -180 -45 -27 -71 -26 -121 8 -62 40 -69 61 -67
191 l1 112 35 31 c45 40 90 61 115 53 11 -3 38 -22 60 -41z M1381 8093 c-71
-37 -76 -54 -76 -249 0 -96 -1 -174 -1 -174 -1 0 -65 43 -143 95 -116 78 -148
95 -179 95 -72 0 -142 -68 -142 -140 0 -62 30 -93 195 -201 85 -55 155 -103
155 -104 0 -2 -72 -51 -161 -109 -130 -86 -163 -113 -175 -141 -18 -45 -18
-79 3 -122 22 -47 67 -73 123 -73 41 0 60 9 179 90 74 50 137 90 140 90 4 0 5
-71 3 -157 -3 -137 -1 -163 15 -193 46 -89 152 -106 221 -36 l37 36 3 175 c2
96 6 175 8 175 3 0 65 -40 137 -90 116 -80 136 -90 174 -90 84 0 143 56 143
135 0 66 -26 93 -193 204 -87 57 -156 105 -155 106 2 2 71 48 153 102 83 55
159 110 169 121 11 13 21 43 24 71 5 61 -21 111 -72 135 -68 32 -94 24 -246
-79 l-140 -96 0 168 c0 149 -2 172 -20 200 -39 65 -117 89 -179 56z m96 -486
c12 -7 37 -27 57 -45 l36 -32 0 -119 c0 -132 -7 -149 -76 -191 -47 -30 -92
-21 -144 29 l-40 38 -1 104 c-2 139 -2 138 33 168 74 62 96 70 135 48z M3772
7859 c-81 -195 -120 -472 -101 -707 23 -288 108 -544 254 -768 53 -81 57 -86
73 -70 12 12 17 34 17 74 0 48 -8 75 -57 179 -72 153 -122 297 -138 393 -8 50
-10 172 -8 370 4 266 6 304 27 386 25 99 20 148 -18 195 l-18 22 -31 -74z
M6835 7910 c-30 -33 -30 -111 0 -244 26 -117 26 -124 23 -420 -4 -295 -5 -303
-31 -386 -15 -47 -63 -157 -107 -246 -68 -138 -80 -168 -80 -212 0 -51 16
-102 32 -102 12 0 108 151 151 235 128 257 189 577 166 865 -11 146 -49 324
-90 430 -40 102 -42 105 -64 80z M4396 7810 c-99 -39 -165 -130 -174 -236 -9
-118 48 -218 155 -270 137 -68 303 -9 369 131 28 59 33 165 9 221 -57 138
-224 209 -359 154z M6079 7816 c-124 -44 -189 -135 -189 -263 0 -117 59 -207
165 -254 144 -64 321 14 371 164 20 60 15 156 -11 207 -62 123 -215 190 -336
146z M5215 7246 c-182 -85 -218 -324 -68 -455 168 -149 429 -48 459 176 14
109 -55 230 -161 279 -69 33 -161 33 -230 0z M8301 6981 c-65 -23 -97 -46
-138 -100 -37 -48 -53 -97 -53 -161 0 -25 56 -266 124 -536 l123 -492 -518
-518 c-571 -570 -562 -560 -563 -680 0 -115 78 -224 187 -260 60 -20 156 -15
207 11 19 9 267 249 551 532 l516 515 342 -116 c188 -63 363 -118 390 -122 70
-9 147 16 206 68 128 113 129 303 0 416 -43 38 -70 49 -269 114 -122 39 -223
73 -225 75 -3 2 59 67 136 146 157 159 175 188 176 288 2 194 -182 325 -369
262 -40 -13 -74 -41 -181 -146 -120 -118 -132 -127 -137 -106 -45 193 -159
642 -170 665 -57 124 -209 190 -335 145z m145 -308 c11 -17 35 -87 53 -155 71
-271 105 -352 192 -451 112 -126 175 -125 352 7 116 87 169 106 182 66 8 -24
-14 -67 -80 -155 -70 -94 -115 -185 -115 -233 0 -102 126 -251 270 -319 47
-22 96 -44 110 -48 31 -9 61 -35 54 -46 -3 -5 -24 -7 -47 -5 -45 5 -253 57
-303 76 -81 32 -283 80 -333 80 -68 0 -145 -34 -241 -106 -36 -26 -255 -238
-487 -470 -350 -351 -429 -425 -462 -435 -34 -10 -44 -9 -66 5 -14 9 -25 22
-25 29 0 23 43 70 175 194 72 66 259 251 416 409 388 393 449 486 436 664 -5
64 -85 435 -148 682 -11 46 -19 110 -19 163 l0 86 32 -3 c23 -2 38 -12 54 -35z
M1789 6179 c-132 -20 -228 -130 -229 -264 0 -33 19 -153 41 -268 23 -114 40
-210 37 -212 -3 -3 -93 33 -201 79 -220 96 -266 106 -351 82 -147 -43 -230
-205 -184 -360 20 -68 106 -144 208 -185 47 -19 100 -41 119 -48 l34 -15 -166
-166 c-190 -190 -206 -217 -207 -328 0 -120 52 -198 169 -252 45 -21 64 -24
120 -20 36 3 82 13 101 22 19 10 146 128 281 263 l247 246 613 -264 614 -264
75 0 c120 0 205 55 253 164 53 121 -3 288 -118 348 -16 9 -244 108 -505 219
-261 112 -478 209 -482 216 -3 7 -41 194 -82 416 -42 222 -83 418 -92 435 -60
118 -167 175 -295 156z m83 -293 c28 -21 42 -74 103 -382 57 -292 76 -353 133
-436 51 -75 143 -156 222 -197 76 -39 350 -158 625 -270 172 -71 183 -78 163
-111 -12 -20 -18 -21 -68 -16 -30 4 -59 11 -64 16 -6 6 -16 10 -23 10 -7 0
-57 24 -110 54 -98 53 -460 211 -648 281 -284 106 -288 108 -360 109 -62 1
-77 -3 -130 -33 -80 -45 -179 -128 -295 -246 -138 -141 -232 -199 -268 -163
-23 23 -12 47 58 128 87 101 123 153 160 232 57 119 32 196 -108 340 -135 137
-114 156 91 83 155 -55 219 -64 270 -40 49 23 131 112 161 176 25 51 26 58 26
259 0 114 3 210 7 213 10 11 36 8 55 -7z M3946 6139 c-146 -50 -250 -173 -277
-327 -30 -167 70 -361 221 -432 l50 -23 0 -1002 c0 -1121 -4 -1064 71 -1149
75 -85 94 -91 327 -94 166 -3 211 -1 251 13 64 21 123 73 155 137 l26 52 0
1008 0 1008 928 0 c1024 0 992 -2 1101 63 99 60 171 170 192 295 32 196 -97
400 -290 456 -49 14 -198 16 -1375 16 -1302 -1 -1322 -1 -1380 -21z m2658
-263 c32 -8 70 -23 85 -34 24 -18 26 -24 26 -102 0 -81 0 -83 -34 -111 -19
-15 -56 -33 -83 -38 -32 -7 -329 -11 -851 -11 -512 0 -826 -4 -867 -11 -36 -5
-83 -21 -105 -34 -50 -29 -185 -167 -185 -189 0 -9 -4 -16 -10 -16 -5 0 -10
-9 -10 -20 0 -11 -4 -20 -10 -20 -7 0 -10 -307 -10 -900 0 -898 0 -900 -21
-921 -11 -11 -23 -36 -26 -56 -8 -47 -34 -55 -169 -51 -125 3 -144 12 -144 63
0 18 -7 38 -15 45 -13 11 -15 127 -15 931 0 606 -3 919 -10 919 -5 0 -10 11
-10 25 0 14 -4 25 -8 25 -4 0 -13 15 -20 33 -6 17 -47 77 -91 132 -44 55 -84
116 -90 136 -17 57 -14 133 7 151 25 23 76 47 119 57 21 5 585 9 1263 10 1010
1 1235 -2 1284 -13z M3645 5313 c-129 -93 -361 -313 -425 -402 l-22 -32 44 7
c117 18 182 62 357 243 61 63 104 146 99 190 l-3 30 -50 -36z M6960 5302 c0
-37 7 -59 28 -90 40 -61 235 -233 300 -266 32 -16 117 -25 129 -13 9 10 -254
267 -347 338 -117 90 -110 88 -110 31z M7841 4206 c-20 -82 -13 -144 34 -301
25 -83 56 -207 70 -278 23 -119 25 -147 25 -444 0 -608 -69 -922 -279 -1283
-166 -284 -302 -464 -496 -655 -484 -480 -1086 -738 -1775 -762 -648 -22
-1267 182 -1770 585 -123 98 -301 278 -402 406 -44 56 -87 110 -95 120 -43 53
-133 202 -193 320 -79 154 -137 302 -184 464 -71 246 -71 250 -71 737 0 423 1
444 23 539 24 104 53 217 78 300 7 27 14 78 14 112 0 63 -23 139 -40 129 -13
-8 -84 -197 -119 -318 -73 -257 -105 -489 -104 -772 0 -458 96 -859 303 -1265
127 -248 273 -450 480 -664 221 -227 453 -400 720 -535 231 -118 419 -187 652
-240 224 -51 356 -65 618 -65 345 0 561 34 875 138 433 144 790 368 1115 702
465 477 729 1072 780 1754 29 385 -40 829 -185 1190 -25 63 -50 119 -54 123
-5 5 -13 -12 -20 -37z M9152 4201 c-65 -41 -72 -66 -72 -253 l0 -167 -140 94
c-120 81 -146 95 -180 95 -81 0 -140 -57 -140 -135 0 -68 28 -98 188 -202 81
-52 151 -99 155 -103 5 -4 -62 -53 -148 -109 -168 -110 -195 -138 -195 -206 0
-76 59 -135 135 -135 45 0 64 10 208 109 l117 80 0 -167 c0 -149 2 -171 20
-200 59 -97 191 -93 243 8 16 30 18 56 15 193 -2 86 1 157 5 157 5 0 66 -39
135 -87 111 -76 132 -87 176 -90 85 -7 146 52 146 139 0 58 -30 88 -194 197
-86 57 -153 108 -149 111 4 4 74 51 155 103 157 102 188 134 188 197 0 101
-110 171 -199 126 -15 -8 -80 -51 -144 -95 -64 -44 -117 -77 -118 -73 -1 4 0
77 0 162 2 132 -1 160 -16 189 -38 73 -127 101 -191 62z m124 -499 c65 -48 67
-53 70 -175 2 -104 0 -115 -23 -149 -25 -37 -75 -68 -111 -68 -19 0 -87 45
-108 71 -6 8 -14 67 -17 133 l-5 119 31 29 c41 39 88 68 108 68 9 0 34 -13 55
-28z M5233 3924 c-132 -47 -208 -201 -168 -340 13 -48 27 -69 73 -114 63 -61
108 -80 192 -80 84 0 129 19 192 80 46 45 60 66 73 114 52 180 -82 358 -269
355 -28 0 -70 -7 -93 -15z M1381 3368 c-75 -39 -83 -65 -79 -255 2 -90 2 -163
0 -163 -2 0 -64 41 -137 91 -148 101 -185 113 -245 82 -69 -36 -99 -118 -66
-181 20 -38 33 -49 191 -152 77 -50 141 -94 142 -98 1 -4 -69 -53 -157 -110
-122 -79 -162 -111 -174 -136 -55 -116 55 -239 169 -192 20 9 86 50 146 91 60
42 115 78 122 81 10 4 12 -26 9 -150 -4 -142 -3 -158 17 -198 11 -24 34 -51
50 -61 38 -23 108 -22 147 2 55 33 64 69 64 251 0 89 3 160 8 158 4 -1 67 -43
141 -93 119 -80 139 -90 177 -89 75 2 134 62 134 137 0 70 -21 92 -192 203
l-160 105 159 105 c95 62 166 116 176 133 9 16 17 49 17 74 0 51 -30 96 -83
123 -54 28 -94 14 -239 -85 l-133 -90 -5 172 c-5 183 -10 201 -58 235 -46 33
-91 36 -141 10z m139 -518 l45 -37 3 -121 3 -121 -31 -34 c-65 -75 -115 -77
-189 -9 l-40 37 -3 119 -3 118 45 40 c78 68 97 69 170 8z M5250 2541 c-113
-37 -200 -152 -200 -266 0 -98 72 -208 165 -251 109 -51 241 -22 323 71 43 49
72 121 72 180 0 93 -69 203 -154 247 -44 23 -161 34 -206 19z"/>
</g>
</svg>
