<?xml version="1.0" standalone="no"?>
<!DOCTYPE svg PUBLIC "-//W3C//DTD SVG 20010904//EN"
 "http://www.w3.org/TR/2001/REC-SVG-20010904/DTD/svg10.dtd">
<svg version="1.0" xmlns="http://www.w3.org/2000/svg"
 width="2048.000000pt" height="2048.000000pt" viewBox="0 0 2048.000000 2048.000000"
 preserveAspectRatio="xMidYMid meet">
<metadata>
Created by potrace 1.13, written by Peter Selinger 2001-2015
</metadata>
<g transform="translate(0.000000,2048.000000) scale(0.192120,-0.192120)"
fill="#000000" stroke="none">
<path d="M9190 10324 c-688 -63 -1440 -296 -2370 -733 -772 -364 -1854 -997
-2516 -1471 -1701 -1221 -2964 -2884 -3364 -4432 -94 -367 -130 -638 -130
-983 0 -318 27 -536 101 -795 106 -377 316 -754 536 -961 372 -350 937 -555
1473 -536 341 13 644 95 982 269 548 280 873 629 1202 1287 159 317 268 581
546 1326 437 1173 589 1555 830 2085 582 1281 1261 2390 1988 3242 182 214
602 638 782 790 217 182 466 364 615 448 68 39 150 111 171 152 32 63 8 140
-61 192 -53 41 -153 85 -231 101 -68 15 -454 28 -554 19z m465 -266 c14 -6 25
-15 25 -19 0 -15 -85 -89 -215 -186 -821 -612 -1606 -1540 -2307 -2724 -266
-448 -558 -1003 -786 -1489 -262 -559 -415 -932 -732 -1781 -559 -1496 -688
-1796 -938 -2179 -232 -355 -484 -587 -812 -747 -116 -57 -160 -71 -160 -51 0
7 53 65 118 128 201 196 321 369 427 616 102 239 125 360 125 659 0 265 -9
333 -70 515 -92 274 -207 463 -410 674 -437 453 -1071 615 -1660 425 -316
-102 -603 -306 -820 -584 -84 -107 -94 -124 -164 -257 -75 -143 -114 -249
-162 -442 -37 -146 -56 -191 -68 -161 -3 9 -6 177 -6 374 0 336 1 365 25 500
126 718 474 1499 1010 2266 704 1008 1695 1935 2850 2667 1141 723 2153 1236
3025 1533 453 154 917 256 1275 279 107 7 404 -4 430 -16z m-6757 -6309 c351
-37 655 -183 900 -430 117 -119 193 -225 266 -374 101 -202 143 -355 155 -555
27 -461 -129 -859 -460 -1175 -443 -422 -1115 -521 -1664 -243 -417 211 -706
597 -791 1059 -24 128 -24 380 0 509 35 193 119 402 230 569 293 441 839 697
1364 640z M7850 8955 c-142 -37 -468 -228 -860 -503 -651 -456 -1271 -938
-1654 -1284 -157 -142 -149 -142 -144 -16 4 98 9 116 93 363 72 212 89 274 93
337 4 67 2 81 -18 113 -75 121 -157 120 -395 -3 -368 -192 -856 -552 -1292
-954 -764 -704 -1508 -1639 -1853 -2329 -109 -215 -135 -350 -89 -442 32 -64
85 -124 135 -153 40 -24 53 -26 112 -22 40 3 126 24 212 51 229 73 376 102
590 117 150 10 342 0 473 -25 332 -62 627 -213 871 -445 155 -147 251 -282
371 -519 65 -130 88 -165 144 -221 102 -103 169 -112 262 -35 82 70 124 145
202 370 158 455 476 1252 695 1740 680 1514 1294 2563 1957 3338 209 245 280
357 273 434 l-3 38 -186 -185 c-203 -203 -310 -327 -504 -585 -781 -1039
-1676 -2840 -2360 -4747 -74 -205 -95 -248 -131 -277 -64 -50 -106 -12 -175
160 -96 240 -228 439 -418 630 -274 273 -572 433 -960 516 -118 26 -143 27
-376 27 -218 1 -265 -2 -370 -22 -205 -39 -393 -93 -563 -161 -70 -28 -98 -27
-118 4 -86 131 300 809 856 1504 679 849 1458 1559 2180 1986 120 71 420 230
420 222 0 -2 -27 -73 -61 -157 -130 -329 -257 -744 -299 -979 -19 -111 -28
-301 -12 -301 4 0 14 12 23 28 119 208 732 752 1470 1304 574 430 1042 744
1559 1046 11 7 9 12 -12 26 -34 22 -81 26 -138 11z M4106 6715 c-128 -52 -325
-204 -676 -520 -515 -463 -1052 -1061 -1325 -1475 -93 -141 -129 -200 -122
-200 2 0 33 37 68 82 215 278 473 562 884 974 527 528 894 851 1212 1064 87
58 126 90 116 94 -32 13 -101 4 -157 -19z M4281 6673 c-72 -279 -120 -741 -92
-888 15 -81 49 -145 91 -173 132 -89 455 95 948 542 118 106 121 111 95 116
-40 8 -97 -6 -143 -35 -22 -14 -44 -25 -48 -25 -10 0 -49 -29 -232 -170 -252
-195 -396 -281 -485 -288 -91 -7 -90 -11 -93 268 -2 180 1 268 12 346 28 188
19 294 -28 333 -13 11 -16 7 -25 -26z M5308 6123 c-138 -263 -261 -616 -343
-983 -100 -446 -164 -1059 -165 -1585 -1 -268 -1 -263 11 -243 37 64 72 297
119 798 76 794 172 1243 378 1761 58 146 82 231 82 296 0 45 -4 63 -13 63 -7
0 -38 -48 -69 -107z"/>
</g>
</svg>
