<?xml version="1.0" standalone="no"?>
<!DOCTYPE svg PUBLIC "-//W3C//DTD SVG 20010904//EN"
 "http://www.w3.org/TR/2001/REC-SVG-20010904/DTD/svg10.dtd">
<svg version="1.0" xmlns="http://www.w3.org/2000/svg"
 width="2048.000000pt" height="2048.000000pt" viewBox="0 0 2048.000000 2048.000000"
 preserveAspectRatio="xMidYMid meet">
<metadata>
Created by potrace 1.13, written by Peter Selinger 2001-2015
</metadata>
<g transform="translate(0.000000,2048.000000) scale(0.192120,-0.192120)"
fill="#000000" stroke="none">
<path d="M1320 10324 c-273 -42 -463 -131 -640 -301 -176 -167 -284 -364 -332
-603 -19 -96 -19 -8084 0 -8180 44 -218 140 -404 289 -560 167 -175 365 -284
603 -332 100 -20 8084 -19 8185 1 451 90 796 436 887 891 19 96 19 8084 0
8180 -45 223 -141 407 -298 570 -156 162 -327 258 -563 318 -61 15 -367 16
-4086 18 -2211 1 -4031 0 -4045 -2z m8135 -311 c254 -71 468 -244 556 -451
l28 -67 1 -4161 0 -4161 -29 -72 c-96 -232 -295 -400 -562 -473 l-84 -23
-4035 0 -4035 0 -85 22 c-173 46 -366 166 -457 284 -58 76 -119 186 -137 250
-15 49 -16 446 -14 4194 l3 4140 24 50 c122 255 353 427 644 480 59 11 825 13
4087 12 l4015 -2 80 -22z M7965 8909 c-273 -40 -507 -215 -723 -539 -43 -64
-673 -1035 -1402 -2158 -729 -1124 -1340 -2062 -1359 -2084 -30 -35 -38 -39
-64 -34 -17 3 -45 18 -64 32 -18 14 -280 253 -581 531 -301 278 -585 535 -632
570 -103 77 -219 136 -326 164 -94 25 -276 30 -369 10 -267 -58 -521 -263
-653 -527 -75 -151 -82 -182 -82 -396 0 -169 2 -191 24 -256 64 -187 164 -338
343 -514 211 -208 1919 -1781 2003 -1844 46 -35 110 -77 142 -94 134 -72 299
-107 447 -97 264 20 484 153 676 409 49 66 3325 5111 3438 5296 76 123 128
227 163 327 26 74 29 93 32 256 3 158 1 184 -18 249 -79 264 -268 498 -496
614 -162 81 -328 110 -499 85z m290 -256 c33 -8 98 -33 145 -56 67 -33 103
-59 171 -127 72 -71 94 -100 133 -180 100 -205 102 -414 4 -610 -24 -47 -828
-1295 -1788 -2775 -1625 -2506 -1750 -2696 -1825 -2771 -135 -135 -290 -198
-485 -198 -157 1 -309 52 -420 142 -102 84 -2059 1898 -2108 1955 -107 124
-162 276 -162 447 0 163 44 294 145 427 219 293 665 351 961 127 28 -22 345
-311 704 -644 747 -691 750 -694 753 -689 2 2 40 63 86 134 46 72 730 1127
1520 2345 1295 1998 1443 2222 1511 2290 41 41 100 90 132 108 154 91 346 118
523 75z"/>
</g>
</svg>
