<?xml version="1.0" standalone="no"?>
<!DOCTYPE svg PUBLIC "-//W3C//DTD SVG 20010904//EN"
 "http://www.w3.org/TR/2001/REC-SVG-20010904/DTD/svg10.dtd">
<svg version="1.0" xmlns="http://www.w3.org/2000/svg"
 width="2048.000000pt" height="2048.000000pt" viewBox="0 0 2048.000000 2048.000000"
 preserveAspectRatio="xMidYMid meet">
<metadata>
Created by potrace 1.13, written by Peter Selinger 2001-2015
</metadata>
<g transform="translate(0.000000,2048.000000) scale(0.192120,-0.192120)"
fill="#000000" stroke="none">
<path d="M6738 9565 c-203 -50 -376 -226 -417 -423 -14 -67 -16 -3442 -2
-3442 17 0 111 111 111 131 0 10 5 19 10 19 6 0 10 18 10 40 0 22 5 40 10 40
7 0 10 525 10 1554 0 1535 0 1554 20 1617 26 80 60 130 119 173 92 66 208 93
321 75 134 -21 227 -86 282 -197 l33 -67 3 -1582 c2 -1318 5 -1583 16 -1583 9
0 15 -19 19 -57 3 -31 10 -59 14 -62 4 -3 21 -24 36 -47 15 -22 41 -53 57 -69
l30 -29 0 1725 c0 1901 4 1776 -62 1903 -39 74 -153 190 -225 229 -112 60
-273 81 -395 52z M5474 6725 c-69 -15 -168 -61 -223 -104 -20 -15 -67 -44
-106 -64 -146 -77 -244 -177 -315 -322 -62 -128 -70 -190 -70 -531 l0 -296
-56 -61 c-263 -289 -283 -735 -47 -1041 42 -55 44 -60 31 -84 -22 -43 -125
-148 -178 -182 -89 -57 -181 -83 -295 -83 -164 1 -291 56 -406 175 -56 59
-121 183 -137 263 -6 30 -13 405 -17 940 -7 804 -6 897 9 959 16 69 59 160 96
204 18 22 22 23 73 12 55 -11 136 -7 178 8 13 5 61 15 107 22 66 10 99 10 160
0 118 -18 182 -63 282 -197 68 -90 98 -117 140 -127 47 -10 56 5 42 76 -29
145 -141 297 -270 366 -71 38 -195 72 -262 72 -103 0 -239 -43 -320 -100 -16
-11 -55 -30 -85 -40 -145 -50 -283 -169 -347 -300 -69 -141 -68 -113 -68
-1026 0 -785 -1 -824 -20 -898 -11 -43 -32 -101 -47 -129 -35 -67 -163 -195
-230 -230 -66 -35 -191 -67 -263 -67 -72 0 -196 32 -263 67 -71 37 -196 165
-226 230 l-24 52 47 62 c31 43 46 72 46 94 0 17 4 35 9 41 6 5 11 240 13 584
4 568 4 576 26 636 13 34 44 87 70 120 90 111 174 149 320 142 92 -4 123 -16
302 -114 53 -29 72 -35 104 -31 21 3 46 12 54 20 13 14 12 21 -13 64 -64 108
-195 205 -321 237 -77 20 -212 20 -284 1 -156 -41 -289 -151 -358 -296 -23
-46 -45 -111 -51 -143 -14 -75 -14 -1366 -1 -1766 10 -306 25 -456 66 -657
101 -501 336 -1003 654 -1403 99 -124 299 -331 425 -440 459 -395 1029 -661
1625 -759 378 -62 772 -59 1106 9 759 154 1454 631 1902 1305 265 398 414 829
438 1270 19 345 -107 918 -321 1460 -171 433 -211 510 -329 633 -127 135 -332
242 -516 271 -42 7 -458 11 -1177 11 l-1113 0 0 309 c0 337 4 374 55 475 l30
61 85 1 c47 0 94 4 105 7 171 56 279 69 387 46 70 -15 101 -32 161 -87 96 -91
125 -178 137 -417 6 -108 13 -181 20 -183 5 -2 10 -11 10 -19 0 -19 43 -78 79
-110 l26 -23 3 287 c3 316 0 339 -60 457 -42 83 -154 193 -238 234 -117 57
-244 74 -366 47z m2206 -1381 c80 -23 170 -74 181 -102 5 -13 9 -60 9 -105 0
-99 12 -144 77 -307 84 -208 174 -446 253 -675 21 -60 43 -146 49 -190 7 -44
16 -110 21 -148 6 -37 10 -246 10 -465 l0 -397 -30 -115 c-104 -406 -344 -820
-669 -1154 -450 -461 -1009 -746 -1632 -833 -167 -23 -541 -23 -729 1 -901
111 -1688 570 -2196 1281 -256 358 -416 723 -518 1185 -39 179 -48 201 -137
370 -37 69 -70 136 -74 149 -7 23 -5 23 41 -11 181 -132 473 -177 724 -113
158 40 337 156 425 276 l43 59 45 -63 c111 -154 268 -252 466 -292 124 -26
317 -17 426 19 186 61 349 188 451 354 1 2 30 -13 65 -32 127 -70 143 -71 624
-69 l430 3 -55 -47 c-468 -395 -759 -1077 -773 -1813 -2 -104 1 -131 16 -157
35 -65 114 -90 182 -57 55 26 75 65 75 150 0 111 19 318 40 446 41 239 106
442 210 653 170 347 387 581 665 716 127 61 233 88 384 98 130 8 157 18 192
74 28 45 22 127 -12 163 -51 56 -23 54 -901 54 -892 0 -859 -2 -987 61 -43 21
-90 57 -137 104 -221 221 -221 560 0 781 98 98 205 151 331 163 33 3 578 5
1210 3 1009 -2 1157 -4 1205 -18z"/>
</g>
</svg>
