<?xml version="1.0" standalone="no"?>
<!DOCTYPE svg PUBLIC "-//W3C//DTD SVG 20010904//EN"
 "http://www.w3.org/TR/2001/REC-SVG-20010904/DTD/svg10.dtd">
<svg version="1.0" xmlns="http://www.w3.org/2000/svg"
 width="2048.000000pt" height="2048.000000pt" viewBox="0 0 2048.000000 2048.000000"
 preserveAspectRatio="xMidYMid meet">
<metadata>
Created by potrace 1.13, written by Peter Selinger 2001-2015
</metadata>
<g transform="translate(0.000000,2048.000000) scale(0.192120,-0.192120)"
fill="#000000" stroke="none">
<path d="M6738 9565 c-206 -50 -381 -230 -418 -430 -8 -43 -10 -546 -8 -1770
l3 -1710 50 50 c77 78 88 95 93 150 3 27 10 53 16 57 8 5 12 444 16 1585 l5
1578 23 55 c36 90 98 160 177 200 65 33 75 35 165 35 89 0 100 -2 164 -34 77
-40 132 -98 174 -188 l27 -58 3 -1592 c2 -1338 4 -1593 16 -1593 9 0 15 -17
18 -53 2 -30 10 -60 16 -68 41 -50 120 -154 119 -156 -2 -1 -32 2 -67 7 -37 6
-542 10 -1177 10 l-1113 0 0 313 c0 319 3 347 42 440 l20 47 63 0 c48 0 92 10
182 41 210 72 363 66 475 -19 114 -87 158 -204 158 -419 0 -82 4 -133 10 -133
6 0 10 -18 10 -40 0 -59 23 -104 82 -163 l53 -52 3 309 c3 341 0 361 -60 480
-42 83 -154 193 -238 234 -71 35 -179 62 -250 62 -107 0 -252 -51 -339 -119
-20 -15 -67 -44 -106 -64 -175 -91 -291 -227 -352 -412 -27 -79 -27 -84 -31
-410 l-3 -330 -33 -35 c-145 -154 -221 -329 -232 -535 -11 -183 48 -377 159
-524 58 -76 58 -78 -33 -174 -116 -124 -239 -180 -400 -181 -210 -1 -398 111
-495 295 -65 123 -63 103 -71 1079 -8 976 -8 971 54 1085 l27 50 95 1 c78 0
110 5 180 30 74 25 99 29 195 29 91 0 118 -4 157 -22 69 -31 133 -96 204 -205
66 -102 107 -138 157 -138 26 0 27 2 27 53 0 176 -125 369 -293 452 -75 37
-183 65 -253 65 -95 0 -235 -44 -312 -98 -15 -11 -62 -33 -104 -50 -173 -67
-302 -198 -366 -373 l-27 -74 -5 -875 -5 -875 -24 -62 c-61 -166 -195 -298
-359 -355 -95 -32 -249 -32 -344 0 -120 41 -252 147 -294 235 -17 35 -16 35
21 96 21 33 42 80 48 103 6 26 13 278 16 643 6 553 7 604 25 650 26 72 83 153
130 187 155 113 336 96 525 -48 82 -63 137 -77 191 -49 l29 15 -16 37 c-60
145 -202 265 -363 308 -71 19 -209 19 -280 0 -199 -53 -363 -224 -405 -422
-12 -55 -15 -200 -14 -778 0 -794 11 -1244 33 -1415 69 -514 243 -984 516
-1399 141 -214 241 -335 439 -531 549 -547 1239 -870 2026 -951 164 -17 497
-14 648 5 653 83 1251 380 1732 861 478 477 768 1062 826 1665 31 326 -46 770
-226 1298 -69 205 -203 539 -265 662 -103 205 -290 370 -508 446 l-67 23 -5
1773 -5 1773 -23 56 c-51 126 -143 234 -257 299 -109 62 -272 85 -397 55z
m-1760 -4025 c12 -16 22 -38 22 -48 0 -21 -36 -72 -51 -72 -5 0 -9 34 -9 75 0
41 4 75 8 75 5 0 18 -13 30 -30z m2689 -192 c29 -9 69 -24 90 -34 36 -18 38
-22 63 -124 15 -59 75 -226 137 -380 165 -410 270 -749 322 -1039 18 -99 21
-156 21 -423 0 -275 -2 -320 -21 -411 -69 -337 -252 -722 -472 -993 -75 -92
-371 -384 -472 -465 -545 -439 -1152 -646 -1830 -626 -745 22 -1413 277 -1980
756 -136 115 -313 295 -394 401 -312 409 -508 831 -606 1310 -35 170 -47 205
-121 352 -35 70 -64 132 -64 137 0 6 33 -7 73 -29 171 -92 436 -119 648 -65
154 39 337 158 423 275 l44 59 50 -68 c64 -89 166 -172 267 -221 131 -63 187
-75 370 -75 140 0 169 3 235 23 168 53 307 150 419 292 22 27 41 55 43 61 2 7
28 -3 68 -25 128 -70 143 -71 623 -68 235 1 427 0 427 -2 0 -2 -40 -38 -90
-80 -431 -369 -718 -1063 -732 -1766 -2 -113 0 -140 15 -167 35 -65 114 -90
182 -57 63 30 71 53 79 237 16 385 91 695 240 1002 171 352 393 593 672 726
130 63 230 88 380 98 133 8 160 18 194 74 42 68 14 162 -60 199 -32 17 -94 18
-849 18 -897 0 -872 -2 -996 63 -33 17 -92 63 -131 102 -140 139 -194 330
-149 524 51 215 249 391 475 422 30 4 573 6 1205 5 1006 -3 1157 -5 1202 -18z
m-1397 -1309 c11 -8 12 -12 3 -16 -7 -2 -13 -9 -13 -14 0 -14 -50 -56 -84 -70
-26 -11 -31 -10 -48 10 -22 28 -32 65 -24 86 4 11 23 15 78 15 40 0 80 -5 88
-11z"/>
</g>
</svg>
