<?xml version="1.0" standalone="no"?>
<!DOCTYPE svg PUBLIC "-//W3C//DTD SVG 20010904//EN"
 "http://www.w3.org/TR/2001/REC-SVG-20010904/DTD/svg10.dtd">
<svg version="1.0" xmlns="http://www.w3.org/2000/svg"
 width="2048.000000pt" height="2048.000000pt" viewBox="0 0 2048.000000 2048.000000"
 preserveAspectRatio="xMidYMid meet">
<metadata>
Created by potrace 1.13, written by Peter Selinger 2001-2015
</metadata>
<g transform="translate(0.000000,2048.000000) scale(0.192120,-0.192120)"
fill="#000000" stroke="none">
<path d="M4970 10039 c-1512 -119 -2868 -948 -3664 -2239 -366 -593 -591
-1254 -673 -1972 -25 -217 -25 -779 0 -996 66 -583 214 -1085 473 -1607 239
-484 530 -883 925 -1270 451 -442 962 -775 1554 -1013 1017 -408 2188 -442
3235 -93 214 72 382 141 595 245 1396 686 2370 2028 2589 3566 29 205 37 308
43 566 8 365 -18 687 -83 1012 -237 1194 -911 2236 -1903 2944 -694 495 -1518
791 -2390 858 -155 12 -546 11 -701 -1z m675 -269 c402 -30 757 -99 1112 -216
1135 -374 2071 -1172 2592 -2212 192 -381 301 -706 399 -1187 l26 -130 4 -652
c3 -620 2 -659 -18 -780 -64 -395 -197 -823 -368 -1188 -232 -492 -591 -984
-978 -1341 -727 -669 -1590 -1062 -2599 -1180 -213 -25 -757 -25 -970 0 -923
108 -1702 435 -2415 1014 -153 125 -499 475 -624 632 -191 240 -343 477 -497
775 -203 392 -326 768 -421 1285 -20 107 -22 157 -26 690 -4 607 -3 632 44
890 273 1499 1328 2750 2794 3313 426 163 819 247 1365 290 99 8 453 6 580 -3z
M4831 9035 c-210 -46 -534 -190 -766 -342 -147 -96 -257 -187 -380 -315 -182
-188 -300 -357 -417 -598 -147 -302 -218 -601 -218 -922 0 -135 -2 -150 -20
-168 -12 -12 -20 -33 -20 -55 0 -31 -5 -37 -42 -56 -288 -147 -617 -444 -830
-749 -130 -186 -263 -476 -323 -705 -50 -189 -55 -240 -55 -546 0 -316 8 -381
70 -599 44 -153 89 -239 169 -320 72 -74 117 -93 162 -70 45 23 120 105 145
158 24 53 24 53 24 406 0 349 0 355 25 442 46 159 142 330 252 450 125 137
315 261 495 325 101 36 102 35 109 -199 5 -168 9 -199 38 -305 32 -121 41
-148 93 -277 60 -148 179 -363 271 -490 195 -267 489 -524 692 -607 107 -43
109 -58 21 -141 -206 -193 -575 -305 -900 -273 -270 26 -486 112 -716 282
-114 85 -198 129 -243 129 -66 0 -190 -109 -217 -191 -17 -51 -1 -110 57 -209
58 -99 87 -135 208 -255 260 -259 596 -449 954 -539 536 -136 1060 -79 1540
167 86 44 190 98 232 120 60 30 83 38 106 33 16 -4 86 -39 154 -78 68 -39 167
-90 219 -115 589 -276 1299 -265 1885 28 288 144 575 383 713 593 51 78 92
176 92 219 0 47 -41 116 -100 169 -111 98 -157 87 -426 -109 -222 -162 -482
-246 -764 -246 -217 -1 -382 35 -565 123 -168 81 -309 199 -292 245 4 8 36 28
73 45 116 52 290 180 424 311 313 306 531 697 637 1139 19 82 26 142 30 277 6
203 2 197 114 157 358 -128 639 -412 734 -740 25 -85 25 -93 25 -435 0 -221 4
-350 10 -354 6 -3 10 -19 10 -35 0 -67 149 -230 211 -230 14 0 46 13 70 30
111 73 185 224 255 515 29 119 29 122 29 435 0 346 -3 374 -71 611 -172 603
-567 1100 -1112 1398 -60 33 -67 40 -73 74 -3 21 -11 43 -18 50 -7 7 -11 57
-11 142 0 411 -130 838 -366 1200 -232 358 -554 651 -899 820 -211 104 -480
186 -617 187 -67 1 -82 -2 -117 -25 -68 -45 -109 -87 -141 -142 -36 -62 -37
-86 -7 -143 54 -105 145 -187 257 -233 224 -91 360 -178 500 -319 138 -137
228 -283 274 -444 25 -84 26 -100 26 -335 0 -199 -3 -251 -14 -267 -14 -18
-16 -18 -48 12 -145 135 -156 143 -253 191 -453 227 -1011 263 -1514 97 -199
-65 -320 -128 -420 -219 -88 -79 -117 -91 -127 -51 -3 13 -4 133 -2 267 5 272
10 297 94 462 124 246 362 457 650 577 148 61 195 91 253 156 46 53 91 140 91
179 0 40 -33 96 -89 150 -97 95 -156 111 -300 80z m227 -221 l-3 -36 -90 -23
c-462 -117 -845 -467 -1004 -918 -58 -166 -75 -271 -75 -477 -1 -266 36 -429
150 -656 214 -429 646 -732 1121 -785 l103 -12 0 -97 0 -97 -42 -13 c-158 -47
-272 -175 -300 -337 -9 -56 -9 -80 4 -136 17 -78 23 -69 -85 -133 -82 -49 -67
-55 -147 56 -24 34 -79 97 -122 140 -487 491 -1251 568 -1830 185 -132 -88
-310 -264 -396 -393 -113 -170 -193 -369 -227 -567 -35 -200 -18 -468 40 -652
l22 -72 -29 -12 c-16 -6 -31 -9 -34 -7 -12 13 -75 216 -98 318 -37 166 -48
274 -47 460 0 335 71 634 218 923 217 426 555 748 996 947 54 25 102 52 107
60 4 8 3 44 -2 80 -6 36 -10 153 -10 260 0 193 12 316 47 467 86 370 326 777
602 1019 98 85 288 214 433 295 229 126 547 243 673 248 26 1 28 -1 25 -35z
m672 12 c303 -69 595 -202 827 -374 110 -83 294 -261 376 -365 235 -298 378
-625 432 -992 20 -132 23 -405 6 -524 -15 -101 -14 -101 99 -150 180 -78 399
-220 555 -359 345 -306 575 -751 650 -1257 32 -215 17 -516 -36 -730 -18 -74
-88 -295 -95 -304 -2 -2 -17 2 -34 9 -25 10 -30 17 -25 34 121 410 92 772 -90
1124 -207 399 -582 674 -1030 758 -144 27 -393 25 -531 -4 -296 -64 -529 -187
-735 -392 -58 -58 -129 -137 -156 -176 l-49 -72 -86 50 -86 49 15 47 c9 31 13
75 11 127 -9 173 -125 322 -289 371 l-59 18 0 97 0 97 63 7 c341 35 647 178
881 410 637 633 560 1670 -164 2202 -137 101 -318 186 -483 228 l-92 23 -3 36
c-4 43 -8 43 128 12z m-166 -1551 c200 -26 420 -92 586 -175 106 -52 190 -103
190 -115 0 -20 -69 -155 -111 -217 -44 -64 -146 -178 -160 -178 -4 0 -34 16
-67 35 -85 51 -234 109 -353 139 -339 84 -712 33 -1014 -139 -44 -25 -84 -44
-90 -41 -38 14 -205 258 -241 352 -21 56 -23 55 116 128 207 108 428 181 645
210 136 19 360 19 499 1z m46 -778 c116 -30 305 -100 325 -121 20 -20 19 -25
-12 -53 -59 -52 -182 -101 -358 -143 -66 -16 -140 -38 -165 -49 -57 -26 -86
-26 -143 -1 -25 11 -110 36 -188 56 -157 39 -285 89 -339 134 -29 24 -33 32
-24 47 23 37 249 122 394 147 134 24 388 15 510 -17z m-190 -1066 l55 -38 3
-96 c2 -84 0 -99 -17 -116 -60 -60 -276 -38 -295 31 -3 13 -6 52 -6 87 0 61 2
66 39 101 47 45 119 82 146 74 11 -3 45 -23 75 -43z m-1698 -75 c40 -8 98 -23
128 -33 54 -18 55 -19 58 -58 9 -157 65 -354 143 -513 110 -222 288 -422 488
-550 l73 -47 -7 -59 c-8 -72 -44 -182 -95 -291 -61 -130 -54 -126 -141 -76
-530 303 -881 845 -948 1463 -17 154 -16 166 17 171 64 10 216 6 284 -7z
m3504 2 c11 -12 -16 -255 -42 -378 -84 -392 -304 -765 -607 -1031 -91 -80
-271 -206 -356 -249 -52 -26 -44 -33 -111 105 -47 96 -81 203 -95 298 -7 45
-7 46 32 66 70 35 199 138 283 223 155 160 275 358 339 560 33 105 61 246 61
310 0 35 4 41 33 52 31 13 150 41 212 50 46 6 243 2 251 -6z m-2932 -155 c33
-24 117 -99 187 -168 128 -124 128 -125 163 -219 66 -175 77 -230 74 -367 l-3
-124 -163 154 c-89 84 -182 181 -206 215 -100 142 -159 278 -195 453 -20 97
-20 104 -4 122 17 20 17 20 52 -1 20 -12 63 -41 95 -65z m2182 16 c12 -14 12
-27 -6 -100 -43 -180 -80 -267 -169 -396 -68 -100 -124 -161 -265 -286 -65
-59 -102 -85 -108 -79 -6 6 -8 58 -6 129 4 103 9 133 42 233 21 63 42 119 47
125 5 5 9 16 9 26 0 9 55 71 123 139 134 135 175 170 257 224 48 32 55 34 59
19 1 -10 9 -25 17 -34z m-1346 -286 c143 -87 348 -63 482 56 l47 42 81 -47
c44 -26 80 -50 80 -54 0 -4 -15 -40 -34 -81 -143 -311 -160 -717 -45 -1047 79
-224 180 -385 348 -553 214 -213 442 -336 741 -400 151 -32 410 -32 560 0 288
62 517 182 724 381 101 98 101 98 124 80 12 -10 22 -23 22 -29 0 -16 -246
-266 -327 -333 -357 -292 -824 -458 -1288 -458 -471 0 -867 136 -1290 445 -24
17 -21 18 -166 -80 -475 -324 -1020 -433 -1586 -320 -434 88 -823 312 -1120
645 l-93 105 23 17 c32 25 40 23 76 -22 75 -94 286 -248 436 -320 196 -93 383
-134 615 -134 191 0 299 16 458 69 493 165 849 566 965 1085 29 129 31 432 4
559 -25 114 -62 231 -103 321 -19 41 -31 76 -27 77 4 2 44 25 88 52 l80 48 45
-41 c25 -23 61 -51 80 -63z"/>
</g>
</svg>
