<?xml version="1.0" standalone="no"?>
<!DOCTYPE svg PUBLIC "-//W3C//DTD SVG 20010904//EN"
 "http://www.w3.org/TR/2001/REC-SVG-20010904/DTD/svg10.dtd">
<svg version="1.0" xmlns="http://www.w3.org/2000/svg"
 width="2048.000000pt" height="2048.000000pt" viewBox="0 0 2048.000000 2048.000000"
 preserveAspectRatio="xMidYMid meet">
<metadata>
Created by potrace 1.13, written by Peter Selinger 2001-2015
</metadata>
<g transform="translate(0.000000,2048.000000) scale(0.192120,-0.192120)"
fill="#000000" stroke="none">
<path d="M5070 10324 c-169 -12 -337 -29 -476 -49 -1166 -172 -2240 -758
-3023 -1651 -1174 -1338 -1547 -3196 -981 -4884 448 -1335 1444 -2423 2740
-2993 912 -400 1954 -516 2945 -326 449 86 841 218 1260 424 1812 890 2911
2784 2785 4795 -96 1514 -860 2886 -2103 3772 -387 276 -903 534 -1352 678
-389 124 -806 202 -1220 230 -136 9 -464 11 -575 4z m790 -228 c786 -94 1483
-346 2115 -764 578 -382 1034 -852 1430 -1472 54 -85 126 -195 158 -245 71
-107 152 -274 237 -485 100 -248 200 -568 200 -640 0 -40 74 -437 103 -550 21
-82 22 -104 22 -615 0 -579 -2 -600 -71 -945 -135 -672 -409 -1302 -806 -1854
-141 -195 -210 -275 -404 -467 -374 -369 -610 -560 -967 -785 -171 -107 -552
-300 -737 -373 -733 -289 -1481 -397 -2262 -325 -970 88 -1879 462 -2633 1082
-144 118 -438 398 -539 512 -198 225 -442 573 -590 845 -284 518 -429 935
-525 1505 -42 248 -43 276 -38 870 l4 575 31 172 c159 881 500 1608 1075 2296
125 149 397 421 549 549 735 619 1602 996 2548 1107 246 29 237 29 620 26 239
-2 387 -8 480 -19z M3710 7590 c-658 -51 -1193 -263 -1581 -628 -101 -94 -129
-147 -129 -242 0 -121 80 -231 191 -264 118 -35 182 -15 314 100 181 157 318
242 519 321 301 119 646 172 1031 159 110 -4 227 -11 260 -16 33 -5 101 -12
151 -16 78 -6 96 -4 135 13 109 48 169 140 169 257 -1 148 -86 247 -240 276
-191 37 -603 56 -820 40z m-773 -462 c-3 -8 -6 -5 -6 6 -1 11 2 17 5 13 3 -3
4 -12 1 -19z m-50 -20 c-3 -8 -6 -5 -6 6 -1 11 2 17 5 13 3 -3 4 -12 1 -19z
m-17 -5 c0 -8 -4 -11 -10 -8 -5 3 -10 1 -10 -5 0 -6 -4 -8 -10 -5 -5 3 -10 2
-10 -3 0 -5 -19 -17 -41 -28 -23 -10 -47 -23 -53 -29 -6 -6 -56 -40 -111 -76
-55 -36 -116 -80 -135 -98 -52 -47 -132 -99 -161 -106 -20 -5 -28 -2 -33 11
-15 40 184 191 365 277 186 89 209 96 209 70z M6460 7590 c-158 -12 -331 -36
-391 -56 -150 -48 -225 -237 -153 -382 30 -60 80 -107 143 -135 39 -17 57 -19
135 -13 50 4 118 11 151 16 113 17 454 23 598 11 419 -35 778 -152 1042 -339
39 -27 115 -89 170 -136 132 -115 196 -135 314 -100 111 33 191 143 191 264 0
87 -30 148 -111 226 -361 346 -856 561 -1449 628 -172 20 -478 27 -640 16z
m1337 -492 c-3 -8 -6 -5 -6 6 -1 11 2 17 5 13 3 -3 4 -12 1 -19z m90 -15 c32
-14 87 -40 123 -57 138 -64 350 -219 350 -255 0 -10 -3 -20 -6 -24 -14 -14
-95 29 -178 97 -50 40 -120 92 -156 114 -36 23 -72 48 -80 56 -8 8 -36 24 -62
37 -27 13 -48 27 -48 32 0 4 -4 5 -10 2 -5 -3 -10 1 -10 9 0 22 10 20 77 -11z
M3830 5935 c-210 -28 -416 -88 -574 -167 -199 -99 -378 -249 -409 -342 -46
-137 7 -271 134 -341 45 -24 66 -29 124 -29 89 -1 137 21 230 104 80 71 226
147 345 180 257 71 616 77 922 17 145 -28 239 -28 293 0 193 102 209 369 28
483 -51 32 -128 52 -318 82 -171 26 -617 34 -775 13z m-370 -392 c0 -9 -3 -14
-6 -10 -3 3 -11 1 -18 -4 -6 -6 -23 -18 -37 -27 -15 -9 -60 -40 -100 -68 -109
-75 -138 -89 -155 -72 -12 12 -12 17 2 36 33 47 198 133 312 161 1 1 2 -6 2
-16z M6190 5939 c-115 -12 -319 -47 -380 -65 -64 -19 -127 -68 -164 -127 -22
-36 -30 -62 -34 -117 -6 -87 14 -145 72 -208 81 -88 162 -107 316 -74 171 37
279 46 505 46 164 0 244 -5 315 -17 216 -40 386 -113 506 -218 93 -82 141
-104 229 -103 86 0 155 32 209 96 62 72 80 167 50 269 -13 44 -29 67 -88 124
-215 211 -552 352 -938 394 -113 13 -475 12 -598 0z m1017 -401 c-3 -8 -6 -5
-6 6 -1 11 2 17 5 13 3 -3 4 -12 1 -19z m73 -4 c67 -23 172 -80 208 -114 52
-47 39 -84 -20 -54 -37 18 -162 101 -189 124 -39 33 -47 39 -53 33 -3 -4 -6 1
-6 10 0 21 3 21 60 1z M2193 5593 c42 -2 112 -2 155 0 42 1 7 3 -78 3 -85 0
-120 -2 -77 -3z M8313 5593 c42 -2 112 -2 155 0 42 1 7 3 -78 3 -85 0 -120 -2
-77 -3z M2068 5583 c7 -3 16 -2 19 1 4 3 -2 6 -13 5 -11 0 -14 -3 -6 -6z
M2478 5583 c7 -3 16 -2 19 1 4 3 -2 6 -13 5 -11 0 -14 -3 -6 -6z M8168 5583
c7 -3 16 -2 19 1 4 3 -2 6 -13 5 -11 0 -14 -3 -6 -6z M8588 5583 c7 -3 16 -2
19 1 4 3 -2 6 -13 5 -11 0 -14 -3 -6 -6z M1429 5313 c-13 -16 -12 -17 4 -4 16
13 21 21 13 21 -2 0 -10 -8 -17 -17z M1379 5273 c-13 -16 -12 -17 4 -4 9 7 17
15 17 17 0 8 -8 3 -21 -13z M1289 5193 c-13 -16 -12 -17 4 -4 9 7 17 15 17 17
0 8 -8 3 -21 -13z M1199 5093 c-13 -16 -12 -17 4 -4 9 7 17 15 17 17 0 8 -8 3
-21 -13z M1169 5053 c-13 -16 -12 -17 4 -4 9 7 17 15 17 17 0 8 -8 3 -21 -13z
M915 4475 c-27 -140 -27 -373 0 -510 l20 -100 3 177 c1 98 1 258 0 355 l-3
178 -20 -100z M9722 4220 c0 -322 1 -350 14 -300 29 114 39 281 26 418 -7 70
-19 152 -26 182 -13 50 -14 23 -14 -300z M3611 4221 c-1 -189 1 -342 4 -339
10 10 34 168 41 266 7 102 -7 267 -30 362 -12 50 -14 22 -15 -289z M7024 4468
c-24 -124 -24 -366 0 -498 10 -52 19 -97 22 -99 2 -2 4 152 4 342 0 191 -2
347 -4 347 -2 0 -12 -42 -22 -92z M1006 3667 c3 -10 9 -15 12 -12 3 3 0 11 -7
18 -10 9 -11 8 -5 -6z M1020 3631 c0 -6 4 -13 10 -16 6 -3 7 1 4 9 -7 18 -14
21 -14 7z M3895 3515 c-47 -17 -82 -57 -91 -104 -14 -71 113 -374 233 -556
251 -379 564 -600 983 -691 69 -15 128 -19 310 -19 199 0 237 3 329 23 429 96
755 340 1002 749 63 104 150 294 180 394 26 87 17 131 -36 178 -29 25 -44 31
-83 31 -40 0 -59 -8 -115 -44 -109 -72 -313 -138 -542 -175 -236 -39 -350 -46
-735 -46 -385 0 -499 7 -734 46 -250 41 -441 104 -556 183 -29 20 -58 36 -65
36 -7 0 -19 2 -27 5 -7 2 -31 -2 -53 -10z m486 -440 c261 -66 509 -90 949 -90
364 0 494 8 729 46 127 20 282 56 360 84 57 20 69 10 52 -46 -32 -107 -205
-317 -351 -428 -218 -164 -438 -238 -740 -248 -403 -12 -720 106 -980 367
-126 126 -253 321 -237 364 5 13 13 13 64 -5 32 -11 101 -31 154 -44z M9509
3423 c-13 -16 -12 -17 4 -4 16 13 21 21 13 21 -2 0 -10 -8 -17 -17z M1160
3396 c0 -2 8 -10 18 -17 15 -13 16 -12 3 4 -13 16 -21 21 -21 13z M9449 3348
c-24 -29 -36 -47 -26 -39 20 16 81 91 74 91 -2 0 -24 -24 -48 -52z M1190 3357
c0 -2 15 -16 33 -33 l32 -29 -29 33 c-28 30 -36 37 -36 29z M1290 3245 c19
-19 36 -35 39 -35 3 0 -10 16 -29 35 -19 19 -36 35 -39 35 -3 0 10 -16 29 -35z
M9350 3235 c-24 -25 -42 -45 -39 -45 3 0 25 20 49 45 24 25 42 45 39 45 -3 0
-25 -20 -49 -45z M1387 3158 c168 -145 425 -264 657 -303 113 -19 327 -22 431
-5 79 12 237 51 231 57 -2 2 -50 -6 -107 -17 -135 -28 -366 -37 -502 -21 -234
29 -498 134 -664 266 -93 73 -119 86 -46 23z M9020 3001 c-58 -31 -190 -79
-275 -101 -185 -47 -481 -52 -684 -10 -57 11 -105 19 -108 17 -5 -6 148 -44
232 -57 100 -16 324 -14 430 5 119 20 259 66 370 120 50 24 86 44 80 44 -5 0
-26 -8 -45 -18z"/>
</g>
</svg>
