<?xml version="1.0" standalone="no"?>
<!DOCTYPE svg PUBLIC "-//W3C//DTD SVG 20010904//EN"
 "http://www.w3.org/TR/2001/REC-SVG-20010904/DTD/svg10.dtd">
<svg version="1.0" xmlns="http://www.w3.org/2000/svg"
 width="2048.000000pt" height="2048.000000pt" viewBox="0 0 2048.000000 2048.000000"
 preserveAspectRatio="xMidYMid meet">
<metadata>
Created by potrace 1.13, written by Peter Selinger 2001-2015
</metadata>
<g transform="translate(0.000000,2048.000000) scale(0.192120,-0.192120)"
fill="#000000" stroke="none">
<path d="M1320 10324 c-273 -42 -463 -131 -640 -301 -176 -167 -284 -364 -332
-603 -19 -96 -19 -8084 0 -8180 80 -398 361 -723 733 -849 180 -60 -136 -56
4249 -56 3399 0 4036 2 4095 14 398 79 726 367 848 746 55 171 52 -100 52
4235 0 4335 3 4064 -52 4235 -51 157 -132 292 -250 415 -160 169 -333 267
-572 328 -61 15 -367 16 -4086 18 -2211 1 -4031 0 -4045 -2z m7880 -263 c212
-11 304 -31 445 -101 200 -99 345 -261 409 -455 15 -47 16 -372 14 -4190 l-3
-4140 -36 -82 c-76 -170 -186 -296 -339 -387 -79 -47 -211 -96 -315 -117 -78
-16 -7754 -25 -7965 -10 -207 16 -338 57 -488 154 -153 99 -277 264 -331 441
l-21 68 0 4097 0 4096 24 67 c71 201 222 363 431 464 116 57 222 84 365 93
156 11 7590 12 7810 2z M5045 9028 c-340 -38 -710 -165 -1018 -350 -300 -179
-643 -507 -839 -803 -163 -246 -296 -545 -364 -815 -51 -207 -54 -242 -54
-625 0 -339 2 -367 24 -475 165 -802 677 -1487 1389 -1860 125 -66 169 -84
342 -145 l120 -43 3 -70 3 -70 -368 -4 c-394 -5 -422 -8 -538 -62 -127 -59
-270 -205 -339 -346 l-41 -85 -3 -154 c-3 -150 -3 -157 24 -220 106 -251 280
-410 496 -455 62 -13 148 -16 443 -16 l365 0 0 -222 c0 -250 11 -325 62 -443
65 -149 178 -284 299 -357 173 -105 382 -106 554 -3 140 84 272 260 318 425
34 123 37 157 37 375 l0 225 368 0 c207 0 395 5 431 11 222 36 426 226 512
478 15 43 19 83 19 193 0 133 -1 143 -32 216 -82 201 -259 364 -453 418 -50
14 -124 18 -437 22 l-378 4 0 67 0 67 73 23 c567 180 1044 541 1380 1044 85
127 206 352 262 487 53 129 116 338 146 484 l30 149 -3 381 c-4 352 -6 389
-27 481 -101 447 -285 819 -577 1169 -422 506 -1033 836 -1676 905 -115 13
-439 12 -553 -1z m530 -238 c447 -50 868 -222 1219 -498 107 -84 334 -315 413
-422 241 -323 388 -664 454 -1055 29 -174 36 -451 15 -629 -50 -433 -204 -820
-462 -1166 -99 -132 -329 -363 -456 -458 -186 -139 -403 -259 -608 -335 -92
-34 -286 -89 -362 -102 l-37 -6 -3 -292 c-2 -161 -2 -296 0 -300 2 -4 227 -7
501 -6 358 1 509 -2 541 -11 255 -69 382 -350 265 -586 -38 -77 -107 -149
-177 -185 -91 -47 -123 -49 -643 -49 l-490 0 0 -388 c0 -375 -1 -389 -22 -446
-79 -209 -304 -322 -514 -256 -125 39 -225 133 -272 256 -21 57 -22 71 -22
446 l0 388 -490 0 c-520 0 -552 2 -643 49 -70 36 -139 108 -177 185 -117 237
10 517 265 586 33 9 180 12 542 11 273 -1 498 2 500 6 1 4 2 139 0 300 l-3
292 -57 11 c-100 20 -269 69 -364 106 -310 120 -587 302 -828 544 -357 357
-575 781 -661 1285 -26 156 -36 440 -20 600 82 818 581 1536 1316 1895 258
126 531 204 815 233 79 8 381 6 465 -3z M5155 7958 c-599 -67 -1122 -507
-1290 -1085 -44 -153 -58 -256 -58 -428 -1 -191 17 -308 73 -476 80 -241 191
-421 375 -604 242 -242 521 -384 855 -435 97 -14 343 -14 440 0 334 51 614
193 856 434 181 182 295 365 374 605 53 160 73 286 74 461 1 227 -38 425 -122
616 -273 620 -908 987 -1577 912z m460 -286 c129 -28 205 -55 330 -118 297
-147 514 -392 616 -693 l29 -85 0 -325 c0 -292 -2 -333 -19 -393 -48 -167
-162 -365 -287 -497 -175 -187 -432 -324 -702 -378 -121 -24 -385 -24 -505 0
-488 98 -875 438 -1002 881 -24 85 -25 98 -25 376 0 338 7 378 95 555 186 373
544 624 992 695 95 15 375 4 478 -18z"/>
</g>
</svg>
