<?xml version="1.0" standalone="no"?>
<!DOCTYPE svg PUBLIC "-//W3C//DTD SVG 20010904//EN"
 "http://www.w3.org/TR/2001/REC-SVG-20010904/DTD/svg10.dtd">
<svg version="1.0" xmlns="http://www.w3.org/2000/svg"
 width="2048.000000pt" height="2048.000000pt" viewBox="0 0 2048.000000 2048.000000"
 preserveAspectRatio="xMidYMid meet">
<metadata>
Created by potrace 1.13, written by Peter Selinger 2001-2015
</metadata>
<g transform="translate(0.000000,2048.000000) scale(0.192120,-0.192120)"
fill="#000000" stroke="none">
<path d="M1320 10324 c-273 -42 -463 -131 -640 -301 -176 -167 -284 -364 -332
-603 -19 -96 -19 -8084 0 -8180 80 -398 361 -723 733 -849 180 -60 -136 -56
4249 -56 3399 0 4036 2 4095 14 398 79 726 367 848 746 55 171 52 -100 52
4235 0 4335 3 4064 -52 4235 -51 157 -132 292 -250 415 -160 169 -333 267
-572 328 -61 15 -367 16 -4086 18 -2211 1 -4031 0 -4045 -2z m7980 -264 c326
-32 589 -200 717 -459 l48 -96 0 -4170 0 -4170 -32 -72 c-110 -249 -307 -413
-588 -490 l-100 -28 -3950 -3 c-2817 -2 -3978 0 -4047 8 -236 27 -410 109
-568 269 -82 84 -152 198 -189 311 l-21 65 2 4125 3 4125 31 71 c121 279 399
475 725 513 103 12 7848 13 7969 1z M2835 9019 c-107 -16 -265 -60 -362 -99
-330 -135 -617 -407 -786 -744 -77 -154 -87 -178 -129 -331 -31 -109 -31 -113
-35 -395 -4 -261 -3 -293 16 -378 54 -240 149 -424 292 -569 81 -81 190 -143
285 -163 78 -16 213 -7 289 19 184 66 339 240 416 471 26 78 26 248 -1 350
-16 61 -20 109 -20 251 0 166 1 178 23 209 12 19 44 45 72 59 43 23 62 26 145
26 80 0 102 -4 138 -23 237 -126 435 -609 618 -1507 25 -121 204 -1113 399
-2205 195 -1092 366 -2025 380 -2075 53 -184 173 -394 294 -515 154 -153 311
-218 501 -207 190 11 362 112 505 297 79 103 162 279 200 425 8 33 69 386 135
785 232 1400 538 3194 584 3430 136 695 307 1205 479 1428 99 130 189 177 322
170 91 -5 151 -30 184 -77 20 -27 21 -42 21 -218 0 -129 -5 -207 -15 -248 -9
-36 -14 -111 -14 -190 -1 -124 1 -134 32 -210 69 -171 199 -322 336 -393 100
-51 172 -66 281 -59 275 17 484 222 605 591 55 169 65 242 65 490 0 335 -34
488 -173 771 -144 294 -426 573 -719 709 -217 102 -426 142 -693 133 -401 -13
-709 -150 -1005 -447 -200 -199 -309 -356 -454 -653 -132 -271 -208 -487 -300
-854 -91 -362 -136 -631 -222 -1343 -155 -1286 -176 -1424 -213 -1385 -15 17
-49 166 -75 330 -40 255 -152 1044 -191 1352 -151 1189 -402 1932 -818 2428
-249 297 -528 474 -862 547 -103 23 -428 33 -530 17z m470 -246 c250 -44 461
-153 657 -342 355 -340 605 -906 768 -1736 42 -216 72 -411 120 -790 22 -176
94 -693 160 -1150 66 -456 164 -1137 217 -1512 54 -376 100 -683 103 -683 6 0
41 250 146 1035 61 452 214 1667 269 2130 51 426 65 535 101 749 216 1296 641
2038 1290 2255 252 84 575 86 842 5 445 -135 776 -507 882 -993 33 -149 44
-312 31 -449 -20 -217 -98 -457 -183 -564 -18 -23 -58 -58 -90 -78 -218 -141
-499 -59 -611 178 -29 61 -32 75 -32 167 0 87 4 109 28 165 40 94 61 225 53
336 -23 339 -209 517 -524 502 -76 -3 -100 -9 -156 -37 -340 -167 -606 -806
-820 -1972 -73 -397 -202 -1156 -452 -2653 -129 -774 -244 -1436 -255 -1469
-27 -80 -52 -129 -105 -203 -176 -248 -502 -296 -724 -107 -92 79 -197 257
-234 398 -9 33 -178 969 -376 2080 -391 2191 -413 2307 -500 2650 -185 728
-401 1140 -665 1271 -71 35 -88 39 -171 42 -164 7 -280 -35 -373 -133 -103
-109 -146 -250 -138 -455 3 -105 9 -137 32 -200 47 -129 58 -195 46 -273 -36
-222 -221 -369 -445 -354 -158 11 -282 101 -356 260 -169 360 -156 855 31
1229 128 256 332 465 574 586 250 125 563 167 860 115z"/>
</g>
</svg>
