<?xml version="1.0" standalone="no"?>
<!DOCTYPE svg PUBLIC "-//W3C//DTD SVG 20010904//EN"
 "http://www.w3.org/TR/2001/REC-SVG-20010904/DTD/svg10.dtd">
<svg version="1.0" xmlns="http://www.w3.org/2000/svg"
 width="2048.000000pt" height="2048.000000pt" viewBox="0 0 2048.000000 2048.000000"
 preserveAspectRatio="xMidYMid meet">
<metadata>
Created by potrace 1.13, written by Peter Selinger 2001-2015
</metadata>
<g transform="translate(0.000000,2048.000000) scale(0.192120,-0.192120)"
fill="#000000" stroke="none">
<path d="M1320 10324 c-273 -42 -463 -131 -640 -301 -176 -167 -284 -364 -332
-603 -19 -96 -19 -8084 0 -8180 80 -398 361 -723 733 -849 180 -60 -136 -56
4249 -56 3399 0 4036 2 4095 14 398 79 726 367 848 746 55 171 52 -100 52
4235 0 4335 3 4064 -52 4235 -51 157 -132 292 -250 415 -160 169 -333 267
-572 328 -61 15 -367 16 -4086 18 -2211 1 -4031 0 -4045 -2z m7980 -264 c326
-32 589 -200 717 -459 l48 -96 0 -4170 0 -4170 -32 -72 c-110 -249 -307 -413
-588 -490 l-100 -28 -3950 -3 c-2817 -2 -3978 0 -4047 8 -236 27 -410 109
-568 269 -82 84 -152 198 -189 311 l-21 65 2 4125 3 4125 31 71 c121 279 399
475 725 513 103 12 7848 13 7969 1z M2005 8469 c-516 -70 -967 -336 -1130
-664 l-40 -80 0 -165 0 -165 44 -90 c95 -194 230 -326 397 -387 46 -17 82 -22
164 -22 132 -1 191 18 359 114 140 81 231 115 354 130 151 19 286 -10 444 -96
149 -79 252 -161 448 -355 105 -104 238 -227 298 -274 89 -71 107 -91 107
-113 0 -31 -35 -84 -129 -197 -227 -273 -421 -676 -513 -1065 l-32 -135 -4
-365 c-4 -405 -1 -439 64 -686 43 -167 98 -311 184 -488 333 -685 926 -1193
1622 -1390 268 -76 472 -101 762 -93 480 13 905 148 1302 412 580 388 990 995
1141 1690 28 130 28 130 28 510 0 359 -1 386 -23 490 -91 433 -268 807 -547
1155 -123 153 -127 173 -53 226 91 64 229 188 379 341 178 180 291 268 454
348 145 72 213 89 345 88 169 -2 256 -31 456 -149 103 -62 178 -91 267 -103
278 -38 549 165 657 493 20 61 22 83 18 195 -5 122 -6 129 -46 213 -162 348
-613 612 -1155 679 -62 7 -165 10 -280 6 -198 -6 -304 -25 -489 -87 -140 -47
-396 -177 -548 -277 -197 -130 -312 -226 -525 -439 -201 -200 -303 -279 -470
-362 -560 -278 -1389 -281 -1962 -6 -178 85 -292 171 -478 362 -276 283 -520
465 -820 612 -174 86 -288 128 -453 167 -93 22 -135 25 -317 28 -115 2 -241
-1 -280 -6z m529 -249 c410 -79 933 -396 1218 -738 260 -311 706 -530 1228
-604 148 -20 585 -17 735 6 263 40 489 111 705 222 215 111 345 216 558 451
154 171 429 371 682 497 381 189 698 234 1107 155 271 -52 579 -201 737 -355
213 -209 157 -549 -112 -681 -52 -26 -66 -28 -172 -28 -103 0 -121 3 -170 26
-30 15 -82 48 -115 75 -122 99 -285 153 -485 161 -107 5 -138 2 -210 -16 -217
-55 -509 -243 -701 -452 -222 -243 -432 -411 -677 -542 l-80 -43 80 -64 c301
-242 578 -652 708 -1050 409 -1243 -264 -2576 -1507 -2986 -246 -81 -456 -114
-735 -114 -538 0 -1030 169 -1453 500 -277 217 -504 497 -660 815 -113 231
-182 448 -222 700 -25 157 -25 537 1 690 24 147 76 350 122 471 135 365 407
753 682 973 l80 65 -104 58 c-240 133 -450 301 -634 507 -194 216 -499 416
-720 472 -73 19 -103 21 -210 16 -203 -9 -350 -58 -493 -165 -151 -112 -314
-130 -468 -52 -89 46 -170 145 -204 249 -28 85 -18 210 22 292 117 237 574
463 1028 509 128 13 313 4 439 -20z M5140 6013 c-263 -41 -455 -114 -660 -250
-134 -90 -302 -252 -393 -379 -282 -399 -359 -908 -206 -1368 149 -447 502
-805 948 -960 186 -65 280 -80 501 -80 163 0 212 4 296 22 481 104 873 408
1079 837 241 502 191 1095 -132 1548 -73 102 -235 267 -333 339 -202 149 -424
242 -675 283 -82 14 -358 19 -425 8z m475 -282 c126 -28 205 -55 320 -111 312
-153 550 -426 640 -735 24 -84 25 -97 25 -380 0 -328 -5 -366 -77 -532 -166
-388 -542 -674 -978 -744 -113 -18 -340 -16 -451 4 -489 89 -878 423 -1021
877 -26 82 -27 96 -31 355 -4 301 0 337 55 485 160 431 579 742 1083 804 83
10 347 -4 435 -23z"/>
</g>
</svg>
