<?xml version="1.0" standalone="no"?>
<!DOCTYPE svg PUBLIC "-//W3C//DTD SVG 20010904//EN"
 "http://www.w3.org/TR/2001/REC-SVG-20010904/DTD/svg10.dtd">
<svg version="1.0" xmlns="http://www.w3.org/2000/svg"
 width="2048.000000pt" height="2048.000000pt" viewBox="0 0 2048.000000 2048.000000"
 preserveAspectRatio="xMidYMid meet">
<metadata>
Created by potrace 1.13, written by Peter Selinger 2001-2015
</metadata>
<g transform="translate(0.000000,2048.000000) scale(0.192120,-0.192120)"
fill="#000000" stroke="none">
<path d="M1320 10324 c-273 -42 -463 -131 -640 -301 -176 -167 -284 -364 -332
-603 -19 -96 -19 -8084 0 -8180 80 -398 361 -723 733 -849 180 -60 -136 -56
4249 -56 3399 0 4036 2 4095 14 398 79 726 367 848 746 55 171 52 -100 52
4235 0 4335 3 4064 -52 4235 -51 157 -132 292 -250 415 -160 169 -333 267
-572 328 -61 15 -367 16 -4086 18 -2211 1 -4031 0 -4045 -2z m7980 -264 c326
-32 589 -200 717 -459 l48 -96 0 -4170 0 -4170 -32 -72 c-110 -249 -307 -413
-588 -490 l-100 -28 -3950 -3 c-2817 -2 -3978 0 -4047 8 -236 27 -410 109
-568 269 -82 84 -152 198 -189 311 l-21 65 2 4125 3 4125 31 71 c121 279 399
475 725 513 103 12 7848 13 7969 1z M2136 9015 c-105 -29 -177 -74 -278 -176
-86 -85 -104 -109 -145 -195 l-48 -99 -3 -145 c-3 -144 -3 -147 28 -225 75
-188 222 -348 388 -422 83 -37 331 -97 569 -137 213 -36 660 -96 720 -96 l33
0 0 -2200 0 -2200 -27 0 c-62 0 -474 -54 -693 -91 -317 -53 -527 -106 -638
-160 -72 -36 -104 -60 -183 -139 -83 -83 -103 -110 -145 -195 l-49 -98 0 -161
0 -161 47 -96 c101 -208 255 -347 434 -394 86 -22 197 -19 331 10 536 117 997
171 1828 217 312 18 1738 18 2050 0 814 -45 1276 -99 1782 -207 195 -42 296
-46 399 -14 157 48 294 170 382 340 63 120 72 161 72 311 0 129 -2 136 -35
217 -68 166 -206 311 -365 384 -160 73 -655 169 -1150 222 -85 9 -165 18 -177
21 l-23 4 0 2190 0 2190 23 4 c12 2 139 18 282 35 413 49 760 113 964 178 181
57 325 188 421 381 53 108 60 138 60 280 0 127 -1 137 -32 210 -85 206 -258
368 -444 417 -94 24 -197 19 -377 -19 -342 -73 -530 -102 -887 -140 -557 -59
-921 -77 -1710 -83 -1340 -11 -2241 55 -3012 221 -182 39 -301 46 -392 21z
m312 -244 c699 -176 1963 -267 3325 -240 1053 20 1855 98 2415 234 166 40 237
44 324 14 175 -59 288 -214 288 -396 0 -70 -27 -163 -64 -221 -29 -45 -99
-112 -146 -140 -145 -86 -914 -217 -1558 -265 l-32 -2 0 -2425 0 -2425 102 -7
c536 -38 1303 -170 1475 -253 71 -35 165 -137 193 -212 102 -266 -73 -551
-351 -570 -65 -5 -99 0 -245 35 -714 172 -1886 254 -3287 230 -1019 -17 -1870
-99 -2415 -233 -158 -39 -231 -43 -313 -19 -78 23 -131 57 -193 124 -77 84
-100 147 -100 275 0 81 4 111 23 158 30 75 124 177 195 212 166 81 861 202
1429 248 l147 12 0 2425 0 2425 -152 12 c-516 42 -1176 153 -1394 234 -79 30
-175 122 -216 208 -41 86 -50 207 -22 298 27 86 89 170 162 220 119 81 219 92
410 44z M4500 7705 c0 -3 0 -1072 0 -2377 l0 -2372 187 5 c104 2 393 4 643 4
250 0 539 -2 643 -4 l187 -5 0 2374 0 2374 -192 -5 c-281 -6 -1362 -2 -1419 5
-27 4 -49 4 -49 1z m1400 -2385 l0 -2115 -580 0 -580 0 0 2115 0 2115 580 0
580 0 0 -2115z"/>
</g>
</svg>
