<?xml version="1.0" standalone="no"?>
<!DOCTYPE svg PUBLIC "-//W3C//DTD SVG 20010904//EN"
 "http://www.w3.org/TR/2001/REC-SVG-20010904/DTD/svg10.dtd">
<svg version="1.0" xmlns="http://www.w3.org/2000/svg"
 width="2048.000000pt" height="2048.000000pt" viewBox="0 0 2048.000000 2048.000000"
 preserveAspectRatio="xMidYMid meet">
<metadata>
Created by potrace 1.13, written by Peter Selinger 2001-2015
</metadata>
<g transform="translate(0.000000,2048.000000) scale(0.192120,-0.192120)"
fill="#000000" stroke="none">
<path d="M1320 10324 c-273 -42 -463 -131 -640 -301 -176 -167 -284 -364 -332
-603 -19 -96 -19 -8084 0 -8180 80 -398 361 -723 733 -849 180 -60 -136 -56
4249 -56 3399 0 4036 2 4095 14 398 79 726 367 848 746 55 171 52 -100 52
4235 0 4335 3 4064 -52 4235 -51 157 -132 292 -250 415 -160 169 -333 267
-572 328 -61 15 -367 16 -4086 18 -2211 1 -4031 0 -4045 -2z m7980 -264 c326
-32 589 -200 717 -459 l48 -96 0 -4170 0 -4170 -32 -72 c-110 -249 -307 -413
-588 -490 l-100 -28 -3950 -3 c-2817 -2 -3978 0 -4047 8 -236 27 -410 109
-568 269 -82 84 -152 198 -189 311 l-21 65 2 4125 3 4125 31 71 c121 279 399
475 725 513 103 12 7848 13 7969 1z M3775 8974 c-16 -2 -73 -9 -125 -15 -422
-48 -852 -227 -1197 -496 -157 -122 -347 -327 -456 -491 -67 -100 -167 -310
-207 -430 -67 -207 -72 -247 -67 -565 3 -269 5 -286 30 -372 102 -345 272
-625 529 -871 399 -380 936 -537 1449 -424 608 133 1097 630 1277 1294 27 101
27 102 27 436 0 335 0 335 -28 450 -16 63 -31 139 -34 168 l-5 52 38 0 c56 0
430 -56 606 -91 686 -135 1242 -350 1698 -655 259 -173 412 -313 564 -514 179
-239 319 -331 506 -333 98 -1 165 17 251 69 95 57 204 187 256 305 37 85 45
132 41 255 -4 112 -6 124 -43 209 -78 179 -250 402 -491 635 -796 769 -2049
1240 -3614 1360 -329 25 -882 38 -1005 24z m860 -254 c1471 -100 2606 -471
3421 -1117 133 -105 396 -367 486 -483 88 -114 163 -236 184 -299 22 -67 15
-178 -14 -244 -31 -70 -111 -149 -185 -183 -88 -39 -196 -40 -282 0 -77 35
-121 78 -200 196 -239 357 -706 703 -1281 948 -581 249 -1225 394 -2069 466
-88 8 -161 13 -163 11 -2 -1 22 -36 53 -76 170 -226 265 -555 265 -924 0 -352
-113 -670 -337 -950 -211 -264 -490 -432 -837 -507 -147 -31 -418 -31 -564 0
-251 55 -492 177 -680 347 -259 233 -419 506 -489 835 -25 118 -25 419 0 540
112 534 446 948 987 1220 246 123 491 193 820 234 60 7 727 -3 885 -14z M3200
7826 c-173 -40 -312 -118 -431 -242 -110 -116 -166 -214 -211 -371 -19 -65
-22 -102 -22 -218 1 -122 4 -151 28 -228 45 -151 110 -259 217 -364 167 -164
359 -244 589 -244 167 -1 299 35 445 119 86 50 240 209 292 302 185 331 138
726 -121 997 -108 115 -246 199 -391 239 -79 22 -319 28 -395 10z m280 -257
c98 -15 191 -51 269 -103 83 -55 140 -118 181 -200 l30 -59 0 -198 c0 -224 -6
-250 -80 -359 -53 -78 -119 -133 -215 -179 -107 -52 -170 -66 -295 -65 -268 0
-483 135 -576 362 -22 53 -24 71 -24 238 l0 181 34 69 c37 74 119 163 196 214
131 87 319 125 480 99z M7110 5359 c-307 -30 -626 -162 -860 -358 -298 -249
-484 -531 -601 -911 l-32 -105 -4 -325 c-4 -324 -4 -325 23 -445 34 -155 43
-272 20 -281 -25 -10 -385 43 -631 92 -1021 205 -1818 617 -2225 1149 -198
259 -334 348 -530 347 -149 -1 -248 -48 -378 -180 -61 -62 -94 -106 -125 -166
l-41 -81 -4 -137 -4 -136 41 -95 c63 -148 146 -280 271 -427 699 -829 1889
-1376 3400 -1564 585 -73 1337 -97 1625 -51 134 21 287 58 418 101 739 242
1288 824 1438 1525 18 88 20 123 17 370 -4 262 -5 278 -32 374 -87 317 -239
572 -490 820 -363 361 -816 530 -1296 484z m445 -259 c526 -112 979 -535 1130
-1055 79 -273 71 -589 -24 -876 -184 -556 -719 -1009 -1390 -1179 -234 -59
-301 -65 -696 -64 -447 1 -798 24 -1215 80 -1135 152 -2076 511 -2755 1050
-145 115 -412 383 -507 511 -147 197 -184 278 -176 398 9 132 83 240 208 298
55 27 76 31 145 31 143 0 227 -55 339 -222 108 -162 266 -325 461 -477 581
-452 1418 -759 2425 -890 140 -19 623 -65 628 -60 2 1 -22 36 -53 76 -108 144
-195 355 -236 573 -29 156 -37 446 -15 576 87 530 436 975 911 1159 103 40
240 75 355 91 107 15 351 4 465 -20z M7122 4499 c-426 -76 -725 -454 -699
-882 23 -366 255 -655 614 -763 120 -36 316 -39 438 -5 265 72 478 261 574
511 180 467 -78 983 -561 1120 -84 24 -281 35 -366 19z m299 -273 c36 -8 102
-31 145 -52 100 -47 216 -159 258 -248 l27 -59 -3 -211 c-4 -230 -1 -217 -74
-332 -98 -154 -300 -254 -514 -254 -239 0 -462 129 -560 325 l-35 70 -3 194
-3 194 32 66 c67 137 223 257 393 301 87 23 243 26 337 6z"/>
</g>
</svg>
