<?xml version="1.0" standalone="no"?>
<!DOCTYPE svg PUBLIC "-//W3C//DTD SVG 20010904//EN"
 "http://www.w3.org/TR/2001/REC-SVG-20010904/DTD/svg10.dtd">
<svg version="1.0" xmlns="http://www.w3.org/2000/svg"
 width="2048.000000pt" height="2048.000000pt" viewBox="0 0 2048.000000 2048.000000"
 preserveAspectRatio="xMidYMid meet">
<metadata>
Created by potrace 1.13, written by Peter Selinger 2001-2015
</metadata>
<g transform="translate(0.000000,2048.000000) scale(0.192120,-0.192120)"
fill="#000000" stroke="none">
<path d="M1320 10324 c-273 -42 -463 -131 -640 -301 -176 -167 -284 -364 -332
-603 -19 -96 -19 -8084 0 -8180 80 -398 361 -723 733 -849 180 -60 -136 -56
4249 -56 3399 0 4036 2 4095 14 398 79 726 367 848 746 55 171 52 -100 52
4235 0 4335 3 4064 -52 4235 -51 157 -132 292 -250 415 -160 169 -333 267
-572 328 -61 15 -367 16 -4086 18 -2211 1 -4031 0 -4045 -2z m7980 -264 c326
-32 589 -200 717 -459 l48 -96 0 -4170 0 -4170 -32 -72 c-110 -249 -307 -414
-588 -490 l-100 -28 -820 0 c-451 0 -832 3 -847 8 -42 11 -35 39 25 92 117
105 198 226 243 364 19 60 24 94 24 183 0 173 -27 238 -228 539 -187 282 -294
466 -300 514 l-4 40 118 102 c240 204 477 468 637 706 219 327 341 639 433
1112 27 135 28 154 32 530 4 414 0 477 -44 684 -121 566 -444 1138 -719 1271
-133 64 -466 -39 -820 -253 l-110 -67 -3 35 c-2 21 -9 35 -17 35 -11 0 -14 95
-18 538 -3 304 -10 574 -16 622 -16 122 -48 282 -77 377 -158 527 -519 874
-1012 972 -297 59 -552 20 -852 -129 -52 -26 -122 -64 -155 -84 -90 -54 -120
-51 -236 26 -190 124 -361 188 -556 208 -270 28 -533 -39 -843 -215 -41 -23
-87 -45 -102 -49 -38 -9 -83 12 -181 83 -180 131 -366 200 -561 209 -140 5
-200 -5 -306 -55 -60 -29 -94 -55 -172 -134 -86 -85 -104 -109 -145 -195 l-48
-99 -3 -145 c-3 -144 -3 -147 28 -225 58 -146 174 -293 290 -367 30 -20 89
-50 131 -67 42 -17 87 -44 102 -59 46 -48 85 -167 107 -327 6 -43 10 -717 10
-1751 0 -1411 2 -1688 14 -1730 8 -27 17 -65 20 -85 9 -53 85 -196 143 -270
89 -113 198 -190 318 -225 71 -21 209 -23 275 -5 196 56 379 243 454 466 46
135 46 103 46 2018 0 1779 0 1808 20 1846 37 73 110 108 206 98 70 -7 109 -29
142 -80 l27 -42 6 -1860 c3 -1335 8 -1873 16 -1905 36 -141 111 -270 227 -386
82 -82 180 -136 291 -159 87 -18 113 -18 200 0 239 50 436 262 508 545 8 32
13 564 16 1900 l6 1855 21 40 c33 61 91 90 179 90 53 -1 80 -6 112 -23 l43
-22 3 -2013 c3 -2006 3 -2012 24 -2147 26 -157 39 -223 87 -420 23 -92 36
-169 36 -212 0 -61 -2 -69 -25 -84 -44 -29 -298 -141 -507 -224 -113 -45 -234
-98 -269 -118 -36 -21 -103 -77 -154 -127 -72 -72 -98 -107 -132 -175 -60
-120 -65 -147 -61 -295 3 -122 5 -134 37 -205 98 -219 265 -377 446 -425 88
-22 197 -19 308 10 108 28 430 155 682 270 94 43 187 80 207 83 50 6 67 -13
188 -209 225 -364 363 -556 477 -661 126 -116 128 -121 53 -137 -70 -15 -5559
-15 -5680 -1 -362 45 -645 263 -749 580 l-21 65 2 4125 3 4125 31 71 c121 279
399 475 725 513 103 12 7848 13 7969 1z m-6873 -1275 c221 -47 416 -165 566
-344 l36 -44 36 29 c273 222 519 327 800 340 302 15 595 -105 781 -320 l46
-54 63 52 c165 141 349 236 564 294 84 22 116 25 261 25 147 1 176 -2 262 -26
219 -58 373 -142 504 -272 156 -154 252 -340 313 -604 53 -224 54 -250 58
-1129 l4 -822 78 71 c201 182 445 340 677 439 47 20 367 121 370 117 1 -1 49
-63 108 -137 124 -156 185 -252 266 -423 105 -220 179 -467 222 -742 29 -188
32 -615 5 -800 -55 -379 -136 -665 -257 -905 -187 -376 -531 -761 -967 -1084
-51 -37 -93 -70 -93 -71 0 -9 200 -362 257 -454 82 -132 189 -292 270 -403 75
-102 101 -156 114 -241 44 -269 -206 -516 -475 -470 -114 19 -201 74 -282 178
-128 166 -412 615 -531 842 -31 59 -57 109 -59 111 -1 2 -82 -37 -180 -86
-299 -149 -717 -325 -898 -377 -89 -26 -194 -17 -279 23 -262 122 -327 452
-131 662 55 59 100 86 209 124 118 41 354 137 484 196 129 58 451 218 451 224
0 2 -22 70 -50 152 -127 382 -190 735 -190 1074 0 148 19 359 40 445 13 55 13
3166 0 3258 -21 141 -100 251 -227 314 -65 32 -86 37 -163 41 -195 9 -341 -89
-418 -282 -16 -38 -17 -200 -22 -1956 l-5 -1915 -32 -68 c-152 -320 -598 -321
-754 -1 l-34 69 -5 1915 c-5 1807 -6 1918 -23 1960 -45 113 -119 195 -222 246
-55 27 -69 29 -170 29 -103 0 -114 -2 -177 -32 -88 -41 -160 -113 -201 -201
l-32 -67 -5 -1910 c-5 -1741 -6 -1914 -21 -1957 -85 -243 -347 -358 -574 -254
-96 44 -181 139 -224 249 -14 38 -17 222 -22 1817 l-5 1775 -22 99 c-44 201
-102 335 -180 416 -42 44 -53 50 -88 50 -52 0 -138 25 -190 56 -60 35 -141
125 -172 191 -24 52 -27 70 -27 168 0 104 2 114 32 175 96 195 288 277 530
225z M7419 5422 c-161 -134 -297 -292 -422 -490 -140 -224 -280 -572 -313
-782 -20 -127 -15 -415 10 -555 23 -127 97 -425 106 -425 12 0 168 136 268
234 229 223 370 435 447 670 39 121 79 295 102 443 19 133 22 462 4 583 -21
143 -85 400 -101 400 -3 0 -49 -35 -101 -78z m-39 -684 c0 -276 -2 -299 -25
-403 -54 -238 -116 -378 -244 -550 -102 -138 -165 -183 -191 -136 -6 12 -10
123 -10 289 0 256 1 274 24 354 70 241 218 518 361 676 31 34 63 62 71 62 12
0 14 -47 14 -292z"/>
</g>
</svg>
