<?xml version="1.0" standalone="no"?>
<!DOCTYPE svg PUBLIC "-//W3C//DTD SVG 20010904//EN"
 "http://www.w3.org/TR/2001/REC-SVG-20010904/DTD/svg10.dtd">
<svg version="1.0" xmlns="http://www.w3.org/2000/svg"
 width="2048.000000pt" height="2048.000000pt" viewBox="0 0 2048.000000 2048.000000"
 preserveAspectRatio="xMidYMid meet">
<metadata>
Created by potrace 1.13, written by Peter Selinger 2001-2015
</metadata>
<g transform="translate(0.000000,2048.000000) scale(0.192120,-0.192120)"
fill="#000000" stroke="none">
<path d="M1320 10324 c-273 -42 -463 -131 -640 -301 -176 -167 -284 -364 -332
-603 -19 -96 -19 -8084 0 -8180 80 -398 361 -723 733 -849 180 -60 -136 -56
4249 -56 3399 0 4036 2 4095 14 398 79 726 367 848 746 55 171 52 -100 52
4235 0 4335 3 4064 -52 4235 -51 157 -132 292 -250 415 -160 169 -333 267
-572 328 -61 15 -367 16 -4086 18 -2211 1 -4031 0 -4045 -2z m7980 -264 c326
-32 589 -200 717 -459 l48 -96 0 -4170 0 -4170 -32 -72 c-110 -249 -307 -413
-588 -490 l-100 -28 -3950 -3 c-2817 -2 -3978 0 -4047 8 -236 27 -410 109
-568 269 -82 84 -152 198 -189 311 l-21 65 2 4125 3 4125 31 71 c121 279 399
475 725 513 103 12 7848 13 7969 1z M5215 9004 c-586 -33 -1118 -226 -1584
-574 -614 -458 -1013 -1124 -1126 -1877 -11 -76 -15 -187 -15 -422 0 -345 5
-397 66 -620 75 -274 243 -643 425 -928 36 -59 39 -110 7 -118 -13 -2 -194 -6
-403 -8 -423 -5 -438 -7 -570 -75 -51 -26 -96 -62 -162 -129 -77 -78 -100
-109 -140 -190 l-48 -96 -3 -145 c-3 -137 -2 -149 23 -219 53 -146 189 -316
306 -386 35 -21 96 -47 134 -58 39 -11 79 -24 90 -29 11 -5 34 -12 50 -16 l30
-7 -37 -10 c-21 -6 -38 -14 -38 -19 0 -4 -9 -8 -21 -8 -12 0 -35 -6 -52 -14
-18 -8 -54 -24 -81 -35 -134 -58 -280 -202 -354 -350 l-47 -94 -3 -148 -3
-148 34 -84 c68 -167 205 -326 340 -392 150 -73 -127 -68 3297 -68 3420 0
3148 -5 3295 67 149 74 292 253 349 437 14 44 17 84 14 195 -3 129 -5 144 -32
204 -77 169 -214 314 -356 377 -30 14 -69 31 -87 39 -17 8 -40 14 -52 14 -12
0 -21 4 -21 9 0 5 -14 11 -31 15 -32 6 -31 26 2 26 10 0 27 4 37 10 9 5 44 16
77 25 32 9 80 28 106 41 141 71 280 244 340 423 23 71 27 297 5 357 -62 176
-202 341 -352 417 -112 57 -137 60 -559 64 -231 3 -397 9 -408 15 -27 14 -17
42 67 187 210 361 343 689 407 1006 l31 150 -5 345 c-5 374 -7 394 -72 650
-41 165 -60 223 -118 365 -242 599 -672 1100 -1229 1431 -350 208 -746 343
-1123 383 -119 12 -316 20 -400 15z m310 -245 c807 -70 1556 -517 2008 -1196
365 -547 517 -1282 390 -1888 -88 -423 -339 -912 -694 -1357 l-78 -98 634 0
c431 0 651 -4 687 -11 304 -65 431 -433 233 -675 -42 -51 -109 -97 -182 -124
-54 -20 -73 -20 -1247 -20 -1179 -1 -1194 0 -1248 20 -116 43 -193 114 -245
226 -25 53 -28 70 -28 169 0 104 2 114 33 177 29 60 53 86 197 218 522 480
935 1048 1079 1485 50 154 67 256 67 412 -1 280 -51 528 -156 764 -237 535
-719 918 -1310 1041 -95 20 -140 23 -335 23 -198 0 -238 -3 -335 -23 -840
-179 -1416 -837 -1464 -1674 -17 -296 31 -506 190 -819 190 -375 490 -757 919
-1170 172 -166 206 -203 233 -259 30 -61 32 -71 32 -175 0 -99 -3 -116 -28
-169 -52 -112 -129 -183 -244 -226 -54 -20 -71 -20 -1248 -20 -1177 0 -1194 0
-1248 20 -165 62 -266 196 -275 366 -11 211 123 390 326 433 36 7 256 11 687
11 349 0 635 2 635 4 0 3 -41 56 -91 118 -172 215 -366 523 -479 763 -237 500
-300 943 -209 1475 142 834 648 1518 1409 1901 432 217 932 318 1385 278z m17
-1104 c461 -61 882 -318 1123 -685 62 -96 120 -215 162 -337 l38 -108 3 -353
3 -354 -26 -82 c-55 -179 -251 -520 -428 -746 -121 -155 -288 -340 -443 -492
-240 -235 -316 -325 -372 -437 l-47 -94 -3 -151 -3 -151 34 -80 c42 -101 91
-177 164 -255 72 -78 124 -113 241 -165 51 -23 94 -45 93 -51 0 -5 -26 -15
-58 -23 -43 -10 -192 -14 -586 -18 -549 -5 -794 4 -845 31 l-27 15 40 16 c22
9 77 34 123 56 140 67 267 212 338 384 27 64 29 82 32 217 3 143 3 148 -27
223 -54 134 -162 271 -345 439 -106 97 -286 293 -420 456 -225 274 -432 620
-504 844 l-32 98 0 302 c0 267 3 310 20 380 47 184 123 346 236 496 344 458
934 702 1516 625z m2936 -4835 c102 -24 214 -105 265 -193 69 -117 76 -274 18
-391 -42 -85 -112 -156 -198 -198 l-68 -33 -3165 0 -3165 0 -68 33 c-86 42
-156 113 -198 198 -58 117 -51 274 17 390 50 85 166 171 261 193 54 13 6246
13 6301 1z"/>
</g>
</svg>
