<?xml version="1.0" standalone="no"?>
<!DOCTYPE svg PUBLIC "-//W3C//DTD SVG 20010904//EN"
 "http://www.w3.org/TR/2001/REC-SVG-20010904/DTD/svg10.dtd">
<svg version="1.0" xmlns="http://www.w3.org/2000/svg"
 width="2048.000000pt" height="2048.000000pt" viewBox="0 0 2048.000000 2048.000000"
 preserveAspectRatio="xMidYMid meet">
<metadata>
Created by potrace 1.13, written by Peter Selinger 2001-2015
</metadata>
<g transform="translate(0.000000,2048.000000) scale(0.192120,-0.192120)"
fill="#000000" stroke="none">
<path d="M1320 10324 c-273 -42 -463 -131 -640 -301 -176 -167 -284 -364 -332
-603 -19 -96 -19 -8084 0 -8180 80 -398 361 -723 733 -849 180 -60 -136 -56
4249 -56 3399 0 4036 2 4095 14 398 79 726 367 848 746 55 171 52 -100 52
4235 0 4335 3 4064 -52 4235 -51 157 -132 292 -250 415 -160 169 -333 267
-572 328 -61 15 -367 16 -4086 18 -2211 1 -4031 0 -4045 -2z m7980 -264 c326
-32 589 -200 717 -459 l48 -96 0 -4170 0 -4170 -32 -72 c-110 -249 -307 -413
-588 -490 l-100 -28 -3950 -3 c-2817 -2 -3978 0 -4047 8 -236 27 -410 109
-568 269 -82 84 -152 198 -189 311 l-21 65 2 4125 3 4125 31 71 c121 279 399
475 725 513 103 12 7848 13 7969 1z M4117 9060 c-306 -39 -559 -144 -853 -355
-122 -88 -137 -87 -256 17 -206 177 -403 271 -631 298 -154 18 -282 -10 -403
-89 -90 -58 -213 -194 -256 -282 -55 -114 -60 -139 -56 -294 l3 -140 47 -97
c50 -102 138 -216 216 -282 26 -21 97 -62 157 -91 61 -29 118 -62 127 -72 44
-49 89 -227 107 -423 7 -75 11 -676 11 -1725 0 -1084 3 -1622 10 -1645 6 -19
15 -56 20 -82 13 -66 78 -194 140 -279 215 -289 581 -335 837 -105 119 107
210 266 246 431 7 34 12 560 16 1665 l6 1615 23 93 c76 315 227 471 486 502
281 33 482 -132 632 -521 62 -161 114 -392 420 -1859 53 -250 152 -727 221
-1060 l127 -605 4 -318 3 -318 -31 -65 c-99 -202 -304 -302 -675 -329 -170
-12 -274 -47 -380 -128 -117 -88 -230 -246 -265 -372 -7 -24 -10 -95 -8 -180
l3 -140 44 -90 c107 -220 270 -363 461 -404 125 -27 396 -10 625 39 251 55
561 189 755 327 121 88 272 232 373 358 93 117 123 145 156 145 13 0 88 -21
165 -46 267 -87 501 -121 761 -110 781 32 1401 427 1664 1060 88 211 94 242
99 515 4 225 2 251 -18 340 -73 315 -278 621 -558 831 -169 127 -388 231 -597
284 -218 54 -272 60 -550 60 -241 0 -270 -2 -398 -27 -155 -31 -318 -80 -451
-138 -104 -45 -120 -47 -141 -16 -29 44 -27 38 -219 957 -292 1396 -326 1536
-433 1805 -112 281 -204 454 -342 639 -282 380 -646 622 -1038 691 -108 19
-315 27 -406 15z m433 -259 c618 -142 1069 -690 1289 -1566 45 -180 515 -2408
552 -2620 7 -38 14 -71 15 -73 1 -2 38 21 81 51 292 204 652 308 1061 308 246
0 407 -24 618 -92 229 -74 402 -178 565 -339 165 -162 259 -322 316 -538 23
-87 26 -116 26 -272 1 -234 -32 -375 -130 -562 -258 -489 -847 -798 -1522
-798 -306 0 -644 81 -876 209 l-69 38 -48 -98 c-251 -512 -903 -869 -1593
-873 -135 -1 -156 1 -208 22 -315 127 -362 552 -82 738 74 49 131 64 275 70
450 19 741 177 880 477 63 137 75 205 75 417 l-1 185 -78 380 c-247 1210 -619
2979 -661 3145 -35 139 -99 318 -155 434 -137 284 -332 478 -536 531 -74 19
-227 19 -319 0 -240 -50 -448 -246 -546 -514 -17 -47 -43 -133 -57 -191 l-26
-105 -6 -1655 c-5 -1503 -7 -1659 -22 -1703 -37 -108 -122 -203 -227 -254 -51
-26 -66 -28 -171 -28 -103 0 -121 3 -170 26 -71 33 -158 114 -193 176 -60 111
-57 15 -57 1798 0 1031 -4 1672 -10 1745 -28 307 -100 538 -203 644 -39 40
-47 44 -107 50 -120 12 -253 97 -314 200 -68 117 -75 273 -16 392 43 88 112
157 198 197 140 66 366 43 569 -59 157 -79 307 -216 401 -364 19 -30 36 -56
37 -58 1 -1 40 36 87 82 249 246 558 407 883 462 112 19 363 11 475 -15z
M7355 4055 c-312 -49 -543 -211 -674 -473 l-32 -63 23 -37 c92 -152 287 -276
513 -328 110 -25 356 -25 473 0 281 60 474 184 555 355 25 54 31 78 31 140 1
64 -4 85 -27 133 -32 64 -107 139 -183 180 -168 91 -449 130 -679 93z m404
-272 c79 -15 156 -43 196 -69 22 -14 25 -23 25 -79 0 -61 -1 -63 -46 -105 -54
-50 -139 -91 -249 -122 -68 -18 -106 -22 -260 -22 -159 -1 -189 2 -260 22
-126 37 -225 101 -225 148 0 24 69 92 131 130 104 63 227 99 399 118 58 6 210
-5 289 -21z"/>
</g>
</svg>
