<?xml version="1.0" standalone="no"?>
<!DOCTYPE svg PUBLIC "-//W3C//DTD SVG 20010904//EN"
 "http://www.w3.org/TR/2001/REC-SVG-20010904/DTD/svg10.dtd">
<svg version="1.0" xmlns="http://www.w3.org/2000/svg"
 width="2048.000000pt" height="2048.000000pt" viewBox="0 0 2048.000000 2048.000000"
 preserveAspectRatio="xMidYMid meet">
<metadata>
Created by potrace 1.13, written by Peter Selinger 2001-2015
</metadata>
<g transform="translate(0.000000,2048.000000) scale(0.192120,-0.192120)"
fill="#000000" stroke="none">
<path d="M1320 10324 c-273 -42 -463 -131 -640 -301 -176 -167 -284 -364 -332
-603 -19 -96 -19 -8084 0 -8180 80 -398 361 -723 733 -849 180 -60 -136 -56
4249 -56 3399 0 4036 2 4095 14 398 79 726 367 848 746 55 171 52 -100 52
4235 0 4335 3 4064 -52 4235 -51 157 -132 292 -250 415 -160 169 -333 267
-572 328 -61 15 -367 16 -4086 18 -2211 1 -4031 0 -4045 -2z m7980 -264 c326
-32 589 -200 717 -459 l48 -96 0 -4170 0 -4170 -32 -72 c-110 -249 -307 -413
-588 -490 l-100 -28 -3950 -3 c-2817 -2 -3978 0 -4047 8 -236 27 -410 109
-568 269 -82 84 -152 198 -189 311 l-21 65 2 4125 3 4125 31 71 c121 279 399
475 725 513 103 12 7848 13 7969 1z M4015 8748 c-118 -13 -223 -63 -357 -170
-88 -71 -1930 -1791 -2030 -1896 -96 -101 -161 -188 -198 -266 -47 -100 -52
-131 -48 -277 4 -123 7 -139 34 -199 104 -227 261 -376 447 -426 68 -18 198
-18 270 1 140 36 207 88 638 490 543 507 614 570 643 573 l26 2 0 -213 c0
-116 5 -230 11 -252 6 -22 14 -60 19 -85 10 -55 68 -179 112 -242 138 -193
302 -288 498 -288 131 0 239 39 365 132 33 25 287 244 565 487 523 458 590
514 627 525 l21 7 5 -268 c5 -277 7 -296 55 -428 50 -138 183 -306 298 -375
164 -99 360 -108 530 -25 87 43 148 93 691 567 583 510 589 515 623 519 l25 4
6 -275 c3 -151 11 -296 17 -322 60 -252 284 -494 499 -538 74 -16 224 -8 288
15 182 63 353 254 419 467 15 48 16 159 14 1168 l-3 1115 -37 78 c-62 130
-181 264 -293 328 -164 95 -358 96 -535 3 -104 -55 -168 -107 -680 -555 -550
-482 -598 -522 -611 -514 -5 4 -9 17 -9 31 0 14 -6 24 -15 24 -12 0 -15 40
-18 248 -2 136 -9 270 -15 297 -49 230 -254 460 -465 520 -71 20 -192 23 -267
6 -73 -17 -180 -70 -260 -130 -36 -26 -301 -255 -590 -507 -289 -253 -536
-467 -549 -476 -29 -21 -41 -15 -41 18 0 15 -6 24 -15 24 -13 0 -15 31 -15
223 0 183 -4 238 -20 312 -46 208 -191 400 -370 489 -99 50 -194 67 -305 54z
m2394 -239 c110 -25 218 -117 272 -232 l34 -72 3 -563 3 -563 87 79 c185 167
1456 1275 1489 1297 99 68 254 87 365 45 127 -47 220 -144 258 -267 19 -63 20
-92 20 -1098 0 -1007 0 -1035 -20 -1098 -34 -110 -117 -202 -230 -256 -49 -23
-67 -26 -165 -26 -105 0 -114 2 -178 33 -86 43 -156 113 -199 199 l-33 68 -5
567 -5 568 -83 -74 c-45 -41 -395 -348 -777 -682 -541 -475 -709 -617 -762
-644 -66 -34 -72 -35 -178 -35 -99 0 -116 3 -169 28 -114 53 -182 127 -226
245 -20 52 -21 76 -20 610 l0 555 -29 -24 c-16 -13 -359 -314 -762 -668 -404
-354 -754 -659 -779 -677 -131 -97 -336 -99 -473 -5 -95 65 -157 161 -178 276
-7 39 -10 229 -7 557 1 274 1 498 -3 498 -3 0 -21 -16 -40 -36 -18 -20 -304
-289 -634 -597 -330 -309 -633 -592 -674 -630 -46 -43 -98 -81 -140 -101 -62
-29 -73 -31 -176 -31 -99 0 -116 3 -168 27 -32 15 -84 52 -116 83 -135 129
-169 315 -86 481 35 72 49 86 1120 1086 924 863 1095 1018 1152 1048 66 34 71
35 183 35 109 0 118 -2 181 -32 119 -58 205 -174 230 -308 7 -39 10 -235 7
-577 -1 -285 -2 -518 0 -518 2 0 27 22 55 49 29 27 382 337 785 689 536 469
747 648 788 667 86 41 175 48 283 24z M3914 5115 c-92 -31 -170 -77 -268 -159
-114 -96 -1949 -1809 -2030 -1897 -91 -97 -151 -179 -186 -253 -47 -100 -52
-131 -48 -277 4 -121 7 -140 33 -199 92 -209 263 -375 439 -425 77 -22 205
-23 281 -1 73 21 167 71 238 127 28 23 205 183 391 358 540 503 622 576 651
579 l25 2 0 -213 c0 -116 5 -230 11 -252 6 -22 14 -60 19 -85 16 -87 88 -220
170 -315 169 -198 398 -266 625 -186 103 36 222 130 720 566 488 427 620 540
627 534 1 -1 13 3 25 9 l21 12 5 -268 c3 -164 9 -284 17 -312 59 -217 187
-400 345 -495 174 -104 387 -104 559 0 84 50 132 91 651 545 543 475 593 517
626 522 l24 3 6 -275 c3 -151 11 -297 17 -323 30 -124 105 -256 211 -370 172
-183 434 -232 651 -122 138 70 282 248 340 421 19 57 20 88 20 1164 l0 1105
-34 83 c-64 154 -195 300 -329 366 -90 44 -140 55 -242 56 -138 0 -255 -44
-395 -149 -36 -27 -288 -244 -561 -483 -651 -570 -609 -537 -609 -478 0 20 -5
30 -15 30 -13 0 -15 31 -15 222 0 236 -8 304 -46 408 -70 191 -237 365 -409
426 -74 26 -237 31 -311 9 -79 -23 -165 -68 -249 -130 -38 -28 -288 -243 -555
-476 -550 -482 -598 -522 -611 -514 -5 4 -9 17 -9 31 0 15 -6 24 -15 24 -13 0
-15 31 -15 223 0 254 -14 339 -73 467 -77 169 -243 320 -405 370 -93 29 -225
27 -318 -5z m298 -226 c115 -37 213 -130 260 -246 l23 -58 0 -558 c0 -306 2
-557 5 -557 2 0 25 20 50 44 25 24 376 333 780 687 847 740 797 704 975 704
104 0 114 -2 176 -32 74 -36 154 -114 189 -184 49 -94 50 -110 50 -681 l0
-537 783 685 c876 767 846 745 997 752 107 5 174 -12 257 -67 74 -50 137 -134
163 -218 19 -63 20 -93 20 -1098 0 -996 -1 -1035 -19 -1096 -113 -360 -612
-394 -774 -51 l-32 67 -5 567 -5 567 -69 -62 c-38 -34 -389 -342 -780 -685
-532 -466 -726 -630 -771 -652 -187 -93 -422 -28 -533 147 -64 101 -63 90 -62
701 l0 555 -39 -34 c-22 -19 -373 -326 -781 -684 -570 -500 -756 -658 -808
-685 -65 -34 -70 -35 -182 -35 -111 0 -118 1 -182 34 -120 60 -204 172 -229
306 -7 39 -10 229 -7 556 l3 497 -47 -41 c-26 -23 -340 -316 -698 -652 -359
-335 -670 -622 -692 -637 -97 -66 -240 -87 -355 -53 -165 49 -293 221 -293
394 0 123 43 217 144 316 158 155 2098 1960 2129 1981 94 63 243 82 359 43z"/>
</g>
</svg>
