<?xml version="1.0" standalone="no"?>
<!DOCTYPE svg PUBLIC "-//W3C//DTD SVG 20010904//EN"
 "http://www.w3.org/TR/2001/REC-SVG-20010904/DTD/svg10.dtd">
<svg version="1.0" xmlns="http://www.w3.org/2000/svg"
 width="2048.000000pt" height="2048.000000pt" viewBox="0 0 2048.000000 2048.000000"
 preserveAspectRatio="xMidYMid meet">
<metadata>
Created by potrace 1.13, written by Peter Selinger 2001-2015
</metadata>
<g transform="translate(0.000000,2048.000000) scale(0.192120,-0.192120)"
fill="#000000" stroke="none">
<path d="M1320 10324 c-273 -42 -463 -131 -640 -301 -176 -167 -284 -364 -332
-603 -19 -96 -19 -8084 0 -8180 80 -398 361 -723 733 -849 180 -60 -136 -56
4249 -56 3399 0 4036 2 4095 14 398 79 726 367 848 746 55 171 52 -100 52
4235 0 4335 3 4064 -52 4235 -51 157 -132 292 -250 415 -160 169 -333 267
-572 328 -61 15 -367 16 -4086 18 -2211 1 -4031 0 -4045 -2z m7980 -264 c326
-32 589 -200 717 -459 l48 -96 0 -4170 0 -4170 -32 -72 c-110 -249 -307 -413
-588 -490 l-100 -28 -3950 -3 c-2817 -2 -3978 0 -4047 8 -236 27 -410 109
-568 269 -82 84 -152 198 -189 311 l-21 65 2 4125 3 4125 31 71 c121 279 399
475 725 513 103 12 7848 13 7969 1z M2385 9002 c-104 -35 -177 -85 -271 -185
-60 -63 -88 -104 -123 -177 l-46 -95 -3 -146 c-3 -146 -3 -148 29 -226 47
-115 122 -224 244 -353 59 -63 131 -144 160 -180 224 -280 397 -655 510 -1110
61 -247 76 -351 73 -521 l-3 -154 -370 -6 c-395 -6 -425 -10 -540 -63 -128
-59 -266 -199 -337 -343 l-43 -86 -3 -147 c-3 -144 -3 -149 27 -226 65 -166
198 -323 337 -396 120 -63 166 -70 554 -77 l345 -6 3 -81 c3 -101 -37 -294
-108 -517 -145 -457 -322 -773 -599 -1072 -141 -151 -212 -249 -249 -338 -31
-73 -32 -81 -32 -219 0 -130 2 -149 27 -213 57 -151 204 -326 328 -392 160
-84 343 -85 505 -3 227 115 565 502 813 930 84 147 230 449 295 610 130 326
242 741 307 1135 9 55 21 115 26 133 l11 32 1069 0 1070 0 13 -32 c8 -18 28
-116 46 -217 165 -944 556 -1778 1100 -2345 206 -214 372 -306 555 -306 259 0
483 188 591 495 9 27 14 85 14 175 0 131 -1 138 -34 218 -43 103 -96 177 -226
317 -177 189 -253 293 -375 510 -83 149 -124 238 -184 398 -98 261 -174 562
-175 697 l-1 85 355 6 c219 4 376 11 410 19 83 18 208 82 273 140 92 83 174
210 218 339 15 42 19 83 19 188 0 128 -2 138 -32 211 -75 183 -239 347 -401
401 -100 34 -192 40 -544 41 l-333 0 0 131 c0 376 182 995 406 1376 105 179
169 263 346 453 120 129 171 197 215 285 58 116 65 150 61 312 l-3 148 -48 98
c-41 84 -62 112 -140 191 -132 133 -248 186 -407 186 -186 0 -343 -83 -550
-290 -95 -95 -257 -284 -318 -370 -157 -222 -239 -361 -365 -618 -141 -287
-232 -533 -322 -872 -64 -244 -95 -398 -135 -682 -36 -252 -36 -251 -67 -305
l-25 -43 -1012 0 -1011 0 -19 43 c-11 25 -32 136 -52 276 -98 683 -248 1172
-527 1716 -245 477 -642 952 -904 1084 -138 69 -281 80 -418 33z m296 -222
c83 -26 167 -90 297 -225 628 -651 1016 -1664 1087 -2832 l7 -113 1258 0 1258
0 6 118 c64 1083 414 2053 977 2707 107 124 240 252 310 298 162 107 383 84
519 -53 75 -74 113 -162 118 -271 7 -151 -45 -263 -171 -368 -110 -91 -264
-278 -375 -456 -249 -403 -420 -899 -502 -1462 -17 -121 -50 -442 -50 -495 0
-17 31 -18 503 -18 547 0 567 -2 669 -57 67 -36 133 -110 171 -191 30 -62 32
-75 32 -172 0 -97 -2 -110 -32 -173 -40 -84 -118 -164 -195 -200 -93 -44 -175
-49 -674 -46 -250 2 -454 1 -454 -2 0 -4 9 -76 21 -160 111 -840 416 -1538
851 -1954 127 -121 163 -170 190 -258 26 -86 21 -194 -12 -282 -32 -84 -141
-193 -225 -225 -143 -54 -294 -33 -415 59 -82 62 -243 227 -342 351 -493 618
-796 1430 -896 2398 l-7 73 -1275 0 -1275 0 -8 -73 c-92 -867 -328 -1570 -728
-2169 -150 -225 -370 -476 -508 -579 -200 -150 -471 -108 -603 92 -86 129 -95
272 -29 414 24 52 53 86 152 182 224 217 395 464 540 783 171 377 278 783 344
1304 l6 50 -464 -4 c-312 -2 -487 1 -536 8 -97 15 -174 53 -239 118 -213 213
-137 571 145 685 58 23 60 23 586 26 404 2 527 6 527 15 0 28 -30 348 -40 420
-92 720 -335 1351 -688 1788 -33 41 -114 127 -180 191 -98 94 -127 130 -154
185 -31 64 -33 74 -33 178 0 104 2 114 32 175 33 68 92 135 155 177 91 61 235
79 349 43z"/>
</g>
</svg>
