<?xml version="1.0" standalone="no"?>
<!DOCTYPE svg PUBLIC "-//W3C//DTD SVG 20010904//EN"
 "http://www.w3.org/TR/2001/REC-SVG-20010904/DTD/svg10.dtd">
<svg version="1.0" xmlns="http://www.w3.org/2000/svg"
 width="2048.000000pt" height="2048.000000pt" viewBox="0 0 2048.000000 2048.000000"
 preserveAspectRatio="xMidYMid meet">
<metadata>
Created by potrace 1.13, written by Peter Selinger 2001-2015
</metadata>
<g transform="translate(0.000000,2048.000000) scale(0.192120,-0.192120)"
fill="#000000" stroke="none">
<path d="M5133 10118 c-883 -712 -1778 -1579 -2412 -2338 -786 -940 -1269
-1793 -1436 -2538 -38 -171 -55 -305 -62 -482 -27 -762 306 -1434 917 -1844
112 -76 358 -195 493 -240 610 -203 1275 -104 1792 267 97 69 248 201 291 253
61 75 63 64 22 -146 -61 -318 -211 -628 -441 -915 -77 -96 -283 -298 -387
-380 -382 -303 -876 -515 -1330 -569 -257 -31 -285 -36 -347 -66 -82 -38 -156
-112 -196 -198 -30 -63 -32 -74 -32 -177 0 -98 3 -116 27 -168 40 -85 123
-167 211 -208 l72 -34 2985 -3 c1969 -1 3001 1 3032 8 120 25 235 116 291 229
30 62 32 72 32 176 0 103 -2 114 -32 177 -40 86 -114 160 -196 198 -62 29 -81
33 -342 65 -737 92 -1452 530 -1862 1140 -169 251 -285 561 -328 868 -8 59 3
60 49 4 19 -23 72 -75 118 -114 371 -322 779 -489 1248 -509 324 -15 658 56
965 205 426 206 745 525 950 946 471 967 169 2146 -921 3595 -383 508 -715
884 -1293 1460 -432 432 -731 707 -1166 1076 -214 181 -502 414 -513 414 -6 0
-95 -68 -199 -152z m275 -255 c93 -63 483 -394 787 -668 976 -880 1803 -1810
2292 -2580 324 -508 532 -972 627 -1396 26 -115 26 -121 26 -530 l0 -414 -30
-118 c-89 -353 -291 -673 -565 -897 -236 -192 -534 -326 -846 -379 -383 -65
-745 -16 -1086 149 -138 66 -222 119 -362 225 -197 148 -274 186 -341 166 -49
-15 -161 -118 -200 -185 -28 -50 -30 -60 -30 -159 0 -139 25 -246 105 -447 59
-150 166 -350 259 -488 135 -201 389 -477 576 -626 144 -115 377 -263 545
-347 322 -160 577 -237 955 -289 85 -12 174 -30 198 -40 l42 -19 0 -65 c0 -83
-4 -92 -54 -119 l-41 -22 -2940 0 c-2853 0 -2941 1 -2975 19 -64 34 -70 43
-70 113 l0 64 54 25 c38 17 98 30 205 44 264 35 457 82 676 165 448 170 872
461 1166 803 269 310 446 625 552 977 25 81 31 123 34 225 5 121 4 127 -23
179 -35 70 -142 177 -193 192 -56 17 -119 -8 -241 -94 -56 -40 -152 -107 -214
-150 -536 -376 -1227 -428 -1832 -138 -244 117 -453 280 -609 476 -157 195
-293 490 -339 734 -22 116 -23 759 -2 871 81 420 251 833 544 1320 322 536
804 1151 1363 1740 505 531 1131 1115 1685 1573 178 146 223 163 302 110z"/>
</g>
</svg>
