<?xml version="1.0" standalone="no"?>
<!DOCTYPE svg PUBLIC "-//W3C//DTD SVG 20010904//EN"
 "http://www.w3.org/TR/2001/REC-SVG-20010904/DTD/svg10.dtd">
<svg version="1.0" xmlns="http://www.w3.org/2000/svg"
 width="2048.000000pt" height="2048.000000pt" viewBox="0 0 2048.000000 2048.000000"
 preserveAspectRatio="xMidYMid meet">
<metadata>
Created by potrace 1.13, written by Peter Selinger 2001-2015
</metadata>
<g transform="translate(0.000000,2048.000000) scale(0.192120,-0.192120)"
fill="#000000" stroke="none">
<path d="M5264 10311 c-18 -11 -43 -34 -56 -53 -119 -159 -3415 -4778 -3427
-4802 -22 -43 -22 -209 0 -252 12 -24 3308 -4643 3427 -4802 70 -95 174 -95
244 0 119 160 3414 4777 3427 4801 22 45 22 209 0 254 -13 24 -3308 4641
-3427 4801 -32 45 -79 72 -122 72 -19 0 -49 -9 -66 -19z m109 -381 c33 -26
-119 185 1684 -2338 l1553 -2173 0 -87 c0 -80 -3 -92 -28 -133 -40 -62 -3115
-4361 -3170 -4432 -65 -82 -93 -85 -158 -15 -18 18 -220 296 -450 618 -229
322 -940 1316 -1579 2210 -639 894 -1170 1640 -1179 1657 -10 20 -16 56 -16
97 l0 65 1256 1758 c1852 2590 1951 2728 1989 2762 42 36 63 39 98 11z"/>
</g>
</svg>
