<?xml version="1.0" standalone="no"?>
<!DOCTYPE svg PUBLIC "-//W3C//DTD SVG 20010904//EN"
 "http://www.w3.org/TR/2001/REC-SVG-20010904/DTD/svg10.dtd">
<svg version="1.0" xmlns="http://www.w3.org/2000/svg"
 width="2048.000000pt" height="2048.000000pt" viewBox="0 0 2048.000000 2048.000000"
 preserveAspectRatio="xMidYMid meet">
<metadata>
Created by potrace 1.13, written by Peter Selinger 2001-2015
</metadata>
<g transform="translate(0.000000,2048.000000) scale(0.192120,-0.192120)"
fill="#000000" stroke="none">
<path d="M3102 10310 c-134 -35 -160 -56 -542 -435 -341 -338 -356 -351 -385
-344 -16 3 -70 7 -118 8 -103 1 -205 -28 -290 -83 -67 -43 -520 -495 -563
-563 -55 -85 -84 -187 -83 -290 1 -48 5 -101 8 -118 7 -29 -6 -44 -349 -390
-384 -388 -395 -402 -430 -541 -35 -137 -20 -268 46 -397 34 -66 83 -118 588
-623 502 -501 557 -554 622 -587 175 -90 376 -87 543 9 26 15 190 170 384 363
l337 336 675 -675 675 -675 -1589 -1590 c-873 -874 -1602 -1610 -1618 -1635
-95 -141 -142 -282 -150 -446 -12 -240 66 -436 239 -599 91 -86 213 -152 333
-181 102 -25 286 -23 390 5 89 24 200 73 272 122 27 17 765 748 1641 1623
l1592 1591 1593 -1591 c875 -875 1613 -1606 1640 -1623 143 -96 297 -143 472
-144 147 -1 226 17 351 78 174 84 308 240 376 435 31 90 32 102 32 240 0 108
-4 162 -18 210 -21 78 -82 210 -126 277 -18 26 -748 764 -1621 1638 l-1589
1590 675 675 675 675 627 -626 c346 -344 664 -655 708 -691 194 -158 334 -247
475 -300 78 -29 95 -32 205 -33 113 0 123 2 175 28 117 60 188 144 243 286 75
193 109 521 89 858 -20 341 -92 840 -158 1103 -98 391 -281 748 -551 1072
l-75 90 11 76 c17 130 -5 245 -71 361 -44 78 -511 545 -589 589 -116 65 -232
88 -358 71 l-74 -10 -351 349 c-203 202 -370 361 -397 376 -167 96 -368 99
-543 9 -65 -33 -120 -85 -622 -587 -502 -502 -554 -557 -587 -622 -90 -175
-87 -376 9 -543 15 -27 174 -194 375 -396 l349 -350 -675 -675 -675 -675 -675
675 -675 675 349 350 c201 202 360 369 375 396 96 167 99 368 9 543 -33 65
-86 120 -587 622 -505 505 -557 554 -623 588 -129 66 -265 81 -401 46z m4424
-252 c72 -31 148 -89 264 -203 334 -326 485 -457 589 -510 42 -21 81 -30 185
-41 130 -15 131 -15 171 -52 22 -21 60 -51 85 -67 69 -44 396 -371 420 -420
11 -23 29 -50 40 -60 17 -16 20 -31 20 -111 0 -167 32 -245 194 -479 108 -155
273 -419 321 -514 68 -135 139 -374 180 -601 37 -205 46 -437 43 -1000 l-3
-485 -26 -66 c-32 -83 -72 -135 -123 -161 -82 -42 -239 -10 -391 80 -192 113
-309 219 -1015 918 -512 506 -638 590 -776 517 -29 -15 -45 -18 -52 -11 -22
22 -126 -74 -677 -623 -308 -307 -571 -562 -584 -567 -13 -5 -36 -7 -50 -4
-18 3 -136 115 -373 351 -322 321 -348 349 -348 381 0 32 37 71 533 570 537
539 675 690 662 730 -4 13 1 33 14 54 29 46 28 120 -3 188 -40 90 -111 174
-372 438 -165 167 -262 274 -282 310 -31 53 -32 59 -32 177 l0 121 35 44 c19
24 41 57 48 74 20 44 148 175 573 588 377 367 435 415 532 443 53 15 154 10
198 -9z m-4136 -46 c25 -10 72 -40 105 -65 86 -65 982 -966 994 -1000 6 -16
11 -87 11 -158 0 -124 -1 -133 -27 -177 -15 -26 -133 -155 -263 -287 -324
-330 -373 -394 -479 -625 -9 -20 -168 -188 -381 -400 -297 -298 -375 -371
-420 -392 -30 -15 -84 -40 -120 -57 -103 -49 -189 -120 -441 -367 -237 -234
-304 -288 -392 -318 -102 -34 -234 -13 -334 55 -77 52 -979 955 -1019 1020
-34 56 -34 58 -34 173 0 89 4 125 16 149 9 18 135 151 279 297 144 146 287
297 318 336 56 69 157 234 157 255 0 6 20 41 44 77 48 75 589 617 666 669 25
16 81 45 125 64 44 19 107 52 140 74 33 22 188 166 345 321 287 283 355 339
446 368 66 21 203 15 264 -12z m-1338 -639 c-48 -60 -791 -797 -798 -791 -8 8
43 124 80 182 78 121 421 468 543 549 60 40 173 95 196 97 5 0 -5 -17 -21 -37z
m1881 -1745 c14 -119 38 -148 477 -593 223 -225 437 -443 475 -484 92 -97 234
-215 295 -246 70 -36 129 -34 173 5 19 17 39 30 43 30 5 0 227 -218 493 -484
l484 -484 -31 -37 c-57 -65 -40 -131 76 -285 31 -41 237 -258 459 -481 222
-223 403 -414 403 -423 0 -10 488 -507 1093 -1114 1010 -1014 1095 -1102 1125
-1163 l32 -66 0 -200 0 -200 -32 -62 c-60 -116 -184 -206 -326 -237 -190 -40
-383 6 -552 132 -36 26 -713 694 -1505 1485 -1006 1003 -1466 1455 -1525 1499
-93 69 -171 110 -210 110 -28 0 -73 -27 -95 -56 -13 -18 -44 11 -506 472
l-491 491 36 47 c20 26 36 57 36 68 0 34 -58 141 -113 211 -29 36 -273 287
-542 558 -349 352 -506 503 -546 527 -33 19 -90 40 -140 51 l-84 19 486 487
c268 268 491 485 497 482 5 -4 12 -30 15 -59z m433 -2657 c21 -16 182 -172
357 -348 251 -252 317 -324 317 -344 0 -14 -13 -44 -29 -65 -57 -76 -2934
-2940 -3002 -2988 -157 -110 -347 -151 -521 -115 -143 30 -277 126 -336 240
l-32 64 0 185 c0 203 4 217 71 317 34 51 2950 2977 3032 3044 59 47 90 49 143
10z"/>
</g>
</svg>
