<?xml version="1.0" standalone="no"?>
<!DOCTYPE svg PUBLIC "-//W3C//DTD SVG 20010904//EN"
 "http://www.w3.org/TR/2001/REC-SVG-20010904/DTD/svg10.dtd">
<svg version="1.0" xmlns="http://www.w3.org/2000/svg"
 width="2048.000000pt" height="2048.000000pt" viewBox="0 0 2048.000000 2048.000000"
 preserveAspectRatio="xMidYMid meet">
<metadata>
Created by potrace 1.13, written by Peter Selinger 2001-2015
</metadata>
<g transform="translate(0.000000,2048.000000) scale(0.192120,-0.192120)"
fill="#000000" stroke="none">
<path d="M5140 10319 c-195 -22 -360 -72 -555 -169 -454 -225 -782 -649 -885
-1144 -115 -549 54 -1119 450 -1516 159 -159 337 -280 532 -360 l93 -39 2
-185 1 -186 -441 0 c-490 0 -531 -4 -647 -62 -85 -43 -197 -153 -238 -233 -46
-93 -62 -158 -62 -261 0 -209 110 -394 289 -488 124 -64 138 -66 642 -66 l454
0 0 -2195 c0 -2188 0 -2195 -20 -2195 -35 1 -256 59 -385 101 -806 267 -1470
865 -1821 1640 -47 103 -159 404 -159 426 0 4 162 4 360 0 274 -4 359 -3 354
6 -4 7 -28 41 -54 77 -40 55 -1067 1523 -1162 1660 l-31 45 -16 -25 c-20 -32
-1145 -1638 -1194 -1706 -20 -28 -37 -53 -37 -56 0 -2 208 -4 461 -4 l462 1
33 -133 c234 -931 830 -1760 1651 -2296 1325 -865 3072 -829 4358 89 257 184
577 482 764 713 361 447 621 962 755 1494 l33 133 462 -1 c253 0 461 1 461 4
0 3 -17 28 -37 56 -49 68 -1174 1674 -1194 1706 l-16 25 -31 -45 c-99 -144
-1123 -1606 -1162 -1660 -26 -36 -50 -70 -54 -77 -5 -9 80 -10 354 -6 198 4
360 4 360 0 0 -3 -23 -72 -51 -153 -161 -466 -409 -857 -761 -1199 -163 -159
-261 -239 -445 -361 -303 -202 -648 -350 -1006 -434 -48 -11 -95 -20 -105 -20
-16 0 -17 130 -17 2195 l0 2195 455 0 c506 0 517 1 640 66 179 94 290 279 290
482 0 164 -50 284 -164 398 -47 46 -93 82 -136 102 -118 58 -158 62 -647 62
l-441 0 1 185 2 186 80 32 c355 143 663 427 844 777 431 835 89 1857 -759
2264 -287 138 -597 190 -910 155z m495 -309 c144 -31 234 -62 370 -130 148
-74 264 -160 381 -282 136 -143 229 -296 290 -478 l29 -85 3 -341 c3 -384 1
-404 -68 -574 -42 -105 -108 -221 -179 -315 -126 -167 -240 -258 -526 -420
-47 -27 -160 -133 -215 -201 -58 -71 -60 -82 -60 -280 0 -101 4 -184 9 -184 5
0 12 -11 15 -25 4 -14 11 -25 16 -25 6 0 10 -7 10 -17 0 -9 37 -53 83 -98 123
-121 100 -116 587 -124 441 -8 462 -11 540 -69 68 -51 69 -55 70 -191 0 -115
-2 -127 -25 -167 -15 -26 -43 -54 -70 -70 -93 -54 -110 -56 -540 -63 -385 -6
-402 -7 -449 -29 -54 -25 -226 -188 -226 -216 0 -9 -4 -16 -10 -16 -7 0 -10
-734 -9 -2182 0 -2132 1 -2184 20 -2213 10 -16 23 -39 28 -51 16 -37 122 -144
169 -172 79 -45 201 -31 457 53 346 113 713 314 1010 551 142 114 397 369 509
509 214 268 390 568 511 871 98 242 116 353 74 437 -27 52 -131 162 -184 193
-22 13 -68 30 -102 37 -34 8 -66 18 -72 22 -19 11 -12 39 26 95 109 165 591
846 625 885 48 55 85 60 124 18 26 -28 633 -893 653 -930 16 -31 14 -70 -5
-77 -9 -3 -66 -6 -128 -6 -125 0 -198 -11 -254 -37 -53 -25 -194 -164 -224
-220 -14 -26 -53 -133 -86 -238 -123 -393 -238 -634 -457 -965 -174 -263 -363
-479 -589 -678 -568 -499 -1248 -799 -2021 -894 -167 -20 -703 -17 -870 5
-709 95 -1332 358 -1865 788 -275 221 -500 463 -692 744 -230 336 -397 692
-511 1095 -38 133 -63 177 -152 265 -116 117 -166 135 -372 135 -63 0 -123 5
-134 10 -29 16 -23 49 22 115 176 254 575 821 609 863 34 44 46 52 74 52 26 0
41 -8 62 -33 16 -17 170 -234 343 -481 350 -501 350 -501 271 -524 -111 -33
-135 -46 -211 -120 -160 -152 -167 -216 -52 -512 166 -426 417 -811 752 -1153
266 -272 514 -456 846 -628 302 -157 725 -294 844 -273 20 3 54 17 77 30 56
32 147 133 170 188 11 25 22 46 27 46 4 0 7 986 7 2190 0 1276 -4 2190 -9
2190 -5 0 -12 12 -15 26 -10 39 -155 180 -212 206 -47 22 -62 23 -444 29 -396
6 -457 11 -524 46 -109 56 -136 107 -136 257 l0 107 48 48 c31 31 69 56 108
71 57 23 72 24 469 31 350 5 417 9 457 24 66 23 175 127 213 201 17 33 33 61
38 62 4 2 7 86 7 187 l0 184 -36 61 c-58 99 -163 197 -284 265 -329 184 -499
357 -638 655 -95 202 -97 216 -97 600 l0 335 34 100 c114 339 351 609 681 775
147 74 318 127 477 149 114 16 393 6 508 -19z M5245 9754 c-267 -37 -453 -128
-637 -310 -106 -105 -178 -202 -237 -321 -85 -170 -94 -209 -99 -435 -4 -190
-3 -201 22 -290 15 -51 50 -140 78 -197 257 -519 771 -763 1263 -600 339 113
618 424 724 809 29 103 30 399 2 505 -91 350 -383 673 -711 787 -114 40 -312
65 -405 52z m291 -284 c274 -69 492 -274 585 -550 28 -82 33 -112 37 -225 3
-109 1 -144 -17 -220 -86 -360 -392 -619 -761 -642 -476 -29 -880 348 -880
825 0 320 161 591 441 741 181 97 393 122 595 71z"/>
</g>
</svg>
