<?xml version="1.0" standalone="no"?>
<!DOCTYPE svg PUBLIC "-//W3C//DTD SVG 20010904//EN"
 "http://www.w3.org/TR/2001/REC-SVG-20010904/DTD/svg10.dtd">
<svg version="1.0" xmlns="http://www.w3.org/2000/svg"
 width="2048.000000pt" height="2048.000000pt" viewBox="0 0 2048.000000 2048.000000"
 preserveAspectRatio="xMidYMid meet">
<metadata>
Created by potrace 1.13, written by Peter Selinger 2001-2015
</metadata>
<g transform="translate(0.000000,2048.000000) scale(0.192120,-0.192120)"
fill="#000000" stroke="none">
<path d="M608 9357 l3 -693 1667 -1667 1667 -1667 345 345 345 345 -1980 1983
-1980 1982 38 3 c20 2 83 -9 140 -24 214 -56 201 -55 632 -62 l410 -7 55 -30
c43 -23 373 -347 1560 -1531 828 -826 1535 -1528 1571 -1561 215 -192 333
-172 623 106 67 63 762 755 1546 1537 784 782 1439 1429 1455 1437 88 43 130
47 482 47 186 0 368 5 404 10 36 5 121 25 190 45 75 22 140 35 164 33 l40 -3
-3324 -3327 -3324 -3326 44 -7 c55 -8 128 8 194 43 35 19 163 139 433 406 210
209 382 376 382 370 0 -5 1216 1206 2703 2691 l2702 2700 3 -415 2 -414 -1578
-1581 c-992 -994 -1611 -1621 -1667 -1690 -50 -60 -185 -207 -301 -325 -238
-244 -269 -279 -314 -369 -27 -55 -32 -73 -28 -118 3 -30 9 -58 14 -63 6 -6
806 787 2066 2047 l2057 2055 3 694 3 694 -695 0 -695 0 -1667 -1667 -1668
-1668 -1668 1668 -1667 1667 -695 0 -695 0 3 -693z m2005 -1566 c1003 -1002
1730 -1736 1734 -1750 3 -14 -1 -37 -12 -56 -26 -50 -315 -332 -348 -340 -16
-4 -41 -2 -60 6 -20 8 -594 573 -1559 1538 l-1528 1525 0 413 0 414 23 -12
c12 -6 800 -788 1750 -1738z M3302 4687 c-342 -342 -622 -625 -622 -630 0 -14
126 -7 175 9 55 19 112 72 538 493 474 469 567 578 567 665 0 34 -18 86 -29
86 -3 0 -286 -280 -629 -623z M6752 5202 c3 -60 10 -87 31 -122 38 -66 950
-972 1007 -1000 46 -24 190 -42 190 -24 0 12 -1212 1224 -1224 1224 -5 0 -7
-35 -4 -78z M5979 4584 l-47 -46 21 -39 c44 -83 141 -186 564 -603 455 -449
540 -526 601 -552 46 -19 149 -29 179 -17 21 8 -37 68 -625 656 l-647 647 -46
-46z M2125 4196 c-209 -52 -352 -264 -316 -467 22 -125 43 -155 286 -399 l224
-225 -629 -744 c-347 -409 -630 -745 -630 -746 0 -2 553 -555 555 -555 1 0
337 283 746 630 l744 630 225 -225 c244 -243 274 -264 399 -286 267 -47 521
210 472 477 -27 146 4 112 -900 1015 -717 717 -834 831 -886 857 -102 50 -192
62 -290 38z m220 -309 c28 -14 70 -41 95 -60 24 -20 48 -33 52 -31 4 3 122
-107 261 -244 252 -250 332 -320 526 -467 122 -92 378 -338 460 -442 185 -236
252 -379 207 -447 -9 -14 -16 -34 -16 -44 0 -28 -39 -59 -92 -73 -37 -10 -57
-10 -101 0 -67 15 -105 40 -232 151 -206 180 -317 220 -391 139 -9 -10 -22
-19 -28 -19 -6 0 -175 164 -376 365 -324 324 -363 367 -352 383 42 58 52 81
52 117 -1 80 -54 162 -229 348 -56 59 -106 119 -111 133 -6 14 -10 56 -10 93
0 75 8 88 70 116 51 23 152 15 215 -18z m75 -1193 c14 -9 87 -78 163 -153 159
-157 164 -170 100 -236 -39 -39 -806 -691 -949 -807 -44 -36 -93 -68 -108 -72
-40 -10 -86 16 -155 89 -65 68 -73 93 -44 135 34 49 787 936 846 998 67 68 99
78 147 46z M8345 4196 c-116 -29 -111 -25 -981 -895 -901 -901 -880 -877 -905
-1014 -49 -268 204 -526 472 -478 125 22 155 43 400 287 l225 225 45 -39 c49
-43 1406 -1190 1430 -1210 14 -10 54 26 293 265 152 152 276 277 276 278 0 1
-283 337 -630 746 l-629 744 224 225 c243 244 264 274 286 399 50 281 -227
536 -506 467z m198 -300 l37 -18 0 -93 c0 -110 -7 -123 -134 -255 -110 -114
-150 -165 -180 -230 -38 -81 -31 -135 23 -184 12 -11 21 -24 21 -30 0 -14
-722 -736 -736 -736 -6 0 -19 9 -30 21 -79 87 -169 56 -385 -134 -178 -156
-245 -186 -353 -156 -22 6 -52 24 -68 39 -26 27 -28 34 -28 113 0 83 1 85 42
143 24 32 52 75 63 95 82 146 404 484 645 677 81 64 247 216 375 342 279 274
309 302 313 290 2 -5 28 11 58 35 54 45 116 80 164 96 39 13 131 5 173 -15z
m-190 -1216 c51 -44 871 -1016 881 -1043 15 -40 -1 -73 -67 -140 -75 -76 -103
-86 -160 -58 -36 17 -413 331 -925 769 -127 108 -158 148 -148 187 6 25 251
265 301 296 43 27 79 24 118 -11z M5277 4106 c-94 -35 -157 -86 -430 -356
-154 -151 -325 -327 -380 -390 -56 -63 -175 -190 -264 -282 -194 -198 -205
-217 -211 -360 -3 -73 -1 -98 8 -98 7 0 310 297 673 661 l661 660 660 -660
c364 -364 664 -661 669 -661 11 0 8 148 -4 200 -5 25 -25 68 -43 95 -38 58
-1013 1047 -1096 1112 l-55 43 -55 -53 -55 -52 49 52 c28 29 48 54 45 56 -2 3
-18 11 -34 20 -47 24 -96 28 -138 13z M619 1732 c-110 -37 -199 -118 -253
-231 -28 -60 -31 -74 -31 -166 0 -89 4 -107 29 -165 27 -59 61 -97 374 -412
366 -368 394 -391 511 -418 162 -38 346 41 440 188 91 143 78 354 -29 475
l-33 38 -24 -23 c-49 -45 -70 -98 -77 -188 -4 -47 -11 -89 -16 -94 -6 -6 -10
-23 -10 -38 0 -96 -151 -151 -269 -98 -63 29 -103 63 -331 283 -304 293 -339
340 -340 452 0 68 14 96 61 120 16 9 29 22 29 30 0 24 31 32 150 40 123 7 167
23 218 78 l23 24 -38 33 c-64 57 -136 83 -238 87 -68 2 -104 -1 -146 -15z
M9795 1736 c-56 -18 -99 -41 -140 -77 -41 -36 -38 -45 34 -91 39 -24 55 -28
117 -28 40 0 76 -4 79 -10 3 -5 25 -10 48 -10 52 0 131 -37 136 -64 1 -10 12
-28 22 -39 15 -16 19 -36 19 -87 0 -61 -4 -73 -38 -126 -21 -32 -81 -97 -133
-144 -52 -46 -171 -159 -264 -250 -196 -191 -256 -230 -354 -230 -60 0 -124
24 -153 57 -21 23 -34 84 -43 203 -7 87 -30 144 -73 183 -19 17 -20 17 -52
-20 -105 -119 -120 -323 -34 -469 86 -146 284 -232 445 -194 115 27 136 44
496 403 362 361 386 390 413 506 38 162 -48 360 -194 445 -90 53 -238 72 -331
42z"/>
</g>
</svg>
