<?xml version="1.0" standalone="no"?>
<!DOCTYPE svg PUBLIC "-//W3C//DTD SVG 20010904//EN"
 "http://www.w3.org/TR/2001/REC-SVG-20010904/DTD/svg10.dtd">
<svg version="1.0" xmlns="http://www.w3.org/2000/svg"
 width="2048.000000pt" height="2048.000000pt" viewBox="0 0 2048.000000 2048.000000"
 preserveAspectRatio="xMidYMid meet">
<metadata>
Created by potrace 1.13, written by Peter Selinger 2001-2015
</metadata>
<g transform="translate(0.000000,2048.000000) scale(0.192120,-0.192120)"
fill="#000000" stroke="none">
<path d="M1320 10324 c-273 -42 -463 -131 -640 -301 -176 -167 -284 -364 -332
-603 -19 -96 -19 -8084 0 -8180 80 -398 361 -723 733 -849 180 -60 -136 -56
4249 -56 3399 0 4036 2 4095 14 398 79 726 367 848 746 55 171 52 -100 52
4235 0 4335 3 4064 -52 4235 -51 157 -132 292 -250 415 -160 169 -333 267
-572 328 -61 15 -367 16 -4086 18 -2211 1 -4031 0 -4045 -2z m3865 -263 c57
-12 41 -34 -42 -60 -100 -31 -243 -104 -319 -163 -76 -58 -207 -197 -250 -264
-46 -72 -91 -168 -114 -243 -17 -55 -20 -93 -20 -285 0 -278 0 -277 -91 -219
-221 139 -422 196 -694 196 -388 1 -766 -110 -1040 -304 -102 -73 -249 -216
-324 -315 -62 -82 -160 -272 -192 -374 -23 -70 -24 -90 -24 -320 l0 -245 39
-85 c113 -244 310 -441 586 -588 371 -198 935 -348 1610 -426 118 -13 253 -27
300 -31 47 -3 106 -8 133 -11 l47 -6 0 -155 c0 -144 -1 -155 -17 -148 -85 36
-217 28 -517 -31 -713 -141 -1163 -404 -1348 -790 l-43 -89 -3 -179 c-4 -193
-2 -200 56 -326 83 -176 267 -364 465 -473 271 -148 719 -282 1227 -367 69
-11 137 -23 153 -26 l27 -6 0 -280 c0 -263 -1 -280 -17 -273 -10 4 -35 12 -55
17 -103 28 -542 -96 -747 -209 -178 -99 -309 -230 -393 -393 l-43 -85 -3 -137
c-4 -150 1 -176 61 -288 130 -243 341 -395 719 -520 110 -37 389 -109 481
-126 l37 -6 0 -134 c0 -91 5 -146 14 -171 8 -21 17 -54 20 -73 8 -45 53 -134
105 -203 59 -80 126 -135 221 -180 118 -57 164 -57 285 2 143 70 236 178 312
364 18 45 33 92 33 105 0 26 16 28 67 7 55 -23 135 -86 258 -205 131 -125 211
-173 289 -173 31 -1 65 6 86 18 59 31 152 134 188 209 l34 68 -4 127 c-4 119
-6 130 -42 211 -47 107 -83 164 -165 264 -147 178 -365 325 -634 426 -98 38
-104 45 -93 127 4 27 9 103 12 171 3 67 8 122 11 122 2 0 25 -12 49 -26 76
-45 172 -37 469 37 689 171 1056 411 1201 786 l36 93 -4 137 c-3 133 -5 141
-39 219 -49 109 -107 193 -204 290 -234 237 -630 404 -1337 564 -93 21 -176
44 -184 51 -12 10 -14 25 -9 68 4 31 9 136 11 233 l5 178 56 -32 c53 -30 63
-32 147 -31 215 4 716 97 1026 190 110 33 295 106 391 153 285 143 489 365
573 624 23 68 26 96 26 208 0 150 -9 192 -61 307 -95 205 -279 382 -524 504
-310 154 -745 253 -1350 307 -132 11 -250 25 -262 30 l-23 10 0 438 0 439 70
66 c121 115 209 242 264 382 53 130 56 149 56 345 0 170 -6 231 -29 285 -42
99 -86 184 -122 237 -55 82 -186 212 -269 268 -68 46 -221 117 -302 141 -65
18 -66 44 -2 53 75 10 3708 7 3814 -4 326 -32 589 -200 717 -459 l48 -96 0
-4170 0 -4170 -32 -72 c-110 -249 -307 -413 -588 -490 l-100 -28 -1910 0
c-1050 1 -1977 2 -2060 3 -82 2 -1000 0 -2040 -3 -1973 -6 -2006 -6 -2157 36
-275 76 -501 288 -587 549 l-21 65 2 4125 3 4125 31 71 c121 279 399 475 725
513 85 10 3808 12 3854 2z m310 -306 c83 -21 209 -84 276 -138 102 -82 199
-235 234 -372 9 -35 15 -103 15 -165 0 -121 -16 -193 -64 -295 -64 -136 -169
-247 -293 -312 l-53 -28 0 -509 0 -509 -92 7 c-51 3 -177 9 -280 13 l-188 6 0
496 0 496 -53 28 c-162 85 -294 255 -342 442 -20 78 -20 252 0 330 36 138 126
282 228 365 71 58 196 123 277 144 75 20 260 20 335 1z m-1563 -993 c211 -57
393 -162 560 -324 74 -73 148 -164 148 -183 0 -8 -10 -25 -22 -39 -21 -22 -53
-30 -323 -81 -165 -31 -311 -59 -323 -63 -19 -6 18 -24 184 -87 115 -44 217
-88 226 -97 23 -23 23 -50 1 -76 -34 -40 -303 -92 -478 -92 -261 0 -505 76
-695 216 -56 41 -67 46 -102 41 -89 -12 -170 -99 -171 -184 -3 -248 539 -453
1453 -552 316 -34 601 -54 1045 -71 972 -38 1524 -129 1944 -322 170 -77 328
-206 395 -321 66 -113 90 -260 62 -381 -95 -402 -647 -663 -1691 -801 -104
-14 -206 -27 -225 -30 l-36 -6 1 291 c0 283 1 291 20 295 11 2 56 6 100 10 44
3 143 15 220 26 463 66 733 165 794 291 28 58 27 80 -6 113 -127 126 -522 193
-1351 228 l-52 2 0 -924 0 -923 -22 5 c-21 5 -401 79 -493 95 l-40 8 -3 871
-2 871 -93 6 c-318 19 -451 29 -599 47 -1109 127 -1849 423 -2038 813 -70 145
-75 322 -14 532 126 437 542 735 1131 809 154 20 395 13 495 -13z m881 -636
c16 6 17 -17 15 -312 -3 -297 -4 -319 -20 -318 -13 1 -18 -6 -18 -24 l0 -25
-102 7 c-212 13 -328 37 -328 68 0 6 36 49 81 95 87 91 123 155 134 238 11 86
13 91 67 132 29 22 73 65 98 96 24 31 47 52 50 46 4 -5 14 -7 23 -3z m1403
-1856 c107 -11 124 -16 124 -39 0 -22 -80 -45 -259 -75 -104 -18 -151 -30
-185 -50 l-46 -27 0 107 0 107 138 -7 c75 -4 178 -11 228 -16z m-1441 -750 c0
-293 -1 -301 -20 -304 -11 -2 -67 -9 -125 -16 -376 -42 -672 -125 -766 -215
-84 -80 -51 -132 124 -195 175 -64 428 -120 1082 -240 652 -120 918 -175 1200
-250 674 -179 1032 -398 1105 -675 87 -335 -225 -612 -915 -810 -118 -34 -352
-89 -485 -115 -33 -6 -67 -13 -76 -16 -14 -4 -16 21 -15 240 l0 244 116 27
c150 36 352 105 457 158 101 50 183 118 183 152 0 87 -218 193 -564 275 -124
29 -429 90 -453 90 -11 0 -13 -149 -13 -841 0 -796 -1 -840 -17 -835 -65 20
-326 78 -413 92 -58 9 -111 18 -117 20 -10 3 -13 177 -13 828 l0 824 -67 7
c-38 4 -147 20 -244 36 -1105 180 -1618 438 -1681 841 -15 99 -1 184 49 287
43 91 168 222 283 296 212 138 547 258 920 329 111 22 396 64 435 65 l31 1 -1
-300z m15 -596 l0 -76 -37 7 c-21 3 -42 11 -47 16 -6 5 -20 9 -33 9 -13 0 -23
4 -23 9 0 5 -10 11 -22 15 l-23 6 24 18 c13 11 45 24 71 31 26 7 56 19 67 26
10 8 19 15 21 15 1 0 2 -34 2 -76z m1154 -1379 c69 -16 116 -34 116 -44 -1
-17 -33 -40 -102 -73 -42 -20 -79 -42 -83 -48 -17 -28 -25 -2 -25 85 0 108 -6
103 94 80z m-1168 -795 l-1 -240 -40 -11 c-46 -12 -172 -71 -197 -92 -133
-108 82 -268 483 -357 50 -11 181 -36 291 -55 230 -40 351 -70 499 -120 378
-130 640 -350 719 -604 36 -114 21 -233 -33 -259 -67 -32 -104 -18 -178 69
-189 222 -343 327 -636 432 l-72 26 -3 -222 c-3 -201 -5 -226 -24 -267 -101
-216 -407 -216 -508 0 -20 42 -21 64 -24 322 l-3 277 -37 7 c-355 60 -705 157
-898 248 -182 87 -293 177 -351 287 -25 49 -28 64 -28 154 0 91 3 106 31 166
86 181 331 318 754 422 80 19 163 40 185 45 79 19 72 39 71 -228z M3683 8530
c-130 -27 -184 -114 -112 -181 83 -78 280 -76 358 2 38 38 40 77 6 117 -44 52
-160 81 -252 62z"/>
</g>
</svg>
