<?xml version="1.0" standalone="no"?>
<!DOCTYPE svg PUBLIC "-//W3C//DTD SVG 20010904//EN"
 "http://www.w3.org/TR/2001/REC-SVG-20010904/DTD/svg10.dtd">
<svg version="1.0" xmlns="http://www.w3.org/2000/svg"
 width="2048.000000pt" height="2048.000000pt" viewBox="0 0 2048.000000 2048.000000"
 preserveAspectRatio="xMidYMid meet">
<metadata>
Created by potrace 1.13, written by Peter Selinger 2001-2015
</metadata>
<g transform="translate(0.000000,2048.000000) scale(0.192120,-0.192120)"
fill="#000000" stroke="none">
<path d="M4960 10323 c-211 -38 -391 -204 -444 -409 -14 -53 -16 -139 -16
-568 l0 -505 -42 -11 c-335 -84 -728 -247 -980 -406 l-41 -26 -366 365 c-305
305 -376 370 -426 395 -95 47 -158 62 -264 62 -79 0 -110 -5 -177 -28 -44 -16
-102 -43 -130 -62 -68 -46 -503 -482 -548 -550 -79 -119 -110 -316 -70 -451
40 -135 54 -151 441 -540 l365 -366 -39 -64 c-167 -273 -300 -598 -393 -956
l-11 -43 -505 0 c-558 0 -571 -1 -689 -63 -73 -38 -190 -153 -228 -224 -60
-112 -67 -172 -67 -543 0 -371 7 -431 67 -543 38 -71 155 -186 228 -224 118
-62 131 -63 689 -63 l506 0 6 -28 c76 -321 248 -737 411 -995 l25 -40 -365
-366 c-304 -304 -370 -376 -395 -426 -47 -94 -62 -159 -62 -263 0 -110 28
-209 86 -300 47 -74 482 -509 556 -556 91 -58 190 -86 300 -86 104 0 169 15
263 62 50 25 122 91 426 395 l366 365 41 -26 c252 -159 645 -322 980 -406 l42
-11 0 -505 c0 -558 1 -570 63 -689 38 -73 152 -189 224 -228 111 -60 171 -67
543 -67 371 0 431 7 543 67 71 38 186 155 224 229 62 117 63 127 63 686 l0
507 38 10 c20 5 64 17 97 25 244 62 606 215 834 351 l95 56 365 -365 c306
-304 376 -369 427 -394 104 -52 163 -65 283 -60 121 5 192 26 281 84 67 44
503 479 550 548 19 28 46 86 62 130 23 67 28 98 28 177 0 106 -15 169 -62 264
-25 50 -91 122 -395 426 l-365 366 25 40 c160 254 322 644 407 981 l11 42 505
0 c558 0 570 1 689 63 73 38 189 152 228 224 60 111 67 171 67 543 0 371 -7
431 -67 543 -40 75 -155 188 -230 226 -121 60 -127 61 -685 61 l-508 0 -6 28
c-76 321 -248 737 -411 995 l-25 40 365 366 c387 389 401 405 441 540 40 135
9 332 -70 451 -49 73 -484 508 -554 554 -89 58 -160 79 -281 84 -120 5 -179
-8 -283 -60 -51 -25 -121 -90 -427 -395 l-366 -365 -69 43 c-229 140 -605 300
-859 365 -33 8 -77 20 -97 25 l-38 10 0 505 c0 429 -2 515 -16 568 -45 174
-175 317 -352 385 l-67 26 -370 1 c-203 1 -381 0 -395 -3z m700 -283 c71 -13
154 -52 186 -87 14 -15 36 -51 50 -81 l24 -53 0 -454 c0 -398 2 -455 15 -455
11 0 15 -11 15 -40 0 -22 3 -40 8 -40 4 0 15 -20 25 -44 23 -55 109 -151 179
-199 35 -24 112 -56 228 -95 216 -73 308 -111 526 -217 95 -46 189 -88 210
-94 96 -27 179 -4 284 79 30 24 181 168 335 320 239 236 290 281 345 308 89
44 165 57 248 42 81 -14 129 -38 212 -105 90 -74 363 -353 384 -392 12 -25 16
-60 16 -154 0 -118 -1 -123 -32 -178 -21 -38 -111 -137 -278 -306 -358 -363
-430 -462 -430 -587 0 -73 17 -122 95 -277 86 -172 173 -382 230 -556 29 -88
66 -188 84 -223 42 -84 148 -194 219 -229 l57 -28 452 -7 c367 -5 463 -9 515
-23 66 -17 125 -50 165 -93 l23 -25 0 -409 c0 -453 2 -438 -66 -498 -87 -76
-126 -81 -644 -89 -427 -6 -447 -7 -492 -28 -59 -27 -206 -167 -235 -225 -13
-24 -49 -122 -82 -218 -67 -198 -116 -315 -233 -563 -74 -155 -83 -179 -86
-242 -8 -145 64 -249 428 -620 156 -158 283 -296 293 -317 13 -27 17 -64 17
-153 0 -173 -13 -194 -294 -464 -118 -114 -159 -146 -220 -177 -69 -34 -83
-37 -158 -36 -160 0 -205 31 -562 382 -155 152 -302 290 -329 308 -150 104
-212 99 -488 -39 -169 -84 -311 -143 -509 -211 -96 -32 -197 -73 -223 -90 -56
-36 -185 -173 -193 -205 -4 -13 -10 -23 -15 -23 -5 0 -9 -11 -9 -25 0 -14 -4
-25 -10 -25 -7 0 -10 -148 -10 -423 0 -353 -3 -432 -16 -477 -8 -30 -20 -75
-27 -100 -17 -66 -94 -140 -172 -165 -55 -18 -90 -20 -395 -20 -325 0 -337 1
-391 23 -96 38 -169 115 -169 177 0 14 -8 40 -17 58 -16 29 -18 76 -21 479 -2
272 -7 448 -13 448 -5 0 -9 9 -9 20 0 38 -27 85 -89 151 -92 101 -143 130
-346 199 -208 71 -320 118 -495 205 -180 90 -249 115 -312 115 -116 -1 -201
-63 -553 -410 -238 -235 -290 -281 -345 -308 -79 -39 -155 -53 -234 -41 -120
17 -209 81 -449 328 -172 175 -187 204 -187 344 0 64 5 110 15 133 9 23 116
139 283 308 368 371 452 490 452 634 0 72 -2 76 -189 480 -34 73 -92 223 -130
335 -37 111 -76 218 -86 237 -28 55 -166 187 -221 213 -48 21 -61 22 -499 28
-287 4 -467 10 -498 18 -95 23 -175 78 -215 148 -9 17 -12 120 -12 418 l0 394
31 36 c40 45 98 79 174 101 51 15 125 18 515 23 l455 6 57 28 c64 32 152 120
198 200 17 29 53 124 81 212 64 199 106 302 245 592 102 215 114 284 69 388
-44 98 -130 200 -405 480 -316 322 -320 327 -320 479 0 79 4 108 20 141 43 90
387 423 490 475 138 70 285 59 416 -30 27 -19 173 -156 324 -305 343 -338 409
-387 519 -386 59 0 90 12 302 114 203 99 314 145 529 216 176 59 234 93 315
186 63 71 94 134 95 188 0 20 4 37 9 37 6 0 11 179 13 448 3 440 4 448 26 502
40 95 113 150 232 176 69 15 605 18 680 4z M5130 7799 c-470 -41 -914 -219
-1295 -519 -187 -147 -424 -406 -558 -610 -154 -233 -289 -555 -354 -840 -28
-125 -28 -125 -28 -495 0 -320 2 -381 18 -455 147 -688 537 -1268 1110 -1653
125 -84 385 -213 526 -262 515 -176 1058 -176 1563 1 255 89 562 266 753 432
146 126 331 329 437 477 183 256 334 590 408 900 48 201 52 254 47 605 -4 304
-6 332 -30 440 -73 326 -191 606 -362 861 -115 171 -207 283 -354 429 -497
494 -1193 749 -1881 689z m550 -274 c475 -81 888 -293 1220 -625 554 -554 773
-1346 584 -2111 -81 -330 -248 -649 -476 -914 -339 -393 -805 -652 -1328 -740
-209 -35 -541 -30 -758 11 -854 162 -1533 802 -1747 1643 -41 164 -56 279 -62
476 -8 291 23 504 113 775 106 318 292 619 529 855 361 361 804 576 1330 645
107 14 483 5 595 -15z"/>
</g>
</svg>
