<?xml version="1.0" standalone="no"?>
<!DOCTYPE svg PUBLIC "-//W3C//DTD SVG 20010904//EN"
 "http://www.w3.org/TR/2001/REC-SVG-20010904/DTD/svg10.dtd">
<svg version="1.0" xmlns="http://www.w3.org/2000/svg"
 width="2048.000000pt" height="2048.000000pt" viewBox="0 0 2048.000000 2048.000000"
 preserveAspectRatio="xMidYMid meet">
<metadata>
Created by potrace 1.13, written by Peter Selinger 2001-2015
</metadata>
<g transform="translate(0.000000,2048.000000) scale(0.192120,-0.192120)"
fill="#000000" stroke="none">
<path d="M5121 10133 c-655 -656 -1048 -1422 -1158 -2258 -18 -144 -24 -621
-9 -798 l8 -98 36 7 c52 9 93 32 99 55 3 10 9 19 14 19 5 0 9 16 9 35 0 19 5
35 10 35 6 0 10 103 10 288 0 356 20 540 90 827 132 547 450 1120 884 1597
123 134 189 184 231 174 33 -8 128 -98 236 -223 487 -562 782 -1157 888 -1793
34 -204 41 -300 41 -597 0 -182 4 -283 10 -283 6 0 10 -16 10 -35 0 -19 5 -35
10 -35 6 0 10 -6 10 -13 0 -20 73 -57 113 -57 l35 0 8 98 c15 178 9 644 -9
792 -94 741 -426 1448 -971 2069 -100 114 -382 391 -398 391 -5 0 -99 -89
-207 -197z M2315 7474 c-627 -47 -1077 -226 -1433 -569 -334 -322 -516 -723
-539 -1185 -17 -354 92 -729 295 -1015 72 -100 234 -265 332 -338 85 -63 229
-151 235 -145 3 2 -3 40 -12 84 -12 57 -16 130 -16 264 0 167 2 194 25 281
118 440 473 702 1001 738 310 22 637 -44 932 -189 165 -81 260 -146 379 -261
170 -163 280 -339 355 -564 61 -187 61 -177 -1 -213 -205 -115 -370 -327 -445
-568 -25 -83 -27 -101 -27 -269 0 -167 2 -186 27 -268 61 -199 182 -378 332
-494 l39 -31 -57 -75 c-242 -315 -647 -453 -1025 -347 -280 78 -521 291 -629
554 l-28 69 -13 -44 c-42 -144 -54 -389 -27 -554 49 -302 200 -587 420 -793
107 -100 201 -165 330 -230 306 -152 636 -187 970 -102 209 53 348 126 562
293 22 18 23 18 29 0 119 -338 485 -781 926 -1117 l77 -58 53 38 c430 315 832
795 952 1137 6 18 7 18 29 0 157 -123 246 -177 382 -234 501 -209 1095 -98
1489 280 217 209 363 486 411 786 27 165 15 410 -27 554 l-13 44 -28 -69 c-87
-212 -270 -402 -481 -500 -261 -120 -565 -118 -823 6 -143 69 -294 199 -380
326 l-26 37 39 30 c149 115 270 296 331 494 25 82 27 101 27 268 0 168 -2 186
-27 269 -73 235 -237 449 -427 557 -59 33 -60 35 -54 69 13 78 69 232 124 345
137 278 361 493 665 640 460 223 1006 250 1399 71 266 -122 446 -335 523 -621
24 -92 27 -116 27 -285 0 -134 -5 -207 -17 -264 -9 -44 -15 -82 -12 -84 7 -8
172 97 262 167 280 216 483 542 563 901 95 426 14 895 -219 1270 -142 228
-352 439 -578 579 -363 225 -778 333 -1278 334 -216 0 -333 -12 -511 -53 -309
-72 -661 -236 -926 -433 -87 -64 -83 -55 -93 -222 -12 -204 -68 -636 -121
-930 -80 -443 -208 -948 -321 -1259 l-29 -78 -884 0 -885 0 -43 123 c-193 554
-356 1350 -417 2034 -9 99 -19 203 -21 232 -5 51 -7 53 -72 102 -117 86 -242
161 -407 241 -243 119 -464 189 -707 225 -107 15 -368 26 -463 19z m387 -289
c243 -28 459 -92 696 -206 164 -78 377 -201 385 -223 3 -7 13 -74 22 -147 86
-712 175 -1188 314 -1684 23 -81 31 -129 31 -192 0 -46 -4 -83 -9 -83 -30 0
-78 64 -138 184 -248 495 -661 818 -1223 956 -171 41 -286 54 -475 53 -272 -1
-453 -41 -670 -148 -240 -117 -446 -321 -564 -554 -46 -92 -71 -159 -105 -283
-19 -65 -37 -88 -66 -81 -61 16 -203 243 -255 408 -45 139 -47 165 -43 505 l3
325 34 100 c185 551 694 936 1388 1050 222 36 473 44 675 20z m5878 -10 c270
-41 468 -102 675 -205 387 -193 649 -486 764 -855 l31 -99 0 -351 c-1 -385 -2
-394 -64 -555 -40 -102 -151 -287 -193 -320 -51 -40 -70 -21 -108 110 -22 74
-83 224 -113 280 -47 87 -138 204 -223 290 -180 181 -419 302 -699 352 -136
24 -414 29 -550 9 -417 -60 -800 -239 -1072 -500 -172 -164 -257 -280 -363
-490 -65 -130 -118 -201 -150 -201 -12 0 -15 17 -15 86 0 69 8 115 39 233 120
445 222 966 276 1416 32 270 46 370 53 377 5 4 67 43 140 87 346 208 659 317
1017 355 85 9 454 -4 555 -19z m-4132 -2694 c13 -32 47 -73 74 -88 31 -17 82
-18 788 -20 691 -2 759 -1 805 15 45 16 83 52 97 94 6 17 210 13 289 -5 36 -9
91 -25 122 -37 50 -19 56 -24 47 -40 -6 -10 -10 -44 -10 -74 0 -87 35 -149
164 -285 80 -85 122 -138 149 -190 l37 -73 0 -244 c0 -236 -1 -246 -24 -304
-14 -33 -57 -109 -97 -168 -121 -179 -142 -249 -99 -320 26 -43 21 -49 -74
-96 -83 -41 -246 -86 -313 -86 -38 0 -44 -3 -39 -17 43 -141 76 -365 76 -529
0 -144 -19 -263 -63 -393 l-32 -96 -60 0 c-47 -1 -71 -7 -111 -30 -52 -29 -64
-44 -216 -260 -128 -182 -384 -453 -527 -558 -96 -71 -129 -66 -261 42 -183
148 -392 385 -550 620 -35 52 -80 111 -102 132 -45 42 -111 64 -163 55 -34 -7
-36 -6 -54 37 -92 215 -105 538 -35 856 14 62 28 120 31 127 4 11 -5 14 -35
14 -96 0 -280 57 -371 115 -23 14 -41 27 -41 30 0 2 9 19 20 37 39 64 17 136
-82 280 -155 224 -160 239 -156 522 l3 223 40 79 c32 64 62 102 154 194 161
163 200 249 170 370 -5 20 135 67 234 79 73 9 210 4 215 -8z m-424 -2051 l24
-9 7 -364 c9 -447 12 -434 -90 -489 -93 -50 -218 -95 -335 -121 -124 -27 -345
-28 -473 -3 -375 73 -686 309 -823 625 -30 68 -45 151 -27 151 4 0 34 -18 67
-40 202 -131 465 -195 695 -170 272 30 478 128 693 330 53 49 107 94 120 100
24 10 103 5 142 -10z m2750 10 c14 -5 70 -51 123 -101 213 -200 429 -303 692
-329 235 -24 485 36 685 164 46 29 61 35 67 24 11 -17 11 -16 -7 -77 -46 -157
-189 -347 -349 -466 -211 -157 -439 -230 -715 -228 -218 0 -381 40 -567 137
-84 44 -99 56 -104 81 -10 45 -10 748 0 763 8 14 89 40 128 41 12 1 33 -3 47
-9z M4453 2660 c-23 -5 -55 -16 -72 -25 -34 -17 -68 -61 -57 -73 10 -9 2002
-9 2011 0 13 13 -35 66 -77 84 -41 18 -88 19 -903 21 -473 0 -879 -3 -902 -7z"/>
</g>
</svg>
