<?xml version="1.0" standalone="no"?>
<!DOCTYPE svg PUBLIC "-//W3C//DTD SVG 20010904//EN"
 "http://www.w3.org/TR/2001/REC-SVG-20010904/DTD/svg10.dtd">
<svg version="1.0" xmlns="http://www.w3.org/2000/svg"
 width="2048.000000pt" height="2048.000000pt" viewBox="0 0 2048.000000 2048.000000"
 preserveAspectRatio="xMidYMid meet">
<metadata>
Created by potrace 1.13, written by Peter Selinger 2001-2015
</metadata>
<g transform="translate(0.000000,2048.000000) scale(0.192120,-0.192120)"
fill="#000000" stroke="none">
<path d="M7467 10316 c-21 -8 -55 -25 -75 -40 -20 -14 -1416 -1217 -3102
-2673 -3421 -2956 -3124 -2688 -3124 -2828 0 -56 6 -80 26 -120 32 -62 79
-108 138 -134 45 -20 57 -21 1758 -21 l1714 0 -27 -48 c-15 -26 -456 -883
-982 -1904 -878 -1709 -955 -1862 -960 -1916 -8 -87 17 -153 81 -218 85 -85
206 -107 310 -58 21 11 1428 1218 3125 2684 2972 2567 3087 2667 3116 2725 71
141 10 308 -135 374 -45 20 -57 21 -1758 21 l-1714 0 27 48 c15 26 456 883
982 1904 878 1709 955 1862 960 1916 8 87 -17 153 -81 217 -78 78 -183 105
-279 71z m103 -315 c0 -62 15 -32 -887 -1786 -821 -1596 -927 -1804 -954
-1881 -27 -80 -25 -153 6 -214 32 -64 125 -156 184 -184 l46 -21 1617 -5
c1492 -5 1619 -6 1634 -22 28 -28 9 -64 -79 -148 -130 -124 -5845 -5057 -5911
-5101 -92 -62 -156 -52 -156 24 0 34 35 103 955 1891 449 874 832 1625 851
1669 47 109 74 194 74 231 0 72 -133 221 -228 257 -31 11 -319 14 -1642 19
-1277 4 -1610 8 -1627 18 -26 14 -39 53 -26 75 8 14 5854 5067 5958 5150 59
47 119 76 158 77 26 0 27 -2 27 -49z"/>
</g>
</svg>
