<?xml version="1.0" standalone="no"?>
<!DOCTYPE svg PUBLIC "-//W3C//DTD SVG 20010904//EN"
 "http://www.w3.org/TR/2001/REC-SVG-20010904/DTD/svg10.dtd">
<svg version="1.0" xmlns="http://www.w3.org/2000/svg"
 width="2048.000000pt" height="2048.000000pt" viewBox="0 0 2048.000000 2048.000000"
 preserveAspectRatio="xMidYMid meet">
<metadata>
Created by potrace 1.13, written by Peter Selinger 2001-2015
</metadata>
<g transform="translate(0.000000,2048.000000) scale(0.192120,-0.192120)"
fill="#000000" stroke="none">
<path d="M5065 10323 c-708 -42 -1346 -211 -1965 -519 -1293 -644 -2245 -1819
-2610 -3219 -264 -1014 -198 -2105 187 -3085 398 -1015 1140 -1892 2079 -2456
963 -578 2086 -814 3209 -673 908 114 1777 484 2496 1064 1359 1094 2046 2796
1828 4529 -167 1328 -872 2542 -1949 3358 -257 194 -504 345 -805 493 -603
297 -1215 460 -1890 505 -137 9 -457 11 -580 3z m760 -318 c1091 -115 2076
-573 2849 -1325 713 -694 1162 -1558 1330 -2558 l26 -154 0 -631 c0 -681 0
-681 -59 -975 -179 -892 -634 -1740 -1276 -2376 -721 -714 -1658 -1180 -2665
-1325 -259 -37 -391 -46 -705 -46 -341 1 -505 14 -814 66 -1087 182 -2098 752
-2812 1584 -543 634 -918 1441 -1053 2270 -36 224 -38 264 -33 855 l4 585 31
171 c87 481 206 849 412 1269 422 861 1099 1560 1975 2038 600 328 1271 517
2025 571 120 8 622 -4 765 -19z"/>
</g>
</svg>
