<?xml version="1.0" standalone="no"?>
<!DOCTYPE svg PUBLIC "-//W3C//DTD SVG 20010904//EN"
 "http://www.w3.org/TR/2001/REC-SVG-20010904/DTD/svg10.dtd">
<svg version="1.0" xmlns="http://www.w3.org/2000/svg"
 width="2048.000000pt" height="2048.000000pt" viewBox="0 0 2048.000000 2048.000000"
 preserveAspectRatio="xMidYMid meet">
<metadata>
Created by potrace 1.13, written by Peter Selinger 2001-2015
</metadata>
<g transform="translate(0.000000,2048.000000) scale(0.192120,-0.192120)"
fill="#000000" stroke="none">
<path d="M4655 10249 c-757 -45 -1601 -243 -1787 -420 -36 -34 -37 -37 -32
-90 33 -322 84 -515 178 -672 l34 -56 -25 -22 c-49 -47 -5 -107 113 -153 46
-19 63 -32 76 -58 46 -89 26 -234 -45 -341 -33 -48 -54 -68 -97 -91 -179 -92
-318 -195 -479 -351 -462 -449 -744 -1076 -836 -1860 -23 -190 -31 -649 -16
-857 58 -791 290 -1653 704 -2613 235 -544 579 -1206 874 -1677 40 -65 73
-122 73 -127 0 -21 91 -87 174 -126 232 -109 567 -187 1016 -237 74 -8 247
-13 485 -12 318 0 395 3 551 22 447 55 851 164 1017 275 46 31 69 55 88 92 14
28 73 127 131 220 195 316 462 810 643 1193 509 1076 800 2052 876 2937 6 72
10 252 10 400 0 360 -23 596 -87 899 -164 776 -590 1429 -1150 1761 -56 33
-115 67 -132 77 -41 22 -100 113 -119 184 -20 73 -20 179 0 226 13 30 28 42
101 77 63 30 90 49 101 71 17 33 9 61 -22 79 -16 9 -16 11 -1 28 28 32 76 126
108 212 56 154 112 504 88 556 -34 76 -288 186 -633 275 -582 151 -1328 218
-1980 179z m945 -224 c300 -25 591 -69 845 -126 72 -17 198 -43 280 -60 307
-61 341 -70 394 -96 30 -16 54 -32 54 -38 -2 -30 -259 -89 -533 -125 -412 -53
-734 -70 -1400 -77 -816 -8 -1398 20 -1889 93 -213 31 -425 86 -418 108 8 29
128 74 268 100 79 15 248 49 374 77 402 89 737 136 1125 158 207 13 671 5 900
-14z m-2035 -624 c917 -104 2418 -91 3198 27 109 17 117 17 117 1 0 -12 9 -16
38 -15 l37 1 -2 -65 c-1 -36 -3 -101 -5 -145 -2 -65 1 -89 19 -130 12 -27 24
-56 25 -63 4 -19 -93 -57 -247 -97 -682 -179 -1828 -226 -2745 -115 -197 24
-427 63 -565 95 -122 29 -284 80 -308 98 -17 12 -17 15 7 67 30 63 34 153 12
255 -7 32 -10 70 -8 83 4 21 9 23 38 20 25 -3 35 0 39 13 5 15 13 15 88 3 45
-7 163 -22 262 -33z m-40 -939 c357 -74 711 -119 1125 -143 226 -13 782 -7
990 10 408 35 680 74 1023 148 92 20 170 33 173 30 4 -3 1 -26 -5 -51 -31
-124 3 -235 99 -324 14 -12 88 -65 165 -117 128 -86 295 -224 370 -307 128
-140 235 -291 322 -453 89 -168 113 -228 113 -290 0 -65 -9 -72 -156 -120
-572 -188 -1675 -319 -2679 -319 -992 0 -2129 139 -2725 334 -130 42 -140 50
-140 105 0 47 3 55 62 184 53 116 133 248 222 369 150 203 307 351 527 497
238 159 286 222 276 369 -3 45 -9 92 -13 105 -8 28 -29 31 251 -27z m-1400
-1717 c396 -155 964 -268 1735 -345 843 -83 1578 -83 2440 0 748 73 1291 182
1678 336 90 36 166 63 169 61 2 -3 -5 -45 -17 -93 -19 -79 -21 -106 -15 -234
8 -164 45 -426 69 -482 8 -20 38 -62 66 -94 27 -31 50 -60 50 -64 0 -11 -209
-126 -320 -176 -580 -259 -1278 -407 -2250 -476 -232 -16 -1145 -16 -1395 0
-948 62 -1653 195 -2201 412 -143 57 -324 146 -324 160 0 5 13 24 28 42 79 92
86 114 117 343 14 99 32 218 40 265 24 139 18 218 -32 384 -4 16 -1 18 23 12
16 -4 79 -27 139 -51z m5960 -1927 c-102 -643 -298 -1284 -626 -2051 -248
-579 -541 -1133 -636 -1203 -114 -84 -427 -166 -838 -219 -497 -64 -1176 -72
-1685 -20 -488 50 -902 147 -1023 239 -78 59 -209 289 -432 753 -244 510 -385
861 -550 1363 -146 447 -245 873 -300 1289 -17 129 -21 461 -5 461 5 0 81 -27
169 -60 656 -245 1544 -386 2569 -409 1293 -28 2335 116 3137 436 105 41 201
81 215 88 l25 13 3 -259 c2 -237 0 -273 -23 -421z m-4786 -3477 c285 -103 678
-176 1161 -217 252 -21 874 -24 1120 -6 502 39 954 120 1240 225 52 19 104 38
115 42 32 11 -374 -382 -438 -425 -118 -79 -498 -179 -832 -219 -368 -44 -937
-40 -1295 10 -267 37 -612 125 -734 186 -43 22 -199 166 -456 421 -41 40 -43
41 119 -17z"/>
</g>
</svg>
