<?xml version="1.0" standalone="no"?>
<!DOCTYPE svg PUBLIC "-//W3C//DTD SVG 20010904//EN"
 "http://www.w3.org/TR/2001/REC-SVG-20010904/DTD/svg10.dtd">
<svg version="1.0" xmlns="http://www.w3.org/2000/svg"
 width="2048.000000pt" height="2048.000000pt" viewBox="0 0 2048.000000 2048.000000"
 preserveAspectRatio="xMidYMid meet">
<metadata>
Created by potrace 1.13, written by Peter Selinger 2001-2015
</metadata>
<g transform="translate(0.000000,2048.000000) scale(0.192120,-0.192120)"
fill="#000000" stroke="none">
<path d="M4366 10314 c-89 -22 -193 -81 -263 -151 -71 -71 -135 -191 -152
-287 -7 -38 -11 -271 -11 -638 l0 -578 -173 0 c-166 0 -175 -1 -225 -26 -176
-88 -208 -331 -60 -458 82 -71 -55 -66 1848 -66 1903 0 1766 -5 1848 66 148
127 116 370 -60 458 -50 25 -59 26 -225 26 l-173 0 0 578 c0 367 -4 600 -11
638 -37 206 -212 390 -420 439 -92 21 -1832 21 -1923 -1z m1840 -257 c116 -24
191 -91 236 -209 16 -44 18 -85 18 -488 0 -366 2 -440 14 -440 9 0 15 -16 18
-49 3 -27 12 -57 21 -66 10 -9 17 -20 17 -24 0 -4 22 -31 48 -58 l49 -51 -36
-6 c-48 -8 -2499 -5 -2533 3 l-27 6 50 50 c27 27 55 64 61 82 7 18 16 33 20
33 4 0 8 18 8 40 0 22 5 40 10 40 7 0 10 153 10 440 0 421 1 442 21 495 41
111 124 182 239 204 76 15 1684 13 1756 -2z m347 -1606 c43 -22 33 -39 -25
-46 -97 -11 -2436 -1 -2448 11 -15 15 11 35 58 45 20 4 566 6 1212 5 990 -1
1179 -3 1203 -15z M3772 7859 c-81 -195 -120 -472 -101 -707 23 -288 108 -544
254 -768 53 -81 57 -86 73 -70 12 12 17 34 17 74 0 48 -8 75 -57 179 -72 153
-122 297 -138 393 -8 50 -10 172 -8 370 4 266 6 304 27 386 25 99 20 148 -18
195 l-18 22 -31 -74z M6835 7910 c-30 -33 -30 -111 0 -244 26 -117 26 -124 23
-420 -4 -295 -5 -303 -31 -386 -15 -47 -63 -157 -107 -246 -68 -138 -80 -168
-80 -212 0 -51 16 -102 32 -102 12 0 108 151 151 235 128 257 189 577 166 865
-11 146 -49 324 -90 430 -40 102 -42 105 -64 80z M4396 7810 c-99 -39 -165
-130 -174 -236 -9 -118 48 -218 155 -270 137 -68 303 -9 369 131 28 59 33 165
9 221 -57 138 -224 209 -359 154z M6079 7816 c-124 -44 -189 -135 -189 -263 0
-117 59 -207 165 -254 144 -64 321 14 371 164 20 60 15 156 -11 207 -62 123
-215 190 -336 146z M5215 7246 c-182 -85 -218 -324 -68 -455 168 -149 429 -48
459 176 14 109 -55 230 -161 279 -69 33 -161 33 -230 0z M8301 6981 c-65 -23
-97 -46 -138 -100 -37 -48 -53 -97 -53 -161 0 -25 56 -266 124 -536 l123 -492
-518 -518 c-571 -570 -562 -560 -563 -680 0 -115 78 -224 187 -260 60 -20 156
-15 207 11 19 9 267 249 551 532 l516 515 342 -116 c188 -63 363 -118 390
-122 70 -9 147 16 206 68 128 113 129 303 0 416 -43 38 -70 49 -269 114 -122
39 -223 73 -225 75 -3 2 59 67 136 146 157 159 175 188 176 288 2 194 -182
325 -369 262 -40 -13 -74 -41 -181 -146 -120 -118 -132 -127 -137 -106 -45
193 -159 642 -170 665 -57 124 -209 190 -335 145z m145 -308 c11 -17 35 -87
53 -155 71 -271 105 -352 192 -451 112 -126 175 -125 352 7 116 87 169 106
182 66 8 -24 -14 -67 -80 -155 -70 -94 -115 -185 -115 -233 0 -102 126 -251
270 -319 47 -22 96 -44 110 -48 31 -9 61 -35 54 -46 -3 -5 -24 -7 -47 -5 -45
5 -253 57 -303 76 -81 32 -283 80 -333 80 -68 0 -145 -34 -241 -106 -36 -26
-255 -238 -487 -470 -350 -351 -429 -425 -462 -435 -34 -10 -44 -9 -66 5 -14
9 -25 22 -25 29 0 23 43 70 175 194 72 66 259 251 416 409 388 393 449 486
436 664 -5 64 -85 435 -148 682 -11 46 -19 110 -19 163 l0 86 32 -3 c23 -2 38
-12 54 -35z M1789 6179 c-132 -20 -228 -130 -229 -264 0 -33 19 -153 41 -268
23 -114 40 -210 37 -212 -3 -3 -93 33 -201 79 -220 96 -266 106 -351 82 -147
-43 -230 -205 -184 -360 20 -68 106 -144 208 -185 47 -19 100 -41 119 -48 l34
-15 -166 -166 c-190 -190 -206 -217 -207 -328 0 -120 52 -198 169 -252 45 -21
64 -24 120 -20 36 3 82 13 101 22 19 10 146 128 281 263 l247 246 613 -264
614 -264 75 0 c120 0 205 55 253 164 53 121 -3 288 -118 348 -16 9 -244 108
-505 219 -261 112 -478 209 -482 216 -3 7 -41 194 -82 416 -42 222 -83 418
-92 435 -60 118 -167 175 -295 156z m83 -293 c28 -21 42 -74 103 -382 57 -292
76 -353 133 -436 51 -75 143 -156 222 -197 76 -39 350 -158 625 -270 172 -71
183 -78 163 -111 -12 -20 -18 -21 -68 -16 -30 4 -59 11 -64 16 -6 6 -16 10
-23 10 -7 0 -57 24 -110 54 -98 53 -460 211 -648 281 -284 106 -288 108 -360
109 -62 1 -77 -3 -130 -33 -80 -45 -179 -128 -295 -246 -138 -141 -232 -199
-268 -163 -23 23 -12 47 58 128 87 101 123 153 160 232 57 119 32 196 -108
340 -135 137 -114 156 91 83 155 -55 219 -64 270 -40 49 23 131 112 161 176
25 51 26 58 26 259 0 114 3 210 7 213 10 11 36 8 55 -7z M3946 6139 c-146 -50
-250 -173 -277 -327 -30 -167 70 -361 221 -432 l50 -23 0 -1002 c0 -1121 -4
-1064 71 -1149 75 -85 94 -91 327 -94 166 -3 211 -1 251 13 64 21 123 73 155
137 l26 52 0 1008 0 1008 928 0 c1024 0 992 -2 1101 63 99 60 171 170 192 295
32 196 -97 400 -290 456 -49 14 -198 16 -1375 16 -1302 -1 -1322 -1 -1380 -21z
m2658 -263 c32 -8 70 -23 85 -34 24 -18 26 -24 26 -102 0 -81 0 -83 -34 -111
-19 -15 -56 -33 -83 -38 -32 -7 -329 -11 -851 -11 -512 0 -826 -4 -867 -11
-36 -5 -83 -21 -105 -34 -50 -29 -185 -167 -185 -189 0 -9 -4 -16 -10 -16 -5
0 -10 -9 -10 -20 0 -11 -4 -20 -10 -20 -7 0 -10 -307 -10 -900 0 -898 0 -900
-21 -921 -11 -11 -23 -36 -26 -56 -8 -47 -34 -55 -169 -51 -125 3 -144 12
-144 63 0 18 -7 38 -15 45 -13 11 -15 127 -15 931 0 606 -3 919 -10 919 -5 0
-10 11 -10 25 0 14 -4 25 -8 25 -4 0 -13 15 -20 33 -6 17 -47 77 -91 132 -44
55 -84 116 -90 136 -17 57 -14 133 7 151 25 23 76 47 119 57 21 5 585 9 1263
10 1010 1 1235 -2 1284 -13z M3645 5313 c-129 -93 -361 -313 -425 -402 l-22
-32 44 7 c117 18 182 62 357 243 61 63 104 146 99 190 l-3 30 -50 -36z M6960
5302 c0 -37 7 -59 28 -90 40 -61 235 -233 300 -266 32 -16 117 -25 129 -13 9
10 -254 267 -347 338 -117 90 -110 88 -110 31z M7841 4206 c-20 -82 -13 -144
34 -301 25 -83 56 -207 70 -278 23 -119 25 -147 25 -444 0 -608 -69 -922 -279
-1283 -166 -284 -302 -464 -496 -655 -484 -480 -1086 -738 -1775 -762 -648
-22 -1267 182 -1770 585 -123 98 -301 278 -402 406 -44 56 -87 110 -95 120
-43 53 -133 202 -193 320 -79 154 -137 302 -184 464 -71 246 -71 250 -71 737
0 423 1 444 23 539 24 104 53 217 78 300 7 27 14 78 14 112 0 63 -23 139 -40
129 -13 -8 -84 -197 -119 -318 -73 -257 -105 -489 -104 -772 0 -458 96 -859
303 -1265 127 -248 273 -450 480 -664 221 -227 453 -400 720 -535 231 -118
419 -187 652 -240 224 -51 356 -65 618 -65 345 0 561 34 875 138 433 144 790
368 1115 702 465 477 729 1072 780 1754 29 385 -40 829 -185 1190 -25 63 -50
119 -54 123 -5 5 -13 -12 -20 -37z M5233 3924 c-132 -47 -208 -201 -168 -340
13 -48 27 -69 73 -114 63 -61 108 -80 192 -80 84 0 129 19 192 80 46 45 60 66
73 114 52 180 -82 358 -269 355 -28 0 -70 -7 -93 -15z M5250 2541 c-113 -37
-200 -152 -200 -266 0 -98 72 -208 165 -251 109 -51 241 -22 323 71 43 49 72
121 72 180 0 93 -69 203 -154 247 -44 23 -161 34 -206 19z"/>
</g>
</svg>
