<?xml version="1.0" standalone="no"?>
<!DOCTYPE svg PUBLIC "-//W3C//DTD SVG 20010904//EN"
 "http://www.w3.org/TR/2001/REC-SVG-20010904/DTD/svg10.dtd">
<svg version="1.0" xmlns="http://www.w3.org/2000/svg"
 width="2048.000000pt" height="2048.000000pt" viewBox="0 0 2048.000000 2048.000000"
 preserveAspectRatio="xMidYMid meet">
<metadata>
Created by potrace 1.13, written by Peter Selinger 2001-2015
</metadata>
<g transform="translate(0.000000,2048.000000) scale(0.192120,-0.192120)"
fill="#000000" stroke="none">
<path d="M1320 10324 c-273 -42 -463 -131 -640 -301 -176 -167 -284 -364 -332
-603 -19 -96 -19 -8084 0 -8180 80 -398 361 -723 733 -849 180 -60 -136 -56
4249 -56 3399 0 4036 2 4095 14 398 79 726 367 848 746 55 171 52 -100 52
4235 0 4335 3 4064 -52 4235 -51 157 -132 292 -250 415 -160 169 -333 267
-572 328 -61 15 -367 16 -4086 18 -2211 1 -4031 0 -4045 -2z m7980 -264 c326
-32 589 -200 717 -459 l48 -96 0 -4170 0 -4170 -32 -72 c-110 -249 -307 -413
-588 -490 l-100 -28 -3950 -3 c-2817 -2 -3978 0 -4047 8 -236 27 -410 109
-568 269 -82 84 -152 198 -189 311 l-21 65 2 4125 3 4125 31 71 c121 279 399
475 725 513 103 12 7848 13 7969 1z M3386 9015 c-102 -28 -177 -75 -279 -177
-88 -87 -102 -107 -146 -200 -27 -57 -52 -119 -57 -138 -4 -19 -9 -409 -11
-866 -3 -820 -4 -832 -23 -837 -16 -4 -20 -14 -20 -46 0 -25 -5 -43 -12 -45
-74 -21 -267 -101 -363 -150 -145 -76 -257 -147 -395 -255 -111 -86 -384 -334
-454 -412 -22 -25 -164 -176 -315 -335 -309 -326 -385 -418 -438 -530 l-38
-79 -3 -153 c-3 -146 -2 -156 24 -225 84 -220 282 -408 471 -447 81 -17 224
-8 294 19 68 26 165 87 234 148 28 24 201 202 385 395 401 421 552 560 620
570 l25 3 5 -665 c6 -622 7 -674 28 -804 55 -343 127 -575 272 -871 362 -739
975 -1183 1790 -1296 127 -18 575 -18 695 -1 405 59 699 166 987 359 491 327
848 864 1012 1518 43 172 82 456 89 634 l2 64 85 29 c344 115 617 285 950 590
100 91 263 259 710 733 167 178 254 307 300 449 20 59 22 84 18 195 l-4 126
-51 105 c-166 341 -498 477 -801 329 -128 -62 -192 -121 -610 -562 -139 -146
-297 -307 -352 -358 -95 -88 -185 -159 -201 -159 -4 0 -10 13 -14 29 -3 16
-13 32 -21 35 -12 5 -14 188 -14 1340 0 1452 2 1396 -56 1541 -29 72 -117 197
-180 256 -196 183 -475 211 -691 69 -97 -64 -206 -188 -259 -295 -24 -49 -50
-112 -56 -140 -9 -37 -13 -413 -15 -1457 -3 -1398 -3 -1406 -23 -1401 -17 5
-20 0 -20 -31 0 -23 -5 -36 -13 -36 -46 0 -430 219 -952 542 -553 343 -949
535 -1272 618 -43 11 -43 11 -43 55 0 33 -4 45 -15 45 -13 0 -15 94 -15 783 0
860 0 859 -62 1002 -76 176 -236 328 -400 380 -91 29 -218 33 -302 10z m307
-248 c65 -30 155 -110 191 -171 58 -99 56 -65 56 -1093 0 -746 3 -944 13 -947
6 -2 55 -11 107 -20 112 -21 333 -91 479 -153 257 -110 499 -243 940 -516 150
-93 344 -212 430 -264 258 -156 648 -340 778 -368 l33 -7 2 1629 3 1628 23 58
c34 82 125 178 211 220 62 30 72 32 176 32 104 0 114 -2 176 -32 84 -42 161
-118 202 -202 l32 -66 5 -1617 5 -1617 78 33 c172 75 326 181 494 340 53 50
256 259 450 464 195 205 378 388 406 407 212 144 502 67 609 -160 40 -87 52
-163 38 -244 -18 -109 -51 -163 -180 -296 -64 -66 -231 -241 -372 -390 -338
-358 -453 -466 -646 -613 -246 -187 -543 -325 -823 -382 l-56 -11 -6 -242 c-6
-265 -25 -422 -76 -632 -114 -463 -353 -880 -665 -1157 -297 -264 -656 -426
-1096 -495 -165 -26 -596 -25 -765 1 -252 39 -438 97 -660 207 -406 200 -698
500 -910 934 -115 235 -186 463 -237 760 -21 126 -22 158 -25 1008 -3 594 -7
877 -14 877 -22 0 -177 -73 -249 -118 -175 -107 -309 -228 -631 -569 -458
-485 -514 -539 -598 -581 -72 -36 -79 -37 -180 -37 -99 0 -111 2 -174 32 -169
80 -268 264 -237 441 19 112 58 171 214 332 78 80 245 255 371 389 597 633
912 841 1467 965 l28 6 2 983 3 982 32 65 c51 105 134 180 244 220 79 30 222
24 302 -13z M3940 4928 c0 -824 4 -929 45 -1134 122 -608 485 -982 1045 -1078
355 -61 750 -6 1020 140 425 232 670 745 670 1406 l0 117 -37 6 c-103 18 -294
69 -407 110 -327 118 -571 249 -1231 660 -426 265 -628 376 -832 461 -88 37
-250 94 -265 94 -4 0 -8 -352 -8 -782z m350 379 c133 -63 364 -196 690 -397
455 -281 604 -368 816 -476 181 -91 421 -191 564 -233 41 -12 81 -24 88 -26
18 -6 16 -293 -3 -383 -34 -162 -91 -299 -180 -433 -170 -256 -429 -389 -808
-418 -362 -27 -677 52 -897 226 -137 109 -249 276 -314 472 -67 202 -66 188
-66 989 l0 723 23 -7 c12 -4 51 -21 87 -37z"/>
</g>
</svg>
