<?xml version="1.0" standalone="no"?>
<!DOCTYPE svg PUBLIC "-//W3C//DTD SVG 20010904//EN"
 "http://www.w3.org/TR/2001/REC-SVG-20010904/DTD/svg10.dtd">
<svg version="1.0" xmlns="http://www.w3.org/2000/svg"
 width="2048.000000pt" height="2048.000000pt" viewBox="0 0 2048.000000 2048.000000"
 preserveAspectRatio="xMidYMid meet">
<metadata>
Created by potrace 1.13, written by Peter Selinger 2001-2015
</metadata>
<g transform="translate(0.000000,2048.000000) scale(0.192120,-0.192120)"
fill="#000000" stroke="none">
<path d="M4995 9763 c-930 -76 -1776 -425 -2460 -1016 -144 -124 -377 -363
-493 -505 -489 -601 -790 -1308 -861 -2025 l-10 -98 -88 -93 c-145 -151 -199
-276 -191 -445 8 -176 86 -321 273 -506 120 -119 250 -216 435 -326 l118 -71
5 -356 c5 -377 12 -446 68 -672 249 -1010 1131 -1904 2246 -2276 89 -30 168
-54 176 -54 9 0 18 -13 22 -33 26 -122 142 -272 260 -334 124 -65 101 -63 836
-63 638 0 670 1 730 20 171 53 298 177 351 341 12 40 28 69 35 69 8 0 87 24
176 54 1242 412 2169 1457 2302 2596 10 82 15 224 15 416 l0 291 128 75 c175
104 319 212 437 332 178 179 255 325 263 497 8 169 -46 294 -191 445 l-88 93
-10 98 c-71 710 -366 1410 -847 2008 -185 229 -485 519 -728 702 -584 441
-1289 722 -2054 819 -121 15 -731 28 -855 17z m775 -243 c63 -6 176 -20 250
-31 262 -38 288 -40 394 -24 55 8 120 15 144 15 l45 0 -42 -30 c-70 -51 -121
-147 -121 -230 0 -20 18 -95 39 -166 132 -437 264 -1043 350 -1594 100 -652
150 -1220 167 -1925 7 -314 12 -335 96 -410 78 -70 128 -81 313 -66 573 44
1185 221 1845 533 132 62 181 101 218 172 23 45 26 64 27 153 0 56 4 105 7
108 7 7 60 -119 79 -185 28 -101 5 -278 -48 -385 -78 -154 -241 -314 -483
-475 -52 -34 -126 -88 -165 -120 -120 -97 -230 -168 -312 -201 -70 -29 -88
-32 -175 -31 -100 2 -132 -5 -413 -83 -689 -192 -1207 -282 -1945 -337 -235
-18 -1195 -18 -1420 0 -755 59 -1288 151 -1945 337 -271 76 -312 85 -412 83
-89 -1 -106 2 -178 31 -97 39 -157 77 -278 179 -50 43 -128 102 -172 132 -206
140 -375 293 -451 408 -90 135 -131 281 -114 404 9 62 55 200 80 238 12 18 12
14 14 -115 3 -160 52 -221 254 -317 648 -306 1268 -485 1837 -529 185 -15 235
-4 313 66 87 78 88 82 101 530 22 782 88 1422 223 2160 77 426 192 919 287
1235 23 74 41 150 41 170 0 83 -51 179 -121 230 l-42 30 50 0 c28 0 88 -7 134
-16 89 -17 160 -14 294 10 122 22 335 46 491 56 165 10 582 4 744 -10z m-2137
-357 c-232 -808 -405 -1782 -478 -2693 -21 -275 -35 -517 -35 -641 0 -58 -3
-127 -6 -152 -6 -45 -7 -46 -38 -40 -524 92 -919 219 -1451 467 -104 48 -128
56 -181 56 -67 0 -114 -13 -157 -43 -16 -10 -30 -17 -32 -15 -2 2 31 59 75
127 85 135 99 172 151 396 62 269 147 501 286 779 327 654 789 1148 1485 1590
101 65 176 123 284 222 80 74 147 134 149 134 1 0 -22 -84 -52 -187z m3479 66
c127 -117 183 -157 438 -319 365 -231 732 -573 1012 -946 309 -409 536 -907
647 -1414 35 -158 67 -237 149 -364 28 -44 50 -82 47 -84 -2 -2 -16 5 -32 15
-43 30 -90 43 -157 43 -55 0 -78 -8 -246 -86 -342 -158 -663 -274 -981 -353
-159 -39 -430 -93 -437 -86 -2 1 -7 115 -12 251 -41 1099 -226 2275 -513 3277
-30 103 -53 187 -51 187 2 0 63 -55 136 -121z m-3118 -5 c32 -12 20 -121 -35
-328 -79 -298 -106 -409 -169 -710 -167 -796 -262 -1600 -291 -2455 -10 -305
-13 -338 -30 -357 -11 -11 -19 -35 -19 -53 0 -49 -47 -65 -170 -57 -420 27
-1211 258 -1717 501 -136 65 -171 95 -158 134 16 52 94 40 283 -45 382 -172
741 -293 1082 -368 232 -50 309 -46 380 25 86 85 130 199 130 335 0 183 48
812 86 1124 63 528 159 1080 264 1538 60 256 134 529 162 595 26 59 76 104
125 112 32 6 51 10 60 14 1 1 8 -2 17 -5z m2784 -22 c60 -27 95 -110 171 -402
220 -846 386 -1982 416 -2860 9 -233 35 -317 130 -414 76 -78 129 -89 291 -61
322 57 742 194 1169 382 140 62 180 76 225 77 53 1 55 0 58 -27 6 -49 -22 -74
-151 -136 -399 -192 -957 -371 -1422 -457 -241 -44 -385 -53 -435 -27 -28 15
-36 25 -38 53 -2 19 -10 42 -18 51 -11 13 -16 84 -24 345 -25 807 -115 1590
-276 2394 -49 243 -156 694 -210 878 -30 105 -34 218 -6 225 26 6 83 -4 120
-21z m-4861 -4621 c59 -27 159 -70 221 -96 62 -26 111 -49 109 -51 -2 -2 -31
-22 -65 -44 -48 -30 -64 -47 -68 -70 -4 -16 -10 -27 -15 -24 -16 9 -11 -347 6
-428 138 -661 631 -1342 1303 -1796 67 -46 130 -82 140 -80 10 1 80 -29 157
-69 77 -39 181 -89 230 -111 84 -37 95 -39 170 -36 49 1 111 12 160 27 44 14
82 23 84 21 1 -1 -8 -18 -22 -36 -69 -92 -107 -213 -107 -346 l0 -83 -73 88
c-40 48 -90 101 -111 116 -20 16 -105 58 -189 94 -179 77 -213 94 -332 173
-49 33 -103 68 -118 77 -271 167 -462 316 -672 527 -247 248 -403 464 -561
778 -148 295 -244 703 -244 1043 0 105 -28 193 -118 368 -6 12 2 9 115 -42z
m6941 42 c-5 -11 -56 -121 -73 -158 -8 -16 -19 -49 -26 -72 -7 -24 -15 -43
-19 -43 -4 0 -10 -82 -13 -182 -11 -340 -99 -676 -261 -998 -224 -445 -581
-841 -1046 -1162 -321 -221 -393 -264 -578 -343 -74 -31 -149 -67 -169 -78
-50 -31 -128 -103 -184 -170 l-49 -58 0 83 c0 132 -38 253 -106 345 -13 17
-24 34 -24 36 0 3 39 -6 88 -20 86 -24 138 -26 267 -9 36 4 267 113 373 175
52 30 77 40 84 33 8 -8 46 13 127 68 327 222 633 518 852 826 198 278 348 589
427 887 25 96 27 115 27 318 l0 215 -30 33 c-16 18 -50 44 -74 59 l-44 26 29
13 c125 57 411 181 417 182 5 1 7 -2 5 -6z m-6466 -233 c318 -117 800 -238
1253 -314 823 -138 1768 -171 2660 -91 674 61 1356 197 1875 376 96 33 183 62
193 66 15 5 17 -5 17 -108 0 -341 -62 -606 -215 -914 -284 -575 -841 -1094
-1490 -1388 -105 -47 -388 -157 -406 -157 -5 0 -39 20 -76 45 -38 25 -99 56
-138 68 -69 22 -77 22 -735 22 -658 0 -666 0 -735 -22 -38 -12 -101 -43 -140
-69 l-70 -47 -65 23 c-403 141 -747 329 -1055 576 -137 110 -377 348 -477 475
-254 319 -432 689 -488 1015 -22 122 -40 484 -25 484 4 0 57 -18 117 -40z
m3594 -2685 c75 -17 167 -57 211 -91 l33 -25 0 -102 0 -103 -50 -69 c-27 -38
-50 -72 -50 -75 0 -3 -22 -20 -48 -38 -90 -61 -123 -63 -791 -60 l-596 3 -58
23 c-77 31 -107 58 -172 156 l-55 82 0 86 c0 86 0 87 33 111 51 39 134 77 211
97 65 17 118 19 671 19 490 1 611 -2 661 -14z M5266 8019 c-91 -15 -173 -65
-271 -163 -77 -78 -94 -101 -120 -166 -27 -68 -30 -87 -33 -212 -3 -110 -7
-138 -18 -138 -10 0 -14 -12 -14 -40 0 -33 -3 -40 -20 -40 -11 0 -20 -6 -20
-14 0 -10 -34 -15 -151 -20 -239 -12 -310 -39 -440 -167 -57 -57 -86 -96 -115
-155 -38 -76 -39 -80 -39 -189 0 -109 0 -111 39 -184 43 -80 123 -167 200
-218 91 -61 145 -74 334 -86 94 -6 172 -14 172 -19 0 -4 9 -8 20 -8 13 0 20
-7 20 -20 0 -11 7 -20 15 -20 13 0 15 -21 15 -132 0 -166 10 -230 51 -314 43
-92 170 -219 265 -265 65 -32 74 -34 174 -34 100 0 109 2 174 34 51 25 94 58
161 125 140 139 165 203 172 444 4 114 7 142 19 142 8 0 14 9 14 20 0 17 7 20
39 20 22 0 41 4 43 10 2 5 66 14 143 19 201 13 277 46 408 174 49 47 84 92
103 132 27 56 29 68 29 180 0 116 -1 123 -34 190 -25 52 -55 91 -117 152 -129
126 -203 156 -426 169 -83 4 -108 9 -108 20 0 10 -12 14 -40 14 -39 0 -40 1
-40 35 0 22 -6 38 -15 41 -12 5 -15 26 -15 105 0 184 -34 272 -149 392 -46 48
-104 100 -129 117 -90 60 -200 85 -296 69z m156 -205 c61 -20 123 -75 156
-138 l27 -51 3 -315 3 -315 312 0 312 0 51 -27 c104 -55 161 -157 152 -272 -7
-78 -34 -132 -94 -185 -76 -66 -104 -71 -441 -71 l-293 0 0 -293 c0 -338 -5
-365 -72 -442 -113 -128 -303 -128 -416 0 -67 77 -72 104 -72 442 l0 293 -293
0 c-337 0 -365 5 -441 71 -60 53 -87 107 -94 185 -9 115 48 217 152 272 l51
27 312 0 312 0 3 315 3 315 27 51 c66 126 208 183 340 138z M3645 5008 c-91
-16 -135 -19 -255 -14 -80 4 -163 9 -185 12 -22 4 -38 4 -35 1 8 -8 338 -74
510 -101 543 -87 907 -116 1512 -123 703 -8 1226 28 1823 128 146 24 526 101
522 106 -2 1 -51 -4 -108 -12 -135 -19 -293 -19 -394 0 -44 9 -116 16 -160 16
-74 0 -266 -15 -325 -26 -14 -3 -158 -15 -320 -27 -259 -20 -369 -22 -895 -23
-668 0 -819 8 -1405 70 -171 18 -148 18 -285 -7z M3128 5013 c6 -2 18 -2 25 0
6 3 1 5 -13 5 -14 0 -19 -2 -12 -5z"/>
</g>
</svg>
