<?xml version="1.0" standalone="no"?>
<!DOCTYPE svg PUBLIC "-//W3C//DTD SVG 20010904//EN"
 "http://www.w3.org/TR/2001/REC-SVG-20010904/DTD/svg10.dtd">
<svg version="1.0" xmlns="http://www.w3.org/2000/svg"
 width="2048.000000pt" height="2048.000000pt" viewBox="0 0 2048.000000 2048.000000"
 preserveAspectRatio="xMidYMid meet">
<metadata>
Created by potrace 1.13, written by Peter Selinger 2001-2015
</metadata>
<g transform="translate(0.000000,2048.000000) scale(0.192120,-0.192120)"
fill="#000000" stroke="none">
<path d="M5065 10323 c-708 -42 -1346 -211 -1965 -519 -1293 -644 -2245 -1819
-2610 -3219 -264 -1014 -198 -2105 187 -3085 398 -1015 1140 -1892 2079 -2456
963 -578 2086 -814 3209 -673 908 114 1777 484 2496 1064 1481 1192 2154 3095
1754 4960 -249 1157 -918 2202 -1875 2927 -257 194 -504 345 -805 493 -603
297 -1215 460 -1890 505 -137 9 -457 11 -580 3z m580 -293 c1358 -91 2576
-720 3421 -1767 488 -605 808 -1323 944 -2117 l30 -177 0 -634 c0 -595 -1
-643 -21 -762 -118 -728 -372 -1361 -786 -1959 -747 -1079 -1951 -1805 -3276
-1974 -455 -58 -951 -51 -1392 20 -891 143 -1705 521 -2380 1105 -389 337
-735 754 -977 1180 -314 551 -501 1087 -588 1690 -18 127 -20 191 -20 697 0
510 2 569 21 700 126 875 485 1669 1062 2347 120 142 373 392 527 522 558 472
1222 814 1920 989 501 126 1016 173 1515 140z M1930 6699 c-93 -12 -215 -52
-290 -96 -65 -38 -229 -192 -288 -269 -17 -23 -53 -86 -79 -140 l-48 -99 0
-765 0 -765 46 -96 c64 -133 118 -210 219 -309 100 -100 194 -156 325 -197
l90 -28 3425 0 3425 0 90 28 c260 81 463 289 562 576 l33 96 0 690 c0 750 2
723 -59 864 -41 98 -106 188 -206 287 -130 130 -268 199 -445 223 -100 13
-6695 14 -6800 0z m6920 -289 c182 -72 317 -225 355 -407 21 -99 21 -1247 0
-1346 -38 -182 -173 -335 -355 -407 l-65 -25 -3425 -3 c-3385 -2 -3426 -2
-3503 18 -43 11 -104 34 -135 52 -127 72 -237 222 -267 365 -21 98 -21 1246
-1 1344 45 212 221 387 431 429 22 4 1584 7 3470 6 l3430 -1 65 -25z"/>
</g>
</svg>
