<?xml version="1.0" standalone="no"?>
<!DOCTYPE svg PUBLIC "-//W3C//DTD SVG 20010904//EN"
 "http://www.w3.org/TR/2001/REC-SVG-20010904/DTD/svg10.dtd">
<svg version="1.0" xmlns="http://www.w3.org/2000/svg"
 width="2048.000000pt" height="2048.000000pt" viewBox="0 0 2048.000000 2048.000000"
 preserveAspectRatio="xMidYMid meet">
<metadata>
Created by potrace 1.13, written by Peter Selinger 2001-2015
</metadata>
<g transform="translate(0.000000,2048.000000) scale(0.192120,-0.192120)"
fill="#000000" stroke="none">
<path d="M5240 10315 c-60 -19 -125 -75 -158 -139 -25 -49 -27 -59 -30 -228
l-4 -178 -171 0 c-145 0 -178 -3 -212 -19 -97 -44 -154 -124 -163 -226 -9
-119 40 -215 139 -270 53 -30 56 -30 232 -33 l177 -4 1 -566 c1 -312 4 -578 8
-592 6 -22 10 -19 46 45 22 39 49 88 60 110 11 22 25 43 30 47 6 5 10 180 10
491 0 452 -1 485 -18 503 -78 83 -137 136 -164 149 -18 9 -70 20 -114 25 -133
15 -194 43 -172 79 12 19 43 26 171 40 69 7 105 16 137 35 78 46 165 167 165
230 0 14 4 26 9 26 5 0 10 40 13 88 3 77 7 92 32 125 15 20 36 39 47 42 26 9
59 -3 59 -21 0 -8 6 -17 14 -20 23 -9 36 -61 36 -140 0 -43 4 -74 10 -74 6 0
10 -13 10 -30 0 -16 4 -30 9 -30 5 0 11 -14 15 -30 7 -38 95 -133 153 -167 33
-19 67 -27 145 -35 121 -12 148 -21 148 -47 0 -33 -26 -49 -102 -61 -172 -27
-171 -26 -257 -101 -45 -39 -84 -81 -87 -94 -3 -14 -10 -25 -15 -25 -5 0 -9
-197 -9 -460 0 -300 3 -460 10 -460 6 0 10 -8 10 -18 0 -10 30 -69 67 -131 59
-100 68 -111 74 -90 4 13 7 279 8 591 l1 566 178 4 c175 3 178 3 231 33 99 55
148 151 139 270 -9 102 -66 182 -163 226 -34 16 -67 19 -212 19 l-171 0 -4
178 c-3 175 -3 178 -33 231 -69 125 -199 178 -335 136z M5265 8101 c-16 -4
-44 -15 -61 -24 -33 -17 -1381 -1093 -1453 -1159 -138 -128 -109 -348 59 -442
47 -26 64 -31 130 -31 59 0 84 5 119 23 24 13 316 242 650 510 333 267 613
486 621 486 8 0 288 -219 621 -486 334 -268 624 -495 645 -506 87 -44 179 -40
265 11 136 81 176 264 86 392 -39 54 -1440 1178 -1505 1207 -49 22 -132 31
-177 19z m150 -294 c16 -11 80 -64 140 -117 61 -53 336 -277 612 -498 283
-226 504 -410 508 -422 19 -60 -52 -46 -150 29 -33 25 -249 196 -480 381 -460
367 -492 392 -580 441 -54 30 -68 34 -135 34 -123 -1 -148 -17 -770 -515 -256
-204 -478 -379 -494 -387 -42 -22 -72 -25 -86 -8 -10 13 -9 19 6 37 11 11 244
201 519 422 275 220 541 436 590 481 155 139 188 159 255 149 19 -3 48 -15 65
-27z M5192 6700 c-95 -25 -162 -62 -236 -130 -74 -69 -118 -136 -153 -237
l-28 -78 -3 -466 -4 -466 -24 -12 c-29 -13 -398 -223 -2134 -1215 -794 -454
-1341 -772 -1364 -794 -168 -160 -62 -448 173 -469 35 -3 74 0 97 7 21 7 888
498 1927 1092 l1887 1078 1888 -1078 c1038 -594 1905 -1085 1926 -1092 59 -19
146 -8 209 28 162 91 192 306 60 434 -24 23 -687 408 -1738 1008 -935 535
-1719 981 -1742 993 l-41 20 -4 466 c-5 512 -4 504 -71 636 -36 73 -150 189
-224 228 -68 36 -192 67 -267 66 -34 0 -94 -9 -134 -19z m295 -311 c34 -16 73
-43 87 -60 l26 -31 0 -285 c0 -267 -1 -285 -17 -280 -10 3 -56 19 -103 36
-129 47 -217 41 -367 -23 -34 -14 -65 -26 -68 -26 -3 0 -5 128 -5 285 l0 285
38 38 c102 102 272 128 409 61z m-83 -793 c45 -14 223 -111 363 -198 l61 -39
-5 -72 c-5 -61 -2 -81 17 -125 35 -81 101 -132 361 -281 129 -74 304 -180 389
-236 174 -115 226 -147 276 -176 19 -10 50 -28 69 -39 19 -11 51 -29 70 -40
19 -11 51 -29 70 -40 19 -11 51 -29 70 -40 19 -11 51 -29 70 -40 19 -11 51
-29 70 -40 19 -11 51 -29 70 -40 19 -11 51 -29 70 -40 19 -11 51 -29 70 -40
19 -11 51 -29 70 -40 19 -11 51 -29 70 -40 19 -11 51 -29 70 -40 19 -11 51
-29 70 -40 19 -11 51 -29 70 -40 19 -11 51 -29 70 -40 19 -11 51 -29 70 -40
19 -11 51 -29 70 -40 19 -11 51 -29 70 -40 19 -11 51 -29 70 -40 19 -11 51
-29 70 -40 19 -11 51 -29 70 -40 19 -11 51 -29 70 -40 19 -11 51 -29 70 -40
19 -11 51 -29 70 -40 19 -11 51 -29 70 -40 19 -11 51 -29 70 -40 19 -11 51
-29 70 -40 19 -11 51 -29 70 -40 19 -11 51 -29 70 -40 19 -11 50 -28 68 -39
148 -85 177 -105 177 -128 0 -21 -38 -15 -99 16 -32 16 -563 318 -1181 671
-618 353 -1156 659 -1194 679 -39 20 -73 39 -76 42 -3 3 -12 8 -21 11 -9 4
-158 87 -330 186 -266 151 -416 236 -489 273 -8 4 -61 33 -118 64 -122 67
-247 115 -301 115 -52 0 -167 -41 -265 -94 -44 -24 -117 -63 -161 -86 -136
-72 -201 -108 -485 -270 -151 -87 -315 -179 -365 -205 -49 -27 -612 -346
-1250 -710 -638 -364 -1178 -671 -1200 -683 -60 -30 -98 -23 -77 15 4 6 531
312 1172 678 1369 784 1169 667 1370 800 91 61 269 169 395 240 171 97 244
144 286 185 71 70 94 132 86 227 l-6 63 37 23 c117 74 366 210 394 217 52 12
91 11 142 -4z M3945 6358 c-10 -26 0 -1403 10 -1402 8 1 77 130 127 236 11 24
10 1028 -1 1028 -5 0 -11 12 -14 28 -5 26 -91 122 -109 122 -5 0 -11 -6 -13
-12z M6647 6323 c-29 -28 -51 -62 -57 -85 -7 -24 -10 -226 -8 -555 l3 -518 56
-105 c31 -58 60 -104 65 -102 13 3 12 1404 -1 1409 -6 2 -32 -18 -58 -44z
M5215 2818 c-27 -5 -84 -25 -125 -45 -94 -45 -213 -159 -254 -244 -63 -131
-60 -66 -63 -1181 l-4 -1018 561 0 561 0 -3 1018 -3 1017 -28 78 c-36 103 -79
169 -158 241 -129 120 -305 168 -484 134z m208 -293 c65 -17 125 -52 156 -91
l21 -27 0 -898 0 -899 -280 0 -280 0 0 892 0 891 25 33 c32 42 94 79 165 98
71 19 123 19 193 1z M9141 2713 c-39 -37 -61 -67 -61 -81 0 -12 -4 -22 -10
-22 -7 0 -10 -270 -10 -790 0 -696 -2 -790 -15 -790 -13 0 -15 -32 -15 -225 0
-214 -1 -225 -20 -237 -11 -7 -20 -18 -20 -24 0 -6 -12 -17 -27 -25 -22 -11
-105 -15 -405 -17 -232 -2 -378 -7 -378 -12 0 -6 -20 -10 -44 -10 -24 0 -46
-3 -48 -7 -1 -5 -19 -15 -39 -25 -20 -9 -66 -38 -103 -65 l-66 -48 547 -3
c637 -3 622 -4 707 81 92 93 86 4 86 1246 0 597 -4 1092 -9 1099 -6 10 -24 -2
-70 -45z M1447 2753 c-4 -3 -7 -495 -7 -1093 0 -1242 -6 -1155 85 -1246 86
-86 70 -85 709 -82 l549 3 -89 62 c-49 34 -94 67 -101 73 -7 5 -19 10 -28 10
-8 0 -15 4 -15 10 0 6 -151 10 -401 12 -354 3 -402 5 -412 19 -7 9 -23 20 -37
24 -60 18 -60 17 -60 266 0 199 -2 228 -15 223 -13 -5 -15 86 -15 791 0 528
-3 794 -10 790 -5 -3 -10 2 -10 12 0 17 -113 133 -129 133 -4 0 -11 -3 -14 -7z
M3230 2251 c-88 -28 -154 -66 -218 -126 -71 -65 -115 -131 -151 -223 l-26 -67
-3 -753 -3 -752 558 0 558 0 -5 752 c-5 746 -5 754 -27 811 -31 83 -69 144
-127 206 -109 115 -241 171 -403 170 -65 0 -116 -6 -153 -18z m313 -304 c30
-15 69 -44 86 -63 l31 -35 0 -619 0 -620 -285 0 -285 0 0 608 0 607 25 37 c52
76 159 119 286 115 69 -2 96 -8 142 -30z M7120 2251 c-180 -57 -322 -197 -381
-376 -10 -31 -14 -205 -19 -793 l-5 -752 558 0 557 0 0 723 c0 688 -1 728 -20
801 -27 107 -63 169 -145 252 -73 75 -147 119 -244 148 -74 22 -228 21 -301
-3z m313 -304 c30 -15 69 -44 86 -63 l31 -35 0 -619 0 -620 -285 0 -285 0 0
608 c0 585 1 608 20 639 23 39 83 80 153 105 78 28 205 21 280 -15z M4198 473
c-1 -5 -21 -17 -43 -28 -22 -11 -42 -22 -45 -25 -3 -3 -31 -23 -64 -45 l-58
-40 186 -3 c102 -1 269 -1 370 0 l185 3 -67 45 c-77 52 -130 79 -154 80 -10 0
-18 5 -18 10 0 12 -286 14 -292 3z M6150 472 c0 -4 -14 -13 -31 -19 -17 -7
-66 -36 -109 -65 l-78 -53 184 -3 c101 -1 268 -1 371 0 l187 3 -70 46 c-82 55
-127 79 -149 79 -8 0 -15 5 -15 10 0 6 -55 10 -145 10 -80 0 -145 -4 -145 -8z"/>
</g>
</svg>
