<?xml version="1.0" standalone="no"?>
<!DOCTYPE svg PUBLIC "-//W3C//DTD SVG 20010904//EN"
 "http://www.w3.org/TR/2001/REC-SVG-20010904/DTD/svg10.dtd">
<svg version="1.0" xmlns="http://www.w3.org/2000/svg"
 width="2048.000000pt" height="2048.000000pt" viewBox="0 0 2048.000000 2048.000000"
 preserveAspectRatio="xMidYMid meet">
<metadata>
Created by potrace 1.13, written by Peter Selinger 2001-2015
</metadata>
<g transform="translate(0.000000,2048.000000) scale(0.192120,-0.192120)"
fill="#000000" stroke="none">
<path d="M8015 10026 c-319 -63 -630 -170 -960 -331 -309 -151 -515 -279 -905
-561 -377 -273 -600 -418 -848 -550 -48 -26 -56 -35 -77 -88 -55 -138 -144
-197 -323 -214 l-66 -7 -36 -62 c-152 -263 -402 -449 -707 -525 -130 -33 -370
-33 -499 0 -50 13 -102 31 -116 40 -14 9 -36 24 -49 33 -13 9 -42 19 -64 23
l-40 5 45 -22 c25 -13 79 -57 120 -98 198 -199 530 -302 918 -286 348 15 663
146 1627 677 941 519 1295 690 1749 846 244 84 556 154 691 154 82 1 127 16
163 54 23 26 32 45 32 69 0 50 -314 793 -351 832 -27 28 -35 30 -107 32 -49 2
-121 -6 -197 -21z m161 -307 c24 -23 69 -110 115 -227 28 -69 39 -164 22 -175
-5 -3 -73 -19 -153 -36 -355 -76 -738 -218 -1225 -455 -252 -123 -435 -221
-655 -351 -325 -192 -899 -502 -1148 -619 -249 -116 -422 -169 -422 -127 0 10
28 49 63 88 34 38 87 100 117 136 49 60 66 73 160 118 110 54 156 86 255 180
82 78 95 88 210 148 145 77 391 239 710 467 343 245 375 267 550 372 393 236
872 428 1237 497 89 17 134 12 164 -16z M3946 9954 c-164 -25 -375 -94 -586
-190 -251 -113 -423 -227 -576 -379 -168 -168 -247 -321 -248 -485 -1 -102 13
-151 59 -221 l35 -52 -27 -66 c-25 -60 -28 -77 -27 -191 0 -145 15 -197 92
-313 161 -246 522 -316 764 -149 65 45 144 133 175 196 15 31 31 56 35 56 5 0
27 -9 49 -21 49 -25 157 -49 219 -49 239 0 461 169 531 405 17 57 20 88 17
175 -5 118 -21 174 -76 264 -74 124 -219 227 -359 256 -82 17 -224 8 -298 -20
-132 -50 -245 -147 -303 -263 -27 -53 -29 -55 -52 -41 -90 50 -266 71 -375 43
-116 -29 -232 -101 -300 -186 -59 -74 -58 -74 -50 -8 10 89 33 171 67 239 143
286 408 493 865 675 525 209 952 153 1222 -160 83 -96 182 -249 218 -339 33
-81 73 -257 73 -324 0 -99 49 -167 135 -186 33 -8 34 -7 41 34 12 70 7 247
-10 338 -72 383 -308 716 -616 870 -194 97 -448 130 -694 92z m79 -1058 c103
-47 175 -170 161 -273 -22 -159 -147 -263 -302 -250 -175 14 -296 195 -239
358 43 123 134 187 265 188 48 1 78 -5 115 -23z m-778 -279 c172 -87 205 -306
68 -444 -79 -78 -166 -99 -276 -67 -72 21 -159 107 -178 177 -31 108 -10 195
63 274 88 95 210 117 323 60z M4547 8466 c-21 -8 -41 -16 -43 -19 -3 -2 19
-26 48 -52 52 -47 123 -87 182 -101 l29 -7 -7 48 c-7 59 -24 86 -68 113 -46
28 -96 34 -141 18z M6500 8142 c0 -47 28 -93 73 -121 19 -12 102 -49 183 -82
264 -107 437 -207 620 -360 121 -101 145 -131 343 -428 143 -217 218 -417 290
-779 17 -84 35 -161 41 -172 5 -10 10 -31 10 -46 0 -15 8 -36 18 -47 11 -12
21 -50 29 -105 14 -109 22 -141 42 -171 l15 -24 14 34 c37 88 21 396 -33 664
-115 567 -423 1034 -887 1346 -199 134 -490 265 -700 314 l-58 13 0 -36z
M3580 7399 c-46 -63 -63 -100 -105 -224 -121 -358 -351 -763 -556 -979 -99
-105 -182 -166 -280 -206 -99 -41 -159 -81 -221 -149 -230 -248 -187 -642 92
-831 65 -44 105 -62 178 -80 52 -12 59 -18 324 -299 149 -157 344 -363 434
-457 l162 -170 -39 -60 c-54 -81 -73 -149 -73 -264 -1 -196 99 -363 271 -452
85 -44 157 -61 253 -60 101 1 174 26 311 104 63 36 226 128 364 204 137 76
266 153 286 171 71 64 119 191 119 313 0 83 -18 195 -75 456 -51 238 -123 561
-130 585 -3 9 10 36 30 62 l35 46 84 -39 c79 -38 224 -80 274 -80 12 0 22 -2
22 -4 0 -3 -43 -90 -95 -193 -113 -225 -129 -281 -122 -413 5 -102 20 -147
336 -1002 50 -135 91 -250 91 -255 0 -5 -61 -56 -136 -113 -155 -119 -202
-168 -244 -254 -138 -281 23 -632 325 -711 127 -33 232 -15 386 67 186 99 643
369 678 402 77 72 118 220 107 386 -12 183 -36 263 -261 875 -59 160 -124 337
-145 395 -21 58 -47 128 -58 155 l-20 51 258 521 258 522 74 -1 c69 -2 78 1
164 45 114 59 143 60 215 10 30 -20 82 -56 116 -79 69 -47 194 -99 264 -109
67 -10 72 -15 71 -80 -1 -98 -17 -110 -554 -392 -408 -214 -545 -296 -638
-381 -70 -62 -143 -192 -109 -192 16 0 1281 664 1334 700 61 42 144 134 166
186 46 103 33 194 -40 276 -31 35 -34 36 -85 31 -183 -19 -421 107 -506 270
-14 26 -32 47 -41 47 -31 0 -126 -32 -211 -72 l-87 -41 -11 -51 c-6 -28 -17
-61 -25 -72 -34 -52 -375 -156 -636 -195 -275 -40 -701 -40 -1020 1 -296 37
-466 82 -644 170 -198 97 -309 208 -360 359 -15 45 -28 81 -30 81 -2 0 -25
-35 -52 -77 -27 -43 -87 -127 -132 -188 l-83 -110 6 -61 c3 -34 44 -315 91
-624 47 -310 85 -569 85 -576 0 -7 -43 -39 -96 -70 l-95 -57 -82 89 c-88 96
-576 615 -636 676 l-36 38 -52 -20 c-67 -25 -175 -42 -218 -34 -32 6 -35 10
-45 60 -14 67 -44 104 -130 159 -78 50 -125 98 -157 156 -21 40 -23 57 -23
179 0 133 1 137 29 181 59 91 106 133 233 204 67 39 154 95 193 126 86 69 210
197 255 264 19 28 48 68 65 91 42 54 182 305 239 427 63 135 153 364 172 439
19 72 15 169 -8 213 l-15 28 -33 -44z m634 -2008 c48 -37 121 -87 162 -111 72
-41 230 -109 286 -123 38 -10 50 -36 36 -83 -6 -23 -8 -78 -5 -134 6 -100 7
-103 129 -445 l53 -150 3 -232 c3 -222 3 -234 -18 -270 -26 -46 -73 -77 -340
-223 -367 -201 -434 -230 -535 -230 -114 0 -224 60 -265 145 -19 39 -21 58
-18 143 l3 98 50 63 c28 35 57 68 65 72 8 4 53 26 100 48 47 21 99 52 115 68
57 53 123 138 151 193 l27 54 -6 175 c-5 132 -18 254 -53 486 -51 344 -66 525
-42 525 8 0 54 -31 102 -69z m2064 -359 c-3 -34 -34 -109 -103 -252 -139 -291
-145 -309 -145 -458 0 -135 9 -179 79 -382 84 -248 145 -400 206 -515 35 -66
77 -162 94 -214 31 -92 31 -97 31 -298 0 -229 -1 -232 -74 -282 -58 -40 -445
-260 -545 -311 -95 -47 -205 -74 -265 -65 -90 15 -157 57 -202 127 -21 33 -24
50 -24 135 l0 98 149 145 c143 139 195 206 235 297 30 69 19 180 -33 333 -58
171 -111 298 -170 408 -69 130 -188 409 -202 472 -6 29 -9 94 -7 144 l4 91 66
110 c103 172 130 237 142 348 3 27 8 53 12 58 3 5 77 9 165 9 166 0 342 13
483 35 45 7 87 13 95 14 10 1 12 -10 9 -47z m-2523 -905 c-28 -17 -70 -47 -93
-65 -46 -37 -46 -37 -31 28 13 59 30 70 108 70 l66 -1 -50 -32z M6689 6937
c-59 -50 -69 -77 -69 -189 0 -58 9 -153 20 -218 31 -175 50 -354 50 -462 0
-59 4 -98 10 -98 6 0 10 -21 11 -47 1 -75 28 -144 68 -170 57 -38 58 -36 66
113 18 324 -37 721 -134 969 -16 41 -26 75 -22 75 15 0 159 -157 198 -215 124
-184 183 -380 202 -666 10 -143 26 -219 47 -219 7 0 29 16 49 35 l35 36 0 148
c0 220 -31 371 -115 561 -49 111 -108 201 -178 272 -95 96 -182 124 -238 75z
M10050 6640 c-403 -92 -701 -164 -1030 -251 -286 -76 -715 -196 -769 -217
l-24 -9 33 -23 c71 -50 159 -39 620 80 574 148 1220 300 1271 300 5 0 9 -7 9
-15 0 -8 9 -15 20 -15 19 0 20 -7 20 -160 0 -100 4 -160 10 -160 7 0 10 -275
10 -805 0 -600 3 -817 12 -857 17 -71 17 -365 0 -395 -9 -17 -12 -323 -12
-1360 0 -1294 -1 -1342 -20 -1453 -80 -459 -289 -691 -717 -797 -63 -16 -293
-17 -3008 -23 -2229 -5 -2996 -9 -3170 -19 -187 -11 -292 -11 -560 -1 -181 7
-598 16 -925 20 -619 8 -612 7 -765 56 -143 46 -225 96 -317 193 -138 146
-214 297 -265 531 l-26 115 -4 657 c-4 655 -4 657 16 668 12 6 21 19 21 28 0
10 15 26 32 37 18 10 49 31 68 46 62 47 858 473 1280 684 229 115 848 415
1153 559 95 45 150 96 168 154 6 23 10 44 7 47 -6 7 -138 -52 -488 -218 -794
-376 -1485 -730 -2177 -1115 l-193 -107 0 -710 c0 -769 3 -813 56 -1000 31
-111 109 -276 169 -361 165 -230 411 -369 720 -404 122 -13 7986 -14 8106 0
290 33 525 155 686 355 78 96 171 281 207 410 59 207 56 54 56 2943 0 2115 -3
2652 -12 2651 -7 0 -128 -27 -268 -59z M8075 5638 c-28 -34 -73 -78 -102 -97
l-52 -35 37 -25 c53 -36 1369 -941 1670 -1149 274 -189 297 -199 361 -165 47
24 72 62 78 114 9 86 90 24 -1027 792 -184 127 -464 320 -622 429 -158 109
-289 198 -291 198 -1 0 -25 -28 -52 -62z M3611 5489 c-18 -6 -48 -20 -66 -32
-78 -52 -332 -237 -358 -261 -43 -39 -70 -109 -62 -157 4 -21 9 -39 12 -39 3
0 50 23 104 51 149 78 387 266 469 370 l31 38 -23 15 c-33 21 -68 26 -107 15z
M5113 4727 c-59 -29 -78 -47 -52 -47 21 0 77 31 100 56 28 30 28 30 -48 -9z
M3765 4520 l-60 -28 37 -1 c25 -1 46 6 65 23 41 36 26 38 -42 6z M8500 4484
c-119 -25 -22 23 -1355 -676 -487 -256 -563 -297 -570 -308 -8 -12 74 -49 125
-56 77 -10 201 35 435 156 115 59 408 212 649 339 274 144 442 227 447 220 4
-7 27 0 65 19 136 68 200 85 324 86 102 1 120 -2 160 -22 52 -27 101 -72 171
-155 41 -49 49 -65 49 -99 0 -94 -41 -130 -320 -278 -169 -89 -411 -228 -515
-295 -27 -18 -309 -168 -625 -334 -316 -166 -584 -310 -595 -320 -11 -9 -33
-25 -48 -35 -16 -10 -80 -67 -143 -127 -136 -130 -199 -172 -527 -353 -439
-242 -522 -276 -777 -321 -193 -34 -248 -49 -339 -93 -42 -20 -379 -195 -748
-389 -760 -398 -853 -446 -926 -473 -149 -55 -326 -76 -521 -60 -239 20 -470
83 -533 146 -30 29 -6 50 107 94 149 59 251 110 910 457 455 240 657 351 686
379 26 25 125 83 270 158 387 202 513 273 546 308 24 26 163 197 232 287 17
23 -82 -29 -1784 -924 -631 -332 -769 -401 -929 -465 -194 -77 -242 -102 -296
-151 -114 -105 -67 -219 134 -323 340 -176 861 -228 1184 -119 68 23 1124 572
2502 1301 77 41 352 184 610 319 1278 668 2432 1277 2473 1305 114 79 182 182
189 287 4 56 1 73 -19 108 -38 70 -267 333 -315 364 -87 55 -246 73 -383 43z
M3405 3833 c-49 -25 -533 -278 -1075 -563 -1175 -617 -1092 -575 -1288 -654
-243 -98 -308 -136 -349 -204 -28 -45 -28 -74 -4 -128 24 -53 87 -104 197
-158 340 -167 848 -215 1162 -111 66 23 1088 552 1997 1035 132 71 460 243
730 385 269 141 492 258 494 261 10 10 -25 24 -60 24 -26 0 -51 -10 -85 -34
-162 -114 -241 -161 -539 -321 -181 -98 -373 -195 -425 -216 -92 -36 -206 -64
-450 -108 -145 -27 -146 -27 -940 -444 -344 -180 -659 -341 -700 -358 -208
-87 -540 -99 -818 -29 -158 40 -272 93 -272 127 0 17 33 39 95 63 141 55 280
124 790 392 349 184 554 298 580 322 22 21 126 82 230 137 636 335 581 298
731 494 62 82 99 135 93 134 -2 0 -44 -21 -94 -46z"/>
</g>
</svg>
