<?xml version="1.0" standalone="no"?>
<!DOCTYPE svg PUBLIC "-//W3C//DTD SVG 20010904//EN"
 "http://www.w3.org/TR/2001/REC-SVG-20010904/DTD/svg10.dtd">
<svg version="1.0" xmlns="http://www.w3.org/2000/svg"
 width="2048.000000pt" height="2048.000000pt" viewBox="0 0 2048.000000 2048.000000"
 preserveAspectRatio="xMidYMid meet">
<metadata>
Created by potrace 1.13, written by Peter Selinger 2001-2015
</metadata>
<g transform="translate(0.000000,2048.000000) scale(0.192120,-0.192120)"
fill="#000000" stroke="none">
<path d="M3799 10170 c-272 -21 -454 -68 -654 -168 -272 -136 -473 -334 -555
-547 -34 -89 -33 -201 2 -277 34 -72 97 -134 181 -177 l66 -33 6 -57 c11 -116
28 -199 56 -283 128 -390 459 -683 866 -769 135 -28 331 -28 463 1 52 12 101
22 109 23 31 4 88 -112 112 -231 12 -59 12 -62 -19 -129 -50 -109 -72 -210
-72 -332 0 -58 5 -125 10 -149 l10 -44 -77 -85 c-150 -166 -432 -412 -655
-572 -205 -146 -492 -303 -718 -391 -155 -61 -359 -116 -537 -145 -226 -37
-297 -74 -350 -182 -87 -180 40 -399 239 -409 153 -8 541 78 823 183 141 53
423 187 562 269 290 170 566 378 857 648 53 49 98 87 99 85 2 -2 27 -47 57
-99 66 -118 183 -302 425 -670 264 -400 455 -698 455 -710 0 -8 -542 -764
-887 -1238 -76 -104 -103 -148 -98 -161 7 -22 80 -74 163 -115 28 -14 52 -29
52 -32 0 -3 -7 -18 -15 -34 -36 -70 -36 -95 19 -1115 l53 -990 -24 -18 c-34
-27 -45 -53 -59 -141 -7 -43 -14 -80 -16 -82 -3 -2 -66 -15 -141 -29 -443 -82
-885 -242 -981 -355 -55 -66 -54 -155 1 -221 52 -61 12 -59 955 -59 851 0 862
0 904 21 34 16 49 32 70 75 26 54 27 59 21 177 -6 102 -52 507 -73 626 -3 19
-18 46 -33 60 l-27 26 -43 820 c-24 451 -45 859 -48 908 -5 70 -3 87 8 87 8 0
72 -23 143 -50 71 -28 130 -49 131 -48 149 218 516 716 519 707 3 -8 28 -115
56 -239 29 -124 57 -231 62 -237 20 -25 82 -14 174 31 l90 43 17 -41 c25 -60
68 -108 123 -138 38 -20 251 -71 909 -218 473 -105 870 -194 883 -197 14 -3
22 -13 22 -27 0 -48 43 -78 161 -111 l56 -16 6 -182 c16 -476 118 -926 230
-1011 47 -36 104 -44 162 -22 47 18 91 62 100 99 19 78 253 1719 248 1738 -10
41 -54 91 -99 110 -56 25 -185 36 -519 44 -186 5 -279 4 -298 -4 -24 -9 -130
12 -700 139 -370 82 -691 152 -715 156 -40 6 -70 33 -58 52 2 4 56 48 120 97
63 50 115 95 116 101 0 9 -117 503 -245 1029 -16 66 -16 74 0 128 9 31 19 57
23 57 4 -1 36 -7 72 -15 98 -22 167 -20 180 5 37 70 -231 683 -545 1245 -164
294 -346 584 -371 592 -17 6 -78 -41 -93 -72 -11 -23 -11 -38 -2 -78 12 -52
213 -464 387 -792 121 -227 255 -508 290 -607 28 -79 29 -106 9 -197 l-16 -68
-127 -6 c-155 -6 -216 -24 -402 -114 -227 -110 -421 -163 -594 -163 -81 0
-176 13 -222 30 l-23 9 34 57 c75 123 56 172 -245 634 -362 555 -502 760 -543
792 -22 18 -76 44 -118 58 l-77 25 80 90 c124 138 249 288 246 296 -2 4 -93
74 -203 155 -110 80 -213 158 -229 171 -29 24 -30 24 -44 6 -19 -24 -16 -16
44 107 29 58 62 144 74 193 21 79 22 91 9 130 -7 23 -31 61 -52 84 l-38 41 49
59 c57 68 181 185 235 221 20 13 37 26 37 29 0 6 -48 -6 -168 -43 -73 -23
-124 -33 -141 -29 -15 3 -63 30 -105 60 -117 81 -134 85 -351 78 -286 -9 -478
28 -617 119 -112 74 -234 208 -317 348 -80 135 -125 193 -235 309 -39 41 -62
70 -51 66 11 -5 160 -11 330 -15 327 -8 400 -17 533 -63 148 -51 262 -130 488
-337 252 -231 332 -286 494 -341 86 -29 109 -32 250 -37 258 -8 470 39 693
152 151 76 256 154 388 285 166 165 269 331 269 434 0 60 -15 65 -195 64 -194
-1 -287 19 -441 92 -183 87 -336 204 -594 449 -255 244 -365 329 -528 411
-209 105 -495 153 -783 131z m361 -325 c136 -21 232 -49 337 -101 151 -74 245
-148 524 -409 284 -267 507 -417 742 -500 74 -27 82 -33 77 -65 -7 -57 -216
-194 -407 -265 -155 -59 -438 -110 -563 -103 -130 8 -261 81 -460 258 -274
242 -365 310 -512 380 -175 83 -310 108 -644 119 -211 7 -223 8 -275 34 -30
14 -69 40 -87 58 -29 29 -32 37 -32 94 0 72 19 104 111 191 178 166 447 279
749 313 122 14 338 12 440 -4z m546 -2966 c57 -37 64 -45 64 -81 0 -18 -16
-44 -50 -81 -39 -42 -66 -61 -127 -86 -84 -35 -210 -115 -283 -178 -55 -49
-259 -213 -290 -233 -12 -8 -59 -43 -106 -77 -97 -71 -232 -158 -246 -158 -5
0 -12 -4 -16 -10 -4 -5 -13 -11 -20 -13 -7 -1 -32 -14 -55 -29 -23 -14 -48
-26 -54 -26 -7 0 -13 -4 -13 -9 0 -5 -4 -6 -10 -3 -5 3 -10 0 -11 -7 0 -10 -2
-10 -6 0 -4 12 33 51 50 52 12 0 320 226 422 309 253 206 424 374 538 531 38
52 78 103 89 113 30 25 68 21 124 -14z m-1269 -1021 c-3 -8 -6 -5 -6 6 -1 11
2 17 5 13 3 -3 4 -12 1 -19z m-20 -10 c-3 -8 -6 -5 -6 6 -1 11 2 17 5 13 3 -3
4 -12 1 -19z m3333 -877 c0 -5 9 -12 19 -16 10 -3 22 -13 25 -23 4 -9 15 -33
26 -52 10 -19 28 -64 39 -100 32 -105 160 -650 167 -711 8 -72 -13 -138 -68
-210 -74 -98 -91 -158 -67 -228 9 -24 16 -31 30 -28 11 3 20 -1 24 -12 11 -35
128 -140 192 -171 35 -17 125 -50 201 -72 75 -22 160 -46 187 -54 28 -8 66
-19 85 -23 33 -8 46 -12 88 -28 9 -3 26 -8 37 -9 51 -9 65 -16 65 -30 0 -13
-7 -15 -37 -9 -21 4 -40 10 -43 13 -3 4 -27 8 -55 10 -69 3 -75 4 -75 14 0 5
-5 6 -10 3 -6 -4 -41 0 -78 9 -74 17 -99 21 -217 41 -11 1 -56 8 -100 15 -239
35 -351 60 -415 92 -36 18 -71 32 -78 32 -10 -2 -9 3 3 16 15 17 12 20 -57 58
-40 22 -86 44 -103 48 -55 13 -86 35 -116 82 -73 115 -180 192 -248 179 -29
-6 -30 -4 -45 47 -43 147 -208 860 -213 919 l-6 69 39 -17 c78 -34 119 -43
162 -35 24 4 42 3 42 -2 0 -4 12 -5 28 -2 97 23 212 62 312 104 129 55 206 82
253 89 4 0 7 -3 7 -8z m-958 -362 c21 -25 42 -95 104 -349 42 -172 48 -208 49
-306 l0 -111 -65 -69 c-36 -38 -111 -130 -167 -204 -149 -198 -141 -192 -276
-203 -202 -17 -234 -15 -321 27 -51 25 -95 55 -131 93 -90 91 -106 57 270 578
178 248 342 471 364 496 67 78 133 96 173 48z m-649 -1387 c126 -53 155 -69
141 -77 -70 -42 -111 -74 -124 -100 -8 -16 -18 -31 -22 -33 -5 -2 -8 -363 -8
-803 0 -821 0 -815 -36 -791 -16 10 -21 68 -59 822 -19 377 -39 717 -44 755
-5 41 -29 125 -58 202 l-49 131 50 -20 c28 -11 122 -50 209 -86z m3462 -20
c118 -44 148 -52 188 -52 26 0 37 -4 37 -15 0 -13 21 -15 133 -15 167 0 207
-6 207 -31 0 -11 7 -19 16 -19 15 0 16 -12 11 -102 -3 -60 -16 -147 -31 -208
-14 -58 -44 -220 -66 -360 -53 -340 -50 -323 -70 -350 l-18 -23 -15 34 c-24
50 -47 197 -53 339 -5 122 -10 143 -42 205 -35 69 -142 171 -209 200 -17 7
-61 16 -97 20 -36 4 -66 9 -66 12 0 3 14 35 30 73 43 98 41 138 -16 246 -26
48 -40 85 -33 82 8 -4 50 -19 94 -36z m-773 -7 c0 -5 -5 -11 -11 -13 -6 -2
-11 4 -11 13 0 9 5 15 11 13 6 -2 11 -8 11 -13z m39 -8 c-1 -12 -15 -9 -19 4
-3 6 1 10 8 8 6 -3 11 -8 11 -12z m44 -6 c3 -5 1 -12 -5 -16 -5 -3 -10 1 -10
9 0 18 6 21 15 7z m82 -33 c-3 -8 -6 -5 -6 6 -1 11 2 17 5 13 3 -3 4 -12 1
-19z m40 -10 c-3 -8 -6 -5 -6 6 -1 11 2 17 5 13 3 -3 4 -12 1 -19z m-2694
-1895 c-3 -16 -11 -59 -18 -98 -8 -38 -17 -176 -21 -305 -4 -155 -10 -238 -18
-242 -32 -22 -738 2 -783 26 l-27 14 37 15 c20 9 74 26 118 38 123 33 220 107
292 221 32 51 46 131 37 200 -16 105 -23 99 83 71 55 -14 105 -22 123 -18 17
3 62 28 100 55 38 27 72 49 75 49 3 1 4 -11 2 -26z M4986 8091 c-4 -5 3 -7 14
-4 23 6 26 13 6 13 -8 0 -17 -4 -20 -9z M5127 8077 c-43 -66 -11 -105 182
-220 72 -43 160 -99 194 -126 156 -118 186 -140 242 -173 83 -50 118 -58 185
-42 30 7 60 13 66 14 22 0 318 -393 392 -522 31 -54 33 -55 134 -93 248 -92
527 -231 716 -356 149 -99 240 -175 387 -324 108 -109 139 -134 179 -148 190
-64 385 68 388 262 2 113 -32 171 -196 336 -308 309 -728 565 -1251 763 -242
91 -566 187 -806 237 -72 15 -72 16 -189 128 -185 177 -361 271 -534 284 -69
5 -73 5 -89 -20z m1376 -846 c56 -24 65 -38 33 -50 -48 -19 -116 16 -116 58 0
17 33 13 83 -8z m82 -40 c3 -5 1 -12 -5 -16 -5 -3 -10 1 -10 9 0 18 6 21 15 7z
m619 -267 c9 -3 16 -14 15 -23 0 -10 -2 -11 -6 -3 -2 6 -8 10 -13 7 -4 -3 -10
2 -14 10 -6 17 -4 18 18 9z m52 -23 c5 -6 45 -29 89 -52 89 -46 240 -147 325
-217 93 -77 210 -196 210 -214 0 -24 -14 -30 -46 -18 -33 13 -66 40 -175 145
-47 46 -131 118 -185 160 -54 43 -102 83 -106 89 -4 6 -8 8 -8 4 0 -5 -9 0
-19 10 -35 32 -71 60 -71 56 0 -3 -9 0 -20 6 -11 6 -20 17 -20 25 0 17 12 19
26 6z M2205 4683 c-162 -13 -304 -52 -432 -118 -284 -147 -488 -398 -568 -697
-105 -392 1 -794 285 -1078 280 -279 678 -388 1062 -290 452 116 788 511 826
975 29 351 -87 659 -339 900 -192 184 -403 279 -674 305 -60 5 -112 9 -115 8
-3 -1 -23 -3 -45 -5z m82 -134 c249 -103 366 -140 512 -163 58 -9 107 -18 109
-21 3 -2 -72 -82 -165 -176 l-170 -172 -67 79 c-171 199 -366 494 -327 494 5
0 54 -18 108 -41z m-308 -197 c88 -147 210 -313 324 -442 l75 -85 -200 -202
-201 -201 -88 78 c-127 112 -286 228 -432 316 -70 43 -130 81 -133 85 -2 4 27
30 65 57 37 28 93 79 122 113 30 35 104 115 165 179 61 63 133 149 159 190 37
57 50 71 57 60 5 -8 44 -75 87 -148z m1135 -234 c3 -18 7 -67 10 -108 7 -94
37 -202 110 -399 31 -84 55 -155 52 -158 -6 -7 -85 39 -196 115 -98 67 -150
107 -258 201 l-64 54 164 164 c89 89 166 163 170 163 4 0 9 -15 12 -32z m-464
-258 c13 -47 12 -75 -2 -88 -12 -9 -111 -18 -130 -12 -5 1 -14 3 -20 4 -14 1
-23 75 -14 111 5 19 12 21 81 21 l75 -1 10 -35z m250 -497 c58 -41 147 -100
198 -130 51 -31 95 -59 97 -64 3 -4 -25 -27 -62 -52 -38 -24 -111 -85 -163
-137 -52 -51 -126 -117 -165 -146 -38 -29 -88 -79 -110 -110 -22 -31 -48 -66
-58 -78 -17 -20 -18 -20 -30 -2 -182 281 -329 479 -411 556 l-27 24 202 202
202 202 111 -95 c61 -53 158 -129 216 -170z m-1424 111 c97 -69 303 -235 304
-245 0 -3 -66 -71 -147 -149 -163 -161 -155 -159 -167 -39 -10 107 -30 165
-119 349 -116 242 -115 231 -29 185 38 -21 110 -66 158 -101z m574 -214 c13
-48 12 -87 -2 -96 -17 -11 -119 -13 -145 -3 -26 10 -31 53 -13 105 10 28 12
29 80 29 l70 0 10 -35z m123 -467 c51 -67 107 -149 125 -182 l33 -60 -39 13
c-21 8 -92 39 -158 69 -150 69 -204 85 -320 93 -51 4 -98 11 -106 15 -9 6 25
47 127 149 l140 141 53 -58 c30 -32 95 -113 145 -180z"/>
</g>
</svg>
