<?xml version="1.0" standalone="no"?>
<!DOCTYPE svg PUBLIC "-//W3C//DTD SVG 20010904//EN"
 "http://www.w3.org/TR/2001/REC-SVG-20010904/DTD/svg10.dtd">
<svg version="1.0" xmlns="http://www.w3.org/2000/svg"
 width="2048.000000pt" height="2048.000000pt" viewBox="0 0 2048.000000 2048.000000"
 preserveAspectRatio="xMidYMid meet">
<metadata>
Created by potrace 1.13, written by Peter Selinger 2001-2015
</metadata>
<g transform="translate(0.000000,2048.000000) scale(0.192120,-0.192120)"
fill="#000000" stroke="none">
<path d="M3799 10170 c-270 -21 -455 -68 -649 -165 -267 -134 -479 -340 -556
-541 -38 -99 -39 -207 -2 -286 34 -72 97 -134 181 -177 l66 -33 6 -57 c30
-297 127 -517 317 -717 281 -296 724 -426 1108 -325 56 15 78 17 88 9 33 -28
102 -208 102 -268 0 -15 -13 -56 -30 -91 -48 -103 -70 -207 -70 -328 1 -58 5
-126 10 -151 l8 -45 -76 -84 c-149 -164 -432 -411 -654 -570 -205 -146 -492
-303 -718 -391 -155 -61 -359 -116 -537 -145 -226 -37 -297 -74 -350 -182 -87
-180 40 -399 239 -409 104 -5 352 39 578 103 564 160 1177 528 1657 993 l102
99 42 -77 c63 -115 144 -244 454 -717 353 -539 445 -683 445 -695 0 -8 -542
-764 -887 -1238 -76 -104 -103 -148 -98 -161 7 -22 80 -74 163 -115 28 -14 52
-30 52 -35 0 -4 -7 -23 -16 -41 -9 -18 -20 -48 -25 -68 -7 -31 78 -1792 95
-1974 5 -51 3 -57 -19 -72 -35 -23 -47 -50 -61 -140 -7 -43 -14 -80 -16 -82
-3 -2 -66 -15 -141 -29 -443 -82 -885 -242 -981 -355 -55 -66 -54 -155 1 -221
52 -61 12 -59 955 -59 851 0 862 0 904 21 34 16 49 32 70 75 26 54 27 59 21
177 -6 102 -52 507 -73 626 -3 19 -18 46 -33 60 l-27 26 -33 625 c-44 853 -62
1164 -68 1170 -5 6 -133 -60 -133 -69 0 -3 -12 -20 -27 -36 l-28 -29 -3 -235
c-6 -461 54 -1361 90 -1361 4 0 8 -6 8 -14 0 -8 19 -31 43 -50 l42 -37 -45
-40 c-69 -63 -114 -82 -172 -75 -42 6 -145 39 -157 52 -2 2 7 18 21 36 58 76
58 79 58 335 0 218 -51 1318 -66 1405 -3 21 -10 40 -15 44 -5 3 -9 13 -9 23 0
10 -31 81 -69 157 -39 76 -69 140 -67 141 1 2 70 -26 152 -61 268 -114 664
-270 669 -264 136 200 516 716 519 707 3 -8 28 -115 56 -239 29 -124 57 -231
62 -237 20 -25 82 -14 174 31 l90 43 17 -41 c25 -60 68 -108 123 -138 38 -20
250 -71 909 -217 473 -105 870 -194 883 -196 15 -4 22 -13 22 -28 0 -49 42
-79 161 -112 l56 -16 6 -182 c16 -476 118 -926 230 -1011 47 -36 104 -44 162
-22 47 18 91 62 100 99 19 78 253 1719 248 1738 -10 41 -54 91 -99 110 -56 25
-185 36 -525 45 -199 5 -282 3 -297 -5 -17 -9 -140 15 -694 138 -370 83 -692
153 -716 157 -40 6 -70 33 -58 52 2 4 56 48 120 97 63 50 115 95 116 101 0 9
-117 503 -245 1029 -16 66 -16 74 0 128 9 31 19 57 23 57 4 -1 36 -7 72 -15
98 -22 167 -20 180 5 52 98 -446 1134 -827 1719 -41 62 -72 115 -70 118 12 12
409 -162 579 -253 252 -136 413 -257 613 -459 108 -109 139 -134 179 -148 190
-64 385 68 388 262 2 113 -32 171 -196 336 -308 309 -727 565 -1251 763 -242
91 -566 187 -807 237 -72 15 -72 16 -179 120 -193 188 -373 283 -559 292 -119
7 -188 -7 -288 -57 -79 -40 -217 -153 -304 -248 l-46 -51 -7 62 c-10 83 -36
136 -96 192 -91 85 -144 96 -374 76 -161 -14 -341 18 -499 88 -84 38 -140 77
-223 154 -87 81 -135 146 -224 301 -53 91 -101 159 -168 234 -52 58 -86 102
-75 97 10 -4 159 -11 329 -15 327 -8 400 -17 533 -63 148 -51 262 -131 486
-335 288 -264 393 -329 594 -368 173 -33 457 -9 647 56 339 114 672 387 815
668 39 77 50 154 26 181 -16 18 -32 19 -179 18 -196 -1 -289 18 -443 92 -183
87 -336 203 -594 449 -203 193 -262 244 -368 316 -266 180 -575 254 -943 226z
m290 -301 c161 -15 286 -49 416 -114 139 -69 242 -147 436 -328 380 -356 562
-483 824 -576 89 -32 100 -39 103 -62 4 -35 -55 -95 -161 -163 -181 -118 -381
-191 -629 -230 -291 -47 -397 -1 -769 334 -357 322 -580 410 -1037 410 -224 0
-316 24 -397 105 -32 33 -35 41 -35 93 0 72 28 121 121 207 201 187 477 296
820 324 141 12 183 12 308 0z m929 -1957 c20 -11 71 -27 112 -36 151 -35 319
-135 541 -320 48 -40 73 -56 78 -48 10 17 168 -94 246 -173 65 -64 171 -198
223 -281 27 -43 32 -60 32 -112 0 -33 5 -64 10 -67 6 -3 10 -17 10 -31 0 -38
83 -205 219 -444 218 -381 465 -870 515 -1023 20 -60 20 -90 1 -176 l-16 -68
-127 -6 c-155 -6 -216 -24 -402 -114 -227 -110 -421 -163 -594 -163 -81 0
-176 13 -222 30 l-23 9 34 57 c42 69 45 117 13 201 -32 86 -66 141 -421 682
-298 454 -387 599 -387 631 0 17 22 55 61 106 119 155 152 259 109 343 -41 81
-96 131 -367 328 -32 24 -33 26 -33 101 0 54 8 103 26 162 14 47 30 107 35
133 12 71 47 123 144 215 95 91 115 97 183 64z m1212 -483 c85 -42 180 -84
210 -94 30 -10 64 -25 75 -35 11 -9 49 -27 85 -40 162 -58 328 -127 475 -200
147 -72 188 -99 360 -233 17 -13 91 -69 165 -125 74 -55 174 -138 223 -185 73
-70 87 -89 87 -115 0 -21 -6 -32 -19 -37 -34 -10 -84 19 -176 105 -150 140
-235 208 -355 289 -132 88 -185 117 -365 196 -248 109 -303 128 -385 129 -64
1 -79 -2 -106 -23 -18 -13 -40 -41 -50 -62 -9 -22 -20 -39 -24 -39 -3 0 -51
64 -105 143 -54 78 -138 194 -185 258 -48 63 -95 128 -105 143 l-18 27 29 -13
c16 -7 99 -47 184 -89z m-1493 -387 c103 -76 207 -152 231 -169 l43 -31 -87
-103 c-48 -57 -125 -143 -171 -190 l-85 -87 -35 39 c-74 82 -135 54 -540 -252
-306 -231 -457 -326 -723 -455 -179 -87 -410 -181 -410 -166 0 3 -5 1 -11 -5
-6 -6 -18 -9 -25 -6 -8 3 -14 1 -14 -3 0 -5 -12 -10 -27 -11 -15 0 -29 -6 -31
-12 -2 -6 -8 -9 -13 -6 -4 3 -33 -1 -64 -10 -30 -9 -59 -14 -65 -10 -5 3 -10
1 -10 -4 0 -6 -7 -11 -15 -11 -16 0 -21 29 -5 31 17 2 23 4 95 29 39 13 72 25
75 25 3 1 19 7 35 14 17 6 50 19 75 28 86 31 370 172 492 243 219 129 525 352
606 442 21 22 103 106 184 187 273 271 330 379 269 515 l-21 48 21 34 c11 19
24 34 29 34 4 0 93 -62 197 -138z m-2081 -1499 c-3 -3 -13 -2 -23 1 -17 7 -17
8 2 22 18 13 20 13 23 -1 2 -9 1 -19 -2 -22z m-46 2 c0 -8 -4 -15 -9 -15 -13
0 -22 16 -14 24 11 11 23 6 23 -9z m-50 -11 c0 -8 -4 -12 -10 -9 -5 3 -10 10
-10 16 0 5 5 9 10 9 6 0 10 -7 10 -16z m4190 -563 c0 -5 9 -12 19 -16 10 -3
22 -13 25 -23 4 -9 15 -33 26 -52 28 -52 51 -134 129 -460 107 -444 105 -458
-81 -635 -132 -125 -243 -193 -332 -202 -64 -7 -95 8 -126 59 -60 98 -175 178
-239 165 -29 -6 -30 -4 -45 47 -43 147 -208 860 -213 919 l-6 69 39 -17 c78
-34 119 -43 162 -35 24 4 42 3 42 -2 0 -4 12 -5 28 -2 97 23 212 62 312 104
129 55 206 82 253 89 4 0 7 -3 7 -8z m-958 -362 c21 -25 42 -95 104 -349 42
-172 48 -208 49 -306 l0 -111 -65 -69 c-36 -38 -98 -114 -139 -169 -108 -145
-159 -203 -193 -221 -26 -14 -46 -14 -145 -5 -125 13 -196 33 -318 91 -100 48
-145 88 -145 128 0 23 72 130 320 474 176 243 337 464 359 489 67 78 133 96
173 48z m1255 -969 c3 -63 35 -138 76 -178 38 -36 148 -75 263 -92 120 -18
296 -56 534 -115 420 -105 419 -105 532 -53 27 12 49 20 51 17 21 -25 79 -132
87 -159 11 -38 0 -90 -32 -155 -35 -69 -35 -69 -87 -7 -65 78 -66 78 -172 106
-123 33 -1210 273 -1269 281 -25 3 -52 8 -60 10 -8 2 -33 6 -55 9 -208 27
-285 38 -312 44 l-32 7 81 55 c45 30 151 106 237 168 85 61 155 112 156 112 0
0 1 -22 2 -50z m2069 -566 c32 -4 43 -10 48 -27 15 -55 2 -199 -44 -513 -63
-424 -69 -456 -90 -484 l-18 -23 -15 34 c-24 50 -47 197 -53 339 -3 69 -9 134
-14 145 -41 100 -89 165 -217 293 -21 21 -23 31 -23 138 l0 115 193 -6 c105
-3 211 -8 233 -11z m-3828 -2085 c7 -28 12 -126 12 -219 0 -144 -2 -169 -16
-174 -51 -19 -738 5 -781 28 l-27 14 36 15 c20 9 72 25 115 37 136 37 202 87
310 233 37 51 69 94 70 97 4 5 135 16 219 18 l51 2 11 -51z M2205 4683 c-162
-13 -304 -52 -432 -118 -284 -147 -488 -398 -568 -697 -105 -392 1 -794 285
-1078 280 -279 678 -388 1062 -290 452 116 788 511 826 975 29 351 -87 659
-339 900 -192 184 -403 279 -674 305 -60 5 -112 9 -115 8 -3 -1 -23 -3 -45 -5z
m82 -134 c249 -103 366 -140 512 -163 58 -9 107 -18 109 -21 3 -2 -72 -82
-165 -176 l-170 -172 -67 79 c-171 199 -366 494 -327 494 5 0 54 -18 108 -41z
m-308 -197 c88 -147 210 -313 324 -442 l75 -85 -200 -202 -201 -201 -88 78
c-127 112 -286 228 -432 316 -70 43 -130 81 -133 85 -2 4 27 30 65 57 37 28
93 79 122 113 30 35 104 115 165 179 61 63 133 149 159 190 37 57 50 71 57 60
5 -8 44 -75 87 -148z m1135 -234 c3 -18 7 -67 10 -108 7 -94 37 -202 110 -399
31 -84 55 -155 52 -158 -6 -7 -85 39 -196 115 -98 67 -150 107 -258 201 l-64
54 164 164 c89 89 166 163 170 163 4 0 9 -15 12 -32z m-464 -258 c13 -47 12
-75 -2 -88 -12 -9 -111 -18 -130 -12 -5 1 -14 3 -20 4 -14 1 -23 75 -14 111 5
19 12 21 81 21 l75 -1 10 -35z m250 -497 c58 -41 147 -100 198 -130 51 -31 95
-59 97 -64 3 -4 -25 -27 -62 -52 -38 -24 -111 -85 -163 -137 -52 -51 -126
-117 -165 -146 -38 -29 -88 -79 -110 -110 -22 -31 -48 -66 -58 -78 -17 -20
-18 -20 -30 -2 -182 281 -329 479 -411 556 l-27 24 202 202 202 202 111 -95
c61 -53 158 -129 216 -170z m-1424 111 c97 -69 303 -235 304 -245 0 -3 -66
-71 -147 -149 -163 -161 -155 -159 -167 -39 -10 107 -30 165 -119 349 -116
242 -115 231 -29 185 38 -21 110 -66 158 -101z m574 -214 c13 -48 12 -87 -2
-96 -17 -11 -119 -13 -145 -3 -26 10 -31 53 -13 105 10 28 12 29 80 29 l70 0
10 -35z m123 -467 c51 -67 107 -149 125 -182 l33 -60 -39 13 c-21 8 -92 39
-158 69 -150 69 -204 85 -320 93 -51 4 -98 11 -106 15 -9 6 25 47 127 149
l140 141 53 -58 c30 -32 95 -113 145 -180z"/>
</g>
</svg>
