<?xml version="1.0" standalone="no"?>
<!DOCTYPE svg PUBLIC "-//W3C//DTD SVG 20010904//EN"
 "http://www.w3.org/TR/2001/REC-SVG-20010904/DTD/svg10.dtd">
<svg version="1.0" xmlns="http://www.w3.org/2000/svg"
 width="2048.000000pt" height="2048.000000pt" viewBox="0 0 2048.000000 2048.000000"
 preserveAspectRatio="xMidYMid meet">
<metadata>
Created by potrace 1.13, written by Peter Selinger 2001-2015
</metadata>
<g transform="translate(0.000000,2048.000000) scale(0.192120,-0.192120)"
fill="#000000" stroke="none">
<path d="M3936 10274 c-250 -45 -600 -217 -871 -429 -209 -163 -318 -350 -317
-545 1 -134 60 -270 132 -302 17 -7 33 -22 35 -33 2 -11 11 -61 19 -112 32
-182 124 -459 211 -634 136 -272 290 -450 464 -537 72 -36 79 -37 180 -37 102
0 111 2 216 44 61 24 169 72 242 106 l131 63 25 -57 c27 -59 57 -165 57 -199
0 -11 -13 -48 -30 -83 -63 -136 -88 -324 -60 -469 l10 -52 -78 -86 c-149 -165
-431 -411 -654 -571 -205 -146 -492 -303 -718 -391 -155 -61 -359 -116 -537
-145 -226 -37 -297 -74 -350 -182 -87 -180 40 -399 239 -409 153 -8 541 78
823 183 141 53 423 187 562 269 290 170 566 378 857 648 53 49 98 87 99 85 2
-2 27 -47 57 -99 66 -118 183 -302 425 -670 264 -400 455 -698 455 -710 0 -8
-542 -764 -887 -1238 -76 -104 -103 -148 -98 -161 7 -22 80 -74 163 -115 28
-14 52 -29 52 -32 0 -3 -7 -18 -15 -34 -36 -70 -36 -95 19 -1115 l53 -990 -24
-18 c-34 -27 -45 -53 -59 -141 -7 -43 -14 -80 -16 -82 -3 -2 -66 -15 -141 -29
-443 -82 -885 -242 -981 -355 -55 -66 -54 -155 1 -221 52 -61 12 -59 955 -59
851 0 862 0 904 21 34 16 49 32 70 75 26 54 27 59 21 177 -6 102 -52 503 -73
626 -3 19 -18 46 -33 60 l-27 26 -43 820 c-24 451 -45 859 -48 908 -5 74 -4
87 9 87 9 0 73 -23 143 -50 70 -28 128 -50 130 -48 238 339 516 717 519 707 3
-8 28 -115 56 -239 29 -124 57 -231 62 -238 21 -25 84 -13 174 32 49 25 89 44
89 43 0 -1 13 -28 29 -60 30 -61 65 -96 125 -126 20 -10 423 -105 896 -210
473 -106 870 -195 883 -198 14 -3 22 -13 22 -27 0 -48 43 -78 161 -111 l56
-16 6 -182 c16 -476 118 -926 230 -1011 47 -36 104 -44 162 -22 47 18 91 62
100 99 19 78 253 1719 248 1738 -10 41 -54 91 -99 110 -56 25 -185 36 -519 44
-187 5 -279 4 -298 -4 -24 -9 -131 12 -710 140 -833 185 -754 165 -760 189 -4
15 19 38 114 112 65 51 118 98 119 104 0 9 -117 501 -245 1029 -16 66 -16 74
0 128 9 31 19 57 23 57 4 -1 36 -7 72 -15 98 -22 167 -20 180 5 36 68 -223
666 -525 1210 -106 191 -284 489 -331 553 l-34 47 -40 -20 c-22 -11 -44 -29
-50 -39 -15 -29 -12 -93 6 -137 28 -68 235 -485 294 -594 106 -194 235 -454
303 -607 76 -172 82 -218 48 -328 l-19 -60 -113 -6 c-169 -10 -239 -30 -438
-129 -259 -128 -524 -178 -725 -135 -80 17 -85 20 -68 43 103 145 88 180 -366
867 -102 154 -218 330 -258 391 -39 62 -88 130 -108 152 -45 49 -122 83 -204
90 -34 3 -61 8 -60 12 2 5 55 66 120 137 121 134 238 273 238 284 0 4 -53 45
-117 92 -65 46 -169 123 -232 170 l-114 85 -38 -48 c-47 -59 -63 -71 -49 -36
15 42 61 128 95 182 49 76 75 142 82 205 8 78 0 99 -53 151 l-45 45 36 49 c88
116 261 270 350 310 89 40 92 40 99 -4 3 -21 16 -54 28 -73 24 -35 28 -37 240
-101 80 -24 163 -72 258 -147 110 -88 184 -140 235 -162 l46 -21 69 21 70 21
37 -41 c89 -98 348 -451 408 -556 15 -26 35 -37 118 -68 247 -92 527 -231 715
-356 149 -99 240 -175 387 -324 108 -109 139 -134 179 -148 190 -64 385 68
388 262 2 113 -32 171 -196 336 -437 438 -1112 776 -1951 975 l-180 43 -106
103 c-229 221 -458 323 -663 293 -38 -5 -70 -8 -71 -7 -1 2 -16 24 -35 50
l-33 47 -46 -40 c-25 -23 -62 -49 -81 -59 -69 -34 -258 -100 -288 -100 -17 0
-57 16 -92 37 -89 53 -137 54 -265 8 -293 -105 -336 -117 -407 -112 -119 8
-229 89 -330 242 -72 110 -156 294 -209 458 -91 287 -96 295 -211 345 -32 13
-58 28 -58 32 0 17 81 129 121 166 77 73 178 122 291 143 l47 8 198 -298 c174
-263 201 -299 224 -299 26 0 47 18 67 56 6 12 13 69 15 127 3 92 7 111 31 151
32 55 82 91 154 112 95 28 178 0 256 -87 98 -109 113 -179 71 -334 -31 -111
-30 -159 5 -261 42 -123 129 -213 247 -256 71 -26 242 -30 348 -9 57 11 76 20
103 49 60 63 109 188 154 394 19 90 22 132 22 328 0 193 -3 239 -22 326 -56
262 -150 456 -295 610 -150 161 -397 296 -632 345 -109 23 -321 24 -439 3z
m439 -323 c198 -48 407 -173 501 -299 48 -65 101 -174 124 -257 18 -63 20
-101 20 -398 0 -304 -1 -332 -21 -389 -37 -111 -91 -158 -181 -158 -55 0 -125
35 -149 74 -17 28 -19 52 -19 224 0 213 -9 260 -72 370 -48 84 -161 192 -243
233 -63 31 -78 34 -155 34 -76 0 -92 -3 -150 -32 -36 -18 -98 -62 -139 -98
-101 -88 -115 -87 -190 13 -73 99 -180 198 -247 229 -48 22 -65 25 -118 20
-33 -3 -95 -18 -136 -32 -41 -15 -83 -28 -92 -30 -57 -12 33 93 152 179 250
180 532 305 755 335 98 14 265 5 360 -18z m2829 -3027 c9 -3 16 -14 15 -23 0
-10 -2 -11 -6 -3 -2 6 -8 10 -13 7 -4 -3 -10 2 -14 10 -6 17 -4 18 18 9z m52
-23 c5 -6 45 -29 89 -52 89 -46 240 -147 325 -217 93 -77 210 -196 210 -214 0
-24 -14 -30 -46 -18 -33 13 -66 40 -175 145 -47 46 -131 118 -185 160 -54 43
-102 83 -106 89 -4 6 -8 8 -8 4 0 -5 -9 0 -19 10 -35 32 -71 60 -71 56 0 -3
-9 0 -20 6 -11 6 -20 17 -20 25 0 17 12 19 26 6z m-2591 -48 c44 -21 55 -54
30 -97 -27 -45 -54 -68 -185 -156 -65 -44 -160 -114 -212 -157 -115 -96 -248
-203 -278 -223 -12 -8 -59 -43 -106 -77 -97 -71 -232 -158 -246 -158 -5 0 -12
-4 -16 -10 -4 -5 -13 -11 -20 -13 -7 -1 -32 -14 -55 -29 -23 -14 -48 -26 -54
-26 -7 0 -13 -4 -13 -9 0 -5 -4 -6 -10 -3 -5 3 -10 0 -11 -7 0 -10 -2 -10 -6
0 -4 12 33 51 50 52 13 0 326 231 441 325 231 188 389 343 518 506 37 48 74
90 81 92 24 10 57 7 92 -10z m-1228 -995 c-3 -8 -6 -5 -6 6 -1 11 2 17 5 13 3
-3 4 -12 1 -19z m-20 -10 c-3 -8 -6 -5 -6 6 -1 11 2 17 5 13 3 -3 4 -12 1 -19z
m3347 -863 c3 -8 11 -15 18 -15 13 -1 36 -44 70 -134 19 -50 102 -379 159
-632 41 -183 39 -212 -16 -320 -52 -103 -56 -140 -19 -183 14 -17 23 -35 20
-40 -15 -23 -304 -229 -372 -264 l-31 -16 -19 40 c-17 38 -66 96 -110 129 -11
8 -38 43 -59 78 -36 59 -114 145 -151 165 -9 5 -40 12 -68 16 l-51 6 -46 185
c-142 565 -199 840 -174 840 3 0 22 -7 43 -16 52 -22 183 -26 262 -8 75 17
119 32 248 86 113 48 251 97 273 98 9 0 19 -7 23 -15z m-956 -343 c20 -20 46
-107 113 -382 32 -127 42 -192 46 -281 l5 -116 -71 -79 c-73 -80 -122 -142
-250 -317 -80 -109 -107 -127 -191 -127 -80 0 -126 -32 -169 -117 -12 -24 -27
-43 -34 -43 -16 0 -169 60 -259 102 -53 24 -67 35 -63 47 18 44 15 80 -9 145
-14 37 -26 78 -26 90 0 24 126 212 314 469 72 98 190 260 263 359 73 100 145
195 160 211 52 55 136 74 171 39z m1240 -1230 c57 -28 82 -46 82 -59 0 -18
-30 -20 -102 -4 -52 11 -68 18 -72 35 -4 13 1 26 11 34 23 16 37 15 81 -6z
m107 -61 c3 -5 1 -12 -5 -16 -5 -3 -10 1 -10 9 0 18 6 21 15 7z m1587 -175
c31 -9 72 -16 92 -16 25 0 36 -4 36 -15 0 -12 18 -15 103 -15 152 0 207 -9
207 -31 0 -11 7 -19 15 -19 22 0 19 -144 -5 -255 -42 -187 -49 -225 -79 -430
-50 -327 -71 -425 -93 -425 -16 0 -37 48 -48 110 -22 127 -39 286 -40 368 0
45 -4 90 -9 100 -5 9 -17 34 -27 55 -21 43 -127 148 -175 172 -19 10 -57 16
-107 16 -43 0 -83 3 -89 7 -9 6 -1 32 27 92 55 118 54 149 -10 274 -27 54 -50
104 -50 112 0 10 30 -1 98 -35 53 -26 122 -56 154 -65z m-3631 -206 c3 -91 7
-468 8 -837 1 -653 0 -673 -18 -673 -25 0 -26 11 -56 582 -16 308 -25 591 -25
797 l0 320 43 -13 42 -12 6 -164z m269 -1704 c0 -13 -12 -64 -27 -112 -27 -85
-28 -99 -28 -291 0 -110 -3 -205 -7 -209 -5 -4 -8 -18 -8 -31 0 -16 -8 -27
-26 -33 -48 -19 -824 -5 -876 15 -51 20 -2 49 147 90 54 15 118 36 141 47 55
25 206 167 228 212 20 43 20 109 0 192 -9 36 -15 67 -12 69 3 3 40 -6 84 -19
162 -48 178 -46 299 43 38 28 73 51 77 51 5 0 8 -11 8 -24z M2205 4683 c-162
-13 -304 -52 -432 -118 -284 -147 -488 -398 -568 -697 -105 -392 1 -794 285
-1078 280 -279 678 -388 1062 -290 452 116 788 511 826 975 29 351 -87 659
-339 900 -192 184 -403 279 -674 305 -60 5 -112 9 -115 8 -3 -1 -23 -3 -45 -5z
m130 -153 c211 -86 312 -118 450 -141 66 -11 121 -22 124 -24 2 -2 -72 -81
-164 -174 -142 -144 -170 -169 -183 -158 -23 19 -142 163 -209 254 -100 134
-197 303 -175 303 5 0 75 -27 157 -60z m-376 -145 c85 -148 210 -322 331 -461
l88 -101 -201 -201 -202 -200 -90 80 c-130 115 -281 226 -428 314 -70 43 -130
81 -133 85 -2 4 27 30 65 57 37 28 93 79 122 113 30 35 104 115 165 179 61 63
132 148 158 188 25 39 48 72 50 72 2 0 36 -56 75 -125z m1162 -344 c9 -122 35
-219 111 -425 33 -87 57 -160 54 -163 -18 -18 -441 283 -503 359 -10 12 16 42
152 178 91 90 168 160 172 157 3 -4 10 -51 14 -106z m-477 -157 c15 -38 17
-101 4 -112 -17 -13 -137 -20 -156 -8 -12 7 -16 74 -6 112 5 18 13 20 80 20
45 -1 75 -5 78 -12z m213 -490 c54 -40 145 -101 201 -136 164 -100 157 -87 76
-140 -38 -24 -112 -86 -164 -137 -52 -52 -122 -114 -155 -139 -69 -51 -91 -75
-146 -154 -22 -32 -44 -58 -48 -58 -5 0 -40 50 -77 111 -83 133 -229 330 -312
419 l-61 65 201 202 201 201 93 -81 c51 -44 137 -113 191 -153z m-1381 80 c96
-68 303 -235 304 -245 0 -3 -66 -70 -146 -150 -164 -161 -156 -159 -168 -38
-10 107 -30 165 -119 349 -116 242 -115 231 -29 185 38 -21 110 -66 158 -101z
m569 -191 c2 -7 7 -35 11 -62 5 -42 4 -50 -12 -59 -22 -11 -133 -10 -151 1
-15 10 -17 49 -3 97 l10 35 70 0 c46 0 71 -4 75 -12z m57 -398 c82 -102 182
-245 212 -302 l16 -32 -38 13 c-21 8 -92 39 -158 69 -150 69 -203 85 -317 93
-51 4 -99 10 -107 15 -11 6 18 40 125 148 l139 141 24 -23 c13 -12 60 -67 104
-122z"/>
</g>
</svg>
