<?xml version="1.0" standalone="no"?>
<!DOCTYPE svg PUBLIC "-//W3C//DTD SVG 20010904//EN"
 "http://www.w3.org/TR/2001/REC-SVG-20010904/DTD/svg10.dtd">
<svg version="1.0" xmlns="http://www.w3.org/2000/svg"
 width="2048.000000pt" height="2048.000000pt" viewBox="0 0 2048.000000 2048.000000"
 preserveAspectRatio="xMidYMid meet">
<metadata>
Created by potrace 1.13, written by Peter Selinger 2001-2015
</metadata>
<g transform="translate(0.000000,2048.000000) scale(0.192120,-0.192120)"
fill="#000000" stroke="none">
<path d="M3936 10274 c-258 -47 -654 -247 -908 -458 -126 -105 -225 -247 -263
-379 -23 -81 -22 -208 3 -280 27 -74 74 -141 114 -160 32 -15 34 -18 45 -104
24 -173 107 -436 203 -640 135 -287 297 -480 479 -571 72 -36 79 -37 180 -37
104 0 109 1 226 49 66 26 175 74 242 106 l121 58 31 -67 c17 -37 31 -73 31
-79 0 -7 5 -12 10 -12 6 0 10 33 10 80 0 96 -22 150 -72 176 -45 23 -111 14
-254 -36 -208 -74 -243 -82 -339 -83 -77 -1 -97 2 -140 23 -60 30 -178 147
-247 245 -99 140 -207 384 -283 640 -36 120 -64 166 -125 205 -28 18 -47 36
-42 39 5 3 20 26 32 51 33 65 153 180 224 214 69 33 103 44 168 55 l47 8 198
-299 c190 -286 199 -298 228 -296 21 2 36 13 52 37 20 29 23 47 23 125 1 144
37 213 137 263 112 54 214 33 305 -65 99 -105 115 -182 73 -337 -31 -114 -30
-164 8 -269 45 -122 121 -199 246 -247 45 -18 78 -22 166 -23 152 -1 237 17
280 60 95 95 172 372 182 656 16 437 -114 814 -361 1045 -156 147 -394 267
-609 308 -99 19 -314 18 -421 -1z m469 -264 c106 -29 201 -71 305 -136 173
-109 276 -238 341 -432 l29 -86 0 -355 c0 -226 -4 -371 -11 -396 -43 -157
-133 -236 -255 -221 -94 11 -147 41 -197 111 -21 28 -22 45 -27 260 l-5 230
-38 79 c-47 98 -139 194 -224 234 -49 23 -71 27 -143 27 -120 0 -177 -28 -287
-140 -45 -47 -89 -85 -97 -85 -24 0 -84 58 -129 124 -95 142 -186 219 -272
232 -82 12 -215 -34 -335 -115 -69 -47 -80 -43 -80 31 0 51 5 69 31 109 60 94
194 201 412 331 183 108 364 181 536 213 113 21 342 14 446 -15z M5059 8096
c-97 -17 -200 -73 -306 -165 -201 -176 -322 -357 -373 -555 -21 -85 -27 -261
-11 -345 l9 -44 -162 -161 c-560 -559 -1166 -905 -1771 -1011 -223 -40 -239
-44 -296 -78 -189 -113 -175 -392 25 -494 67 -34 132 -37 293 -12 513 78 1009
287 1510 636 168 116 365 276 495 402 l113 108 -42 22 c-96 49 -121 36 -467
-232 -492 -382 -1032 -637 -1526 -721 -249 -42 -330 -28 -330 58 0 40 35 55
219 92 394 79 705 200 1040 404 216 131 491 333 501 369 3 9 47 55 99 101 163
146 288 277 315 332 28 56 33 108 15 169 -12 37 -11 38 56 123 38 47 71 86 75
86 4 0 99 -68 211 -150 112 -83 215 -159 229 -169 23 -17 24 -19 8 -42 -24
-37 -206 -244 -292 -333 -42 -44 -76 -81 -76 -84 0 -20 218 -367 485 -772 264
-400 455 -698 455 -710 0 -8 -542 -764 -887 -1238 -72 -98 -102 -148 -99 -160
19 -59 314 -204 810 -396 137 -53 250 -95 251 -94 165 239 516 716 519 707 3
-8 28 -115 56 -239 29 -124 57 -231 62 -237 47 -58 301 77 668 353 218 164
359 278 360 290 0 9 -115 494 -245 1029 -16 66 -16 74 0 128 9 31 19 57 23 57
4 -1 36 -7 72 -15 98 -22 167 -20 180 5 44 82 -296 824 -668 1460 -173 296
-324 525 -506 770 -367 493 -635 717 -913 759 -85 13 -97 13 -184 -3z m206
-281 c133 -35 233 -96 389 -239 47 -42 87 -76 90 -74 8 5 57 -46 150 -157 157
-188 285 -371 357 -510 34 -64 72 -131 291 -510 157 -272 364 -685 462 -919
21 -51 20 -137 -3 -211 l-19 -60 -113 -6 c-169 -10 -239 -30 -438 -129 -259
-128 -524 -178 -725 -135 -80 17 -85 20 -68 43 32 46 52 95 52 130 0 91 -49
177 -471 817 -258 393 -326 509 -315 542 4 11 37 59 74 106 94 120 153 232
159 306 5 48 1 67 -21 116 -39 85 -198 239 -341 332 -148 96 -148 96 -143 148
16 136 207 358 356 411 51 18 205 17 277 -1z m1499 -2830 c3 -8 11 -15 18 -15
13 -1 36 -44 70 -134 11 -28 54 -190 95 -361 91 -374 101 -467 60 -532 -42
-66 -237 -213 -414 -310 -119 -65 -148 -63 -199 19 -25 39 -109 123 -141 142
-9 5 -39 11 -67 15 l-51 6 -46 185 c-142 565 -199 840 -174 840 3 0 22 -7 43
-16 52 -22 183 -26 262 -8 75 17 119 32 248 86 113 48 251 97 273 98 9 0 19
-7 23 -15z m-956 -343 c20 -20 46 -107 113 -382 32 -127 42 -192 46 -281 l5
-116 -72 -79 c-39 -43 -124 -148 -187 -233 -64 -84 -130 -162 -147 -173 -24
-15 -42 -18 -78 -13 -106 13 -437 137 -517 194 -62 44 -63 42 304 550 184 256
347 478 362 494 52 55 136 74 171 39z M5960 7675 c0 -7 295 -184 385 -232 55
-28 145 -68 200 -88 54 -19 102 -39 105 -44 3 -5 64 -32 135 -61 271 -109 606
-284 670 -350 53 -55 68 -68 190 -162 135 -104 299 -258 322 -302 20 -38 12
-115 -13 -133 -26 -19 -89 -16 -133 6 -21 11 -91 70 -157 132 -196 185 -360
302 -572 409 -126 64 -325 140 -382 147 -60 7 -114 -16 -135 -57 -9 -18 -15
-33 -13 -35 2 -2 32 -15 68 -30 453 -189 787 -407 1021 -666 90 -99 145 -131
236 -137 162 -11 303 115 305 275 2 116 -31 171 -196 336 -391 393 -953 697
-1664 901 -170 49 -372 98 -372 91z M2205 4683 c-162 -13 -304 -52 -432 -118
-284 -147 -488 -398 -568 -697 -105 -392 1 -794 285 -1078 280 -279 678 -388
1062 -290 452 116 788 511 826 975 29 351 -87 659 -339 900 -192 184 -403 279
-674 305 -60 5 -112 9 -115 8 -3 -1 -23 -3 -45 -5z m130 -153 c211 -86 312
-118 450 -141 66 -11 121 -22 124 -24 2 -2 -72 -81 -164 -174 -142 -144 -170
-169 -183 -158 -23 19 -142 163 -209 254 -100 134 -197 303 -175 303 5 0 75
-27 157 -60z m-376 -145 c85 -148 210 -322 331 -461 l88 -101 -201 -201 -202
-200 -90 80 c-130 115 -281 226 -428 314 -70 43 -130 81 -133 85 -2 4 27 30
65 57 37 28 93 79 122 113 30 35 104 115 165 179 61 63 132 148 158 188 25 39
48 72 50 72 2 0 36 -56 75 -125z m1162 -344 c9 -122 35 -219 111 -425 33 -87
57 -160 54 -163 -18 -18 -441 283 -503 359 -10 12 16 42 152 178 91 90 168
160 172 157 3 -4 10 -51 14 -106z m-477 -157 c15 -38 17 -101 4 -112 -17 -13
-137 -20 -156 -8 -12 7 -16 74 -6 112 5 18 13 20 80 20 45 -1 75 -5 78 -12z
m213 -490 c54 -40 145 -101 201 -136 164 -100 157 -87 76 -140 -38 -24 -112
-86 -164 -137 -52 -52 -122 -114 -155 -139 -69 -51 -91 -75 -146 -154 -22 -32
-44 -58 -48 -58 -5 0 -40 50 -77 111 -83 133 -229 330 -312 419 l-61 65 201
202 201 201 93 -81 c51 -44 137 -113 191 -153z m-1381 80 c96 -68 303 -235
304 -245 0 -3 -66 -70 -146 -150 -164 -161 -156 -159 -168 -38 -10 107 -30
165 -119 349 -116 242 -115 231 -29 185 38 -21 110 -66 158 -101z m569 -191
c2 -7 7 -35 11 -62 5 -42 4 -50 -12 -59 -22 -11 -133 -10 -151 1 -15 10 -17
49 -3 97 l10 35 70 0 c46 0 71 -4 75 -12z m57 -398 c82 -102 182 -245 212
-302 l16 -32 -38 13 c-21 8 -92 39 -158 69 -150 69 -203 85 -317 93 -51 4 -99
10 -107 15 -11 6 18 40 125 148 l139 141 24 -23 c13 -12 60 -67 104 -122z
M7140 3620 c0 -39 22 -82 55 -108 40 -31 124 -55 445 -127 162 -36 365 -82
451 -103 140 -34 160 -37 200 -27 58 15 193 86 182 96 -4 4 -78 23 -163 43
-149 34 -1070 238 -1137 251 -32 6 -33 5 -33 -25z M8525 3359 c-29 -18 -35
-29 -35 -73 0 -29 11 -59 42 -110 78 -132 78 -166 1 -319 -80 -159 -60 -202
118 -252 l56 -16 6 -182 c16 -476 118 -926 230 -1011 47 -36 104 -44 162 -22
47 18 91 62 100 99 19 78 253 1719 248 1738 -10 41 -54 91 -99 110 -57 26
-189 37 -529 44 -210 4 -285 3 -300 -6z m529 -273 c77 -3 111 -8 117 -17 21
-33 7 -202 -46 -566 -56 -388 -69 -458 -88 -505 -14 -34 -22 -35 -41 -5 -25
38 -65 314 -66 455 0 45 -4 90 -9 100 -5 9 -17 35 -27 57 -9 22 -37 64 -63 93
-89 103 -95 128 -66 267 8 38 15 84 15 101 l0 32 83 -4 c45 -2 131 -6 191 -8z
M4754 3278 c-5 -12 -7 -66 -6 -118 4 -160 91 -1823 98 -1860 l6 -35 49 55 c28
30 52 65 55 77 4 13 10 23 15 23 29 0 -34 1497 -67 1605 -17 56 -82 189 -118
242 -24 34 -24 35 -32 11z M6586 3241 c20 -34 60 -68 109 -93 22 -12 1148
-267 1733 -394 12 -2 22 -2 22 1 0 12 -84 130 -111 156 -41 40 -33 38 -806
209 -512 113 -642 136 -832 146 l-134 7 19 -32z M5298 3010 c-27 -18 -48 -36
-48 -40 0 -5 -8 -16 -17 -26 -28 -27 -29 -396 -3 -889 22 -426 24 -453 45
-528 16 -55 29 -72 109 -147 l59 -55 -7 125 c-59 1141 -78 1494 -84 1538 l-7
53 -47 -31z M5375 1298 c-11 -6 -48 -33 -82 -60 -113 -89 -140 -92 -306 -38
-102 34 -133 37 -165 14 -32 -22 -44 -50 -58 -138 -7 -43 -14 -80 -16 -82 -3
-2 -66 -15 -141 -29 -443 -82 -885 -242 -981 -355 -55 -66 -54 -155 1 -221 52
-61 12 -59 955 -59 851 0 862 0 904 21 34 16 49 32 70 75 26 54 27 59 21 177
-4 67 -22 244 -41 392 -34 258 -36 271 -61 293 -28 24 -68 28 -100 10z m-118
-311 c4 -8 15 -16 25 -20 21 -8 39 -87 45 -208 4 -66 2 -98 -6 -103 -6 -4 -11
-18 -11 -32 0 -17 -8 -27 -26 -34 -48 -19 -824 -5 -876 15 -50 20 -2 49 144
89 52 14 111 33 131 41 30 12 210 152 227 176 3 4 29 21 58 38 47 28 62 31
135 32 45 1 93 5 107 9 36 12 38 11 47 -3z"/>
</g>
</svg>
