<?xml version="1.0" standalone="no"?>
<!DOCTYPE svg PUBLIC "-//W3C//DTD SVG 20010904//EN"
 "http://www.w3.org/TR/2001/REC-SVG-20010904/DTD/svg10.dtd">
<svg version="1.0" xmlns="http://www.w3.org/2000/svg"
 width="2048.000000pt" height="2048.000000pt" viewBox="0 0 2048.000000 2048.000000"
 preserveAspectRatio="xMidYMid meet">
<metadata>
Created by potrace 1.13, written by Peter Selinger 2001-2015
</metadata>
<g transform="translate(0.000000,2048.000000) scale(0.192120,-0.192120)"
fill="#000000" stroke="none">
<path d="M3936 10274 c-250 -45 -600 -217 -871 -429 -209 -163 -318 -350 -317
-545 1 -134 60 -270 132 -302 17 -7 33 -22 35 -33 2 -11 11 -61 19 -112 32
-182 124 -459 211 -634 136 -271 291 -450 464 -537 72 -36 79 -37 180 -37 102
0 111 2 216 44 61 24 169 72 242 106 l131 63 26 -57 c27 -61 56 -162 56 -197
0 -12 -13 -50 -30 -85 -48 -103 -70 -207 -70 -328 1 -58 5 -126 10 -151 l8
-45 -76 -84 c-149 -164 -432 -411 -654 -570 -205 -146 -492 -303 -718 -391
-155 -61 -359 -116 -537 -145 -226 -37 -297 -74 -350 -182 -87 -180 40 -399
239 -409 104 -5 352 39 578 103 562 159 1159 517 1653 989 54 52 102 94 105
94 4 0 25 -33 46 -73 57 -107 139 -236 451 -712 353 -539 445 -683 445 -695 0
-8 -542 -764 -887 -1238 -76 -104 -103 -148 -98 -161 7 -22 80 -74 163 -115
55 -28 61 -39 37 -70 -37 -48 -36 -90 19 -1111 l53 -990 -24 -18 c-34 -27 -45
-53 -59 -141 -7 -43 -14 -80 -16 -82 -3 -2 -66 -15 -141 -29 -443 -82 -885
-242 -981 -355 -55 -66 -54 -155 1 -221 52 -61 12 -59 955 -59 851 0 862 0
904 21 34 16 49 32 70 75 26 54 27 59 21 177 -6 102 -52 503 -73 626 -3 19
-18 46 -33 60 l-27 26 -43 810 c-23 446 -45 854 -48 907 -5 80 -3 98 8 98 8 0
72 -23 143 -50 71 -28 130 -49 131 -48 149 218 516 716 519 707 3 -8 28 -115
56 -239 29 -124 57 -231 62 -238 20 -24 82 -13 174 32 l90 43 17 -41 c25 -60
68 -108 123 -138 38 -20 251 -71 909 -218 473 -105 870 -194 883 -197 14 -3
22 -13 22 -27 0 -48 43 -78 161 -111 l56 -16 6 -182 c16 -476 118 -926 230
-1011 47 -36 104 -44 162 -22 47 18 91 62 100 99 19 78 253 1719 248 1738 -10
41 -54 91 -99 110 -56 25 -185 36 -525 45 -199 5 -282 3 -297 -5 -17 -9 -140
15 -694 138 -370 83 -692 153 -716 157 -40 6 -70 33 -58 52 2 4 56 48 120 97
63 50 115 95 116 101 0 9 -117 503 -245 1029 -16 66 -16 74 0 128 9 31 19 57
23 57 4 -1 36 -7 72 -15 98 -22 167 -20 180 5 52 98 -446 1133 -827 1719 -41
62 -72 115 -70 117 12 12 408 -160 579 -252 252 -136 413 -257 613 -459 108
-109 139 -134 179 -148 190 -64 385 68 388 262 2 113 -32 171 -196 336 -308
309 -727 565 -1251 763 -242 91 -566 187 -807 237 -71 15 -72 16 -178 119
-228 222 -457 325 -662 296 -60 -9 -73 -8 -80 4 -5 8 -20 29 -35 46 l-26 31
-20 -30 c-10 -17 -23 -47 -27 -66 -7 -29 -5 -35 9 -35 9 -1 26 -21 39 -51 35
-73 71 -96 193 -119 188 -36 279 -77 396 -178 61 -52 200 -145 268 -179 48
-24 132 -49 198 -58 40 -6 54 -15 95 -60 35 -37 58 -54 84 -59 116 -22 525
-164 743 -259 328 -142 672 -363 888 -570 73 -70 87 -89 87 -115 0 -38 -25
-49 -72 -29 -18 8 -80 58 -138 111 -58 53 -134 121 -170 150 -71 59 -246 186
-255 186 -3 0 -11 5 -18 10 -23 21 -132 89 -141 90 -5 0 -30 14 -56 30 -62 40
-267 131 -370 166 -108 35 -187 31 -258 -15 -27 -17 -54 -31 -60 -31 -14 0
-16 -12 -3 -25 20 -21 15 -49 -13 -79 -67 -72 -61 -150 24 -306 16 -30 68
-133 116 -229 47 -96 114 -226 148 -290 111 -204 240 -462 309 -618 76 -172
82 -218 48 -328 l-19 -60 -113 -6 c-169 -10 -239 -30 -438 -129 -259 -128
-524 -178 -725 -135 -80 17 -85 20 -68 43 104 147 90 178 -420 949 -106 161
-219 332 -250 381 -75 116 -131 178 -201 222 l-57 37 20 26 21 27 -28 11 c-82
33 -116 39 -157 28 -82 -22 -163 -77 -361 -244 -340 -287 -644 -478 -1020
-637 -106 -45 -225 -87 -225 -80 0 3 -5 1 -11 -5 -6 -6 -18 -9 -25 -6 -8 3
-14 1 -14 -3 0 -5 -12 -10 -27 -11 -15 0 -29 -6 -31 -12 -2 -6 -8 -9 -13 -6
-4 3 -33 -1 -64 -10 -30 -9 -59 -14 -65 -10 -5 3 -10 1 -10 -4 0 -6 -7 -11
-15 -11 -16 0 -21 29 -5 31 17 2 23 4 95 29 39 13 72 25 75 25 3 1 19 7 35 14
17 6 50 19 75 28 86 31 370 172 492 243 132 78 340 220 453 309 218 172 456
398 543 516 61 83 125 207 147 288 10 35 22 57 31 57 22 0 17 9 -25 49 -45 43
-47 22 17 261 49 187 52 240 14 319 l-30 62 27 31 c19 23 22 33 12 36 -7 2
-47 36 -89 74 -175 159 -190 161 -479 56 -178 -64 -206 -71 -273 -72 -61 0
-85 5 -130 27 -171 82 -328 324 -446 687 -94 289 -95 292 -199 345 -30 15 -55
31 -55 35 0 17 81 128 121 166 77 73 178 122 291 143 l47 8 198 -298 c177
-267 201 -299 225 -299 28 0 65 36 73 74 3 12 6 64 8 116 2 84 6 102 30 143
33 56 82 92 155 113 94 28 175 1 254 -84 99 -105 115 -182 73 -337 -31 -114
-30 -164 8 -269 45 -122 121 -199 246 -247 45 -18 78 -22 166 -23 156 -1 241
17 283 62 60 63 109 188 154 394 19 90 22 132 22 328 0 193 -3 239 -22 326
-56 262 -150 456 -295 610 -150 161 -397 296 -632 345 -109 23 -321 24 -439 3z
m396 -298 c149 -29 301 -97 423 -188 126 -95 211 -224 260 -394 24 -84 25 -95
25 -391 0 -338 -6 -386 -62 -479 -40 -67 -77 -88 -153 -89 -103 0 -169 48
-186 136 -4 24 -8 123 -9 220 0 181 -1 185 -48 289 -43 95 -157 211 -251 257
-49 25 -68 28 -151 28 -83 0 -102 -3 -151 -27 -30 -15 -90 -59 -132 -98 -106
-96 -123 -94 -208 22 -67 93 -160 182 -223 213 -83 42 -199 29 -326 -35 -75
-38 -90 -38 -90 -3 0 64 264 272 497 391 128 65 267 116 384 141 114 24 296
27 401 7z m-1676 -4433 c-3 -3 -13 -2 -23 1 -17 7 -17 8 2 22 18 13 20 13 23
-1 2 -9 1 -19 -2 -22z m-46 2 c0 -8 -4 -15 -9 -15 -13 0 -22 16 -14 24 11 11
23 6 23 -9z m-50 -11 c0 -8 -4 -12 -10 -9 -5 3 -10 10 -10 16 0 5 5 9 10 9 6
0 10 -7 10 -16z m4204 -549 c3 -8 11 -15 18 -15 13 -1 36 -44 70 -134 24 -63
164 -640 180 -741 16 -105 4 -138 -104 -281 -49 -65 -93 -126 -96 -134 -10
-28 -66 -73 -127 -101 -51 -25 -73 -29 -141 -29 -95 0 -112 9 -168 94 -35 52
-110 131 -143 150 -8 4 -39 11 -67 15 l-51 6 -46 185 c-142 565 -199 840 -174
840 3 0 22 -7 43 -16 52 -22 183 -26 262 -8 75 17 119 32 248 86 113 48 251
97 273 98 9 0 19 -7 23 -15z m-956 -343 c20 -20 46 -107 113 -382 32 -127 42
-192 46 -281 l5 -116 -72 -79 c-39 -43 -110 -131 -158 -194 -124 -165 -162
-211 -188 -220 -13 -5 -87 -10 -166 -11 -137 -2 -146 -1 -226 29 -84 31 -198
104 -227 144 -37 54 -35 58 326 559 188 261 356 489 373 508 55 59 138 79 174
43z m1219 -1072 c48 -114 89 -138 358 -210 66 -17 143 -38 170 -46 126 -35
495 -130 640 -165 158 -38 359 -68 371 -56 3 3 -1 20 -10 38 -18 36 -19 34 12
43 13 5 22 3 22 -3 0 -7 22 -11 54 -11 30 0 56 -5 58 -10 2 -6 70 -12 168 -16
272 -8 310 -12 310 -35 0 -11 7 -19 16 -19 15 0 16 -12 11 -102 -3 -59 -16
-148 -30 -208 -15 -58 -42 -211 -61 -340 -55 -366 -75 -460 -98 -460 -16 0
-37 48 -48 110 -22 127 -39 286 -40 368 0 45 -4 90 -9 100 -5 9 -17 35 -27 57
-31 66 -168 195 -247 233 -37 17 -73 32 -79 32 -7 0 -9 15 -5 41 4 32 2 41
-11 45 -10 3 -45 19 -79 35 -34 16 -70 32 -80 34 -118 29 -315 74 -338 78 -17
3 -39 8 -50 10 -24 6 -106 21 -120 23 -5 0 -17 4 -25 7 -8 4 -33 8 -55 11 -22
3 -121 23 -220 44 -272 61 -477 99 -684 127 -119 16 -167 26 -239 48 l-43 13
188 133 c181 127 188 131 196 109 5 -13 16 -39 24 -58z m-1952 -320 c119 -49
223 -94 232 -99 14 -7 10 -12 -24 -29 -22 -12 -60 -39 -84 -62 l-44 -41 -3
-257 c-2 -190 5 -408 28 -840 17 -321 30 -619 28 -661 l-3 -78 35 18 c19 11
38 19 42 19 5 0 8 -28 8 -62 0 -35 9 -130 20 -213 22 -164 26 -280 10 -290 -5
-3 -10 -17 -10 -31 0 -17 -8 -27 -26 -34 -48 -19 -824 -5 -876 15 -50 20 -2
49 144 89 131 36 156 47 229 108 153 127 181 166 206 294 17 86 20 91 43 89
14 -1 35 -5 48 -9 18 -6 22 -4 22 15 0 12 -7 30 -15 39 -20 23 -35 134 -35
277 0 132 -65 1427 -76 1508 -6 45 -71 221 -108 294 -9 17 -14 31 -11 31 3 0
102 -40 220 -90z M2205 4683 c-162 -13 -304 -52 -432 -118 -284 -147 -488
-398 -568 -697 -105 -392 1 -794 285 -1078 280 -279 678 -388 1062 -290 452
116 788 511 826 975 29 351 -87 659 -339 900 -192 184 -403 279 -674 305 -60
5 -112 9 -115 8 -3 -1 -23 -3 -45 -5z m130 -153 c211 -86 312 -118 450 -141
66 -11 121 -22 124 -24 2 -2 -72 -81 -164 -174 -142 -144 -170 -169 -183 -158
-23 19 -142 163 -209 254 -100 134 -197 303 -175 303 5 0 75 -27 157 -60z
m-376 -145 c85 -148 210 -322 331 -461 l88 -101 -201 -201 -202 -200 -90 80
c-130 115 -281 226 -428 314 -70 43 -130 81 -133 85 -2 4 27 30 65 57 37 28
93 79 122 113 30 35 104 115 165 179 61 63 132 148 158 188 25 39 48 72 50 72
2 0 36 -56 75 -125z m1162 -344 c9 -122 35 -219 111 -425 33 -87 57 -160 54
-163 -18 -18 -441 283 -503 359 -10 12 16 42 152 178 91 90 168 160 172 157 3
-4 10 -51 14 -106z m-477 -157 c15 -38 17 -101 4 -112 -17 -13 -137 -20 -156
-8 -12 7 -16 74 -6 112 5 18 13 20 80 20 45 -1 75 -5 78 -12z m213 -490 c54
-40 145 -101 201 -136 164 -100 157 -87 76 -140 -38 -24 -112 -86 -164 -137
-52 -52 -122 -114 -155 -139 -69 -51 -91 -75 -146 -154 -22 -32 -44 -58 -48
-58 -5 0 -40 50 -77 111 -83 133 -229 330 -312 419 l-61 65 201 202 201 201
93 -81 c51 -44 137 -113 191 -153z m-1381 80 c96 -68 303 -235 304 -245 0 -3
-66 -70 -146 -150 -164 -161 -156 -159 -168 -38 -10 107 -30 165 -119 349
-116 242 -115 231 -29 185 38 -21 110 -66 158 -101z m569 -191 c2 -7 7 -35 11
-62 5 -42 4 -50 -12 -59 -22 -11 -133 -10 -151 1 -15 10 -17 49 -3 97 l10 35
70 0 c46 0 71 -4 75 -12z m57 -398 c82 -102 182 -245 212 -302 l16 -32 -38 13
c-21 8 -92 39 -158 69 -150 69 -203 85 -317 93 -51 4 -99 10 -107 15 -11 6 18
40 125 148 l139 141 24 -23 c13 -12 60 -67 104 -122z"/>
</g>
</svg>
