<?xml version="1.0" standalone="no"?>
<!DOCTYPE svg PUBLIC "-//W3C//DTD SVG 20010904//EN"
 "http://www.w3.org/TR/2001/REC-SVG-20010904/DTD/svg10.dtd">
<svg version="1.0" xmlns="http://www.w3.org/2000/svg"
 width="2048.000000pt" height="2048.000000pt" viewBox="0 0 2048.000000 2048.000000"
 preserveAspectRatio="xMidYMid meet">
<metadata>
Created by potrace 1.13, written by Peter Selinger 2001-2015
</metadata>
<g transform="translate(0.000000,2048.000000) scale(0.192120,-0.192120)"
fill="#000000" stroke="none">
<path d="M3936 10274 c-250 -45 -600 -217 -871 -429 -149 -116 -243 -240 -291
-381 -59 -178 -13 -394 101 -464 56 -35 83 -24 118 46 25 48 116 144 172 179
56 36 147 71 217 84 l47 8 198 -298 c174 -262 201 -299 224 -299 29 0 65 34
73 70 4 14 8 68 10 122 3 83 7 103 30 143 32 55 97 99 166 114 94 20 170 -8
244 -90 95 -106 114 -187 75 -310 -72 -229 34 -463 247 -541 77 -28 276 -31
369 -5 89 24 136 87 189 254 59 189 70 270 70 513 0 193 -3 239 -22 326 -56
262 -150 456 -295 610 -150 161 -397 296 -632 345 -109 23 -321 24 -439 3z
m421 -308 c179 -39 346 -128 469 -250 68 -67 89 -97 127 -176 76 -159 78 -173
75 -563 l-3 -342 -29 -58 c-31 -65 -72 -97 -122 -97 -51 0 -129 28 -155 56
-24 25 -24 30 -29 242 -6 216 -6 217 -37 282 -64 136 -195 275 -313 333 -59
29 -73 32 -160 32 -116 0 -167 -21 -280 -113 -103 -85 -111 -84 -200 22 -80
95 -162 167 -234 203 -41 21 -60 24 -125 22 -42 -2 -100 -9 -128 -15 -43 -10
-53 -10 -53 1 0 35 184 170 364 265 162 87 343 150 489 170 85 12 257 5 344
-14z M2947 8793 c66 -351 270 -769 474 -972 134 -134 250 -187 393 -179 90 5
209 47 442 158 l122 58 26 -52 25 -51 1 43 c0 23 -6 58 -14 77 -33 77 -94 76
-336 -6 -177 -59 -189 -62 -285 -62 -110 -1 -136 7 -218 66 -94 67 -224 240
-310 412 -44 88 -99 224 -152 378 -15 42 -37 92 -49 110 -19 28 -109 97 -127
97 -4 0 0 -34 8 -77z M5077 8099 c-133 -19 -243 -86 -398 -239 -154 -153 -236
-280 -289 -445 -26 -79 -38 -279 -23 -375 l8 -55 62 75 c34 41 70 86 81 100
l20 25 55 -40 c182 -130 407 -299 407 -306 0 -11 -140 -175 -269 -316 l-112
-122 57 -98 c79 -135 209 -338 429 -673 264 -400 455 -698 455 -710 0 -8 -542
-764 -887 -1238 -76 -104 -103 -148 -98 -161 12 -38 194 -140 439 -246 127
-55 618 -247 621 -243 172 249 516 716 519 707 3 -8 28 -115 56 -239 29 -124
57 -231 62 -237 47 -58 301 77 668 353 218 164 359 278 360 290 0 9 -115 494
-245 1029 -16 66 -16 74 0 128 9 31 19 57 23 57 4 -1 36 -7 72 -15 98 -22 167
-20 180 5 20 38 -43 224 -179 523 -269 595 -656 1257 -1010 1727 -361 481
-624 697 -898 739 -79 12 -83 12 -166 0z m197 -286 c116 -29 215 -90 371 -228
127 -113 169 -156 260 -270 149 -185 257 -345 443 -659 285 -481 472 -831 605
-1133 76 -172 82 -218 48 -328 l-19 -60 -113 -6 c-169 -10 -239 -30 -438 -129
-259 -128 -524 -178 -725 -135 -80 17 -85 20 -68 43 102 144 87 180 -345 836
-241 365 -336 515 -362 569 -28 58 -23 86 24 138 82 91 173 247 195 336 12 47
12 56 -9 109 -45 118 -170 246 -375 382 l-128 86 4 52 c6 66 47 133 148 238
168 176 276 211 484 159z m1490 -2828 c3 -8 11 -15 18 -15 13 -1 36 -44 70
-134 11 -28 54 -190 95 -361 88 -363 100 -458 63 -521 -36 -64 -278 -239 -462
-334 -81 -42 -108 -37 -153 30 -28 43 -110 125 -142 144 -9 5 -39 11 -67 15
l-51 6 -46 185 c-142 565 -199 840 -174 840 3 0 22 -7 43 -16 52 -22 183 -26
262 -8 75 17 119 32 248 86 113 48 251 97 273 98 9 0 19 -7 23 -15z m-956
-343 c20 -20 46 -107 113 -382 32 -127 42 -192 46 -281 l5 -116 -78 -87 c-44
-48 -128 -154 -189 -234 -65 -87 -124 -154 -144 -166 l-35 -20 -84 22 c-47 12
-149 47 -226 78 -246 98 -286 125 -272 180 7 25 638 907 690 963 55 59 138 79
174 43z M6155 7585 c122 -79 284 -160 425 -211 58 -20 107 -41 110 -46 3 -4
73 -35 155 -68 296 -121 606 -293 690 -384 22 -24 83 -76 135 -116 111 -86
202 -169 283 -257 l57 -63 0 -68 c-1 -92 -28 -122 -110 -122 -62 0 -112 31
-239 152 -254 242 -532 421 -804 517 -118 41 -168 41 -210 0 l-32 -32 50 -23
c499 -234 687 -355 931 -601 78 -78 160 -152 183 -164 58 -30 154 -36 219 -15
66 22 134 84 168 151 23 48 26 64 22 132 -5 100 -20 131 -123 246 -389 436
-1077 806 -1880 1011 -54 15 -106 26 -115 26 -8 0 30 -30 85 -65z M4204 6812
c-579 -567 -1197 -912 -1804 -1007 -142 -22 -187 -33 -243 -63 -89 -47 -140
-135 -140 -242 0 -153 116 -278 265 -286 118 -6 447 59 673 132 488 159 979
446 1405 821 166 146 189 171 170 183 -8 5 -34 12 -56 16 -68 10 -132 -28
-369 -217 -390 -311 -878 -565 -1310 -684 -184 -50 -357 -78 -465 -74 -89 4
-92 5 -121 37 -26 29 -30 40 -27 80 3 43 5 47 48 69 25 12 106 34 180 48 205
39 263 53 410 103 157 52 355 138 513 224 197 106 597 383 597 413 0 7 64 70
143 140 275 246 330 325 301 433 -4 12 -9 22 -13 22 -3 -1 -74 -67 -157 -148z
M2205 4683 c-162 -13 -304 -52 -432 -118 -284 -147 -488 -398 -568 -697 -105
-392 1 -794 285 -1078 280 -279 678 -388 1062 -290 452 116 788 511 826 975
29 351 -87 659 -339 900 -192 184 -403 279 -674 305 -60 5 -112 9 -115 8 -3
-1 -23 -3 -45 -5z m130 -153 c211 -86 312 -118 450 -141 66 -11 121 -22 124
-24 2 -2 -72 -81 -164 -174 -142 -144 -170 -169 -183 -158 -23 19 -142 163
-209 254 -100 134 -197 303 -175 303 5 0 75 -27 157 -60z m-376 -145 c85 -148
210 -322 331 -461 l88 -101 -201 -201 -202 -200 -90 80 c-130 115 -281 226
-428 314 -70 43 -130 81 -133 85 -2 4 27 30 65 57 37 28 93 79 122 113 30 35
104 115 165 179 61 63 132 148 158 188 25 39 48 72 50 72 2 0 36 -56 75 -125z
m1162 -344 c9 -122 35 -219 111 -425 33 -87 57 -160 54 -163 -18 -18 -441 283
-503 359 -10 12 16 42 152 178 91 90 168 160 172 157 3 -4 10 -51 14 -106z
m-477 -157 c15 -38 17 -101 4 -112 -17 -13 -137 -20 -156 -8 -12 7 -16 74 -6
112 5 18 13 20 80 20 45 -1 75 -5 78 -12z m213 -490 c54 -40 145 -101 201
-136 164 -100 157 -87 76 -140 -38 -24 -112 -86 -164 -137 -52 -52 -122 -114
-155 -139 -69 -51 -91 -75 -146 -154 -22 -32 -44 -58 -48 -58 -5 0 -40 50 -77
111 -83 133 -229 330 -312 419 l-61 65 201 202 201 201 93 -81 c51 -44 137
-113 191 -153z m-1381 80 c96 -68 303 -235 304 -245 0 -3 -66 -70 -146 -150
-164 -161 -156 -159 -168 -38 -10 107 -30 165 -119 349 -116 242 -115 231 -29
185 38 -21 110 -66 158 -101z m569 -191 c2 -7 7 -35 11 -62 5 -42 4 -50 -12
-59 -22 -11 -133 -10 -151 1 -15 10 -17 49 -3 97 l10 35 70 0 c46 0 71 -4 75
-12z m57 -398 c82 -102 182 -245 212 -302 l16 -32 -38 13 c-21 8 -92 39 -158
69 -150 69 -203 85 -317 93 -51 4 -99 10 -107 15 -11 6 18 40 125 148 l139
141 24 -23 c13 -12 60 -67 104 -122z M7190 3611 c0 -33 31 -76 69 -96 38 -19
130 -41 581 -140 301 -66 404 -85 435 -80 47 8 155 54 155 66 0 5 -2 9 -5 9
-3 0 -268 58 -588 129 -727 161 -647 147 -647 112z M8518 3350 c-44 -34 -39
-85 19 -183 37 -64 48 -92 51 -136 3 -51 -1 -66 -47 -159 -87 -177 -71 -217
110 -267 l56 -16 6 -182 c16 -476 118 -926 230 -1011 47 -36 104 -44 162 -22
47 18 91 62 100 99 19 78 253 1719 248 1738 -10 41 -54 91 -99 110 -57 26
-187 36 -529 45 -278 6 -280 6 -307 -16z m515 -263 c97 -3 131 -8 138 -18 21
-33 7 -201 -46 -566 -56 -388 -69 -458 -88 -505 -14 -34 -22 -35 -41 -5 -25
38 -65 314 -66 455 0 45 -4 90 -9 100 -5 9 -19 37 -30 62 -11 25 -45 74 -75
110 -52 60 -56 67 -56 115 1 27 5 70 11 95 5 25 15 72 21 106 l11 60 51 -3
c28 -1 109 -4 179 -6z M4750 3164 c0 -116 90 -1837 97 -1844 7 -7 50 47 74 92
17 34 19 59 19 295 0 222 -38 1078 -55 1258 -5 44 -20 88 -56 162 -70 143 -79
147 -79 37z M6600 3224 c27 -33 64 -62 100 -79 19 -8 397 -96 840 -194 845
-188 860 -191 860 -184 0 10 -60 90 -87 115 -47 44 -40 43 -768 203 -511 112
-669 140 -845 151 -111 7 -114 6 -100 -12z M5304 2962 c-59 -52 -64 -74 -64
-292 0 -174 30 -856 45 -1000 10 -103 36 -169 88 -227 27 -29 53 -53 58 -53 5
0 7 36 4 83 -3 45 -21 390 -40 767 -35 685 -40 750 -53 750 -4 -1 -21 -13 -38
-28z M5375 1298 c-11 -6 -48 -33 -82 -60 -113 -89 -140 -92 -306 -38 -102 34
-133 37 -165 14 -32 -22 -44 -50 -58 -138 -7 -43 -14 -80 -16 -82 -3 -2 -66
-15 -141 -29 -443 -82 -885 -242 -981 -355 -55 -66 -54 -155 1 -221 52 -61 12
-59 955 -59 851 0 862 0 904 21 34 16 49 32 70 75 26 54 27 59 21 177 -4 67
-22 244 -41 392 -34 258 -36 271 -61 293 -28 24 -68 28 -100 10z m-111 -333
c3 -8 11 -14 17 -13 20 5 40 -79 46 -188 4 -70 2 -103 -6 -108 -6 -4 -11 -18
-11 -32 0 -17 -8 -27 -26 -34 -48 -19 -824 -5 -876 15 -51 20 -2 49 147 90
133 36 164 53 275 146 127 108 176 132 255 124 33 -3 76 -1 95 4 53 14 77 13
84 -4z"/>
</g>
</svg>
