<?xml version="1.0" standalone="no"?>
<!DOCTYPE svg PUBLIC "-//W3C//DTD SVG 20010904//EN"
 "http://www.w3.org/TR/2001/REC-SVG-20010904/DTD/svg10.dtd">
<svg version="1.0" xmlns="http://www.w3.org/2000/svg"
 width="2048.000000pt" height="2048.000000pt" viewBox="0 0 2048.000000 2048.000000"
 preserveAspectRatio="xMidYMid meet">
<metadata>
Created by potrace 1.13, written by Peter Selinger 2001-2015
</metadata>
<g transform="translate(0.000000,2048.000000) scale(0.192120,-0.192120)"
fill="#000000" stroke="none">
<path d="M3799 10170 c-266 -20 -454 -68 -644 -162 -252 -126 -446 -305 -537
-493 -115 -241 -46 -425 202 -538 84 -39 155 -47 394 -47 335 0 477 -23 641
-105 114 -56 206 -126 385 -290 242 -221 345 -293 485 -340 193 -65 499 -56
749 21 127 40 309 135 426 223 233 175 422 419 437 564 8 79 2 82 -191 83
-196 0 -290 20 -444 94 -184 88 -322 193 -592 449 -204 193 -262 244 -368 315
-265 180 -574 254 -943 226z m401 -266 c184 -28 356 -102 513 -220 45 -34 168
-141 272 -238 285 -265 452 -393 628 -483 77 -38 262 -103 296 -103 32 0 61
-18 61 -37 0 -22 -42 -78 -99 -132 -93 -88 -246 -178 -463 -270 -53 -22 -142
-63 -197 -91 -156 -78 -197 -77 -416 13 -176 71 -240 117 -535 377 -199 176
-331 260 -491 314 -129 43 -237 57 -501 65 l-246 7 -74 37 c-128 64 -158 102
-158 198 0 61 3 72 40 127 97 146 304 287 542 371 230 80 557 106 828 65z
M2850 8898 c0 -31 6 -90 14 -130 83 -434 418 -786 852 -897 169 -43 395 -44
554 -2 58 16 77 17 89 8 16 -14 80 -144 82 -167 3 -36 17 51 18 110 1 111 -44
178 -136 198 -25 6 -81 6 -144 0 -142 -13 -337 -4 -425 20 -98 27 -271 111
-346 169 -141 107 -237 229 -333 423 -63 127 -141 245 -199 299 l-26 24 0 -55z
M5088 8098 c-143 -17 -246 -76 -408 -238 -155 -153 -237 -279 -290 -445 -27
-82 -38 -286 -22 -375 l10 -54 -161 -161 c-565 -560 -1167 -904 -1772 -1010
-223 -40 -239 -44 -296 -78 -189 -113 -175 -392 25 -494 67 -34 132 -37 293
-12 513 78 1009 287 1510 636 163 113 359 272 487 394 l107 102 -30 19 c-52
34 -93 34 -163 1 -35 -17 -79 -43 -98 -59 -19 -17 -45 -36 -56 -44 -12 -8 -79
-59 -148 -113 -490 -381 -1032 -637 -1526 -721 -249 -42 -330 -28 -330 58 0
40 35 55 219 92 394 79 705 200 1040 404 216 131 491 333 501 369 3 9 46 53
95 98 154 137 273 261 305 316 33 57 38 111 19 177 -11 37 -11 38 62 129 44
55 78 90 86 86 8 -2 98 -67 201 -143 103 -76 202 -148 220 -161 17 -12 32 -26
32 -31 0 -12 -136 -172 -269 -317 l-112 -122 57 -98 c79 -135 209 -338 429
-673 264 -400 455 -698 455 -710 0 -8 -542 -764 -887 -1238 -76 -104 -103
-148 -98 -161 12 -40 224 -156 474 -261 154 -65 583 -232 586 -228 140 205
516 716 519 707 3 -8 28 -115 56 -239 28 -123 56 -230 62 -237 47 -58 300 76
668 353 218 164 359 278 360 290 0 9 -115 494 -245 1029 -16 66 -16 74 0 128
9 31 19 57 23 57 4 -1 36 -7 72 -15 98 -22 167 -20 180 5 20 38 -43 224 -179
523 -268 593 -657 1258 -1009 1726 -429 570 -724 777 -1054 739z m182 -283
c52 -16 187 -89 245 -133 33 -25 98 -79 143 -121 46 -42 87 -76 92 -76 12 0
163 -179 254 -300 117 -157 170 -238 276 -425 51 -91 128 -223 170 -295 168
-283 347 -621 463 -875 115 -253 119 -268 92 -389 l-16 -68 -127 -6 c-155 -6
-216 -24 -402 -114 -227 -110 -421 -163 -594 -163 -81 0 -176 13 -222 30 l-23
9 34 57 c42 69 45 116 13 201 -26 72 -69 142 -281 468 -272 416 -421 647 -445
691 -32 60 -29 94 14 146 102 121 193 285 201 362 14 124 -175 337 -444 501
l-63 38 0 50 c0 77 46 154 159 267 108 107 174 146 266 158 59 7 148 2 195
-13z m1480 -2844 c0 -5 9 -12 19 -16 10 -3 22 -13 25 -23 4 -9 15 -33 26 -52
27 -51 50 -131 125 -440 71 -292 88 -415 65 -470 -7 -17 -40 -56 -74 -86 -116
-105 -406 -284 -460 -284 -16 0 -39 18 -72 57 -99 117 -166 160 -230 150 -32
-5 -33 -5 -48 48 -43 146 -208 859 -213 918 l-6 69 39 -17 c78 -34 119 -43
162 -35 24 4 42 3 42 -2 0 -4 12 -5 28 -2 97 23 212 62 312 104 129 55 206 82
253 89 4 0 7 -3 7 -8z m-958 -362 c21 -25 42 -95 104 -349 42 -172 48 -208 49
-306 l0 -111 -65 -69 c-36 -38 -111 -131 -168 -206 -124 -165 -149 -188 -205
-188 -104 0 -480 144 -539 207 -19 20 -20 28 -12 51 12 31 609 862 666 927 65
74 130 91 170 44z M6020 7647 c175 -122 414 -252 555 -302 44 -16 85 -34 90
-40 6 -7 64 -33 130 -59 315 -126 705 -341 705 -389 0 -7 10 -18 23 -26 114
-71 414 -338 444 -395 20 -38 12 -115 -13 -133 -26 -19 -89 -16 -133 6 -21 11
-91 70 -157 132 -256 241 -490 391 -789 504 -159 60 -229 60 -277 1 -28 -33
-22 -45 35 -71 230 -103 315 -144 402 -192 241 -134 465 -306 616 -474 90 -99
145 -131 236 -137 162 -11 303 115 305 275 2 116 -31 171 -196 336 -391 393
-955 698 -1665 901 -102 30 -213 59 -246 66 -33 6 -69 14 -80 17 -12 3 -6 -5
15 -20z M2205 4683 c-162 -13 -304 -52 -432 -118 -284 -147 -488 -398 -568
-697 -105 -392 1 -794 285 -1078 280 -279 678 -388 1062 -290 452 116 788 511
826 975 29 351 -87 659 -339 900 -192 184 -403 279 -674 305 -60 5 -112 9
-115 8 -3 -1 -23 -3 -45 -5z m82 -134 c249 -103 366 -140 512 -163 58 -9 107
-18 109 -21 3 -2 -72 -82 -165 -176 l-170 -172 -67 79 c-171 199 -366 494
-327 494 5 0 54 -18 108 -41z m-308 -197 c88 -147 210 -313 324 -442 l75 -85
-200 -202 -201 -201 -88 78 c-127 112 -286 228 -432 316 -70 43 -130 81 -133
85 -2 4 27 30 65 57 37 28 93 79 122 113 30 35 104 115 165 179 61 63 133 149
159 190 37 57 50 71 57 60 5 -8 44 -75 87 -148z m1135 -234 c3 -18 7 -67 10
-108 7 -94 37 -202 110 -399 31 -84 55 -155 52 -158 -6 -7 -85 39 -196 115
-98 67 -150 107 -258 201 l-64 54 164 164 c89 89 166 163 170 163 4 0 9 -15
12 -32z m-464 -258 c13 -47 12 -75 -2 -88 -12 -9 -111 -18 -130 -12 -5 1 -14
3 -20 4 -14 1 -23 75 -14 111 5 19 12 21 81 21 l75 -1 10 -35z m250 -497 c58
-41 147 -100 198 -130 51 -31 95 -59 97 -64 3 -4 -25 -27 -62 -52 -38 -24
-111 -85 -163 -137 -52 -51 -126 -117 -165 -146 -38 -29 -88 -79 -110 -110
-22 -31 -48 -66 -58 -78 -17 -20 -18 -20 -30 -2 -182 281 -329 479 -411 556
l-27 24 202 202 202 202 111 -95 c61 -53 158 -129 216 -170z m-1424 111 c97
-69 303 -235 304 -245 0 -3 -66 -71 -147 -149 -163 -161 -155 -159 -167 -39
-10 107 -30 165 -119 349 -116 242 -115 231 -29 185 38 -21 110 -66 158 -101z
m574 -214 c13 -48 12 -87 -2 -96 -17 -11 -119 -13 -145 -3 -26 10 -31 53 -13
105 10 28 12 29 80 29 l70 0 10 -35z m123 -467 c51 -67 107 -149 125 -182 l33
-60 -39 13 c-21 8 -92 39 -158 69 -150 69 -204 85 -320 93 -51 4 -98 11 -106
15 -9 6 25 47 127 149 l140 141 53 -58 c30 -32 95 -113 145 -180z M7150 3633
c0 -39 21 -91 47 -115 39 -37 109 -58 403 -123 140 -30 341 -77 446 -102 220
-53 223 -53 355 20 74 40 74 41 44 49 -22 6 -1062 238 -1272 283 -17 4 -23 1
-23 -12z M8525 3359 c-52 -32 -49 -89 12 -192 37 -64 48 -92 51 -136 3 -51 -1
-66 -47 -159 -87 -177 -71 -217 110 -267 l56 -16 6 -182 c16 -476 118 -926
230 -1011 47 -36 104 -44 162 -22 47 18 91 62 100 99 19 78 253 1719 248 1738
-10 41 -54 91 -99 110 -57 26 -189 37 -529 44 -210 4 -285 3 -300 -6z m591
-285 c32 -4 43 -10 48 -27 15 -55 2 -199 -44 -513 -63 -424 -69 -456 -90 -484
l-18 -23 -15 34 c-24 50 -47 197 -53 339 -3 69 -9 134 -14 145 -33 80 -56 118
-104 173 -68 77 -75 105 -51 215 10 45 20 98 22 118 l5 35 136 -3 c76 -2 156
-6 178 -9z M4754 3269 c-4 -8 -7 -57 -6 -109 3 -157 92 -1823 98 -1854 l6 -29
42 48 c85 100 86 104 86 314 0 180 -53 1271 -65 1340 -4 18 -10 41 -15 50 -4
9 -22 45 -39 81 -49 104 -97 175 -107 159z M6580 3251 c0 -17 68 -79 108 -100
33 -17 1684 -391 1725 -391 23 0 22 3 -16 63 -71 110 -104 129 -317 175 -52
12 -270 60 -485 107 -214 47 -430 95 -480 106 -175 38 -535 65 -535 40z M5293
2991 c-81 -58 -83 -67 -83 -333 0 -213 31 -916 46 -1030 14 -113 41 -160 134
-238 l52 -44 -6 120 c-4 65 -22 418 -41 784 -36 693 -41 770 -54 770 -4 0 -26
-13 -48 -29z M5375 1298 c-11 -6 -48 -33 -82 -60 -113 -89 -140 -92 -306 -38
-102 34 -133 37 -165 14 -32 -22 -44 -50 -58 -138 -7 -43 -14 -80 -16 -82 -3
-2 -66 -15 -141 -29 -443 -82 -885 -242 -981 -355 -55 -66 -54 -155 1 -221 52
-61 12 -59 955 -59 851 0 862 0 904 21 34 16 49 32 70 75 26 54 27 59 21 177
-4 67 -22 244 -41 392 -34 258 -36 271 -61 293 -28 24 -68 28 -100 10z m-85
-367 c6 -11 10 -87 10 -174 0 -132 -2 -156 -16 -161 -51 -19 -738 5 -781 28
l-27 14 36 15 c20 9 72 25 115 37 102 28 152 58 243 145 41 40 85 77 96 83 12
6 68 11 125 11 57 0 118 4 134 9 44 15 53 14 65 -7z"/>
</g>
</svg>
