<?xml version="1.0" standalone="no"?>
<!DOCTYPE svg PUBLIC "-//W3C//DTD SVG 20010904//EN"
 "http://www.w3.org/TR/2001/REC-SVG-20010904/DTD/svg10.dtd">
<svg version="1.0" xmlns="http://www.w3.org/2000/svg"
 width="2048.000000pt" height="2048.000000pt" viewBox="0 0 2048.000000 2048.000000"
 preserveAspectRatio="xMidYMid meet">
<metadata>
Created by potrace 1.13, written by Peter Selinger 2001-2015
</metadata>
<g transform="translate(0.000000,2048.000000) scale(0.192120,-0.192120)"
fill="#000000" stroke="none">
<path d="M3936 10274 c-250 -45 -600 -217 -871 -429 -212 -165 -317 -348 -317
-549 1 -131 61 -266 132 -298 17 -7 33 -22 35 -33 2 -11 11 -61 19 -112 22
-124 77 -313 133 -453 148 -371 330 -612 542 -718 72 -36 79 -37 180 -37 104
0 109 1 226 49 66 26 175 74 241 106 l122 57 17 -36 c10 -20 30 -72 45 -116
l28 -80 7 58 c4 32 5 92 3 132 -4 61 -10 81 -32 110 -65 84 -117 84 -361 -5
-154 -57 -179 -63 -267 -68 -93 -4 -100 -3 -154 24 -90 45 -211 176 -296 319
-84 141 -143 283 -214 517 -54 176 -76 217 -139 253 -25 15 -45 30 -45 34 0 5
17 34 38 67 87 133 218 218 374 243 l47 8 198 -299 c190 -286 199 -298 228
-296 21 2 36 13 52 37 20 29 23 47 23 125 1 144 37 213 137 263 138 67 282 9
368 -149 40 -73 42 -134 10 -253 -31 -114 -30 -154 8 -264 59 -170 187 -263
380 -277 98 -7 256 17 296 45 96 70 187 371 198 662 17 447 -111 823 -361
1057 -157 146 -394 266 -610 307 -98 19 -313 18 -420 -1z m411 -260 c113 -23
233 -70 331 -129 201 -121 315 -265 377 -481 24 -84 25 -95 25 -400 0 -195 -4
-333 -11 -366 -25 -114 -81 -204 -152 -239 -76 -39 -208 -15 -273 49 -55 56
-58 70 -62 307 l-3 220 -44 91 c-51 105 -123 180 -215 223 -46 22 -69 26 -145
26 -83 0 -95 -3 -152 -34 -56 -30 -108 -78 -185 -169 -24 -29 -29 -31 -55 -21
-33 12 -54 36 -125 139 -95 138 -201 220 -285 220 -82 0 -190 -39 -298 -108
-76 -48 -85 -45 -85 31 0 55 4 69 35 114 96 143 484 394 740 479 192 64 417
82 582 48z M5054 8095 c-97 -17 -191 -69 -300 -163 -271 -237 -395 -471 -394
-746 1 -61 5 -131 9 -155 l9 -44 -162 -161 c-557 -557 -1166 -905 -1771 -1011
-223 -40 -239 -44 -296 -78 -66 -39 -113 -106 -129 -182 -35 -167 93 -332 262
-341 104 -5 368 42 596 108 540 154 1164 528 1614 967 88 84 106 107 96 118
-20 25 -66 43 -106 43 -56 0 -118 -39 -372 -237 -384 -300 -743 -500 -1145
-640 -238 -82 -587 -150 -669 -129 -36 9 -61 48 -47 75 13 23 40 32 196 61
383 73 710 202 1062 418 208 127 491 338 500 372 3 10 69 76 147 148 272 248
335 353 281 472 l-18 40 58 75 c31 41 60 75 65 75 4 0 99 -68 211 -150 112
-83 215 -159 229 -169 23 -17 24 -19 8 -42 -26 -39 -209 -248 -292 -332 -42
-43 -76 -81 -76 -84 0 -21 213 -360 485 -773 264 -400 455 -698 455 -710 0 -8
-542 -764 -887 -1238 -72 -98 -102 -148 -99 -160 19 -59 314 -204 810 -396
137 -53 250 -95 251 -94 165 239 516 716 519 707 3 -8 28 -115 56 -239 29
-124 57 -231 62 -237 47 -58 301 77 668 353 218 164 359 278 360 290 0 9 -115
494 -245 1029 -16 66 -16 74 0 128 9 31 19 57 23 57 4 -1 36 -7 72 -15 98 -22
167 -20 180 5 44 82 -296 824 -668 1460 -399 681 -817 1212 -1100 1398 -107
70 -217 115 -319 131 -86 13 -97 13 -189 -4z m191 -276 c73 -13 188 -65 258
-116 28 -21 94 -75 146 -120 51 -46 97 -81 100 -78 14 8 166 -158 288 -316 59
-77 193 -277 193 -289 0 -23 102 -213 312 -575 157 -273 365 -685 462 -919 21
-51 20 -137 -3 -211 l-19 -60 -113 -6 c-169 -10 -239 -30 -438 -129 -259 -128
-524 -178 -725 -135 -80 17 -85 20 -68 43 32 46 52 95 52 130 0 91 -48 174
-467 812 -287 438 -314 483 -320 536 -5 34 -1 46 24 75 115 133 202 295 203
375 0 12 -15 52 -34 90 -55 109 -187 231 -394 362 l-74 47 4 60 c8 118 106
273 238 373 87 66 201 81 375 51z m1519 -2834 c3 -8 11 -15 18 -15 13 -1 36
-44 70 -134 11 -28 54 -190 95 -361 89 -365 101 -467 63 -531 -43 -75 -247
-231 -418 -321 -45 -23 -93 -43 -105 -43 -31 0 -63 25 -93 72 -25 39 -109 123
-141 142 -9 5 -39 11 -67 15 l-51 6 -46 185 c-142 565 -199 840 -174 840 3 0
22 -7 43 -16 52 -22 183 -26 262 -8 75 17 119 32 248 86 113 48 251 97 273 98
9 0 19 -7 23 -15z m-956 -343 c20 -20 46 -107 113 -382 32 -127 42 -192 46
-281 l5 -116 -72 -79 c-39 -43 -124 -148 -187 -233 -116 -153 -156 -191 -203
-191 -121 0 -527 155 -567 217 -13 19 -14 31 -6 52 11 30 651 920 697 970 55
59 138 79 174 43z M5905 7681 c18 -17 382 -229 462 -269 43 -21 114 -51 158
-67 44 -15 85 -33 90 -39 6 -7 71 -36 145 -65 346 -137 682 -321 712 -388 1
-5 37 -33 78 -63 120 -88 304 -245 359 -307 46 -51 51 -62 51 -103 0 -55 -13
-70 -59 -70 -57 0 -110 34 -240 155 -249 234 -484 383 -778 496 -199 77 -270
81 -325 20 -28 -31 -38 -71 -18 -71 22 0 379 -164 485 -222 248 -137 472 -308
626 -479 90 -99 145 -131 236 -137 162 -11 303 115 305 275 2 116 -32 174
-197 338 -333 332 -766 589 -1345 798 -254 92 -779 231 -745 198z M2205 4683
c-162 -13 -304 -52 -432 -118 -284 -147 -488 -398 -568 -697 -105 -392 1 -794
285 -1078 280 -279 678 -388 1062 -290 452 116 788 511 826 975 29 351 -87
659 -339 900 -192 184 -403 279 -674 305 -60 5 -112 9 -115 8 -3 -1 -23 -3
-45 -5z m130 -153 c211 -86 312 -118 450 -141 66 -11 121 -22 124 -24 2 -2
-72 -81 -164 -174 -142 -144 -170 -169 -183 -158 -23 19 -142 163 -209 254
-100 134 -197 303 -175 303 5 0 75 -27 157 -60z m-376 -145 c85 -148 210 -322
331 -461 l88 -101 -201 -201 -202 -200 -90 80 c-130 115 -281 226 -428 314
-70 43 -130 81 -133 85 -2 4 27 30 65 57 37 28 93 79 122 113 30 35 104 115
165 179 61 63 132 148 158 188 25 39 48 72 50 72 2 0 36 -56 75 -125z m1162
-344 c9 -122 35 -219 111 -425 33 -87 57 -160 54 -163 -18 -18 -441 283 -503
359 -10 12 16 42 152 178 91 90 168 160 172 157 3 -4 10 -51 14 -106z m-477
-157 c15 -38 17 -101 4 -112 -17 -13 -137 -20 -156 -8 -12 7 -16 74 -6 112 5
18 13 20 80 20 45 -1 75 -5 78 -12z m213 -490 c54 -40 145 -101 201 -136 164
-100 157 -87 76 -140 -38 -24 -112 -86 -164 -137 -52 -52 -122 -114 -155 -139
-69 -51 -91 -75 -146 -154 -22 -32 -44 -58 -48 -58 -5 0 -40 50 -77 111 -83
133 -229 330 -312 419 l-61 65 201 202 201 201 93 -81 c51 -44 137 -113 191
-153z m-1381 80 c96 -68 303 -235 304 -245 0 -3 -66 -70 -146 -150 -164 -161
-156 -159 -168 -38 -10 107 -30 165 -119 349 -116 242 -115 231 -29 185 38
-21 110 -66 158 -101z m569 -191 c2 -7 7 -35 11 -62 5 -42 4 -50 -12 -59 -22
-11 -133 -10 -151 1 -15 10 -17 49 -3 97 l10 35 70 0 c46 0 71 -4 75 -12z m57
-398 c82 -102 182 -245 212 -302 l16 -32 -38 13 c-21 8 -92 39 -158 69 -150
69 -203 85 -317 93 -51 4 -99 10 -107 15 -11 6 18 40 125 148 l139 141 24 -23
c13 -12 60 -67 104 -122z M7110 3627 c0 -46 37 -114 76 -138 35 -21 171 -57
569 -148 121 -28 280 -66 354 -85 160 -41 192 -39 303 22 l76 42 0 -35 c0 -24
14 -59 43 -107 79 -135 80 -167 2 -321 -80 -159 -60 -202 118 -252 l56 -16 6
-182 c16 -476 118 -926 230 -1011 47 -36 104 -44 162 -22 47 18 91 62 100 99
19 78 253 1719 248 1738 -10 41 -54 91 -99 110 -56 25 -185 36 -525 45 -199 5
-282 3 -297 -5 -18 -9 -140 15 -694 138 -370 82 -685 151 -700 153 -26 5 -28
2 -28 -25z m1959 -541 c63 -3 97 -9 102 -18 21 -32 7 -202 -46 -565 -56 -388
-69 -458 -88 -505 -14 -34 -22 -35 -41 -5 -25 38 -65 314 -66 455 0 45 -4 90
-9 100 -5 9 -18 37 -29 62 -11 25 -50 79 -87 120 l-66 75 4 80 c2 44 10 110
17 146 l14 67 100 -4 c56 -2 143 -6 195 -8z M4767 3313 c-25 -41 -23 -127 23
-1026 27 -513 52 -960 55 -994 6 -55 4 -63 -14 -73 -35 -18 -53 -57 -67 -142
-7 -44 -14 -82 -16 -84 -3 -2 -66 -15 -141 -29 -443 -82 -885 -242 -981 -355
-55 -66 -54 -155 1 -221 52 -61 12 -59 955 -59 851 0 862 0 904 21 34 16 49
32 70 75 26 54 27 59 21 177 -4 67 -22 244 -41 392 -35 267 -35 270 -64 295
l-29 25 -27 535 c-39 763 -65 1202 -70 1207 -11 11 -93 -45 -123 -85 l-33 -44
0 -227 c0 -125 9 -396 20 -602 33 -640 28 -610 137 -717 49 -48 68 -72 57 -72
-10 0 -53 -27 -96 -61 -132 -102 -151 -105 -321 -49 -49 17 -98 30 -109 30
-15 0 -9 12 32 61 88 105 90 113 90 311 0 164 -52 1252 -66 1367 -3 30 -9 61
-14 70 -4 9 -24 53 -45 98 -48 103 -101 188 -108 176z m489 -2318 c4 -8 12
-15 19 -15 20 0 24 -11 40 -102 17 -96 20 -214 5 -223 -5 -3 -10 -17 -10 -31
0 -17 -8 -27 -26 -34 -48 -19 -824 -5 -876 15 -50 20 -2 49 144 89 138 37 157
48 258 133 51 43 119 99 153 125 60 44 64 46 117 41 30 -2 75 0 100 5 65 14
70 14 76 -3z M6560 3288 c0 -28 68 -104 116 -130 38 -20 244 -69 884 -212 459
-102 855 -188 879 -192 43 -7 43 -7 31 17 -58 110 -123 173 -202 198 -103 33
-1182 268 -1328 289 -74 11 -180 23 -235 27 -55 4 -110 9 -122 12 -16 4 -23 1
-23 -9z"/>
</g>
</svg>
