<?xml version="1.0" standalone="no"?>
<!DOCTYPE svg PUBLIC "-//W3C//DTD SVG 20010904//EN"
 "http://www.w3.org/TR/2001/REC-SVG-20010904/DTD/svg10.dtd">
<svg version="1.0" xmlns="http://www.w3.org/2000/svg"
 width="2048.000000pt" height="2048.000000pt" viewBox="0 0 2048.000000 2048.000000"
 preserveAspectRatio="xMidYMid meet">
<metadata>
Created by potrace 1.13, written by Peter Selinger 2001-2015
</metadata>
<g transform="translate(0.000000,2048.000000) scale(0.192120,-0.192120)"
fill="#000000" stroke="none">
<path d="M3799 10170 c-271 -21 -454 -67 -654 -168 -195 -97 -380 -252 -478
-398 -135 -204 -137 -398 -4 -526 45 -44 155 -107 224 -128 23 -8 158 -15 343
-20 392 -10 491 -29 666 -127 100 -55 179 -117 356 -279 228 -209 315 -271
444 -320 201 -76 517 -72 775 12 129 41 287 120 400 199 101 70 300 266 357
351 97 144 135 262 98 303 -16 18 -32 19 -179 18 -196 -1 -289 18 -443 92
-183 87 -336 204 -594 449 -255 244 -365 329 -528 411 -209 105 -495 153 -783
131z m348 -301 c133 -18 234 -48 350 -104 136 -66 265 -162 435 -322 176 -166
257 -238 370 -325 166 -130 362 -237 503 -276 38 -10 73 -26 79 -35 27 -42
-121 -168 -299 -257 -211 -105 -414 -161 -590 -162 -214 -2 -351 66 -620 308
-211 189 -322 273 -445 334 -188 94 -314 120 -645 130 -277 9 -324 17 -397 73
-42 32 -43 34 -46 100 -3 80 9 108 81 184 167 177 445 306 747 347 128 17 370
20 477 5z M2850 8883 c0 -23 6 -75 14 -115 83 -434 418 -786 852 -897 171 -44
391 -44 554 -2 66 18 76 18 91 5 23 -21 64 -114 87 -200 l20 -71 -34 -76 c-54
-118 -74 -213 -74 -341 1 -61 4 -129 9 -152 8 -41 8 -41 -73 -129 -102 -111
-297 -290 -446 -409 -481 -385 -950 -607 -1457 -691 -226 -37 -297 -74 -350
-182 -87 -180 40 -399 239 -409 104 -5 368 42 596 108 318 91 687 268 1007
481 232 155 488 362 644 521 l75 75 -24 26 c-31 33 -85 48 -130 35 -43 -12
-140 -78 -347 -236 -203 -154 -265 -198 -393 -276 -341 -208 -638 -340 -952
-423 -301 -78 -488 -88 -488 -24 0 28 24 36 212 73 461 93 871 279 1303 595
136 99 234 181 240 202 3 10 54 62 113 115 137 124 262 261 297 327 36 65 38
126 8 183 l-21 41 55 71 c31 40 59 72 63 72 4 0 99 -68 211 -150 112 -83 215
-159 229 -169 23 -17 24 -19 8 -42 -25 -38 -209 -247 -292 -332 -42 -43 -76
-80 -76 -82 0 -22 208 -355 485 -775 264 -400 455 -698 455 -710 0 -8 -542
-764 -887 -1238 -76 -104 -103 -148 -98 -161 12 -40 226 -157 474 -261 156
-66 583 -231 586 -228 140 205 516 716 519 707 3 -8 28 -115 56 -239 28 -123
56 -230 62 -237 48 -58 298 74 671 355 215 161 356 276 357 288 0 9 -115 494
-245 1029 -16 66 -16 74 0 127 9 32 19 58 23 58 4 -1 36 -7 72 -15 98 -22 167
-20 180 5 44 81 -298 830 -664 1452 -239 408 -458 724 -749 1083 l-32 40 29
-19 c74 -47 425 -250 485 -280 36 -18 95 -43 131 -56 36 -13 70 -29 76 -37 6
-7 36 -22 66 -32 145 -50 465 -197 608 -279 64 -37 144 -97 166 -124 11 -13
53 -48 94 -78 123 -89 271 -213 338 -283 61 -65 63 -68 60 -114 l-3 -48 -44
-3 c-55 -4 -89 18 -214 136 -247 234 -458 369 -776 499 -150 60 -173 67 -237
67 -81 1 -102 -11 -135 -76 l-19 -37 54 -20 c107 -40 353 -154 461 -213 250
-138 421 -268 615 -467 95 -98 124 -121 164 -135 191 -63 385 69 388 263 2
114 -33 172 -197 337 -375 375 -913 672 -1591 877 -172 53 -471 127 -508 127
-10 0 -74 53 -141 118 -200 192 -365 279 -552 289 -178 11 -298 -34 -451 -167
-90 -79 -200 -199 -250 -273 -14 -20 -26 -36 -27 -35 -1 2 4 48 12 103 23 155
-1 227 -101 298 -30 21 -38 22 -296 22 l-265 0 -110 39 c-154 54 -229 94 -326
174 -98 81 -174 175 -260 322 -75 127 -126 195 -213 280 l-66 64 0 -41z m2355
-1034 c59 -16 209 -94 279 -144 34 -24 105 -82 160 -129 54 -47 102 -83 106
-81 14 9 189 -185 295 -327 101 -134 185 -265 185 -286 0 -19 172 -343 234
-441 145 -230 487 -902 540 -1064 20 -60 20 -90 1 -176 l-16 -68 -127 -6
c-155 -6 -216 -24 -402 -114 -227 -110 -421 -163 -594 -163 -81 0 -176 13
-222 30 l-23 9 34 57 c42 69 45 116 13 201 -26 72 -69 142 -281 468 -346 529
-425 651 -451 700 -26 51 -35 118 -16 130 23 14 133 174 167 243 50 100 55
161 18 235 -49 102 -171 218 -355 340 -119 79 -113 71 -108 137 6 84 70 212
145 287 130 133 200 172 308 173 39 0 88 -5 110 -11z m1545 -2878 c0 -5 9 -12
19 -16 10 -3 22 -13 25 -23 4 -9 15 -33 26 -52 27 -50 50 -130 125 -440 80
-327 92 -436 56 -494 -49 -79 -273 -249 -426 -322 -102 -49 -113 -47 -180 40
-77 102 -157 153 -221 143 -32 -5 -33 -5 -48 48 -43 146 -208 859 -213 918
l-6 69 39 -17 c78 -34 119 -43 162 -35 24 4 42 3 42 -2 0 -4 12 -5 28 -2 97
23 212 62 312 104 129 55 206 82 253 89 4 0 7 -3 7 -8z m-958 -362 c21 -25 42
-95 104 -349 42 -172 48 -208 49 -306 l0 -111 -65 -70 c-36 -38 -106 -123
-155 -188 -170 -228 -170 -228 -331 -191 -141 32 -355 118 -418 167 -34 27
-34 65 0 115 74 110 614 853 646 889 65 74 130 91 170 44z M2205 4683 c-162
-13 -304 -52 -432 -118 -284 -147 -488 -398 -568 -697 -105 -392 1 -794 285
-1078 280 -279 678 -388 1062 -290 452 116 788 511 826 975 29 351 -87 659
-339 900 -192 184 -403 279 -674 305 -60 5 -112 9 -115 8 -3 -1 -23 -3 -45 -5z
m82 -134 c249 -103 366 -140 512 -163 58 -9 107 -18 109 -21 3 -2 -72 -82
-165 -176 l-170 -172 -67 79 c-171 199 -366 494 -327 494 5 0 54 -18 108 -41z
m-308 -197 c88 -147 210 -313 324 -442 l75 -85 -200 -202 -201 -201 -88 78
c-127 112 -286 228 -432 316 -70 43 -130 81 -133 85 -2 4 27 30 65 57 37 28
93 79 122 113 30 35 104 115 165 179 61 63 133 149 159 190 37 57 50 71 57 60
5 -8 44 -75 87 -148z m1135 -234 c3 -18 7 -67 10 -108 7 -94 37 -202 110 -399
31 -84 55 -155 52 -158 -6 -7 -85 39 -196 115 -98 67 -150 107 -258 201 l-64
54 164 164 c89 89 166 163 170 163 4 0 9 -15 12 -32z m-464 -258 c13 -47 12
-75 -2 -88 -12 -9 -111 -18 -130 -12 -5 1 -14 3 -20 4 -14 1 -23 75 -14 111 5
19 12 21 81 21 l75 -1 10 -35z m250 -497 c58 -41 147 -100 198 -130 51 -31 95
-59 97 -64 3 -4 -25 -27 -62 -52 -38 -24 -111 -85 -163 -137 -52 -51 -126
-117 -165 -146 -38 -29 -88 -79 -110 -110 -22 -31 -48 -66 -58 -78 -17 -20
-18 -20 -30 -2 -182 281 -329 479 -411 556 l-27 24 202 202 202 202 111 -95
c61 -53 158 -129 216 -170z m-1424 111 c97 -69 303 -235 304 -245 0 -3 -66
-71 -147 -149 -163 -161 -155 -159 -167 -39 -10 107 -30 165 -119 349 -116
242 -115 231 -29 185 38 -21 110 -66 158 -101z m574 -214 c13 -48 12 -87 -2
-96 -17 -11 -119 -13 -145 -3 -26 10 -31 53 -13 105 10 28 12 29 80 29 l70 0
10 -35z m123 -467 c51 -67 107 -149 125 -182 l33 -60 -39 13 c-21 8 -92 39
-158 69 -150 69 -204 85 -320 93 -51 4 -98 11 -106 15 -9 6 25 47 127 149
l140 141 53 -58 c30 -32 95 -113 145 -180z M7105 3613 c4 -26 18 -67 31 -90
32 -55 72 -70 379 -139 132 -30 312 -73 400 -95 325 -83 323 -83 380 -70 28 6
82 29 119 51 38 22 69 40 71 40 1 0 2 -14 3 -31 0 -17 19 -61 41 -99 81 -136
82 -162 10 -311 l-52 -108 -44 67 c-58 88 -90 121 -138 143 -51 23 -1175 272
-1320 292 -60 9 -150 18 -200 22 -49 3 -120 8 -157 11 -81 8 -86 -1 -35 -67
63 -82 58 -81 967 -283 459 -102 855 -189 880 -193 39 -8 45 -12 51 -41 3 -17
11 -38 18 -45 14 -18 70 -42 142 -62 l56 -16 6 -182 c16 -476 118 -926 230
-1011 47 -36 104 -44 162 -22 47 18 91 62 100 99 19 78 253 1719 248 1738 -10
41 -54 91 -99 110 -56 25 -185 36 -525 45 -201 5 -281 3 -297 -5 -18 -10 -114
9 -559 108 -296 66 -603 134 -683 151 -80 17 -155 33 -168 36 -23 5 -23 3 -17
-43z m2011 -539 c32 -4 43 -10 48 -27 15 -55 2 -199 -44 -513 -63 -424 -69
-456 -90 -484 l-18 -23 -15 34 c-24 50 -47 197 -53 339 -3 69 -9 134 -14 145
-33 82 -57 119 -115 185 l-67 75 6 90 c3 50 8 113 12 142 l6 51 151 -4 c84 -3
171 -7 193 -10z M4767 3313 c-25 -41 -24 -126 23 -1026 27 -513 51 -960 55
-994 5 -55 3 -63 -15 -73 -34 -18 -52 -58 -66 -142 -7 -44 -14 -82 -16 -84 -3
-2 -66 -15 -141 -29 -443 -82 -885 -242 -981 -355 -55 -66 -54 -155 1 -221 52
-61 12 -59 955 -59 851 0 862 0 904 21 34 16 49 32 70 75 26 54 27 59 21 177
-4 67 -22 244 -42 392 -34 266 -35 270 -63 295 l-29 25 -37 725 c-39 758 -54
1011 -61 1018 -10 10 -70 -24 -113 -64 l-46 -43 -7 -173 c-6 -130 -2 -289 16
-643 28 -529 31 -573 51 -633 20 -61 37 -83 104 -137 l60 -48 -25 -13 c-14 -7
-57 -38 -96 -68 -39 -31 -88 -61 -110 -67 -41 -13 -46 -12 -245 48 l-62 18 44
50 c93 105 94 110 94 344 0 113 -14 464 -30 780 l-31 575 -28 67 c-29 68 -108
219 -134 253 -8 11 -17 15 -20 9z m533 -2544 c0 -143 -2 -168 -16 -173 -51
-19 -738 5 -781 28 l-27 14 37 15 c20 9 73 26 117 38 100 27 175 74 259 165
93 99 92 99 191 96 47 -1 110 4 140 11 52 12 56 12 67 -7 8 -14 12 -75 13
-187z"/>
</g>
</svg>
