<?xml version="1.0" standalone="no"?>
<!DOCTYPE svg PUBLIC "-//W3C//DTD SVG 20010904//EN"
 "http://www.w3.org/TR/2001/REC-SVG-20010904/DTD/svg10.dtd">
<svg version="1.0" xmlns="http://www.w3.org/2000/svg"
 width="2048.000000pt" height="2048.000000pt" viewBox="0 0 2048.000000 2048.000000"
 preserveAspectRatio="xMidYMid meet">
<metadata>
Created by potrace 1.13, written by Peter Selinger 2001-2015
</metadata>
<g transform="translate(0.000000,2048.000000) scale(0.192120,-0.192120)"
fill="#000000" stroke="none">
<path d="M3799 10170 c-272 -21 -454 -68 -654 -168 -272 -136 -473 -334 -555
-547 -34 -89 -33 -201 2 -276 49 -107 164 -191 313 -229 67 -17 111 -20 299
-20 313 0 446 -18 595 -80 141 -58 235 -127 496 -365 294 -268 441 -334 744
-335 228 0 440 50 644 154 151 76 256 154 388 285 166 165 269 331 269 434 0
60 -15 65 -195 64 -194 -1 -287 19 -441 92 -183 87 -336 203 -594 449 -203
193 -262 244 -368 316 -266 180 -575 254 -943 226z m451 -329 c259 -59 415
-157 733 -460 312 -295 565 -468 799 -543 38 -12 73 -30 78 -38 14 -26 -25
-75 -112 -140 -99 -75 -226 -137 -383 -189 -207 -67 -337 -75 -511 -31 -151
39 -255 104 -464 291 -214 191 -321 270 -467 343 -182 91 -305 115 -648 126
-288 10 -331 16 -397 62 -26 18 -28 25 -28 83 0 57 4 68 36 112 136 183 431
340 729 387 152 24 157 24 360 21 144 -3 211 -9 275 -24z M2860 8800 c0 -37
43 -186 77 -267 139 -320 426 -568 769 -660 90 -25 115 -27 289 -27 168 -1
200 2 274 22 46 13 85 21 88 19 2 -3 19 -33 38 -68 l35 -64 0 65 c0 73 -20
116 -67 147 -21 14 -45 18 -108 17 -44 -1 -154 -3 -245 -4 -161 -3 -167 -2
-270 29 -58 18 -148 55 -200 82 -203 104 -312 212 -460 452 -71 116 -219 289
-220 257z M5020 8085 c-91 -25 -173 -73 -269 -156 -204 -178 -327 -366 -376
-570 -15 -67 -20 -262 -7 -334 l7 -40 62 75 c34 41 70 86 81 100 l20 25 55
-40 c182 -130 407 -299 407 -306 0 -11 -140 -175 -269 -316 l-112 -122 57 -98
c79 -135 209 -338 429 -673 264 -400 455 -698 455 -710 0 -8 -542 -764 -887
-1238 -76 -104 -103 -148 -98 -161 12 -38 194 -140 439 -246 127 -55 618 -247
621 -243 173 250 516 716 519 707 3 -8 28 -115 56 -239 28 -123 56 -230 62
-237 47 -58 300 76 668 353 218 164 359 278 360 290 0 9 -115 494 -245 1029
-16 66 -16 74 0 128 9 31 19 57 23 57 4 -1 36 -7 72 -15 98 -22 167 -20 180 5
44 82 -296 825 -666 1457 -401 684 -823 1220 -1105 1403 -51 32 -131 74 -178
91 -73 27 -103 32 -196 35 -77 3 -127 -1 -165 -11z m295 -280 c141 -71 231
-139 397 -300 207 -201 362 -411 612 -828 277 -463 446 -775 589 -1087 115
-253 119 -268 92 -389 l-16 -68 -127 -6 c-155 -6 -216 -24 -402 -114 -227
-110 -421 -163 -594 -163 -81 0 -176 13 -222 30 l-23 9 34 57 c42 69 45 116
13 201 -26 72 -69 142 -281 468 -449 687 -460 705 -460 756 0 17 18 51 50 90
128 163 193 290 193 376 0 73 -102 219 -226 325 -32 28 -106 82 -164 121 -119
79 -130 90 -130 129 0 64 92 194 213 301 202 178 259 190 452 92z m1435 -2834
c0 -5 9 -12 19 -16 10 -3 22 -13 25 -23 4 -9 15 -33 26 -52 27 -50 50 -131
125 -440 79 -325 91 -427 56 -484 -40 -64 -315 -259 -473 -335 -58 -28 -77
-23 -120 32 -83 107 -171 164 -234 154 -32 -5 -33 -5 -48 48 -43 146 -208 859
-213 918 l-6 69 39 -17 c78 -34 119 -43 162 -35 24 4 42 3 42 -2 0 -4 12 -5
28 -2 97 23 212 62 312 104 129 55 206 82 253 89 4 0 7 -3 7 -8z m-958 -362
c21 -25 42 -95 104 -349 42 -172 48 -208 49 -306 l0 -111 -65 -69 c-36 -38
-111 -131 -168 -206 -56 -75 -116 -148 -133 -162 -54 -46 -123 -33 -372 69
-151 61 -215 92 -234 110 -35 36 -20 61 297 501 170 236 327 450 349 475 67
78 133 96 173 48z M6165 7585 c135 -88 267 -155 415 -210 69 -26 127 -50 130
-55 3 -4 64 -31 135 -60 165 -66 454 -213 565 -285 47 -31 103 -75 125 -99 22
-24 83 -76 135 -116 111 -86 202 -169 283 -257 l57 -63 0 -68 c-1 -92 -28
-122 -110 -122 -62 0 -112 31 -239 152 -199 190 -373 315 -586 421 -220 110
-352 141 -409 96 -14 -11 -26 -26 -26 -33 0 -7 44 -32 98 -56 373 -167 627
-335 858 -567 78 -78 160 -152 183 -164 58 -30 154 -36 219 -15 66 22 134 84
168 151 23 48 26 64 22 132 -5 100 -20 131 -123 246 -389 436 -1093 814 -1882
1011 -56 15 -105 26 -110 26 -4 0 37 -29 92 -65z M4204 6811 c-583 -569 -1197
-911 -1804 -1006 -142 -22 -187 -33 -243 -63 -89 -47 -140 -135 -140 -242 0
-153 116 -278 265 -286 118 -6 447 59 673 132 488 159 978 446 1405 821 162
143 179 161 160 173 -28 18 -81 22 -123 10 -41 -11 -138 -78 -292 -201 -389
-310 -878 -565 -1310 -684 -184 -50 -357 -78 -465 -74 -89 4 -92 5 -121 37
-26 29 -30 40 -27 80 3 43 5 47 48 69 25 12 106 34 180 48 205 39 263 53 410
103 157 52 355 138 513 224 193 104 587 375 587 404 0 7 69 74 153 149 167
150 262 251 283 302 15 34 17 106 6 134 -6 13 -40 -15 -158 -130z M2205 4683
c-162 -13 -304 -52 -432 -118 -284 -147 -488 -398 -568 -697 -105 -392 1 -794
285 -1078 280 -279 678 -388 1062 -290 452 116 788 511 826 975 29 351 -87
659 -339 900 -192 184 -403 279 -674 305 -60 5 -112 9 -115 8 -3 -1 -23 -3
-45 -5z m82 -134 c249 -103 366 -140 512 -163 58 -9 107 -18 109 -21 3 -2 -72
-82 -165 -176 l-170 -172 -67 79 c-171 199 -366 494 -327 494 5 0 54 -18 108
-41z m-308 -197 c88 -147 210 -313 324 -442 l75 -85 -200 -202 -201 -201 -88
78 c-127 112 -286 228 -432 316 -70 43 -130 81 -133 85 -2 4 27 30 65 57 37
28 93 79 122 113 30 35 104 115 165 179 61 63 133 149 159 190 37 57 50 71 57
60 5 -8 44 -75 87 -148z m1135 -234 c3 -18 7 -67 10 -108 7 -94 37 -202 110
-399 31 -84 55 -155 52 -158 -6 -7 -85 39 -196 115 -98 67 -150 107 -258 201
l-64 54 164 164 c89 89 166 163 170 163 4 0 9 -15 12 -32z m-464 -258 c13 -47
12 -75 -2 -88 -12 -9 -111 -18 -130 -12 -5 1 -14 3 -20 4 -14 1 -23 75 -14
111 5 19 12 21 81 21 l75 -1 10 -35z m250 -497 c58 -41 147 -100 198 -130 51
-31 95 -59 97 -64 3 -4 -25 -27 -62 -52 -38 -24 -111 -85 -163 -137 -52 -51
-126 -117 -165 -146 -38 -29 -88 -79 -110 -110 -22 -31 -48 -66 -58 -78 -17
-20 -18 -20 -30 -2 -182 281 -329 479 -411 556 l-27 24 202 202 202 202 111
-95 c61 -53 158 -129 216 -170z m-1424 111 c97 -69 303 -235 304 -245 0 -3
-66 -71 -147 -149 -163 -161 -155 -159 -167 -39 -10 107 -30 165 -119 349
-116 242 -115 231 -29 185 38 -21 110 -66 158 -101z m574 -214 c13 -48 12 -87
-2 -96 -17 -11 -119 -13 -145 -3 -26 10 -31 53 -13 105 10 28 12 29 80 29 l70
0 10 -35z m123 -467 c51 -67 107 -149 125 -182 l33 -60 -39 13 c-21 8 -92 39
-158 69 -150 69 -204 85 -320 93 -51 4 -98 11 -106 15 -9 6 25 47 127 149
l140 141 53 -58 c30 -32 95 -113 145 -180z M7200 3609 c0 -35 42 -85 86 -104
36 -15 214 -56 669 -155 310 -68 311 -68 419 -13 43 22 48 27 31 33 -21 8
-1076 243 -1157 259 -48 8 -48 8 -48 -20z M8518 3350 c-44 -34 -39 -85 19
-183 37 -64 48 -92 51 -136 3 -51 -1 -66 -47 -159 -87 -177 -71 -217 110 -267
l56 -16 6 -182 c16 -476 118 -926 230 -1011 47 -36 104 -44 162 -22 47 18 91
62 100 99 19 78 253 1719 248 1738 -10 41 -54 91 -99 110 -57 26 -187 36 -529
45 -278 6 -280 6 -307 -16z m598 -276 c32 -4 43 -10 48 -27 15 -55 2 -199 -44
-513 -63 -424 -69 -456 -90 -484 l-18 -23 -15 34 c-24 50 -47 197 -53 339 -3
69 -9 134 -14 145 -32 79 -48 106 -90 155 -26 30 -52 65 -58 77 -17 32 -14 98
8 178 11 39 20 84 20 100 l0 31 133 -3 c72 -2 151 -6 173 -9z M4750 3155 c0
-110 89 -1818 96 -1824 5 -5 25 18 65 78 l29 45 0 255 c0 141 -11 468 -25 726
-25 486 -31 567 -45 594 -62 127 -86 173 -101 192 -18 24 -19 23 -19 -66z
M6625 3200 c17 -18 46 -40 65 -50 19 -10 391 -97 825 -193 883 -197 865 -193
865 -180 0 12 -48 78 -80 111 -37 39 -47 41 -755 197 -526 116 -677 142 -833
144 l-117 2 30 -31z M5303 2947 c-28 -26 -44 -51 -52 -82 -17 -66 -13 -347 9
-766 22 -411 29 -499 40 -514 4 -5 11 -24 14 -42 7 -28 63 -97 108 -131 15
-12 16 -6 12 65 -3 43 -20 386 -39 763 -19 377 -39 698 -43 715 l-7 29 -42
-37z M5375 1298 c-11 -6 -48 -33 -82 -60 -113 -89 -140 -92 -306 -38 -102 34
-133 37 -165 14 -32 -22 -44 -50 -58 -138 -7 -43 -14 -80 -16 -82 -3 -2 -66
-15 -141 -29 -443 -82 -885 -242 -981 -355 -55 -66 -54 -155 1 -221 52 -61 12
-59 955 -59 851 0 862 0 904 21 34 16 49 32 70 75 26 54 27 59 21 177 -4 67
-22 244 -41 392 -34 258 -36 271 -61 293 -28 24 -68 28 -100 10z m-87 -370 c8
-8 12 -60 12 -169 0 -134 -2 -158 -16 -163 -51 -19 -738 5 -781 28 l-27 14 36
15 c20 9 71 25 113 36 117 32 141 47 252 152 36 33 77 65 91 70 16 6 59 8 102
5 49 -4 94 -1 130 8 72 18 74 18 88 4z"/>
</g>
</svg>
