<?xml version="1.0" standalone="no"?>
<!DOCTYPE svg PUBLIC "-//W3C//DTD SVG 20010904//EN"
 "http://www.w3.org/TR/2001/REC-SVG-20010904/DTD/svg10.dtd">
<svg version="1.0" xmlns="http://www.w3.org/2000/svg"
 width="2048.000000pt" height="2048.000000pt" viewBox="0 0 2048.000000 2048.000000"
 preserveAspectRatio="xMidYMid meet">
<metadata>
Created by potrace 1.13, written by Peter Selinger 2001-2015
</metadata>
<g transform="translate(0.000000,2048.000000) scale(0.192120,-0.192120)"
fill="#000000" stroke="none">
<path d="M5224 10060 c-176 -25 -324 -97 -470 -230 -33 -30 -92 -81 -132 -112
-208 -167 -355 -444 -392 -741 -6 -52 -10 -587 -10 -1477 0 -1585 4 -1489 -82
-1672 -228 -480 -832 -632 -1254 -315 -158 119 -276 306 -316 497 -10 52 -13
330 -13 1420 0 1541 -6 1427 86 1608 69 136 71 138 159 146 62 6 94 17 204 70
180 86 234 100 381 101 99 0 133 -4 195 -24 140 -44 240 -103 350 -207 102
-96 119 -107 163 -108 37 -1 42 2 39 19 -5 27 -74 136 -124 196 -88 104 -253
208 -400 250 -105 30 -271 36 -379 15 -144 -30 -298 -106 -394 -195 -22 -21
-61 -50 -86 -64 -181 -103 -348 -308 -420 -515 -52 -150 -51 -106 -56 -1447
-4 -1197 -5 -1253 -24 -1330 -67 -277 -290 -500 -574 -576 -105 -28 -344 -31
-447 -6 -274 67 -494 267 -574 521 l-17 55 41 64 c23 35 42 75 42 88 0 14 4
29 10 35 6 6 10 354 12 934 l3 925 30 85 c99 275 324 440 620 457 195 10 368
-48 528 -177 150 -121 194 -141 241 -107 16 12 14 18 -33 88 -174 261 -488
388 -836 339 -341 -49 -611 -308 -675 -649 -6 -34 -10 -519 -10 -1335 l-1
-1281 52 -48 c165 -153 365 -250 575 -278 130 -17 398 -7 496 19 274 74 519
256 652 485 15 26 31 47 34 47 4 -1 25 -31 47 -67 49 -81 208 -245 292 -302
195 -130 396 -191 628 -191 284 0 509 87 737 282 162 140 305 397 353 637 l7
33 72 -69 c122 -119 240 -196 391 -256 178 -70 200 -72 763 -72 276 0 502 -1
502 -2 0 -1 -37 -23 -82 -49 -305 -175 -559 -448 -728 -784 -189 -375 -299
-924 -300 -1485 0 -111 3 -135 20 -162 51 -84 180 -83 236 3 15 23 19 63 25
268 22 719 170 1215 470 1583 173 211 438 385 739 483 250 82 470 116 850 131
140 5 272 14 292 20 100 26 129 152 53 229 l-35 35 -1283 5 c-1198 5 -1286 7
-1342 24 -261 79 -451 239 -557 473 -96 212 -91 487 12 698 106 217 284 366
525 442 l90 28 1720 0 1720 0 121 -22 c136 -25 255 -65 350 -118 55 -31 64
-40 64 -65 0 -54 37 -147 100 -250 66 -109 107 -197 145 -314 77 -231 451
-1488 485 -1628 89 -366 90 -377 90 -712 0 -165 -5 -330 -10 -366 -13 -82 -54
-268 -76 -340 -53 -184 -167 -464 -243 -597 -44 -78 -299 -463 -316 -478 -6
-5 -24 -28 -40 -50 -294 -409 -748 -834 -1240 -1162 -828 -551 -1773 -874
-2785 -954 -185 -14 -637 -14 -805 0 -827 71 -1503 332 -2109 815 -152 120
-444 419 -570 581 -389 502 -643 1018 -826 1675 -108 390 -169 747 -209 1215
-10 122 -23 221 -30 228 -6 6 -11 17 -11 23 0 7 -25 70 -56 141 l-55 128 5
-215 c32 -1180 363 -2279 933 -3097 542 -779 1288 -1301 2188 -1533 679 -176
1474 -184 2275 -24 739 148 1471 448 2095 859 919 605 1593 1425 1879 2287 90
269 128 471 148 771 13 206 7 277 -48 546 -58 288 -101 441 -348 1261 -255
842 -284 922 -381 1040 -24 30 -69 87 -98 125 -195 255 -454 419 -770 487
-101 22 -109 22 -1075 22 l-973 1 3 625 c4 616 4 626 26 700 28 91 82 203 122
252 27 33 34 36 98 40 66 5 113 21 202 70 140 76 246 103 395 102 126 -2 232
-30 345 -91 129 -71 200 -141 264 -264 83 -157 86 -178 86 -691 0 -292 3 -448
10 -448 6 0 10 -20 10 -45 0 -25 4 -45 9 -45 5 0 12 -10 15 -22 8 -28 65 -92
74 -83 12 12 14 1023 2 1115 -44 338 -293 619 -625 706 -95 25 -304 25 -394 1
-138 -38 -255 -97 -345 -177 -28 -25 -78 -61 -110 -80 -74 -44 -224 -185 -281
-265 -103 -145 -159 -306 -176 -500 -5 -66 -9 -295 -8 -510 l2 -390 -509 -5
c-495 -6 -511 -6 -594 -29 -189 -52 -349 -143 -487 -274 l-78 -75 3 932 c2
797 4 941 18 1003 18 86 53 174 94 242 29 46 33 49 83 54 87 9 117 21 238 99
294 190 678 145 926 -108 82 -84 134 -191 177 -367 36 -145 45 -168 78 -191
44 -31 48 -23 48 88 0 241 -82 448 -241 607 -179 179 -452 273 -695 239z
m-764 -2711 c14 -26 5 -69 -15 -69 -11 0 -15 12 -15 45 0 48 12 58 30 24z"/>
</g>
</svg>
