<?xml version="1.0" standalone="no"?>
<!DOCTYPE svg PUBLIC "-//W3C//DTD SVG 20010904//EN"
 "http://www.w3.org/TR/2001/REC-SVG-20010904/DTD/svg10.dtd">
<svg version="1.0" xmlns="http://www.w3.org/2000/svg"
 width="2048.000000pt" height="2048.000000pt" viewBox="0 0 2048.000000 2048.000000"
 preserveAspectRatio="xMidYMid meet">
<metadata>
Created by potrace 1.13, written by Peter Selinger 2001-2015
</metadata>
<g transform="translate(0.000000,2048.000000) scale(0.192120,-0.192120)"
fill="#000000" stroke="none">
<path d="M5240 10063 c-183 -24 -339 -98 -480 -228 -36 -33 -91 -80 -123 -104
-147 -112 -286 -313 -352 -511 -62 -186 -58 -86 -65 -1705 l-6 -1480 -22 -73
c-91 -297 -316 -516 -611 -594 -107 -28 -286 -27 -396 1 -324 85 -564 343
-620 668 -14 79 -15 256 -13 1429 3 1320 3 1340 24 1409 26 89 73 195 88 196
14 2 43 6 81 12 62 10 174 60 291 131 81 50 201 86 304 93 124 8 229 -15 360
-79 99 -49 112 -59 235 -184 146 -149 185 -173 228 -141 17 11 16 16 -3 71
-90 263 -336 468 -624 523 -106 20 -273 13 -376 -17 -100 -29 -238 -102 -308
-165 -31 -28 -84 -66 -116 -85 -75 -44 -225 -185 -281 -265 -80 -112 -141
-256 -165 -390 -7 -41 -12 -457 -13 -1305 l-2 -1245 -23 -79 c-115 -409 -478
-646 -917 -598 -281 31 -509 182 -627 415 l-29 59 24 37 c90 136 87 95 88
1156 0 914 0 921 22 1005 39 152 151 299 287 376 182 104 454 110 646 15 65
-33 105 -63 208 -161 151 -145 209 -175 261 -136 18 13 18 16 -9 80 -97 227
-287 393 -525 458 -104 29 -364 32 -460 5 -163 -44 -264 -102 -375 -212 -94
-93 -153 -188 -199 -319 l-32 -91 0 -1555 c0 -1630 0 -1631 46 -2010 169
-1412 756 -2577 1661 -3300 576 -460 1246 -726 2060 -817 187 -21 744 -24 943
-5 741 70 1366 236 2020 534 1139 520 2099 1436 2524 2408 159 364 238 684
263 1065 14 213 8 278 -47 554 -57 283 -95 418 -346 1251 -260 861 -288 937
-388 1055 -28 33 -75 92 -104 130 -191 248 -454 412 -760 476 -100 21 -117 21
-1075 20 l-973 -2 3 628 c4 618 4 629 26 703 13 41 35 97 50 125 27 49 28 50
93 62 83 15 164 49 285 118 109 63 188 91 298 107 259 37 556 -113 665 -336
73 -151 74 -161 80 -714 4 -310 10 -495 16 -500 6 -4 21 -29 34 -55 14 -27 43
-64 65 -83 l41 -35 8 38 c4 21 6 297 5 613 -4 550 -5 578 -25 651 -43 154
-102 257 -212 373 -108 113 -244 192 -396 232 -96 25 -305 26 -394 1 -137 -37
-255 -98 -340 -174 -26 -22 -88 -68 -137 -102 -103 -68 -241 -207 -292 -294
-53 -89 -102 -210 -124 -310 -19 -85 -21 -130 -24 -567 l-3 -475 -508 -5
c-492 -6 -511 -7 -592 -29 -189 -52 -358 -147 -489 -276 -42 -41 -76 -73 -77
-72 0 1 2 434 5 962 l5 960 28 80 c16 44 34 83 40 87 7 4 37 15 67 24 74 22
177 73 244 123 154 114 254 152 416 159 133 5 203 -9 315 -62 75 -35 170 -103
222 -158 40 -42 106 -166 128 -238 9 -30 22 -102 31 -159 27 -190 62 -264 133
-278 l33 -6 -4 219 c-4 216 -4 220 -36 314 -94 275 -311 479 -583 549 -78 20
-235 33 -299 24z m3369 -2504 c135 -11 284 -42 376 -79 l50 -20 30 -86 c18
-54 48 -114 82 -162 116 -169 195 -323 231 -452 5 -19 103 -341 217 -715 219
-719 253 -840 309 -1107 l36 -166 0 -314 c0 -333 -6 -396 -54 -593 -51 -207
-142 -451 -238 -637 -49 -96 -301 -484 -365 -563 -18 -22 -77 -96 -132 -165
-449 -567 -1149 -1094 -1911 -1440 -967 -439 -2109 -611 -3075 -464 -1054 161
-1920 705 -2508 1578 -235 347 -412 709 -547 1116 -163 487 -262 989 -300
1520 -13 169 -19 196 -90 375 -71 179 -71 175 -19 133 128 -104 270 -176 429
-220 77 -21 106 -23 300 -23 200 1 222 3 311 27 274 75 499 243 643 482 l33
55 47 -74 c97 -154 245 -286 416 -374 170 -87 315 -121 510 -121 286 1 512 90
739 290 160 141 299 392 346 628 4 17 8 32 10 32 2 0 29 -27 61 -60 108 -113
290 -229 439 -278 162 -55 194 -57 728 -57 273 0 497 -2 496 -5 0 -3 -26 -18
-57 -34 -216 -108 -467 -340 -622 -574 -277 -418 -429 -1021 -430 -1707 0
-111 3 -135 20 -162 51 -84 180 -83 237 3 15 23 18 62 24 268 4 133 15 304 24
381 104 887 457 1415 1110 1660 249 93 526 141 910 155 288 11 315 15 350 42
73 57 73 150 0 218 l-27 25 -1281 5 c-1280 5 -1282 5 -1352 27 -264 82 -455
250 -554 488 -89 213 -82 473 19 681 118 244 361 424 625 463 90 13 3241 13
3404 0z m-4164 -146 c18 -16 42 -36 54 -45 11 -10 21 -25 21 -34 0 -26 -52
-123 -86 -162 l-33 -37 -1 153 c0 83 3 152 6 152 4 0 21 -12 39 -27z m18
-1155 c39 -67 47 -109 22 -130 -9 -7 -21 -18 -28 -24 -7 -6 -22 -16 -35 -23
l-22 -12 0 126 c0 148 8 156 63 63z m-2020 -431 c12 -38 1 -77 -23 -77 -24 0
-33 29 -24 75 8 43 33 44 47 2z m4055 -133 c12 -4 22 -12 22 -19 0 -15 -167
-102 -206 -107 -25 -3 -28 1 -40 51 -20 76 -14 81 105 81 53 0 106 -3 119 -6z"/>
</g>
</svg>
