<?xml version="1.0" standalone="no"?>
<!DOCTYPE svg PUBLIC "-//W3C//DTD SVG 20010904//EN"
 "http://www.w3.org/TR/2001/REC-SVG-20010904/DTD/svg10.dtd">
<svg version="1.0" xmlns="http://www.w3.org/2000/svg"
 width="2048.000000pt" height="2048.000000pt" viewBox="0 0 2048.000000 2048.000000"
 preserveAspectRatio="xMidYMid meet">
<metadata>
Created by potrace 1.13, written by Peter Selinger 2001-2015
</metadata>
<g transform="translate(0.000000,2048.000000) scale(0.192120,-0.192120)"
fill="#000000" stroke="none">
<path d="M5215 10060 c-165 -25 -310 -96 -453 -222 -48 -43 -121 -106 -162
-141 -171 -145 -300 -371 -357 -627 -15 -68 -17 -223 -23 -1555 l-6 -1480 -22
-73 c-25 -82 -79 -194 -125 -262 -82 -119 -243 -244 -385 -298 -111 -43 -183
-56 -307 -55 -402 4 -742 293 -810 690 -14 79 -15 254 -13 1424 3 1294 4 1336
23 1404 l20 69 65 25 c110 41 203 87 321 159 112 67 184 101 264 121 59 16
222 13 290 -4 138 -36 273 -124 371 -242 75 -91 146 -163 176 -179 31 -16 86
-18 107 -5 22 14 -10 139 -63 244 -121 241 -343 405 -609 447 -101 17 -260 8
-357 -20 -103 -29 -236 -100 -306 -163 -33 -29 -88 -71 -124 -92 -79 -48 -217
-178 -275 -260 -92 -130 -162 -310 -171 -444 -3 -42 -6 -620 -7 -1286 l-2
-1210 -23 -80 c-81 -287 -296 -502 -577 -576 -104 -28 -344 -31 -447 -6 -174
42 -334 142 -432 267 -70 89 -70 90 -32 146 41 61 63 120 76 204 6 40 10 428
10 1015 0 817 2 959 15 1010 51 199 200 349 400 400 68 17 245 20 326 5 30 -5
91 -28 137 -50 84 -42 160 -109 285 -252 81 -93 156 -126 220 -97 25 11 25 11
11 70 -63 272 -286 498 -563 570 -110 29 -291 36 -410 15 -291 -51 -524 -250
-622 -533 l-34 -98 -3 -1450 c-3 -1461 1 -1679 34 -1990 225 -2122 1328 -3632
2994 -4100 423 -119 733 -159 1225 -159 332 0 454 7 745 45 1013 130 1986 526
2795 1136 218 165 370 297 565 492 621 623 1008 1323 1130 2046 11 66 26 202
32 303 14 211 8 277 -47 551 -58 285 -95 421 -346 1251 -260 861 -288 936
-388 1055 -28 33 -75 92 -105 131 -74 94 -206 220 -297 281 -218 147 -434 213
-701 213 l-143 0 0 623 c-1 614 -1 623 -23 702 -70 250 -235 444 -466 550
-117 54 -194 69 -341 69 -147 0 -224 -15 -341 -69 -78 -36 -178 -100 -209
-135 -11 -12 -63 -51 -116 -85 -107 -71 -244 -208 -297 -298 -53 -89 -102
-210 -124 -310 -19 -85 -21 -130 -24 -567 l-3 -475 -508 -6 c-348 -4 -522 -9
-553 -18 -227 -60 -417 -166 -549 -306 -29 -31 -54 -55 -55 -53 -1 2 1 433 4
958 4 719 8 960 17 976 7 12 41 35 77 52 71 34 186 107 316 202 150 109 241
147 381 157 193 13 388 -72 515 -225 84 -102 115 -194 144 -427 21 -176 78
-292 153 -310 60 -16 59 -21 55 278 l-4 272 -32 95 c-117 338 -404 557 -756
574 -50 3 -118 1 -151 -4z m2200 -545 c175 -41 339 -165 402 -304 61 -134 63
-154 63 -653 0 -299 3 -458 10 -458 6 0 10 -17 10 -37 1 -52 29 -110 81 -164
l45 -46 -126 -7 c-69 -3 -426 -6 -793 -6 l-668 0 4 623 c3 583 4 626 23 687
l19 65 85 30 c102 37 141 57 282 141 191 115 270 142 413 143 50 0 117 -6 150
-14z m1180 -1955 c128 -11 251 -32 284 -49 9 -5 23 -22 31 -38 45 -86 118
-201 194 -302 104 -137 135 -190 180 -307 49 -128 479 -1554 520 -1726 87
-360 88 -373 83 -726 -4 -298 -6 -324 -30 -437 -90 -403 -212 -688 -444 -1033
-214 -319 -338 -474 -558 -701 -997 -1025 -2491 -1640 -3985 -1641 -1269 0
-2311 479 -3021 1391 -290 372 -541 856 -703 1357 -145 448 -229 886 -281
1459 -15 168 -17 174 -69 305 -79 197 -79 186 1 135 214 -138 390 -183 681
-174 136 4 185 10 266 31 251 65 485 235 621 449 27 42 51 77 54 77 3 -1 25
-32 49 -69 118 -191 345 -365 572 -440 152 -50 381 -65 540 -37 345 62 647
295 796 614 40 85 83 212 99 290 l7 34 71 -69 c167 -160 328 -249 547 -304 94
-24 101 -24 603 -23 279 0 507 -1 507 -2 0 -1 -40 -25 -89 -54 -432 -254 -727
-658 -886 -1215 -80 -281 -134 -704 -135 -1055 0 -107 3 -130 20 -157 51 -84
180 -83 236 2 15 23 19 65 25 268 4 133 15 305 24 382 118 1012 563 1561 1415
1749 181 40 324 55 610 66 284 11 325 17 357 52 61 68 57 144 -12 208 l-27 25
-1281 5 c-1198 5 -1286 7 -1342 24 -319 96 -547 333 -611 635 -21 99 -18 269
6 371 25 104 93 244 160 327 124 155 330 273 525 302 88 13 3233 13 3390 1z
m-4154 -131 c23 -22 53 -45 66 -50 44 -16 25 -82 -65 -226 -47 -75 -52 -62
-52 137 0 99 2 180 4 180 2 0 24 -18 47 -41z m23 -1146 c46 -82 60 -158 30
-170 -11 -4 -37 -20 -59 -35 -36 -27 -40 -27 -46 -11 -9 22 -11 249 -3 280 9
35 34 15 78 -64z m-2011 -427 c11 -23 17 -54 15 -79 l-3 -42 -50 0 c-48 0 -50
1 -53 29 -5 37 3 63 28 104 25 40 39 38 63 -12z m4105 -152 c24 -7 31 -34 8
-34 -8 0 -16 -3 -18 -7 -8 -18 -229 -113 -262 -113 -22 0 -26 5 -26 28 0 15
-4 42 -9 59 -5 18 -7 41 -4 53 5 19 13 20 147 20 77 0 151 -3 164 -6z"/>
</g>
</svg>
