<?xml version="1.0" standalone="no"?>
<!DOCTYPE svg PUBLIC "-//W3C//DTD SVG 20010904//EN"
 "http://www.w3.org/TR/2001/REC-SVG-20010904/DTD/svg10.dtd">
<svg version="1.0" xmlns="http://www.w3.org/2000/svg"
 width="2048.000000pt" height="2048.000000pt" viewBox="0 0 2048.000000 2048.000000"
 preserveAspectRatio="xMidYMid meet">
<metadata>
Created by potrace 1.13, written by Peter Selinger 2001-2015
</metadata>
<g transform="translate(0.000000,2048.000000) scale(0.192120,-0.192120)"
fill="#000000" stroke="none">
<path d="M5240 10063 c-183 -24 -339 -98 -480 -228 -36 -33 -91 -80 -123 -104
-147 -112 -286 -313 -352 -511 -62 -186 -58 -86 -65 -1705 l-6 -1480 -22 -73
c-91 -297 -317 -517 -611 -593 -107 -28 -287 -28 -396 0 -323 84 -564 344
-620 668 -14 79 -15 255 -13 1429 4 1458 -1 1350 58 1506 32 86 44 97 125 107
81 11 153 39 280 109 240 134 457 144 677 32 99 -51 139 -83 244 -196 98 -106
138 -134 191 -134 52 0 57 11 38 71 -86 267 -336 480 -629 536 -106 20 -273
13 -376 -17 -103 -30 -233 -99 -312 -167 -37 -32 -99 -78 -138 -103 -77 -48
-198 -165 -256 -245 -71 -99 -138 -255 -164 -380 -7 -32 -13 -505 -16 -1309
-6 -1202 -7 -1263 -25 -1335 -70 -275 -293 -497 -574 -572 -105 -28 -344 -31
-447 -6 -230 56 -420 203 -521 403 l-26 51 20 33 c11 18 27 39 34 47 19 18 41
69 51 113 4 19 10 467 13 995 6 937 7 962 27 1025 38 117 91 203 171 274 126
113 254 159 443 159 227 0 343 -55 548 -261 81 -81 145 -117 192 -107 44 10
52 26 36 72 -82 232 -285 417 -535 485 -104 29 -364 32 -460 5 -163 -44 -264
-102 -375 -212 -94 -93 -153 -188 -199 -319 l-32 -91 -3 -1450 c-3 -1462 0
-1658 34 -1985 76 -743 270 -1444 560 -2023 532 -1062 1378 -1786 2434 -2082
422 -118 731 -159 1225 -159 344 0 467 8 780 49 1742 234 3341 1265 4093 2640
235 428 365 868 394 1333 14 211 8 277 -47 551 -58 284 -95 420 -346 1251
-261 861 -288 937 -388 1055 -28 33 -75 92 -104 130 -191 248 -454 412 -760
476 -100 21 -117 21 -1074 20 l-973 -2 0 589 c0 496 3 603 16 673 18 96 68
225 93 238 9 5 43 12 76 16 32 3 68 11 80 17 11 6 21 10 23 9 5 -4 131 58 175
86 55 35 162 78 228 92 87 19 233 14 319 -9 182 -51 329 -166 399 -312 69
-146 71 -163 71 -664 0 -289 3 -444 10 -444 6 0 10 -20 10 -44 0 -24 3 -46 8
-48 4 -1 16 -21 26 -43 11 -22 43 -62 70 -89 l50 -50 9 40 c4 21 6 298 5 614
-4 550 -5 578 -25 651 -43 154 -102 257 -212 373 -108 113 -244 192 -396 232
-96 25 -305 26 -394 1 -137 -37 -255 -98 -340 -174 -26 -22 -88 -68 -137 -102
-103 -68 -241 -207 -292 -294 -53 -89 -102 -210 -124 -310 -20 -85 -21 -129
-24 -567 l-3 -475 -508 -5 c-492 -6 -511 -7 -592 -29 -189 -52 -358 -147 -489
-276 -42 -41 -76 -73 -77 -72 0 1 2 434 5 962 l5 960 29 82 c17 50 35 85 45
88 9 3 42 12 74 20 73 19 159 63 267 135 47 31 99 64 115 72 118 61 296 83
429 54 124 -28 246 -95 336 -185 111 -111 155 -213 185 -432 25 -176 71 -259
143 -259 l34 0 -4 218 c-4 214 -4 218 -36 312 -116 338 -406 558 -756 574 -50
2 -107 2 -126 -1z m3495 -2516 c110 -20 214 -50 262 -74 32 -16 39 -27 67
-113 21 -61 49 -121 81 -168 127 -187 168 -270 232 -477 208 -670 449 -1486
482 -1632 75 -331 73 -313 68 -673 -4 -305 -6 -332 -30 -440 -95 -419 -213
-693 -450 -1047 -241 -359 -457 -617 -725 -867 -933 -868 -2181 -1398 -3502
-1487 -218 -14 -685 -6 -870 15 -675 79 -1267 297 -1762 647 -242 172 -508
418 -691 638 -325 392 -614 926 -786 1454 -152 469 -236 894 -286 1457 -19
205 -20 212 -98 396 -81 189 -81 184 11 114 102 -77 205 -131 317 -169 127
-42 239 -54 435 -48 137 4 181 10 260 31 251 70 481 238 615 449 27 42 51 77
54 77 3 -1 24 -31 46 -67 49 -81 208 -245 292 -302 195 -130 396 -191 628
-191 284 0 509 87 737 282 162 140 305 397 353 637 l7 33 72 -69 c162 -158
333 -253 547 -305 92 -22 107 -23 602 -23 279 0 507 0 507 -1 0 -1 -37 -24
-82 -50 -179 -102 -367 -263 -496 -423 -334 -415 -507 -986 -529 -1746 -5
-196 -4 -224 11 -253 47 -92 184 -95 243 -6 15 23 18 63 24 268 24 784 202
1320 559 1676 268 269 639 433 1120 495 69 9 240 20 380 26 140 5 272 14 292
20 100 26 129 152 53 229 l-35 35 -1283 5 c-1198 5 -1286 7 -1342 24 -268 80
-465 252 -564 491 -89 213 -82 473 19 681 118 243 361 424 625 463 34 5 805 8
1750 7 1540 -2 1698 -3 1780 -19z m-4280 -168 c39 -34 42 -50 21 -101 -17 -40
-41 -63 -56 -53 -10 6 -15 185 -5 185 2 0 20 -14 40 -31z m-3 -1146 c33 -30
19 -113 -19 -113 -9 0 -13 18 -13 65 0 36 3 65 7 65 3 0 15 -7 25 -17z m1956
-549 c32 -9 28 -40 -8 -59 -33 -17 -80 -20 -80 -4 0 5 -4 7 -10 4 -6 -4 -10 7
-10 25 0 18 4 29 10 25 6 -3 10 -1 10 4 0 12 51 14 88 5z"/>
</g>
</svg>
