<?xml version="1.0" standalone="no"?>
<!DOCTYPE svg PUBLIC "-//W3C//DTD SVG 20010904//EN"
 "http://www.w3.org/TR/2001/REC-SVG-20010904/DTD/svg10.dtd">
<svg version="1.0" xmlns="http://www.w3.org/2000/svg"
 width="2048.000000pt" height="2048.000000pt" viewBox="0 0 2048.000000 2048.000000"
 preserveAspectRatio="xMidYMid meet">
<metadata>
Created by potrace 1.13, written by Peter Selinger 2001-2015
</metadata>
<g transform="translate(0.000000,2048.000000) scale(0.192120,-0.192120)"
fill="#000000" stroke="none">
<path d="M4630 10314 c-92 -20 -183 -67 -243 -128 -29 -28 -79 -67 -111 -86
-79 -46 -192 -160 -239 -241 -21 -35 -50 -100 -65 -144 l-27 -80 -3 -1892 -3
-1893 43 5 c24 3 87 7 141 11 l97 6 0 1967 c0 1422 3 1983 11 2024 l12 56 51
10 c28 6 60 12 71 14 11 2 77 31 147 66 141 68 213 86 302 76 127 -14 217 -71
259 -165 41 -92 47 -136 47 -375 0 -221 12 -355 39 -444 25 -81 89 -141 151
-141 20 0 20 4 20 433 0 398 -2 439 -20 516 -40 165 -137 299 -262 360 -118
58 -279 75 -418 45z M3204 9681 c-78 -22 -145 -62 -214 -126 -30 -28 -77 -64
-105 -80 -27 -15 -86 -64 -130 -109 -87 -87 -136 -168 -176 -291 l-23 -70 -4
-1739 c-2 -1570 -1 -1738 13 -1726 8 7 70 29 138 49 l122 37 6 1804 c3 993 9
1817 13 1833 10 34 10 34 85 46 42 7 97 28 163 61 140 72 197 90 289 90 130 0
228 -40 342 -140 72 -64 142 -86 181 -57 17 12 17 17 -8 91 -60 177 -173 286
-343 330 -84 22 -268 20 -349 -3z M6078 9629 c-125 -14 -214 -54 -303 -138
-33 -32 -86 -73 -118 -92 -90 -52 -197 -170 -246 -270 -82 -169 -75 -18 -79
-1730 l-3 -1527 83 -6 c46 -4 109 -9 141 -12 l57 -6 0 1640 c0 1216 3 1654 12
1691 10 45 15 51 42 56 110 18 124 22 160 44 18 12 35 18 38 16 3 -3 32 11 64
30 87 53 150 68 258 63 74 -3 101 -9 148 -33 69 -34 89 -54 128 -130 l30 -59
0 -2178 c0 -1445 3 -2178 10 -2178 6 0 10 -15 10 -34 0 -38 25 -88 78 -153
l34 -42 -24 -6 c-12 -3 -102 -21 -198 -40 -749 -148 -1245 -421 -1659 -915
-414 -493 -621 -1049 -622 -1673 -1 -218 24 -335 83 -403 35 -40 66 -43 95
-11 51 56 75 136 108 371 30 211 45 283 86 431 164 582 495 1090 927 1423 358
275 841 461 1315 506 l67 7 19 -43 c44 -103 116 -151 226 -152 121 -1 243 63
372 195 125 129 140 153 296 464 155 308 232 423 391 580 101 100 158 144 164
127 3 -9 12 -6 33 8 46 33 209 107 274 125 150 40 328 27 437 -32 76 -42 88
-62 88 -152 -1 -100 -14 -124 -176 -313 -156 -182 -507 -623 -556 -699 -312
-477 -403 -682 -469 -1064 -110 -637 -355 -1186 -723 -1627 -232 -278 -645
-600 -995 -777 -438 -221 -879 -323 -1401 -324 -522 0 -951 99 -1405 323 -204
101 -334 180 -503 306 -255 191 -403 336 -572 559 -313 415 -505 856 -590
1358 -20 117 -20 161 -20 2502 l0 2382 26 39 c15 21 35 45 45 52 11 7 19 20
19 27 0 8 24 27 53 42 47 25 62 28 157 28 94 0 111 -3 163 -27 48 -23 145 -91
167 -119 3 -3 25 -18 49 -33 51 -33 123 -39 148 -13 15 14 14 22 -7 87 -55
172 -179 291 -347 335 -68 18 -239 20 -315 4 -187 -39 -328 -182 -385 -390
-17 -60 -18 -191 -18 -2344 0 -2409 -1 -2339 46 -2613 201 -1181 1050 -2181
2186 -2576 374 -129 694 -181 1108 -180 438 1 778 60 1155 201 1022 381 1812
1293 2099 2425 22 84 47 200 56 258 51 327 122 537 253 748 114 184 530 710
899 1138 86 101 110 151 119 254 7 73 -11 161 -47 232 -29 57 -131 157 -199
195 -337 192 -787 74 -1170 -307 -180 -179 -251 -283 -412 -610 -157 -317
-216 -416 -287 -483 -96 -90 -186 -117 -287 -86 -107 33 -184 111 -227 232 -9
24 -13 616 -17 2337 -5 2177 -6 2308 -23 2365 -44 147 -129 264 -240 329 -93
55 -242 81 -379 65z m-721 -5701 c-3 -8 -6 -5 -6 6 -1 11 2 17 5 13 3 -3 4
-12 1 -19z m-27 -9 c0 -6 -71 -81 -158 -167 -282 -282 -437 -495 -625 -864
l-62 -123 -3 95 -3 95 56 110 c144 285 458 650 701 813 78 52 94 59 94 41z"/>
</g>
</svg>
