<?xml version="1.0" standalone="no"?>
<!DOCTYPE svg PUBLIC "-//W3C//DTD SVG 20010904//EN"
 "http://www.w3.org/TR/2001/REC-SVG-20010904/DTD/svg10.dtd">
<svg version="1.0" xmlns="http://www.w3.org/2000/svg"
 width="2048.000000pt" height="2048.000000pt" viewBox="0 0 2048.000000 2048.000000"
 preserveAspectRatio="xMidYMid meet">
<metadata>
Created by potrace 1.13, written by Peter Selinger 2001-2015
</metadata>
<g transform="translate(0.000000,2048.000000) scale(0.192120,-0.192120)"
fill="#000000" stroke="none">
<path d="M4630 10314 c-92 -20 -183 -68 -243 -128 -29 -28 -79 -67 -111 -86
-78 -46 -192 -160 -239 -241 -21 -35 -50 -100 -65 -144 l-27 -80 -3 -1892 -2
-1892 67 5 c38 2 101 7 141 10 l72 6 0 1976 c0 2101 -1 2023 45 2140 16 39 17
40 78 45 72 6 104 13 121 25 6 5 29 15 51 22 22 7 45 16 51 21 23 19 133 39
210 39 161 0 273 -57 333 -170 57 -106 62 -140 71 -445 5 -159 13 -298 20
-321 17 -61 64 -114 101 -114 l29 0 0 360 c0 413 -6 465 -70 596 -109 223
-355 328 -630 268z M3210 9682 c-81 -21 -149 -60 -220 -127 -30 -28 -77 -64
-105 -80 -27 -15 -86 -65 -131 -110 -63 -63 -90 -100 -123 -166 -83 -169 -75
8 -79 -1938 -2 -1561 -1 -1733 13 -1721 9 7 70 29 138 49 l122 37 5 1809 c5
1730 6 1812 24 1865 36 107 39 110 106 110 49 0 80 8 164 44 57 25 131 50 165
57 121 23 271 -6 386 -77 33 -20 74 -44 90 -52 36 -19 90 -21 107 -4 19 19
-29 109 -97 178 -103 105 -210 144 -391 143 -69 0 -133 -6 -174 -17z M6084
9629 c-125 -12 -217 -52 -303 -133 -31 -29 -86 -71 -123 -95 -99 -63 -198
-172 -247 -272 -82 -169 -75 -18 -79 -1731 l-2 -1526 62 -6 c35 -3 98 -8 140
-11 l78 -6 2 1668 3 1668 22 65 c13 36 26 70 30 76 5 6 42 14 83 17 53 3 87
12 113 27 21 12 40 20 43 17 3 -3 27 5 53 18 103 52 225 59 349 20 100 -32
156 -79 200 -168 l32 -64 0 -2177 c0 -1928 2 -2176 15 -2176 11 0 15 -12 15
-45 0 -25 5 -45 10 -45 6 0 10 -6 10 -14 0 -7 22 -42 49 -77 27 -35 48 -65 46
-67 -2 -3 -88 -20 -190 -38 -812 -148 -1323 -420 -1754 -934 -232 -277 -388
-552 -495 -872 -73 -219 -111 -423 -126 -685 -14 -257 15 -442 81 -518 39 -44
69 -45 102 -5 50 59 76 160 112 430 22 160 90 429 151 594 104 283 292 612
472 826 157 188 370 374 572 500 107 67 334 177 464 225 213 79 583 155 751
155 l70 0 27 -45 c37 -61 79 -85 150 -85 139 0 298 114 431 308 20 30 88 158
151 285 166 335 276 495 453 656 86 79 196 157 201 143 1 -5 42 11 90 35 126
62 222 85 362 86 160 2 271 -35 363 -121 26 -25 27 -29 27 -135 0 -133 3 -127
-165 -322 -66 -77 -166 -196 -221 -265 -592 -737 -729 -976 -814 -1415 -96
-499 -188 -792 -352 -1120 -87 -172 -242 -411 -384 -590 -106 -134 -344 -372
-479 -480 -237 -190 -598 -395 -860 -488 -586 -210 -1243 -246 -1853 -102
-440 105 -888 322 -1232 599 -255 205 -372 323 -520 521 -122 164 -159 220
-249 372 -136 231 -246 502 -315 773 -71 286 -66 65 -66 2745 l0 2422 26 39
c15 21 33 43 40 47 8 4 14 14 14 22 0 21 55 62 117 86 46 18 78 22 158 22 119
0 173 -17 292 -95 61 -40 89 -52 128 -56 39 -3 54 0 65 13 12 15 10 25 -19 80
-58 112 -165 195 -298 229 -71 19 -237 21 -315 5 -187 -39 -325 -179 -385
-390 -17 -61 -18 -169 -18 -2349 0 -2157 1 -2293 18 -2425 102 -776 419 -1429
956 -1966 543 -543 1215 -866 1996 -960 160 -20 584 -17 760 4 1119 136 2068
818 2584 1857 165 333 287 700 336 1010 51 327 122 537 253 748 115 185 544
729 894 1132 40 47 84 109 96 137 44 103 37 245 -17 350 -54 106 -190 211
-337 259 -80 26 -102 29 -214 28 -138 0 -213 -15 -340 -67 -232 -94 -464 -278
-641 -507 -97 -126 -146 -210 -273 -472 -165 -341 -241 -449 -354 -507 -75
-38 -129 -44 -194 -22 -113 39 -183 107 -224 216 -18 48 -19 133 -24 2355 -5
2185 -6 2308 -24 2364 -88 290 -299 426 -612 395z"/>
</g>
</svg>
