<?xml version="1.0" standalone="no"?>
<!DOCTYPE svg PUBLIC "-//W3C//DTD SVG 20010904//EN"
 "http://www.w3.org/TR/2001/REC-SVG-20010904/DTD/svg10.dtd">
<svg version="1.0" xmlns="http://www.w3.org/2000/svg"
 width="2048.000000pt" height="2048.000000pt" viewBox="0 0 2048.000000 2048.000000"
 preserveAspectRatio="xMidYMid meet">
<metadata>
Created by potrace 1.13, written by Peter Selinger 2001-2015
</metadata>
<g transform="translate(0.000000,2048.000000) scale(0.192120,-0.192120)"
fill="#000000" stroke="none">
<path d="M4630 10314 c-92 -20 -183 -67 -243 -128 -29 -28 -79 -67 -111 -86
-79 -46 -192 -160 -239 -241 -21 -35 -50 -100 -65 -144 l-27 -80 -3 -1892 -3
-1893 43 5 c24 3 87 7 140 11 l98 6 2 1999 c3 1796 5 2000 19 2014 8 8 44 21
80 27 35 7 80 21 99 33 73 44 212 106 262 116 70 15 185 6 245 -21 59 -26 98
-62 125 -115 40 -76 48 -132 48 -325 1 -471 49 -642 185 -657 l45 -6 0 444 c0
410 -2 450 -20 528 -40 165 -137 299 -262 360 -118 58 -279 75 -418 45z M3204
9681 c-79 -22 -143 -60 -219 -130 -34 -31 -88 -72 -120 -91 -121 -74 -233
-223 -286 -385 l-23 -70 -3 -1738 -4 -1738 23 15 c13 8 75 30 138 48 l115 33
5 1805 c3 993 9 1813 13 1822 10 19 16 21 102 38 33 7 71 20 85 29 45 30 127
71 191 95 171 64 320 34 476 -95 86 -72 118 -89 160 -89 72 0 77 19 37 132
-63 174 -174 279 -341 322 -84 22 -268 20 -349 -3z M6078 9629 c-125 -14 -214
-54 -303 -138 -33 -32 -86 -73 -118 -92 -90 -52 -197 -170 -246 -270 -82 -168
-75 -18 -79 -1730 l-3 -1527 83 -6 c46 -4 109 -9 141 -12 l57 -6 0 1639 c0
1438 4 1700 22 1718 2 2 34 9 72 15 38 6 85 19 105 30 223 116 305 140 417
120 113 -19 170 -59 218 -150 l26 -50 0 -2180 c0 -1447 3 -2180 10 -2180 6 0
10 -16 10 -35 0 -31 14 -70 30 -85 3 -3 23 -29 44 -57 27 -38 34 -54 24 -58
-7 -2 -92 -20 -188 -40 -751 -149 -1245 -421 -1659 -915 -414 -493 -621 -1049
-622 -1673 -1 -218 24 -335 83 -403 35 -40 66 -43 95 -11 51 56 75 137 107
367 70 497 219 899 477 1280 390 578 971 945 1676 1059 65 11 142 22 171 24
l54 4 20 -46 c31 -72 66 -111 125 -138 48 -22 65 -25 137 -21 124 7 222 58
350 185 115 114 170 197 303 460 134 266 212 393 317 515 74 87 208 206 214
190 1 -5 33 8 70 31 159 96 290 137 441 137 138 -1 234 -28 295 -85 24 -22 26
-31 26 -100 0 -92 -15 -131 -79 -205 -189 -218 -560 -679 -648 -805 -22 -33
-129 -206 -200 -325 -143 -239 -224 -464 -273 -760 -106 -631 -375 -1215 -769
-1669 -59 -68 -313 -293 -450 -400 -673 -522 -1545 -732 -2421 -585 -507 85
-962 283 -1385 602 -285 215 -465 407 -673 719 -219 329 -386 750 -451 1142
-21 123 -21 143 -21 2513 0 2594 -4 2413 54 2467 14 14 26 30 26 37 0 18 77
52 144 65 123 22 233 -18 365 -135 72 -64 125 -89 174 -83 57 8 63 17 50 82
-39 183 -180 333 -358 380 -70 18 -240 20 -317 4 -187 -39 -328 -182 -385
-390 -17 -60 -18 -191 -18 -2344 0 -2409 -1 -2339 46 -2613 201 -1181 1050
-2181 2186 -2576 374 -129 694 -181 1108 -180 438 1 778 60 1155 201 1022 381
1812 1293 2099 2425 22 84 47 200 56 258 51 326 122 537 253 747 100 162 511
687 813 1039 178 207 194 236 205 354 7 73 -11 161 -47 232 -29 57 -131 157
-199 195 -337 192 -787 74 -1170 -307 -180 -179 -251 -283 -412 -610 -157
-317 -216 -416 -287 -483 -96 -90 -186 -117 -287 -86 -107 33 -184 111 -227
232 -9 24 -13 616 -17 2337 -5 2177 -6 2308 -23 2365 -44 147 -129 264 -240
329 -93 55 -242 81 -379 65z m-721 -5701 c-3 -8 -6 -5 -6 6 -1 11 2 17 5 13 3
-3 4 -12 1 -19z m-27 -10 c0 -7 -51 -60 -112 -118 -273 -257 -482 -541 -671
-912 l-62 -123 -3 94 c-3 93 -3 94 43 187 51 106 172 290 269 411 88 108 259
280 354 354 115 89 115 89 140 95 12 4 22 10 22 15 0 5 5 9 10 9 6 0 10 -6 10
-12z"/>
</g>
</svg>
