<?xml version="1.0" standalone="no"?>
<!DOCTYPE svg PUBLIC "-//W3C//DTD SVG 20010904//EN"
 "http://www.w3.org/TR/2001/REC-SVG-20010904/DTD/svg10.dtd">
<svg version="1.0" xmlns="http://www.w3.org/2000/svg"
 width="2048.000000pt" height="2048.000000pt" viewBox="0 0 2048.000000 2048.000000"
 preserveAspectRatio="xMidYMid meet">
<metadata>
Created by potrace 1.13, written by Peter Selinger 2001-2015
</metadata>
<g transform="translate(0.000000,2048.000000) scale(0.192120,-0.192120)"
fill="#000000" stroke="none">
<path d="M4630 10314 c-86 -18 -176 -63 -230 -116 -25 -24 -88 -72 -140 -108
-149 -103 -248 -237 -297 -405 -17 -56 -18 -179 -21 -1946 l-2 -1887 67 4 c38
3 101 7 141 10 l72 6 0 1977 c0 1916 1 1980 19 2053 11 41 29 95 41 120 21 45
22 45 78 51 73 7 95 13 124 28 48 26 155 60 223 69 54 8 90 7 153 -4 189 -33
284 -126 333 -326 15 -61 19 -115 19 -282 0 -114 4 -227 10 -250 5 -24 12 -55
15 -70 6 -34 49 -78 75 -78 19 0 20 9 20 325 0 373 -7 430 -70 561 -107 222
-355 328 -630 268z M3220 9684 c-86 -23 -157 -62 -223 -123 -34 -32 -84 -70
-112 -86 -27 -15 -86 -65 -131 -110 -63 -63 -90 -100 -123 -166 -83 -170 -75
9 -79 -1938 -2 -1561 -1 -1733 13 -1721 9 7 70 29 138 49 l122 37 5 1814 5
1815 27 73 c42 115 45 118 127 124 40 3 81 12 95 21 14 9 60 29 103 44 69 25
92 28 198 28 105 0 129 -4 194 -27 40 -15 93 -39 118 -53 62 -34 109 -46 139
-34 25 9 25 9 7 40 -56 97 -168 181 -282 211 -83 21 -264 23 -341 2z M5993
9615 c-80 -22 -149 -61 -217 -123 -35 -31 -88 -73 -120 -92 -58 -35 -160 -132
-197 -185 -36 -53 -87 -160 -105 -221 -17 -55 -19 -150 -21 -1591 l-3 -1531
62 -6 c35 -3 98 -8 141 -11 l77 -6 0 1648 c0 1801 -3 1691 57 1825 l26 58 56
0 c35 0 73 8 101 21 133 61 190 74 315 74 101 -1 129 -5 178 -24 93 -37 147
-86 192 -177 l40 -79 3 -2177 c1 -1431 6 -2178 12 -2178 6 0 10 -18 10 -40 0
-22 5 -40 10 -40 6 0 10 -5 10 -11 0 -6 21 -40 48 -76 l47 -65 3 394 c1 216 1
1244 -1 2283 -2 1789 -3 1893 -21 1949 -64 211 -199 346 -384 385 -73 15 -256
13 -319 -4z M1830 8434 c-184 -49 -308 -179 -367 -385 -17 -61 -18 -169 -18
-2339 0 -2400 -1 -2335 45 -2610 161 -952 740 -1796 1575 -2297 408 -245 856
-395 1360 -455 141 -16 563 -16 715 1 842 94 1577 484 2139 1136 425 493 709
1107 821 1770 47 281 110 473 215 658 96 169 488 676 846 1093 81 94 156 189
168 212 11 22 26 72 33 111 38 221 -111 425 -377 517 -72 25 -94 28 -210 28
-102 0 -148 -5 -211 -22 -316 -85 -623 -321 -846 -652 -43 -64 -122 -209 -200
-369 -71 -145 -149 -295 -175 -332 -80 -120 -167 -187 -270 -209 -40 -9 -58
-7 -105 9 -113 39 -186 110 -222 214 -9 26 -16 54 -16 62 0 21 -11 20 -229
-20 -742 -135 -1224 -368 -1627 -787 -410 -427 -657 -921 -734 -1473 -6 -44
-15 -149 -20 -232 -14 -255 15 -442 81 -518 89 -101 162 26 204 355 115 906
615 1679 1334 2064 331 177 718 285 1108 310 l93 6 22 -34 c32 -49 67 -66 132
-66 109 0 246 95 361 250 26 36 102 175 169 310 173 349 257 473 444 652 108
103 281 226 293 207 4 -7 19 -4 47 10 76 39 212 72 318 78 166 9 321 -38 412
-124 l42 -40 0 -124 0 -124 -34 -50 c-19 -28 -96 -122 -171 -210 -164 -192
-421 -511 -494 -615 -106 -151 -263 -408 -320 -525 -91 -185 -136 -332 -185
-615 -120 -679 -447 -1346 -861 -1755 -611 -602 -1212 -905 -1970 -991 -190
-21 -555 -21 -740 1 -584 69 -1122 285 -1589 639 -97 73 -318 264 -365 314
-59 64 -215 255 -268 327 -276 378 -479 850 -557 1300 -14 80 -16 355 -16
2526 l0 2435 30 45 c54 81 64 94 93 119 76 65 231 96 359 71 55 -11 226 -87
252 -112 15 -14 102 -11 115 4 8 11 4 25 -19 59 -65 98 -163 165 -282 193 -80
19 -256 18 -328 -1z"/>
</g>
</svg>
