<?xml version="1.0" standalone="no"?>
<!DOCTYPE svg PUBLIC "-//W3C//DTD SVG 20010904//EN"
 "http://www.w3.org/TR/2001/REC-SVG-20010904/DTD/svg10.dtd">
<svg version="1.0" xmlns="http://www.w3.org/2000/svg"
 width="2048.000000pt" height="2048.000000pt" viewBox="0 0 2048.000000 2048.000000"
 preserveAspectRatio="xMidYMid meet">
<metadata>
Created by potrace 1.13, written by Peter Selinger 2001-2015
</metadata>
<g transform="translate(0.000000,2048.000000) scale(0.192120,-0.192120)"
fill="#000000" stroke="none">
<path d="M4630 10314 c-92 -20 -183 -67 -243 -128 -29 -28 -78 -67 -111 -86
-120 -72 -239 -212 -287 -339 -51 -135 -49 -69 -49 -2056 l0 -1854 53 5 c28 2
91 6 140 10 l87 6 0 1976 c0 2069 0 2034 41 2124 10 22 19 26 81 32 38 3 86
15 106 25 20 10 39 19 42 19 3 1 35 15 72 31 212 97 465 37 539 -128 52 -114
59 -162 59 -401 0 -305 22 -429 85 -478 15 -12 41 -22 56 -22 l29 0 0 380 c0
435 -6 484 -70 616 -109 223 -355 328 -630 268z M3208 9681 c-83 -23 -147 -60
-218 -126 -30 -28 -77 -64 -105 -80 -27 -15 -86 -65 -131 -110 -63 -63 -90
-100 -123 -166 -82 -169 -75 7 -78 -1938 -3 -1563 -2 -1733 12 -1721 8 7 70
29 138 49 l122 37 5 1809 c5 1722 6 1813 23 1865 10 30 24 60 30 67 7 6 41 13
76 14 49 2 77 10 125 35 33 18 97 45 141 59 72 24 90 27 180 22 123 -5 186
-28 299 -105 61 -42 92 -56 126 -60 74 -7 78 10 30 106 -64 128 -167 210 -307
246 -84 22 -258 20 -345 -3z M6084 9629 c-128 -12 -218 -53 -309 -138 -33 -32
-86 -73 -118 -92 -90 -52 -197 -170 -246 -270 -82 -169 -75 -18 -79 -1731 l-2
-1526 77 -6 c43 -4 106 -9 140 -12 l63 -6 2 1669 c3 1557 4 1671 20 1718 10
28 21 55 25 61 5 7 40 13 78 15 44 2 82 10 101 22 18 10 42 20 54 22 11 2 36
13 53 24 119 72 326 68 449 -10 47 -30 61 -48 108 -129 l25 -45 3 -2182 c1
-1434 6 -2183 12 -2183 6 0 10 -20 10 -45 0 -25 5 -45 10 -45 6 0 10 -6 10
-14 0 -8 23 -42 51 -75 34 -41 46 -62 37 -66 -7 -2 -89 -18 -183 -35 -790
-144 -1306 -420 -1734 -930 -334 -398 -532 -834 -601 -1325 -19 -135 -28 -384
-19 -487 12 -122 41 -218 80 -263 36 -41 67 -45 96 -13 51 57 75 137 108 373
54 376 137 649 291 957 136 272 283 478 494 689 204 204 374 327 630 455 279
139 662 244 945 260 l100 6 30 -53 c43 -76 81 -99 166 -99 112 0 215 53 329
169 101 102 148 176 278 437 132 263 207 385 316 513 106 126 314 302 323 274
2 -6 32 5 68 24 262 139 571 134 728 -11 26 -24 27 -29 27 -132 0 -130 3 -124
-168 -324 -136 -159 -438 -534 -519 -645 -47 -65 -143 -215 -251 -395 -128
-213 -204 -430 -257 -730 -67 -387 -186 -743 -357 -1070 -193 -369 -376 -599
-708 -890 -524 -461 -1096 -712 -1775 -781 -172 -17 -512 -14 -680 5 -581 69
-1107 278 -1560 620 -316 239 -534 473 -745 801 -191 297 -339 662 -423 1044
l-32 146 -3 2410 c-2 1627 0 2422 7 2445 6 20 26 54 44 75 18 22 36 47 40 57
3 9 36 31 74 50 65 31 73 33 178 32 129 0 159 -11 298 -106 99 -67 150 -82
192 -54 l25 16 -20 51 c-56 142 -173 243 -327 283 -79 21 -250 21 -328 1 -188
-49 -313 -178 -372 -386 -17 -61 -18 -169 -18 -2344 0 -2409 -1 -2328 46
-2610 159 -945 740 -1792 1574 -2292 728 -437 1599 -576 2447 -392 776 169
1474 640 1967 1327 196 274 369 618 486 967 49 147 110 386 130 515 51 329
121 536 253 748 114 184 547 732 894 1132 85 99 115 161 124 257 12 128 -31
240 -130 338 -71 71 -140 113 -251 151 -72 25 -94 28 -210 28 -146 0 -215 -14
-355 -71 -277 -113 -559 -365 -743 -663 -25 -41 -98 -182 -161 -312 -165 -341
-241 -449 -354 -507 -77 -39 -127 -44 -199 -20 -109 36 -183 112 -226 232 -9
24 -13 617 -17 2337 -5 2185 -6 2308 -24 2365 -86 288 -300 425 -612 394z
m-1101 -6033 c-42 -50 -79 -97 -105 -134 -13 -17 -54 -75 -92 -128 -39 -53
-78 -112 -89 -132 -40 -75 -62 -76 -46 -1 17 76 136 235 289 385 66 65 95 72
43 10z"/>
</g>
</svg>
