<?xml version="1.0" standalone="no"?>
<!DOCTYPE svg PUBLIC "-//W3C//DTD SVG 20010904//EN"
 "http://www.w3.org/TR/2001/REC-SVG-20010904/DTD/svg10.dtd">
<svg version="1.0" xmlns="http://www.w3.org/2000/svg"
 width="2048.000000pt" height="2048.000000pt" viewBox="0 0 2048.000000 2048.000000"
 preserveAspectRatio="xMidYMid meet">
<metadata>
Created by potrace 1.13, written by Peter Selinger 2001-2015
</metadata>
<g transform="translate(0.000000,2048.000000) scale(0.192120,-0.192120)"
fill="#000000" stroke="none">
<path d="M4685 9515 c-197 -37 -338 -135 -407 -281 -38 -82 -62 -210 -55 -299
4 -46 122 -514 342 -1350 357 -1360 567 -2155 585 -2219 l12 -38 22 21 c13 12
36 45 51 72 24 45 27 61 26 137 -1 105 46 -80 -557 2214 l-264 1007 0 175 0
175 30 35 c68 77 186 119 333 119 78 -1 95 -4 152 -32 96 -48 146 -118 193
-276 11 -38 192 -711 402 -1495 209 -784 392 -1463 407 -1508 31 -97 59 -140
135 -205 73 -62 130 -86 238 -98 102 -11 184 -1 234 30 57 36 144 134 161 181
9 25 135 652 281 1394 302 1541 296 1512 329 1574 28 55 65 111 65 99 0 -4 15
3 33 16 52 40 118 57 220 57 109 0 181 -17 245 -59 88 -57 92 -68 92 -293 l0
-195 -256 -1379 c-234 -1258 -257 -1391 -261 -1514 -5 -149 4 -188 68 -294 17
-26 24 -46 17 -43 -68 28 -208 67 -271 76 -52 7 -410 11 -1065 11 -940 0 -991
-1 -1067 -19 -172 -42 -289 -106 -407 -224 -164 -164 -248 -364 -248 -592 0
-173 61 -359 160 -483 22 -28 40 -57 40 -63 0 -22 -80 -119 -132 -160 -112
-88 -212 -123 -353 -123 -81 1 -114 6 -171 26 -190 67 -329 225 -370 419 -12
60 -14 206 -12 968 3 826 5 900 21 949 14 41 22 52 40 53 84 2 117 13 254 80
179 89 280 96 417 30 70 -34 115 -73 151 -135 46 -79 49 -99 56 -411 3 -165
10 -318 15 -340 17 -78 53 -116 132 -140 l22 -6 0 403 c0 330 -3 415 -15 462
-63 242 -289 416 -538 416 -142 0 -267 -53 -380 -159 -39 -37 -101 -85 -137
-106 -123 -74 -221 -195 -279 -343 l-26 -67 -5 -830 c-6 -919 -2 -865 -73
-999 -167 -314 -641 -371 -890 -106 -83 87 -89 107 -49 157 81 104 82 114 82
810 l0 593 27 66 c39 99 117 175 207 203 157 48 262 23 468 -111 61 -40 124
-48 158 -20 l25 20 -26 54 c-56 114 -181 219 -308 259 -93 29 -269 29 -362 0
-160 -51 -296 -186 -352 -351 -21 -64 -22 -71 -25 -900 -4 -1030 7 -1278 69
-1594 246 -1248 1197 -2259 2422 -2576 303 -78 517 -105 842 -104 313 0 497
26 790 111 891 258 1675 999 1974 1866 87 253 124 464 125 712 1 181 -7 235
-74 505 -36 143 -333 1122 -359 1182 -31 73 -151 248 -220 321 -36 38 -109 98
-163 134 -56 37 -97 71 -94 78 21 56 636 3406 636 3468 0 152 -58 298 -159
397 -116 114 -235 155 -436 147 -92 -3 -133 -9 -177 -26 -124 -48 -234 -163
-287 -301 -21 -55 -104 -458 -315 -1540 -158 -806 -290 -1483 -294 -1505 l-8
-40 -50 2 c-124 5 -308 23 -314 30 -4 4 -203 744 -444 1643 -346 1296 -444
1650 -473 1708 -46 94 -142 198 -222 241 -107 57 -221 71 -356 46z m3021
-4489 l52 -19 22 -81 c12 -45 40 -119 62 -166 88 -185 92 -197 298 -875 51
-165 108 -365 127 -445 35 -140 36 -153 40 -372 5 -254 -3 -342 -47 -518 -76
-302 -230 -620 -420 -869 -83 -109 -381 -405 -520 -517 -282 -226 -606 -398
-946 -504 -595 -185 -1311 -144 -1954 112 -261 104 -555 273 -782 450 -106 83
-349 308 -409 379 -368 437 -592 896 -709 1454 -30 141 -56 216 -111 321 -26
49 -54 106 -62 126 l-15 35 107 -54 c142 -72 230 -93 390 -93 192 0 326 38
471 135 63 42 162 138 207 200 l22 30 17 -25 c33 -48 160 -166 224 -208 182
-118 423 -161 630 -112 107 26 266 103 347 169 56 46 139 138 162 179 9 15 17
13 78 -20 130 -70 155 -73 631 -73 l423 0 -38 -30 c-21 -16 -82 -72 -136 -125
-376 -364 -618 -934 -667 -1569 -14 -189 -13 -240 8 -281 36 -73 123 -100 189
-60 60 36 67 58 75 232 26 592 224 1111 560 1464 100 105 223 195 353 259 144
71 231 94 385 104 151 9 183 22 212 88 23 52 19 97 -13 137 -42 53 -6 51 -909
56 l-845 5 -67 26 c-90 35 -155 78 -220 147 -105 110 -150 222 -151 372 0 108
17 182 66 275 42 80 146 182 227 222 130 65 55 62 1380 60 1154 -2 1207 -3
1256 -21z m-1462 -1292 c23 -9 20 -22 -11 -52 -40 -39 -81 -56 -96 -40 -25 26
-38 69 -26 84 12 14 103 20 133 8z"/>
</g>
</svg>
