<?xml version="1.0" standalone="no"?>
<!DOCTYPE svg PUBLIC "-//W3C//DTD SVG 20010904//EN"
 "http://www.w3.org/TR/2001/REC-SVG-20010904/DTD/svg10.dtd">
<svg version="1.0" xmlns="http://www.w3.org/2000/svg"
 width="2048.000000pt" height="2048.000000pt" viewBox="0 0 2048.000000 2048.000000"
 preserveAspectRatio="xMidYMid meet">
<metadata>
Created by potrace 1.13, written by Peter Selinger 2001-2015
</metadata>
<g transform="translate(0.000000,2048.000000) scale(0.192120,-0.192120)"
fill="#000000" stroke="none">
<path d="M4685 9515 c-139 -26 -253 -83 -326 -163 -95 -104 -133 -212 -133
-377 0 -108 2 -118 101 -490 56 -209 255 -965 443 -1680 188 -715 350 -1331
361 -1368 20 -68 21 -69 41 -50 11 10 31 40 45 67 23 45 25 59 21 140 -5 102
29 -32 -499 1978 l-319 1217 0 165 c0 150 2 168 21 201 48 81 173 135 329 142
91 4 113 2 164 -17 99 -38 167 -115 213 -244 8 -23 192 -705 409 -1516 439
-1641 419 -1568 450 -1631 25 -50 103 -126 168 -164 91 -52 298 -59 378 -12
70 41 141 124 161 187 9 30 136 665 282 1410 146 745 273 1384 281 1419 24
106 61 177 118 227 73 64 126 79 271 79 146 -1 207 -21 284 -93 l51 -48 0
-230 0 -229 -252 -1355 c-230 -1244 -251 -1366 -255 -1490 l-5 -135 48 -95 48
-95 13 45 c27 97 623 3351 623 3403 0 264 -161 476 -407 533 -99 23 -288 15
-365 -15 -162 -63 -286 -227 -327 -431 -14 -74 -560 -2864 -569 -2915 l-8 -40
-50 2 c-124 5 -308 23 -314 30 -4 4 -203 744 -444 1643 -346 1294 -444 1650
-473 1708 -46 94 -142 198 -222 241 -107 57 -221 71 -356 46z M4088 6424 c-91
-21 -175 -70 -249 -142 -38 -37 -89 -78 -114 -92 -139 -76 -245 -203 -308
-369 -21 -55 -22 -72 -27 -886 -5 -764 -7 -834 -24 -885 -88 -270 -334 -421
-622 -382 -127 17 -230 69 -316 160 -35 38 -75 89 -87 115 l-22 46 46 62 c25
34 48 73 50 88 3 14 10 40 15 57 6 18 10 264 10 606 0 552 1 577 20 634 39
112 115 199 206 235 48 19 77 23 159 23 115 -1 164 -15 264 -76 101 -61 165
-72 215 -35 17 12 17 16 3 43 -48 93 -181 199 -296 235 -93 29 -269 29 -362 0
-160 -51 -296 -186 -352 -351 -21 -65 -22 -71 -25 -905 -4 -1064 7 -1288 79
-1631 257 -1236 1211 -2231 2436 -2540 491 -123 999 -136 1430 -34 638 150
1209 505 1639 1019 396 473 618 1015 640 1561 7 162 -6 256 -71 525 -37 152
-333 1136 -364 1207 -30 70 -143 238 -206 306 -150 162 -357 272 -570 302 -56
8 -380 10 -1090 8 -1116 -4 -1050 0 -1201 -68 -245 -110 -438 -359 -485 -624
-15 -86 -7 -270 15 -351 23 -82 97 -231 140 -282 20 -22 36 -47 36 -55 0 -26
-108 -145 -169 -186 -235 -157 -531 -123 -719 83 -60 65 -93 120 -124 205
l-23 65 0 930 0 930 23 65 c13 36 28 71 34 78 6 7 36 12 76 12 49 0 78 6 116
25 174 83 190 89 274 93 206 11 359 -94 416 -288 13 -43 16 -106 16 -326 0
-171 4 -275 10 -279 6 -3 10 -21 10 -39 0 -18 9 -45 20 -58 19 -25 76 -58 99
-58 8 0 11 111 11 383 0 426 -2 446 -66 568 -70 132 -223 247 -372 278 -70 15
-173 13 -244 -5z m3580 -1389 c53 -13 134 -46 152 -62 3 -3 8 -46 11 -96 5
-71 13 -108 36 -162 40 -92 70 -177 147 -425 35 -113 89 -275 121 -360 57
-153 83 -252 124 -465 19 -99 21 -144 21 -465 -1 -363 -1 -364 -43 -520 -148
-541 -574 -1113 -1092 -1467 -178 -122 -426 -250 -625 -323 -144 -53 -378
-112 -535 -136 -184 -29 -636 -26 -835 5 -401 62 -763 183 -1096 368 -770 427
-1335 1174 -1529 2023 -55 242 -66 277 -117 374 -89 172 -120 237 -116 241 2
3 28 -12 57 -31 149 -101 294 -144 480 -144 193 0 325 38 470 134 64 43 163
138 208 201 l22 30 17 -25 c33 -49 162 -169 224 -209 71 -46 189 -94 288 -117
83 -20 278 -14 367 10 166 46 352 169 444 293 25 34 49 62 54 62 4 1 25 -10
46 -24 118 -74 251 -89 719 -83 193 3 352 4 352 3 0 -1 -26 -22 -57 -47 -73
-58 -206 -193 -273 -278 -307 -386 -492 -927 -515 -1506 -6 -139 -5 -151 14
-182 43 -68 125 -91 188 -52 60 36 67 58 75 229 12 265 54 499 129 723 159
478 435 832 784 1003 136 68 236 94 390 104 146 9 178 23 207 88 23 52 19 97
-13 137 -46 58 -7 56 -887 56 -773 0 -812 1 -886 20 -109 28 -169 63 -257 150
-115 114 -163 232 -162 396 2 255 180 474 432 533 20 5 567 9 1216 10 1009 1
1189 -1 1243 -14z"/>
</g>
</svg>
