<?xml version="1.0" standalone="no"?>
<!DOCTYPE svg PUBLIC "-//W3C//DTD SVG 20010904//EN"
 "http://www.w3.org/TR/2001/REC-SVG-20010904/DTD/svg10.dtd">
<svg version="1.0" xmlns="http://www.w3.org/2000/svg"
 width="2048.000000pt" height="2048.000000pt" viewBox="0 0 2048.000000 2048.000000"
 preserveAspectRatio="xMidYMid meet">
<metadata>
Created by potrace 1.13, written by Peter Selinger 2001-2015
</metadata>
<g transform="translate(0.000000,2048.000000) scale(0.192120,-0.192120)"
fill="#000000" stroke="none">
<path d="M4685 9515 c-139 -26 -253 -83 -326 -163 -95 -104 -133 -212 -133
-377 l0 -110 418 -1585 c465 -1766 493 -1871 508 -1918 l10 -34 25 24 c70 65
101 168 83 280 -11 74 -135 556 -574 2228 l-246 935 0 164 0 165 49 47 c41 40
65 53 136 75 75 23 98 26 179 22 143 -8 212 -52 275 -177 36 -70 -15 113 455
-1642 222 -828 414 -1526 426 -1551 21 -46 104 -135 170 -183 57 -42 132 -59
255 -60 126 0 144 6 237 87 64 55 88 90 112 160 8 26 128 622 266 1325 277
1415 293 1496 317 1568 49 152 169 223 357 212 113 -6 194 -35 247 -88 l39
-39 0 -222 0 -222 -252 -1355 c-233 -1256 -252 -1366 -256 -1492 -4 -132 -3
-137 25 -200 16 -35 42 -84 57 -108 23 -37 25 -43 10 -36 -11 4 -50 18 -89 31
-154 54 -158 54 -1233 54 -979 0 -996 0 -1086 -21 -160 -38 -281 -105 -399
-223 -252 -253 -319 -622 -168 -940 21 -45 57 -104 79 -133 23 -29 42 -58 42
-64 0 -22 -80 -119 -132 -160 -111 -87 -215 -123 -353 -123 -154 1 -260 44
-376 152 -67 62 -117 139 -151 232 l-23 65 0 925 c0 850 1 930 17 981 l18 56
77 6 c67 5 92 13 179 56 146 72 190 84 282 79 122 -7 238 -69 287 -153 60
-102 65 -133 65 -441 0 -178 4 -285 10 -289 6 -3 10 -19 10 -35 0 -16 4 -40 9
-54 10 -26 77 -70 124 -81 l27 -7 0 404 c0 330 -3 415 -15 462 -63 242 -289
416 -538 416 -142 0 -267 -53 -380 -159 -39 -37 -101 -85 -137 -106 -123 -74
-221 -195 -279 -343 l-26 -67 -5 -830 c-6 -918 -3 -866 -72 -997 -162 -305
-618 -372 -872 -128 -35 33 -71 76 -81 94 -18 32 -18 36 -2 58 59 80 87 131
87 156 0 15 4 32 10 38 6 6 10 246 12 629 l3 620 26 56 c50 107 134 177 237
198 131 27 238 0 377 -95 56 -39 80 -49 123 -52 57 -5 102 11 102 35 0 28 -53
117 -98 166 -61 66 -149 122 -231 148 -93 30 -269 30 -362 0 -161 -51 -296
-186 -352 -351 -21 -64 -22 -72 -25 -900 -4 -849 4 -1137 34 -1374 172 -1351
1159 -2466 2479 -2801 985 -251 1926 -42 2685 596 582 489 957 1165 1021 1839
20 217 1 386 -80 695 -41 157 -326 1093 -350 1147 -31 73 -151 247 -220 321
-52 55 -207 173 -249 188 -5 3 12 117 44 284 199 1044 584 3160 584 3207 0 83
-26 192 -65 274 -61 127 -188 224 -342 260 -99 23 -288 15 -365 -15 -129 -50
-240 -170 -292 -314 -16 -45 -134 -625 -311 -1527 -156 -800 -287 -1474 -291
-1498 -4 -23 -10 -45 -14 -47 -8 -5 -247 12 -319 23 l-44 7 -23 85 c-12 47
-210 785 -439 1640 -329 1229 -423 1570 -452 1628 -46 94 -142 198 -222 241
-107 57 -221 71 -356 46z m3020 -4490 l50 -20 25 -100 c14 -55 38 -124 54
-153 54 -105 108 -262 241 -697 225 -739 218 -704 213 -1077 -5 -289 -5 -295
-36 -413 -79 -306 -228 -616 -420 -875 -76 -102 -382 -406 -517 -514 -360
-287 -766 -480 -1193 -565 -188 -38 -326 -51 -526 -51 -816 0 -1564 299 -2182
871 -402 372 -729 950 -858 1519 -62 268 -73 304 -144 428 -23 40 -50 92 -60
116 l-20 43 107 -54 c142 -72 230 -93 390 -93 192 0 326 38 471 135 63 42 162
138 207 200 l22 30 17 -25 c31 -46 158 -165 218 -204 186 -122 425 -166 636
-116 107 26 266 103 347 169 56 46 139 138 162 179 9 15 17 13 78 -20 130 -70
155 -73 631 -73 232 0 422 0 422 -1 0 -1 -26 -21 -57 -46 -68 -54 -203 -190
-267 -269 -285 -355 -474 -872 -516 -1408 -14 -189 -13 -240 8 -281 36 -73
123 -100 189 -60 59 36 67 58 75 226 24 518 169 964 427 1312 140 188 299 325
486 417 138 68 237 95 390 104 146 9 178 22 207 88 23 52 19 97 -13 137 -42
53 -6 51 -909 56 l-845 5 -67 26 c-90 35 -155 78 -220 147 -105 110 -150 221
-151 372 -1 143 39 256 131 368 65 80 190 155 301 182 20 4 578 7 1241 7 1185
-2 1206 -2 1255 -22z m-1509 -1330 c-8 -8 -22 -15 -30 -15 -9 0 -16 7 -16 15
0 10 10 15 31 15 27 0 29 -2 15 -15z"/>
</g>
</svg>
