<?xml version="1.0" standalone="no"?>
<!DOCTYPE svg PUBLIC "-//W3C//DTD SVG 20010904//EN"
 "http://www.w3.org/TR/2001/REC-SVG-20010904/DTD/svg10.dtd">
<svg version="1.0" xmlns="http://www.w3.org/2000/svg"
 width="2048.000000pt" height="2048.000000pt" viewBox="0 0 2048.000000 2048.000000"
 preserveAspectRatio="xMidYMid meet">
<metadata>
Created by potrace 1.13, written by Peter Selinger 2001-2015
</metadata>
<g transform="translate(0.000000,2048.000000) scale(0.192120,-0.192120)"
fill="#000000" stroke="none">
<path d="M4685 9515 c-139 -26 -253 -83 -326 -163 -95 -104 -133 -212 -133
-377 l0 -110 448 -1700 c246 -935 457 -1734 470 -1776 l23 -77 -56 -12 c-102
-23 -232 -91 -308 -163 l-33 -31 0 430 c0 478 -2 492 -66 615 -44 84 -147 185
-232 228 -218 110 -474 68 -644 -105 -34 -36 -90 -79 -123 -97 -72 -39 -178
-143 -224 -220 -18 -32 -45 -88 -60 -125 l-26 -67 -5 -830 c-5 -766 -7 -834
-24 -885 -79 -241 -284 -390 -536 -390 -147 0 -294 57 -385 150 l-48 49 34 53
c73 111 72 95 78 823 l6 650 28 61 c56 121 146 178 282 178 100 -1 164 -24
259 -97 108 -82 122 -89 189 -94 108 -9 117 31 40 180 -23 43 -58 88 -100 127
-113 106 -216 144 -388 143 -131 -1 -211 -23 -301 -82 -108 -71 -186 -171
-227 -291 -22 -65 -22 -70 -25 -900 -4 -1037 6 -1273 69 -1590 247 -1261 1200
-2269 2444 -2585 985 -251 1926 -42 2685 596 577 485 955 1161 1019 1823 23
230 9 366 -69 676 -37 146 -332 1121 -359 1182 -30 72 -146 240 -218 318 -38
41 -106 98 -162 135 l-97 65 18 90 c100 505 618 3349 618 3395 -1 265 -161
473 -407 531 -99 23 -288 15 -365 -15 -129 -50 -240 -170 -292 -314 -21 -57
-510 -2510 -592 -2972 -9 -49 -20 -93 -23 -98 -7 -7 -206 7 -315 21 l-49 7
-439 1640 c-348 1300 -446 1655 -475 1713 -46 94 -142 198 -222 241 -107 57
-221 71 -356 46z m211 -300 c94 -28 160 -110 197 -246 9 -30 189 -702 401
-1494 399 -1487 415 -1544 446 -1605 24 -47 158 -173 224 -210 62 -36 163 -54
272 -48 71 4 89 9 129 35 63 41 171 148 200 198 28 48 19 3 290 1390 311 1589
306 1571 360 1641 75 98 291 122 436 48 77 -39 79 -45 79 -274 l0 -200 -256
-1378 c-216 -1161 -257 -1396 -261 -1497 l-5 -120 39 -91 40 -91 -91 26 -91
26 -1033 3 -1033 3 19 27 c55 78 64 111 60 211 -5 108 33 -44 -496 1961 l-325
1235 -5 165 c-3 157 -3 167 18 193 67 85 257 131 386 92z m-532 -3069 c71 -35
114 -79 150 -156 l31 -65 3 -300 c1 -165 6 -309 11 -320 5 -11 12 -38 15 -59
3 -21 16 -50 28 -64 25 -27 112 -72 140 -72 13 0 0 -21 -45 -78 -82 -102 -119
-167 -158 -282 -27 -81 -33 -113 -37 -220 -3 -104 -1 -140 17 -215 25 -105 84
-231 141 -303 22 -28 40 -57 40 -63 0 -22 -80 -119 -133 -161 -130 -103 -298
-146 -449 -115 -120 24 -201 68 -289 156 -54 54 -85 96 -108 144 -63 132 -62
118 -59 1103 2 619 6 896 14 904 6 6 37 15 70 20 41 6 101 31 199 81 77 40
158 78 180 86 61 20 175 10 239 -21z m3246 -1102 c24 -5 35 -15 47 -43 37 -88
78 -170 111 -225 83 -138 108 -205 256 -693 236 -780 218 -696 223 -1036 5
-302 -2 -363 -63 -575 -74 -254 -255 -610 -401 -787 -136 -164 -408 -420 -587
-552 -303 -224 -672 -392 -1036 -473 -395 -88 -858 -77 -1304 29 -516 124
-1006 390 -1420 773 -128 119 -225 231 -340 392 -116 163 -172 256 -252 416
-133 266 -197 458 -284 850 -15 67 -40 133 -86 226 -35 73 -64 134 -64 137 0
3 32 -8 70 -24 221 -93 490 -94 695 -4 121 54 254 162 332 270 l22 30 17 -25
c33 -48 160 -166 224 -208 130 -84 291 -132 450 -132 246 0 508 129 653 321
l50 66 56 -34 c124 -75 240 -88 716 -80 l350 6 -40 -32 c-87 -68 -241 -227
-314 -324 -284 -376 -447 -836 -491 -1377 -14 -182 -13 -235 8 -276 36 -73
123 -100 189 -60 60 36 67 58 75 232 35 796 390 1467 913 1723 143 70 231 94
385 104 151 10 183 23 212 87 29 67 10 132 -49 171 -25 17 -87 18 -873 23
l-845 5 -59 23 c-209 79 -347 245 -376 454 -39 274 139 540 410 612 47 12 232
15 1221 15 642 1 1181 -2 1199 -5z m-4062 -1067 c6 -7 14 -32 18 -55 6 -37 4
-42 -19 -53 -18 -8 -30 -8 -46 1 -18 9 -21 17 -15 48 6 35 29 72 44 72 4 0 12
-6 18 -13z m1319 -69 c-3 -7 -5 -2 -5 12 0 14 2 19 5 13 2 -7 2 -19 0 -25z
m1418 -168 c12 -20 -6 -46 -56 -80 -69 -47 -109 -63 -113 -47 -2 7 -11 34 -19
62 -11 35 -13 53 -5 62 13 16 184 18 193 3z"/>
</g>
</svg>
