<?xml version="1.0" standalone="no"?>
<!DOCTYPE svg PUBLIC "-//W3C//DTD SVG 20010904//EN"
 "http://www.w3.org/TR/2001/REC-SVG-20010904/DTD/svg10.dtd">
<svg version="1.0" xmlns="http://www.w3.org/2000/svg"
 width="2048.000000pt" height="2048.000000pt" viewBox="0 0 2048.000000 2048.000000"
 preserveAspectRatio="xMidYMid meet">
<metadata>
Created by potrace 1.13, written by Peter Selinger 2001-2015
</metadata>
<g transform="translate(0.000000,2048.000000) scale(0.192120,-0.192120)"
fill="#000000" stroke="none">
<path d="M8621 10305 c-75 -21 -162 -69 -213 -119 -24 -23 -440 -497 -926
-1054 -485 -556 -895 -1024 -911 -1039 -20 -20 -668 -761 -727 -832 -2 -2 -56
14 -121 35 -115 38 -122 39 -263 39 -200 0 -482 -53 -854 -160 -807 -232
-1492 -531 -1673 -729 -286 -312 -815 -1553 -884 -2072 -12 -94 -2 -191 27
-263 14 -33 13 -37 -20 -86 -113 -170 -169 -373 -146 -521 6 -38 21 -94 34
-125 l22 -56 -63 -104 c-93 -152 -327 -622 -368 -739 -38 -110 -60 -220 -71
-348 l-6 -84 -128 -196 c-199 -308 -352 -569 -464 -792 -145 -290 -191 -445
-151 -506 16 -24 21 -26 74 -22 165 12 555 276 1108 750 138 118 166 138 195
138 53 0 265 29 363 51 109 24 229 81 312 148 l61 51 7 -68 c21 -228 96 -366
234 -430 72 -34 179 -41 268 -18 50 13 71 14 114 5 88 -19 170 -4 305 57 6 3
22 -26 38 -69 70 -193 203 -311 379 -336 112 -16 246 13 336 72 20 13 78 36
129 50 241 69 326 167 394 453 87 369 99 411 138 492 106 222 306 313 615 282
240 -24 416 -75 984 -285 471 -173 670 -240 887 -295 298 -77 531 -106 779
-97 471 17 825 171 1093 477 252 288 438 713 502 1148 15 107 18 189 18 522 1
290 -3 414 -13 465 -103 539 -781 1241 -1910 1977 -316 206 -750 462 -1053
620 l-155 81 6 -62 c7 -82 41 -147 98 -188 24 -17 54 -40 65 -51 12 -10 116
-72 230 -137 1139 -646 2006 -1332 2349 -1858 76 -118 146 -268 157 -342 5
-33 12 -120 15 -192 3 -73 8 -133 13 -133 4 0 10 -66 13 -148 4 -88 18 -222
36 -336 17 -104 31 -209 31 -233 0 -89 -99 -294 -205 -423 -142 -174 -341
-294 -666 -401 -369 -122 -577 -164 -879 -178 -706 -33 -1450 133 -1875 418
-50 33 -153 118 -230 188 -379 349 -554 501 -723 626 -586 432 -1117 574
-1618 431 -49 -14 -156 -58 -239 -99 -174 -86 -303 -178 -475 -339 -128 -121
-173 -154 -263 -196 -136 -64 -316 -82 -442 -45 -33 9 -69 18 -81 19 -24 1
-136 -125 -187 -213 -19 -31 -82 -121 -141 -201 -60 -80 -160 -218 -224 -307
-64 -90 -117 -161 -119 -159 -6 5 65 181 103 257 55 110 304 541 336 582 30
37 93 77 123 77 24 0 18 13 -20 38 -18 13 -41 35 -50 48 -15 24 -15 26 14 60
17 19 33 47 37 62 3 15 10 37 15 50 5 13 9 95 9 183 0 168 -3 155 61 324 12
33 22 83 23 112 1 43 -4 59 -32 98 l-33 46 50 62 c62 78 329 340 441 434 320
267 675 463 1125 623 173 61 382 103 1035 210 407 66 645 112 878 170 442 109
826 261 1012 402 225 169 198 328 -62 373 -46 7 -47 0 -13 -73 16 -35 25 -72
25 -104 0 -43 -4 -53 -32 -79 -55 -51 -110 -85 -244 -153 -273 -138 -593 -250
-959 -335 -130 -30 -837 -162 -842 -157 -6 6 168 48 439 106 578 124 771 193
1057 380 242 158 407 302 670 584 225 241 2469 2809 2517 2881 58 87 78 156
78 275 1 164 -42 266 -163 386 -68 68 -154 126 -230 155 -74 28 -232 36 -310
14z m292 -303 c36 -18 83 -52 106 -77 l41 -45 0 -123 0 -123 -37 -62 c-21 -34
-274 -332 -563 -663 -289 -331 -588 -674 -665 -763 -77 -89 -264 -303 -415
-476 -501 -572 -611 -707 -684 -833 -15 -26 -60 -91 -101 -145 -40 -53 -101
-151 -135 -217 -34 -66 -69 -127 -79 -135 -429 -357 -667 -461 -1361 -594
-266 -51 -320 -60 -370 -60 -32 -1 -35 2 -38 29 -3 26 7 41 65 99 42 41 105
89 163 123 52 31 112 70 134 87 21 16 177 188 346 380 443 506 446 510 597
636 107 89 178 161 317 320 99 113 263 299 365 413 102 115 195 223 206 241
26 43 702 817 764 876 27 25 235 259 463 520 228 261 438 497 468 523 92 83
159 108 272 104 62 -3 89 -10 141 -35z m-3103 -2768 c0 -19 -918 -1064 -943
-1074 -12 -5 -96 -25 -187 -46 -357 -79 -808 -219 -949 -296 -567 -305 -1208
-868 -1528 -1340 -37 -54 -68 -96 -70 -94 -5 5 70 210 105 286 16 36 75 157
129 270 55 113 109 225 121 250 34 77 59 132 92 210 18 41 51 113 72 160 22
47 60 126 83 176 111 235 252 470 338 562 114 121 383 269 756 416 529 209
1186 396 1501 426 124 13 315 50 408 79 67 22 72 23 72 15z m-1029 -1181 c-12
-22 -280 -332 -398 -460 l-84 -93 -72 6 c-131 11 -434 -62 -862 -207 -33 -11
-64 -21 -70 -22 -5 -1 -13 -6 -17 -12 -5 -6 -8 -4 -8 5 0 13 -1 13 -10 0 -8
-13 -10 -13 -10 1 0 17 54 69 126 121 23 16 47 40 53 52 17 31 242 178 370
242 59 29 180 76 271 105 91 29 171 59 178 66 7 7 20 13 27 13 20 0 242 73
305 101 30 13 89 41 130 61 41 20 76 37 78 37 1 1 -2 -7 -7 -16z m-811 -2427
c0 -8 7 -16 15 -20 16 -6 20 -43 7 -63 -4 -6 -50 -21 -102 -32 -286 -63 -528
-183 -725 -361 -126 -114 -232 -151 -405 -142 l-64 4 95 32 c119 40 174 74
319 196 254 214 385 292 615 364 106 33 245 46 245 22z m444 -101 c175 -23
322 -65 578 -166 128 -51 294 -114 368 -141 l135 -49 -68 5 c-54 4 -96 17
-195 60 -200 85 -351 125 -561 147 -141 15 -439 7 -571 -16 -133 -22 -131 -21
-123 -53 17 -66 4 -79 -147 -159 -58 -31 -118 -66 -135 -77 l-30 -21 22 30
c25 36 134 164 281 332 l107 122 112 1 c62 0 164 -7 227 -15z m-666 -183 c5
-34 -31 -80 -111 -142 -165 -128 -367 -344 -462 -493 -222 -346 -268 -403
-381 -466 -130 -72 -172 -104 -334 -252 -197 -180 -283 -249 -367 -295 -129
-71 -259 -163 -428 -305 -257 -214 -494 -392 -548 -412 -28 -10 -21 45 14 115
41 82 159 278 317 531 122 194 242 411 242 437 0 27 88 183 171 304 188 273
325 460 352 480 19 14 42 20 70 19 503 -15 674 22 878 192 101 84 199 151 294
205 71 39 254 111 275 107 8 -1 16 -13 18 -25z m1402 -143 c64 -43 120 -93
120 -108 0 -19 -38 -31 -97 -31 -64 0 -83 11 -83 48 0 12 -11 40 -25 60 -55
80 -12 96 85 31z m-335 -35 c155 -20 223 -34 236 -50 9 -11 8 -14 -5 -14 -32
0 -231 -73 -344 -126 -343 -162 -584 -382 -689 -629 -47 -109 -63 -193 -73
-363 -13 -235 -62 -377 -187 -540 -52 -68 -153 -162 -174 -162 -5 0 -41 16
-80 36 -66 34 -77 36 -172 38 -153 3 -204 35 -274 169 -41 78 -87 120 -155
143 -26 8 -48 17 -48 19 0 2 24 38 54 79 72 101 130 222 222 466 94 250 145
369 184 424 16 22 84 104 152 181 115 130 128 142 208 182 155 79 407 144 628
163 131 10 370 3 517 -16z m575 -274 c144 -42 251 -162 296 -333 14 -55 12
-67 -15 -67 -33 0 -239 -70 -352 -120 -213 -94 -309 -166 -384 -289 -85 -141
-147 -387 -180 -721 -10 -105 -25 -171 -53 -233 l-26 -59 -45 9 c-73 13 -140
7 -226 -20 -170 -54 -225 -45 -355 61 -82 65 -148 104 -204 118 -25 6 -23 9
67 104 177 187 247 344 317 713 46 241 163 445 363 632 71 67 112 96 182 130
200 98 437 126 615 75z m547 -290 c82 -74 162 -147 179 -161 41 -34 58 -65 42
-76 -15 -9 -35 -7 -148 12 -47 8 -114 18 -150 22 -83 10 -86 16 -94 206 -6
128 -5 147 8 140 8 -4 81 -69 163 -143z m-2745 -92 c-5 -7 -49 -89 -98 -183
-128 -249 -169 -303 -221 -292 -15 3 -35 8 -43 12 -12 4 -21 -11 -39 -67 -30
-95 -102 -244 -138 -287 -24 -28 -43 -37 -118 -56 -50 -13 -151 -46 -225 -74
-74 -27 -135 -49 -137 -47 -2 2 54 56 124 121 71 65 228 215 351 332 122 117
227 213 231 213 5 0 78 77 161 170 84 94 155 170 157 170 3 0 1 -6 -5 -12z
m6178 -338 c0 -25 -32 -69 -91 -125 -195 -185 -422 -275 -768 -307 -229 -20
-543 14 -791 88 -52 15 -96 31 -98 36 -2 4 -12 8 -23 8 -12 0 -19 7 -19 18 0
16 22 17 373 17 410 0 494 7 737 66 169 40 457 130 555 172 82 36 125 45 125
27z m-1800 -269 c0 -6 -4 -13 -10 -16 -5 -3 -10 1 -10 9 0 9 5 16 10 16 6 0
10 -4 10 -9z"/>
</g>
</svg>
