<?xml version="1.0" standalone="no"?>
<!DOCTYPE svg PUBLIC "-//W3C//DTD SVG 20010904//EN"
 "http://www.w3.org/TR/2001/REC-SVG-20010904/DTD/svg10.dtd">
<svg version="1.0" xmlns="http://www.w3.org/2000/svg"
 width="2048.000000pt" height="2048.000000pt" viewBox="0 0 2048.000000 2048.000000"
 preserveAspectRatio="xMidYMid meet">
<metadata>
Created by potrace 1.13, written by Peter Selinger 2001-2015
</metadata>
<g transform="translate(0.000000,2048.000000) scale(0.192120,-0.192120)"
fill="#000000" stroke="none">
<path d="M8621 10305 c-75 -21 -162 -69 -213 -119 -24 -23 -441 -497 -926
-1054 -486 -557 -894 -1023 -907 -1035 -20 -20 -609 -692 -695 -795 l-35 -41
-115 37 c-111 35 -120 36 -265 37 -167 0 -253 -12 -534 -77 -748 -172 -1697
-544 -1950 -765 -103 -90 -212 -258 -366 -563 -280 -556 -523 -1227 -566
-1562 -13 -96 -3 -181 28 -257 13 -33 12 -37 -21 -86 -147 -222 -188 -457
-113 -643 l24 -61 -32 -48 c-102 -153 -354 -658 -406 -814 -39 -117 -69 -272
-69 -362 0 -44 -8 -61 -95 -193 -224 -340 -390 -622 -514 -874 -131 -264 -175
-418 -136 -476 16 -24 21 -26 74 -22 165 12 555 276 1108 750 154 132 163 138
205 138 55 0 237 26 353 51 109 24 229 81 312 148 l61 50 7 -72 c21 -224 97
-362 234 -425 72 -34 179 -41 269 -18 53 14 73 15 122 5 91 -18 157 -5 296 57
6 3 22 -26 38 -69 52 -144 137 -244 251 -298 142 -67 332 -53 464 34 20 13 78
36 129 50 241 69 326 167 394 453 87 369 99 411 138 492 106 222 306 313 615
282 240 -24 416 -75 984 -285 471 -173 670 -240 887 -295 506 -130 921 -133
1294 -9 165 55 306 136 449 260 316 272 571 800 635 1310 20 166 21 849 1 954
-119 621 -988 1444 -2416 2291 -205 121 -490 280 -612 340 -53 27 -97 53 -97
58 0 6 18 28 39 51 91 94 2266 2594 2297 2640 58 87 78 156 78 275 1 164 -42
266 -163 386 -68 68 -154 126 -230 155 -74 28 -232 36 -310 14z m292 -303 c36
-18 83 -52 106 -77 l41 -45 0 -123 0 -123 -37 -62 c-30 -48 -745 -878 -1358
-1576 -641 -729 -865 -1021 -865 -1128 0 -18 13 -42 36 -68 l36 -40 -26 -35
c-48 -63 -231 -258 -331 -354 -306 -291 -616 -489 -930 -594 -161 -53 -263
-79 -570 -142 -295 -61 -466 -105 -621 -160 -71 -26 -138 -49 -149 -52 -14 -5
-6 9 25 44 122 136 642 729 1017 1158 231 264 438 500 460 524 l40 45 31 -23
c50 -35 92 -37 154 -7 118 57 177 114 507 491 96 110 229 261 296 335 66 74
262 297 434 495 172 198 334 380 360 405 27 25 235 259 463 520 228 261 438
497 468 523 92 83 159 108 272 104 62 -3 89 -10 141 -35z m-3538 -2973 c13
-20 -61 -119 -255 -341 -107 -122 -214 -246 -238 -275 -55 -68 -92 -148 -99
-217 l-6 -53 -131 -33 c-172 -43 -539 -148 -695 -199 -208 -68 -440 -206 -784
-464 -371 -278 -673 -577 -944 -933 l-23 -29 24 65 c33 91 64 157 220 470 75
152 136 279 136 282 0 3 47 107 104 230 258 558 356 710 533 829 228 155 835
398 1373 552 138 40 155 43 158 27 3 -15 16 -14 145 18 288 70 467 96 482 71z
m1623 -564 c48 -25 101 -54 117 -64 17 -10 122 -70 236 -133 457 -256 968
-591 1344 -882 425 -329 745 -645 924 -911 69 -104 151 -275 151 -316 0 -13 5
-40 11 -59 6 -19 17 -150 25 -290 7 -140 18 -300 23 -355 6 -55 10 -215 11
-355 l0 -255 -37 -63 c-135 -228 -361 -387 -719 -507 -429 -144 -677 -187
-1069 -188 -686 0 -1311 155 -1720 428 -44 29 -179 144 -300 255 -473 435
-707 619 -987 776 -731 410 -1388 339 -1973 -216 -153 -145 -213 -187 -322
-225 l-65 -23 -57 43 c-62 49 -127 70 -245 81 -82 7 -121 -6 -150 -51 l-17
-26 -40 23 c-22 12 -47 30 -55 40 -15 16 -13 21 28 67 55 61 58 75 58 293 0
155 2 172 26 235 94 252 96 268 35 354 l-42 60 39 47 c73 86 346 346 457 435
276 221 554 381 890 515 187 74 281 105 418 137 101 24 183 38 657 116 983
162 1424 276 1828 476 238 116 362 232 362 337 0 45 -4 53 -43 91 -29 28 -63
47 -103 60 l-59 18 35 15 c91 38 168 61 203 62 25 0 65 -14 125 -45z m-2729
-654 c27 -17 -106 -217 -183 -276 -23 -17 -65 -34 -118 -46 -156 -35 -371
-107 -564 -189 -65 -28 -127 -53 -136 -55 -9 -2 -27 -9 -39 -15 -25 -14 -79
-24 -79 -16 0 33 306 254 538 389 133 76 225 115 412 173 152 47 150 47 169
35z m216 -2295 c157 -29 296 -72 556 -175 140 -55 297 -116 349 -135 79 -29
89 -35 60 -35 -57 -1 -112 16 -248 74 -297 127 -643 171 -1032 131 -69 -7
-126 -12 -127 -11 -2 1 8 17 22 35 27 37 33 91 12 108 -15 12 -58 -34 -487
-528 -538 -618 -680 -777 -717 -806 -21 -15 -132 -119 -248 -230 -175 -168
-340 -320 -452 -418 -22 -18 -23 -18 -76 13 -121 69 -151 54 -684 -355 -163
-124 -265 -196 -295 -207 -29 -10 -22 45 13 116 18 34 121 212 231 394 109
183 215 367 234 408 49 109 46 147 -22 250 -9 14 -13 33 -9 44 8 27 190 289
333 481 64 85 128 178 144 205 15 28 60 89 100 138 55 65 78 86 93 83 11 -2
47 -11 80 -20 32 -9 86 -16 120 -16 33 0 92 -9 130 -20 108 -31 225 -42 310
-31 120 17 172 42 281 137 253 219 532 345 859 387 75 10 385 -1 470 -17z
m479 -217 c5 8 13 8 27 1 10 -6 19 -9 19 -6 0 2 20 -2 44 -9 24 -8 47 -11 50
-8 3 4 6 1 6 -5 0 -7 7 -12 14 -12 8 0 28 -12 43 -26 15 -15 44 -38 63 -53 19
-14 40 -31 47 -37 6 -6 35 -26 64 -45 67 -43 99 -72 99 -91 0 -11 -8 -14 -27
-10 -16 2 -93 6 -173 7 -172 3 -210 13 -210 56 0 18 -5 29 -14 29 -31 0 -228
-75 -342 -130 -308 -149 -535 -355 -644 -583 -56 -117 -78 -214 -89 -395 -6
-87 -17 -183 -25 -214 -38 -141 -118 -287 -204 -371 l-50 -49 -73 22 c-56 17
-109 23 -214 27 -128 4 -143 6 -189 31 -43 23 -57 39 -98 112 -52 93 -110 152
-164 170 -19 6 -34 15 -34 20 0 5 22 44 48 87 59 95 95 171 167 351 31 75 59
142 63 148 4 5 43 37 87 71 96 73 286 268 402 413 89 111 120 161 148 233 16
44 18 45 98 70 291 92 638 108 1008 48 63 -10 115 -17 117 -16 2 1 -5 11 -15
20 -10 10 -28 32 -40 49 -13 16 -23 26 -23 21 0 -4 -9 2 -20 15 -19 22 -18 32
5 56 6 8 12 8 16 2 4 -7 9 -6 13 1z m343 -390 c152 -20 260 -94 331 -227 34
-64 66 -172 54 -182 -4 -4 -45 -17 -92 -29 -172 -45 -426 -159 -533 -240 -162
-122 -250 -356 -307 -822 -19 -153 -33 -223 -49 -241 -3 -4 -38 -10 -76 -13
-43 -4 -120 -23 -200 -51 -75 -25 -149 -44 -174 -44 -57 0 -133 38 -209 104
-35 29 -90 68 -122 85 -33 18 -60 35 -60 38 0 3 26 33 58 67 67 72 117 145
167 246 54 107 82 195 121 388 39 197 73 294 143 410 105 175 267 342 400 411
120 62 286 105 433 110 20 0 72 -4 115 -10z m586 -256 c219 -201 237 -218 237
-239 0 -16 -72 -19 -135 -4 -22 5 -71 11 -110 15 -138 13 -151 25 -157 150 -4
83 -30 177 -69 247 -33 62 33 14 234 -169z m-1493 -9 c0 -3 -12 -26 -27 -52
-16 -26 -33 -56 -40 -67 -36 -61 -114 -229 -136 -290 -13 -38 -34 -115 -46
-170 -13 -55 -31 -125 -41 -155 l-19 -55 2 240 2 240 40 64 c45 72 165 205
210 233 30 18 55 24 55 12z m4905 -524 c-89 -128 -292 -249 -513 -304 -165
-42 -246 -50 -447 -49 -140 1 -221 6 -310 21 -137 24 -288 61 -293 74 -2 4
-12 8 -23 8 -12 0 -19 7 -19 19 0 18 15 19 318 24 324 5 434 15 619 56 150 33
416 114 623 190 69 25 82 14 45 -39z m-6550 -222 c-19 -62 -49 -118 -58 -109
-6 6 3 31 23 70 34 63 46 77 35 39z m4935 -4 c0 -2 -7 -4 -15 -4 -8 0 -15 4
-15 10 0 5 7 7 15 4 8 -4 15 -8 15 -10z"/>
</g>
</svg>
