<?xml version="1.0" standalone="no"?>
<!DOCTYPE svg PUBLIC "-//W3C//DTD SVG 20010904//EN"
 "http://www.w3.org/TR/2001/REC-SVG-20010904/DTD/svg10.dtd">
<svg version="1.0" xmlns="http://www.w3.org/2000/svg"
 width="2048.000000pt" height="2048.000000pt" viewBox="0 0 2048.000000 2048.000000"
 preserveAspectRatio="xMidYMid meet">
<metadata>
Created by potrace 1.13, written by Peter Selinger 2001-2015
</metadata>
<g transform="translate(0.000000,2048.000000) scale(0.192120,-0.192120)"
fill="#000000" stroke="none">
<path d="M8621 10305 c-75 -21 -162 -69 -213 -119 -24 -23 -440 -497 -926
-1054 -485 -556 -895 -1024 -911 -1039 -16 -16 -183 -206 -372 -423 -1197
-1375 -1337 -1533 -1349 -1525 -23 14 -450 -94 -795 -201 -230 -72 -325 -116
-540 -254 -594 -379 -1124 -886 -1381 -1320 -26 -44 -49 -79 -50 -77 -9 8 41
178 78 266 22 53 95 211 163 351 67 140 139 293 160 340 20 47 43 99 50 115 8
17 39 89 70 160 82 187 234 482 313 609 118 188 178 243 415 378 460 264 1483
600 2019 663 68 7 145 19 171 25 89 20 237 71 232 80 -3 5 -38 20 -78 32 -62
20 -92 23 -222 22 -209 -1 -471 -51 -880 -169 -774 -224 -1458 -521 -1636
-712 -280 -299 -804 -1516 -884 -2052 -17 -111 -11 -204 19 -287 14 -40 13
-43 -15 -85 -113 -166 -172 -377 -149 -525 6 -38 21 -94 34 -125 l22 -56 -63
-104 c-73 -120 -314 -593 -350 -689 -44 -116 -73 -243 -79 -340 l-5 -95 49
125 c58 147 134 301 227 460 37 63 93 159 124 213 105 180 147 226 233 251 14
4 6 16 -38 61 l-54 56 30 42 c45 63 60 137 60 297 0 134 1 143 35 236 42 117
45 172 11 236 l-24 46 63 78 c84 106 364 378 500 487 267 215 617 413 955 541
252 95 425 136 922 216 621 101 867 147 1153 220 727 185 1177 439 1124 634
-15 55 -84 107 -161 121 l-37 7 2 -99 c2 -94 1 -101 -26 -136 -40 -53 -181
-143 -367 -234 -310 -151 -570 -241 -922 -317 -219 -47 -839 -164 -908 -171
l-55 -6 50 21 c77 31 233 74 420 115 94 20 262 57 375 82 342 75 565 157 775
285 262 160 459 325 701 585 70 76 151 163 179 193 117 123 2350 2689 2381
2735 58 87 78 156 78 275 1 164 -42 266 -163 386 -68 68 -154 126 -230 155
-74 28 -232 36 -310 14z m292 -303 c36 -18 83 -52 106 -77 l41 -45 0 -123 0
-123 -37 -62 c-21 -34 -274 -332 -563 -663 -289 -331 -590 -677 -670 -769 -80
-92 -296 -340 -480 -551 -343 -392 -560 -648 -640 -754 -25 -33 -90 -114 -145
-181 -55 -66 -126 -153 -158 -192 -65 -81 -173 -170 -332 -277 -254 -169 -466
-251 -880 -339 -167 -36 -250 -50 -300 -50 -52 -1 -45 34 22 96 32 30 91 86
132 124 41 38 229 247 419 464 190 217 425 476 522 575 97 99 271 288 386 420
114 132 265 303 334 380 70 77 133 152 141 166 18 34 695 810 758 869 27 25
235 259 463 520 228 261 438 497 468 523 92 83 159 108 272 104 62 -3 89 -10
141 -35z m-4063 -3868 c0 -12 -522 -608 -566 -645 -18 -16 -23 -15 -79 3 -45
15 -76 18 -125 14 -74 -6 -332 -70 -491 -121 -59 -19 -125 -36 -148 -37 -22
-2 -41 -6 -41 -9 0 -3 -7 -6 -15 -6 -26 0 -16 20 48 89 108 116 369 267 586
339 69 23 133 47 141 54 8 7 62 27 120 45 101 31 335 144 490 239 66 40 80 46
80 35z M6974 6683 c4 -31 16 -72 27 -90 31 -49 142 -127 339 -238 390 -219
820 -493 820 -523 1 -10 36 -42 87 -77 617 -431 1007 -758 1260 -1060 135
-161 262 -357 305 -475 50 -134 58 -187 58 -397 0 -211 5 -252 48 -363 13 -36
35 -93 48 -127 l23 -61 -24 -99 c-76 -313 -226 -542 -460 -700 -154 -105 -428
-212 -775 -302 -194 -50 -323 -69 -548 -80 -580 -28 -1209 82 -1647 289 -199
94 -285 156 -545 395 -453 416 -642 568 -899 723 -771 465 -1446 408 -2062
-174 -127 -120 -187 -165 -279 -208 -136 -64 -302 -79 -439 -40 -31 9 -65 17
-77 18 -25 1 -136 -126 -189 -215 -19 -32 -74 -112 -123 -176 -403 -535 -848
-1227 -1056 -1643 -145 -291 -191 -445 -151 -506 16 -24 21 -26 74 -22 237 17
965 577 1836 1412 116 111 228 216 250 233 47 36 255 272 853 963 97 112 217
249 266 304 l90 99 155 -6 c269 -10 419 -47 802 -197 129 -51 284 -110 344
-131 l110 -39 -65 4 c-42 3 -91 16 -140 37 -239 101 -368 138 -563 164 -151
19 -403 19 -554 0 -170 -23 -161 -19 -156 -68 6 -54 -10 -72 -168 -173 -65
-42 -119 -77 -119 -79 0 -2 39 9 86 25 207 70 424 103 674 103 230 0 547 -39
557 -68 1 -6 -50 -27 -115 -48 -150 -49 -352 -146 -484 -233 -124 -83 -297
-249 -361 -349 -97 -152 -134 -277 -147 -498 -4 -83 -15 -180 -24 -214 -53
-204 -185 -397 -345 -505 -36 -24 -41 -23 -102 19 -52 36 -58 38 -159 43 -99
5 -108 8 -160 41 -64 41 -67 45 -109 124 -43 79 -84 121 -139 140 -25 8 -49
15 -54 15 -13 0 -9 -120 7 -188 33 -137 110 -242 213 -290 73 -33 182 -41 269
-18 50 13 71 14 114 5 88 -19 170 -4 305 57 6 3 22 -26 38 -69 33 -90 93 -184
149 -233 150 -130 387 -143 567 -29 21 13 58 29 82 34 266 61 369 170 440 467
87 369 99 411 138 492 106 222 306 313 615 282 240 -24 416 -75 984 -285 471
-173 670 -240 887 -295 506 -130 921 -133 1294 -9 161 54 310 139 448 258 322
279 581 821 642 1346 6 53 9 257 7 500 l-3 410 -28 90 c-15 50 -49 136 -76
192 -264 556 -1046 1248 -2190 1939 -305 185 -750 434 -775 434 -4 0 -5 -26
-1 -57z m-2976 -3039 c28 -6 32 -11 38 -51 3 -24 4 -46 1 -49 -2 -3 -60 -16
-128 -30 -315 -64 -510 -163 -785 -397 -77 -65 -144 -94 -248 -107 -77 -10
-209 2 -271 23 l-39 14 84 6 c184 14 274 55 467 216 243 202 416 299 638 357
89 23 183 30 243 18z m1153 -474 c12 0 59 -49 59 -61 0 -5 -9 -13 -20 -19 -24
-13 -60 3 -60 25 0 8 -4 15 -9 15 -11 0 -24 48 -16 61 4 5 13 3 21 -6 9 -8 20
-15 25 -15z m-1721 -58 c0 -3 -12 -21 -27 -41 -16 -19 -35 -45 -43 -57 -8 -12
-55 -72 -105 -132 -49 -60 -145 -181 -212 -268 -149 -194 -199 -247 -333 -353
-57 -45 -199 -170 -315 -276 -199 -183 -246 -222 -475 -393 -52 -38 -169 -132
-260 -207 -255 -212 -490 -389 -542 -408 -29 -10 -22 45 13 115 39 78 163 285
286 481 177 280 196 311 260 430 83 154 129 224 292 451 231 322 252 347 288
362 28 12 61 12 201 3 197 -14 403 -7 486 16 92 26 182 76 291 164 55 44 116
88 135 99 34 18 60 24 60 14z m1960 -222 c144 -42 251 -162 296 -333 14 -55
12 -67 -15 -67 -63 0 -380 -123 -519 -202 -227 -128 -332 -358 -387 -848 -20
-184 -38 -266 -70 -334 -34 -72 -41 -77 -95 -64 -68 15 -137 11 -210 -14 -44
-16 -89 -23 -140 -23 -69 0 -81 3 -133 35 -31 19 -71 48 -89 65 -54 51 -91 73
-165 98 l-71 23 89 83 c180 167 279 365 334 670 30 166 53 239 111 357 99 199
288 401 449 479 200 98 437 126 615 75z m628 -383 c169 -154 177 -170 68 -156
-162 22 -283 40 -295 44 -11 4 -12 26 -7 113 4 59 9 126 12 150 l6 42 37 -32
c20 -17 100 -90 179 -161z m3356 -369 c-24 -47 -149 -167 -230 -220 -122 -81
-266 -135 -469 -175 -69 -13 -140 -18 -310 -18 -264 0 -443 23 -630 82 -131
41 -165 57 -165 74 0 15 13 16 118 11 330 -15 658 -3 862 34 203 36 654 172
757 228 15 8 40 15 56 16 l28 0 -17 -32z M3136 2342 c-125 -214 -157 -261
-202 -307 -41 -41 -50 -45 -93 -45 -48 0 -48 0 -60 -42 -22 -76 -109 -242
-156 -295 -40 -45 -52 -53 -103 -64 -31 -6 -88 -23 -127 -36 -97 -35 -307
-125 -302 -130 8 -7 324 36 389 52 235 61 405 213 529 473 37 77 201 503 196
508 -1 1 -33 -50 -71 -114z"/>
</g>
</svg>
