<?xml version="1.0" standalone="no"?>
<!DOCTYPE svg PUBLIC "-//W3C//DTD SVG 20010904//EN"
 "http://www.w3.org/TR/2001/REC-SVG-20010904/DTD/svg10.dtd">
<svg version="1.0" xmlns="http://www.w3.org/2000/svg"
 width="2048.000000pt" height="2048.000000pt" viewBox="0 0 2048.000000 2048.000000"
 preserveAspectRatio="xMidYMid meet">
<metadata>
Created by potrace 1.13, written by Peter Selinger 2001-2015
</metadata>
<g transform="translate(0.000000,2048.000000) scale(0.192120,-0.192120)"
fill="#000000" stroke="none">
<path d="M6095 9746 c-74 -34 -131 -103 -157 -190 -514 -1695 -918 -3002 -929
-3008 -8 -4 -570 -213 -1249 -464 -679 -250 -1252 -466 -1272 -479 -104 -68
-149 -221 -97 -335 22 -49 79 -114 119 -135 32 -16 2486 -925 2499 -925 6 0
19 -30 30 -67 41 -141 873 -2952 896 -3029 43 -141 142 -224 269 -224 32 0 77
5 98 12 44 13 131 86 152 127 11 20 314 1040 942 3163 3 9 16 19 30 22 38 10
2453 905 2484 921 174 90 187 362 22 470 -20 13 -586 227 -1257 475 -671 248
-1234 457 -1251 464 -21 10 -34 24 -38 43 -18 72 -920 3021 -932 3044 -21 41
-108 114 -152 127 -65 20 -150 15 -207 -12z m157 -267 c11 -6 31 -35 44 -66
13 -30 211 -665 439 -1412 228 -747 422 -1378 431 -1402 56 -141 166 -264 289
-324 39 -18 554 -212 1145 -430 591 -219 1095 -407 1119 -419 65 -31 73 -49
36 -85 -38 -37 2 -22 -1213 -472 -563 -208 -1054 -393 -1090 -410 -85 -41
-224 -177 -263 -259 -39 -79 -14 2 -449 -1470 -221 -745 -410 -1382 -421
-1414 -50 -147 -104 -190 -161 -128 -50 53 -35 6 -514 1621 -241 815 -415
1384 -432 1415 -42 79 -165 197 -243 234 -37 18 -527 203 -1090 411 -1253 465
-1181 437 -1219 474 -35 35 -35 45 6 69 16 9 524 199 1129 423 605 224 1132
422 1170 440 110 53 216 169 268 295 15 36 133 414 263 840 578 1902 592 1945
625 2012 31 61 81 83 131 57z M1854 9664 c-54 -19 -120 -76 -144 -125 -11 -21
-75 -186 -141 -366 -67 -181 -122 -329 -123 -330 -1 -2 -153 -58 -337 -126
-184 -68 -348 -131 -365 -140 -36 -19 -86 -73 -110 -120 -10 -17 -19 -64 -22
-102 -6 -92 21 -158 89 -219 43 -39 80 -55 396 -171 l349 -128 129 -349 c112
-305 134 -355 169 -395 108 -123 300 -125 408 -5 45 50 35 28 182 427 l118
320 187 69 c102 38 259 95 348 128 179 66 235 103 275 181 48 96 31 227 -42
310 -47 53 -65 61 -461 207 l-306 112 -118 322 c-65 176 -129 342 -141 367
-59 120 -211 179 -340 133z m162 -281 c36 -39 42 -51 129 -283 42 -112 88
-227 102 -255 53 -105 158 -216 246 -262 16 -8 138 -55 271 -105 132 -49 250
-98 261 -109 15 -15 17 -24 10 -46 -13 -36 -97 -78 -312 -158 -234 -86 -285
-114 -375 -205 -87 -89 -110 -128 -180 -319 -115 -312 -159 -391 -221 -391
-21 0 -40 11 -64 36 -45 48 -54 66 -139 295 -88 237 -107 277 -174 357 -67 81
-145 131 -288 186 -64 25 -177 68 -250 96 -133 52 -182 84 -182 120 0 11 10
26 23 34 12 8 137 58 277 110 274 103 332 134 403 219 69 83 91 129 181 369
83 226 109 280 147 312 43 37 101 36 135 -1z M3067 3926 c-57 -21 -112 -63
-142 -108 -20 -29 -61 -168 -157 -517 -71 -262 -133 -479 -136 -482 -4 -3
-153 -59 -331 -124 -178 -66 -343 -131 -367 -147 -54 -34 -99 -102 -115 -174
-23 -103 27 -224 114 -279 23 -15 190 -82 371 -149 l330 -122 131 -525 c113
-450 137 -533 163 -571 123 -178 399 -149 482 52 7 16 70 258 139 537 l127
507 265 98 c430 159 423 156 469 202 50 49 66 78 81 145 21 100 -28 222 -110
277 -23 15 -190 82 -373 149 -239 89 -334 128 -340 142 -4 10 -62 221 -129
468 -67 248 -130 466 -140 486 -24 48 -72 95 -123 121 -52 27 -156 34 -209 14z
m152 -282 c26 -33 55 -124 136 -424 108 -401 131 -453 239 -564 75 -77 122
-102 374 -195 256 -95 266 -100 270 -134 2 -16 -3 -35 -10 -44 -18 -22 -126
-71 -292 -132 -218 -80 -261 -104 -348 -191 -55 -55 -86 -96 -107 -141 -18
-38 -66 -210 -121 -427 -50 -200 -101 -390 -114 -421 -41 -102 -83 -131 -134
-95 -48 33 -64 84 -192 587 -44 169 -90 333 -104 363 -59 129 -159 213 -337
282 -68 27 -180 71 -248 98 -145 57 -171 74 -171 114 0 37 1 38 265 135 257
95 305 120 384 198 91 89 125 167 216 502 91 335 120 430 146 472 23 37 31 41
86 42 33 1 46 -4 62 -25z"/>
</g>
</svg>
