<?xml version="1.0" standalone="no"?>
<!DOCTYPE svg PUBLIC "-//W3C//DTD SVG 20010904//EN"
 "http://www.w3.org/TR/2001/REC-SVG-20010904/DTD/svg10.dtd">
<svg version="1.0" xmlns="http://www.w3.org/2000/svg"
 width="2048.000000pt" height="2048.000000pt" viewBox="0 0 2048.000000 2048.000000"
 preserveAspectRatio="xMidYMid meet">
<metadata>
Created by potrace 1.13, written by Peter Selinger 2001-2015
</metadata>
<g transform="translate(0.000000,2048.000000) scale(0.192120,-0.192120)"
fill="#000000" stroke="none">
<path d="M1320 10324 c-273 -42 -463 -131 -640 -301 -176 -167 -284 -364 -332
-603 -19 -96 -19 -8084 0 -8180 80 -398 361 -723 733 -849 180 -60 -136 -56
4249 -56 4333 0 4064 -3 4235 52 328 105 601 379 708 708 55 171 52 -100 52
4235 0 4335 3 4064 -52 4235 -51 157 -132 292 -250 415 -160 169 -333 267
-572 328 -61 15 -367 16 -4086 18 -2211 1 -4031 0 -4045 -2z m3774 -270 c57
-8 63 -34 12 -58 -19 -9 -37 -16 -40 -16 -4 0 -19 -8 -34 -19 -15 -10 -52 -35
-82 -55 -141 -91 -273 -251 -348 -420 l-27 -61 -5 -1252 c-3 -688 -8 -1255
-12 -1259 -5 -4 -17 1 -28 11 -20 18 -20 17 -20 -7 0 -13 -3 -28 -7 -32 -4 -3
-432 418 -952 937 -980 977 -1015 1010 -1142 1058 -114 44 -239 31 -347 -34
-86 -51 -197 -174 -243 -270 -37 -78 -39 -85 -39 -181 0 -128 22 -192 113
-326 66 -98 140 -175 979 -1015 477 -479 868 -878 868 -887 0 -9 -7 -19 -15
-22 -9 -3 -514 -6 -1123 -6 -1067 0 -1218 -4 -1327 -31 -209 -51 -424 -234
-533 -454 -57 -114 -62 -140 -62 -326 0 -176 6 -205 61 -324 68 -146 224 -324
350 -398 82 -48 196 -84 307 -97 54 -6 512 -10 1206 -10 615 1 1121 -2 1124
-5 20 -20 -118 -166 -903 -955 -479 -481 -893 -904 -920 -940 -26 -36 -65
-101 -87 -145 l-39 -80 3 -116 c3 -113 4 -118 43 -193 50 -97 113 -176 190
-238 84 -68 150 -92 255 -92 97 0 151 18 246 79 39 25 391 369 1029 1007 534
532 976 968 983 968 9 0 12 -255 12 -1183 0 -1145 1 -1187 20 -1280 40 -190
125 -344 270 -487 59 -59 111 -99 168 -130 165 -90 165 -90 86 -113 -54 -15
-3542 -22 -3705 -8 -342 31 -595 195 -737 477 -68 134 -62 -245 -62 4275 0
3469 2 4101 14 4140 21 67 73 166 121 229 156 202 398 323 685 343 89 7 3648
7 3694 1z m4181 -4 c61 -5 147 -19 190 -30 263 -67 490 -263 574 -496 l21 -59
-2 -4145 -3 -4145 -26 -63 c-115 -272 -321 -438 -634 -510 -62 -14 -257 -16
-1785 -19 -1668 -4 -2021 1 -2069 27 -31 16 -19 27 81 79 140 72 244 167 337
311 57 88 111 219 133 323 8 36 13 438 17 1267 l6 1215 965 -961 c990 -986
1048 -1039 1167 -1084 235 -88 476 50 593 339 27 65 30 85 30 178 0 101 -1
107 -39 186 -22 45 -72 123 -112 172 -40 50 -451 470 -914 935 -463 465 -852
860 -864 878 -13 18 -21 37 -19 42 2 7 398 11 1188 13 l1185 2 80 23 c275 77
477 284 586 601 15 44 19 84 19 205 0 134 -3 159 -24 216 -37 103 -80 182
-144 261 -135 169 -269 260 -452 305 -71 18 -145 19 -1255 24 l-1180 5 -3 24
c-3 20 143 170 886 915 954 957 964 967 1033 1138 26 62 29 83 29 175 0 101
-1 107 -40 188 -31 65 -58 102 -118 163 -89 91 -142 125 -232 148 -118 30
-231 3 -361 -88 -52 -35 -359 -335 -1024 -997 -929 -925 -950 -945 -953 -913
-3 33 -4 33 -22 17 -16 -14 -21 -15 -25 -4 -3 8 -6 570 -7 1249 l-3 1235 -39
94 c-53 126 -103 199 -216 311 -89 89 -169 146 -272 195 -49 22 -52 52 -5 58
73 9 3617 6 3722 -3z m-3800 -295 c181 -48 333 -199 392 -390 17 -57 18 -124
18 -1260 l0 -1200 -28 -78 c-15 -43 -42 -102 -61 -130 -41 -65 -136 -153 -203
-190 -66 -35 -190 -67 -263 -67 -72 0 -197 32 -263 67 -78 41 -196 165 -233
243 -62 129 -59 66 -59 1365 0 1127 1 1193 18 1250 30 96 77 175 147 245 110
110 226 158 385 159 52 1 116 -6 150 -14z m-3085 -1115 c32 -16 345 -322 1113
-1088 1179 -1178 1122 -1115 1120 -1241 0 -79 -20 -127 -74 -186 -56 -61 -118
-88 -200 -89 -126 0 -63 -57 -1241 1121 -753 755 -1072 1081 -1088 1112 -31
61 -36 135 -16 206 22 75 100 156 172 179 65 21 157 15 214 -14z m6090 14 c76
-23 153 -100 176 -179 20 -71 15 -145 -16 -206 -16 -31 -335 -357 -1088 -1112
-1178 -1178 -1115 -1121 -1241 -1121 -82 1 -144 28 -201 90 -55 60 -73 105
-73 184 -1 127 -63 58 1106 1228 584 585 1077 1072 1096 1084 79 49 150 59
241 32z m-2979 -2508 c249 -53 459 -217 577 -451 62 -125 77 -194 77 -365 0
-135 -3 -165 -23 -230 -89 -281 -291 -483 -572 -572 -65 -20 -95 -23 -230 -23
-135 0 -165 3 -230 23 -280 88 -484 292 -572 572 -20 65 -23 95 -23 230 0 135
3 165 23 230 96 303 343 530 643 589 70 14 258 12 330 -3z m-1692 -278 c99
-31 164 -70 241 -148 42 -41 88 -98 103 -127 35 -66 67 -191 67 -263 0 -72
-32 -197 -67 -263 -41 -78 -165 -196 -243 -234 -128 -61 -67 -58 -1365 -58
-1127 0 -1193 1 -1250 18 -191 59 -342 211 -390 392 -19 76 -19 214 0 290 55
209 244 376 460 405 33 4 584 7 1225 6 1051 -2 1170 -3 1219 -18z m5561 -2
c191 -63 338 -213 385 -391 19 -76 19 -214 0 -290 -48 -181 -199 -333 -390
-392 -57 -17 -123 -18 -1255 -18 -1329 0 -1232 -5 -1374 67 -74 37 -190 151
-229 225 -35 66 -67 191 -67 263 0 73 32 197 67 263 81 150 250 265 423 287
30 4 579 7 1220 6 1099 -1 1168 -2 1220 -20z m-4914 -1261 c49 -20 119 -90
145 -143 16 -34 22 -66 23 -113 0 -126 57 -63 -1121 -1241 -755 -753 -1081
-1072 -1112 -1088 -61 -31 -135 -36 -206 -16 -77 23 -154 98 -180 175 -22 67
-16 149 15 212 16 31 326 349 1083 1107 584 585 1078 1073 1097 1085 74 46
177 55 256 22z m1979 -10 c40 -19 266 -240 1117 -1092 753 -755 1072 -1081
1088 -1112 31 -61 36 -135 16 -206 -24 -81 -100 -157 -181 -181 -71 -20 -145
-15 -206 16 -53 26 -2156 2121 -2194 2185 -57 95 -53 217 8 297 94 122 222
156 352 93z m-971 -395 c99 -25 165 -61 240 -130 74 -68 118 -136 153 -237
l28 -78 0 -1200 c0 -1136 -1 -1203 -18 -1260 -59 -191 -211 -342 -392 -390
-76 -19 -211 -19 -289 1 -183 47 -334 197 -393 389 -17 57 -18 123 -18 1250 0
1298 -3 1237 58 1365 38 78 156 202 234 243 68 36 183 66 259 66 33 1 96 -8
138 -19z"/>
</g>
</svg>
