<?xml version="1.0" standalone="no"?>
<!DOCTYPE svg PUBLIC "-//W3C//DTD SVG 20010904//EN"
 "http://www.w3.org/TR/2001/REC-SVG-20010904/DTD/svg10.dtd">
<svg version="1.0" xmlns="http://www.w3.org/2000/svg"
 width="2048.000000pt" height="2048.000000pt" viewBox="0 0 2048.000000 2048.000000"
 preserveAspectRatio="xMidYMid meet">
<metadata>
Created by potrace 1.13, written by Peter Selinger 2001-2015
</metadata>
<g transform="translate(0.000000,2048.000000) scale(0.192120,-0.192120)"
fill="#000000" stroke="none">
<path d="M5020 9759 c-1254 -137 -2291 -1063 -2444 -2181 -46 -332 -23 -521
87 -718 57 -102 205 -250 307 -307 288 -161 632 -145 895 42 210 149 335 377
351 640 3 50 13 115 21 145 45 166 204 367 398 505 245 175 536 248 855 216
375 -38 686 -176 915 -406 284 -284 378 -637 269 -1011 -86 -297 -304 -552
-644 -752 -276 -163 -685 -298 -975 -322 -150 -12 -210 -24 -307 -62 -241 -92
-430 -305 -505 -568 -17 -60 -18 -116 -18 -760 0 -695 0 -695 23 -774 42 -145
114 -268 217 -371 76 -77 134 -116 242 -167 410 -192 901 -12 1098 403 68 144
78 204 79 479 l1 244 124 28 c1141 254 1939 894 2240 1794 92 275 131 535 132
866 0 296 -24 511 -88 788 -269 1169 -1066 1962 -2203 2190 -252 51 -371 62
-690 65 -162 2 -333 -1 -380 -6z m550 -199 c457 -27 842 -122 1195 -295 273
-135 455 -264 666 -475 199 -198 346 -405 473 -665 117 -238 187 -447 246
-734 l31 -148 -4 -524 -3 -524 -31 -115 c-128 -476 -364 -856 -722 -1159 -336
-285 -728 -483 -1254 -633 -116 -33 -225 -67 -242 -75 -54 -28 -134 -104 -147
-139 -6 -19 -16 -34 -20 -34 -4 0 -8 -9 -8 -19 0 -10 -6 -21 -14 -24 -12 -5
-15 -45 -18 -214 -4 -216 -4 -215 -60 -374 -40 -116 -169 -254 -292 -314 -273
-133 -608 -80 -809 128 -62 65 -133 186 -147 251 -7 34 -9 296 -8 776 l3 725
34 70 c50 103 169 219 282 274 99 48 162 65 296 81 329 37 644 130 934 276
129 64 316 188 421 278 204 176 364 421 445 682 26 84 27 102 31 321 4 262 -2
300 -79 477 -171 398 -565 705 -1039 810 -448 98 -844 28 -1174 -208 -100 -72
-236 -202 -301 -289 -108 -142 -185 -331 -201 -487 -3 -36 -19 -108 -36 -161
-70 -233 -225 -383 -458 -446 -88 -23 -271 -23 -360 1 -180 49 -339 176 -418
336 l-42 86 0 285 c0 281 0 286 29 404 67 274 209 555 409 810 64 81 270 287
362 361 502 406 1108 622 1770 632 47 1 164 -3 260 -8z M4891 2259 c-265 -52
-507 -251 -607 -497 -38 -94 -55 -171 -61 -274 -18 -292 120 -571 362 -735 81
-55 125 -76 225 -109 77 -25 98 -28 235 -28 128 -1 162 2 230 22 237 69 454
259 542 474 88 219 86 468 -6 671 -107 237 -323 413 -578 471 -78 17 -265 20
-342 5z m340 -218 c193 -50 338 -160 418 -317 l31 -61 0 -216 c0 -206 -1 -219
-24 -270 -30 -69 -72 -127 -144 -200 -68 -70 -201 -140 -307 -162 -308 -64
-620 74 -753 333 l-42 84 0 208 c0 198 1 210 24 262 67 152 242 289 429 338
100 26 269 27 368 1z"/>
</g>
</svg>
