<?xml version="1.0" standalone="no"?>
<!DOCTYPE svg PUBLIC "-//W3C//DTD SVG 20010904//EN"
 "http://www.w3.org/TR/2001/REC-SVG-20010904/DTD/svg10.dtd">
<svg version="1.0" xmlns="http://www.w3.org/2000/svg"
 width="2048.000000pt" height="2048.000000pt" viewBox="0 0 2048.000000 2048.000000"
 preserveAspectRatio="xMidYMid meet">
<metadata>
Created by potrace 1.13, written by Peter Selinger 2001-2015
</metadata>
<g transform="translate(0.000000,2048.000000) scale(0.192120,-0.192120)"
fill="#000000" stroke="none">
<path d="M3468 10295 c-548 -78 -1018 -426 -1262 -935 -148 -308 -214 -644
-203 -1024 9 -311 77 -592 229 -951 425 -1000 1472 -2285 2885 -3536 111 -99
207 -179 213 -179 12 0 254 210 470 409 1291 1187 2224 2362 2629 3308 156
367 230 691 231 1013 1 691 -267 1264 -753 1613 -119 85 -337 190 -485 232
-324 92 -674 84 -991 -22 -386 -129 -710 -384 -954 -750 -40 -60 -87 -141
-106 -181 -19 -40 -38 -72 -41 -72 -3 0 -23 35 -44 77 -81 165 -237 374 -382
514 -253 243 -554 403 -890 469 -140 28 -405 35 -546 15z m495 -290 c312 -56
592 -200 813 -420 94 -93 142 -150 246 -295 90 -124 164 -202 233 -241 63 -36
87 -36 151 0 65 38 137 116 249 272 299 416 688 651 1159 699 267 28 543 -20
782 -134 395 -189 650 -510 760 -955 23 -93 24 -108 24 -506 0 -404 0 -411
-25 -515 -184 -761 -867 -1787 -1908 -2865 -391 -405 -937 -925 -1046 -996
-62 -40 -97 -38 -162 10 -182 138 -965 900 -1284 1251 -654 721 -1072 1291
-1383 1890 -129 248 -208 447 -275 690 l-31 115 -4 384 c-3 362 -2 391 18 485
104 489 393 848 837 1037 109 47 283 93 404 108 109 13 330 6 442 -14z M5176
3100 c-610 -77 -1093 -522 -1207 -1113 -146 -751 331 -1467 1084 -1629 136
-29 398 -31 531 -5 571 115 1000 544 1113 1114 23 122 24 376 0 498 -27 137
-61 239 -117 354 -197 404 -560 682 -1000 766 -103 19 -309 27 -404 15z m370
-295 c162 -29 336 -98 467 -187 139 -94 280 -256 352 -403 72 -149 75 -166 75
-485 0 -256 -2 -293 -20 -358 -62 -224 -223 -444 -422 -575 -214 -141 -414
-201 -673 -200 -321 1 -599 110 -819 322 -122 118 -216 264 -272 426 -28 79
-28 85 -32 345 -4 284 0 324 45 440 133 339 470 604 859 674 108 19 330 20
440 1z"/>
</g>
</svg>
