<?xml version="1.0" standalone="no"?>
<!DOCTYPE svg PUBLIC "-//W3C//DTD SVG 20010904//EN"
 "http://www.w3.org/TR/2001/REC-SVG-20010904/DTD/svg10.dtd">
<svg version="1.0" xmlns="http://www.w3.org/2000/svg"
 width="2048.000000pt" height="2048.000000pt" viewBox="0 0 2048.000000 2048.000000"
 preserveAspectRatio="xMidYMid meet">
<metadata>
Created by potrace 1.13, written by Peter Selinger 2001-2015
</metadata>
<g transform="translate(0.000000,2048.000000) scale(0.192120,-0.192120)"
fill="#000000" stroke="none">
<path d="M2315 9214 c-254 -16 -594 -62 -860 -116 -311 -63 -668 -159 -758
-204 -175 -89 -266 -298 -211 -485 22 -73 54 -125 111 -180 59 -57 102 -82
172 -103 94 -28 159 -21 357 35 686 195 1340 266 1789 194 430 -69 900 -219
1447 -461 87 -38 157 -72 155 -76 -1 -3 -67 -56 -147 -116 -432 -327 -886
-778 -1182 -1175 -406 -544 -660 -1122 -743 -1691 -77 -525 -8 -1158 182
-1666 315 -843 974 -1480 1823 -1760 318 -104 617 -147 964 -137 299 9 516 47
801 142 1099 364 1841 1298 1999 2517 106 810 -56 1529 -512 2268 -324 527
-876 1113 -1444 1534 -60 43 -108 82 -108 85 0 8 367 176 570 261 427 180 799
298 1098 351 158 28 401 34 757 20 457 -18 675 -38 1105 -97 308 -43 412 -44
455 -4 40 37 55 73 55 129 0 85 -62 147 -258 254 -391 216 -972 400 -1457 463
-160 21 -533 24 -690 6 -706 -82 -1567 -376 -2337 -799 l-117 -64 -82 47
c-118 66 -471 241 -624 309 -582 257 -1204 440 -1705 501 -121 15 -484 25
-605 18z m560 -314 c623 -72 1328 -301 2080 -677 246 -123 306 -146 379 -146
73 1 120 20 411 163 754 372 1434 592 2050 662 160 18 512 15 670 -6 261 -35
566 -106 633 -149 37 -24 -13 -28 -291 -20 -485 13 -856 9 -972 -11 -347 -59
-752 -189 -1252 -402 -224 -95 -334 -151 -408 -207 -66 -49 -158 -150 -193
-210 -74 -128 37 -306 358 -573 169 -140 262 -224 436 -394 635 -622 1015
-1265 1153 -1952 21 -103 22 -127 18 -625 l-3 -518 -32 -140 c-41 -183 -38
-171 -84 -314 -108 -339 -255 -614 -468 -880 -92 -115 -283 -301 -400 -392
-373 -288 -783 -460 -1270 -536 -144 -22 -546 -25 -690 -5 -802 113 -1490 544
-1895 1187 -139 221 -272 534 -339 800 -69 276 -71 295 -71 820 0 467 1 483
23 585 13 58 28 123 32 145 46 216 192 567 348 835 279 480 683 934 1256 1410
168 139 260 242 311 343 64 128 42 200 -104 346 -77 78 -101 94 -202 144 -319
156 -857 337 -1224 411 -269 54 -334 61 -625 61 -291 -1 -419 -11 -712 -60
-201 -34 -361 -68 -568 -122 -314 -82 -345 -86 -417 -54 -50 23 -63 45 -63
109 0 75 39 99 261 162 385 109 848 190 1255 220 142 10 482 5 609 -10z M5278
7599 c-172 -40 -676 -412 -1077 -794 -103 -98 -301 -311 -397 -425 -427 -512
-676 -1011 -778 -1559 -22 -117 -23 -746 -1 -890 61 -410 231 -821 477 -1153
384 -520 946 -862 1563 -953 144 -21 387 -21 530 0 1055 157 1876 1029 2035
2160 8 52 10 211 8 455 -4 342 -6 383 -26 470 -62 269 -141 488 -263 733 -295
590 -865 1219 -1565 1727 -165 121 -292 196 -373 220 -69 22 -78 22 -133 9z
m482 -530 c85 -64 214 -165 285 -225 171 -143 516 -487 647 -646 359 -437 587
-886 677 -1333 61 -304 55 -689 -15 -1035 -181 -887 -838 -1536 -1724 -1702
-164 -31 -437 -31 -601 0 -783 147 -1391 664 -1643 1399 -88 258 -125 479
-133 788 -8 324 22 539 116 824 255 772 888 1505 1876 2169 l89 60 135 -91
c75 -51 205 -144 291 -208z"/>
</g>
</svg>
