<?xml version="1.0" standalone="no"?>
<!DOCTYPE svg PUBLIC "-//W3C//DTD SVG 20010904//EN"
 "http://www.w3.org/TR/2001/REC-SVG-20010904/DTD/svg10.dtd">
<svg version="1.0" xmlns="http://www.w3.org/2000/svg"
 width="2048.000000pt" height="2048.000000pt" viewBox="0 0 2048.000000 2048.000000"
 preserveAspectRatio="xMidYMid meet">
<metadata>
Created by potrace 1.13, written by Peter Selinger 2001-2015
</metadata>
<g transform="translate(0.000000,2048.000000) scale(0.192120,-0.192120)"
fill="#000000" stroke="none">
<path d="M1320 10324 c-273 -42 -463 -131 -640 -301 -176 -167 -284 -364 -332
-603 -19 -96 -19 -8084 0 -8180 80 -398 361 -723 733 -849 180 -60 -136 -56
4249 -56 3399 0 4036 2 4095 14 398 79 726 367 848 746 55 171 52 -100 52
4235 0 4335 3 4064 -52 4235 -51 157 -132 292 -250 415 -160 169 -333 267
-572 328 -61 15 -367 16 -4086 18 -2211 1 -4031 0 -4045 -2z m8089 -287 c294
-72 494 -221 609 -457 l37 -75 0 -4165 0 -4165 -28 -69 c-120 -296 -384 -481
-736 -516 -74 -8 -1306 -10 -4041 -8 -3625 4 -3940 5 -4000 20 -334 86 -563
284 -649 562 l-21 68 0 4104 0 4105 21 62 c63 189 239 375 443 467 83 38 192
68 287 79 41 5 1846 8 4039 7 3772 -1 3969 -2 4039 -19z M4350 8630 c-45 -4
-93 -16 -118 -29 -56 -28 -189 -159 -197 -193 -4 -16 -11 -28 -16 -28 -5 0 -9
-9 -9 -20 0 -11 -4 -20 -10 -20 -7 0 -10 -360 -10 -1060 0 -1053 0 -1060 -20
-1060 -17 0 -20 -7 -20 -40 l0 -40 -672 0 c-714 0 -870 -7 -941 -38 -54 -24
-172 -133 -198 -183 -20 -40 -25 -106 -11 -137 51 -106 85 -163 151 -252 111
-150 2720 -3230 2812 -3320 42 -41 102 -90 134 -109 130 -78 218 -33 457 234
70 78 2565 3030 2636 3118 119 149 190 268 212 358 11 42 9 52 -13 101 -29 63
-129 161 -194 190 -72 32 -216 37 -935 38 l-698 0 0 40 c0 29 -4 40 -15 40
-13 0 -15 124 -15 1060 0 700 -3 1060 -10 1060 -5 0 -10 9 -10 20 0 11 -4 20
-8 20 -4 0 -14 16 -21 36 -15 42 -130 158 -185 186 -22 11 -75 23 -125 29
-100 10 -1840 10 -1951 -1z m2090 -1492 l0 -1253 976 3 976 3 -28 -34 c-16
-18 -703 -830 -1527 -1803 -824 -973 -1502 -1769 -1507 -1769 -5 0 -683 796
-1507 1769 -824 973 -1511 1785 -1527 1803 l-28 34 976 -3 976 -3 0 1253 0
1252 1110 0 1110 0 0 -1252z"/>
</g>
</svg>
