<?xml version="1.0" standalone="no"?>
<!DOCTYPE svg PUBLIC "-//W3C//DTD SVG 20010904//EN"
 "http://www.w3.org/TR/2001/REC-SVG-20010904/DTD/svg10.dtd">
<svg version="1.0" xmlns="http://www.w3.org/2000/svg"
 width="2048.000000pt" height="2048.000000pt" viewBox="0 0 2048.000000 2048.000000"
 preserveAspectRatio="xMidYMid meet">
<metadata>
Created by potrace 1.13, written by Peter Selinger 2001-2015
</metadata>
<g transform="translate(0.000000,2048.000000) scale(0.192120,-0.192120)"
fill="#000000" stroke="none">
<path d="M5065 10323 c-708 -42 -1346 -211 -1965 -519 -1292 -644 -2245 -1819
-2610 -3219 -264 -1014 -198 -2105 187 -3085 398 -1015 1140 -1892 2079 -2456
963 -578 2086 -814 3209 -673 908 114 1777 484 2496 1064 1101 886 1770 2176
1859 3585 86 1371 -401 2725 -1342 3726 -425 453 -889 797 -1443 1069 -603
297 -1215 460 -1890 505 -137 9 -457 11 -580 3z m555 -283 c838 -52 1614 -302
2305 -743 958 -612 1654 -1532 1968 -2602 57 -194 87 -326 127 -563 l30 -173
0 -624 c0 -583 -1 -633 -21 -752 -59 -365 -145 -685 -272 -1008 -124 -316
-242 -543 -445 -855 -344 -528 -774 -963 -1302 -1318 -624 -418 -1351 -687
-2100 -776 -1332 -159 -2666 237 -3685 1093 -199 167 -496 473 -655 676 -250
316 -486 718 -644 1094 -101 239 -223 636 -267 866 -69 363 -71 390 -67 1030
l4 580 32 180 c67 369 161 696 288 1002 361 865 966 1591 1767 2116 861 566
1901 841 2937 777z M5080 8914 c-774 -68 -1429 -337 -2025 -833 -285 -237
-631 -647 -807 -956 -175 -308 -299 -608 -379 -921 -80 -315 -83 -339 -87
-819 -4 -457 0 -523 44 -743 112 -554 378 -1118 746 -1580 118 -147 410 -443
548 -554 535 -430 1134 -682 1830 -770 140 -17 620 -17 760 0 167 21 324 50
470 87 845 213 1591 746 2087 1490 289 435 481 911 576 1427 21 116 22 149 22
593 0 448 -1 476 -23 590 -129 679 -400 1246 -839 1756 -128 148 -368 378
-512 489 -522 404 -1084 639 -1731 725 -119 16 -570 28 -680 19z m595 -269
c770 -82 1464 -413 2011 -959 524 -525 844 -1173 951 -1929 25 -174 25 -680 0
-854 -107 -755 -428 -1405 -951 -1929 -522 -521 -1176 -845 -1918 -950 -156
-21 -561 -30 -730 -14 -788 71 -1502 405 -2064 965 -486 485 -806 1098 -928
1780 -61 341 -61 809 0 1150 122 683 439 1291 928 1781 543 542 1238 875 1999
958 169 19 530 19 702 1z"/>
</g>
</svg>
