<?xml version="1.0" standalone="no"?>
<!DOCTYPE svg PUBLIC "-//W3C//DTD SVG 20010904//EN"
 "http://www.w3.org/TR/2001/REC-SVG-20010904/DTD/svg10.dtd">
<svg version="1.0" xmlns="http://www.w3.org/2000/svg"
 width="2048.000000pt" height="2048.000000pt" viewBox="0 0 2048.000000 2048.000000"
 preserveAspectRatio="xMidYMid meet">
<metadata>
Created by potrace 1.13, written by Peter Selinger 2001-2015
</metadata>
<g transform="translate(0.000000,2048.000000) scale(0.192120,-0.192120)"
fill="#000000" stroke="none">
<path d="M1320 10324 c-273 -42 -463 -131 -640 -301 -176 -167 -284 -364 -332
-603 -19 -96 -19 -8084 0 -8180 80 -398 361 -723 733 -849 180 -60 -136 -56
4249 -56 3399 0 4036 2 4095 14 398 79 726 367 848 746 55 171 52 -100 52
4235 0 4335 3 4064 -52 4235 -51 157 -132 292 -250 415 -160 169 -333 267
-572 328 -61 15 -367 16 -4086 18 -2211 1 -4031 0 -4045 -2z m8089 -287 c294
-72 494 -221 609 -457 l37 -75 0 -4165 0 -4165 -28 -69 c-120 -296 -384 -481
-736 -516 -74 -8 -1306 -10 -4041 -8 -3625 4 -3940 5 -4000 20 -334 86 -563
284 -649 562 l-21 68 0 4104 0 4105 21 62 c63 189 239 375 443 467 83 38 192
68 287 79 41 5 1846 8 4039 7 3772 -1 3969 -2 4039 -19z M5117 8749 c-657 -64
-1306 -465 -1693 -1046 -135 -203 -254 -484 -308 -724 -24 -108 -26 -134 -26
-366 0 -236 1 -253 24 -319 90 -266 277 -480 500 -573 82 -34 218 -61 308 -61
295 0 539 189 692 537 24 54 76 195 116 313 90 266 132 351 211 424 88 82 143
100 304 101 121 0 134 -2 187 -27 78 -36 122 -71 158 -126 l30 -45 0 -204 c0
-192 -2 -209 -25 -279 -14 -41 -39 -103 -56 -137 -82 -162 -423 -638 -698
-972 -280 -341 -412 -495 -956 -1110 -467 -528 -607 -695 -693 -821 -42 -62
-122 -224 -141 -285 -18 -57 -14 -355 5 -419 23 -79 96 -211 160 -291 153
-192 348 -287 637 -309 164 -13 2836 -13 2990 0 135 11 214 29 303 70 199 90
352 264 440 500 24 67 28 92 32 225 5 172 -4 233 -49 340 -82 197 -246 362
-442 443 -149 62 -168 64 -782 71 -582 7 -605 9 -605 49 0 22 27 54 296 363
840 966 1215 1575 1365 2219 29 124 29 128 29 438 0 351 -7 411 -76 620 -144
442 -414 796 -803 1056 -393 263 -934 393 -1434 345z m548 -264 c429 -66 801
-248 1080 -530 130 -131 219 -257 304 -430 128 -258 181 -490 181 -795 0 -325
-73 -609 -249 -967 -229 -466 -515 -851 -1277 -1723 -354 -406 -534 -615 -534
-624 0 -3 395 -7 878 -8 l877 -4 75 -22 c220 -68 356 -201 400 -391 18 -75 16
-233 -4 -309 -59 -232 -245 -375 -524 -402 -128 -12 -2891 -13 -3037 0 -203
17 -337 70 -441 174 -100 100 -144 217 -144 379 0 136 40 244 139 377 54 73
329 395 591 690 919 1039 1241 1429 1575 1911 233 336 319 543 332 799 4 97 2
129 -16 204 -48 198 -176 365 -342 444 -99 48 -162 62 -269 62 -298 0 -503
-142 -630 -437 -20 -49 -72 -194 -114 -324 -89 -278 -141 -389 -225 -480 -64
-71 -124 -108 -215 -134 -82 -24 -285 -16 -369 13 -209 75 -344 227 -391 439
-31 138 -14 400 38 604 122 481 445 913 891 1194 249 157 566 268 865 305 110
13 427 5 555 -15z"/>
</g>
</svg>
