<?xml version="1.0" standalone="no"?>
<!DOCTYPE svg PUBLIC "-//W3C//DTD SVG 20010904//EN"
 "http://www.w3.org/TR/2001/REC-SVG-20010904/DTD/svg10.dtd">
<svg version="1.0" xmlns="http://www.w3.org/2000/svg"
 width="2048.000000pt" height="2048.000000pt" viewBox="0 0 2048.000000 2048.000000"
 preserveAspectRatio="xMidYMid meet">
<metadata>
Created by potrace 1.13, written by Peter Selinger 2001-2015
</metadata>
<g transform="translate(0.000000,2048.000000) scale(0.192120,-0.192120)"
fill="#000000" stroke="none">
<path d="M1320 10324 c-273 -42 -463 -131 -640 -301 -176 -167 -284 -364 -332
-603 -19 -96 -19 -8084 0 -8180 80 -398 361 -723 733 -849 180 -60 -136 -56
4249 -56 3399 0 4036 2 4095 14 398 79 726 367 848 746 55 171 52 -100 52
4235 0 4335 3 4064 -52 4235 -51 157 -132 292 -250 415 -160 169 -333 267
-572 328 -61 15 -367 16 -4086 18 -2211 1 -4031 0 -4045 -2z m8089 -287 c294
-72 494 -221 609 -457 l37 -75 0 -4165 0 -4165 -28 -69 c-120 -296 -384 -481
-736 -516 -74 -8 -1306 -10 -4041 -8 -3625 4 -3940 5 -4000 20 -334 86 -563
284 -649 562 l-21 68 0 4104 0 4105 21 62 c63 189 239 375 443 467 83 38 192
68 287 79 41 5 1846 8 4039 7 3772 -1 3969 -2 4039 -19z M5520 8754 c-291 -34
-452 -97 -634 -248 -70 -59 -198 -206 -261 -300 -58 -88 -1884 -3393 -2001
-3622 -108 -213 -116 -245 -112 -450 l3 -169 38 -83 c112 -250 300 -422 539
-494 72 -21 81 -22 1073 -28 550 -4 1001 -8 1003 -9 1 0 2 -133 2 -294 0 -331
12 -427 72 -578 73 -186 226 -363 380 -438 135 -66 186 -76 398 -76 193 1 248
9 355 55 162 70 310 229 394 426 73 171 91 297 91 651 l0 263 23 4 c104 21
175 42 226 66 217 103 383 303 460 554 17 56 21 94 21 210 0 153 -8 196 -59
316 -54 128 -192 291 -314 371 -73 48 -184 94 -264 109 l-63 13 0 43 c0 32 -4
44 -15 44 -12 0 -15 163 -18 1253 -3 1229 -4 1254 -25 1362 -57 293 -180 532
-374 722 -169 167 -353 265 -580 308 -83 16 -292 27 -358 19z m305 -259 c370
-60 650 -306 755 -663 56 -191 53 -111 57 -1648 l4 -1422 147 -4 c129 -5 156
-9 222 -33 96 -35 141 -64 213 -134 110 -106 161 -231 161 -396 0 -222 -103
-395 -291 -492 -108 -56 -184 -73 -330 -73 l-121 0 -5 -452 c-5 -503 -8 -540
-72 -675 -62 -133 -175 -221 -331 -259 -96 -24 -333 -24 -429 -1 -201 49 -313
159 -377 369 -21 70 -22 92 -26 545 l-3 473 -1122 2 -1122 3 -65 24 c-85 30
-104 41 -176 95 -68 50 -132 136 -165 217 -48 120 -33 311 35 442 55 106 2006
3638 2034 3681 126 196 275 312 477 371 155 45 366 57 530 30z M5328 7063
c-28 -60 -289 -600 -579 -1201 -291 -601 -529 -1095 -529 -1098 0 -2 266 -4
590 -4 l590 0 0 1205 c0 849 -3 1205 -11 1205 -6 0 -33 -48 -61 -107z m-198
-1516 l0 -534 -242 1 c-134 1 -249 5 -255 9 -27 17 -9 73 86 274 248 523 383
783 406 783 3 0 5 -240 5 -533z"/>
</g>
</svg>
