<?xml version="1.0" standalone="no"?>
<!DOCTYPE svg PUBLIC "-//W3C//DTD SVG 20010904//EN"
 "http://www.w3.org/TR/2001/REC-SVG-20010904/DTD/svg10.dtd">
<svg version="1.0" xmlns="http://www.w3.org/2000/svg"
 width="2048.000000pt" height="2048.000000pt" viewBox="0 0 2048.000000 2048.000000"
 preserveAspectRatio="xMidYMid meet">
<metadata>
Created by potrace 1.13, written by Peter Selinger 2001-2015
</metadata>
<g transform="translate(0.000000,2048.000000) scale(0.192120,-0.192120)"
fill="#000000" stroke="none">
<path d="M1320 10324 c-273 -42 -463 -131 -640 -301 -176 -167 -284 -364 -332
-603 -19 -96 -19 -8084 0 -8180 80 -398 361 -723 733 -849 180 -60 -136 -56
4249 -56 3399 0 4036 2 4095 14 398 79 726 367 848 746 55 171 52 -100 52
4235 0 4335 3 4064 -52 4235 -51 157 -132 292 -250 415 -160 169 -333 267
-572 328 -61 15 -367 16 -4086 18 -2211 1 -4031 0 -4045 -2z m8089 -287 c294
-72 494 -221 609 -457 l37 -75 0 -4165 0 -4165 -28 -69 c-120 -296 -384 -481
-736 -516 -74 -8 -1306 -10 -4041 -8 -3625 4 -3940 5 -4000 20 -334 86 -563
284 -649 562 l-21 68 0 4104 0 4105 21 62 c63 189 239 375 443 467 83 38 192
68 287 79 41 5 1846 8 4039 7 3772 -1 3969 -2 4039 -19z M5710 8734 c-241 -64
-575 -347 -1026 -869 -522 -605 -944 -1233 -1269 -1890 -184 -372 -298 -666
-375 -967 -75 -290 -80 -338 -80 -707 0 -282 3 -342 20 -434 63 -343 205 -680
415 -982 305 -437 763 -760 1271 -896 864 -230 1739 1 2334 617 58 60 131 141
162 179 245 307 433 716 508 1100 17 93 20 145 20 419 0 242 -4 333 -16 397
-152 816 -747 1505 -1481 1713 -103 30 -300 66 -355 66 -52 0 -86 30 -71 62 6
13 102 124 214 248 494 548 630 728 695 922 24 73 26 89 22 211 -4 129 -5 134
-45 224 -125 281 -398 530 -645 588 -79 19 -226 18 -298 -1z m301 -247 c103
-35 176 -84 279 -187 151 -151 217 -289 208 -434 -10 -151 -78 -242 -687 -916
-147 -162 -310 -344 -362 -405 -115 -131 -319 -385 -319 -396 0 -19 22 -16
115 16 148 50 272 68 460 67 115 0 194 -6 279 -21 681 -119 1247 -661 1435
-1373 57 -214 65 -283 65 -533 0 -252 -10 -338 -64 -541 -77 -289 -222 -575
-407 -804 -74 -91 -246 -262 -328 -326 -299 -233 -641 -380 -1025 -440 -161
-25 -508 -25 -675 0 -473 72 -858 256 -1174 561 -182 176 -308 349 -417 570
-239 489 -285 1024 -139 1605 121 484 376 1041 746 1633 570 912 1426 1861
1746 1936 74 17 194 12 264 -12z M5155 5185 c-324 -71 -549 -316 -626 -680
-19 -88 -16 -323 5 -420 22 -100 65 -211 113 -295 47 -80 188 -223 266 -269
131 -77 317 -119 473 -107 432 33 732 363 760 834 24 407 -178 767 -503 897
-131 53 -350 71 -488 40z m350 -281 c148 -35 271 -130 335 -258 l35 -70 3
-245 c3 -242 3 -246 -23 -316 -53 -147 -174 -266 -320 -314 -93 -31 -252 -39
-351 -18 -197 42 -346 177 -404 366 -17 54 -20 92 -20 265 0 184 2 206 24 267
51 144 169 256 326 309 119 40 264 45 395 14z"/>
</g>
</svg>
