<?xml version="1.0" standalone="no"?>
<!DOCTYPE svg PUBLIC "-//W3C//DTD SVG 20010904//EN"
 "http://www.w3.org/TR/2001/REC-SVG-20010904/DTD/svg10.dtd">
<svg version="1.0" xmlns="http://www.w3.org/2000/svg"
 width="2048.000000pt" height="2048.000000pt" viewBox="0 0 2048.000000 2048.000000"
 preserveAspectRatio="xMidYMid meet">
<metadata>
Created by potrace 1.13, written by Peter Selinger 2001-2015
</metadata>
<g transform="translate(0.000000,2048.000000) scale(0.192120,-0.192120)"
fill="#000000" stroke="none">
<path d="M1320 10324 c-273 -42 -463 -131 -640 -301 -176 -167 -284 -364 -332
-603 -19 -96 -19 -8084 0 -8180 80 -398 361 -723 733 -849 180 -60 -136 -56
4249 -56 3399 0 4036 2 4095 14 398 79 726 367 848 746 55 171 52 -100 52
4235 0 4335 3 4064 -52 4235 -51 157 -132 292 -250 415 -160 169 -333 267
-572 328 -61 15 -367 16 -4086 18 -2211 1 -4031 0 -4045 -2z m8089 -287 c294
-72 494 -221 609 -457 l37 -75 0 -4165 0 -4165 -28 -69 c-120 -296 -384 -481
-736 -516 -74 -8 -1306 -10 -4041 -8 -3625 4 -3940 5 -4000 20 -334 86 -563
284 -649 562 l-21 68 0 4104 0 4105 21 62 c63 189 239 375 443 467 83 38 192
68 287 79 41 5 1846 8 4039 7 3772 -1 3969 -2 4039 -19z M5113 8750 c-473 -46
-908 -224 -1271 -519 -112 -91 -291 -272 -379 -383 -209 -263 -379 -607 -454
-918 -45 -183 -49 -233 -49 -555 0 -263 3 -324 19 -405 79 -398 248 -753 508
-1068 340 -410 817 -671 1310 -718 83 -8 103 -22 84 -58 -20 -37 -125 -161
-302 -357 -364 -402 -480 -548 -566 -714 l-58 -110 -3 -128 c-5 -148 3 -187
58 -304 111 -236 291 -428 495 -529 111 -54 187 -74 287 -74 110 0 169 15 283
70 215 105 472 337 841 760 832 955 1489 2101 1704 2970 65 267 65 262 65 675
0 329 -2 391 -18 460 -94 420 -241 736 -485 1044 -377 475 -911 772 -1532 851
-117 15 -426 21 -537 10z m577 -265 c876 -134 1528 -724 1739 -1575 53 -213
75 -535 52 -752 -66 -622 -389 -1388 -936 -2218 -445 -676 -1073 -1403 -1419
-1643 -120 -83 -156 -101 -224 -116 -137 -29 -268 2 -408 94 -133 89 -244 221
-302 359 -21 50 -26 77 -26 156 -1 92 0 98 37 167 65 120 194 275 673 803 263
290 405 453 520 596 165 205 166 210 33 164 -164 -57 -223 -65 -469 -65 -195
0 -239 3 -327 23 -466 102 -853 369 -1124 776 -691 1038 -284 2482 856 3036
240 117 478 182 780 214 85 9 444 -4 545 -19z M5175 7255 c-246 -45 -452 -205
-565 -440 -192 -398 -86 -941 232 -1180 144 -108 278 -150 488 -150 169 0 251
19 384 88 119 61 255 199 318 322 87 172 113 286 112 490 -2 187 -28 298 -106
455 -45 91 -65 118 -148 201 -81 82 -109 103 -190 143 -158 78 -348 104 -525
71z m329 -285 c173 -44 306 -158 357 -307 17 -49 19 -85 19 -285 0 -260 -8
-302 -80 -409 -54 -78 -102 -122 -181 -164 -88 -46 -173 -65 -294 -65 -249 0
-414 97 -513 300 l-47 95 -3 221 -4 220 33 84 c28 73 41 93 108 160 42 41 99
88 128 103 125 67 325 86 477 47z"/>
</g>
</svg>
